<?xml version="1.0" encoding="UTF-8"?>
<svg width="170px" height="28px" viewBox="0 0 170 28" version="1.1" xmlns="http://www.w3.org/2000/svg" xmlns:xlink="http://www.w3.org/1999/xlink">
    <!-- Generator: sketchtool 55.2 (78181) - https://sketchapp.com -->
    <title>46084BF1-509C-4071-ACA9-7C4ADC621269</title>
    <desc>Created with sketchtool.</desc>
    <defs>
        <polygon id="path-1" points="0 0 83 0 83 28 0 28"></polygon>
    </defs>
    <g id="Page-1" stroke="none" stroke-width="1" fill="none" fill-rule="evenodd">
        <g id="Desktop-HD-FlyOut" transform="translate(-70.000000, -20.000000)">
            <g id="Navigation-Bar">
                <g id="Logo-Interaction" transform="translate(70.000000, 20.000000)">
                    <polygon id="Fill-1" fill="#323237" points="118.077403 5.80769231 112.845482 12.9366825 112.845482 5.80769231 110 5.80769231 110 20.2307692 112.845482 20.2307692 112.845482 13.1017791 118.077403 20.2307692 121.538462 20.2307692 115.988668 12.9366825 121.239796 5.80769231"></polygon>
                    <path d="M165.476385,12.3608 C163.656935,11.8848 161.489165,11.6358 161.489165,10.3948 C161.489165,9.1938 162.440309,8.6358 163.926409,8.6358 C165.14603,8.6358 166.55029,9.4828 166.55029,10.8078 L169.443644,10.8078 C169.443644,7.9728 166.635124,6.0478 163.908444,6.0478 C161.075971,6.0478 158.51397,7.5378 158.51397,10.3948 C158.51397,12.8588 160.416259,13.8508 163.203819,14.3698 C165.828698,14.8668 166.860684,15.6128 166.860684,16.6878 C166.860684,17.8468 165.457422,18.3648 164.15696,18.3648 C162.625947,18.3648 161.055012,17.2278 161.055012,15.7368 L158.161658,15.7368 C158.161658,18.9858 160.891332,20.9518 164.341599,20.9518 C167.089238,20.9518 169.754038,19.5048 169.754038,16.6878 C169.754038,14.0178 167.812826,13.0248 165.476385,12.3608" id="Fill-2" fill="#323237"></path>
                    <path d="M146.769742,20.9521 C150.945594,20.9521 152.538486,18.6741 152.538486,14.8221 L152.538486,6.2441 L149.582254,6.2441 L149.582254,15.1521 C149.582254,16.9541 148.900584,18.3631 146.769742,18.3631 C144.6389,18.3631 143.956232,16.9541 143.956232,15.1521 L143.956232,6.2441 L141,6.2441 L141,14.8221 C141,18.6741 142.591894,20.9521 146.769742,20.9521" id="Fill-4" fill="#323237"></path>
                    <path d="M135.272955,6.2437 L132.317722,6.2437 L132.317722,15.8327 C132.317722,17.4277 131.428457,18.3597 130.064119,18.3597 C128.493184,18.3597 127.976193,16.9717 127.976193,15.6047 L125,15.6047 C125.082838,18.9187 126.81945,20.9487 130.106037,20.9487 C133.742941,20.9487 135.277945,18.7997 135.277945,15.7967 L135.272955,6.2437 Z" id="Fill-6" fill="#323237"></path>
                    <g id="Group-10">
                        <mask id="mask-2" fill="white">
                            <use xlink:href="#path-1"></use>
                        </mask>
                        <g id="Clip-9"></g>
                        <path d="M79.7994146,19.9281171 C58.0794027,29.731456 36.3750144,16.5020445 34.4477441,9.31053995 C45.9388278,5.77134757 57.35291,6.23838657 65.6791192,7.06718478 L67.5360836,7.28334432 L70.1541357,6.64606569 C58.2322898,2.48527465 32.1890325,0.375199192 10.990176,14.4871688 C10.8551443,13.8834901 9.06960154,10.0833383 26.5545291,1.01471782 C26.7888816,0.637278628 27.089076,0.296799361 27.4428367,0 C22.721192,1.05055774 -4.12444357,12.2404536 0.542518847,26.2314635 L1.01233979,27.399621 C1.01233979,27.399621 12.2512156,18.093561 25.5535092,12.2897335 C40.0409569,37.6610389 71.0781541,25.6916247 78.5662741,21.4580338 C78.5662741,21.4580338 79.2313888,21.0481147 79.4545816,20.918195 C79.6788904,20.7871552 82.5257152,18.9066793 82.5257152,18.9066793 L83,18.3702004 L79.7994146,19.9281171 Z" id="Fill-8" fill="#EE8239" mask="url(#mask-2)"></path>
                    </g>
                </g>
            </g>
        </g>
    </g>
</svg>