<svg id="refresh-rotate.3" xmlns="http://www.w3.org/2000/svg" width="24" height="24" viewBox="0 0 24 24">
  <path id="Tracciato_2170" data-name="Tracciato 2170" d="M0,0H24V24H0Z" fill="none"/>
  <path id="Tracciato_2171" data-name="Tracciato 2171" d="M0,0H24V24H0Z" fill="none"/>
  <path id="Tracciato_2172" data-name="Tracciato 2172" d="M12,20h0a8,8,0,0,0,7.027-4.175" fill="none" stroke="#1474bd" stroke-linecap="round" stroke-linejoin="round" stroke-width="1.5"/>
  <path id="Tracciato_2173" data-name="Tracciato 2173" d="M20,12h0a8,8,0,0,0-8-8" fill="none" stroke="#1474bd" stroke-linecap="round" stroke-linejoin="round" stroke-width="1.5"/>
  <path id="Tracciato_2174" data-name="Tracciato 2174" d="M12,4h0A8,8,0,0,0,4.973,8.175" fill="none" stroke="#1474bd" stroke-linecap="round" stroke-linejoin="round" stroke-width="1.5"/>
  <path id="Tracciato_2175" data-name="Tracciato 2175" d="M4,12H4a8,8,0,0,0,8,8" fill="none" stroke="#1474bd" stroke-linecap="round" stroke-linejoin="round" stroke-width="1.5"/>
  <path id="Tracciato_2176" data-name="Tracciato 2176" d="M4.973,8.175h0A8,8,0,0,1,20,12" fill="none" stroke="#1474bd" stroke-linecap="round" stroke-linejoin="round" stroke-width="1.5"/>
  <path id="Tracciato_2177" data-name="Tracciato 2177" d="M4,12H4a8,8,0,0,0,15.028,3.823" fill="none" stroke="#1474bd" stroke-linecap="round" stroke-linejoin="round" stroke-width="1.5"/>
  <path id="Tracciato_2178" data-name="Tracciato 2178" d="M8.047,8.175H4.512V4.639" fill="none" stroke="#1474bd" stroke-linecap="round" stroke-linejoin="round" stroke-width="1.5"/>
  <path id="Tracciato_2179" data-name="Tracciato 2179" d="M15.953,15.825h3.535v3.536" fill="none" stroke="#1474bd" stroke-linecap="round" stroke-linejoin="round" stroke-width="1.5"/>
</svg>
