<svg width="1090" height="434" fill="none" xmlns="http://www.w3.org/2000/svg"><g filter="url(#filter0_d)"><rect x="3" y="1" width="1084" height="96" rx="2" fill="#fff"/></g><path d="M1031 46.5c-.83 0-1.5.671-1.5 1.5s.67 1.5 1.5 1.5 1.5-.671 1.5-1.5-.67-1.5-1.5-1.5zm6 0c-.83 0-1.5.671-1.5 1.5s.67 1.5 1.5 1.5 1.5-.671 1.5-1.5-.67-1.5-1.5-1.5zm6 0c-.83 0-1.5.671-1.5 1.5s.67 1.5 1.5 1.5 1.5-.671 1.5-1.5-.67-1.5-1.5-1.5z" fill="#106EBE"/><path d="M800.982 42.982l3 3-3 3" stroke="#007DAA" stroke-width="1.5" stroke-linecap="round" stroke-linejoin="round"/><path d="M803.982 45.982h-5.504a2.5 2.5 0 00-2.5 2.5v4.5" stroke="#007DAA" stroke-width="1.5"/><path clip-rule="evenodd" d="M790.366 47.366l8.232 8.232a1.25 1.25 0 001.768 0l8.232-8.232a1.25 1.25 0 000-1.768l-8.232-8.232a1.25 1.25 0 00-1.768 0l-8.232 8.232a1.25 1.25 0 000 1.768z" stroke="#007DAA" stroke-width="1.5"/><path clip-rule="evenodd" d="M852.117 39.285v-.003.003zm0 0l.106.426a3.254 3.254 0 001.164 1.634c.245.185.595.36.992.505l.413.149v2.626h-2.619c-.028 0-.048.022-.056-.007l.106.426a3.247 3.247 0 001.164 1.634c.245.185.595.361.992.505l.413.15v2.625h-2.619c-.028 0-.048.022-.056-.006l.106.426a3.262 3.262 0 001.162 1.634c.244.185.593.359.994.504l.413.15v2c0 .392.317.709.708.709h6.667a.709.709 0 00.708-.708v-2.002l.413-.149c.342-.123.653-.292.933-.504.28-.211.517-.454.714-.73.19-.264.337-.556.437-.866l.11-.431c0-.004-.019-.027-.047-.027h-2.56v-2.626l.413-.15c.343-.123.656-.292.933-.502.283-.215.52-.457.714-.73.196-.274.345-.573.439-.868l.109-.428c0-.006-.02-.029-.048-.029h-2.56v-2.627l.413-.149c.342-.123.653-.291.933-.503.273-.206.514-.452.713-.73a3.12 3.12 0 00.438-.867l.11-.43c0-.005-.019-.027-.047-.027h-2.56v-1.959a.707.707 0 00-.708-.708H855.5a.706.706 0 00-.708.708v1.959h-2.619c-.028 0-.048.022-.056-.007v0zm0 5.333v-.002.002zm0 5.334v-.003.003z" stroke="#007DAA" stroke-width="1.25"/><path d="M858.8 42.5a1.5 1.5 0 100-3 1.5 1.5 0 000 3zM858.8 47.5a1.5 1.5 0 100-3 1.5 1.5 0 000 3zM858.8 52.5a1.5 1.5 0 100-3 1.5 1.5 0 000 3z" fill="#007DAA"/><path d="M925 48.5v-9a1.5 1.5 0 00-1.5-1.5h-11a1.5 1.5 0 00-1.5 1.5V51a3.001 3.001 0 003 3h10a1 1 0 000-2v-2.092c.581-.207 1-.756 1-1.408zm-7-8.5a2.74 2.74 0 012.739 2.739c0 1.826-2.435 4.261-2.739 4.261-.304 0-2.739-2.435-2.739-4.261A2.74 2.74 0 01918 40zm4 12h-8a1.002 1.002 0 01-1-1 1.002 1.002 0 011-1h8v2zm-4-8a1 1 0 100-2 1 1 0 000 2z" fill="#106EBE"/><g clip-path="url(#clip0)" fill-rule="evenodd" clip-rule="evenodd" fill="#007DAA" stroke="#007DAA" stroke-width=".25"><path d="M968.25 38v1.125h14.625V53.75H984V38h-15.75z"/><path d="M972.386 51.686l-3.193-3.193.848-.848.099-.1 2.246 2.247 5.24-5.24.948.947-6.188 6.187z"/><path d="M980.625 41.375v13.5h-13.5v-13.5h13.5zm1.125-1.125H966V56h15.75V40.25z"/></g><g filter="url(#filter1_d)"><rect x="181" y="29" width="580" height="44" rx="22" fill="#fff"/><rect x="181.5" y="29.5" width="579" height="43" rx="21.5" stroke="#EFEFEF" stroke-linejoin="round"/></g><rect x="840" y="64" width="36" height="11" rx="5.5" fill="#C4C4C4"/><rect x="783" y="64" width="36" height="11" rx="5.5" fill="#C4C4C4"/><rect x="957" y="64" width="36" height="11" rx="5.5" fill="#C4C4C4"/><rect x="1019" y="65" width="36" height="11" rx="5.5" fill="#C4C4C4"/><rect x="900" y="64" width="36" height="11" rx="5.5" fill="#C4C4C4"/><path d="M789 254H659c-13.807 0-25 11.193-25 25v130c0 13.807 11.193 25 25 25h130c13.807 0 25-11.193 25-25V279c0-13.807-11.193-25-25-25z" fill="#106EBE"/><path d="M744.232 306.827a3.836 3.836 0 00-1.121-2.706 3.81 3.81 0 00-2.706-1.121h-33.167a3.836 3.836 0 00-2.706 1.121 3.81 3.81 0 00-1.121 2.706v16.583h40.821v-16.583zm12.757 26.788h-66.335a7.65 7.65 0 00-7.654 7.654v29.341a3.83 3.83 0 003.827 3.827h6.379v-6.379a3.826 3.826 0 013.827-3.827h53.577a3.826 3.826 0 013.827 3.827v6.379h6.379a3.83 3.83 0 003.827-3.827v-29.341a7.65 7.65 0 00-7.654-7.654zm-55.073 18.916a5.11 5.11 0 01-3.608 1.494 5.115 5.115 0 01-4.713-3.151 5.112 5.112 0 01.001-3.905 5.102 5.102 0 118.32 5.562zm38.489 21.906h-33.167a3.836 3.836 0 00-2.706 1.121 3.81 3.81 0 00-1.121 2.706v2.551a3.826 3.826 0 003.827 3.827h33.167a3.826 3.826 0 003.827-3.827v-2.551a3.836 3.836 0 00-1.121-2.706 3.81 3.81 0 00-2.706-1.121z" fill="#fff"/><g filter="url(#filter2_d)"><rect x="938" y="103" width="149" height="186" rx="2" fill="#fff"/></g><path d="M958.395 138.04a9.085 9.085 0 013.928-.897v3.428l5.677-6.285-5.677-6.286v3.429a6.47 6.47 0 00-1.926.285 7.111 7.111 0 00-3.186 2.055 8.224 8.224 0 00-1.856 3.528 8.624 8.624 0 00-.258 2.132v1.142a10.372 10.372 0 013.298-2.531zm-1.657-1.589c.217-.494.486-.958.8-1.382a6.485 6.485 0 011.074-1.143 6.054 6.054 0 012.173-1.143c.27-.072.544-.124.82-.154.269-.039.546-.058.831-.058h.919v-1.811l3.184 3.526-3.184 3.525V136h-1.032a10.023 10.023 0 00-3.169.509 10.29 10.29 0 00-2.896 1.508 7.191 7.191 0 01.48-1.566zm6.617 6.406h-10.323v-10.286H952V144h12.387v-3.429l-1.032 1.143v1.143zM967 178a.997.997 0 011 1v7h-4v2h-8v-2h-4v-7a.997.997 0 011-1h3v-6h8v6h3zm0 1h-14v6h3v-3h8v3h3v-6zm-12.5 1a.51.51 0 11-.35.15.476.476 0 01.35-.15zm2.5-2h6v-5h-6v5zm6 5h-6v4h6v-4z" fill="#000"/><path fill-rule="evenodd" clip-rule="evenodd" d="M952 217v11h2v3.71l3.71-3.71H968v-11h-16zm1 1h14v9h-9.71l-2.29 2.29V227h-2v-9z" fill="#000"/><path d="M955.359 257.648l.703.703-2.64 2.649 2.641 2.648-.703.703L952 261l3.359-3.352zm1.829 9.352l4-12h1.047l-4 12h-1.047zm6.875-9.352l3.359 3.352-3.359 3.352-.703-.703L966 261l-2.641-2.648.704-.704z" fill="#000"/><rect x="984" y="127" width="89" height="16" rx="8" fill="#C4C4C4"/><rect x="984" y="251" width="89" height="16" rx="8" fill="#C4C4C4"/><rect x="984" y="211" width="89" height="16" rx="8" fill="#C4C4C4"/><rect x="984" y="167" width="89" height="16" rx="8" fill="#C4C4C4"/><g filter="url(#filter3_d)"><rect x="938" y="103" width="149" height="186" rx="2" fill="#fff"/></g><path d="M958.395 138.04a9.085 9.085 0 013.928-.897v3.428l5.677-6.285-5.677-6.286v3.429a6.47 6.47 0 00-1.926.285 7.111 7.111 0 00-3.186 2.055 8.224 8.224 0 00-1.856 3.528 8.624 8.624 0 00-.258 2.132v1.142a10.372 10.372 0 013.298-2.531zm-1.657-1.589c.217-.494.486-.958.8-1.382a6.485 6.485 0 011.074-1.143 6.054 6.054 0 012.173-1.143c.27-.072.544-.124.82-.154.269-.039.546-.058.831-.058h.919v-1.811l3.184 3.526-3.184 3.525V136h-1.032a10.023 10.023 0 00-3.169.509 10.29 10.29 0 00-2.896 1.508 7.191 7.191 0 01.48-1.566zm6.617 6.406h-10.323v-10.286H952V144h12.387v-3.429l-1.032 1.143v1.143zM967 178a.997.997 0 011 1v7h-4v2h-8v-2h-4v-7a.997.997 0 011-1h3v-6h8v6h3zm0 1h-14v6h3v-3h8v3h3v-6zm-12.5 1a.51.51 0 11-.35.15.476.476 0 01.35-.15zm2.5-2h6v-5h-6v5zm6 5h-6v4h6v-4z" fill="#000"/><path fill-rule="evenodd" clip-rule="evenodd" d="M952 217v11h2v3.71l3.71-3.71H968v-11h-16zm1 1h14v9h-9.71l-2.29 2.29V227h-2v-9z" fill="#000"/><path d="M955.359 257.648l.703.703-2.64 2.649 2.641 2.648-.703.703L952 261l3.359-3.352zm1.829 9.352l4-12h1.047l-4 12h-1.047zm6.875-9.352l3.359 3.352-3.359 3.352-.703-.703L966 261l-2.641-2.648.704-.704z" fill="#000"/><rect x="984" y="127" width="89" height="16" rx="8" fill="#C4C4C4"/><rect x="984" y="251" width="89" height="16" rx="8" fill="#C4C4C4"/><rect x="984" y="211" width="89" height="16" rx="8" fill="#C4C4C4"/><rect x="984" y="167" width="89" height="16" rx="8" fill="#C4C4C4"/><path d="M143.703 35.993v-1.947h-2.411v-3.003l-2.393.728v2.274h-3.549v-1.222c0-.61.134-1.071.402-1.382.271-.311.653-.468 1.153-.468.255 0 .483.033.68.099.199.066.337.12.415.166V29.18a3.002 3.002 0 00-.591-.134 5.966 5.966 0 00-.768-.046c-1.085 0-1.971.34-2.663 1.02-.694.68-1.04 1.553-1.04 2.614v1.408h-1.692v1.948h1.692v8.17h2.412v-8.17h3.552v5.206c0 1.078.249 1.882.752 2.418.5.533 1.255.801 2.258.801.343 0 .69-.036 1.039-.108.35-.072.601-.151.752-.235V42.1a2.37 2.37 0 01-.507.235 1.58 1.58 0 01-.497.098c-.486 0-.843-.13-1.068-.386-.226-.258-.34-.696-.34-1.32v-4.735h2.412zM69.91 56.474v-.039c.792-.247 1.412-.662 1.86-1.246.447-.584.67-1.272.67-2.063 0-.948-.395-1.717-1.187-2.307-.785-.59-1.852-.886-3.202-.886h-4.428v13.959H68.1c1.434 0 2.622-.37 3.563-1.11.94-.74 1.411-1.706 1.411-2.9 0-.96-.289-1.74-.867-2.336-.57-.605-1.337-.962-2.297-1.072zm-3.98-4.681h1.683c1.597 0 2.394.596 2.394 1.79 0 .695-.23 1.233-.69 1.616-.454.377-1.084.564-1.889.564H65.93v-3.97zm3.97 9.654c-.467.396-1.132.594-1.995.594h-1.976v-4.42h1.674c2.005 0 3.008.724 3.008 2.17 0 .703-.237 1.254-.71 1.657zm12.827-28.96c.405 0 .751-.135 1.032-.395.284-.262.425-.589.425-.974 0-.383-.14-.71-.415-.981-.274-.272-.62-.409-1.042-.409a1.45 1.45 0 00-1.02.399 1.304 1.304 0 00-.429.99c0 .379.141.702.419.97.281.266.624.4 1.03.4zm7.876 11.921c.578 0 1.107-.056 1.591-.166.48-.112.915-.278 1.294-.494v-2.215a4.82 4.82 0 01-1.183.65c-.425.163-.818.245-1.17.245-.954 0-1.706-.285-2.262-.854-.555-.572-.833-1.369-.833-2.392 0-1.036.287-1.86.867-2.471.578-.611 1.336-.915 2.274-.915.398 0 .794.075 1.177.222.385.148.758.356 1.127.624V34.36c-.272-.15-.63-.284-1.088-.398a5.545 5.545 0 00-1.354-.173c-1.745 0-3.095.525-4.046 1.578-.95 1.056-1.428 2.396-1.428 4.023 0 1.464.468 2.667 1.4 3.608.934.94 2.143 1.411 3.634 1.411zM74.766 63.891h2.258v-9.967h-2.258v9.967zm42.231-25.656c-.741-.294-1.221-.54-1.437-.732-.216-.196-.323-.464-.323-.804 0-.31.124-.551.382-.735.252-.176.605-.265 1.059-.265.415 0 .83.075 1.252.226.418.153.787.333 1.102.543v-2.266a5.21 5.21 0 00-1.102-.304 6.91 6.91 0 00-1.193-.117c-1.153 0-2.094.294-2.82.882-.725.585-1.088 1.337-1.088 2.249 0 .709.186 1.29.553 1.751.365.461.99.876 1.869 1.242.738.297 1.245.558 1.509.784.265.23.398.507.398.834 0 .353-.127.607-.382.758-.259.15-.654.226-1.193.226-.408 0-.859-.089-1.359-.265a5.888 5.888 0 01-1.398-.72v2.344c.353.157.784.287 1.294.389a7.13 7.13 0 001.392.153c1.245 0 2.235-.287 2.967-.866.733-.578 1.098-1.343 1.098-2.294 0-.676-.189-1.251-.574-1.729-.385-.473-1.055-.901-2.006-1.284zM81.524 44.16h2.383V34.04h-2.383v10.12zm18.745-10.287c-.617 0-1.144.156-1.582.467-.437.31-.768.742-.984 1.294h-.039V34.04h-2.382V44.16h2.382v-5.11c0-1.024.203-1.782.604-2.275.402-.493.896-.738 1.481-.738.343 0 .634.042.873.124.238.081.421.17.546.261V34.01a2.235 2.235 0 00-.386-.098 3.095 3.095 0 00-.513-.04zm-3.138 21.433h-.04c-.635-1.077-1.612-1.616-2.93-1.616-1.394 0-2.491.5-3.29 1.5-.798.998-1.197 2.345-1.197 4.038 0 1.493.37 2.684 1.11 3.573.746.882 1.725 1.324 2.94 1.324 1.498 0 2.621-.636 3.367-1.907h.039v1.09c0 2.33-1.184 3.494-3.553 3.494-.98 0-2.014-.312-3.105-.934v2.063c.966.435 2.099.652 3.397.652 3.68 0 5.52-1.83 5.52-5.49v-9.169H97.13v1.382zm.019 4.02c0 .876-.243 1.596-.73 2.16-.487.559-1.12.837-1.898.837-.766 0-1.383-.291-1.85-.876-.46-.59-.69-1.375-.69-2.355 0-1.136.24-2.018.72-2.648.486-.636 1.158-.954 2.014-.954.694 0 1.272.25 1.733.75.468.493.701 1.09.701 1.79v1.296zm9.501-25.522c-1.68 0-2.994.49-3.939 1.468-.944.977-1.418 2.304-1.418 3.977 0 1.595.461 2.853 1.383 3.774.921.922 2.166 1.383 3.735 1.383 1.627 0 2.915-.487 3.86-1.458.944-.97 1.418-2.277 1.418-3.918 0-1.602-.444-2.873-1.333-3.813-.889-.942-2.125-1.413-3.706-1.413zm1.882 7.788c-.454.558-1.114.836-1.98.836-.896 0-1.578-.277-2.058-.836-.48-.56-.719-1.366-.719-2.422 0-1.075.241-1.905.729-2.487.483-.581 1.16-.872 2.033-.872.846 0 1.503.277 1.974.833.467.556.702 1.38.702 2.468-.001 1.094-.227 1.92-.681 2.48zM84.868 53.69c-1.409 0-2.486.63-3.232 1.888h-.04v-1.655H79.33v9.968h2.268v-5.685c0-.785.224-1.434.671-1.947a2.151 2.151 0 011.704-.778c1.316 0 1.976.93 1.976 2.793v5.616h2.258v-6.093c0-1.33-.286-2.346-.857-3.047-.57-.707-1.397-1.06-2.481-1.06zM71.576 40.507h-.06l-4.054-10.464h-3.514V44.16h2.265V33.095h.03l4.49 11.065h1.624l4.382-11.065h.04V44.16h2.45V30.043h-3.372l-4.281 10.464zm54.379-6.703c-1.68 0-2.993.49-3.938 1.468-.945.977-1.419 2.304-1.419 3.977 0 1.595.461 2.853 1.383 3.774.921.922 2.167 1.383 3.735 1.383 1.627 0 2.915-.487 3.859-1.458.945-.97 1.418-2.277 1.418-3.918 0-1.602-.444-2.873-1.333-3.813-.888-.943-2.123-1.413-3.705-1.413zm1.886 7.788c-.454.558-1.114.836-1.98.836-.896 0-1.579-.277-2.059-.836-.48-.559-.719-1.366-.719-2.422 0-1.075.239-1.905.729-2.487.483-.581 1.16-.872 2.032-.872.847 0 1.503.277 1.974.833.468.556.703 1.38.703 2.468-.001 1.094-.226 1.92-.68 2.48zm-51.936 7.67c-.37 0-.688.123-.954.37-.26.246-.39.555-.39.925s.13.675.39.915c.267.24.584.36.954.36.382 0 .707-.124.973-.37.267-.254.4-.555.4-.905 0-.37-.133-.679-.4-.925a1.377 1.377 0 00-.973-.37z" fill="#77787B"/><path d="M18 29h16.667v16.667H18V29z" fill="#F26522"/><path d="M36.333 29H53v16.667H36.333V29z" fill="#8DC63F"/><path d="M18 47.333h16.667V64H18V47.333z" fill="#00AEEF"/><path d="M36.333 47.333H53V64H36.333V47.333z" fill="#FFC20E"/><path d="M1016.5 52.027a1.5 1.5 0 00-1.47-1.527l-13.5-.243a1.505 1.505 0 00-1.53 1.473 1.507 1.507 0 001.48 1.527l11.99.216-.21 11.998c-.02.828.64 1.512 1.47 1.527.83.014 1.51-.645 1.53-1.473l.24-13.498zM790.041 271.08l2.173-2.097-2.082-2.159-2.173 2.096 2.082 2.16zm6.52-6.289l4.346-4.192-2.083-2.159-4.346 4.192 2.083 2.159zm8.692-8.384l4.346-4.193-2.083-2.159-4.346 4.192 2.083 2.16zm8.692-8.385l4.346-4.192-2.082-2.16-4.347 4.193 2.083 2.159zm8.693-8.385l4.346-4.192-2.083-2.159-4.346 4.192 2.083 2.159zm8.692-8.384l4.346-4.193-2.083-2.159-4.346 4.192 2.083 2.16zm8.692-8.385l4.346-4.192-2.082-2.159-4.347 4.192 2.083 2.159zm8.692-8.385l4.347-4.192-2.083-2.159-4.346 4.192 2.082 2.159zm8.693-8.384l4.346-4.192-2.083-2.16-4.346 4.193 2.083 2.159zm8.692-8.385l4.346-4.192-2.083-2.159-4.346 4.192 2.083 2.159zm8.692-8.384l4.347-4.193-2.083-2.159-4.346 4.192 2.082 2.16zm8.693-8.385l4.346-4.192-2.083-2.16-4.346 4.193 2.083 2.159zm8.692-8.385l4.346-4.192-2.083-2.159-4.346 4.192 2.083 2.159zm8.692-8.384l4.346-4.193-2.082-2.159-4.346 4.193 2.082 2.159zm8.693-8.385l4.346-4.192-2.083-2.159-4.346 4.192 2.083 2.159zm8.692-8.385l4.346-4.192-2.083-2.159-4.346 4.192 2.083 2.159zm8.692-8.384l4.346-4.192-2.082-2.16-4.347 4.193 2.083 2.159zm8.693-8.385l4.346-4.192-2.083-2.159-4.346 4.192 2.083 2.159zm8.692-8.384l4.346-4.193-2.083-2.159-4.346 4.192 2.083 2.16zm8.692-8.385l4.346-4.192-2.082-2.16-4.347 4.193 2.083 2.159zm8.693-8.385l4.346-4.192-2.083-2.16-4.346 4.193 2.083 2.159zm8.692-8.384l4.346-4.193-2.083-2.159-4.346 4.193 2.083 2.159zm8.692-8.385l4.346-4.192-2.082-2.16-4.347 4.193 2.083 2.16zm8.692-8.385l4.347-4.192-2.083-2.159-4.346 4.192 2.082 2.16zm8.693-8.384l4.346-4.192-2.083-2.16-4.346 4.193 2.083 2.159zm8.696-8.385l4.34-4.192-2.08-2.16-4.35 4.193 2.09 2.16zm8.69-8.384l2.17-2.096-2.08-2.16-2.17 2.096 2.08 2.16zm4.13-3.122a3.001 3.001 0 00-2.95-3.053l-26.992-.487a3 3 0 00-.108 6l24 .431-.44 23.997a3.001 3.001 0 006 .108l.49-26.996zM791.083 272.159l2.173-2.096-4.166-4.318-2.173 2.096 4.166 4.318zm6.519-6.288l4.346-4.193-4.165-4.318-4.347 4.192 4.166 4.319zm8.692-8.385l4.346-4.192-4.165-4.319-4.346 4.193 4.165 4.318zm8.693-8.385l4.346-4.192-4.166-4.318-4.346 4.192 4.166 4.318zm8.692-8.384l4.346-4.192-4.165-4.319-4.347 4.192 4.166 4.319zm8.692-8.385l4.346-4.192-4.165-4.318-4.346 4.192 4.165 4.318zm8.693-8.384l4.346-4.193-4.166-4.318-4.346 4.192 4.166 4.319zm8.692-8.385l4.346-4.192-4.166-4.319-4.346 4.193 4.166 4.318zm8.692-8.385l4.346-4.192-4.165-4.318-4.346 4.192 4.165 4.318zm8.692-8.384l4.347-4.192-4.166-4.319-4.346 4.192 4.165 4.319zm8.693-8.385l4.346-4.192-4.166-4.318-4.346 4.192 4.166 4.318zm8.692-8.384l4.346-4.193-4.165-4.318-4.346 4.192 4.165 4.319zm8.692-8.385l4.347-4.192-4.166-4.319-4.346 4.193 4.165 4.318zm8.693-8.385l4.346-4.192-4.166-4.318-4.346 4.192 4.166 4.318zm8.692-8.384l4.346-4.193-4.165-4.318-4.347 4.192 4.166 4.319zm8.692-8.385l4.346-4.192-4.165-4.319-4.346 4.193 4.165 4.318zm8.693-8.385l4.346-4.192-4.166-4.318-4.346 4.192 4.166 4.318zm8.692-8.384l4.346-4.192-4.165-4.319-4.347 4.192 4.166 4.319zm8.692-8.385l4.346-4.192-4.165-4.318-4.346 4.192 4.165 4.318zm8.693-8.384l4.346-4.193-4.166-4.318-4.346 4.192 4.166 4.319zm8.692-8.385l4.346-4.192-4.165-4.319-4.347 4.193 4.166 4.318zm8.692-8.385l4.346-4.192-4.165-4.318-4.346 4.192 4.165 4.318zm8.693-8.384l4.346-4.193-4.166-4.318-4.346 4.192 4.166 4.319zm8.692-8.385l4.346-4.192-4.166-4.319-4.346 4.193 4.166 4.318zm8.692-8.385l4.345-4.192-4.164-4.318-4.346 4.192 4.165 4.319zm8.695-8.384l4.34-4.192-4.16-4.319-4.35 4.193 4.17 4.318zm8.69-8.385l2.17-2.096-4.16-4.318-2.18 2.096 4.17 4.318z" fill="#106EBE"/><g clip-path="url(#clip1)" fill="#106EBE"><path d="M725.5 56.945c-4.105 0-7.445-3.34-7.445-7.445s3.34-7.445 7.445-7.445 7.445 3.34 7.445 7.445-3.34 7.445-7.445 7.445zm0-13a5.561 5.561 0 00-5.555 5.555 5.561 5.561 0 005.555 5.555 5.561 5.561 0 005.555-5.555 5.561 5.561 0 00-5.555-5.555z"/><path d="M737 62a.997.997 0 01-.707-.293l-6.5-6.5a.999.999 0 111.414-1.414l6.5 6.5A.999.999 0 01737 62z"/></g><defs><filter id="filter0_d" x="0" y="0" width="1090" height="102" filterUnits="userSpaceOnUse" color-interpolation-filters="sRGB"><feFlood flood-opacity="0" result="BackgroundImageFix"/><feColorMatrix in="SourceAlpha" values="0 0 0 0 0 0 0 0 0 0 0 0 0 0 0 0 0 0 127 0"/><feOffset dy="2"/><feGaussianBlur stdDeviation="1.5"/><feColorMatrix values="0 0 0 0 0 0 0 0 0 0 0 0 0 0 0 0 0 0 0.1 0"/><feBlend in2="BackgroundImageFix" result="effect1_dropShadow"/><feBlend in="SourceGraphic" in2="effect1_dropShadow" result="shape"/></filter><filter id="filter1_d" x="175" y="25" width="592" height="56" filterUnits="userSpaceOnUse" color-interpolation-filters="sRGB"><feFlood flood-opacity="0" result="BackgroundImageFix"/><feColorMatrix in="SourceAlpha" values="0 0 0 0 0 0 0 0 0 0 0 0 0 0 0 0 0 0 127 0"/><feOffset dy="2"/><feGaussianBlur stdDeviation="3"/><feColorMatrix values="0 0 0 0 0 0 0 0 0 0 0 0 0 0 0 0 0 0 0.2 0"/><feBlend in2="BackgroundImageFix" result="effect1_dropShadow"/><feBlend in="SourceGraphic" in2="effect1_dropShadow" result="shape"/></filter><filter id="filter2_d" x="935" y="102" width="155" height="192" filterUnits="userSpaceOnUse" color-interpolation-filters="sRGB"><feFlood flood-opacity="0" result="BackgroundImageFix"/><feColorMatrix in="SourceAlpha" values="0 0 0 0 0 0 0 0 0 0 0 0 0 0 0 0 0 0 127 0"/><feOffset dy="2"/><feGaussianBlur stdDeviation="1.5"/><feColorMatrix values="0 0 0 0 0 0 0 0 0 0 0 0 0 0 0 0 0 0 0.1 0"/><feBlend in2="BackgroundImageFix" result="effect1_dropShadow"/><feBlend in="SourceGraphic" in2="effect1_dropShadow" result="shape"/></filter><filter id="filter3_d" x="935" y="102" width="155" height="192" filterUnits="userSpaceOnUse" color-interpolation-filters="sRGB"><feFlood flood-opacity="0" result="BackgroundImageFix"/><feColorMatrix in="SourceAlpha" values="0 0 0 0 0 0 0 0 0 0 0 0 0 0 0 0 0 0 127 0"/><feOffset dy="2"/><feGaussianBlur stdDeviation="1.5"/><feColorMatrix values="0 0 0 0 0 0 0 0 0 0 0 0 0 0 0 0 0 0 0.1 0"/><feBlend in2="BackgroundImageFix" result="effect1_dropShadow"/><feBlend in="SourceGraphic" in2="effect1_dropShadow" result="shape"/></filter><clipPath id="clip0"><path fill="#fff" transform="translate(964 38)" d="M0 0h22v22H0z"/></clipPath><clipPath id="clip1"><path fill="#fff" transform="translate(718 42)" d="M0 0h20v20H0z"/></clipPath></defs></svg>