<svg xmlns="http://www.w3.org/2000/svg" xmlns:xlink="http://www.w3.org/1999/xlink" viewBox="0 0 549.17 142.26"><defs><style>.cls-1{fill:#1a1a1a;}.cls-2{fill:url(#Sfumatura_senza_nome_2);}.cls-3{fill:#fff;}</style><linearGradient id="Sfumatura_senza_nome_2" y1="71.13" x2="142.26" y2="71.13" gradientUnits="userSpaceOnUse"><stop offset="0" stop-color="#e94539"/><stop offset="1" stop-color="#e72264"/></linearGradient></defs><g id="Livello_2" data-name="Livello 2"><g id="Livello_2-2" data-name="Livello 2"><path class="cls-1" d="M191.27,53.39c-10.53,0-14.93,7.57-14.93,7.57V58.23a3.69,3.69,0,1,0-7.37,0V124a4,4,0,1,0,8,0V93.31a17.75,17.75,0,0,0,14.26,6.61c12,0,21.45-10.24,21.45-23.26S203.24,53.39,191.27,53.39ZM190,92.45c-8.81,0-13-7.56-13-7.56V68.42s4.21-7.56,13-7.56c9,0,14.64,7.09,14.64,15.8S199,92.45,190,92.45Z"/><path class="cls-1" d="M243.54,53.47c-.52,0-1.06-.08-1.63-.08-8.63,0-12.66,8.15-12.66,8.15V58.4a3.83,3.83,0,0,0-7.66,0V95.8a4.13,4.13,0,0,0,4.13,4.12h0a4.13,4.13,0,0,0,4.12-4.12V68.71s3.24-7.66,10.4-7.66a16,16,0,0,1,2.36.17,3.9,3.9,0,1,0,.94-7.75Z"/><path class="cls-1" d="M258.13,34.17a5.45,5.45,0,1,0,6.94,6.94A5.46,5.46,0,0,0,258.13,34.17Z"/><path class="cls-1" d="M259.92,53.4a4.23,4.23,0,0,0-4.23,4.23V95.69a4.23,4.23,0,1,0,8.46,0V57.63A4.23,4.23,0,0,0,259.92,53.4Z"/><path class="cls-1" d="M306.43,88.57a16.27,16.27,0,0,1-10.62,3.88c-8.9,0-14.74-7.08-14.74-15.79s5.84-15.8,14.74-15.8a16.46,16.46,0,0,1,10,3.36,3.65,3.65,0,0,0,4.64-.21h0a3.67,3.67,0,0,0-.16-5.62,23.63,23.63,0,0,0-14.47-5c-13.08,0-22.87,10.44-22.78,23.44s10.68,23.47,23.51,23.08a23.66,23.66,0,0,0,14.62-5.73,3.67,3.67,0,0,0-4.73-5.61Z"/><path class="cls-1" d="M342.35,53.39c-13.31,0-22.12,10.34-22.12,23.27,0,13.11,9.67,23.26,23.07,23.26a24.15,24.15,0,0,0,15.76-6,3.56,3.56,0,0,0,.21-5.16l-.1-.11a3.59,3.59,0,0,0-4.92-.21,16.81,16.81,0,0,1-10.95,4.06c-8.33,0-14.74-6.22-15.22-12.92h33.24A2.57,2.57,0,0,0,363.89,77v0C363.89,62.68,354.69,53.39,342.35,53.39ZM328.27,72.83a13.72,13.72,0,0,1,14.08-12,13.32,13.32,0,0,1,13.69,12Z"/><path class="cls-1" d="M549.15,49.36l-4.08-23.18a1,1,0,0,0-1.54-.56l-18,15.13a.94.94,0,0,0,.28,1.61l7.73,2.81-15.24,41.2-10.74-29a3.93,3.93,0,0,0-7.53,0l-10.64,29-4.28-11.46a3.48,3.48,0,0,0-3.28-2.27H467.38a22.47,22.47,0,0,0-22.46-19.25c-13,0-22.78,10.25-22.78,23.27s9.76,23.26,22.78,23.26a22.47,22.47,0,0,0,22.46-19.24h11.68l6.64,16.86a3.51,3.51,0,0,0,6.54,0l11.29-28.63L514.8,97.54a3.44,3.44,0,0,0,6.55,0l19.08-49.85,7.47,2.72A.94.94,0,0,0,549.15,49.36ZM444.92,92.45c-8.9,0-14.74-7.08-14.74-15.79s5.84-15.8,14.74-15.8c7.48,0,12.78,5,14.29,11.78H446.67a4,4,0,0,0,0,8h12.54C457.71,87.44,452.4,92.45,444.92,92.45Z"/><path class="cls-1" d="M396.09,26.25a17.16,17.16,0,0,0-5.87-1c-6.42,0-13.8,4.76-13.8,14.29V53.39h-5.64a3.7,3.7,0,1,0,0,7.4h5.64V96.22a3.69,3.69,0,0,0,3.69,3.7h.78a3.69,3.69,0,0,0,3.69-3.7V60.79h8a3.7,3.7,0,0,0,0-7.4h-8V40c0-4.38,2.43-7.2,6.81-7.2a7.87,7.87,0,0,1,2.26.38,3.69,3.69,0,0,0,2.44-7Z"/><path class="cls-1" d="M409.17,25.25a4.08,4.08,0,0,0-4.08,4.08V95.77a4.09,4.09,0,1,0,8.17,0V29.33A4.09,4.09,0,0,0,409.17,25.25Z"/><path class="cls-2" d="M135.91,41.75a6,6,0,0,0,.68-.66,5,5,0,0,0,1.08-4L131.89,4.31A4.93,4.93,0,0,0,127,.23a5,5,0,0,0-3.17,1.15L111,12.19a71.17,71.17,0,1,0,24.94,29.56Zm-9.49-37.3a.88.88,0,0,1,.6-.22A.93.93,0,0,1,128,5l5.66,32.11a71.36,71.36,0,0,0-19.31-22.5Z"/><path class="cls-3" d="M133.73,37.75,128,5a.94.94,0,0,0-1.53-.55L101,25.82a.93.93,0,0,0,.28,1.6l11.08,4L91.55,87.58,76.92,48a5.34,5.34,0,0,0-10.25,0L52.17,87.58,46.35,72a4.78,4.78,0,0,0-4.47-3.1h-31a5.48,5.48,0,0,0-5.48,5.48h0a5.48,5.48,0,0,0,5.48,5.48H38.15l9,23a4.79,4.79,0,0,0,8.91,0l15.37-39,15.36,39a4.68,4.68,0,0,0,8.91,0l26-67.91,10.74,3.91A1,1,0,0,0,133.73,37.75Z"/></g></g></svg>