<svg xmlns="http://www.w3.org/2000/svg" viewBox="0 0 501.83 130"><defs><style>.cls-1{fill:#1a1a1a;}</style></defs><g id="Livello_2" data-name="Livello 2"><g id="Livello_2-2" data-name="Livello 2"><path class="cls-1" d="M174.78,48.79a15.89,15.89,0,0,0-13.64,6.91V53.21a3.37,3.37,0,1,0-6.74,0v60.14a3.68,3.68,0,1,0,7.35,0V85.27a16.25,16.25,0,0,0,13,6c10.94,0,19.6-9.36,19.6-21.26S185.72,48.79,174.78,48.79Zm-1.13,35.69c-8.05,0-11.9-6.91-11.9-6.91v-15s3.85-6.91,11.9-6.91c8.22,0,13.38,6.47,13.38,14.43S181.87,84.48,173.65,84.48Z"/><path class="cls-1" d="M222.55,48.86c-.48,0-1-.07-1.49-.07-7.89,0-11.57,7.45-11.57,7.45V53.37a3.5,3.5,0,0,0-7,0V87.54a3.77,3.77,0,0,0,3.77,3.77h0A3.77,3.77,0,0,0,210,87.54V62.78s3-7,9.5-7a14.67,14.67,0,0,1,2.15.15,3.57,3.57,0,1,0,.87-7.08Z"/><path class="cls-1" d="M235.87,31.22a5,5,0,1,0,6.35,6.35A5,5,0,0,0,235.87,31.22Z"/><path class="cls-1" d="M237.51,48.79a3.86,3.86,0,0,0-3.86,3.87V87.44a3.87,3.87,0,1,0,7.73,0V52.66A3.87,3.87,0,0,0,237.51,48.79Z"/><path class="cls-1" d="M280,80.93a14.8,14.8,0,0,1-9.7,3.55c-8.14,0-13.47-6.47-13.47-14.43s5.33-14.43,13.47-14.43a15,15,0,0,1,9.13,3.07,3.34,3.34,0,0,0,4.24-.2h0a3.35,3.35,0,0,0-.15-5.14,21.6,21.6,0,0,0-13.22-4.56c-11.95,0-20.9,9.53-20.82,21.42.08,11.73,9.76,21.45,21.49,21.09a21.7,21.7,0,0,0,13.36-5.24A3.36,3.36,0,0,0,280,80.93Z"/><path class="cls-1" d="M312.83,48.79c-12.16,0-20.2,9.45-20.2,21.26,0,12,8.83,21.26,21.08,21.26a22,22,0,0,0,14.4-5.54,3.25,3.25,0,0,0,.19-4.71l-.09-.09a3.28,3.28,0,0,0-4.5-.2,15.35,15.35,0,0,1-10,3.71c-7.61,0-13.47-5.68-13.91-11.81h30.37a2.34,2.34,0,0,0,2.35-2.33v0C332.52,57.28,324.12,48.79,312.83,48.79ZM300,66.55a12.54,12.54,0,0,1,12.86-10.93,12.16,12.16,0,0,1,12.51,10.93Z"/><path class="cls-1" d="M501.81,45.11l-3.73-21.19a.86.86,0,0,0-1.4-.51L480.2,37.24a.86.86,0,0,0,.26,1.47l7.06,2.57L473.59,78.92,463.78,52.4a3.59,3.59,0,0,0-6.88,0l-9.73,26.51-3.9-10.46a3.2,3.2,0,0,0-3-2.09H427.09a20.53,20.53,0,0,0-20.52-17.58c-11.9,0-20.82,9.36-20.82,21.26s8.92,21.26,20.82,21.26a20.53,20.53,0,0,0,20.52-17.59h10.68l6.06,15.41a3.21,3.21,0,0,0,6,0L460.12,63l10.31,26.16a3.14,3.14,0,0,0,6,0l17.44-45.55,6.83,2.48A.85.85,0,0,0,501.81,45.11ZM406.57,84.48c-8.14,0-13.47-6.47-13.47-14.43s5.33-14.43,13.47-14.43c6.83,0,11.68,4.57,13.06,10.75H408.17a3.68,3.68,0,1,0,0,7.35h11.46C418.25,79.91,413.4,84.48,406.57,84.48Z"/><path class="cls-1" d="M361.94,24a15.48,15.48,0,0,0-5.36-.92A12.57,12.57,0,0,0,344,36.13V48.79h-5.16a3.38,3.38,0,0,0,0,6.76H344V87.93a3.38,3.38,0,0,0,3.37,3.38h.71a3.38,3.38,0,0,0,3.38-3.38V55.55h7.28a3.38,3.38,0,0,0,0-6.76h-7.28V36.58c0-4,2.22-6.58,6.22-6.58a7.18,7.18,0,0,1,2.06.35A3.37,3.37,0,0,0,361.94,24Z"/><path class="cls-1" d="M373.9,23.07a3.73,3.73,0,0,0-3.73,3.73V87.51a3.73,3.73,0,1,0,7.46,0V26.8A3.73,3.73,0,0,0,373.9,23.07Z"/><path class="cls-1" d="M124.19,38.15a4.53,4.53,0,0,0,1.61-4.29L120.52,3.94a4.52,4.52,0,0,0-7.35-2.68L101.4,11.14a65.06,65.06,0,1,0,22.79,27Zm-3.13-2.7-9.82-3.57L87.49,93.94a4.28,4.28,0,0,1-8.14,0l-14-35.64L51.26,93.94a4.38,4.38,0,0,1-8.14,0l-8.26-21H10a5,5,0,1,1,0-10h28.3a4.35,4.35,0,0,1,4.08,2.84L47.67,80,60.92,43.91a4.89,4.89,0,0,1,9.37,0L83.66,80l19-51.28L92.51,25.06a.86.86,0,0,1-.26-1.47l12.2-10.24h0l11.07-9.29h0a1.49,1.49,0,0,1,.24-.14l.08,0a.57.57,0,0,1,.18,0h.09a.66.66,0,0,1,.23,0h0a.86.86,0,0,1,.23.13l.06,0a.64.64,0,0,1,.13.15.43.43,0,0,1,0,.07.74.74,0,0,1,.1.26h0l5.18,29.35h0l.1.57A.86.86,0,0,1,121.06,35.45Z"/></g></g></svg>