
		<svg xmlns="http://www.w3.org/2000/svg" xmlns:xlink="http://www.w3.org/1999/xlink" version="1.1" width="3134.5291479820626" height="1154.2600896860986">
			<rect fill="#c0d9f9" width="3134.5291479820626" height="1154.2600896860986"/>
			<g transform="scale(6.726457399103139) translate(10, 10)">
				<defs id="SvgjsDefs9713"><linearGradient id="SvgjsLinearGradient9722"><stop id="SvgjsStop9723" stop-color="#b88746" offset="0"></stop><stop id="SvgjsStop9724" stop-color="#fdf5a6" offset="1"></stop></linearGradient><linearGradient id="SvgjsLinearGradient9725"><stop id="SvgjsStop9726" stop-color="#006838" offset="0"></stop><stop id="SvgjsStop9727" stop-color="#96cf24" offset="1"></stop></linearGradient></defs><g id="SvgjsG9714" featureKey="symbolContainer" transform="matrix(2.6319999999999997,0,0,2.6319999999999997,20,20)" fill="url(#SvgjsLinearGradient9722)"><circle cx="25" cy="25" r="25"></circle></g><g id="SvgjsG9715" featureKey="symbolFeature-0" transform="matrix(0.9448015853238096,0,0,0.9448015853238096,50.99974308342258,39.0000385750528)" fill="url(#SvgjsLinearGradient9725)"><path xmlns="http://www.w3.org/2000/svg" d="M21.547,0.091c0,0-21.827,0.287-21.544,20.059c0.284,19.773,4.253,37.255,10.773,46.998  c6.519,9.744,23.242,35.248,42.236,32.67c0,0,9.355-2.007,16.44-6.593L46.492,75.171c0,0-6.803,4.299-11.055-1.433  c-4.253-5.73-17.575-32.381-17.575-32.381s-3.685-8.598,4.536-12.323L21.547,0.091z"></path><path xmlns="http://www.w3.org/2000/svg" d="M24.099,0.091c0,0,1.701-0.571,4.818,1.147c3.118,1.719,3.118,3.15,3.118,3.15l0.284,19.775  c0,0-0.851,1.147-1.984,2.291c-1.134,1.146-4.819,2.867-5.387,1.72C24.383,27.029,24.099,0.091,24.099,0.091z"></path><path xmlns="http://www.w3.org/2000/svg" d="M48.401,73.058l6.312-3.332c0,0,1.417-0.285,3.684,1.146  c2.268,1.436,14.174,10.893,14.174,10.893s1.984,1.719,1.417,3.725c-0.566,2.006-1.984,6.305-1.984,6.305L48.401,73.058z"></path></g><g id="SvgjsG9716" featureKey="nameFeature-0" transform="matrix(1.3015810690404979,0,0,1.3015810690404979,175.9999996896789,43.348632902651154)" fill="#4f4f4f"><path d="M15.64 32.24 c0 2.8267 -0.63332 4.8868 -1.9 6.18 s-3.3267 1.94 -6.18 1.94 c-2.6133 0 -4.5268 -0.72 -5.74 -2.16 s-1.82 -3.4267 -1.82 -5.96 l0 -14.4 c0 -2.7467 0.64668 -4.7868 1.94 -6.12 s3.3266 -2 6.1 -2 c2.64 0 4.5668 0.7 5.78 2.1 s1.82 3.38 1.82 5.94 l0 14.48 z M12.84 32.16 l-0.000039062 -14.44 c0 -1.52 -0.4 -2.7867 -1.2 -3.8 s-2.0133 -1.52 -3.64 -1.52 c-1.9467 0 -3.3 0.50668 -4.06 1.52 s-1.14 2.44 -1.14 4.28 l0 13.8 c0 0.77332 0.08668 1.5 0.26 2.18 s0.45332 1.2733 0.84 1.78 s0.88 0.90668 1.48 1.2 s1.3267 0.44 2.18 0.44 c1.8667 0 3.2134 -0.45332 4.04 -1.36 s1.24 -2.2667 1.24 -4.08 z M35.24 40 l-3.04 0 l-6.52 -15.4 l-3.4 5.24 l0 10.16 l-2.68 0 l0 -30 l2.68 0 l0 14.4 l9.04 -14.4 l3.24 0 l-6.92 12.28 z M52.440000000000005 29.6 c-0.02668 1.4933 -0.080076 2.8932 -0.16008 4.2 s-0.35332 2.4467 -0.82 3.42 s-1.2067 1.74 -2.22 2.3 s-2.4533 0.84 -4.32 0.84 c-1.3067 0 -2.4134 -0.19332 -3.32 -0.58 s-1.64 -0.93336 -2.2 -1.64 s-0.96668 -1.56 -1.22 -2.56 s-0.38 -2.1133 -0.38 -3.34 l0 -14.4 c0 -1.3067 0.13332 -2.4667 0.4 -3.48 s0.7 -1.8666 1.3 -2.56 s1.38 -1.2133 2.34 -1.56 s2.1333 -0.52 3.52 -0.52 c1.68 0 2.9867 0.28668 3.92 0.86 s1.6333 1.34 2.1 2.3 s0.75336 2.06 0.86004 3.3 s0.17336 2.5267 0.20004 3.86 l-2.64 0 c0 -0.88 -0.0066796 -1.7867 -0.02 -2.72 s-0.14664 -1.78 -0.39996 -2.54 s-0.69332 -1.3867 -1.32 -1.88 s-1.5534 -0.74 -2.78 -0.74 c-0.93332 0 -1.7133 0.13332 -2.34 0.4 s-1.12 0.65336 -1.48 1.16 s-0.61332 1.1067 -0.76 1.8 s-0.22 1.4666 -0.22 2.32 l0.08 14.6 c0 0.8 0.06 1.5267 0.18 2.18 s0.34 1.2133 0.66 1.68 s0.76668 0.82668 1.34 1.08 s1.3 0.38 2.18 0.38 c1.36 0 2.3733 -0.23332 3.04 -0.7 s1.1334 -1.0867 1.4 -1.86 s0.40668 -1.6466 0.42 -2.62 s0.02 -1.9666 0.02 -2.98 l2.64 0 z M73.88000000000001 40 l-2.8 0 l-2.12 -8.6 l-8.72 0 l-2.12 8.6 l-2.72 0 l8.12 -30 l2.28 0 z M68.28 28.72 l-3.56 -14.84 l-3.8 14.84 l7.36 0 z M89.28 40 l-12.36 0 l0 -30 l2.8 0 l0 27.12 l9.56 0 l0 2.88 z M103.88 40 l-12.36 0 l0 -30 l2.8 0 l0 27.12 l9.56 0 l0 2.88 z M121.11999999999999 40 l-15 0 l0 -30 l14.72 0 l0 3.04 l-11.96 0 l0 10.32 l11.88 0 l0 2.6 l-11.88 0 l0 11 l12.24 0 l0 3.04 z M141.51999999999998 40 l-3.4399 -0.000039062 l-6.28 -12.12 l-5.2 0 l0 12.12 l-2.68 0 l0 -30 l6.88 0 c2.7467 0 4.92 0.78668 6.52 2.36 s2.4 3.7333 2.4 6.48 c0 0.85332 -0.11332 1.72 -0.34 2.6 s-0.55336 1.7067 -0.98004 2.48 s-0.95336 1.4733 -1.58 2.1 s-1.34 1.1134 -2.14 1.46 z M136.88 18.64 c0 -0.93332 -0.16 -1.7733 -0.48 -2.52 s-0.76 -1.38 -1.32 -1.9 s-1.2267 -0.92 -2 -1.2 s-1.6133 -0.42 -2.52 -0.42 l-3.96 0 l0 12.52 l4.2 0 c2.1333 0 3.68 -0.57332 4.64 -1.72 s1.44 -2.7334 1.44 -4.76 z M146.83999999999997 40 l-3.16 0 l0 -3.08 l3.16 0 l0 3.08 z M164.39999999999998 29.6 c-0.02668 1.4933 -0.080076 2.8932 -0.16008 4.2 s-0.35332 2.4467 -0.82 3.42 s-1.2067 1.74 -2.22 2.3 s-2.4533 0.84 -4.32 0.84 c-1.3067 0 -2.4134 -0.19332 -3.32 -0.58 s-1.64 -0.93336 -2.2 -1.64 s-0.96668 -1.56 -1.22 -2.56 s-0.38 -2.1133 -0.38 -3.34 l0 -14.4 c0 -1.3067 0.13332 -2.4667 0.4 -3.48 s0.7 -1.8666 1.3 -2.56 s1.38 -1.2133 2.34 -1.56 s2.1333 -0.52 3.52 -0.52 c1.68 0 2.9867 0.28668 3.92 0.86 s1.6333 1.34 2.1 2.3 s0.75336 2.06 0.86004 3.3 s0.17336 2.5267 0.20004 3.86 l-2.64 0 c0 -0.88 -0.0066796 -1.7867 -0.02 -2.72 s-0.14664 -1.78 -0.39996 -2.54 s-0.69332 -1.3867 -1.32 -1.88 s-1.5534 -0.74 -2.78 -0.74 c-0.93332 0 -1.7133 0.13332 -2.34 0.4 s-1.12 0.65336 -1.48 1.16 s-0.61332 1.1067 -0.76 1.8 s-0.22 1.4666 -0.22 2.32 l0.08 14.6 c0 0.8 0.06 1.5267 0.18 2.18 s0.34 1.2133 0.66 1.68 s0.76668 0.82668 1.34 1.08 s1.3 0.38 2.18 0.38 c1.36 0 2.3733 -0.23332 3.04 -0.7 s1.1334 -1.0867 1.4 -1.86 s0.40668 -1.6466 0.42 -2.62 s0.02 -1.9666 0.02 -2.98 l2.64 0 z M183 32.24 c0 2.8267 -0.63332 4.8868 -1.9 6.18 s-3.3267 1.94 -6.18 1.94 c-2.6133 0 -4.5268 -0.72 -5.74 -2.16 s-1.82 -3.4267 -1.82 -5.96 l0 -14.4 c0 -2.7467 0.64668 -4.7868 1.94 -6.12 s3.3266 -2 6.1 -2 c2.64 0 4.5668 0.7 5.78 2.1 s1.82 3.38 1.82 5.94 l0 14.48 z M180.2 32.16 l-0.000039062 -14.44 c0 -1.52 -0.4 -2.7867 -1.2 -3.8 s-2.0133 -1.52 -3.64 -1.52 c-1.9467 0 -3.3 0.50668 -4.06 1.52 s-1.14 2.44 -1.14 4.28 l0 13.8 c0 0.77332 0.08668 1.5 0.26 2.18 s0.45332 1.2733 0.84 1.78 s0.88 0.90668 1.48 1.2 s1.3267 0.44 2.18 0.44 c1.8667 0 3.2134 -0.45332 4.04 -1.36 s1.24 -2.2667 1.24 -4.08 z M207.43999999999997 40 l-2.68 0 l0 -23.16 l-6.28 15.24 l-2.72 -0.04 l-6.12 -15.2 l0 23.16 l-2.68 0 l0 -30 l2.68 0 l7.52 18.36 l7.6 -18.36 l2.68 0 l0 30 z"></path></g><g id="SvgjsG9717" featureKey="sloganFeature-0" transform="matrix(0.6418485268914734,0,0,0.6418485268914734,175.43517383499622,102.55969272833735)" fill="#1c7062"><path d="M14.48 12.879999999999999 c0 1.04 -0.14 1.82 -0.22 2.2 c-0.22 0.92 -0.94 3.74 -3.92 4.6 c-1.14 0.34 -2.42 0.32 -3.58 0.32 l-5.88 0 l0 -14.12 l4.8 0 c0.62 0 1.26 0.02 1.88 0.04 c1.88 0.08 3.6 0.26 5.02 1.62 c0.92 0.9 1.9 2.48 1.9 5.34 z M9.98 12.940000000000001 c0 -0.12 0.04 -2.5 -1.28 -3.36 c-0.42 -0.26 -0.76 -0.4 -1.66 -0.4 l-1.68 0 l0 7.58 l1.7 0 c0.48 0 0.86 -0.04 1.3 -0.26 c1.66 -0.8 1.62 -3.34 1.62 -3.56 z M20.36 20 l-4.48 0 l0 -14.12 l4.48 0 l0 14.12 z M35.66 20 l-5 0 l-2.74 -4.98 l-1.3 0 l0 4.98 l-4.48 0 l0 -14.12 l7.64 0 c0.4 0 0.82 0.02 1.22 0.06 c0.62 0.06 2.42 0.22 3.44 1.92 c0.24 0.42 0.66 1.3 0.66 2.54 c0 1.34 -0.52 2.56 -1.66 3.32 c-0.3 0.2 -0.56 0.32 -1.24 0.58 z M30.64 10.48 c0 -0.34 -0.1 -0.72 -0.28 -1 c-0.14 -0.2 -0.34 -0.32 -0.42 -0.36 c-0.46 -0.26 -0.98 -0.28 -1.5 -0.28 l-1.82 0 l0 3.28 l1.86 0 c0.82 0 1.74 -0.1 2.06 -1.02 c0.02 -0.08 0.1 -0.34 0.1 -0.62 z M48.08 20 l-11.78 0 l0 -14.12 l11.18 0 l0 3.1 l-6.7 0 l0 2.1 l6.26 0 l0 3.06 l-6.28 0 l0 2.8 l7.32 0 l0 3.06 z M63.080000000000005 16.36 c-0.5 0.92 -0.76 1.28 -1.1 1.68 c-0.84 0.96 -2.64 2.4 -5.78 2.4 c-1.8 0 -3.4 -0.44 -4.78 -1.62 c-2.36 -1.98 -2.54 -4.8 -2.54 -5.8 c0 -0.86 0.1 -2.82 1.46 -4.72 c1.94 -2.74 4.64 -2.94 5.88 -2.94 c3.22 0 5.14 1.68 5.92 2.58 c0.42 0.48 0.62 0.82 0.92 1.36 l-3.74 1.86 c-0.06 -0.14 -0.14 -0.28 -0.2 -0.42 c-0.24 -0.48 -0.94 -1.94 -2.74 -1.92 c-0.82 0 -1.34 0.3 -1.62 0.5 c-1.4 1.04 -1.34 3.08 -1.34 3.44 c0 1.94 0.62 2.98 1.3 3.52 c0.7 0.54 1.34 0.56 1.68 0.56 c1.54 0 2.26 -1.04 2.54 -1.52 c0.1 -0.2 0.18 -0.38 0.32 -0.8 z M74.96000000000001 9.36 l-3.58 0 l0 10.64 l-4.46 0 l0 -10.64 l-3.6 0 l0 -3.48 l11.64 0 l0 3.48 z M90.68 12.82 c0 0.86 -0.14 3.58 -2.16 5.6 c-2 2 -4.58 2.04 -5.48 2.04 s-3.52 -0.04 -5.46 -2.02 c-1.38 -1.38 -2.06 -3.44 -2.06 -5.5 c0 -0.94 0.16 -3.6 2.1 -5.54 c0.88 -0.86 2.56 -2.04 5.5 -2.04 c0.92 0 3.42 0.02 5.38 1.94 c0.84 0.82 2.18 2.56 2.18 5.52 z M86.18 12.8 c0 -0.38 0.06 -2.52 -1.5 -3.46 c-0.64 -0.38 -1.3 -0.42 -1.56 -0.42 c-0.34 0 -1.36 0.06 -2.1 0.84 c-0.5 0.52 -1.02 1.52 -1.02 3.18 c0 0.26 -0.02 1.9 0.78 2.92 c0.26 0.32 0.56 0.56 0.94 0.74 c0.28 0.12 0.72 0.28 1.4 0.28 c0.84 0 1.5 -0.24 2.06 -0.88 c0.54 -0.58 1 -1.5 1 -3.2 z M105.64000000000001 20 l-5 0 l-2.74 -4.98 l-1.3 0 l0 4.98 l-4.48 0 l0 -14.12 l7.64 0 c0.4 0 0.82 0.02 1.22 0.06 c0.62 0.06 2.42 0.22 3.44 1.92 c0.24 0.42 0.66 1.3 0.66 2.54 c0 1.34 -0.52 2.56 -1.66 3.32 c-0.3 0.2 -0.56 0.32 -1.24 0.58 z M100.62 10.48 c0 -0.34 -0.1 -0.72 -0.28 -1 c-0.14 -0.2 -0.34 -0.32 -0.42 -0.36 c-0.46 -0.26 -0.98 -0.28 -1.5 -0.28 l-1.82 0 l0 3.28 l1.86 0 c0.82 0 1.74 -0.1 2.06 -1.02 c0.02 -0.08 0.1 -0.34 0.1 -0.62 z M121.16000000000001 5.880000000000001 l-5.68 8.18 l0 5.94 l-4.48 0 l0 -5.94 l-5.66 -8.18 l5.16 0 l2.78 4.7 l2.72 -4.7 l5.16 0 z M141.9 20 l-5 0 l-2.74 -4.98 l-1.3 0 l0 4.98 l-4.48 0 l0 -14.12 l7.64 0 c0.4 0 0.82 0.02 1.22 0.06 c0.62 0.06 2.42 0.22 3.44 1.92 c0.24 0.42 0.66 1.3 0.66 2.54 c0 1.34 -0.52 2.56 -1.66 3.32 c-0.3 0.2 -0.56 0.32 -1.24 0.58 z M136.88000000000002 10.48 c0 -0.34 -0.1 -0.72 -0.28 -1 c-0.14 -0.2 -0.34 -0.32 -0.42 -0.36 c-0.46 -0.26 -0.98 -0.28 -1.5 -0.28 l-1.82 0 l0 3.28 l1.86 0 c0.82 0 1.74 -0.1 2.06 -1.02 c0.02 -0.08 0.1 -0.34 0.1 -0.62 z M154.32000000000002 20 l-11.78 0 l0 -14.12 l11.18 0 l0 3.1 l-6.7 0 l0 2.1 l6.26 0 l0 3.06 l-6.28 0 l0 2.8 l7.32 0 l0 3.06 z M166.62 8.98 l-6.72 0 l0 2.54 l6.28 0 l0 3.06 l-6.28 0 l0 5.42 l-4.44 0 l0 -14.12 l11.16 0 l0 3.1 z M179.74 20 l-11.78 0 l0 -14.12 l11.18 0 l0 3.1 l-6.7 0 l0 2.1 l6.26 0 l0 3.06 l-6.28 0 l0 2.8 l7.32 0 l0 3.06 z M194.4 20 l-5 0 l-2.74 -4.98 l-1.3 0 l0 4.98 l-4.48 0 l0 -14.12 l7.64 0 c0.4 0 0.82 0.02 1.22 0.06 c0.62 0.06 2.42 0.22 3.44 1.92 c0.24 0.42 0.66 1.3 0.66 2.54 c0 1.34 -0.52 2.56 -1.66 3.32 c-0.3 0.2 -0.56 0.32 -1.24 0.58 z M189.38 10.48 c0 -0.34 -0.1 -0.72 -0.28 -1 c-0.14 -0.2 -0.34 -0.32 -0.42 -0.36 c-0.46 -0.26 -0.98 -0.28 -1.5 -0.28 l-1.82 0 l0 3.28 l1.86 0 c0.82 0 1.74 -0.1 2.06 -1.02 c0.02 -0.08 0.1 -0.34 0.1 -0.62 z M206.82 20 l-11.78 0 l0 -14.12 l11.18 0 l0 3.1 l-6.7 0 l0 2.1 l6.26 0 l0 3.06 l-6.28 0 l0 2.8 l7.32 0 l0 3.06 z M221.6 20 l-4.82 0 l-4.7 -8.2 l0.04 8.2 l-4.16 0 l0 -14.12 l4.74 0 l4.78 8.22 l-0.06 -8.22 l4.18 0 l0 14.12 z M237.23999999999998 16.36 c-0.5 0.92 -0.76 1.28 -1.1 1.68 c-0.84 0.96 -2.64 2.4 -5.78 2.4 c-1.8 0 -3.4 -0.44 -4.78 -1.62 c-2.36 -1.98 -2.54 -4.8 -2.54 -5.8 c0 -0.86 0.1 -2.82 1.46 -4.72 c1.94 -2.74 4.64 -2.94 5.88 -2.94 c3.22 0 5.14 1.68 5.92 2.58 c0.42 0.48 0.62 0.82 0.92 1.36 l-3.74 1.86 c-0.06 -0.14 -0.14 -0.28 -0.2 -0.42 c-0.24 -0.48 -0.94 -1.94 -2.74 -1.92 c-0.82 0 -1.34 0.3 -1.62 0.5 c-1.4 1.04 -1.34 3.08 -1.34 3.44 c0 1.94 0.62 2.98 1.3 3.52 c0.7 0.54 1.34 0.56 1.68 0.56 c1.54 0 2.26 -1.04 2.54 -1.52 c0.1 -0.2 0.18 -0.38 0.32 -0.8 z M250.15999999999997 20 l-11.78 0 l0 -14.12 l11.18 0 l0 3.1 l-6.7 0 l0 2.1 l6.26 0 l0 3.06 l-6.28 0 l0 2.8 l7.32 0 l0 3.06 z"></path></g>
			</g>
		</svg>
	