<svg xmlns="http://www.w3.org/2000/svg" width="10.493" height="9.256" viewBox="0 0 10.493 9.256">
  <g id="Group_9" data-name="Group 9" transform="translate(0.637 0.534)">
    <path id="Path_36520" data-name="Path 36520" d="M962.122,137.889l-3.953-3.953a.929.929,0,0,0-1.313,0l-3.954,3.953" transform="translate(-952.902 -133.663)" fill="none" stroke="#000" stroke-linecap="round" stroke-miterlimit="10" stroke-width="0.9"/>
    <path id="Path_36521" data-name="Path 36521" d="M990.948,268.022v4.551a.418.418,0,0,0,.418.418h1.7a.418.418,0,0,0,.418-.418v-2.349a.418.418,0,0,1,.418-.418h1.486a.418.418,0,0,1,.418.418v2.349a.418.418,0,0,0,.418.418h1.655a.418.418,0,0,0,.418-.418v-4.551" transform="translate(-990.012 -264.719)" fill="none" stroke="#000" stroke-linecap="round" stroke-miterlimit="10" stroke-width="0.9"/>
  </g>
</svg>
