<svg width="16" height="15" viewBox="0 0 16 15" fill="none" xmlns="http://www.w3.org/2000/svg">
<path fill-rule="evenodd" clip-rule="evenodd" d="M16 7.5C16 7.25 15.8833 7.02986 15.7054 6.88225L9.07169 0.235495C8.75832 -0.0784983 8.24993 -0.0784983 7.93741 0.235495C7.62404 0.549488 7.62404 1.05802 7.93741 1.37201L13.2503 6.69625H0.802171C0.359359 6.69625 0 7.05546 0 7.5C0 7.94369 0.359359 8.30375 0.802171 8.30375H13.2673L7.93826 13.6271C7.62404 13.9403 7.62318 14.4497 7.93656 14.7637C8.09325 14.9215 8.29847 15 8.50455 15C8.70893 15 8.91415 14.9215 9.07084 14.7654L15.7641 8.07935C15.9148 7.92833 16 7.7244 16 7.51109C16 7.50939 15.9991 7.50683 15.9991 7.50512C15.9991 7.50341 16 7.50171 16 7.5Z" fill="white" fill-opacity="0.515406"/>
</svg>
