<svg width="46" height="65" viewBox="0 0 46 65" fill="none" xmlns="http://www.w3.org/2000/svg">
<path fill-rule="evenodd" clip-rule="evenodd" d="M19.5175 59L1.55298 28.0276C1.55298 28.0276 -2.88572 12.0223 13.3881 3.4996C29.662 -5.02305 39.8064 10.9823 39.8064 10.9823C39.8064 10.9823 42.4315 17.2257 39.8955 23.4621C37.359 29.698 19.5175 59 19.5175 59Z" fill="#C9D300"/>
<path fill-rule="evenodd" clip-rule="evenodd" d="M34 22.5C34 28.299 29.2991 33 23.5003 33C17.7015 33 13 28.299 13 22.5C13 16.7004 17.7015 12 23.5003 12C29.2991 12 34 16.7004 34 22.5Z" fill="white"/>
<path fill-rule="evenodd" clip-rule="evenodd" d="M31 22.4997C31 27.1943 27.1942 31 22.5 31C17.8058 31 14 27.1943 14 22.4997C14 17.8057 17.8058 14 22.5 14C27.1942 14 31 17.8057 31 22.4997Z" fill="#49479C"/>
<mask id="mask0" mask-type="alpha" maskUnits="userSpaceOnUse" x="0" y="0" width="46" height="65">
<path fill-rule="evenodd" clip-rule="evenodd" d="M0 0.123779H45.8601V64.9996H0V0.123779Z" fill="white"/>
</mask>
<g mask="url(#mask0)">
<path fill-rule="evenodd" clip-rule="evenodd" d="M38.2718 34.6001C37.9551 35.14 37.6354 35.6846 37.3187 36.2368L23.0057 60.2072L7.94832 35.5517C5.44191 31.3232 3.27814 27.6703 3.27814 22.8919C3.27814 12.1324 12.0936 3.37905 22.9296 3.37905C33.7655 3.37905 42.5816 12.1324 42.5816 22.8919C42.5816 27.251 40.5841 30.6568 38.2718 34.6001ZM22.9296 0.123779C10.2867 0.123779 -0.000244141 10.337 -0.000244141 22.8919C-0.000244141 28.561 2.49083 32.7626 5.12817 37.2118C5.13229 37.2183 5.13524 37.2241 5.13937 37.23L21.6198 64.2161C21.917 64.7027 22.4483 64.9996 23.0216 64.9996H23.0292C23.6054 64.9967 24.1374 64.6945 24.4311 64.2027L40.146 37.8847C40.1507 37.8771 40.1554 37.8689 40.1601 37.8607C40.4739 37.3137 40.7906 36.7738 41.1049 36.2386C43.55 32.0686 45.86 28.1294 45.86 22.8919C45.86 10.337 35.5737 0.123779 22.9296 0.123779Z" fill="white"/>
</g>
<path fill-rule="evenodd" clip-rule="evenodd" d="M23.0003 31.7672C17.6136 31.7672 13.2323 27.3859 13.2323 22C13.2323 16.6135 17.6136 12.2323 23.0003 12.2323C28.3864 12.2323 32.7677 16.6135 32.7677 22C32.7677 27.3859 28.3864 31.7672 23.0003 31.7672ZM23.0003 9C15.8315 9 10 14.8313 10 22C10 29.1675 15.8315 35 23.0003 35C30.1685 35 36 29.1675 36 22C36 14.8313 30.1685 9 23.0003 9Z" fill="#003D44"/>
</svg>
