<?xml version="1.0" encoding="utf-8"?>
<!-- Generator: Adobe Illustrator 27.7.0, SVG Export Plug-In . SVG Version: 6.00 Build 0)  -->
<svg version="1.1" id="Layer_1" xmlns="http://www.w3.org/2000/svg" xmlns:xlink="http://www.w3.org/1999/xlink" x="0px" y="0px"
	 width="33.8px" height="53px" viewBox="0 0 33.8 53" style="enable-background:new 0 0 33.8 53;" xml:space="preserve">
<style type="text/css">
	.st0{fill:none;}
	.st1{fill:#FFFFFF;}
	.st2{fill:#DF0025;}
</style>
<g id="Page-1">
	<g id="header-desktop-2023-v1-copy-4" transform="translate(-1693.0584, -37.25)">
		<g id="Filiali" transform="translate(102, 30)">
			<g id="icona-apri-conto-it" transform="translate(1581, 7)">
				<rect id="Rectangle" x="0" class="st0" width="54" height="54"/>
				<g id="Group-16" transform="translate(17, 1)">
					<g id="Group-15">
						<polygon id="Stroke-1" class="st1" points="13.5,20.9 19,20.9 19,19.4 13.5,19.4 						"/>
						<g id="Group-14">
							<path id="Stroke-2" class="st1" d="M16.3,14.6c3,0,5.5,2.5,5.5,5.6s-2.5,5.6-5.5,5.6c-3,0-5.5-2.5-5.5-5.6
								S13.2,14.6,16.3,14.6z M16.3,16.1c-2.2,0-4,1.8-4,4.1s1.8,4.1,4,4.1c2.2,0,4-1.8,4-4.1S18.5,16.1,16.3,16.1z"/>
							<path id="Stroke-4" class="st1" d="M9.1-0.8c3.2,0,5.8,2.7,5.8,5.9s-2.6,5.9-5.8,5.9S3.3,8.4,3.3,5.2S5.9-0.8,9.1-0.8z
								 M9.1,0.8c-2.4,0-4.3,2-4.3,4.4s1.9,4.4,4.3,4.4s4.3-2,4.3-4.4S11.5,0.8,9.1,0.8z"/>
							<polygon id="Stroke-6" class="st1" points="15.5,17.3 15.5,23 17,23 17,17.3 							"/>
							<polygon id="Stroke-8" class="st2" points="0.8,17.5 0.8,23.6 6.9,23.6 6.9,25.1 -0.7,25.1 -0.7,17.5 							"/>
							<polygon id="Stroke-10" class="st1" points="8.4,25.1 13.8,25.1 13.8,23.6 8.4,23.6 							"/>
							<path id="Stroke-12" class="st1" d="M15.8,12.1c1.9,0,3.4,1.5,3.4,3.4V16h-1.5v-0.5c0-1.1-0.8-1.9-1.9-1.9H2.6
								c-1,0-1.9,0.9-1.9,1.9v0.7h-1.5v-0.7c0-1.9,1.5-3.4,3.4-3.4H15.8z"/>
						</g>
					</g>
				</g>
				<g id="previdenza-copy" transform="translate(10.0584, 31.614)">
					<path id="Shape" class="st1" d="M11.9,9.4c-0.1-0.5-0.2-1.1-0.2-1.7l0-2.6c0-0.3,0-1.1-0.5-1.6C10.7,2.7,9.5,2.6,9,2.6
						c-0.6,0-1.4,0.1-2,0.5C6.3,3.7,6.3,4.4,6.2,4.7h1.9c0-0.2,0-0.4,0.1-0.6C8.4,3.9,8.7,3.8,9,3.8c0.2,0,0.7,0.1,0.9,0.5
						C9.9,4.5,10,4.7,10,5.2c-0.6,0-1.8,0-2.6,0.4C6.1,6.1,6,7.1,6,7.6S6.1,8.6,6.5,9c0.3,0.2,0.7,0.5,1.6,0.5c0.4,0,1.2,0,2-1.1
						c0,0.2,0,0.5,0.1,0.9H11.9z M10,6.3c0,0.7,0,1.2-0.4,1.6C9.4,8.1,9.1,8.3,8.8,8.3c-0.6,0-0.9-0.5-0.9-0.9
						C7.8,6.6,8.7,6.2,10,6.3z"/>
					<path id="Shape_00000118384998820139255100000014289129993544467625_" class="st1" d="M13.4,2.8v9.1h2V8.6
						c0.2,0.2,0.6,0.8,1.8,0.8C19,9.5,20,7.8,20,6c0-2-1-3.3-2.7-3.3c-0.3,0-1.4,0-2,1.1l-0.1-0.9H13.4z M16.7,8.2
						c-1.4,0-1.4-1.7-1.4-2.1c0-1.8,0.9-2.2,1.5-2.2c1.1,0,1.3,1.3,1.3,2.1C18.1,7.3,17.6,8.2,16.7,8.2z"/>
					<path id="Path" class="st1" d="M21.3,9.4h1.9V6.1c0-0.8,0.1-1.8,2.1-1.6V2.8c-1.6-0.1-2,0.7-2.2,1.3l0-1.3h-1.8
						c0,0.4,0.1,1.3,0.1,1.6V9.4z"/>
					<path id="Shape_00000098942987529336255390000003561226060071027348_" class="st1" d="M25.7,1.7h2.1V0h-2.1V1.7z M25.8,9.4h1.9
						V2.8h-1.9V9.4z"/>
					<path id="Path_00000129883934062505806610000016625895358673203620_" class="st1" d="M5.7,17.1c0-1.8-1.5-2.5-2.7-2.5
						c-0.9,0-3.1,0.4-3.1,3.4c0,1.1,0.3,1.9,0.8,2.6c0.6,0.7,1.4,0.9,2.2,0.9c0.8,0,1.4-0.2,1.9-0.6c0.8-0.6,0.8-1.4,0.8-1.9H3.9
						c-0.1,1.2-0.7,1.3-0.9,1.3c-0.1,0-0.3,0-0.5-0.2C2,19.6,2,18.4,2,18c0-0.7,0.1-2.1,1-2.1c0.7,0,0.8,1,0.8,1.2H5.7z"/>
					<path id="Shape_00000165199652318734881830000000295208344454074012_" class="st1" d="M6.5,18.2c0,2.3,1.5,3.5,3.4,3.5
						c2.4,0,3.4-1.7,3.4-3.5c0-1.8-1-3.4-3.4-3.4C7.3,14.7,6.5,16.6,6.5,18.2z M8.5,18.2c0-0.6,0-2.2,1.4-2.2c1.3,0,1.4,1.2,1.4,2.1
						c0,1.7-0.6,2.2-1.4,2.2C9,20.3,8.5,19.6,8.5,18.2z"/>
					<path id="Path_00000101788364448384944310000006531942964849240762_" class="st1" d="M14.7,21.4h1.9v-3.8c0-0.5,0.1-0.8,0.2-1
						c0.2-0.3,0.6-0.5,1-0.5c0.5,0,0.8,0.3,0.9,0.6c0.1,0.2,0.1,0.4,0.1,0.7v4.1h2v-3.5c0-1.2,0-1.6-0.2-2c-0.2-0.5-0.7-1.2-2-1.2
						c-1.4,0-2,0.8-2.1,1.1l-0.1-1h-1.8c0,0.5,0,1.2,0,1.2V21.4z"/>
					<path id="Path_00000112617055204864496820000009887565619576381080_" class="st1" d="M26.4,20c-0.2,0-0.4,0-0.6,0
						c-0.9,0-0.9-0.4-0.9-1v-3h1.6v-1.3h-1.6v-2L23,13.6v1.3h-1.3v1.3H23v3.6c0,0.5,0,1.8,1.9,1.8c0.3,0,0.9,0,1.5-0.2V20z"/>
					<path id="Shape_00000012439815971539006620000008876183453707057285_" class="st1" d="M27,18.2c0,2.3,1.5,3.5,3.4,3.5
						c2.4,0,3.4-1.7,3.4-3.5c0-1.8-1-3.4-3.4-3.4C27.8,14.7,27,16.6,27,18.2z M29,18.2c0-0.6,0-2.2,1.4-2.2c1.3,0,1.4,1.2,1.4,2.1
						c0,1.7-0.6,2.2-1.4,2.2C29.5,20.3,29,19.6,29,18.2z"/>
				</g>
			</g>
		</g>
	</g>
</g>
</svg>
