<?xml version="1.0" encoding="UTF-8" standalone="no"?>
<svg width="48px" height="66px" viewBox="0 0 48 66" version="1.1" xmlns="http://www.w3.org/2000/svg" xmlns:xlink="http://www.w3.org/1999/xlink">
    <!-- Generator: Sketch 46.2 (44496) - http://www.bohemiancoding.com/sketch -->
    <title>icon</title>
    <desc>Created with Sketch.</desc>
    <defs>
        <polygon id="path-1" points="47.5769523 0.160922203 0 0.160922203 0 49.9308422 47.5769523 49.9308422 47.5769523 0.160922203"></polygon>
    </defs>
    <g id="Page-1" stroke="none" stroke-width="1" fill="none" fill-rule="evenodd">
        <g id="homepage_prova8-2" transform="translate(-577.000000, -5016.000000)">
            <g id="contact" transform="translate(102.000000, 4730.000000)">
                <g id="contact__filiale" transform="translate(436.000000, 247.000000)">
                    <g id="icon" transform="translate(39.000000, 39.000000)">
                        <g id="Group-7" transform="translate(0.000000, 0.545230)">
                            <g id="Group-4">
                                <mask id="mask-2" fill="white">
                                    <use xlink:href="#path-1"></use>
                                </mask>
                                <g id="Clip-3"></g>
                                <path d="M9.5669481,49.9308422 C3.22889264,41.1937547 0.0104481199,32.460902 -0.00014119081,23.9729616 C-0.0156721799,10.8592137 10.6421161,0.176943843 23.7594483,0.160710463 L23.7883924,0.160710463 C36.8923115,0.160710463 47.5606891,10.8105136 47.5769261,23.9143803 C47.5875154,32.4023207 44.3902495,41.143643 38.0740786,49.8955522 L35.7839637,48.2432765 C41.7457456,39.9833092 44.7629932,31.7995682 44.7531099,23.9179093 C44.7389908,12.3703297 35.3356829,2.983907 23.7883924,2.983907 L23.7622721,2.983907 C12.2029805,2.99802298 2.81026188,12.4126776 2.82367501,23.9694327 C2.83355837,31.8503858 5.87127865,40.0277746 11.8528273,48.27292 L9.5669481,49.9308422 Z" id="Fill-2" fill="#FFFFFF" mask="url(#mask-2)"></path>
                            </g>
                            <path d="M23.7900867,14.741109 C20.9486217,14.744638 18.2899987,15.8492136 16.2921488,17.8515658 C14.2942988,19.8539179 13.1965403,22.5140748 13.20007,25.342212 C13.2071296,31.1728186 17.9574944,35.9164946 23.7893808,35.9164946 L23.7893808,37.3280929 L23.8034999,35.9164946 C26.6315518,35.9136714 29.2901747,34.8090958 31.2880247,32.8067436 C33.2858747,30.8043915 34.3836332,28.1442345 34.3808094,25.3153916 C34.3737499,19.484785 29.6226791,14.741109 23.7900867,14.741109 L23.7900867,14.741109 Z M23.7893808,38.7396911 C16.4022776,38.7396911 10.3854312,32.7312231 10.3762538,25.3450352 C10.3713121,21.7631046 11.7627476,18.3936195 14.2928869,15.8576832 C16.8237322,13.3217469 20.190427,11.9221472 23.7738498,11.9179124 C31.1771899,11.9179124 37.1954482,17.9263805 37.2046256,25.3125684 C37.2088613,28.894499 35.8174259,32.2646899 33.2865806,34.8006262 C30.7564413,37.3365625 27.3897464,38.7354563 23.8063237,38.7396911 L23.7893808,38.7396911 Z" id="Fill-5" fill="#FFFFFF"></path>
                        </g>
                        <polygon id="Fill-1" fill="#E20714" points="23.8342089 61.4857621 13.4065616 51.0865177 11.4122414 53.0846351 23.8391505 65.4784678 36.2349977 53.0542857 34.2364418 51.0604031"></polygon>
                    </g>
                </g>
            </g>
        </g>
    </g>
</svg>