<?xml version="1.0" encoding="UTF-8"?>
<svg width="366px" height="49px" viewBox="0 0 366 49" version="1.1" xmlns="http://www.w3.org/2000/svg" xmlns:xlink="http://www.w3.org/1999/xlink">
    <title>logo MEET</title>
    <defs>
        <polygon id="path-1" points="0 0 19.503141 0 19.503141 26.0209886 0 26.0209886"></polygon>
        <polygon id="path-3" points="0 0 19.503141 0 19.503141 26.0209886 0 26.0209886"></polygon>
        <polygon id="path-5" points="0 0 9.60196607 0 9.60196607 9.55298165 0 9.55298165"></polygon>
    </defs>
    <g id="Page-1" stroke="none" stroke-width="1" fill="none" fill-rule="evenodd">
        <g id="Homepage---APPROVATA-Copy-2" transform="translate(-118.000000, -3071.000000)">
            <g id="old-box-meet" transform="translate(97.000000, 3031.000000)">
                <g id="Group-38" transform="translate(21.000000, 40.000000)">
                    <path d="M336.829947,28.2569381 L336.829947,39.3075287 C336.829947,39.5001698 336.829947,39.6840544 336.838747,39.867939 L336.838747,28.2569381 L336.829947,28.2569381 Z" id="Fill-1" fill="#EC1C24"></path>
                    <path d="M256.308252,24.0396755 C259.797556,24.0396755 262.228188,25.6228346 263.463745,27.9958219 C264.701062,25.6228346 267.176576,24.0396755 270.665,24.0396755 C276.011159,24.0396755 279.192454,27.732254 279.192454,33.7102557 L279.192454,47.7765543 L275.127613,47.7765543 L275.127613,33.7102557 C275.127613,30.0623349 273.537405,27.8636001 270.444993,27.8636001 C267.30858,27.8636001 265.496606,30.149899 265.496606,34.0622634 L265.496606,47.7765543 L261.431765,47.7765543 L261.431765,34.0622634 C261.431765,30.149899 259.664672,27.8636001 256.528259,27.8636001 C253.435846,27.8636001 251.846519,30.0623349 251.846519,33.7102557 L251.846519,47.7765543 L247.781678,47.7765543 L247.781678,33.7102557 C247.781678,27.732254 250.918091,24.0396755 256.308252,24.0396755" id="Fill-3" fill="#EC1C24"></path>
                    <path d="M301.987069,33.6666488 C301.235527,29.5344985 298.32088,27.5555496 294.829816,27.5555496 C290.898739,27.5555496 288.027213,30.1491985 287.186788,33.6666488 L301.987069,33.6666488 Z M283.165948,36.2602977 C283.165948,29.3147126 288.114336,24.1274147 294.874697,24.1274147 C300.794633,24.1274147 306.095031,28.1282189 305.963027,36.6998695 L286.966781,36.6998695 C287.186788,41.2715917 290.368083,44.6559445 295.184466,44.6559445 C298.585768,44.6559445 301.36841,42.986097 303.092382,40.1726621 L305.919906,42.2382995 C303.886165,45.4028664 300.35286,48.2163012 295.139585,48.2163012 C287.982332,48.2163012 283.165948,43.0736611 283.165948,36.2602977 L283.165948,36.2602977 Z" id="Fill-5" fill="#EC1C24"></path>
                    <path d="M327.696947,33.6666488 C326.947165,29.5344985 324.030758,27.5555496 320.541454,27.5555496 C316.608617,27.5555496 313.737091,30.1491985 312.898426,33.6666488 L327.696947,33.6666488 Z M308.877586,36.2602977 C308.877586,29.3147126 313.825974,24.1274147 320.584575,24.1274147 C326.505391,24.1274147 331.806669,28.1282189 331.674665,36.6998695 L312.676659,36.6998695 C312.898426,41.2715917 316.079721,44.6559445 320.894344,44.6559445 C324.295646,44.6559445 327.080048,42.986097 328.80226,40.1726621 L331.629784,42.2382995 C329.597803,45.4028664 326.062738,48.2163012 320.851223,48.2163012 C313.69397,48.2163012 308.877586,43.0736611 308.877586,36.2602977 L308.877586,36.2602977 Z" id="Fill-7" fill="#EC1C24"></path>
                    <path d="M349.168003,44.2992959 L349.168003,47.6880269 C348.676948,47.7309334 348.032769,47.7747154 347.258346,47.7747154 C344.600666,47.7747154 342.506204,47.4594846 340.904556,46.7677282 C338.238077,45.6031255 336.962039,43.4052664 336.838835,39.8676763 L336.838835,27.9169267 L334.013951,27.9169267 L334.013951,24.5702264 L336.838835,24.5702264 L336.838835,18.1517772 L340.728551,18.1430208 L340.904556,18.1430208 L340.904556,24.5702264 L347.345468,24.5702264 L347.345468,27.9169267 L340.904556,27.9169267 L340.904556,39.9289712 C341.098162,42.9411766 342.761412,44.3334459 347.812762,44.3334459 C348.41118,44.3334459 348.74207,44.3351972 349.168003,44.2992959" id="Fill-9" fill="#EC1C24"></path>
                    <path d="M30.0863363,41.1183545 C30.275542,42.4037956 30.4013857,42.9992316 30.6856342,43.7198842 C31.283172,45.2557587 32.1975192,46.4475062 33.4577168,47.2942511 C34.9704819,48.2968602 37.4908769,48.9246949 40.0737539,48.9246949 C43.4451343,48.9246949 45.9347285,48.1409961 47.6041382,46.5411998 C48.8960167,45.2557587 49.5894774,43.4379278 49.5894774,41.2120481 C49.5894774,38.8609518 48.770173,37.1359388 46.9740395,35.8198502 C45.8396857,35.0370271 44.3278006,34.4398399 41.8382065,33.9074501 C38.3409823,33.1237513 38.0892948,33.0615808 37.3958341,32.7796244 C35.947311,32.1517897 35.2538503,31.2428742 35.2538503,29.92591 C35.2538503,27.8882932 37.1133457,26.5091585 39.8528673,26.5091585 C41.586519,26.5091585 42.9725603,27.0415483 43.7918647,28.0135099 C44.3278006,28.6404689 44.5478072,29.1737343 44.7370128,30.2402652 L49.2427471,29.7061241 C48.8652158,28.045033 48.4868045,27.1045944 47.6991811,26.0695867 C46.1547351,24.0004468 43.4451343,22.9032685 39.8528673,22.9032685 C34.4345459,22.9032685 30.9056408,25.7245841 30.9056408,30.0826498 C30.9056408,32.1833128 31.7249452,33.9074501 33.331873,35.1613681 C34.4653468,36.0396362 35.7264244,36.5413785 38.0892948,37.0737683 C42.4375043,38.077253 42.6258299,38.1079004 43.5718581,38.6105184 C44.5478072,39.1429082 45.147105,40.2094391 45.147105,41.4948802 C45.147105,43.8459765 43.2559287,45.2557587 40.1063149,45.2557587 C38.0576138,45.2557587 36.419885,44.5981522 35.5046578,43.4064047 C34.9388009,42.6857521 34.7487152,42.058793 34.6237515,40.6481352 L30.0863363,41.1183545 Z" id="Fill-11" fill="#231F20"></path>
                    <path d="M58.2772722,48.4981701 C58.0880666,47.3072982 58.0247047,46.1155507 58.0247047,44.4229364 L58.0247047,39.1874783 L64.042324,39.1874783 C67.0678541,39.1874783 69.2098379,38.4659501 70.7542839,36.9309512 C72.1403252,35.4887703 72.8654668,33.5448471 72.8654668,31.1622277 C72.8654668,28.9039493 72.2028071,27.0239479 70.9118086,25.7700298 C69.3999236,24.2648028 67.2570597,23.5432745 64.2007287,23.5432745 L57.6154925,23.5432745 C55.9460828,23.5432745 54.9692537,23.5126271 53.6140133,23.4495809 C53.8032189,24.8602387 53.8657008,25.9898158 53.8657008,27.4941672 L53.8657008,44.4535839 C53.8657008,46.1470738 53.8032189,47.244252 53.6140133,48.4981701 L58.2772722,48.4981701 Z M58.0247047,35.5824639 L58.0247047,27.1491646 L64.042324,27.1491646 C65.7134938,27.1491646 66.7528047,27.4941672 67.4779463,28.2778659 C68.170527,28.9985186 68.5172573,30.0335263 68.5172573,31.2874444 C68.5172573,34.0457138 66.9420104,35.5824639 64.042324,35.5824639 L58.0247047,35.5824639 Z" id="Fill-13" fill="#231F20"></path>
                    <path d="M96.770675,48.4981701 C96.3297819,47.6829482 95.9513706,46.8046802 95.1646272,44.7985865 L88.1692988,26.7095927 C87.4450372,24.7971926 87.2549515,24.2963259 87.0983069,23.5432745 L81.6157435,23.5432745 C81.4582188,24.359372 81.2065313,25.1421952 80.6072335,26.7095927 L73.676147,44.7985865 C73.1094101,46.241643 72.4793113,47.6523008 72.0067372,48.4981701 L77.1733712,48.4981701 C77.4250587,47.1820815 77.5517824,46.7118623 78.1185193,45.2066352 L79.3787169,41.789008 L89.4611773,41.789008 L90.7213748,45.2066352 C91.0681051,46.1155507 91.4148355,47.464038 91.6031611,48.4981701 L96.770675,48.4981701 Z M88.3268235,38.1839936 L80.5139507,38.1839936 L83.7894083,28.9039493 C83.8844511,28.6228685 83.8844511,28.6228685 84.3887061,27.1491646 C84.7345564,28.1832967 84.8295993,28.5598224 84.955443,28.9039493 L88.3268235,38.1839936 Z" id="Fill-15" fill="#231F20"></path>
                    <path d="M120.329945,48.4981701 C119.889052,47.6523008 119.100548,45.9588109 118.849741,45.3948981 C115.730048,38.058777 115.13075,37.1805089 113.146291,36.5535499 C114.941544,36.0526832 115.760849,35.6446345 116.643515,34.735719 C117.714507,33.6385407 118.250443,32.0711432 118.250443,30.0641738 C118.250443,25.9267696 115.509161,23.5432745 110.720059,23.5432745 L103.158873,23.5432745 C101.426102,23.5432745 100.448393,23.5126271 99.1248332,23.4495809 C99.3140388,24.9224093 99.3774007,25.8637234 99.3774007,27.5256902 L99.3774007,44.4229364 C99.3774007,46.3353366 99.3140388,47.1820815 99.1248332,48.4981701 L103.819773,48.4981701 C103.631447,47.2757751 103.568086,46.2731661 103.568086,44.3914134 L103.568086,37.9957308 L108.262145,37.9957308 C110.689258,37.9957308 111.791931,39.1559553 113.492141,43.4824979 C114.532332,46.1470738 115.068268,47.7459944 115.13075,48.4981701 L120.329945,48.4981701 Z M103.568086,34.4222395 L103.568086,27.1176415 L110.027478,27.1176415 C112.610355,27.1176415 113.902233,28.2778659 113.902233,30.5352687 C113.902233,31.7261406 113.555503,32.635056 112.893723,33.2935381 C112.169462,34.0141907 111.066789,34.4222395 109.900754,34.4222395 L103.568086,34.4222395 Z" id="Fill-17" fill="#231F20"></path>
                    <path d="M133.99552,33.7325846 L140.738281,26.8666827 C142.124322,25.4560249 143.164513,24.4525403 144.07798,23.5436248 L138.122843,23.5436248 C137.492744,24.5777569 136.894326,25.3308083 135.66493,26.5847263 L127.63117,34.892809 L127.63117,27.588211 C127.63117,25.8010275 127.725333,24.5777569 127.914539,23.5436248 L123.25216,23.5436248 C123.440486,24.860589 123.502967,25.8947211 123.502967,27.588211 L123.502967,44.4539341 C123.502967,46.1159009 123.440486,47.0869869 123.25216,48.4985203 L127.914539,48.4985203 C127.694532,47.1815561 127.63117,46.3041638 127.63117,44.4539341 L127.63117,39.8454351 L131.065913,36.4286835 L137.33522,45.2069855 C138.060361,46.2411176 138.847105,47.5580818 139.319679,48.4985203 L145.148972,48.4985203 C144.235505,47.4950357 143.888775,47.0572151 141.998478,44.5169803 L133.99552,33.7325846 Z" id="Fill-19" fill="#231F20"></path>
                    <path d="M170.472255,48.4981701 C170.031362,47.6829482 169.65295,46.8046802 168.865327,44.7985865 L161.870879,26.7095927 C161.146617,24.7971926 160.956531,24.2963259 160.799887,23.5432745 L155.317323,23.5432745 C155.159799,24.359372 154.907231,25.1421952 154.308813,26.7095927 L147.377727,44.7985865 C146.81099,46.241643 146.180891,47.6523008 145.708317,48.4981701 L150.874951,48.4981701 C151.126638,47.1820815 151.253362,46.7118623 151.820099,45.2066352 L153.080297,41.789008 L163.162757,41.789008 L164.422955,45.2066352 C164.769685,46.1155507 165.116415,47.464038 165.304741,48.4981701 L170.472255,48.4981701 Z M162.028403,38.1839936 L154.21465,38.1839936 L157.490988,28.9039493 C157.586031,28.6228685 157.586031,28.6228685 158.090286,27.1491646 C158.436136,28.1832967 158.531179,28.5598224 158.657023,28.9039493 L162.028403,38.1839936 Z" id="Fill-21" fill="#231F20"></path>
                    <g id="Group-25" transform="translate(172.007813, 22.979011)">
                        <mask id="mask-2" fill="white">
                            <use xlink:href="#path-1"></use>
                        </mask>
                        <g id="Clip-24"></g>
                        <path d="M0,18.215086 C0.189205637,19.5005272 0.315049386,20.0959631 0.599297854,20.8166157 C1.19683566,22.3524902 2.1111829,23.5442377 3.37138044,24.3909827 C4.88414551,25.3935917 7.40366057,26.0214264 9.98741755,26.0214264 C13.358798,26.0214264 15.8475121,25.2377276 17.5178019,23.6379313 C18.8096804,22.3524902 19.503141,20.5346593 19.503141,18.3087796 C19.503141,15.9576833 18.6838366,14.2326703 16.8877031,12.9165818 C15.7533493,12.1337586 14.2405843,11.5365714 11.7518701,11.0041816 C8.25464593,10.2204829 8.00295843,10.1583123 7.30949777,9.8763559 C5.86097461,9.24852124 5.16751395,8.33960578 5.16751395,7.02264158 C5.16751395,4.98502475 7.02612932,3.60589003 9.76653097,3.60589003 C11.5001826,3.60589003 12.8862239,4.13827981 13.7055283,5.11024143 C14.2405843,5.73807609 14.4614708,6.27046588 14.6506765,7.33699673 L19.1564107,6.80285566 C18.7788795,5.14176451 18.3995882,4.20132597 17.6128447,3.1663182 C16.0683987,1.09717829 13.358798,0 9.76653097,0 C4.34820954,0 0.819304409,2.82131561 0.819304409,7.18025697 C0.819304409,9.28004432 1.63860882,11.0041816 3.24465667,12.2580997 C4.37989049,13.1363677 5.64008803,13.63811 8.00295843,14.1704998 C12.351168,15.1739845 12.5394936,15.204632 13.4855218,15.70725 C14.4614708,16.2396397 15.0607687,17.3061706 15.0607687,18.5916117 C15.0607687,20.9427081 13.1695924,22.3524902 10.0199785,22.3524902 C7.97127748,22.3524902 6.33354869,21.6948838 5.41832142,20.5031362 C4.85158454,19.7824836 4.6623789,19.1555246 4.53741518,17.7448668 L0,18.215086 Z" id="Fill-23" fill="#231F20" mask="url(#mask-2)"></path>
                    </g>
                    <g id="Group-28" transform="translate(194.306269, 22.979011)">
                        <mask id="mask-4" fill="white">
                            <use xlink:href="#path-3"></use>
                        </mask>
                        <g id="Clip-27"></g>
                        <path d="M0,18.215086 C0.189205637,19.5005272 0.315049386,20.0959631 0.599297854,20.8166157 C1.19683566,22.3524902 2.1111829,23.5442377 3.37138044,24.3909827 C4.88414551,25.3935917 7.4045406,26.0214264 9.98741755,26.0214264 C13.358798,26.0214264 15.8483922,25.2377276 17.5178019,23.6379313 C18.8096804,22.3524902 19.503141,20.5346593 19.503141,18.3087796 C19.503141,15.9576833 18.6838366,14.2326703 16.8877031,12.9165818 C15.7542294,12.1337586 14.2414643,11.5365714 11.7527501,11.0041816 C8.25464593,10.2204829 8.00295843,10.1583123 7.31037779,9.8763559 C5.86097461,9.24852124 5.16751395,8.33960578 5.16751395,7.02264158 C5.16751395,4.98502475 7.02700935,3.60589003 9.76741099,3.60589003 C11.5001826,3.60589003 12.8862239,4.13827981 13.7055283,5.11024143 C14.2414643,5.73807609 14.4614708,6.27046588 14.6506765,7.33699673 L19.1564107,6.80285566 C18.7788795,5.14176451 18.4004682,4.20132597 17.6128447,3.1663182 C16.0683987,1.09717829 13.358798,0 9.76741099,0 C4.34820954,0 0.819304409,2.82131561 0.819304409,7.18025697 C0.819304409,9.28004432 1.63860882,11.0041816 3.24553669,12.2580997 C4.37989049,13.1363677 5.64008803,13.63811 8.00295843,14.1704998 C12.351168,15.1739845 12.5394936,15.204632 13.4855218,15.70725 C14.4614708,16.2396397 15.0607687,17.3061706 15.0607687,18.5916117 C15.0607687,20.9427081 13.1695924,22.3524902 10.0199785,22.3524902 C7.97127748,22.3524902 6.33354869,21.6948838 5.41920145,20.5031362 C4.85246457,19.7824836 4.6623789,19.1555246 4.53741518,17.7448668 L0,18.215086 Z" id="Fill-26" fill="#231F20" mask="url(#mask-4)"></path>
                    </g>
                    <path d="M235.005193,44.5483282 C233.649953,44.705068 233.052415,44.7681142 231.287083,44.7681142 L221.835601,44.7681142 L221.835601,37.3698225 L229.52351,37.3698225 C231.476288,37.3698225 232.327274,37.40047 233.619152,37.5887328 L233.619152,33.4819761 C232.232231,33.6378402 231.161239,33.7008864 229.52351,33.7008864 L221.867282,33.7008864 L221.867282,27.2430333 L230.940352,27.2430333 C232.799848,27.2430333 233.808358,27.3052038 235.005193,27.4628192 L235.005193,23.3245394 C233.55579,23.4812792 232.516479,23.5443253 230.940352,23.5443253 L221.426389,23.5443253 C219.503532,23.5443253 218.684227,23.5119266 217.42403,23.4488804 C217.613235,24.92346 217.675717,25.8630229 217.675717,27.4934666 L217.675717,44.4546346 C217.675717,46.3039886 217.613235,47.3389964 217.42403,48.5929145 C218.684227,48.5298683 219.535212,48.4983452 221.426389,48.4983452 L231.255402,48.4983452 C233.178259,48.4983452 233.87084,48.5613914 235.005193,48.7181311 L235.005193,44.5483282 Z" id="Fill-29" fill="#231F20"></path>
                    <path d="M25.0613866,35.7056666 L20.0170764,35.7056666 C20.3928476,35.4552333 20.5987737,35.2739756 20.8918224,34.9403563 L18.2913449,32.8948587 C18.226223,32.8029164 18.2103825,32.7109741 18.2887049,32.6304151 C18.3740674,32.5481049 18.4972711,32.5980164 18.5016712,32.6032703 L21.1435099,34.689923 C21.6477649,34.1470255 22.1071386,33.5200665 22.4855499,32.8948587 L19.4230587,31.5595061 C19.333296,31.5087189 19.3033751,31.403642 19.3720171,31.2976894 C19.4230587,31.2197573 19.5084212,31.1829804 19.5920237,31.2258868 L22.6545149,32.5612395 C22.9898049,31.9342805 23.2828537,31.2679176 23.5345411,30.5577727 L20.1781212,29.97372 C20.1156393,29.9579585 20.0329168,29.895788 20.0672379,29.7416752 C20.0971587,29.6085777 20.2221225,29.5945675 20.2634837,29.5971944 L23.6181436,30.2241534 C23.8275899,29.5971944 23.9525536,28.9299559 23.9965549,28.2198109 L20.5574125,28.2198109 C20.5160512,28.2198109 20.3726069,28.1900391 20.3726069,28.0473096 C20.3726069,27.9553673 20.4720499,27.8870673 20.5574125,27.8870673 L24.0379161,27.8870673 L24.0379161,25.1147876 L19.6448253,25.1147876 L19.6448253,27.441366 C19.6844264,30.1943816 18.1320602,32.1435587 15.9073539,33.1452921 C15.5307027,33.3107883 15.2790152,33.3545703 15.2790152,33.3545703 C15.2790152,33.3545703 15.1179704,33.4027306 15.0572486,33.2783895 C15.0229276,33.2030844 15.0757291,33.1128934 15.1549315,33.0629818 C15.1549315,33.0629818 15.3626177,32.977169 15.6143052,32.8948587 C17.5010814,32.1847138 19.0534476,30.2653085 19.2224127,28.3047481 C19.2593738,28.0499366 19.268174,25.8669633 19.268174,25.1147876 L17.1596312,25.1147876 C16.6976175,25.1147876 16.3209662,25.489562 16.3209662,25.9492736 L16.3623275,29.1392341 C16.3623275,29.5551636 15.9003137,29.8905341 15.5659037,29.8905341 L15.5659037,29.4316982 L16.0279175,29.4316982 L15.5245425,28.1786558 L16.0279175,28.0105327 L15.2306138,26.926489 L15.5659037,26.6340249 L14.3065862,25.967662 L14.5582737,25.5079505 L12.1267613,25.5491056 C11.511623,25.579753 11.4544213,25.7172287 11.2880963,26.0088172 C11.2467351,26.1331582 11.2027338,26.2592505 11.1604925,26.3835916 C10.6157563,26.4273736 10.1123813,26.5105595 9.73573005,26.9676442 C9.48404255,27.3030147 9.40044006,27.6777891 9.48404255,28.1375007 C9.48404255,28.1786558 9.52540378,28.2618417 9.60900627,28.2618417 C9.69436882,28.2618417 9.73573005,28.1375007 9.73573005,28.0543148 C9.81933254,27.7189442 10.1977438,27.5534481 10.5330338,27.4685109 C10.7847213,27.4273557 11.07777,27.4273557 11.2880963,27.5122929 C11.5397838,27.6777891 11.6225063,27.8660519 11.6225063,28.0315481 L10.574395,28.0315481 C10.8260825,28.2408263 11.07777,28.6383674 11.3294575,28.8888007 C11.1604925,29.22242 10.9924075,29.5551636 10.8674438,29.8905341 L10.0287788,29.8905341 C9.56676502,29.8905341 9.14875256,29.4728533 9.14875256,29.0131418 L9.14875256,25.9492736 C9.14875256,25.489562 8.77034129,25.1147876 8.30832752,25.1147876 L6.74716101,25.1147876 C6.74716101,25.8669633 6.75596128,28.0499366 6.79292238,28.3047481 C6.96188741,30.2653085 8.51425366,32.1847138 10.4010299,32.8948587 C10.6527174,32.977169 10.8630436,33.0629818 10.8630436,33.0629818 C10.9668867,33.104137 11.0038478,33.1776908 10.9739269,33.2556229 C10.9158452,33.4071088 10.7363199,33.3545703 10.7363199,33.3545703 C10.7363199,33.3545703 10.4837523,33.3134152 10.1079811,33.1452921 C7.88327486,32.1435587 6.33090861,30.1943816 6.37050979,27.441366 L6.37050979,25.1147876 L1.4300426,25.1147876 L1.4300426,27.8450365 L4.91318638,27.8870673 C5.04431028,27.8870673 5.07687125,27.9422327 5.07951133,28.0543148 C5.08127138,28.1944173 4.99414879,28.2180597 4.91318638,28.2198109 L1.47316389,28.2198109 C1.51540515,28.9299559 1.63948884,29.5971944 1.84981511,30.2241534 L5.20623511,29.5971944 C5.28895757,29.5971944 5.3840004,29.5971944 5.41392129,29.7486803 C5.44648226,29.9115495 5.36991998,29.9483265 5.28895757,29.97372 C5.26431684,29.9807252 1.9334176,30.5577727 1.9334176,30.5577727 C2.1851051,31.2679176 2.4367926,31.9342805 2.81520387,32.5612395 L5.87593506,31.2258868 C5.9612976,31.1829804 6.05370035,31.196115 6.11442216,31.3160778 C6.19978471,31.4859522 6.0889014,31.5341125 6.04490009,31.5595061 L2.98152883,32.8948587 C3.36082013,33.5200665 3.82019381,34.1470255 4.32356881,34.689923 L6.96628754,32.6032703 C7.01028885,32.5612395 7.12381224,32.5498561 7.19069423,32.633042 C7.2804569,32.750378 7.21797504,32.8537036 7.17661381,32.8948587 L4.57525631,34.9403563 C4.86918506,35.2739756 5.08831159,35.4596115 5.45352247,35.7056666 L0.519215469,35.7056666 L0.519215469,23.5202452 L25.0613866,23.5202452 L25.0613866,35.7056666 Z M23.2898939,40.0129452 L22.8648412,40.0129452 L22.8648412,40.9043478 L22.6289942,40.9043478 L22.6289942,40.0129452 L22.3473858,40.0129452 C22.2523429,40.0129452 22.2065816,39.918376 22.2065816,39.8728426 L22.2065816,38.5576297 C22.2065816,38.5576297 22.3473858,38.4656874 22.4397885,38.3719938 C22.5832328,38.2318912 22.6289942,38.0427527 22.6289942,37.8544899 L22.6289942,37.3396129 L22.8648412,37.3396129 L22.8648412,37.8544899 C22.8648412,38.4175271 22.48819,38.6521989 22.48819,38.6521989 L23.3840567,39.7318644 C23.4790995,39.8728426 23.3840567,40.0129452 23.2898939,40.0129452 L23.2898939,40.0129452 Z M21.7815289,40.8588145 C21.4048777,40.8588145 21.0748679,40.5759824 21.0748679,40.201208 L22.4397885,40.201208 C22.4397885,40.5759824 22.1581801,40.8588145 21.7815289,40.8588145 L21.7815289,40.8588145 Z M21.7815289,38.4656874 C21.4515191,38.4656874 21.1672706,38.1828553 21.1672706,37.8544899 C21.1672706,37.5261245 21.4515191,37.2940796 21.7815289,37.2940796 C22.1115388,37.2940796 22.3473858,37.5261245 22.3473858,37.8544899 C22.3473858,38.1828553 22.1115388,38.4656874 21.7815289,38.4656874 L21.7815289,38.4656874 Z M21.5465619,39.8728426 L21.9689745,39.8728426 L21.9689745,39.449908 L21.5465619,39.449908 L21.5465619,39.8728426 Z M21.5456819,39.1688272 L21.9680945,39.1688272 L21.9680945,38.7003592 L21.5456819,38.7003592 L21.5456819,39.1688272 Z M20.8918224,40.9043478 L20.6568554,40.9043478 L20.6568554,40.0129452 L20.2318028,40.0129452 C20.1394,40.0129452 20.0443572,39.8728426 20.1394,39.7318644 L21.0335066,38.6521989 C21.0335066,38.6521989 20.6568554,38.4175271 20.6568554,37.8544899 L20.6568554,37.3396129 L20.8918224,37.3396129 L20.8918224,37.8544899 C20.8918224,38.0427527 20.9384638,38.2318912 21.0819081,38.3719938 C21.1760709,38.4656874 21.3168751,38.5576297 21.3168751,38.5576297 L21.3168751,39.8728426 C21.3168751,39.918376 21.2711137,40.0129452 21.1760709,40.0129452 L20.8918224,40.0129452 L20.8918224,40.9043478 Z M20.3330058,43.6459801 L19.9105932,43.6459801 L19.9105932,44.5382584 L19.6747462,44.5382584 L19.6747462,43.6459801 L19.3904977,43.6459801 C19.2963349,43.6459801 19.2496935,43.5522865 19.2496935,43.5058775 L19.2496935,42.1915402 C19.2496935,42.1915402 19.3904977,42.0995979 19.4855405,42.0050287 C19.6263447,41.8631748 19.6747462,41.6766633 19.6747462,41.4884004 L19.6747462,40.9735235 L19.9105932,40.9735235 L19.9105932,41.4884004 C19.9105932,42.0514377 19.5313019,42.2861095 19.5313019,42.2861095 L20.4280486,43.3657749 C20.5222114,43.5058775 20.4280486,43.6459801 20.3330058,43.6459801 L20.3330058,43.6459801 Z M18.8246408,44.4900981 C18.4479896,44.4900981 18.1179798,44.2090173 18.1179798,43.8351186 L19.4855405,43.8351186 C19.4855405,44.2090173 19.2012921,44.4900981 18.8246408,44.4900981 L18.8246408,44.4900981 Z M17.9358144,44.5382584 L17.6999673,44.5382584 L17.6999673,43.6459801 L17.2775547,43.6459801 C17.1825119,43.6459801 17.0874691,43.5058775 17.1825119,43.3657749 L18.0783786,42.2861095 C18.0783786,42.2861095 17.6999673,42.0514377 17.6999673,41.4884004 L17.6999673,40.9735235 L17.9358144,40.9735235 L17.9358144,41.4884004 C17.9358144,41.6766633 17.9842158,41.8631748 18.12502,42.0050287 C18.2200628,42.0995979 18.360867,42.1915402 18.360867,42.1915402 L18.360867,43.5058775 C18.360867,43.5522865 18.3142256,43.6459801 18.2200628,43.6459801 L17.9358144,43.6459801 L17.9358144,44.5382584 Z M18.5131115,35.7144231 L17.1939522,33.9797781 C17.1613913,33.901846 17.1270703,33.7976447 17.2353135,33.7249665 C17.385798,33.6277703 17.4482798,33.7293447 17.4896411,33.7704998 L18.9707252,35.7100449 L18.5131115,35.7144231 Z M18.8246408,42.0995979 C18.494631,42.0995979 18.2130226,41.8167658 18.2130226,41.4884004 C18.2130226,41.1591594 18.494631,40.9253632 18.8246408,40.9253632 C19.1555307,40.9253632 19.3904977,41.1591594 19.3904977,41.4884004 C19.3904977,41.8167658 19.1555307,42.0995979 18.8246408,42.0995979 L18.8246408,42.0995979 Z M18.5887938,43.5058775 L19.0138465,43.5058775 L19.0138465,43.0829429 L18.5887938,43.0829429 L18.5887938,43.5058775 Z M18.5896738,42.8027377 L19.0147265,42.8027377 L19.0147265,42.3342697 L18.5896738,42.3342697 L18.5896738,42.8027377 Z M16.9677855,40.9043478 L16.7319385,40.9043478 L16.7319385,40.0129452 L16.44769,40.0129452 C16.3552873,40.0129452 16.3068858,39.918376 16.3068858,39.8728426 L16.3068858,38.5576297 C16.3068858,38.5576297 16.44769,38.4656874 16.5427328,38.3719938 C16.6861771,38.2318912 16.7319385,38.0427527 16.7319385,37.8544899 L16.7319385,37.3396129 L16.9677855,37.3396129 L16.9677855,37.8544899 C16.9677855,38.4175271 16.5911343,38.6521989 16.5911343,38.6521989 L17.487881,39.7318644 C17.5802838,39.8728426 17.487881,40.0129452 17.3928382,40.0129452 L16.9677855,40.0129452 L16.9677855,40.9043478 Z M15.8844732,40.8588145 C15.506062,40.8588145 15.1751721,40.5759824 15.1751721,40.201208 L16.5427328,40.201208 C16.5427328,40.5759824 16.2611245,40.8588145 15.8844732,40.8588145 L15.8844732,40.8588145 Z M15.6495062,39.8728426 L16.0719188,39.8728426 L16.0719188,39.449908 L15.6495062,39.449908 L15.6495062,39.8728426 Z M15.6486262,39.1688272 L16.0710388,39.1688272 L16.0710388,38.7003592 L15.6486262,38.7003592 L15.6486262,39.1688272 Z M15.6002248,34.6067371 C15.572944,34.4762666 15.6838273,34.416723 15.7691898,34.3983345 C15.8501522,34.379946 15.8959136,34.4097178 15.9372748,34.4806448 L16.4274494,35.71705 L16.0463981,35.7100449 L15.6002248,34.6067371 Z M15.8844732,37.2940796 C16.212723,37.2940796 16.4503301,37.5261245 16.4503301,37.8544899 C16.4503301,38.1828553 16.212723,38.4656874 15.8844732,38.4656874 C15.5544634,38.4656874 15.2702149,38.1828553 15.2702149,37.8544899 C15.2702149,37.5261245 15.5544634,37.2940796 15.8844732,37.2940796 L15.8844732,37.2940796 Z M14.9956468,40.9043478 L14.7597997,40.9043478 L14.7597997,40.0129452 L14.3347471,40.0129452 C14.2397042,40.0129452 14.1473015,39.8728426 14.2397042,39.7318644 L15.136451,38.6521989 C15.136451,38.6521989 14.7597997,38.4175271 14.7597997,37.8544899 L14.7597997,37.3396129 L14.9956468,37.3396129 L14.9956468,37.8544899 C14.9956468,38.0427527 15.0414081,38.2318912 15.1848524,38.3719938 C15.2790152,38.4656874 15.4198194,38.5576297 15.4198194,38.5576297 L15.4198194,39.8728426 C15.4198194,39.918376 15.371418,40.0129452 15.2790152,40.0129452 L14.9956468,40.0129452 L14.9956468,40.9043478 Z M14.364668,45.4112725 L13.9396153,45.4112725 L13.9396153,46.3035508 L13.7064083,46.3035508 L13.7064083,45.4112725 L13.4221599,45.4112725 C13.327117,45.4112725 13.2813557,45.3175789 13.2813557,45.27117 L13.2813557,43.9568327 C13.2813557,43.9568327 13.4221599,43.8648904 13.5172027,43.7703211 C13.6580069,43.6302186 13.7064083,43.4419557 13.7064083,43.2536929 L13.7064083,42.7388159 L13.9396153,42.7388159 L13.9396153,43.2536929 C13.9396153,43.8167301 13.5629641,44.0505263 13.5629641,44.0505263 L14.4597108,45.1310674 C14.5538736,45.27117 14.4597108,45.4112725 14.364668,45.4112725 L14.364668,45.4112725 Z M12.856303,46.2571418 C12.4796518,46.2571418 12.149642,45.9743098 12.149642,45.5995354 L13.5172027,45.5995354 C13.5172027,45.9743098 13.2329542,46.2571418 12.856303,46.2571418 L12.856303,46.2571418 Z M13.1678323,26.7189621 L12.8747836,26.7189621 C12.8747836,26.8844583 12.7084586,26.9693955 12.5394936,26.9693955 C12.3714086,26.9693955 12.2464449,26.8844583 12.2464449,26.7189621 L11.9947574,26.7189621 L11.9947574,26.6340249 L13.1678323,26.6340249 L13.1678323,26.7189621 Z M12.856303,43.8648904 C12.5262932,43.8648904 12.2438048,43.5820583 12.2438048,43.2536929 C12.2438048,42.9244518 12.5262932,42.68978 12.856303,42.68978 C13.1863129,42.68978 13.4221599,42.9244518 13.4221599,43.2536929 C13.4221599,43.5820583 13.1863129,43.8648904 12.856303,43.8648904 L12.856303,43.8648904 Z M12.620456,45.27117 L13.0455087,45.27117 L13.0455087,44.8482353 L12.620456,44.8482353 L12.620456,45.27117 Z M12.620456,44.5671545 L13.0455087,44.5671545 L13.0455087,44.0986865 L12.620456,44.0986865 L12.620456,44.5671545 Z M11.9674765,46.3035508 L11.7316295,46.3035508 L11.7316295,45.4112725 L11.3083369,45.4112725 C11.2141741,45.4112725 11.1191313,45.27117 11.2141741,45.1310674 L12.1100408,44.0505263 C12.1100408,44.0505263 11.7316295,43.8167301 11.7316295,43.2536929 L11.7316295,42.7388159 L11.9674765,42.7388159 L11.9674765,43.2536929 C11.9674765,43.4419557 12.015878,43.6302186 12.1566822,43.7703211 C12.250845,43.8648904 12.3916492,43.9568327 12.3916492,43.9568327 L12.3916492,45.27117 C12.3916492,45.3175789 12.3458878,45.4112725 12.250845,45.4112725 L11.9674765,45.4112725 L11.9674765,46.3035508 Z M10.7979217,40.9043478 L10.5647147,40.9043478 L10.5647147,40.0129452 L10.2804663,40.0129452 C10.1863035,40.0129452 10.1396621,39.918376 10.1396621,39.8728426 L10.1396621,38.5576297 C10.1396621,38.5576297 10.2804663,38.4656874 10.3755091,38.3719938 C10.5163133,38.2318912 10.5647147,38.0427527 10.5647147,37.8544899 L10.5647147,37.3396129 L10.7979217,37.3396129 L10.7979217,37.8544899 C10.7979217,38.4175271 10.4221505,38.6521989 10.4221505,38.6521989 L11.3180172,39.7318644 C11.41306,39.8728426 11.3180172,40.0129452 11.2229744,40.0129452 L10.7979217,40.0129452 L10.7979217,40.9043478 Z M9.71460942,40.8588145 C9.33883823,40.8588145 9.00794837,40.5759824 9.00794837,40.201208 L10.3755091,40.201208 C10.3755091,40.5759824 10.0912606,40.8588145 9.71460942,40.8588145 L9.71460942,40.8588145 Z M9.47964242,39.8728426 L9.90469508,39.8728426 L9.90469508,39.449908 L9.47964242,39.449908 L9.47964242,39.8728426 Z M9.47964242,39.1688272 L9.90469508,39.1688272 L9.90469508,38.7003592 L9.47964242,38.7003592 L9.47964242,39.1688272 Z M9.62220667,35.7030397 L10.1079811,34.4806448 C10.1282217,34.4211012 10.2206245,34.3449204 10.3341479,34.3930806 C10.4538314,34.4438678 10.4652718,34.5244268 10.4423911,34.6049858 L10.001498,35.7030397 L9.62220667,35.7030397 Z M9.71460942,37.2940796 C10.0454993,37.2940796 10.2804663,37.5261245 10.2804663,37.8544899 C10.2804663,38.1828553 10.0454993,38.4656874 9.71460942,38.4656874 C9.38459959,38.4656874 9.1029912,38.1828553 9.1029912,37.8544899 C9.1029912,37.5261245 9.38459959,37.2940796 9.71460942,37.2940796 L9.71460942,37.2940796 Z M8.82578294,40.9043478 L8.58993591,40.9043478 L8.58993591,40.0129452 L8.16752333,40.0129452 C8.0724805,40.0129452 7.97831769,39.8728426 8.0724805,39.7318644 L8.96922721,38.6521989 C8.96922721,38.6521989 8.58993591,38.4175271 8.58993591,37.8544899 L8.58993591,37.3396129 L8.82578294,37.3396129 L8.82578294,37.8544899 C8.82578294,38.0427527 8.87418438,38.2318912 9.01498858,38.3719938 C9.11003141,38.4656874 9.2508356,38.5576297 9.2508356,38.5576297 L9.2508356,39.8728426 C9.2508356,39.918376 9.20419421,40.0129452 9.11003141,40.0129452 L8.82578294,40.0129452 L8.82578294,40.9043478 Z M8.28280676,43.6459801 L7.8577541,43.6459801 L7.8577541,44.5382584 L7.62190707,44.5382584 L7.62190707,43.6459801 L7.33853863,43.6459801 C7.24613588,43.6459801 7.19773444,43.5522865 7.19773444,43.5058775 L7.19773444,42.1915402 C7.19773444,42.1915402 7.33853863,42.0995979 7.43270144,42.0050287 C7.57614571,41.8631748 7.62190707,41.6766633 7.62190707,41.4884004 L7.62190707,40.9735235 L7.8577541,40.9735235 L7.8577541,41.4884004 C7.8577541,42.0514377 7.48110288,42.2861095 7.48110288,42.2861095 L8.3778496,43.3657749 C8.47025235,43.5058775 8.3778496,43.6459801 8.28280676,43.6459801 L8.28280676,43.6459801 Z M6.77444183,44.4900981 C6.39603055,44.4900981 6.06514069,44.2090173 6.06514069,43.8351186 L7.43270144,43.8351186 C7.43270144,44.2090173 7.15109305,44.4900981 6.77444183,44.4900981 L6.77444183,44.4900981 Z M6.53947483,43.5058775 L6.96188741,43.5058775 L6.96188741,43.0829429 L6.53947483,43.0829429 L6.53947483,43.5058775 Z M6.5385948,42.8027377 L6.96100738,42.8027377 L6.96100738,42.3342697 L6.5385948,42.3342697 L6.5385948,42.8027377 Z M7.07717085,35.7082936 L8.55561489,33.7704998 C8.59697612,33.7293447 8.68233867,33.6444075 8.80994247,33.731096 C8.93666624,33.8186601 8.90234522,33.8992191 8.84866362,33.9797781 L7.53478448,35.7126718 L7.07717085,35.7082936 Z M7.34029868,41.4884004 C7.34029868,41.8167658 7.10269161,42.0995979 6.77444183,42.0995979 C6.44443199,42.0995979 6.16018353,41.8167658 6.16018353,41.4884004 C6.16018353,41.1591594 6.44443199,40.9253632 6.77444183,40.9253632 C7.10269161,40.9253632 7.34029868,41.1591594 7.34029868,41.4884004 L7.34029868,41.4884004 Z M5.88561535,44.5382584 L5.64976832,44.5382584 L5.64976832,43.6459801 L5.22471566,43.6459801 C5.12967283,43.6459801 5.03727007,43.5058775 5.12967283,43.3657749 L6.02641954,42.2861095 C6.02641954,42.2861095 5.64976832,42.0514377 5.64976832,41.4884004 L5.64976832,40.9735235 L5.88561535,40.9735235 L5.88561535,41.4884004 C5.88561535,41.6766633 5.93137671,41.8631748 6.07482098,42.0050287 C6.16986381,42.0995979 6.31066801,42.1915402 6.31066801,42.1915402 L6.31066801,43.5058775 C6.31066801,43.5522865 6.26138654,43.6459801 6.16986381,43.6459801 L5.88561535,43.6459801 L5.88561535,44.5382584 Z M4.93166693,40.9043478 L4.6958199,40.9043478 L4.6958199,40.0129452 L4.41157143,40.0129452 C4.3165286,40.0129452 4.27076724,39.918376 4.27076724,39.8728426 L4.27076724,38.5576297 C4.27076724,38.5576297 4.41157143,38.4656874 4.50661426,38.3719938 C4.64741846,38.2318912 4.6958199,38.0427527 4.6958199,37.8544899 L4.6958199,37.3396129 L4.93166693,37.3396129 L4.93166693,37.8544899 C4.93166693,38.4175271 4.55237563,38.6521989 4.55237563,38.6521989 L5.44912234,39.7318644 C5.54328515,39.8728426 5.44912234,40.0129452 5.35407951,40.0129452 L4.93166693,40.0129452 L4.93166693,40.9043478 Z M3.84571457,40.8588145 C3.46906335,40.8588145 3.13905352,40.5759824 3.13905352,40.201208 L4.50661426,40.201208 C4.50661426,40.5759824 4.22412585,40.8588145 3.84571457,40.8588145 L3.84571457,40.8588145 Z M3.84571457,38.4656874 C3.51570474,38.4656874 3.23409635,38.1828553 3.23409635,37.8544899 C3.23409635,37.5261245 3.51570474,37.2940796 3.84571457,37.2940796 C4.1757244,37.2940796 4.41157143,37.5261245 4.41157143,37.8544899 C4.41157143,38.1828553 4.1757244,38.4656874 3.84571457,38.4656874 L3.84571457,38.4656874 Z M3.60986755,39.8728426 L4.03492021,39.8728426 L4.03492021,39.449908 L3.60986755,39.449908 L3.60986755,39.8728426 Z M3.60986755,39.1688272 L4.03492021,39.1688272 L4.03492021,38.7003592 L3.60986755,38.7003592 L3.60986755,39.1688272 Z M2.95864815,40.9043478 L2.72280112,40.9043478 L2.72280112,40.0129452 L2.29774846,40.0129452 C2.20358565,40.0129452 2.10854282,39.8728426 2.20358565,39.7318644 L3.09945234,38.6521989 C3.09945234,38.6521989 2.72280112,38.4175271 2.72280112,37.8544899 L2.72280112,37.3396129 L2.95864815,37.3396129 L2.95864815,37.8544899 C2.95864815,38.0427527 3.00528953,38.2318912 3.14609373,38.3719938 C3.24025653,38.4656874 3.38106073,38.5576297 3.38106073,38.5576297 L3.38106073,39.8728426 C3.38106073,39.918376 3.33529937,40.0129452 3.24025653,40.0129452 L2.95864815,40.0129452 L2.95864815,40.9043478 Z M0,48.39896 L25.5832422,48.39896 L25.5832422,23.0141246 L0,23.0141246 L0,48.39896 Z" id="Fill-31" fill="#EC1C24"></path>
                    <polygon id="Fill-33" fill="#EC1C24" points="358.745064 21.4221216 356.398914 21.4221216 356.398914 11.8680016 366 11.8680016 366 14.2033364 358.745064 14.2033364"></polygon>
                    <g id="Group-37" transform="translate(344.570394, 0.000000)">
                        <mask id="mask-6" fill="white">
                            <use xlink:href="#path-5"></use>
                        </mask>
                        <g id="Clip-36"></g>
                        <polygon id="Fill-35" fill="#EC1C24" mask="url(#mask-6)" points="9.60196607 9.55298165 0 9.55298165 0 7.21852249 7.25581617 7.21852249 7.25581617 -0.000262692328 9.60196607 -0.000262692328"></polygon>
                    </g>
                </g>
            </g>
        </g>
    </g>
</svg>