<?xml version="1.0" encoding="UTF-8"?>
<svg width="29px" height="29px" viewBox="0 0 29 29" version="1.1" xmlns="http://www.w3.org/2000/svg" xmlns:xlink="http://www.w3.org/1999/xlink">
    <!-- Generator: Sketch 48.2 (47327) - http://www.bohemiancoding.com/sketch -->
    <title>Group 5</title>
    <desc>Created with Sketch.</desc>
    <defs>
        <polygon id="path-1" points="0 0.448276563 28.5522672 0.448276563 28.5522672 29 0 29"></polygon>
    </defs>
    <g id="Artboard" stroke="none" stroke-width="1" fill="none" fill-rule="evenodd" transform="translate(-661.000000, -62.000000)">
        <g id="Group-5" transform="translate(661.000000, 62.000000)">
            <g id="Page-1">
                <polygon id="Fill-1" fill="#E20714" points="13.0636391 15.9018328 13.0495922 4.63623906 14.8620922 4.63352031 14.8734203 14.0875203 24.3283266 14.0761922 24.3301391 15.8886922"></polygon>
                <g id="Group-4" transform="translate(0.000000, 0.004848)">
                    <mask id="mask-2" fill="white">
                        <use xlink:href="#path-1"></use>
                    </mask>
                    <g id="Clip-3"></g>
                    <path d="M14.2761109,2.26077656 C7.40356406,2.26077656 1.81245469,7.85188594 1.81245469,14.7239797 C1.81245469,21.5965266 7.40356406,27.1876359 14.2761109,27.1876359 C21.1486578,27.1876359 26.7397672,21.5965266 26.7397672,14.7239797 C26.7397672,7.85188594 21.1486578,2.26077656 14.2761109,2.26077656 M14.2761109,29.0001359 C6.40442344,29.0001359 -4.53125e-05,22.5956672 -4.53125e-05,14.7239797 C-4.53125e-05,6.85229219 6.40442344,0.448276563 14.2761109,0.448276563 C22.1477984,0.448276563 28.5522672,6.85229219 28.5522672,14.7239797 C28.5522672,22.5956672 22.1477984,29.0001359 14.2761109,29.0001359" id="Fill-2" fill="#0F0C0D" mask="url(#mask-2)"></path>
                </g>
            </g>
        </g>
    </g>
</svg>