<?xml version="1.0" encoding="UTF-8"?> <svg xmlns="http://www.w3.org/2000/svg" width="151" height="40" viewBox="0 0 151 40" fill="none"> <path d="M86.0642 16.8739H80.9467V17.4147C82.5474 17.4147 82.8048 17.7565 82.8048 19.7786V23.4242C82.8048 25.4461 82.5477 25.8164 80.9467 25.8164C79.7178 25.6456 78.8884 24.9904 77.7449 23.7374L76.43 22.3135C78.2023 21.9999 79.1455 20.8895 79.1455 19.6362C79.1455 18.0702 77.8022 16.8739 75.2862 16.8739H70.2547V17.4147C71.8554 17.4147 72.1128 17.7565 72.1128 19.7786V23.4242C72.1128 25.4461 71.8554 25.8164 70.2547 25.8164V26.3574H75.9437V25.8164C74.343 25.8164 74.0856 25.4461 74.0856 23.4242V22.3992H74.5714L77.7449 26.3574H86.0642C90.1522 26.3574 91.9248 24.1933 91.9248 21.6013C91.9248 19.0098 90.1524 16.8739 86.0642 16.8739ZM74.0859 21.5157V17.7284H75.2578C76.5441 17.7284 77.1161 18.6112 77.1161 19.6364C77.1161 20.6334 76.5441 21.5159 75.2578 21.5159L74.0859 21.5157ZM86.1501 25.4746H85.9498C84.9209 25.4746 84.7779 25.2185 84.7779 23.9083V17.7284H86.1501C89.1233 17.7284 89.6661 19.8926 89.6661 21.573C89.6661 23.31 89.123 25.4746 86.1501 25.4746ZM54.3317 22.5699L56.3043 16.7598C56.8763 15.0796 56.619 14.5956 54.7893 14.5956V14.0258H60.1639V14.5956C58.3629 14.5956 57.9341 15.0228 57.2194 17.1018L53.96 26.8416H53.5885L50.6722 17.9275L47.6993 26.8416H47.3276L44.1544 17.1018C43.4683 15.0228 43.0109 14.5956 41.3526 14.5956V14.0258H47.6993V14.5956C46.0124 14.5956 45.5548 14.9942 46.1554 16.7598L48.0707 22.5699L50.9582 14.0258H51.5015L54.3317 22.5699ZM64.0513 26.7274C60.9068 26.7274 58.3338 24.4208 58.3338 21.601C58.3338 18.8102 60.907 16.5032 64.0513 16.5032C67.1961 16.5032 69.7689 18.8102 69.7689 21.601C69.7689 24.4208 67.1961 26.7274 64.0513 26.7274ZM64.0513 17.3867C61.4215 17.3867 60.5064 19.7501 60.5064 21.6013C60.5064 23.4812 61.4215 25.8164 64.0513 25.8164C66.7103 25.8164 67.6251 23.4812 67.6251 21.6013C67.6251 19.7501 66.7103 17.3867 64.0513 17.3867Z" fill="#0050AB"></path> <path d="M98.9859 25.7879V26.3574H92.4392V25.7879C94.3548 25.7879 94.6978 25.3039 94.6978 22.4556V17.8992C94.6978 15.0508 94.3548 14.5954 92.4392 14.5954V14.0256H98.3568C101.301 14.0256 102.931 15.535 102.931 17.5575C102.931 19.5225 101.301 21.0603 98.3568 21.0603H96.7273V22.4553C96.7273 25.3039 97.0703 25.7879 98.9859 25.7879ZM98.3568 15.0508H96.7273V20.0065H98.3568C99.958 20.0065 100.701 18.8959 100.701 17.5575C100.701 16.1905 99.958 15.0508 98.3568 15.0508ZM122.571 23.6806L122.428 24.1931C122.171 25.1329 121.856 25.4747 119.826 25.4747H119.426C117.94 25.4747 117.682 25.1329 117.682 23.111V21.8011C119.912 21.8011 120.084 22.0001 120.084 23.4813H120.627V19.2376H120.084C120.084 20.7185 119.912 20.9178 117.682 20.9178V17.7284H119.254C121.284 17.7284 121.599 18.0702 121.856 19.01L121.999 19.5508H122.456L122.257 16.874H113.851V17.4148C115.452 17.4148 115.71 17.7565 115.71 19.7787V23.4242C115.71 25.2739 115.491 25.7399 114.229 25.8063C113.029 25.6238 112.206 24.972 111.079 23.7374L109.764 22.3136C111.536 21.9999 112.48 20.8895 112.48 19.6362C112.48 18.0702 111.136 16.874 108.62 16.874H103.589V17.4148C105.19 17.4148 105.447 17.7565 105.447 19.7787V23.4242C105.447 25.4461 105.19 25.8164 103.589 25.8164V26.3574H109.278V25.8164C107.677 25.8164 107.42 25.4461 107.42 23.4242V22.3992H107.906L111.079 26.3574H122.829L123 23.6808L122.571 23.6806ZM107.42 21.5157V17.7284H108.591C109.878 17.7284 110.45 18.6112 110.45 19.6365C110.45 20.6334 109.878 21.5159 108.591 21.5159L107.42 21.5157ZM128.374 26.7275C127.231 26.7275 126.23 26.1296 125.801 25.7591C125.658 25.9018 125.401 26.3289 125.344 26.7275H124.801V22.7978H125.373C125.601 24.6773 126.916 25.7879 128.603 25.7879C129.518 25.7879 130.261 25.2754 130.261 24.4211C130.261 23.6808 129.604 23.111 128.432 22.5699L126.802 21.8011C125.658 21.2596 124.801 20.3197 124.801 19.0669C124.801 17.6999 126.087 16.5325 127.86 16.5325C128.803 16.5325 129.604 16.8742 130.09 17.2728C130.233 17.1589 130.376 16.8454 130.462 16.5034H131.005V19.8643H130.404C130.204 18.5256 129.461 17.415 127.946 17.415C127.145 17.415 126.402 17.8707 126.402 18.5829C126.402 19.3233 127.002 19.7218 128.375 20.3485L129.947 21.1174C131.319 21.7723 131.862 22.8266 131.862 23.6808C131.862 25.4747 130.29 26.7275 128.374 26.7275ZM137.179 26.7275C136.036 26.7275 135.035 26.1296 134.606 25.7591C134.463 25.9018 134.206 26.3289 134.149 26.7275H133.606V22.7978H134.178C134.406 24.6773 135.721 25.7879 137.408 25.7879C138.323 25.7879 139.066 25.2754 139.066 24.4211C139.066 23.6808 138.409 23.111 137.236 22.5699L135.607 21.8011C134.463 21.2596 133.606 20.3197 133.606 19.0669C133.606 17.6999 134.892 16.5325 136.665 16.5325C137.608 16.5325 138.408 16.8742 138.895 17.2728C139.037 17.1589 139.18 16.8454 139.266 16.5034H139.809V19.8643H139.209C139.009 18.5256 138.266 17.415 136.751 17.415C135.95 17.415 135.206 17.8707 135.206 18.5829C135.206 19.3233 135.807 19.7218 137.179 20.3485L138.751 21.1174C140.124 21.7723 140.667 22.8266 140.667 23.6808C140.667 25.4747 139.094 26.7275 137.179 26.7275Z" fill="#0050AB"></path> <path d="M12.7631 19.9995C12.7631 24.9883 15.6734 29.2996 19.8936 31.3426L13.8585 14.8703C13.135 16.4842 12.7618 18.232 12.7631 19.9995ZM33.956 19.3635C33.956 17.8059 33.3944 16.7272 32.9126 15.8876C32.2713 14.8494 31.6702 13.9702 31.6702 12.932C31.6702 11.7734 32.5522 10.695 33.7947 10.695C33.8508 10.695 33.904 10.7019 33.9586 10.705C31.7077 8.65074 28.7088 7.39648 25.415 7.39648C20.995 7.39648 17.1063 9.65559 14.8441 13.0774C15.1409 13.0862 15.4207 13.0925 15.6583 13.0925C16.9816 13.0925 19.0301 12.9325 19.0301 12.9325C19.7121 12.8925 19.7925 13.8903 19.1112 13.9707C19.1112 13.9707 18.4258 14.051 17.6632 14.0908L22.2705 27.7426L25.0392 19.4705L23.068 14.0904C22.3867 14.0505 21.7413 13.9702 21.7413 13.9702C21.0595 13.9304 21.1395 12.892 21.8212 12.932C21.8212 12.932 23.9106 13.092 25.1538 13.092C26.4769 13.092 28.5256 12.932 28.5256 12.932C29.2081 12.892 29.2883 13.8899 28.6067 13.9702C28.6067 13.9702 27.9199 14.0505 27.1587 14.0904L31.7308 27.6388L32.9928 23.4379C33.5398 21.6946 33.956 20.4425 33.956 19.3635Z" fill="#0050AB"></path> <path d="M25.637 21.102L21.841 32.0903C23.0016 32.4309 24.2052 32.6038 25.415 32.6038C26.8884 32.6038 28.3013 32.3501 29.6164 31.8894C29.5813 31.8343 29.5512 31.7762 29.5264 31.7157L25.637 21.102ZM36.5165 13.9527C36.5709 14.3542 36.6018 14.7851 36.6018 15.2487C36.6018 16.5277 36.362 17.9654 35.6398 19.7631L31.7752 30.8939C35.5365 28.7089 38.0664 24.6494 38.0664 19.9998C38.0667 17.8085 37.5048 15.748 36.5165 13.9527Z" fill="#0050AB"></path> <path d="M25.415 5.30811C17.283 5.30811 10.6667 11.8986 10.6667 19.9995C10.6667 28.1014 17.283 34.6917 25.415 34.6917C33.5467 34.6917 40.164 28.1014 40.164 19.9995C40.1637 11.8986 33.5467 5.30811 25.415 5.30811ZM25.415 34.0182C17.6559 34.0182 11.343 27.7294 11.343 19.9995C11.343 12.2701 17.6557 5.98176 25.415 5.98176C33.1738 5.98176 39.4863 12.2701 39.4863 19.9995C39.4863 27.7294 33.1738 34.0182 25.415 34.0182Z" fill="#0050AB"></path> </svg> 