<?xml version="1.0" encoding="UTF-8"?> <svg xmlns="http://www.w3.org/2000/svg" width="151" height="40" viewBox="0 0 151 40" fill="none"> <path d="M17.4286 30.1651C16.1051 29.5824 15.2058 28.327 15.0878 26.8892C15.1652 25.4103 15.9491 24.0586 17.1939 23.2523C16.9896 23.7489 17.0392 24.3143 17.3229 24.7685C17.6458 25.2182 18.2015 25.4341 18.7456 25.3217C19.5205 25.1045 19.9743 24.3027 19.7564 23.5299C19.6791 23.2594 19.5244 23.014 19.3129 22.829C18.4362 22.1184 17.9959 21.0018 18.1525 19.8859C18.3027 19.2948 18.6309 18.7603 19.0944 18.3569C18.7463 19.282 19.7281 20.1949 20.3869 20.644C21.5563 21.343 22.6819 22.1113 23.7598 22.9446C24.9376 23.8697 25.5796 25.3178 25.4791 26.7993C25.2141 28.3759 24.095 29.6775 22.5697 30.1657C25.6209 29.4892 28.7668 27.0736 28.8268 23.6474C28.7668 20.9061 27.1249 18.4462 24.6152 17.3257H24.5037C24.5591 17.46 24.5862 17.6046 24.5811 17.7504C24.5894 17.656 24.5894 17.5622 24.5811 17.4677C24.5946 17.5789 24.5946 17.6906 24.5811 17.8018C24.3902 18.5811 23.6012 19.061 22.8173 18.8708C22.504 18.7937 22.2242 18.6183 22.0231 18.3652C21.0174 17.0803 22.0231 15.6181 22.1913 14.2047C22.2945 12.3975 21.4661 10.67 19.9963 9.61377C20.7318 10.8357 19.7519 12.4405 19.0396 13.3535C18.3259 14.2664 17.2945 14.9467 16.4539 15.7434C15.5481 16.5831 14.7178 17.5063 13.9726 18.4931C12.3616 20.4545 11.7292 23.0416 12.2533 25.5215C12.9721 27.9114 14.9653 29.707 17.4234 30.1728H17.437L17.4286 30.1651Z" fill="#0050AB"></path> <path d="M38.3516 19.8987C38.3516 19.1312 38.484 18.3697 38.7487 17.6142C39.0255 16.8467 39.4226 16.1631 39.94 15.5635C40.4575 14.9639 41.0953 14.4782 41.8534 14.1064C42.6115 13.7227 43.4719 13.5308 44.4346 13.5308C45.5778 13.5308 46.5525 13.7886 47.3588 14.3043C48.1771 14.82 48.7787 15.4915 49.1638 16.319L48.171 16.9306C47.9665 16.5109 47.7138 16.1571 47.4129 15.8693C47.1241 15.5815 46.8112 15.3476 46.4743 15.1677C46.1374 14.9879 45.7884 14.8619 45.4274 14.79C45.0664 14.706 44.7114 14.6641 44.3624 14.6641C43.5922 14.6641 42.9123 14.82 42.3227 15.1318C41.7331 15.4436 41.2337 15.8513 40.8245 16.355C40.4274 16.8587 40.1266 17.4283 39.922 18.0639C39.7174 18.6875 39.6151 19.3231 39.6151 19.9707C39.6151 20.6783 39.7355 21.3558 39.9761 22.0034C40.2289 22.651 40.5658 23.2266 40.987 23.7303C41.4202 24.222 41.9256 24.6178 42.5032 24.9176C43.0928 25.2054 43.7306 25.3493 44.4166 25.3493C44.7776 25.3493 45.1446 25.3073 45.5176 25.2234C45.9027 25.1274 46.2697 24.9835 46.6187 24.7916C46.9797 24.5878 47.3106 24.3419 47.6115 24.0541C47.9123 23.7543 48.165 23.3945 48.3696 22.9748L49.4165 23.5145C49.2119 23.9941 48.9231 24.4199 48.5501 24.7916C48.1771 25.1514 47.7619 25.4572 47.3046 25.7091C46.8473 25.9609 46.36 26.1528 45.8425 26.2847C45.3371 26.4166 44.8377 26.4826 44.3443 26.4826C43.4659 26.4826 42.6596 26.2907 41.9256 25.9069C41.1915 25.5232 40.5598 25.0255 40.0303 24.4139C39.5008 23.7903 39.0857 23.0887 38.7848 22.3092C38.496 21.5177 38.3516 20.7142 38.3516 19.8987ZM55.3371 26.5545C54.6511 26.5545 54.0254 26.4286 53.4598 26.1768C52.8942 25.9129 52.4009 25.5592 51.9797 25.1154C51.5705 24.6717 51.2516 24.156 51.023 23.5684C50.7944 22.9808 50.68 22.3632 50.68 21.7156C50.68 21.056 50.7944 20.4324 51.023 19.8448C51.2637 19.2572 51.5886 18.7415 51.9977 18.2978C52.4189 17.854 52.9123 17.5003 53.4779 17.2364C54.0435 16.9726 54.6632 16.8407 55.3371 16.8407C56.0109 16.8407 56.6307 16.9726 57.1963 17.2364C57.7739 17.5003 58.2672 17.854 58.6764 18.2978C59.0976 18.7415 59.4225 19.2572 59.6511 19.8448C59.8918 20.4324 60.0121 21.056 60.0121 21.7156C60.0121 22.3632 59.8978 22.9808 59.6692 23.5684C59.4405 24.156 59.1156 24.6717 58.6944 25.1154C58.2853 25.5592 57.7919 25.9129 57.2143 26.1768C56.6487 26.4286 56.023 26.5545 55.3371 26.5545ZM51.9255 21.7336C51.9255 22.2612 52.0158 22.7529 52.1963 23.2086C52.3768 23.6524 52.6175 24.0481 52.9183 24.3959C53.2312 24.7317 53.5922 24.9955 54.0013 25.1874C54.4225 25.3793 54.8677 25.4752 55.3371 25.4752C55.8064 25.4752 56.2456 25.3793 56.6547 25.1874C57.0759 24.9835 57.4429 24.7137 57.7558 24.3779C58.0687 24.0301 58.3154 23.6284 58.4959 23.1727C58.6764 22.717 58.7666 22.2253 58.7666 21.6976C58.7666 21.1819 58.6764 20.6962 58.4959 20.2405C58.3154 19.7728 58.0687 19.3711 57.7558 19.0353C57.4429 18.6875 57.0759 18.4177 56.6547 18.2258C56.2456 18.0219 55.8064 17.92 55.3371 17.92C54.8677 17.92 54.4285 18.0219 54.0194 18.2258C53.6102 18.4177 53.2492 18.6875 52.9364 19.0353C52.6235 19.3831 52.3768 19.7908 52.1963 20.2585C52.0158 20.7142 51.9255 21.2059 51.9255 21.7336ZM65.9327 26.5545C65.2828 26.5545 64.6812 26.4226 64.1276 26.1588C63.5741 25.883 63.0987 25.5232 62.7016 25.0795C62.3045 24.6357 61.9917 24.1261 61.763 23.5504C61.5464 22.9628 61.4381 22.3512 61.4381 21.7156C61.4381 21.056 61.5464 20.4324 61.763 19.8448C61.9796 19.2452 62.2744 18.7235 62.6475 18.2798C63.0326 17.8361 63.4838 17.4883 64.0013 17.2364C64.5308 16.9726 65.1084 16.8407 65.7341 16.8407C66.5283 16.8407 67.2323 17.0506 67.846 17.4703C68.4597 17.878 68.9411 18.3757 69.29 18.9633V13.243H70.5175V24.7916C70.5175 25.1274 70.6619 25.2953 70.9507 25.2953V26.3746C70.7702 26.4106 70.6258 26.4286 70.5175 26.4286C70.2287 26.4286 69.976 26.3387 69.7594 26.1588C69.5428 25.9669 69.4345 25.739 69.4345 25.4752V24.5578C69.0614 25.1694 68.556 25.6551 67.9182 26.0149C67.2804 26.3746 66.6186 26.5545 65.9327 26.5545ZM66.2034 25.4752C66.5043 25.4752 66.8232 25.4152 67.1601 25.2953C67.5091 25.1754 67.834 25.0135 68.1348 24.8096C68.4357 24.5938 68.6884 24.3479 68.8929 24.0721C69.1095 23.7843 69.2419 23.4785 69.29 23.1547V20.2585C69.1697 19.9347 68.9952 19.6349 68.7666 19.3591C68.5379 19.0713 68.2732 18.8194 67.9724 18.6036C67.6836 18.3877 67.3707 18.2198 67.0337 18.0999C66.6968 17.98 66.3659 17.92 66.041 17.92C65.5356 17.92 65.0783 18.0279 64.6691 18.2438C64.26 18.4597 63.905 18.7475 63.6042 19.1072C63.3154 19.455 63.0927 19.8568 62.9363 20.3125C62.7799 20.7682 62.7016 21.2359 62.7016 21.7156C62.7016 22.2193 62.7919 22.699 62.9724 23.1547C63.1529 23.6104 63.3996 24.0121 63.7125 24.3599C64.0253 24.6957 64.3924 24.9655 64.8135 25.1694C65.2467 25.3733 65.71 25.4752 66.2034 25.4752ZM77.3586 26.5545C76.6727 26.5545 76.0409 26.4286 75.4633 26.1768C74.8977 25.9129 74.4043 25.5592 73.9832 25.1154C73.562 24.6597 73.2311 24.1381 72.9904 23.5504C72.7618 22.9628 72.6474 22.3332 72.6474 21.6616C72.6474 21.002 72.7618 20.3844 72.9904 19.8088C73.2311 19.2212 73.556 18.7115 73.9651 18.2798C74.3863 17.8361 74.8857 17.4883 75.4633 17.2364C76.0409 16.9726 76.6667 16.8407 77.3405 16.8407C78.0265 16.8407 78.6522 16.9726 79.2178 17.2364C79.7954 17.4883 80.2888 17.8361 80.6979 18.2798C81.1071 18.7235 81.4259 19.2332 81.6546 19.8088C81.8832 20.3844 81.9976 20.996 81.9976 21.6436C81.9976 21.7396 81.9976 21.8355 81.9976 21.9315C81.9976 22.0274 81.9915 22.0934 81.9795 22.1293H73.929C73.9651 22.633 74.0794 23.1007 74.272 23.5324C74.4765 23.9522 74.7353 24.3179 75.0481 24.6297C75.361 24.9415 75.716 25.1874 76.1131 25.3673C76.5223 25.5352 76.9555 25.6191 77.4127 25.6191C77.7136 25.6191 78.0144 25.5771 78.3153 25.4932C78.6161 25.4093 78.8929 25.2953 79.1456 25.1514C79.3983 25.0075 79.6269 24.8336 79.8315 24.6297C80.0361 24.4139 80.1925 24.18 80.3008 23.9282L81.3658 24.216C81.2214 24.5638 81.0168 24.8816 80.7521 25.1694C80.4873 25.4452 80.1805 25.6911 79.8315 25.9069C79.4825 26.1108 79.0974 26.2727 78.6763 26.3926C78.2551 26.5006 77.8159 26.5545 77.3586 26.5545ZM73.911 21.1939H80.8243C80.7882 20.6902 80.6678 20.2345 80.4633 19.8268C80.2707 19.4071 80.018 19.0473 79.7051 18.7475C79.4043 18.4477 79.0493 18.2138 78.6402 18.0459C78.2431 17.878 77.8159 17.7941 77.3586 17.7941C76.9013 17.7941 76.4681 17.878 76.059 18.0459C75.6498 18.2138 75.2888 18.4477 74.9759 18.7475C74.6751 19.0473 74.4284 19.4071 74.2359 19.8268C74.0554 20.2465 73.9471 20.7022 73.911 21.1939ZM86.3658 26.3746H83.8748V13.6027H86.3658V26.3746ZM92.3946 26.4286C91.7568 26.4286 91.1792 26.3027 90.6618 26.0508C90.1443 25.799 89.6931 25.4572 89.308 25.0255C88.9349 24.5818 88.6461 24.0721 88.4416 23.4965C88.237 22.9208 88.1347 22.3092 88.1347 21.6616C88.1347 20.9781 88.243 20.3425 88.4596 19.7548C88.6762 19.1672 88.9771 18.6515 89.3621 18.2078C89.7472 17.7641 90.2105 17.4163 90.752 17.1645C91.2935 16.9126 91.8892 16.7867 92.539 16.7867C93.2731 16.7867 93.9169 16.9546 94.4704 17.2904C95.0239 17.6142 95.4812 18.0519 95.8422 18.6036V16.9486H97.9541V25.9249C97.9541 26.6205 97.8218 27.2441 97.557 27.7957C97.2923 28.3474 96.9253 28.8151 96.4559 29.1988C95.9987 29.5826 95.4451 29.8764 94.7953 30.0803C94.1575 30.2842 93.4596 30.3861 92.7015 30.3861C91.6666 30.3861 90.7941 30.2182 90.0841 29.8824C89.3862 29.5346 88.7845 29.0489 88.2791 28.4253L89.5968 27.1481C89.9578 27.5919 90.4091 27.9396 90.9506 28.1915C91.5041 28.4433 92.0877 28.5692 92.7015 28.5692C93.0745 28.5692 93.4295 28.5213 93.7664 28.4253C94.1154 28.3174 94.4223 28.1555 94.687 27.9396C94.9518 27.7238 95.1563 27.448 95.3007 27.1122C95.4572 26.7764 95.5354 26.3806 95.5354 25.9249V24.7377C95.2225 25.2773 94.7833 25.6971 94.2177 25.9969C93.6521 26.2847 93.0444 26.4286 92.3946 26.4286ZM93.2069 24.5038C93.4716 24.5038 93.7243 24.4619 93.965 24.3779C94.2057 24.294 94.4283 24.18 94.6329 24.0361C94.8374 23.8922 95.0179 23.7243 95.1744 23.5324C95.3308 23.3406 95.4511 23.1367 95.5354 22.9208V20.6723C95.3188 20.1206 94.9758 19.6769 94.5065 19.3411C94.0492 19.0053 93.5679 18.8374 93.0625 18.8374C92.6894 18.8374 92.3525 18.9214 92.0516 19.0893C91.7508 19.2452 91.4921 19.461 91.2755 19.7368C91.0589 20.0007 90.8904 20.3065 90.7701 20.6543C90.6618 21.002 90.6076 21.3618 90.6076 21.7336C90.6076 22.1173 90.6738 22.4771 90.8062 22.8129C90.9385 23.1487 91.119 23.4425 91.3477 23.6943C91.5883 23.9462 91.8651 24.1441 92.178 24.288C92.4909 24.4319 92.8338 24.5038 93.2069 24.5038ZM108.929 20.4924V26.3746H106.51V21.086C106.51 20.3305 106.378 19.7788 106.113 19.431C105.848 19.0833 105.481 18.9094 105.012 18.9094C104.771 18.9094 104.524 18.9573 104.272 19.0533C104.019 19.1492 103.778 19.2871 103.55 19.467C103.333 19.6349 103.135 19.8388 102.954 20.0786C102.774 20.3185 102.641 20.5823 102.557 20.8701V26.3746H100.138V16.9486H102.322V18.6935C102.671 18.0939 103.177 17.6262 103.839 17.2904C104.5 16.9546 105.247 16.7867 106.077 16.7867C106.666 16.7867 107.148 16.8947 107.521 17.1105C107.894 17.3264 108.183 17.6082 108.387 17.956C108.592 18.3038 108.73 18.6995 108.802 19.1432C108.887 19.5869 108.929 20.0367 108.929 20.4924ZM113.459 26.3746H111.041V16.9486H113.459V26.3746ZM113.459 15.6355H111.041V13.243H113.459V15.6355ZM120.824 23.9822L121.311 25.8889C120.986 26.0329 120.589 26.1768 120.12 26.3207C119.651 26.4646 119.157 26.5365 118.64 26.5365C118.303 26.5365 117.984 26.4946 117.683 26.4106C117.394 26.3267 117.136 26.1948 116.907 26.0149C116.69 25.823 116.516 25.5831 116.384 25.2953C116.251 24.9955 116.185 24.6357 116.185 24.216V18.8014H114.94V16.9486H116.185V13.8906H118.604V16.9486H120.589V18.8014H118.604V23.4065C118.604 23.7423 118.688 23.9822 118.857 24.1261C119.037 24.258 119.254 24.3239 119.506 24.3239C119.759 24.3239 120.006 24.282 120.246 24.198C120.487 24.1141 120.68 24.0421 120.824 23.9822ZM126.727 26.5545C125.968 26.5545 125.282 26.4286 124.669 26.1768C124.055 25.9129 123.532 25.5592 123.098 25.1154C122.665 24.6717 122.328 24.156 122.088 23.5684C121.859 22.9808 121.745 22.3632 121.745 21.7156C121.745 21.044 121.859 20.4144 122.088 19.8268C122.316 19.2272 122.647 18.7055 123.08 18.2618C123.514 17.8061 124.037 17.4463 124.651 17.1825C125.276 16.9186 125.974 16.7867 126.745 16.7867C127.515 16.7867 128.201 16.9186 128.802 17.1825C129.416 17.4463 129.933 17.8001 130.355 18.2438C130.788 18.6875 131.113 19.2032 131.329 19.7908C131.558 20.3784 131.672 20.9901 131.672 21.6257C131.672 21.7816 131.666 21.9315 131.654 22.0754C131.654 22.2193 131.642 22.3392 131.618 22.4351H124.308C124.344 22.8069 124.434 23.1367 124.579 23.4245C124.723 23.7123 124.909 23.9582 125.138 24.162C125.367 24.3659 125.625 24.5218 125.914 24.6297C126.203 24.7377 126.504 24.7916 126.817 24.7916C127.298 24.7916 127.749 24.6777 128.171 24.4499C128.604 24.21 128.899 23.8982 129.055 23.5145L131.131 24.0901C130.782 24.8096 130.222 25.4033 129.452 25.871C128.694 26.3267 127.785 26.5545 126.727 26.5545ZM124.272 20.8701H129.181C129.121 20.1626 128.856 19.5989 128.387 19.1792C127.93 18.7475 127.37 18.5316 126.708 18.5316C126.384 18.5316 126.077 18.5916 125.788 18.7115C125.511 18.8194 125.264 18.9753 125.048 19.1792C124.831 19.3831 124.651 19.6289 124.506 19.9167C124.374 20.2046 124.296 20.5224 124.272 20.8701ZM138.784 16.8407V19.0353C138.05 19.0473 137.394 19.1912 136.817 19.467C136.239 19.7309 135.824 20.1326 135.571 20.6723V26.3746H133.152V16.9486H135.373V18.9633C135.541 18.6395 135.74 18.3517 135.968 18.0999C136.197 17.8361 136.444 17.6082 136.708 17.4163C136.973 17.2244 137.238 17.0805 137.503 16.9846C137.779 16.8767 138.044 16.8227 138.297 16.8227C138.429 16.8227 138.526 16.8227 138.586 16.8227C138.658 16.8227 138.724 16.8287 138.784 16.8407Z" fill="#0050AB"></path> </svg> 