<?xml version="1.0" encoding="UTF-8"?> <svg xmlns="http://www.w3.org/2000/svg" width="150" height="40" viewBox="0 0 150 40" fill="none"> <path d="M66.046 13.3191V12.7055C66.046 12.5521 65.9671 12.3986 65.6517 12.3986C65.3364 12.3219 64.6268 12.3219 63.9961 12.3219C62.2615 12.3219 61.1577 12.9356 61.1577 14.8532V25.6684C61.1577 25.8985 61.3154 26.0519 61.5519 26.0519H62.4192C62.6557 26.0519 62.8134 25.8985 62.8134 25.6684V17.3077H65.7306C65.9671 17.3077 66.046 17.1543 66.046 17.0009V16.3872C66.046 16.1571 65.8883 16.0804 65.7306 16.0804H62.7346V14.8532C62.7346 13.7793 62.9711 13.6259 63.9961 13.6259H65.6517C65.8883 13.5492 66.046 13.4725 66.046 13.3191ZM71.9591 17.0009V16.1571C71.9591 15.927 71.8014 15.8503 71.5649 15.8503C69.9881 15.8503 68.7266 15.927 67.7016 16.3872C67.4651 16.4639 67.3863 16.6174 67.3863 16.7708V25.515C67.3863 25.7451 67.544 25.8985 67.7016 25.8985H68.6478C68.8843 25.8985 68.9631 25.7451 68.9631 25.515V17.4611C69.6727 17.3077 70.3034 17.3077 71.5649 17.3077C71.9591 17.3077 71.9591 17.231 71.9591 17.0009ZM80.0799 25.2849V16.7708C80.0799 16.5406 80.0011 16.4639 79.6857 16.3872C78.6607 16.1571 77.3993 16.0037 76.2166 16.0037C73.4571 16.0037 72.1168 17.7679 72.1168 20.4525V21.6798C72.1168 24.3644 73.3783 26.1286 76.2166 26.1286C77.3204 26.1286 78.6607 25.9752 79.6857 25.7451C80.0011 25.5917 80.0799 25.515 80.0799 25.2849ZM78.4242 24.5945C77.8723 24.6712 77.005 24.7479 76.2166 24.7479C74.4032 24.7479 73.7725 23.5207 73.7725 21.6031V20.3758C73.7725 18.4582 74.3244 17.231 76.2166 17.231C77.005 17.231 77.8723 17.3077 78.4242 17.3844V24.5945ZM93.562 25.5917V19.0719C93.562 17.231 92.4582 15.927 90.2506 15.927H89.8564C88.7526 15.927 87.9641 16.0804 87.4122 16.5406C86.8604 16.0037 86.0719 15.927 84.9681 15.927H84.5739C82.3663 15.927 81.2625 17.231 81.2625 19.0719V25.5917C81.2625 25.8218 81.4202 25.9752 81.5779 25.9752H82.524C82.7605 25.9752 82.8394 25.8218 82.8394 25.5917V19.0719C82.8394 17.5378 83.549 17.3077 84.4951 17.3077H84.8893C86.0719 17.3077 86.4661 17.5378 86.4661 18.5349V25.5917C86.4661 25.8218 86.6238 25.9752 86.7815 25.9752H87.7276C87.9641 25.9752 88.043 25.8218 88.043 25.5917V18.5349C88.043 17.5378 88.4372 17.3077 89.6198 17.3077H90.014C91.039 17.3077 91.6697 17.5378 91.6697 19.0719V25.5917C91.6697 25.8218 91.8274 25.9752 91.9851 25.9752H92.9312C93.4831 25.9752 93.562 25.8218 93.562 25.5917ZM102.708 21.1429V20.1457C102.708 17.6145 101.289 15.927 98.6079 15.927C95.9272 15.927 94.4292 17.5378 94.4292 20.1457V21.7565C94.4292 25.1315 96.4791 26.1286 98.6867 26.1286C99.9482 26.1286 100.973 26.0519 101.998 25.8218C102.313 25.7451 102.392 25.6684 102.392 25.4383V24.8246C102.392 24.6712 102.235 24.5945 102.077 24.5945H101.998C101.131 24.7479 99.7905 24.8246 98.6867 24.8246C96.9522 24.8246 96.0849 24.0576 96.0849 21.9099V21.5264H102.313C102.55 21.5264 102.708 21.373 102.708 21.1429ZM101.052 20.2991H96.0849V20.1457C96.0849 18.2281 96.9522 17.3077 98.6079 17.3077C100.264 17.3077 101.052 18.0747 101.052 20.1457V20.2991ZM116.269 22.0633V16.3872C116.269 16.1571 116.111 16.0037 115.874 16.0037H115.007C114.771 16.0037 114.613 16.1571 114.613 16.3872V22.0633C114.613 24.0576 113.824 24.7479 112.326 24.7479C111.853 24.7479 111.38 24.6712 110.828 24.5178V16.3872C110.828 16.1571 110.671 16.0037 110.434 16.0037H109.488C109.252 16.0037 109.094 16.1571 109.094 16.3872V24.5178C108.542 24.6712 108.069 24.7479 107.596 24.7479C106.019 24.7479 105.309 24.0576 105.309 22.0633V16.3872C105.309 16.1571 105.152 16.0037 104.915 16.0037H104.048C103.811 16.0037 103.654 16.1571 103.654 16.3872V22.0633C103.654 25.2849 105.467 26.1286 107.438 26.1286C108.384 26.1286 109.173 25.9752 109.882 25.6684C110.671 25.9752 111.38 26.1286 112.326 26.1286C114.455 26.1286 116.269 25.2849 116.269 22.0633ZM125.808 21.6798V20.2991C125.808 17.6145 124.389 15.927 121.63 15.927C118.87 15.927 117.451 17.6912 117.451 20.2991V21.6798C117.451 24.3644 118.87 26.0519 121.63 26.0519C124.389 26.1286 125.808 24.3644 125.808 21.6798ZM124.153 21.6798C124.153 23.5207 123.364 24.6712 121.63 24.6712C119.895 24.6712 119.107 23.5207 119.107 21.6798V20.2991C119.107 18.4582 119.895 17.3077 121.63 17.3077C123.364 17.3077 124.153 18.4582 124.153 20.2991V21.6798ZM131.643 17.0009V16.1571C131.643 15.927 131.485 15.8503 131.249 15.8503C129.672 15.8503 128.41 15.927 127.385 16.3872C127.149 16.4639 127.07 16.6174 127.07 16.7708V25.515C127.07 25.7451 127.228 25.8985 127.385 25.8985H128.331C128.568 25.8985 128.647 25.7451 128.647 25.515V17.4611C129.356 17.3077 129.987 17.3077 131.249 17.3077C131.643 17.3077 131.643 17.231 131.643 17.0009ZM140 25.7451C140 25.6684 140 25.5917 139.921 25.5917L135.743 20.7593L139.842 16.4639C139.921 16.3872 139.921 16.3105 139.921 16.2338C139.921 16.1571 139.842 16.0037 139.606 16.0037H138.423C138.266 16.0037 138.187 16.0037 138.029 16.1571L134.323 20.2224V12.7822C134.323 12.5521 134.166 12.3986 133.929 12.3986H133.062C132.825 12.3986 132.668 12.5521 132.668 12.7822V25.6684C132.668 25.8985 132.825 26.0519 133.062 26.0519H133.929C134.166 26.0519 134.323 25.8985 134.323 25.6684V21.373L138.029 25.8218C138.187 25.9752 138.266 26.0519 138.423 26.0519H139.764C139.921 25.9752 140 25.8985 140 25.7451Z" fill="#0050AB"></path> <path d="M58.3982 25.515V14.0861C58.3982 13.856 58.2406 13.7026 58.004 13.7026H56.2695C56.033 13.7026 55.8753 13.856 55.8753 14.0861V25.515C55.8753 25.7451 56.033 25.8985 56.2695 25.8985H58.004C58.2406 25.8218 58.3982 25.6684 58.3982 25.515ZM49.4102 25.8218V13.7793C48.4641 13.7793 46.9661 14.3929 46.9661 15.6969V23.9042C46.4142 23.9809 45.6258 24.0576 45.1527 24.0576C43.5759 24.0576 43.1817 22.9837 43.1817 21.5264V15.6202C43.1028 14.1628 41.4471 13.7793 40.7375 13.7793V21.4497C40.7375 24.211 42.1567 25.9752 45.1527 25.9752C45.6258 25.9752 46.5719 25.8218 46.9661 25.7451V25.8985C47.3603 28.2763 44.3643 27.3558 42.7874 27.2024C41.6048 27.2024 40.8164 28.1229 40.5799 29.1967C41.2894 29.4268 43.497 29.657 45.0739 29.8104C47.9122 29.8871 49.4102 28.353 49.4102 25.8218ZM53.9042 25.515V14.0861C53.9042 13.856 53.7465 13.7026 53.51 13.7026H51.7755C51.539 13.7026 51.3813 13.856 51.3813 14.0861V25.515C51.3813 25.7451 51.539 25.8985 51.7755 25.8985H53.51C53.7465 25.8218 53.9042 25.6684 53.9042 25.515ZM52.6427 10.481C53.3523 10.481 53.9042 11.018 53.9042 11.7083C53.9042 12.3986 53.3523 12.9356 52.6427 12.9356C51.9332 12.9356 51.3813 12.3986 51.3813 11.7083C51.3813 11.0947 51.9332 10.481 52.6427 10.481ZM57.2156 10.481C57.9252 10.481 58.4771 11.018 58.4771 11.7083C58.4771 12.3986 57.9252 12.9356 57.2156 12.9356C56.506 12.9356 55.9541 12.3986 55.9541 11.7083C55.9541 11.0947 56.506 10.481 57.2156 10.481Z" fill="#0050AB"></path> <path fill-rule="evenodd" clip-rule="evenodd" d="M25.8171 14.2756C24.5857 10.8176 28.1851 7.11057 31.1461 7C32.9203 7.90047 34.4437 10.2651 34.3675 13.474C34.135 17.4274 31.2598 20.8345 28.1305 23.9736C27.9562 20.1459 27.1212 17.706 25.8171 14.2756Z" fill="#0050AB"></path> <path fill-rule="evenodd" clip-rule="evenodd" d="M18.8364 33C18.3407 29.1401 19.9514 25.8474 21.5501 23.8397C22.3098 22.897 22.8941 22.0368 23.3383 21.2446C24.1781 21.5984 26.4357 22.7507 27.6795 24.6215C27.4988 27.3353 25.4379 32.2741 18.8364 33Z" fill="#0050AB"></path> <path fill-rule="evenodd" clip-rule="evenodd" d="M16.3416 18.3399C11.0876 16.9102 9.79158 12.4195 10.0261 9.39997C15.1281 7.38797 20.619 9.44885 23.7893 13.7444C26.0122 16.755 27.4039 20.6149 27.6863 23.9836C26.1613 22.0256 24.2352 20.8912 21.7818 20.0027C20.1038 19.3956 18.5537 18.9932 16.3416 18.3399Z" fill="#0050AB"></path> </svg> 