<?xml version="1.0" encoding="UTF-8"?> <svg xmlns="http://www.w3.org/2000/svg" width="151" height="40" viewBox="0 0 151 40" fill="none"> <path fill-rule="evenodd" clip-rule="evenodd" d="M28.0749 5.94082L28.8924 4.55444L29.7102 5.94082C30.0657 6.54417 38.4231 20.7711 38.4231 25.7844C38.4231 31.112 34.1483 35.4455 28.8924 35.4455C28.1678 35.4455 27.4623 35.3616 26.7828 35.2051C26.1039 35.3616 25.3988 35.4455 24.6735 35.4455C19.4185 35.4455 15.1428 31.112 15.1428 25.7844C15.1428 20.7711 23.5003 6.54417 23.8562 5.94082L24.6735 4.55444L25.4913 5.94082C25.572 6.0773 26.068 6.92263 26.7828 8.19877C27.4981 6.92263 27.9944 6.0773 28.0749 5.94082ZM27.8638 10.1585C30.4471 14.9198 34.2044 22.4233 34.2044 25.7844C34.2044 28.8461 32.7907 31.5776 30.5932 33.3488C33.985 32.5602 36.5253 29.4723 36.5253 25.7844C36.5253 22.4268 31.5965 13.0698 28.8924 8.31671C28.5764 8.87319 28.2294 9.4942 27.8638 10.1585ZM20.094 31.9869C20.094 31.9869 20.0943 31.9872 20.0952 31.9872C21.3723 32.967 22.9547 33.5543 24.6735 33.5543C26.9087 33.5543 28.9165 32.566 30.3135 31.0034C30.324 30.9918 30.3343 30.9804 30.3446 30.9689C30.3498 30.963 30.355 30.9572 30.3603 30.9513C30.3666 30.9443 30.3729 30.9372 30.3793 30.9301C30.4918 30.801 30.6005 30.6678 30.705 30.5313C30.7221 30.5089 30.7385 30.4862 30.7549 30.4635C30.7678 30.4455 30.7808 30.4276 30.7939 30.4099C30.8924 30.2769 30.9874 30.1416 31.0763 30.0023C31.0911 29.9794 31.1048 29.956 31.1184 29.9326C31.1284 29.9155 31.1385 29.8983 31.1489 29.8814C31.3103 29.6174 31.4565 29.3436 31.5867 29.0596C31.5969 29.0379 31.6075 29.0164 31.6181 28.9948C31.6362 28.9579 31.6545 28.9207 31.671 28.8823C31.7107 28.7893 31.7457 28.6946 31.7807 28.5997C31.7873 28.5818 31.7939 28.564 31.8005 28.5462C31.8066 28.53 31.8126 28.5138 31.8187 28.4975L31.8189 28.4971L31.819 28.4967C31.8531 28.4057 31.8873 28.3146 31.9173 28.2214C31.9518 28.1165 31.9825 28.0072 32.0124 27.9004C32.047 27.7767 32.0789 27.6517 32.1074 27.525C32.1299 27.4234 32.1525 27.3215 32.1712 27.2197C32.1982 27.0736 32.2189 26.9264 32.238 26.7778C32.2401 26.7611 32.2422 26.7444 32.2444 26.7277C32.2458 26.7171 32.2472 26.7065 32.2486 26.6959C32.2566 26.6355 32.2646 26.5749 32.2702 26.5137C32.2916 26.2835 32.3044 26.0497 32.3053 25.8136C32.3053 25.8089 32.3056 25.8046 32.3059 25.8001C32.3061 25.7967 32.3063 25.7931 32.3063 25.7893V25.7844C32.3063 25.7833 32.3062 25.7818 32.3061 25.7803C32.306 25.7785 32.3059 25.7766 32.3059 25.7751C32.3053 25.6359 32.2937 25.4841 32.2771 25.3258C32.2729 25.2801 32.2676 25.2325 32.2612 25.1856C32.2404 25.0263 32.215 24.8613 32.18 24.6867C32.1749 24.6602 32.1687 24.6321 32.1624 24.6039L32.1624 24.6037C32.1569 24.5792 32.1515 24.5546 32.1467 24.5308C32.1173 24.3958 32.0847 24.2552 32.0484 24.1113C32.045 24.0978 32.0416 24.0844 32.0382 24.0709C32.0361 24.0623 32.0339 24.0537 32.0318 24.0451C32.0179 23.9896 32.0039 23.9338 31.9882 23.8766C31.9396 23.6979 31.8881 23.5161 31.8301 23.3268C31.8108 23.2635 31.79 23.1991 31.7691 23.1342L31.7689 23.1338C31.7572 23.0973 31.7453 23.0607 31.7337 23.024C31.6969 22.9081 31.6581 22.7915 31.6175 22.6724C31.6116 22.6551 31.6057 22.6379 31.5999 22.6206L31.588 22.5855L31.5879 22.5851L31.5878 22.5848C31.5583 22.4978 31.5288 22.4106 31.4975 22.3217L31.4961 22.3176C31.431 22.1367 31.3644 21.9513 31.2938 21.7631C31.2401 21.6198 31.1833 21.4737 31.1264 21.3273L31.1216 21.3151C31.0913 21.2359 31.0598 21.1563 31.0278 21.0764C30.8213 20.5524 30.5953 20.0122 30.3539 19.4575C30.3511 19.4508 30.3481 19.4441 30.3452 19.4374L30.3425 19.4312C30.3386 19.4222 30.3347 19.4132 30.3312 19.4043C29.2989 17.0392 28.003 14.4546 26.7831 12.157L26.7829 12.1577C26.7829 12.1579 26.7828 12.1581 26.7828 12.1583C26.7827 12.1585 26.7826 12.1587 26.7826 12.1588L26.7824 12.1591C26.7824 12.1592 26.7823 12.1593 26.7823 12.1593C26.7822 12.1594 26.7821 12.1595 26.7821 12.1595C26.4111 11.4609 26.0479 10.7907 25.7011 10.1606C25.7012 10.1605 25.7013 10.1604 25.7015 10.1602C25.7016 10.1601 25.7017 10.16 25.7018 10.1598L25.7021 10.1594C25.7023 10.1591 25.7026 10.1588 25.7029 10.1585C25.3371 9.49331 24.9898 8.87319 24.6735 8.31671C21.9697 13.0701 17.0408 22.4282 17.0408 25.7844V25.7893C17.0408 25.7953 17.0411 25.8008 17.0414 25.8063C17.0417 25.8111 17.042 25.8159 17.0421 25.821C17.0434 26.0578 17.0553 26.2924 17.0774 26.5244C17.0835 26.5902 17.0927 26.6549 17.1019 26.7195C17.1059 26.7477 17.1099 26.7759 17.1136 26.8042C17.1322 26.95 17.1521 27.096 17.179 27.2389C17.1969 27.3364 17.2189 27.432 17.2408 27.5274L17.2496 27.566C17.278 27.6867 17.3075 27.8077 17.3415 27.9262C17.3743 28.044 17.41 28.1594 17.4483 28.2738C17.4832 28.3776 17.52 28.4787 17.5586 28.5809C17.6057 28.7045 17.653 28.8252 17.7056 28.9452C17.7348 29.0108 17.7662 29.0751 17.7975 29.1393C17.8048 29.1542 17.812 29.1692 17.8193 29.1841C17.8834 29.3186 17.9474 29.452 18.0188 29.5808C18.0265 29.5947 18.0347 29.6081 18.0429 29.6216C18.0496 29.6325 18.0563 29.6434 18.0626 29.6545C18.4706 30.3737 18.9883 31.017 19.5925 31.568C19.5995 31.575 19.6062 31.5816 19.6134 31.5883C19.7684 31.7267 19.9282 31.8604 20.094 31.9869Z" fill="#0050AB"></path> <path d="M56.2381 11.1809V8.99766H46.1813V30.6498H48.3661V20.9153H56.2381V18.7321H48.3661V11.1809H56.2381Z" fill="#0050AB"></path> <path d="M57.3215 16.9516V25.3748L57.3216 25.38C57.3532 26.9293 57.8806 28.2403 58.9162 29.2751C59.9649 30.3231 61.3653 30.8249 63.0582 30.8249C64.664 30.8249 66.0117 30.3168 67.0542 29.2751C68.0898 28.2403 68.6172 26.9293 68.6488 25.38L68.6489 25.3748V16.9516H66.4642V25.2674C66.4642 26.1985 66.1315 26.9888 65.4469 27.6644C64.7718 28.3304 63.9796 28.6563 63.0436 28.6563C62.0211 28.6563 61.1939 28.3197 60.5258 27.6521L60.5235 27.6498L60.5212 27.6476C59.8386 26.9825 59.5062 26.1984 59.5062 25.2674V16.9516H57.3215Z" fill="#0050AB"></path> <path fill-rule="evenodd" clip-rule="evenodd" d="M77.835 28.7585C76.3532 28.7585 75.0994 28.2425 74.0457 27.1988C73.0028 26.1562 72.4866 24.909 72.4866 23.4285C72.4866 23.3779 72.4874 23.3283 72.4889 23.2796H85.1929V22.7718C85.1929 20.9508 84.5287 19.3687 83.2199 18.0504L83.2185 18.049C81.7399 16.5715 79.9357 15.8278 77.835 15.8278C75.7524 15.8278 73.9542 16.5725 72.4674 18.0477L72.4662 18.049C70.9876 19.5264 70.2434 21.3294 70.2434 23.4285C70.2434 25.5097 70.9886 27.3066 72.4649 28.7922L72.4662 28.7935L72.4674 28.7948C73.9542 30.27 75.7524 31.0146 77.835 31.0146C79.9356 31.0146 81.7394 30.2661 83.2172 28.7802C83.6846 28.3227 84.0327 27.9339 84.215 27.6303L84.5352 27.0971L82.3705 26.3336L82.1445 26.6096C81.9799 26.8107 81.8062 27.0025 81.6235 27.1851C80.5693 28.2385 79.3157 28.7585 77.835 28.7585ZM72.4381 21.0835C72.4384 21.0829 72.4386 21.0823 72.4389 21.0818ZM82.6332 21.0818H73.0009C73.2573 20.5707 73.605 20.0907 74.048 19.6414C75.1019 18.5889 76.355 18.0694 77.835 18.0694C79.3157 18.0694 80.5693 18.5894 81.6235 19.6428C82.0493 20.0684 82.3855 20.5472 82.6332 21.0818Z" fill="#0050AB"></path> <path d="M89.0744 30.6498V8.99766H86.8897V30.6498H89.0744Z" fill="#0050AB"></path> <path fill-rule="evenodd" clip-rule="evenodd" d="M91.8811 30.6498H94.0659V23.4985H97.0629C99.0573 23.4985 100.774 22.7883 102.183 21.3796L102.185 21.3782C103.594 19.9597 104.304 18.2353 104.304 16.2335C104.304 14.2496 103.593 12.5354 102.185 11.118L102.183 11.1166C101.003 9.93672 99.5609 9.2309 97.8762 9.00228L97.8421 8.99766H91.8811V30.6498ZM102.119 16.2335C102.119 17.6461 101.627 18.835 100.633 19.8289C99.6373 20.8144 98.4564 21.3007 97.0629 21.3007H94.0659V11.1955H97.0629C98.4569 11.1955 99.6381 11.6821 100.634 12.6683C101.628 13.6527 102.119 14.8314 102.119 16.2335Z" fill="#0050AB"></path> <path d="M106.22 30.6498H108.405V20.9153H117.962V30.6498H120.147V8.99766H117.962V18.7321H108.405V8.99766H106.22V30.6498Z" fill="#0050AB"></path> <path fill-rule="evenodd" clip-rule="evenodd" d="M122.72 30.6498H124.905V23.4985H127.902C129.896 23.4985 131.613 22.7883 133.022 21.3796L133.024 21.3782C134.433 19.9597 135.143 18.2353 135.143 16.2335C135.143 14.2496 134.432 12.5354 133.024 11.118L133.022 11.1166C131.842 9.93672 130.4 9.2309 128.715 9.00228L128.681 8.99766H122.72V30.6498ZM132.958 16.2335C132.958 17.6459 132.466 18.8346 131.472 19.8285C130.476 20.8143 129.295 21.3007 127.902 21.3007H124.905V11.1955H127.902C129.296 11.1955 130.477 11.6821 131.473 12.6683C132.467 13.6527 132.958 14.8314 132.958 16.2335Z" fill="#0050AB"></path> </svg> 