<?xml version="1.0" encoding="UTF-8"?> <svg xmlns="http://www.w3.org/2000/svg" width="150" height="40" viewBox="0 0 150 40" fill="none"> <path d="M31.2384 16.6005C32.7867 14.4717 35.3282 13.084 38.1992 13.084C38.5541 13.084 38.9041 13.1052 39.2477 13.1464C39.0596 8.75194 35.3598 5.24194 30.8181 5.24194C26.8098 5.24194 23.4572 7.97595 22.5957 11.639H29.4652C30.4421 11.639 31.2384 12.4148 31.2384 13.3771V16.6005Z" fill="#0050AB"></path> <path d="M26.1112 28.3608C26.085 28.5806 26.0716 28.8041 26.0716 29.0307C26.0716 32.1914 28.69 34.7579 31.9253 34.7579C34.896 34.7579 37.3466 32.594 37.7276 29.7932C35.0511 29.6505 32.7014 28.3007 31.2384 26.2892V26.6227C31.2384 27.585 30.4421 28.3608 29.4652 28.3608H26.1112Z" fill="#0050AB"></path> <path d="M31.2384 24.6676C32.4158 27.0982 34.8839 28.8147 37.7787 28.9671C37.7438 25.8357 35.1389 23.3036 31.9253 23.3036C31.6929 23.3036 31.4637 23.3168 31.2384 23.3426V24.6676Z" fill="#0050AB"></path> <path d="M39.2411 13.9799C38.994 18.1772 35.5414 21.537 31.2384 21.7435V18.222C32.4725 15.6746 35.1243 13.9115 38.1992 13.9115C38.5526 13.9115 38.9004 13.9348 39.2411 13.9799Z" fill="#0050AB"></path> <path d="M45.8982 21.4448C45.8982 25.4653 42.678 28.7538 38.6191 28.9672C38.5851 25.4633 35.7448 22.6203 32.1976 22.4813C36.4551 21.8598 39.7704 18.4055 40.073 14.1361C43.4208 14.9552 45.8982 17.9184 45.8982 21.4448Z" fill="#0050AB"></path> <path fill-rule="evenodd" clip-rule="evenodd" d="M15.9328 12.4666C15.4152 12.4666 15 12.8766 15 13.3771V26.6227C15 27.1232 15.4152 27.5332 15.9328 27.5332H29.4653C29.9828 27.5332 30.398 27.1232 30.398 26.6227V13.3771C30.398 12.8766 29.9828 12.4666 29.4653 12.4666H15.9328ZM19.8483 19.0369C20.0407 19.3582 20.3055 19.6322 20.6226 19.8381C21.0341 20.1027 21.4715 20.3266 21.9283 20.5064C22.5026 20.7429 22.9373 20.9333 23.2326 21.0778C23.4885 21.1961 23.7222 21.3556 23.9242 21.5496C24.0046 21.6277 24.0682 21.7207 24.1113 21.8232C24.1544 21.9257 24.1761 22.0355 24.1751 22.1464C24.1787 22.3043 24.1385 22.4602 24.0587 22.5975C23.9789 22.7348 23.8625 22.8483 23.7219 22.9259C23.3131 23.135 22.8536 23.2304 22.3933 23.2019C21.896 23.1944 21.4023 23.117 20.9274 22.9721C20.451 22.8424 20.0013 22.6322 19.5989 22.3508V24.1028C20.0199 24.2817 20.4619 24.4088 20.9149 24.4814C21.4514 24.5703 21.9946 24.6138 22.5387 24.6114C23.1452 24.6205 23.7492 24.5347 24.3279 24.3571C24.8199 24.2081 25.2563 23.9206 25.5827 23.5306C25.9102 23.1064 26.0762 22.5836 26.0521 22.0524C26.0695 21.6244 25.9675 21.1998 25.7569 20.8243C25.5515 20.493 25.2687 20.2141 24.9317 20.0108C24.4867 19.7475 24.0195 19.522 23.5352 19.3367C23.4842 19.3121 23.4314 19.2913 23.3772 19.2746C22.8852 19.0757 22.5161 18.9162 22.2701 18.7963C22.049 18.6952 21.8488 18.5551 21.6796 18.383C21.5363 18.2371 21.4569 18.0422 21.4581 17.8397C21.4585 17.6765 21.5075 17.5169 21.5993 17.3805C21.6911 17.2442 21.8216 17.1371 21.9748 17.0725C22.3803 16.8789 22.8282 16.7861 23.279 16.8023C23.7066 16.8015 24.1326 16.8514 24.5479 16.9511C24.9305 17.039 25.2967 17.1852 25.6329 17.3846V15.7229C24.8592 15.4764 24.0472 15.3651 23.234 15.3942C22.6157 15.3877 22.0005 15.4809 21.4131 15.6702C20.8977 15.8294 20.4367 16.1238 20.0801 16.5212C19.7407 16.9182 19.5623 17.4235 19.5789 17.9409C19.569 18.323 19.6619 18.701 19.8483 19.0369Z" fill="#0050AB"></path> <path d="M51.6467 25.6138V23.897C51.8451 24.0704 52.0815 24.2265 52.3558 24.3652C52.6359 24.504 52.9277 24.6225 53.2311 24.7207C53.5404 24.8132 53.8497 24.8855 54.159 24.9375C54.4683 24.9895 54.7543 25.0155 55.0169 25.0155C55.9215 25.0155 56.5955 24.8508 57.039 24.5213C57.4884 24.1861 57.7131 23.7063 57.7131 23.082C57.7131 22.7468 57.6372 22.4549 57.4855 22.2063C57.3396 21.9578 57.1353 21.7323 56.8727 21.53C56.6101 21.3219 56.2979 21.1254 55.936 20.9404C55.5801 20.7497 55.1949 20.5503 54.7805 20.3422C54.3429 20.1225 53.9344 19.9 53.555 19.6745C53.1757 19.4491 52.846 19.2006 52.5659 18.9289C52.2857 18.6572 52.064 18.3509 51.9006 18.0098C51.743 17.663 51.6642 17.2584 51.6642 16.796C51.6642 16.2295 51.7897 15.7382 52.0406 15.322C52.2916 14.9 52.6213 14.5532 53.0298 14.2815C53.4383 14.0099 53.9023 13.8076 54.4216 13.6746C54.9469 13.5417 55.4809 13.4752 56.0236 13.4752C57.2608 13.4752 58.1624 13.6226 58.7285 13.9174V15.5561C57.9873 15.0474 57.0361 14.7931 55.8748 14.7931C55.5538 14.7931 55.2328 14.8278 54.9119 14.8971C54.5909 14.9607 54.3049 15.0677 54.054 15.2179C53.803 15.3682 53.5988 15.5619 53.4412 15.7989C53.2837 16.0359 53.2049 16.3249 53.2049 16.6659C53.2049 16.9838 53.2632 17.2584 53.3799 17.4896C53.5025 17.7208 53.6805 17.9318 53.9139 18.1225C54.1474 18.3133 54.4304 18.4983 54.763 18.6774C55.1015 18.8566 55.4896 19.0532 55.9273 19.267C56.3767 19.4867 56.8027 19.7179 57.2053 19.9607C57.608 20.2034 57.9611 20.4722 58.2645 20.767C58.568 21.0618 58.8073 21.3884 58.9824 21.7468C59.1633 22.1052 59.2537 22.5156 59.2537 22.978C59.2537 23.5907 59.1312 24.1109 58.8861 24.5387C58.6468 24.9606 58.32 25.3045 57.9056 25.5704C57.4971 25.8363 57.0244 26.0271 56.4875 26.1427C55.9506 26.2641 55.3846 26.3248 54.7893 26.3248C54.5909 26.3248 54.3458 26.3074 54.054 26.2727C53.7622 26.2438 53.4646 26.1976 53.1611 26.134C52.8576 26.0762 52.5688 26.004 52.2945 25.9172C52.026 25.8248 51.8101 25.7236 51.6467 25.6138Z" fill="#0050AB"></path> <path d="M69.0054 26.1167H67.5698V21.0011C67.5698 19.1514 66.8753 18.2266 65.4864 18.2266C64.7861 18.2266 64.1967 18.4954 63.7181 19.0329C63.2396 19.5647 63.0003 20.2497 63.0003 21.0878V26.1167H61.5647V12.9723H63.0003V18.7121H63.0353C63.724 17.5908 64.7044 17.0301 65.9766 17.0301C67.9958 17.0301 69.0054 18.2353 69.0054 20.6456V26.1167Z" fill="#0050AB"></path> <path d="M78.1356 26.1167H76.7V24.7294H76.6649C76.0405 25.793 75.1214 26.3248 73.9075 26.3248C73.0146 26.3248 72.3143 26.0907 71.8066 25.6225C71.3047 25.1542 71.0538 24.5329 71.0538 23.7583C71.0538 22.0994 72.04 21.1341 74.0126 20.8624L76.7 20.4896C76.7 18.9809 76.0843 18.2266 74.8529 18.2266C73.7733 18.2266 72.7987 18.5907 71.9292 19.3191V17.8624C72.8104 17.3075 73.8258 17.0301 74.9755 17.0301C77.0822 17.0301 78.1356 18.1341 78.1356 20.3422V26.1167ZM76.7 21.6254L74.5378 21.9202C73.8725 22.0127 73.3706 22.1774 73.0321 22.4144C72.6937 22.6456 72.5244 23.0589 72.5244 23.6543C72.5244 24.0878 72.6791 24.4433 72.9884 24.7207C73.3035 24.9924 73.7208 25.1282 74.2402 25.1282C74.9521 25.1282 75.5386 24.8826 75.9997 24.3913C76.4665 23.8941 76.7 23.267 76.7 22.5098V21.6254Z" fill="#0050AB"></path> <path d="M85.515 18.6774C85.2641 18.4867 84.9022 18.3913 84.4295 18.3913C83.8168 18.3913 83.3032 18.6774 82.8889 19.2497C82.4804 19.8219 82.2761 20.6023 82.2761 21.5907V26.1167H80.8405V17.2382H82.2761V19.0676H82.3111C82.5154 18.4433 82.8276 17.9578 83.2478 17.611C83.668 17.2584 84.1377 17.0821 84.6571 17.0821C85.0306 17.0821 85.3166 17.1226 85.515 17.2035V18.6774Z" fill="#0050AB"></path> <path d="M94.2775 22.0329H87.9485C87.9719 23.0213 88.2403 23.7843 88.7539 24.3219C89.2674 24.8595 89.9736 25.1282 90.8723 25.1282C91.8819 25.1282 92.8098 24.7988 93.656 24.1398V25.4751C92.8682 26.0415 91.8265 26.3248 90.5309 26.3248C89.2645 26.3248 88.2695 25.923 87.5459 25.1196C86.8222 24.3103 86.4604 23.1745 86.4604 21.7121C86.4604 20.3306 86.8543 19.2063 87.6422 18.3393C88.4358 17.4665 89.4192 17.0301 90.5922 17.0301C91.7652 17.0301 92.6727 17.4058 93.3146 18.1572C93.9565 18.9087 94.2775 19.952 94.2775 21.2872V22.0329ZM92.8069 20.8277C92.801 20.0069 92.5997 19.3682 92.2029 18.9115C91.8119 18.4549 91.2662 18.2266 90.5659 18.2266C89.889 18.2266 89.3141 18.4665 88.8414 18.9462C88.3687 19.426 88.0769 20.0532 87.9661 20.8277H92.8069Z" fill="#0050AB"></path> <path d="M98.1204 21.4173V26.1167H96.6498V13.6833H100.099C101.441 13.6833 102.48 14.007 103.215 14.6544C103.956 15.3018 104.327 16.215 104.327 17.3942C104.327 18.5734 103.915 19.5387 103.093 20.2901C102.276 21.0416 101.17 21.4173 99.7749 21.4173H98.1204ZM98.1204 15.0012V20.0994H99.6611C100.677 20.0994 101.45 19.8711 101.981 19.4144C102.518 18.952 102.786 18.3017 102.786 17.4636C102.786 15.822 101.806 15.0012 99.8449 15.0012H98.1204Z" fill="#0050AB"></path> <path d="M109.588 26.3248C108.263 26.3248 107.204 25.9115 106.41 25.0849C105.622 24.2525 105.228 23.1514 105.228 21.7815C105.228 20.2901 105.64 19.1254 106.463 18.2873C107.286 17.4491 108.397 17.0301 109.798 17.0301C111.134 17.0301 112.176 17.4376 112.923 18.2526C113.676 19.0676 114.052 20.1977 114.052 21.6427C114.052 23.0589 113.647 24.1947 112.835 25.0502C112.03 25.8999 110.948 26.3248 109.588 26.3248ZM109.693 18.2266C108.771 18.2266 108.041 18.5387 107.504 19.163C106.968 19.7815 106.699 20.637 106.699 21.7294C106.699 22.7814 106.97 23.6109 107.513 24.2178C108.056 24.8248 108.782 25.1282 109.693 25.1282C110.621 25.1282 111.333 24.8306 111.829 24.2352C112.331 23.6398 112.582 22.793 112.582 21.6948C112.582 20.5849 112.331 19.7295 111.829 19.1283C111.333 18.5272 110.621 18.2266 109.693 18.2266Z" fill="#0050AB"></path> <path d="M117.081 14.9838C116.824 14.9838 116.605 14.8971 116.425 14.7237C116.244 14.5503 116.153 14.3307 116.153 14.0648C116.153 13.7989 116.244 13.5792 116.425 13.4058C116.605 13.2266 116.824 13.137 117.081 13.137C117.344 13.137 117.565 13.2266 117.746 13.4058C117.933 13.5792 118.026 13.7989 118.026 14.0648C118.026 14.3191 117.933 14.5359 117.746 14.7151C117.565 14.8943 117.344 14.9838 117.081 14.9838ZM117.781 26.1167H116.346V17.2382H117.781V26.1167Z" fill="#0050AB"></path> <path d="M128.128 26.1167H126.693V21.0531C126.693 19.1688 125.998 18.2266 124.609 18.2266C123.891 18.2266 123.296 18.4954 122.824 19.0329C122.357 19.5647 122.123 20.2381 122.123 21.0531V26.1167H120.688V17.2382H122.123V18.7121H122.158C122.835 17.5908 123.816 17.0301 125.099 17.0301C126.08 17.0301 126.83 17.3451 127.349 17.9751C127.869 18.5994 128.128 19.504 128.128 20.689V26.1167Z" fill="#0050AB"></path> <path d="M135 26.03C134.662 26.2149 134.215 26.3074 133.661 26.3074C132.091 26.3074 131.306 25.4404 131.306 23.7063V18.452H129.765V17.2382H131.306V15.0706L132.742 14.611V17.2382H135V18.452H132.742V23.4548C132.742 24.0502 132.844 24.4751 133.048 24.7294C133.252 24.9837 133.591 25.1109 134.063 25.1109C134.425 25.1109 134.737 25.0126 135 24.8161V26.03Z" fill="#0050AB"></path> </svg> 