<?xml version="1.0" encoding="UTF-8"?> <svg xmlns="http://www.w3.org/2000/svg" width="150" height="40" viewBox="0 0 150 40" fill="none"> <path fill-rule="evenodd" clip-rule="evenodd" d="M44.9252 19.9999C44.9252 28.3515 38.2262 35.1218 29.9626 35.1218C21.699 35.1218 15 28.3515 15 19.9999C15 11.6483 21.699 4.87793 29.9626 4.87793C38.2262 4.87793 44.9252 11.6483 44.9252 19.9999ZM32.6697 12.5449C33.6573 11.3735 34.9841 10.5269 36.5041 10.4733C38.0232 10.423 39.1707 11.1182 39.208 12.2183C39.2232 12.6865 38.9568 13.5984 38.0301 13.6286C37.338 13.6538 36.8595 13.2359 36.8378 12.5999C36.8305 12.3664 36.89 12.1633 37.0476 11.9247C37.0743 11.8721 37.0973 11.8275 37.1171 11.7891C37.2127 11.604 37.2345 11.5616 37.2311 11.4509C37.2173 11.0506 36.6184 11.0348 36.4548 11.0432C34.2091 11.1177 33.6171 14.1817 33.1372 16.6726L32.9021 17.9861C34.1953 18.1781 35.1136 17.9418 35.6258 17.6068C36.062 17.3213 35.8967 17.0307 35.7237 16.7264C35.6107 16.5276 35.4943 16.3231 35.5401 16.1102C35.6585 15.5614 36.1518 15.2972 36.5446 15.286C37.0933 15.273 37.4851 15.8479 37.4727 16.4322C37.4538 17.3976 36.1855 18.7251 33.6498 18.671C33.341 18.6636 33.057 18.6421 32.7914 18.61L32.3134 21.2784L32.3003 21.3397C31.8735 23.3552 31.2952 26.0855 29.2798 28.4701C27.5307 30.5715 25.7557 30.8986 24.9609 30.9261C23.4741 30.9769 22.488 30.1754 22.4524 29.1061C22.4183 28.0708 23.3247 27.5052 23.9194 27.4847C24.7133 27.4581 25.2624 28.0391 25.2836 28.7092C25.3035 29.2762 25.0107 29.4532 24.8171 29.5599C24.6875 29.6653 24.4925 29.7724 24.5003 30.0063C24.5049 30.106 24.6114 30.3353 24.9411 30.325C25.5505 30.3038 25.9612 30.0081 26.2517 29.799L26.279 29.7794C27.7275 28.5591 28.2849 26.4335 29.0151 22.5625L29.1673 21.6241L29.1798 21.5612C29.426 20.3189 29.6994 18.939 30.1142 17.564C29.803 17.3273 29.5297 17.0733 29.2613 16.8239C28.6489 16.2548 28.0619 15.7093 27.107 15.4472C26.166 15.1886 25.5916 15.4085 25.1882 15.9239C24.7101 16.5347 24.8687 17.3296 25.3307 17.796L26.0932 18.6482C27.0291 19.7408 27.5399 20.5902 27.3476 21.7336C27.0424 23.5592 24.8908 24.9588 22.3473 24.1691C20.1764 23.4925 19.7712 21.9391 20.0316 21.0832C20.2612 20.3298 20.8536 20.1876 21.4326 20.367C22.0532 20.5604 22.2957 21.3222 22.1182 21.9079C22.0984 21.9694 22.0671 22.0742 22.0016 22.214C21.9717 22.2819 21.9311 22.3459 21.8898 22.4112C21.8321 22.5023 21.7728 22.5959 21.7392 22.7056C21.5996 23.1654 22.2229 23.4921 22.6567 23.6258C23.6281 23.9286 24.575 23.4147 24.8162 22.6208C25.0392 21.8907 24.5828 21.3814 24.3934 21.1861L23.4741 20.1904C23.0537 19.7166 22.1279 18.3966 22.5792 16.9135C22.7535 16.3427 23.12 15.7356 23.6521 15.334C24.7751 14.4883 25.9964 14.349 27.1591 14.6863C28.2896 15.0159 28.9791 15.6656 29.65 16.2979C29.8717 16.5069 30.0915 16.714 30.3245 16.907C30.8487 15.3522 31.5762 13.829 32.6697 12.5449Z" fill="#0050AB"></path> <path d="M105.722 15.7454C109.17 15.7454 111.484 18.2647 111.484 21.7499C111.484 25.0339 109.125 27.754 105.722 27.754C102.294 27.754 99.9357 25.0339 99.9357 21.7499C99.9357 18.2647 102.249 15.7454 105.722 15.7454ZM105.722 26.0468C108.168 26.0468 109.258 23.7977 109.258 21.7499C109.258 19.5694 107.946 17.4554 105.722 17.4554C103.473 17.4554 102.161 19.5694 102.161 21.7499C102.161 23.7973 103.251 26.0468 105.722 26.0468ZM99.649 16.8129V16.0147H96.644V14.924C96.644 13.3724 96.8667 12.202 98.6684 12.202C98.7016 12.202 98.7371 12.2043 98.7717 12.2057C98.7753 12.2057 98.7749 12.2001 98.779 12.2001C99.2792 12.2374 99.6951 11.8255 99.7232 11.3209L99.7601 10.6285C99.3382 10.5605 98.8915 10.4934 98.359 10.4934C95.266 10.4934 94.5533 12.3152 94.5533 15.1043V16.0152H91.8816V16.9065C91.9503 17.3678 92.3408 17.7229 92.818 17.7229C92.8207 17.7229 92.8221 17.7252 92.8253 17.7252H94.5533V27.4852H95.7058L95.7086 27.4847C96.1881 27.4847 96.5809 27.1217 96.6445 26.6558V17.7252H98.7366C98.9743 17.7169 99.2002 17.6184 99.3693 17.4493C99.5384 17.2803 99.6382 17.053 99.649 16.8129ZM71.7869 16.0147C71.7832 16.0147 71.7809 16.0175 71.7758 16.0175C71.3351 16.0175 70.9082 16.3237 70.7219 16.7374L67.8433 25.5063H67.799L64.984 16.7421C64.8 16.326 64.3713 16.0175 63.9278 16.0175C63.9227 16.0175 63.9208 16.0147 63.9167 16.0147H62.458L66.308 26.7206C66.4422 27.1031 66.7096 27.6883 66.7096 27.9348C66.7096 28.1598 66.0858 30.7677 64.2159 30.7677C64.1698 30.7677 64.1232 30.7635 64.0776 30.7597C63.6009 30.7332 63.2408 31.0696 63.1606 31.5887L63.1034 32.3202C63.4815 32.3877 63.8618 32.4777 64.5289 32.4777C67.2877 32.4777 68.1107 29.936 68.8902 27.7321L73.0731 16.0143L71.7869 16.0147ZM58.4895 18.3444C56.762 17.4512 54.8718 16.845 54.8391 15.0475C54.8446 13.1385 56.5799 12.6376 57.9174 12.639C57.9229 12.6381 57.9284 12.6381 57.9317 12.6381C58.5126 12.6381 58.9773 12.6963 59.4305 12.7965C59.4364 12.7965 59.4355 12.7891 59.4429 12.7891C59.9219 12.8245 60.3239 12.4457 60.3806 11.9681L60.4189 11.2748C59.542 11.0544 58.626 10.943 57.8284 10.943C54.9198 10.9612 52.7608 12.4401 52.7539 15.2613C52.758 17.7289 54.4034 18.6855 56.1728 19.5512C57.9081 20.3945 59.8094 21.0911 59.826 23.1268C59.8154 25.2515 57.7869 26.0347 56.3891 26.0375C55.5717 26.0347 54.6842 25.8283 53.9364 25.5902C53.4675 25.5119 53.083 25.9299 53.0227 26.4834L52.959 27.1017C53.9871 27.4372 55.0415 27.7298 56.1009 27.7298H56.1134C59.3705 27.706 61.9025 26.393 61.9122 22.9842C61.9071 20.354 60.2506 19.2493 58.4895 18.3444ZM90.1265 27.4847L90.1293 27.4842C90.5811 27.4842 90.9573 27.1641 91.0532 26.7369V20.1313C91.0532 17.6348 90.008 15.7454 87.1132 15.7454C86.0902 15.7454 84.3775 16.3311 83.5988 17.9721C82.9967 16.4201 81.6856 15.7454 80.3716 15.7454C78.7032 15.7454 77.5677 16.3525 76.7683 17.68H76.7226V16.9662C76.7199 16.7139 76.619 16.4728 76.4417 16.2952C76.2643 16.1177 76.0249 16.0179 75.7752 16.0175C75.7715 16.0175 75.7688 16.0147 75.7651 16.0147H74.7651V27.4847H75.8974L75.9001 27.4842C76.1519 27.4841 76.3932 27.383 76.5712 27.2031C76.7492 27.0232 76.8493 26.7793 76.8494 26.5249C76.8494 26.5109 76.8545 26.5053 76.8568 26.4955V21.7057C76.8568 19.5694 77.7023 17.4554 79.8382 17.4554C81.5297 17.4554 81.8649 19.2311 81.8649 20.6485V27.4852H83.0129L83.0161 27.4847C83.2522 27.4841 83.4795 27.3941 83.6533 27.2326C83.8271 27.0711 83.9348 26.8497 83.9552 26.612V21.7057C83.9552 19.5694 84.8012 17.4554 86.9371 17.4554C88.6277 17.4554 88.9624 19.2311 88.9624 20.6485V27.4852L90.1265 27.4847ZM122.45 27.4847L122.454 27.4842C122.698 27.4839 122.932 27.3885 123.108 27.2181C123.284 27.0476 123.388 26.8152 123.399 26.5691V20.6704C123.399 17.5901 122.085 15.745 119.147 15.745C117.568 15.745 116.056 16.5329 115.432 17.8375H115.387V16.9806C115.387 16.9806 115.385 16.9802 115.385 16.9778C115.385 16.8518 115.361 16.7269 115.313 16.6104C115.266 16.4938 115.196 16.3879 115.108 16.2987C115.02 16.2095 114.915 16.1388 114.8 16.0905C114.685 16.0423 114.561 16.0175 114.436 16.0175C114.431 16.0175 114.429 16.0147 114.426 16.0147H113.361V27.4847H114.51L114.513 27.4842C114.751 27.4835 114.98 27.3922 115.154 27.2286C115.328 27.0649 115.435 26.8409 115.453 26.6013V22.1772C115.453 19.389 116.522 17.4549 118.902 17.4549C120.728 17.5668 121.305 18.8705 121.305 21.5473V27.4842L122.45 27.4847ZM133.712 16.0147C133.707 16.0147 133.706 16.0175 133.7 16.0175C133.261 16.0175 132.832 16.3237 132.648 16.7374L129.77 25.5063H129.723L126.909 16.7421C126.724 16.326 126.295 16.0175 125.852 16.0175C125.849 16.0175 125.845 16.0147 125.842 16.0147H124.383L128.234 26.7206C128.368 27.1031 128.636 27.6883 128.636 27.9348C128.636 28.1598 128.011 30.7677 126.142 30.7677C126.095 30.7677 126.049 30.7635 126.003 30.7597C125.527 30.7332 125.166 31.0696 125.086 31.5887L125.029 32.3202C125.407 32.3877 125.788 32.4777 126.454 32.4777C129.213 32.4777 130.038 29.936 130.817 27.7321L135 16.0143L133.712 16.0147Z" fill="#0050AB"></path> </svg> 