<?xml version="1.0" encoding="UTF-8"?> <svg xmlns="http://www.w3.org/2000/svg" width="151" height="40" viewBox="0 0 151 40" fill="none"> <path d="M53.9988 12.3928V22.9053C53.9988 23.8457 54.0663 24.7189 53.222 25.357C52.4452 25.9952 51.1281 26.1967 49.7097 26.1967C47.5483 26.1967 45.2518 25.6929 45.2518 25.6929L44.7452 27.0363C44.7452 27.0363 47.9536 27.7081 50.2838 27.7416C52.2426 27.7752 53.965 27.3386 54.9106 26.2639C55.6874 25.3906 55.9238 24.383 55.89 22.6702V12.3928H53.9988ZM69.7704 18.2032C68.352 17.4307 66.6296 17.0277 64.6708 17.0277C62.7458 17.0277 61.0234 17.4307 59.5712 18.2032C57.7475 19.1772 56.8356 20.6214 56.8356 22.4351C56.8356 24.2487 57.7475 25.6929 59.5712 26.6669C61.0234 27.4394 62.712 27.8424 64.6708 27.8424C66.5958 27.8424 68.3182 27.4394 69.7366 26.6669C71.5603 25.6929 72.4722 24.2487 72.4722 22.4351C72.4722 20.5878 71.5603 19.1772 69.7704 18.2032ZM68.6559 25.5921C67.5414 26.2303 66.2243 26.5325 64.6708 26.5325C63.0835 26.5325 61.7326 26.2303 60.6519 25.6257C59.3348 24.8868 58.6931 23.8457 58.6931 22.4351C58.6931 21.058 59.3686 19.9833 60.6519 19.2444C61.7326 18.6398 63.0835 18.3376 64.6708 18.3376C66.2243 18.3376 67.5752 18.6398 68.6897 19.2444C69.973 19.9833 70.6485 21.058 70.6485 22.4351C70.6147 23.7785 69.973 24.8532 68.6559 25.5921ZM86.3863 18.2032C84.9679 17.4307 83.2455 17.0277 81.2867 17.0277C79.3617 17.0277 77.6393 17.4307 76.1871 18.2032C74.3634 19.1772 73.4516 20.6214 73.4516 22.4351C73.4516 24.2487 74.3634 25.6929 76.1871 26.6669C77.6393 27.4394 79.3279 27.8424 81.2867 27.8424C83.2117 27.8424 84.9341 27.4394 86.3525 26.6669C88.1762 25.6929 89.0881 24.2487 89.0881 22.4351C89.0881 20.5878 88.1762 19.1772 86.3863 18.2032ZM85.2718 25.5921C84.1573 26.2303 82.8402 26.5325 81.2867 26.5325C79.6994 26.5325 78.3485 26.2303 77.2678 25.6257C75.9507 24.8868 75.309 23.8457 75.309 22.4351C75.309 21.058 75.9845 19.9833 77.2678 19.2444C78.3485 18.6398 79.6994 18.3376 81.2867 18.3376C82.8402 18.3376 84.1911 18.6398 85.3056 19.2444C86.5889 19.9833 87.2644 21.058 87.2644 22.4351C87.2306 23.7785 86.5889 24.8532 85.2718 25.5921ZM109.318 17.9345C108.304 17.33 106.987 17.0277 105.434 17.0277C103.441 17.0277 101.854 17.6323 100.638 18.8413C99.4899 17.6323 97.8689 17.0277 95.8763 17.0277C94.2552 17.0277 92.9381 17.3636 91.9249 18.0017V17.1621H90.135V27.6073H91.9249V20.4871C92.06 19.9833 92.3978 19.5131 92.9381 19.11C93.6811 18.6062 94.6267 18.3376 95.8087 18.3376C96.8557 18.3376 97.7338 18.5391 98.4768 18.9757C99.3548 19.4795 99.7601 20.1512 99.7601 21.0916V27.6745H101.516V21.058C101.516 20.1176 101.922 19.4459 102.8 18.9421C103.543 18.5391 104.454 18.304 105.501 18.304C106.548 18.304 107.46 18.5055 108.203 18.9421C109.081 19.4459 109.486 20.1176 109.486 21.058V27.6409H111.276V21.2931C111.243 19.8153 110.567 18.6734 109.318 17.9345ZM112.661 12.3928V27.6409H114.451V12.3928H112.661ZM134.41 12.3928V24.1815H136.2V12.3928H134.41ZM129.716 17.1621V18.9421C128.196 17.6658 126.17 16.9941 123.671 16.9941C121.678 16.9941 119.956 17.3636 118.537 18.136C116.781 19.11 115.869 20.5206 115.869 22.4015C115.869 24.2487 116.781 25.6929 118.605 26.6333C120.023 27.4058 121.746 27.7752 123.738 27.7752C124.718 27.7752 125.697 27.6745 126.575 27.4394C127.825 27.1035 128.872 26.6333 129.682 25.9952V27.6073H131.472V17.1621H129.716ZM117.761 22.4351C117.761 21.058 118.436 19.9833 119.719 19.2444C120.8 18.6398 122.185 18.3376 123.772 18.3376C125.731 18.3376 127.251 18.8078 128.331 19.7482C129.277 20.5878 129.75 21.6626 129.75 22.9724V24.2151C129.007 25.0548 127.892 25.6929 126.474 26.1295C125.63 26.3982 124.718 26.5325 123.772 26.5325C122.151 26.5325 120.8 26.2303 119.719 25.6593C118.402 24.8868 117.761 23.8457 117.761 22.4351ZM135.322 25.6593C134.073 25.6593 133.904 26.2974 133.904 26.7005C133.904 27.1035 134.106 27.7416 135.322 27.7416C136.572 27.7416 136.741 27.0699 136.741 26.7005C136.741 26.331 136.538 25.6593 135.322 25.6593Z" fill="#0050AB"></path> <path d="M19.2134 20.084L18.7406 19.6138C17.2209 18.1025 16.7818 15.9865 17.3222 14.0721C15.8024 13.7363 14.6879 12.3928 14.6879 10.7807C14.6879 8.93349 16.2077 7.42212 18.0652 7.42212C19.7538 7.42212 21.1384 8.63121 21.4086 10.2433C23.2323 9.80672 25.2249 10.3105 26.6433 11.7211L26.8459 11.9226L24.3468 14.408L24.1442 14.2065C23.3336 13.4004 22.0165 13.4004 21.206 14.2065C20.3954 15.0126 20.3954 16.3224 21.206 17.1285L26.8122 22.7037L24.313 25.1891L21.6788 22.5694L19.2134 20.084Z" fill="#0050AB"></path> <path d="M22.0165 17.33L27.6227 11.7547C29.1087 10.2769 31.2701 9.80672 33.1613 10.3441C33.3977 8.69839 34.8162 7.4557 36.5048 7.4557C38.3623 7.4557 39.882 8.96707 39.882 10.8143C39.882 12.5272 38.5987 13.9378 36.9438 14.1393C37.4842 16.0201 37.0114 18.136 35.5254 19.6138L35.3228 19.8153L32.8912 17.33L33.0938 17.1285C33.9043 16.3224 33.9043 15.0126 33.0938 14.2065C32.2833 13.4004 30.9661 13.4004 30.1556 14.2065L24.5494 19.7818L22.0165 17.33Z" fill="#0050AB"></path> <path d="M33.2627 29.8576C31.3376 30.4285 29.1762 29.9919 27.6565 28.4805L27.4538 28.279L29.953 25.7937L30.1556 25.9952C30.9661 26.8012 32.2833 26.8012 33.0938 25.9952C33.9043 25.1891 33.9043 23.8792 33.0938 23.0732L27.4876 17.4979L29.9867 15.0126L35.6267 20.6214C37.0451 22.032 37.5517 24.0472 37.1127 25.8944C38.7675 26.1295 40.0171 27.5401 40.0171 29.2194C40.0171 31.0667 38.4973 32.578 36.6399 32.578C34.9513 32.5444 33.5666 31.3689 33.2627 29.8576Z" fill="#0050AB"></path> <path d="M32.2833 22.8717L26.6771 28.4469C25.2249 29.8911 23.1985 30.3613 21.3748 29.9247C21.0371 31.4361 19.6862 32.5444 18.0652 32.5444C16.2077 32.5444 14.6879 31.0331 14.6879 29.1858C14.6879 27.6073 15.8024 26.2639 17.2884 25.928C16.8156 24.0472 17.2884 22.032 18.7406 20.5878L18.9432 20.3863L21.4424 22.8717L21.2397 23.0732C20.4292 23.8792 20.4292 25.1891 21.2397 25.9952C22.0503 26.8012 23.3674 26.8012 24.1779 25.9952L29.7841 20.4199L32.2833 22.8717Z" fill="#0050AB"></path> </svg> 