<?xml version="1.0" encoding="UTF-8"?> <svg xmlns="http://www.w3.org/2000/svg" width="151" height="40" viewBox="0 0 151 40" fill="none"> <path d="M53.4967 18.8509V18.7809C54.4067 18.3843 55.1547 17.6766 55.7409 16.6599C56.3258 15.6425 56.6185 14.4565 56.6185 13.1006C56.6185 11.2311 55.3193 9.54134 54.3004 8.75265C53.1916 7.89468 51.0866 7.20923 49.2971 7.20923H45.2063V32.3515H49.6209C51.4416 32.3515 53.5407 31.7033 54.8335 30.3265C56.0019 29.083 57.2565 27.1508 57.2565 24.8468C57.2565 23.2694 56.9164 21.9312 56.2331 20.8314C55.5505 19.7343 54.6385 19.073 53.4967 18.8509ZM48.8197 11.3827H49.8826C51.6423 11.3827 52.8147 12.3054 52.8147 14.152C52.8147 15.1459 52.5996 15.9261 52.1709 16.4926C51.7421 17.0598 50.8625 17.344 50.117 17.344H48.8197V11.3827ZM52.7421 27.2665C52.268 27.8748 51.3224 28.1787 50.4862 28.1787H48.8204V21.5509H50.5089C51.3444 21.5509 52.2868 21.8371 52.7531 22.4101C53.2195 22.9825 53.4526 23.7719 53.4526 24.7775C53.4526 25.8296 53.2149 26.6594 52.7421 27.2665Z" fill="#0050AB"></path> <path d="M66.9135 24.6723C66.9135 25.8642 66.723 26.8091 66.3422 27.5043C65.962 28.1989 65.4549 28.5472 64.8208 28.5472C63.5377 28.5472 62.8959 27.2789 62.8959 24.7429V14.399H59.3712V25.2336C59.3712 30.2716 60.6264 32.0764 63.3544 32.3992C64.8065 32.5704 65.984 31.7321 66.8565 29.6169H66.9128V32.3522H70.4369V14.3983H66.9128L66.9135 24.6723Z" fill="#0050AB"></path> <path d="M76.95 7.95611H73.4143V32.3515H76.95V7.95611Z" fill="#0050AB"></path> <path d="M83.4618 7.95611H79.9261V32.3515H83.4618V7.95611Z" fill="#0050AB"></path> <path d="M91.4847 13.9592C89.8746 13.9592 88.5157 14.8303 87.4127 16.5717C86.3084 18.3137 85.7566 20.6746 85.7566 23.6556C85.7566 26.53 86.2663 28.772 87.2883 30.3794C88.3104 31.9862 89.7463 32.79 91.5967 32.79C93.2891 32.79 94.6668 32.3456 95.7257 31.4576V27.4599C94.7704 28.395 93.6622 28.8622 92.4025 28.8622C90.4251 28.8622 89.3765 27.5586 89.258 24.9527H96.7329V22.6205C96.7329 19.9558 96.2763 17.8459 95.3617 16.2913C94.4485 14.7368 93.1557 13.9592 91.4847 13.9592ZM89.2353 21.5509C89.3253 20.4524 89.5766 19.535 89.9918 18.7979C90.4057 18.0622 90.896 17.6943 91.4627 17.6943C92.7898 17.6943 93.4537 18.9802 93.4537 21.5509H89.2353Z" fill="#0050AB"></path> <path d="M103.19 8.04105L99.6643 7.9927V14.3983H97.8074V18.4836H99.6643V26.7058C99.6643 30.7617 100.91 32.7906 103.402 32.7906C104.453 32.7906 105.24 32.5737 105.763 32.1418V28.0395C105.367 28.3786 104.984 28.5472 104.611 28.5472C103.663 28.5472 103.19 27.6115 103.19 25.742V18.4836H105.764V14.3983H103.19L103.19 8.04105Z" fill="#0050AB"></path> <path d="M111.291 14.3983H107.754V32.3515H111.291V14.3983Z" fill="#0050AB"></path> <path d="M121.528 13.9592C119.917 13.9592 118.691 15.0531 117.847 17.2382H117.803V14.3983H114.267V32.3515H117.803V22.1122C117.803 20.9798 118 20.0434 118.396 19.307C118.79 18.5705 119.294 18.2033 119.905 18.2033C121.174 18.2033 121.808 19.5945 121.808 22.3761V32.3522H125.333V21.3581C125.333 16.426 124.065 13.9592 121.528 13.9592Z" fill="#0050AB"></path> <path d="M111.2 7.9927H107.699V11.6082H111.2V7.9927Z" fill="#0050AB"></path> <path d="M33.9146 22.7401L35.7028 12.836H25.3334V17.6106H32.8161L33.9146 22.7401Z" fill="#0050AB"></path> <path d="M40.9724 12.836L36.5707 28.7844H31.6632L29.1366 21.266L25.3334 21.2241V32.3515H42.9213V12.836H40.9724Z" fill="#0050AB"></path> </svg> 