<?xml version="1.0" encoding="UTF-8"?> <svg xmlns="http://www.w3.org/2000/svg" width="163" height="32" viewBox="0 0 163 32" fill="none"> <path d="M76.8801 19.4678C76.8801 21.9254 75.6034 23.3936 73.465 23.3936C71.3265 23.3936 70.018 21.9254 70.018 19.4678V10.0523H65.3581V20.0104C65.3581 22.3403 66.0922 24.1915 67.5923 25.6278C69.0604 27.064 71.0074 27.7662 73.465 27.7662C75.9226 27.7662 77.8376 27.064 79.3377 25.6278C80.8059 24.2234 81.54 22.3403 81.54 20.0104V10.0523H76.8801V19.4678Z" fill="white"></path> <path d="M105.029 20.521V13.7866H109.689V10.0523H104.934V4.44444L99.7694 10.0523H91.3688V4.44444L82.7449 13.7866H86.8047V21.1275C86.8047 24.9894 89.1347 27.2875 92.9328 27.2875H96.2202V23.1382H94.1137C92.4221 23.1382 91.4646 22.1807 91.4646 20.521V13.7866H100.369V21.1275C100.369 24.9894 102.699 27.2875 106.498 27.2875H109.785V23.1382H107.678C105.987 23.1382 105.029 22.1807 105.029 20.521Z" fill="white"></path> <path d="M120.413 9.57351C115.275 9.57351 111.477 13.4674 111.477 18.6699C111.477 21.2551 112.338 23.3936 114.03 25.149C115.722 26.9044 117.86 27.7662 120.413 27.7662C124.403 27.7662 127.69 25.3724 128.967 21.6381H124.052C123.318 22.8829 121.977 23.617 120.413 23.617C118.115 23.617 116.583 22.3084 116.2 19.9785H129.222C129.286 19.4997 129.318 19.0529 129.318 18.606C129.446 13.7227 125.616 9.47776 120.413 9.57351ZM116.328 16.7868C116.839 14.7441 118.339 13.5312 120.413 13.5312C122.488 13.5312 124.02 14.7121 124.658 16.7868H116.328Z" fill="white"></path> <path d="M136.372 12.1588L135.542 10.0523H132.542V27.2875H137.202V18.3188C137.202 15.5101 138.223 14.3611 140.872 14.3611H142.883V9.95651H141.351C139.212 9.95651 137.553 10.6906 136.372 12.1588Z" fill="white"></path> <path d="M159.001 10.0203L158.49 11.68C156.926 10.2757 155.043 9.57351 152.841 9.57351C150.256 9.57351 148.085 10.4353 146.394 12.1588C144.67 13.8823 143.808 16.0527 143.808 18.6379C143.808 21.2232 144.67 23.4255 146.394 25.149C148.085 26.9044 150.256 27.7662 152.841 27.7662C154.979 27.7662 156.863 27.096 158.426 25.7235L158.809 27.2555H162.48V10.0203H159.001ZM156.575 22.0211C155.682 22.9148 154.565 23.3617 153.224 23.3617C151.884 23.3617 150.734 22.9148 149.873 22.0211C148.979 21.1275 148.532 20.0104 148.532 18.6379C148.532 15.9569 150.543 13.9142 153.224 13.9142C154.565 13.9142 155.682 14.3611 156.575 15.2547C157.469 16.1484 157.916 17.2655 157.916 18.6379C157.916 20.0104 157.469 21.1275 156.575 22.0211Z" fill="white"></path> <path d="M62.1568 16.1101C62.2845 9.56712 56.9543 4.33273 50.2837 4.4604C46.8685 4.4604 44.0598 5.5775 41.7937 7.77977C39.5276 10.014 38.3786 12.7907 38.3786 16.1101C38.3786 19.4295 39.5276 22.2063 41.7937 24.4085C44.0598 26.6427 46.8685 27.7598 50.2837 27.7598C50.4161 27.7598 50.547 27.755 50.6778 27.7518H64.0287V24.0287H59.1773C61.1722 21.8951 62.1552 19.2571 62.1552 16.1117L62.1568 16.1101ZM43.2619 16.1101C43.2619 14.0993 43.9322 12.4077 45.3046 11.0353C46.6451 9.69479 48.3048 9.02454 50.3156 9.02454C52.3264 9.02454 53.9541 9.69479 55.2946 11.0353C56.6032 12.4077 57.2735 14.0993 57.2735 16.1101C57.2735 20.1955 54.2733 23.1957 50.2837 23.1957C48.3048 23.1957 46.6451 22.5254 45.3046 21.153C43.9322 19.8125 43.2619 18.1209 43.2619 16.1101Z" fill="white"></path> <path d="M16.075 6.60682C10.8534 6.60682 6.60682 10.8534 6.60682 16.075C6.60682 21.2966 10.8534 25.5384 16.075 25.5384C21.2966 25.5384 25.5384 21.2918 25.5384 16.075C25.5384 10.8582 21.2918 6.60682 16.075 6.60682ZM16.075 8.8059C19.8572 8.8059 22.9707 11.7151 23.3058 15.4127H21.0908C20.8163 13.2966 19.2268 11.5875 17.1729 11.1295V15.4127H14.9691V11.1295C12.9152 11.5859 11.3258 13.2966 11.0513 15.4127H8.83623C9.17295 11.7151 12.2865 8.8059 16.0718 8.8059H16.075ZM16.075 23.3377C12.5961 23.3377 9.68362 20.8817 8.97506 17.6118H11.2523C11.7965 19.3114 13.2152 20.6232 14.9723 21.0142V17.6118H17.1761V21.0142C18.938 20.6232 20.3551 19.3114 20.8961 17.6118H23.1733C22.4648 20.8817 19.5524 23.3377 16.0766 23.3377H16.075Z" fill="#00BFFF"></path> <path d="M27.7423 16.075C27.7423 9.64053 22.5063 4.40455 16.075 4.40455C9.64373 4.40455 4.40295 9.63894 4.40295 16.075C4.40295 22.5111 9.63894 27.7423 16.0734 27.7423C16.1468 27.7423 16.2202 27.7423 16.292 27.7391V27.7423H26.8598C24.0096 30.3834 20.1907 32 15.9968 32C7.16537 31.9984 0 24.833 0 15.9968C0 7.16058 7.16537 0 15.9984 0C24.8314 0 31.9952 7.16537 31.9952 15.9968C31.9952 19.5699 30.8223 22.8733 28.8418 25.5384H22.8893C25.8272 23.4159 27.7423 19.9657 27.7423 16.075Z" fill="#00BFFF"></path> </svg> 