<?xml version="1.0" encoding="UTF-8"?> <svg xmlns="http://www.w3.org/2000/svg" width="82" height="82" viewBox="0 0 82 82" fill="none"> <circle cx="41" cy="41" r="41" fill="white"></circle> <path d="M33.2162 54.5746L54.5746 41.0376L33.2162 27.4254V54.5746ZM40.9624 73C36.5503 73 32.4015 72.1727 28.5159 70.5182C24.6302 68.8637 21.2335 66.5825 18.3255 63.6745C15.4175 60.7665 13.1363 57.3698 11.4818 53.4841C9.82726 49.5985 9 45.4497 9 41.0376C9 36.5754 9.82726 32.4015 11.4818 28.5159C13.1363 24.6302 15.4175 21.246 18.3255 18.3631C21.2335 15.4802 24.6302 13.199 28.5159 11.5194C32.4015 9.8398 36.5503 9 40.9624 9C45.4246 9 49.5985 9.8398 53.4841 11.5194C57.3698 13.199 60.754 15.4802 63.6369 18.3631C66.5198 21.246 68.801 24.6302 70.4806 28.5159C72.1602 32.4015 73 36.5754 73 41.0376C73 45.4497 72.1602 49.5985 70.4806 53.4841C68.801 57.3698 66.5198 60.7665 63.6369 63.6745C60.754 66.5825 57.3698 68.8637 53.4841 70.5182C49.5985 72.1727 45.4246 73 40.9624 73Z" fill="#FF7E00"></path> </svg> 