<?xml version="1.0" encoding="UTF-8"?> <svg xmlns="http://www.w3.org/2000/svg" width="20" height="20" viewBox="0 0 20 20" fill="none"> <path d="M9.99888 18.6372C8.80368 18.6372 7.68088 18.411 6.63046 17.9586C5.58003 17.5061 4.6657 16.8908 3.88748 16.1125C3.10924 15.3343 2.4939 14.4196 2.04144 13.3684C1.58901 12.3172 1.36279 11.194 1.36279 9.99886C1.36279 8.80367 1.58902 7.68086 2.04146 6.63044C2.4939 5.58001 3.10924 4.66569 3.88748 3.88747C4.6657 3.10923 5.58041 2.49389 6.63161 2.04144C7.6828 1.589 8.80599 1.36278 10.0012 1.36278C11.1964 1.36278 12.3192 1.589 13.3696 2.04144C14.42 2.49389 15.3343 3.10923 16.1126 3.88747C16.8908 4.66569 17.5061 5.5804 17.9586 6.63159C18.411 7.68279 18.6373 8.80597 18.6373 10.0012C18.6373 11.1963 18.411 12.3192 17.9586 13.3696C17.5061 14.42 16.8908 15.3343 16.1126 16.1125C15.3343 16.8908 14.4196 17.5061 13.3684 17.9586C12.3172 18.411 11.1941 18.6372 9.99888 18.6372ZM10 16.8211C10.7982 16.8211 11.5501 16.6946 12.2556 16.4416C12.9611 16.1886 13.6052 15.8348 14.188 15.3804L13.0553 14.2477C12.6326 14.5593 12.1608 14.8008 11.6398 14.9722C11.1189 15.1435 10.5723 15.2292 10 15.2292C8.54748 15.2292 7.31281 14.7208 6.29602 13.7042C5.27924 12.6875 4.77086 11.453 4.77086 10.0006C4.77086 8.5482 5.27919 7.31348 6.29586 6.29642C7.31252 5.27937 8.54705 4.77084 9.99944 4.77084C11.4518 4.77084 12.6865 5.27923 13.7036 6.29601C14.7207 7.3128 15.2292 8.54747 15.2292 10C15.2292 10.5749 15.1401 11.1265 14.9619 11.6549C14.7837 12.1834 14.5387 12.6604 14.2269 13.0861L15.3546 14.2138C15.8124 13.631 16.1712 12.9833 16.4312 12.2706C16.6911 11.5579 16.8211 10.801 16.8211 10C16.8211 8.09903 16.1595 6.48694 14.8363 5.16374C13.5131 3.84051 11.901 3.1789 10 3.1789C8.09905 3.1789 6.48696 3.84051 5.16375 5.16374C3.84053 6.48694 3.17892 8.09903 3.17892 10C3.17892 11.901 3.84053 13.5131 5.16375 14.8363C6.48696 16.1595 8.09905 16.8211 10 16.8211ZM10 13.4081C10.3189 13.4081 10.6248 13.3674 10.9178 13.286C11.2108 13.2046 11.4857 13.0859 11.7423 12.9298L10.5363 11.7287C10.4502 11.7665 10.3619 11.7913 10.2715 11.8032C10.181 11.8152 10.0905 11.8211 10 11.8211C9.49922 11.8211 9.07049 11.6427 8.71386 11.2859C8.35723 10.9292 8.17892 10.5003 8.17892 9.99926C8.17892 9.49824 8.35731 9.0696 8.71408 8.71332C9.07086 8.35704 9.49976 8.1789 10.0008 8.1789C10.5018 8.1789 10.9304 8.35722 11.2867 8.71384C11.643 9.07048 11.8211 9.4992 11.8211 10C11.8211 10.1044 11.8135 10.2045 11.7983 10.3003C11.783 10.396 11.7565 10.4885 11.7188 10.5779L12.909 11.7631C13.0681 11.5051 13.1911 11.2292 13.2779 10.9353C13.3647 10.6415 13.4081 10.3297 13.4081 10C13.4081 9.06278 13.0744 8.26047 12.4072 7.59307C11.7399 6.92565 10.9377 6.59194 10.0007 6.59194C9.06365 6.59194 8.26127 6.92558 7.59354 7.59286C6.92582 8.26015 6.59196 9.06231 6.59196 9.99934C6.59196 10.9364 6.92567 11.7388 7.59309 12.4065C8.26049 13.0742 9.0628 13.4081 10 13.4081Z" fill="#9799BB"></path> </svg> 