<?xml version="1.0" encoding="UTF-8"?> <svg xmlns="http://www.w3.org/2000/svg" width="122" height="128" viewBox="0 0 122 128" fill="none"> <path d="M39.9022 90.71C37.154 93.4582 36.3724 97.6899 37.9574 101.24C38.3471 102.113 39.491 102.32 40.1637 101.648L43.7226 98.0891L45.879 100.245L42.32 103.804C41.6465 104.477 41.8554 105.621 42.7277 106.01C46.2766 107.595 50.5088 106.815 53.2581 104.066C55.7797 101.544 56.6454 97.7746 55.5476 94.4278L61.276 88.6996L67.0044 94.428C65.9069 97.7746 66.7727 101.544 69.2935 104.065C72.0528 106.825 76.2872 107.589 79.8243 106.01C80.6966 105.621 80.9052 104.477 80.2317 103.804L76.6728 100.245L78.8292 98.0891L82.3881 101.648C82.5443 101.804 82.7359 101.92 82.9467 101.985C83.1575 102.051 83.3811 102.064 83.5981 102.024C83.8153 101.984 84.0194 101.892 84.1929 101.755C84.3664 101.618 84.5041 101.442 84.5941 101.24C86.1791 97.6899 85.3975 93.4582 82.6496 90.71C80.1283 88.1887 76.3585 87.3227 73.0117 88.4205L67.2836 82.6921L73.0123 76.9637C76.3585 78.0617 80.1283 77.1952 82.6499 74.6741C85.398 71.9254 86.1794 67.6935 84.5944 64.1438C84.2063 63.275 83.0644 63.0599 82.3879 63.7364L78.8292 67.295L76.6728 65.1389L80.232 61.5794C80.9066 60.9051 80.6947 59.7621 79.8241 59.3732C76.2744 57.7879 72.0422 58.5698 69.2935 61.3183C66.7724 63.8399 65.9064 67.6096 67.0044 70.9558L61.2758 76.6845L55.5473 70.9564C56.6451 67.6096 55.7794 63.8399 53.2578 61.3188C50.5096 58.5701 46.2777 57.7884 42.7272 59.3737C41.8576 59.7624 41.6441 60.9046 42.3195 61.58L45.8784 65.1389L43.7221 67.295L40.1631 63.7364C39.4888 63.062 38.3461 63.2723 37.9569 64.1441C36.3719 67.6943 37.1532 71.9259 39.9017 74.6741C42.423 77.1963 46.1925 78.0617 49.5395 76.9639L55.2677 82.6921L49.5392 88.4205C46.1933 87.3221 42.4233 88.1884 39.9022 90.71ZM71.7116 90.9712C71.9064 91.1662 72.1559 91.2974 72.427 91.3475C72.698 91.3976 72.9779 91.3642 73.2296 91.2517C75.7561 90.1232 78.7679 90.6793 80.7239 92.6355C82.1648 94.0764 82.8459 96.091 82.6537 98.0619L79.7919 95.2004C79.5366 94.9451 79.1903 94.8016 78.8292 94.8016C78.4682 94.8015 78.1218 94.9449 77.8665 95.2001L73.7841 99.2822C73.5289 99.5377 73.3856 99.8839 73.3856 100.245C73.3856 100.606 73.5289 100.952 73.7841 101.208L76.6461 104.069C74.6746 104.262 72.6607 103.581 71.2197 102.14C69.2638 100.184 68.7079 97.1721 69.836 94.6451C69.9483 94.3935 69.9817 94.1136 69.9316 93.8426C69.8815 93.5716 69.7504 93.3222 69.5554 93.1273L63.202 86.7736L65.3584 84.6175L71.7116 90.9712ZM50.8405 74.4127C50.6455 74.2178 50.396 74.0867 50.1249 74.0366C49.8538 73.9865 49.5739 74.0198 49.3222 74.1321C46.7957 75.261 43.7847 74.7049 41.8282 72.7484C40.3872 71.3074 39.7061 69.2929 39.8987 67.322L42.7601 70.1835C43.0155 70.4389 43.3618 70.5824 43.7229 70.5824C44.0841 70.5825 44.4305 70.4391 44.6859 70.1837L48.768 66.1016C49.0233 65.8463 49.1667 65.5 49.1667 65.1389C49.1667 64.7778 49.0233 64.4315 48.768 64.1762L45.9062 61.3144C47.8769 61.1208 49.8917 61.803 51.3326 63.2445C53.2886 65.2002 53.8447 68.2117 52.7164 70.7385C52.604 70.9902 52.5706 71.2701 52.6207 71.5411C52.6708 71.8122 52.802 72.0616 52.9969 72.2565L59.3506 78.6102L57.1945 80.7666L50.8405 74.4127ZM50.8405 90.9712L69.556 72.2557C69.7508 72.0608 69.882 71.8113 69.932 71.5402C69.982 71.2692 69.9486 70.9893 69.8362 70.7377C68.7079 68.2115 69.264 65.1997 71.2197 63.2437C72.6612 61.8025 74.6755 61.1213 76.6464 61.3136L73.7846 64.1759C73.5293 64.4313 73.3858 64.7776 73.3858 65.1388C73.3858 65.4999 73.5293 65.8463 73.7846 66.1016L77.8665 70.1832C77.9929 70.3097 78.143 70.41 78.3083 70.4785C78.4735 70.5469 78.6506 70.5822 78.8295 70.5822C79.0083 70.5822 79.1854 70.5469 79.3506 70.4785C79.5159 70.41 79.666 70.3097 79.7925 70.1832L82.6539 67.3217C82.8462 69.2926 82.1651 71.3069 80.7244 72.7478C78.7679 74.7041 75.7564 75.2602 73.2301 74.1319C72.9785 74.0193 72.6986 73.9858 72.4275 74.0359C72.1564 74.086 71.9069 74.2173 71.7121 74.4124L52.9966 93.1273C52.8017 93.3223 52.6705 93.5717 52.6205 93.8428C52.5704 94.1138 52.6037 94.3937 52.7161 94.6454C53.8444 97.1719 53.2883 100.184 51.3323 102.14C49.8914 103.581 47.8777 104.261 45.9062 104.069L48.768 101.208C49.0233 100.952 49.1667 100.606 49.1667 100.245C49.1667 99.8839 49.0233 99.5376 48.768 99.2822L44.6859 95.2001C44.4304 94.9449 44.0841 94.8015 43.7229 94.8016C43.3618 94.8016 43.0155 94.9451 42.7601 95.2004L39.8987 98.0619C39.7061 96.091 40.3872 94.0764 41.8282 92.6355C43.7841 90.6793 46.7954 90.1234 49.3225 91.2517C49.5741 91.3642 49.854 91.3975 50.1251 91.3474C50.3961 91.2973 50.6456 91.1662 50.8405 90.9712Z" fill="white"></path> <path d="M34.0426 32.6808C35.5467 32.6808 36.766 31.4615 36.766 29.9574C36.766 28.4533 35.5467 27.234 34.0426 27.234C32.5386 27.234 31.3192 28.4533 31.3192 29.9574C31.3192 31.4615 32.5386 32.6808 34.0426 32.6808Z" fill="white"></path> <path d="M25.8724 32.6808C27.3765 32.6808 28.5958 31.4615 28.5958 29.9574C28.5958 28.4533 27.3765 27.234 25.8724 27.234C24.3683 27.234 23.149 28.4533 23.149 29.9574C23.149 31.4615 24.3683 32.6808 25.8724 32.6808Z" fill="white"></path> <path d="M17.7022 32.6808C19.2062 32.6808 20.4256 31.4615 20.4256 29.9574C20.4256 28.4533 19.2062 27.234 17.7022 27.234C16.1981 27.234 14.9787 28.4533 14.9787 29.9574C14.9787 31.4615 16.1981 32.6808 17.7022 32.6808Z" fill="white"></path> <path d="M21.7873 16.3404C24.7907 16.3404 27.2341 13.897 27.2341 10.8936C27.2341 7.89025 24.7907 5.44681 21.7873 5.44681C18.7839 5.44681 16.3405 7.89025 16.3405 10.8936C16.3405 13.897 18.7839 16.3404 21.7873 16.3404ZM21.7873 8.17021C23.289 8.17021 24.5107 9.39193 24.5107 10.8936C24.5107 12.3953 23.289 13.617 21.7873 13.617C20.2856 13.617 19.0639 12.3953 19.0639 10.8936C19.0639 9.39193 20.2856 8.17021 21.7873 8.17021ZM97.3618 14.9787C101.492 14.9787 104.851 11.6191 104.851 7.48936C104.851 3.35959 101.492 0 97.3618 0C93.232 0 89.8724 3.35959 89.8724 7.48936C89.8724 11.6191 93.232 14.9787 97.3618 14.9787ZM97.3618 2.7234C99.9896 2.7234 102.128 4.86155 102.128 7.48936C102.128 10.1172 99.9896 12.2553 97.3618 12.2553C94.734 12.2553 92.5958 10.1172 92.5958 7.48936C92.5958 4.86155 94.734 2.7234 97.3618 2.7234Z" fill="white"></path> <path d="M2.04255 23.1489C3.17062 23.1489 4.08511 22.2345 4.08511 21.1064C4.08511 19.9783 3.17062 19.0638 2.04255 19.0638C0.914482 19.0638 0 19.9783 0 21.1064C0 22.2345 0.914482 23.1489 2.04255 23.1489Z" fill="white"></path> <path d="M40.1703 9.53192C41.2984 9.53192 42.2128 8.61744 42.2128 7.48936C42.2128 6.36129 41.2984 5.44681 40.1703 5.44681C39.0422 5.44681 38.1277 6.36129 38.1277 7.48936C38.1277 8.61744 39.0422 9.53192 40.1703 9.53192Z" fill="white"></path> <path d="M78.2978 12.2553C79.4259 12.2553 80.3403 11.3408 80.3403 10.2128C80.3403 9.0847 79.4259 8.17022 78.2978 8.17022C77.1697 8.17022 76.2552 9.0847 76.2552 10.2128C76.2552 11.3408 77.1697 12.2553 78.2978 12.2553Z" fill="white"></path> <path d="M53.7873 17.7021C54.9154 17.7021 55.8298 16.7877 55.8298 15.6596C55.8298 14.5315 54.9154 13.617 53.7873 13.617C52.6592 13.617 51.7447 14.5315 51.7447 15.6596C51.7447 16.7877 52.6592 17.7021 53.7873 17.7021Z" fill="white"></path> <path d="M119.149 23.1489C120.277 23.1489 121.192 22.2345 121.192 21.1064C121.192 19.9783 120.277 19.0638 119.149 19.0638C118.021 19.0638 117.106 19.9783 117.106 21.1064C117.106 22.2345 118.021 23.1489 119.149 23.1489Z" fill="white"></path> <path d="M105.668 20.4255H14.1616C9.3562 20.4255 5.44675 24.335 5.44675 29.1404V119.285C5.44675 124.091 9.3562 128 14.1616 128H105.668C110.473 128 114.383 124.091 114.383 119.285V29.1404C114.383 24.335 110.473 20.4255 105.668 20.4255ZM51.7446 31.3191H111.66V36.766H51.7446V31.3191ZM111.633 28.5957H51.7446V23.1489H105.668C108.788 23.1489 111.357 25.5466 111.633 28.5957ZM14.1616 23.1489H49.0212V36.766H8.17016V29.1404C8.17016 25.8367 10.8579 23.1489 14.1616 23.1489ZM105.668 125.277H14.1616C10.8579 125.277 8.17016 122.589 8.17016 119.285V39.4894H111.66V119.285C111.66 122.589 108.972 125.277 105.668 125.277Z" fill="white"></path> <path d="M102.128 47.6596H17.7022C17.3411 47.6596 16.9947 47.803 16.7393 48.0584C16.484 48.3138 16.3405 48.6601 16.3405 49.0213V115.745C16.3405 116.106 16.484 116.452 16.7393 116.708C16.9947 116.963 17.3411 117.106 17.7022 117.106H102.128C102.489 117.106 102.835 116.963 103.091 116.708C103.346 116.452 103.489 116.106 103.489 115.745V49.0213C103.489 48.6601 103.346 48.3138 103.091 48.0584C102.835 47.803 102.489 47.6596 102.128 47.6596ZM100.766 114.383H19.0639V50.383H100.766V114.383Z" fill="white"></path> </svg> 