<?xml version="1.0" encoding="UTF-8"?> <svg xmlns="http://www.w3.org/2000/svg" width="123" height="128" viewBox="0 0 123 128" fill="none"> <path d="M61.2766 96.6808C62.7807 96.6808 64 95.4615 64 93.9574C64 92.4533 62.7807 91.234 61.2766 91.234C59.7725 91.234 58.5532 92.4533 58.5532 93.9574C58.5532 95.4615 59.7725 96.6808 61.2766 96.6808Z" fill="white"></path> <path d="M114.201 16.3404H8.35186C3.74659 16.3404 0 20.087 0 24.6923V95.1378C0 99.7428 3.74659 103.489 8.35186 103.489H39.4894V103.626C39.4894 107.305 42.4827 110.298 46.1617 110.298H50.383V118.468H40.1702C37.5424 118.468 35.4043 120.606 35.4043 123.234C35.4043 125.862 37.5424 128 40.1702 128H82.383C85.0108 128 87.1489 125.862 87.1489 123.234C87.1489 120.606 85.0108 118.468 82.383 118.468H72.1702V110.298H76.3915C80.0708 110.298 83.0638 107.305 83.0638 103.626V103.489H114.202C118.807 103.489 122.553 99.7428 122.553 95.1375V24.6923C122.553 20.087 118.807 16.3404 114.201 16.3404ZM84.4255 123.234C84.4255 124.36 83.5094 125.277 82.383 125.277H40.1702C39.0438 125.277 38.1277 124.36 38.1277 123.234C38.1277 122.108 39.0438 121.191 40.1702 121.191H82.383C83.5094 121.191 84.4255 122.108 84.4255 123.234ZM69.4468 118.468H53.1064V110.298H69.4468V118.468ZM80.3404 103.626C80.3404 105.803 78.5688 107.574 76.3915 107.574H46.1617C43.9843 107.574 42.2128 105.803 42.2128 103.626V103.489H80.3404V103.626ZM119.83 95.1375C119.83 98.2408 117.305 100.766 114.202 100.766H8.35186C5.24827 100.766 2.7234 98.2411 2.7234 95.1378V24.6923C2.7234 21.5887 5.24827 19.0638 8.35186 19.0638H114.201C117.305 19.0638 119.83 21.5887 119.83 24.6923V95.1375Z" fill="white"></path> <path d="M113.021 24.5106H9.53191C9.17077 24.5106 8.82441 24.6541 8.56905 24.9095C8.31368 25.1648 8.17021 25.5112 8.17021 25.8723V85.7872C8.17021 86.1484 8.31368 86.4947 8.56905 86.7501C8.82441 87.0055 9.17077 87.1489 9.53191 87.1489H113.021C113.382 87.1489 113.729 87.0055 113.984 86.7501C114.24 86.4947 114.383 86.1484 114.383 85.7872V25.8723C114.383 25.5112 114.24 25.1648 113.984 24.9095C113.729 24.6541 113.382 24.5106 113.021 24.5106ZM10.8936 84.4255V54.4681H31.3191C31.6803 54.4681 32.0266 54.3246 32.282 54.0693C32.5374 53.8139 32.6809 53.4675 32.6809 53.1064C32.6809 52.7452 32.5374 52.3989 32.282 52.1435C32.0266 51.8881 31.6803 51.7447 31.3191 51.7447H10.8936V49.0213H31.3191C31.6803 49.0213 32.0266 48.8778 32.282 48.6224C32.5374 48.3671 32.6809 48.0207 32.6809 47.6596C32.6809 47.2984 32.5374 46.9521 32.282 46.6967C32.0266 46.4413 31.6803 46.2979 31.3191 46.2979H10.8936V43.5745H31.3191C31.6803 43.5745 32.0266 43.431 32.282 43.1756C32.5374 42.9203 32.6809 42.5739 32.6809 42.2128C32.6809 41.8516 32.5374 41.5053 32.282 41.2499C32.0266 40.9945 31.6803 40.8511 31.3191 40.8511H10.8936V38.1277H31.3191C31.6803 38.1277 32.0266 37.9842 32.282 37.7288C32.5374 37.4735 32.6809 37.1271 32.6809 36.766C32.6809 36.4048 32.5374 36.0585 32.282 35.8031C32.0266 35.5477 31.6803 35.4043 31.3191 35.4043H10.8936V27.234H111.66V35.4043H91.234C90.8729 35.4043 90.5265 35.5477 90.2712 35.8031C90.0158 36.0585 89.8723 36.4048 89.8723 36.766C89.8723 37.1271 90.0158 37.4735 90.2712 37.7288C90.5265 37.9842 90.8729 38.1277 91.234 38.1277H111.66V40.8511H91.234C90.8729 40.8511 90.5265 40.9945 90.2712 41.2499C90.0158 41.5053 89.8723 41.8516 89.8723 42.2128C89.8723 42.5739 90.0158 42.9203 90.2712 43.1756C90.5265 43.431 90.8729 43.5745 91.234 43.5745H111.66V46.2979H91.234C90.8729 46.2979 90.5265 46.4413 90.2712 46.6967C90.0158 46.9521 89.8723 47.2984 89.8723 47.6596C89.8723 48.0207 90.0158 48.3671 90.2712 48.6224C90.5265 48.8778 90.8729 49.0213 91.234 49.0213H111.66V51.7447H91.234C90.8729 51.7447 90.5265 51.8881 90.2712 52.1435C90.0158 52.3989 89.8723 52.7452 89.8723 53.1064C89.8723 53.4675 90.0158 53.8139 90.2712 54.0693C90.5265 54.3246 90.8729 54.4681 91.234 54.4681H111.66V84.4255H10.8936Z" fill="white"></path> <path d="M113.702 113.021C114.83 113.021 115.745 112.107 115.745 110.979C115.745 109.851 114.83 108.936 113.702 108.936C112.574 108.936 111.66 109.851 111.66 110.979C111.66 112.107 112.574 113.021 113.702 113.021Z" fill="white"></path> <path d="M33.3617 110.298C34.4898 110.298 35.4043 109.383 35.4043 108.255C35.4043 107.127 34.4898 106.213 33.3617 106.213C32.2336 106.213 31.3191 107.127 31.3191 108.255C31.3191 109.383 32.2336 110.298 33.3617 110.298Z" fill="white"></path> <path d="M112.34 9.53191C113.468 9.53191 114.383 8.61743 114.383 7.48936C114.383 6.36129 113.468 5.44681 112.34 5.44681C111.212 5.44681 110.298 6.36129 110.298 7.48936C110.298 8.61743 111.212 9.53191 112.34 9.53191Z" fill="white"></path> <path d="M51.0638 5.44681C52.1919 5.44681 53.1064 4.53233 53.1064 3.40426C53.1064 2.27618 52.1919 1.3617 51.0638 1.3617C49.9358 1.3617 49.0213 2.27618 49.0213 3.40426C49.0213 4.53233 49.9358 5.44681 51.0638 5.44681Z" fill="white"></path> <path d="M26.5532 12.2553C27.6813 12.2553 28.5957 11.3408 28.5957 10.2128C28.5957 9.08469 27.6813 8.17021 26.5532 8.17021C25.4251 8.17021 24.5106 9.08469 24.5106 10.2128C24.5106 11.3408 25.4251 12.2553 26.5532 12.2553Z" fill="white"></path> <path d="M3.40426 114.383C4.53233 114.383 5.44681 113.468 5.44681 112.34C5.44681 111.212 4.53233 110.298 3.40426 110.298C2.27618 110.298 1.3617 111.212 1.3617 112.34C1.3617 113.468 2.27618 114.383 3.40426 114.383Z" fill="white"></path> <path d="M96 118.468C97.1281 118.468 98.0425 117.554 98.0425 116.426C98.0425 115.297 97.1281 114.383 96 114.383C94.8719 114.383 93.9574 115.297 93.9574 116.426C93.9574 117.554 94.8719 118.468 96 118.468Z" fill="white"></path> <path d="M19.0638 108.936C13.8079 108.936 9.53191 113.212 9.53191 118.468C9.53191 123.724 13.8079 128 19.0638 128C24.3197 128 28.5957 123.724 28.5957 118.468C28.5957 113.212 24.3197 108.936 19.0638 108.936ZM19.0638 125.277C15.3096 125.277 12.2553 122.222 12.2553 118.468C12.2553 114.714 15.3096 111.66 19.0638 111.66C22.818 111.66 25.8723 114.714 25.8723 118.468C25.8723 122.222 22.818 125.277 19.0638 125.277ZM13.617 10.8936C16.6204 10.8936 19.0638 8.45018 19.0638 5.44681C19.0638 2.44344 16.6204 0 13.617 0C10.6137 0 8.17021 2.44344 8.17021 5.44681C8.17021 8.45018 10.6137 10.8936 13.617 10.8936ZM13.617 2.7234C15.1187 2.7234 16.3404 3.94512 16.3404 5.44681C16.3404 6.94849 15.1187 8.17021 13.617 8.17021C12.1153 8.17021 10.8936 6.94849 10.8936 5.44681C10.8936 3.94512 12.1153 2.7234 13.617 2.7234ZM77.6549 61.8131C82.1425 53.8869 80.862 43.8373 74.326 37.3016C66.5006 29.4759 53.742 29.2532 45.6734 37.0721C37.6056 44.8901 37.3793 57.8271 45.1685 65.9113C51.9435 72.9426 62.2156 73.9069 69.9517 69.5165L78.1775 77.742C80.3053 79.8701 83.7518 79.8715 85.8804 77.7423C88.0084 75.6145 88.0098 72.1678 85.8804 70.0394L77.6549 61.8131ZM82.0292 76.614C81.6714 76.615 81.317 76.545 80.9864 76.4081C80.6559 76.2711 80.3558 76.07 80.1035 75.8163L71.1239 66.837C70.9043 66.6173 70.6161 66.4794 70.3073 66.446C69.9985 66.4126 69.6876 66.4858 69.4261 66.6534C62.6239 71.0163 53.2376 70.36 47.1299 64.021C40.3794 57.0153 40.5763 45.8033 47.5686 39.0277C54.4011 32.4066 65.4595 32.2865 72.4006 39.2271C78.2401 45.0663 79.2462 54.3442 74.7923 61.2872C74.6247 61.5487 74.5515 61.8597 74.5848 62.1686C74.6182 62.4774 74.7562 62.7656 74.9759 62.9853L83.9552 71.9649C84.2089 72.2171 84.41 72.5172 84.5469 72.8477C84.6839 73.1782 84.7539 73.5326 84.7529 73.8903C84.7531 74.248 84.6827 74.6023 84.5459 74.9328C84.4091 75.2634 84.2085 75.5637 83.9555 75.8166C83.7026 76.0696 83.4023 76.2702 83.0717 76.407C82.7412 76.5438 82.3869 76.6142 82.0292 76.614Z" fill="white"></path> <path d="M59.8833 38.9253C52.7984 38.9253 47.064 44.6589 47.064 51.7447C47.064 58.8296 52.7975 64.564 59.8833 64.564C66.9682 64.564 72.7026 58.8304 72.7026 51.7447C72.7026 44.66 66.9691 38.9253 59.8833 38.9253ZM59.8833 61.8406C54.3039 61.8406 49.7874 57.3252 49.7874 51.7447C49.7874 46.1652 54.3028 41.6487 59.8833 41.6487C65.4627 41.6487 69.9792 46.1642 69.9792 51.7447C69.9792 57.3241 65.4638 61.8406 59.8833 61.8406Z" fill="white"></path> </svg> 