<svg id="Layer_1" data-name="Layer 1" xmlns="http://www.w3.org/2000/svg" viewBox="0 0 72 72"><defs><style>.cls-1{fill:#74a5bf;}.cls-2{fill:#e2e3e4;}</style></defs><path class="cls-1" d="M66.65,23.27a1,1,0,0,0-.55-.53L49.71,16.29V10.73a1,1,0,0,0-1-1H20.4a1,1,0,0,0-1,1v9.48H9.16a1,1,0,0,0-1,1V61.27a1,1,0,0,0,1,1H37.47a1,1,0,0,0,1-1v-4.2l12.22,4.81a1.15,1.15,0,0,0,.36.07,1,1,0,0,0,.93-.64L66.66,24A1,1,0,0,0,66.65,23.27ZM21.4,11.73H47.71V49.79H21.4ZM36.47,60.27H10.16V22.21H19.4V50.79a1,1,0,0,0,1,1h4.67l11.4,4.49Zm14-.62-12.63-5h0l-7.33-2.89H48.71a1,1,0,0,0,1-1V18.44l14.72,5.79Z"/><rect class="cls-2" x="23.87" y="31.49" width="21.38" height="14.04"/><rect class="cls-1" x="23.87" y="26.56" width="21.38" height="1.63"/><rect class="cls-1" x="23.87" y="21.75" width="21.38" height="1.62"/><rect class="cls-1" x="23.87" y="16.93" width="21.38" height="1.63"/></svg>