<?xml version="1.0" encoding="UTF-8"?>
<svg width="19px" height="17px" viewBox="0 0 19 17" version="1.1" xmlns="http://www.w3.org/2000/svg" xmlns:xlink="http://www.w3.org/1999/xlink">
    <!-- Generator: Sketch 47.1 (45422) - http://www.bohemiancoding.com/sketch -->
    <title>basket</title>
    <desc>Created with Sketch.</desc>
    <defs></defs>
    <g id="Dengie" stroke="none" stroke-width="1" fill="none" fill-rule="evenodd">
        <g id="SPRITES" transform="translate(-300.000000, -308.000000)">
            <g id="basket" transform="translate(299.000000, 306.000000)">
                <polygon id="Shape" points="0 0 21 0 21 21 0 21"></polygon>
                <path d="M14.9995455,8.25184405 L11.2168182,2.37618546 C11.0527273,2.12539515 10.7763636,2 10.5,2 C10.2236364,2 9.94727273,2.12539515 9.78318182,2.38514226 L6.00045455,8.25184405 L1.86363636,8.25184405 C1.38863636,8.25184405 1,8.65489989 1,9.14752371 C1,9.22813488 1.00863636,9.30874605 1.03454545,9.38935722 L3.22818182,17.6923077 C3.42681818,18.4446786 4.09181818,19 4.88636364,19 L16.1136364,19 C16.9081818,19 17.5731818,18.4446786 17.7804545,17.6923077 L19.9740909,9.38935722 L20,9.14752371 C20,8.65489989 19.6113636,8.25184405 19.1363636,8.25184405 L14.9995455,8.25184405 Z M7.90909091,8.25184405 L10.5,4.31085353 L13.0909091,8.25184405 L7.90909091,8.25184405 Z M10.5,15.4172813 C9.55,15.4172813 8.77272727,14.6111697 8.77272727,13.625922 C8.77272727,12.6406744 9.55,11.8345627 10.5,11.8345627 C11.45,11.8345627 12.2272727,12.6406744 12.2272727,13.625922 C12.2272727,14.6111697 11.45,15.4172813 10.5,15.4172813 Z" id="Shape" fill="#000000" fill-rule="nonzero"></path>
            </g>
        </g>
    </g>
</svg>