<?xml version="1.0" encoding="UTF-8"?>
<svg width="40px" height="40px" viewBox="0 0 40 40" version="1.1" xmlns="http://www.w3.org/2000/svg" xmlns:xlink="http://www.w3.org/1999/xlink">
    <!-- Generator: Sketch 47.1 (45422) - http://www.bohemiancoding.com/sketch -->
    <title>dengie-avatar</title>
    <desc>Created with Sketch.</desc>
    <defs></defs>
    <g id="Dengie" stroke="none" stroke-width="1" fill="none" fill-rule="evenodd">
        <g id="SPRITES" transform="translate(-771.000000, -60.000000)">
            <g id="dengie-avatar" transform="translate(771.000000, 60.000000)">
                <circle id="Oval" fill="#20812F" cx="20" cy="20" r="20"></circle>
                <path d="M20.173913,3.29256017 C29.4822851,3.29256017 37.0552659,10.8654117 37.0552659,20.173913 C37.0552659,23.6551654 35.9956251,26.8936749 34.1824217,29.5841389 C33.9016776,28.7695674 33.5802179,28.1219948 33.2131308,27.755554 C31.2145743,25.7554464 27.7412066,25.9291665 24.479431,22.9561488 C24.4994657,22.9317194 23.7269024,22.2020692 23.6980784,22.2310226 L23.6980784,20.3543544 C24.5723661,19.1339191 25.1544059,17.4780203 25.4973221,15.8297476 C25.5322212,15.9043283 25.5779779,15.9561599 25.6327824,15.9654664 C25.8368777,16.0002362 26.0928046,15.5311662 26.2011211,14.9157783 C26.3059478,14.3201665 26.2330474,13.8159388 26.042524,13.7505353 C26.3334793,12.3048067 26.1826375,9.99681127 25.5870258,8.21889476 C24.9852098,6.41835844 22.3803133,5.66880279 20.3571981,5.61399824 L20.3571981,5.6108961 L20.3406533,5.6108961 L20.2444868,5.6108961 L20.2309149,5.6108961 L20.2172138,5.6108961 L20.1213058,5.6108961 L20.103727,5.6108961 L20.103727,5.61399824 C18.0812581,5.66880279 15.4762324,6.41835844 14.8753211,8.21889476 C14.2789339,9.99681127 14.1288676,12.3048067 14.4191766,13.7505353 C14.2278777,13.8159388 14.1554944,14.3201665 14.2607088,14.9157783 C14.3696716,15.5311662 14.6237889,16.0002362 14.828789,15.9654664 C14.8844983,15.9561599 14.9285746,15.9043283 14.9643785,15.8297476 C15.3072947,17.4780203 15.8898516,19.1339191 16.7636223,20.3543544 L16.7636223,22.2310226 C16.7346689,22.2020692 15.9614594,22.9317194 15.9820111,22.9561488 C12.7212696,25.9291665 9.24803116,25.7554464 7.24934537,27.755554 C6.865455,28.1386688 6.53145745,28.8282497 6.24166546,29.6951698 C4.3821884,26.9828615 3.29256017,23.7033778 3.29256017,20.173913 C3.29256017,10.8654117 10.865541,3.29256017 20.173913,3.29256017 M20.173913,2 C10.1528233,2 2,10.1528233 2,20.173913 C2,30.1948735 10.1528233,38.3476968 20.173913,38.3476968 C30.1950028,38.3476968 38.3478261,30.1948735 38.3478261,20.173913 C38.3478261,10.1528233 30.1950028,2 20.173913,2" id="Fill-1" fill="#FFFFFF"></path>
            </g>
        </g>
    </g>
</svg>