<?xml version="1.0" encoding="UTF-8"?> <svg xmlns="http://www.w3.org/2000/svg" width="117.699" height="51.73" viewBox="0 0 117.699 51.73"><g transform="translate(-762.509 -2263.11)"><path d="M21.42,9.39c6.02,0,8.89,2.87,8.89,7.14,0,5.11-2.17,7.14-8.33,7.14H19.74c-.42,6.44,2.73,6.86,4.2,7.07,4.9.56,7.07,3.22,7.07,8.12,0,4.34-2.87,7.7-9.59,7.7-7,0-14.49-2.03-14.49-9.66-8.26,10.01-.84,16.94,14.49,16.94,11.34,0,18.97-5.53,18.97-13.93v-2.1c0-4.48-2.52-9.45-7.07-10.71,4.06-1.12,6.37-5.53,6.37-9.87V15.48c0-8.4-7.63-13.37-18.27-13.37C6.79,2.11-.42,10.09,7.63,18.7,7.56,11.14,15.12,9.39,21.42,9.39Zm64.61,6.44c0-9.17-7.63-13.72-18.97-13.72S48.09,6.66,48.09,15.83V40.12c0,9.17,7.63,13.72,18.97,13.72s18.97-4.55,18.97-13.72ZM76.65,39.07c0,5.53-2.87,7.84-9.59,7.84s-9.59-2.31-9.59-7.84V16.88c0-5.53,2.87-7.84,9.59-7.84s9.59,2.31,9.59,7.84Z" transform="translate(759 2261)" fill="#fff"></path><path d="M13.79,45.44c0,4.97,8.54,3.22,8.54,3.22V38.65h5.74c5.53,0,3.92-7.14,3.92-7.14H22.33V25.77c0-5.11-8.54-3.22-8.54-3.22v8.96H8.4c-5.46,0-3.99,7.14-3.99,7.14h9.38Z" transform="translate(848 2261)" fill="#fff"></path></g></svg> 