<?xml version="1.0" encoding="UTF-8"?> <svg xmlns="http://www.w3.org/2000/svg" xmlns:xlink="http://www.w3.org/1999/xlink" width="245.046" height="38.49" viewBox="0 0 245.046 38.49"><defs><clipPath id="a"><rect width="35.593" height="38.49" fill="#95a0ac"></rect></clipPath></defs><g transform="translate(-496.231 -443)"><g transform="translate(496.231 443)"><g transform="translate(0 0)"><g clip-path="url(#a)"><path d="M35.585,19.251q0,9.419.007,18.838c0,.306-.057.4-.386.4Q17.8,38.476.385,38.49c-.328,0-.385-.094-.385-.4Q.012,19.236,0,.382C0,.093.061,0,.37,0Q17.814.013,35.258,0c.279,0,.335.08.335.347q-.012,9.452-.006,18.9ZM.532,19.214q0,9.155-.007,18.311c0,.3.076.373.376.373q16.9-.011,33.8,0c.289,0,.363-.069.363-.36q-.011-18.327,0-36.654c0-.269-.067-.352-.345-.352q-16.9.011-33.8,0C.6.535.524.623.525.936q.014,9.139.007,18.278" transform="translate(0 0)" fill="#95a0ac"></path><path d="M20.778,35.99q0-7.43,0-14.861c0-.564,0-.565.545-.565q13.449,0,26.9-.006c.338,0,.408.092.408.415q-.014,15.074,0,30.149c0,.227-.05.293-.285.293q-13.63-.009-27.26,0c-.237,0-.311-.046-.31-.3q.014-7.562.007-15.124Zm27.508-.035h0q0-7.364,0-14.727c0-.241-.039-.338-.317-.338q-13.25.013-26.5,0c-.293,0-.364.079-.364.365q.013,14.744,0,29.488c0,.28.078.338.347.338q13.168-.011,26.337-.005c.088,0,.176-.007.263,0,.177.017.234-.068.223-.232-.007-.109,0-.219,0-.329q0-7.282,0-14.563" transform="translate(-16.915 -16.743)" fill="#95a0ac"></path><path d="M91.314,43.524a3.323,3.323,0,0,1-3.833-.931,3.126,3.126,0,0,1-.683-2.077,2.983,2.983,0,0,1,1.624-2.7,3.377,3.377,0,0,1,4.165.777,3.183,3.183,0,0,1,.62,2.623,2.664,2.664,0,0,1-.574,1.32c-.119.141-.041.21.062.319a17.893,17.893,0,0,1,1.242,1.425H92.489a.377.377,0,0,1-.3-.152c-.587-.67-1.182-1.334-1.776-2-.3-.332-.6-.662-.947-1.05.576,0,1.094-.023,1.609.013.167.012.275.226.385.37.14.183.257.114.324-.048a1.954,1.954,0,0,0-.871-2.55,1.927,1.927,0,1,0-.875,3.653.718.718,0,0,1,.679.311c.172.237.383.447.6.7" transform="translate(-70.687 -30.469)" fill="#95a0ac"></path><path d="M65.35,44.285c-.441,0-.866,0-1.292,0a.234.234,0,0,1-.237-.13c-.574-1-1.153-2-1.729-3.007A.98.98,0,0,1,62.04,41c.3,0,.584.006.865,0a.805.805,0,0,0,.833-1.084.776.776,0,0,0-.793-.494c-.263-.01-.528.017-.789-.007s-.329.084-.327.335c.011,1.391,0,2.783.014,4.174,0,.3-.083.406-.38.366s-.691.127-.883-.071c-.174-.181-.045-.563-.046-.857-.006-1.633,0-3.266-.01-4.9,0-.184.044-.251.235-.249.888.014,1.778-.021,2.662.034a1.911,1.911,0,0,1,1.7,1.76,1.87,1.87,0,0,1-.949,1.888c-.2.112-.049.246.015.356.374.645.754,1.286,1.131,1.93a.532.532,0,0,1,.031.1" transform="translate(-49.262 -31.122)" fill="#95a0ac"></path><path d="M38.966,41.124c0-.9.007-1.8,0-2.693,0-.231.038-.34.3-.318.325.028.753-.105.953.057s.064.615.066.94c.008,1.182.01,2.364,0,3.546,0,.251.05.344.324.333.59-.024,1.182,0,1.773-.013.2,0,.262.052.268.257.031.951.038.951-.914.95-.832,0-1.664-.005-2.5,0-.206,0-.278-.046-.274-.272.015-.93.006-1.861.006-2.791" transform="translate(-31.729 -31.019)" fill="#95a0ac"></path><path d="M123.533,38.314c.186,0,.372,0,.558,0,.117,0,.19.011.128.166q-.86,2.153-1.708,4.312c-.236.6-.465,1.2-.678,1.814-.066.189-.1.225-.239.059-.247-.3-.505-.588-.755-.883-.058-.068-.12-.118-.069-.247q1-2.537,1.98-5.083c.047-.121.122-.135.226-.134.186,0,.372,0,.558,0v0" transform="translate(-98.338 -31.203)" fill="#95a0ac"></path><path d="M137.5,40.489c.171.416.355.828.51,1.25.333.909.681,1.813,1.056,2.706.2.484.39.974.579,1.462.062.159.018.239-.175.233-.35-.012-.7-.009-1.051,0a.223.223,0,0,1-.245-.166c-.414-1.189-.921-2.342-1.375-3.516a.9.9,0,0,1,.107-.685q.25-.641.5-1.283h.1" transform="translate(-111.376 -32.974)" fill="#95a0ac"></path><path d="M65.539,143.8a1.734,1.734,0,0,1-1.582-1.251,2.562,2.562,0,0,1,.134-1.84,1.661,1.661,0,0,1,2.725-.324,2,2,0,0,1,.425,1.263,1.982,1.982,0,0,1-.815,1.9,1.406,1.406,0,0,1-.887.253m-.964-2.015a1.335,1.335,0,0,0,.136.795.9.9,0,0,0,.805.62.847.847,0,0,0,.822-.524,2.094,2.094,0,0,0,.111-1.525.837.837,0,0,0-.683-.7c-.531-.065-.833.063-1.024.487a1.344,1.344,0,0,0-.168.852" transform="translate(-51.997 -113.867)" fill="#95a0ac"></path><path d="M123.259,142.356a3.024,3.024,0,0,1,.243-1.3,1.138,1.138,0,0,1,2.155.148,3.512,3.512,0,0,1-.049,2.273,1.071,1.071,0,0,1-1.2.753,1.3,1.3,0,0,1-1.011-.976,2.738,2.738,0,0,1-.143-.9m1.9-.089a2.169,2.169,0,0,0-.138-.993.483.483,0,0,0-.462-.394.425.425,0,0,0-.43.292,3.33,3.33,0,0,0-.031,2.138.435.435,0,0,0,.472.353.471.471,0,0,0,.458-.4,2.3,2.3,0,0,0,.132-1" transform="translate(-100.37 -114.301)" fill="#95a0ac"></path><path d="M48.081,143.792A1.9,1.9,0,0,1,46.9,143.4c-.111-.075-.258-.189-.1-.331.117-.105.157-.391.45-.19a1.148,1.148,0,0,0,1.184.232.452.452,0,0,0,.026-.826c-.337-.165-.682-.313-1.02-.476a.988.988,0,0,1-.562-1.164c.032-.309.389-.608.77-.754a1.651,1.651,0,0,1,1.374.171c.13.062.337.156.191.362-.1.144-.186.417-.465.161a.99.99,0,0,0-.715-.161.422.422,0,0,0-.471.356.437.437,0,0,0,.3.488c.313.146.637.268.952.411a.983.983,0,0,1,.627.991,1.074,1.074,0,0,1-.69.976,1.116,1.116,0,0,1-.663.141" transform="translate(-38.055 -113.859)" fill="#95a0ac"></path><path d="M109.776,142.328a2.418,2.418,0,0,1-.37,1.454,1.094,1.094,0,0,1-1.926-.225,3.377,3.377,0,0,1-.005-2.539,1.142,1.142,0,0,1,2.09.066,1.574,1.574,0,0,1,.123.335,5.032,5.032,0,0,1,.088.909m-.679,0a2.21,2.21,0,0,0-.128-1.064.514.514,0,0,0-.45-.366.455.455,0,0,0-.45.32,2.791,2.791,0,0,0-.01,2.133.461.461,0,0,0,.472.329.476.476,0,0,0,.443-.363,2.138,2.138,0,0,0,.123-.99" transform="translate(-87.327 -114.315)" fill="#95a0ac"></path><path d="M92.971,142.4a1.148,1.148,0,0,1-1.4.169,1.316,1.316,0,0,1,.123-2.049,1.287,1.287,0,0,1,1.871.958,2.992,2.992,0,0,1-.207,2.029,1.328,1.328,0,0,1-2.066.414c-.123-.117-.086-.19.014-.257s.107-.322.317-.184c.729.482,1.271-.029,1.348-.718a3.57,3.57,0,0,0,0-.363m-1.249-.833a.657.657,0,0,0,.579.7.694.694,0,0,0,.672-.584c.013-.32-.332-.814-.618-.8a.646.646,0,0,0-.632.683" transform="translate(-74.22 -114.314)" fill="#95a0ac"></path><path d="M68.77,85.208c0-.437.012-.875,0-1.312-.008-.209.063-.269.26-.251a5.514,5.514,0,0,1,1.4.079.944.944,0,0,1,.191,1.639c-.186.143-.2.235-.076.41.184.251.287.552.484.8.094.117.075.19-.114.225-.4.074-.553-.174-.692-.468-.088-.186-.195-.362-.277-.55-.1-.22-.28-.221-.465-.189-.205.035-.1.211-.11.322a4.843,4.843,0,0,0,0,.524c0,.353-.136.445-.479.351-.147-.041-.108-.145-.109-.233,0-.448,0-.9,0-1.345Zm.588-.7c0,.593,0,.593.357.593.467,0,.714-.187.708-.533-.006-.305-.24-.421-.695-.465s-.38.219-.37.406" transform="translate(-56.002 -68.115)" fill="#95a0ac"></path><path d="M139.5,85.224c0-.437.012-.875,0-1.311-.008-.211.069-.269.263-.249a5.484,5.484,0,0,1,1.2.08,1.268,1.268,0,0,1,.882,1.02,1.9,1.9,0,0,1-.145,1.337,1.358,1.358,0,0,1-1.271.7c-.293,0-.671.093-.856-.053s-.05-.551-.065-.841c-.012-.229,0-.459,0-.688Zm1.786.062c.017-.847-.434-1.132-.989-1.162-.15-.008-.214.039-.212.2.008.6,0,1.2,0,1.8,0,.1.012.176.133.178a.944.944,0,0,0,.8-.255,1.235,1.235,0,0,0,.262-.764" transform="translate(-113.574 -68.132)" fill="#95a0ac"></path><path d="M142.122,142.353v1.182c0,.419,0,.432.428.413.221-.01.3.033.3.277s-.056.318-.307.308c-.568-.021-1.138-.017-1.707,0-.207,0-.264-.06-.252-.26s0-.329.268-.324c.559.011.559-.006.561-.573q0-.706,0-1.411c0-.447,0-.467-.446-.454-.275.008-.235-.147-.229-.31a.09.09,0,0,1,.069-.1,3.835,3.835,0,0,1,1.087-.313c.168,0,.23.041.225.218-.011.448,0,.9,0,1.346" transform="translate(-114.493 -114.658)" fill="#95a0ac"></path><path d="M125.518,85.207c0-.427.007-.855,0-1.282,0-.186.027-.278.248-.271.5.017,1.008.013,1.512,0,.19,0,.208.083.207.237s-.015.245-.209.234c-.295-.016-.592.006-.887-.006-.211-.008-.285.069-.288.284-.006.5-.017.5.471.5.121,0,.241,0,.362,0,.168,0,.317-.032.312.238-.005.245-.1.307-.312.277a1.185,1.185,0,0,0-.2,0c-.753.024-.608-.131-.633.685,0,.152.064.186.2.184.318,0,.636.008.953-.005.193-.008.235.068.234.246s-.024.281-.245.274c-.493-.016-.987-.012-1.479,0-.191,0-.246-.066-.242-.249.01-.449,0-.9,0-1.348Z" transform="translate(-102.219 -68.127)" fill="#95a0ac"></path><path d="M54.949,85.217c0-.449,0-.9,0-1.346,0-.151.038-.212.2-.209.492.009.985.012,1.477,0,.213-.006.214.106.224.262.012.193-.089.212-.24.209-.3-.006-.591.01-.886,0-.208-.01-.276.074-.25.268a.7.7,0,0,1,0,.2c-.039.255.056.358.319.325.162-.02.328,0,.492,0,.185-.008.325-.022.323.256s-.131.277-.323.261c-.065-.006-.131,0-.2,0-.627,0-.615,0-.618.622,0,.218.08.255.267.248.306-.012.613.009.919-.007.2-.01.206.094.2.24s.026.283-.2.278q-.755-.018-1.51,0c-.174,0-.2-.071-.195-.214.005-.459,0-.919,0-1.378" transform="translate(-44.748 -68.132)" fill="#95a0ac"></path><path d="M39.734,85.018a1.006,1.006,0,0,0,.715,1.071.719.719,0,0,0,.616-.129c.23-.183.336-.019.445.12.127.162-.067.186-.14.251a1.189,1.189,0,0,1-1.423.154,1.353,1.353,0,0,1-.746-1.106,1.812,1.812,0,0,1,.494-1.7,1.369,1.369,0,0,1,1.65-.086c.087.071.183.162.069.269-.084.079-.107.271-.31.178-.779-.355-1.371.04-1.371.908,0,.022,0,.044,0,.066" transform="translate(-31.902 -67.887)" fill="#95a0ac"></path><path d="M105.225,85.22c0-.438.006-.876,0-1.313,0-.175.038-.252.234-.246q.705.021,1.412,0c.2-.006.23.071.236.244.007.2-.086.237-.257.23-.273-.011-.547,0-.821-.009-.156-.005-.2.06-.218.21-.066.7-.07.7.635.7a2.529,2.529,0,0,0,.3,0c.193-.022.2.087.205.238s-.019.262-.209.231a.148.148,0,0,0-.033,0c-.291.021-.688-.134-.844.068s-.062.566-.044.859c.016.267-.027.414-.345.381-.179-.018-.249-.058-.244-.247.012-.448,0-.9,0-1.346Z" transform="translate(-85.692 -68.132)" fill="#95a0ac"></path><path d="M83.076,85.473c0-.35-.013-.7,0-1.051.011-.235-.085-.313-.3-.294-.1.008-.2-.005-.3,0-.169.011-.282.007-.279-.23s.1-.239.277-.237c.624.007,1.248.01,1.872,0,.2,0,.23.076.229.249s-.048.22-.222.223c-.7.015-.7.022-.7.745,0,.558-.007,1.116.005,1.674,0,.2-.049.279-.256.259-.174-.016-.355.032-.338-.256.021-.36.005-.722.005-1.083" transform="translate(-66.945 -68.132)" fill="#95a0ac"></path><path d="M39.636,142.247c0,.546-.016,1.093.006,1.639.012.3-.169.246-.335.241s-.35.079-.346-.229q.023-1.672,0-3.344c0-.328.2-.225.365-.245.206-.025.319.011.31.267-.019.557-.006,1.114-.006,1.672Z" transform="translate(-31.73 -114.261)" fill="#95a0ac"></path><path d="M97.819,85.228c0-.448.014-.9-.005-1.344-.011-.257.146-.216.293-.212s.309-.066.3.2c-.012.907-.015,1.814,0,2.72,0,.284-.177.2-.326.221-.187.022-.278-.023-.27-.241.016-.447,0-.9,0-1.344Z" transform="translate(-79.658 -68.138)" fill="#95a0ac"></path><path d="M118.924,85.24c0,.427-.014.854.006,1.28.012.248-.094.287-.307.286s-.29-.034-.286-.267c.014-.875.017-1.751,0-2.625-.006-.279.14-.247.323-.259.216-.014.28.053.27.273-.019.437-.006.875-.006,1.313Z" transform="translate(-96.37 -68.126)" fill="#95a0ac"></path></g></g><path d="M-701.907,581.216a1.892,1.892,0,0,1,1.149-1.732c.218-.118.5-.1.663-.328h1.417a8.8,8.8,0,0,1,.919.421,1.8,1.8,0,0,1-.035,3.249,3.048,3.048,0,0,1-2.974.05A1.844,1.844,0,0,1-701.907,581.216Zm7.613,4.469q0,4.115,0,8.231a5.024,5.024,0,0,0-.167,1.411c0,.039-.024.093-.006.114a.18.18,0,0,0,.123.054c1.412,0,2.826-.031,4.236.025.642.026.781-.184.61-.741-.225-2.4-.068-4.8-.119-7.2a1.033,1.033,0,0,1,.474-.889,1.356,1.356,0,0,1,2.214.7q-.008,2.956-.017,5.911a6.9,6.9,0,0,0-.141,1.712l-.007.015a.313.313,0,0,0-.085.311c.034.05.067.143.1.143,1.571.011,3.143.013,4.714.021.217,0,.3-.083.237-.3q-.121-1.495-.242-2.99l-.009-3.976q0-.07,0-.14.006-.266.011-.533a1.411,1.411,0,0,0,.1-.184,1.406,1.406,0,0,1,1.705-.992c.615.1.9.487.889,1.383-.018,2.382.1,4.767-.135,7.145-.04.289-.19.608.35.593,1.194-.034,2.389-.028,3.583-.039,1.059.079,1.065.079.993-.935-.021-.3-.087-.6-.132-.907q-.014-3.261-.029-6.522a3.071,3.071,0,0,0-2.806-3.18,5.752,5.752,0,0,0-4.431.947c-.428.291-.68.353-1.1-.044a3.815,3.815,0,0,0-2.711-1,6.58,6.58,0,0,0-3.74,1.238l-.429-.824c-.186-.225-.441-.117-.663-.12-.921-.013-1.848.056-2.762-.024-.766-.067-.93.2-.73.869Zm-.749,23.524a3.71,3.71,0,0,1-1.476-.063c-.35-.1-.513-.024-.5.391.047,1.109.029,2.22.1,3.327.022.353-.031.428-.347.342h-3.821c-.625.147-.937,0-.733-.722.08-.281-.018-.6.141-.877q.011-6.007.021-12.013l-.119-1-.119-1.032c1.4,0,2.778,0,4.157,0,.224,0,.357.081.357.321.181.479.448.225.707.087a5.233,5.233,0,0,1,4.753-.27,4.636,4.636,0,0,1,2.885,4.4A6.617,6.617,0,0,1-695.042,609.208Zm.63-8.645a1.455,1.455,0,0,0-.191-.209,1.615,1.615,0,0,0-1.775-.307c-.587.234-.641.748-.632,1.295.012.756,0,1.512,0,2.268,0,.8-.006,1.606,0,2.41s.287,1.049,1.091.944a1.8,1.8,0,0,0,.99-.5C-693.694,605.323-693.4,601.887-694.413,600.563Zm14.044.147a1.026,1.026,0,0,0-.468-.835,3.121,3.121,0,0,0-2.579-.349,10.376,10.376,0,0,0-2.512.889c-.257.229-.283.068-.28-.163.01-.786.017-1.573.024-2.359.086-.778.725-.412,1.123-.543a28.706,28.706,0,0,1,3.946.007,10.155,10.155,0,0,1,3.086.674,3.839,3.839,0,0,1,2.571,3.7q.008,2.265.016,4.531a11.406,11.406,0,0,0,.761,2.7c-1.5,0-2.905,0-4.314,0a.4.4,0,0,1-.413-.213c-.246-.6-.6-.337-.983-.17a6.148,6.148,0,0,1-5.071.05,3.128,3.128,0,0,1-.71-5.534,12.112,12.112,0,0,1,4.722-1.933,2.027,2.027,0,0,0,.408-.1C-680.813,600.942-680.391,601.107-680.368,600.71Zm-2.18,3.716a1.439,1.439,0,0,0,.131,2.04,2.033,2.033,0,0,0,2.31.007.523.523,0,0,0,.142-.446c0-.967,0-1.935,0-2.963A4.012,4.012,0,0,0-682.548,604.426Zm12.742-9.032c.392.049.47-.184.485-.513.041-.9.1-1.8.156-2.7a27.328,27.328,0,0,1,1.041,2.762c.087.267.159.455.505.468s.426-.2.509-.453q.459-1.388.921-2.774a19.7,19.7,0,0,1,.225,2.818c0,.386.187.4.479.4.336.008.364-.121.338-.422-.093-1.082-.14-2.167-.22-3.25-.015-.194.147-.554-.259-.51-.333.036-.785-.277-.96.359-.268.972-.625,1.919-.991,3.019-.376-1.112-.737-2.031-.99-2.98-.156-.585-.553-.374-.888-.411-.449-.049-.322.309-.339.53q-.122,1.553-.21,3.108C-670.018,595.043-670.217,595.342-669.806,595.393Zm32.98,6.943c-.011.371-.06.761-.488.93a2.83,2.83,0,0,1-2.126.074c-.1-.022-.332.01-.231-.237.071-.175.128-.331.4-.268.364.087.742.113,1.114.165.564-.192.648-.608.537-1.152-.648.316-1.3.6-1.886-.019a2.347,2.347,0,0,1-.023-2.472,1.111,1.111,0,0,1,1.1-.5,2.658,2.658,0,0,0,1.343.054c.212-.082.324.047.317.307C-636.8,600.261-636.795,601.3-636.826,602.336Zm-.737-1.9h-.015a2.534,2.534,0,0,1,0-.281c.059-.53-.271-.718-.708-.757-.466-.041-.677.256-.716.681a6.417,6.417,0,0,0-.015.84c.012.327.118.614.5.647a.884.884,0,0,0,.89-.441A1.8,1.8,0,0,0-637.563,600.437Zm-32.654,8.406c.635-1.454,1.219-2.822,1.832-4.176a.551.551,0,0,1,.913.01c.609,1.341,1.184,2.7,1.779,4.063-.609.177-1.016.139-1.119-.544a.66.66,0,0,0-.716-.6c-1.12-.063-1.2-.054-1.732.979C-669.485,609.015-669.826,608.739-670.217,608.842Zm1.917-1.648c.281-.164.432.057.644.049.278-.011.465-.066.33-.411-.192-.491-.371-.988-.609-1.627-.264.643-.477,1.132-.663,1.632C-668.7,607.1-668.627,607.386-668.3,607.195Zm36.2-19.766c0,.26,0,.519,0,.779,0,.418-.4.7-.669.422-.284-.3-.419-.137-.646-.032-.74.342-1.308.185-1.545-.411s.095-1.108.864-1.351a5.471,5.471,0,0,1,.827-.169c.188-.029.391,0,.367-.3-.021-.245-.112-.388-.386-.4a2.24,2.24,0,0,0-1.025.224c-.193.088-.306.059-.4-.116-.127-.226.053-.312.195-.365a5.778,5.778,0,0,1,.877-.255c1.128-.226,1.533.11,1.543,1.26C-632.1,586.956-632.1,587.193-632.1,587.429Zm-1.176-.312c-.435.082-.92.149-.976.718a.343.343,0,0,0,.457.383c.416-.117.869-.232.9-.781C-632.816,587.061-633.059,587.076-633.273,587.117ZM-668.937,600.4a3.32,3.32,0,0,0-.02,1.191c.009.529-.335.728-.821.46-.024-.013.007-.125.012-.19q0-1.916,0-3.833c-.047-.115-.083-.27.083-.269a7.875,7.875,0,0,1,2.036.084,1.026,1.026,0,0,1,.857,1.054,1.083,1.083,0,0,1-.763,1.14c-.089.032-.182.053-.266.093C-668.182,600.3-668.743,599.908-668.937,600.4Zm.4-.714c.465-.051.924-.131.926-.742s-.45-.609-.887-.666c-.632-.081-.444.368-.48.739C-668.871,599.232-669.2,599.76-668.536,599.687Zm12.8-6.94c.024.377.006.756,0,1.134s.022.758-.008,1.134c-.028.34.131.387.414.386s.414-.069.385-.4a10.908,10.908,0,0,1-.008-1.488c.029-.552.482-.687.9-.706.476-.022.344.415.356.692.021.472.007.945,0,1.418,0,.223-.107.479.293.488.372.009.5-.167.5-.5,0-.638.02-1.278-.016-1.914-.043-.763-.37-.992-1.135-.8a2.059,2.059,0,0,1-1.306.164C-655.664,592.251-655.76,592.448-655.741,592.748Zm-12.034-5.68a11.546,11.546,0,0,1-.01,1.2c-.039.375.115.428.435.423.3,0,.4-.084.381-.4a13.782,13.782,0,0,1-.007-1.484c.021-.56.47-.689.885-.706.463-.02.356.408.366.689.017.471,0,.943,0,1.414,0,.2-.151.491.27.487.351,0,.521-.129.51-.5-.014-.542,0-1.084,0-1.626-.013-1.086-.483-1.4-1.48-.983-.234.1-.381.27-.689-.008-.215-.194-.758-.237-.669.435A8.171,8.171,0,0,1-667.776,587.068Zm6.517-.3a1.469,1.469,0,0,1,1.188-1.321,1.416,1.416,0,0,1,.829.063,1.265,1.265,0,0,1,.862,1.443c-.162.594-.686.059-.951.251a1.873,1.873,0,0,0-.468.007c-.225.066-.641-.2-.637.286a.683.683,0,0,0,.727.705,1.517,1.517,0,0,0,.856-.286c.193-.12.286-.05.4.094.139.173,0,.241-.1.329a2.179,2.179,0,0,1-2,.292A1.773,1.773,0,0,1-661.259,586.767Zm.847-.228c0,.435.382.141.586.236.211-.139.672.273.668-.288a.548.548,0,0,0-.609-.546A.592.592,0,0,0-660.411,586.539Zm4.78,20.667a1.617,1.617,0,0,1-1.614,1.693,1.492,1.492,0,0,1-1.561-1.625,1.621,1.621,0,0,1,1.574-1.727A1.511,1.511,0,0,1-655.631,607.207Zm-.817.2c.009-1-.451-1.485-1.034-1.261a1.311,1.311,0,0,0-.474,1.556c.113.385.337.717.786.654C-656.547,608.268-656.466,607.763-656.448,607.406Zm4.583-14.457a1.41,1.41,0,0,1,1.512-.8,1.269,1.269,0,0,1,1.2,1.021c.154.559.05.863-.607.754a2.609,2.609,0,0,0-.423,0,1.718,1.718,0,0,0-.422.007c-.206.055-.567-.2-.59.24a.656.656,0,0,0,.549.72,1.3,1.3,0,0,0,1-.242.28.28,0,0,1,.456.126c.119.23-.106.259-.232.34a1.83,1.83,0,0,1-2.11.081A2.068,2.068,0,0,1-651.865,592.949Zm.693.328c.023.395.415.082.622.228.178-.185.611.225.624-.281a.537.537,0,0,0-.57-.577A.594.594,0,0,0-651.173,593.278Zm8.475-6.164a1.671,1.671,0,0,1,1.619-1.708,1.473,1.473,0,0,1,1.535,1.637,1.594,1.594,0,0,1-1.55,1.742A1.545,1.545,0,0,1-642.7,587.114Zm.828.005c0,.711.3,1.128.8,1.112.472-.016.784-.481.776-1.157s-.332-1.141-.821-1.1C-641.819,586.043-641.866,586.583-641.87,587.119Zm3.86,20.059a1.591,1.591,0,0,1-1.571,1.717,1.458,1.458,0,0,1-1.575-1.592,1.6,1.6,0,0,1,1.6-1.756A1.481,1.481,0,0,1-638.01,607.179Zm-.773.037c-.006-.687-.319-1.113-.813-1.107s-.8.445-.791,1.128c0,.655.351,1.14.811,1.133S-638.776,607.862-638.782,607.215Zm-8.049,1.483.034-.011a.27.27,0,0,0-.018.022h0c-.248.014-.566.374-.706-.138-.066-.243-.164-.048-.235-.019a5.8,5.8,0,0,1-.638.281c-.534.144-1.015.046-1.211-.532a.906.906,0,0,1,.572-1.2,2.918,2.918,0,0,1,1.151-.293c.2,0,.376-.034.361-.31a.363.363,0,0,0-.4-.39,2.181,2.181,0,0,0-1.027.205c-.227.107-.343.063-.438-.153-.114-.259.124-.272.243-.316a5.107,5.107,0,0,1,.945-.273c1.045-.167,1.43.165,1.415,1.233A9.35,9.35,0,0,1-646.832,608.7Zm-.959-1.469c-.606-.006-1.155.36-1.123.752a.4.4,0,0,0,.418.391c.4.022.983-.467.978-.821C-647.519,607.371-647.469,607.134-647.79,607.23Zm-17.45-6.36c-.011-.52-.017-1.041.009-1.559.015-.293-.033-.43-.371-.417-.314.012-.461.05-.431.432.048.635,0,1.276.023,1.914.027.859.426,1.123,1.254.876.312-.093.636-.555.968,0,.016.026.4.152.532-.121q0-1.483-.007-2.967c-.7-.236-.718-.222-.715.417,0,.473.036.949-.009,1.417-.047.494-.5.625-.872.668C-665.33,601.589-665.235,601.156-665.241,600.87Zm1.036-5.9c-.256-.578.007-1.091.725-1.359.305-.114.631-.172.948-.256.159-.042.408.062.4-.254a.408.408,0,0,0-.443-.439,2.358,2.358,0,0,0-.951.221c-.185.076-.347.123-.465-.121-.155-.319.141-.3.271-.356a2.982,2.982,0,0,1,1.65-.234c.359.059.614.214.649.611.011.745.019,1.489.036,2.234,0,.2,0,.381-.275.363-.221-.014-.5.064-.451-.326-.265-.036-.412.194-.623.282C-663.4,595.614-663.982,595.478-664.205,594.972Zm.68-.4c.026.264.183.351.431.348.461-.005.981-.439.966-.837.034-.225-.063-.314-.314-.3C-663.008,593.8-663.562,594.2-663.525,594.577ZM-640.731,602l0-2.4c-.133-.746-.518-.922-1.322-.642-.251.087-.5.464-.821-.012-.082-.123-.7-.266-.643.406a21.127,21.127,0,0,1,.007,2.328c-.011.313.011.474.388.464.327-.008.453-.069.42-.432-.044-.49,0-.988-.014-1.482s.412-.581.735-.726.446.137.567.369l-.007,1.982C-641.347,602.191-641.183,602.225-640.731,602Zm-10.406-13.8a.843.843,0,0,1,.3-1.062,2.587,2.587,0,0,1,1.379-.46c.229-.019.421-.029.39-.342-.026-.268-.171-.351-.42-.36a2.245,2.245,0,0,0-1.017.232c-.2.092-.306.008-.4-.148-.146-.242.083-.292.205-.335a3.046,3.046,0,0,1,1.5-.28.735.735,0,0,1,.6.2c.34.175.291.507.3.8a13.669,13.669,0,0,0,.021,1.626c.091.6-.151.693-.64.59-.15-.162-.235-.433-.548-.137a1.277,1.277,0,0,1-.713.249A.852.852,0,0,1-651.137,588.2Zm1.112.026c.433-.081.87-.2.965-.734.024-.27-.034-.435-.344-.383-.45.075-.921.152-1.038.684A.346.346,0,0,0-650.025,588.221Zm-4.407.467c.288.01.423-.049.4-.382-.033-.492.008-.989-.019-1.482-.025-.443.311-.544.595-.68a.471.471,0,0,1,.7.249c-.007.636,0,1.272-.027,1.908-.009.254.023.391.327.381.268-.009.438-.022.421-.371-.037-.776-.033-1.553-.046-2.33-.3-.619-.655-.721-1.429-.392-.227.1-.369.277-.658-.029-.266-.282-.67.009-.669.43,0,.777.022,1.555-.013,2.33C-654.866,588.682-654.694,588.68-654.432,588.688Zm.036,10.811c.325.141.209.484.216.751.011.468,0,.936,0,1.4.006.553.094.593.719.34a20.356,20.356,0,0,0-.027-2.681c-.262-.7-.786-.43-1.269-.358-.251.037-.414.355-.713.209.007-.447-.009-.9.028-1.34.03-.355-.152-.361-.418-.369-.3-.009-.335.12-.331.379.023,1.388.026,2.776.036,4.165a.455.455,0,0,0,.684,0q0-.989,0-1.978a2.234,2.234,0,0,1,.3-.28C-654.93,599.593-654.681,599.376-654.4,599.5Zm-9.689,8.879c-.291.047-.8-.459-.839.154-.031.555.613.179.838.368.821.024,1.468-.306,1.549-.8.123-.754-.4-1.028-.981-1.244a1.135,1.135,0,0,1-.2-.065c-.171-.1-.44-.147-.387-.429.058-.31.341-.275.563-.292a1.586,1.586,0,0,1,.417.06c.2.04.3-.025.343-.231.057-.26-.143-.259-.282-.305a1.164,1.164,0,0,0-.348-.04c-.628-.009-1.328,0-1.509.729-.19.759.482.955,1.039,1.174.25.1.61.179.538.54S-663.78,608.328-664.084,608.378Zm4.04-1.336c-.147-.072-.3-.144-.449-.2-.257-.1-.643-.141-.571-.493.066-.323.431-.289.8-.264.133-.008.481.186.509-.146.031-.357-.331-.386-.627-.392a2.112,2.112,0,0,0-.9.127c-.32.138-.574.314-.593.708a.846.846,0,0,0,.508.854c.251.125.521.211.78.32.183.077.331.188.31.418s-.207.31-.385.36a1.275,1.275,0,0,1-.831-.061c-.235-.094-.337.014-.4.23-.1.312.137.288.31.321a2.882,2.882,0,0,0,1.331-.011.96.96,0,0,0,.786-.811A.9.9,0,0,0-660.045,607.042Zm7.258,1.166c-.724.324-1.113.156-1.281-.538-.273-1.125.127-1.605,1.318-1.521.252.018.346-.057.4-.259.07-.269-.173-.241-.3-.281a1.6,1.6,0,0,0-2.243,1.619c0,1.447.992,2.07,2.33,1.437.163-.077.541-.08.392-.435C-652.343,607.834-652.57,608.112-652.787,608.209Zm8.77-.074c-.206.128-.4.246-.646.1q0-1.055,0-2.11c.188,0,.378.01.564-.007.16-.015.4.117.418-.209.014-.357-.244-.284-.437-.265-.4.04-.636-.045-.566-.522.018-.121.128-.385-.138-.375-.183.007-.473,0-.518.265-.059.358-.088.661-.578.7-.132.01-.182.4.156.4.367,0,.347.2.342.452-.008.424-.015.849,0,1.273.014.36-.11.8.342.987a1.43,1.43,0,0,0,1.269-.235c.144-.078.214-.173.131-.337A.221.221,0,0,0-644.017,608.135Zm-13.356-6.2c.168-.083.511-.1.352-.435s-.377-.112-.577-.022c-.458.206-.933.331-1.214-.231a1.541,1.541,0,0,1,.056-1.557.852.852,0,0,1,1.131-.261c.221.081.35,0,.43-.215.071-.192-.044-.246-.183-.3a1.659,1.659,0,0,0-2.351,1.57C-659.734,601.977-658.723,602.607-657.373,601.938Zm9.964-1.821a2.409,2.409,0,0,1-.319-.147.313.313,0,0,1-.089-.526,1.081,1.081,0,0,1,.808-.055c.245.1.415.049.456-.218.053-.341-.232-.29-.417-.294-.321-.008-.643.023-.964.037-.425.091-.766.3-.792.77a.91.91,0,0,0,.721.926c.177.062.352.13.522.208.193.089.41.184.372.449-.042.29-.294.36-.527.368a2.71,2.71,0,0,1-.767-.085c-.251-.065-.267.111-.336.25s.009.2.123.266a2.125,2.125,0,0,0,2.207-.445C-646.083,601.041-646.421,600.532-647.409,600.117Zm-21.809-11.434c.334.02.306-.186.3-.408-.007-.566,0-1.132,0-1.7,0-.59-.007-1.179,0-1.768,0-.338-.16-.469-.479-.45-.18.011-.383-.044-.381.261.009,1.226,0,2.452.01,3.678C-669.763,588.665-669.492,588.666-669.218,588.682Zm10.559,4.127c.394-.087.254-.37.21-.542-.06-.237-.277-.073-.406-.028-.25.088-.4.406-.751,0-.27-.307-.635-.006-.616.47.014.352,0,.7,0,1.056h0c0,.376.01.752,0,1.127-.009.26-.091.507.34.507.37,0,.5-.1.453-.476-.038-.3.022-.614-.015-.915A.959.959,0,0,1-658.659,592.81Zm1.239-4.6c-.017.356.035.493.431.488s.407-.161.381-.469c-.032-.375.017-.758-.021-1.132a.788.788,0,0,1,.6-.917c.518-.115.492-.377.385-.779-.456.1-.853.507-1.386.135-.253-.176-.412.053-.392.408A22.234,22.234,0,0,1-657.42,588.21Zm12.23-.078c-.134-.245-.255-.185-.447-.07-.517.31-.6,0-.589-.437.007-.543,0-1.086,0-1.629a5.254,5.254,0,0,0,.763-.03c.345-.062.29-.241.075-.426l-.285.011-.543-.043a1.866,1.866,0,0,0-.008-.279c-.035-.2.131-.507-.224-.569s-.413.2-.473.462c-.032.141.03.341-.2.392-.147.033-.445-.09-.368.229.057.237.308.243.524.231q.023,1.129.046,2.258c.307.629.734.716,1.484.275C-645.321,588.437-645.02,588.441-645.19,588.132Zm-15.252,11.321c.219-.055.164-.329.09-.489s-.238-.091-.37-.035c-.265.113-.5.554-.821.007a.361.361,0,0,0-.581.353c.033.823.016,1.648,0,2.473,0,.253.032.422.343.36.609.122.4-.332.413-.614C-661.325,600.7-661.643,599.752-660.443,599.453Zm-3.246-13.477q.023,1.128.046,2.255c.321.64.824.723,1.556.248.118-.076.343-.1.18-.352-.112-.17-.2-.23-.39-.1s-.4.274-.626.055q0-1.045,0-2.089c.307-.159.9.279.921-.29.011-.364-.53-.1-.816-.157-.293-.165.114-.678-.326-.727-.372-.042-.491.267-.553.586-.009.045-.1.083-.153.107-.13.055-.394-.078-.371.175C-664.2,585.979-663.924,585.978-663.689,585.977Zm19.684-.485c-.379.006-.4.164-.394.471q.033,1.133,0,2.267c-.009.307.013.461.391.468.418.008.448-.172.421-.5-.03-.375-.007-.755-.006-1.133,0-.354-.024-.711.008-1.062C-643.555,585.663-643.588,585.484-644,585.492Zm13.832,2.648c-.005-.236,0-.472,0-.708,0-.968,0-1.937-.008-2.9,0-.181.029-.428-.259-.393-.171.021-.538-.207-.462.268q-.005,2.059-.01,4.118C-630.26,588.822-630.158,588.769-630.173,588.14Zm-15.2,10.891q0,1.485,0,2.97a.447.447,0,0,0,.687,0q0-1.485,0-2.97A.463.463,0,0,0-645.372,599.031Zm-5.6,6.6c-.563.013-.332.365-.341.628q-.005,1.207-.01,2.413c.664.29.741.248.74-.394,0-.681,0-1.361-.006-2.042C-650.6,605.966-650.428,605.618-650.974,605.63Zm8.87,1.691c0-.423-.019-.848.008-1.27.02-.307-.076-.4-.386-.412-.346-.009-.369.157-.364.431q.021,1.164,0,2.328c0,.266,0,.426.353.433.372.008.426-.131.4-.452C-642.129,608.029-642.1,607.674-642.1,607.321Zm-15.114-15.113c-.236,0-.39,0-.38.327q.04,1.23,0,2.462c-.01.33.121.388.4.39s.35-.125.339-.382c-.017-.4,0-.8,0-1.2,0-.422-.021-.846.008-1.266C-656.824,592.23-656.973,592.205-657.218,592.208ZM-701.9,595.5c1.594,0,3.168,0,4.741,0,.528,0,.288-.341.282-.584-.034-.516-.094-1.032-.1-1.549-.019-2.9-.024-5.793-.034-8.69.085-.386.037-.591-.464-.576-1.343.039-2.689.008-4.033.02-.129,0-.342-.132-.4.134q.12,1.068.241,2.137,0,3.4,0,6.8-.06.572-.121,1.144Zm63.271-7.3c0,.254-.1.486.339.5.454.01.422-.225.409-.521-.016-.354-.017-.708-.024-1.063.065-.89.544-1.206,1.289-.851q.012,1.059.024,2.118c-.086.269.02.345.273.273.235.03.468.094.443-.3-.055-.834.066-1.674-.068-2.507-.191-.474-.582-.484-.979-.381a8.747,8.747,0,0,0-.954.361c.016-.467-.338-.283-.553-.3-.326-.019-.2.232-.2.4C-638.624,586.684-638.617,587.44-638.624,588.2Zm4.262,17.787c-.2-.537-.635-.484-1.049-.38a6.626,6.626,0,0,0-.9.364c.031-.39-.249-.308-.474-.317-.29-.012-.268.183-.266.379,0,.8.011,1.608,0,2.411,0,.247,0,.4.321.383.251-.016.453.014.43-.356-.036-.589-.02-1.181-.026-1.772.353-.3.695-.633,1.223-.418a12.542,12.542,0,0,1,.052,2.24c0,.341.189.3.4.3s.393.037.369-.313C-634.341,607.667-634.34,606.825-634.363,605.984Zm-9.683-21.252c.246-.013.471.022.458-.351-.01-.289-.132-.379-.374-.354-.249-.012-.43.014-.434.327C-644.4,584.62-644.336,584.747-644.046,584.732Zm1.617,19.421c-.27,0-.429.035-.423.37,0,.286.114.352.369.341.224-.01.433,0,.384-.311C-642.08,604.305-642.127,604.148-642.429,604.153Zm-14.755-12.687c.3.012.36-.15.333-.4.05-.346-.2-.283-.4-.3-.3-.031-.341.125-.342.377C-657.6,591.455-657.415,591.457-657.185,591.466Zm11.777,6.311c.006.29.066.416.387.4.268-.011.4-.081.346-.36.049-.272-.059-.377-.339-.363C-645.24,597.469-645.414,597.453-645.408,597.777Zm-5.746,7.034c.183-.114.58.095.569-.4.031-.176-.082-.26-.323-.259s-.485,0-.437.352C-651.326,604.642-651.375,604.948-651.154,604.811Zm1.491-2.812c-.271.129-.553.347-.723-.13-.091-.254-.222-.05-.31,0a1.713,1.713,0,0,1-.923.3.8.8,0,0,1-.866-.571.893.893,0,0,1,.373-1.113,3.223,3.223,0,0,1,1.267-.4c.176-.027.484.034.449-.306a.434.434,0,0,0-.553-.4,4.236,4.236,0,0,0-.883.224c-.221.085-.355.052-.445-.156-.108-.249.1-.256.246-.319a3.226,3.226,0,0,1,1.51-.276c.564.031.87.295.859.879Zm-.82-1.487a1.656,1.656,0,0,0-.932.207.557.557,0,0,0-.367.538.358.358,0,0,0,.241.379,1.091,1.091,0,0,0,1.164-.82C-650.378,600.7-650.366,600.526-650.483,600.512Zm-43.169,12.053c.03.021.058.056.089.059s.053-.036.084-.06a.722.722,0,0,0-.123-.038C-693.616,612.523-693.635,612.55-693.652,612.565Zm31.363,1.605a11.143,11.143,0,0,1-2.956.623,23.745,23.745,0,0,1-5.948-.668c-4.017-.889-7.936-2.191-12.013-2.825a17.99,17.99,0,0,0-7.977.21,4.721,4.721,0,0,0-2.043.965c2.515-.211,4.8.646,7.094,1.409a85.719,85.719,0,0,0,9.107,2.794c1.14.242,2.289.437,3.434.653h3.685c.159-.2.388-.112.588-.14a14.083,14.083,0,0,0,7.118-2.919h0c.056-.049.212-.048.141-.158C-662.113,614.033-662.224,614.094-662.289,614.17Z" transform="translate(768.566 -579.156)" fill="#95a0ac"></path><path d="M-40.983,845.757l.109.034-.109.085Zm32.89-13c-.074-2.326-.419-4.629-.556-6.948-.018-.308-.138-.413-.441-.4a11.561,11.561,0,0,1-1.5,0c-.434-.039-.582.137-.683.53-.436,1.7-.9,3.382-1.369,5.107a1.024,1.024,0,0,1-.1-.18c-.32-1.213-.625-2.429-.959-3.638-.164-.591-.11-1.43-.553-1.707-.464-.289-1.235-.077-1.87-.109-.324-.016-.469.087-.485.424-.024.5-.089.991-.133,1.487q-.265,3-.528,6.007c-.22,1.221-.22,1.221.972,1.219a2.628,2.628,0,0,1,.358,0c.318.043.418-.111.431-.4.039-.912.092-1.823.14-2.735q.1-1.242.2-2.484l.11,0,1.131,3.923h0q.177.717.354,1.434a.292.292,0,0,0,.208.25,1.216,1.216,0,0,0,1.749-.966.566.566,0,0,0,0-.118l1.336-4.323.173.051c.012.117.027.233.037.35q.175,2.138.348,4.277c.06.263-.23.692.313.728.417.028.838,0,1.257,0,.171,0,.267-.062.218-.251C-7.917,833.763-8.077,833.259-8.093,832.757Zm2.46,8.36h0l0,0Zm4.8,5.951c0,.128.006.258-.159.3-.4-.012-.8-.044-1.194-.029-.214.008-.224-.375-.539-.188a2.824,2.824,0,0,1-3.04-.2h0l-.586-.726,0,0-.254-.592-.1-.341a6.246,6.246,0,0,1,.335-3.233l0,0,.735-.932a.253.253,0,0,0,.214-.145l.008,0,.141-.1v.007l.589-.238.234-.052c.436.064.892-.128,1.313.217.21.172.384-.009.377-.309-.02-.916-.021-1.832-.03-2.747a2,2,0,0,1,1.2.117l.123.015a.578.578,0,0,1,.465.1l.019.122v.237c0,.041,0,.081,0,.122-.047,2.312-.054,4.624,0,6.935l.008.479.017.363A1.441,1.441,0,0,0-.829,847.069ZM-2.74,842.93c.073-.573-.266-.794-.721-.919a.836.836,0,0,0-1.061.452,4.082,4.082,0,0,0-.083,3.032c.185.539.713.592,1.217.492a.739.739,0,0,0,.645-.906c-.035-.355-.007-.717-.006-1.076A8.545,8.545,0,0,1-2.74,842.93Zm1.239-4.951a.2.2,0,0,1,.044.007h0A.2.2,0,0,0-1.5,837.978Zm-4.871-3.585-.59-.717v0a.326.326,0,0,0-.1-.286,4.089,4.089,0,0,1-.01-1.247,2.1,2.1,0,0,1,1.885-1.656c.369-.075.75-.088,1.125-.13.248-.028.6.117.562-.367-.03-.394-.059-.778-.561-.843a2.458,2.458,0,0,0-1.691.465c-.361.239-.542.227-.762-.184-.487-.911-.506-.885.453-1.3a4.243,4.243,0,0,1,2.377-.426c.62.1,1.344.13,1.64.883.13.067.123.188.12.307.233.271.142.6.144.9.008,1.013-.016,2.027-.028,3.04.077.181.16.359.229.542s.457.274.314.5a3.145,3.145,0,0,1-.823.917c-.218.152-.425-.211-.66-.294l-.127-.131h0c-.346-.6-.431.084-.645.131a.116.116,0,0,0-.09.04l-.6.213-.01,0a6.541,6.541,0,0,1-1.677-.119.064.064,0,0,0-.075-.026l-.167-.08a.083.083,0,0,0-.08-.034l-.152-.1Zm1.5-1.036a.967.967,0,0,0,1.016-.06c.407-.213.338-.584.337-.937.005-.856.005-.856-.856-.716a1.637,1.637,0,0,0-.176.027.846.846,0,0,0-.679.738A.9.9,0,0,0-4.871,833.357Zm29.5-2.083a4.981,4.981,0,0,1,.156-1.479,2.878,2.878,0,0,1,4-1.89,2.744,2.744,0,0,1,1.583,2.424c.216,1.418.212,1.418-1.2,1.42h-.778c-.479,0-.957-.005-1.436,0s-.608.2-.442.676a1.546,1.546,0,0,0,1.492.98,2.247,2.247,0,0,0,1.19-.356c.574-.382.722.11.96.436.332.453-.113.552-.346.686a3.513,3.513,0,0,1-3.644.143A3.163,3.163,0,0,1,24.625,831.274Zm2.619-.832h.3v0h.775a.236.236,0,0,0,.273-.235,1.215,1.215,0,0,0-.646-1.176.968.968,0,0,0-1.24.537C26.391,830.23,26.521,830.442,27.244,830.443Zm3.38,11.779a6.087,6.087,0,0,1,.275,1.94c0,.325-.119.408-.42.4-.956-.013-1.913-.007-2.869,0-.606,0-.685.113-.523.7a1.584,1.584,0,0,0,.689.868,2.628,2.628,0,0,0,1.787-.151c.177-.154.369-.381.612-.243a1.634,1.634,0,0,1,.569.812c.071.153-.122.23-.232.3a3.622,3.622,0,0,1-3.686.38,3.058,3.058,0,0,1-1.713-2.981,3.807,3.807,0,0,1,.823-2.825,2.761,2.761,0,0,1,2.637-.885A2.365,2.365,0,0,1,30.624,842.222Zm-2.229-.382a1.156,1.156,0,0,0-1.3.57c-.234.585-.043.858.6.858h.3v0c.258,0,.516,0,.774,0,.147,0,.262-.028.3-.21A1.2,1.2,0,0,0,28.395,841.84ZM6.37,846.589l.087.245a4.288,4.288,0,0,1-1.329.652.1.1,0,0,0-.091-.065l-.131-.13.006,0c-.105-.361-.277-.416-.526-.114a.1.1,0,0,0-.1.048l-.128.079a.1.1,0,0,0-.1.04,1.262,1.262,0,0,0-.464,0,2.231,2.231,0,0,1-2.537-.624l0-.006c-.023-.189-.178-.348-.123-.554a2.767,2.767,0,0,1-.114-1.177c.017-1.41-.061-2.822.042-4.231a.066.066,0,0,0,.081-.026l.477-.007a.777.777,0,0,1,.485-.1h0l.6-.138.072.127a.462.462,0,0,0,0,.37q-.007.236-.014.472c-.018,1.319-.034,2.638-.057,3.956,0,.237.194.38.241.59a.508.508,0,0,1-.286-.1.508.508,0,0,0,.286.1,1,1,0,0,0,1.439-.228l0,0c.281-.137.215-.4.216-.627,0-.993,0-1.987,0-2.98,0-1.292,0-1.291,1.279-1.592.1-.023.189-.061.284-.091a.148.148,0,0,0,.1.034c0,1.607,0,3.215.012,4.823a1.782,1.782,0,0,0,.176,1.039l.057.1Zm-3.939-.726a.183.183,0,0,0,.022.031A.183.183,0,0,1,2.431,845.863Zm9.98-1.767-.726-.6a.074.074,0,0,1-.086-.026l-1.127-.329a.045.045,0,0,1-.07-.016c-.371.1-.611-.124-.849-.348l0,0c-.267-.456-.165-.807.306-.931a1.392,1.392,0,0,1,1.033.069.686.686,0,0,1,.469.152c.379.2.63.125.766-.313a2.835,2.835,0,0,1,.31-.546h0c-.2-.391-.663-.348-.962-.575l-.228-.058a5.481,5.481,0,0,0-3.007.369l-.2.159-.157.186-.028.033-.19.26,0,0-.236.716q-.011.116-.022.232a2.475,2.475,0,0,0,.6,1.556l.005,0,.137.1,0-.006a11.344,11.344,0,0,0,2.025.611h0c.452.074.76.31.691.795-.072.5-.457.663-.922.66a3.053,3.053,0,0,1-1.591-.455c-.488-.3-.733-.189-.895.316a1.046,1.046,0,0,1-.162.242v0a.253.253,0,0,1-.118.239c0,.081.008.162.012.243l.127.1.006,0,1.781.6.232.033a6.329,6.329,0,0,0,1.594-.14c1.346-.362,1.913-1.3,1.733-2.872Zm-20.565,2.775c0,.345-.2.452-.485.461-.357.011-.716-.012-1.073-.02-.22-.019-.16-.194-.16-.314,0-1.44.009-2.881.015-4.321-.281-.724-.59-.843-1.279-.461a5.51,5.51,0,0,0-.608.45c0,1.421.012,2.843.009,4.264,0,.134.1.331-.145.387-1.583.118-1.554.117-1.591-1.45a21.849,21.849,0,0,0-.191-4.732.227.227,0,0,1,.2-.3c.25-.058.5-.123.747-.185.367-.184.684-.256.774.3.055.335.235.217.413.1a2.6,2.6,0,0,1,2.034-.482,1.441,1.441,0,0,1,1.312,1.473C-8.141,843.645-8.166,845.258-8.153,846.871Zm-3.723-4.109q-.007,2.215-.01,4.43h0Q-11.882,844.977-11.876,842.762Zm47.564,3.949c-.044-.674-.011-1.354-.011-2.031,0-1.224,0-1.224-1.2-1.574q-.086-.025-.17-.056c-.328-.119-.684-.253-.624-.681.065-.464.446-.565.854-.572a2.192,2.192,0,0,1,.417.026c.726.13.732.132.718-.632,0-.25.13-.568-.309-.641a3.972,3.972,0,0,0-2.4.181,2.036,2.036,0,0,0-1.213,2.133,1.827,1.827,0,0,0,1.611,1.676c.369.083.747.13,1.112.224.43.112.819.387.739.841s-.514.656-1,.642a3.428,3.428,0,0,1-1.643-.5c-.421-.247-.609-.152-.782.273-.163.4-.488.772.165,1.034a6.585,6.585,0,0,0,2.2.542c.314-.047.628-.1.943-.138C35.55,847.408,35.72,847.187,35.688,846.711ZM7.036,828.935c-.321-.026-.123-.513-.161-.79-.03-.218.063-.347.3-.321.3.032.347-.131.361-.393.067-1.293.223-1.447,1.5-1.554.171-.014.466-.033.316.22-.206.347-.031.641-.026.956.014.862.02.852.885.875.182,0,.557-.131.512.165-.048.32-.035.8-.535.888-.872.15-.874.144-.873,1.022,0,.856-.007,1.713.007,2.569.012.742.245.974.945.846.392-.072.491.045.528.392.033.3.235.609-.279.73a3.263,3.263,0,0,1-2-.026,1.16,1.16,0,0,1-.867-.961.083.083,0,0,1-.017-.1,1.2,1.2,0,0,1-.1-.7c-.005-1,.007-1.991-.007-2.987C7.523,829.422,7.716,828.989,7.036,828.935Zm.651.433h0c0-.027-.011-.054-.017-.081C7.676,829.313,7.682,829.341,7.687,829.367ZM17.248,846.6l-.02-.115c-.187-.234-.49-.123-.717-.24l-.237-.006c-.462.035-.423-.385-.575-.632q0-1.886.009-3.771a3.832,3.832,0,0,1,1.047,0l.268-.383a.182.182,0,0,1,.1-.208l.009-.029a.249.249,0,0,1,.1-.252c.1-.461-.271-.3-.475-.366-1.1.082-1.1.082-1-.991a2.591,2.591,0,0,0,.011-1,.05.05,0,0,1-.073,0,.411.411,0,0,1-.372.087.076.076,0,0,1-.094.022,3.762,3.762,0,0,1-1.107.295.09.09,0,0,1-.08.065,4.938,4.938,0,0,0-.032.872c.074.553-.12.8-.679.716q0,.568,0,1.135h.043l.032.03c.476-.116.616.071.6.549-.033,1.088.038,2.181-.021,3.266-.088,1.64,1.247,2.006,2.392,1.8.281-.049.569-.1.853-.15l.112-.3A.488.488,0,0,1,17.248,846.6Zm-3.935-5.939h.007v-.008Zm8.384-.135-.038,0-.358-.06-.594.038-.6.347-.006.005-.114.1-.014.013c-.025.164-.075.326-.272.323s-.165-.2-.185-.317c-.075-.45-.336-.563-.7-.355s-1.019-.011-1,.711q.011.125.022.25a.444.444,0,0,1,.115.384q0,2.614-.007,5.228l.131.168,1.548.005.162-.176c-.008-1.441-.031-2.882-.019-4.322.005-.605.692-.929,1.434-.713l.22-.1a2.989,2.989,0,0,1,.355-1.093H21.76C21.751,840.81,21.817,840.653,21.7,840.522Zm-37.352-19.754a1.139,1.139,0,0,0,.207,0,2,2,0,0,0,1.9-1.658c.12-.923-.373-1.588-1.441-1.946-.4-.133-.8-.251-1.185-.411a.863.863,0,0,1-.589-1.044.984.984,0,0,1,.936-.79,2.126,2.126,0,0,1,1.435.3c.226.143.405.217.574-.095.2-.371-.118-.4-.3-.5a3.049,3.049,0,0,0-1.855-.325,1.75,1.75,0,0,0-1.629,1.562,1.589,1.589,0,0,0,1.3,1.737c.36.117.73.206,1.083.342a1.112,1.112,0,0,1,.836,1.276,1.2,1.2,0,0,1-1.225.938,2.62,2.62,0,0,1-1.552-.35c-.246-.15-.37-.106-.5.148s-.012.357.187.454A3.645,3.645,0,0,0-15.655,820.768Zm39.576,20.321.01-.586,0,0-.354-.011-.187.034a.316.316,0,0,1-.057.086,1.961,1.961,0,0,0-1.092.364l.021.12c-.026.051-.073.1-.073.154q-.009,2.878-.011,5.757c0,.169.017.319.216.366l1.414,0c.141-.051.138-.183.165-.3l-.05-5.736Q23.922,841.21,23.922,841.089Zm-11.6-23.454a1.854,1.854,0,0,1,2.212-1.587,1.779,1.779,0,0,1,1.488,1.3,2.558,2.558,0,0,1,.143,1.03c0,1.747-.912,2.645-2.354,2.4-.039-.007-.079-.01-.118-.019C12.6,820.5,12.018,819.176,12.32,817.635Zm.876,1.84a.974.974,0,0,0,.98.727.978.978,0,0,0,1.03-.649,3.3,3.3,0,0,0,.166-1.059,8.193,8.193,0,0,0-.128-1,1.081,1.081,0,0,0-2.132.036A4.08,4.08,0,0,0,13.2,819.475Zm-4.575-2.853c.046-.14.183-.321.031-.44a.7.7,0,0,0-.577-.04c-.225.045-.205.275-.255.434-.327,1.06-.642,2.123-1.012,3.356-.4-1.309-.761-2.443-1.1-3.583-.09-.3-.232-.355-.521-.257s-.306.216-.219.484c.424,1.3.927,2.565,1.278,3.887.2.764.212.98-.437,1.445-.177.127-.263.206-.163.419.115.246.273.164.442.089a1.885,1.885,0,0,0,.989-1.214C7.6,819.68,8.113,818.15,8.621,816.622ZM-12.6,819.49a3.032,3.032,0,0,1-.143-1.1,3.073,3.073,0,0,1,.124-1.02,1.8,1.8,0,0,1,1.828-1.355,1.809,1.809,0,0,1,1.773,1.257,3.7,3.7,0,0,1,.078,2.117,1.787,1.787,0,0,1-1.764,1.418A1.789,1.789,0,0,1-12.6,819.49Zm.625-1.833a8.322,8.322,0,0,0,.125,1.9h0l-.009-.012.15.248h0a1.145,1.145,0,0,0,1.359.331c.769-.37.723-1.133.706-1.825-.024-1.007-.312-1.477-.911-1.639C-11.22,816.476-11.618,816.757-11.972,817.657Zm9.978,1.423a2.727,2.727,0,0,1,.418-2.385,1.184,1.184,0,0,1,.946-.608c.72-.318,1.28.112,1.76.495.5.4.455,1.077.445,1.673,0,.253-.26.25-.461.251-.618,0-1.237.028-1.853-.008-.467-.027-.534.175-.471.567a1.352,1.352,0,0,0,2.034.925c.2-.1.4-.355.564.029.148.35-.178.4-.364.5A1.992,1.992,0,0,1-1.994,819.08Zm1.74-.922a2.641,2.641,0,0,1-.473-.04A2.641,2.641,0,0,0-.254,818.158Zm-.868-.868a1.308,1.308,0,0,0-.077.7l1.893.02a1.01,1.01,0,0,0-.5-1.372A.964.964,0,0,0-1.122,817.29Zm18.635-.022c-.125.9-.01,1.828-.046,2.742-.019.491.086.711.6.5l.118-.035a25.233,25.233,0,0,0,.053-3.209c0-.433.1-.637.565-.57.287.041.625.029.6-.364s-.386-.19-.562-.175c-.548.049-.635-.214-.6-.672.051-.645.239-.894.745-.833.263.031.607.128.617-.209.008-.252-.337-.367-.631-.386a1.252,1.252,0,0,0-1.49,1.307,1.348,1.348,0,0,1-.4.99C16.829,816.636,17.586,816.747,17.513,817.268Zm-22.527,3.208c.15-.1.454-.171.25-.489-.182-.283-.329-.209-.571-.044a1.036,1.036,0,0,1-1.706-.65,3.666,3.666,0,0,1,.008-1.661,1.02,1.02,0,0,1,1.637-.788c.3.159.376.011.512-.168.179-.236-.028-.317-.164-.411a1.79,1.79,0,0,0-2.28.346,2.805,2.805,0,0,0-.6,1.978,2.766,2.766,0,0,0,.218,1.079A1.82,1.82,0,0,0-5.014,820.476Zm7.333-3.81c.536-.046.424.33.428.629,0,.4,0,.8,0,1.194,0,.378,0,.756,0,1.134.008.968.519,1.369,1.467,1.145.166-.039.374-.044.341-.316s-.177-.249-.382-.218c-.523.079-.723-.188-.714-.687.012-.656.021-1.313,0-1.969-.02-.548-.076-1.065.756-.91.259.049.327-.214.342-.4.022-.281-.223-.154-.349-.161-.733-.04-.726-.034-.677-.808.009-.143.172-.411-.133-.413-.228,0-.554-.038-.6.337-.015.118-.028.237-.031.356-.008.281.022.574-.419.53-.193-.019-.195.155-.195.3C2.15,816.531,2.165,816.679,2.319,816.666Zm9.966,10.4a1.123,1.123,0,0,0,1.1-1.049,1.1,1.1,0,0,0-1.051-1.147,1.1,1.1,0,0,0-.047,2.2Zm11.767,11.15-.085-.116-.146-.157-.1-.084-.024-.017-.139-.089a.107.107,0,0,1-.1-.033h-.71a1.536,1.536,0,0,0-.738.742q.011.355.023.71a.257.257,0,0,1,.114.241l0,0a1.431,1.431,0,0,0,1.189.467l0,0,.6-.36.088-.124a1.531,1.531,0,0,0,.04-1.177Zm-2.024.959v0h0ZM5.943,825.316a1.19,1.19,0,0,0-2.019.463q.01.238.02.477h0l.372.591a.158.158,0,0,1,.1.052l.118.076.008,0a1.638,1.638,0,0,0,1.18-.131h0l.123-.116h0l.111-.13,0,0A1.6,1.6,0,0,0,5.943,825.316Zm7.191,6.572a.823.823,0,0,0-.061.134.823.823,0,0,1,.061-.134c.008-.973.021-1.946.024-2.92,0-1.441,0-1.441-1.442-1.051h0l-.23.046c-.027.027-.078.054-.078.081q-.013,3.107-.016,6.214c0,.453.388.315.573.27.4-.1.914.343,1.194-.253a.3.3,0,0,0,0-.119Q13.148,833.022,13.134,831.888Zm-28.48,6.375c-.2-.011-.4-.031-.595-.032a3.77,3.77,0,0,0-.8.041v-.016l-.011.019c-.322.089-.295.352-.208,1.129q0,.134,0,.268-.016,3.741-.028,7.483c0,.046.057.091.087.137.5.013.991.014,1.486.045.274.017.333-.1.332-.345-.006-2.8,0-5.6-.005-8.4C-15.092,838.428-15.033,838.2-15.345,838.263Zm-8.9.218a24.008,24.008,0,0,1-.435,2.7l-.006.136a4.708,4.708,0,0,1-.355,1.814,2.658,2.658,0,0,0,.108.95q.013.2.025.406a13.609,13.609,0,0,0,.545,2.065c.168.373-.138.349-.331.362a11.017,11.017,0,0,1-2.792-.066l-.308-.024a7.29,7.29,0,0,1-2.032-.451l-.254-.146c-.362.111-.557-.191-.818-.33-.283.134-.487-.131-.741-.145l-.817-.132a25.166,25.166,0,0,0-3.221-.123l-.13.014h0l-2.521.465h0l-.73.152-.563.363c.115-1.27.218-2.49.343-3.708.017-.165-.082-.415.2-.485q0-.353.007-.706c-.027-.559-.178-1.136.251-1.625.01-.295-.167-.585-.022-.883-.051-.458.279-.831.285-1.276.342,0,.556-.406.934-.294a1.7,1.7,0,0,1,.821-.157l.738-.2a.635.635,0,0,1,.511-.16l.563.062a5.527,5.527,0,0,1,.833,1.876q.05.22.081.445-.031-.225-.081-.445a5.527,5.527,0,0,0-.833-1.876l-.563-.062a7.456,7.456,0,0,1,2.975-.054c.092.013.121.086.12.171h0c.383-.068.68.185,1.021.275.1-.118.225-.063.325-.014a9.348,9.348,0,0,0,3.209.768c.131.014.365-.1.414.168l-.055.006.055-.006.265-.082c.9-.017,1.791-.03,2.686-.052C-24.323,838.176-24.2,838.221-24.247,838.481Zm-.675,3.073a1.684,1.684,0,0,0-.765.443,1.682,1.682,0,0,1,.765-.443Zm-5.749-2.865a1.62,1.62,0,0,0,.058.279,1.6,1.6,0,0,1-.058-.279,2.409,2.409,0,0,1-.016-.281A2.409,2.409,0,0,0-30.671,838.689Zm2.171-.4a.334.334,0,0,0-.11.148.334.334,0,0,1,.11-.148Zm-.151.409a1.7,1.7,0,0,1,.018-.177A1.7,1.7,0,0,0-28.652,838.7Zm-.641,2.766a.773.773,0,0,1,.577.674.773.773,0,0,0-.577-.674Zm3.395.8c.017-.029.035-.057.055-.086C-25.863,842.212-25.881,842.24-25.9,842.269Zm-4.768-4.425c-.006.187-.022.375-.021.562,0-.187.015-.375.021-.562Zm-.115-.075h0l.109.089Zm-5.866,7.658h0c-.063-.686-.284-1.35-.288-2.047C-36.931,844.076-36.71,844.74-36.647,845.426Zm1.318-.132-.073-.005Zm.484,0,.346,0Zm1.032-.007c-.186-.469-.405-.931-.549-1.413.144.482.363.943.549,1.413Zm4.464-3.355.044.007.045,0a1.3,1.3,0,0,1,.14.416,1.294,1.294,0,0,0-.14-.416l-.034-.463a.155.155,0,0,0-.069,0,1.962,1.962,0,0,0-1.185-1.936,5.174,5.174,0,0,0-1.792-.229.855.855,0,0,0-.043.108l-.226-.038-.243.136a.831.831,0,0,0-.454.293A2.4,2.4,0,0,0-34,841.857l.077.661.169.253a.4.4,0,0,0,.191.344c.114.55.6.754.982,1.055a4.806,4.806,0,0,0,.042.919,4.806,4.806,0,0,1-.042-.919l.462.1.75-.085.114-.053.016-.013c.25.024.443-.149.673-.193h0l.483-.408A1.625,1.625,0,0,0-29.348,841.929Zm.923,4.627a4.4,4.4,0,0,1-.816-.222h0A4.4,4.4,0,0,0-28.425,846.556Zm3.686-5.231a.193.193,0,0,0-.108.068A.193.193,0,0,1-24.739,841.325Zm-5.766-15.9a6.329,6.329,0,0,0-.781-.17,6.321,6.321,0,0,1,.781.17,8,8,0,0,1,1.737.607c.5-.14.966.109,1.454.129.53.023,1.058.085,1.586.129l.558.007.213.008c.3-.013.6-.141.88.076l0,.02-.864.058h0c-.074.056-.2.038-.227.16l-.281.187c.013-.244-.111-.282-.266-.3.155.014.278.053.265.3h-.028a.16.16,0,0,0-.053-.007.16.16,0,0,1,.053.007l-.127.092h0l-.008,0-.122.108-.17.2-1.628,1.336c-.226.264-.563.261-.859.355a.929.929,0,0,0-.539.336l-.191.147c-.154.071-.292.214-.487.113l-.3-.3.035-.031-.035.031-.123-.094.071-.086-.071.086-.2-.169-.207-.031c-.109-.042-.113-.144-.136-.236-.631-.348-1-1.026-1.68-1.314a1.337,1.337,0,0,0-.7-.249l-1.8-1.059a.731.731,0,0,0-.035-.111l-.12-.1h0l-.11-.1-.143-.11h0l-.03-.017c-.213-.047-.243-.2-.214-.38a11.589,11.589,0,0,1,4.095-.157C-31.029,825.118-30.66,825.041-30.506,825.42Zm1.047,3.8a.453.453,0,0,1-.106.011A.453.453,0,0,0-29.459,829.223Zm-.89-.514a.348.348,0,0,0-.067-.031A.348.348,0,0,1-30.349,828.709Zm6.39-.639a.393.393,0,0,0-.013.079l-1.071.388a4.061,4.061,0,0,1-2.047,1.143l-.574.295c.2.293.586.334.813.593l.619.319a2.293,2.293,0,0,1,.955.574c.41.2.655.619,1.084.787a.358.358,0,0,0,.341.133,24.192,24.192,0,0,1,.506-4.2C-23.419,827.407-23.778,828.232-23.959,828.07Zm20.437-12.8a.516.516,0,0,0,.559-.556.5.5,0,0,0-.511-.549.509.509,0,0,0-.592.523A.519.519,0,0,0-3.522,815.274Zm25.778,19.235.252-.005c.178.008.358.005.535.025.264.029.344-.083.338-.338-.037-1.725.059-3.451-.054-5.175a1.231,1.231,0,0,0-.982-1.2,2.352,2.352,0,0,0-2.356.454c-.225.191-.358.213-.581-.018a1.939,1.939,0,0,0-2.046-.46,4.348,4.348,0,0,0-.9.456c-.214-.162-.122-.561-.408-.508a2.525,2.525,0,0,0-1.235.394c-.309.26-.043.589-.029.888.017.358.017.717.021,1.076q.017,1.911.03,3.823c0,.2-.131.556.093.571a2.48,2.48,0,0,0,1.569-.1q.016-2.114.031-4.228a1.016,1.016,0,0,1,1.108-1.019c.714-.016.636.524.644.966.022,1.35.022,2.7.031,4.05-.053.228-.026.392.27.382a6.566,6.566,0,0,1,.893,0c.4.041.51-.108.5-.5-.022-1.289,0-2.578-.011-3.867a.744.744,0,0,1,.235-.69c1.253-.635,1.459-.507,1.467.9.008,1.287.022,2.574.033,3.86C21.7,834.731,22.051,834.468,22.256,834.509Zm-45.51.115a.241.241,0,0,0,.052.1,3.346,3.346,0,0,1-1.012.268l-.719.014-.119-.007-.785-.115-.416-.016a5.4,5.4,0,0,1-1.879-.343,22.829,22.829,0,0,0-3.508-.971,1.7,1.7,0,0,1-.7,0l-2.758.133a7.169,7.169,0,0,1-1.424.339c-.034-.166.079-.213.2-.252l.366-.1.861-.1.119-.084.252-.1h0l.216-.173,1.071-.484a.369.369,0,0,0,.334.074.636.636,0,0,0,.422.235.636.636,0,0,1-.422-.235.054.054,0,0,1,.029-.075c.333-.325.886-.208,1.192-.589l.222-.075h0l.214-.192c.138-.441.612-.42.9-.655l.557-.2.013.015-.013-.015a.476.476,0,0,1,.5-.1l.009.014a.236.236,0,0,0,0,.111l.234.089.117.031c.545.4,1.1.786,1.63,1.2a1.451,1.451,0,0,0,.645.359l.006,0,.114.115c.194.226.55.2.721.466l.319.043a.99.99,0,0,0,.5.238l.245.106a.95.95,0,0,0,.465.276l.884.641-.146.125h0l-1.383.1,1.383-.1.146-.125Zm-6.71-3.584.011.013Zm-8.469,3.231c-.093-1.57.2-3.12.254-4.683.03-.792.124-1.581.19-2.372l.178-.007h0l-.178.007a2.218,2.218,0,0,1,.124-.955.141.141,0,0,0,.111-.012l.247.1a12.076,12.076,0,0,0,1.432.4.054.054,0,0,0,.071.029l1.245.574a10.321,10.321,0,0,0,1.56.945,2.173,2.173,0,0,0,.706.393c.265.169.541.323.791.511.564.423.552.527-.056.794l-.339.222-.261.118-.23.005a.246.246,0,0,0-.028.09c-.331.019-.591.289-.935.267-.061.145-.215.111-.324.163h-.008l-.134.086h0a.509.509,0,0,1-.034.1l-.469.252-.632.186h0l-.047-.007-.153.067a.456.456,0,0,1-.342.13.252.252,0,0,1-.035.09c-.256-.047-.338.287-.583.263-.225-.044-.287.235-.486.243a1.039,1.039,0,0,1,.028-.111,1.032,1.032,0,0,0-.028.111l-.036,0-.233.2c-.19.041-.352.2-.569.134-.13.25-.325.086-.5.078q.012-.3.024-.595l-.025.595c-.2.516,0,1.094-.243,1.6.23.206.436.016.648-.042.343-.094.651-.37,1.043-.193a10.168,10.168,0,0,1-1.679.6l-.049.01-.049-.009C-38.6,834.5-38.553,834.385-38.434,834.271Zm4.884-3.579h0a1.925,1.925,0,0,1,.432-.3A1.929,1.929,0,0,0-33.549,830.692Zm-1.7.761a.083.083,0,0,0-.075.037A.083.083,0,0,1-35.248,831.453Zm-.038-.549c.009.023-.023.064-.037.1h0C-35.309,830.968-35.276,830.928-35.286,830.9Zm-.906.821a1.23,1.23,0,0,0-.187.04A1.208,1.208,0,0,1-36.192,831.725Zm-1.707-2.581q0,.108,0,.216,0-.108,0-.216c-.069-.049-.067-.1,0-.147q0-.11.009-.22a.365.365,0,0,1-.029-.033.392.392,0,0,0,.029.033l-.009.22C-37.966,829.047-37.968,829.1-37.9,829.144Zm-.173,1.9a1.325,1.325,0,0,0-.036.19A1.325,1.325,0,0,1-38.071,831.043Zm.139-2.313a.189.189,0,0,1-.04-.18A.189.189,0,0,0-37.932,828.73Zm34.074-8.208v.007c.639.254.717.208.718-.434q0-1.732,0-3.464c0-.678-.026-.693-.706-.42a2.628,2.628,0,0,0-.017.932A25.31,25.31,0,0,0-3.857,820.522ZM-23.4,834.145l-.213-1.065A.759.759,0,0,0-23.4,834.145Zm23.381.247h0q-.02-2.547-.039-5.094h0c.011-.45-.445-.923.067-1.348a.112.112,0,0,0,.1-.026,1.732,1.732,0,0,0,.834-.225l.008,0,.236-.034.174.155.063.115,0,0a.79.79,0,0,0,.144.543,1.274,1.274,0,0,0,.454-.424h0l.129-.111,0,0,.212-.139.017-.008.239-.1h0l.959,0h0c.166.148.1.308.047.484-.1.316-.18.64-.267.961a.174.174,0,0,0-.028.1c-.353.073-.744-.177-1.07.126l-.009,0a.2.2,0,0,0-.217.126l-.139.112-.114.118-.005.007c-.2.151-.105.368-.108.553-.016,1.293-.02,2.585-.028,3.878h0l.008.34-1.673.012C-.021,834.476-.021,834.434-.021,834.392Zm1.126.017a1.03,1.03,0,0,0,.157-.027A1.03,1.03,0,0,1,1.105,834.409Zm-.992-.022c.317-.05.655.049.976.024-.32.025-.659-.074-.976-.024,0-1.173,0-2.347-.011-3.52C.111,832.04.11,833.214.113,834.387Zm5.751-6.4c0-.107.035-.249-.143-.268-.409-.021-.769.252-1.184.193l-.359.028-.009,6.578,0,0,1.68,0L5.9,834.4l-.062-.117q0-.185,0-.371Q5.854,830.947,5.863,827.986Zm-29.252-1.3-.044-.094c-.017.028-.047.057-.049.086s.025.062.039.093ZM-23,813.944s-.036.142-.091.394a.4.4,0,0,1,.066-.037l-.2,2.152c.077.015.167.031.155.131s-.1.1-.18.109q-.024.144-.049.287c-.176.077-.2-.027-.191-.162.021-.214.051-.427.078-.64.009-.075.017-.151.026-.226-.074.479-.145,1.021-.2,1.6a.684.684,0,0,1,.211-.263l-.187,1.369a.146.146,0,0,1-.1.04c-.021.468-.026.949-.011,1.431a17.988,17.988,0,0,0,.572,2.531c.066.179.05.34-.172.346a7.766,7.766,0,0,1-2.648-.089.174.174,0,0,0,.02-.076,20.022,20.022,0,0,1-2.42-.4.269.269,0,0,1,.019.072,7.617,7.617,0,0,1-1.631-.47c-.074-.015-.166-.061-.106-.156a.136.136,0,0,1,.018-.021,2.435,2.435,0,0,1-1.034-.837s-6.128.52-6.474,1.924l-.026-1.622-.1-.025q0-.146,0-.292a.1.1,0,0,1,.006-.156v-4.482c-.2.06-.166.22-.178.341q-.566,6-1.125,12c-.384,4.1-.878,8.183-1.375,12.269-.156,1.283-.279,2.57-.437,3.853-.023.188.1.467-.215.555v-9.928c.237-.028.189-.226.2-.368q.562-5.434,1.116-10.868c.3-2.909.59-5.819.911-8.726a4.453,4.453,0,0,1,.288-1.9c-.486-.042-.722-.243-.634-.739.065-.363.214-.537.6-.48.275.041.557.041.829.1.227.045.578-.112.636.27.055.365.079.75-.353.949.073,0,.146-.006.218-.011,1.237-.442,4.513-1.413,6.948-.32.2.072.271.1.257.166.6.337,2.323,1.035,5.738.6a8.691,8.691,0,0,0,1.022-.337c.09-.039.189.024.213.143a.692.692,0,0,0-.237.042Zm-3.449,2.305c-.437.015-.873.055-1.311.075-.111.005-.248.023-.285-.139-.209-.046-.444-.014-.609-.2l-.237-.027a.11.11,0,0,1-.143-.078l.008,0-.011-.011s0,0,0,.007l-.247-.135a.07.07,0,0,1-.086-.038.376.376,0,0,1-.1.016l-.382-.348-.13-.084-.649-.24-.18-.043a.514.514,0,0,1-.413-.082l-.035.013-.03-.022-.475-.019-.358,0-.722.121c.038.021.077.053.116.077-.038-.023-.078-.056-.116-.077l-.588.017a.89.89,0,0,1-.485.1l-.243.125-.116-.03a.139.139,0,0,1-.1.04l-.056,1.662-.011.363.04,2.87.335-.111a.176.176,0,0,1,0-.07,6.431,6.431,0,0,1,2.812-.206l.205.022a3.121,3.121,0,0,1,1.373.449l.177.081,1.7.538a.092.092,0,0,1,.1.018c.376.035.751.086,1.128.1.278.01.458-.007.369-.437a9.8,9.8,0,0,1-.168-2.668,6.115,6.115,0,0,1,.292-1.188C-25.929,816.19-26.149,816.239-26.444,816.249Zm.941,6.632-.174-.017C-25.619,822.872-25.561,822.877-25.5,822.881Zm2.061-.589c.015.076.032.15.049.225A2.047,2.047,0,0,0-23.442,822.292Z" transform="translate(209.354 -809.778)" fill="#95a0ac"></path></g></g></svg> 