<svg height="98" viewBox="0 0 98 98" width="98" xmlns="http://www.w3.org/2000/svg"><path d="m74.002 60.01v-34.475l-20-6.555v41.03h-2v-54h-5c-.553 0-1-.448-1-1v-3h-14v3c0 .552-.448 1-1 1h-5v23 27 4h-2v-4-26h-22v30h-2v-31c0-.553.447-1 1-1h23v-23c0-.553.447-1 1-1h5v-3c0-.553.447-1 1-1h16c.552 0 1 .447 1 1v3h5c.552 0 1 .447 1 1v11.868l21.308 6.907c.412.134.692.518.692.952v35.273zm-69-28h6c.552 0 1 .447 1 1v6c0 .552-.448 1-1 1h-6c-.553 0-1-.448-1-1v-6c0-.553.447-1 1-1zm1 6h4v-4h-4zm9-6h6c.552 0 1 .447 1 1v6c0 .552-.448 1-1 1h-6c-.553 0-1-.448-1-1v-6c0-.553.447-1 1-1zm1 6h4v-4h-4zm17-28h12c.552 0 1 .447 1 .999v6c0 .552-.448 1-1 1h-12c-.553 0-1-.448-1-1v-6c0-.552.447-.999 1-.999zm1 6h10v-4h-10zm-1 4h12c.552 0 1 .447 1 1v6c0 .552-.448 1-1 1h-12c-.553 0-1-.448-1-1v-6c0-.553.447-1 1-1zm1 6h10v-4h-10zm-1 20h12c.552 0 1 .447 1 1v13h-2v-12h-10v12h-2v-13c0-.553.447-1 1-1zm24-20h6c.552 0 1 .447 1 1v6c0 .552-.448 1-1 1h-6c-.553 0-1-.448-1-1v-6c0-.553.447-1 1-1zm1 6h4v-4h-4zm7 4h6c.552 0 1 .447 1 1v6c0 .552-.448 1-1 1h-6c-.553 0-1-.448-1-1v-6c0-.553.447-1 1-1zm1 5.999h4v-3.999h-4z" fill="#cccbcb" transform="translate(12 21)"/><path d="m0 0h100v2h-100z" fill="#fc0" transform="translate(0 79)"/></svg>