<svg xmlns="http://www.w3.org/2000/svg" width="22" height="18" viewBox="0 0 22 18">
    <g fill="none" fill-rule="evenodd">
        <g fill-rule="nonzero">
            <g>
                <g>
                    <g>
                        <path fill="#FFD400" d="M0 15.75H20.25V18H0z" transform="translate(-278 -301) translate(218 298) translate(27 1) translate(33 2)"/>
                        <path fill="#000" d="M7.29 12.004c-.643 1.98-1.482 2.621-3.19 2.621-.58 0-1.153-.119-1.691-.353v-2.325c.476.211.983.325 1.496.334.755 0 1.076-.423 1.076-.961-.027-.301-.103-.595-.225-.866-.153-.435-3.631-10.2-3.631-10.2H3.71l2.51 8.195h.032L8.474.253h2.469L7.289 12.004zM11.707.254h2.365v.917h.04c.804-.775 1.843-1.193 2.912-1.17 2.481 0 4.35 2.536 4.35 5.649 0 2.865-1.535 5.651-4.624 5.651-1.234 0-2.241-.48-2.678-1.07v4.264h-2.365V.253zm7.189 5.396c-.02-1.557-.667-3.26-2.45-3.26-1.782 0-2.43 1.706-2.45 3.26.02 1.556.666 3.258 2.45 3.258 1.785 0 2.43-1.705 2.45-3.258z" transform="translate(-278 -301) translate(218 298) translate(27 1) translate(33 2)"/>
                    </g>
                </g>
            </g>
        </g>
    </g>
</svg>
