<?xml version="1.0" encoding="utf-8"?>
<!-- Generator: Adobe Illustrator 22.1.0, SVG Export Plug-In . SVG Version: 6.00 Build 0)  -->
<svg version="1.1" id="Layer_1" xmlns="http://www.w3.org/2000/svg" xmlns:xlink="http://www.w3.org/1999/xlink" x="0px" y="0px"
	 viewBox="0 0 137.4 36.1" style="enable-background:new 0 0 137.4 36.1;" xml:space="preserve">
<style type="text/css">
	.st0{fill:#FFFFFF;}
</style>
<title>csc_logo_white</title>
<g>
	<g>
		<g>
			<g>
				<path class="st0" d="M99.3,22.7c0-0.8,0.2-1.1,1-1.1h2.1l1,3.7c0.3,0.2,1.8,1.3,3.9,1.3c2.8,0,4.1-1.4,4.1-3
					c0-1.5-1.1-2.7-3.4-3.4c-0.7-0.2-1.6-0.5-2.1-0.6c-3.8-1.1-6.6-2.9-6.6-6.8c0-4.7,3.8-6.6,8.1-6.6c4.6,0,7.1,1.7,7.8,2.1v4.7
					c0,0.8-0.3,1.1-1,1.1h-2l-1.1-3.9c-0.3-0.2-1.5-0.9-3.4-0.9c-2.3,0-3.8,1-3.8,2.9c0,1.9,1.9,2.9,4.3,3.6
					c0.7,0.2,1.3,0.4,1.8,0.5c3.5,1,6.2,3,6.2,6.6c0,5.2-4.1,6.9-8.8,6.9c-4.6,0-7.3-1.8-8-2.3V22.7z M96.2,23.7
					c0-0.4-0.2-0.7-0.6-0.7c-0.4,0-0.7,0.4-1.1,0.8c-0.5,0.4-2.2,2.6-5.5,2.6c-3.5,0-6.7-3.2-6.7-8.4c0-4.8,2.4-8.6,6.7-8.6
					c1.4,0,2.7,0.4,3.1,0.5l1.2,4.1h2c0.6,0,1-0.2,1-1.1l0-4.7c-0.9-0.6-3.2-2.1-7.3-2.1c-7,0-11.7,4.4-11.7,11.8
					c0,7.8,4.8,11.8,11.3,11.8c4.1,0,6.8-1.7,7.7-2.3V23.7z M137.4,23.7c0-0.4-0.2-0.7-0.6-0.7c-0.4,0-0.7,0.4-1.1,0.8
					c-0.5,0.4-2.2,2.6-5.5,2.6c-3.5,0-6.7-3.2-6.7-8.4c0-4.8,2.4-8.6,6.7-8.6c1.4,0,2.7,0.4,3.1,0.5l1.2,4.1h2c0.6,0,1-0.2,1-1.1
					l0-4.7c-0.9-0.6-3.2-2.1-7.3-2.1c-7,0-11.7,4.4-11.7,11.8c0,7.8,4.8,11.8,11.3,11.8c4.1,0,6.8-1.7,7.7-2.3V23.7z"/>
				<g>
					<path class="st0" d="M18,7.3c5.3,0,8.3,3.6,9.3,5.3c0.9-2.2,2.8-5.8,3.7-7c-1.4-1.5-5.9-5.5-13-5.5c-10.1,0-18,8.2-18,18
						c0,10.6,8.6,17.2,15.6,17.8v-7.3c-3.8-0.8-8.4-4.5-8.4-10.5C7.2,12.1,12.1,7.3,18,7.3z"/>
					<path class="st0" d="M53.7,0.2v7.3c3.8,0.8,8.4,4.5,8.4,10.5c0,6-4.9,10.8-10.8,10.8c-5.3,0-8.3-3.6-9.3-5.3
						c-0.9,2.2-2.8,5.8-3.7,7c1.4,1.5,5.9,5.5,13,5.5c10.1,0,18-8.2,18-18C69.3,7.4,60.6,0.9,53.7,0.2z"/>
					<path class="st0" d="M48.9,7.4V0.1c-11,1.1-14.6,9.7-17.6,16.5c-3.6,8.3-5.9,10.9-10.9,12v7.3C31,34.8,35,26.2,37.9,19.5
						C40.8,12.6,43.1,8.3,48.9,7.4z"/>
				</g>
			</g>
		</g>
	</g>
	<path class="st0" d="M65.6,34c0-0.8,0.6-1.4,1.3-1.4c0.7,0,1.3,0.6,1.3,1.4c0,0.8-0.6,1.4-1.3,1.4C66.1,35.4,65.6,34.8,65.6,34z
		 M66.9,35.6c0.9,0,1.6-0.7,1.6-1.6c0-0.9-0.8-1.6-1.6-1.6c-0.9,0-1.7,0.7-1.7,1.6C65.2,34.9,66,35.6,66.9,35.6z M66.5,34.1h0.3
		l0.5,0.8h0.3l-0.5-0.8c0.3,0,0.5-0.2,0.5-0.5c0-0.4-0.2-0.5-0.7-0.5h-0.7v1.9h0.3V34.1z M66.5,33.9v-0.6h0.4c0.2,0,0.4,0,0.4,0.3
		c0,0.3-0.2,0.3-0.5,0.3H66.5z"/>
</g>
</svg>
