<?xml version="1.0" encoding="utf-8"?>
<!-- Generator: Adobe Illustrator 27.1.1, SVG Export Plug-In . SVG Version: 6.00 Build 0)  -->
<svg version="1.1" id="Icon__x28_Outline_x29_" xmlns="http://www.w3.org/2000/svg" xmlns:xlink="http://www.w3.org/1999/xlink"
	 x="0px" y="0px" viewBox="0 0 32 32" style="enable-background:new 0 0 32 32;" xml:space="preserve">
<style type="text/css">
	.st0{fill:#009FDB;}
</style>
<g>
	<path class="st0" d="M19.6,20.3c1.3-1.1,2.2-2.7,2.2-4.5c0-3.2-2.6-5.8-5.8-5.8s-5.8,2.6-5.8,5.8c0,1.8,0.9,3.5,2.2,4.5
		C9.2,21.7,7,24.9,7,28.6V31h2v-2.4c0-3.9,3.1-7,7-7s7,3.1,7,7V31h2v-2.4C25,24.9,22.8,21.7,19.6,20.3z M12.2,15.8
		c0-2.1,1.7-3.8,3.8-3.8s3.8,1.7,3.8,3.8s-1.7,3.8-3.8,3.8S12.2,17.9,12.2,15.8z"/>
	<path class="st0" d="M14.1,5.8L13.7,8l2-1.1c0.2-0.1,0.4-0.1,0.6,0l2,1.1l-0.4-2.2c0-0.2,0-0.4,0.2-0.5l1.6-1.6l-2.2-0.3
		c-0.2,0-0.4-0.2-0.5-0.3l-1-2l-1,2c-0.1,0.2-0.3,0.3-0.5,0.3l-2.2,0.3l1.6,1.6C14.1,5.4,14.1,5.6,14.1,5.8z"/>
	<path class="st0" d="M8.6,9.7c0-0.2,0-0.4,0.2-0.5l1.6-1.6L8.2,7.2C8,7.2,7.8,7.1,7.7,6.9l-1-2l-1,2C5.6,7.1,5.4,7.2,5.2,7.2L3,7.6
		l1.6,1.6c0.1,0.1,0.2,0.3,0.2,0.5l-0.4,2.2l2-1.1c0.2-0.1,0.4-0.1,0.6,0l2,1.1L8.6,9.7z"/>
	<path class="st0" d="M27.4,9.1L29,7.6l-2.2-0.3c-0.2,0-0.4-0.2-0.5-0.3l-1-2l-1,2c-0.1,0.2-0.3,0.3-0.5,0.3l-2.2,0.3l1.6,1.6
		c0.1,0.1,0.2,0.3,0.2,0.5L23,11.9l2-1.1c0.2-0.1,0.4-0.1,0.6,0l2,1.1l-0.4-2.2C27.2,9.5,27.2,9.3,27.4,9.1z"/>
</g>
</svg>
