<?xml version="1.0" encoding="utf-8"?>
<!-- Generator: Adobe Illustrator 27.1.1, SVG Export Plug-In . SVG Version: 6.00 Build 0)  -->
<svg version="1.1" id="Icon__x28_Outline_x29_" xmlns="http://www.w3.org/2000/svg" xmlns:xlink="http://www.w3.org/1999/xlink"
	 x="0px" y="0px" viewBox="0 0 32 32" style="enable-background:new 0 0 32 32;" xml:space="preserve">
<style type="text/css">
	.st0{fill:#009FDB;}
</style>
<g>
	<rect x="19" y="22" class="st0" width="4" height="2"/>
	<path class="st0" d="M31,8.1L25.7,5H6.3L1,8.1l1,1.7l2.8-1.7L2.4,13H5v12c0,1.6,1.3,3,3,3h16c1.6,0,3-1.4,3-3V13h2.6l-2.5-4.8
		l2.8,1.7L31,8.1z M24.3,7l2.1,4H5.6l2.1-4H24.3z M25,25c0,0.5-0.5,1-1,1H8c-0.6,0-1-0.5-1-1V13h18V25z"/>
</g>
</svg>
