<svg width="32" height="32" xmlns="http://www.w3.org/2000/svg" xmlns:xlink="http://www.w3.org/1999/xlink" xml:space="preserve" overflow="hidden"><defs><clipPath id="clip0"><rect x="807" y="207" width="32" height="32"/></clipPath></defs><g clip-path="url(#clip0)" transform="translate(-807 -207)"><path d="M826 220 833 220 833 222 826 222Z" fill="#009FDB"/><path d="M826 225 833 225 833 227 826 227Z" fill="#009FDB"/><path d="M836 212C828.3 212 824.5 214.32 823 215.6 821.5 214.32 817.7 212 810 212L809 212 809 232 810 232C816.81 232 819.65 233.88 821.35 235 821.84 235.32 822.41 235.49 823 235.49 823.59 235.49 824.15 235.32 824.65 234.99 826.35 233.87 829.19 231.99 836 231.99L837 231.99 837 212 836 212ZM811 230.01 811 214.01C818.23 214.22 821.25 216.66 822 217.39L822 233.03C820.23 231.89 817.15 230.18 811 230.01ZM835 230.01C828.85 230.18 825.77 231.89 824 233.03L824 217.39C824.76 216.65 827.78 214.22 835 214.01L835 230.01Z" fill="#009FDB"/></g></svg>