<?xml version="1.0" encoding="utf-8"?>
<!-- Generator: Adobe Illustrator 27.1.1, SVG Export Plug-In . SVG Version: 6.00 Build 0)  -->
<svg version="1.1" id="Icon__x28_Outline_x29_" xmlns="http://www.w3.org/2000/svg" xmlns:xlink="http://www.w3.org/1999/xlink"
	 x="0px" y="0px" viewBox="0 0 32 32" style="enable-background:new 0 0 32 32;" xml:space="preserve">
<style type="text/css">
	.st0{fill:#009FDB;}
</style>
<path class="st0" d="M16,1C7.7,1,1,7.7,1,16s6.7,15,15,15s15-6.7,15-15S24.3,1,16,1z M16,29C8.8,29,3,23.2,3,16c0-1.5,0.3-3,0.8-4.4
	C4,11.7,4.2,11.9,4.4,12c0,0,3.2,1.2,2.9,2.7C7,16,6.8,16,6.9,17.1c0.2,1.9,2.5,2.1,3.3,3.2s0.8,3.6,0.9,5c0.2,1.4,0.9,1.1,1.6,0.9
	c0.8-0.2,0.7-1.7,0.7-3.1s2.2-1.2,2.2-2.8s1.1-0.9,1.1-3.4s-3-2.7-4.2-3.8c-1.2-1.2-2.1-1.1-2.9-0.6C8.7,12.9,8,12.3,8,11.8
	s-0.4-1.7-1.2-1.2s-1.6-0.2-1-1.6s2.4-0.7,2.4-0.7S8,9.6,8.9,9.5S9.3,7,12.6,4.8c1.1-0.7,3.5-1.7,4.5-1.7c1.3,0.1,2.6,0.4,3.8,0.9
	c0,0.5-0.1,0.8-0.3,0.8c-0.7-0.1-1,0.2-1,1C19.4,6.6,19.2,6.9,20,7s1,0.1,1.3-0.5c0.2-0.4,1.4-0.8,2.3-1.1C24.5,6,25.3,6.8,26,7.6
	c-0.1,0-0.3,0-0.4,0C24.2,7.5,23,9,22.1,9.8s-0.9,1.7-0.9,3s0.8,1.9,1.6,2.4c0.8,0.5,2.1-0.2,2.6-0.2s0.7,0.8,0.6,1.9
	c-0.2,1.1,0.7,2.1,1,2.6c0.2,0.4,0.2,1.6,0.4,2.7C25.2,26.3,20.9,29,16,29z"/>
</svg>
