<?xml version="1.0" encoding="utf-8"?>
<!-- Generator: Adobe Illustrator 27.1.1, SVG Export Plug-In . SVG Version: 6.00 Build 0)  -->
<svg version="1.1" id="Icon__x28_Outlined_x29_" xmlns="http://www.w3.org/2000/svg" xmlns:xlink="http://www.w3.org/1999/xlink"
	 x="0px" y="0px" viewBox="0 0 32 32" style="enable-background:new 0 0 32 32;" xml:space="preserve">
<style type="text/css">
	.st0{fill:#009FDB;}
</style>
<g>
	<rect x="17.9" y="10.6" transform="matrix(0.7071 -0.7071 0.7071 0.7071 -3.7276 17.2298)" class="st0" width="2" height="5"/>
	<path class="st0" d="M26.6,8.7l-0.7,0.7c-0.9,0.9-2.4,0.9-3.3,0s-0.9-2.4,0-3.3l0.7-0.7L19,1.1L1.1,18.9l4.3,4.3l0.7-0.7
		c0.9-0.9,2.4-0.9,3.3,0s0.9,2.4,0,3.3l-0.7,0.7l4.3,4.3L30.8,13L26.6,8.7z M11.5,26.5c1-1.7,0.8-3.9-0.6-5.3s-3.7-1.7-5.3-0.6L4,19
		l9.7-9.7l1.6,1.6l1.4-1.4l-1.6-1.6L19,4l1.6,1.6c-1,1.7-0.8,3.9,0.6,5.3s3.7,1.7,5.3,0.6l1.6,1.6L24.2,17l-1.6-1.6l-1.4,1.4
		l1.6,1.6l-9.7,9.7L11.5,26.5z"/>
</g>
</svg>
