<?xml version="1.0" encoding="utf-8"?>
<!-- Generator: Adobe Illustrator 27.1.1, SVG Export Plug-In . SVG Version: 6.00 Build 0)  -->
<svg version="1.1" id="Icon__x28_Outline_x29_" xmlns="http://www.w3.org/2000/svg" xmlns:xlink="http://www.w3.org/1999/xlink"
	 x="0px" y="0px" viewBox="0 0 32 32" style="enable-background:new 0 0 32 32;" xml:space="preserve">
<style type="text/css">
	.st0{fill:#009FDB;}
</style>
<path class="st0" d="M26.3,11.5c1.1-1,1.9-2.4,1.9-3.9c0-2.9-2.3-5.2-5.2-5.2s-5.2,2.3-5.2,5.2c0,1.6,0.7,3,1.8,3.9
	c-0.4,0.2-0.7,0.4-1.1,0.6c-0.8-0.4-1.6-0.7-2.6-0.7s-1.8,0.3-2.6,0.7c-0.3-0.2-0.7-0.4-1.1-0.6c1.1-1,1.8-2.4,1.8-3.9
	c0-2.9-2.3-5.2-5.2-5.2s-5,2.3-5,5.1c0,1.6,0.7,3,1.9,3.9C3,12.7,1,15.4,1,18.7V20h2v-1.3c0-3.3,2.7-6,6-6c1,0,2,0.2,2.8,0.7
	c-0.6,0.9-1,1.9-1,3.1c0,1.6,0.7,3,1.9,3.9C10,21.7,8,24.4,8,27.7V29h2v-1.3c0-3.3,2.7-6,6-6s6,2.7,6,6V29h2v-1.3
	c0-3.2-1.9-6-4.7-7.3c1.1-1,1.9-2.4,1.9-3.9c0-1.2-0.4-2.2-1-3.1C21,13,22,12.7,23,12.7c3.3,0,6,2.7,6,6V20h2v-1.3
	C31,15.5,29.1,12.7,26.3,11.5z M5.8,7.5c0-1.8,1.4-3.2,3.2-3.2s3.2,1.4,3.2,3.2s-1.4,3.2-3.2,3.2S5.8,9.3,5.8,7.5z M12.8,16.5
	c0-1.8,1.4-3.2,3.2-3.2s3.2,1.4,3.2,3.2s-1.4,3.2-3.2,3.2S12.8,18.3,12.8,16.5z M19.8,7.5c0-1.8,1.4-3.2,3.2-3.2s3.2,1.4,3.2,3.2
	s-1.4,3.2-3.2,3.2S19.8,9.3,19.8,7.5z"/>
</svg>
