<?xml version="1.0" encoding="utf-8"?>
<!-- Generator: Adobe Illustrator 27.1.1, SVG Export Plug-In . SVG Version: 6.00 Build 0)  -->
<svg version="1.1" id="Icon__x28_Outlined_x29_" xmlns="http://www.w3.org/2000/svg" xmlns:xlink="http://www.w3.org/1999/xlink"
	 x="0px" y="0px" viewBox="0 0 32 32" style="enable-background:new 0 0 32 32;" xml:space="preserve">
<style type="text/css">
	.st0{fill:#009FDB;}
</style>
<g>
	<path class="st0" d="M30.5,14.9l-3.1-4.6C26.9,9.5,25.9,9,24.9,9H21V8c0-1.7-1.3-3-3-3H4C2.3,5,1,6.3,1,8v13c0,1.7,1.3,3,3,3h0.1
		c0.4,1.7,2,3,3.9,3s3.4-1.3,3.9-3h8.3c0.4,1.7,2,3,3.9,3s3.4-1.3,3.9-3l0,0c1.7,0,3-1.3,3-3v-4.4C31,16,30.8,15.4,30.5,14.9z M8,25
		c-1.1,0-2-0.9-2-2s0.9-2,2-2s2,0.9,2,2S9.1,25,8,25z M8,19c-1.9,0-3.4,1.3-3.9,3H4c-0.6,0-1-0.4-1-1V8c0-0.6,0.4-1,1-1h14
		c0.6,0,1,0.4,1,1v14h-7.1C11.4,20.3,9.9,19,8,19z M24,25c-1.1,0-2-0.9-2-2s0.9-2,2-2s2,0.9,2,2S25.1,25,24,25z M29,21
		c0,0.6-0.4,1-1,1h-0.1c-0.4-1.7-2-3-3.9-3c-1.2,0-2.3,0.5-3,1.4V11h3.9c0.3,0,0.6,0.2,0.8,0.4l3.1,4.6c0.1,0.2,0.2,0.4,0.2,0.6V21z
		"/>
</g>
</svg>
