<?xml version="1.0" encoding="utf-8"?>
<!-- Generator: Adobe Illustrator 27.1.1, SVG Export Plug-In . SVG Version: 6.00 Build 0)  -->
<svg version="1.1" id="Icon__x28_Outline_x29_" xmlns="http://www.w3.org/2000/svg" xmlns:xlink="http://www.w3.org/1999/xlink"
	 x="0px" y="0px" viewBox="0 0 32 32" style="enable-background:new 0 0 32 32;" xml:space="preserve">
<style type="text/css">
	.st0{fill:#009FDB;}
</style>
<g>
	<path class="st0" d="M16,25h10v-7H16V25z M18,20h6v3h-6V20z"/>
	<path class="st0" d="M31,6h-1.2l-1-4H3.2l-1,4H1v6h1v15c0,1.7,1.3,3,3,3h22c1.7,0,3-1.3,3-3V12h1V6z M8.5,12c-0.1,1.1-1.1,2-2.2,2
		S4.2,13.1,4,12H8.5z M15,12c-0.1,1.1-1.1,2-2.2,2s-2.1-0.9-2.2-2H15z M21.5,12c-0.1,1.1-1.1,2-2.2,2s-2.1-0.9-2.2-2H21.5z M28,12
		c-0.1,1.1-1.1,2-2.2,2s-2.1-0.9-2.2-2H28z M29,10H3V8h26V10z M4.8,4h22.4l0.5,2H4.3L4.8,4z M8,28v-6.5C8,20.7,8.7,20,9.5,20
		s1.5,0.7,1.5,1.5V28H8z M27,28H13v-6.5c0-1.9-1.6-3.5-3.5-3.5S6,19.6,6,21.5V28H5c-0.6,0-1-0.4-1-1V15.3C4.7,15.8,5.4,16,6.2,16
		c1.3,0,2.5-0.6,3.2-1.5c0.8,0.9,1.9,1.5,3.2,1.5s2.5-0.6,3.2-1.5c0.8,0.9,1.9,1.5,3.2,1.5s2.5-0.6,3.2-1.5c0.8,0.9,1.9,1.5,3.2,1.5
		c0.8,0,1.6-0.2,2.2-0.7V27C28,27.6,27.6,28,27,28z"/>
</g>
</svg>
