<?xml version="1.0" encoding="utf-8"?>
<!-- Generator: Adobe Illustrator 27.1.1, SVG Export Plug-In . SVG Version: 6.00 Build 0)  -->
<svg version="1.1" id="Layer_1" xmlns="http://www.w3.org/2000/svg" xmlns:xlink="http://www.w3.org/1999/xlink" x="0px" y="0px"
	 viewBox="0 0 32 32" style="enable-background:new 0 0 32 32;" xml:space="preserve">
<style type="text/css">
	.st0{display:none;}
	.st1{display:inline;opacity:0.15;enable-background:new    ;}
	.st2{display:inline;}
	.st3{fill:none;stroke:#B3B3B3;stroke-width:3.000000e-02;stroke-miterlimit:10;}
	.st4{fill:none;stroke:#989898;stroke-width:5.000000e-02;stroke-miterlimit:10;}
	.st5{fill:#009FDB;}
</style>
<g id="Clear_Space" class="st0">
	<path class="st1" d="M0,0v32h32V0H0z M31,31H1V1h30V31z"/>
</g>
<g id="Pixel_Grid" class="st0">
	<g class="st2">
		<g>
			<line class="st3" x1="0" y1="0" x2="0" y2="32"/>
			<line class="st3" x1="1" y1="0" x2="1" y2="32"/>
			<line class="st3" x1="2" y1="0" x2="2" y2="32"/>
			<line class="st3" x1="3" y1="0" x2="3" y2="32"/>
			<line class="st3" x1="4" y1="0" x2="4" y2="32"/>
			<line class="st3" x1="5" y1="0" x2="5" y2="32"/>
			<line class="st3" x1="6" y1="0" x2="6" y2="32"/>
			<line class="st3" x1="7" y1="0" x2="7" y2="32"/>
			<line class="st3" x1="8" y1="0" x2="8" y2="32"/>
			<line class="st3" x1="9" y1="0" x2="9" y2="32"/>
			<line class="st3" x1="10" y1="0" x2="10" y2="32"/>
			<line class="st3" x1="11" y1="0" x2="11" y2="32"/>
			<line class="st3" x1="12" y1="0" x2="12" y2="32"/>
			<line class="st3" x1="13" y1="0" x2="13" y2="32"/>
			<line class="st3" x1="14" y1="0" x2="14" y2="32"/>
			<line class="st3" x1="15" y1="0" x2="15" y2="32"/>
			<line class="st3" x1="16" y1="0" x2="16" y2="32"/>
			<line class="st3" x1="17" y1="0" x2="17" y2="32"/>
			<line class="st3" x1="18" y1="0" x2="18" y2="32"/>
			<line class="st3" x1="19" y1="0" x2="19" y2="32"/>
			<line class="st3" x1="20" y1="0" x2="20" y2="32"/>
			<line class="st3" x1="21" y1="0" x2="21" y2="32"/>
			<line class="st3" x1="22" y1="0" x2="22" y2="32"/>
			<line class="st3" x1="23" y1="0" x2="23" y2="32"/>
			<line class="st3" x1="24" y1="0" x2="24" y2="32"/>
			<line class="st3" x1="25" y1="0" x2="25" y2="32"/>
			<line class="st3" x1="26" y1="0" x2="26" y2="32"/>
			<line class="st3" x1="27" y1="0" x2="27" y2="32"/>
			<line class="st3" x1="28" y1="0" x2="28" y2="32"/>
			<line class="st3" x1="29" y1="0" x2="29" y2="32"/>
			<line class="st3" x1="30" y1="0" x2="30" y2="32"/>
			<line class="st3" x1="31" y1="0" x2="31" y2="32"/>
			<line class="st3" x1="32" y1="0" x2="32" y2="32"/>
			<line class="st3" x1="32" y1="0" x2="0" y2="0"/>
			<line class="st3" x1="32" y1="1" x2="0" y2="1"/>
			<line class="st3" x1="32" y1="2" x2="0" y2="2"/>
			<line class="st3" x1="32" y1="3" x2="0" y2="3"/>
			<line class="st3" x1="32" y1="4" x2="0" y2="4"/>
			<line class="st3" x1="32" y1="5" x2="0" y2="5"/>
			<line class="st3" x1="32" y1="6" x2="0" y2="6"/>
			<line class="st3" x1="32" y1="7" x2="0" y2="7"/>
			<line class="st3" x1="32" y1="8" x2="0" y2="8"/>
			<line class="st3" x1="32" y1="9" x2="0" y2="9"/>
			<line class="st3" x1="32" y1="10" x2="0" y2="10"/>
			<line class="st3" x1="32" y1="11" x2="0" y2="11"/>
			<line class="st3" x1="32" y1="12" x2="0" y2="12"/>
			<line class="st3" x1="32" y1="13" x2="0" y2="13"/>
			<line class="st3" x1="32" y1="14" x2="0" y2="14"/>
			<line class="st3" x1="32" y1="15" x2="0" y2="15"/>
			<line class="st3" x1="32" y1="16" x2="0" y2="16"/>
			<line class="st3" x1="32" y1="17" x2="0" y2="17"/>
			<line class="st3" x1="32" y1="18" x2="0" y2="18"/>
			<line class="st3" x1="32" y1="19" x2="0" y2="19"/>
			<line class="st3" x1="32" y1="20" x2="0" y2="20"/>
			<line class="st3" x1="32" y1="21" x2="0" y2="21"/>
			<line class="st3" x1="32" y1="22" x2="0" y2="22"/>
			<line class="st3" x1="32" y1="23" x2="0" y2="23"/>
			<line class="st3" x1="32" y1="24" x2="0" y2="24"/>
			<line class="st3" x1="32" y1="25" x2="0" y2="25"/>
			<line class="st3" x1="32" y1="26" x2="0" y2="26"/>
			<line class="st3" x1="32" y1="27" x2="0" y2="27"/>
			<line class="st3" x1="32" y1="28" x2="0" y2="28"/>
			<line class="st3" x1="32" y1="29" x2="0" y2="29"/>
			<line class="st3" x1="32" y1="30" x2="0" y2="30"/>
			<line class="st3" x1="32" y1="31" x2="0" y2="31"/>
			<line class="st3" x1="32" y1="32" x2="0" y2="32"/>
		</g>
	</g>
</g>
<g id="Grid_Target" class="st0">
	<g class="st2">
		<line class="st4" x1="16" y1="1" x2="16" y2="31"/>
		<line class="st4" x1="1" y1="16" x2="31" y2="16"/>
		<circle class="st4" cx="16" cy="16" r="15"/>
		<rect x="1" y="6" class="st4" width="30" height="20"/>
		<rect x="6" y="1" class="st4" width="20" height="30"/>
		<rect x="3" y="3" class="st4" width="26" height="26"/>
		<line class="st4" x1="3" y1="29" x2="29" y2="3"/>
		<line class="st4" x1="3" y1="3" x2="29" y2="29"/>
	</g>
</g>
<g id="Icon__x28_Outline_x29_">
	<g>
		<g>
			<path class="st5" d="M17.5,31h-3c-1.4,0-2.5-1.1-2.5-2.5V28c0-1-0.5-2-1.4-2.5c-1-0.6-2.2-0.6-3.1,0l-0.3,0.2
				C6,26.4,4.5,26,3.8,24.8l-1.5-2.6C1.6,21,2,19.5,3.2,18.8l0.3-0.2C4.4,18.1,5,17.1,5,16s-0.6-2.1-1.5-2.6l-0.3-0.2
				C2,12.5,1.6,11,2.3,9.8l1.5-2.6C4.5,6,6,5.6,7.2,6.3l0.3,0.2c1,0.6,2.2,0.6,3.1,0C11.5,5.9,12,5,12,4V3.5C12,2.1,13.1,1,14.5,1h3
				C18.9,1,20,2.1,20,3.5v0.4c0,1.1,0.6,2,1.5,2.6c0.9,0.5,2.1,0.5,3,0l0.3-0.2C26,5.6,27.5,6,28.2,7.2l1.5,2.6
				c0.7,1.2,0.3,2.7-0.9,3.4l-0.3,0.2C27.6,13.9,27,14.9,27,16l0,0c0,1.1,0.6,2.1,1.5,2.6l0.3,0.2c1.2,0.7,1.6,2.2,0.9,3.4l-1.5,2.6
				c-0.7,1.2-2.2,1.6-3.4,0.9l-0.3-0.2c-1-0.6-2.2-0.6-3.1,0S20,27,20,28v0.5C20,29.9,18.9,31,17.5,31z M9,23.2
				c0.9,0,1.8,0.2,2.6,0.7c1.5,0.9,2.4,2.5,2.4,4.2v0.5c0,0.3,0.2,0.5,0.5,0.5h3c0.3,0,0.5-0.2,0.5-0.5V28c0-1.7,0.9-3.3,2.4-4.2
				c1.6-0.9,3.5-0.9,5.1,0l0.3,0.2c0.2,0.1,0.5,0.1,0.7-0.2l1.5-2.6c0.1-0.2,0.1-0.5-0.2-0.7l-0.3-0.2C26,19.5,25,17.8,25,16
				s1-3.5,2.5-4.4l0.3-0.2c0.2-0.1,0.3-0.4,0.2-0.7l-1.5-2.6c-0.1-0.2-0.4-0.3-0.7-0.2l-0.3,0.2C24,9,22,9,20.5,8.1
				C19,7.3,18,5.7,18,3.9V3.5C18,3.2,17.8,3,17.5,3h-3C14.2,3,14,3.2,14,3.5V4c0,1.7-0.9,3.3-2.4,4.2C10,9.1,8,9.1,6.5,8.2L6.2,8
				C5.9,7.9,5.6,7.9,5.5,8.2L4,10.8c-0.1,0.2-0.1,0.5,0.2,0.7l0.3,0.2C6,12.5,7,14.2,7,16s-1,3.5-2.5,4.4l-0.3,0.2
				C3.9,20.7,3.9,21,4,21.2l1.5,2.6C5.6,24,5.9,24.1,6.2,24l0.3-0.2C7.3,23.4,8.1,23.2,9,23.2z"/>
			<path class="st5" d="M16,22c-3.3,0-6-2.7-6-6s2.7-6,6-6s6,2.7,6,6S19.3,22,16,22z M16,12c-2.2,0-4,1.8-4,4s1.8,4,4,4s4-1.8,4-4
				S18.2,12,16,12z"/>
		</g>
	</g>
</g>
</svg>
