<svg width="70" height="71" xmlns="http://www.w3.org/2000/svg" xmlns:xlink="http://www.w3.org/1999/xlink" xml:space="preserve" overflow="hidden"><defs><clipPath id="clip0"><rect x="788" y="325" width="70" height="71"/></clipPath></defs><g clip-path="url(#clip0)" transform="translate(-788 -325)"><path d="M53.9219 22.0938C53.375 19.4688 52.2812 17.0625 50.5312 14.6562 46.8125 9.73438 41.125 6.89062 35 6.89062 28.875 6.89062 23.1875 9.73438 19.4688 14.6562 17.7188 17.0625 16.5156 19.4688 16.0781 22.0938 15.0938 27.0156 16.625 32.375 20.0156 36.4219L23.0781 39.9219C26.3594 43.2031 26.5781 48.6719 26.5781 48.8906L26.5781 58.7344C26.5781 61.3594 28.6562 63.4375 31.2812 63.4375L38.6094 63.4375C41.2344 63.4375 43.3125 61.3594 43.3125 58.7344L43.3125 48.8906C43.3125 48.7812 43.5312 43.2031 46.8125 39.9219L49.875 36.4219C53.375 32.375 54.7969 27.0156 53.9219 22.0938ZM41.2344 52.5 28.7656 52.5 28.7656 50.3125 41.125 50.3125 41.125 52.5ZM28.7656 56.875 28.7656 54.6875 41.125 54.6875 41.125 56.875 28.7656 56.875ZM38.6094 61.25 31.2812 61.25C29.9688 61.25 28.9844 60.2656 28.7656 59.0625L41.125 59.0625C41.0156 60.2656 39.9219 61.25 38.6094 61.25ZM48.3438 35 45.2812 38.3906C42.1094 41.5625 41.3438 46.375 41.2344 48.125L28.7656 48.125C28.6562 46.375 27.8906 41.5625 24.7188 38.3906L21.6562 35C18.7031 31.5 17.3906 26.7969 18.2656 22.5312 18.7031 20.2344 19.6875 18.0469 21.2188 15.9688 24.5 11.5938 29.5312 9.07812 35 9.07812 40.4688 9.07812 45.5 11.5938 48.7812 15.9688 50.3125 18.0469 51.4062 20.2344 51.7344 22.5312 52.6094 26.7969 51.2969 31.5 48.3438 35Z" fill="#009FDB" transform="matrix(1 0 0 1.01429 788 325)"/></g></svg>