<?xml version="1.0" encoding="utf-8"?>
<!-- Generator: Adobe Illustrator 27.1.1, SVG Export Plug-In . SVG Version: 6.00 Build 0)  -->
<svg version="1.1" id="Icon__x28_Outline_x29_" xmlns="http://www.w3.org/2000/svg" xmlns:xlink="http://www.w3.org/1999/xlink"
	 x="0px" y="0px" viewBox="0 0 32 32" style="enable-background:new 0 0 32 32;" xml:space="preserve">
<style type="text/css">
	.st0{fill:#009FDB;}
</style>
<g>
	<path class="st0" d="M22,8V7c0-3.3-2.7-6-6-6s-6,2.7-6,6v1H4v20c0,1.7,1.3,3,3,3h18c1.7,0,3-1.3,3-3V8H22z M12,7c0-2.2,1.8-4,4-4
		s4,1.8,4,4v1h-8V7z M26,28c0,0.6-0.4,1-1,1H7c-0.6,0-1-0.4-1-1V10h4v4h2v-4h8v4h2v-4h4V28z"/>
</g>
</svg>
