<?xml version="1.0" encoding="utf-8"?>
<!-- Generator: Adobe Illustrator 27.1.1, SVG Export Plug-In . SVG Version: 6.00 Build 0)  -->
<svg version="1.1" id="Icon__x28_Outlined_x29_" xmlns="http://www.w3.org/2000/svg" xmlns:xlink="http://www.w3.org/1999/xlink"
	 x="0px" y="0px" viewBox="0 0 32 32" style="enable-background:new 0 0 32 32;" xml:space="preserve">
<style type="text/css">
	.st0{fill:#009FDB;}
</style>
<path class="st0" d="M29,16v-4L17.6,3.1c-0.9-0.7-2.3-0.7-3.2,0L3,12v4h1.9v7H3v6h26v-6h-1.9v-7C27.1,16,29,16,29,16z M5,13
	l10.6-8.3c0.2-0.2,0.5-0.2,0.8,0L27,13v1H5V13z M18.9,23v-7h2.3v7H18.9z M13.1,16v7h-2.3v-7H13.1z M15.1,16h1.8v7h-1.8V16z M6.9,16
	h1.8v7H6.9V16z M27,27H5v-2h22V27z M25.1,23h-1.8v-7h1.8V23z"/>
</svg>
