<svg width="32" height="32" xmlns="http://www.w3.org/2000/svg" xmlns:xlink="http://www.w3.org/1999/xlink" xml:space="preserve" overflow="hidden"><defs><clipPath id="clip0"><rect x="854" y="479" width="32" height="32"/></clipPath></defs><g clip-path="url(#clip0)" transform="translate(-854 -479)"><path d="M861 509.1 861 503 859 503C857.3 503 856 501.7 856 500L856 484C856 482.3 857.3 481 859 481L881 481C882.7 481 884 482.3 884 484L884 500C884 501.7 882.7 503 881 503L868.4 503 861 509.1ZM859 483C858.4 483 858 483.4 858 484L858 500C858 500.6 858.4 501 859 501L863 501 863 504.9 867.6 501 881 501C881.6 501 882 500.6 882 500L882 484C882 483.4 881.6 483 881 483L859 483Z" fill="#009FDB"/></g></svg>