<?xml version="1.0" encoding="utf-8"?>
<!-- Generator: Adobe Illustrator 27.1.1, SVG Export Plug-In . SVG Version: 6.00 Build 0)  -->
<svg version="1.1" id="Layer_1" xmlns="http://www.w3.org/2000/svg" xmlns:xlink="http://www.w3.org/1999/xlink" x="0px" y="0px"
	 viewBox="0 0 32 32" style="enable-background:new 0 0 32 32;" xml:space="preserve">
<style type="text/css">
	.st0{display:none;}
	.st1{display:inline;opacity:0.15;enable-background:new    ;}
	.st2{display:inline;}
	.st3{fill:none;stroke:#B0B0B0;stroke-width:3.000000e-02;stroke-miterlimit:10;}
	.st4{fill:none;stroke:#969696;stroke-width:5.000000e-02;stroke-miterlimit:10;}
	.st5{fill:#009FDB;}
</style>
<g id="Clear_Space" class="st0">
	<path class="st1" d="M0,0v32h32V0H0z M31,31H1V1h30V31z"/>
</g>
<g id="Pixel_Grid" class="st0">
	<g class="st2">
		<g>
			<line class="st3" x1="0" y1="0" x2="0" y2="32"/>
			<line class="st3" x1="1" y1="0" x2="1" y2="32"/>
			<line class="st3" x1="2" y1="0" x2="2" y2="32"/>
			<line class="st3" x1="3" y1="0" x2="3" y2="32"/>
			<line class="st3" x1="4" y1="0" x2="4" y2="32"/>
			<line class="st3" x1="5" y1="0" x2="5" y2="32"/>
			<line class="st3" x1="6" y1="0" x2="6" y2="32"/>
			<line class="st3" x1="7" y1="0" x2="7" y2="32"/>
			<line class="st3" x1="8" y1="0" x2="8" y2="32"/>
			<line class="st3" x1="9" y1="0" x2="9" y2="32"/>
			<line class="st3" x1="10" y1="0" x2="10" y2="32"/>
			<line class="st3" x1="11" y1="0" x2="11" y2="32"/>
			<line class="st3" x1="12" y1="0" x2="12" y2="32"/>
			<line class="st3" x1="13" y1="0" x2="13" y2="32"/>
			<line class="st3" x1="14" y1="0" x2="14" y2="32"/>
			<line class="st3" x1="15" y1="0" x2="15" y2="32"/>
			<line class="st3" x1="16" y1="0" x2="16" y2="32"/>
			<line class="st3" x1="17" y1="0" x2="17" y2="32"/>
			<line class="st3" x1="18" y1="0" x2="18" y2="32"/>
			<line class="st3" x1="19" y1="0" x2="19" y2="32"/>
			<line class="st3" x1="20" y1="0" x2="20" y2="32"/>
			<line class="st3" x1="21" y1="0" x2="21" y2="32"/>
			<line class="st3" x1="22" y1="0" x2="22" y2="32"/>
			<line class="st3" x1="23" y1="0" x2="23" y2="32"/>
			<line class="st3" x1="24" y1="0" x2="24" y2="32"/>
			<line class="st3" x1="25" y1="0" x2="25" y2="32"/>
			<line class="st3" x1="26" y1="0" x2="26" y2="32"/>
			<line class="st3" x1="27" y1="0" x2="27" y2="32"/>
			<line class="st3" x1="28" y1="0" x2="28" y2="32"/>
			<line class="st3" x1="29" y1="0" x2="29" y2="32"/>
			<line class="st3" x1="30" y1="0" x2="30" y2="32"/>
			<line class="st3" x1="31" y1="0" x2="31" y2="32"/>
			<line class="st3" x1="32" y1="0" x2="32" y2="32"/>
			<line class="st3" x1="32" y1="0" x2="0" y2="0"/>
			<line class="st3" x1="32" y1="1" x2="0" y2="1"/>
			<line class="st3" x1="32" y1="2" x2="0" y2="2"/>
			<line class="st3" x1="32" y1="3" x2="0" y2="3"/>
			<line class="st3" x1="32" y1="4" x2="0" y2="4"/>
			<line class="st3" x1="32" y1="5" x2="0" y2="5"/>
			<line class="st3" x1="32" y1="6" x2="0" y2="6"/>
			<line class="st3" x1="32" y1="7" x2="0" y2="7"/>
			<line class="st3" x1="32" y1="8" x2="0" y2="8"/>
			<line class="st3" x1="32" y1="9" x2="0" y2="9"/>
			<line class="st3" x1="32" y1="10" x2="0" y2="10"/>
			<line class="st3" x1="32" y1="11" x2="0" y2="11"/>
			<line class="st3" x1="32" y1="12" x2="0" y2="12"/>
			<line class="st3" x1="32" y1="13" x2="0" y2="13"/>
			<line class="st3" x1="32" y1="14" x2="0" y2="14"/>
			<line class="st3" x1="32" y1="15" x2="0" y2="15"/>
			<line class="st3" x1="32" y1="16" x2="0" y2="16"/>
			<line class="st3" x1="32" y1="17" x2="0" y2="17"/>
			<line class="st3" x1="32" y1="18" x2="0" y2="18"/>
			<line class="st3" x1="32" y1="19" x2="0" y2="19"/>
			<line class="st3" x1="32" y1="20" x2="0" y2="20"/>
			<line class="st3" x1="32" y1="21" x2="0" y2="21"/>
			<line class="st3" x1="32" y1="22" x2="0" y2="22"/>
			<line class="st3" x1="32" y1="23" x2="0" y2="23"/>
			<line class="st3" x1="32" y1="24" x2="0" y2="24"/>
			<line class="st3" x1="32" y1="25" x2="0" y2="25"/>
			<line class="st3" x1="32" y1="26" x2="0" y2="26"/>
			<line class="st3" x1="32" y1="27" x2="0" y2="27"/>
			<line class="st3" x1="32" y1="28" x2="0" y2="28"/>
			<line class="st3" x1="32" y1="29" x2="0" y2="29"/>
			<line class="st3" x1="32" y1="30" x2="0" y2="30"/>
			<line class="st3" x1="32" y1="31" x2="0" y2="31"/>
			<line class="st3" x1="32" y1="32" x2="0" y2="32"/>
		</g>
	</g>
</g>
<g id="Grid_Target" class="st0">
	<g class="st2">
		<line class="st4" x1="16" y1="1" x2="16" y2="31"/>
		<line class="st4" x1="1" y1="16" x2="31" y2="16"/>
		<circle class="st4" cx="16" cy="16" r="15"/>
		<rect x="1" y="6" class="st4" width="30" height="20"/>
		<rect x="6" y="1" class="st4" width="20" height="30"/>
		<rect x="3" y="3" class="st4" width="26" height="26"/>
		<line class="st4" x1="3" y1="29" x2="29" y2="3"/>
		<line class="st4" x1="3" y1="3" x2="29" y2="29"/>
	</g>
</g>
<g id="Icon__x28_outlined_x29_">
	<path class="st5" d="M17,7h-2V3h2V7z M27,16v2h4v-2H27z M5,16H1.1v2H5V16z M27.5,23.7V29h-23v-5.3c0-1.4,1.1-2.5,2.5-2.5v-5.1
		c0-3.1,2-5.7,5-6.5l0.3-0.1c2.4-0.6,4.9-0.6,7.3,0L20,9.6c2.9,0.8,5,3.5,5,6.5v5.1C26.4,21.2,27.5,22.3,27.5,23.7z M9,16.1v5.1h14
		v-5.1c0-2.1-1.4-4-3.5-4.6l-0.3-0.1c-2.1-0.5-4.2-0.5-6.3,0l-0.3,0.1C10.4,12.1,9,13.9,9,16.1z M25.5,23.7c0-0.3-0.2-0.5-0.5-0.5H7
		c-0.3,0-0.5,0.2-0.5,0.5v3h19V23.7z M27.4,7.4L26,6l-2.8,2.8l1.4,1.4L27.4,7.4z M8.8,8.8L6,6L4.6,7.4l2.8,2.8L8.8,8.8z M12.5,16.1
		c0-0.9,0.7-1.6,1.6-1.6H15v-2h-0.8c-2,0-3.6,1.6-3.6,3.6V17h2v-0.9H12.5z"/>
</g>
</svg>
