<svg width="32" height="32" xmlns="http://www.w3.org/2000/svg" xmlns:xlink="http://www.w3.org/1999/xlink" xml:space="preserve" overflow="hidden"><defs><clipPath id="clip0"><rect x="624" y="344" width="32" height="32"/></clipPath></defs><g clip-path="url(#clip0)" transform="translate(-624 -344)"><path d="M652.8 367.1 643.6 358C644.7 354.8 643.9 351.2 641.4 348.8 638.9 346.1 635 345.4 631.6 346.8L630.2 347.4 635.1 352.3 632.3 355.1 627.4 350.2 626.8 351.6C625.4 355 626.1 358.9 628.7 361.5 631.1 363.9 634.7 364.8 637.9 363.7L647 372.8C647.8 373.6 648.8 374 649.8 374 650.8 374 651.8 373.6 652.6 372.8 653.4 372 653.8 371 653.8 370 653.8 369 653.5 367.9 652.8 367.1ZM651.4 371.4C650.6 372.2 649.4 372.2 648.6 371.4L638.4 361.3 637.8 361.6C635.2 362.7 632.1 362.1 630.1 360.1 628.5 358.5 627.8 356.1 628.2 353.9L632.3 358 638 352.3 633.9 348.2C636.1 347.8 638.4 348.5 640.1 350.1 642.1 352.1 642.7 355.1 641.6 357.8L641.3 358.4 651.4 368.5C651.8 368.9 652 369.4 652 369.9 652 370.4 651.7 371 651.4 371.4Z" fill="#009FDB"/></g></svg>