<svg width="32" height="32" xmlns="http://www.w3.org/2000/svg" xmlns:xlink="http://www.w3.org/1999/xlink" xml:space="preserve" overflow="hidden"><defs><clipPath id="clip0"><rect x="624" y="344" width="32" height="32"/></clipPath></defs><g clip-path="url(#clip0)" transform="translate(-624 -344)"><path d="M651.005 367.007 651.005 361.007 653.005 361.007 653.005 355.007 649.613 355.007C647.815 351.761 644.445 349.454 641.007 349.07L641.007 348.007 643.005 348.007 643.005 346.007 639.007 346.007 639.007 347.007 639.007 348.007 639.007 349.07C635.568 349.453 632.196 351.761 630.397 355.007L627.005 355.007 627.005 361.007 629.005 361.007 629.005 367.007 627 367.007 627 373.007 653.013 373.007 653.013 367.007 651.005 367.007ZM649.005 367.007 647.005 367.007 647.005 361.007 649.005 361.007 649.005 367.007ZM637.005 361.007 637.005 367.007 635.005 367.007 635.005 361.007 637.005 361.007ZM639.005 361.007 641.005 361.007 641.005 367.007 639.005 367.007 639.005 361.007ZM643.005 361.007 645.005 361.007 645.005 367.007 643.005 367.007 643.005 361.007ZM640.007 351.007C642.722 351.007 645.496 352.6 647.23 355.007L632.781 355.007C634.516 352.6 637.291 351.007 640.007 351.007ZM629.005 357.007 631.005 357.007 631.634 357.007 648.377 357.007 649.005 357.007 651.005 357.007 651.005 359.007 629.005 359.007 629.005 357.007ZM631.005 361.007 633.005 361.007 633.005 367.007 631.005 367.007 631.005 361.007ZM651.013 371.007 629 371.007 629 369.007 651.013 369.007 651.013 371.007Z" fill="#009FDB"/></g></svg>