<svg xmlns="http://www.w3.org/2000/svg" width="20" height="17.733" viewBox="0 0 20 17.733">
  <path id="functional-icon_person-group_blk" d="M17.867,8.467a3.613,3.613,0,0,0,1.267-2.6,3.467,3.467,0,1,0-6.933,0,3.332,3.332,0,0,0,1.2,2.6c-.267.133-.467.267-.733.4A3.729,3.729,0,0,0,10.933,8.4,3.729,3.729,0,0,0,9.2,8.867a7.272,7.272,0,0,0-.733-.4,3.544,3.544,0,0,0,1.2-2.6A3.443,3.443,0,0,0,6.2,2.4,3.316,3.316,0,0,0,2.867,5.8,3.191,3.191,0,0,0,4.133,8.4,5.414,5.414,0,0,0,1,13.267v.867H2.333v-.867a4.012,4.012,0,0,1,4-4A3.535,3.535,0,0,1,8.2,9.733,3.637,3.637,0,0,0,7.533,11.8,3.191,3.191,0,0,0,8.8,14.4a5.414,5.414,0,0,0-3.133,4.867v.867H7v-.867a4,4,0,0,1,8,0v.867h1.333v-.867A5.374,5.374,0,0,0,13.2,14.4a3.613,3.613,0,0,0,1.267-2.6A3.637,3.637,0,0,0,13.8,9.733a4.292,4.292,0,0,1,1.867-.467,4.012,4.012,0,0,1,4,4v.867H21v-.867A5.208,5.208,0,0,0,17.867,8.467ZM4.2,5.8A2.133,2.133,0,1,1,6.333,7.933,2.106,2.106,0,0,1,4.2,5.8Zm4.667,6A2.133,2.133,0,1,1,11,13.933,2.106,2.106,0,0,1,8.867,11.8Zm4.667-6a2.133,2.133,0,1,1,2.133,2.133A2.106,2.106,0,0,1,13.533,5.8Z" transform="translate(-1 -2.4)" fill="#009fdb"/>
</svg>
