<svg xmlns="http://www.w3.org/2000/svg" viewBox="0 0 150.59 100"><title>logo</title><g id="Capa_2" data-name="Capa 2"><g id="Capa_1-2" data-name="Capa 1"><path d="M0,0H14.62C22,0,24.3,3.63,24.3,7.39v.16c0,3.45-1.92,5.41-5,6.08a6.08,6.08,0,0,1,5.6,6.46v.16c0,4.9-3.06,7.8-10.7,7.8H0ZM12.19,10.61c1.65,0,2.31-.55,2.31-1.8V8.65c0-1.26-.62-1.92-2.31-1.92h-2v3.88ZM12,21.31c1.77,0,2.59-.86,2.59-2.27v-.16c0-1.41-.74-2.23-2.7-2.23H10.15v4.66Z"/><polygon points="33.67 43.43 26.89 43.43 26.89 35.44 50.96 35.44 50.96 43.43 44.18 43.43 44.18 63.46 33.67 63.46 33.67 43.43"/><path d="M24.06,85.6v-.31C24.06,76.42,30.69,71,38.87,71c8.41,0,14.93,4.9,14.93,14v.31c0,9-5.95,14.67-15.15,14.67S24.06,94.31,24.06,85.6m19.21,0v-.31c0-4.32-1.82-6.16-4.4-6.16S34.59,81,34.59,85.25v.31c0,4.24,1.55,6.28,4.32,6.28s4.36-2.2,4.36-6.28"/><path d="M61.84,0H114c26.28,0,34.52,12.86,34.52,26.28v.56c0,12.29-6.84,19.28-17.89,21.66,11.05,1.54,20,8.81,20,23.06v.56c0,17.47-10.9,27.82-38.16,27.82H61.84Zm43.47,37.74c5.87,0,8.24-2,8.24-6.43v-.56c0-4.47-2.23-6.85-8.24-6.85H98V37.74Zm-.56,38.16c6.29,0,9.22-3.08,9.22-8.11v-.56c0-5-2.65-8-9.64-8H98V75.9Z"/></g></g></svg>