<?xml version="1.0" encoding="UTF-8"?>
<svg width="186px" height="168px" viewBox="0 0 186 168" version="1.1" xmlns="http://www.w3.org/2000/svg" xmlns:xlink="http://www.w3.org/1999/xlink">
    <title>Group 11</title>
    <g id="Desktop" stroke="none" stroke-width="1" fill="none" fill-rule="evenodd">
        <g id="CMU-Homepage-Large-New" transform="translate(-1194.000000, -901.000000)">
            <g id="NEW" transform="translate(-490.000000, 0.000000)">
                <g id="New-Style-PROGRAM-FINDER" transform="translate(0.000000, 899.000000)">
                    <g id="Group-11" transform="translate(1684.000000, 2.000000)">
                        <path d="M6.13122451,151.017774 C4.84818954,151.017774 3.8070382,152.058925 3.8070382,153.340207 C3.8070382,154.626748 4.84818954,155.664394 6.13122451,155.664394 C7.41425948,155.664394 8.45541082,154.626748 8.45541082,153.340207 C8.45541082,152.058925 7.41425948,151.017774 6.13122451,151.017774 L6.13122451,151.017774 Z M6.13122451,162.6352 C4.84818954,162.6352 3.8070382,163.676351 3.8070382,164.957633 C3.8070382,165.944448 4.42401677,166.780524 5.2898901,167.118811 L6.97255892,167.118811 C7.83843225,166.780524 8.45541082,165.944448 8.45541082,164.957633 C8.45541082,163.676351 7.41425948,162.6352 6.13122451,162.6352 L6.13122451,162.6352 Z M1.78608284,157.357579 L6.89226454e-13,161.439804 C0.106919581,161.453826 0.213839162,161.473107 0.324264304,161.473107 C1.60379372,161.473107 2.64669783,160.431955 2.64669783,159.150673 C2.64669783,158.425022 2.30490573,157.783505 1.78608284,157.357579 L1.78608284,157.357579 Z M8.39756908,142.222324 L8.03649639,143.047883 C8.20826883,142.802494 8.33096343,142.523802 8.39756908,142.222324 L8.39756908,142.222324 Z M6.13122451,11.617426 C5.30215956,11.617426 4.57826141,12.055621 4.16811089,12.7094079 L5.7017934,16.2202263 C5.84026303,16.246518 5.98399099,16.2640458 6.13122451,16.2640458 C7.41425948,16.2640458 8.45541082,15.2246473 8.45541082,13.9381067 C8.45541082,12.6568245 7.41425948,11.617426 6.13122451,11.617426 L6.13122451,11.617426 Z M6.13122451,1.42108547e-13 C4.84818954,1.42108547e-13 3.8070382,1.04115133 3.8070382,2.32418631 C3.8070382,3.60722128 4.84818954,4.64661983 6.13122451,4.64661983 C7.41425948,4.64661983 8.45541082,3.60722128 8.45541082,2.32418631 C8.45541082,1.04115133 7.41425948,1.42108547e-13 6.13122451,1.42108547e-13 L6.13122451,1.42108547e-13 Z M1.23395713,5.99450767 L2.16818888,8.13114651 L2.50472265,8.9041225 C2.59060887,8.66048608 2.64669783,8.4045802 2.64669783,8.13114651 C2.64669783,7.65088479 2.49946431,7.20392588 2.24881677,6.83233652 C1.999922,6.46425271 1.64761322,6.17153845 1.23395713,5.99450767 L1.23395713,5.99450767 Z M11.9399375,156.824734 C11.6191788,156.824734 11.314195,156.89134 11.035503,157.008776 C10.2011797,157.361085 9.61750397,158.188397 9.61750397,159.14892 C9.61750397,160.111196 10.2011797,160.938509 11.035503,161.290817 C11.314195,161.408254 11.6191788,161.473107 11.9399375,161.473107 C13.2229725,161.473107 14.2641238,160.433708 14.2641238,159.14892 C14.2641238,157.867638 13.2229725,156.824734 11.9399375,156.824734 L11.9399375,156.824734 Z M17.7468977,151.017774 C16.4656155,151.017774 15.4244642,152.058925 15.4244642,153.340207 C15.4244642,154.626748 16.4656155,155.664394 17.7468977,155.664394 C19.0316855,155.664394 20.0728368,154.626748 20.0728368,153.340207 C20.0728368,152.058925 19.0316855,151.017774 17.7468977,151.017774 L17.7468977,151.017774 Z M29.3643237,151.017774 C28.0812887,151.017774 27.0401374,152.058925 27.0401374,153.340207 C27.0401374,154.626748 28.0812887,155.664394 29.3643237,155.664394 C30.6473586,155.664394 31.6902628,154.626748 31.6902628,153.340207 C31.6902628,152.058925 30.6473586,151.017774 29.3643237,151.017774 L29.3643237,151.017774 Z M17.7468977,162.6352 C16.4656155,162.6352 15.4244642,163.676351 15.4244642,164.957633 C15.4244642,165.944448 16.0414427,166.780524 16.9055633,167.118811 L18.5882321,167.118811 C19.4558582,166.780524 20.0728368,165.944448 20.0728368,164.957633 C20.0728368,163.676351 19.0316855,162.6352 17.7468977,162.6352 L17.7468977,162.6352 Z M29.3643237,162.6352 C28.0812887,162.6352 27.0401374,163.676351 27.0401374,164.957633 C27.0401374,165.944448 27.6571159,166.780524 28.5229893,167.118811 L30.2056581,167.118811 C31.0715314,166.780524 31.6902628,165.944448 31.6902628,164.957633 C31.6902628,163.676351 30.6473586,162.6352 29.3643237,162.6352 L29.3643237,162.6352 Z M23.5556107,156.824734 C22.2725757,156.824734 21.2331772,157.867638 21.2331772,159.14892 C21.2331772,160.433708 22.2725757,161.473107 23.5556107,161.473107 C24.8386457,161.473107 25.8815498,160.433708 25.8815498,159.14892 C25.8815498,157.867638 24.8386457,156.824734 23.5556107,156.824734 L23.5556107,156.824734 Z M12.159035,133.614421 L11.9399375,134.115716 L10.3992439,137.642309 C10.5885441,137.812329 10.7988777,137.95781 11.035503,138.055965 C11.314195,138.173402 11.6191788,138.238255 11.9399375,138.238255 C13.2229725,138.238255 14.2641238,137.198856 14.2641238,135.917574 C14.2641238,134.708156 13.3369032,133.728352 12.159035,133.614421 L12.159035,133.614421 Z M11.9399375,145.210814 C11.6191788,145.210814 11.314195,145.273914 11.035503,145.39135 C10.6183414,145.568381 10.2642798,145.862848 10.0136323,146.234437 C9.76298471,146.604274 9.61750397,147.051233 9.61750397,147.533247 C9.61750397,148.497276 10.2011797,149.321083 11.035503,149.673391 C11.314195,149.790828 11.6191788,149.855681 11.9399375,149.855681 C13.2229725,149.855681 14.2641238,148.816282 14.2641238,147.533247 C14.2641238,147.051233 14.1168903,146.604274 13.8662427,146.234437 C13.4490811,145.615706 12.740958,145.210814 11.9399375,145.210814 L11.9399375,145.210814 Z M17.7468977,127.784675 C16.4656155,127.784675 15.4244642,128.825826 15.4244642,130.107108 C15.4244642,131.391896 16.4656155,132.431294 17.7468977,132.431294 C19.0316855,132.431294 20.0728368,131.391896 20.0728368,130.107108 C20.0728368,128.825826 19.0316855,127.784675 17.7468977,127.784675 L17.7468977,127.784675 Z M29.3643237,127.784675 C28.0812887,127.784675 27.0401374,128.825826 27.0401374,130.107108 C27.0401374,131.391896 28.0812887,132.431294 29.3643237,132.431294 C30.6473586,132.431294 31.6902628,131.391896 31.6902628,130.107108 C31.6902628,128.825826 30.6473586,127.784675 29.3643237,127.784675 L29.3643237,127.784675 Z M17.7468977,139.400348 C16.4656155,139.400348 15.4244642,140.441499 15.4244642,141.724534 C15.4244642,143.009322 16.4656155,144.046968 17.7468977,144.046968 C19.0316855,144.046968 20.0728368,143.009322 20.0728368,141.724534 C20.0728368,140.441499 19.0316855,139.400348 17.7468977,139.400348 L17.7468977,139.400348 Z M29.3643237,139.400348 C28.0812887,139.400348 27.0401374,140.441499 27.0401374,141.724534 C27.0401374,143.009322 28.0812887,144.046968 29.3643237,144.046968 C30.6473586,144.046968 31.6902628,143.009322 31.6902628,141.724534 C31.6902628,140.441499 30.6473586,139.400348 29.3643237,139.400348 L29.3643237,139.400348 Z M23.5556107,133.593388 C22.2725757,133.593388 21.2331772,134.632786 21.2331772,135.915821 C21.2331772,137.200609 22.2725757,138.240007 23.5556107,138.240007 C24.8386457,138.240007 25.8815498,137.200609 25.8815498,135.915821 C25.8815498,134.632786 24.8386457,133.593388 23.5556107,133.593388 L23.5556107,133.593388 Z M23.5556107,145.210814 C22.7528374,145.210814 22.0482199,145.615706 21.6293054,146.234437 C21.3804107,146.604274 21.2331772,147.051233 21.2331772,147.533247 C21.2331772,148.816282 22.2725757,149.855681 23.5556107,149.855681 C24.8386457,149.855681 25.8815498,148.816282 25.8815498,147.533247 C25.8815498,147.051233 25.7343163,146.604274 25.4836687,146.234437 C25.0665071,145.615706 24.3566312,145.210814 23.5556107,145.210814 L23.5556107,145.210814 Z M29.3643237,104.549823 C28.0812887,104.549823 27.0401374,105.592727 27.0401374,106.872256 C27.0401374,108.158797 28.0812887,109.198195 29.3643237,109.198195 C30.6473586,109.198195 31.6902628,108.158797 31.6902628,106.872256 C31.6902628,105.592727 30.6473586,104.549823 29.3643237,104.549823 L29.3643237,104.549823 Z M17.752156,120.813868 C19.0334382,120.812116 20.071084,119.772717 20.071084,118.491435 C20.071084,117.88322 19.8344587,117.336353 19.4523527,116.922697 L17.752156,120.813868 Z M29.3643237,116.167249 C28.0812887,116.167249 27.0401374,117.2084 27.0401374,118.491435 C27.0401374,119.77447 28.0812887,120.813868 29.3643237,120.813868 C30.6473586,120.813868 31.6902628,119.77447 31.6902628,118.491435 C31.6902628,117.2084 30.6473586,116.167249 29.3643237,116.167249 L29.3643237,116.167249 Z M23.5556107,110.360288 C22.9947211,110.360288 22.4864149,110.568869 22.0832755,110.900145 L21.2471994,112.81418 C21.3173106,114.034115 22.318148,115.005155 23.5556107,115.005155 C24.8386457,115.005155 25.8815498,113.965757 25.8815498,112.682722 C25.8815498,111.399687 24.8386457,110.360288 23.5556107,110.360288 L23.5556107,110.360288 Z M23.5556107,121.975962 C22.7528374,121.975962 22.0482199,122.382607 21.6293054,123.001338 C21.3804107,123.371174 21.2331772,123.816381 21.2331772,124.300148 C21.2331772,125.583183 22.2725757,126.622581 23.5556107,126.622581 C24.8386457,126.622581 25.8815498,125.583183 25.8815498,124.300148 C25.8815498,123.816381 25.7343163,123.371174 25.4836687,123.001338 C25.0665071,122.382607 24.3566312,121.975962 23.5556107,121.975962 L23.5556107,121.975962 Z M29.9024271,93.0025079 L28.0742776,97.1881465 C28.4423614,97.4352885 28.8875675,97.5807693 29.3643237,97.5807693 C30.6473586,97.5807693 31.68851,96.5413707 31.68851,95.2583357 C31.68851,94.1610955 30.9242979,93.2461443 29.9024271,93.0025079 L29.9024271,93.0025079 Z M29.3643237,58.0836243 C28.0812887,58.0836243 27.0401374,59.1247756 27.0401374,60.4060578 C27.0401374,61.6908456 28.0812887,62.7302441 29.3643237,62.7302441 C30.6473586,62.7302441 31.6902628,61.6908456 31.6902628,60.4060578 C31.6902628,59.1247756 30.6473586,58.0836243 29.3643237,58.0836243 L29.3643237,58.0836243 Z M29.3643237,69.6992975 C29.266168,69.6992975 29.1732707,69.7185781 29.0786205,69.7290948 L30.8541867,73.7920388 C31.3589873,73.3661133 31.6902628,72.7368653 31.6902628,72.0252366 C31.6902628,70.7422016 30.6473586,69.6992975 29.3643237,69.6992975 L29.3643237,69.6992975 Z M17.7468977,34.8505251 C16.4656155,34.8505251 15.4244642,35.8916765 15.4244642,37.1729587 C15.4244642,38.4577464 16.4656155,39.497145 17.7468977,39.497145 C19.0316855,39.497145 20.0728368,38.4577464 20.0728368,37.1729587 C20.0728368,35.8916765 19.0316855,34.8505251 17.7468977,34.8505251 L17.7468977,34.8505251 Z M29.3643237,34.8505251 C28.0812887,34.8505251 27.0401374,35.8916765 27.0401374,37.1729587 C27.0401374,38.4577464 28.0812887,39.497145 29.3643237,39.497145 C30.6473586,39.497145 31.6902628,38.4577464 31.6902628,37.1729587 C31.6902628,35.8916765 30.6473586,34.8505251 29.3643237,34.8505251 L29.3643237,34.8505251 Z M19.1140661,46.9184156 L20.0447923,49.0515489 C20.055309,48.9639099 20.0728368,48.8797764 20.0728368,48.7903846 C20.0728368,48.0191614 19.6924835,47.3408356 19.1140661,46.9184156 L19.1140661,46.9184156 Z M29.3643237,46.4661983 C28.0812887,46.4661983 27.0401374,47.5073497 27.0401374,48.7903846 C27.0401374,50.0734196 28.0812887,51.1128182 29.3643237,51.1128182 C30.6473586,51.1128182 31.6902628,50.0734196 31.6902628,48.7903846 C31.6902628,47.5073497 30.6473586,46.4661983 29.3643237,46.4661983 L29.3643237,46.4661983 Z M23.5556107,40.6592381 C22.2725757,40.6592381 21.2331772,41.7003895 21.2331772,42.9816716 C21.2331772,44.2664594 22.2725757,45.305858 23.5556107,45.305858 C24.8386457,45.305858 25.8815498,44.2664594 25.8815498,42.9816716 C25.8815498,41.7003895 24.8386457,40.6592381 23.5556107,40.6592381 L23.5556107,40.6592381 Z M23.5556107,52.2749113 C22.8562515,52.2749113 22.2340146,52.5921645 21.8063362,53.0846957 L22.4688871,54.5990976 L23.4802411,56.91452 C23.5065328,56.91452 23.5310718,56.9215311 23.5556107,56.9215311 C24.8386457,56.9215311 25.8815498,55.8821326 25.8815498,54.5990976 C25.8815498,54.1170831 25.7343163,53.6701242 25.4836687,53.3002876 C25.0665071,52.6815563 24.3566312,52.2749113 23.5556107,52.2749113 L23.5556107,52.2749113 Z M11.9399375,17.4243862 C11.6191788,17.4243862 11.314195,17.489239 11.035503,17.6066753 C10.2011797,17.9589841 9.61750397,18.788049 9.61750397,19.7468197 C9.61750397,20.7108487 10.2011797,21.5364081 11.035503,21.8904697 C11.314195,22.0061532 11.6191788,22.0727588 11.9399375,22.0727588 C13.2229725,22.0727588 14.2641238,21.0316075 14.2641238,19.7468197 C14.2641238,18.4655375 13.2229725,17.4243862 11.9399375,17.4243862 L11.9399375,17.4243862 Z M11.9399375,29.0418122 C11.7313567,29.0418122 11.5332925,29.0786205 11.3422395,29.1294512 L11.9399375,30.4983723 L12.318538,31.3659985 L13.1756474,33.3273593 C13.8276816,32.915456 14.2641238,32.1933106 14.2641238,31.3659985 C14.2641238,30.883984 14.1168903,30.437025 13.8662427,30.0671885 C13.4490811,29.4484571 12.740958,29.0418122 11.9399375,29.0418122 L11.9399375,29.0418122 Z M17.7468977,11.617426 C16.4656155,11.617426 15.4244642,12.6568245 15.4244642,13.9381067 C15.4244642,15.2246473 16.4656155,16.2640458 17.7468977,16.2640458 C19.0316855,16.2640458 20.0728368,15.2246473 20.0728368,13.9381067 C20.0728368,12.6568245 19.0316855,11.617426 17.7468977,11.617426 L17.7468977,11.617426 Z M29.3643237,11.617426 C28.0812887,11.617426 27.0401374,12.6568245 27.0401374,13.9381067 C27.0401374,15.2246473 28.0812887,16.2640458 29.3643237,16.2640458 C30.6473586,16.2640458 31.6902628,15.2246473 31.6902628,13.9381067 C31.6902628,12.6568245 30.6473586,11.617426 29.3643237,11.617426 L29.3643237,11.617426 Z M17.7468977,23.2330992 C16.4656155,23.2330992 15.4244642,24.2742505 15.4244642,25.5572855 C15.4244642,26.8403204 16.4656155,27.879719 17.7468977,27.879719 C19.0316855,27.879719 20.0728368,26.8403204 20.0728368,25.5572855 C20.0728368,24.2742505 19.0316855,23.2330992 17.7468977,23.2330992 L17.7468977,23.2330992 Z M29.3643237,23.2330992 C28.0812887,23.2330992 27.0401374,24.2742505 27.0401374,25.5572855 C27.0401374,26.8403204 28.0812887,27.879719 29.3643237,27.879719 C30.6473586,27.879719 31.6902628,26.8403204 31.6902628,25.5572855 C31.6902628,24.2742505 30.6473586,23.2330992 29.3643237,23.2330992 L29.3643237,23.2330992 Z M23.5556107,17.4243862 C22.2725757,17.4243862 21.2331772,18.4655375 21.2331772,19.7468197 C21.2331772,21.0316075 22.2725757,22.0727588 23.5556107,22.0727588 C24.8386457,22.0727588 25.8815498,21.0316075 25.8815498,19.7468197 C25.8815498,18.4655375 24.8386457,17.4243862 23.5556107,17.4243862 L23.5556107,17.4243862 Z M23.5556107,29.0418122 C22.7528374,29.0418122 22.0482199,29.4484571 21.6293054,30.0671885 C21.3804107,30.437025 21.2331772,30.883984 21.2331772,31.3659985 C21.2331772,32.6490334 22.2725757,33.688432 23.5556107,33.688432 C24.8386457,33.688432 25.8815498,32.6490334 25.8815498,31.3659985 C25.8815498,30.883984 25.7343163,30.437025 25.4836687,30.0671885 C25.0665071,29.4484571 24.3566312,29.0418122 23.5556107,29.0418122 L23.5556107,29.0418122 Z M11.9399375,5.80871299 C11.6191788,5.80871299 11.314195,5.87181307 11.035503,5.99100211 C10.6183414,6.16628011 10.2642798,6.46074715 10.0136323,6.8340893 C9.76298471,7.20392588 9.61750397,7.65088479 9.61750397,8.13114651 C9.61750397,9.09517552 10.2011797,9.91898213 11.035503,10.2730437 C11.314195,10.39048 11.6191788,10.4553328 11.9399375,10.4553328 C13.2229725,10.4553328 14.2641238,9.41418149 14.2641238,8.13114651 C14.2641238,7.65088479 14.1168903,7.20392588 13.8662427,6.8340893 C13.4490811,6.21535795 12.740958,5.80871299 11.9399375,5.80871299 L11.9399375,5.80871299 Z M17.7468977,1.42108547e-13 C16.4656155,1.42108547e-13 15.4244642,1.04115133 15.4244642,2.32418631 C15.4244642,3.60722128 16.4656155,4.64661983 17.7468977,4.64661983 C19.0316855,4.64661983 20.0728368,3.60722128 20.0728368,2.32418631 C20.0728368,1.04115133 19.0316855,1.42108547e-13 17.7468977,1.42108547e-13 L17.7468977,1.42108547e-13 Z M29.3643237,1.42108547e-13 C28.0812887,1.42108547e-13 27.0401374,1.04115133 27.0401374,2.32418631 C27.0401374,3.60722128 28.0812887,4.64661983 29.3643237,4.64661983 C30.6473586,4.64661983 31.6902628,3.60722128 31.6902628,2.32418631 C31.6902628,1.04115133 30.6473586,1.42108547e-13 29.3643237,1.42108547e-13 L29.3643237,1.42108547e-13 Z M23.5556107,5.80871299 C22.7528374,5.80871299 22.0482199,6.21535795 21.6293054,6.8340893 C21.3804107,7.20392588 21.2331772,7.65088479 21.2331772,8.13114651 C21.2331772,9.41418149 22.2725757,10.4553328 23.5556107,10.4553328 C24.8386457,10.4553328 25.8815498,9.41418149 25.8815498,8.13114651 C25.8815498,7.65088479 25.7343163,7.20392588 25.4836687,6.8340893 C25.0665071,6.21535795 24.3566312,5.80871299 23.5556107,5.80871299 L23.5556107,5.80871299 Z M35.1730367,156.824734 C34.8522779,156.824734 34.5472942,156.89134 34.2686022,157.008776 C33.4342789,157.361085 32.8506031,158.188397 32.8506031,159.14892 C32.8506031,160.111196 33.4342789,160.938509 34.2686022,161.290817 C34.5472942,161.408254 34.8522779,161.473107 35.1730367,161.473107 C36.4560716,161.473107 37.497223,160.433708 37.497223,159.14892 C37.497223,157.867638 36.4560716,156.824734 35.1730367,156.824734 L35.1730367,156.824734 Z M40.9817496,151.017774 C39.6987147,151.017774 38.6593161,152.058925 38.6593161,153.340207 C38.6593161,154.626748 39.6987147,155.664394 40.9817496,155.664394 C42.2647846,155.664394 43.305936,154.626748 43.305936,153.340207 C43.305936,152.058925 42.2647846,151.017774 40.9817496,151.017774 L40.9817496,151.017774 Z M52.5991756,151.017774 C51.3143879,151.017774 50.2749893,152.058925 50.2749893,153.340207 C50.2749893,154.626748 51.3143879,155.664394 52.5991756,155.664394 C53.8822106,155.664394 54.9216091,154.626748 54.9216091,153.340207 C54.9216091,152.058925 53.8822106,151.017774 52.5991756,151.017774 L52.5991756,151.017774 Z M40.9817496,162.6352 C39.6987147,162.6352 38.6593161,163.676351 38.6593161,164.957633 C38.6593161,165.944448 39.2745419,166.780524 40.1404152,167.118811 L41.8230841,167.118811 C42.6889574,166.780524 43.305936,165.944448 43.305936,164.957633 C43.305936,163.676351 42.2647846,162.6352 40.9817496,162.6352 L40.9817496,162.6352 Z M52.5991756,162.6352 C51.3143879,162.6352 50.2749893,163.676351 50.2749893,164.957633 C50.2749893,165.944448 50.8919679,166.780524 51.7560884,167.118811 L53.44051,167.118811 C54.3046306,166.780524 54.9216091,165.944448 54.9216091,164.957633 C54.9216091,163.676351 53.8822106,162.6352 52.5991756,162.6352 L52.5991756,162.6352 Z M46.7904626,156.824734 C45.5074277,156.824734 44.4662763,157.867638 44.4662763,159.14892 C44.4662763,160.433708 45.5074277,161.473107 46.7904626,161.473107 C48.0734976,161.473107 49.1146489,160.433708 49.1146489,159.14892 C49.1146489,157.867638 48.0734976,156.824734 46.7904626,156.824734 L46.7904626,156.824734 Z M35.1730367,133.593388 C34.8522779,133.593388 34.5472942,133.65824 34.2686022,133.775677 C33.4342789,134.126233 32.8506031,134.955298 32.8506031,135.915821 C32.8506031,136.87985 33.4342789,137.703657 34.2686022,138.055965 C34.5472942,138.175155 34.8522779,138.240007 35.1730367,138.240007 C36.4560716,138.240007 37.497223,137.200609 37.497223,135.915821 C37.497223,134.632786 36.4560716,133.593388 35.1730367,133.593388 L35.1730367,133.593388 Z M35.1730367,145.210814 C34.8522779,145.210814 34.5472942,145.273914 34.2686022,145.39135 C33.8514405,145.568381 33.497379,145.862848 33.2467314,146.234437 C32.9960839,146.604274 32.8506031,147.051233 32.8506031,147.533247 C32.8506031,148.497276 33.4342789,149.321083 34.2686022,149.673391 C34.5472942,149.790828 34.8522779,149.855681 35.1730367,149.855681 C36.4560716,149.855681 37.497223,148.816282 37.497223,147.533247 C37.497223,147.051233 37.3499894,146.604274 37.0993419,146.234437 C36.6821803,145.615706 35.9740571,145.210814 35.1730367,145.210814 L35.1730367,145.210814 Z M40.9817496,127.784675 C39.6987147,127.784675 38.6593161,128.825826 38.6593161,130.107108 C38.6593161,131.391896 39.6987147,132.431294 40.9817496,132.431294 C42.2647846,132.431294 43.305936,131.391896 43.305936,130.107108 C43.305936,128.825826 42.2647846,127.784675 40.9817496,127.784675 L40.9817496,127.784675 Z M52.5991756,127.784675 C51.3143879,127.784675 50.2749893,128.825826 50.2749893,130.107108 C50.2749893,131.391896 51.3143879,132.431294 52.5991756,132.431294 C53.8822106,132.431294 54.9216091,131.391896 54.9216091,130.107108 C54.9216091,128.825826 53.8822106,127.784675 52.5991756,127.784675 L52.5991756,127.784675 Z M40.9817496,139.400348 C39.6987147,139.400348 38.6593161,140.441499 38.6593161,141.724534 C38.6593161,143.009322 39.6987147,144.046968 40.9817496,144.046968 C42.2647846,144.046968 43.305936,143.009322 43.305936,141.724534 C43.305936,140.441499 42.2647846,139.400348 40.9817496,139.400348 L40.9817496,139.400348 Z M52.5991756,139.400348 C51.3143879,139.400348 50.2749893,140.441499 50.2749893,141.724534 C50.2749893,143.009322 51.3143879,144.046968 52.5991756,144.046968 C53.8822106,144.046968 54.9216091,143.009322 54.9216091,141.724534 C54.9216091,140.441499 53.8822106,139.400348 52.5991756,139.400348 L52.5991756,139.400348 Z M46.7904626,133.593388 C45.5074277,133.593388 44.4662763,134.632786 44.4662763,135.915821 C44.4662763,137.200609 45.5074277,138.240007 46.7904626,138.240007 C48.0734976,138.240007 49.1146489,137.200609 49.1146489,135.915821 C49.1146489,134.632786 48.0734976,133.593388 46.7904626,133.593388 L46.7904626,133.593388 Z M46.7904626,145.210814 C45.9876894,145.210814 45.281319,145.615706 44.8641574,146.234437 C44.6135098,146.604274 44.4662763,147.051233 44.4662763,147.533247 C44.4662763,148.816282 45.5074277,149.855681 46.7904626,149.855681 C48.0734976,149.855681 49.1146489,148.816282 49.1146489,147.533247 C49.1146489,147.051233 48.9656626,146.604274 48.7167679,146.234437 C48.2996062,145.615706 47.5914831,145.210814 46.7904626,145.210814 L46.7904626,145.210814 Z M35.1730367,110.360288 C34.8522779,110.360288 34.5472942,110.425141 34.2686022,110.540825 C33.4342789,110.893134 32.8506031,111.720446 32.8506031,112.682722 C32.8506031,113.646751 33.4342789,114.470558 34.2686022,114.824619 C34.5472942,114.940303 34.8522779,115.005155 35.1730367,115.005155 C36.4560716,115.005155 37.497223,113.965757 37.497223,112.682722 C37.497223,111.399687 36.4560716,110.360288 35.1730367,110.360288 L35.1730367,110.360288 Z M35.1730367,121.975962 C34.8522779,121.975962 34.5472942,122.040814 34.2686022,122.158251 C33.8514405,122.335281 33.497379,122.629749 33.2467314,123.001338 C32.9960839,123.371174 32.8506031,123.816381 32.8506031,124.300148 C32.8506031,125.262424 33.4342789,126.087984 34.2686022,126.440292 C34.5472942,126.557729 34.8522779,126.622581 35.1730367,126.622581 C36.4560716,126.622581 37.497223,125.583183 37.497223,124.300148 C37.497223,123.816381 37.3499894,123.371174 37.0993419,123.001338 C36.6821803,122.382607 35.9740571,121.975962 35.1730367,121.975962 L35.1730367,121.975962 Z M40.9817496,104.549823 C39.6987147,104.549823 38.6593161,105.592727 38.6593161,106.872256 C38.6593161,108.158797 39.6987147,109.198195 40.9817496,109.198195 C42.2647846,109.198195 43.305936,108.158797 43.305936,106.872256 C43.305936,105.592727 42.2647846,104.549823 40.9817496,104.549823 L40.9817496,104.549823 Z M52.5991756,104.549823 C51.3143879,104.549823 50.2749893,105.592727 50.2749893,106.872256 C50.2749893,108.158797 51.3143879,109.198195 52.5991756,109.198195 C53.8822106,109.198195 54.9216091,108.158797 54.9216091,106.872256 C54.9216091,105.592727 53.8822106,104.549823 52.5991756,104.549823 L52.5991756,104.549823 Z M40.9817496,116.167249 C39.6987147,116.167249 38.6593161,117.2084 38.6593161,118.491435 C38.6593161,119.77447 39.6987147,120.813868 40.9817496,120.813868 C42.2647846,120.813868 43.305936,119.77447 43.305936,118.491435 C43.305936,117.2084 42.2647846,116.167249 40.9817496,116.167249 L40.9817496,116.167249 Z M52.5991756,116.167249 C51.3143879,116.167249 50.2749893,117.2084 50.2749893,118.491435 C50.2749893,119.77447 51.3143879,120.813868 52.5991756,120.813868 C53.8822106,120.813868 54.9216091,119.77447 54.9216091,118.491435 C54.9216091,117.2084 53.8822106,116.167249 52.5991756,116.167249 L52.5991756,116.167249 Z M46.7904626,110.360288 C45.5074277,110.360288 44.4662763,111.399687 44.4662763,112.682722 C44.4662763,113.965757 45.5074277,115.005155 46.7904626,115.005155 C48.0734976,115.005155 49.1146489,113.965757 49.1146489,112.682722 C49.1146489,111.399687 48.0734976,110.360288 46.7904626,110.360288 L46.7904626,110.360288 Z M46.7904626,121.975962 C45.9876894,121.975962 45.281319,122.382607 44.8641574,123.001338 C44.6135098,123.371174 44.4662763,123.816381 44.4662763,124.300148 C44.4662763,125.583183 45.5074277,126.622581 46.7904626,126.622581 C48.0734976,126.622581 49.1146489,125.583183 49.1146489,124.300148 C49.1146489,123.816381 48.9656626,123.371174 48.7167679,123.001338 C48.2996062,122.382607 47.5914831,121.975962 46.7904626,121.975962 L46.7904626,121.975962 Z M35.1730367,87.1254365 C34.8522779,87.1254365 34.5472942,87.1902893 34.2686022,87.3077256 C33.4342789,87.6617871 32.8506031,88.4873465 32.8506031,89.44787 C32.8506031,90.411899 33.4342789,91.2392112 34.2686022,91.5915199 C34.5472942,91.7072034 34.8522779,91.7720563 35.1730367,91.7720563 C36.4560716,91.7720563 37.497223,90.7326577 37.497223,89.44787 C37.497223,88.1683406 36.4560716,87.1254365 35.1730367,87.1254365 L35.1730367,87.1254365 Z M35.1730367,98.7428624 C34.8522779,98.7428624 34.5472942,98.8077153 34.2686022,98.9233988 C33.8514405,99.1021823 33.497379,99.3966494 33.2467314,99.7682387 C32.9960839,100.138075 32.8506031,100.585034 32.8506031,101.067049 C32.8506031,102.029325 33.4342789,102.853132 34.2686022,103.207193 C34.5472942,103.324629 34.8522779,103.387729 35.1730367,103.387729 C36.4560716,103.387729 37.497223,102.348331 37.497223,101.067049 C37.497223,100.585034 37.3499894,100.138075 37.0993419,99.7682387 C36.6821803,99.1477546 35.9740571,98.7428624 35.1730367,98.7428624 L35.1730367,98.7428624 Z M40.9817496,81.3167235 C39.6987147,81.3167235 38.6593161,82.3596276 38.6593161,83.6409098 C38.6593161,84.9239447 39.6987147,85.9650961 40.9817496,85.9650961 C42.2647846,85.9650961 43.305936,84.9239447 43.305936,83.6409098 C43.305936,82.3596276 42.2647846,81.3167235 40.9817496,81.3167235 L40.9817496,81.3167235 Z M52.5991756,81.3167235 C51.3143879,81.3167235 50.2749893,82.3596276 50.2749893,83.6409098 C50.2749893,84.9239447 51.3143879,85.9650961 52.5991756,85.9650961 C53.8822106,85.9650961 54.9216091,84.9239447 54.9216091,83.6409098 C54.9216091,82.3596276 53.8822106,81.3167235 52.5991756,81.3167235 L52.5991756,81.3167235 Z M40.9817496,92.9323967 C39.6987147,92.9323967 38.6593161,93.9753008 38.6593161,95.2583357 C38.6593161,96.5413707 39.6987147,97.5807693 40.9817496,97.5807693 C42.2647846,97.5807693 43.305936,96.5413707 43.305936,95.2583357 C43.305936,93.9753008 42.2647846,92.9323967 40.9817496,92.9323967 L40.9817496,92.9323967 Z M52.5991756,92.9323967 C51.3143879,92.9323967 50.2749893,93.9753008 50.2749893,95.2583357 C50.2749893,96.5413707 51.3143879,97.5807693 52.5991756,97.5807693 C53.8822106,97.5807693 54.9216091,96.5413707 54.9216091,95.2583357 C54.9216091,93.9753008 53.8822106,92.9323967 52.5991756,92.9323967 L52.5991756,92.9323967 Z M46.7904626,87.1254365 C45.5074277,87.1254365 44.4662763,88.1683406 44.4662763,89.44787 C44.4662763,90.7326577 45.5074277,91.7720563 46.7904626,91.7720563 C48.0734976,91.7720563 49.1146489,90.7326577 49.1146489,89.44787 C49.1146489,88.1683406 48.0734976,87.1254365 46.7904626,87.1254365 L46.7904626,87.1254365 Z M46.7904626,98.7428624 C45.9876894,98.7428624 45.281319,99.1477546 44.8641574,99.7682387 C44.6135098,100.138075 44.4662763,100.585034 44.4662763,101.067049 C44.4662763,102.348331 45.5074277,103.387729 46.7904626,103.387729 C48.0734976,103.387729 49.1146489,102.348331 49.1146489,101.067049 C49.1146489,100.585034 48.9656626,100.138075 48.7167679,99.7682387 C48.2996062,99.1477546 47.5914831,98.7428624 46.7904626,98.7428624 L46.7904626,98.7428624 Z M35.1730367,63.8923373 C34.8522779,63.8923373 34.5472942,63.9571901 34.2686022,64.0746264 C33.4342789,64.4269352 32.8506031,65.2542474 32.8506031,66.2147708 C32.8506031,67.1787998 33.4342789,68.0043592 34.2686022,68.356668 C34.5472942,68.4741043 34.8522779,68.5389571 35.1730367,68.5389571 C36.4560716,68.5389571 37.497223,67.4995586 37.497223,66.2147708 C37.497223,64.9334886 36.4560716,63.8923373 35.1730367,63.8923373 L35.1730367,63.8923373 Z M35.1730367,75.5080105 C34.8522779,75.5080105 34.5472942,75.5746161 34.2686022,75.6902996 C33.8514405,75.8673304 33.497379,76.1617974 33.2467314,76.5333868 C32.9960839,76.9032234 32.8506031,77.3501823 32.8506031,77.8339496 C32.8506031,78.794473 33.4342789,79.6217852 34.2686022,79.9723412 C34.5472942,80.0897775 34.8522779,80.1546303 35.1730367,80.1546303 C36.4560716,80.1546303 37.497223,79.1169845 37.497223,77.8339496 C37.497223,77.3501823 37.3499894,76.9032234 37.0993419,76.5333868 C36.6821803,75.9146554 35.9740571,75.5080105 35.1730367,75.5080105 L35.1730367,75.5080105 Z M40.9817496,58.0836243 C39.6987147,58.0836243 38.6593161,59.1247756 38.6593161,60.4060578 C38.6593161,61.6908456 39.6987147,62.7302441 40.9817496,62.7302441 C42.2647846,62.7302441 43.305936,61.6908456 43.305936,60.4060578 C43.305936,59.1247756 42.2647846,58.0836243 40.9817496,58.0836243 L40.9817496,58.0836243 Z M52.5991756,58.0836243 C51.3143879,58.0836243 50.2749893,59.1247756 50.2749893,60.4060578 C50.2749893,61.6908456 51.3143879,62.7302441 52.5991756,62.7302441 C53.8822106,62.7302441 54.9216091,61.6908456 54.9216091,60.4060578 C54.9216091,59.1247756 53.8822106,58.0836243 52.5991756,58.0836243 L52.5991756,58.0836243 Z M40.9817496,69.6992975 C39.6987147,69.6992975 38.6593161,70.7422016 38.6593161,72.0252366 C38.6593161,73.3082716 39.6987147,74.3459173 40.9817496,74.3459173 C42.2647846,74.3459173 43.305936,73.3082716 43.305936,72.0252366 C43.305936,70.7422016 42.2647846,69.6992975 40.9817496,69.6992975 L40.9817496,69.6992975 Z M52.5991756,69.6992975 C51.3143879,69.6992975 50.2749893,70.7422016 50.2749893,72.0252366 C50.2749893,73.3082716 51.3143879,74.3459173 52.5991756,74.3459173 C53.8822106,74.3459173 54.9216091,73.3082716 54.9216091,72.0252366 C54.9216091,70.7422016 53.8822106,69.6992975 52.5991756,69.6992975 L52.5991756,69.6992975 Z M46.7904626,63.8923373 C45.5074277,63.8923373 44.4662763,64.9334886 44.4662763,66.2147708 C44.4662763,67.4995586 45.5074277,68.5389571 46.7904626,68.5389571 C48.0734976,68.5389571 49.1146489,67.4995586 49.1146489,66.2147708 C49.1146489,64.9334886 48.0734976,63.8923373 46.7904626,63.8923373 L46.7904626,63.8923373 Z M46.7904626,75.5080105 C45.9876894,75.5080105 45.281319,75.9146554 44.8641574,76.5333868 C44.6135098,76.9032234 44.4662763,77.3501823 44.4662763,77.8339496 C44.4662763,79.1169845 45.5074277,80.1546303 46.7904626,80.1546303 C48.0734976,80.1546303 49.1146489,79.1169845 49.1146489,77.8339496 C49.1146489,77.3501823 48.9656626,76.9032234 48.7167679,76.5333868 C48.2996062,75.9146554 47.5914831,75.5080105 46.7904626,75.5080105 L46.7904626,75.5080105 Z M35.1730367,40.6592381 C34.8522779,40.6592381 34.5472942,40.724091 34.2686022,40.8415272 C33.4342789,41.193836 32.8506031,42.0211482 32.8506031,42.9816716 C32.8506031,43.9457007 33.4342789,44.77126 34.2686022,45.1235688 C34.5472942,45.2410051 34.8522779,45.305858 35.1730367,45.305858 C36.4560716,45.305858 37.497223,44.2664594 37.497223,42.9816716 C37.497223,41.7003895 36.4560716,40.6592381 35.1730367,40.6592381 L35.1730367,40.6592381 Z M35.1730367,52.2749113 C34.8522779,52.2749113 34.5472942,52.3397642 34.2686022,52.4572004 C33.8514405,52.6342312 33.497379,52.9286983 33.2467314,53.3002876 C32.9960839,53.6701242 32.8506031,54.1170831 32.8506031,54.5990976 C32.8506031,55.5613739 33.4342789,56.3869332 34.2686022,56.739242 C34.5472942,56.8566783 34.8522779,56.9215311 35.1730367,56.9215311 C36.4560716,56.9215311 37.497223,55.8821326 37.497223,54.5990976 C37.497223,54.1170831 37.3499894,53.6701242 37.0993419,53.3002876 C36.6821803,52.6815563 35.9740571,52.2749113 35.1730367,52.2749113 L35.1730367,52.2749113 Z M40.9817496,34.8505251 C39.6987147,34.8505251 38.6593161,35.8916765 38.6593161,37.1729587 C38.6593161,38.4577464 39.6987147,39.497145 40.9817496,39.497145 C42.2647846,39.497145 43.305936,38.4577464 43.305936,37.1729587 C43.305936,35.8916765 42.2647846,34.8505251 40.9817496,34.8505251 L40.9817496,34.8505251 Z M52.5991756,34.8505251 C51.3143879,34.8505251 50.2749893,35.8916765 50.2749893,37.1729587 C50.2749893,38.4577464 51.3143879,39.497145 52.5991756,39.497145 C53.8822106,39.497145 54.9216091,38.4577464 54.9216091,37.1729587 C54.9216091,35.8916765 53.8822106,34.8505251 52.5991756,34.8505251 L52.5991756,34.8505251 Z M40.9817496,46.4661983 C39.6987147,46.4661983 38.6593161,47.5073497 38.6593161,48.7903846 C38.6593161,50.0734196 39.6987147,51.1128182 40.9817496,51.1128182 C42.2647846,51.1128182 43.305936,50.0734196 43.305936,48.7903846 C43.305936,47.5073497 42.2647846,46.4661983 40.9817496,46.4661983 L40.9817496,46.4661983 Z M52.5991756,46.4661983 C51.3143879,46.4661983 50.2749893,47.5073497 50.2749893,48.7903846 C50.2749893,50.0734196 51.3143879,51.1128182 52.5991756,51.1128182 C53.8822106,51.1128182 54.9216091,50.0734196 54.9216091,48.7903846 C54.9216091,47.5073497 53.8822106,46.4661983 52.5991756,46.4661983 L52.5991756,46.4661983 Z M46.7904626,40.6592381 C45.5074277,40.6592381 44.4662763,41.7003895 44.4662763,42.9816716 C44.4662763,44.2664594 45.5074277,45.305858 46.7904626,45.305858 C48.0734976,45.305858 49.1146489,44.2664594 49.1146489,42.9816716 C49.1146489,41.7003895 48.0734976,40.6592381 46.7904626,40.6592381 L46.7904626,40.6592381 Z M46.7904626,52.2749113 C45.9876894,52.2749113 45.281319,52.6815563 44.8641574,53.3002876 C44.6135098,53.6701242 44.4662763,54.1170831 44.4662763,54.5990976 C44.4662763,55.8821326 45.5074277,56.9215311 46.7904626,56.9215311 C48.0734976,56.9215311 49.1146489,55.8821326 49.1146489,54.5990976 C49.1146489,54.1170831 48.9656626,53.6701242 48.7167679,53.3002876 C48.2996062,52.6815563 47.5914831,52.2749113 46.7904626,52.2749113 L46.7904626,52.2749113 Z M35.1730367,17.4243862 C34.8522779,17.4243862 34.5472942,17.489239 34.2686022,17.6066753 C33.4342789,17.9589841 32.8506031,18.788049 32.8506031,19.7468197 C32.8506031,20.7108487 33.4342789,21.5364081 34.2686022,21.8904697 C34.5472942,22.0061532 34.8522779,22.0727588 35.1730367,22.0727588 C36.4560716,22.0727588 37.497223,21.0316075 37.497223,19.7468197 C37.497223,18.4655375 36.4560716,17.4243862 35.1730367,17.4243862 L35.1730367,17.4243862 Z M35.1730367,29.0418122 C34.8522779,29.0418122 34.5472942,29.106665 34.2686022,29.2241013 C33.8514405,29.4011321 33.497379,29.6955991 33.2467314,30.0671885 C32.9960839,30.437025 32.8506031,30.883984 32.8506031,31.3659985 C32.8506031,32.3282747 33.4342789,33.1538341 34.2686022,33.5061429 C34.5472942,33.6235791 34.8522779,33.688432 35.1730367,33.688432 C36.4560716,33.688432 37.497223,32.6490334 37.497223,31.3659985 C37.497223,30.883984 37.3499894,30.437025 37.0993419,30.0671885 C36.6821803,29.4484571 35.9740571,29.0418122 35.1730367,29.0418122 L35.1730367,29.0418122 Z M40.9817496,11.617426 C39.6987147,11.617426 38.6593161,12.6568245 38.6593161,13.9381067 C38.6593161,15.2246473 39.6987147,16.2640458 40.9817496,16.2640458 C42.2647846,16.2640458 43.305936,15.2246473 43.305936,13.9381067 C43.305936,12.6568245 42.2647846,11.617426 40.9817496,11.617426 L40.9817496,11.617426 Z M52.5991756,11.617426 C51.3143879,11.617426 50.2749893,12.6568245 50.2749893,13.9381067 C50.2749893,15.2246473 51.3143879,16.2640458 52.5991756,16.2640458 C53.8822106,16.2640458 54.9216091,15.2246473 54.9216091,13.9381067 C54.9216091,12.6568245 53.8822106,11.617426 52.5991756,11.617426 L52.5991756,11.617426 Z M40.9817496,23.2330992 C39.6987147,23.2330992 38.6593161,24.2742505 38.6593161,25.5572855 C38.6593161,26.8403204 39.6987147,27.879719 40.9817496,27.879719 C42.2647846,27.879719 43.305936,26.8403204 43.305936,25.5572855 C43.305936,24.2742505 42.2647846,23.2330992 40.9817496,23.2330992 L40.9817496,23.2330992 Z M52.5991756,23.2330992 C51.3143879,23.2330992 50.2749893,24.2742505 50.2749893,25.5572855 C50.2749893,26.8403204 51.3143879,27.879719 52.5991756,27.879719 C53.8822106,27.879719 54.9216091,26.8403204 54.9216091,25.5572855 C54.9216091,24.2742505 53.8822106,23.2330992 52.5991756,23.2330992 L52.5991756,23.2330992 Z M46.7904626,17.4243862 C45.5074277,17.4243862 44.4662763,18.4655375 44.4662763,19.7468197 C44.4662763,21.0316075 45.5074277,22.0727588 46.7904626,22.0727588 C48.0734976,22.0727588 49.1146489,21.0316075 49.1146489,19.7468197 C49.1146489,18.4655375 48.0734976,17.4243862 46.7904626,17.4243862 L46.7904626,17.4243862 Z M46.7904626,29.0418122 C45.9876894,29.0418122 45.281319,29.4484571 44.8641574,30.0671885 C44.6135098,30.437025 44.4662763,30.883984 44.4662763,31.3659985 C44.4662763,32.6490334 45.5074277,33.688432 46.7904626,33.688432 C48.0734976,33.688432 49.1146489,32.6490334 49.1146489,31.3659985 C49.1146489,30.883984 48.9656626,30.437025 48.7167679,30.0671885 C48.2996062,29.4484571 47.5914831,29.0418122 46.7904626,29.0418122 L46.7904626,29.0418122 Z M35.1730367,5.80871299 C34.8522779,5.80871299 34.5472942,5.87181307 34.2686022,5.99100211 C33.8514405,6.16628011 33.497379,6.46074715 33.2467314,6.8340893 C32.9960839,7.20392588 32.8506031,7.65088479 32.8506031,8.13114651 C32.8506031,9.09517552 33.4342789,9.91898213 34.2686022,10.2730437 C34.5472942,10.39048 34.8522779,10.4553328 35.1730367,10.4553328 C36.4560716,10.4553328 37.497223,9.41418149 37.497223,8.13114651 C37.497223,7.65088479 37.3499894,7.20392588 37.0993419,6.8340893 C36.6821803,6.21535795 35.9740571,5.80871299 35.1730367,5.80871299 L35.1730367,5.80871299 Z M40.9817496,1.42108547e-13 C39.6987147,1.42108547e-13 38.6593161,1.04115133 38.6593161,2.32418631 C38.6593161,3.60722128 39.6987147,4.64661983 40.9817496,4.64661983 C42.2647846,4.64661983 43.305936,3.60722128 43.305936,2.32418631 C43.305936,1.04115133 42.2647846,1.42108547e-13 40.9817496,1.42108547e-13 L40.9817496,1.42108547e-13 Z M52.5991756,1.42108547e-13 C51.3143879,1.42108547e-13 50.2749893,1.04115133 50.2749893,2.32418631 C50.2749893,3.60722128 51.3143879,4.64661983 52.5991756,4.64661983 C53.8822106,4.64661983 54.9216091,3.60722128 54.9216091,2.32418631 C54.9216091,1.04115133 53.8822106,1.42108547e-13 52.5991756,1.42108547e-13 L52.5991756,1.42108547e-13 Z M46.7904626,5.80871299 C45.9876894,5.80871299 45.281319,6.21535795 44.8641574,6.8340893 C44.6135098,7.20392588 44.4662763,7.65088479 44.4662763,8.13114651 C44.4662763,9.41418149 45.5074277,10.4553328 46.7904626,10.4553328 C48.0734976,10.4553328 49.1146489,9.41418149 49.1146489,8.13114651 C49.1146489,7.65088479 48.9656626,7.20392588 48.7167679,6.8340893 C48.2996062,6.21535795 47.5914831,5.80871299 46.7904626,5.80871299 L46.7904626,5.80871299 Z M58.4061358,156.824734 C58.0853771,156.824734 57.7803934,156.89134 57.5017013,157.008776 C56.6691308,157.361085 56.0854551,158.188397 56.0854551,159.14892 C56.0854551,160.111196 56.6691308,160.938509 57.5017013,161.290817 C57.7803934,161.408254 58.0853771,161.473107 58.4061358,161.473107 C59.6891708,161.473107 60.7303221,160.433708 60.7303221,159.14892 C60.7303221,157.867638 59.6891708,156.824734 58.4061358,156.824734 L58.4061358,156.824734 Z M64.2148488,151.017774 C62.9318138,151.017774 61.8924153,152.058925 61.8924153,153.340207 C61.8924153,154.626748 62.9318138,155.664394 64.2148488,155.664394 C65.4996366,155.664394 66.5390351,154.626748 66.5390351,153.340207 C66.5390351,152.058925 65.4996366,151.017774 64.2148488,151.017774 L64.2148488,151.017774 Z M75.8322748,151.017774 C74.5492398,151.017774 73.5080885,152.058925 73.5080885,153.340207 C73.5080885,154.626748 74.5492398,155.664394 75.8322748,155.664394 C77.1153098,155.664394 78.1547083,154.626748 78.1547083,153.340207 C78.1547083,152.058925 77.1153098,151.017774 75.8322748,151.017774 L75.8322748,151.017774 Z M64.2148488,162.6352 C62.9318138,162.6352 61.8924153,163.676351 61.8924153,164.957633 C61.8924153,165.944448 62.5076411,166.780524 63.3735144,167.118811 L65.0561832,167.118811 C65.9220565,166.780524 66.5390351,165.944448 66.5390351,164.957633 C66.5390351,163.676351 65.4996366,162.6352 64.2148488,162.6352 L64.2148488,162.6352 Z M75.8322748,162.6352 C74.5492398,162.6352 73.5080885,163.676351 73.5080885,164.957633 C73.5080885,165.944448 74.125067,166.780524 74.9909404,167.118811 L76.6736092,167.118811 C77.5394825,166.780524 78.1547083,165.944448 78.1547083,164.957633 C78.1547083,163.676351 77.1153098,162.6352 75.8322748,162.6352 L75.8322748,162.6352 Z M70.0235618,156.824734 C68.7405268,156.824734 67.6993755,157.867638 67.6993755,159.14892 C67.6993755,160.433708 68.7405268,161.473107 70.0235618,161.473107 C71.3065968,161.473107 72.3477481,160.433708 72.3477481,159.14892 C72.3477481,157.867638 71.3065968,156.824734 70.0235618,156.824734 L70.0235618,156.824734 Z M58.4061358,133.593388 C58.0853771,133.593388 57.7803934,133.65824 57.5017013,133.775677 C56.6691308,134.126233 56.0854551,134.955298 56.0854551,135.915821 C56.0854551,136.87985 56.6691308,137.703657 57.5017013,138.055965 C57.7803934,138.175155 58.0853771,138.240007 58.4061358,138.240007 C59.6891708,138.240007 60.7303221,137.200609 60.7303221,135.915821 C60.7303221,134.632786 59.6891708,133.593388 58.4061358,133.593388 L58.4061358,133.593388 Z M58.4061358,145.210814 C58.0853771,145.210814 57.7803934,145.273914 57.5017013,145.39135 C57.0845397,145.568381 56.7304781,145.862848 56.4798306,146.234437 C56.2309358,146.604274 56.0854551,147.051233 56.0854551,147.533247 C56.0854551,148.497276 56.6691308,149.321083 57.5017013,149.673391 C57.7803934,149.790828 58.0853771,149.855681 58.4061358,149.855681 C59.6891708,149.855681 60.7303221,148.816282 60.7303221,147.533247 C60.7303221,147.051233 60.5830886,146.604274 60.3324411,146.234437 C59.9152794,145.615706 59.2071563,145.210814 58.4061358,145.210814 L58.4061358,145.210814 Z M64.2148488,127.784675 C62.9318138,127.784675 61.8924153,128.825826 61.8924153,130.107108 C61.8924153,131.391896 62.9318138,132.431294 64.2148488,132.431294 C65.4996366,132.431294 66.5390351,131.391896 66.5390351,130.107108 C66.5390351,128.825826 65.4996366,127.784675 64.2148488,127.784675 L64.2148488,127.784675 Z M75.8322748,127.784675 C74.5492398,127.784675 73.5080885,128.825826 73.5080885,130.107108 C73.5080885,131.391896 74.5492398,132.431294 75.8322748,132.431294 C77.1153098,132.431294 78.1547083,131.391896 78.1547083,130.107108 C78.1547083,128.825826 77.1153098,127.784675 75.8322748,127.784675 L75.8322748,127.784675 Z M64.2148488,139.400348 C62.9318138,139.400348 61.8924153,140.441499 61.8924153,141.724534 C61.8924153,143.009322 62.9318138,144.046968 64.2148488,144.046968 C65.4996366,144.046968 66.5390351,143.009322 66.5390351,141.724534 C66.5390351,140.441499 65.4996366,139.400348 64.2148488,139.400348 L64.2148488,139.400348 Z M75.8322748,139.400348 C74.5492398,139.400348 73.5080885,140.441499 73.5080885,141.724534 C73.5080885,143.009322 74.5492398,144.046968 75.8322748,144.046968 C77.1153098,144.046968 78.1547083,143.009322 78.1547083,141.724534 C78.1547083,140.441499 77.1153098,139.400348 75.8322748,139.400348 L75.8322748,139.400348 Z M70.0235618,133.593388 C68.7405268,133.593388 67.6993755,134.632786 67.6993755,135.915821 C67.6993755,137.200609 68.7405268,138.240007 70.0235618,138.240007 C71.3065968,138.240007 72.3477481,137.200609 72.3477481,135.915821 C72.3477481,134.632786 71.3065968,133.593388 70.0235618,133.593388 L70.0235618,133.593388 Z M70.0235618,145.210814 C69.2207885,145.210814 68.5144182,145.615706 68.0972566,146.234437 C67.846609,146.604274 67.6993755,147.051233 67.6993755,147.533247 C67.6993755,148.816282 68.7405268,149.855681 70.0235618,149.855681 C71.3065968,149.855681 72.3477481,148.816282 72.3477481,147.533247 C72.3477481,147.051233 72.2005146,146.604274 71.949867,146.234437 C71.5327054,145.615706 70.8245823,145.210814 70.0235618,145.210814 L70.0235618,145.210814 Z M58.4061358,110.360288 C58.0853771,110.360288 57.7803934,110.425141 57.5017013,110.540825 C56.6691308,110.893134 56.0854551,111.720446 56.0854551,112.682722 C56.0854551,113.646751 56.6691308,114.470558 57.5017013,114.824619 C57.7803934,114.940303 58.0853771,115.005155 58.4061358,115.005155 C59.6891708,115.005155 60.7303221,113.965757 60.7303221,112.682722 C60.7303221,111.399687 59.6891708,110.360288 58.4061358,110.360288 L58.4061358,110.360288 Z M58.4061358,121.975962 C58.0853771,121.975962 57.7803934,122.040814 57.5017013,122.158251 C57.0845397,122.335281 56.7304781,122.629749 56.4798306,123.001338 C56.2309358,123.371174 56.0854551,123.816381 56.0854551,124.300148 C56.0854551,125.262424 56.6691308,126.087984 57.5017013,126.440292 C57.7803934,126.557729 58.0853771,126.622581 58.4061358,126.622581 C59.6891708,126.622581 60.7303221,125.583183 60.7303221,124.300148 C60.7303221,123.816381 60.5830886,123.371174 60.3324411,123.001338 C59.9152794,122.382607 59.2071563,121.975962 58.4061358,121.975962 L58.4061358,121.975962 Z M64.2148488,104.549823 C62.9318138,104.549823 61.8924153,105.592727 61.8924153,106.872256 C61.8924153,108.158797 62.9318138,109.198195 64.2148488,109.198195 C65.4996366,109.198195 66.5390351,108.158797 66.5390351,106.872256 C66.5390351,105.592727 65.4996366,104.549823 64.2148488,104.549823 L64.2148488,104.549823 Z M75.8322748,104.549823 C74.5492398,104.549823 73.5080885,105.592727 73.5080885,106.872256 C73.5080885,108.158797 74.5492398,109.198195 75.8322748,109.198195 C77.1153098,109.198195 78.1547083,108.158797 78.1547083,106.872256 C78.1547083,105.592727 77.1153098,104.549823 75.8322748,104.549823 L75.8322748,104.549823 Z M64.2148488,116.167249 C62.9318138,116.167249 61.8924153,117.2084 61.8924153,118.491435 C61.8924153,119.77447 62.9318138,120.813868 64.2148488,120.813868 C65.4996366,120.813868 66.5390351,119.77447 66.5390351,118.491435 C66.5390351,117.2084 65.4996366,116.167249 64.2148488,116.167249 L64.2148488,116.167249 Z M75.8322748,116.167249 C74.5492398,116.167249 73.5080885,117.2084 73.5080885,118.491435 C73.5080885,119.77447 74.5492398,120.813868 75.8322748,120.813868 C77.1153098,120.813868 78.1547083,119.77447 78.1547083,118.491435 C78.1547083,117.2084 77.1153098,116.167249 75.8322748,116.167249 L75.8322748,116.167249 Z M70.0235618,110.360288 C68.7405268,110.360288 67.6993755,111.399687 67.6993755,112.682722 C67.6993755,113.965757 68.7405268,115.005155 70.0235618,115.005155 C71.3065968,115.005155 72.3477481,113.965757 72.3477481,112.682722 C72.3477481,111.399687 71.3065968,110.360288 70.0235618,110.360288 L70.0235618,110.360288 Z M70.0235618,121.975962 C69.2207885,121.975962 68.5144182,122.382607 68.0972566,123.001338 C67.846609,123.371174 67.6993755,123.816381 67.6993755,124.300148 C67.6993755,125.583183 68.7405268,126.622581 70.0235618,126.622581 C71.3065968,126.622581 72.3477481,125.583183 72.3477481,124.300148 C72.3477481,123.816381 72.2005146,123.371174 71.949867,123.001338 C71.5327054,122.382607 70.8245823,121.975962 70.0235618,121.975962 L70.0235618,121.975962 Z M58.4061358,87.1254365 C58.0853771,87.1254365 57.7803934,87.1902893 57.5017013,87.3077256 C56.6691308,87.6617871 56.0854551,88.4873465 56.0854551,89.44787 C56.0854551,90.411899 56.6691308,91.2392112 57.5017013,91.5915199 C57.7803934,91.7072034 58.0853771,91.7720563 58.4061358,91.7720563 C59.6891708,91.7720563 60.7303221,90.7326577 60.7303221,89.44787 C60.7303221,88.1683406 59.6891708,87.1254365 58.4061358,87.1254365 L58.4061358,87.1254365 Z M58.4061358,98.7428624 C58.0853771,98.7428624 57.7803934,98.8077153 57.5017013,98.9233988 C57.0845397,99.1021823 56.7304781,99.3966494 56.4798306,99.7682387 C56.2309358,100.138075 56.0854551,100.585034 56.0854551,101.067049 C56.0854551,102.029325 56.6691308,102.853132 57.5017013,103.207193 C57.7803934,103.324629 58.0853771,103.387729 58.4061358,103.387729 C59.6891708,103.387729 60.7303221,102.348331 60.7303221,101.067049 C60.7303221,100.585034 60.5830886,100.138075 60.3324411,99.7682387 C59.9152794,99.1477546 59.2071563,98.7428624 58.4061358,98.7428624 L58.4061358,98.7428624 Z M64.2148488,81.3167235 C62.9318138,81.3167235 61.8924153,82.3596276 61.8924153,83.6409098 C61.8924153,84.9239447 62.9318138,85.9650961 64.2148488,85.9650961 C65.4996366,85.9650961 66.5390351,84.9239447 66.5390351,83.6409098 C66.5390351,82.3596276 65.4996366,81.3167235 64.2148488,81.3167235 L64.2148488,81.3167235 Z M75.8322748,81.3167235 C74.5492398,81.3167235 73.5080885,82.3596276 73.5080885,83.6409098 C73.5080885,84.9239447 74.5492398,85.9650961 75.8322748,85.9650961 C77.1153098,85.9650961 78.1547083,84.9239447 78.1547083,83.6409098 C78.1547083,82.3596276 77.1153098,81.3167235 75.8322748,81.3167235 L75.8322748,81.3167235 Z M64.2148488,92.9323967 C62.9318138,92.9323967 61.8924153,93.9753008 61.8924153,95.2583357 C61.8924153,96.5413707 62.9318138,97.5807693 64.2148488,97.5807693 C65.4996366,97.5807693 66.5390351,96.5413707 66.5390351,95.2583357 C66.5390351,93.9753008 65.4996366,92.9323967 64.2148488,92.9323967 L64.2148488,92.9323967 Z M75.8322748,92.9323967 C74.5492398,92.9323967 73.5080885,93.9753008 73.5080885,95.2583357 C73.5080885,96.5413707 74.5492398,97.5807693 75.8322748,97.5807693 C77.1153098,97.5807693 78.1547083,96.5413707 78.1547083,95.2583357 C78.1547083,93.9753008 77.1153098,92.9323967 75.8322748,92.9323967 L75.8322748,92.9323967 Z M70.0235618,87.1254365 C68.7405268,87.1254365 67.6993755,88.1683406 67.6993755,89.44787 C67.6993755,90.7326577 68.7405268,91.7720563 70.0235618,91.7720563 C71.3065968,91.7720563 72.3477481,90.7326577 72.3477481,89.44787 C72.3477481,88.1683406 71.3065968,87.1254365 70.0235618,87.1254365 L70.0235618,87.1254365 Z M70.0235618,98.7428624 C69.2207885,98.7428624 68.5144182,99.1477546 68.0972566,99.7682387 C67.846609,100.138075 67.6993755,100.585034 67.6993755,101.067049 C67.6993755,102.348331 68.7405268,103.387729 70.0235618,103.387729 C71.3065968,103.387729 72.3477481,102.348331 72.3477481,101.067049 C72.3477481,100.585034 72.2005146,100.138075 71.949867,99.7682387 C71.5327054,99.1477546 70.8245823,98.7428624 70.0235618,98.7428624 L70.0235618,98.7428624 Z M58.4061358,63.8923373 C58.0853771,63.8923373 57.7803934,63.9571901 57.5017013,64.0746264 C56.6691308,64.4269352 56.0854551,65.2542474 56.0854551,66.2147708 C56.0854551,67.1787998 56.6691308,68.0043592 57.5017013,68.356668 C57.7803934,68.4741043 58.0853771,68.5389571 58.4061358,68.5389571 C59.6891708,68.5389571 60.7303221,67.4995586 60.7303221,66.2147708 C60.7303221,64.9334886 59.6891708,63.8923373 58.4061358,63.8923373 L58.4061358,63.8923373 Z M58.4061358,75.5080105 C58.0853771,75.5080105 57.7803934,75.5746161 57.5017013,75.6902996 C57.0845397,75.8673304 56.7304781,76.1617974 56.4798306,76.5333868 C56.2309358,76.9032234 56.0854551,77.3501823 56.0854551,77.8339496 C56.0854551,78.794473 56.6691308,79.6217852 57.5017013,79.9723412 C57.7803934,80.0897775 58.0853771,80.1546303 58.4061358,80.1546303 C59.6891708,80.1546303 60.7303221,79.1169845 60.7303221,77.8339496 C60.7303221,77.3501823 60.5830886,76.9032234 60.3324411,76.5333868 C59.9152794,75.9146554 59.2071563,75.5080105 58.4061358,75.5080105 L58.4061358,75.5080105 Z M64.2148488,58.0836243 C62.9318138,58.0836243 61.8924153,59.1247756 61.8924153,60.4060578 C61.8924153,61.6908456 62.9318138,62.7302441 64.2148488,62.7302441 C65.4996366,62.7302441 66.5390351,61.6908456 66.5390351,60.4060578 C66.5390351,59.1247756 65.4996366,58.0836243 64.2148488,58.0836243 L64.2148488,58.0836243 Z M75.8322748,58.0836243 C74.5492398,58.0836243 73.5080885,59.1247756 73.5080885,60.4060578 C73.5080885,61.6908456 74.5492398,62.7302441 75.8322748,62.7302441 C77.1153098,62.7302441 78.1547083,61.6908456 78.1547083,60.4060578 C78.1547083,59.1247756 77.1153098,58.0836243 75.8322748,58.0836243 L75.8322748,58.0836243 Z M64.2148488,69.6992975 C62.9318138,69.6992975 61.8924153,70.7422016 61.8924153,72.0252366 C61.8924153,73.3082716 62.9318138,74.3459173 64.2148488,74.3459173 C65.4996366,74.3459173 66.5390351,73.3082716 66.5390351,72.0252366 C66.5390351,70.7422016 65.4996366,69.6992975 64.2148488,69.6992975 L64.2148488,69.6992975 Z M75.8322748,69.6992975 C74.5492398,69.6992975 73.5080885,70.7422016 73.5080885,72.0252366 C73.5080885,73.3082716 74.5492398,74.3459173 75.8322748,74.3459173 C77.1153098,74.3459173 78.1547083,73.3082716 78.1547083,72.0252366 C78.1547083,70.7422016 77.1153098,69.6992975 75.8322748,69.6992975 L75.8322748,69.6992975 Z M70.0235618,63.8923373 C68.7405268,63.8923373 67.6993755,64.9334886 67.6993755,66.2147708 C67.6993755,67.4995586 68.7405268,68.5389571 70.0235618,68.5389571 C71.3065968,68.5389571 72.3477481,67.4995586 72.3477481,66.2147708 C72.3477481,64.9334886 71.3065968,63.8923373 70.0235618,63.8923373 L70.0235618,63.8923373 Z M70.0235618,75.5080105 C69.2207885,75.5080105 68.5144182,75.9146554 68.0972566,76.5333868 C67.846609,76.9032234 67.6993755,77.3501823 67.6993755,77.8339496 C67.6993755,79.1169845 68.7405268,80.1546303 70.0235618,80.1546303 C71.3065968,80.1546303 72.3477481,79.1169845 72.3477481,77.8339496 C72.3477481,77.3501823 72.2005146,76.9032234 71.949867,76.5333868 C71.5327054,75.9146554 70.8245823,75.5080105 70.0235618,75.5080105 L70.0235618,75.5080105 Z M58.4061358,40.6592381 C58.0853771,40.6592381 57.7803934,40.724091 57.5017013,40.8415272 C56.6691308,41.193836 56.0854551,42.0211482 56.0854551,42.9816716 C56.0854551,43.9457007 56.6691308,44.77126 57.5017013,45.1235688 C57.7803934,45.2410051 58.0853771,45.305858 58.4061358,45.305858 C59.6891708,45.305858 60.7303221,44.2664594 60.7303221,42.9816716 C60.7303221,41.7003895 59.6891708,40.6592381 58.4061358,40.6592381 L58.4061358,40.6592381 Z M58.4061358,52.2749113 C58.0853771,52.2749113 57.7803934,52.3397642 57.5017013,52.4572004 C57.0845397,52.6342312 56.7304781,52.9286983 56.4798306,53.3002876 C56.2309358,53.6701242 56.0854551,54.1170831 56.0854551,54.5990976 C56.0854551,55.5613739 56.6691308,56.3869332 57.5017013,56.739242 C57.7803934,56.8566783 58.0853771,56.9215311 58.4061358,56.9215311 C59.6891708,56.9215311 60.7303221,55.8821326 60.7303221,54.5990976 C60.7303221,54.1170831 60.5830886,53.6701242 60.3324411,53.3002876 C59.9152794,52.6815563 59.2071563,52.2749113 58.4061358,52.2749113 L58.4061358,52.2749113 Z M64.2148488,34.8505251 C62.9318138,34.8505251 61.8924153,35.8916765 61.8924153,37.1729587 C61.8924153,38.4577464 62.9318138,39.497145 64.2148488,39.497145 C65.4996366,39.497145 66.5390351,38.4577464 66.5390351,37.1729587 C66.5390351,35.8916765 65.4996366,34.8505251 64.2148488,34.8505251 L64.2148488,34.8505251 Z M75.8322748,34.8505251 C74.5492398,34.8505251 73.5080885,35.8916765 73.5080885,37.1729587 C73.5080885,38.4577464 74.5492398,39.497145 75.8322748,39.497145 C77.1153098,39.497145 78.1547083,38.4577464 78.1547083,37.1729587 C78.1547083,35.8916765 77.1153098,34.8505251 75.8322748,34.8505251 L75.8322748,34.8505251 Z M64.2148488,46.4661983 C62.9318138,46.4661983 61.8924153,47.5073497 61.8924153,48.7903846 C61.8924153,50.0734196 62.9318138,51.1128182 64.2148488,51.1128182 C65.4996366,51.1128182 66.5390351,50.0734196 66.5390351,48.7903846 C66.5390351,47.5073497 65.4996366,46.4661983 64.2148488,46.4661983 L64.2148488,46.4661983 Z M75.8322748,46.4661983 C74.5492398,46.4661983 73.5080885,47.5073497 73.5080885,48.7903846 C73.5080885,50.0734196 74.5492398,51.1128182 75.8322748,51.1128182 C77.1153098,51.1128182 78.1547083,50.0734196 78.1547083,48.7903846 C78.1547083,47.5073497 77.1153098,46.4661983 75.8322748,46.4661983 L75.8322748,46.4661983 Z M70.0235618,40.6592381 C68.7405268,40.6592381 67.6993755,41.7003895 67.6993755,42.9816716 C67.6993755,44.2664594 68.7405268,45.305858 70.0235618,45.305858 C71.3065968,45.305858 72.3477481,44.2664594 72.3477481,42.9816716 C72.3477481,41.7003895 71.3065968,40.6592381 70.0235618,40.6592381 L70.0235618,40.6592381 Z M70.0235618,52.2749113 C69.2207885,52.2749113 68.5144182,52.6815563 68.0972566,53.3002876 C67.846609,53.6701242 67.6993755,54.1170831 67.6993755,54.5990976 C67.6993755,55.8821326 68.7405268,56.9215311 70.0235618,56.9215311 C71.3065968,56.9215311 72.3477481,55.8821326 72.3477481,54.5990976 C72.3477481,54.1170831 72.2005146,53.6701242 71.949867,53.3002876 C71.5327054,52.6815563 70.8245823,52.2749113 70.0235618,52.2749113 L70.0235618,52.2749113 Z M58.4061358,17.4243862 C58.0853771,17.4243862 57.7803934,17.489239 57.5017013,17.6066753 C56.6691308,17.9589841 56.0854551,18.788049 56.0854551,19.7468197 C56.0854551,20.7108487 56.6691308,21.5364081 57.5017013,21.8904697 C57.7803934,22.0061532 58.0853771,22.0727588 58.4061358,22.0727588 C59.6891708,22.0727588 60.7303221,21.0316075 60.7303221,19.7468197 C60.7303221,18.4655375 59.6891708,17.4243862 58.4061358,17.4243862 L58.4061358,17.4243862 Z M58.4061358,29.0418122 C58.0853771,29.0418122 57.7803934,29.106665 57.5017013,29.2241013 C57.0845397,29.4011321 56.7304781,29.6955991 56.4798306,30.0671885 C56.2309358,30.437025 56.0854551,30.883984 56.0854551,31.3659985 C56.0854551,32.3282747 56.6691308,33.1538341 57.5017013,33.5061429 C57.7803934,33.6235791 58.0853771,33.688432 58.4061358,33.688432 C59.6891708,33.688432 60.7303221,32.6490334 60.7303221,31.3659985 C60.7303221,30.883984 60.5830886,30.437025 60.3324411,30.0671885 C59.9152794,29.4484571 59.2071563,29.0418122 58.4061358,29.0418122 L58.4061358,29.0418122 Z M64.2148488,11.617426 C62.9318138,11.617426 61.8924153,12.6568245 61.8924153,13.9381067 C61.8924153,15.2246473 62.9318138,16.2640458 64.2148488,16.2640458 C65.4996366,16.2640458 66.5390351,15.2246473 66.5390351,13.9381067 C66.5390351,12.6568245 65.4996366,11.617426 64.2148488,11.617426 L64.2148488,11.617426 Z M75.8322748,11.617426 C74.5492398,11.617426 73.5080885,12.6568245 73.5080885,13.9381067 C73.5080885,15.2246473 74.5492398,16.2640458 75.8322748,16.2640458 C77.1153098,16.2640458 78.1547083,15.2246473 78.1547083,13.9381067 C78.1547083,12.6568245 77.1153098,11.617426 75.8322748,11.617426 L75.8322748,11.617426 Z M64.2148488,23.2330992 C62.9318138,23.2330992 61.8924153,24.2742505 61.8924153,25.5572855 C61.8924153,26.8403204 62.9318138,27.879719 64.2148488,27.879719 C65.4996366,27.879719 66.5390351,26.8403204 66.5390351,25.5572855 C66.5390351,24.2742505 65.4996366,23.2330992 64.2148488,23.2330992 L64.2148488,23.2330992 Z M75.8322748,23.2330992 C74.5492398,23.2330992 73.5080885,24.2742505 73.5080885,25.5572855 C73.5080885,26.8403204 74.5492398,27.879719 75.8322748,27.879719 C77.1153098,27.879719 78.1547083,26.8403204 78.1547083,25.5572855 C78.1547083,24.2742505 77.1153098,23.2330992 75.8322748,23.2330992 L75.8322748,23.2330992 Z M70.0235618,17.4243862 C68.7405268,17.4243862 67.6993755,18.4655375 67.6993755,19.7468197 C67.6993755,21.0316075 68.7405268,22.0727588 70.0235618,22.0727588 C71.3065968,22.0727588 72.3477481,21.0316075 72.3477481,19.7468197 C72.3477481,18.4655375 71.3065968,17.4243862 70.0235618,17.4243862 L70.0235618,17.4243862 Z M70.0235618,29.0418122 C69.2207885,29.0418122 68.5144182,29.4484571 68.0972566,30.0671885 C67.846609,30.437025 67.6993755,30.883984 67.6993755,31.3659985 C67.6993755,32.6490334 68.7405268,33.688432 70.0235618,33.688432 C71.3065968,33.688432 72.3477481,32.6490334 72.3477481,31.3659985 C72.3477481,30.883984 72.2005146,30.437025 71.949867,30.0671885 C71.5327054,29.4484571 70.8245823,29.0418122 70.0235618,29.0418122 L70.0235618,29.0418122 Z M58.4061358,5.80871299 C58.0853771,5.80871299 57.7803934,5.87181307 57.5017013,5.99100211 C57.0845397,6.16628011 56.7304781,6.46074715 56.4798306,6.8340893 C56.2309358,7.20392588 56.0854551,7.65088479 56.0854551,8.13114651 C56.0854551,9.09517552 56.6691308,9.91898213 57.5017013,10.2730437 C57.7803934,10.39048 58.0853771,10.4553328 58.4061358,10.4553328 C59.6891708,10.4553328 60.7303221,9.41418149 60.7303221,8.13114651 C60.7303221,7.65088479 60.5830886,7.20392588 60.3324411,6.8340893 C59.9152794,6.21535795 59.2071563,5.80871299 58.4061358,5.80871299 L58.4061358,5.80871299 Z M64.2148488,1.42108547e-13 C62.9318138,1.42108547e-13 61.8924153,1.04115133 61.8924153,2.32418631 C61.8924153,3.60722128 62.9318138,4.64661983 64.2148488,4.64661983 C65.4996366,4.64661983 66.5390351,3.60722128 66.5390351,2.32418631 C66.5390351,1.04115133 65.4996366,1.42108547e-13 64.2148488,1.42108547e-13 L64.2148488,1.42108547e-13 Z M75.8322748,1.42108547e-13 C74.5492398,1.42108547e-13 73.5080885,1.04115133 73.5080885,2.32418631 C73.5080885,3.60722128 74.5492398,4.64661983 75.8322748,4.64661983 C77.1153098,4.64661983 78.1547083,3.60722128 78.1547083,2.32418631 C78.1547083,1.04115133 77.1153098,1.42108547e-13 75.8322748,1.42108547e-13 L75.8322748,1.42108547e-13 Z M70.0235618,5.80871299 C69.2207885,5.80871299 68.5144182,6.21535795 68.0972566,6.8340893 C67.846609,7.20392588 67.6993755,7.65088479 67.6993755,8.13114651 C67.6993755,9.41418149 68.7405268,10.4553328 70.0235618,10.4553328 C71.3065968,10.4553328 72.3477481,9.41418149 72.3477481,8.13114651 C72.3477481,7.65088479 72.2005146,7.20392588 71.949867,6.8340893 C71.5327054,6.21535795 70.8245823,5.80871299 70.0235618,5.80871299 L70.0235618,5.80871299 Z M81.6409878,156.824734 C81.3184762,156.824734 81.0134925,156.89134 80.7348005,157.008776 C79.9004772,157.361085 79.3168015,158.188397 79.3168015,159.14892 C79.3168015,160.111196 79.9004772,160.938509 80.7348005,161.290817 C81.0134925,161.408254 81.3184762,161.473107 81.6409878,161.473107 C82.92227,161.473107 83.9651741,160.433708 83.9651741,159.14892 C83.9651741,157.867638 82.92227,156.824734 81.6409878,156.824734 L81.6409878,156.824734 Z M87.447948,151.017774 C86.1666658,151.017774 85.1272672,152.058925 85.1272672,153.340207 C85.1272672,154.626748 86.1666658,155.664394 87.447948,155.664394 C88.7309829,155.664394 89.7721343,154.626748 89.7721343,153.340207 C89.7721343,152.058925 88.7309829,151.017774 87.447948,151.017774 L87.447948,151.017774 Z M87.447948,162.6352 C86.1666658,162.6352 85.1272672,163.676351 85.1272672,164.957633 C85.1272672,165.944448 85.7407402,166.780524 86.6083663,167.118811 L88.0176015,167.118811 L89.44787,163.788529 C89.041225,163.103192 88.3033046,162.6352 87.447948,162.6352 L87.447948,162.6352 Z M90.9324747,159.150673 C90.9324747,159.438129 90.993822,159.708057 91.0867193,159.963963 L92.355732,157.007023 C91.5179032,157.359332 90.9324747,158.188397 90.9324747,159.150673 L90.9324747,159.150673 Z M81.6409878,133.593388 C81.3184762,133.593388 81.0134925,133.65824 80.7348005,133.775677 C79.9004772,134.126233 79.3168015,134.955298 79.3168015,135.915821 C79.3168015,136.87985 79.9004772,137.703657 80.7348005,138.055965 C81.0134925,138.175155 81.3184762,138.240007 81.6409878,138.240007 C82.92227,138.240007 83.9651741,137.200609 83.9651741,135.915821 C83.9651741,134.632786 82.92227,133.593388 81.6409878,133.593388 L81.6409878,133.593388 Z M81.6409878,145.210814 C81.3184762,145.210814 81.0134925,145.273914 80.7348005,145.39135 C80.3193916,145.568381 79.9653301,145.862848 79.7129297,146.234437 C79.4622822,146.604274 79.3168015,147.051233 79.3168015,147.533247 C79.3168015,148.497276 79.9004772,149.321083 80.7348005,149.673391 C81.0134925,149.790828 81.3184762,149.855681 81.6409878,149.855681 C82.92227,149.855681 83.9651741,148.816282 83.9651741,147.533247 C83.9651741,147.051233 83.8179406,146.604274 83.5655402,146.234437 C83.1501314,145.615706 82.4420082,145.210814 81.6409878,145.210814 L81.6409878,145.210814 Z M87.447948,127.784675 C86.1666658,127.784675 85.1272672,128.825826 85.1272672,130.107108 C85.1272672,131.391896 86.1666658,132.431294 87.447948,132.431294 C88.7309829,132.431294 89.7721343,131.391896 89.7721343,130.107108 C89.7721343,128.825826 88.7309829,127.784675 87.447948,127.784675 L87.447948,127.784675 Z M99.0653739,127.784675 C97.782339,127.784675 96.7411876,128.825826 96.7411876,130.107108 C96.7411876,131.391896 97.782339,132.431294 99.0653739,132.431294 C100.348409,132.431294 101.38956,131.391896 101.38956,130.107108 C101.38956,128.825826 100.348409,127.784675 99.0653739,127.784675 L99.0653739,127.784675 Z M87.447948,139.400348 C86.1666658,139.400348 85.1272672,140.441499 85.1272672,141.724534 C85.1272672,143.009322 86.1666658,144.046968 87.447948,144.046968 C88.7309829,144.046968 89.7721343,143.009322 89.7721343,141.724534 C89.7721343,140.441499 88.7309829,139.400348 87.447948,139.400348 L87.447948,139.400348 Z M96.7429404,141.724534 C96.7429404,142.630721 97.2670216,143.408956 98.0242226,143.791062 L99.8453611,139.544076 C99.6017246,139.456437 99.3388076,139.400348 99.0671267,139.400348 C97.782339,139.400348 96.7429404,140.441499 96.7429404,141.724534 L96.7429404,141.724534 Z M93.2584137,133.593388 C91.973626,133.593388 90.9324747,134.632786 90.9324747,135.915821 C90.9324747,137.200609 91.973626,138.240007 93.2584137,138.240007 C94.5396959,138.240007 95.5826,137.200609 95.5826,135.915821 C95.5826,134.632786 94.5396959,133.593388 93.2584137,133.593388 L93.2584137,133.593388 Z M93.2584137,145.210814 C92.4556405,145.210814 91.7475174,145.615706 91.3303557,146.234437 C91.0797082,146.604274 90.9324747,147.051233 90.9324747,147.533247 C90.9324747,148.816282 91.973626,149.855681 93.2584137,149.855681 C94.5396959,149.855681 95.5826,148.816282 95.5826,147.533247 C95.5826,147.051233 95.4336137,146.604274 95.1829662,146.234437 C94.7658046,145.615706 94.0594342,145.210814 93.2584137,145.210814 L93.2584137,145.210814 Z M81.6409878,110.360288 C81.3184762,110.360288 81.0134925,110.425141 80.7348005,110.540825 C79.9004772,110.893134 79.3168015,111.720446 79.3168015,112.682722 C79.3168015,113.646751 79.9004772,114.470558 80.7348005,114.824619 C81.0134925,114.940303 81.3184762,115.005155 81.6409878,115.005155 C82.92227,115.005155 83.9651741,113.965757 83.9651741,112.682722 C83.9651741,111.399687 82.92227,110.360288 81.6409878,110.360288 L81.6409878,110.360288 Z M81.6409878,121.975962 C81.3184762,121.975962 81.0134925,122.040814 80.7348005,122.158251 C80.3193916,122.335281 79.9653301,122.629749 79.7129297,123.001338 C79.4622822,123.371174 79.3168015,123.816381 79.3168015,124.300148 C79.3168015,125.262424 79.9004772,126.087984 80.7348005,126.440292 C81.0134925,126.557729 81.3184762,126.622581 81.6409878,126.622581 C82.92227,126.622581 83.9651741,125.583183 83.9651741,124.300148 C83.9651741,123.816381 83.8179406,123.371174 83.5655402,123.001338 C83.1501314,122.382607 82.4420082,121.975962 81.6409878,121.975962 L81.6409878,121.975962 Z M87.447948,104.549823 C86.1666658,104.549823 85.1272672,105.592727 85.1272672,106.872256 C85.1272672,108.158797 86.1666658,109.198195 87.447948,109.198195 C88.7309829,109.198195 89.7721343,108.158797 89.7721343,106.872256 C89.7721343,105.592727 88.7309829,104.549823 87.447948,104.549823 L87.447948,104.549823 Z M99.0653739,104.549823 C97.782339,104.549823 96.7411876,105.592727 96.7411876,106.872256 C96.7411876,108.158797 97.782339,109.198195 99.0653739,109.198195 C100.348409,109.198195 101.38956,108.158797 101.38956,106.872256 C101.38956,105.592727 100.348409,104.549823 99.0653739,104.549823 L99.0653739,104.549823 Z M87.447948,116.167249 C86.1666658,116.167249 85.1272672,117.2084 85.1272672,118.491435 C85.1272672,119.77447 86.1666658,120.813868 87.447948,120.813868 C88.7309829,120.813868 89.7721343,119.77447 89.7721343,118.491435 C89.7721343,117.2084 88.7309829,116.167249 87.447948,116.167249 L87.447948,116.167249 Z M99.0653739,116.167249 C97.782339,116.167249 96.7411876,117.2084 96.7411876,118.491435 C96.7411876,119.77447 97.782339,120.813868 99.0653739,120.813868 C100.348409,120.813868 101.38956,119.77447 101.38956,118.491435 C101.38956,117.2084 100.348409,116.167249 99.0653739,116.167249 L99.0653739,116.167249 Z M93.2584137,110.360288 C91.973626,110.360288 90.9324747,111.399687 90.9324747,112.682722 C90.9324747,113.965757 91.973626,115.005155 93.2584137,115.005155 C94.5396959,115.005155 95.5826,113.965757 95.5826,112.682722 C95.5826,111.399687 94.5396959,110.360288 93.2584137,110.360288 L93.2584137,110.360288 Z M93.2584137,121.975962 C92.4556405,121.975962 91.7475174,122.382607 91.3303557,123.001338 C91.0797082,123.371174 90.9324747,123.816381 90.9324747,124.300148 C90.9324747,125.583183 91.973626,126.622581 93.2584137,126.622581 C94.5396959,126.622581 95.5826,125.583183 95.5826,124.300148 C95.5826,123.816381 95.4336137,123.371174 95.1829662,123.001338 C94.7658046,122.382607 94.0594342,121.975962 93.2584137,121.975962 L93.2584137,121.975962 Z M81.6409878,87.1254365 C81.3184762,87.1254365 81.0134925,87.1902893 80.7348005,87.3077256 C79.9004772,87.6617871 79.3168015,88.4873465 79.3168015,89.44787 C79.3168015,90.411899 79.9004772,91.2392112 80.7348005,91.5915199 C81.0134925,91.7072034 81.3184762,91.7720563 81.6409878,91.7720563 C82.92227,91.7720563 83.9651741,90.7326577 83.9651741,89.44787 C83.9651741,88.1683406 82.92227,87.1254365 81.6409878,87.1254365 L81.6409878,87.1254365 Z M81.6409878,98.7428624 C81.3184762,98.7428624 81.0134925,98.8077153 80.7348005,98.9233988 C80.3193916,99.1021823 79.9653301,99.3966494 79.7129297,99.7682387 C79.4622822,100.138075 79.3168015,100.585034 79.3168015,101.067049 C79.3168015,102.029325 79.9004772,102.853132 80.7348005,103.207193 C81.0134925,103.324629 81.3184762,103.387729 81.6409878,103.387729 C82.92227,103.387729 83.9651741,102.348331 83.9651741,101.067049 C83.9651741,100.585034 83.8179406,100.138075 83.5655402,99.7682387 C83.1501314,99.1477546 82.4420082,98.7428624 81.6409878,98.7428624 L81.6409878,98.7428624 Z M87.447948,81.3167235 C86.1666658,81.3167235 85.1272672,82.3596276 85.1272672,83.6409098 C85.1272672,84.9239447 86.1666658,85.9650961 87.447948,85.9650961 C88.7309829,85.9650961 89.7721343,84.9239447 89.7721343,83.6409098 C89.7721343,82.3596276 88.7309829,81.3167235 87.447948,81.3167235 L87.447948,81.3167235 Z M99.0653739,81.3167235 C97.782339,81.3167235 96.7411876,82.3596276 96.7411876,83.6409098 C96.7411876,84.9239447 97.782339,85.9650961 99.0653739,85.9650961 C100.348409,85.9650961 101.38956,84.9239447 101.38956,83.6409098 C101.38956,82.3596276 100.348409,81.3167235 99.0653739,81.3167235 L99.0653739,81.3167235 Z M87.447948,92.9323967 C86.1666658,92.9323967 85.1272672,93.9753008 85.1272672,95.2583357 C85.1272672,96.5413707 86.1666658,97.5807693 87.447948,97.5807693 C88.7309829,97.5807693 89.7721343,96.5413707 89.7721343,95.2583357 C89.7721343,93.9753008 88.7309829,92.9323967 87.447948,92.9323967 L87.447948,92.9323967 Z M99.0653739,92.9323967 C97.782339,92.9323967 96.7411876,93.9753008 96.7411876,95.2583357 C96.7411876,96.5413707 97.782339,97.5807693 99.0653739,97.5807693 C100.348409,97.5807693 101.38956,96.5413707 101.38956,95.2583357 C101.38956,93.9753008 100.348409,92.9323967 99.0653739,92.9323967 L99.0653739,92.9323967 Z M93.2584137,87.1254365 C91.973626,87.1254365 90.9324747,88.1683406 90.9324747,89.44787 C90.9324747,90.7326577 91.973626,91.7720563 93.2584137,91.7720563 C94.5396959,91.7720563 95.5826,90.7326577 95.5826,89.44787 C95.5826,88.1683406 94.5396959,87.1254365 93.2584137,87.1254365 L93.2584137,87.1254365 Z M93.2584137,98.7428624 C92.4556405,98.7428624 91.7475174,99.1477546 91.3303557,99.7682387 C91.0797082,100.138075 90.9324747,100.585034 90.9324747,101.067049 C90.9324747,102.348331 91.973626,103.387729 93.2584137,103.387729 C94.5396959,103.387729 95.5826,102.348331 95.5826,101.067049 C95.5826,100.585034 95.4336137,100.138075 95.1829662,99.7682387 C94.7658046,99.1477546 94.0594342,98.7428624 93.2584137,98.7428624 L93.2584137,98.7428624 Z M81.6409878,63.8923373 C81.3184762,63.8923373 81.0134925,63.9571901 80.7348005,64.0746264 C79.9004772,64.4269352 79.3168015,65.2542474 79.3168015,66.2147708 C79.3168015,67.1787998 79.9004772,68.0043592 80.7348005,68.356668 C81.0134925,68.4741043 81.3184762,68.5389571 81.6409878,68.5389571 C82.92227,68.5389571 83.9651741,67.4995586 83.9651741,66.2147708 C83.9651741,64.9334886 82.92227,63.8923373 81.6409878,63.8923373 L81.6409878,63.8923373 Z M81.6409878,75.5080105 C81.3184762,75.5080105 81.0134925,75.5746161 80.7348005,75.6902996 C80.3193916,75.8673304 79.9653301,76.1617974 79.7129297,76.5333868 C79.4622822,76.9032234 79.3168015,77.3501823 79.3168015,77.8339496 C79.3168015,78.794473 79.9004772,79.6217852 80.7348005,79.9723412 C81.0134925,80.0897775 81.3184762,80.1546303 81.6409878,80.1546303 C82.92227,80.1546303 83.9651741,79.1169845 83.9651741,77.8339496 C83.9651741,77.3501823 83.8179406,76.9032234 83.5655402,76.5333868 C83.1501314,75.9146554 82.4420082,75.5080105 81.6409878,75.5080105 L81.6409878,75.5080105 Z M87.447948,58.0836243 C86.1666658,58.0836243 85.1272672,59.1247756 85.1272672,60.4060578 C85.1272672,61.6908456 86.1666658,62.7302441 87.447948,62.7302441 C88.7309829,62.7302441 89.7721343,61.6908456 89.7721343,60.4060578 C89.7721343,59.1247756 88.7309829,58.0836243 87.447948,58.0836243 L87.447948,58.0836243 Z M99.0653739,58.0836243 C97.782339,58.0836243 96.7411876,59.1247756 96.7411876,60.4060578 C96.7411876,61.6908456 97.782339,62.7302441 99.0653739,62.7302441 C100.348409,62.7302441 101.38956,61.6908456 101.38956,60.4060578 C101.38956,59.1247756 100.348409,58.0836243 99.0653739,58.0836243 L99.0653739,58.0836243 Z M87.447948,69.6992975 C86.1666658,69.6992975 85.1272672,70.7422016 85.1272672,72.0252366 C85.1272672,73.3082716 86.1666658,74.3459173 87.447948,74.3459173 C88.7309829,74.3459173 89.7721343,73.3082716 89.7721343,72.0252366 C89.7721343,70.7422016 88.7309829,69.6992975 87.447948,69.6992975 L87.447948,69.6992975 Z M99.0653739,69.6992975 C97.782339,69.6992975 96.7411876,70.7422016 96.7411876,72.0252366 C96.7411876,73.3082716 97.782339,74.3459173 99.0653739,74.3459173 C100.348409,74.3459173 101.38956,73.3082716 101.38956,72.0252366 C101.38956,70.7422016 100.348409,69.6992975 99.0653739,69.6992975 L99.0653739,69.6992975 Z M93.2584137,63.8923373 C91.973626,63.8923373 90.9324747,64.9334886 90.9324747,66.2147708 C90.9324747,67.4995586 91.973626,68.5389571 93.2584137,68.5389571 C94.5396959,68.5389571 95.5826,67.4995586 95.5826,66.2147708 C95.5826,64.9334886 94.5396959,63.8923373 93.2584137,63.8923373 L93.2584137,63.8923373 Z M93.2584137,75.5080105 C92.4556405,75.5080105 91.7475174,75.9146554 91.3303557,76.5333868 C91.0797082,76.9032234 90.9324747,77.3501823 90.9324747,77.8339496 C90.9324747,79.1169845 91.973626,80.1546303 93.2584137,80.1546303 C94.5396959,80.1546303 95.5826,79.1169845 95.5826,77.8339496 C95.5826,77.3501823 95.4336137,76.9032234 95.1829662,76.5333868 C94.7658046,75.9146554 94.0594342,75.5080105 93.2584137,75.5080105 L93.2584137,75.5080105 Z M102.551653,31.3800207 C102.555159,32.0303021 102.82684,32.6139778 103.263282,33.0328923 L102.551653,31.3800207 Z M81.6409878,40.6592381 C81.3184762,40.6592381 81.0134925,40.724091 80.7348005,40.8415272 C79.9004772,41.193836 79.3168015,42.0211482 79.3168015,42.9816716 C79.3168015,43.9457007 79.9004772,44.77126 80.7348005,45.1235688 C81.0134925,45.2410051 81.3184762,45.305858 81.6409878,45.305858 C82.92227,45.305858 83.9651741,44.2664594 83.9651741,42.9816716 C83.9651741,41.7003895 82.92227,40.6592381 81.6409878,40.6592381 L81.6409878,40.6592381 Z M81.6409878,52.2749113 C81.3184762,52.2749113 81.0134925,52.3397642 80.7348005,52.4572004 C80.3193916,52.6342312 79.9653301,52.9286983 79.7129297,53.3002876 C79.4622822,53.6701242 79.3168015,54.1170831 79.3168015,54.5990976 C79.3168015,55.5613739 79.9004772,56.3869332 80.7348005,56.739242 C81.0134925,56.8566783 81.3184762,56.9215311 81.6409878,56.9215311 C82.92227,56.9215311 83.9651741,55.8821326 83.9651741,54.5990976 C83.9651741,54.1170831 83.8179406,53.6701242 83.5655402,53.3002876 C83.1501314,52.6815563 82.4420082,52.2749113 81.6409878,52.2749113 L81.6409878,52.2749113 Z M87.447948,34.8505251 C86.1666658,34.8505251 85.1272672,35.8916765 85.1272672,37.1729587 C85.1272672,38.4577464 86.1666658,39.497145 87.447948,39.497145 C88.7309829,39.497145 89.7721343,38.4577464 89.7721343,37.1729587 C89.7721343,35.8916765 88.7309829,34.8505251 87.447948,34.8505251 L87.447948,34.8505251 Z M99.0653739,34.8505251 C97.782339,34.8505251 96.7411876,35.8916765 96.7411876,37.1729587 C96.7411876,38.4577464 97.782339,39.497145 99.0653739,39.497145 C100.348409,39.497145 101.38956,38.4577464 101.38956,37.1729587 C101.38956,35.8916765 100.348409,34.8505251 99.0653739,34.8505251 L99.0653739,34.8505251 Z M87.447948,46.4661983 C86.1666658,46.4661983 85.1272672,47.5073497 85.1272672,48.7903846 C85.1272672,50.0734196 86.1666658,51.1128182 87.447948,51.1128182 C88.7309829,51.1128182 89.7721343,50.0734196 89.7721343,48.7903846 C89.7721343,47.5073497 88.7309829,46.4661983 87.447948,46.4661983 L87.447948,46.4661983 Z M99.0653739,46.4661983 C97.782339,46.4661983 96.7411876,47.5073497 96.7411876,48.7903846 C96.7411876,50.0734196 97.782339,51.1128182 99.0653739,51.1128182 C100.348409,51.1128182 101.38956,50.0734196 101.38956,48.7903846 C101.38956,47.5073497 100.348409,46.4661983 99.0653739,46.4661983 L99.0653739,46.4661983 Z M93.2584137,40.6592381 C91.973626,40.6592381 90.9324747,41.7003895 90.9324747,42.9816716 C90.9324747,44.2664594 91.973626,45.305858 93.2584137,45.305858 C94.5396959,45.305858 95.5826,44.2664594 95.5826,42.9816716 C95.5826,41.7003895 94.5396959,40.6592381 93.2584137,40.6592381 L93.2584137,40.6592381 Z M93.2584137,52.2749113 C92.4556405,52.2749113 91.7475174,52.6815563 91.3303557,53.3002876 C91.0797082,53.6701242 90.9324747,54.1170831 90.9324747,54.5990976 C90.9324747,55.8821326 91.973626,56.9215311 93.2584137,56.9215311 C94.5396959,56.9215311 95.5826,55.8821326 95.5826,54.5990976 C95.5826,54.1170831 95.4336137,53.6701242 95.1829662,53.3002876 C94.7658046,52.6815563 94.0594342,52.2749113 93.2584137,52.2749113 L93.2584137,52.2749113 Z M93.2584137,10.4553328 C93.3618278,10.4553328 93.4617362,10.437805 93.5633975,10.4237828 L92.5800879,8.13289929 L91.8071119,6.32928865 C91.6265755,6.47652217 91.4600614,6.63953072 91.3303557,6.83233652 C91.0797082,7.20392588 90.9324747,7.65088479 90.9324747,8.13289929 C90.9324747,9.41593427 91.973626,10.4553328 93.2584137,10.4553328 L93.2584137,10.4553328 Z M81.6409878,17.4243862 C81.3184762,17.4243862 81.0134925,17.489239 80.7348005,17.6066753 C79.9004772,17.9589841 79.3168015,18.788049 79.3168015,19.7468197 C79.3168015,20.7108487 79.9004772,21.5364081 80.7348005,21.8904697 C81.0134925,22.0061532 81.3184762,22.0727588 81.6409878,22.0727588 C82.92227,22.0727588 83.9651741,21.0316075 83.9651741,19.7468197 C83.9651741,18.4655375 82.92227,17.4243862 81.6409878,17.4243862 L81.6409878,17.4243862 Z M81.6409878,29.0418122 C81.3184762,29.0418122 81.0134925,29.106665 80.7348005,29.2241013 C80.3193916,29.4011321 79.9653301,29.6955991 79.7129297,30.0671885 C79.4622822,30.437025 79.3168015,30.883984 79.3168015,31.3659985 C79.3168015,32.3282747 79.9004772,33.1538341 80.7348005,33.5061429 C81.0134925,33.6235791 81.3184762,33.688432 81.6409878,33.688432 C82.92227,33.688432 83.9651741,32.6490334 83.9651741,31.3659985 C83.9651741,30.883984 83.8179406,30.437025 83.5655402,30.0671885 C83.1501314,29.4484571 82.4420082,29.0418122 81.6409878,29.0418122 L81.6409878,29.0418122 Z M87.447948,11.617426 C86.1666658,11.617426 85.1272672,12.6568245 85.1272672,13.9381067 C85.1272672,15.2246473 86.1666658,16.2640458 87.447948,16.2640458 C88.7309829,16.2640458 89.7721343,15.2246473 89.7721343,13.9381067 C89.7721343,12.6568245 88.7309829,11.617426 87.447948,11.617426 L87.447948,11.617426 Z M87.447948,23.2330992 C86.1666658,23.2330992 85.1272672,24.2742505 85.1272672,25.5572855 C85.1272672,26.8403204 86.1666658,27.879719 87.447948,27.879719 C88.7309829,27.879719 89.7721343,26.8403204 89.7721343,25.5572855 C89.7721343,24.2742505 88.7309829,23.2330992 87.447948,23.2330992 L87.447948,23.2330992 Z M99.0653739,27.879719 C99.726172,27.879719 100.318612,27.601027 100.741032,27.1593264 L99.0583628,23.2330992 C97.7788334,23.2383575 96.7411876,24.2760033 96.7411876,25.5572855 C96.7411876,26.8403204 97.782339,27.879719 99.0653739,27.879719 L99.0653739,27.879719 Z M93.2584137,17.4243862 C91.973626,17.4243862 90.9324747,18.4655375 90.9324747,19.7468197 C90.9324747,21.0316075 91.973626,22.0727588 93.2584137,22.0727588 C94.5396959,22.0727588 95.5826,21.0316075 95.5826,19.7468197 C95.5826,18.4655375 94.5396959,17.4243862 93.2584137,17.4243862 L93.2584137,17.4243862 Z M93.2584137,29.0418122 C92.4556405,29.0418122 91.7475174,29.4484571 91.3303557,30.0671885 C91.0797082,30.437025 90.9324747,30.883984 90.9324747,31.3659985 C90.9324747,32.6490334 91.973626,33.688432 93.2584137,33.688432 C94.5396959,33.688432 95.5826,32.6490334 95.5826,31.3659985 C95.5826,30.883984 95.4336137,30.437025 95.1829662,30.0671885 C94.7658046,29.4484571 94.0594342,29.0418122 93.2584137,29.0418122 L93.2584137,29.0418122 Z M81.6409878,5.80871299 C81.3184762,5.80871299 81.0134925,5.87181307 80.7348005,5.99100211 C80.3193916,6.16628011 79.9653301,6.46074715 79.7129297,6.8340893 C79.4622822,7.20392588 79.3168015,7.65088479 79.3168015,8.13114651 C79.3168015,9.09517552 79.9004772,9.91898213 80.7348005,10.2730437 C81.0134925,10.39048 81.3184762,10.4553328 81.6409878,10.4553328 C82.92227,10.4553328 83.9651741,9.41418149 83.9651741,8.13114651 C83.9651741,7.65088479 83.8179406,7.20392588 83.5655402,6.8340893 C83.1501314,6.21535795 82.4420082,5.80871299 81.6409878,5.80871299 L81.6409878,5.80871299 Z M87.447948,1.42108547e-13 C86.1666658,1.42108547e-13 85.1272672,1.04115133 85.1272672,2.32418631 C85.1272672,3.60722128 86.1666658,4.64661983 87.447948,4.64661983 C88.7309829,4.64661983 89.7721343,3.60722128 89.7721343,2.32418631 C89.7721343,1.04115133 88.7309829,1.42108547e-13 87.447948,1.42108547e-13 L87.447948,1.42108547e-13 Z M104.872334,110.360288 C104.553328,110.360288 104.248344,110.425141 103.969652,110.540825 C103.135329,110.893134 102.551653,111.720446 102.551653,112.682722 C102.551653,113.646751 103.135329,114.470558 103.969652,114.824619 C104.248344,114.940303 104.553328,115.005155 104.872334,115.005155 C106.157122,115.005155 107.198273,113.965757 107.198273,112.682722 C107.198273,111.399687 106.157122,110.360288 104.872334,110.360288 L104.872334,110.360288 Z M104.872334,121.975962 C104.553328,121.975962 104.248344,122.040814 103.969652,122.158251 C103.552491,122.335281 103.196676,122.629749 102.947782,123.001338 C102.697134,123.371174 102.551653,123.816381 102.551653,124.300148 C102.551653,125.262424 103.135329,126.087984 103.969652,126.440292 C104.248344,126.557729 104.553328,126.622581 104.872334,126.622581 C105.063387,126.622581 105.242171,126.592784 105.419202,126.55247 L106.384983,124.300148 L106.879267,123.146819 C106.851223,123.099494 106.831942,123.04691 106.800392,123.001338 C106.383231,122.382607 105.675107,121.975962 104.872334,121.975962 L104.872334,121.975962 Z M110.6828,104.549823 C109.399765,104.549823 108.360366,105.592727 108.360366,106.872256 C108.360366,108.158797 109.399765,109.198195 110.6828,109.198195 C111.964082,109.198195 113.006986,108.158797 113.006986,106.872256 C113.006986,105.592727 111.964082,104.549823 110.6828,104.549823 L110.6828,104.549823 Z M108.358614,118.489682 C108.358614,118.784149 108.418208,119.064594 108.519869,119.324005 L109.797646,116.344279 C108.954559,116.693083 108.358614,117.522148 108.358614,118.489682 L108.358614,118.489682 Z M104.872334,87.1254365 C104.553328,87.1254365 104.248344,87.1902893 103.969652,87.3077256 C103.135329,87.6617871 102.551653,88.4873465 102.551653,89.44787 C102.551653,90.411899 103.135329,91.2392112 103.969652,91.5915199 C104.248344,91.7072034 104.553328,91.7720563 104.872334,91.7720563 C106.157122,91.7720563 107.198273,90.7326577 107.198273,89.44787 C107.198273,88.1683406 106.157122,87.1254365 104.872334,87.1254365 L104.872334,87.1254365 Z M104.872334,98.7428624 C104.553328,98.7428624 104.248344,98.8077153 103.969652,98.9233988 C103.552491,99.1021823 103.196676,99.3966494 102.947782,99.7682387 C102.697134,100.138075 102.551653,100.585034 102.551653,101.067049 C102.551653,102.029325 103.135329,102.853132 103.969652,103.207193 C104.248344,103.324629 104.553328,103.387729 104.872334,103.387729 C106.157122,103.387729 107.198273,102.348331 107.198273,101.067049 C107.198273,100.585034 107.05104,100.138075 106.800392,99.7682387 C106.383231,99.1477546 105.675107,98.7428624 104.872334,98.7428624 L104.872334,98.7428624 Z M110.6828,81.3167235 C109.399765,81.3167235 108.360366,82.3596276 108.360366,83.6409098 C108.360366,84.9239447 109.399765,85.9650961 110.6828,85.9650961 C111.964082,85.9650961 113.006986,84.9239447 113.006986,83.6409098 C113.006986,82.3596276 111.964082,81.3167235 110.6828,81.3167235 L110.6828,81.3167235 Z M122.298473,81.3167235 C121.015438,81.3167235 119.974287,82.3596276 119.974287,83.6409098 C119.974287,84.9239447 121.015438,85.9650961 122.298473,85.9650961 C122.493032,85.9650961 122.682332,85.9317933 122.861115,85.8879738 L124.312417,82.5051083 C123.914536,81.798738 123.166099,81.3167235 122.298473,81.3167235 L122.298473,81.3167235 Z M110.6828,92.9323967 C109.399765,92.9323967 108.360366,93.9753008 108.360366,95.2583357 C108.360366,96.5413707 109.399765,97.5807693 110.6828,97.5807693 C111.964082,97.5807693 113.006986,96.5413707 113.006986,95.2583357 C113.006986,93.9753008 111.964082,92.9323967 110.6828,92.9323967 L110.6828,92.9323967 Z M116.48976,87.1254365 C115.208478,87.1254365 114.165574,88.1683406 114.165574,89.44787 C114.165574,90.7326577 115.208478,91.7720563 116.48976,91.7720563 C117.774548,91.7720563 118.815699,90.7326577 118.815699,89.44787 C118.815699,88.1683406 117.774548,87.1254365 116.48976,87.1254365 L116.48976,87.1254365 Z M114.565208,99.766486 C114.312807,100.139828 114.167327,100.586787 114.167327,101.065296 C114.167327,101.976742 114.696666,102.758481 115.460878,103.140587 L116.351291,101.065296 L117.285522,98.8900959 C117.034875,98.7989514 116.771958,98.7411096 116.48976,98.7411096 C115.68874,98.7411096 114.980617,99.1477546 114.565208,99.766486 L114.565208,99.766486 Z M104.872334,63.8923373 C104.553328,63.8923373 104.248344,63.9571901 103.969652,64.0746264 C103.135329,64.4269352 102.551653,65.2542474 102.551653,66.2147708 C102.551653,67.1787998 103.135329,68.0043592 103.969652,68.356668 C104.248344,68.4741043 104.553328,68.5389571 104.872334,68.5389571 C106.157122,68.5389571 107.198273,67.4995586 107.198273,66.2147708 C107.198273,64.9334886 106.157122,63.8923373 104.872334,63.8923373 L104.872334,63.8923373 Z M104.872334,75.5080105 C104.553328,75.5080105 104.248344,75.5746161 103.969652,75.6902996 C103.552491,75.8673304 103.196676,76.1617974 102.947782,76.5333868 C102.697134,76.9032234 102.551653,77.3501823 102.551653,77.8339496 C102.551653,78.794473 103.135329,79.6217852 103.969652,79.9723412 C104.248344,80.0897775 104.553328,80.1546303 104.872334,80.1546303 C106.157122,80.1546303 107.198273,79.1169845 107.198273,77.8339496 C107.198273,77.3501823 107.05104,76.9032234 106.800392,76.5333868 C106.383231,75.9146554 105.675107,75.5080105 104.872334,75.5080105 L104.872334,75.5080105 Z M110.6828,58.0836243 C109.399765,58.0836243 108.360366,59.1247756 108.360366,60.4060578 C108.360366,61.6908456 109.399765,62.7302441 110.6828,62.7302441 C111.964082,62.7302441 113.006986,61.6908456 113.006986,60.4060578 C113.006986,59.1247756 111.964082,58.0836243 110.6828,58.0836243 L110.6828,58.0836243 Z M110.6828,69.6992975 C109.399765,69.6992975 108.360366,70.7422016 108.360366,72.0252366 C108.360366,73.3082716 109.399765,74.3459173 110.6828,74.3459173 C111.964082,74.3459173 113.006986,73.3082716 113.006986,72.0252366 C113.006986,70.7422016 111.964082,69.6992975 110.6828,69.6992975 L110.6828,69.6992975 Z M119.977792,72.0042032 C119.977792,72.0112143 119.97604,72.0164727 119.97604,72.0234838 C119.97604,72.691293 120.25999,73.2872382 120.710454,73.711411 L119.977792,72.0042032 Z M116.48976,68.5389571 C117.155817,68.5389571 117.751762,68.2550068 118.175935,67.8062951 L116.498524,63.8940901 C116.495018,63.8940901 116.493266,63.8923373 116.48976,63.8923373 C115.208478,63.8923373 114.165574,64.9334886 114.165574,66.2165236 C114.165574,67.4995586 115.208478,68.5389571 116.48976,68.5389571 L116.48976,68.5389571 Z M116.48976,75.5080105 C115.686987,75.5080105 114.980617,75.9146554 114.565208,76.5333868 C114.312807,76.9032234 114.165574,77.3501823 114.165574,77.8339496 C114.165574,79.1169845 115.208478,80.1546303 116.48976,80.1546303 C117.774548,80.1546303 118.815699,79.1169845 118.815699,77.8339496 C118.815699,77.3501823 118.668466,76.9032234 118.417818,76.5333868 C118.000657,75.9146554 117.290781,75.5080105 116.48976,75.5080105 L116.48976,75.5080105 Z M104.872334,40.6592381 C104.553328,40.6592381 104.248344,40.724091 103.969652,40.8415272 C103.135329,41.193836 102.551653,42.0211482 102.551653,42.9816716 C102.551653,43.9457007 103.135329,44.77126 103.969652,45.1235688 C104.248344,45.2410051 104.553328,45.305858 104.872334,45.305858 C106.157122,45.305858 107.198273,44.2664594 107.198273,42.9816716 C107.198273,41.7003895 106.157122,40.6592381 104.872334,40.6592381 L104.872334,40.6592381 Z M104.872334,52.2749113 C104.553328,52.2749113 104.248344,52.3397642 103.969652,52.4572004 C103.552491,52.6342312 103.196676,52.9286983 102.947782,53.3002876 C102.697134,53.6701242 102.551653,54.1170831 102.551653,54.5990976 C102.551653,55.5613739 103.135329,56.3869332 103.969652,56.739242 C104.248344,56.8566783 104.553328,56.9215311 104.872334,56.9215311 C106.157122,56.9215311 107.198273,55.8821326 107.198273,54.5990976 C107.198273,54.1170831 107.05104,53.6701242 106.800392,53.3002876 C106.383231,52.6815563 105.675107,52.2749113 104.872334,52.2749113 L104.872334,52.2749113 Z M110.6828,51.1128182 C109.399765,51.1128182 108.360366,50.0751724 108.360366,48.7903846 C108.360366,48.0524642 108.70917,47.4039356 109.243768,46.9797629 L111.003559,51.0812681 C110.898392,51.0970431 110.791472,51.1128182 110.6828,51.1128182 L110.6828,51.1128182 Z" id="Fill-1" fill="#C4DBE4"></path>
                        <polygon id="Fill-1" fill="#DBE8EE" points="123.999435 82 142.00933 123.227 123.999435 164.454 167.990376 164.454 185.672891 123.227 167.990376 82"></polygon>
                    </g>
                </g>
            </g>
        </g>
    </g>
</svg>