<svg width="110" height="71" viewBox="0 0 110 71" fill="none" xmlns="http://www.w3.org/2000/svg">
<path d="M2.97043 3.14686L1.16504 3.17236L1.2943 12.3238L3.09969 12.2983L2.97043 3.14686Z" fill="#2E7571"/>
<path d="M26.0566 3.15991H24.2666V13.2151H26.0566V3.15991Z" fill="#2E7571"/>
<path d="M13.6506 43.9564L5.55664 39.2557V30.0254L13.6506 25.3247L21.7913 30.0099V39.2401L13.6506 43.9564ZM6.70847 38.5863L13.6506 42.6178L20.6239 38.5863V30.6947L13.6506 26.6789L6.70847 30.6947V38.5863Z" fill="#2E7571"/>
<path d="M13.6503 44.0345L5.47852 39.287V29.979L13.6503 25.2627L21.8532 29.9945V39.3026L13.6503 44.0345ZM6.786 38.5399L13.6659 42.5402L20.5769 38.5399V30.7261L13.6659 26.7414L6.786 30.7261V38.5399Z" fill="#2E7571"/>
<path d="M13.6513 32.5783L1.29248 25.4027V11.2694L13.6513 5.51025L26.0569 11.2694V25.3871L13.6513 32.5783ZM3.11362 24.3443L13.6513 30.477L24.2513 24.3443V12.4368L13.6513 7.51818L3.11362 12.4368V24.3443Z" fill="#2E7571"/>
<path d="M13.6504 66.0903L1.30713 58.9147V44.8593L13.6504 37.6992L26.056 44.8437V58.8992L13.6504 66.0903ZM3.1127 57.8719L13.6504 63.989L24.2504 57.8563V45.8866L13.6504 39.785L3.1127 45.8866V57.8719Z" fill="#2E7571"/>
<path d="M13.3607 38.2466L1.90967 44.8738L2.49442 45.8842L13.9454 39.257L13.3607 38.2466Z" fill="#2E7571"/>
<path d="M24.8643 57.8697L13.3594 64.5281L13.9441 65.5385L25.449 58.8801L24.8643 57.8697Z" fill="#2E7571"/>
<path d="M1.97679 3.95359C0.887222 3.95359 0 3.06637 0 1.97679C0 0.887222 0.887222 0 1.97679 0C3.06637 0 3.95359 0.887222 3.95359 1.97679C3.95359 3.06637 3.06637 3.95359 1.97679 3.95359ZM1.97679 1.1674C1.5254 1.1674 1.1674 1.5254 1.1674 1.97679C1.1674 2.42819 1.5254 2.78619 1.97679 2.78619C2.42819 2.78619 2.78619 2.42819 2.78619 1.97679C2.78619 1.5254 2.42819 1.1674 1.97679 1.1674Z" fill="#2E7571"/>
<path d="M25.2473 3.95359C24.1577 3.95359 23.2705 3.06637 23.2705 1.97679C23.2705 0.887222 24.1577 0 25.2473 0C26.3369 0 27.2241 0.887222 27.2241 1.97679C27.2241 3.06637 26.3369 3.95359 25.2473 3.95359ZM25.2473 1.1674C24.7959 1.1674 24.4379 1.5254 24.4379 1.97679C24.4379 2.42819 24.7959 2.78619 25.2473 2.78619C25.6987 2.78619 26.0567 2.42819 26.0567 1.97679C26.0567 1.5254 25.6831 1.1674 25.2473 1.1674Z" fill="#2E7571"/>
<path d="M2.19506 70.9155C1.10548 70.9155 0.218262 70.0283 0.218262 68.9387C0.218262 67.8491 1.10548 66.9619 2.19506 66.9619C3.28463 66.9619 4.17185 67.8491 4.17185 68.9387C4.17185 70.0283 3.28463 70.9155 2.19506 70.9155ZM2.19506 68.1137C1.74366 68.1137 1.38566 68.4717 1.38566 68.9231C1.38566 69.3745 1.74366 69.7325 2.19506 69.7325C2.64645 69.7325 3.00445 69.3745 3.00445 68.9231C3.00445 68.4717 2.64645 68.1137 2.19506 68.1137Z" fill="#2E7571"/>
<path d="M25.2473 70.9155C24.1577 70.9155 23.2705 70.0283 23.2705 68.9387C23.2705 67.8491 24.1577 66.9619 25.2473 66.9619C26.3369 66.9619 27.2241 67.8491 27.2241 68.9387C27.2241 70.0283 26.3369 70.9155 25.2473 70.9155ZM25.2473 68.1137C24.7959 68.1137 24.4379 68.4717 24.4379 68.9231C24.4379 69.3745 24.7959 69.7325 25.2473 69.7325C25.6987 69.7325 26.0567 69.3745 26.0567 68.9231C26.0567 68.4717 25.6831 68.1137 25.2473 68.1137Z" fill="#2E7571"/>
<path d="M24.25 68.1293V57.6849L26.0556 57.6538V68.1137L24.25 68.1293Z" fill="#2E7571"/>
<path d="M3.08249 56.7666H1.29248V68.1137H3.08249V56.7666Z" fill="#2E7571"/>
<path d="M14.1951 48.0344L13.6191 47.0382L25.1219 40.3762L25.8223 41.388L14.1951 48.0344Z" fill="#2E7571"/>
<path d="M24.6549 41.2949L24.5615 29.9633L25.8223 29.9478V41.3883L24.6549 41.2949Z" fill="#2E7571"/>
<path d="M2.45923 28.936L1.75879 27.9398L13.3861 21.2778L13.962 22.2896L2.45923 28.936Z" fill="#2E7571"/>
<path d="M1.85218 39.3646L1.75879 27.9397L2.92619 28.0175L3.01958 39.3491L1.85218 39.3646Z" fill="#2E7571"/>
<path d="M45.4192 22.8498C46.1975 23.379 46.7889 24.1105 47.1936 25.0289C47.5983 25.9473 47.8007 26.959 47.8007 28.0953C47.8007 29.216 47.5983 30.2433 47.1936 31.1616C46.7889 32.08 46.1975 32.796 45.4192 33.3408C44.6409 33.87 43.707 34.1502 42.633 34.1502H38.5082C38.2125 34.1502 37.9634 34.0568 37.7611 33.8544C37.5587 33.6521 37.4653 33.403 37.4653 33.1073V23.1299C37.4653 22.8342 37.5587 22.5851 37.7611 22.3828C37.9634 22.1804 38.2125 22.0871 38.5082 22.0871H42.633C43.707 22.0404 44.6409 22.305 45.4192 22.8498ZM44.781 30.9904C45.2947 30.2277 45.5593 29.2627 45.5593 28.0797C45.5593 26.9123 45.2947 25.9317 44.781 25.169C44.2518 24.4063 43.4891 24.0172 42.4618 24.0172H39.6133V32.1267H42.4618C43.4891 32.1422 44.2674 31.7531 44.781 30.9904Z" fill="#19263E"/>
<path d="M52.2372 33.8235C52.0192 34.0259 51.7702 34.1193 51.4745 34.1193C51.1631 34.1193 50.9141 34.0259 50.7118 33.8235C50.5094 33.6212 50.416 33.3721 50.416 33.0764V23.099C50.416 22.8033 50.525 22.5542 50.7273 22.3519C50.9297 22.1495 51.1943 22.0562 51.5211 22.0562C51.8013 22.0562 52.0504 22.1495 52.2683 22.3519C52.4706 22.5542 52.5796 22.8033 52.5796 23.099V33.0764C52.564 33.3721 52.4551 33.6212 52.2372 33.8235Z" fill="#19263E"/>
<path d="M65.3451 27.8929C65.5474 28.0953 65.6408 28.3443 65.6408 28.64V32.2979C65.6408 32.7026 65.4696 33.0139 65.1116 33.2318C63.9909 33.9323 62.7457 34.2903 61.407 34.2903C60.2708 34.2903 59.2123 34.0101 58.2473 33.4497C57.2822 32.8894 56.5195 32.1422 55.9592 31.1928C55.3988 30.2433 55.1187 29.2004 55.1187 28.0797C55.1187 26.959 55.3988 25.9161 55.9592 24.9666C56.5195 24.0172 57.2822 23.27 58.2473 22.7097C59.2123 22.1493 60.2708 21.8691 61.407 21.8691C62.5433 21.8691 63.5395 22.1026 64.38 22.554C64.5512 22.6474 64.6757 22.7719 64.7691 22.912C64.8625 23.0677 64.8937 23.2233 64.8937 23.3945C64.8937 23.6747 64.8003 23.9393 64.6135 24.1417C64.4267 24.3596 64.1932 24.4685 63.913 24.4685C63.7418 24.4685 63.555 24.4219 63.3371 24.3285C62.7145 24.0638 62.0763 23.9393 61.407 23.9393C60.6755 23.9393 59.9906 24.1261 59.368 24.4997C58.7454 24.8732 58.2473 25.3713 57.8893 26.0095C57.5313 26.6477 57.3445 27.3326 57.3445 28.0797C57.3445 28.8268 57.5313 29.5117 57.8893 30.1499C58.2473 30.7881 58.7454 31.2861 59.368 31.6597C59.9906 32.0333 60.6755 32.2201 61.407 32.2201C61.7339 32.2201 62.0763 32.1889 62.4499 32.1267C62.8235 32.0644 63.1348 32.0022 63.415 31.9088V29.6674H61.7962C61.5004 29.6674 61.2514 29.574 61.049 29.3716C60.8467 29.1693 60.7533 28.9358 60.7533 28.6245C60.7533 28.3287 60.8467 28.0797 61.049 27.8773C61.2514 27.675 61.5004 27.5816 61.7962 27.5816H64.6291C64.8937 27.5972 65.1427 27.6906 65.3451 27.8929Z" fill="#19263E"/>
<path d="M70.2328 33.8235C70.0148 34.0259 69.7658 34.1193 69.4701 34.1193C69.1588 34.1193 68.9097 34.0259 68.7074 33.8235C68.505 33.6212 68.4116 33.3721 68.4116 33.0764V23.099C68.4116 22.8033 68.5206 22.5542 68.7229 22.3519C68.9253 22.1495 69.1899 22.0562 69.5168 22.0562C69.7969 22.0562 70.046 22.1495 70.2639 22.3519C70.4662 22.5542 70.5752 22.8033 70.5752 23.099V33.0764C70.5596 33.3721 70.4507 33.6212 70.2328 33.8235Z" fill="#19263E"/>
<path d="M82.1536 22.3207C82.3559 22.5075 82.4493 22.741 82.4493 23.0523C82.4493 23.348 82.3559 23.5971 82.1536 23.7683C81.9512 23.9395 81.7022 24.0329 81.3909 24.0329H78.6825V33.0763C78.6825 33.3721 78.5736 33.6211 78.3557 33.8235C78.1377 34.0258 77.8731 34.1192 77.5463 34.1192C77.2194 34.1192 76.9548 34.0258 76.7524 33.8235C76.5501 33.6211 76.4411 33.3721 76.4411 33.0763V24.0329H73.7328C73.4214 24.0329 73.1724 23.9395 72.9701 23.7527C72.7677 23.5659 72.6743 23.3324 72.6743 23.0211C72.6743 22.741 72.7677 22.4919 72.9701 22.3207C73.1724 22.1339 73.4214 22.0405 73.7172 22.0405H81.3753C81.7022 22.0405 81.9512 22.1339 82.1536 22.3207Z" fill="#19263E"/>
<path d="M92.708 33.1853C92.708 33.481 92.6146 33.73 92.4123 33.9168C92.2099 34.1036 91.992 34.197 91.743 34.197C91.5406 34.197 91.3538 34.1347 91.1826 34.0102C91.0114 33.8857 90.8869 33.7145 90.7935 33.4966L89.8907 31.4108H84.7541L83.8514 33.5121C83.7735 33.73 83.649 33.9013 83.4778 34.0258C83.3066 34.1503 83.1353 34.2126 82.933 34.2126C82.6373 34.2126 82.4038 34.1347 82.2481 33.9635C82.0925 33.8079 82.0146 33.5899 82.0146 33.3098C82.0146 33.2008 82.0302 33.0919 82.0613 32.9829L86.3574 22.6631C86.4508 22.4296 86.5908 22.2584 86.7776 22.1339C86.9644 22.0094 87.1668 21.9627 87.4002 21.9782C87.6026 21.9782 87.8049 22.0405 87.9762 22.165C88.1474 22.2895 88.2875 22.4608 88.3653 22.6787L92.6146 32.7961C92.6924 32.9206 92.708 33.0607 92.708 33.1853ZM85.6102 29.4184H89.0657L87.3224 25.387L85.6102 29.4184Z" fill="#19263E"/>
<path d="M102.093 32.3915C102.295 32.5783 102.388 32.8273 102.388 33.1231C102.388 33.4033 102.295 33.6523 102.093 33.8391C101.89 34.0259 101.641 34.1193 101.346 34.1193H95.7421C95.4464 34.1193 95.1973 34.0259 94.995 33.8235C94.7926 33.6212 94.6992 33.3721 94.6992 33.0764V23.099C94.6992 22.8033 94.8082 22.5542 95.0105 22.3519C95.2129 22.1495 95.4775 22.0562 95.8044 22.0562C96.0845 22.0562 96.3336 22.1495 96.5515 22.3519C96.7538 22.5542 96.8628 22.8033 96.8628 23.099V32.1113H101.361C101.641 32.0958 101.89 32.1892 102.093 32.3915Z" fill="#19263E"/>
<path d="M43.2569 40.455C43.397 40.5796 43.4592 40.7508 43.4592 40.9687C43.4592 41.1866 43.397 41.3578 43.2569 41.4823C43.1168 41.6069 42.9456 41.6691 42.7121 41.6691H40.782V48.0976C40.782 48.3155 40.7042 48.4867 40.5485 48.6268C40.3929 48.7669 40.2061 48.8447 39.9726 48.8447C39.7391 48.8447 39.5523 48.7669 39.4122 48.6268C39.2722 48.4867 39.1943 48.2999 39.1943 48.0976V41.6691H37.2642C37.0463 41.6691 36.8595 41.6069 36.7194 41.4668C36.5794 41.3423 36.5171 41.171 36.5171 40.9531C36.5171 40.7508 36.5949 40.5796 36.735 40.455C36.8751 40.3305 37.0619 40.2527 37.2642 40.2527H42.7121C42.9456 40.2527 43.1168 40.3149 43.2569 40.455Z" fill="#2E7571"/>
<path d="M39.9874 48.9218C39.7383 48.9218 39.536 48.8439 39.3648 48.6883C39.2091 48.5326 39.1157 48.3303 39.1157 48.0968V41.7462H37.2634C37.03 41.7462 36.8276 41.6683 36.672 41.5283C36.5163 41.3882 36.4385 41.1858 36.4385 40.9523C36.4385 40.7189 36.5163 40.5321 36.672 40.392C36.8276 40.2519 37.03 40.1741 37.2634 40.1741H42.7113C42.9448 40.1741 43.1471 40.2519 43.3028 40.392C43.4584 40.5321 43.5363 40.7344 43.5363 40.9679C43.5363 41.2014 43.4584 41.3882 43.3028 41.5283C43.1471 41.6683 42.9448 41.7462 42.7113 41.7462H40.859V48.0968C40.859 48.3303 40.7656 48.5326 40.5944 48.6883C40.4388 48.8439 40.2364 48.9218 39.9874 48.9218ZM37.279 40.3297C37.0767 40.3297 36.921 40.392 36.7965 40.5009C36.672 40.6099 36.6097 40.7656 36.6097 40.9523C36.6097 41.1391 36.672 41.2948 36.7965 41.4193C36.921 41.5438 37.0767 41.5905 37.279 41.5905H39.2869V48.0968C39.2869 48.2836 39.3492 48.4392 39.4893 48.5793C39.6294 48.7039 39.785 48.7661 40.0029 48.7661C40.2208 48.7661 40.3921 48.7039 40.5322 48.5793C40.6722 48.4548 40.7345 48.2992 40.7345 48.0968V41.5905H42.7424C42.9448 41.5905 43.1004 41.5283 43.225 41.4193C43.3495 41.3103 43.4117 41.1547 43.4117 40.9679C43.4117 40.7811 43.3495 40.6255 43.225 40.5009C43.1004 40.3764 42.9448 40.3297 42.7424 40.3297H37.279Z" fill="#2E7571"/>
<path d="M50.3695 47.6455C50.5096 47.7856 50.5874 47.9568 50.5874 48.1436C50.5874 48.3459 50.5096 48.5171 50.3695 48.6417C50.2294 48.7662 50.0426 48.844 49.8403 48.844H45.731C45.5131 48.844 45.3419 48.7662 45.2018 48.6261C45.0617 48.486 44.9839 48.2992 44.9839 48.0969V40.9991C44.9839 40.7812 45.0617 40.61 45.2018 40.4699C45.3419 40.3298 45.5287 40.252 45.731 40.252H49.8403C50.0582 40.252 50.2294 40.3142 50.3695 40.4543C50.5096 40.5944 50.5874 40.7656 50.5874 40.968C50.5874 41.1703 50.5251 41.3415 50.385 41.466C50.245 41.5906 50.0737 41.6528 49.8403 41.6528H46.5093V43.7386H49.2799C49.4978 43.7386 49.669 43.8008 49.8091 43.9409C49.9492 44.081 50.027 44.2522 50.027 44.4546C50.027 44.6569 49.9648 44.8282 49.8247 44.9527C49.6846 45.0772 49.5134 45.1395 49.2799 45.1395H46.5093V47.412H49.8403C50.0426 47.4276 50.2294 47.5054 50.3695 47.6455Z" fill="#2E7571"/>
<path d="M49.8409 48.9218H45.7317C45.4982 48.9218 45.2959 48.8439 45.1402 48.6883C44.9846 48.5326 44.9067 48.3303 44.9067 48.0968V40.999C44.9067 40.7656 44.9846 40.5632 45.1402 40.4076C45.2959 40.2519 45.4982 40.1741 45.7317 40.1741H49.8409C50.0744 40.1741 50.2768 40.2519 50.4324 40.392C50.5881 40.5476 50.6659 40.7344 50.6659 40.9679C50.6659 41.2014 50.5881 41.3726 50.4324 41.5283C50.2768 41.6683 50.0744 41.7462 49.8409 41.7462H46.5878V43.6763H49.2806C49.5141 43.6763 49.7164 43.7541 49.8721 43.8942C50.0277 44.0498 50.1056 44.2366 50.1056 44.4701C50.1056 44.7036 50.0277 44.8748 49.8721 45.0304C49.7164 45.1705 49.5141 45.2484 49.2806 45.2484H46.5878V47.3652H49.8409C50.0744 47.3652 50.2768 47.4431 50.4324 47.5987C50.5881 47.7544 50.6659 47.9412 50.6659 48.1435C50.6659 48.377 50.5881 48.5638 50.4324 48.7039C50.2612 48.8439 50.0744 48.9218 49.8409 48.9218ZM45.7317 40.3297C45.5449 40.3297 45.3893 40.392 45.2492 40.5165C45.1247 40.641 45.0624 40.7967 45.0624 40.999V48.0968C45.0624 48.2836 45.1247 48.4548 45.2492 48.5793C45.3737 48.7039 45.5294 48.7661 45.7317 48.7661H49.8409C50.0433 48.7661 50.1989 48.7039 50.3235 48.5949C50.448 48.4859 50.5102 48.3303 50.5102 48.1435C50.5102 47.9723 50.448 47.8322 50.3235 47.7077C50.1989 47.5832 50.0433 47.5209 49.8409 47.5209H46.4321V45.0927H49.2806C49.4829 45.0927 49.6386 45.0304 49.7631 44.9215C49.8876 44.8125 49.9499 44.6724 49.9499 44.4857C49.9499 44.2989 49.8876 44.1432 49.7631 44.0187C49.6386 43.8942 49.4829 43.8319 49.2806 43.8319H46.4321V41.5905H49.8409C50.0433 41.5905 50.1989 41.5283 50.3235 41.4193C50.448 41.3103 50.5102 41.1702 50.5102 40.9835C50.5102 40.7967 50.448 40.641 50.3235 40.5165C50.1989 40.392 50.0433 40.3297 49.8409 40.3297H45.7317Z" fill="#2E7571"/>
<path d="M59.3824 48.1757C59.3824 48.3936 59.3202 48.5648 59.1801 48.7049C59.04 48.845 58.8843 48.9072 58.6976 48.9072C58.5575 48.9072 58.4174 48.8605 58.2929 48.7671C58.1683 48.6737 58.0749 48.5492 58.0127 48.3936L57.3745 46.9149H53.7167L53.0785 48.4091C53.0162 48.5648 52.9384 48.6893 52.8139 48.7671C52.6894 48.8605 52.5648 48.8917 52.4247 48.8917C52.2068 48.8917 52.0512 48.8294 51.9422 48.7204C51.8333 48.6115 51.771 48.4558 51.771 48.2535C51.771 48.1757 51.7866 48.0978 51.8021 48.02L54.8529 40.6887C54.9152 40.5175 55.0241 40.393 55.1487 40.3152C55.2732 40.2218 55.4288 40.1906 55.5845 40.2062C55.7246 40.2062 55.8647 40.2529 55.9892 40.3307C56.1137 40.4241 56.2071 40.5331 56.2694 40.6887L59.289 47.8799C59.3669 47.9889 59.3824 48.0978 59.3824 48.1757ZM54.3237 45.4984H56.783L55.5378 42.6344L54.3237 45.4984Z" fill="#2E7571"/>
<path d="M58.6968 48.9841C58.5256 48.9841 58.3855 48.9374 58.2454 48.8284C58.1209 48.735 58.0119 48.5949 57.9496 48.4237L57.327 46.9917H53.7781L53.1555 48.4393C53.0933 48.6105 52.9999 48.735 52.8598 48.8284C52.7353 48.9218 52.5796 48.9685 52.424 48.9685C52.1905 48.9685 52.0037 48.9062 51.8792 48.7661C51.7546 48.6416 51.6924 48.4704 51.6924 48.2525C51.6924 48.1747 51.708 48.0813 51.7391 48.0034L54.7899 40.6566C54.8677 40.4854 54.9611 40.3453 55.1168 40.2364C55.2568 40.143 55.4281 40.0963 55.6148 40.1118C55.7705 40.1118 55.9261 40.1585 56.0662 40.2519C56.2063 40.3453 56.3153 40.4854 56.3775 40.6566L59.3972 47.8478C59.4439 47.9723 59.4595 48.0657 59.4595 48.1747C59.4595 48.4081 59.3816 48.5949 59.226 48.7506C59.0703 48.9062 58.8991 48.9841 58.6968 48.9841ZM53.6692 46.836H57.4204L58.0742 48.3614C58.1364 48.5015 58.2142 48.6105 58.3232 48.7039C58.4322 48.7817 58.5411 48.8284 58.6812 48.8284C58.8369 48.8284 58.9769 48.7661 59.1015 48.6416C59.226 48.5171 59.2883 48.3614 59.2883 48.1747C59.2883 48.0968 59.2727 48.0034 59.226 47.9101L56.2063 40.7189C56.1596 40.5788 56.0662 40.4698 55.9573 40.392C55.8483 40.3142 55.7238 40.2831 55.5837 40.2831C55.4281 40.2675 55.3035 40.2986 55.179 40.3764C55.0545 40.4543 54.9767 40.5788 54.9144 40.7189L51.8636 48.0501C51.848 48.1124 51.8325 48.1902 51.8325 48.2525C51.8325 48.4237 51.8792 48.5638 51.9726 48.6728C52.066 48.7661 52.206 48.8284 52.4084 48.8284C52.5329 48.8284 52.6419 48.7973 52.7508 48.7194C52.8598 48.6416 52.9376 48.5327 52.9843 48.3926L53.6692 46.836ZM56.8912 45.5753H54.1984L55.5214 42.4311L56.8912 45.5753ZM54.4474 45.4352H56.6733L55.5526 42.8358L54.4474 45.4352Z" fill="#2E7571"/>
<path d="M68.7693 40.4543C68.925 40.5944 69.0028 40.7812 69.0028 40.9835V48.0969C69.0028 48.3148 68.9405 48.486 68.8004 48.6261C68.6603 48.7662 68.4736 48.844 68.2556 48.844C68.0377 48.844 67.8354 48.7817 67.6953 48.6417C67.5552 48.5016 67.4774 48.3304 67.4774 48.0969V43.1471L65.4539 46.2446C65.3761 46.338 65.2827 46.4158 65.1737 46.4781C65.0648 46.5403 64.9558 46.5715 64.8468 46.5559C64.7379 46.5715 64.6289 46.5403 64.5355 46.4781C64.4266 46.4158 64.3332 46.338 64.2554 46.2446L62.2319 43.0382V48.0969C62.2319 48.3148 62.1696 48.5016 62.0295 48.6417C61.905 48.7817 61.7338 48.844 61.5159 48.844C61.3135 48.844 61.1423 48.7662 61.0178 48.6261C60.8933 48.486 60.8154 48.2992 60.8154 48.0969V40.9991C60.8154 40.7967 60.8933 40.6255 61.0489 40.4699C61.2046 40.3298 61.3758 40.252 61.5937 40.252C61.7182 40.252 61.8427 40.2831 61.9673 40.3454C62.0918 40.4076 62.1852 40.4854 62.2474 40.5788L64.9247 44.6881L67.6797 40.5788C67.742 40.4854 67.8354 40.4076 67.9443 40.3454C68.0533 40.2831 68.1623 40.252 68.2868 40.252C68.4269 40.2364 68.6136 40.3142 68.7693 40.4543Z" fill="#2E7571"/>
<path d="M68.2241 48.9217C67.9751 48.9217 67.7727 48.8439 67.6171 48.6882C67.4614 48.5326 67.3836 48.3302 67.3836 48.0968V43.4116L65.5002 46.2912C65.4068 46.4001 65.2978 46.4935 65.1889 46.5558C65.0643 46.618 64.9398 46.6492 64.8153 46.6492C64.7063 46.6647 64.5818 46.6336 64.4573 46.5558C64.3483 46.4935 64.2394 46.4001 64.1616 46.3067L62.2782 43.3182V48.0968C62.2782 48.3302 62.2003 48.5326 62.0602 48.6882C61.9202 48.8439 61.7178 48.9217 61.4843 48.9217C61.2508 48.9217 61.0641 48.8439 60.924 48.6882C60.7839 48.5326 60.7061 48.3302 60.7061 48.0968V40.999C60.7061 40.7811 60.7839 40.5787 60.9551 40.4231C61.1263 40.2674 61.3287 40.174 61.5621 40.174C61.7022 40.174 61.8268 40.2051 61.9668 40.2674C62.1069 40.3297 62.2003 40.4231 62.2782 40.532L64.8931 44.5479L67.5704 40.532C67.6482 40.4231 67.7416 40.3297 67.8661 40.2674C67.9906 40.2051 68.1151 40.1584 68.2397 40.1584C68.4576 40.1584 68.6599 40.2363 68.8311 40.3919C69.0024 40.5476 69.0802 40.7499 69.0802 40.9834V48.0968C69.0802 48.3302 69.0024 48.5326 68.8467 48.6882C68.6755 48.8439 68.4731 48.9217 68.2241 48.9217ZM67.5392 42.8979V48.0968C67.5392 48.2991 67.6015 48.4548 67.726 48.5793C67.8505 48.7038 68.0218 48.7661 68.2241 48.7661C68.4264 48.7661 68.5977 48.7038 68.7222 48.5793C68.8467 48.4548 68.909 48.2991 68.909 48.0968V40.999C68.909 40.8122 68.8467 40.6565 68.7066 40.5164C68.5665 40.3919 68.4109 40.3297 68.2241 40.3297C68.1307 40.3297 68.0218 40.3608 67.9284 40.4075C67.835 40.4698 67.7571 40.532 67.6949 40.6254L64.8776 44.828L62.1381 40.6254C62.0758 40.532 61.998 40.4698 61.889 40.4075C61.7801 40.3452 61.6711 40.3297 61.5621 40.3297C61.3754 40.3297 61.2041 40.3919 61.0641 40.532C60.924 40.6721 60.8617 40.8122 60.8617 40.999V48.0968C60.8617 48.2991 60.924 48.4548 61.0329 48.5793C61.1419 48.7038 61.2975 48.7661 61.4843 48.7661C61.6711 48.7661 61.8268 48.7038 61.9513 48.5793C62.0758 48.4548 62.1225 48.2991 62.1225 48.0968V42.7734L64.2861 46.1978C64.3483 46.2756 64.4417 46.3534 64.5351 46.4157C64.6285 46.4624 64.7219 46.4935 64.8153 46.478C64.9243 46.478 65.0176 46.4624 65.111 46.4157C65.2044 46.3534 65.2978 46.2912 65.3756 46.1978L67.5392 42.8979Z" fill="#2E7571"/>
<path d="M79.259 40.4543C79.4147 40.5944 79.4925 40.7812 79.4925 40.9835V48.0969C79.4925 48.3148 79.4303 48.486 79.2902 48.6261C79.1501 48.7662 78.9633 48.844 78.7454 48.844C78.5119 48.844 78.3251 48.7817 78.185 48.6417C78.0449 48.5016 77.9671 48.3304 77.9671 48.0969V43.1471L75.9436 46.2446C75.8658 46.338 75.7724 46.4158 75.6635 46.4781C75.5545 46.5403 75.4455 46.5715 75.3366 46.5559C75.2276 46.5715 75.1187 46.5403 75.0253 46.4781C74.9163 46.4158 74.8229 46.338 74.7451 46.2446L72.7216 43.0382V48.0969C72.7216 48.3148 72.6594 48.5016 72.5193 48.6417C72.3947 48.7817 72.2235 48.844 72.0056 48.844C71.8033 48.844 71.6321 48.7662 71.5075 48.6261C71.383 48.486 71.3052 48.2992 71.3052 48.0969V40.9991C71.3052 40.7967 71.383 40.6255 71.5387 40.4699C71.6943 40.3298 71.8655 40.252 72.0834 40.252C72.208 40.252 72.3325 40.2831 72.457 40.3454C72.5815 40.4076 72.6749 40.4854 72.7372 40.5788L75.4144 44.6881L78.1695 40.5788C78.2317 40.4854 78.3251 40.4076 78.4341 40.3454C78.543 40.2831 78.652 40.252 78.7765 40.252C78.9166 40.2364 79.1034 40.3142 79.259 40.4543Z" fill="#2E7571"/>
<path d="M78.7138 48.9217C78.4648 48.9217 78.2624 48.8439 78.1068 48.6882C77.9511 48.5326 77.8733 48.3302 77.8733 48.0968V43.4116L75.9899 46.2912C75.8965 46.4001 75.8031 46.4935 75.6786 46.5558C75.5541 46.618 75.4296 46.6492 75.305 46.6492C75.1961 46.6647 75.0716 46.6336 74.947 46.5558C74.8381 46.4935 74.7291 46.4001 74.6513 46.3067L72.7679 43.3182V48.0968C72.7679 48.3302 72.6901 48.5326 72.55 48.6882C72.4099 48.8439 72.2075 48.9217 71.9741 48.9217C71.7406 48.9217 71.5538 48.8439 71.4137 48.6882C71.2736 48.5326 71.1958 48.3302 71.1958 48.0968V40.999C71.1958 40.7811 71.2736 40.5787 71.4448 40.4231C71.6161 40.2674 71.8184 40.174 72.0519 40.174C72.192 40.174 72.3165 40.2051 72.4566 40.2674C72.5967 40.3297 72.6901 40.4231 72.7679 40.532L75.3829 44.5479L78.0601 40.532C78.1379 40.4231 78.2313 40.3297 78.3558 40.2674C78.4804 40.2051 78.6049 40.1584 78.7294 40.1584C78.9473 40.1584 79.1497 40.2363 79.3209 40.3919C79.4921 40.5476 79.5699 40.7499 79.5699 40.9834V48.0968C79.5699 48.3302 79.4921 48.5326 79.3365 48.6882C79.1652 48.8439 78.9629 48.9217 78.7138 48.9217ZM78.029 42.8979V48.0968C78.029 48.2991 78.0912 48.4548 78.2157 48.5793C78.3403 48.7038 78.5115 48.7661 78.7138 48.7661C78.9162 48.7661 79.0874 48.7038 79.2119 48.5793C79.3365 48.4548 79.3987 48.2991 79.3987 48.0968V40.999C79.3987 40.8122 79.3364 40.6565 79.1964 40.5164C79.0563 40.3919 78.9006 40.3297 78.7138 40.3297C78.6204 40.3297 78.5115 40.3608 78.4181 40.4075C78.3247 40.4698 78.2313 40.532 78.1846 40.6254L75.3673 44.828L72.6278 40.6254C72.5655 40.532 72.4877 40.4698 72.3788 40.4075C72.2698 40.3452 72.1608 40.3297 72.0519 40.3297C71.8651 40.3297 71.6939 40.3919 71.5538 40.532C71.4137 40.6721 71.3515 40.8122 71.3515 40.999V48.0968C71.3515 48.2991 71.4137 48.4548 71.5227 48.5793C71.6316 48.7038 71.7873 48.7661 71.9741 48.7661C72.1608 48.7661 72.3165 48.7038 72.441 48.5793C72.5655 48.4548 72.6122 48.2991 72.6122 48.0968V42.7734L74.7758 46.1978C74.8381 46.2756 74.9315 46.3534 75.0249 46.4157C75.1183 46.4624 75.2116 46.4935 75.305 46.478C75.414 46.478 75.5074 46.4624 75.6008 46.4157C75.6942 46.3534 75.7876 46.2912 75.8654 46.1978L78.029 42.8979Z" fill="#2E7571"/>
<path d="M88.4733 48.1749C88.4733 48.3928 88.411 48.5641 88.2709 48.7041C88.1308 48.8442 87.9752 48.9065 87.7884 48.9065C87.6483 48.9065 87.5082 48.8598 87.3837 48.7664C87.2592 48.673 87.1658 48.5485 87.1035 48.3928L86.4653 46.9141H82.8075L82.1693 48.4084C82.107 48.5641 82.0292 48.6886 81.9047 48.7664C81.7802 48.8598 81.6556 48.8909 81.5156 48.8909C81.2976 48.8909 81.142 48.8287 81.033 48.7197C80.9241 48.6107 80.8618 48.4551 80.8618 48.2527C80.8618 48.1749 80.8774 48.0971 80.8929 48.0193L83.9437 40.688C84.006 40.5168 84.115 40.3923 84.2395 40.3144C84.364 40.221 84.5197 40.1899 84.6753 40.2055C84.8154 40.2055 84.9555 40.2522 85.08 40.33C85.2045 40.4234 85.2979 40.5324 85.3602 40.688L88.3799 47.8792C88.4577 47.9881 88.4733 48.0971 88.4733 48.1749ZM83.4145 45.4977H85.8738L84.6286 42.6337L83.4145 45.4977Z" fill="#2E7571"/>
<path d="M87.7881 48.9841C87.6169 48.9841 87.4768 48.9374 87.3367 48.8284C87.2122 48.735 87.1032 48.5949 87.0409 48.4237L86.4183 46.9917H82.8694L82.2468 48.4393C82.1846 48.6105 82.0912 48.735 81.9511 48.8284C81.8266 48.9218 81.6709 48.9685 81.5153 48.9685C81.2818 48.9685 81.095 48.9062 80.9705 48.7661C80.846 48.6416 80.7837 48.4548 80.7837 48.2525C80.7837 48.1747 80.7993 48.0813 80.8304 48.0034L83.8812 40.6566C83.959 40.4854 84.068 40.3453 84.2081 40.2364C84.3481 40.143 84.5194 40.0963 84.7062 40.1118C84.8618 40.1118 85.0175 40.1585 85.1575 40.2519C85.2976 40.3453 85.4066 40.4854 85.4689 40.6566L88.4885 47.8478C88.5352 47.9723 88.5508 48.0813 88.5508 48.1747C88.5508 48.4081 88.473 48.5949 88.3173 48.7506C88.1616 48.9062 87.9904 48.9841 87.7881 48.9841ZM82.7605 46.836H86.5117L87.1655 48.3614C87.2277 48.5015 87.3056 48.6105 87.4145 48.7039C87.5235 48.7817 87.6324 48.8284 87.7725 48.8284C87.9282 48.8284 88.0683 48.7661 88.1928 48.6416C88.3173 48.5171 88.3796 48.3614 88.3796 48.1747C88.3796 48.0968 88.364 48.0034 88.3173 47.9101L85.2976 40.7189C85.2509 40.5788 85.1575 40.4698 85.0486 40.392C84.9396 40.3142 84.8151 40.2831 84.675 40.2831C84.5194 40.2675 84.3948 40.2986 84.2703 40.3764C84.1458 40.4543 84.068 40.5788 84.0057 40.7189L80.9549 48.0501C80.9394 48.1124 80.9238 48.1902 80.9238 48.2525C80.9238 48.4237 80.9705 48.5638 81.0639 48.6728C81.1573 48.7661 81.2974 48.8284 81.4997 48.8284C81.6242 48.8284 81.7332 48.7973 81.8421 48.7194C81.9511 48.6416 82.0289 48.5327 82.0756 48.3926L82.7605 46.836ZM85.9825 45.5753H83.2897L84.6128 42.4311L85.9825 45.5753ZM83.5388 45.4352H85.7646L84.6439 42.8358L83.5388 45.4352Z" fill="#2E7571"/>
<path d="M94.9195 40.455C95.0595 40.5796 95.1218 40.7508 95.1218 40.9687C95.1218 41.1866 95.0595 41.3578 94.9195 41.4823C94.7794 41.6069 94.6082 41.6691 94.3747 41.6691H92.4446V48.0976C92.4446 48.3155 92.3668 48.4867 92.2111 48.6268C92.0555 48.7669 91.8687 48.8447 91.6352 48.8447C91.4017 48.8447 91.2149 48.7669 91.0748 48.6268C90.9348 48.4867 90.8569 48.2999 90.8569 48.0976V41.6691H88.9268C88.7089 41.6691 88.5221 41.6069 88.382 41.4668C88.2419 41.3423 88.1797 41.171 88.1797 40.9531C88.1797 40.7508 88.2575 40.5796 88.3976 40.455C88.5377 40.3305 88.7245 40.2527 88.9268 40.2527H94.3747C94.5926 40.2527 94.7794 40.3149 94.9195 40.455Z" fill="#2E7571"/>
<path d="M91.6338 48.9218C91.3848 48.9218 91.1825 48.8439 91.0112 48.6883C90.8556 48.5326 90.7622 48.3303 90.7622 48.0968V41.7462H88.9099C88.6764 41.7462 88.4741 41.6683 88.3184 41.5283C88.1628 41.3882 88.085 41.1858 88.085 40.9523C88.085 40.7189 88.1628 40.5321 88.3184 40.392C88.4741 40.2519 88.6764 40.1741 88.9099 40.1741H94.3578C94.5913 40.1741 94.7936 40.2519 94.9493 40.392C95.1049 40.5321 95.1827 40.7344 95.1827 40.9679C95.1827 41.2014 95.1049 41.3882 94.9493 41.5283C94.7936 41.6683 94.5913 41.7462 94.3578 41.7462H92.5055V48.0968C92.5055 48.3303 92.4121 48.5326 92.2409 48.6883C92.1008 48.8439 91.8829 48.9218 91.6338 48.9218ZM88.9255 40.3297C88.7387 40.3297 88.5675 40.392 88.443 40.5009C88.3184 40.6099 88.2562 40.7656 88.2562 40.9523C88.2562 41.1391 88.3184 41.2948 88.443 41.4193C88.5675 41.5438 88.7231 41.5905 88.9255 41.5905H90.9334V48.0968C90.9334 48.2836 90.9957 48.4392 91.1358 48.5793C91.2758 48.7039 91.4315 48.7661 91.6494 48.7661C91.8673 48.7661 92.0385 48.7039 92.1786 48.5793C92.3187 48.4548 92.381 48.2992 92.381 48.0968V41.5905H94.3889C94.5913 41.5905 94.7469 41.5283 94.8714 41.4193C94.996 41.3103 95.0582 41.1547 95.0582 40.9679C95.0582 40.7811 94.996 40.6255 94.8714 40.5009C94.7469 40.3764 94.5913 40.3297 94.3889 40.3297H88.9255Z" fill="#2E7571"/>
<path d="M102.031 47.6457C102.171 47.7858 102.249 47.957 102.249 48.1438C102.249 48.3462 102.171 48.5174 102.031 48.6419C101.891 48.7664 101.704 48.8442 101.501 48.8442H97.3922C97.1742 48.8442 97.003 48.7664 96.8629 48.6263C96.7228 48.4862 96.645 48.2995 96.645 48.0971V40.9993C96.645 40.7814 96.7228 40.6102 96.8629 40.4701C97.003 40.33 97.1898 40.2522 97.3922 40.2522H101.501C101.719 40.2522 101.891 40.3145 102.031 40.4545C102.171 40.5946 102.249 40.7659 102.249 40.9682C102.249 41.1706 102.186 41.3418 102.046 41.4663C101.906 41.5908 101.735 41.6531 101.501 41.6531H98.1704V43.7388H100.941C101.159 43.7388 101.33 43.8011 101.47 43.9412C101.61 44.0813 101.688 44.2525 101.688 44.4548C101.688 44.6572 101.626 44.8284 101.486 44.9529C101.346 45.0774 101.175 45.1397 100.941 45.1397H98.1704V47.4122H101.501C101.704 47.4278 101.875 47.5056 102.031 47.6457Z" fill="#2E7571"/>
<path d="M101.485 48.9218H97.3762C97.1428 48.9218 96.9404 48.8439 96.7847 48.6883C96.6291 48.5326 96.5513 48.3303 96.5513 48.0968V40.999C96.5513 40.7656 96.6291 40.5632 96.7847 40.4076C96.9404 40.2519 97.1428 40.1741 97.3762 40.1741H101.485C101.719 40.1741 101.921 40.2519 102.077 40.392C102.233 40.5476 102.31 40.7344 102.31 40.9679C102.31 41.2014 102.233 41.3726 102.077 41.5283C101.921 41.6683 101.719 41.7462 101.485 41.7462H98.2323V43.6763H100.925C101.159 43.6763 101.361 43.7541 101.517 43.8942C101.672 44.0498 101.75 44.2366 101.75 44.4701C101.75 44.7036 101.672 44.8748 101.517 45.0304C101.361 45.1705 101.159 45.2484 100.925 45.2484H98.2323V47.3652H101.485C101.719 47.3652 101.921 47.4431 102.077 47.5987C102.233 47.7544 102.31 47.9412 102.31 48.1435C102.31 48.377 102.233 48.5638 102.077 48.7039C101.921 48.8439 101.719 48.9218 101.485 48.9218ZM97.3762 40.3297C97.1895 40.3297 97.0182 40.392 96.8937 40.5165C96.7692 40.641 96.7069 40.7967 96.7069 40.999V48.0968C96.7069 48.2836 96.7692 48.4548 96.8937 48.5793C97.0182 48.7039 97.1739 48.7661 97.3762 48.7661H101.485C101.688 48.7661 101.843 48.7039 101.968 48.5949C102.093 48.4859 102.155 48.3303 102.155 48.1435C102.155 47.9723 102.093 47.8322 101.968 47.7077C101.843 47.5832 101.688 47.5209 101.485 47.5209H98.0767V45.0927H100.925C101.127 45.0927 101.283 45.0304 101.408 44.9215C101.532 44.8125 101.594 44.6724 101.594 44.4857C101.594 44.2989 101.532 44.1432 101.408 44.0187C101.283 43.8942 101.127 43.8319 100.925 43.8319H98.0767V41.5905H101.485C101.688 41.5905 101.843 41.5283 101.968 41.4193C102.093 41.3103 102.155 41.1702 102.155 40.9835C102.155 40.7967 102.093 40.641 101.968 40.5165C101.843 40.392 101.688 40.3297 101.485 40.3297H97.3762Z" fill="#2E7571"/>
<path d="M105.176 48.7514C104.725 48.6113 104.289 48.3622 103.884 48.0042C103.667 47.8019 103.558 47.584 103.558 47.3505C103.558 47.1637 103.62 46.9925 103.76 46.8524C103.9 46.7123 104.071 46.6345 104.258 46.6345C104.414 46.6345 104.554 46.6812 104.678 46.7746C105.005 47.0392 105.332 47.2415 105.628 47.366C105.939 47.4906 106.313 47.5528 106.733 47.5528C107.184 47.5528 107.589 47.4439 107.916 47.2415C108.243 47.0392 108.414 46.7901 108.414 46.4788C108.414 46.1053 108.243 45.8251 107.916 45.6072C107.589 45.4048 107.075 45.2336 106.359 45.1402C104.569 44.8756 103.667 44.0506 103.667 42.6342C103.667 42.1205 103.807 41.6691 104.071 41.2956C104.336 40.922 104.709 40.6263 105.176 40.4239C105.643 40.2216 106.157 40.1282 106.733 40.1282C107.247 40.1282 107.729 40.206 108.181 40.3617C108.632 40.5173 109.005 40.7197 109.317 40.9687C109.55 41.1555 109.675 41.3734 109.675 41.6224C109.675 41.8092 109.613 41.9804 109.472 42.1205C109.332 42.2606 109.177 42.3384 108.974 42.3384C108.85 42.3384 108.741 42.3073 108.647 42.2295C108.43 42.0583 108.134 41.9026 107.76 41.7625C107.387 41.6224 107.044 41.5446 106.733 41.5446C106.219 41.5446 105.815 41.638 105.534 41.8404C105.254 42.0271 105.114 42.2918 105.114 42.5875C105.114 42.9455 105.254 43.2101 105.55 43.3813C105.846 43.5681 106.297 43.7082 106.92 43.8172C107.62 43.9417 108.181 44.0973 108.601 44.2841C109.021 44.4709 109.332 44.7355 109.55 45.0624C109.768 45.3892 109.862 45.8406 109.862 46.3854C109.862 46.8991 109.721 47.3505 109.426 47.7396C109.13 48.1287 108.756 48.4245 108.274 48.6424C107.791 48.8447 107.278 48.9537 106.717 48.9537C106.157 48.9693 105.628 48.8914 105.176 48.7514Z" fill="#2E7571"/>
<path d="M106.746 49.0464C106.155 49.0464 105.61 48.9685 105.159 48.8285C104.692 48.6728 104.256 48.4238 103.851 48.0658C103.618 47.8478 103.493 47.6144 103.493 47.3653C103.493 47.163 103.571 46.9762 103.727 46.8205C103.882 46.6649 104.069 46.587 104.287 46.587C104.458 46.587 104.614 46.6493 104.754 46.7583C105.081 47.0229 105.392 47.2097 105.688 47.3342C105.984 47.4587 106.357 47.5054 106.762 47.5054C107.198 47.5054 107.587 47.412 107.898 47.2097C108.209 47.0229 108.365 46.7894 108.365 46.5092C108.365 46.1668 108.209 45.9022 107.914 45.7154C107.602 45.513 107.089 45.3574 106.388 45.2484C104.567 44.9838 103.633 44.1122 103.633 42.6646C103.633 42.1354 103.773 41.6684 104.054 41.2793C104.334 40.8901 104.707 40.5944 105.19 40.3765C105.657 40.1741 106.202 40.0652 106.777 40.0652C107.291 40.0652 107.789 40.143 108.256 40.2987C108.723 40.4543 109.112 40.6722 109.408 40.9213C109.657 41.1236 109.797 41.3571 109.797 41.6373C109.797 41.8396 109.719 42.0264 109.564 42.1821C109.408 42.3377 109.221 42.4155 109.019 42.4155C108.879 42.4155 108.754 42.3689 108.645 42.291C108.443 42.1198 108.147 41.9642 107.774 41.8241C107.4 41.684 107.073 41.6217 106.777 41.6217C106.279 41.6217 105.89 41.7151 105.626 41.9019C105.361 42.0731 105.236 42.3066 105.236 42.5868C105.236 42.9136 105.361 43.1471 105.641 43.3183C105.921 43.4896 106.373 43.6452 106.98 43.7542C107.68 43.8787 108.256 44.0343 108.692 44.2367C109.128 44.439 109.455 44.7036 109.673 45.0461C109.891 45.3885 109.999 45.8399 109.999 46.4003C109.999 46.9295 109.844 47.3964 109.548 47.8011C109.252 48.2058 108.848 48.5016 108.365 48.7195C107.836 48.9374 107.307 49.0464 106.746 49.0464ZM104.271 46.7116C104.1 46.7116 103.945 46.7738 103.82 46.8984C103.696 47.0229 103.633 47.1785 103.633 47.3342C103.633 47.5521 103.727 47.7389 103.945 47.9257C104.334 48.2681 104.754 48.5171 105.205 48.6572C105.657 48.7973 106.17 48.8751 106.746 48.8751C107.291 48.8751 107.805 48.7662 108.272 48.5638C108.739 48.3615 109.112 48.0658 109.392 47.6922C109.673 47.3186 109.813 46.8828 109.813 46.3847C109.813 45.8555 109.704 45.4197 109.501 45.1083C109.299 44.797 108.988 44.5324 108.583 44.3456C108.163 44.1589 107.602 44.0032 106.918 43.8787C106.295 43.7697 105.812 43.6141 105.517 43.4273C105.205 43.2405 105.05 42.9448 105.05 42.5712C105.05 42.2288 105.205 41.9642 105.501 41.7462C105.797 41.5439 106.217 41.4505 106.746 41.4505C107.058 41.4505 107.416 41.5283 107.805 41.6684C108.194 41.8085 108.505 41.9797 108.723 42.1509C108.801 42.2132 108.894 42.2443 109.003 42.2443C109.174 42.2443 109.315 42.1821 109.439 42.0575C109.564 41.933 109.626 41.7774 109.626 41.6217C109.626 41.4038 109.517 41.2015 109.299 41.0302C109.003 40.7812 108.63 40.5788 108.194 40.4232C107.742 40.2675 107.276 40.1897 106.762 40.1897C106.202 40.1897 105.688 40.2831 105.236 40.4855C104.785 40.6722 104.427 40.968 104.162 41.326C103.898 41.684 103.773 42.1354 103.773 42.6179C103.773 43.9876 104.629 44.7815 106.388 45.0461C107.104 45.155 107.649 45.3107 107.976 45.5286C108.318 45.7465 108.505 46.0578 108.505 46.4625C108.505 46.7894 108.318 47.0696 107.976 47.2875C107.634 47.5054 107.229 47.5988 106.746 47.5988C106.31 47.5988 105.937 47.5365 105.61 47.412C105.299 47.2875 104.956 47.0851 104.629 46.805C104.52 46.7583 104.396 46.7116 104.271 46.7116Z" fill="#2E7571"/>
</svg>
