<?xml version="1.0" encoding="utf-8"?>
<!-- Generator: Adobe Illustrator 26.0.2, SVG Export Plug-In . SVG Version: 6.00 Build 0)  -->
<svg version="1.1" id="Layer_1" xmlns="http://www.w3.org/2000/svg" xmlns:xlink="http://www.w3.org/1999/xlink" x="0px" y="0px"
	 viewBox="0 0 899 1147.4" style="enable-background:new 0 0 899 1147.4;" xml:space="preserve">
<style type="text/css">
	.st0{fill:none;}
	.st1{clip-path:url(#SVGID_00000087370875044648762660000004709672607525921417_);}
	.st2{fill:none;stroke:#279FFF;stroke-width:2;stroke-miterlimit:10;}
	.st3{opacity:0.98;}
	.st4{fill:url(#SVGID_00000121999045780797971450000009804400091138733499_);}
	.st5{fill:#00C5FF;}
	.st6{fill:#FFFFFF;}
	.st7{opacity:0.6;fill:#FF52CA;enable-background:new    ;}
	.st8{fill:#FF52CA;}
	.st9{fill:none;stroke:#FF52CA;stroke-width:4;stroke-linecap:round;stroke-miterlimit:10;}
</style>
<g id="Layer_2_00000138552134047771216020000001291371591022486945_">
	<g id="Layer_1-2">
		<rect x="15.7" y="9.2" class="st0" width="863.4" height="1128.9"/>
		<g>
			<defs>
				<rect id="SVGID_1_" x="9.5" y="1.2" width="875.6" height="1144.9"/>
			</defs>
			<clipPath id="SVGID_00000032634081368051191960000013611432822936472977_">
				<use xlink:href="#SVGID_1_"  style="overflow:visible;"/>
			</clipPath>
			<g style="clip-path:url(#SVGID_00000032634081368051191960000013611432822936472977_);">
				<line class="st2" x1="-437.3" y1="112.8" x2="1221.6" y2="111.8"/>
				<line class="st2" x1="-419.4" y1="189.7" x2="1239.6" y2="188.8"/>
				<line class="st2" x1="-419.4" y1="35.8" x2="1239.5" y2="34.8"/>
				<line class="st2" x1="-20.6" y1="-366.9" x2="-9.2" y2="1562.9"/>
				<line class="st2" x1="56.4" y1="-367.4" x2="67.8" y2="1562.4"/>
				<line class="st2" x1="133.3" y1="-367.8" x2="144.8" y2="1562"/>
				<line class="st2" x1="210.3" y1="-368.3" x2="221.8" y2="1561.5"/>
				<line class="st2" x1="287.3" y1="-368.7" x2="298.8" y2="1561.1"/>
				<line class="st2" x1="364.3" y1="-369.2" x2="375.7" y2="1560.6"/>
				<line class="st2" x1="441.3" y1="-369.7" x2="452.7" y2="1560.2"/>
				<line class="st2" x1="518.3" y1="-370.1" x2="529.7" y2="1559.7"/>
				<line class="st2" x1="595.2" y1="-370.6" x2="606.7" y2="1559.2"/>
				<line class="st2" x1="672.2" y1="-371" x2="683.7" y2="1558.8"/>
				<line class="st2" x1="749.2" y1="-371.5" x2="760.6" y2="1558.3"/>
				<line class="st2" x1="826.2" y1="-371.9" x2="837.6" y2="1557.9"/>
				<line class="st2" x1="902.3" y1="-372.4" x2="913.8" y2="1557.4"/>
				<line class="st2" x1="-431.2" y1="723.5" x2="1227.7" y2="722.5"/>
				<line class="st2" x1="-413.3" y1="800.5" x2="1245.7" y2="799.5"/>
				<line class="st2" x1="-431.3" y1="569.6" x2="1227.6" y2="568.6"/>
				<line class="st2" x1="-413.4" y1="646.5" x2="1245.6" y2="645.5"/>
				<line class="st2" x1="-431.4" y1="415.6" x2="1227.6" y2="414.6"/>
				<line class="st2" x1="-413.4" y1="492.6" x2="1245.5" y2="491.6"/>
				<line class="st2" x1="-431.5" y1="261.6" x2="1227.5" y2="260.6"/>
				<line class="st2" x1="-413.5" y1="338.6" x2="1245.4" y2="337.6"/>
				<line class="st2" x1="-430.6" y1="1028.7" x2="1228.4" y2="1027.7"/>
				<line class="st2" x1="-412.6" y1="1105.7" x2="1246.3" y2="1104.7"/>
				<line class="st2" x1="-430.7" y1="874.7" x2="1228.3" y2="873.7"/>
				<line class="st2" x1="-412.7" y1="951.7" x2="1246.2" y2="950.7"/>
			</g>
		</g>
		<rect x="9.5" y="1" class="st2" width="876" height="1145.4"/>
		<g class="st3">
			<g>
				
					<image style="overflow:visible;enable-background:new    ;" width="97" height="198" xlink:href="A535B434.png"  transform="matrix(1 0 0 1 153 574.37)">
				</image>
			</g>
			<g>
				
					<image style="overflow:visible;enable-background:new    ;" width="86" height="172" xlink:href="A535B435.png"  transform="matrix(1 0 0 1 654.0001 609.37)">
				</image>
			</g>
			<g>
				
					<image style="overflow:visible;enable-background:new    ;" width="246" height="361" xlink:href="A535B433.png"  transform="matrix(1 0 0 1 496 257.37)">
				</image>
			</g>
			<g>
				
					<image style="overflow:visible;enable-background:new    ;" width="301" height="305" xlink:href="A535B43C.png"  transform="matrix(1 0 0 1 161 238.37)">
				</image>
			</g>
			<g>
				
					<image style="overflow:visible;enable-background:new    ;" width="160" height="334" xlink:href="A535B43F.png"  transform="matrix(1 0 0 1 204 343.37)">
				</image>
			</g>
			<g>
				
					<image style="overflow:visible;enable-background:new    ;" width="229" height="121" xlink:href="A535B43D.png"  transform="matrix(1 0 0 1 368 302.37)">
				</image>
			</g>
			<g>
				
					<image style="overflow:visible;enable-background:new    ;" width="128" height="488" xlink:href="A535B432.png"  transform="matrix(1 0 0 1 566 409.37)">
				</image>
			</g>
			<g>
				
					<image style="overflow:visible;enable-background:new    ;" width="85" height="166" xlink:href="A535B436.png"  transform="matrix(1 0 0 1 416 563.37)">
				</image>
			</g>
			<g>
				
					<image style="overflow:visible;enable-background:new    ;" width="90" height="245" xlink:href="A535B437.png"  transform="matrix(1 0 0 1 416 710.37)">
				</image>
			</g>
			<g>
				
					<image style="overflow:visible;enable-background:new    ;" width="73" height="178" xlink:href="E0C30BD3.png"  transform="matrix(1 0 0 1 221 667.37)">
				</image>
			</g>
			<g>
				
					<image style="overflow:visible;enable-background:new    ;" width="147" height="231" xlink:href="E0C30BD1.png"  transform="matrix(1 0 0 1 492 393.37)">
				</image>
			</g>
			<g>
				
					<image style="overflow:visible;enable-background:new    ;" width="231" height="279" xlink:href="E0C30BD7.png"  transform="matrix(1 0 0 1 255 364.37)">
				</image>
			</g>
			<g>
				
					<image style="overflow:visible;enable-background:new    ;" width="82" height="264" xlink:href="E0C30BD2.png"  transform="matrix(1 0 0 1 264 630.37)">
				</image>
			</g>
			<g>
				
					<image style="overflow:visible;enable-background:new    ;" width="177" height="331" xlink:href="E0C30BCD.png"  transform="matrix(1 0 0 1 466 622.37)">
				</image>
			</g>
			<g>
				
					<image style="overflow:visible;enable-background:new    ;" width="229" height="149" xlink:href="E0C30BCE.png"  transform="matrix(1 0 0 1 317 430.37)">
				</image>
			</g>
			<g>
				
					<image style="overflow:visible;enable-background:new    ;" width="93" height="212" xlink:href="E0C30BCF.png"  transform="matrix(1 0 0 1 310 580.37)">
				</image>
			</g>
			<g>
				
					<image style="overflow:visible;enable-background:new    ;" width="83" height="151" xlink:href="E0C30BF1.png"  transform="matrix(1 0 0 1 318 777.37)">
				</image>
			</g>
			<g>
				
					<image style="overflow:visible;enable-background:new    ;" width="88" height="189" xlink:href="E0C30BF3.png"  transform="matrix(1 0 0 1 514 519.37)">
				</image>
			</g>
			<g>
				
					<image style="overflow:visible;enable-background:new    ;" width="82" height="130" xlink:href="E0C30BF6.png"  transform="matrix(1 0 0 1 364 817.37)">
				</image>
			</g>
			<g>
				
					<image style="overflow:visible;enable-background:new    ;" width="77" height="191" xlink:href="E0C30BEA.png"  transform="matrix(1 0 0 1 375 651.37)">
				</image>
			</g>
			<g>
				
					<image style="overflow:visible;enable-background:new    ;" width="200" height="240" xlink:href="E0C30BE9.png"  transform="matrix(1 0 0 1 358 491.37)">
				</image>
			</g>
			<g>
				
					<image style="overflow:visible;enable-background:new    ;" width="85" height="165" xlink:href="E0C30C16.png"  transform="matrix(1 0 0 1 473 711.37)">
				</image>
			</g>
		</g>
		<g>
			
				<linearGradient id="SVGID_00000005956261484494278110000012157400949954611338_" gradientUnits="userSpaceOnUse" x1="447.31" y1="44.84" x2="447.31" y2="719.05" gradientTransform="matrix(1 0 0 -1 0 1191.22)">
				<stop  offset="0.15" style="stop-color:#279FFF"/>
				<stop  offset="1" style="stop-color:#279FFF"/>
			</linearGradient>
			
				<rect x="9.5" y="472.2" style="fill:url(#SVGID_00000005956261484494278110000012157400949954611338_);" width="875.5" height="674.2"/>
		</g>
		<g class="st3">
			<path class="st5" d="M216.1,751.2c-5,0.3-10-3-12.5-9c-16.9-41.3-26.8-85-29.3-129.6c-0.5-8.8,4.8-16.2,11.9-16.6
				s13.3,6.3,13.8,15.1c2.3,40.3,11.3,80,26.6,117.3c3.3,7.9,0.8,17.4-5.6,21.2C219.6,750.5,217.9,751.1,216.1,751.2z"/>
			<path class="st5" d="M689.8,760.1c-1.9,0.1-3.9-0.3-5.6-1.2c-6.7-3.3-10-12.6-7.4-20.7c9.4-30,14.7-61.1,16-92.4
				c0.4-8.8,6.5-15.3,13.6-14.6s12.6,8.3,12.2,17c-1.4,34.7-7.3,69-17.7,102.1C699,756.2,694.6,759.8,689.8,760.1z"/>
			<path class="st5" d="M708.4,596.4c-7.1,0.4-13.3-6.3-13.8-15.1c-7.4-122.6-73.3-229.2-167.9-271.4c-6.8-3-10.4-12.1-8.1-20.4
				s9.6-12.5,16.4-9.5c104.5,46.6,177.2,164.3,185.4,299.7C720.9,588.5,715.5,596,708.4,596.4z"/>
			<path class="st5" d="M196.2,521.6c-1.5,0.1-2.9-0.1-4.3-0.6c-6.9-2.5-11-11.3-9.1-19.7C212.8,364,311,267,427.1,260
				c7.1-0.4,13.3,6.3,13.8,15.1s-4.8,16.2-11.9,16.6c-105.2,6.3-194.1,94.1-221.3,218.4C206.3,516.8,201.5,521.3,196.2,521.6z"/>
			<path class="st5" d="M243.6,655.7c-6.4,0.4-12.3-5.2-13.6-13.2c-1.7-10.8-2.9-22-3.6-33c-5.8-96.5,30.9-189.2,95.8-241.9
				c5.9-4.8,13.9-2.7,18,4.7s2.5,17.2-3.3,22C279.4,440.8,247,522.7,252.1,608c0.6,9.8,1.7,19.6,3.2,29.2
				c1.4,8.7-3.2,16.8-10.2,18.3C244.6,655.7,244.1,655.7,243.6,655.7z"/>
			<path class="st5" d="M564,402.2c-3,0.1-5.9-0.9-8.1-2.9c-36.5-31.1-79.1-46.1-123-43.5c-9.5,0.6-18.9,1.9-28.1,4.1
				c-7,1.7-13.9-3.9-15.4-12.5s2.9-17,9.8-18.6c10.4-2.5,21.1-4.1,31.8-4.7c49.7-3,97.9,14,139.3,49.3c5.9,5,7.5,15,3.6,22.1
				C571.5,399.7,567.8,402,564,402.2z"/>
			<path class="st5" d="M601.5,876.3c-3.1,0.1-6.1-1-8.4-3.1c-5.8-5.2-7.2-15.2-3.1-22.2c60.9-104.6,82.6-281,13.4-395.2
				c-4.3-7.1-3.2-17,2.5-22.2s13.8-3.5,18.1,3.6c35.4,58.3,52.3,136.5,47.6,220.3c-4.2,76.3-26.2,153.7-60.4,212.4
				C609.2,873.5,605.6,875.9,601.5,876.3z"/>
			<path class="st5" d="M467.4,707.8c-6.9,0.4-13-6-13.8-14.5c-2.6-29.6-7.9-58.8-15.8-87.4c-2.4-8.3,1.2-17.3,8-20
				s14.1,1.9,16.5,10.3c8.6,30.9,14.3,62.4,17.1,94.3c0.8,8.8-4.3,16.4-11.4,17.2C467.8,707.7,467.6,707.7,467.4,707.8z"/>
			<path class="st5" d="M451,933.4c-1.7,0.1-3.3-0.2-4.9-0.9c-6.8-2.9-10.6-11.9-8.4-20.2c14-53.9,21-109.4,21.1-165
				c0-8.8,5.7-15.7,12.9-15.5s13,7.5,13,16.2c0,58.9-7.5,117.6-22.3,174.7C460.7,929,456,933.1,451,933.4z"/>
			<path class="st5" d="M256.8,823.8c-1.2,0.1-2.4-0.1-3.6-0.4c-7-2-11.5-10.5-10-19.1c5.2-30.9,5.2-64.5-0.1-97.3
				c-1.4-8.7,3.1-16.9,10.1-18.4s13.8,4.3,15.2,12.9c6,37,6,75,0,110C267.2,818.6,262.4,823.4,256.8,823.8z"/>
			<path class="st5" d="M605.9,602.6c-7.1,0.4-13.3-6.3-13.8-15.1c-3.5-58.8-30.4-112.4-71.8-143.3c-6.2-4.6-8.3-14.4-4.7-21.9
				s11.5-9.8,17.7-5.2c48.8,36.4,80.4,99.5,84.6,168.8C618.4,594.7,613,602.2,605.9,602.6z"/>
			<path class="st5" d="M290.7,621.6c-7.1,0.4-13.3-6.3-13.9-15.1c-7-115.8,63.9-214.6,157.9-220.2c5.8-0.4,11.7-0.4,17.6,0
				c7.1,0.5,12.8,7.9,12.6,16.7s-6.1,15.5-13.3,15c-5-0.3-10-0.3-14.9,0c-79.8,4.8-139.9,88.7-134,186.9
				C303.1,613.7,297.8,621.1,290.7,621.6z"/>
			<path class="st5" d="M301.7,872.7c-1.6,0.1-3.1-0.2-4.6-0.8c-6.9-2.7-10.8-11.6-8.8-20c8.4-35.5,11.6-72.1,9.3-108.6
				c-1.4-24.1-5.2-47.9-11.1-71.3c-2.2-8.4,1.6-17.2,8.4-19.7s14.1,2.4,16.2,10.8c6.6,25.8,10.7,52.1,12.3,78.6
				c2.5,40.2-0.9,80.6-10.3,119.9C311.6,868.2,306.9,872.4,301.7,872.7z"/>
			<path class="st5" d="M501.9,931.4c-4.1,0.2-8.3-1.9-11-6.2c-4.5-7-3.6-17,2-22.3c61.7-59,98.3-145.8,103.1-244.4
				c0.4-8.7,6.5-15.2,13.7-14.5s12.5,8.4,12.1,17.2c-5.3,107.7-45.3,202.5-112.7,266.9C507.1,930.1,504.6,931.2,501.9,931.4z"/>
			<path class="st5" d="M352,558.2c-2.1,0.1-4.2-0.4-6.1-1.5c-6.5-3.7-9.6-13.1-6.7-21.1c17.5-49.2,55.6-81.4,99.5-84
				c29.3-1.8,58.2,9.9,81.3,32.9c5.6,5.6,6.6,15.6,2.2,22.4s-12.5,7.7-18.1,2.1c-18-17.9-40.6-27-63.5-25.7
				c-34.3,2.1-64,27.2-77.6,65.6C360.9,554.5,356.6,557.9,352,558.2z"/>
			<path class="st5" d="M369.4,770.7c-7.1,0.4-13.3-6.3-13.8-15.1c-2.8-45.1-10.5-89.7-22.9-133.2c-2.4-8.3,1.1-17.3,7.8-20.1
				s14.1,1.8,16.5,10.1c13.3,46.1,21.4,93.6,24.4,141.5C381.9,762.8,376.6,770.2,369.4,770.7L369.4,770.7z"/>
			<path class="st5" d="M353,907.3c-1.9,0.1-3.7-0.3-5.4-1.1c-6.7-3.2-10.1-12.5-7.7-20.6c7.1-23.7,11.6-48.2,13.4-72.9
				c0.6-8.7,6.9-15,14-14s12.4,8.9,11.7,17.6c-2,27.5-6.9,54.6-14.9,81C362.4,903.2,358,907,353,907.3z"/>
			<path class="st5" d="M568.7,687.3h-0.8c-7.1-0.1-13-7.3-13.1-16.1c-0.2-36.9-6.5-73.5-18.7-108.3c-2.8-8.1,0.1-17.4,6.7-20.7
				s14.2,0.6,17,8.7c13.5,38.8,20.6,79.6,20.9,120.8C580.8,680.1,575.5,686.9,568.7,687.3z"/>
			<path class="st5" d="M399.7,925.6c-1.8,0.1-3.7-0.3-5.3-1.1c-6.7-3.2-10.2-12.4-7.8-20.6c5.1-17.3,9.2-34.9,12.2-52.6
				c1.5-8.5,8.3-13.8,15.3-11.8s11.5,10.6,10,19.1c-3.3,19.2-7.7,38.1-13.2,56.8C409.2,921.5,404.7,925.3,399.7,925.6z"/>
			<path class="st5" d="M417.9,820.8c-0.7,0-1.3,0-2-0.1c-7.1-0.9-12.5-8.7-11.9-17.4c1.6-25.3,0.9-50.6-1.9-75.7
				c-1.3-12-3.2-24.1-5.5-35.8c-1.7-8.6,2.6-17,9.5-18.9s13.9,3.6,15.6,12.2c2.5,12.8,4.5,25.9,6,39c3.1,27.4,3.8,55,2.1,82.5
				C429.3,814.4,424.2,820.4,417.9,820.8z"/>
			<path class="st5" d="M524.8,710.3c-7.1,0.4-13.3-6.3-13.9-15.1c-3.2-53.2-21.3-153.1-66.7-150.4c-23,1.4-40.4,25.6-38.7,53.9
				c0.1,1,0.1,1.9,0.2,2.9c0.9,8.7-4.1,16.5-11.1,17.5s-13.6-5.4-14.5-14.1c-0.2-1.5-0.3-3.1-0.4-4.6c-2.8-45.8,25.3-85,62.5-87.2
				c61.5-3.7,89.3,95,94.4,180.6C537.3,702.4,531.9,709.8,524.8,710.3z"/>
			<path class="st5" d="M508.8,854.6c-1.8,0.1-3.7-0.3-5.3-1.1c-6.7-3.2-10.2-12.4-7.8-20.5c8.2-28,13.3-56.8,15.1-85.9
				c0.6-8.7,6.8-15.1,13.9-14.1s12.4,8.7,11.8,17.5c-2,31.9-7.6,63.4-16.6,94C518.3,850.5,513.8,854.3,508.8,854.6z"/>
		</g>
		<rect x="9.5" y="472.2" class="st6" width="875.5" height="12.2"/>
		<g>
			
				<image style="overflow:visible;enable-background:new    ;" width="899" height="32" xlink:href="E0C30C19.png"  transform="matrix(1 0 0 1 0 462.37)">
			</image>
		</g>
		<rect x="9.5" y="472.2" class="st6" width="875.5" height="12.2"/>
		<path class="st7" d="M758.2,121.4c1.7,0.5,3.4,1.1,5,1.7l-1.9,4.8c-1.5-0.6-3.1-1.1-4.7-1.6L758.2,121.4z M765.7,124.1
			c1.6,0.7,3.2,1.5,4.8,2.3L768,131c-1.4-0.8-2.9-1.5-4.4-2.2L765.7,124.1z M772.8,127.8c1.5,0.9,3,1.9,4.5,2.9l-3,4.2
			c-1.3-0.9-2.7-1.9-4.1-2.7L772.8,127.8z M779.5,132.3c1.4,1.1,2.8,2.2,4.1,3.4l-3.4,3.8c-1.2-1.1-2.5-2.2-3.8-3.2L779.5,132.3z
			 M785.5,137.6c1.3,1.2,2.5,2.6,3.7,3.9l-3.9,3.3c-1.1-1.2-2.2-2.4-3.4-3.6L785.5,137.6z M790.9,143.5c1.1,1.4,2.2,2.8,3.2,4.3
			l-4.2,2.9c-0.9-1.4-1.9-2.7-2.9-4L790.9,143.5z M795.5,150.1c0.9,1.5,1.8,3.1,2.6,4.6l-4.5,2.3c-0.7-1.5-1.6-2.9-2.4-4.3
			L795.5,150.1z M799.3,157.1c0.7,1.6,1.4,3.3,2,4.9l-4.8,1.8c-0.6-1.5-1.2-3.1-1.9-4.6L799.3,157.1z M802.2,164.5
			c0.5,1.7,1,3.4,1.4,5.1l-5,1.2c-0.4-1.6-0.8-3.2-1.3-4.8L802.2,164.5z M804.2,172.3c0.3,1.7,0.6,3.5,0.8,5.3l-5.1,0.6
			c-0.2-1.6-0.4-3.3-0.7-4.9L804.2,172.3z M805.2,180.2c0.1,1.8,0.2,3.6,0.2,5.3l-5.1-0.1c0-1.6,0-3.3-0.2-4.9L805.2,180.2z
			 M800.2,187.9l5.1,0.3v0.1c-0.1,1.8-0.2,3.5-0.5,5.2l-5.1-0.7C800,191.3,800.1,189.7,800.2,187.9L800.2,187.9z M677.8,184.4
			c0,1.6,0,3.3,0.2,4.9l-5.1,0.4c-0.1-1.8-0.2-3.6-0.2-5.3L677.8,184.4z M799.4,195.4l5,0.9c-0.3,1.8-0.7,3.5-1.1,5.2l-4.9-1.3
			C798.8,198.6,799.1,197,799.4,195.4L799.4,195.4z M678.1,191.8c0.2,1.6,0.4,3.3,0.8,4.9l-5,1c-0.3-1.7-0.6-3.5-0.8-5.3
			L678.1,191.8z M797.7,202.6l4.9,1.5c-0.5,1.7-1.1,3.4-1.7,5.1l-4.8-1.9C796.7,205.7,797.3,204.1,797.7,202.6L797.7,202.6z
			 M679.4,199.1c0.4,1.6,0.8,3.2,1.3,4.8l-4.8,1.6c-0.5-1.7-1-3.4-1.4-5.1L679.4,199.1z M795.2,209.5l4.7,2
			c-0.7,1.6-1.5,3.2-2.3,4.8L793,214C793.8,212.5,794.5,211,795.2,209.5L795.2,209.5z M681.5,206.2c0.6,1.5,1.2,3.1,1.9,4.6
			l-4.6,2.1c-0.8-1.6-1.4-3.3-2-4.9L681.5,206.2z M791.8,216.1l4.4,2.6c-0.9,1.5-1.9,3-2.9,4.5l-4.2-2.9
			C790,218.9,791,217.5,791.8,216.1L791.8,216.1z M684.5,212.9c0.7,1.5,1.6,2.9,2.4,4.3l-4.3,2.7c-0.9-1.5-1.8-3.1-2.6-4.6
			L684.5,212.9z M787.6,222.2l4,3.1c-1.1,1.4-2.2,2.8-3.4,4.1l-3.7-3.4C785.6,224.8,786.6,223.5,787.6,222.2L787.6,222.2z
			 M688.3,219.2c0.9,1.4,1.9,2.7,2.9,4l-4,3.2c-1.1-1.4-2.2-2.8-3.2-4.3L688.3,219.2z M782.8,227.8l3.6,3.6
			c-1.2,1.3-2.5,2.5-3.9,3.7l-3.3-3.8C780.4,230.1,781.6,229,782.8,227.8L782.8,227.8z M692.8,225.1c1.1,1.2,2.2,2.4,3.4,3.6
			l-3.6,3.6c-1.3-1.2-2.5-2.6-3.7-3.9L692.8,225.1z M777.3,232.7l3.2,4c-1.4,1.1-2.8,2.2-4.3,3.2l-2.9-4.2
			C774.7,234.8,776,233.8,777.3,232.7L777.3,232.7z M698,230.4c1.2,1.1,2.5,2.2,3.8,3.2l-3.1,4c-1.4-1.1-2.8-2.2-4.1-3.4L698,230.4z
			 M771.3,237l2.7,4.3c-1.5,0.9-3.1,1.8-4.7,2.6l-2.3-4.5C768.4,238.7,769.9,237.9,771.3,237z M703.8,235c1.3,1,2.7,1.9,4.1,2.7
			l-2.6,4.4c-1.5-0.9-3-1.9-4.5-2.9L703.8,235z M764.8,240.5l2.1,4.6c-1.6,0.7-3.3,1.4-4.9,2l-1.8-4.8
			C761.8,241.9,763.3,241.2,764.8,240.5L764.8,240.5z M710,238.9c1.4,0.8,2.9,1.5,4.4,2.1l-2,4.7c-1.6-0.7-3.2-1.5-4.8-2.3
			L710,238.9z M757.9,243.2l1.6,4.9c-1.7,0.6-3.4,1-5.2,1.4l-1.2-5C754.7,244.2,756.3,243.8,757.9,243.2L757.9,243.2z M716.8,242
			c1.5,0.6,3.1,1.1,4.7,1.6l-1.5,4.9c-1.7-0.5-3.4-1.1-5-1.7L716.8,242z M750.7,245.1l1,5c-1.7,0.3-3.5,0.6-5.3,0.8l-0.6-5.1
			C747.5,245.6,749.1,245.4,750.7,245.1L750.7,245.1z M723.8,244.3c1.6,0.4,3.2,0.8,4.8,1l-0.8,5c-1.8-0.3-3.5-0.7-5.2-1.1
			L723.8,244.3z M743.4,246l0.3,5.1c-1.8,0.1-3.6,0.2-5.3,0.2v-5.1C740.1,246.2,741.8,246.2,743.4,246L743.4,246z M731,245.7
			c1.6,0.2,3.2,0.4,4.8,0.4h0.2l-0.3,5.1h-0.1c-1.8-0.1-3.5-0.2-5.2-0.5L731,245.7z"/>
		<path class="st8" d="M739,224.8c21.9,0,39.7-17.8,39.7-39.7s-17.8-39.7-39.7-39.7s-39.7,17.8-39.7,39.7c0,10.5,4.2,20.6,11.6,28.1
			C718.3,220.6,728.4,224.8,739,224.8z M739,147.9c20.5,0,37.1,16.6,37.1,37.1c0,20.5-16.6,37.1-37.1,37.1
			c-20.5,0-37.1-16.6-37.1-37.1c0,0,0,0,0,0C701.9,164.5,718.5,147.9,739,147.9L739,147.9z"/>
		<path class="st8" d="M693.8,185.1c0,3.5,0.4,7,1.3,10.4l-7.6,1.8c5.7,23.8,27,40.6,51.5,40.6l0,0c9.3,0,18.5-2.5,26.6-7.1l-4-6.8
			c3-1.8,5.8-3.9,8.4-6.3l5.4,5.7c21.2-20.1,22.2-53.7,2-74.9c-3.5-3.7-7.6-6.9-12-9.5l-3.9,6.7c-3-1.8-6.3-3.2-9.7-4.2l2.2-7.4
			c-28.1-8.3-57.6,7.7-65.8,35.8c-1.4,4.9-2.2,9.9-2.2,14.9v0.1L693.8,185.1z M746,136.1L746,136.1c1.4,0.2,2.6,0.4,3.9,0.8
			l-0.9,3.7c-1.2-0.3-2.3-0.5-3.5-0.7h-0.1L746,136.1z M740.1,135.5c1.3,0.1,2.6,0.1,3.9,0.3l-0.4,3.7c-1.2-0.1-2.4-0.2-3.6-0.3
			L740.1,135.5z M767.6,156.4c15.8,15.8,15.8,41.5,0,57.3s-41.5,15.8-57.3,0c-15.8-15.8-15.8-41.5,0-57.3
			c7.6-7.6,17.9-11.9,28.6-11.9C749.7,144.5,760,148.8,767.6,156.4L767.6,156.4z M738.1,135.5v3.8c-1.2,0-2.4,0.1-3.6,0.2l-0.3-3.8
			C735.5,135.6,736.8,135.5,738.1,135.5z M732.2,135.9l0.5,3.7c-1.2,0.1-2.4,0.4-3.6,0.6l-0.8-3.7
			C729.6,136.3,730.9,136.1,732.2,135.9z M726.4,137l0.9,3.6c-1.2,0.3-2.3,0.6-3.5,1l-1.2-3.6C723.9,137.7,725.1,137.3,726.4,137
			L726.4,137z M720.8,138.8l1.4,3.5c-1.1,0.4-2.2,0.9-3.3,1.4l-1.6-3.4C718.3,139.8,719.5,139.2,720.8,138.8z M715.4,141.2l1.8,3.3
			c-1.1,0.6-2.1,1.2-3.1,1.8l-2-3.2C713,142.5,714.2,141.9,715.4,141.2L715.4,141.2z M710.4,144.3l2.2,3.1c-1,0.7-2,1.4-2.9,2.2
			l-2.4-2.9C708.2,145.9,709.3,145.1,710.4,144.3L710.4,144.3z M705.7,148l2.5,2.8c-0.9,0.8-1.8,1.7-2.6,2.5l-2.7-2.6
			C703.8,149.8,704.7,148.9,705.7,148z M701.5,152.2l2.8,2.5c-0.8,0.9-1.6,1.9-2.3,2.8l-3-2.2C699.8,154.2,700.7,153.2,701.5,152.2z
			 M697.9,156.9l3.1,2.1c-0.7,1-1.3,2-1.9,3.1l-3.3-1.9C696.5,159.1,697.2,158,697.9,156.9z M694.9,162l3.3,1.7
			c-0.6,1.1-1.1,2.2-1.5,3.3l-3.5-1.5C693.7,164.3,694.3,163.1,694.9,162L694.9,162z M692.5,167.4l3.5,1.3c-0.4,1.1-0.8,2.3-1.1,3.5
			l-3.6-1C691.6,169.9,692,168.6,692.5,167.4L692.5,167.4z M690,176.9c0.2-1.3,0.5-2.6,0.8-3.8l3.7,0.9c-0.3,1.2-0.5,2.4-0.7,3.5
			v0.1L690,176.9L690,176.9z M689.8,178.9l3.7,0.4c-0.2,1.2-0.2,2.4-0.3,3.6l-3.8-0.1C689.5,181.5,689.6,180.2,689.8,178.9
			L689.8,178.9z"/>
		<circle class="st8" cx="739.5" cy="184.9" r="25.5"/>
		<line class="st9" x1="740" y1="184.4" x2="547.5" y2="376.9"/>
		<path class="st7" d="M112.7,907.3c-1.7,0.5-3.4,1.1-5.1,1.7l1.8,4.8c1.5-0.6,3.1-1.1,4.7-1.6L112.7,907.3z M105.2,910
			c-1.6,0.7-3.2,1.5-4.8,2.3l2.4,4.5c1.4-0.8,2.9-1.5,4.4-2.2L105.2,910z M98,913.7c-1.5,0.9-3,1.9-4.5,2.9l2.9,4.2
			c1.3-0.9,2.7-1.8,4.1-2.7L98,913.7z M91.4,918.2c-1.4,1.1-2.8,2.2-4.1,3.4l3.4,3.8c1.2-1.1,2.5-2.2,3.8-3.2L91.4,918.2z
			 M85.4,923.5c-1.3,1.2-2.5,2.5-3.7,3.9l3.8,3.3c1.1-1.2,2.2-2.5,3.4-3.6L85.4,923.5z M80,929.4c-1.1,1.4-2.2,2.8-3.2,4.3l4.2,2.9
			c0.9-1.4,1.9-2.7,2.9-4L80,929.4z M75.4,935.9c-0.9,1.5-1.8,3.1-2.6,4.7l4.5,2.3c0.8-1.5,1.6-2.9,2.4-4.3L75.4,935.9z M71.6,942.9
			c-0.7,1.6-1.4,3.3-2,4.9l4.8,1.8c0.6-1.5,1.2-3.1,1.9-4.5L71.6,942.9z M68.7,950.4c-0.6,1.7-1,3.4-1.4,5.1l5,1.2
			c0.4-1.6,0.8-3.2,1.3-4.8L68.7,950.4z M66.7,958.2c-0.3,1.7-0.6,3.5-0.8,5.3L71,964c0.2-1.6,0.4-3.3,0.7-4.9L66.7,958.2z
			 M65.7,966.1c-0.1,1.8-0.2,3.6-0.2,5.3h5.1c0-1.7,0-3.3,0.1-4.9L65.7,966.1z M70.7,973.9l-5.1,0.3v0.1c0.1,1.8,0.2,3.5,0.5,5.2
			l5-0.7C70.9,977.2,70.7,975.5,70.7,973.9L70.7,973.9z M193,970.3c0,1.7,0,3.3-0.1,4.9l5.1,0.3c0.1-1.8,0.2-3.6,0.2-5.3L193,970.3z
			 M71.4,981.3l-5,0.9c0.3,1.8,0.7,3.5,1.1,5.2l4.9-1.3C72,984.5,71.7,982.9,71.4,981.3L71.4,981.3z M192.7,977.7
			c-0.2,1.6-0.4,3.3-0.7,4.9l5,1c0.3-1.7,0.6-3.5,0.8-5.3L192.7,977.7z M73.1,988.5l-4.9,1.5c0.5,1.7,1.1,3.4,1.7,5l4.8-1.8
			C74.1,991.6,73.6,990,73.1,988.5z M191.4,985c-0.4,1.6-0.8,3.2-1.3,4.8l4.9,1.6c0.6-1.7,1-3.4,1.4-5.2L191.4,985z M75.7,995.4
			l-4.7,2c0.7,1.6,1.5,3.2,2.3,4.8l4.5-2.4C77,998.4,76.3,996.9,75.7,995.4z M189.3,992c-0.6,1.5-1.2,3.1-1.9,4.5l4.6,2.2
			c0.8-1.6,1.4-3.3,2.1-4.9L189.3,992z M79,1002l-4.4,2.6c0.9,1.5,1.9,3,2.9,4.5l4.2-2.9C80.8,1004.8,79.9,1003.4,79,1002z
			 M186.3,998.8c-0.8,1.5-1.6,2.9-2.4,4.3l4.3,2.7c0.9-1.5,1.8-3.1,2.6-4.7L186.3,998.8z M83.2,1008.1l-4,3.1
			c1.1,1.4,2.2,2.8,3.4,4.1l3.8-3.4C85.3,1010.7,84.2,1009.4,83.2,1008.1L83.2,1008.1z M182.6,1005.1c-0.9,1.4-1.9,2.7-2.9,4l4,3.2
			c1.1-1.4,2.2-2.8,3.2-4.3L182.6,1005.1z M88,1013.7l-3.6,3.6c1.2,1.3,2.5,2.5,3.9,3.7l3.3-3.8C90.4,1016,89.2,1014.9,88,1013.7z
			 M178,1011c-1.1,1.2-2.2,2.5-3.4,3.6l3.6,3.7c1.3-1.2,2.5-2.5,3.7-3.9L178,1011z M93.5,1018.7l-3.2,4c1.4,1.1,2.8,2.2,4.3,3.2
			l2.8-4.2C96.2,1020.7,94.8,1019.7,93.5,1018.7L93.5,1018.7z M172.9,1016.3c-1.2,1.1-2.5,2.2-3.8,3.2l3.1,4
			c1.4-1.1,2.8-2.2,4.1-3.4L172.9,1016.3z M99.6,1022.9l-2.7,4.3c1.5,0.9,3.1,1.8,4.7,2.6l2.3-4.5
			C102.4,1024.6,101,1023.8,99.6,1022.9L99.6,1022.9z M167.1,1020.9c-1.3,0.9-2.7,1.8-4.1,2.7l2.6,4.4c1.5-0.9,3-1.9,4.5-2.9
			L167.1,1020.9z M106.1,1026.5l-2.2,4.6c1.6,0.8,3.3,1.4,4.9,2l1.8-4.8C109.1,1027.8,107.6,1027.1,106.1,1026.5L106.1,1026.5z
			 M160.8,1024.8c-1.4,0.8-2.9,1.5-4.4,2.2l2,4.7c1.6-0.7,3.2-1.5,4.8-2.3L160.8,1024.8z M113,1029.2l-1.6,4.8
			c1.7,0.5,3.4,1,5.2,1.4l1.2-5C116.1,1030.1,114.5,1029.7,113,1029.2z M154.1,1027.9c-1.5,0.6-3.1,1.1-4.7,1.6l1.5,4.9
			c1.7-0.5,3.4-1.1,5.1-1.7L154.1,1027.9z M120.1,1030.9l-1,5c1.7,0.3,3.5,0.6,5.3,0.8l0.6-5.1
			C123.4,1031.6,121.7,1031.3,120.1,1030.9L120.1,1030.9z M147,1030.2c-1.6,0.4-3.2,0.7-4.8,1l0.9,5c1.8-0.3,3.5-0.7,5.2-1.1
			L147,1030.2z M127.5,1032l-0.4,5.1c1.8,0.1,3.6,0.2,5.3,0.2v-5.1C130.7,1032.1,129,1032.1,127.5,1032z M139.8,1031.6
			c-1.6,0.2-3.2,0.3-4.8,0.4h-0.1l0.3,5.1h0.1c1.8-0.1,3.5-0.2,5.2-0.5L139.8,1031.6z"/>
		<path class="st8" d="M131.9,1010.7c-21.9,0-39.7-17.8-39.7-39.7c0-21.9,17.8-39.7,39.7-39.7s39.7,17.8,39.7,39.7
			c0,10.5-4.2,20.6-11.6,28.1C152.6,1006.5,142.4,1010.7,131.9,1010.7z M131.9,933.8c-20.5,0-37.1,16.6-37.1,37.1
			c0,20.5,16.6,37.1,37.1,37.1s37.1-16.6,37.1-37.1C169,950.4,152.4,933.8,131.9,933.8L131.9,933.8z"/>
		<path class="st8" d="M177,971c0,3.5-0.4,7-1.3,10.4l7.6,1.8c-5.7,23.8-27,40.6-51.5,40.7l0,0c-9.3,0-18.5-2.5-26.6-7.1l4-6.8
			c-3-1.8-5.8-3.9-8.4-6.3l-5.4,5.7c-17.9-17-21.8-44.1-9.3-65.4c4.7-7.9,11.3-14.4,19.2-19l3.9,6.7c3-1.8,6.3-3.2,9.6-4.2l-2.2-7.4
			c28.1-8.4,57.6,7.6,65.9,35.7c1.5,4.9,2.2,10,2.2,15.1v0.1L177,971z M124.9,922L124.9,922c-1.3,0.2-2.6,0.5-3.9,0.8l0.9,3.7
			c1.2-0.3,2.3-0.5,3.5-0.7h0.1L124.9,922z M130.8,921.4c-1.3,0-2.6,0.1-3.9,0.3l0.4,3.7c1.2-0.1,2.4-0.2,3.6-0.3L130.8,921.4z
			 M103.3,942.3c-15.8,15.8-15.8,41.5,0,57.3c15.8,15.8,41.5,15.8,57.3,0s15.8-41.5,0-57.3c-7.6-7.6-17.9-11.9-28.6-11.9
			C121.2,930.4,110.8,934.7,103.3,942.3L103.3,942.3z M132.7,921.4v3.8c1.2,0,2.4,0.1,3.6,0.2l0.3-3.8
			C135.4,921.5,134,921.4,132.7,921.4L132.7,921.4z M138.6,921.8l-0.5,3.7c1.2,0.2,2.4,0.3,3.6,0.6l0.8-3.7
			C141.3,922.2,139.9,922,138.6,921.8L138.6,921.8z M144.4,922.9l-0.9,3.7c1.2,0.3,2.4,0.7,3.5,1l1.2-3.6
			C147,923.6,145.7,923.2,144.4,922.9L144.4,922.9z M150.1,924.7l-1.4,3.5c1.1,0.4,2.2,0.9,3.3,1.5l1.6-3.4
			C152.5,925.7,151.3,925.2,150.1,924.7L150.1,924.7z M155.5,927.1l-1.8,3.3c1.1,0.6,2.1,1.2,3.1,1.8l2-3.2
			C157.8,928.4,156.6,927.8,155.5,927.1L155.5,927.1z M160.5,930.2l-2.1,3.1c1,0.7,2,1.4,2.9,2.2l2.4-2.9
			C162.6,931.8,161.6,931,160.5,930.2L160.5,930.2z M165.1,933.9l-2.5,2.8c0.9,0.8,1.8,1.7,2.6,2.5l2.7-2.6
			C167,935.7,166.1,934.8,165.1,933.9L165.1,933.9z M169.3,938.1l-2.8,2.5c0.8,0.9,1.6,1.9,2.3,2.8l3-2.2
			C171,940.1,170.2,939.1,169.3,938.1L169.3,938.1z M172.9,942.8l-3.1,2.1c0.7,1,1.3,2,1.9,3.1l3.3-1.9
			C174.4,945,173.7,943.9,172.9,942.8L172.9,942.8z M175.9,947.9l-3.3,1.7c0.6,1.1,1.1,2.2,1.5,3.3l3.5-1.5
			C177.1,950.2,176.6,949,175.9,947.9L175.9,947.9z M178.3,953.3l-3.5,1.3c0.4,1.1,0.8,2.3,1.1,3.5l3.6-1
			C179.2,955.8,178.8,954.5,178.3,953.3L178.3,953.3z M180.8,962.8c-0.2-1.3-0.4-2.6-0.8-3.8l-3.7,0.9c0.3,1.2,0.5,2.3,0.7,3.5v0.1
			L180.8,962.8L180.8,962.8z M181,964.8l-3.7,0.4c0.1,1.2,0.2,2.4,0.3,3.6l3.8-0.1C181.4,967.4,181.3,966.1,181,964.8L181,964.8z"/>
		<circle class="st8" cx="131.4" cy="970.8" r="25.5"/>
		<line class="st9" x1="119.9" y1="979.8" x2="312.4" y2="787.3"/>
		<path class="st7" d="M778.6,808c-1.7,0.5-3.4,1.1-5,1.7l1.9,4.8c1.5-0.6,3.1-1.1,4.7-1.6L778.6,808z M771,810.8
			c-1.6,0.7-3.2,1.5-4.8,2.3l2.4,4.5c1.4-0.8,2.9-1.5,4.4-2.2L771,810.8z M763.9,814.4c-1.5,0.9-3,1.9-4.5,2.9l3,4.2
			c1.3-1,2.7-1.8,4.1-2.7L763.9,814.4z M757.3,818.9c-1.4,1.1-2.8,2.2-4.1,3.4l3.4,3.8c1.2-1.1,2.5-2.2,3.8-3.2L757.3,818.9z
			 M751.2,824.2c-1.3,1.2-2.5,2.5-3.7,3.9l3.9,3.3c1.1-1.2,2.2-2.5,3.4-3.6L751.2,824.2z M745.9,830.1c-1.1,1.4-2.2,2.8-3.2,4.3
			l4.2,2.9c0.9-1.4,1.9-2.7,2.9-4L745.9,830.1z M741.2,836.7c-0.9,1.5-1.8,3.1-2.6,4.7l4.5,2.3c0.7-1.5,1.6-2.9,2.4-4.3L741.2,836.7
			z M737.4,843.7c-0.7,1.6-1.4,3.3-2,4.9l4.8,1.8c0.6-1.5,1.2-3.1,1.9-4.6L737.4,843.7z M734.5,851.2c-0.5,1.7-1,3.4-1.4,5.2l5,1.2
			c0.4-1.6,0.8-3.2,1.3-4.8L734.5,851.2z M732.5,858.9c-0.3,1.7-0.6,3.5-0.8,5.3l5.1,0.6c0.2-1.6,0.4-3.3,0.7-4.9L732.5,858.9z
			 M731.5,866.9c-0.1,1.8-0.2,3.6-0.2,5.3l5.1,0c0-1.7,0-3.3,0.2-4.9L731.5,866.9z M736.5,874.6l-5.1,0.3v0.1
			c0.1,1.7,0.2,3.5,0.5,5.2l5.1-0.7c-0.2-1.6-0.4-3.2-0.4-4.8L736.5,874.6z M859,871c0,1.6,0,3.3-0.2,4.9l5.1,0.4
			c0.1-1.8,0.2-3.6,0.2-5.3L859,871z M737.3,882l-5,0.9c0.3,1.8,0.7,3.5,1.1,5.2l4.9-1.3C738,885.2,737.6,883.6,737.3,882z
			 M858.6,878.4c-0.2,1.6-0.4,3.3-0.8,4.9l5,1c0.3-1.7,0.6-3.5,0.8-5.3L858.6,878.4z M739,889.2l-4.9,1.5c0.5,1.7,1.1,3.4,1.7,5
			l4.8-1.8C740,892.3,739.5,890.8,739,889.2z M857.4,885.7c-0.4,1.6-0.8,3.2-1.3,4.7l4.8,1.6c0.5-1.7,1-3.4,1.4-5.2L857.4,885.7z
			 M741.6,896.1l-4.7,2c0.7,1.6,1.5,3.2,2.3,4.8l4.5-2.4C743,899.1,742.2,897.6,741.6,896.1z M855.2,892.8c-0.6,1.5-1.2,3.1-1.9,4.5
			l4.6,2.2c0.8-1.6,1.4-3.3,2-4.9L855.2,892.8z M744.9,902.7l-4.4,2.6c0.9,1.5,1.9,3,2.9,4.5l4.2-3
			C746.7,905.5,745.8,904.1,744.9,902.7z M852.2,899.5c-0.7,1.5-1.6,2.9-2.4,4.3l4.3,2.7c0.9-1.5,1.8-3.1,2.6-4.7L852.2,899.5z
			 M749,908.8l-4,3.2c1.1,1.4,2.2,2.8,3.4,4.1l3.8-3.4C751.1,911.4,750,910.1,749,908.8z M848.4,905.8c-0.9,1.3-1.9,2.7-2.9,4l4,3.2
			c1.1-1.4,2.2-2.8,3.2-4.3L848.4,905.8z M753.9,914.4l-3.6,3.6c1.2,1.3,2.5,2.5,3.9,3.7l3.3-3.8C756.3,916.7,755,915.6,753.9,914.4
			L753.9,914.4z M843.9,911.7c-1.1,1.2-2.2,2.5-3.4,3.6l3.6,3.7c1.3-1.2,2.5-2.5,3.7-3.9L843.9,911.7z M759.4,919.3l-3.2,4
			c1.4,1.1,2.8,2.2,4.3,3.2l2.9-4.2C762,921.4,760.7,920.4,759.4,919.3L759.4,919.3z M838.8,917c-1.2,1.1-2.5,2.2-3.8,3.2l3.1,4
			c1.4-1.1,2.8-2.2,4.1-3.4L838.8,917z M765.5,923.6l-2.7,4.4c1.5,0.9,3.1,1.8,4.7,2.6l2.3-4.5C768.3,925.3,766.9,924.5,765.5,923.6
			L765.5,923.6z M833,921.6c-1.3,0.9-2.7,1.8-4.1,2.7l2.6,4.4c1.5-0.9,3-1.9,4.5-2.9L833,921.6z M772,927.1l-2.1,4.6
			c1.6,0.8,3.3,1.4,4.9,2l1.8-4.8C775,928.5,773.5,927.9,772,927.1L772,927.1z M826.7,925.5c-1.4,0.8-2.9,1.5-4.4,2.2l2,4.7
			c1.6-0.7,3.2-1.5,4.8-2.3L826.7,925.5z M778.9,929.8l-1.6,4.8c1.7,0.5,3.4,1,5.2,1.4l1.2-5C782,930.8,780.4,930.4,778.9,929.8
			L778.9,929.8z M820,928.6c-1.5,0.6-3.1,1.1-4.7,1.6l1.5,4.9c1.7-0.5,3.4-1.1,5-1.7L820,928.6z M786,931.7l-1,5
			c1.7,0.3,3.5,0.6,5.3,0.8l0.6-5.1C789.3,932.3,787.6,932,786,931.7z M813,930.9c-1.6,0.4-3.2,0.8-4.8,1l0.8,5
			c1.8-0.3,3.5-0.7,5.2-1.1L813,930.9z M793.4,932.7l-0.3,5.1c1.8,0.1,3.6,0.2,5.3,0.2v-5.1C796.6,932.8,795,932.8,793.4,932.7
			L793.4,932.7z M805.7,932.3c-1.6,0.2-3.2,0.3-4.8,0.4h-0.1l0.3,5.1h0c1.8-0.1,3.5-0.2,5.2-0.5L805.7,932.3z"/>
		<path class="st8" d="M797.8,911.4c-21.9,0-39.7-17.8-39.7-39.7c0-21.9,17.8-39.7,39.7-39.7s39.7,17.8,39.7,39.7
			c0,10.5-4.2,20.6-11.6,28.1C818.4,907.3,808.3,911.5,797.8,911.4z M797.8,834.5c-20.5,0-37.1,16.6-37.1,37.1
			c0,20.5,16.6,37.1,37.1,37.1c20.5,0,37.1-16.6,37.1-37.1c0,0,0,0,0,0C834.8,851.1,818.2,834.5,797.8,834.5L797.8,834.5z"/>
		<path class="st8" d="M842.9,871.8c0,3.5-0.4,7-1.3,10.4l7.6,1.8c-5.7,23.8-27,40.7-51.5,40.7l0,0c-9.3,0-18.5-2.5-26.6-7.1l4-6.8
			c-3-1.8-5.8-3.9-8.4-6.3l-5.4,5.7c-21.2-20.1-22.2-53.7-2-74.9c3.5-3.7,7.6-6.9,12-9.5l3.9,6.7c3-1.8,6.3-3.2,9.7-4.2l-2.2-7.4
			c28-8.4,57.6,7.6,65.9,35.6c1.5,4.9,2.2,10,2.2,15.1v0.1L842.9,871.8z M790.8,822.8L790.8,822.8c-1.4,0.2-2.6,0.5-3.9,0.8l0.9,3.7
			c1.2-0.3,2.3-0.5,3.5-0.7h0.1L790.8,822.8z M796.7,822.2c-1.3,0-2.6,0.1-3.9,0.3l0.4,3.7c1.2-0.1,2.4-0.2,3.6-0.3L796.7,822.2z
			 M769.2,843.1c-15.8,15.8-15.8,41.5,0,57.3c15.8,15.8,41.5,15.8,57.3,0c15.8-15.8,15.8-41.5,0-57.3c-7.6-7.6-17.9-11.9-28.7-11.9
			C787,831.2,776.7,835.4,769.2,843.1L769.2,843.1z M798.6,822.2v3.8c1.2,0,2.4,0.1,3.6,0.2l0.3-3.8
			C801.3,822.2,799.9,822.1,798.6,822.2L798.6,822.2z M804.5,822.6l-0.5,3.7c1.2,0.2,2.4,0.3,3.6,0.6l0.8-3.7
			C807.1,822.9,805.8,822.7,804.5,822.6L804.5,822.6z M810.3,823.7l-0.9,3.7c1.2,0.3,2.3,0.7,3.5,1l1.2-3.6
			C812.9,824.3,811.6,823.9,810.3,823.7L810.3,823.7z M816,825.5l-1.4,3.5c1.1,0.4,2.2,0.9,3.3,1.5l1.6-3.4
			C818.4,826.4,817.2,825.9,816,825.5L816,825.5z M821.4,827.9l-1.8,3.3c1.1,0.6,2.1,1.2,3.1,1.8l2-3.2
			C823.6,829.1,822.5,828.5,821.4,827.9L821.4,827.9z M826.4,831l-2.1,3c1,0.7,2,1.4,2.9,2.2l2.4-2.9
			C828.5,832.5,827.5,831.7,826.4,831L826.4,831z M831,834.7l-2.5,2.8c0.9,0.8,1.8,1.7,2.6,2.5l2.7-2.6
			C833,836.4,832,835.5,831,834.7L831,834.7z M835.2,838.9l-2.8,2.5c0.8,0.9,1.6,1.9,2.3,2.8l3-2.2
			C836.9,840.8,836,839.8,835.2,838.9L835.2,838.9z M838.8,843.6l-3.1,2.1c0.7,1,1.3,2,1.9,3.1l3.3-1.9
			C840.3,845.7,839.6,844.6,838.8,843.6L838.8,843.6z M841.8,848.6l-3.3,1.7c0.6,1.1,1.1,2.2,1.5,3.3l3.5-1.5
			C843,851,842.5,849.8,841.8,848.6L841.8,848.6z M844.2,854l-3.5,1.3c0.4,1.1,0.8,2.3,1.1,3.5l3.6-1
			C845.1,856.5,844.7,855.2,844.2,854z M846.7,863.5c-0.2-1.3-0.5-2.6-0.8-3.8l-3.7,0.9c0.3,1.2,0.5,2.3,0.7,3.5v0.1L846.7,863.5
			L846.7,863.5z M847,865.5l-3.7,0.4c0.2,1.2,0.2,2.4,0.3,3.6l3.8-0.1C847.3,868.1,847.2,866.8,847,865.5L847,865.5z"/>
		<circle class="st8" cx="797.2" cy="871.5" r="25.5"/>
		<line class="st9" x1="801" y1="874.4" x2="598.8" y2="721"/>
		<path class="st7" d="M227.8,125.3c1.7,0.5,3.4,1.1,5.1,1.7l-1.8,4.8c-1.5-0.6-3.1-1.1-4.7-1.6L227.8,125.3z M235.4,128.1
			c1.6,0.7,3.2,1.5,4.8,2.4l-2.4,4.5c-1.4-0.8-2.9-1.5-4.4-2.2L235.4,128.1z M242.5,131.8c1.5,0.9,3,1.9,4.5,2.9l-2.9,4.2
			c-1.3-0.9-2.7-1.9-4.1-2.7L242.5,131.8z M249.1,136.3c1.4,1.1,2.8,2.2,4.1,3.4l-3.4,3.8c-1.2-1.1-2.5-2.2-3.8-3.2L249.1,136.3z
			 M255.1,141.5c1.3,1.2,2.5,2.6,3.7,3.9l-3.9,3.3c-1.1-1.2-2.2-2.4-3.4-3.6L255.1,141.5z M260.5,147.5c1.1,1.4,2.2,2.8,3.2,4.3
			l-4.2,2.9c-0.9-1.4-1.9-2.7-2.9-4L260.5,147.5z M265.1,154c0.9,1.5,1.8,3.1,2.6,4.6l-4.5,2.3c-0.7-1.4-1.6-2.9-2.4-4.3L265.1,154z
			 M268.9,161c0.8,1.6,1.4,3.3,2,4.9l-4.8,1.8c-0.6-1.5-1.2-3.1-1.9-4.6L268.9,161z M271.8,168.5c0.5,1.7,1,3.4,1.4,5.1l-5,1.2
			c-0.4-1.6-0.8-3.2-1.3-4.8L271.8,168.5z M273.8,176.2c0.3,1.7,0.6,3.5,0.8,5.3l-5.1,0.6c-0.2-1.6-0.4-3.3-0.7-4.9L273.8,176.2z
			 M274.8,184.2c0.1,1.8,0.2,3.6,0.2,5.3l-5.1-0.1c0-1.6,0-3.3-0.1-4.9L274.8,184.2z M269.8,191.9l5.1,0.3v0.1
			c-0.1,1.8-0.2,3.5-0.5,5.2l-5.1-0.7C269.6,195.2,269.8,193.6,269.8,191.9L269.8,191.9z M147.4,188.3c0,1.6,0,3.3,0.1,4.9l-5.1,0.4
			c-0.1-1.8-0.2-3.6-0.2-5.3L147.4,188.3z M269,199.3l5,0.9c-0.3,1.8-0.7,3.5-1.1,5.2l-4.9-1.3C268.5,202.6,268.8,201,269,199.3
			L269,199.3z M147.8,195.8c0.2,1.6,0.4,3.3,0.8,4.9l-5,1c-0.3-1.7-0.6-3.5-0.8-5.3L147.8,195.8z M267.3,206.5l4.9,1.5
			c-0.5,1.7-1.1,3.4-1.7,5.1l-4.8-1.9C266.4,209.7,266.9,208.1,267.3,206.5L267.3,206.5z M149,203.1c0.4,1.6,0.8,3.2,1.3,4.8
			l-4.9,1.6c-0.6-1.7-1-3.4-1.4-5.1L149,203.1z M264.8,213.5l4.7,2c-0.7,1.6-1.5,3.2-2.3,4.8l-4.5-2.4
			C263.5,216.5,264.2,215,264.8,213.5z M151.2,210.1c0.6,1.5,1.2,3.1,1.9,4.6l-4.6,2.1c-0.8-1.6-1.4-3.3-2.1-4.9L151.2,210.1z
			 M261.5,220.1l4.4,2.6c-0.9,1.5-1.9,3-2.9,4.5l-4.2-2.9C259.7,222.9,260.6,221.5,261.5,220.1L261.5,220.1z M154.2,216.9
			c0.8,1.5,1.6,2.9,2.4,4.3l-4.3,2.7c-0.9-1.5-1.8-3.1-2.6-4.6L154.2,216.9z M257.3,226.2l4,3.1c-1.1,1.4-2.2,2.8-3.4,4.1l-3.8-3.4
			C255.3,228.8,256.3,227.5,257.3,226.2L257.3,226.2z M158,223.2c0.9,1.4,1.9,2.7,2.9,4l-4,3.2c-1.1-1.4-2.2-2.8-3.2-4.3L158,223.2z
			 M252.5,231.7l3.6,3.6c-1.2,1.3-2.6,2.5-3.9,3.7l-3.3-3.9C250.1,234.1,251.3,233,252.5,231.7L252.5,231.7z M162.5,229.1
			c1.1,1.2,2.2,2.4,3.4,3.6l-3.6,3.6c-1.3-1.2-2.5-2.6-3.7-3.9L162.5,229.1z M247,236.7l3.2,4c-1.4,1.1-2.8,2.2-4.3,3.2l-2.8-4.2
			C244.4,238.8,245.7,237.8,247,236.7L247,236.7z M167.6,234.3c1.2,1.1,2.5,2.2,3.8,3.2l-3.1,4c-1.4-1.1-2.8-2.2-4.1-3.4
			L167.6,234.3z M240.9,241l2.7,4.3c-1.5,0.9-3.1,1.8-4.6,2.6l-2.3-4.5C238.1,242.7,239.5,241.9,240.9,241z M173.4,239
			c1.3,1,2.7,1.9,4.1,2.7l-2.6,4.4c-1.5-0.9-3-1.9-4.5-2.9L173.4,239z M234.4,244.5l2.1,4.6c-1.6,0.7-3.3,1.4-4.9,2l-1.8-4.8
			C231.4,245.9,232.9,245.2,234.4,244.5L234.4,244.5z M179.7,242.9c1.4,0.8,2.9,1.5,4.4,2.2l-2,4.7c-1.6-0.7-3.2-1.5-4.8-2.3
			L179.7,242.9z M227.6,247.2l1.6,4.9c-1.7,0.5-3.4,1-5.1,1.4l-1.2-5C224.4,248.2,226,247.7,227.6,247.2L227.6,247.2z M186.4,246
			c1.5,0.6,3.1,1.1,4.7,1.6l-1.5,4.9c-1.7-0.5-3.4-1.1-5.1-1.7L186.4,246z M220.4,249.1l1,5c-1.7,0.3-3.5,0.6-5.3,0.8l-0.6-5.1
			C217.1,249.6,218.8,249.4,220.4,249.1L220.4,249.1z M193.5,248.3c1.6,0.4,3.2,0.8,4.8,1l-0.9,5c-1.8-0.3-3.5-0.7-5.2-1.1
			L193.5,248.3z M213,250l0.4,5.1c-1.8,0.1-3.6,0.2-5.3,0.2l0.1-5.1C209.8,250.2,211.4,250.1,213,250z M200.7,249.6
			c1.6,0.2,3.2,0.4,4.8,0.4h0.1l-0.3,5.1h-0.1c-1.8-0.1-3.5-0.2-5.2-0.5L200.7,249.6z"/>
		<path class="st8" d="M208.6,228.8c21.9,0,39.7-17.8,39.7-39.7s-17.8-39.7-39.7-39.7s-39.7,17.8-39.7,39.7
			c0,10.5,4.2,20.6,11.6,28.1C188,224.6,198.1,228.8,208.6,228.8z M208.6,151.8c20.5,0,37.1,16.6,37.1,37.1S229.1,226,208.6,226
			s-37.1-16.6-37.1-37.1C171.6,168.4,188.2,151.8,208.6,151.8L208.6,151.8z"/>
		<path class="st8" d="M163.5,189.1c0,3.5,0.4,7,1.3,10.4l-7.6,1.8c5.7,23.8,27,40.7,51.5,40.7l0,0c9.3,0,18.5-2.5,26.6-7.1l-4-6.8
			c3-1.8,5.8-3.9,8.4-6.3l5.4,5.7c21.2-20.1,22.2-53.7,2-74.9c-3.5-3.7-7.6-6.9-12-9.5l-3.9,6.7c-3-1.8-6.3-3.2-9.6-4.2l2.2-7.4
			c-28.1-8.3-57.6,7.7-65.9,35.7c-1.4,4.9-2.2,9.9-2.2,15v0.1L163.5,189.1z M215.6,140.1L215.6,140.1c1.4,0.2,2.6,0.5,3.9,0.8
			l-0.9,3.7c-1.1-0.3-2.3-0.5-3.5-0.7H215L215.6,140.1z M209.7,139.5c1.3,0.1,2.6,0.1,3.9,0.3l-0.4,3.7c-1.2-0.1-2.4-0.2-3.6-0.3
			L209.7,139.5z M237.3,160.4c15.8,15.8,15.8,41.5,0,57.3s-41.5,15.8-57.3,0s-15.8-41.5,0-57.3c7.6-7.6,17.9-11.9,28.6-11.9
			C219.4,148.5,229.7,152.8,237.3,160.4z M207.8,139.5v3.8c-1.2,0-2.4,0.1-3.6,0.2l-0.3-3.8C205.1,139.5,206.5,139.5,207.8,139.5z
			 M201.9,139.9l0.5,3.7c-1.2,0.1-2.4,0.4-3.6,0.6l-0.8-3.7C199.3,140.2,200.6,140,201.9,139.9z M196,141l0.9,3.6
			c-1.2,0.3-2.4,0.6-3.5,1l-1.2-3.6C193.5,141.6,194.8,141.3,196,141z M190.4,142.8l1.4,3.5c-1.1,0.4-2.2,0.9-3.3,1.4l-1.6-3.4
			C188,143.8,189.2,143.2,190.4,142.8L190.4,142.8z M185,145.2l1.8,3.3c-1.1,0.6-2.1,1.2-3.1,1.8l-2-3.2
			C182.8,146.5,183.9,145.8,185,145.2z M180,148.3l2.2,3.1c-1,0.7-2,1.4-2.9,2.2l-2.4-2.9C177.9,149.9,178.9,149.1,180,148.3z
			 M175.4,152l2.5,2.8c-0.9,0.8-1.8,1.7-2.6,2.5l-2.7-2.6C173.5,153.8,174.4,152.9,175.4,152z M171.2,156.2l2.8,2.5
			c-0.8,0.9-1.6,1.9-2.3,2.8l-3-2.2C169.5,158.2,170.4,157.2,171.2,156.2L171.2,156.2z M167.6,160.9l3.1,2.1c-0.7,1-1.3,2-1.9,3.1
			l-3.3-1.9C166.1,163.1,166.8,161.9,167.6,160.9L167.6,160.9z M164.6,166l3.3,1.7c-0.6,1.1-1.1,2.2-1.5,3.3l-3.5-1.5
			C163.4,168.3,163.9,167.1,164.6,166L164.6,166z M162.2,171.4l3.5,1.3c-0.4,1.1-0.8,2.3-1.1,3.5l-3.6-1
			C161.3,173.8,161.7,172.6,162.2,171.4L162.2,171.4z M159.7,180.8c0.2-1.3,0.5-2.6,0.8-3.8l3.7,0.9c-0.3,1.2-0.5,2.3-0.7,3.5v0.1
			L159.7,180.8L159.7,180.8z M159.4,182.8l3.7,0.4c-0.1,1.2-0.2,2.4-0.3,3.6l-3.8-0.1C159.2,185.4,159.3,184.1,159.4,182.8
			L159.4,182.8z"/>
		<circle class="st8" cx="209.2" cy="188.8" r="25.5"/>
		<line class="st9" x1="203.4" y1="183.1" x2="292" y2="422.4"/>
	</g>
</g>
</svg>
