<?xml version="1.0" encoding="UTF-8"?><svg id="uuid-ba8046cc-e989-4172-a688-fce25049a422" xmlns="http://www.w3.org/2000/svg" width="115" height="19" viewBox="0 0 115 19"><path d="m29.1,9.41c-.67-.83-1.97-1.33-3.2-1.33-2.49,0-4.54,1.73-4.54,4.49s2.09,4.49,4.6,4.49c1.25,0,2.42-.43,3.13-1.19l-1.33-1.34c-.41.49-1.13.76-1.79.76-1.61,0-2.4-1.4-2.4-2.73s.78-2.73,2.34-2.73c.69,0,1.42.35,1.75.83l1.45-1.27h0Z"/><path d="m30.27,16.82h2.12v-4.54c0-.62.37-2.28,2.28-2.28.2,0,.37.02.66.09v-1.95c-.14-.04-.35-.06-.51-.06-1.11,0-2.01.69-2.48,1.66h-.04v-1.42h-2.03v8.49h0Z"/><path d="m37.81,11.72c.09-1.19,1.09-2.05,2.35-2.05,1.38,0,1.99.96,1.99,2.05h-4.35,0Zm6.47.96c0-3.06-1.74-4.6-4.1-4.6-2.57,0-4.49,1.8-4.49,4.54s1.95,4.44,4.56,4.44c1.61,0,2.81-.57,3.64-1.7l-1.42-1.13c-.48.67-1.19,1.09-2.24,1.09-1.23,0-2.34-.88-2.42-2.09h6.45c.02-.19.02-.37.02-.57v.02Z"/><path d="m54.53,3.45h-2.12v5.96h-.05c-.45-.55-1.29-1.33-2.85-1.33-2.42,0-4.12,1.95-4.12,4.46s1.6,4.53,4.17,4.53c1.19,0,2.34-.55,2.92-1.52h.04v1.27h2.01V3.45Zm-6.98,9.09c0-1.33.8-2.73,2.44-2.73,1.56,0,2.49,1.43,2.49,2.75s-.94,2.73-2.49,2.73c-1.64,0-2.44-1.43-2.44-2.75Z"/><path d="m56.72,16.82h2.12v-8.49h-2.12v8.49Zm-.3-11.37c0,.67.56,1.27,1.34,1.27s1.38-.55,1.38-1.27-.6-1.27-1.38-1.27-1.34.6-1.34,1.27Z"/><path d="m61.89,10.03v3.96c0,1.62.51,3,2.76,3,.48,0,1.04-.09,1.42-.23l-.07-1.66c-.25.12-.62.18-.9.18-.94,0-1.11-.55-1.11-1.31v-3.94h2.12v-1.7h-2.12v-2.46h-2.09v2.46h-1.48v1.7s1.48,0,1.48,0Z"/><path d="m67.67,16.82h2.12v-4.35h.06l3.36,4.35h2.81l-3.91-4.65,3.68-3.84h-2.73l-3.22,3.57h-.06V3.45h-2.12v13.37h0Z"/><path d="m82.19,16.82h1.98v-5.17c0-1.7-.74-3.57-3.78-3.57-1.29,0-2.63.46-3.59,1.34l1.09,1.29c.55-.55,1.42-.97,2.32-.97,1.06,0,1.95.51,1.95,1.56v.21c-2.65,0-5.83.35-5.83,2.88,0,1.98,1.82,2.63,3.18,2.63,1.21,0,2.21-.55,2.63-1.29h.06v1.08h0Zm-.04-3.56c0,1.34-.78,2.18-2.23,2.18-.72,0-1.48-.25-1.48-1.06,0-1.25,1.89-1.42,3.24-1.42h.48s0,.3,0,.3Z"/><path d="m85.99,16.82h2.12v-4.54c0-.62.37-2.28,2.28-2.28.19,0,.37.02.66.09v-1.95c-.14-.04-.35-.06-.51-.06-1.11,0-2.01.69-2.48,1.66h-.04v-1.42h-2.03v8.49h0Z"/><path d="m102.79,8.08c-1.27,0-2.23.58-2.79,1.61-.47-.96-1.34-1.61-2.65-1.61s-2.26.78-2.63,1.61h-.04v-1.36h-2.01v8.49h2.12v-4.66c0-1.13.59-2.3,1.85-2.3,1.08,0,1.58.8,1.58,1.84v5.13h2.12v-4.64c0-1.09.55-2.34,1.87-2.34s1.6,1.25,1.6,2.26v4.7h2.12v-5.3c0-1.73-.92-3.43-3.13-3.43h0Z"/><path d="m113.01,16.82h1.99v-5.17c0-1.7-.74-3.57-3.78-3.57-1.29,0-2.63.46-3.59,1.34l1.1,1.29c.55-.55,1.42-.97,2.32-.97,1.06,0,1.95.51,1.95,1.56v.21c-2.65,0-5.83.35-5.83,2.88,0,1.98,1.82,2.63,3.18,2.63,1.2,0,2.21-.55,2.63-1.29h.05v1.08h0Zm-.04-3.56c0,1.34-.78,2.18-2.23,2.18-.73,0-1.48-.25-1.48-1.06,0-1.25,1.89-1.42,3.24-1.42h.47s0,.3,0,.3Z"/><path d="m9.5,19c5.24,0,9.5-4.26,9.5-9.5S14.74,0,9.5,0,0,4.26,0,9.5s4.26,9.5,9.5,9.5Z" fill="#008600"/><path d="m4.71,10.45c0-1.63.79-2.47,2.05-2.47.94,0,1.53.37,1.74.47.16-.16.26-.42.26-.68,0-.47-.52-.94-2.05-.94-1.8,0-3.32,1.26-3.32,3.63s1.37,3.63,3.15,3.63c1.1,0,1.95-.37,2.21-.48v-1.31c-.26.21-1.15.63-2,.63-1.15,0-2.05-.84-2.05-2.47h0Zm8.74-.07c.79-.94,1.53-2.05,2.05-3.47l-1.15-.42c-.73,2-1.84,3.36-3.15,4.47v-6.9h-1.26v9.84h1.26v-1.47c.48-.37.89-.73,1.37-1.16l1.16,2c.27.48.68.73,1.26.73.31,0,.52-.1.58-.16l-2.11-3.47h0Z" fill="#fff"/></svg>