<svg xmlns="http://www.w3.org/2000/svg" width="100" height="21" fill="none"><path fill="#FFDF10" d="M10 20.3c5.5 0 10-4.5 10-10S15.5.3 10 .3a10 10 0 1 0 0 20z"/><path fill="#000" d="M12.94 9.91h.28c.06-.11.06-.33 0-.55-.05-.34-.16-.56-.33-.5-.22.05-.22.27-.11.6.05.17.1.34.16.45zm-1.66.28c.16.05.22.11.28.05v-.1c-.06-.12-.23-.23-.4-.28-.33-.12-.66-.12-.94.1-.1.06-.16.17-.16.23 0 0 0 .05.05.05.06 0 .33-.1.67-.16.16 0 .39.05.5.1zm-.28.17a.9.9 0 0 0-.33.16l-.11.11v.06h.05c.06 0 .11-.06.11-.06.28-.1.45-.05.61-.05h.17v-.06c-.06-.1-.22-.22-.5-.16zm1.39.55c.1.06.28.06.28-.06.05-.1 0-.22-.17-.27-.11-.06-.28-.06-.28.05s.06.23.17.28zm.78-.67c-.11 0-.17.12-.17.23 0 .1.06.27.17.27.1 0 .16-.1.16-.22.06-.16-.05-.28-.16-.28zm-6.73 2.5c0-.05-.05 0-.1 0h-.12c-.05 0-.1-.05-.17-.1-.05-.06-.05-.17 0-.28v-.06c.06-.17.23-.5.06-.78a.7.7 0 0 0-.5-.39c-.22 0-.44.06-.56.23-.22.22-.27.55-.22.72 0 .05.06.05.06.05.05 0 .1 0 .1-.1v-.06c0-.06.06-.17.12-.23a.3.3 0 0 1 .28-.16c.1 0 .22 0 .33.05.17.11.22.28.17.5a.6.6 0 0 0-.06.45c0 .28.22.44.4.44.16 0 .27-.1.27-.16l-.06-.12z"/><path fill="#000" d="m15.72 12.19-.1-.33c-.06-.17-.12-.28-.12-.28.22-.34.22-.61.22-.78a1.05 1.05 0 0 0-.28-.56 2.4 2.4 0 0 0-1-.5l-.27-.05V8.8c0-.17 0-.5-.11-.78a1.79 1.79 0 0 0-.56-.94c.67-.67 1.06-1.45 1.06-2.06 0-1.22-1.5-1.6-3.4-.83l-.38.17-.72-.73c-2.17-1.89-8.78 5.45-6.67 7.23l.5.38c-.11.34-.17.67-.11 1.06.05.5.28.94.72 1.33.39.34.89.56 1.39.56a5.37 5.37 0 0 0 4.89 3.11c2.39.06 4.33-1.06 5.17-3.06.05-.16.27-.77.27-1.33 0-.5-.27-.72-.5-.72zm-9.66 1.5h-.23c-.72 0-1.5-.67-1.55-1.45-.11-.83.33-1.5 1.1-1.66.12 0 .23-.06.34 0 .45 0 1.06.33 1.22 1.28.06.83-.1 1.66-.89 1.83zm-.84-3.56c-.5.11-.89.4-1.16.73a4.6 4.6 0 0 1-.5-.45C3.16 9.63 4 8.13 4.6 7.3c1.5-2.11 3.78-3.72 4.83-3.39.17.06.73.72.73.72S9.1 5.24 8.1 6.08a8.49 8.49 0 0 0-2.89 4.05zm7.5 3.23c.06 0 .06 0 0 0v-.06s-1.1.17-2.16-.22c.1-.4.44-.22.88-.22a6 6 0 0 0 2.11-.23 4.3 4.3 0 0 0 1.62-.77c.16.38.22.77.22.77s.11 0 .22.06c.11.05.17.17.11.5a3.2 3.2 0 0 1-1.83 2.33c-.22.11-.39.22-.61.28-1.67.56-3.4-.06-3.95-1.33-.05-.11-.05-.23-.1-.28-.23-.83-.06-1.89.6-2.5.06-.06.06-.11.06-.17 0-.05-.06-.1-.06-.16-.22-.34-1-.84-.83-1.9.11-.77.78-1.27 1.39-1.27h.17c.27 0 .5.05.72.05.39 0 .72-.05 1.1-.38.12-.12.23-.23.4-.23h.16c.11 0 .17.06.28.11.34.23.34.73.4 1.06 0 .22.05.72.05.89 0 .33.1.39.27.44.11.06.17.06.34.11.39.12.66.23.83.4.11.1.11.22.17.27.05.33-.28.78-1.11 1.22-.95.45-2.06.56-2.9.45-.05 0-.27-.06-.27-.06-.61-.1-1 .72-.61 1.28.22.33.89.61 1.55.61 1.5 0 2.73-.67 3.11-1.22l.06-.06v-.05c-.33.22-1.94 1.22-3.6.94l-.4-.1c-.17-.06-.44-.23-.5-.5 1.28.32 2.11-.06 2.11-.06zM7.94 7.24A6.84 6.84 0 0 1 9.68 5.8s.05 0 .05.06c-.05.05-.1.27-.16.38 0 0 0 .06.05 0 .33-.22 1-.5 1.56-.55 0 0 .05.05 0 .05-.11.06-.17.17-.23.23v.05c.4 0 .95.11 1.28.34v.05a5.43 5.43 0 0 0-4.28.83s.06.06 0 0zM59.28 10.04c.57 0 1.3.31 1.61.68l1.45-1.4a4.15 4.15 0 0 0-3-1.15 4.12 4.12 0 0 0-4.3 4.25c0 2.5 1.76 4.25 4.35 4.25 1.19 0 2.33-.36 3-1.09l-1.4-1.5c-.3.42-.98.68-1.6.68-1.35 0-2.02-1.2-2.02-2.39-.05-1.19.67-2.33 1.92-2.33zm8.97-1.92c-1.09 0-1.97.68-2.39 1.25h-.05V3.93h-2.23v12.43h2.23v-4.35c0-.93.52-1.92 1.66-1.92.88 0 1.4.62 1.4 1.92v4.4h2.33v-4.97c.05-1.55-.72-3.32-2.95-3.32zm19.17 3.94v4.4h2.23V11.5c0-1.5-.73-3.26-2.96-3.26a2.9 2.9 0 0 0-2.48 1.45 2.8 2.8 0 0 0-2.49-1.45c-1.09 0-2.02.83-2.43 1.45h-.06V8.44h-2.12v8.03h2.23v-4.4c0-1 .51-1.98 1.6-1.98 1.2 0 1.35 1.1 1.35 1.56v4.82h2.23V12.1c0-.98.57-1.96 1.66-1.96.93 0 1.24.88 1.24 1.91zm-53.06-.1v4.4h2.23V11.4c0-1.5-.73-3.27-2.95-3.27a2.9 2.9 0 0 0-2.49 1.45 2.8 2.8 0 0 0-2.49-1.45c-1.09 0-2.02.83-2.43 1.45h-.05V8.33H24v8.03h2.23v-4.4c0-.99.52-1.97 1.6-1.97 1.2 0 1.35 1.09 1.35 1.55v4.82h2.23v-4.35c0-.98.57-1.97 1.66-1.97 1.03 0 1.3.88 1.3 1.92zm7.3-3.84c-1.29 0-2.58.52-3.41 1.3l1.14 1.3c.52-.52 1.4-.84 2.12-.84.78 0 1.6.42 1.6 1.35v.16c-2.32 0-5.28.3-5.28 2.7 0 1.75 1.5 2.53 3.06 2.53.93 0 1.76-.52 2.28-1.14v.93h2.07v-4.87c0-1.3-.46-3.42-3.57-3.42zm-.4 6.8c-.47 0-1.25-.16-1.25-.89 0-.78.98-1.24 2.85-1.24h.31v.15c-.05 1.2-.72 1.97-1.92 1.97zM74.05 4.5c-.73 0-1.35.57-1.35 1.3 0 .72.62 1.29 1.34 1.29.78 0 1.4-.57 1.4-1.3 0-.78-.62-1.3-1.4-1.3zm1.13 3.83h-2.23v8.03h2.23V8.33zm-27-3.83c-.72 0-1.34.57-1.34 1.3 0 .72.62 1.29 1.35 1.29.77 0 1.4-.57 1.4-1.3 0-.78-.63-1.3-1.4-1.3zm1.15 3.83H47.1v8.03h2.23V8.33zm4.2-4.4H51.3v12.43h2.22V3.93zM95.4 9.99c1.45 0 2.12 1.19 2.12 2.33 0 1.2-.77 2.38-2.12 2.38s-2.13-1.19-2.13-2.33S94.06 10 95.4 10zm.41-1.87c-1.4 0-2.23.88-2.53 1.25h-.06V8.33H91.1V20.3h2.23v-4.92h.05a3.7 3.7 0 0 0 2.59 1.19c2.28 0 3.89-1.81 3.89-4.25-.06-2.44-1.77-4.2-4.05-4.2z"/></svg>
