<svg xmlns="http://www.w3.org/2000/svg" width="29" height="20" fill="none" viewBox="0 0 29 20">
  <mask id="a" width="29" height="20" x="0" y="0" maskUnits="userSpaceOnUse">
    <path fill="#fff" fill-rule="evenodd" d="M0 0v19.854h28.18V0H0z" clip-rule="evenodd"/>
  </mask>
  <g mask="url(#a)">
    <path fill="#0077C5" fill-rule="evenodd" d="M11.208 14.117v-8.38l7.365 4.19-7.365 4.19zM27.592 3.1A3.54 3.54 0 0025.1.593C22.902 0 14.09 0 14.09 0S5.278 0 3.08.593A3.54 3.54 0 00.59 3.1C0 5.312 0 9.927 0 9.927s0 4.615.59 6.827a3.541 3.541 0 002.49 2.507c2.198.593 11.01.593 11.01.593s8.813 0 11.01-.593a3.541 3.541 0 002.492-2.507c.588-2.212.588-6.827.588-6.827s0-4.615-.588-6.827z" clip-rule="evenodd"/>
  </g>
</svg>
