<?xml version="1.0" encoding="UTF-8"?><svg id="uuid-5c96039d-a1d8-45d9-9d37-d90e08aebf15" xmlns="http://www.w3.org/2000/svg" width="89.93" height="19" viewBox="0 0 89.93 19"><path d="m21.37,9.91v-1.72h1.51v-2.49h2.12v2.49h2.16v1.72h-2.16v3.99c0,.78.18,1.32,1.13,1.32.28,0,.67-.06.91-.18l.08,1.68c-.38.13-.95.23-1.43.23-2.27,0-2.79-1.4-2.79-3.04v-4.01h-1.52Z"/><path d="m36.15,16.78h-2.04v-1.38h-.03c-.38.85-1.4,1.62-2.67,1.62-2.23,0-3.17-1.72-3.17-3.48v-5.37h2.15v4.76c0,1.02.23,2.29,1.61,2.29s2-1.19,2-2.33v-4.72h2.16v8.6h0Z"/><path d="m40.38,8.19v1.43h.03c.48-.99,1.38-1.68,2.5-1.68.17,0,.38.02.51.06v1.97c-.28-.08-.48-.1-.67-.1-1.93,0-2.31,1.68-2.31,2.31v4.6h-2.16v-8.6h2.09Z"/><path d="m46.66,3.26v6.03h.06c.44-.55,1.31-1.34,2.88-1.34,2.45,0,4.18,1.97,4.18,4.51s-1.62,4.59-4.22,4.59c-1.21,0-2.37-.55-2.95-1.54h-.03v1.29h-2.04V3.27h2.13,0Zm2.46,6.42c-1.58,0-2.53,1.45-2.53,2.79s.95,2.76,2.53,2.76c1.66,0,2.47-1.44,2.47-2.79s-.81-2.76-2.47-2.76Z"/><path d="m59.65,7.94c2.59,0,4.67,1.81,4.67,4.51s-2.08,4.59-4.67,4.59-4.67-1.88-4.67-4.59,2.08-4.51,4.67-4.51Zm0,7.31c1.7,0,2.49-1.44,2.49-2.79s-.79-2.76-2.49-2.76-2.49,1.42-2.49,2.76.79,2.79,2.49,2.79Z"/><path d="m64.83,9.91v-1.72h1.51v-2.49h2.12v2.49h2.16v1.72h-2.16v3.99c0,.78.18,1.32,1.12,1.32.29,0,.66-.06.91-.18l.08,1.68c-.38.13-.95.23-1.43.23-2.27,0-2.79-1.4-2.79-3.04v-4.01h-1.51Z"/><path d="m77.3,15.69h-.06c-.43.75-1.44,1.31-2.67,1.31-1.38,0-3.22-.67-3.22-2.67,0-2.56,3.22-2.92,5.91-2.92v-.21c0-1.05-.89-1.58-1.97-1.58-.91,0-1.79.43-2.35.99l-1.11-1.31c.97-.89,2.33-1.36,3.63-1.36,3.08,0,3.83,1.89,3.83,3.61v5.23h-2v-1.09h.02,0Zm-.03-2.81h-.48c-1.36,0-3.28.17-3.28,1.43,0,.82.77,1.07,1.51,1.07,1.47,0,2.26-.84,2.26-2.19v-.3h0Z"/><path d="m83.77,12.23l-3.1-4.03h2.57l1.86,2.67,1.92-2.67h2.47l-3.08,4.03,3.51,4.56h-2.61l-2.23-3.13-2.26,3.13h-2.54l3.49-4.56h0Z"/><path d="m9.5,19c5.24,0,9.5-4.26,9.5-9.5S14.74,0,9.5,0,0,4.26,0,9.5s4.26,9.5,9.5,9.5Z" fill="#d52b1e"/><path d="m7.4,12.96c-1.1-.78-2.16-1.62-3.15-2.53-.36.78-.67,1.62-1,2.47,1.59,1.37,3.73,2.89,5.21,3.79,1.89-4.89,4.84-8.1,7.68-10.35-.36-.78-.85-1.47-1.47-2.04-2.99,2.31-5.47,5.25-7.26,8.67h0Z" fill="#fff"/></svg>