<svg xmlns="http://www.w3.org/2000/svg" width="37.897" height="27.104" viewBox="0 0 37.897 27.104">
  <path id="Path_68" data-name="Path 68" d="M204.45,91.6c-.312.219-.618.449-.938.656a17.068,17.068,0,0,1-6.575,2.388,27.116,27.116,0,0,1-11.8-.507,15.288,15.288,0,0,1-5.348-2.589,10.3,10.3,0,0,0,5.294,3.67,1.838,1.838,0,0,1-.187.354c-.58.637-1.155,1.28-1.761,1.891a.92.92,0,0,1-.613.263,11.867,11.867,0,0,1-8.958-4.162,1.916,1.916,0,0,1-.484-1.383,43.528,43.528,0,0,1,4.458-17.805,1.7,1.7,0,0,1,.548-.637,18.017,18.017,0,0,1,8.165-3.086.626.626,0,0,1,.25-.019,4.346,4.346,0,0,1,.456.217,1.6,1.6,0,0,1-.354.289c-1.589.659-3.208,1.25-4.765,1.976a14.432,14.432,0,0,0-2.559,1.689A26.8,26.8,0,0,1,192,71.944a25.516,25.516,0,0,1,12.732,2.775,16.4,16.4,0,0,0-3.75-2.183c-1.33-.563-2.692-1.05-4.064-1.58.16-.386.485-.341.8-.309a16.122,16.122,0,0,1,6.123,1.851c2.967,1.612,2.332.987,3.59,3.877a42.77,42.77,0,0,1,3.412,13.551c.067.79.069,1.586.126,2.378a1.572,1.572,0,0,1-.4,1.159,11.379,11.379,0,0,1-7.194,4.082c-2.1.356-2.1.337-3.483-1.3-.812-.96-.808-.952.359-1.412a9.836,9.836,0,0,0,4.052-2.865,3.035,3.035,0,0,0,.2-.314Zm-21.862-5.289a3.361,3.361,0,1,0,3.341-3.557A3.456,3.456,0,0,0,182.588,86.313Zm11.759,0a3.361,3.361,0,1,0,3.338-3.56A3.456,3.456,0,0,0,194.347,86.316Z" transform="translate(-173.076 -70.627)" fill="#383636"/>
</svg>
