<svg xmlns="http://www.w3.org/2000/svg" width="35.071" height="31.578" viewBox="0 0 35.071 31.578">
  <g id="Group_85" data-name="Group 85" transform="translate(-356.723 -796.022)">
    <path id="Path_188" data-name="Path 188" d="M368.038,798.311l4.43,1.147c0-.618-.013-1.1,0-1.576.039-1.147.655-1.852,1.608-1.859a1.572,1.572,0,0,1,1.588,1.849,3.739,3.739,0,0,0,1.762,3.794,16.931,16.931,0,0,1,4.527,5.21,6.057,6.057,0,0,1-.16,6.975c-.782,1.116-1.707,2.13-2.558,3.2a2.57,2.57,0,0,1-2.371.922c-1.159-.068-1.162-.012-1.167,1.16-.008,1.982,0,1.889,1.937,2.009a4.6,4.6,0,0,0,4.161-1.759,4.059,4.059,0,0,1,2.252-1.332c2.285-.615,4.556-1.286,6.821-1.971.678-.2.864-.02.912.666a1.692,1.692,0,0,1-1.151,2.011,6.558,6.558,0,0,0-3.139,2.883c-.807,1.322-1.676,2.613-2.61,3.847a5.189,5.189,0,0,1-4.444,2.116c-4.709-.045-9.418.008-14.127-.022a9.514,9.514,0,0,1-9.574-8.849c-.053-1.058,0-1.123,1.064-1.125,2.236-.005,4.473.01,6.709-.008.609,0,.935.11,1,.844a2.837,2.837,0,0,0,2.9,2.664c1.078.027,2.158-.012,3.236.014.559.013.839-.175.815-.765s-.013-1.157-.008-1.736c0-.458-.2-.667-.67-.662-.947.011-1.894.011-2.841-.008-.77-.015-.853-.182-.454-.829.456-.738.905-1.481,1.372-2.213A10.324,10.324,0,0,0,371,805.75c-.72-2.19-1.672-4.3-2.523-6.451C368.377,799.042,368.254,798.793,368.038,798.311Z" transform="translate(0)" fill="#383636"/>
    <path id="Path_189" data-name="Path 189" d="M369.038,846.313l7.779-12.168c.223.275.365.377.406.511.6,1.955,1.286,3.891,1.735,5.88.476,2.107-.569,3.894-1.624,5.616a.887.887,0,0,1-.641.355c-2.342.024-4.684.016-7.025.006A2.945,2.945,0,0,1,369.038,846.313Z" transform="translate(-10.37 -32.102)" fill="#383636"/>
  </g>
</svg>
