<svg xmlns="http://www.w3.org/2000/svg" width="31.704" height="25.969" viewBox="0 0 31.704 25.969">
  <path id="Path_69" data-name="Path 69" d="M750.22,388.451a6.715,6.715,0,0,1-6.07-4.476c.492,0,.95.02,1.4-.005a8.575,8.575,0,0,0,1.365-.195,6.857,6.857,0,0,1-4.124-3.043,6.356,6.356,0,0,1-.953-3.473,6.7,6.7,0,0,0,2.912.774,6.616,6.616,0,0,1-2.7-4,6.538,6.538,0,0,1,.715-4.725,18.792,18.792,0,0,0,13.5,6.853c-.042-.367-.084-.693-.116-1.02a6.566,6.566,0,0,1,11.152-5.162.56.56,0,0,0,.428.118,12.426,12.426,0,0,0,3.518-1.3c.1-.056.208-.11.377-.2a6.678,6.678,0,0,1-2.741,3.542l.053.119,3.478-.947c-.061.091-.13.205-.209.313a12.578,12.578,0,0,1-2.685,2.729.613.613,0,0,0-.269.566,18.832,18.832,0,0,1-7.74,15.744,17.129,17.129,0,0,1-8.933,3.319,18.689,18.689,0,0,1-11.415-2.473,3.016,3.016,0,0,1-.453-.315A13.494,13.494,0,0,0,750.22,388.451Z" transform="translate(-740.707 -368.107)" fill="#383636"/>
</svg>
