<svg width="304" height="35" viewBox="0 0 304 35" fill="none" xmlns="http://www.w3.org/2000/svg">
<path d="M0.881509 35L0.881508 7.4466L0.339119 3.10748L13.465 3.10748L23.011 22.0911L32.774 3.10748L45.1948 3.10748L45.1948 35L34.8351 35L34.8351 16.7215L34.2385 16.7215L31.9604 22.5793L28.001 31.7457L18.1295 31.7457L14.0073 22.5793L11.7835 16.7215L11.2412 16.7215L11.2412 35L0.881509 35ZM60.5609 35C58.1744 35 56.3845 34.6565 55.1913 33.9695C53.998 33.2824 53.2025 32.3423 52.8047 31.149C52.4431 29.9196 52.2623 28.5094 52.2623 26.9184L52.2623 18.7283C52.2623 17.2096 52.4612 15.8536 52.859 14.6604C53.2567 13.431 54.0342 12.4727 55.1913 11.7857C56.3845 11.0625 58.1744 10.7009 60.5609 10.7009L75.6394 10.7009C78.0259 10.7009 79.7977 11.0625 80.9548 11.7857C82.148 12.4727 82.9255 13.431 83.287 14.6604C83.6848 15.8536 83.8837 17.2096 83.8837 18.7283L83.8837 26.9184C83.8837 28.5094 83.6848 29.9196 83.287 31.149C82.9255 32.3423 82.148 33.2824 80.9548 33.9695C79.7977 34.6565 78.0259 35 75.6394 35L60.5609 35ZM64.9 28.1659L71.3545 28.1659C73.0901 28.1659 73.9399 27.4427 73.9037 25.9963L73.9037 19.7046C73.9037 18.9814 73.7048 18.439 73.3071 18.0774C72.9455 17.7158 72.2946 17.535 71.3545 17.535L64.9543 17.535C64.0141 17.535 63.3452 17.7158 62.9474 18.0774C62.5497 18.439 62.3508 18.9814 62.3508 19.7046L62.3508 25.9963C62.3146 27.4427 63.1644 28.1659 64.9 28.1659ZM97.5854 35C95.1989 35 93.409 34.6565 92.2157 33.9695C91.0225 33.2824 90.227 32.3423 89.8292 31.149C89.4676 29.9196 89.2868 28.5094 89.2868 26.9184L89.2868 18.7283C89.2868 17.2096 89.4857 15.8536 89.8834 14.6604C90.2812 13.431 91.0586 12.4727 92.2157 11.7857C93.409 11.0625 95.1989 10.7009 97.5854 10.7009L112.664 10.7009C115.05 10.7009 116.822 11.0625 117.979 11.7857C119.172 12.4727 119.95 13.431 120.312 14.6604C120.709 15.8536 120.908 17.2096 120.908 18.7283L120.908 26.9184C120.908 28.5094 120.709 29.9196 120.312 31.149C119.95 32.3423 119.172 33.2824 117.979 33.9695C116.822 34.6565 115.05 35 112.664 35L97.5854 35ZM101.924 28.1659L108.379 28.1659C110.115 28.1659 110.964 27.4427 110.928 25.9963L110.928 19.7046C110.928 18.9814 110.729 18.439 110.332 18.0774C109.97 17.7158 109.319 17.535 108.379 17.535L101.979 17.535C101.039 17.535 100.37 17.7158 99.9719 18.0774C99.5741 18.439 99.3753 18.9814 99.3753 19.7046L99.3753 25.9963C99.3391 27.4427 100.189 28.1659 101.924 28.1659ZM126.854 35L126.854 10.7009L134.718 10.7009L136.888 11.7857C138.407 11.4964 140.233 11.2433 142.366 11.0264C144.536 10.8094 146.56 10.7009 148.441 10.7009L151.153 10.7009C152.961 10.7009 154.353 10.9541 155.329 11.4603C156.305 11.9665 156.992 12.5993 157.39 13.3586C157.824 14.118 158.077 14.8954 158.15 15.6909C158.258 16.4503 158.312 17.1011 158.312 17.6435L158.312 35L148.387 35L148.387 19.7046C148.387 18.2582 147.519 17.535 145.783 17.535L138.515 17.535C137.828 17.535 137.376 17.6074 137.159 17.752C136.978 17.8605 136.888 18.1859 136.888 18.7283L136.888 35L126.854 35ZM188.037 35C184.168 35 181.366 34.1503 179.63 32.4508C177.895 30.7513 177.027 28.0032 177.027 24.2064L177.027 14.2807C177.027 10.3755 177.985 7.53699 179.901 5.76519C181.818 3.95722 184.53 3.05324 188.037 3.05324L203.875 3.05324C206.37 3.05324 208.268 3.19787 209.57 3.48715C210.908 3.74027 211.577 4.01146 211.577 4.30073L209.896 11.0806C208.992 10.9721 207.22 10.8637 204.58 10.7552C201.977 10.6105 198.686 10.5382 194.709 10.5382L191.943 10.5382C190.243 10.5382 189.086 10.8637 188.471 11.5145C187.893 12.1292 187.603 13.0875 187.603 14.3892L187.603 23.6641C187.603 24.8935 187.857 25.8517 188.363 26.5387C188.905 27.1896 190.098 27.515 191.943 27.515L194.166 27.515C199.337 27.515 203.278 27.4608 205.99 27.3523C208.702 27.2077 210.33 27.063 210.872 26.9184L214.181 32.7762C214.181 32.957 213.801 33.2282 213.042 33.5898C212.318 33.9514 211.071 34.2768 209.299 34.5661C207.563 34.8554 205.141 35 202.031 35L188.037 35ZM219.083 35L219.083 4.9516L218.541 0.612485L228.955 0.612485L228.955 35L219.083 35ZM243.411 35C241.024 35 239.234 34.6565 238.041 33.9695C236.884 33.2463 236.106 32.27 235.709 31.0406C235.347 29.8111 235.166 28.4552 235.166 26.9726L235.166 10.7009L245.146 10.7009L245.146 25.9963C245.146 27.4427 246.014 28.1659 247.75 28.1659L253.933 28.1659C254.729 28.1659 255.199 28.0936 255.343 27.9489C255.488 27.8043 255.56 27.3342 255.56 26.5387L255.56 10.7009L265.594 10.7009L265.594 35L257.73 35L255.669 33.9152C254.222 34.2045 252.559 34.4576 250.679 34.6746C248.798 34.8915 246.9 35 244.984 35L243.411 35ZM272.091 35L272.091 0.612485L281.963 0.612485L281.963 11.3518C283.518 11.171 285.344 11.0264 287.441 10.9179C289.574 10.7733 291.997 10.7009 294.709 10.7009L295.251 10.7009C297.602 10.7009 299.373 11.0625 300.567 11.7857C301.76 12.4727 302.555 13.431 302.953 14.6604C303.351 15.8536 303.55 17.2096 303.55 18.7283L303.55 26.9184C303.55 28.2563 303.315 29.558 302.845 30.8236C302.411 32.053 301.597 33.0655 300.404 33.861C299.211 34.6203 297.493 35 295.251 35L294.709 35C291.708 35 289.086 34.9277 286.844 34.783C284.602 34.6022 282.74 34.4214 281.258 34.2407L279.793 35L272.091 35ZM283.644 28.1116L290.912 28.1116C292.648 28.1116 293.516 27.3885 293.516 25.9421L293.516 19.7046C293.552 18.9091 293.389 18.3486 293.027 18.0232C292.666 17.6978 291.961 17.535 290.912 17.535L290.37 17.535C288.49 17.535 286.79 17.5893 285.271 17.6978C283.753 17.8062 282.65 17.8966 281.963 17.969L281.963 26.4302C281.963 27.1896 282.035 27.6597 282.18 27.8405C282.361 28.0212 282.849 28.1116 283.644 28.1116Z" fill="white"/>
</svg>
