<svg width="70" height="70" xmlns="http://www.w3.org/2000/svg"><g fill="none" fill-rule="evenodd"><path d="M6.324 32.598c-.432-3.03-.432-5.367 0-7.012C8.82 16.095 15.146 10 22.372 10H47.89c3.502 0 13.587 6.406 15.299 10.671 1.711 4.265 5.307 11.39 1.711 18.206-.5.947-1.679 2.648-.845 3.915.95 1.443 4.3 6.855 3.915 10.524-.537 5.123-6.719 9.622-12.075 10.645-2.843.542-12.508-4.579-12.24-12.687.04-1.19-1.85-1.388-2.641-1.415-3.943-.135-9.17 2.099-13.254.47-7.729-3.085-20.027-7.864-21.435-17.73z" fill="#FFF"/><path d="M49.048 13C58.92 13 67 22.194 67 32c0 2.427-.5 4.5-1.5 7a6.96 6.96 0 01-.505.995A14.934 14.934 0 0056 37c-7.616 0-13.906 5.676-14.872 13.029H39l-9.294 9.27c-.63.628-1.706.181-1.706-.709v-8.56h-1.048C17.08 50.029 9 42.006 9 32.2S17.079 13 26.952 13h22.096zM44 35H24a1 1 0 000 2h20a1 1 0 000-2zM26 5l.117.007A1 1 0 0126 7h-1l-.364.003C12.654 7.197 3 16.97 3 29v1l-.007.117A1 1 0 011 30v-1l.003-.397C1.215 15.531 11.878 5 25 5h1zm12 24H24a1 1 0 000 2h14a1 1 0 000-2zm11-6H24a1 1 0 000 2h25a1 1 0 000-2z" fill-opacity=".3" fill="#52AE30"/><path d="M56 39l.307.004C63.345 39.167 69 44.923 69 52l-.004.307C68.833 59.345 63.077 65 56 65l-.307-.004C48.655 64.833 43 59.077 43 52l.004-.307C43.167 44.655 48.923 39 56 39zm0 2l-.288.004C49.77 41.157 45 46.02 45 52l.004.288C45.157 58.23 50.02 63 56 63l.288-.004C62.23 62.843 67 57.98 67 52l-.004-.288C66.843 45.77 61.98 41 56 41zM46.048 9c10.388 0 18.772 9.513 18.95 19.672L65 29l-.007.485c-.07 2.262-.616 4.51-1.4 6.485l-.172.419-.051.105a1 1 0 01-1.83-.773l.039-.11.166-.407c.704-1.783 1.183-3.779 1.247-5.75L63 29l-.003-.318c-.17-9.102-7.632-17.487-16.635-17.679L46.048 11H23.952l-.31.003c-8.993.194-16.468 8.758-16.639 17.879L7 29.2l.003.318c.17 8.995 7.552 16.336 16.625 16.508l.324.003H25l.117.006a1 1 0 01.876.877l.007.117v8.56l9.294-9.268a1 1 0 01.575-.284L36 46.03h2a1 1 0 01.117 1.993L38 48.03l-1.587-.001-10.707 10.68-.1.088a1 1 0 01-1.599-.676L24 58v-9.972h-.048l-.339-.002c-10.152-.18-18.43-8.39-18.61-18.489L5 29.2l.003-.324c.173-10.042 8.369-19.667 18.615-19.873L23.952 9h22.096zM50 50.5a1.5 1.5 0 110 3 1.5 1.5 0 010-3zm6 0a1.5 1.5 0 110 3 1.5 1.5 0 010-3zm6 0a1.5 1.5 0 110 3 1.5 1.5 0 010-3zM43 34l.117.007A1 1 0 0143 36H23l-.117-.007A1 1 0 0123 34h20zm-6-6l.117.007A1 1 0 0137 30H23l-.117-.007A1 1 0 0123 28h14zm11-6l.117.007A1 1 0 0148 24H23l-.117-.007A1 1 0 0123 22h25z" fill="#52AE30"/></g></svg>