<svg xmlns="http://www.w3.org/2000/svg" width="121" height="27"><path data-name="Color Fill 2" d="M119.739 18.371a6.683 6.683 0 01-5.571 2.385c-.348 0-.713 0-1.06-.018-.383 1.683-.475 2.09-.877 4.329l-.128.091-1.917.02-.092-.111 1.005-4.2.365-1.461c.347-1.59.713-3.2 1.042-4.79.329-1.647.419-2.293.566-3.219l.127-.111 1.955-.315.091.13-.182.758a4.555 4.555 0 012.611-.908 3.365 3.365 0 013.3 3.424q0 .138-.015.275a6.319 6.319 0 01-1.22 3.721zm-2.85-5.883a3.046 3.046 0 00-2.137.925l-1.333 5.919c.256.018.475.056.749.056a4.567 4.567 0 004.8-4.333q0-.09.006-.181a2.086 2.086 0 00-1.749-2.366 2.039 2.039 0 00-.336-.02zm-7.019 5.272l-.548 2.847-.128.111-1.794.075-.091-.13.219-.908a4.89 4.89 0 01-3.014 1.165 2.439 2.439 0 01-2.678-2.184 2.552 2.552 0 01-.012-.35 13.677 13.677 0 01.456-2.793l.421-1.816c.292-1.258.329-1.5.511-2.5l.128-.129 1.826-.075.092.111c-.147.63-.913 3.81-1 4.162a15.864 15.864 0 00-.42 2.478 1.43 1.43 0 001.313 1.535 1.4 1.4 0 00.2 0 3.736 3.736 0 002.484-1.073l.7-3.144c.456-2.127.53-2.516.767-3.866l.146-.129 1.845-.093.073.129-1.06 4.551zm-14.35 3.2c-2.43 0-3.763-1.275-3.763-3.791 0-2.257 1.188-6.256 5.17-6.256 2.392 0 3.817 1.35 3.817 3.733a8.16 8.16 0 01-.273 1.961c-.4 1.6-1.516 4.353-4.95 4.353zm1.413-8.693c-2.874 0-3.24 4.513-3.24 5.2a1.867 1.867 0 001.577 2.11 1.814 1.814 0 00.29.017c1.959 0 2.691-2.034 3.021-3.552a6.954 6.954 0 00.219-1.59c0-1.868-1.192-2.182-1.865-2.182zm-5.946.866a1.416 1.416 0 00-.767-.258 1.741 1.741 0 00-1.26.629c-.6.629-.877 1.7-1.279 3.531l-.381 1.828-.332 1.737-.147.129-1.9.037-.092-.111.676-2.7.4-1.756a47.885 47.885 0 00.913-4.791l.129-.13a17.643 17.643 0 001.973-.314l.09.129-.4 1.627a4.908 4.908 0 01.475-.72 2.644 2.644 0 011.9-1.128 2.116 2.116 0 01.841.222l.055.166-.713 1.816zm-7.017-2.845a2.775 2.775 0 00-1.31-.943 5.331 5.331 0 00-1.869-.318 4.5 4.5 0 00-1.388.2 5.587 5.587 0 00-2.813 2.127 7.953 7.953 0 00-1.333 4.218 4.187 4.187 0 00.731 2.477 3.576 3.576 0 002.96 1.276 4.874 4.874 0 001.918-.351l.234-.924c.384-1.776.456-2.2.676-3.588l.11-.111 1.993-.036.075.134q-.387 1.562-.767 3.128c-.2.851-.383 1.683-.566 2.534l-.11.148c-.2.092-.4.185-.6.258a8.713 8.713 0 01-3.032.5 6.442 6.442 0 01-3.361-.8 5.122 5.122 0 01-2.324-4.686c0-3.348 2.375-8.139 7.618-8.139a7.4 7.4 0 011.662.185 5.551 5.551 0 012.137.908l.037.166-.491 1.576zM58.144 20.821l-1.4 5.942-.172.124c-.565 0-1.105-.025-1.669-.025-.835 0-1.572.05-2.48.075l-.123-.174s.865-2.635 1.941-7.164c1.13-4.754 2.186-10.324 2.28-11.457l.179-.174 4.2-.7.147.173-.3 1.094a5.474 5.474 0 013.289-1.193c2.455 0 4.1 1.865 4.1 5.022a8.954 8.954 0 01-1.893 5.469c-2.424 3.012-5.494 2.988-8.099 2.988zM62.1 10.279a3.141 3.141 0 00-1.768.721l-1.572 7.063a4.467 4.467 0 003.289-.97 6.193 6.193 0 001.867-4.475c.001-2.09-1.324-2.339-1.816-2.339zm-8.464.176l-2.259-.05-1.1 4.616c-.7 2.9-.329 2.757.366 3.034a2.842 2.842 0 001.815-.216l.148.124-.742 2.586-.2.2a14.612 14.612 0 01-2.21.274c-1.854 0-4.574-.285-3.423-5.02.777-3.2 1.335-5.6 1.335-5.6l-1.718.05-.147-.2.712-2.511.171-.124h1.62l.716-3.205.171-.174c1.842-.423 2.333-.547 4.027-1.044l.148.149-1.075 4.325 2.5-.049.1.174c-.344 1.044-.443 1.318-.761 2.486zM43.87 14.2c-1.054 6.1-4.8 6.874-7.972 6.874-3.131 0-6.015-2.184-5.2-6.906.638-3.689 2.8-7.1 8.064-6.843 3.669.182 5.829 2.724 5.111 6.874zm-5.734-4.238c-1.154 0-2.462.593-3.216 4.212-.837 4.023.834 4.28 1.644 4.28.737 0 2.3-.4 3.089-4.258.546-2.7.113-4.235-1.514-4.235zM12.073 25.513A12.208 12.208 0 01.048 13.13 12.2 12.2 0 0112.059.954v4.44a7.843 7.843 0 107.76 7.827v-.015H24.2a12.21 12.21 0 01-12.107 12.307h-.02zm6.841-16.055A3.122 3.122 0 1122 6.337a3.1 3.1 0 01-3.086 3.121zM12.1 18.68a5.449 5.449 0 115.381-5.449A5.415 5.415 0 0112.1 18.68zm-5.377-5.449z" fill="#fff" fill-rule="evenodd"/></svg>