<svg xmlns="http://www.w3.org/2000/svg" width="133" height="29"><path data-name="Color Fill 1" d="M130.97 9.606l-2.67 2.91c1.322 3.581 1.536 4.111 2.715 7.258l-.165.241-3.943.1-.188-.145c-.4-1.348-1.569-5.238-2.167-6.848a319.298 319.298 0 00-1.357 6.752l-.165.144-3.9.1-.1-.168.97-4.169.377-1.634a62.584 62.584 0 001.111-6.321l.188-.193a38.544 38.544 0 003.943-.672l.17.175-.308 1.32-.448 2.379-.385 1.812q2.193-2.505 4.169-5.2l.236-.12c1.652 0 2.077 0 3.873-.071l.074.238c-.28.306-1.723 1.773-2.03 2.112zm-12.384 1.307a5.042 5.042 0 00-.4-.472 3.088 3.088 0 00-1.984-.676c-2.3 0-3.72 2.385-3.72 4.636 0 2.425 1.519 3.208 2.769 3.208a3.848 3.848 0 002.556-.954l.127.066-.734 2.865-.119.136c-.227.092-.437.186-.665.256a7.964 7.964 0 01-2.353.335c-3.329 0-5.5-2.067-5.5-5.674a7.236 7.236 0 016.911-7.534c.125 0 .249-.005.373 0a9.323 9.323 0 011.815.192 4.6 4.6 0 011.07.339 7.209 7.209 0 01.752.431l.032.114-.788 2.69zm-11.161 8.238c-.073.35-.18.893-.18.893-14.513.1-.137.1-.137.1H92.737l-.076-.108c.215-.652.417-1.291.764-2.421l.036-.119.074-.261.187-.17c.3-.139 1.811-1.025 3.59-4.385 1.61-3.045 2.512-5.272 2.512-5.272l.233-.135.082.01c1.217 0 3.183.024 4.367.024 1.4 0 1.779-.023 2.918-.048l.117.141c-.222 1.079-.22 1.078-.22 1.078l-.448 2.379-.283 1.333-.313 1.482q-.364 1.735-.711 3.473 1.091-.014 2.179-.06l.093.169-.145.637zm-4.054-8.858c-.457 0-.991 0-1.565.011l-1.591 3.2a15.118 15.118 0 01-2.429 3.641l1 .015h3.281l.315-1.351.378-1.634c.391-1.839.586-2.8.761-3.883h-.147zm-13.339 9.568l-.167.169-2.228.048-.119-.169.165-.965a4.983 4.983 0 01-3.462 1.231 4.348 4.348 0 01-4.4-4.3 4.455 4.455 0 01.014-.458 8.85 8.85 0 011.9-5.19C83.937 7.6 87 7.45 89.178 7.45l3.272.025.12.193-1.07 4.683c-.827 3.717-.993 4.636-1.468 7.51zm-1.352-10.6a6.433 6.433 0 00-3.724 1.015 6.511 6.511 0 00-2.536 4.974 2.786 2.786 0 002.531 3.01q.122.01.244.008a4.082 4.082 0 002.062-.554 8.565 8.565 0 00.784-.63l1.705-7.8c-.356.002-.71-.023-1.066-.023zm-9.486-.272c-.378.314-.616.555-1.068.965l-3.081 2.9 3.675 7.121-.143.193-2.632.074-.188-.142c-.618-1.5-.784-1.835-1.637-3.6l-1.657-3.421c-.52 2.372-.848 3.867-1.432 6.97l-.166.145-2.42.071-.118-.168.973-4.155.379-1.811a59.572 59.572 0 001.138-6.108l.167-.168a23.882 23.882 0 002.509-.435l.119.168-.256 1.2-.361 1.863-.453 2.076q.861-.767 1.675-1.588c.832-.821 2.846-2.944 3.225-3.35l.258-.147h2.726l.074.219c-.236.216-.355.312-1.3 1.134zm-11.481 1.66c-.877 4.06-1.2 5.367-1.96 9.4l-.165.144-2.42.072-.118-.165.97-4.153.28-1.367q-1.555-.038-3.112-.043c-.812 0-1.43.012-2.061.028q-.6 2.731-1.107 5.481l-.166.143-2.42.072-.113-.161.971-4.153.381-1.811a59.289 59.289 0 001.137-6.112l.166-.17a23.566 23.566 0 002.514-.434l.119.167-.251 1.2-.369 1.863-.389 1.764c.871.02 1.743.036 2.615.036.925 0 1.535-.019 2.563-.041.332-1.543.471-2.385.758-4.387l.166-.17a23.534 23.534 0 002.515-.434l.119.167-.256 1.2zm-14.844 9.212l-.164.169-2.23.048-.12-.169.166-.965a4.99 4.99 0 01-3.463 1.231 4.348 4.348 0 01-4.4-4.3 4.483 4.483 0 01.014-.458 8.856 8.856 0 011.895-5.19C46.772 7.6 49.831 7.45 52.013 7.45l3.273.024.114.194-1.068 4.683c-.822 3.717-.989 4.636-1.463 7.51zm-1.351-10.6a6.433 6.433 0 00-3.724 1.015 6.5 6.5 0 00-2.536 4.974 2.786 2.786 0 002.531 3.01q.12.01.242.008a4.085 4.085 0 002.063-.554 8.849 8.849 0 00.784-.63l1.707-7.8c-.356.002-.712-.023-1.067-.023zm-8.57 15.374a.58.58 0 01.234.062l.018.047-.2.508-.051.015a.394.394 0 00-.214-.072.485.485 0 00-.353.176 2.167 2.167 0 00-.358.994l-.108.516-.092.488-.04.037-.532.01-.025-.03.188-.759.113-.5q.162-.666.256-1.347l.036-.035a4.791 4.791 0 00.55-.089l.03.044-.113.457a1.594 1.594 0 01.133-.2.74.74 0 01.528-.322zM36.244 7.49c3.122 0 4.986 1.771 4.986 4.9a10.577 10.577 0 01-.359 2.571c-.529 2.087-1.977 5.7-6.464 5.7-3.169 0-4.909-1.675-4.909-4.974a10.039 10.039 0 01.1-1.4q.022-.186.05-.37c.87-5.465 3.193-10.65 8.3-10.7a15.83 15.83 0 003-.3L40.607 5.1a16.346 16.346 0 01-3.316.383 3.289 3.289 0 00-2.356.939 4.086 4.086 0 00-.612.777 7.033 7.033 0 00-.349.649 7.425 7.425 0 012.27-.358zm-4.218 8.6c0 1.943 1.145 2.792 2.431 2.792 2.55 0 3.5-2.672 3.932-4.663a9.186 9.186 0 00.286-2.088c0-2.452-1.55-2.866-2.431-2.866-3.744-.004-4.218 5.922-4.218 6.821zm-1.671 8.448a1.364 1.364 0 01.931.3 1.11 1.11 0 01.337.882 2.372 2.372 0 01-.07.545 1.7 1.7 0 01-.534.936 1.559 1.559 0 01-1.06.343 1.378 1.378 0 01-.908-.282 1.146 1.146 0 01-.348-.913 1.693 1.693 0 011.56-1.811zm-.727 2.178a.371.371 0 00.376.261.509.509 0 00.387-.212 1.51 1.51 0 00.276-.7 2.369 2.369 0 00.054-.463.406.406 0 00-.313-.478.387.387 0 00-.063-.008.537.537 0 00-.436.223 2.481 2.481 0 00-.312 1.139.648.648 0 00.031.234zm-17.82-1.819A11.91 11.91 0 010 12.885 11.911 11.911 0 0111.794.863v4.344A7.607 7.607 0 004.271 12.9a7.605 7.605 0 007.552 7.658 7.606 7.606 0 007.522-7.672l4.266-.027A11.917 11.917 0 0111.82 24.893h-.013zm6.664-15.711a3.056 3.056 0 113-3.055 3.029 3.029 0 01-3 3.055zm-6.64 9.026a5.331 5.331 0 115.236-5.33 5.284 5.284 0 01-5.236 5.33zM6.6 12.882zm25.466 11.647h.353l.154-.7.037-.037c.4-.093.509-.12.877-.229l.033.032-.118.453-.118.494.545-.01.021.037c-.076.229-.1.288-.166.545l-.043.038-.492-.011-.224.953a3.611 3.611 0 00-.1.518.223.223 0 00.221.226h.031a.8.8 0 00.309-.066l.033.027-.16.567-.043.043a2.28 2.28 0 01-.482.061.648.648 0 01-.79-.477.673.673 0 01-.02-.159 5.132 5.132 0 01.177-.942l.177-.745-.374.01-.031-.057.155-.549zm1.66 2.57c.107-.49.213-.974.31-1.46a8.4 8.4 0 00.155-.925l.038-.039.915-.152.031.039-.065.238a1.2 1.2 0 01.718-.261.939.939 0 01.91.966.951.951 0 01-.012.135 1.848 1.848 0 01-2.178 1.852l-.256 1.3-.037.027h-.365c-.182 0-.342.011-.54.016l-.027-.039.31-1.279zm1.08-.2a1 1 0 00.588-.223 1.36 1.36 0 00.407-.981.423.423 0 00-.325-.5.4.4 0 00-.074-.008.674.674 0 00-.385.158l-.342 1.545c.045 0 .088.008.13.008zm3.53 1.055a.978.978 0 00.8.368.871.871 0 00.839-.836l.066-.27a1.281 1.281 0 01-.746.239.9.9 0 01-.929-.881.916.916 0 010-.118 1.879 1.879 0 01.246-.921 1.784 1.784 0 011.776-.835l.715-.01.021.042c-.163.66-.209.869-.389 1.7l-.148.7a2.724 2.724 0 01-.429 1.2 1.276 1.276 0 01-1.007.4 1.775 1.775 0 01-.758-.163 1.123 1.123 0 01-.3-.229l-.005-.047.212-.343h.036zM40.5 25.1h-.136a1.326 1.326 0 00-1.135.414 1.51 1.51 0 00-.306.873.578.578 0 00.467.666.561.561 0 00.107.008.876.876 0 00.229-.032.837.837 0 00.393-.219zm4.111-.457a.963.963 0 011.064.857.986.986 0 010 .194 2.293 2.293 0 01-.077.552 1.415 1.415 0 01-1.385 1.218.942.942 0 01-1.051-.824.968.968 0 010-.242 1.6 1.6 0 011.419-1.753zm-.384 2.436a1.031 1.031 0 00.843-1 2.009 2.009 0 00.062-.447.521.521 0 00-.413-.606.5.5 0 00-.108-.008c-.8 0-.9 1.269-.9 1.462a.524.524 0 00.439.595.512.512 0 00.083.005zm2.1-1.634c.082-.354.093-.421.144-.7l.036-.037.511-.02.025.03c-.041.178-.256 1.072-.281 1.171a4.433 4.433 0 00-.118.7.4.4 0 00.372.431.385.385 0 00.053 0 1.046 1.046 0 00.7-.3l.194-.885c.128-.6.148-.71.215-1.086l.04-.036.517-.026.02.037L48.453 26l-.123.567-.153.8-.035.03-.5.022-.026-.038.061-.255a1.36 1.36 0 01-.843.328.684.684 0 01-.748-.617.71.71 0 010-.093 3.867 3.867 0 01.128-.786zm2.651 1.584c.1-.446.2-.9.291-1.344s.117-.644.157-.9l.036-.03.547-.089.027.034-.051.213a1.271 1.271 0 01.731-.255.943.943 0 01.923.962v.077a1.778 1.778 0 01-.342 1.043 1.868 1.868 0 01-1.559.67c-.1 0-.2 0-.3-.005-.107.476-.133.591-.245 1.218l-.036.026h-.54l-.025-.03.284-1.178zm.755-.015a1.275 1.275 0 001.342-1.209v-.05a.582.582 0 00-.485-.655.562.562 0 00-.093-.005.853.853 0 00-.6.258L49.524 27c.073 0 .138.012.209.012z" fill="#fff" fill-rule="evenodd"/></svg>