<?xml version="1.0" encoding="utf-8"?>
<!-- Generator: Adobe Illustrator 26.3.1, SVG Export Plug-In . SVG Version: 6.00 Build 0)  -->
<svg version="1.1" id="Layer_1" xmlns="http://www.w3.org/2000/svg" xmlns:xlink="http://www.w3.org/1999/xlink" x="0px" y="0px"
	 viewBox="0 0 72 72" style="enable-background:new 0 0 72 72;" xml:space="preserve">
<style type="text/css">
	.st0{fill:#D9D9D9;filter:url(#Adobe_OpacityMaskFilter);}
	.st1{mask:url(#mask0_201_168_00000183968979921980692210000013051762882534079664_);}
	.st2{fill-rule:evenodd;clip-rule:evenodd;}
</style>
<defs>
	<filter id="Adobe_OpacityMaskFilter" filterUnits="userSpaceOnUse" x="6" y="12" width="62" height="54">
		<feColorMatrix  type="matrix" values="1 0 0 0 0  0 1 0 0 0  0 0 1 0 0  0 0 0 1 0"/>
	</filter>
</defs>
<mask maskUnits="userSpaceOnUse" x="6" y="12" width="62" height="54" id="mask0_201_168_00000183968979921980692210000013051762882534079664_">
	<rect y="0" class="st0" width="72" height="72"/>
</mask>
<g class="st1">
	<path class="st2" d="M57.5,66c-3-0.7-5.5-2.5-7.5-5.2c-2-2.7-3-5.7-3-9v-6.6L57.5,40L68,45.2v6.6c0,3.3-1,6.3-3,9
		C63,63.5,60.5,65.3,57.5,66z M55.6,58.2l9.1-9L62,46.5l-6.4,6.2L53,50.1l-2.8,2.8L55.6,58.2z"/>
	<path class="st2" d="M12,60c-1.6,0-3.1-0.6-4.2-1.8C6.6,57.1,6,55.7,6,54V18c0-1.6,0.6-3.1,1.8-4.2C8.9,12.6,10.4,12,12,12h48
		c1.7,0,3.1,0.6,4.2,1.8c1.2,1.2,1.8,2.6,1.8,4.2v22l-6-3v-1H12v18h31c0.2,1.5,0.8,4.8,2,6H12z M60,24H12v-6h48V24z"/>
</g>
</svg>
