<svg width="44" height="44" viewBox="0 0 44 44" fill="none" xmlns="http://www.w3.org/2000/svg">
<path fill-rule="evenodd" clip-rule="evenodd" d="M8.05207 6.98443C4.71076 9.81316 2.63231 13.9098 2.63231 19.0452V23.183C2.63231 30.1875 4.7688 34.8266 8.06715 37.7314C11.3677 40.6381 15.9834 41.9427 21.2262 41.9593H21.4093H22.7074C27.9921 41.9593 32.6469 40.6566 35.9691 37.7403C39.2673 34.8449 41.4027 30.2261 41.4027 23.264V19.1262C41.4027 13.9907 39.3243 9.89413 35.9829 7.0654C32.6256 4.22314 27.9419 2.62149 22.7074 2.62149H21.4093H20.8413V2.54515C15.8033 2.64124 11.3051 4.23047 8.05207 6.98443ZM6.71854 39.2627C10.4255 42.5274 15.439 43.9183 20.8413 43.9964V43.9998H21.2245L21.3276 44V43.9998H21.4093H22.7074C28.2946 43.9998 33.4977 42.625 37.3152 39.2738C41.1568 35.9015 43.4432 30.6626 43.4432 23.264V19.1262C43.4432 13.3896 41.0999 8.72378 37.3014 5.50803C33.5189 2.30582 28.3448 0.580974 22.7074 0.580974H21.4093H21.3276V0.5C15.6902 0.5 10.5161 2.22484 6.73362 5.42706C2.93515 8.64281 0.591797 13.3087 0.591797 19.0452V23.183C0.591797 30.6204 2.87711 35.8796 6.71854 39.2627ZM27.013 16.1229V13.0398C26.8508 12.9993 26.6885 12.979 26.5262 12.9587C26.364 12.9384 26.2017 12.9181 26.0394 12.8776H24.2545C23.2809 12.9587 22.3884 13.121 21.6582 13.6889C20.7657 14.338 20.2789 15.2304 20.1167 16.2852C20.0355 16.6908 20.0355 17.1776 20.0355 17.5833V17.5833V19.6117V19.8551H17.1147V23.2627H20.0355V31.944H23.6054V23.3438H26.5262C26.6074 22.208 26.7696 21.0721 26.9319 19.9362H26.2828H23.5243V17.5022C23.6054 16.4474 24.1733 16.1229 24.9847 16.1229H26.7696H27.013Z" fill="#FEFBFF"/>
</svg>
