<svg width="49" height="49" viewBox="0 0 49 49" fill="none" xmlns="http://www.w3.org/2000/svg">
<mask id="mask0_210_3819" style="mask-type:alpha" maskUnits="userSpaceOnUse" x="4" y="4" width="41" height="41">
<circle cx="24.5" cy="24.5" r="20.5" fill="#D9D9D9"/>
</mask>
<g mask="url(#mask0_210_3819)">
<path d="M4 4H45V45H4V4Z" fill="white"/>
<path d="M4 4H45V17.6667H4V4ZM4 31.3333H45V45H4V31.3333Z" fill="#18C3DF"/>
<path fill-rule="evenodd" clip-rule="evenodd" d="M13.1314 20.2459L12.5956 18.6354L12.0598 20.2459H10.3262L11.7287 21.2412L11.193 22.8517L12.5956 21.8564L13.9982 22.8517L13.4625 21.2412L14.865 20.2459H13.1314ZM13.1314 20.2459L13.4625 21.2412L12.5956 21.8564L11.7287 21.2412L12.0598 20.2459H13.1314Z" fill="#18C3DF"/>
<path d="M13.4625 21.2412L13.1314 20.2459H12.0598L11.7287 21.2412L12.5956 21.8564L13.4625 21.2412Z" fill="#18C3DF"/>
<path fill-rule="evenodd" clip-rule="evenodd" d="M13.1314 27.2382L12.5956 25.6276L12.0598 27.2382H10.3262L11.7287 28.2335L11.193 29.8439L12.5956 28.8486L13.9982 29.8439L13.4625 28.2335L14.865 27.2382H13.1314ZM13.1314 27.2382L13.4625 28.2335L12.5956 28.8486L11.7287 28.2335L12.0598 27.2382H13.1314Z" fill="#18C3DF"/>
<path d="M13.4625 28.2335L13.1314 27.2382H12.0598L11.7287 28.2335L12.5956 28.8486L13.4625 28.2335Z" fill="#18C3DF"/>
<path fill-rule="evenodd" clip-rule="evenodd" d="M25.0626 23.742L24.5268 22.1315L23.991 23.742H22.2574L23.66 24.7373L23.1242 26.3478L24.5268 25.3525L25.9295 26.3478L25.3937 24.7373L26.7963 23.742H25.0626ZM25.0626 23.742L25.3937 24.7373L24.5268 25.3525L23.66 24.7373L23.991 23.742H25.0626Z" fill="#18C3DF"/>
<path fill-rule="evenodd" clip-rule="evenodd" d="M36.9938 27.2382L36.458 25.6276L35.9223 27.2382H34.1886L35.5912 28.2335L35.0554 29.8439L36.458 28.8486L37.8607 29.8439L37.3249 28.2335L38.7275 27.2382H36.9938ZM36.9938 27.2382L37.3249 28.2335L36.458 28.8486L35.5912 28.2335L35.9223 27.2382H36.9938Z" fill="#18C3DF"/>
<path fill-rule="evenodd" clip-rule="evenodd" d="M36.9938 20.2459L36.458 18.6354L35.9223 20.2459H34.1886L35.5912 21.2412L35.0554 22.8517L36.458 21.8564L37.8607 22.8517L37.3249 21.2412L38.7275 20.2459H36.9938ZM36.9938 20.2459L37.3249 21.2412L36.458 21.8564L35.5912 21.2412L35.9223 20.2459H36.9938Z" fill="#18C3DF"/>
<path d="M25.3937 24.7373L25.0626 23.742H23.991L23.66 24.7373L24.5268 25.3525L25.3937 24.7373Z" fill="#18C3DF"/>
<path d="M37.3249 21.2412L36.9938 20.2459H35.9223L35.5912 21.2412L36.458 21.8564L37.3249 21.2412Z" fill="#18C3DF"/>
<path d="M37.3249 28.2335L36.9938 27.2382H35.9223L35.5912 28.2335L36.458 28.8486L37.3249 28.2335Z" fill="#18C3DF"/>
</g>
<circle cx="24.5" cy="24.5" r="23.5" stroke="white" stroke-width="2"/>
</svg>
