<svg width="43" height="43" viewBox="0 0 43 43" fill="none" xmlns="http://www.w3.org/2000/svg">
<path fill-rule="evenodd" clip-rule="evenodd" d="M7.79095 6.7012C4.51922 9.47101 2.48388 13.4822 2.48388 18.5117V22.5688C2.48388 29.4326 4.57727 33.9752 7.80603 36.8187C11.0179 39.6473 15.5031 40.9274 20.6022 40.9588H20.8758H22.1487C27.3274 40.9588 31.8861 39.6822 35.1387 36.827C38.3674 33.9927 40.4596 29.47 40.4596 22.6478V18.5906C40.4596 13.5612 38.4243 9.54998 35.1525 6.78016C31.8648 3.99681 27.2772 2.42759 22.1487 2.42759H20.8758H20.319V2.35315C15.3828 2.44719 10.9766 4.00423 7.79095 6.7012ZM6.45742 38.35C10.0971 41.5554 15.0184 42.92 20.319 42.9965V42.9993H20.5958C20.6621 42.9997 20.7284 42.9999 20.7948 42.9999V42.9993H20.8758H22.1487C27.6299 42.9993 32.7368 41.6506 36.4848 38.3604C40.2568 35.0493 42.5001 29.9064 42.5001 22.6478V18.5906C42.5001 12.9601 40.1999 8.37963 36.471 5.22279C32.7581 2.07949 27.6801 0.387069 22.1487 0.387069H20.8758H20.7948V0.308105C15.2634 0.308105 10.1854 2.00053 6.4725 5.14383C2.74362 8.30066 0.443359 12.8811 0.443359 18.5117V22.5688C0.443359 29.8655 2.68557 35.0282 6.45742 38.35ZM28.5137 14.2956C29.3888 15.0912 29.8661 16.1253 29.9456 17.2391C30.1047 18.5915 30.2638 25.0352 29.8661 26.5467C29.3092 28.456 28.0364 29.6492 26.0476 29.9674C24.5361 30.2061 17.8537 30.2061 16.5013 29.8879C14.5125 29.4106 13.3192 28.1377 13.001 26.1489C12.7623 24.717 12.6828 17.8755 13.0805 16.4435C13.6374 14.5343 14.9102 13.4206 16.8195 13.1023C18.5697 12.7841 23.3428 12.8637 25.3316 13.0228C26.5249 13.1023 27.6386 13.4206 28.5137 14.2956ZM25.5703 28.4559C27.1613 28.2968 28.1159 27.3422 28.3546 25.8307C28.5933 24.3192 28.5933 18.8301 28.4341 17.3186C28.275 15.7276 27.3204 14.7729 25.8089 14.5343C24.2974 14.3752 18.8083 14.3752 17.2968 14.5343C15.7853 14.6934 14.8307 15.648 14.592 17.1595C14.3534 18.7506 14.4329 24.717 14.592 25.9103C14.7511 27.1831 15.4671 27.9786 16.6604 28.2968C17.9332 28.6946 24.2179 28.6151 25.5703 28.4559ZM16.9786 21.5349C16.9786 19.0688 18.9674 17.08 21.4335 17.08C23.8997 17.08 25.8885 19.0688 25.8885 21.5349C25.8885 24.001 23.8997 25.9898 21.4335 25.9898C18.9674 25.9898 16.9786 24.001 16.9786 21.5349ZM18.5697 21.5349C18.5697 23.1259 19.8425 24.3988 21.4335 24.3988C23.0246 24.3988 24.2974 23.1259 24.2974 21.5349C24.2974 19.9438 23.0246 18.671 21.4335 18.671C19.8425 18.671 18.5697 19.9438 18.5697 21.5349ZM26.0476 17.955C26.6044 17.955 27.0818 17.4777 27.0818 16.9209C27.0818 16.364 26.684 15.8867 26.0476 15.8867C25.4907 15.8867 25.0134 16.364 25.0134 16.9209C25.0134 17.4777 25.4907 17.955 26.0476 17.955Z" fill="#FEFBFF"/>
</svg>
