<?xml version="1.0" encoding="utf-8"?>
<!-- Generator: Adobe Illustrator 19.1.0, SVG Export Plug-In . SVG Version: 6.00 Build 0)  -->
<svg version="1.1" id="Home_01" xmlns="http://www.w3.org/2000/svg" xmlns:xlink="http://www.w3.org/1999/xlink" x="0px" y="0px"
	 viewBox="0 0 244.2 72.4" style="enable-background:new 0 0 244.2 72.4;" xml:space="preserve">
<style type="text/css">
	.st0{fill:#FFFFFF;}
	.st1{opacity:0.7;}
	.st2{fill:#1C4A9E;}
	.st3{opacity:0.93;fill:#1C4A9E;}
	.st4{opacity:0.2;clip-path:url(#SVGID_10_);}
	.st5{opacity:0.46;fill:url(#SVGID_11_);}
	.st6{opacity:0.46;fill:url(#SVGID_12_);}
	.st7{opacity:0.46;fill:url(#SVGID_13_);}
	.st8{opacity:0.46;fill:url(#SVGID_14_);}
	.st9{opacity:0.46;fill:url(#SVGID_15_);}
	.st10{opacity:0.46;fill:url(#SVGID_16_);}
	.st11{opacity:0.46;fill:url(#SVGID_17_);}
	.st12{opacity:0.46;fill:url(#SVGID_18_);}
	.st13{opacity:0.46;fill:url(#SVGID_19_);}
	.st14{opacity:0.46;fill:url(#SVGID_20_);}
	.st15{opacity:0.46;fill:url(#SVGID_21_);}
	.st16{opacity:0.46;fill:url(#SVGID_22_);}
	.st17{opacity:0.46;fill:url(#SVGID_23_);}
	.st18{opacity:0.46;fill:url(#SVGID_24_);}
	.st19{opacity:0.46;fill:url(#SVGID_25_);}
	.st20{opacity:0.46;fill:url(#SVGID_26_);}
	.st21{opacity:0.46;fill:url(#SVGID_27_);}
	.st22{opacity:0.46;fill:url(#SVGID_28_);}
	.st23{opacity:0.46;fill:url(#SVGID_29_);}
	.st24{opacity:0.46;fill:url(#SVGID_30_);}
	.st25{opacity:0.46;fill:url(#SVGID_31_);}
	.st26{opacity:0.46;fill:url(#SVGID_32_);}
	.st27{opacity:0.46;fill:url(#SVGID_33_);}
	.st28{opacity:0.46;fill:url(#SVGID_34_);}
	.st29{opacity:0.46;fill:url(#SVGID_35_);}
	.st30{opacity:0.46;fill:url(#SVGID_36_);}
	.st31{opacity:0.46;fill:url(#SVGID_37_);}
	.st32{opacity:0.46;fill:url(#SVGID_38_);}
	.st33{opacity:0.46;fill:url(#SVGID_39_);}
	.st34{opacity:0.46;fill:url(#SVGID_40_);}
	.st35{opacity:0.46;fill:url(#SVGID_41_);}
	.st36{opacity:0.46;fill:url(#SVGID_42_);}
	.st37{opacity:0.46;fill:url(#SVGID_43_);}
	.st38{opacity:0.46;fill:url(#SVGID_44_);}
	.st39{opacity:0.46;fill:url(#SVGID_45_);}
	.st40{opacity:0.46;fill:url(#SVGID_46_);}
	.st41{opacity:0.46;fill:url(#SVGID_47_);}
	.st42{opacity:0.46;fill:url(#SVGID_48_);}
	.st43{opacity:0.46;fill:url(#SVGID_49_);}
	.st44{opacity:0.46;fill:url(#SVGID_50_);}
	.st45{opacity:0.46;fill:url(#SVGID_51_);}
	.st46{opacity:0.46;fill:url(#SVGID_52_);}
	.st47{opacity:0.46;fill:url(#SVGID_53_);}
	.st48{opacity:0.46;fill:url(#SVGID_54_);}
	.st49{opacity:0.46;fill:url(#SVGID_55_);}
	.st50{opacity:0.46;fill:url(#SVGID_56_);}
	.st51{opacity:0.46;fill:url(#SVGID_57_);}
	.st52{opacity:0.46;fill:url(#SVGID_58_);}
	.st53{opacity:0.46;fill:url(#SVGID_59_);}
	.st54{opacity:0.46;fill:url(#SVGID_60_);}
	.st55{opacity:0.46;fill:url(#SVGID_61_);}
	.st56{opacity:0.46;fill:url(#SVGID_62_);}
	.st57{opacity:0.46;fill:url(#SVGID_63_);}
	.st58{opacity:0.46;fill:url(#SVGID_64_);}
	.st59{opacity:0.46;fill:url(#SVGID_65_);}
	.st60{opacity:0.46;fill:url(#SVGID_66_);}
	.st61{opacity:0.46;fill:url(#SVGID_67_);}
	.st62{opacity:0.46;fill:url(#SVGID_68_);}
	.st63{opacity:0.46;fill:url(#SVGID_69_);}
	.st64{opacity:0.46;fill:url(#SVGID_70_);}
	.st65{opacity:0.46;fill:url(#SVGID_71_);}
	.st66{opacity:0.46;fill:url(#SVGID_72_);}
	.st67{opacity:0.46;fill:url(#SVGID_73_);}
	.st68{opacity:0.46;fill:url(#SVGID_74_);}
	.st69{opacity:0.46;fill:url(#SVGID_75_);}
	.st70{opacity:0.46;fill:url(#SVGID_76_);}
	.st71{opacity:0.46;fill:url(#SVGID_77_);}
	.st72{opacity:0.46;fill:url(#SVGID_78_);}
	.st73{opacity:0.46;fill:url(#SVGID_79_);}
	.st74{opacity:0.46;fill:url(#SVGID_80_);}
	.st75{opacity:0.46;fill:url(#SVGID_81_);}
	.st76{opacity:0.46;fill:url(#SVGID_82_);}
	.st77{opacity:0.46;fill:url(#SVGID_83_);}
	.st78{opacity:0.46;fill:url(#SVGID_84_);}
	.st79{opacity:0.46;fill:url(#SVGID_85_);}
	.st80{opacity:0.46;fill:url(#SVGID_86_);}
	.st81{opacity:0.46;fill:url(#SVGID_87_);}
	.st82{opacity:0.46;fill:url(#SVGID_88_);}
	.st83{opacity:0.46;fill:url(#SVGID_89_);}
	.st84{opacity:0.46;fill:url(#SVGID_90_);}
	.st85{opacity:0.46;fill:url(#SVGID_91_);}
	.st86{opacity:0.46;fill:url(#SVGID_92_);}
	.st87{opacity:0.46;fill:url(#SVGID_93_);}
	.st88{opacity:0.46;fill:url(#SVGID_94_);}
	.st89{opacity:0.46;fill:url(#SVGID_95_);}
	.st90{opacity:0.46;fill:url(#SVGID_96_);}
	.st91{opacity:0.46;fill:url(#SVGID_97_);}
	.st92{opacity:0.46;fill:url(#SVGID_98_);}
	.st93{opacity:0.46;fill:url(#SVGID_99_);}
	.st94{opacity:0.46;fill:url(#SVGID_100_);}
	.st95{opacity:0.46;fill:url(#SVGID_101_);}
	.st96{opacity:0.46;fill:url(#SVGID_102_);}
	.st97{opacity:0.46;fill:url(#SVGID_103_);}
	.st98{opacity:0.46;fill:url(#SVGID_104_);}
	.st99{opacity:0.46;fill:url(#SVGID_105_);}
	.st100{opacity:0.46;fill:url(#SVGID_106_);}
	.st101{opacity:0.46;fill:url(#SVGID_107_);}
	.st102{opacity:0.46;fill:url(#SVGID_108_);}
	.st103{opacity:0.46;fill:url(#SVGID_109_);}
	.st104{opacity:0.46;fill:url(#SVGID_110_);}
	.st105{opacity:0.46;fill:url(#SVGID_111_);}
	.st106{opacity:0.46;fill:url(#SVGID_112_);}
	.st107{opacity:0.46;fill:url(#SVGID_113_);}
	.st108{opacity:0.46;fill:url(#SVGID_114_);}
	.st109{opacity:0.46;fill:url(#SVGID_115_);}
	.st110{opacity:0.46;fill:url(#SVGID_116_);}
	.st111{opacity:0.46;fill:url(#SVGID_117_);}
	.st112{opacity:0.46;fill:url(#SVGID_118_);}
	.st113{opacity:0.46;fill:url(#SVGID_119_);}
	.st114{opacity:0.46;fill:url(#SVGID_120_);}
	.st115{opacity:0.46;fill:url(#SVGID_121_);}
	.st116{opacity:0.46;fill:url(#SVGID_122_);}
	.st117{opacity:0.46;fill:url(#SVGID_123_);}
	.st118{opacity:0.46;fill:url(#SVGID_124_);}
	.st119{opacity:0.46;fill:url(#SVGID_125_);}
	.st120{opacity:0.46;fill:url(#SVGID_126_);}
	.st121{opacity:0.46;fill:url(#SVGID_127_);}
	.st122{opacity:0.46;fill:url(#SVGID_128_);}
	.st123{opacity:0.46;fill:url(#SVGID_129_);}
	.st124{opacity:0.46;fill:url(#SVGID_130_);}
	.st125{opacity:0.46;fill:url(#SVGID_131_);}
	.st126{opacity:0.46;fill:url(#SVGID_132_);}
	.st127{opacity:0.46;fill:url(#SVGID_133_);}
	.st128{opacity:0.46;fill:url(#SVGID_134_);}
	.st129{opacity:0.46;fill:url(#SVGID_135_);}
	.st130{opacity:0.46;fill:url(#SVGID_136_);}
	.st131{opacity:0.46;fill:url(#SVGID_137_);}
	.st132{opacity:0.46;fill:url(#SVGID_138_);}
	.st133{opacity:0.46;fill:url(#SVGID_139_);}
	.st134{opacity:0.46;fill:url(#SVGID_140_);}
	.st135{opacity:0.46;fill:url(#SVGID_141_);}
	.st136{opacity:0.46;fill:url(#SVGID_142_);}
	.st137{opacity:0.46;fill:url(#SVGID_143_);}
	.st138{opacity:0.46;fill:url(#SVGID_144_);}
	.st139{opacity:0.46;fill:url(#SVGID_145_);}
	.st140{opacity:0.46;fill:url(#SVGID_146_);}
	.st141{opacity:0.46;fill:url(#SVGID_147_);}
	.st142{opacity:0.46;fill:url(#SVGID_148_);}
	.st143{opacity:0.46;fill:url(#SVGID_149_);}
	.st144{opacity:0.46;fill:url(#SVGID_150_);}
	.st145{opacity:0.46;fill:url(#SVGID_151_);}
	.st146{opacity:0.46;fill:url(#SVGID_152_);}
	.st147{opacity:0.46;fill:url(#SVGID_153_);}
	.st148{opacity:0.46;fill:url(#SVGID_154_);}
	.st149{fill:#3C9FE3;}
	.st150{fill:#F4F4F3;}
	.st151{fill:none;stroke:#3C9FE3;stroke-width:10;stroke-linecap:round;stroke-linejoin:round;stroke-miterlimit:10;}
	.st152{fill:none;stroke:#E6E5E9;stroke-width:10;stroke-linecap:round;stroke-linejoin:round;stroke-miterlimit:10;}
	.st153{fill-rule:evenodd;clip-rule:evenodd;}
	.st154{fill-rule:evenodd;clip-rule:evenodd;fill:none;stroke:#000000;stroke-width:2;stroke-miterlimit:10;}
	.st155{fill:none;stroke:#F4F4F3;stroke-width:0.5;stroke-miterlimit:10;}
	.st156{opacity:0.7;fill:#3C9FE3;}
	.st157{opacity:0.3;fill:#3C9FE3;}
	.st158{fill:#DEDEDE;}
	.st159{fill:#1A1818;}
	.st160{fill:none;stroke:#1A1818;stroke-width:1.1946;stroke-miterlimit:10;}
	.st161{stroke:#B1B1B1;stroke-miterlimit:10;}
	.st162{fill:url(#SVGID_155_);}
	.st163{fill:url(#SVGID_156_);}
	.st164{fill:url(#SVGID_157_);}
	.st165{fill:url(#SVGID_158_);}
	.st166{opacity:0.2;enable-background:new    ;}
	.st167{opacity:0.12;enable-background:new    ;}
	.st168{opacity:0.25;fill:#FFFFFF;enable-background:new    ;}
	.st169{fill:#FFFFFF;stroke:#FFFFFF;stroke-width:0.2;stroke-miterlimit:10;}
	.st170{fill:#1D1D1B;stroke:#B1B1B1;stroke-miterlimit:10;}
	.st171{clip-path:url(#SVGID_162_);fill:#C90030;}
	.st172{clip-path:url(#SVGID_162_);}
	.st173{opacity:0.5;clip-path:url(#SVGID_164_);fill:none;stroke:#C90030;stroke-width:12.628;stroke-miterlimit:10;}
	.st174{opacity:0.5;clip-path:url(#SVGID_164_);fill:none;stroke:#EEAD09;stroke-width:12.628;stroke-miterlimit:10;}
	.st175{opacity:0.5;clip-path:url(#SVGID_164_);fill:none;stroke:#63A8D6;stroke-width:12.628;stroke-miterlimit:10;}
	.st176{fill:#1A47A0;}
	.st177{fill:none;stroke:#1A47A0;stroke-miterlimit:10;}
	.st178{fill:#7A8398;}
	.st179{clip-path:url(#SVGID_166_);}
	.st180{clip-path:url(#SVGID_168_);}
	.st181{opacity:0.8;}
	.st182{fill:#F9F9F9;}
	.st183{fill:none;stroke:#D5DBD4;stroke-miterlimit:10;}
	.st184{fill:none;stroke:#7A8398;stroke-width:0.5;stroke-miterlimit:10;}
	.st185{fill:none;stroke:#7A8398;stroke-miterlimit:10;}
	.st186{opacity:0.5;fill:#3C9FE3;}
	.st187{fill:none;stroke:#6162DC;stroke-width:0.5616;stroke-linecap:round;stroke-miterlimit:10;}
	.st188{fill:none;stroke:#FFFFFF;stroke-width:2.1452;stroke-linecap:round;stroke-linejoin:round;stroke-miterlimit:10;}
	.st189{fill:none;stroke:#FFFFFF;stroke-width:2.3678;stroke-linecap:round;stroke-linejoin:round;stroke-miterlimit:10;}
	.st190{fill:none;stroke:#F4F4F3;stroke-miterlimit:10;}
	.st191{fill-rule:evenodd;clip-rule:evenodd;fill:#F4F4F3;}
	.st192{fill:#9C9C9C;}
	.st193{opacity:0.87;}
	.st194{fill:#C90030;}
	.st195{opacity:0.5;clip-path:url(#SVGID_174_);fill:none;stroke:#C90030;stroke-width:33.0567;stroke-miterlimit:10;}
	.st196{opacity:0.5;clip-path:url(#SVGID_174_);fill:none;stroke:#EEAD09;stroke-width:33.0567;stroke-miterlimit:10;}
	.st197{opacity:0.5;clip-path:url(#SVGID_174_);fill:none;stroke:#63A8D6;stroke-width:33.0567;stroke-miterlimit:10;}
	.st198{fill:none;stroke:#FFFFFF;stroke-miterlimit:10;}
	.st199{fill:none;stroke:#000000;stroke-miterlimit:10;}
	.st200{opacity:0.4;}
	.st201{opacity:0.5;}
	.st202{fill:#F3F3F3;}
	.st203{fill:#007EFF;}
	.st204{fill:none;stroke:#007EFF;stroke-miterlimit:10;}
	.st205{opacity:0.2;}
	.st206{clip-path:url(#SVGID_180_);}
	.st207{clip-path:url(#SVGID_184_);fill:url(#SVGID_185_);}
	.st208{clip-path:url(#SVGID_184_);fill:url(#SVGID_186_);}
	.st209{opacity:0.61;fill:#1C4A9E;}
	.st210{opacity:0.1;clip-path:url(#SVGID_188_);}
	.st211{fill:#3E3E3F;}
	.st212{fill:#353638;}
	.st213{clip-path:url(#SVGID_188_);fill:url(#SVGID_189_);}
	.st214{clip-path:url(#SVGID_188_);fill:url(#SVGID_190_);}
	.st215{opacity:0.1;}
	.st216{fill:none;stroke:#000000;stroke-width:0.5;stroke-miterlimit:10;}
	.st217{fill:none;stroke:#7A8398;stroke-width:0.5315;stroke-miterlimit:10;}
	.st218{fill:none;stroke:#1A1818;stroke-width:2;stroke-miterlimit:10;}
	.st219{fill-rule:evenodd;clip-rule:evenodd;fill:#1A1818;}
	.st220{fill:none;stroke:#1A1818;stroke-width:1.0065;stroke-miterlimit:10;}
	.st221{fill:url(#SVGID_191_);}
	.st222{fill:url(#SVGID_192_);}
	.st223{fill:url(#SVGID_193_);}
	.st224{fill:url(#SVGID_194_);}
	.st225{opacity:0.87;fill:#1C4A9E;}
	.st226{fill:none;stroke:#FFFFFF;stroke-width:3.6614;stroke-linecap:round;stroke-linejoin:round;stroke-miterlimit:10;}
	.st227{fill:none;stroke:#FFFFFF;stroke-width:3.2256;stroke-linecap:round;stroke-linejoin:round;stroke-miterlimit:10;}
	.st228{fill:none;stroke:#1A1818;stroke-linecap:round;stroke-linejoin:round;}
	.st229{clip-path:url(#SVGID_196_);}
	.st230{fill:#26DC4E;}
	.st231{fill:none;stroke:#3B3B3B;stroke-miterlimit:10;}
	.st232{fill:none;stroke:#26DC4E;stroke-width:1.5;stroke-miterlimit:10;}
	.st233{fill:#FF003E;}
	.st234{fill:none;stroke:#FF003E;stroke-width:1.5;stroke-miterlimit:10;}
	.st235{clip-path:url(#SVGID_198_);}
	.st236{opacity:0.7;fill:url(#SVGID_201_);}
	.st237{clip-path:url(#SVGID_203_);}
	.st238{clip-path:url(#SVGID_207_);}
	.st239{opacity:0.8;fill:#2F2B24;}
	.st240{opacity:0.7;fill:url(#SVGID_210_);}
	.st241{fill:url(#SVGID_211_);}
	.st242{fill:url(#SVGID_212_);}
	.st243{fill:url(#SVGID_213_);}
	.st244{fill:url(#SVGID_214_);}
	.st245{fill:#1D1D1B;}
	.st246{clip-path:url(#SVGID_216_);}
	.st247{opacity:0.7;fill:url(#SVGID_219_);}
	.st248{fill:url(#SVGID_220_);}
	.st249{fill:url(#SVGID_221_);}
	.st250{fill:url(#SVGID_222_);}
	.st251{fill:url(#SVGID_223_);}
	.st252{fill:url(#SVGID_226_);}
	.st253{fill:url(#SVGID_227_);}
	.st254{fill:url(#SVGID_228_);}
	.st255{fill:url(#SVGID_229_);}
	.st256{clip-path:url(#SVGID_231_);}
	.st257{clip-path:url(#SVGID_235_);}
	.st258{opacity:0.7;fill:url(#SVGID_238_);}
	.st259{clip-path:url(#SVGID_240_);}
	.st260{clip-path:url(#SVGID_242_);}
	.st261{opacity:0.8;clip-path:url(#SVGID_240_);fill:#2F2B24;}
	.st262{opacity:0.7;clip-path:url(#SVGID_240_);fill:url(#SVGID_245_);}
	.st263{clip-path:url(#SVGID_247_);}
	.st264{clip-path:url(#SVGID_249_);}
	.st265{opacity:0.8;clip-path:url(#SVGID_247_);fill:#2F2B24;}
	.st266{opacity:0.7;clip-path:url(#SVGID_247_);fill:url(#SVGID_252_);}
	.st267{clip-path:url(#SVGID_254_);}
	.st268{opacity:0.7;fill:url(#SVGID_257_);}
	.st269{clip-path:url(#SVGID_259_);}
	.st270{clip-path:url(#SVGID_263_);}
	.st271{opacity:0.7;fill:url(#SVGID_266_);}
	.st272{clip-path:url(#SVGID_268_);}
	.st273{clip-path:url(#SVGID_270_);}
	.st274{opacity:0.8;clip-path:url(#SVGID_268_);fill:#2F2B24;}
	.st275{opacity:0.7;clip-path:url(#SVGID_268_);fill:url(#SVGID_273_);}
	.st276{clip-path:url(#SVGID_275_);}
	.st277{clip-path:url(#SVGID_277_);}
	.st278{opacity:0.8;clip-path:url(#SVGID_275_);fill:#2F2B24;}
	.st279{clip-path:url(#SVGID_281_);}
	.st280{opacity:0.7;fill:url(#SVGID_284_);}
	.st281{fill:url(#SVGID_285_);}
	.st282{fill:url(#SVGID_286_);}
	.st283{fill:url(#SVGID_287_);}
	.st284{fill:url(#SVGID_288_);}
	.st285{fill:#FFFFFF;stroke:#FFFFFF;stroke-width:8.395900e-02;stroke-miterlimit:10;}
	.st286{fill:url(#SVGID_289_);}
	.st287{fill:url(#SVGID_290_);}
	.st288{fill:url(#SVGID_291_);}
	.st289{fill:url(#SVGID_292_);}
	.st290{fill:url(#SVGID_293_);}
	.st291{fill:url(#SVGID_294_);}
	.st292{fill:url(#SVGID_295_);}
	.st293{fill:url(#SVGID_296_);}
	.st294{opacity:0.42;fill:url(#SVGID_297_);}
	.st295{fill:url(#SVGID_298_);}
	.st296{fill:url(#SVGID_299_);}
	.st297{fill:url(#SVGID_300_);}
	.st298{fill:url(#SVGID_301_);}
	.st299{fill:#231F20;}
	.st300{fill:url(#SVGID_302_);}
	.st301{fill:url(#SVGID_303_);}
	.st302{fill:url(#SVGID_304_);}
	.st303{fill:url(#SVGID_305_);}
	.st304{fill:#231F20;stroke:#231F20;stroke-width:0.2;stroke-miterlimit:10;}
	.st305{fill:url(#SVGID_306_);}
	.st306{fill:url(#SVGID_307_);}
	.st307{fill:none;}
	.st308{opacity:0.42;fill:url(#SVGID_308_);}
	.st309{fill:url(#SVGID_309_);}
	.st310{fill:url(#SVGID_310_);}
	.st311{fill:url(#SVGID_311_);}
	.st312{fill:url(#SVGID_312_);}
	.st313{fill:url(#SVGID_313_);}
	.st314{fill:url(#SVGID_314_);}
	.st315{fill:url(#SVGID_315_);}
	.st316{fill:url(#SVGID_316_);}
	.st317{opacity:0.1;clip-path:url(#SVGID_320_);}
	.st318{clip-path:url(#SVGID_320_);fill:url(#SVGID_321_);}
	.st319{clip-path:url(#SVGID_320_);fill:url(#SVGID_322_);}
	.st320{opacity:0.25;fill:#3C9FE3;}
	.st321{opacity:0.75;fill:#3C9FE3;}
	.st322{fill:#FFFF00;}
</style>
<g>
	<path class="st0" d="M238.4,61.3c0,5.1-4.2,9.3-9.3,9.3H15.1c-5.1,0-9.3-4.2-9.3-9.3V11c0-5.1,4.2-9.3,9.3-9.3h214.1
		c5.1,0,9.3,4.2,9.3,9.3V61.3z"/>
	<path class="st299" d="M51.7,13.5H34.5c-2.1,0-3.7,1.7-3.7,3.7v38c0,2.1,1.7,3.7,3.7,3.7h17.2c2.1,0,3.7-1.7,3.7-3.7v-38
		C55.4,15.2,53.7,13.5,51.7,13.5z M43.1,56.2c-1.4,0-2.5-1.1-2.5-2.5c0-1.4,1.1-2.5,2.5-2.5c1.4,0,2.5,1.1,2.5,2.5
		C45.6,55.1,44.4,56.2,43.1,56.2z M52.5,50.1H33.7V22h18.8V50.1z"/>
	<g>
		<path class="st299" d="M75.6,30.2l-8.8,26h4l2.6-8H82l2.7,8h4.2l-8.9-26H75.6z M77.7,34.5c0.3,1.2,0.6,2.4,1,3.7l2.4,6.9h-6.8
			l2.3-6.9C77.1,37,77.4,35.8,77.7,34.5z"/>
		<path class="st299" d="M100.3,37c-2.7,0-4.8,1-6.3,3l-0.2-2.6h-3.6l0,0.3c0.1,1.6,0.2,3.4,0.2,5.9v20.1h3.9v-9.4
			c1.2,1.5,3.2,2.3,5.4,2.3c2.3,0,4.4-0.9,6-2.5c1.7-1.8,2.6-4.4,2.6-7.6c0-2.8-0.8-5.2-2.3-6.9C104.7,37.9,102.6,37,100.3,37z
			 M99.4,40.2c3.5,0,5.1,3.2,5.1,6.5c0,4.2-2,6.7-5.2,6.7c-2.2,0-4.1-1.5-4.6-3.7c-0.1-0.3-0.1-0.8-0.1-1.3v-3.2
			c0-0.3,0.1-0.6,0.1-1c0-0.1,0-0.2,0.1-0.3C95.2,41.8,97.2,40.2,99.4,40.2z"/>
		<path class="st299" d="M120.6,37c-2.7,0-4.8,1-6.3,3l-0.2-2.6h-3.6l0,0.3c0.1,1.6,0.2,3.4,0.2,5.9v20.1h3.9v-9.4
			c1.2,1.5,3.2,2.3,5.4,2.3c2.3,0,4.4-0.9,6-2.5c1.7-1.8,2.6-4.4,2.6-7.6c0-2.8-0.8-5.2-2.3-6.9C124.9,37.9,122.9,37,120.6,37z
			 M119.6,40.2c3.5,0,5.1,3.2,5.1,6.5c0,4.2-2,6.7-5.2,6.7c-2.2,0-4.1-1.5-4.6-3.7c-0.1-0.3-0.1-0.8-0.1-1.3v-3.2
			c0-0.3,0.1-0.6,0.1-1c0-0.1,0-0.2,0.1-0.3C115.5,41.8,117.4,40.2,119.6,40.2z"/>
		<path class="st299" d="M146,41.3c-3.7-1.4-4.9-2.5-4.9-4.6c0-1.7,1.4-3.5,4.5-3.5c2.6,0,4.2,0.9,4.6,1.2l0.3,0.2l1.1-3.3l-0.2-0.1
			c-0.7-0.4-2.5-1.3-5.7-1.3c-5,0-8.5,3-8.5,7.2c0,3.4,2.2,5.8,6.9,7.5c3.3,1.2,4.6,2.5,4.6,4.7c0,2.5-1.9,4-5,4
			c-2,0-4.1-0.6-5.7-1.6l-0.3-0.2l-1.1,3.4l0.2,0.1c1.5,1,4.3,1.7,6.7,1.7c6.8,0,9.2-4.1,9.2-7.7C152.7,45.4,150.7,43.1,146,41.3z"
			/>
		<path class="st299" d="M159.7,32.9l-3.9,1.2v3.3h-2.8v3.1h2.8v9.6c0,2.3,0.4,4,1.4,5c0.9,1,2.2,1.5,3.8,1.5c1.5,0,2.5-0.3,3-0.5
			l0.2-0.1l-0.2-3.2l-0.4,0.1c-0.5,0.2-1,0.2-1.8,0.2c-1.5,0-2.2-1-2.2-3.2v-9.5h4.7v-3.1h-4.7V32.9z"/>
		<path class="st299" d="M174.2,37c-5.5,0-9.4,4.1-9.4,10c0,5.7,3.7,9.7,9.1,9.7h0c4.5,0,9.4-3.1,9.4-10c0-2.8-0.9-5.2-2.5-7
			C179.2,37.9,176.9,37,174.2,37z M174.1,40.1c3.5,0,5.2,3.5,5.2,6.7c0,3.9-2.2,6.8-5.2,6.8h0c-3,0-5.2-2.8-5.2-6.7
			C168.9,43.5,170.5,40.1,174.1,40.1z"/>
		<path class="st299" d="M195.4,37.2l-0.2-0.1c-0.3-0.1-0.6-0.1-1-0.1c-2.1,0-3.9,1.2-4.9,3.2l-0.1-2.8h-3.5l0,0.3
			c0.1,1.6,0.1,3.3,0.1,5.7l0,12.9h3.9v-10c0-0.5,0-1.1,0.1-1.5c0.4-2.4,2.1-4,4.1-4c0.4,0,0.7,0,1.1,0.1l0.4,0V37.2z"/>
		<path class="st299" d="M204.2,36.9c-5.2,0-8.9,4.2-8.9,10.2c0,5.8,3.6,9.5,9.3,9.5c3,0,5-0.7,6.2-1.2l0.2-0.1l-0.8-2.9l-0.3,0.1
			c-1.1,0.4-2.5,0.9-4.9,0.9c-1.7,0-5.7-0.6-5.9-5.7l12.7,0l0.1-0.3c0.1-0.4,0.1-0.9,0.1-1.6C212.1,41.7,210,36.9,204.2,36.9z
			 M204,39.9c1.2,0,2.2,0.4,2.9,1.1c1.1,1.2,1.3,2.8,1.4,3.7h-9C199.6,42.4,201,39.9,204,39.9z"/>
	</g>
	<g>
		<path class="st299" d="M69.2,13.8c0.9-0.1,1.9-0.2,2.9-0.2c2,0,3.4,0.5,4.3,1.3c1,0.9,1.5,2.1,1.5,3.8c0,1.7-0.6,3.2-1.5,4.1
			c-1,1-2.7,1.5-4.7,1.5c-1,0-1.8,0-2.5-0.1V13.8z M70.6,23.2c0.3,0.1,0.9,0.1,1.4,0.1c2.9,0,4.5-1.6,4.5-4.5c0-2.5-1.4-4.1-4.3-4.1
			c-0.7,0-1.2,0.1-1.6,0.1V23.2z"/>
		<path class="st299" d="M80.4,15.3c-0.5,0-0.8-0.4-0.8-0.9c0-0.5,0.3-0.9,0.9-0.9c0.5,0,0.9,0.4,0.9,0.9
			C81.3,14.9,80.9,15.3,80.4,15.3L80.4,15.3z M79.7,24.3v-7.7h1.4v7.7H79.7z"/>
		<path class="st299" d="M83.2,22.8c0.4,0.3,1.2,0.5,1.8,0.5c1,0,1.5-0.5,1.5-1.1c0-0.7-0.4-1-1.4-1.4c-1.4-0.5-2-1.3-2-2.2
			c0-1.2,1-2.2,2.6-2.2c0.8,0,1.5,0.2,1.9,0.5l-0.3,1c-0.3-0.2-0.9-0.4-1.6-0.4c-0.8,0-1.3,0.5-1.3,1c0,0.6,0.4,0.9,1.4,1.3
			c1.3,0.5,2,1.2,2,2.3c0,1.4-1.1,2.3-2.8,2.3c-0.8,0-1.6-0.2-2.2-0.5L83.2,22.8z"/>
		<path class="st299" d="M89.7,19.1c0-1,0-1.8-0.1-2.5h1.2l0.1,1.3h0c0.6-1,1.5-1.5,2.7-1.5c1.9,0,3.3,1.6,3.3,3.9
			c0,2.8-1.7,4.1-3.5,4.1c-1,0-1.9-0.4-2.4-1.2h0v4.2h-1.4V19.1z M91.1,21.2c0,0.2,0,0.4,0.1,0.6c0.2,1,1.1,1.6,2.1,1.6
			c1.5,0,2.3-1.2,2.3-3c0-1.5-0.8-2.8-2.3-2.8c-0.9,0-1.8,0.7-2.1,1.7c0,0.2-0.1,0.4-0.1,0.6V21.2z"/>
		<path class="st299" d="M101.8,24.4c-2.1,0-3.7-1.5-3.7-3.9c0-2.6,1.7-4.1,3.8-4.1c2.2,0,3.7,1.6,3.7,3.9
			C105.6,23.2,103.6,24.4,101.8,24.4L101.8,24.4z M101.9,23.4c1.3,0,2.3-1.2,2.3-3c0-1.3-0.6-2.9-2.3-2.9c-1.6,0-2.3,1.5-2.3,3
			C99.6,22.1,100.5,23.4,101.9,23.4L101.9,23.4z"/>
		<path class="st299" d="M107.4,18.7c0-0.8,0-1.4-0.1-2.1h1.2l0.1,1.3h0c0.4-0.7,1.3-1.4,2.5-1.4c1.1,0,2.7,0.6,2.7,3.3v4.6h-1.4
			v-4.4c0-1.2-0.5-2.3-1.8-2.3c-0.9,0-1.6,0.7-1.9,1.4c-0.1,0.2-0.1,0.4-0.1,0.6v4.6h-1.4V18.7z"/>
		<path class="st299" d="M116.8,15.3c-0.5,0-0.8-0.4-0.8-0.9c0-0.5,0.3-0.9,0.9-0.9c0.5,0,0.9,0.4,0.9,0.9
			C117.7,14.9,117.4,15.3,116.8,15.3L116.8,15.3z M116.2,24.3v-7.7h1.4v7.7H116.2z"/>
		<path class="st299" d="M119.9,13h1.4v4.8h0c0.5-0.9,1.4-1.4,2.6-1.4c1.9,0,3.2,1.6,3.2,3.9c0,2.8-1.7,4.1-3.4,4.1
			c-1.1,0-2-0.4-2.6-1.4h0l-0.1,1.3h-1.2c0-0.5,0.1-1.3,0.1-2V13z M121.2,21.2c0,0.2,0,0.3,0,0.5c0.3,1,1.1,1.6,2.1,1.6
			c1.5,0,2.3-1.2,2.3-2.9c0-1.5-0.8-2.9-2.3-2.9c-0.9,0-1.8,0.7-2.1,1.7c0,0.2-0.1,0.4-0.1,0.6V21.2z"/>
		<path class="st299" d="M128.9,13h1.4v11.2h-1.4V13z"/>
		<path class="st299" d="M133.4,20.7c0,1.9,1.2,2.6,2.6,2.6c1,0,1.6-0.2,2.1-0.4l0.3,1c-0.5,0.2-1.3,0.5-2.6,0.5
			c-2.3,0-3.8-1.6-3.8-3.9c0-2.3,1.4-4.1,3.6-4.1c2.5,0,3.1,2.2,3.1,3.6c0,0.3,0,0.5,0,0.6H133.4z M137.4,19.7
			c0-0.9-0.4-2.3-1.9-2.3c-1.4,0-2,1.3-2.1,2.3H137.4z"/>
		<path class="st299" d="M144.7,20.7c0,1.9,1.2,2.6,2.6,2.6c1,0,1.6-0.2,2.1-0.4l0.3,1c-0.5,0.2-1.3,0.5-2.6,0.5
			c-2.3,0-3.8-1.6-3.8-3.9c0-2.3,1.4-4.1,3.6-4.1c2.5,0,3.1,2.2,3.1,3.6c0,0.3,0,0.5,0,0.6H144.7z M148.7,19.7
			c0-0.9-0.4-2.3-1.9-2.3c-1.4,0-2,1.3-2.1,2.3H148.7z"/>
		<path class="st299" d="M151.8,18.7c0-0.8,0-1.4-0.1-2.1h1.2l0.1,1.3h0c0.4-0.7,1.3-1.4,2.5-1.4c1.1,0,2.7,0.6,2.7,3.3v4.6h-1.4
			v-4.4c0-1.2-0.5-2.3-1.8-2.3c-0.9,0-1.6,0.7-1.9,1.4c-0.1,0.2-0.1,0.4-0.1,0.6v4.6h-1.4V18.7z"/>
		<path class="st299" d="M164.7,20.7c0,1.9,1.2,2.6,2.6,2.6c1,0,1.6-0.2,2.1-0.4l0.3,1c-0.5,0.2-1.3,0.5-2.6,0.5
			c-2.3,0-3.8-1.6-3.8-3.9c0-2.3,1.4-4.1,3.6-4.1c2.5,0,3.1,2.2,3.1,3.6c0,0.3,0,0.5,0,0.6H164.7z M168.8,19.7
			c0-0.9-0.4-2.3-1.9-2.3c-1.4,0-2,1.3-2.1,2.3H168.8z"/>
		<path class="st299" d="M171.9,13h1.4v11.2h-1.4V13z"/>
	</g>
</g>
</svg>
