<?xml version="1.0" encoding="utf-8"?>
<!-- Generator: Adobe Illustrator 16.0.0, SVG Export Plug-In . SVG Version: 6.00 Build 0)  -->
<!DOCTYPE svg PUBLIC "-//W3C//DTD SVG 1.1//EN" "http://www.w3.org/Graphics/SVG/1.1/DTD/svg11.dtd">
<svg version="1.1" id="Home_01" xmlns="http://www.w3.org/2000/svg" xmlns:xlink="http://www.w3.org/1999/xlink" x="0px" y="0px"
	 width="82px" height="82px" viewBox="0 0 82 82" enable-background="new 0 0 82 82" xml:space="preserve">
<g>
	<defs>
		<rect id="SVGID_3_" x="324.165" y="-1669.613" width="323.607" height="573.922"/>
	</defs>
	<clipPath id="SVGID_2_">
		<use xlink:href="#SVGID_3_"  overflow="visible"/>
	</clipPath>
	<g transform="matrix(1 0 0 1 1.907349e-06 0)" clip-path="url(#SVGID_2_)">
		
			<image overflow="visible" width="1920" height="1080" xlink:href="../../../Volumes/SERVER/• Trabajos/Consultatio 2017/•Imagenes/girl_grass_nature_rest_sunshine_67626_1920x1080.jpg"  transform="matrix(0.424 0 0 -1.32 18.292 212.5332)">
		</image>
	</g>
</g>
<g>
	<path fill-rule="evenodd" clip-rule="evenodd" d="M61.733,34.153c-0.089,0.389-0.021,0.635,0.343,0.76
		c0.438,0.148,0.632,0.529,0.723,0.936c0.22,0.979,0.22,1.918-0.643,2.637c-0.314,0.256-0.35,0.551-0.307,0.936
		c0.183,1.736,0.313,3.486,0.484,5.221c0.138,1.41,0.331,2.82,0.45,4.232c0.06,0.754,0.008,1.521,0.015,2.277
		c0.021,1.646,0.035,3.289,0.054,4.934c0.005,0.111-0.027,0.217-0.041,0.348c-1.298,0.561-2.641,0.682-4.012,0.449
		c-0.312-0.053-0.508-0.014-0.75,0.15c-0.831,0.57-1.793,0.84-2.778,0.893c-0.505,0.033-1.045-0.078-1.509-0.273
		c-0.354-0.152-0.635-0.201-1.008-0.09c-0.703,0.213-1.42,0.4-2.15,0.539c-0.787,0.141-1.606,0.135-2.354-0.164
		c-0.767-0.312-1.42-0.195-2.067,0.246c-0.087,0.062-0.19,0.1-0.333,0.178c0,0.15-0.066,0.357,0.011,0.453
		c0.58,0.768,0.563,1.699,0.767,2.566c0.331,1.355,0.67,2.711,0.983,4.064c0.065,0.311,0.052,0.637,0.077,0.982
		c-0.467,0.021-0.487-0.258-0.553-0.529c-0.414-1.643-0.83-3.285-1.252-4.926c-0.213-0.811-0.434-1.617-0.658-2.461
		c-0.745,0.285-1.4,0.539-2.016,0.775c-0.196,1.316-0.166,2.588,0,3.85c0.165,1.258,0.33,2.52,0.508,3.842
		c-0.541-0.08-0.732-0.328-0.786-0.727c-0.232-1.846-0.466-3.688-0.699-5.533c-0.049-0.436-0.095-0.869,0.39-1.195
		c-3.037,0.699-6.079,0.963-9.137,0.721c-3.049-0.238-6.078-0.648-8.879-1.902c-0.59,2.104-1.173,4.193-1.743,6.244
		c-0.91,0.143-0.986,0.047-0.759-0.689c0.5-1.561,0.986-3.129,1.474-4.697c0.205-0.65,0.131-0.822-0.462-1.221
		c-0.142-0.096-0.283-0.174-0.428-0.264c-1.192,2.078-2.231,4.232-3.387,6.299c-0.533-0.107-0.574-0.377-0.408-0.693
		c0.739-1.398,1.507-2.783,2.221-4.199c0.299-0.576,0.511-1.209,0.752-1.814c0.107-0.254,0.203-0.504,0.273-0.672
		c-0.572-1.068-1.139-2.084-1.666-3.133c-0.172-0.33-0.247-0.717-0.355-1.08c-0.125-0.42-0.19-0.861-0.355-1.268
		c-0.547-1.271-0.644-2.645-0.936-3.977c-0.059-0.256-0.11-0.518-0.193-0.916c-0.146,0.252-0.236,0.357-0.275,0.479
		c-0.146,0.4-0.431,0.453-0.825,0.516c-1.009,0.164-1.553-0.67-2.444-0.938c0.341-0.24,0.594-0.414,0.909-0.633
		c0.56,0.271,1.154,0.553,1.828,0.879c0.442-0.529,0.639-1.209,0.647-1.963c0.022-1.146-0.042-2.301,0.04-3.443
		c0.188-2.508,0.474-5.01,1.178-7.447c0.486-1.699,1.486-2.996,3.001-3.953c1.611-1.021,3.352-1.527,5.229-1.779
		c2.646-0.361,5.244-0.227,7.82,0.406c1.297,0.32,2.583,0.699,3.874,1.072c0.252,0.072,0.492,0.211,0.777,0.344
		c0-0.186,0.037-0.324,0-0.445c-0.505-1.492-0.255-2.973,0.071-4.447c0.148-0.666,0.377-1.322,0.609-1.957
		c0.367-1.012,1.127-1.729,1.863-2.461c1.676-1.666,4.89-2.482,6.95-2.223c0.099,0.379-0.046,0.617-0.358,0.855
		c-0.818,0.602-1.621,1.225-2.393,1.875c-0.834,0.691-1.334,1.621-1.484,2.676c-0.14,0.939-0.17,1.898-0.173,2.846
		c-0.011,1.113,0.618,1.971,1.304,2.76c0.804,0.932,1.763,1.721,3.035,1.766c1.584,0.055,3.179-0.033,4.766-0.092
		c0.896-0.035,1.795-0.111,2.693-0.211c0.953-0.102,1.92-0.17,2.837-0.398c1.168-0.301,1.948-1.18,2.367-2.242
		c0.72-1.832,0.792-3.674-0.374-5.414c-0.72-1.072-1.764-1.613-2.947-1.947c-0.365-0.107-0.855-0.139-0.827-0.631
		c0.036-0.49,0.54-0.48,0.896-0.529c2.199-0.307,3.946,0.562,5.283,2.213c1.22,1.51,1.976,3.268,2.331,5.199
		c0.198,1.105-0.064,2.125-0.375,3.148c-0.57,1.828-1.941,2.92-3.577,3.744c-0.175,0.084-0.365,0.131-0.548,0.172
		C62.156,34.101,61.972,34.116,61.733,34.153 M48.589,19.038c-0.013-0.062-0.026-0.131-0.033-0.191
		c-0.531,0.068-1.079,0.09-1.597,0.215c-1.14,0.271-2.253,0.596-3.191,1.402c-2.242,1.924-3.216,4.398-3.081,7.271
		c0.102,2.125,1.172,3.688,3.117,4.672c1.447,0.729,2.958,0.934,4.531,0.963c1.111,0.035,1.91-0.441,2.221-1.617
		c-0.492-0.068-0.991-0.1-1.461-0.215c-1.467-0.369-2.432-1.42-3.275-2.582c-0.809-1.111-1.026-2.391-0.918-3.748
		c0.144-1.84,0.514-3.578,2.034-4.83C47.484,19.921,48.035,19.487,48.589,19.038 M60.665,30.96c0.311,0.842,0.605,1.654,0.934,2.537
		c0.38-0.084,0.735-0.084,0.995-0.236c0.796-0.467,1.64-0.9,2.314-1.52c1.315-1.197,1.597-2.818,1.419-4.512
		c-0.187-1.703-0.967-3.197-1.912-4.586c-0.793-1.164-1.881-1.988-3.257-2.369c-0.409-0.111-0.867-0.178-1.39,0
		c0.16,0.125,0.216,0.193,0.281,0.215c1.502,0.42,2.458,1.498,2.975,2.842c0.695,1.803,0.58,3.652-0.324,5.404
		C62.233,29.644,61.567,30.396,60.665,30.96 M51.185,37.079c-0.068,0.855-0.406,1.443-1.135,1.963
		c0.944,0.254,1.78,0.49,2.606,0.717c0.36,0.096,0.649-0.051,0.873-0.314c0.247-0.285,0.057-0.557-0.091-0.814
		C52.959,37.794,52.163,37.421,51.185,37.079 M60.185,38.38c0.402-0.088,0.705-0.168,1.015-0.207
		c0.612-0.092,0.97-0.346,1.085-0.896c0.061-0.309,0.09-0.643,0.067-0.967c-0.05-0.625-0.553-0.963-1.15-0.766
		c-0.384,0.123-0.742,0.291-1.194,0.475C60.685,36.745,60.492,37.507,60.185,38.38 M47.391,36.884
		c0.226,1.131,0.679,1.523,1.733,1.678c0.108-0.598,0.223-1.201,0.344-1.871C48.788,36.753,48.115,36.812,47.391,36.884
		 M59.64,38.036c0.613-0.598,0.596-1.096-0.023-1.689C59.136,37.169,59.129,37.388,59.64,38.036 M58.544,37.116
		c-0.735,0.439-0.735,0.439-0.845,1.08c0.372-0.027,0.731-0.049,1.151-0.082C58.735,37.739,58.64,37.433,58.544,37.116
		 M50.659,36.901c-0.789,0.229-0.808,0.299-0.354,1.271C50.634,37.8,50.876,37.452,50.659,36.901"/>
	
		<circle fill-rule="evenodd" clip-rule="evenodd" fill="none" stroke="#000000" stroke-width="2" stroke-miterlimit="10" cx="41" cy="40.999" r="36.739"/>
</g>
</svg>
