<?xml version="1.0" encoding="utf-8"?>
<!-- Generator: Adobe Illustrator 16.0.0, SVG Export Plug-In . SVG Version: 6.00 Build 0)  -->
<!DOCTYPE svg PUBLIC "-//W3C//DTD SVG 1.1//EN" "http://www.w3.org/Graphics/SVG/1.1/DTD/svg11.dtd">
<svg version="1.1" id="Home_01" xmlns="http://www.w3.org/2000/svg" xmlns:xlink="http://www.w3.org/1999/xlink" x="0px" y="0px"
	 width="82px" height="82px" viewBox="0 0 82 82" enable-background="new 0 0 82 82" xml:space="preserve">
<g>
	<g>
		<g>
			<g>
				<g>
					<path fill-rule="evenodd" clip-rule="evenodd" d="M30.828,61.321c-0.939-0.607-1.801-1.102-2.605-1.682
						c-2.645-1.867-4.084-4.582-4.963-7.576c-0.596-2.027-0.979-4.127-1.264-6.229c-0.137-1.047,0.115-2.154,0.258-3.236
						c0.334-2.568,0.947-5.094,2.041-7.43c1.85-3.992,4.236-7.572,8.061-10.082c1.865-1.227,3.863-1.957,5.9-2.664
						c0.016-0.943-0.766-1.152-1.26-1.6c-0.488-0.439-1.387-0.652-1.252-1.48c0.152-0.846,1.047-0.992,1.725-1.225
						c2.637-0.902,5.281-0.689,7.9,0.074c1.061,0.312,2.055,0.801,2.289,2.123c-1.379,0.924-2.885,1.486-4.771,1.689
						c0.428,0.229,0.652,0.424,0.895,0.457c2.24,0.232,4.221,1.211,6.008,2.418c2.5,1.676,5.004,3.375,6.947,5.777
						c2.494,3.094,3.801,6.58,3.902,10.52c0.061,2.184,0.121,4.381-0.51,6.496c-1.088,3.678-2.859,6.98-5.65,9.641
						c-1.672,1.598-3.492,3.047-5.316,4.619c0.098,2.006,1.459,3.961,0.932,6.432c-1.783-1.742-1.516-4.096-2.492-6.062
						c-5.121,1.537-10.223,0.523-15.477-0.268c-0.701,0.83-1.062,1.994-1.162,3.152c-0.123,1.361-1.195,2.273-1.432,3.545
						c-0.023,0.111-0.439,0.266-0.617,0.209c-0.17-0.053-0.406-0.395-0.363-0.535c0.637-2.207,1.316-4.404,1.986-6.602
						C30.58,61.675,30.684,61.562,30.828,61.321 M41.586,59.86c1.795,0.232,3.697-0.359,5.639-0.742
						c2.561-0.514,4.227-2.104,5.496-4.16c2.395-3.842,3.443-8.1,3.426-12.59c-0.008-1.92-0.014-3.936-0.578-5.734
						c-0.82-2.586-2.191-4.986-4.24-6.891c-0.467-0.438-0.93-0.896-1.365-1.369c-1.969-2.139-4.395-3.311-7.305-3.467
						c-1.041-0.057-2.08-0.111-3.105-0.24c-1.814-0.227-3.225,0.361-4.547,1.637c-1.98,1.91-3.406,4.25-5.143,6.344
						c-0.348,0.424-0.615,0.898-0.896,1.367c-1.254,2.041-2,4.293-2.859,6.512c-0.891,2.32-1.346,4.662-1.16,7.125
						c0.176,2.082,0.654,4.043,1.941,5.814c1.338,1.857,3.117,3.178,4.898,4.506c0.686,0.523,1.527,0.967,2.361,1.15
						C36.521,59.634,38.918,60.071,41.586,59.86 M46.201,19.974c-3.072-1.537-6.111-1.92-9.369-0.396
						c1.295,1.064,2.422,1.969,4.004,1.705c1.5-0.252,2.996-0.566,4.49-0.879C45.633,20.337,45.908,20.118,46.201,19.974"/>
				</g>
			</g>
			<path fill-rule="evenodd" clip-rule="evenodd" d="M41,40.999c3.662-0.064,4.953,2.258,3.227,5.461
				c0.691,0.777,1.4,1.59,2.135,2.385c0.682,0.748,1.4,1.469,2.16,2.25c0.076-1.736-0.396-3.398,0.139-5.023
				c0.703,0.002,0.934,0.389,0.984,0.928c0.094,1.035,0.195,2.072,0.254,3.105c0.033,0.676,0.004,1.344,0.004,2.297
				c-1.908,1.113-4.291,1.168-6.609,1.178c-0.389-0.578-0.201-0.902,0.223-1.064c1.146-0.441,2.311-0.842,3.588-1.305
				c-1.117-1.35-2.158-2.9-3.76-3.92c-0.35-0.223-0.818-0.277-1.24-0.348c-2.086-0.312-2.92-1.473-2.398-3.557
				c0.688-2.754,0.234-5.533,0.312-8.299c0.01-0.17-0.133-0.355-0.291-0.729c-0.66,0.699-1.219,1.287-1.738,1.846
				c-0.18,0-0.295,0.027-0.381-0.006c-1.748-0.713-1.734-0.695-0.43-2.021c0.658-0.676,1.234-1.43,1.867-2.127
				c0.6-0.672,1.234-1.314,2.379-1.139c0.627,1.748,2.762,2.52,3.258,4.605c-2.072,0.016-2.695-1.65-4.01-2.645
				C40.779,35.552,40.893,38.237,41,40.999"/>
		</g>
	</g>
	
		<circle fill-rule="evenodd" clip-rule="evenodd" fill="none" stroke="#000000" stroke-width="2" stroke-miterlimit="10" cx="41.001" cy="40.999" r="36.739"/>
</g>
</svg>
