<?xml version="1.0" encoding="utf-8"?>
<!-- Generator: Adobe Illustrator 19.1.0, SVG Export Plug-In . SVG Version: 6.00 Build 0)  -->
<svg version="1.1" id="Layer_2" xmlns="http://www.w3.org/2000/svg" xmlns:xlink="http://www.w3.org/1999/xlink" x="0px" y="0px"
	 viewBox="-288 379 33 36" style="enable-background:new -288 379 33 36;" xml:space="preserve">
<g>
	<g>
		<g>
			<path d="M-265.6,381.3h-11.8c-5.4,0-9.8,4.4-9.8,9.8v11.8c0,5.4,4.4,9.8,9.8,9.8h11.8c5.4,0,9.8-4.4,9.8-9.8v-11.8
				C-255.8,385.7-260.2,381.3-265.6,381.3z M-258.7,402.9c0,3.8-3.1,6.9-6.9,6.9h-11.8c-3.8,0-6.9-3.1-6.9-6.9v-11.8
				c0-3.8,3.1-6.9,6.9-6.9h11.8c3.8,0,6.9,3.1,6.9,6.9V402.9z"/>
		</g>
	</g>
	<g>
		<g>
			<path d="M-271.5,389.1c-4.3,0-7.9,3.5-7.9,7.9s3.5,7.9,7.9,7.9s7.9-3.5,7.9-7.9S-267.2,389.1-271.5,389.1z M-271.5,401.9
				c-2.7,0-4.9-2.2-4.9-4.9c0-2.7,2.2-4.9,4.9-4.9c2.7,0,4.9,2.2,4.9,4.9C-266.6,399.7-268.8,401.9-271.5,401.9z"/>
		</g>
	</g>
	<g>
		<g>
			<circle cx="-263" cy="388.6" r="1"/>
		</g>
	</g>
</g>
</svg>
