<?xml version="1.0" encoding="utf-8"?>
<!-- Generator: Adobe Illustrator 16.0.0, SVG Export Plug-In . SVG Version: 6.00 Build 0)  -->
<!DOCTYPE svg PUBLIC "-//W3C//DTD SVG 1.1//EN" "http://www.w3.org/Graphics/SVG/1.1/DTD/svg11.dtd">
<svg version="1.1" id="Home_01" xmlns="http://www.w3.org/2000/svg" xmlns:xlink="http://www.w3.org/1999/xlink" x="0px" y="0px"
	 width="436.246px" height="85.956px" viewBox="0 0 436.246 85.956" enable-background="new 0 0 436.246 85.956"
	 xml:space="preserve">
<g>
	<g>
		<g>
			<g>
				<path fill="#F4F4F3" d="M81.472,10.902H70.783c-0.846,0-1.534,0.684-1.534,1.535V74.26c0,0.85,0.688,1.537,1.534,1.537h10.688
					c0.851,0,1.538-0.688,1.538-1.537V12.438C83.01,11.586,82.322,10.902,81.472,10.902z"/>
				<path fill="#F4F4F3" d="M136.758,26.094h-10.686c-0.847,0-1.535,0.686-1.535,1.534v26.319c0,6.188-3.438,10.033-8.973,10.033
					c-6.981,0-8.446-5.361-8.446-9.857V27.628c0-0.849-0.688-1.534-1.536-1.534H94.894c-0.844,0-1.533,0.686-1.533,1.534v29.677
					c0,12.004,6.951,19.468,18.138,19.468c5.168,0,9.462-1.786,13.039-5.429v2.916c0,0.85,0.688,1.537,1.535,1.537h10.686
					c0.852,0,1.534-0.688,1.534-1.537V27.628C138.292,26.779,137.609,26.094,136.758,26.094z"/>
				<path fill="#F4F4F3" d="M169.463,45.244l-0.917-0.297c-4.191-1.342-8.528-2.728-8.528-4.778v-0.175
					c0-2.316,2.583-3.143,4.999-3.143c3.477,0,7.978,1.525,12.363,4.188c0.357,0.218,0.791,0.278,1.19,0.171
					c0.404-0.104,0.748-0.367,0.953-0.73l4.238-7.598c0.39-0.703,0.174-1.592-0.495-2.033c-5.265-3.479-11.986-5.551-17.98-5.551
					c-10.682,0-18.144,6.479-18.144,15.756v0.176c0,10.742,10.207,13.622,15.66,15.156l1.104,0.336
					c5.12,1.554,8.231,2.646,8.231,4.733v0.178c0,3.157-3.99,3.497-5.708,3.497c-4.612,0-9.711-1.932-14.355-5.434
					c-0.336-0.26-0.77-0.357-1.186-0.287c-0.417,0.074-0.786,0.316-1.02,0.67l-4.77,7.24c-0.437,0.668-0.293,1.559,0.332,2.055
					c5.894,4.643,13.453,7.303,20.737,7.303c11.447,0,18.846-6.355,18.846-16.194v-0.177
					C185.016,50.093,174.889,46.934,169.463,45.244z"/>
				<path fill="#F4F4F3" d="M35.021,10.902H10.646c-0.852,0-1.538,0.684-1.538,1.535V74.26c0,0.705,0.474,1.316,1.153,1.491
					c0.129,0.028,0.257,0.046,0.385,0.046c0.549,0,1.073-0.297,1.348-0.797l10.421-19.074H33.78
					c15.711,0,26.268-9.136,26.268-22.733C60.048,19.651,50.227,10.902,35.021,10.902z M34.134,43.052H23.043V23.865h11.091
					c4.406,0,11.803,1.247,11.803,9.594C45.937,39.288,41.307,43.052,34.134,43.052z"/>
			</g>
		</g>
		<line fill="none" stroke="#F4F4F3" stroke-miterlimit="10" x1="205.425" y1="77.955" x2="205.425" y2="8.001"/>
		<path fill-rule="evenodd" clip-rule="evenodd" fill="#F4F4F3" d="M400.72,27.052c1.652,0,2.941-1.376,2.941-3.013
			c0-1.636-1.289-3.013-2.941-3.013s-2.941,1.377-2.941,3.013C397.778,25.676,399.067,27.052,400.72,27.052z M293.253,30.204
			c-0.619,0-1.128,0.572-1.558,1.219c-0.859,1.293-8.229,12.819-8.229,12.819c-0.618,0.821-0.907,1.17-1.323,1.17
			c-0.447,0-0.625-0.58-0.625-1.257l0.011-9.785c0-1.863-0.569-3.934-2.73-3.934c-2.31,0-4.009,2.308-5.496,4.526
			c-0.84,1.254-3.155,4.813-5.097,7.81c-0.181,0.092-0.214,0.049-0.214-0.064l-0.001-8.18c0-2.493-1.195-4.092-3.76-4.092H251.77
			c-0.786-0.161-1.759-0.293-2.7-0.293c-2.52,0-2.977,0.996-2.977,1.646c0,1.127,1.203,1.934,1.894,1.934
			c0.165,0,1.128-0.557,3.643-0.896c1.432,1.546,1.973,4.359,1.973,7.494c0,4.623-1.73,8.178-4.022,8.178
			c-2.133,0-3.622-3.312-3.622-7.936c0-2.016,0.273-3.437,0.818-4.845c0.187-0.479-0.172-1.071-0.892-1.071
			c-2.295,0-4.157,1.416-5.212,3.646c-2.187,4.624-6.089,11.361-10.341,11.361c-3.405,0-5.862-6.445-5.862-13.803
			c0-12.983,3.776-18.652,6.176-18.652c2.057,0,2.357,6.835,2.357,12.748c0,0.426,0.228,0.691,0.571,0.691
			c0.858,0,4.228-2.451,4.228-5.302c0-5.003-2.974-9.892-7.03-9.892c-4.714,0-12.753,8.064-12.753,20.397
			c0,9.202,4.674,15.805,11.813,15.805c4.198,0,8.076-4.093,11.002-8.431c0.916,3.691,3.897,6.961,8.671,6.961
			c5.636,0,9.105-5.268,9.105-10.536c0-1.894-0.675-5.04-3.002-7.181c1.589-0.094,3.254-0.152,5.569-0.152
			c1.12,0,1.598,0.682,1.598,1.871v13.615c0,1.23,0.633,2.137,1.85,2.137c1.205,0,2.053-0.914,2.426-1.474
			c1.977-2.97,6.791-10.419,8.028-12.333c0.403-0.623,0.647-0.943,0.926-0.943c0.207,0,0.309,0.137,0.309,0.438l-0.004,10.379
			c0,2.445,1.405,3.864,3.572,3.864c2.267,0,4.155-2.302,5.643-4.52c1.114-1.663,5.735-9.257,6.205-9.979
			c0.087-0.133,0.172-0.204,0.284-0.204c0.118,0,0.208,0.062,0.307,0.207c1.495,2.192,3.628,5.051,3.628,7.935
			c0,2.233-1.605,4.586-5.197,4.586c-0.333,0-0.55,0.197-0.55,0.461c0,0.801,1.667,1.957,3.876,1.957
			c4.246,0,7.425-2.85,7.425-6.873c0-4.812-5.146-10.177-6.907-12.533C294.177,30.342,293.743,30.204,293.253,30.204z
			 M417.607,29.62c-2.156,0-3.097,0.816-3.097,1.25c0,0.465,0.311,0.642,0.774,0.642c4.484,0,6.569,3.552,6.569,8.441
			c0,3.925-1.456,8.546-3.97,8.546c-2.133,0-3.623-3.314-3.623-7.934c0-2.018,0.373-3.78,0.918-5.188
			c0.186-0.479-0.173-1.072-0.892-1.072c-1.95,0-3.58,1.406-4.608,2.973c-2.264,3.455-4.504,6.964-4.506,6.965
			c-0.566,0.855-0.908,1.17-1.324,1.17c-0.447,0-0.624-0.581-0.624-1.258l0.011-10.03c0-1.864-0.456-3.688-2.531-3.688
			c-1.703,0-2.696,1.308-3.386,2.354l-7.409,11.452c-0.566,0.855-1.062,1.17-1.478,1.17c-0.526,0-0.777-0.581-0.777-1.258
			l0.004-2.953l0.008-8.641h4.938c0.57,0,1.033-0.48,1.033-1.072c0-0.593-0.463-1.073-1.033-1.073h-4.941l0.002-9.944
			c0.001-0.637-0.567-1.063-1.115-0.94c-0.219-0.048-3.043,1.638-3.043,1.638c-0.657,0.422-1.058,1.164-1.058,1.967v7.28h-1.644
			c-0.569,0-1.032,0.48-1.032,1.073c0,0.592,0.463,1.072,1.032,1.072h1.644l0.002,2.689l-5.819,8.992
			c-0.567,0.855-0.908,1.17-1.325,1.17c-0.447,0-0.624-0.581-0.624-1.258l0.011-4.424c0-1.864-0.369-3.688-2.532-3.688
			c-1.764,0-2.831,1.192-4.267,3.27c-0.228,0.329-2.861,4.139-3.301,4.709c-0.699,0.904-1.356,1.391-2.067,1.391
			c-0.645,0-1.241-0.483-1.241-3.396c0-6.038,2.711-9.438,5.254-9.438c2.994,0,3.428,1.58,4.083,1.58c0.394,0,0.946-0.6,0.66-1.089
			c-2.405-4.119-9.788-4.693-14.082,2.2c-2.556,4.1-5.823,8.972-5.825,8.973c-0.565,0.855-1.062,1.17-1.479,1.17
			c-0.525,0-0.776-0.581-0.776-1.258l0.013-11.594h4.938c0.569,0,1.031-0.48,1.031-1.072c0-0.593-0.462-1.073-1.031-1.073h-4.941
			l0.002-9.944c0-0.637-0.568-1.063-1.116-0.94c-0.22-0.048-3.043,1.638-3.043,1.638c-0.657,0.422-1.059,1.164-1.059,1.967
			l0.001,7.28h-1.644c-0.569,0-1.032,0.48-1.032,1.073c0,0.592,0.463,1.072,1.032,1.072h1.644l0.004,13.438
			c0,2.445,1.125,3.928,3.291,3.928c2.409,0,4.453-2.301,5.939-4.521c0.697-1.038,1.789-2.708,2.921-4.446
			c-0.016,0.344-0.021,0.682-0.021,1.006c0,5.525,1.796,7.957,4.194,7.957c1.537,0,2.961-0.65,4.439-2.5
			c0.924-1.157,3.326-4.051,3.892-4.884c0.417-0.614,0.647-0.944,0.926-0.944c0.208,0,0.309,0.138,0.309,0.438l-0.004,3.966
			c0,2.445,0.792,3.928,2.959,3.928c2.267,0,4.155-2.301,5.642-4.521c0.928-1.382,2.559-3.888,4.046-6.178l0.003,6.771
			c0,2.445,1.123,3.928,3.291,3.928c2.5,0,4.453-2.301,5.938-4.521c0.668-0.993,4.616-7.006,5.101-7.755
			c0.403-0.623,0.621-0.914,0.899-0.914c0.228,0,0.334,0.107,0.334,0.408l-0.003,8.854c0,2.445,1.124,3.928,3.291,3.928
			c2.267,0,4.155-2.301,5.642-4.521c0.507-0.756,1.225-1.847,2.013-3.056c0.641,4.031,3.704,7.828,8.849,7.828
			c5.784,0,9.328-5.121,9.328-10.461C427.138,33.325,422.072,29.62,417.607,29.62z M337.441,45.111l0.007-29.085
			c0-0.635-0.569-1.062-1.117-0.938c-0.218-0.05-3.041,1.639-3.041,1.639c-0.659,0.421-1.061,1.163-1.061,1.967l-0.011,16.677
			l-5.741,8.875c-0.566,0.854-0.908,1.168-1.324,1.168c-0.447,0-0.625-0.581-0.625-1.258l0.007-5.346l0.002-6.527
			c0-1.231-0.633-2.139-1.85-2.139c-1.206,0-2.053,0.914-2.425,1.475c-1.454,2.182-8.071,12.771-8.071,12.771
			c-0.566,0.857-0.907,1.17-1.324,1.17c-0.446,0-0.625-0.58-0.625-1.256l0.016-13.477c0-0.637-0.567-1.064-1.116-0.94
			c-0.219-0.05-3.042,1.638-3.042,1.638c-0.657,0.422-1.061,1.164-1.061,1.969l-0.004,12.846c0.059,2.332,1.181,3.735,3.289,3.735
			c2.207,0,3.895-1.942,5.065-3.646c0.054-0.079,3.773-6.129,5.716-9.123c0.18-0.094,0.214-0.051,0.214,0.062v1.441l-0.001,7.189
			c0,2.445,1.125,3.928,3.291,3.928c2.268,0,4.156-2.301,5.643-4.52c0.91-1.357,2.499-3.798,3.965-6.055l-0.003,4.914
			c0,4.888,1.84,7.382,4.239,7.382c0.867,0,1.998-0.481,1.658-1.153C337.684,49.647,337.441,47.917,337.441,45.111z"/>
		<path fill="#F4F4F3" d="M386.132,70.405c-0.491,0-0.923-0.064-1.295-0.19c-0.365-0.126-0.674-0.296-0.926-0.511
			c-0.246-0.221-0.435-0.479-0.567-0.773c-0.133-0.297-0.208-0.611-0.227-0.945h0.954c0.058,0.535,0.259,0.945,0.605,1.229
			c0.346,0.276,0.841,0.416,1.483,0.416c0.233,0,0.447-0.027,0.643-0.076c0.202-0.057,0.372-0.136,0.511-0.236
			c0.146-0.106,0.258-0.238,0.34-0.396s0.123-0.344,0.123-0.558c0-0.228-0.05-0.417-0.151-0.567
			c-0.094-0.152-0.232-0.277-0.416-0.379c-0.176-0.101-0.391-0.186-0.643-0.255c-0.245-0.069-0.522-0.138-0.831-0.207
			c-0.315-0.063-0.615-0.14-0.898-0.226c-0.277-0.09-0.522-0.207-0.736-0.352c-0.215-0.15-0.385-0.336-0.511-0.557
			c-0.12-0.222-0.18-0.502-0.18-0.843c0-0.296,0.06-0.562,0.18-0.793c0.119-0.232,0.286-0.429,0.501-0.587
			c0.214-0.163,0.469-0.286,0.766-0.367c0.302-0.088,0.633-0.133,0.992-0.133c0.435,0,0.81,0.053,1.124,0.161
			c0.315,0.101,0.58,0.241,0.795,0.425c0.22,0.182,0.39,0.4,0.51,0.651c0.119,0.253,0.201,0.529,0.246,0.833h-0.937
			c-0.062-0.429-0.242-0.754-0.538-0.975c-0.296-0.227-0.692-0.34-1.191-0.34c-0.466,0-0.838,0.092-1.115,0.274
			c-0.276,0.183-0.415,0.45-0.415,0.803c0,0.188,0.044,0.351,0.132,0.483c0.095,0.125,0.221,0.232,0.378,0.32
			c0.164,0.088,0.356,0.164,0.576,0.227c0.228,0.057,0.473,0.114,0.737,0.17c0.341,0.07,0.665,0.148,0.975,0.236
			c0.314,0.088,0.592,0.215,0.831,0.379c0.245,0.157,0.438,0.362,0.576,0.615c0.146,0.25,0.218,0.572,0.218,0.963
			c0,0.334-0.066,0.631-0.198,0.889c-0.126,0.258-0.306,0.477-0.539,0.652s-0.51,0.308-0.832,0.396
			C386.859,70.356,386.51,70.405,386.132,70.405z M375.367,63.231h5v0.851h-4.036v2.126h3.648v0.803h-3.648v2.373h4.14v0.879h-5.104
			V63.231z M369.375,70.405c-0.504,0-0.96-0.092-1.37-0.275c-0.404-0.182-0.75-0.436-1.04-0.756
			c-0.283-0.326-0.504-0.715-0.661-1.162c-0.158-0.447-0.236-0.937-0.236-1.465c0-0.517,0.075-1,0.227-1.445
			c0.151-0.448,0.368-0.836,0.652-1.164c0.29-0.326,0.64-0.586,1.049-0.774c0.416-0.188,0.886-0.284,1.408-0.284
			c0.416,0,0.784,0.058,1.105,0.171c0.328,0.106,0.611,0.258,0.852,0.452c0.251,0.203,0.45,0.445,0.595,0.729
			c0.151,0.278,0.252,0.586,0.303,0.926h-0.964c-0.082-0.434-0.287-0.779-0.614-1.039c-0.321-0.265-0.753-0.396-1.295-0.396
			c-0.372,0-0.703,0.072-0.992,0.216c-0.29,0.139-0.536,0.334-0.737,0.586c-0.196,0.252-0.347,0.551-0.454,0.898
			c-0.101,0.346-0.151,0.722-0.151,1.125c0,0.422,0.054,0.807,0.161,1.152c0.113,0.348,0.271,0.644,0.473,0.889
			c0.207,0.246,0.456,0.438,0.746,0.576c0.29,0.133,0.611,0.199,0.964,0.199c0.322,0,0.599-0.051,0.833-0.152
			c0.238-0.1,0.438-0.235,0.595-0.404c0.164-0.172,0.29-0.367,0.378-0.588c0.095-0.227,0.151-0.465,0.17-0.718h0.964
			c0,0.176-0.022,0.356-0.066,0.54c-0.037,0.176-0.094,0.349-0.169,0.52c-0.076,0.17-0.165,0.334-0.265,0.491
			c-0.102,0.151-0.215,0.286-0.341,0.405C370.995,70.155,370.289,70.405,369.375,70.405z M362.004,63.231h0.963v7.031h-0.963V63.231
			z M353.261,63.231h1.04l1.54,4.687c0.044,0.126,0.089,0.278,0.133,0.455l0.142,0.491c0.051,0.184,0.098,0.368,0.142,0.557
			c0.062-0.195,0.11-0.383,0.161-0.566l0.132-0.491c0.044-0.171,0.088-0.319,0.132-0.445l1.522-4.687h1.001l-2.456,7.031h-1.059
			L353.261,63.231z M346.276,66.558h2.014c0.479,0,0.834-0.11,1.067-0.33c0.239-0.229,0.359-0.534,0.359-0.916
			c0-0.417-0.107-0.729-0.321-0.938c-0.208-0.208-0.562-0.312-1.059-0.312h-2.061V66.558z M345.312,63.231h3.289
			c0.315,0,0.602,0.047,0.86,0.142c0.258,0.087,0.479,0.216,0.661,0.388c0.189,0.17,0.334,0.374,0.435,0.613
			c0.101,0.24,0.151,0.505,0.151,0.795c0,0.428-0.098,0.793-0.293,1.096c-0.195,0.295-0.526,0.518-0.992,0.662
			c0.195,0.084,0.359,0.16,0.491,0.254c0.133,0.095,0.239,0.213,0.321,0.352c0.082,0.131,0.142,0.292,0.18,0.48
			c0.044,0.189,0.076,0.41,0.095,0.661c0.019,0.278,0.041,0.511,0.066,0.7c0.024,0.184,0.05,0.334,0.075,0.453
			c0.024,0.114,0.051,0.202,0.076,0.265c0.031,0.058,0.065,0.099,0.104,0.123l-1.03,0.048c-0.037-0.031-0.069-0.079-0.094-0.142
			c-0.026-0.063-0.048-0.154-0.067-0.274c-0.019-0.119-0.034-0.271-0.047-0.453l-0.048-0.71c-0.031-0.497-0.156-0.847-0.378-1.048
			c-0.22-0.201-0.561-0.303-1.021-0.303h-1.871v2.93h-0.964V63.231z M337.128,63.231h4.999v0.851h-4.035v2.126h3.648v0.803h-3.648
			v2.373h4.14v0.879h-5.104V63.231z M331.467,70.405c-0.491,0-0.924-0.064-1.295-0.19c-0.365-0.126-0.675-0.296-0.926-0.511
			c-0.247-0.221-0.436-0.479-0.567-0.773c-0.133-0.297-0.208-0.611-0.227-0.945h0.953c0.058,0.535,0.259,0.945,0.605,1.229
			c0.347,0.276,0.841,0.416,1.484,0.416c0.232,0,0.447-0.027,0.643-0.076c0.201-0.057,0.371-0.136,0.51-0.236
			c0.146-0.106,0.259-0.238,0.341-0.396s0.122-0.344,0.122-0.558c0-0.228-0.05-0.417-0.15-0.567
			c-0.095-0.152-0.233-0.277-0.416-0.379c-0.177-0.101-0.391-0.186-0.643-0.255c-0.246-0.069-0.522-0.138-0.831-0.207
			c-0.315-0.063-0.615-0.14-0.898-0.226c-0.277-0.09-0.523-0.207-0.737-0.352c-0.214-0.15-0.385-0.336-0.511-0.557
			c-0.119-0.222-0.18-0.502-0.18-0.843c0-0.296,0.061-0.562,0.18-0.793c0.119-0.232,0.287-0.429,0.501-0.587
			c0.215-0.163,0.47-0.286,0.766-0.367c0.303-0.088,0.633-0.133,0.992-0.133c0.436,0,0.81,0.053,1.125,0.161
			c0.315,0.101,0.58,0.241,0.794,0.425c0.221,0.182,0.391,0.4,0.511,0.651c0.119,0.253,0.201,0.529,0.245,0.833h-0.936
			c-0.062-0.429-0.242-0.754-0.538-0.975c-0.297-0.227-0.693-0.34-1.191-0.34c-0.467,0-0.838,0.092-1.115,0.274
			s-0.416,0.45-0.416,0.803c0,0.188,0.044,0.351,0.133,0.483c0.095,0.125,0.221,0.232,0.378,0.32
			c0.164,0.088,0.355,0.164,0.576,0.227c0.228,0.057,0.473,0.114,0.737,0.17c0.34,0.07,0.665,0.148,0.974,0.236
			c0.314,0.088,0.592,0.215,0.832,0.379c0.245,0.157,0.438,0.362,0.576,0.615c0.146,0.25,0.218,0.572,0.218,0.963
			c0,0.334-0.066,0.631-0.199,0.889c-0.126,0.258-0.306,0.477-0.538,0.652c-0.233,0.176-0.511,0.308-0.832,0.396
			C332.194,70.356,331.845,70.405,331.467,70.405z M316.969,63.231h0.964v6.152h3.639v0.879h-4.603V63.231z M309.908,67.456h2.249
			l-0.671-1.966c-0.062-0.171-0.119-0.343-0.17-0.521c-0.05-0.176-0.094-0.335-0.132-0.481c-0.045-0.164-0.086-0.327-0.123-0.491
			l-0.16,0.501l-0.143,0.481c-0.051,0.177-0.104,0.347-0.16,0.512L309.908,67.456z M310.504,63.231h1.077l2.59,7.031h-1.059
			l-0.699-2.051h-2.77l-0.718,2.051h-0.992L310.504,63.231z M304.153,63.231h0.963v7.031h-0.963V63.231z M298.142,70.405
			c-0.504,0-0.961-0.092-1.37-0.275c-0.403-0.182-0.75-0.436-1.04-0.756c-0.283-0.326-0.504-0.715-0.661-1.162
			s-0.236-0.937-0.236-1.465c0-0.517,0.075-1,0.227-1.445c0.151-0.448,0.368-0.836,0.652-1.164c0.29-0.326,0.64-0.586,1.049-0.774
			c0.416-0.188,0.886-0.284,1.408-0.284c0.416,0,0.785,0.058,1.106,0.171c0.327,0.106,0.61,0.258,0.851,0.452
			c0.252,0.203,0.45,0.445,0.595,0.729c0.151,0.278,0.252,0.586,0.303,0.926h-0.964c-0.082-0.434-0.287-0.779-0.614-1.039
			c-0.322-0.265-0.753-0.396-1.295-0.396c-0.372,0-0.702,0.072-0.992,0.216c-0.29,0.139-0.536,0.334-0.737,0.586
			c-0.195,0.252-0.347,0.551-0.454,0.898c-0.101,0.346-0.151,0.722-0.151,1.125c0,0.422,0.054,0.807,0.161,1.152
			c0.113,0.348,0.271,0.644,0.473,0.889c0.208,0.246,0.456,0.438,0.746,0.576c0.29,0.133,0.611,0.199,0.965,0.199
			c0.321,0,0.598-0.051,0.831-0.152c0.239-0.1,0.438-0.235,0.596-0.404c0.164-0.172,0.289-0.367,0.378-0.588
			c0.095-0.227,0.151-0.465,0.17-0.718h0.964c0,0.176-0.021,0.356-0.065,0.54c-0.038,0.176-0.095,0.349-0.17,0.52
			c-0.076,0.17-0.164,0.334-0.266,0.491c-0.101,0.151-0.214,0.286-0.34,0.405C299.761,70.155,299.056,70.405,298.142,70.405z
			 M286.205,63.231h1.011l2.883,4.404c0.088,0.132,0.177,0.279,0.265,0.443c0.095,0.158,0.18,0.309,0.255,0.454l0.265,0.501
			l-0.01-0.529c-0.012-0.15-0.021-0.314-0.027-0.492v-0.48v-4.301h0.907v7.031h-1.002l-2.873-4.404
			c-0.088-0.133-0.18-0.277-0.274-0.435l-0.255-0.455c-0.095-0.163-0.187-0.329-0.274-0.501c-0.013,0.178-0.003,0.354,0.01,0.53
			l0.019,0.482c0.007,0.17,0.01,0.327,0.01,0.474v4.309h-0.907V63.231z M279.145,67.456h2.25l-0.671-1.966
			c-0.063-0.171-0.12-0.343-0.171-0.521c-0.051-0.176-0.095-0.335-0.132-0.481c-0.044-0.164-0.085-0.327-0.123-0.491l-0.161,0.501
			l-0.142,0.481c-0.05,0.177-0.104,0.347-0.16,0.512L279.145,67.456z M279.739,63.231h1.078l2.59,7.031h-1.059l-0.699-2.051h-2.77
			l-0.718,2.051h-0.993L279.739,63.231z M268.824,63.231h1.011l2.883,4.404c0.088,0.132,0.177,0.279,0.265,0.443
			c0.095,0.158,0.18,0.309,0.256,0.454l0.264,0.501l-0.009-0.529c-0.013-0.15-0.022-0.314-0.029-0.492v-0.48v-4.301h0.908v7.031
			h-1.002l-2.873-4.404c-0.089-0.133-0.18-0.277-0.274-0.435l-0.255-0.455c-0.095-0.163-0.186-0.329-0.274-0.501
			c-0.013,0.178-0.003,0.354,0.01,0.53l0.019,0.482c0.007,0.17,0.01,0.327,0.01,0.474v4.309h-0.907V63.231z M264.495,63.231h0.964
			v7.031h-0.964V63.231z M256.708,63.231h4.811v0.851h-3.847v2.107h3.204v0.821h-3.204v3.252h-0.964V63.231z"/>
		<polygon fill-rule="evenodd" clip-rule="evenodd" fill="#F4F4F3" points="256.708,63.231 261.519,63.231 261.519,64.082 
			257.672,64.082 257.672,66.189 260.876,66.189 260.876,67.011 257.672,67.011 257.672,70.263 256.708,70.263 		"/>
		<rect x="264.495" y="63.231" fill-rule="evenodd" clip-rule="evenodd" fill="#F4F4F3" width="0.964" height="7.031"/>
		<path fill-rule="evenodd" clip-rule="evenodd" fill="#F4F4F3" d="M268.824,63.231h1.011l2.883,4.404
			c0.088,0.132,0.177,0.279,0.265,0.443c0.095,0.158,0.18,0.309,0.256,0.454c0.088,0.163,0.176,0.331,0.264,0.501h0.028
			c-0.012-0.178-0.024-0.354-0.037-0.529c-0.013-0.15-0.022-0.314-0.029-0.492c0-0.176,0-0.336,0-0.48v-4.301h0.908v7.031h-1.002
			l-2.873-4.404c-0.089-0.133-0.18-0.277-0.274-0.435c-0.088-0.157-0.173-0.31-0.255-0.455c-0.095-0.163-0.186-0.329-0.274-0.501
			h-0.019c0.006,0.178,0.016,0.354,0.028,0.53c0.006,0.151,0.012,0.313,0.019,0.482c0.007,0.17,0.01,0.327,0.01,0.474v4.309h-0.907
			V63.231z"/>
		<path fill-rule="evenodd" clip-rule="evenodd" fill="#F4F4F3" d="M279.145,67.456h2.25l-0.671-1.966
			c-0.063-0.171-0.12-0.343-0.171-0.521c-0.051-0.176-0.095-0.335-0.132-0.481c-0.044-0.164-0.085-0.327-0.123-0.491h-0.028
			c-0.044,0.164-0.088,0.331-0.133,0.501c-0.044,0.145-0.091,0.306-0.142,0.481c-0.05,0.177-0.104,0.347-0.16,0.512L279.145,67.456z
			 M279.739,63.231h1.078l2.59,7.031h-1.059l-0.699-2.051h-2.77l-0.718,2.051h-0.993L279.739,63.231z"/>
		<path fill-rule="evenodd" clip-rule="evenodd" fill="#F4F4F3" d="M286.205,63.231h1.011l2.883,4.404
			c0.088,0.132,0.177,0.279,0.265,0.443c0.095,0.158,0.18,0.309,0.255,0.454c0.089,0.163,0.177,0.331,0.265,0.501h0.028
			c-0.013-0.178-0.025-0.354-0.038-0.529c-0.012-0.15-0.021-0.314-0.027-0.492c0-0.176,0-0.336,0-0.48v-4.301h0.907v7.031h-1.002
			l-2.873-4.404c-0.088-0.133-0.18-0.277-0.274-0.435c-0.088-0.157-0.173-0.31-0.255-0.455c-0.095-0.163-0.187-0.329-0.274-0.501
			h-0.019c0.006,0.178,0.016,0.354,0.028,0.53c0.006,0.151,0.013,0.313,0.019,0.482c0.007,0.17,0.01,0.327,0.01,0.474v4.309h-0.907
			V63.231z"/>
		<path fill-rule="evenodd" clip-rule="evenodd" fill="#F4F4F3" d="M298.142,70.405c-0.504,0-0.961-0.092-1.37-0.275
			c-0.403-0.182-0.75-0.436-1.04-0.756c-0.283-0.326-0.504-0.715-0.661-1.162s-0.236-0.937-0.236-1.465c0-0.517,0.075-1,0.227-1.445
			c0.151-0.448,0.368-0.836,0.652-1.164c0.29-0.326,0.64-0.586,1.049-0.774c0.416-0.188,0.886-0.284,1.408-0.284
			c0.416,0,0.785,0.058,1.106,0.171c0.327,0.106,0.61,0.258,0.851,0.452c0.252,0.203,0.45,0.445,0.595,0.729
			c0.151,0.278,0.252,0.586,0.303,0.926h-0.964c-0.082-0.434-0.287-0.779-0.614-1.039c-0.322-0.265-0.753-0.396-1.295-0.396
			c-0.372,0-0.702,0.072-0.992,0.216c-0.29,0.139-0.536,0.334-0.737,0.586c-0.195,0.252-0.347,0.551-0.454,0.898
			c-0.101,0.346-0.151,0.722-0.151,1.125c0,0.422,0.054,0.807,0.161,1.152c0.113,0.348,0.271,0.644,0.473,0.889
			c0.208,0.246,0.456,0.438,0.746,0.576c0.29,0.133,0.611,0.199,0.965,0.199c0.321,0,0.598-0.051,0.831-0.152
			c0.239-0.1,0.438-0.235,0.596-0.404c0.164-0.172,0.289-0.367,0.378-0.588c0.095-0.227,0.151-0.465,0.17-0.718h0.964
			c0,0.176-0.021,0.356-0.065,0.54c-0.038,0.176-0.095,0.349-0.17,0.52c-0.076,0.17-0.164,0.334-0.266,0.491
			c-0.101,0.151-0.214,0.286-0.34,0.405C299.761,70.155,299.056,70.405,298.142,70.405z"/>
		<rect x="304.153" y="63.231" fill-rule="evenodd" clip-rule="evenodd" fill="#F4F4F3" width="0.963" height="7.031"/>
		<path fill-rule="evenodd" clip-rule="evenodd" fill="#F4F4F3" d="M309.908,67.456h2.249l-0.671-1.966
			c-0.062-0.171-0.119-0.343-0.17-0.521c-0.05-0.176-0.094-0.335-0.132-0.481c-0.045-0.164-0.086-0.327-0.123-0.491h-0.028
			c-0.044,0.164-0.088,0.331-0.132,0.501c-0.045,0.145-0.092,0.306-0.143,0.481c-0.051,0.177-0.104,0.347-0.16,0.512L309.908,67.456
			z M310.504,63.231h1.077l2.59,7.031h-1.059l-0.699-2.051h-2.77l-0.718,2.051h-0.992L310.504,63.231z"/>
		<polygon fill-rule="evenodd" clip-rule="evenodd" fill="#F4F4F3" points="316.969,63.231 317.933,63.231 317.933,69.384 
			321.571,69.384 321.571,70.263 316.969,70.263 		"/>
		<path fill-rule="evenodd" clip-rule="evenodd" fill="#F4F4F3" d="M331.467,70.405c-0.491,0-0.924-0.064-1.295-0.19
			c-0.365-0.126-0.675-0.296-0.926-0.511c-0.247-0.221-0.436-0.479-0.567-0.773c-0.133-0.297-0.208-0.611-0.227-0.945h0.953
			c0.058,0.535,0.259,0.945,0.605,1.229c0.347,0.276,0.841,0.416,1.484,0.416c0.232,0,0.447-0.027,0.643-0.076
			c0.201-0.057,0.371-0.136,0.51-0.236c0.146-0.106,0.259-0.238,0.341-0.396s0.122-0.344,0.122-0.558c0-0.228-0.05-0.417-0.15-0.567
			c-0.095-0.152-0.233-0.277-0.416-0.379c-0.177-0.101-0.391-0.186-0.643-0.255c-0.246-0.069-0.522-0.138-0.831-0.207
			c-0.315-0.063-0.615-0.14-0.898-0.226c-0.277-0.09-0.523-0.207-0.737-0.352c-0.214-0.15-0.385-0.336-0.511-0.557
			c-0.119-0.222-0.18-0.502-0.18-0.843c0-0.296,0.061-0.562,0.18-0.793c0.119-0.232,0.287-0.429,0.501-0.587
			c0.215-0.163,0.47-0.286,0.766-0.367c0.303-0.088,0.633-0.133,0.992-0.133c0.436,0,0.81,0.053,1.125,0.161
			c0.315,0.101,0.58,0.241,0.794,0.425c0.221,0.182,0.391,0.4,0.511,0.651c0.119,0.253,0.201,0.529,0.245,0.833h-0.936
			c-0.062-0.429-0.242-0.754-0.538-0.975c-0.297-0.227-0.693-0.34-1.191-0.34c-0.467,0-0.838,0.092-1.115,0.274
			s-0.416,0.45-0.416,0.803c0,0.188,0.044,0.351,0.133,0.483c0.095,0.125,0.221,0.232,0.378,0.32
			c0.164,0.088,0.355,0.164,0.576,0.227c0.228,0.057,0.473,0.114,0.737,0.17c0.34,0.07,0.665,0.148,0.974,0.236
			c0.314,0.088,0.592,0.215,0.832,0.379c0.245,0.157,0.438,0.362,0.576,0.615c0.146,0.25,0.218,0.572,0.218,0.963
			c0,0.334-0.066,0.631-0.199,0.889c-0.126,0.258-0.306,0.477-0.538,0.652c-0.233,0.176-0.511,0.308-0.832,0.396
			C332.194,70.356,331.845,70.405,331.467,70.405z"/>
		<polygon fill-rule="evenodd" clip-rule="evenodd" fill="#F4F4F3" points="337.128,63.231 342.127,63.231 342.127,64.082 
			338.092,64.082 338.092,66.208 341.74,66.208 341.74,67.011 338.092,67.011 338.092,69.384 342.231,69.384 342.231,70.263 
			337.128,70.263 		"/>
		<path fill-rule="evenodd" clip-rule="evenodd" fill="#F4F4F3" d="M346.276,66.558h2.014c0.479,0,0.834-0.11,1.067-0.33
			c0.239-0.229,0.359-0.534,0.359-0.916c0-0.417-0.107-0.729-0.321-0.938c-0.208-0.208-0.562-0.312-1.059-0.312h-2.061V66.558z
			 M345.312,63.231h3.289c0.315,0,0.602,0.047,0.86,0.142c0.258,0.087,0.479,0.216,0.661,0.388c0.189,0.17,0.334,0.374,0.435,0.613
			c0.101,0.24,0.151,0.505,0.151,0.795c0,0.428-0.098,0.793-0.293,1.096c-0.195,0.295-0.526,0.518-0.992,0.662v0.028
			c0.195,0.056,0.359,0.132,0.491,0.226c0.133,0.095,0.239,0.213,0.321,0.352c0.082,0.131,0.142,0.292,0.18,0.48
			c0.044,0.189,0.076,0.41,0.095,0.661c0.019,0.278,0.041,0.511,0.066,0.7c0.024,0.184,0.05,0.334,0.075,0.453
			c0.024,0.114,0.051,0.202,0.076,0.265c0.031,0.058,0.065,0.099,0.104,0.123v0.048h-1.03c-0.037-0.031-0.069-0.079-0.094-0.142
			c-0.026-0.063-0.048-0.154-0.067-0.274c-0.019-0.119-0.034-0.271-0.047-0.453c-0.013-0.189-0.028-0.426-0.048-0.71
			c-0.031-0.497-0.156-0.847-0.378-1.048c-0.22-0.201-0.561-0.303-1.021-0.303h-1.871v2.93h-0.964V63.231z"/>
		<path fill-rule="evenodd" clip-rule="evenodd" fill="#F4F4F3" d="M353.261,63.231h1.04l1.54,4.687
			c0.044,0.126,0.089,0.278,0.133,0.455c0.051,0.17,0.098,0.333,0.142,0.491c0.051,0.184,0.098,0.368,0.142,0.557h0.019
			c0.044-0.195,0.092-0.383,0.143-0.566c0.044-0.158,0.088-0.321,0.132-0.491c0.044-0.171,0.088-0.319,0.132-0.445l1.522-4.687
			h1.001l-2.456,7.031h-1.059L353.261,63.231z"/>
		<rect x="362.004" y="63.231" fill-rule="evenodd" clip-rule="evenodd" fill="#F4F4F3" width="0.963" height="7.031"/>
		<path fill-rule="evenodd" clip-rule="evenodd" fill="#F4F4F3" d="M369.375,70.405c-0.504,0-0.96-0.092-1.37-0.275
			c-0.404-0.182-0.75-0.436-1.04-0.756c-0.283-0.326-0.504-0.715-0.661-1.162c-0.158-0.447-0.236-0.937-0.236-1.465
			c0-0.517,0.075-1,0.227-1.445c0.151-0.448,0.368-0.836,0.652-1.164c0.29-0.326,0.64-0.586,1.049-0.774
			c0.416-0.188,0.886-0.284,1.408-0.284c0.416,0,0.784,0.058,1.105,0.171c0.328,0.106,0.611,0.258,0.852,0.452
			c0.251,0.203,0.45,0.445,0.595,0.729c0.151,0.278,0.252,0.586,0.303,0.926h-0.964c-0.082-0.434-0.287-0.779-0.614-1.039
			c-0.321-0.265-0.753-0.396-1.295-0.396c-0.372,0-0.703,0.072-0.992,0.216c-0.29,0.139-0.536,0.334-0.737,0.586
			c-0.196,0.252-0.347,0.551-0.454,0.898c-0.101,0.346-0.151,0.722-0.151,1.125c0,0.422,0.054,0.807,0.161,1.152
			c0.113,0.348,0.271,0.644,0.473,0.889c0.207,0.246,0.456,0.438,0.746,0.576c0.29,0.133,0.611,0.199,0.964,0.199
			c0.322,0,0.599-0.051,0.833-0.152c0.238-0.1,0.438-0.235,0.595-0.404c0.164-0.172,0.29-0.367,0.378-0.588
			c0.095-0.227,0.151-0.465,0.17-0.718h0.964c0,0.176-0.022,0.356-0.066,0.54c-0.037,0.176-0.094,0.349-0.169,0.52
			c-0.076,0.17-0.165,0.334-0.265,0.491c-0.102,0.151-0.215,0.286-0.341,0.405C370.995,70.155,370.289,70.405,369.375,70.405z"/>
		<polygon fill-rule="evenodd" clip-rule="evenodd" fill="#F4F4F3" points="375.367,63.231 380.367,63.231 380.367,64.082 
			376.331,64.082 376.331,66.208 379.979,66.208 379.979,67.011 376.331,67.011 376.331,69.384 380.471,69.384 380.471,70.263 
			375.367,70.263 		"/>
		<path fill-rule="evenodd" clip-rule="evenodd" fill="#F4F4F3" d="M386.132,70.405c-0.491,0-0.923-0.064-1.295-0.19
			c-0.365-0.126-0.674-0.296-0.926-0.511c-0.246-0.221-0.435-0.479-0.567-0.773c-0.133-0.297-0.208-0.611-0.227-0.945h0.954
			c0.058,0.535,0.259,0.945,0.605,1.229c0.346,0.276,0.841,0.416,1.483,0.416c0.233,0,0.447-0.027,0.643-0.076
			c0.202-0.057,0.372-0.136,0.511-0.236c0.146-0.106,0.258-0.238,0.34-0.396s0.123-0.344,0.123-0.558
			c0-0.228-0.05-0.417-0.151-0.567c-0.094-0.152-0.232-0.277-0.416-0.379c-0.176-0.101-0.391-0.186-0.643-0.255
			c-0.245-0.069-0.522-0.138-0.831-0.207c-0.315-0.063-0.615-0.14-0.898-0.226c-0.277-0.09-0.522-0.207-0.736-0.352
			c-0.215-0.15-0.385-0.336-0.511-0.557c-0.12-0.222-0.18-0.502-0.18-0.843c0-0.296,0.06-0.562,0.18-0.793
			c0.119-0.232,0.286-0.429,0.501-0.587c0.214-0.163,0.469-0.286,0.766-0.367c0.302-0.088,0.633-0.133,0.992-0.133
			c0.435,0,0.81,0.053,1.124,0.161c0.315,0.101,0.58,0.241,0.795,0.425c0.22,0.182,0.39,0.4,0.51,0.651
			c0.119,0.253,0.201,0.529,0.246,0.833h-0.937c-0.062-0.429-0.242-0.754-0.538-0.975c-0.296-0.227-0.692-0.34-1.191-0.34
			c-0.466,0-0.838,0.092-1.115,0.274c-0.276,0.183-0.415,0.45-0.415,0.803c0,0.188,0.044,0.351,0.132,0.483
			c0.095,0.125,0.221,0.232,0.378,0.32c0.164,0.088,0.356,0.164,0.576,0.227c0.228,0.057,0.473,0.114,0.737,0.17
			c0.341,0.07,0.665,0.148,0.975,0.236c0.314,0.088,0.592,0.215,0.831,0.379c0.245,0.157,0.438,0.362,0.576,0.615
			c0.146,0.25,0.218,0.572,0.218,0.963c0,0.334-0.066,0.631-0.198,0.889c-0.126,0.258-0.306,0.477-0.539,0.652
			s-0.51,0.308-0.832,0.396C386.859,70.356,386.51,70.405,386.132,70.405z"/>
	</g>
</g>
</svg>
