<?xml version="1.0" encoding="utf-8"?>
<!-- Generator: Adobe Illustrator 19.1.0, SVG Export Plug-In . SVG Version: 6.00 Build 0)  -->
<svg version="1.1" id="Home_01" xmlns="http://www.w3.org/2000/svg" xmlns:xlink="http://www.w3.org/1999/xlink" x="0px" y="0px"
	 viewBox="-437.3 511.9 165.8 169.5" style="enable-background:new -437.3 511.9 165.8 169.5;" xml:space="preserve">
<style type="text/css">
	.st0{opacity:0.5;}
	.st1{fill:#3C9FE3;}
	.st2{fill:none;}
	.st3{fill:none;stroke:#FFFFFF;stroke-width:3.2256;stroke-linecap:round;stroke-linejoin:round;stroke-miterlimit:10;}
	.st4{opacity:0.87;fill:#1C4A9E;}
	.st5{fill:none;stroke:#FFFFFF;stroke-width:3.6614;stroke-linecap:round;stroke-linejoin:round;stroke-miterlimit:10;}
	.st6{opacity:0.87;}
	.st7{fill:#1C4A9E;}
	.st8{fill:#FFFFFF;}
</style>
<g>
	<path class="st4" d="M-352.9,521h-53.3c-6.5,0-11.9,5.3-11.9,11.9v127.6c0,6.5,5.3,11.9,11.9,11.9h53.3c6.5,0,11.9-5.3,11.9-11.9
		V532.8C-341,526.3-346.3,521-352.9,521z M-385.4,533.5h11.7c0.9,0,1.6,0.7,1.6,1.6c0,0.9-0.7,1.6-1.6,1.6h-11.7
		c-0.9,0-1.6-0.7-1.6-1.6C-387,534.2-386.3,533.5-385.4,533.5z M-392.2,532.9c1,0,1.9,0.8,1.9,1.9c0,1-0.8,1.9-1.9,1.9
		c-1,0-1.9-0.8-1.9-1.9C-394.1,533.8-393.2,532.9-392.2,532.9z M-379.6,665.8c-4.1,0-7.4-3.3-7.4-7.4s3.3-7.4,7.4-7.4
		c4.1,0,7.4,3.3,7.4,7.4S-375.5,665.8-379.6,665.8z M-347,645.7h-65.2v-98.3h65.2V645.7z"/>
	<g>
		<path class="st8" d="M-339.3,592.9l-0.7-0.2V569c0-1-0.8-1.8-1.8-1.8c-1,0-1.8,0.8-1.8,1.8v23.7l-0.7,0.2c-3,1.1-5,3.9-5,7
			c0,4.1,3.3,7.5,7.5,7.5c4.1,0,7.5-3.3,7.5-7.5C-334.3,596.8-336.3,594-339.3,592.9z M-341.8,603.8c-2.1,0-3.8-1.7-3.8-3.8
			c0-2.1,1.7-3.8,3.8-3.8c2.1,0,3.8,1.7,3.8,3.8C-338,602.1-339.6,603.8-341.8,603.8z"/>
		<path class="st8" d="M-303.7,565.8l-0.6-0.7l4.8-4.8l5.7,5.7c0.6,0.6,1.9,0.6,2.6,0c0.7-0.7,0.7-1.8,0-2.5l-14-14
			c-0.6-0.6-1.9-0.6-2.6,0c-0.3,0.3-0.5,0.8-0.5,1.3c0,0.5,0.2,0.9,0.5,1.3l5.7,5.7l-4.8,4.8l-0.7-0.6c-8.7-7.8-19.8-12.4-31.3-13
			l-0.9-0.1v-7.7h12.3c1,0,1.8-0.8,1.8-1.8c0-1-0.8-1.8-1.8-1.8h-28.2c-1,0-1.8,0.8-1.8,1.8c0,1,0.8,1.8,1.8,1.8h12.3v7.7l-0.9,0.1
			c-27.1,1.4-48.4,23.9-48.4,51c0,28.2,22.9,51.1,51.1,51.1c28.2,0,51.1-22.9,51.1-51.1C-290.6,587.3-295.3,575.2-303.7,565.8z
			 M-341.8,647.4c-26.2,0-47.5-21.3-47.5-47.5c0-26.2,21.3-47.5,47.5-47.5c26.2,0,47.5,21.3,47.5,47.5
			C-294.3,626.1-315.6,647.4-341.8,647.4z"/>
	</g>
</g>
</svg>
