<?xml version="1.0" encoding="utf-8"?>
<!-- Generator: Adobe Illustrator 19.1.0, SVG Export Plug-In . SVG Version: 6.00 Build 0)  -->
<svg version="1.1" id="Home_01" xmlns="http://www.w3.org/2000/svg" xmlns:xlink="http://www.w3.org/1999/xlink" x="0px" y="0px"
	 viewBox="-222 511.9 165.8 169.5" style="enable-background:new -222 511.9 165.8 169.5;" xml:space="preserve">
<style type="text/css">
	.st0{opacity:0.5;}
	.st1{fill:#3C9FE3;}
	.st2{fill:none;}
	.st3{fill:none;stroke:#FFFFFF;stroke-width:3.2256;stroke-linecap:round;stroke-linejoin:round;stroke-miterlimit:10;}
	.st4{opacity:0.87;fill:#1C4A9E;}
	.st5{fill:none;stroke:#FFFFFF;stroke-width:3.6614;stroke-linecap:round;stroke-linejoin:round;stroke-miterlimit:10;}
	.st6{opacity:0.87;}
	.st7{fill:#1C4A9E;}
	.st8{fill:#FFFFFF;}
</style>
<g id="XMLID_23_">
	<g id="XMLID_29_" class="st6">
		<g id="XMLID_91_">
			<path id="XMLID_101_" class="st7" d="M-141.9,535.4c0,4.5-3.7,8.2-8.2,8.2c-4.5,0-8.2-3.7-8.2-8.2c0-4.5,3.7-8.2,8.2-8.2
				C-145.5,527.2-141.9,530.8-141.9,535.4z"/>
			<path id="XMLID_100_" class="st7" d="M-109,535.4c0,4.5-3.7,8.2-8.2,8.2c-4.5,0-8.2-3.7-8.2-8.2c0-4.5,3.7-8.2,8.2-8.2
				C-112.7,527.2-109,530.8-109,535.4z"/>
			<path id="XMLID_99_" class="st7" d="M-76.1,535.4c0,4.5-3.7,8.2-8.2,8.2c-4.5,0-8.2-3.7-8.2-8.2c0-4.5,3.7-8.2,8.2-8.2
				C-79.8,527.2-76.1,530.8-76.1,535.4z"/>
			<path id="XMLID_98_" class="st7" d="M-141.9,568.2c0,4.5-3.7,8.2-8.2,8.2c-4.5,0-8.2-3.7-8.2-8.2c0-4.5,3.7-8.2,8.2-8.2
				C-145.5,560-141.9,563.7-141.9,568.2z"/>
			<path id="XMLID_97_" class="st7" d="M-109,568.2c0,4.5-3.7,8.2-8.2,8.2c-4.5,0-8.2-3.7-8.2-8.2c0-4.5,3.7-8.2,8.2-8.2
				C-112.7,560-109,563.7-109,568.2z"/>
			<path id="XMLID_96_" class="st7" d="M-76.1,568.2c0,4.5-3.7,8.2-8.2,8.2c-4.5,0-8.2-3.7-8.2-8.2c0-4.5,3.7-8.2,8.2-8.2
				C-79.8,560-76.1,563.7-76.1,568.2z"/>
			<circle id="XMLID_95_" class="st7" cx="-150.1" cy="601.1" r="8.2"/>
			<circle id="XMLID_94_" class="st7" cx="-117.2" cy="601.1" r="8.2"/>
			<circle id="XMLID_93_" class="st7" cx="-84.3" cy="601.1" r="8.2"/>
			<path id="XMLID_92_" class="st7" d="M-109,633.5c0,4.5-3.7,8.2-8.2,8.2c-4.5,0-8.2-3.7-8.2-8.2c0-4.5,3.7-8.2,8.2-8.2
				C-112.7,625.2-109,628.9-109,633.5z"/>
		</g>
		<g id="XMLID_30_">
			<g id="XMLID_85_">
				<line id="XMLID_89_" class="st4" x1="-84.3" y1="568.2" x2="-88.7" y2="566.8"/>
				<line id="XMLID_88_" class="st4" x1="-84.3" y1="568.2" x2="-87" y2="571.9"/>
				<line id="XMLID_87_" class="st4" x1="-84.3" y1="568.2" x2="-81.7" y2="571.9"/>
				<line id="XMLID_86_" class="st4" x1="-84.3" y1="568.2" x2="-80" y2="566.8"/>
			</g>
			<g id="XMLID_79_">
				<line id="XMLID_83_" class="st4" x1="-84.3" y1="535.8" x2="-88.7" y2="534.4"/>
				<line id="XMLID_82_" class="st4" x1="-84.3" y1="535.8" x2="-87" y2="539.5"/>
				<line id="XMLID_81_" class="st4" x1="-84.3" y1="535.8" x2="-81.7" y2="539.5"/>
				<line id="XMLID_80_" class="st4" x1="-84.3" y1="535.8" x2="-80" y2="534.4"/>
			</g>
			<g id="XMLID_73_">
				<line id="XMLID_77_" class="st4" x1="-84.3" y1="601.5" x2="-88.7" y2="600.1"/>
				<line id="XMLID_76_" class="st4" x1="-84.3" y1="601.5" x2="-87" y2="605.2"/>
				<line id="XMLID_75_" class="st4" x1="-84.3" y1="601.5" x2="-81.7" y2="605.2"/>
				<line id="XMLID_74_" class="st4" x1="-84.3" y1="601.5" x2="-80" y2="600.1"/>
			</g>
			<g id="XMLID_67_">
				<line id="XMLID_71_" class="st4" x1="-117.2" y1="568.2" x2="-121.5" y2="566.8"/>
				<line id="XMLID_70_" class="st4" x1="-117.2" y1="568.2" x2="-119.9" y2="571.9"/>
				<line id="XMLID_69_" class="st4" x1="-117.2" y1="568.2" x2="-114.5" y2="571.9"/>
				<line id="XMLID_68_" class="st4" x1="-117.2" y1="568.2" x2="-112.9" y2="566.8"/>
			</g>
			<g id="XMLID_61_">
				<line id="XMLID_65_" class="st4" x1="-117.2" y1="535.8" x2="-121.5" y2="534.4"/>
				<line id="XMLID_64_" class="st4" x1="-117.2" y1="535.8" x2="-119.9" y2="539.5"/>
				<line id="XMLID_63_" class="st4" x1="-117.2" y1="535.8" x2="-114.5" y2="539.5"/>
				<line id="XMLID_62_" class="st4" x1="-117.2" y1="535.8" x2="-112.9" y2="534.4"/>
			</g>
			<g id="XMLID_55_">
				<line id="XMLID_59_" class="st4" x1="-117.2" y1="601.5" x2="-121.5" y2="600.1"/>
				<line id="XMLID_58_" class="st4" x1="-117.2" y1="601.5" x2="-119.9" y2="605.2"/>
				<line id="XMLID_57_" class="st4" x1="-117.2" y1="601.5" x2="-114.5" y2="605.2"/>
				<line id="XMLID_56_" class="st4" x1="-117.2" y1="601.5" x2="-112.9" y2="600.1"/>
			</g>
			<g id="XMLID_49_">
				<line id="XMLID_53_" class="st4" x1="-117.2" y1="633.9" x2="-121.5" y2="632.5"/>
				<line id="XMLID_52_" class="st4" x1="-117.2" y1="633.9" x2="-119.9" y2="637.6"/>
				<line id="XMLID_51_" class="st4" x1="-117.2" y1="633.9" x2="-114.5" y2="637.6"/>
				<line id="XMLID_50_" class="st4" x1="-117.2" y1="633.9" x2="-112.9" y2="632.5"/>
			</g>
			<g id="XMLID_43_">
				<line id="XMLID_47_" class="st4" x1="-150.1" y1="568.2" x2="-154.4" y2="566.8"/>
				<line id="XMLID_46_" class="st4" x1="-150.1" y1="568.2" x2="-152.7" y2="571.9"/>
				<line id="XMLID_45_" class="st4" x1="-150.1" y1="568.2" x2="-147.4" y2="571.9"/>
				<line id="XMLID_44_" class="st4" x1="-150.1" y1="568.2" x2="-145.7" y2="566.8"/>
			</g>
			<g id="XMLID_37_">
				<line id="XMLID_41_" class="st4" x1="-150.1" y1="535.8" x2="-154.4" y2="534.4"/>
				<line id="XMLID_40_" class="st4" x1="-150.1" y1="535.8" x2="-152.7" y2="539.5"/>
				<line id="XMLID_39_" class="st4" x1="-150.1" y1="535.8" x2="-147.4" y2="539.5"/>
				<line id="XMLID_38_" class="st4" x1="-150.1" y1="535.8" x2="-145.7" y2="534.4"/>
			</g>
			<g id="XMLID_31_">
				<line id="XMLID_35_" class="st4" x1="-150.1" y1="601.5" x2="-154.4" y2="600.1"/>
				<line id="XMLID_34_" class="st4" x1="-150.1" y1="601.5" x2="-152.7" y2="605.2"/>
				<line id="XMLID_33_" class="st4" x1="-150.1" y1="601.5" x2="-147.4" y2="605.2"/>
				<line id="XMLID_32_" class="st4" x1="-150.1" y1="601.5" x2="-145.7" y2="600.1"/>
			</g>
		</g>
	</g>
	<g id="XMLID_24_">
		<path id="XMLID_28_" class="st3" d="M-102.5,649.9h-95.1c-1.7,0-3.1-1.4-3.1-3.1v-60.8c0-1.7,1.4-3.1,3.1-3.1h95.1
			c1.7,0,3.1,1.4,3.1,3.1v60.8C-99.4,648.5-100.8,649.9-102.5,649.9z"/>
		<path id="XMLID_27_" class="st3" d="M-117.2,582.8v-11.5c0-18.2-14.7-32.9-32.9-32.9c-18.2,0-32.9,14.7-32.9,32.9v11.5"/>
		<path id="XMLID_26_" class="st3" d="M-170.3,582v-10c0-11.2,9.1-20.3,20.3-20.3c11.2,0,20.3,9.1,20.3,20.3v10"/>
		<path id="XMLID_25_" class="st3" d="M-142.3,610.2c0-4.5-3.7-8.1-8.3-7.8c-4.1,0.2-7.4,3.7-7.4,7.8c0,2.8,1.4,5.2,3.5,6.6
			c0.4,0.3,0.6,0.8,0.4,1.3l-3.5,10.7c-0.3,0.8,0.3,1.6,1.2,1.6h12.2c0.8,0,1.5-0.8,1.2-1.6l-3.5-10.7c-0.2-0.5,0-1,0.4-1.3
			C-143.7,615.3-142.3,612.9-142.3,610.2z"/>
	</g>
</g>
</svg>
