<?xml version="1.0" encoding="utf-8"?>
<!-- Generator: Adobe Illustrator 19.1.0, SVG Export Plug-In . SVG Version: 6.00 Build 0)  -->
<svg version="1.1" id="Home_01" xmlns="http://www.w3.org/2000/svg" xmlns:xlink="http://www.w3.org/1999/xlink" x="0px" y="0px"
	 viewBox="-3.8 511.9 165.8 169.5" style="enable-background:new -3.8 511.9 165.8 169.5;" xml:space="preserve">
<style type="text/css">
	.st0{opacity:0.5;}
	.st1{fill:#3C9FE3;}
	.st2{fill:none;}
	.st3{fill:none;stroke:#FFFFFF;stroke-width:3.2256;stroke-linecap:round;stroke-linejoin:round;stroke-miterlimit:10;}
	.st4{opacity:0.87;fill:#1C4A9E;}
	.st5{fill:none;stroke:#FFFFFF;stroke-width:3.6614;stroke-linecap:round;stroke-linejoin:round;stroke-miterlimit:10;}
	.st6{opacity:0.87;}
	.st7{fill:#1C4A9E;}
	.st8{fill:#FFFFFF;}
</style>
<g id="XMLID_102_">
	<polygon id="XMLID_111_" class="st4" points="124.1,661.3 80.5,635.2 36.9,661.3 36.9,550.5 124.1,550.5 	"/>
	<g id="XMLID_103_">
		<g id="XMLID_104_">
			<path id="XMLID_110_" class="st5" d="M79.1,575.8L79.1,575.8c-15.8,0-28.6,12.8-28.6,28.6V617c0,1.1,0.9,2.1,2.1,2.1h53.1
				c1.1,0,2.1-0.9,2.1-2.1v-12.6C107.7,588.6,94.9,575.8,79.1,575.8z"/>
			<circle id="XMLID_109_" class="st5" cx="80.5" cy="551.1" r="19.1"/>
			<path id="XMLID_108_" class="st5" d="M107.7,607.7h34.8c1.1,0,2.1-0.9,2.1-2.1v-8.8c0-11.7-9.5-21.1-21.1-21.1l0,0
				c-9.1,0-16.9,5.8-19.8,13.9"/>
			<circle id="XMLID_107_" class="st5" cx="124.4" cy="557.4" r="14.2"/>
			<path id="XMLID_106_" class="st5" d="M50.6,607.7H15.8c-1.1,0-2.1-0.9-2.1-2.1v-8.8c0-11.7,9.5-21.1,21.1-21.1l0,0
				c9.1,0,16.9,5.8,19.8,13.9"/>
			<circle id="XMLID_105_" class="st5" cx="33.8" cy="557.4" r="14.2"/>
		</g>
	</g>
</g>
</svg>
