<?xml version="1.0" encoding="utf-8"?>
<!-- Generator: Adobe Illustrator 24.2.3, SVG Export Plug-In . SVG Version: 6.00 Build 0)  -->
<svg version="1.1" id="Layer_1" xmlns="http://www.w3.org/2000/svg" xmlns:xlink="http://www.w3.org/1999/xlink" x="0px" y="0px"
	 viewBox="0 0 206.9 61.3" style="enable-background:new 0 0 206.9 61.3;" xml:space="preserve">
<style type="text/css">
	.st0{fill:#FFFFFF;}
	.st1{fill:#C8102E;}
</style>
<rect width="206.9" height="61.3"/>
<path class="st0" d="M76.8,41.5h-7.3l-1.8,4.9h-3.2l7.1-18.1h3L82,46.4h-3.3L76.8,41.5z M70.4,39h5.4l-1.9-5.2
	c-0.3-0.7-0.5-1.5-0.8-2.4c-0.2,0.8-0.5,1.6-0.8,2.4L70.4,39z"/>
<path class="st0" d="M83.3,36.2c0-1,0-2.1-0.1-3.3H86c0.1,0.6,0.2,1.1,0.2,1.7c1-1.2,2.5-1.9,4.1-2c1.9,0,3.6,1.1,4.4,2.8
	c0.5,1.2,0.8,2.4,0.7,3.7c0,1.4-0.3,2.8-0.8,4c-0.5,1.1-1.3,1.9-2.3,2.5c-1,0.6-2.2,0.9-3.4,0.9c-0.9,0-1.8-0.2-2.7-0.5v5.6L83.2,52
	L83.3,36.2z M91.4,43.1c0.6-0.8,0.9-2.1,0.9-3.7c0-1.5-0.3-2.6-0.8-3.3c-0.5-0.7-1.3-1-2.1-1c-0.6,0-1.1,0.1-1.7,0.4
	c-0.5,0.3-1,0.7-1.5,1.1v7.2c0.3,0.2,0.7,0.3,1.1,0.4c0.4,0.1,0.8,0.1,1.2,0.1C89.7,44.4,90.7,43.9,91.4,43.1z"/>
<path class="st0" d="M97.4,36.2c0-1,0-2.1-0.1-3.3h2.9c0.1,0.6,0.2,1.1,0.2,1.7c1.2-1.3,2.6-2,4.1-2c1.9,0,3.6,1.1,4.4,2.8
	c0.5,1.2,0.8,2.4,0.7,3.7c0,1.4-0.2,2.8-0.8,4c-0.5,1.1-1.3,1.9-2.3,2.5c-1,0.6-2.2,0.9-3.4,0.9c-0.9,0-1.8-0.2-2.7-0.5v5.6L97.4,52
	L97.4,36.2z M105.5,43.1c0.6-0.8,0.9-2.1,0.9-3.7c0-1.5-0.3-2.6-0.8-3.3c-0.5-0.7-1.3-1-2.1-1c-0.6,0-1.1,0.1-1.7,0.4
	c-0.5,0.3-1,0.7-1.5,1.1v7.2c0.3,0.2,0.7,0.3,1.1,0.4c0.4,0.1,0.8,0.1,1.2,0.1C103.8,44.4,104.9,43.9,105.5,43.1z"/>
<path class="st0" d="M115.3,45.5c-1.3-0.7-2.4-1.8-3.1-3.2c-0.8-1.5-1.1-3.2-1.1-4.9c-0.1-1.8,0.4-3.6,1.2-5.2
	c0.8-1.4,2-2.5,3.4-3.2c1.5-0.7,3.1-1.1,4.8-1.1c1,0,2,0.1,3,0.3c0.9,0.2,1.8,0.5,2.6,0.9l-0.8,2.4c-1.5-0.7-3.1-1.1-4.7-1.2
	c-1.2,0-2.3,0.3-3.3,0.8c-1,0.6-1.7,1.4-2.2,2.4c-0.6,1.2-0.8,2.5-0.8,3.8c0,1.2,0.2,2.3,0.6,3.4c0.4,1,1.1,1.8,1.9,2.4
	c1,0.6,2.1,0.9,3.3,0.9c0.6,0,1.2-0.1,1.8-0.2c0.6-0.1,1.1-0.2,1.7-0.4v-3.7h-4.2v-2.4h7.2v7.7c-1,0.5-2.1,0.9-3.3,1.1
	c-1.1,0.3-2.3,0.4-3.4,0.4C118.4,46.7,116.7,46.3,115.3,45.5z"/>
<path class="st0" d="M137.7,46.4c-0.1-0.6-0.2-1.2-0.2-1.8c-0.5,0.6-1.1,1.1-1.9,1.4c-0.8,0.4-1.7,0.6-2.6,0.6
	c-0.7,0-1.5-0.1-2.1-0.5c-0.6-0.3-1.2-0.8-1.5-1.4c-0.4-0.7-0.6-1.5-0.6-2.2c0-1.2,0.5-2.4,1.4-3.1c0.9-0.8,2.5-1.2,4.7-1.2
	c0.8,0,1.6,0.1,2.5,0.2v-0.3c0-1.2-0.3-2-0.8-2.5c-0.6-0.5-1.4-0.8-2.2-0.7c-0.7,0-1.4,0.1-2.1,0.3c-0.7,0.2-1.4,0.4-2,0.7l-0.5-2.3
	c0.7-0.3,1.4-0.5,2.2-0.7c0.9-0.2,1.9-0.3,2.9-0.3c1,0,2,0.2,3,0.5c0.8,0.4,1.5,1,1.9,1.8c0.5,1.1,0.7,2.3,0.7,3.5v5.4
	c0,0.6,0,1.4,0.1,2.5L137.7,46.4z M135.8,43.9c0.6-0.3,1.1-0.7,1.6-1.2v-2.5c-0.7-0.1-1.4-0.1-2.1-0.1c-1.3,0-2.2,0.2-2.7,0.6
	c-0.5,0.4-0.8,1-0.7,1.7c0,0.5,0.1,1.1,0.5,1.5c0.4,0.3,0.9,0.5,1.4,0.5C134.6,44.4,135.2,44.2,135.8,43.9z"/>
<path class="st0" d="M142.9,43.1v-16l3.1-0.2v15.7c0,0.4,0.1,0.9,0.3,1.2c0.2,0.3,0.6,0.4,0.9,0.4c0.3,0,0.6-0.1,0.8-0.1l0.4,2.2
	c-0.3,0.1-0.7,0.2-1.1,0.3c-0.4,0.1-0.8,0.1-1.2,0.1C143.9,46.6,142.9,45.5,142.9,43.1z"/>
<path class="st0" d="M150.6,43.1v-16l3.1-0.2v15.7c0,0.4,0.1,0.9,0.3,1.2c0.2,0.3,0.6,0.4,0.9,0.4c0.3,0,0.6-0.1,0.8-0.1l0.4,2.2
	c-0.3,0.1-0.7,0.2-1.1,0.3c-0.4,0.1-0.8,0.1-1.2,0.1C151.6,46.6,150.6,45.5,150.6,43.1z"/>
<path class="st0" d="M168.7,40h-8.8c0.1,2.8,1.5,4.2,4,4.2c0.7,0,1.3-0.1,1.9-0.2c0.7-0.2,1.3-0.4,1.9-0.6l0.7,2.1
	c-1.6,0.8-3.3,1.1-5.1,1.1c-1.3,0-2.5-0.2-3.6-0.8c-1-0.5-1.8-1.3-2.2-2.3c-0.5-1.2-0.8-2.4-0.7-3.7c0-1.3,0.2-2.6,0.8-3.9
	c0.5-1,1.2-1.9,2.2-2.5c1-0.6,2.1-0.9,3.3-0.9c1.1,0,2.3,0.3,3.2,0.9c0.9,0.6,1.5,1.4,1.9,2.4c0.4,1.1,0.6,2.2,0.6,3.3V40z
	 M165.7,38c0-0.9-0.3-1.7-0.8-2.4c-0.5-0.6-1.2-0.9-1.9-0.8c-0.7,0-1.5,0.3-2,0.8c-0.6,0.7-0.9,1.5-1,2.4L165.7,38z"/>
<path class="st0" d="M171.1,36.3c0-0.7,0-1.9-0.1-3.4h2.9c0,0.4,0.1,0.8,0.1,1.3c0,0.5,0.1,0.9,0.1,1.3c0.3-0.5,0.7-1,1.1-1.5
	c0.3-0.4,0.8-0.7,1.2-1c0.5-0.3,1-0.4,1.6-0.4c0.4,0,0.8,0,1.2,0.2l-0.4,2.7c-1-0.3-2-0.1-2.9,0.4c-0.7,0.5-1.3,1.1-1.8,1.8v8.7
	h-3.1V36.3z"/>
<path class="st0" d="M180.9,51.9c-0.4-0.1-0.7-0.2-1.1-0.3l0.6-2.3c0.3,0.1,0.5,0.1,0.8,0.2c0.3,0.1,0.6,0.1,0.9,0.1
	c1.4,0,2.4-0.9,3.1-2.6l0.2-0.5l-5-13.6h3.3l2.5,7.6c0.3,1,0.6,2,0.8,3c0.2-1,0.5-2,0.8-2.9l2.5-7.7h3.1l-5,13.7
	c-0.4,1.1-0.9,2.2-1.5,3.1c-0.5,0.7-1.1,1.3-1.9,1.8c-0.8,0.4-1.8,0.6-2.7,0.6C181.9,52,181.4,52,180.9,51.9z"/>
<path class="st0" d="M64.5,10.9h5.5l-0.2,1.3h-3.7v2.6h3.5v1.2h-3.5V19h3.9L70,20.3h-5.4V10.9z"/>
<path class="st0" d="M73.9,15.5L71,10.9h1.8l2,3.4l2.1-3.4h1.8l-2.9,4.5l3.1,4.8H77l-2.2-3.7l-2.3,3.7h-1.8L73.9,15.5z"/>
<path class="st0" d="M80,10.9h2.5c1.2,0,2.1,0.2,2.7,0.7c0.6,0.5,1,1.3,0.9,2.1c0,0.6-0.1,1.1-0.4,1.6c-0.3,0.5-0.7,0.8-1.2,1.1
	c-0.5,0.3-1.1,0.4-1.7,0.4c-0.4,0-0.8,0-1.2-0.1v3.6H80V10.9z M84.1,15.1c0.4-0.3,0.5-0.8,0.5-1.3c0-0.5-0.2-0.9-0.5-1.2
	c-0.5-0.3-1-0.4-1.6-0.4h-0.9v3.3c0.3,0.1,0.6,0.1,0.9,0.1C83.1,15.6,83.7,15.5,84.1,15.1z"/>
<path class="st0" d="M87.8,10.9h1.6v8h3.9l-0.1,1.4h-5.4V10.9z"/>
<path class="st0" d="M95.8,19.8c-0.7-0.4-1.2-1-1.6-1.7c-0.4-0.8-0.6-1.6-0.5-2.5c0-0.9,0.2-1.8,0.6-2.6c0.4-0.7,0.9-1.3,1.7-1.7
	c0.8-0.4,1.7-0.6,2.6-0.6c0.8,0,1.7,0.2,2.4,0.6c0.7,0.4,1.2,1,1.6,1.7c0.4,0.8,0.6,1.6,0.5,2.5c0,0.9-0.2,1.8-0.6,2.6
	c-0.4,0.7-0.9,1.3-1.7,1.7c-0.8,0.4-1.7,0.6-2.5,0.6C97.4,20.5,96.5,20.3,95.8,19.8z M100,18.7c0.5-0.3,0.8-0.7,1-1.2
	c0.2-0.6,0.3-1.2,0.3-1.8c0-0.6-0.1-1.2-0.3-1.8c-0.2-0.5-0.5-0.9-1-1.2c-1-0.6-2.3-0.6-3.3,0c-0.5,0.3-0.8,0.8-1,1.3
	c-0.2,0.6-0.4,1.2-0.3,1.8c0,0.6,0.1,1.2,0.3,1.8c0.4,1.1,1.5,1.8,2.6,1.7C98.9,19.2,99.5,19,100,18.7z"/>
<path class="st0" d="M104.8,10.9h2.9c0.9-0.1,1.7,0.2,2.4,0.6c0.6,0.4,0.9,1.1,0.8,1.8c0,0.5-0.1,0.9-0.3,1.3
	c-0.2,0.4-0.4,0.7-0.7,0.9c-0.3,0.2-0.6,0.4-0.9,0.5l2.9,4.1h-1.9l-2.4-3.7h-1.2v3.7h-1.6V10.9z M107.3,15.4c0.4,0,0.7-0.1,1-0.2
	c0.3-0.1,0.5-0.4,0.7-0.6c0.2-0.3,0.3-0.6,0.3-1c0-0.4-0.1-0.8-0.4-1c-0.4-0.2-0.8-0.4-1.3-0.3h-1.2v3.2L107.3,15.4z"/>
<path class="st0" d="M113.2,10.9h5.5l-0.2,1.3h-3.7v2.6h3.5v1.2h-3.5V19h3.9l-0.1,1.4h-5.4V10.9z"/>
<path class="st0" d="M124.7,10.9h1.6v9.4h-1.6V10.9z"/>
<path class="st0" d="M130.6,12.3h-2.9l0.1-1.3h7.3l-0.1,1.3h-2.8v8h-1.6V12.3z"/>
<path class="st0" d="M142.2,19.8c-0.7-0.4-1.2-1-1.6-1.7c-0.4-0.8-0.6-1.6-0.5-2.5c0-0.9,0.2-1.8,0.6-2.6c0.4-0.7,0.9-1.3,1.7-1.7
	c0.8-0.4,1.7-0.6,2.6-0.6c0.9,0,1.7,0.2,2.5,0.6c0.7,0.4,1.2,1,1.6,1.7c0.4,0.8,0.6,1.6,0.5,2.5c0,0.9-0.2,1.8-0.6,2.6
	c-0.4,0.7-0.9,1.3-1.7,1.7c-0.8,0.4-1.7,0.6-2.5,0.6C143.8,20.5,142.9,20.3,142.2,19.8z M146.3,18.7c0.5-0.3,0.8-0.7,1-1.2
	c0.2-0.6,0.3-1.2,0.3-1.8c0-0.6-0.1-1.2-0.3-1.8c-0.2-0.5-0.5-0.9-0.9-1.2c-1-0.6-2.3-0.6-3.4,0c-0.5,0.3-0.8,0.8-1,1.3
	c-0.2,0.6-0.4,1.2-0.3,1.8c0,0.6,0.1,1.2,0.3,1.8c0.2,0.5,0.5,1,1,1.3c0.5,0.3,1.1,0.5,1.7,0.5C145.3,19.2,145.9,19,146.3,18.7z"/>
<path class="st0" d="M151.2,10.9h1.9l4.6,7.3c0-0.7-0.1-1.3-0.1-1.9v-5.3h1.5v9.4h-1.8l-4.7-7.4c0,0.8,0.1,1.6,0.1,2.2v5.1h-1.5
	V10.9z"/>
<g id="形状_1_拷贝_25">
	<path class="st1" d="M24.6,11h17.2c6.1,0,11.1,5,11.1,11.1v17.2c0,6.1-5,11.1-11.1,11.1H24.6c-6.1,0-11.1-5-11.1-11.1V22.1
		C13.6,15.9,18.5,11,24.6,11z"/>
</g>
<path class="st0" d="M21.3,30.7h1v5.1h-1v-2.1H19v2.1h-1v-5.1h1v2.1h2.4V30.7z M27.2,33.6c0,0.8-0.4,1.3-1.2,1.3
	c-0.8,0-1.2-0.5-1.2-1.3v-2.9h-1v2.9c0,1.4,0.8,2.3,2.2,2.3s2.2-0.8,2.2-2.3v-2.9h-1V33.6z M39.3,34.2l-1.2-3.5h-0.9l-1.2,3.5
	l-1.1-3.5h-1.1l1.8,5.1h0.9l1.2-3.4l1.2,3.4h0.9l1.8-5.1h-1.1L39.3,34.2z M43.3,33.6h1.9v-0.9h-1.9v-1.1h2.8v-0.9h-3.8v5.1h3.9v-0.9
	h-2.9L43.3,33.6z M47.4,35.8h1v-5.1h-1V35.8z M30.3,34.7l-0.5,1.1h-1.1l2.2-5.1h0.9l2.3,5.1h-1.1l-0.4-1.1L30.3,34.7z M30.7,33.8
	h1.6L31.5,32L30.7,33.8z"/>
<path class="st0" d="M33.2,24.1c-3.6,0-6.5-2.9-6.5-6.5h0.9c0,3.1,2.5,5.6,5.6,5.6c3.1,0,5.6-2.5,5.6-5.6h0.9
	C39.7,21.2,36.8,24.1,33.2,24.1z"/>
</svg>
