<?xml version="1.0" encoding="utf-8"?>
<!-- Generator: Adobe Illustrator 24.2.3, SVG Export Plug-In . SVG Version: 6.00 Build 0)  -->
<svg version="1.1" id="Layer_1" xmlns="http://www.w3.org/2000/svg" xmlns:xlink="http://www.w3.org/1999/xlink" x="0px" y="0px"
	 viewBox="0 0 206.9 61.3" style="enable-background:new 0 0 206.9 61.3;" xml:space="preserve">
<style type="text/css">
	.st0{fill:#FFFFFF;}
</style>
<rect x="0" y="0" width="206.9" height="61.3"/>
<path class="st0" d="M46.2,30.3c0-3,1.6-5.9,4.2-7.5c-1.6-2.4-4.3-3.8-7.2-3.9c-3-0.3-6,1.8-7.5,1.8s-3.9-1.8-6.5-1.7
	c-3.3,0.1-6.4,2-8,4.9c-3.5,6-0.9,14.9,2.4,19.7c1.7,2.4,3.6,5,6.2,5s3.4-1.6,6.4-1.6s3.9,1.6,6.5,1.5s4.4-2.4,6-4.8
	c1.2-1.7,2.1-3.6,2.7-5.6C48.3,36.9,46.3,33.8,46.2,30.3"/>
<path class="st0" d="M41.3,15.8c1.5-1.8,2.2-4,2-6.3c-2.2,0.2-4.3,1.3-5.8,3c-1.4,1.7-2.2,3.8-2,6C37.7,18.6,39.9,17.6,41.3,15.8"/>
<path class="st0" d="M82.3,48.3h-3.5l-1.9-6h-6.6l-1.8,6h-3.4l6.6-20.4h4.1L82.3,48.3z M76.3,39.8l-1.7-5.3c-0.2-0.5-0.5-1.8-1-3.9
	h-0.1c-0.2,0.9-0.5,2.1-1,3.9l-1.7,5.3L76.3,39.8z"/>
<path class="st0" d="M99.2,40.8c0.1,2.2-0.6,4.3-2,5.9c-1.2,1.3-2.8,2-4.5,1.9c-1.7,0.1-3.3-0.7-4.2-2.1v7.7h-3.3V38.4
	c0-1.6,0-3.2-0.1-4.8h2.9l0.2,2.3h0.1c1.8-2.7,5.4-3.4,8.1-1.7c0.5,0.3,0.9,0.7,1.2,1.1C98.6,36.9,99.3,38.8,99.2,40.8 M95.8,40.9
	c0-1.3-0.3-2.5-1-3.5c-0.6-0.9-1.7-1.5-2.8-1.4c-0.8,0-1.6,0.3-2.2,0.8c-0.7,0.5-1.1,1.3-1.3,2.1c-0.1,0.3-0.1,0.7-0.2,1v2.5
	c0,1,0.3,2,1,2.7c0.6,0.7,1.6,1.1,2.6,1.1c1.1,0,2.2-0.5,2.9-1.4C95.5,43.5,95.9,42.2,95.8,40.9"/>
<path class="st0" d="M116.1,40.8c0.1,2.2-0.6,4.3-2,5.9c-1.2,1.3-2.8,2-4.5,1.9c-1.7,0.1-3.3-0.7-4.2-2.1v7.7H102V38.4
	c0-1.6,0-3.2-0.1-4.8h2.9l0.2,2.3h0.1c1.8-2.7,5.4-3.4,8.1-1.7c0.5,0.3,0.9,0.7,1.2,1.1C115.5,36.9,116.1,38.8,116.1,40.8
	 M112.7,40.9c0-1.3-0.3-2.5-1-3.5c-0.6-0.9-1.7-1.5-2.8-1.5c-0.8,0-1.6,0.3-2.2,0.8c-0.7,0.5-1.1,1.3-1.3,2.1
	c-0.1,0.3-0.1,0.7-0.2,1v2.5c0,1,0.3,2,1,2.7c0.6,0.7,1.6,1.1,2.6,1.1c1.1,0,2.2-0.5,2.9-1.4C112.4,43.5,112.7,42.2,112.7,40.9"/>
<path class="st0" d="M135,42.6c0.1,1.6-0.6,3.2-1.8,4.2c-1.6,1.3-3.5,1.9-5.6,1.8c-1.8,0.1-3.7-0.4-5.3-1.3l0.8-2.7
	c1.4,0.8,3.1,1.3,4.7,1.3c1,0.1,2-0.2,2.9-0.8c0.7-0.5,1-1.4,1-2.2c0-0.8-0.3-1.5-0.8-2.1c-0.8-0.7-1.8-1.3-2.8-1.6
	c-3.6-1.3-5.4-3.3-5.4-5.8c0-1.6,0.7-3.1,1.9-4.1c1.4-1.1,3.2-1.7,5-1.6c1.6,0,3.2,0.3,4.6,1l-0.8,2.7c-1.2-0.6-2.6-1-3.9-0.9
	c-1-0.1-1.9,0.2-2.7,0.9c-0.5,0.5-0.8,1.1-0.8,1.8c0,0.8,0.3,1.5,0.9,2c0.9,0.7,1.9,1.2,3,1.6c1.4,0.5,2.8,1.3,3.8,2.4
	C134.6,40,135.1,41.3,135,42.6"/>
<path class="st0" d="M145.9,36h-3.6v7.2c0,1.8,0.6,2.7,1.9,2.7c0.5,0,1,0,1.4-0.2l0.1,2.5c-0.8,0.3-1.7,0.4-2.5,0.4
	c-1.1,0.1-2.2-0.4-3-1.2c-0.8-1.2-1.2-2.6-1.1-4V36h-2.1v-2.4h2.1v-2.7l3.2-1v3.7h3.6L145.9,36z"/>
<path class="st0" d="M162.1,40.8c0.1,2-0.6,4-1.9,5.6c-1.4,1.5-3.4,2.3-5.4,2.2c-2,0.1-3.8-0.7-5.2-2.2c-1.3-1.5-2-3.4-1.9-5.4
	c-0.1-2.1,0.6-4.1,2-5.6c1.4-1.5,3.3-2.3,5.3-2.2c2-0.1,3.9,0.7,5.2,2.2C161.5,36.9,162.2,38.9,162.1,40.8 M158.7,40.9
	c0-1.2-0.3-2.4-0.9-3.5c-0.6-1.1-1.7-1.8-2.9-1.8c-1.3,0-2.4,0.6-3,1.8c-0.6,1.1-0.9,2.3-0.9,3.6c0,1.2,0.3,2.4,0.9,3.5
	c0.9,1.6,2.9,2.2,4.5,1.4c0.6-0.3,1.1-0.8,1.4-1.4C158.4,43.4,158.7,42.2,158.7,40.9"/>
<path class="st0" d="M172.7,36.5c-0.3-0.1-0.7-0.1-1-0.1c-1.1-0.1-2.1,0.4-2.7,1.3c-0.6,0.9-0.9,1.9-0.8,2.9v7.7h-3.3V38.2
	c0-1.7,0-3.2-0.1-4.6h2.8l0.1,2.8h0.1c0.3-0.9,0.9-1.7,1.6-2.3c0.7-0.5,1.5-0.8,2.4-0.8c0.3,0,0.5,0,0.8,0.1L172.7,36.5z"/>
<path class="st0" d="M187.3,40.2c0,0.5,0,1-0.1,1.5h-9.8c0,1.3,0.5,2.5,1.4,3.3c0.9,0.7,2.1,1.1,3.2,1c1.4,0,2.7-0.2,4-0.7l0.5,2.3
	c-1.6,0.6-3.2,1-4.9,0.9c-2,0.1-3.9-0.6-5.4-2c-1.4-1.5-2.1-3.4-2-5.4c-0.1-2,0.6-4,1.8-5.5c1.2-1.6,3.1-2.4,5.1-2.4
	c1.9-0.1,3.7,0.8,4.8,2.4C186.9,37,187.4,38.6,187.3,40.2 M184.2,39.4c0-0.9-0.2-1.8-0.6-2.5c-0.5-0.9-1.5-1.4-2.6-1.4
	c-1,0-2,0.5-2.6,1.3c-0.6,0.7-0.9,1.6-1,2.5L184.2,39.4z"/>
<path class="st0" d="M74.8,20.6h-1.7l-0.9-2.9h-3.3L68,20.6h-1.7l3.2-10h2L74.8,20.6z M71.8,16.4L71,13.8c-0.1-0.3-0.3-0.9-0.5-1.9
	l0,0c-0.1,0.4-0.3,1.1-0.5,1.9l-0.8,2.6H71.8z"/>
<path class="st0" d="M82.8,13.4l-2.7,7.2h-1.6l-2.7-7.2h1.7l1.2,3.8c0.2,0.6,0.4,1.2,0.5,1.8l0,0c0.1-0.5,0.3-1.1,0.5-1.8l1.2-3.8
	L82.8,13.4z"/>
<path class="st0" d="M90.1,20.6h-1.5l-0.1-0.8l0,0c-0.5,0.7-1.3,1-2.1,1c-0.6,0-1.2-0.2-1.7-0.7c-0.4-0.4-0.6-0.9-0.6-1.5
	c0-0.8,0.4-1.6,1.1-2c1-0.5,2-0.8,3.1-0.7v-0.1c0-0.9-0.5-1.4-1.5-1.4c-0.7,0-1.3,0.2-1.9,0.5l-0.3-1.1c0.8-0.4,1.6-0.7,2.5-0.6
	c1.9,0,2.8,1,2.8,3v2.7C90.1,19.5,90.1,20.1,90.1,20.6 M88.5,18.1V17c-1.8,0-2.7,0.5-2.7,1.5c0,0.3,0.1,0.6,0.3,0.9
	c0.2,0.2,0.5,0.3,0.8,0.3c0.4,0,0.7-0.1,1-0.3c0.3-0.2,0.5-0.5,0.6-0.9L88.5,18.1z"/>
<path class="st0" d="M94.6,11.2c0,0.3-0.1,0.5-0.3,0.7c-0.2,0.2-0.5,0.3-0.7,0.3c-0.3,0-0.5-0.1-0.7-0.3c-0.2-0.2-0.3-0.4-0.3-0.7
	c0-0.3,0.1-0.5,0.3-0.7c0.2-0.2,0.4-0.3,0.7-0.3c0.3,0,0.5,0.1,0.7,0.3C94.5,10.7,94.6,10.9,94.6,11.2 M94.4,20.6h-1.6v-7.2h1.6
	V20.6z"/>
<rect x="97.3" y="10.1" class="st0" width="1.6" height="10.6"/>
<path class="st0" d="M107.2,20.6h-1.4l-0.1-0.8l0,0c-0.5,0.7-1.3,1-2.1,1c-0.6,0-1.2-0.2-1.7-0.7c-0.4-0.4-0.6-0.9-0.6-1.5
	c0-0.8,0.4-1.6,1.1-2c1-0.5,2-0.8,3.1-0.7v-0.1c0-0.9-0.5-1.4-1.5-1.4c-0.7,0-1.3,0.2-1.9,0.5l-0.3-1.1c0.8-0.4,1.6-0.7,2.5-0.6
	c1.9,0,2.8,1,2.8,3v2.7C107.1,19.5,107.1,20,107.2,20.6 M105.5,18.1V17c-1.8,0-2.7,0.5-2.7,1.5c0,0.3,0.1,0.6,0.3,0.9
	c0.2,0.2,0.5,0.3,0.8,0.3c0.4,0,0.7-0.1,1-0.3c0.3-0.2,0.5-0.5,0.6-0.9L105.5,18.1z"/>
<path class="st0" d="M116.8,16.9c0.1,1.1-0.3,2.1-1,2.9c-0.5,0.6-1.3,1-2.2,1c-0.9,0-1.8-0.4-2.3-1.3l0,0l-0.1,1.1h-1.4
	c0-0.6,0-1.2,0-2V10h1.6v4.4c0.5-0.8,1.4-1.3,2.3-1.2c0.8,0,1.6,0.3,2.2,1C116.5,14.9,116.8,15.9,116.8,16.9 M115.1,16.9
	c0-0.6-0.1-1.2-0.5-1.7c-0.3-0.5-0.9-0.7-1.4-0.7c-0.4,0-0.8,0.1-1.1,0.4c-0.3,0.3-0.5,0.6-0.6,1c0,0.2,0,0.3,0,0.5v1.3
	c0,0.5,0.2,0.9,0.5,1.3c0.3,0.4,0.8,0.5,1.2,0.5c0.6,0,1.1-0.2,1.4-0.7C115,18.2,115.2,17.5,115.1,16.9"/>
<rect x="119.1" y="10.1" class="st0" width="1.6" height="10.6"/>
<path class="st0" d="M129.6,16.6c0,0.2,0,0.5-0.1,0.7h-4.8c0,0.6,0.2,1.2,0.7,1.6c0.4,0.4,1,0.5,1.6,0.5c0.7,0,1.4-0.1,2-0.4
	l0.2,1.1c-0.8,0.3-1.6,0.5-2.4,0.5c-1,0.1-1.9-0.3-2.6-1c-0.7-0.7-1-1.7-1-2.7c0-1,0.3-1.9,0.9-2.7c0.6-0.8,1.5-1.2,2.5-1.2
	c0.9,0,1.8,0.4,2.4,1.2C129.4,15,129.6,15.8,129.6,16.6 M128,16.2c0-0.4-0.1-0.9-0.3-1.2c-0.3-0.4-0.8-0.7-1.3-0.7
	c-0.5,0-1,0.2-1.3,0.6c-0.3,0.4-0.4,0.8-0.5,1.2H128z"/>
<path class="st0" d="M142.8,16.9c0,1-0.3,2-1,2.7c-0.7,0.7-1.6,1.1-2.6,1.1c-1,0-1.9-0.3-2.5-1.1c-0.6-0.7-1-1.7-0.9-2.7
	c0-1,0.3-2,1-2.8c1.4-1.4,3.7-1.4,5.2,0C142.5,15,142.9,16,142.8,16.9 M141.2,16.9c0-0.6-0.1-1.2-0.4-1.7c-0.3-0.5-0.8-0.9-1.4-0.9
	c-0.6,0-1.2,0.3-1.5,0.9c-0.3,0.5-0.4,1.1-0.4,1.7c0,0.6,0.1,1.2,0.4,1.7c0.3,0.5,0.9,0.9,1.5,0.9c0.6,0,1.2-0.3,1.4-0.9
	C141,18.1,141.2,17.5,141.2,16.9"/>
<path class="st0" d="M151.5,20.6h-1.6v-4.1c0-1.3-0.5-1.9-1.5-1.9c-0.4,0-0.9,0.2-1.2,0.5c-0.3,0.3-0.5,0.8-0.4,1.2v4.3h-1.6v-5.2
	c0-0.7,0-1.4-0.1-2.1h1.4l0.1,1.1h0.1c0.2-0.4,0.5-0.7,0.8-0.9c0.4-0.3,0.9-0.4,1.5-0.4c0.6,0,1.2,0.2,1.7,0.7
	c0.6,0.6,0.9,1.5,0.8,2.4V20.6z"/>
<path class="st0" d="M162,14.6h-1.8v3.5c0,0.9,0.3,1.3,0.9,1.3c0.2,0,0.5,0,0.7-0.1l0.1,1.2c-0.4,0.1-0.8,0.2-1.2,0.2
	c-0.6,0-1.1-0.2-1.5-0.6c-0.4-0.6-0.6-1.3-0.5-2v-3.6h-1v-1.2h1V12l1.6-0.5v1.8h1.8V14.6z"/>
<path class="st0" d="M170.5,20.6h-1.6v-4.1c0-1.3-0.5-1.9-1.5-1.9c-0.7,0-1.3,0.4-1.5,1.1c-0.1,0.2-0.1,0.4-0.1,0.6v4.4h-1.6V10.1
	h1.6v4.3l0,0c0.5-0.8,1.3-1.2,2.2-1.2c0.6,0,1.2,0.2,1.7,0.6c0.6,0.7,0.9,1.5,0.8,2.4L170.5,20.6z"/>
<path class="st0" d="M178.8,16.6c0,0.2,0,0.5-0.1,0.7h-4.8c0,0.6,0.2,1.2,0.7,1.6c0.4,0.4,1,0.5,1.6,0.5c0.7,0,1.4-0.1,2-0.4
	l0.2,1.1c-0.8,0.3-1.6,0.5-2.4,0.5c-1,0-1.9-0.3-2.6-1c-0.7-0.7-1-1.7-1-2.7c0-1,0.3-1.9,0.9-2.7c0.6-0.8,1.5-1.2,2.5-1.2
	c0.9-0.1,1.8,0.4,2.4,1.2C178.6,15,178.8,15.8,178.8,16.6 M177.2,16.2c0-0.4-0.1-0.9-0.3-1.2c-0.3-0.4-0.8-0.7-1.3-0.7
	c-0.5,0-1,0.2-1.3,0.6c-0.3,0.4-0.4,0.8-0.5,1.2H177.2z"/>
</svg>
