<svg id="Layer_1" data-name="Layer 1" xmlns="http://www.w3.org/2000/svg" viewBox="0 0 200 200"><defs><style>.cls-1{fill:none;stroke:#000;stroke-linecap:round;stroke-linejoin:round;stroke-width:9px;}</style></defs><path class="cls-1" d="M107.67,145.88c-4.64,0-30.52,0-35.16,0q-5.7,0-11.4-.12c-11.81-.2-18.57-8.31-18.78-18.59-.37-18.14-.42-36.29,0-54.42.24-10.16,6.84-18.06,18.39-18.33q23.57-.55,47.15,0c11.87.27,18.14,8.56,18.5,18.86.32,9.06.07,18.14.07,27.21,0,8.46.2,16.94-.1,25.39a26.23,26.23,0,0,1-2.22,9.78c-3.17,6.84-9.1,10-16.47,10.11"/><path class="cls-1" d="M138,75.62c3.73-2.35,7-5.38,10.77-7.7,4.25-2.62,8.33-.45,9.1,4.55a23,23,0,0,1,.06,3.62q0,12.09,0,24.17c0,8.26.06,16.52,0,24.78a12.84,12.84,0,0,1-1,5.19c-1.55,3.3-4.3,4.24-7.4,2.28a121.54,121.54,0,0,1-13.17-9.46"/><circle class="cls-1" cx="63.85" cy="76.03" r="0.62"/></svg>