<?xml version="1.0" encoding="utf-8"?>
<!-- Generator: Adobe Illustrator 24.2.3, SVG Export Plug-In . SVG Version: 6.00 Build 0)  -->
<svg version="1.1" id="Layer_1" xmlns="http://www.w3.org/2000/svg" xmlns:xlink="http://www.w3.org/1999/xlink" x="0px" y="0px"
	 viewBox="0 0 206.9 61.3" style="enable-background:new 0 0 206.9 61.3;" xml:space="preserve">
<style type="text/css">
	.st0{fill:#FFFFFF;stroke:#FFFFFF;stroke-width:0.31;stroke-miterlimit:185.19;}
	.st1{fill:#FFFFFF;}
	.st2{fill:#00CDFF;}
	.st3{fill:#FFD500;}
	.st4{fill:#F73647;}
	.st5{fill:#00ED76;}
	.st6{opacity:0.2;enable-background:new    ;}
	.st7{opacity:0.12;enable-background:new    ;}
	.st8{opacity:0.25;fill:#FFFFFF;enable-background:new    ;}
</style>
<rect x="0" y="0" width="206.9" height="61.3"/>
<path class="st0" d="M72.7,15.6c0.1,1.1-0.3,2.2-1.1,3.1c-1.8,1.9-4.9,1.9-6.7,0c-0.9-0.9-1.4-2.1-1.4-3.4c0-2.6,2.1-4.7,4.7-4.8
	c0,0,0.1,0,0.1,0c0.6,0,1.3,0.2,1.8,0.5c0.5,0.2,1,0.6,1.4,1.1l-0.8,0.8c-0.6-0.7-1.5-1.1-2.4-1.1c-0.9,0-1.8,0.4-2.5,1.1
	c-0.7,0.7-1.1,1.6-1.1,2.6c-0.1,1,0.3,2,1.1,2.6c0.7,0.6,1.5,1,2.5,1.1c1,0,1.9-0.4,2.6-1.1c0.5-0.5,0.8-1.1,0.8-1.8h-3.4V15h4.4
	V15.6L72.7,15.6z M79.7,11.8h-4.1v2.9h3.8v1.1h-3.8v2.9h4.1v1.2h-5.4v-9.2h5.4L79.7,11.8z M84.7,19.9h-1.2v-8.1h-2.6v-1.1h6.4v1.1
	h-2.6L84.7,19.9z M91.7,19.9v-9.2H93v9.2H91.7z M98.2,19.9H97v-8.1h-2.6v-1.1h6.3v1.1h-2.6L98.2,19.9L98.2,19.9z M112.7,18.7
	c-1.8,1.9-4.9,1.9-6.7,0c-0.9-0.9-1.4-2.1-1.4-3.4c0-2.6,2.1-4.8,4.8-4.8s4.8,2.1,4.8,4.8C114.2,16.6,113.7,17.8,112.7,18.7
	L112.7,18.7z M107,17.9c0.6,0.7,1.5,1,2.4,1.1c0.9,0,1.8-0.4,2.4-1.1c0.7-0.7,1.1-1.6,1.1-2.6c0.1-1-0.3-2-1.1-2.6
	c-0.7-0.7-1.5-1-2.4-1.1c-0.9,0-1.8,0.4-2.4,1.1c-0.7,0.7-1.1,1.6-1.1,2.6C105.8,16.3,106.2,17.3,107,17.9z M115.9,19.9v-9.2h1.4
	l4.4,7.2v-7.2h1.2v9.2h-1.2l-4.7-7.5v7.5H115.9z"/>
<path class="st1" d="M104.4,33.4c-3.6-0.1-6.5,2.7-6.6,6.3c0,0.1,0,0.2,0,0.3c0,3.6,2.9,6.6,6.5,6.6c0,0,0.1,0,0.1,0
	c3.6,0.1,6.5-2.7,6.6-6.3c0-0.1,0-0.2,0-0.3c0.1-3.5-2.6-6.5-6.1-6.6C104.7,33.4,104.5,33.4,104.4,33.4z M104.4,43.8
	c-2.2,0-4-1.8-4-4s1.8-4,4-4c2,0,3.7,1.7,3.7,3.7c0,0.1,0,0.2,0,0.3C108.2,41.9,106.5,43.7,104.4,43.8
	C104.4,43.8,104.4,43.8,104.4,43.8z M90.1,33.4c-3.6-0.1-6.5,2.8-6.6,6.3c0,0.1,0,0.2,0,0.3c0,3.6,2.9,6.6,6.5,6.6c0,0,0.1,0,0.1,0
	c3.6,0.1,6.5-2.7,6.6-6.3c0-0.1,0-0.2,0-0.3c0.1-3.5-2.6-6.5-6.1-6.6C90.4,33.4,90.3,33.4,90.1,33.4z M90.1,43.8c-2.2,0-4-1.8-4-4
	s1.8-4,4-4c2,0,3.7,1.7,3.7,3.7c0,0.1,0,0.2,0,0.3C93.9,41.9,92.3,43.7,90.1,43.8C90.2,43.8,90.2,43.8,90.1,43.8z M73.1,35.4v2.8
	h6.6c-0.1,1.3-0.6,2.6-1.5,3.5c-1.3,1.3-3.2,2.1-5.1,2c-3.9,0-7.2-3.1-7.2-7.1c0-0.1,0-0.2,0-0.3c-0.1-4,3.1-7.3,7.1-7.3
	c0,0,0.1,0,0.1,0c1.9,0,3.7,0.7,5.1,2l2-2c-1.8-1.8-4.3-2.8-6.9-2.8c-5.6,0-10.1,4.5-10.3,10.1c0.1,5.6,4.7,10.1,10.3,10.1
	c2.7,0.1,5.2-0.9,7-2.9c1.6-1.8,2.5-4.1,2.4-6.4c0-0.6,0-1.1-0.2-1.7H73.1z M142.7,37.5c-0.8-2.4-3-4.1-5.5-4.1
	c-3.4,0-6.1,2.6-6.1,6.6c-0.1,3.5,2.7,6.5,6.2,6.6c0.1,0,0.1,0,0.2,0c2.2,0,4.2-1.1,5.4-2.9l-2.1-1.5c-0.7,1.1-1.9,1.9-3.2,1.8
	c-1.4,0.1-2.7-0.7-3.2-2l8.7-3.7L142.7,37.5L142.7,37.5z M133.8,39.7c-0.1-2,1.4-3.7,3.4-3.8c1,0,2,0.5,2.4,1.4L133.8,39.7
	L133.8,39.7z M126.6,46h2.9V26.8h-2.9V46z M122,34.8c-0.9-1-2.2-1.5-3.5-1.5c-3.5,0.2-6.3,3.1-6.3,6.6c0,3.5,2.8,6.4,6.3,6.4
	c0,0,0,0,0,0c1.3,0,2.5-0.6,3.4-1.5h0.2v0.9c0,2.5-1.4,3.8-3.5,3.8c-1.5,0-2.7-0.9-3.2-2.3l-2.4,1.1c1,2.3,3.3,3.8,5.8,3.8
	c3.4,0,6.1-2,6.1-6.7V33.7H122V34.8z M118.6,43.8c-2.2,0-4-1.8-4-4s1.8-4,4-4c2,0.1,3.6,1.8,3.5,3.8c0,0.1,0,0.1,0,0.2
	c0.2,2-1.3,3.8-3.4,4C118.7,43.8,118.7,43.8,118.6,43.8L118.6,43.8z M156,26.8h-6.9V46h2.9v-7.2h4c3.3,0,6-2.7,6-6
	S159.4,26.8,156,26.8L156,26.8z M156.2,36H152v-6.6h4.1c1.8,0,3.3,1.4,3.4,3.2C159.5,34.5,158,35.9,156.2,36L156.2,36z M173.8,33.3
	c-2.1,0-4.3,0.9-5.1,2.9l2.6,1.1c0.5-1,1.6-1.5,2.6-1.4c1.5-0.1,2.8,1,3,2.5v0.2c-0.9-0.5-1.9-0.8-2.9-0.8c-2.8,0-5.5,1.5-5.5,4.3
	c0.1,2.5,2.2,4.4,4.7,4.3c0,0,0,0,0.1,0c1.5,0.1,2.8-0.6,3.7-1.8h0.1V46h2.8v-7.4C179.7,35.5,176.9,33.1,173.8,33.3L173.8,33.3z
	 M173.5,43.9c-0.9,0-2.3-0.5-2.3-1.7c0-1.5,1.7-2,3.1-2c0.9,0,1.8,0.2,2.6,0.6C176.6,42.5,175.2,43.8,173.5,43.9L173.5,43.9z
	 M189.6,33.7l-3.2,8.3h-0.1l-3.4-8.3h-3.1l5.1,11.7l-2.9,6.4h2.9l7.8-18.1H189.6z M163.9,46h2.9V26.8h-2.9V46z"/>
<path class="st2" d="M15.9,11.5c-0.5,0.6-0.7,1.4-0.6,2.1v33.9c0,0.8,0.2,1.6,0.8,2.2l0.2,0.2l19-19v-0.3L15.9,11.5z"/>
<path class="st3" d="M41.4,37.2L35.1,31v-0.5l6.3-6.3l0.2,0.1l7.5,4.3c2.1,1.2,2.1,3.2,0,4.5L41.4,37.2z"/>
<path class="st4" d="M41.5,37.1l-6.4-6.4L15.9,49.8c0.8,0.8,1.8,0.8,3.2,0.2L41.5,37.1"/>
<path class="st5" d="M41.5,24.2L19.2,11.5c-1.4-0.8-2.5-0.6-3.2,0.1l19.2,19C35.1,30.6,41.5,24.2,41.5,24.2z"/>
<path class="st6" d="M41.4,36.9L19.2,49.5c-0.9,0.7-2.2,0.7-3.1,0l-0.1,0.2l0.1,0.2c0.9,0.7,2.2,0.7,3.1,0L41.4,36.9z"/>
<path class="st7" d="M15.9,49.5c-0.5-0.6-0.7-1.4-0.6-2.2v0.2c0,0.8,0.2,1.6,0.8,2.2v-0.2H15.9z M49,32.7l-7.7,4.3l0.2,0.2l7.5-4.3
	c0.9-0.4,1.5-1.2,1.5-2.1C50.6,31.4,50,32,49,32.7z"/>
<path class="st8" d="M19.2,11.6l29.9,17c0.9,0.6,1.5,1.2,1.5,2c-0.1-0.9-0.7-1.8-1.5-2.1l-29.9-17c-2.1-1.2-3.8-0.3-3.8,2.1v0.1
	C15.3,11.5,17,10.4,19.2,11.6z"/>
</svg>
