<svg id="Layer_1" data-name="Layer 1" xmlns="http://www.w3.org/2000/svg" viewBox="0 0 200 200"><defs><style>.cls-1,.cls-2{fill:none;stroke:#000;stroke-linecap:round;stroke-linejoin:round;stroke-width:9px;}.cls-1{fill-rule:evenodd;}</style></defs><path class="cls-1" d="M150.31,106.13l5.47-5.48A10.73,10.73,0,0,0,159,92.92V54.56a10.86,10.86,0,0,0-3.79-8.3h0a11.07,11.07,0,0,0-7.18-2.66H109.69A10.89,10.89,0,0,0,102,46.78L76.11,72.64,44.22,104.53A11,11,0,0,0,41,112.31h0A10.7,10.7,0,0,0,44.22,120l38.36,38.35a10.91,10.91,0,0,0,7.73,3.24,11.15,11.15,0,0,0,7.78-3.24l52.22-52.25"/><path class="cls-1" d="M115.52,83.32a20.23,20.23,0,1,0,7.54,15.76H102.84"/><circle class="cls-2" cx="134.75" cy="66.5" r="0.62"/></svg>