<svg id="Layer_1" data-name="Layer 1" xmlns="http://www.w3.org/2000/svg" viewBox="0 0 200 200"><defs><style>.cls-1{fill:none;stroke:#000;stroke-linecap:round;stroke-linejoin:round;stroke-width:9px;}</style></defs><polyline class="cls-1" points="60.47 73.93 60.47 110.51 74.15 110.51"/><circle class="cls-1" cx="95.69" cy="99.23" r="12.31"/><line class="cls-1" x1="108" y1="83.84" x2="108" y2="112.22"/><polyline class="cls-1" points="120.14 85.55 141 85.55 120.14 110.51 141 110.51"/><path class="cls-1" d="M164.75,66.42a.76.76,0,0,0,0-.15,4.75,4.75,0,0,0-2.25-3.58c-.87-.55-21.24-13-24.24-14.67a3.77,3.77,0,0,0-2-.55,3.48,3.48,0,0,0-1.84.49c-.24,0-22.21,13.95-25.65,15.76A17.77,17.77,0,0,1,100,65.87a18.28,18.28,0,0,1-7.88-1.65c-3.52-1.34-26.52-16.33-26.52-16.33a3.82,3.82,0,0,0-3.83.07c-2.6,1.45-19,11.48-23.94,14.52l-.37.21a4.83,4.83,0,0,0-2.16,3.76,5.06,5.06,0,0,0-.05.68v44.15l0,.18h0c0,.08,0,.16,0,.24l0,.16a4.58,4.58,0,0,0,2.56,3.28c1.91,1,52.66,32.79,59.51,36.75a5.22,5.22,0,0,0,2.37.67v0H100a5.24,5.24,0,0,0,2.62-.69c.95-.54,2.73-1.62,5.1-3.07,10.83-6.57,33.92-21,46.27-28.71,4.58-2.84,7.68-4.75,8.13-5a4.54,4.54,0,0,0,2.62-3.68v0h0V66.79C164.77,66.66,164.76,66.54,164.75,66.42Z"/></svg>