<svg id="Layer_1" data-name="Layer 1" xmlns="http://www.w3.org/2000/svg" viewBox="0 0 200 200"><defs><style>.cls-1{fill:none;stroke:#000;stroke-linecap:round;stroke-linejoin:round;stroke-width:9px;}</style></defs><path class="cls-1" d="M126.61,71.08C117.57,54.7,98.33,50,83.94,50c-28.44,0-51.5,19.56-51.5,43.68,0,12.32,6,23.45,15.69,31.39l-3.89,24.75,25.39-14.17a60.24,60.24,0,0,0,14.31,1.71c4.74,0,15.56.39,25.16-6.38"/><circle class="cls-1" cx="57.27" cy="77.07" r="0.94"/><circle class="cls-1" cx="119.76" cy="103.18" r="0.94"/><circle class="cls-1" cx="143.79" cy="103.18" r="0.94"/><circle class="cls-1" cx="88.46" cy="77.07" r="0.94"/><path class="cls-1" d="M156.84,126.41c6.62-5.62,10.72-13.36,10.72-21.92,0-17.14-16.42-31-36.67-31s-36.67,13.89-36.67,31c0,15.68,13.74,28.64,31.59,30.73L152.5,150Z"/></svg>