<svg id="Layer_1" data-name="Layer 1" xmlns="http://www.w3.org/2000/svg" viewBox="0 0 200 200"><defs><style>.cls-1{fill:none;stroke:#000;stroke-linecap:round;stroke-linejoin:round;stroke-width:9px;}.cls-2{fill-rule:evenodd;}</style></defs><path class="cls-1" d="M79.86,151.53l-15,11,.15-27.7A55,55,0,1,1,155,92.42c0,29-14.38,54.33-75.1,59.11"/><g id="shape_1" data-name="shape 1"><path class="cls-2" d="M87.23,73.9c-.89-2-1.82-2-2.66-2.05-.69,0-1.48,0-2.27,0a4.31,4.31,0,0,0-3.15,1.48A13.22,13.22,0,0,0,75,83.17C75,89,79.25,94.61,79.84,95.4S88,108.51,100,113.25c10,3.94,12,3.16,14.19,3s7-2.86,8-5.62,1-5.13.69-5.62-1.09-.79-2.27-1.38-7-3.46-8.08-3.85-1.88-.59-2.66.59-3.06,3.85-3.75,4.64-1.38.89-2.56.29a32.31,32.31,0,0,1-9.51-5.87A35.29,35.29,0,0,1,87.5,91.2c-.69-1.18-.08-1.82.52-2.41s1.18-1.38,1.77-2.07a7.93,7.93,0,0,0,1.18-2,2.15,2.15,0,0,0-.1-2.07C90.58,82.08,88.28,76.24,87.23,73.9Z"/></g></svg>