<?xml version="1.0" encoding="utf-8"?>
<!-- Generator: Adobe Illustrator 26.2.1, SVG Export Plug-In . SVG Version: 6.00 Build 0)  -->
<!DOCTYPE svg PUBLIC "-//W3C//DTD SVG 1.1//EN" "http://www.w3.org/Graphics/SVG/1.1/DTD/svg11.dtd" [
	<!ENTITY ns_extend "http://ns.adobe.com/Extensibility/1.0/">
	<!ENTITY ns_ai "http://ns.adobe.com/AdobeIllustrator/10.0/">
	<!ENTITY ns_graphs "http://ns.adobe.com/Graphs/1.0/">
	<!ENTITY ns_vars "http://ns.adobe.com/Variables/1.0/">
	<!ENTITY ns_imrep "http://ns.adobe.com/ImageReplacement/1.0/">
	<!ENTITY ns_sfw "http://ns.adobe.com/SaveForWeb/1.0/">
	<!ENTITY ns_custom "http://ns.adobe.com/GenericCustomNamespace/1.0/">
	<!ENTITY ns_adobe_xpath "http://ns.adobe.com/XPath/1.0/">
]>
<svg version="1.1" id="Layer_1" xmlns:x="&ns_extend;" xmlns:i="&ns_ai;" xmlns:graph="&ns_graphs;"
	 xmlns="http://www.w3.org/2000/svg" xmlns:xlink="http://www.w3.org/1999/xlink" x="0px" y="0px" viewBox="0 0 500 57"
	 style="enable-background:new 0 0 500 57;" xml:space="preserve">
<style type="text/css">
	.st0{fill:#666766;}
	.st1{fill:#666766;}
	.st2{fill:#FFFFFF;}
	.st3{fill:#666766;}
	.st4{fill:#666766;}
	.st5{fill:#666766;}
	.st6{fill:#666766;}
	.st7{fill:#666766;}
</style>
<metadata>
	<sfw  xmlns="&ns_sfw;">
		<slices></slices>
		<sliceSourceBounds  bottomLeftOrigin="true" height="54" width="496.8" x="311" y="67"></sliceSourceBounds>
	</sfw>
</metadata>
<g>
	<path class="st0" d="M123,32.5l3.1-7.1c0.3-0.8,1.3-1.4,2.2-1.4h19.6c0,0,0.3,1.4,0.3,3.5c0,13.6-11,24.5-24.6,24.5
		s-24.6-11-24.6-24.5s10.9-24.5,24.7-24.5c8.3,0,14.2,3.9,17.1,6.4l-3.5,6c-0.1,0.3-1.3,1.5-2.7,0.5c-2.7-1.8-6.4-4-11-4
		c-8.1,0-14.4,7-14.4,15.6s6.2,15.6,14.6,15.6c6.7,0,12.3-4.5,14.2-10.6L123,32.5L123,32.5z"/>
	<path class="st0" d="M184.1,52.6c-13.9,0-25-11.1-25-24.9s11.1-24.9,25-24.9s25,11.1,25,24.9S198,52.6,184.1,52.6z M198.8,27.7
		c0-8.7-6.4-15.8-14.7-15.8c-8.3,0-14.7,7.1-14.7,15.8s6.4,15.8,14.7,15.8C192.4,43.5,198.8,36.4,198.8,27.7z"/>
	<path class="st0" d="M228.5,52.1c-3.2,0-5.7-2.6-5.7-5.7V3.3h7.1c1.7,0,3.1,1.4,3.1,3.1v36.3h18.8c0.9,0,1.9,0.6,2.3,1.3l3.8,8
		L228.5,52.1L228.5,52.1z"/>
	<path class="st0" d="M272.4,52.1V9c0-3.1,2.6-5.7,5.7-5.7h28.1l-3.6,8c-0.3,0.8-1.3,1.3-2.2,1.3h-18.2v11.5h21.5l-3.2,7.1
		c-0.3,0.8-1.3,1.3-2.2,1.3h-16.1v16.5c0,1.7-1.3,3-3,3H272.4L272.4,52.1z"/>
	<path class="st1" d="M401,52.6c-13.9,0-25-11.1-25-24.9s11.1-24.9,25-24.9c13.9,0,25,11.1,25,24.9S414.8,52.6,401,52.6z
		 M415.7,27.7c0-8.7-6.4-15.8-14.7-15.8s-14.7,7.1-14.7,15.8s6.4,15.8,14.7,15.8S415.7,36.4,415.7,27.7z"/>
	<path class="st1" d="M354.5,34.8V3.3h6.6c1.7,0,3.1,1.4,3.1,3.1v45.7h-5c-2.9,0-5.6-1.3-7.4-3.6L331,21v31h-6.6
		c-1.7,0-3.1-1.4-3.1-3.1V3.3h5.1c2.9,0,5.7,1.4,7.4,3.7L354.5,34.8L354.5,34.8z"/>
	<path class="st1" d="M494.9,3.3H488l-6.9,30.2l-0.2,0.6L472,7.7c-0.9-2.6-2.6-4.4-5.9-4.4h-5.5l-10.1,31.1l-0.2-0.9l-6.4-27.7
		c-0.4-1.5-1.8-2.5-3.3-2.5h-7.6L444.2,48c0.6,2.4,2.9,4,5.6,4h4.7l11.1-34.4l9.8,29.7c0.4,1.1,1,2.2,1.8,3c0,0,0.1,0.1,0.1,0.1
		c1.1,1,2.4,1.7,4,1.7h4.8l11.4-45C498.3,4.1,497.4,3.3,494.9,3.3L494.9,3.3z"/>
</g>
<g>
	<path class="st2" d="M45.3,6.6c1.2-2,3.3-4.1,5.4-5c3.7-1.7,8.8-1,11.9,1.7c3,2.7,4.5,6.4,3.8,10.5c0.7-0.1,1.5-0.6,2.2-0.9
		c4.6-1.3,9.5,0.1,12.4,4.1c2.2,2.8,2.8,7.2,1.5,10.6c-0.7,1.7-1.8,3.3-3.3,4.6l0.2,0.1c4.3,0.2,8.5,3.5,9.8,7.6
		c1.4,4.1,0.2,8.5-2.9,11.5c-2.5,2.4-5.6,3.3-9.1,3.2H13.3c-5.2,0.1-9.3-2.2-11.5-6.9c-1.7-4-0.9-9.1,2.3-12.2c2-2.1,4.5-3,7.3-3.4
		c-3.1-2.9-4.6-6.8-3.7-11c0.6-3.4,3.5-6.8,6.8-8c2.9-1.2,6.9-1,9.6,0.6l0.1-0.1C23.5,9.2,25.5,5,29.4,2.4c3.4-2.3,8.9-2.3,12.2,0.2
		C43.1,3.6,44.4,5.1,45.3,6.6"/>
	<path class="st3" d="M63.3,8.2c1.4,2.8,0.6,6.4-0.9,8.9L51.4,42l-0.1,0.1l-4-25.3c-0.3-2.4,2.3-3.5,3.8-4.6
		c-0.1-0.4-0.5-0.3-0.7-0.5l-3.7,0l-0.1-0.1c0-3.1,1.7-6,4.6-7.6c3-1.7,7.2-1.3,9.8,1C61.9,5.9,62.8,7,63.3,8.2"/>
	<path class="st4" d="M42.9,7.3c0.9,1.7,1.4,3.6,1.1,5.7l-4.5,28.9c0,0,0,0.1-0.1,0.1l-1.2-2.3L27,14.4c-1.1-3.3-0.1-6.7,2.3-9
		c2.4-2.4,6.3-3.1,9.4-1.8C40.4,4.3,41.9,5.6,42.9,7.3"/>
	<path class="st5" d="M79.7,19.4c1.5,2.6,1.2,6.5-0.5,8.9C78.1,30,76.4,30.9,75,32L51.5,48.1h-0.1l0.3-0.8l12.4-28.1
		c1.9-3.3,5.4-5,9.2-4.5C75.9,15.2,78.5,16.9,79.7,19.4"/>
	<path class="st6" d="M26.4,19.2l12.9,28.8h-0.2l-26.1-18c-2.7-2.2-3.7-5.6-2.8-9c0.7-2.5,2.8-4.9,5.3-5.8
		C19.6,13.8,24.2,15.4,26.4,19.2"/>
	<path class="st1" d="M86.5,39.8c1.3,2.7,0.8,6.5-1.1,8.8c-1.8,2.2-4.3,3.5-7.2,3.4l-27.8,0l23.3-16.2c2.3-1.5,5.7-1.7,8.2-0.5
		C83.9,36.1,85.7,38,86.5,39.8"/>
	<path class="st7" d="M4.2,39.8c-1.3,2.7-0.8,6.5,1.1,8.8c1.8,2.2,4.3,3.5,7.2,3.4l27.8,0L17,35.9c-2.3-1.5-5.7-1.7-8.2-0.5
		C6.8,36.1,5,38,4.2,39.8"/>
</g>
</svg>
