<?xml version="1.0" encoding="UTF-8"?>
<svg width="55px" height="11px" viewBox="0 0 55 11" version="1.1" xmlns="http://www.w3.org/2000/svg" xmlns:xlink="http://www.w3.org/1999/xlink">
    <!-- Generator: Sketch 50.2 (55047) - http://www.bohemiancoding.com/sketch -->
    <title>Golf_Logo Copy</title>
    <desc>Created with Sketch.</desc>
    <defs>
        <polygon id="path-1" points="18 10.9772414 0 10.9772414 0 0.0967241381 9.00000002 0.0967241381 18 0.0967241381"></polygon>
    </defs>
    <g id="Page-1" stroke="none" stroke-width="1" fill="none" fill-rule="evenodd">
        <g id="GN_Navigation_Brand" transform="translate(-134.000000, -14.000000)">
            <g id="Brand_Nav-Copy" transform="translate(-9.000000, 0.000000)">
                <g id="Golf_Logo-Copy" transform="translate(143.000000, 14.000000)">
                    <g id="Fill-9-Clipped">
                        <mask id="mask-2" fill="white">
                            <use xlink:href="#path-1"></use>
                        </mask>
                        <g id="path-1"></g>
                        <path d="M18.024585,10.0665173 C18.8101496,9.06551727 18.5761769,7.61275863 17.5270476,6.87613793 C17.1747075,6.63072414 16.7631836,6.49151724 16.3303537,6.46989655 C16.8113197,6.07731035 17.1297279,5.52806896 17.1774694,4.91889655 C17.2323129,4.2202069 16.9371836,3.50558621 16.4072925,3.0542069 C15.6398775,2.42872414 14.5268299,2.26410345 13.6394694,2.76289655 C13.762966,2.04637931 13.5151836,1.30672414 12.954517,0.77 C12.541415,0.364896552 11.9472109,0.133137931 11.3238095,0.133137931 C10.4790612,0.133137931 9.62484354,0.608793104 9.24804082,1.34617242 C8.87123809,0.608793104 8.01741499,0.133137931 7.17266666,0.133137931 C6.54887075,0.133137931 5.95466666,0.364896552 5.54195918,0.77 C4.98129252,1.30672414 4.73311565,2.04637931 4.8570068,2.76289655 C3.96964626,2.26410345 2.85659864,2.42872414 2.08878912,3.0542069 C1.55929252,3.50558621 1.26416326,4.2202069 1.31861225,4.91927586 C1.3667483,5.52844827 1.68476191,6.07731035 2.16572789,6.46989655 C1.73329252,6.49151724 1.32176871,6.63072414 0.969428572,6.87613793 C0.570530612,7.1537931 0.269482994,7.55510345 0.105346939,8.00003446 C-0.117578231,8.75486209 0.0157823129,9.493 0.480965986,10.0782758 C0.931551019,10.6438276 1.62597279,10.9685173 2.38589115,10.9685173 L16.110585,10.9685173 C16.8705034,10.9685173 17.5649252,10.6438276 18.0155102,10.0778965 L18.024585,10.0665173" id="Fill-9" fill="#FFFFFF" fill-rule="nonzero" mask="url(#mask-2)"></path>
                    </g>
                    <path d="M3.70608164,2.96734483 C3.25312925,2.96734483 2.81359184,3.12741379 2.43521088,3.43010345 C2.03118367,3.77375862 1.79721088,4.34386207 1.83942857,4.88134483 C1.87020408,5.27089655 2.05406803,5.82772414 2.75638095,6.26810345 L7.95783673,9.713 L5.43740136,4.18265517 C5.12293877,3.421 4.47586395,2.96734483 3.70608164,2.96734483" id="Fill-11" fill="#666666" fill-rule="nonzero"></path>
                    <path d="M8.74340136,1.49941379 C8.92923809,1.83586207 9.04050337,2.21858621 8.97342855,2.64037931 C8.97342855,2.64037931 7.96572791,8.46506899 7.95665309,8.46696554 L5.4342449,2.92713793 C5.21447619,2.27282758 5.42280272,1.5912069 5.91244898,1.12351724 C6.40643537,0.637241379 7.2247483,0.503724138 7.86985036,0.769241381 C8.21390473,0.911482755 8.53902037,1.17624138 8.74340136,1.49941379" id="Fill-12" fill="#666666" fill-rule="nonzero"></path>
                    <path d="M14.79,2.96734483 C15.2429524,2.96734483 15.6824898,3.12741379 16.0608707,3.43010345 C16.464898,3.77375862 16.6988707,4.34386207 16.6570476,4.88134483 C16.6262721,5.27089655 16.4424082,5.82772414 15.7400953,6.26810345 L10.5386395,9.713 L13.0586803,4.18265517 C13.3735374,3.421 14.0202177,2.96734483 14.79,2.96734483" id="Fill-13" fill="#666666" fill-rule="nonzero"></path>
                    <path d="M10.2802041,2.41544827 C10.3405714,2.41544827 10.4332925,2.4602069 10.4451293,2.51596552 C10.125932,2.71055173 9.59525172,2.926 9.66035373,3.37472414 L9.73492518,3.8647931 C10.0312381,5.5732069 10.5331156,8.46544827 10.5398231,8.46696554 L13.0622313,2.92713793 C13.2816055,2.27282758 13.0736735,1.5912069 12.5836326,1.12351724 C12.0896463,0.637241379 11.2713334,0.503724138 10.6266258,0.769241381 C10.2825714,0.911482755 9.95745581,1.17624138 9.75268027,1.49941379 C9.60077554,1.77517242 9.49858501,2.08165517 9.50331973,2.41544827 L10.2802041,2.41544827" id="Fill-14" fill="#666666" fill-rule="nonzero"></path>
                    <path d="M16.2108027,6.96831035 C17.0259592,6.96831035 17.7045986,7.54448273 17.8888572,8.13696554 C18.0671973,8.72110345 17.963034,9.317 17.6004354,9.77293101 C17.2496735,10.214069 16.7067619,10.4663104 16.110585,10.4663104 L10.3172925,10.4663104 L15.0938095,7.29906896 C15.4481225,7.08324138 15.8347891,6.96831035 16.2108027,6.96831035" id="Fill-15" fill="#666666" fill-rule="nonzero"></path>
                    <path d="M2.28527891,6.96831035 C1.47051701,6.96831035 0.791482991,7.54448273 0.607619047,8.13696554 C0.428884354,8.72110345 0.533047619,9.317 0.895646255,9.77293101 C1.24680272,10.214069 1.78971428,10.4663104 2.38589115,10.4663104 L8.17918364,10.4663104 L3.40266666,7.29906896 C3.04835374,7.08324138 2.66129252,6.96831035 2.28527891,6.96831035" id="Fill-16" fill="#666666" fill-rule="nonzero"></path>
                    <path d="M35.239932,8.97941381 C33.387483,8.97941381 31.8802721,7.44244827 31.8802721,5.55386207 C31.8802721,3.66527586 33.387483,2.12831035 35.239932,2.12831035 C37.0919864,2.12831035 38.5988027,3.66527586 38.5988027,5.55386207 C38.5988027,7.44244827 37.0919864,8.97941381 35.239932,8.97941381 Z M53.4227347,2.26296552 C53.6235646,2.26296552 53.8133469,2.15031035 53.9048844,1.97810345 L54.6884762,0.254896552 L48.6477959,0.254896552 C47.9364082,0.254896552 47.3579864,0.810586209 47.3579864,1.49334483 L47.3579864,10.4408965 L46.7578639,9.12506899 C46.6982857,8.99610345 46.5380953,8.84513791 46.2918912,8.84513791 L42.3313197,8.84513791 L42.3313197,0.942586209 C42.3313197,0.563275862 42.0101496,0.254896552 41.6151973,0.254896552 L40.0653742,0.254896552 L40.0653742,1.91893104 C40.562517,2.88996552 40.6587891,3.80068965 40.6773334,4.10793104 C40.0188164,1.85558621 37.8984626,0.136172414 35.239932,0.136172414 C32.1789524,0.136172414 29.9938912,2.35589655 29.6569388,4.77172414 L26.6239728,4.77172414 C26.3414694,4.77172414 26.2175783,4.95834483 26.1781225,5.03648276 L25.4545034,6.62655173 L28.8536191,6.62655173 C28.494966,7.81189655 27.3511428,8.97941381 25.6139047,8.97941381 C23.7129252,8.97941381 22.2234694,7.47468964 22.2234694,5.55386207 C22.2234694,3.63303448 23.7267347,2.12831035 25.6458639,2.12831035 C26.4207755,2.12831035 27.3172109,2.44086207 28.1063265,2.98517242 C28.4050068,3.18431035 28.6843537,2.94268965 28.7332789,2.85886207 L29.5231836,1.53544827 C28.9396326,1.04158621 27.5748572,0.136172414 25.694,0.136172414 C22.4684898,0.136172414 19.9417415,2.50913793 19.9417415,5.53831035 C19.9417415,8.53448273 22.4724354,10.9715517 25.5823401,10.9715517 C28.2077279,10.9715517 30.5245714,9.17096554 31.0939184,6.68951724 C31.0939184,6.68951724 31.1854558,7.65220691 30.7206666,8.80037928 C31.7962313,10.1806896 33.4411428,10.9715517 35.239932,10.9715517 C37.5524354,10.9715517 39.221415,9.69365518 40.0653742,8.36986209 L40.0653742,9.60641381 C40.0653742,10.2937242 40.6437959,10.8528276 41.3551836,10.8528276 L48.9062313,10.8528276 C49.3023674,10.8528276 49.623932,10.544069 49.623932,10.1647586 L49.623932,6.62882758 L52.8553605,6.62844827 C53.0561905,6.62844827 53.2463674,6.51541379 53.3375102,6.34358621 L54.0552109,4.77172414 L49.623932,4.77172414 L49.623932,2.26296552 L53.4227347,2.26296552 Z" id="Fill-17" fill="#666666" fill-rule="nonzero"></path>
                </g>
            </g>
        </g>
    </g>
</svg>