<?xml version="1.0" encoding="utf-8"?>
<!-- Generator: Adobe Illustrator 20.0.0, SVG Export Plug-In . SVG Version: 6.00 Build 0)  -->
<svg version="1.1" id="Layer_1" xmlns="http://www.w3.org/2000/svg" xmlns:xlink="http://www.w3.org/1999/xlink" width="111px" height="11px"
	 viewBox="0 0 111 11" style="enable-background:new 0 0 111 11;" xml:space="preserve">
<style type="text/css">
	.st0{fill:#FFFFFF;filter:url(#Adobe_OpacityMaskFilter);}
	.st1{mask:url(#a);fill:#FFFFFE;}
	.st2{fill:#666666;}
</style>
<g>
	<defs>
		<filter id="Adobe_OpacityMaskFilter" filterUnits="userSpaceOnUse" x="0" y="0.1" width="17.9" height="10.9">
			<feColorMatrix  type="matrix" values="1 0 0 0 0  0 1 0 0 0  0 0 1 0 0  0 0 0 1 0"/>
		</filter>
	</defs>
	<mask maskUnits="userSpaceOnUse" x="0" y="0.1" width="17.9" height="10.9" id="a">
		<path class="st0" d="M0,0.1h17.9V11H0V0.1z"/>
	</mask>
	<path class="st1" d="M17.5,10.1c0.8-1,0.5-2.5-0.5-3.2c-0.3-0.2-0.7-0.4-1.2-0.4c0.5-0.4,0.8-1,0.8-1.6c0.1-0.7-0.2-1.4-0.7-1.9
		c-0.7-0.6-1.8-0.8-2.7-0.3c0.1-0.7-0.1-1.5-0.7-2c-0.4-0.4-1-0.6-1.6-0.6c-0.8,0-1.6,0.5-2,1.2c-0.4-0.7-1.2-1.2-2-1.2
		c-0.6,0-1.2,0.2-1.6,0.6C4.8,1.2,4.6,2,4.7,2.7C3.8,2.2,2.8,2.4,2,3C1.5,3.5,1.2,4.2,1.3,4.9c0,0.6,0.4,1.2,0.8,1.6
		c-0.4,0-0.8,0.2-1.2,0.4C0.6,7.1,0.3,7.6,0.1,8C-0.1,8.8,0,9.5,0.5,10.1C0.9,10.7,1.6,11,2.3,11h13.3C16.3,11,17,10.7,17.5,10.1
		L17.5,10.1z"/>
	<g>
		<path class="st2" d="M3.6,2.9c-0.4,0-0.9,0.2-1.2,0.5C2,3.7,1.7,4.3,1.8,4.9c0,0.4,0.2,1,0.9,1.4l5,3.5L5.3,4.1
			C5,3.4,4.3,2.9,3.6,2.9"/>
		<path class="st2" d="M8.5,1.4c0.2,0.3,0.3,0.7,0.2,1.2c0,0-1,5.9-1,5.9L5.3,2.9c-0.2-0.7,0-1.3,0.5-1.8C6.2,0.6,7,0.4,7.6,0.7
			C8,0.8,8.3,1.1,8.5,1.4"/>
		<path class="st2" d="M14.3,2.9c0.4,0,0.9,0.2,1.2,0.5c0.4,0.3,0.6,0.9,0.6,1.5c0,0.4-0.2,1-0.9,1.4l-5,3.5l2.4-5.6
			C13,3.4,13.6,2.9,14.3,2.9"/>
		<path class="st2" d="M10,2.4c0.1,0,0.1,0,0.2,0.1C9.8,2.7,9.3,2.9,9.4,3.3l0.1,0.5c0.3,1.7,0.8,4.6,0.8,4.6l2.4-5.6
			c0.2-0.7,0-1.3-0.5-1.8c-0.5-0.5-1.3-0.6-1.9-0.4C10,0.8,9.6,1.1,9.4,1.4C9.3,1.7,9.2,2,9.2,2.4H10z"/>
		<path class="st2" d="M15.7,7c0.8,0,1.4,0.6,1.6,1.2c0.2,0.6,0.1,1.2-0.3,1.7c-0.3,0.4-0.9,0.7-1.4,0.7H10l4.6-3.2
			C15,7.1,15.3,7,15.7,7"/>
		<path class="st2" d="M2.2,7C1.4,7,0.8,7.5,0.6,8.1C0.4,8.7,0.5,9.3,0.9,9.8c0.3,0.4,0.9,0.7,1.4,0.7h5.6L3.3,7.3
			C3,7.1,2.6,7,2.2,7"/>
		<path class="st2" d="M34.1,9c-1.8,0-3.3-1.6-3.3-3.5c0-1.9,1.5-3.5,3.3-3.5c1.8,0,3.3,1.6,3.3,3.5C37.4,7.4,35.9,9,34.1,9z
			 M48.1,2.2h3.7c0.2,0,0.4-0.1,0.5-0.3L53,0.2h-5.9c-0.7,0-1.2,0.6-1.2,1.2v9l-0.6-1.3c-0.1-0.1-0.2-0.3-0.5-0.3H41v-8
			c0-0.4-0.3-0.7-0.7-0.7h-1.5v1.7c0.5,1,0.6,1.9,0.6,2.2c-0.6-2.3-2.7-4-5.3-4c-3,0-5.1,2.2-5.4,4.7h-2.9c-0.3,0-0.4,0.2-0.4,0.3
			l-0.7,1.6H28C27.6,7.8,26.5,9,24.8,9c-1.8,0-3.3-1.5-3.3-3.5c0-1.9,1.5-3.5,3.3-3.5c0.8,0,1.6,0.3,2.4,0.9c0.3,0.2,0.6,0,0.6-0.1
			l0.8-1.3C28,1,26.7,0.1,24.9,0.1c-3.1,0-5.6,2.4-5.6,5.5c0,3,2.5,5.5,5.5,5.5c2.5,0,4.8-1.8,5.3-4.3c0,0,0.1,1-0.4,2.1
			c1,1.4,2.6,2.2,4.4,2.2c2.2,0,3.9-1.3,4.7-2.6v1.2c0,0.7,0.6,1.3,1.2,1.3h7.3c0.4,0,0.7-0.3,0.7-0.7V6.6l3.1,0
			c0.2,0,0.4-0.1,0.5-0.3l0.7-1.6h-4.3L48.1,2.2z"/>
		<path class="st2" d="M60.4,5.5c1,0,1.8-0.8,1.8-1.9c0-1.1-0.8-1.9-1.8-1.9h-1.7v3.8H60.4z M57.6,10.9c-0.4,0-0.6-0.2-0.6-0.6v-10
			h3.6c1.9,0,3.4,1.5,3.4,3.4c0,2-1.4,3.4-3.4,3.4h-1.9v3.8H57.6z"/>
		<path class="st2" d="M66,10.9c-0.5,0-0.9-0.4-0.9-0.9V0.2h1.2c0.3,0,0.5,0.2,0.5,0.5v10.2H66z"/>
		<path class="st2" d="M77.4,9.6c-1,0.9-2.4,1.4-3.8,1.4c-3.1,0-5.5-2.4-5.5-5.5c0-3,2.4-5.5,5.5-5.5c1.4,0,2.8,0.5,3.8,1.4l-0.6,1
			c-0.1,0.1-0.3,0.3-0.5,0.1c-0.7-0.5-1.5-1-2.7-1c-2.2,0-3.8,1.8-3.8,3.9c0,2.2,1.6,3.9,3.8,3.9c1.1,0,1.9-0.5,2.7-1
			c0.2-0.1,0.4,0,0.5,0.1L77.4,9.6z"/>
		<path class="st2" d="M84.8,10.9c-0.6,0-0.9-0.2-1.2-0.6l-3.5-4.4v5h-0.8c-0.5,0-0.9-0.4-0.9-0.9V0.2h1.2c0.3,0,0.5,0.2,0.5,0.5
			v4.1l3.4-4.2c0.3-0.3,0.5-0.5,0.9-0.5H86l-4.3,5.2l4.5,5.5L84.8,10.9z"/>
		<path class="st2" d="M93,10.9c-0.5,0-0.9-0.4-0.9-0.9V0.2h6.9l-0.6,1.3c-0.1,0.1-0.2,0.2-0.4,0.2h-4.2v3.2h4.6l-0.6,1.3
			c-0.1,0.1-0.2,0.2-0.4,0.2h-3.6v2.9h5.2l-0.6,1.3c-0.1,0.1-0.2,0.2-0.4,0.2H93z"/>
		<path class="st2" d="M109.2,10.9V2.5l-2.9,8.4h-0.9c-0.6,0-0.9-0.3-1.1-0.8l-2.6-7.5v8.3h-1.7V0.2h1.7c0.5,0,0.9,0.4,1.1,0.9
			l2.5,7.6l2.8-8.4h1.6c0.5,0,0.9,0.3,0.9,0.8v9.8L109.2,10.9z"/>
		<path class="st2" d="M89.5,4.1C89,4.1,89,3.8,89,3.2V0.1h0.8c0.3,0,0.5,0.2,0.5,0.5L90,4.1H89.5z"/>
	</g>
</g>
</svg>
