<?xml version="1.0" encoding="UTF-8"?>
<svg xmlns="http://www.w3.org/2000/svg" width="199.844" height="56.423" viewBox="0 0 199.844 56.423">
  <g id="Group_1512" data-name="Group 1512" transform="translate(-363.197 -1678.25)">
    <g id="Group_1510" data-name="Group 1510" transform="translate(364.358 1680)">
      <path id="Path_598" data-name="Path 598" d="M-208.15,179.731V147.79h2.679a.762.762,0,0,0,.707-1.017l-4.41-9.119a.754.754,0,0,0-.71-.494h-13.13" transform="translate(266.635 -126.808)" fill="none" stroke="#002d82" stroke-linejoin="round" stroke-width="3.5"/>
      <path id="Path_599" data-name="Path 599" d="M-232.732,137.161H-245.9a.75.75,0,0,0-.708.494l-4.413,9.119a.755.755,0,0,0,.708,1.017h2.679v31.941" transform="translate(251.673 -126.808)" fill="none" stroke="#002d82" stroke-linejoin="round" stroke-width="3.5"/>
      <path id="Path_600" data-name="Path 600" d="M-201.764,155.522h-43.495v-3.386l3.629-4.613h36.318l3.548,4.655Z" transform="translate(254.771 -121.282)" fill="none" stroke="#002d82" stroke-linejoin="round" stroke-width="3.5"/>
      <rect id="Rectangle_1588" data-name="Rectangle 1588" width="39.722" height="18.683" transform="translate(11.399 34.24)" fill="none" stroke="#002d82" stroke-linejoin="round" stroke-width="3.5"/>
      <line id="Line_191" data-name="Line 191" y2="18.683" transform="translate(24.506 34.24)" fill="none" stroke="#002d82" stroke-linejoin="round" stroke-width="3.5"/>
      <line id="Line_192" data-name="Line 192" y2="18.683" transform="translate(38.014 34.24)" fill="none" stroke="#002d82" stroke-linejoin="round" stroke-width="3.5"/>
      <path id="Path_601" data-name="Path 601" d="M-226.663,130.409c7.006,0,12.688,3.78,12.688,8.45s-5.683,8.447-12.688,8.447-12.688-3.783-12.688-8.447S-233.669,130.409-226.663,130.409Z" transform="translate(257.922 -130.409)" fill="none" stroke="#002d82" stroke-linejoin="round" stroke-width="3.5"/>
      <line id="Line_193" data-name="Line 193" x2="55.116" transform="translate(4.035 20.982)" fill="none" stroke="#002d82" stroke-linejoin="round" stroke-width="3.5"/>
      <line id="Line_194" data-name="Line 194" x2="62.519" transform="translate(0 52.923)" fill="none" stroke="#002d82" stroke-linejoin="round" stroke-width="3.5"/>
      <line id="Line_195" data-name="Line 195" x2="0.17" transform="translate(28.257 44.728)" fill="none" stroke="#002d82" stroke-linecap="round" stroke-linejoin="round" stroke-width="3.5"/>
    </g>
    <g id="Group_1511" data-name="Group 1511" transform="translate(499.358 1680)">
      <path id="Path_598-2" data-name="Path 598" d="M-208.15,179.731V147.79h2.679a.762.762,0,0,0,.707-1.017l-4.41-9.119a.754.754,0,0,0-.71-.494h-13.13" transform="translate(266.635 -126.808)" fill="none" stroke="#002d82" stroke-linejoin="round" stroke-width="3.5"/>
      <path id="Path_599-2" data-name="Path 599" d="M-232.732,137.161H-245.9a.75.75,0,0,0-.708.494l-4.413,9.119a.755.755,0,0,0,.708,1.017h2.679v31.941" transform="translate(251.673 -126.808)" fill="none" stroke="#002d82" stroke-linejoin="round" stroke-width="3.5"/>
      <path id="Path_600-2" data-name="Path 600" d="M-201.764,155.522h-43.495v-3.386l3.629-4.613h36.318l3.548,4.655Z" transform="translate(254.771 -121.282)" fill="none" stroke="#002d82" stroke-linejoin="round" stroke-width="3.5"/>
      <rect id="Rectangle_1588-2" data-name="Rectangle 1588" width="39.722" height="18.683" transform="translate(11.399 34.24)" fill="none" stroke="#002d82" stroke-linejoin="round" stroke-width="3.5"/>
      <line id="Line_191-2" data-name="Line 191" y2="18.683" transform="translate(24.506 34.24)" fill="none" stroke="#002d82" stroke-linejoin="round" stroke-width="3.5"/>
      <line id="Line_192-2" data-name="Line 192" y2="18.683" transform="translate(38.014 34.24)" fill="none" stroke="#002d82" stroke-linejoin="round" stroke-width="3.5"/>
      <path id="Path_601-2" data-name="Path 601" d="M-226.663,130.409c7.006,0,12.688,3.78,12.688,8.45s-5.683,8.447-12.688,8.447-12.688-3.783-12.688-8.447S-233.669,130.409-226.663,130.409Z" transform="translate(257.922 -130.409)" fill="none" stroke="#002d82" stroke-linejoin="round" stroke-width="3.5"/>
      <line id="Line_193-2" data-name="Line 193" x2="55.116" transform="translate(4.035 20.982)" fill="none" stroke="#002d82" stroke-linejoin="round" stroke-width="3.5"/>
      <line id="Line_194-2" data-name="Line 194" x2="62.519" transform="translate(0 52.923)" fill="none" stroke="#002d82" stroke-linejoin="round" stroke-width="3.5"/>
      <line id="Line_195-2" data-name="Line 195" x2="0.17" transform="translate(28.257 44.728)" fill="none" stroke="#002d82" stroke-linecap="round" stroke-linejoin="round" stroke-width="3.5"/>
    </g>
    <g id="Group_1427" data-name="Group 1427" transform="translate(446 1690.183)">
      <path id="Path_539" data-name="Path 539" d="M444.533-241.538l7.521,7.521-7.521,7.521" transform="translate(-418.054 241.538)" fill="none" stroke="#002d82" stroke-linecap="round" stroke-linejoin="round" stroke-width="4"/>
      <line id="Line_177" data-name="Line 177" x1="34" transform="translate(0 7.521)" fill="none" stroke="#002d82" stroke-linecap="round" stroke-linejoin="round" stroke-width="4"/>
    </g>
    <g id="Group_1428" data-name="Group 1428" transform="translate(446 1713.26)">
      <path id="Path_540" data-name="Path 540" d="M426.461-174.55l-7.521-7.521,7.521-7.521" transform="translate(-418.94 189.592)" fill="none" stroke="#002d82" stroke-linecap="round" stroke-linejoin="round" stroke-width="4"/>
      <line id="Line_178" data-name="Line 178" x2="34" transform="translate(0 7.521)" fill="none" stroke="#002d82" stroke-linecap="round" stroke-linejoin="round" stroke-width="4"/>
    </g>
  </g>
</svg>
