<?xml version="1.0" encoding="UTF-8"?>
<svg xmlns="http://www.w3.org/2000/svg" width="75.942" height="78.174" viewBox="0 0 75.942 78.174">
  <g id="Group_1198" data-name="Group 1198" transform="translate(-49.311 -114.208)">
    <g id="Group_1196" data-name="Group 1196" transform="translate(52.139 154.839)">
      <path id="Path_367" data-name="Path 367" d="M73.824,167.175a.071.071,0,0,1-.052-.022L59.245,152.625a.07.07,0,0,1,0-.1c2.528-2.531,7.787-6.774,14.579-6.774a17.491,17.491,0,0,1,8.392,1.951H100a4.482,4.482,0,0,1,4.472,4.3l7.929-7.929a4.475,4.475,0,0,1,6.328,6.329l-12.452,12.452a8.826,8.826,0,0,1-6.278,2.6H77.974a5.761,5.761,0,0,0-4.1,1.7A.07.07,0,0,1,73.824,167.175ZM59.4,152.574,73.824,167a5.9,5.9,0,0,1,4.15-1.69H99.995a8.682,8.682,0,0,0,6.177-2.557L118.623,150.3a4.33,4.33,0,0,0-6.124-6.124l-8.028,8.03A4.48,4.48,0,0,1,100,156.65H88.51a.073.073,0,0,1-.073-.073.072.072,0,0,1,.073-.073H100a4.334,4.334,0,0,0,4.329-4.329v0A4.334,4.334,0,0,0,100,147.845H82.2a.079.079,0,0,1-.032-.007,17.371,17.371,0,0,0-8.344-1.943C67.129,145.894,61.932,150.055,59.4,152.574Z" transform="translate(-48.918 -142.764)" fill="none" stroke="#002d82" stroke-linecap="round" stroke-linejoin="round" stroke-width="4"/>
      <rect id="Rectangle_1514" data-name="Rectangle 1514" width="11.74" height="26.415" rx="2.018" transform="translate(0 16.036) rotate(-45.001)" fill="none" stroke="#002d82" stroke-linecap="round" stroke-linejoin="round" stroke-width="4"/>
    </g>
    <g id="Group_1197" data-name="Group 1197" transform="translate(75.392 116.208)">
      <circle id="Ellipse_292" data-name="Ellipse 292" cx="17.456" cy="17.456" r="17.456" fill="none" stroke="#002d82" stroke-linecap="round" stroke-linejoin="round" stroke-width="4"/>
      <path id="Path_368" data-name="Path 368" d="M86.847,135.32c0-1.93-1.7-3.621-4.047-4.021l-2.025-.46c-2.067-.353-3.568-1.833-3.568-3.519,0-1.984,2.026-3.6,4.518-3.6s4.518,1.616,4.518,3.6a.072.072,0,1,0,.144,0c0-2.045-2.053-3.707-4.59-3.739v-2.552a.073.073,0,1,0-.145,0v2.552c-2.537.032-4.59,1.693-4.59,3.739,0,1.757,1.551,3.3,3.683,3.661l2.025.46c2.277.388,3.931,2.019,3.931,3.878,0,2.186-2.233,3.967-4.976,3.967s-4.976-1.781-4.976-3.967a.073.073,0,0,0-.145,0c0,2.247,2.259,4.073,5.049,4.105v2.551a.073.073,0,1,0,.145,0v-2.551C84.588,139.393,86.847,137.568,86.847,135.32Z" transform="translate(-64.269 -114.048)" fill="none" stroke="#002d82" stroke-linecap="round" stroke-linejoin="round" stroke-width="4"/>
    </g>
  </g>
</svg>
