<?xml version="1.0" encoding="UTF-8"?>
<svg xmlns="http://www.w3.org/2000/svg" width="18.985" height="18.985" viewBox="0 0 18.985 18.985">
  <path id="Icon_awesome-phone-alt" data-name="Icon awesome-phone-alt" d="M18.443,13.416l-4.153-1.78a.89.89,0,0,0-1.038.256l-1.839,2.247a13.744,13.744,0,0,1-6.57-6.57L7.09,5.729a.888.888,0,0,0,.256-1.038L5.566.538A.9.9,0,0,0,4.546.023L.69.913A.89.89,0,0,0,0,1.78,17.2,17.2,0,0,0,17.205,18.985a.89.89,0,0,0,.868-.69l.89-3.856a.9.9,0,0,0-.519-1.023Z" transform="translate(0 0)" fill="#002d82"/>
</svg>
