<?xml version="1.0" encoding="UTF-8"?>
<svg xmlns="http://www.w3.org/2000/svg" width="38.868" height="31.712" viewBox="0 0 38.868 31.712">
  <g id="Group_442" data-name="Group 442" transform="translate(-123.125 -121.125)">
    <g id="Group_1416" data-name="Group 1416" transform="translate(-37.769 -133.959)">
      <g id="Group_1415" data-name="Group 1415" transform="translate(161.764 263.959)">
        <circle id="Ellipse_330" data-name="Ellipse 330" cx="4.081" cy="4.081" r="4.081" transform="translate(4.481 0)" fill="none" stroke="#002d82" stroke-linecap="round" stroke-linejoin="round" stroke-width="1.75"/>
        <path id="Path_523" data-name="Path 523" d="M178.887,285.29v-8.131a3.309,3.309,0,0,0-3.309-3.309h-10.5a3.309,3.309,0,0,0-3.309,3.309v8.131" transform="translate(-161.764 -263.328)" fill="none" stroke="#002d82" stroke-linecap="square" stroke-linejoin="bevel" stroke-width="1.75"/>
        <path id="Path_524" data-name="Path 524" d="M178.887,285.29v-8.131a3.309,3.309,0,0,0-3.309-3.309h-10.5a3.309,3.309,0,0,0-3.309,3.309v8.131" transform="translate(-161.764 -263.328)" fill="none" stroke="#002d82" stroke-linecap="square" stroke-linejoin="bevel" stroke-width="1.75"/>
        <line id="Line_168" data-name="Line 168" y2="6.146" transform="translate(3.876 15.815)" fill="none" stroke="#002d82" stroke-linecap="round" stroke-linejoin="bevel" stroke-width="1.75"/>
        <line id="Line_169" data-name="Line 169" y1="6.146" transform="translate(13.247 15.815)" fill="none" stroke="#002d82" stroke-linecap="round" stroke-linejoin="bevel" stroke-width="1.75"/>
      </g>
      <line id="Line_170" data-name="Line 170" y2="4.96" transform="translate(165.64 280.96)" fill="none" stroke="#002d82" stroke-linecap="square" stroke-linejoin="bevel" stroke-width="1.75"/>
      <line id="Line_171" data-name="Line 171" y1="4.96" transform="translate(175.011 280.96)" fill="none" stroke="#002d82" stroke-linecap="square" stroke-linejoin="bevel" stroke-width="1.75"/>
    </g>
    <g id="Group_1416-2" data-name="Group 1416" transform="translate(-17.769 -133.959)">
      <g id="Group_1415-2" data-name="Group 1415" transform="translate(161.764 263.959)">
        <circle id="Ellipse_330-2" data-name="Ellipse 330" cx="4.081" cy="4.081" r="4.081" transform="translate(4.481 0)" fill="none" stroke="#002d82" stroke-linecap="round" stroke-linejoin="round" stroke-width="1.75"/>
        <path id="Path_523-2" data-name="Path 523" d="M178.887,285.29v-8.131a3.309,3.309,0,0,0-3.309-3.309h-10.5a3.309,3.309,0,0,0-3.309,3.309v8.131" transform="translate(-161.764 -263.328)" fill="none" stroke="#002d82" stroke-linecap="square" stroke-linejoin="bevel" stroke-width="1.75"/>
        <path id="Path_524-2" data-name="Path 524" d="M178.887,285.29v-8.131a3.309,3.309,0,0,0-3.309-3.309h-10.5a3.309,3.309,0,0,0-3.309,3.309v8.131" transform="translate(-161.764 -263.328)" fill="none" stroke="#002d82" stroke-linecap="square" stroke-linejoin="bevel" stroke-width="1.75"/>
        <line id="Line_168-2" data-name="Line 168" y2="6.146" transform="translate(3.876 15.815)" fill="none" stroke="#002d82" stroke-linecap="round" stroke-linejoin="bevel" stroke-width="1.75"/>
        <line id="Line_169-2" data-name="Line 169" y1="6.146" transform="translate(13.247 15.815)" fill="none" stroke="#002d82" stroke-linecap="round" stroke-linejoin="bevel" stroke-width="1.75"/>
      </g>
      <line id="Line_170-2" data-name="Line 170" y2="4.96" transform="translate(165.64 280.96)" fill="none" stroke="#002d82" stroke-linecap="square" stroke-linejoin="bevel" stroke-width="1.75"/>
      <line id="Line_171-2" data-name="Line 171" y1="4.96" transform="translate(175.011 280.96)" fill="none" stroke="#002d82" stroke-linecap="square" stroke-linejoin="bevel" stroke-width="1.75"/>
    </g>
    <g id="Group_1416-3" data-name="Group 1416" transform="translate(-27.769 -141.959)">
      <g id="Group_1415-3" data-name="Group 1415" transform="translate(161.764 263.959)">
        <circle id="Ellipse_330-3" data-name="Ellipse 330" cx="4.081" cy="4.081" r="4.081" transform="translate(4.481 0)" fill="none" stroke="#002d82" stroke-linecap="round" stroke-linejoin="round" stroke-width="1.75"/>
        <path id="Path_523-3" data-name="Path 523" d="M178.887,281.69v-5.572c0-.008,0-.015-.018-.237,0-1.028-1.475-2.031-3.291-2.031h-10.5a4.572,4.572,0,0,0-2.243.6,1.951,1.951,0,0,0-1.066,1.667v5.572" transform="translate(-161.764 -263.328)" fill="none" stroke="#002d82" stroke-linecap="square" stroke-linejoin="bevel" stroke-width="1.75"/>
        <circle id="Ellipse_331" data-name="Ellipse 331" cx="4.081" cy="4.081" r="4.081" transform="translate(4.481 0)" fill="none" stroke="#002d82" stroke-linecap="round" stroke-linejoin="round" stroke-width="1.75"/>
        <line id="Line_168-3" data-name="Line 168" y2="2.547" transform="translate(3.876 15.815)" fill="none" stroke="#002d82" stroke-linecap="round" stroke-linejoin="bevel" stroke-width="1.75"/>
        <line id="Line_169-3" data-name="Line 169" y1="2.547" transform="translate(13.247 15.815)" fill="none" stroke="#002d82" stroke-linecap="round" stroke-linejoin="bevel" stroke-width="1.75"/>
      </g>
    </g>
    <circle id="Ellipse_331-2" data-name="Ellipse 331" cx="4.081" cy="4.081" r="4.081" transform="translate(148.476 130)" fill="#fff" stroke="#002d82" stroke-linecap="round" stroke-linejoin="round" stroke-width="1.75"/>
    <circle id="Ellipse_331-3" data-name="Ellipse 331" cx="4.081" cy="4.081" r="4.081" transform="translate(128.476 130)" fill="#fff" stroke="#002d82" stroke-linecap="round" stroke-linejoin="round" stroke-width="1.75"/>
  </g>
</svg>
