<svg width="36" height="36" viewBox="0 0 36 36" fill="none" xmlns="http://www.w3.org/2000/svg">
<path d="M28.1374 9.22867C32.4308 12.4779 33.7296 18.3438 31.2512 23.0886L31.098 23.3719L32.4961 29.0019L26.8719 27.598C22.0795 30.2803 16.0429 29.0167 12.7287 24.6374C9.41447 20.2581 9.83836 14.1052 13.7218 10.2218C17.6052 6.33836 23.7581 5.91447 28.1374 9.22867ZM14.8885 11.3885C11.5876 14.6894 11.2272 19.9193 14.0443 23.6417C16.8001 27.2832 21.7705 28.3903 25.7989 26.3022L26.066 26.1583L26.6368 25.8388L30.2335 26.7358L29.3393 23.1358L29.6582 22.566C31.9382 18.4925 30.8641 13.3614 27.1417 10.5443C23.4193 7.72725 18.1894 8.08755 14.8885 11.3885ZM19.2446 15.5014L19.2359 21.6062C19.2359 23.424 18.078 24.5934 16.5092 24.5934C16.0221 24.5887 15.5394 24.5005 15.0821 24.3329L15.3397 22.1243C15.5505 22.1949 15.7693 22.2386 15.991 22.2546C16.1659 22.2648 16.3368 22.1997 16.4607 22.0759C16.5846 21.952 16.6496 21.7811 16.6394 21.6062V15.5014H19.2446ZM23.7138 15.2409C25.6866 15.2409 27.2858 16.8401 27.2858 18.8129C27.2858 19.7602 26.9095 20.6687 26.2396 21.3386C25.5697 22.0085 24.6612 22.3848 23.7138 22.3848C21.7411 22.3848 20.1419 20.7856 20.1419 18.8129C20.1419 16.8401 21.7411 15.2409 23.7138 15.2409ZM25.2538 19.0531C24.8945 19.547 24.3245 19.8438 23.7138 19.8549C23.1094 19.8384 22.5469 19.5422 22.1913 19.0531C22.1884 19.1042 22.1884 19.1554 22.1913 19.2065C22.1913 20.0522 22.8768 20.7378 23.7225 20.7378C24.5682 20.7378 25.2538 20.0522 25.2538 19.2065V19.0531ZM25.384 11.9932C26.1304 12.0218 26.7266 12.6244 26.7474 13.371C26.7474 14.124 26.137 14.7344 25.384 14.7344C24.6311 14.7344 24.0207 14.124 24.0207 13.371C24.0415 12.6244 24.6377 12.0218 25.384 11.9932ZM22.0437 11.9932C22.79 12.0218 23.3862 12.6244 23.407 13.371C23.407 14.124 22.7966 14.7344 22.0437 14.7344C21.2907 14.7344 20.6803 14.124 20.6803 13.371C20.7011 12.6244 21.2973 12.0218 22.0437 11.9932ZM17.9391 12.0047C18.6811 12.033 19.2757 12.6289 19.3025 13.371C19.2684 14.1074 18.6758 14.695 17.9391 14.7228C17.2024 14.695 16.6098 14.1074 16.5757 13.371C16.6025 12.6289 17.1971 12.033 17.9391 12.0047Z" fill="#323232"/>
</svg>
