<svg width="36" height="36" viewBox="0 0 36 36" fill="none" xmlns="http://www.w3.org/2000/svg">
<path d="M25.4333 18.3552C25.7165 18.5568 26.0965 18.7541 26.4929 18.9325L26.8347 19.0804L27.1733 19.2169L27.6503 19.396L28.1698 19.5761L28.516 19.687C29.0622 19.8947 29.4308 20.1616 29.6487 20.3553L29.772 20.4721L29.8524 20.5586L29.8966 20.6124C31.0062 22.2535 31.3141 24.1768 31.4315 25.7221L31.4659 26.2508L31.5011 26.9708C31.552 28.1028 31.3153 28.5264 31.0146 28.646C30.0482 29.0324 28.6174 29.3181 26.9635 29.5034L26.1852 29.5818C25.657 29.6294 25.1111 29.6674 24.5547 29.6959L23.713 29.7315L22.8608 29.7529C22.5755 29.7576 22.2894 29.76 22.0032 29.76C21.7171 29.76 21.4309 29.7576 21.1457 29.7529L20.2934 29.7315L19.4517 29.6959C18.8953 29.6674 18.3495 29.6294 17.8213 29.5818L17.043 29.5034C15.3892 29.3181 13.9586 29.0324 12.9927 28.646C12.6937 28.5255 12.4553 28.1028 12.5071 26.9708L12.558 25.9908C12.6554 24.4922 12.908 22.5768 13.9249 20.9048L14.1172 20.6061L14.1916 20.5197L14.2932 20.417C14.478 20.2411 14.8104 19.9775 15.3175 19.7582L15.4979 19.6855L15.912 19.5515L16.2594 19.4313L16.6696 19.2806C17.3185 19.0342 18.0885 18.7013 18.5732 18.3552L18.8655 18.5629L18.9904 18.646L19.0164 18.6591L19.0928 18.7384C19.1179 18.7626 19.1494 18.7916 19.1875 18.8242L19.3221 18.9317C19.735 19.2418 20.5861 19.7147 21.9872 19.7947L22.2564 19.8049L22.3514 19.8058C23.6023 19.8058 24.3439 19.3177 24.7084 18.9781L24.8345 18.8518L24.9221 18.7503L24.99 18.6582L25.4333 18.3552ZM18.4442 20.2518L18.1535 20.3882C17.6634 20.6091 17.1234 20.8143 16.5593 21.0056L16.0302 21.1779L15.9194 21.2239L15.8548 21.2538L15.6757 21.3498L15.5471 21.4311L15.434 21.5084C15.4201 21.5174 15.4139 21.5199 15.4158 21.5142L15.4249 21.4993C15.0718 22.0217 14.7994 22.6152 14.5967 23.2813C14.4009 23.9247 14.2874 24.4973 14.21 25.2443L14.1632 25.7708L14.124 26.3651L14.0858 27.1404L14.084 27.3492L14.1795 27.3784C15.8027 27.8515 18.5599 28.1493 21.5886 28.1743L22.0032 28.176C23.0666 28.176 24.1019 28.1423 25.0725 28.0791L25.8878 28.0178C27.4833 27.881 28.8583 27.6607 29.8293 27.3777L29.9229 27.3481L29.9234 27.1862L29.9187 27.0434L29.8864 26.4031L29.8502 25.8384L29.8078 25.3357C29.7304 24.5421 29.6161 23.9508 29.4124 23.2811C29.2099 22.6151 28.9375 22.0219 28.6212 21.5517L28.5311 21.4805L28.4119 21.3984C28.3879 21.3829 28.3617 21.3667 28.3334 21.3498C28.2586 21.3052 28.1775 21.263 28.0897 21.2239L27.9529 21.1675L27.9546 21.1631L27.8308 21.1286C27.2831 20.9672 26.5381 20.686 25.8584 20.3764L25.6461 20.2771L25.5877 20.3302C24.8911 20.9111 23.9114 21.3268 22.6365 21.3832L22.3371 21.3897L22.2255 21.3886C20.6256 21.3574 19.3806 20.9232 18.4872 20.2841L18.4442 20.2518ZM21.3988 6C21.9892 6.00662 22.5746 6.10584 23.1327 6.29384C24.0712 6.59975 25.1098 6.98666 25.8573 7.75703C26.8509 8.78136 26.8416 9.88789 26.6644 10.7582L26.6002 11.0391L26.4957 11.4219L26.4305 11.6476L26.5641 11.7709C26.8286 12.1121 26.726 12.7575 26.6305 13.1858C26.5455 13.5589 26.4031 13.876 26.2554 14.0242C25.898 15.8907 24.3083 18.2458 22.0649 18.3526L21.957 18.3552C20.2125 18.3552 18.0982 16.3586 17.7541 14.0242C17.6275 13.8965 17.5165 13.7022 17.435 13.4165L17.3689 13.1423L17.3113 12.863C17.2388 12.4706 17.2002 12.0193 17.3932 11.7717C17.4295 11.723 17.4744 11.681 17.5259 11.6476C17.2475 10.6691 17.2462 9.94326 17.3132 9.46143L17.3514 9.24081C17.3584 9.20742 17.3656 9.1757 17.373 9.14567L17.4174 8.98559L17.4587 8.86555L17.502 8.76006C18.2026 7.12712 19.5384 6 21.3988 6ZM21.3988 7.584C20.365 7.584 19.5628 8.13475 19.0459 9.19264L18.9405 9.42503L18.9203 9.48864C18.8292 9.81842 18.8219 10.3029 18.9877 10.981L19.0494 11.2142L19.37 12.3411L18.8846 12.6549L18.9502 12.9683C18.9491 12.9752 18.9436 12.9728 18.9322 12.9625L19.2453 13.2787L19.3212 13.7932C19.5468 15.3238 20.9918 16.7712 21.957 16.7712L21.9896 16.7704C23.1107 16.717 24.2992 15.3946 24.6577 13.9195L24.6997 13.7264L24.7909 13.2497L25.1298 12.9084L25.0977 12.9397C25.069 12.964 25.0608 12.9611 25.0621 12.9413L25.1114 12.7114L25.1298 12.6032L24.6406 12.1512L25.0173 10.8295C25.2163 10.1104 25.2277 9.6707 25.0286 9.27899C24.9587 9.14144 24.8588 9.00265 24.7205 8.86009C24.3165 8.44369 23.725 8.15291 22.6269 7.79494C22.3064 7.68696 21.9731 7.61973 21.6352 7.59472L21.3988 7.584Z" fill="#323232"/>
</svg>
