<svg width="36" height="36" viewBox="0 0 36 36" fill="none" xmlns="http://www.w3.org/2000/svg">
<path d="M12.14 8.584V10.168H11.084V14.392H33.26V10.168H32.204V8.584H33.788C34.3712 8.584 34.844 9.05679 34.844 9.64V14.92C34.844 15.5032 34.3712 15.976 33.788 15.976V28.648C33.788 29.2312 33.3152 29.704 32.732 29.704H11.612C11.0288 29.704 10.556 29.2312 10.556 28.648V15.976C9.97279 15.976 9.5 15.5032 9.5 14.92V9.64C9.5 9.05679 9.97279 8.584 10.556 8.584H12.14ZM32.204 15.976H12.14V28.12H16.892V19.144C16.892 18.5608 17.3648 18.088 17.948 18.088H26.396C26.9792 18.088 27.452 18.5608 27.452 19.144V28.12H32.204V15.976ZM25.868 19.848H18.476V28.12H25.868V19.848ZM19.6175 7V12.3512H18.0512V7H19.6175ZM22.1562 7V10.9396H23.2033V12.3512H20.5899V7H22.1562ZM25.4292 7V10.9396H26.4764V12.3512H23.8629V7H25.4292ZM29.9649 7L31.148 12.3512H29.5546L29.4458 11.6093H28.6253L28.5165 12.3512H26.9229L28.0291 7H29.9649ZM15.3017 7C15.5715 7 15.712 7.01353 15.9069 7.04735C16.6685 7.18266 17.2239 7.78024 17.2239 8.57176C17.2239 8.97542 17.0856 9.36327 16.8521 9.67447C17.2035 9.97439 17.3667 10.4074 17.3599 10.8764C17.3599 11.6905 16.6957 12.3512 15.8775 12.3512H13.196V7H15.3017ZM15.4672 10.3014H14.7623V10.9373H15.4672C15.6417 10.9373 15.7823 10.7952 15.7823 10.6193C15.7823 10.4434 15.6417 10.3014 15.4672 10.3014ZM29.117 9.07464H28.9652L28.6887 10.6103H29.3914L29.117 9.07464ZM15.4037 8.36204H14.76V8.99796H15.4037C15.5783 8.99796 15.7188 8.8559 15.7188 8.68C15.7188 8.50411 15.5783 8.36204 15.4037 8.36204Z" fill="#323232"/>
</svg>
