<svg width="80" height="80" fill="none" xmlns="http://www.w3.org/2000/svg"><path fill-rule="evenodd" clip-rule="evenodd" d="M37.775 13.694a2 2 0 012.442-.032L45.6 17.7l-1.2 1.6-5.383-4.038L15.62 33.784l-1.242-1.568 23.396-18.522zm-9.151 34.524L13 34.826V64c0 .66.19 1.628.789 2.46.635.882 1.685 1.54 3.211 1.54h43c.66 0 1.628-.19 2.46-.788C63.341 66.576 64 65.526 64 64V34.826L48.376 48.218A4.999 4.999 0 0046.917 48H30.083c-.501 0-.992.075-1.46.218zm-1.859 1.04L15 39.175V64c0 .34.11.872.412 1.29.264.368.714.71 1.588.71h43c.34 0 .872-.11 1.29-.411.368-.265.71-.715.71-1.589V39.174L50.235 49.26c.29.257.551.55.779.874l5.805 8.294-1.638 1.147-5.806-8.294A3 3 0 0046.917 50H30.083a3 3 0 00-2.458 1.28l-5.806 8.294-1.638-1.147 5.805-8.294c.227-.325.49-.617.78-.874zM41.5 33H23v8h2v-6h16.5v-2zm-13 10H50v-2H28.5v2z" fill="#B6B6B6"/><path fill-rule="evenodd" clip-rule="evenodd" d="M52.688 35.147A3.791 3.791 0 0152 33h2c0 .257.085.664.312.978.19.264.514.522 1.188.522.674 0 .999-.258 1.188-.522A1.79 1.79 0 0057 33h2c0 .577-.165 1.42-.688 2.147-.56.778-1.486 1.353-2.812 1.353-1.326 0-2.251-.575-2.812-1.353zM54 14c-3.156 0-6.563 2.957-6.563 7v5c0 .555-.13 1.378-.48 2.025-.325.603-.783.975-1.52.975H45v2h21v-2h-.442c-.746 0-1.208-.372-1.538-.975-.353-.647-.485-1.47-.485-2.025v-5c0-4.043-3.343-7-6.535-7h-3zm1 2h-1c-1.844 0-4.563 1.843-4.563 5v5c0 .779-.17 1.955-.72 2.975l-.014.025h13.551l-.014-.025c-.557-1.02-.728-2.196-.728-2.975v-5c0-3.157-2.647-5-4.512-5h-2z" fill="#E93030"/></svg>