<svg width="64" height="64" fill="none" xmlns="http://www.w3.org/2000/svg"><path fill-rule="evenodd" clip-rule="evenodd" d="M9.622 28.2a14.277 14.277 0 011.912-6.4h6.408c-.427 1.942-.685 4.111-.733 6.4H9.622zm20.83-8a20.407 20.407 0 00-.79-2.258c-.446-1.062-.967-2.002-1.558-2.77a14.474 14.474 0 017.271 4.869l1.25-.999a16.048 16.048 0 00-11.925-6.03 3.599 3.599 0 00-.41-.01 16.59 16.59 0 00-.234-.002C15.191 13 8 20.16 8 29s7.191 16 16.056 16v-.017c.114.011.228.017.344.017 1.16 0 2.193-.561 3.058-1.43.862-.866 1.601-2.078 2.205-3.511.292-.696.557-1.452.79-2.259H32.8l2-1.6h-3.942c.427-1.942.685-4.111.733-6.4H32.8v-1.6h-1.208c-.05-2.289-.307-4.458-.734-6.4H34.4l.8-1.6h-4.747zm-.46 8c-.053-2.327-.33-4.5-.775-6.4h-9.634c-.445 1.9-.722 4.073-.774 6.4H29.99zm0 1.6H18.808c.052 2.327.329 4.5.774 6.4h9.634c.445-1.9.722-4.073.774-6.4zm-1.21 8h-8.764c.181.582.38 1.13.594 1.638.554 1.316 1.194 2.33 1.864 3.003.666.67 1.316.959 1.924.959.608 0 1.258-.29 1.924-.959.67-.673 1.31-1.687 1.864-3.003a17.99 17.99 0 00.594-1.638zm-4.188-23.19c-.095-.004-.19-.006-.285-.008-.582.028-1.2.32-1.833.957-.67.673-1.31 1.687-1.864 3.003a18.178 18.178 0 00-.594 1.638h8.764a17.99 17.99 0 00-.594-1.638c-.554-1.317-1.194-2.33-1.864-3.003-.596-.6-1.179-.894-1.73-.95zM9.622 29.8h7.587c.048 2.289.306 4.458.733 6.4h-6.408a14.277 14.277 0 01-1.912-6.4zm2.99 8h5.735c.233.807.498 1.563.79 2.259.491 1.166 1.072 2.185 1.735 2.99a14.465 14.465 0 01-8.26-5.249zm0-17.6a14.465 14.465 0 018.26-5.25c-.663.806-1.244 1.826-1.735 2.992a20.407 20.407 0 00-.79 2.258h-5.734z" fill="#B6B6B6"/><path d="M43.42 21h-.84c-1.677.139-5.283 1.333-6.29 5-1.006 3.667.979 7.361 2.097 8.75.28.278.839 1 .839 1.667 0 .666-.56 1.389-.839 1.666L34.193 41l-2.096 1.667c-.42.416-1.342 1.5-1.678 2.5-.335 1-.419 3.194-.419 4.166 0 .556.335 1.667 1.677 1.667h22.646C55.664 51 56 49.889 56 49.333c0-.972-.084-3.166-.42-4.166-.335-1-1.257-2.084-1.677-2.5L51.807 41l-4.194-2.917c-.28-.277-.839-1-.839-1.666 0-.667.56-1.39.839-1.667 1.118-1.389 3.103-5.083 2.097-8.75-1.007-3.667-4.613-4.861-6.29-5z" stroke="#E93030" stroke-width="2"/></svg>