<svg width="80" height="80" fill="none" xmlns="http://www.w3.org/2000/svg"><path d="M54.846 33H61a3 3 0 013 3v26a3 3 0 01-3 3H19a3 3 0 01-3-3V36a3 3 0 013-3h22.504" stroke="#E93030" stroke-width="2"/><path fill="#E93030" d="M21.5 57h14v2h-14zm.039-5h5.5v2h-5.5zm9.231 0h5.5v2h-5.5zM40 52h5.5v2H40zm9.23 0h5.5v2h-5.5z"/><path d="M41.414 46.874h-14.92l1.19 1.243 13.73-1.243z" fill="#BF0000"/><path fill-rule="evenodd" clip-rule="evenodd" d="M27.878 42.04v-.186h.922v4.227h-.922v-.186c-.268.186-.521.295-.863.295-1.056 0-1.845-.995-1.845-2.222 0-1.228.804-2.223 1.845-2.223.342 0 .58.109.863.295zm-1.756 1.928c0 .668.372 1.196.893 1.196.505 0 .877-.528.877-1.196 0-.669-.357-1.197-.877-1.197s-.893.528-.893 1.197z" fill="#BF0000"/><path d="M35.24 41.853v2.487c0 .466-.312.855-.758.855s-.758-.389-.758-.855v-2.487H32.8v2.487c0 1.026.67 1.85 1.651 1.85.447 0 .789-.264.789-.264v.155h.922v-4.228h-.922zm8.569 4.228v-2.486c0-.467.312-.855.759-.855.446 0 .758.388.758.855v2.486h.922v-2.486c0-1.026-.669-1.85-1.65-1.85-.447 0-.789.264-.789.264v-.155h-.922v4.227h.922z" fill="#BF0000"/><path fill-rule="evenodd" clip-rule="evenodd" d="M22.523 44.465v1.632h-.967v-5.285h1.591c.952 0 1.74.809 1.74 1.819 0 .622-.282 1.166-.728 1.492l1.428 1.974h-1.205l-1.175-1.632h-.684zm.625-2.658h-.625v1.648h.625c.43 0 .788-.373.788-.824 0-.45-.357-.824-.788-.824z" fill="#BF0000"/><path d="M38.632 45.102a.546.546 0 01-.312.109c-.15 0-.432-.124-.432-.513V42.88h.789v-1.01h-.789v-1.057h-.922v1.056h-.49v1.01h.49v1.819c0 .948.684 1.508 1.368 1.508.253 0 .61-.094.893-.265l-.595-.839zm-7.556-1.274l1.577-1.974h-1.28l-1.115 1.476v-2.89h-.937v5.641h.937v-1.74l1.368 1.74h1.28l-1.83-2.253z" fill="#BF0000"/><path fill-rule="evenodd" clip-rule="evenodd" d="M38.93 43.968c0-1.244.758-2.223 1.83-2.223 1.04 0 1.993.995 1.74 2.502h-2.648c.119.98 1.175 1.461 1.8.498l.818.497c-.52.777-1.13.948-1.621.948-.967 0-1.92-.917-1.92-2.222zm2.633-.544h-1.651c.193-.995 1.472-1.057 1.65 0z" fill="#BF0000"/><path d="M43 20l-4.348 6.333-.87 1.81s-.165.766-.282 1.857c-.064.594-.133 1-.133 2M46 22s-1.8 3.5-4.5 6.125c-.5.375-.714 2.375-.714 3.875" stroke="#B6B6B6" stroke-width="1.8"/><path d="M38 13.1l-.636-.636.636.636zm-7.2 7.2l-.636-.637.636.637zm2.7 8.15l-.803-.406-.097.192v.215h.9zm1.8-5.225l-.282-.855-.427.141-.144.427.853.287zm5.4 15.119l.803-.406-.803.406zm7.2-4.447l-.633-.64-.063.063-.05.074.746.503zm6.3-3.557l-.33-.837.33.837zM41.1 9.65c-1.796 1.198-3.066 2.142-3.736 2.813l1.272 1.272c.53-.529 1.66-1.385 3.463-2.587l-.998-1.498zm-3.736 2.813l-7.2 7.2 1.272 1.272 7.2-7.2-1.272-1.273zm-7.2 7.2c-1.38 1.38-2.064 3.113-2.064 5.136h1.8c0-1.578.516-2.844 1.536-3.864l-1.272-1.273zM28.1 24.8V32h1.8v-7.2h-1.8zm6.3 7.2v-3.549h-1.8V32h1.8zm-.097-3.143c.48-.949.723-1.64.96-2.427.233-.78.446-1.602.89-2.917l-1.706-.575c-.456 1.352-.693 2.254-.91 2.975a11.732 11.732 0 01-.84 2.131l1.606.813zm1.279-4.777c2.74-.902 4.62-1.826 5.91-2.357 1.357-.558 1.904-.609 2.41-.359l.797-1.614c-1.295-.64-2.548-.245-3.892.308-1.41.58-3.129 1.436-5.789 2.312l.564 1.71zm8.32-2.716c1.152.57 2.184 2.564.495 5.902l1.606.812c1.911-3.777 1.142-7.119-1.304-8.328l-.798 1.614zm.495 5.902c-.414.818-.995 1.657-1.64 2.545-.631.867-1.335 1.794-1.918 2.716-1.15 1.82-2.075 3.985-.942 6.223l1.606-.812c-.667-1.32-.242-2.711.858-4.449.542-.857 1.189-1.708 1.851-2.62.648-.89 1.305-1.83 1.791-2.79l-1.606-.813zm-4.5 11.484c.365.723.913 1.326 1.712 1.524.783.193 1.564-.065 2.264-.497 1.379-.852 2.97-2.704 4.773-5.376l-1.492-1.007c-1.797 2.664-3.206 4.22-4.227 4.851-.5.309-.769.31-.886.281-.1-.025-.303-.125-.538-.588l-1.606.812zm8.636-4.212c1.066-1.055 3.026-2.187 5.998-3.361l-.662-1.674c-3.029 1.197-5.268 2.437-6.602 3.754l1.266 1.28zm5.998-3.361c4.897-1.936 5.952-5.925 6.772-7.545l-1.606-.813c-.98 1.937-1.725 5.062-5.828 6.684l.662 1.674zm6.772-7.545c.452-.894 1.108-2.188 1.866-3.366.379-.588.772-1.129 1.165-1.568.4-.446.76-.741 1.065-.891l-.798-1.614c-.596.295-1.135.778-1.607 1.304a14.38 14.38 0 00-1.338 1.795c-.817 1.267-1.511 2.642-1.959 3.527l1.606.813z" fill="#B6B6B6"/><path d="M12 24l6.5 4.5M18 16l5 8.5" stroke="#B6B6B6" stroke-width="2"/></svg>