<svg width="80" height="80" fill="none" xmlns="http://www.w3.org/2000/svg"><path fill-rule="evenodd" clip-rule="evenodd" d="M14 14a3 3 0 00-3 3v37a3 3 0 003 3h52a3 3 0 003-3V17a3 3 0 00-3-3H14zm-5 3a5 5 0 015-5h52a5 5 0 015 5v37a5 5 0 01-5 5H14a5 5 0 01-5-5V17z" fill="#B6B6B6"/><path d="M70 50H10v2h60v-2zM35 61h-2v6h2v-6zm12 0h-2v6h2v-6z" fill="#B6B6B6"/><path d="M55 66H25a1 1 0 100 2h30a1 1 0 100-2z" fill="#B6B6B6"/><path fill-rule="evenodd" clip-rule="evenodd" d="M37.095 31a.651.651 0 00-.651.651v1.712l-1.465-.852a.65.65 0 00-.892.239.66.66 0 00.241.898l1.465.852-1.465.852a.66.66 0 00-.24.898.65.65 0 00.891.239l1.465-.852v1.712a.651.651 0 101.302 0v-1.712l1.464.852a.65.65 0 00.892-.239.66.66 0 00-.24-.898l-1.465-.852 1.464-.852a.66.66 0 00.241-.898.65.65 0 00-.892-.239l-1.464.852v-1.712a.651.651 0 00-.651-.651zm7.937 0a.651.651 0 00-.651.651v1.712l-1.465-.852a.65.65 0 00-.891.239.66.66 0 00.24.898l1.465.852-1.465.852a.66.66 0 00-.24.898.65.65 0 00.891.239l1.465-.852v1.712a.651.651 0 101.302 0v-1.712l1.464.852a.65.65 0 00.892-.239.66.66 0 00-.24-.898l-1.465-.852 1.464-.852a.66.66 0 00.24-.898.65.65 0 00-.89-.239l-1.465.852v-1.712a.651.651 0 00-.651-.651zm7.286.651a.651.651 0 111.302 0v1.712l1.464-.852a.65.65 0 01.892.239.66.66 0 01-.24.898l-1.465.852 1.464.852a.66.66 0 01.24.898.65.65 0 01-.89.239l-1.465-.852v1.712a.651.651 0 11-1.302 0v-1.712l-1.465.852a.65.65 0 01-.892-.239.66.66 0 01.241-.898l1.465-.852-1.465-.852a.66.66 0 01-.24-.898.65.65 0 01.891-.239l1.465.852v-1.712zM60.906 31a.651.651 0 00-.651.651v1.712l-1.465-.852a.65.65 0 00-.892.239.66.66 0 00.241.898l1.464.852-1.464.852a.66.66 0 00-.24.898.65.65 0 00.891.239l1.465-.852v1.712a.651.651 0 101.302 0v-1.712l1.464.852a.65.65 0 00.892-.239.66.66 0 00-.24-.898l-1.465-.852 1.464-.852a.66.66 0 00.24-.898.65.65 0 00-.89-.239l-1.465.852v-1.712a.651.651 0 00-.651-.651zM17.5 40.5h12v-9h-12v9zm12-10.5h-12a1.5 1.5 0 00-1.5 1.5v9a1.5 1.5 0 001.5 1.5h12a1.5 1.5 0 001.5-1.5v-9a1.5 1.5 0 00-1.5-1.5zm-9.7-3.5c0-1.654 1.346-3 3-3h1.4c1.654 0 3 1.346 3 3v2h1.5v-2c0-2.475-2.025-4.5-4.5-4.5h-1.4a4.513 4.513 0 00-4.5 4.5v2h1.5v-2z" fill="#E93030"/><path fill-rule="evenodd" clip-rule="evenodd" d="M22.75 35.792v2.458h1.5v-2.458c.447-.26.75-.738.75-1.292a1.5 1.5 0 00-3 0c0 .554.303 1.032.75 1.292" fill="#E93030"/></svg>