<svg data-name="レイヤー 1" xmlns="http://www.w3.org/2000/svg" viewBox="0 0 48 48"><g data-name="silvercard pc"><g data-name="logo line"><g data-name="LINE SOCIAL Circle RGB"><circle cx="24" cy="24" r="24" fill="#00b900"/><g data-name="TYPE A"><path d="M39.46 22.14c0-7-7-12.76-15.71-12.76S8 15.12 8 22.14c0 6.3 5.59 11.58 13.14 12.58.51.11 1.21.33 1.39.78a3.25 3.25 0 01.05 1.42l-.22 1.35c-.08.39-.32 1.55 1.35.84s9.08-5.32 12.37-9.11a11.33 11.33 0 003.37-7.84" fill="#fff"/><path d="M20.56 18.75h-1.12a.27.27 0 00-.21.09.31.31 0 00-.09.22v6.84a.3.3 0 00.3.31h1.1a.31.31 0 00.31-.31v-6.84a.31.31 0 00-.31-.31m7.6 0h-1.09a.29.29 0 00-.22.09.31.31 0 00-.09.22v4.06l-3.15-4.23h-1.26a.3.3 0 00-.22.08.31.31 0 00-.09.22V26a.3.3 0 00.31.3h1.1a.3.3 0 00.31-.3v-4.16l3.15 4.24a.3.3 0 00.08.08h1.13a.31.31 0 00.31-.31v-6.79a.31.31 0 00-.31-.31M17.9 24.5h-3v-5.44a.36.36 0 00-.09-.22.31.31 0 00-.22-.09H13.5a.31.31 0 00-.31.31v6.84a.31.31 0 00.09.22.3.3 0 00.2.08h4.41a.31.31 0 00.22-.09.26.26 0 00.08-.21v-1.11a.26.26 0 00-.08-.21.31.31 0 00-.22-.09m16.34-4.02a.31.31 0 00.31-.31v-1.1a.31.31 0 00-.31-.31h-4.4a.27.27 0 00-.21.09.27.27 0 00-.09.2v6.85a.27.27 0 00.09.21.27.27 0 00.21.09h4.4a.31.31 0 00.31-.31v-1.1a.31.31 0 00-.31-.31h-3v-1.15h3a.27.27 0 00.21-.09.31.31 0 00.09-.22v-1.1a.3.3 0 00-.3-.31h-3v-1.15z" fill="#00b900"/></g></g></g></g></svg>