<svg width="80" height="80" fill="none" xmlns="http://www.w3.org/2000/svg"><path fill-rule="evenodd" clip-rule="evenodd" d="M11 11v8h2v-6h5v-2h-7zm56 2v6h2v-8h-8v2h6zm0 54h-6v2h8v-7h-2v5zm-54 0h5v2h-7v-7h2v5z" fill="#B6B6B6"/><path d="M45.66 39.522c-.66-1.022.095-1.111.482-1.514 2.532-2.701 3.798-4.98 3.798-11.058a10.51 10.51 0 00-10.942-10.94A10.51 10.51 0 0028.06 26.95c0 6.077 1.266 8.357 3.799 11.058a1.804 1.804 0 01-.42 2.822C28.06 43.5 25.687 44.588 23 47c-2.734 2.734-3.828 6.548-4 12.358" stroke="#B6B6B6" stroke-width="2"/><path d="M64 52c0 6.075-4.925 11-11 11s-11-4.925-11-11 4.925-11 11-11 11 4.925 11 11z" stroke="#E93030" stroke-width="2"/><path d="M48 51l4 4 7-6" stroke="#E93030" stroke-width="2"/></svg>