<svg width="80" height="80" fill="none" xmlns="http://www.w3.org/2000/svg"><path d="M39.008 44C38.842 39.011 41.207 30 52 30c10.793 0 13.159 9.333 12.992 14M59 63c1.818-.938 5.564-4.05 6-9m-8.857 8h-4.286C50.28 62 49 63.12 49 64.5s1.28 2.5 2.857 2.5h4.286C57.72 67 59 65.88 59 64.5S57.72 62 56.143 62zM37.902 43c.567 0 1.033.418 1.058.949l.04.795v8.512c0 1.272-.321 1.67-1.029 1.744h-.074c-3.533 0-6.397-2.686-6.397-6s2.864-6 6.397-6h.005zm28.196 0c-.576 0-1.05.428-1.069.968l-.029.776v8.512c0 1.272.321 1.67 1.029 1.744h.074c3.533 0 6.397-2.686 6.397-6s-2.864-6-6.397-6h-.005z" stroke="#E93030" stroke-width="2"/><path d="M34 39h-7l-3 5-3-5h-9a3 3 0 01-3-3V17a3 3 0 013-3h29a3 3 0 013 3v9" stroke="#B6B6B6" stroke-width="2"/><path fill-rule="evenodd" clip-rule="evenodd" d="M17 25h3v3h-3v-3zm7 0h3v3h-3v-3zm10 0h-3v3h3v-3z" fill="#B6B6B6"/></svg>