<svg width="64" height="64" fill="none" xmlns="http://www.w3.org/2000/svg"><path d="M28 36.8H12.4a2 2 0 01-2-2V16.4a2 2 0 012-2h26.4a2 2 0 012 2V24" stroke="#B6B6B6" stroke-width="2"/><path fill="#B6B6B6" d="M10.4 31.2h20v1.6h-20zm7.201 9.6h10.4v1.6h-10.4z"/><path fill="#B6B6B6" d="M22.4 37.6H24v4.8h-1.6z"/><path d="M52.375 36.717l.199.74h1.596a.834.834 0 01.83.83v1.825a.834.834 0 01-.83.83h-1.596l-.2.741a9.436 9.436 0 01-.93 2.251l-.38.664.54.541.585.584v.002a.834.834 0 010 1.174s0 0 0 0l-1.29 1.29s0 0 0 0a.834.834 0 01-1.174 0h-.001l-.584-.585-.542-.541-.664.381a9.427 9.427 0 01-2.25.93l-.74.2v1.596a.834.834 0 01-.831.83h-1.825a.834.834 0 01-.83-.83v-1.597l-.741-.199a9.426 9.426 0 01-2.25-.93l-.664-.381-.542.541-.584.584v.001a.834.834 0 01-1.175 0s0 0 0 0l-1.29-1.29s0 0 0 0a.834.834 0 010-1.175s0 0 0 0l.584-.584.542-.542-.382-.664a9.447 9.447 0 01-.93-2.25l-.2-.741H32.23a.834.834 0 01-.83-.83v-1.825a.834.834 0 01.83-.83h1.597l.199-.741a9.445 9.445 0 01.93-2.251l.382-.664-.542-.541-.584-.585s0 0 0 0a.834.834 0 010-1.175s0 0 0 0l1.289-1.29s0 0 0 0a.835.835 0 011.175 0h.001l.584.585.541.541.664-.381a9.435 9.435 0 012.251-.93l.74-.2V28.23a.834.834 0 01.83-.83h1.826a.834.834 0 01.83.83v1.597l.74.199a9.435 9.435 0 012.252.93l.663.381.542-.541.584-.584v-.001a.835.835 0 011.175 0h.001l1.288 1.29h.002a.834.834 0 010 1.175h-.002l-.584.585-.54.54.38.665a9.44 9.44 0 01.93 2.25z" stroke="#E93030" stroke-width="2"/><path d="M37.8 39.2a5.4 5.4 0 1110.8 0 5.4 5.4 0 01-10.8 0z" stroke="#E93030" stroke-width="2"/></svg>