<svg data-name="レイヤー 1" xmlns="http://www.w3.org/2000/svg" viewBox="0 0 48 48"><g data-name="silvercard pc"><g data-name="logo twitter"><g data-name="Twitter Social Icon Circle Color"><circle cx="24" cy="24" r="24" fill="#1da1f2" data-name="Dark Blue"/><path d="M18.79 35.62C29.27 35.62 35 26.94 35 19.41v-.73a11.76 11.76 0 002.85-2.95 11.81 11.81 0 01-3.27.9 5.67 5.67 0 002.5-3.16 11.51 11.51 0 01-3.61 1.38 5.7 5.7 0 00-9.85 3.9 5 5 0 00.15 1.3A16.12 16.12 0 0112 14.1a5.68 5.68 0 001.77 7.59A5.65 5.65 0 0111.2 21v.07a5.7 5.7 0 004.58 5.58 5.71 5.71 0 01-1.5.2 5.57 5.57 0 01-1.08-.1 5.69 5.69 0 005.32 4 11.48 11.48 0 01-7.08 2.43 12.26 12.26 0 01-1.36-.08 15.91 15.91 0 008.71 2.57" fill="#fff" data-name="Logo — FIXED"/></g></g></g></svg>