<svg width="80" height="80" fill="none" xmlns="http://www.w3.org/2000/svg"><path fill-rule="evenodd" clip-rule="evenodd" d="M25 16H15a1 1 0 00-1 1v46a1 1 0 001 1h10a1 1 0 001-1V17a1 1 0 00-1-1zm-10-2a3 3 0 00-3 3v46a3 3 0 003 3h10a3 3 0 003-3V17a3 3 0 00-3-3H15z" fill="#B6B6B6"/><path fill-rule="evenodd" clip-rule="evenodd" d="M45 42H35a1 1 0 00-1 1v20a1 1 0 001 1h10a1 1 0 001-1V43a1 1 0 00-1-1zm-10-2a3 3 0 00-3 3v20a3 3 0 003 3h10a3 3 0 003-3V43a3 3 0 00-3-3H35zm30 2H55a1 1 0 00-1 1v20a1 1 0 001 1h10a1 1 0 001-1V43a1 1 0 00-1-1zm-10-2a3 3 0 00-3 3v20a3 3 0 003 3h10a3 3 0 003-3V43a3 3 0 00-3-3H55z" fill="#EC4848"/><path fill-rule="evenodd" clip-rule="evenodd" d="M33 18a1 1 0 112 0v5h28.586l-3.293-3.293a1 1 0 011.414-1.414L67.414 24l-5.707 5.707a1 1 0 01-1.414-1.414L63.586 25H35v5a1 1 0 11-2 0V18z" fill="#B6B6B6"/></svg>