<svg width="80" height="80" fill="none" xmlns="http://www.w3.org/2000/svg"><path d="M71 58.2c0 1.197-.27 2.157-.748 2.793-.445.593-1.147 1.007-2.298 1.007H12.046c-1.15 0-1.853-.414-2.298-1.007C9.269 60.357 9 59.397 9 58.2V56h62v2.2zM68 52V39M12 52V22a4 4 0 014-4h32.69" stroke="#B6B6B6" stroke-width="2"/><path fill-rule="evenodd" clip-rule="evenodd" d="M60.542 18c-4.348 0-7.93 3.148-8.554 7.226l-1.977-.302C50.785 19.86 55.215 16 60.542 16c4.152 0 7.754 2.343 9.51 5.769l-1.779.912C66.851 19.908 63.927 18 60.543 18zm0 17c4.196 0 7.68-2.932 8.478-6.802l1.96.404C69.988 33.404 65.683 37 60.541 37a10.681 10.681 0 01-8.891-4.718l1.661-1.114A8.682 8.682 0 0060.542 35z" fill="#E93030"/><path d="M50.213 28.465l7.988 2.109-7.298 6.123-.69-8.232zm21.574-2.93l-7.988-2.109 7.298-6.123.69 8.232z" fill="#E93030"/><path d="M28.588 30L25 35.319 21.412 30H19l3.373 5H19v2h4.722l.278.413V39h-5v2h5v4h2v-4h5v-2h-5v-1.587l.278-.413H31v-2h-3.373L31 30h-2.412zM36 31h8v2h-8zm0 6h8v2h-8zm0 6h18v2H36z" fill="#B6B6B6"/></svg>