<svg xmlns="http://www.w3.org/2000/svg" width="50" height="50" viewBox="0 0 50 50"><path d="M7.9 0h34.2c4.4 0 7.9 3.5 7.9 7.9v34.2c0 4.4-3.5 7.9-7.9 7.9h-34.2c-4.4 0-7.9-3.5-7.9-7.9v-34.2c0-4.4 3.5-7.9 7.9-7.9z" fill="#fff"/><g fill="#bf0000"><path d="M11.5 38.6c-.7.5-1.6.9-1.8 1l-.3-1c1-.3 1.6-.7 1.8-.9l.3.9zm1.2.7h-1.1v-3.4h.9c0-.1 0-.2.2-.5h1.1c0 .2-.1.3-.2.5h1.3v3.4h-1.2v.4h3.2v.9h-2.4c.5.4 1.4.8 2.6 1.2l-.6.9c-.4-.2-1.7-.8-2.8-1.8v1.9h-1v-1.8c-1 .9-2.1 1.4-2.8 1.7l-.5-1c1.5-.4 2.3-1 2.6-1.2h-2.5v-.9h3.2v-.4zm-2.7-3.6c.5.2 1 .6 1.4.9l-.6.8c-.4-.4-.8-.7-1.4-1l.5-.8zm2.4 1v.6h1.5v-.6h-1.5zm0 1.2v.6h1.5v-.6h-1.5zm2.9-.4c.4.2 1.1.6 1.7 1.1l-.6.9c-.3-.3-.7-.7-1.6-1.2l.5-.8zm1.5-1.2c-.3.4-.9.9-1.3 1.2l-.6-.7c.8-.6 1.1-.9 1.2-1.1l.7.6zM20.5 38.3v-1.6h-3.2v-.9h7.4v.9h-3.2v1.6h3v.9h-2.8c.4 1.3 1.7 2.2 3.1 2.7l-.6 1c-1.6-.7-2.7-1.8-3.2-2.9-.7 1.6-2.1 2.5-3.3 3l-.6-1c1.4-.4 2.6-1.2 3.1-2.7h-2.7v-.9h2.9zM28.4 42.4c-.5.1-2 .3-3 .5v-.9c.1 0 .4 0 1.2-.1v-2h-1.3v-.9h1.3v-.6h-.7v-.5l-.4.3-.3-1c.7-.5 1.1-.9 1.4-1.7h1c.4.6.6 1 1.2 1.4l-.5.8h-.1v.6h-.7v.6h1.2v.9h-1.2v1.9c.2 0 1.1-.2 1.2-.2v.5h.3v-6.2h3.6v3.7h-1.4c0 .2 0 .5.2.9.5-.3.7-.6.9-.8l.6.8c-.1.1-.5.4-1.1.8.4.6.8.9 1.2 1.2l-.6.9c-.5-.3-1.7-1.2-2-3.7h-.4v2.4c.6-.1.8-.2 1.1-.2v.9c-1.1.3-2.1.4-2.4.5v-.5zm-2.3-2.3c0 .3.2.9.2 1.4h-.7c0-.5-.2-1.1-.2-1.2h.7zm1.8-2.7c-.4-.4-.7-.8-.9-1.1-.2.3-.3.6-.8 1.1h1.7zm.5 2.6c0 .4-.1.8-.2 1.2h-.6c.1-.6.2-.9.2-1.3h.7zm1.3-3.5v.6h1.8v-.6h-1.8zm0 1.4v.6h1.8v-.6h-1.8zM35.6 35.7c-.3.6-1 1.6-2 2.3l-.5-1c.3-.2 1-.6 1.6-1.6l.9.3zm.2 1.7c-.1.3-.3.7-.9 1.4v4.1h-1v-2.9c-.3.3-.4.3-.6.5l-.3-1.1c.8-.6 1.5-1.4 1.9-2.3l.8.4zm4.8.5v1h-1.2v3.3c0 .5-.2.7-.8.7h-1.6l-.2-1h1.3c.2 0 .3 0 .3-.2v-2.7h-2.7v-1h4.9zm-.3-2.2v.9h-4.2v-.9h4.2z"/></g><g fill="#bf0000"><path d="M18.5 32.3l-3.4-2.8h23.5l-20.1 2.8zM22.3 27.4v-6.2h2.7l4.7 6.2h4.8l-5.6-7.5c1.8-1.3 2.9-3.3 2.9-5.6 0-3.8-3.1-6.9-6.9-6.9h-6.3v20h3.8zm0-16.3h2.5c1.7 0 3.1 1.4 3.1 3.1s-1.4 3.1-3.1 3.1h-2.5v-6.2z"/></g></svg>