<?xml version="1.0" encoding="utf-8"?>
<!-- Generator: Adobe Illustrator 22.1.0, SVG Export Plug-In . SVG Version: 6.00 Build 0)  -->
<svg version="1.1" id="Layer_1" xmlns="http://www.w3.org/2000/svg" xmlns:xlink="http://www.w3.org/1999/xlink" x="0px" y="0px"
	 viewBox="0 0 800 800" style="enable-background:new 0 0 800 800;" xml:space="preserve">
<style type="text/css">
	.st0{fill:#BF0000;}
	.st1{fill:#FFFFFF;}
	.st2{fill:#403D3E;}
	.st3{fill:#FFCC00;}
</style>
<g>
	<path class="st0" d="M673.3,800H126.7C56.7,800,0,743.3,0,673.3V126.7C0,56.7,56.7,0,126.7,0h546.7C743.3,0,800,56.7,800,126.7
		v546.7C800,743.3,743.3,800,673.3,800z"/>
	<g>
		<path class="st1" d="M691.7,616.7H108.3c-13.8,0-25-11.2-25-25V208.3c0-13.8,11.2-25,25-25h583.3c13.8,0,25,11.2,25,25v383.3
			C716.7,605.5,705.5,616.7,691.7,616.7z"/>
		<g>
			<path class="st2" d="M157.7,550v-44.3h-7.6v-9.6h17.9V550H157.7z"/>
			<path class="st2" d="M200.2,540.9c1.7-5.1,6.6-11.8,12.2-16.6l3.6-3.1c6.1-5.3,7.8-7.6,7.8-10.6c0-3.6-2.9-6-7.1-6
				c-4.2,0-7.6,2.3-9.4,6.5l-7.7-5.7c3.4-6.6,9.6-10.4,17-10.4c10.7,0,18.1,6.3,18.1,15.2c0,5.1-2.7,9.2-11.6,17l-3.1,2.8
				c-3.9,3.5-6.8,7.1-8.4,10.3h23.5v9.6h-34.9L200.2,540.9C200.2,540.9,200.2,540.9,200.2,540.9z"/>
			<path class="st2" d="M276.1,517.7c7.3,0,10.9-2.4,10.9-7.1c0-3.7-3.1-6.2-7.5-6.2c-4,0-7.5,2.4-9.5,6.4l-8.1-5
				c3.6-7.3,9.7-11,18.1-11c10.9,0,18,6.2,18,15.4c0,6.2-3,10.1-9,12.1c6.5,1.4,10.5,6.3,10.5,12.8c0,10-7.5,16.1-19.6,16.1
				c-8.6,0-14.2-2.9-18.6-9.7l6.9-6.4c2.7,4.3,6.6,6.4,11.4,6.4c5.1,0,8.9-3,8.9-7.1c0-4.7-4.4-7.1-12.5-7.1h-4v-9.6H276.1z"/>
			<path class="st2" d="M357.7,538.9V550h-10.3v-11.1h-22.8v-9.4l18.7-33.4h14.4v33.4h6.4v9.4H357.7z M335.8,529.5h11.6v-21.8
				L335.8,529.5z"/>
			<path class="st2" d="M460.2,496.1v9.6h-22.4V517c2.3-1.6,4.7-2.3,8.1-2.3c10.3,0,17.4,7.1,17.4,17.7c0,11.5-7.8,19-19.7,19
				c-7.9,0-13.2-3.2-16.8-10.3l7.3-5.8c2.1,4.2,5.5,6.6,9.6,6.6c5.3,0,8.6-3.4,8.6-8.9c0-5.1-3.4-8.6-8.2-8.6
				c-3.2,0-5.9,1.3-7.5,3.6l-9.2-2.2v-29.6L460.2,496.1L460.2,496.1z"/>
			<path class="st2" d="M517.3,509.5c-2.1-3.8-4.2-5.2-7.7-5.2c-6,0-10,5.5-10.1,14.1c2.1-2.6,5.8-4.3,9.8-4.3
				c10.1,0,17.3,7.5,17.3,18.1c0,11.4-7.4,19-18.5,19c-12.6,0-19.2-9.3-19.2-27.2c0-18.7,7.5-29.4,20.7-29.4c6.6,0,12.1,3,15.4,8.6
				L517.3,509.5z M500.3,532.4c0,5.7,3,9.4,7.9,9.4c4.6,0,7.5-3.6,7.5-9.4c0-5.4-3-9-7.6-9C503.5,523.3,500.3,527,500.3,532.4z"/>
			<path class="st2" d="M586.8,503.3c-6.5,16.2-10.7,29.2-15.2,46.7h-11.1c4.1-15.1,8.8-29.3,14.5-44.3h-23.4v-9.6h35.2V503.3z"/>
			<path class="st2" d="M650.1,536c0,9.1-7.9,15.4-19.2,15.4c-11.4,0-19.2-6.3-19.2-15.5c0-6.5,2.8-11,8.5-13.4
				c-4.5-2.4-7-7.1-7-12.7c0-8.8,7.3-15.1,17.7-15.1c10.4,0,17.7,6.2,17.7,15.1c0,5.7-2.5,10.3-7,12.7
				C647.2,524.9,650.1,529.4,650.1,536z M622.5,535.2c0,3.9,3.4,6.6,8.3,6.6c4.9,0,8.3-2.7,8.3-6.6c0-4.5-2.8-7.2-8.3-8.1
				C625.4,527.9,622.5,530.7,622.5,535.2z M637.7,510.3c0-3.6-2.9-6-6.9-6c-4.1,0-6.9,2.5-6.9,6.2c0,3.9,2,6,6.9,7.2
				C635.8,516.5,637.7,514.4,637.7,510.3z"/>
		</g>
		<g>
			<g>
				<rect x="316.7" y="300" class="st3" width="50" height="50"/>
				<path class="st3" d="M316.7,366.7v50h25c13.8,0,25-11.2,25-25v-25H316.7z"/>
			</g>
			<g>
				<rect x="166.7" y="300" class="st3" width="49.9" height="50"/>
				<path class="st3" d="M166.7,366.7v25c0,13.8,11.2,25,25,25h24.9v-50H166.7z"/>
			</g>
			<path class="st3" d="M341.7,233.3H233.3l0,0l0,0v183.3H300V283.3h66.7v-25C366.7,244.5,355.5,233.3,341.7,233.3z"/>
			<path class="st3" d="M216.7,233.3h-24.9c-13.8,0-25,11.2-25,25v25h49.9V233.3L216.7,233.3z"/>
		</g>
		<g>
			<g>
				<polygon class="st0" points="522.3,400 500,381.3 656.6,381.3 				"/>
				<path class="st0" d="M547.8,367.2v-41.5h18l31.1,41.5h31.8l-37.6-50.1c11.7-8.4,19.4-22.1,19.4-37.6c0-25.5-20.7-46.2-46.2-46.2
					h-42v133.9H547.8z M547.8,258.7h16.6c11.4,0,20.8,9.3,20.8,20.7c0,11.5-9.3,20.8-20.8,20.8h-16.6V258.7z"/>
			</g>
		</g>
	</g>
</g>
</svg>
