<svg width="64" height="64" viewBox="0 0 64 64" fill="none" xmlns="http://www.w3.org/2000/svg">
<path fill-rule="evenodd" clip-rule="evenodd" d="M45.0033 7.5227L44.3373 6.62678L43.703 7.54544C41.2667 11.0738 37.1735 12.9184 31.2 12.9184H30.4V13.7184H31.2C30.4 13.7184 30.4 13.7191 30.4 13.7194L30.4 13.7208L30.4 13.725L30.4001 13.7391L30.4007 13.7888C30.4013 13.8314 30.4026 13.8928 30.405 13.9717C30.41 14.1294 30.4197 14.3573 30.439 14.6454C30.4775 15.2214 30.5541 16.0396 30.7069 17.0199C31.0119 18.9765 31.6233 21.5998 32.854 24.2379L34.304 23.5615C33.1557 21.0999 32.5776 18.6325 32.2878 16.7734C32.1433 15.8459 32.0712 15.0749 32.0354 14.5387L32.0333 14.5067C37.4807 14.3515 41.6482 12.6544 44.3816 9.30432C47.4081 12.8129 51.8272 14.4834 57.4994 14.4184C57.4524 14.7729 57.3871 15.2226 57.2986 15.7491C57.0652 17.1375 56.6722 19.0541 56.0342 21.1652C54.7499 25.415 52.5099 30.3275 48.7002 33.3753L49.6998 34.6247C53.89 31.2724 56.2501 25.9816 57.5658 21.628C58.2278 19.4373 58.6348 17.4523 58.8764 16.0143C58.9974 15.2948 59.0771 14.7108 59.1269 14.3048C59.1517 14.1017 59.1691 13.9431 59.1803 13.8341C59.186 13.7796 59.1901 13.7376 59.1928 13.7086L59.1959 13.675L59.197 13.6629L59.1971 13.6615L59.2748 12.7543L58.3651 12.7939C52.167 13.0643 47.7801 11.2579 45.0033 7.5227ZM58.4 13.5932C59.1971 13.6615 59.1971 13.6611 59.1971 13.6615L58.4 13.5932ZM43.8659 24.2688L50.7673 17.3656L49.6358 16.2344L43.8685 22.0032L40.087 18.2037L38.953 19.3323L43.8659 24.2688Z" fill="#B6B6B6"/>
<path fill-rule="evenodd" clip-rule="evenodd" d="M8.8 28H44C44.8837 28 45.6 28.7163 45.6 29.6V50.4C45.6 51.2837 44.8837 52 44 52H8.8C7.91634 52 7.2 51.2837 7.2 50.4V29.6C7.2 28.7163 7.91634 28 8.8 28ZM5.6 29.6C5.6 27.8327 7.03269 26.4 8.8 26.4H44C45.7673 26.4 47.2 27.8327 47.2 29.6V50.4C47.2 52.1673 45.7673 53.6 44 53.6H8.8C7.03269 53.6 5.6 52.1673 5.6 50.4V29.6ZM24 46.4H11.2V48H24V46.4ZM11.2 42.4H16V44H11.2V42.4ZM24 42.4H19.2V44H24V42.4ZM27.2 42.4H32V44H27.2V42.4ZM40 42.4H35.2V44H40V42.4Z" fill="#E93030"/>
<path d="M27.531 37.0682H15.5953L16.5473 38.0629L27.531 37.0682Z" fill="#BF0000"/>
<path fill-rule="evenodd" clip-rule="evenodd" d="M16.702 33.2014V33.0522H17.4398V36.4341H16.702V36.2849C16.4878 36.4341 16.2855 36.5211 16.0118 36.5211C15.1669 36.5211 14.5362 35.7254 14.5362 34.7431C14.5362 33.7609 15.1788 32.9651 16.0118 32.9651C16.2855 32.9651 16.4759 33.0522 16.702 33.2014ZM15.2978 34.7431C15.2978 35.2778 15.5953 35.7005 16.0118 35.7005C16.4164 35.7005 16.7139 35.2778 16.7139 34.7431C16.7139 34.2085 16.4283 33.7858 16.0118 33.7858C15.5953 33.7858 15.2978 34.2085 15.2978 34.7431Z" fill="#BF0000"/>
<path d="M22.5925 33.0522V35.0416C22.5925 35.4146 22.3426 35.7254 21.9856 35.7254C21.6286 35.7254 21.3787 35.4146 21.3787 35.0416V33.0522H20.6409V35.0416C20.6409 35.8622 21.1764 36.5211 21.9618 36.5211C22.3188 36.5211 22.5925 36.3098 22.5925 36.3098V36.4341H23.3303V33.0522H22.5925Z" fill="#BF0000"/>
<path d="M29.4469 36.4341V34.4447C29.4469 34.0717 29.6968 33.7609 30.0538 33.7609C30.4108 33.7609 30.6607 34.0717 30.6607 34.4447V36.4341H31.3985V34.4447C31.3985 33.6241 30.863 32.9651 30.0776 32.9651C29.7206 32.9651 29.4469 33.1765 29.4469 33.1765V33.0522H28.7091V36.4341H29.4469Z" fill="#BF0000"/>
<path fill-rule="evenodd" clip-rule="evenodd" d="M12.418 35.141V36.4466H11.6445V32.2192H12.9178C13.6794 32.2192 14.3101 32.8657 14.3101 33.6739C14.3101 34.1712 14.084 34.6064 13.727 34.8675L14.8694 36.4466H13.9055L12.9654 35.141H12.418ZM12.9178 33.0149H12.418V34.3329H12.9178C13.2629 34.3329 13.5485 34.0345 13.5485 33.6739C13.5485 33.3133 13.2629 33.0149 12.9178 33.0149Z" fill="#BF0000"/>
<path d="M25.3057 35.6508C25.2343 35.7005 25.151 35.7378 25.0558 35.7378C24.9368 35.7378 24.7107 35.6384 24.7107 35.3275V33.8728H25.3414V33.0646H24.7107V32.2192H23.9729V33.0646H23.5802V33.8728H23.9729V35.3275C23.9729 36.086 24.5203 36.5336 25.0677 36.5336C25.27 36.5336 25.5556 36.459 25.7817 36.3222L25.3057 35.6508Z" fill="#BF0000"/>
<path d="M19.2604 34.6312L20.5218 33.0522H19.4984L18.6059 34.2334V31.9207H17.8562V36.4341H18.6059V35.0415L19.7007 36.4341H20.7241L19.2604 34.6312Z" fill="#BF0000"/>
<path fill-rule="evenodd" clip-rule="evenodd" d="M25.5437 34.7431C25.5437 33.7485 26.1506 32.9651 27.0074 32.9651C27.8404 32.9651 28.602 33.7609 28.3997 34.9669H26.2815C26.3767 35.7502 27.2216 36.1357 27.7214 35.3648L28.3759 35.7627C27.9594 36.3844 27.4715 36.5211 27.0788 36.5211C26.3053 36.5211 25.5437 35.7876 25.5437 34.7431ZM27.65 34.308H26.3291C26.4838 33.5122 27.5072 33.4625 27.65 34.308Z" fill="#BF0000"/>
</svg>
