<svg width="80" height="80" fill="none" xmlns="http://www.w3.org/2000/svg"><path d="M43 52v3.724C43 57.35 41.798 59 39.351 59H28l-3 5-3-5h-7.389C12.806 59 11 56.959 11 55.724V35.257C11 33.68 12.758 32 14.611 32H28" stroke="#B6B6B6" stroke-width="2"/><path fill="#B6B6B6" d="M17 39h11v2H17zm0 5h11v2H17zm0 5h20v2H17z"/><path d="M69 41V18.952C69 16.962 66.92 15 65.069 15H35.927C33.896 15 32 17.034 32 18.924V41c0 1.945 2.113 4 3.927 4H49l4 6 4-6h8.073C67.036 45 69 43.087 69 41z" stroke="#E93030" stroke-width="2"/><path d="M49.034 33.269c0-.954.115-1.713.346-2.28.23-.566.683-1.186 1.36-1.86.683-.681 1.116-1.165 1.297-1.452.28-.437.419-.91.419-1.419 0-.674-.164-1.186-.492-1.538-.32-.358-.795-.537-1.423-.537-.6 0-1.085.175-1.454.527-.363.344-.544.813-.544 1.408H46c.014-1.268.432-2.272 1.256-3.01.83-.739 1.925-1.108 3.285-1.108 1.402 0 2.494.366 3.275 1.097.788.731 1.182 1.752 1.182 3.064 0 1.169-.53 2.32-1.59 3.452l-1.287 1.301c-.46.538-.698 1.323-.712 2.355h-2.375zm-.178 3.344c0-.423.13-.764.388-1.022.258-.265.606-.398 1.046-.398.446 0 .799.137 1.057.41.258.264.387.601.387 1.01 0 .394-.126.724-.377.99-.251.264-.607.397-1.067.397-.46 0-.816-.133-1.067-.398-.245-.265-.367-.595-.367-.99z" fill="#E93030"/></svg>