<svg viewBox="0 0 186 150" fill="none" xmlns="http://www.w3.org/2000/svg">
<g clip-path="url(#clip0_220_628)">
<path d="M178.049 114.552C178.049 129.157 166.206 141.005 151.595 141.005H8V36.4538C8 21.8432 19.8432 10 34.4538 10H178.049V114.552Z" fill="white"/>
<path d="M131.231 87.7616H142.167C142.509 87.7616 143.159 87.7083 143.474 87.6389C145.575 87.1857 147.324 85.3194 147.324 82.7812C147.324 80.243 145.575 78.3713 143.474 77.9181C143.165 77.8487 142.514 77.7954 142.167 77.7954H131.231V87.7616Z" fill="url(#paint0_linear_220_628)"/>
<path d="M140.888 18.8193C130.453 18.8193 121.996 27.2765 121.996 37.7119V57.3349H148.732C149.351 57.3349 150.108 57.3776 150.583 57.4043C156.635 57.7082 161.093 60.817 161.093 66.208C161.093 70.4472 158.042 74.0732 152.491 74.8891V75.1024C158.624 75.5289 163.316 78.899 163.316 84.2207C163.316 89.9743 158.165 93.6696 151.297 93.6696H121.996V132.185H149.708C160.143 132.185 168.601 123.723 168.601 113.293V18.8193H140.888Z" fill="url(#paint1_linear_220_628)"/>
<path d="M146.023 67.5738C146.023 65.0782 144.274 63.4038 142.221 63.0572C142.029 63.0252 141.506 62.9719 141.144 62.9719H131.231V72.1702H141.144C141.506 72.1702 142.029 72.1169 142.221 72.0849C144.279 71.7383 146.023 70.064 146.023 67.5684V67.5738Z" fill="url(#paint2_linear_220_628)"/>
<path d="M36.3416 18.8193C25.9062 18.8193 17.4491 27.2765 17.4491 37.7119V84.37C22.7494 86.9349 28.2204 88.6092 33.7927 88.6092C40.3249 88.6092 43.9135 84.6206 43.9135 79.2563V57.3349H60.1612V79.2563C60.1612 87.8307 54.8982 94.7094 36.8375 94.7094C25.9702 94.7094 17.4437 92.3632 17.4437 92.3632V132.18H45.156C55.5914 132.18 64.0485 123.717 64.0485 113.287V18.8193H36.3416Z" fill="url(#paint3_linear_220_628)"/>
<path d="M88.6143 18.8193C78.1789 18.8193 69.7218 27.2765 69.7218 37.7119V62.4487C74.5103 58.3428 82.7861 55.7779 96.2396 56.3805C103.438 56.7004 111.074 58.6307 111.074 58.6307V66.6292C107.251 64.6936 102.67 62.8966 96.7675 62.454C86.5614 61.6808 80.4185 66.6719 80.4185 75.5023C80.4185 84.3327 86.5614 89.3184 96.7675 88.5452C102.67 88.1027 107.315 86.2576 111.074 84.3753V92.3685C111.074 92.3685 103.438 94.2988 96.2396 94.6241C82.7914 95.2267 74.5103 92.6618 69.7218 88.5559V132.185H97.4341C107.869 132.185 116.327 123.723 116.327 113.293V18.8193H88.6143Z" fill="url(#paint4_linear_220_628)"/>
</g>
<defs>
<linearGradient id="paint0_linear_220_628" x1="121.441" y1="82.4205" x2="167.958" y2="82.4205" gradientUnits="userSpaceOnUse">
<stop stop-color="#007940"/>
<stop offset="0.25" stop-color="#19893B"/>
<stop offset="0.75" stop-color="#49A834"/>
<stop offset="1" stop-color="#5CB531"/>
</linearGradient>
<linearGradient id="paint1_linear_220_628" x1="121.441" y1="75.17" x2="167.959" y2="75.17" gradientUnits="userSpaceOnUse">
<stop stop-color="#007940"/>
<stop offset="0.25" stop-color="#19893B"/>
<stop offset="0.75" stop-color="#49A834"/>
<stop offset="1" stop-color="#5CB531"/>
</linearGradient>
<linearGradient id="paint2_linear_220_628" x1="121.441" y1="67.2813" x2="167.958" y2="67.2813" gradientUnits="userSpaceOnUse">
<stop stop-color="#007940"/>
<stop offset="0.25" stop-color="#19893B"/>
<stop offset="0.75" stop-color="#49A834"/>
<stop offset="1" stop-color="#5CB531"/>
</linearGradient>
<linearGradient id="paint3_linear_220_628" x1="17.297" y1="75.17" x2="64.5374" y2="75.17" gradientUnits="userSpaceOnUse">
<stop stop-color="#1F286F"/>
<stop offset="0.12" stop-color="#1A3279"/>
<stop offset="0.71" stop-color="#075EA9"/>
<stop offset="1" stop-color="#006FBC"/>
</linearGradient>
<linearGradient id="paint4_linear_220_628" x1="69.1237" y1="75.17" x2="115.002" y2="75.17" gradientUnits="userSpaceOnUse">
<stop stop-color="#6C2C2F"/>
<stop offset="0.41" stop-color="#A31733"/>
<stop offset="0.8" stop-color="#D30637"/>
<stop offset="1" stop-color="#E60039"/>
</linearGradient>
<clipPath id="clip0_220_628">
<rect width="170.049" height="131" fill="white" transform="translate(8 10)"/>
</clipPath>
</defs>
</svg>
