<svg xmlns="http://www.w3.org/2000/svg" viewBox="0 0 204.77 316.612"><defs><style>.cls-1{fill:#fff;}.cls-2{fill:#231815;}.cls-3{fill:#d80c18;}</style></defs><title>アセット 1</title><g id="レイヤー_2" data-name="レイヤー 2"><g id="レイヤー_1-2" data-name="レイヤー 1"><path class="cls-1" d="M175.41,254.894c.511-1.378,14.113-5.233,18.292,1.033,5.7,8.552-4.255,18.432-13.281,17.008l-2.651-.256"/><path class="cls-2" d="M182.186,276.414a14.541,14.541,0,0,1-2.179-.16l-2.556-.246a3.344,3.344,0,0,1,.641-6.657l2.649.255c.068.008.134.015.2.026a10.626,10.626,0,0,0,9.923-4.727,6.162,6.162,0,0,0,.055-7.122c-2.207-3.312-10.864-1.736-13.06-.613a3.344,3.344,0,0,1-5.584-3.441c1.153-3.1,7.257-4.135,9.829-4.433,6.7-.786,11.8.914,14.38,4.776a12.875,12.875,0,0,1,.009,14.439A17.407,17.407,0,0,1,182.186,276.414Z"/><path class="cls-1" d="M79.165,209.572a253.664,253.664,0,0,0-11.277,36.5c-3.4,15-11.9,62.685,5.017,66.832,10.346,2.536,14.06-8.766,23.678-14.368s18.592-5.587,24.086-5.587,14.478-.008,24.085,5.587,13.33,16.9,23.677,14.368c16.915-4.147,8.418-51.832,5.019-66.832a254.3,254.3,0,0,0-11.277-36.5"/><path class="cls-2" d="M165.555,316.612c-6.343,0-10.617-4.387-14.458-8.329a38.992,38.992,0,0,0-8.028-6.861c-8.811-5.132-16.974-5.132-22.378-5.132-5.449,0-13.613,0-22.425,5.132a39.007,39.007,0,0,0-8.026,6.861c-4.539,4.658-9.686,9.934-18.131,7.866-20.683-5.072-10.957-55.487-7.483-70.817a257.065,257.065,0,0,1,11.433-37,3.342,3.342,0,1,1,6.21,2.474,250.18,250.18,0,0,0-11.121,36c-6.475,28.576-7.781,60.313,2.553,62.845,4.522,1.109,7.139-1.307,11.75-6.037a44.876,44.876,0,0,1,9.449-7.972c10.373-6.043,19.995-6.043,25.746-6.043h0c5.794,0,15.418,0,25.79,6.043a44.959,44.959,0,0,1,9.45,7.972c4.609,4.73,7.226,7.148,11.748,6.037,10.333-2.532,9.029-34.269,2.555-62.845a250.28,250.28,0,0,0-11.123-36,3.343,3.343,0,0,1,6.212-2.474,257.073,257.073,0,0,1,11.433,37c3.472,15.33,13.2,65.747-7.483,70.817A15.461,15.461,0,0,1,165.555,316.612Z"/><path class="cls-1" d="M86.992,205.874a110.731,110.731,0,0,0-19.5-5.309c-7.7-1.214-22.919-8.5-36.369-7.273a11.15,11.15,0,0,0-9.783,8.253,14.781,14.781,0,0,0,6.333,15.944c3.051,2.069,9.891,4.4,14.039,5.781,8.32,2.773,59.044,15.692,66.476,8.671"/><path class="cls-2" d="M98.089,237.264c-20.617,0-56.981-10.671-57.434-10.821-5.577-1.86-11.7-4.048-14.858-6.187a18.114,18.114,0,0,1-7.7-19.536,14.443,14.443,0,0,1,12.72-10.758c9.832-.895,20.075,2.3,28.31,4.873a73.33,73.33,0,0,0,8.883,2.428,113.105,113.105,0,0,1,20.181,5.491,3.343,3.343,0,1,1-2.4,6.239,108.41,108.41,0,0,0-18.819-5.124,76.437,76.437,0,0,1-9.832-2.652c-7.669-2.393-17.215-5.373-25.714-4.6a7.851,7.851,0,0,0-6.844,5.747,11.475,11.475,0,0,0,4.968,12.353c2.817,1.912,10.375,4.429,13.22,5.378a323.862,323.862,0,0,0,33.12,7.892c26.154,4.818,29.859,1.656,30,1.52a3.343,3.343,0,1,1,4.591,4.861C108.284,236.45,103.787,237.264,98.089,237.264Z"/><path class="cls-1" d="M100.729,101.582C102.1,73.4,102.263,42.4,95.479,19.991,89.342-.291,71.448-1.715,66.089,13.938c-5.739,16.762-.037,41.725,3.8,58.544,2.252,9.864,6.512,22.068,10.258,33.989"/><path class="cls-2" d="M80.151,109.816a3.345,3.345,0,0,1-3.189-2.343c-.945-3-1.922-6.027-2.89-9.027-2.943-9.1-5.722-17.706-7.438-25.22-3.886-17.02-9.754-42.715-3.708-60.371C65.684,4.8,71.8-.087,78.917,0c6.808.123,15.575,5.184,19.762,19.021,7.179,23.723,6.652,56.669,5.389,82.722a3.342,3.342,0,1,1-6.677-.324c1.235-25.515,1.771-57.718-5.112-80.462C89.686,12.39,84.394,6.788,78.8,6.687h-.148c-4.1,0-7.606,3.1-9.4,8.335-5.428,15.857.184,40.435,3.9,56.7,1.655,7.246,4.39,15.709,7.286,24.67.974,3.016,1.957,6.056,2.907,9.079a3.347,3.347,0,0,1-3.19,4.347Z"/><path class="cls-1" d="M159.448,105.983c7.01-22.891,16.942-64.462,12.835-83.622C168.62,5.261,155.6-.715,138.994,7.108c-11.048,5.2-26.992,18.456-21.262,30.873,4.854,10.518,22.635-1.477,24.718,5.206,1.724,5.521-2.088,41.038-3.686,58.184"/><path class="cls-2" d="M159.448,109.327a3.348,3.348,0,0,1-3.2-4.323c6.627-21.634,16.772-63.238,12.763-81.942-1.525-7.123-4.822-12.12-9.538-14.455-5.042-2.5-11.636-1.971-19.058,1.525-10.555,4.969-24.1,16.813-19.65,26.448,1.4,3.043,4.735,3.025,11.669,1.833,5.089-.873,11.417-1.96,13.207,3.779,1.418,4.552.183,20.834-2.763,51.262-.292,3.018-.562,5.806-.787,8.227a3.343,3.343,0,0,1-6.658-.62c.227-2.428.5-5.224.791-8.251,1.375-14.2,4.208-43.48,3.1-48.388-1.061-.225-3.855.254-5.752.581-6.006,1.033-15.084,2.592-18.875-5.62-6.773-14.68,10.435-29.443,22.873-35.3,9.333-4.4,17.935-4.9,24.874-1.467,6.608,3.272,11.141,9.858,13.11,19.045,5.291,24.681-11.032,79.17-12.91,85.3A3.343,3.343,0,0,1,159.448,109.327Z"/><path class="cls-1" d="M120.519,214.907c44.678,0,80.906-19.263,80.906-57.343s-36.226-57.332-80.9-57.332-80.9,19.255-80.9,57.332S75.832,214.907,120.519,214.907Z"/><path class="cls-2" d="M120.519,218.251c-51.178,0-84.246-23.821-84.246-60.687s33.069-60.676,84.248-60.676,84.249,23.818,84.249,60.676S171.7,218.251,120.519,218.251Zm0-114.676c-35.78,0-77.562,14.141-77.562,53.989s41.782,54,77.56,54,77.565-14.14,77.565-54S156.3,103.575,120.521,103.575Z"/><path class="cls-2" d="M120.517,165.945c-3.319,0-7.509.257-7.509,4.919,0,4.645,4.973,6.072,7.509,6.072s7.51-1.427,7.51-6.072C128.027,166.2,123.833,165.945,120.517,165.945Z"/><path class="cls-2" d="M120.519,204.367c-12.694,0-23.022-8.564-23.022-19.093a3.344,3.344,0,1,1,6.687,0c0,6.842,7.327,12.405,16.335,12.405s16.337-5.563,16.337-12.4a3.344,3.344,0,1,1,6.688,0C143.544,195.8,133.216,204.367,120.519,204.367Z"/><path class="cls-2" d="M88.113,125.017v37.22h-8.55V132.763H71.912v-7.746Z"/><path class="cls-2" d="M162.173,125.017v37.22h-8.547V132.763h-7.65v-7.746Z"/><path class="cls-3" d="M41.336,120.794a16.142,16.142,0,0,0-9.439,3.065L8.549,140.1c-3.455,2.376-5.207,5.111-5.207,8.128A10.024,10.024,0,0,0,6.3,155.557a9.59,9.59,0,0,0,7.418,3.251c2.1,0,4.714-1.064,8.018-3.267l10.037-6.974V261.418c0,7.56,3.7,11.392,10.985,11.392,4.641,0,10.174-1.941,10.174-11.189V134.014C52.932,123.088,46.626,120.794,41.336,120.794Z"/><path class="cls-2" d="M42.758,276.153c-9.107,0-14.329-5.371-14.329-14.735V154.961l-4.785,3.325c-3.973,2.649-7.109,3.867-9.926,3.867a12.967,12.967,0,0,1-9.843-4.294A13.392,13.392,0,0,1,0,148.229c0-2.876,1.154-7.1,6.655-10.882l23.333-16.233a19.39,19.39,0,0,1,11.348-3.663c9.494,0,14.938,6.037,14.938,16.563V261.621C56.274,270.721,51.222,276.153,42.758,276.153ZM31.773,145.224a3.343,3.343,0,0,1,3.343,3.343V261.418c0,5.717,2.214,8.049,7.642,8.049,4.787,0,6.831-2.346,6.831-7.846V134.014c0-8.754-4.41-9.878-8.253-9.878a12.748,12.748,0,0,0-7.536,2.472L10.459,142.846c-2.509,1.725-3.773,3.532-3.773,5.383a6.664,6.664,0,0,0,1.977,4.962c.042.042.082.085.122.129a6.293,6.293,0,0,0,4.933,2.146c.96,0,2.808-.47,6.164-2.707l9.983-6.938A3.346,3.346,0,0,1,31.773,145.224Z"/><path class="cls-1" d="M141.544,244.791a166.732,166.732,0,0,1-46.84-1.558C80,240.66,63.9,232.894,57.6,224.317c-5.841-7.96-6.516-24.667-.384-29.355,6.25-4.779,15.155,2.248,21.457,6.648A75.867,75.867,0,0,0,99.8,211.95a69.948,69.948,0,0,0,18.564,2.92Z"/><path class="cls-2" d="M124.236,249.1a176.036,176.036,0,0,1-30.109-2.571c-16.206-2.836-32.7-11.346-39.221-20.231-6.638-9.049-7.733-27.861.282-33.989,7.743-5.926,17.522.994,23.992,5.57l1.409.993a72.8,72.8,0,0,0,20.193,9.886,71.368,71.368,0,0,0,21.82,2.812l.606,0h.008a3.343,3.343,0,0,1,.008,6.686l-.591,0a77.684,77.684,0,0,1-23.825-3.111,79.486,79.486,0,0,1-22.046-10.791l-1.443-1.016c-5.162-3.653-12.232-8.657-16.07-5.718-4.161,3.18-4.247,17.5,1.049,24.72,5.508,7.508,20.547,15.075,34.983,17.6a164.393,164.393,0,0,0,45.8,1.54,3.343,3.343,0,1,1,.931,6.62A138.588,138.588,0,0,1,124.236,249.1Z"/></g></g></svg>