<svg viewBox="0 0 250 150" fill="none" xmlns="http://www.w3.org/2000/svg">
<g clip-path="url(#clip0_166_580)">
<path d="M97.1463 39.442L66.8364 111.758H47.0615L32.1459 54.0465C31.2404 50.4919 30.453 49.1896 27.699 47.692C23.2026 45.2527 15.7773 42.9641 9.24438 41.5437L9.68811 39.442H41.5197C45.5772 39.442 49.2247 42.143 50.1459 46.8154L58.0233 88.6611L77.492 39.4408H97.1463V39.442ZM174.628 88.1486C174.707 69.0622 148.236 68.0108 148.418 59.4846C148.474 56.8898 150.945 54.1309 156.353 53.4268C159.033 53.0759 166.419 52.8082 174.795 56.6631L178.081 41.3279C173.58 39.6941 167.789 38.1217 160.583 38.1217C142.092 38.1217 129.079 47.9513 128.969 62.0264C128.85 72.4372 138.258 78.2467 145.345 81.7061C152.637 85.2487 155.083 87.5252 155.055 90.694C155.004 95.5449 149.24 97.6864 143.854 97.7708C134.451 97.9155 128.995 95.2266 124.646 93.2045L121.255 109.047C125.626 111.053 133.694 112.802 142.058 112.89C161.711 112.89 174.568 103.182 174.628 88.1486ZM223.455 111.759H240.757L225.654 39.442H209.685C206.094 39.442 203.065 41.5329 201.724 44.7475L173.652 111.758H193.296L197.195 100.957H221.197L223.455 111.758V111.759ZM202.582 86.1362L212.428 58.9842L218.095 86.1362H202.582ZM123.875 39.442L108.406 111.758H89.6994L105.174 39.442H123.875Z" fill="#1434CB"/>
</g>
<defs>
<clipPath id="clip0_166_580">
<rect width="232" height="75" fill="white" transform="translate(9 38)"/>
</clipPath>
</defs>
</svg>
