<svg width="49" height="38" xmlns="http://www.w3.org/2000/svg"><g transform="translate(-3 -10)" fill="none" fill-rule="evenodd"><rect width="56" height="56" rx="1"/><g transform="translate(0 7)"><rect width="47.319" height="29.449" rx=".723"/><path d="M4.028 4.23h39.265v20.986H4.028z"/><path fill="#BF0000" fill-rule="nonzero" d="M35.637 13.962H11.88l1.892 1.988zM14.079 5.917v.298A2.314 2.314 0 0012.7 5.75c-1.665 0-2.929 1.594-2.929 3.552s1.264 3.552 2.93 3.552a2.314 2.314 0 001.377-.465v.298h1.463V5.911l-1.463.006zm-1.378 5.31c-.82 0-1.42-.85-1.42-1.922s.6-1.923 1.42-1.923c.821 0 1.4.851 1.4 1.923s-.579 1.922-1.4 1.922zM25.8 5.917v3.979c.044.48-.174.944-.563 1.198-.39.254-.882.254-1.272 0a1.287 1.287 0 01-.563-1.198v-3.98H21.94v3.98c0 1.633 1.063 2.961 2.617 2.961a2.168 2.168 0 001.244-.418v.254h1.463V5.917H25.8zm13.633 6.776v-3.98a1.286 1.286 0 01.563-1.197c.39-.254.882-.254 1.271 0 .39.254.608.719.563 1.198v3.98h1.463v-3.98c0-1.633-1.065-2.961-2.619-2.961a2.165 2.165 0 00-1.241.417v-.253H37.97v6.776h1.463z"/><path d="M5.557 12.693v-2.627H6.63l1.872 2.627h1.918L8.147 9.526c.987-.735 1.407-2.057 1.039-3.267-.368-1.21-1.44-2.031-2.65-2.029H4.009v8.463h1.549zm0-6.866h.997c.46-.023.895.222 1.132.637.236.416.236.934 0 1.35-.237.415-.672.66-1.132.637h-.997V5.827zm25.649 5.263a.849.849 0 01-.489.164.708.708 0 01-.515-.258.784.784 0 01-.175-.572V7.526h1.25v-1.61h-1.25V4.23h-1.463v1.687h-.773v1.609h.773v2.922c-.026.627.19 1.237.6 1.693.411.455.98.716 1.576.722.5-.016.988-.162 1.42-.427l-.954-1.346zM19.18 9.093l2.512-3.173h-2.05l-1.756 2.358V3.672h-1.509v9.021h1.509V9.911l2.156 2.782h2.05z" fill="#BF0000" fill-rule="nonzero"/><path d="M34.586 5.747c-1.704 0-2.909 1.564-2.909 3.558 0 2.09 1.526 3.558 3.054 3.558.77 0 1.759-.277 2.591-1.516l-1.292-.782c-1 1.546-2.665.761-2.858-.785h4.215c.361-2.433-1.136-4.033-2.8-4.033zm1.276 2.686h-2.633c.306-1.588 2.349-1.68 2.633-.003v.003zM8.977 19.741c-.358-.827-.952-1.295-1.662-1.295-1.068 0-1.895 1.215-1.895 2.755 0 1.54.835 2.75 1.895 2.75.71 0 1.293-.46 1.704-1.317l1.213.785c-.63 1.329-1.573 1.961-2.914 1.961-2.023 0-3.44-1.725-3.44-4.179 0-2.388 1.477-4.18 3.468-4.18 1.293 0 2.273.672 2.886 1.962l-1.255.758zm5.892 4.893c-.365.48-.921.756-1.506.746-1.537 0-2.781-1.522-2.781-3.382s1.284-3.37 2.858-3.37a1.679 1.679 0 011.42.746l.196-.597h1.264v6.433h-1.253l-.198-.576zm-2.827-2.636c0 1.084.63 1.952 1.42 1.952.79 0 1.42-.806 1.42-1.94s-.59-1.952-1.42-1.952-1.417.86-1.417 1.94h-.003zm6.463-2.63c.46-.51 1.11-.782 1.778-.746v1.43c-.69.05-1.08.257-1.37.704a1.75 1.75 0 00-.252.932v3.522h-1.457v-6.439h1.164l.137.597zm6.284 5.266c-.365.48-.921.756-1.506.746-1.537 0-2.781-1.522-2.781-3.382s1.284-3.37 2.858-3.37a1.679 1.679 0 011.42.746v-2.728h1.457v8.57h-1.255l-.193-.582zm-2.841-2.636c0 1.084.633 1.952 1.42 1.952.787 0 1.42-.806 1.42-1.94s-.593-1.952-1.42-1.952c-.826 0-1.397.86-1.397 1.94h-.023z" fill="#BF0000" fill-rule="nonzero"/></g><path d="M11.16 39.416c-.374.5-1.037 1.152-1.526 1.555l.662.432a12.57 12.57 0 001.632-1.526l-.768-.461zm-5.366 1.536c-.308-.451-.98-1.037-1.556-1.43l-.614.518c.576.422 1.229 1.037 1.517 1.478l.653-.566zm.105 1.584l-.24-.72-1.115.614c-.444.243-.85.46-1.17.615l.442.739.804-.472c.422-.25.864-.517 1.28-.776zm.931-.46h1.92v.844H6.83v-.845zm0-1.489h1.92v.835H6.83v-.835zm5.204 4.541v-.787H8.232v-.73h1.382v-1.229c.73.394 1.623.98 2.055 1.373l.557-.672c-.48-.413-1.46-.989-2.18-1.344l-.432.49v-2.333H8.06l.21-.539c.036-.095.072-.19.107-.287l-.98-.134a11.44 11.44 0 01-.23.96H6.005v3.715H7.33v.73H3.586v.787h2.976c-.826.758-2.055 1.411-3.197 1.757.192.182.46.518.595.739 1.21-.432 2.486-1.22 3.37-2.16v2.275h.902v-2.246c.893.902 2.189 1.66 3.408 2.064.134-.23.403-.567.605-.749-1.181-.326-2.439-.94-3.255-1.68h3.044zm9.312-1.651v-.912h-3.562l.008-.207.002-1.81h3.801v-.911h-8.39v.912h3.648v1.593c0 .135 0 .279-.01.423h-3.35v.912h3.245c-.279 1.334-1.152 2.669-3.754 3.504.182.182.451.576.547.797 2.4-.797 3.466-2.026 3.927-3.332.739 1.68 1.9 2.794 3.801 3.322.135-.25.403-.653.605-.854-2.026-.48-3.206-1.67-3.83-3.437h3.312zm3.888 3.648c.69 0 1.296-.23 1.785-.557l-.384-.7c-.384.249-.787.393-1.257.393-.912 0-1.546-.605-1.632-1.613h3.427c.029-.125.048-.346.048-.557 0-1.497-.749-2.505-2.15-2.505-1.239 0-2.41 1.065-2.41 2.784 0 1.737 1.142 2.755 2.573 2.755zm-1.498-3.235c.106-.932.691-1.44 1.354-1.44.768 0 1.18.528 1.18 1.44h-2.534zm4.34.806h2.534v-.816h-2.535v.816zM31.981 47h1.056v-3.331c0-.768-.086-1.584-.144-2.314h.048l.74 1.479L36.024 47h1.142v-7.066H36.11v3.293c0 .768.087 1.623.144 2.352h-.048l-.739-1.497-2.342-4.148h-1.143V47zm8.112-2.89l.288-.95c.23-.768.452-1.546.653-2.352h.039c.22.797.432 1.584.672 2.352l.278.95h-1.93zM42.888 47h1.18l-2.342-7.066H40.44L38.098 47h1.132l.605-2.016h2.458L42.888 47zm3.38 0h1.314l2.208-7.066h-1.132l-1.047 3.658c-.23.806-.403 1.498-.643 2.314h-.048c-.2-.653-.338-1.226-.508-1.842l-1.182-4.13h-1.18L46.267 47zm4.434 0v-7.066h1.114V47h-1.114z" fill="#BF0000" fill-rule="nonzero"/></g></svg>