<svg viewBox="0 0 150 150" fill="none" xmlns="http://www.w3.org/2000/svg">
<mask id="mask0_165_540" style="mask-type:luminance" maskUnits="userSpaceOnUse" x="15" y="15" width="120" height="120">
<path d="M135 15H15V135H135V15Z" fill="white"/>
</mask>
<g mask="url(#mask0_165_540)">
<path d="M15 15V74.5125V135H75H135V75V15H75.1125H15Z" fill="white"/>
<path d="M113.737 43.35L117.338 33.375H135V15H15V135H135V116.663H117.45L111.487 109.875L105.375 116.663H58.3125V78.4875H42.15L63.1875 33.4125H82.1625L85.725 41.1375V33.4125H110.063L113.737 43.3875V43.35ZM84.2625 71.6625H92.475L77.7375 40.5375H67.9875L53.25 71.6625H61.3875L64.0125 65.7375H81.5625L84.225 71.6625H84.2625ZM99.675 45.075L101.55 49.8L110.212 71.6625H117.3L125.925 49.8L127.8 45.075V71.6625H135V40.575H122.362L114.675 60.3375L113.7 62.8125L112.725 60.3375L105.075 40.575H92.4V71.6625H99.6V45.075H99.675ZM70.6125 51.1125L72.825 46.2375L75.0375 51.1125L78.9 59.6625H66.7875L70.6125 51.1125ZM65.8125 78.525V109.537H92.475V103.425H73.0125V97.05H92.1V90.975H73.0125V84.6375H92.475V78.525H65.8125ZM121.162 109.537H130.763L116.325 93.9375L130.763 78.525H121.425L111.713 88.9125L102.112 78.525H92.475L106.875 94.0875L92.475 109.537H101.663L111.45 99.1125L121.125 109.537H121.162ZM125.925 93.975L135.037 103.163V84.9L125.925 93.975Z" fill="#006FCF"/>
</g>
</svg>
