<svg viewBox="0 0 160 160" fill="none" xmlns="http://www.w3.org/2000/svg">
<path d="M29.2947 63.9202C30.9459 66.1565 32.272 68.6528 33.1691 71.3441C34.0792 74.0354 34.5733 76.8957 34.5733 79.9121C34.5733 82.9154 34.0792 85.7887 33.1691 88.4801C32.272 91.1714 30.9459 93.6677 29.2947 95.9039C27.0324 98.9463 27.6565 103.25 30.7119 105.525C33.7542 107.774 38.0577 107.137 40.333 104.095C42.8423 100.727 44.8315 96.931 46.1967 92.8616C47.5748 88.7921 48.3159 84.4236 48.3159 79.9121C48.3159 75.4005 47.5618 71.032 46.1967 66.9626C44.8315 62.8931 42.8293 59.1097 40.333 55.7163C38.0707 52.6739 33.7672 52.0368 30.7249 54.3121C27.6695 56.5614 27.0194 60.8649 29.2947 63.9202ZM52.8534 51.0877C58.041 59.4867 60.9924 69.3158 61.0054 79.9121C60.9924 90.4953 58.041 100.337 52.8534 108.723C50.8772 111.948 51.8653 116.173 55.1027 118.175C58.3401 120.165 62.5786 119.164 64.5678 115.926C71.0295 105.473 74.761 93.0956 74.761 79.9121C74.761 66.7285 71.0425 54.3511 64.5678 43.8849C62.5786 40.6475 58.3401 39.6464 55.1027 41.6486C51.8653 43.6379 50.8642 47.8634 52.8534 51.0877ZM77.8423 38.0342C85.0191 50.3206 89.1276 64.6093 89.1276 79.8991C89.1276 95.1888 85.0191 109.464 77.8293 121.764C75.9051 125.053 77.0362 129.253 80.2996 131.177C83.589 133.088 87.8015 131.983 89.7127 128.707C98.0857 114.366 102.883 97.6721 102.883 79.8991C102.883 62.126 98.0857 45.4191 89.7127 31.0914C87.8015 27.815 83.602 26.7099 80.3126 28.6211C77.0232 30.5323 75.9051 34.7578 77.8423 38.0342ZM102.727 24.9287C111.971 41.1546 117.237 59.8898 117.25 79.9121C117.237 99.9474 111.971 118.67 102.727 134.882C100.855 138.198 102.012 142.397 105.301 144.27C108.604 146.142 112.79 144.985 114.676 141.695C125.064 123.48 130.992 102.379 130.992 79.9251C130.992 57.4715 125.064 36.37 114.676 18.1419C112.803 14.8395 108.604 13.6824 105.301 15.5806C102.025 17.4398 100.855 21.6263 102.727 24.9287Z" fill="black"/>
</svg>
