<svg viewBox="0 0 185 150" fill="none" xmlns="http://www.w3.org/2000/svg">
<mask id="mask0_166_637" style="mask-type:luminance" maskUnits="userSpaceOnUse" x="1" y="15" width="183" height="121">
<path d="M183.948 15H1V136H183.948V15Z" fill="white"/>
</mask>
<g mask="url(#mask0_166_637)">
<path d="M116.611 36.0811H68.3506V114.905H116.611V36.0811Z" fill="#FF5F00"/>
<path d="M73.3216 75.5C73.3216 60.1278 80.3672 45.5911 92.4672 36.0949C70.7039 18.9823 39.1938 22.7696 22.0811 44.5329C4.96839 66.2962 8.75574 97.8063 30.5191 114.919C48.7039 129.205 74.2824 129.205 92.4672 114.919C80.3672 105.423 73.3077 90.8861 73.3216 75.5Z" fill="#EB001B"/>
<path d="M168.785 106.565V104.949H169.481V104.615H167.824V104.949H168.478V106.565H168.785ZM172.001 106.565V104.615H171.5L170.915 106.008L170.33 104.615H169.829V106.565H170.191V105.089L170.734 106.356H171.11L171.653 105.089V106.565H172.001Z" fill="#F79E1B"/>
<path d="M173.575 75.5C173.575 103.181 151.129 125.627 123.448 125.627C112.211 125.627 101.295 121.853 92.467 114.905C114.23 97.7924 118.018 66.2823 100.905 44.519C98.4404 41.3861 95.5999 38.5456 92.467 36.081C114.23 18.9683 145.74 22.7418 162.853 44.5051C169.801 53.3329 173.575 64.2494 173.575 75.4861V75.5Z" fill="#F79E1B"/>
</g>
</svg>
