<svg width="67" height="67" viewBox="0 0 67 67" fill="none" xmlns="http://www.w3.org/2000/svg">
<path d="M56.3917 67H10.6083C4.74918 67 0 62.2508 0 56.3917V10.6083C0 4.74918 4.74918 0 10.6083 0H56.3917C62.2508 0 67 4.74918 67 10.6083V56.3917C67 62.2508 62.2508 67 56.3917 67Z" fill="#BF0000"/>
<path d="M57.927 51.6458H9.07288C7.91601 51.6458 6.97913 50.7089 6.97913 49.5521V17.4479C6.97913 16.291 7.91601 15.3542 9.07288 15.3542H57.927C59.0839 15.3542 60.0208 16.291 60.0208 17.4479V49.5521C60.0208 50.7089 59.0839 51.6458 57.927 51.6458Z" fill="white"/>
<path d="M13.2045 46.0603V42.3507H12.568V41.5478H14.0643V46.0603H13.2045Z" fill="#403D3E"/>
<path d="M16.7644 45.2976C16.9073 44.8677 17.3205 44.306 17.785 43.9096L18.0832 43.6516C18.5935 43.2105 18.7364 43.0151 18.7364 42.7627C18.7364 42.4646 18.4896 42.258 18.1401 42.258C17.785 42.258 17.5036 42.4534 17.3551 42.8029L16.713 42.3272C17 41.7711 17.5159 41.4562 18.1345 41.4562C19.029 41.4562 19.6543 41.9833 19.6543 42.7292C19.6543 43.1592 19.4254 43.4975 18.685 44.1563L18.4215 44.392C18.0943 44.6845 17.8542 44.9827 17.7214 45.2574H19.6878V46.0603H16.7633V45.2976H16.7644Z" fill="#403D3E"/>
<path d="M23.1217 43.3546C23.7291 43.3546 24.0329 43.1536 24.0329 42.7583C24.0329 42.449 23.7749 42.2368 23.4019 42.2368C23.0636 42.2368 22.7766 42.4378 22.6102 42.7761L21.9279 42.3574C22.2261 41.7499 22.742 41.4339 23.441 41.4339C24.3522 41.4339 24.9496 41.9498 24.9496 42.7237C24.9496 43.2396 24.6973 43.5723 24.1925 43.7331C24.7375 43.8537 25.0702 44.2613 25.0702 44.8051C25.0702 45.6426 24.4449 46.1529 23.4299 46.1529C22.713 46.1529 22.2428 45.9062 21.8699 45.3389L22.4494 44.8051C22.6783 45.1613 23.0055 45.3445 23.4064 45.3445C23.8363 45.3445 24.1512 45.0921 24.1512 44.7538C24.1512 44.364 23.7838 44.1575 23.1083 44.1575H22.7755V43.3546H23.1217Z" fill="#403D3E"/>
<path d="M29.9545 45.1312V46.0603H29.0947V45.1312H27.1852V44.3462L28.7507 41.5478H29.9545V44.3462H30.4939V45.1312H29.9545ZM28.1265 44.3462H29.0958V42.5171L28.1265 44.3462Z" fill="#403D3E"/>
<path d="M38.5417 41.5478V42.3507H36.6668V43.2965C36.8622 43.1648 37.0621 43.1078 37.3491 43.1078C38.2156 43.1078 38.8052 43.7041 38.8052 44.5874C38.8052 45.5511 38.152 46.182 37.1537 46.182C36.4892 46.182 36.0471 45.9129 35.7489 45.3155L36.362 44.8286C36.5339 45.1837 36.8209 45.3791 37.1648 45.3791C37.6115 45.3791 37.8873 45.0977 37.8873 44.6343C37.8873 44.21 37.6003 43.9118 37.1994 43.9118C36.9303 43.9118 36.7059 44.0212 36.5741 44.2155L35.8058 44.0324V41.5501H38.5417V41.5478Z" fill="#403D3E"/>
<path d="M43.3277 42.6723C43.1502 42.3574 42.9726 42.2368 42.6856 42.2368C42.1809 42.2368 41.8481 42.7013 41.837 43.4182C42.0089 43.2005 42.3249 43.062 42.6566 43.062C43.5053 43.062 44.1071 43.6929 44.1071 44.5818C44.1071 45.5388 43.4874 46.1764 42.5539 46.1764C41.4986 46.1764 40.9425 45.397 40.9425 43.9006C40.9425 42.3351 41.5734 41.435 42.6745 41.435C43.225 41.435 43.6839 41.6874 43.9642 42.1519L43.3277 42.6723ZM41.9006 44.5874C41.9006 45.0687 42.153 45.3724 42.5606 45.3724C42.9447 45.3724 43.1915 45.0687 43.1915 44.5874C43.1915 44.134 42.9391 43.8303 42.555 43.8303C42.1697 43.8303 41.9006 44.1396 41.9006 44.5874Z" fill="#403D3E"/>
<path d="M49.1466 42.1508C48.6017 43.5042 48.2466 44.593 47.8736 46.0614H46.9445C47.2885 44.7995 47.6782 43.6069 48.1606 42.3518H46.1997V41.5489H49.1466V42.1508Z" fill="#403D3E"/>
<path d="M54.443 44.8911C54.443 45.6538 53.7786 46.1809 52.8317 46.1809C51.8803 46.1809 51.2203 45.6527 51.2203 44.8855C51.2203 44.3406 51.456 43.962 51.9317 43.761C51.5587 43.5612 51.3465 43.1703 51.3465 42.6946C51.3465 41.9554 51.9596 41.4339 52.8317 41.4339C53.7027 41.4339 54.3169 41.9554 54.3169 42.6946C54.3169 43.1703 54.1047 43.5545 53.7317 43.761C54.203 43.962 54.443 44.3406 54.443 44.8911ZM52.1382 44.8219C52.1382 45.1491 52.4196 45.378 52.8317 45.378C53.2393 45.378 53.5251 45.1491 53.5251 44.8219C53.5251 44.4489 53.2906 44.22 52.8317 44.1396C52.3794 44.2144 52.1382 44.4489 52.1382 44.8219ZM53.4112 42.7404C53.4112 42.4423 53.17 42.2357 52.8317 42.2357C52.4878 42.2357 52.2533 42.4423 52.2533 42.7516C52.2533 43.0788 52.4196 43.2507 52.8317 43.3535C53.2449 43.2563 53.4112 43.0788 53.4112 42.7404Z" fill="#403D3E"/>
<path d="M30.7083 25.125H26.5208V29.3125H30.7083V25.125Z" fill="#FFCC00"/>
<path d="M26.5208 30.7083V34.8958H28.6145C29.7714 34.8958 30.7083 33.959 30.7083 32.8021V30.7083H26.5208Z" fill="#FFCC00"/>
<path d="M18.1458 25.125H13.9639V29.3125H18.1458V25.125Z" fill="#FFCC00"/>
<path d="M13.9639 30.7083V32.8021C13.9639 33.959 14.9008 34.8958 16.0576 34.8958H18.1458V30.7083H13.9639Z" fill="#FFCC00"/>
<path d="M28.6145 19.5417H19.5416V34.8958H25.125V23.7292H30.7083V21.6354C30.7083 20.4785 29.7714 19.5417 28.6145 19.5417Z" fill="#FFCC00"/>
<path d="M18.1458 19.5417H16.0576C14.9008 19.5417 13.9639 20.4785 13.9639 21.6354V23.7292H18.1458V19.5417Z" fill="#FFCC00"/>
<path d="M43.7454 33.5L41.875 31.93H54.9925L43.7454 33.5Z" fill="#BF0000"/>
<path d="M45.876 30.753V27.2757H47.3824L49.9909 30.753H52.6575L49.5051 26.5577C50.4878 25.8531 51.1321 24.7062 51.1321 23.4076C51.1321 21.2747 49.3979 19.5417 47.2651 19.5417H43.7443V30.753H45.876ZM45.876 21.67H47.2662C48.2232 21.67 49.0049 22.4483 49.0049 23.4064C49.0049 24.3679 48.2221 25.1451 47.2662 25.1451H45.876V21.67Z" fill="#BF0000"/>
</svg>
