<?xml version="1.0" encoding="utf-8"?>
<!-- Generator: Adobe Illustrator 26.0.1, SVG Export Plug-In . SVG Version: 6.00 Build 0)  -->
<svg version="1.1" id="Layer_1" xmlns="http://www.w3.org/2000/svg" xmlns:xlink="http://www.w3.org/1999/xlink" x="0px" y="0px"
	 viewBox="0 0 52.1 42" style="enable-background:new 0 0 52.1 42;" xml:space="preserve">
<style type="text/css">
	.st0{fill:#777884;}
</style>
<g>
	<g>
		<path class="st0" d="M21.2,41.6H5.3V20c0-0.1-4.9,0-4.9,0v-5.2L24.6,1.2l1.3-0.7h0l1.3,0.7l24.2,13.6V20c0,0-5-0.1-4.9,0v21.6
			H30.6H21.2z M30.8,36.3h10.4V15.1L25.9,6.4h0l-15.3,8.6v21.3H21H30.8z M28,31.6h6.6v-5.3H28h-4.2h-6.6v5.3h6.6H28z M23.4,18.1
			h-6.2v5.3h6.3h4.9h6.3v-5.3h-6.2H23.4z"/>
	</g>
</g>
</svg>
