<?xml version="1.0" encoding="UTF-8"?>
<!-- Generator: Adobe Illustrator 27.0.1, SVG Export Plug-In . SVG Version: 6.00 Build 0)  -->
<svg xmlns="http://www.w3.org/2000/svg" xmlns:xlink="http://www.w3.org/1999/xlink" version="1.1" id="Layer_1" x="0px" y="0px" viewBox="0 0 300.06 73.49" style="enable-background:new 0 0 300.06 73.49;" xml:space="preserve">
<style type="text/css">
	.st0{fill:#777884;}
</style>
<g>
	<g id="XMLID_5_">
		<polygon id="XMLID_15_" class="st0" points="0.2,11.03 11.45,11.03 11.45,51.87 32.17,51.87 32.17,62.2 0.2,62.2   "></polygon>
		<g id="XMLID_6_">
			<path id="XMLID_7_" class="st0" d="M37.11,27.52h10.79V62.2H37.11V27.52z M42.5,10.26c3.47,0,6.24,2.77,6.24,6.24     s-2.77,6.24-6.24,6.24c-3.47,0-6.24-2.77-6.24-6.24S39.11,10.26,42.5,10.26"></path>
		</g>
		<polygon id="XMLID_12_" class="st0" points="92.97,11.03 103.76,11.03 103.76,41.62 116.01,27.52 129.18,27.52 115.08,43.55     128.88,62.2 115.39,62.2 103.91,45.09 103.76,45.09 103.76,62.2 92.97,62.2   "></polygon>
		<path id="XMLID_11_" class="st0" d="M53.9,27.52h10.33v4.78h0.15c1.46-2.7,4.93-5.62,10.17-5.62c10.94,0,12.94,7.17,12.94,16.57    v19.03H76.71V45.4c0-4.01-0.08-9.17-5.62-9.17c-5.62,0-6.47,4.39-6.47,8.94v17.18H53.83V27.52H53.9z"></path>
		<path id="XMLID_8_" class="st0" d="M151.92,40.85c0.08-3.62-2.7-6.63-6.63-6.63c-4.78,0-7.32,3.24-7.63,6.63H151.92z     M161.01,56.19c-3.47,4.39-9.09,6.93-14.72,6.93c-10.79,0-19.42-7.17-19.42-18.34c0-11.17,8.63-18.34,19.42-18.34    c10.09,0,16.41,7.17,16.41,18.34v3.39h-25.04c0.85,4.08,3.93,6.78,8.09,6.78c3.54,0,5.86-1.77,7.71-4.24L161.01,56.19z"></path>
		<path id="XMLID_16_" class="st0" d="M185.13,35.92c-5.39,0-8.63,3.62-8.63,8.86c0,5.24,3.24,8.86,8.63,8.86s8.63-3.62,8.63-8.86    C193.76,39.47,190.52,35.92,185.13,35.92 M203.7,62.2h-9.94v-4.62h-0.15c-1.7,2.54-5.86,5.47-10.71,5.47    c-10.33,0-17.18-7.47-17.18-18.03c0-9.71,6.01-18.65,15.95-18.65c4.47,0,8.63,1.23,11.1,4.62h0.15V10.96h10.79V62.2L203.7,62.2z"></path>
	</g>
	<path class="st0" d="M281.83,0.24h-61.95c-2.93,0-5.39,2.31-5.39,5.24v62.26c0,2.93,2.39,5.24,5.39,5.24h61.95   c3.01,0,5.39-2.39,5.39-5.24V5.48C287.22,2.63,284.83,0.24,281.83,0.24z M236.06,62.2h-10.79V27.52h10.79V62.2z M230.66,22.74   c-3.47,0-6.24-2.77-6.24-6.24c0-3.47,2.77-6.24,6.24-6.24c3.47,0,6.24,2.77,6.24,6.24C236.91,19.97,234.13,22.74,230.66,22.74z    M276.43,62.27h-10.79V45.4c0-4.01-0.08-9.17-5.62-9.17c-5.62,0-6.47,4.39-6.47,8.94v17.18h-10.79V27.52h0.08h10.33v4.78h0.15   c1.46-2.7,4.93-5.62,10.17-5.62c10.94,0,12.94,7.17,12.94,16.57V62.27z"></path>
	<g>
		<path class="st0" d="M290.2,68.44v-0.03c0-2.62,2.13-4.81,4.82-4.81c2.7,0,4.8,2.17,4.8,4.78v0.03c0,2.62-2.13,4.81-4.82,4.81    C292.3,73.23,290.2,71.06,290.2,68.44z M299.39,68.42v-0.03c0-2.41-1.87-4.37-4.36-4.37c-2.5,0-4.39,1.99-4.39,4.4v0.03    c0,2.41,1.87,4.37,4.36,4.37C297.5,72.81,299.39,70.82,299.39,68.42z M293.13,65.81h2.21c0.62,0,1.14,0.2,1.46,0.52    c0.24,0.23,0.4,0.56,0.4,0.96v0.03c0,0.8-0.53,1.28-1.28,1.45l1.53,1.98h-0.9l-1.42-1.86h-0.03h-1.24v1.86h-0.73V65.81z     M295.27,68.23c0.69,0,1.17-0.32,1.17-0.88v-0.03c0-0.52-0.43-0.85-1.13-0.85h-1.45v1.75H295.27z"></path>
	</g>
</g>
</svg>
