<svg width="24" height="24" viewBox="0 0 24 24" fill="none" xmlns="http://www.w3.org/2000/svg">
<path fill-rule="evenodd" clip-rule="evenodd" d="M5.61907 5.7595C6.78125 5.95732 7.79506 5.38859 8.04233 4.39951C8.36378 3.08897 7.44888 1.97625 6.06416 2.00098C5.14926 1.97625 4.43217 2.42134 4.13545 3.16315C3.69036 4.35005 4.38272 5.56168 5.61907 5.7595ZM20.7276 18.2463C19.6891 18.2216 18.6753 18.2216 17.6367 18.2463C17.4142 18.2463 17.3647 18.1969 17.3647 17.9743V12.4602C17.3647 12.0398 17.34 11.6195 17.2164 11.2238C16.8455 9.93802 15.3618 9.46821 14.2986 10.3337C13.7298 10.7787 13.5073 11.3969 13.5073 12.1387V17.3314C13.5073 17.4047 13.5046 17.478 13.5019 17.5522V17.5522C13.4964 17.7032 13.4907 17.8579 13.5073 18.0238C13.532 18.2216 13.4331 18.2711 13.26 18.2463H10.095C9.89715 18.2463 9.8477 18.1969 9.8477 17.9991C9.87242 16.4413 9.87242 14.8834 9.87242 13.3009C9.87242 11.3722 9.87242 9.44348 9.8477 7.53951C9.8477 7.31696 9.89715 7.26751 10.095 7.26751H13.26C13.4578 7.26751 13.5073 7.31696 13.5073 7.51478V8.77585L13.6309 8.65222C14.5953 7.24278 15.9553 6.84715 17.5625 7.09442C19.4171 7.39115 20.604 8.67694 20.9007 10.6551C20.9749 11.1249 20.9996 11.5947 20.9996 12.0646V17.9743C20.9996 18.1721 20.9502 18.2463 20.7276 18.2463ZM7.86896 12.7573V17.95C7.86896 18.1725 7.8195 18.2467 7.59696 18.2467C6.9046 18.2302 6.21224 18.2357 5.51988 18.2412C5.1737 18.244 4.82752 18.2467 4.48134 18.2467C4.28353 18.2467 4.23407 18.1973 4.23407 17.9994V7.51518C4.23407 7.34209 4.28353 7.26791 4.48134 7.26791H7.67114C7.89368 7.26791 7.91841 7.34209 7.91841 7.5399C7.86896 9.27076 7.86896 11.0016 7.86896 12.7573V12.7573Z" fill="#808080"/>
</svg>
