<svg width="24" height="24" viewBox="0 0 24 24" fill="none" xmlns="http://www.w3.org/2000/svg">
<path fill-rule="evenodd" clip-rule="evenodd" d="M20 18.0285L18.8031 16.8327C18.6772 16.7698 18.6142 16.581 18.6142 16.4551V6.8882C18.6142 6.76232 18.6772 6.5735 18.8031 6.44762L20 5.06294V5H15.7165L12.5039 13.1193L8.85039 5H4.44094V5.06294L5.5748 6.63644C5.82677 6.8882 5.88977 7.26584 5.88977 7.58054V14.5039C5.95276 14.8816 5.88977 15.3222 5.70079 15.6998L4 18.0285V18.0915H8.53543V18.0285L6.83464 15.7628C6.64567 15.3851 6.58268 15.0074 6.64567 14.5669V8.27288C6.70866 8.39876 6.77165 8.39876 6.83464 8.65052L11.1181 18.2174H11.1811L15.3386 7.8323C15.2756 8.20994 15.2756 8.65052 15.2756 8.96522V16.3921C15.2756 16.581 15.2126 16.7068 15.0866 16.8327L13.8268 18.0285V18.0915H20V18.0285Z" fill="#808080"/>
</svg>
