<svg width="24" height="24" viewBox="0 0 24 24" fill="none" xmlns="http://www.w3.org/2000/svg">
<path fill-rule="evenodd" clip-rule="evenodd" d="M22 5.3246C21.2652 5.6653 20.4729 5.892 19.6456 5.99305C20.4929 5.4671 21.1415 4.63283 21.4501 3.64052C20.6578 4.12631 19.7781 4.48256 18.8458 4.67299C18.096 3.84649 17.03 3.3335 15.8503 3.3335C13.5846 3.3335 11.7501 5.23651 11.7501 7.58386C11.7501 7.91549 11.7851 8.23935 11.855 8.55156C8.44589 8.37278 5.42289 6.68093 3.39965 4.10688C3.04849 4.73387 2.84479 5.4671 2.84479 6.24437C2.84479 7.71858 3.56711 9.0218 4.66808 9.78223C3.99575 9.7615 3.36341 9.56719 2.80855 9.25239C2.80855 9.26923 2.80855 9.28867 2.80855 9.30551C2.80855 11.3666 4.22194 13.0869 6.10022 13.4755C5.75656 13.5727 5.3929 13.6258 5.018 13.6258C4.75306 13.6258 4.49813 13.5973 4.24444 13.5494C4.76806 15.2374 6.28268 16.468 8.07598 16.5043C6.67008 17.6456 4.90427 18.3257 2.97975 18.3257C2.64734 18.3257 2.32367 18.305 2 18.2648C3.81955 19.4748 5.97526 20.1756 8.29093 20.1756C15.8353 20.1756 19.9643 13.6945 19.9643 8.07483C19.9643 7.88829 19.9605 7.70692 19.953 7.52427C20.7541 6.92966 21.4489 6.17959 21.9988 5.32589L22 5.3246Z" fill="#808080"/>
</svg>
