<svg width="24" height="24" viewBox="0 0 24 24" fill="none" xmlns="http://www.w3.org/2000/svg">
<path fill-rule="evenodd" clip-rule="evenodd" d="M19.4922 5.09484C20.3489 5.32548 21.0244 6.00093 21.255 6.8576C21.6834 8.42266 21.6669 11.6846 21.6669 11.6846C21.6669 11.6846 21.6669 14.9301 21.255 16.4951C21.0244 17.3518 20.3489 18.0273 19.4922 18.2579C17.9272 18.6697 11.6669 18.6697 11.6669 18.6697C11.6669 18.6697 5.42315 18.6697 3.84161 18.2414C2.98494 18.0107 2.30949 17.3353 2.07885 16.4787C1.66699 14.9301 1.66699 11.6681 1.66699 11.6681C1.66699 11.6681 1.66699 8.42266 2.07885 6.8576C2.30949 6.00093 3.00142 5.309 3.84161 5.07836C5.40668 4.6665 11.6669 4.6665 11.6669 4.6665C11.6669 4.6665 17.9272 4.6665 19.4922 5.09484ZM14.8798 11.6683L9.67386 14.6666V8.66994L14.8798 11.6683Z" fill="#808080"/>
</svg>
