<svg width="88" height="88" viewBox="0 0 88 88" fill="none" xmlns="http://www.w3.org/2000/svg">
<circle cx="44" cy="44" r="44" fill="#1A73E8"/>
<path d="M48.833 56.0832H60.9163V43.9998H56.083V51.2498H48.833V56.0832ZM27.083 43.9998H31.9163V36.7498H39.1663V31.9165H27.083V43.9998ZM24.6663 63.3332C23.3372 63.3332 22.1997 62.8603 21.254 61.9146C20.3067 60.9673 19.833 59.829 19.833 58.4998V29.4998C19.833 28.1707 20.3067 27.0332 21.254 26.0875C22.1997 25.1402 23.3372 24.6665 24.6663 24.6665H63.333C64.6622 24.6665 65.8004 25.1402 66.7478 26.0875C67.6935 27.0332 68.1663 28.1707 68.1663 29.4998V58.4998C68.1663 59.829 67.6935 60.9673 66.7478 61.9146C65.8004 62.8603 64.6622 63.3332 63.333 63.3332H24.6663ZM24.6663 58.4998H63.333V29.4998H24.6663V58.4998ZM24.6663 58.4998V29.4998V58.4998Z" fill="white"/>
</svg>
