<svg width="88" height="88" viewBox="0 0 88 88" fill="none" xmlns="http://www.w3.org/2000/svg">
<circle cx="44" cy="44" r="44" fill="#1A73E8"/>
<path d="M41.583 65.75V60.9167H60.9163V43.7583C60.9163 41.4222 60.4733 39.2271 59.5872 37.1729C58.7011 35.1188 57.4927 33.3264 55.9622 31.7958C54.4316 30.2653 52.6393 29.0569 50.5851 28.1708C48.5309 27.2847 46.3358 26.8417 43.9997 26.8417C41.6636 26.8417 39.4684 27.2847 37.4143 28.1708C35.3601 29.0569 33.5677 30.2653 32.0372 31.7958C30.5066 33.3264 29.2983 35.1188 28.4122 37.1729C27.5261 39.2271 27.083 41.4222 27.083 43.7583V58.5H24.6663C23.3372 58.5 22.1997 58.0271 21.254 57.0814C20.3067 56.1341 19.833 54.9958 19.833 53.6667V48.8333C19.833 47.9069 20.0545 47.0909 20.4976 46.3853C20.9406 45.6812 21.5247 45.1076 22.2497 44.6646L22.4309 41.4625C22.7934 38.5222 23.6296 35.8639 24.9394 33.4875C26.2476 31.1111 27.8789 29.0972 29.8332 27.4458C31.7858 25.7944 33.981 24.5152 36.4186 23.6082C38.8546 22.7027 41.3816 22.25 43.9997 22.25C46.658 22.25 49.206 22.7027 51.6436 23.6082C54.0796 24.5152 56.2643 25.8041 58.1976 27.4748C60.1309 29.1472 61.7525 31.1611 63.0623 33.5165C64.3706 35.8736 65.2059 38.5021 65.5684 41.4021L65.7497 44.5438C66.4747 44.9063 67.0587 45.4395 67.5018 46.1436C67.9448 46.8493 68.1663 47.625 68.1663 48.4708V54.0292C68.1663 54.9153 67.9448 55.7007 67.5018 56.3854C67.0587 57.0701 66.4747 57.5938 65.7497 57.9562V60.9167C65.7497 62.2458 65.2768 63.3841 64.3311 64.3314C63.3838 65.2771 62.2455 65.75 60.9163 65.75H41.583ZM36.7497 48.8333C36.065 48.8333 35.4914 48.6013 35.029 48.1373C34.565 47.6749 34.333 47.1014 34.333 46.4167C34.333 45.7319 34.565 45.1576 35.029 44.6936C35.4914 44.2312 36.065 44 36.7497 44C37.4344 44 38.0088 44.2312 38.4728 44.6936C38.9351 45.1576 39.1663 45.7319 39.1663 46.4167C39.1663 47.1014 38.9351 47.6749 38.4728 48.1373C38.0088 48.6013 37.4344 48.8333 36.7497 48.8333ZM51.2497 48.8333C50.565 48.8333 49.9914 48.6013 49.529 48.1373C49.065 47.6749 48.833 47.1014 48.833 46.4167C48.833 45.7319 49.065 45.1576 49.529 44.6936C49.9914 44.2312 50.565 44 51.2497 44C51.9344 44 52.5088 44.2312 52.9728 44.6936C53.4351 45.1576 53.6663 45.7319 53.6663 46.4167C53.6663 47.1014 53.4351 47.6749 52.9728 48.1373C52.5088 48.6013 51.9344 48.8333 51.2497 48.8333ZM29.5601 45.0875C29.399 42.7111 29.7317 40.5562 30.5582 38.6229C31.3831 36.6896 32.4899 35.0479 33.8787 33.6978C35.2691 32.3492 36.8705 31.3125 38.683 30.5875C40.4955 29.8625 42.308 29.5 44.1205 29.5C47.7858 29.5 50.9581 30.6584 53.6373 32.9752C56.315 35.2903 57.9358 38.1799 58.4997 41.6437C54.7136 41.6035 51.2899 40.5861 48.2288 38.5915C45.1677 36.5986 42.8518 34.0111 41.2809 30.8292C40.6365 34.0917 39.2775 36.9812 37.204 39.4978C35.1289 42.0159 32.5809 43.8792 29.5601 45.0875Z" fill="white"/>
</svg>
