<svg width="88" height="88" viewBox="0 0 88 88" fill="none" xmlns="http://www.w3.org/2000/svg">
<circle cx="44" cy="44" r="44" fill="#1A73E8"/>
<path d="M27.0833 65.75C25.7542 65.75 24.6159 65.2771 23.6686 64.3314C22.7229 63.3841 22.25 62.2458 22.25 60.9167V27.0833C22.25 25.7542 22.7229 24.6159 23.6686 23.6686C24.6159 22.7229 25.7542 22.25 27.0833 22.25H60.9167C62.2458 22.25 63.3841 22.7229 64.3314 23.6686C65.2771 24.6159 65.75 25.7542 65.75 27.0833V60.9167C65.75 62.2458 65.2771 63.3841 64.3314 64.3314C63.3841 65.2771 62.2458 65.75 60.9167 65.75H27.0833ZM27.0833 60.9167H60.9167V31.9167H27.0833V60.9167ZM44 56.0833C40.6972 56.0833 37.7473 55.1868 35.1502 53.3936C32.5514 51.602 30.6681 49.2764 29.5 46.4167C30.6681 43.5569 32.5514 41.2313 35.1502 39.4398C37.7473 37.6466 40.6972 36.75 44 36.75C47.3028 36.75 50.2535 37.6466 52.8523 39.4398C55.4494 41.2313 57.3319 43.5569 58.5 46.4167C57.3319 49.2764 55.4494 51.602 52.8523 53.3936C50.2535 55.1868 47.3028 56.0833 44 56.0833ZM44 52.4583C46.2556 52.4583 48.3097 51.9243 50.1625 50.8561C52.0153 49.7895 53.4653 48.3097 54.5125 46.4167C53.4653 44.5236 52.0153 43.043 50.1625 41.9748C48.3097 40.9083 46.2556 40.375 44 40.375C41.7444 40.375 39.6903 40.9083 37.8375 41.9748C35.9847 43.043 34.5347 44.5236 33.4875 46.4167C34.5347 48.3097 35.9847 49.7895 37.8375 50.8561C39.6903 51.9243 41.7444 52.4583 44 52.4583ZM44 50.0417C42.9931 50.0417 42.1376 49.6888 41.4335 48.9832C40.7278 48.2791 40.375 47.4236 40.375 46.4167C40.375 45.4097 40.7278 44.5542 41.4335 43.8502C42.1376 43.1445 42.9931 42.7917 44 42.7917C45.0069 42.7917 45.8624 43.1445 46.5665 43.8502C47.2722 44.5542 47.625 45.4097 47.625 46.4167C47.625 47.4236 47.2722 48.2791 46.5665 48.9832C45.8624 49.6888 45.0069 50.0417 44 50.0417Z" fill="white"/>
</svg>
