<svg width="88" height="88" viewBox="0 0 88 88" fill="none" xmlns="http://www.w3.org/2000/svg">
<circle cx="44" cy="44" r="44" fill="#1A73E8"/>
<path d="M34.3337 58.5002H53.667V53.6668H34.3337V58.5002ZM34.3337 48.8335H53.667V44.0002H34.3337V48.8335ZM29.5003 68.1668C28.1712 68.1668 27.0337 67.694 26.088 66.7482C25.1407 65.8009 24.667 64.6627 24.667 63.3335V24.6668C24.667 23.3377 25.1407 22.1994 26.088 21.2521C27.0337 20.3064 28.1712 19.8335 29.5003 19.8335H48.8337L63.3337 34.3335V63.3335C63.3337 64.6627 62.8608 65.8009 61.9151 66.7482C60.9677 67.694 59.8295 68.1668 58.5003 68.1668H29.5003ZM46.417 36.7502V24.6668H29.5003V63.3335H58.5003V36.7502H46.417ZM29.5003 24.6668V36.7502V24.6668V63.3335V24.6668Z" fill="white"/>
</svg>
