<svg id="レイヤー_1" data-name="レイヤー 1" xmlns="http://www.w3.org/2000/svg" viewBox="0 0 100 100"><defs><style>.cls-1{fill:#1da1f2;}.cls-2{fill:#fff;}</style></defs><rect class="cls-1" width="100" height="100"/><path class="cls-2" d="M83.77,29.94a28,28,0,0,1-7.93,2.19,13.87,13.87,0,0,0,6.08-7.65,27.39,27.39,0,0,1-8.78,3.35,13.81,13.81,0,0,0-23.9,9.45,13.35,13.35,0,0,0,.35,3.15A39.14,39.14,0,0,1,21.11,26a13.85,13.85,0,0,0,4.28,18.47,13.52,13.52,0,0,1-6.27-1.72v.17A13.82,13.82,0,0,0,30.21,56.44a13.52,13.52,0,0,1-3.63.49,12.53,12.53,0,0,1-2.6-.26,13.83,13.83,0,0,0,12.91,9.61A27.75,27.75,0,0,1,16.43,72a38.76,38.76,0,0,0,21.16,6.25c25.43,0,39.33-21.08,39.33-39.36,0-.6,0-1.2,0-1.79A28.09,28.09,0,0,0,83.77,29.94Z"/></svg>