<svg id="レイヤー_1" data-name="レイヤー 1" xmlns="http://www.w3.org/2000/svg" viewBox="0 0 100 100"><defs><style>.cls-1{fill:#cf2e92;}.cls-2{fill:#fff;}</style></defs><rect class="cls-1" width="100" height="100"/><path class="cls-2" d="M50,30.71A19.14,19.14,0,1,0,69.14,49.85,19.14,19.14,0,0,0,50,30.71Zm0,31.4A12.26,12.26,0,1,1,62.26,49.85,12.26,12.26,0,0,1,50,62.11Z"/><circle class="cls-2" cx="69.88" cy="30.27" r="4.34"/><path class="cls-2" d="M81.1,19.05c-3.89-4-9.42-6.13-15.7-6.13H34.6c-13,0-21.68,8.68-21.68,21.68V65.25c0,6.43,2.1,12,6.28,16a21.86,21.86,0,0,0,15.55,5.83h30.5c6.43,0,11.81-2.1,15.7-5.83,4-3.89,6.13-9.42,6.13-15.85V34.6C87.08,28.32,85,22.94,81.1,19.05ZM80.5,65.4a14.61,14.61,0,0,1-4.34,10.91A15.46,15.46,0,0,1,65.25,80.2H34.75a15.46,15.46,0,0,1-10.91-3.89c-2.69-2.69-4-6.43-4-11.06V34.6c0-4.48,1.35-8.22,4-10.91,2.54-2.54,6.43-3.89,10.91-3.89h30.8c4.48,0,8.22,1.35,10.91,4a15.44,15.44,0,0,1,4,10.76V65.4Z"/></svg>