<svg id="レイヤー_1" data-name="レイヤー 1" xmlns="http://www.w3.org/2000/svg" viewBox="0 0 100 100"><defs><style>.cls-1{fill:#da1725;}.cls-2{fill:#fff;}</style></defs><rect class="cls-1" y="-0.31" width="100" height="100"/><path class="cls-2" d="M84.79,32.32A9,9,0,0,0,78.43,26c-5.62-1.51-28.13-1.51-28.13-1.51s-22.51,0-28.12,1.51a9,9,0,0,0-6.37,6.36c-1.5,5.62-1.5,17.33-1.5,17.33s0,11.71,1.5,17.32a9,9,0,0,0,6.37,6.37c5.61,1.5,28.12,1.5,28.12,1.5s22.51,0,28.13-1.5A9,9,0,0,0,84.79,67c1.5-5.61,1.5-17.32,1.5-17.32S86.29,37.94,84.79,32.32ZM43.1,60.45V38.85l18.71,10.8Z"/></svg>