<svg width="316" height="205" viewBox="0 0 316 205" fill="none" xmlns="http://www.w3.org/2000/svg">
<path d="M215.101 64.3795V64.3795C213.869 65.6311 211.841 64.7741 211.841 63.0182V63.0182C211.841 61.4153 211.841 59.6478 211.764 57.9791C209.867 -11.3264 106.127 -11.3264 104.23 57.9791C104.186 59.6478 104.165 61.3275 104.165 63.0182V63.0182C104.165 64.7136 102.105 65.5768 100.904 64.3795V64.3795C99.7266 63.2048 98.5054 62.0082 97.306 60.8664C47.2461 13.21 -26.0609 87.1263 21.2621 137.418C22.4106 138.632 23.5773 139.84 24.7622 141.04C81.8611 198.528 157.984 198.533 157.997 198.533C157.998 198.533 157.997 198.533 157.997 198.533C158.01 198.533 234.144 198.528 291.243 141.04C292.435 139.847 293.602 138.64 294.743 137.418C342.066 87.0714 268.715 13.21 218.699 60.8664C217.489 62.0082 216.257 63.1828 215.101 64.3795Z" fill="#D0DBFF" stroke="#D0DBFF" stroke-width="11.9776" stroke-miterlimit="10"/>
<path fill-rule="evenodd" clip-rule="evenodd" d="M202.101 116.469V116.469C200.494 116.469 199.938 118.806 200.963 120.043C202.776 122.234 203.867 125.053 203.867 128.128C203.867 135.107 198.248 140.764 191.317 140.764C184.385 140.764 178.766 135.107 178.766 128.128V128.128C178.766 127.755 178.283 127.569 178.064 127.872C176.085 130.609 174.749 133.681 174.2 136.908C173.891 138.724 172.425 140.229 170.582 140.229H169.563C167.158 140.229 165.173 138.265 165.528 135.886C167.962 119.583 183.922 107.758 202.101 107.758C220.279 107.758 236.239 119.583 238.673 135.886C239.028 138.265 237.043 140.229 234.638 140.229V140.229C232.232 140.229 230.327 138.255 229.805 135.907C227.425 125.221 216.395 116.469 202.101 116.469ZM90.6512 128.128C90.6512 127.635 90.0162 127.37 89.7176 127.763C87.6024 130.542 86.1614 133.69 85.5516 137.007C85.1915 138.966 83.6087 140.594 81.6166 140.594H80.868C78.4625 140.594 76.478 138.631 76.8328 136.252C79.2654 119.939 95.2269 108.124 113.405 108.124C131.584 108.124 147.545 119.939 149.978 136.252C150.333 138.631 148.348 140.594 145.943 140.594V140.594C143.537 140.594 141.632 138.621 141.11 136.273C138.732 125.58 127.702 116.835 113.405 116.835V116.835C112.104 116.835 111.629 118.674 112.499 119.64C114.52 121.883 115.752 124.861 115.752 128.128C115.752 135.107 110.133 140.764 103.202 140.764C96.2702 140.764 90.6512 135.107 90.6512 128.128V128.128ZM178.398 161.223C176.287 160.07 173.66 160.897 171.96 162.599C168.682 165.879 163.714 168.121 157.964 168.121C152.199 168.121 147.237 165.902 143.967 162.619C142.269 160.915 139.645 160.078 137.53 161.223V161.223C135.415 162.369 134.605 165.045 136.12 166.913C141.082 173.026 149.122 176.832 157.964 176.832C166.812 176.832 174.834 172.986 179.789 166.918C181.31 165.054 180.509 162.377 178.398 161.223V161.223Z" fill="#272E29"/>
</svg>
