<?xml version="1.0" standalone="no"?>
<!DOCTYPE svg PUBLIC "-//W3C//DTD SVG 20010904//EN"
 "http://www.w3.org/TR/2001/REC-SVG-20010904/DTD/svg10.dtd">
<svg version="1.0" xmlns="http://www.w3.org/2000/svg"
 width="270.000000pt" height="270.000000pt" viewBox="0 0 270.000000 270.000000"
 preserveAspectRatio="xMidYMid meet">

<g transform="translate(0.000000,270.000000) scale(0.100000,-0.100000)"
fill="#000000" stroke="none">
<path d="M460 1799 c-123 -24 -245 -122 -302 -245 -41 -88 -50 -217 -20 -310
106 -336 541 -412 748 -132 92 126 111 303 47 441 -87 184 -278 284 -473 246z
m20 -259 c0 -57 1 -60 19 -50 29 15 79 12 111 -6 90 -54 76 -195 -24 -233 -52
-20 -111 0 -143 48 -21 31 -23 45 -23 167 l0 134 30 0 30 0 0 -60z m-142 -60
c45 -27 62 -74 62 -165 l0 -75 -30 0 c-17 0 -33 6 -36 14 -4 12 -10 12 -35 -1
-39 -19 -81 -9 -119 28 -35 35 -46 85 -31 132 12 34 43 70 71 80 33 12 87 6
118 -13z m574 -19 c15 -17 28 -38 28 -46 0 -22 -47 -19 -77 5 -14 11 -34 20
-44 20 -49 0 -76 -74 -42 -112 20 -22 66 -24 83 -3 16 19 80 20 80 1 0 -21
-48 -64 -86 -76 -64 -22 -143 27 -159 98 -9 44 15 103 55 130 51 35 123 27
162 -17z"/>
<path d="M506 1419 c-48 -38 -20 -109 43 -109 56 0 80 69 38 108 -29 27 -47
28 -81 1z"/>
<path d="M230 1422 c-44 -36 -17 -112 40 -112 56 0 83 82 38 114 -29 21 -51
20 -78 -2z"/>
<path d="M2385 1591 c-32 -14 -55 -46 -62 -84 -4 -30 0 -40 28 -71 19 -19 66
-53 104 -74 63 -36 70 -43 73 -74 4 -50 -25 -73 -95 -73 -51 0 -57 3 -90 39
l-36 39 6 -33 c4 -18 7 -38 7 -45 0 -18 128 -29 178 -16 52 15 83 50 89 103 7
57 -21 92 -109 138 -80 42 -98 58 -98 86 0 68 137 73 171 5 l14 -26 3 39 c2
21 1 40 -1 42 -9 9 -163 14 -182 5z"/>
<path d="M1025 1583 c43 -11 45 -18 45 -193 l0 -168 -27 -10 c-23 -9 -14 -10
47 -10 41 0 65 3 53 5 -40 8 -44 24 -41 171 l3 140 150 -167 150 -166 3 185
c2 174 3 186 23 203 21 16 19 17 -47 16 -38 -1 -57 -4 -41 -6 41 -6 48 -31 45
-155 l-3 -111 -123 136 -124 137 -66 -1 c-37 -1 -58 -4 -47 -6z"/>
<path d="M1500 1581 l25 -7 0 -179 0 -179 -25 -7 c-14 -4 43 -7 127 -8 l151
-1 12 36 c12 35 6 62 -6 30 -4 -9 -19 -23 -35 -31 -34 -18 -120 -20 -137 -3
-7 7 -12 42 -12 85 l0 73 55 0 c44 0 57 -4 67 -20 21 -33 28 -23 28 35 0 58
-7 68 -28 35 -10 -16 -23 -20 -67 -20 l-55 0 0 75 0 75 63 0 c65 0 85 -10 100
-50 3 -8 6 4 6 28 l1 42 -147 -1 c-82 -1 -137 -4 -123 -8z"/>
<path d="M1820 1580 c9 -4 47 -94 85 -199 38 -105 74 -190 80 -188 5 2 25 44
43 93 18 49 37 92 40 96 4 4 23 -37 42 -92 19 -55 39 -100 45 -100 6 0 37 80
69 178 32 97 65 187 72 200 14 22 14 22 -33 21 -39 0 -44 -2 -25 -9 12 -5 22
-13 22 -17 0 -12 -80 -263 -84 -263 -5 0 -96 255 -96 268 0 6 12 13 28 15 15
2 -11 4 -58 5 -57 0 -78 -2 -63 -8 22 -9 65 -105 65 -145 0 -20 -42 -139 -47
-133 -5 6 -95 259 -95 268 0 5 8 11 18 13 9 3 -14 5 -53 6 -45 0 -65 -3 -55
-9z"/>
</g>
</svg>
