<?xml version="1.0" encoding="utf-8"?>
<!-- Generator: Adobe Illustrator 24.2.3, SVG Export Plug-In . SVG Version: 6.00 Build 0)  -->
<svg version="1.1" id="efcda2d1-8eec-4490-b89d-48a412fb83ce"
	 xmlns="http://www.w3.org/2000/svg" xmlns:xlink="http://www.w3.org/1999/xlink" x="0px" y="0px" viewBox="0 0 67.7 67.9"
	 style="enable-background:new 0 0 67.7 67.9;" xml:space="preserve">
	<style type="text/css">
		.st0{fill:#6a7274;stroke:#6a7274;stroke-width:0.5;stroke-miterlimit:10;}
		.st1{fill:#6a7274;}
	</style>
	<g>
		<path class="st0" d="M26.5,54.5c-0.4,0-0.8-0.1-1.1-0.2c-1.6-0.6-2.4-2.4-1.9-4l1.2-3.3c2.3-6.7,3.3-11.7,3.3-17.8
			c0-0.1-0.1-0.2-0.2-0.2c0,0,0,0,0,0l-10-2.3c-1.6-0.3-2.7-1.8-2.4-3.3c0.1-0.8,0.5-1.4,1.2-1.9c0.7-0.5,1.5-0.6,2.3-0.5l8.3,1.3
			c1.4,0.2,2.9,0.4,4.4,0.4c0.4,0,0.7,0.4,0.7,0.8c0,0.4-0.4,0.7-0.8,0.7c-1.5-0.1-3-0.2-4.5-0.5l-8.3-1.3c0,0,0,0,0,0
			c-0.4-0.1-0.8,0-1.2,0.3c-0.3,0.2-0.5,0.6-0.6,0.9c-0.1,0.8,0.4,1.5,1.3,1.7c0,0,0,0,0,0l10,2.3c0.8,0.2,1.3,0.8,1.3,1.6
			c0,6.2-0.9,11.4-3.3,18.3l-1.2,3.3c-0.3,0.9,0.2,1.8,1,2.1c0.5,0.2,1,0.1,1.4-0.1c0.4-0.2,0.7-0.5,0.9-1c0,0,0,0,0,0l4.6-12.1
			c0.1-0.4,0.5-0.6,0.9-0.6c0,0,0,0,0,0c0.4,0,0.7,0.2,0.9,0.6L39,51.9c0,0,0,0,0,0c0.2,0.7,0.9,1.1,1.7,1.1c0.2,0,0.4,0,0.6-0.1
			c0.5-0.1,0.8-0.5,1-0.9c0.2-0.4,0.2-0.8,0.1-1.2l-1.2-3.4c-2.4-6.9-3.3-12-3.3-18.3c0-0.8,0.6-1.5,1.3-1.6l10-2.3c0,0,0,0,0,0
			c0.8-0.2,1.4-0.9,1.3-1.7c-0.1-0.4-0.3-0.7-0.6-0.9c-0.3-0.2-0.8-0.3-1.2-0.3c0,0,0,0,0,0l-8.3,1.3c-1.5,0.2-3,0.4-4.5,0.5
			c-0.4,0-0.7-0.3-0.8-0.7c0-0.4,0.3-0.7,0.7-0.8c1.4-0.1,2.9-0.2,4.3-0.4l8.3-1.3c0.8-0.1,1.6,0,2.3,0.5c0.6,0.5,1.1,1.1,1.2,1.9
			c0.2,1.5-0.8,3-2.4,3.3l-10,2.3c0,0,0,0,0,0c-0.1,0-0.2,0.1-0.2,0.2c0,6.1,0.9,11.1,3.3,17.8l1.2,3.4c0.3,0.8,0.2,1.6-0.1,2.4
			c-0.4,0.8-1,1.3-1.9,1.6c-0.3,0.1-0.7,0.2-1,0.2c-1.4,0-2.6-0.8-3-2.1l-4.1-10.8l-4.1,10.8c-0.3,0.8-0.9,1.4-1.6,1.8
			C27.5,54.3,27,54.5,26.5,54.5z"/>
	</g>
	<g>
		<path class="st0" d="M33.6,22c-2.8,0-5-2.2-5-5c0-2.8,2.2-5,5-5c2.8,0,5,2.2,5,5C38.6,19.7,36.4,22,33.6,22z M33.6,13.4
			c-2,0-3.6,1.6-3.6,3.6c0,2,1.6,3.6,3.6,3.6c2,0,3.6-1.6,3.6-3.6C37.2,15,35.6,13.4,33.6,13.4z"/>
	</g>
	<g>
		<path class="st1" d="M33.6,65c-8.3,0-16.1-3.2-22-9.1s-9.1-13.7-9.1-22c0-8.3,3.2-16.1,9.1-22c5.9-5.9,13.7-9.1,22-9.1
			c8.3,0,16.1,3.2,22,9.1s9.1,13.7,9.1,22s-3.2,16.1-9.1,22C49.8,61.7,41.9,65,33.6,65z M33.6,4.1c-7.9,0-15.4,3.1-21,8.7
			c-5.6,5.6-8.7,13.1-8.7,21s3.1,15.4,8.7,21c5.6,5.6,13.1,8.7,21,8.7c7.9,0,15.4-3.1,21-8.7c5.6-5.6,8.7-13.1,8.7-21
			c0-7.9-3.1-15.4-8.7-21c0,0,0,0,0,0C49,7.2,41.6,4.1,33.6,4.1z"/>
	</g>
</svg>
