<?xml version="1.0" encoding="utf-8"?>
<!-- Generator: Adobe Illustrator 24.0.2, SVG Export Plug-In . SVG Version: 6.00 Build 0)  -->
<svg version="1.1" id="Layer_1" xmlns="http://www.w3.org/2000/svg" xmlns:xlink="http://www.w3.org/1999/xlink" x="0px" y="0px"
	 viewBox="0 0 100 100" style="enable-background:new 0 0 100 100;" xml:space="preserve">
<style type="text/css">
	.st0{fill:#231F20;}
</style>
<title>Bloomberg</title>
<g>
	<path class="st0" d="M1.1,40.4h4.1c2.6,0,3.3,0,4.3,1.3c0.5,0.5,0.8,1.5,0.8,2.3c0,1-0.5,1.8-1.5,2.5c2.3,0.8,2,2.8,2,3.6
		c0,1-0.3,2-1.3,2.8c-1.3,1-1.8,1.3-4.1,1.3H1.1V40.4L1.1,40.4z M4.7,45.5h1c0.5,0,1.3,0,1.3-1s-0.8-1-1.3-1h-1V45.5L4.7,45.5z
		 M4.7,51.1h1.3c0.5,0,1.8,0,1.5-1.3c0.3-1.3-0.8-1.3-1.5-1.3H4.7V51.1L4.7,51.1z"/>
	<polygon class="st0" points="11.8,40.4 14.9,40.4 14.9,54.2 11.8,54.2 	"/>
	<path class="st0" d="M21.3,43.5c3.8,0,5.6,2.8,5.6,5.6c0,2.3-1.8,5.4-5.6,5.4c-3.6,0-5.4-3.1-5.6-5.4
		C15.9,46.3,17.7,43.5,21.3,43.5L21.3,43.5z M21.3,51.6c1.5,0,2.5-1.3,2.5-2.5c0-1.8-1-2.8-2.5-2.8c-1.3,0-2.3,1-2.3,2.8
		C19,50.4,20,51.6,21.3,51.6L21.3,51.6z"/>
	<path class="st0" d="M33.3,43.5c3.8,0,5.6,2.8,5.6,5.6c0,2.3-1.8,5.4-5.6,5.4s-5.6-3.1-5.6-5.4C27.6,46.3,29.4,43.5,33.3,43.5
		L33.3,43.5z M33.3,51.6c1.3,0,2.5-1.3,2.5-2.5c0-1.8-1.3-2.8-2.5-2.8c-1.3,0-2.5,1-2.5,2.8C30.7,50.4,32,51.6,33.3,51.6L33.3,51.6z
		"/>
	<path class="st0" d="M39.7,43.7h2.8V45c0.3-0.5,1-1.5,2.8-1.5c1,0,2.3,0.3,3.1,1.8c0.8-1,1.8-1.8,3.3-1.8c0.8,0,2,0,2.8,1
		c1,1,1,1.8,1,4.1v5.6h-3.1v-5.6c0-0.8,0-2.3-1.5-2.3c-1.8,0-1.8,1.5-1.8,2.3v5.6H46v-5.6c0-0.8,0-2.3-1.5-2.3
		c-1.8,0-1.8,1.8-1.8,2.3v5.6h-3.1L39.7,43.7L39.7,43.7z"/>
	<path class="st0" d="M56.8,40.4h3.3v4.3c1-1.3,2.5-1.3,2.8-1.3c2.3,0,5.4,1.5,5.1,5.4c0.2,3.8-2.6,5.6-5.1,5.6
		c-1.5,0-2.5-0.8-3.1-1.3v1h-3.1L56.8,40.4L56.8,40.4z M62.4,51.6c1.5,0,2.6-1.3,2.6-2.5c0-1.5-1-2.8-2.5-2.8s-2.5,1.3-2.5,2.8
		C59.8,50.4,60.9,51.6,62.4,51.6L62.4,51.6z"/>
	<path class="st0" d="M79.8,50.9c-0.5,1.3-1.3,2-2.3,2.8c-0.8,0.5-1.8,0.8-2.8,0.8c-3.1,0-5.6-2.3-5.6-5.4c0-3.1,2.3-5.6,5.4-5.6
		c3.3,0,5.6,2.5,5.6,5.6c0,0.5,0,0.5,0,0.8h-7.9c0.3,1.3,1.3,2,2.6,2c1,0,1.5-0.5,1.8-1L79.8,50.9L79.8,50.9z M76.9,47.8
		c0-0.5-0.8-1.8-2.3-1.8c-1.5,0-2.3,1.3-2.6,1.8H76.9L76.9,47.8z"/>
	<path class="st0" d="M81.3,43.7h2.8V45c0.5-0.5,1.8-1.3,3.1-1v2.8c-1.3,0-2.8,0-2.8,1.8v5.6h-3.1V43.7L81.3,43.7z"/>
	<path class="st0" d="M98.9,52.9c0,1.5-0.3,3.6-0.8,4.3c-0.8,1.3-2.6,2.5-5.1,2.3c-3.6-0.5-4.6-2-4.8-3.6h3.3c0.5,0.8,1.5,0.8,1.8,1
		c1.5-0.2,2.6-0.2,2.3-3.6v-0.3c-0.3,0.5-1,1.3-2.8,1.3c-2.8,0-5.1-2-5.1-5.4c0-3.6,2.6-5.6,5.1-5.6c1.3,0,2.3,0.3,2.8,1.3v-1h3.3
		L98.9,52.9L98.9,52.9z M93.3,51.6c1.5,0,2.6-1,2.3-2.5c0.3-1.8-1-2.8-2.3-2.8s-2.6,1-2.6,2.8C90.7,50.6,92,51.6,93.3,51.6
		L93.3,51.6z"/>
</g>
</svg>
