<?xml version="1.0" encoding="utf-8"?>
<!-- Generator: Adobe Illustrator 24.0.2, SVG Export Plug-In . SVG Version: 6.00 Build 0)  -->
<svg version="1.1" id="Layer_1" xmlns="http://www.w3.org/2000/svg" xmlns:xlink="http://www.w3.org/1999/xlink" x="0px" y="0px"
	 viewBox="0 0 100 100" style="enable-background:new 0 0 100 100;" xml:space="preserve">
<style type="text/css">
	.st0{fill-rule:evenodd;clip-rule:evenodd;fill:#195E7C;}
</style>
<title>Business Insider</title>
<g>
	<path class="st0" d="M31.4,34.7c0.8-0.2,1.6-0.2,2.5-0.1c0.9,0.1,1.8,0.4,2.6,0.9c0,0.7,0,1.4,0,2.1c-0.5-0.4-1-0.7-1.6-0.9
		c-0.7-0.3-1.6-0.4-2.4-0.4c-0.4,0-0.8,0.1-1.1,0.3c-0.2,0.1-0.4,0.3-0.5,0.5c-0.2,0.3-0.2,0.6-0.1,0.9c0,0.3,0.2,0.5,0.4,0.7
		c0.3,0.2,0.6,0.4,1,0.5c0.7,0.3,1.4,0.5,2.2,0.8c0.6,0.2,1.2,0.5,1.7,1c0.5,0.4,0.8,1,0.9,1.6c0.1,0.6,0.2,1.3,0,1.9
		c-0.2,0.6-0.5,1.1-0.9,1.5c-0.5,0.4-1.1,0.7-1.7,0.9c-0.8,0.2-1.7,0.2-2.5,0.2c-1-0.1-2.1-0.4-3-1c0-0.7,0-1.4,0-2.2
		c1.1,0.9,2.4,1.4,3.8,1.4c0.6,0,1.2-0.1,1.7-0.3c0.3-0.2,0.5-0.4,0.7-0.7c0.1-0.3,0.1-0.7,0-1.1c-0.1-0.4-0.4-0.6-0.7-0.8
		c-0.5-0.3-1.1-0.5-1.7-0.7c-0.7-0.3-1.4-0.5-2.1-0.9c-0.5-0.3-1-0.7-1.3-1.1c-0.4-0.6-0.5-1.5-0.5-2.2c0.1-0.7,0.4-1.4,0.9-1.9
		C30.1,35.1,30.7,34.8,31.4,34.7L31.4,34.7z"/>
	<path class="st0" d="M79.7,35.2c0.8-0.5,1.8-0.7,2.8-0.7c1.2,0,2.5,0.3,3.5,1c0,0.7,0,1.4,0,2.1c-0.4-0.3-0.9-0.6-1.4-0.9
		c-0.9-0.4-1.9-0.5-2.8-0.4c-0.5,0.1-1.1,0.3-1.3,0.8c-0.3,0.5-0.2,1.2,0.3,1.6c0.3,0.3,0.8,0.5,1.2,0.6c0.7,0.3,1.4,0.5,2.1,0.8
		c0.6,0.2,1.2,0.6,1.7,1.1c0.4,0.5,0.7,1,0.8,1.7c0.1,0.7,0.1,1.4-0.2,2c-0.2,0.5-0.6,1-1.1,1.3c-0.6,0.4-1.2,0.6-1.9,0.7
		c-0.9,0.2-1.9,0.1-2.8-0.1c-0.8-0.2-1.5-0.5-2.2-0.9c0-0.7,0-1.5,0-2.2c0.8,0.7,1.8,1.1,2.9,1.3c0.5,0.1,0.9,0.1,1.4,0.1
		c0.5,0,0.9-0.1,1.3-0.4c0.3-0.2,0.5-0.5,0.6-0.9c0.1-0.4,0-0.9-0.3-1.2c-0.2-0.3-0.6-0.5-1-0.6c-0.6-0.2-1.2-0.4-1.8-0.6
		c-0.6-0.2-1.1-0.4-1.7-0.7c-0.5-0.3-0.9-0.7-1.2-1.1c-0.3-0.5-0.4-1-0.4-1.6c0-0.5,0-1,0.2-1.5C78.7,36,79.2,35.5,79.7,35.2
		L79.7,35.2z"/>
	<path class="st0" d="M93,34.8c0.6-0.2,1.2-0.3,1.8-0.3c1.3,0,2.5,0.3,3.6,1c0,0,0.1,0.1,0.1,0.1c0,0.7,0,1.4,0,2.1
		c-0.5-0.4-1-0.7-1.6-0.9c-0.7-0.3-1.5-0.4-2.3-0.4c-0.4,0-0.8,0.1-1.1,0.3c-0.2,0.1-0.5,0.4-0.6,0.6c-0.2,0.5-0.1,1.2,0.3,1.5
		c0.5,0.4,1.1,0.5,1.7,0.8c0.7,0.3,1.4,0.5,2,0.8c0.6,0.3,1.2,0.7,1.6,1.2c0.4,0.6,0.6,1.3,0.6,2c0,0.6-0.2,1.3-0.5,1.8
		c-0.4,0.5-0.9,1-1.5,1.2c-0.6,0.3-1.3,0.4-2,0.5c-0.8,0-1.5,0-2.3-0.2c-0.7-0.2-1.4-0.4-1.9-0.8c0-0.7,0-1.5,0-2.2
		c1.1,0.9,2.4,1.4,3.8,1.4c0.6,0,1.2,0,1.7-0.3c0.3-0.1,0.5-0.4,0.6-0.7c0.1-0.4,0.1-0.8,0-1.1c-0.1-0.3-0.4-0.6-0.7-0.8
		c-0.6-0.3-1.2-0.5-1.8-0.7c-0.7-0.3-1.4-0.5-2.1-0.9c-0.5-0.3-1-0.7-1.3-1.2c-0.3-0.6-0.4-1.2-0.4-1.9c0-0.6,0.2-1.2,0.6-1.7
		C91.7,35.4,92.3,35,93,34.8L93,34.8z"/>
	<path class="st0" d="M50.3,34.5c2.8,2.7,5.6,5.3,8.4,8c0-2.6,0-5.2,0-7.8c0.7,0,1.3,0,2,0c0,4.1,0,8.3,0,12.4
		c-1.9-1.8-3.8-3.7-5.7-5.5c-0.9-0.9-1.8-1.8-2.7-2.6c0,2.6,0,5.3,0,7.9c-0.7,0-1.3,0-2,0C50.3,42.8,50.3,38.7,50.3,34.5L50.3,34.5z
		"/>
	<path class="st0" d="M0.9,34.7c1.1,0,2.1,0,3.2,0c0.8,0,1.5,0,2.2,0.1c0.7,0.1,1.4,0.4,2,0.9c0.4,0.4,0.8,0.9,0.9,1.5
		c0.1,0.6,0.1,1.3-0.1,2c-0.2,0.7-0.7,1.3-1.4,1.5c0.1,0.1,0.2,0.1,0.3,0.2c0.6,0.3,1.1,0.9,1.4,1.5c0.2,0.5,0.3,1,0.2,1.5
		c-0.1,0.7-0.3,1.3-0.7,1.8c-0.5,0.6-1.2,1-1.9,1.1c-0.6,0.2-1.3,0.2-1.9,0.2c-1.4,0-2.8,0-4.3,0C0.9,42.9,0.9,38.8,0.9,34.7
		L0.9,34.7z M2.9,36.5c0,1.1,0,2.2,0,3.3c0.8,0,1.6,0,2.5,0c0.5,0,1.1-0.1,1.5-0.5c0.3-0.3,0.4-0.7,0.5-1c0-0.4,0-0.9-0.3-1.2
		c-0.2-0.3-0.6-0.5-1-0.5c-0.4-0.1-0.8-0.1-1.3-0.1C4.1,36.5,3.5,36.5,2.9,36.5L2.9,36.5z M2.9,41.6c0,1.2,0,2.4,0,3.6
		c0.9,0,1.7,0,2.6,0c0.5,0,1-0.1,1.4-0.4c0.4-0.2,0.6-0.6,0.7-1c0.1-0.5,0-1-0.2-1.4c-0.2-0.3-0.5-0.6-0.9-0.7
		c-0.3-0.1-0.7-0.1-1-0.1C4.7,41.6,3.8,41.6,2.9,41.6L2.9,41.6z"/>
	<path class="st0" d="M14.1,34.7c0.7,0,1.4,0,2.1,0c0,2.1,0,4.2,0,6.3c0,0.7,0,1.5,0.1,2.2c0.1,0.6,0.4,1.2,0.9,1.5s1.1,0.5,1.7,0.5
		c0.6,0,1.2-0.1,1.8-0.5c0.4-0.3,0.7-0.8,0.9-1.3c0.2-0.6,0.2-1.2,0.2-1.8c0-2.3,0-4.7,0-7c0.7,0,1.4,0,2.1,0c0,2.4,0,4.9,0,7.3
		c0,1-0.1,2-0.6,2.9c-0.4,0.8-1.1,1.4-1.9,1.8c-0.9,0.4-1.9,0.5-2.9,0.4c-0.7-0.1-1.4-0.2-2-0.6c-0.4-0.2-0.9-0.6-1.2-1
		c-0.4-0.5-0.7-1-0.8-1.6c-0.2-0.7-0.3-1.3-0.3-2C14.1,39.5,14.1,37.1,14.1,34.7L14.1,34.7z"/>
	<path class="st0" d="M42.3,34.7c0.7,0,1.4,0,2.1,0c0,4.1,0,8.1,0,12.2c-0.7,0-1.4,0-2.1,0C42.3,42.9,42.3,38.8,42.3,34.7L42.3,34.7
		z"/>
	<path class="st0" d="M66.2,34.7c2.5,0,4.9,0,7.4,0c0,0.6,0,1.2,0,1.8c-1.8,0-3.6,0-5.4,0c0,1,0,1.9,0,2.9c1.6,0,3.2,0,4.8,0
		c0,0.6,0,1.2,0,1.8c-1.6,0-3.2,0-4.8,0c0,1.3,0,2.5,0,3.8c1.8,0,3.6,0,5.4,0c0,0.6,0,1.2,0,1.9c-2.5,0-4.9,0-7.4,0
		c0-3.3,0-6.6,0-9.9C66.2,36.2,66.2,35.5,66.2,34.7L66.2,34.7z"/>
	<path class="st0" d="M17,53.1c2.8,2.6,5.5,5.2,8.3,7.9c0-2.6,0-5.1,0-7.7c0.7,0,1.3,0,2,0c0,4.1,0,8.2,0,12.2
		c-2.8-2.7-5.5-5.3-8.3-8c0,2.6,0,5.2,0,7.8c-0.7,0-1.3,0-2,0C17,61.2,17,57.2,17,53.1L17,53.1z"/>
	<path class="st0" d="M34.4,53.5c0.8-0.4,1.7-0.5,2.5-0.4c1.1,0,2.3,0.3,3.3,1c0,0.7,0,1.4,0,2.1c-0.5-0.4-1-0.7-1.6-0.9
		c-0.8-0.3-1.6-0.4-2.4-0.4c-0.4,0-0.8,0.1-1.1,0.3c-0.2,0.2-0.5,0.4-0.5,0.7c-0.2,0.5-0.1,1,0.3,1.4c0.3,0.3,0.7,0.4,1,0.6
		c0.7,0.3,1.5,0.5,2.2,0.8c0.6,0.2,1.1,0.5,1.6,0.9c0.5,0.4,0.8,0.9,1,1.5c0.2,0.6,0.2,1.2,0.1,1.8c-0.1,0.6-0.4,1.1-0.9,1.5
		c-0.5,0.4-1,0.7-1.6,0.9c-0.8,0.2-1.5,0.3-2.3,0.2c-0.8-0.1-1.6-0.2-2.4-0.5c-0.3-0.1-0.6-0.3-0.9-0.5c0-0.7,0-1.4,0-2.1
		c1.1,0.9,2.4,1.4,3.8,1.4c0.6,0,1.2,0,1.7-0.3c0.3-0.2,0.6-0.4,0.7-0.8s0.1-0.7,0-1c-0.1-0.3-0.4-0.6-0.7-0.8
		c-0.5-0.3-1.1-0.5-1.7-0.7c-0.7-0.2-1.3-0.4-1.9-0.8c-0.5-0.3-1.1-0.7-1.4-1.2c-0.3-0.5-0.5-1.2-0.5-1.8c0-0.6,0.2-1.2,0.5-1.7
		C33.3,54.1,33.8,53.8,34.4,53.5L34.4,53.5z"/>
	<path class="st0" d="M9.1,53.3c0.7,0,1.4,0,2.1,0c0,4,0,8,0,12c-0.7,0-1.4,0-2.1,0C9.1,61.3,9.1,57.3,9.1,53.3L9.1,53.3z"/>
	<path class="st0" d="M46.1,53.3c0.7,0,1.4,0,2.1,0c0,4,0,8,0,12c-0.7,0-1.4,0-2.1,0C46.1,61.3,46.1,57.3,46.1,53.3L46.1,53.3z"/>
	<path class="st0" d="M54.2,53.3c1.6,0,3.2,0,4.8,0c1.2,0,2.5,0.3,3.5,1.1c0.8,0.6,1.5,1.5,1.8,2.5c0.3,0.8,0.4,1.7,0.4,2.5
		c0,1.2-0.3,2.5-1,3.5c-0.6,0.9-1.4,1.6-2.4,1.9c-0.8,0.3-1.6,0.5-2.4,0.5c-1.6,0-3.2,0-4.8,0C54.2,61.3,54.2,57.3,54.2,53.3
		L54.2,53.3z M56.2,55.1c0,2.8,0,5.6,0,8.4c0.7,0,1.3,0,2,0c0.4,0,0.8,0,1.2,0c0.8-0.1,1.5-0.4,2.1-0.9c0.5-0.5,0.8-1.1,1-1.7
		c0.2-0.6,0.2-1.3,0.2-2c0-0.6-0.2-1.2-0.4-1.7c-0.2-0.5-0.6-1-1.1-1.3c-0.5-0.4-1.2-0.6-1.9-0.7c-0.4,0-0.8,0-1.2,0
		C57.4,55.1,56.8,55.1,56.2,55.1L56.2,55.1z"/>
	<path class="st0" d="M69,53.3c2.4,0,4.9,0,7.3,0c0,0.6,0,1.2,0,1.8c-1.8,0-3.6,0-5.3,0c0,1,0,1.9,0,2.9c1.6,0,3.2,0,4.8,0
		c0,0.6,0,1.2,0,1.8c-1.6,0-3.2,0-4.8,0c0,1.2,0,2.5,0,3.7c1.8,0,3.6,0,5.3,0c0,0.6,0,1.2,0,1.8c-2.4,0-4.9,0-7.3,0
		C69,61.3,69,57.3,69,53.3L69,53.3z"/>
	<path class="st0" d="M82.5,53.3c1.5,0,3,0,4.5,0c0.8,0,1.5,0.1,2.2,0.5c0.5,0.2,1,0.7,1.3,1.2c0.4,0.6,0.5,1.3,0.5,2
		c0,0.7-0.1,1.5-0.5,2.1c-0.3,0.5-0.7,0.8-1.2,1c-0.4,0.2-0.7,0.3-1.1,0.3c1.4,1.6,2.9,3.3,4.3,4.9c-0.8,0-1.6,0-2.3,0
		c-1.4-1.6-2.8-3.3-4.2-4.9c-0.5,0-1,0-1.4,0c0,1.6,0,3.2,0,4.9c-0.7,0-1.4,0-2.1,0C82.5,61.3,82.5,57.3,82.5,53.3L82.5,53.3z
		 M84.5,55c0,1.2,0,2.5,0,3.7c0.8,0,1.6,0,2.4,0c0.5,0,1.1-0.2,1.5-0.5c0.3-0.2,0.4-0.6,0.5-1c0.1-0.5,0-1-0.2-1.4
		c-0.2-0.4-0.7-0.6-1.1-0.7C87.2,55,86.7,55,86.3,55C85.7,55,85.1,55,84.5,55L84.5,55z"/>
</g>
</svg>
