<?xml version="1.0" encoding="utf-8"?>
<!-- Generator: Adobe Illustrator 24.0.2, SVG Export Plug-In . SVG Version: 6.00 Build 0)  -->
<svg version="1.1" id="Layer_1" xmlns="http://www.w3.org/2000/svg" xmlns:xlink="http://www.w3.org/1999/xlink" x="0px" y="0px"
	 viewBox="0 0 100 100" style="enable-background:new 0 0 100 100;" xml:space="preserve">
<style type="text/css">
	.st0{fill-rule:evenodd;clip-rule:evenodd;}
</style>
<title>CBS</title>
<g>
	<path class="st0" d="M23.1,26.2c-6.3,0-11.5,5.2-11.5,11.7c0,6.4,5.2,11.6,11.5,11.6s11.5-5.2,11.5-11.7
		C34.6,31.4,29.5,26.2,23.1,26.2L23.1,26.2z M23.1,44.7c-4.7,0-8.6-3.2-10.6-6.9C14.5,34,18.4,31,23.1,31c4.8,0,8.6,3,10.6,6.8
		C31.7,41.5,27.9,44.7,23.1,44.7z"/>
	<path class="st0" d="M23.1,43.7c3.2,0,5.9-2.6,5.9-5.9s-2.6-5.9-5.9-5.9s-5.9,2.6-5.9,5.9c0,0,0,0,0,0.1
		C17.2,41,19.8,43.7,23.1,43.7L23.1,43.7z"/>
	<path class="st0" d="M40.8,37.8c0-8.4,2.4-11.4,5.2-11.4c4,0,6.3,6.1,6.9,8.4l0,0v-8.2l0,0c-0.7,0.5-1,0.8-1.8,0.8
		c-0.8,0-1.9-0.4-2.4-0.7c-0.5-0.3-1.6-0.6-2.7-0.6c-3.5,0-9.7,4.8-9.7,11.7c-0.1,8.1,5.5,11.7,9.7,11.7c1,0,1.9-0.3,2.8-0.8
		c0.5-0.3,1.5-0.8,2.3-0.8c0.8,0,1.1,0.3,1.8,0.8l0,0v-8.3l0,0c-0.6,3.2-2.9,8.7-6.9,8.7c-1.2,0-2.8-0.5-3.5-1.3
		C42.4,47.7,40.8,46.5,40.8,37.8L40.8,37.8z"/>
	<path class="st0" d="M66.5,37C71,36,71.8,34,71.8,32c0-2.8-3.2-5.5-7.6-5.5H53.5v0.2h3.5V49h-3.5v0.2h11.1c3.4,0,8.3-2.1,8.3-6.5
		S68.3,37.1,66.5,37z M68,31.9c0,4.7-1.5,4.9-3.1,4.9h-3.3v-10H64C66.1,26.8,68,27.2,68,31.9z M64.6,48.9h-3.2v-0.1h0.3V37h3.1
		c2.3,0.1,4.1,1.2,4.1,6C68.8,47.9,67.2,48.9,64.6,48.9z"/>
	<path class="st0" d="M86.3,34.7h0.3v-8.5h-0.3c0,0-0.7,0.8-1.8,0.8c-1,0-2.6-1-4.2-1c-1.7,0-6.1,1.8-6.1,6.9s3.4,5.9,5,6.6
		c1.6,0.7,6.6,1.7,6.6,5.1c0,3.4-2.4,4.6-4.4,4.6s-4.5-1.5-5.8-4.5c-1.4-3-1.4-4.5-1.4-4.5h-0.3v8.6h0.2c0,0,0.6-0.8,1.4-0.8
		c0.8,0,3.7,1.5,5.9,1.5c2.2,0,6.9-2.3,6.9-7.5c0-5.1-3.9-5.7-5.2-6.2c-1.4-0.5-6.7-1.4-6.7-5.2s3.9-5.2,6.2-3.5
		C85,28.9,86.2,33.5,86.3,34.7z"/>
	<path class="st0" d="M83.2,62c-1.4-0.5-6.7-1.4-6.7-5.2s3.9-5.2,6.2-3.5c2.3,1.6,3.5,6.3,3.5,7.5h0.3v-8.5h-0.3
		c0,0-0.7,0.8-1.8,0.8c-1,0-2.6-1-4.2-1c-1.7,0-6.1,1.8-6.1,6.9s3.4,5.9,5,6.6c1.6,0.7,6.6,1.7,6.6,5.1c0,3.4-2.4,4.6-4.4,4.6
		s-4.5-1.5-5.8-4.5c-1.4-3-1.4-4.5-1.4-4.5h-0.3v8.6h0.2c0,0,0.6-0.8,1.4-0.8c0.8,0,3.7,1.5,5.9,1.5c2.2,0,6.9-2.3,6.9-7.5
		C88.4,63,84.6,62.5,83.2,62z"/>
	<path class="st0" d="M75.5,52.4h-5.2v0.7h2.3l-5,16.3l-4.9-16.3h2.5v-0.7h-8.3v0.7h1.5l2.2,6.9l-2.9,9.5l-4.8-16.4h1.9v-0.7H25v0.7
		h2.5v14.4l-9.1-15h-6.6v0.7h2.5v21.5h-2.5v0.5h5.6v-0.5H15V55.2l12.1,20H28V53.1h4.6v21.5H30v0.5h17.6v-7.1h-0.5c0,0-0.8,4-2.6,5.3
		c-0.8,0.5-1.6,1-2.5,1.3h-5.4V63.3h1.7c0.9,0,1.7,0.2,2.5,1c0.8,0.8,1.5,3.6,1.5,3.6h0.5v-9.9h-0.5c0,0-0.3,1.3-0.8,2.7
		c-0.5,1.4-2.2,2-3.1,2c-0.6,0-1.3,0-1.7,0v-9.7h4.9c1,0.3,2.4,0.8,3.1,1.7c1.2,1.5,1.5,3.2,1.5,3.2h0.5v-4.9h1.9L55.4,76h0.8
		l4.6-15l4.5,15h0.8l7.2-22.9h2.1V52.4z"/>
</g>
</svg>
