<svg width="26" height="27" viewBox="0 0 26 27" fill="none" xmlns="http://www.w3.org/2000/svg">
<path d="M25.5 13V14C25.5 20.9036 19.9036 26.5 13 26.5C6.09644 26.5 0.5 20.9036 0.5 14V13C0.5 6.09644 6.09644 0.5 13 0.5C19.9036 0.5 25.5 6.09644 25.5 13Z" stroke="#98A0A1" stroke-linejoin="round"/>
<path d="M17.4585 11.182C17.2485 9.026 15.4705 7.78 13.2165 7.766C10.2205 7.766 8.42848 10.146 8.42848 13.002C8.42848 15.858 10.2205 18.238 13.2165 18.238C15.6385 18.238 17.3325 16.586 17.4725 14.192H15.7645C15.6245 15.648 14.7705 16.81 13.2165 16.81C11.0745 16.81 10.1785 14.92 10.1785 13.002C10.1785 11.084 11.0745 9.194 13.2165 9.194C14.6725 9.194 15.4145 10.034 15.7085 11.182H17.4585Z" fill="#98A0A1"/>
</svg>
