<svg id="Layer_1" xmlns="http://www.w3.org/2000/svg" viewBox="0 0 116 112.67"><defs><style>.cls-1{fill:#6a7274;}</style></defs><title>TAG+AIB</title><path class="cls-1" d="M102.21,95.93a6.47,6.47,0,1,0,6.47,6.46,6.46,6.46,0,0,0-6.47-6.46"/><path class="cls-1" d="M14.33,59.15a6.46,6.46,0,1,0,6.46,6.46,6.47,6.47,0,0,0-6.46-6.46"/><rect class="cls-1" x="9.37" y="76.55" width="9.92" height="32.08"/><path class="cls-1" d="M75.05,99a6.47,6.47,0,1,1,6.47-6.47A6.47,6.47,0,0,1,75.05,99M87.68,81.22A14.62,14.62,0,0,0,77,76.53a14.42,14.42,0,0,0-8.43,2.74v-21H58.67v50.36h9.92v-2.78A14.48,14.48,0,0,0,77,108.58h0a14.63,14.63,0,0,0,10.66-4.7,16.73,16.73,0,0,0,0-22.66"/><path class="cls-1" d="M39,99a6.47,6.47,0,1,1,6.46-6.47A6.47,6.47,0,0,1,39,99m6.48-22.43v2.74a14.4,14.4,0,0,0-8.45-2.76,14.58,14.58,0,0,0-10.64,4.69,16.76,16.76,0,0,0,0,22.66,14.59,14.59,0,0,0,10.64,4.7h0a14.4,14.4,0,0,0,8.44-2.77v2.81h9.92V76.55Z"/><path class="cls-1" d="M96.4,88.69h1.33a3.49,3.49,0,0,1-1.63-3,3.72,3.72,0,0,1,2-3.37,3.88,3.88,0,0,1-2-3.58,3.83,3.83,0,0,1,1.66-3.31,5.62,5.62,0,0,1,3.13-.68h7.78v2.1h-7.45C99,76.8,98,77.45,98,79c0,1.77,1.27,2.63,3.84,2.63h6.8v2.1H101.4c-2.25,0-3.37.77-3.37,2.28a2.56,2.56,0,0,0,1.33,2.22,6.09,6.09,0,0,0,2.63.44h6.68v2.1H96.4Z"/><path class="cls-1" d="M103,70.27c2.52-.12,4.14-1.69,4.14-3.91,0-1.62-.68-2.6-2.57-3.78l1-1.78A6.09,6.09,0,0,1,109,66.45c0,3.55-2.64,6-6.42,6s-6.48-2.42-6.48-5.94,2.58-5.86,6.48-5.86H103Zm-1.77-7.37a3.64,3.64,0,0,0,0,7.22Z"/><path class="cls-1" d="M96.4,56.4h1.33a3.49,3.49,0,0,1-1.63-3,3.71,3.71,0,0,1,2-3.37,3.88,3.88,0,0,1-2-3.58,3.82,3.82,0,0,1,1.66-3.31,5.62,5.62,0,0,1,3.13-.68h7.78v2.1h-7.45c-2.25,0-3.19.65-3.19,2.22,0,1.77,1.27,2.63,3.84,2.63h6.8v2.1H101.4c-2.25,0-3.37.77-3.37,2.27A2.53,2.53,0,0,0,99.36,56a5.92,5.92,0,0,0,2.63.45h6.68v2.1H96.4Z"/><path class="cls-1" d="M98.14,37.23a5.26,5.26,0,0,1-2-4.28c0-3.38,2.69-5.86,6.39-5.86S109,29.6,109,33a5.18,5.18,0,0,1-2,4.23h1.68v2.1H87.11v-2.1Zm4.41.15c2.66,0,4.55-1.68,4.55-4.08a4.19,4.19,0,0,0-4.49-4c-2.63,0-4.55,1.68-4.55,4S99.86,37.38,102.55,37.38Z"/><path class="cls-1" d="M103,23.51c2.52-.12,4.14-1.68,4.14-3.9,0-1.63-.68-2.6-2.57-3.79l1-1.77A6.08,6.08,0,0,1,109,19.7c0,3.55-2.64,6-6.42,6s-6.48-2.43-6.48-5.94,2.58-5.86,6.48-5.86H103Zm-1.77-7.36a3.64,3.64,0,0,0,0,7.21Z"/><path class="cls-1" d="M96.4,9.64h1.33C96.43,8.55,96.1,8,96.1,6.86A3.29,3.29,0,0,1,96.64,5l1.89,1a2,2,0,0,0-.42,1.24,2.24,2.24,0,0,0,1.13,2,6.38,6.38,0,0,0,3,.47h6.47v2.1H96.4Z"/></svg>
