<?xml version="1.0" encoding="utf-8"?>
<!-- Generator: Adobe Illustrator 24.0.2, SVG Export Plug-In . SVG Version: 6.00 Build 0)  -->
<svg version="1.1" id="Layer_1" xmlns="http://www.w3.org/2000/svg" xmlns:xlink="http://www.w3.org/1999/xlink" x="0px" y="0px"
	 viewBox="0 0 100 100" style="enable-background:new 0 0 100 100;" xml:space="preserve">
<style type="text/css">
	.st0{fill:#231F20;}
</style>
<title>MSN</title>
<g id="layer1_2_" transform="translate(-186.78419,-1561.0133)">
	<path id="path3011_2_" class="st0" d="M191.9,1632.4c-2.5,0-4.6-1.6-4.6-5.1c0-5.5,4.7-9.7,6.9-10.8c0,0,3,1.7,6.1,2.8
		c-6.2-3.9-10.1-11-10.1-18.9c0-7.4,3.9-10.7,7.4-10.7c2.8,0,9.6,3.1,9.6,15.1C207.1,1617.6,200.4,1632.4,191.9,1632.4L191.9,1632.4
		z"/>
	<path id="path3021_2_" class="st0" d="M202.7,1628.3c0,1.9,0.6,2.6,1.6,2.6c2.5,0,6.5-5.8,6.3-11.9c3.8-4,8.3-10.2,8.3-15.2
		c0-1.2-0.3-2.2-1.8-2.2c-2.2,0-5.3,3.8-7.3,7.5c-1.9,3.9-3.7,8.3-6.1,14.4C203.2,1625,202.7,1626.9,202.7,1628.3L202.7,1628.3z"/>
</g>
<g>
	<path class="st0" d="M63.3,63.2V52.7c0-2-0.3-3.5-0.9-4.4c-0.6-0.9-1.7-1.4-3.1-1.4c-1.3,0-2.3,0.6-3.2,1.8
		c-0.8,1.1-1.3,2.5-1.3,4.1v10.4h-2.9V52.3c0-3.6-1.4-5.3-4.1-5.3c-1.3,0-2.3,0.6-3.1,1.7c-0.8,1.1-1.3,2.5-1.3,4.2v10.4h-2.9V45
		h2.9v2.9h0.1c1.3-2.2,3.2-3.3,5.7-3.3c1.3,0,2.3,0.4,3.2,1c0.9,0.7,1.6,1.6,1.9,2.8c1.4-2.5,3.4-3.8,6.1-3.8c4.1,0,6,2.5,6,7.5
		l0,11.2H63.3z M74,63.7c-3,0-4.6-1.1-4.6-1.1v-3.1c0,0,2,1.7,4.8,1.8c1.9,0,3.4-0.6,3.4-2.5c0-4-8.1-2.8-8.1-8.8
		c0-2.9,2.4-5.4,6.4-5.4c2.3,0,4,0.9,4,0.9v2.9c0,0-1.8-1.3-4.1-1.3c-2,0-3.2,1.1-3.2,2.6c0,4.1,8.2,2.6,8.2,8.7
		C80.7,61.1,78.7,63.7,74,63.7z M99.1,63.2h-2.9V52.8c0-3.9-1.4-5.8-4.2-5.8c-1.5,0-2.7,0.6-3.6,1.7s-1.5,2.5-1.5,4.1v10.4h-2.9
		V44.9h2.9v3h0.1c1.4-2.3,3.4-3.5,6-3.5c2,0,3.5,0.6,4.6,1.9c1,1.3,1.6,3.1,1.6,5.6V63.2z"/>
	<path class="st0" d="M60.2,44.6c-2.7,0-4.7,1.3-6.1,3.8c-0.4-1.2-1-2-1.9-2.8c-0.9-0.6-1.9-1-3.2-1c-2.5,0-4.4,1.1-5.7,3.3h-0.1V45
		h-2.9v18.2h2.9V52.9c0-1.8,0.5-3.1,1.3-4.2c0.8-1.1,1.8-1.7,3.1-1.7c2.8,0,4.1,1.8,4.1,5.3v10.9h2.9V52.8c0-1.7,0.5-3,1.3-4.1
		c0.9-1.2,1.9-1.8,3.2-1.8c1.5,0,2.5,0.5,3.1,1.4c0.6,0.9,0.9,2.4,0.9,4.4v10.5h2.9l0-11.2C66.2,47.1,64.3,44.6,60.2,44.6z"/>
	<path class="st0" d="M92.9,44.5c-2.6,0-4.6,1.2-6,3.5h-0.1v-3h-2.9v18.2h2.9V52.8c0-1.7,0.6-3,1.5-4.1s2.1-1.7,3.6-1.7
		c2.9,0,4.2,1.9,4.2,5.8v10.4h2.9V52c0-2.5-0.6-4.3-1.6-5.6C96.4,45.1,95,44.5,92.9,44.5z"/>
	<path class="st0" d="M72.5,49.6c0-1.5,1.2-2.6,3.2-2.6c2.4,0,4.1,1.3,4.1,1.3v-2.9c0,0-1.7-0.9-4-0.9c-4,0-6.4,2.5-6.4,5.4
		c0,6,8.1,4.8,8.1,8.8c0,1.8-1.5,2.5-3.4,2.5c-2.8-0.2-4.8-1.8-4.8-1.8v3.1c0,0,1.6,1.1,4.6,1.1c4.6,0,6.6-2.6,6.6-5.3
		C80.7,52.2,72.5,53.7,72.5,49.6z"/>
</g>
</svg>
