<?xml version="1.0" encoding="utf-8"?>
<!-- Generator: Adobe Illustrator 24.0.2, SVG Export Plug-In . SVG Version: 6.00 Build 0)  -->
<svg version="1.1" id="Layer_1" xmlns="http://www.w3.org/2000/svg" xmlns:xlink="http://www.w3.org/1999/xlink" x="0px" y="0px"
	 viewBox="0 0 100 100" style="enable-background:new 0 0 100 100;" xml:space="preserve">
<style type="text/css">
	.st0{fill:#231F20;}
</style>
<title>NBC NEWS</title>
<g>
	<path class="st0" d="M30,53.7c-2.9,0-5.3-2.4-5.3-5.4S27,43,30,43c1,0,2.1,0.3,2.9,0.9l0,0l14.5,9.8L30,53.7L30,53.7L30,53.7z"/>
	<path class="st0" d="M31.5,41.7c-2.4-1.7-2.9-5-1.2-7.5c1.6-2.3,4.7-2.9,7-1.5c0.9,0.6,1.6,1.3,2,2.3l0,0l7.5,16.9L31.5,41.7z"/>
	<path class="st0" d="M70,53.7c2.9,0,5.3-2.4,5.3-5.3c0-2.9-2.4-5.3-5.3-5.3c-1,0-2.1,0.3-2.9,0.9l0,0l-14.6,9.8L70,53.7z"/>
	<path class="st0" d="M68.5,41.7c2.5-1.6,3.2-4.9,1.6-7.4s-4.9-3.2-7.4-1.6c-0.9,0.6-1.6,1.3-2,2.3l0,0l-7.5,17L68.5,41.7L68.5,41.7
		L68.5,41.7z"/>
	<path class="st0" d="M52.1,31.6c-0.9,0.3-1.5,1.3-1.2,2.3l0,0l2.2,15.8l7.5-17.2l0,0c1.2-2.7-0.1-5.8-2.7-7c-2.7-1.2-5.8,0-7,2.7
		c-0.4,0.9-0.5,1.8-0.4,2.7h1.4C52.7,31,53.1,31.2,52.1,31.6L52.1,31.6L52.1,31.6z"/>
	<path class="st0" d="M39.3,32.5c-1.2-2.7,0.1-5.8,2.7-7c2.7-1.2,5.8,0,7,2.7l0,0c0.4,0.9,0.6,2,0.4,3l0,0l-2.7,18.5L39.3,32.5
		L39.3,32.5L39.3,32.5z"/>
	<path class="st0" d="M72,74.3c-1,0.4-2.2,0.7-3.3,0.7c-5.1,0.3-9.5-3.7-9.8-8.9c-0.3-5.1,3.7-9.5,8.9-9.8c0.3,0,0.6,0,0.9,0
		c1.1,0,2.3,0.3,3.3,0.7l0,0v3.6l0,0c-2.8-1.8-6.6-1-8.4,1.8c-1.8,2.8-1,6.6,1.8,8.4c2,1.3,4.6,1.3,6.6,0l0,0L72,74.3L72,74.3z"/>
	<polygon class="st0" points="39.2,56.9 42.8,56.9 42.8,74.7 31.7,64.6 31.7,74.3 28.1,74.3 28.1,56.5 39.2,66.7 	"/>
	<path class="st0" d="M55,65c1.3-0.7,2.1-2.1,2.1-3.7c0-2.7-2.2-4.5-4.9-4.5h-7.2v17.5h8c2.7,0.1,5-2.1,5-4.8c0-0.1,0-0.1,0-0.2
		C58,67.4,56.8,65.7,55,65L55,65z M48.6,59.5h2.7c1.2,0.1,2.2,1.2,2.1,2.4c-0.1,1.1-1,2-2.1,2.1h-2.7V59.5L48.6,59.5L48.6,59.5z
		 M51.9,71.7h-3.3v-5h3.3l0,0c1.4,0,2.5,1.1,2.5,2.5C54.4,70.7,53.3,71.8,51.9,71.7C51.9,71.8,51.9,71.8,51.9,71.7L51.9,71.7z"/>
</g>
</svg>
