<svg id="Layer_1" xmlns="http://www.w3.org/2000/svg" viewBox="0 0 116 112.67"><defs><style>.cls-1{fill:#a0abb0;}.cls-2{fill:#fff;}.cls-3{fill:#6a7274;}</style></defs><title>TAG+AIB</title><path class="cls-1" d="M57,52.77H75.61A18.85,18.85,0,1,0,57,74.85Z"/><path class="cls-2" d="M60.7,72.71c-.39,0-3.2-1.34-6.34-2.17a35,35,0,0,1-6-2.12c-2-.83-2-1.73-2.88-1.73a4.52,4.52,0,0,1-3.46-1.79,2,2,0,0,1,.26-2.69c.32-.32.38-.26.12-1s-.51-2.17.13-2.75,1.28-.7,1.09-1.41a3,3,0,0,1,.45-2.37c.45-.45,1-.51.77-1.86s1-2.43,2.56-2.88,2.54.07,3.74.45,3.31,1.47,4.27.45a5.34,5.34,0,0,0,.83-4.29A7.52,7.52,0,0,1,57.05,42,5.79,5.79,0,0,1,60,39.28c1-.19,1.35-.07,1.29.58s-1.22,2.69-1.22,3.71.38,2.69.32,3.59A4.6,4.6,0,0,0,61,50c.58.83.59,2.69.26,4.74s-1.91,7.56-1.91,7.56Z"/><path class="cls-3" d="M55.7,58.89H53.09v-4h2.73V49.38h4.92v5.51h4.6v4h-4.6v8.17c0,3.33,2.62,3.81,4,3.81a4.67,4.67,0,0,0,.92-.08v4.4a9.29,9.29,0,0,1-1.55.12c-2.82,0-8.41-.84-8.41-7.62Z"/><path class="cls-3" d="M78.62,62.42h.63v-.16c0-2.89-1.15-4-3.72-4-.92,0-2.7.24-2.7,1.35v1.07H68.15V58.58c0-3.77,5.32-4.17,7.42-4.17,6.74,0,8.72,3.53,8.72,8.05V70a.8.8,0,0,0,.87.88h1.59v4.24H82.23c-1.87,0-2.58-1-2.58-2.22a8.47,8.47,0,0,1,0-.87h-.08a6.59,6.59,0,0,1-6.11,3.56c-3.6,0-6.89-2.26-6.89-6.3C66.61,62.94,75.33,62.42,78.62,62.42Zm-3.89,9.24c2.7,0,4.6-2.86,4.6-5.31v-.48h-.87c-2.62,0-6.78.36-6.78,3.17C71.68,70.39,72.67,71.66,74.73,71.66Z"/><path class="cls-3" d="M96.14,54.41c4.68,0,6.23,2.86,6.23,2.86h.07v-.52c0-.91.64-1.86,2.22-1.86h4.68v4.28H107.8a.78.78,0,0,0-.88.79V73.88c0,6.94-5.39,9.55-10.66,9.55a16.16,16.16,0,0,1-7.18-1.74l1.55-4a13,13,0,0,0,5.59,1.35c3,0,5.71-1.31,5.71-4.95v-1c0-.47,0-1.07,0-1.07h-.08c-1.19,1.71-2.93,2.62-5.63,2.62-5.79,0-9.08-4.68-9.08-10.23S90.31,54.41,96.14,54.41Zm5.91,10.11c0-4.6-2.3-5.83-5-5.83-3.05,0-4.71,2.22-4.71,5.63s1.78,6.15,5,6.15C99.75,70.47,102.05,69.08,102.05,64.52Z"/><path class="cls-1" d="M57,31A25,25,0,0,0,57,81V74.85A18.86,18.86,0,1,1,75.61,52.77h6.25A25.07,25.07,0,0,0,57,31Z"/><path class="cls-1" d="M57,102.06a46.07,46.07,0,1,1,46-49.29h6.12A52.17,52.17,0,1,0,57,108.17Z"/><path class="cls-1" d="M57,17.38A38.62,38.62,0,0,0,57,94.62V88.69A32.7,32.7,0,1,1,89.57,52.77h6A38.67,38.67,0,0,0,57,17.38Z"/><path class="cls-3" d="M59.53,99.89h.72V95.36h-.72v-.63H62a3.24,3.24,0,0,1,1.07.13,1.46,1.46,0,0,1,1,1.5A1.57,1.57,0,0,1,62.92,98v0a.68.68,0,0,1,.25.27L64,99.7c.09.15.19.19.4.19h.17v.64h-.49c-.49,0-.61-.09-.8-.44l-.9-1.58c-.15-.25-.25-.32-.61-.32h-.69v1.7h.72v.64H59.53Zm2.71-2.38a1,1,0,0,0,1-1.09.89.89,0,0,0-.54-.91,2.16,2.16,0,0,0-.72-.1h-1v2.1Z"/><path class="cls-3" d="M65.25,99.89H66V95.36h-.72v-.63h4.19v1.35h-.71v-.67H66.79v1.86h2.06v.67H66.79v1.91h2.08v-.69h.71v1.37H65.25Z"/><path class="cls-3" d="M73.44,94.63c1,0,2.22.41,2.22,1.14v.72h-.75v-.43c0-.48-.76-.72-1.45-.72a2.1,2.1,0,0,0-2.2,2.25,2.17,2.17,0,0,0,2.23,2.32c.52,0,1.55-.15,1.55-.72v-.76H73.91v-.64h1.88v1.62c0,.89-1.49,1.22-2.36,1.22a2.93,2.93,0,0,1-3-3A2.89,2.89,0,0,1,73.44,94.63Z"/><path class="cls-3" d="M76.72,99.89h.72V95.36h-.72v-.63H79v.63h-.73v4.53H79v.64H76.72Z"/><path class="cls-3" d="M80.61,98.79v.42c0,.43.55.68,1.16.68s1.15-.31,1.15-.88-.69-.9-1.4-1.18S80,97.22,80,96.19s.88-1.56,1.85-1.56,1.76.33,1.76,1v.69h-.76v-.41c0-.33-.52-.51-1-.51s-1,.26-1,.79.58.82,1.23,1.07c.85.32,1.69.65,1.69,1.72a1.75,1.75,0,0,1-2,1.69c-.91,0-1.92-.41-1.92-1.24v-.6Z"/><path class="cls-3" d="M85.75,99.89h.73V95.41H85.11v.9H84.4V94.73h5v1.58h-.71v-.9H87.3v4.48H88v.64H85.75Z"/><path class="cls-3" d="M90.05,99.89h.72V95.36h-.72v-.63h4.19v1.35h-.72v-.67H91.59v1.86h2v.67h-2v1.91h2.07v-.69h.72v1.37H90.05Z"/><path class="cls-3" d="M95.23,99.89H96V95.36h-.72v-.63h2.51a3.24,3.24,0,0,1,1.07.13,1.46,1.46,0,0,1,1,1.5A1.57,1.57,0,0,1,98.62,98v0a.68.68,0,0,1,.25.27l.82,1.43c.09.15.19.19.4.19h.17v.64h-.49c-.49,0-.61-.09-.81-.44l-.89-1.58c-.15-.25-.25-.32-.61-.32h-.69v1.7h.72v.64H95.23Zm2.71-2.38a1,1,0,0,0,1-1.09.89.89,0,0,0-.54-.91,2.16,2.16,0,0,0-.72-.1h-1v2.1Z"/><path class="cls-3" d="M101,99.89h.72V95.36H101v-.63h4.19v1.35h-.71v-.67h-1.94v1.86h2.05v.67h-2.05v1.91h2.08v-.69h.71v1.37H101Z"/><path class="cls-3" d="M106.14,99.89h.72V95.36h-.72v-.63h2.47a4.29,4.29,0,0,1,1.23.14,2.71,2.71,0,0,1,1.83,2.76,2.66,2.66,0,0,1-1.83,2.74,4,4,0,0,1-1.23.16h-2.47Zm2.42,0a2.79,2.79,0,0,0,1-.14,2.36,2.36,0,0,0,0-4.17,2.7,2.7,0,0,0-1-.13h-.88v4.44Z"/></svg>
