<?xml version="1.0" encoding="utf-8"?>
<!-- Generator: Adobe Illustrator 24.0.2, SVG Export Plug-In . SVG Version: 6.00 Build 0)  -->
<svg version="1.1" id="Layer_1" xmlns="http://www.w3.org/2000/svg" xmlns:xlink="http://www.w3.org/1999/xlink" x="0px" y="0px"
	 viewBox="0 0 100 100" style="enable-background:new 0 0 100 100;" xml:space="preserve">
<style type="text/css">
	.st0{fill:#414142;}
	.st1{fill:#019BFF;}
</style>
<title>USA TODAY</title>
<g>
	<path class="st0" d="M79.2,51.6l-3.4,8.9c0.1-0.5,0.1-1,0.1-1.5c0-7.2-7-7.4-7-7.4h-6.8v5.6c-1-3.5-4.2-5.9-8.1-5.9
		c-2.8,0-5.3,1.3-6.8,3.3v-3H37v3.6h3.1V67h4.1V55.1h2.7c-0.8,1.2-1.2,2.7-1.2,4.2c0,4.6,3.8,8.1,8.4,8.1c3.8,0,7.1-2.4,8.1-5.9V67
		h7.3c0,0,3-0.1,4.9-2.6l-1,2.6h4.2l1-2.6H84l1,2.6h4.2l-5.9-15.4C83.3,51.6,79.2,51.6,79.2,51.6z M54.1,63.5
		c-2.4,0-4.4-1.8-4.4-4.1s2-4.1,4.4-4.1s4.4,1.8,4.4,4.1C58.4,61.6,56.5,63.5,54.1,63.5z M67.7,63.6c-0.8,0-1.2-0.1-1.2-0.1v-8.4
		c0.3,0,0.6-0.1,1.2-0.1c0.6,0,3.8,0.1,3.8,4.2C71.6,63.4,68.5,63.6,67.7,63.6z M79.7,61.3l1.6-4.2h0l1.6,4.2H79.7z"/>
	<polygon class="st0" points="94.4,51.6 91.7,55.6 89,51.6 84.1,51.6 89.4,59.6 89.4,67 94,67 94,59.6 99.3,51.6 	"/>
	<path class="st0" d="M55.4,43.8c0,0,1.9,0.2,1.6,1.7c-0.3,1.5-1.7,1.2-2,1.2s-1.4,0-3.4-1.6l-1.8,3.2c0,0,2.1,2.2,6,2.2
		c1.8,0,3.1-0.6,4.1-1.5l-0.5,1.3h4.4l1-2.6h5.4l1,2.6h4.3l-5.8-15.5h-4.3l-3.8,9.7c-0.1-2.9-2.9-3.8-4.5-4.2
		c-2.2-0.6-2.1-1.3-2.1-1.5c0-0.2,0.2-1.2,1.5-1.2c1.3,0,2.9,1.2,2.9,1.2l1.7-3.1c0,0-2-1.5-5-1.5c-2.2,0-5.5,0.9-5.5,5.3
		C50.6,39.5,50.1,43.3,55.4,43.8z M67.5,40.4l1.4,3.9h-3L67.5,40.4z"/>
	<path class="st0" d="M64.8,50.5C64.8,50.5,64.8,50.5,64.8,50.5C64.8,50.5,64.8,50.5,64.8,50.5L64.8,50.5z"/>
	<path class="st0" d="M43.5,50c3.7,0,6.8-3.1,6.8-6.8v-8.5h-3.9v9c0,1.6-1.3,2.9-2.9,2.9s-2.9-1.3-2.9-2.9v-9h-3.9v8.5
		C36.7,47,39.8,50,43.5,50z"/>
	<ellipse class="st1" cx="17.9" cy="49.8" rx="17.3" ry="17.3"/>
</g>
</svg>
