<?xml version="1.0" encoding="UTF-8"?><svg id="Layer_1" xmlns="http://www.w3.org/2000/svg" viewBox="0 0 150 150"><defs><style>.cls-1{fill:#5b00d5;}</style></defs><path class="cls-1" d="m45.09,64.97v2.03c-1.16-1.51-3.32-2.54-5.82-2.54-5.91,0-10.31,5.22-10.31,11.34s4.36,11.34,10.31,11.34c2.5,0,4.66-.99,5.82-2.59v2.03h7.38v-21.61h-7.38Zm9.92-9.58v31.19h7.63v-11.52c0-2.24,1.08-3.58,2.8-3.58s2.63,1.16,2.63,3.32v11.78h7.63v-13.59c0-5.26-2.85-8.54-7.42-8.54-2.46,0-4.36.95-5.69,2.63v-11.69h-7.59Zm69.83,20.4c0,6.47-4.96,11.34-11.56,11.34s-11.56-4.87-11.56-11.34,4.96-11.34,11.56-11.34,11.56,4.87,11.56,11.34h0Zm-24.41,0c0,6.47-4.96,11.34-11.56,11.34s-11.56-4.87-11.56-11.34,4.96-11.34,11.56-11.34,11.56,4.87,11.56,11.34h0ZM4.28,64.97l9.23,21.78-3.32,7.85h8.11l12.29-29.63h-8.07l-5,12.68-4.96-12.68H4.28Zm36.53,15.27c-2.54,0-4.49-1.94-4.49-4.44s1.94-4.44,4.49-4.44,4.44,1.94,4.44,4.44-1.94,4.44-4.44,4.44h0Zm52.36-4.44c0-2.42-1.81-4.36-4.31-4.36s-4.31,1.94-4.31,4.36,1.81,4.36,4.31,4.36,4.31-1.94,4.31-4.36h0Zm24.41,0c0-2.42-1.81-4.36-4.31-4.36s-4.31,1.94-4.31,4.36,1.81,4.36,4.31,4.36,4.31-1.94,4.31-4.36h0Zm8.2,6.21c0,2.72,2.11,4.96,4.96,4.96s5.13-2.33,5.13-5.13-2.11-4.96-4.96-4.96-5.13,2.37-5.13,5.13h0Zm10.87-26.61l-8.11,19.58h9.06l8.11-19.58h-9.06Z"/></svg>