<svg width="205" height="149" viewBox="0 0 265 209" fill="none" xmlns="http://www.w3.org/2000/svg">
<g clip-path="url(#clip0)">
<path d="M137.254 19.9319C139.004 31.4636 134.149 41.7659 134.149 41.7659C134.149 41.7659 126.445 33.3734 124.695 21.8392C122.946 10.305 127.801 0.00515747 127.801 0.00515747C127.801 0.00515747 135.505 8.3951 137.254 19.9319Z" fill="#FD1E00"/>
<path d="M169.784 38.306C176.132 38.2361 181.315 41.6418 181.315 41.6418C181.315 41.6418 176.207 45.1587 169.859 45.226C163.511 45.2933 158.327 41.8902 158.327 41.8902C158.327 41.8902 163.436 38.3759 169.784 38.306Z" fill="#FD1E00"/>
<path d="M151.933 20.7756C146.024 27.2686 144.774 35.7543 144.774 35.7543C144.774 35.7543 153.102 33.7098 159.008 27.2142C164.913 20.7186 166.169 12.2381 166.169 12.2381C166.169 12.2381 157.841 14.2825 151.933 20.7756Z" fill="#46455B"/>
<path opacity="0.1" d="M132.5 208.594C205.678 208.594 265 205.872 265 202.513C265 199.154 205.678 196.431 132.5 196.431C59.3223 196.431 0 199.154 0 202.513C0 205.872 59.3223 208.594 132.5 208.594Z" fill="#FD1E00"/>
<path d="M53.9058 141.232H92.8897V200.647H50.7227V141.232H53.9058Z" fill="#EEEFF0"/>
<path d="M87.5638 149.751H56.0459V156.565H87.5638V149.751Z" fill="#FD1E00"/>
<path d="M84.7974 164.978H58.8149V165.405H84.7974V164.978Z" fill="#373E46"/>
<path d="M84.7974 167.32H58.8149V167.747H84.7974V167.32Z" fill="#373E46"/>
<path d="M84.7974 169.662H58.8149V170.089H84.7974V169.662Z" fill="#373E46"/>
<path d="M84.7974 172.004H58.8149V172.431H84.7974V172.004Z" fill="#373E46"/>
<path d="M84.7974 174.346H58.8149V174.773H84.7974V174.346Z" fill="#373E46"/>
<path d="M84.7974 176.691H58.8149V177.118H84.7974V176.691Z" fill="#373E46"/>
<path d="M84.7974 179.033H58.8149V179.46H84.7974V179.033Z" fill="#373E46"/>
<path d="M84.7974 181.375H58.8149V181.802H84.7974V181.375Z" fill="#373E46"/>
<path d="M84.7974 183.717H58.8149V184.144H84.7974V183.717Z" fill="#373E46"/>
<path d="M84.7974 186.059H58.8149V186.486H84.7974V186.059Z" fill="#373E46"/>
<path d="M84.7974 188.404H58.8149V188.831H84.7974V188.404Z" fill="#373E46"/>
<path d="M114.6 141.232H153.584V200.647H111.417V141.232H114.6Z" fill="#EEEFF0"/>
<path d="M148.258 149.751H116.74V156.565H148.258V149.751Z" fill="#FD1E00"/>
<path d="M145.491 164.978H119.509V165.405H145.491V164.978Z" fill="#373E46"/>
<path d="M145.491 167.32H119.509V167.747H145.491V167.32Z" fill="#373E46"/>
<path d="M145.491 169.662H119.509V170.089H145.491V169.662Z" fill="#373E46"/>
<path d="M145.491 172.004H119.509V172.431H145.491V172.004Z" fill="#373E46"/>
<path d="M145.491 174.346H119.509V174.773H145.491V174.346Z" fill="#373E46"/>
<path d="M145.491 176.691H119.509V177.118H145.491V176.691Z" fill="#373E46"/>
<path d="M145.491 179.033H119.509V179.46H145.491V179.033Z" fill="#373E46"/>
<path d="M145.491 181.375H119.509V181.802H145.491V181.375Z" fill="#373E46"/>
<path d="M145.491 183.717H119.509V184.144H145.491V183.717Z" fill="#373E46"/>
<path d="M145.491 186.059H119.509V186.486H145.491V186.059Z" fill="#373E46"/>
<path d="M145.491 188.404H119.509V188.831H145.491V188.404Z" fill="#373E46"/>
<path d="M175.293 141.232H214.277V200.647H172.11V141.232H175.293Z" fill="#EEEFF0"/>
<path d="M208.954 149.751H177.436V156.565H208.954V149.751Z" fill="#FD1E00"/>
<path d="M206.185 164.978H180.203V165.405H206.185V164.978Z" fill="#373E46"/>
<path d="M206.185 167.32H180.203V167.747H206.185V167.32Z" fill="#373E46"/>
<path d="M206.185 169.662H180.203V170.089H206.185V169.662Z" fill="#373E46"/>
<path d="M206.185 172.004H180.203V172.431H206.185V172.004Z" fill="#373E46"/>
<path d="M206.185 174.346H180.203V174.773H206.185V174.346Z" fill="#373E46"/>
<path d="M206.185 176.691H180.203V177.118H206.185V176.691Z" fill="#373E46"/>
<path d="M206.185 179.033H180.203V179.46H206.185V179.033Z" fill="#373E46"/>
<path d="M206.185 181.375H180.203V181.802H206.185V181.375Z" fill="#373E46"/>
<path d="M206.185 183.717H180.203V184.144H206.185V183.717Z" fill="#373E46"/>
<path d="M206.185 186.059H180.203V186.486H206.185V186.059Z" fill="#373E46"/>
<path d="M206.185 188.404H180.203V188.831H206.185V188.404Z" fill="#373E46"/>
<path d="M132.5 141.232V100.343L71.8062 141.232" stroke="#373E46" stroke-miterlimit="10"/>
<path d="M193.194 141.232L132.5 100.343" stroke="#373E46" stroke-miterlimit="10"/>
<g opacity="0.1">
<path opacity="0.1" d="M103.498 22.6544H98.3398V118.924H166.66V22.6544H103.498Z" fill="black"/>
</g>
<path d="M104.667 24.5953H165.284V116.983H99.7168V24.5953H104.667Z" fill="white"/>
<path d="M157.005 37.8401H107.995V48.4376H157.005V37.8401Z" fill="#FD1E00"/>
<path d="M152.701 61.5167H112.301V62.1792H152.701V61.5167Z" fill="#373E46"/>
<path d="M152.701 65.1579H112.301V65.8204H152.701V65.1579Z" fill="#373E46"/>
<path d="M152.701 68.8016H112.301V69.4641H152.701V68.8016Z" fill="#373E46"/>
<path d="M152.701 72.4428H112.301V73.1053H152.701V72.4428Z" fill="#373E46"/>
<path d="M152.701 76.0866H112.301V76.7491H152.701V76.0866Z" fill="#373E46"/>
<path d="M152.701 79.7303H112.301V80.3929H152.701V79.7303Z" fill="#373E46"/>
<path d="M152.701 83.3715H112.301V84.034H152.701V83.3715Z" fill="#373E46"/>
<path d="M152.701 87.0152H112.301V87.6777H152.701V87.0152Z" fill="#373E46"/>
<path d="M152.701 90.6564H112.301V91.3189H152.701V90.6564Z" fill="#373E46"/>
<path d="M152.701 94.3002H112.301V94.9627H152.701V94.3002Z" fill="#373E46"/>
<path d="M152.701 97.9413H112.301V98.6038H152.701V97.9413Z" fill="#373E46"/>
<path d="M34.3256 181.647C34.3696 182.682 33.7149 183.59 33.0912 184.41C32.8102 184.795 32.5568 185.199 32.3329 185.619C31.6549 186.825 30.1979 187.4 29.4086 188.538C29.2197 188.815 29.0722 189.118 28.904 189.41C28.3326 190.413 27.6148 191.324 26.7741 192.115L25.3611 193.45C24.9324 193.805 24.5727 194.236 24.3001 194.721C24.0634 195.318 23.9695 195.962 24.0258 196.602V196.814C24.0258 196.863 24.0258 196.91 24.0258 196.959C24.0271 197.743 24.1138 198.524 24.2846 199.288C24.3777 199.522 24.3922 199.78 24.326 200.023C24.2606 200.142 24.1707 200.245 24.0622 200.326C23.9538 200.408 23.8294 200.465 23.6971 200.494C23.425 200.608 23.1227 200.628 22.8379 200.551C22.5711 200.429 22.3474 200.228 22.1962 199.977C21.3629 198.833 21.0264 197.417 20.5295 196.095C20.4894 195.953 20.4859 195.803 20.5193 195.659C20.5528 195.515 20.6222 195.382 20.7211 195.272C20.9187 195.055 21.1361 194.856 21.3706 194.679C22.354 193.82 22.8121 192.524 23.1821 191.274C23.5522 190.024 23.9197 188.717 24.7789 187.736C25.3353 187.099 26.0728 186.641 26.6887 186.069C28.2415 184.636 29.0178 182.547 29.4112 180.477C29.8869 180.387 30.3748 180.38 30.8526 180.459L33.394 180.795C33.6736 180.799 33.9422 180.905 34.1496 181.093C34.267 181.253 34.3288 181.448 34.3256 181.647V181.647Z" fill="#EFB7B9"/>
<path d="M45.1769 183.745C45.1236 184.129 44.9886 184.497 44.7809 184.825C44.4748 185.295 44.1285 185.739 43.7458 186.15C42.7753 187.265 42.6097 188.851 41.9912 190.194C41.7919 190.629 41.5409 191.041 41.339 191.488C40.8059 192.63 40.6092 193.885 40.4928 195.148C40.4798 195.308 40.4643 195.471 40.454 195.634C40.4436 195.797 40.4229 196.035 40.4074 196.235C40.3686 196.752 40.3349 197.319 40.5575 197.787C40.6739 198.046 40.8603 198.238 40.868 198.509C40.485 198.882 39.8329 198.838 39.3878 198.538C38.9639 198.206 38.639 197.765 38.4484 197.262C38.0387 196.369 37.7422 195.428 37.5659 194.462C37.4986 194.097 37.4675 193.665 37.7315 193.401C37.8785 193.285 38.0332 193.18 38.1947 193.085C38.5182 192.826 38.6114 192.386 38.6839 191.98C38.9323 190.584 39.1816 189.189 39.4318 187.795C39.4866 187.454 39.5601 187.115 39.6517 186.781C39.8639 186.033 40.1874 185.2 40.793 184.711C40.8711 184.639 40.9296 184.548 40.9631 184.447C40.9966 184.346 41.004 184.238 40.9845 184.134C40.941 183.925 40.8603 183.726 40.7464 183.546C40.2961 182.739 39.7552 181.926 38.9349 181.476C39.7798 180.769 40.7437 180.218 41.7816 179.848C41.9636 179.762 42.1659 179.727 42.3664 179.747C42.4742 179.771 42.5774 179.812 42.6718 179.869C43.2123 180.211 43.6852 180.649 44.0667 181.163C44.6696 181.918 45.2882 182.79 45.1769 183.745Z" fill="#EFB7B9"/>
<path d="M25.3977 200.248C25.146 200.009 24.8544 199.815 24.536 199.676C24.4649 199.633 24.3855 199.606 24.3031 199.596C24.1038 199.596 23.9537 199.767 23.7855 199.855C23.6464 199.93 23.4907 199.97 23.3326 199.97C23.1745 199.97 23.0188 199.93 22.8797 199.855C22.6045 199.701 22.373 199.479 22.2069 199.211C21.8446 198.675 21.7721 198.142 21.622 197.554L23.2032 197.257C23.4906 197.189 23.7681 197.085 24.0287 196.946C24.0287 196.897 24.0287 196.851 24.0287 196.801V196.589C23.7363 196.675 23.1178 196.962 22.9703 196.995C22.4944 197.103 22.012 197.18 21.5262 197.226C21.4512 197.076 21.3425 196.946 21.2675 196.799C21.0898 196.505 20.9769 196.177 20.9362 195.836C20.9329 195.701 20.9066 195.567 20.8586 195.44C20.8335 195.377 20.7887 195.324 20.7307 195.289C20.6728 195.254 20.605 195.239 20.5377 195.246C20.4859 195.259 20.4374 195.283 20.3953 195.316C19.9521 195.623 19.6085 196.053 19.4068 196.553C19.1117 197.293 19.148 198.121 19.0367 198.91C18.9461 199.503 18.765 200.091 18.796 200.688C18.7954 200.72 18.8044 200.752 18.8219 200.779C18.8486 200.805 18.8832 200.821 18.9202 200.826C19.2489 200.898 19.6293 200.963 19.8959 200.758C20.1624 200.554 20.2012 200.166 20.253 199.829C20.3217 199.38 20.4569 198.944 20.6541 198.535C21.0621 199.035 21.2754 199.666 21.2545 200.311C21.2545 200.665 21.2131 201.071 21.4564 201.33C21.5758 201.445 21.7215 201.528 21.8808 201.573C22.2056 201.686 22.5427 201.759 22.8849 201.791C23.5067 201.827 24.1308 201.795 24.7456 201.695C24.9397 201.672 25.1363 201.646 25.3279 201.604C25.4266 201.587 25.5202 201.548 25.6022 201.491C25.6906 201.408 25.7473 201.297 25.7626 201.177C25.776 201.005 25.7501 200.832 25.6869 200.671C25.6237 200.51 25.5248 200.366 25.3977 200.248V200.248Z" fill="#464353"/>
<path d="M41.6959 198.269C41.542 198.131 41.3674 198.018 41.1784 197.935C41.0272 197.841 40.8561 197.784 40.6789 197.769C40.4796 197.789 40.2861 197.848 40.1096 197.943C40.0208 197.989 39.9228 198.016 39.8226 198.02C39.7224 198.025 39.6225 198.007 39.5299 197.968C39.3917 197.868 39.2907 197.724 39.2426 197.56C39.0201 197.042 38.8544 196.478 38.6604 195.94C38.7055 195.868 38.7727 195.812 38.8519 195.782C38.912 195.763 38.9752 195.755 39.0382 195.758C39.5071 195.773 39.9759 195.727 40.4331 195.621C40.4331 195.458 40.4589 195.295 40.4719 195.135C40.1443 195.104 39.8139 195.132 39.4962 195.218C39.2764 195.303 39.0399 195.335 38.8053 195.313C38.6448 195.28 38.4921 195.181 38.3369 195.161C38.2644 195.023 38.1842 194.902 38.1065 194.757C37.9125 194.413 37.8478 194.012 37.6614 193.675C37.6323 193.618 37.589 193.569 37.5355 193.533C37.482 193.497 37.4202 193.476 37.3561 193.471C37.2875 193.48 37.2215 193.503 37.162 193.538C37.1024 193.573 37.0505 193.62 37.0093 193.675C36.6742 193.976 36.3971 194.336 36.1915 194.736C36.1146 194.922 36.0557 195.114 36.0155 195.311C35.7567 196.413 35.6324 197.543 35.6455 198.675C35.9318 198.767 36.2345 198.796 36.5331 198.76C36.6867 197.998 36.8738 197.243 37.0947 196.496C37.0967 196.482 37.1013 196.469 37.1084 196.457C37.1155 196.445 37.1249 196.434 37.1361 196.426C37.1853 196.4 37.2344 196.452 37.2629 196.499C37.5332 196.901 37.7514 197.335 37.9125 197.792C37.9775 198.126 38.0899 198.448 38.2463 198.75C38.4484 199.026 38.7402 199.224 39.0718 199.309C39.4019 199.392 39.7407 199.436 40.0811 199.438L40.5987 199.464C40.8719 199.497 41.1488 199.476 41.4139 199.402C41.5467 199.364 41.6658 199.288 41.7575 199.185C41.8491 199.081 41.9094 198.954 41.9314 198.817C41.9339 198.714 41.9142 198.612 41.8735 198.517C41.8329 198.423 41.7723 198.338 41.6959 198.269V198.269Z" fill="#464353"/>
<path d="M44.0663 180.777C43.8384 180.97 43.5616 181.095 43.2666 181.139L42.3893 181.354C42.339 181.358 42.2899 181.372 42.2453 181.395C42.2007 181.419 42.1616 181.452 42.1305 181.491C42.0813 181.585 42.115 181.698 42.0917 181.799C42.0825 181.839 42.0638 181.877 42.0374 181.908C41.9129 182.018 41.7505 182.076 41.5845 182.068C41.4402 182.063 41.2962 182.085 41.1601 182.133C41.1032 182.158 41.054 182.197 41.0177 182.247C40.9737 182.312 40.953 182.392 40.9064 182.451C40.8272 182.538 40.72 182.594 40.6037 182.609C40.4836 182.637 40.3616 182.656 40.2388 182.666C39.7514 182.71 39.2613 182.62 38.8206 182.407C38.7175 182.335 38.5908 182.305 38.4661 182.322C38.3932 182.349 38.3313 182.399 38.2901 182.464C38.2447 182.534 38.1955 182.602 38.1426 182.666C37.9174 182.91 37.5241 182.845 37.2006 182.778C36.9987 182.734 36.7969 182.697 36.595 182.664C35.3798 182.496 34.1547 182.409 32.928 182.405C31.3364 182.356 29.7475 182.312 28.2103 181.936C27.8738 181.856 27.4675 181.678 27.4856 181.318C27.4856 181.121 27.6513 180.953 27.6513 180.756C27.6513 180.423 27.2398 180.239 26.9111 180.187C27.0302 178.355 28.13 176.753 28.702 175.011C28.8443 174.579 28.9607 174.137 29.1108 173.717C29.807 171.792 31.339 170.312 32.6123 168.707C32.8083 168.483 32.9688 168.23 33.0884 167.957C33.1977 167.63 33.2544 167.289 33.2566 166.945L33.3265 165.736C35.1918 165.608 37.0659 165.724 38.9008 166.083C39.0222 166.096 39.135 166.152 39.2191 166.241C39.2584 166.305 39.2823 166.378 39.289 166.453C39.3615 166.893 39.4106 167.338 39.4391 167.783C39.4411 167.881 39.455 167.979 39.4805 168.073C39.5302 168.193 39.5983 168.303 39.6824 168.402C40.7615 169.771 41.4059 171.445 41.9235 173.135C42.4411 174.825 42.8525 176.543 43.5047 178.184C43.7272 178.751 44.0223 179.387 44.0792 179.996C44.1808 180.101 44.2366 180.243 44.2341 180.389C44.2317 180.535 44.1713 180.675 44.0663 180.777V180.777Z" fill="#464353"/>
<path opacity="0.1" d="M36.606 182.656C35.3908 182.488 34.1657 182.401 32.939 182.397L33.0399 178.994C33.0632 178.241 33.0865 177.485 33.1771 176.737C33.3039 175.674 33.5626 174.628 33.6946 173.567C33.7683 172.958 33.802 172.344 33.7956 171.73C33.7597 171.107 33.777 170.482 33.8473 169.861C33.9327 169.344 34.1527 168.637 34.6237 168.36C34.9368 168.787 34.4555 169.986 34.4011 170.498C34.2847 171.567 34.5719 172.63 34.8204 173.673C35.118 174.926 35.3612 176.191 35.5967 177.457C35.9366 179.186 36.273 180.919 36.606 182.656Z" fill="black"/>
<path opacity="0.1" d="M40.2492 182.666C39.7618 182.71 39.2718 182.62 38.8311 182.407C38.728 182.335 38.6013 182.305 38.4765 182.322C38.4037 182.349 38.3418 182.399 38.3006 182.464C37.8839 180.487 37.9072 178.427 37.576 176.429C37.4595 175.715 37.2965 174.988 37.4336 174.281C37.5811 173.523 38.0599 172.866 38.2462 172.118C38.3454 171.623 38.3802 171.118 38.3497 170.614C38.3248 170.167 38.2159 169.728 38.0288 169.32C38.4662 169.393 38.8233 169.823 38.9993 170.211C39.1888 170.696 39.2854 171.214 39.284 171.735C39.3538 172.993 39.3642 174.248 39.3461 175.506C39.3227 176.092 39.3357 176.678 39.3849 177.263C39.4496 177.84 39.5919 178.404 39.6437 178.981C39.698 179.675 39.6178 180.384 39.786 181.051C39.9154 181.59 40.2104 182.133 40.2492 182.666Z" fill="black"/>
<path opacity="0.1" d="M42.048 181.908C41.9235 182.018 41.7612 182.076 41.5951 182.068C41.4508 182.063 41.3069 182.085 41.1707 182.133L40.4409 177.625C40.3404 177.072 40.2704 176.514 40.2313 175.953C40.2003 175.304 40.2494 174.659 40.2054 174.005C40.1235 173.211 39.9737 172.426 39.7577 171.657C39.6439 171.199 39.1263 169.828 39.4161 169.44C39.869 169.732 40.1459 170.358 40.2986 170.86C40.4572 171.441 40.5577 172.035 40.5988 172.636C40.7127 173.792 40.8282 174.95 40.9456 176.111C41.1371 178.037 41.3363 179.993 42.0066 181.804C42.0221 181.836 42.0351 181.872 42.048 181.908Z" fill="black"/>
<path d="M45.8626 160.571C46.1861 160.297 46.5122 160.02 46.8124 159.717C47.2326 159.27 47.6209 158.795 47.9744 158.294C48.3709 157.794 48.7006 157.245 48.9552 156.661C49.214 155.98 49.302 155.206 49.7626 154.642C49.8157 154.569 49.8884 154.512 49.9722 154.479C50.231 154.396 50.4303 154.738 50.4898 154.997C50.7356 156.329 50.1508 157.659 49.5788 158.878C49.4137 159.296 49.1714 159.679 48.8646 160.007C48.6853 160.161 48.4978 160.305 48.303 160.439C48.0155 160.672 47.7504 160.932 47.5111 161.215C47.1022 161.681 46.7089 162.165 46.3388 162.664C45.9062 163.303 45.4261 163.909 44.9025 164.476C44.3752 165.045 43.678 165.428 42.915 165.568C43.1324 165.537 43.06 164.259 43.0367 164.098C43.003 163.863 42.8426 163.581 42.8374 163.361C42.8374 163.081 42.9461 163.04 43.179 162.843L45.8626 160.571Z" fill="#EFB7B9"/>
<path opacity="0.1" d="M45.8626 160.571C46.1861 160.297 46.5122 160.02 46.8124 159.717C47.2326 159.27 47.6209 158.795 47.9744 158.294C48.3709 157.794 48.7006 157.245 48.9552 156.661C49.214 155.98 49.302 155.206 49.7626 154.642C49.8157 154.569 49.8884 154.512 49.9722 154.479C50.231 154.396 50.4303 154.738 50.4898 154.997C50.7356 156.329 50.1508 157.659 49.5788 158.878C49.4137 159.296 49.1714 159.679 48.8646 160.007C48.6853 160.161 48.4978 160.305 48.303 160.439C48.0155 160.672 47.7504 160.932 47.5111 161.215C47.1022 161.681 46.7089 162.165 46.3388 162.664C45.9062 163.303 45.4261 163.909 44.9025 164.476C44.3752 165.045 43.678 165.428 42.915 165.568C43.1324 165.537 43.06 164.259 43.0367 164.098C43.003 163.863 42.8426 163.581 42.8374 163.361C42.8374 163.081 42.9461 163.04 43.179 162.843L45.8626 160.571Z" fill="black"/>
<path d="M36.7168 152.507C36.7168 152.507 35.9715 156.205 35.1149 156.831C34.2583 157.458 39.7964 158.185 39.7964 158.185C39.7964 158.185 39.9206 155.229 41.3983 153.873C42.876 152.517 36.7168 152.507 36.7168 152.507Z" fill="#EFB7B9"/>
<path d="M35.2446 156.456C34.8772 156.51 34.5411 156.693 34.2975 156.974C33.7178 157.6 33.6013 158.552 33.8006 159.383C34.0457 160.203 34.4396 160.972 34.9626 161.65C35.5642 162.59 36.307 163.431 37.1648 164.145C37.6434 164.491 38.1401 164.812 38.6529 165.105C39.5035 165.628 40.321 166.202 41.101 166.826C41.2731 166.98 41.4688 167.104 41.6807 167.196C41.8632 167.252 42.054 167.277 42.2449 167.268C42.8921 167.263 43.5301 167.114 44.1133 166.834C44.168 166.813 44.2162 166.778 44.2531 166.733C44.2736 166.685 44.2843 166.633 44.2843 166.581C44.2843 166.529 44.2736 166.478 44.2531 166.43C43.9037 165.027 44.574 163.433 43.9089 162.149C43.1869 162.382 42.3924 162.636 41.6704 162.871C41.5593 162.915 41.4403 162.936 41.321 162.931C41.1773 162.901 41.0458 162.829 40.9432 162.724C40.1668 162.046 39.6647 161.101 39.2145 160.17C38.7642 159.238 38.3268 158.273 37.6229 157.515C36.919 156.756 36.2746 156.347 35.2446 156.456Z" fill="#FD1E00"/>
<path opacity="0.1" d="M35.2446 156.456C34.8772 156.51 34.5411 156.693 34.2975 156.974C33.7178 157.6 33.6013 158.552 33.8006 159.383C34.0457 160.203 34.4396 160.972 34.9626 161.65C35.5642 162.59 36.307 163.431 37.1648 164.145C37.6434 164.491 38.1401 164.812 38.6529 165.105C39.5035 165.628 40.321 166.202 41.101 166.826C41.2731 166.98 41.4688 167.104 41.6807 167.196C41.8632 167.252 42.054 167.277 42.2449 167.268C42.8921 167.263 43.5301 167.114 44.1133 166.834C44.168 166.813 44.2162 166.778 44.2531 166.733C44.2736 166.685 44.2843 166.633 44.2843 166.581C44.2843 166.529 44.2736 166.478 44.2531 166.43C43.9037 165.027 44.574 163.433 43.9089 162.149C43.1869 162.382 42.3924 162.636 41.6704 162.871C41.5593 162.915 41.4403 162.936 41.321 162.931C41.1773 162.901 41.0458 162.829 40.9432 162.724C40.1668 162.046 39.6647 161.101 39.2145 160.17C38.7642 159.238 38.3268 158.273 37.6229 157.515C36.919 156.756 36.2746 156.347 35.2446 156.456Z" fill="black"/>
<path d="M39.613 155.279C41.654 155.279 43.3085 153.624 43.3085 151.583C43.3085 149.542 41.654 147.888 39.613 147.888C37.572 147.888 35.9175 149.542 35.9175 151.583C35.9175 153.624 37.572 155.279 39.613 155.279Z" fill="#EFB7B9"/>
<path d="M41.0883 162.222V162.237C40.8735 162.633 40.5552 162.967 40.3352 163.361C40.1076 163.819 39.953 164.311 39.8772 164.818C39.8073 165.154 39.7452 165.49 39.6883 165.829C39.6313 166.168 39.5744 166.515 39.5226 166.865C38.4072 166.487 37.1702 167.123 36.0134 166.89C35.6746 166.788 35.3286 166.71 34.9783 166.658C34.7195 166.658 34.4607 166.704 34.2019 166.681C33.7749 166.639 33.3505 166.37 32.9416 166.507C32.7605 166.57 32.5353 166.699 32.4033 166.557C32.3734 166.519 32.3506 166.476 32.3361 166.43C32.202 166.148 32.1542 165.833 32.1989 165.524C32.2957 165.277 32.4254 165.045 32.5845 164.833C32.7822 164.417 32.8848 163.961 32.8847 163.5C32.9597 162.313 32.9571 161.114 33.1435 159.939C33.3298 158.765 33.749 157.595 34.5435 156.707C34.9103 156.246 35.4383 155.941 36.0212 155.853C38.1588 155.68 39.8849 156.857 40.8192 158.728C41.3704 159.81 41.6654 161.148 41.0883 162.222Z" fill="#FD1E00"/>
<path d="M47.3402 161.065C47.6663 160.788 47.9923 160.514 48.2899 160.209C48.7109 159.763 49.0992 159.289 49.4519 158.788C49.8502 158.288 50.1808 157.738 50.4353 157.152C50.6941 156.474 50.7795 155.7 51.2427 155.136C51.2941 155.063 51.3661 155.006 51.4498 154.973C51.7085 154.89 51.9078 155.232 51.9673 155.491C52.2261 156.824 51.6257 158.156 51.0538 159.373C50.8906 159.791 50.649 160.174 50.3421 160.501C50.1688 160.661 49.9669 160.788 49.7806 160.931C49.4918 161.163 49.2265 161.423 48.9887 161.707C48.5781 162.176 48.1864 162.659 47.8138 163.156C47.3812 163.795 46.902 164.4 46.3801 164.968C45.8512 165.536 45.1535 165.92 44.39 166.062C44.61 166.031 44.5375 164.75 44.5142 164.59C44.4344 164.349 44.3678 164.103 44.3149 163.855C44.3149 163.573 44.4236 163.531 44.654 163.337L47.3402 161.065Z" fill="#EFB7B9"/>
<path opacity="0.1" d="M40.7178 162.346V162.362C40.5056 162.758 40.1847 163.089 39.9647 163.485C39.7365 163.943 39.582 164.435 39.5067 164.942C39.4394 165.278 39.3747 165.615 39.3178 165.954C38.871 165.7 38.439 165.421 38.0238 165.118C37.1645 164.405 36.4207 163.563 35.8189 162.623C35.296 161.945 34.9021 161.177 34.657 160.356C34.4577 159.525 34.5742 158.573 35.1564 157.947C35.4006 157.671 35.7358 157.492 36.101 157.442C37.1362 157.331 37.7831 157.729 38.487 158.477C39.1909 159.225 39.6283 160.198 40.0786 161.132C40.2804 161.549 40.4849 161.958 40.7178 162.346Z" fill="black"/>
<path d="M36.7222 156.948C36.3556 157.002 36.0206 157.186 35.7776 157.465C35.1953 158.092 35.0789 159.044 35.2807 159.875C35.4826 160.705 35.9536 161.427 36.4401 162.142C37.0432 163.081 37.7868 163.922 38.645 164.636C39.1227 164.982 39.6185 165.302 40.1304 165.594C40.9814 166.116 41.799 166.691 42.5786 167.315C42.7498 167.47 42.9458 167.595 43.1583 167.685C43.3415 167.742 43.5332 167.768 43.725 167.76C44.3722 167.752 45.0098 167.602 45.5935 167.323C45.6484 167.303 45.6968 167.268 45.7332 167.222C45.7537 167.174 45.7643 167.123 45.7643 167.072C45.7643 167.02 45.7537 166.969 45.7332 166.922C45.3864 165.516 46.0567 163.922 45.3916 162.639L43.1505 163.361C43.0398 163.406 42.9205 163.426 42.8011 163.42C42.6585 163.389 42.5275 163.318 42.4233 163.216C41.6469 162.538 41.1449 161.593 40.6946 160.659C40.2443 159.725 39.8095 158.764 39.103 158.006C38.3965 157.248 37.7522 156.831 36.7222 156.948Z" fill="#FD1E00"/>
<path d="M42.0014 149C42.3611 148.594 42.2834 147.934 41.9703 147.492C41.6219 147.069 41.1785 146.735 40.6764 146.516C39.9129 146.11 39.0356 145.719 38.2153 145.998C37.9008 146.126 37.5993 146.282 37.3147 146.467C36.7712 146.77 36.1709 146.961 35.617 147.243C35.0414 147.496 34.5726 147.943 34.292 148.506C34.0591 149.068 34.1316 149.702 34.1937 150.318C34.3123 151.253 34.3184 152.199 34.2118 153.136C34.102 154.078 33.7389 154.972 33.1611 155.724C32.7445 156.241 32.1933 156.661 31.9422 157.276C31.8196 157.628 31.7507 157.996 31.7378 158.369L31.6032 159.958C31.5515 160.592 31.4712 161.283 31.0132 161.725C31.4987 161.675 31.969 161.527 32.3959 161.29C32.8228 161.054 33.1975 160.733 33.4976 160.348C33.966 159.831 34.4525 159.282 34.5922 158.599C34.6983 158.081 34.6104 157.509 34.9209 157.093C35.2858 156.601 36.0647 156.596 36.5823 156.922C37.0999 157.248 37.4182 157.807 37.6951 158.353C37.972 158.899 38.2489 159.471 38.7303 159.857C39.1221 160.155 39.5834 160.349 40.0708 160.421C40.2306 160.468 40.3987 160.481 40.5638 160.458C40.729 160.436 40.8873 160.378 41.0283 160.289C41.3829 160.004 41.3466 159.458 41.2328 159.018C41.0801 158.436 40.8446 157.83 41.0102 157.248C41.0646 157.057 41.1603 156.875 41.2198 156.684C41.2924 156.405 41.3263 156.118 41.3208 155.83C41.3544 154.386 41.4217 152.83 40.9533 151.43C40.8032 150.985 40.3995 150.561 40.6065 150.08C40.8679 149.469 41.6106 149.448 42.0014 149Z" fill="#464353"/>
<g opacity="0.1">
<path opacity="0.1" d="M34.2898 151.474C34.3092 150.792 34.2807 150.109 34.2044 149.43C34.2044 149.298 34.1759 149.171 34.1656 149.029C34.1321 149.451 34.1451 149.875 34.2044 150.294C34.2432 150.685 34.2743 151.078 34.2898 151.474Z" fill="black"/>
<path opacity="0.1" d="M41.0337 159.401C40.8924 159.489 40.7341 159.547 40.5691 159.57C40.404 159.592 40.236 159.58 40.0762 159.533C39.5888 159.462 39.1275 159.267 38.7356 158.969C38.2595 158.581 37.9852 158.009 37.7005 157.465C37.4158 156.922 37.1053 156.358 36.5877 156.034C36.0701 155.711 35.2938 155.713 34.9263 156.205C34.6157 156.622 34.7037 157.201 34.5976 157.711C34.4579 158.394 33.9713 158.946 33.5029 159.461C33.2662 159.742 32.9979 159.996 32.7033 160.216C32.3353 160.451 31.9301 160.62 31.5051 160.718C31.4462 161.087 31.2765 161.429 31.0186 161.699C31.504 161.649 31.9744 161.501 32.4013 161.264C32.8282 161.028 33.2029 160.707 33.5029 160.322C33.9713 159.805 34.4579 159.256 34.5976 158.573C34.7037 158.055 34.6157 157.484 34.9263 157.067C35.2912 156.575 36.0701 156.57 36.5877 156.896C37.1053 157.222 37.4236 157.781 37.7005 158.327C37.9774 158.873 38.2543 159.445 38.7356 159.831C39.1275 160.129 39.5888 160.323 40.0762 160.395C40.236 160.442 40.4041 160.455 40.5692 160.432C40.7343 160.41 40.8927 160.352 41.0337 160.263C41.3649 160.004 41.3546 159.487 41.2588 159.078C41.2146 159.204 41.1368 159.316 41.0337 159.401V159.401Z" fill="black"/>
<path opacity="0.1" d="M42.0013 148.139C41.6106 148.584 40.8678 148.607 40.6116 149.2C40.5674 149.321 40.5502 149.45 40.5614 149.578C40.5726 149.707 40.6118 149.831 40.6763 149.942C40.9739 149.464 41.639 149.425 42.0013 149C42.1243 148.843 42.2041 148.657 42.2327 148.459C42.2613 148.262 42.2377 148.06 42.1644 147.875C42.1261 147.972 42.0709 148.061 42.0013 148.139Z" fill="black"/>
<path opacity="0.1" d="M41.3264 154.942C41.3319 155.23 41.298 155.517 41.2254 155.796C41.1659 155.988 41.0702 156.166 41.0158 156.36C40.9459 156.652 40.9459 156.956 41.0158 157.248V157.222C41.0702 157.031 41.1659 156.849 41.2254 156.658C41.298 156.379 41.3319 156.092 41.3264 155.804C41.3393 155.229 41.3574 154.639 41.3471 154.047C41.3419 154.347 41.3341 154.647 41.3264 154.942Z" fill="black"/>
</g>
<path d="M214.308 173.653C214.308 186.654 222.465 197.177 232.545 197.177Z" fill="#46455B"/>
<path d="M232.545 197.179C232.545 184.03 241.65 173.391 252.899 173.391Z" fill="#FD1E00"/>
<path d="M220.918 174.833C220.918 187.185 226.12 197.179 232.545 197.179Z" fill="#FD1E00"/>
<path d="M232.545 197.179C232.545 180.379 243.068 166.782 256.069 166.782Z" fill="#46455B"/>
<path opacity="0.1" d="M231.756 201.672C234.26 201.672 236.29 201.329 236.29 200.906C236.29 200.483 234.26 200.14 231.756 200.14C229.252 200.14 227.222 200.483 227.222 200.906C227.222 201.329 229.252 201.672 231.756 201.672Z" fill="#FD1E00"/>
<path d="M228.71 197.345C228.71 197.345 231.298 197.265 232.074 196.711C232.851 196.157 236.052 195.492 236.246 196.382C236.44 197.272 240.128 200.81 237.211 200.833C234.295 200.857 230.426 200.378 229.649 199.904C228.873 199.431 228.71 197.345 228.71 197.345Z" fill="#A8A8A8"/>
<path opacity="0.2" d="M237.266 200.523C234.346 200.546 230.483 200.067 229.704 199.594C229.111 199.234 228.876 197.937 228.795 197.342H228.71C228.71 197.342 228.873 199.428 229.652 199.902C230.431 200.375 234.295 200.854 237.214 200.831C238.057 200.831 238.347 200.523 238.332 200.08C238.215 200.349 237.894 200.518 237.266 200.523Z" fill="black"/>
</g>
<defs>
<clipPath id="clip0">
<rect width="265" height="208.594" fill="white"/>
</clipPath>
</defs>
</svg>
