<svg width="729" height="564" viewBox="0 0 729 564" fill="none" xmlns="http://www.w3.org/2000/svg">
<g clip-path="url(#clip0_302:2)">
<path opacity="0.1" d="M351.376 563.883C489.609 563.883 601.669 557.224 601.669 549.011C601.669 540.797 489.609 534.139 351.376 534.139C213.144 534.139 101.084 540.797 101.084 549.011C101.084 557.224 213.144 563.883 351.376 563.883Z" fill="#6C63FF"/>
<path d="M493.153 490.703L491 494.169L477.69 515.909L466.389 519.651L457.958 510.592L458.367 504.614L460.47 473.57C460.47 473.57 408.306 439.88 403.642 433.578C398.978 427.276 381.04 421.565 381.04 421.565C381.04 421.565 353.595 407.584 343.37 383.165C333.146 358.746 360.411 355.004 360.411 355.004L462.837 462.542L493.153 490.703Z" fill="#FFC1C7"/>
<path d="M505.709 503.306L473.241 536.587C473.241 536.587 454.585 540.525 437.903 537.768C427.241 536.004 429.293 529.584 432.098 525.165L432.148 525.086C433.829 522.559 436.286 520.785 439.065 520.092C452.87 516.437 457.635 505.464 457.635 505.464L467.68 514.917L485.08 492.656L497.945 499.289L505.709 503.306Z" fill="#575988"/>
<path opacity="0.1" d="M497.946 499.304L490.304 495.366L491.022 494.168L493.174 490.702L462.837 462.542L360.411 355.02C360.411 355.02 333.146 358.745 343.37 383.164C353.595 407.583 381.04 421.565 381.04 421.565C381.04 421.565 398.978 427.276 403.642 433.578C408.306 439.879 460.505 473.554 460.505 473.554L458.403 504.598L458.303 506.079L457.635 505.456C457.635 505.456 452.871 516.429 439.066 520.084C436.286 520.777 433.829 522.551 432.149 525.078L432.099 525.157C429.229 529.568 427.241 535.988 437.904 537.76C454.586 540.517 473.241 536.579 473.241 536.579L505.709 503.298L497.946 499.304Z" fill="black"/>
<g opacity="0.1">
<path opacity="0.1" d="M513.967 306.119C513.967 306.119 534.201 251.374 571.985 231.066C587.884 222.661 600.869 208.818 608.988 191.618C612.785 183.421 615.891 174.86 618.265 166.041" stroke="#535461" stroke-width="2" stroke-miterlimit="10"/>
<path opacity="0.1" d="M642.007 153.091C638.068 158.527 617.684 166.482 617.684 166.482C617.684 166.482 620.137 142.891 624.077 137.455C624.975 136.047 626.127 134.855 627.461 133.953C628.795 133.052 630.282 132.459 631.833 132.212C633.383 131.966 634.963 132.07 636.475 132.518C637.987 132.967 639.399 133.75 640.625 134.821C641.852 135.891 642.865 137.225 643.604 138.742C644.342 140.258 644.791 141.925 644.921 143.638C645.051 145.352 644.86 147.077 644.36 148.707C643.861 150.336 643.062 151.837 642.015 153.115L642.007 153.091Z" fill="#6C63FF"/>
<path opacity="0.1" d="M635.013 196.141C629.014 198.354 607.977 192.848 607.977 192.848C607.977 192.848 621.717 174.51 627.716 172.297C629.168 171.643 630.728 171.324 632.298 171.358C633.868 171.392 635.415 171.78 636.843 172.497C638.271 173.214 639.55 174.244 640.601 175.526C641.651 176.807 642.452 178.311 642.952 179.945C643.452 181.579 643.641 183.308 643.508 185.026C643.375 186.744 642.923 188.413 642.179 189.931C641.435 191.449 640.415 192.784 639.182 193.852C637.95 194.92 636.53 195.699 635.013 196.141V196.141Z" fill="#6C63FF"/>
<path opacity="0.1" d="M597.085 247.033C590.893 245.615 575.258 229.207 575.258 229.207C575.258 229.207 595.556 220.991 601.749 222.401C604.567 223.247 606.985 225.241 608.51 227.976C610.036 230.712 610.554 233.983 609.96 237.123C609.365 240.263 607.702 243.036 605.31 244.877C602.918 246.719 599.977 247.489 597.085 247.033V247.033Z" fill="#6C63FF"/>
<path opacity="0.1" d="M560.492 278.439C554.17 278.202 536.232 264.922 536.232 264.922C536.232 264.922 554.974 253.059 561.295 253.303C562.866 253.249 564.431 253.55 565.891 254.187C567.352 254.824 568.678 255.783 569.787 257.005C570.897 258.228 571.765 259.687 572.34 261.293C572.914 262.899 573.182 264.618 573.127 266.342C573.072 268.067 572.695 269.76 572.019 271.318C571.344 272.876 570.384 274.265 569.199 275.399C568.015 276.533 566.631 277.388 565.133 277.911C563.635 278.434 562.055 278.613 560.492 278.439V278.439Z" fill="#6C63FF"/>
<path opacity="0.1" d="M588.387 177.463C589.191 184.355 602.896 202.725 602.896 202.725C602.896 202.725 611.922 181.141 611.111 174.257C610.55 171.118 608.923 168.33 606.559 166.46C604.195 164.589 601.272 163.775 598.382 164.183C595.492 164.591 592.852 166.19 590.995 168.656C589.139 171.122 588.207 174.27 588.387 177.463Z" fill="#6C63FF"/>
<path opacity="0.1" d="M546.011 214.793C548.659 221.095 566.748 234.131 566.748 234.131C566.748 234.131 569.467 210.579 566.819 204.269C565.428 201.46 563.115 199.337 560.351 198.329C557.586 197.322 554.576 197.506 551.931 198.844C549.285 200.182 547.202 202.574 546.103 205.535C545.003 208.497 544.971 211.806 546.011 214.793Z" fill="#6C63FF"/>
<path opacity="0.1" d="M509.36 257.283C511.003 263.994 526.818 280.189 526.818 280.189C526.818 280.189 533.132 257.48 531.496 250.768C530.567 247.727 528.616 245.188 526.041 243.671C523.466 242.153 520.461 241.771 517.639 242.602C514.816 243.432 512.388 245.414 510.85 248.141C509.312 250.869 508.779 254.139 509.36 257.283V257.283Z" fill="#6C63FF"/>
<path opacity="0.25" d="M642.007 153.091C638.068 158.527 617.684 166.482 617.684 166.482C617.684 166.482 620.137 142.891 624.077 137.455C624.975 136.047 626.127 134.855 627.461 133.953C628.795 133.052 630.282 132.459 631.833 132.212C633.383 131.966 634.963 132.07 636.475 132.518C637.987 132.967 639.399 133.75 640.625 134.821C641.852 135.891 642.865 137.225 643.604 138.742C644.342 140.258 644.791 141.925 644.921 143.638C645.051 145.352 644.86 147.077 644.36 148.707C643.861 150.336 643.062 151.837 642.015 153.115L642.007 153.091Z" fill="black"/>
<path opacity="0.25" d="M635.013 196.141C629.014 198.354 607.977 192.848 607.977 192.848C607.977 192.848 621.717 174.51 627.716 172.297C629.168 171.643 630.728 171.324 632.298 171.358C633.868 171.392 635.415 171.78 636.843 172.497C638.271 173.214 639.55 174.244 640.601 175.526C641.651 176.807 642.452 178.311 642.952 179.945C643.452 181.579 643.641 183.308 643.508 185.026C643.375 186.744 642.923 188.413 642.179 189.931C641.435 191.449 640.415 192.784 639.182 193.852C637.95 194.92 636.53 195.699 635.013 196.141V196.141Z" fill="black"/>
<path opacity="0.25" d="M597.085 247.033C590.893 245.615 575.258 229.207 575.258 229.207C575.258 229.207 595.556 220.991 601.749 222.401C604.567 223.247 606.985 225.241 608.51 227.976C610.036 230.712 610.554 233.983 609.96 237.123C609.365 240.263 607.702 243.036 605.31 244.877C602.918 246.719 599.977 247.489 597.085 247.033V247.033Z" fill="black"/>
<path opacity="0.25" d="M560.492 278.439C554.17 278.202 536.232 264.922 536.232 264.922C536.232 264.922 554.974 253.059 561.295 253.303C562.866 253.249 564.431 253.55 565.891 254.187C567.352 254.824 568.678 255.783 569.787 257.005C570.897 258.228 571.765 259.687 572.34 261.293C572.914 262.899 573.182 264.618 573.127 266.342C573.072 268.067 572.695 269.76 572.019 271.318C571.344 272.876 570.384 274.265 569.199 275.399C568.015 276.533 566.631 277.388 565.133 277.911C563.635 278.434 562.055 278.613 560.492 278.439V278.439Z" fill="black"/>
<path opacity="0.25" d="M588.387 177.463C589.191 184.355 602.896 202.725 602.896 202.725C602.896 202.725 611.922 181.141 611.111 174.257C610.55 171.118 608.923 168.33 606.559 166.46C604.195 164.589 601.272 163.775 598.382 164.183C595.492 164.591 592.852 166.19 590.995 168.656C589.139 171.122 588.207 174.27 588.387 177.463Z" fill="black"/>
<path opacity="0.25" d="M546.011 214.793C548.659 221.095 566.748 234.131 566.748 234.131C566.748 234.131 569.467 210.579 566.819 204.269C565.428 201.46 563.115 199.337 560.351 198.329C557.586 197.322 554.576 197.506 551.931 198.844C549.285 200.182 547.202 202.574 546.103 205.535C545.003 208.497 544.971 211.806 546.011 214.793Z" fill="black"/>
<path opacity="0.25" d="M509.36 257.283C511.003 263.994 526.818 280.189 526.818 280.189C526.818 280.189 533.132 257.48 531.496 250.768C530.567 247.727 528.616 245.188 526.041 243.671C523.466 242.153 520.461 241.771 517.639 242.602C514.816 243.432 512.388 245.414 510.85 248.141C509.312 250.869 508.779 254.139 509.36 257.283V257.283Z" fill="black"/>
</g>
<g opacity="0.1">
<path opacity="0.1" d="M481.75 218.534C481.75 218.534 484.304 159.519 513.816 126.6C526.275 112.883 534.344 95.0995 536.812 75.9191C537.912 66.7952 538.249 57.5799 537.817 48.3887" stroke="#535461" stroke-width="2" stroke-miterlimit="10"/>
<path opacity="0.1" d="M556.322 27.5145C554.248 34.084 537.415 48.9874 537.415 48.9874C537.415 48.9874 532.608 25.8366 534.674 19.275C535.807 16.3262 537.919 13.9608 540.582 12.6587C543.245 11.3566 546.259 11.2154 549.013 12.2637C551.768 13.3121 554.055 15.4714 555.413 18.3036C556.77 21.1358 557.095 24.4288 556.322 27.5145Z" fill="#6C63FF"/>
<path opacity="0.1" d="M562.728 70.6802C557.705 74.9496 536.223 77.423 536.223 77.423C536.223 77.423 543.649 55.115 548.636 50.8457C551.046 49.0427 553.992 48.3148 556.874 48.8097C559.756 49.3046 562.358 50.9852 564.152 53.5102C565.946 56.0352 566.797 59.2152 566.532 62.4043C566.268 65.5934 564.908 68.5524 562.728 70.6802V70.6802Z" fill="#6C63FF"/>
<path opacity="0.1" d="M542.323 132.499C536.052 133.421 516.342 123.63 516.342 123.63C516.342 123.63 533.01 108.49 539.302 107.568C542.212 107.35 545.088 108.355 547.346 110.379C549.605 112.404 551.078 115.296 551.465 118.469C551.852 121.642 551.125 124.858 549.431 127.463C547.737 130.069 545.204 131.87 542.345 132.499H542.323Z" fill="#6C63FF"/>
<path opacity="0.1" d="M517.281 175.453C511.247 177.533 490.316 171.515 490.316 171.515C490.316 171.515 504.409 153.508 510.45 151.436C511.917 150.807 513.486 150.516 515.06 150.581C516.634 150.646 518.178 151.066 519.598 151.815C521.017 152.563 522.282 153.625 523.312 154.932C524.342 156.24 525.116 157.767 525.585 159.417C526.055 161.067 526.21 162.806 526.042 164.525C525.873 166.244 525.384 167.906 524.605 169.409C523.826 170.912 522.774 172.222 521.514 173.259C520.254 174.297 518.813 175.038 517.281 175.438V175.453Z" fill="#6C63FF"/>
<path opacity="0.1" d="M513.098 70.0343C515.968 76.2414 534.423 88.5848 534.423 88.5848C534.423 88.5848 536.41 64.9536 533.569 58.7385C532.092 55.9802 529.715 53.9416 526.92 53.0364C524.124 52.1312 521.12 52.427 518.516 53.8639C515.912 55.3008 513.903 57.7712 512.897 60.7741C511.891 63.7769 511.963 67.0875 513.098 70.0343V70.0343Z" fill="#6C63FF"/>
<path opacity="0.1" d="M484.396 120.685C488.802 125.671 509.797 131.382 509.797 131.382C509.797 131.382 505.255 108.16 500.849 103.174C498.689 101.017 495.861 99.8451 492.942 99.8961C490.022 99.9472 487.23 101.218 485.134 103.449C483.037 105.68 481.794 108.705 481.657 111.907C481.52 115.109 482.5 118.248 484.396 120.685V120.685Z" fill="#6C63FF"/>
<path opacity="0.1" d="M462.656 174.107C466.244 179.842 486.047 189.365 486.047 189.365C486.047 189.365 485.136 165.639 481.57 159.905C479.766 157.406 477.168 155.751 474.297 155.272C471.426 154.793 468.496 155.526 466.098 157.324C463.7 159.122 462.012 161.85 461.373 164.96C460.734 168.07 461.193 171.33 462.656 174.084V174.107Z" fill="#6C63FF"/>
</g>
<path opacity="0.1" d="M251.14 -15.3607C251.14 -15.3607 234.041 -16.4871 236.072 -3.33236C235.968 -2.66491 236.059 -1.97845 236.332 -1.37138C236.606 -0.764315 237.047 -0.267815 237.593 0.0469183C237.593 0.0469183 237.593 -0.929847 239.344 -0.599009C239.957 -0.481897 240.581 -0.447504 241.202 -0.496603C242.042 -0.56062 242.84 -0.922795 243.477 -1.5285V-1.5285C243.477 -1.5285 248.284 -3.71046 250.15 -12.3359C250.15 -12.3359 251.534 -14.2185 251.477 -14.699L248.607 -13.3441C248.607 -13.3441 249.59 -11.0598 248.815 -9.16141C248.815 -9.16141 248.722 -13.2654 248.169 -13.1709C248.054 -13.1709 246.67 -12.3831 246.67 -12.3831C246.67 -12.3831 248.37 -8.39733 247.086 -5.50644C247.086 -5.50644 247.574 -10.4139 246.139 -12.0917L244.108 -10.792C244.108 -10.792 246.088 -6.68012 244.747 -3.32448C244.747 -3.32448 245.091 -8.46822 243.685 -10.4769L241.841 -8.90146C241.841 -8.90146 243.706 -4.84476 242.558 -2.06415C242.558 -2.06415 242.415 -8.05861 241.432 -8.50761C240.736 -7.86025 240.114 -7.12225 239.581 -6.3099C239.581 -6.3099 240.851 -3.36386 240.061 -1.81208C240.061 -1.81208 239.581 -5.80577 239.179 -5.82153C239.179 -5.82153 237.571 -3.17482 237.406 -1.36309C237.484 -3.04434 237.961 -4.67396 238.791 -6.08935C237.865 -5.89661 237.01 -5.41217 236.33 -4.6951C236.33 -4.6951 236.581 -6.56197 239.2 -6.72739C239.2 -6.72739 240.528 -8.73604 240.879 -8.8542C240.879 -8.8542 238.289 -9.09839 236.725 -8.32644C236.725 -8.32644 238.102 -10.0909 241.353 -9.29532L243.175 -10.918C243.175 -10.918 239.767 -11.43 238.318 -10.8707C238.318 -10.8707 239.982 -12.4462 243.663 -11.2882L245.644 -12.5879C244.12 -12.9582 242.56 -13.1065 241.001 -13.0291C241.001 -13.0291 242.831 -14.1082 246.225 -12.9424L247.66 -13.6356C247.66 -13.6356 245.507 -14.0925 244.904 -14.1712C244.302 -14.25 244.252 -14.4312 244.252 -14.4312C245.599 -14.6779 246.983 -14.5088 248.248 -13.9428C248.248 -13.9428 251.197 -15.148 251.14 -15.3607Z" fill="#6C63FF"/>
<path opacity="0.1" d="M206.236 48.6575C206.236 48.6575 200.395 66.3415 212.457 67.9564C213.011 68.2545 213.637 68.3525 214.246 68.2365C214.854 68.1205 215.413 67.7964 215.844 67.3104C215.844 67.3104 214.997 67.0032 215.779 65.286C216.045 64.6712 216.243 64.0232 216.367 63.3561C216.551 62.4546 216.463 61.5118 216.116 60.67V60.67C216.116 60.67 215.578 54.9907 208.575 50.5795C208.575 50.5795 207.319 48.5866 206.882 48.5078L207.248 51.9265C207.248 51.9265 209.522 51.5405 210.964 52.8954C210.964 52.8954 207.377 51.8319 207.276 52.4385C207.276 52.5645 207.542 54.2423 207.542 54.2423C207.542 54.2423 211.503 53.5885 213.67 55.7547C213.67 55.7547 209.522 53.8564 207.65 54.8804L208.209 57.3932C208.209 57.3932 212.364 56.4716 214.911 58.8426C214.911 58.8426 210.512 57.0151 208.36 57.9288L209.214 60.2919C209.214 60.2919 213.282 59.5042 215.392 61.4656C215.392 61.4656 210.118 59.8902 209.443 60.8276C209.811 61.7463 210.281 62.6115 210.842 63.4034C210.842 63.4034 213.77 62.8993 214.904 64.1911C214.904 64.1911 211.28 63.5688 211.151 63.9863C211.151 63.9863 213.002 66.4282 214.538 67.1371C213.098 66.5802 211.817 65.6188 210.821 64.3486C210.734 65.3655 210.916 66.3884 211.345 67.2947C211.345 67.2947 209.788 66.507 210.383 63.7185C210.383 63.7185 209.006 61.7492 208.998 61.3554C208.998 61.3554 208.059 64.0178 208.281 65.8847C208.281 65.8847 207.133 63.9312 208.755 60.7331L207.85 58.3699C207.85 58.3699 206.415 61.8122 206.516 63.49C206.516 63.49 205.626 61.3002 207.664 57.7476L207.09 55.2979C206.341 56.7867 205.769 58.3752 205.389 60.0241C205.389 60.0241 204.966 57.787 206.954 54.5574L206.745 52.8638C206.745 52.8638 205.741 54.9749 205.497 55.613C205.253 56.251 205.081 56.2274 205.081 56.2274C205.251 54.7377 205.792 53.3284 206.645 52.1549C206.645 52.1549 206.437 48.6654 206.236 48.6575Z" fill="#6C63FF"/>
<path opacity="0.1" d="M319.633 33.7611C319.633 33.7611 313.785 51.4373 325.854 53.0521C326.407 53.3505 327.031 53.4495 327.638 53.3349C328.245 53.2203 328.804 52.898 329.234 52.414C329.234 52.414 328.394 52.1068 329.169 50.3817C329.445 49.7681 329.652 49.1201 329.786 48.4518C329.971 47.5523 329.881 46.6107 329.528 45.7736V45.7736C329.528 45.7736 328.99 40.0942 321.987 35.6752C321.987 35.6752 320.738 33.6823 320.3 33.6035L320.659 37.0301C320.659 37.0301 322.941 36.6362 324.376 37.9911C324.376 37.9911 320.788 36.9276 320.695 37.5421C320.695 37.6602 320.961 39.3459 320.961 39.3459C320.961 39.3459 324.921 38.6842 327.081 40.8583C327.081 40.8583 322.941 38.9521 321.061 39.984L321.621 42.4889C321.621 42.4889 325.775 41.5673 328.33 43.9383C328.33 43.9383 323.931 42.1108 321.779 43.0324L322.632 45.3955C322.632 45.3955 326.701 44.6078 328.81 46.5692C328.81 46.5692 323.536 44.9938 322.862 45.9233C323.23 46.8405 323.697 47.7054 324.254 48.4991C324.254 48.4991 327.189 47.995 328.322 49.2868C328.322 49.2868 324.692 48.6645 324.57 49.0741C324.57 49.0741 326.421 51.516 327.956 52.225C326.514 51.6648 325.231 50.7008 324.233 49.4286C324.137 50.4586 324.32 51.4965 324.756 52.414C324.756 52.414 323.192 51.6263 323.788 48.8299C323.788 48.8299 322.417 46.8685 322.41 46.4668C322.41 46.4668 321.463 49.1214 321.692 50.9961C321.692 50.9961 320.544 49.0348 322.173 45.8445L321.262 43.4814C321.262 43.4814 319.827 46.9237 319.935 48.6094C319.935 48.6094 319.045 46.4117 321.083 42.8591L320.509 40.4093C319.758 41.8972 319.186 43.486 318.808 45.1356C318.808 45.1356 318.378 42.9064 320.365 39.6689L320.157 37.9832C320.157 37.9832 319.152 40.0942 318.916 40.7244C318.679 41.3546 318.5 41.3467 318.5 41.3467C318.665 39.8558 319.207 38.4454 320.064 37.2742C320.064 37.2742 319.827 33.7611 319.633 33.7611Z" fill="#6C63FF"/>
<path opacity="0.1" d="M134.348 11.6106C134.348 11.6106 128.5 29.2947 140.569 30.9016C141.121 31.2025 141.746 31.3029 142.354 31.1882C142.961 31.0735 143.52 30.7497 143.948 30.2636C143.948 30.2636 143.109 29.9564 143.884 28.2392C144.157 27.6241 144.364 26.9765 144.501 26.3093C144.682 25.4068 144.592 24.4641 144.243 23.6232C144.243 23.6232 143.704 17.9438 136.702 13.5247C136.702 13.5247 135.453 11.5397 135.015 11.4609L135.374 14.8796C135.374 14.8796 137.649 14.4936 139.091 15.8485C139.091 15.8485 135.503 14.7772 135.41 15.3916C135.41 15.5176 135.675 17.1955 135.675 17.1955C135.675 17.1955 139.636 16.5417 141.796 18.7079C141.796 18.7079 137.649 16.8016 135.776 17.8335L136.336 20.3463C136.336 20.3463 140.49 19.4247 143.037 21.7957C143.037 21.7957 138.646 19.9682 136.493 20.8819L137.347 23.2451C137.347 23.2451 141.416 22.4574 143.525 24.4188C143.525 24.4188 138.244 22.8433 137.577 23.7728C137.944 24.6927 138.411 25.5603 138.969 26.3565C138.969 26.3565 141.904 25.8445 143.03 27.1442C143.03 27.1442 139.407 26.522 139.277 26.9394C139.277 26.9394 141.136 29.3735 142.671 30.0903C141.228 29.5334 139.943 28.5689 138.947 27.2939C138.852 28.3239 139.034 29.3618 139.471 30.2793C139.471 30.2793 137.907 29.4916 138.502 26.7031C138.502 26.7031 137.125 24.7338 137.125 24.34C137.125 24.34 136.178 27.0025 136.407 28.8693C136.407 28.8693 135.259 26.9158 136.881 23.7177L135.977 21.3546C135.977 21.3546 134.542 24.8047 134.642 26.4826C134.642 26.4826 133.753 24.2927 135.79 20.7402L135.223 18.2825C134.473 19.7704 133.901 21.3591 133.523 23.0088C133.523 23.0088 133.092 20.7795 135.08 17.5421L134.872 15.8564C134.872 15.8564 133.867 17.9674 133.631 18.6055C133.394 19.2435 133.214 19.2199 133.214 19.2199C133.38 17.7302 133.919 16.3203 134.771 15.1474C134.771 15.1474 134.57 11.6185 134.348 11.6106Z" fill="#6C63FF"/>
<path opacity="0.1" d="M313.986 131.563C313.986 131.563 318.5 149.68 329.205 143.378C329.813 143.272 330.375 142.957 330.811 142.479C331.247 142.001 331.533 141.384 331.63 140.716C331.63 140.716 330.783 140.992 330.511 139.093C330.413 138.419 330.242 137.761 330.001 137.132C329.677 136.281 329.111 135.568 328.387 135.1V135.1C328.387 135.1 324.964 130.807 316.907 131.626C316.907 131.626 314.84 130.791 314.438 131.003L316.534 133.571C316.534 133.571 318.184 131.815 320.071 131.996C320.071 131.996 316.562 133.406 316.828 133.949C316.878 134.06 317.99 135.257 317.99 135.257C317.99 135.257 320.86 132.216 323.788 132.618C323.788 132.618 319.404 133.69 318.406 135.714L320.186 137.415C320.186 137.415 323.099 134.028 326.421 134.351C326.421 134.351 321.872 135.643 320.595 137.754L322.546 139.164C322.546 139.164 325.416 135.927 328.208 136.21C328.208 136.21 323.092 138.29 323.013 139.448C323.797 139.967 324.635 140.379 325.51 140.676C325.51 140.676 327.662 138.408 329.226 138.731C329.226 138.731 325.94 140.511 326.055 140.936C326.055 140.936 328.846 141.724 330.468 141.346C328.997 141.803 327.443 141.827 325.962 141.417C326.423 142.318 327.114 143.052 327.949 143.528C327.949 143.528 326.256 143.867 325.28 141.212C325.28 141.212 323.128 140.48 322.905 140.149C322.905 140.149 323.529 142.914 324.699 144.3C324.699 144.3 322.733 143.433 322.381 139.794L320.408 138.447C320.408 138.447 321.054 142.157 322.008 143.481C322.008 143.481 320.128 142.252 319.927 138.061L318.169 136.423C318.344 138.123 318.718 139.791 319.282 141.385C319.282 141.385 317.761 139.81 317.689 135.927L316.627 134.682C316.627 134.682 316.914 137.045 317.057 137.715C317.201 138.384 317.057 138.502 317.057 138.502C316.409 137.18 316.109 135.685 316.189 134.186C316.189 134.186 314.151 131.437 313.986 131.563Z" fill="#6C63FF"/>
<path d="M527.011 233.761C528.576 235.747 530.303 237.572 532.17 239.212L546.147 252.288C548.637 254.612 551.17 257.015 554.327 258.109C556.195 258.754 558.173 258.92 560.109 258.593C562.044 258.267 563.886 257.457 565.492 256.227L565.255 256.14L565.492 255.967C563.131 255.132 560.713 254.265 558.768 252.588C557.968 251.929 557.294 251.103 556.786 250.156C556.279 249.21 555.948 248.162 555.812 247.074V247.074C555.812 246.963 555.812 246.861 555.812 246.751C555.817 246.452 555.844 246.155 555.891 245.861C558.903 245.579 561.799 244.459 564.308 242.607L564.064 242.513L564.308 242.347C556.86 239.724 551.701 232.052 549.362 223.931C547.023 215.809 547.015 207.16 546.764 198.661C546.513 190.162 545.939 181.426 542.595 173.738C541.34 170.855 539.725 168.114 539.116 164.994C538.948 164.069 538.869 163.126 538.879 162.182C538.929 159.15 539.733 156.101 540.472 153.139C542.114 146.525 543.427 139.816 544.404 133.045C544.788 130.638 545.002 128.202 545.042 125.758C545.11 123.374 544.761 120.997 544.016 118.756C540.73 109.382 529.307 104.963 527.563 95.1245C527.359 93.8004 527.272 92.4575 527.305 91.115C527.305 90.3746 527.305 89.642 527.305 88.9094C527.305 88.1769 527.305 87.334 527.248 86.6093C526.753 79.6854 522.849 73.6751 519.082 68.0588C514.548 61.3002 509.755 54.2738 502.787 50.674C497.377 47.8619 490.145 46.9324 483.694 47.5626C480.8 44.8209 477.626 42.4552 474.237 40.5126C469.308 37.5035 464.192 34.5417 458.732 33.8801C451.808 33.0451 444.963 35.9596 438.017 36.448C428.574 37.1175 419.304 33.2971 409.862 32.5094C400.419 31.7217 389.549 35.2113 385.33 45.6484C384.341 48.1827 383.739 50.8787 383.55 53.6279V53.6279C383.507 54.1557 383.478 54.6756 383.457 55.2033V55.2585C383.387 57.3896 383.442 59.5235 383.622 61.6468V61.891C383.622 62.3164 383.694 62.7417 383.737 63.1671C383.737 63.2931 383.737 63.4113 383.773 63.5373C383.773 63.9312 383.851 64.325 383.894 64.7189L383.938 65.0891C383.995 65.5854 384.06 66.0816 384.117 66.5779C384.226 67.5997 384.425 68.6075 384.712 69.5869C384.889 70.1529 385.145 70.6847 385.473 71.1624C386.499 72.596 388.042 73.0213 389.635 73.2892L390.89 73.4861C390.761 73.7697 390.625 74.0532 390.503 74.3447C387.655 80.9341 386.185 88.1384 386.198 95.4317C386.198 120.213 402.909 140.756 424.743 144.49L426.056 146.286C434.107 157.361 444.209 172.147 449.017 182.789C443.463 190.359 436.962 203.781 435.111 226.294L432.363 233.336C426.601 242.434 425.116 255.557 426.601 267.767C424.98 274.368 423.128 282.662 421.844 289.523C412.294 287.2 379.697 281.449 371.991 275.864L349.389 264.175C349.389 264.175 319.971 241.615 304.142 249.145C298.094 240.985 288.967 232.438 285.035 229.208C278.29 223.655 261.514 201.962 261.514 201.962L235.232 163.663C235.16 159.228 234.729 155.439 233.624 153.809C230.525 149.256 214.115 139.15 210.836 141.332C207.557 143.513 204.816 136.605 204.816 136.605L204.565 136.456C203.948 136.062 202.197 134.975 199.765 133.541C199.637 130.344 199.709 127.141 199.98 123.955C200.03 123.419 200.095 122.883 200.166 122.379C208.879 122.034 217.249 118.574 224.005 112.525C230.761 106.476 235.532 98.1697 237.592 88.8701C237.707 88.3738 237.786 87.8618 237.879 87.3577C239.055 87.6576 240.282 87.6209 241.442 87.2513C242.601 86.8817 243.655 86.1914 244.502 85.2466C246.798 82.5369 246.898 78.3699 246.167 74.7779C245.435 71.186 244.014 67.7437 243.655 64.073C243.203 59.071 244.81 53.8327 243.332 49.1065C242.091 45.0734 238.819 42.1431 235.332 40.229C231.845 38.3149 228.028 37.1963 224.462 35.4555C221.061 33.8013 217.896 31.5799 214.366 30.2723C209.788 28.5788 204.866 28.5157 200.016 28.6418C196.973 27.2948 193.874 26.0108 190.616 25.6091C187.029 25.1601 183.082 25.9242 180.349 28.5473C178.196 30.6426 176.445 34.0061 173.525 34.1164C172.09 34.1715 170.798 33.3917 169.521 32.7221C165.898 30.8159 161.313 29.7367 158.041 32.2652C155.415 34.2818 154.453 37.9919 154.001 41.4499C153.549 44.908 153.47 48.5393 151.949 51.635C151.009 53.5413 149.581 55.0931 148.397 56.826C145.401 61.2251 143.988 66.6832 144.429 72.1549V72.3124C144.257 71.5247 144.092 70.7921 143.97 70.0202C143.97 70.6031 143.97 71.1781 144.042 71.761C144.354 74.4634 144.889 77.1291 145.642 79.7247L148.613 91.1465C150.119 96.9441 151.662 102.828 154.532 107.988C155.652 110.02 157.005 111.887 158.557 113.541C161.003 116.361 164.133 118.353 167.577 119.284C168.786 119.581 170.031 119.664 171.265 119.528C171.265 119.693 171.229 119.851 171.2 120.016C170.935 119.961 170.662 119.898 170.411 119.859C169.245 119.592 168.039 119.627 166.888 119.961C161.219 122.174 159.497 128.909 158.995 131.556C158.88 132.233 158.844 132.643 158.844 132.643C158.844 132.643 158.938 133.037 159.045 133.706L158.995 133.935C158.88 134.604 158.844 135.022 158.844 135.022C158.844 135.022 158.938 135.416 159.045 136.101L157.567 136.141L132.849 139.685C127.202 139.26 121.828 139.157 118.95 139.914C118.707 139.973 118.467 140.049 118.233 140.142C114.645 141.505 98.2069 153.959 83.4547 165.42C83.4547 165.105 83.4547 164.797 83.4116 164.498L79.2141 167.775C79.2141 168.082 79.2141 168.405 79.2141 168.728C78.1665 169.516 77.1261 170.351 76.1216 171.146C71.6084 174.691 67.5114 177.889 64.4619 180.339C60.7452 183.269 58.4419 185.12 58.4419 185.12C58.4419 185.12 57.0786 185.609 56.1746 187.917C55.0122 190.871 54.6104 196.81 58.8079 208.5C66.2844 229.303 67.9204 243.371 67.9204 243.371C65.8919 243.604 63.9011 244.134 62.0008 244.947C59.4106 246.081 56.7055 248.003 55.579 251.249C54.8559 253.515 54.8382 255.981 55.5288 258.259C58.9872 271.729 116.238 348.216 116.238 348.216L116.956 348.286C119.892 348.57 122.845 348.57 125.781 348.286C128.457 347.979 130.962 347.278 132.11 345.797C132.11 345.797 144.803 363.686 163.444 351.5C163.315 367.727 162.941 379.629 165.288 385.624C168.94 394.935 168.94 416.132 168.94 416.132L172.413 416.266C172.226 417.054 172.018 417.841 171.796 418.629C170.196 424.434 167.835 431.453 165.338 433.131C161.133 435.966 163.128 484.71 163.3 488.916C163.3 489.082 163.3 489.168 163.3 489.168L163.056 508.861V510.436C162.535 509.667 162.067 508.856 161.657 508.01C161.657 508.01 154.898 515.1 154.776 530.066C154.654 545.033 154.898 545.537 154.898 545.537C154.898 545.537 182.164 544.379 187.28 546.443C192.396 548.506 235.181 544.647 235.181 544.647C235.181 544.647 236.767 540.125 232.204 536.651C239.479 536.076 247.415 534.548 252.065 530.846C262.289 522.74 231.436 516.423 229.283 515.139C227.131 513.855 216.468 503.528 212.063 499.661C210.731 498.593 209.157 497.95 207.514 497.802L208.066 480.149C214.632 472.028 221.742 427.246 221.742 427.246C224.067 425.12 225.079 419.944 225.495 416.786C226.344 416.476 227.087 415.888 227.622 415.101C228.157 414.313 228.459 413.364 228.487 412.382V412.382C235.999 412.658 245.449 412.595 247.264 410.618C250.364 407.247 249.998 395.754 249.998 395.754L245.621 274.1L245.334 273.635C246.058 268.067 246.072 262.414 245.377 256.841C255.207 259.921 262.856 262.017 262.856 262.017C262.856 262.017 277.651 265.01 288.034 267.53C286.334 269.512 285.051 271.878 284.274 274.462C274.946 303.608 327.849 302.402 327.849 302.402L352.826 315.085L411.619 336.179C392.727 330.059 371.144 322.859 356.457 317.92C355.01 317.435 353.539 317.043 352.051 316.747C338.576 314.068 324.577 319.456 315.996 331.343C315.895 331.493 315.802 331.626 315.694 331.768C313.639 334.703 312.494 338.283 312.427 341.984C312.36 345.685 313.374 349.313 315.321 352.335C317.567 355.825 320.573 360.464 324.096 365.86C316.641 368.334 304.307 375.226 311.805 392.95C322.195 417.518 350.085 431.547 350.085 431.547C350.085 431.547 368.317 437.298 373.046 443.639C374.373 445.419 379.503 449.365 386.212 454.123C390.517 459.125 393.89 462.394 395.891 463.119C403.885 466.01 419.448 479.881 430.397 490.287L428.754 515.147L428.646 516.644L427.972 516.013C427.972 516.013 423.128 527.041 409.094 530.736C406.279 531.431 403.785 533.215 402.069 535.761L402.019 535.832L401.603 536.494L401.287 536.234C398.417 540.669 397.083 547.128 407.917 548.908C424.872 551.681 443.793 547.719 443.793 547.719L460.698 530.562C462.576 532.298 464.782 533.554 467.155 534.241C479.791 537.392 515.28 552.469 515.28 552.469C515.28 548.239 546.642 493.824 546.642 493.824C588.976 405.852 542.94 340.11 537.853 333.265L537.401 332.666L537.006 325.356L536.92 323.678C536.92 323.678 559.766 312.587 551.012 307.31C542.258 302.032 537.379 276.66 529.135 266.097C522.677 257.857 523.05 238.732 522.369 222.434C523.109 226.458 524.699 230.235 527.011 233.462C527.061 233.533 527.119 233.588 527.169 233.659L526.559 233.076C526.71 233.328 526.853 233.549 527.011 233.761ZM245.506 227.003C248.448 230.477 253.586 234.919 256.987 237.739C252.911 235.557 249.74 233.714 247.293 232.225C246.719 230.477 246.116 228.728 245.506 227.003V227.003ZM158.479 144.569C157.776 146.882 156.495 148.931 154.783 150.485L153.348 143.687C155.228 144.018 156.979 144.325 158.479 144.569ZM445.257 331.343C445.824 330.004 446.412 328.688 447.008 327.404C449.524 326.506 451.742 324.812 453.386 322.536C454.637 327.301 455.562 332.162 456.156 337.077C456.156 337.306 456.156 337.432 456.156 337.432C456.125 339.414 455.852 341.382 455.345 343.285C454.685 345.585 453.48 347.751 451.291 348.011C450.38 348.113 445.895 346.924 439.187 344.915C437.242 344.332 435.104 343.678 432.822 342.969C436.403 342.709 441.382 340.496 445.257 331.343ZM501.403 165.136C500.061 162.773 497.263 161.261 493.84 160.37C493.216 159.914 492.247 159.189 491.013 158.204C484.986 153.36 472.953 142.45 467.435 128.515C468.973 128.045 470.475 127.442 471.927 126.712C474.181 125.577 476.309 124.163 478.27 122.497C478.93 121.93 479.576 121.339 480.193 120.725C481.774 119.159 483.216 117.432 484.498 115.566C485.007 114.778 485.502 114.03 485.933 113.202C486.637 111.99 487.274 110.733 487.842 109.437C489.148 106.413 490.156 103.244 490.848 99.9846C491.128 98.677 491.372 97.3458 491.565 96.0067C491.759 94.6676 491.946 93.3206 492.082 91.9658C492.528 87.1852 492.698 82.3784 492.592 77.5743C492.592 77.3459 492.592 77.1096 492.592 76.8811C492.592 76.7945 492.592 76.7078 492.592 76.6291C492.571 71.7589 492.09 66.9043 491.156 62.1431C491.479 62.277 491.802 62.4109 492.111 62.5684C492.629 62.8475 493.124 63.177 493.589 63.5531C493.474 63.3719 493.345 63.1907 493.223 63.0096C495.304 64.4904 496.854 66.7984 498.246 69.0985C504.622 80.0121 508.695 92.3532 510.165 105.218C511.635 118.083 510.465 131.146 506.741 143.45C505.693 146.83 504.438 150.193 504.158 153.746C503.146 166.436 514.203 176.117 518.315 188.043C520.374 194.021 520.697 200.646 520.969 207.2C517.87 190.603 506.54 174.266 501.424 165.168L501.403 165.136Z" fill="url(#paint0_linear_302:2)"/>
<path d="M227.131 416.067C227.131 416.067 226.593 425.913 223.185 429.064C223.185 429.064 216.189 473.57 209.731 481.644L208.655 486.173L181.748 482.825L187.129 443.44L192.152 407.205L227.131 416.067Z" fill="#FFC1C8"/>
<path opacity="0.03" d="M227.131 416.067C227.131 416.067 226.593 425.913 223.185 429.064C223.185 429.064 216.189 473.57 209.731 481.644L208.655 486.173L181.748 482.825L187.129 443.44L192.152 407.205L227.131 416.067Z" fill="black"/>
<path d="M198.136 482.196L209.731 481.637L209.114 501.676L200.238 508.206L184.252 504.362L190.085 477.58L198.136 482.196Z" fill="#F20F10"/>
<path opacity="0.03" d="M198.136 482.196L209.731 481.637L209.114 501.676L200.238 508.206L184.252 504.362L190.085 477.58L198.136 482.196Z" fill="black"/>
<path d="M200.238 500.141C200.238 500.141 209.344 497.195 213.663 501.039C217.983 504.883 228.487 515.132 230.589 516.415C232.692 517.699 263.007 523.978 252.998 532.044C242.988 540.11 217.287 537.81 217.287 537.81C217.287 537.81 200.475 532.422 200.009 532.17C199.542 531.918 189.246 526.404 188.923 526.018C188.6 525.632 191.836 500.023 191.836 500.023L200.238 500.141Z" fill="#5D618C"/>
<path opacity="0.03" d="M200.238 500.141C200.238 500.141 209.344 497.195 213.663 501.039C217.983 504.883 228.487 515.132 230.589 516.415C232.692 517.699 263.007 523.978 252.998 532.044C242.988 540.11 217.287 537.81 217.287 537.81C217.287 537.81 200.475 532.422 200.009 532.17C199.542 531.918 189.246 526.404 188.923 526.018C188.6 525.632 191.836 500.023 191.836 500.023L200.238 500.141Z" fill="black"/>
<path d="M173.855 233.91L173.317 270.523L172.097 348.624L171.38 349.31C150.034 369.593 134.966 348.128 134.966 348.128C133.832 349.601 131.378 350.302 128.738 350.602C125.849 350.885 122.944 350.885 120.056 350.602L119.338 350.531C119.338 350.531 62.9984 274.462 59.5902 261.07C58.9141 258.806 58.9317 256.36 59.6404 254.107C60.7525 250.909 63.4145 249.003 65.9617 247.876C67.8303 247.065 69.7901 246.535 71.788 246.301C71.788 246.301 70.1736 232.319 62.819 211.642C58.6861 200.023 59.0879 194.123 60.2288 191.161C61.1185 188.869 62.4602 188.381 62.4602 188.381C62.4602 188.381 64.7276 186.545 68.3798 183.654C71.4149 181.22 75.4115 178.038 79.8601 174.517L83.9858 171.272C99.2044 159.283 117.544 145.167 121.297 143.702C121.531 143.608 121.771 143.531 122.014 143.473C129.713 141.433 155.551 145.671 155.551 145.671L173.855 233.91Z" fill="#6C63FF"/>
<path opacity="0.1" d="M173.854 233.91L173.316 270.523C147.794 262.26 124.066 207.506 120.937 203.189C118.261 199.44 121.009 157.683 122.021 143.489C129.72 141.449 155.558 145.687 155.558 145.687L173.854 233.91Z" fill="black"/>
<path d="M466.783 162.607C466.783 162.607 446.872 173.832 444.36 217.944C444.36 217.944 441.131 240.393 439.338 244.332C437.544 248.271 428.934 285.49 430.01 290.019C430.01 290.019 428.216 294.548 421.579 292.579C414.942 290.61 379.066 284.505 370.994 278.597L348.751 266.979C348.751 266.979 305.341 233.304 296.193 262.252C287.044 291.201 339.064 290.035 339.064 290.035L363.639 302.638L438.082 329.602C438.082 329.602 447.948 334.525 454.585 318.771C458.832 308.846 463.874 299.356 469.653 290.413C469.653 290.413 484.721 243.938 484.541 236.061C484.362 228.184 500.686 209.476 500.686 209.476C500.686 209.476 503.914 159.85 477.366 160.835L466.783 162.607Z" fill="#FFC1C7"/>
<path opacity="0.03" d="M466.783 162.607C466.783 162.607 446.872 173.832 444.36 217.944C444.36 217.944 441.131 240.393 439.338 244.332C437.544 248.271 428.934 285.49 430.01 290.019C430.01 290.019 428.216 294.548 421.579 292.579C414.942 290.61 379.066 284.505 370.994 278.597L348.751 266.979C348.751 266.979 305.341 233.304 296.193 262.252C287.044 291.201 339.064 290.035 339.064 290.035L363.639 302.638L438.082 329.602C438.082 329.602 447.948 334.525 454.585 318.771C458.832 308.846 463.874 299.356 469.653 290.413C469.653 290.413 484.721 243.938 484.541 236.061C484.362 228.184 500.686 209.476 500.686 209.476C500.686 209.476 503.914 159.85 477.366 160.835L466.783 162.607Z" fill="black"/>
<path d="M256.191 200.922C257.267 202.3 262.289 205.144 262.289 205.144C262.289 205.144 278.792 226.704 285.429 232.218C292.067 237.732 313.772 258.803 309.38 266.782C304.989 274.762 300.053 272.981 300.053 272.981L261.213 243.442C261.213 243.442 247.58 232.714 244.804 227.594C242.027 222.474 238.611 211.753 238.611 211.753L256.191 200.922Z" fill="#FFC1C8"/>
<path opacity="0.03" d="M256.191 200.922C257.267 202.3 262.289 205.144 262.289 205.144C262.289 205.144 278.792 226.704 285.429 232.218C292.067 237.732 313.772 258.803 309.38 266.782C304.989 274.762 300.053 272.981 300.053 272.981L261.213 243.442C261.213 243.442 247.58 232.714 244.804 227.594C242.027 222.474 238.611 211.753 238.611 211.753L256.191 200.922Z" fill="black"/>
<path d="M234.401 164.096L262.291 205.151L237.177 215.888L226.773 181.52L234.401 164.096Z" fill="#DCE6F2"/>
<path opacity="0.03" d="M234.401 164.096L262.291 205.151L237.177 215.888L226.773 181.52L234.401 164.096Z" fill="black"/>
<path d="M241.661 268.766L246.683 276.84L250.988 397.753C250.988 397.753 251.347 409.175 248.298 412.523C245.248 415.87 220.314 413.704 220.314 413.704C220.314 413.704 221.211 290.428 221.57 288.065C221.929 285.701 241.661 268.766 241.661 268.766Z" fill="#575988"/>
<path opacity="0.1" d="M241.661 268.766L246.683 276.84L250.988 397.753C250.988 397.753 251.347 409.175 248.298 412.523C245.248 415.87 220.314 413.704 220.314 413.704C220.314 413.704 221.211 290.428 221.57 288.065C221.929 285.701 241.661 268.766 241.661 268.766Z" fill="black"/>
<path d="M208.073 421.614C206.44 426.022 204.521 430.297 202.333 434.406C202.333 434.406 197.669 463.622 195.682 466.316C194.247 468.285 193.586 482.984 193.35 490.648C193.264 493.421 193.228 495.272 193.228 495.272L165.804 509.624L165.682 490.656C165.682 490.656 165.682 490.57 165.682 490.404C165.51 486.222 163.53 437.777 167.684 434.957C170.124 433.295 172.448 426.293 174.02 420.55C175.218 416.115 175.971 412.405 175.971 412.405C175.971 412.405 206.437 410.231 208.977 413.815C209.91 415.091 209.264 418.195 208.073 421.614Z" fill="#FFC1C8"/>
<path opacity="0.1" d="M208.073 421.614C195.717 421.33 180.233 420.755 173.977 420.511C175.175 416.076 175.928 412.366 175.928 412.366C175.928 412.366 206.394 410.192 208.934 413.776C209.91 415.092 209.264 418.195 208.073 421.614Z" fill="black"/>
<path d="M172.061 242.377C172.061 242.377 163.63 291.609 165.244 323.315C166.859 355.02 163.989 378.438 167.576 387.71C171.164 396.981 171.164 418.037 171.164 418.037C171.164 418.037 219.955 420.006 224.978 419.218C230.001 418.43 229.821 414.295 229.821 414.295C229.821 414.295 226.413 381.589 229.642 371.349C232.871 361.109 232.333 329.797 232.333 329.797L245.965 279.384C245.965 279.384 250.091 256.737 241.481 247.482C232.871 238.226 172.061 242.377 172.061 242.377Z" fill="#575988"/>
<path d="M461.58 502.519L459.428 505.985L446.118 527.726L434.817 531.467L426.386 522.409L426.795 516.43L428.897 485.386C428.897 485.386 376.734 451.696 372.07 445.394C367.406 439.093 349.468 433.382 349.468 433.382C349.468 433.382 322.023 419.4 311.798 394.981C301.573 370.562 328.839 366.82 328.839 366.82L431.265 474.358L461.58 502.519Z" fill="#FFC1C7"/>
<path opacity="0.1" d="M459.464 505.976L446.154 527.717L434.853 531.459L426.422 522.4L426.831 516.421L436.108 525.157L453.508 502.904L459.464 505.976Z" fill="black"/>
<path d="M474.138 515.123L441.671 548.403C441.671 548.403 423.015 552.342 406.333 549.585C395.67 547.82 397.722 541.4 400.528 536.981L400.578 536.903C402.258 534.375 404.716 532.601 407.495 531.909C421.3 528.254 426.064 517.281 426.064 517.281L436.11 526.733L453.51 504.473L466.375 511.105L474.138 515.123Z" fill="#575988"/>
<path d="M474.136 515.5L441.668 548.796C441.668 548.796 423.012 552.735 406.33 549.978C395.668 548.213 397.002 541.793 399.808 537.374C403.034 540.182 406.906 541.952 410.994 542.486C420.142 543.471 433.954 542.486 433.954 542.486L466.372 511.506L474.136 515.5Z" fill="white"/>
<path d="M206.086 116.605C203.446 118.054 202.233 122.528 201.745 127.633C200.92 136.345 202.255 146.837 202.255 146.837C202.255 146.837 166.379 136.069 170.21 133.966C172.413 132.761 173.583 123.986 174.178 116.762C174.623 111.422 174.752 106.924 174.752 106.924C174.752 106.924 213.261 112.666 206.086 116.605Z" fill="#FFC1C8"/>
<path d="M491.658 164.396C491.658 164.396 448.126 209.555 449.561 196.432C449.762 194.604 449.188 192.076 448.055 189.09C444.029 178.44 432.901 161.906 424.197 149.815C417.811 140.945 412.717 134.463 412.717 134.463C412.717 134.463 466.782 84.5769 462.477 112.934C461.58 119.401 462.399 126.013 464.837 131.981C470.226 145.908 482.166 156.865 488.128 161.702C490.281 163.442 491.658 164.396 491.658 164.396Z" fill="#FFC1C7"/>
<path opacity="0.1" d="M456.501 121.591C455.719 122.655 452.82 126.389 451.959 127.373C443.78 136.723 442.689 150.217 429.953 150.217C428.034 150.218 426.116 150.084 424.213 149.815C417.827 140.945 412.732 134.463 412.732 134.463C412.732 134.463 466.783 84.5769 462.478 112.934C461.459 119.662 454.227 115.699 456.501 121.591Z" fill="black"/>
<path d="M474.911 99.2743C474.912 109.039 472.276 118.584 467.335 126.703C462.395 134.823 455.372 141.151 447.155 144.889C438.938 148.626 429.896 149.604 421.173 147.7C412.449 145.795 404.436 141.093 398.147 134.189C391.858 127.285 387.575 118.488 385.84 108.911C384.105 99.3342 384.997 89.4078 388.401 80.387C391.805 71.3663 397.57 63.6565 404.966 58.2327C412.362 52.8089 421.056 49.9148 429.951 49.9164C435.861 49.8914 441.718 51.151 447.183 53.6226C452.648 56.0942 457.613 59.7289 461.793 64.3172C465.972 68.9055 469.283 74.3566 471.535 80.3563C473.786 86.3559 474.933 92.7855 474.911 99.2743V99.2743Z" fill="#FFC1C7"/>
<path opacity="0.1" d="M491.658 164.395C491.658 164.395 448.126 209.555 449.561 196.431C449.762 194.604 449.188 192.075 448.055 189.09L454.347 172.8C462.057 165.386 471.945 161.274 482.194 161.221C484.059 161.219 485.922 161.358 487.769 161.638L488.128 161.701C490.281 163.442 491.658 164.395 491.658 164.395Z" fill="black"/>
<path d="M542.838 495.232C542.838 495.232 511.985 549.316 511.985 553.522C511.985 553.522 477.063 538.556 464.629 535.405C452.194 532.254 440.47 503.637 440.47 503.637C440.47 503.637 407.464 469.497 394.548 464.771C383.592 460.762 330.94 379.226 315.255 354.626C313.335 351.615 312.336 348.013 312.404 344.338C312.471 340.664 313.6 337.108 315.629 334.185L315.923 333.767C320.073 328.034 325.571 323.653 331.822 321.096C338.073 318.54 344.841 317.904 351.397 319.258C352.852 319.552 354.289 319.941 355.702 320.423C378.289 328.088 417.409 341.258 437.14 347.206C443.742 349.199 448.154 350.356 449.051 350.286C451.204 350.041 452.388 347.922 453.041 345.599C453.539 343.708 453.807 341.753 453.837 339.785C453.837 339.785 453.837 339.659 453.837 339.431C453.232 334.423 452.283 329.472 450.996 324.622C448.693 315.957 444.703 305.788 438.08 300.928C432.584 296.902 428.215 288.025 425.926 277.706C422.847 263.771 423.558 247.19 430.424 236.336L437.062 219.148L448.162 190.396L454.347 174.374C462.056 166.96 471.944 162.849 482.193 162.795C484.058 162.793 485.921 162.933 487.769 163.212C492.526 163.937 496.637 165.505 498.352 168.592C503.611 178.045 515.573 195.375 517.962 212.704C520.351 230.034 517.488 258.391 525.618 268.899C533.747 279.407 538.533 304.606 547.143 309.86C555.754 315.114 533.274 326.134 533.274 326.134L533.36 327.796L533.747 335.067C533.747 335.067 533.905 335.264 534.192 335.658C539.2 342.464 584.454 407.804 542.838 495.232Z" fill="#F20F10"/>
<path d="M534.23 335.659C524.802 337.825 504.18 342.544 494.982 344.615L493.367 344.978C492.829 345.096 492.227 345.206 491.574 345.309C482.332 346.703 462.284 346.018 453.107 345.608C453.606 343.717 453.873 341.763 453.904 339.795C453.904 339.795 453.904 339.669 453.904 339.44C460.885 338.944 477.431 337.495 491.61 334.297C492.765 334.037 493.906 333.761 495.018 333.509C496.625 333.099 498.189 332.666 499.682 332.209C512.396 328.27 525.821 327.751 533.405 327.829L533.793 335.1C533.793 335.1 533.907 335.265 534.23 335.659Z" fill="#575988"/>
<path d="M494.945 333.477V344.615L493.331 344.977C492.793 345.095 492.19 345.206 491.537 345.308V334.327C492.692 334.036 493.833 333.76 494.945 333.477Z" fill="#FF6584"/>
<path opacity="0.1" d="M503.735 354.809C503.735 354.809 484.541 403.056 472.881 407.782C461.222 412.508 432.162 429.247 432.162 429.247C432.162 429.247 448.844 445.395 466.244 427.672C483.644 409.948 508.757 362.686 503.735 354.809Z" fill="black"/>
<path opacity="0.1" d="M524.723 348.324C524.723 348.324 526.517 366.638 524.005 369.986C521.494 373.334 524.723 348.324 524.723 348.324Z" fill="black"/>
<path opacity="0.1" d="M535.128 360.322C535.128 360.322 544.814 471.783 496.74 472.374C496.74 472.39 541.765 423.339 535.128 360.322Z" fill="black"/>
<path opacity="0.1" d="M547.325 387.104C547.325 387.104 561.137 445.591 543.02 452.286C543.02 452.302 552.527 421.975 547.325 387.104Z" fill="black"/>
<path opacity="0.1" d="M461.401 372.137C460.504 372.137 424.09 379.029 431.982 384.543C439.875 390.057 461.401 372.137 461.401 372.137Z" fill="black"/>
<path opacity="0.1" d="M486.516 293.186C486.516 293.186 516.293 322.134 510.553 325.285Z" fill="black"/>
<path opacity="0.1" d="M484.004 302.441C484.004 302.441 501.224 325.679 499.251 327.057Z" fill="black"/>
<path opacity="0.1" d="M520.777 298.881C520.777 298.881 528.67 309.712 527.414 312.075Z" fill="black"/>
<path opacity="0.1" d="M528.67 293.186C528.67 293.186 539.971 302.819 537.46 306.577Z" fill="black"/>
<path d="M465.887 175.816C465.887 175.816 502.66 178.967 501.045 211.46C499.431 243.953 471.986 252.224 471.986 252.224L436.289 240.999C436.289 240.999 452.254 177.983 465.887 175.816Z" fill="#FFC1C7"/>
<path opacity="0.1" d="M355.732 320.426C378.32 328.09 417.439 341.261 437.171 347.208C435.877 347.931 434.461 348.35 433.012 348.438C431.562 348.527 430.112 348.282 428.754 347.72L354.312 320.756L351.398 319.26C352.863 319.552 354.31 319.942 355.732 320.426Z" fill="black"/>
<path opacity="0.1" d="M481.707 240.109C478.213 245.23 475.135 250.744 475.249 254.194C475.307 256.675 473.814 263 471.82 270.491C466.681 289.306 459.705 307.455 451.012 324.623C448.708 315.958 444.719 305.789 438.096 300.928C432.6 296.903 428.23 288.026 425.941 277.707C427.685 270.239 429.342 263.961 430.024 262.465C431.818 258.526 435.047 236.076 435.047 236.076C435.35 230.387 436.029 224.73 437.077 219.148C439.682 205.497 444.109 196.305 448.177 190.397C453.085 183.213 457.505 180.74 457.505 180.74L468.088 178.967C480.286 178.518 486.17 188.704 489.004 199.865C492.477 213.737 489.571 228.577 481.707 240.109Z" fill="black"/>
<path d="M455.302 177.574C455.302 177.574 435.391 188.799 432.88 232.91C432.88 232.91 429.651 255.36 427.857 259.299C426.063 263.237 417.453 300.457 418.529 304.986C418.529 304.986 416.736 309.515 410.099 307.546C403.462 305.577 367.586 299.472 359.513 293.564L337.27 281.945C337.27 281.945 293.86 248.271 284.712 277.219C275.564 306.167 327.584 305.002 327.584 305.002L352.159 317.605L426.602 344.568C426.602 344.568 436.467 349.491 443.104 333.737C444.762 329.799 446.534 326.057 448.263 322.654C457.218 305.144 464.391 286.605 469.653 267.373C471.683 259.882 473.14 253.556 473.082 251.075C473.004 247.625 476.089 242.103 479.54 236.991C487.433 225.459 490.303 210.618 486.787 196.739C483.953 185.577 478.041 175.392 465.871 175.849L455.302 177.574Z" fill="#FFC1C7"/>
<path opacity="0.1" d="M206.086 116.603C203.445 118.052 202.233 122.527 201.745 127.631C201.278 127.631 200.812 127.631 200.346 127.631C190.699 127.651 181.384 123.77 174.178 116.729C174.623 111.388 174.752 106.891 174.752 106.891C174.752 106.891 213.261 112.665 206.086 116.603Z" fill="black"/>
<path d="M239.81 82.7322C239.81 91.3009 237.495 99.6772 233.159 106.802C228.823 113.926 222.659 119.479 215.448 122.758C208.237 126.037 200.303 126.895 192.647 125.224C184.992 123.552 177.961 119.426 172.441 113.367C166.922 107.308 163.164 99.5883 161.641 91.1843C160.118 82.7803 160.9 74.0693 163.887 66.1528C166.874 58.2364 171.932 51.4701 178.422 46.7096C184.911 41.9491 192.541 39.4082 200.346 39.4082C210.806 39.4332 220.83 44.0057 228.226 52.1251C235.622 60.2445 239.787 71.2497 239.81 82.7322V82.7322Z" fill="#FFC1C8"/>
<path opacity="0.1" d="M253.141 252.406C253.141 252.406 232.513 261.465 226.055 264.615C219.597 267.766 182.645 260.48 182.645 260.48C182.645 260.48 163.452 249.846 165.066 239.212C166.68 228.578 149.639 193.737 149.639 193.737C149.639 193.737 149.101 162.82 156.635 156.912C164.169 151.004 161.299 138.598 161.299 138.598C161.299 138.598 161.335 138.188 161.45 137.519C161.916 134.888 163.602 128.192 169.192 125.994C170.323 125.66 171.511 125.625 172.657 125.892C178.017 126.782 186.821 131.162 194.104 135.203C200.131 138.55 205.118 141.662 206.259 142.387L206.503 142.536C206.503 142.536 209.193 149.429 212.422 147.262C215.651 145.096 231.795 155.14 234.845 159.669C237.894 164.198 235.742 185.466 235.203 190.783C234.665 196.1 238.253 211.855 242.199 220.898C246.146 229.94 253.141 252.406 253.141 252.406Z" fill="black"/>
<path d="M253.141 250.043C253.141 250.043 232.513 259.101 226.055 262.252C219.597 265.403 182.645 258.117 182.645 258.117C182.645 258.117 163.452 247.483 165.066 236.849C166.68 226.214 149.639 191.374 149.639 191.374C149.639 191.374 149.101 160.456 156.635 154.549C164.169 148.641 161.299 136.234 161.299 136.234C161.299 136.234 161.335 135.825 161.45 135.155C161.916 132.524 163.602 125.829 169.192 123.631C170.323 123.297 171.511 123.262 172.657 123.529C178.017 124.419 186.821 128.798 194.104 132.839C200.131 136.187 205.118 139.299 206.259 140.023L206.503 140.173C206.503 140.173 209.193 147.065 212.422 144.899C215.651 142.733 231.795 152.776 234.845 157.306C237.894 161.835 235.742 183.103 235.203 188.42C234.665 193.737 238.253 209.491 242.199 218.534C246.146 227.577 253.141 250.043 253.141 250.043Z" fill="#DCE6F2"/>
<path d="M186.355 219.794C186.355 219.794 168.653 251.303 165.783 253.012L166.859 264.04C166.859 264.04 192.095 258.258 193.652 250.515C195.209 242.772 194.369 219.4 194.369 219.4L186.355 219.794Z" fill="#575988"/>
<path opacity="0.2" d="M186.355 219.794C186.355 219.794 168.653 251.303 165.783 253.012L166.859 264.04C166.859 264.04 192.095 258.258 193.652 250.515C195.209 242.772 194.369 219.4 194.369 219.4L186.355 219.794Z" fill="black"/>
<path opacity="0.1" d="M211.26 179.652C211.26 179.652 214.395 192.949 219.332 197.478C224.268 202.008 211.26 179.652 211.26 179.652Z" fill="black"/>
<path d="M180.492 214.704C180.944 215.595 196.098 238.241 212.063 246.607C228.028 254.972 263.638 264.826 263.638 264.826C263.638 264.826 292.519 270.734 297.448 272.995C302.377 275.256 308.663 265.118 277.716 250.648C246.769 236.177 240.764 229.773 240.764 229.773C240.764 229.773 213.857 215.382 209.552 208.292C205.247 201.203 180.492 214.704 180.492 214.704Z" fill="#FFC1C8"/>
<path opacity="0.1" d="M191.793 324.875C192.331 324.481 205.246 309.317 206.861 315.816C208.475 322.315 191.793 324.875 191.793 324.875Z" fill="black"/>
<path opacity="0.1" d="M199.328 294.941C199.148 295.532 197.354 312.271 192.152 314.24Z" fill="black"/>
<path opacity="0.1" d="M204.708 299.486C204.708 299.486 200.045 317.407 194.125 318.573Z" fill="black"/>
<path opacity="0.1" d="M181.031 353.233C181.031 353.233 188.924 353.43 190 347.916Z" fill="black"/>
<path opacity="0.1" d="M191.793 389.088C192.869 389.285 209.731 401.1 205.426 403.464C201.121 405.827 191.793 389.088 191.793 389.088Z" fill="black"/>
<path opacity="0.1" d="M193.32 488.828V490.648C193.234 493.42 193.198 495.272 193.198 495.272L165.774 509.624L165.652 490.656C165.652 490.656 165.652 490.569 165.652 490.404V489.12L176.63 489.506L193.32 488.828Z" fill="black"/>
<path d="M198.453 516.407L175.578 526.017L165.311 519.353L165.418 510.231L165.655 490.649L176.633 491.035L193.322 490.396V504.11L198.453 516.407Z" fill="#F20F10"/>
<path opacity="0.1" d="M198.429 516.415L175.555 526.025L165.287 519.361L165.395 510.239C166.884 512.383 168.788 514.137 170.969 515.377C173.15 516.616 175.554 517.31 178.009 517.408C178.009 517.408 186.059 506.38 190.96 503.182C191.308 502.953 191.695 502.804 192.097 502.744C192.499 502.685 192.908 502.716 193.299 502.835V504.119L198.429 516.415Z" fill="black"/>
<path d="M178.032 518.975C178.032 518.975 168.705 519.109 164.026 509.365C164.026 509.365 157.375 516.415 157.253 531.279C157.131 546.143 157.375 546.655 157.375 546.655C157.375 546.655 184.217 545.505 189.24 547.553C194.263 549.601 236.395 545.757 236.395 545.757C236.395 545.757 239.194 537.683 226.472 534.863C213.75 532.043 203.246 517.179 202.894 516.541C202.543 515.903 195.891 501.575 190.991 504.726C186.09 507.876 178.032 518.975 178.032 518.975Z" fill="#5D618C"/>
<path opacity="0.1" d="M202.77 34.8709L200.094 34.4691L201.766 34.4219L202.77 34.8709Z" fill="black"/>
<path opacity="0.1" d="M239.809 82.7323C239.81 86.0927 239.456 89.4418 238.754 92.7126C238.155 92.5429 237.582 92.2775 237.053 91.9249C236.286 91.3813 235.518 90.633 234.614 90.7197C234.084 90.8111 233.587 91.062 233.179 91.4444C228.931 94.8551 225.774 100.464 220.608 101.551C221.126 99.8906 221.195 98.1017 220.809 96.3991C219.713 97.6086 218.369 98.5117 216.89 99.0326C215.41 99.5534 213.838 99.6768 212.306 99.3924C212.68 98.4089 212.723 97.3118 212.428 96.2967C208.79 98.5334 205.003 100.464 201.099 102.071C200.962 101.283 200.833 100.558 200.697 99.802C195.201 102.748 195.631 112.744 190.135 115.69C186.863 117.447 182.242 116.186 179.982 119.353C179.896 119.479 179.817 119.605 179.738 119.739C173.865 115.795 169.034 110.233 165.725 103.606C162.416 96.9779 160.744 89.5153 160.874 81.9587C161.005 74.4021 162.934 67.0145 166.47 60.5296C170.006 54.0447 175.026 48.6881 181.031 44.9918C187.036 41.2954 193.817 39.388 200.701 39.4589C207.585 39.5299 214.333 41.5766 220.274 45.396C226.214 49.2154 231.142 54.6745 234.566 61.2311C237.99 67.7877 239.793 75.2137 239.794 82.7717L239.809 82.7323Z" fill="black"/>
<path d="M202.771 33.29C199.456 31.7854 196.091 30.273 192.525 29.824C188.959 29.375 185.113 30.1391 182.422 32.7464C180.27 34.826 178.583 38.1659 175.713 38.2604C174.314 38.3155 173.023 37.5436 171.767 36.874C168.179 34.9835 163.695 33.9123 160.459 36.4172C157.876 38.4258 156.907 42.1123 156.484 45.5546C156.061 48.9969 155.96 52.644 154.468 55.6767C153.542 57.5672 152.136 59.1111 150.973 60.8362C148.019 65.2193 146.63 70.6392 147.07 76.0705C147.37 78.7563 147.893 81.4062 148.634 83.987L151.562 95.3378C153.047 101.104 154.561 106.949 157.388 112.077C160.215 117.205 164.563 121.616 169.873 122.939C173.073 123.727 176.948 123.081 178.741 120.064C179.201 119.276 179.495 118.433 179.997 117.701C182.221 114.55 186.878 115.803 190.15 114.046C195.646 111.1 195.216 101.104 200.712 98.1578L201.121 100.419C205.021 98.8094 208.805 96.882 212.443 94.6525C212.736 95.6674 212.696 96.7629 212.328 97.7482C213.859 98.0287 215.429 97.9034 216.907 97.3827C218.385 96.862 219.728 95.9611 220.824 94.7549C221.21 96.4575 221.141 98.2465 220.623 99.9066C225.789 98.8116 228.946 93.2031 233.194 89.7924C233.605 89.4156 234.1 89.1678 234.629 89.0755C235.54 88.9889 236.301 89.7372 237.069 90.2729C238.398 91.1592 239.962 91.5242 241.506 91.3081C243.049 91.0921 244.479 90.3078 245.564 89.0834C247.824 86.3895 247.925 82.2461 247.2 78.6699C246.475 75.0937 245.047 71.6829 244.739 68.0358C244.287 63.0654 245.865 57.8744 244.416 53.1481C243.189 49.1387 239.974 46.232 236.523 44.3258C233.072 42.4195 229.348 41.3088 225.825 39.5995C222.481 37.9532 219.367 35.7476 215.895 34.4479C210.872 32.5653 205.412 32.7149 200.109 32.8725" fill="#794F6A"/>
<path d="M203.453 180.015C203.453 180.015 209.194 137.613 160.043 139.708L135.289 143.324C135.289 143.324 158.903 147.987 164.585 148.672L165.188 148.767C170.448 149.822 188.629 148.507 203.453 180.015Z" fill="#6C63FF"/>
<path opacity="0.1" d="M172.062 349.113V348.625C192.218 329.492 172.062 349.113 172.062 349.113Z" fill="black"/>
<path d="M128.702 350.6C125.814 350.884 122.908 350.884 120.02 350.6L59.6406 254.121C60.7528 250.923 63.4148 249.017 65.962 247.891L128.702 350.6Z" fill="#575988"/>
<path d="M89.5464 247.301L86.6763 251.043C86.6763 251.043 64.9067 211.342 60.2285 191.177C61.1182 188.885 62.46 188.396 62.46 188.396C62.46 188.396 64.7274 186.561 68.3795 183.67C69.7357 193.154 74.3637 216.344 89.5464 247.301Z" fill="#575988"/>
<path d="M105.512 235.076L99.7714 238.621C84.1008 218.487 82.7662 184.663 82.9097 171.185L87.0426 167.924C87.6023 185.624 105.512 235.076 105.512 235.076Z" fill="#575988"/>
<path opacity="0.1" d="M120.58 231.547C120.4 234.107 113.763 260.101 123.45 264.434C133.136 268.766 120.58 231.547 120.58 231.547Z" fill="black"/>
<path opacity="0.1" d="M141.389 276.249C141.747 277.627 144.976 322.527 151.972 318.982C158.968 315.437 155.201 264.236 155.201 264.236L141.389 276.249Z" fill="black"/>
<path opacity="0.1" d="M474.912 99.2744C474.926 112.024 470.429 124.282 462.369 133.461C459.086 134.225 455.701 134.289 452.396 133.65C450.706 133.415 449.1 132.707 447.732 131.594C446.415 130.26 445.383 128.621 444.711 126.797C442.092 120.613 440.75 113.469 437.077 108.176C433.403 102.882 425.948 100.558 422.403 105.986C420.473 108.932 420.15 113.461 417.574 115.501C414.482 117.959 410.399 115.068 407.996 111.563C400.892 101.322 403.325 81.1886 389.778 78.3607L389.232 78.2583C393.577 68.0894 400.949 59.8508 410.134 54.9026C419.318 49.9544 429.765 48.5924 439.75 51.0415C449.734 53.4906 458.66 59.6044 465.053 68.3735C471.445 77.1426 474.923 88.0428 474.912 99.2744V99.2744Z" fill="black"/>
<path d="M390.495 77.6283C388.299 77.1635 385.752 77.2266 384.281 75.147C383.413 73.9182 383.162 72.2167 382.954 70.6019C382.071 63.6228 381.59 56.1317 384.123 49.8064C388.278 39.4323 398.969 35.9663 408.26 36.7383C417.552 37.5102 426.672 41.3149 435.964 40.6768C442.795 40.1885 449.532 37.2897 456.342 38.1168C461.73 38.7785 466.753 41.7166 471.596 44.7178C476.131 47.522 480.766 50.539 483.98 55.407C488.702 62.5358 489.591 72.3821 489.721 81.622C489.878 92.4687 489.182 103.733 485.035 113.28C479.022 127.136 465.612 135.383 453.113 132.902C451.423 132.667 449.817 131.959 448.449 130.846C447.136 129.509 446.107 127.871 445.435 126.049C442.809 119.857 441.467 112.721 437.794 107.419C434.12 102.118 426.665 99.8102 423.12 105.238C421.19 108.176 420.867 112.713 418.291 114.753C415.199 117.203 411.116 114.312 408.713 110.815C401.609 100.566 404.041 80.4483 390.495 77.6283Z" fill="#945B79"/>
<path d="M499.688 54.7308C506.526 58.3149 511.269 65.294 515.724 72.0132C519.434 77.598 523.273 83.5688 523.761 90.4534C523.954 93.2734 523.574 96.1407 524.062 98.9134C525.777 108.705 536.977 113.092 540.249 122.419C541.77 126.814 541.29 131.706 540.622 136.353C539.663 143.076 538.372 149.737 536.755 156.306C535.786 160.244 534.688 164.341 535.427 168.342C535.994 171.446 537.58 174.171 538.843 177.007C542.136 184.656 542.703 193.328 542.954 201.78C543.205 210.233 543.198 218.834 545.501 226.9C547.805 234.967 552.885 242.592 560.211 245.199C557.75 247.041 554.898 248.153 551.93 248.429C551.493 251.067 552.863 253.753 554.8 255.423C556.738 257.093 559.106 257.96 561.416 258.787C559.839 260.008 558.026 260.812 556.119 261.134C554.211 261.457 552.262 261.29 550.424 260.646C547.36 259.543 544.827 257.18 542.38 254.864L528.625 241.875C526.788 240.242 525.09 238.428 523.552 236.455C514.655 224.317 519.965 205.924 515 191.343C510.953 179.488 500.075 169.862 501.073 157.251C501.345 153.722 502.579 150.382 503.613 147.011C507.277 134.779 508.428 121.808 506.983 109.03C505.538 96.2522 501.532 83.9842 495.253 73.1081C493.682 70.4299 491.86 67.7359 489.241 66.3574C485.258 64.27 479.568 65.1679 477.308 61.001C476.11 58.8033 475.873 54.9356 475.766 52.4701C483.07 50.6347 492.857 51.1467 499.688 54.7308Z" fill="#945B79"/>
<path opacity="0.1" d="M150.263 188.096C153.621 163.866 181.21 155.114 195.854 173.633C200.087 179.005 203.84 184.89 205.964 190.774C213.139 210.663 213.677 212.436 213.677 212.436C213.677 212.436 169.37 221.888 169.729 228.978L149.639 193.728C149.639 193.728 149.789 191.522 150.263 188.096Z" fill="black"/>
<path d="M150.263 185.732C153.621 161.502 181.21 152.751 195.854 171.27C200.087 176.642 203.84 182.526 205.964 188.41C213.139 208.3 213.677 210.072 213.677 210.072C213.677 210.072 169.37 219.525 169.729 226.614L149.639 191.364C149.639 191.364 149.789 189.159 150.263 185.732Z" fill="#DCE6F2"/>
<path opacity="0.1" d="M162.734 154.643C163.273 155.627 184.439 183.985 195.561 188.026C206.682 192.067 162.734 154.643 162.734 154.643Z" fill="black"/>
<path opacity="0.1" d="M71.7891 246.316C71.7891 246.316 127.756 318.786 134.931 348.128Z" fill="black"/>
<path opacity="0.1" d="M73.9414 179.361C73.9414 179.361 86.1392 248.68 109.817 277.825C133.496 306.97 157.891 356.596 157.891 356.596" stroke="black" stroke-width="2" stroke-miterlimit="10"/>
<g opacity="0.1">
<path opacity="0.1" d="M246.87 78.5117C246.918 80.8156 246.193 83.0585 244.832 84.8134C243.748 86.0377 242.317 86.822 240.774 87.0381C239.231 87.2541 237.667 86.8892 236.337 86.0028C235.569 85.4672 234.808 84.7189 233.897 84.8055C233.369 84.8978 232.873 85.1455 232.462 85.5223C228.423 88.7677 225.366 93.9981 220.623 95.4396C220.791 96.8312 220.663 98.2466 220.25 99.5751C225.416 98.4802 228.573 92.8717 232.821 89.4609C233.232 89.0841 233.727 88.8364 234.256 88.7441C235.167 88.6574 235.928 89.4057 236.696 89.9414C238.025 90.8277 239.59 91.1927 241.133 90.9766C242.676 90.7606 244.107 89.9763 245.191 88.7519C247.408 86.0737 247.544 82.0407 246.87 78.5117Z" fill="black"/>
<path opacity="0.1" d="M244.008 63.7335C244.065 64.3794 244.166 65.0174 244.281 65.6555C244.281 61.7169 245.134 57.6208 244.281 53.8398C244.295 57.0537 243.707 60.4566 244.008 63.7335Z" fill="black"/>
<path opacity="0.1" d="M220.107 90.4515C219.011 91.6577 217.668 92.5586 216.19 93.0793C214.712 93.6 213.142 93.7253 211.611 93.4448C211.979 92.4596 212.019 91.3639 211.726 90.3491C208.088 92.5786 204.304 94.506 200.404 96.1152L199.995 93.8544C194.499 96.8005 194.929 106.797 189.433 109.743C186.161 111.499 181.54 110.231 179.28 113.398C178.778 114.114 178.484 114.973 178.024 115.761C176.23 118.778 172.356 119.431 169.156 118.636C163.832 117.312 159.491 112.901 156.671 107.773C153.851 102.645 152.33 96.8005 150.845 91.0345L147.917 79.6836C147.436 77.793 146.949 75.9025 146.633 73.9727C146.633 74.5556 146.633 75.1306 146.712 75.7056C147.011 78.3914 147.535 81.0414 148.276 83.6221L151.203 94.973C152.689 100.739 154.203 106.584 157.03 111.712C159.857 116.84 164.205 121.251 169.515 122.574C172.715 123.362 176.589 122.716 178.383 119.699C178.842 118.911 179.136 118.069 179.639 117.336C181.863 114.185 186.52 115.438 189.792 113.681C195.288 110.735 194.857 100.739 200.354 97.793L200.762 100.054C204.655 98.4435 208.433 96.5161 212.063 94.2877C212.357 95.3025 212.316 96.3981 211.949 97.3834C213.404 97.6479 214.896 97.5456 216.311 97.0844C217.725 96.6232 219.026 95.815 220.114 94.7209C220.42 93.3173 220.418 91.8539 220.107 90.4515V90.4515Z" fill="black"/>
</g>
<path opacity="0.1" d="M206.259 142.387C202.399 144.828 193.43 150.264 191.614 149.334C189.677 148.35 168.539 140.228 161.479 137.519C161.945 134.888 163.631 128.192 169.221 125.994C170.352 125.66 171.54 125.625 172.686 125.892L194.126 135.203C200.131 138.55 205.118 141.662 206.259 142.387Z" fill="black"/>
<path d="M206.259 140.023C202.399 142.465 193.43 147.9 191.614 146.971C189.677 145.986 168.539 137.865 161.479 135.155C161.945 132.524 163.631 125.829 169.221 123.631C170.352 123.297 171.54 123.262 172.686 123.529L194.126 132.839C200.131 136.187 205.118 139.299 206.259 140.023Z" fill="#DCE6F2"/>
<path opacity="0.1" d="M489.743 80.6844C489.535 89.5619 488.437 98.4394 485.072 106.198C479.059 120.054 465.649 128.301 453.149 125.82C451.46 125.585 449.854 124.877 448.485 123.764C447.172 122.427 446.143 120.79 445.472 118.967C442.846 112.776 441.504 105.639 437.83 100.338C434.157 95.0365 426.702 92.7285 423.157 98.1558C421.227 101.094 420.904 105.631 418.328 107.671C415.236 110.121 411.153 107.23 408.749 103.733C401.646 93.4926 404.078 73.3508 390.531 70.5308C388.336 70.0661 385.789 70.1291 384.318 68.0495C383.449 66.8207 383.198 65.1192 382.99 63.5044C382.746 61.6061 382.538 59.6683 382.416 57.7227C382.167 62.0231 382.359 66.3407 382.99 70.5938C383.198 72.2086 383.449 73.9101 384.318 75.1389C385.789 77.2185 388.336 77.1554 390.531 77.6202C404.078 80.4402 401.646 100.558 408.749 110.822C411.146 114.28 415.207 117.171 418.328 114.761C420.904 112.721 421.198 108.183 423.157 105.245C426.702 99.8178 434.157 102.134 437.83 107.427C441.504 112.721 442.853 119.865 445.472 126.056C446.143 127.879 447.172 129.517 448.485 130.854C449.854 131.967 451.46 132.675 453.149 132.91C465.649 135.391 479.059 127.144 485.072 113.288C489.219 103.741 489.915 92.4764 489.757 81.6296C489.743 81.283 489.743 80.968 489.743 80.6844Z" fill="black"/>
<g opacity="0.1">
<path opacity="0.1" d="M536.662 118.495C538.183 122.89 537.702 127.782 537.035 132.429C536.075 139.147 534.784 145.802 533.167 152.366C532.199 156.305 531.101 160.401 531.84 164.402C532.407 167.506 533.993 170.231 535.255 173.067C538.549 180.716 539.116 189.389 539.367 197.841C539.618 206.293 539.611 214.895 541.914 222.961C543.406 228.458 546.257 233.393 550.151 237.218C548.094 234.193 546.522 230.804 545.502 227.199C543.198 219.132 543.198 210.531 542.954 202.079C542.71 193.626 542.136 184.954 538.843 177.313C537.609 174.454 535.973 171.728 535.428 168.648C534.71 164.647 535.786 160.543 536.755 156.604C538.374 150.022 539.665 143.348 540.622 136.612C541.29 131.965 541.771 127.065 540.249 122.67C539.022 119.148 536.662 116.368 534.1 113.666C535.173 115.123 536.037 116.751 536.662 118.495V118.495Z" fill="black"/>
<path opacity="0.1" d="M560.211 245.513C558.293 244.817 556.491 243.785 554.873 242.457C552.843 243.616 550.624 244.323 548.344 244.537C547.906 247.175 549.276 249.862 551.214 251.531C551.599 251.871 552.007 252.18 552.433 252.453C551.934 251.298 551.767 250.005 551.953 248.743C554.911 248.456 557.754 247.345 560.211 245.513V245.513Z" fill="black"/>
<path opacity="0.1" d="M485.632 62.481C482.899 61.0474 479.361 61.0159 476.678 59.7949C476.83 60.3423 477.034 60.8704 477.288 61.3703C479.548 65.5294 485.238 64.6315 489.22 66.7268C489.723 67.0038 490.203 67.328 490.655 67.6956C489.411 65.5181 487.682 63.7237 485.632 62.481V62.481Z" fill="black"/>
<path opacity="0.1" d="M555.491 256.343C552.742 257.63 549.663 257.789 546.816 256.792C543.752 255.689 541.22 253.326 538.773 251.011L525.018 238.021C524.365 237.407 523.719 236.784 523.088 236.154C523.231 236.367 523.375 236.588 523.533 236.8C525.068 238.774 526.766 240.589 528.606 242.22L542.36 255.217C544.807 257.525 547.34 259.896 550.404 260.999C552.243 261.641 554.193 261.807 556.1 261.483C558.007 261.159 559.82 260.355 561.396 259.132C559.32 258.507 557.332 257.569 555.491 256.343Z" fill="black"/>
<path opacity="0.1" d="M512.137 68.0808C515.847 73.6657 519.685 79.6365 520.173 86.5211C520.367 89.3411 519.987 92.2084 520.475 94.9811C521.25 99.4159 523.983 102.748 527.04 105.922C525.563 103.977 524.541 101.665 524.062 99.1875C523.574 96.4069 523.955 93.5396 523.761 90.7196C523.273 83.835 519.456 77.8642 515.725 72.2872C513.027 68.2147 510.214 64.0556 506.906 60.6055C508.75 63.0001 510.465 65.5523 512.137 68.0808Z" fill="black"/>
</g>
<path opacity="0.1" d="M480.659 51.752C480.659 51.752 476.354 59.629 488.552 66.1907L489.269 64.0875L480.659 51.752Z" fill="black"/>
<path d="M479.942 51.752C479.942 51.752 475.637 59.629 487.835 66.1907L488.552 64.0875L479.942 51.752Z" fill="#FF6584"/>
<path d="M649.785 497.588C649.785 497.588 653.731 503.252 647.97 511.767C642.208 520.282 637.458 527.521 639.359 532.854C639.359 532.854 648.056 516.981 655.145 516.761C662.234 516.54 657.57 507.135 649.785 497.588Z" fill="#6C63FF"/>
<path opacity="0.1" d="M649.787 497.588C650.132 498.134 650.404 498.731 650.598 499.36C657.501 508.269 661.174 516.58 654.537 516.784C648.359 516.981 640.947 529.112 639.168 532.176C639.225 532.412 639.297 532.641 639.376 532.877C639.376 532.877 648.072 517.005 655.162 516.784C662.251 516.564 657.572 507.135 649.787 497.588Z" fill="black"/>
<path d="M657.12 504.804C657.12 506.797 656.912 508.411 656.661 508.411C656.41 508.411 656.209 506.836 656.209 504.804C656.209 502.772 656.46 503.748 656.711 503.748C656.962 503.748 657.12 502.811 657.12 504.804Z" fill="#FFD037"/>
<path d="M659.629 507.182C658.036 508.135 656.644 508.71 656.529 508.466C656.414 508.222 657.598 507.253 659.191 506.3C660.784 505.347 660.16 506.04 660.282 506.3C660.404 506.56 661.229 506.229 659.629 507.182Z" fill="#FFD037"/>
<path d="M628.943 497.588C628.943 497.588 624.997 503.252 630.758 511.767C636.52 520.282 641.27 527.521 639.369 532.854C639.369 532.854 630.679 516.981 623.583 516.761C616.487 516.54 621.187 507.135 628.943 497.588Z" fill="#6C63FF"/>
<path opacity="0.1" d="M628.941 497.588C628.597 498.134 628.324 498.731 628.13 499.36C621.228 508.269 617.554 516.58 624.191 516.784C630.369 516.981 637.781 529.112 639.56 532.176C639.502 532.414 639.43 532.649 639.345 532.877C639.345 532.877 630.656 517.005 623.56 516.784C616.463 516.564 621.185 507.135 628.941 497.588Z" fill="black"/>
<path d="M621.637 504.804C621.637 506.797 621.845 508.411 622.096 508.411C622.347 508.411 622.548 506.836 622.548 504.804C622.548 502.772 622.297 503.748 622.046 503.748C621.795 503.748 621.637 502.811 621.637 504.804Z" fill="#FFD037"/>
<path d="M619.127 507.182C620.72 508.135 622.105 508.71 622.227 508.466C622.349 508.222 621.158 507.253 619.565 506.3C617.972 505.347 618.596 506.04 618.474 506.3C618.352 506.56 617.534 506.229 619.127 507.182Z" fill="#FFD037"/>
<path d="M622.893 532.137C622.893 532.137 633.914 531.759 637.243 529.168C640.572 526.576 654.198 523.465 655.023 527.592C655.848 531.72 671.584 548.301 659.142 548.411C646.7 548.522 630.233 546.285 626.918 544.071C623.603 541.858 622.893 532.137 622.893 532.137Z" fill="#A8A8A8"/>
<path opacity="0.2" d="M659.357 547.009C646.915 547.119 630.448 544.882 627.133 542.668C624.607 540.975 623.603 534.917 623.266 532.129H622.893C622.893 532.129 623.61 541.889 626.911 544.11C630.211 546.331 646.693 548.561 659.134 548.45C662.722 548.45 663.963 547.017 663.899 544.937C663.382 546.221 662.026 547.009 659.357 547.009Z" fill="black"/>
<path d="M130.329 518.251C131.646 517.074 132.607 515.487 133.084 513.698C133.436 511.886 132.733 509.712 131.161 509.05C129.396 508.31 127.509 509.657 126.081 511.012C124.653 512.366 123.01 513.918 121.137 513.627C122.101 512.669 122.821 511.454 123.228 510.1C123.636 508.745 123.716 507.298 123.462 505.899C123.381 505.32 123.157 504.775 122.816 504.324C121.841 503.174 120.061 503.67 118.884 504.576C115.153 507.451 114.113 513.02 114.099 518.022C113.718 516.218 114.034 514.336 114.027 512.508C114.02 510.681 113.553 508.57 112.133 507.609C111.255 507.075 110.265 506.804 109.262 506.821C107.583 506.75 105.718 506.939 104.57 508.286C103.135 509.956 103.515 512.768 104.756 514.588C105.998 516.407 107.878 517.589 109.607 518.857C110.999 519.765 112.186 521.007 113.08 522.489C113.184 522.697 113.271 522.916 113.338 523.142H123.807C126.172 521.843 128.366 520.197 130.329 518.251V518.251Z" fill="#6C63FF"/>
<path d="M46.7898 530.671C46.7898 530.671 36.7445 493.097 48.6769 465.433C53.7643 453.867 55.3 440.803 53.0538 428.198C51.939 422.223 50.3299 416.372 48.2464 410.719" stroke="#535461" stroke-width="2" stroke-miterlimit="10"/>
<path d="M55.701 393.24C55.701 397.84 48.1024 411.2 48.1024 411.2C48.1024 411.2 40.5039 397.809 40.5039 393.24C40.5039 391.028 41.3045 388.906 42.7295 387.342C44.1545 385.777 46.0872 384.898 48.1024 384.898C50.1177 384.898 52.0504 385.777 53.4754 387.342C54.9004 388.906 55.701 391.028 55.701 393.24V393.24Z" fill="#6C63FF"/>
<path d="M68.2571 418.748C65.9754 422.615 52.9883 429.295 52.9883 429.295C52.9883 429.295 53.2179 413.541 55.4996 409.689C56.6146 407.884 58.3292 406.63 60.276 406.196C62.2227 405.762 64.2469 406.182 65.9149 407.367C67.583 408.551 68.7622 410.406 69.1999 412.533C69.6377 414.66 69.2993 416.891 68.2571 418.748V418.748Z" fill="#6C63FF"/>
<path d="M67.7051 462.346C63.9597 464.418 49.6738 462.984 49.6738 462.984C49.6738 462.984 57.1217 449.53 60.8671 447.45C61.7604 446.931 62.7391 446.613 63.7458 446.514C64.7526 446.415 65.7672 446.537 66.7303 446.874C67.6933 447.211 68.5855 447.756 69.3545 448.476C70.1235 449.196 70.754 450.077 71.2089 451.068C71.6638 452.059 71.934 453.14 72.0037 454.247C72.0735 455.354 71.9414 456.465 71.6151 457.515C71.2888 458.565 70.7749 459.534 70.1035 460.363C69.4321 461.193 68.6168 461.867 67.7051 462.346Z" fill="#6C63FF"/>
<path d="M37.0388 430.184C40.0452 433.398 54.0656 436.722 54.0656 436.722C54.0656 436.722 50.6286 421.433 47.6079 418.219C46.8986 417.423 46.0513 416.791 45.1161 416.36C44.1808 415.93 43.1765 415.709 42.1622 415.711C41.148 415.713 40.1445 415.938 39.2107 416.373C38.2769 416.807 37.4319 417.443 36.7253 418.242C36.0188 419.04 35.465 419.986 35.0968 421.024C34.7285 422.061 34.5531 423.169 34.581 424.282C34.6089 425.395 34.8394 426.491 35.2591 427.504C35.6787 428.518 36.279 429.429 37.0245 430.184H37.0388Z" fill="#6C63FF"/>
<path d="M29.0967 468.759C32.8421 470.831 47.1279 469.405 47.1279 469.405C47.1279 469.405 39.6873 455.943 35.9346 453.871C35.0442 453.378 34.0741 453.083 33.0796 453.002C32.0851 452.92 31.0858 453.055 30.1387 453.397C29.1915 453.74 28.3152 454.284 27.5596 454.999C26.8041 455.713 26.1841 456.584 25.7351 457.562C25.2861 458.539 25.0169 459.604 24.9428 460.696C24.8688 461.788 24.9913 462.885 25.3035 463.925C25.6156 464.964 26.1113 465.927 26.7621 466.756C27.413 467.586 28.2062 468.266 29.0967 468.759V468.759Z" fill="#6C63FF"/>
<path d="M26.038 507.419C29.4104 510.152 43.7105 511.357 43.7105 511.357C43.7105 511.357 38.4439 496.706 35.1003 493.965C33.4776 492.776 31.5008 492.319 29.5792 492.686C27.6575 493.054 25.9383 494.219 24.7774 495.94C23.6165 497.661 23.1029 499.806 23.3429 501.931C23.5829 504.056 24.5582 505.998 26.0667 507.356L26.038 507.419Z" fill="#6C63FF"/>
<path d="M55.701 393.24C55.701 397.84 48.1024 411.2 48.1024 411.2C48.1024 411.2 40.5039 397.809 40.5039 393.24C40.5039 391.028 41.3045 388.906 42.7295 387.342C44.1545 385.777 46.0872 384.898 48.1024 384.898C50.1177 384.898 52.0504 385.777 53.4754 387.342C54.9004 388.906 55.701 391.028 55.701 393.24V393.24Z" fill="#F20F10"/>
<path d="M68.2571 418.748C65.9754 422.615 52.9883 429.295 52.9883 429.295C52.9883 429.295 53.2179 413.541 55.4996 409.689C56.6146 407.884 58.3292 406.63 60.276 406.196C62.2227 405.762 64.2469 406.182 65.9149 407.367C67.583 408.551 68.7622 410.406 69.1999 412.533C69.6377 414.66 69.2993 416.891 68.2571 418.748V418.748Z" fill="#F20F10"/>
<path d="M67.7051 462.346C63.9597 464.418 49.6738 462.984 49.6738 462.984C49.6738 462.984 57.1217 449.53 60.8671 447.45C61.7604 446.931 62.7391 446.613 63.7458 446.514C64.7526 446.415 65.7672 446.537 66.7303 446.874C67.6933 447.211 68.5855 447.756 69.3545 448.476C70.1235 449.196 70.754 450.077 71.2089 451.068C71.6638 452.059 71.934 453.14 72.0037 454.247C72.0735 455.354 71.9414 456.465 71.6151 457.515C71.2888 458.565 70.7749 459.534 70.1035 460.363C69.4321 461.193 68.6168 461.867 67.7051 462.346Z" fill="#F20F10"/>
<path d="M37.0388 430.184C40.0452 433.398 54.0656 436.722 54.0656 436.722C54.0656 436.722 50.6286 421.433 47.6079 418.219C46.8986 417.423 46.0513 416.791 45.1161 416.36C44.1808 415.93 43.1765 415.709 42.1622 415.711C41.148 415.713 40.1445 415.938 39.2107 416.373C38.2769 416.807 37.4319 417.443 36.7253 418.242C36.0188 419.04 35.465 419.986 35.0968 421.024C34.7285 422.061 34.5531 423.169 34.581 424.282C34.6089 425.395 34.8394 426.491 35.2591 427.504C35.6787 428.518 36.279 429.429 37.0245 430.184H37.0388Z" fill="#F20F10"/>
<path d="M29.0967 468.759C32.8421 470.831 47.1279 469.405 47.1279 469.405C47.1279 469.405 39.6873 455.943 35.9346 453.871C35.0442 453.378 34.0741 453.083 33.0796 453.002C32.0851 452.92 31.0858 453.055 30.1387 453.397C29.1915 453.74 28.3152 454.284 27.5596 454.999C26.8041 455.713 26.1841 456.584 25.7351 457.562C25.2861 458.539 25.0169 459.604 24.9428 460.696C24.8688 461.788 24.9913 462.885 25.3035 463.925C25.6156 464.964 26.1113 465.927 26.7621 466.756C27.413 467.586 28.2062 468.266 29.0967 468.759V468.759Z" fill="#F20F10"/>
<path d="M26.038 507.419C29.4104 510.152 43.7105 511.357 43.7105 511.357C43.7105 511.357 38.4439 496.706 35.1003 493.965C33.4776 492.776 31.5008 492.319 29.5792 492.686C27.6575 493.054 25.9383 494.219 24.7774 495.94C23.6165 497.661 23.1029 499.806 23.3429 501.931C23.5829 504.056 24.5582 505.998 26.0667 507.356L26.038 507.419Z" fill="white"/>
<path d="M22.9609 528.309C22.9609 528.309 35.2377 525.631 38.5096 522.063C41.7815 518.494 56.5193 512.248 58.1553 516.706C59.7912 521.165 80.2549 536.336 66.3422 539.014C52.4295 541.692 33.6018 542.582 29.5047 540.794C25.4077 539.006 22.9609 528.309 22.9609 528.309Z" fill="#A8A8A8"/>
<path opacity="0.2" d="M66.3422 537.352C52.4223 540.03 33.6018 540.921 29.5047 539.14C26.3907 537.778 24.2238 531.263 23.3699 528.215L22.9609 528.309C22.9609 528.309 25.4149 539.014 29.5047 540.795C33.5946 542.575 52.4223 541.693 66.3422 539.014C70.3531 538.227 71.5011 536.423 71.0706 534.131C70.7119 535.627 69.3271 536.769 66.3422 537.352Z" fill="black"/>
</g>
<defs>
<linearGradient id="paint0_linear_302:2" x1="310.248" y1="552.469" x2="310.248" y2="25.4279" gradientUnits="userSpaceOnUse">
<stop stop-color="#808080" stop-opacity="0.25"/>
<stop offset="0.54" stop-color="#808080" stop-opacity="0.12"/>
<stop offset="1" stop-color="#808080" stop-opacity="0.1"/>
</linearGradient>
<clipPath id="clip0_302:2">
<rect width="729" height="564" fill="white"/>
</clipPath>
</defs>
<!-- Code injected by live-server -->
<script type="text/javascript">
	// <![CDATA[  <-- For SVG support
	if ('WebSocket' in window) {
		(function () {
			function refreshCSS() {
				var sheets = [].slice.call(document.getElementsByTagName("link"));
				var head = document.getElementsByTagName("head")[0];
				for (var i = 0; i < sheets.length; ++i) {
					var elem = sheets[i];
					var parent = elem.parentElement || head;
					parent.removeChild(elem);
					var rel = elem.rel;
					if (elem.href && typeof rel != "string" || rel.length == 0 || rel.toLowerCase() == "stylesheet") {
						var url = elem.href.replace(/(&|\?)_cacheOverride=\d+/, '');
						elem.href = url + (url.indexOf('?') >= 0 ? '&' : '?') + '_cacheOverride=' + (new Date().valueOf());
					}
					parent.appendChild(elem);
				}
			}
			var protocol = window.location.protocol === 'http:' ? 'ws://' : 'wss://';
			var address = protocol + window.location.host + window.location.pathname + '/ws';
			var socket = new WebSocket(address);
			socket.onmessage = function (msg) {
				if (msg.data == 'reload') window.location.reload();
				else if (msg.data == 'refreshcss') refreshCSS();
			};
			if (sessionStorage && !sessionStorage.getItem('IsThisFirstTime_Log_From_LiveServer')) {
				console.log('Live reload enabled.');
				sessionStorage.setItem('IsThisFirstTime_Log_From_LiveServer', true);
			}
		})();
	}
	else {
		console.error('Upgrade your browser. This Browser is NOT supported WebSocket for Live-Reloading.');
	}
	// ]]>
</script></svg>
