<svg width="265" height="150" viewBox="0 0 265 150" fill="none" xmlns="http://www.w3.org/2000/svg">
<g clip-path="url(#clip0)">
<path opacity="0.1" d="M147.538 20.3566C132.249 20.2688 117.594 16.3624 103.584 12.0363C89.5737 7.71029 75.6879 2.89135 60.7138 0.773459C51.0832 -0.583163 40.1083 -0.541687 32.4883 4.08693C25.1561 8.54231 22.9309 15.9793 21.8061 22.8576C20.957 28.0328 20.5178 33.469 23.2993 38.2294C25.2293 41.5331 28.5794 44.2683 30.9291 47.4208C39.1006 58.3884 33.8571 72.284 25.5612 83.3883C21.6572 88.5977 17.1287 93.5874 14.1617 99.1017C11.1947 104.616 9.91367 110.889 12.7587 116.372C15.5793 121.808 22.0842 125.785 29.0918 128.525C43.3266 134.086 59.972 135.372 76.1832 135.935C112.078 137.185 148.089 135.394 184.003 133.605C197.296 132.942 210.645 132.273 223.684 130.189C230.926 129.028 238.39 127.278 243.572 123.372C250.16 118.409 251.624 110.245 246.988 104.34C239.219 94.4316 218.348 92.4284 212.829 81.7267C209.789 75.8342 212.599 69.1218 216.674 63.4904C225.414 51.4101 240.291 40.6352 240.759 27.0592C241.081 17.7337 233.581 8.58379 222.227 4.45049C210.311 0.102466 193.987 1.07845 185.467 8.93515C176.703 17.0236 161.048 20.4347 147.538 20.3566Z" fill="#FD1E00"/>
<path d="M138.844 59.5206C138.844 59.5206 132.139 47.6404 122.037 44.2171C117.792 42.8075 114.119 40.0593 111.568 36.3848C110.37 34.6313 109.336 32.7715 108.479 30.829" stroke="#535461" stroke-width="2" stroke-miterlimit="10"/>
<path d="M102.13 28.633C103.279 29.7505 108.64 30.9046 108.64 30.9046C108.64 30.9046 107.325 25.5831 106.175 24.4655C105.623 23.9291 104.88 23.6341 104.109 23.6456C103.339 23.657 102.605 23.9739 102.069 24.5265C101.532 25.0792 101.237 25.8223 101.249 26.5924C101.26 27.3625 101.577 28.0965 102.13 28.633V28.633Z" fill="#FD1E00"/>
<path d="M105.172 38.2709C106.746 38.5832 111.875 36.6386 111.875 36.6386C111.875 36.6386 107.856 32.881 106.292 32.5687C105.536 32.4202 104.752 32.5782 104.112 33.0078C103.472 33.4375 103.03 34.1037 102.881 34.8598C102.733 35.616 102.891 36.4002 103.32 37.0399C103.75 37.6796 104.416 38.1224 105.172 38.2709V38.2709Z" fill="#FD1E00"/>
<path d="M116.201 48.6871C117.716 48.1626 121.162 43.8975 121.162 43.8975C121.162 43.8975 115.818 42.6775 114.303 43.1997C113.938 43.3203 113.6 43.5124 113.31 43.7647C113.019 44.017 112.782 44.3245 112.611 44.6693C112.44 45.0142 112.34 45.3895 112.316 45.7734C112.292 46.1574 112.344 46.5424 112.47 46.906C112.595 47.2695 112.792 47.6045 113.049 47.8914C113.305 48.1783 113.616 48.4114 113.963 48.5771C114.31 48.7428 114.687 48.8379 115.071 48.8568C115.455 48.8757 115.839 48.818 116.201 48.6871V48.6871Z" fill="#FD1E00"/>
<path d="M126.332 54.6943C127.913 54.4333 132.029 50.8099 132.029 50.8099C132.029 50.8099 126.968 48.7018 125.385 48.9628C124.625 49.0884 123.946 49.5107 123.497 50.1369C123.048 50.7631 122.867 51.5419 122.992 52.3019C123.118 53.062 123.54 53.741 124.167 54.1897C124.793 54.6384 125.572 54.8199 126.332 54.6943Z" fill="#FD1E00"/>
<path d="M116.331 32.4736C116.331 34.0791 113.429 38.7296 113.429 38.7296C113.429 38.7296 110.523 34.0815 110.523 32.476C110.523 31.7059 110.829 30.9674 111.374 30.4229C111.918 29.8783 112.657 29.5724 113.427 29.5724C114.197 29.5724 114.936 29.8783 115.48 30.4229C116.025 30.9674 116.331 31.7059 116.331 32.476V32.4736Z" fill="#FD1E00"/>
<path d="M128.089 39.6471C127.601 41.1794 123.453 44.749 123.453 44.749C123.453 44.749 122.072 39.4421 122.55 37.9171C122.78 37.182 123.293 36.5684 123.975 36.2112C124.658 35.8541 125.454 35.7827 126.189 36.0127C126.924 36.2428 127.538 36.7554 127.895 37.4379C128.252 38.1204 128.324 38.9168 128.093 39.6519L128.089 39.6471Z" fill="#FD1E00"/>
<path d="M138.559 48.1869C138.346 49.7778 134.847 54.0014 134.847 54.0014C134.847 54.0014 132.59 49.0043 132.803 47.4135C132.905 46.6502 133.307 45.9589 133.919 45.4917C134.531 45.0245 135.304 44.8197 136.067 44.9223C136.831 45.0248 137.522 45.4264 137.989 46.0387C138.456 46.6509 138.661 47.4237 138.559 48.1869V48.1869Z" fill="#FD1E00"/>
<path opacity="0.25" d="M102.13 28.633C103.279 29.7505 108.64 30.9046 108.64 30.9046C108.64 30.9046 107.325 25.5831 106.175 24.4655C105.623 23.9291 104.88 23.6341 104.109 23.6456C103.339 23.657 102.605 23.9739 102.069 24.5265C101.532 25.0792 101.237 25.8223 101.249 26.5924C101.26 27.3625 101.577 28.0965 102.13 28.633V28.633Z" fill="black"/>
<path opacity="0.25" d="M105.172 38.2709C106.746 38.5832 111.875 36.6386 111.875 36.6386C111.875 36.6386 107.856 32.881 106.292 32.5687C105.536 32.4202 104.752 32.5782 104.112 33.0078C103.472 33.4375 103.03 34.1037 102.881 34.8598C102.733 35.616 102.891 36.4002 103.32 37.0399C103.75 37.6796 104.416 38.1224 105.172 38.2709V38.2709Z" fill="black"/>
<path opacity="0.25" d="M116.201 48.6871C117.716 48.1626 121.162 43.8975 121.162 43.8975C121.162 43.8975 115.818 42.6775 114.303 43.1997C113.938 43.3203 113.6 43.5124 113.31 43.7647C113.019 44.017 112.782 44.3245 112.611 44.6693C112.44 45.0142 112.34 45.3895 112.316 45.7734C112.292 46.1574 112.344 46.5424 112.47 46.906C112.595 47.2695 112.792 47.6045 113.049 47.8914C113.305 48.1783 113.616 48.4114 113.963 48.5771C114.31 48.7428 114.687 48.8379 115.071 48.8568C115.455 48.8757 115.839 48.818 116.201 48.6871V48.6871Z" fill="black"/>
<path opacity="0.25" d="M126.332 54.6943C127.913 54.4333 132.029 50.8099 132.029 50.8099C132.029 50.8099 126.968 48.7018 125.385 48.9628C124.625 49.0884 123.946 49.5107 123.497 50.1369C123.048 50.7631 122.867 51.5419 122.992 52.3019C123.118 53.062 123.54 53.741 124.167 54.1897C124.793 54.6384 125.572 54.8199 126.332 54.6943Z" fill="black"/>
<path opacity="0.25" d="M116.331 32.4736C116.331 34.0791 113.429 38.7296 113.429 38.7296C113.429 38.7296 110.523 34.0815 110.523 32.476C110.523 31.7059 110.829 30.9674 111.374 30.4229C111.918 29.8783 112.657 29.5724 113.427 29.5724C114.197 29.5724 114.936 29.8783 115.48 30.4229C116.025 30.9674 116.331 31.7059 116.331 32.476V32.4736Z" fill="black"/>
<path opacity="0.25" d="M128.089 39.6471C127.601 41.1794 123.453 44.749 123.453 44.749C123.453 44.749 122.072 39.4421 122.55 37.9171C122.78 37.182 123.293 36.5684 123.975 36.2112C124.658 35.8541 125.454 35.7827 126.189 36.0127C126.924 36.2428 127.538 36.7554 127.895 37.4379C128.252 38.1204 128.324 38.9168 128.093 39.6519L128.089 39.6471Z" fill="black"/>
<path opacity="0.25" d="M138.559 48.1869C138.346 49.7778 134.847 54.0014 134.847 54.0014C134.847 54.0014 132.59 49.0043 132.803 47.4135C132.905 46.6502 133.307 45.9589 133.919 45.4917C134.531 45.0245 135.304 44.8197 136.067 44.9223C136.831 45.0248 137.522 45.4264 137.989 46.0387C138.456 46.6509 138.661 47.4237 138.559 48.1869V48.1869Z" fill="black"/>
<path d="M138.461 59.2864C138.461 59.2864 137.144 45.7055 129.299 38.4832C125.988 35.4751 123.743 31.4742 122.899 27.0812C122.516 24.9926 122.324 22.8731 122.328 20.7495" stroke="#535461" stroke-width="2" stroke-miterlimit="10"/>
<path d="M117.412 16.1672C118.009 17.6556 122.443 20.8837 122.443 20.8837C122.443 20.8837 123.397 15.484 122.797 13.9957C122.658 13.6362 122.45 13.3078 122.183 13.0296C121.917 12.7515 121.598 12.5291 121.244 12.3755C120.891 12.222 120.511 12.1402 120.126 12.1351C119.74 12.1299 119.358 12.2014 119.001 12.3455C118.643 12.4896 118.318 12.7033 118.045 12.9742C117.771 13.2451 117.554 13.5678 117.406 13.9235C117.258 14.2792 117.182 14.6608 117.183 15.046C117.184 15.4312 117.262 15.8123 117.412 16.1672Z" fill="#FD1E00"/>
<path d="M116.279 26.2028C117.592 27.1251 123.064 27.4228 123.064 27.4228C123.064 27.4228 120.932 22.3721 119.622 21.4498C118.992 21.0065 118.211 20.8316 117.453 20.9636C116.694 21.0956 116.018 21.5237 115.575 22.1537C115.132 22.7837 114.957 23.5639 115.089 24.3228C115.221 25.0817 115.649 25.7571 116.279 26.2004V26.2028Z" fill="#FD1E00"/>
<path d="M122.15 40.2058C123.748 40.34 128.626 37.8342 128.626 37.8342C128.626 37.8342 124.234 34.5524 122.635 34.4182C121.868 34.3535 121.106 34.5963 120.518 35.0932C119.929 35.5902 119.562 36.3005 119.498 37.068C119.433 37.8355 119.676 38.5972 120.173 39.1857C120.67 39.7742 121.38 40.1411 122.147 40.2058H122.15Z" fill="#FD1E00"/>
<path d="M128.977 49.7997C130.529 50.2023 135.76 48.5578 135.76 48.5578C135.76 48.5578 131.985 44.5807 130.433 44.1659C130.058 44.0474 129.663 44.0066 129.271 44.0457C128.879 44.0849 128.5 44.2033 128.155 44.3937C127.811 44.5842 127.508 44.8427 127.267 45.1535C127.025 45.4644 126.85 45.8211 126.75 46.202C126.651 46.5828 126.63 46.9799 126.689 47.3691C126.748 47.7583 126.885 48.1315 127.093 48.466C127.3 48.8004 127.574 49.0892 127.896 49.3147C128.219 49.5402 128.584 49.6978 128.969 49.7778L128.977 49.7997Z" fill="#FD1E00"/>
<path d="M128.84 25.4342C128.191 26.8982 123.652 29.9774 123.652 29.9774C123.652 29.9774 122.879 24.5509 123.528 23.0845C123.84 22.3801 124.418 21.8284 125.137 21.5506C125.855 21.2729 126.654 21.2919 127.359 21.6035C128.063 21.9151 128.615 22.4937 128.893 23.2121C129.17 23.9305 129.151 24.7298 128.84 25.4342V25.4342Z" fill="#FD1E00"/>
<path d="M136.68 36.7581C135.621 37.961 130.37 39.5397 130.37 39.5397C130.37 39.5397 131.256 34.1303 132.322 32.925C132.574 32.6383 132.879 32.4041 133.222 32.2356C133.564 32.0671 133.936 31.9677 134.317 31.943C134.697 31.9183 135.079 31.9688 135.44 32.0917C135.801 32.2145 136.135 32.4073 136.421 32.659C136.708 32.9107 136.942 33.2164 137.111 33.5586C137.279 33.9008 137.378 34.2728 137.403 34.6535C137.428 35.0341 137.377 35.4159 137.255 35.777C137.132 36.1381 136.939 36.4715 136.687 36.7581H136.68Z" fill="#FD1E00"/>
<path d="M142.792 48.8067C141.953 50.1731 137.043 52.6179 137.043 52.6179C137.043 52.6179 137.002 47.1353 137.841 45.7665C138.255 45.1334 138.9 44.6866 139.638 44.5212C140.376 44.3558 141.15 44.4847 141.794 44.8805C142.439 45.2764 142.904 45.9079 143.09 46.6411C143.276 47.3742 143.169 48.1511 142.792 48.8067V48.8067Z" fill="#FD1E00"/>
<path opacity="0.1" d="M201.666 145.642C202.386 147.106 197.293 148.679 190.986 149.133C185.335 149.541 180.689 148.877 180.101 147.686C179.513 146.496 183.112 145.051 188.641 144.4C194.812 143.677 200.946 144.192 201.666 145.642Z" fill="#FD1E00"/>
<path d="M53.3745 68.2093L131.107 40.6791V135.787L53.3745 134.166V68.2093Z" fill="white"/>
<path opacity="0.2" d="M53.3745 68.2093L131.107 40.6791V135.787L53.3745 134.166V68.2093Z" fill="#FD1E00"/>
<path d="M0 83.9154L44.3464 68.2093V134.166H0V83.9154Z" fill="white"/>
<path opacity="0.2" d="M0 83.9154L44.3464 68.2093V134.166H0V83.9154Z" fill="#FD1E00"/>
<path d="M131.107 40.6791L208.837 68.2093V134.166L131.107 135.787V40.6791Z" fill="white"/>
<path opacity="0.5" d="M131.107 40.6791L208.837 68.2093V134.166L131.107 135.787V40.6791Z" fill="#FD1E00"/>
<path d="M263.014 84.113L218.109 68.2093V134.166H263.014V84.113Z" fill="white"/>
<path opacity="0.5" d="M263.014 84.113L218.109 68.2093V134.166H263.014V84.113Z" fill="#FD1E00"/>
<path d="M25.8418 95.3661C25.527 95.3661 25.2708 95.7956 25.2708 96.325V108.261C25.2875 109.439 25.0099 110.602 24.4632 111.646C23.9532 112.541 23.1724 113.11 22.4258 113.11H21.9378C21.2058 113.11 20.4885 112.563 19.9273 111.599C19.3422 110.559 19.037 109.384 19.0416 108.191V92.7895C19.0263 91.9382 19.2458 91.099 19.676 90.3642C20.0834 89.72 20.6178 89.3638 21.179 89.3638C21.7402 89.3638 22.255 89.72 22.643 90.3593C23.0544 91.1056 23.2615 91.9473 23.2432 92.7993V107.18C23.2432 108.23 22.7552 109.157 22.1794 109.157C21.6914 109.157 21.1448 108.366 21.1448 107.18V98.9675C21.1448 98.4405 20.8886 98.0086 20.5739 98.0086C20.2591 98.0086 20.0005 98.4405 20.0005 98.9675V107.171C20.0005 109.352 20.9374 110.997 22.1794 110.997C22.7845 110.997 23.3432 110.621 23.7458 109.935C24.1961 109.085 24.4172 108.132 24.3875 107.171V92.7895C24.4127 91.4625 24.0833 90.1527 23.4335 88.9954C22.8284 87.9828 22.0208 87.4289 21.1595 87.4289C20.2982 87.4289 19.4905 87.9828 18.8781 88.9954C18.2266 90.1546 17.898 91.4674 17.9265 92.7968V108.195C17.9265 109.96 18.3755 111.751 19.1221 112.985C19.8687 114.22 20.8789 114.937 21.9134 114.937H22.4136C23.4262 114.937 24.4412 114.22 25.1976 112.966C25.5892 112.303 25.8842 111.589 26.0736 110.843C26.2922 109.998 26.4021 109.129 26.4005 108.256V96.3006C26.4005 95.7712 26.1565 95.3417 25.832 95.3417L25.8418 95.3661Z" fill="white"/>
<path d="M135.079 121.942C135.079 121.942 136.526 123.836 134.41 126.693C132.295 129.55 130.548 131.966 131.256 133.742C131.256 133.742 134.447 128.435 137.043 128.374C139.639 128.313 137.934 125.134 135.079 121.942Z" fill="#FD1E00"/>
<path opacity="0.1" d="M135.079 121.942C135.205 122.126 135.304 122.326 135.374 122.538C137.907 125.514 139.256 128.291 136.821 128.362C134.552 128.428 131.832 132.483 131.18 133.508C131.2 133.591 131.225 133.672 131.256 133.752C131.256 133.752 134.447 128.445 137.043 128.384C139.64 128.323 137.934 125.134 135.079 121.942Z" fill="black"/>
<path d="M137.768 124.355C137.768 125.022 137.692 125.561 137.6 125.561C137.507 125.561 137.434 125.022 137.434 124.355C137.434 123.689 137.526 124.002 137.619 124.002C137.712 124.002 137.768 123.689 137.768 124.355Z" fill="#FFD037"/>
<path d="M138.69 125.151C138.107 125.468 137.597 125.661 137.553 125.58C137.509 125.5 137.946 125.175 138.529 124.848C139.112 124.521 138.883 124.763 138.927 124.848C138.971 124.934 139.276 124.831 138.69 125.151Z" fill="#FFD037"/>
<path d="M127.435 121.942C127.435 121.942 125.988 123.836 128.104 126.693C130.219 129.55 131.961 131.966 131.256 133.742C131.256 133.742 128.067 128.435 125.468 128.374C122.87 128.313 124.578 125.134 127.435 121.942Z" fill="#FD1E00"/>
<path opacity="0.1" d="M127.435 121.942C127.309 122.126 127.21 122.326 127.14 122.538C124.605 125.514 123.255 128.291 125.693 128.362C127.96 128.428 130.683 132.483 131.334 133.508C131.313 133.591 131.287 133.672 131.256 133.752C131.256 133.752 128.067 128.445 125.468 128.384C122.87 128.323 124.578 125.134 127.435 121.942Z" fill="black"/>
<path d="M124.746 124.355C124.746 125.022 124.819 125.561 124.912 125.561C125.005 125.561 125.08 125.022 125.08 124.355C125.08 123.689 124.985 124.002 124.895 124.002C124.805 124.002 124.746 123.689 124.746 124.355Z" fill="#FFD037"/>
<path d="M123.821 125.151C124.406 125.468 124.916 125.661 124.96 125.58C125.004 125.5 124.567 125.175 123.984 124.848C123.401 124.521 123.63 124.763 123.586 124.848C123.543 124.934 123.228 124.831 123.821 125.151Z" fill="#FFD037"/>
<path opacity="0.1" d="M131.255 148.216C139.61 148.216 146.383 147.177 146.383 145.895C146.383 144.614 139.61 143.575 131.255 143.575C122.9 143.575 116.127 144.614 116.127 145.895C116.127 147.177 122.9 148.216 131.255 148.216Z" fill="#FD1E00"/>
<path d="M139.044 131.192L138.971 131.783L138.869 132.617L138.827 132.964L138.725 133.801L138.681 134.147L138.581 134.981L137.422 144.473C137.319 145.32 135.936 145.981 134.264 145.981H128.25C126.579 145.981 125.198 145.32 125.093 144.473L123.934 134.981L123.831 134.147L123.79 133.801L123.687 132.964L123.643 132.617L123.543 131.783L123.47 131.192C123.411 130.704 124.161 130.306 125.107 130.306H137.41C138.356 130.306 139.103 130.712 139.044 131.192Z" fill="#444053"/>
<path d="M138.971 131.783L138.868 132.617H123.643L123.543 131.783H138.971Z" fill="#9D9CB5"/>
<path d="M138.827 132.966L138.725 133.801H123.789L123.687 132.966H138.827Z" fill="#9D9CB5"/>
<path d="M138.681 134.149L138.581 134.984H123.934L123.831 134.149H138.681Z" fill="#9D9CB5"/>
<path d="M101.845 79.6528L99.5144 82.7491C99.495 82.7779 99.4675 82.8005 99.4354 82.8139C99.4033 82.8274 99.368 82.8311 99.3338 82.8247L96.9256 82.2489C96.8801 82.2316 96.8403 82.2018 96.811 82.163C96.7816 82.1241 96.7638 82.0778 96.7597 82.0293L96.3302 78.8402C96.3174 78.7547 96.3374 78.6675 96.3863 78.5962L98.7116 75.5048C98.7987 75.3807 98.8408 75.2306 98.8311 75.0794C98.8213 74.9281 98.7602 74.7847 98.658 74.6728C98.2176 74.2332 97.63 73.9724 97.0085 73.9408C96.9745 73.937 96.9401 73.937 96.9061 73.9408C96.257 73.9896 94.8662 74.4703 93.7927 75.9806C92.7508 77.4446 91.6601 80.1432 92.6264 83.159C92.741 83.5225 92.8704 84.0032 92.4848 84.5132C92.0993 85.0231 82.1272 97.445 82.1272 97.445C81.1927 98.5113 81.261 100.483 82.1272 101.63C82.3114 101.891 82.5537 102.107 82.8353 102.259C83.1168 102.412 83.4298 102.497 83.7497 102.508C84.0613 102.502 84.3662 102.416 84.635 102.259C84.9038 102.101 85.1275 101.877 85.2845 101.608C85.2845 101.608 94.5905 88.4806 95.0444 87.8828C95.1054 87.7828 95.1896 87.6989 95.2898 87.6382C95.39 87.5775 95.5033 87.5417 95.6202 87.5338C95.7813 87.5422 95.9362 87.5992 96.0643 87.6973C96.5592 88.0354 97.146 88.2134 97.7454 88.2073C99.1362 88.2073 100.598 87.3533 101.491 86.1723C102.412 84.985 102.947 83.5444 103.026 82.0439C103.056 81.225 102.865 80.4131 102.472 79.6942C102.446 79.6353 102.404 79.5845 102.352 79.5471C102.3 79.5096 102.238 79.487 102.174 79.4815C102.11 79.476 102.045 79.4879 101.987 79.5159C101.93 79.5439 101.88 79.5869 101.845 79.6405V79.6528ZM84.2768 100.136C84.2206 100.222 84.144 100.292 84.0539 100.341C83.9639 100.389 83.8631 100.415 83.7607 100.415C83.6584 100.415 83.5576 100.389 83.4675 100.341C83.3774 100.292 83.3009 100.222 83.2447 100.136C83.1083 99.9345 83.0354 99.6966 83.0354 99.4531C83.0354 99.2096 83.1083 98.9717 83.2447 98.7699C83.3009 98.6843 83.3774 98.6141 83.4675 98.5654C83.5576 98.5168 83.6584 98.4914 83.7607 98.4914C83.8631 98.4914 83.9639 98.5168 84.0539 98.5654C84.144 98.6141 84.2206 98.6843 84.2768 98.7699C84.4135 98.9714 84.4868 99.2092 84.4872 99.4527C84.4877 99.6962 84.4152 99.9343 84.2792 100.136H84.2768Z" fill="white"/>
<path d="M184.342 85.638C183.698 78.1912 178.649 72.389 172.508 72.389C168.443 72.389 164.864 74.9241 162.714 78.7963C162.054 78.4541 161.322 78.2743 160.579 78.2717C157.475 78.2717 154.967 81.6877 154.911 85.5379C151.739 86.797 149.65 90.6619 149.65 94.7171C149.65 99.6873 152.881 104.074 156.863 104.074H183.078C187.062 104.074 190.293 99.6824 190.293 94.7171C190.293 90.291 187.721 86.3895 184.342 85.638V85.638ZM178.42 83.93L167.809 97.2278C167.672 97.3962 167.321 97.7719 166.886 97.7719C166.7 97.7503 166.521 97.6887 166.361 97.5914C166.201 97.4942 166.064 97.3635 165.959 97.2083L161.506 91.6574C161.445 91.5763 161.411 91.4773 161.411 91.3756C161.411 91.2738 161.445 91.1748 161.506 91.0937L162.919 89.3321C162.944 89.2965 162.978 89.2672 163.016 89.2465C163.055 89.2257 163.097 89.2141 163.141 89.2125C163.185 89.2139 163.228 89.2255 163.266 89.2462C163.305 89.267 163.338 89.2964 163.363 89.3321L166.889 93.724L176.571 81.5559C176.596 81.5207 176.63 81.4917 176.668 81.471C176.706 81.4503 176.749 81.4385 176.793 81.4364C176.837 81.4366 176.88 81.4476 176.919 81.4684C176.957 81.4893 176.99 81.5193 177.015 81.5559L178.403 83.3493C178.471 83.4285 178.51 83.5286 178.513 83.633C178.516 83.7373 178.483 83.8396 178.42 83.9227V83.93Z" fill="white"/>
<path d="M248.603 97.4303C249.936 97.4303 251.016 95.9894 251.016 94.212C251.016 92.4346 249.936 90.9937 248.603 90.9937C247.27 90.9937 246.19 92.4346 246.19 94.212C246.19 95.9894 247.27 97.4303 248.603 97.4303Z" fill="white"/>
<path d="M248.603 98.6723C248.337 98.671 248.073 98.6282 247.82 98.5454L245.439 101.783C245.419 101.81 245.408 101.843 245.408 101.877C245.408 101.911 245.419 101.944 245.439 101.971L249.223 107.339C249.348 107.521 249.415 107.736 249.415 107.956C249.415 108.177 249.348 108.392 249.223 108.574C249.17 108.647 249.1 108.707 249.02 108.749C248.939 108.792 248.85 108.815 248.759 108.818C248.669 108.815 248.58 108.792 248.5 108.75C248.42 108.707 248.351 108.647 248.298 108.574L244.529 103.206C244.521 103.194 244.51 103.184 244.497 103.177C244.484 103.17 244.47 103.166 244.455 103.166C244.441 103.166 244.427 103.17 244.414 103.177C244.401 103.184 244.39 103.194 244.382 103.206L243.462 104.455C242.694 105.494 241.674 105.338 240.576 105.346C239.478 105.353 238.412 104.728 237.631 103.674L236.748 102.474C236.74 102.462 236.729 102.452 236.716 102.445C236.703 102.438 236.689 102.434 236.674 102.434C236.66 102.434 236.646 102.438 236.633 102.445C236.62 102.452 236.609 102.462 236.601 102.474L232.831 107.842C232.778 107.915 232.708 107.975 232.628 108.017C232.548 108.06 232.459 108.083 232.368 108.086C232.277 108.083 232.189 108.06 232.109 108.018C232.029 107.975 231.96 107.915 231.907 107.842C231.782 107.66 231.715 107.445 231.715 107.224C231.715 107.004 231.782 106.789 231.907 106.607L235.691 101.239C235.708 101.211 235.717 101.178 235.717 101.145C235.717 101.112 235.708 101.08 235.691 101.051L230.277 93.7021C230.211 93.6142 230.106 93.6752 230.106 93.7948V108.503C230.106 109.684 230.838 110.65 231.714 110.65L249.409 111.382C250.294 111.382 251.016 110.406 251.016 109.235V97.2961C250.409 98.1428 249.555 98.6723 248.603 98.6723Z" fill="white"/>
<path d="M245.26 94.212C245.258 93.4764 245.398 92.7471 245.673 92.0649L231.709 91.3329C231.519 91.3375 231.333 91.3819 231.161 91.463C230.99 91.5441 230.837 91.6602 230.713 91.8038L238.602 102.515C238.817 102.842 239.108 103.113 239.45 103.304C239.792 103.495 240.174 103.601 240.566 103.613C241.298 103.613 242.01 103.957 242.533 103.247L246.578 97.7524C245.775 96.935 245.26 95.6541 245.26 94.212V94.212Z" fill="white"/>
<path d="M264.946 132.79C264.946 132.79 262.094 132.62 262.431 134.615C262.413 134.716 262.426 134.82 262.47 134.912C262.514 135.005 262.585 135.081 262.675 135.13C262.675 135.13 262.675 134.981 262.968 135.033C263.07 135.049 263.174 135.054 263.278 135.047C263.417 135.037 263.549 134.982 263.656 134.891V134.891C263.656 134.891 264.456 134.559 264.768 133.249C264.768 133.249 265 132.964 264.99 132.89L264.502 133.095C264.594 133.296 264.607 133.523 264.537 133.732C264.537 133.732 264.522 133.108 264.429 133.122C264.41 133.122 264.185 133.244 264.185 133.244C264.185 133.244 264.468 133.847 264.256 134.286C264.256 134.286 264.337 133.554 264.097 133.288L263.758 133.486C263.758 133.486 264.09 134.108 263.866 134.618C263.866 134.618 263.924 133.837 263.688 133.532L263.38 133.776C263.38 133.776 263.692 134.393 263.502 134.816C263.502 134.816 263.478 133.905 263.314 133.84C263.198 133.938 263.094 134.05 263.004 134.174C263.004 134.174 263.217 134.62 263.085 134.855C263.085 134.855 263.004 134.249 262.938 134.247C262.799 134.452 262.698 134.681 262.643 134.923C262.657 134.668 262.737 134.422 262.875 134.208C262.721 134.237 262.578 134.311 262.465 134.42C262.465 134.42 262.507 134.137 262.953 134.11C263.033 133.993 263.127 133.885 263.231 133.788C262.997 133.768 262.761 133.796 262.538 133.869C262.538 133.869 262.782 133.6 263.312 133.722L263.614 133.478C263.346 133.435 263.073 133.435 262.804 133.478C262.804 133.478 263.082 133.234 263.695 133.415L264.027 133.217C263.773 133.161 263.513 133.138 263.253 133.149C263.534 133.044 263.845 133.049 264.122 133.164L264.366 133.059C264.366 133.059 264.01 132.988 263.907 132.978C263.805 132.968 263.797 132.937 263.797 132.937C264.022 132.9 264.253 132.926 264.463 133.012C264.631 132.953 264.792 132.878 264.946 132.79Z" fill="#FD1E00"/>
<path opacity="0.1" d="M262.982 135.645C264.097 135.645 265 135.492 265 135.304C265 135.115 264.097 134.962 262.982 134.962C261.868 134.962 260.964 135.115 260.964 135.304C260.964 135.492 261.868 135.645 262.982 135.645Z" fill="#FD1E00"/>
<path d="M221.017 132.873C221.017 132.873 217.577 132.666 217.982 135.069C217.961 135.192 217.979 135.317 218.034 135.429C218.089 135.54 218.177 135.631 218.287 135.689C218.287 135.689 218.287 135.511 218.641 135.572C218.764 135.593 218.889 135.599 219.014 135.589C219.183 135.578 219.344 135.512 219.473 135.401V135.401C219.473 135.401 220.449 135.001 220.815 133.42C220.815 133.42 221.095 133.076 221.083 132.986L220.502 133.23C220.613 133.47 220.628 133.744 220.544 133.996C220.544 133.996 220.527 133.244 220.414 133.264C220.393 133.264 220.112 133.408 220.112 133.408C220.112 133.408 220.454 134.14 220.197 134.669C220.197 134.669 220.295 133.769 220.005 133.449L219.597 133.693C219.597 133.693 219.995 134.447 219.726 135.064C219.726 135.064 219.795 134.12 219.512 133.752L219.141 134.042C219.141 134.042 219.517 134.774 219.287 135.294C219.287 135.294 219.258 134.196 219.06 134.113C218.92 134.231 218.794 134.366 218.687 134.515C218.687 134.515 218.931 135.055 218.785 135.34C218.785 135.34 218.687 134.608 218.607 134.608C218.439 134.856 218.318 135.134 218.25 135.426C218.266 135.118 218.362 134.821 218.528 134.562C218.346 134.595 218.177 134.68 218.04 134.806C218.04 134.806 218.092 134.462 218.616 134.432C218.713 134.29 218.826 134.159 218.953 134.042C218.67 134.018 218.386 134.051 218.116 134.14C218.116 134.14 218.394 133.815 219.048 133.962L219.414 133.664C219.091 133.611 218.761 133.611 218.438 133.664C218.438 133.664 218.772 133.378 219.514 133.586L219.912 133.342C219.605 133.274 219.291 133.247 218.977 133.261C218.977 133.261 219.346 133.061 220.029 133.276L220.312 133.149C220.312 133.149 219.885 133.066 219.758 133.051C219.631 133.037 219.626 133.003 219.626 133.003C219.898 132.958 220.177 132.989 220.432 133.093C220.633 133.038 220.829 132.964 221.017 132.873V132.873Z" fill="#FD1E00"/>
<path opacity="0.1" d="M218.648 136.321C219.993 136.321 221.083 136.136 221.083 135.909C221.083 135.681 219.993 135.496 218.648 135.496C217.303 135.496 216.213 135.681 216.213 135.909C216.213 136.136 217.303 136.321 218.648 136.321Z" fill="#FD1E00"/>
<path d="M199.433 108.82C199.433 108.82 199.714 108.549 199.621 108.366C199.594 108.31 199.58 108.247 199.58 108.184C199.58 108.122 199.594 108.059 199.621 108.003C199.621 108.003 198.992 105.529 198.757 105.28C198.604 105.098 198.485 104.89 198.408 104.665C198.433 104.617 198.445 104.563 198.443 104.509C198.432 104.259 198.347 104.019 198.199 103.818C198.016 103.548 197.915 103.23 197.908 102.903C197.906 102.863 197.906 102.822 197.908 102.781V102.781C197.838 102.598 197.725 102.434 197.578 102.303C197.431 102.173 197.255 102.08 197.064 102.032C197.144 101.508 197.254 100.983 197.288 100.456C197.398 98.804 196.783 97.201 196.178 95.654C196.046 95.2706 195.868 94.9044 195.649 94.5634C195.378 94.2069 195.035 93.9118 194.642 93.6973C194.25 93.4828 193.816 93.3539 193.37 93.319C193.042 93.2778 192.708 93.3103 192.394 93.4142C192.084 93.5535 191.799 93.744 191.552 93.9778C191.291 94.1974 191.03 94.4219 190.788 94.661L190.759 94.6903L190.674 94.7805L190.64 94.8147L190.559 94.905L190.53 94.9367C190.496 94.9782 190.459 95.0197 190.425 95.0636C190.393 95.1051 190.361 95.1441 190.332 95.1856L190.303 95.227L190.239 95.3173L190.21 95.3637C190.188 95.3954 190.171 95.4271 190.152 95.4588L190.125 95.5028C190.1 95.5491 190.073 95.5955 190.049 95.6443L189.961 95.8395V95.8663L189.91 95.9956C189.844 96.1518 189.781 96.3079 189.7 96.4568L189.686 96.4812L189.51 96.6935C189.43 96.7989 189.363 96.9136 189.31 97.0351L189.293 97.0741C189.293 97.0912 189.28 97.1107 189.273 97.1278L189.256 97.1717C189.252 97.1907 189.246 97.2095 189.239 97.2278C189.239 97.2425 189.239 97.2571 189.239 97.2742L189.224 97.3279C189.224 97.3449 189.224 97.3596 189.224 97.3767C189.224 97.3937 189.224 97.4133 189.212 97.4303V97.4816V97.5353C189.212 97.5548 189.212 97.5743 189.212 97.5963C189.212 97.6182 189.212 97.6255 189.212 97.6377C189.212 97.6499 189.212 97.7061 189.212 97.7402C189.212 97.7744 189.212 97.7671 189.212 97.7817C189.211 97.8036 189.211 97.8256 189.212 97.8476C189.211 97.8622 189.211 97.8769 189.212 97.8915C189.211 97.9118 189.211 97.9322 189.212 97.9525V97.9964C189.212 98.0184 189.212 98.0379 189.212 98.0574C189.211 98.072 189.211 98.0867 189.212 98.1013L189.227 98.1648C189.227 98.1648 189.227 98.1916 189.227 98.2038L189.249 98.2721C189.249 98.2721 189.249 98.2941 189.261 98.3038C189.273 98.3136 189.285 98.3722 189.3 98.4039C189.375 98.5674 189.467 98.7227 189.573 98.8675C189.644 98.9651 189.717 99.0602 189.79 99.1578L189.895 99.3042C189.966 99.4014 190.031 99.5033 190.088 99.6092C190.259 99.9361 190.343 100.302 190.329 100.671C190.316 101.04 190.207 101.399 190.012 101.712L189.925 101.847C189.876 101.921 189.843 102.004 189.825 102.091C189.816 102.166 189.824 102.243 189.848 102.315C189.872 102.387 189.912 102.453 189.964 102.508L189.747 102.564C189.568 102.613 189.446 102.652 189.446 102.652C189.299 102.639 189.15 102.639 189.002 102.652C188.797 102.717 188.613 102.834 188.468 102.993C188.468 102.993 187.536 103.106 187.231 102.835C186.926 102.564 185.857 102.471 185.857 102.471C185.857 102.471 185.555 101.881 185.228 101.698C184.901 101.515 184.11 101.176 184.086 100.995C184.018 100.804 183.915 100.627 183.783 100.473C183.623 100.439 183.459 100.419 183.295 100.414L183.244 100.327L182.593 99.2017C182.593 99.2017 181.775 98.2477 181.334 98.1575C180.892 98.0672 181.956 99.17 182.007 99.2213C181.856 99.1134 181.669 99.0698 181.486 99.1C181.303 99.1302 181.139 99.2317 181.031 99.3823C180.684 99.7678 181.604 100.673 182.175 101.173L182.268 101.254C182.272 101.304 182.279 101.354 182.29 101.403C182.546 102.742 183.966 103.901 183.966 103.901C183.966 103.901 184.13 104.65 184.667 104.833C185.094 104.977 187.387 106.017 188.583 106.224C188.483 106.483 188.366 107.083 188.861 107.966C188.861 107.966 188.978 109.533 188.722 109.738C188.466 109.942 188.478 112.212 188.478 112.212C188.478 112.212 187.502 116.162 188.478 117.001C188.54 117.054 188.61 117.097 188.685 117.128C188.685 117.189 188.702 117.253 188.71 117.318C188.753 117.714 188.768 118.124 188.663 118.294C188.419 118.68 188.744 119.724 188.744 119.724C188.744 119.724 187.802 125.061 188.222 126.944C188.486 128.352 188.611 129.782 188.592 131.214C188.592 131.214 188.453 132.871 189.176 133.871C189.255 134.108 189.302 134.354 189.315 134.603C189.362 135.082 189.488 135.549 189.688 135.987C189.851 136.304 190.176 137.646 189.898 138.007C189.62 138.368 190.2 142.323 190.2 142.323C190.2 142.323 189.734 143.543 190.2 144.185L190.215 144.202C189.939 144.199 189.664 144.159 189.398 144.085C188.875 143.909 189.266 144.573 189.886 145.027C189.615 145.642 189.244 146.466 189.119 146.735C188.58 146.827 187.512 146.979 186.884 146.83C186.023 146.627 187.258 148.011 188.422 148.262C189.243 148.416 190.08 148.476 190.915 148.443L191.667 147.613C192.274 147.695 192.888 147.718 193.499 147.681L193.433 148.452H193.875V147.652C194.153 147.625 194.441 147.589 194.739 147.535C194.739 147.535 194.756 146.691 194.702 145.893L194.973 145.917L195.014 145.476L195.973 145.649L196.835 138.573C196.835 138.573 196.93 135.94 197.14 134.464C197.349 132.988 196.696 128.037 196.696 128.037C196.696 128.037 196.649 127.793 196.603 127.335C196.556 126.876 196.603 124.199 196.603 124.199C196.603 124.199 196.952 122.735 196.883 122.611C196.815 122.486 196.905 121.862 196.905 121.862C198.369 118.878 196.569 116.181 195.942 115.381C195.978 115.347 196 115.301 196.003 115.252C196.006 115.235 196.006 115.217 196.003 115.201C195.904 114.948 195.786 114.704 195.651 114.469L196.017 114.003C196.144 114.186 196.234 114.322 196.234 114.322C196.234 114.322 196.63 113.437 197.027 113.102C197.425 112.768 199.333 109.584 199.333 109.584C199.333 109.584 199.777 109.286 199.543 109.037C199.309 108.788 199.433 108.82 199.433 108.82ZM193.563 133.932C193.531 133.829 193.474 133.736 193.397 133.661C193.397 133.661 193.328 133.173 193.304 132.546C193.443 133.034 193.585 133.388 193.585 133.388L193.563 133.932ZM194.661 145.539C194.661 145.495 194.661 145.451 194.661 145.41H194.695L194.661 145.539ZM194.949 113.239V113.21C194.943 113.147 194.955 113.084 194.981 113.027C195.008 112.97 195.049 112.921 195.1 112.885C195.127 112.869 195.148 112.845 195.162 112.817C195.177 112.789 195.183 112.758 195.18 112.726C195.169 112.624 195.13 112.526 195.068 112.443C195.114 112.478 195.258 112.556 195.356 112.273C195.371 112.229 195.378 112.182 195.378 112.136C195.355 111.899 195.258 111.676 195.102 111.497L196.156 109.276C196.272 109.311 196.389 109.338 196.508 109.357V109.357C196.232 110.211 196.005 111.228 196.005 111.228L195.19 113.022C195.245 113.043 195.294 113.078 195.332 113.124L194.949 113.239Z" fill="url(#paint0_linear)"/>
<path d="M191.442 144.146C191.442 144.146 190.073 144.314 189.407 144.085C188.741 143.856 189.612 145.061 190.513 145.356C191.148 145.543 191.803 145.654 192.465 145.688L193.521 144.693L194.644 144.78L194.448 145.881L194.797 145.912L194.931 144.473L191.442 144.146Z" fill="#444053"/>
<path opacity="0.1" d="M191.442 144.146C191.442 144.146 190.073 144.314 189.407 144.085C188.741 143.856 189.612 145.061 190.513 145.356C191.148 145.543 191.803 145.654 192.465 145.688L193.521 144.693L194.644 144.78L194.448 145.881L194.797 145.912L194.931 144.473L191.442 144.146Z" fill="black"/>
<path d="M189.466 146.662C189.466 146.662 187.821 147.02 186.989 146.818C186.157 146.615 187.35 147.989 188.475 148.235C189.268 148.389 190.076 148.449 190.883 148.416L192.055 147.089L193.426 147.067L193.314 148.426H193.743V146.662H189.466Z" fill="#444053"/>
<path opacity="0.1" d="M189.466 146.662C189.466 146.662 187.821 147.02 186.989 146.818C186.157 146.615 187.35 147.989 188.475 148.235C189.268 148.389 190.076 148.449 190.883 148.416L192.055 147.089L193.426 147.067L193.314 148.426H193.743V146.662H189.466Z" fill="black"/>
<path d="M195.542 115.398C195.542 115.398 198.355 118.526 196.669 122.059C196.669 122.059 196.579 122.691 196.644 122.804C196.71 122.916 196.376 124.38 196.376 124.38C196.376 124.38 196.33 127.034 196.376 127.486C196.422 127.937 196.466 128.181 196.466 128.181C196.466 128.181 197.096 133.088 196.893 134.552C196.691 136.016 196.6 138.627 196.6 138.627L195.768 145.649L191.447 144.839L193.399 135.203L193.468 133.496C193.468 133.496 192.657 131.404 193.016 130.346C193.375 129.287 192.926 115.806 192.926 115.806L195.542 115.398Z" fill="#444053"/>
<path opacity="0.02" d="M195.542 115.398C195.542 115.398 198.355 118.526 196.669 122.059C196.669 122.059 196.579 122.691 196.644 122.804C196.71 122.916 196.376 124.38 196.376 124.38C196.376 124.38 196.33 127.034 196.376 127.486C196.422 127.937 196.466 128.181 196.466 128.181C196.466 128.181 197.096 133.088 196.893 134.552C196.691 136.016 196.6 138.627 196.6 138.627L195.768 145.649L191.447 144.839L193.399 135.203L193.468 133.496C193.468 133.496 192.657 131.404 193.016 130.346C193.375 129.287 192.926 115.806 192.926 115.806L195.542 115.398Z" fill="black"/>
<path d="M193.472 130.524C192.984 131.468 193.292 133.764 193.292 133.764C193.943 134.328 193.585 139.234 193.585 139.234C193.585 139.234 194.034 144.073 194.317 144.636C194.6 145.2 194.561 147.516 194.561 147.516C191.252 148.123 189.09 146.818 189.09 146.818C189.09 146.818 190.149 144.409 190.171 144.297C190.183 144.234 190.325 144.405 190.366 144.456L190.171 144.185C189.72 143.555 190.171 142.34 190.171 142.34C190.171 142.34 189.607 138.436 189.878 138.063C190.149 137.69 189.834 136.375 189.676 136.06C189.482 135.625 189.36 135.161 189.315 134.686C189.302 134.441 189.257 134.199 189.18 133.966C188.483 132.976 188.617 131.334 188.617 131.334C188.635 129.915 188.515 128.498 188.258 127.103C187.853 125.234 188.763 119.944 188.763 119.944C188.763 119.944 188.461 118.909 188.685 118.526C188.788 118.356 188.773 117.95 188.729 117.55C188.675 117.062 188.573 116.608 188.573 116.608L194.719 115.525C194.849 115.74 194.963 115.947 195.075 116.147C197.108 119.902 195.737 121.296 195.737 121.296L194.431 125.302C194.431 125.302 193.968 129.577 193.472 130.524Z" fill="#444053"/>
<path d="M183.739 101.151L182.861 101.883C182.861 101.883 182.688 101.747 182.458 101.539C181.907 101.051 181.019 100.146 181.353 99.7654C181.403 99.6919 181.468 99.6292 181.543 99.5813C181.618 99.5333 181.702 99.5009 181.79 99.4861C181.878 99.4713 181.968 99.4744 182.055 99.4951C182.141 99.5158 182.223 99.5538 182.295 99.6068C182.246 99.5531 181.226 98.4625 181.646 98.5503C182.065 98.6381 182.866 99.5848 182.866 99.5848L183.495 100.7L183.739 101.151Z" fill="#EFB7B9"/>
<path d="M195.497 113.307L194.463 113.622L195.249 114.993L196.149 113.824L195.497 113.307Z" fill="#EFB7B9"/>
<path d="M193.068 100.41C194.695 100.41 196.015 99.0899 196.015 97.4621C196.015 95.8342 194.695 94.5146 193.068 94.5146C191.44 94.5146 190.12 95.8342 190.12 97.4621C190.12 99.0899 191.44 100.41 193.068 100.41Z" fill="#EFB7B9"/>
<path d="M191.332 98.5381C191.332 98.5381 194.016 102.791 191.469 103.152C188.922 103.513 194.885 106.1 194.885 106.1L197.113 103.85C197.113 103.85 194.795 99.8435 195.161 98.3136C195.527 96.7838 191.332 98.5381 191.332 98.5381Z" fill="#EFB7B9"/>
<path opacity="0.1" d="M195.083 116.147C194.488 116.329 193.883 116.47 193.27 116.569C193.27 116.569 189.951 118.033 188.744 117.545C188.69 117.057 188.587 116.604 188.587 116.604L194.719 115.525C194.856 115.74 194.975 115.947 195.083 116.147Z" fill="black"/>
<path d="M198.135 105.021L197.535 106.263L196.859 107.659L196.761 107.859L195.958 109.594L194.938 111.79C194.938 111.79 195.3 112.217 195.182 112.556C195.065 112.895 194.912 112.734 194.892 112.714C194.909 112.741 195.136 113.034 194.934 113.163C194.874 113.215 194.83 113.282 194.806 113.358C194.782 113.433 194.78 113.514 194.799 113.59C194.799 113.59 195.631 114.964 195.79 115.459C195.949 115.955 193.27 116.382 193.27 116.382C193.27 116.382 189.466 118.07 188.519 117.236C187.572 116.401 188.519 112.487 188.519 112.487C188.519 112.487 188.519 110.238 188.763 110.035C189.007 109.833 188.897 108.278 188.897 108.278C188.246 107.085 188.695 106.409 188.695 106.409L188.514 103.35C188.514 103.35 188.807 103.035 189.031 103.013C189.174 102.999 189.318 102.999 189.461 103.013C189.461 103.013 189.578 102.972 189.751 102.925C190.112 102.823 190.71 102.681 190.922 102.786C191.237 102.945 193.265 102.542 193.265 102.542C194.137 102.414 195.016 102.333 195.897 102.298C196.198 102.28 196.5 102.313 196.79 102.396C196.986 102.44 197.168 102.532 197.318 102.665C197.469 102.798 197.583 102.966 197.652 103.155C197.618 103.52 197.714 103.887 197.923 104.189C198.289 104.775 198.135 105.021 198.135 105.021Z" fill="#FF6484"/>
<path opacity="0.1" d="M183.739 101.151L182.861 101.883C182.861 101.883 182.688 101.747 182.458 101.539C182.388 100.78 183.034 100.68 183.491 100.7L183.739 101.151Z" fill="black"/>
<path d="M188.902 103.335L188.519 103.357C188.519 103.357 187.619 103.469 187.326 103.198C187.033 102.928 185.999 102.84 185.999 102.84C185.999 102.84 185.706 102.254 185.391 102.074C185.076 101.893 184.31 101.556 184.288 101.376C184.223 101.187 184.124 101.011 183.995 100.858C183.995 100.858 182.307 100.453 182.556 101.781C182.805 103.108 184.176 104.257 184.176 104.257C184.176 104.257 184.335 104.989 184.852 105.18C185.369 105.37 188.722 106.936 189.263 106.531C189.805 106.126 188.902 103.335 188.902 103.335Z" fill="#FF6484"/>
<path opacity="0.1" d="M197.928 104.182C197.719 103.879 197.623 103.513 197.657 103.147C197.588 102.959 197.474 102.79 197.323 102.658C197.173 102.525 196.991 102.432 196.796 102.388C196.653 102.346 196.507 102.317 196.359 102.303C196.552 102.348 196.73 102.441 196.879 102.573C197.027 102.704 197.14 102.871 197.208 103.057C197.173 103.423 197.269 103.79 197.479 104.091C197.837 104.677 197.681 104.926 197.681 104.926L197.081 106.165L196.403 107.566L196.308 107.766L195.505 109.501L194.485 111.697C194.485 111.697 194.844 112.124 194.729 112.463C194.614 112.802 194.461 112.641 194.439 112.622C194.458 112.648 194.683 112.941 194.482 113.071C194.423 113.122 194.378 113.19 194.354 113.265C194.33 113.34 194.327 113.421 194.346 113.498C194.346 113.498 195.18 114.871 195.336 115.367C195.493 115.862 192.816 116.289 192.816 116.289C192.816 116.289 190.173 117.46 188.746 117.37C189.966 117.846 193.267 116.379 193.267 116.379C193.267 116.379 195.951 115.952 195.788 115.457C195.624 114.962 194.797 113.588 194.797 113.588C194.778 113.511 194.78 113.431 194.804 113.355C194.828 113.28 194.872 113.213 194.931 113.161C195.127 113.032 194.907 112.739 194.89 112.712C194.909 112.731 195.075 112.868 195.18 112.553C195.285 112.239 194.936 111.787 194.936 111.787L195.956 109.591L196.759 107.856L196.857 107.656L197.532 106.261L198.133 105.019C198.133 105.019 198.289 104.767 197.928 104.182Z" fill="black"/>
<path d="M197.725 104.684L198.13 105.021C198.203 105.244 198.319 105.451 198.469 105.631C198.694 105.875 199.301 108.33 199.301 108.33C199.275 108.386 199.262 108.448 199.262 108.51C199.262 108.573 199.275 108.634 199.301 108.691C199.391 108.871 199.121 109.142 199.121 109.142C199.121 109.142 198.986 109.096 199.211 109.345C199.435 109.594 199.008 109.884 199.008 109.884C199.008 109.884 197.164 113.034 196.781 113.373C196.398 113.712 196.015 114.593 196.015 114.593C196.015 114.593 195.214 113.334 195.024 113.31L195.812 111.531C195.812 111.531 196.351 109.057 196.756 108.603C197.161 108.149 196.554 106.6 196.554 106.6L197.725 104.684Z" fill="#FF6484"/>
<path opacity="0.1" d="M197.984 109.274C197.647 109.679 197.052 109.762 196.52 109.706C196.442 109.706 196.366 109.686 196.288 109.672C196.173 109.65 196.059 109.623 195.947 109.591C195.545 109.475 195.166 109.289 194.829 109.042C194.758 108.978 194.675 108.929 194.585 108.898C194.478 108.886 194.369 108.906 194.274 108.957C194.179 109.008 194.102 109.087 194.053 109.184C193.938 109.367 193.885 109.581 193.768 109.764C193.64 109.936 193.473 110.075 193.281 110.17C193.089 110.264 192.876 110.311 192.662 110.306C192.234 110.294 191.81 110.212 191.408 110.062C191.768 109.679 192.042 109.224 192.213 108.727C192.287 108.398 192.308 108.058 192.277 107.722C192.179 106.129 191.625 104.45 190.325 103.523C190.1 103.362 189.837 103.172 189.754 102.93C190.115 102.828 190.713 102.686 190.925 102.791C191.24 102.95 193.267 102.547 193.267 102.547C194.14 102.419 195.019 102.338 195.9 102.303C196.201 102.285 196.503 102.318 196.793 102.401C196.647 103.062 196.622 103.745 196.72 104.416C196.812 104.83 196.962 105.229 197.164 105.602C197.281 105.824 197.408 106.046 197.528 106.268C197.872 106.883 198.199 107.5 198.26 108.193C198.312 108.575 198.213 108.963 197.984 109.274V109.274Z" fill="black"/>
<path opacity="0.1" d="M193.533 112.446C193.705 112.4 193.883 112.385 194.061 112.4C194.209 112.444 194.344 112.522 194.456 112.629H193.299C193.002 112.629 192.553 112.646 192.323 112.436C192.523 112.234 193.241 112.48 193.533 112.446Z" fill="black"/>
<path d="M189.524 97.1156C189.349 97.357 189.238 97.6396 189.203 97.9361C189.168 98.2326 189.21 98.5332 189.324 98.8089C189.51 99.2457 189.866 99.5848 190.086 100.005C190.251 100.33 190.331 100.692 190.318 101.057C190.305 101.422 190.2 101.777 190.012 102.091C189.927 102.201 189.865 102.328 189.832 102.464C189.778 102.808 190.134 103.054 190.417 103.255C191.715 104.182 192.269 105.86 192.369 107.454C192.403 107.79 192.382 108.129 192.308 108.459C192.138 108.956 191.863 109.411 191.503 109.794C191.905 109.942 192.329 110.025 192.757 110.038C192.971 110.041 193.183 109.994 193.376 109.899C193.568 109.805 193.735 109.665 193.863 109.494C193.98 109.313 194.033 109.098 194.148 108.913C194.197 108.816 194.274 108.737 194.369 108.686C194.464 108.635 194.573 108.614 194.68 108.627C194.77 108.659 194.853 108.708 194.924 108.771C195.42 109.136 196.003 109.365 196.615 109.435C197.139 109.496 197.735 109.408 198.079 109.003C198.308 108.69 198.407 108.3 198.355 107.915C198.237 106.551 197.083 105.475 196.817 104.138C196.6 103.052 196.991 101.942 197.061 100.839C197.169 99.2042 196.573 97.6109 195.99 96.081C195.861 95.7017 195.689 95.3383 195.478 94.9977C195.22 94.6494 194.891 94.3603 194.512 94.1499C194.133 93.9394 193.714 93.8125 193.282 93.7777C192.962 93.7355 192.637 93.7681 192.333 93.8729C192.031 94.0106 191.756 94.1988 191.518 94.4292C190.961 94.9172 190.388 95.4052 190.054 96.0835C189.922 96.3568 189.837 96.6496 189.69 96.9131" fill="#925978"/>
<g opacity="0.1">
<path opacity="0.1" d="M190.056 96.5202C190.2 96.2543 190.3 95.9615 190.418 95.6906C190.544 95.4371 190.701 95.2002 190.886 94.9855C190.549 95.2977 190.27 95.6659 190.059 96.0737C189.932 96.3397 189.847 96.6227 189.708 96.8813L189.886 96.7301C189.84 96.7925 189.799 96.8577 189.761 96.9253C189.875 96.8025 189.975 96.6665 190.056 96.5202Z" fill="black"/>
<path opacity="0.1" d="M196.979 109.054C196.367 108.983 195.784 108.753 195.288 108.388C195.216 108.327 195.133 108.278 195.044 108.244C194.937 108.233 194.828 108.254 194.733 108.306C194.639 108.357 194.561 108.436 194.512 108.532C194.489 108.571 194.467 108.611 194.449 108.652C194.525 108.617 194.611 108.609 194.693 108.63C194.783 108.661 194.866 108.71 194.937 108.774C195.433 109.139 196.016 109.367 196.628 109.437C197.152 109.498 197.748 109.411 198.092 109.006C198.135 108.953 198.172 108.897 198.204 108.837C197.832 109.046 197.4 109.123 196.979 109.054V109.054Z" fill="black"/>
<path opacity="0.1" d="M193.111 109.655C192.684 109.641 192.261 109.559 191.86 109.411C192.218 109.026 192.492 108.571 192.662 108.073C192.737 107.745 192.759 107.406 192.726 107.071C192.628 105.477 192.077 103.796 190.774 102.871C190.491 102.669 190.137 102.423 190.188 102.078C190.225 101.943 190.287 101.817 190.371 101.705C190.559 101.392 190.664 101.037 190.677 100.673C190.69 100.308 190.61 99.9466 190.445 99.6214C190.225 99.2017 189.869 98.8601 189.681 98.4258C189.582 98.1855 189.538 97.9262 189.552 97.6668C189.565 97.4073 189.636 97.1541 189.759 96.9253C189.697 96.9908 189.631 97.0527 189.561 97.1107C189.511 97.1806 189.456 97.2474 189.398 97.3108C189.275 97.5391 189.204 97.7921 189.191 98.0513C189.178 98.3105 189.223 98.5693 189.322 98.8089C189.508 99.2457 189.864 99.5848 190.083 100.004C190.249 100.33 190.328 100.692 190.316 101.057C190.303 101.422 190.198 101.777 190.01 102.091C189.925 102.201 189.863 102.328 189.83 102.464C189.776 102.808 190.132 103.054 190.415 103.255C191.713 104.182 192.267 105.86 192.367 107.454C192.401 107.79 192.38 108.129 192.306 108.459C192.135 108.956 191.861 109.411 191.501 109.794C191.903 109.942 192.327 110.025 192.755 110.038C192.969 110.041 193.181 109.994 193.374 109.899C193.566 109.804 193.733 109.665 193.86 109.494C193.875 109.469 193.89 109.445 193.902 109.42C193.665 109.569 193.391 109.65 193.111 109.655V109.655Z" fill="black"/>
</g>
<path d="M17.3334 138.729C16.8274 138.663 16.3423 138.486 15.9133 138.21L15.8694 138.178C15.9046 138.127 15.9295 138.07 15.9426 138.009C15.8823 137.893 15.8505 137.765 15.8499 137.634C15.8517 137.509 15.8268 137.386 15.7767 137.273V136.663C15.6323 136.458 15.5601 136.212 15.5717 135.962C15.5546 135.457 15.5351 132.978 15.5351 132.978C15.5069 132.848 15.5011 132.715 15.518 132.583C15.5351 132.295 15.5351 132.188 15.5351 132.188C15.4749 132.021 15.4565 131.841 15.4814 131.666C15.4971 131.499 15.4501 131.333 15.3497 131.199L15.6278 129.833C15.6278 129.833 15.7816 125.119 15.3326 123.697C15.3326 123.697 15.3326 123.697 15.3326 123.68C15.3692 122.765 14.8129 121.24 15.1277 120.176C15.4424 119.112 15.4814 118.883 15.4814 118.883C15.4814 118.883 14.0907 115.396 13.7393 114.569C13.5372 114.033 13.2924 113.514 13.0073 113.017C12.9845 112.986 12.9626 112.957 12.9414 112.929L12.9048 112.885C12.9813 112.759 13.0273 112.617 13.039 112.47C13.0586 112.226 13.022 111.919 13.2098 111.738C13.2814 111.68 13.3582 111.629 13.4392 111.585C13.5822 111.491 13.6961 111.359 13.7677 111.203C13.8393 111.048 13.8658 110.876 13.8442 110.706C13.7897 110.438 13.6622 110.191 13.4758 109.991C13.4963 109.872 13.5069 109.751 13.5075 109.63C13.507 109.356 13.4502 109.084 13.3406 108.832C13.2311 108.58 13.0712 108.354 12.8707 108.166V108.166V108.054C12.8735 107.805 12.7956 107.562 12.6486 107.361L12.6999 107.398L12.612 107.322C12.5696 107.278 12.5211 107.24 12.4681 107.21C12.0552 106.928 11.5727 106.765 11.0735 106.739C10.5742 106.713 10.0775 106.826 9.63773 107.063C9.41743 107.179 9.22829 107.347 9.08629 107.551C8.79594 108 8.86914 108.579 8.71786 109.089C8.56658 109.598 8.22987 109.974 7.94439 110.399C7.65891 110.823 7.42224 111.326 7.5296 111.821C7.60767 112.182 7.86143 112.504 7.85655 112.87C7.84461 113.065 7.76469 113.248 7.63084 113.389C7.49698 113.53 7.31773 113.619 7.12456 113.641V113.641H7.01476C7.37762 113.861 7.78734 113.991 8.21035 114.022C8.21035 114.056 8.19083 114.088 8.18351 114.122C7.85167 115.41 7.54668 117.05 7.54668 117.05C7.54668 117.05 7.75163 118.704 7.32464 119.998C6.89765 121.291 6.95376 123.953 6.95376 123.953C6.95376 123.953 8.13959 123.34 8.21523 123.736C8.29087 124.131 8.21523 124.238 8.21523 124.238C8.38656 124.329 8.56248 124.41 8.74226 124.482V124.641L8.68858 125.348C8.6696 125.495 8.69244 125.644 8.75446 125.778C8.85694 125.976 8.75446 126.51 8.75446 126.51C8.75446 126.51 8.66662 126.564 8.75446 126.817C8.79346 127.023 8.76965 127.235 8.68614 127.427C8.68614 127.427 8.58122 128.774 8.5617 129.062C8.47568 129.439 8.35141 129.806 8.19083 130.158C8.19083 130.158 8.50802 130.553 8.19083 130.609C7.87363 130.665 7.83947 131.146 7.83947 131.146C7.83947 131.146 7.4686 131.453 7.4686 131.561C6.34787 132.807 5.62041 134.357 5.37755 136.016C5.37755 136.016 4.98715 136.375 5.04327 136.716C5.07499 136.909 5.01155 136.975 4.95055 136.997C5.01887 136.997 5.09451 137.051 5.06035 137.219C5.00667 137.507 4.85783 138.117 4.85783 138.117H4.88467C4.57968 138.468 4.13804 139.056 4.06972 139.581V139.644L3.89893 140.018L5.36291 140.664L5.49222 140.466C5.49222 140.466 6.14125 141.198 6.883 141.364C7.01046 141.392 7.14047 141.407 7.27096 141.408C7.68408 141.4 8.09229 141.317 8.4763 141.164C8.4763 141.164 9.0131 140.501 7.62231 140.374C7.62231 140.374 6.80737 139.439 6.89032 139.044C6.91646 138.877 6.93357 138.71 6.94156 138.541C6.94156 138.505 6.94156 138.468 6.94156 138.434L7.03672 138.449L7.0538 138.146C7.0747 138.121 7.09043 138.092 7.10006 138.061C7.1097 138.03 7.11305 137.998 7.10992 137.966C7.10992 137.841 6.99768 137.822 7.10992 137.751C7.22216 137.68 7.21972 137.751 7.21972 137.573C7.21972 137.395 7.14652 137.446 7.31244 137.265C7.47836 137.085 7.29536 136.763 7.29536 136.763C7.39803 136.686 7.48345 136.589 7.54607 136.477C7.6087 136.365 7.64715 136.241 7.65891 136.114C7.64183 135.738 8.90086 133.347 9.15949 133.256C9.41813 133.166 9.43765 132.698 9.43765 132.698C9.43765 132.698 9.79145 132.771 9.90124 132.698C10.0752 132.503 10.2305 132.292 10.3648 132.068C10.3648 132.068 11.7727 128.511 11.7922 127.164L11.8849 126.859C11.8849 126.859 12.4217 127.559 12.3461 128.062C12.2705 128.564 12.7584 128.925 12.7584 128.925V130.453C12.8121 130.719 12.8415 130.989 12.8463 131.26C12.8292 131.504 13.0659 131.763 12.9756 131.98C12.9268 132.175 12.9268 132.379 12.9756 132.573C12.9756 132.573 12.9561 133.076 12.9756 133.22C12.9951 133.364 12.9024 135.016 13.3855 135.735C13.3855 135.735 13.588 136.255 13.3855 136.597C13.183 136.938 13.5685 137.28 13.5685 137.28C13.5685 137.28 13.3245 137.675 13.5685 137.963C13.7076 138.144 13.7698 138.373 13.7418 138.6C13.6442 138.966 13.5734 139.444 13.7418 139.778L13.7857 140.293L15.2057 140.183V139.898C15.8176 140.048 16.4514 140.088 17.0772 140.015C17.3191 139.993 17.5539 139.922 17.7671 139.806C17.9803 139.69 18.1674 139.531 18.3167 139.339C18.3167 139.339 18.8876 138.351 17.3334 138.729Z" fill="url(#paint1_linear)"/>
<path d="M18.0509 139.349C17.9074 139.538 17.7262 139.695 17.5186 139.81C17.3111 139.925 17.0819 139.996 16.8455 140.018C16.2406 140.09 15.6275 140.05 15.0375 139.898V140.186L13.6662 140.293L13.6248 139.781C13.4662 139.444 13.5394 138.956 13.637 138.59C13.6812 138.417 13.7375 138.248 13.8053 138.083C13.8053 138.083 14.9863 137.08 15.3791 137.839C15.4645 137.994 15.5827 138.129 15.7256 138.234C16.1377 138.508 16.6066 138.685 17.0968 138.751C18.6047 138.366 18.0509 139.349 18.0509 139.349Z" fill="#FF6484"/>
<path opacity="0.1" d="M14.4058 138.366C14.4058 138.366 14.4058 139.295 15.0841 139.278C15.7624 139.261 15.8551 138.907 15.6404 138.668C15.494 138.499 15.3679 138.313 15.2646 138.114L14.4058 138.366Z" fill="black"/>
<path d="M8.54964 141.174C8.18069 141.326 7.78703 141.408 7.38822 141.418C7.26191 141.417 7.13605 141.403 7.01246 141.377C6.29755 141.216 5.67048 140.481 5.67048 140.481L5.54604 140.679L4.13086 140.035L4.2919 139.659V139.593C4.35778 139.081 4.77989 138.493 5.07757 138.144C5.24592 137.948 5.37768 137.822 5.37768 137.822L7.08566 138.066C7.08566 138.066 7.08566 138.285 7.08566 138.554C7.07967 138.722 7.06337 138.89 7.03686 139.056C6.9661 139.449 7.75177 140.379 7.75177 140.379C9.06936 140.506 8.54964 141.174 8.54964 141.174Z" fill="#FF6484"/>
<path d="M5.15083 137.016C5.12206 137.024 5.09175 137.024 5.06299 137.016C5.09203 137.011 5.12179 137.011 5.15083 137.016Z" fill="#444053"/>
<path opacity="0.1" d="M7.06669 138.08C7.06669 138.08 7.06669 138.3 7.06669 138.568L5.06836 138.249C5.06836 138.249 5.06836 138.21 5.09032 138.146C5.24648 137.948 5.37823 137.822 5.37823 137.822L7.06669 138.08Z" fill="black"/>
<path opacity="0.1" d="M15.7302 138.224C15.4277 138.924 13.6294 138.759 13.6294 138.759C13.6395 138.702 13.6436 138.645 13.6416 138.588C13.6859 138.415 13.7421 138.245 13.81 138.08C13.81 138.08 14.9909 137.077 15.3837 137.836C15.47 137.989 15.5882 138.121 15.7302 138.224V138.224Z" fill="black"/>
<path d="M15.7598 138.027C15.5817 138.829 13.6297 138.651 13.6297 138.651C13.6679 138.413 13.61 138.169 13.4687 137.973C13.2247 137.685 13.4687 137.292 13.4687 137.292C13.4687 137.292 13.0929 136.953 13.2906 136.611C13.4882 136.27 13.2906 135.752 13.2906 135.752C12.827 135.038 12.9148 133.391 12.8953 133.249C12.8758 133.108 12.8953 132.605 12.8953 132.605C12.8479 132.411 12.8479 132.208 12.8953 132.014C12.9831 131.8 12.7538 131.548 12.7733 131.3C12.7709 131.032 12.7456 130.765 12.6977 130.502V128.982C12.5675 128.881 12.4636 128.75 12.3948 128.601C12.326 128.451 12.2943 128.287 12.3024 128.123C12.3731 127.62 11.8534 126.925 11.8534 126.925L11.7656 127.227C11.7461 128.569 10.387 132.107 10.387 132.107C10.2575 132.329 10.1081 132.538 9.94049 132.732C9.83313 132.805 9.49398 132.732 9.49398 132.732C9.49398 132.732 9.47446 133.198 9.22558 133.286C8.9767 133.374 7.7616 135.755 7.77624 136.131C7.76661 136.26 7.72967 136.386 7.66786 136.501C7.60605 136.615 7.52075 136.715 7.41756 136.794C7.41756 136.794 7.59568 137.116 7.43464 137.295C7.27361 137.473 7.3468 137.419 7.3468 137.6C7.3468 137.78 7.3468 137.707 7.23945 137.778C7.13209 137.848 7.23945 137.868 7.23945 137.992C7.24426 138.056 7.22513 138.12 7.18577 138.17L7.16869 138.471L5.0752 138.136C5.0752 138.136 5.21671 137.526 5.27039 137.241C5.30211 137.073 5.22891 137.029 5.16303 137.019C5.22159 136.997 5.28259 136.931 5.25331 136.741C5.19963 136.399 5.57539 136.043 5.57539 136.043C5.79195 134.397 6.48194 132.849 7.56152 131.587C7.56152 131.48 7.91776 131.175 7.91776 131.175C7.91776 131.175 7.95436 130.687 8.25935 130.638C8.56435 130.59 8.25935 130.192 8.25935 130.192C8.41338 129.841 8.53269 129.475 8.61559 129.101C8.63511 128.816 8.73515 127.474 8.73515 127.474C8.81591 127.282 8.83881 127.071 8.80102 126.866C8.71807 126.622 8.80102 126.561 8.80102 126.561C8.80102 126.561 8.9035 126.024 8.80102 125.829C8.74191 125.694 8.72082 125.546 8.74003 125.4L8.78883 124.697L8.86446 123.648C8.86446 123.648 14.4276 122.699 15.0351 123.467C15.1025 123.562 15.1513 123.669 15.1791 123.782C15.6134 125.197 15.4646 129.882 15.4646 129.882L15.1962 131.241C15.2943 131.375 15.3395 131.54 15.3231 131.705C15.2995 131.88 15.3179 132.058 15.3767 132.224C15.3767 132.224 15.3767 132.332 15.3572 132.617C15.3416 132.749 15.3482 132.883 15.3767 133.012C15.3767 133.012 15.3938 135.479 15.4109 135.982C15.3999 136.23 15.4692 136.474 15.6085 136.68V137.287C15.6569 137.401 15.681 137.523 15.6793 137.646C15.676 137.777 15.7036 137.908 15.7598 138.027Z" fill="#444053"/>
<path opacity="0.1" d="M7.38822 141.413C7.26191 141.412 7.13605 141.398 7.01246 141.372C6.29755 141.211 5.67048 140.476 5.67048 140.476L5.54604 140.674L4.13086 140.03L4.2919 139.654V139.588L5.75588 140.32C5.75588 140.32 6.92706 140.889 7.38822 141.413Z" fill="black"/>
<path opacity="0.1" d="M16.8458 140.018C16.2409 140.09 15.6278 140.05 15.0377 139.898V140.186L13.6665 140.293L13.625 139.781C14.0593 139.781 14.7596 139.798 15.0621 139.781C15.6646 139.779 16.2646 139.858 16.8458 140.018V140.018Z" fill="black"/>
<path opacity="0.1" d="M5.85143 136.555C5.92245 136.551 5.9937 136.56 6.06127 136.582C6.13143 136.625 6.19831 136.673 6.26135 136.726C6.30841 136.752 6.3533 136.781 6.39554 136.814C6.44678 136.865 6.46874 136.941 6.51998 136.992C6.61758 137.087 6.76398 137.068 6.90062 137.112C6.91526 137.112 6.9299 137.112 6.93234 137.138C6.93246 137.146 6.93044 137.153 6.92653 137.159C6.92262 137.165 6.917 137.17 6.91038 137.173C6.87862 137.19 6.84295 137.199 6.80668 137.199C6.77041 137.199 6.73474 137.19 6.70298 137.173C6.64036 137.137 6.58291 137.092 6.53218 137.041C6.43286 136.953 6.31891 136.882 6.19547 136.833C6.02711 136.765 5.73431 136.748 5.62695 136.589C5.69805 136.561 5.77496 136.549 5.85143 136.555Z" fill="black"/>
<path opacity="0.1" d="M5.7074 136.931C5.74471 136.942 5.78072 136.956 5.81476 136.975L5.99776 137.068C5.86793 137.076 5.7383 137.048 5.62444 136.985C5.58306 136.969 5.54306 136.951 5.50488 136.929C5.57198 136.917 5.6406 136.918 5.7074 136.931Z" fill="black"/>
<path opacity="0.1" d="M5.95099 137.246C5.98988 137.241 6.02923 137.241 6.06811 137.246C6.13831 137.271 6.20293 137.31 6.25843 137.36C6.39279 137.468 6.55992 137.525 6.73178 137.524C6.69963 137.538 6.66436 137.544 6.6293 137.541H6.24379C6.20171 137.547 6.15899 137.547 6.11691 137.541C6.06162 137.529 6.00826 137.509 5.95831 137.482C5.89243 137.453 5.6216 137.375 5.61916 137.285C5.61672 137.194 5.88511 137.246 5.95099 137.246Z" fill="black"/>
<path opacity="0.1" d="M14.7007 137.702C14.8184 137.712 14.9368 137.712 15.0545 137.702C15.1796 137.697 15.3011 137.658 15.4058 137.59C15.5083 137.512 15.4864 137.429 15.357 137.424C15.2346 137.429 15.1144 137.458 15.0032 137.509C14.9458 137.533 14.8903 137.562 14.8373 137.595C14.8129 137.619 14.7251 137.704 14.7007 137.702Z" fill="black"/>
<path opacity="0.1" d="M15.1373 137.897C15.1373 137.941 15.0812 137.966 15.0397 137.98C14.9389 138.02 14.8328 138.043 14.7249 138.051C14.6981 138.051 14.6225 138.051 14.6322 138.009C14.642 137.968 14.7542 137.98 14.781 137.975C14.9015 137.958 15.0205 137.932 15.1373 137.897V137.897Z" fill="black"/>
<path opacity="0.1" d="M9.1427 130.797C8.96351 130.672 8.75131 130.602 8.53271 130.597C8.7541 130.583 8.97226 130.655 9.1427 130.797V130.797Z" fill="black"/>
<path opacity="0.1" d="M8.97682 130.075C9.13779 130.076 9.29544 130.121 9.4331 130.204L9.28182 130.16C9.18185 130.128 9.0788 130.107 8.97438 130.097C8.91582 130.097 8.85483 130.097 8.79627 130.097C8.73771 130.097 8.65963 130.08 8.59131 130.077C8.71087 130.077 8.84507 130.07 8.97682 130.075Z" fill="black"/>
<path opacity="0.1" d="M9.52599 130.419C9.57723 130.419 9.63823 130.45 9.64799 130.502C9.52028 130.441 9.38713 130.392 9.25028 130.355C9.17464 130.331 8.94284 130.228 8.88916 130.299C9.08192 130.355 9.30396 130.375 9.52599 130.419Z" fill="black"/>
<path opacity="0.1" d="M10.0136 128.83C10.2479 128.751 10.4591 128.615 10.6285 128.435C10.6264 128.515 10.6047 128.594 10.5651 128.663C10.5255 128.733 10.4693 128.792 10.4015 128.835C10.2645 128.92 10.1119 128.978 9.95259 129.004C9.79386 129.031 9.63903 129.078 9.49143 129.143C9.42068 129.177 9.20108 129.387 9.13032 129.387C9.05956 129.387 9.184 129.233 9.21572 129.208C9.46187 129.044 9.73066 128.917 10.0136 128.83V128.83Z" fill="black"/>
<path opacity="0.1" d="M14.4052 131.151C14.3296 131.124 13.4048 131.302 13.4609 131.124C13.4975 131.014 13.7977 131.056 13.8709 131.058C14.0525 131.063 14.2325 131.094 14.4052 131.151V131.151Z" fill="black"/>
<path d="M13.3975 109.762C13.3975 109.912 13.3811 110.062 13.3487 110.208C13.2352 110.719 12.9304 111.166 12.4972 111.459C12.0639 111.751 11.535 111.867 11.0192 111.782C10.5034 111.696 10.0398 111.417 9.72385 111C9.40786 110.584 9.26341 110.062 9.32021 109.542C9.37701 109.023 9.63074 108.544 10.0292 108.206C10.4277 107.867 10.9408 107.695 11.4628 107.723C11.9849 107.751 12.4763 107.978 12.8362 108.357C13.196 108.736 13.3969 109.239 13.3975 109.762V109.762Z" fill="#FBBEBE"/>
<path d="M12.4147 110.601C12.4147 110.601 11.7535 112.534 12.1293 112.927C12.505 113.319 9.42822 113.554 9.42822 113.554C9.42822 113.554 10.7141 111.245 10.5896 110.672C10.4652 110.099 12.4147 110.601 12.4147 110.601Z" stroke="#FD1E00" stroke-miterlimit="10"/>
<path opacity="0.1" d="M15.1691 123.777C15.1715 123.822 15.1715 123.867 15.1691 123.911C15.1325 124.824 13.505 126.666 13.1293 126.351C12.7535 126.037 10.2013 125.439 10.2013 125.439C10.2013 125.439 9.82556 124.848 9.43272 124.848C9.20865 124.83 8.98928 124.773 8.78369 124.682L8.85933 123.633C8.85933 123.633 14.4225 122.684 15.03 123.453C15.0967 123.551 15.1439 123.661 15.1691 123.777V123.777Z" fill="black"/>
<path d="M15.1694 123.75C15.1523 124.207 14.7351 124.897 14.2739 125.434C13.8128 125.971 13.3175 126.351 13.1296 126.2C12.9918 126.11 12.8424 126.04 12.6855 125.99C11.8389 125.68 10.1968 125.287 10.1968 125.287C10.1968 125.287 9.821 124.697 9.42816 124.697C9.03533 124.697 8.28138 124.304 8.28138 124.304C8.28138 124.304 8.35458 124.197 8.28138 123.804C8.20818 123.411 7.06139 124.019 7.06139 124.019C7.06139 124.019 7.00771 121.371 7.41763 120.083C7.82754 118.795 7.63235 117.155 7.63235 117.155C7.63235 117.155 7.92758 115.535 8.24722 114.251C8.43998 113.483 8.64249 112.836 8.79621 112.736C9.20857 112.468 11.3533 112.736 11.3533 112.736C11.7669 112.742 12.1796 112.778 12.5879 112.844C12.6935 112.886 12.7837 112.959 12.8466 113.053L12.91 113.144C13.1912 113.638 13.4303 114.154 13.6249 114.688C13.9665 115.511 15.3085 118.98 15.3085 118.98C15.3085 118.98 15.2719 119.224 14.9669 120.268C14.6619 121.313 15.206 122.838 15.1694 123.75Z" fill="#65617D"/>
<path d="M13.6318 124.804L14.2735 125.434C14.2735 125.434 14.864 127.471 14.0954 127.291C13.3268 127.11 12.6851 125.99 12.6851 125.99L13.6318 124.804Z" fill="#FBBEBE"/>
<path opacity="0.1" d="M15.2598 119.134C13.7373 119.117 13.3444 116.987 13.3444 116.987C13.3444 116.987 13.2371 114.876 13.0394 114.483C12.9218 114.099 12.8618 113.699 12.8613 113.297C13.1425 113.791 13.3817 114.308 13.5762 114.842C13.9178 115.664 15.2598 119.134 15.2598 119.134Z" fill="black"/>
<path d="M15.3135 118.973C13.791 118.956 13.3982 116.826 13.3982 116.826C13.3982 116.826 13.2908 114.715 13.0932 114.322C12.9755 113.938 12.9155 113.538 12.915 113.136C13.1962 113.63 13.4354 114.147 13.6299 114.681C13.9715 115.503 15.3135 118.973 15.3135 118.973Z" fill="#65617D"/>
<path opacity="0.1" d="M12.5877 113.722C12.5877 113.722 12.1411 112.502 11.4091 113.722C10.9472 114.569 10.6899 115.512 10.6576 116.477L10.5308 119.839C10.6481 120.056 10.7242 120.292 10.7552 120.537C10.7552 120.781 11.1944 121.513 11.1944 121.513C11.1944 121.513 11.3018 122.926 11.7117 123.16L12.107 124.321C12.107 124.321 12.1241 125.09 12.3925 125.395C12.4707 125.506 12.5228 125.633 12.5447 125.767C12.5667 125.901 12.558 126.038 12.5193 126.168L14.1102 125.612C14.1102 125.612 13.9296 125.678 14.1102 125.197C14.2908 124.717 14.0028 124.089 14.0028 124.089C14.0028 124.089 12.9829 121.872 12.856 121.549C12.7292 121.227 12.5535 120.852 12.6121 120.476C12.6706 120.1 12.6267 116.111 12.7194 115.503C12.8121 114.896 12.5877 113.722 12.5877 113.722Z" fill="black"/>
<path d="M12.7537 113.554C12.7537 113.554 12.3072 112.334 11.5727 113.554C11.1121 114.401 10.8549 115.344 10.8212 116.308L10.6968 119.671C10.8134 119.888 10.8894 120.124 10.9213 120.368C10.9213 120.612 11.358 121.344 11.358 121.344C11.358 121.344 11.4654 122.757 11.8777 122.989L12.2706 124.153C12.2706 124.153 12.2901 124.921 12.5585 125.226C12.6367 125.337 12.6888 125.465 12.7108 125.599C12.7327 125.733 12.7241 125.87 12.6853 126L14.2738 125.444C14.2738 125.444 14.0957 125.509 14.2738 125.026C14.4519 124.543 14.1615 123.914 14.1615 123.914C14.1615 123.914 13.1441 121.696 13.0172 121.374C12.8903 121.052 12.7146 120.676 12.7732 120.3C12.8317 119.924 12.7878 115.935 12.8781 115.325C12.9684 114.715 12.7537 113.554 12.7537 113.554Z" fill="#FF6484"/>
<path opacity="0.1" d="M12.7855 124.072C12.8534 124.081 12.9193 124.101 12.9807 124.131C13.0295 124.155 13.071 124.194 13.1198 124.221C13.1755 124.253 13.2386 124.27 13.3028 124.27C13.2313 124.274 13.1596 124.274 13.0881 124.27C13.0435 124.273 12.9987 124.267 12.9563 124.253C12.9162 124.234 12.8785 124.21 12.8441 124.182C12.8003 124.15 12.7528 124.123 12.7026 124.102C12.6635 124.087 12.6221 124.082 12.6074 124.043C12.6675 124.048 12.7271 124.058 12.7855 124.072V124.072Z" fill="black"/>
<path opacity="0.1" d="M13.3909 124.553C13.4592 124.553 13.5251 124.538 13.5934 124.534C13.692 124.53 13.7908 124.535 13.8886 124.548C13.745 124.622 13.5827 124.65 13.4226 124.631C13.377 124.619 13.3291 124.619 13.2835 124.631C13.2347 124.651 13.0883 124.817 13.0761 124.67C13.0639 124.524 13.3079 124.555 13.3909 124.553Z" fill="black"/>
<path opacity="0.1" d="M12.5677 107.615L12.3066 107.424C12.3347 107.434 12.3617 107.446 12.3872 107.461C12.4421 107.491 12.4916 107.53 12.5336 107.576L12.6165 107.651L12.5677 107.615Z" fill="black"/>
<path opacity="0.1" d="M12.8513 113.046C12.8038 113.153 12.7279 113.245 12.6317 113.312C12.5741 113.351 12.5081 113.376 12.4389 113.385C12.342 113.395 12.2441 113.385 12.151 113.356C12.032 113.324 11.9147 113.286 11.7997 113.241C11.5744 113.147 11.3438 113.065 11.1092 112.997C10.9336 112.944 10.7475 112.935 10.5677 112.972C10.3879 113.008 10.2201 113.089 10.0795 113.207C9.85257 113.437 9.79889 113.793 9.57442 114.022C9.27186 114.33 8.77899 114.31 8.35443 114.249L8.25439 114.234C8.44715 113.466 8.64967 112.819 8.80339 112.719C9.21574 112.451 11.3605 112.719 11.3605 112.719C11.7741 112.725 12.1867 112.761 12.5951 112.827C12.7011 112.872 12.7906 112.948 12.8513 113.046V113.046Z" fill="black"/>
<path opacity="0.1" d="M9.32033 109.762C9.31878 109.36 9.43605 108.967 9.65737 108.632C9.8787 108.296 10.1942 108.034 10.5642 107.878C10.9343 107.721 11.3423 107.678 11.737 107.752C12.1317 107.827 12.4955 108.017 12.7826 108.298V108.298C12.7826 108.652 12.7119 109.03 12.8119 109.359C12.9354 109.671 13.1177 109.956 13.3487 110.199C13.2374 110.686 12.951 111.116 12.5439 111.406C12.1368 111.696 11.6372 111.827 11.1402 111.773C10.6432 111.719 10.1832 111.484 9.84773 111.114C9.51224 110.743 9.32456 110.262 9.32033 109.762V109.762Z" fill="black"/>
<path d="M12.6169 107.544C12.2213 107.185 11.7227 106.96 11.1919 106.9C10.6611 106.841 10.125 106.95 9.65966 107.212C9.44569 107.33 9.26322 107.497 9.12774 107.7C8.84715 108.147 8.91791 108.725 8.77151 109.23C8.62511 109.735 8.30059 110.113 8.02488 110.535C7.74916 110.958 7.5198 111.458 7.62472 111.951C7.70036 112.309 7.9468 112.631 7.94192 112.997C7.93217 113.201 7.84583 113.394 7.70017 113.537C7.55451 113.68 7.36025 113.762 7.15625 113.768C7.518 113.991 7.92811 114.123 8.35183 114.154C8.77883 114.215 9.2717 114.234 9.57182 113.927C9.7963 113.698 9.84997 113.341 10.0769 113.112C10.2175 112.994 10.3853 112.913 10.5651 112.877C10.7449 112.84 10.931 112.849 11.1066 112.902C11.4628 112.985 11.7922 113.146 12.1484 113.251C12.2415 113.28 12.3394 113.29 12.4363 113.28C12.7413 113.239 12.9243 112.9 12.9439 112.592C12.9634 112.348 12.9268 112.043 13.1073 111.86C13.1763 111.802 13.2507 111.751 13.3294 111.707C13.4689 111.611 13.5794 111.478 13.6487 111.324C13.718 111.169 13.7434 110.999 13.7222 110.831C13.6368 110.226 12.9902 109.855 12.8097 109.259C12.7096 108.918 12.7853 108.552 12.7804 108.198C12.7755 107.844 12.6389 107.437 12.3046 107.317" fill="#444053"/>
<path opacity="0.1" d="M13.6905 110.831C13.6075 110.226 12.9585 109.855 12.7779 109.259C12.6779 108.918 12.756 108.552 12.7486 108.198C12.7532 107.951 12.6779 107.708 12.5339 107.507L12.5852 107.544C12.5583 107.517 12.529 107.493 12.4998 107.468C12.4585 107.425 12.4118 107.387 12.3607 107.356L12.268 107.293L12.3168 107.339L12.2655 107.302C12.4099 107.503 12.4852 107.746 12.4802 107.993C12.4802 108.347 12.4095 108.725 12.5095 109.052C12.6828 109.64 13.3391 110.028 13.4221 110.626C13.443 110.794 13.4175 110.964 13.3482 111.119C13.279 111.273 13.1686 111.406 13.0292 111.502C12.9506 111.546 12.8762 111.597 12.8072 111.655C12.6266 111.836 12.6632 112.143 12.6437 112.387C12.6193 112.695 12.4436 113.034 12.1386 113.075C12.0409 113.084 11.9424 113.074 11.8483 113.046C11.4945 112.953 11.1627 112.78 10.8064 112.697C10.6309 112.643 10.4447 112.634 10.2649 112.671C10.085 112.708 9.91716 112.789 9.77676 112.907C9.55228 113.134 9.49616 113.493 9.27168 113.722C8.96913 114.027 8.47625 114.01 8.0517 113.949C7.77222 113.917 7.49721 113.854 7.23187 113.761C7.19618 113.765 7.16021 113.765 7.12451 113.761C7.48654 113.983 7.8965 114.115 8.32009 114.147C8.74709 114.208 9.23996 114.227 9.54008 113.92C9.76456 113.69 9.82068 113.334 10.0452 113.105C10.1858 112.987 10.3536 112.906 10.5334 112.869C10.7132 112.833 10.8993 112.841 11.0748 112.895C11.4311 112.978 11.7629 113.139 12.1167 113.244C12.2105 113.273 12.3093 113.283 12.407 113.273C12.712 113.232 12.895 112.892 12.9121 112.585C12.9316 112.341 12.895 112.036 13.0756 111.853C13.1446 111.795 13.2189 111.743 13.2976 111.699C13.436 111.604 13.5457 111.473 13.615 111.32C13.6842 111.167 13.7103 110.997 13.6905 110.831V110.831Z" fill="black"/>
<path opacity="0.1" d="M21.5425 139.971C21.9328 141.272 16.6845 142.113 10.504 141.874C4.96288 141.662 0.617293 140.642 0.297658 139.576C-0.0219781 138.51 3.75509 137.641 9.23038 137.624C15.3376 137.624 21.1521 138.671 21.5425 139.971Z" fill="#FD1E00"/>
</g>
<defs>
<linearGradient id="paint0_linear" x1="190.293" y1="148.452" x2="190.293" y2="93.297" gradientUnits="userSpaceOnUse">
<stop stop-color="#808080" stop-opacity="0.25"/>
<stop offset="0.54" stop-color="#808080" stop-opacity="0.12"/>
<stop offset="1" stop-color="#808080" stop-opacity="0.1"/>
</linearGradient>
<linearGradient id="paint1_linear" x1="1494.98" y1="25200" x2="1494.98" y2="20271.3" gradientUnits="userSpaceOnUse">
<stop stop-color="#808080" stop-opacity="0.25"/>
<stop offset="0.54" stop-color="#808080" stop-opacity="0.12"/>
<stop offset="1" stop-color="#808080" stop-opacity="0.1"/>
</linearGradient>
<clipPath id="clip0">
<rect width="265" height="149.255" fill="white"/>
</clipPath>
</defs>
</svg>
