<svg width="265" height="153" viewBox="0 0 265 153" fill="none" xmlns="http://www.w3.org/2000/svg">
<g clip-path="url(#clip0)">
<path d="M132.5 152.517C205.678 152.517 265 149.105 265 144.896C265 140.688 205.678 137.276 132.5 137.276C59.3223 137.276 0 140.688 0 144.896C0 149.105 59.3223 152.517 132.5 152.517Z" fill="#F2F2F2"/>
<path d="M241.252 0H42.1992V6.33274H241.252V0Z" fill="#F2F2F2"/>
<path d="M47.5257 4.71195C48.4308 4.71195 49.1646 3.97817 49.1646 3.073C49.1646 2.16783 48.4308 1.43405 47.5257 1.43405C46.6205 1.43405 45.8867 2.16783 45.8867 3.073C45.8867 3.97817 46.6205 4.71195 47.5257 4.71195Z" fill="#FD1E00"/>
<path d="M52.8528 4.71195C53.758 4.71195 54.4918 3.97817 54.4918 3.073C54.4918 2.16783 53.758 1.43405 52.8528 1.43405C51.9476 1.43405 51.2139 2.16783 51.2139 3.073C51.2139 3.97817 51.9476 4.71195 52.8528 4.71195Z" fill="#FD1E00"/>
<path d="M58.179 4.71195C59.0842 4.71195 59.8179 3.97817 59.8179 3.073C59.8179 2.16783 59.0842 1.43405 58.179 1.43405C57.2738 1.43405 56.54 2.16783 56.54 3.073C56.54 3.97817 57.2738 4.71195 58.179 4.71195Z" fill="#FD1E00"/>
<path d="M42.3403 100.158L42.1992 100.279V142.998H241.252V67.9603L238.88 68.1402L42.3403 100.158Z" fill="#3F3D56"/>
<path d="M112.15 42.3616H56.5645V44.603H112.15V42.3616Z" fill="#3F3D56"/>
<path d="M112.15 47.2925H56.5645V49.5339H112.15V47.2925Z" fill="#3F3D56"/>
<path d="M75.3918 52.2236H56.5645V54.4649H75.3918V52.2236Z" fill="#3F3D56"/>
<path d="M225.506 104.587H169.921V106.828H225.506V104.587Z" fill="white"/>
<path d="M225.506 109.518H169.921V111.759H225.506V109.518Z" fill="white"/>
<path d="M188.748 114.449H169.921V116.69H188.748V114.449Z" fill="white"/>
<path d="M135.385 140.932C136.592 140.932 137.571 139.953 137.571 138.745C137.571 137.538 136.592 136.559 135.385 136.559C134.177 136.559 133.198 137.538 133.198 138.745C133.198 139.953 134.177 140.932 135.385 140.932Z" fill="#F2F2F2"/>
<path d="M141.726 141.15C142.933 141.15 143.912 140.172 143.912 138.964C143.912 137.756 142.933 136.777 141.726 136.777C140.518 136.777 139.539 137.756 139.539 138.964C139.539 140.172 140.518 141.15 141.726 141.15Z" fill="#F2F2F2"/>
<path d="M148.066 141.369C149.274 141.369 150.253 140.39 150.253 139.183C150.253 137.975 149.274 136.996 148.066 136.996C146.859 136.996 145.88 137.975 145.88 139.183C145.88 140.39 146.859 141.369 148.066 141.369Z" fill="#F2F2F2"/>
<path d="M141.745 140.713C142.711 140.713 143.495 139.93 143.495 138.964C143.495 137.998 142.711 137.215 141.745 137.215C140.779 137.215 139.996 137.998 139.996 138.964C139.996 139.93 140.779 140.713 141.745 140.713Z" fill="#3F3D56"/>
<path d="M93.7219 68.017H74.8945V72.3125H93.7219V68.017Z" fill="#3F3D56"/>
<path d="M205.631 126.142H186.804V130.438H205.631V126.142Z" fill="white"/>
<path opacity="0.3" d="M84.4145 83.2115C91.6074 83.2115 97.4384 77.3805 97.4384 70.1876C97.4384 62.9947 91.6074 57.1637 84.4145 57.1637C77.2216 57.1637 71.3906 62.9947 71.3906 70.1876C71.3906 77.3805 77.2216 83.2115 84.4145 83.2115Z" fill="#FD1E00"/>
<path opacity="0.3" d="M84.414 78.8702C89.2093 78.8702 93.0966 74.9829 93.0966 70.1876C93.0966 65.3924 89.2093 61.505 84.414 61.505C79.6188 61.505 75.7314 65.3924 75.7314 70.1876C75.7314 74.9829 79.6188 78.8702 84.414 78.8702Z" fill="#FD1E00"/>
<path d="M84.4143 76.2172C87.7444 76.2172 90.4439 73.5176 90.4439 70.1876C90.4439 66.8576 87.7444 64.158 84.4143 64.158C81.0843 64.158 78.3848 66.8576 78.3848 70.1876C78.3848 73.5176 81.0843 76.2172 84.4143 76.2172Z" fill="#FD1E00"/>
<path opacity="0.3" d="M194.001 50.9343C201.194 50.9343 207.025 45.1033 207.025 37.9104C207.025 30.7175 201.194 24.8865 194.001 24.8865C186.809 24.8865 180.978 30.7175 180.978 37.9104C180.978 45.1033 186.809 50.9343 194.001 50.9343Z" fill="#FD1E00"/>
<path opacity="0.3" d="M194.002 46.593C198.797 46.593 202.685 42.7057 202.685 37.9104C202.685 33.1152 198.797 29.2278 194.002 29.2278C189.207 29.2278 185.319 33.1152 185.319 37.9104C185.319 42.7057 189.207 46.593 194.002 46.593Z" fill="#FD1E00"/>
<path d="M194.001 43.94C197.331 43.94 200.031 41.2405 200.031 37.9104C200.031 34.5804 197.331 31.8809 194.001 31.8809C190.671 31.8809 187.972 34.5804 187.972 37.9104C187.972 41.2405 190.671 43.94 194.001 43.94Z" fill="#FD1E00"/>
<path opacity="0.3" d="M196.323 141.337C203.516 141.337 209.347 135.506 209.347 128.313C209.347 121.12 203.516 115.289 196.323 115.289C189.13 115.289 183.299 121.12 183.299 128.313C183.299 135.506 189.13 141.337 196.323 141.337Z" fill="#FD1E00"/>
<path opacity="0.3" d="M196.323 136.995C201.118 136.995 205.006 133.108 205.006 128.313C205.006 123.517 201.118 119.63 196.323 119.63C191.528 119.63 187.641 123.517 187.641 128.313C187.641 133.108 191.528 136.995 196.323 136.995Z" fill="#FD1E00"/>
<path d="M196.324 134.342C199.654 134.342 202.353 131.643 202.353 128.313C202.353 124.983 199.654 122.283 196.324 122.283C192.993 122.283 190.294 124.983 190.294 128.313C190.294 131.643 192.993 134.342 196.324 134.342Z" fill="#FD1E00"/>
<path d="M21.6874 26.3761L27.0479 26.584L27.3151 19.692L21.9547 19.4841L21.6874 26.3761Z" fill="#FD1E00"/>
<path d="M46.1362 43.6214C46.1362 43.6214 53.5595 40.0746 53.4408 43.1377C53.322 46.2008 45.958 48.2161 45.958 48.2161L46.1362 43.6214Z" fill="#FFB9B9"/>
<path d="M42.0632 69.5391C42.0632 69.5391 45.5655 78.1111 46.8595 84.2967C48.1535 90.4824 50.1242 98.995 47.5893 105.032C45.0544 111.069 37.8474 128.813 37.7732 130.727C37.6989 132.642 38.3905 134.586 36.8589 134.526C35.3274 134.467 26.9929 131.843 26.6545 130.679C26.3162 129.516 29.4981 126.572 29.4981 126.572L37.3552 101.951L29.1575 85.9111L23.2445 109.84L22.0864 139.705C22.0864 139.705 16.4025 137.951 15.5773 139.453C15.5773 139.453 13.0307 135.903 12.7072 134.357C12.3837 132.81 13.9099 103.343 13.9099 103.343C13.9099 103.343 8.69252 69.7789 12.9043 69.9422C17.1161 70.1056 33.6131 60.0083 42.0632 69.5391Z" fill="#2F2E41"/>
<path d="M36.9178 132.995C36.9178 132.995 40.803 141.582 41.171 141.979C41.539 142.377 44.0708 146.31 42.1563 146.236C40.2419 146.161 35.7215 144.069 32.3942 140.872C29.067 137.675 24.6802 132.137 25.078 131.769C25.4757 131.401 28.2005 130.356 28.2005 130.356L36.9178 132.995Z" fill="#2F2E41"/>
<path d="M21.3944 137.761C21.3944 137.761 21.6288 141.605 22.3352 143.166C23.0416 144.727 22.9525 147.025 21.0381 146.951C19.1236 146.876 14.1758 145.917 14.1758 145.917C14.1758 145.917 13.882 143.605 14.2797 143.237C14.6774 142.869 16.3723 138.717 15.6511 137.538C14.9299 136.36 21.3944 137.761 21.3944 137.761Z" fill="#2F2E41"/>
<path d="M18.5621 13.0254C18.5621 13.0254 14.4808 19.386 12.8899 20.8582C11.2989 22.3303 15.7748 25.5716 15.7748 25.5716L23.7858 26.6492C23.7858 26.6492 23.685 19.3594 24.0976 18.6085C24.5102 17.8576 18.5621 13.0254 18.5621 13.0254Z" fill="#FFB9B9"/>
<path d="M25.5254 21.3482C25.5254 21.3482 23.8751 24.3519 22.3435 24.2925C20.812 24.2331 12.8901 20.8582 12.5517 19.6947C12.2134 18.5312 9.92773 28.0291 9.92773 28.0291L29.312 62.1423L34.0403 58.8744L31.7493 38.8454L29.8677 28.0355L25.5254 21.3482Z" fill="#FD1E00"/>
<path d="M11.837 51.878C12.6102 53.4955 13.0931 55.1823 13.0262 56.9091C13.0232 56.9857 13.0202 57.0623 13.0134 57.1387C12.83 60.6825 11.5245 64.7809 11.0561 67.7615C10.7163 69.8995 10.813 71.4601 12.0642 71.8269C15.0976 72.7115 11.6219 73.3436 23.3579 77.2499C35.0938 81.1562 37.1419 77.7844 37.1716 77.0187C37.2012 76.2529 35.5095 70.4353 35.9073 70.0673C36.305 69.6992 41.4724 74.8847 43.0337 74.1783C44.5949 73.4719 43.2118 69.5836 43.2118 69.5836C43.2118 69.5836 39.6948 61.3945 39.769 59.48C39.8432 57.5656 34.4414 48.5364 34.4414 48.5364L30.7673 24.6191C30.7673 24.6191 29.3545 21.4966 27.4549 21.0395C25.5553 20.5824 23.9792 21.6716 23.9792 21.6716L27.158 28.6973L30.5117 41.0982L29.9507 45.678C29.9507 45.678 26.0507 37.474 23.4893 34.307C20.9278 31.1399 15.4666 23.6423 15.4666 23.6423C15.4666 23.6423 14.1916 19.3402 15.1541 18.0546C16.1167 16.7652 11.1392 16.5721 9.01687 21.8583C7.89203 24.66 6.0658 28.838 4.92176 32.728C3.90233 36.1741 3.42078 39.3957 4.43074 41.2372C5.97437 44.0503 9.85737 47.748 11.837 51.878Z" fill="#575A89"/>
<path opacity="0.1" d="M4.43074 41.2372C5.97439 44.0503 9.85738 47.7479 11.837 51.8779C12.354 50.0151 12.9848 48.0878 12.9848 48.0878C12.9848 48.0878 15.404 35.1438 8.24794 31.7986C7.06222 31.6839 5.87633 32.0153 4.92177 32.728C3.90233 36.1741 3.42078 39.3957 4.43074 41.2372Z" fill="black"/>
<path d="M32.8382 40.4215L38.9051 42.1906L47.3286 42.5172L48.1952 49.8367L34.3518 50.8337C34.3518 50.8337 30.8941 41.113 32.8382 40.4215Z" fill="#575A89"/>
<path d="M22.9457 65.0317C22.9457 65.0317 31.0619 66.3782 29.2094 68.8206C27.357 71.263 20.167 68.6953 20.167 68.6953L22.9457 65.0317Z" fill="#FFB9B9"/>
<path opacity="0.1" d="M13.0129 57.1387C12.8295 60.6824 11.524 64.7809 11.0557 67.7615C13.6412 70.2085 16.0999 72.3669 17.0264 72.4028C18.9409 72.4771 22.0188 72.213 23.1527 72.6404C24.2865 73.0678 24.9515 65.8078 24.9515 65.8078C24.9515 65.8078 24.2748 63.4808 21.2562 62.2133C19.2188 61.3559 15.3132 59.0302 13.0129 57.1387Z" fill="black"/>
<path d="M8.33642 29.5013C8.33642 29.5013 1.85701 28.4831 2.20705 39.2337C2.55709 49.9843 1.52405 56.8466 4.13004 58.865C6.73602 60.8834 15.201 70.0313 17.1154 70.1056C19.0299 70.1798 22.1078 69.9157 23.2416 70.3431C24.3755 70.7706 25.0404 63.5105 25.0404 63.5105C25.0404 63.5105 24.3638 61.1835 21.3452 59.916C18.3266 58.6486 11.2151 54.1547 11.2744 52.6231C11.3338 51.0916 13.0733 45.7905 13.0733 45.7905C13.0733 45.7905 15.4925 32.8465 8.33642 29.5013Z" fill="#575A89"/>
<path d="M24.2766 22.4437C28.9323 22.4437 32.7065 18.6695 32.7065 14.0138C32.7065 9.35814 28.9323 5.58395 24.2766 5.58395C19.6209 5.58395 15.8467 9.35814 15.8467 14.0138C15.8467 18.6695 19.6209 22.4437 24.2766 22.4437Z" fill="#FFB9B9"/>
<path d="M29.9527 1.93137C30.1561 2.10655 30.3995 2.22874 30.6615 2.28706C30.793 2.3105 30.9285 2.28097 31.0383 2.2049C31.1481 2.12883 31.2234 2.0124 31.2477 1.88104C31.4405 2.28102 31.6581 2.70732 32.0519 2.91255C32.4457 3.11779 33.0546 2.94569 33.1114 2.50528C33.1688 2.83968 33.3168 3.15195 33.5391 3.40825C33.7834 3.64119 34.2265 3.69999 34.4398 3.43836C34.2674 4.38077 34.3738 5.34994 34.3196 6.30647C34.2655 7.26299 34.0104 8.27705 33.2877 8.90604C32.2338 9.82334 30.6489 9.59695 29.2626 9.42316C29.0529 9.37916 28.8354 9.39106 28.6318 9.45766C28.1127 9.67883 28.1362 10.4014 28.1292 10.9656C28.0869 11.9556 27.6951 12.8985 27.0234 13.627C26.3517 14.3554 25.4436 14.8222 24.4603 14.9446C23.91 15.0295 23.3485 14.8925 22.8992 14.5636C22.5056 14.2299 22.3046 13.6861 21.8535 13.4355C21.1198 13.0278 20.23 13.6224 19.6936 14.268C19.1571 14.9136 18.6284 15.7077 17.7974 15.8258C16.6984 15.9821 15.8613 14.8621 15.4506 13.8307C14.884 12.3852 14.6125 10.8409 14.6522 9.28882C14.6919 7.73674 15.042 6.20831 15.6818 4.79366C17.9766 -0.208735 25.8158 -0.999964 29.9527 1.93137Z" fill="#2F2E41"/>
<path d="M232.313 135.972C235.282 141.035 241.269 143.039 241.269 143.039C241.269 143.039 242.444 136.835 239.475 131.772C236.506 126.709 230.518 124.704 230.518 124.704C230.518 124.704 229.344 130.909 232.313 135.972Z" fill="#F2F2F2"/>
<path d="M234.165 134.205C239.3 137.048 241.451 142.985 241.451 142.985C241.451 142.985 235.277 144.311 230.143 141.468C225.008 138.624 222.857 132.687 222.857 132.687C222.857 132.687 229.031 131.361 234.165 134.205Z" fill="#FD1E00"/>
</g>
<defs>
<clipPath id="clip0">
<rect width="265" height="152.517" fill="white"/>
</clipPath>
</defs>
</svg>
