<svg width="265" height="174" viewBox="0 0 265 174" fill="none" xmlns="http://www.w3.org/2000/svg">
<g clip-path="url(#clip0)">
<path d="M54.8683 75.3766C41.4674 75.4384 30.5596 75.6364 30.5596 75.6364C30.5596 75.6364 43.5252 58.4621 54.8197 64.825C66.1141 71.188 79.0886 75.4127 79.0886 75.4127C79.0886 75.4127 68.2692 75.3149 54.8683 75.3766Z" fill="#F2F2F2"/>
<path d="M205.129 80.48C206.679 80.48 207.936 79.2232 207.936 77.6729C207.936 76.1226 206.679 74.8658 205.129 74.8658C203.579 74.8658 202.322 76.1226 202.322 77.6729C202.322 79.2232 203.579 80.48 205.129 80.48Z" fill="#FF6584"/>
<path d="M205.568 97.4556L184.579 121.559L185.226 122.123L206.216 98.0198L205.568 97.4556Z" fill="#3F3D56"/>
<path d="M205.892 102.257C208.389 102.257 210.412 100.234 210.412 97.7376C210.412 95.2414 208.389 93.2178 205.892 93.2178C203.396 93.2178 201.373 95.2414 201.373 97.7376C201.373 100.234 203.396 102.257 205.892 102.257Z" fill="#3F3D56"/>
<path d="M192.956 112.593C192.956 112.593 201.589 101.696 190.547 94.2205Z" fill="#3F3D56"/>
<path d="M52.0832 131.727C67.6307 160.561 100.628 172.939 100.628 172.939C100.628 172.939 108.418 138.568 92.8706 109.734C77.3231 80.9005 44.3255 68.5228 44.3255 68.5228C44.3255 68.5228 36.5356 102.894 52.0832 131.727Z" fill="#3F3D56"/>
<path d="M62.7692 122.241C90.839 139.129 101.65 172.672 101.65 172.672C101.65 172.672 66.95 178.836 38.8803 161.948C10.8105 145.06 0 111.517 0 111.517C0 111.517 34.6995 105.354 62.7692 122.241Z" fill="#536DFE"/>
<path d="M174.453 122.48C146.235 139.119 135.128 172.565 135.128 172.565C135.128 172.565 169.772 179.035 197.99 162.397C226.208 145.758 237.315 112.311 237.315 112.311C237.315 112.311 202.671 105.841 174.453 122.48Z" fill="#3F3D56"/>
<path d="M184.341 132.796C168.54 161.491 135.434 173.576 135.434 173.576C135.434 173.576 127.948 139.138 143.75 110.443C159.552 81.7477 192.658 69.6624 192.658 69.6624C192.658 69.6624 200.143 104.101 184.341 132.796Z" fill="#536DFE"/>
<path d="M126.995 53.8174C125.364 52.3422 124.347 50.308 124.145 48.118C123.943 45.928 124.572 43.7422 125.906 41.9938C125.729 42.1593 125.557 42.3312 125.391 42.514C124.619 43.3683 124.022 44.3664 123.636 45.4513C123.249 46.5362 123.08 47.6866 123.138 48.8369C123.254 51.1601 124.289 53.3416 126.015 54.9016C127.74 56.4617 130.015 57.2724 132.338 57.1555C133.488 57.0976 134.616 56.8137 135.656 56.32C136.697 55.8263 137.63 55.1325 138.403 54.2781C138.568 54.0954 138.721 53.9064 138.868 53.7141C137.263 55.217 135.151 56.0617 132.952 56.0809C130.753 56.1 128.627 55.2921 126.995 53.8174V53.8174Z" fill="#2F2E41"/>
<path d="M119.051 60.0422C129.027 60.0422 137.114 51.9551 137.114 41.9792C137.114 32.0032 129.027 23.9161 119.051 23.9161C109.075 23.9161 100.988 32.0032 100.988 41.9792C100.988 51.9551 109.075 60.0422 119.051 60.0422Z" fill="#2F2E41"/>
<path d="M114.089 65.1882L114.625 63.7965L104.883 72.0398L93.1066 78.6772C93.1066 78.6772 87.1115 55.5533 86.6833 55.125C86.2551 54.6968 78.5471 38.4245 75.1214 46.1324C71.6956 53.8404 81.7588 58.3367 81.7588 58.3367C81.7588 58.3367 82.0799 86.4922 92.3572 86.2781C102.635 86.064 115.374 76.7502 115.588 75.8937C115.802 75.0373 114.089 65.1882 114.089 65.1882Z" fill="#FFB8B8"/>
<path d="M116.873 60.4778C122.785 60.4778 127.579 55.6848 127.579 49.7723C127.579 43.8598 122.785 39.0668 116.873 39.0668C110.96 39.0668 106.167 43.8598 106.167 49.7723C106.167 55.6848 110.96 60.4778 116.873 60.4778Z" fill="#FFB8B8"/>
<path d="M119.014 57.4803C119.014 57.4803 121.797 61.1202 120.941 61.5484C120.084 61.9766 115.16 62.1907 112.162 65.8306C109.165 69.4705 115.802 78.6772 115.802 78.6772L141.067 61.7625L130.79 58.3368C130.79 58.3368 123.724 54.4828 123.938 50.4147L119.014 57.4803Z" fill="#FFB8B8"/>
<path d="M153.116 173.903H124.589C122.974 162.088 122.226 151.26 122.226 151.26C122.226 151.26 121.809 162.152 120.7 173.903H84.0508C89.2459 139.107 113.875 101.374 113.875 101.374C113.875 101.374 114.089 96.234 114.732 95.3768C115.375 94.5226 111.092 94.3083 109.163 87.8854C107.988 83.9644 109.045 81.3987 110.049 79.9971C110.394 79.492 110.819 79.0461 111.306 78.6766C111.306 78.6766 111.735 74.1823 111.306 73.5394C111.251 73.4555 111.674 73.1601 112.456 72.7112C113.107 72.3348 114.008 71.8512 115.085 71.2952C121.256 68.0953 133.202 62.434 137.293 60.5054C138.191 60.0797 138.712 59.8364 138.712 59.8364L145.992 62.405C151.772 64.3307 151.772 76.5366 151.772 76.5366L151.445 77.0347L142.709 90.2686L137.641 97.9483C138.927 98.8026 136.358 104.157 136.358 104.157C136.358 104.157 140.018 109.416 142.995 117.443C144.679 121.911 145.827 126.562 146.415 131.3C146.79 134.37 146.864 137.47 146.635 140.555C145.842 150.869 149.369 163.406 153.116 173.903Z" fill="#2F2E41"/>
<path d="M146.095 63.6669C145.858 63.5336 145.594 63.4536 145.323 63.4326C145.051 63.4117 144.778 63.4502 144.523 63.5456C144.268 63.6409 144.037 63.7908 143.846 63.9847C143.655 64.1787 143.509 64.412 143.417 64.6684C142.772 66.4412 142.119 70.1368 142.352 77.8207C142.78 91.952 142.994 101.587 142.994 101.587V122.998C142.994 122.998 133.573 143.553 138.712 143.553C143.851 143.553 147.49 127.28 147.49 127.28C147.49 127.28 152.201 102.658 150.702 98.3753C150.702 98.3753 154.928 68.7925 146.095 63.6669Z" fill="#FFB8B8"/>
<path d="M115.616 46.5376C120.69 46.5376 124.804 43.7328 124.804 40.2729C124.804 36.8131 120.69 34.0083 115.616 34.0083C110.541 34.0083 106.428 36.8131 106.428 40.2729C106.428 43.7328 110.541 46.5376 115.616 46.5376Z" fill="#2F2E41"/>
<path d="M130.207 35.359C135.051 35.359 138.978 31.4324 138.978 26.5885C138.978 21.7447 135.051 17.8181 130.207 17.8181C125.363 17.8181 121.437 21.7447 121.437 26.5885C121.437 31.4324 125.363 35.359 130.207 35.359Z" fill="#2F2E41"/>
<path d="M136.472 32.8532C134.273 32.8528 132.154 32.0262 130.536 30.5371C128.917 29.048 127.917 27.0052 127.734 24.8135C127.714 25.0548 127.702 25.298 127.702 25.5444C127.702 27.8705 128.626 30.1013 130.27 31.7461C131.915 33.3909 134.146 34.3149 136.472 34.3149C138.798 34.3149 141.029 33.3909 142.674 31.7461C144.319 30.1013 145.243 27.8705 145.243 25.5444C145.243 25.298 145.23 25.0548 145.21 24.8135C145.027 27.0052 144.027 29.048 142.409 30.5371C140.79 32.0262 138.671 32.8528 136.472 32.8532V32.8532Z" fill="#2F2E41"/>
<path d="M127.334 47.9055C127.736 47.8093 127.885 46.9855 127.665 46.0654C127.445 45.1453 126.941 44.4773 126.538 44.5735C126.135 44.6696 125.987 45.4935 126.207 46.4136C126.427 47.3337 126.931 48.0016 127.334 47.9055Z" fill="#FFB8B8"/>
<path d="M127.257 47.7383C127.494 47.7383 127.686 47.5465 127.686 47.3101C127.686 47.0736 127.494 46.8818 127.257 46.8818C127.021 46.8818 126.829 47.0736 126.829 47.3101C126.829 47.5465 127.021 47.7383 127.257 47.7383Z" fill="#F2F2F2"/>
<path d="M25.4598 83.9875C24.7726 83.9875 24.1007 83.7837 23.5293 83.4019C22.9578 83.02 22.5124 82.4773 22.2494 81.8423C21.9864 81.2074 21.9176 80.5087 22.0516 79.8346C22.1857 79.1605 22.5167 78.5413 23.0027 78.0553C23.4887 77.5694 24.1078 77.2384 24.7819 77.1043C25.456 76.9702 26.1547 77.039 26.7897 77.3021C27.4246 77.5651 27.9674 78.0105 28.3492 78.5819C28.731 79.1534 28.9348 79.8252 28.9348 80.5125C28.9338 81.4338 28.5674 82.3171 27.9159 82.9686C27.2644 83.62 26.3812 83.9865 25.4598 83.9875V83.9875ZM25.4598 77.6167C24.8871 77.6167 24.3272 77.7865 23.851 78.1047C23.3748 78.4229 23.0036 78.8752 22.7845 79.4043C22.5653 79.9335 22.5079 80.5157 22.6197 81.0775C22.7314 81.6392 23.0072 82.1552 23.4122 82.5602C23.8172 82.9652 24.3332 83.241 24.8949 83.3527C25.4566 83.4644 26.0389 83.4071 26.568 83.1879C27.0972 82.9687 27.5494 82.5976 27.8676 82.1213C28.1858 81.6451 28.3557 81.0853 28.3557 80.5125C28.3548 79.7448 28.0494 79.0087 27.5065 78.4658C26.9637 77.923 26.2276 77.6176 25.4598 77.6167V77.6167Z" fill="#3F3D56"/>
<path d="M175.897 58.6491H168.368V51.12H175.897V58.6491ZM168.947 58.07H175.318V51.6992H168.947V58.07Z" fill="#3F3D56"/>
<path d="M240.779 99.1224C227.379 99.1841 216.471 99.3821 216.471 99.3821C216.471 99.3821 229.436 82.2078 240.731 88.5708C252.025 94.9337 265 99.1585 265 99.1585C265 99.1585 254.18 99.0606 240.779 99.1224Z" fill="#F2F2F2"/>
<path d="M199.659 41.206C186.258 41.2678 175.35 41.4657 175.35 41.4657C175.35 41.4657 188.316 24.2914 199.61 30.6544C210.905 37.0173 223.879 41.2421 223.879 41.2421C223.879 41.2421 213.06 41.1442 199.659 41.206Z" fill="#F2F2F2"/>
<path d="M72.6349 48.6204L41.6477 32.6864C40.6315 32.1639 39.8646 31.2591 39.5155 30.1711C39.1665 29.0831 39.2639 27.901 39.7864 26.8848L47.0866 12.688C47.1926 12.4819 47.3395 12.2995 47.5183 12.1519C47.6972 12.0044 47.9042 11.8949 48.1267 11.83L72.5505 4.70849C73.527 4.42376 74.5756 4.52433 75.4801 4.98948C76.3847 5.45462 77.0765 6.24894 77.413 7.20884L85.4377 30.0995C85.6381 30.6714 85.72 31.278 85.6783 31.8826C85.6366 32.4871 85.4722 33.0767 85.1951 33.6156L78.4365 46.7591C78.1778 47.2623 77.8225 47.7096 77.3909 48.0754C76.9593 48.4413 76.4599 48.7185 75.9212 48.8913C75.3825 49.0642 74.815 49.1292 74.2511 49.0827C73.6872 49.0362 73.138 48.8791 72.6349 48.6204V48.6204Z" fill="#F2F2F2"/>
<path opacity="0.1" d="M73.8659 42.9939L42.578 29.6364C41.5699 29.118 42.5152 29.9149 43.0336 28.9067L46.9667 12.9211L85.2947 32.6299L75.6049 44.611C75.0865 45.6192 74.8741 43.5123 73.8659 42.9939Z" fill="black"/>
<path d="M57.188 5.41816L44.6988 29.7063C44.1001 30.8706 44.5586 32.2998 45.7229 32.8985L70.011 45.3878C71.1753 45.9864 72.6045 45.5279 73.2032 44.3636L85.6925 20.0755C86.2912 18.9112 85.8327 17.482 84.6684 16.8833L60.3802 4.39405C59.2159 3.79536 57.7867 4.25387 57.188 5.41816Z" fill="#536DFE"/>
<path opacity="0.1" d="M80.175 30.8064L72.1197 46.4719L43.6152 31.8144L51.6705 16.1492L62.3807 30.3665L80.175 30.8064Z" fill="black"/>
<path d="M61.925 31.2521L48.202 13.0352C48.1172 12.9225 48.0051 12.8333 47.8762 12.7758C47.7474 12.7182 47.6061 12.6944 47.4656 12.7064C47.325 12.7184 47.1898 12.7659 47.0726 12.8445C46.9555 12.923 46.8601 13.0301 46.7956 13.1555L38.9867 28.3418C38.8305 28.6456 38.7356 28.9772 38.7075 29.3177C38.6795 29.6582 38.7187 30.0008 38.8231 30.3261C38.9275 30.6514 39.0949 30.953 39.3158 31.2136C39.5367 31.4742 39.8068 31.6887 40.1106 31.845L74.1335 49.34C74.4374 49.4962 74.769 49.5911 75.1094 49.6191C75.4499 49.6472 75.7926 49.608 76.1179 49.5036C76.4432 49.3992 76.7448 49.2318 77.0054 49.0109C77.266 48.79 77.4805 48.5199 77.6367 48.2161L85.3119 33.29C85.3907 33.1369 85.4292 32.9664 85.424 32.7943C85.4188 32.6222 85.37 32.4543 85.2821 32.3063C85.1943 32.1582 85.0703 32.0349 84.9217 31.9479C84.7732 31.8609 84.605 31.813 84.4329 31.8087L61.925 31.2521Z" fill="#F2F2F2"/>
<path d="M67.3539 11.2889L59.3823 7.18982L58.8027 8.31711L66.7742 12.4162L67.3539 11.2889Z" fill="#F2F2F2"/>
<path d="M80.3001 23.1382L56.627 10.9651L56.2957 11.6093L79.9689 23.7824L80.3001 23.1382Z" fill="#F2F2F2"/>
<path d="M79.182 25.3123L55.5088 13.1392L55.1776 13.7834L78.8507 25.9564L79.182 25.3123Z" fill="#F2F2F2"/>
<path d="M78.0638 27.4863L54.3906 15.3133L54.0594 15.9575L77.7326 28.1305L78.0638 27.4863Z" fill="#F2F2F2"/>
<path d="M62.5104 6.05689C63.4497 4.23029 62.7331 1.98949 60.9098 1.05193C59.0865 0.114374 56.847 0.835088 55.9077 2.66169C54.9685 4.4883 55.6851 6.7291 57.5084 7.66665C59.3317 8.60421 61.5712 7.8835 62.5104 6.05689Z" fill="white"/>
<path d="M61.1993 0.488262C60.419 0.0869966 59.5371 -0.0738577 58.6654 0.0260421C57.7936 0.125942 56.971 0.482111 56.3017 1.0495C55.6323 1.6169 55.1463 2.37003 54.905 3.21367C54.6636 4.05731 54.6779 4.95356 54.946 5.78909C55.214 6.62462 55.7238 7.3619 56.4109 7.9077C57.098 8.45349 57.9314 8.78329 58.806 8.85538C59.6805 8.92748 60.5567 8.73863 61.3239 8.31272C62.0911 7.88682 62.7147 7.24298 63.116 6.46263C63.6505 5.41558 63.749 4.19954 63.3899 3.08013C63.0307 1.96072 62.2432 1.02892 61.1993 0.488262V0.488262ZM57.2788 6.12094L56.2965 3.05908L57.1553 2.78355L57.863 4.98948L62.519 3.49575L62.7945 4.35457L57.2788 6.12094V6.12094Z" fill="#57B894"/>
</g>
<defs>
<clipPath id="clip0">
<rect width="265" height="173.903" fill="white"/>
</clipPath>
</defs>
</svg>
