<svg width="906" height="511" viewBox="0 0 906 511" fill="none" xmlns="http://www.w3.org/2000/svg">
<g clip-path="url(#clip0)">
<path d="M834.779 509.5C848.034 509.5 858.779 507.709 858.779 505.5C858.779 503.291 848.034 501.5 834.779 501.5C821.524 501.5 810.779 503.291 810.779 505.5C810.779 507.709 821.524 509.5 834.779 509.5Z" fill="#F2F2F2"/>
<path d="M862.779 123.5H860.779V165.5H862.779V123.5Z" fill="#F2F2F2"/>
<path d="M840.779 96.5H828.779V510.5H840.779V96.5Z" fill="#F2F2F2"/>
<path d="M889.717 129H779.842C778.637 129 777.445 128.744 776.346 128.248C775.248 127.753 774.267 127.029 773.469 126.125C772.672 125.222 772.075 124.159 771.72 123.007C771.364 121.856 771.258 120.642 771.407 119.446L785.407 7.4458C785.667 5.39121 786.667 3.50175 788.219 2.13118C789.772 0.760613 791.771 0.00292961 793.842 0H875.717C877.788 0.00292932 879.787 0.760613 881.34 2.13118C882.892 3.50175 883.892 5.39121 884.152 7.4458L898.152 119.446C898.301 120.642 898.195 121.856 897.839 123.007C897.484 124.159 896.887 125.222 896.09 126.125C895.292 127.029 894.311 127.753 893.213 128.248C892.114 128.744 890.923 129 889.717 129V129Z" fill="#F2F2F2"/>
<path d="M861.779 172.5C865.645 172.5 868.779 169.366 868.779 165.5C868.779 161.634 865.645 158.5 861.779 158.5C857.913 158.5 854.779 161.634 854.779 165.5C854.779 169.366 857.913 172.5 861.779 172.5Z" fill="#F2F2F2"/>
<path d="M125.56 399.364C120.508 416.891 105.757 429.159 90.369 439.581C88.2205 441.037 86.0713 442.459 83.9214 443.847C83.9068 443.854 83.8918 443.867 83.8771 443.874C83.7736 443.94 83.67 444.007 83.5736 444.074C83.1299 444.36 82.686 444.646 82.246 444.929L82.4877 445.037C82.4877 445.037 82.7251 445.164 82.4654 445.058C82.3881 445.025 82.3071 444.996 82.23 444.964C73.2907 441.358 64.1927 437.487 57.342 430.733C50.2355 423.72 46.0825 412.719 49.9306 403.505C50.4364 402.298 51.0753 401.152 51.8354 400.086C52.1476 399.64 52.4837 399.212 52.8337 398.793C54.9564 396.202 57.7307 394.224 60.8715 393.061C64.0123 391.898 67.4062 391.592 70.7041 392.176C74.0021 392.759 77.0851 394.211 79.6362 396.381C82.1873 398.551 84.1144 401.361 85.2193 404.522C86.3498 393.997 77.6705 385.18 69.318 378.674C60.9617 372.172 51.4667 365.091 49.8513 354.624C48.9491 348.8 50.9743 343.156 54.6635 338.625C54.7777 338.487 54.8918 338.35 55.0094 338.216C59.5002 332.939 65.8165 329.551 72.6966 328.727C85.5098 327.396 97.9558 334.178 107.264 343.087C122.246 357.42 131.304 379.437 125.56 399.364Z" fill="#F2F2F2"/>
<path d="M101.476 376.44C103.935 380.266 105.823 384.43 107.08 388.801C108.143 392.707 108.617 396.751 108.484 400.798C108.141 409.124 105.804 417.247 101.668 424.482C98.5527 429.971 94.7561 435.044 90.3686 439.581C88.22 441.037 86.0708 442.459 83.9209 443.847C83.9064 443.854 83.8914 443.867 83.8766 443.874C83.7732 443.94 83.6695 444.007 83.5732 444.074C83.1294 444.36 82.6856 444.646 82.2455 444.929C82.2455 444.929 82.7246 445.164 82.4649 445.058C82.3876 445.025 82.3067 444.996 82.2296 444.964C83.0307 438.395 82.2459 431.73 79.9407 425.527C77.6355 419.324 73.8771 413.764 68.9805 409.313C64.0722 404.929 58.1973 401.768 51.835 400.086C52.1471 399.64 52.4833 399.212 52.8333 398.793C55.2905 399.482 57.6821 400.387 59.9799 401.497C68.194 405.442 74.9198 411.926 79.1618 419.991C82.9683 427.313 84.6066 435.57 83.8843 443.792C84.2516 443.459 84.6193 443.119 84.976 442.782C91.7689 436.449 97.8023 429.18 101.886 420.79C105.428 413.686 107.169 405.819 106.955 397.883C106.622 389.23 103.174 381.214 98.1824 374.237C92.7113 366.792 86.2479 360.131 78.9719 354.438C71.6394 348.565 63.6157 343.612 55.0798 339.688C54.8872 339.598 54.7366 339.437 54.6591 339.24C54.5815 339.042 54.583 338.822 54.6631 338.625C54.72 338.448 54.8443 338.302 55.009 338.216C55.0937 338.18 55.1856 338.163 55.2778 338.167C55.37 338.17 55.4601 338.195 55.5414 338.239C56.5953 338.724 57.6419 339.216 58.6801 339.729C67.3273 344.003 75.41 349.334 82.7426 355.601C89.8254 361.64 96.4934 368.539 101.476 376.44Z" fill="white"/>
<path d="M52.6252 443.5H107.989C108.596 443.5 109.197 443.629 109.75 443.879C110.304 444.129 110.798 444.493 111.2 444.948C111.602 445.404 111.902 445.939 112.081 446.52C112.26 447.1 112.314 447.712 112.239 448.314L105.184 504.748C105.054 505.783 104.55 506.736 103.768 507.426C102.985 508.117 101.978 508.499 100.935 508.5H59.6795C58.636 508.499 57.6288 508.117 56.8465 507.426C56.0643 506.736 55.5605 505.783 55.4297 504.748L48.3754 448.314C48.3 447.712 48.3537 447.1 48.5328 446.52C48.712 445.939 49.0125 445.404 49.4144 444.948C49.8163 444.493 50.3104 444.129 50.864 443.879C51.4176 443.629 52.0179 443.5 52.6252 443.5V443.5Z" fill="#F2F2F2"/>
<path d="M233.138 508.934C236.965 508.934 240.067 505.832 240.067 502.005C240.067 498.178 236.965 495.076 233.138 495.076C229.312 495.076 226.209 498.178 226.209 502.005C226.209 505.832 229.312 508.934 233.138 508.934Z" fill="#CCCCCC"/>
<path d="M670.802 508.934C674.628 508.934 677.73 505.832 677.73 502.005C677.73 498.178 674.628 495.076 670.802 495.076C666.975 495.076 663.873 498.178 663.873 502.005C663.873 505.832 666.975 508.934 670.802 508.934Z" fill="#CCCCCC"/>
<path d="M360.164 405.58H251.615C246.563 405.575 241.72 403.565 238.148 399.993C234.576 396.421 232.566 391.578 232.561 386.526V312.62C232.566 307.568 234.576 302.725 238.148 299.153C241.72 295.581 246.563 293.572 251.615 293.566H360.164C365.216 293.572 370.059 295.581 373.631 299.153C377.203 302.725 379.213 307.568 379.218 312.62V386.526C379.213 391.578 377.203 396.421 373.631 399.993C370.059 403.565 365.216 405.575 360.164 405.58V405.58Z" fill="#E6E6E6"/>
<path d="M506.245 406.158H397.695C392.643 406.152 387.8 404.143 384.228 400.571C380.656 396.999 378.647 392.156 378.641 387.104V313.198C378.647 308.146 380.656 303.303 384.228 299.731C387.8 296.159 392.643 294.149 397.695 294.144H506.245C511.297 294.149 516.14 296.159 519.712 299.731C523.284 303.303 525.293 308.146 525.299 313.198V387.104C525.293 392.156 523.284 396.999 519.712 400.571C516.14 404.143 511.297 406.152 506.245 406.158V406.158Z" fill="#E6E6E6"/>
<path d="M652.326 406.735H543.776C538.724 406.73 533.881 404.72 530.309 401.148C526.737 397.576 524.727 392.733 524.722 387.681V313.775C524.727 308.723 526.737 303.88 530.309 300.308C533.881 296.736 538.724 294.727 543.776 294.721H652.326C657.377 294.727 662.22 296.736 665.793 300.308C669.365 303.88 671.374 308.723 671.38 313.775V387.681C671.374 392.733 669.365 397.576 665.792 401.148C662.22 404.72 657.377 406.73 652.326 406.735V406.735Z" fill="#E6E6E6"/>
<path d="M693.898 401.539H215.816V501.428H693.898V401.539Z" fill="#E6E6E6"/>
<path d="M233.138 502.005H212.352C201.845 502.005 193.298 492.3 193.298 480.371V376.133H233.138V502.005Z" fill="#E6E6E6"/>
<path d="M691.588 502.005H670.802V359.966H710.642V477.592C710.642 491.054 702.094 502.005 691.588 502.005Z" fill="#E6E6E6"/>
<path d="M379.796 422.325H233.138V391.146C282.024 363.103 330.91 363.103 379.796 391.146V422.325Z" fill="#CCCCCC"/>
<path d="M525.876 422.902H379.218V391.723C428.104 363.681 476.99 363.681 525.876 391.723V422.902Z" fill="#CCCCCC"/>
<path d="M671.957 423.48H525.299V392.3C574.185 364.258 623.071 364.258 671.957 392.3V423.48Z" fill="#CCCCCC"/>
<path d="M204.845 402.693C223.66 402.693 238.912 387.442 238.912 368.627C238.912 349.813 223.66 334.561 204.845 334.561C186.031 334.561 170.779 349.813 170.779 368.627C170.779 387.442 186.031 402.693 204.845 402.693Z" fill="#CCCCCC"/>
<path d="M703.713 401.539C722.527 401.539 737.779 386.287 737.779 367.473C737.779 348.658 722.527 333.406 703.713 333.406C684.899 333.406 669.647 348.658 669.647 367.473C669.647 386.287 684.899 401.539 703.713 401.539Z" fill="#CCCCCC"/>
<path d="M603.364 300.734C603.443 301.282 603.479 301.835 603.471 302.388L644.305 330.532L655.194 325.377L665.122 340.794L646.732 351.794C645.246 352.682 643.512 353.065 641.79 352.884C640.068 352.704 638.452 351.969 637.183 350.792L595.828 312.409C593.777 312.987 591.597 312.926 589.581 312.235C587.565 311.543 585.806 310.255 584.54 308.54C583.274 306.825 582.56 304.765 582.493 302.635C582.426 300.504 583.009 298.403 584.165 296.612C585.321 294.821 586.995 293.425 588.964 292.608C590.933 291.792 593.104 291.594 595.188 292.041C597.272 292.489 599.171 293.56 600.631 295.113C602.092 296.666 603.045 298.627 603.364 300.734V300.734Z" fill="#FFB8B8"/>
<path d="M645.092 328.11C645.271 327.489 645.583 326.914 646.005 326.424C646.427 325.934 646.95 325.541 647.538 325.272L668.071 315.864C670.844 314.059 674.219 313.427 677.457 314.107C680.695 314.786 683.531 316.722 685.344 319.49C687.156 322.257 687.798 325.631 687.127 328.871C686.457 332.11 684.529 334.952 681.767 336.773L664.792 351.782C664.308 352.21 663.737 352.529 663.118 352.717C662.499 352.905 661.847 352.957 661.206 352.87C660.565 352.783 659.951 352.559 659.405 352.213C658.858 351.867 658.393 351.408 658.04 350.866L645.642 331.817C645.289 331.275 645.057 330.663 644.962 330.024C644.867 329.384 644.911 328.731 645.092 328.11Z" fill="#FD1E00"/>
<path d="M602.849 302.569L602.644 302.583L602.084 294.838C601.905 292.363 600.303 290.461 598.507 290.591L586.6 291.452C584.804 291.582 581.498 293.839 581.677 296.315L581.822 298.31L584.752 338.805C584.931 341.281 588.527 343.038 590.324 342.908L602.23 342.047C604.026 341.917 605.337 339.805 605.158 337.329L603.043 308.097L603.248 308.082L602.849 302.569Z" fill="#3F3D56"/>
<path d="M601.393 294.92L604.463 337.348C604.597 339.197 603.618 340.774 602.277 340.871L590.313 341.737C588.972 341.834 587.776 340.414 587.642 338.565L584.572 296.137C584.438 294.288 585.417 292.71 586.759 292.613L588.21 292.508C588.11 292.886 588.131 293.285 588.272 293.65C588.413 294.014 588.666 294.324 588.994 294.536C589.132 294.602 589.285 294.632 589.437 294.622L596.258 294.128C596.896 294.082 597.361 293.331 597.297 292.452C597.282 292.25 597.239 292.05 597.168 291.86L598.722 291.748C600.064 291.651 601.26 293.071 601.393 294.92Z" fill="white"/>
<path d="M433.561 392.89L429.615 381.283L472.509 360.539L478.333 377.671L433.561 392.89Z" fill="#FFB8B8"/>
<path d="M423.316 399.676L410.593 362.249L411.066 362.088C412.979 361.437 415.002 361.17 417.018 361.301C419.034 361.433 421.005 361.96 422.818 362.852C424.63 363.745 426.249 364.986 427.582 366.505C428.915 368.023 429.936 369.79 430.586 371.703L430.587 371.704L438.357 394.563L423.316 399.676Z" fill="#2F2E41"/>
<path d="M603.803 401.174C594.603 401.691 585.43 399.77 577.21 395.607L526.771 361.294L467.876 383.102C466.313 383.634 464.606 383.553 463.1 382.875C461.594 382.197 460.402 380.973 459.763 379.45L456.877 372.507C456.219 370.945 456.2 369.188 456.824 367.612C457.449 366.037 458.667 364.769 460.216 364.083L516.483 338.814C523.239 335.792 530.816 335.136 537.991 336.954L616.103 356.859L636.75 381.38L636.521 381.696C626.385 395.68 614.362 400.41 603.803 401.174Z" fill="#2F2E41"/>
<path d="M667.597 298.713C681.162 298.713 692.158 287.717 692.158 274.152C692.158 260.588 681.162 249.591 667.597 249.591C654.032 249.591 643.036 260.588 643.036 274.152C643.036 287.717 654.032 298.713 667.597 298.713Z" fill="#FFB8B8"/>
<path d="M642.385 392.312L602.855 362.895L629.814 343.735C629.043 341.254 625.622 327.066 644.33 317.394C650.252 314.333 654.518 311.698 657.011 309.563C660.548 306.512 665.078 304.859 669.749 304.916C672.693 304.963 675.586 305.695 678.198 307.053C680.811 308.411 683.072 310.358 684.802 312.741C686.532 315.124 687.683 317.876 688.165 320.781C688.648 323.686 688.447 326.663 687.58 329.477C683.679 342.157 677.465 358.959 670.015 366.995C661.587 376.074 652.448 384.465 642.684 392.088L642.385 392.312Z" fill="#FD1E00"/>
<path d="M439.829 403.176L435.883 391.568L478.777 370.825L484.601 387.956L439.829 403.176Z" fill="#FFB8B8"/>
<path d="M429.584 409.961L416.861 372.534L417.334 372.373C419.247 371.723 421.27 371.456 423.286 371.587C425.302 371.718 427.273 372.245 429.086 373.138C430.898 374.031 432.517 375.272 433.85 376.79C435.183 378.309 436.204 380.075 436.854 381.988L436.855 381.989L444.625 404.848L429.584 409.961Z" fill="#2F2E41"/>
<path d="M610.071 411.46C600.871 411.976 591.698 410.056 583.478 405.892L533.039 371.579L474.144 393.388C472.581 393.92 470.874 393.838 469.368 393.16C467.863 392.483 466.67 391.259 466.032 389.736L463.145 382.793C462.487 381.231 462.468 379.473 463.092 377.898C463.717 376.322 464.935 375.055 466.484 374.368L522.751 349.1C529.507 346.077 537.084 345.422 544.259 347.24L622.371 367.145L643.018 391.665L642.789 391.981C632.653 405.966 620.63 410.696 610.071 411.46Z" fill="#2F2E41"/>
<path d="M598.734 330.197C599.04 330.658 599.309 331.143 599.539 331.646L648.49 339.597L656.124 330.276L671.697 339.958L659.786 357.772C658.824 359.211 657.421 360.299 655.788 360.873C654.155 361.447 652.379 361.476 650.728 360.955L596.923 343.974C595.315 345.375 593.32 346.253 591.202 346.491C589.084 346.73 586.943 346.318 585.064 345.31C583.186 344.303 581.659 342.747 580.686 340.85C579.713 338.954 579.341 336.806 579.619 334.692C579.897 332.579 580.811 330.6 582.241 329.019C583.671 327.438 585.548 326.33 587.623 325.842C589.699 325.354 591.873 325.509 593.858 326.287C595.842 327.065 597.543 328.429 598.734 330.197V330.197Z" fill="#FFB8B8"/>
<path d="M648.165 337.071C648.061 336.433 648.096 335.78 648.268 335.156C648.44 334.533 648.744 333.954 649.16 333.459L663.688 316.166C665.421 313.347 668.2 311.331 671.417 310.559C674.635 309.787 678.027 310.322 680.85 312.047C683.673 313.772 685.697 316.546 686.478 319.761C687.259 322.976 686.734 326.369 685.017 329.197L676.103 350.029C675.849 350.623 675.469 351.156 674.99 351.591C674.511 352.025 673.944 352.352 673.328 352.547C672.712 352.743 672.06 352.804 671.419 352.725C670.777 352.646 670.159 352.43 669.609 352.092L650.249 340.185C649.698 339.847 649.227 339.393 648.867 338.856C648.507 338.318 648.268 337.71 648.165 337.071V337.071Z" fill="#FD1E00"/>
<path d="M661.031 301.202C668.168 292.02 672.125 280.766 672.307 269.138C668.947 271.634 665.145 273.471 661.101 274.55C656.809 275.693 652.091 275.923 648.049 274.082C642.361 271.491 638.996 264.882 639.642 258.665C640.287 252.447 644.584 246.893 650.179 244.105C655.906 241.427 662.438 241.031 668.446 242.999C671.625 240.292 675.516 238.559 679.655 238.006C683.793 237.454 688.003 238.106 691.78 239.885C700.474 244.152 705.282 254.033 706.116 263.681C706.95 273.33 704.471 282.923 702.013 292.29L701.736 293.349C700.97 296.265 698.746 301.86 698.746 301.86C698.746 301.86 685.83 299.311 680.699 297.678C673.262 300.366 661.031 301.202 661.031 301.202Z" fill="#2F2E41"/>
<path d="M599.463 303.556L588.939 304.317C588.674 304.336 588.413 304.25 588.213 304.076C588.012 303.903 587.888 303.656 587.869 303.392C587.85 303.127 587.937 302.866 588.11 302.666C588.284 302.465 588.53 302.341 588.795 302.322L599.318 301.561C599.449 301.551 599.581 301.567 599.706 301.609C599.831 301.65 599.947 301.715 600.046 301.801C600.146 301.887 600.227 301.992 600.286 302.109C600.345 302.227 600.381 302.355 600.39 302.486C600.399 302.617 600.383 302.749 600.342 302.874C600.3 302.998 600.234 303.114 600.148 303.213C600.062 303.313 599.957 303.394 599.84 303.453C599.722 303.511 599.594 303.546 599.463 303.556Z" fill="#3F3D56"/>
<path d="M599.824 308.543L589.3 309.304C589.169 309.314 589.037 309.298 588.912 309.256C588.787 309.215 588.672 309.15 588.572 309.064C588.473 308.978 588.391 308.873 588.332 308.756C588.273 308.638 588.238 308.51 588.228 308.379C588.219 308.248 588.235 308.116 588.277 307.991C588.318 307.867 588.384 307.751 588.47 307.652C588.556 307.552 588.661 307.471 588.779 307.412C588.896 307.354 589.024 307.319 589.156 307.309L599.679 306.548C599.944 306.529 600.205 306.615 600.406 306.789C600.606 306.962 600.73 307.209 600.749 307.473C600.768 307.738 600.681 307.999 600.508 308.199C600.334 308.4 600.088 308.524 599.824 308.543V308.543Z" fill="#3F3D56"/>
<path d="M600.185 313.53L589.661 314.291C589.397 314.31 589.136 314.223 588.936 314.049C588.736 313.876 588.613 313.63 588.593 313.366C588.574 313.102 588.661 312.841 588.834 312.64C589.007 312.44 589.252 312.316 589.516 312.296L600.04 311.535C600.305 311.516 600.566 311.602 600.767 311.776C600.967 311.949 601.091 312.196 601.11 312.46C601.129 312.725 601.042 312.986 600.869 313.186C600.695 313.387 600.449 313.51 600.185 313.53V313.53Z" fill="#3F3D56"/>
<path d="M905 510.5H1C0.734784 510.5 0.480429 510.395 0.292892 510.207C0.105356 510.02 0 509.765 0 509.5C0 509.235 0.105356 508.98 0.292892 508.793C0.480429 508.605 0.734784 508.5 1 508.5H905C905.265 508.5 905.52 508.605 905.707 508.793C905.895 508.98 906 509.235 906 509.5C906 509.765 905.895 510.02 905.707 510.207C905.52 510.395 905.265 510.5 905 510.5Z" fill="#3F3D56"/>
<path d="M480.779 177.5H379.779C377.393 177.497 375.106 176.548 373.418 174.861C371.731 173.174 370.782 170.886 370.779 168.5V81.5C370.782 79.1139 371.731 76.8263 373.418 75.139C375.106 73.4518 377.393 72.5027 379.779 72.5H480.779C483.165 72.5027 485.453 73.4518 487.14 75.1391C488.827 76.8263 489.777 79.1139 489.779 81.5V168.5C489.777 170.886 488.827 173.174 487.14 174.861C485.453 176.548 483.165 177.497 480.779 177.5V177.5ZM379.779 74.5C377.923 74.5021 376.144 75.2402 374.832 76.5526C373.52 77.8649 372.781 79.6441 372.779 81.5V168.5C372.781 170.356 373.52 172.135 374.832 173.447C376.144 174.76 377.923 175.498 379.779 175.5H480.779C482.635 175.498 484.414 174.76 485.727 173.447C487.039 172.135 487.777 170.356 487.779 168.5V81.5C487.777 79.6441 487.039 77.8649 485.727 76.5526C484.414 75.2402 482.635 74.5021 480.779 74.5H379.779Z" fill="#F2F2F2"/>
<path d="M466.012 164H394.546C392.293 163.997 390.132 163.101 388.539 161.508C386.945 159.914 386.049 157.754 386.046 155.5V94.5C386.049 92.2464 386.945 90.0859 388.539 88.4924C390.132 86.8989 392.293 86.0025 394.546 86H466.012C468.266 86.0025 470.427 86.8989 472.02 88.4924C473.614 90.0859 474.51 92.2464 474.512 94.5V155.5C474.51 157.754 473.614 159.914 472.02 161.508C470.427 163.101 468.266 163.997 466.012 164V164Z" fill="#E6E6E6"/>
<path d="M430.779 59.5C433.541 59.5 435.779 57.2614 435.779 54.5C435.779 51.7386 433.541 49.5 430.779 49.5C428.018 49.5 425.779 51.7386 425.779 54.5C425.779 57.2614 428.018 59.5 430.779 59.5Z" fill="#F2F2F2"/>
<path d="M441.292 74.014L430.782 56.451L420.332 74.011L418.613 72.989L430.777 52.549L443.008 72.986L441.292 74.014Z" fill="#F2F2F2"/>
<path d="M442.279 118C442.277 116.487 442.11 114.978 441.784 113.5H426.779C425.718 113.5 424.701 113.921 423.951 114.672C423.201 115.422 422.779 116.439 422.779 117.5V138.924C428.073 138.549 433.028 136.181 436.646 132.299C440.264 128.416 442.277 123.307 442.279 118V118Z" fill="#FD1E00"/>
<path d="M421.279 140C417.13 140.001 413.065 138.829 409.553 136.619C406.041 134.409 403.226 131.251 401.433 127.509C399.639 123.767 398.94 119.594 399.417 115.472C399.894 111.35 401.527 107.447 404.127 104.213C406.727 100.98 410.189 98.5475 414.113 97.1973C418.036 95.8471 422.262 95.634 426.301 96.5827C430.341 97.5314 434.03 99.6032 436.942 102.559C439.855 105.515 441.872 109.234 442.761 113.287L443.026 114.5H426.779C425.984 114.501 425.221 114.817 424.659 115.38C424.097 115.942 423.78 116.705 423.779 117.5V139.856L422.676 139.934C422.213 139.968 421.751 140 421.279 140ZM421.279 98C415.975 98 410.888 100.107 407.137 103.858C403.386 107.609 401.279 112.696 401.279 118C401.279 123.304 403.386 128.391 407.137 132.142C410.888 135.893 415.975 138 421.279 138C421.447 138 421.614 137.995 421.779 137.987V117.5C421.781 116.174 422.308 114.904 423.245 113.966C424.183 113.029 425.454 112.502 426.779 112.5H440.501C439.29 108.333 436.763 104.67 433.299 102.057C429.835 99.4433 425.619 98.0203 421.279 98Z" fill="white"/>
<path d="M450.779 146.5H426.779C425.454 146.498 424.183 145.971 423.245 145.034C422.308 144.096 421.781 142.826 421.779 141.5V137.993L422.709 137.927C425.572 137.729 428.358 136.916 430.878 135.543C433.398 134.17 435.592 132.269 437.31 129.97C439.028 127.672 440.23 125.03 440.833 122.224C441.437 119.418 441.428 116.516 440.807 113.714L440.541 112.5H450.779C452.105 112.502 453.376 113.029 454.313 113.966C455.25 114.904 455.778 116.174 455.779 117.5V141.5C455.778 142.826 455.25 144.096 454.313 145.034C453.376 145.971 452.105 146.498 450.779 146.5V146.5ZM423.779 139.836V141.5C423.78 142.295 424.097 143.058 424.659 143.62C425.221 144.183 425.984 144.499 426.779 144.5H450.779C451.575 144.499 452.337 144.183 452.9 143.62C453.462 143.058 453.778 142.295 453.779 141.5V117.5C453.778 116.705 453.462 115.942 452.9 115.38C452.337 114.817 451.575 114.501 450.779 114.5H442.992C443.182 115.657 443.278 116.828 443.279 118C443.261 123.394 441.267 128.595 437.673 132.619C434.08 136.642 429.137 139.21 423.779 139.836Z" fill="white"/>
<path d="M544.919 285.058C546.312 284.088 546.655 282.172 545.685 280.779C544.715 279.386 542.799 279.044 541.406 280.014C540.013 280.984 539.67 282.9 540.64 284.293C541.611 285.686 543.526 286.028 544.919 285.058Z" fill="#FD1E00"/>
<path d="M547.816 276.798C547.705 276.875 547.629 276.994 547.605 277.128C547.581 277.261 547.611 277.399 547.689 277.511C547.766 277.622 547.885 277.698 548.019 277.722C548.153 277.746 548.29 277.716 548.402 277.638L568.219 263.836C568.33 263.758 568.406 263.639 568.429 263.506C568.453 263.372 568.423 263.235 568.345 263.124C568.268 263.012 568.149 262.936 568.016 262.912C567.882 262.888 567.745 262.918 567.633 262.995L547.816 276.798Z" fill="#E6E6E6"/>
<path d="M549.573 279.32C549.518 279.358 549.47 279.407 549.434 279.463C549.398 279.52 549.373 279.583 549.36 279.649C549.348 279.716 549.35 279.784 549.364 279.849C549.378 279.915 549.405 279.978 549.444 280.033C549.482 280.088 549.531 280.135 549.587 280.172C549.644 280.208 549.707 280.233 549.774 280.245C549.84 280.257 549.908 280.256 549.974 280.242C550.039 280.227 550.102 280.2 550.157 280.162L565.75 269.301C565.862 269.223 565.938 269.105 565.962 268.971C565.986 268.837 565.955 268.699 565.878 268.588C565.8 268.476 565.681 268.4 565.548 268.376C565.414 268.353 565.276 268.383 565.165 268.46L549.573 279.32Z" fill="#E6E6E6"/>
<path d="M576.974 268.056L541.397 292.836L533 280.779L568.577 256L576.974 268.056ZM541.612 291.632L575.771 267.841L568.362 257.203L534.203 280.995L541.612 291.632Z" fill="#E6E6E6"/>
<path d="M600.244 247.944C599.647 249.533 600.451 251.305 602.041 251.902C603.63 252.499 605.402 251.695 605.999 250.106C606.596 248.517 605.791 246.744 604.202 246.148C602.613 245.551 600.841 246.355 600.244 247.944Z" fill="#FD1E00"/>
<path d="M602.543 256.391C602.591 256.263 602.587 256.122 602.53 255.999C602.474 255.875 602.371 255.779 602.244 255.731C602.117 255.683 601.976 255.688 601.852 255.744C601.729 255.8 601.632 255.903 601.584 256.03L593.092 278.638C593.045 278.765 593.049 278.905 593.106 279.029C593.162 279.152 593.265 279.248 593.392 279.296C593.519 279.344 593.659 279.339 593.783 279.283C593.907 279.227 594.003 279.125 594.051 278.998L602.543 256.391Z" fill="#E6E6E6"/>
<path d="M599.666 255.31C599.69 255.247 599.701 255.18 599.699 255.112C599.697 255.045 599.682 254.979 599.654 254.918C599.626 254.856 599.587 254.801 599.538 254.755C599.489 254.709 599.431 254.673 599.368 254.649C599.305 254.625 599.238 254.614 599.171 254.616C599.104 254.618 599.037 254.633 598.976 254.661C598.915 254.689 598.859 254.728 598.813 254.778C598.767 254.827 598.731 254.884 598.708 254.947L592.025 272.736C591.977 272.864 591.982 273.005 592.038 273.128C592.094 273.252 592.197 273.348 592.325 273.396C592.452 273.444 592.593 273.439 592.716 273.383C592.84 273.327 592.936 273.224 592.984 273.097L599.666 255.31Z" fill="#E6E6E6"/>
<path d="M583.487 280.128L598.734 239.541L612.487 244.708L597.241 285.295L583.487 280.128ZM599.239 240.654L584.6 279.623L596.736 284.182L611.374 245.213L599.239 240.654Z" fill="#E6E6E6"/>
<path d="M561.838 227.993C562.833 229.368 564.754 229.677 566.13 228.683C567.505 227.688 567.814 225.767 566.82 224.391C565.825 223.015 563.904 222.707 562.528 223.701C561.153 224.696 560.844 226.617 561.838 227.993Z" fill="#FD1E00"/>
<path d="M570.148 230.744C570.069 230.634 569.949 230.56 569.814 230.538C569.68 230.517 569.543 230.549 569.433 230.629C569.323 230.708 569.249 230.829 569.227 230.963C569.206 231.097 569.238 231.234 569.318 231.344L583.467 250.915C583.547 251.025 583.667 251.098 583.801 251.12C583.935 251.141 584.072 251.108 584.182 251.029C584.292 250.949 584.366 250.83 584.387 250.696C584.409 250.562 584.377 250.425 584.297 250.315L570.148 230.744Z" fill="#E6E6E6"/>
<path d="M567.658 232.545C567.618 232.49 567.569 232.444 567.511 232.408C567.454 232.373 567.391 232.349 567.324 232.338C567.258 232.327 567.19 232.329 567.124 232.345C567.059 232.36 566.997 232.388 566.942 232.428C566.888 232.467 566.841 232.517 566.806 232.574C566.77 232.631 566.747 232.695 566.736 232.761C566.725 232.828 566.727 232.896 566.743 232.961C566.758 233.027 566.787 233.089 566.826 233.143L577.96 248.543C578.039 248.653 578.159 248.727 578.293 248.748C578.428 248.77 578.565 248.737 578.675 248.658C578.785 248.578 578.859 248.458 578.88 248.324C578.902 248.19 578.869 248.053 578.79 247.943L567.658 232.545Z" fill="#E6E6E6"/>
<path d="M579.402 259.744L554 224.608L565.906 216L591.308 251.135L579.402 259.744ZM555.207 224.802L579.596 258.537L590.102 250.941L565.712 217.207L555.207 224.802Z" fill="#E6E6E6"/>
</g>
<defs>
<clipPath id="clip0">
<rect width="906" height="510.5" fill="white"/>
</clipPath>
</defs>
</svg>
