<svg width="200" height="125" viewBox="0 0 265 190" fill="none" xmlns="http://www.w3.org/2000/svg">
<g clip-path="url(#clip0)">
<path opacity="0.1" d="M260.804 127.511C254.657 140.19 242.177 148.669 229.244 154.26C211.832 161.789 192.657 164.776 173.746 163.513C170.432 163.292 167.128 162.94 163.834 162.456C152.394 160.787 141.24 157.539 130.692 152.805C127.648 151.434 124.665 149.937 121.744 148.315C116.866 145.611 112.191 142.554 107.758 139.168C106.643 138.317 105.544 137.444 104.46 136.549C103.708 135.929 102.963 135.296 102.207 134.68C100.61 133.383 98.968 132.15 97.1359 131.227C96.5831 130.948 96.0164 130.698 95.4379 130.477C89.6363 128.27 82.9463 129.103 76.9064 130.824C72.3123 132.133 67.8338 133.926 63.2443 135.205C61.2029 135.792 59.1228 136.234 57.0193 136.529C52.3231 137.123 47.5541 136.704 43.0334 135.3L42.6471 135.18C41.9993 134.976 41.357 134.754 40.7201 134.511L40.3338 134.363C39.7169 134.126 39.1132 133.871 38.5225 133.598L38.1362 133.422C37.5193 133.135 36.9156 132.832 36.3249 132.513C36.1121 132.402 35.9016 132.281 35.6934 132.168C32.3329 130.291 29.2782 127.913 26.6347 125.115C26.5583 125.039 26.4866 124.96 26.4034 124.884C26.0355 124.486 25.6747 124.081 25.3254 123.667C25.1958 123.514 25.0663 123.361 24.9391 123.204C24.5242 122.698 24.124 122.181 23.7385 121.652C23.6806 121.576 23.6251 121.497 23.5696 121.421C21.99 119.235 20.6805 116.867 19.6695 114.368C19.6371 114.291 19.607 114.213 19.5792 114.136C19.2708 113.342 18.9894 112.535 18.7349 111.714C18.6308 111.372 18.5313 111.02 18.4434 110.678C18.4134 110.576 18.3856 110.472 18.3602 110.37C17.0832 105.343 16.9375 100.118 16.9375 94.9223C16.9375 94.3162 16.9375 93.7109 16.9375 93.1064C16.9745 84.7023 17.1041 76.1548 18.344 67.8664C18.344 67.8086 18.3602 67.7507 18.3694 67.6952C18.7844 64.9049 19.3489 62.1389 20.0604 59.4091C20.8051 56.5448 21.7568 53.7384 22.908 51.012C25.7603 44.3035 29.9079 38.1988 34.5136 32.5406C46.1146 18.3025 61.3289 6.34989 79.1364 1.87605C98.3249 -2.94247 119.651 1.6748 135.129 13.9975C139.848 17.7543 144.088 22.2027 149.388 25.0827C154.014 27.5902 159.43 28.6289 164.385 26.6557C168.479 25.0248 171.144 24.2152 175.743 24.4627C185.263 25.0013 194.649 26.9671 203.585 30.2944C203.946 30.4263 204.307 30.5628 204.665 30.6993C227.962 39.6122 247.988 57.3202 258.398 80.0758C258.674 80.6772 258.941 81.2833 259.201 81.894C265.407 96.3912 267.651 113.382 260.804 127.511Z" fill="#536DFE"/>
<path opacity="0.1" d="M27.8287 171.873C39.1071 171.873 48.2501 170.404 48.2501 168.593C48.2501 166.781 39.1071 165.312 27.8287 165.312C16.5502 165.312 7.40723 166.781 7.40723 168.593C7.40723 170.404 16.5502 171.873 27.8287 171.873Z" fill="#536DFE"/>
<path opacity="0.1" d="M211.029 189.666C231.027 189.666 247.239 188.092 247.239 186.15C247.239 184.208 231.027 182.634 211.029 182.634C191.031 182.634 174.82 184.208 174.82 186.15C174.82 188.092 191.031 189.666 211.029 189.666Z" fill="#536DFE"/>
<path d="M243.813 24.9254H29.7555C28.1598 24.9254 26.8662 26.2189 26.8662 27.8146V146.566C26.8662 148.161 28.1598 149.455 29.7555 149.455H243.813C245.409 149.455 246.702 148.161 246.702 146.566V27.8146C246.702 26.2189 245.409 24.9254 243.813 24.9254Z" fill="url(#paint0_linear)"/>
<path d="M243.488 26.6765H30.1041C28.5084 26.6765 27.2148 27.9701 27.2148 29.5658V146.152C27.2148 147.747 28.5084 149.041 30.1041 149.041H243.488C245.084 149.041 246.378 147.747 246.378 146.152V29.5658C246.378 27.9701 245.084 26.6765 243.488 26.6765Z" fill="white"/>
<path d="M243.488 26.6765H30.1041C28.5084 26.6765 27.2148 27.9701 27.2148 29.5658V146.152C27.2148 147.747 28.5084 149.041 30.1041 149.041H243.488C245.084 149.041 246.378 147.747 246.378 146.152V29.5658C246.378 27.9701 245.084 26.6765 243.488 26.6765Z" fill="white"/>
<path opacity="0.04" d="M243.488 26.6765H30.1041C28.5084 26.6765 27.2148 27.9701 27.2148 29.5658V146.152C27.2148 147.747 28.5084 149.041 30.1041 149.041H243.488C245.084 149.041 246.378 147.747 246.378 146.152V29.5658C246.378 27.9701 245.084 26.6765 243.488 26.6765Z" fill="white"/>
<path d="M245.265 25.2723H28.3275C28.0324 25.2723 27.7494 25.3896 27.5407 25.5982C27.3321 25.8069 27.2148 26.0899 27.2148 26.385V31.0879H246.368V26.385C246.368 26.0915 246.252 25.8099 246.046 25.6015C245.839 25.3931 245.558 25.2748 245.265 25.2723Z" fill="#5A5773"/>
<path d="M31.5915 29.6837C32.4219 29.6837 33.0951 29.0105 33.0951 28.1801C33.0951 27.3497 32.4219 26.6765 31.5915 26.6765C30.7611 26.6765 30.0879 27.3497 30.0879 28.1801C30.0879 29.0105 30.7611 29.6837 31.5915 29.6837Z" fill="white"/>
<path d="M35.6394 29.6837C36.4698 29.6837 37.143 29.0105 37.143 28.1801C37.143 27.3497 36.4698 26.6765 35.6394 26.6765C34.8089 26.6765 34.1357 27.3497 34.1357 28.1801C34.1357 29.0105 34.8089 29.6837 35.6394 29.6837Z" fill="white"/>
<path d="M39.6882 29.6837C40.5186 29.6837 41.1918 29.0105 41.1918 28.1801C41.1918 27.3497 40.5186 26.6765 39.6882 26.6765C38.8578 26.6765 38.1846 27.3497 38.1846 28.1801C38.1846 29.0105 38.8578 29.6837 39.6882 29.6837Z" fill="white"/>
<path opacity="0.2" d="M104.08 42.025H45.2656V47.017H104.08V42.025Z" fill="#536DFE"/>
<path opacity="0.1" d="M228.328 62.0416H45.2656V138.833H228.328V62.0416Z" fill="#5A5773"/>
<path opacity="0.1" d="M152.451 67.0498H149.316V60.9613C149.316 54.0909 143.839 48.3795 136.968 48.2754C135.311 48.258 133.668 48.5686 132.132 49.1894C130.596 49.8101 129.198 50.7288 128.018 51.8923C126.839 53.0558 125.901 54.4413 125.26 55.9688C124.618 57.4963 124.285 59.1357 124.28 60.7924V67.0498H121.152C119.77 67.0541 118.446 67.605 117.469 68.5824C116.491 69.5597 115.94 70.8841 115.936 72.2662V97.3003C115.94 98.6825 116.491 100.007 117.469 100.984C118.446 101.961 119.77 102.512 121.152 102.517H152.451C153.833 102.512 155.157 101.961 156.134 100.984C157.111 100.007 157.661 98.6823 157.665 97.3003V72.2662C157.661 70.8843 157.111 69.5599 156.134 68.5825C155.157 67.6051 153.833 67.0541 152.451 67.0498ZM138.629 83.3236V92.2898C138.632 92.7645 138.455 93.2227 138.132 93.5715C137.81 93.9202 137.368 94.1335 136.894 94.1682C136.647 94.1797 136.4 94.141 136.168 94.0544C135.936 93.9678 135.724 93.8351 135.545 93.6642C135.366 93.4934 135.224 93.288 135.126 93.0605C135.029 92.833 134.979 92.5881 134.979 92.3407V83.319C134.133 82.9063 133.451 82.2189 133.046 81.3691C132.64 80.5193 132.535 79.5572 132.747 78.6398C132.959 77.7224 133.475 76.9039 134.212 76.3178C134.949 75.7317 135.862 75.4126 136.804 75.4126C137.745 75.4126 138.659 75.7317 139.396 76.3178C140.133 76.9039 140.649 77.7224 140.861 78.6398C141.073 79.5572 140.967 80.5193 140.562 81.3691C140.157 82.2189 139.475 82.9063 138.629 83.319V83.3236ZM145.671 67.0498H127.93V60.7924C127.93 58.4408 128.864 56.1856 130.527 54.5227C132.19 52.8599 134.445 51.9257 136.797 51.9257C139.149 51.9257 141.404 52.8599 143.067 54.5227C144.73 56.1856 145.664 58.4408 145.664 60.7924L145.671 67.0498Z" fill="black"/>
<path d="M152.451 66.5872H149.316V60.4987C149.316 53.6283 143.839 47.9168 136.968 47.8128C135.311 47.7953 133.668 48.106 132.132 48.7267C130.596 49.3475 129.198 50.2661 128.018 51.4296C126.839 52.5932 125.901 53.9786 125.26 55.5061C124.618 57.0336 124.285 58.673 124.28 60.3298V66.5872H121.152C119.77 66.5914 118.446 67.1424 117.469 68.1197C116.491 69.0971 115.94 70.4214 115.936 71.8036V96.8376C115.94 98.2198 116.491 99.5441 117.469 100.521C118.446 101.499 119.77 102.05 121.152 102.054H152.451C153.833 102.05 155.157 101.499 156.134 100.521C157.111 99.5439 157.661 98.2196 157.665 96.8376V71.8036C157.661 70.4216 157.111 69.0973 156.134 68.1199C155.157 67.1425 153.833 66.5914 152.451 66.5872V66.5872ZM138.629 82.8609V91.8271C138.632 92.3019 138.455 92.76 138.132 93.1088C137.81 93.4576 137.368 93.6709 136.894 93.7055C136.647 93.7171 136.4 93.6784 136.168 93.5918C135.936 93.5051 135.724 93.3724 135.545 93.2016C135.366 93.0307 135.224 92.8254 135.126 92.5979C135.029 92.3704 134.979 92.1255 134.979 91.878V82.8563C134.133 82.4436 133.451 81.7563 133.046 80.9065C132.64 80.0567 132.535 79.0946 132.747 78.1772C132.959 77.2598 133.475 76.4412 134.212 75.8551C134.949 75.269 135.862 74.9499 136.804 74.9499C137.745 74.9499 138.659 75.269 139.396 75.8551C140.133 76.4412 140.649 77.2598 140.861 78.1772C141.073 79.0946 140.967 80.0567 140.562 80.9065C140.157 81.7563 139.475 82.4436 138.629 82.8563V82.8609ZM145.671 66.5872H127.93V60.3298C127.93 57.9782 128.864 55.7229 130.527 54.0601C132.19 52.3972 134.445 51.4631 136.797 51.4631C139.149 51.4631 141.404 52.3972 143.067 54.0601C144.73 55.7229 145.664 57.9782 145.664 60.3298L145.671 66.5872Z" fill="#536DFE"/>
<path opacity="0.1" d="M228.328 54.6508H209.799V59.0251H228.328V54.6508Z" fill="#5A5773"/>
<path d="M234.634 187.21C234.512 186.597 234.303 186.004 234.014 185.449L231.238 181.304H231.254C231.254 181.304 230.817 179.222 231.254 178.2C231.691 177.177 229.695 174.663 229.695 174.663C229.695 174.663 229.452 174.031 230.086 173.254C230.72 172.477 229.695 170.2 229.695 170.2C229.695 170.2 229.209 165.447 229.161 164.72C229.112 163.994 228.721 159.969 228.721 159.969L227.796 151.435L226.149 128.818L226.119 128.395C226.322 128.296 226.431 128.233 226.431 128.233L226.102 115.728L226.387 115.471C228.871 113.222 234.601 108.018 234.543 107.904C234.486 107.791 233.85 99.2133 233.775 97.0666C233.712 95.5411 233.378 94.0389 232.79 92.6298C232.647 92.3453 232.233 90.4692 232.061 89.6758C232.015 89.4583 231.985 89.3219 231.985 89.3219C231.985 89.3219 230.306 86.1203 230.451 84.6653C230.597 83.2102 230.889 82.1207 227.308 81.6118C227.308 81.6118 224.3 81.163 222.51 79.9393C221.451 79.2063 220.294 78.6268 219.072 78.2182C219.072 78.2182 218.068 76.3676 217.37 76.9945C217.074 76.3341 216.853 75.6428 216.711 74.9334L216.69 74.8038C218.016 73.8791 218.97 72.5132 219.382 70.9499C219.406 70.862 219.424 70.7718 219.445 70.6839C219.514 70.7074 219.587 70.7207 219.66 70.7232C220.268 70.7232 220.643 70.0455 221.212 69.8303C221.443 69.7401 221.728 69.7262 221.906 69.5435C221.965 69.473 222.009 69.3914 222.035 69.3035C222.061 69.2156 222.069 69.1234 222.059 69.0322C222.065 68.9692 222.065 68.9057 222.059 68.8426C222.06 68.8202 222.06 68.7978 222.059 68.7755V68.7986C221.904 67.9566 221.251 67.2094 221.323 66.3535C221.393 65.5485 222.1 64.8406 222.043 64.0564C222.042 63.9944 222.036 63.9326 222.026 63.8714V63.8991C221.94 63.593 221.782 63.3121 221.564 63.0802C221.315 62.741 220.988 62.4665 220.611 62.2798C220.289 62.1387 219.917 62.1064 219.616 61.9375C218.732 61.4563 218.735 60.2025 218.21 59.3466C217.985 58.9893 217.665 58.7011 217.287 58.5138C216.908 58.3264 216.486 58.2472 216.065 58.2848C215.408 58.3496 214.814 58.6989 214.164 58.8123C213.275 58.9696 212.371 58.6804 211.529 58.3496C210.687 58.0188 209.833 57.6556 208.929 57.6556C208.024 57.6556 207.046 58.1183 206.773 58.9719C206.627 59.4345 206.699 59.9319 206.588 60.4015C206.389 61.2296 205.662 61.8218 204.911 62.2336C204.448 62.4904 203.897 62.7841 203.754 63.2699C203.754 63.256 203.754 63.2445 203.754 63.2329C203.744 63.2717 203.736 63.3111 203.731 63.3509C203.726 63.4024 203.726 63.4543 203.731 63.5059C203.731 63.839 203.907 64.1559 204.025 64.4728C204.244 65.0757 204.24 65.7377 204.011 66.3373C203.84 66.7768 203.548 67.1631 203.382 67.6003C203.303 67.804 203.252 68.0171 203.229 68.2342V68.1972C203.223 68.2958 203.223 68.3946 203.229 68.4933C203.226 68.8311 203.305 69.1645 203.46 69.4648C203.566 69.6722 203.713 69.8562 203.891 70.006C204.07 70.1557 204.276 70.2683 204.499 70.3369C204.962 70.4433 205.251 69.9899 205.739 70.1056C205.826 70.1266 205.912 70.1537 205.996 70.1866C206.012 70.2907 206.028 70.3948 206.046 70.4965C206.342 72.0534 207.171 73.4583 208.392 74.4684C208.392 74.5239 208.411 74.5794 208.418 74.6373C208.565 75.5595 208.63 76.4933 208.61 77.4271C208.61 77.4271 207.881 76.3607 206.882 78.4195C206.882 78.4195 204.274 79.9231 203.375 80.0943C202.475 80.2654 199.28 81.3781 199.28 81.3781C198.798 81.7266 198.219 81.9136 197.624 81.9125C196.627 81.9125 195.799 84.0939 195.919 85.2806C196.039 86.4673 195.847 87.3417 194.92 87.3903C193.992 87.4389 194.499 89.3195 194.506 89.3519L194.42 89.7567C194.24 90.5849 193.846 92.3615 193.708 92.6391C193.119 94.0482 192.785 95.5503 192.72 97.0759C192.648 99.2226 192.026 107.768 191.954 107.914C191.905 108.008 195.831 111.596 198.591 114.104L198.991 114.465L197.721 126.327C197.758 126.784 197.894 127.228 198.119 127.627C198.344 128.026 198.654 128.372 199.026 128.64C199.026 128.779 199.026 128.92 199.012 129.066C198.956 130.454 198.845 132.133 198.623 132.573C198.235 133.35 198.332 137.519 198.332 137.519C198.332 137.519 197.941 146.004 197.455 146.927C196.969 147.85 196.87 149.786 197.015 150.165C197.161 150.545 196.527 160.734 196.527 160.734L196.042 165.294C196.042 165.294 196.187 169.657 195.748 169.754C195.308 169.851 195.065 172.858 195.065 172.858C195.065 172.858 193.509 174.991 194.189 175.766C194.869 176.541 194.089 176.883 194.017 177.075C193.946 177.267 192.532 178.001 193.555 180.712C193.564 180.739 193.575 180.765 193.587 180.79C192.63 182.121 189.595 186.412 189.78 187.064C189.916 187.479 190.206 187.826 190.589 188.036C191.304 188.464 192.53 188.662 194.48 188.036C197.719 186.992 197.487 186.24 197.487 186.24C197.504 185.889 197.655 185.557 197.909 185.314C198.163 185.07 198.5 184.933 198.852 184.931C200.192 184.834 201.191 183.599 201.191 183.599L201.034 183.013L200.818 182.204C200.844 181.973 201.008 181.568 201.744 181.343C202.866 181.003 202.572 178.87 202.572 178.87C202.572 178.87 202.475 176.64 202.961 176.349C203.446 176.058 203.254 172.372 203.254 172.372C203.254 172.372 203.791 169.705 204.568 167.91C205.346 166.115 206.275 155.451 206.275 155.451C206.275 155.451 206.907 150.214 207.492 148.71C208.077 147.207 208.614 142.989 208.614 142.989C208.614 142.989 212.221 136.006 212.267 134.454C212.267 134.454 212.729 132.999 213.192 134.599C213.655 136.2 214.955 140.031 214.955 140.031L216.22 144.734L217.731 151.764L218.707 157.681C218.707 157.681 218.559 159.911 218.938 160.688C219.318 161.465 219.864 163.256 219.572 163.596C219.281 163.936 220.155 165.537 220.4 165.875C220.645 166.212 220.4 173.39 220.4 173.39C220.4 173.39 221.52 179.5 223.128 180.561C223.24 180.635 223.359 180.697 223.484 180.746C223.461 181.408 223.438 182.294 223.468 182.757C223.464 182.86 223.481 182.963 223.518 183.06C223.664 183.254 225.321 184.563 225.663 184.563C226.005 184.563 227.22 185.412 227.271 185.824C227.321 186.236 230.831 187.98 231.328 188.031C231.825 188.082 234.236 188.514 234.567 187.837C234.648 187.638 234.672 187.421 234.634 187.21ZM226.012 99.8333L226.262 100.048C226.262 100.048 226.519 102.049 226.702 102.649C226.884 103.248 226.665 104.414 226.665 104.414C226.681 104.849 226.768 105.278 226.921 105.686C227.139 106.123 226.482 107.074 226.482 107.074H225.897L225.714 99.5835L226.012 99.8333ZM208.61 77.4687V77.4248C208.605 77.4386 208.603 77.4548 208.603 77.4687H208.61ZM199.623 106.303C199.532 106.11 199.519 105.889 199.586 105.686C199.638 105.576 199.679 105.461 199.708 105.343C199.78 105.04 199.825 104.73 199.842 104.418C199.843 104.414 199.843 104.41 199.842 104.407C199.821 104.296 199.634 103.222 199.808 102.653C199.981 102.084 200.245 100.053 200.245 100.053L200.411 99.912L200.798 99.5765C200.798 99.5765 200.798 99.4516 200.825 99.2457C200.906 101.004 200.971 102.947 200.867 103.044C200.673 103.236 199.965 105.126 200.136 105.2C200.192 105.226 200.115 105.982 199.986 107C199.84 106.781 199.718 106.548 199.623 106.303V106.303Z" fill="url(#paint1_linear)"/>
<path d="M218.268 79.317V82.1947L212.364 85.1626C212.364 85.1626 206.502 81.6164 207.948 80.2053C208.873 79.3124 208.695 76.8603 208.445 75.174C208.3 74.1931 208.131 73.4737 208.131 73.4737C208.131 73.4737 218.661 70.4665 217.069 72.7497C216.537 73.513 216.496 74.5008 216.674 75.4793C217.035 77.4201 218.268 79.317 218.268 79.317Z" fill="#C37098"/>
<path d="M202.096 107.458L201.334 116.831C201.334 116.831 200.194 115.797 198.718 114.451C195.982 111.955 192.095 108.385 192.142 108.291C192.213 108.145 192.835 99.6413 192.903 97.5039C192.966 95.9867 193.296 94.4925 193.879 93.0902C194.018 92.8126 194.409 91.0452 194.573 90.2194C194.628 89.9626 194.663 89.7961 194.663 89.7961L195.94 89.2825C195.94 89.2825 201.26 95.2184 201.26 95.3271C201.26 95.4358 200.897 99.9952 200.897 99.9952L200.52 100.324L200.356 100.465C200.356 100.465 200.101 102.457 199.921 103.053C199.741 103.65 199.935 104.687 199.956 104.798C199.939 105.109 199.895 105.419 199.824 105.723C199.794 105.84 199.753 105.954 199.701 106.063C199.636 106.265 199.649 106.485 199.738 106.678C199.841 106.946 199.975 107.202 200.136 107.439L202.096 107.458Z" fill="#3F3D56"/>
<path d="M234.34 108.291C234.396 108.404 228.721 113.583 226.262 115.82L225.147 116.831L224.393 107.458H226.348C226.348 107.458 227 106.516 226.783 106.081C226.631 105.676 226.546 105.249 226.531 104.816C226.531 104.816 226.746 103.659 226.565 103.06C226.385 102.461 226.13 100.472 226.13 100.472L225.883 100.259L225.589 100.002C225.589 100.002 225.226 95.4428 225.226 95.334C225.226 95.2253 230.546 89.2895 230.546 89.2895L231.814 89.7961C231.814 89.7961 231.842 89.9326 231.888 90.15C232.059 90.9388 232.469 92.8056 232.61 93.0902C233.192 94.4925 233.523 95.9867 233.586 97.5039C233.646 99.6413 234.266 108.145 234.34 108.291Z" fill="#3F3D56"/>
<path d="M234.363 187.853C234.023 188.528 231.636 188.084 231.143 188.047C230.65 188.01 227.171 186.259 227.122 185.85C227.074 185.44 225.869 184.596 225.531 184.596C225.193 184.596 223.553 183.291 223.407 183.099C223.37 183.003 223.354 182.901 223.359 182.798C223.308 182.005 223.407 179.962 223.407 179.962L230.405 180.349L233.805 185.463C234.092 186.015 234.299 186.605 234.421 187.214C234.462 187.428 234.442 187.65 234.363 187.853V187.853Z" fill="#3F3D56"/>
<path opacity="0.1" d="M234.363 187.853C234.023 188.528 231.636 188.084 231.143 188.047C230.65 188.01 227.171 186.259 227.122 185.85C227.074 185.44 225.869 184.596 225.531 184.596C225.193 184.596 223.553 183.291 223.407 183.099C223.37 183.003 223.354 182.901 223.359 182.798C223.308 182.005 223.407 179.962 223.407 179.962L230.405 180.349L233.805 185.463C234.092 186.015 234.299 186.605 234.421 187.214C234.462 187.428 234.442 187.65 234.363 187.853V187.853Z" fill="black"/>
<path opacity="0.1" d="M234.363 187.853C234.023 188.528 231.636 188.084 231.143 188.047C230.65 188.01 227.171 186.259 227.122 185.85C227.074 185.44 225.869 184.596 225.531 184.596C225.193 184.596 223.553 183.291 223.407 183.099C223.37 183.003 223.354 182.901 223.359 182.798L225.626 184.233C225.626 184.233 227.074 185.158 227.46 185.706C227.846 186.254 230.891 187.395 231.143 187.418C231.33 187.436 233.329 187.052 234.421 187.214C234.462 187.428 234.442 187.65 234.363 187.853V187.853Z" fill="black"/>
<path d="M201.284 183.631C201.284 183.631 200.293 184.862 198.97 184.957C198.621 184.959 198.286 185.096 198.035 185.338C197.783 185.581 197.635 185.91 197.619 186.259C197.619 186.259 197.851 187.008 194.651 188.047C192.72 188.669 191.505 188.473 190.798 188.047C190.418 187.838 190.131 187.492 189.995 187.08C189.777 186.31 194.048 180.446 194.048 180.446L197.934 180.214L200.71 181.468L201.135 183.057L201.284 183.631Z" fill="#3F3D56"/>
<path opacity="0.1" d="M201.284 183.631C201.284 183.631 200.293 184.862 198.97 184.957C198.621 184.959 198.286 185.096 198.035 185.338C197.783 185.581 197.635 185.91 197.619 186.259C197.619 186.259 197.851 187.008 194.651 188.047C192.72 188.669 191.505 188.473 190.798 188.047C190.418 187.838 190.131 187.492 189.995 187.08C189.777 186.31 194.048 180.446 194.048 180.446L197.934 180.214L200.71 181.468L201.135 183.057L201.284 183.631Z" fill="black"/>
<path opacity="0.1" d="M201.284 183.631C201.284 183.631 200.294 184.862 198.971 184.957C198.621 184.959 198.287 185.096 198.035 185.338C197.784 185.581 197.635 185.91 197.62 186.259C197.62 186.259 197.851 187.009 194.652 188.047C192.72 188.669 191.506 188.473 190.798 188.047C192.618 187.857 196.641 186.708 197.044 186.31C197.527 185.826 198.131 184.499 198.54 184.475C198.825 184.457 200.271 183.587 201.138 183.048L201.284 183.631Z" fill="black"/>
<path d="M231.081 178.25C230.646 179.264 231.081 181.339 231.081 181.339C231.081 181.339 224.604 181.676 223.021 180.615C221.439 179.553 220.32 173.471 220.32 173.471C220.32 173.471 220.551 166.33 220.32 165.993C220.088 165.655 219.209 164.063 219.498 163.726C219.788 163.388 219.267 161.602 218.871 160.829C218.476 160.057 218.64 157.838 218.64 157.838L217.673 151.949L216.179 144.953L214.909 140.271C214.909 140.271 213.606 136.459 213.165 134.868C212.723 133.276 212.256 134.722 212.256 134.722C212.209 136.267 208.638 143.216 208.638 143.216C208.638 143.216 208.106 147.415 207.527 148.909C206.949 150.403 206.32 155.618 206.32 155.618C206.32 155.618 205.394 166.233 204.631 168.019C203.868 169.805 203.343 172.458 203.343 172.458C203.343 172.458 203.537 176.127 203.053 176.416C202.57 176.705 202.649 178.926 202.649 178.926C202.649 178.926 202.938 181.047 201.827 181.387C200.717 181.727 200.902 182.449 200.902 182.449C200.902 182.449 194.726 183.462 193.712 180.758C192.699 178.054 194.099 177.334 194.175 177.14C194.251 176.946 195.022 176.61 194.346 175.835C193.671 175.061 195.214 172.942 195.214 172.942C195.214 172.942 195.457 169.951 195.889 169.853C196.322 169.756 196.181 165.414 196.181 165.414L196.662 160.878C196.662 160.878 197.291 150.744 197.145 150.357C197 149.971 197.097 148.044 197.58 147.119C198.064 146.193 198.448 137.755 198.448 137.755C198.448 137.755 198.351 133.607 198.737 132.834C198.968 132.397 199.065 130.715 199.121 129.344C199.162 128.296 199.172 127.428 199.172 127.428L204.576 125.402L211.515 123.183L217.354 125.982L225.897 127.622L226.003 129.096L227.634 151.606L228.559 160.098C228.559 160.098 228.946 164.103 228.994 164.827C229.043 165.551 229.524 170.281 229.524 170.281C229.524 170.281 230.537 172.548 229.91 173.321C229.283 174.094 229.524 174.709 229.524 174.709C229.524 174.709 231.516 177.237 231.081 178.25Z" fill="#3F3D56"/>
<path opacity="0.1" d="M217.074 72.7497C216.542 73.513 216.5 74.5008 216.678 75.4793C215.462 76.3369 213.999 76.7713 212.512 76.7158C211.025 76.6602 209.598 76.1176 208.45 75.1716V75.1716C208.304 74.1908 208.135 73.4714 208.135 73.4714C208.135 73.4714 218.665 70.4688 217.074 72.7497Z" fill="black"/>
<path d="M219.535 69.7979C219.535 71.1385 219.138 72.4489 218.393 73.5635C217.648 74.6781 216.59 75.5469 215.351 76.0599C214.113 76.5729 212.75 76.7071 211.435 76.4456C210.12 76.184 208.913 75.5385 207.965 74.5906C207.017 73.6427 206.371 72.435 206.11 71.1202C205.848 69.8055 205.982 68.4427 206.495 67.2042C207.008 65.9657 207.877 64.9071 208.992 64.1624C210.106 63.4176 211.417 63.0201 212.757 63.0201C213.649 63.0158 214.532 63.1882 215.356 63.5273C216.18 63.8664 216.929 64.3655 217.56 64.9957C218.19 65.626 218.689 66.3748 219.028 67.1991C219.367 68.0234 219.539 68.9067 219.535 69.7979Z" fill="#C37098"/>
<path opacity="0.1" d="M220.946 81.0612L218.726 120.606L206.662 118.073L204.272 102.221L206.639 80.9386L208.42 81.1676L211.562 81.5678L214.673 81.7598L218.046 81.3851L220.946 81.0612Z" fill="black"/>
<path d="M220.946 81.3504L218.726 120.896L206.662 118.363L204.272 102.51L206.639 81.2301L208.42 81.4568L211.562 81.857L214.673 82.049L218.046 81.6743L220.946 81.3504Z" fill="#536DFE"/>
<path d="M211.03 82.4122L215.374 82.5579L214.153 84.2674C214.153 84.2674 214.238 87.7211 214.819 88.7112C215.4 89.7013 215.228 104.997 215.228 104.997L214.072 107.192L212.094 104.73L212.119 84.5357L211.03 82.4122Z" fill="#3F3D56"/>
<path opacity="0.1" d="M211.03 82.4122L215.374 82.5579L214.153 84.2674C214.153 84.2674 214.238 87.7211 214.819 88.7112C215.4 89.7013 215.228 104.997 215.228 104.997L214.072 107.192L212.094 104.73L212.119 84.5357L211.03 82.4122Z" fill="black"/>
<path opacity="0.1" d="M217.833 77.9244L213.78 82.4122L216.095 84.8249L219.933 81.0844L217.833 77.9244Z" fill="black"/>
<path d="M217.833 77.6353L213.78 82.123L216.095 84.5357L219.933 80.7952L217.833 77.6353Z" fill="#536DFE"/>
<path opacity="0.1" d="M212.068 82.1947L207.964 78.0933L207.578 80.24L209.461 84.9452L212.068 82.1947Z" fill="black"/>
<path d="M212.212 81.9055L208.11 77.8041L207.724 79.9508L209.607 84.656L212.212 81.9055Z" fill="#536DFE"/>
<path opacity="0.1" d="M226.024 129.103C224.054 130.041 221.945 130.652 219.778 130.91C215.797 131.416 213.192 126.35 213.192 126.35L211.672 128.328C211.189 130.429 203.831 130.958 200.839 130.162C200.219 130.009 199.635 129.733 199.123 129.351C199.165 128.303 199.174 127.435 199.174 127.435L204.578 125.409L211.517 123.19L217.356 125.989L225.899 127.629L226.024 129.103Z" fill="black"/>
<path opacity="0.1" d="M220.946 81.3527L218.728 120.896L206.662 118.363L204.268 102.512L206.632 81.2301L208.413 81.4614C208.367 82.2366 208.28 83.0089 208.152 83.7747C207.862 85.1279 209.648 94.7303 209.648 94.7303C209.648 94.7303 213.042 105.498 214.569 103.946C216.095 102.394 218.27 94.1982 218.27 94.1982C219.743 91.1586 218.295 82.6319 218.186 82.4608C218.111 82.2086 218.064 81.9486 218.048 81.6858L220.946 81.3527Z" fill="black"/>
<path opacity="0.1" d="M226.158 111.953L226.26 115.827L225.145 116.838L224.393 107.458H226.059L226.158 111.953Z" fill="black"/>
<path opacity="0.1" d="M199.958 104.805C199.941 105.116 199.897 105.426 199.826 105.73C199.826 105.644 199.826 105.596 199.808 105.589C199.738 105.57 199.822 105.216 199.958 104.805Z" fill="black"/>
<path opacity="0.1" d="M202.096 107.458L201.335 116.831C201.335 116.831 200.194 115.797 198.718 114.451L198.894 112.79C198.894 112.79 199.516 108.709 199.743 106.697C199.846 106.965 199.979 107.22 200.141 107.458H202.096Z" fill="black"/>
<path d="M208.64 77.9476C208.64 77.9476 207.918 76.8858 206.928 78.9353C206.928 78.9353 204.346 80.432 203.458 80.6009C202.57 80.7697 199.41 81.8801 199.41 81.8801C198.932 82.2251 198.358 82.4105 197.77 82.4098C196.779 82.4098 195.958 84.582 196.079 85.7641C196.199 86.9461 196.007 87.8159 195.091 87.8645C194.175 87.9131 194.679 89.8169 194.679 89.8169L200.784 96.8145C200.784 96.8145 201.17 103.257 200.978 103.451C200.786 103.646 200.085 105.533 200.254 105.598C200.423 105.663 199.329 112.788 199.329 112.788L197.857 126.614C197.857 126.614 197.857 128.927 200.851 129.725C203.844 130.523 211.207 129.996 211.681 127.895L213.201 125.915C213.201 125.915 215.806 130.984 219.787 130.477C223.768 129.97 226.304 128.522 226.304 128.522L225.869 111.952L225.58 100.009L231.795 89.7961C231.795 89.7961 230.13 86.6107 230.275 85.1696C230.421 83.7284 230.708 82.6365 227.162 82.1299C227.162 82.1299 224.171 81.6835 222.408 80.4644C221.361 79.737 220.216 79.1608 219.008 78.7526C219.008 78.7526 218.013 76.902 217.321 77.5358C217.321 77.5358 218.015 80.1521 217.957 80.543C217.9 80.934 218.066 82.7013 218.175 82.8841C218.284 83.0668 219.732 91.5819 218.258 94.6215C218.258 94.6215 216.095 102.817 214.557 104.37C213.019 105.922 209.637 95.1536 209.637 95.1536C209.637 95.1536 207.851 85.5489 208.14 84.198C208.429 82.847 208.64 77.9476 208.64 77.9476Z" fill="#3F3D56"/>
<path d="M213.803 109.581C214.389 109.581 214.865 109.106 214.865 108.52C214.865 107.933 214.389 107.458 213.803 107.458C213.217 107.458 212.741 107.933 212.741 108.52C212.741 109.106 213.217 109.581 213.803 109.581Z" fill="#3F3D56"/>
<path d="M213.803 114.587C214.389 114.587 214.865 114.112 214.865 113.525C214.865 112.939 214.389 112.464 213.803 112.464C213.217 112.464 212.741 112.939 212.741 113.525C212.741 114.112 213.217 114.587 213.803 114.587Z" fill="#3F3D56"/>
<path opacity="0.1" d="M213.803 109.581C214.389 109.581 214.865 109.106 214.865 108.52C214.865 107.933 214.389 107.458 213.803 107.458C213.217 107.458 212.741 107.933 212.741 108.52C212.741 109.106 213.217 109.581 213.803 109.581Z" fill="black"/>
<path opacity="0.1" d="M213.803 114.587C214.389 114.587 214.865 114.112 214.865 113.525C214.865 112.939 214.389 112.464 213.803 112.464C213.217 112.464 212.741 112.939 212.741 113.525C212.741 114.112 213.217 114.587 213.803 114.587Z" fill="black"/>
<path opacity="0.1" d="M223.345 176.802C223.345 176.802 227.703 177.14 228.136 177.478C228.569 177.816 223.345 176.802 223.345 176.802Z" fill="black" stroke="#536DFE" stroke-miterlimit="10"/>
<path opacity="0.1" d="M197.397 173.376C197.397 173.376 198.323 174.533 197.93 175.065C197.536 175.597 197.397 173.376 197.397 173.376Z" fill="black" stroke="#536DFE" stroke-miterlimit="10"/>
<path opacity="0.1" d="M198.508 177.547C198.508 177.547 200.196 176.437 200.872 177.175C201.547 177.913 198.508 177.547 198.508 177.547Z" fill="black" stroke="#536DFE" stroke-miterlimit="10"/>
<path opacity="0.1" d="M219.535 69.798C219.536 70.3763 219.463 70.9524 219.318 71.5121C219.175 71.447 219.055 71.3399 218.975 71.2052C218.895 71.0704 218.858 70.9144 218.869 70.758C218.899 70.4827 219.082 70.2305 219.042 69.9576C218.984 69.5366 218.475 69.3654 218.207 69.0323C217.876 68.6298 217.948 68.0445 217.976 67.524C218.004 67.0035 217.872 66.3674 217.384 66.1893C217.238 66.1361 217.078 66.1314 216.937 66.0713C216.553 65.9094 216.435 65.4328 216.178 65.1044C215.665 64.4428 214.645 64.4566 213.865 64.7713C213.526 64.9339 213.178 65.0791 212.824 65.2061C212.647 65.2687 212.458 65.2938 212.271 65.2799C212.083 65.2659 211.901 65.2133 211.735 65.1252C211.582 65.028 211.459 64.8939 211.302 64.7967C210.779 64.4821 210.095 64.7967 209.641 65.2015C209.188 65.6063 208.825 66.15 208.253 66.3975C207.996 66.5131 207.68 66.5825 207.559 66.8324C207.5 66.9684 207.474 67.1169 207.485 67.2649C207.485 68.1648 207.592 69.0785 207.404 69.9599C207.284 70.5266 206.886 71.1697 206.31 71.1003C206.238 71.0897 206.168 71.0719 206.1 71.0471C205.926 70.1206 205.948 69.1682 206.163 68.2506C206.379 67.333 206.784 66.4704 207.351 65.718C207.919 64.9656 208.637 64.3398 209.461 63.8808C210.284 63.4217 211.194 63.1393 212.132 63.0518C213.071 62.9642 214.017 63.0734 214.911 63.3723C215.805 63.6712 216.627 64.1533 217.324 64.7877C218.021 65.4221 218.578 66.195 218.96 67.0569C219.341 67.9188 219.539 68.8508 219.54 69.7933L219.535 69.798Z" fill="black"/>
<path d="M205.797 70.6631C205.97 70.7025 206.134 70.7927 206.313 70.8158C206.889 70.8852 207.286 70.2421 207.407 69.6754C207.594 68.794 207.497 67.8803 207.49 66.9804C207.477 66.8325 207.502 66.6837 207.562 66.5479C207.694 66.298 208.01 66.2286 208.256 66.113C208.815 65.8631 209.181 65.3311 209.644 64.917C210.106 64.5029 210.779 64.1976 211.302 64.5122C211.457 64.6047 211.582 64.7435 211.735 64.8407C211.902 64.9275 212.085 64.9794 212.272 64.9934C212.46 65.0073 212.649 64.9829 212.827 64.9216C213.185 64.8152 213.521 64.6279 213.865 64.4867C214.638 64.1721 215.66 64.1606 216.179 64.8175C216.435 65.1483 216.553 65.6226 216.937 65.7845C217.078 65.8446 217.238 65.8516 217.384 65.9048C217.872 66.0875 217.997 66.719 217.976 67.2395C217.955 67.76 217.886 68.3453 218.207 68.7478C218.476 69.0762 218.985 69.2474 219.042 69.6731C219.079 69.946 218.899 70.2005 218.869 70.4735C218.862 70.5749 218.875 70.6767 218.908 70.773C218.941 70.8692 218.992 70.958 219.06 71.0342C219.127 71.1104 219.209 71.1724 219.3 71.2168C219.392 71.2611 219.491 71.2868 219.593 71.2924C220.194 71.2924 220.567 70.6192 221.129 70.4041C221.36 70.3138 221.64 70.3 221.823 70.1172C221.891 70.0294 221.939 69.9278 221.964 69.8196C221.988 69.7113 221.989 69.599 221.966 69.4903C221.853 68.6043 221.143 67.834 221.219 66.9457C221.291 66.0945 222.08 65.3519 221.913 64.5145C221.828 64.2057 221.669 63.9223 221.45 63.6887C221.202 63.3526 220.879 63.0793 220.507 62.8906C220.185 62.7518 219.813 62.7194 219.519 62.5505C218.644 62.0717 218.647 60.8225 218.131 59.9713C217.91 59.6195 217.596 59.3354 217.223 59.1501C216.851 58.9649 216.435 58.8856 216.021 58.921C215.371 58.9858 214.781 59.3305 214.138 59.4461C213.257 59.6035 212.364 59.3143 211.529 58.9835C210.694 58.6527 209.849 58.2895 208.954 58.2895C208.059 58.2895 207.09 58.7522 206.817 59.5988C206.673 60.0615 206.745 60.5565 206.634 61.0215C206.44 61.8473 205.709 62.4349 204.973 62.8443C204.467 63.1265 203.858 63.4504 203.798 64.0264C203.759 64.3919 203.96 64.7204 204.087 65.0743C204.304 65.6731 204.299 66.3295 204.073 66.9249C203.904 67.3621 203.622 67.7461 203.451 68.181C203.33 68.4762 203.272 68.7938 203.282 69.1128C203.293 69.4318 203.371 69.745 203.511 70.0316C203.619 70.2406 203.768 70.4254 203.95 70.5745C204.132 70.7237 204.342 70.8342 204.568 70.8991C205.024 71.0078 205.311 70.5567 205.797 70.6631Z" fill="#3F3D56"/>
<g opacity="0.1">
<path opacity="0.1" d="M207.407 69.1711C207.287 69.7378 206.887 70.3809 206.311 70.3115C206.132 70.2884 205.97 70.1981 205.795 70.1588C205.311 70.0524 205.024 70.5058 204.569 70.3901C204.342 70.3252 204.132 70.2148 203.949 70.0657C203.767 69.9165 203.617 69.7317 203.509 69.5227C203.388 69.2872 203.315 69.0301 203.294 68.7662C203.248 69.1758 203.323 69.59 203.509 69.9576C203.617 70.1666 203.767 70.3514 203.949 70.5006C204.132 70.6497 204.342 70.7601 204.569 70.825C205.031 70.9315 205.311 70.4781 205.795 70.5937C205.964 70.6526 206.136 70.7028 206.311 70.7441C206.887 70.8158 207.287 70.1727 207.407 69.606C207.502 69.1052 207.539 68.5953 207.518 68.0862C207.516 68.4505 207.479 68.8138 207.407 69.1711V69.1711Z" fill="black"/>
<path opacity="0.1" d="M204.238 65.6873C204.267 65.3082 204.215 64.9273 204.085 64.57C203.981 64.3325 203.892 64.0883 203.819 63.839C203.809 63.8779 203.801 63.9173 203.796 63.957C203.757 64.3202 203.96 64.651 204.085 65.0049C204.166 65.2246 204.217 65.4541 204.238 65.6873V65.6873Z" fill="black"/>
<path opacity="0.1" d="M221.911 64.4682C221.802 65.1252 221.27 65.7428 221.217 66.4345C221.204 66.5529 221.204 66.6723 221.217 66.7907C221.333 65.9834 222.048 65.2686 221.911 64.4682Z" fill="black"/>
<path opacity="0.1" d="M221.95 69.3492C221.931 69.4459 221.885 69.5355 221.818 69.6083C221.647 69.7911 221.356 69.8049 221.124 69.8951C220.562 70.1103 220.199 70.7904 219.588 70.7834C219.432 70.7746 219.282 70.7186 219.158 70.6228C219.034 70.5269 218.942 70.3959 218.894 70.2468C218.88 70.2969 218.869 70.3479 218.862 70.3994C218.855 70.5007 218.869 70.6023 218.902 70.6983C218.935 70.7943 218.986 70.8828 219.054 70.9587C219.121 71.0346 219.203 71.0965 219.294 71.1406C219.385 71.1848 219.485 71.2104 219.586 71.216C220.19 71.216 220.56 70.5429 221.122 70.33C221.353 70.2398 221.636 70.2259 221.816 70.0432C221.884 69.9553 221.932 69.8538 221.957 69.7455C221.981 69.6373 221.982 69.5249 221.959 69.4163C221.957 69.3885 221.952 69.37 221.95 69.3492Z" fill="black"/>
<path opacity="0.1" d="M219.049 69.1572C218.992 68.7362 218.483 68.565 218.214 68.2319C218.05 68.0131 217.96 67.7469 217.96 67.4731C217.941 67.9034 217.948 68.3429 218.214 68.6668C218.48 68.9906 218.885 69.1294 219.015 69.4625C219.047 69.3643 219.059 69.2603 219.049 69.1572V69.1572Z" fill="black"/>
<path opacity="0.1" d="M217.974 66.7352C217.992 66.2147 217.867 65.5786 217.379 65.4005C217.236 65.3473 217.076 65.3403 216.935 65.2825C216.551 65.1206 216.431 64.644 216.176 64.3156C215.661 63.6563 214.64 63.6678 213.863 63.9824C213.516 64.1236 213.185 64.3109 212.825 64.4173C212.647 64.4799 212.459 64.505 212.271 64.4911C212.084 64.4771 211.901 64.4244 211.735 64.3364C211.582 64.2392 211.457 64.105 211.302 64.0079C210.777 63.6933 210.093 64.0079 209.642 64.4127C209.19 64.8175 208.825 65.3588 208.254 65.6087C207.995 65.7243 207.68 65.7937 207.546 66.0436C207.487 66.1797 207.462 66.3283 207.474 66.4761C207.474 66.5664 207.474 66.6566 207.474 66.7468C207.477 66.6536 207.5 66.5621 207.541 66.4785C207.675 66.2286 207.99 66.1592 208.249 66.0436C208.809 65.7937 209.174 65.2617 209.637 64.8476C210.1 64.4335 210.773 64.1282 211.298 64.4428C211.453 64.5353 211.578 64.6741 211.73 64.7689C211.896 64.8576 212.079 64.9105 212.267 64.9245C212.454 64.9384 212.643 64.913 212.82 64.8499C213.174 64.7241 213.52 64.5797 213.859 64.4173C214.634 64.1027 215.654 64.0889 216.172 64.7481C216.426 65.0766 216.547 65.5531 216.931 65.7151C217.072 65.7752 217.231 65.7822 217.375 65.8354C217.77 65.9834 217.928 66.4276 217.962 66.8671L217.974 66.7352Z" fill="black"/>
</g>
<g opacity="0.1">
<path opacity="0.1" d="M206.581 69.1572C206.594 68.7732 206.732 68.404 206.973 68.1049C207.214 67.8058 207.545 67.593 207.918 67.4986C208.949 67.2464 210.032 67.2954 211.036 67.6397C213.231 68.366 210.758 70.98 210.758 70.98C210.758 70.98 209.114 72.5993 207.58 71.4681C207.127 71.1258 206.81 70.6341 206.685 70.0802C206.61 69.7784 206.575 69.4681 206.581 69.1572V69.1572Z" fill="black"/>
<path opacity="0.1" d="M218.649 69.1572C218.636 68.7729 218.498 68.4034 218.256 68.1043C218.015 67.8052 217.683 67.5926 217.31 67.4986C216.279 67.2469 215.198 67.2958 214.194 67.6397C211.998 68.366 214.471 70.98 214.471 70.98C214.471 70.98 216.114 72.5993 217.65 71.4681C218.103 71.1258 218.42 70.634 218.545 70.0802C218.62 69.7784 218.655 69.4681 218.649 69.1572Z" fill="black"/>
<path opacity="0.1" d="M210.622 67.4269V67.5356H214.631V67.406L210.622 67.4269Z" fill="black"/>
<path opacity="0.1" d="M211.901 68.5858H212.028V68.218C212.028 68.218 212.435 67.9011 213.111 68.218V68.5465H213.342V68.3313H213.229C213.229 68.3313 213.275 67.8849 212.521 67.9566C212.521 67.9566 211.915 67.8988 211.929 68.2828H211.79L211.901 68.5858Z" fill="black"/>
</g>
<path d="M206.581 69.0068C206.595 68.6229 206.732 68.2536 206.973 67.9545C207.214 67.6554 207.546 67.4427 207.918 67.3482C208.95 67.0978 210.032 67.1467 211.037 67.4893C213.232 68.218 210.759 70.8297 210.759 70.8297C210.759 70.8297 209.114 72.449 207.581 71.3178C207.127 70.9763 206.809 70.4842 206.685 69.9298C206.61 69.6281 206.575 69.3178 206.581 69.0068V69.0068Z" fill="#536DFE"/>
<path d="M218.65 69.0068C218.636 68.6226 218.498 68.2531 218.257 67.9539C218.015 67.6548 217.683 67.4422 217.31 67.3482C216.279 67.0977 215.198 67.1466 214.194 67.4893C211.999 68.218 214.472 70.8297 214.472 70.8297C214.472 70.8297 216.114 72.4489 217.65 71.3178C218.104 70.9762 218.421 70.4842 218.545 69.9298C218.621 69.6281 218.656 69.3177 218.65 69.0068Z" fill="#536DFE"/>
<path d="M210.622 67.2811V67.3922H214.631V67.2603L210.622 67.2811Z" fill="#536DFE"/>
<path d="M211.902 68.4401H212.029V68.0723C212.029 68.0723 212.436 67.7577 213.111 68.0723V68.403H213.343V68.1856H213.229C213.229 68.1856 213.276 67.7415 212.522 67.8109C212.522 67.8109 211.915 67.7553 211.929 68.137H211.791L211.902 68.4401Z" fill="#536DFE"/>
<path d="M28.4858 105.76H27.1719V135.346H28.4858V105.76Z" fill="#535461"/>
<path d="M36.7443 135.256L36.661 136.589L36.5454 138.469L36.4968 139.254L36.3811 141.137L36.3302 141.921L36.2146 143.801L34.8891 165.192C34.8325 166.113 34.427 166.977 33.7552 167.609C33.0833 168.241 32.1958 168.593 31.2735 168.593H24.3846C23.4625 168.593 22.5752 168.241 21.9038 167.609C21.2323 166.977 20.8272 166.113 20.7713 165.192L19.4388 143.801L19.3232 141.921L19.2746 141.137L19.1612 139.249L19.1127 138.465L18.997 136.584L18.9137 135.252C18.8979 134.996 18.9347 134.74 19.0217 134.499C19.1088 134.258 19.2442 134.037 19.4198 133.85C19.5953 133.664 19.8073 133.515 20.0425 133.414C20.2777 133.312 20.5312 133.26 20.7875 133.26H34.8729C35.1294 133.26 35.3833 133.312 35.6187 133.414C35.8541 133.516 36.0662 133.665 36.2416 133.852C36.4171 134.039 36.5522 134.261 36.6387 134.502C36.7251 134.744 36.7611 135 36.7443 135.256V135.256Z" fill="#3F3D56"/>
<path d="M36.6605 136.589L36.5448 138.469H19.1098L18.9941 136.589H36.6605Z" fill="#9D9CB5"/>
<path d="M36.4961 139.254L36.3804 141.137H19.2762L19.1582 139.254H36.4961Z" fill="#9D9CB5"/>
<path d="M36.33 141.921L36.2143 143.801H19.4432L19.3252 141.921H36.33Z" fill="#9D9CB5"/>
<path d="M16.9883 116.85C24.6406 122.385 27.8283 131.046 27.8283 131.046C27.8283 131.046 18.6053 130.729 10.9415 125.194C3.27767 119.658 0.101562 110.997 0.101562 110.997C0.101562 110.997 9.33378 111.314 16.9883 116.85Z" fill="#536DFE"/>
<path d="M0.113281 110.997C0.113281 110.997 9.68555 116.318 12.7552 120.713C15.8249 125.108 27.8284 131.048 27.8284 131.048" stroke="#535461" stroke-width="2" stroke-miterlimit="10"/>
<path d="M21.9278 105.707C26.0916 108.714 27.8289 113.433 27.8289 113.433C27.8289 113.433 22.8091 113.262 18.643 110.248C14.4768 107.233 12.7441 102.521 12.7441 102.521C12.7441 102.521 17.7639 102.681 21.9278 105.707Z" fill="#536DFE"/>
<path d="M12.7441 102.51C12.7441 102.51 17.9536 105.401 19.6238 107.796C21.2939 110.19 27.8289 113.421 27.8289 113.421" stroke="#535461" stroke-width="2" stroke-miterlimit="10"/>
<path d="M33.882 113.183C29.0959 118.441 28.085 125.312 28.085 125.312C28.085 125.312 34.8304 123.658 39.6143 118.4C44.3981 113.141 45.4113 106.269 45.4113 106.269C45.4113 106.269 38.6658 107.923 33.882 113.183Z" fill="#536DFE"/>
<path d="M45.4113 106.269C45.4113 106.269 39.1794 111.659 37.5948 115.374C36.0102 119.089 28.085 125.321 28.085 125.321" stroke="#535461" stroke-width="2" stroke-miterlimit="10"/>
</g>
<defs>
<linearGradient id="paint0_linear" x1="136.783" y1="149.455" x2="136.783" y2="24.9254" gradientUnits="userSpaceOnUse">
<stop stop-color="#808080" stop-opacity="0.25"/>
<stop offset="0.54" stop-color="#808080" stop-opacity="0.12"/>
<stop offset="1" stop-color="#808080" stop-opacity="0.1"/>
</linearGradient>
<linearGradient id="paint1_linear" x1="42571.7" y1="111831" x2="42571.7" y2="37890.7" gradientUnits="userSpaceOnUse">
<stop stop-color="#808080" stop-opacity="0.25"/>
<stop offset="0.54" stop-color="#808080" stop-opacity="0.12"/>
<stop offset="1" stop-color="#808080" stop-opacity="0.1"/>
</linearGradient>
<clipPath id="clip0">
<rect width="265" height="189.666" fill="white"/>
</clipPath>
</defs>
</svg>
