<?xml version="1.0" encoding="utf-8"?>
<!-- Generator: Adobe Illustrator 25.3.1, SVG Export Plug-In . SVG Version: 6.00 Build 0)  -->
<svg version="1.1" id="Capa_1" xmlns="http://www.w3.org/2000/svg" xmlns:xlink="http://www.w3.org/1999/xlink" x="0px" y="0px"
	 viewBox="0 0 37 39" style="enable-background:new 0 0 37 39;" xml:space="preserve">
<style type="text/css">
	.st0{fill-rule:evenodd;clip-rule:evenodd;fill:#D8D8D8;fill-opacity:0;}
	.st1{fill:#FFFFFF;}
</style>
<g id="DailyDeals">
	<g id="Group-7">
		<rect id="Rectangle" y="0" class="st0" width="37" height="39"/>
		<g id="CyberDay-Daily-Deal-Logo-12-Col" transform="translate(1.000000, 0.000000)">
			<g id="Group_6338" transform="translate(0.779365, 0.657306)">
				<path id="Path_622" class="st1" d="M30.7,10l0.2,0.2c0.6,0.6,1.5,0.6,2.1,0l0,0c0.6-0.6,0.6-1.5,0-2.1l-2.4-2.5
					c-0.3-0.3-0.7-0.4-1.1-0.4s-0.8,0.2-1.1,0.4l0,0C28.2,5.8,28,6.2,28,6.6c0,0.4,0.2,0.8,0.4,1.1l0.2,0.2L27.5,9
					c-2.4-2-5.3-3.3-8.4-3.6V2.9h1.8c0.8,0,1.4-0.6,1.4-1.4l0,0c0-0.8-0.6-1.4-1.4-1.4h-7.4c-0.4,0-0.8,0.2-1,0.4
					c-0.3,0.3-0.4,0.6-0.4,1l0,0c0,0.8,0.6,1.4,1.4,1.4h1.9v2.5c-8.7,1-15.1,8.7-14.5,17.4c0.6,8.1,7.1,14.5,15.2,15
					c4.5,0.2,8.8-1.4,12.1-4.4s5.1-7.4,5.1-11.8c0-3.8-1.3-7.5-3.8-10.4L30.7,10z M18.4,33.9c-3.7,0.4-7.5-0.9-10.1-3.6
					s-4-6.4-3.6-10.1c0.6-5.8,5.2-10.4,11-11c3.7-0.4,7.5,0.9,10.1,3.6s4,6.4,3.6,10.1C28.7,28.7,24.2,33.2,18.4,33.9L18.4,33.9z"/>
				<path id="Path_623" class="st1" d="M23.9,18.6l-5.6,0.2c-0.2,0-0.5-0.1-0.6-0.3c-0.1-0.2-0.2-0.4-0.1-0.7l3.9-9.5
					c0.1-0.3,0-0.7-0.3-0.9s-0.7-0.1-0.9,0.2L10,22.9c-0.1,0.2-0.2,0.5,0,0.7c0.1,0.2,0.4,0.4,0.6,0.4h5c0.2,0,0.4,0.1,0.6,0.3
					s0.2,0.4,0.1,0.6L13,34.3c-0.1,0.3,0,0.7,0.3,0.8s0.7,0.1,0.9-0.2l10.3-15.3c0.1-0.2,0.2-0.5,0-0.7
					C24.4,18.7,24.1,18.6,23.9,18.6z"/>
			</g>
		</g>
	</g>
</g>
</svg>
