<svg xmlns="http://www.w3.org/2000/svg" width="24" height="28" viewBox="0 0 24 28"><path fill="#fff" d="M4 4h16v20H4z"/><path fill="#f26522" d="M8 20q0-.828-.586-1.414T6 18t-1.414.586T4 20t.586 1.414T6 22t1.414-.586T8 20zm5.484 1.47q-.203-3.626-2.766-6.19T4.53 12.516q-.22-.016-.375.14t-.156.36v2q0 .203.13.344t.337.155q2.406.172 4.125 1.89t1.89 4.126q.017.205.157.338t.343.133h2q.203 0 .36-.155t.14-.375zm6 .014q-.078-2.406-.875-4.648t-2.18-4.062-3.205-3.203-4.062-2.18-4.648-.873q-.22-.016-.36.14Q4 6.814 4 7.017v2q0 .203.142.344t.344.157q3.187.11 5.906 1.742t4.352 4.35 1.742 5.907q.016.203.156.344t.344.14h2q.203 0 .36-.154.17-.14.14-.36zM24 6.5v15q0 1.86-1.32 3.18T19.5 26h-15q-1.86 0-3.18-1.32T0 21.5v-15q0-1.86 1.32-3.18T4.5 2h15q1.86 0 3.18 1.32T24 6.5z"/></svg>