<svg xmlns="http://www.w3.org/2000/svg" viewBox="0 0 16 22"><path d="M3.5 0H15c.45 0 .813.3.936.71l.028.113.012.027v.029L16 1c0 .041-.019.076-.023.116a.978.978 0 01-.027.174l-.031.098-.006.013a.98.98 0 01-.716.629A1.506 1.506 0 0014 3.5c0 .665.442 1.249 1.068 1.438l.137.034c.435.085.73.444.778.862l.007.115L16 6v15a1 1 0 01-.883.993L15 22H3.5a3.504 3.504 0 01-3.495-3.308L0 18.5v-15A3.504 3.504 0 013.308.005L3.5 0H15 3.5zM2 6.648V18.5c0 .778.596 1.42 1.356 1.493L3.5 20H14V7H3.5c-.462 0-.899-.098-1.302-.264L2 6.648zM5.005 9h6a1 1 0 01.117 1.993l-.117.007h-6a1 1 0 01-.117-1.993L5.005 9h6-6zm7.349-7H3.5C2.673 2 2 2.673 2 3.5c0 .778.596 1.42 1.356 1.493L3.5 5h8.853A3.465 3.465 0 0112 3.5a3.4 3.4 0 01.265-1.3l.089-.2z" fill="#ffffff" fill-rule="nonzero"/></svg>
