<svg xmlns="http://www.w3.org/2000/svg" width="60" height="60" viewBox="0 0 50 50"><g fill="none" fill-rule="evenodd"><path fill="#ed147d" d="M25 .806C38.362.806 49.194 11.638 49.194 25c0 13.362-10.832 24.194-24.194 24.194C11.638 49.194.806 38.362.806 25 .806 11.638 11.638.806 25 .806z"/><path fill="#ececec" stroke="#ed147d" stroke-width=".25" d="M23.846 27.783h0c-1.509 1.376-2.257 2.09-3.21 3.107h-.182c-.953-1.017-1.702-1.73-3.21-3.107-3.09-2.821-3.824-3.864-3.824-5.997 0-1.842 1.483-3.34 3.307-3.34 1.167 0 2.225.617 2.832 1.649.41.697 1.562.697 1.973 0 .607-1.032 1.665-1.648 2.832-1.648 1.823 0 3.307 1.498 3.307 3.339 0 2.133-.734 3.177-3.825 5.997zm6.12-5.997c0-3.122-2.513-5.66-5.602-5.66a5.48 5.48 0 00-3.734 1.453h-.169a5.485 5.485 0 00-3.734-1.454c-3.09 0-5.602 2.539-5.602 5.661 0 2.457.89 4.148 2.956 6.198.42.417.777.748 1.625 1.523 1.876 1.712 2.803 2.617 3.976 3.972a1.139 1.139 0 001.726 0c1.173-1.355 2.1-2.26 3.976-3.972a50.359 50.359 0 001.625-1.523c2.068-2.05 2.957-3.74 2.957-6.198zm3.307-5.661c-.545 0-1.085.08-1.604.239a1.162 1.162 0 00-.767 1.448c.182.612.825.96 1.43.773.306-.092.621-.139.94-.139 1.825 0 3.308 1.499 3.308 3.34 0 2.133-.733 3.175-3.825 5.997-1.556 1.423-2.263 2.097-3.21 3.107h-.182l-.17-.18-.085-.089a1.14 1.14 0 00-1.622-.028 1.17 1.17 0 00-.028 1.641c.41.43.777.833 1.132 1.244a1.136 1.136 0 001.727 0c1.172-1.352 2.09-2.25 3.976-3.972a50.359 50.359 0 001.625-1.522c2.068-2.05 2.957-3.741 2.957-6.198 0-3.121-2.514-5.661-5.602-5.661z"/></g></svg>
