<svg xmlns="http://www.w3.org/2000/svg" viewBox="0 0 102 102"><g fill="none" fill-rule="evenodd"><circle fill="#ED147D" cx="50.75" cy="50.75" r="50.75"/><path d="M60.989 50.437a45.194 45.194 0 00-2.377-2.278l2.99-3.844a2.115 2.115 0 00-1.67-3.413h-8.093a5.968 5.968 0 01-.366-2.114 4.233 4.233 0 014.23-4.23c1.418 0 2.807.71 3.596 1.9.784 1.181 2.603 1.181 3.383 0 .791-1.19 2.177-1.9 3.593-1.9a4.233 4.233 0 014.23 4.23c0 3.038-1.827 4.757-5.331 7.781-1.313 1.134-2.754 2.383-4.185 3.868zM37.942 49.36l-3.29-4.229h20.957l-1.554 2-1.736 2.23H37.942zm7.188 9.243l-3.9-5.013h7.8l-3.9 5.013zm15.859-26.37c-1.48-1.19-3.335-1.904-5.287-1.904-4.662 0-8.458 3.796-8.458 8.458 0 .734.093 1.432.233 2.115h-17.15c-.805 0-1.543.461-1.898 1.186a2.119 2.119 0 00.23 2.227l14.356 18.46v5.617h-4.23a2.115 2.115 0 000 4.229h12.688a2.114 2.114 0 100-4.23h-4.229v-5.616l8.765-11.268c1.136 1.027 2.269 2.131 3.356 3.436a2.112 2.112 0 003.25 0c1.72-2.062 3.55-3.644 5.322-5.172 3.496-3.018 6.797-5.868 6.797-10.984 0-4.662-3.792-8.458-8.459-8.458-1.95 0-3.804.715-5.286 1.903z" fill="#FFEDF4" fill-rule="nonzero"/></g></svg>
