<svg xmlns="http://www.w3.org/2000/svg" width="60" height="60" viewBox="0 0 50 50"><g fill="none" fill-rule="evenodd"><path fill="#ed147d" d="M25 .806C38.362.806 49.194 11.638 49.194 25c0 13.362-10.832 24.194-24.194 24.194C11.638 49.194.806 38.362.806 25 .806 11.638 11.638.806 25 .806z"/><g fill="#ececec"><path stroke="#ececec" stroke-width=".5" d="M31.695 29.987c-.962-1.934-2.659-3.337-4.69-3.904l-.627-.175.582-.29a4.416 4.416 0 002.456-3.951A4.421 4.421 0 0025 17.25a4.421 4.421 0 00-4.417 4.417c0 1.689.965 3.208 2.456 3.951l.582.29-.626.175c-2.032.567-3.728 1.97-4.69 3.904a.53.53 0 00.946.47c1.101-2.217 3.305-3.596 5.749-3.596 2.444 0 4.648 1.379 5.749 3.596a.528.528 0 00.946-.47zm0 0s0 0 0 0h0s0 0 0 0zm-10.056-8.32a3.364 3.364 0 013.36-3.361 3.364 3.364 0 013.362 3.36A3.364 3.364 0 0125 25.029a3.364 3.364 0 01-3.361-3.361z"/><path d="M16.055 16.37a.93.93 0 01-.68-.296.942.942 0 01.041-1.326 14.075 14.075 0 014.134-2.704c.473-.2.961-.377 1.452-.524a.938.938 0 01.534 1.797 11.956 11.956 0 00-3.319 1.577c-.538.363-1.05.775-1.522 1.221a.931.931 0 01-.64.254zm-3.75 12.692a.936.936 0 01-.906-.711A14.205 14.205 0 0111 25a14.222 14.222 0 01.396-3.334.933.933 0 111.814.443 12.333 12.333 0 00-.343 2.89 12.333 12.333 0 00.346 2.899.94.94 0 01-.907 1.163zm8.967 9.459a.93.93 0 01-.265-.039 13.873 13.873 0 01-3.835-1.822 14.19 14.19 0 01-1.763-1.415.94.94 0 01-.04-1.326.93.93 0 011.32-.04 12.107 12.107 0 004.849 2.805.939.939 0 01-.266 1.837zm7.462-.002a.938.938 0 01-.267-1.836 12.185 12.185 0 004.817-2.778.93.93 0 011.319.045.94.94 0 01-.045 1.325 13.855 13.855 0 01-4.11 2.681c-.464.199-.953.375-1.447.523a.944.944 0 01-.267.04zm8.969-9.491a.936.936 0 01-.908-1.158 12.337 12.337 0 00-.005-5.759.935.935 0 011.814-.443 14.222 14.222 0 01.005 6.643.934.934 0 01-.906.717zm-3.75-12.65a.933.933 0 01-.64-.254 12.14 12.14 0 00-4.853-2.809.937.937 0 01-.628-1.165.932.932 0 011.161-.632 13.934 13.934 0 013.835 1.822c.62.42 1.214.898 1.765 1.417a.943.943 0 01.04 1.326.93.93 0 01-.68.295zM25 13.75c-1.03 0-1.867-.841-1.867-1.875S23.97 10 25 10s1.866.84 1.866 1.875A1.873 1.873 0 0125 13.75zM25 40a1.873 1.873 0 01-1.867-1.875c0-1.034.837-1.875 1.867-1.875s1.866.841 1.866 1.875A1.873 1.873 0 0125 40zm11.2-19.688c-1.03 0-1.867-.84-1.867-1.875 0-1.034.837-1.875 1.867-1.875s1.866.841 1.866 1.875a1.873 1.873 0 01-1.866 1.875zm-22.4 0c-1.03 0-1.867-.84-1.867-1.875 0-1.034.837-1.875 1.867-1.875s1.866.841 1.866 1.875a1.873 1.873 0 01-1.866 1.875zm0 13.126a1.873 1.873 0 01-1.867-1.875c0-1.034.837-1.875 1.867-1.875s1.866.84 1.866 1.875a1.873 1.873 0 01-1.866 1.875zm22.4 0a1.873 1.873 0 01-1.867-1.875c0-1.034.837-1.875 1.867-1.875s1.866.84 1.866 1.875a1.873 1.873 0 01-1.866 1.875z"/></g></g></svg>
