<svg xmlns="http://www.w3.org/2000/svg" style="isolation:isolate" viewBox="331.575 147.775 77 77"><circle vector-effect="non-scaling-stroke" cx="370.075" cy="186.275" r="38.5" fill="#ED147D"/><path d="M377.387 185.477a34.928 34.928 0 00-1.826-1.75l2.297-2.954a1.623 1.623 0 00-1.283-2.623h-6.219a4.588 4.588 0 01-.281-1.625 3.253 3.253 0 013.25-3.25c1.09 0 2.157.546 2.763 1.459.603.909 2.001.909 2.6 0 .608-.913 1.673-1.459 2.762-1.459a3.254 3.254 0 013.25 3.25c0 2.335-1.404 3.656-4.097 5.98-1.009.871-2.116 1.831-3.216 2.972zm-17.711-.827l-2.528-3.25h16.105l-1.194 1.537-1.334 1.713h-11.049zm5.524 7.103l-2.997-3.853h5.995l-2.998 3.853zm12.187-20.265c-1.137-.914-2.562-1.463-4.062-1.463a6.509 6.509 0 00-6.5 6.5c0 .564.071 1.1.178 1.625h-13.178c-.619 0-1.187.354-1.46.912a1.628 1.628 0 00.178 1.711l11.032 14.186v4.316h-3.25a1.626 1.626 0 000 3.25h9.75a1.625 1.625 0 100-3.25h-3.25v-4.316l6.735-8.66c.873.79 1.744 1.638 2.579 2.641a1.623 1.623 0 002.498 0c1.321-1.584 2.728-2.8 4.09-3.975 2.686-2.319 5.223-4.509 5.223-8.44 0-3.583-2.914-6.5-6.5-6.5-1.499 0-2.924.549-4.063 1.463z" fill="#FFF"/></svg>
