<svg xmlns="http://www.w3.org/2000/svg" width="24" height="28" viewBox="0 0 24 28"><path fill="#fff" d="M2 6h20v16H2z"/><path fill="#dc4e41" d="M14.328 14.14q0-.405-.094-1H8.578v2.064h3.39q-.046.375-.257.78t-.584.83-1.04.694-1.507.273q-1.548 0-2.64-1.107T4.84 14t1.094-2.672 2.64-1.11q1.438 0 2.392.923l1.624-1.576Q10.907 8 8.578 8q-2.5 0-4.25 1.758T2.578 14t1.75 4.242T8.578 20q2.578 0 4.164-1.64t1.586-4.22zm5.39.72h1.704v-1.72H19.72v-1.72H18v1.72h-1.72v1.72H18v1.718h1.72v-1.72zM24 6.5v15q0 1.86-1.32 3.18T19.5 26h-15q-1.86 0-3.18-1.32T0 21.5v-15q0-1.86 1.32-3.18T4.5 2h15q1.86 0 3.18 1.32T24 6.5z"/></svg>