<svg xmlns="http://www.w3.org/2000/svg" viewBox="-133 256.9 120 120"><defs/><circle cx="-73" cy="316.9" r="60" fill="#fff"/><path d="M-76 293.2c6 1.6 6.5 8.6 6.2 12.9-.1 1.2.3 2.5 1.2 3.4.8.9 2.1 1.4 3.3 1.4h8.5c2.4 0 4.7 1.1 6.1 3s2 4.3 1.4 6.7l-3.6 14.5c-.9 3.5-4 5.9-7.6 5.9H-82v-25.6c0-.5.1-.9.3-1.3l4.7-9.5c.6-1.3.9-2.6.9-4l.1-7.4zm-12 26.7v21h-9v-21h9zm42.1-9.8c-2.6-3.4-6.6-5.3-10.9-5.3h-6.9c.2-8.3-3.2-16.9-13.2-17.9-1.3-.1-2.6.3-3.5 1.2-.9.8-1.5 2.1-1.5 3.3v9c0 .5-.1.9-.3 1.3l-4.7 9.5c-.4.8-.6 1.7-.8 2.7H-97c-3.3 0-6 2.7-6 6v21c0 3.3 2.7 6 6 6h36.6c6.3 0 11.9-4.3 13.4-10.5l3.6-14.5c1-4.1.1-8.4-2.5-11.8z" fill="#ed147d"/></svg>
