<svg xmlns="http://www.w3.org/2000/svg" viewBox="-133 256.9 120 120"><defs/><circle cx="-73" cy="316.9" r="60" fill="#fff"/><path d="M-61 307.9c2.5 0 4.5 2 4.5 4.5s-2 4.5-4.5 4.5-4.5-2-4.5-4.5 2-4.5 4.5-4.5zm-24 0c2.5 0 4.5 2 4.5 4.5s-2 4.5-4.5 4.5-4.5-2-4.5-4.5 2-4.5 4.5-4.5zm12 0c2.5 0 4.5 2 4.5 4.5s-2 4.5-4.5 4.5-4.5-2-4.5-4.5 2-4.5 4.5-4.5zm0-15c-13.2 0-24 8.8-24 19.5 0 9.9 9.1 18.3 21.3 19.4 1.5.1 2.7 1.4 2.7 3v5.3c7.2-3.5 24-14 24-27.7 0-10.8-10.8-19.5-24-19.5zm-4.7 52.7c-.9-.9-1.3-2-1.3-3.2v-5c-13.9-2.4-24-12.7-24-25 0-14.1 13.5-25.5 30-25.5s30 11.4 30 25.5c0 18.6-23.1 31.5-29.7 34.1-1.6.7-3.6.4-5-.9z" fill="#ed147d"/></svg>
