<svg xmlns="http://www.w3.org/2000/svg" viewBox="-133 256.9 120 120"><defs/><g transform="translate(104 56)"><circle cx="-177" cy="260.9" r="60" fill="#fff"/><path d="M-179.9 267.2c6-5.4 8.9-8.3 8.9-13.8 0-4.1-3.4-7.5-7.5-7.5-2.6 0-5 1.4-6.4 3.7-1.1 1.8-4.1 1.8-5.2 0-1.4-2.3-3.8-3.7-6.4-3.7-4.1 0-7.5 3.4-7.5 7.5 0 5.5 2.9 8.3 8.9 13.8 2.3 2.1 4.9 4.4 7.6 7.3 2.7-2.9 5.3-5.2 7.6-7.3zm14.9-13.8c0 8.4-4.8 12.7-10.9 18.2-2.8 2.5-6 5.4-9.3 9.2-.6.7-1.4 1-2.3 1-.9 0-1.7-.4-2.3-1-3.3-3.8-6.5-6.7-9.3-9.2-6.1-5.5-10.9-9.8-10.9-18.2 0-7.4 6.1-13.5 13.5-13.5 3.4 0 6.6 1.3 9 3.5 2.4-2.2 5.6-3.5 9-3.5 7.4 0 13.5 6 13.5 13.5zm7.5-13.5c7.4 0 13.5 6.1 13.5 13.5 0 8.4-4.8 12.7-10.9 18.2-2.8 2.5-6 5.4-9.3 9.2-.6.7-1.4 1-2.3 1s-1.7-.4-2.3-1c-.9-1-1.8-2-2.7-2.9-1.1-1.2-1.1-3.1.1-4.2 1.2-1.2 3.1-1.1 4.2.1l.6.6c2.7-2.9 5.3-5.2 7.6-7.3 6-5.4 8.9-8.3 8.9-13.8 0-4.1-3.4-7.5-7.5-7.5-.7 0-1.4.1-2.1.3-1.6.5-3.3-.4-3.7-2-.5-1.6.4-3.3 2-3.7 1.3-.3 2.6-.5 3.9-.5z" fill="#ed147d"/></g></svg>
