<svg xmlns="http://www.w3.org/2000/svg" viewBox="-133 256.9 120 120"><defs/><circle cx="-73" cy="316.9" r="60" fill="#fff"/><path d="M-100 306.9c-1.7 0-3-1.3-3-3s1.3-3 3-3h6c1.7 0 3 1.3 3 3s-1.3 3-3 3h-6zm0 15c-1.7 0-3-1.3-3-3s1.3-3 3-3h6c1.7 0 3 1.3 3 3s-1.3 3-3 3h-6zm18 9c1.7 0 3 1.3 3 3s-1.3 3-3 3h-18c-1.7 0-3-1.3-3-3s1.3-3 3-3h18zm32.9-16.2c.4-1.9 0-3.9-1.2-5.4-1-1.4-2.4-2.2-4-2.4-2.7-.3-5.2 1.2-6.2 3.6-.6 1.4-2 2.3-3.5 2.3s-2.9-.9-3.5-2.3c-1-2.3-3.1-3.7-5.5-3.7h-.7c-1.6.2-3 1-4 2.4-1.1 1.6-1.6 3.5-1.2 5.4.8 3.6 4 6.2 8.5 9.8 2 1.5 4.1 3.3 6.3 5.3 2.2-2 4.4-3.7 6.3-5.3 4.7-3.5 7.9-6.1 8.7-9.7zm3.6-8.9c2.1 2.9 2.9 6.6 2.2 10.2-1.2 5.8-5.6 9.2-10.6 13.2-2.5 1.9-5.2 4.1-7.9 6.8-.6.6-1.4.9-2.1.9-.8 0-1.5-.3-2.1-.9-2.7-2.7-5.5-4.9-7.9-6.8-5.1-4-9.5-7.5-10.6-13.2-.7-3.5.1-7.2 2.2-10.2 2-2.7 4.9-4.4 8.2-4.8 4-.4 7.8 1.1 10.3 4 2.5-2.9 6.3-4.4 10.3-4 3.2.3 6.1 2 8 4.8z" fill="#ed147d"/></svg>
