<svg xmlns="http://www.w3.org/2000/svg" viewBox="0 0 88 88"><defs/><g fill-rule="nonzero" fill="none"><circle fill="#FFF" cx="43.92" cy="43.92" r="43.92"/><path d="M57.337 38.19c2.9-2.502 4.412-3.925 4.412-6.44 0-1.93-1.57-3.5-3.5-3.5a3.501 3.501 0 00-2.917 1.572c-.646.978-2.266.978-2.916 0A3.497 3.497 0 0046 31.75c0 2.515 1.514 3.938 4.414 6.44 1.086.938 2.276 1.965 3.461 3.194 1.185-1.229 2.377-2.256 3.463-3.194zm.912-13.44c3.862 0 7 3.141 7 7 0 4.233-2.732 6.592-5.624 9.09-1.467 1.265-2.982 2.574-4.405 4.28a1.752 1.752 0 01-2.69 0c-1.423-1.706-2.938-3.015-4.405-4.28-2.892-2.498-5.626-4.857-5.626-9.09 0-3.859 3.141-7 7-7 1.615 0 3.15.555 4.375 1.538a6.986 6.986 0 014.375-1.538zM55.84 50.002a1.749 1.749 0 012.438-.434c.793.553.985 1.643.434 2.437-4.331 6.206-11.863 10.096-14.399 11.07a2.586 2.586 0 01-.942.176 2.594 2.594 0 01-1.48-.459 2.63 2.63 0 01-1.141-2.17v-2.917c-8.085-1.384-14-7.427-14-14.576 0-5.741 3.766-10.867 9.83-13.378a1.75 1.75 0 011.34 3.232c-4.732 1.96-7.67 5.848-7.67 10.146 0 5.79 5.336 10.647 12.411 11.3.9.084 1.589.838 1.589 1.743v3.124c3.342-1.565 8.582-4.982 11.59-9.294z" fill="#ED147D"/></g></svg>
