<svg xmlns="http://www.w3.org/2000/svg" style="isolation:isolate" viewBox="241.12 118.62 77.76 77.76"><circle vector-effect="non-scaling-stroke" cx="280" cy="157.5" r="38.88" fill="#9013FE"/><path d="M283.818 157.981a1.92 1.92 0 112.54 2.878 9.612 9.612 0 01-12.716 0 1.92 1.92 0 012.54-2.878c2.108 1.859 5.527 1.859 7.636 0zm1.942-8.161a1.92 1.92 0 010 3.84h-1.92a1.92 1.92 0 010-3.84h1.92zm-9.6 3.84h-1.92a1.92 1.92 0 01-1.92-1.92v-.96a2.878 2.878 0 012.88-2.88 2.878 2.878 0 012.88 2.88v.96c0 1.06-.86 1.92-1.92 1.92zm15.36 18.24v-18.24c0-6.353-5.167-11.52-11.52-11.52s-11.52 5.167-11.52 11.52v18.24c0 .528.43.96.96.96.161-.002.42-.228.516-.551l.567-1.909c.57-1.927 2.279-3.283 4.159-3.3 1.956.017 3.665 1.373 4.237 3.3l.565 1.909c.201.67.848.62 1.032 0l.567-1.909c.57-1.927 2.279-3.283 4.159-3.3 1.956.017 3.665 1.373 4.237 3.3l.565 1.909c.096.326.368.526.516.551.528 0 .96-.432.96-.96zM280 138.3c8.469 0 15.36 6.891 15.36 15.36v18.24c0 2.648-2.152 4.8-4.8 4.8h-.038c-1.88-.017-3.589-1.373-4.161-3.3l-.565-1.909c-.201-.67-.846-.62-1.032 0l-.567 1.909c-.57 1.927-2.279 3.283-4.159 3.3-1.956-.017-3.665-1.373-4.237-3.3l-.565-1.909c-.199-.67-.846-.62-1.032 0l-.567 1.909c-.57 1.927-2.317 3.283-4.197 3.3a4.805 4.805 0 01-4.8-4.8v-18.24c0-8.469 6.891-15.36 15.36-15.36z" fill="#FFF"/></svg>
