<svg xmlns="http://www.w3.org/2000/svg" width="161" height="141"><g fill="none" fill-rule="evenodd"><path fill="#F9F0FF" d="M151.441 70.627c0 38.66-31.34 70-70 70s-70-31.34-70-70 31.34-70 70-70 70 31.34 70 70"/><path fill="#DFC7FF" d="M12.592 67.308c5.092 3.006 53.84 61.913 56.27 72.19-12.384-2.247-23.63-7.753-32.823-15.595-.917-9.04-4.25-17.584-11.12-24.877-2.658-2.742-6.041-4.268-9.587-5.345a69.875 69.875 0 0 1-3.89-23.054c0-1.276.036-2.543.103-3.803.34.117.69.273 1.047.484zm137.495-10.435a70.276 70.276 0 0 1 1.355 13.754 70.34 70.34 0 0 1-1.493 14.434c-3.26 1.299-7.324 2.202-13.071 3.035-9.276 1.675-16.234 21.599-21.135 43.56-10.138 5.71-21.838 8.971-34.301 8.971a71.3 71.3 0 0 1-3.404-.083c4.597-18.656 70.824-84.543 72.049-83.671z"/><path fill="#FACEFF" d="M153.932 52.525c3.471-4.375-2.248-8.194-5.26-4.419-.357.448-.715.868-1.075 1.274.83-3.22-3.304-5.657-5.777-2.949-2.279 2.496-12.079 8.096-16.235 8.48-2.849.263-7.297-.534-10.781-5.711-3.774-5.607-10.814-.51-6.746 5.459 3.047 4.472 3.158 9.868-7.912 24.624-13.283 17.703-20.722 39.672-24.063 61.155 6.95.532 14.098.029 21.245-1.637a70.117 70.117 0 0 0 15.7-5.693c3.886-26.071 10.473-53.157 21.21-55.544 12.158-2.264 16.681-4.54 21.89-10.305 1.851-2.047.474-5.088-1.876-5.204 2.169-1.72 3.974-3.263 4.752-4.2 3.17-3.815-2.424-8.046-5.072-5.33"/><path fill="#6D64FA" d="M70.352 139.746c-1.186-11.262-3.647-22.907-7.275-34.716-6.13-19.963-13.561-25.15-4.065-29.64 5.63-2.662 1.43-8.962-3.227-6.68-8.158 3.997-15.273 2.23-19.387.114-4.656-2.396-9.507-6.019-14.234-9.571-4.293-3.229-8.375 1.954-4.768 4.821a46.984 46.984 0 0 0-3.854-1.146c-4.886-1.221-6.573 3.948-3.905 5.604-3.35.236-4.76 6.134.17 7.34.944.231 1.82.458 2.663.681-2.457 1.184-2.028 4.977 1.186 6.153 6.08 2.225 13.177 4.02 17.379 9.612 7.622 10.257 9.296 21.892 7.5 33.604 9.085 7.06 19.952 11.936 31.817 13.824"/><path fill="#1F2F49" d="M158.917 52.274c1.568 1.35 2.331 3.703.49 5.915-.7.839-2.177 2.135-3.99 3.605a3.4 3.4 0 0 1 .994.672 3.693 3.693 0 0 1 .105 5.144c-5.403 5.979-10.17 8.233-22.162 10.466-.007.007-.013.007-.02.007h-.008c-10.383 2.352-16.845 28.938-20.7 54.712-.404.209-.808.418-1.217.62 3.892-26.292 10.574-53.775 21.644-56.34a.314.314 0 0 1 .091-.028c.007 0 .022-.007.028-.007 1.737-.322 3.312-.644 4.76-.981 8.337-1.925 12.362-4.234 16.807-9.149 1.134-1.26.812-2.841-.055-3.688a2.207 2.207 0 0 0-1.268-.623c-.769-.112-1.715.167-2.73 1.14a17.423 17.423 0 0 1-4.767 3.207c-.658.3-1.287.538-1.875.735-.497.168-.953.294-1.366.391v.007c-1.287.316-2.149.372-2.24.379a.537.537 0 0 1-.56-.498.525.525 0 0 1 .497-.552c.028 0 1.17-.084 2.807-.567a19.52 19.52 0 0 0 1.352-.463c1.68-.65 3.64-1.694 5.425-3.394 1.113-1.064 2.19-1.47 3.135-1.47 2.066-1.645 3.773-3.108 4.509-3.998 1.476-1.777.727-3.507-.371-4.444-1.132-.974-2.83-1.32-3.938-.157-.136.166-.28.336-.445.507-.026.027-.06.041-.09.062-7.118 7.681-15.401 8.625-15.758 8.66a.507.507 0 0 1-.573-.463.527.527 0 0 1 .469-.58c.083-.007 8.602-.987 15.54-8.82.034-.039.07-.07.104-.107.85-1.082 1.146-2.2.826-3.183-.3-.938-1.162-1.666-2.183-1.856-1.142-.202-2.275.267-3.102 1.296-.335.42-.665.812-1.008 1.197-.405.475-.826.93-1.246 1.35-6.923 7.078-13.593 7.197-14.014 7.197h-.007a.524.524 0 1 1 0-1.05c.042 0 2.065-.028 4.998-1.211 2.625-1.058 5.992-3.045 9.317-6.783.281-1.303-.406-2.317-1.183-2.842-1.007-.68-2.554-.792-3.73.496-2.346 2.569-12.314 8.254-16.577 8.653-2.547.23-7.413-.224-11.263-5.943-.959-1.421-2.197-2.192-3.506-2.192-.085 0-.162 0-.239.007-1.217.085-2.317.855-2.877 2.003-.713 1.47-.44 3.31.742 5.053 3.318 4.865 3.087 10.556-7.923 25.229-13.339 17.782-20.705 39.614-23.999 60.879-.35-.024-.698-.054-1.047-.084 3.312-21.444 10.739-43.476 24.205-61.425 10.634-14.168 10.948-19.537 7.897-24.011-1.4-2.057-1.702-4.283-.819-6.096.72-1.492 2.156-2.486 3.744-2.598 1.772-.126 3.48.84 4.691 2.646 3.548 5.272 7.972 5.698 10.297 5.482 3.99-.364 13.699-5.901 15.897-8.31.875-.958 1.903-1.344 2.884-1.344.804 0 1.581.26 2.204.68.812.539 1.464 1.414 1.66 2.47l.083-.105c1.072-1.344 2.57-1.952 4.11-1.673 1.421.26 2.568 1.24 2.996 2.563.177.546.313 1.442-.08 2.538 1.266-.252 2.643.222 3.628 1.067zm-34.076 19.578a.524.524 0 0 1-.458-.78c3.681-6.628 11.08-3.762 11.153-3.732.27.107.4.413.293.681a.521.521 0 0 1-.681.294c-.27-.107-6.618-2.545-9.848 3.267a.523.523 0 0 1-.46.27zm-61.263 33.026c3.732 12.142 6.18 23.83 7.355 34.953-.359-.055-.72-.1-1.077-.16-1.178-10.974-3.6-22.503-7.28-34.485-1.917-6.237-3.94-10.99-5.572-14.812-3.562-8.35-5.187-12.159 1.785-15.456 1.45-.692 2.303-1.7 2.395-2.848.076-1.037-.47-2.08-1.421-2.724-1.085-.742-2.458-.797-3.746-.168-9.282 4.55-16.982 1.596-19.858.112-4.796-2.47-9.85-6.264-14.308-9.618-1.673-1.26-3.017-.951-3.669-.664-.916.413-1.56 1.294-1.637 2.246-.07.875.322 1.701 1.12 2.36 8.414 2.919 14.945 7.581 15.014 7.637a.524.524 0 0 1-.307.951.568.568 0 0 1-.309-.098c-.056-.042-3.906-2.793-9.464-5.361a55.261 55.261 0 0 0-5.452-2.191 42.282 42.282 0 0 0-3.731-1.113c-2.163-.54-3.305.314-3.794.875-.68.77-.903 1.875-.56 2.75a2 2 0 0 0 .72.932c.246-.007.497.02.756.07 10.36 1.994 19.482 7.013 19.572 7.062a.523.523 0 1 1-.503.918c-.091-.05-8.408-4.62-18.11-6.713-.384-.084-.77-.162-1.155-.238a2.503 2.503 0 0 0-.819-.029c-1.218.155-2.064 1.225-2.316 2.394-.309 1.414.216 3.291 2.722 3.9.882.217 1.716.426 2.506.636 0-.007.007 0 .007 0 .91-.378 2.136-.469 3.71-.042 1.499.414 2.78.785 3.878 1.12.442.134.848.26 1.225.385 3.837 1.225 4.865 1.842 4.915 1.876a.522.522 0 0 1 .168.721.514.514 0 0 1-.715.168c-.013-.006-.868-.503-3.856-1.497-.393-.126-.82-.267-1.288-.413a139.75 139.75 0 0 0-3.83-1.128.516.516 0 0 0-.098-.028c-.223-.062-.447-.125-.678-.188-1.526-.414-2.612-.274-3.332.14a2.184 2.184 0 0 0-1.009 1.239c-.427 1.33.322 3.135 2.303 3.863.847.315 1.722.616 2.597.917 3.304 1.148 6.678 2.324 9.647 4.123 2.03 1.232 3.878 2.751 5.382 4.76 6.574 8.856 9.248 19.384 7.952 31.36-.104.964-.243 1.94-.4 2.922a69.368 69.368 0 0 1-.944-.734c.116-.777.219-1.55.301-2.314 1.26-11.69-1.336-21.959-7.741-30.597l-.007-.006c-3.515-4.69-9.115-6.637-14.533-8.52-.882-.308-1.757-.609-2.61-.924-2.576-.945-3.522-3.373-2.947-5.172.14-.442.385-.875.741-1.247a104.81 104.81 0 0 0-1.588-.399c-3.038-.742-3.949-3.115-3.507-5.145.28-1.26 1.133-2.47 2.358-2.982a3.048 3.048 0 0 1-.454-.805c-.49-1.253-.197-2.758.748-3.828 1.106-1.26 2.87-1.694 4.837-1.205.736.183 1.463.386 2.184.61a3.47 3.47 0 0 1-.356-1.855c.112-1.351.98-2.542 2.26-3.122 1.47-.659 3.193-.372 4.725.784 4.424 3.325 9.443 7.097 14.162 9.526 2.737 1.407 10.065 4.221 18.913-.119 1.639-.805 3.389-.72 4.802.238 1.26.855 1.981 2.261 1.87 3.668-.12 1.54-1.183 2.863-2.99 3.718-6.061 2.87-4.85 5.697-1.267 14.097 1.639 3.843 3.675 8.624 5.608 14.917zM40.04 88.493a.527.527 0 0 1-.508-.394c-.642-2.483-2.769-4.114-5.69-4.363a.524.524 0 0 1-.478-.567.535.535 0 0 1 .567-.479c3.385.287 5.86 2.21 6.619 5.147a.526.526 0 0 1-.51.656zm.473-34.272a.526.526 0 0 1-.501-.682c.067-.214 1.677-5.268 4.884-7.973a.524.524 0 1 1 .677.802c-2.976 2.51-4.543 7.435-4.559 7.485a.526.526 0 0 1-.501.368zm-1.821-1.549a.526.526 0 0 1-.501-.682c.067-.213 1.677-5.267 4.884-7.973a.524.524 0 1 1 .677.803c-2.976 2.51-4.543 7.434-4.559 7.485a.526.526 0 0 1-.501.367zm81.279-11.175a.524.524 0 0 1-.517-.438c-.508-3.028-3.604-5.627-3.634-5.653a.524.524 0 1 1 .67-.808c.14.117 3.428 2.879 3.999 6.287a.524.524 0 0 1-.518.612zm1.893-1.353a.524.524 0 0 1-.517-.438c-.508-3.028-3.603-5.627-3.634-5.653a.524.524 0 1 1 .67-.808c.14.117 3.429 2.879 4 6.287a.524.524 0 0 1-.519.612z"/><path fill="#FFF" d="M3.366 61.138a.697.697 0 0 1-.399-.125L.3 59.16a.701.701 0 0 1 .8-1.15l2.667 1.854a.7.7 0 0 1-.4 1.274zm-2.237 7.85a.7.7 0 0 1-.195-1.371l1.915-.557a.699.699 0 1 1 .391 1.344l-1.915.557a.7.7 0 0 1-.196.028zM9.545 58.55a.7.7 0 0 1-.674-.512l-.535-1.923a.701.701 0 0 1 1.35-.374l.535 1.921a.702.702 0 0 1-.676.888z"/><path fill="#ED147D" d="M58.208 24.405l.61-1.992c.354-1.141 1.726-4.975 4.592-5.979 4.074-1.427 8.56.764 10.003 4.885 2.282 6.52-5.886 14.919-8.658 21.786-6.45-3.637-18.074-5.109-20.357-11.629-1.442-4.12.698-8.63 4.773-10.057 2.866-1.003 6.33 1.139 7.318 1.809l1.72 1.177zm47.463-2.693l1.046-.664c.602-.379 2.705-1.58 4.39-.925 2.392.933 3.571 3.658 2.628 6.078-1.49 3.83-8.432 4.464-12.343 6.494-1.507-4.14-6.19-9.303-4.697-13.132.942-2.42 3.654-3.63 6.048-2.698 1.683.656 2.419 2.965 2.606 3.65l.322 1.197z"/></g></svg>
