<svg xmlns="http://www.w3.org/2000/svg" viewBox="0 0 80 56"><path fill="#1927f0" d="M54.9 28.4c.4 2 .6 4 .6 6v21c0 .3-.2.5-.5.5h-6.9c-.3 0-.5-.2-.5-.5V35.3c0-1.3-.1-2.6-.3-3.9-.1-1.1-.5-2.2-1-3.2-.5-.9-1.3-1.6-2.1-2.1-1.2-.6-2.5-.9-3.8-.8-3.1 0-5.3 1-6.6 2.8-1.4 2.2-2.1 4.9-2 7.5v19.7c0 .3-.2.5-.5.5h-6.9c-.3 0-.5-.2-.5-.5V36.5c0-1.6-.1-3.1-.3-4.7-.1-1.2-.5-2.4-1-3.5-.5-.9-1.2-1.7-2.1-2.2-1.1-.6-2.4-.9-3.7-.8-1.1 0-2.3.2-3.3.7-1.1.5-2 1.1-2.8 2-.9 1-1.6 2.2-2 3.5-.5 1.7-.8 3.4-.7 5.1v18.7c0 .3-.2.5-.5.5h-7c-.3 0-.5-.2-.5-.5v-36c0-.3.2-.5.5-.5h6.4c.3 0 .5.2.5.5v3.9c.1-.2.3-.3.4-.5.7-.9 1.6-1.6 2.5-2.2 1.1-.8 2.3-1.4 3.6-1.9 1.5-.5 3.1-.8 4.6-.8 2.4-.1 4.9.5 7 1.8 1.7 1.1 3.2 2.6 4.2 4.4 1.1-1.9 2.8-3.4 4.7-4.4 2.1-1.1 4.4-1.7 6.7-1.7 2.4-.1 4.9.4 7.1 1.4 1.8.9 3.3 2.2 4.4 3.8 1.2 1.6 1.9 3.4 2.3 5.3zM65.8 26c.3 0 .6-.1.8-.3 2.7-1.8 5.2-3.7 7.6-5.8 2.9-2.7 5.8-6.4 5.8-11.4C80.1 4 76.5.2 71.9.1c-2.5.1-4.7 1.4-6.1 3.5h-.1C64.4 1.5 62.1.2 59.6.1c-4.5.1-8.1 3.9-8.1 8.4 0 5 2.9 8.8 5.8 11.5 2.4 2.1 4.9 4.1 7.6 5.8.4.1.7.2.9.2z"/></svg>
