<svg xmlns="http://www.w3.org/2000/svg" viewBox="0 0 88 88"><defs/><g fill-rule="nonzero" fill="none"><circle fill="#FFF" cx="43.92" cy="43.92" r="43.92"/><path d="M36 36.54c0 4.368 3.552 7.92 7.92 7.92s7.92-3.552 7.92-7.92-3.552-7.92-7.92-7.92S36 32.172 36 36.54zm7.92 13.86c-5.98 0-11.37 3.372-14.066 8.801a1.98 1.98 0 01-3.548-1.762c2.556-5.142 7.053-8.795 12.34-10.27-3.91-1.947-6.606-5.974-6.606-10.629 0-6.552 5.328-11.88 11.88-11.88 6.552 0 11.88 5.328 11.88 11.88 0 4.655-2.697 8.682-6.605 10.629 5.28 1.473 9.771 5.118 12.33 10.25.137.27.215.576.215.901 0 1.095-.885 1.98-1.98 1.98a1.978 1.978 0 01-1.783-1.116c-2.7-5.42-8.084-8.784-14.057-8.784z" fill="#ED147D"/></g></svg>
