<svg xmlns="http://www.w3.org/2000/svg" width="60" height="60" viewBox="0 0 50 50"><g fill="none" fill-rule="evenodd"><path fill="#ed147d" d="M25 .806C38.362.806 49.194 11.638 49.194 25c0 13.362-10.832 24.194-24.194 24.194C11.638 49.194.806 38.362.806 25 .806 11.638 11.638.806 25 .806z"/><path fill="#ececec" d="M15 24c0 2.206 1.794 4 4 4s4-1.794 4-4-1.794-4-4-4-4 1.794-4 4zm12.896 10.555a1.001 1.001 0 01-1.792.89C24.742 32.703 22.02 31 19 31c-3.02 0-5.742 1.703-7.104 4.445a1 1 0 01-1.792-.89c1.291-2.596 3.562-4.442 6.232-5.187A5.999 5.999 0 0113 24c0-3.309 2.691-6 6-6 3.31 0 6 2.691 6 6a5.999 5.999 0 01-3.336 5.368c2.67.745 4.941 2.591 6.232 5.187zM32 20h-4a1 1 0 110-2h4a1 1 0 110 2zm0 5h-3a1 1 0 110-2h3a1 1 0 110 2zm0 5h-4a1 1 0 110-2h4a1 1 0 110 2zm1.077 6H31a1 1 0 110-2h2.077A2.927 2.927 0 0036 31.077V16.923A2.927 2.927 0 0033.077 14h-9.154a2.93 2.93 0 00-2.549 1.491.998.998 0 01-1.362.38.998.998 0 01-.38-1.362A4.932 4.932 0 0123.923 12h9.154A4.928 4.928 0 0138 16.923v14.154A4.928 4.928 0 0133.077 36z"/></g></svg>
