<svg xmlns="http://www.w3.org/2000/svg" viewBox="0 0 88 88"><defs/><g fill-rule="nonzero" fill="none"><circle fill="#FFF" cx="43.92" cy="43.92" r="43.92"/><path d="M48.417 58.208a1.96 1.96 0 001.958-1.958 1.96 1.96 0 00-1.958-1.958 1.96 1.96 0 00-1.959 1.958 1.96 1.96 0 001.959 1.958zm11.75-3.916c1.083 0 1.958.875 1.958 1.958a1.957 1.957 0 01-1.958 1.958H53.93c-.808 2.276-2.96 3.917-5.514 3.917-2.554 0-4.706-1.641-5.515-3.917H28.833a1.958 1.958 0 110-3.916h14.069c.809-2.278 2.961-3.917 5.515-3.917 2.553 0 4.706 1.64 5.514 3.917h6.236zM32.75 46.458c1.079 0 1.958-.879 1.958-1.958s-.879-1.958-1.958-1.958-1.958.879-1.958 1.958.879 1.958 1.958 1.958zm27.417-3.916a1.958 1.958 0 110 3.916H38.265c-.81 2.278-2.961 3.917-5.515 3.917a5.875 5.875 0 110-11.75c2.554 0 4.706 1.64 5.515 3.917h21.902zm-7.834-11.75c-1.079 0-1.958.879-1.958 1.958s.88 1.958 1.958 1.958c1.08 0 1.959-.879 1.959-1.958s-.88-1.958-1.959-1.958zm-23.5 3.916a1.959 1.959 0 010-3.916H46.82c.808-2.278 2.96-3.917 5.514-3.917 2.556 0 4.706 1.64 5.515 3.917h2.319a1.958 1.958 0 110 3.916h-2.319c-.809 2.278-2.959 3.917-5.515 3.917-2.553 0-4.706-1.64-5.514-3.917H28.833z" fill="#ED147D"/></g></svg>
