<svg xmlns="http://www.w3.org/2000/svg" viewBox="0 0 102 102"><defs/><g fill="none" fill-rule="evenodd"><circle fill="#ED147D" cx="50.75" cy="50.75" r="50.75"/><path d="M71.833 58.046L63.5 53.879v-5.758l8.333-4.165v14.09zm-12.5 3.37c0 1.15-.933 2.084-2.083 2.084H36.417a2.084 2.084 0 01-2.084-2.083V40.583c0-1.148.934-2.083 2.084-2.083H57.25c1.15 0 2.083.935 2.083 2.083v20.834zm14.877-21.31a3.746 3.746 0 00-3.668-.162L63.5 43.462v-2.879a6.258 6.258 0 00-6.25-6.25H36.417a6.258 6.258 0 00-6.25 6.25v20.834a6.258 6.258 0 006.25 6.25H57.25a6.258 6.258 0 006.25-6.25v-2.88l7.042 3.521a3.77 3.77 0 001.687.402c.69 0 1.373-.19 1.983-.564A3.755 3.755 0 0076 58.686v-15.37a3.747 3.747 0 00-1.79-3.21z" fill="#FFEDF4" fill-rule="nonzero"/></g></svg>
