<svg xmlns="http://www.w3.org/2000/svg" viewBox="0 0 300 90"><path d="M75.87 47.16a43.05 43.05 0 0 1 .81 8.32v29.14a.73.73 0 0 1-.72.73h-9.52a.72.72 0 0 1-.73-.72V56.75a40.44 40.44 0 0 0-.36-5.39A11.91 11.91 0 0 0 63.91 47a8 8 0 0 0-3-2.95 10.55 10.55 0 0 0-5.23-1.12c-4.3 0-7.4 1.32-9.22 3.91S43.63 53 43.63 57.28v27.34a.73.73 0 0 1-.72.73H33.4a.72.72 0 0 1-.74-.72v-26.2A53.52 53.52 0 0 0 32.3 52a14.59 14.59 0 0 0-1.42-4.88A7.5 7.5 0 0 0 28 44a10.29 10.29 0 0 0-5.19-1.11 11.82 11.82 0 0 0-4.62.94 11 11 0 0 0-3.91 2.83 13.76 13.76 0 0 0-2.7 4.86 22.23 22.23 0 0 0-1 7.1v26a.73.73 0 0 1-.69.73H.35a.72.72 0 0 1-.74-.72v-50a.74.74 0 0 1 .74-.74h8.86a.74.74 0 0 1 .74.74V40c.17-.23.35-.47.55-.7a17.52 17.52 0 0 1 3.5-3.16 21.54 21.54 0 0 1 5-2.52 19 19 0 0 1 6.43-1A18.48 18.48 0 0 1 35.26 35a17.5 17.5 0 0 1 5.85 6.12A16.52 16.52 0 0 1 47.62 35a20 20 0 0 1 9.32-2.41 21.64 21.64 0 0 1 9.84 2 16.08 16.08 0 0 1 6.08 5.26 20 20 0 0 1 3.01 7.31zm52 33.21c.06 1.45.17 2.86.31 4.17a.73.73 0 0 1-.65.81H119a.74.74 0 0 1-.73-.66c-.15-1.89-.25-3.8-.3-5.69a18.07 18.07 0 0 1-6.68 5.55A24.55 24.55 0 0 1 101 86.62a23.82 23.82 0 0 1-6.87-1 17 17 0 0 1-5.79-3 14.3 14.3 0 0 1-3.94-5 15.26 15.26 0 0 1-1.45-6.81 15.29 15.29 0 0 1 2.28-8.54 17.32 17.32 0 0 1 6.18-5.57 29.41 29.41 0 0 1 9-3 61.57 61.57 0 0 1 10.84-.91h6.24v-1.32a10 10 0 0 0-.69-3.54 9.72 9.72 0 0 0-2.06-3.19 10 10 0 0 0-3.45-2.25 13.33 13.33 0 0 0-5-.85 18.87 18.87 0 0 0-4.62.51A19.92 19.92 0 0 0 98 43.42a15.86 15.86 0 0 0-2.93 1.77l-2.65 2a.72.72 0 0 1-1-.08l-5.7-5.91a.7.7 0 0 1-.21-.53.78.78 0 0 1 .23-.52 27.48 27.48 0 0 1 9.55-5.7 32.85 32.85 0 0 1 10.8-1.88 29.75 29.75 0 0 1 9.73 1.43 19.16 19.16 0 0 1 6.75 3.85 15.27 15.27 0 0 1 3.93 5.6 17.53 17.53 0 0 1 1.27 6.55v25.55c.01 1.73.05 3.36.12 4.82zm-14.76-19.08a65 65 0 0 0-6.84.36A26.93 26.93 0 0 0 100 63a11.83 11.83 0 0 0-4.47 2.78 5.92 5.92 0 0 0-1.64 4.35c0 2.64.84 4.48 2.57 5.61a13.57 13.57 0 0 0 7.47 1.78 14.67 14.67 0 0 0 6.33-1.24 11.8 11.8 0 0 0 4.18-3.23 12.93 12.93 0 0 0 2.3-4.45 18.1 18.1 0 0 0 .71-4.91v-2.4zm52.81 13.63a.73.73 0 0 0-.73 0 9.22 9.22 0 0 1-3 1.08 18.91 18.91 0 0 1-3.36.3 6.78 6.78 0 0 1-3.77-.86 5.23 5.23 0 0 1-1.85-2.33 10.39 10.39 0 0 1-.74-3.44c-.07-1.35-.1-2.74-.1-4.14v-22h12.88a.72.72 0 0 0 .74-.72v-8.23a.74.74 0 0 0-.74-.74h-12.9V20.53a.74.74 0 0 0-.74-.73h-9.5a.73.73 0 0 0-.73.74v13.3h-10.25a.73.73 0 0 0-.73.73v8.23a.73.73 0 0 0 .72.73h10.26v25.36c0 2.06.09 4.13.26 6.12a13.58 13.58 0 0 0 1.79 5.75 11.27 11.27 0 0 0 4.73 4.24 19.93 19.93 0 0 0 8.84 1.61 33.87 33.87 0 0 0 4.27-.38 13.23 13.23 0 0 0 4.64-1.41.74.74 0 0 0 .37-.64v-8.64a.72.72 0 0 0-.36-.62zm19.93-26.85a13.27 13.27 0 0 1 4.61-3.7 14.51 14.51 0 0 1 6.48-1.37 14.86 14.86 0 0 1 6.6 1.35 19.44 19.44 0 0 1 5.34 4 .73.73 0 0 0 1 0l7.18-6.54a.79.79 0 0 0 .24-.51.73.73 0 0 0-.2-.53 23.77 23.77 0 0 0-9-6.15 29.35 29.35 0 0 0-10.76-2 29 29 0 0 0-11 2 24.54 24.54 0 0 0-14 14.19 29.8 29.8 0 0 0-1.95 10.93 29.45 29.45 0 0 0 1.95 10.87 24.38 24.38 0 0 0 5.66 8.55 25.46 25.46 0 0 0 8.53 5.5 29.59 29.59 0 0 0 10.89 2A31.2 31.2 0 0 0 208 84.77a22.24 22.24 0 0 0 8.9-6.12.73.73 0 0 0 0-1l-6.76-6.76a.72.72 0 0 0-1 0 16.86 16.86 0 0 1-5.07 4 14.5 14.5 0 0 1-6.54 1.35 15.42 15.42 0 0 1-6.41-1.24 14.42 14.42 0 0 1-4.82-3.47 16 16 0 0 1-3.14-5.18 18.28 18.28 0 0 1-1.11-6.35 21.63 21.63 0 0 1 1-6.49 16.87 16.87 0 0 1 2.8-5.44zm82.2-4.53a17.47 17.47 0 0 0-4.15-6.23 16.41 16.41 0 0 0-6.07-3.59 22.52 22.52 0 0 0-7.15-1.14 21.34 21.34 0 0 0-10.6 2.57 15.72 15.72 0 0 0-5.35 4.71V4.8a.73.73 0 0 0-.73-.73h-9.5a.73.73 0 0 0-.74.72v79.83a.73.73 0 0 0 .72.73H234a.72.72 0 0 0 .74-.72V58.86a23 23 0 0 1 1-7.27 13.52 13.52 0 0 1 2.8-4.93 10.79 10.79 0 0 1 4.16-2.83 14.58 14.58 0 0 1 5.23-.9 12.56 12.56 0 0 1 4 .64 8.73 8.73 0 0 1 3.37 2 10.32 10.32 0 0 1 2.36 3.77 16 16 0 0 1 .9 5.7v29.62a.73.73 0 0 0 .72.73h9.52a.73.73 0 0 0 .73-.73V52.42a23.8 23.8 0 0 0-1.48-8.88zm11.91-5a2 2 0 0 0 1.08-.39 101.44 101.44 0 0 0 10.53-8.11c4-3.73 8-8.9 8-15.9a11.46 11.46 0 0 0-11.2-11.64c-5.6 0-8.42 4.84-8.42 4.84h-.07s-2.82-4.84-8.42-4.84a11.45 11.45 0 0 0-11.2 11.64c0 7 4.06 12.15 8 15.89a102.12 102.12 0 0 0 10.54 8.14 2.09 2.09 0 0 0 1.2.38z" fill="#fff"/></svg>
