<svg xmlns="http://www.w3.org/2000/svg" viewBox="0 0 20 20"><path d="M10 18c4.411 0 8-3.589 8-8s-3.589-8-8-8-8 3.589-8 8 3.589 8 8 8zm0-18c5.523 0 10 4.478 10 10s-4.477 10-10 10S0 15.522 0 10 4.477 0 10 0zm3.757 12.03a1 1 0 011.044 1.567 5.93 5.93 0 01-4.8 2.403 6.058 6.058 0 01-4.798-2.396 1 1 0 011.04-1.575c.017.005 1.91.471 3.757.471 1.855 0 3.738-.466 3.757-.47zM7 10c-1.103 0-2-.897-2-2s.897-2 2-2 2 .897 2 2-.897 2-2 2zm4.998 0a1 1 0 01-.122-1.992l2-.25a1.006 1.006 0 011.117.868 1 1 0 01-.87 1.116l-2 .25A1.049 1.049 0 0112 10z" fill="#ffffff" fill-rule="nonzero"/></svg>
