<svg xmlns="http://www.w3.org/2000/svg" viewBox="0 0 78 78"><g fill-rule="nonzero" fill="none"><circle fill="#9013FE" cx="38.88" cy="38.88" r="38.88"/><path d="M39.36 45.12a1.92 1.92 0 10.001 3.841 1.92 1.92 0 00-.001-3.841m0 7.68a5.767 5.767 0 01-5.76-5.76 5.767 5.767 0 015.76-5.76c5.293 0 9.6-4.307 9.6-9.6 0-.65-.07-1.286-.192-1.903A13.398 13.398 0 0152.8 39.36c0 7.411-6.029 13.44-13.44 13.44m0-23.04a1.92 1.92 0 11-.001 3.841 1.92 1.92 0 01.001-3.841m0-7.68c-9.527 0-17.28 7.753-17.28 17.28 0 9.527 7.753 17.28 17.28 17.28 9.527 0 17.28-7.753 17.28-17.28 0-9.527-7.753-17.28-17.28-17.28" fill="#FFF"/></g></svg>
