<svg id="Stockholm-icons-_-Media-_-Airplay-video" data-name="Stockholm-icons-/-Media-/-Airplay-video" xmlns="http://www.w3.org/2000/svg" width="42.621" height="42.621" viewBox="0 0 42.621 42.621">
  <rect id="bound" width="42.621" height="42.621" fill="none"/>
  <path id="Combined-Shape" d="M13.1,27.534a1.776,1.776,0,1,1,0,3.552H11.328A5.328,5.328,0,0,1,6,25.759V13.328A5.328,5.328,0,0,1,11.328,8h21.31a5.328,5.328,0,0,1,5.328,5.328V25.759a5.328,5.328,0,0,1-5.328,5.328H30.862a1.776,1.776,0,0,1,0-3.552h1.776a1.776,1.776,0,0,0,1.776-1.776V13.328a1.776,1.776,0,0,0-1.776-1.776H11.328a1.776,1.776,0,0,0-1.776,1.776V25.759a1.776,1.776,0,0,0,1.776,1.776Z" transform="translate(-0.672 -0.897)" fill="#264e7d"/>
  <path id="Path-15" d="M16,38.879H30.207L23.1,30Z" transform="translate(-1.793 -3.362)" fill="#264e7d" fill-rule="evenodd" opacity="0.3"/>
</svg>
