<svg id="Stockholm-icons-_-Communication-_-Spam" data-name="Stockholm-icons-/-Communication-/-Spam" xmlns="http://www.w3.org/2000/svg" width="43.211" height="43.211" viewBox="0 0 43.211 43.211">
  <rect id="bound" width="43.211" height="43.211" fill="none"/>
  <path id="Combined-Shape" d="M8.7,6H35.708a2.7,2.7,0,0,1,2.7,2.7V35.708a2.7,2.7,0,0,1-2.7,2.7H8.7a2.7,2.7,0,0,1-2.7-2.7V8.7A2.7,2.7,0,0,1,8.7,6ZM15,9.6a1.8,1.8,0,1,0,0,3.6h14.4a1.8,1.8,0,0,0,0-3.6Z" transform="translate(-0.599 -0.599)" fill="#264e7d" fill-rule="evenodd"/>
  <text id="_5" data-name="5" transform="translate(17.104 29.607)" fill="#1db1c0" font-size="15" font-family="SegoeUI, Segoe UI"><tspan x="0" y="0">5</tspan></text>
</svg>
