<svg xmlns="http://www.w3.org/2000/svg" width="40" height="40" viewBox="0 0 40 40">
  <g id="Stockholm-icons-_-Map-_-Position" data-name="Stockholm-icons-/-Map-/-Position" transform="translate(0.37 0.37)">
    <rect id="bound" width="40" height="40" transform="translate(-0.37 -0.37)" fill="none"/>
    <path id="Oval" d="M31.81,18.723h3.272a1.636,1.636,0,1,1,0,3.272H31.81a1.636,1.636,0,1,1,0-3.272Zm-26.174,0H8.908a1.636,1.636,0,1,1,0,3.272H5.636a1.636,1.636,0,1,1,0-3.272ZM20.359,4a1.636,1.636,0,0,1,1.636,1.636V8.908a1.636,1.636,0,1,1-3.272,0V5.636A1.636,1.636,0,0,1,20.359,4Zm0,26.174a1.636,1.636,0,0,1,1.636,1.636v3.272a1.636,1.636,0,1,1-3.272,0V31.81A1.636,1.636,0,0,1,20.359,30.174Z" transform="translate(-0.728 -0.728)" fill="#264e7d" opacity="0.4"/>
    <circle id="Path" cx="3" cy="3" r="3" transform="translate(16.63 16.63)" fill="#264e7d" opacity="0.4"/>
    <path id="Oval-70" d="M21.451,29.63a8.179,8.179,0,1,0-8.179-8.179A8.179,8.179,0,0,0,21.451,29.63Zm0,3.272A11.451,11.451,0,1,1,32.9,21.451,11.451,11.451,0,0,1,21.451,32.9Z" transform="translate(-1.821 -1.821)" fill="#264e7d"/>
  </g>
</svg>
