<?xml version="1.0" encoding="UTF-8"?>
<svg width="59.877mm" height="14.642mm" version="1.1" viewBox="0 0 59.877 14.642" xmlns="http://www.w3.org/2000/svg">
  <g transform="translate(92.862 192.32)">
    <g transform="matrix(.35278 0 0 -.35278 -80.908 -180.36)">
      <path d="m0 0c1.071 0 2.12 0.093 3.144 0.263 2.814 3.543 4.5 8.023 4.5 12.899 0 11.16-8.805 20.26-19.845 20.741-4.243-3.515-6.951-8.823-6.951-14.751 0-10.56 8.591-19.152 19.152-19.152" fill="#0f4d80"/>
    </g>
    <g transform="matrix(.35278 0 0 -.35278 -88.802 -187.11)">
      <path d="M 0,0 C 0,5.474 1.979,10.493 5.255,14.385 -4.298,12.52 -11.508,4.109 -11.508,-5.99 c 0,-11.468 9.296,-20.764 20.764,-20.764 4.811,0 9.236,1.64 12.757,4.387 C 9.842,-22.171 0,-12.216 0,0" fill="#0f4d80"/>
    </g>
    <g transform="matrix(.35278 0 0 -.35278 -62.636 -188.38)">
      <path d="m0 0-11.38-26.972h-8.072l-11.33 26.972h8.072l7.47-18.349 7.72 18.349z" fill="#0f4d80"/>
    </g>
    <g transform="matrix(.35278 0 0 -.35278 -53.154 -187.46)">
      <path d="m0 0c2.056-2.005 3.083-4.98 3.083-8.924v-15.441h-7.821v14.238c0 2.138-0.468 3.735-1.403 4.788-0.936 1.053-2.29 1.579-4.061 1.579-1.973 0-3.543-0.61-4.713-1.83s-1.754-3.033-1.754-5.439v-13.336h-7.821v26.972h7.47v-3.158c1.035 1.135 2.322 2.013 3.86 2.632 1.537 0.618 3.225 0.927 5.064 0.927 3.341 0 6.041-1.003 8.096-3.008" fill="#0f4d80"/>
    </g>
    <g transform="matrix(.35278 0 0 -.35278 -47.182 -185.9)">
      <path d="m0 0c-1.203-1.003-1.939-2.374-2.206-4.111h13.285c-0.267 1.705-1.002 3.066-2.206 4.086-1.203 1.019-2.674 1.529-4.411 1.529-1.772 0-3.259-0.501-4.462-1.504m18.299-8.673h-20.405c0.368-1.672 1.236-2.992 2.607-3.961 1.37-0.97 3.075-1.454 5.114-1.454 1.404 0 2.648 0.209 3.735 0.627 1.086 0.418 2.097 1.078 3.033 1.98l4.161-4.512c-2.54-2.907-6.25-4.361-11.13-4.361-3.041 0-5.732 0.593-8.071 1.779-2.34 1.186-4.145 2.833-5.415 4.939-1.27 2.105-1.905 4.494-1.905 7.169 0 2.64 0.627 5.021 1.88 7.144 1.254 2.122 2.975 3.776 5.164 4.963 2.189 1.186 4.637 1.78 7.344 1.78 2.641 0 5.031-0.569 7.17-1.705 2.138-1.136 3.818-2.766 5.038-4.888 1.22-2.123 1.83-4.587 1.83-7.394 0-0.101-0.05-0.803-0.15-2.106" fill="#0f4d80"/>
    </g>
    <g transform="matrix(.35278 0 0 -.35278 -32.985 -179.32)">
      <path d="m0 0c-0.769-0.569-1.713-0.995-2.833-1.278-1.12-0.284-2.298-0.426-3.534-0.426-3.208 0-5.69 0.818-7.445 2.456-1.755 1.637-2.632 4.044-2.632 7.219v11.08h-4.161v6.016h4.161v6.567h7.821v-6.567h6.718v-6.016h-6.718v-10.979c0-1.137 0.292-2.014 0.878-2.632 0.584-0.619 1.411-0.928 2.481-0.928 1.236 0 2.289 0.334 3.158 1.003z" fill="#0f4d80"/>
    </g>
  </g>
</svg>
