<svg id="Wifi_icon" data-name="Wifi icon" xmlns="http://www.w3.org/2000/svg" width="42.211" height="42.211" viewBox="0 0 42.211 42.211">
  <rect id="bound" width="42.211" height="42.211" fill="none"/>
  <path id="Combined-Shape" d="M26.864,28.553V19.759a1.759,1.759,0,0,1,3.518,0v8.794h5.276a3.518,3.518,0,0,1,3.518,3.518v3.518a3.518,3.518,0,0,1-3.518,3.518H7.518A3.518,3.518,0,0,1,4,35.588V32.07a3.518,3.518,0,0,1,3.518-3.518ZM9.276,32.07a1.759,1.759,0,0,0,0,3.518H18.07a1.759,1.759,0,0,0,0-3.518Z" transform="translate(-0.482 -2.171)" fill="#264e7d" fill-rule="evenodd"/>
  <path id="Combined-Shape-2" data-name="Combined-Shape" d="M38.106,14.053,35.843,16.06a7.011,7.011,0,0,0-11.308-.017l-2.258-2.015a9.815,9.815,0,0,1,15.829.024Zm5.276-3.966-2.4,1.954A14.2,14.2,0,0,0,19.4,12.028L17,10.071a17.352,17.352,0,0,1,26.382.015Z" transform="translate(-2.05 -0.482)" fill="#264e7d" opacity="0.3"/>
</svg>
