<svg xmlns="http://www.w3.org/2000/svg" width="122" height="122" fill="none" viewBox="0 0 122 122">
  <path fill="#fff" stroke="#008481" stroke-linecap="round" stroke-linejoin="round" stroke-width="4.34" d="M40 76.93a11.87 11.87 0 00-4 3.32c-2.51 3.53-3.48 5.12-3.48 9.37 7.56 6.09 17.44 10.92 28 10.92 10.56 0 20.42-4.73 28-10.92 0-4.25-1-5.84-3.48-9.37a11.71 11.71 0 00-4-3.3v-36a20.56 20.56 0 00-41.11 0V77l.07-.07z"/>
  <path stroke="#00C1BF" stroke-linecap="round" stroke-miterlimit="10" stroke-width="2.17" d="M77 75a28.007 28.007 0 01-3.9-2c-2.28-1.51-3.87-5.26-3.15-7.9 1-3.59 4.87-6.93 4.87-10.73V43.7A14.18 14.18 0 0064 30.08a18.26 18.26 0 01-17.72 13.39v10.84c0 3.8 3.89 7.14 4.87 10.73.72 2.64-.86 6.39-3.14 7.9a28.441 28.441 0 01-3.89 2"/>
  <path fill="#00C1BF" d="M74.83 82.55a16.92 16.92 0 01-6.5 13.33 44.11 44.11 0 0016.32-7.94c-.23-1.74-.92-2.78-2.67-5.23-1.1-1.54-3.45-2.6-5.93-3.72-.6-.26-1.21-.54-1.81-.83a17.16 17.16 0 01.59 4.39z" opacity=".15"/>
  <path stroke="#00C1BF" stroke-linecap="round" stroke-miterlimit="10" stroke-width="2.17" d="M72.35 77.32c-1.89 1.85-5.56 4.77-8.31 6.89a5.73 5.73 0 01-7 0c-2.74-2.12-6.41-5-8.3-6.89"/>
  <g>
    <path stroke="#00C1BF" stroke-linecap="round" stroke-miterlimit="10" stroke-width="2" d="M74.8 54.31a10.869 10.869 0 01-11 10.75"/>
    <path stroke="#57B520" stroke-linecap="round" stroke-linejoin="round" stroke-width="4" d="M57.98 65.04h5.13"/>
  </g>
</svg>
