<?xml version="1.0" encoding="UTF-8"?>
<svg width="14px" height="14px" viewBox="0 0 14 14" version="1.1" xmlns="http://www.w3.org/2000/svg" xmlns:xlink="http://www.w3.org/1999/xlink">
    <!-- Generator: Sketch 55.2 (78181) - https://sketchapp.com -->
    <title>Group 5</title>
    <desc>Created with Sketch.</desc>
    <defs>
        <path d="M0.0319556566,12.4802409 L1.43442899,8.361584 C1.45809988,8.29648944 1.5054401,8.21660311 1.57645199,8.12192033 L6.99106555,2.71618667 C7.10349877,2.60375111 7.24404321,2.54753333 7.41269655,2.54753333 C7.58134988,2.54753333 7.72188655,2.60375111 7.8343221,2.71618667 L10.5505088,5.42349111 C10.6629443,5.54184556 10.7191621,5.68682333 10.7191621,5.85843222 C10.7191621,6.03004889 10.6629443,6.17207111 10.5505088,6.28449889 L5.13589443,11.7079923 C5.06488255,11.7790042 4.98795488,11.8263444 4.90510755,11.8500153 L0.804203434,13.2347359 C0.727274212,13.2643241 0.659222545,13.2791182 0.600046101,13.2791182 C0.440269545,13.2791182 0.298248101,13.2169839 0.173977879,13.0927137 C0.00828398993,12.9151843 -0.0390563878,12.7110286 0.0319556566,12.4802409 Z M2.1001601,10.1368672 L3.1387011,11.1665314 L4.39027543,10.7404632 L9.27230099,5.85843222 L7.40825543,3.99438667 L2.52622832,8.88529211 L2.1001601,10.1368672 Z M8.56218988,1.14506 L8.97050766,0.727867778 C9.45575543,0.24262 10.0504677,0 10.7546677,0 C11.4588677,0 12.0535799,0.24262 12.5388277,0.727867778 C13.0359054,1.21902667 13.2844443,1.81226111 13.2844443,2.50758667 C13.2844443,3.20291222 13.0359054,3.79910222 12.5388277,4.29618778 L12.1305099,4.70449778 L8.56218988,1.14506 Z" id="path-1"></path>
    </defs>
    <g id="Cell-C-fleshed-out-design" stroke="none" stroke-width="1" fill="none" fill-rule="evenodd">
        <g id="step4-buy-now-or-free-trial" transform="translate(-260.000000, -293.000000)">
            <g id="Group-5" transform="translate(260.000000, 293.000000)">
                <mask id="mask-2" fill="white">
                    <use xlink:href="#path-1"></use>
                </mask>
                <g id="Clip-2"></g>
                <polygon id="Fill-1" fill="#4A90E2" mask="url(#mask-2)" points="-4.66666667 17.9457833 16.3955556 17.9457833 16.3955556 -3.11111111 -4.66666667 -3.11111111"></polygon>
            </g>
        </g>
    </g>
</svg>