<svg width="154" height="128" viewBox="0 0 154 128" fill="none" xmlns="http://www.w3.org/2000/svg">
<g clip-path="url(#clip0_280_348)">
<path d="M154 0H0V128H154V0Z" fill="white"/>
<path d="M75.6385 84.3774H74.2907C73.58 82.5992 72.8784 80.8302 72.1492 79.0152C72.0199 79.1718 72.0568 79.3192 72.0568 79.4482C72.0568 80.9316 72.0568 82.4242 72.0568 83.9075V84.3682H70.3768C70.2937 84.0734 70.2845 76.5367 70.3676 76.0945H72.8599C73.5707 77.928 74.2907 79.7522 75.0292 81.6594C75.7769 79.7522 76.4877 77.9372 77.2077 76.0945H79.7185V84.3774C79.4231 84.3774 79.1185 84.3774 78.8139 84.3774C78.5093 84.3774 78.1954 84.3774 77.8539 84.3774V79.0612C77.8539 79.0612 77.7893 79.0428 77.7616 79.0428C77.3831 79.9181 77.06 80.8118 76.7 81.6871C76.3492 82.5716 75.9985 83.4561 75.6385 84.3682V84.3774Z" fill="black"/>
<path d="M86.4202 124.779H84.5556V119.444C84.5556 119.444 84.491 119.426 84.454 119.426C83.7525 121.204 83.0417 122.982 82.3401 124.779H80.9924C80.2816 123.01 79.5709 121.222 78.8508 119.426C78.8232 119.426 78.7955 119.435 78.7678 119.444V124.779H77.0323V116.496C77.4385 116.459 77.8447 116.486 78.2601 116.477C78.6755 116.477 79.0909 116.477 79.5432 116.477C80.254 118.311 80.974 120.135 81.7217 122.061C82.4971 120.163 83.1802 118.32 83.9186 116.496H86.411V124.788L86.4202 124.779Z" fill="black"/>
<path d="M67.7091 111.281V103.035C67.8476 103.035 67.9676 103.016 68.0876 103.016C69.2507 103.016 70.423 103.016 71.5861 103.016C72.1123 103.016 72.6292 103.072 73.1277 103.265C74.1616 103.661 74.66 104.684 74.337 105.744C74.1985 106.204 73.8846 106.527 73.4692 106.757C73.34 106.822 73.2108 106.886 73.0169 106.987C73.1923 107.052 73.3123 107.089 73.4231 107.144C74.1431 107.43 74.5862 107.936 74.66 108.729C74.7431 109.595 74.5308 110.35 73.7277 110.839C73.2108 111.152 72.6292 111.299 72.0385 111.309C70.6353 111.336 69.223 111.327 67.8107 111.327C67.783 111.327 67.7553 111.309 67.6907 111.29L67.7091 111.281ZM69.6292 107.853V109.77C70.3769 109.77 71.0969 109.77 71.8169 109.77C71.9738 109.77 72.1308 109.687 72.2692 109.622C72.4723 109.53 72.6015 109.364 72.6754 109.143C72.86 108.563 72.5831 108.065 71.9646 107.936C71.1984 107.78 70.423 107.89 69.6292 107.853ZM69.6292 106.379C70.2846 106.379 70.903 106.379 71.5307 106.379C71.6138 106.379 71.6877 106.352 71.7708 106.333C72.2231 106.213 72.4538 105.919 72.4538 105.467C72.4538 105.034 72.2046 104.739 71.7246 104.647C71.0323 104.509 70.34 104.592 69.6292 104.592V106.389V106.379Z" fill="black"/>
<path d="M109.101 91.4442C109.202 91.8127 109.295 92.126 109.396 92.5037C109.775 91.8772 110.273 91.5271 110.91 91.4257C111.325 91.3612 111.768 91.352 112.184 91.4073C112.71 91.4718 113.088 91.7758 113.319 92.2642C113.356 92.3471 113.402 92.43 113.485 92.6235C113.541 92.5129 113.568 92.4484 113.605 92.3839C113.993 91.8035 114.565 91.481 115.239 91.3889C115.627 91.3428 116.042 91.3612 116.439 91.4257C117.058 91.5271 117.473 91.9325 117.658 92.5221C117.769 92.863 117.833 93.2316 117.842 93.5817C117.861 94.9361 117.852 96.2905 117.852 97.6356C117.852 97.6909 117.833 97.737 117.824 97.8568C117.233 97.8568 116.642 97.8568 115.996 97.8568C115.996 97.6725 115.996 97.5343 115.996 97.3869C115.996 96.3734 115.996 95.3507 115.996 94.3372C115.996 94.1253 115.978 93.9042 115.932 93.7015C115.858 93.3698 115.645 93.1763 115.304 93.1026C114.972 93.0381 114.658 93.0842 114.353 93.1947C113.975 93.3329 113.799 93.6462 113.735 94.0239C113.707 94.2082 113.707 94.4017 113.707 94.586C113.707 95.5257 113.707 96.4563 113.707 97.3961V97.8475C113.088 97.8752 112.498 97.8568 111.852 97.8568C111.852 97.6725 111.852 97.5251 111.852 97.3869C111.852 96.3918 111.852 95.406 111.852 94.4109C111.852 94.1806 111.824 93.9594 111.787 93.7383C111.722 93.3882 111.51 93.1763 111.15 93.1026C110.818 93.0381 110.513 93.0842 110.199 93.1855C109.895 93.2869 109.701 93.5172 109.627 93.812C109.571 94.0331 109.544 94.2635 109.544 94.4846C109.544 95.452 109.544 96.4102 109.544 97.3777V97.8291H107.716V91.5639C108.159 91.5179 108.602 91.481 109.082 91.4257L109.101 91.4442Z" fill="black"/>
<path d="M95.9742 123.922C95.4388 123.461 95.2635 122.899 96.0665 122.107C95.9927 122.051 95.9188 121.996 95.8358 121.95C94.7557 121.259 94.8296 119.684 95.7065 118.974C96.2327 118.55 96.8327 118.366 97.4881 118.32C97.9404 118.292 98.402 118.32 98.8543 118.338C99.0389 118.348 99.1958 118.329 99.3528 118.246C99.842 117.998 100.34 117.767 100.885 117.5C101.033 118.016 101.171 118.504 101.328 119.048H100.091C100.211 119.14 100.248 119.177 100.285 119.195C101.153 119.582 101.319 121.112 100.396 121.83C99.9712 122.162 99.482 122.328 98.9651 122.42C98.4204 122.512 97.8758 122.54 97.322 122.457C97.2666 122.457 97.2204 122.457 97.165 122.457C97.0635 122.761 97.1004 122.862 97.3496 122.908C97.6266 122.954 97.9127 122.973 98.1897 122.982C98.9189 122.991 99.6389 123.01 100.35 123.157C100.479 123.185 100.608 123.212 100.737 123.258C101.633 123.553 101.974 124.272 101.67 125.166C101.513 125.636 101.18 125.958 100.756 126.198C100.22 126.502 99.6389 126.649 99.0389 126.732C98.0143 126.87 96.9804 126.916 95.9558 126.695C95.725 126.64 95.4942 126.557 95.2819 126.456C94.368 126.004 94.4788 124.788 95.1619 124.364C95.4111 124.207 95.6788 124.106 95.9742 123.959V123.922ZM97.885 125.571C98.4112 125.543 98.9374 125.516 99.4266 125.322C99.7405 125.203 99.9066 124.981 99.8605 124.769C99.7958 124.493 99.5651 124.429 99.3343 124.419C98.7066 124.373 98.0789 124.346 97.4512 124.336C97.2943 124.336 97.1281 124.382 96.9804 124.429C96.6758 124.53 96.5004 124.742 96.5096 124.963C96.5096 125.193 96.6758 125.387 97.0081 125.46C97.2943 125.525 97.5896 125.534 97.8758 125.571H97.885ZM98.0143 121.397C98.2727 121.333 98.522 121.296 98.762 121.204C99.0574 121.093 99.1866 120.854 99.1866 120.54C99.1866 120.227 99.0389 119.997 98.7435 119.886C98.2635 119.693 97.7743 119.693 97.2943 119.886C97.0081 119.997 96.8419 120.227 96.8419 120.54C96.8419 120.854 96.9804 121.093 97.2758 121.204C97.5066 121.296 97.765 121.333 98.0143 121.397Z" fill="black"/>
<path d="M28.0344 94.1345C27.6375 95.3967 27.2406 96.6497 26.8436 97.9212H25.1451C24.462 95.8021 23.7697 93.683 23.0774 91.5178H24.9697C25.3297 92.7432 25.699 93.9778 26.0682 95.2124C26.0959 95.2124 26.1236 95.2124 26.1513 95.2124C26.5205 93.9963 26.899 92.7709 27.2775 91.527H29.0221C29.3914 92.734 29.7791 93.9686 30.1575 95.2032C30.6375 93.9963 30.9422 92.7432 31.3391 91.5178H33.0653C32.3822 93.6738 31.6991 95.7929 31.0068 97.9212H29.3083C28.9114 96.6682 28.5144 95.4059 28.1175 94.1437C28.0898 94.1437 28.0621 94.1437 28.0344 94.1345Z" fill="black"/>
<path d="M106.941 109.65H111.095V111.299H105.03V103.044H111.048V104.712C110.615 104.776 110.162 104.73 109.71 104.739C109.258 104.739 108.796 104.739 108.344 104.739H106.959V106.306H110.725V107.955C110.098 107.955 109.47 107.955 108.842 107.955C108.224 107.955 107.615 107.955 106.941 107.955C106.922 108.535 106.941 109.07 106.941 109.65Z" fill="black"/>
<path d="M22.1636 103.864C21.822 104.343 21.499 104.785 21.1666 105.246C20.6866 104.97 20.1882 104.748 19.662 104.684C19.2097 104.638 18.7574 104.647 18.2958 104.638C18.222 104.638 18.1389 104.666 18.065 104.693C17.6958 104.813 17.5112 105.025 17.502 105.338C17.4835 105.651 17.6497 105.919 18.0097 106.029C18.4158 106.158 18.8404 106.232 19.2558 106.315C19.6897 106.407 20.1236 106.471 20.5574 106.564C20.742 106.6 20.9174 106.665 21.0928 106.739C22.0897 107.135 22.5698 107.899 22.5144 108.968C22.4682 109.825 22.0713 110.461 21.3328 110.903C20.7882 111.226 20.1974 111.382 19.5789 111.428C18.5635 111.511 17.5666 111.428 16.6066 111.06C16.0435 110.848 15.545 110.544 15.0742 110.092C15.425 109.678 15.7758 109.263 16.1358 108.83C16.6527 109.217 17.1789 109.484 17.7789 109.632C18.4527 109.797 19.1266 109.825 19.8097 109.696C19.9112 109.678 20.0128 109.641 20.1143 109.604C20.4005 109.484 20.5666 109.272 20.5759 108.959C20.5851 108.646 20.4466 108.397 20.1512 108.296C19.7728 108.167 19.3851 108.075 18.9881 107.992C18.462 107.872 17.9358 107.789 17.4097 107.669C17.225 107.632 17.0496 107.549 16.8835 107.476C16.0619 107.107 15.6096 106.471 15.5635 105.568C15.5173 104.666 15.8219 103.91 16.6066 103.394C17.0681 103.09 17.5758 102.943 18.1204 102.887C19.302 102.758 20.4466 102.887 21.5359 103.413C21.6651 103.477 21.7944 103.56 21.9144 103.634C21.9882 103.68 22.0621 103.744 22.1636 103.827V103.864Z" fill="black"/>
<path d="M60.2782 116.486C60.4166 116.486 60.5366 116.468 60.6566 116.468C61.8751 116.468 63.1028 116.468 64.3213 116.468C64.6259 116.468 64.9398 116.505 65.2352 116.579C66.4444 116.873 67.2014 117.749 67.3306 118.974C67.3768 119.426 67.3583 119.886 67.2383 120.328C66.9244 121.517 65.9367 122.319 64.6536 122.392C63.9982 122.429 63.3428 122.411 62.6782 122.42C62.5305 122.42 62.392 122.42 62.1982 122.42V124.714C61.8751 124.815 60.7397 124.825 60.2689 124.742V116.477L60.2782 116.486ZM62.2074 120.78C62.9551 120.78 63.6751 120.808 64.3859 120.771C64.709 120.752 64.9859 120.559 65.1798 120.273C65.7798 119.361 65.2259 118.209 64.1367 118.145C63.6013 118.117 63.0659 118.136 62.5305 118.145C62.429 118.145 62.3274 118.163 62.2074 118.173V120.798V120.78Z" fill="black"/>
<path d="M65.2076 97.8844C65.1152 97.5159 65.0229 97.1842 64.9214 96.7972C64.8383 96.8802 64.7922 96.9355 64.746 96.9815C64.0906 97.82 63.186 98.0411 62.1983 97.9305C61.2382 97.8199 60.629 97.2211 60.3059 96.3458C59.8813 95.1941 59.8721 94.0332 60.3428 92.8999C60.9244 91.4903 62.549 90.9098 63.906 91.61C64.1922 91.7575 64.4414 91.997 64.7552 92.2273C64.7552 91.7114 64.7552 91.2139 64.7552 90.7163C64.7552 90.2096 64.7552 89.7028 64.7552 89.1685H66.5368C66.6291 89.4356 66.6568 97.1105 66.5645 97.7831C66.1122 97.8384 65.6599 97.9397 65.2076 97.8844ZM61.8567 94.6874C61.9306 95.0006 61.986 95.3692 62.1152 95.7193C62.2813 96.1431 62.6321 96.355 63.0844 96.3826C63.9614 96.4287 64.5891 95.8943 64.7368 94.973C64.9214 93.766 64.1737 92.9184 63.0198 93.0381C62.5306 93.0934 62.189 93.3514 62.0413 93.8029C61.949 94.0608 61.9306 94.3465 61.8567 94.6874Z" fill="black"/>
<path d="M50.0872 89.1592H51.9334V97.7831C51.7211 97.8107 51.4995 97.8476 51.278 97.866C51.0565 97.8844 50.8257 97.8936 50.5764 97.9121C50.4841 97.5527 50.3918 97.2026 50.2811 96.8065C50.1887 96.8986 50.1334 96.9631 50.078 97.0276C49.3487 98.0042 47.7148 98.1885 46.8194 97.7278C46.2933 97.4514 45.9333 97.0368 45.721 96.4932C45.2594 95.3415 45.2225 94.1714 45.6656 93.0105C46.2841 91.3889 47.8072 91.1033 49.0626 91.5271C49.4595 91.6561 49.7549 91.9233 50.0226 92.2181C50.0503 92.2181 50.0595 92.2089 50.0687 92.1997C50.078 92.1997 50.0964 92.1813 50.0964 92.1721C50.0964 91.1862 50.0964 90.1912 50.0964 89.15L50.0872 89.1592ZM47.2071 94.6873C47.281 95.0098 47.3271 95.3599 47.4472 95.6732C47.6225 96.1247 47.9825 96.355 48.481 96.3734C49.2287 96.4011 49.8195 95.9957 50.0134 95.277C50.078 95.0375 50.1057 94.7795 50.0964 94.5215C50.078 93.5172 49.3764 92.9184 48.3702 93.0289C47.8995 93.075 47.5579 93.3145 47.401 93.7568C47.2995 94.0424 47.2718 94.3557 47.1979 94.6873H47.2071Z" fill="black"/>
<path d="M99.2236 102.639H101.061V111.262C100.608 111.308 100.165 111.355 99.7036 111.401C99.5929 111.004 99.5005 110.654 99.3898 110.24C98.9836 110.857 98.4574 111.207 97.802 111.355C97.3497 111.456 96.8974 111.474 96.4451 111.373C95.7343 111.216 95.2082 110.774 94.9128 110.12C94.3312 108.839 94.2943 107.522 94.8943 106.232C95.522 104.877 97.1928 104.38 98.4851 105.135C98.7344 105.283 98.9467 105.495 99.1867 105.688C99.1682 105.688 99.1867 105.688 99.1959 105.688C99.2052 105.688 99.2236 105.67 99.2236 105.661C99.2236 104.675 99.2236 103.68 99.2236 102.648V102.639ZM99.2698 108.121C99.2329 107.052 98.6051 106.435 97.5805 106.481C97.0728 106.499 96.7036 106.739 96.5282 107.218C96.2974 107.872 96.3066 108.535 96.5836 109.18C96.7682 109.595 97.1097 109.807 97.562 109.853C98.2174 109.908 98.8267 109.549 99.0667 108.941C99.1682 108.683 99.2052 108.397 99.2698 108.13V108.121Z" fill="black"/>
<path d="M45.4072 123.876C45.2503 124.217 45.1026 124.511 44.9456 124.852C44.5579 124.806 44.161 124.769 43.7456 124.723V116.099H45.5549V119.37C45.6656 119.26 45.7118 119.223 45.7487 119.177C46.9764 117.712 49.2473 118.034 49.9765 119.794C50.438 120.9 50.4565 122.042 50.0503 123.166C49.3396 125.11 46.9211 125.543 45.5456 124.005C45.5179 123.977 45.4903 123.949 45.4164 123.885L45.4072 123.876ZM48.4719 121.674C48.398 121.333 48.3519 121.001 48.2503 120.688C48.1211 120.31 47.8349 120.071 47.4288 119.988C46.4872 119.803 45.6749 120.411 45.5826 121.36C45.5641 121.517 45.5641 121.683 45.5826 121.84C45.6472 122.835 46.358 123.424 47.3457 123.295C47.7703 123.24 48.0842 123.028 48.2318 122.632C48.3519 122.328 48.398 121.987 48.4719 121.664V121.674Z" fill="black"/>
<path d="M19.8651 89.5093C20.9728 92.2825 22.0713 95.0466 23.179 97.8567H21.222C21.0466 97.4237 20.8805 96.9907 20.7051 96.5576H17.0312C16.8558 96.9907 16.6804 97.4145 16.4958 97.8567H14.6588C15.7573 95.0466 16.8742 92.2825 17.9727 89.5093H19.8651ZM20.0682 94.936C19.662 93.8949 19.2835 92.9091 18.8958 91.9232C18.8681 91.9232 18.8404 91.9232 18.8127 91.9232C18.4343 92.9091 18.0466 93.8949 17.6496 94.9268H20.0682V94.936Z" fill="black"/>
<path d="M77.697 91.0111C77.2262 91.398 76.7739 91.7666 76.3031 92.1443C76.1739 92.0246 76.0723 91.9232 75.9616 91.8219C75.4354 91.3151 74.7892 91.1124 74.0785 91.1677C73.1369 91.2322 72.5092 91.7482 72.2046 92.6327C71.9646 93.3237 71.9553 94.0239 72.1677 94.7241C72.4354 95.5994 73.0169 96.143 73.94 96.2536C74.8446 96.3641 75.62 96.1154 76.1277 95.2954C76.1647 95.2401 76.2016 95.1848 76.2293 95.1203C76.2662 95.065 76.3031 95.0097 76.3585 94.9176C76.8754 95.1756 77.3831 95.4244 77.9093 95.6915C77.4016 96.7235 76.6631 97.4421 75.5923 97.7738C74.7246 98.041 73.8477 98.0778 72.9707 97.8475C71.5676 97.4882 70.663 96.576 70.2661 95.2032C69.9799 94.199 69.9892 93.1855 70.303 92.1904C70.8107 90.578 71.9646 89.712 73.5985 89.4632C74.4754 89.325 75.3339 89.4171 76.1554 89.7765C76.7647 90.0437 77.2724 90.4398 77.6878 91.0203L77.697 91.0111Z" fill="black"/>
<path d="M75.7123 117.942C75.2415 118.329 74.7892 118.698 74.2538 119.131C74.1523 118.993 74.0877 118.854 73.9769 118.762C73.3769 118.2 72.6661 118.016 71.863 118.126C71.1891 118.228 70.6907 118.587 70.3861 119.186C69.9245 120.117 69.906 121.075 70.3214 122.015C70.663 122.789 71.3184 123.157 72.1399 123.194C73.0261 123.231 73.7369 122.918 74.1892 122.116C74.2261 122.042 74.2723 121.978 74.3184 121.913C74.3184 121.904 74.3369 121.895 74.3831 121.858C74.8631 122.098 75.3615 122.346 75.8785 122.604C75.8415 122.706 75.8231 122.789 75.7769 122.871C75.0569 124.161 73.94 124.815 72.4815 124.908C71.8907 124.944 71.2999 124.908 70.7276 124.723C69.2137 124.207 68.4014 123.12 68.1337 121.582C67.9952 120.762 68.0414 119.951 68.2906 119.158C68.7983 117.528 69.9522 116.652 71.6045 116.394C72.3984 116.275 73.183 116.339 73.94 116.625C74.6508 116.892 75.2323 117.316 75.6939 117.961L75.7123 117.942Z" fill="black"/>
<path d="M59.4105 84.3774H57.6012C57.6012 84.23 57.5827 84.0825 57.5827 83.9443C57.5827 82.9401 57.5827 81.9358 57.5827 80.9315C57.5827 80.7104 57.555 80.4801 57.4997 80.2589C57.4074 79.8996 57.1489 79.6877 56.7889 79.6416C56.5673 79.614 56.3273 79.6232 56.1058 79.6601C55.5612 79.7522 55.2381 80.1115 55.1735 80.6735C55.155 80.821 55.155 80.9684 55.155 81.1158C55.155 82.0556 55.155 82.9953 55.155 83.9259C55.155 84.0733 55.155 84.2115 55.155 84.3774H53.3273V75.7167H55.1365V78.794C55.2381 78.7203 55.2842 78.7019 55.3119 78.665C56.1058 77.8542 57.0566 77.7344 58.0997 78.0108C58.8289 78.2043 59.1797 78.7663 59.3366 79.4574C59.4012 79.7338 59.4289 80.0102 59.4289 80.2958C59.4382 81.5396 59.4289 82.7834 59.4289 84.0365C59.4289 84.147 59.4105 84.2668 59.4012 84.3866L59.4105 84.3774Z" fill="black"/>
<path d="M37.33 94.0884C37.4408 93.4066 37.1731 93.0657 36.5177 93.0473C35.9362 93.0289 35.3638 93.1118 34.81 93.2869C34.6992 93.3237 34.5792 93.3514 34.4407 93.3882C34.2561 92.8907 34.0715 92.4024 33.8869 91.9048C34.4038 91.6192 34.93 91.4902 35.4746 91.4073C36.1116 91.306 36.7577 91.2783 37.3947 91.3704C38.4285 91.5179 39.0562 92.1536 39.1393 93.2132C39.1947 93.9226 39.1762 94.632 39.1855 95.3415C39.1855 95.7284 39.1855 96.1154 39.1855 96.5208C39.4439 96.5392 39.647 96.5484 39.8962 96.5669C39.9609 96.9538 39.9239 97.3408 39.9147 97.737C39.3608 97.9397 38.7978 98.0042 38.2162 97.9028C37.847 97.8383 37.6347 97.5988 37.5331 97.2487C37.5054 97.1381 37.4777 97.0183 37.4408 96.8709C37.2931 97.046 37.1731 97.2026 37.0254 97.3316C36.3423 97.9673 34.9854 98.1516 34.1546 97.7186C32.9176 97.0828 32.8346 95.1848 34.0161 94.3833C34.45 94.0884 34.9392 93.9595 35.4562 93.9226C36.0192 93.8857 36.5823 93.9226 37.1362 94.0332C37.2008 94.0424 37.2654 94.0516 37.3208 94.0608L37.33 94.0884ZM37.3393 95.2586C36.9885 95.1204 36.2592 95.0743 35.7608 95.1756C35.6223 95.2033 35.4746 95.2493 35.3454 95.3046C35.05 95.4336 34.93 95.6271 34.9577 95.8943C34.9854 96.1615 35.1423 96.355 35.4377 96.4102C35.9085 96.5024 36.37 96.484 36.8039 96.2628C37.21 96.0601 37.3762 95.7284 37.33 95.2493L37.3393 95.2586Z" fill="black"/>
<path d="M91.7927 123.848C91.1835 124.742 90.2973 124.944 89.3096 124.88C88.4788 124.825 87.8511 124.3 87.648 123.526C87.4172 122.65 87.6942 121.83 88.3773 121.351C88.8204 121.038 89.3188 120.909 89.845 120.872C90.4081 120.835 90.9712 120.872 91.525 120.983C91.5896 120.992 91.6543 121.001 91.7096 121.01C91.8112 120.319 91.5527 119.988 90.8973 119.969C90.205 119.951 89.5404 120.071 88.8388 120.329C88.6265 119.84 88.4696 119.333 88.2757 118.836C88.645 118.606 89.0327 118.504 89.4204 118.421C90.2788 118.237 91.1466 118.145 92.0143 118.348C92.8912 118.55 93.3805 119.085 93.5097 119.969C93.5558 120.255 93.5743 120.559 93.5743 120.844C93.5835 121.563 93.5743 122.291 93.5743 123.01V123.433C93.8235 123.452 94.0451 123.48 94.2758 123.498V124.677C93.7681 124.862 93.2512 124.917 92.725 124.862C92.245 124.806 92.0235 124.594 91.8943 124.115C91.8758 124.042 91.8573 123.959 91.8389 123.885C91.8389 123.876 91.8204 123.867 91.7743 123.839L91.7927 123.848ZM91.7373 122.144C91.2204 122.024 90.7127 122.033 90.205 122.098C90.0481 122.116 89.8911 122.171 89.7435 122.236C89.4573 122.365 89.3281 122.567 89.3558 122.825C89.3834 123.093 89.5496 123.295 89.8358 123.351C90.3065 123.443 90.7681 123.433 91.2019 123.212C91.6173 123 91.7743 122.696 91.7281 122.162L91.7373 122.144Z" fill="black"/>
<path d="M83.9279 107.559C83.9002 107.365 83.8909 107.245 83.8725 107.126C83.8171 106.794 83.6232 106.61 83.3002 106.536C82.8386 106.444 82.3863 106.536 81.9432 106.61C81.6293 106.665 81.3247 106.766 80.9647 106.858C80.7893 106.388 80.6047 105.9 80.4201 105.412C80.4755 105.366 80.5032 105.32 80.5493 105.301C81.6017 104.859 82.7001 104.693 83.8171 104.841C85.0448 104.997 85.6448 105.67 85.691 106.914C85.7187 107.651 85.7002 108.388 85.7002 109.125C85.7002 109.42 85.7002 109.705 85.7002 110.019C85.9587 110.028 86.1617 110.037 86.4018 110.046V111.244C85.811 111.428 85.2017 111.52 84.574 111.345C84.3248 111.272 84.1771 111.087 84.094 110.848C84.0386 110.7 84.0109 110.553 83.9648 110.396C83.9279 110.415 83.8909 110.415 83.8817 110.433C83.1986 111.391 82.2201 111.548 81.1586 111.382C80.4847 111.281 80.0139 110.857 79.8201 110.194C79.5062 109.171 79.8109 108.093 81.0478 107.623C81.8232 107.328 82.6263 107.365 83.4294 107.494C83.5678 107.513 83.7156 107.54 83.9186 107.577L83.9279 107.559ZM83.8909 108.683C83.6971 108.646 83.5217 108.609 83.3555 108.591C82.8571 108.554 82.3586 108.563 81.8878 108.756C81.5924 108.876 81.4817 109.07 81.5001 109.346C81.5186 109.622 81.657 109.779 81.9709 109.871C82.4048 109.991 82.8201 109.945 83.2263 109.779C83.7063 109.586 83.9002 109.263 83.8909 108.683Z" fill="black"/>
<path d="M125.052 96.8985C124.59 97.35 124.064 97.608 123.501 97.783C122.809 97.9949 122.098 98.041 121.387 97.9489C120.261 97.8107 119.486 97.1934 119.125 96.1062C118.849 95.2585 118.812 94.3924 119.061 93.5356C119.412 92.3194 120.372 91.5086 121.636 91.3796C122.144 91.3243 122.652 91.3243 123.159 91.4625C123.686 91.61 124.129 91.8772 124.424 92.3378C125.024 93.2684 125.006 94.3095 124.987 95.3875H120.842C120.916 95.9956 121.304 96.3826 121.895 96.4471C122.578 96.5116 123.233 96.3918 123.824 96.014C123.944 95.9403 124.073 95.8574 124.23 95.7653C124.507 96.143 124.775 96.5023 125.061 96.8985H125.052ZM123.233 94.0147C123.279 93.4803 123.076 93.121 122.652 92.992C122.264 92.8814 121.876 92.8999 121.507 93.0657C121.092 93.2408 120.852 93.6093 120.87 94.0147H123.233Z" fill="black"/>
<path d="M59.0966 95.3782H54.9612C55.035 95.9863 55.4227 96.3825 56.0135 96.4378C56.6966 96.5023 57.352 96.3825 57.9428 96.014C58.0628 95.9403 58.192 95.8574 58.3582 95.756C58.6259 96.1338 58.8936 96.4931 59.1797 96.8801C59.0966 96.963 59.032 97.0367 58.9582 97.1012C58.2935 97.6171 57.5274 97.8935 56.6966 97.9488C56.2166 97.9765 55.7273 97.9672 55.2566 97.8843C54.2873 97.7185 53.6411 97.1288 53.3088 96.2167C52.9581 95.2585 52.9304 94.2726 53.2811 93.3052C53.7058 92.1443 54.5735 91.5178 55.7827 91.3888C56.2443 91.3335 56.7243 91.3704 57.1766 91.4441C58.0166 91.5823 58.5612 92.1075 58.8474 92.8998C59.1336 93.683 59.1613 94.4937 59.1059 95.3782H59.0966ZM54.9242 94.0239C55.7273 94.0239 56.4751 94.0239 57.2228 94.0239C57.2781 94.0239 57.3243 94.0054 57.3705 93.9962C57.352 93.2776 57.0474 92.9367 56.355 92.9275C56.1612 92.9275 55.9489 92.9459 55.7643 93.0012C55.2935 93.1486 55.0166 93.4895 54.9242 94.0239Z" fill="black"/>
<path d="M28.6252 109.217C28.9021 109.604 29.1698 109.973 29.4468 110.36C29.3268 110.461 29.2345 110.553 29.1329 110.627C27.9791 111.41 26.7144 111.622 25.3759 111.318C24.4713 111.115 23.8713 110.516 23.5574 109.659C23.2713 108.858 23.2159 108.038 23.4005 107.209C23.7328 105.744 24.8128 104.868 26.3729 104.813C26.8067 104.804 27.259 104.868 27.6837 104.97C28.1821 105.089 28.5791 105.403 28.8468 105.845C29.4006 106.757 29.4098 107.771 29.3729 108.83H25.2375C25.2652 109.355 25.579 109.742 26.0682 109.862C26.7698 110.028 27.4252 109.89 28.0529 109.558C28.2283 109.466 28.3944 109.346 28.616 109.217H28.6252ZM27.6283 107.494C27.6652 106.803 27.3513 106.435 26.7144 106.398C26.5667 106.398 26.419 106.398 26.2713 106.407C25.6621 106.49 25.2467 106.923 25.2375 107.513C25.9298 107.513 26.6313 107.513 27.3237 107.513C27.416 107.513 27.5083 107.503 27.619 107.494H27.6283Z" fill="black"/>
<path d="M66.5276 81.9174H62.4014C62.4752 82.4702 62.7614 82.8203 63.2506 82.94C63.9337 83.0967 64.5799 82.9677 65.1983 82.6544C65.3922 82.5531 65.5676 82.4333 65.7891 82.2951C66.0568 82.6636 66.3245 83.0414 66.6199 83.4468C66.4537 83.5758 66.306 83.714 66.1399 83.8153C65.0506 84.4971 63.8691 84.6814 62.6229 84.4326C61.7552 84.2576 61.1182 83.7324 60.7859 82.9032C60.3798 81.8989 60.3429 80.867 60.7029 79.8443C61.0629 78.8124 61.829 78.2043 62.8814 77.974C63.4352 77.8542 63.9983 77.845 64.5614 77.9648C65.4383 78.149 66.0107 78.6742 66.2968 79.5126C66.5553 80.2773 66.5645 81.0605 66.5276 81.9174ZM64.8014 80.5537C64.8383 79.8996 64.5245 79.5126 63.9245 79.4758C63.7675 79.4666 63.6014 79.4666 63.4445 79.485C62.8444 79.5587 62.4198 80.0009 62.4106 80.5537H64.8014Z" fill="black"/>
<path d="M124.581 108.839H120.473C120.519 109.374 120.815 109.742 121.313 109.862C122.043 110.037 122.726 109.88 123.363 109.53C123.529 109.438 123.676 109.337 123.861 109.226C124.138 109.613 124.415 109.991 124.683 110.369C124.083 110.931 123.381 111.235 122.624 111.364C121.95 111.484 121.267 111.511 120.593 111.327C119.772 111.106 119.19 110.617 118.867 109.834C118.452 108.821 118.406 107.771 118.793 106.739C119.273 105.439 120.298 104.887 121.627 104.813C121.959 104.795 122.301 104.822 122.624 104.887C123.464 105.043 124.036 105.55 124.341 106.352C124.581 106.978 124.683 107.964 124.581 108.83V108.839ZM122.892 107.503C122.873 106.877 122.679 106.564 122.227 106.453C121.839 106.361 121.452 106.379 121.092 106.554C120.704 106.748 120.51 107.07 120.436 107.503H122.892Z" fill="black"/>
<path d="M80.9648 81.1803C80.9648 80.692 81.0386 80.2221 81.2233 79.7707C81.5925 78.8862 82.2479 78.3149 83.1618 78.0477C83.9279 77.8174 84.7033 77.8266 85.4603 78.0477C86.4849 78.361 87.1588 79.0428 87.4634 80.0655C87.6849 80.8026 87.6849 81.5397 87.4818 82.2859C87.1772 83.3824 86.4665 84.0826 85.368 84.3866C84.6295 84.5985 83.8818 84.5801 83.1433 84.3682C81.8417 83.9905 81.011 82.8572 80.9556 81.4199C80.9556 81.337 80.9556 81.2633 80.9556 81.1803H80.9648ZM85.7926 81.1988C85.7464 80.9868 85.7187 80.7289 85.6449 80.4893C85.4418 79.8904 84.9526 79.5588 84.2879 79.568C83.6418 79.568 83.171 79.8997 82.9679 80.4893C82.8018 80.9592 82.8018 81.4383 82.9402 81.9082C83.1341 82.5808 83.6418 82.9401 84.3526 82.9217C85.0264 82.9033 85.5249 82.5163 85.691 81.8621C85.7464 81.6594 85.7557 81.4383 85.7926 81.1895V81.1988Z" fill="black"/>
<path d="M81.9063 91.3151C82.2755 91.3704 82.654 91.398 83.014 91.4994C84.2971 91.8587 85.1279 92.8814 85.211 94.2542C85.2387 94.7149 85.211 95.194 85.1094 95.6455C84.814 96.9538 83.7525 97.8383 82.4048 97.9581C81.8417 98.0041 81.2786 97.9949 80.734 97.8199C79.7093 97.4974 79.0355 96.8248 78.7309 95.8021C78.5185 95.1111 78.5093 94.4016 78.6847 93.7014C79.0078 92.3839 80.0232 91.5086 81.3801 91.3704C81.5555 91.352 81.7309 91.352 81.9063 91.3428C81.9063 91.3335 81.9063 91.3243 81.9063 91.3059V91.3151ZM80.4017 94.7241C80.4755 95.0282 80.5217 95.3414 80.6324 95.6178C80.854 96.1614 81.3155 96.3918 81.8786 96.3918C82.4417 96.3918 82.9125 96.1891 83.1617 95.6547C83.4479 95.0374 83.4571 94.4017 83.1802 93.7936C82.9309 93.2408 82.4602 93.038 81.8694 93.0473C81.2971 93.0473 80.8447 93.2868 80.6232 93.8212C80.5124 94.0976 80.4755 94.4109 80.4017 94.7149V94.7241Z" fill="black"/>
<path d="M55.275 118.44H57.0935C57.0474 118.578 57.0105 118.688 56.9735 118.799C56.1797 120.918 55.3951 123.037 54.6012 125.156C54.1212 126.428 53.5212 126.824 52.155 126.759C51.6288 126.732 51.1211 126.658 50.5857 126.465C50.715 125.995 50.8442 125.543 50.9827 125.046C51.2411 125.092 51.4811 125.156 51.7304 125.166C51.9981 125.184 52.2658 125.193 52.5242 125.138C52.8565 125.064 52.9396 124.862 52.8196 124.539C52.1181 122.659 51.4165 120.78 50.7242 118.9C50.678 118.762 50.6319 118.633 50.5673 118.458H52.4965C52.9396 119.748 53.3919 121.047 53.8443 122.346C54.3981 121.066 54.795 119.748 55.275 118.449V118.44Z" fill="black"/>
<path d="M59.9366 104.97C60.3982 106.287 60.8505 107.595 61.3028 108.904C61.3213 108.904 61.349 108.904 61.3674 108.904C61.8105 107.605 62.2536 106.296 62.7059 104.979H64.5244C64.4783 105.117 64.4506 105.228 64.4136 105.338C63.6198 107.457 62.8259 109.576 62.032 111.695C62.032 111.705 62.0321 111.723 62.0228 111.732C61.6167 112.838 61.0628 113.372 59.5858 113.289C59.152 113.262 58.7181 113.151 58.2751 113.078C58.2012 113.068 58.1366 113.022 58.0258 112.976C58.1643 112.506 58.2935 112.046 58.4227 111.566C58.7274 111.622 59.0135 111.677 59.2997 111.705C59.4843 111.723 59.6782 111.723 59.8628 111.705C60.2505 111.649 60.3797 111.419 60.2412 111.051C59.5489 109.189 58.8566 107.337 58.1643 105.486C58.1089 105.329 58.0535 105.163 57.9889 104.979H59.9182L59.9366 104.97Z" fill="black"/>
<path d="M86.3279 91.5731C86.7803 91.527 87.2141 91.4902 87.6849 91.4441C87.7864 91.785 87.8787 92.1075 87.9895 92.476C88.0634 92.3839 88.1003 92.3378 88.1372 92.2917C88.4234 91.8955 88.8111 91.6468 89.2726 91.4994C89.7988 91.3243 90.3342 91.3059 90.8603 91.4072C91.7096 91.5639 92.2173 92.1351 92.3834 93.0657C92.4204 93.3052 92.4481 93.5448 92.4481 93.7843C92.4481 95.0281 92.4481 96.272 92.4481 97.5158C92.4481 97.6171 92.4296 97.7277 92.4204 97.8475H90.6111C90.6111 97.6908 90.5926 97.5526 90.5926 97.4052C90.5926 96.4194 90.5926 95.4243 90.5926 94.4385C90.5926 94.2266 90.5742 94.0054 90.528 93.8027C90.4449 93.4342 90.2234 93.1947 89.8265 93.1209C89.4849 93.0564 89.1618 93.0933 88.8388 93.2131C88.4972 93.3421 88.2849 93.6 88.2111 93.9409C88.1649 94.1436 88.1464 94.3648 88.1464 94.5767C88.1464 95.5165 88.1464 96.447 88.1464 97.3868V97.8475H86.3556C86.2726 97.5619 86.2449 92.3839 86.3187 91.5823L86.3279 91.5731Z" fill="black"/>
<path d="M87.3525 105.034C87.8141 104.997 88.2479 104.96 88.7187 104.924C88.811 105.264 88.9033 105.578 88.9864 105.9C89.0418 105.873 89.0787 105.863 89.088 105.845C89.8449 104.822 90.888 104.666 92.0419 104.905C92.5957 105.025 93.0111 105.375 93.205 105.919C93.3157 106.213 93.4173 106.536 93.4265 106.849C93.4542 108.296 93.445 109.742 93.4542 111.189C93.4542 111.216 93.4357 111.235 93.4265 111.29H91.6265C91.6265 111.143 91.608 111.014 91.608 110.885C91.608 109.936 91.608 108.987 91.608 108.029C91.608 107.936 91.608 107.844 91.608 107.743C91.608 107.319 91.5711 106.877 91.128 106.665C90.6388 106.435 90.1311 106.481 89.6603 106.766C89.3187 106.969 89.208 107.319 89.1803 107.697C89.1618 107.992 89.1803 108.286 89.1803 108.581C89.1803 109.346 89.1803 110.111 89.1803 110.875V111.29H87.3618V105.025L87.3525 105.034Z" fill="black"/>
<path d="M106.313 97.7922C105.824 97.8383 105.39 97.8751 104.938 97.912C104.836 97.5619 104.744 97.2394 104.642 96.8893C104.485 97.0643 104.374 97.2118 104.236 97.3315C103.793 97.7369 103.248 97.9028 102.658 97.958C102.454 97.9765 102.251 97.9765 102.057 97.958C101.07 97.8843 100.479 97.3592 100.294 96.3825C100.239 96.1061 100.211 95.8205 100.211 95.5441C100.211 94.2726 100.211 93.0012 100.211 91.7297C100.211 91.6744 100.211 91.6284 100.221 91.5731C100.507 91.4809 101.476 91.4533 102.057 91.5362V91.96C102.057 92.9643 102.057 93.9686 102.057 94.9729C102.057 95.2216 102.085 95.4796 102.141 95.7284C102.214 96.0693 102.454 96.2996 102.805 96.3457C103.054 96.3733 103.322 96.3733 103.562 96.3273C104.107 96.2167 104.402 95.8389 104.448 95.2308C104.467 95.0189 104.448 94.807 104.448 94.5859C104.448 93.7014 104.448 92.8169 104.448 91.9324V91.5178H106.295V97.7922H106.313Z" fill="black"/>
<path d="M43.3025 111.253C42.8778 111.299 42.4347 111.345 41.964 111.391C41.8717 111.051 41.7793 110.728 41.6778 110.378C41.6224 110.415 41.5855 110.424 41.567 110.452C41.1332 111.06 40.5055 111.345 39.7855 111.401C39.4255 111.428 39.0562 111.428 38.7054 111.355C37.8562 111.189 37.4593 110.59 37.3116 109.779C37.2746 109.54 37.2469 109.3 37.2469 109.06C37.2469 107.771 37.2469 106.49 37.2469 105.2C37.2469 105.135 37.2562 105.071 37.2654 104.979H39.1024C39.1024 105.135 39.1024 105.283 39.1024 105.43C39.1024 106.435 39.1024 107.439 39.1024 108.443C39.1024 108.673 39.1208 108.904 39.167 109.125C39.2408 109.503 39.4716 109.733 39.8593 109.807C40.1916 109.871 40.5055 109.834 40.8101 109.724C41.244 109.567 41.4193 109.226 41.484 108.802C41.5116 108.627 41.5024 108.452 41.5024 108.277C41.5024 107.31 41.5024 106.352 41.5024 105.384C41.5024 105.255 41.5024 105.126 41.5024 104.97H43.3025C43.3763 105.255 43.404 110.746 43.3209 111.244L43.3025 111.253Z" fill="black"/>
<path d="M89.1711 82.2951C89.928 82.8571 90.7311 83.0598 91.608 83.0137C91.765 83.0137 91.9311 82.9769 92.0788 82.9216C92.2634 82.8571 92.3557 82.7189 92.3465 82.5254C92.3465 82.3412 92.2357 82.2122 92.0696 82.1753C91.7188 82.0924 91.3588 82.0463 91.008 81.9818C90.6111 81.9081 90.2142 81.8528 89.8357 81.7331C89.0788 81.4935 88.6172 80.9776 88.5526 80.1668C88.488 79.3099 88.8018 78.6281 89.5865 78.2504C89.9557 78.0753 90.3711 77.9555 90.7772 77.9187C91.6819 77.8358 92.5681 77.9463 93.4173 78.2964C93.565 78.3517 93.7035 78.4346 93.8696 78.5176C93.6296 79.0151 93.4081 79.485 93.205 79.918C92.6696 79.7798 92.1804 79.6324 91.6726 79.5403C91.3865 79.485 91.0819 79.5126 90.7957 79.5403C90.5188 79.5771 90.408 79.7153 90.3988 79.918C90.3988 80.1115 90.5188 80.2773 90.768 80.3326C91.1557 80.4155 91.5619 80.4616 91.9588 80.5353C92.3004 80.5998 92.6419 80.6643 92.9742 80.7749C93.6388 80.9868 94.0819 81.4198 94.165 82.1385C94.2573 82.9124 94.0265 83.5666 93.3527 84.018C92.8173 84.3773 92.2173 84.4879 91.5988 84.5156C90.6665 84.5524 89.7526 84.4511 88.9034 84.018C88.6634 83.8982 88.451 83.7416 88.1833 83.5758C88.5341 83.1335 88.848 82.7373 89.1895 82.3043L89.1711 82.2951Z" fill="black"/>
<path d="M93.2142 97.0552C93.5927 96.5853 93.9066 96.1892 94.2296 95.7745C94.6727 96.0694 95.1158 96.2997 95.6235 96.4011C96.0481 96.4748 96.4728 96.5393 96.9066 96.4563C96.9805 96.4379 97.0635 96.4287 97.1374 96.4011C97.3128 96.3274 97.4235 96.1984 97.4143 96.0049C97.4143 95.8206 97.3128 95.6916 97.1374 95.6456C96.8882 95.5811 96.6389 95.5258 96.3897 95.4889C96.0481 95.4336 95.6974 95.3876 95.3558 95.3231C95.1712 95.2862 94.9958 95.231 94.8204 95.1665C94.0912 94.9085 93.6665 94.4017 93.6019 93.6278C93.5373 92.8262 93.8142 92.1628 94.5343 91.7667C94.8573 91.5916 95.2266 91.4442 95.5866 91.4073C96.5097 91.2968 97.4328 91.3613 98.3189 91.7022C98.5128 91.7759 98.7066 91.8772 98.9282 91.9694C98.6882 92.4669 98.4666 92.9368 98.2451 93.3882C97.8112 93.2593 97.4235 93.1118 97.0266 93.0381C96.6574 92.9736 96.2789 92.9736 95.9097 92.9828C95.6235 92.9921 95.4666 93.1487 95.4574 93.3514C95.4481 93.5541 95.5681 93.7291 95.8543 93.7844C96.3158 93.8858 96.7774 93.9318 97.2389 94.024C97.5251 94.0793 97.8205 94.1438 98.0974 94.2451C98.7343 94.4662 99.1405 94.8901 99.2328 95.5719C99.3251 96.2997 99.1405 96.9262 98.5313 97.3961C98.0882 97.7278 97.5712 97.8844 97.0358 97.9397C96.1035 98.0411 95.1804 97.9766 94.3035 97.6265C93.9435 97.4883 93.6204 97.2671 93.2142 97.0552Z" fill="black"/>
<path d="M47.7426 77.8081H44.9825V76.1497C45.2779 76.0668 51.9335 76.0483 52.4319 76.1313V77.7989H49.6903C49.6903 78.923 49.6903 80.0009 49.6903 81.0789C49.6903 82.1661 49.6903 83.2441 49.6903 84.3497C49.358 84.4511 49.0349 84.3958 48.7211 84.405C48.4165 84.4142 48.1118 84.405 47.7426 84.405V77.8173V77.8081Z" fill="black"/>
<path d="M53.7704 106.545H52.5612V104.97H53.8627C53.9827 104.454 54.0935 103.965 54.2043 103.459C54.675 103.357 55.1274 103.256 55.6351 103.145V104.951H57.6105V106.536H55.7089C55.6812 106.619 55.6628 106.665 55.6628 106.711C55.6628 107.512 55.6628 108.314 55.6628 109.125C55.672 109.65 55.8381 109.788 56.3643 109.761C56.5489 109.751 56.7428 109.724 56.9182 109.687C57.1028 109.65 57.2782 109.586 57.4905 109.53C57.6474 110.009 57.8043 110.47 57.9613 110.94C57.5551 111.161 57.1582 111.262 56.752 111.336C56.2535 111.428 55.7458 111.483 55.2289 111.419C54.3797 111.299 53.9089 110.829 53.8166 109.972C53.7889 109.733 53.7796 109.493 53.7796 109.254C53.7796 108.517 53.7796 107.78 53.7796 107.043V106.554L53.7704 106.545Z" fill="black"/>
<path d="M99.8051 84.0641C99.3805 84.1839 99.002 84.3221 98.6143 84.3866C98.1527 84.4603 97.682 84.5248 97.2204 84.4971C96.1958 84.4326 95.6788 83.8798 95.6235 82.8479C95.5958 82.3688 95.605 81.8805 95.605 81.4014C95.605 80.8301 95.605 80.2589 95.605 79.6416H94.3958V78.0477H95.6881C95.8081 77.5225 95.9189 77.0342 96.0296 76.5366C96.5004 76.4353 96.9527 76.334 97.4604 76.2234V78.02H99.4359V79.614H97.5158C97.4973 79.7245 97.4789 79.789 97.4789 79.8535C97.4789 80.6274 97.4789 81.4014 97.4789 82.1845C97.4789 82.7189 97.6543 82.894 98.1989 82.8387C98.5681 82.8018 98.9281 82.7097 99.3343 82.636C99.482 83.0782 99.6389 83.5297 99.8236 84.0733L99.8051 84.0641Z" fill="black"/>
<path d="M36.37 109.797C35.8992 110.562 35.2807 111.078 34.4315 111.308C33.7299 111.493 33.0191 111.493 32.3268 111.299C31.4776 111.06 30.8683 110.525 30.536 109.705C30.2222 108.941 30.1668 108.139 30.3329 107.337C30.6468 105.817 31.736 104.896 33.2961 104.822C33.8407 104.795 34.3669 104.859 34.8746 105.043C35.4653 105.255 35.9177 105.633 36.2223 106.158C35.7977 106.499 35.3638 106.84 34.9207 107.19C34.8284 107.098 34.7453 107.024 34.6623 106.941C34.293 106.6 33.8499 106.471 33.3607 106.517C32.8345 106.564 32.4653 106.849 32.2714 107.347C32.0591 107.909 32.0591 108.48 32.2714 109.033C32.5945 109.908 33.7299 110.157 34.5238 109.539C34.7361 109.374 34.9207 109.18 35.1607 108.968C35.5392 109.199 35.9361 109.503 36.37 109.807V109.797Z" fill="black"/>
<path d="M115.932 111.382H114.002C113.181 109.263 112.359 107.135 111.528 104.979H113.476C113.975 106.333 114.482 107.697 114.981 109.051C115.009 109.051 115.036 109.051 115.073 109.051C115.572 107.688 116.07 106.333 116.569 104.97H118.396C117.575 107.116 116.753 109.235 115.932 111.382Z" fill="black"/>
<path d="M42.1856 91.4441C42.2963 91.8495 42.3979 92.2365 42.4994 92.6142C42.8133 92.3378 43.0902 92.0522 43.4041 91.8218C43.7179 91.5915 44.1056 91.4902 44.5302 91.4441C44.6041 91.7389 44.6872 92.0338 44.761 92.3286C44.8256 92.6142 44.8902 92.8906 44.9549 93.1947C44.6872 93.2315 44.4471 93.2499 44.2071 93.296C43.9948 93.3329 43.7825 93.3789 43.5887 93.4434C42.924 93.6738 42.6471 94.0607 42.6379 94.7702C42.6379 95.6362 42.6379 96.5115 42.6379 97.3776C42.6379 97.525 42.6379 97.6632 42.6379 97.8383H40.8286V91.5731C41.2717 91.527 41.724 91.4902 42.1856 91.4441Z" fill="black"/>
<path d="M130.027 106.665C129.658 106.711 129.353 106.748 129.058 106.794C128.91 106.821 128.772 106.858 128.633 106.904C127.996 107.135 127.71 107.531 127.71 108.204C127.71 109.07 127.71 109.945 127.71 110.811C127.71 110.958 127.71 111.106 127.71 111.281H125.938C125.864 110.986 125.827 105.836 125.91 105.034C126.344 104.997 126.787 104.951 127.258 104.914C127.369 105.32 127.461 105.688 127.581 106.112C127.784 105.9 127.941 105.688 128.135 105.532C128.338 105.366 128.578 105.228 128.818 105.117C129.058 105.016 129.316 104.96 129.612 104.877C129.76 105.495 129.898 106.057 130.046 106.656L130.027 106.665Z" fill="black"/>
<path d="M130.387 93.1947C130.037 93.2408 129.713 93.2776 129.4 93.3329C129.215 93.3698 129.04 93.4251 128.864 93.4988C128.347 93.7199 128.07 94.1068 128.07 94.6873C128.07 95.581 128.07 96.4747 128.07 97.3776C128.07 97.5251 128.07 97.6633 128.07 97.8383H126.289C126.206 97.5619 126.187 92.0983 126.27 91.5731C126.695 91.5363 127.129 91.4902 127.609 91.4441C127.72 91.8495 127.821 92.2365 127.95 92.7064C128.255 92.2365 128.587 91.8956 129.049 91.7021C129.326 91.5823 129.621 91.5086 129.963 91.3981C130.11 92.0246 130.249 92.605 130.397 93.1855L130.387 93.1947Z" fill="black"/>
<path d="M48.9056 106.665C48.5549 106.711 48.2502 106.748 47.9456 106.794C47.8164 106.812 47.6872 106.849 47.5579 106.895C46.8841 107.126 46.5794 107.522 46.5702 108.24C46.561 109.106 46.5702 109.982 46.5702 110.848C46.5702 110.995 46.5702 111.133 46.5702 111.299H44.7517V105.043C45.204 105.006 45.6563 104.96 46.1179 104.924C46.2287 105.329 46.321 105.707 46.441 106.13C46.6348 105.919 46.7918 105.716 46.9856 105.55C47.1887 105.384 47.4195 105.237 47.6595 105.135C47.8995 105.025 48.1672 104.979 48.4626 104.896C48.6102 105.504 48.7487 106.066 48.8964 106.683L48.9056 106.665Z" fill="black"/>
<path d="M77.5678 111.299H75.7493V105.043C76.1924 105.006 76.6262 104.96 77.1062 104.923C77.217 105.329 77.3185 105.707 77.4201 106.094C77.7247 105.817 77.9924 105.532 78.3062 105.31C78.6293 105.08 79.017 104.96 79.4693 104.933C79.6078 105.513 79.737 106.075 79.8847 106.683C79.7093 106.702 79.5801 106.702 79.4509 106.729C79.0816 106.803 78.7032 106.849 78.3616 106.978C77.8355 107.172 77.5678 107.586 77.5678 108.157C77.5678 109.042 77.5678 109.926 77.5678 110.811C77.5678 110.958 77.5678 111.106 77.5678 111.299Z" fill="black"/>
<path d="M49.9026 104.97H51.6565C51.7488 105.274 51.7857 110.092 51.7119 111.253C51.4442 111.336 50.438 111.355 49.9026 111.281V104.97Z" fill="black"/>
<path d="M49.8841 102.795H51.7303V104.371H49.8749C49.8749 103.846 49.8564 103.32 49.8749 102.795H49.8841Z" fill="black"/>
<path d="M151.231 3.41816C151.231 4.91997 150.031 6.10851 148.508 6.10851C146.994 6.10851 145.784 4.91075 145.784 3.41816C145.784 1.93479 147.012 0.737032 148.526 0.755459C150.04 0.764672 151.221 1.944 151.221 3.42738L151.231 3.41816ZM150.529 3.41816C150.529 2.22962 149.643 1.29906 148.517 1.29906C147.381 1.29906 146.486 2.22041 146.486 3.39974C146.486 4.60671 147.363 5.50963 148.544 5.50963C149.68 5.50963 150.538 4.60671 150.538 3.42738L150.529 3.41816Z" fill="black"/>
<path d="M94.3588 36.246C94.3218 40.5579 91.1002 43.58 87.1586 43.5892C83.0785 43.5892 79.9308 40.4289 79.9123 36.3013C79.8939 32.2566 82.9955 29.1516 87.1032 29.124C91.1741 29.0963 94.3311 32.2013 94.3495 36.246H94.3588ZM82.5616 36.2552C82.5616 36.9094 82.6631 37.5451 82.8939 38.1532C83.5955 39.9498 84.8693 41.0647 86.8078 41.2029C88.7463 41.3411 90.1864 40.4474 91.1095 38.7429C91.6633 37.711 91.8018 36.5869 91.6356 35.426C91.2018 32.3671 87.934 30.5705 85.174 31.9249C83.3924 32.8002 82.6262 34.3296 82.5616 36.2552Z" fill="white"/>
<path d="M108.879 17.0542C108.879 21.2463 105.63 24.4066 101.568 24.3513C97.5343 24.296 94.4327 21.1081 94.4511 16.9805C94.4696 12.9357 97.6266 9.86764 101.725 9.88607C105.796 9.9045 108.907 13.0279 108.879 17.0542ZM97.1096 16.5567C97.1004 18.0308 97.3404 18.9614 97.8666 19.8182C99.6297 22.7113 103.719 22.7113 105.473 19.8182C106.23 18.5652 106.424 17.2108 106.101 15.7919C105.454 12.9542 102.399 11.4247 99.7959 12.6501C97.9681 13.507 97.1743 15.0456 97.1189 16.5474L97.1096 16.5567Z" fill="white"/>
<path d="M63.1766 24.0841V10.1625C63.3059 10.1533 63.4166 10.1349 63.5366 10.1349C65.1059 10.1349 66.6659 10.1349 68.2352 10.1349C69.2229 10.1349 70.1737 10.3192 71.0968 10.6877C72.9337 11.4248 74.1338 12.7515 74.6969 14.6403C75.1861 16.2895 75.1861 17.9572 74.6876 19.5972C73.9399 22.0203 72.2507 23.4116 69.8137 23.9183C69.2414 24.0381 68.6506 24.0841 68.0598 24.0934C66.5459 24.121 65.0321 24.0934 63.5274 24.0934C63.4259 24.0934 63.3151 24.0749 63.1859 24.0657L63.1766 24.0841ZM65.7336 12.3922V21.9005C66.8598 21.8545 67.9675 22.0019 69.066 21.7623C70.7276 21.3938 71.7614 20.3619 72.186 18.7219C72.426 17.8005 72.426 16.8608 72.2691 15.9302C71.946 13.9585 70.5983 12.6318 68.6229 12.4291C67.6998 12.3277 66.7582 12.3738 65.8167 12.3646C65.7982 12.3646 65.7705 12.383 65.7244 12.4106L65.7336 12.3922Z" fill="white"/>
<path d="M113.984 18.9061V24.0841C113.125 24.1394 112.295 24.1025 111.436 24.1117V10.1625C111.556 10.1533 111.676 10.1348 111.787 10.1348C113.356 10.1348 114.916 10.1256 116.485 10.1348C116.956 10.1348 117.427 10.1717 117.879 10.2546C119.569 10.5771 120.769 11.9038 120.972 13.6268C121.073 14.4836 121.009 15.3128 120.667 16.1144C120.307 16.9713 119.735 17.6438 118.895 18.0677C118.839 18.0953 118.784 18.1322 118.728 18.169C119.809 20.1315 120.889 22.0848 121.987 24.0841C121.793 24.0933 121.682 24.1117 121.562 24.1117C120.87 24.1117 120.169 24.1025 119.476 24.1117C119.199 24.1117 119.07 24.0104 118.95 23.7893C118.165 22.2782 117.353 20.7857 116.568 19.2746C116.421 18.9982 116.264 18.8877 115.95 18.9061C115.442 18.9337 114.935 18.9061 114.427 18.9061H113.975H113.984ZM114.002 16.6396C114.907 16.6396 115.793 16.7041 116.67 16.6211C117.602 16.5382 118.184 15.9393 118.359 15.0456C118.442 14.6126 118.433 14.1611 118.332 13.7281C118.193 13.1477 117.842 12.7515 117.279 12.558C117.095 12.4935 116.892 12.4198 116.698 12.4106C115.913 12.3737 115.119 12.3553 114.335 12.3369C114.233 12.3369 114.131 12.3553 114.002 12.3645V16.6396Z" fill="white"/>
<path d="M68.4937 37.5175V43.3312H65.9459V29.3819C66.7675 29.3543 67.589 29.3635 68.466 29.3819C68.5121 29.8795 68.4844 30.3586 68.4937 30.8377C68.4937 31.3352 68.4937 31.8327 68.4937 32.3303V35.2141C68.8075 35.3062 74.0322 35.3339 74.8261 35.2602C74.8446 34.2928 74.8261 33.3161 74.8261 32.3487C74.8261 31.3813 74.8261 30.4231 74.8261 29.4649C75.1307 29.3635 76.7923 29.3451 77.3369 29.428V43.3496H74.8261C74.8169 41.4148 74.8261 39.4892 74.8261 37.5359H68.4937V37.5175Z" fill="white"/>
<path d="M51.9056 10.1533H60.2227V12.3185H54.5365C54.4349 12.6318 54.4072 15.4327 54.4995 15.9486H59.1058C59.1335 16.7041 59.115 17.4136 59.115 18.1691H54.4534C54.4349 19.4221 54.4534 20.6383 54.4534 21.8913H60.4904C60.5827 22.2138 60.6012 23.4761 60.5366 24.0381C60.2597 24.121 52.4318 24.1486 51.9056 24.0657V10.1533Z" fill="white"/>
<path d="M117.03 29.391H125.273C125.356 29.6859 125.375 30.9666 125.301 31.5747C124.839 31.6023 124.359 31.5747 123.889 31.5839C123.409 31.5839 122.929 31.5839 122.439 31.5839H119.55C119.513 32.7908 119.55 33.961 119.532 35.1956C120.067 35.1956 120.565 35.1956 121.073 35.1956C121.599 35.1956 122.116 35.1956 122.642 35.1956H124.156C124.258 35.5088 124.276 36.8171 124.193 37.3792C123.704 37.4252 123.196 37.3976 122.698 37.3976C122.172 37.3976 121.655 37.3976 121.129 37.3976C120.602 37.3976 120.113 37.3976 119.615 37.3976C119.522 37.7016 119.485 40.4381 119.569 41.1106C120.575 41.1475 121.581 41.1199 122.596 41.1291C123.593 41.1291 124.599 41.1291 125.624 41.1291V43.3127H117.039C116.947 43.0086 116.938 29.8057 117.03 29.3818V29.391Z" fill="white"/>
<path d="M62.2905 39.4707C62.7428 40.0972 63.1766 40.6869 63.629 41.3042C63.5366 41.4055 63.472 41.4977 63.3797 41.5806C62.1982 42.6678 60.8135 43.3035 59.2258 43.5246C58.1089 43.6813 57.0104 43.6076 55.9303 43.2851C53.9457 42.6954 52.4687 41.47 51.6287 39.572C50.5487 37.1212 50.6133 34.6704 52.0441 32.3671C53.3088 30.3309 55.2196 29.3082 57.5827 29.1423C59.3089 29.0226 60.9335 29.3911 62.4012 30.3493C62.6966 30.5428 62.9736 30.7823 63.2782 31.0127C62.8536 31.6761 62.4566 32.2934 62.0412 32.9291C61.9028 32.8277 61.8012 32.754 61.6905 32.6803C60.5735 31.8695 59.3458 31.4181 57.9427 31.4734C55.7919 31.5563 54.0934 32.9936 53.6872 35.1219C53.4011 36.6237 53.6134 38.0518 54.5088 39.3048C55.5703 40.7974 57.0565 41.3687 58.8473 41.1752C60.0289 41.0462 61.0351 40.5118 61.9397 39.7563C62.0505 39.6642 62.1612 39.572 62.2905 39.4523V39.4707Z" fill="white"/>
<path d="M114.335 31.0218C113.901 31.6944 113.504 32.3117 113.098 32.9475C112.959 32.8461 112.848 32.7724 112.747 32.6895C111.63 31.8879 110.402 31.4272 108.999 31.4917C106.885 31.5839 105.224 32.9567 104.771 35.0205C104.559 35.9695 104.587 36.9185 104.864 37.8491C105.621 40.4381 108.113 41.7924 110.707 41.0277C111.584 40.7697 112.35 40.3275 113.042 39.7378C113.135 39.6641 113.227 39.5812 113.356 39.4706C113.808 40.0879 114.242 40.6868 114.704 41.3133C114.565 41.4515 114.455 41.5805 114.325 41.6911C112.59 43.1745 110.587 43.7733 108.325 43.543C106.654 43.3679 105.205 42.7138 104.024 41.516C103.017 40.4933 102.399 39.2587 102.141 37.8491C101.808 36.0248 102.002 34.2558 102.953 32.6342C104.07 30.7178 105.741 29.5845 107.919 29.2436C109.931 28.9212 111.833 29.2713 113.559 30.423C113.827 30.598 114.067 30.8099 114.353 31.0403L114.335 31.0218Z" fill="white"/>
<path d="M132.427 11.3787C132.04 12.1157 131.68 12.7791 131.31 13.4793C131.172 13.378 131.061 13.3043 130.96 13.2306C130.258 12.7331 129.492 12.4014 128.643 12.2908C127.959 12.2079 127.304 12.3092 126.741 12.7423C126.233 13.1384 126.03 13.7558 126.215 14.3178C126.316 14.6218 126.51 14.8706 126.769 15.0364C127.147 15.276 127.544 15.5063 127.959 15.6998C128.569 15.9854 129.196 16.2158 129.796 16.5014C130.24 16.7133 130.673 16.9528 131.089 17.2292C133.304 18.7218 132.963 21.5043 131.735 22.8771C131.07 23.6142 130.249 24.0657 129.289 24.2315C127.212 24.5908 125.329 24.1117 123.676 22.8034C123.538 22.6929 123.427 22.5731 123.27 22.4257C123.732 21.7807 124.184 21.1542 124.646 20.5093C124.775 20.6106 124.886 20.6843 124.987 20.7672C125.79 21.3845 126.667 21.8176 127.673 21.9466C128.19 22.0111 128.689 21.965 129.169 21.7623C130.175 21.3477 130.563 19.9564 129.538 19.1825C129.215 18.9337 128.846 18.7218 128.476 18.5376C127.886 18.2519 127.267 18.0216 126.686 17.7268C126.113 17.4412 125.541 17.1371 125.024 16.7686C123.067 15.3589 123.289 12.9265 124.396 11.5721C125.089 10.7245 125.984 10.2178 127.036 10.0151C128.707 9.69259 130.286 9.95978 131.744 10.8535C131.984 11.0009 132.196 11.1852 132.446 11.3695L132.427 11.3787Z" fill="white"/>
<path d="M93.6941 10.1902V12.3277H89.171C89.1433 12.9174 89.1617 13.4702 89.1525 14.0322C89.1525 14.585 89.1525 15.1286 89.1525 15.6814V24.1026C88.2848 24.1302 87.454 24.121 86.5863 24.1026V12.3461C86.0601 12.3461 85.5709 12.3461 85.0817 12.3461C84.574 12.3461 84.0663 12.3461 83.5586 12.3461H82.0816C81.9801 12.0513 81.9524 10.872 82.0262 10.2178C82.3031 10.1257 93.2511 10.098 93.6849 10.1994L93.6941 10.1902Z" fill="white"/>
<path d="M80.1616 24.0933H77.7246C77.6323 23.8169 77.6046 10.7706 77.6969 10.1625H80.1616C80.2447 10.4849 80.2539 23.7156 80.1616 24.0933Z" fill="white"/>
<path d="M99.3989 43.3311H96.9435C96.8512 43.0455 96.8235 29.99 96.9066 29.4279C97.1927 29.345 98.8266 29.3266 99.3712 29.3911C99.4543 29.6675 99.4912 42.7138 99.3989 43.3311Z" fill="white"/>
<path d="M137.532 9.89532C137.024 11.3879 136.553 12.8068 136.073 14.2072H134.273C134.578 12.7607 134.883 11.3511 135.197 9.88611C135.953 9.88611 136.71 9.88611 137.532 9.88611V9.89532Z" fill="white"/>
<path d="M39.3978 17.6162H32.4376C32.4376 17.4412 32.4192 17.2845 32.4192 17.1279C32.4192 14.714 32.4192 12.2908 32.4192 9.87688C32.4192 9.63733 32.4099 9.38856 32.3638 9.15823C32.2622 8.63306 31.8653 8.36586 31.2653 8.37508C30.693 8.37508 30.3237 8.66991 30.2314 9.18587C30.2037 9.35171 30.1945 9.53598 30.1945 9.71104C30.1945 17.2938 30.1945 24.8765 30.1945 32.4684C30.1945 32.6527 30.1945 32.8462 30.2314 33.0304C30.3145 33.5188 30.6007 33.7952 31.0899 33.8412C31.2376 33.8597 31.3853 33.8504 31.533 33.8412C32.0038 33.7952 32.2899 33.5372 32.373 33.0581C32.4192 32.8093 32.4284 32.5513 32.4284 32.2934C32.4284 29.5938 32.4284 26.8942 32.4284 24.1947C32.4284 24.0381 32.4284 23.8814 32.4284 23.6972H39.407C39.407 23.8354 39.4347 23.9643 39.4347 24.0933C39.4347 26.8758 39.4531 29.6491 39.4255 32.4316C39.4255 33.0949 39.3424 33.7767 39.1855 34.4217C38.7516 36.3197 37.57 37.5819 35.7608 38.2729C34.7638 38.6507 33.7207 38.8165 32.6592 38.881C30.9237 38.9824 29.2068 38.881 27.5268 38.4296C26.8529 38.2453 26.2067 37.9873 25.6067 37.6372C24.0559 36.7251 23.179 35.3707 22.9113 33.6017C22.8467 33.1686 22.819 32.7172 22.819 32.2749C22.819 24.7936 22.819 17.3214 22.819 9.84003C22.819 9.20429 22.8744 8.57777 23.0313 7.96968C23.4282 6.4126 24.3513 5.27012 25.7544 4.49619C26.8529 3.89731 28.0437 3.60248 29.2714 3.44585C30.5084 3.28922 31.7545 3.25236 33.0007 3.36293C33.9884 3.44585 34.9577 3.6209 35.89 3.98944C37.8285 4.75417 38.9547 6.18226 39.3055 8.21845C39.3978 8.76205 39.4439 9.31486 39.4439 9.85845C39.4624 12.2724 39.4439 14.6955 39.4439 17.1095C39.4439 17.2661 39.4347 17.4227 39.4255 17.5978L39.3978 17.6162Z" fill="white"/>
<path d="M12.3787 25.1528V38.6414C12.3326 38.6875 12.3326 38.6967 12.3141 38.7059C12.3049 38.7059 12.2956 38.7244 12.2864 38.7336C12.2218 38.7428 12.1572 38.7612 12.0925 38.7612C9.77558 38.7612 7.45861 38.7612 5.14164 38.7612C5.10471 38.7612 5.06779 38.7428 5.00317 38.7244V3.49187C5.11395 3.48266 5.22472 3.46423 5.34472 3.46423C8.44632 3.46423 11.5572 3.46423 14.6588 3.46423C15.5542 3.46423 16.4496 3.5748 17.3173 3.82356C19.4681 4.43165 20.7235 5.86896 21.1296 8.04335C21.2497 8.6883 21.2958 9.35167 21.305 10.0058C21.3235 12.8804 21.305 15.7551 21.305 18.6205C21.305 19.376 21.2404 20.1223 21.065 20.8593C20.5758 22.9508 19.2835 24.2591 17.225 24.8119C16.3388 25.0515 15.4342 25.1436 14.5203 25.1436C13.828 25.1436 13.1264 25.1436 12.3695 25.1436L12.3787 25.1528ZM12.3972 20.0301C12.9141 20.0301 13.4033 19.9933 13.8649 19.7814C14.2895 19.5879 14.5203 19.2378 14.6034 18.7955C14.6495 18.5468 14.6772 18.2888 14.6772 18.04C14.6772 15.5524 14.6772 13.0739 14.6772 10.5863C14.6772 10.3375 14.6495 10.0795 14.6034 9.83077C14.5295 9.43459 14.3264 9.1029 13.9572 8.90021C13.468 8.64223 12.951 8.57773 12.3972 8.64223V20.0301Z" fill="white"/>
<path d="M15.5357 42.8244H17.0034C17.1049 43.1008 17.1419 48.334 17.0495 49.0896C16.708 49.154 16.3572 49.1264 15.988 49.0988V45.57C15.988 45.57 15.9603 45.57 15.9511 45.57C15.7572 46.7401 15.5541 47.9102 15.3511 49.0988H14.308C14.1049 47.9286 13.911 46.7862 13.7172 45.6345C13.6987 45.6345 13.6802 45.6345 13.671 45.6345V49.0896H12.6187C12.5356 48.7855 12.5171 43.3035 12.6002 42.8059C13.0895 42.7875 13.5879 42.7875 14.1049 42.8059C14.2249 43.4969 14.3356 44.1603 14.4464 44.8145C14.5572 45.4594 14.668 46.1044 14.8341 46.7493C15.0649 45.441 15.2957 44.1327 15.5264 42.8059L15.5357 42.8244Z" fill="white"/>
<path d="M37.053 46.7309C37.2838 45.4318 37.5054 44.1235 37.7361 42.8244H39.2685V49.0804H38.17V45.7727H38.1054C37.9207 46.8691 37.7361 47.9748 37.5423 49.1172C37.2746 49.1172 37.0346 49.1172 36.7946 49.1172C36.5823 49.1264 36.49 49.0435 36.453 48.8224C36.3607 48.1867 36.2407 47.5509 36.1299 46.9152C36.0653 46.5467 36.0099 46.1781 35.8715 45.8188V49.0804H34.7822V42.8152H36.3146C36.5361 44.1327 36.7577 45.4318 36.9792 46.7401C37.0069 46.7401 37.0253 46.7401 37.053 46.7309Z" fill="white"/>
<path d="M34.3945 45.9754C34.3115 46.6388 34.2468 47.3114 34.1453 47.9656C34.1176 48.1683 34.0068 48.371 33.9053 48.5552C33.453 49.4674 31.6068 49.3937 31.2006 48.7211C31.0437 48.4631 30.896 48.1775 30.8406 47.8826C30.5914 46.6112 30.5914 45.3213 30.8406 44.0498C30.8775 43.884 30.9329 43.7181 31.0068 43.5523C31.2006 43.11 31.5329 42.8152 32.0314 42.7415C32.1514 42.7231 32.2714 42.6954 32.3914 42.6954C33.3884 42.6586 33.9422 43.0363 34.1545 44.013C34.293 44.6487 34.3207 45.3121 34.4038 45.9662L34.3945 45.9754ZM31.976 45.9478C31.976 46.4545 31.976 46.9705 31.976 47.4772C31.976 47.6523 32.0129 47.8274 32.0591 47.9932C32.1329 48.2696 32.2806 48.371 32.5114 48.371C32.7422 48.371 32.8714 48.2512 32.9545 47.984C32.9822 47.8826 33.0007 47.7721 33.0099 47.6707C33.1114 46.5283 33.1114 45.395 33.0099 44.2525C32.9914 44.0959 32.9453 43.9393 32.8899 43.7918C32.8253 43.626 32.6868 43.5431 32.5114 43.5339C32.3176 43.5339 32.1606 43.6168 32.1053 43.8011C32.0406 44.0038 31.9853 44.2157 31.976 44.4276C31.9576 44.9343 31.976 45.4503 31.976 45.957V45.9478Z" fill="white"/>
<path d="M24.582 45.0172C24.462 45.0172 24.3328 45.0357 24.2036 45.0357C23.982 45.0357 23.7513 45.0357 23.5205 45.0357C23.502 44.7132 23.4928 44.4184 23.4651 44.1235C23.4559 44.0038 23.4189 43.884 23.382 43.7734C23.3266 43.6168 23.2159 43.5246 23.0589 43.5154C22.8836 43.5154 22.7451 43.5891 22.6712 43.7458C22.6251 43.8379 22.5974 43.9485 22.5789 44.0498C22.542 44.317 22.5051 44.5842 22.5051 44.8514C22.5051 45.6253 22.5051 46.4085 22.5051 47.1824C22.5051 47.422 22.542 47.6615 22.5882 47.9011C22.6435 48.2051 22.782 48.3341 23.022 48.3433C23.2989 48.3617 23.502 48.2235 23.5943 47.9379C23.6313 47.8274 23.659 47.6984 23.6682 47.5878C23.6774 47.3206 23.6682 47.0534 23.6682 46.7494C23.4836 46.731 23.3082 46.7125 23.0866 46.6849V45.8096H24.7113V49.0251C24.4528 49.1173 24.1974 49.0006 23.9451 48.675C23.659 49.1725 23.2066 49.2555 22.6897 49.191C22.1082 49.1265 21.6651 48.8316 21.4989 48.2696C21.3604 47.8089 21.2681 47.3298 21.2312 46.8507C21.1481 45.9662 21.1943 45.0817 21.342 44.2064C21.342 44.1512 21.3604 44.0959 21.3697 44.0498C21.6558 42.8613 22.6712 42.3453 23.8066 42.806C24.0559 42.9073 24.2405 43.064 24.379 43.2943C24.619 43.6997 24.7113 44.4736 24.5728 44.9988L24.582 45.0172Z" fill="white"/>
<path d="M21.1574 49.0989H19.8743C19.8004 48.7211 19.7266 48.3618 19.6527 47.9748H18.8035C18.7296 48.3433 18.6558 48.7119 18.5727 49.0989H17.4188C17.825 46.9797 18.2219 44.8883 18.6096 42.7968C18.7388 42.7876 18.8312 42.7692 18.9235 42.7692C19.2189 42.7692 19.5142 42.7692 19.8466 42.7692C20.2804 44.8698 20.705 46.9521 21.1481 49.0989H21.1574ZM19.2466 45.1831H19.1635C19.0896 45.782 19.0158 46.3993 18.9327 47.035H19.4681C19.385 46.3993 19.3112 45.7912 19.2373 45.1831H19.2466Z" fill="white"/>
<path d="M12.0095 45.1554H10.9018C10.9018 45.0356 10.9018 44.9066 10.9018 44.7776C10.8741 44.4736 10.8649 44.1603 10.8095 43.8563C10.7725 43.6351 10.5972 43.5154 10.4125 43.5246C10.2187 43.5338 10.0895 43.6444 10.0341 43.8286C9.98792 43.9945 9.95099 44.1695 9.93253 44.3354C9.84945 45.4594 9.83099 46.5835 9.93253 47.7075C9.94176 47.8273 9.97869 47.9471 10.0156 48.0576C10.0802 48.2695 10.2464 48.3525 10.4495 48.3525C10.6618 48.3525 10.8187 48.2419 10.8649 48.0392C10.9202 47.8089 10.9479 47.5693 10.9664 47.3298C10.9849 47.0626 10.9664 46.7954 10.9664 46.5098H12.0372C12.1295 47.2284 12.1203 47.901 11.8156 48.5367C11.6772 48.8316 11.4372 49.0251 11.1326 49.1172C10.6433 49.2646 10.1541 49.2554 9.67406 49.0988C9.30483 48.979 9.04636 48.721 8.91713 48.3709C8.80636 48.0761 8.70481 47.7536 8.67712 47.4403C8.56635 46.3716 8.55712 45.3028 8.73251 44.234C8.74174 44.1511 8.7602 44.0774 8.78789 43.9945C9.09252 42.8244 10.2187 42.3176 11.2987 42.852C11.631 43.0178 11.8341 43.2942 11.9264 43.6444C12.0557 44.1142 12.0649 44.5934 12.0003 45.137L12.0095 45.1554Z" fill="white"/>
<path d="M30.3052 46.519C30.3975 47.2376 30.379 47.901 30.0929 48.5275C29.9452 48.85 29.6775 49.0527 29.3359 49.1448C28.8836 49.2646 28.4313 49.2554 27.9882 49.1264C27.5728 49.0066 27.2867 48.721 27.1482 48.3248C27.0374 48.0116 26.9451 47.6799 26.9174 47.3482C26.8343 46.3624 26.8159 45.3673 26.9636 44.3722C26.982 44.2433 27.0097 44.1051 27.0466 43.9761C27.3513 42.8059 28.5513 42.2992 29.6129 42.8889C29.8713 43.0271 30.0467 43.239 30.1482 43.5154C30.3421 44.0313 30.3144 44.5657 30.2775 45.137H29.1513C29.1513 44.8974 29.1605 44.6579 29.1513 44.4183C29.1328 44.2064 29.1052 43.9945 29.0498 43.7826C29.0036 43.6167 28.8744 43.5062 28.699 43.5062C28.5144 43.5062 28.3944 43.5983 28.3298 43.7642C28.2836 43.8839 28.2374 44.0221 28.2282 44.1511C28.1174 45.3304 28.1082 46.5098 28.2097 47.6891C28.2097 47.7812 28.2282 47.8734 28.2559 47.9655C28.339 48.2327 28.4682 48.3433 28.7082 48.3525C28.939 48.3525 29.0867 48.2419 29.1605 47.9747C29.2067 47.8089 29.2344 47.6338 29.2344 47.4588C29.2436 47.1547 29.2344 46.8415 29.2344 46.5006H30.3236L30.3052 46.519Z" fill="white"/>
<path d="M5.02164 42.8152C5.7232 42.8152 6.40629 42.7415 7.08015 42.8612C7.6617 42.9626 8.04017 43.3311 8.18786 43.9024C8.34479 44.5012 8.33556 45.1001 8.17863 45.6898C8.00324 46.3347 7.55093 46.6664 6.81245 46.7217C6.62783 46.7309 6.44321 46.7217 6.22167 46.7217V49.0896C5.80628 49.1448 5.42781 49.1264 5.05857 49.0988C4.97549 48.7855 4.9478 43.414 5.03088 42.8059L5.02164 42.8152ZM6.2309 43.6997V45.7451C6.68322 45.828 6.90476 45.7082 6.96938 45.2844C7.01553 44.9343 7.01553 44.5657 6.96938 44.2064C6.92322 43.801 6.72014 43.672 6.2309 43.6904V43.6997Z" fill="white"/>
<path d="M25.2467 47.7075H26.5206V49.0895H25.2467V47.7075Z" fill="white"/>
<path d="M153.991 26.1295C153.972 26.0374 153.908 25.9637 153.862 25.8808C149.292 17.3859 144.732 8.90026 140.172 0.405395C140.107 0.276405 140.061 0.138203 140.006 0H45.8687C45.8687 0.18427 45.8687 0.377754 45.8687 0.562024C45.8687 17.6347 45.8687 34.7165 45.8687 51.7892C45.8687 51.9274 45.8687 52.0564 45.8687 52.1946C45.8687 52.2959 45.8871 52.3973 45.8963 52.517H139.951C140.024 52.3973 140.08 52.2867 140.135 52.1853C144.714 43.6721 149.292 35.1496 153.871 26.6363C153.908 26.5626 153.963 26.4981 153.982 26.4244C154 26.3322 154.009 26.2217 153.982 26.1295H153.991ZM82.0355 10.2086C82.3125 10.1164 93.2604 10.0888 93.6942 10.1901V12.3277H89.1711C89.1434 12.9173 89.1618 13.4702 89.1526 14.0322C89.1526 14.585 89.1526 15.1286 89.1526 15.6814V24.1026C88.2849 24.1302 87.4541 24.121 86.5864 24.1026V12.3461C86.0602 12.3461 85.571 12.3461 85.0817 12.3461C84.574 12.3461 84.0663 12.3461 83.5586 12.3461H82.0817C81.9801 12.0513 81.9524 10.8719 82.0263 10.2178L82.0355 10.2086ZM51.9057 10.1533H60.2228V12.3185H54.5365C54.435 12.6317 54.4073 15.4326 54.4996 15.9486H59.1058C59.1335 16.7041 59.1151 17.4135 59.1151 18.1691H54.4534C54.435 19.4221 54.4534 20.6383 54.4534 21.8913H60.4905C60.5828 22.2138 60.6013 23.476 60.5366 24.0381C60.2597 24.121 52.4319 24.1486 51.9057 24.0657V10.1533ZM63.3705 41.5714C62.189 42.6586 60.8043 43.2943 59.2166 43.5154C58.0997 43.6721 57.0012 43.5984 55.9212 43.2759C53.9365 42.6862 52.4596 41.4608 51.6195 39.5628C50.5395 37.112 50.6041 34.6612 52.0349 32.3579C53.2996 30.3217 55.2104 29.299 57.5735 29.1331C59.2997 29.0134 60.9243 29.3819 62.3921 30.3401C62.6874 30.5336 62.9644 30.7731 63.269 31.0035C62.8444 31.6669 62.4474 32.2842 62.0321 32.9199C61.8936 32.8185 61.792 32.7448 61.6813 32.6711C60.5643 31.8603 59.3366 31.4089 57.9335 31.4642C55.7827 31.5471 54.0842 32.9844 53.678 35.1127C53.3919 36.6145 53.6042 38.0426 54.4996 39.2956C55.5612 40.7882 57.0473 41.3595 58.8381 41.166C60.0197 41.037 61.0259 40.5026 61.9305 39.7471C62.0413 39.655 62.1521 39.5628 62.2813 39.4431C62.7336 40.0696 63.1675 40.6592 63.6198 41.2765C63.5275 41.3779 63.4629 41.47 63.3705 41.553V41.5714ZM63.509 24.1118C63.4075 24.1118 63.2967 24.0933 63.1675 24.0841V10.1625C63.2967 10.1533 63.4075 10.1349 63.5275 10.1349C65.0967 10.1349 66.6568 10.1349 68.226 10.1349C69.2137 10.1349 70.1645 10.3191 71.0876 10.6877C72.9246 11.4248 74.1246 12.7515 74.6877 14.6403C75.1769 16.2895 75.1769 17.9571 74.6785 19.5971C73.9308 22.0203 72.2415 23.4115 69.8045 23.9183C69.2322 24.0381 68.6414 24.0841 68.0506 24.0933C66.5368 24.121 65.0229 24.0933 63.5182 24.0933L63.509 24.1118ZM77.337 43.3312H74.8262C74.8169 41.3963 74.8262 39.4707 74.8262 37.5174H68.4937V43.3312H65.946V29.3819C66.7675 29.3543 67.5891 29.3635 68.466 29.3819C68.5122 29.8794 68.4845 30.3585 68.4937 30.8376C68.4937 31.3352 68.4937 31.8327 68.4937 32.3302V35.2141C68.8076 35.3062 74.0323 35.3338 74.8262 35.2601C74.8446 34.2927 74.8262 33.3161 74.8262 32.3487C74.8262 31.3812 74.8262 30.423 74.8262 29.4648C75.1308 29.3635 76.7923 29.345 77.337 29.428V43.3496V43.3312ZM77.6878 10.1625H80.1524C80.2355 10.485 80.2447 23.7156 80.1524 24.0933H77.7154C77.6231 23.8169 77.5954 10.7706 77.6878 10.1625ZM87.1495 43.5984C83.0694 43.5984 79.9216 40.4381 79.9032 36.3105C79.8847 32.2657 82.9863 29.1608 87.0941 29.1331C91.1649 29.1055 94.3219 32.2104 94.3404 36.2552C94.3035 40.5671 91.0819 43.5891 87.1402 43.5984H87.1495ZM99.3897 43.3404H96.9343C96.842 43.0548 96.8143 29.9992 96.8974 29.4372C97.1835 29.3543 98.8174 29.3358 99.362 29.4003C99.4451 29.6767 99.482 42.7231 99.3897 43.3404ZM94.4327 16.9897C94.4512 12.945 97.6081 9.87689 101.707 9.89532C105.778 9.91374 108.888 13.0371 108.861 17.0634C108.861 21.2556 105.611 24.4158 101.55 24.3605C97.5158 24.3053 94.4142 21.1174 94.4327 16.9897ZM114.288 41.7004C112.553 43.1837 110.55 43.7826 108.288 43.5523C106.618 43.3772 105.168 42.7231 103.987 41.5253C102.981 40.5026 102.362 39.268 102.104 37.8583C101.771 36.0341 101.965 34.2651 102.916 32.6435C104.033 30.7271 105.704 29.5938 107.882 29.2529C109.895 28.9304 111.796 29.2806 113.522 30.4322C113.79 30.6073 114.03 30.8192 114.316 31.0495C113.882 31.7221 113.485 32.3394 113.079 32.9752C112.941 32.8738 112.83 32.8001 112.728 32.7172C111.612 31.9156 110.384 31.4549 108.981 31.5194C106.867 31.6116 105.205 32.9844 104.753 35.0482C104.541 35.9972 104.568 36.9462 104.845 37.8768C105.602 40.4658 108.095 41.8201 110.688 41.0554C111.565 40.7974 112.332 40.3552 113.024 39.7655C113.116 39.6918 113.208 39.6089 113.338 39.4983C113.79 40.1156 114.224 40.7145 114.685 41.341C114.547 41.4792 114.436 41.6082 114.307 41.7188L114.288 41.7004ZM115.941 18.9153C115.433 18.943 114.925 18.9153 114.418 18.9153H113.965V24.0933C113.107 24.1486 112.276 24.1118 111.418 24.121V10.1625C111.538 10.1533 111.658 10.1349 111.768 10.1349C113.338 10.1349 114.898 10.1257 116.467 10.1349C116.938 10.1349 117.409 10.1717 117.861 10.2546C119.55 10.5771 120.75 11.9039 120.953 13.6268C121.055 14.4836 120.99 15.3129 120.649 16.1144C120.289 16.9713 119.716 17.6439 118.876 18.0677C118.821 18.0953 118.765 18.1322 118.71 18.1691C119.79 20.1315 120.87 22.0848 121.969 24.0841C121.775 24.0933 121.664 24.1118 121.544 24.1118C120.852 24.1118 120.15 24.1026 119.458 24.1118C119.181 24.1118 119.052 24.0104 118.932 23.7893C118.147 22.2783 117.335 20.7857 116.55 19.2747C116.402 18.9983 116.245 18.8877 115.932 18.9061L115.941 18.9153ZM125.606 43.3404H117.021C116.929 43.0363 116.919 29.8334 117.012 29.4095H125.255C125.338 29.7044 125.356 30.9851 125.283 31.5931C124.821 31.6208 124.341 31.5931 123.87 31.6024C123.39 31.6024 122.91 31.6024 122.421 31.6024H119.532C119.495 32.8093 119.532 33.9794 119.513 35.2141C120.049 35.2141 120.547 35.2141 121.055 35.2141C121.581 35.2141 122.098 35.2141 122.624 35.2141H124.138C124.239 35.5273 124.258 36.8356 124.175 37.3977C123.686 37.4437 123.178 37.4161 122.679 37.4161C122.153 37.4161 121.636 37.4161 121.11 37.4161H119.596C119.504 37.7201 119.467 40.4565 119.55 41.1291C120.556 41.166 121.562 41.1383 122.578 41.1476C123.575 41.1476 124.581 41.1476 125.606 41.1476V43.3312V43.3404ZM131.698 22.8956C131.033 23.6327 130.212 24.0841 129.252 24.25C127.175 24.6093 125.292 24.1302 123.639 22.8219C123.501 22.7113 123.39 22.5915 123.233 22.4441C123.695 21.7992 124.147 21.1727 124.609 20.5277C124.738 20.6291 124.849 20.7028 124.95 20.7857C125.753 21.403 126.63 21.836 127.636 21.965C128.153 22.0295 128.652 21.9834 129.132 21.7807C130.138 21.3661 130.526 19.9749 129.501 19.201C129.178 18.9522 128.809 18.7403 128.44 18.556C127.849 18.2704 127.23 18.0401 126.649 17.7452C126.076 17.4596 125.504 17.1556 124.987 16.787C123.03 15.3774 123.252 12.945 124.359 11.5906C125.052 10.743 125.947 10.2362 127 10.0335C128.67 9.71105 130.249 9.97824 131.707 10.8719C131.947 11.0194 132.16 11.2036 132.409 11.3879C132.021 12.125 131.661 12.7884 131.292 13.4886C131.153 13.3872 131.043 13.3135 130.941 13.2398C130.24 12.7423 129.473 12.4106 128.624 12.3C127.941 12.2171 127.286 12.3185 126.723 12.7515C126.215 13.1477 126.012 13.765 126.196 14.327C126.298 14.6311 126.492 14.8798 126.75 15.0457C127.129 15.2852 127.526 15.5156 127.941 15.709C128.55 15.9947 129.178 16.225 129.778 16.5106C130.221 16.7225 130.655 16.9621 131.07 17.2385C133.286 18.7311 132.944 21.5136 131.717 22.8864L131.698 22.8956ZM136.055 14.2257H134.255C134.56 12.7791 134.864 11.3695 135.178 9.90453C135.935 9.90453 136.692 9.90453 137.514 9.90453C137.006 11.3971 136.535 12.816 136.055 14.2165V14.2257Z" fill="#DB0D15"/>
<path d="M85.174 31.9249C83.3924 32.8001 82.6263 34.3296 82.5616 36.2552C82.5616 36.9094 82.6632 37.5451 82.894 38.1532C83.5955 39.9498 84.8694 41.0647 86.8079 41.2029C88.7464 41.3411 90.1864 40.4474 91.1095 38.7429C91.6634 37.7109 91.8018 36.5869 91.6357 35.426C91.2018 32.3671 87.9341 30.5705 85.174 31.9249Z" fill="#DB0D15"/>
<path d="M99.7866 12.6594C97.9589 13.5163 97.165 15.0549 97.1096 16.5567C97.1004 18.0309 97.3404 18.9614 97.8666 19.8183C99.6297 22.7113 103.719 22.7113 105.473 19.8183C106.23 18.5653 106.424 17.2109 106.101 15.792C105.454 12.9542 102.399 11.4248 99.7958 12.6502L99.7866 12.6594Z" fill="#DB0D15"/>
<path d="M72.1953 18.7127C72.4353 17.7913 72.4353 16.8515 72.2784 15.921C71.9553 13.9493 70.6076 12.6225 68.6322 12.4198C67.7091 12.3185 66.7675 12.3646 65.826 12.3553C65.8075 12.3553 65.7798 12.3738 65.7336 12.4014V21.9098C66.8598 21.8637 67.9675 22.0111 69.066 21.7716C70.7276 21.403 71.7615 20.3711 72.1861 18.7311L72.1953 18.7127Z" fill="#DB0D15"/>
<path d="M117.279 12.558C117.095 12.4935 116.892 12.4198 116.698 12.4106C115.913 12.3738 115.119 12.3553 114.335 12.3369C114.233 12.3369 114.132 12.3553 114.002 12.3646V16.6396C114.907 16.6396 115.793 16.7041 116.67 16.6212C117.602 16.5383 118.184 15.9394 118.359 15.0457C118.442 14.6127 118.433 14.1612 118.332 13.7282C118.193 13.1477 117.842 12.7515 117.279 12.558Z" fill="#DB0D15"/>
<path d="M0 0V52.5262C0.203081 52.5262 0.396931 52.5447 0.600012 52.5447C14.9172 52.5447 29.2437 52.5447 43.5609 52.5447C43.6901 52.5447 43.8286 52.5447 43.9578 52.5447C44.0501 52.5447 44.1332 52.517 44.244 52.4894V51.9089C44.244 34.7902 44.244 17.6807 44.244 0.562024C44.244 0.377754 44.244 0.18427 44.244 0H0V0ZM8.1694 45.6806C7.99401 46.3256 7.54169 46.6572 6.80321 46.7125C6.61859 46.7217 6.43398 46.7125 6.21243 46.7125V49.0804C5.79704 49.1357 5.41857 49.1172 5.04933 49.0896C4.96625 48.7763 4.93856 43.4049 5.02164 42.7968C5.72319 42.7968 6.40628 42.7231 7.08014 42.8428C7.66169 42.9442 8.04016 43.3127 8.18786 43.884C8.34478 44.4828 8.33555 45.0817 8.17863 45.6714L8.1694 45.6806ZM11.8341 48.546C11.6956 48.8408 11.4556 49.0343 11.151 49.1265C10.6618 49.2739 10.1725 49.2647 9.6925 49.108C9.32326 48.9883 9.0648 48.7303 8.93556 48.3802C8.82479 48.0853 8.72325 47.7629 8.69556 47.4496C8.58479 46.3808 8.57556 45.3121 8.75094 44.2433C8.76018 44.1604 8.77864 44.0867 8.80633 44.0037C9.11095 42.8336 10.2371 42.3269 11.3172 42.8613C11.6495 43.0271 11.8525 43.3035 11.9449 43.6536C12.0741 44.1235 12.0833 44.6026 12.0187 45.1462H10.911C10.911 45.0264 10.911 44.8975 10.911 44.7685C10.8833 44.4644 10.8741 44.1512 10.8187 43.8471C10.7818 43.626 10.6064 43.5062 10.4217 43.5154C10.2279 43.5246 10.0987 43.6352 10.0433 43.8195C9.99712 43.9853 9.9602 44.1604 9.94174 44.3262C9.85866 45.4503 9.8402 46.5743 9.94174 47.6984C9.95097 47.8181 9.98789 47.9379 10.0248 48.0485C10.0894 48.2604 10.2556 48.3433 10.4587 48.3433C10.671 48.3433 10.8279 48.2327 10.8741 48.0301C10.9295 47.7997 10.9571 47.5602 10.9756 47.3206C10.9941 47.0534 10.9756 46.7862 10.9756 46.5006H12.0464C12.1387 47.2193 12.1295 47.8918 11.8249 48.5276L11.8341 48.546ZM17.0403 49.0804C16.6988 49.1449 16.348 49.1172 15.9788 49.0896V45.5608C15.9788 45.5608 15.9511 45.5608 15.9419 45.5608C15.748 46.7309 15.5449 47.9011 15.3418 49.0896H14.2987C14.0957 47.9195 13.9018 46.777 13.708 45.6253C13.6895 45.6253 13.671 45.6253 13.6618 45.6253V49.0804H12.6095C12.5264 48.7763 12.5079 43.2943 12.591 42.7968C13.0803 42.7784 13.5787 42.7784 14.0957 42.7968C14.2157 43.4878 14.3264 44.1512 14.4372 44.8053C14.548 45.4503 14.6588 46.0952 14.8249 46.7402C15.0557 45.4318 15.2865 44.1235 15.5172 42.7968H16.985C17.0865 43.0732 17.1234 48.3065 17.0311 49.062L17.0403 49.0804ZM14.5111 25.1529C13.8187 25.1529 13.1172 25.1529 12.3602 25.1529V38.6415C12.3141 38.6875 12.3141 38.6968 12.2956 38.706C12.2864 38.706 12.2772 38.7244 12.2679 38.7336C12.2033 38.7428 12.1387 38.7613 12.0741 38.7613C9.75712 38.7613 7.44015 38.7613 5.12318 38.7613C5.08626 38.7613 5.04933 38.7428 4.98472 38.7244V3.49192C5.09549 3.48271 5.20626 3.46428 5.32626 3.46428C8.42786 3.46428 11.5387 3.46428 14.6403 3.46428C15.5357 3.46428 16.4311 3.57484 17.2988 3.82361C19.4496 4.4317 20.705 5.86901 21.1112 8.0434C21.2312 8.68834 21.2773 9.35172 21.2866 10.0059C21.305 12.8805 21.2866 15.7551 21.2866 18.6205C21.2866 19.376 21.222 20.1223 21.0466 20.8594C20.5573 22.9509 19.265 24.2592 17.2065 24.812C16.3203 25.0515 15.4157 25.1437 14.5018 25.1437L14.5111 25.1529ZM19.8558 49.0988C19.7819 48.7211 19.7081 48.3617 19.6342 47.9748H18.785C18.7111 48.3433 18.6373 48.7119 18.5542 49.0988H17.4004C17.8065 46.9797 18.2034 44.8882 18.5911 42.7968C18.7204 42.7876 18.8127 42.7691 18.905 42.7691C19.2004 42.7691 19.4958 42.7691 19.8281 42.7691C20.2619 44.8698 20.6866 46.9521 21.1297 49.0988H19.8466H19.8558ZM24.702 49.0435C24.4436 49.1357 24.1882 49.019 23.9359 48.6934C23.6497 49.191 23.1974 49.2739 22.6805 49.2094C22.0989 49.1449 21.6558 48.8501 21.4897 48.288C21.3512 47.8274 21.2589 47.3483 21.222 46.8691C21.1389 45.9847 21.185 45.1002 21.3327 44.2249C21.3327 44.1696 21.3512 44.1143 21.3604 44.0682C21.6466 42.8797 22.662 42.3637 23.7974 42.8244C24.0466 42.9258 24.2313 43.0824 24.3697 43.3127C24.6097 43.7181 24.702 44.4921 24.5636 45.0172C24.4436 45.0172 24.3143 45.0357 24.1851 45.0357C23.9636 45.0357 23.7328 45.0357 23.502 45.0357C23.4835 44.7132 23.4743 44.4184 23.4466 44.1235C23.4374 44.0037 23.4005 43.884 23.3635 43.7734C23.3082 43.6168 23.1974 43.5246 23.0405 43.5154C22.8651 43.5154 22.7266 43.5891 22.6528 43.7458C22.6066 43.8379 22.5789 43.9485 22.5605 44.0498C22.5235 44.317 22.4866 44.5842 22.4866 44.8514C22.4866 45.6253 22.4866 46.4085 22.4866 47.1824C22.4866 47.422 22.5235 47.6615 22.5697 47.9011C22.6251 48.2051 22.7635 48.3341 23.0035 48.3433C23.2805 48.3617 23.4835 48.2235 23.5759 47.9379C23.6128 47.8274 23.6405 47.6984 23.6497 47.5878C23.6589 47.3206 23.6497 47.0534 23.6497 46.7494C23.4651 46.7309 23.2897 46.7125 23.0682 46.6849V45.8096H24.6928V49.0251L24.702 49.0435ZM26.5021 49.0896H25.2282V47.7076H26.5021V49.0896ZM30.0837 48.5276C29.936 48.8501 29.6683 49.0528 29.3267 49.1449C28.8744 49.2647 28.4221 49.2555 27.979 49.1265C27.5636 49.0067 27.2775 48.7211 27.139 48.3249C27.0282 48.0116 26.9359 47.6799 26.9082 47.3483C26.8252 46.3624 26.8067 45.3673 26.9544 44.3723C26.9729 44.2433 27.0005 44.1051 27.0375 43.9761C27.3421 42.806 28.5421 42.2992 29.6037 42.8889C29.8621 43.0271 30.0375 43.239 30.1391 43.5154C30.3329 44.0314 30.3052 44.5658 30.2683 45.137H29.1421C29.1421 44.8975 29.1514 44.6579 29.1421 44.4184C29.1237 44.2064 29.096 43.9945 29.0406 43.7826C28.9944 43.6168 28.8652 43.5062 28.6898 43.5062C28.5052 43.5062 28.3852 43.5984 28.3206 43.7642C28.2744 43.884 28.2283 44.0222 28.219 44.1512C28.1083 45.3305 28.099 46.5098 28.2006 47.6892C28.2006 47.7813 28.219 47.8734 28.2467 47.9656C28.3298 48.2328 28.459 48.3433 28.699 48.3525C28.9298 48.3525 29.0775 48.242 29.1514 47.9748C29.1975 47.8089 29.2252 47.6339 29.2252 47.4588C29.2344 47.1548 29.2252 46.8415 29.2252 46.5006H30.3145C30.4068 47.2193 30.3883 47.8826 30.1021 48.5092L30.0837 48.5276ZM34.1268 47.9656C34.0991 48.1683 33.9884 48.371 33.8868 48.5552C33.4345 49.4674 31.5883 49.3937 31.1822 48.7211C31.0252 48.4631 30.8775 48.1775 30.8222 47.8826C30.5729 46.6112 30.5729 45.3213 30.8222 44.0498C30.8591 43.884 30.9145 43.7181 30.9883 43.5523C31.1822 43.11 31.5145 42.8152 32.013 42.7415C32.133 42.7231 32.253 42.6954 32.373 42.6954C33.3699 42.6586 33.9238 43.0363 34.1361 44.013C34.2745 44.6487 34.3022 45.3121 34.3853 45.9662C34.3022 46.6296 34.2376 47.3022 34.1361 47.9563L34.1268 47.9656ZM39.25 49.0804H38.1515V45.7727C38.1515 45.7727 38.1146 45.7727 38.0869 45.7727C37.9023 46.8784 37.7177 47.9748 37.5238 49.1172C37.2561 49.1172 37.0161 49.1172 36.7761 49.1172C36.5638 49.1265 36.4715 49.0435 36.4346 48.8224C36.3423 48.1867 36.2223 47.5509 36.1115 46.9152C36.0469 46.5467 35.9915 46.1781 35.853 45.8188V49.0804H34.7638V42.8152H36.2961C36.5177 44.1327 36.7392 45.4318 36.9607 46.7402C36.9884 46.7402 37.0069 46.7402 37.0346 46.7309C37.2654 45.4318 37.4961 44.1235 37.7177 42.8244H39.25V49.0804ZM39.3885 32.4316C39.3885 33.0949 39.3054 33.7767 39.1485 34.4217C38.7146 36.3197 37.5331 37.5819 35.7238 38.2729C34.7269 38.6507 33.6838 38.8165 32.6222 38.881C30.8868 38.9824 29.1698 38.881 27.4898 38.4296C26.8159 38.2453 26.1698 37.9873 25.5697 37.6372C24.0189 36.7251 23.142 35.3707 22.8743 33.6017C22.8097 33.1687 22.782 32.7172 22.782 32.2749C22.782 24.7936 22.782 17.3214 22.782 9.84003C22.782 9.2043 22.8374 8.57778 22.9943 7.96969C23.3912 6.41261 24.3143 5.27013 25.7174 4.4962C26.8159 3.89732 28.0067 3.60248 29.2344 3.44585C30.4714 3.28922 31.7176 3.25237 32.9637 3.36293C33.9515 3.44585 34.9207 3.62091 35.853 3.98945C37.7915 4.75417 38.9177 6.18227 39.2685 8.21846C39.3608 8.76205 39.4069 9.31486 39.4069 9.85846C39.4254 12.2724 39.4069 14.6956 39.4069 17.1095C39.4069 17.2661 39.3977 17.4228 39.3885 17.5978H32.4283C32.4283 17.4228 32.4099 17.2661 32.4099 17.1095C32.4099 14.6956 32.4099 12.2724 32.4099 9.85846C32.4099 9.61891 32.4007 9.37014 32.3545 9.13981C32.253 8.61464 31.856 8.34744 31.256 8.35666C30.6837 8.35666 30.3145 8.65149 30.2221 9.16745C30.1945 9.33329 30.1852 9.51756 30.1852 9.69262C30.1852 17.2753 30.1852 24.8581 30.1852 32.45C30.1852 32.6343 30.1852 32.8278 30.2221 33.012C30.3052 33.5003 30.5914 33.7767 31.0806 33.8228C31.2283 33.8412 31.376 33.832 31.5237 33.8228C31.9945 33.7767 32.2807 33.5188 32.3637 33.0397C32.4099 32.7909 32.4191 32.5329 32.4191 32.2749C32.4191 29.5754 32.4191 26.8758 32.4191 24.1763V23.6787H39.3977C39.3977 23.8169 39.4254 23.9459 39.4254 24.0749C39.4254 26.8574 39.4439 29.6307 39.4162 32.4131L39.3885 32.4316Z" fill="#DB0D15"/>
<path d="M14.6034 9.82155C14.5296 9.42537 14.3265 9.09368 13.9572 8.89098C13.468 8.633 12.9511 8.56851 12.3972 8.633V20.0209C12.9142 20.0209 13.4034 19.9841 13.8649 19.7721C14.2896 19.5787 14.5203 19.2285 14.6034 18.7863C14.6496 18.5375 14.6773 18.2796 14.6773 18.0308C14.6773 15.5431 14.6773 13.0647 14.6773 10.5771C14.6773 10.3283 14.6496 10.0703 14.6034 9.82155Z" fill="#DB0D15"/>
<path d="M32.8898 43.7826C32.8252 43.6168 32.6868 43.5339 32.5114 43.5247C32.3175 43.5247 32.1606 43.6076 32.1052 43.7918C32.0406 43.9945 31.9852 44.2065 31.976 44.4184C31.9575 44.9251 31.976 45.4411 31.976 45.9478C31.976 46.4546 31.976 46.9705 31.976 47.4773C31.976 47.6523 32.0129 47.8274 32.0591 47.9932C32.1329 48.2696 32.2806 48.371 32.5114 48.371C32.7421 48.371 32.8714 48.2512 32.9545 47.984C32.9822 47.8827 33.0006 47.7721 33.0098 47.6707C33.1114 46.5283 33.1114 45.395 33.0098 44.2525C32.9914 44.0959 32.9452 43.9393 32.8898 43.7918V43.7826Z" fill="#DB0D15"/>
<path d="M19.1727 45.1647C19.0988 45.782 19.025 46.3901 18.9419 47.0258H19.4773C19.3942 46.3901 19.3204 45.782 19.2465 45.1739C19.2188 45.1739 19.1911 45.1739 19.1634 45.1647H19.1727Z" fill="#DB0D15"/>
<path d="M6.23083 43.6905V45.7359C6.68315 45.8188 6.90469 45.699 6.96931 45.2752C7.01547 44.9251 7.01547 44.5565 6.96931 44.1972C6.92316 43.7918 6.72008 43.6628 6.23083 43.6813V43.6905Z" fill="#DB0D15"/>
<path d="M148.092 3.78672V4.78178H147.501V2.12829C148.064 2.06379 148.628 1.9993 149.191 2.14672C149.458 2.22042 149.615 2.40469 149.661 2.6811C149.708 2.95751 149.615 3.17863 149.384 3.34447C149.329 3.38133 149.283 3.41818 149.191 3.47346C149.671 3.79594 149.615 4.31189 149.772 4.78178C149.671 4.79099 149.588 4.80942 149.514 4.80942C149.098 4.81864 149.098 4.80942 148.997 4.43167C148.978 4.37639 148.969 4.33032 148.951 4.27504C148.812 3.76829 148.692 3.69459 148.092 3.78672ZM148.138 3.31683C148.388 3.27998 148.591 3.27998 148.766 3.20627C148.868 3.16942 148.96 3.022 148.988 2.91144C149.024 2.75481 148.914 2.63503 148.766 2.57054C148.563 2.49683 148.36 2.45076 148.138 2.57054V3.30762V3.31683Z" fill="black"/>
<path d="M56.5027 58.7822C55.5519 61.2146 54.5919 63.6377 53.6411 66.0793H51.8688C50.8995 63.6469 49.9303 61.2053 48.9702 58.773C48.9425 58.773 48.9149 58.7822 48.8964 58.7914V66.0793H46.6533C46.5887 65.8397 46.5702 55.4193 46.6348 55.0231H49.9672C50.918 57.4647 51.8688 59.9247 52.8196 62.3847C52.838 62.3847 52.8657 62.3847 52.8842 62.3847C53.835 59.9339 54.795 57.4831 55.755 55.0231H59.0966V66.0885H56.595V60.8644C56.595 60.5143 56.595 60.1642 56.595 59.8141C56.595 59.4732 56.595 59.1415 56.595 58.8006C56.5673 58.8006 56.5489 58.8006 56.5212 58.8006L56.5027 58.7822Z" fill="black"/>
<path d="M85.414 66.153H83.1893C82.4878 63.7943 81.7955 61.4541 81.0939 59.1047C80.7801 59.851 80.5678 60.6341 80.337 61.408C80.097 62.2004 79.8662 62.9928 79.6262 63.7851C79.3954 64.5683 79.1554 65.3514 78.9154 66.153H76.6908C75.5738 62.4676 74.4569 58.7638 73.3307 55.0323H75.9246C76.5984 57.3449 77.2723 59.6759 77.9462 61.9977C77.9646 61.9977 77.9831 61.9977 78.0108 61.9977C78.6939 59.6851 79.377 57.3633 80.0693 55.0231H82.2755C82.9586 57.3357 83.6417 59.6575 84.334 61.9701H84.3986C84.7494 60.8368 85.0725 59.6759 85.414 58.5334C85.7555 57.3725 86.0879 56.2116 86.4386 55.0139C87.2048 54.9862 87.971 55.0047 88.7925 55.0139C87.6664 58.7453 86.5494 62.4492 85.4232 66.1622L85.414 66.153Z" fill="black"/>
<path d="M109.996 58.8743V66.0793H107.578V55.0323C107.633 55.0231 107.707 55.0046 107.771 55.0046C108.565 55.0046 109.359 55.0046 110.153 55.0046C110.365 55.0046 110.448 55.1244 110.55 55.2626C112.008 57.308 113.467 59.3534 114.935 61.3988C114.999 61.491 115.073 61.5831 115.165 61.666C115.221 61.2238 115.202 60.7907 115.202 60.3485C115.202 59.9062 115.202 59.4548 115.202 59.0125V55.0231H117.63V66.0793C117.538 66.0793 117.445 66.0977 117.353 66.0977C116.762 66.0977 116.162 66.0885 115.572 66.0977C115.341 66.0977 115.212 66.0332 115.073 65.8489C113.771 64.0155 112.461 62.182 111.159 60.3577C110.845 59.9154 110.531 59.4732 110.218 59.0402C110.171 58.9757 110.116 58.9112 110.061 58.8559C110.033 58.8559 110.005 58.8743 109.987 58.8835L109.996 58.8743Z" fill="black"/>
<path d="M105.344 55.0231V66.0978C104.974 66.0978 104.624 66.0978 104.282 66.0978C103.931 66.0978 103.581 66.0886 103.23 66.0978C103.045 66.0978 102.944 66.0425 102.842 65.8951C102.048 64.7802 101.254 63.6654 100.46 62.5506C99.6297 61.3897 98.7989 60.2196 97.9589 59.0586C97.9035 58.9757 97.8389 58.902 97.7189 58.8467V66.0793H95.328C95.2634 65.8398 95.245 55.3917 95.3188 55.0231C95.4204 55.0231 95.5219 55.0139 95.6234 55.0139C96.3435 55.0139 97.0635 55.0139 97.7835 55.0139C98.0143 55.0139 98.1435 55.0784 98.282 55.2627C99.7404 57.3173 101.208 59.3719 102.676 61.4265C102.741 61.5094 102.805 61.5924 102.897 61.7214C102.971 61.3712 102.925 61.058 102.934 60.7447C102.934 60.4223 102.934 60.109 102.934 59.7865V55.9905C102.934 55.6773 102.934 55.3548 102.934 55.0231H105.353H105.344Z" fill="black"/>
<path d="M136.877 62.3202C137.56 63.564 138.234 64.7986 138.926 66.0701H136.203C136.157 65.9964 136.092 65.895 136.046 65.7937C135.529 64.8263 135.012 63.868 134.504 62.9006C134.403 62.7071 134.283 62.6334 134.061 62.6334C133.507 62.6519 132.963 62.6334 132.363 62.6334C132.344 63.0296 132.363 63.4074 132.363 63.7851C132.363 64.1537 132.363 64.5314 132.363 64.9V66.0609H129.824V55.0139C129.907 55.0139 129.99 54.9954 130.073 54.9954C131.8 54.9954 133.526 54.9862 135.252 54.9954C135.649 54.9954 136.055 55.0507 136.443 55.1428C137.864 55.5022 138.815 56.5894 139.018 58.0543C139.12 58.7914 139.083 59.5193 138.843 60.2287C138.538 61.104 137.975 61.7489 137.154 62.1635C137.071 62.2096 136.987 62.2557 136.877 62.311V62.3202ZM132.372 60.5512C132.566 60.5512 132.732 60.5512 132.898 60.5512C133.526 60.5512 134.144 60.5604 134.772 60.5512C135.972 60.5051 136.554 59.8694 136.48 58.6993C136.424 57.8516 135.954 57.3172 135.114 57.2527C134.227 57.1975 133.341 57.2159 132.446 57.2067C132.427 57.2067 132.409 57.2251 132.372 57.2435V60.5512Z" fill="black"/>
<path d="M119.855 66.0701V55.0231H127.876V57.2988H122.402C122.384 57.999 122.393 58.6716 122.402 59.3811C123.252 59.4179 124.083 59.3903 124.913 59.3995C125.744 59.3995 126.584 59.3995 127.443 59.3995V61.5923C126.889 61.5923 126.326 61.5923 125.772 61.5923C125.218 61.5923 124.673 61.5923 124.119 61.5923C123.566 61.5923 123.002 61.5923 122.421 61.5923V63.8496C122.781 63.8773 123.15 63.8496 123.519 63.8588C123.889 63.8588 124.258 63.8588 124.627 63.8588H127.941V66.0609H119.855V66.0701Z" fill="black"/>
<path d="M69.3891 63.8589V66.0333C69.1583 66.0978 61.7366 66.1254 61.312 66.0517V55.0416C61.5428 54.9771 68.7614 54.9587 69.306 55.0139C69.3706 55.2443 69.3799 56.8935 69.3152 57.2989H63.8598V59.3811C64.2751 59.3996 64.6905 59.3811 65.1152 59.3904C65.5306 59.3904 65.946 59.3904 66.3521 59.3904H68.8537C68.9183 59.6391 68.946 60.9567 68.8906 61.5463C68.6322 61.6292 68.3552 61.574 68.0875 61.5832C67.8014 61.5924 67.5152 61.5832 67.2291 61.5832H64.7182C64.4413 61.5832 64.1736 61.5832 63.8598 61.5832C63.8321 62.3387 63.8598 63.0758 63.8413 63.8497H69.3891V63.8589Z" fill="black"/>
<path d="M40.1824 55.0231V57.2988H36.5085V66.0701H33.9423V57.3172H30.3145C30.2406 57.0685 30.2222 55.539 30.2776 55.0231H40.1731H40.1824Z" fill="black"/>
<path d="M41.6686 55.0139H44.1609C44.2256 55.2535 44.2348 65.7108 44.1702 66.0701H41.6686V55.0139Z" fill="black"/>
<path d="M90.3618 55.0139H92.8542C92.9188 55.2535 92.9373 65.7108 92.8726 66.0793H90.3618V55.0139Z" fill="black"/>
<path d="M14.6311 54.9402H10.431L5.98169 61.7121V63.9234H11.5941V65.9319H14.6403V63.9234H16.0619V61.4357H14.6403V54.9402H14.6311ZM11.5849 61.4357H8.9079L11.5849 57.4094V61.4357Z" fill="#DB0D15"/>
<path d="M24.4436 60.2656C25.7082 59.8234 26.6405 59.031 26.6405 57.7135C26.6405 55.5851 24.139 54.7836 21.8589 54.7836C19.5789 54.7836 17.0773 55.5944 17.0773 57.7135C17.0773 59.031 18.0096 59.8234 19.2558 60.2656C17.8988 60.7631 16.8834 61.7858 16.8834 63.0389C16.8834 65.1948 19.3296 66.1346 21.8589 66.1346C24.3882 66.1346 26.8344 65.1764 26.8344 63.0389C26.8344 61.7858 25.8098 60.7631 24.4436 60.2656ZM21.8589 57.2804C22.8835 57.2804 23.5482 57.6121 23.5482 58.1834C23.5482 58.7546 22.5789 59.0586 21.8589 59.16C21.1389 59.0586 20.1512 58.7454 20.1512 58.1834C20.1512 57.6213 20.8343 57.2804 21.8589 57.2804ZM21.8589 63.6285C20.7327 63.6285 19.9573 63.2324 19.9573 62.6427C19.9573 61.9793 21.102 61.6384 21.8589 61.5555C22.5974 61.6384 23.7605 61.9885 23.7605 62.6427C23.7605 63.2324 22.9482 63.6285 21.8589 63.6285Z" fill="#DB0D15"/>
<path d="M145.046 69.645H0V72.3169H145.046V69.645Z" fill="black"/>
</g>
<defs>
<clipPath id="clip0_280_348">
<rect width="154" height="128" fill="white"/>
</clipPath>
</defs>
</svg>
