<svg xmlns="http://www.w3.org/2000/svg" viewBox="0 0 520 369"><defs/><defs><radialGradient id="a" cx="56.6497%" cy="52.9457%" r="38.5526%" fx="56.6497%" fy="52.9457%" gradientTransform="scale(-.71098 -1) rotate(-46.365 -1.3515 1.5917)"><stop offset="0%" stop-color="#FEE8E7"/><stop offset="100%" stop-color="#FDE8E6" stop-opacity="0"/></radialGradient></defs><g fill="none" fill-rule="evenodd"><path fill="url(#a)" d="M1 0h519v369H1z" opacity=".8"/><g transform="rotate(2 -156.3847 375.5149)"><path fill="#0F1135" d="M165.28 32.19a8.91 8.91 0 01-.92-.27.75.75 0 01-.42-.8 1 1 0 01.68-.76 1.16 1.16 0 011.18.56.68.68 0 01-.09.88 3.86 3.86 0 01-.43.39zM168.52 24a2.82 2.82 0 01.45.2c.44.29.47.56.11.95a4.81 4.81 0 01-.4.36 2.85 2.85 0 01-.42-.16c-.47-.27-.53-.55-.2-.94a5.2 5.2 0 01.46-.41zM154.28 34.56a.85.85 0 01.55-1c.25-.06.5.13.61.45a.56.56 0 01-.44.8M184.17 25.34c.18-.34.29-.6.44-.83a.46.46 0 01.66.05 1.47 1.47 0 01.19.49c.11.51-.25.81-.76.62a3.25 3.25 0 01-.53-.33zM176.4 16.68c.2-.35.38-.61.79-.67l.43.38c0 .1.07.17.05.23-.07.3 0 .71-.38.81-.38.1-.49-.24-.69-.43a3.15 3.15 0 01-.2-.32zM158 35.17c.82.44.84.49.58 1.46a.79.79 0 01-.86-.46.8.8 0 01.28-1zM184.44 41.06a1.26 1.26 0 01.35 0 .49.49 0 01.43.4.44.44 0 01-.24.53 1.67 1.67 0 01-.7.09.41.41 0 01-.4-.41.49.49 0 01.3-.51l.26-.1zM183.84 19.75a.89.89 0 01-.24 1.22 7.81 7.81 0 01-.65-.67.53.53 0 01.24-.72M166.19 28.17a2.85 2.85 0 01.18-.65.67.67 0 01.43-.25c.31 0 .58.34.58.73a.53.53 0 01-.67.49.64.64 0 01-.19-.08l-.33-.24zM178.06 45.49c.11.29.18.45.23.61a1.81 1.81 0 010 .34 3.53 3.53 0 00-.6.13c-.21.1-.4.19-.55 0a.69.69 0 01.23-.83 5.14 5.14 0 01.69-.25zM178.15 29.43c.27-.09.49 0 .55.16a.79.79 0 01-.83 1 .37.37 0 01-.23-.18c-.21-.48-.03-.81.51-.98zM169.8 28.85c.66.35.66.35.71.92-.25.09-.5.2-.76.27a.3.3 0 01-.36-.38c.11-.25.25-.5.41-.81zM158.06 6.75l-.38.19a.56.56 0 01-.68-.17.55.55 0 01.06-.69c.1-.13.26-.29.39-.29a.59.59 0 01.39.29 2.92 2.92 0 01.22.67zM175.34 49.75a1.73 1.73 0 01.1-.54 1.06 1.06 0 01.42-.42c.2-.08.59.2.64.45a.61.61 0 01-.11.48.72.72 0 01-1.05 0M181.01 26.75c-.11.15-.2.26-.28.38a.36.36 0 01-.46.14c-.25-.11-.57-.2-.56-.55a.57.57 0 01.21-.45.72.72 0 01.78.14l.31.34zM183.28 27.75l.74.42-.38.76c-.37 0-.72.08-.88-.32-.16-.4.12-.67.52-.86zM171.93 42.96a1.25 1.25 0 01-.11.42.46.46 0 01-.57.18.46.46 0 01-.36-.46c0-.11 0-.21.05-.32.05-.11.14-.41.39-.42a.48.48 0 01.5.33c.03.06.05.13.1.27zM185.98 37.75a.64.64 0 01.74.43.58.58 0 01-.37.66.6.6 0 01-.69-.49.52.52 0 01.32-.6zM161.1 16.05a.54.54 0 01-.32.77.55.55 0 01-.67-.36.57.57 0 01.17-.71.66.66 0 01.82.3zM175.28 20.56c-.65-.15-.82-.3-.8-.65a.59.59 0 01.63-.58c.11 0 .23.13.32.23a.33.33 0 010 .2c0 .24-.06.48-.15.8zM154.14 28.9a.86.86 0 01-.47.89c-.17.08-.54 0-.56-.15a1.14 1.14 0 01.09-.69.67.67 0 01.75-.24c.08.04.14.14.19.19zM169.14 16.75l-.85.48c-.39-.14-.47-.38-.35-.68a.63.63 0 01.68-.39c.32-.02.49.17.52.59zM148.51 14.29a2 2 0 01.24-.43.61.61 0 01.76 0 .43.43 0 01.11.56c-.22.55-.49.61-.92.19a1 1 0 01-.19-.32zM147.42 8.94a.59.59 0 01.69.13.51.51 0 01.07.6c-.06.12-.14.24-.22.38a.82.82 0 01-.79-.61M180.28 48.19a4.46 4.46 0 01.41-.71.48.48 0 01.74.08.51.51 0 01-.06.68c-.3.22-.52.22-1.09-.05zM144.71 15.59a1 1 0 01-.14.4.72.72 0 01-.77.21.41.41 0 01-.23-.2.75.75 0 01.4-.77.66.66 0 01.74.36zM183.53 36.4l-.34.72a2.28 2.28 0 01-.59-.18.59.59 0 01-.17-.38c-.06-.45.25-.65.67-.46a3.51 3.51 0 01.43.3zM166.44 20.25a2.59 2.59 0 01-.1-.7.65.65 0 01.58-.55c.27 0 .33.24.39.44a.52.52 0 01-.33.7 2.46 2.46 0 01-.54.11zM162.33 21.75a4 4 0 01-.67-.38.44.44 0 010-.59.47.47 0 01.54-.23.46.46 0 01.4.44 3.5 3.5 0 01-.27.76zM173.71 31.52l-.37.12c-.12 0-.24.13-.37.19s-.26.08-.49.15c.05-.24 0-.42.11-.53.11-.11.33-.27.46-.43a.42.42 0 01.46-.16c.17.05.22.2.2.66zM166.28 36.59c-.25-.49-.3-.8.15-1.1l.88.45c-.21.6-.67.5-1.03.65zM180.51 40.06c.35-.89.35-.89 1.22-.46a1 1 0 01-.45.81l-.77-.35zM170.92 12.96a2.7 2.7 0 010 .49 1.63 1.63 0 01-.17.35.6.6 0 01-.75-.28.7.7 0 01.14-.67c.14-.1.14-.1.78.11zM191.28 37.5a5.8401 5.8401 0 01-.55-.53.5.5 0 010-.6.66.66 0 01.69-.08.45.45 0 01.21.55 6.38 6.38 0 01-.35.66zM173.95 44.98a.83.83 0 01.2-.77 2 2 0 01.53-.16c.11.31.21.56.28.77-.15.36-.48.4-1.01.16zM187.33 35.33a4.6 4.6 0 01.15-.65.33.33 0 01.54-.07 1.74 1.74 0 01.26.55c.07.28-.11.44-.43.41a1.7 1.7 0 01-.31-.06c-.06-.02-.1-.09-.21-.18zM190.01 40.24c-.13.23-.29.41-.58.37-.29-.04-.39-.31-.37-.67a3 3 0 01.15-.52c.29.13.48.21.66.31.18.1.28.27.14.51M156.1 25.75c-.21.41-.49.62-.95.45-.23-.09-.34-.24-.28-.47.06-.23.17-.39.44-.35.27.04.57.01.79.37zM180.64 18.75a3.21 3.21 0 01-.74.16.42.42 0 01-.43-.4.52.52 0 01.27-.54.43.43 0 01.58.09 3 3 0 01.32.69zM157.75 14.75c-.42.24-.69.31-1 0-.31-.31-.2-.44 0-.63a.5.5 0 01.67 0 .55.55 0 01.13.17c.1.08.14.25.2.46zM182.04 23.9a.51.51 0 01-.68 0 .68.68 0 01-.17-.69.47.47 0 01.29-.28.45.45 0 01.37.13c.17.13.17.2.19.84zM187.53 26.99a1.4 1.4 0 01.06-.32 2.53 2.53 0 01.25-.35.78.78 0 01.32 0c.45.22.65.49.52.68-.13.19-.48.27-.88.13-.1.01-.17-.08-.27-.14zM167.54 32.92c.68-.56.95-.6 1.35-.25.06 0 .05.32 0 .35a1 1 0 01-.58.22 2.77 2.77 0 01-.77-.32zM184.33 33.81c-.09-.24-.15-.37-.19-.5-.04-.13-.09-.39.11-.47a1 1 0 01.5 0 .84.84 0 01.27.16.35.35 0 010 .61 3.22 3.22 0 01-.69.2zM158.91 27.98h-.45a.37.37 0 01-.37-.31.53.53 0 01.25-.54.43.43 0 01.58 0 .5.5 0 01.11.36 2.35 2.35 0 01-.12.49zM169.46 7.97c-.11.43-.19.7-.59.62a.48.48 0 01-.44-.51c0-.18.14-.39.3-.36a5.28 5.28 0 01.73.25zM178.79 22.28l-.88-.65a1.51 1.51 0 01.15-.39c.16-.21.4-.12.59-.07.19.05.36.24.14 1.11zM147.28 17.08c.32-.09.52 0 .59.16a.49.49 0 01-.28.62 1.18 1.18 0 01-.31.08.45.45 0 01-.49-.33c-.06-.21.07-.34.23-.43a1.49 1.49 0 01.26-.1zM162.96 13.21a5.5 5.5 0 01-.87.25.5.5 0 01-.4-.25.56.56 0 01.17-.44c.31-.29.53-.21 1.1.44zM177.08 33.27a4.12 4.12 0 01-.69.25c-.22.06-.38-.12-.41-.37-.03-.25.13-.38.34-.46.21-.08.51-.1.64.13a1.53 1.53 0 01.12.45zM154.37 20.56a2.79 2.79 0 01-.16.47c-.16.28-.46.48-.58.36a1.21 1.21 0 01-.3-.53c-.09-.29.09-.47.4-.46h.22l.42.16zM156.35 30.92a1.92 1.92 0 01-.05-.29c0-.12.18-.26.3-.21a1.92 1.92 0 01.47.25.45.45 0 01.14.57.34.34 0 01-.24.17c-.21 0-.44 0-.54-.26a1.9999 1.9999 0 01-.08-.23zM150.82 27.66a2.46 2.46 0 01-.3.16.54.54 0 01-.69-.1c-.19-.25 0-.47.15-.67a.36.36 0 01.62 0 3 3 0 01.22.61zM171.92 25.98a1.88 1.88 0 01.21.57.5.5 0 01-.75.45.37.37 0 01-.2-.23c-.03-.35.2-.59.74-.79zM157.21 23.35c-.17-.08-.34-.11-.4-.2a1.07 1.07 0 01-.2-.59.51.51 0 01.29-.38.53.53 0 01.43.2 1.27 1.27 0 01.13.61c-.01.11-.18.22-.25.36zM178.48 37.95a1 1 0 01-.07.26.62.62 0 01-.63.29.68.68 0 01-.42-.23c-.1-.13.06-.44.25-.52a.79.79 0 01.87.2zM149.56 22.81a.57.57 0 01-.81.06.5.5 0 01-.11-.67.47.47 0 01.67 0 .59.59 0 01.17.27 2 2 0 01.08.34zM155.7.91a1.51 1.51 0 011 .52l-.42.47c-.77-.37-.77-.37-.59-1M173.17 40.12a.51.51 0 01-.6-.32.42.42 0 01.21-.62.37.37 0 01.53.18.57.57 0 01-.14.76zM163.82 9.31a.62.62 0 01.77.51.33.33 0 01-.15.24.94.94 0 01-.51.09.74.74 0 01-.38-.32c-.09-.16.07-.42.27-.52zM151.47 11.19a1.23 1.23 0 01-.12.26c-.18.21-.38.13-.57 0-.19-.13-.45-.24-.4-.55a.29.29 0 01.13-.16.74.74 0 01.96.45zM165.81 23.67a2.06 2.06 0 01-.54-.14.67.67 0 01-.2-.37c-.15-.4-.07-.72.16-.72s.37.29.44.52c.07.23.08.41.14.71zM171.09 34.36c.43-.28.72-.24.94.08a.43.43 0 01-.07.58.37.37 0 01-.56-.06 4.72 4.72 0 01-.31-.6zM152.08 8.24a7.11 7.11 0 01.49-.78c.12-.14.47 0 .53.17a.71.71 0 01-.31.72c-.15.07-.37-.05-.71-.11zM191.66 28.05c.28.64.13 1.08-.32 1.19a.46.46 0 01-.36-.15.42.42 0 010-.38 8.81 8.81 0 01.68-.66zM154.45 12.75c.07.23 0 .39-.3.46s-.43 0-.5-.23 0-.57.17-.63a.49.49 0 01.63.4zM192.47 34.08a3 3 0 01.16-.79.62.62 0 01.44-.19.37.37 0 01.28.23.53.53 0 01-.13.46 3.36 3.36 0 01-.75.29zM166.05 14.66a.52.52 0 01-.49.48.49.49 0 01-.53-.42c0-.19.17-.36.43-.39.26-.03.57.12.59.33zM155.58 8.89l.74.42a.75.75 0 01-.9.47c-.07 0-.19-.17-.17-.23a6.6602 6.6602 0 01.33-.66zM161.4 37.22c.37-.13.69 0 .75.33a.41.41 0 01-.18.33c-.4.2-.81.09-.79-.19a1.28 1.28 0 01.22-.47zM179.45 51.59l-.75-.64a2.41 2.41 0 01.39-.35.34.34 0 01.29 0c.31.18.33.37.07 1M166.28 6.45l-1.07.43c-.16-.41 0-.59.33-.7a.55.55 0 01.74.27zM152.45 16.43a1.09 1.09 0 01-.37 0 .31.31 0 01-.22-.18c0-.09 0-.25.09-.28a2.36 2.36 0 01.67-.25.42.42 0 01.3.21.49.49 0 01-.15.33c-.06.1-.19.12-.32.17zM142.75 19.43a2.39 2.39 0 01-.56-.4.45.45 0 01.23-.62.42.42 0 01.53.38 2.25 2.25 0 01-.2.64zM173.48 23.75a5.44 5.44 0 01-.54-.27c-.18-.13-.12-.31 0-.47a.32.32 0 01.46-.1c.27.2.3.35.08.84zM163.94 26.31c-.05 0-.13.19-.23.22a.45.45 0 01-.63-.37.41.41 0 01.2-.33c.28-.08.56.08.66.48zM163.49 34.84a2 2 0 01-.57-.34c-.13-.16.11-.49.35-.55.24-.06.38.11.4.39.01.13-.1.28-.18.5zM174.83 27.54a2.88 2.88 0 01.59.34.47.47 0 010 .37.28.28 0 01-.42.17.74.74 0 01-.32-.36c-.02-.14.09-.31.15-.52zM156.02 17.54c-.15.24-.22.45-.36.55-.14.1-.51-.09-.56-.34a.39.39 0 01.4-.41 2 2 0 01.52.2zM159.77 2.97c-.13.44-.43.47-.71.53a.3.3 0 01-.25-.11.35.35 0 010-.28.73.73 0 01.96-.14zM182.28 44.94c-.09-.46 0-.74.25-.75a.52.52 0 01.45.38c.08.25-.1.34-.7.37zM160.51 24.63c-.05 0-.12.19-.23.23-.27.1-.6 0-.58-.27a.63.63 0 01.26-.41c.19-.12.46.08.55.45zM181.61 32c-.13-.06-.31-.08-.35-.17a1.06 1.06 0 01-.1-.51.3.3 0 01.19-.21.29.29 0 01.28.11 1.19 1.19 0 01.17.49c.01.04-.1.16-.19.29zM187 30.12c-.17.14-.25.26-.36.29a.41.41 0 01-.5-.27.36.36 0 010-.29.3.3 0 01.27-.07 3.83 3.83 0 01.59.34zM189.51 32.2c-.09-.16-.19-.34-.28-.52.31-.2.52-.16.65.12s-.07.38-.37.4zM177.56 24.67a3.82 3.82 0 01-.46.52.28.28 0 01-.41-.18c0-.21.1-.38.37-.42a1.79 1.79 0 01.5.08zM147.5 25.63c-.05.06-.12.18-.23.22a.45.45 0 01-.56-.17c-.08-.11.07-.31.28-.37.21-.06.44.01.51.32zM153.96 4.52c.11-.19.14-.34.24-.41a.44.44 0 01.56.11c.07.11 0 .44-.16.44a2.66 2.66 0 01-.64-.14zM146.39 12.75l-.71.27c-.07-.11-.14-.17-.13-.22 0-.27.18-.48.47-.44.12.01.26.21.37.39zM174.91 36.36v.24a.35.35 0 01-.26.09.56.56 0 01-.31-.25.46.46 0 01.07-.35h.28a1.59 1.59 0 01.22.27zM143.73 23.98c0-.22.09-.4.43-.4a1.39 1.39 0 01.09.45M176.28 41.47a3.19 3.19 0 01-.6.12c-.06 0-.2-.16-.19-.21.01-.05.15-.31.22-.3a2.33 2.33 0 01.57.17v.22zM167.71 41.05c0-.44.15-.6.42-.6.11 0 .23.13.34.2-.07.1-.11.25-.21.3a2.26 2.26 0 01-.55.1zM162.16 29.43c-.16 0-.23.09-.29.08a4.6 4.6 0 01-.55-.12c.06-.12.08-.25.15-.29.3-.14.54-.07.69.33zM170.59 21.29c-.09.1-.14.19-.17.18-.03-.01-.29-.11-.44-.16.05-.08.13-.22.16-.21a1.89 1.89 0 01.45.19zM152.28 24.11a1.87 1.87 0 01-.47 0c-.05 0-.12-.17-.1-.24.02-.07.15-.14.22-.13a1.34 1.34 0 01.37.16 1.23 1.23 0 00-.02.21zM171.89 18.38c-.09-.11-.19-.18-.19-.24s.08-.17.13-.25c.05-.08.19.11.2.18.01.07-.07.17-.14.31zM159 19.89c-.14-.07-.26-.09-.29-.15-.03-.06.12-.36.29-.36.17 0 .19.13.18.18a1 1 0 01-.18.33zM172.78 47.75a2.07 2.07 0 01.44 0c-.13.17-.18.28-.24.29M165.09 39.37l-.58.18c.1-.42.38-.24.58-.18zM170.28 37.68l-.32-.08c0-.08.06-.21.12-.23.06-.02.18 0 .27.05.09.05-.07.16-.07.26zM145.52 20.81c.2.07.43.12.31.43-.24-.04-.41-.14-.31-.43zM167.62 11.75l-.15.12-.14-.19c.06 0 .12-.1.17-.09.05.01.08.05.12.16zM160.21 33.01l-.09.15a1 1 0 01-.13-.09v-.08l.22.02zM159.11 11.09l-.14.11s-.07 0-.07-.07v-.08a.53.53 0 01.21.04zM402.52 319.44a2.12 2.12 0 01-.08-.67.44.44 0 01.48-.35c.08 0 .24.12.23.17a1 1 0 01-.14.48c-.07.11-.22.17-.49.37zM372.33 312.47a1.14 1.14 0 01-.72.81.47.47 0 01-.6-.13 1 1 0 010-1.21.55.55 0 01.4-.06 1.61 1.61 0 01.48.26 3.22 3.22 0 01.44.33zM418.5 307.19a.93.93 0 01.39-.74.64.64 0 011 .3 1.91 1.91 0 01.1.52.42.42 0 01-.49.44 1.5 1.5 0 01-1-.52zM415.82 304.15l1 .65a5.36 5.36 0 01-.3.59.51.51 0 01-.66.21 7.6 7.6 0 01-.76-.35c-.16-.6.29-.77.72-1.1zM406.18 299.75l-.52-.83a.74.74 0 01.62-.6.89.89 0 01.82.43c.11.17.16.34 0 .49-.16.15-.45.51-.92.51zM373.28 288.26a4.69 4.69 0 010-.76c.08-.43.34-.55.71-.36.37.19.43.25.59 1.11-.38.38-.79.24-1.3.01zM372.28 295.42a7.3 7.3 0 01.83-.08c.31 0 .5.18.58.54.05.19 0 .36-.19.43a3.51 3.51 0 01-.53.15c-.69.11-.91-.2-.69-1.04zM371.97 317.26a.57.57 0 01.75-.21.89.89 0 01.6.58.62.62 0 01-.53.77M384.28 321.3l-.65-.38a1 1 0 01.45-.95.67.67 0 01.72 0 .52.52 0 01.15.75 6.44 6.44 0 01-.67.58zM404.58 294.11c.06-.3 0-.67.42-.79s.73.17 1 .51c-.4.92-.58.92-1.42.28zM414.28 308.97a1.51 1.51 0 01-1-.87 1.36 1.36 0 01.13-.3c.19-.22.39-.46.74-.28a.75.75 0 01.45.8 2.42 2.42 0 01-.32.65zM384.02 293.57a4.05 4.05 0 01-.26.45.42.42 0 01-.59.09 1.59 1.59 0 01-.27-.18.62.62 0 01-.23-.68c0-.18.37-.29.67-.25.3.04.57.16.68.57zM384.73 299.36a.78.78 0 01-.73-.63.46.46 0 01.57-.57l1.23.35c-.28.18-.48.29-.66.43a5.3 5.3 0 00-.41.42zM390.11 302.89c.18-.75.24-.81.69-.71a1.82 1.82 0 01.6.23.46.46 0 01.14.58.45.45 0 01-.51.31 7.09 7.09 0 01-.92-.41zM390.06 319.42a1.6 1.6 0 010 .47.5.5 0 01-.32.24.87.87 0 01-.78-.9.56.56 0 01.49-.51.5.5 0 01.52.32 4 4 0 01.09.38zM399.47 304.27l-.83-.33.59-1 .78.34a.81.81 0 01-.54.99zM369.44 293.33l1 .64a.86.86 0 01-.66.73.49.49 0 01-.65-.52 4.25 4.25 0 01.31-.85zM382.41 289.19c-.42.06-.67 0-.8-.23a1 1 0 01.16-1 .39.39 0 01.38-.07c.15.06.36.22.36.34a5.82 5.82 0 01-.1.96zM389.82 305.53c-.23.36-.35.57-.5.76-.15.19-.48.32-.79 0a2.28 2.28 0 01-.23-.3c.13-.23.27-.47.42-.75l1.1.29zM409.92 301.85l-.84-.11a.8.8 0 01.34-1 .55.55 0 01.5 0c.14.07.22.26.3.41a.34.34 0 010 .22c-.09.13-.19.28-.3.48zM392.67 313.24a3.6 3.6 0 01.24-.81.65.65 0 01.42-.27.44.44 0 01.5.3.91.91 0 01.09.31.52.52 0 01-.53.64 4 4 0 01-.72-.17zM399.94 316.48c.09.26.15.38.18.52a2.58 2.58 0 01.06.47 6.61 6.61 0 01-.73.19c-.23 0-.57-.31-.57-.54a.48.48 0 01.36-.47c.2-.07.41-.1.7-.17zM412.11 288.84l.76.66a.73.73 0 01-.47.69.52.52 0 01-.65-.26.91.91 0 01-.07-.53 2.46 2.46 0 01.43-.56zM390.63 289.89l-.77-.46a3.26 3.26 0 01.1-.46.58.58 0 01.85-.35.53.53 0 01.22.74.64.64 0 01-.1.18l-.3.35zM374 314.75a5.0001 5.0001 0 01.4-.61.39.39 0 01.64 0 .72.72 0 01-.25 1.07.47.47 0 01-.4 0 2.43 2.43 0 01-.39-.46zM412.76 295.15c.12-.57.35-.84.82-.88a.58.58 0 01.61.51.53.53 0 01-.56.54 7.22 7.22 0 01-.87-.17zM410.87 293.56l-1.08-.54c.07-.81.07-.81.74-.92a2.47 2.47 0 01.34 1.46zM407.16 290.06a5.72 5.72 0 01.51.42.5.5 0 01.1.6.53.53 0 01-.65.26 3.78 3.78 0 01-.52-.23c-.08-.5.14-.73.56-1.05zM411.64 310.75l.94.53a1.2 1.2 0 01-.09.33c-.27.42-.54.56-.77.4a.71.71 0 01-.29-1 1.21 1.21 0 01.21-.26zM375.1 319.98c0-.39 0-.64.33-.74a.61.61 0 01.71.14.68.68 0 01.1.81M374.73 306.15l.52-.67c.47.1.62.43.8.7 0 .41-.29.51-.59.56-.3.05-.49-.24-.73-.59zM392.63 307.44a6.86 6.86 0 01-.26.76.41.41 0 01-.33.2c-.11 0-.23-.16-.3-.27a1.53 1.53 0 01-.11-.42.55.55 0 01.2-.59c.21-.15.41 0 .59.11a2 2 0 01.21.21zM374.44 301.85l-.87-.5c.16-.3.3-.54.43-.76.35 0 .67 0 .82.27.15.27-.16.6-.38.99zM402.46 297.31c.24-.3.35-.57.54-.66a.9.9 0 01.62.12.48.48 0 01.23.56.49.49 0 01-.57.39 6.8 6.8 0 01-.82-.41zM412.6 280.96a3.61 3.61 0 01.54-.19c.4-.07.77.05.74.26a1.37 1.37 0 01-.3.66.51.51 0 01-.83-.14 2.28 2.28 0 01-.15-.59zM405.8 329.75c-.21.08-.3.14-.4.17a.57.57 0 01-.68-.22.55.55 0 01.11-.7c.11-.12.28-.28.42-.27.14.01.3.18.38.33a3.15 3.15 0 01.17.69zM405.53 306.75a2.4 2.4 0 01.57.35.6.6 0 01.13.48.58.58 0 01-.39.33 2.84 2.84 0 01-.72-.16.94.94 0 01.41-1zM398.8 281.75c.12-.44.31-.63.67-.53a1.06 1.06 0 01.78.53c-.27.52-.42.6-.79.44a1.64 1.64 0 01-.29-.16c-.12-.08-.23-.17-.37-.28zM403.1 305.04c-.27.32-.39.49-.54.65-.15.16-.51.32-.64.17s-.26-.65-.13-.8a.52.52 0 01.36-.19 6.93 6.93 0 01.95.17zM397.34 314.8a1 1 0 01-1.15.6c-.15-.34-.25-.66.14-1a1.21 1.21 0 011.01.4zM407.55 312.38a.53.53 0 01-.49.59.57.57 0 01-.68-.36.58.58 0 01.4-.67.75.75 0 01.77.44zM412.28 297.75c-.33.22-.5.35-.68.46a.48.48 0 01-.66-.16.54.54 0 01.27-.73 1.13 1.13 0 01.63 0c.14.11.24.28.44.43zM406.36 320.38c.33.45.33.45-.08 1.28-.41 0-.8-.08-.87-.68.32-.23.64-.4.95-.6zM394.53 305.22c-.38 0-.77 0-1-.37.26-.68.43-.79.88-.6.45.19.41.41.12.97zM407.77 296.52a5.74 5.74 0 01.13-.69.43.43 0 01.76-.13 1.09 1.09 0 01.19.49c.06.37-.18.58-.58.51a4.76 4.76 0 01-.5-.18zM372.65 290.75c0 .21-.19.44-.49.5s-.73-.08-.76-.4a.58.58 0 01.38-.6.83.83 0 01.87.5zM378.13 286.75c.12-.58.43-.71.84-.67a.53.53 0 01.44.64.5.5 0 01-.58.39 5.18 5.18 0 01-.7-.36zM375.56 297.99l.38-.58c.78.09.78.09.94.67-.6.41-.6.41-1.32-.09zM404.66 279.82l.64.31c-.06.28-.11.55-.16.78-.33.12-.6.08-.73-.16a.63.63 0 01.25-.93zM386.45 294.75a.83.83 0 01.72.66.51.51 0 01-.31.6.26.26 0 01-.21 0c-.35-.14-.4-.5-.49-.79-.03-.07.2-.27.29-.47zM421.44 316.68a3.69 3.69 0 01.41.46.5.5 0 01-.05.69.54.54 0 01-.69 0 .48.48 0 01-.15-.66 1.11 1.11 0 01.17-.27 3.9999 3.9999 0 01.31-.22zM401.51 321.99c-.32.66-.77.4-1.27.39l.26-1a1.54 1.54 0 011.01.61zM390.12 324.3a3.63 3.63 0 01.5-.22c.22-.07.44-.06.55.2a.62.62 0 01-.18.78.55.55 0 01-.7-.11.45.45 0 01-.11-.19c-.03-.14-.04-.28-.06-.46zM363.65 303.06c.4 0 .75 0 .87.41s-.28.52-.8.56a2.42 2.42 0 01-.69-.18l.62-.79zM380.33 283.48c0-.15.06-.29.08-.43a.4.4 0 01.34-.37.48.48 0 01.53.28 1.21 1.21 0 01.12.41.41.41 0 01-.62.43 2.65 2.65 0 01-.45-.32zM396.33 288.11c-.32.48-.49.58-.75.47a.69.69 0 01-.33-.91c.09-.22.38-.33.53-.18a6.27 6.27 0 01.55.62zM414.82 286.09a2.46 2.46 0 010 .56c0 .11-.13.27-.23.29a.58.58 0 01-.37-.1.73.73 0 01-.22-.24c-.15-.22-.26-.47-.08-.69.18-.22.45-.13.68 0l.22.18zM402.61 283.02l.83.47c-.15.28-.29.51-.46.8l-.76-.37c-.09-.45.18-.65.39-.9zM399.33 325.35a.87.87 0 01-.43.82.5.5 0 01-.61-.08.45.45 0 01-.1-.6.51.51 0 01.34-.24 4.15 4.15 0 01.8.1zM400.91 295.13a1.21 1.21 0 01-1.11.42c-.25-.54-.23-.76.09-.89a.57.57 0 01.42 0c.212.1406.4127.2977.6.47zM375.62 292.55a3 3 0 01-.29.48.42.42 0 01-.71-.09 1.23 1.23 0 01-.1-.42.42.42 0 01.65-.42 1.16 1.16 0 01.27.18 1.29 1.29 0 01.18.27zM418.52 328.86c-.23-.29-.21-.34.22-.81.35.24.7.48.66 1M417.13 296.6v.28a.32.32 0 01-.43.33.59.59 0 01-.31-1 .34.34 0 01.48 0 2.59 2.59 0 01.26.39zM385.97 290.26a2.5 2.5 0 01-.12.36 1.86 1.86 0 01-.18.28c-.33.06-.64.08-.75-.35a.47.47 0 01.18-.56c.36-.24.57 0 .87.27zM410.52 285.15a4 4 0 01.17-.9.73.73 0 01.43-.27.3.3 0 01.38.28 1.41 1.41 0 01-.22.69c-.1.13-.38.11-.76.2zM405.47 315.64c-.12.33-.18.68-.52.71-.34.03-.55-.3-.68-.6.49-.54.55-.54 1.2-.11zM420.15 311.75c.2.1.43.13.48.25a1.45 1.45 0 01.13.71.46.46 0 01-.4.46c-.2 0-.38-.28-.34-.59.04-.31.08-.5.13-.83zM395.51 296.51a1 1 0 01-.9.25.42.42 0 01-.3-.26.49.49 0 01.12-.39.67.67 0 01.7-.18.48.48 0 01.38.58zM417.35 331.75c-.14.43-.25.7-.65.59a.48.48 0 01-.42-.59c0-.19.17-.4.33-.35a6 6 0 01.73.3M404.42 310.36c-.26.41-.5.71-1 .49a.32.32 0 010-.62.77.77 0 011 .13zM377.16 316.54c.29-.33.55-.39.84-.24.29.15.34.43.33.78a.49.49 0 01-.73 0 5.37 5.37 0 01-.44-.54zM410.68 314.75c-.31.31-.55.65-1 .22 0-.3-.06-.7.43-.81.23-.08.32.03.57.59zM362.97 298.97a4.16 4.16 0 01-.41-.5.32.32 0 01.11-.47.71.71 0 01.31-.1c.17 0 .39 0 .49.1.1.1 0 .39-.14.55a5.37 5.37 0 00-.36.42zM415.63 292.09c-.15-.08-.4-.14-.49-.29a1.13 1.13 0 010-.61c0-.06.18-.15.25-.14a.89.89 0 01.46.21.61.61 0 010 .71l-.22.12zM366.28 292.4a2.17 2.17 0 01.3-.59.75.75 0 01.45-.23c.07 0 .2.18.25.3a.45.45 0 01-.16.57c-.27.24-.51.07-.84-.05zM387.73 287.15a.63.63 0 01-.51.71c-.21 0-.33-.16-.39-.33a.54.54 0 01.44-.73c.24-.05.4.08.46.35zM397.28 285.18c0-.14 0-.32.09-.49a.36.36 0 01.39-.3.51.51 0 01.49.36.45.45 0 01-.17.57.54.54 0 01-.8-.14zM385.1 286.01l-.82-.26c-.13-.33-.06-.58.18-.71a1.8 1.8 0 01.66-.07c-.01.34-.01.61-.02 1.04zM404.33 289.11a.58.58 0 01-.62-.36.45.45 0 01-.06-.38.49.49 0 01.35-.17 1.19 1.19 0 01.41.08c.35.1.4.33.13.63-.07.08-.15.14-.21.2zM376.28 284.89a.59.59 0 01-.85 0 .51.51 0 01-.07-.69.47.47 0 01.68 0 2.85 2.85 0 01.24.69zM390.77 311.31a1.85 1.85 0 01-1.12-.53c.32-.48.46-.57.75-.48.29.09.28.15.37 1.01zM408.21 304.18a3.23 3.23 0 01-.37.37c-.17.14-.39.22-.57 0a.62.62 0 010-.7.4.4 0 01.27-.12c.21.02.25.02.67.45zM413.43 317.08c-.65.11-.83 0-.91-.44a.4.4 0 01.35-.46c.19 0 .36 0 .45.18a1.21 1.21 0 01.09.31c.02.14.01.28.02.41zM396.78 327.62c.4.23.78.34 1 .71a.67.67 0 01-.78.25c-.47-.11-.52-.34-.22-.96zM395.57 324.09l-.49-.86a.41.41 0 01.58-.2 1.41 1.41 0 01.45.25.29.29 0 010 .3 4.91 4.91 0 01-.54.51zM414.56 300.32c-.1-.06-.34-.15-.41-.3-.07-.15.25-.7.5-.74a.54.54 0 01.46.4c.06.31-.13.58-.55.64zM404.28 324.66c-.76-.43-.76-.43-.54-1.05a1.59 1.59 0 011 .6c-.14.17-.29.31-.46.45zM400.52 287.47a3.35 3.35 0 01-.14-.67.41.41 0 01.19-.34.54.54 0 01.41 0c.3.16.32.45.28.79l-.74.22zM423.28 314.53a.29.29 0 01-.28-.1.43.43 0 010-.38c.28-.47.66-.46 1.19.05M411.51 332.75a.62.62 0 01.75.57.29.29 0 01-.17.23 1 1 0 01-.52.06.7.7 0 01-.37-.35c-.08-.21.08-.46.31-.51zM388.77 313.96a1.86 1.86 0 010 .33.36.36 0 01-.61.14 1 1 0 01-.21-.36c-.09-.29.06-.49.37-.54.31-.05.36.06.45.43zM398.86 311.8a.63.63 0 01-.87.13.45.45 0 01-.19-.35.41.41 0 01.23-.31c.43-.17.63-.03.83.53zM391.28 293.85a.81.81 0 01.87.59.38.38 0 01-.23.29.7.7 0 01-.81-.39c-.09-.1.09-.34.17-.49zM390.49 315.62c.28-.11.51-.28.64-.22a1.33 1.33 0 01.53.5c0 .06 0 .29-.14.36s-.31.11-.38.05a5.6 5.6 0 01-.65-.69zM409.74 287.35c.1.36 0 .56-.25.57h-.11c-.39 0-.66-.19-.68-.39-.02-.2.34-.49.73-.43.14.03.26.21.31.25zM417.16 310.8c-.55-.33-.65-.53-.45-.85a.51.51 0 01.53-.29c.22 0 .33.34.25.64a.42.42 0 01-.09.19c-.06.09-.12.17-.24.31zM408.37 309.52a.56.56 0 01.42-.65.71.71 0 01.59.41c.07.23-.18.48-.54.55a.36.36 0 01-.47-.31zM419.1 293.44c.06.31 0 .57-.24.65-.24.08-.53-.13-.61-.48a.41.41 0 01.39-.53c.25-.03.4.09.46.36zM397.63 298.43a.4.4 0 01.36-.54c.31-.06.56.06.58.29.02.23-.15.51-.49.57a.35.35 0 01-.45-.32zM366.52 305.5c.39 0 .6-.66 1.13-.23a1.89 1.89 0 01-.1.31 7.0002 7.0002 0 01-.38.6l-.69-.45a2.23 2.23 0 00.04-.23zM373.18 309.91c-.14-.3-.27-.55 0-.75a.6.6 0 01.72 0 .41.41 0 01.16.27c0 .3-.22.43-.5.48a2.17 2.17 0 01-.38 0zM381.28 304.65a6.34 6.34 0 01-.3.91c0 .08-.24.12-.37.12s-.25-.13-.25-.18a1.45 1.45 0 01.16-.7c.03-.11.31-.05.76-.15zM399.61 330.85a7.85 7.85 0 01.55-.76c.13-.14.48 0 .53.21a.71.71 0 01-.37.71c-.15.06-.37-.07-.71-.16zM380.84 296.48a2.06 2.06 0 01.53-.34.53.53 0 01.36.17 1.42 1.42 0 01.29.43.32.32 0 01-.08.28c-.07.06-.23.11-.29.07a8.5 8.5 0 01-.81-.61zM386.44 317.75c-.4-.11-.69-.25-.75-.63 0-.13 0-.13.38-.54a4.29 4.29 0 01.47.7c.05.11-.06.29-.1.47zM370.46 286.12c0-.21-.08-.35-.11-.49a.94.94 0 010-.23.84.84 0 01.26-.15c.41-.08.58 0 .62.22a.5.5 0 01-.36.59 4.12 4.12 0 01-.41.06zM395.21 317.94a4.42 4.42 0 01-.4.72.41.41 0 01-.38.06.44.44 0 01-.3-.51.32.32 0 01.35-.32c.2 0 .41.03.73.05zM376.62 289.36a3.54 3.54 0 01.56-.2c.22-.05.5 0 .52.22a.85.85 0 01-.3.52c-.15.16-.35.07-.47-.06a2.5 2.5 0 01-.31-.48zM422.33 322.75c-.07-.2-.15-.42.08-.59a.48.48 0 01.65.17M384.41 307c0 .08-.1.27-.23.36a.42.42 0 01-.39 0 1.2 1.2 0 01-.35-.39.31.31 0 01.29-.45c.39-.02.62.12.68.48zM362.61 306.52c-.06.2-.07.28-.1.34-.24.4-.45.56-.63.45a.71.71 0 01-.13-.79.39.39 0 01.33-.21 1.93 1.93 0 01.53.21zM400.28 307.97c.33.13.6.22.86.35a.3.3 0 01.07.28c-.06.12-.18.28-.28.29a.74.74 0 01-.78-.6c.02-.05.13-.13.13-.32zM403.13 331.75l.73.48a.77.77 0 01-1 .42.31.31 0 01-.15-.25 4.89 4.89 0 01.42-.65zM381.59 309.66a1.66 1.66 0 01.37.09.46.46 0 01.22.56 1 1 0 01-.36.36.23.23 0 01-.21 0c-.1-.14-.24-.3-.23-.45a1.81 1.81 0 01.21-.56zM395.05 282.67v.26c0 .04-.21.24-.32.24a.63.63 0 01-.6-.52.46.46 0 01.15-.36.33.33 0 01.48 0c.09.13.19.27.29.38zM401.9 291.38a.49.49 0 01.5.47.44.44 0 01-.34.49.51.51 0 01-.49-.35.5.5 0 01.33-.61zM411.39 306.04c-.22.27-.3.45-.44.52a.52.52 0 01-.47 0 .6.6 0 01-.14-.48.32.32 0 01.41-.25c.17.05.33.12.64.21zM365.55 300.81c0-.21.06-.35.08-.48.02-.13.18-.43.43-.36s.22.25.28.4a.42.42 0 01-.2.55c-.16.05-.38-.06-.59-.11zM414.21 329.95l-1.13.37c-.13-.43.09-.6.39-.69a.56.56 0 01.74.32zM416.9 318.23a2.23 2.23 0 01-.09.45.4.4 0 01-.55.21.32.32 0 01-.19-.44c.06-.17.13-.32.21-.54l.62.32zM397 279.38a.65.65 0 010 .31 6 6 0 01-.22.69l-.54-.76a.28.28 0 01.1-.44M417.92 302.3c-.09 0-.26 0-.34-.12a.32.32 0 01.07-.47 1.64 1.64 0 01.25-.21.38.38 0 11.36.66 3.27 3.27 0 01-.34.14zM397.4 293.51c-.27.13-.42.26-.55.25a1.33 1.33 0 01-.56-.24v-.29a.38.38 0 01.23-.18c.19-.03.2-.02.88.46zM407.97 317.14c.22.32.38.59 0 .88-.15.13-.3.19-.47.05a.41.41 0 01-.09-.58.73.73 0 01.16-.14l.4-.21zM402.15 313.61a1.18 1.18 0 01-.06.39.64.64 0 01-.69.22.28.28 0 01-.21-.2.32.32 0 01.09-.27.84.84 0 01.87-.14zM369.45 302.8a2.86 2.86 0 01-.55-.42c-.13-.18 0-.41.28-.48s.51 0 .5.24a2.61 2.61 0 01-.23.66zM393.28 299.17a.88.88 0 01-.65.61c-.09 0-.27 0-.29-.09-.02-.09 0-.32 0-.38a1.33 1.33 0 01.56-.3c.1-.03.23.1.38.16zM396.41 301.84c-.41.11-.72 0-.76-.34a.43.43 0 01.19-.34.46.46 0 01.65.36c.03.11-.06.23-.08.32zM397.43 307.08c-.11 0-.29 0-.35-.13s0-.26 0-.38a.67.67 0 01.2-.25.37.37 0 01.55.1.36.36 0 01-.08.48 2 2 0 01-.32.18zM407.79 325.98c-.16.44-.47.45-.75.49a.3.3 0 01-.25-.13.32.32 0 01.06-.28.73.73 0 01.94-.08zM389.28 284.5h-.31c-.09 0-.19-.14-.19-.22 0-.08.07-.33.15-.36a1.56 1.56 0 01.61 0c.06 0 .15.15.16.24a.34.34 0 01-.12.26.82.82 0 01-.3.08zM394.28 327.08c-.24-.08-.46-.08-.54-.19a1.44 1.44 0 01-.17-.59c0-.06.14-.18.23-.2a.43.43 0 01.28.08.29.29 0 01.1.19c.01.2.03.38.1.71zM392.09 285.75c.54-.12.54-.12.9.08-.05.33-.28.46-.61.55-.1-.2-.17-.39-.29-.63zM408.45 282.3c-.19.21-.3.42-.46.48-.16.06-.5-.19-.49-.44a.4.4 0 01.47-.34c.14.02.31.16.48.3zM368.28 288.58a.69.69 0 01.73.22c.07.2-.14.45-.43.5-.29.05-.4 0-.42-.2a1.42 1.42 0 01.12-.52zM364.96 294.75c.09.08.26.17.26.27a2 2 0 01-.14.62s-.12.08-.18.08-.17-.06-.17-.09a6.09 6.09 0 010-.74s.12-.06.23-.14zM390.9 280.58a3.6 3.6 0 01.6.06.52.52 0 01.31.24c0 .09-.11.25-.21.32a.33.33 0 01-.47-.06 3.7 3.7 0 01-.23-.56zM420.68 298.44c-.33.4-.61.44-.93.24-.13-.08-.24-.2-.14-.34.1-.14.24-.21.34-.19a3.49 3.49 0 01.73.29zM417.95 315.75a2.41 2.41 0 01.22-.56.42.42 0 01.35-.14.41.41 0 01.22.33.37.37 0 01-.2.31 2.27 2.27 0 01-.59.06zM419.98 320.98a1.05 1.05 0 01-.66-.71c0-.06.07-.21.15-.25a.28.28 0 01.28 0 1.09 1.09 0 01.23.96zM387.28 309.6l-.49-.67c0-.1.06-.2.11-.21.05-.01.31-.08.36 0a.63.63 0 01.02.88zM395.77 310.09c-.11.12-.19.26-.24.26a2.32 2.32 0 01-.58-.19v-.29a.3.3 0 01.25-.12 5.31 5.31 0 01.57.34zM385.45 312.08a1.77 1.77 0 01-.75.62c-.09.05-.26 0-.39-.08s-.12-.13-.11-.17c.01-.04.09-.23.16-.24.3-.06.61-.08 1.09-.13zM387.09 301.13a5 5 0 01.57-.64.36.36 0 01.35 0 .4.4 0 01.06.37c-.16.35-.47.39-.98.27zM365.35 309.31c-.13-.11-.29-.19-.32-.3a.52.52 0 01.12-.38.29.29 0 01.46 0 .43.43 0 010 .37 1.67 1.67 0 01-.26.31zM392.06 321.24c.41-.15.75-.56 1.08 0-.64.43-.68.44-1.08 0zM386.28 303.82c-.07.05-.17.17-.29.19a.35.35 0 01-.43-.36.39.39 0 01.26-.27.44.44 0 01.46.44zM368.46 297.03c0 .07 0 .19-.11.24-.28.16-.59.13-.65-.07a.4.4 0 01.11-.36.45.45 0 01.65.19zM383.2 315.96c-.09-.08-.26-.16-.33-.28a.3.3 0 01.16-.45.28.28 0 01.37.13.41.41 0 01-.2.6zM401.77 327.18c.12-.19.17-.34.27-.4a.44.44 0 01.57.14c.06.13-.06.45-.2.44a2.52 2.52 0 01-.64-.18zM412.64 325.34a2.92 2.92 0 01-.63-.33.3.3 0 01.1-.46.28.28 0 01.43.15 3.31 3.31 0 01.1.64zM398.1 320.22a3.61 3.61 0 01-.62.13c-.06 0-.2-.13-.2-.19a.56.56 0 01.17-.35c.24-.14.36-.06.65.41zM393.62 291.62l-.26-.57a.37.37 0 01.48-.09c.22.23.17.43-.22.66zM371.51 298.92l-.83.27c.09-.66.18-.71.83-.27zM370.05 306.89c.19.22.34.33.38.47a.38.38 0 01-.17.33.26.26 0 01-.4-.21 3.17 3.17 0 01.19-.59zM413.03 302.64l.15.65c-.28.18-.5.06-.57-.13-.07-.19.05-.47.42-.52zM361.03 301.12a1.88 1.88 0 01.1.52c0 .09-.18.22-.28.23-.1.01-.31-.21-.25-.38a.44.44 0 01.1-.19 2.89 2.89 0 01.33-.18zM381.37 318.91c-.28 0-.33-.19-.34-.36a.42.42 0 01.16-.33.4.4 0 01.35.13.49.49 0 010 .38c0 .08-.12.13-.17.18zM410.08 278.75c.26.45.28.66.05.74-.23.08-.2 0-.28-.07a.27.27 0 01-.1-.17.3.3 0 010-.21 2.64 2.64 0 01.33-.29zM377.89 294.75a1.91 1.91 0 01.41-.35c.1 0 .26.05.38.11a.23.23 0 010 .2c0 .08-.16.2-.23.19a4.56 4.56 0 01-.6-.18l.04.03zM404.67 302.42a3.0701 3.0701 0 01-.41-.2s-.06-.13 0-.18a.21.21 0 01.15-.13 1.06 1.06 0 01.4.08.36.36 0 01.1.26s-.14.08-.24.17zM383.14 302.1a1.08 1.08 0 01-.34.17c-.08 0-.18-.07-.25-.14s0-.16 0-.17a1.4 1.4 0 01.41-.06s.11.1.18.2zM406.4 285.25a4.6801 4.6801 0 01-.41.48s-.19-.07-.23-.14c-.04-.07 0-.49.19-.51.19-.02.23.09.45.17zM386.36 282.53c-.19-.28-.33-.4-.36-.54-.03-.14.13-.21.21-.32.1.08.26.14.28.23a2.14 2.14 0 01-.13.63zM379.28 308.44a2.16 2.16 0 01-.57.21.37.37 0 01-.18-.31c0-.1.19-.26.26-.24.07.02.2.16.49.34zM399.12 289.85c.23.3.12.45-.12.52s-.36.14-.44-.08c-.08-.22.13-.22.23-.3a1.54 1.54 0 01.33-.14zM388.54 292.46c-.14.18-.19.32-.29.37-.1.05-.31.05-.32-.14a.39.39 0 01.15-.33c.09-.04.2.05.46.1zM401.7 300.11c-.11.14-.15.25-.23.28a.32.32 0 01-.42-.21c0-.06.14-.29.2-.29a1.53 1.53 0 01.45.22zM377.06 311.28c-.15.15-.22.31-.33.32a.34.34 0 01-.29-.18.38.38 0 01.18-.31c.1-.03.24.08.44.17zM379.28 299.93c-.06-.05-.23-.11-.25-.2a.38.38 0 01.16-.32c.14-.09.26 0 .3.17.04.17.06.27-.21.35zM415.63 313.33a2 2 0 01-.3.33s-.23-.13-.23-.15a.91.91 0 01.22-.33s.16.07.31.15zM417.75 323.75a1.18 1.18 0 01-.26.33c-.05 0-.18-.06-.27-.09a1.31 1.31 0 01.19-.35s.18.04.34.11zM409.83 322.68c-.68 0-.67 0-.77-.45.31-.05.42.23.77.45zM368.77 310.51a.89.89 0 01-.25.26s-.2-.11-.19-.15a1.54 1.54 0 01.15-.32l.29.21zM414.33 321.89l-.2-.06c.06-.06.1-.14.17-.18.07-.04.11.06.17.09l-.14.15zM417.59 288.17l-.16.12-.14-.2c.06 0 .13-.09.18-.08.05.01.08.11.12.16zM415.28 335.39l-.16.12-.14-.2c.07 0 .14-.1.19-.08.05.02.02.1.11.16zM380.28 292.06c0 .07-.08.16-.1.16a1.05 1.05 0 01-.24-.06v-.09l.34-.01zM406.59 334.21a.65.65 0 01-.15.1s-.07 0-.07-.07a.16.16 0 010-.08l.22.05zM377.86 294.75v.28h-.1v-.14a.65.65 0 01.16-.13l-.06-.01z"/><circle cx="246.98" cy="191.21" r="119.83" fill="#FFF" fill-rule="nonzero"/><circle cx="246.99" cy="187.57" r="110.12" fill="#F15623" fill-rule="nonzero"/><path fill="#F15623" fill-rule="nonzero" d="M173.54 266.11c-38.0334-35.6168-45.0675-93.373-16.6948-137.0775C185.2179 85.328 240.8368 68.2458 288.85 88.49"/><path fill="#F5865A" fill-rule="nonzero" d="M289.47 86.11c.4.2.42-.24.51-.29-.7-.2-.54.4-.51.29zM282.17 84.35l.18-.12-1.17.05zM275.54 82.33c.45.85 2.45.57 3.56 1.17l.15.21.7-.38a33 33 0 01-4.41-1zM272.28 79.92c.17.32-.84 0 .83.29l-.13-.11c-.12-.03-.32-.08-.7-.18zM269.64 79.51h1c-.16-.2-1-.42-.66-.47-1.01-.12-.84.08-.34.47zM268.63 79.83h.52c-.08-.08-.2-.14-.52 0zM270.28 79.83h-1.08c.11.15.08.38.49 0-.18.21.07.05.59 0zM270.8 80.07c.5.27 1.16.51.16.55 1.82.31 1.68-.25-.16-.55zM275.01 82.95l.64.39.66-.07c-.33.03-1.28-.52-1.3-.32zM263.73 78.06c-.09.14.26.45.3.66l.74-.06c-.35-.16-1.03-.37-1.04-.6zM264.03 78.75c-.37 0-.73.07-1.1.1.94.13 1.13.05 1.1-.1zM268.28 80.58c.61-.08 1.21-.13 1.82-.18-.72 0-1.43.06-2.15.12l.33.06zM259.64 77.51l.65-.28-1.15.4zM256.91 77.3c.48-.25-.57-.55-.08-.69a6.08 6.08 0 00-2 .37 4 4 0 012.08.32z"/><path fill="#F5865A" fill-rule="nonzero" d="M253.86 77.25a7.29 7.29 0 001-.27 4 4 0 00-1 .27zM261.13 78.49a1.18 1.18 0 00-.78-.53l.37.48.41.05zM260.73 78.45l-.91-.13zM261.28 78.51h-.11c0 .03.02.05.11 0zM265.63 79.69c-.66.13-2 .17-.8.74.45-.22-.19-.54.8-.74zM261.69 79.11l1.1.26c0-.12-.18-.31.14-.38l-1.24.12zM261.12 79.17l.56-.06-.41-.09zM255.79 77.75a5.86 5.86 0 01-1.65.12 18.83 18.83 0 001.94.27c.1-.1.41-.31-.29-.39zM258.19 78.11h-.11c.06.06.11.08.11 0zM248.16 77.67l.1.08.02-.07zM256.19 78.26a1.65 1.65 0 001.06-.06h-1.17c-.04.03-.05.06.11.06zM252.18 77.36l.84.27c-.24-.15-.74-.38-.84-.27zM257.93 78h.07c-.15-.12-.14-.08-.07 0zM257.93 78a2.71 2.71 0 00-.68.2 6.78 6.78 0 00.83-.07.67.67 0 01-.15-.13zM246.37 80.42c.08-.41 1.35-.78 2.43-.33 1.07-.28.41-1.6-.54-2.34 0 .18 0 .34-1.16.56.4.22 2.47.53 1.53.88-1.47.19-1.2-.17-1.92-.36.6.47-1.87.76-1.53 1.48l1.27-.29c.03.11-.43.31-.08.4zM250.4 77.84h.46a6 6 0 01-1.58-.58c-.78.18-.94.33-1 .46.76 0 1.52 0 2.28.1l-.16.02z"/><path fill="#F5865A" fill-rule="nonzero" d="M252.94 77.89c-.39.4-1.5.55-.84 1 1.34 0 .95-.31 1.77-.45-2.18 0 .64-.2-.92-.54a9.85 9.85 0 011.19 0c-.39-.08-.77-.17-1.12-.27h.05c.09.06.12.09 0 0h-.05a.39.39 0 01-.1.16c-.63-.13-.1-.12.1-.16v-.06c-.74 0-1.48.1-2.21.14a14.57 14.57 0 002.13.18zM263.55 81.16a.11.11 0 010-.11c-.2.03-.27.05 0 .11zM262.71 80.75a1.15 1.15 0 01.82-.07c.42.2 0 .2 0 .35.32-.07 1.11-.13.19-.5h-.16c-.84-.26-1.88-1-1.72-1a3.22 3.22 0 00.87 1.22zM257.81 79.32l-1.82.05.88.46v-.23c.99.15.79-.12.94-.28zM247.95 77.45l.25-.45-1.06.63zM245.58 77.53l.08-.4-.63.26zM147.8 152.65l-.06.52a3.41 3.41 0 00.06-.52zM149.13 149.18l-.15-.16c.03.2.08.29.15.16zM190.08 93.39c-.86.1-1.9.09-1.58.42l.43.24a3.07 3.07 0 011.15-.66zM162.39 121.4l.24-.09v-.67l-.24.76zM163.47 122.92l-.83.61a4.92 4.92 0 00.83-.61zM143.4 172.41l.36.65c.12-.92-.15-.55-.36-.65zM221.49 80.67a8.29 8.29 0 00-1.7.12c.85.06 1.58.28 1.7-.12zM143.95 149.67c0 .34 0 .5.09.53.04-.35.04-.55-.09-.53z"/><path fill="#F5865A" fill-rule="nonzero" d="M217.9 81.31h.38a6.6 6.6 0 011.52-.52 2.59 2.59 0 00-1.9.52zM157.73 242.96a.85.85 0 010 .17c.1-.02.07-.09 0-.17zM167.65 262.91a7.9002 7.9002 0 01-.65-.65 3.39 3.39 0 00.65.65zM238.59 79.38c-.1.06-.18.13-.18.23a.39.39 0 01.18-.23zM213.91 85.31c.13.05.1.04 0 0zM236.79 78a4.26 4.26 0 00-.66-.08c.15.02.31.05.66.08zM236.67 77.8h.44c.06-.05 0-.11-.44 0zM235.28 77.96a3.29 3.29 0 01.82 0c-.1 0-.15 0-.12-.06-.12-.03-.32 0-.7.06zM142.5 206.58a.22.22 0 010 .11c.25.45.18.25 0-.11zM182.08 104.41h-.07.07zM180.91 105.75a1.78 1.78 0 011.13-1.34l-1.23-.63.1 1.97z"/><path fill="#F5865A" fill-rule="nonzero" d="M145.28 161.19l.71-1.07c.2 1.57-.21 2.54.56 1.57-1.27-.51 1.14-4.52-.11-5.08.16-.23.33-.45.51-.67-.08.21 0 .27-.1.48 1.11-1.28-.57-1.4.26-3.25.33-.63.67-1 .67-.52.06-.53.11-1.07.19-1.59s.37-.23.18.18l.78-2.25a10 10 0 01-.09-1.64c.4-.49 0 .34.24.26l.18-1.36c.53-.36.42.78.05 1.61 1.71-.62.06-1.16 1.9-3.26l-.36 1.2c1-.42 1.18-1.41 2.18-2.47-.35.18-2.25 2-2 .6a2.85 2.85 0 00.6-1.61c.43.2.63-.53 1.05-1.38l.55.34c.29-1 0-1.06 0-1.72a1.67 1.67 0 011.61-1c.91-1.56-1.27.74-.4-1.23a10.88 10.88 0 001.85-4c.71-.8.24.37.59.13v-1.07c.13-.18.23 0 .27 0 .26-.77-.5-.38 0-1.53-.38-.66 2.22-1.63 2.46-3.32.37-.21.21.37.49.42a17.67 17.67 0 001.18-3.54c.39-.33.81-.63 1.23-.94-1.06.57-.65-.86-.25-2.13a9.78 9.78 0 00-1 .43l1-1.78c.23-.13.27.17.28.59.05-.14.08-.27.11-.38.62-.41.68.11.65.73l-.75.32c0 .62.06 1.24.42 1.39a1.84 1.84 0 01.26-.61c0 .16 0 .28.12.28s.11-.26.18-.61l.83.09-.16-.26c.65-.57 1.27-1.16 1.95-1.69.32-.92.54-1.85.9-2.86a12.22 12.22 0 01.67-1.58 13.71 13.71 0 011.11-1.66c-.12.88.52.69.94 1.15-1 .12-1.35 1.81-2.41 2.87.56-.55.67-.22.62 0 .42-.81.87-1.61 1.35-2.39.33.39.67-.15 1.3-.51-1.08-.3.88-1.92 1.45-2.9.3.2.32.6-.64 1.51 1.53-.53.52-2.16 2-2.72-.23.23-.4.32-.37.53.34-.74 1.85-1.85 1.73-1.34l-.23.23c.81-.72 2-1.79 3-2.8 1-1.01 1.72-2 1.59-2.4a4.16 4.16 0 01.44 1.18c.39-1.53.82-3.07 1.27-4.64.18.79 2.26 1.36 1.11 2.79a4.54 4.54 0 001.73-1.4c-.34.14-1.33-.3-1-.65a12.53 12.53 0 002.73-.58c-.52.18-.72-1.09 0-1.54 0 .21.71.88.53 1.15l1-2.12c-.3.47.46.84 1 .84-.3-.06 1.51-.94 1.91-1.33l-.88.26c2.06-1.09 1.07-2.63 3.13-3.76-.12.35.14 1.58 1.23 1.11.17-.74.67-3.63 2.34-5l.52.11 1.26-1.07a27.08 27.08 0 01-1.38 2.68c-.59 1-1.18 2.15-1.66 2.82.89-.21.4.22 1.52-.46.54 0-.39.77-.71 1 .9-.44 1.8-.9 2.73-1.27-.44-.54 1.74-1.65 1.38-2.1l-2.6 2.11c-.45-.52.8-2.55 2.8-3.44.61 0 .16 1.26.3 1.44a4.05 4.05 0 011.89-1.23l-.67.7c1.19-.26 1.4-1.61 3-1.62.47-.17 1.69.18 1.61-.22-1-.37-2.14-2.48-1.86-3.23a16.44 16.44 0 013.44-.2c1 .26-.63 1.79.22 2 0-.18.3-.56.45-.7.54 0 0 .61 1 .12-.07-.71 2.17-.8.29-.74 1-.6 1.16-.3 2.39-.74-.55-.28.62-1.8 1.64-2.35 0 .19.3.32.45.38 2.21-.68 3.51-.64 5.57-1.25.23.1 1.28 0 .93.42a2.65 2.65 0 011.12-.63c1.38.28-1.41.41-.29.88 0-.4 1.53-.91 2.39-1.36-.42-.53-2.15.37-3 .82-.22-.81 1.17-2 3.32-2.94 1.72-.61.87.36 1.16.17 3.35-.45 2.58-2 5.48-1.84 1.19.39.21 1 .51 1.4-1.41.4-2.26 0-3.24.23h1.24a3.89 3.89 0 01-1.91.51 13 13 0 003.51-.34 34.73 34.73 0 014.74-.35c.44-.25 1.21-.49.82-.67-.28 0-.54.1-.81.16-.8-.35 1.48-.77.42-.86a8.65 8.65 0 013.87-.84l.33.59c0-.17-1-.28-1.47-.06.64-.32 2.44.63 3.11-.2-.37-.14-.74-.24-1.12-.35a8.7 8.7 0 013.88-.91c-.66-.59-.32.08-1.34-.6.44.43-.45.44-1.29.46-.84.02-1.59.1-.87.5-1.07-.74-1.79-.21-3.18-.81.06.2.51.35-.68.34a1.59 1.59 0 01-.24.2h-.08.06c-.05 0-.05 0 0 0a1.46 1.46 0 01.62.26 3.59 3.59 0 01-1.47.55 8.56 8.56 0 00-1.52.44c-.7 0 .26-.27-.14-.43l-.89.47c-.15-.43-1.94-.5-.33-1l-1.48.17a6.61 6.61 0 00-1.49-.06 4.4 4.4 0 00-1.33.32c-.71 0-1.66.8-1.12.35l-2.24.68v-.11a25.72 25.72 0 00-3.41 1 11.78 11.78 0 01-3.77.61 10.21 10.21 0 01-2.72.9l-.36-.3c-.92.37-3 .55-3.25 1.06-.67-.32-1.84 0-3.06.48a31.87 31.87 0 01-3.27 1.41l.13.5a14.29 14.29 0 00-1.66.74c-.55.31-1.12.66-1.76 1.06l.27.37c-1 .87-3.15 1-4.93 2 .05-.21.53-.41.9-.48a6.58 6.58 0 00-3.38 1.61 8 8 0 01-3.07 1.85 2.21 2.21 0 01-1.15.66.45.45 0 00.1-.09l-.19.11c-.25 0-.52.1-.79.17a3.12 3.12 0 00.68-.11 7.82 7.82 0 00-1.35 1l-.48-.26-.12.09c-.61.18-.29.46.18.59a3.18 3.18 0 00-.54.69c-.85-.38-1.24 1.1-2.27.78-.16.53-2.42 2.07-2.2 2.94-.08-.08-.26 0 0-.22a4 4 0 00-1.61 1.21l-.61-.32c-.25.51-.47 1.06-.7 1.58-1 .27-1.39.34-1-.6-1.29 1.95-1.25 1.33-2.27 3l-.18-.36c-.5.45-1 1.56-1.49 1.57-1.65.4-5.65 4.84-8.74 7.23 1.36.26-1.63.95-1.08 1.68-.36 0-.83.28-.59-.35-1.1 1.67-2.29 2-2.61 3.49-.36 0 0-.58-.28-.53-.06.16-.23.63-.5.68-.27.05 0-.37.13-.68-1.3 1.57-.71 2.31-.2 2.91a2 2 0 00-1.24 1.9c-.42.12-1 .42-.31-.62-.22.27-1 1-1.58 1.84-.58.84-1.06 1.6-.82 1.82-.26.08-.61.77-.65 1a19.27 19.27 0 00-1.86 2.69l.32-.31c.31.94-.55 1.18-1.14 2.28l-.05-.07c-2 2.11-.43 1.18-2.4 3.29l.49.1c.38.38-.06.84-.66 1.41a4.68 4.68 0 00-1.54 2.1l.51-.4c-.09 1-2.38 1.58-2.91 2.34-.17.14 0-.34.08-.62-1.63 1.85.41.55-.24 2.2-.44.15-.6-.76-1.15.3-.49.45-.46 3.59-1.66 4.84.38-.23.75-.46.63.38-.37 1.19-2.17 2.8-1.81 4.14-.12.13-.2.16-.27.15-.1 1-.66 3.07-.42 3.75-.47.08-.77.49-1 1.05a11.25 11.25 0 00-.37 2c-.17 1.38-.28 2.65-1 2.45-.26.94-.42 1.92-.62 2.88l-.14-.11a4.94 4.94 0 00-.1 3.27c-.2.4-.27.06-.34 0a8.66 8.66 0 00-.43 5.33l-.53.16a9.43 9.43 0 01-.53 2.51 10.73 10.73 0 00-.45 4.1c-.06 0-.15-.1-.2-.32a18.14 18.14 0 01-.6 4.91c-.24 1.57-.31 2.92.58 3.49l.4 2c.19-2.58.77.38 1.09-.68.08 1-.49 2.61-.63 1.37l.09-.19c-.95-.45-.25 3.2-.89 3.15v1.91l.09 1.89c0 1.26.09 2.51.13 3.75.04 1.24.18 2.47.28 3.69a35.3899 35.3899 0 00.44 3.6l.62-.66.26 1.64c-.08.46-.45.68-.64-.49-.29.69.71 1.9.87 1.9.14 2.35-1-.73-.89 0l.23.95v-.23a4.32 4.32 0 011 2.12c.07.91-.33.55-.28.9-.05 0 0 .14.11.54l.43 2.07.37-1c.49.83.43 1.92.84.82-.36.82.12 2.72.66 4.53s1.2 3.51 1.2 4a13.07 13.07 0 011.76 3.8c0-.41.48-.85.93.43-1.44 0 .41 2.53-.05 3.94.15-1.15 1.78 3.5 1.95 1.7.39 1.08-.42.28-.34 1.2 1.59 2.26 2.4 5.54 4.24 8.41.18 0 .12-.66.72-.18l.16 2c.43.53 1.19 0 1.3 1.36 0-.23.09-.56.37-.21a42.16 42.16 0 005.62 8.33c1 1.36 2.17 2.61 3.17 4a46.52 46.52 0 012.84 4.27c-.37-.91.07-.48.55 0-.25-.39.33-.29.44-.52.48.83.92 1.7 1.45 2.5.84-.11 2.19 2.09 2.83 1.84l-.71-.54c1.36.28 0-2.34.8-2.89-1.56-.29-1.45-3.31-3.77-4-.17-.47.5.08.5-.25-.66-.13-1.2-.51-1.82-1.56h.17a28.7 28.7 0 01-2.53-3.27c-.7-1-1.32-2.21-2.35-3.78l-.21.5a3.83 3.83 0 01-.55-1.28c-1.14-.32 1.33 1.84.18 1.64.07-1.39-3.26-4.73-2.76-5.92-.69-1-.27.6-.94-.44l.08-.44-.18.04c-.37-.73-.26-1.28-.07-1.44a4 4 0 00.48.62c-.24-1.09-1.64-2.48-1.73-2.85l.46 1.11a38.8799 38.8799 0 01-2.76-4.69 51.41 51.41 0 00-2.71-4.65l-.09.32c-1.47-2.1-.63-1.92-1.87-4.39l.09.07a5.42 5.42 0 01-1.07-1.77c.51.54 0-1.4.6-.66-1.34-2.4-.78-1.14-2.17-2.56l.21-.51a3.36 3.36 0 01-1.26-1.75c.68 1 .25-1 1.06.06-.08-3-2-3.88-1.26-5.47-1.37-1 .17 2.55-.26 1.9-.14.69-1.05-.85-1.21-1.76-.16-.91.9-1.87.34-4.11.05.23.13.23.18.45.07-.9-.79-1.57-.54-2.71-.72-.46-.22-1.36-1-1.38l.57 2.07c-.42-1.15-1.54-2.1-1.47-4.15a3.65 3.65 0 01.69 1.05c.13-.61-.35-1.08-.23-1.71.81 0 .65 2.52 1.48 3.67.21-.67-1-2.29-.05-1.81-1.23-.73-.33-2.25-1.32-3.68h.48a4 4 0 01-.45-1.17l.72.73c-.68-1.18.14-2.47-.31-3.63.35 2.51-.49.63-.69 1.74-1.05-3.06 1-1.94.49-5.39.1.47-.15 1.8-.42 1.08a6.08 6.08 0 01.37-2c-.28-2.31-.46.38-.83-.59.5-.82-.29-1.12-.51-2.14h.48c.24-2.66-1-.68-.71-3.09l.69 1-.2-1.25.55.25a5.11 5.11 0 01-.12-3.09c-.35.3-.87-.19-.86-1.38.31-.8.45.47.42-1.21a1.14 1.14 0 01.2 1.53c.16.08.29.38.45.46a7.81 7.81 0 00.14-2.76 2.48 2.48 0 01-.13.64c-.22-.81-.34-1.62-.52-2.45.21-.36.33-.05.45.26a14.6899 14.6899 0 01-.19-1.57c.37.22.78.21.89 1.23l-.26-2.32c.18-.14.55-1.13.67-.82.37-1.22-.37-3.17.14-4.8a1.38 1.38 0 01-.12-.65c.35-1.55 1.08-2.83.88-4.78.28-.31.59-.61.9-.9.18-1.46-1.19 1.22-.9-1.22.18-1.75.73-.5 1.06-1-.14-.91-.55-2.57.48-4a8.67 8.67 0 01-.33 1.46zm5.79-17.2c-.05.36-.06 1.13-.42 1.25-.32-.59.05-.77.44-1.25h-.02zm13.7-24.15c0 .31-.35.58-.78.83a2.88 2.88 0 01.8-.83h-.02zm65.78-40.91c-.85-.03-.56-.01.02 0h-.02zm1.72 0c.16-.09.14-.15.06-.21-.1.14-.48.19-.92.22.16.1.39.15.87-.02l-.01.01zm-91.9 133.49v-.35c.37.68.2.51.02.34l-.02.01z"/><path fill="#F5865A" fill-rule="nonzero" d="M163.35 122.75a.43.43 0 01-.3 0c-.02.11.05.17.3 0zM143.33 172.29v.05l.08.07zM208.36 89.33a1.63 1.63 0 01-.7 0c.03.13.21.16.7 0zM241.21 77.24l-1.08.21a2.27 2.27 0 011 .09c-.04-.11-.26-.26.08-.3zM250.63 80.15c.16-.06.33 0 .49-.05v-.23c-.7-.01-1.17.16-.49.28zM242.28 78.81c.1.41.77.25 1.52.16a.57.57 0 01-.13 0c.23-.57-.58-.36-1.39-.16zM244 78.95a5.47 5.47 0 01.7 0c.08-.26-.29-.07-.7 0zM234.4 78.38c.37.06.17-.54.39-.4.34-.57-2.33.92-.39.4zM242.95 80.13l-.28-.49-.41.41zM237.03 80.14h1.21c0-.08.12-.14.3-.2-.73.09-1.55.06-1.51.2zM238.54 79.99a2.92 2.92 0 001-.15 7.14 7.14 0 00-1 .15zM241.33 80.33l-.36-.08-.84.03zM224.28 81.98l-1.24.44c-.1.2.27.22.73 0 .27-.14.73-.32.51-.44zM228.4 82.59a1.23 1.23 0 01-.63-.27l.07.61.56-.34zM224.72 83.44c-.09.19-1.71.9-.13.5.09-.19 1.32-.63.13-.5zM205.86 88.48l.3-.13-.43-.92zM191.79 98.45c1.4-.59 0-.75 1.3-1.17.19-.39-1.09.34-.89 0-.63.69-1.11.83-.41 1.17zM192.2 97.26l.33-.36a1.72 1.72 0 00-.33.36zM169.87 265.93l.57.87-.23-.71zM171.78 266.75l-.27.64h.83c-.18-.13-.54-.4-.56-.64zM153.4 142.1l-.11-.13c-.21.06-.34.25-.55.65.21-.17.43-.35.66-.52zM148 154.01l.09-.21-.69.21zM145.76 164.75c.13-.43.12-1 .24-1.4-.11.98-.98 1.4-.24 1.4z"/><path fill="#FFF" fill-rule="nonzero" d="M161.95 169.36h170.09v36.1H161.95z"/><path fill="#E7AF22" fill-rule="nonzero" d="M126.74 67.39l14.95-49.42 39.81 32.9z"/><path fill="#FEEC8E" fill-rule="nonzero" d="M148.15 47.4l-4.27-11.76 5.07-1.53 3 12.15-3.8 1.14zm.57 4.37c-.4302-1.4213.3636-2.924 1.78-3.37a2.6939 2.6939 0 011.55 5.16c-1.4181.408-2.9011-.398-3.33-1.81v.02z"/><path fill="#1C468F" fill-rule="nonzero" d="M360.082 302.4532l43.9033-10.2328 10.2328 43.9033-43.9033 10.2327z"/><path fill="#BEDAED" fill-rule="nonzero" d="M383.67 327.31c.0328-1.5126 1.2772-2.7168 2.79-2.7a2.7507 2.7507 0 01-.12 5.5c-1.5023-.0542-2.6873-1.2968-2.67-2.8zm.83-4.42l-.43-12.78 5.41.12-1 12.74-3.98-.08z"/><circle cx="443.7697" cy="178.6785" r="7.43" fill="#F6947D" fill-rule="nonzero"/><circle cx="127.96" cy="327.11" r="7.43" fill="#F6947D" fill-rule="nonzero"/><circle cx="325.2033" cy="27.1319" r="7.92" fill="#F6947D" fill-rule="nonzero"/><path fill="#FCDAD8" fill-rule="nonzero" d="M.9 334.58l1.74-33.63 33.48 10.63zM370.7404 51.2201l28.51-17.91 10.56 33.5z"/><path fill="#111439" fill-rule="nonzero" d="M79 325.75c-.21-.05-.38-.05-.43 0-.05.05-.2.28-.31.41a.26.26 0 00-.05.26c.05.17 0 .25-.18.26-.18.01-.15.05-.11.16a.16.16 0 010 .18 2.62 2.62 0 01-.28.3.31.31 0 01-.2.08c-.1 0-.23 0-.22.11.01.11-.22 0-.23.16-.01.16-.1.16-.14.26a1.12 1.12 0 01-.56.47c-.13-.06-.15.06-.24.06s-.16.1-.22.19-.17 0-.24 0a.21.21 0 00-.08.12c0 .12-.12.16-.25.09s-.07 0-.08 0c-.01 0-.13.15-.23.15-.1.24-.3.26-.48.32a.64.64 0 00-.33.18c-.07.07-.15.05-.24.06a1.23 1.23 0 00-.32.07.22.22 0 00-.14.1c-.05.09-.11.14-.18.14-.07 0-.27.12-.42 0a.07.07 0 00-.12 0 .26.26 0 01-.24.12H71.3a2.5 2.5 0 01-.38-.06l-.42-.07c-.18.14-.24-.16-.38-.15-.14.01-.17 0-.27 0h-.08c-.21-.24-.52-.22-.75-.39-.23-.17-.22-.05-.38 0s-.07-.2-.23-.1 0 0 0-.07c0-.28-.16-.32-.35-.31a.38.38 0 01-.22-.05c-.2-.13-.41-.25-.44-.54 0-.12-.12-.17-.18-.25a2.57 2.57 0 00-.33-.33c0-.05-.18 0-.19-.1a.67.67 0 00-.09-.26.28.28 0 010-.23c0-.11-.16-.08-.15-.19.01-.11-.13-.18-.12-.3a.68.68 0 00-.11-.32c-.08-.23-.2-.44-.27-.68a1.57 1.57 0 01-.13-.42 4.48 4.48 0 00-.06-.64.24.24 0 01.06-.2v-.11a.43.43 0 01-.08-.36c0-.19.06-.39.11-.58a2.52 2.52 0 01.13-.33c.22-.05 0-.26.12-.37.12-.11.12-.17.17-.26.05-.09.1-.19.25-.18.15.01 0-.24.23-.16 0-.12.17 0 .22-.09l.21-.1a1.71 1.71 0 01.63-.08.36.36 0 01.32.18.35.35 0 00.19.14 2.16 2.16 0 01.62.43c.09.09.2.17.15.36-.05.19.05.07.09.09a.46.46 0 01.16.07 2 2 0 01.38 1 4.61 4.61 0 010 .83c0 .15 0 .3-.17.42v.17c0 .05.06.13 0 .18-.06.05-.09.13 0 .22s0 .16-.07.21c-.07.05-.11.08-.09.13.02.05.09.38-.12.48v.09c0 .03 0 .08-.06.09-.06.01-.11 0-.12.07a.41.41 0 00-.05.19c0 .06-.07.07-.1.11-.03.04-.08.11-.06.19.02.08-.2.14-.12.32-.21 0-.12.24-.21.36s0 .1-.1.11c-.1.01-.12.06-.16.11-.04.05-.24.27-.34.42a4.88 4.88 0 00-.52.66c-.05.09 0 .25-.2.21a1.73 1.73 0 00-.54.5c0 .06-.07.07-.12.08a.15.15 0 00-.11.18c0 .07 0 .07-.08.08a.53.53 0 00-.22 0l-.57.31c-.19.11-.41.2-.6.32s-.35.2-.53.3a.7.7 0 01-.53.35c-.29.08-.58.13-.88.22a.3.3 0 01-.33 0c0-.05-.08 0-.12 0a.33.33 0 01-.31.12.73.73 0 01-.34-.08.32.32 0 00-.45.11c-.18 0-.36-.14-.52 0-.16.14-.12.14-.2.09-.08-.05-.15 0-.23 0-.08 0-.13-.06-.18 0-.05.06-.17 0-.26 0a4.35 4.35 0 00-1.48.42 6.21 6.21 0 00-1.22.82 1.45 1.45 0 00-.46.62c-.17.09-.06.37-.29.43l-.06.08c0 .36-.18.65-.24 1a2.2 2.2 0 00-.06.37 1.48 1.48 0 000 .21l.05.05c.05.05.09-.05.09-.07a3.82 3.82 0 01.73-1.85.61.61 0 00.07-.14c0-.07 0-.2.1-.22.1-.02.13-.1.21-.13a.67.67 0 00.44-.43.3.3 0 01.37-.2c.08 0 .16 0 .18-.05.1-.3.37-.32.58-.42.21-.1.38-.2.62 0 .07-.15.21 0 .3-.06l.35-.07.91-.12a.34.34 0 01.26.07c.09.06.14-.14.23-.12.09.02.17 0 .26 0a.62.62 0 00.55.07 1.26 1.26 0 01.33-.05 1.3 1.3 0 00.83-.26.17.17 0 01.12 0 1.12 1.12 0 00.32 0 2.88 2.88 0 00.31-.13c0-.22.21-.05.26-.18a.4.4 0 01.26-.22l.58-.27.21-.12.25-.13c.07 0 .12-.12.23-.09.11.03.1-.18.2-.2a.43.43 0 01.17 0 .22.22 0 00.27-.17c0-.1.14-.09.14-.21s.21 0 .28-.1c.07-.1.19-.12.23-.23.04-.11 0-.22.2-.2.2.02 0-.16.11-.17.11-.01.19-.12.22-.23.03-.11.21-.11.15-.29s.05 0 .08 0 .13 0 .14-.09c.01-.09.13-.14.16-.23s.15-.16.2-.25a.26.26 0 00.07-.25c0-.12 0-.16.12-.2.12-.04.36-.2.23-.46 0-.06 0-.08.06-.11s.16-.06.19-.12a6 6 0 00.38-1 .37.37 0 000-.34c0-.06 0-.1.06-.15.06-.05.09-.09.07-.14-.02-.05.05-.16.05-.24 0-.08 0-.16.07-.22 0-.07-.11-.14-.1-.2.01-.06.1-.12.15-.18a.06.06 0 000-.08c-.08-.07-.14-.13 0-.19a1.94 1.94 0 000-.24 1.92 1.92 0 010-.24 1.83 1.83 0 01.06-.25c-.17-.09.05-.26-.14-.34-.19-.08-.08-.14 0-.24a.08.08 0 000-.12.51.51 0 01-.24-.24 2.78 2.78 0 00-.26-.34.83.83 0 01-.24-.42c0-.06-.09 0-.17 0h-.07c0-.27-.18-.25-.29-.36-.11-.11-.09-.05-.11-.13a.3.3 0 00-.24-.24 2.16 2.16 0 00-1-.13.47.47 0 01-.32 0 .1.1 0 00-.13 0 .15.15 0 01-.2.1.36.36 0 00-.27.08 2.32 2.32 0 00-.63.62 1 1 0 00-.17.27c0 .1-.17.15-.24.24-.07.09 0 .23 0 .33a.44.44 0 01-.23.36.2.2 0 00-.1.17 3.72 3.72 0 000 .74.2.2 0 00.06.14.44.44 0 01.15.35v.18c0 .06 0 .14-.07.23s.05.1 0 .17a.55.55 0 00.18.61v.07a.66.66 0 00.17.61 1 1 0 01.21.45c0 .15.13.23.11.41.1 0 .05.15.16.17a.25.25 0 01.21.29c0 .06.06.07.11.08.05.01.09 0 .08 0-.05.28.14.37.25.52.11.15.22.17.3.29.08.12.25.18.27.39.2 0 .28.1.4.17a.3.3 0 01.17.23.24.24 0 00.31.21.62.62 0 01.51.12 2.47 2.47 0 00.46.23 1.7 1.7 0 00.66.21c.13 0 .25 0 .35.08a.35.35 0 00.3.12.38.38 0 00.29 0c.13-.08.17.2.29.17a1.22 1.22 0 01.33 0s.09-.06.14-.07c.05-.01.16-.09.22 0s.43.09.64.11a.34.34 0 00.39-.18c0-.06.09 0 .14 0h.13c.04 0 .08-.12.12-.09a.28.28 0 00.47-.1.12.12 0 01.12-.05c.23 0 .41-.2.64-.21a.36.36 0 00.22-.17c.06-.07.16-.05.22-.13s.07 0 .1 0a.09.09 0 00.08 0c0-.06.07-.11.15-.07a.23.23 0 00.31 0c.09-.09.15-.21.3-.19a.22.22 0 00.25-.17v-.06c0-.06.07-.15.17-.12s.11 0 .13 0c.02 0 .06-.11.13-.11s.2-.07.3-.09c.1-.02.19-.14.28-.21.09-.07.13-.16.16-.28a.23.23 0 01.27-.21c.09 0 .12 0 .14-.1.02-.1.07-.21.23-.19a.16.16 0 00.14 0c.21-.16.49-.27.49-.62.15 0 .16-.16.16-.3 0-.14 0-.06.07-.06s.22-.08.17-.24c-.05-.16 0-.23.16-.25.16-.02.29-.19.41-.3l.05-.07v-.05s0-.1-.13-.18a.77.77 0 00-.45-.31zM409.65 6.09c.13-.17.2-.29.17-.32a1.07 1.07 0 00-.14-.16h-.14c-.08 0-.14.05-.11-.07.03-.12 0-.1-.07 0s-.09.05-.1 0a.29.29 0 01-.13-.08v-.11-.12c0 .06 0-.14-.09-.07s-.09 0-.14.05c-.05.05-.2 0-.28-.06-.08-.06 0 0-.06-.11s-.08 0-.12 0c-.04 0-.05-.08-.07-.1-.02-.02 0 0-.06.05s-.08.07-.1-.05c-.02-.12 0-.05 0 0s-.08.07-.11 0c-.09.18-.15.11-.22.1-.07-.01-.09 0-.14.06-.05.06-.05 0-.08 0a.17.17 0 00-.12 0v.08c0 .08 0 .12-.07.11-.07-.01-.08.09-.14-.09-.06-.18 0 0 0 0s-.05.11-.07.12a.2.2 0 00-.11 0l-.14.05h-.38c0 .2-.11-.05-.14 0-.03.05 0 0 0 .12h-.28c-.11 0 0 .08 0 .19s-.1-.1-.07.05c.03.15 0 0 0 0-.13-.2-.16-.12-.16 0v.11c0 .02-.11.1-.26 0-.15-.1-.08 0-.11 0a.35.35 0 00-.13.08v.11c0-.02-.09-.05-.11 0-.02.05-.06 0-.12-.07s0 .1-.06.06c-.06-.04-.06 0-.12 0h-.13l-.22.13c-.05 0-.07.09-.13.09a.27.27 0 00-.21.1h-.1c-.1 0 0 0 0 0s0 .13-.05.15a1.77 1.77 0 00-.17.12l-.12.06c-.15-.11 0 .11-.08.12a.33.33 0 00-.1.06s0 .09-.13 0 0 .16-.11.05c0 .08-.1 0-.11 0a.27.27 0 01-.08.07l-.22.17a.2.2 0 01-.21 0 .13.13 0 00-.14 0 2.62 2.62 0 01-.25.22s-.06.1-.21 0 0 0 0 .05v.12a1.07 1.07 0 01-.25.34 2.52 2.52 0 00-.25.21s0 .11-.2 0v.05c0-.04-.07 0 0 .08s0 .08-.06.05-.09 0-.07 0c.02 0 .05.21-.09.15s0 0 0 .06h-.09c-.01 0 0 0 0 .07s-.05 0-.07 0c-.02 0 0 0 0 .06s-.14 0-.06.12c-.14-.09-.06.07-.1.1-.04.03 0 .06-.05 0s-.08 0-.1 0l-.15.1c-.07.07-.17.09-.18.22-.01.13 0 .17-.07.07s-.18 0-.17.18c.01.18 0 0-.05 0s0 0 0 .1 0 .05 0 0-.1-.06-.12-.05l-.19.09-.19.13-.12.17c.05.2 0 .21-.08.24s-.17.08-.24.16c-.07.08-.05.05-.13-.06v.11a.18.18 0 01-.14-.07c-.08-.09-.12-.08-.1.09-.06 0-.15-.14-.15 0v.07c0-.06 0 0-.06 0s-.06-.07-.06 0 0 0-.06 0a1.36 1.36 0 00-.35 0 .82.82 0 01-.3.07s-.1 0-.16.1c0-.07-.07.19-.1 0 0 0-.15.11-.23.12h-.08v.09a.86.86 0 00.5 0v-.08c0 .06 0 0 .06 0s.11.08.15-.06c.04-.14 0-.11.1 0s0 .09.06 0c0-.23.09-.13.14-.16.05-.03.09-.09.18.11h.18l.25-.07s.06 0 .11.07 0-.13 0-.11c0 .02 0 0 .09 0s.16.09.21.05a.18.18 0 01.1 0c.1 0 .19 0 .2-.2.01-.2 0 0 0 0a.16.16 0 00.12 0s0-.05.08-.07c-.08-.19.07 0 .05-.12-.02-.12 0-.13 0-.15l.19-.1h.07l.08-.05s0-.05.09 0 0-.11 0-.1c0 .01 0 0 .08 0h.11c-.02 0 .05 0 0-.11s.11 0 .14 0c.03 0 .08 0 .07-.08-.01-.08 0-.13.07-.06s0-.11 0-.07c0 .04.1 0 .1-.06s.11 0 0-.13h.08v-.08c0-.08.08 0 .11 0s0 0 0-.12 0-.08.06-.05.23.07.11-.13c-.12-.2 0 0 0 0s.11.06.13 0a2 2 0 00.25-.25v-.15c0-.1 0 0 0 0h.06.06c.06 0 0-.08.09 0 0 0-.06-.12 0-.14.06-.02.11 0 .15 0 .04 0 0 0 0 0s-.08-.13 0-.06l.08-.05h.07a.48.48 0 01.12 0c-.08-.13.13 0 0-.13s0-.06.1 0 .06 0 0 0 0-.13 0-.16l.08-.13c0-.05.08-.08.19-.05s0-.05-.09-.13 0-.06 0-.05c.2.12.13 0 .21 0h.25a2.92 2.92 0 01.28-.21h.14c.14 0 0 0 0 0s0-.08.05-.05a.11.11 0 00.11 0l.2-.16a.24.24 0 00.08-.06h.14c.04 0 0-.11 0-.15 0-.04 0-.06.18 0s.07 0 .08 0l.15-.15v-.07-.17c0-.02.05 0 .06 0 .01 0 0 0 .12.05s0-.05 0 0 .18.05.16-.1c-.02-.15 0 0 0 0h.2c.03 0 .06-.08.14 0 .08.08.07 0 .16 0 0-.08.06 0 0-.06s0-.12.09 0c0 0 0-.07 0 0 .15.18.15.08.21.08s.06-.05.1 0c.04.05.07-.06.17.07 0-.15 0-.12.06-.14.06-.02 0 0 .1.06s.1.07.09 0c-.01-.07 0-.17.08-.17a.5.5 0 00.13 0c.06 0 .13 0 .16-.09s0-.12.09 0 .07 0 .09 0c.02 0 0 0 0-.11s.09.13.11.09c.02-.04 0 0 .08 0s0-.07 0-.09c0-.02 0-.1 0 0s.12 0 .18.06.07 0 .08-.17c.01-.17 0 0 0 .05s0 .06 0 0v-.07c0 .04.09.16.12 0 0 0 .12-.1.18 0s0 0 .07-.09.05 0 .08 0 0 0 0 .06c0 0 0-.08.05 0s0 .12.07.09.08-.11.1 0c.02.11 0 .07.09 0 0-.1.06-.09.06 0s0 .08 0 0 0-.05 0 0 0 .06.05.1c.05.04.06 0 .09 0s.06 0 .12-.09.1-.06.09.06c-.01.12 0 .06 0 0s.09-.06.06.06 0 .08 0 .09c0 .01 0 .21.22.05 0 .09.05 0 .12 0 .07 0 0 0 0 0s0 .14.07.05c.07-.09.12 0 .08 0a.29.29 0 000 .23s.07 0 .16-.12.52-.3.58-.36zM69.02 14.29l-.01-.01.01.01.01.01zM69.28 14.48c.14.1.24.16.26.15l.1-.09v-.18c0-.09-.06-.21.1-.16.16.05 0 0 0 0v-.06c0 .05.12 0 .13 0 .01 0 .12-.05 0-.21.06 0 0-.06.06-.05.06.01.16-.07.22-.12.06-.05.06-.08 0-.22s0-.11.08-.05.16.06.18 0l.07-.09a1.53 1.53 0 01.18-.18c.07 0 .11-.14.29 0l.08-.06s0-.07.08-.07-.05-.17 0-.12c.05.05.06 0 .07-.09.01-.09.05 0 0 0 .15.1.07-.12.19-.05.12.07.06 0 .05-.07-.01-.07 0-.15.1-.08.1.07.06 0 .06 0a1 1 0 000-.29c0-.07 0 0 .11.08s.07.09.07.08c0-.01.15 0 .18-.07s.11-.07.17-.1l.2-.17v-.14c0-.03.09.07.12.07a.59.59 0 00.2-.06 1.43 1.43 0 00.24-.19h.26c.05 0 0-.05 0-.11s0-.07.05 0 .07.05.06-.06a.33.33 0 010-.14c0-.06.1.2.11.18.01-.02.18.12.17-.1 0 .08.08.09.08 0s0-.19.13-.05.05 0 .06 0l.61-.19h.14l.15-.05H75.13c.08.22.09-.09.15 0s.06 0 .09.05 0 0 .06 0 0-.06 0 0 .15.11.22.1a7.33 7.33 0 011.15-.05h.17a.28.28 0 00.18 0c.07 0 .1.11.15.13v-.07a.52.52 0 000-.11c0-.32 0-.44-.08-.42a1 1 0 01-.38 0h-.15c-.06 0-.12.05-.16-.12h-.1s0 .09-.05.08c-.05-.01-.26.12-.39-.14h-.34a.26.26 0 01-.15 0 2.46 2.46 0 00-.28 0c-.07 0-.14.07-.23-.06 0 0-.05.1-.09.06-.04-.04-.06 0-.09.05s-.1.17-.2-.05c0 0-.09-.12-.09 0s-.09 0-.13 0c-.04 0 0 0 0 0s-.07.25-.17.06c0 0-.09 0-.11.06-.02.06-.09-.05-.13 0a.5.5 0 01-.36.09v.11c0 .04 0 .07 0 0s-.11-.07-.15 0c-.04.07-.11.13-.25-.05s0 0-.05 0-.23 0-.26.22c-.07-.08 0 .16-.13 0h-.08c-.01 0 0 .08-.07 0a.06.06 0 00-.08 0l-.36.19s-.1 0-.06.21c-.07-.09 0 .06-.07 0l-.22-.15c-.06 0-.11 0-.09.08.02.08 0 .18-.12.11-.12-.07 0 0 0 0s0 .1-.09 0 0 .08-.09 0 0 .12-.08.06a.07.07 0 00-.1 0l-.35.28v.12c0 .12 0 .05 0 0s-.14-.05-.16 0c-.02.05-.12 0-.09.17s-.16 0-.17.05c-.01.05-.11.16-.27.12-.16-.04.09.14.1.17.01.03-.05 0-.08 0s-.13-.06-.14 0c-.01.06-.06 0-.12 0a.48.48 0 000 .12s-.16.09-.19.18 0 .09 0 .06-.11 0-.14 0l-.08.08v.14c0 .05-.15 0-.11 0 .04 0 0 .11-.05.07-.05-.04 0 0-.07 0s-.18.23-.26.35c-.08.12 0 0 0 .1v.05s-.2.11-.16.27a.71.71 0 00.12.11 1.72 1.72 0 01.23.23zM66.63 22.04a3.57 3.57 0 00.25-.38l.09-.16a.17.17 0 000-.24c.16 0 .14-.07.17-.12a.19.19 0 000-.18c0-.06-.07-.13.08-.1.15.03.14-.18 0-.35-.14-.17 0 0 .05 0s.06 0 .06-.07-.08-.08-.07-.1c.01-.02.1 0 .12 0a.16.16 0 00.06-.09s0-.07.11-.08c-.12-.08 0-.07 0-.11 0-.04-.07-.09-.09-.13-.02-.04 0 0 0 0 .2 0 .26-.13.07-.28v-.07-.06s.14 0 .12-.06c-.02-.06-.11-.08 0-.09.11-.01-.07-.06 0-.07.07-.01 0-.07 0-.09v-.06c0-.06.12-.13.13-.2.01-.07 0-.1 0-.15l.09-.46v-.07c0-.07-.06-.1 0-.13s.14-.11 0-.22c0 0 .07-.05 0-.09a.44.44 0 00-.18-.06h-.11l-.09-.05a1.43 1.43 0 00.57 0c.06 0 .06-.05-.2-.14-.1 0 0 0-.05-.06l-.25-.11h.1l.22.06h.24c-.01 0-.07-.06-.19-.12s-.22-.12-.08-.11h.28c-.07 0-.11-.09-.08-.11.03-.02 0 0 .08 0s0 0-.1-.1-.13-.07-.08-.07.11 0 0 0 .08 0 0-.09.05 0 .07 0c.02 0 .08 0 .06-.06v-.07a.76.76 0 00-.23-.13 1.34 1.34 0 00-.37-.13c-.15 0-.25 0-.16.09-.08 0 .08.09 0 .1-.08.01 0 .06-.09.07-.09.01-.1 0 0 .13s.06.08 0 .09h-.14a.53.53 0 00-.08.17v.06c0 .06.12.12 0 .12s-.07 0-.07.05v.1a.59.59 0 00.08.11s-.06 0-.09.06c0 0-.05.07 0 .13-.19 0-.13.13 0 .23s0 0 0 .08c-.15 0 0 .05-.08.06-.08.01-.11.06-.11.1 0 .04 0 .37-.06.55-.06.18 0 .07-.06.07s0 .07-.08.08c-.08.01.08.06 0 .07-.08.01-.06 0-.09.06s0 0 .19.1.17.08.08.08c-.09 0-.14 0-.09.06.05.06.06.07 0 .09-.06.02-.09.1-.15.14-.06.04-.18 0-.11.06.07.06 0 .06 0 .11s.13.16 0 .19 0 0 .16.11h-.18c-.05 0 .06.06.05.08a.22.22 0 000 .14c0 .06-.3 0-.1.13h-.14c-.02 0-.09.08 0 .17.09.09-.16 0-.1.12a1.21 1.21 0 00.1.14c.06.06.06.1-.05.08-.11-.02-.14 0-.12.07.02.07.1.09.09.1-.01.01-.1 0-.14 0-.04 0 0 0 0 .1s.06.05 0 .05 0 .06 0 .11.11.19-.09.13 0 .1-.1.1a.27.27 0 01.09.15h-.18c.03 0 0 .07-.06 0a.58.58 0 00-.16 0l.07.1c.07.1.25.25.43.41.18.16.67-.11.69-.14zM68.48 16.37a.87.87 0 00-.22-.24s-.08-.08 0-.06c.08.02.19 0 .06-.07 0 0 .12 0 0-.07s.06 0 .16 0 .07 0 0 0-.15-.1 0-.07h.12c-.21-.13-.18-.13 0 0 0 0 .05 0 0-.07s-.12-.16.06-.11.07 0 .08 0a.24.24 0 01.23-.05s-.08-.13-.06-.16a.74.74 0 000-.14s0-.06.14 0 0 0 0-.08-.13-.14 0-.1l.18.06v-.09c0-.09-.21-.18-.05-.09.16.09.08 0 .17 0 .09 0 0-.08.05-.08s0-.06-.06-.11l-.2-.26s-.09-.08-.14-.13a1.22 1.22 0 00-.25-.07.52.52 0 00-.2.06.33.33 0 00-.13.13 1 1 0 000 .18c.09.09 0 .05-.06.06-.06.01 0 0 .18.14l.07.06-.33-.26v.09a.44.44 0 00.13.1.55.55 0 01.17.11s-.32-.16-.22 0c-.06 0-.08 0 0 .13s0 0-.1 0-.25-.06-.16 0 0 .09 0 .13c0 .04-.07.12 0 .21s0 .09-.07.1c-.07.01 0 .05.05.1s0 0-.08 0c-.23-.09-.21 0-.23 0-.02 0 .05.08.2.16.15.08.1.06 0 0s-.29-.07-.18 0c.11.07 0 0 0 0l.11.09.4.2.21.09c-.11.1-.03.12-.03.11z"/></g></g></svg>