<svg xmlns="http://www.w3.org/2000/svg" viewBox="0 0 81 81"><defs><style>.cls-1{fill:#009e8d;}.cls-1,.cls-3{stroke:#3d1247;}.cls-1,.cls-2,.cls-5{stroke-linecap:round;stroke-linejoin:round;}.cls-2{fill:#cb3974;}.cls-2,.cls-5{stroke:#371447;}.cls-3{fill:#fff7f0;stroke-miterlimit:10;}.cls-4{fill:#371447;}.cls-5{fill:#8a3575;}</style></defs><g id="Layer_2" data-name="Layer 2"><g id="Layer_1-2" data-name="Layer 1"><path class="cls-1" d="M70.59,54.42l4.7,4.21L72.93,59l7.53,4.74,0,0-3.4-4.28,2.16-.86-4.1-3.68,3-1.76-9.85-4.94,0,0,4.31,5.42Z"/><path class="cls-1" d="M72.54,27.82l-4.31,5.43,0,0,9.85-4.95-3-1.75,4.1-3.69-2.16-.85,3.4-4.28,0-.05-7.53,4.74,2.36.38-4.7,4.2Z"/><path class="cls-1" d="M10.41,27.05l-4.7-4.2,2.36-.38L.54,17.73l0,.05,3.4,4.28-2.16.85,4.1,3.69-3,1.75,9.85,4.95,0,0L8.46,27.82Z"/><path class="cls-1" d="M8.46,53.65l4.31-5.42,0,0L2.87,53.12l3,1.76-4.1,3.68,2.16.86L.5,63.7l0,0L8.07,59l-2.36-.37,4.7-4.21Z"/><rect class="cls-2" x="23.48" y="0.5" width="40.23" height="80" rx="8.49"/><rect class="cls-3" x="19.27" y="0.5" width="40.23" height="80" rx="8.49"/><path class="cls-4" d="M19.27,9.2v1.55H59.5V9.2A8.5,8.5,0,0,0,51.22.5H27.55A8.5,8.5,0,0,0,19.27,9.2Z"/><path class="cls-4" d="M59.5,71.61V70.06H19.27v1.55a8.5,8.5,0,0,0,8.28,8.7H51.22A8.5,8.5,0,0,0,59.5,71.61Z"/><path class="cls-1" d="M51.41,24.1V36.71a3.17,3.17,0,0,1-3,3.29H21.47l5.89-4.07V24.1a3.15,3.15,0,0,1,3-3.28h18A3.16,3.16,0,0,1,51.41,24.1Z"/><path class="cls-5" d="M27.36,47.31v6.56a3.16,3.16,0,0,0,3,3.29H57.3l-5.89-4.07V47.31a3.16,3.16,0,0,0-3-3.28h-18A3.15,3.15,0,0,0,27.36,47.31Z"/><line class="cls-5" x1="30.94" y1="25.86" x2="47.2" y2="25.86"/><line class="cls-5" x1="30.94" y1="29.9" x2="47.2" y2="29.9"/><line class="cls-5" x1="30.94" y1="33.94" x2="47.2" y2="33.94"/><line class="cls-5" x1="30.94" y1="49.08" x2="47.2" y2="49.08"/><line class="cls-5" x1="30.94" y1="53.12" x2="47.2" y2="53.12"/></g></g></svg>