<svg width="56" height="46" viewBox="0 0 56 46" fill="none" xmlns="http://www.w3.org/2000/svg">
<ellipse cx="28.173" cy="20.2537" rx="20.5211" ry="20.2537" fill="url(#paint0_linear_870_5010)"/>
<path fill-rule="evenodd" clip-rule="evenodd" d="M25.7588 22.0256L28.173 14.2577L30.7804 22.0256H25.7588ZM34.3535 21.1201H35.6331C35.8551 21.108 36.064 21.0122 36.2167 20.8527C36.3693 20.6931 36.4543 20.4818 36.4539 20.2623C36.454 20.1445 36.4301 20.0279 36.3837 19.9194C36.3373 19.8108 36.2693 19.7125 36.1838 19.6304C36.0983 19.5482 35.9969 19.4837 35.8858 19.4409C35.7746 19.398 35.6558 19.3775 35.5365 19.3807H33.6534L33.3154 18.4753H35.4158C35.6305 18.4405 35.8258 18.3316 35.9666 18.1679C36.1075 18.0042 36.1849 17.7965 36.1849 17.5817C36.1849 17.3669 36.1075 17.1592 35.9666 16.9955C35.8258 16.8318 35.6305 16.7229 35.4158 16.6882H32.6635L31.0943 12.3276C30.8745 11.7075 30.4912 11.1564 29.9837 10.7312C29.7388 10.5156 29.4519 10.3517 29.1405 10.2492C28.8292 10.1468 28.5 10.1081 28.173 10.1355C27.5491 10.1329 26.9435 10.3434 26.4589 10.7312C25.9641 11.1675 25.5832 11.7151 25.3484 12.3276L23.7308 16.6882H20.9303C20.8141 16.6881 20.699 16.7111 20.592 16.7557C20.4849 16.8002 20.388 16.8656 20.307 16.9478C20.226 17.03 20.1625 17.1274 20.1202 17.2342C20.078 17.341 20.0579 17.4552 20.0611 17.5698C20.0669 17.7978 20.1596 18.0152 20.3207 18.1786C20.4819 18.3421 20.6995 18.4395 20.9303 18.4514H23.1031L22.7651 19.3331H20.9303C20.8001 19.3145 20.6673 19.3253 20.542 19.3647C20.4167 19.404 20.302 19.471 20.2067 19.5605C20.1114 19.65 20.0379 19.7596 19.9918 19.8812C19.9457 20.0028 19.9281 20.1331 19.9404 20.2623C19.9463 20.3825 19.977 20.5003 20.0307 20.6083C20.0844 20.7163 20.16 20.8124 20.2527 20.8905C20.3454 20.9686 20.4534 21.0272 20.5699 21.0626C20.6864 21.098 20.8091 21.1095 20.9303 21.0963H22.2098L19.9404 26.9342C19.8134 27.2622 19.7401 27.608 19.7231 27.9588C19.743 28.4567 19.9597 28.9271 20.3267 29.2693C20.7086 29.614 21.2095 29.8015 21.727 29.7935C22.1656 29.8072 22.5958 29.6731 22.9469 29.4132C23.298 29.1534 23.5489 28.7832 23.6584 28.3638L24.4792 25.981H32.0358L32.8567 28.5068C32.9769 28.9193 33.2363 29.2789 33.592 29.5259C33.9477 29.773 34.3782 29.8926 34.8122 29.865C35.1345 29.8711 35.4521 29.7886 35.7296 29.6267C35.9761 29.4431 36.1955 29.2266 36.3815 28.9834C36.5544 28.6957 36.6383 28.3644 36.6229 28.0302C36.5737 27.6901 36.4929 27.355 36.3815 27.0295L34.3052 21.2155L34.3535 21.1201Z" fill="white"/>
<path fill-rule="evenodd" clip-rule="evenodd" d="M28.1731 3.57422C24.8306 3.57422 21.5632 4.55245 18.7841 6.38523C16.0049 8.218 13.8388 10.823 12.5597 13.8708C11.2806 16.9186 10.9459 20.2723 11.598 23.5078C12.2501 26.7433 13.8596 29.7153 16.2231 32.048C18.5866 34.3807 21.5978 35.9692 24.8761 36.6128C28.1543 37.2564 31.5523 36.9261 34.6403 35.6636C37.7284 34.4012 40.3677 32.2634 42.2247 29.5204C44.0817 26.7775 45.0728 23.5527 45.0728 20.2538C45.0728 15.8301 43.2923 11.5876 40.123 8.45954C36.9537 5.33152 32.6552 3.57422 28.1731 3.57422ZM28.1731 38.1247C24.5919 38.1247 21.0911 37.0766 18.1134 35.1129C15.1357 33.1492 12.8149 30.3582 11.4445 27.0927C10.074 23.8272 9.71543 20.2339 10.4141 16.7673C11.1127 13.3007 12.8373 10.1164 15.3696 7.6171C17.9019 5.1178 21.1282 3.41576 24.6406 2.72621C28.153 2.03665 31.7937 2.39056 35.1023 3.74316C38.4109 5.09577 41.2388 7.38634 43.2284 10.3252C45.218 13.2641 46.28 16.7192 46.28 20.2538C46.28 24.9934 44.3723 29.539 40.9766 32.8904C37.5809 36.2419 32.9753 38.1247 28.1731 38.1247Z" fill="white"/>
<ellipse cx="7.30414" cy="16.821" rx="7.30414" ry="7.20895" fill="url(#paint1_linear_870_5010)"/>
<path fill-rule="evenodd" clip-rule="evenodd" d="M6.44491 17.4517L7.30422 14.6868L8.23227 17.4517H6.44491ZM9.50405 17.1294H9.95949C10.0385 17.125 10.1129 17.091 10.1672 17.0342C10.2216 16.9774 10.2518 16.9022 10.2517 16.8241C10.2517 16.7821 10.2432 16.7406 10.2267 16.702C10.2101 16.6634 10.186 16.6284 10.1555 16.5991C10.1251 16.5699 10.089 16.5469 10.0494 16.5317C10.0099 16.5164 9.96758 16.5091 9.92511 16.5103H9.25485L9.13455 16.188H9.88215C9.95858 16.1756 10.0281 16.1369 10.0782 16.0786C10.1284 16.0203 10.1559 15.9464 10.1559 15.8699C10.1559 15.7935 10.1284 15.7195 10.0782 15.6613C10.0281 15.603 9.95858 15.5643 9.88215 15.5519H8.90253L8.34398 13.9999C8.26578 13.7791 8.12932 13.583 7.9487 13.4316C7.86152 13.3549 7.7594 13.2965 7.64859 13.2601C7.53778 13.2236 7.4206 13.2098 7.30422 13.2196C7.08215 13.2187 6.8666 13.2936 6.69411 13.4316C6.51799 13.5869 6.3824 13.7818 6.29882 13.9999L5.72309 15.5519H4.72629C4.68493 15.5519 4.64399 15.5601 4.60588 15.5759C4.56778 15.5918 4.53329 15.615 4.50445 15.6443C4.47561 15.6736 4.453 15.7082 4.43797 15.7463C4.42294 15.7843 4.41579 15.8249 4.41693 15.8657C4.41899 15.9468 4.45198 16.0242 4.50933 16.0824C4.56668 16.1406 4.64416 16.1753 4.72629 16.1795H5.49967L5.37936 16.4933H4.72629C4.67995 16.4867 4.6327 16.4905 4.58809 16.5045C4.54348 16.5186 4.50267 16.5424 4.46875 16.5742C4.43483 16.6061 4.40867 16.6451 4.39225 16.6884C4.37584 16.7317 4.36958 16.7781 4.37397 16.8241C4.37605 16.8668 4.38699 16.9088 4.40611 16.9472C4.42522 16.9857 4.45211 17.0198 4.48512 17.0476C4.51812 17.0755 4.55655 17.0963 4.59802 17.1089C4.6395 17.1215 4.68315 17.1256 4.72629 17.1209H5.18172L4.37397 19.1988C4.32877 19.3155 4.30266 19.4386 4.29663 19.5635C4.30371 19.7407 4.38083 19.9081 4.51146 20.0299C4.64739 20.1526 4.82569 20.2194 5.00986 20.2165C5.16597 20.2214 5.31911 20.1736 5.44407 20.0812C5.56902 19.9887 5.65834 19.8569 5.69731 19.7076L5.98947 18.8595H8.67911L8.97128 19.7585C9.01407 19.9054 9.10641 20.0333 9.23301 20.1213C9.3596 20.2092 9.51284 20.2518 9.66732 20.242C9.78203 20.2441 9.89508 20.2148 9.99386 20.1571C10.0816 20.0918 10.1597 20.0147 10.2259 19.9282C10.2874 19.8258 10.3173 19.7078 10.3118 19.5889C10.2943 19.4678 10.2655 19.3486 10.2259 19.2327L9.48687 17.1633L9.50405 17.1294Z" fill="white"/>
<path fill-rule="evenodd" clip-rule="evenodd" d="M7.30421 10.8843C6.11452 10.8843 4.95154 11.2325 3.96235 11.8848C2.97316 12.5371 2.20218 13.4643 1.74691 14.5491C1.29164 15.6339 1.17252 16.8276 1.40461 17.9793C1.63671 19.1309 2.2096 20.1887 3.05084 21.019C3.89207 21.8493 4.96387 22.4147 6.1307 22.6438C7.29753 22.8728 8.50698 22.7553 9.60611 22.3059C10.7052 21.8566 11.6447 21.0957 12.3056 20.1194C12.9666 19.1431 13.3194 17.9952 13.3194 16.8211C13.3194 15.2465 12.6856 13.7365 11.5576 12.6231C10.4295 11.5097 8.89953 10.8843 7.30421 10.8843ZM7.30421 23.1819C6.02954 23.1819 4.7835 22.8088 3.72365 22.1099C2.6638 21.411 1.83775 20.4175 1.34996 19.2552C0.862168 18.0929 0.734538 16.814 0.983213 15.5801C1.23189 14.3462 1.8457 13.2128 2.74702 12.3233C3.64835 11.4337 4.79671 10.8279 6.04688 10.5824C7.29706 10.337 8.5929 10.463 9.77053 10.9444C10.9482 11.4258 11.9547 12.2411 12.6629 13.2872C13.3711 14.3332 13.749 15.563 13.749 16.8211C13.749 18.5081 13.07 20.126 11.8614 21.3188C10.6527 22.5117 9.01348 23.1819 7.30421 23.1819Z" fill="white"/>
<ellipse cx="37.2163" cy="36.0448" rx="10.0867" ry="9.95522" fill="url(#paint2_linear_870_5010)"/>
<path fill-rule="evenodd" clip-rule="evenodd" d="M36.0297 36.9156L37.2163 33.0975L38.4979 36.9156H36.0297ZM40.2542 36.4706H40.8831C40.9923 36.4646 41.0949 36.4175 41.17 36.3391C41.245 36.2607 41.2868 36.1568 41.2866 36.0489C41.2866 35.991 41.2749 35.9337 41.2521 35.8804C41.2293 35.827 41.1959 35.7787 41.1538 35.7383C41.1118 35.6979 41.062 35.6662 41.0073 35.6452C40.9527 35.6241 40.8943 35.614 40.8357 35.6156H39.9101L39.7439 35.1705H40.7763C40.8819 35.1535 40.9778 35.0999 41.0471 35.0195C41.1163 34.939 41.1543 34.8369 41.1543 34.7313C41.1543 34.6258 41.1163 34.5237 41.0471 34.4432C40.9778 34.3627 40.8819 34.3092 40.7763 34.2921H39.4235L38.6522 32.1488C38.5442 31.844 38.3558 31.5731 38.1063 31.3641C37.9859 31.2582 37.8449 31.1776 37.6919 31.1272C37.5389 31.0769 37.377 31.0579 37.2163 31.0713C36.9097 31.0701 36.612 31.1735 36.3738 31.3641C36.1306 31.5786 35.9433 31.8478 35.8279 32.1488L35.0329 34.2921H33.6563C33.5992 34.2921 33.5427 34.3034 33.4901 34.3253C33.4374 34.3472 33.3898 34.3793 33.35 34.4197C33.3101 34.4601 33.2789 34.508 33.2582 34.5605C33.2374 34.613 33.2275 34.6691 33.2291 34.7255C33.232 34.8375 33.2775 34.9444 33.3567 35.0247C33.4359 35.1051 33.5429 35.153 33.6563 35.1588H34.7243L34.5582 35.5922H33.6563C33.5923 35.583 33.5271 35.5883 33.4655 35.6077C33.4039 35.6271 33.3475 35.66 33.3007 35.704C33.2538 35.7479 33.2177 35.8018 33.195 35.8616C33.1724 35.9214 33.1637 35.9854 33.1698 36.0489C33.1727 36.108 33.1878 36.1659 33.2142 36.219C33.2406 36.2721 33.2777 36.3193 33.3233 36.3577C33.3689 36.3961 33.4219 36.4249 33.4792 36.4423C33.5365 36.4597 33.5968 36.4653 33.6563 36.4589H34.2853L33.1698 39.3283C33.1074 39.4895 33.0713 39.6595 33.063 39.8319C33.0728 40.0767 33.1793 40.3079 33.3597 40.4761C33.5474 40.6455 33.7936 40.7377 34.0479 40.7338C34.2635 40.7405 34.475 40.6746 34.6475 40.5468C34.8201 40.4191 34.9434 40.2372 34.9973 40.031L35.4007 38.8598H39.115L39.5185 40.1013C39.5775 40.3041 39.7051 40.4808 39.8799 40.6022C40.0547 40.7236 40.2663 40.7824 40.4797 40.7689C40.6381 40.7719 40.7942 40.7313 40.9306 40.6518C41.0517 40.5615 41.1596 40.4551 41.251 40.3355C41.336 40.1941 41.3772 40.0313 41.3697 39.8671C41.3455 39.6998 41.3058 39.5352 41.251 39.3752L40.2305 36.5174L40.2542 36.4706Z" fill="white"/>
<path fill-rule="evenodd" clip-rule="evenodd" d="M37.2164 27.8463C35.5735 27.8463 33.9675 28.3272 32.6015 29.228C31.2354 30.1289 30.1708 31.4093 29.5421 32.9074C28.9133 34.4054 28.7488 36.0539 29.0694 37.6442C29.3899 39.2345 30.181 40.6954 31.3427 41.8419C32.5044 42.9885 33.9845 43.7693 35.5959 44.0857C37.2072 44.402 38.8774 44.2396 40.3952 43.6191C41.9131 42.9986 43.2104 41.9478 44.1232 40.5996C45.0359 39.2513 45.5231 37.6663 45.5231 36.0448C45.5231 33.8704 44.6479 31.7851 43.0901 30.2476C41.5323 28.7101 39.4195 27.8463 37.2164 27.8463ZM37.2164 44.8288C35.4562 44.8288 33.7354 44.3136 32.2718 43.3484C30.8082 42.3832 29.6675 41.0113 28.9939 39.4063C28.3203 37.8012 28.144 36.035 28.4874 34.3311C28.8308 32.6272 29.6785 31.062 30.9232 29.8335C32.1678 28.6051 33.7537 27.7685 35.4801 27.4295C37.2065 27.0906 38.996 27.2645 40.6223 27.9294C42.2486 28.5942 43.6385 29.7201 44.6165 31.1646C45.5944 32.6092 46.1164 34.3075 46.1164 36.0448C46.1164 38.3744 45.1787 40.6087 43.5097 42.256C41.8406 43.9033 39.5768 44.8288 37.2164 44.8288Z" fill="white"/>
<path opacity="0.45" d="M13.1499 36.772L10.7639 38.049C10.6741 38.0909 10.6007 38.1609 10.5552 38.2481L9.24743 40.5756C9.18143 40.6925 9.07135 40.779 8.94109 40.8163C8.81084 40.8536 8.67094 40.8386 8.5518 40.7747C8.46539 40.7304 8.39494 40.6608 8.35006 40.5756L7.03532 38.2481C6.98982 38.1609 6.91647 38.0909 6.82663 38.049L4.44061 36.772C4.38127 36.7404 4.32889 36.6974 4.28654 36.6457C4.24419 36.5939 4.2127 36.5343 4.19392 36.4704C4.17514 36.4065 4.16945 36.3395 4.17717 36.2734C4.18489 36.2073 4.20586 36.1434 4.23888 36.0854C4.28334 35.9981 4.35372 35.9262 4.44061 35.8794L6.82663 34.6093C6.91557 34.5629 6.9883 34.4911 7.03532 34.4033L8.34311 32.0758C8.4091 31.9589 8.51919 31.8724 8.64944 31.8351C8.7797 31.7978 8.9196 31.8128 9.03874 31.8767C9.12514 31.921 9.19559 31.9906 9.24047 32.0758L10.5483 34.4033C10.5953 34.4911 10.668 34.5629 10.757 34.6093L13.143 35.8794C13.2615 35.9445 13.3491 36.0532 13.3869 36.1818C13.4246 36.3103 13.4095 36.4484 13.3447 36.566C13.2982 36.6519 13.2284 36.7232 13.143 36.772H13.1499ZM42.0298 8.75482L38.8925 7.07959C38.782 7.02472 38.6884 6.94177 38.6212 6.83929L36.903 3.74974C36.8125 3.59518 36.6645 3.48149 36.4905 3.43279C36.3165 3.38408 36.1301 3.40419 35.9708 3.48885C35.8602 3.55038 35.7688 3.6406 35.7065 3.74974L33.9883 6.83929C33.924 6.94935 33.8301 7.03967 33.717 7.10019L30.5797 8.75482C30.426 8.84164 30.3117 8.98301 30.26 9.15012C30.2083 9.31723 30.2231 9.4975 30.3014 9.65422C30.3665 9.76775 30.463 9.86063 30.5797 9.92198L33.717 11.5972C33.831 11.6596 33.9251 11.7524 33.9883 11.865L35.7065 14.9271C35.7981 15.0804 35.9466 15.1927 36.1205 15.2401C36.2944 15.2875 36.4802 15.2663 36.6386 15.1811C36.7483 15.1214 36.8396 15.0337 36.903 14.9271L38.6212 11.865C38.6817 11.7504 38.7764 11.657 38.8925 11.5972L42.0298 9.92198C42.1822 9.83403 42.295 9.69218 42.3454 9.52516C42.3958 9.35815 42.3799 9.17848 42.3011 9.02258C42.2379 8.90999 42.1438 8.8172 42.0298 8.75482ZM55.8126 26.833L54.1849 25.968C54.1252 25.9351 54.0749 25.8879 54.0388 25.8306L53.1484 24.2378C53.1265 24.1972 53.0967 24.1612 53.0605 24.1322C53.0243 24.1032 52.9826 24.0816 52.9378 24.0688C52.8931 24.056 52.8461 24.0522 52.7999 24.0576C52.7536 24.0631 52.7089 24.0777 52.6684 24.1005C52.6062 24.1275 52.5566 24.1765 52.5293 24.2378L51.6319 25.8306C51.6005 25.8892 51.5521 25.937 51.4928 25.968L49.858 26.833C49.778 26.8778 49.7188 26.9516 49.6929 27.0387C49.6669 27.1258 49.6762 27.2194 49.7189 27.2999C49.7522 27.3588 49.8 27.4084 49.858 27.444L51.4928 28.316C51.5549 28.3429 51.6046 28.3919 51.6319 28.4533L52.5293 30.0461C52.5772 30.1261 52.6549 30.1846 52.7459 30.2089C52.8368 30.2333 52.9338 30.2217 53.0162 30.1765C53.0715 30.1458 53.1172 30.1006 53.1484 30.0461L54.0388 28.4533C54.0708 28.3928 54.1221 28.3446 54.1849 28.316L55.8126 27.4715C55.8535 27.4505 55.8897 27.4218 55.9193 27.3869C55.9488 27.352 55.971 27.3116 55.9846 27.2682C55.9981 27.2248 56.0029 27.1791 55.9984 27.1339C55.994 27.0886 55.9805 27.0447 55.9587 27.0046C55.9295 26.9337 55.8784 26.8736 55.8126 26.833Z" fill="white"/>
<defs>
<linearGradient id="paint0_linear_870_5010" x1="9.41081" y1="2.43045" x2="56.0032" y2="26.1509" gradientUnits="userSpaceOnUse">
<stop stop-color="#FE9150"/>
<stop offset="0.192708" stop-color="#FE855D"/>
<stop offset="0.760417" stop-color="#FF578C"/>
</linearGradient>
<linearGradient id="paint1_linear_870_5010" x1="0.626069" y1="10.4771" x2="17.2098" y2="18.92" gradientUnits="userSpaceOnUse">
<stop stop-color="#FE9150"/>
<stop offset="0.192708" stop-color="#FE855D"/>
<stop offset="0.760417" stop-color="#FF578C"/>
</linearGradient>
<linearGradient id="paint2_linear_870_5010" x1="27.9942" y1="27.2842" x2="50.8955" y2="38.9434" gradientUnits="userSpaceOnUse">
<stop stop-color="#FE9150"/>
<stop offset="0.192708" stop-color="#FE855D"/>
<stop offset="0.760417" stop-color="#FF578C"/>
</linearGradient>
</defs>
</svg>
