<svg width="24" height="24" viewBox="0 0 24 24" fill="none" xmlns="http://www.w3.org/2000/svg">
<path d="M21.5801 16.09L20.4901 8.42996C20.352 7.47068 19.8704 6.59414 19.1347 5.96327C18.3989 5.33239 17.4592 4.99008 16.4901 4.99996H7.47007C6.50095 4.99008 5.56121 5.33239 4.82549 5.96327C4.08977 6.59414 3.60813 7.47068 3.47007 8.42996L2.42007 16.09C2.36855 16.4512 2.39517 16.8193 2.49813 17.1694C2.60109 17.5195 2.77798 17.8434 3.01687 18.1193C3.25575 18.3951 3.55106 18.6165 3.88285 18.7684C4.21463 18.9204 4.57516 18.9993 4.94007 19C5.27472 18.9997 5.60601 18.9333 5.91491 18.8046C6.22381 18.6759 6.50424 18.4874 6.74007 18.25L9.00007 16H15.0001L17.2501 18.25C17.727 18.7286 18.3744 18.9983 19.0501 19C19.4158 19.0008 19.7775 18.9229 20.1105 18.7716C20.4435 18.6203 20.74 18.3991 20.98 18.1231C21.22 17.847 21.3978 17.5226 21.5013 17.1718C21.6048 16.821 21.6317 16.4521 21.5801 16.09ZM19.4801 16.81C19.4284 16.8707 19.364 16.9192 19.2914 16.952C19.2187 16.9849 19.1398 17.0013 19.0601 17C18.9877 17.0003 18.9161 16.9863 18.8491 16.9588C18.7822 16.9314 18.7214 16.891 18.6701 16.84L15.8301 14H8.17007L5.33007 16.84C5.27878 16.891 5.21793 16.9314 5.15101 16.9588C5.08409 16.9863 5.01241 17.0003 4.94007 17C4.86038 17.0013 4.78139 16.9849 4.70878 16.952C4.63616 16.9192 4.57172 16.8707 4.52007 16.81C4.46619 16.7514 4.42646 16.6814 4.40392 16.6051C4.38138 16.5288 4.37665 16.4484 4.39007 16.37L5.48007 8.70996C5.54997 8.23295 5.78982 7.79724 6.15547 7.48304C6.52113 7.16883 6.98797 6.99728 7.47007 6.99996H16.5301C17.0154 6.99519 17.4859 7.16704 17.8538 7.4835C18.2218 7.79995 18.4622 8.23941 18.5301 8.71996L19.6201 16.38C19.6292 16.4575 19.6214 16.5361 19.5973 16.6103C19.5731 16.6846 19.5331 16.7527 19.4801 16.81Z" fill="#171717"/>
<path d="M9 8H8V10H6V11H8V13H9V11H11V10H9V8Z" fill="#171717"/>
<path d="M17 13C17.5523 13 18 12.5523 18 12C18 11.4477 17.5523 11 17 11C16.4477 11 16 11.4477 16 12C16 12.5523 16.4477 13 17 13Z" fill="#171717"/>
<path d="M15 10C15.5523 10 16 9.55228 16 9C16 8.44772 15.5523 8 15 8C14.4477 8 14 8.44772 14 9C14 9.55228 14.4477 10 15 10Z" fill="#171717"/>
</svg>
