<svg width="92" height="80" viewBox="0 0 92 80" fill="none" xmlns="http://www.w3.org/2000/svg">
<path d="M43.0002 6.66669L16.3335 16.6667V36.9667C16.3335 53.8 27.7002 69.5 43.0002 73.3334C58.3002 69.5 69.6668 53.8 69.6668 36.9667V16.6667L43.0002 6.66669ZM39.4668 51.8L27.6668 40L32.3668 35.3L39.4335 42.3667L53.5668 28.2334L58.2668 32.9334L39.4668 51.8Z" fill="#25B47E"/>
<path fill-rule="evenodd" clip-rule="evenodd" d="M0 40H3.75V42.5H0V40ZM72 61.75H75.75V64.25H72V61.75Z" fill="#25B47E"/>
<rect x="32" width="6" height="10" transform="rotate(90 32 0)" fill="#25B47E"/>
<g filter="url(#filter0_d_3688_18500)">
<rect x="16" y="61" width="15" height="5" fill="#25B47E"/>
</g>
<g filter="url(#filter1_d_3688_18500)">
<rect x="66" y="28" width="20" height="4" fill="#25B47E"/>
</g>
<rect x="67.5713" y="5.71436" width="2.85714" height="1.42857" fill="#25B47E"/>
<g filter="url(#filter2_d_3688_18500)">
<rect x="6" y="22" width="7" height="3" fill="#25B47E"/>
</g>
<defs>
<filter id="filter0_d_3688_18500" x="10" y="57" width="27" height="17" filterUnits="userSpaceOnUse" color-interpolation-filters="sRGB">
<feFlood flood-opacity="0" result="BackgroundImageFix"/>
<feColorMatrix in="SourceAlpha" type="matrix" values="0 0 0 0 0 0 0 0 0 0 0 0 0 0 0 0 0 0 127 0" result="hardAlpha"/>
<feOffset dy="2"/>
<feGaussianBlur stdDeviation="3"/>
<feColorMatrix type="matrix" values="0 0 0 0 0 0 0 0 0 0 0 0 0 0 0 0 0 0 0.13 0"/>
<feBlend mode="normal" in2="BackgroundImageFix" result="effect1_dropShadow_3688_18500"/>
<feBlend mode="normal" in="SourceGraphic" in2="effect1_dropShadow_3688_18500" result="shape"/>
</filter>
<filter id="filter1_d_3688_18500" x="60" y="24" width="32" height="16" filterUnits="userSpaceOnUse" color-interpolation-filters="sRGB">
<feFlood flood-opacity="0" result="BackgroundImageFix"/>
<feColorMatrix in="SourceAlpha" type="matrix" values="0 0 0 0 0 0 0 0 0 0 0 0 0 0 0 0 0 0 127 0" result="hardAlpha"/>
<feOffset dy="2"/>
<feGaussianBlur stdDeviation="3"/>
<feColorMatrix type="matrix" values="0 0 0 0 0 0 0 0 0 0 0 0 0 0 0 0 0 0 0.13 0"/>
<feBlend mode="normal" in2="BackgroundImageFix" result="effect1_dropShadow_3688_18500"/>
<feBlend mode="normal" in="SourceGraphic" in2="effect1_dropShadow_3688_18500" result="shape"/>
</filter>
<filter id="filter2_d_3688_18500" x="0" y="18" width="19" height="15" filterUnits="userSpaceOnUse" color-interpolation-filters="sRGB">
<feFlood flood-opacity="0" result="BackgroundImageFix"/>
<feColorMatrix in="SourceAlpha" type="matrix" values="0 0 0 0 0 0 0 0 0 0 0 0 0 0 0 0 0 0 127 0" result="hardAlpha"/>
<feOffset dy="2"/>
<feGaussianBlur stdDeviation="3"/>
<feColorMatrix type="matrix" values="0 0 0 0 0 0 0 0 0 0 0 0 0 0 0 0 0 0 0.13 0"/>
<feBlend mode="normal" in2="BackgroundImageFix" result="effect1_dropShadow_3688_18500"/>
<feBlend mode="normal" in="SourceGraphic" in2="effect1_dropShadow_3688_18500" result="shape"/>
</filter>
</defs>
</svg>
