<?xml version="1.0" encoding="iso-8859-1"?>
<!-- Generator: Adobe Illustrator 19.0.0, SVG Export Plug-In . SVG Version: 6.00 Build 0)  -->
<svg version="1.1" id="Capa_1" xmlns="http://www.w3.org/2000/svg" xmlns:xlink="http://www.w3.org/1999/xlink" x="0px" y="0px"
	 viewBox="0 0 490 490" style="enable-background:new 0 0 490 490;" xml:space="preserve">
<g>
	<g>
		<path d="M132.4,123c-11.5,0-20.9,9.4-20.9,20.9v201.2c0,11.5,9.4,20.9,20.9,20.9s20.9-8.3,20.9-20.9V143.9
			C153.3,132.4,143.9,123,132.4,123z"/>
		<path d="M207.5,204.3c-11.5,0-20.9,9.4-20.9,20.9v119.9c0,11.5,9.4,20.9,20.9,20.9s20.9-8.3,20.9-20.9V225.2
			C228.3,213.7,218.9,204.3,207.5,204.3z"/>
		<path d="M282.5,123c-11.5,0-20.9,9.4-20.9,20.9v201.2c0,11.5,9.4,20.9,20.9,20.9s20.9-8.3,20.9-20.9V143.9
			C303.4,132.4,294,123,282.5,123z"/>
		<path d="M357.6,204.3c-11.5,0-20.9,9.4-20.9,20.9v119.9c0,11.5,9.4,20.9,20.9,20.9s20.9-8.3,20.9-20.9V225.2
			C378.4,213.7,369.1,204.3,357.6,204.3z"/>
		<path d="M245,0C109.5,0,0,109.5,0,245s109.5,245,245,245s245-109.5,245-245S380.5,0,245,0z M245,449.3
			c-112.6,0-204.3-91.7-204.3-204.3S132.4,40.7,245,40.7S449.3,132.4,449.3,245S357.6,449.3,245,449.3z"/>
	</g>
</g>
<g>
</g>
<g>
</g>
<g>
</g>
<g>
</g>
<g>
</g>
<g>
</g>
<g>
</g>
<g>
</g>
<g>
</g>
<g>
</g>
<g>
</g>
<g>
</g>
<g>
</g>
<g>
</g>
<g>
</g>
</svg>
