<svg width="48" height="48" fill="none" xmlns="http://www.w3.org/2000/svg"><mask id="a" maskUnits="userSpaceOnUse" x="0" y="0" width="48" height="48"><path d="M3.84 0A3.84 3.84 0 000 3.84v40.32A3.84 3.84 0 003.84 48h40.32A3.84 3.84 0 0048 44.16V3.84A3.84 3.84 0 0044.16 0H3.84z" fill="#fff"/></mask><g mask="url(#a)"><path d="M3.84 0A3.84 3.84 0 000 3.84v40.32A3.84 3.84 0 003.84 48h40.32A3.84 3.84 0 0048 44.16V3.84A3.84 3.84 0 0044.16 0H3.84z" fill="url(#paint0_linear)"/></g><path d="M20.876 28.572c.038-1.273 1.967-1.26 1.967.038a8.33 8.33 0 008.14 8.326.984.984 0 01.008 1.968h-.054a10.298 10.298 0 01-10.06-10.126l-.002-.167v-.04z" fill="#fff"/><path d="M21.866 13.656a14.955 14.955 0 0114.957 14.957 5.643 5.643 0 01-5.64 5.64 5.643 5.643 0 01-5.641-5.55l-.001-.093a3.674 3.674 0 10-7.347-.008 12.97 12.97 0 005.624 10.708.984.984 0 11-1.115 1.622A14.937 14.937 0 0116.226 28.6a5.643 5.643 0 019.635-3.985 5.64 5.64 0 011.648 3.996 3.674 3.674 0 007.346 0 12.986 12.986 0 00-12.99-12.988 12.97 12.97 0 00-10.471 5.296.984.984 0 11-1.587-1.165 14.937 14.937 0 0112.06-6.099z" fill="#fff"/><path d="M21.866 8.986a19.577 19.577 0 0115.25 7.282.984.984 0 11-1.531 1.236 17.61 17.61 0 00-13.719-6.55 17.532 17.532 0 00-5.63.925.984.984 0 01-.63-1.865 19.515 19.515 0 016.26-1.028zm0 9.314c5.69 0 10.301 4.612 10.301 10.3a.984.984 0 01-1.968.027v-.026a8.333 8.333 0 10-16.663 0c0 1.86.294 3.708.87 5.476a.984.984 0 01-1.87.61 19.629 19.629 0 01-.968-6.086c0-5.688 4.61-10.3 10.298-10.301z" fill="#fff"/><defs><linearGradient id="paint0_linear" x1="0" y1="0" x2="48" y2="48" gradientUnits="userSpaceOnUse"><stop stop-color="#00CEFF"/><stop offset=".59" stop-color="#0094E0"/><stop offset="1" stop-color="#006ECC"/></linearGradient></defs></svg>