<svg width="73" height="58" fill="none" xmlns="http://www.w3.org/2000/svg"><path fill-rule="evenodd" clip-rule="evenodd" d="M32.45 16l-1.15-.769-10.063 5.761 1.306.613-17.126 9.831L28.533 44.8 73 19.301 49.807 5.862 32.451 16z" fill="url(#paint0_radial)"/><path d="M51.38 33.148l17.051-9.754m0 8.141l-17.051 9.6M1.075 35.3l23.118 13.208 17.048-9.676m0 8.064l-17.048 9.676L2.384 44.13" stroke="#1E222A" stroke-linecap="round" stroke-linejoin="round"/><path d="M18.127 17.173l23.117 13.364m0 0l9.984-5.76v18.431l-9.984 5.684V30.537zm0 0l-17.129 9.83L1 27.003l17.127-9.831-1.308-.614 10.062-5.76 1.153.768L45.39 1.429l23.193 13.44-17.357 9.907-23.192-13.209" stroke="#1E222A" stroke-linecap="round" stroke-linejoin="round"/><defs><radialGradient id="paint0_radial" cx="0" cy="0" r="1" gradientUnits="userSpaceOnUse" gradientTransform="matrix(0 19.4686 -33.7915 0 39.208 25.33)"><stop stop-color="#C7CDD7" stop-opacity=".35"/><stop offset="1" stop-color="#2B7EE1" stop-opacity=".3"/></radialGradient></defs></svg>