<svg xmlns="http://www.w3.org/2000/svg" width="64" height="64"><g fill="none" fill-rule="evenodd" stroke="#249EFC" stroke-linecap="round" stroke-linejoin="round" stroke-width="1.2"><path d="M1.6 53.75c.601.6 1.434.95 2.5 1.05h56.051c.899-.033 1.699-.4 2.399-1.1.634-.733.984-1.517 1.05-2.35H40.35l-1.149 1.05h-12.5L25.6 51.35H.6v.1c.034.866.367 1.633 1 2.3zM32.651 11.6h-20.75c-3.134 0-4.7 1.583-4.7 4.75V48.4m49.75.45V16c-.067-2.934-1.667-4.4-4.8-4.4H44.8"/><path d="M23.15 26.6c-1.766 4.167-4.116 7.8-7.05 10.9 1.5.7 3.017 1.367 4.55 2 2-2.2 3.734-4.684 5.2-7.45L23.2 40.5c3.434 1.3 7.317 2.416 11.65 3.35l1.85-7.6.2 7.95c1.9.433 3.634.75 5.2.95 1.534.2 2.834.317 3.9.35-1-4.133-1.216-8.45-.65-12.95m-3.4-20.9c-.466-.967-1.25-1.6-2.35-1.9-1.1-.3-2.1-.15-3 .45-.866.6-1.416 1.517-1.65 2.75l-1 7.5-8.1-1.05c-.6-.067-1.116.016-1.55.25-.366.2-.666.55-.9 1.05l-1.1 4.1L47 31.4l1.05-4.05c.1-.534.034-.983-.2-1.35-.233-.467-.65-.817-1.25-1.05l-7.4-3.05 2.75-7.05c.5-1.167.5-2.233 0-3.2z"/></g></svg>