<svg xmlns="http://www.w3.org/2000/svg" width="36" height="35"><defs><linearGradient id="a" x1="97.655%" x2="2.345%" y1="95.044%" y2="4.956%"><stop offset="0%" stop-color="#019A37"/><stop offset="61%" stop-color="#00BF65"/><stop offset="100%" stop-color="#05D289"/></linearGradient></defs><g fill="none" fill-rule="evenodd"><path fill="url(#a)" fill-rule="nonzero" d="M2.88 0C1.29 0 0 1.254 0 2.8v29.4C0 33.746 1.29 35 2.88 35h30.24c1.59 0 2.88-1.254 2.88-2.8V2.8C36 1.254 34.71 0 33.12 0H2.88z"/><path stroke="#FFF" stroke-linecap="round" stroke-linejoin="round" stroke-width="2.066" d="M17.964 7.675c4.838 0 7.727 1.575 8.82 2.53.328.293.504.714.477 1.147v6.074c0 5.395-3.928 9.203-8.12 11.034-.527.229-.752.323-1.18.323"/><path stroke="#FFF" stroke-linecap="round" stroke-linejoin="round" stroke-width="2.066" d="M18.036 7.675c-4.838 0-7.727 1.575-8.82 2.53a1.42 1.42 0 00-.477 1.147v6.074c0 5.395 3.928 9.203 8.12 11.034.527.229.752.323 1.18.323"/></g></svg>