<svg xmlns="http://www.w3.org/2000/svg" width="64" height="64"><defs><radialGradient id="a" cx="50%" cy="0%" r="100%" fx="50%" fy="0%" gradientTransform="matrix(0 1 -.71544 0 .5 -.5)"><stop offset="0%" stop-color="#BBC1CC"/><stop offset="100%" stop-color="#2A7DE1"/></radialGradient></defs><g fill="none" fill-rule="evenodd"><path fill="url(#a)" d="M4.9 14.087v34.087c0 2.753 1.362 4.13 4.087 4.13h50.956c2.638 0 4-1.29 4.087-3.87V14.088c0-2.725-1.39-4.087-4.173-4.087H8.987C6.262 10 4.9 11.362 4.9 14.087z" opacity=".3"/><path stroke="#1E222A" stroke-linecap="round" stroke-linejoin="round" d="M57.465 42.13H2.77h54.695zm0-30.695H2.77h54.695zM.552 9.739v34.087c0 2.753 1.362 4.13 4.087 4.13h50.957c2.637 0 4-1.29 4.087-3.869V9.74c0-2.725-1.392-4.087-4.174-4.087H4.639C1.914 5.652.552 7.014.552 9.74zM17.9 58.305c3.74-1.566 7.797-2.349 12.174-2.349s8.435.783 12.174 2.349M26.77 49.869v6.087m6.609-6.087v6.087"/><path fill="#FFF" stroke="#1E222A" stroke-linecap="round" stroke-linejoin="round" d="M19.589 23.613v-5.59c6.784 0 9.955-3.023 9.955-3.023.124.115 3.302 3.022 9.956 3.022h0v5.591c0 11.711-9.956 15.565-9.956 15.565h0s-9.955-3.854-9.955-15.565z"/></g></svg>