<svg xmlns="http://www.w3.org/2000/svg" width="64" height="64"><defs><radialGradient id="a" cx="50%" cy="0%" r="190.909%" fx="50%" fy="0%" gradientTransform="matrix(0 .52381 -1 0 .5 -.262)"><stop offset="0%" stop-color="#BBC1CC"/><stop offset="100%" stop-color="#2A7DE1"/></radialGradient></defs><g fill="none" fill-rule="evenodd"><path fill="url(#a)" d="M35.556 58.311c0 3.129-2.56 5.689-5.69 5.689H9.957c-3.13 0-5.69-2.56-5.69-5.689V9.956c0-3.13 2.56-5.69 5.69-5.69h19.91c3.13 0 5.69 2.56 5.69 5.69V58.31z" opacity=".3" transform="translate(16)"/><path stroke="#1E222A" stroke-linecap="round" stroke-linejoin="round" d="M47.289 54.044c0 3.13-2.56 5.69-5.689 5.69H21.689C18.56 59.733 16 57.173 16 54.043V5.69C16 2.56 18.56 0 21.689 0H41.6c3.129 0 5.689 2.56 5.689 5.689v48.355z"/><path stroke="#1E222A" stroke-linecap="square" d="M16.711 5.404h29.867M16.711 53.76h29.867"/><path fill="#FFF" stroke="#1E222A" stroke-linecap="round" stroke-linejoin="round" d="M21.689 26.107v-5.591c6.784 0 9.955-3.023 9.955-3.023.124.115 3.302 3.023 9.956 3.023h0v5.59c0 11.712-9.956 15.565-9.956 15.565h0s-9.954-3.853-9.954-15.564z"/></g></svg>