<svg xmlns="http://www.w3.org/2000/svg" width="26" height="26"><path fill="#5D707B" fill-rule="evenodd" d="M17.182 11.335l-4.69 4.893a1.091 1.091 0 01-1.544.129l-2.155-2.03a1.097 1.097 0 011.415-1.673l1.32 1.326 3.984-4.059c.39-.46 1.08-.518 1.542-.128.462.391.52 1.083.128 1.542m7.658-.349c-1.49-1.329-2.179-2.99-2.064-4.984.113-1.994-.826-2.934-2.82-2.82-1.993.115-3.655-.574-4.985-2.064-1.328-1.49-2.657-1.49-3.986 0-1.329 1.49-2.99 2.18-4.984 2.064-1.994-.114-2.933.826-2.82 2.82.114 1.993-.574 3.655-2.063 4.984-1.49 1.33-1.49 2.66 0 3.988 1.49 1.33 2.177 2.99 2.063 4.984-.113 1.993.826 2.933 2.82 2.82 1.993-.114 3.655.574 4.984 2.063 1.33 1.491 2.658 1.491 3.986 0 1.33-1.489 2.992-2.177 4.985-2.064 1.994.114 2.933-.826 2.82-2.819-.115-1.995.573-3.655 2.064-4.984 1.491-1.329 1.491-2.659 0-3.988"/></svg>