<svg width="21" height="24" fill="none" xmlns="http://www.w3.org/2000/svg"><path fill-rule="evenodd" clip-rule="evenodd" d="M.76 2.89C2.045 1.736 5.193.02 10.305 0h.109c5.112.02 8.26 1.736 9.543 2.89l.006.005c.51.467.785 1.137.751 1.827v6.425c0 6.151-4.353 10.42-8.85 12.439l-.02.009c-.486.217-.836.374-1.364.4a.813.813 0 01-.08.005h-.082a.813.813 0 01-.08-.004c-.527-.027-.877-.184-1.363-.401l-.02-.01C4.356 21.568.003 17.299.003 11.148V4.722a2.326 2.326 0 01.75-1.827L.76 2.89zm1.073 1.186c.965-.866 3.736-2.47 8.526-2.478 4.79.009 7.56 1.612 8.525 2.478.16.148.245.36.232.576a.782.782 0 00-.002.049v6.446c0 5.301-3.75 9.114-7.905 10.98-.514.23-.625.27-.85.274-.226-.004-.337-.044-.851-.274-4.154-1.865-7.906-5.679-7.906-10.98V4.7a.8.8 0 00-.001-.048.727.727 0 01.232-.577zm9.209.955a.762.762 0 00-1.366 0l-1.44 2.906-3.223.467a.762.762 0 00-.421 1.3l2.328 2.261-.55 3.192a.762.762 0 001.105.805l2.883-1.509 2.884 1.51a.762.762 0 001.105-.806l-.55-3.192 2.328-2.26a.762.762 0 00-.421-1.301l-3.223-.467-1.44-2.906zM9.424 8.972l.934-1.886.935 1.886c.111.225.326.38.574.416l2.085.302-1.506 1.462a.762.762 0 00-.22.676l.356 2.068-1.87-.979a.762.762 0 00-.707 0l-1.87.98.356-2.07a.762.762 0 00-.22-.675L6.765 9.69l2.085-.302a.762.762 0 00.574-.416z" fill="#008941"/></svg>