<svg width="21" height="25" fill="none" xmlns="http://www.w3.org/2000/svg"><path fill-rule="evenodd" clip-rule="evenodd" d="M.761 3.39C2.044 2.236 5.193.52 10.305.5h.108c5.112.02 8.26 1.736 9.544 2.89l.006.005a2.32 2.32 0 01.75 1.827v6.425c0 6.151-4.353 10.42-8.849 12.439l-.02.009c-.486.217-.836.374-1.364.4a.813.813 0 01-.08.005h-.082a.814.814 0 01-.08-.004c-.528-.027-.878-.184-1.364-.401l-.02-.01C4.358 22.068.004 17.799.004 11.648V5.222a2.326 2.326 0 01.751-1.827l.006-.005zm1.072 1.186c.965-.866 3.736-2.47 8.526-2.478 4.79.009 7.56 1.612 8.525 2.477.16.15.246.36.232.577a.783.783 0 00-.001.049v6.446c0 5.3-3.751 9.114-7.905 10.98-.515.23-.626.27-.851.273-.225-.003-.336-.043-.85-.273-4.155-1.866-7.906-5.679-7.906-10.98V5.2a.8.8 0 00-.002-.048.727.727 0 01.232-.577zm9.21.955a.762.762 0 00-1.367 0l-1.44 2.906-3.222.467a.762.762 0 00-.422 1.3l2.329 2.261-.55 3.192a.762.762 0 001.104.805l2.884-1.509 2.884 1.51a.763.763 0 001.104-.806l-.55-3.192 2.329-2.26a.762.762 0 00-.422-1.301l-3.222-.467-1.44-2.906zM9.424 9.472l.934-1.886.934 1.886c.112.225.326.38.574.416l2.085.302-1.505 1.462a.762.762 0 00-.22.676l.356 2.068-1.87-.979a.763.763 0 00-.707 0l-1.87.98.356-2.07a.762.762 0 00-.22-.675L6.765 10.19l2.085-.302a.762.762 0 00.574-.416z" fill="#008941"/></svg>