<svg width="25" height="21" fill="none" xmlns="http://www.w3.org/2000/svg"><path d="M22.153 7.863a.75.75 0 01.378-.983.733.733 0 01.97.383c.657 1.514 1 3.156 1 4.845 0 2.894-1.01 5.632-2.82 7.794a.73.73 0 01-1.038.086.754.754 0 01-.085-1.052 10.6 10.6 0 002.47-6.828c0-1.482-.3-2.919-.875-4.245zM4.48 18.933a.752.752 0 01-.086 1.055.74.74 0 01-1.047-.087 12.09 12.09 0 01-2.845-7.813C.502 5.412 5.877 0 12.508 0c1.702 0 3.355.357 4.878 1.04a.75.75 0 01.377.987.74.74 0 01-.981.38 10.42 10.42 0 00-4.274-.91c-5.81 0-10.52 4.741-10.52 10.59 0 2.544.892 4.947 2.492 6.846z" fill="#008941"/><path d="M6.357 10.395a.74.74 0 01-.92.51.752.752 0 01-.503-.932C5.93 6.53 9.06 4.118 12.658 4.118a.751.751 0 11.026 1.501h-.026c-2.933 0-5.487 1.967-6.3 4.776zm4.616.355a2.062 2.062 0 102.917 2.918c.566-.565 2.184-3.167 4.763-7.677-4.512 2.576-7.114 4.193-7.68 4.76zm3.97 3.972a3.55 3.55 0 01-5.023.001 3.555 3.555 0 010-5.026c.806-.805 4.187-2.867 10.344-6.33.656-.37 1.383.358 1.013 1.014-3.467 6.155-5.53 9.536-6.335 10.341z" fill="#008941"/></svg>