<svg width="150" height="65" fill="none" xmlns="http://www.w3.org/2000/svg"><g clip-path="url(#clip0)" fill-rule="evenodd" clip-rule="evenodd"><path d="M23.92 55.502c12.87 0 23.3-10.521 23.3-23.5s-10.43-23.5-23.3-23.5C11.05 8.502.619 19.023.619 32.002s10.432 23.5 23.3 23.5zm-8.793-9.466h1.623V19.354h-1.623v26.682zM8.469 29.07c.028-1.697 2.92-1.746 2.92-.078l.027 1.445h2.206v-1.335c.14-4.465-7.447-4.462-7.39-.11v7.688c-.057 4.353 7.537 4.465 7.398 0v-1.61h-2.242v1.724c0 1.668-2.887 1.696-2.915 0v-7.802l-.004.078zm12.622-1.738s.386-.572 1.396-1.138c1.283-.72 2.537-.001 2.352-.085 1.01.453 1.394 1.544 1.466 2.766v9.105h1.422v1.669H24.07l-.002-10.882c0-1.585-2.652-1.534-2.678.077l.002-.077v10.882h-3.278v-1.673l1.036.003V27.784l-1.232-.007v-1.668h3.167l.006 1.223zm16.554 9.31c.074 1.223.458 2.316 1.466 2.768-.192-.085.493.257 1.194.246.365-.005 2.152-.003 2.152-.003V37.98s-.903-.011-1.38-.007c-.607.008-1.133-.285-1.176-1.148l.004-9.033-.004-.014h2.157v-1.641h-2.161l.008-.027v-3.504h-2.258l-.002 14.037zm-6.975-7.66c.036-1.673 2.914-1.658 2.914.01l-.008 2.516H30.67v-2.527zm2.914 6.087v1.724c0 1.669-2.886 1.697-2.914 0v-3.59l4.74.005a.413.413 0 00.412-.414l-.003-3.692c.14-4.465-7.447-4.462-7.39-.11v7.688c-.057 4.353 7.537 4.465 7.399 0v-1.61h-2.244z" fill="#CC0001"/><path d="M69.543 20.43c.402 0 .757-.069 1.064-.207.307-.137.637-.352.99-.642v.671h2.048v-8.927h-2.048v2.742a6.246 6.246 0 00-.754-.313c-.245-.082-.558-.123-.942-.123-.367 0-.735.08-1.103.238-.368.159-.68.382-.939.669a3.34 3.34 0 00-.645 1.087c-.158.422-.236.907-.236 1.454 0 1.025.233 1.84.7 2.444.466.605 1.088.907 1.865.907zm-3.464-.178V18.6h-3.954v-2.112h3.67v-1.652h-3.67V13.36h3.954v-1.65h-6.127v8.543h6.127zm3.333-1.822c.216.285.563.428 1.041.428.186 0 .383-.036.592-.106.209-.071.392-.164.552-.279v-3.16a2.015 2.015 0 00-.455-.133 2.657 2.657 0 00-.438-.04c-.539 0-.943.17-1.212.508-.27.338-.404.808-.404 1.408 0 .631.108 1.09.324 1.374zm7.908-5.539v-1.566h-2.162v1.566h2.162zm-.057.918v6.443h-2.048v-6.443h2.048zm4.05 6.57c.357 0 .658-.017.905-.05.246-.032.48-.077.7-.134v-1.418h-.171a1.76 1.76 0 01-.362.127 1.711 1.711 0 01-.418.069c-.258 0-.454-.04-.588-.118a.634.634 0 01-.282-.319 1.22 1.22 0 01-.091-.453 26.606 26.606 0 01-.006-.59v-2.284h1.917v-1.4H81v-1.842h-2.048v1.842h-.842v1.4h.842v3.012c0 .788.195 1.344.583 1.67.39.325.982.487 1.778.487zm8.075-.841c-.612.61-1.472.915-2.58.915-1.107 0-1.967-.305-2.58-.915-.612-.61-.918-1.445-.918-2.505 0-1.067.308-1.905.924-2.513.617-.608 1.475-.912 2.574-.912 1.115 0 1.977.306 2.586.918.609.612.913 1.448.913 2.507 0 1.06-.306 1.895-.919 2.505zm-2.563-.525c-.216 0-.408-.035-.577-.104a1.082 1.082 0 01-.435-.327 1.612 1.612 0 01-.285-.622 3.81 3.81 0 01-.096-.915c0-.394.037-.721.11-.981a1.65 1.65 0 01.3-.614c.14-.16.287-.268.44-.321.154-.054.33-.08.526-.08.198 0 .382.032.552.097.17.065.317.176.438.332.122.154.216.358.285.614.068.257.102.574.102.953 0 .41-.033.73-.1.96-.066.232-.165.43-.298.595a.975.975 0 01-.43.318 1.507 1.507 0 01-.531.095zm6.633-3.076v4.315h-2.047v-6.443h2.047v.947c.452-.39.844-.65 1.178-.778a2.59 2.59 0 011.166-.186c.091.004.17.01.24.017v1.968h-.183a1.828 1.828 0 00-.42-.069 6.322 6.322 0 00-.484-.023c-.292 0-.55.02-.774.057a4.364 4.364 0 00-.722.195zm5.615 4.493c1.028 0 1.838-.204 2.429-.611.592-.408.888-.944.888-1.61 0-.455-.129-.834-.387-1.138-.258-.305-.656-.527-1.195-.669a8.95 8.95 0 00-.725-.152 20.75 20.75 0 01-.674-.123c-.38-.08-.62-.16-.723-.241-.102-.08-.153-.197-.153-.35 0-.168.113-.298.338-.39.226-.092.504-.138.834-.138.398 0 .791.066 1.18.198.389.132.735.303 1.038.514h.177v-1.63a5.644 5.644 0 00-1.027-.313 6.307 6.307 0 00-1.374-.146c-1.009 0-1.804.206-2.386.617-.582.411-.874.926-.874 1.546 0 .482.14.885.421 1.208.281.323.712.561 1.292.714.212.057.448.106.708.146.26.04.466.078.617.112.319.065.535.133.649.204.113.07.17.184.17.341 0 .176-.096.31-.29.399-.193.09-.49.135-.893.135-.307 0-.595-.032-.865-.095a4.693 4.693 0 01-.722-.226 3.6 3.6 0 01-.572-.279 8.855 8.855 0 01-.355-.238h-.188v1.698c.28.13.652.25 1.115.356.463.107.978.16 1.547.16zm7.032-9.105l-1.656 3.379h-1.331l.893-3.38h2.094zm6.689 8.927v-3.133h1.007l2.31 3.133h2.668l-2.827-3.66c.538-.264.953-.595 1.243-.993.29-.398.435-.912.435-1.543 0-.46-.094-.84-.282-1.145a2.214 2.214 0 00-.759-.743 2.769 2.769 0 00-1.013-.373 8.34 8.34 0 00-1.291-.086h-3.664v8.543h2.173zm0-4.67h.672c.349 0 .641-.017.876-.052.235-.034.432-.113.591-.235.152-.119.263-.25.333-.393.07-.143.105-.336.105-.577 0-.214-.043-.397-.13-.55-.088-.154-.237-.274-.45-.362a1.64 1.64 0 00-.517-.112c-.198-.013-.427-.02-.689-.02h-.791v2.3zm8.124 4.842c.258 0 .495-.022.711-.066.216-.044.425-.112.626-.204.144-.068.297-.162.461-.28.163-.12.299-.22.409-.305v.683h2.031v-4.383c0-.773-.259-1.34-.776-1.701-.518-.362-1.359-.543-2.523-.543a9.2 9.2 0 00-1.465.118c-.488.078-.839.146-1.056.204v1.555h.188c.167-.066.442-.158.825-.279.383-.12.743-.18 1.081-.18.561 0 .986.067 1.274.203.288.136.433.382.433.737v.035c-.603.034-1.186.088-1.747.16-.561.073-1.031.195-1.411.368-.383.172-.679.407-.887.705-.209.299-.313.683-.313 1.153 0 .59.205 1.073.614 1.452.41.379.918.568 1.525.568zm.461-1.449c.121.037.311.055.569.055.204 0 .412-.042.623-.126.21-.084.395-.195.554-.333v-1.343a21.96 21.96 0 00-.899.095 4.31 4.31 0 00-.734.14c-.204.066-.361.16-.469.285a.721.721 0 00-.162.49c0 .134.011.243.034.327.023.084.08.165.171.241a.82.82 0 00.313.17zm7.776 1.403c.357 0 .658-.016.905-.049.246-.032.479-.077.699-.134v-1.418h-.17a1.76 1.76 0 01-.361.127 1.715 1.715 0 01-.419.069c-.257 0-.454-.04-.588-.118a.632.632 0 01-.282-.319 1.222 1.222 0 01-.091-.453 25.276 25.276 0 01-.006-.59v-2.284h1.917v-1.4h-1.917v-1.842h-2.048v1.842h-.842v1.4h.842v3.012c0 .788.195 1.344.583 1.67.389.325.982.487 1.778.487zm4.568-9.053v1.566h-2.161v-1.566h2.161zm-.057 8.927v-6.443h-2.048v6.443h2.048zm3.618-4.567v4.567h-2.048v-6.443h2.048v.711a5.207 5.207 0 011.05-.66 2.68 2.68 0 011.118-.229c.69 0 1.229.203 1.618.608.389.406.583 1.012.583 1.819v4.194h-2.059v-3.196c0-.26-.013-.519-.04-.777-.026-.258-.072-.449-.136-.571a.684.684 0 00-.333-.31c-.146-.065-.35-.097-.612-.097-.186 0-.374.03-.566.091a3.046 3.046 0 00-.623.293zm8.545 6.994c.546 0 1.036-.053 1.47-.158a2.912 2.912 0 001.112-.513c.308-.234.547-.557.717-.97.171-.413.256-.922.256-1.526v-5.703h-1.985l-.074.287a3.023 3.023 0 00-.771-.341 3.355 3.355 0 00-.941-.124c-.383 0-.758.075-1.124.224a2.566 2.566 0 00-.924.625c-.27.287-.478.624-.626 1.01-.148.386-.222.845-.222 1.377 0 1.11.243 1.935.728 2.479.486.543 1.176.814 2.071.814.368 0 .702-.06 1.001-.178.3-.118.573-.279.819-.482v.12c0 .269-.026.498-.079.69a1.088 1.088 0 01-.256.47c-.125.13-.307.23-.544.301-.237.07-.545.106-.924.106-.284 0-.607-.041-.967-.123a6.332 6.332 0 01-.916-.273h-.25v1.612c.314.077.687.142 1.118.196.43.053.867.08 1.311.08zm-.657-4.47c.229.245.57.368 1.021.368.205 0 .406-.033.603-.098.197-.065.377-.151.54-.258v-2.92a1.929 1.929 0 00-.432-.118 2.817 2.817 0 00-.461-.043c-.538 0-.942.156-1.211.468-.27.311-.404.746-.404 1.305 0 .62.114 1.052.344 1.296z" fill="#1E222A"/><path d="M86.706 53.299v-8.927h-1.07v8.927h1.07zm-21.117 0v-1.01h-4.454v-3.173h4.455v-1.01h-4.455v-2.34h4.455v-1.01h-5.581v8.543h5.58zm1.872 0l1.815-2.462 1.803 2.462h1.348l-2.497-3.253 2.497-3.156h-1.251l-1.798 2.421-1.792-2.42h-1.348l2.458 3.212-2.48 3.196h1.245zm9.566 0a3.54 3.54 0 01-1.022.143 3.77 3.77 0 01-1.262-.203 2.578 2.578 0 01-.984-.617 2.772 2.772 0 01-.643-1.044c-.152-.421-.228-.913-.228-1.475 0-1.048.285-1.87.856-2.467s1.325-.895 2.261-.895c.365 0 .722.052 1.073.155.35.103.672.23.964.379v1.199h-.057a4.06 4.06 0 00-1.01-.591 2.743 2.743 0 00-1.015-.207c-.607 0-1.086.206-1.436.617-.351.411-.527 1.015-.527 1.81 0 .773.172 1.367.515 1.782.344.415.826.622 1.448.622.216 0 .436-.029.66-.086a2.83 2.83 0 00.603-.224 4.861 4.861 0 00.762-.487h.057v1.187a6.867 6.867 0 01-1.015.402zm4.929.149c.413 0 .808-.052 1.183-.155a8.78 8.78 0 001.104-.384v-1.176h-.057c-.186.168-.498.339-.936.513a3.514 3.514 0 01-1.305.261 2.78 2.78 0 01-.896-.138 1.92 1.92 0 01-.703-.413 1.936 1.936 0 01-.484-.72 2.752 2.752 0 01-.176-1.03h4.682v-.585c0-.93-.232-1.646-.697-2.151-.465-.505-1.125-.758-1.982-.758-.926 0-1.672.308-2.239.924-.567.616-.85 1.448-.85 2.496 0 1.06.295 1.877.887 2.453.592.575 1.415.863 2.469.863zm-2.27-4.068h3.64c-.003-.566-.144-1.004-.423-1.314-.279-.31-.702-.464-1.271-.464-.573 0-1.029.17-1.369.51a1.99 1.99 0 00-.577 1.268zm9.853-5.008v8.927h-1.07v-8.927h1.07zm4.659 9.076c.413 0 .808-.052 1.183-.155a8.78 8.78 0 001.104-.384v-1.176h-.057c-.186.168-.498.339-.936.513a3.514 3.514 0 01-1.305.261 2.78 2.78 0 01-.896-.138 1.92 1.92 0 01-.703-.413 1.936 1.936 0 01-.483-.72 2.752 2.752 0 01-.177-1.03h4.682v-.585c0-.93-.232-1.646-.697-2.151-.464-.505-1.125-.758-1.982-.758-.926 0-1.672.308-2.239.924-.567.616-.85 1.448-.85 2.496 0 1.06.296 1.877.887 2.453.592.575 1.415.863 2.469.863zm-2.27-4.068h3.641c-.004-.566-.145-1.004-.424-1.314-.278-.31-.702-.464-1.271-.464-.573 0-1.029.17-1.368.51a1.99 1.99 0 00-.578 1.268zm7.009 3.919v-4.785a4.66 4.66 0 01.916-.557c.318-.145.623-.218.916-.218.284 0 .515.04.694.118a.868.868 0 01.409.359c.091.145.154.347.188.605s.051.534.051.829v3.649h1.07v-4.16c0-.784-.181-1.384-.541-1.801-.36-.417-.884-.626-1.57-.626-.375 0-.741.079-1.098.236a4.343 4.343 0 00-1.035.654v-.712h-1.07v6.41h1.07zm8.581.074a4.461 4.461 0 01-.634.052c-.649 0-1.142-.176-1.479-.528-.338-.352-.506-.916-.506-1.692v-3.408h-.723v-.907h.723v-1.84h1.069v1.841h2.207v.907h-2.207v2.92c0 .337.008.6.023.789.015.19.068.366.159.53a.767.767 0 00.344.336c.146.071.369.106.669.106.174 0 .356-.025.546-.077a3.73 3.73 0 00.409-.13h.057v.97c-.201.054-.42.098-.657.132zM64.696 34.298l-3.424 2.457 1.259-4.043-3.375-2.526 4.202-.042 1.338-4.017 1.339 4.017 4.202.043-3.375 2.525 1.258 4.043-3.424-2.457zm11.651 0l-3.424 2.457 1.258-4.043-3.374-2.526 4.201-.042 1.339-4.017 1.338 4.017 4.202.043-3.375 2.525 1.259 4.043-3.424-2.457zm11.651 0l-3.425 2.457 1.259-4.043-3.375-2.526 4.202-.042 1.338-4.017 1.339 4.017 4.202.043-3.375 2.525 1.258 4.043-3.424-2.457zm11.65 0l-3.424 2.457 1.258-4.043-3.374-2.526 4.201-.042 1.339-4.017 1.338 4.017 4.202.043-3.375 2.525 1.259 4.043-3.424-2.457z" fill="#CC0001"/><path opacity=".247" d="M111.298 34.298l-3.424 2.457 1.259-4.043-3.375-2.526 4.202-.042 1.338-4.017 1.339 4.017 4.202.043-3.375 2.525 1.258 4.043-3.424-2.457z" fill="#1E222A"/></g><defs><clipPath id="clip0"><path fill="#fff" transform="translate(.619 .002)" d="M0 0h148.766v64H0z"/></clipPath></defs></svg>