<svg width="81" height="80" fill="none" xmlns="http://www.w3.org/2000/svg"><path fill-rule="evenodd" clip-rule="evenodd" d="M24.532 21.957h40v15.334c0 9.466-3.333 17.2-10 23.466-3.333 3.067-6.667 5.334-10 6.534-3.333-1.2-6.667-3.467-10-6.534-6.667-6.266-10-14-10-23.466V21.957z" fill="url(#paint0_radial)"/><path fill-rule="evenodd" clip-rule="evenodd" d="M38.534 38.933l-4.533-3.466h5.467l1.866-5.6 1.6 5.6h5.734L44 38.933l1.867 5.6-4.534-3.333-4.666 3.333 1.866-5.6z" fill="#fff"/><path d="M38.534 38.933l.474.162a.5.5 0 00-.17-.559l-.304.397zM36.668 44.4l-.474-.162a.5.5 0 00.764.569l-.29-.407zm4.666-3.333l.296-.403a.5.5 0 00-.586-.004l.29.407zm4.534 3.333l-.297.403a.5.5 0 00.77-.565l-.473.162zM44 38.933l-.298-.401a.5.5 0 00-.175.563l.473-.162zm4.667-3.466l.298.401a.5.5 0 00-.298-.901v.5zm-5.734 0l-.48.137a.5.5 0 00.48.363v-.5zm-1.6-5.6l.481-.138a.5.5 0 00-.955-.02l.474.158zm-1.866 5.6v.5a.5.5 0 00.474-.342l-.474-.158zm-5.467 0v-.5a.5.5 0 00-.304.897l.304-.397zm-3.333 21.2l-.343.364.004.004.339-.368zm10 6.533l-.17.47a.5.5 0 00.339 0l-.17-.47zm10-6.533l.338.368.004-.004-.342-.364zm10-38.8h.5a.5.5 0 00-.5-.5v.5zm-40 0v-.5a.5.5 0 00-.5.5h.5zM38.06 38.772l-1.867 5.466.947.324 1.867-5.467-.947-.323zm-1.103 6.035l4.667-3.334-.581-.813-4.667 3.333.581.814zm4.08-3.338l4.534 3.334.592-.806-4.534-3.333-.592.805zm5.303 2.77l-1.867-5.467-.946.323 1.867 5.467.946-.324zm-2.042-4.904l4.667-3.467-.596-.803-4.667 3.467.596.803zm4.369-4.368h-5.734v1h5.734v-1zm-5.253.362l-1.6-5.6-.961.275 1.6 5.6.961-.275zm-2.555-5.62l-1.867 5.6.949.316 1.867-5.6-.949-.316zm-1.392 5.258H34v1h5.467v-1zm-5.77.897l4.533 3.467.607-.795-4.533-3.467-.608.795zm-3.369 21.17c3.361 3.093 6.75 5.406 10.17 6.636l.338-.94c-3.248-1.17-6.525-3.39-9.83-6.431l-.678.736zm10.508 6.636c3.418-1.23 6.808-3.543 10.17-6.635l-.678-.736c-3.306 3.04-6.582 5.261-9.83 6.43l.338.941zm10.173-6.64c6.77-6.362 10.158-14.229 10.158-23.83h-1c0 9.332-3.279 16.932-9.843 23.102l.685.729zM61.168 33.2V17.867h-1V33.2h1zm-.5-15.833h-40v1h40v-1zm-40.5.5V33.2h1V17.867h-1zm0 15.333c0 9.601 3.388 17.468 10.157 23.83l.685-.728c-6.564-6.17-9.842-13.77-9.842-23.102h-1z" fill="#1E222A"/><defs><radialGradient id="paint0_radial" cx="0" cy="0" r="1" gradientUnits="userSpaceOnUse" gradientTransform="matrix(0 -22.6667 20 0 44.532 44.624)"><stop stop-color="#C7CDD7" stop-opacity=".35"/><stop offset="1" stop-color="#04AF51" stop-opacity=".3"/></radialGradient></defs></svg>