<svg width="81" height="80" fill="none" xmlns="http://www.w3.org/2000/svg"><path fill-rule="evenodd" clip-rule="evenodd" d="M27.668 26C32.2 21.467 37.8 19.2 44.2 19.2s11.867 2.267 16.533 6.8c4.534 4.533 6.8 10.133 6.8 16.533 0 6.4-2.266 12-6.8 16.534-4.533 4.533-10 6.8-16.533 6.8-6.4 0-12-2.267-16.533-6.8-4.534-4.534-6.8-10-6.8-16.534 0-6.4 2.133-11.866 6.8-16.533z" fill="url(#paint0_radial)"/><path clip-rule="evenodd" d="M23.668 22C28.2 17.467 33.8 15.2 40.2 15.2s11.867 2.267 16.4 6.8c4.533 4.533 6.8 10.133 6.8 16.533 0 6.4-2.267 11.867-6.8 16.4-4.533 4.534-10 6.8-16.4 6.8-6.533 0-12-2.266-16.533-6.8-4.534-4.533-6.8-10-6.8-16.4 0-6.4 2.133-11.866 6.8-16.533z" stroke="#1E222A" stroke-linecap="round" stroke-linejoin="round"/><path fill-rule="evenodd" clip-rule="evenodd" d="M48.6 27.733c-2.932-2.933-6.532-4.4-10.666-4.4-4.266 0-7.866 1.467-10.8 4.4-2.266 2.267-3.733 4.934-4.266 8 .533-3.6 2.133-6.8 4.8-9.466 3.466-3.467 7.6-5.2 12.533-5.2 4.533 0 8.4 1.466 11.733 4.533l-3.333 2.133zm7.6 3.734a17.627 17.627 0 011.467 7.066h-4.533c0-1.6-.267-3.066-.666-4.533l3.733-2.533z" fill="#fff"/><path d="M22.373 35.66a.5.5 0 10.99.147l-.99-.147zm29.223-9.692a.5.5 0 10.677-.736l-.677.736zm-3.349 2.119a.5.5 0 00.708-.707l-.708.707zm-25.38 7.646l-.492-.085a.478.478 0 00-.007.061l.5.024zm-.632 2.777a.5.5 0 10.999.047l-1-.047zm30.712-4.654a.5.5 0 10-.958.288l.958-.288zm.187 4.677h-.5a.5.5 0 00.5.5v-.5zm4.534 0v.5a.5.5 0 00.5-.5h-.5zm-1.009-7.267a.5.5 0 10-.916.401l.916-.4zm-2.034-2.592a.5.5 0 10-.581-.814l.58.814zM40.044 37.86a.5.5 0 00.58.813l-.58-.813zm-16.682-2.053c.518-3.493 2.068-6.595 4.66-9.187l-.708-.707c-2.742 2.742-4.392 6.04-4.941 9.747l.99.147zm4.66-9.187c3.373-3.373 7.38-5.053 12.179-5.053v-1c-5.067 0-9.327 1.786-12.887 5.346l.707.707zM40.2 21.567c4.411 0 8.156 1.421 11.395 4.4l.677-.735c-3.428-3.154-7.417-4.665-12.072-4.665v1zm8.754 5.813c-3.029-3.029-6.757-4.547-11.02-4.547v1c4.002 0 7.474 1.416 10.312 4.254l.708-.707zm-11.02-4.547c-4.396 0-8.124 1.517-11.154 4.547l.707.707c2.836-2.837 6.308-4.254 10.446-4.254v-1zM26.78 27.38c-2.332 2.332-3.853 5.09-4.406 8.268l.985.171c.514-2.956 1.927-5.531 4.128-7.732l-.707-.707zm-4.413 8.33l-.133 2.8.999.047.133-2.8-.999-.047zm29.62-1.566c.388 1.29.646 2.842.646 4.39h1c0-1.653-.275-3.301-.687-4.678l-.958.288zm1.146 4.89h4.534v-1h-4.534v1zm5.034-.5c0-2.604-.548-5.072-1.509-7.268l-.916.401a17.127 17.127 0 011.425 6.866h1zM54.044 27.86l-14 10 .58.813 14-10-.58-.813z" fill="#1E222A"/><path fill-rule="evenodd" clip-rule="evenodd" d="M41.4 37.2c.4.4.668.8.668 1.333 0 .534-.134.934-.667 1.334-.267.4-.8.533-1.333.533-.534 0-.934-.133-1.334-.533-.266-.4-.533-.8-.533-1.334 0-.533.133-.933.533-1.333.4-.4.934-.667 1.334-.667.533 0 1.066.134 1.333.667z" fill="#EEE"/><path clip-rule="evenodd" d="M41.4 37.2c.4.4.668.8.668 1.333 0 .534-.134.934-.667 1.334-.267.4-.8.533-1.333.533-.534 0-.934-.133-1.334-.533-.266-.4-.533-.8-.533-1.334 0-.533.133-.933.533-1.333.4-.4.934-.667 1.334-.667.533 0 1.066.134 1.333.667z" stroke="#1E222A" stroke-linecap="round" stroke-linejoin="round"/><defs><radialGradient id="paint0_radial" cx="0" cy="0" r="1" gradientUnits="userSpaceOnUse" gradientTransform="rotate(90 .834 43.367) scale(23.3333)"><stop stop-color="#C7CDD7" stop-opacity=".35"/><stop offset="1" stop-color="#2B7EE1" stop-opacity=".3"/></radialGradient></defs></svg>