<svg width="80" height="80" fill="none" xmlns="http://www.w3.org/2000/svg"><path fill-rule="evenodd" clip-rule="evenodd" d="M61.679 54.94c0 3.467-1.2 6.4-3.734 8.8-2.4 2.4-5.333 3.733-8.8 3.733h-9.333c-3.467 0-6.4-1.2-8.8-3.733-2.4-2.4-3.733-5.333-3.733-8.8v-4.533c0-3.467 1.2-6.4 3.733-8.8 2.4-2.534 5.333-3.734 8.8-3.734h9.333c3.467 0 6.4 1.2 8.8 3.734 2.4 2.533 3.734 5.466 3.734 8.8v4.533z" fill="url(#paint0_radial)"/><path fill-rule="evenodd" clip-rule="evenodd" d="M44.668 45.867c0 1.866-.934 3.2-2.667 3.866v4.534c0 .4-.133.8-.533 1.2-.267.266-.667.533-1.2.533-.4 0-.8-.133-1.067-.533-.267-.4-.533-.667-.533-1.2v-4.534c-.8-.266-1.467-.8-1.867-1.466-.533-.667-.8-1.467-.8-2.4 0-1.2.4-2.134 1.2-2.934.8-.8 1.867-1.2 2.933-1.2 1.067 0 2.134.4 2.934 1.2 1.2.667 1.6 1.734 1.6 2.934z" fill="#fff"/><path d="M52.18 18.754a.5.5 0 00.708-.708l-.707.708zm-25.066-.708a.5.5 0 00.707.708l-.707-.708zm30.133-4.492a.5.5 0 00.708-.708l-.708.708zm-35.2-.708a.5.5 0 00.707.708l-.707-.708zm7.02 23.02h-.5a.5.5 0 00.778.417l-.277-.416zm22.8 0l-.256.43a.5.5 0 00.757-.43h-.5zm-8.533 7.067l-.353.354a.535.535 0 00.028.026l.325-.38zm-6.266 5.334l-.416.277a.523.523 0 00.025.035l.39-.312zm1.866 1.466h.5a.5.5 0 00-.342-.474l-.158.474zm2.8 5.734l.354.353a.502.502 0 00.062-.076l-.416-.277zm.534-5.734l-.24-.439a.5.5 0 00-.26.44h.5zm9.877-14.282a.5.5 0 00-.555.832l.555-.832zm1.856 24.282l-.344-.363-.01.01.354.353zM26.934 37.6l.344.363.01-.01-.354-.353zm2.313-1.343a.5.5 0 00-.625-.78l.625.78zm23.641-18.21c-3.56-3.56-7.82-5.347-12.887-5.347v1c4.8 0 8.806 1.68 12.18 5.054l.707-.708zM40.001 12.7c-5.067 0-9.327 1.787-12.887 5.346l.707.708c3.374-3.374 7.38-5.054 12.18-5.054v-1zm17.954.146C53.059 7.95 47.064 5.5 40 5.5v1c6.804 0 12.542 2.35 17.246 7.054l.708-.708zM40 5.5c-7.063 0-13.058 2.45-17.954 7.346l.707.708C27.459 8.85 33.197 6.5 40.002 6.5v-1zm12.367 27.7c0-3.198-1.119-5.992-3.48-8.354l-.707.708c2.172 2.172 3.187 4.71 3.187 7.646h1zm-3.48-8.354c-2.353-2.352-5.144-3.613-8.487-3.613v1c3.057 0 5.6 1.14 7.78 3.32l.707-.707zM40.4 21.233c-3.213 0-6.003 1.263-8.354 3.613l.708.708c2.183-2.184 4.726-3.32 7.646-3.32v-1zm-8.354 3.613c-2.36 2.362-3.48 5.156-3.48 8.354h1c0-2.935 1.015-5.474 3.188-7.646l-.708-.707zm-3.48 8.354v2.667h1V33.2h-1zm.778 3.083c1.9-1.267 4.065-1.783 6.39-1.783v-1c-2.476 0-4.845.551-6.945 1.95l.555.833zm6.39-1.783H45.2v-1h-9.467v1zm9.466 0c2.436 0 4.481.638 6.41 1.795l.514-.857C50.052 34.195 47.831 33.5 45.2 33.5v1zm7.167 1.367V33.2h-1v2.667h1zm-7.2 10c0-1.34-.459-2.414-1.508-3.313l-.651.759c.817.7 1.159 1.492 1.159 2.554h1zm-1.48-3.287a4.636 4.636 0 00-3.287-1.347v1c.943 0 1.88.354 2.58 1.054l.707-.707zM40.4 41.233c-1.19 0-2.387.447-3.287 1.347l.707.707c.7-.7 1.637-1.054 2.58-1.054v-1zm-3.287 1.347c-.9.9-1.346 2.096-1.346 3.287h1c0-.943.353-1.88 1.053-2.58l-.707-.707zm-1.346 3.287c0 .917.307 1.812.884 2.677l.832-.555c-.49-.734-.716-1.44-.716-2.122h-1zm.91 2.712c.55.689 1.159 1.315 2.098 1.629l.316-.949c-.66-.22-1.118-.66-1.634-1.305l-.78.625zm1.756 1.154v4.534h1v-4.534h-1zm0 4.534c0 .534.187 1.06.68 1.553l.707-.707c-.307-.307-.387-.58-.387-.846h-1zm.68 1.553c.216.216.427.392.663.51.249.125.495.17.757.17v-1a.641.641 0 01-.31-.064c-.096-.048-.218-.139-.403-.323l-.707.707zm1.42.68c.534 0 1.061-.187 1.554-.68l-.707-.707c-.307.307-.58.387-.847.387v1zm1.616-.756c.216-.324.618-.752.618-1.477h-1c0 .34-.132.446-.45.922l.832.555zm.618-1.477v-4.534h-1v4.534h1zm-.26-4.095c.785-.428 1.455-.979 1.927-1.697.476-.723.733-1.587.733-2.608h-1c0 .845-.21 1.514-.568 2.058-.36.548-.89.998-1.572 1.37l.48.877zm9.082-13.89a12.958 12.958 0 012.057 1.672l.708-.708a13.963 13.963 0 00-2.21-1.795l-.555.832zm2.057 1.672c2.315 2.313 3.587 5.123 3.587 8.446h1c0-3.61-1.393-6.668-3.88-9.154l-.706.707zm3.587 8.446v4.533h1V46.4h-1zm0 4.533c0 3.336-1.148 6.136-3.577 8.437l.688.726c2.637-2.498 3.89-5.565 3.89-9.163h-1zm-3.587 8.447c-2.313 2.314-5.122 3.587-8.446 3.587v1c3.61 0 6.668-1.394 9.154-3.88l-.707-.707zM45.2 62.967h-9.467v1H45.2v-1zm-9.467 0c-3.335 0-6.135-1.148-8.437-3.578l-.726.688c2.499 2.638 5.565 3.89 9.163 3.89v-1zm-8.437-3.578c-2.326-2.455-3.596-5.27-3.596-8.456h-1c0 3.481 1.397 6.533 3.87 9.144l.726-.688zM23.7 50.933V46.4h-1v4.533h1zm0-4.533c0-3.335 1.148-6.136 3.577-8.437l-.688-.726C23.952 39.735 22.7 42.802 22.7 46.4h1zm3.587-8.447c.644-.644 1.29-1.161 1.959-1.696l-.625-.78c-.665.53-1.352 1.08-2.041 1.77l.707.706z" fill="#1E222A"/><defs><radialGradient id="paint0_radial" cx="0" cy="0" r="1" gradientUnits="userSpaceOnUse" gradientTransform="matrix(0 -14.8 17.2 0 44.479 52.673)"><stop stop-color="#C7CDD7" stop-opacity=".35"/><stop offset="1" stop-color="#E46" stop-opacity=".4"/></radialGradient></defs></svg>