<svg xmlns="http://www.w3.org/2000/svg" width="161" height="160"><defs><radialGradient id="a" cx="21.49%" cy="27.637%" r="154.246%" fx="21.49%" fy="27.637%" gradientTransform="matrix(1 0 0 .51858 0 .133)"><stop offset="0%" stop-color="#BAC1CC" stop-opacity=".298"/><stop offset="100%" stop-color="#2A7CE1" stop-opacity=".298"/></radialGradient></defs><g fill="none" fill-rule="evenodd"><path d="M92.15 46.264c-.533.9-1.175 1.775-1.925 2.625a17.298 17.298 0 01-1.925-2.625c-2.533-4.317-2.533-9.3 0-14.95a35.324 35.324 0 011.925-3.65 35.324 35.324 0 011.925 3.65c2.533 5.65 2.533 10.633 0 14.95zm-7.652-3.428a17.362 17.362 0 00-.167-3.251c-.766-4.946-3.916-8.808-9.45-11.584a35.44 35.44 0 00-3.8-1.612c.21 1.443.482 2.791.816 4.045 1.609 5.98 4.759 9.841 9.45 11.584.982.36 2.033.633 3.151.818zm5.847 11.846a17.279 17.279 0 00-1.003-3.097c-2.02-4.58-6.062-7.494-12.126-8.743a35.3 35.3 0 00-4.087-.574 35.158 35.158 0 001.835 3.696c3.101 5.36 7.143 8.274 12.126 8.744 1.042.094 2.127.085 3.255-.026zm7.53 9.382c.75-.85 1.392-1.725 1.925-2.625 2.533-4.317 2.533-9.3 0-14.95a35.324 35.324 0 00-1.925-3.65 35.324 35.324 0 00-1.925 3.65c-2.533 5.65-2.533 10.633 0 14.95.533.9 1.175 1.775 1.925 2.625zm.277 14.74a17.24 17.24 0 002.737-1.762c3.91-3.123 5.694-7.777 5.351-13.959a35.444 35.444 0 00-.49-4.097 35.289 35.289 0 00-3.105 2.72c-4.387 4.368-6.171 9.02-5.35 13.958.175 1.032.46 2.078.857 3.14zM95.39 72.47c.109-1.128.115-2.213.018-3.255-.483-4.982-3.409-9.016-8.776-12.102a35.156 35.156 0 00-3.701-1.825c.127 1.452.321 2.814.584 4.085 1.266 6.06 4.192 10.095 8.776 12.102.96.415 1.994.747 3.1.995zm-2.569 15.947a17.35 17.35 0 00.86-3.14c.822-4.937-.96-9.59-5.345-13.96a35.402 35.402 0 00-3.103-2.721 35.232 35.232 0 00-.493 4.097c-.345 6.182 1.436 10.835 5.345 13.96.82.65 1.732 1.238 2.736 1.764zm2.407 2.818a17.396 17.396 0 003.186-.667c4.769-1.519 8.098-5.226 9.989-11.122a35.23 35.23 0 001.007-4.001 35.294 35.294 0 00-3.871 1.429c-5.66 2.51-8.99 6.218-9.99 11.122a17.358 17.358 0 00-.321 3.239zm-2.526 11.038c1.132.055 2.216.01 3.252-.134 4.954-.715 8.847-3.826 11.68-9.33a36.098 36.098 0 001.65-3.783 35.748 35.748 0 00-4.054.774c-5.994 1.548-9.887 4.658-11.678 9.33-.37.98-.654 2.027-.85 3.143zm-2.305-.123a17.28 17.28 0 00.89-3.13c.872-4.928-.863-9.6-5.205-14.013a35.378 35.378 0 00-3.075-2.75 35.297 35.297 0 00-.533 4.09c-.408 6.178 1.327 10.85 5.205 14.013.813.658 1.72 1.255 2.718 1.79zm-5.733 10.36a17.28 17.28 0 003.176.712c4.97.591 9.534-1.405 13.695-5.99a35.37 35.37 0 002.573-3.226 35.308 35.308 0 00-4.115-.3c-6.191-.058-10.756 1.939-13.696 5.99a17.326 17.326 0 00-1.633 2.814zm-2.636.454c.6-1.015 1.09-2.026 1.467-3.034 1.785-4.831.94-9.67-2.534-14.517a31.424 31.424 0 00-2.533-3.059 37.775 37.775 0 00-1.293 4.03c-1.56 6.126-.714 10.964 2.535 14.516.682.74 1.469 1.428 2.358 2.064zm-6.541 8.537c1.018.497 2.032.884 3.04 1.159 4.834 1.296 9.638-.026 14.412-3.968 1-.828 2.002-1.77 3.008-2.824a35.359 35.359 0 00-4.03-.887c-6.118-.943-10.922.38-14.41 3.967a17.22 17.22 0 00-2.02 2.553zm-5.561 1.168a17.284 17.284 0 002.407-2.191c3.337-3.73 4.323-8.613 2.958-14.652a35.213 35.213 0 00-1.164-3.958 35.516 35.516 0 00-2.609 3.196c-3.6 5.036-4.587 9.92-2.959 14.652.345.987.8 1.972 1.367 2.953zm-17.621 6.428a17.35 17.35 0 003.167-.75c4.727-1.644 7.957-5.437 9.692-11.38.36-1.246.661-2.588.9-4.026-1.38.466-2.658.976-3.83 1.53-5.592 2.659-8.822 6.452-9.692 11.38a17.257 17.257 0 00-.237 3.246zm-.571 3.327a17.271 17.271 0 002.346 2.255c3.943 3.082 8.88 3.742 14.815 1.98a35.352 35.352 0 003.872-1.425 35.506 35.506 0 00-3.362-2.39c-5.264-3.259-10.202-3.92-14.815-1.98-.962.41-1.914.93-2.856 1.56zm11.712-5.937a17.323 17.323 0 002.346 2.254c3.942 3.082 8.88 3.742 14.815 1.98a35.352 35.352 0 003.872-1.425 35.388 35.388 0 00-3.363-2.39c-5.263-3.259-10.2-3.92-14.814-1.98-.963.41-1.915.93-2.856 1.56z" stroke="#1E222A" stroke-linecap="round" stroke-linejoin="round"/><path d="M46.225 100.436a16.78 16.78 0 00-2.875-1.575c-4.616-1.933-9.558-1.275-14.825 1.975a35.05 35.05 0 00-3.325 2.4 40.847 40.847 0 003.85 1.425c5.934 1.767 10.875 1.108 14.825-1.975a16.5 16.5 0 002.35-2.25m-6 6.35a35.05 35.05 0 00-3.325 2.4 40.847 40.847 0 003.85 1.425c5.934 1.767 10.875 1.108 14.825-1.975a16.5 16.5 0 002.35-2.25 16.78 16.78 0 00-2.875-1.575c-4.616-1.933-9.558-1.275-14.825 1.975m7.2-18.4a37.806 37.806 0 00-3.85-1.525 36.91 36.91 0 00.925 4.025c1.734 5.95 4.967 9.742 9.7 11.375.984.333 2.034.583 3.15.75a18.602 18.602 0 00-.225-3.25c-.866-4.917-4.1-8.708-9.7-11.375m-7.7 8.175a16.843 16.843 0 001.4-2.95c1.617-4.733.625-9.617-2.975-14.65a29.555 29.555 0 00-2.625-3.2 34.592 34.592 0 00-1.15 3.95c-1.366 6.033-.375 10.917 2.975 14.65a15.903 15.903 0 002.375 2.2m-5.575-1.175c-.616-.95-1.283-1.8-2-2.55-3.5-3.583-8.3-4.908-14.4-3.975-1.3.2-2.65.5-4.05.9 1 1.05 2.009 1.992 3.025 2.825 4.767 3.933 9.567 5.258 14.4 3.975 1-.283 2.009-.675 3.025-1.175m-2.9-29.25a30.674 30.674 0 00-2.5 3.075c-3.416 4.933-4.25 9.85-2.5 14.75a18.92 18.92 0 001.425 3.075 14.477 14.477 0 002.3-2.075c3.184-3.583 4.017-8.5 2.5-14.75a42.337 42.337 0 00-1.225-4.075M25 86.436a16.258 16.258 0 00-1.65-2.8c-2.95-4.05-7.508-6.05-13.675-6a36.86 36.86 0 00-4.125.3c.85 1.2 1.709 2.275 2.575 3.225 4.15 4.583 8.709 6.583 13.675 6a17.594 17.594 0 003.2-.725m2.2-26.175a34.45 34.45 0 00-.525-4.075 36.078 36.078 0 00-3.075 2.725c-4.35 4.417-6.083 9.092-5.2 14.025.184 1.017.475 2.058.875 3.125 1-.533 1.909-1.125 2.725-1.775 3.867-3.167 5.6-7.842 5.2-14.025M4.425 63.686c-1.25-.317-2.6-.567-4.05-.75A34.746 34.746 0 002 66.711c2.85 5.517 6.75 8.625 11.7 9.325 1.034.15 2.125.2 3.275.15a18.023 18.023 0 00-.85-3.175c-1.816-4.65-5.716-7.758-11.7-9.325m-.3-12.875a32.92 32.92 0 00-3.9-1.45c.3 1.433.642 2.775 1.025 4.025 1.884 5.883 5.217 9.592 10 11.125 1 .3 2.059.517 3.175.65 0-1.133-.1-2.208-.3-3.225-1.016-4.917-4.35-8.625-10-11.125M24.9 46.586c-.05-1.3-.2-2.667-.45-4.1-1.15.9-2.191 1.808-3.125 2.725-4.383 4.367-6.158 9.025-5.325 13.975.167 1.017.45 2.058.85 3.125 1-.533 1.909-1.117 2.725-1.75 3.9-3.133 5.675-7.792 5.325-13.975m1.25-13.325a33.13 33.13 0 00.575-4.075 34.928 34.928 0 00-3.7 1.825c-5.366 3.083-8.291 7.117-8.775 12.1a19.325 19.325 0 00.025 3.25c1.117-.25 2.15-.583 3.1-1 4.584-2.017 7.509-6.05 8.775-12.1M7.025 35.586c-.933-.9-1.975-1.8-3.125-2.7-.25 1.433-.408 2.8-.475 4.1-.35 6.183 1.434 10.842 5.35 13.975a19.125 19.125 0 002.725 1.75c.4-1.067.692-2.117.875-3.15.8-4.933-.983-9.592-5.35-13.975M11.8 16.761a35.52 35.52 0 00-1.925 3.65c-2.533 5.65-2.533 10.633 0 14.95.534.9 1.175 1.775 1.925 2.625.75-.85 1.392-1.725 1.925-2.625 2.534-4.317 2.534-9.3 0-14.95a35.324 35.324 0 00-1.925-3.65m22.975 3.1a34.643 34.643 0 001.825-3.7c-1.45.117-2.816.308-4.1.575-6.05 1.25-10.091 4.167-12.125 8.75-.416.95-.75 1.975-1 3.075 1.134.117 2.225.133 3.275.05 4.967-.483 9.009-3.4 12.125-8.75M38.6.311a34.832 34.832 0 00-3.775 1.625c-5.55 2.767-8.7 6.625-9.45 11.575a17.29 17.29 0 00-.2 3.25 17.321 17.321 0 003.175-.825c4.684-1.733 7.834-5.592 9.45-11.575.317-1.25.584-2.6.8-4.05m-19.15 22.5c.75-.85 1.392-1.725 1.925-2.625 2.534-4.317 2.534-9.3 0-14.95a35.324 35.324 0 00-1.925-3.65 35.52 35.52 0 00-1.925 3.65c-2.533 5.65-2.533 10.633 0 14.95.534.9 1.175 1.775 1.925 2.625z" fill="url(#a)" fill-rule="nonzero" transform="matrix(-1 0 0 1 106.575 29.189)"/></g></svg>