<svg xmlns="http://www.w3.org/2000/svg" width="80" height="80"><defs><radialGradient id="a" cx="29.033%" cy="12.972%" r="150.708%" fx="29.033%" fy="12.972%" gradientTransform="matrix(1 0 0 .63096 0 .048)"><stop offset="0%" stop-color="#BAC1CC" stop-opacity=".298"/><stop offset="100%" stop-color="#2A7CE1" stop-opacity=".298"/></radialGradient></defs><g fill="none" fill-rule="evenodd"><path d="M.55.25A134.986 134.986 0 00.4 7.875c.121 9.132 1.33 16.69 3.625 22.675 2.813 7.346 7.263 12.33 13.35 14.95 1.17 8.785-2.839 14.052-12.025 15.8l.175-.05c-.453.09-.803.265-1.05.525-.3.3-.45.667-.45 1.1 0 .433.15.8.45 1.1.247.247.538.388.875.425a.754.754 0 00.175.025H35.95c.333-.05.625-.2.875-.45.3-.3.45-.667.45-1.1 0-.433-.15-.8-.45-1.1-.216-.23-.508-.39-.875-.475a.97.97 0 01-.175-.05c-9.06-1.774-13.01-7.015-11.85-15.725 6.083-2.633 10.533-7.617 13.35-14.95 2.3-6 3.5-13.567 3.6-22.7A132.36 132.36 0 0040.75.25H.55z" fill="url(#a)" fill-rule="nonzero" transform="translate(23.5 10.5)"/><path d="M56.325 68.275c-.216-.23-.508-.39-.875-.475a.97.97 0 01-.175-.05c-9.06-1.774-13.01-7.015-11.85-15.725-.809.336-1.642.636-2.5.9-.33.133-.763.133-1.3 0a16.1 16.1 0 01-2.75-.925c1.17 8.785-2.839 14.052-12.025 15.8l.175-.05c-.453.09-.803.265-1.05.525-.3.3-.45.667-.45 1.1 0 .433.15.8.45 1.1.247.247.538.388.875.425a.754.754 0 00.175.025H55.45c.333-.05.625-.2.875-.45.3-.3.45-.667.45-1.1 0-.433-.15-.8-.45-1.1m-17.875-53.8l-6.475 1.95c-.75.217-1.3.567-1.65 1.05-.35.433-.525.967-.525 1.6V23.7c0 1.617.192 3.108.575 4.475 1.083 3.467 4.033 6.5 8.85 9.1.183.067.442.1.775.1.2 0 .408-.033.625-.1 4.767-2.6 7.75-5.633 8.95-9.1.35-1.383.525-2.875.525-4.475v-4.625c0-.617-.175-1.15-.525-1.6-.367-.483-.925-.833-1.675-1.05l-6.475-1.95c-.783-.233-1.258-.35-1.425-.35-.267 0-.783.117-1.55.35m-1.15 8.25l3.225-2.35v9.575-9.575l-3.225 2.35z" fill="#FFF" fill-rule="nonzero"/><path d="M31.975 16.425c-.75.217-1.3.567-1.65 1.05-.35.433-.525.967-.525 1.6V23.7c0 1.617.192 3.108.575 4.475 1.083 3.467 4.033 6.5 8.85 9.1.183.067.442.1.775.1.2 0 .408-.033.625-.1 4.767-2.6 7.75-5.633 8.95-9.1.35-1.383.525-2.875.525-4.475v-4.625c0-.617-.175-1.15-.525-1.6-.367-.483-.925-.833-1.675-1.05l-6.475-1.95c-.783-.233-1.258-.35-1.425-.35-.267 0-.783.117-1.55.35l-6.475 1.95zm5.325 6.3l3.225-2.35v9.575m-17 7.113c-2.296-5.993-3.5-13.556-3.613-22.688H8.875c.273 5.873 1.668 10.727 4.188 14.563 2.519 3.835 6.006 6.544 10.462 8.125 2.813 7.338 7.263 12.32 13.35 14.95.876.378 1.793.682 2.75.912.537.133.975.133 1.313 0a28.57 28.57 0 002.487-.9c6.083-2.633 10.533-7.617 13.35-14.95 2.3-6 3.5-13.567 3.6-22.7a132.36 132.36 0 00-.125-7.625h-40.2a127.56 127.56 0 00-.138 7.625m40.463 0h11.05c-.267 5.867-1.667 10.725-4.2 14.575-2.517 3.833-6 6.542-10.45 8.125m-19.9 14.938c1.17 8.777-2.839 14.04-12.025 15.787l.175-.05c-.453.09-.803.265-1.05.525-.3.3-.45.667-.45 1.1 0 .433.15.8.45 1.1a1.485 1.485 0 001.05.45H55.45c.333-.05.625-.2.875-.45.3-.3.45-.667.45-1.1 0-.433-.15-.8-.45-1.1-.216-.23-.508-.39-.875-.475a4.138 4.138 0 01-.175-.037c-9.06-1.782-13.01-7.028-11.85-15.738M24.85 70.912v.013h.175" stroke="#1E222A" stroke-linecap="round" stroke-linejoin="round"/></g></svg>