<svg xmlns="http://www.w3.org/2000/svg" width="48" height="48"><defs><linearGradient id="a" x1="97.655%" x2="2.345%" y1="97.655%" y2="2.345%"><stop offset="0%" stop-color="#019A37"/><stop offset="61%" stop-color="#00BF65"/><stop offset="100%" stop-color="#05D289"/></linearGradient></defs><g fill="none" fill-rule="evenodd"><path fill="url(#a)" fill-rule="nonzero" d="M3.84 0C1.72 0 0 1.72 0 3.84v40.32C0 46.28 1.72 48 3.84 48h40.32c2.12 0 3.84-1.72 3.84-3.84V3.84C48 1.72 46.28 0 44.16 0H3.84z"/><path stroke="#FFF" stroke-linecap="round" stroke-linejoin="round" stroke-width="2.066" d="M23.952 10.526c6.451 0 10.303 2.16 11.76 3.47.438.402.672.979.636 1.572v8.33c0 7.4-5.237 12.622-10.826 15.132-.704.315-1.004.444-1.575.444"/><path stroke="#FFF" stroke-linecap="round" stroke-linejoin="round" stroke-width="2.066" d="M24.048 10.526c-6.451 0-10.303 2.16-11.76 3.47a1.972 1.972 0 00-.636 1.572v8.33c0 7.4 5.237 12.622 10.826 15.132.704.315 1.004.444 1.575.444"/><path stroke="#FFF" stroke-linecap="round" stroke-linejoin="round" stroke-width="1.97" d="M24 27.059l-4.183 2.189.799-4.637-3.382-3.283 4.676-.677L24 16.432l2.09 4.219 4.676.677-3.382 3.283.799 4.637z"/></g></svg>