<svg xmlns="http://www.w3.org/2000/svg" width="16" height="16"><path fill="#5C707B" fill-opacity=".5" fill-rule="evenodd" d="M10.92 4.003c.254 0 .646.085 1.177.256.53.17 1.026.561 1.488 1.174-.093.023-.364.261-.813.715-.45.454-.71 1.135-.779 2.043.092 1.09.427 1.855 1.004 2.298.576.443.91.664 1.003.664a20.13 20.13 0 00-.277.664c-.161.397-.415.857-.761 1.379-.3.476-.629.89-.986 1.242-.358.352-.773.528-1.246.528s-.865-.085-1.177-.255c-.31-.17-.732-.256-1.263-.256-.53 0-.957.085-1.28.256-.323.17-.703.266-1.142.289-.484 0-.917-.187-1.297-.562a7.034 7.034 0 01-1.021-1.276c-.67-.954-1.142-2.117-1.419-3.49-.277-1.373-.115-2.65.485-3.83A4.113 4.113 0 013.93 4.531a3.216 3.216 0 011.73-.494c.485.023.935.125 1.35.307.415.181.773.283 1.073.306.3-.023.698-.142 1.194-.357a3.723 3.723 0 011.643-.29zM10.984 0a3.747 3.747 0 01-.158 1.488c-.15.476-.355.904-.61 1.285-.257.38-.583.686-.978.917a2.114 2.114 0 01-1.222.306 3.545 3.545 0 01.174-1.488c.163-.476.36-.877.594-1.203.28-.38.622-.687 1.03-.918.407-.23.797-.36 1.17-.387z"/></svg>