<svg width="73" height="59" fill="none" xmlns="http://www.w3.org/2000/svg"><path fill-rule="evenodd" clip-rule="evenodd" d="M60.838 6.585c4.263-.473 6.721 1.434 7.375 5.722l4.236 32.395c.392 4.157-1.452 6.55-5.53 7.182l-50.287 6.708c-4.262.5-6.707-1.395-7.335-5.682L5.062 20.554c-.418-4.157 1.438-6.59 5.57-7.3l50.206-6.67z" fill="url(#paint0_radial)"/><path clip-rule="evenodd" d="M56.83 2.544L6.627 9.21c-4.13.71-5.987 3.142-5.57 7.297l4.237 32.346c.627 4.287 3.072 6.18 7.334 5.68l50.282-6.706c4.078-.63 5.922-3.024 5.53-7.179L64.203 8.263c-.653-4.286-3.111-6.193-7.373-5.72v0z" stroke="#1E222A" stroke-linecap="round" stroke-linejoin="round"/><path fill-rule="evenodd" clip-rule="evenodd" d="M29.453 3.806a2.35 2.35 0 01.51-1.893c.418-.606.967-.96 1.647-1.066a2.418 2.418 0 011.922.593c.575.42.902.999.98 1.735l.668 4.733c.078.71-.105 1.34-.55 1.893-.444.578-1.02.907-1.725.986-.706.106-1.321-.065-1.844-.512-.575-.448-.902-1.013-.98-1.696l-.628-4.773z" fill="#fff"/><path clip-rule="evenodd" d="M29.453 3.806l.628 4.773c.078.682.405 1.248.98 1.696.523.447 1.137.618 1.844.512.705-.08 1.28-.408 1.725-.986a2.475 2.475 0 00.55-1.893l-.668-4.734c-.078-.736-.405-1.314-.98-1.734-.55-.475-1.19-.672-1.922-.593-.68.106-1.229.46-1.648 1.066-.444.552-.613 1.183-.509 1.893v0z" stroke="#1E222A" stroke-linecap="round" stroke-linejoin="round"/><path fill-rule="evenodd" clip-rule="evenodd" d="M28.983 22.7c.418.368.667.841.745 1.42.079.553-.039 1.038-.353 1.46-.26.394-.601.657-1.02.789a9.635 9.635 0 01-.98 2.485c-1.073 1.656-2.485 2.59-4.236 2.8-1.83.263-3.465-.262-4.903-1.578a7.54 7.54 0 01-1.569-2.169 1.902 1.902 0 01-1.137-.473c-.392-.343-.627-.79-.706-1.342-.079-.578.026-1.092.314-1.538.156-.184.3-.342.431-.473a2.883 2.883 0 010-.672c-.026-1.656.367-3.169 1.177-4.536 1.072-1.682 2.523-2.656 4.353-2.919 1.752-.21 3.347.355 4.785 1.696 1.125 1.078 1.948 2.432 2.472 4.063l.117.67c.21.08.379.185.51.317zm-13.414 1.38c.837-2.498 1.856-4.036 3.06-4.614 1.098-.526 2.393-.211 3.882.946 1.595 1.21 3.583 1.867 5.962 1.973-2.38-.106-4.367-.764-5.962-1.973-1.49-1.157-2.784-1.473-3.882-.947-1.203.58-2.223 2.117-3.06 4.616zm-3.06 21.144a1.88 1.88 0 01-.39-.435c-.133-.184-.21-.434-.237-.749-.21-1.288-.195-3.038.04-5.246.235-2.577 2.183-4.576 5.844-5.996 1.725 1.394 3.647 1.946 5.765 1.657 2.066-.263 3.74-1.3 5.02-3.116 3.87.447 6.263 1.88 7.178 4.3.784 2.077 1.242 3.76 1.373 5.048.026.315-.013.592-.118.829-.026.131-.104.303-.235.512-.34.447-.772.71-1.295.79l-21.493 2.84c-.524.051-1.007-.092-1.452-.434z" fill="#fff"/><path d="M15.57 24.08a8.01 8.01 0 00-.432.474c-.288.446-.393.96-.313 1.538.078.553.313.999.705 1.342.34.289.719.447 1.138.473a7.541 7.541 0 001.568 2.17c1.438 1.314 3.073 1.84 4.903 1.577 1.752-.21 3.163-1.144 4.236-2.8.444-.79.771-1.617.98-2.485.419-.132.76-.395 1.02-.79.315-.42.432-.906.353-1.459a2.22 2.22 0 00-.745-1.42 1.417 1.417 0 00-.51-.316M15.57 24.08a2.883 2.883 0 010-.672c-.026-1.656.367-3.169 1.177-4.536 1.072-1.682 2.523-2.656 4.353-2.919 1.752-.21 3.347.355 4.785 1.696 1.125 1.078 1.949 2.432 2.472 4.063l.117.67m-12.904 1.7c.837-2.499 1.856-4.037 3.06-4.616 1.098-.525 2.393-.21 3.882.947 1.596 1.21 3.583 1.866 5.962 1.972M12.51 45.224c.444.342.928.485 1.452.434l21.492-2.84c.523-.08.955-.343 1.295-.79.13-.21.21-.381.235-.512a1.68 1.68 0 00.118-.828c-.13-1.29-.588-2.973-1.373-5.05-.915-2.419-3.308-3.852-7.178-4.3-1.28 1.816-2.954 2.854-5.02 3.117-2.118.29-4.04-.263-5.765-1.657-3.661 1.42-5.61 3.419-5.845 5.996-.234 2.209-.247 3.958-.038 5.246.025.315.104.565.235.75.078.13.208.276.392.434zm48.635-10.217l-17.532 2.288m14.943-21.813l-11.022 1.46 11.022-1.46zM47.221 30.234l-4.472.592 4.472-.592zm13.06-1.696l-9.452 1.223 9.453-1.223zm-.862-6.509l-17.532 2.288 17.532-2.288z" stroke="#1E222A" stroke-linecap="round" stroke-linejoin="round"/><defs><radialGradient id="paint0_radial" cx="0" cy="0" r="1" gradientUnits="userSpaceOnUse" gradientTransform="matrix(0 26.0779 -33.7479 0 38.752 32.592)"><stop stop-color="#C7CDD7" stop-opacity=".35"/><stop offset="1" stop-color="#2B7EE1" stop-opacity=".3"/></radialGradient></defs></svg>