<svg xmlns="http://www.w3.org/2000/svg" width="64" height="64"><path fill="none" stroke="#249EFC" stroke-linecap="round" stroke-linejoin="round" stroke-width="1.2" d="M31.975 36.25c-.567-.067-1.083-.1-1.55-.1-2.833.033-5.267 1.05-7.3 3.05-.4.4-.4.933 0 1.6.9 1.267 3.05 3.633 6.45 7.1.267.233.55.367.85.4.333-.033.633-.167.9-.4l1.6-1.65m11-20.35c-3.933-2.867-8.433-4.3-13.5-4.3-6.267 0-11.667 2.217-16.2 6.65-.733 1.033-.783 1.933-.15 2.7l3.7 4.15c.867.9 1.867.867 3-.1 2.733-2.333 5.95-3.517 9.65-3.55.467 0 .983.033 1.55.1m25.5-.6l-9.25-2.65c-.733-.233-1.233-.35-1.5-.35-.233 0-.717.117-1.45.35l-9.25 2.65c-.9.267-1.4.883-1.5 1.85v6.05c0 2.1.25 4.033.75 5.8 1.467 4.4 5.283 8.217 11.45 11.45 6.2-3.233 10.033-7.05 11.5-11.45.533-1.767.783-3.7.75-5.8V32.8c-.1-.967-.6-1.583-1.5-1.85zm-2.15-10.4l-3.7 4.15c-.767.7-1.583.7-2.45 0-5.233-5.233-11.483-7.85-18.75-7.85-7.233 0-13.467 2.617-18.7 7.85-.867.7-1.667.7-2.4 0l-3.75-4.15c-.767-.933-.767-1.933 0-3 7.033-7 15.317-10.517 24.85-10.55 9.567.033 17.867 3.55 24.9 10.55.767 1.067.767 2.067 0 3z"/></svg>