<svg xmlns="http://www.w3.org/2000/svg" width="64" height="64"><path fill="none" stroke="#249EFC" stroke-linecap="round" stroke-linejoin="round" stroke-width="1.2" d="M11.95 52.65v-2.4 2.4zM9.4 43.6c-1.767 0-3.267.617-4.5 1.85C3.633 46.717 3 48.233 3 50v2.9c0 1.767.633 3.284 1.9 4.55 1.233 1.234 2.733 1.85 4.5 1.85h5.1c1.733 0 3.217-.616 4.45-1.85 1.267-1.266 1.9-2.783 1.9-4.55V50c0-1.767-.633-3.283-1.9-4.55-1.233-1.233-2.717-1.85-4.45-1.85H9.4zm-3.25-1.45v-1.9c.033-1.533.6-2.867 1.7-4 1.133-1.1 2.5-1.65 4.1-1.65 1.6 0 2.967.55 4.1 1.65 1.1 1.133 1.667 2.467 1.7 4v1.9m-6.95-.55c.6-1.633 1.65-3.033 3.15-4.2m9.35 15.7h23.2c2.9 0 4.35-1.416 4.35-4.25v-4.1c-.134-3.133-1.533-5.666-4.2-7.6-2.033-1.466-4.734-2.533-8.1-3.2-1.7 1.833-3.433 3.067-5.2 3.7-1.9.733-3.817.733-5.75 0-1.733-.633-3.45-1.867-5.15-3.7-1.633.333-3.117.75-4.45 1.25m33.5 17.9h6.25c2.166 0 3.25-1.1 3.25-3.3v-1.75c-.067-2.433-1.1-4.383-3.1-5.85-1.567-1.1-3.666-1.917-6.3-2.45m2.85-12.05c.167.067.334.167.5.3.067.067.15.184.25.35.466.533.7 1.167.7 1.9 0 .733-.234 1.4-.7 2-.4.533-.883.8-1.45.8a11.087 11.087 0 01-1.95 3.25c-.4.5-.834.967-1.3 1.4m-8.35-19.35c.167 0 .4.117.7.35l.4.5c.567.667.85 1.484.85 2.45 0 .934-.283 1.767-.85 2.5-.433.667-1.084 1.034-1.95 1.1a11.656 11.656 0 01-2.5 4.25c-2.3 2.867-5.066 4.3-8.3 4.3-3.2 0-5.984-1.433-8.35-4.3a12.633 12.633 0 01-2.45-4.25c-.833-.066-1.483-.433-1.95-1.1-.6-.633-.9-1.466-.9-2.5 0-.767.183-1.45.55-2.05l.35-.4c.233-.4.583-.683 1.05-.85m27 4.75l.8.75c2 1.933 4.616 3.217 7.85 3.85v-.1c0-.266-.017-.55-.05-.85v-.05c-.3-2.3-1.166-4.3-2.6-6-1.733-2.167-3.85-3.25-6.35-3.25-.267 0-.5.017-.7.05m-2.6-.4c-.434-3.1-1.55-5.733-3.35-7.9C36.534 6.4 33.767 5 30.5 5c-3.233 0-6.017 1.4-8.35 4.2-1.9 2.267-2.967 4.9-3.2 7.9l-.15 1.1v.15c2.033-4.367 4.233-6.95 6.6-7.75 2.1-.567 4.334.334 6.7 2.7 2.5 2.5 5.85 4.183 10.05 5.05V17.1z"/></svg>