<svg width="57" height="65" fill="none" xmlns="http://www.w3.org/2000/svg"><path fill-rule="evenodd" clip-rule="evenodd" d="M50.568 10.902c1.786.625 3.12 1.56 3.995 2.808.969 1.124 1.454 2.496 1.454 4.117v11.794c0 4.15-.484 8.002-1.454 11.559-2.906 8.891-10.352 16.706-22.342 23.446a3.61 3.61 0 01-1.589.374c-.757 0-1.379-.124-1.862-.374C16.783 57.886 9.396 50.07 6.61 41.18c-.968-3.557-1.453-7.41-1.453-11.559V17.83c0-1.623.424-2.995 1.272-4.119.969-1.248 2.362-2.183 4.177-2.808L26.773 5.99c1.816-.593 3.102-.89 3.86-.89.545 0 1.74.297 3.587.89l16.348 4.913z" fill="url(#paint0_radial)"/><path clip-rule="evenodd" d="M46.705 6.822l-16.417-4.93C28.434 1.299 27.23 1 26.684 1c-.76 0-2.052.298-3.876.893L6.572 6.822c-1.824.627-3.22 1.565-4.195 2.817C1.525 10.766 1.1 12.143 1.1 13.77v11.831c0 4.163.486 8.028 1.46 11.596 2.797 8.92 10.216 16.761 22.255 23.52.486.25 1.11.376 1.87.376a3.6 3.6 0 001.595-.375c12.04-6.761 19.519-14.601 22.44-23.52.971-3.569 1.459-7.434 1.459-11.597v-11.83c0-1.628-.486-3.005-1.46-4.132-.881-1.252-2.22-2.19-4.014-2.817v0z" stroke="#1E222A" stroke-linecap="round" stroke-linejoin="round"/><path fill-rule="evenodd" clip-rule="evenodd" d="M23.173 24.85c-.943-1-1.414-2.19-1.414-3.569 0-1.377.471-2.565 1.413-3.567.974-.971 2.13-1.455 3.467-1.455 1.338 0 2.493.486 3.466 1.454.943 1.002 1.414 2.19 1.414 3.569 0 1.377-.471 2.565-1.412 3.568-.974.972-2.13 1.455-3.468 1.455-1.337 0-2.492-.486-3.465-1.455h-.001zm10.215 6.854c1.915 1.94 2.873 4.287 2.873 7.041v1.831c-.031.752-1.004 1.362-2.92 1.831-1.824.532-4.057.8-6.703.8-2.676 0-4.957-.267-6.841-.799-1.854-.47-2.782-1.08-2.782-1.83V38.51c.03-2.66.958-4.93 2.782-6.807 1.884-1.91 4.165-2.864 6.84-2.864 2.646 0 4.897.954 6.75 2.864z" fill="#fff"/><path clip-rule="evenodd" d="M23.173 24.85c-.943-1-1.414-2.19-1.414-3.569 0-1.377.471-2.565 1.413-3.567.974-.971 2.13-1.455 3.467-1.455 1.338 0 2.494.486 3.467 1.454.942 1.002 1.413 2.19 1.413 3.569 0 1.377-.47 2.565-1.412 3.568-.973.972-2.13 1.455-3.468 1.455-1.337 0-2.492-.486-3.465-1.455h-.001zm10.215 6.854c-1.854-1.91-4.104-2.864-6.75-2.864-2.675 0-4.956.955-6.84 2.864-1.824 1.878-2.752 4.147-2.784 6.807v2.066c0 .751.928 1.361 2.783 1.831 1.884.532 4.165.798 6.84.798 2.645 0 4.88-.266 6.704-.798 1.917-.47 2.89-1.08 2.919-1.83v-1.831c0-2.755-.958-5.102-2.873-7.043h0z" stroke="#1E222A" stroke-linecap="round" stroke-linejoin="round"/><defs><radialGradient id="paint0_radial" cx="0" cy="0" r="1" gradientUnits="userSpaceOnUse" gradientTransform="matrix(0 29.9504 -25.4296 0 30.587 35.05)"><stop stop-color="#C7CDD7" stop-opacity=".35"/><stop offset="1" stop-color="#2B7EE1" stop-opacity=".3"/></radialGradient></defs></svg>