<svg xmlns="http://www.w3.org/2000/svg" width="48" height="48"><defs><linearGradient id="a" x1="-.77%" x2="99.07%" y1="-.571%" y2="98.683%"><stop offset="0%" stop-color="#00CEFF"/><stop offset="59%" stop-color="#0094E0"/><stop offset="100%" stop-color="#006ECC"/></linearGradient></defs><g fill="none" fill-rule="evenodd"><path fill="url(#a)" fill-rule="nonzero" d="M3.851 0A3.846 3.846 0 000 3.84v40.32C0 46.28 1.724 48 3.851 48h40.44c2.126 0 3.85-1.72 3.85-3.84V3.84c0-2.12-1.724-3.84-3.85-3.84H3.85z"/><path stroke="#FFF" stroke-linecap="round" stroke-linejoin="round" stroke-width="1.968" d="M37.738 19.68a14.9 14.9 0 01-2.289 15.638m-22.874.027a14.89 14.89 0 01-.548-18.592c4.186-5.567 11.674-7.512 18.052-4.688"/><path stroke="#FFF" stroke-linecap="round" stroke-linejoin="round" stroke-width="1.968" d="M14.893 23.074a9.723 9.723 0 019.332-6.96h.034m2.243 12.384c.963-.96 3.71-5.446 8.242-13.457-8.035 4.504-12.537 7.24-13.506 8.208a3.705 3.705 0 001.668 6.209 3.732 3.732 0 003.596-.96h0z"/></g></svg>