<svg xmlns="http://www.w3.org/2000/svg" width="64" height="64"><g fill="none" fill-rule="evenodd" stroke="#249EFC" stroke-linecap="round" stroke-linejoin="round" stroke-width="1.2"><path d="M63.6 50.35H.6v.1c.034.866.367 1.633 1 2.3.601.6 1.434.95 2.5 1.05h56.051c.899-.033 1.699-.4 2.399-1.1.634-.733.984-1.517 1.05-2.35zm-6.649-2.5V15c-.067-2.934-1.667-4.4-4.8-4.4h-40.25c-3.134 0-4.7 1.583-4.7 4.75V47.4l49.75.45z"/><path d="M46.729 26.107a15.564 15.564 0 011.349 6.402c0 1.933-.334 3.797-1.002 5.594a15.887 15.887 0 01-2.79 4.721m-24.416.013a15.459 15.459 0 01-2.775-4.721 15.63 15.63 0 01-1.016-5.581c0-4.405 1.56-8.164 4.678-11.277 3.128-3.113 6.897-4.67 11.309-4.67 2.279 0 4.443.457 6.49 1.373"/><path d="M22.337 29.725c.643-2.181 1.876-3.96 3.701-5.337 1.851-1.412 3.942-2.117 6.272-2.117m2.429 13.253c1.062-1.07 3.996-5.863 8.803-14.382-8.575 4.807-13.386 7.732-14.432 8.776-.77.77-1.156 1.702-1.156 2.796-.01 1.095.377 2.032 1.156 2.81.78.778 1.718 1.167 2.815 1.167 1.096 0 2.034-.39 2.814-1.167z"/></g></svg>