<svg xmlns="http://www.w3.org/2000/svg" width="56" height="55"><defs><linearGradient id="a" x1="2.345%" x2="97.655%" y1="2.345%" y2="97.655%"><stop offset="0%" stop-color="#737B8C"/><stop offset="41.248%" stop-color="#4D5566"/><stop offset="100%" stop-color="#1E222A"/></linearGradient></defs><g fill="none" fill-rule="evenodd"><path fill="url(#a)" d="M4.4 0h46.2A4.4 4.4 0 0155 4.4v46.2a4.4 4.4 0 01-4.4 4.4H4.4A4.4 4.4 0 010 50.6V4.4A4.4 4.4 0 014.4 0z" transform="translate(.5)"/><path stroke="#FFF" stroke-linejoin="round" stroke-width="2" d="M25.44 23.55l-7.008 7.007c-.89.927-1.372 2.002-1.446 3.226a4.717 4.717 0 001.336 3.059c.926.853 2 1.316 3.224 1.39 1.187-.074 2.206-.537 3.06-1.39l.444-.445m6.73-11.513l-7.008-7.008c-.852-.927-1.872-1.39-3.059-1.39-1.222 0-2.261.426-3.113 1.279-.89.926-1.373 1.983-1.446 3.17.073 1.224.556 2.28 1.446 3.17l.443.445m5.119 5.395l7.006 6.897c.817.927 1.837 1.41 3.06 1.446 1.223-.037 2.262-.482 3.114-1.335.89-.926 1.373-1.983 1.446-3.17-.073-1.224-.556-2.261-1.446-3.115l-.444-.445m-6.508.946l7.008-7.064c.927-.815 1.39-1.835 1.39-3.059 0-1.223-.426-2.261-1.278-3.114-.928-.89-1.984-1.372-3.171-1.446-1.224.074-2.28.556-3.17 1.446l-.446.445"/></g></svg>