<svg xmlns="http://www.w3.org/2000/svg" width="48" height="48"><defs><linearGradient id="a" x1="2.345%" x2="97.655%" y1="2.485%" y2="97.515%"><stop offset="0%" stop-color="#FD7C72"/><stop offset="60%" stop-color="#FC2E26"/><stop offset="100%" stop-color="#E21B19"/></linearGradient></defs><g fill="none" fill-rule="evenodd"><path fill="url(#a)" d="M3.846 0h40.379a3.844 3.844 0 013.846 3.84v40.32c0 2.12-1.722 3.84-3.846 3.84H3.845A3.844 3.844 0 010 44.16V3.84C0 1.72 1.722 0 3.846 0z"/><path fill="#FFF" fill-rule="nonzero" d="M24.035 30.322a.974.974 0 00-.975.974v.835a.975.975 0 101.951 0v-.835a.975.975 0 00-.976-.974z"/><path fill="#FFF" fill-rule="nonzero" d="M31.683 19.68c0-.024.015-.046.015-.07v-1.92c-.005-4.225-3.44-7.647-7.671-7.642-4.232.004-7.659 3.434-7.654 7.66v1.98c-2.404 1.343-3.774 3.12-3.774 4.286v8.834c0 2.249 4.464 5.52 11.456 5.52 6.953 0 11.392-3.269 11.392-5.52v-8.849c.012-1.159-1.358-2.933-3.764-4.279zm-13.358-1.968a5.681 5.681 0 015.617-5.606 5.6 5.6 0 014.066 1.603 5.649 5.649 0 011.738 3.991v1.09a16.886 16.886 0 00-11.421-.012v-1.066zm15.183 15.089c-.05.708-3.209 3.573-9.441 3.573-6.233 0-9.446-2.865-9.504-3.568v-8.844c.043-.81 3.293-4.224 9.441-4.224 6.148 0 9.456 3.42 9.504 4.221v8.842z"/><path fill="#FFF" fill-rule="nonzero" d="M19.159 28.12l1.38 1.378a4.958 4.958 0 016.993 0l1.38-1.377a6.896 6.896 0 00-9.753 0z"/><path fill="#FFF" fill-rule="nonzero" d="M16.52 25.486l1.38 1.377c3.39-3.38 8.88-3.38 12.272 0l1.38-1.377c-4.152-4.144-10.881-4.144-15.033 0z"/></g></svg>