<?xml version="1.0" encoding="UTF-8"?>
<svg width="40px" height="36px" viewBox="0 0 40 36" version="1.1" xmlns="http://www.w3.org/2000/svg" xmlns:xlink="http://www.w3.org/1999/xlink">
    <!-- Generator: Sketch 58 (84663) - https://sketch.com -->
    <title>Card_icon Copy 2</title>
    <desc>Created with Sketch.</desc>
    <g id="1.0-Homepage" stroke="none" stroke-width="1" fill="none" fill-rule="evenodd">
        <g id="1.0.1-Home---Mobile" transform="translate(-51.000000, -407.000000)" fill="#656565" fill-rule="nonzero">
            <g id="ic_bank" transform="translate(51.000000, 405.000000)">
                <path d="M37.46339,32.7657672 L35.1287503,32.7657672 L35.1287503,31.9347361 C35.0952978,31.16442 34.6170409,30.4811843 33.898463,30.177153 L33.898463,18.7624148 C34.6513018,18.4955598 35.1467498,17.7839181 35.1287503,16.9952795 L35.1287503,15.0848631 L36.5915329,15.0848631 C37.8166337,15.1722636 38.9394261,14.4103746 39.29429,13.2508633 C39.4882922,12.2399407 38.9448086,11.2316596 37.9865043,10.8246345 L22.3899488,3.24028122 C20.8890617,2.47546182 19.105309,2.47546182 17.6044219,3.24028122 L2.01755378,10.881947 C1.06767101,11.2831838 0.522239739,12.2757742 0.700080772,13.2795196 C1.0689076,14.4253994 2.18682837,15.1721299 3.40283789,15.0848631 L4.87530772,15.0848631 L4.87530772,16.9952795 C4.88792693,17.7700592 5.37392416,18.4605794 6.10559501,18.7433106 L6.10559501,30.2058092 C5.35807755,30.4739577 4.86447147,31.1791212 4.87530772,31.9633923 L4.87530772,32.7944235 L2.58910457,32.7944235 C1.56970049,32.7887617 0.731593063,33.5855045 0.700080772,34.5902149 L0.700080772,36.577048 C0.688483617,36.7821678 0.766749574,36.9823264 0.914996427,37.1266768 C1.06324328,37.2710271 1.26720373,37.3456769 1.47506489,37.3316625 L38.5289932,37.3316625 C38.7352267,37.3428309 38.9365335,37.2669203 39.0825824,37.12291 C39.2286312,36.9788997 39.3056165,36.7804028 39.29429,36.577048 L39.29429,34.5902149 C39.3021129,34.1073349 39.1123593,33.6417003 38.7678614,33.2984165 C38.4233635,32.9551326 37.9531609,32.7631368 37.46339,32.7657672 Z M23.9011679,32.7657672 L23.9011679,31.9347361 C23.8659934,31.1621703 23.3835564,30.4783472 22.6611933,30.177153 L22.6611933,18.7624148 C23.4197991,18.5013258 23.9208101,17.7873159 23.9011679,16.9952795 L23.9011679,15.0848631 L27.4854694,15.0848631 L27.4854694,16.9952795 C27.494892,17.784236 27.9952292,18.4863156 28.7448186,18.7624148 L28.7448186,30.2249134 C27.9934785,30.4898425 27.4954583,31.1957536 27.504844,31.9824965 L27.504844,32.8135276 L23.9011679,32.7657672 Z M12.6251489,32.7657672 L12.6251489,31.9347361 C12.5940221,31.1636531 12.1149915,30.4793121 11.3948616,30.177153 L11.3948616,18.7624148 C12.1343405,18.4851309 12.6132114,17.7749315 12.5863997,16.9952795 L12.5863997,15.0848631 L16.1513267,15.0848631 L16.1513267,16.9952795 C16.1639459,17.7700592 16.6499431,18.4605794 17.381614,18.7433106 L17.381614,30.2058092 C16.6441819,30.4704196 16.1528083,31.1609485 16.1513267,31.9347361 L16.1513267,32.7657672 L12.6251489,32.7657672 Z M7.78149817,18.8388314 L9.81583149,18.8388314 L9.81583149,30.0243196 L7.73306167,30.0243196 L7.73306167,18.8388314 L7.78149817,18.8388314 Z M19.0478298,18.8388314 L21.1305997,18.8388314 L21.1305997,30.0243196 L18.9993933,30.0243196 L19.0478298,18.8388314 Z M22.3124504,16.9952795 C22.3034262,17.1566549 22.175435,17.2869307 22.0121441,17.3009462 L18.088787,17.3009462 C17.9217069,17.2915093 17.7883638,17.1600275 17.7787933,16.9952795 L17.7787933,15.0848631 L22.331825,15.0848631 L22.3124504,16.9952795 Z M17.6819203,31.9347361 C17.6914908,31.7699881 17.8248339,31.6385063 17.991914,31.6290694 L21.9637076,31.6290694 C22.128984,31.638898 22.2592968,31.7715369 22.2640139,31.9347361 L22.2640139,32.7657672 L17.7109822,32.7657672 L17.6819203,31.9347361 Z M32.2709964,30.0243196 L30.1882266,30.0243196 L30.1882266,18.8388314 L32.2709964,18.8388314 L32.2709964,30.0243196 Z M28.9579393,31.9347361 C28.9669635,31.7733607 29.0949547,31.6430849 29.2582456,31.6290694 L33.2009773,31.6290694 C33.3680574,31.6385063 33.5014005,31.7699881 33.510971,31.9347361 L33.510971,32.7657672 L28.9579393,32.7657672 L28.9579393,31.9347361 L28.9579393,31.9347361 Z M33.510971,16.9952795 C33.5014005,17.1600275 33.3680574,17.2915093 33.2009773,17.3009462 L29.2582456,17.3009462 C29.0949547,17.2869307 28.9669635,17.1566549 28.9579393,16.9952795 L28.9579393,15.0848631 L33.510971,15.0848631 L33.510971,16.9952795 Z M2.25004901,12.9069884 C2.20057516,12.5934951 2.40253619,12.2947821 2.71503949,12.2192385 L18.2147219,4.57757272 C18.7495161,4.34353866 19.3251971,4.21379114 19.9099997,4.19548944 C20.4991277,4.20419642 21.0798912,4.33434574 21.6149647,4.57757272 L37.1146471,12.2192385 C37.4271504,12.2947821 37.6291115,12.5934951 37.5796376,12.9069884 C37.3911621,13.3653156 36.9153043,13.6429348 36.4171614,13.5851862 L3.40283789,13.5851862 C2.90807824,13.6384086 2.43753598,13.3615836 2.25004901,12.9069884 Z M11.0461188,15.0848631 L11.0461188,16.9952795 C11.0365483,17.1600275 10.9032052,17.2915093 10.7361251,17.3009462 L6.80308072,17.3009462 C6.62475762,17.3064199 6.47443346,17.1708991 6.46402517,16.9952795 L6.46402517,15.0848631 L11.0461188,15.0848631 Z M6.46402517,31.9347361 C6.47359564,31.7699881 6.60693871,31.6385063 6.77401882,31.6290694 L10.7070632,31.6290694 C10.8741433,31.6385063 11.0074864,31.7699881 11.0170569,31.9347361 L11.0170569,32.7657672 L6.46402517,32.7657672 L6.46402517,31.9347361 Z M37.754009,35.8128814 L2.25004901,35.8128814 L2.25004901,34.5902149 C2.25503457,34.5065574 2.2935986,34.4283008 2.35721971,34.3727372 C2.42084081,34.3171736 2.50428168,34.2888772 2.58910457,34.2941004 L37.366517,34.2941004 C37.5320264,34.2987517 37.6665429,34.4272455 37.6765106,34.5902149 L37.6765106,35.8128814 L37.754009,35.8128814 Z" id="Shape"></path>
            </g>
        </g>
    </g>
</svg>