<?xml version="1.0" encoding="UTF-8"?>
<svg width="40px" height="27px" viewBox="0 0 40 27" version="1.1" xmlns="http://www.w3.org/2000/svg" xmlns:xlink="http://www.w3.org/1999/xlink">
    <!-- Generator: Sketch 58 (84663) - https://sketch.com -->
    <title>Card_icon</title>
    <desc>Created with Sketch.</desc>
    <g id="1.0-Homepage" stroke="none" stroke-width="1" fill="none" fill-rule="evenodd">
        <g id="1.0.1-Home---Mobile" transform="translate(-189.000000, -412.000000)" fill="#656565">
            <g id="ic_card" transform="translate(189.000000, 405.000000)">
                <g id="Group-14" transform="translate(0.666667, 7.333333)">
                    <path d="M34.6226106,1.38658213e-05 L4.0018205,1.38658213e-05 C1.79067228,0.0175452313 0.0057203921,1.82837215 0,4.05985958 L0,21.9401683 C0.0058023816,24.1799215 1.80353869,25.9941444 4.02293829,26 L34.6437284,26 C36.863128,25.9941444 38.6608643,24.1799215 38.6666667,21.9401683 L38.6666667,4.05985958 C38.6638699,2.98029805 38.2362289,1.94607414 37.4778205,1.18470721 C36.719412,0.423340269 35.6923617,-0.00280190688 34.6226106,1.38658213e-05 L34.6226106,1.38658213e-05 Z M37.0300382,21.9401683 C37.0300382,23.2819472 35.9521962,24.3696739 34.6226106,24.3696739 L4.0018205,24.3696739 C2.67051607,24.3696739 1.58964753,23.283669 1.58383397,21.9401683 L1.58383397,4.05985958 C1.58662828,3.40986058 1.84517591,2.78760475 2.30259803,2.32998441 C2.76002014,1.87236406 3.37884615,1.61686604 4.02293829,1.61967497 L34.6437284,1.61967497 C35.9750201,1.62556514 37.051156,2.71634608 37.051156,4.05985958 L37.051156,21.9401683 L37.0300382,21.9401683 Z" id="Shape" fill-rule="nonzero"></path>
                    <path d="M37.8637523,4.66666667 L0.80291439,4.66666667 C0.357773484,4.67264757 0,5.04766729 0,5.50819672 L0,10.5027322 C0,10.9614606 0.359477017,11.3333333 0.80291439,11.3333333 L37.8637523,11.3333333 C38.3071896,11.3333333 38.6666667,10.9614606 38.6666667,10.5027322 L38.6666667,5.50819672 C38.6666667,5.04766729 38.3088932,4.67264757 37.8637523,4.66666667 Z M37.0502732,9.67213115 L1.60582878,9.67213115 L1.60582878,6.33879781 L37.0502732,6.33879781 L37.0502732,9.67213115 Z" id="Shape" fill-rule="nonzero"></path>
                    <path d="M15.1927523,16 L5.4739144,16 C5.02808379,16 4.66666667,16.2984768 4.66666667,16.6666667 C4.66666667,17.0348565 5.02808379,17.3333333 5.4739144,17.3333333 L15.1927523,17.3333333 C15.6385829,17.3333333 16,17.0348565 16,16.6666667 C16,16.2984768 15.6385829,16 15.1927523,16 L15.1927523,16 Z" id="Path" fill-rule="nonzero"></path>
                    <path d="M15.1927523,19.3333333 L5.4739144,19.3333333 C5.02808379,19.3333333 4.66666667,19.6318102 4.66666667,20 C4.66666667,20.3681898 5.02808379,20.6666667 5.4739144,20.6666667 L15.1927523,20.6666667 C15.6385829,20.6666667 16,20.3681898 16,20 C16,19.6318102 15.6385829,19.3333333 15.1927523,19.3333333 L15.1927523,19.3333333 Z" id="Path" fill-rule="nonzero"></path>
                    <path d="M31.5219298,14.6666667 L29.8442982,14.6666667 C28.4642705,14.672605 27.3453209,15.7848391 27.3333333,17.1625616 L27.3333333,18.8374384 C27.3393704,20.217652 28.4618014,21.3333333 29.8442982,21.3333333 L31.5219298,21.3333333 C32.8898069,21.3213666 33.9940528,20.2140558 34,18.8483853 L34,17.1625616 C33.9941359,15.7950608 32.8915749,14.6845692 31.5219298,14.6666667 L31.5219298,14.6666667 Z M32.3552632,18.8483853 C32.3552632,19.3078669 31.9821671,19.6803503 31.5219298,19.6803503 L29.8442982,19.6803503 C29.384061,19.6803503 29.0109649,19.3078669 29.0109649,18.8483853 L29.0109649,17.1625616 C29.0109649,16.70308 29.384061,16.3305966 29.8442982,16.3305966 L31.5219298,16.3305966 C31.9821671,16.3305966 32.3552632,16.70308 32.3552632,17.1625616 L32.3552632,18.8483853 Z" id="Shape" fill-rule="nonzero"></path>
                </g>
            </g>
        </g>
    </g>
</svg>