<?xml version="1.0" encoding="UTF-8"?>
<svg width="38px" height="36px" viewBox="0 0 38 36" version="1.1" xmlns="http://www.w3.org/2000/svg" xmlns:xlink="http://www.w3.org/1999/xlink">
    <!-- Generator: Sketch 58 (84663) - https://sketch.com -->
    <title>Card_icon Copy</title>
    <desc>Created with Sketch.</desc>
    <g id="1.0-Homepage" stroke="none" stroke-width="1" fill="none" fill-rule="evenodd">
        <g id="1.0.1-Home---Mobile" transform="translate(-326.000000, -407.000000)" fill="#656565">
            <g id="ic_help" transform="translate(325.000000, 405.000000)">
                <g id="Help1" transform="translate(1.333333, 2.000000)">
                    <path d="M37.6666414,24.3725939 C37.6568953,19.1501401 34.04598,14.5708098 28.8283557,13.1639921 C28.5792367,7.44413473 24.676843,2.47262292 19.0341531,0.686523724 C13.3914633,-1.09957547 7.19120024,0.674109169 3.47277287,5.13810601 C-0.245654486,9.60210285 -0.702853786,15.8207461 2.32529702,20.7456169 L0.344307668,27.4459202 L7.37740594,25.5928852 C9.39156033,26.7348064 11.6656991,27.3827383 14.0002402,27.4798172 C15.0029285,30.9656811 17.6316941,33.8030868 21.1120571,35.1560858 C24.5924202,36.5090847 28.5278175,36.2235121 31.7588133,34.3835024 L37.6197285,35.9427635 L36.0021159,30.2932666 C37.0962572,28.4987062 37.6710582,26.454123 37.6666414,24.3725939 Z M7.69389537,23.3104885 L3.53264555,24.4403879 L4.68138494,20.3614511 L4.42350467,19.9659863 C2.08188576,16.3878288 1.94140124,11.8660223 4.05668889,8.15920621 C6.17197655,4.45239009 10.2091493,2.14566592 14.5980535,2.13617419 C19.7157878,2.16553312 24.2571466,5.30484545 25.9275096,9.96790541 C27.5978727,14.6309654 26.0335437,19.8024622 22.0249339,22.8693847 C18.0163241,25.9363072 12.4362476,26.2308794 8.10415943,23.6042623 L7.69389537,23.3104885 Z M34.478278,32.9259322 L31.3837147,32.1011056 L30.9734507,32.3609825 C28.4116654,33.9589285 25.2277018,34.3264099 22.3469619,33.3566201 C19.466222,32.3868303 17.2118657,30.1885598 16.2391098,27.4007242 C22.8015964,26.6590407 27.9768637,21.6704587 28.7463029,15.3446979 C31.6384662,16.282364 33.9190015,18.4553998 34.9250833,21.232224 C35.9311651,24.0090481 35.5499317,27.078158 33.8921864,29.547533 L33.6225843,29.9429978 L34.478278,32.9259322 Z" id="Shape" fill-rule="nonzero"></path>
                    <polygon id="Path" fill-rule="nonzero" points="14.3333333 19.3333333 16.3333333 19.3333333 16.3333333 21.3333333 14.3333333 21.3333333"></polygon>
                    <path d="M17.3020335,10.9180365 C17.3089717,11.508135 17.0356351,12.0725675 16.551379,12.4681171 L13.7989793,14.7310084 L13.7989793,17.3333333 L16.1385191,17.3333333 L16.1385191,15.6701082 L18.1152425,14.0295121 C19.7143914,12.7327566 20.1282884,10.6163289 19.1179613,8.90219325 C18.1076342,7.18805759 15.9340465,6.31896839 13.8521651,6.79671272 C11.7702837,7.27445705 10.3178502,8.97563544 10.3334579,10.9180365 L12.6604867,10.9180365 C12.5964168,10.1272705 13.026597,9.37047768 13.774955,8.95741259 C14.523313,8.54434749 15.464229,8.54434749 16.2125871,8.95741259 C16.9609451,9.37047768 17.3911253,10.1272705 17.3270553,10.9180365 L17.3020335,10.9180365 Z" id="Path" fill-rule="nonzero"></path>
                </g>
            </g>
        </g>
    </g>
</svg>