<?xml version="1.0" encoding="UTF-8"?>
<svg width="32px" height="29px" viewBox="0 0 32 29" version="1.1" xmlns="http://www.w3.org/2000/svg" xmlns:xlink="http://www.w3.org/1999/xlink">
    <!-- Generator: Sketch 58 (84663) - https://sketch.com -->
    <title>Card_icon Copy 5</title>
    <desc>Created with Sketch.</desc>
    <g id="1.0-Homepage" stroke="none" stroke-width="1" fill="none" fill-rule="evenodd">
        <g id="1.0.1-Home---Mobile" transform="translate(-329.000000, -510.000000)" fill="#656565">
            <g id="ic_insure" transform="translate(325.000000, 504.000000)">
                <g id="Insure1" transform="translate(4.666667, 6.000000)">
                    <path d="M28.2066571,4.88455669 C25.880457,2.83195866 23.1204962,1.33332943 20.1336667,0.501009082 C17.8539467,-0.0948050437 15.4682991,-0.160134701 13.1594747,0.310024642 C10.5633466,0.876088662 8.12532809,2.01303915 6.0218251,3.63861059 L3.76066129,1.34679731 C3.28464697,0.945049107 2.5807841,0.975075467 2.14060698,1.41590784 C1.70042985,1.85674022 1.67044812,2.56165086 2.07159917,3.03837378 L5.09556523,6.06684132 C5.53647753,6.51553919 6.25113598,6.53952988 6.72106049,6.1214083 C8.77336177,4.30250888 15.8020396,-0.744937024 24.5924274,5.13920261 L24.1474594,5.33928155 C22.6581789,6.07593582 20.6966874,7.6947563 19.543403,11.2143267 C17.5620338,11.7800776 15.7521288,12.8301351 14.2764351,14.2700777 C12.829444,15.7561912 11.7718979,17.5776281 11.1979832,19.5721695 C7.6745633,20.7180762 6.06722999,22.7370545 5.3225897,24.1921741 C5.24994187,24.3467805 5.18637502,24.4922925 5.13188914,24.6378044 C0.891071888,18.2716565 2.28046169,12.8149582 4.35092494,9.17715934 C4.62156352,8.805594 4.65447952,8.31120256 4.43549456,7.90694154 C4.21650959,7.50268051 3.78473757,7.26075684 3.32616203,7.28537787 C2.86758649,7.3099989 2.46411574,7.59676695 2.28954267,8.0221582 C0.0919457239,11.823658 -2.47797137,19.5176026 4.86854075,28.2483198 C5.09671449,28.5125573 5.42781946,28.6650923 5.77663866,28.6666667 C5.93504507,28.6628469 6.0916513,28.6320941 6.2397686,28.5757217 C6.71990563,28.3710454 7.01080233,27.8768911 6.95716595,27.3570591 C6.95716595,27.3570591 6.6302507,23.3009134 12.4965632,21.6729984 C12.9495589,21.5715122 13.3033258,21.2172187 13.4046611,20.7635487 C13.8213104,18.9626544 14.7190524,17.3091045 16.0018212,15.9798432 C17.3116524,14.7031401 18.9494351,13.815343 20.7330113,13.415195 C21.1714653,13.3226179 21.5217514,12.9928588 21.6411092,12.5603123 C23.2302806,6.83077908 27.0896967,6.99448003 27.3258021,7.01266902 C27.8514036,7.08011415 28.3581795,6.79126513 28.5686938,6.30425329 C28.779208,5.81724144 28.6426995,5.24949974 28.2339001,4.91184019 L28.2066571,4.88455669 Z" id="Path" fill-rule="nonzero"></path>
                    <path d="M30.1887475,20.20228 L28.7972322,18.8577274 C28.494696,18.5599027 28.0528675,18.4427347 27.6381791,18.5503594 C27.2234907,18.6579841 26.8989436,18.9740508 26.7867914,19.3795002 C26.6746393,19.7849496 26.7919207,20.2181843 27.0944568,20.516009 L28.4768175,21.8695253 C28.8412235,22.2295506 29.0452827,22.7161634 29.0444093,23.2230416 C29.0444093,24.2725489 28.1754845,25.1233426 27.1036115,25.1233426 C26.5859315,25.1241978 26.0889487,24.9243965 25.7212509,24.5675942 L18.6538178,17.6117753 C18.1739387,17.2158057 17.4643613,17.2454002 17.0206105,17.6798918 C16.5768596,18.1143833 16.5466345,18.8091547 16.9510424,19.2790205 L24.036785,26.2169121 C25.7581041,27.7564101 28.4120237,27.6966907 30.0592946,26.0813916 C31.7065655,24.4660925 31.7636111,21.8674636 30.1887475,20.1843526 L30.1887475,20.20228 Z" id="Path" fill-rule="nonzero"></path>
                </g>
            </g>
        </g>
    </g>
</svg>