<?xml version="1.0" encoding="UTF-8"?>
<svg width="36px" height="40px" viewBox="0 0 36 40" version="1.1" xmlns="http://www.w3.org/2000/svg" xmlns:xlink="http://www.w3.org/1999/xlink">
    <!-- Generator: Sketch 58 (84663) - https://sketch.com -->
    <title>Card_icon Copy 4</title>
    <desc>Created with Sketch.</desc>
    <g id="1.0-Homepage" stroke="none" stroke-width="1" fill="none" fill-rule="evenodd">
        <g id="1.0.1-Home---Mobile" transform="translate(-189.000000, -504.000000)" fill="#656565">
            <g id="ic_Invest" transform="translate(187.000000, 504.000000)">
                <g id="Invest1" transform="translate(2.666667, 0.666667)">
                    <path d="M31.7100653,24.2191533 L31.7100653,10.0803683 C31.7073513,9.87398513 31.6159924,9.67761686 31.4571678,9.53678687 C31.2983432,9.39595688 31.0858457,9.32289518 30.8689378,9.33453941 L27.6165785,9.33453941 C27.3975088,9.32295458 27.1827119,9.39539367 27.0203624,9.53561005 C26.858013,9.67582643 26.7616988,9.87208477 26.7530211,10.0803683 L26.7530211,22.8660065 C26.2165753,22.8848573 25.6832784,22.9526488 25.1604865,23.0684458 L25.1604865,14.2463554 C25.1547604,14.0361939 25.0597289,13.8371851 24.8970447,13.6946724 C24.7343605,13.5521596 24.5178806,13.4782819 24.296929,13.4898718 L21.0445697,13.4898718 C20.8265777,13.4812176 20.614177,13.556739 20.4557315,13.69924 C20.297286,13.8417409 20.2062824,14.0390917 20.2034423,14.2463554 L20.2034423,26.1689631 C19.1940881,27.5032937 18.6561495,29.107356 18.6668225,30.7504835 C18.6675051,34.5154595 21.4590644,37.7592098 25.3429136,38.5078153 C29.2267627,39.2564207 33.1282573,37.3027453 34.673221,33.835659 C36.2181847,30.3685728 34.9791327,26.3474036 31.7100653,24.2191533 L31.7100653,24.2191533 Z M28.4352759,10.9220895 L30.0390255,10.9220895 L30.0390255,23.3774321 C29.523058,23.1807418 28.9849114,23.0413074 28.4352759,22.9618988 L28.4352759,10.9220895 Z M21.8856971,15.0774219 L23.4782317,15.0774219 L23.4782317,23.6011807 C22.9152807,23.8489106 22.38147,24.1524803 21.8856971,24.5068301 L21.8856971,15.0774219 Z M32.7306332,33.9575477 C31.2565583,36.3236824 28.3410453,37.5125155 25.5202307,36.8976702 C22.699416,36.2828249 20.6209731,34.0054727 20.3799997,31.2655136 C20.1390263,28.5255545 21.7908511,25.9520969 24.4651545,24.901054 C24.5643411,24.8869166 24.6596183,24.8543305 24.7455303,24.8051617 C25.4636747,24.5531117 26.2229552,24.4232697 26.9885367,24.4215925 C27.1640614,24.4109799 27.3401186,24.4109799 27.5156433,24.4215925 L27.5156433,24.4215925 C28.5235612,24.4916919 29.4997056,24.7874291 30.3642614,25.2846231 C31.89775,26.1313694 33.0108598,27.5258466 33.4554029,29.1571309 C33.899946,30.7884153 33.6389588,32.5208661 32.7306332,33.9682024 L32.7306332,33.9575477 Z" id="Shape" fill-rule="nonzero"></path>
                    <path d="M26.9829364,30.0287082 C26.5106025,30.0328464 26.0820056,29.7992291 25.8977956,29.4372255 C25.7135855,29.0752219 25.8102187,28.6564749 26.1424558,28.3770231 C26.4746928,28.0975713 26.9767819,28.01272 27.4136673,28.1621929 C27.8505527,28.3116658 28.1357719,28.6658812 28.1357981,29.0590112 C28.1424035,29.4795147 28.5503842,29.8190639 29.0556346,29.8245614 C29.5677623,29.8247052 29.986698,29.4850948 30,29.0590112 C29.9952462,28.0303172 29.2370756,27.1080851 28.0867401,26.7317384 L28.0867401,26.0988836 C28.0867401,25.6760819 27.6749153,25.3333333 27.1669037,25.3333333 C26.658892,25.3333333 26.2470672,25.6760819 26.2470672,26.0988836 L26.2470672,26.6500798 C25.4734872,26.81786 24.8121277,27.2352786 24.4093251,27.8099751 C24.0065224,28.3846717 23.8954852,29.069266 24.1007821,29.7122807 C24.4328049,30.8115124 25.6210769,31.581639 26.9829364,31.5802233 C27.6196443,31.5802233 28.1357981,32.0098015 28.1357981,32.5397129 C28.1357981,33.0696244 27.6196443,33.4992026 26.9829364,33.4992026 C26.3344837,33.4667638 25.8289043,33.0191283 25.8300747,32.4784689 C25.8300747,32.0556672 25.4182498,31.7129187 24.9102382,31.7129187 C24.6684762,31.7128432 24.4369536,31.7941444 24.2683276,31.9383314 C24.0997016,32.0825183 24.0083071,32.2773337 24.0149307,32.4784689 L24.0149307,32.4784689 C24.0206336,33.6119873 24.941685,34.6005582 26.2593317,34.8874004 L26.2593317,35.2344498 C26.2593317,35.6572515 26.6711565,36 27.1791682,36 C27.6871798,36 28.0990046,35.6572515 28.0990046,35.2344498 L28.0990046,34.815949 C29.4263692,34.3675062 30.1887697,33.2015511 29.9204466,32.0303795 C29.6521236,30.8592079 28.4277042,30.0085514 26.9952009,29.9980861 L26.9829364,30.0287082 Z" id="Path" fill-rule="nonzero"></path>
                    <path d="M11.0950226,20 L7.57164404,20 C7.07455558,20.0056821 6.67316538,20.3566338 6.66666667,20.7912585 L6.66666667,33.2087415 C6.67316538,33.6433662 7.07455558,33.9943179 7.57164404,34 L11.0950226,34 C11.5921111,33.9943179 11.9935013,33.6433662 12,33.2087415 L12,20.7912585 C11.9935013,20.3566338 11.5921111,20.0056821 11.0950226,20 L11.0950226,20 Z M10.1900452,32.5018839 L8.44042232,32.5018839 L8.44042232,21.582517 L10.1900452,21.582517 L10.1900452,32.5018839 Z" id="Shape" fill-rule="nonzero"></path>
                    <path d="M17.7616206,18 L14.2382967,18 C13.7412159,18.0057181 13.339832,18.3588958 13.3333333,18.7962769 L13.3333333,33.203581 C13.3333333,33.6433526 13.7384992,33.9999307 14.2382967,33.9999307 L17.7616206,33.9999307 C18.0026221,34.0027435 18.2347134,33.9197772 18.405143,33.7698162 C18.5755727,33.6198552 18.6698633,33.4156382 18.6665839,33.203581 L18.6665839,18.7962769 C18.6665839,18.3565053 18.261418,18 17.7616206,18 L17.7616206,18 Z M16.8566572,32.407304 L15.2035909,32.407304 L15.2035909,19.5925539 L16.9169881,19.5925539 L16.8566572,32.407304 Z" id="Shape" fill-rule="nonzero"></path>
                    <path d="M5.12528474,26.6666667 L1.5778284,26.6666667 C1.07734298,26.6724579 0.673209795,27.0301483 0.666666667,27.4731183 L0.666666667,33.1935484 C0.673209795,33.6365183 1.07734298,33.9942088 1.5778284,34 L5.12528474,34 C5.61148627,33.9773497 5.99426679,33.6244418 6,33.1935484 L6,27.4731183 C5.99426679,27.0422249 5.61148627,26.689317 5.12528474,26.6666667 L5.12528474,26.6666667 Z M4.21412301,32.4731183 L2.48899013,32.4731183 L2.48899013,28.2795699 L4.21412301,28.2795699 L4.21412301,32.4731183 Z" id="Shape" fill-rule="nonzero"></path>
                    <path d="M31.8241064,0 L26.0722283,0 C25.6068951,0 25.229668,0.34144991 25.229668,0.76264972 C25.229668,1.18384953 25.6068951,1.52529944 26.0722283,1.52529944 L29.82443,1.52529944 L20.6573743,9.76191641 L17.4668794,6.89435347 C17.3056088,6.75946973 17.0906848,6.68972895 16.8714701,6.70114887 C16.6526288,6.69202333 16.4386536,6.76145622 16.2760609,6.89435347 L0.110137851,21.5270594 C-0.0818378367,21.8326856 -0.0181217932,22.2174981 0.264404897,22.4587539 C0.546931586,22.7000097 0.975052563,22.7351877 1.30095636,22.5439257 L16.8827043,8.50100221 L20.0844333,11.4092398 C20.2385385,11.5597935 20.4531787,11.6477708 20.6798426,11.6532877 C20.9048542,11.6414905 21.1170221,11.5545266 21.2752518,11.4092398 L30.9815461,2.60317771 L30.9815461,5.99951113 C30.9815461,6.42071094 31.3587732,6.76216085 31.8241064,6.76216085 C32.2894396,6.76216085 32.6666667,6.42071094 32.6666667,5.99951113 L32.6666667,0.772818383 C32.6666667,0.349942355 32.291251,0.0055641567 31.8241064,0 Z" id="Path" fill-rule="nonzero"></path>
                </g>
            </g>
        </g>
    </g>
</svg>