<?xml version="1.0" encoding="UTF-8"?>
<svg width="39px" height="28px" viewBox="0 0 39 28" version="1.1" xmlns="http://www.w3.org/2000/svg" xmlns:xlink="http://www.w3.org/1999/xlink">
    <!-- Generator: Sketch 58 (84663) - https://sketch.com -->
    <title>Card_icon Copy 3</title>
    <desc>Created with Sketch.</desc>
    <g id="1.0-Homepage" stroke="none" stroke-width="1" fill="none" fill-rule="evenodd">
        <g id="1.0.1-Home---Mobile" transform="translate(-52.000000, -510.000000)" fill="#656565">
            <g id="ic_Borrow" transform="translate(51.000000, 504.000000)">
                <g id="Borrow1" transform="translate(1.333333, 6.666667)">
                    <path d="M37.9480755,14.6188076 C37.8143106,13.5873236 36.805929,12.8343402 34.8611931,12.267024 C33.0388373,11.7541244 31.1564112,11.4870247 29.2636463,11.4727812 L29.2636463,3.37563132 C29.2659382,3.20926225 29.2073725,3.04781166 29.0990125,2.92177833 C28.8932204,2.06564656 27.8848388,1.33329287 26.1253158,0.796921154 C24.0838151,0.239915153 21.974497,-0.0274342405 19.8589444,0.00267842325 C17.7737141,-0.0300566995 15.694592,0.237418282 13.6851796,0.796921154 C12.3063721,1.21982962 10.6703244,2.01407235 10.6703244,3.37563132 C10.6652277,3.45807096 10.6652277,3.54074785 10.6703244,3.6231875 L10.7526413,7.07865912 C5.83752808,6.14113371 1.09407898,9.37274227 0.1543449,14.2990476 C0.0514330353,14.857012 0,15.42326 0,15.9906814 C0.00081264596,19.4946398 2.01116586,22.6859686 5.16685025,24.19278 C8.32253465,25.6995915 12.061281,25.2534071 14.775878,23.0460325 C16.3674599,23.3975142 17.9925395,23.5739098 19.6222835,23.5720893 C20.0132886,25.6350575 24.5510057,26.6666049 28.7903243,26.6666049 C30.8862268,26.6715776 32.9720924,26.3763395 34.9846684,25.7897801 C36.3634759,25.3565568 37.9995235,24.562314 37.9995235,23.2110699 L37.9995235,14.9076232 C38.0031915,14.8087697 37.9856469,14.7102789 37.9480755,14.6188076 Z M14.1173431,2.24099885 C15.9891356,1.71793689 17.9263142,1.46781365 19.869234,1.49833032 C21.8464758,1.4714858 23.8175748,1.72498858 25.7240211,2.25131369 C27.3703584,2.74642604 27.720205,3.28279775 27.720205,3.37563132 C27.720205,3.46846489 27.3703584,4.0048366 25.7137315,4.48963411 C23.8193787,5.00519625 21.8628967,5.25512925 19.9001029,5.23230264 C18.0191083,5.25641754 16.1433883,5.02744872 14.3231353,4.55152316 C12.6870876,4.07704048 12.2652137,3.52003909 12.203476,3.38594616 C12.203476,3.38594616 12.203476,3.38594616 12.203476,3.38594616 C12.203476,3.38594616 12.5121642,2.74642604 14.1173431,2.25131369 L14.1173431,2.24099885 Z M27.7819427,5.26324716 L27.7819427,7.22306689 C27.707762,7.32821096 27.6714749,7.45552713 27.6790466,7.58408631 C27.6790466,7.68723472 27.3291999,8.20297675 25.672573,8.70840394 C23.7741569,9.22012875 21.8143362,9.46657484 19.8486548,9.44075763 C18.1172398,9.45897292 16.3899167,9.26850145 14.7038508,8.87344139 L14.6421131,8.87344139 C13.9274359,8.30343711 13.1291349,7.8476376 12.2755033,7.52219727 L12.2755033,5.38702525 C12.7978298,5.65257246 13.3460781,5.8634225 13.911551,6.01623053 C15.8691286,6.53010947 17.8869997,6.77645625 19.9103925,6.74858422 C22.0226421,6.78019177 24.1287715,6.51280747 26.1664742,5.95434149 C26.7297542,5.7872164 27.2718493,5.55530912 27.7819427,5.26324716 Z M14.1379223,21.5813251 C11.6465549,23.855237 7.95287352,24.1968528 5.08853651,22.4182714 C2.22419949,20.6396899 0.884073996,17.1723822 1.80527749,13.9234926 C2.72648098,10.6746031 5.68553625,8.43228865 9.05485592,8.42989932 C9.82141368,8.42913812 10.5839935,8.54033083 11.3185697,8.75997815 C13.9267859,9.59149906 15.890318,11.7606176 16.4633738,14.4434553 C16.5581447,14.9467939 16.6063674,15.4578271 16.6075065,15.9700518 C16.6171581,18.1072931 15.7191764,20.1477096 14.1379223,21.5813251 Z M16.062079,21.7566774 C16.6629495,21.0025464 17.1452736,20.1607575 17.4923346,19.2604859 C18.1302903,19.2604859 18.819694,19.3430047 19.5502562,19.3533195 L19.5502562,19.4874124 L19.5502562,22.0661226 C18.3817631,22.0444848 17.216203,21.941085 16.062079,21.7566774 L16.062079,21.7566774 Z M18.0685526,15.0932903 C18.5212954,15.0932903 18.9843278,15.0932903 19.4473601,15.0932903 L19.4473601,15.1448645 L19.4473601,17.7751489 C18.9123005,17.7751489 18.4183993,17.7751489 17.8833397,17.7132598 C17.9975432,17.1287603 18.0561139,16.5347091 18.058263,15.9391072 C18.0799266,15.6576876 18.0833636,15.3751559 18.0685526,15.0932903 L18.0685526,15.0932903 Z M19.9309717,13.6388978 L19.869234,13.6388978 C19.1386719,13.6388978 18.4389785,13.6388978 17.8113124,13.5563791 C17.5270992,12.5469253 17.0710826,11.5942702 16.4633738,10.7404276 C17.5998085,10.8851222 18.7442488,10.9574711 19.8898133,10.9570392 C22.0053658,10.9871519 24.1146839,10.7198025 26.1561846,10.1627965 C26.7165238,9.98288333 27.2604366,9.75512208 27.7819427,9.48201699 L27.7819427,11.5449851 C24.5304265,11.5759296 21.1760143,12.267024 19.9309717,13.6388978 L19.9309717,13.6388978 Z M20.9599325,14.8044748 C21.0319598,14.5878631 21.5875986,14.1030656 23.1413294,13.6595275 C24.9084881,13.2020823 26.7287243,12.9835346 28.5536633,13.0096925 L28.6565594,13.0096925 C30.621707,12.9815634 32.5813763,13.2245197 34.4804776,13.7317313 C36.0753668,14.2165289 36.4560823,14.7013264 36.4766615,14.8354193 L36.4766615,14.8354193 C36.4766615,14.9488825 36.095946,15.4646246 34.4187399,15.9700518 C32.540045,16.4730526 30.600865,16.7125732 28.6565594,16.6817758 C26.8047495,16.7030058 24.9579482,16.4845904 23.1619086,16.0319408 C22.3393471,15.8987324 21.5796268,15.5089172 20.9908013,14.917938 L20.9599325,14.8044748 Z M36.4972408,23.2523293 C36.4972408,23.3554777 36.1576837,23.8815346 34.5525048,24.3766469 C32.6805703,24.8990063 30.7434935,25.1491165 28.8006139,25.1193154 C26.8623079,25.152169 24.9291614,24.9090649 23.0590126,24.3972766 C21.4538337,23.9124791 21.1245662,23.3657925 21.1245662,23.2832738 L21.1245662,23.2832738 L21.1245662,21.0862127 C23.5243662,22.058 26.1007025,22.514796 28.6874282,22.427142 C30.7776597,22.4643861 32.8627662,22.2074488 34.8817723,21.6638438 C35.436635,21.4956874 35.9741503,21.2746275 36.4869512,21.003694 L36.4869512,23.3039035 L36.4972408,23.2523293 Z M36.4355031,19.0438743 C36.4355031,19.1470227 36.0856564,19.6627647 34.4496087,20.1681919 C32.5593499,20.685717 30.6055043,20.932283 28.6462698,20.9005456 C24.5304265,20.9005456 21.6802051,19.9618951 21.052539,19.2295414 L21.052539,18.5693916 L21.052539,16.8364984 C21.6040139,17.1168338 22.1834341,17.3381066 22.7811931,17.4966482 C24.7072636,17.9899446 26.6893087,18.2292055 28.6771386,18.2083722 C30.7609026,18.2389779 32.8387706,17.9786075 34.8509035,17.4347591 C35.4330208,17.2742404 35.9955415,17.0493723 36.5281096,16.7642945 L36.5281096,18.7137994 L36.5281096,18.7137994 C36.4869512,18.8169478 36.4252135,18.930411 36.4252135,19.0438743 L36.4355031,19.0438743 Z" id="Shape" fill-rule="nonzero"></path>
                    <path d="M9.32054874,15.4884415 C9.04649496,15.4884415 8.78366571,15.3993478 8.58988043,15.2407599 C8.39609514,15.0821721 8.2872277,14.8670809 8.2872277,14.6428039 C8.24322136,14.3201856 8.42876871,14.0054277 8.76471111,13.8328128 C9.10065352,13.660198 9.52768692,13.660198 9.86362932,13.8328128 C10.1995717,14.0054277 10.3851191,14.3201856 10.3411127,14.6428039 C10.3411127,15.0118174 10.7066504,15.310962 11.1575639,15.310962 C11.6127842,15.3111331 11.9857347,15.0151708 11.9995292,14.6428039 C12.0204183,13.7255774 11.3445054,12.8937789 10.3028416,12.5548098 L10.3028416,12.0014914 C10.3028416,11.6324779 9.93730393,11.3333333 9.48639039,11.3333333 C9.03547685,11.3333333 8.6699392,11.6324779 8.6699392,12.0014914 L8.6699392,12.4817301 C7.9844432,12.6266131 7.39750754,12.9886692 7.03854319,13.48807 C6.67957883,13.9874708 6.57806417,14.5832053 6.75638172,15.1439224 C7.04921125,16.1017266 8.10133291,16.7733249 9.30779169,16.7725578 C9.7280082,16.7683378 10.10949,16.9728077 10.272691,17.289733 C10.4358921,17.6066583 10.3482996,17.9729011 10.0511393,18.2160878 C9.75397895,18.4592745 9.30645105,18.5309574 8.91918639,18.3973988 C8.53192173,18.2638402 8.28207109,17.9516474 8.2872277,17.6077554 C8.2872277,17.2387419 7.92169006,16.9395973 7.47077651,16.9395973 C7.25430597,16.9366466 7.04581992,17.0064431 6.89394103,17.1327089 C6.74206214,17.2589747 6.66006846,17.4306711 6.66708237,17.6077554 L6.66708237,17.6077554 C6.68818916,18.588795 7.49962005,19.4401406 8.65718215,19.6957494 L8.65718215,19.9985086 C8.65718215,20.3675221 9.0227198,20.6666667 9.47363334,20.6666667 C9.92454688,20.6666667 10.2900845,20.3675221 10.2900845,19.9985086 L10.2900845,19.6331096 C11.4494268,19.2383012 12.1118701,18.2324905 11.8774778,17.2229151 C11.6430854,16.2133398 10.5760402,15.4764473 9.32054874,15.4571216 L9.32054874,15.4884415 Z" id="Path" fill-rule="nonzero"></path>
                </g>
            </g>
        </g>
    </g>
</svg>