<svg width="24" height="24" viewBox="0 0 24 24" fill="none" xmlns="http://www.w3.org/2000/svg">
<path d="M15.8073 8.19274C15.9521 8.33763 15.9521 8.57253 15.8073 8.71741C15.6624 8.8623 15.4275 8.8623 15.2826 8.71741C15.1377 8.57253 15.1377 8.33763 15.2826 8.19274C15.4275 8.04786 15.6624 8.04786 15.8073 8.19274" stroke="#292929" stroke-width="1.5" stroke-linecap="round" stroke-linejoin="round"/>
<path fill-rule="evenodd" clip-rule="evenodd" d="M13.5118 4H17.8968C19.0588 4 19.9998 4.941 19.9998 6.102V10.487C19.9998 11.045 19.7778 11.579 19.3838 11.974L10.9738 20.384C10.1528 21.205 8.82175 21.205 8.00075 20.384L3.61575 15.999C2.79475 15.178 2.79475 13.847 3.61575 13.026L12.0258 4.616C12.4198 4.222 12.9548 4 13.5118 4Z" stroke="#292929" stroke-width="1.5" stroke-linecap="round" stroke-linejoin="round"/>
<path d="M5.80957 10.8403L13.1596 18.1903" stroke="#292929" stroke-width="1.5" stroke-linecap="round" stroke-linejoin="round"/>
</svg>
