<svg width="60" height="28" viewBox="0 0 60 28" fill="none" xmlns="http://www.w3.org/2000/svg">
<rect x="0.5" y="0.5" width="59" height="27" rx="3.5" fill="white" stroke="black"/>
<path fill-rule="evenodd" clip-rule="evenodd" d="M7.42581 15.142C5.96774 15.142 4.27742 15.8387 3.36129 16.5613L4.2 18.3162C4.93548 17.6452 6.12258 17.0774 7.19355 17.0774C8.2129 17.0774 8.76774 17.4129 8.76774 18.0968C8.76774 18.5613 8.39355 18.7936 7.69677 18.8839C5.06452 19.2194 3 19.942 3 21.9678C3 23.5678 4.14839 24.5484 5.92903 24.5484C7.20645 24.5484 8.34193 23.8387 8.88387 22.9097V24.2903H11.2581V18.4968C11.2581 16.1097 9.59355 15.142 7.42581 15.142ZM6.53548 22.6903C5.86452 22.6903 5.52903 22.3678 5.52903 21.8258C5.52903 20.8194 6.65161 20.4839 8.70323 20.2645C8.71613 21.6065 7.8 22.6903 6.53548 22.6903ZM33.6452 16.8968V15.4H31.271V24.2903H33.8129V20.0065C33.8129 17.9678 35.0387 17.3742 35.9032 17.3742C36.2387 17.3742 36.6903 17.4774 36.9871 17.6968L37.4516 15.3484C37.0645 15.1807 36.6516 15.142 36.3161 15.142C35.0129 15.142 34.1871 15.7226 33.6452 16.8968ZM49.2452 15.142C47.9032 15.142 46.8968 15.942 46.3677 16.7032C45.8774 15.7097 44.8581 15.142 43.6193 15.142C42.2774 15.142 41.3484 15.8903 40.9097 16.742V15.4H38.4581V24.2903H41V19.7097C41 18.071 41.8645 17.2839 42.6645 17.2839C43.3871 17.2839 44.0581 17.7484 44.0581 18.9613V24.2903H46.6129V19.7097C46.6129 18.0452 47.4516 17.2839 48.2903 17.2839C48.9613 17.2839 49.671 17.7742 49.671 18.9484V24.2903H52.2129V18.1484C52.2129 16.1484 50.871 15.142 49.2452 15.142ZM20.2387 14.742V15.4H16.3806V14.4968C16.3806 13.3226 17.0516 12.9871 17.6323 12.9871C17.9677 12.9871 18.4064 13.0645 18.7677 13.271L19.5548 11.4774C19.0903 11.2065 18.329 10.9613 17.3097 10.9613C15.6839 10.9613 13.8387 11.8774 13.8387 14.7549V15.4129H12.3677V17.3742H13.8387V24.2903H16.3806V17.3613H20.2387V24.2903H22.7806V17.3613H25.0903V15.4H22.7806V14.4968C22.7806 13.3226 23.4516 12.9871 24.0323 12.9871C24.6774 12.9871 25.1677 13.271 25.1677 13.271L25.9548 11.4774C25.9548 11.4774 25.1548 10.9613 23.7097 10.9613C22.0968 10.9484 20.2387 11.8645 20.2387 14.742ZM26.6 15.4H29.1419V24.2903H26.6V15.4Z" fill="#060809"/>
<path fill-rule="evenodd" clip-rule="evenodd" d="M41.4129 3C34.5484 3 28.4323 7.76129 26.7032 13.8903H29.1936C30.6387 9.32258 35.5549 5.32258 41.4129 5.32258C48.5355 5.32258 54.6774 10.7419 54.6774 19.1806C54.6774 21.0774 54.4323 22.7806 53.9678 24.2903H56.3807L56.4065 24.2129C56.8065 22.6516 57 20.9613 57 19.1806C57 9.77419 50.1484 3 41.4129 3Z" fill="#4A4AF4"/>
</svg>
