<svg width="80" height="28" viewBox="0 0 80 28" fill="none" xmlns="http://www.w3.org/2000/svg">
<path d="M66.079 28H13.921C6.23206 28 0 21.7326 0 14C0 6.26744 6.23206 0 13.921 0H66.079C73.7679 0 80 6.26744 80 14C80.0051 21.7275 73.7679 28 66.079 28Z" fill="#B2FCE4"/>
<path d="M68.5755 10.6528L66.8153 9.64558L65.0297 8.62305C63.8494 7.94645 62.3742 8.79601 62.3742 10.1594V10.3883C62.3742 10.5155 62.4403 10.6325 62.5522 10.6935L63.3814 11.1667C63.6103 11.2989 63.8952 11.131 63.8952 10.8665V10.3222C63.8952 10.0526 64.1852 9.88468 64.4192 10.0169L66.0471 10.953L67.6699 11.8839C67.9039 12.0162 67.9039 12.3571 67.6699 12.4893L66.0471 13.4203L64.4192 14.3563C64.1852 14.4886 63.8952 14.3207 63.8952 14.0511V13.7815C63.8952 12.4181 62.4199 11.5635 61.2397 12.2451L59.4541 13.2677L57.6939 14.2749C56.5086 14.9566 56.5086 16.671 57.6939 17.3527L59.4541 18.36L61.2397 19.3825C62.4199 20.0591 63.8952 19.2095 63.8952 17.8462V17.6172C63.8952 17.4901 63.8291 17.373 63.7172 17.312L62.888 16.8389C62.659 16.7066 62.3742 16.8745 62.3742 17.139V17.6834C62.3742 17.953 62.0842 18.1209 61.8502 17.9886L60.2223 17.0526L58.5994 16.1216C58.3654 15.9893 58.3654 15.6485 58.5994 15.5162L60.2223 14.5853L61.8502 13.6492C62.0842 13.5169 62.3742 13.6848 62.3742 13.9544V14.2241C62.3742 15.5874 63.8494 16.4421 65.0297 15.7604L66.8153 14.7379L68.5755 13.7306C69.7608 13.0438 69.7608 11.3345 68.5755 10.6528Z" fill="black"/>
<path d="M57.0275 10.9884L52.9069 19.4993H51.1976L52.739 16.3198L50.3124 10.9884H52.0675L53.6241 14.5596L55.3233 10.9884H57.0275Z" fill="black"/>
<path d="M15.826 14.0111C15.826 12.9936 15.0883 12.2814 14.1828 12.2814C13.2773 12.2814 12.5396 13.0089 12.5396 14.0111C12.5396 15.0031 13.2773 15.7407 14.1828 15.7407C15.0883 15.7407 15.826 15.0285 15.826 14.0111ZM15.8412 17.0329V16.2495C15.3936 16.7938 14.7271 17.1295 13.9335 17.1295C12.2751 17.1295 11.0186 15.8018 11.0186 14.0111C11.0186 12.2356 12.326 10.8824 13.9691 10.8824C14.7424 10.8824 15.3936 11.2233 15.8412 11.7524V10.9893H17.3267V17.0329H15.8412Z" fill="black"/>
<path d="M24.5506 15.6896C24.0318 15.6896 23.8842 15.4963 23.8842 14.9875V12.3066H24.8406V10.989H23.8842V9.51369H22.3631V10.989H20.3995V10.3887C20.3995 9.87997 20.5928 9.68666 21.127 9.68666H21.4627V8.5166H20.7302C19.4736 8.5166 18.8784 8.92866 18.8784 10.1852V10.9941H18.0339V12.3066H18.8784V17.0326H20.3995V12.3066H22.3631V15.2673C22.3631 16.4984 22.8363 17.0326 24.0674 17.0326H24.8508V15.6896H24.5506Z" fill="black"/>
<path d="M30.0143 13.4667C29.9074 12.6833 29.2664 12.2102 28.5135 12.2102C27.7657 12.2102 27.1451 12.668 26.9925 13.4667H30.0143ZM26.9772 14.4078C27.084 15.3032 27.725 15.8119 28.539 15.8119C29.18 15.8119 29.6734 15.5118 29.9634 15.0285H31.5252C31.164 16.3105 30.0143 17.1295 28.5034 17.1295C26.6771 17.1295 25.3951 15.8475 25.3951 14.0212C25.3951 12.1949 26.7483 10.8773 28.539 10.8773C30.3398 10.8773 31.6473 12.2051 31.6473 14.0212C31.6473 14.1535 31.6371 14.2857 31.6117 14.4078H26.9772Z" fill="black"/>
<path d="M41.3333 14.011C41.3333 13.0343 40.5956 12.2814 39.6901 12.2814C38.7846 12.2814 38.0469 13.0089 38.0469 14.011C38.0469 15.003 38.7846 15.7407 39.6901 15.7407C40.5956 15.7407 41.3333 14.9929 41.3333 14.011ZM36.5462 19.5001V10.9892H38.0317V11.7727C38.4793 11.2182 39.1458 10.8773 39.9394 10.8773C41.5724 10.8773 42.8543 12.2203 42.8543 13.9958C42.8543 15.7712 41.5469 17.1244 39.9038 17.1244C39.1407 17.1244 38.515 16.8243 38.0775 16.3155V19.4951H36.5462V19.5001Z" fill="black"/>
<path d="M48.2112 14.0111C48.2112 12.9936 47.4736 12.2814 46.5681 12.2814C45.6625 12.2814 44.9249 13.0089 44.9249 14.0111C44.9249 15.0031 45.6625 15.7407 46.5681 15.7407C47.4736 15.7407 48.2112 15.0285 48.2112 14.0111ZM48.2265 17.0329V16.2495C47.7788 16.7938 47.1124 17.1295 46.3188 17.1295C44.6603 17.1295 43.4038 15.8018 43.4038 14.0111C43.4038 12.2356 44.7112 10.8824 46.3544 10.8824C47.1276 10.8824 47.7788 11.2233 48.2265 11.7524V10.9893H49.7119V17.0329H48.2265Z" fill="black"/>
<path d="M33.8653 11.5794C33.8653 11.5794 34.2418 10.8773 35.1727 10.8773C35.5695 10.8773 35.8239 11.0147 35.8239 11.0147V12.5561C35.8239 12.5561 35.2643 12.2102 34.7505 12.2814C34.2367 12.3526 33.9111 12.8206 33.9111 13.4514V17.0278H32.3748V10.9892H33.8602V11.5794H33.8653Z" fill="black"/>
</svg>
