<svg width="40" height="26" viewBox="0 0 40 26" fill="none" xmlns="http://www.w3.org/2000/svg">
<mask id="mask0_13085_26859" style="mask-type:alpha" maskUnits="userSpaceOnUse" x="0" y="0" width="40" height="26">
<rect width="40" height="26" rx="2" fill="#D9D9D9"/>
</mask>
<g mask="url(#mask0_13085_26859)">
<path d="M0 0H40V26H0V0Z" fill="#0071CE"/>
<path d="M22.696 3.40042C24.1401 3.40255 25.5831 3.39723 27.0271 3.40255C27.5443 4.55821 28.0423 5.72346 28.5776 6.87168C28.5946 5.71495 28.5829 4.55821 28.584 3.40148C30.3696 3.40042 32.1563 3.39829 33.9431 3.40255C34.2506 4.26983 34.5368 5.14563 34.8784 6.00014C35.1988 5.13818 35.4988 4.26983 35.8074 3.40361C37.1855 3.39723 38.5647 3.40255 39.9427 3.40042V4.53374C38.8435 4.5348 37.7442 4.53267 36.6449 4.53587C36.0543 6.16083 35.4946 7.79855 34.8731 9.41181C34.2804 7.79004 33.7068 6.16189 33.1247 4.53693C31.9988 4.53161 30.873 4.53374 29.7471 4.5348C29.745 7.14942 29.7588 9.76404 29.7407 12.3776C28.5499 9.77575 27.4304 7.13985 26.2546 4.53055C25.3266 4.53906 24.3987 4.52842 23.4707 4.538C22.3193 7.17815 21.1456 9.80874 19.9867 12.4457C20.7806 12.4436 21.5734 12.4532 22.3672 12.4383C22.579 11.9094 22.8003 11.3847 23.0185 10.8591C24.2295 10.8591 25.4405 10.8622 26.6515 10.858C26.8771 11.3794 27.0984 11.9041 27.3113 12.4319C28.8319 12.4638 30.3537 12.4372 31.8754 12.4457C31.8892 10.6175 31.8499 8.78715 31.8946 6.96C32.5714 8.78396 33.2354 10.6132 33.9101 12.4383C34.5422 12.45 35.1732 12.4468 35.8053 12.4436C36.4789 10.6175 37.1249 8.78077 37.8261 6.96532C37.857 8.79141 37.8293 10.6186 37.84 12.4457C38.5412 12.4457 39.2415 12.4457 39.9427 12.4457V13.5748C39.0212 13.579 38.1007 13.5748 37.1802 13.5769C36.4119 14.4186 35.635 15.2529 34.8763 16.1021C34.108 15.2668 33.3471 14.424 32.5884 13.579C31.6551 13.5694 30.7219 13.5875 29.7897 13.5684C29.812 13.612 29.8556 13.7003 29.878 13.745C31.0954 14.9848 32.2713 16.2671 33.4642 17.5313C32.2213 18.837 30.9943 20.1587 29.7503 21.4633C29.7492 20.8578 29.7503 20.2513 29.7503 19.6458C28.2264 19.6447 26.7026 19.6447 25.1787 19.6458C25.1798 19.2371 25.1798 18.8295 25.1787 18.4209C26.6643 18.4209 28.1509 18.422 29.6375 18.4209C29.6364 17.8271 29.6364 17.2333 29.6396 16.6395C28.1551 16.6299 26.6696 16.6321 25.1851 16.6385C25.1798 16.2288 25.1798 15.818 25.1798 15.4072C26.7036 15.3998 28.2275 15.4051 29.7503 15.404C29.7492 14.8422 29.7397 14.2803 29.7684 13.7195C29.7152 13.6652 29.663 13.612 29.6088 13.5599C27.4113 13.5992 25.2117 13.5641 23.0132 13.578C23.0238 16.2149 22.9929 18.853 23.0291 21.4889C26.1822 21.4899 29.3353 21.4867 32.4884 21.4899C33.2705 20.6375 34.0452 19.7798 34.8274 18.9264C35.5989 19.7852 36.3714 20.6429 37.1557 21.491C38.0847 21.4867 39.0137 21.4921 39.9427 21.4867V22.6062C38.819 22.6083 37.6963 22.6062 36.5726 22.6073C35.9798 21.9656 35.3977 21.3143 34.8146 20.6652C34.2261 21.309 33.6344 21.9507 33.0555 22.6041C29.3108 22.6094 25.565 22.6105 21.8192 22.603C21.8277 19.5936 21.8171 16.5842 21.8245 13.5748C20.6167 13.5716 19.4078 13.5748 18.2 13.5737C19.6973 10.1823 21.1956 6.78974 22.696 3.40042Z" fill="white"/>
<path d="M23.7666 9.07979C24.1316 8.23166 24.4476 7.36225 24.8488 6.53115C25.1979 7.38141 25.5618 8.22634 25.9013 9.08086C25.1893 9.08086 24.4774 9.08298 23.7666 9.07979Z" fill="white"/>
<path d="M36.2267 17.5089C37.459 16.2032 38.703 14.9092 39.9427 13.6109V15.2221C39.2542 16.0106 38.4976 16.7374 37.7953 17.5143C38.5189 18.2709 39.2393 19.0307 39.9427 19.8064V21.4601C38.72 20.1289 37.4665 18.8253 36.2267 17.5089Z" fill="white"/>
</g>
</svg>
