<svg width="59" height="24" viewBox="0 0 59 24" fill="none" xmlns="http://www.w3.org/2000/svg">
<g clip-path="url(#clip0_8203_46507)">
<path d="M10.7861 3.0942C10.0947 3.90485 8.98848 4.54424 7.88223 4.4529C7.74395 3.3568 8.28555 2.1922 8.91934 1.47288C9.61075 0.639391 10.8207 0.0456708 11.8002 0C11.9154 1.14177 11.466 2.2607 10.7861 3.0942ZM11.7887 4.66984C10.1869 4.5785 8.81563 5.57184 8.05508 5.57184C7.28301 5.57184 6.11914 4.71551 4.85157 4.73834C3.20371 4.76118 1.6711 5.68601 0.829887 7.1589C-0.898629 10.1047 0.380473 14.4662 2.05137 16.8639C2.86954 18.0514 3.84903 19.353 5.13965 19.3073C6.36114 19.2617 6.84512 18.5195 8.32012 18.5195C9.80664 18.5195 10.233 19.3073 11.5236 19.2845C12.8604 19.2617 13.7016 18.0971 14.5197 16.9096C15.4531 15.5623 15.8334 14.2493 15.8565 14.1808C15.8334 14.1579 13.2752 13.1874 13.2522 10.2645C13.2291 7.82112 15.2688 6.65652 15.3609 6.58801C14.2086 4.89819 12.4109 4.71551 11.7887 4.66984ZM21.042 1.35871V19.1589H23.8307V13.0733H27.691C31.2172 13.0733 33.6947 10.6755 33.6947 7.20457C33.6947 3.73359 31.2633 1.35871 27.7832 1.35871H21.042ZM23.8307 3.68792H27.0457C29.4656 3.68792 30.8484 4.9667 30.8484 7.21598C30.8484 9.46527 29.4656 10.7555 27.0342 10.7555H23.8307V3.68792ZM38.7881 19.2959C40.5397 19.2959 42.1645 18.4167 42.902 17.0238H42.9596V19.1589H45.5408V10.2988C45.5408 7.72978 43.4666 6.07421 40.2746 6.07421C37.3131 6.07421 35.1236 7.75262 35.043 10.059H37.5551C37.7625 8.96289 38.7881 8.24358 40.194 8.24358C41.8994 8.24358 42.8559 9.0314 42.8559 10.4814V11.4634L39.3758 11.6689C36.1377 11.863 34.3861 13.176 34.3861 15.4596C34.3861 17.7659 36.1953 19.2959 38.7881 19.2959ZM39.5371 17.1836C38.0506 17.1836 37.1057 16.4757 37.1057 15.3911C37.1057 14.2721 38.016 13.6213 39.7561 13.5186L42.8559 13.3245V14.3292C42.8559 15.9962 41.427 17.1836 39.5371 17.1836ZM48.9863 24C51.7059 24 52.985 22.9724 54.1027 19.8554L59.0002 6.24548H56.1654L52.8813 16.7612H52.8236L49.5395 6.24548H46.624L51.3486 19.2046L51.0951 19.9924C50.6688 21.3283 49.9774 21.8421 48.7443 21.8421C48.5254 21.8421 48.099 21.8192 47.9262 21.7964V23.9315C48.0875 23.9772 48.7789 24 48.9863 24Z" fill="black"/>
</g>
<defs>
<clipPath id="clip0_8203_46507">
<rect width="59" height="24" fill="white"/>
</clipPath>
</defs>
</svg>
