<svg width="40" height="26" viewBox="0 0 40 26" fill="none" xmlns="http://www.w3.org/2000/svg">
<rect width="40" height="26" rx="2" fill="#231F20"/>
<mask id="mask0_13085_26862" style="mask-type:alpha" maskUnits="userSpaceOnUse" x="1" y="1" width="38" height="24">
<path d="M37.7133 25H2.28669C1.57904 25 1 24.4212 1 23.7138V2.28621C1 1.57883 1.57904 1 2.28669 1H37.7133C38.421 1 39 1.57883 39 2.28621V23.7138C39 24.4212 38.421 25 37.7133 25Z" fill="white"/>
</mask>
<g mask="url(#mask0_13085_26862)">
<path d="M0.817261 0.826092L39.1781 0.823975V25.246L0.822708 25.2467L0.817261 0.826092Z" fill="white"/>
</g>
<mask id="mask1_13085_26862" style="mask-type:alpha" maskUnits="userSpaceOnUse" x="1" y="1" width="38" height="24">
<path d="M37.7133 25H2.28669C1.57904 25 1 24.4212 1 23.7138V2.28621C1 1.57883 1.57904 1 2.28669 1H37.7133C38.421 1 39 1.57883 39 2.28621V23.7138C39 24.4212 38.421 25 37.7133 25Z" fill="white"/>
</mask>
<g mask="url(#mask1_13085_26862)">
<path d="M39.0427 14.4064C39.0427 14.4064 28.5604 21.8003 9.3623 25.1096H39.0427V14.4064Z" fill="#F48120"/>
</g>
<mask id="mask2_13085_26862" style="mask-type:alpha" maskUnits="userSpaceOnUse" x="1" y="1" width="38" height="24">
<path d="M37.7133 25H2.28669C1.57904 25 1 24.4212 1 23.7138V2.28621C1 1.57883 1.57904 1 2.28669 1H37.7133C38.421 1 39 1.57883 39 2.28621V23.7138C39 24.4212 38.421 25 37.7133 25Z" fill="white"/>
</mask>
<g mask="url(#mask2_13085_26862)">
<path d="M4.05996 8.24268H2.45917V13.8314H4.05149C4.89819 13.8314 5.50961 13.6318 6.04628 13.1862C6.68403 12.6587 7.06123 11.8634 7.06123 11.0409C7.06138 9.39171 5.82856 8.24268 4.05996 8.24268ZM5.33394 12.441C4.99124 12.7503 4.54625 12.8852 3.84163 12.8852H3.54901V9.18964H3.84163C4.54625 9.18964 4.97384 9.31563 5.33394 9.64157C5.71114 9.97719 5.93795 10.4975 5.93795 11.0327C5.93795 11.5694 5.71114 12.1055 5.33394 12.441Z" fill="#231F20"/>
</g>
<mask id="mask3_13085_26862" style="mask-type:alpha" maskUnits="userSpaceOnUse" x="1" y="1" width="38" height="24">
<path d="M37.7133 25H2.28669C1.57904 25 1 24.4212 1 23.7138V2.28621C1 1.57883 1.57904 1 2.28669 1H37.7133C38.421 1 39 1.57883 39 2.28621V23.7138C39 24.4212 38.421 25 37.7133 25Z" fill="white"/>
</mask>
<g mask="url(#mask3_13085_26862)">
<path d="M8.65365 8.24268H7.56305V13.8314H8.65365V8.24268Z" fill="#231F20"/>
</g>
<mask id="mask4_13085_26862" style="mask-type:alpha" maskUnits="userSpaceOnUse" x="1" y="1" width="38" height="24">
<path d="M37.7133 25H2.28669C1.57904 25 1 24.4212 1 23.7138V2.28621C1 1.57883 1.57904 1 2.28669 1H37.7133C38.421 1 39 1.57883 39 2.28621V23.7138C39 24.4212 38.421 25 37.7133 25Z" fill="white"/>
</mask>
<g mask="url(#mask4_13085_26862)">
<path d="M11.3203 10.3874C10.6659 10.1454 10.4738 9.98566 10.4738 9.68377C10.4738 9.33167 10.8162 9.06426 11.2861 9.06426C11.6129 9.06426 11.8813 9.19842 12.1655 9.51679L12.7361 8.76993C12.2672 8.3599 11.7061 8.15027 11.0932 8.15027C10.104 8.15027 9.34942 8.83693 9.34942 9.75168C9.34942 10.5217 9.70075 10.9158 10.7249 11.2843C11.1519 11.4348 11.3692 11.535 11.4789 11.6025C11.6968 11.7447 11.8058 11.9461 11.8058 12.1807C11.8058 12.6336 11.4457 12.969 10.9591 12.969C10.439 12.969 10.02 12.709 9.76899 12.2237L9.06451 12.9019C9.56699 13.6391 10.1704 13.9659 11.0001 13.9659C12.1334 13.9659 12.9284 13.2127 12.9284 12.1308C12.9284 11.2428 12.5608 10.8408 11.3203 10.3874Z" fill="#231F20"/>
</g>
<mask id="mask5_13085_26862" style="mask-type:alpha" maskUnits="userSpaceOnUse" x="1" y="1" width="38" height="24">
<path d="M37.7133 25H2.28669C1.57904 25 1 24.4212 1 23.7138V2.28621C1 1.57883 1.57904 1 2.28669 1H37.7133C38.421 1 39 1.57883 39 2.28621V23.7138C39 24.4212 38.421 25 37.7133 25Z" fill="white"/>
</mask>
<g mask="url(#mask5_13085_26862)">
<path d="M13.2725 11.0409C13.2725 12.6836 14.5629 13.9574 16.2235 13.9574C16.693 13.9574 17.095 13.8652 17.5908 13.6318V12.3485C17.1548 12.7847 16.7686 12.9606 16.2743 12.9606C15.176 12.9606 14.3965 12.1645 14.3965 11.0328C14.3965 9.9598 15.2007 9.11327 16.2236 9.11327C16.7438 9.11327 17.1375 9.29885 17.591 9.74215V8.45942C17.1123 8.21667 16.7187 8.11609 16.2494 8.11609C14.597 8.11639 13.2725 9.41606 13.2725 11.0409Z" fill="#231F20"/>
</g>
<mask id="mask6_13085_26862" style="mask-type:alpha" maskUnits="userSpaceOnUse" x="1" y="1" width="38" height="24">
<path d="M37.7133 25H2.28669C1.57904 25 1 24.4212 1 23.7138V2.28621C1 1.57883 1.57904 1 2.28669 1H37.7133C38.421 1 39 1.57883 39 2.28621V23.7138C39 24.4212 38.421 25 37.7133 25Z" fill="white"/>
</mask>
<g mask="url(#mask6_13085_26862)">
<path d="M26.2373 11.9966L24.7464 8.24268H23.555L25.9277 13.9748H26.5145L28.9298 8.24268H27.7476L26.2373 11.9966Z" fill="#231F20"/>
</g>
<mask id="mask7_13085_26862" style="mask-type:alpha" maskUnits="userSpaceOnUse" x="1" y="1" width="38" height="24">
<path d="M37.7133 25H2.28669C1.57904 25 1 24.4212 1 23.7138V2.28621C1 1.57883 1.57904 1 2.28669 1H37.7133C38.421 1 39 1.57883 39 2.28621V23.7138C39 24.4212 38.421 25 37.7133 25Z" fill="white"/>
</mask>
<g mask="url(#mask7_13085_26862)">
<path d="M29.4229 13.8314H32.5157V12.8854H30.5126V11.3768H32.4419V10.4302H30.5126V9.18964H32.5157V8.24268H29.4229V13.8314Z" fill="#231F20"/>
</g>
<mask id="mask8_13085_26862" style="mask-type:alpha" maskUnits="userSpaceOnUse" x="1" y="1" width="38" height="24">
<path d="M37.7133 25H2.28669C1.57904 25 1 24.4212 1 23.7138V2.28621C1 1.57883 1.57904 1 2.28669 1H37.7133C38.421 1 39 1.57883 39 2.28621V23.7138C39 24.4212 38.421 25 37.7133 25Z" fill="white"/>
</mask>
<g mask="url(#mask8_13085_26862)">
<path d="M36.8334 9.89264C36.8334 8.84631 36.1125 8.24268 34.8548 8.24268H33.2379V13.8314H34.3271V11.5863H34.4693L35.9787 13.8314H37.3199L35.5599 11.477C36.3812 11.31 36.8334 10.7484 36.8334 9.89264ZM34.6457 10.8157H34.3272V9.12294H34.663C35.3422 9.12294 35.7114 9.40743 35.7114 9.95132C35.7114 10.5132 35.3422 10.8157 34.6457 10.8157Z" fill="#231F20"/>
</g>
<mask id="mask9_13085_26862" style="mask-type:alpha" maskUnits="userSpaceOnUse" x="1" y="1" width="38" height="24">
<path d="M37.7133 25H2.28669C1.57904 25 1 24.4212 1 23.7138V2.28621C1 1.57883 1.57904 1 2.28669 1H37.7133C38.421 1 39 1.57883 39 2.28621V23.7138C39 24.4212 38.421 25 37.7133 25Z" fill="white"/>
</mask>
<g mask="url(#mask9_13085_26862)">
<path d="M20.921 14.0295C22.5636 14.0295 23.8951 12.6984 23.8951 11.0565C23.8951 9.41447 22.5636 8.08337 20.921 8.08337C19.2784 8.08337 17.9468 9.41447 17.9468 11.0565C17.9468 12.6984 19.2784 14.0295 20.921 14.0295Z" fill="url(#paint0_linear_13085_26862)"/>
<path opacity="0.65" d="M20.921 14.0295C22.5636 14.0295 23.8951 12.6984 23.8951 11.0565C23.8951 9.41447 22.5636 8.08337 20.921 8.08337C19.2784 8.08337 17.9468 9.41447 17.9468 11.0565C17.9468 12.6984 19.2784 14.0295 20.921 14.0295Z" fill="url(#paint1_linear_13085_26862)"/>
</g>
<mask id="mask10_13085_26862" style="mask-type:alpha" maskUnits="userSpaceOnUse" x="1" y="1" width="38" height="24">
<path d="M37.7133 25H2.28669C1.57904 25 1 24.4212 1 23.7138V2.28621C1 1.57883 1.57904 1 2.28669 1H37.7133C38.421 1 39 1.57883 39 2.28621V23.7138C39 24.4212 38.421 25 37.7133 25Z" fill="white"/>
</mask>
<g mask="url(#mask10_13085_26862)">
<path d="M37.5296 8.45288C37.5296 8.35483 37.4621 8.30127 37.3435 8.30127H37.1857V8.79271H37.3029V8.60206L37.4405 8.79271H37.5836L37.422 8.59011C37.4915 8.5715 37.5296 8.52111 37.5296 8.45288ZM37.3229 8.52006H37.3031V8.3916H37.3241C37.3821 8.3916 37.4123 8.41248 37.4123 8.45484C37.4123 8.49812 37.3818 8.52006 37.3229 8.52006Z" fill="#231F20"/>
<path d="M37.3672 8.1178C37.1286 8.1178 36.9392 8.30814 36.9392 8.54614C36.9392 8.78399 37.1308 8.97463 37.3672 8.97463C37.5997 8.97463 37.7901 8.78187 37.7901 8.54614C37.7901 8.31147 37.5997 8.1178 37.3672 8.1178ZM37.3654 8.89807C37.1777 8.89807 37.0241 8.74178 37.0241 8.54674C37.0241 8.35111 37.1757 8.19496 37.3654 8.19496C37.5523 8.19496 37.7047 8.35474 37.7047 8.54674C37.7047 8.74011 37.5524 8.89807 37.3654 8.89807Z" fill="#231F20"/>
</g>
<defs>
<linearGradient id="paint0_linear_13085_26862" x1="22.4433" y1="13.4391" x2="20.3851" y2="10.2154" gradientUnits="userSpaceOnUse">
<stop stop-color="#F89F20"/>
<stop offset="0.2502" stop-color="#F79A20"/>
<stop offset="0.5331" stop-color="#F68D20"/>
<stop offset="0.6196" stop-color="#F58720"/>
<stop offset="0.7232" stop-color="#F48120"/>
<stop offset="1" stop-color="#F37521"/>
</linearGradient>
<linearGradient id="paint1_linear_13085_26862" x1="22.118" y1="13.3953" x2="19.1101" y2="7.51393" gradientUnits="userSpaceOnUse">
<stop stop-color="#F58720" stop-opacity="0"/>
<stop offset="0.3587" stop-color="#E16F27" stop-opacity="0.2704"/>
<stop offset="0.703" stop-color="#D4602C" stop-opacity="0.5299"/>
<stop offset="0.9816" stop-color="#D05B2E" stop-opacity="0.74"/>
</linearGradient>
</defs>
</svg>
