<svg width="62" height="24" viewBox="0 0 62 24" fill="none" xmlns="http://www.w3.org/2000/svg">
<g clip-path="url(#clip0_8203_46370)">
<path d="M29.1184 11.725V18.7602H26.8448V1.38642H32.8747C33.5945 1.37166 34.3101 1.49697 34.9802 1.75513C35.6504 2.01328 36.2618 2.39916 36.7793 2.89049C37.3019 3.352 37.7179 3.91799 37.9992 4.55042C38.2806 5.18286 38.4207 5.86708 38.4103 6.5571C38.4253 7.25082 38.2873 7.93951 38.0057 8.57597C37.7242 9.21243 37.3058 9.78161 36.7793 10.2445C35.7249 11.2315 34.4234 11.7245 32.8747 11.7236H29.1184V11.725ZM29.1184 3.52539V9.5902H32.9312C33.3492 9.60236 33.7652 9.52875 34.1525 9.37407C34.5399 9.21939 34.8901 8.98705 35.1807 8.69191C35.4699 8.41597 35.6997 8.0859 35.8566 7.72125C36.0136 7.35659 36.0944 6.96475 36.0944 6.56888C36.0944 6.17302 36.0136 5.78118 35.8566 5.41652C35.6997 5.05187 35.4699 4.7218 35.1807 4.44586C34.8937 4.1445 34.5447 3.90646 34.1569 3.74754C33.7691 3.58861 33.3513 3.51241 32.9312 3.52401H29.1184V3.52539Z" fill="#5F6368"/>
<path d="M43.6493 6.48486C45.3298 6.48486 46.6563 6.92569 47.6287 7.80734C48.6012 8.68899 49.087 9.89779 49.0861 11.4337V18.76H46.9114V17.1104H46.8125C45.8711 18.4689 44.619 19.1482 43.0562 19.1482C41.7222 19.1482 40.6062 18.76 39.708 17.9837C39.277 17.6274 38.9324 17.1812 38.6994 16.6776C38.4663 16.174 38.3507 15.6257 38.3608 15.0726C38.3608 13.8426 38.8344 12.8643 39.7815 12.138C40.7285 11.4116 41.9929 11.0474 43.5745 11.0456C44.9245 11.0456 46.0363 11.2882 46.91 11.7734V11.2632C46.9125 10.8862 46.8296 10.5133 46.6672 10.1717C46.5048 9.82999 46.2669 9.52809 45.9709 9.28784C45.3697 8.75536 44.5861 8.46482 43.7764 8.47412C42.5064 8.47412 41.5015 8.99997 40.7615 10.0517L38.7591 8.81375C39.8605 7.26116 41.4906 6.48486 43.6493 6.48486ZM40.7078 15.1211C40.7063 15.4052 40.7739 15.6855 40.9051 15.9387C41.0363 16.1919 41.2272 16.4106 41.4619 16.5767C41.9647 16.965 42.5889 17.1707 43.2285 17.1589C44.1879 17.1573 45.1076 16.7825 45.7859 16.1165C46.539 15.4206 46.9156 14.6041 46.9156 13.667C46.2067 13.1125 45.2182 12.8352 43.9501 12.8352C43.0266 12.8352 42.2565 13.0538 41.6398 13.4909C41.0171 13.9345 40.7078 14.4738 40.7078 15.1211Z" fill="#5F6368"/>
<path d="M61.5694 6.87305L53.9777 24.0001H51.6308L54.448 18.0073L49.4561 6.87305H51.9273L55.5353 15.4123H55.5848L59.0939 6.87305H61.5694Z" fill="#5F6368"/>
<path d="M19.931 10.2082C19.9319 9.52801 19.8733 8.84904 19.7559 8.17871H10.1675V12.0228H15.6593C15.5469 12.6367 15.3091 13.222 14.9601 13.7432C14.6111 14.2645 14.1582 14.711 13.6286 15.0559V17.5511H16.9062C18.8253 15.8141 19.931 13.2454 19.931 10.2082Z" fill="#4285F4"/>
<path d="M10.1674 19.9618C12.9112 19.9618 15.2215 19.0774 16.9062 17.5525L13.6286 15.0573C12.7164 15.6645 11.5415 16.011 10.1674 16.011C7.51544 16.011 5.26449 14.256 4.45956 11.8911H1.08313V14.4626C1.92938 16.1157 3.22701 17.5053 4.83116 18.4764C6.4353 19.4474 8.28282 19.9617 10.1674 19.9618Z" fill="#34A853"/>
<path d="M4.45957 11.891C4.03404 10.6517 4.03404 9.30974 4.45957 8.0705V5.49902H1.08314C0.371243 6.88964 0.000488281 8.42441 0.000488281 9.98074C0.000488281 11.5371 0.371243 13.0718 1.08314 14.4625L4.45957 11.891Z" fill="#FBBC04"/>
<path d="M10.1674 3.95095C11.6174 3.9277 13.0185 4.46549 14.0678 5.4481L16.9697 2.59937C15.1296 0.902715 12.6918 -0.0287769 10.1674 0.000166562C8.28282 0.00025088 6.4353 0.514538 4.83116 1.48561C3.22701 2.45668 1.92938 3.84632 1.08313 5.49939L4.45956 8.07086C5.26449 5.70594 7.51544 3.95095 10.1674 3.95095Z" fill="#EA4335"/>
</g>
<defs>
<clipPath id="clip0_8203_46370">
<rect width="61.5652" height="24" fill="white"/>
</clipPath>
</defs>
</svg>
