<svg width="35" height="26" viewBox="0 0 35 26" fill="none" xmlns="http://www.w3.org/2000/svg">
<rect y="5.93555" width="10.0046" height="15.6867" fill="white"/>
<rect x="12.1332" y="5.93555" width="10.0046" height="15.6867" fill="white"/>
<rect x="24.2664" y="5.93555" width="10.0046" height="15.6867" fill="white"/>
<path d="M26.3933 15.8126H28.9121C28.9913 15.8126 29.1409 15.8001 29.2125 15.7846C29.6961 15.6805 30.0986 15.253 30.0986 14.6707C30.0986 14.0881 29.6961 13.6595 29.2125 13.5554C29.1412 13.5399 28.9913 13.5272 28.9121 13.5272H26.3933V15.8126Z" fill="url(#paint0_linear_13085_27320)"/>
<path d="M28.6178 0C26.2148 0 24.2664 1.94006 24.2664 4.33312V8.83392H30.4235C30.5661 8.83392 30.7409 8.84388 30.8496 8.84939C32.243 8.91892 33.2707 9.63182 33.2707 10.8692C33.2707 11.8419 32.5683 12.6725 31.29 12.8597V12.9084C32.7022 13.0059 33.7833 13.7799 33.7833 14.9992C33.7833 16.3182 32.5966 17.1663 31.015 17.1663H24.2664V26H30.6487C33.0517 26 35 24.0597 35 21.6667V0H28.6178Z" fill="url(#paint1_linear_13085_27320)"/>
<path d="M29.8002 11.1825C29.8002 10.6101 29.3976 10.2262 28.924 10.1465C28.8797 10.1391 28.7593 10.1274 28.6762 10.1274H26.3931V12.2371H28.6762C28.7593 12.2371 28.8797 12.2252 28.924 12.2178C29.3976 12.1381 29.8002 11.7546 29.8002 11.1825Z" fill="url(#paint2_linear_13085_27320)"/>
<path d="M4.35156 0C1.94834 0 0.000212949 1.94006 0.000212949 4.33312V15.0346C1.22056 15.6235 2.48134 16.007 3.76448 16.007C5.269 16.007 6.09555 15.0925 6.09555 13.8617V8.83413H9.83789V13.8615C9.83789 15.8278 8.62585 17.4052 4.4665 17.4052C1.96324 17.4052 0 16.8676 0 16.8676V26H6.38206C8.78507 26 10.7334 24.0597 10.7334 21.6667V0H4.35156Z" fill="url(#paint3_linear_13085_27320)"/>
<path d="M16.4845 0C14.0813 0 12.1332 1.94006 12.1332 4.33312V10.0062C13.2356 9.06434 15.1422 8.47588 18.2398 8.61473C19.8978 8.68829 21.6562 9.13112 21.6562 9.13112V10.9658C20.7763 10.5217 19.7209 10.1103 18.3611 10.0077C16.0103 9.83087 14.5956 10.9749 14.5956 13C14.5956 15.0246 16.0103 16.1685 18.3611 15.9909C19.7209 15.8893 20.7903 15.4668 21.6562 15.034V16.8676C21.6562 16.8676 19.8978 17.3104 18.2398 17.3853C15.1422 17.5241 13.2356 16.9357 12.1332 15.9938V25.9996H18.5152C20.9182 25.9996 22.8664 24.0593 22.8664 21.6662V0H16.4845Z" fill="url(#paint4_linear_13085_27320)"/>
<defs>
<linearGradient id="paint0_linear_13085_27320" x1="24.2664" y1="14.6699" x2="35.0275" y2="14.6699" gradientUnits="userSpaceOnUse">
<stop stop-color="#007F49"/>
<stop offset="0.2883" stop-color="#209348"/>
<stop offset="0.7632" stop-color="#50B047"/>
<stop offset="1" stop-color="#62BB46"/>
</linearGradient>
<linearGradient id="paint1_linear_13085_27320" x1="24.2663" y1="13" x2="35.0277" y2="13" gradientUnits="userSpaceOnUse">
<stop stop-color="#007F49"/>
<stop offset="0.2883" stop-color="#209348"/>
<stop offset="0.7632" stop-color="#50B047"/>
<stop offset="1" stop-color="#62BB46"/>
</linearGradient>
<linearGradient id="paint2_linear_13085_27320" x1="24.2663" y1="11.1822" x2="35.0268" y2="11.1822" gradientUnits="userSpaceOnUse">
<stop stop-color="#007F49"/>
<stop offset="0.2883" stop-color="#209348"/>
<stop offset="0.7632" stop-color="#50B047"/>
<stop offset="1" stop-color="#62BB46"/>
</linearGradient>
<linearGradient id="paint3_linear_13085_27320" x1="-0.0138255" y1="13" x2="10.9137" y2="13" gradientUnits="userSpaceOnUse">
<stop stop-color="#333376"/>
<stop offset="0.0931" stop-color="#2E3A7E"/>
<stop offset="0.6984" stop-color="#0D66AE"/>
<stop offset="1" stop-color="#0077C0"/>
</linearGradient>
<linearGradient id="paint4_linear_13085_27320" x1="12.0689" y1="13" x2="22.6818" y2="13" gradientUnits="userSpaceOnUse">
<stop stop-color="#743237"/>
<stop offset="0.404" stop-color="#AB263E"/>
<stop offset="0.8025" stop-color="#DB1C44"/>
<stop offset="1" stop-color="#ED1846"/>
</linearGradient>
</defs>
</svg>
