<svg width="69" height="28" viewBox="0 0 69 28" fill="none" xmlns="http://www.w3.org/2000/svg">
<path d="M60.9005 0H8.0995C3.62627 0 0 3.63795 0 8.12559V19.8744C0 24.362 3.62627 28 8.0995 28H60.9005C65.3737 28 69 24.362 69 19.8744V8.12559C69 3.63795 65.3737 0 60.9005 0Z" fill="#FFB3C7"/>
<path d="M55.4312 12.2686C54.7869 11.8295 54.035 11.5744 53.2564 11.5309C52.4779 11.4873 51.7022 11.6569 51.0129 12.0213C50.3236 12.3857 49.7467 12.9313 49.3443 13.5992C48.9419 14.2671 48.7292 15.0321 48.7292 15.8118C48.7292 16.5915 48.9419 17.3565 49.3443 18.0244C49.7467 18.6923 50.3236 19.2378 51.0129 19.6023C51.7022 19.9667 52.4779 20.1363 53.2564 20.0927C54.035 20.0492 54.7869 19.7941 55.4312 19.355V19.8742H57.8641V11.7488H55.4312V12.2686ZM53.2186 17.9024C52.8099 17.8807 52.4165 17.7396 52.0871 17.4966C51.7577 17.2536 51.5067 16.9194 51.3653 16.5353C51.2238 16.1512 51.1981 15.7341 51.2912 15.3355C51.3844 14.9369 51.5923 14.5744 51.8893 14.2928C52.1863 14.0111 52.5594 13.8227 52.9624 13.7509C53.3653 13.679 53.7805 13.7269 54.1566 13.8886C54.5326 14.0502 54.853 14.3186 55.0782 14.6604C55.3033 15.0022 55.4233 15.4026 55.4233 15.8119C55.4077 16.3813 55.1668 16.9213 54.7534 17.3133C54.3401 17.7052 53.7881 17.9171 53.2186 17.9024Z" fill="black"/>
<path d="M22.0686 8.12781H19.5226V19.8744H22.0686V8.12781Z" fill="black"/>
<path d="M44.409 11.5301C43.9306 11.5018 43.4526 11.5902 43.0161 11.7878C42.5795 11.9854 42.1976 12.2861 41.9031 12.6641V11.7491H39.4803V19.8742H41.9323V15.6041C41.9134 15.3588 41.9476 15.1124 42.0325 14.8815C42.1175 14.6506 42.2511 14.4407 42.4244 14.266C42.5976 14.0914 42.8065 13.9561 43.0367 13.8694C43.2669 13.7827 43.5131 13.7465 43.7586 13.7634C44.8278 13.7634 45.4424 14.4022 45.4424 15.5873V19.8742H47.8726V14.707C47.8725 12.816 46.369 11.5301 44.409 11.5301Z" fill="black"/>
<path d="M29.7656 12.2686C29.1212 11.8295 28.3693 11.5744 27.5908 11.5309C26.8123 11.4873 26.0366 11.6569 25.3472 12.0213C24.6579 12.3857 24.081 12.9313 23.6786 13.5992C23.2762 14.2671 23.0636 15.0321 23.0636 15.8118C23.0636 16.5915 23.2762 17.3565 23.6786 18.0244C24.081 18.6923 24.6579 19.2378 25.3472 19.6023C26.0366 19.9667 26.8123 20.1363 27.5908 20.0927C28.3693 20.0492 29.1212 19.7941 29.7656 19.355V19.8742H32.1984V11.7488H29.7656V12.2686ZM27.5529 17.9024C27.1441 17.8807 26.7507 17.7397 26.4213 17.4967C26.0918 17.2538 25.8408 16.9196 25.6994 16.5355C25.5579 16.1514 25.5321 15.7343 25.6252 15.3357C25.7183 14.9371 25.9262 14.5745 26.2232 14.2928C26.5202 14.0112 26.8933 13.8227 27.2963 13.7509C27.6993 13.679 28.1145 13.7269 28.4905 13.8885C28.8666 14.0502 29.187 14.3185 29.4122 14.6604C29.6373 15.0022 29.7573 15.4026 29.7573 15.8119C29.7417 16.3813 29.5009 16.9213 29.0875 17.3132C28.6742 17.7052 28.1223 17.9171 27.5528 17.9024H27.5529Z" fill="black"/>
<path d="M35.9619 12.8072V11.7489H33.4711V19.8744H35.9672V16.081C35.9672 14.801 37.3546 14.113 38.3173 14.113C38.3269 14.113 38.3364 14.114 38.3461 14.1141V11.7494C37.895 11.7373 37.447 11.826 37.0345 12.009C36.622 12.192 36.2556 12.4647 35.9619 12.8072Z" fill="black"/>
<path d="M60.4469 16.9924C60.1449 16.9924 59.8497 17.082 59.5986 17.2498C59.3475 17.4176 59.1518 17.6561 59.0363 17.9351C58.9207 18.2141 58.8905 18.5211 58.9494 18.8173C59.0083 19.1135 59.1538 19.3856 59.3673 19.5992C59.5809 19.8127 59.8529 19.9581 60.1491 20.017C60.4453 20.076 60.7524 20.0457 61.0314 19.9301C61.3104 19.8146 61.5489 19.6188 61.7167 19.3677C61.8844 19.1166 61.974 18.8214 61.974 18.5194C61.974 18.3189 61.9345 18.1203 61.8578 17.935C61.7811 17.7497 61.6686 17.5814 61.5268 17.4396C61.385 17.2978 61.2166 17.1853 61.0313 17.1086C60.8461 17.0319 60.6475 16.9924 60.4469 16.9924Z" fill="black"/>
<path d="M17.7676 8.12561H15.1291C15.1332 9.18374 14.8884 10.228 14.4145 11.1741C13.9405 12.1202 13.2508 12.9415 12.4009 13.5719L11.3557 14.3548L15.4061 19.8782H18.7361L15.0093 14.7959C15.8882 13.9223 16.5847 12.8828 17.0582 11.7377C17.5318 10.5926 17.7729 9.36476 17.7676 8.12561Z" fill="black"/>
<path d="M11.0333 8.12561H8.39001V19.8777H11.0333V8.12561Z" fill="black"/>
</svg>
