<svg width="42" height="26" viewBox="0 0 42 26" fill="none" xmlns="http://www.w3.org/2000/svg">
<path d="M15.3218 2.78064H26.6781V23.2195H15.3218V2.78064Z" fill="#FF5F00"/>
<path d="M16.0429 13C16.0429 8.84722 17.9897 5.16389 20.982 2.78056C18.7828 1.04723 16.0069 0 12.9785 0C5.80429 0 0 5.81389 0 13C0 20.1861 5.80429 26 12.9785 26C16.0069 26 18.7828 24.9528 20.982 23.2194C17.9897 20.8722 16.0429 17.1528 16.0429 13Z" fill="#EB001B"/>
<path d="M42 13C42 20.1861 36.1957 26 29.0214 26C25.9931 26 23.2171 24.9528 21.018 23.2194C24.0463 20.8361 25.9571 17.1528 25.9571 13C25.9571 8.84722 24.0103 5.16389 21.018 2.78056C23.2171 1.04723 25.9931 0 29.0214 0C36.1957 0 42 5.85 42 13Z" fill="#F79E1B"/>
</svg>
