<svg width="42" height="26" viewBox="0 0 42 26" fill="none" xmlns="http://www.w3.org/2000/svg">
<path d="M8.2251 0H18.7081C20.1715 0 21.0816 1.18039 20.7402 2.63338L15.8596 23.3707C15.5152 24.8186 14.0501 26 12.5857 26H2.10372C0.642431 26 -0.269758 24.8186 0.0716099 23.3707L4.95425 2.63338C5.29562 1.18039 6.75998 0 8.2251 0Z" fill="#E21836"/>
<path d="M17.8358 0H29.891C31.3541 0 30.6944 1.18039 30.3502 2.63338L25.4704 23.3707C25.128 24.8186 25.2348 26 23.7686 26H11.7134C10.2473 26 9.33995 24.8186 9.68439 23.3707L14.564 2.63338C14.9104 1.18039 16.3717 0 17.8358 0Z" fill="#00447C"/>
<path d="M29.4129 0H39.8959C41.3613 0 42.2714 1.18039 41.9272 2.63338L37.0474 23.3707C36.703 24.8186 35.2368 26 33.7717 26H23.2935C21.8274 26 20.918 24.8186 21.2614 23.3707L26.142 2.63338C26.4834 1.18039 27.9467 0 29.4129 0Z" fill="#007B84"/>
<path d="M10.3542 8.45287C9.27618 8.46375 8.9578 8.45287 8.85611 8.42911C8.81702 8.61294 8.08956 11.9339 8.08752 11.9367C7.93089 12.6085 7.81693 13.0875 7.42982 13.3967C7.21008 13.5765 6.95354 13.6632 6.65612 13.6632C6.17805 13.6632 5.89954 13.4283 5.85278 12.9828L5.84384 12.8298C5.84384 12.8298 5.98948 11.9298 5.98948 11.9248C5.98948 11.9248 6.75296 8.89843 6.88966 8.49839C6.89682 8.47563 6.89886 8.46375 6.90065 8.45287C5.41457 8.46577 5.15114 8.45287 5.133 8.42911C5.12303 8.46173 5.08624 8.64935 5.08624 8.64935L4.30666 12.0603L4.23971 12.3496L4.11017 13.2958C4.11017 13.5765 4.16587 13.8056 4.27676 13.9993C4.63193 14.6135 5.64505 14.7056 6.21817 14.7056C6.95661 14.7056 7.64931 14.5503 8.11741 14.2668C8.92995 13.7917 9.14254 13.049 9.33213 12.389L9.42003 12.0504C9.42003 12.0504 10.2065 8.90728 10.3401 8.49839C10.3453 8.47563 10.3473 8.46375 10.3542 8.45287ZM13.0301 10.9885C12.8405 10.9885 12.4941 11.034 12.1828 11.185C12.0699 11.2424 11.9631 11.3086 11.8504 11.3746L11.9521 11.0113L11.8964 10.9501C11.2364 11.0823 11.0887 11.1 10.4791 11.185L10.428 11.2186C10.3572 11.7994 10.2943 12.2362 10.0319 13.3779C9.93201 13.7986 9.82827 14.2234 9.72427 14.6432L9.75238 14.6966C10.3771 14.6639 10.5667 14.6639 11.1097 14.6728L11.1536 14.6255C11.2226 14.2758 11.2316 14.1939 11.3844 13.4856C11.4562 13.1498 11.6059 12.4119 11.6797 12.1492C11.8154 12.087 11.9493 12.0258 12.0771 12.0258C12.3814 12.0258 12.3443 12.2885 12.3326 12.3932C12.3195 12.5689 12.2086 13.1429 12.0949 13.6358L12.0191 13.9539C11.9662 14.1888 11.9082 14.4171 11.8553 14.65L11.8783 14.6966C12.4941 14.6639 12.6819 14.6639 13.2077 14.6728L13.2695 14.6255C13.3646 14.0793 13.3925 13.9332 13.5611 13.1379L13.6459 12.7725C13.8107 12.0574 13.8935 11.6948 13.7688 11.3994C13.637 11.0684 13.3207 10.9885 13.0301 10.9885ZM16.0195 11.7372C15.6921 11.7994 15.4834 11.8409 15.2759 11.8677C15.0702 11.9003 14.8696 11.9299 14.5533 11.9734L14.5283 11.9959L14.5053 12.0139C14.4723 12.247 14.4493 12.4485 14.4056 12.6855C14.3686 12.9305 14.3116 13.2089 14.2188 13.609C14.147 13.9152 14.11 14.0219 14.0691 14.1296C14.0292 14.2373 13.9853 14.342 13.9046 14.6432L13.9235 14.671L13.9393 14.6965C14.2349 14.6826 14.4284 14.6728 14.6272 14.671C14.8257 14.6639 15.0314 14.671 15.3497 14.6728L15.3776 14.6503L15.4075 14.6255C15.4535 14.3539 15.4604 14.2808 15.4885 14.1483C15.5163 14.0062 15.5644 13.8095 15.6822 13.284C15.7379 13.0372 15.8 12.7912 15.8577 12.5393C15.9178 12.2885 15.9806 12.0414 16.0404 11.7946L16.0315 11.7648L16.0195 11.7372ZM16.0264 10.7277C15.729 10.554 15.207 10.6091 14.8557 10.8491C14.5053 11.0843 14.4655 11.418 14.7619 11.594C15.0542 11.763 15.5783 11.7126 15.9265 11.4706C16.2761 11.2304 16.3198 10.8997 16.0264 10.7277ZM17.8251 14.751C18.4269 14.751 19.0437 14.5869 19.508 14.0998C19.8652 13.7049 20.0289 13.1172 20.0857 12.8752C20.2704 12.0731 20.1266 11.6986 19.9459 11.4705C19.6715 11.1228 19.1865 11.0113 18.6834 11.0113C18.3809 11.0113 17.6603 11.0409 17.0974 11.5545C16.6932 11.9249 16.5064 12.4276 16.3937 12.9096C16.28 13.4007 16.1492 14.2847 16.9707 14.6137C17.2242 14.7214 17.5895 14.751 17.8251 14.751ZM17.7781 12.9463C17.9169 12.3389 18.0806 11.8291 18.4987 11.8291C18.8262 11.8291 18.85 12.2084 18.7044 12.8178C18.6783 12.9531 18.5587 13.456 18.397 13.6702C18.284 13.8283 18.1504 13.9241 18.0027 13.9241C17.9588 13.9241 17.6974 13.9241 17.6933 13.54C17.6912 13.3503 17.7303 13.1566 17.7781 12.9463ZM21.5899 14.6729L21.6369 14.6256C21.7036 14.2759 21.7146 14.1937 21.8623 13.4857C21.9361 13.1498 22.0889 12.412 22.1607 12.1492C22.2966 12.0868 22.4282 12.0256 22.5601 12.0256C22.8624 12.0256 22.8256 12.2883 22.8136 12.393C22.8026 12.569 22.6917 13.1428 22.5759 13.6356L22.5041 13.9537C22.4492 14.1889 22.3894 14.417 22.3365 14.6501L22.3595 14.6966C22.9773 14.664 23.158 14.664 23.6869 14.6729L23.7508 14.6256C23.8435 14.0791 23.8686 13.933 24.0423 13.138L24.1251 12.7723C24.2907 12.0572 24.3745 11.6948 24.2519 11.3995C24.1162 11.0685 23.7978 10.9886 23.5114 10.9886C23.3215 10.9886 22.9733 11.0338 22.6638 11.185C22.5532 11.2425 22.4423 11.3084 22.3334 11.3747L22.4282 11.0113L22.3774 10.9499C21.7176 11.0824 21.5669 11.1001 20.958 11.185L20.9112 11.2187C20.8374 11.7995 20.7774 12.236 20.5149 13.3779C20.415 13.7987 20.3113 14.2235 20.2076 14.6433L20.2354 14.6966C20.8612 14.664 21.0479 14.664 21.5899 14.6729ZM26.1292 14.6965C26.1681 14.5089 26.3988 13.3968 26.4009 13.3968C26.4009 13.3968 26.5974 12.5808 26.6094 12.5512C26.6094 12.5512 26.6712 12.4662 26.733 12.4326H26.824C27.6823 12.4326 28.6514 12.4326 29.4111 11.8796C29.928 11.5003 30.2814 10.9401 30.439 10.2594C30.4799 10.0925 30.5101 9.89403 30.5101 9.69552C30.5101 9.43482 30.4572 9.17689 30.3044 8.97535C29.917 8.43902 29.1456 8.42916 28.2551 8.42511C28.2523 8.42511 27.8162 8.42916 27.8162 8.42916C26.6763 8.44306 26.2192 8.43902 26.0314 8.41626C26.0155 8.49844 25.9856 8.6446 25.9856 8.6446C25.9856 8.6446 25.5773 10.5173 25.5773 10.5204C25.5773 10.5204 24.6002 14.5021 24.5543 14.6897C25.5495 14.6778 25.9575 14.6778 26.1292 14.6965ZM26.8858 11.3698C26.8858 11.3698 27.32 9.50081 27.3179 9.5079L27.332 9.41206L27.3381 9.33898L27.5116 9.35668C27.5116 9.35668 28.4069 9.43279 28.4279 9.43482C28.7812 9.5701 28.9269 9.91881 28.8252 10.374C28.7324 10.7899 28.4598 11.1397 28.1095 11.3086C27.821 11.4517 27.4676 11.4636 27.1035 11.4636H26.8679L26.8858 11.3698ZM29.5888 12.9809C29.474 13.4649 29.3422 14.3489 30.1596 14.664C30.4202 14.7737 30.6538 14.8063 30.8911 14.7945C31.1418 14.7811 31.3741 14.6566 31.5892 14.4776C31.5698 14.5512 31.5504 14.6248 31.5309 14.6986L31.568 14.7459C32.1559 14.7214 32.3384 14.7214 32.9754 14.7262L33.0331 14.6827C33.1261 14.1415 33.2138 13.6161 33.4555 12.5808C33.5733 12.085 33.6908 11.5939 33.8117 11.1L33.7928 11.0457C33.1351 11.1663 32.9593 11.1921 32.3266 11.2808L32.2786 11.3195C32.2722 11.3698 32.2655 11.4181 32.2594 11.4664C32.161 11.3092 32.0185 11.1749 31.7985 11.0912C31.5171 10.9817 30.8564 11.1228 30.2884 11.6346C29.8893 12 29.6976 12.5007 29.5888 12.9809ZM30.9701 13.0105C31.1109 12.4139 31.2726 11.9092 31.6917 11.9092C31.9566 11.9092 32.0961 12.1512 32.0678 12.5639C32.0453 12.6668 32.021 12.7753 31.9921 12.8979C31.9502 13.0752 31.9048 13.2509 31.8606 13.4269C31.8156 13.5473 31.7632 13.6608 31.7057 13.7364C31.5979 13.8877 31.3414 13.9815 31.1937 13.9815C31.1518 13.9815 30.8932 13.9815 30.8842 13.6042C30.8822 13.4163 30.9213 13.2229 30.9701 13.0105ZM38.1834 11.0408L38.1326 10.9834C37.4818 11.1139 37.364 11.1347 36.7661 11.2146L36.7221 11.2581C36.7201 11.2651 36.7183 11.276 36.7152 11.2859L36.7132 11.276C36.2681 12.2923 36.2811 12.0731 35.9188 12.8731C35.9167 12.8367 35.9167 12.814 35.9147 12.7753L35.824 11.0408L35.767 10.9834C35.0853 11.1139 35.0692 11.1347 34.4396 11.2146L34.3905 11.2581C34.3836 11.2788 34.3836 11.3015 34.3796 11.3263L34.3836 11.3352C34.4623 11.7332 34.4434 11.6444 34.5224 12.2726C34.5592 12.5808 34.6082 12.8908 34.645 13.1953C34.7071 13.7048 34.7419 13.9557 34.8178 14.7332C34.3926 15.4276 34.2919 15.6903 33.8826 16.2998L33.8854 16.3058L33.5972 16.7569C33.5642 16.8045 33.5343 16.8371 33.4924 16.851C33.4464 16.8735 33.3866 16.8776 33.3036 16.8776H33.1439L32.9065 17.6589L33.7208 17.6728C34.1989 17.6708 34.4994 17.4496 34.6611 17.1522L35.1732 16.2838H35.165L35.2189 16.2226C35.5634 15.4888 38.1834 11.0408 38.1834 11.0408Z" fill="#FEFEFE"/>
</svg>
