<svg width="485" height="141" xmlns="http://www.w3.org/2000/svg"><g fill="none" fill-rule="evenodd"><path d="M27.662 140.952c-1.106 0-2.185-.014-3.283-.039-2.03-.057-4.438-.17-6.786-.593-2.217-.4-4.187-1.053-6.016-1.989a19.606 19.606 0 01-5.072-3.691 19.327 19.327 0 01-3.706-5.071c-.941-1.833-1.585-3.8-1.97-6.017-.444-2.442-.558-4.921-.606-6.807a364.52 364.52 0 01-.053-3.316V27.66s.033-2.51.053-3.248c.048-1.903.162-4.379.602-6.798.388-2.228 1.031-4.193 1.973-6.034a19.442 19.442 0 013.686-5.075 20.158 20.158 0 015.092-3.713c1.864-.947 3.83-1.594 6.002-1.975 2.445-.438 4.923-.548 6.81-.596l3.276-.044h429.084l3.315.046c1.863.046 4.34.156 6.748.59a21.554 21.554 0 016.067 1.99 20.064 20.064 0 015.053 3.687 20.156 20.156 0 013.715 5.099c.937 1.856 1.576 3.822 1.944 5.987.422 2.29.553 4.643.631 6.852.01 1.028.01 2.132.01 3.232a183.2 183.2 0 01.029 3.964v77.883c0 1.32 0 2.607-.029 3.904 0 1.182 0 2.263-.014 3.377-.074 2.137-.205 4.489-.62 6.729-.375 2.227-1.014 4.195-1.96 6.064a19.867 19.867 0 01-3.689 5.03 19.599 19.599 0 01-5.081 3.713c-1.883.958-3.804 1.592-6.056 1.996-2.326.423-4.733.536-6.786.593-1.064.025-2.177.039-3.258.039l-3.937.007-425.168-.007" fill="#FFFFFE"/><path d="M178.892 96.438h-17.019l-4.166 11.386h-7.482l16.666-42.52h7.072l17.048 42.52h-7.864l-4.255-11.386zm-14.875-5.78h12.706l-4.551-12.179a90.68 90.68 0 01-1.849-5.575c-.547 1.8-1.144 3.639-1.788 5.517l-4.518 12.237zm30.371-6.749c0-2.349-.08-4.93-.234-7.748h6.806c.254 1.312.43 2.651.529 4.021 2.817-3.072 6.044-4.608 9.683-4.608 2.113 0 4.07.534 5.868 1.599 1.801 1.067 3.254 2.75 4.359 5.047 1.106 2.299 1.659 5.22 1.659 8.76 0 3.697-.633 6.857-1.895 9.478-1.26 2.621-3.027 4.607-5.296 5.957-2.269 1.35-4.89 2.025-7.864 2.025-2.152 0-4.274-.363-6.367-1.086v13.087l-7.248.617V83.909zm19.058 16.182c1.477-1.985 2.217-4.885 2.217-8.7 0-3.541-.612-6.107-1.835-7.703-1.225-1.594-2.851-2.391-4.886-2.391-1.409 0-2.71.332-3.902.997-1.193.665-2.33 1.556-3.404 2.671v16.961c.722.352 1.564.631 2.522.836.959.205 1.907.308 2.848.308 2.817 0 4.963-.993 6.44-2.979zm14.251-16.182c0-2.349-.08-4.93-.235-7.748h6.807c.253 1.312.43 2.651.529 4.021 2.816-3.072 6.043-4.608 9.683-4.608 2.112 0 4.07.534 5.868 1.599 1.801 1.067 3.254 2.75 4.359 5.047 1.106 2.299 1.659 5.22 1.659 8.76 0 3.697-.633 6.857-1.896 9.478-1.259 2.621-3.027 4.607-5.295 5.957-2.269 1.35-4.89 2.025-7.864 2.025-2.152 0-4.274-.363-6.367-1.086v13.087l-7.248.617V83.909zm19.058 16.182c1.477-1.985 2.216-4.885 2.216-8.7 0-3.541-.611-6.107-1.835-7.703-1.223-1.594-2.85-2.391-4.885-2.391-1.41 0-2.711.332-3.903.997-1.192.665-2.329 1.556-3.403 2.671v16.961c.721.352 1.564.631 2.522.836.958.205 1.906.308 2.848.308 2.817 0 4.963-.993 6.44-2.979zm23.285 5.722c-3.13-1.731-5.537-4.211-7.219-7.438-1.683-3.228-2.523-7.043-2.523-11.444 0-4.773.968-8.828 2.904-12.164 1.938-3.334 4.574-5.839 7.91-7.511 3.333-1.673 7.074-2.509 11.223-2.509 2.445 0 4.776.269 6.997.807a30.362 30.362 0 016.208 2.214l-1.849 5.576c-3.854-1.838-7.533-2.758-11.032-2.758-2.955 0-5.542.631-7.763 1.893-2.22 1.261-3.946 3.115-5.18 5.561-1.231 2.445-1.848 5.398-1.848 8.862 0 3.031.475 5.721 1.423 8.068.949 2.348 2.446 4.208 4.49 5.576 2.045 1.37 4.622 2.055 7.731 2.055 1.41 0 2.819-.118 4.227-.353a22.032 22.032 0 003.961-1.027v-8.598h-9.829V86.99h16.871v17.899a37.707 37.707 0 01-7.644 2.613 35.94 35.94 0 01-7.967.908c-4.265 0-7.961-.865-11.091-2.597m52.818 2.01c-.254-1.232-.42-2.63-.497-4.196-1.115 1.332-2.568 2.461-4.359 3.389-1.788.929-3.809 1.394-6.058 1.394-1.82 0-3.478-.357-4.974-1.07-1.497-.715-2.685-1.79-3.566-3.229-.881-1.437-1.32-3.193-1.32-5.267 0-3.071 1.104-5.521 3.316-7.35 2.211-1.83 5.897-2.745 11.062-2.745 1.938 0 3.855.138 5.752.412v-.617c0-2.797-.597-4.768-1.791-5.912-1.193-1.144-2.904-1.717-5.134-1.717-1.545 0-3.198.225-4.96.675-1.76.451-3.307.987-4.637 1.614l-1.144-5.282c1.291-.587 2.994-1.125 5.107-1.614 2.113-.489 4.343-.734 6.692-.734 2.736 0 5.066.417 6.982 1.248 1.917.831 3.413 2.259 4.489 4.283 1.077 2.026 1.616 4.751 1.616 8.173v12.589c0 1.31.077 3.297.233 5.956h-6.809zm-4.342-5.868c1.506-.723 2.74-1.624 3.698-2.7v-5.869c-1.977-.214-3.589-.322-4.842-.322-2.992 0-5.062.484-6.206 1.452-1.144.969-1.715 2.275-1.715 3.917 0 1.566.415 2.725 1.244 3.478.834.753 1.963 1.13 3.39 1.13 1.448 0 2.925-.362 4.431-1.086zm17.258-1.732V62.81l7.217-.587v36.71c0 1.349.23 2.302.69 2.86.459.558 1.187.836 2.187.836.448 0 1.086-.107 1.906-.322l.853 5.195c-.686.274-1.524.493-2.511.659-.986.166-1.921.249-2.802.249-5.027 0-7.54-2.729-7.54-8.187m18.047 0V62.81l7.217-.587v36.71c0 1.349.23 2.302.69 2.86.459.558 1.188.836 2.187.836.449 0 1.086-.107 1.906-.322l.853 5.195c-.686.274-1.524.493-2.51.659-.987.166-1.921.249-2.803.249-5.027 0-7.54-2.729-7.54-8.187m42.901-7.306h-20.716c.332 6.631 3.492 9.948 9.477 9.948 1.488 0 3.008-.182 4.565-.544a26.955 26.955 0 004.474-1.453l1.584 4.961c-3.541 1.72-7.521 2.581-11.942 2.581-3.365 0-6.201-.635-8.512-1.906-2.306-1.272-4.042-3.101-5.208-5.489-1.163-2.385-1.745-5.261-1.745-8.627 0-3.501.615-6.513 1.849-9.037 1.233-2.524 2.95-4.45 5.15-5.781 2.2-1.331 4.738-1.996 7.613-1.996 2.994 0 5.494.701 7.499 2.099 2.004 1.399 3.491 3.262 4.461 5.59.968 2.328 1.451 4.9 1.451 7.717v1.937zm-7.072-4.607c-.135-2.523-.772-4.417-1.907-5.678-1.135-1.262-2.65-1.892-4.548-1.892-1.839 0-3.369.634-4.593 1.907-1.221 1.272-2.02 3.159-2.392 5.663h13.44zm12.912-4.196c0-1.741-.079-4.392-.233-7.953h6.777c.119.881.23 1.932.338 3.154.107 1.225.181 2.216.22 2.979.84-1.389 1.668-2.557 2.48-3.506a10.13 10.13 0 012.847-2.318c1.084-.597 2.322-.896 3.709-.896 1.115 0 2.074.118 2.878.353l-.91 6.279c-.704-.215-1.487-.322-2.349-.322-1.701 0-3.188.435-4.46 1.305-1.272.871-2.631 2.304-4.077 4.299v20.335h-7.22V84.114m23.363 36.665c-1.057-.186-1.926-.396-2.612-.631l1.321-5.281c.487.136 1.105.267 1.848.395.744.128 1.449.191 2.113.191 3.208 0 5.614-2.065 7.218-6.192l.469-1.173-11.678-31.927h7.775l5.87 17.842c.959 3.052 1.574 5.39 1.849 7.013a90.44 90.44 0 011.936-6.867l5.956-17.988h7.307l-11.649 32.073c-1.095 3.033-2.278 5.478-3.55 7.336-1.272 1.859-2.773 3.238-4.503 4.137-1.734.9-3.822 1.35-6.267 1.35-1.214 0-2.346-.092-3.403-.278" fill="#1A1919"/><path d="M55.467 23.766c-19.281 0-26.334 7.053-26.334 26.333v40.93c0 19.281 7.053 26.333 26.334 26.333h40.917c19.281 0 26.346-7.052 26.346-26.333v-40.93c0-19.28-7.052-26.333-26.333-26.333h-40.93" fill="#A82A39"/><path d="M47.668 70.572h2.482V82.81h-2.482v-4.97h-5.606v4.97h-2.483V70.572h2.483v4.937h5.606v-4.937zm13.986 7.005c0 1.989-.987 3.053-2.781 3.053-1.804 0-2.797-1.094-2.797-3.138v-6.913h-2.483v6.998c0 3.441 1.912 5.416 5.246 5.416 3.367 0 5.297-2.012 5.297-5.518v-6.903h-2.482v7.005zm28.695 1.41l-2.778-8.415h-2.027l-2.778 8.415-2.703-8.409H77.42l4.265 12.231h2.056l2.782-8.034 2.782 8.034h2.073l4.255-12.231h-2.575l-2.709 8.409zm9.735-1.444h4.516v-2.228h-4.516V72.81h6.555v-2.23h-9.005v12.221h9.241v-2.229h-6.791v-3.029zm9.751 5.251h2.45V70.572h-2.45v12.222zm-40.792-2.54l-1.113 2.548h-2.535l5.391-12.23h2.191l5.368 12.23h-2.602l-1.099-2.548h-5.601zm.925-2.206h3.753l-1.883-4.379-1.87 4.379zm5.964-23.056c-8.591 0-15.58-6.989-15.58-15.58h2.201c0 7.377 6.002 13.378 13.379 13.378 7.376 0 13.378-6.001 13.378-13.378h2.201c0 8.591-6.989 15.58-15.579 15.58" fill="#FFFFFE"/><path d="M167.751 47.084c1.036-.696 1.809-1.652 2.323-2.87.512-1.218.769-2.611.769-4.18 0-1.538-.227-2.909-.68-4.112-.455-1.204-1.179-2.163-2.175-2.878-.997-.715-2.279-1.072-3.847-1.072-1.499 0-2.771.362-3.816 1.087-1.046.725-1.83 1.697-2.353 2.914-.523 1.219-.784 2.562-.784 4.032 0 1.548.247 2.934.74 4.157.493 1.223 1.247 2.189 2.263 2.9 1.016.71 2.273 1.065 3.773 1.065 1.489 0 2.751-.348 3.787-1.043zm-9.586 2.626a8.95 8.95 0 01-3.595-3.78c-.829-1.623-1.243-3.509-1.243-5.659 0-2.258.441-4.233 1.324-5.925a9.321 9.321 0 013.817-3.92c1.661-.922 3.622-1.383 5.88-1.383 2.16 0 4.019.446 5.578 1.338a8.854 8.854 0 013.565 3.766c.819 1.617 1.228 3.491 1.228 5.621 0 2.298-.447 4.296-1.339 5.991-.893 1.697-2.165 3.004-3.817 3.921-1.652.917-3.592 1.376-5.821 1.376-2.15 0-4.009-.449-5.577-1.346zm24.054-17.28h-6.642l.325-3.091h16.673l-.34 3.091h-6.317v18.33h-3.699V32.43m30.268 18.33h-4.172l-6.376-9.439h-2.529v9.439h-3.699V29.339h3.699v8.846h1.938l4.438-6.42c.65-.957 1.304-1.65 1.96-2.079.656-.429 1.481-.643 2.478-.643.828 0 1.568.138 2.219.414l-.769 2.884a3.033 3.033 0 00-1.155-.251c-.434 0-.806.109-1.116.326-.311.216-.634.567-.969 1.05l-3.92 5.622 7.973 11.672m12.102-11.858c.789-.714 1.183-1.723 1.183-3.025 0-1.321-.401-2.273-1.205-2.855-.804-.582-1.985-.873-3.544-.873h-2.011v7.604c.926.148 1.636.222 2.13.222 1.509 0 2.658-.357 3.447-1.073zm-9.276-9.563h5.769c2.713 0 4.789.552 6.229 1.656 1.44 1.105 2.16 2.703 2.16 4.794 0 1.42-.324 2.66-.969 3.72-.646 1.06-1.546 1.874-2.7 2.441-1.154.567-2.481.851-3.98.851-.818 0-1.755-.099-2.81-.296v8.255h-3.699V29.339zM247.83 50.76V38.984c0-1.479.054-3.176.162-5.089L237.237 50.76h-4.112V29.339h3.432v12.234c0 1.331-.044 2.786-.133 4.364l10.592-16.598h4.246V50.76h-3.432m15.297-23.286c-.779-.414-1.374-.947-1.783-1.597a5.357 5.357 0 01-.777-2.101h2.663c.287 1.578 1.213 2.367 2.782 2.367 1.568 0 2.5-.789 2.796-2.367h2.677a5.342 5.342 0 01-.777 2.101c-.409.65-1.006 1.183-1.79 1.597-.783.415-1.753.622-2.906.622-1.145 0-2.107-.207-2.885-.622zm8.344 23.286V38.984c0-1.479.053-3.176.162-5.089L260.878 50.76h-4.112V29.339h3.431v12.234c0 1.331-.044 2.786-.133 4.364l10.592-16.598h4.246V50.76h-3.431zm13.211-18.33h-6.643l.325-3.091h16.673l-.341 3.091h-6.316v18.33h-3.698V32.43m13.492-3.091h12.619l-.356 3.047h-8.565v5.903h8.077v2.855h-8.077v6.539h9.024l-.31 3.077h-12.412V29.339m36.163 17.759c.755-.616 1.132-1.487 1.132-2.611 0-1.193-.417-2.101-1.25-2.722-.834-.621-2.034-.932-3.603-.932h-2.485v7.19h2.781c1.528 0 2.67-.308 3.425-.925zm-6.206-9.002h2.307c.77 0 1.448-.152 2.035-.458.587-.306 1.038-.718 1.353-1.236a3.214 3.214 0 00.474-1.708c0-.878-.319-1.534-.954-1.968-.636-.434-1.556-.651-2.759-.651h-2.456v6.021zm8.558 2.079a5.156 5.156 0 011.805 1.849c.439.765.658 1.66.658 2.685 0 1.193-.299 2.247-.895 3.159-.597.912-1.47 1.622-2.618 2.13-1.15.508-2.528.762-4.135.762h-6.983V29.339h6.687c2.269 0 3.97.438 5.103 1.316 1.135.878 1.702 2.081 1.702 3.61 0 1.272-.363 2.335-1.087 3.188-.725.853-1.674 1.452-2.848 1.797.977.148 1.847.457 2.611.925z" fill="#1A1919"/></g></svg>