<svg width="171" height="52" fill="none" xmlns="http://www.w3.org/2000/svg"><rect width="170.4" height="51.2" rx="8" fill="#fff"/><path fill-rule="evenodd" clip-rule="evenodd" d="M80.705 17.4h1.02V8.576h-1.02V17.4zM78.38 9.42a.646.646 0 01-.645.644.65.65 0 01-.644-.644c0-.358.293-.645.644-.645.358 0 .645.287.645.645zM60.716 17.4h1.108l-3.117-8.455h-1.043L54.547 17.4h1.107l.85-2.42h3.363l.85 2.42zm-2.548-7.172h.035l1.353 3.856h-2.742l1.354-3.856zm9.075.856h1.06L65.971 17.4h-1.03l-2.333-6.316h1.067l1.769 5.215h.023l1.776-5.215zm4.804 5.49c-.797 0-1.307-.381-1.307-.967 0-.61.492-.955 1.441-1.014l1.653-.105v.51c0 .908-.756 1.576-1.787 1.576zm1.816-.27c-.358.703-1.148 1.155-2.033 1.155-1.283 0-2.133-.739-2.133-1.858 0-1.084.832-1.723 2.367-1.816l1.77-.106v-.527c0-.785-.516-1.219-1.448-1.219-.732 0-1.277.375-1.4.973h-.979c.03-1.067 1.067-1.881 2.391-1.881 1.494 0 2.455.797 2.455 2.04V17.4h-.967v-1.096h-.023zm3.362-5.22V17.4h1.02v-6.316h-1.02zm7.657 4.523c0 .586.51.967 1.306.967 1.031 0 1.787-.668 1.787-1.576v-.51l-1.652.105c-.95.059-1.441.405-1.441 1.014zm1.09 1.852c.884 0 1.675-.452 2.033-1.155h.023V17.4h.967v-4.336c0-1.242-.961-2.039-2.455-2.039-1.324 0-2.362.814-2.39 1.88h.978c.123-.597.668-.972 1.4-.972.932 0 1.447.434 1.447 1.219v.527l-1.77.106c-1.534.094-2.366.732-2.366 1.816 0 1.12.85 1.858 2.133 1.858zm11.137-3.217c0 1.933-1.084 3.217-2.695 3.217-.92 0-1.647-.399-2.057-1.125h-.023V17.4h-.967V8.576h1.02v3.533h.023c.398-.691 1.13-1.084 2.027-1.084 1.588 0 2.672 1.29 2.672 3.217zm-2.877-2.309c1.108 0 1.834.908 1.834 2.309 0 1.406-.726 2.308-1.834 2.308-1.101 0-1.851-.937-1.851-2.308 0-1.365.75-2.309 1.851-2.309zm5.988 5.467H99.2V8.576h1.02V17.4zm4.921-5.478c.996 0 1.675.714 1.699 1.787h-3.475c.07-1.067.785-1.787 1.776-1.787zm.087 4.64c.791 0 1.407-.375 1.588-.967h1.008c-.176 1.084-1.271 1.864-2.619 1.864-1.775 0-2.895-1.237-2.895-3.194 0-1.957 1.125-3.24 2.848-3.24 1.688 0 2.742 1.19 2.742 3.1v.398h-4.535l.005.227c.066 1.105.787 1.812 1.858 1.812zm11.137.897c1.776 0 2.912-1.26 2.912-3.217 0-1.963-1.136-3.217-2.912-3.217-1.775 0-2.912 1.254-2.912 3.217 0 1.957 1.137 3.217 2.912 3.217zm-1.875-3.217c0 1.447.703 2.308 1.875 2.308 1.178 0 1.875-.86 1.875-2.308 0-1.453-.697-2.309-1.875-2.309-1.177 0-1.875.862-1.875 2.309zm6.82 3.158h1.019v-3.668c0-1.084.627-1.799 1.664-1.799.996 0 1.477.563 1.477 1.594V17.4h1.019v-4.049c0-1.435-.802-2.326-2.191-2.326-.979 0-1.606.37-2.004 1.084h-.023v-1.025h-.961V17.4zm11.658-6.316V9.66h1.019v1.424h1.231v.843h-1.231v3.791c0 .58.247.844.786.844.123 0 .369-.017.439-.03v.862c-.123.03-.416.053-.656.053-1.143 0-1.588-.475-1.588-1.688v-3.832h-.879v-.843h.879zm4.399 6.316h1.02v-3.633c0-1.107.656-1.834 1.723-1.834 1.001 0 1.511.61 1.511 1.617v3.85h1.02v-4.031c0-1.406-.844-2.344-2.227-2.344-.967 0-1.611.37-2.004 1.084h-.023V8.576h-1.02V17.4zm11.806-3.691c-.023-1.073-.703-1.787-1.699-1.787-.99 0-1.705.72-1.776 1.787h3.475zm-.023 1.886h1.007c-.175 1.084-1.271 1.864-2.619 1.864-1.775 0-2.894-1.237-2.894-3.194 0-1.957 1.125-3.24 2.847-3.24 1.688 0 2.743 1.19 2.743 3.1v.398h-4.536v.059c0 1.2.739 1.98 1.864 1.98.791 0 1.406-.375 1.588-.967zm-46.481 20.251c.159 2.957 2.606 4.826 6.231 4.826 3.874 0 6.309-1.915 6.309-4.973 0-2.318-1.31-3.656-4.447-4.458l-2.1-.515c-2.107-.521-2.968-1.201-2.968-2.356 0-1.45 1.348-2.447 3.319-2.447 1.971 0 3.319.985 3.466 2.617h2.47c-.079-2.821-2.447-4.758-5.902-4.758-3.489 0-5.947 1.937-5.947 4.758 0 2.276 1.393 3.681 4.395 4.406l2.118.51c2.119.521 3.014 1.28 3.014 2.549 0 1.461-1.484 2.526-3.546 2.526-2.152 0-3.727-1.065-3.908-2.685h-2.504zM69.239 40.4h-2.684l-1.495-4.418h-6.23L57.333 40.4h-2.64l5.902-16.346h2.742L69.24 40.4zm-7.26-13.628h-.069l-2.435 7.171h4.94l-2.437-7.17zm15.156 1.201c-1.71 0-3.228.838-3.919 2.164h-.057v-2.04h-2.367v16.381h2.458v-6.094h.045c.737 1.359 2.13 2.14 3.897 2.14 3.093 0 5.143-2.469 5.143-6.275 0-3.818-2.062-6.276-5.2-6.276zm-3.908 6.276c.012 2.515 1.326 4.191 3.285 4.191 1.994 0 3.308-1.642 3.308-4.191 0-2.538-1.314-4.192-3.307-4.192-1.949 0-3.274 1.688-3.286 4.192zm17.412-6.276c-1.71 0-3.229.838-3.92 2.164h-.056v-2.04h-2.368v16.381h2.458v-6.094h.045c.737 1.359 2.13 2.14 3.897 2.14 3.093 0 5.143-2.469 5.143-6.275 0-3.818-2.061-6.276-5.2-6.276zM86.73 34.25c.01 2.515 1.325 4.191 3.285 4.191 1.993 0 3.307-1.642 3.307-4.191 0-2.538-1.314-4.192-3.307-4.192-1.949 0-3.274 1.688-3.285 4.192zm31.242-6.151v-2.764h2.447v2.764h2.357v1.937h-2.357v6.876c0 1.065.476 1.563 1.507 1.563.186 0 .453-.017.648-.035l.19-.021v1.937c-.272.068-.849.124-1.382.124-2.458 0-3.41-.94-3.41-3.319v-7.125h-1.699v-1.937h1.699zm12.144 12.45c3.557 0 5.812-2.425 5.812-6.3 0-3.873-2.266-6.309-5.812-6.309-3.546 0-5.822 2.447-5.822 6.31 0 3.874 2.265 6.298 5.822 6.298zm-3.33-6.3c0 2.686 1.246 4.26 3.33 4.26 2.085 0 3.319-1.574 3.319-4.26 0-2.684-1.234-4.27-3.319-4.27-2.084 0-3.33 1.597-3.33 4.27zM137.9 40.4h2.458v-7.34c0-1.734 1.019-2.855 2.639-2.855.487 0 .918.068 1.122.147v-2.3a4.04 4.04 0 00-.861-.079c-1.45 0-2.583.827-2.968 2.198h-.045v-2.073H137.9V40.4zm15.972-7.273c-.056-1.914-1.268-3.183-3.058-3.183-1.768 0-3.048 1.292-3.184 3.183h6.242zm-.011 3.67h2.345c-.351 2.21-2.515 3.75-5.279 3.75-3.568 0-5.789-2.401-5.789-6.253 0-3.851 2.243-6.355 5.687-6.355 3.376 0 5.505 2.345 5.505 6.072v.86h-8.711v.148c0 2.13 1.337 3.535 3.353 3.535 1.428 0 2.549-.68 2.889-1.756zM32.657 8.4c-1.692.07-3.742 1.124-4.956 2.54-1.09 1.257-2.043 3.263-1.786 5.187 1.89.147 3.814-.956 4.99-2.373 1.174-1.418 1.968-3.388 1.752-5.354zm-.477 33.48c2.292-.042 3.745-2.074 5.148-4.117 1.539-2.239 2.218-4.41 2.32-4.733l.01-.037-.008-.003c-.22-.09-4.464-1.808-4.506-6.776-.041-4.103 3.243-6.144 3.604-6.369l.027-.016c-1.977-2.88-5.055-3.275-6.151-3.32-1.603-.162-3.157.448-4.427.947-.807.317-1.499.588-2.016.588-.575 0-1.286-.28-2.084-.596-1.044-.413-2.238-.885-3.47-.863-2.854.043-5.488 1.655-6.958 4.203-2.968 5.13-.761 12.733 2.13 16.893 1.416 2.034 3.099 4.324 5.312 4.242.989-.04 1.692-.338 2.42-.647.84-.356 1.713-.726 3.094-.726 1.316 0 2.149.358 2.95.703.765.33 1.502.648 2.605.627z" fill="#000"/></svg>