<svg width="171" height="52" fill="none" xmlns="http://www.w3.org/2000/svg"><rect width="170.4" height="51.2" rx="8" fill="#fff"/><path fill-rule="evenodd" clip-rule="evenodd" d="M92.072 16.438c.244-.54.366-1.172.366-1.896v-.467c0-.721-.122-1.354-.366-1.897-.243-.544-.591-.958-1.043-1.244-.452-.286-.974-.43-1.567-.43-.582 0-1.1.145-1.551.435-.452.29-.802.707-1.049 1.252-.247.545-.37 1.173-.37 1.884v.533c.006.697.134 1.31.383 1.84s.598.938 1.048 1.224c.45.287.967.43 1.55.43.595 0 1.116-.143 1.563-.427.447-.284.793-.697 1.036-1.237zM56.29 18l.696-1.93h3.097L60.79 18h1l-2.828-7.394h-.853L55.285 18h1.005zm3.504-2.732H57.28l1.255-3.458 1.259 3.458zM69.299 18h-.98l-3.722-5.698V18h-.98v-7.394h.98l3.732 5.723v-5.723h.97V18zm2.564-7.394V18h2.046c.664-.007 1.245-.15 1.745-.432a2.84 2.84 0 001.153-1.208c.269-.525.403-1.136.403-1.833v-.473c-.003-.68-.14-1.283-.409-1.808a2.88 2.88 0 00-1.145-1.213c-.494-.285-1.063-.427-1.706-.427h-2.087zm.975.803v5.794h1.026c.751 0 1.336-.234 1.754-.701.418-.467.627-1.132.627-1.996v-.431c0-.84-.197-1.493-.591-1.958-.395-.466-.954-.702-1.679-.709h-1.137zm7.652 3.6h1.737L83.83 18h1.046v-.061l-1.736-3.138c.443-.17.79-.425 1.038-.767a1.99 1.99 0 00.373-1.204c0-.724-.224-1.276-.673-1.655-.448-.38-1.089-.569-1.922-.569H79.51V18h.98v-2.991zm0-.797h1.498c.484 0 .87-.126 1.155-.376.286-.25.43-.586.43-1.006 0-.457-.137-.807-.41-1.05-.272-.244-.666-.368-1.18-.371H80.49v2.803zm10.978-.148c0-.876-.176-1.55-.528-2.018-.352-.469-.845-.704-1.478-.704-.616 0-1.101.235-1.455.704-.354.469-.535 1.12-.546 1.952v.544c0 .85.179 1.517.536 2.003.357.486.849.729 1.475.729.63 0 1.117-.23 1.463-.688.345-.459.523-1.117.533-1.973v-.549zM94.803 18h.975v-7.394h-.975V18zm3.59 0v-7.394h2.087c.643 0 1.212.142 1.706.427a2.88 2.88 0 011.145 1.213c.27.525.406 1.128.409 1.808v.473c0 .697-.134 1.308-.404 1.833a2.839 2.839 0 01-1.152 1.208c-.5.281-1.081.425-1.745.432h-2.046zm.975-.797v-5.794h1.137c.725.006 1.284.242 1.679.708.394.465.591 1.118.591 1.958v.431c0 .864-.209 1.529-.627 1.996-.418.467-1.003.7-1.754.7h-1.026zM114.24 18l-.706-1.93h-3.097l-.696 1.93h-1.006l2.824-7.394h.853L115.24 18h-1zm-.995-2.732h-2.514l1.254-3.458 1.26 3.458zm4.798-.163V18h-.975v-7.394h2.727c.809 0 1.443.207 1.902.62.458.413.688.96.688 1.64 0 .718-.225 1.27-.673 1.658-.449.388-1.091.581-1.927.581h-1.742zm1.752-.797h-1.752v-2.9h1.808c.484.01.865.148 1.142.412.278.264.417.616.417 1.056 0 .464-.139.819-.417 1.064-.277.245-.677.368-1.198.368zm5.641.797V18h-.975v-7.394h2.727c.809 0 1.443.207 1.901.62.459.413.689.96.689 1.64 0 .718-.225 1.27-.673 1.658-.449.388-1.091.581-1.927.581h-1.742zm1.752-.797h-1.752v-2.9h1.808c.484.01.865.148 1.142.412.278.264.417.616.417 1.056 0 .464-.139.819-.417 1.064-.277.245-.677.368-1.198.368zm13.76.234c0 .724-.122 1.357-.366 1.896-.244.54-.589.953-1.036 1.237-.447.284-.968.427-1.564.427a2.829 2.829 0 01-1.549-.43c-.45-.286-.799-.694-1.048-1.223-.249-.53-.377-1.144-.384-1.841v-.533c0-.711.124-1.34.371-1.884.247-.546.597-.963 1.049-1.252.452-.29.969-.434 1.551-.434.592 0 1.115.143 1.567.429.452.286.799.7 1.043 1.244.244.543.366 1.175.366 1.897v.467zm-1.498-2.496c.352.469.528 1.142.528 2.018v.549c-.01.856-.188 1.514-.533 1.973-.346.458-.833.688-1.463.688-.626 0-1.118-.243-1.475-.729s-.536-1.154-.536-2.003v-.544c.01-.832.192-1.483.546-1.952.354-.469.839-.704 1.455-.704.633 0 1.126.235 1.478.704zM148.925 18h-.98l-3.723-5.698V18h-.98v-7.394h.98l3.733 5.723v-5.723h.97V18zm-19.891 22.4h1.125V26h-1.125v14.4zm-2.615-4.969c0 1.582-.35 2.836-1.05 3.764-.7.928-1.638 1.392-2.813 1.392-1.387 0-2.45-.487-3.187-1.462V44.3h-1.116V30.256h1.041l.056 1.435c.731-1.082 1.791-1.622 3.178-1.622 1.213 0 2.164.46 2.855 1.378.644.857.988 2.025 1.031 3.503l.005.481zm-1.125-.197c0-1.293-.266-2.315-.797-3.065s-1.272-1.125-2.222-1.125c-.688 0-1.278.165-1.772.497-.494.33-.872.812-1.134 1.443v4.866c.268.581.653 1.025 1.153 1.331.5.306 1.09.46 1.772.46.944 0 1.679-.377 2.208-1.13.528-.753.792-1.845.792-3.277zm14.315 5.166c-.112-.319-.184-.79-.215-1.416a3.919 3.919 0 01-1.505 1.186 4.609 4.609 0 01-1.936.417c-.975 0-1.764-.271-2.367-.815-.603-.544-.905-1.231-.905-2.063 0-.987.411-1.768 1.233-2.343.822-.575 1.967-.863 3.436-.863h2.034V33.35c0-.725-.223-1.295-.67-1.711-.447-.416-1.098-.623-1.955-.623-.781 0-1.428.2-1.94.6-.513.4-.769.88-.769 1.443l-1.125-.009c0-.806.375-1.505 1.125-2.095.75-.591 1.672-.886 2.766-.886 1.131 0 2.023.283 2.676.848.653.566.989 1.355 1.008 2.367v4.8c0 .982.103 1.716.309 2.203v.113h-1.2zm-1.514-1.35c-.59.363-1.261.544-2.011.544-.675 0-1.223-.188-1.645-.563a1.813 1.813 0 01-.633-1.415c0-.694.316-1.24.947-1.636.631-.397 1.506-.602 2.625-.614h2.006v2.23a3.193 3.193 0 01-1.289 1.454zm8.611-.262l2.963-8.532h1.209l-4.331 11.869-.225.525c-.556 1.231-1.416 1.847-2.578 1.847-.269 0-.556-.044-.863-.131l-.009-.928.581.056c.55 0 .995-.136 1.336-.408.341-.272.63-.74.867-1.402l.497-1.368-3.825-10.06h1.228l3.15 8.532zm-84.414-6.12v1.882h4.514c-.138 1.056-.492 1.828-1.029 2.372-.66.658-1.689 1.377-3.485 1.377-2.778 0-4.95-2.234-4.95-5.004 0-2.77 2.172-5.005 4.95-5.005 1.497 0 2.595.59 3.4 1.347l1.329-1.324c-1.121-1.087-2.627-1.913-4.73-1.913-3.807 0-7.008 3.091-7.008 6.887 0 3.795 3.201 6.887 7.008 6.887 2.057 0 3.608-.673 4.82-1.928 1.244-1.24 1.636-2.992 1.636-4.4 0-.437-.031-.842-.1-1.179h-6.356zm12.097-1.531c-2.464 0-4.475 1.867-4.475 4.446 0 2.555 2.011 4.446 4.475 4.446 2.464 0 4.475-1.883 4.475-4.446 0-2.58-2.01-4.446-4.475-4.446zm0 7.14c-1.35 0-2.517-1.11-2.517-2.694 0-1.6 1.166-2.694 2.517-2.694s2.518 1.094 2.518 2.694c0 1.584-1.167 2.693-2.518 2.693zm21.868-6.146h.07v-.765h1.857v7.997c0 3.282-1.942 4.63-4.237 4.63-2.165 0-3.462-1.447-3.953-2.625l1.704-.704c.307.727 1.051 1.584 2.249 1.584 1.466 0 2.38-.911 2.38-2.61v-.62h-.07c-.437.536-1.282 1.01-2.349 1.01-2.225 0-4.168-1.95-4.168-4.445 0-2.51 1.943-4.446 4.168-4.446 1.067 0 1.912.474 2.35.994zm-4.56 3.452c0 1.545 1.03 2.693 2.38 2.693 1.336 0 2.387-1.125 2.38-2.678 0-1.561-1.044-2.709-2.38-2.709-1.35 0-2.38 1.125-2.38 2.694zm-7.33-4.446c-2.463 0-4.474 1.867-4.474 4.446 0 2.555 2.01 4.446 4.475 4.446 2.464 0 4.475-1.883 4.475-4.446 0-2.58-2.011-4.446-4.475-4.446zm0 7.14c-1.35 0-2.517-1.11-2.517-2.694 0-1.6 1.167-2.694 2.518-2.694 1.35 0 2.517 1.094 2.517 2.694 0 1.584-1.166 2.693-2.517 2.693zM99.72 26.583h1.927v13.445H99.72V26.584zm7.875 11.692c-.998 0-1.704-.451-2.164-1.347l5.964-2.456-.2-.505c-.368-.995-1.504-2.831-3.815-2.831-2.295 0-4.206 1.798-4.206 4.446 0 2.494 1.888 4.446 4.421 4.446 2.042 0 3.224-1.248 3.715-1.967l-1.52-1.01c-.506.734-1.197 1.224-2.195 1.224zm-.138-5.471c.791 0 1.466.405 1.689.98l-4.03 1.66c0-1.867 1.328-2.64 2.341-2.64zM12.4 11.392v27.619c0 .961.556 1.792 1.363 2.189l15.983-16.003L13.77 9.2a2.437 2.437 0 00-1.37 2.192zm4.945 28.978l17.47-10.098-3.692-3.697L17.345 40.37zm22.9-17.105a2.438 2.438 0 01.025 3.852l-3.71 2.145-4.06-4.065 4.057-4.063 3.687 2.131zm-5.434-3.14L17.356 10.034l13.767 13.784 3.688-3.693z" fill="#000"/></svg>