<svg xmlns="http://www.w3.org/2000/svg" width="48" height="48"><g data-name="group"><path data-name="Color Fill 1" d="M36 8.6A4.692 4.692 0 0031.222 4V2A6.691 6.691 0 0138 8.6v30.8a6.691 6.691 0 01-6.778 6.6H16.778A6.691 6.691 0 0110 39.4V8.6A6.691 6.691 0 0116.778 2h14.444v2H16.778A4.691 4.691 0 0012 8.6V37h24V8.6zM31.222 44A4.691 4.691 0 0036 39.4V39H12v.4a4.692 4.692 0 004.778 4.6h14.444zM20 18a3 3 0 103 3 3 3 0 00-3-3zm5 3a5 5 0 11-5-5 5 5 0 015 5zm3 5h-1a1 1 0 010-2h1a3 3 0 000-6h-1a1 1 0 010-2h1a5 5 0 010 10z" fill="#52ae30" fill-rule="evenodd"/></g></svg>