<svg id="icon-online-banking" xmlns="http://www.w3.org/2000/svg" width="48" height="48"><defs><style>.cls-1{fill:#52ae30;fill-rule:evenodd}</style></defs><g id="group"><g id="group-2" data-name="group"><g id="group-3" data-name="group"><path id="Color_Fill_2" data-name="Color Fill 2" class="cls-1" d="M27.682 11.316a4.5 4.5 0 11-6.365 0 4.5 4.5 0 016.365 0zM24.5 17a2.5 2.5 0 001.768-.732l.707.707-.707-.707A2.5 2.5 0 1024.5 17z"/><path id="Color_Fill_1" data-name="Color Fill 1" class="cls-1" d="M19.111 24a5.393 5.393 0 015.389-4 5.391 5.391 0 015.388 4H19.111zM31 26a1 1 0 001-1 7.263 7.263 0 00-7.5-7 7.263 7.263 0 00-7.5 7 1 1 0 001 1h13zm-4 11a1 1 0 000-2h-6a1 1 0 000 2h6zm15-8H6V8a1 1 0 011-1h35c-.023-.044 0 21.448 0 22zm-37 .98l.052.02L5 29.98l-.88-.342A1 1 0 015 29h.052H5v.98zm37.947.02v-1 1zM2.923 42a1 1 0 01-.932-1.362l-1.864-.725A3 3 0 002.923 44h42.154a3 3 0 002.8-4.087L44 29.948V8a3 3 0 00-3-3H7a3 3 0 00-3 3v21.948L.127 39.913l1.864.725L5.737 31h36.526l3.746 9.638A1 1 0 0145.077 42H2.923z"/></g></g></g></svg>