<svg xmlns="http://www.w3.org/2000/svg" width="98" height="98"><path data-name="Color Fill 2" d="M36.7 1.4a1.308 1.308 0 00-.328.042l-.151.049C25.065 5.838 16.377 16.924 15.05 27.353l-.057.5a1.39 1.39 0 001.2 1.542 1.318 1.318 0 00.148.008 1.368 1.368 0 001.322-1.088l.026-.161c.973-9.254 8.74-19.61 18.981-23.838l.514-.206a1.413 1.413 0 00.79-1.8A1.36 1.36 0 0036.7 1.4m16.973 18.2c-10.121 0-18.326 8.462-18.326 18.9s8.205 18.9 18.326 18.9S72 48.938 72 38.5s-8.205-18.9-18.327-18.9M49.6 92.4c-6.373 0-11.539 1.254-11.539 2.8S43.228 98 49.6 98s11.54-1.254 11.54-2.8-5.167-2.8-11.54-2.8M40.777 0a1.379 1.379 0 00-1.358 1.4 1.379 1.379 0 001.358 1.4 1.379 1.379 0 001.358-1.4A1.379 1.379 0 0040.777 0" fill-rule="evenodd" fill="#cbe7c1"/><path data-name="Color Fill 1" d="M62.383 64.318a4.841 4.841 0 00-2.538 2.723L54.042 84.1l-.093.25a4.277 4.277 0 01-7.991-.251l-5.8-17.059-.1-.265a5 5 0 00-2.723-2.587l-.514-.223A31.353 31.353 0 0118 35.375v-.52c.287-17.108 14.522-30.863 32-30.863h.529C67.94 4.273 82 18.2 82 35.375l-.005.586a31.386 31.386 0 01-19.326 28.227zM50 15.245h.448A20.5 20.5 0 0170.622 35.64v.444A20.516 20.516 0 0150 56.036h-.448A20.5 20.5 0 0129.378 35.64v-.444A20.516 20.516 0 0150 15.245zm0 2.813l-.438.005a17.675 17.675 0 00-17.34 17.577l.005.434A17.687 17.687 0 0050 53.223l.438-.005a17.675 17.675 0 0017.34-17.578l-.005-.434A17.687 17.687 0 0050 18.058zM38.446 61.59a7.747 7.747 0 014.4 4.547l5.8 17.059a1.425 1.425 0 002.695 0l5.8-17.059.131-.352a7.815 7.815 0 014.273-4.195l.491-.213a28.528 28.528 0 0017.111-26v-.486C78.887 19.359 65.953 6.817 50 6.817h-.5c-15.889.26-28.658 12.963-28.658 28.554l.005.558A28.561 28.561 0 0038.446 61.59z" fill="#52ae30" fill-rule="evenodd"/></svg>