<svg width="133" height="32" viewBox="0 0 287 72" xmlns="http://www.w3.org/2000/svg" xmlns:xlink="http://www.w3.org/1999/xlink"><defs><path id="a" d="M0 0h8.123v10.104H0z"/><path id="c" d="M0 0h56.354v56.352H0z"/></defs><g fill="none" fill-rule="evenodd"><path d="M187.547 59.415l-1.707.025c-1.416.024-3.148.061-4.246 1.965a4.332 4.332 0 00-.586 2.158c0 1.551 1 2.344 2.21 2.344.841 0 1.28-.269 1.78-.562l-.158.634c-.172.696-.477 1.965-2.002 1.965-1.135 0-1.658-.597-1.902-.867h-.098l-.5.77.012.11c.232.22.414.39.718.536.49.244 1.172.38 1.82.38.89 0 1.805-.233 2.403-.929.537-.623.733-1.488 1.026-2.818l.353-1.635c.426-1.94.537-2.428.926-3.978l-.049-.098zm-1.45.977l-.904 3.978c-.28.231-.462.39-.939.512a2.124 2.124 0 01-.549.072c-.304 0-1.367-.109-1.367-1.574 0-.779.367-1.598.732-2.037.768-.94 1.842-.95 2.71-.963l.316.012zm3.388 4.16l.256-1.207c.269-1.21.45-1.916.855-2.33.23-.244.512-.416.842-.416.207 0 .342.074.512.172l.123-.037.475-1.196-.038-.11c-.207-.085-.365-.146-.56-.146-.38 0-.865.243-1.27.745a3.34 3.34 0 00-.316.474l.267-1.072-.06-.086c-.586.12-.72.135-1.316.207l-.086.086c-.196 1.268-.245 1.586-.612 3.16l-.267 1.158-.451 1.782.06.074 1.27-.026.097-.086.219-1.146zm8.793-1.489c.11-.428.184-.864.184-1.293 0-1.574-.952-2.465-2.55-2.465-2.66 0-3.452 2.636-3.452 4.126 0 1.658.89 2.5 2.513 2.5 2.293 0 3.037-1.819 3.305-2.868m-1.268-.379c-.22 1.002-.71 2.344-2.013 2.344-.658 0-1.244-.428-1.244-1.404 0-.452.244-3.428 2.16-3.428.45 0 1.244.207 1.244 1.44 0 .341-.063.695-.147 1.048m7.793 1.136l.293-1.33.707-3-.049-.087-1.232.061-.098.085a51.043 51.043 0 01-.512 2.551l-.463 2.074c-.318.268-.855.707-1.66.707-.293 0-1.013-.123-1.013-1.013 0-.403.21-1.33.281-1.635.06-.23.574-2.33.672-2.744l-.06-.074-1.22.05-.087.084c-.12.66-.147.82-.342 1.647l-.28 1.197c-.197.891-.306 1.354-.306 1.842 0 1.293 1.014 1.672 1.795 1.672.646 0 1.474-.293 2.012-.77l-.147.598.063.086 1.195-.049.084-.074.367-1.879zm4.072-4.391l-.06-.086-1.306.207-.086.072c-.099.612-.159 1.037-.377 2.12-.221 1.046-.465 2.105-.695 3.152l-.245.965-.671 2.78.06.073 1.28-.012.087-.06c.268-1.482.33-1.752.585-2.867.233.01.477.01.708.01.647 0 2.501 0 3.722-1.571.5-.644.816-1.556.816-2.445 0-1.545-1.025-2.436-2.195-2.436-.768 0-1.28.305-1.745.598l.123-.5zm-.33 1.523c.185-.171.659-.61 1.429-.61.672 0 1.39.415 1.39 1.57 0 1.425-1.124 2.97-3.21 2.97-.18 0-.327-.025-.5-.037l.892-3.893zm-43.806 2.162c.102-.422.166-.855.166-1.277 0-.766-.154-1.483-.805-2.069-.6-.537-1.418-.716-2.222-.716-3.321 0-3.946 3.078-3.946 4.253 0 .957.268 1.661.83 2.145.614.537 1.506.664 2.17.664.97 0 1.8-.203 2.53-.805.677-.549 1.072-1.353 1.277-2.195m-2.096-.486c-.242 1.136-.523 1.468-.664 1.648-.217.268-.55.498-.931.498-.422 0-.766-.205-.907-.613-.04-.09-.076-.256-.076-.563 0-.588.268-2.043.752-2.668.14-.166.447-.525 1.049-.525.752 0 .906.666.906 1.137 0 .396-.064.767-.13 1.086m6.544 1.719l-.076-.062c-.231.076-.408.152-.74.152-.268 0-.602-.115-.602-.524 0-.216.168-.931.244-1.212l.535-2.235 1.176.026.102-.09c.166-.6.216-.741.396-1.278l-.051-.09-1.302.026.281-1.162.281-1.06-.078-.077c-.881.256-1.137.32-2.094.537l-.09.09-.369 1.647h-.843l-.09.064-.369 1.289.076.104.894-.026-.422 1.748c-.179.717-.422 1.674-.422 2.21 0 1.15.831 1.495 1.928 1.495.436 0 .742-.064 1.151-.14l.101-.104.383-1.328z" fill="#FFF"/><g transform="translate(168.957 59.026)"><mask id="b" fill="#fff"><use xlink:href="#a"/></mask><path d="M4.432.09L4.356 0 2.172.358l-.09.089c-.076.653-.129 1.022-.371 2.172-.23 1.137-.484 2.274-.74 3.422l-.23.971L0 10.014l.065.09c.472-.014.855-.039 1.289-.039.293 0 .574.013.869.013l.088-.064.613-3.053c1.354 0 2.951.014 4.215-1.533.664-.805.984-1.889.984-2.809 0-1.623-.855-2.58-2.132-2.58-.83 0-1.381.383-1.713.613L4.432.09zm-.371 1.826c.269-.178.549-.369.92-.369.256 0 .945.127.945 1.199 0 .971-.459 1.865-.971 2.299a2.4 2.4 0 01-1.404.524 2.23 2.23 0 01-.306-.026l.816-3.627z" fill="#FFF" mask="url(#b)"/></g><path d="M168.039 44.032c3.229.15 7.986.057 11.694-2.453 4.22-2.91 6.219-7.986 6.219-11.637 0-5.192-3.138-7.189-6.79-7.189-2.91 0-4.964 1.256-6.79 2.396 0 0-3.98 17.483-4.333 18.883zm-6.962 4.164c.38-1.73 2.84-11.865 5.352-23.266 2.156-9.778 3.653-15.877 4.176-20.433l.457-.399 6.217-1.084.286.4-1.596 6.332-2.625 10.953c2.394-1.312 4.679-2.566 8.329-2.566 5.646 0 10.382 3.821 10.382 11.01 0 2.91-.912 8.385-4.736 12.78-5.134 5.875-11.464 6.273-18.823 6.558h-3.14l-3.991.057-.288-.342zm57.343-25.1c-.857 0-1.71-.058-2.568-.058-1.883 0-5.59.115-8.955 2.396-5.992 4.108-6.106 11.468-6.106 11.753 0 2.738 1.483 7.13 6.675 7.13 1.542 0 4.088-.361 6.846-2.796l4.108-18.425zm4.222 7.245c-1.997 8.785-2.396 10.953-3.537 17.74l-.4.4-5.36.116-.286-.4.4-2.282c-.972.799-3.482 2.91-8.332 2.91-5.818 0-10.554-4.11-10.554-11.24 0-4.506 2.17-9.412 4.563-12.263 5.306-6.22 12.667-6.561 17.914-6.561l7.873.056.286.457-2.567 11.067zm28.251 17.799l-.457.342-5.818.172-.228-.4c.836-3.843 4.35-16.707 4.393-20.708.037-3.424-2.112-4.564-4.793-4.564-3.536 0-5.876 1.768-7.588 3.024-2.112 9.583-2.796 12.607-4.62 22.134l-.4.342-5.819.172-.284-.4s1.73-6.983 3.294-14.244c1.223-5.683 2.23-10.367 2.695-14.28l.4-.4c2.681-.342 3.307-.456 6.046-1.026l.284.399-.795 2.909c2.222-1.483 5.076-3.48 9.81-3.48 1.883 0 8.045.514 8.045 7.417 0 4.127-3.605 18.564-4.165 22.59m21.795-17.014l8.846 16.83-.344.456-6.332.172-.457-.344c-1.478-4.01-7.93-16.6-7.93-16.6-1.653 7.245-1.994 8.956-3.423 16.485l-.398.344-5.762.115-.229-.344s3.043-12.648 5.678-24.36c1.231-5.474 3.148-14.143 3.905-19.396l.4-.342 6.217-1.027.344.4c-1.148 3.941-6.561 27.326-6.561 27.326 4.091-3.583 10.896-10.725 11.808-11.695l.629-.343h6.561l.17.513c-1.617 1.281-4.62 3.995-5.705 4.963l-7.417 6.847z" fill="#FFF"/><g transform="translate(0 3)"><mask id="d" fill="#fff"><use xlink:href="#c"/></mask><path d="M0 28.176C0 12.626 12.598.018 28.144 0v10.183c-9.923.017-17.961 8.067-17.961 17.994 0 9.94 8.056 17.993 17.994 17.993 9.879 0 17.995-7.977 17.995-18.06l10.182.006c0 15.624-12.615 28.237-28.177 28.237C12.616 56.352 0 43.74 0 28.176" fill="#FFF" mask="url(#d)"/></g><path d="M15.748 31.177c0-6.903 5.595-12.5 12.499-12.5 6.901 0 12.498 5.597 12.498 12.5 0 6.902-5.596 12.498-12.498 12.498-6.904 0-12.5-5.596-12.5-12.498m21.167-15.832a7.164 7.164 0 0114.328 0 7.164 7.164 0 11-14.328 0m55.196 9.243c-2.45-.057-4.673-.114-6.84 1.14-4.502 2.565-5.414 8.892-5.414 11.115 0 3.933 1.88 5.642 4.389 5.642 1.824 0 3.078-.968 4.275-1.824l3.59-16.073zm8.665 2.964c-2.736 11.627-2.85 12.312-4.332 20.519l-.4.342-8.606.229-.285-.342.513-2.451c-2.166 1.595-4.39 3.306-8.265 3.306-4.446 0-9.52-2.679-9.52-11.058 0-5.073 1.825-10.032 4.447-13.338 4.56-5.814 10.659-6.555 15.732-6.555 1.197 0 2.394.057 3.59.114l1.369-6.156c.74-3.363.912-4.275 1.31-6.954l.4-.399 9.576-1.653.342.399-2.508 9.861-3.363 14.136zm.569 18.353l1.767-6.1.513-.17c1.083 1.198 3.534 3.706 7.923 3.706s4.902-2.508 4.902-3.307c0-1.938-1.881-2.85-3.876-3.762l-1.254-.627c-3.021-1.538-5.928-3.305-5.928-7.808 0-1.426.513-10.26 13.053-10.26 3.192 0 6.327.626 9.69 2.28l.228.512c-.912 2.965-1.083 3.477-1.71 6.1l-.57.113c-.513-.57-1.026-1.197-1.71-1.653-1.425-1.083-3.534-1.652-5.13-1.652-3.078 0-4.39 1.54-4.39 2.906 0 1.71 1.996 2.68 3.478 3.364l1.31.627c2.452 1.253 6.556 3.25 6.556 8.321 0 2.736-1.425 10.773-13.965 10.773-5.814 0-8.892-1.767-10.716-2.849l-.171-.514zm48.848-15.218c3.192 8.492 3.705 9.746 6.556 17.214l-.4.57-9.518.227-.456-.342c-.97-3.248-3.876-12.71-5.301-16.415-1.653 7.296-2.11 9.347-3.363 16.187l-.4.342-9.233.228-.285-.398 3.477-14.022 1.539-6.897c1.71-7.467 3.876-17.727 4.446-22.23l.398-.4c4.276-.569 5.587-.797 10.032-1.595l.285.4-1.937 7.694-4.731 19.836c3.476-3.933 6.212-7.182 10.146-12.426l.569-.286c3.99 0 5.017 0 9.349-.17l.17.57c-.684.741-4.16 4.218-4.902 5.016l-6.441 6.897z" fill="#FFF"/></g></svg>