<?xml version="1.0" encoding="utf-8"?>
<!-- Generator: Adobe Illustrator 26.3.1, SVG Export Plug-In . SVG Version: 6.00 Build 0)  -->
<svg version="1.1" id="Logo" xmlns="http://www.w3.org/2000/svg" xmlns:xlink="http://www.w3.org/1999/xlink" x="0px" y="0px"
	 width="1000px" height="204px" viewBox="0 0 1000 204" style="enable-background:new 0 0 1000 204;" xml:space="preserve">
<style type="text/css">
	.st0{fill:#FFFFFF;}
</style>
<path class="st0" d="M307.7,57.5c-12.4,0-22.9,3.7-31.2,10.7V15.6h-36.4V175h33.6v-9.8c8.3,8.1,19.4,12.6,33.1,12.6
	c33.4,0,57.1-25.7,57.1-60.2S340.9,57.5,307.7,57.5z M301.6,145.8c-15.9,0-26.8-11.6-26.8-28.1c0-16.8,10.7-28.3,26.8-28.3
	c15.3,0,26.4,12,26.4,28.3S316.9,145.8,301.6,145.8z M466.5,72.1c-8.1-8.1-19-12.4-33.1-12.4c-33.4,0-57.4,23.5-57.4,58
	s24,60.2,57.4,60.2c14.2,0,25.1-4.8,33.1-13.3V175h33.6V60.1h-33.6V72.1z M438.6,145.8c-15.5,0-26.4-11.8-26.4-28.1
	s11.1-28.3,26.4-28.3c15.9,0,26.6,11.6,26.6,28.3C465.2,134.3,454.5,145.8,438.6,145.8z M524.1,175h36.4V15.6h-36.4V175z
	 M639.2,57.5c-36.6,0-62.8,25.7-62.8,60.2c0,34.2,26.2,60.2,62.8,60.2c36.9,0,63-26,63-60.2C702.3,83.2,676.1,57.5,639.2,57.5z
	 M639.4,145.6c-15.9,0-26.4-11.8-26.4-27.9c0-16.6,10.5-27.9,26.4-27.9s26.2,11.3,26.2,27.7C665.6,134,655.1,145.6,639.4,145.6
	L639.4,145.6z M736.8,0c-12.9,0-23.9,9.4-23.9,22.5s11,22.2,23.9,22.2s22.9-9.2,22.9-22.2S749.7,0,736.8,0z M718.5,175h36.4V60.1
	h-36.4V175z M810.5,91.5c0-4.8,3.7-7.6,11.1-7.6c7.6,0,13.1,3.7,15.7,10.9L867.4,83c-4.6-16.1-21.6-25.5-45.1-25.5
	c-29,0-47.3,13.5-47.3,35.8c0,39.5,60,30.8,60,48.8c0,5.2-4.4,8.5-12.6,8.5c-11.8,0-19.4-5.4-22.5-15l-30.1,11.6
	c6.8,20.1,25.3,30.8,51.2,30.8c30.3,0,49.5-14.4,49.5-38.2C870.5,97.4,810.5,107.9,810.5,91.5L810.5,91.5z M1000,115.3
	c0-28.3-22.2-58-59.8-58c-33.2,0-59.8,27.3-59.8,60.4c0,34.2,24,60.2,61.9,60.2c25,0,39.8-9.6,48.7-20.6l-20.9-21
	c-6.5,8.1-13.8,12-26.7,12c-13.7,0-24-7-27.7-19.8h83.3C999.7,124,1000,119.7,1000,115.3z M915.4,105.7c3-14,12.4-21.2,25.7-21.2
	s22,8.1,25.1,21.2H915.4z M2.5,97.9c-3.4,3.4-3.4,8.8,0,12.1c0,0,0,0,0,0l91.4,91.4c3.4,3.4,8.8,3.4,12.1,0c0,0,0,0,0,0l50.7-50.7
	l-30.9-30.9L100,145.8L58.2,104L100,62.2l72.7,72.7l24.8-24.8c3.4-3.4,3.4-8.8,0-12.1c0,0,0,0,0,0L106.1,6.5
	c-3.4-3.4-8.8-3.4-12.1,0c0,0,0,0,0,0L2.5,97.9z"/>
</svg>
