<?xml version="1.0" encoding="utf-8"?>
<!-- Generator: Adobe Illustrator 23.0.6, SVG Export Plug-In . SVG Version: 6.00 Build 0)  -->
<svg version="1.1" id="Layer_1" xmlns="http://www.w3.org/2000/svg" xmlns:xlink="http://www.w3.org/1999/xlink" x="0px" y="0px"
	 width="283.5px" height="80.4px" viewBox="0 0 283.5 80.4" style="enable-background:new 0 0 283.5 80.4;" xml:space="preserve">
<style type="text/css">
	.st0{fill:#FFFFFF;}
</style>
<g>
	<path class="st0" d="M106.7,7.6h25.4c9.9,0,20,4.5,20,16.4c0,7.4-4.6,12.3-11.3,14.3v0.2c8.2,0.9,14.1,7.4,14.1,15.8
		c0,14.2-12.4,18.6-24.7,18.6h-23.5V7.6z M118.4,34.1H129c7.7,0,11.6-3.3,11.6-8.2c0-5.6-3.9-8.4-12.6-8.4h-9.6V34.1z M118.4,62.9
		H129c6,0,14.3-1,14.3-9.6c0-6.8-4.4-9.2-13.8-9.2h-11.2V62.9z"/>
	<path class="st0" d="M208.1,22.9c-4.8-5.1-9.2-6.4-13.7-6.4c-13.5,0-22.4,10.3-22.4,23.3c0,13.9,8.9,24.2,22.4,24.2
		c5.3,0,10.3-2.4,14.7-7.9l9.6,6.8c-5.9,8.1-14.7,11.6-24.3,11.6c-20.1,0-34.5-13.6-34.5-34c0-20.9,14.4-34.6,34.5-34.6
		c8.8,0,16.4,2.9,22.9,10.3L208.1,22.9z"/>
	<path class="st0" d="M221.4,7.6h13.4l17.8,49.3l18.3-49.3h12.5l-26.4,65.3h-10L221.4,7.6z"/>
</g>
<path class="st0" d="M80.5,78c0,1.4-1.1,2.5-2.5,2.5H2.5C1.1,80.4,0,79.3,0,78V2.5C0,1.1,1.1,0,2.5,0H78c1.4,0,2.5,1.1,2.5,2.5V78z
	 M77.4,4.7c0-0.9-0.7-1.6-1.6-1.6H4.6C3.7,3,3,3.8,3,4.7v71.1c0,0.9,0.7,1.6,1.6,1.6h71.1c0.9,0,1.6-0.7,1.6-1.6V4.7z"/>
<path class="st0" d="M54,42.5c-1.4-2.2-1.3-2.4,0.1-4.6c1.4-2.3,17.4-28.1,18-29.1c0.7-1.2-0.1-1.7-0.9-1.7c-0.8,0-28,0-31.3,0
	c-3.9,0-3.9,0-5.4,2.5C33,12,18,36.2,16.9,38.1c-1.4,2.2-1.4,2.2,0,4.5c1.4,2.2,16.1,26.2,17.6,28.6c1.5,2.5,1.5,2.5,5.4,2.5
	c3.3,0,30.4,0,31.3,0c0.8,0,1.6-0.5,0.9-1.7C71.6,71.2,55.3,44.8,54,42.5z"/>
</svg>
