<?xml version="1.0" encoding="utf-8"?>
<!-- Generator: Adobe Illustrator 23.0.6, SVG Export Plug-In . SVG Version: 6.00 Build 0)  -->
<svg version="1.1" id="Ebene_1" xmlns="http://www.w3.org/2000/svg" xmlns:xlink="http://www.w3.org/1999/xlink" x="0px" y="0px"
	 width="1232.6px" height="283.5px" viewBox="0 0 1232.6 283.5" style="enable-background:new 0 0 1232.6 283.5;"
	 xml:space="preserve">
<style type="text/css">
	.st0{fill:#FFFFFF;}
</style>
<g id="XMLID_67_">
	<g id="XMLID_357_">
		<path id="XMLID_358_" class="st0" d="M0,283.5h283.5V0L0,0V283.5z M9.9,9.9h263.6v263.6H9.9V9.9z M459,156.3h-23.5L402.2,200
			v-43.7h-19.6v93.5h19.6v-47.2l35.1,47.2h24.3l-38.6-49.4L459,156.3z M526.5,206.2c0-8.7-1.9-15-7.2-19.8
			c-4.9-4.4-12.4-5.6-22.2-5.6c-9.4,0-17.5,2-22.5,6.4c-4.6,4.1-7.2,9.4-7.6,15.6h17.8c0.2-3.1,1-5.6,3-7.4c2-1.8,5.5-2.9,9.1-2.9
			c3.6,0,6.3,0.8,8.3,2.8c2,2,2.9,5.6,2.9,9.7v3.4c-6.2,0.2-12.3,0.7-17.7,1.5c-9.5,1.5-16.5,4-20.5,7.5c-4,3.4-6.2,8.2-6.2,13.6
			c0,5.8,2.1,11,6.3,14.8c4.2,3.8,10,5.6,17.1,5.6c9.3,0,16.9-3.8,21.7-10.5l0.8-1.3v1.4c0,3.4,0.4,6.3,1,8.8h17.6
			c-1.2-4.6-1.8-10.8-1.8-18.2V206.2z M508.1,221.4c0,3.3-0.3,6.1-0.8,8c-0.6,1.9-1.4,3.7-3,5.3c-1.3,1.3-3.3,2.4-5.3,3.1
			c-2,0.7-4,1-6.1,1c-3.3,0-5.8-0.9-7.6-2.4c-1.8-1.6-2.8-4-2.8-6.6c0-2.7,1-5.4,2.7-6.8c2.2-1.8,4.1-2.7,8.6-3.5
			c3.8-0.7,8.9-1.2,14.3-1.5V221.4z M1072.4,206.2c0-8.7-1.9-15-7.2-19.8c-4.9-4.4-12.4-5.6-22.2-5.6c-9.4,0-17.5,2-22.5,6.4
			c-4.6,4.1-7.2,9.4-7.6,15.6h17.8c0.2-3.1,1-5.6,3-7.4c2-1.8,5.5-2.9,9.1-2.9c3.6,0,6.3,0.8,8.3,2.8c2,2,2.9,5.6,2.9,9.7v3.4
			c-6.2,0.2-12.3,0.7-17.7,1.5c-9.6,1.5-16.5,4-20.5,7.5c-4,3.4-6.2,8.2-6.2,13.6c0,5.8,2.1,11,6.3,14.8c4.2,3.8,10,5.6,17.1,5.6
			c9.3,0,16.9-3.8,21.7-10.5l0.8-1.3v1.4c0,3.4,0.4,6.3,1,8.8h17.6c-1.2-4.6-1.8-10.8-1.8-18.2V206.2z M1054,221.4
			c0,3.3-0.3,6.1-0.8,8c-0.6,1.9-1.4,3.7-3,5.3c-1.3,1.3-3.3,2.4-5.3,3.1c-2,0.7-4,1-6.1,1c-3.3,0-5.8-0.9-7.6-2.4
			c-1.8-1.6-2.8-4-2.8-6.6c0-2.7,1-5.4,2.7-6.8c2.2-1.8,4.1-2.7,8.6-3.5c3.8-0.7,8.9-1.2,14.3-1.5V221.4z M446.7,120.5
			c6-4.6,9.1-10.9,9.1-18.7c0-6-1.5-10.8-4.6-14.4c-3-3.5-7.9-6-14.5-7.4l-0.2,0v-0.6l0.1-0.1c5.7-2,9.5-4.8,12.3-8.4
			c2.7-3.6,4.1-8.1,4.1-13.4c0-7.4-3-13.3-8.8-17.6c-5.9-4.3-14.7-6.2-26.3-6.2h-35.5v93.5h38.9
			C432.1,127.2,440.6,125.1,446.7,120.5z M402.2,48.8h15.6c5.6,0,9.7,0.9,12.2,2.8c2.5,1.8,3.8,4.9,3.8,8.8c0,4.1-1.4,7.4-4.1,9.3
			c-2.7,1.9-7,3.1-12.9,3.1h-14.7V48.8z M402.2,112V86.9h15.2c6.4,0,11,1.2,13.8,3.1c2.8,2,4.2,5.1,4.2,9.5c0,4.1-1.4,7.4-4.2,9.3
			c-2.7,1.9-7.2,3.1-13.3,3.1H402.2z M526.6,83.7c0-8.7-1.9-15-7.2-19.8c-4.9-4.4-12.4-5.6-22.2-5.6c-9.4,0-17.5,2-22.5,6.4
			c-4.6,4.1-7.2,9.4-7.6,15.6h17.8c0.2-3.1,1-5.6,3-7.4c2-1.8,5.5-2.9,9.1-2.9c3.6,0,6.3,0.8,8.3,2.8c2,2,2.9,5.6,2.9,9.7v3.4
			c-6.2,0.2-12.3,0.7-17.7,1.5c-9.6,1.5-16.5,4-20.5,7.5c-4,3.4-6.2,8.2-6.2,13.6c0,5.8,2.1,11,6.3,14.8c4.2,3.8,10,5.6,17.1,5.6
			c9.3,0,16.9-3.8,21.7-10.5l0.8-1.3v1.4c0,3.4,0.4,6.3,1,8.8h17.6c-1.2-4.6-1.8-10.8-1.8-18.2V83.7z M508.2,98.9
			c0,3.3-0.3,6.1-0.8,8c-0.6,1.9-1.4,3.7-3,5.3c-1.3,1.3-3.3,2.4-5.3,3.1c-2,0.7-4,1-6.1,1c-3.3,0-5.8-0.9-7.6-2.4
			c-1.8-1.6-2.8-4-2.8-6.6c0-2.7,1-5.4,2.7-6.8c2.2-1.8,4.1-2.7,8.6-3.5c3.8-0.7,8.9-1.2,14.3-1.5V98.9z M1205,213.7l0.1-0.1
			l25.1-30.6h-21.4l-21.2,27.1l-2.3,2.8v-56.6h-18.7v93.5h18.7v-34.5l2.3,3.1l22.6,31.4h22.1L1205,213.7z M883.8,206.2
			c0-8.7-1.9-15-7.2-19.8c-4.9-4.4-12.4-5.6-22.2-5.6c-9.4,0-17.5,2-22.5,6.4c-4.6,4.1-7.2,9.4-7.6,15.6h17.8c0.2-3.1,1-5.6,3-7.4
			c2-1.8,5.5-2.9,9.1-2.9c3.6,0,6.3,0.8,8.3,2.8c2,2,2.9,5.6,2.9,9.7v3.4c-6.2,0.2-12.3,0.7-17.7,1.5c-9.5,1.5-16.5,4-20.5,7.5
			c-4,3.4-6.2,8.2-6.2,13.6c0,5.8,2.1,11,6.3,14.8c4.2,3.8,10,5.6,17.1,5.6c9.3,0,16.9-3.8,21.7-10.5l0.8-1.3v1.4
			c0,3.4,0.4,6.3,1,8.8h17.6c-1.2-4.6-1.8-10.8-1.8-18.2V206.2z M865.5,221.4c0,3.3-0.3,6.1-0.8,8c-0.6,1.9-1.5,3.7-3,5.3
			c-1.3,1.3-3.3,2.4-5.3,3.1c-2,0.7-4,1-6.1,1c-3.3,0-5.8-0.9-7.6-2.4c-1.8-1.6-2.8-4-2.8-6.6c0-2.7,1-5.4,2.7-6.8
			c2.2-1.8,4.1-2.7,8.6-3.5c3.8-0.7,8.9-1.2,14.3-1.5V221.4z M1126.4,181.3c-4.2,0-8.5,0.9-11.9,2.7c-3.4,1.8-6.4,4.3-8.7,7.4
			l-0.7,1v-9.5h-17.4v66.8h18.7v-35.8c0-5.9,1.2-10.6,3.7-13.8c2.5-3.2,6-4.7,10.1-4.7c3.9,0,7,1.3,9.2,3.8
			c2.2,2.5,3.2,6.3,3.2,11.3v39.2h18.7v-40.5c0-8.8-1.7-16.2-6.2-20.9C1140.3,183.4,1134.5,181.3,1126.4,181.3z M121.1,33.7
			l-66.4,108l66.4,108h130.7l-66.4-108l66.4-108H121.1z M693.4,126.5c4.6-2,8.3-4.5,11.3-8.1c2.8-3.4,4.5-7.2,5.2-11.1h-19.5
			c-0.4,2.7-1.6,4.9-4,6.9c-2.3,1.9-5.4,2.7-9.1,2.7c-4.5,0-8.3-1.3-11-4.4c-2.8-3.1-4.1-7.9-4.4-14.4l0-0.2h48.8
			c0-6.5-0.7-12.8-2-17.2c-1.9-6.9-6.1-12.8-11.7-16.7c-5.2-3.7-12.1-5.6-19.8-5.6c-7,0-13.3,1.3-18.4,4.3
			c-5.1,3.1-9.4,7.5-12.1,12.7c-2.7,5.2-4.3,11.4-4.3,18c0,7.1,1.4,13.5,4.1,18.9c2.9,5.8,7,9.9,12.3,13c5.1,3,11.5,4.1,18.6,4.1
			C683.2,129.3,688.7,128.4,693.4,126.5z M662.2,86.4c0.3-4.9,1.9-9.6,4.6-12.1c2.7-2.5,6.2-3.8,10.3-3.8c4,0,7.4,1.3,10.2,3.8
			c2.8,2.5,3.9,7.2,4.2,12l0,0.2h-29.4L662.2,86.4z M717.9,185c-5.3-2.9-11.7-4.2-18.8-4.2c-7.1,0-13.6,1.4-18.8,4.2
			c-5.3,2.9-9.8,7.1-12.6,12.5c-2.9,5.3-4.4,11.7-4.4,18.8c0,7.2,1.6,13.5,4.4,18.8c2.9,5.3,7.4,9.6,12.7,12.5
			c5.3,2.9,11.7,4.2,18.8,4.2c7.1,0,13.6-1.4,18.8-4.2c5.3-2.9,9.8-7.1,12.7-12.5c2.9-5.3,4.4-11.7,4.4-18.8
			c0-7.2-1.6-13.5-4.4-18.8C727.7,192.2,723.1,187.9,717.9,185z M711,233.2c-2.8,3.9-7.1,5.7-11.9,5.7c-4.8,0-9.1-1.8-11.9-5.7
			c-2.8-3.9-3.9-10.3-3.9-16.8c0-6.5,1.1-12.9,3.9-16.8c2.8-3.9,7.1-5.7,11.9-5.7c4.8,0,9.1,1.8,11.9,5.7c2.8,3.9,3.9,10.3,3.9,16.8
			C714.9,222.9,713.7,229.3,711,233.2z M760.6,75.1c2.3,0,5,0.2,7.1,0.7V59.8c-1.8-0.4-3.9-0.6-6.1-0.6c-4.5,0-7.5,0.9-11.1,3.1
			c-3.5,2.2-7.5,6.3-9.7,11V60.4h-18.5v66.8h18.7V96.6c0-7.5,0.6-11.7,4.1-15.9C748.6,76.9,754.3,75.1,760.6,75.1z M784.9,181.3
			c-4.2,0-8.5,0.9-11.9,2.7c-3.4,1.8-6.4,4.3-8.7,7.4l-0.7,1v-9.5h-17.4v66.8h18.7v-35.8c0-5.9,1.2-10.6,3.7-13.8
			c2.5-3.2,6-4.7,10.1-4.7c3.9,0,7,1.3,9.2,3.8c2.2,2.5,3.2,6.3,3.2,11.3v39.2h18.7v-40.5c0-8.8-1.7-16.2-6.2-20.9
			C798.8,183.4,793,181.3,784.9,181.3z M899.1,249.7h18.7v-93.5h-18.7V249.7z M577.1,115.4c-1.8,1.2-4.8,2.1-8.1,2.1
			c-3.9,0-7.5-1.2-9.6-3.1c-2.1-1.8-3.2-4.8-3.3-8.1h-18.8c0.2,7.8,2.7,13.3,8,17.3c5.4,4,13.7,5.8,23.4,5.8
			c9.3,0,17.4-1.7,22.8-5.5c5.4-3.8,8.2-9.3,8.2-15.5c0-5-1.3-8.6-3.7-11.4c-2.1-2.5-5.8-4.4-8.8-5.5c-3.3-1.3-8.3-2.7-14.1-4.2
			c-4.1-1.1-7.4-2-9.4-2.6c-1.9-0.6-3.4-1.6-4.4-2.6c-1-1-1.7-3.1-1.7-4.7c0-2,1-4.2,2.6-5.4c1.7-1.2,4.5-2.1,7.5-2.1
			c7.5,0,11.6,3.8,11.7,10.5h17.9c-0.1-7.3-2.8-12.6-7.7-16.4c-5-3.8-12.7-5.6-21.8-5.6c-5.7,0-11.1,0.9-15.5,2.5
			c-4.3,1.7-7.8,4.3-10.2,7.4c-2.4,3.1-3.6,6.6-3.6,10.5c0,4.8,1.3,8.2,3.5,10.9c2.2,2.7,5.2,4.3,8.2,5.5c3,1.3,7.3,2.5,12.7,3.9
			c4.5,1.1,8.1,2.2,10.1,2.8c2.1,0.6,4,1.9,5.1,3.1c1.1,1.2,1.6,3,1.6,4.9C579.9,111.9,578.9,114.2,577.1,115.4z M988,185.3
			c-4.3-2.9-9.3-4.1-14.9-4.1c-3.9,0-7.7,0.9-11.2,2.6c-3.4,1.7-6.2,4.1-8.3,7.1l-0.1,0.1l-0.6,1v-35.8h-18.7v93.5h18.1v-9.9l0.6,1
			l0.1,0.1c2.1,3.3,4.9,5.9,8.4,7.7c3.5,1.8,7.3,2.8,11.4,2.8c5.7,0,10.7-1.3,15-4.1c4.7-3.1,7.7-6.9,10.1-12.4
			c2.3-5.3,3.4-11.6,3.4-18.6c0-7-1.1-13.3-3.4-18.6C995.6,192.2,992.7,188.5,988,185.3z M977.9,232.5c-2.8,3.9-6.6,5.4-11.2,5.4
			c-4.4,0-8.1-1.7-10.8-5.5c-2.6-3.8-4-9.4-4-16.1c0-6.6,1.3-12.3,4-16.1c2.7-3.8,6.4-5.7,10.8-5.7c4.6,0,8.4,1.8,11.2,5.6
			c2.7,3.9,3.9,9.7,3.9,16.1C981.9,222.8,980.7,228.6,977.9,232.5z M580.5,181.3c-4.2,0-8.5,0.9-11.9,2.7c-3.4,1.8-6.4,4.3-8.7,7.4
			l-0.7,1v-9.5h-17.4v66.8h18.7v-35.8c0-5.9,1.2-10.6,3.7-13.8c2.5-3.2,6-4.7,10.1-4.7c3.9,0,7,1.3,9.2,3.8
			c2.2,2.5,3.2,6.3,3.2,11.3v39.2h18.7v-40.5c0-8.8-1.7-16.2-6.2-20.9C594.4,183.4,588.5,181.3,580.5,181.3z M630.6,33.7h-18.7v93.5
			h18.7V33.7z M644.7,235.2c-1.4-1.6-2.1-4.3-2.1-8.1v-31.4H657v-12.8h-14.4v-17.5h-18.7v17.5h-11.5v12.8h11.5V229
			c0,7.7,1.7,13.3,5.3,16.6c3.6,3.3,9.6,5,17.5,5c3.7,0,7.5-0.4,10.4-1.3v-12.3c-1.3,0.4-3.2,0.6-5,0.6
			C648.8,237.6,646.1,236.8,644.7,235.2z"/>
	</g>
</g>
</svg>
