<?xml version="1.0" encoding="utf-8"?>
<!-- Generator: Adobe Illustrator 23.0.6, SVG Export Plug-In . SVG Version: 6.00 Build 0)  -->
<svg version="1.1" id="Ebene_1" xmlns="http://www.w3.org/2000/svg" xmlns:xlink="http://www.w3.org/1999/xlink" x="0px" y="0px"
	 width="595.3px" height="283.5px" viewBox="0 0 595.3 283.5" style="enable-background:new 0 0 595.3 283.5;" xml:space="preserve"
	>
<style type="text/css">
	.st0{fill:#FFFFFF;}
</style>
<g>
	<rect x="275" y="69.4" class="st0" width="45.4" height="144.6"/>
	<path class="st0" d="M0,0v283.5h595.3V0H0z M581.1,269.3H320.3H14.2V14.2H275h306.1V269.3z"/>
</g>
<path class="st0" d="M515.9,184.3l-6.5,23.8c-13.5,6.5-29.6,9-44.7,9c-48.3,0-84.8-27.7-84.8-70.6c0-54.7,40.6-79.6,89.7-79.6
	c14.9,0,32.9,3.6,46,10.2c-2,7.1-4.2,17.8-6,25.1l-2.4-3.6c-8.3-11.3-22.8-19.3-37.4-19.3c-37.4,0-52.5,33.3-52.5,64.1
	c0,35.8,18.9,61,53.7,61c14,0,30.2-6.7,40.4-15.7L515.9,184.3z"/>
<path class="st0" d="M212.4,184.3l-6.5,23.8c-13.5,6.5-29.6,9-44.7,9c-48.2,0-84.8-27.7-84.8-70.6c0-54.7,40.6-79.6,89.7-79.6
	c14.9,0,32.9,3.6,46,10.2c-2,7.1-4.2,17.8-6,25.1l-2.4-3.6c-8.3-11.3-22.8-19.3-37.5-19.3c-37.4,0-52.5,33.3-52.5,64.1
	c0,35.8,18.9,61,53.7,61c14,0,30.2-6.7,40.4-15.7L212.4,184.3z"/>
<rect x="275" y="69.4" class="st0" width="45.4" height="144.6"/>
</svg>
