<?xml version="1.0" encoding="utf-8"?>
<!-- Generator: Adobe Illustrator 23.1.0, SVG Export Plug-In . SVG Version: 6.00 Build 0)  -->
<svg version="1.1" id="Ebene_1" xmlns="http://www.w3.org/2000/svg" xmlns:xlink="http://www.w3.org/1999/xlink" x="0px" y="0px"
	 width="300px" height="59.5px" viewBox="0 0 300 59.5" style="enable-background:new 0 0 300 59.5;" xml:space="preserve">
<style type="text/css">
	.st0{fill:#FFFFFF;}
	.st1{fill:none;}
</style>
<g>
	<g>
		<g>
			<g>
				<path class="st0" d="M57.2,2.3v55h-55v-55H57.2 M59.5,0L59.5,0H0.2H0v0.2v59v0.2h0.2h59h0.2v-0.2L59.5,0L59.5,0L59.5,0z"/>
			</g>
		</g>
		<g>
			<rect x="2.5" y="2.5" class="st1" width="54.5" height="54.5"/>
		</g>
		<polygon class="st0" points="11.5,29.7 26.6,54.1 53.8,54.1 38.7,29.7 53.8,5.4 26.6,5.4 		"/>
	</g>
	<path class="st0" d="M84.7,17.8h7.4v3.6H80.6V0h4.1V17.8z"/>
	<path class="st0" d="M97.5,5.6v8.1c0,1.6,0,3.4,1.4,4.3c0.7,0.5,1.1,0.5,1.6,0.5c1.6,0,2.3-1.1,2.5-1.6c0.7-1.4,0.7-2.7,0.7-4.3v-7
		h3.6v10.6l0.2,5.4h-3.4v-2.5c-0.2,0.5-0.5,0.9-1.4,1.6c-0.7,0.5-1.8,1.1-3.6,1.1c-1.6,0-3.2-0.7-4.3-2.3c-0.9-1.6-0.9-3.6-0.9-5.4
		V5.6H97.5z"/>
	<path class="st0" d="M121.6,9l-7.2,9.5c0.9,0,1.8,0,2.7,0h4.7v3.2h-11.9v-3.2l7.2-9.7h-6.8V5.6h11.3V9z"/>
	<path class="st0" d="M127.3,15.1c0.2,0.9,0.5,1.4,0.7,1.6c0.5,0.9,1.6,2,3.8,2c1.6,0,2.9-0.7,3.6-0.9c0.2-0.2,0.7-0.5,0.9-0.7v3.6
		c-0.9,0.5-2.7,1.1-5.2,1.1c-0.9,0-3.4,0-5.4-2c-0.9-0.9-2-2.7-2-6.1c0-0.9,0-3.2,1.1-5.2c0.7-1.4,2.5-3.4,5.9-3.4
		c0.7,0,2.3,0,3.6,1.1c2.5,1.8,2.7,5.4,2.9,6.3c0,0.9,0,1.6,0,2.5C137.2,15.1,127.3,15.1,127.3,15.1z M133.6,12.2
		c0-0.5,0-0.9-0.2-1.6c-0.5-1.6-1.4-2.5-2.9-2.5c-0.7,0-1.1,0.2-1.6,0.5c-1.6,0.9-1.6,2.9-1.6,3.4L133.6,12.2z"/>
	<path class="st0" d="M148,9.5c-0.2,0-0.5-0.2-1.1-0.2c-0.7,0-2.3,0.2-2.9,2c-0.5,1.1-0.7,2.5-0.7,5v5.6h-3.6V9.7c0-1.4,0-2.7,0-4.1
		h3.6v3.8c0.2-0.7,0.2-0.9,0.5-1.4c1.1-2.3,2.7-2.7,3.6-2.7c0.2,0,0.5,0,1.1,0.2v3.8H148z"/>
	<path class="st0" d="M159.9,21.6v-7.9c0-1.8,0-3.8-1.4-4.7c-0.2-0.2-0.7-0.5-1.4-0.5c-0.5,0-1.8,0.2-2.5,1.6
		c-0.7,1.1-0.7,2.7-0.9,4.1v7.4H150V9.5c0-1.4,0-2.5,0-3.8h3.6v2.5c0.2-0.5,0.7-1.1,1.8-1.8c0.7-0.5,1.6-0.9,3.2-0.9
		c0.2,0,0.9,0,1.6,0.2c1.6,0.5,2.7,1.6,2.9,3.4c0.2,1.1,0.2,3.4,0.2,4.5v8.1H159.9z"/>
	<path class="st0" d="M169.8,15.1c0.2,0.9,0.5,1.4,0.7,1.6c0.5,0.9,1.6,2,3.8,2c1.6,0,2.9-0.7,3.6-0.9c0.2-0.2,0.7-0.5,0.9-0.7v3.6
		c-0.9,0.5-2.7,1.1-5.2,1.1c-0.9,0-3.4,0-5.4-2c-0.9-0.9-2-2.7-2-6.1c0-0.9,0-3.2,1.1-5.2c0.7-1.4,2.5-3.4,5.9-3.4
		c0.7,0,2.3,0,3.6,1.1c2.5,1.8,2.7,5.4,2.9,6.3c0,0.9,0,1.6,0,2.5C179.7,15.1,169.8,15.1,169.8,15.1z M176.1,12.2
		c0-0.5,0-0.9-0.2-1.6c-0.2-1.6-1.4-2.5-2.7-2.5c-0.7,0-1.1,0.2-1.6,0.5c-1.6,0.9-1.6,2.9-1.6,3.4L176.1,12.2z"/>
	<path class="st0" d="M190.8,9.5c-0.2,0-0.5-0.2-1.1-0.2c-0.7,0-2.3,0.2-2.9,2c-0.5,1.1-0.7,2.5-0.7,5v5.6h-3.8V9.7
		c0-1.4,0-2.7,0-4.1h3.6v3.8c0.2-0.7,0.2-0.9,0.5-1.4c1.1-2.3,2.7-2.7,3.6-2.7c0.2,0,0.5,0,1.1,0.2v3.8H190.8z"/>
	<path class="st0" d="M85.6,43.7l1.1-1.6c0.5-0.7,1.1-1.4,1.6-2l6.1-7.9h6.1L93,41.4l-2.5,2.9l10.6,14.4h-6.3l-6.8-9.7
		c-0.5-0.7-0.9-1.4-1.4-2l-1.1-0.9V59h-4.7V32.2h4.7V43.7z"/>
	<path class="st0" d="M112.8,59v-2.9c-0.2,0.5-0.5,0.7-0.5,0.9c-0.7,0.9-2.3,2.5-5.2,2.5c-0.7,0-3.8-0.2-5.4-2.9
		c-0.2-0.5-0.9-1.6-0.9-3.2c0-1.6,0.7-2.7,0.9-3.4c1.8-2.9,5.4-3.4,8.3-3.4c0.9,0,1.8,0,2.7,0c0,0,0-1.4-0.2-2
		c-0.5-1.1-1.4-2.3-3.6-2.3c-2.3,0-4.1,1.1-4.7,1.4c-0.2,0.2-0.5,0.2-0.9,0.7l-0.2-4.5c2.3-0.9,3.8-1.4,6.1-1.4c0.5,0,1.6,0,2.7,0.2
		c2.9,0.7,4.3,2.7,4.5,4.1c0.5,1.1,0.5,2.3,0.5,4.7v4.7c0,2,0,3.8,0,5.9c0,0.2,0,0.5,0,0.7h-4.1V59z M107,50.9
		c-0.5,0.5-0.9,0.9-0.9,1.1c0,0.2-0.2,0.7-0.2,1.4c0,0.5,0,0.7,0.2,1.1c0.7,1.6,2.3,1.6,2.5,1.6c0.7,0,2.3-0.2,3.4-1.8
		c0.9-1.4,0.9-2.5,1.1-4.1C111,50,108.6,49.8,107,50.9z"/>
	<path class="st0" d="M133.3,59v-9.7c0-2.3,0-5-1.6-6.1c-0.2-0.2-0.9-0.5-1.6-0.5s-2,0.2-3.2,1.8c-0.9,1.4-0.9,3.2-0.9,5v9.2h-4.7
		V43.7c0-1.6,0-3.2-0.2-4.7h4.5v3.2c0.5-0.7,0.9-1.4,2.3-2.3c0.7-0.5,1.8-1.1,4.1-1.1c0.2,0,1.1,0,2,0.2c1.8,0.7,3.2,2,3.8,4.1
		c0.5,1.6,0.5,4.1,0.5,5.6v10.1h-5V59z"/>
	<path class="st0" d="M147.7,39.2h4.3V43h-4.3v8.3c0,0.9,0,3.6,2.7,3.6c0.5,0,0.9,0,1.6-0.2v4.1c-1.1,0.2-1.8,0.5-3.2,0.5
		c-0.5,0-2.9,0-4.5-1.8c-1.6-1.8-1.6-4.7-1.6-7v-7.7h-3.4V39h3.4v-4.1l4.5-1.6v5.9H147.7z"/>
	<path class="st0" d="M166.7,39.6c3.6,1.6,5.2,5.4,5.2,9.5c0,0.7,0,2.5-0.7,4.3c-0.7,2.3-3.2,6.1-8.6,6.1c-1.1,0-3.6,0-6.1-2.3
		c-1.4-1.1-3.2-3.6-3.2-8.1c0-1.4,0.2-2.9,0.7-4.3c1.4-4.1,4.7-6.1,8.6-6.1C163.3,38.7,165.1,38.7,166.7,39.6z M160.4,43.2
		c-1.1,0.7-2.3,2.5-2.3,5.6c0,0.5,0,4.1,2,5.9c0.7,0.7,1.6,0.9,2.3,0.9c2.3,0,4.3-1.8,4.3-6.5c0-1.6-0.2-2.9-0.9-4.3
		c-0.5-0.7-1.4-2-3.4-2C161.5,42.6,160.8,43,160.4,43.2z"/>
	<path class="st0" d="M187.2,59v-9.7c0-2.3,0-5-1.6-6.1c-0.2-0.2-0.9-0.5-1.6-0.5s-2,0.2-3.2,1.8c-0.9,1.4-0.9,3.2-0.9,5v9.2h-4.7
		V43.7c0-1.6,0-3.2-0.2-4.7h4.5v3.2c0.5-0.7,0.9-1.4,2.3-2.3c0.7-0.5,1.8-1.1,4.1-1.1c0.2,0,1.1,0,2,0.2c1.8,0.7,3.2,2,3.8,4.1
		c0.5,1.6,0.5,4.1,0.5,5.6v10.1h-5V59z"/>
	<path class="st0" d="M205.9,59v-2.9c-0.2,0.5-0.5,0.7-0.5,0.9c-0.7,0.9-2.5,2.5-5.2,2.5c-0.7,0-3.8-0.2-5.4-2.9
		c-0.2-0.5-0.9-1.6-0.9-3.2c0-1.6,0.7-2.7,0.9-3.4c1.8-2.9,5.4-3.4,8.3-3.4c0.9,0,1.8,0,2.7,0c0,0,0-1.4-0.2-2
		c-0.5-1.1-1.4-2.3-3.6-2.3s-4.1,1.1-4.7,1.4c-0.2,0.2-0.5,0.2-0.9,0.7l-0.2-4.5c2.3-0.9,3.8-1.4,6.1-1.4c0.5,0,1.6,0,2.7,0.2
		c2.9,0.7,4.3,2.7,4.5,4.1c0.5,1.1,0.5,2.3,0.5,4.7v4.7c0,2,0,3.8,0,5.9c0,0.2,0,0.5,0,0.7h-4.1V59z M200,50.9
		c-0.5,0.5-0.9,0.9-0.9,1.1c0,0.2-0.2,0.7-0.2,1.4c0,0.5,0,0.7,0.2,1.1c0.7,1.6,2.3,1.6,2.5,1.6c0.7,0,2.3-0.2,3.4-1.8
		c0.9-1.4,0.9-2.5,1.1-4.1C204.1,50,201.6,49.8,200,50.9z"/>
	<path class="st0" d="M218.7,30V59H214V30H218.7z"/>
	<path class="st0" d="M227.7,30v12.2c0.2-0.5,0.5-1.1,1.4-1.8c1.1-1.1,2.5-1.8,4.1-1.6c0.7,0,1.8,0,3.4,0.9c1.8,1.1,4.1,3.6,4.1,9
		c0,1.4-0.2,2.5-0.2,2.9c-0.5,2.3-0.9,4.3-2.5,5.6c-0.9,0.9-2.3,2-5,2c-2.5,0-3.8-1.1-4.7-2c-0.5-0.5-0.7-0.9-0.9-1.4V59h-4.5V30
		H227.7z M230,43.7c-1.1,0.7-2.3,2.3-2.3,5.4c0,2,0.5,4.3,2,5.4c0.9,0.7,1.6,0.7,2,0.7s1.1,0,2-0.7c0.9-0.7,2-2.5,2-5.6
		c0-1.6-0.5-4.1-1.6-5.2c-0.7-0.7-1.4-0.9-2.3-0.9C231.8,43,230.9,43,230,43.7z"/>
	<path class="st0" d="M254.7,59v-2.9c-0.2,0.5-0.5,0.7-0.5,0.9c-0.7,0.9-2.3,2.5-5.2,2.5c-0.7,0-3.8-0.2-5.4-2.9
		c-0.2-0.5-0.9-1.6-0.9-3.2c0-1.6,0.7-2.7,0.9-3.4c1.8-2.9,5.4-3.4,8.3-3.4c0.9,0,1.8,0,2.7,0c0,0,0-1.4-0.2-2
		c-0.5-1.1-1.4-2.3-3.6-2.3s-4.1,1.1-4.7,1.4c-0.2,0.2-0.5,0.2-0.9,0.7l-0.2-4.5c2.3-0.9,3.8-1.4,6.1-1.4c0.5,0,1.6,0,2.7,0.2
		c2.9,0.7,4.3,2.7,4.5,4.1c0.5,1.1,0.5,2.3,0.5,4.7v4.7c0,2,0,3.8,0,5.9c0,0.2,0,0.5,0,0.7h-4.1V59z M248.9,50.9
		c-0.5,0.5-0.9,0.9-0.9,1.1c0,0.2-0.2,0.7-0.2,1.4c0,0.5,0,0.7,0.2,1.1c0.7,1.6,2.3,1.6,2.5,1.6c0.7,0,2.3-0.2,3.4-1.8
		c0.9-1.4,0.9-2.5,1.1-4.1C252.9,50,250.5,49.8,248.9,50.9z"/>
	<path class="st0" d="M275.2,59v-9.7c0-2.3,0-5-1.6-6.1c-0.2-0.2-0.9-0.5-1.6-0.5c-0.7,0-2,0.2-3.2,1.8c-0.9,1.4-0.9,3.2-0.9,5v9.2
		h-4.7V43.7c0-1.6,0-3.2-0.2-4.7h4.5v3.2c0.5-0.7,0.9-1.4,2.3-2.3c0.7-0.5,2-1.1,4.1-1.1c0.2,0,1.1,0,2,0.2c1.8,0.7,3.2,2,3.8,4.1
		c0.5,1.6,0.5,4.1,0.5,5.6v10.1h-5V59z"/>
	<path class="st0" d="M288.3,47.3c0.5-0.9,1.1-1.6,1.6-2.5l4.1-5.6h5.4l-6.8,8.8l7.4,11h-5.9l-4.1-6.1c-0.5-0.7-0.9-1.6-1.4-2.3
		c-0.2-0.5-0.7-1.1-0.9-1.6V59h-4.1V30h4.7v17.3H288.3z"/>
</g>
</svg>
