<?xml version="1.0" encoding="utf-8"?>
<!-- Generator: Adobe Illustrator 23.1.0, SVG Export Plug-In . SVG Version: 6.00 Build 0)  -->
<svg version="1.1" id="Ebene_1" xmlns="http://www.w3.org/2000/svg" xmlns:xlink="http://www.w3.org/1999/xlink" x="0px" y="0px"
	 width="300px" height="66.3px" viewBox="0 0 300 66.3" style="enable-background:new 0 0 300 66.3;" xml:space="preserve">
<style type="text/css">
	.st0{fill:#FFFFFF;}
</style>
<g>
	<path class="st0" d="M91.3,48.5l8.9-11.2h5.4l-9.8,12.4l11,12.6h-5.6l-9.8-11.2v11.2h-4.2V37.2h4.2V48.5z"/>
	<path class="st0" d="M123,45.4v16.9h-4v-2.1c0,0-1.4,2.6-5.2,2.6c-4.4,0-8.2-3.7-8.2-8.9s3.7-8.9,8.2-8.9c3.5,0,5.2,2.6,5.2,2.6
		v-2.1C119,45.4,123,45.4,123,45.4z M118.5,51.3c0,0-1.2-2.3-4-2.3c-2.8,0-4.7,2.1-4.7,4.9s1.9,4.9,4.7,4.9c2.8,0,4-2.3,4-2.3V51.3z
		"/>
	<path class="st0" d="M141.9,51.3v11h-4.2v-9.8c0-2.3-1.4-3.5-3.3-3.5c-2.1,0-3.3,2.1-3.3,2.1v11.2h-4.2V45.4h4V48
		c0,0,1.4-2.8,5.2-2.8C138.9,45,141.9,47.3,141.9,51.3z"/>
	<path class="st0" d="M143.8,45.4h3.3v-5.2h4.2v5.2h5.2v3.7h-5.2V56c0,2.1,1.2,2.6,2.1,2.6s1.9-0.7,1.9-0.7l1.6,3.5
		c0,0-1.6,1.2-4,1.2c-3.3,0-5.9-2.3-5.9-6.1v-7.3h-3.3C143.8,49.2,143.8,45.4,143.8,45.4z"/>
	<path class="st0" d="M175.6,53.9c0,4.9-4,8.9-9.1,8.9c-5.2,0-9.1-4-9.1-8.9s4-8.9,9.1-8.9S175.6,48.7,175.6,53.9z M171.2,53.9
		c0-2.6-1.9-4.9-4.7-4.9s-4.7,2.3-4.7,4.9s1.9,4.9,4.7,4.9C169.6,58.8,171.2,56.4,171.2,53.9z"/>
	<path class="st0" d="M193.4,51.3v11h-4.2v-9.8c0-2.3-1.4-3.5-3.3-3.5c-2.1,0-3.3,2.1-3.3,2.1v11.2h-4.2V45.4h4V48
		c0,0,1.4-2.8,5.2-2.8C190.4,45,193.4,47.3,193.4,51.3z"/>
	<path class="st0" d="M213.3,45.4v16.9h-4v-2.1c0,0-1.4,2.6-5.2,2.6c-4.4,0-8.2-3.7-8.2-8.9s3.7-8.9,8.2-8.9c3.5,0,5.2,2.6,5.2,2.6
		v-2.1C209.4,45.4,213.3,45.4,213.3,45.4z M209.1,51.3c0,0-1.2-2.3-4-2.3c-2.8,0-4.7,2.1-4.7,4.9s1.9,4.9,4.7,4.9c2.8,0,4-2.3,4-2.3
		V51.3z"/>
	<g>
		<path class="st0" d="M90.9,4.2l12.4,17.3V4.2h4.4v25.1H104L91.3,11.9V29h-4.2V4.2H90.9z"/>
		<path class="st0" d="M114.1,4c1.6,0,2.8,1.2,2.8,2.8s-1.2,2.8-2.8,2.8c-1.6,0-2.8-1.2-2.8-2.8S112.4,4,114.1,4z M111.9,12.2h4.2
			V29h-4.2V12.2z"/>
		<path class="st0" d="M136.1,29.3h-4v-2.1c0,0-1.4,2.6-5.2,2.6c-4.4,0-8.2-3.7-8.2-8.9s3.7-9.1,8.2-9.1c3.3,0,4.7,2.1,4.7,2.1V2.6
			h4.2v26.7H136.1z M131.6,18.3c0,0-1.2-2.3-4-2.3c-2.8,0-4.7,2.1-4.7,4.9s1.6,4.9,4.7,4.9c2.8,0,4-2.3,4-2.3V18.3z"/>
		<polygon class="st0" points="146.6,29.3 151.5,18 156.7,29.3 157.4,29.3 165.1,12.2 160.9,12.2 157.1,20.8 153.6,12.2 150.1,12.2 
			146.4,20.8 142.9,12.2 137.9,12.2 145.9,29.3 		"/>
		<path class="st0" d="M182.2,12.2V29h-4v-2.1c0,0-1.4,2.6-5.2,2.6c-4.4,0-8.2-3.7-8.2-8.9s4-8.9,8.4-8.9c3.5,0,5.2,2.6,5.2,2.6
			v-2.1H182.2z M178,18.3c0,0-1.2-2.3-4-2.3s-4.7,2.1-4.7,4.9s1.9,4.9,4.7,4.9s4-2.3,4-2.3V18.3z"/>
		<path class="st0" d="M185.9,2.6h4.2v26.7h-4.2V2.6z"/>
		<path class="st0" d="M209.8,29.3h-4v-2.1c0,0-1.4,2.6-5.2,2.6c-4.4,0-8.2-3.7-8.2-8.9s4-9.1,8.4-9.1c3.3,0,4.7,2.1,4.7,2.1V2.6
			h4.2C209.8,2.6,209.8,29.3,209.8,29.3z M205.6,18.3c0,0-1.2-2.3-4-2.3c-2.8,0-4.7,2.1-4.7,4.9s1.6,4.9,4.7,4.9c2.8,0,4-2.3,4-2.3
			V18.3z"/>
		<path class="st0" d="M229,18.3v11h-4.2V19.2c0-2.3-1.4-3.5-3.3-3.5c-2.1,0-3.3,2.1-3.3,2.1V29h-4.2V12.2h4v2.6
			c0,0,1.4-2.8,5.2-2.8C226,11.7,229,14.1,229,18.3z"/>
		<path class="st0" d="M248.2,20.6c0,0.2,0,0.9,0,1.6h-12.6c0.2,1.4,2.1,3.5,4.7,3.5c3,0,4.7-1.6,4.7-1.6l2.1,3.3
			c0,0-2.6,2.3-6.8,2.3c-5.2,0-9.1-4-9.1-8.9s3.5-8.9,8.4-8.9C244.3,11.7,248.2,15.5,248.2,20.6z M244,19.2c0-1.4-1.4-3.5-4.2-3.5
			c-2.8,0-4,1.9-4.2,3.5H244z"/>
		<path class="st0" d="M262.3,12.4l-1.4,3.7c0,0-0.7-0.5-2.1-0.5c-2.6,0-3.7,2.3-3.7,2.3v11h-4.2V12.2h4v2.6c0,0,1.4-2.8,4.7-2.8
			C260.9,11.7,262.3,12.4,262.3,12.4z"/>
	</g>
	<path class="st0" d="M29.7,5.9L12.9,33.3l16.9,27.4h30.9L43.3,33.3L60.7,5.9H29.7z M2.6,2.6h61.6v61.6H2.6V2.6z M0,66.3h66.3V0H0
		V66.3z"/>
	<path class="st0" d="M217.1,35.6h4.2v26.7h-4.2V35.6z"/>
	<path class="st0" d="M225.5,35.6h4.2v11.5c0,0,1.6-2.1,4.7-2.1c4.4,0,8.2,3.7,8.2,8.9s-4,8.9-8.2,8.9c-3.7,0-5.2-2.6-5.2-2.6v2.1
		h-4V35.6H225.5z M229.7,56.4c0,0,1.2,2.3,4,2.3s4.7-2.1,4.7-4.9s-1.6-4.9-4.7-4.9c-2.8,0-4,2.3-4,2.3V56.4z"/>
	<path class="st0" d="M261.8,45.4v16.9h-4v-2.1c0,0-1.4,2.6-5.2,2.6c-4.4,0-8.2-3.7-8.2-8.9s4-8.9,8.2-8.9c3.5,0,5.2,2.6,5.2,2.6
		v-2.1C257.8,45.4,261.8,45.4,261.8,45.4z M257.4,51.3c0,0-1.2-2.3-4-2.3s-4.7,2.1-4.7,4.9s1.9,4.9,4.7,4.9s4-2.3,4-2.3V51.3z"/>
	<path class="st0" d="M280.6,51.3v11h-4.2v-9.8c0-2.3-1.4-3.5-3.3-3.5c-2.1,0-3.3,2.1-3.3,2.1v11.2h-4.2V45.4h4V48
		c0,0,1.4-2.8,5.2-2.8C277.5,45,280.6,47.3,280.6,51.3z"/>
	<path class="st0" d="M287.8,52l6.1-6.8h5.6l-7.5,8l8,8.9h-5.6l-6.6-7.5v7.5h-4.2V35.6h4.2V52z"/>
</g>
</svg>
