<?xml version="1.0" encoding="utf-8"?>
<!-- Generator: Adobe Illustrator 23.1.0, SVG Export Plug-In . SVG Version: 6.00 Build 0)  -->
<svg version="1.1" id="Ebene_1" xmlns="http://www.w3.org/2000/svg" xmlns:xlink="http://www.w3.org/1999/xlink" x="0px" y="0px"
	 width="300px" height="62px" viewBox="0 0 300 62" style="enable-background:new 0 0 300 62;" xml:space="preserve">
<style type="text/css">
	.st0{fill:#FFFFFF;}
	.st1{fill-rule:evenodd;clip-rule:evenodd;fill:#FFFFFF;}
</style>
<g>
	<path class="st0" d="M36.9,17.8c0.8,0.4,2.2,1.1,4,1.1c1.5,0,2.2-0.4,2.2-1.1c0-0.5-0.4-0.8-1.7-1.3l-1.6-0.6
		c-2.5-0.9-3.2-2.4-3.2-4.4c0-2.7,1.8-5.1,6.4-5.1c1.6,0,3.2,0.3,4.3,0.7L47.2,11c-1-0.4-2.4-1-3.8-1c-1,0-1.9,0.3-1.9,1.1
		c0,0.5,0.5,0.9,1.8,1.4l1.8,0.7c1.9,0.7,3.1,1.6,3.1,4.3c0,3.2-2,5.1-6.6,5.1c-1.7,0-3.9-0.4-4.7-0.7L36.9,17.8z"/>
	<path class="st0" d="M51.9,9.4c0-1.2-0.1-2.1-0.2-2.6h5.2c0.1,0.7,0.1,1.5,0.1,2.4h0.1c1.1-2.1,2.5-2.7,4.1-2.7
		c4.1,0,5.8,3.7,5.8,8.3c0,3.6-1.7,7.7-5.5,7.7c-2,0-3.2-0.8-4.3-2.6h-0.1c0.1,0.7,0.1,1.6,0.1,2.8v6h-5.3V9.4z M59.4,18.9
		c1.6,0,2.1-1.8,2.1-4.3c0-2.6-0.5-4.4-1.9-4.4c-1.4,0-2.3,1.8-2.3,4.4C57.3,17.1,58,18.9,59.4,18.9z"/>
	<path class="st0" d="M84.5,18.9c0,1.2,0.1,2.5,0.2,3.4H80c-0.1-0.7-0.2-1.4-0.2-2.1c-1.5,1.7-2.8,2.5-4.6,2.5c-2.7,0-4.7-2-4.7-4.9
		c0-3.4,2.6-5.3,8-5.3h1.4v-0.5c0-1-0.8-2.1-2.9-2.1c-1.7,0-3.3,0.7-4.5,1.5l-0.2-3.8c1.3-0.5,3.2-1,5.8-1c5.4,0,6.5,2.6,6.5,5.7
		V18.9z M79.8,14.8h-0.6c-2.4,0-4,0.7-4,2.6c0,1.4,0.7,1.9,1.8,1.9c2.5,0,2.7-2.5,2.7-4V14.8z"/>
	<path class="st0" d="M89,11.3c0-2.2-0.1-3.8-0.2-4.5h5C93.9,7.4,94,8.5,94,9.4H94c0.4-1.2,1.4-2.9,4-2.9c0.4,0,0.6,0,0.9,0.1v4.7
		c-0.2-0.1-1-0.2-1.6-0.2c-1.7,0-2.9,1.5-2.9,3.6v7.7H89C89,22.3,89,11.3,89,11.3z"/>
	<path class="st0" d="M108.2,15L108.2,15l-0.1,7.2h-5.3V0h5.3v13h0.1l3.5-6.2h5.3l-4.3,7.1l4.7,8.4h-5.9L108.2,15z"/>
	<path class="st0" d="M134.1,18.9c0,1.2,0.1,2.5,0.2,3.4h-4.8c-0.1-0.7-0.2-1.4-0.2-2.1c-1.5,1.7-2.8,2.5-4.6,2.5
		c-2.7,0-4.7-2-4.7-4.9c0-3.4,2.6-5.3,8-5.3h1.4v-0.5c0-1-0.8-2.1-2.9-2.1c-1.7,0-3.3,0.7-4.5,1.5l-0.2-3.8c1.3-0.5,3.2-1,5.8-1
		c5.4,0,6.5,2.6,6.5,5.7C134.1,12.2,134.1,18.9,134.1,18.9z M129.4,14.8h-0.6c-2.4,0-4,0.7-4,2.6c0,1.4,0.7,1.9,1.8,1.9
		c2.5,0,2.7-2.5,2.7-4V14.8z"/>
	<path class="st0" d="M138.2,17.8c0.8,0.4,2.2,1.1,4,1.1c1.5,0,2.2-0.4,2.2-1.1c0-0.5-0.4-0.8-1.7-1.3l-1.6-0.6
		c-2.5-0.9-3.2-2.4-3.2-4.4c0-2.7,1.8-5.1,6.4-5.1c1.6,0,3.2,0.3,4.3,0.7l-0.2,3.9c-1-0.4-2.4-1-3.8-1c-1,0-1.9,0.3-1.9,1.1
		c0,0.5,0.5,0.9,1.8,1.4l1.8,0.7c1.9,0.7,3.1,1.6,3.1,4.3c0,3.2-2,5.1-6.6,5.1c-1.7,0-3.9-0.4-4.7-0.7L138.2,17.8z"/>
	<path class="st0" d="M152.9,17.8c0.8,0.4,2.2,1.1,4,1.1c1.5,0,2.2-0.4,2.2-1.1c0-0.5-0.4-0.8-1.7-1.3l-1.6-0.6
		c-2.5-0.9-3.2-2.4-3.2-4.4c0-2.7,1.8-5.1,6.4-5.1c1.6,0,3.2,0.3,4.3,0.7l-0.2,3.9c-1-0.4-2.4-1-3.8-1c-1,0-1.9,0.3-1.9,1.1
		c0,0.5,0.5,0.9,1.8,1.4l1.8,0.7c1.9,0.7,3.1,1.6,3.1,4.3c0,3.2-2,5.1-6.6,5.1c-1.7,0-3.9-0.4-4.7-0.7L152.9,17.8z"/>
	<path class="st0" d="M172.5,16c0.1,2.5,1.9,3.2,3.9,3.2c1.5,0,3.2-0.7,4.5-1.2l0.1,3.7c-1.3,0.4-3.2,0.9-5.4,0.9
		c-6.3,0-8.1-4.2-8.1-8.2c0-4.2,2.5-8,7.2-8c4.8,0,7.1,3.8,7.1,8V16H172.5z M177,13.2v-0.4c0-2.1-0.6-3.1-2.2-3.1
		c-1.5,0-2.4,1.4-2.4,3.5H177z"/>
	<path class="st0" d="M194.7,17.8c0.8,0.4,2.2,1.1,4,1.1c1.5,0,2.2-0.4,2.2-1.1c0-0.5-0.4-0.8-1.7-1.3l-1.6-0.6
		c-2.5-0.9-3.2-2.4-3.2-4.4c0-2.7,1.8-5.1,6.4-5.1c1.6,0,3.2,0.3,4.3,0.7L205,11c-1-0.4-2.4-1-3.8-1c-1,0-1.9,0.3-1.9,1.1
		c0,0.5,0.5,0.9,1.8,1.4l1.8,0.7c1.9,0.7,3.1,1.6,3.1,4.3c0,3.2-2,5.1-6.6,5.1c-1.7,0-3.9-0.4-4.7-0.7L194.7,17.8z"/>
	<path class="st0" d="M221,11.1c-0.6-0.2-1.5-0.7-2.6-0.7c-2,0-3.5,1.2-3.5,4.1c0,2.3,0.8,4.1,3.4,4.1c1.3,0,2.6-0.5,3-0.7l0.1,3.9
		c-0.8,0.4-3.1,0.8-4.3,0.8c-5.6,0-7.7-3.9-7.7-8.1c0-4.2,2-8.1,7.7-8.1c2.3,0,3.5,0.5,4.2,0.7L221,11.1z"/>
	<path class="st0" d="M225,0h5.3v6.9c0,0.6-0.1,1.3-0.1,1.9h0.1c0.9-1.6,2.3-2.3,4.1-2.3c2.6,0,4.7,1.6,4.7,5v10.8h-5.3V13
		c0-1.5-0.4-2.2-1.5-2.2c-1.3,0-1.9,1.4-1.9,3v8.5H225L225,0L225,0z"/>
	<path class="st0" d="M254.6,11.3L254.6,11.3l-2.3,11h-5.9l-4.2-15.5h5.5l1.9,10.7h0.1l2-10.7h6.1l1.8,10.7h0.1l1.9-10.7h5.1
		l-4.1,15.5h-5.8L254.6,11.3z"/>
	<path class="st0" d="M274.1,6.8l2.8,9.9h0.1l2.6-9.9h5.2l-5.8,17.3c-0.9,2.6-2.1,4.8-5.8,4.8c-1.5,0-2.4-0.3-3-0.5l0.2-3.9
		c0.5,0.2,0.9,0.3,1.4,0.3c1.6,0,2.5-1,2.5-2.5l-5.7-15.5L274.1,6.8L274.1,6.8z"/>
	<path class="st0" d="M287.1,17.8l5.8-7h-5.6v-4h11.2v4.3l-5.7,7.2h5.9v4h-11.5L287.1,17.8L287.1,17.8z"/>
</g>
<g>
	<path class="st1" d="M56,57.6C38.9,59,23.2,51.3,13.2,38.9C5.4,29.2,1.4,16.4,2.3,3.6H0.2C-0.5,12.6,1,21.9,4.6,29.8
		c6.6,15.3,20.8,27.1,37.1,30.9c16.8,3.9,34.5-0.8,46.7-11.5c6.1-5.1,11-11.7,14.2-18.8h-5.7C89.2,45.5,73.5,56.4,56,57.6z"/>
</g>
<g>
	<path class="st0" d="M119.9,44.9h3.3v12.4h-3.3C119.9,57.3,119.9,44.9,119.9,44.9z"/>
	<path class="st0" d="M126.1,44h3.2v4.1c0,0.4,0,0.8-0.1,1.1h0.1c0.5-0.9,1.3-1.4,2.4-1.4c1.6,0,2.8,0.9,2.8,3v6.5h-3.2v-5.6
		c0-0.9-0.3-1.3-0.9-1.3c-0.8,0-1.2,0.8-1.2,1.8v5.1h-3.2L126.1,44L126.1,44z"/>
	<path class="st0" d="M137.2,50.7c0-1.3-0.1-2.3-0.1-2.7h3c0.1,0.4,0.1,1,0.1,1.5h0c0.3-0.7,0.8-1.8,2.4-1.8c0.2,0,0.3,0,0.5,0.1
		v2.8c-0.1-0.1-0.6-0.1-1-0.1c-1,0-1.7,0.9-1.7,2.1v4.6h-3.2L137.2,50.7L137.2,50.7z"/>
	<path class="st0" d="M147.7,53.6c0.1,1.5,1.1,1.9,2.3,1.9c0.9,0,1.9-0.4,2.7-0.7l0.1,2.2c-0.8,0.2-1.9,0.5-3.2,0.5
		c-3.7,0-4.8-2.5-4.8-4.9c0-2.5,1.5-4.8,4.3-4.8c2.9,0,4.3,2.3,4.3,4.8v0.9L147.7,53.6L147.7,53.6z M150.4,51.9v-0.3
		c0-1.2-0.3-1.8-1.3-1.8c-0.9,0-1.4,0.8-1.4,2.1L150.4,51.9L150.4,51.9z"/>
	<path class="st0" d="M161.4,44.9h4.7c2.6,0,3.9,1.1,3.9,2.9c0,2-1.1,2.7-2.3,3v0c1.5,0.3,2.5,1.3,2.5,2.9c0,2.4-1.7,3.5-4,3.5h-4.8
		V44.9z M165.3,49.9c0.8,0,1.5-0.3,1.5-1.4c0-0.9-0.6-1.3-1.3-1.3h-0.9v2.7C164.6,49.9,165.3,49.9,165.3,49.9z M165.5,55
		c1,0,1.5-0.5,1.5-1.4c0-0.9-0.5-1.5-1.4-1.5h-1V55H165.5z"/>
	<path class="st0" d="M180.7,55.3c0,0.7,0.1,1.5,0.1,2h-2.8c0-0.4-0.1-0.9-0.1-1.3c-0.9,1-1.7,1.5-2.8,1.5c-1.6,0-2.8-1.2-2.8-2.9
		c0-2.1,1.5-3.2,4.8-3.2h0.8v-0.3c0-0.6-0.5-1.3-1.7-1.3c-1,0-2,0.4-2.7,0.9l-0.1-2.3c0.8-0.3,1.9-0.6,3.5-0.6
		c3.2,0,3.9,1.5,3.9,3.4L180.7,55.3L180.7,55.3z M177.8,52.8h-0.4c-1.4,0-2.4,0.4-2.4,1.5c0,0.8,0.4,1.1,1.1,1.1
		c1.5,0,1.6-1.5,1.6-2.4V52.8z"/>
	<path class="st0" d="M183.3,49.9c0-0.7-0.1-1.5-0.1-1.9h3c0.1,0.4,0.1,1,0.1,1.5h0c0.2-0.5,0.8-1.8,2.6-1.8c1.6,0,2.8,0.9,2.8,3
		v6.5h-3.2v-5.6c0-0.9-0.3-1.3-0.9-1.3c-0.8,0-1.2,0.8-1.2,1.8v5.1h-3.2V49.9z"/>
	<path class="st0" d="M197.8,53L197.8,53l0,4.3h-3.2V44h3.2v7.8h0l2.1-3.7h3.2l-2.6,4.2l2.8,5h-3.5L197.8,53z"/>
	<path class="st0" d="M205.2,54.5h2.8v2.8h-2.8V54.5z"/>
	<path class="st0" d="M215.8,54.3c0.4,0.2,1.6,0.7,2.8,0.7c1.3,0,1.7-0.5,1.7-1.3c0-0.8-0.5-1-1.5-1.4L218,52
		c-2-0.8-2.7-1.9-2.7-3.7c0-2.3,1.9-3.7,4.5-3.7c0.9,0,2.1,0.1,3.1,0.5l-0.1,2.4c-0.6-0.3-1.6-0.6-2.6-0.6c-1,0-1.6,0.4-1.6,1.2
		c0,0.6,0.3,0.9,1.4,1.4l1.5,0.7c1.1,0.5,2.1,1.3,2.1,3.1c0,2.7-2,4.1-4.8,4.1c-1.5,0-2.7-0.3-3.3-0.5L215.8,54.3z"/>
	<path class="st0" d="M229,53.6c0.1,1.5,1.1,1.9,2.3,1.9c0.9,0,1.9-0.4,2.7-0.7l0.1,2.2c-0.8,0.2-1.9,0.5-3.2,0.5
		c-3.7,0-4.8-2.5-4.8-4.9c0-2.5,1.5-4.8,4.3-4.8c2.9,0,4.3,2.3,4.3,4.8v0.9L229,53.6L229,53.6z M231.6,51.9v-0.3
		c0-1.2-0.3-1.8-1.3-1.8c-0.9,0-1.4,0.8-1.4,2.1L231.6,51.9L231.6,51.9z"/>
	<path class="st0" d="M237.1,44h3.2v2.7h-3.2V44z M237.1,48.1h3.2v9.2h-3.2V48.1z"/>
	<path class="st0" d="M242.5,48.1h1.6v-2l3.2-1V48h1.8v2.2h-1.8v3.9c0,0.8,0.5,1.1,1,1.1c0.3,0,0.6-0.1,0.7-0.1l0.1,2.2
		c-0.4,0.1-1.2,0.2-2.1,0.2c-1.8,0-3-1-3-2.7v-4.6h-1.6L242.5,48.1L242.5,48.1z"/>
	<path class="st0" d="M259.5,48.5l-1.6,1.6l-1.5-2.3l3.8-2.9h2.5v12.4h-3.2L259.5,48.5L259.5,48.5z"/>
	<path class="st0" d="M268.5,50.9c-1.2-0.5-1.9-1.4-1.9-3c0-1.8,1.2-3.3,4-3.3c2.4,0,3.8,1.4,3.8,3.2c0,1.7-1,2.4-2.1,2.9
		c0.9,0.2,2.5,0.9,2.5,2.9c0,2.7-1.9,3.8-4.3,3.8c-2.7,0-4.2-1.5-4.2-3.6C266.3,52.8,266.9,51.5,268.5,50.9z M270.5,55.3
		c0.9,0,1.2-0.7,1.2-1.5c0-1-0.8-1.6-1.4-1.9c-0.5,0.3-1,0.9-1,1.9C269.3,54.8,269.8,55.3,270.5,55.3z M270.6,49.9
		c0.4-0.3,0.9-0.8,0.9-1.6c0-0.8-0.3-1.5-1-1.5c-0.7,0-1,0.5-1,1.3C269.4,49.1,270,49.7,270.6,49.9z"/>
	<path class="st0" d="M279.7,48.5l-1.6,1.6l-1.5-2.3l3.8-2.9h2.5v12.4h-3.2L279.7,48.5L279.7,48.5z"/>
	<path class="st0" d="M286.8,54.8l0.6-0.5c1.3-1.2,3.9-3.9,3.9-5.6c0-1.1-0.6-1.5-1.6-1.5c-1.1,0-1.9,0.5-2.5,1l-0.2-2.7
		c0.9-0.4,2-0.7,3.7-0.7c2.2,0,3.8,1.1,3.8,3.5c0,2.5-3.2,5.6-3.9,6.4l-0.3,0.3v0h4.3v2.4h-7.9L286.8,54.8L286.8,54.8z"/>
	<path class="st0" d="M297.2,54.5h2.8v2.8h-2.8V54.5z"/>
</g>
</svg>
