<?xml version="1.0" encoding="utf-8"?>
<!-- Generator: Adobe Illustrator 23.1.0, SVG Export Plug-In . SVG Version: 6.00 Build 0)  -->
<svg version="1.1" id="Rose" xmlns="http://www.w3.org/2000/svg" xmlns:xlink="http://www.w3.org/1999/xlink" x="0px" y="0px"
	 width="300px" height="35.1px" viewBox="0 0 300 35.1" style="enable-background:new 0 0 300 35.1;" xml:space="preserve">
<style type="text/css">
	.st0{fill:#FFFFFF;}
</style>
<g>
	<path class="st0" d="M98,25.7c0,2.5-2,2.7-3.9,2.7h-5.8v-2.3v-3.1h5.5C95.8,22.9,98,23.2,98,25.7 M97.4,14.7c0,1.9-1.4,2.4-3,2.4
		h-6.1v-4.8h6.4C96.4,12.3,97.4,13,97.4,14.7 M106.5,26.4c0-2.8-1.2-5.2-3.7-6.6c2-1.3,3-3.3,3-5.6c0-1.8-0.7-3.7-2-5.1
		c-2.3-2.6-6-2.8-9.2-2.8H79.9v28.2h14.4c2.1,0,4.6-0.1,6.6-0.8C104.2,32.6,106.5,30,106.5,26.4 M77.1,34.5v-6.8l-14,0.1l0.1-21.6
		h-8.4v28.3L77.1,34.5L77.1,34.5z M51.2,25.8c0-6.5-7.3-8.3-12.4-9.3c-1.2-0.2-4.8-0.8-4.8-2.4c0-2,2.6-2,4-2c2.2,0,4.5,0.6,6.4,1.7
		L49,8.2C46,6.1,42,5.6,38.3,5.6c-5.5,0-12.8,2.7-12.8,9.3c0,5.5,6,7.8,10.5,8.7c1.4,0.3,6.6,0.9,6.6,2.8c0,2.1-2.7,2.1-4.2,2.1
		c-3.6,0-6.2-1.1-9-3.4L24,30c3.9,3.4,8.6,5.1,13.7,5.1C43.5,35.1,51.2,32.9,51.2,25.8"/>
	<path class="st0" d="M264.4,28.7h-4.8v2.2h1.9c0,0.2,0,0.5,0,0.6c-0.1,0.8-0.9,0.9-1.5,0.9c-1.8,0-2.5-1.3-2.5-2.9
		c0-1.5,0.8-2.9,2.4-2.9c0.9,0,1.8,0.4,2.4,1.2l1.9-1.7c-1.1-1.2-2.5-1.8-4.1-1.8c-3.1,0-5.6,2-5.6,5.2c0,3.4,2.3,5.2,5.6,5.2
		c1.3,0,3.1-0.4,3.9-1.5c0.4-0.6,0.4-1.2,0.4-1.9V28.7z M249.1,30.2h-2.7l1.3-3L249.1,30.2z M254.2,34.4l-4.7-9.9h-3.4l-4.8,9.9h3.2
		l0.9-2.1h4.5l0.9,2.1H254.2z M236.7,28.7h-4.8v2.2h1.9c0,0.2,0,0.5,0,0.6c-0.1,0.8-0.9,0.9-1.5,0.9c-1.8,0-2.5-1.3-2.5-2.9
		c0-1.5,0.8-2.9,2.4-2.9c0.9,0,1.8,0.4,2.4,1.2l1.9-1.7c-1.1-1.2-2.5-1.8-4.1-1.8c-3.1,0-5.6,2-5.6,5.2c0,3.4,2.3,5.2,5.6,5.2
		c1.3,0,3.1-0.4,3.9-1.5c0.4-0.6,0.4-1.2,0.4-1.9V28.7z M222.1,27.6c0,0.9-0.8,0.9-1.4,0.9h-1.8v-1.9h1.9
		C221.4,26.6,222.1,26.7,222.1,27.6 M225.9,34.4l-2.5-4.3c1-0.5,1.7-1.5,1.7-2.6c0-1.9-1.4-2.8-3.1-3c-0.4,0-0.8,0-1.1,0h-4.9v9.9
		h2.9v-3.7h1.6l2.1,3.7L225.9,34.4L225.9,34.4z M214,34.4V32l-5.4,0v-1.5l4.4,0v-2.4l-4.4,0v-1.3l5.4,0v-2.4h-8.3v9.9L214,34.4
		L214,34.4z M200.7,31.4c0,0.9-0.7,0.9-1.4,0.9h-2v-0.8v-1.1h1.9C199.9,30.4,200.7,30.5,200.7,31.4 M200.5,27.5c0,0.7-0.5,0.8-1,0.8
		h-2.1v-1.7h2.2C200.1,26.7,200.5,26.9,200.5,27.5 M203.6,31.6c0-1-0.4-1.8-1.3-2.3c0.7-0.4,1.1-1.1,1.1-2c0-0.6-0.2-1.3-0.7-1.8
		c-0.8-0.9-2.1-1-3.2-1h-5.2v9.9h5.1c0.7,0,1.6,0,2.3-0.3C202.8,33.7,203.6,32.9,203.6,31.6 M192.3,28.7h-4.8v2.2h1.9
		c0,0.2,0,0.5,0,0.6c-0.1,0.8-0.9,0.9-1.5,0.9c-1.8,0-2.5-1.3-2.5-2.9c0-1.5,0.8-2.9,2.4-2.9c0.9,0,1.8,0.4,2.4,1.2l1.9-1.7
		c-1.1-1.2-2.5-1.8-4.1-1.8c-3.1,0-5.6,2-5.6,5.2c0,3.4,2.3,5.2,5.6,5.2c1.3,0,3.1-0.4,3.9-1.5c0.4-0.6,0.4-1.2,0.4-1.9
		C192.3,31.2,192.3,28.7,192.3,28.7z M180.8,28.7h-4.8v2.2h1.9c0,0.2,0,0.5,0,0.6c-0.1,0.8-0.9,0.9-1.5,0.9c-1.8,0-2.5-1.3-2.5-2.9
		c0-1.5,0.8-2.9,2.4-2.9c0.9,0,1.8,0.4,2.4,1.2l1.9-1.7c-1.1-1.2-2.5-1.8-4.1-1.8c-3.1,0-5.6,2-5.6,5.2c0,3.4,2.3,5.2,5.6,5.2
		c1.3,0,3.1-0.4,3.9-1.5c0.4-0.6,0.4-1.2,0.4-1.9C180.8,31.2,180.8,28.7,180.8,28.7z M169.8,34.4V32l-5.4,0v-1.5l4.4,0v-2.4l-4.4,0
		v-1.3l5.4,0v-2.4h-8.3v9.9L169.8,34.4L169.8,34.4z M158.9,34.4v-9.9H156l0,3.5h-4l0-3.5H149v9.9h2.9l0-3.9h4l0,3.9H158.9z
		 M147.3,26.6c-0.9-1.6-2.4-2.3-4.2-2.3c-2.3,0-4.1,1-4.9,3.2c-0.2,0.6-0.3,1.3-0.3,1.9c0,3.3,1.8,5.2,5.2,5.2
		c1.8,0,3.4-0.7,4.3-2.3l-2.3-1.3c-0.4,0.7-1.1,1.3-1.9,1.3c-1.8,0-2.2-1.3-2.2-2.8c0-1.4,0.5-2.9,2.2-2.9c0.9,0,1.5,0.5,1.9,1.3
		L147.3,26.6z M136,30.1v-5.6H133v5.1c0,0.4,0,0.8,0,1.1c-0.1,0.9-0.8,1.5-1.8,1.5c-0.6,0-1.1-0.2-1.5-0.6c-0.5-0.6-0.4-1.3-0.4-2
		v-5.1h-2.9v5.6c0,2.8,1.7,4.5,4.8,4.5C134.3,34.6,136,32.9,136,30.1 M121.4,31.4c0,0.9-0.7,0.9-1.4,0.9h-2v-0.8v-1.1h1.9
		C120.6,30.4,121.4,30.5,121.4,31.4 M121.2,27.5c0,0.7-0.5,0.8-1,0.8H118v-1.7h2.2C120.8,26.7,121.2,26.9,121.2,27.5 M124.4,31.6
		c0-1-0.4-1.8-1.3-2.3c0.7-0.4,1.1-1.1,1.1-2c0-0.6-0.2-1.3-0.7-1.8c-0.8-0.9-2.1-1-3.2-1h-5.2v9.9h5.1c0.7,0,1.6,0,2.3-0.3
		C123.6,33.7,124.4,32.9,124.4,31.6"/>
	<path class="st0" d="M300,16.7v-2.4l-5.4,0v-1.5l4.4,0v-2.4l-4.4,0V9.2l5.4,0V6.9h-8.3v9.8L300,16.7L300,16.7z M289.8,13.7
		c0-2.3-2.6-2.9-4.3-3.3c-0.4-0.1-1.7-0.3-1.7-0.9c0-0.7,0.9-0.7,1.4-0.7c0.8,0,1.6,0.2,2.2,0.6l1.6-2c-1.1-0.7-2.5-0.9-3.7-0.9
		c-1.9,0-4.5,0.9-4.5,3.3c0,1.9,2.1,2.7,3.7,3.1c0.5,0.1,2.3,0.3,2.3,1c0,0.7-1,0.7-1.5,0.7c-1.3,0-2.2-0.4-3.2-1.2l-1.9,1.7
		c1.4,1.2,3,1.8,4.8,1.8C287.1,16.9,289.8,16.2,289.8,13.7 M279.2,13.7c0-2.3-2.6-2.9-4.3-3.3c-0.4-0.1-1.7-0.3-1.7-0.9
		c0-0.7,0.9-0.7,1.4-0.7c0.8,0,1.6,0.2,2.2,0.6l1.6-2c-1.1-0.7-2.5-0.9-3.7-0.9c-1.9,0-4.5,0.9-4.5,3.3c0,1.9,2.1,2.7,3.7,3.1
		c0.5,0.1,2.3,0.3,2.3,1c0,0.7-1,0.7-1.5,0.7c-1.3,0-2.2-0.4-3.2-1.2l-1.9,1.7c1.4,1.2,3,1.8,4.8,1.8
		C276.5,16.9,279.2,16.2,279.2,13.7 M264.2,12.5h-2.7l1.3-3L264.2,12.5z M269.3,16.7l-4.7-9.9h-3.4l-4.8,9.9h3.2l0.9-2.1h4.5
		l0.9,2.1H269.3z M256.9,16.7l-4.8-5.6l4.6-4.2H253l-3.7,3.3l0-3.3h-2.9v9.9h2.9l0-3.2l0.8-0.7l3.2,3.8H256.9z M243.9,16.7V6.8H241
		l0,3.5h-4l0-3.5H234v9.9h2.9l0-3.9h4l0,3.9H243.9z M232.4,16.7v-2.4l-1.9,0V9.2l1.8,0V6.9h-6.3v2.4l1.8,0v5.1l-1.9,0v2.4H232.4z
		 M224.8,16.7v-2.4l-5.4,0v-1.5l4.4,0v-2.4l-4.4,0V9.2l5.4,0V6.9h-8.3v9.8L224.8,16.7L224.8,16.7z M214.9,16.7v-2.4l-4.9,0l0-7.5
		h-2.9v9.9H214.9z M200,11.7c0,1.3-0.3,2-0.9,2.4c-0.5,0.3-1.1,0.3-2,0.3h-0.9V9.2h1.5c0.4,0,0.7,0.1,1,0.2
		C199.6,9.7,200,10.5,200,11.7 M203,11.8c0-3.4-2.3-4.9-5.5-4.9h-4.3v9.9h4.4c0.9,0,1.7-0.1,2.5-0.4C202.2,15.6,203,13.9,203,11.8
		 M190.8,16.7V6.8h-2.9l0,5.7l-4.3-5.7h-2.9v9.9h2.9l0-5.6l4.3,5.6C188,16.7,190.8,16.7,190.8,16.7z M178.4,12.4V6.8h-2.9v5.1
		c0,0.4,0,0.8,0,1.1c-0.1,0.9-0.8,1.5-1.8,1.5c-0.6,0-1.1-0.2-1.5-0.6c-0.5-0.6-0.4-1.3-0.4-2V6.8h-2.9v5.6c0,2.8,1.7,4.5,4.8,4.5
		C176.7,16.9,178.4,15.3,178.4,12.4 M164.8,10.3h-5.8v2.4h5.8V10.3z M154.2,9.9c0,0.9-0.8,0.9-1.4,0.9h-1.8V9h1.9
		C153.5,9,154.2,9.1,154.2,9.9 M157.9,16.7l-2.5-4.3c1-0.5,1.7-1.5,1.7-2.6c0-1.9-1.4-2.8-3.1-3c-0.4,0-0.8,0-1.1,0H148v9.9h2.9V13
		h1.6l2.1,3.7C154.6,16.7,157.9,16.7,157.9,16.7z M141.9,12.5h-2.7l1.3-3L141.9,12.5z M146.9,16.7l-4.7-9.9h-3.4l-4.8,9.9h3.2
		l0.9-2.1h4.5l0.9,2.1H146.9z M131.7,10.1c0,0.7-0.5,1.1-1.2,1.1h-2V9h2C131.2,9,131.7,9.3,131.7,10.1 M134.7,10.1
		c0-1.8-1.2-3-3-3.2c-0.4,0-0.8,0-1.2,0h-5v9.8h2.9v-3.4l2.2,0C132.8,13.3,134.7,12.5,134.7,10.1 M123.7,13.7c0-2.3-2.6-2.9-4.3-3.3
		c-0.4-0.1-1.7-0.3-1.7-0.9c0-0.7,0.9-0.7,1.4-0.7c0.8,0,1.6,0.2,2.2,0.6l1.6-2c-1.1-0.7-2.5-0.9-3.7-0.9c-1.9,0-4.5,0.9-4.5,3.3
		c0,1.9,2.1,2.7,3.7,3.1c0.5,0.1,2.3,0.3,2.3,1c0,0.7-1,0.7-1.5,0.7c-1.3,0-2.2-0.4-3.2-1.2l-1.9,1.7c1.4,1.2,3,1.8,4.8,1.8
		C121,16.9,123.7,16.2,123.7,13.7"/>
	<g>
		<path class="st0" d="M10.4,0C4.7,0,0,4.7,0,10.4s4.7,10.4,10.4,10.4c5.7,0,10.4-4.7,10.4-10.4S16.2,0,10.4,0z M10.4,2.7
			c1.4,0,2.6,1.2,2.6,2.6s-1.2,2.6-2.6,2.6C9,7.8,7.8,6.7,7.8,5.2S9,2.7,10.4,2.7z M11.1,18.2c-1.4,0.5-3.3-0.2-4.5-0.9
			c-1.3-0.7-2.3-1.7-3-3c-1.5-2.7-1.3-6,0.6-8.5c0.4-0.5,0.8-1,1.3-1.4c-0.3,1.4,0,2.9,0.9,4.1c1,1.3,2.6,2.1,3.8,3.1
			c1.2,0.9,2.8,1.7,3,3.4C13.3,16.3,12.5,17.7,11.1,18.2z M16,16c0.3-2-0.9-4.1-2.4-5.3c-0.3-0.2-0.6-0.5-0.9-0.7
			c2.2-0.9,3.3-3.4,2.9-5.7C18.9,7.3,19.2,12.9,16,16z"/>
	</g>
</g>
</svg>
