<?xml version="1.0" encoding="utf-8"?>
<!-- Generator: Adobe Illustrator 23.1.0, SVG Export Plug-In . SVG Version: 6.00 Build 0)  -->
<svg version="1.1" id="Ebene_1" xmlns="http://www.w3.org/2000/svg" xmlns:xlink="http://www.w3.org/1999/xlink" x="0px" y="0px"
	 width="300px" height="59.5px" viewBox="0 0 300 59.5" style="enable-background:new 0 0 300 59.5;" xml:space="preserve">
<style type="text/css">
	.st0{fill:#FFFFFF;}
</style>
<path class="st0" d="M90.7,5.9c-0.2-0.2-0.6-0.2-0.8-0.4c-0.4-0.2-1.7-0.6-2.9-0.6c-0.2,0-2.3,0-3.1,1.5c0,0.2,0,0.6,0,1.3
	c0,0.4,0,1.3,0.8,1.7c0.4,0.4,1,0.6,2.1,1c0.8,0.4,1.7,0.6,2.5,1.3c1,0.6,3.1,1.9,3.1,5.7c0,2.9-1.7,5.2-4.2,6.1
	c-1,0.4-2.1,0.4-3.1,0.4c-2.1,0-3.1-0.2-5-0.8l0.4-4c0.4,0.2,0.6,0.4,1,0.6c0.8,0.4,2.3,0.8,3.4,0.8c0.4,0,2.3,0,3.1-1.7
	c0.2-0.4,0.2-1,0.2-1.3c0-0.6-0.2-1-0.2-1.3c-0.4-0.8-1-1-2.5-1.9c-1-0.4-1.9-0.8-2.9-1.5c-1.9-0.8-2.9-2.5-2.9-5
	c0-0.8,0-2.9,1.7-4.6c1.9-1.9,4.4-1.9,5.2-1.9c1.9,0,2.9,0.2,4.6,0.8L90.7,5.9z"/>
<path class="st0" d="M104.3,11.1c-0.4-0.2-1-0.6-2.1-0.6c-0.2,0-1,0-1.7,0.4c-1,0.4-2.3,1.7-2.3,4.6c0,1,0.2,1.9,0.2,2.1
	c0.4,1,1.3,2.9,3.8,2.9c1,0,1.7-0.2,2.5-0.8l0.2,3.6c-1.3,0.4-2.1,0.6-3.6,0.6c-1.3,0-2.3-0.2-3.4-0.8c-1.5-0.8-3.8-2.9-3.8-7.8
	c0-2.7,0.8-4.2,1.5-5.2c0.4-0.6,1-1.3,1.5-1.7c0.8-0.6,2.3-1.3,4.6-1.3c1.5,0,2.3,0.4,2.9,0.4L104.3,11.1z"/>
<path class="st0" d="M111,0v9.6c0.2-0.2,0.2-0.4,0.4-0.4c0.6-0.8,1.9-2.1,4.4-2.1c0.6,0,2.9,0,4.2,2.3c0.8,1.3,0.8,3.1,0.8,6.3v7.8
	h-3.8v-8.2c0-0.4,0-0.8,0-1.3c-0.2-1.9-0.8-3.6-2.7-3.6c-0.4,0-1.3,0-1.9,0.6c-1.5,1.3-1.5,3.6-1.5,5.4v6.9h-3.8V0H111z"/>
<path class="st0" d="M125.9,7.3l2.1,8c0.4,1.5,0.8,2.9,1,4.6c0.2-0.8,0.2-1.7,0.4-2.5c0.2-1,0.4-2.1,0.6-3.1l1.9-6.9h4.4l2.1,7.8
	c0.2,0.8,0.4,1.7,0.6,2.7c0.2,0.6,0.2,1.3,0.4,1.9c0-0.6,0.2-1.3,0.4-2.1c0.2-0.2,0.2-0.8,0.4-1.3c0.2-0.6,0.2-1.3,0.4-1.7l1.7-7.3
	h3.6l-4.6,15.9H137l-2.1-7.5c-0.8-2.9-0.8-3.4-1-5c-0.2,0.6-0.2,1.5-0.4,2.1c-0.2,0.8-0.4,1.5-0.6,2.3l-2.1,8.4h-4.4l-4.8-15.9h4.4
	V7.3z"/>
<path class="st0" d="M154,14.7c0.2,1,0.6,1.9,0.8,2.9c0.2,0.8,0.4,1.7,0.6,2.5c0.4-1.7,0.8-3.4,1.3-4.8l2.1-7.8h3.8l-5.4,16.3
	c-0.8,2.5-1.3,3.8-2.1,4.6c-1.5,1.7-3.4,1.9-4,1.9c-1.3,0-2.1-0.2-2.5-0.4l0.2-3.1c0.2,0,0.8,0.2,1.5,0.2c0.2,0,0.6,0,1.3-0.2
	c0.8-0.4,1.3-1.5,1.7-2.5l-5.7-17h4L154,14.7z"/>
<path class="st0" d="M175.8,10.9l-7.1,9.4c0.8,0,1.9,0,2.7,0h4.6v3.1H164v-3.1l7.3-9.6h-6.9V7.3h11.3V10.9z"/>
<path class="st0" d="M181,16.8c0.2,0.8,0.4,1.3,0.6,1.7c0.4,0.8,1.7,2.1,3.8,2.1c1.7,0,2.9-0.6,3.6-1c0.2-0.2,0.6-0.4,0.8-0.6v3.6
	c-0.8,0.4-2.7,1.3-5.2,1.3c-0.8,0-3.4,0-5.2-2.1c-0.8-1-2.1-2.7-2.1-6.1c0-0.8,0-3.1,1.3-5.2c0.6-1.3,2.3-3.4,5.9-3.4
	c0.6,0,2.1,0,3.6,1c2.5,1.9,2.7,5.2,2.9,6.3c0,0.8,0,1.7,0,2.5H181z M187.3,13.8c0-0.6,0-1-0.2-1.5c-0.4-1.5-1.5-2.5-2.9-2.5
	c-0.6,0-1.3,0.2-1.7,0.4c-1.5,1-1.7,2.9-1.7,3.4L187.3,13.8z"/>
<path class="st0" d="M201.7,11.3c-0.4,0-0.6-0.2-1.3-0.2c-0.6,0-2.1,0.2-2.9,1.9c-0.4,1-0.6,2.3-0.6,4.8v5.7h-3.8V11.5
	c0-1.5,0-2.7,0-4.2h3.6v3.8c0.2-0.6,0.2-0.8,0.4-1.3c1-2.3,2.7-2.7,3.6-2.7c0.2,0,0.4,0,1,0.2C201.7,7.3,201.7,11.3,201.7,11.3z"/>
<path class="st0" d="M85.1,43.8l1-1.5c0.6-0.6,1-1.5,1.7-2.1l6.1-8h6.1l-7.5,9.2l-2.5,3.1l10.5,14.5h-6.5l-6.7-9.6
	c-0.4-0.6-1-1.5-1.5-2.1l-0.6-1.3v12.8h-4.8V32.3h4.8V43.8z"/>
<path class="st0" d="M112.5,59.1v-2.9c-0.2,0.4-0.4,0.6-0.4,0.8c-0.6,1-2.3,2.3-5.2,2.3c-0.8,0-4-0.2-5.4-2.9
	c-0.2-0.4-0.8-1.7-0.8-3.1c0-1.7,0.6-2.7,0.8-3.4c1.9-2.9,5.4-3.4,8.2-3.4c0.8,0,1.7,0,2.7,0c0,0,0-1.5-0.2-2.1
	c-0.4-1-1.5-2.3-3.6-2.3c-2.1,0-4,1-4.6,1.5c-0.6,0.4-0.8,0.4-1.3,1V40c2.3-0.8,3.8-1.3,6.1-1.3c0.4,0,1.5,0,2.7,0.2
	c2.9,0.8,4.2,2.7,4.6,4c0.4,1.3,0.4,2.3,0.4,4.8v4.8c0,1.9,0,4,0,5.9c0,0.2,0,0.4,0,0.6C116.5,59.1,112.5,59.1,112.5,59.1z
	 M106.4,50.9c-0.6,0.4-0.8,0.8-1,1c0,0.2-0.2,0.6-0.2,1.3c0,0.4,0,0.8,0.2,1c0.6,1.5,2.1,1.5,2.5,1.5c0.6,0,2.3-0.2,3.4-1.9
	c0.8-1.3,0.8-2.5,1-4C110.6,49.9,107.9,49.9,106.4,50.9z"/>
<path class="st0" d="M132.8,59.1v-9.6c0-2.3,0-4.8-1.7-6.1c-0.2-0.2-0.8-0.4-1.7-0.4c-0.6,0-2.1,0.2-3.1,1.9c-0.8,1.5-1,3.1-1,4.8
	v9.2h-4.6V44c0-1.7,0-3.1-0.2-4.8h4.4v3.1c0.4-0.6,0.8-1.5,2.1-2.3c0.8-0.4,1.9-1,4-1c0.2,0,1.3,0,2.1,0.2c1.9,0.6,3.4,2.1,3.8,4.2
	c0.4,1.5,0.4,4,0.4,5.7v10.3h-4.4V59.1z"/>
<path class="st0" d="M147.3,39.2h4.2v4h-4.2v8.4c0,0.8,0,3.6,2.7,3.6c0.4,0,0.8,0,1.7-0.2v4c-1,0.2-1.9,0.6-3.1,0.6
	c-0.4,0-2.9,0-4.4-1.7c-1.7-1.9-1.5-4.8-1.5-7.1v-7.5h-3.6v-4h3.6v-4l4.4-1.7v5.7H147.3z"/>
<path class="st0" d="M166.3,39.6c3.6,1.7,5.2,5.4,5.2,9.6c0,0.6,0,2.5-0.6,4.2c-0.8,2.3-3.1,6.1-8.6,6.1c-1,0-3.8,0-6.1-2.3
	c-1.3-1-3.4-3.6-3.4-8c0-1.5,0.2-2.9,0.6-4.4c1.5-4,4.8-6.1,8.6-6.1C162.8,38.8,164.7,38.8,166.3,39.6z M160.1,43.4
	c-1,0.8-2.3,2.5-2.3,5.7c0,0.6,0,4.2,2.1,5.9c0.6,0.6,1.5,0.8,2.3,0.8c2.1,0,4.4-1.7,4.4-6.5c0-1.5-0.2-2.9-0.8-4.4
	c-0.4-0.6-1.5-2.1-3.4-2.1C161.1,42.5,160.3,42.9,160.1,43.4z"/>
<path class="st0" d="M186.7,59.1v-9.6c0-2.3,0-4.8-1.7-6.1c-0.2-0.2-0.8-0.4-1.7-0.4c-0.6,0-2.1,0.2-3.1,1.9c-0.8,1.5-1,3.1-1,4.8
	v9.2h-4.6V44c0-1.7,0-3.1-0.2-4.8h4.4v3.1c0.4-0.6,0.8-1.5,2.1-2.3c0.8-0.4,1.9-1,4-1c0.2,0,1.3,0,2.1,0.2c1.9,0.6,3.4,2.1,3.8,4.2
	c0.4,1.5,0.4,4,0.4,5.7v10.3h-4.4V59.1z"/>
<path class="st0" d="M205.5,59.1v-2.9c-0.2,0.4-0.2,0.6-0.4,0.8c-0.6,1-2.3,2.3-5.2,2.3c-0.8,0-4-0.2-5.4-2.9
	c-0.2-0.4-0.8-1.7-0.8-3.1c0-1.7,0.6-2.7,0.8-3.4c1.9-2.9,5.4-3.4,8.2-3.4c0.8,0,1.9,0,2.7,0c0,0,0-1.5-0.2-2.1
	c-0.4-1-1.5-2.3-3.6-2.3s-4,1-4.6,1.5c-0.2,0.2-0.4,0.2-0.8,0.8l-0.2-4.4c2.3-0.8,3.8-1.3,6.1-1.3c0.4,0,1.5,0,2.7,0.2
	c2.9,0.8,4.2,2.7,4.6,4c0.4,1.3,0.4,2.3,0.4,4.8v4.8c0,1.9,0,4,0,5.9c0,0.2,0,0.4,0,0.6C209.7,59.1,205.5,59.1,205.5,59.1z
	 M199.7,50.9c-0.6,0.4-0.8,0.8-1,1c0,0.2-0.2,0.6-0.2,1.3c0,0.4,0,0.8,0.2,1c0.6,1.5,2.1,1.5,2.5,1.5c0.6,0,2.3-0.2,3.4-1.9
	c0.8-1.3,0.8-2.5,1-4C203.6,49.9,201.1,49.9,199.7,50.9z"/>
<path class="st0" d="M218.3,30v29.1h-4.6V30H218.3z"/>
<path class="st0" d="M227.3,30v12.2c0.2-0.4,0.6-1,1.5-1.9c1.3-1,2.5-1.7,4.2-1.7c0.6,0,1.9,0,3.4,0.8c1.9,1,4.2,3.6,4.2,9
	c0,1.5-0.2,2.5-0.2,2.9c-0.4,2.1-1,4.2-2.5,5.7c-0.8,0.8-2.3,2.1-4.8,2.1c-2.5,0-4-1-4.6-2.1c-0.4-0.4-0.6-0.8-0.8-1.5v3.1h-4.4V30
	H227.3z M229.6,43.6c-1,0.6-2.1,2.3-2.1,5.4c0,1.9,0.4,4.2,1.9,5.4c0.8,0.6,1.7,0.8,2.1,0.8c0.4,0,1.3,0,1.9-0.6
	c1-0.8,2.1-2.5,2.1-5.7c0-1.7-0.4-4-1.7-5.2c-0.6-0.6-1.5-0.8-2.1-0.8C231.3,42.9,230.4,42.9,229.6,43.6z"/>
<path class="st0" d="M254.3,59.1v-2.9c-0.2,0.4-0.4,0.6-0.4,0.8c-0.6,1-2.3,2.3-5.2,2.3c-0.8,0-4-0.2-5.4-2.9
	c-0.2-0.4-0.8-1.7-0.8-3.1c0-1.7,0.6-2.7,0.8-3.4c1.7-2.9,5.4-3.4,8.2-3.4c0.8,0,1.7,0,2.7,0c0,0,0-1.5-0.2-2.1
	c-0.4-1-1.5-2.3-3.6-2.3s-4,1-4.6,1.5c-0.2,0.2-0.4,0.2-0.8,0.8l-0.2-4.4c2.3-0.8,3.8-1.3,6.1-1.3c0.4,0,1.5,0,2.7,0.2
	c2.9,0.8,4.2,2.7,4.6,4c0.4,1.3,0.4,2.3,0.4,4.8v4.8c0,1.9,0,4,0,5.9c0,0.2,0,0.4,0,0.6C258.5,59.1,254.3,59.1,254.3,59.1z
	 M248.5,50.9c-0.6,0.4-0.8,0.8-1,1c0,0.2-0.2,0.6-0.2,1.3c0,0.4,0,0.8,0.2,1c0.6,1.5,2.1,1.5,2.5,1.5c0.6,0,2.3-0.2,3.4-1.9
	c0.8-1.3,0.8-2.5,1-4C252.4,49.9,249.9,49.9,248.5,50.9z"/>
<path class="st0" d="M274.9,59.1v-9.6c0-2.3,0-4.8-1.7-6.1c-0.2-0.2-0.8-0.4-1.7-0.4c-0.6,0-2.1,0.2-3.1,1.9c-0.8,1.5-1,3.1-1,4.8
	v9.2h-4.6V44c0-1.7,0-3.1-0.2-4.8h4.4v3.1c0.4-0.6,0.8-1.5,2.1-2.3c0.8-0.4,1.9-1,4-1c0.2,0,1.3,0,2.1,0.2c1.9,0.6,3.4,2.1,3.8,4.2
	c0.4,1.5,0.4,4,0.4,5.7v10.3h-4.4V59.1z"/>
<path class="st0" d="M288.1,47.1c0.6-0.8,1-1.7,1.7-2.5l4-5.7h5.4l-6.7,8.8l7.5,11.1h-5.7l-4-6.1c-0.4-0.8-0.8-1.5-1.3-2.3
	c-0.2-0.4-0.6-1-0.8-1.7v9.8h-4.6V30h4.6v17.2H288.1z"/>
<path class="st0" d="M0,59.1V0h59.1v59.1H0z M56.8,56.8V2.3H2.3V57h54.5V56.8z"/>
<polygon class="st0" points="11.3,29.5 26.4,54.1 53.6,54.1 38.8,29.5 53.8,5 26.4,5.2 "/>
</svg>
