<?xml version="1.0" encoding="utf-8"?>
<!-- Generator: Adobe Illustrator 23.1.0, SVG Export Plug-In . SVG Version: 6.00 Build 0)  -->
<svg version="1.1" id="Ebene_1" xmlns="http://www.w3.org/2000/svg" xmlns:xlink="http://www.w3.org/1999/xlink" x="0px" y="0px"
	 width="300px" height="65px" viewBox="0 0 300 65" style="enable-background:new 0 0 300 65;" xml:space="preserve">
<style type="text/css">
	.st0{fill:#FFFFFF;}
	.st1{fill:none;}
	.st2{fill-rule:evenodd;clip-rule:evenodd;fill:#FFFFFF;}
</style>
<g>
	<polygon class="st0" points="59.3,5.5 29.2,5.5 12.5,32.6 29.2,59.6 59.3,59.6 42.6,32.6 	"/>
	<g>
		<polygon class="st1" points="2.6,2.6 2.6,62.4 62.5,62.4 62.4,2.6 		"/>
		<path class="st0" d="M0,0v65h65V0H0z M2.6,62.4V2.6h59.9v59.9L2.6,62.4z"/>
	</g>
	<path class="st2" d="M162,25.4c-2.4,0-3.8-2.8-3.8-5.3c0-2.9,0.9-6,4-6c2.6,0,3.7,2.6,3.7,5.8C165.8,22.9,164.7,25.4,162,25.4
		L162,25.4z M166.1,10.7v2.6l0,0c-1.2-2.1-2.9-2.9-5.2-2.9c-5,0-7.2,5.2-7.2,9.6c0,5,2,9.2,6.9,9.2c2.4,0,4.4-1.4,5.2-2.9l0,0
		c0,3.2-0.3,6.9-5,6.9c-1.4,0-4.1-0.8-5.5-1.5v4c2.1,0.9,4.3,1.2,6,1.2c7,0,8.9-4.1,8.9-9.2v-17H166.1L166.1,10.7z"/>
	<path class="st0" d="M88,8.1h-6.7V4h18v4h-6.7v21.5H88V8.1z"/>
	<path class="st0" d="M101.9,4h4.4v9.3l0,0c1.1-1.8,3.1-3.1,5.3-3.1c4,0,5.8,3.2,5.8,7.5v11.9h-4.4V19.6c0-2.3,0-5.5-2.9-5.5
		c-3.2,0-3.8,3.8-3.8,6.3v9.2h-4.4V4z"/>
	<path class="st0" d="M137.7,29.6h-4.1v-2.6l0,0c-1.4,1.8-3.2,3.1-5.7,3.1c-4,0-5.8-3.2-5.8-7.3V10.7h4.4v10.1c0,2.3,0,5.5,2.9,5.5
		c3.2,0,4-3.8,4-6.3v-9.3h4.4v19H137.7z"/>
	<path class="st0" d="M142.3,10.7h4V15l0,0c0.2-1.8,2-4.7,4.6-4.7c0.5,0,0.9,0,1.4,0.2v4.9c-0.5-0.3-1.2-0.5-2-0.5
		c-3.7,0-3.7,5-3.7,7.6v6.9h-4.4V10.7H142.3z"/>
	<path class="st0" d="M175.6,11.8c1.7-0.9,4-1.4,6-1.4c5.2,0,7.3,2.4,7.3,7.9v2.4c0,1.8,0,3.4,0,4.7c0,1.4,0.2,2.8,0.2,4.3h-4
		c-0.2-0.9-0.2-2.3-0.2-2.8l0,0c-1.1,2.1-3.2,3.2-5.2,3.2c-3.1,0-6-2-6-5.7c0-2.8,1.2-4.4,2.9-5.3c1.7-0.9,3.8-1.1,5.7-1.1h2.4
		c0-3.1-1.2-4.1-3.8-4.1c-1.8,0-3.8,0.8-5.2,2L175.6,11.8z M180.8,26.4c1.4,0,2.4-0.6,3.1-1.7c0.8-1.1,0.9-2.4,0.9-3.8h-2
		c-2,0-4.9,0.3-4.9,3.2C178,25.7,179.3,26.4,180.8,26.4z"/>
	<path class="st0" d="M208.8,29.6h-4.1v-2.6l0,0c-1.4,1.8-3.2,3.1-5.7,3.1c-4,0-5.8-3.2-5.8-7.3V10.7h4.4v10.1c0,2.3,0,5.5,2.9,5.5
		c3.2,0,3.8-3.8,3.8-6.3v-9.3h4.4L208.8,29.6L208.8,29.6z"/>
	<path class="st0" d="M227.1,28.6c-1.7,0.9-3.5,1.5-5.8,1.5c-5.7,0-8.9-3.7-8.9-9.8c0-5.5,2.6-9.9,7.9-9.9c6.3,0,8.1,4.7,8.1,11.5
		h-11.8c0.2,3.1,2.1,4.7,4.9,4.7c2.1,0,4-0.9,5.7-1.8v3.8H227.1z M224,18.3c-0.2-2.4-1.1-4.4-3.7-4.4c-2.4,0-3.7,1.8-4,4.4H224z"/>
	<path class="st0" d="M231.8,10.7h4V15l0,0c0.2-1.8,2-4.7,4.6-4.7c0.5,0,0.9,0,1.4,0.2v4.9c-0.5-0.3-1.2-0.5-2-0.5
		c-3.7,0-3.7,5-3.7,7.6v6.9h-4.4V10.7H231.8z"/>
	<path class="st0" d="M85.1,35.3h4.6v11l8.3-11h5.7l-9.3,12.1l9.9,13.6h-6.1l-8.3-11.9l0,0V61h-4.6V35.3H85.1z"/>
	<path class="st0" d="M106.7,43.1c1.7-0.9,4-1.4,6-1.4c5.2,0,7.3,2.4,7.3,7.9V52c0,1.8,0,3.4,0,4.7c0,1.4,0.2,2.8,0.2,4.3h-3.8
		c-0.2-0.9-0.2-2.3-0.2-2.8l0,0c-1.1,2.1-3.2,3.2-5.2,3.2c-3.1,0-6-2-6-5.7c0-2.8,1.2-4.4,2.9-5.3s3.8-1.1,5.7-1.1h2.4
		c0-3.1-1.2-4.1-3.8-4.1c-1.8,0-3.8,0.8-5.2,2L106.7,43.1z M111.9,57.8c1.4,0,2.4-0.6,3.1-1.7c0.8-1.1,0.9-2.4,0.9-3.8h-2
		c-2,0-4.9,0.3-4.9,3.2C109.1,57.2,110.3,57.8,111.9,57.8z"/>
	<path class="st0" d="M124.2,42h4.1v2.6l0,0c1.4-2.1,3.2-3.1,5.7-3.1c4,0,5.8,3.2,5.8,7.3v11.9h-4.4V50.7c0-2.3,0-5.5-2.9-5.5
		c-3.2,0-4,3.8-4,6.3v9.2h-4.4V42H124.2z"/>
	<path class="st0" d="M146,45.7h-3.2V42h3.2v-5.2l4.4-1.5V42h4v3.7h-4v8.9c0,1.7,0.5,3.1,2.1,3.1c0.8,0,1.5-0.2,2-0.5l0.2,3.8
		c-0.9,0.3-2,0.5-3.2,0.5c-3.5,0-5.3-2.4-5.3-6.1v-9.6H146z"/>
	<path class="st0" d="M165.1,41.7c5,0,8.9,3.8,8.9,10.1c0,5.5-3.2,9.8-8.9,9.8c-5.7,0-8.9-4.3-8.9-9.8
		C156.2,45.4,160,41.7,165.1,41.7z M165.1,57.6c3.4,0,4.3-3.4,4.3-6.6c0-2.9-1.4-5.7-4.3-5.7s-4.3,2.8-4.3,5.7
		C160.8,54.3,161.7,57.6,165.1,57.6z"/>
	<path class="st0" d="M177.4,42h4.1v2.6l0,0c1.4-2.1,3.2-3.1,5.7-3.1c4,0,5.8,3.2,5.8,7.3v11.9h-4.4V50.7c0-2.3,0-5.5-2.9-5.5
		c-3.2,0-4,3.8-4,6.3v9.2h-4.4V42H177.4z"/>
	<path class="st0" d="M198.4,43.1c1.7-0.9,4-1.4,6-1.4c5.2,0,7.3,2.4,7.3,7.9V52c0,1.8,0,3.4,0,4.7c0,1.4,0.2,2.8,0.2,4.3H208
		c-0.2-0.9-0.2-2.3-0.2-2.8l0,0c-1.1,2.1-3.2,3.2-5.2,3.2c-3.1,0-6-2-6-5.7c0-2.8,1.2-4.4,2.9-5.3c1.7-0.9,3.8-1.1,5.7-1.1h2.4
		c0-3.1-1.2-4.1-3.8-4.1c-1.8,0-3.8,0.8-5.2,2L198.4,43.1z M203.6,57.8c1.4,0,2.4-0.6,3.1-1.7c0.8-1.1,0.9-2.4,0.9-3.8h-2
		c-2,0-4.9,0.3-4.9,3.2C200.8,57.2,202,57.8,203.6,57.8z"/>
	<path class="st0" d="M216.1,35.3h4.4V61h-4.4V35.3z"/>
	<path class="st0" d="M225.3,35.3h4.4v9.2l0,0c1.2-1.8,2.8-2.9,5-2.9c5.2,0,7.2,4.6,7.2,9.8s-2,9.9-7.2,9.9c-1.8,0-4-0.8-5.2-2.8
		l0,0v2.3h-4.3V35.3z M233.5,57.6c2.9,0,3.7-3.5,3.7-6.1c0-2.6-0.8-6-3.7-6c-2.9,0-4,3.4-4,6C229.7,54.1,230.6,57.6,233.5,57.6z"/>
	<path class="st0" d="M246.2,43.1c1.7-0.9,4-1.4,6-1.4c5.2,0,7.3,2.4,7.3,7.9V52c0,1.8,0,3.4,0,4.7c0,1.4,0.2,2.8,0.2,4.3h-4
		c-0.2-0.9-0.2-2.3-0.2-2.8l0,0c-1.1,2.1-3.2,3.2-5.2,3.2c-3.1,0-6-2-6-5.7c0-2.8,1.2-4.4,2.9-5.3c1.7-0.9,3.8-1.1,5.7-1.1h2.4
		c0-3.1-1.2-4.1-3.8-4.1c-1.8,0-3.8,0.8-5.2,2L246.2,43.1z M251.4,57.8c1.4,0,2.4-0.6,3.1-1.7c0.8-1.1,0.9-2.4,0.9-3.8h-2
		c-2,0-4.9,0.3-4.9,3.2C248.5,57.2,249.7,57.8,251.4,57.8z"/>
	<path class="st0" d="M263.8,42h4.1v2.6l0,0c1.4-2.1,3.2-3.1,5.7-3.1c4,0,5.8,3.2,5.8,7.3v11.9h-4.4V50.7c0-2.3,0-5.5-2.9-5.5
		c-3.2,0-4,3.8-4,6.3v9.2h-4.4V42H263.8z"/>
	<path class="st0" d="M284.1,35.3h4.4v14.2l0,0l5.3-7.5h5.2l-6.3,8.4l7.2,10.4h-5.7l-5.7-9.2l0,0v9.2h-4.4V35.3H284.1z"/>
</g>
</svg>
