<?xml version="1.0" encoding="utf-8"?>
<!-- Generator: Adobe Illustrator 23.1.0, SVG Export Plug-In . SVG Version: 6.00 Build 0)  -->
<svg version="1.1" id="Ebene_1" xmlns="http://www.w3.org/2000/svg" xmlns:xlink="http://www.w3.org/1999/xlink" x="0px" y="0px"
	 width="228.5px" height="75px" viewBox="0 0 228.5 75" style="enable-background:new 0 0 228.5 75;" xml:space="preserve">
<style type="text/css">
	.st0{fill:#FFFFFF;}
</style>
<g>
	<path class="st0" d="M133.5,29c-1.9,0-2.7,0.6-4,2.3L114,54.1h4.6l4.8-7.5h16.3l5,7.5h8.1c0,0-12.9-18.8-15.5-22.8
		C136.4,29.5,135.4,29,133.5,29z M125.1,44.7l6.7-10.5l6.7,10.5H125.1z"/>
	<path class="st0" d="M102.1,41.2c1.9,0,5.8-1.2,7.5-2.9c0.8-0.8,1.3-1.7,1.3-2.9c0-1.2-0.6-1.9-1.2-2.7c-2.5-2.5-9-3.3-12.7-3.3
		c-1.9,0-11.5,0-11.7,0c-2.1,0-3.6,1.2-3.6,3.5c0,8.2,0,21.1,0,21.1h17.1c3.1,0,8.4-0.4,11.5-2.1c1.7-1,2.9-2.3,2.9-4.4
		c0-1.2-0.4-2.1-1.3-3.1C108.6,41.4,101.7,41.2,102.1,41.2z M88.8,33.6c0-1.7,1-2.1,2.1-2.3c0.6,0,1.9,0,3.1,0
		c3.1,0,9.4,0.4,9.4,4.4c0,1-0.4,1.9-1,2.5c-1.9,1.9-6.1,2.1-8.2,2.1h-5.4V33.6z M95.4,52.2c-1.3,0-5.2,0-5.9-0.8
		c-0.6-0.6-0.4-1.5-0.4-2.9v-6.3h5.6c3.3,0,7.5-0.4,10,2.1c0.8,0.8,1.3,1.7,1.3,2.9C105.7,51.8,98.4,52.2,95.4,52.2z"/>
	<path class="st0" d="M184.5,49.3L165,29.5H159c-2.5,0-3.6,1.9-3.6,3.3v21.3h4.4V33.6l20.5,20.5h8.4V29.5h-4.2
		C184.5,29.5,184.5,49.3,184.5,49.3z"/>
	<path class="st0" d="M210.6,40.5l15.7-10.9H220l-15.7,11.3V29.5h-4c-3.5,0-3.3,3.5-3.3,3.5v21.1h7.5V41.8l15,12.3h9L210.6,40.5z"/>
	<path class="st0" d="M54.1,32.6V41h3.1c1.9,0,6.9,0.2,9-2.1c0.8-0.8,1.3-1.7,1.3-2.9c0-1.5-0.6-2.7-1.3-3.5
		c-1.2-1.2-3.8-1.9-6.3-1.9c-1.2,0-1.9,0-3.1,0C54.9,30.7,54.1,31.5,54.1,32.6z"/>
	<path class="st0" d="M61,7.1C54.3,1.9,47.4,0,40.1,0c-7.9,0-20.7,2.7-29.5,12.1C2.5,20.7,0.4,28.4,0,38.6c-0.2,5.9,1,11.9,4,17.3
		c4,6.9,10.7,12.7,17.8,16.1c4.4,2.3,11.7,3.1,15.7,3.1c11.5,0,20.7-4.2,25.9-9.2c7.9-7.7,11.5-16.9,11.5-28
		C75,26.3,70.4,14.6,61,7.1z M75,36.1c0,1.5-0.6,2.7-1.5,3.6C70,43.2,61.6,43,57.8,43h-3.8v10.7h-7.5V33.4c0-1.5,0-2.7-2.5-2.7
		c-0.8,0-1.3,0-1.3,0L28,52.2c-1.3,1.7-2.3,2.5-4.2,2.5c-1.7,0-2.7-0.6-4-2.5L4,29.2h7.9l13.6,20.3l13.6-20.3c0,0,11.5,0,19.8,0
		c3.6,0,11.1,0,14.6,3.5C74.4,33.2,75,34.5,75,36.1z"/>
</g>
</svg>
