<?xml version="1.0" encoding="utf-8"?>
<!-- Generator: Adobe Illustrator 23.0.6, SVG Export Plug-In . SVG Version: 6.00 Build 0)  -->
<svg version="1.1" id="Calque_1" xmlns="http://www.w3.org/2000/svg" xmlns:xlink="http://www.w3.org/1999/xlink" x="0px" y="0px"
	 width="363.2px" height="57.3px" viewBox="0 0 363.2 57.3" style="enable-background:new 0 0 363.2 57.3;" xml:space="preserve">
<style type="text/css">
	.st0{fill-rule:evenodd;clip-rule:evenodd;fill:#FFFFFF;}
	.st1{fill:#FFFFFF;}
</style>
<g>
	<g>
		<g>
			<path class="st0" d="M132.3,49.6c-8.7,0-13.8-6.2-13.8-14.5c0-8.3,5.2-14.8,13.6-14.8c2.9,0,5.7,0.4,8.8,2.2l0.6-6.9
				c-3-1.2-6.5-1.7-9.2-1.7c-13.8,0-22.3,7.8-22.3,21.7c0,13.8,9.1,20.3,22.3,20.3c3,0,6.3-0.5,9.2-1.3l-0.4-6.8
				C139.3,48.9,135.4,49.6,132.3,49.6z M161.5,46.5L161.5,46.5L151,14.6h-8.8l14,40.7h10l13.7-40.7h-8.1L161.5,46.5z M191.2,25.9
				c0-4.4,3.6-5.7,6.4-5.7c2.9,0,5.7,0.7,8.3,1.8l0.8-6.7c-3-1-6.3-1.5-9.7-1.5c-7.2,0-14.2,3.3-14.2,12.4c0,13.4,17.8,10.2,17.8,18
				c0,3.7-4.1,5.2-7.2,5.2c-3.2,0-6.4-1-9.2-2.5l-0.7,7.4c4,1,6,1.5,10.4,1.5c8.2,0,15.3-3.3,15.3-12.3C209,30,191.2,33,191.2,25.9z
				 M220.7,55h3.8V4.7h-3.8V55z M277.1,47.1H277l-7.2-32.6h-11.1l-6.9,32.6h-0.1l-7.5-32.6h-8.6l10.8,40.7h10.6l7.2-32.6h0.1
				l7.4,32.6H282l10.6-40.7h-8L277.1,47.1z M312.9,33.7l16.7-19.2h-10L305,32.1V14.6h-8.2v40.7h8.2V36.4h0.1l14.6,18.9h10.6
				L312.9,33.7z"/>
		</g>
	</g>
	<g>
		<g>
			<path class="st1" d="M22.4,9.1l-3.6,2.6l1.4,4.3l-3.6-2.7L12.9,16l1.4-4.3l-3.6-2.6l4.5,0l1.4-4.3L17.9,9L22.4,9.1z"/>
		</g>
		<g>
			<polygon class="st1" points="51.2,5.6 26.3,5.6 20.2,15.9 24.6,15.9 26,11.7 27.4,15.9 31.9,15.9 28.3,18.6 29.7,22.9 26,20.2 
				22.4,22.9 23.8,18.6 20.1,16 12.6,28.5 26.6,51.4 51.2,51.4 37.3,28.3 			"/>
			<polygon class="st1" points="20.1,15.9 20.1,16 20.2,15.9 			"/>
		</g>
		<path class="st1" d="M57.6,57.3H0V0h57.6V57.3z M54.2,3.4H3.4v50.5h50.8V3.4z"/>
	</g>
	<path class="st0" d="M106,43.5c0-5-3.8-8.7-9.4-9.2v-0.1c4.9-0.9,8.2-4.3,8.2-9.1c0-8.9-7.8-10.4-13-10.5v0h-0.1H77.4v40.7h14.2
		h0.1v0C96.9,55.3,106,53.7,106,43.5z M85.6,21h3.2c1,0,2,0,3,0.1v0c2.7,0.4,4.9,1.5,4.9,4.9c0,3.1-2.3,4.3-4.9,4.7v0
		C90.8,31,89.8,31,88.9,31h-3.3V21z M91.7,48.7L91.7,48.7c-0.8,0.1-1.5,0.2-2.3,0.2h-3.9V37.1h3.9c0.7,0,1.5,0.1,2.3,0.1v0
		c3.3,0.4,6.1,1.7,6.1,6C97.9,47,94.9,48.3,91.7,48.7z"/>
	<path class="st0" d="M363.2,43.5c0-5-3.8-8.7-9.4-9.2v-0.1c4.9-0.9,8.2-4.3,8.2-9.1c0-8.9-7.8-10.4-13-10.5v0h-0.1h-14.2v40.7h14.2
		h0.1v0C354.1,55.3,363.2,53.7,363.2,43.5z M342.8,21h3.2c1,0,2,0,3,0.1v0c2.7,0.4,4.9,1.5,4.9,4.9c0,3.1-2.3,4.3-4.9,4.7v0
		C348,31,347,31,346.1,31h-3.3V21z M348.9,48.7L348.9,48.7c-0.8,0.1-1.5,0.2-2.3,0.2h-3.9V37.1h3.9c0.7,0,1.5,0.1,2.3,0.1v0
		c3.3,0.4,6.1,1.7,6.1,6C355,47,352.1,48.3,348.9,48.7z"/>
</g>
</svg>
