<svg width="88" height="88" viewBox="0 0 88 88" fill="none" xmlns="http://www.w3.org/2000/svg">
<circle cx="44" cy="44" r="44" fill="#1A73E8"/>
<path d="M44.0003 68.1668C38.4017 66.7571 33.7802 63.5445 30.1359 58.5292C26.49 53.5154 24.667 47.9474 24.667 41.8252V27.0835L44.0003 19.8335L63.3337 27.0835V41.8252C63.3337 47.9474 61.5115 53.5154 57.8672 58.5292C54.2212 63.5445 49.5989 66.7571 44.0003 68.1668ZM44.0003 63.0918C48.1892 61.7627 51.6531 59.1043 54.392 55.1168C57.1309 51.1293 58.5003 46.6988 58.5003 41.8252V30.4064L44.0003 24.9689L29.5003 30.4064V41.8252C29.5003 46.6988 30.8698 51.1293 33.6087 55.1168C36.3475 59.1043 39.8114 61.7627 44.0003 63.0918Z" fill="white"/>
</svg>
