<svg width="88" height="88" viewBox="0 0 88 88" fill="none" xmlns="http://www.w3.org/2000/svg">
<circle cx="44" cy="44" r="44" fill="#1A73E8"/>
<path d="M27.0833 51.2502L25.5729 47.9272L22.25 46.4168L25.5729 44.9064L27.0833 41.5835L28.5938 44.9064L31.9167 46.4168L28.5938 47.9272L27.0833 51.2502ZM34.3333 65.7502L32.0375 60.796L27.0833 58.5002L32.0375 56.2043L34.3333 51.2502L36.6292 56.2043L41.5833 58.5002L36.6292 60.796L34.3333 65.7502ZM34.3333 41.5835L32.0375 36.6293L27.0833 34.3335L32.0375 32.0377L34.3333 27.0835L36.6292 32.0377L41.5833 34.3335L36.6292 36.6293L34.3333 41.5835ZM60.9167 68.1668C55.9222 66.2335 51.8542 63.0419 48.7125 58.592C45.5708 54.1405 44 49.2766 44 44.0002C44 40.2141 44.7556 36.6696 46.2668 33.3668C47.7764 30.0641 49.8 27.1641 52.3375 24.6668H44V19.8335H60.9167V36.7502H56.0833V27.7481C53.9083 29.8828 52.1562 32.3599 50.8271 35.1793C49.4979 37.9988 48.8333 40.9391 48.8333 44.0002C48.8333 48.0279 49.9611 51.7335 52.2167 55.1168C54.4722 58.5002 57.3722 61.0981 60.9167 62.9106V68.1668Z" fill="white"/>
</svg>
