<svg width="88" height="88" viewBox="0 0 88 88" fill="none" xmlns="http://www.w3.org/2000/svg">
<circle cx="44" cy="44" r="44" fill="#1A73E8"/>
<path d="M29.5003 63.3332C28.1712 63.3332 27.0337 62.8603 26.088 61.9146C25.1407 60.9673 24.667 59.829 24.667 58.4998C24.667 57.1707 25.1407 56.0324 26.088 55.0851C27.0337 54.1394 28.1712 53.6665 29.5003 53.6665C30.8295 53.6665 31.9669 54.1394 32.9127 55.0851C33.86 56.0324 34.3337 57.1707 34.3337 58.4998C34.3337 59.829 33.86 60.9673 32.9127 61.9146C31.9669 62.8603 30.8295 63.3332 29.5003 63.3332ZM29.5003 48.8332C28.1712 48.8332 27.0337 48.3595 26.088 47.4122C25.1407 46.4664 24.667 45.329 24.667 43.9998C24.667 42.6707 25.1407 41.5324 26.088 40.5851C27.0337 39.6394 28.1712 39.1665 29.5003 39.1665C30.8295 39.1665 31.9669 39.6394 32.9127 40.5851C33.86 41.5324 34.3337 42.6707 34.3337 43.9998C34.3337 45.329 33.86 46.4664 32.9127 47.4122C31.9669 48.3595 30.8295 48.8332 29.5003 48.8332ZM29.5003 34.3332C28.1712 34.3332 27.0337 33.8595 26.088 32.9122C25.1407 31.9664 24.667 30.829 24.667 29.4998C24.667 28.1707 25.1407 27.0332 26.088 26.0875C27.0337 25.1402 28.1712 24.6665 29.5003 24.6665C30.8295 24.6665 31.9669 25.1402 32.9127 26.0875C33.86 27.0332 34.3337 28.1707 34.3337 29.4998C34.3337 30.829 33.86 31.9664 32.9127 32.9122C31.9669 33.8595 30.8295 34.3332 29.5003 34.3332ZM44.0003 48.8332C42.6712 48.8332 41.5337 48.3595 40.588 47.4122C39.6407 46.4664 39.167 45.329 39.167 43.9998C39.167 42.6707 39.6407 41.5324 40.588 40.5851C41.5337 39.6394 42.6712 39.1665 44.0003 39.1665C45.3295 39.1665 46.4677 39.6394 47.4151 40.5851C48.3608 41.5324 48.8337 42.6707 48.8337 43.9998L44.0003 48.8332ZM44.0003 34.3332C42.6712 34.3332 41.5337 33.8595 40.588 32.9122C39.6407 31.9664 39.167 30.829 39.167 29.4998C39.167 28.1707 39.6407 27.0332 40.588 26.0875C41.5337 25.1402 42.6712 24.6665 44.0003 24.6665C45.3295 24.6665 46.4677 25.1402 47.4151 26.0875C48.3608 27.0332 48.8337 28.1707 48.8337 29.4998C48.8337 30.829 48.3608 31.9664 47.4151 32.9122C46.4677 33.8595 45.3295 34.3332 44.0003 34.3332ZM41.5837 63.3332V58.1978L54.392 45.3894L59.5274 50.5248L46.7191 63.3332H41.5837ZM58.5003 34.3332C57.1712 34.3332 56.0329 33.8595 55.0856 32.9122C54.1399 31.9664 53.667 30.829 53.667 29.4998C53.667 28.1707 54.1399 27.0332 55.0856 26.0875C56.0329 25.1402 57.1712 24.6665 58.5003 24.6665C59.8295 24.6665 60.9677 25.1402 61.9151 26.0875C62.8608 27.0332 63.3337 28.1707 63.3337 29.4998C63.3337 30.829 62.8608 31.9664 61.9151 32.9122C60.9677 33.8595 59.8295 34.3332 58.5003 34.3332ZM61.2191 48.8332L56.0837 43.6978L57.8357 41.9457C58.3191 41.4623 58.8934 41.2207 59.5588 41.2207C60.2226 41.2207 60.776 41.4623 61.2191 41.9457L62.9712 43.6978C63.4545 44.1408 63.6962 44.6942 63.6962 45.358C63.6962 46.0234 63.4545 46.5978 62.9712 47.0811L61.2191 48.8332Z" fill="white"/>
</svg>
