<?xml version="1.0" encoding="UTF-8"?>
<svg xmlns="http://www.w3.org/2000/svg" width="260.027" height="69.206" viewBox="0 0 260.027 69.206">
  <g id="Group_381" data-name="Group 381" transform="translate(0 196.936)">
    <path id="Path_545" data-name="Path 545" d="M34.3-106.163,19.284-69.825H15.068L0-106.163H4.07L17.152-73.846l13.033-32.317Z" transform="translate(0 -58.874)" fill="#fff"></path>
    <path id="Path_546" data-name="Path 546" d="M108.641-69.824h3.876v-36.338h-3.876Z" transform="translate(-70.463 -58.875)" fill="#fff" fill-rule="evenodd"></path>
    <path id="Path_547" data-name="Path 547" d="M165-106.163l-15.02,36.338h-4.215L130.7-106.163h4.07L147.85-73.846l13.033-32.317Z" transform="translate(-84.769 -58.874)" fill="#fff"></path>
    <path id="Path_548" data-name="Path 548" d="M243.342-83.1l-7.122-18.75L229.146-83.1ZM252.4-69.825h-4.07L244.6-79.708H227.838l-3.731,9.884h-4.07l14.051-36.338h4.264Z" transform="translate(-142.713 -58.874)" fill="#fff"></path>
    <path id="Path_549" data-name="Path 549" d="M367.116-70.644a19.148,19.148,0,0,1-19.138-19.138,19.148,19.148,0,0,1,19.138-19.138,18.917,18.917,0,0,1,13.518,5.62l-2.568,2.568a14.93,14.93,0,0,0-10.95-4.8,15.524,15.524,0,0,0-15.262,15.747,15.524,15.524,0,0,0,15.262,15.746,15.427,15.427,0,0,0,15.165-14.05H367.116v-3.391h19.09c0,.581.049,1.114.049,1.7a19.148,19.148,0,0,1-19.138,19.138" transform="translate(-225.693 -57.086)" fill="#fff"></path>
    <path id="Path_550" data-name="Path 550" d="M494.925-69.824H474.818v-36.338h3.876v32.946h16.231Z" transform="translate(-307.96 -58.875)" fill="#fff"></path>
    <path id="Path_551" data-name="Path 551" d="M562.231-83.1l-7.123-18.75L548.035-83.1Zm9.061,13.276h-4.07l-3.731-9.884H546.726L543-69.825h-4.07l14.051-36.338h4.264Z" transform="translate(-349.539 -58.874)" fill="#fff"></path>
    <path id="Path_552" data-name="Path 552" d="M677.345-69.824h-3.876v-29.8L662.325-81.937h-3.876L647.305-99.621v29.8h-3.876v-36.338h3.876l13.082,20.737,13.082-20.737h3.876Z" transform="translate(-417.318 -58.875)" fill="#fff"></path>
    <path id="Path_553" data-name="Path 553" d="M201.7-189.385l-16.863-7.164a3.6,3.6,0,0,0-1.36-.236c-1.251,0-2.267.613-2.267,1.361v11.934c0,.5.61.9,1.36.9s1.36-.4,1.36-.9v-10.488l14.268,6.068Zm110.019,3.931H278.944c-3.852,0-6.951-1.939-6.951-4.23s3.1-4.23,6.951-4.23h32.776c1,0,1.811-.61,1.811-1.355s-.812-1.362-1.811-1.362H278.944c-5.509,0-9.821,3.05-9.821,6.947a5.527,5.527,0,0,0,1.246,3.441l-21.1-10.225a4.192,4.192,0,0,0-1.9-.468,4.187,4.187,0,0,0-1.9.468l-21.665,10.5v-9.457c0-.748-1.015-1.361-2.265-1.361a3.608,3.608,0,0,0-1.361.236l-21.174,8.981,1.814.761a4.137,4.137,0,0,0,1.689.343,4.113,4.113,0,0,0,1.687-.343l16.892-7.171v10.488c0,.5.61.9,1.361.9h.115a2.072,2.072,0,0,0,.891-.189l23.913-11.592,11,5.333H237.956l-5.423,2.629h31.26l7.493,3.631a2.085,2.085,0,0,0,.892.189c.81,0,1.463-.4,1.463-.9a.615.615,0,0,0-.123-.367,12.824,12.824,0,0,0,5.426,1.119h32.776c1,0,1.811-.6,1.811-1.357s-.812-1.36-1.811-1.36M265.5-193.007c-1.336,0-2.418.539-2.418,1.207s1.082,1.209,2.418,1.209,2.414-.542,2.414-1.209-1.081-1.207-2.414-1.207M231.663-191.8c0,.668-1.081,1.209-2.416,1.209s-2.417-.542-2.417-1.209,1.081-1.207,2.417-1.207,2.416.539,2.416,1.207" transform="translate(-117.531)" fill="#fff"></path>
  </g>
</svg>
