<?xml version="1.0" encoding="UTF-8"?>
<svg xmlns="http://www.w3.org/2000/svg" id="Group_357" data-name="Group 357" width="268.713" height="57.031" viewBox="0 0 268.713 57.031">
  <path id="Path_487" data-name="Path 487" d="M459.151-171.6v-12.58h2.074a.811.811,0,0,1,.837.592l.2.819a6.952,6.952,0,0,1,.675-.636,4.4,4.4,0,0,1,.746-.509,3.969,3.969,0,0,1,.871-.334,4.157,4.157,0,0,1,1.018-.118,2.971,2.971,0,0,1,1.921.61,3.915,3.915,0,0,1,1.146,1.644,3.878,3.878,0,0,1,.75-1.032,3.883,3.883,0,0,1,.973-.7,5.053,5.053,0,0,1,1.122-.395,5.744,5.744,0,0,1,1.19-.123,4.968,4.968,0,0,1,1.875.32,3.42,3.42,0,0,1,1.372.927,4.12,4.12,0,0,1,.848,1.5,6.414,6.414,0,0,1,.292,2.026v7.989h-3.369v-7.989c0-1.473-.625-2.208-1.888-2.208a2.191,2.191,0,0,0-.785.139,1.8,1.8,0,0,0-.633.424,1.953,1.953,0,0,0-.429.7,2.84,2.84,0,0,0-.153.95v7.989h-3.361v-7.989a2.478,2.478,0,0,0-.47-1.7,1.792,1.792,0,0,0-1.385-.509,2.392,2.392,0,0,0-1.1.272,3.818,3.818,0,0,0-.971.769v9.156Z" transform="translate(-330.636 189.791)" fill="#fff"></path>
  <path id="Path_488" data-name="Path 488" d="M536.19-185.557h-3.366v-12.58h3.366Zm.4-16.148a1.8,1.8,0,0,1-.171.788,2.192,2.192,0,0,1-.457.653,2.141,2.141,0,0,1-.673.441,2.067,2.067,0,0,1-.82.156,1.916,1.916,0,0,1-.785-.156,2.143,2.143,0,0,1-.659-.441,2.206,2.206,0,0,1-.443-.653,1.948,1.948,0,0,1-.164-.788,2.034,2.034,0,0,1,.164-.8,2.242,2.242,0,0,1,.443-.65,2.016,2.016,0,0,1,.659-.444,1.956,1.956,0,0,1,.785-.154,2.111,2.111,0,0,1,.82.154,2.017,2.017,0,0,1,.673.444,2.229,2.229,0,0,1,.457.65,1.879,1.879,0,0,1,.171.8" transform="translate(-383.398 203.751)" fill="#fff"></path>
  <path id="Path_489" data-name="Path 489" d="M559.05-203.717v6.316l2.105-.832v1.9a.683.683,0,0,1-.456.7l-1.649.69v9.4h-3.369v-8.25l-1.988.8v-1.965a.633.633,0,0,1,.4-.621l1.585-.674v-7.471Z" transform="translate(-398.716 203.728)" fill="#fff"></path>
  <path id="Path_490" data-name="Path 490" d="M591.394-173.939a2.425,2.425,0,0,0,2.132-.993,5.2,5.2,0,0,0,.692-2.96,5.151,5.151,0,0,0-.692-2.943,2.435,2.435,0,0,0-2.132-.993,2.461,2.461,0,0,0-2.172.993,5.093,5.093,0,0,0-.7,2.943,5.137,5.137,0,0,0,.7,2.96,2.451,2.451,0,0,0,2.172.993m0-10.423a7.059,7.059,0,0,1,2.568.447,5.654,5.654,0,0,1,1.988,1.286,5.609,5.609,0,0,1,1.281,2.034,7.555,7.555,0,0,1,.451,2.691,7.644,7.644,0,0,1-.451,2.7,5.635,5.635,0,0,1-1.281,2.041,5.542,5.542,0,0,1-1.988,1.3,7.077,7.077,0,0,1-2.568.448,7.174,7.174,0,0,1-2.594-.448,5.532,5.532,0,0,1-1.995-1.3,5.77,5.77,0,0,1-1.288-2.041,7.531,7.531,0,0,1-.453-2.7,7.444,7.444,0,0,1,.453-2.691,5.744,5.744,0,0,1,1.288-2.034,5.643,5.643,0,0,1,1.995-1.286,7.155,7.155,0,0,1,2.594-.447" transform="translate(-421.306 189.791)" fill="#fff"></path>
  <path id="Path_491" data-name="Path 491" d="M645.014-202.666l-3.089,3.193a1.582,1.582,0,0,1-.478.362,1.648,1.648,0,0,1-.62.1h-2.021l1.707-2.973a1.366,1.366,0,0,1,.446-.511,1.427,1.427,0,0,1,.8-.17Zm-.881,7.9a1.031,1.031,0,0,1-.276.3.714.714,0,0,1-.38.089,1.1,1.1,0,0,1-.5-.123c-.168-.076-.362-.162-.577-.261a7.307,7.307,0,0,0-.722-.262,3.278,3.278,0,0,0-.947-.12,2.109,2.109,0,0,0-1.271.331,1.058,1.058,0,0,0-.449.884.873.873,0,0,0,.255.638,2.268,2.268,0,0,0,.68.446,8.583,8.583,0,0,0,.955.353c.358.108.729.231,1.1.359a10.571,10.571,0,0,1,1.105.449,4.109,4.109,0,0,1,.958.645,2.908,2.908,0,0,1,.678.927A3.06,3.06,0,0,1,645-188.8a4.181,4.181,0,0,1-.34,1.693,3.651,3.651,0,0,1-.98,1.333,4.737,4.737,0,0,1-1.608.878,7.107,7.107,0,0,1-2.221.315,7.263,7.263,0,0,1-1.276-.112,7.066,7.066,0,0,1-1.21-.332,7.738,7.738,0,0,1-1.074-.492,4.505,4.505,0,0,1-.864-.61l.779-1.258a1.058,1.058,0,0,1,.336-.344,1.006,1.006,0,0,1,.511-.12,1.065,1.065,0,0,1,.566.151c.17.106.361.211.574.335a5.294,5.294,0,0,0,.751.326,3.278,3.278,0,0,0,1.076.149,3.006,3.006,0,0,0,.841-.1,1.827,1.827,0,0,0,.574-.3,1.147,1.147,0,0,0,.32-.43,1.2,1.2,0,0,0,.107-.492.925.925,0,0,0-.259-.678,2.362,2.362,0,0,0-.684-.46,8.2,8.2,0,0,0-.968-.355c-.365-.1-.741-.226-1.117-.352a9.977,9.977,0,0,1-1.113-.46,3.842,3.842,0,0,1-.959-.679,3.045,3.045,0,0,1-.687-1.007,3.647,3.647,0,0,1-.261-1.449,3.7,3.7,0,0,1,.3-1.482,3.5,3.5,0,0,1,.918-1.237,4.353,4.353,0,0,1,1.519-.848,6.131,6.131,0,0,1,2.1-.32,6.58,6.58,0,0,1,2.434.435,5.314,5.314,0,0,1,1.8,1.146Z" transform="translate(-457.574 202.971)" fill="#fff"></path>
  <path id="Path_492" data-name="Path 492" d="M686.268-202.666l-3.087,3.193a1.588,1.588,0,0,1-.478.362,1.624,1.624,0,0,1-.614.1h-2.023l1.7-2.973a1.392,1.392,0,0,1,.445-.511,1.453,1.453,0,0,1,.8-.17Zm-.817,8.121a1.44,1.44,0,0,1-.291.3.714.714,0,0,1-.412.1.84.84,0,0,1-.47-.14c-.154-.092-.326-.2-.525-.307a4.622,4.622,0,0,0-.7-.3,3.1,3.1,0,0,0-1-.14,2.949,2.949,0,0,0-1.312.274,2.45,2.45,0,0,0-.919.791,3.534,3.534,0,0,0-.545,1.234,7.274,7.274,0,0,0-.174,1.65,4.79,4.79,0,0,0,.777,2.956A2.488,2.488,0,0,0,682-187.108a3.5,3.5,0,0,0,.793-.078,2.77,2.77,0,0,0,.59-.2,2.4,2.4,0,0,0,.432-.268c.122-.1.237-.188.343-.269a2.968,2.968,0,0,1,.333-.2.836.836,0,0,1,.366-.08.723.723,0,0,1,.616.292l.962,1.225a5.5,5.5,0,0,1-1.145,1.023,5.739,5.739,0,0,1-1.263.65,6.167,6.167,0,0,1-1.318.328,9.616,9.616,0,0,1-1.333.091,5.717,5.717,0,0,1-2.2-.431,5.218,5.218,0,0,1-1.812-1.265,5.931,5.931,0,0,1-1.24-2.036,7.751,7.751,0,0,1-.458-2.756,7.743,7.743,0,0,1,.406-2.556,5.814,5.814,0,0,1,1.181-2.054,5.489,5.489,0,0,1,1.931-1.356,6.7,6.7,0,0,1,2.668-.492,6.347,6.347,0,0,1,2.523.463,6.029,6.029,0,0,1,1.952,1.339Z" transform="translate(-486.552 202.971)" fill="#fff"></path>
  <path id="Path_493" data-name="Path 493" d="M459.151-94.722V-107.29h2.074a.806.806,0,0,1,.837.587l.207.876a8.8,8.8,0,0,1,.789-.676,6.3,6.3,0,0,1,.866-.523,4.76,4.76,0,0,1,.986-.337,5.064,5.064,0,0,1,1.153-.121,4.463,4.463,0,0,1,1.822.353,3.737,3.737,0,0,1,1.331.988,4.212,4.212,0,0,1,.817,1.513,6.374,6.374,0,0,1,.273,1.923v7.986h-3.352v-7.986a2.42,2.42,0,0,0-.489-1.624,1.772,1.772,0,0,0-1.437-.581,3.007,3.007,0,0,0-1.336.309,4.945,4.945,0,0,0-1.176.847v9.035Z" transform="translate(-330.636 134.431)" fill="#fff"></path>
  <path id="Path_494" data-name="Path 494" d="M512.1-108.7h-3.363v-12.567H512.1Zm.4-16.143a1.9,1.9,0,0,1-.166.795,2.2,2.2,0,0,1-.459.643,2.127,2.127,0,0,1-.671.441,2.109,2.109,0,0,1-.82.158,2.028,2.028,0,0,1-.794-.158,2.116,2.116,0,0,1-.647-.441,2.15,2.15,0,0,1-.448-.643,1.981,1.981,0,0,1-.163-.795,2.007,2.007,0,0,1,.163-.8,2.105,2.105,0,0,1,.448-.652,2.042,2.042,0,0,1,.647-.438,1.994,1.994,0,0,1,.794-.163,2.072,2.072,0,0,1,.82.163,2.056,2.056,0,0,1,.671.438,2.15,2.15,0,0,1,.459.652,1.921,1.921,0,0,1,.166.8" transform="translate(-366.051 148.405)" fill="#fff"></path>
  <path id="Path_495" data-name="Path 495" d="M536.738-105.123a2.545,2.545,0,0,0-1.892.692,3.493,3.493,0,0,0-.888,1.948H539.2a3.4,3.4,0,0,0-.142-1.007,2.3,2.3,0,0,0-.444-.841,2.153,2.153,0,0,0-.768-.575,2.592,2.592,0,0,0-1.107-.217m-.062-2.361a6.241,6.241,0,0,1,2.225.38,4.9,4.9,0,0,1,1.756,1.12,4.908,4.908,0,0,1,1.145,1.8,6.669,6.669,0,0,1,.411,2.431,4.161,4.161,0,0,1-.036.619,1.046,1.046,0,0,1-.123.389.438.438,0,0,1-.23.206,1.14,1.14,0,0,1-.38.051H533.9a4,4,0,0,0,1,2.589,3.1,3.1,0,0,0,2.232.82,3.958,3.958,0,0,0,1.2-.166,5.812,5.812,0,0,0,.886-.373c.257-.131.486-.251.694-.366a1.384,1.384,0,0,1,.62-.158.716.716,0,0,1,.607.293l.973,1.218a5.2,5.2,0,0,1-1.182,1.03,5.98,5.98,0,0,1-1.342.643,6.584,6.584,0,0,1-1.4.332,11.275,11.275,0,0,1-1.368.089,6.883,6.883,0,0,1-2.462-.433,5.484,5.484,0,0,1-1.986-1.278,6,6,0,0,1-1.336-2.105,8.123,8.123,0,0,1-.485-2.913,6.893,6.893,0,0,1,.42-2.413,5.811,5.811,0,0,1,1.211-1.979,5.847,5.847,0,0,1,1.924-1.334,6.415,6.415,0,0,1,2.566-.492" transform="translate(-382.053 134.431)" fill="#fff"></path>
  <path id="Path_496" data-name="Path 496" d="M595.9-106.824h2.681a1.059,1.059,0,0,1,.618.168.806.806,0,0,1,.334.44L601.082-100c.093.4.174.785.251,1.16s.142.741.2,1.109c.1-.368.2-.734.311-1.109s.234-.76.356-1.16l1.845-6.24a.828.828,0,0,1,.327-.429.971.971,0,0,1,.577-.172h1.487a1.029,1.029,0,0,1,.6.172.851.851,0,0,1,.34.429l1.779,6.24c.112.4.225.785.328,1.16s.2.75.294,1.125c.068-.371.134-.741.211-1.123s.171-.763.279-1.162l1.622-6.218a.783.783,0,0,1,.327-.44.979.979,0,0,1,.571-.168h2.562L611.4-94.257h-2.718a.592.592,0,0,1-.375-.129.9.9,0,0,1-.251-.455l-2.047-6.8c-.078-.257-.154-.514-.215-.767s-.128-.508-.177-.772c-.049.263-.106.523-.164.787s-.133.517-.21.781l-2.075,6.775a.716.716,0,0,1-.731.584H599.85Z" transform="translate(-429.109 133.966)" fill="#fff"></path>
  <path id="Path_497" data-name="Path 497" d="M673.052-90.839a1.317,1.317,0,0,1-.388.512,1.143,1.143,0,0,1-.71.171h-2.5l2.377-5.06-5.048-11.571h2.951a1,1,0,0,1,.624.177,1.191,1.191,0,0,1,.317.431l2.388,6.009c.172.481.315.956.438,1.428.076-.246.154-.483.24-.723s.175-.477.258-.716l2.222-6a.92.92,0,0,1,.353-.44,1,1,0,0,1,.562-.169h2.7Z" transform="translate(-480.151 133.929)" fill="#fff"></path>
  <path id="Path_498" data-name="Path 498" d="M722.344-126.838v10.318h.563a1.1,1.1,0,0,0,.5-.091,1.3,1.3,0,0,0,.369-.335l2.777-3.708a1.629,1.629,0,0,1,.467-.429,1.374,1.374,0,0,1,.667-.143h3.075l-3.613,4.581a3.244,3.244,0,0,1-.985.907,2.161,2.161,0,0,1,.485.45,4.761,4.761,0,0,1,.406.574l3.885,6.054h-3.024a1.55,1.55,0,0,1-.667-.124,1.031,1.031,0,0,1-.47-.459l-2.823-4.616a1,1,0,0,0-.356-.386,1.368,1.368,0,0,0-.548-.083h-.709v5.668H718.98v-18.179Z" transform="translate(-517.739 148.367)" fill="#fff"></path>
  <path id="Path_499" data-name="Path 499" d="M767.461-108.659h3.367v-18.179h-3.367Z" transform="translate(-552.651 148.367)" fill="#fff" fill-rule="evenodd"></path>
  <path id="Path_500" data-name="Path 500" d="M793.307-106.787V-98.8a2.475,2.475,0,0,0,.477,1.628,1.761,1.761,0,0,0,1.433.579,2.885,2.885,0,0,0,1.33-.315,4.9,4.9,0,0,0,1.183-.849v-9.029H801.1V-94.22h-2.076a.782.782,0,0,1-.828-.584l-.215-.876a6.772,6.772,0,0,1-1.657,1.2,4.567,4.567,0,0,1-2.126.461,4.485,4.485,0,0,1-1.82-.353,3.666,3.666,0,0,1-1.342-.99,4.314,4.314,0,0,1-.812-1.512,6.3,6.3,0,0,1-.285-1.926v-7.986Z" transform="translate(-568.835 133.929)" fill="#fff"></path>
  <path id="Path_501" data-name="Path 501" d="M848.029-104.487a1.406,1.406,0,0,1-.291.3.758.758,0,0,1-.413.1.9.9,0,0,1-.471-.14c-.149-.089-.325-.2-.522-.306a4.3,4.3,0,0,0-.7-.3,2.915,2.915,0,0,0-.993-.146,2.885,2.885,0,0,0-1.314.282,2.458,2.458,0,0,0-.922.783,3.537,3.537,0,0,0-.543,1.243,7.177,7.177,0,0,0-.174,1.648,4.87,4.87,0,0,0,.771,2.955,2.5,2.5,0,0,0,2.117,1.02,3.542,3.542,0,0,0,.795-.078,2.646,2.646,0,0,0,.592-.2,2.212,2.212,0,0,0,.429-.273c.125-.093.24-.182.346-.264a1.935,1.935,0,0,1,.336-.2.863.863,0,0,1,.371-.075.721.721,0,0,1,.61.292l.96,1.218a5.784,5.784,0,0,1-1.144,1.03,5.586,5.586,0,0,1-1.264.643,5.82,5.82,0,0,1-1.323.333,10.456,10.456,0,0,1-1.33.089,5.642,5.642,0,0,1-2.194-.433,5.158,5.158,0,0,1-1.816-1.26,6.1,6.1,0,0,1-1.238-2.036,7.765,7.765,0,0,1-.461-2.757,7.914,7.914,0,0,1,.406-2.555,5.98,5.98,0,0,1,1.179-2.058,5.608,5.608,0,0,1,1.936-1.354,6.744,6.744,0,0,1,2.669-.493,6.443,6.443,0,0,1,2.521.458,6.2,6.2,0,0,1,1.951,1.346Z" transform="translate(-603.624 134.431)" fill="#fff"></path>
  <path id="Path_502" data-name="Path 502" d="M890.8-105.422a2.122,2.122,0,0,1-.119.692,1.619,1.619,0,0,1-.32.537l-5.647,7.438h5.924v2.536h-9.816v-1.389a1.49,1.49,0,0,1,.119-.521,2.257,2.257,0,0,1,.319-.6l5.685-7.525h-5.768v-2.534H890.8Z" transform="translate(-634.283 133.929)" fill="#fff"></path>
  <path id="Path_503" data-name="Path 503" d="M926.46-96.915a3.288,3.288,0,0,0,1.452-.3,4.536,4.536,0,0,0,1.236-.925v-1.947a14.682,14.682,0,0,0-2.054.206,5.35,5.35,0,0,0-1.295.4,1.657,1.657,0,0,0-.683.55,1.226,1.226,0,0,0-.207.675,1.206,1.206,0,0,0,.412,1.038,1.884,1.884,0,0,0,1.139.306m4.425,2.068a1.623,1.623,0,0,1-.726-.129,1.011,1.011,0,0,1-.405-.565l-.267-.79c-.32.275-.624.519-.921.727a5.053,5.053,0,0,1-.931.519,4.821,4.821,0,0,1-1.021.324,5.9,5.9,0,0,1-1.2.114,4.9,4.9,0,0,1-1.513-.222,3.321,3.321,0,0,1-1.179-.65,2.932,2.932,0,0,1-.765-1.08,4.025,4.025,0,0,1-.264-1.484,2.985,2.985,0,0,1,.353-1.389,3.472,3.472,0,0,1,1.213-1.258,7.921,7.921,0,0,1,2.292-.94,15.667,15.667,0,0,1,3.6-.431v-.643a2.524,2.524,0,0,0-.5-1.737,1.835,1.835,0,0,0-1.436-.557,3.621,3.621,0,0,0-1.164.164,6.243,6.243,0,0,0-.806.351c-.236.135-.448.246-.652.359a1.456,1.456,0,0,1-.711.164.917.917,0,0,1-.589-.18,1.52,1.52,0,0,1-.394-.424l-.6-1.067a7.612,7.612,0,0,1,2.453-1.5,8.341,8.341,0,0,1,2.9-.489,5.216,5.216,0,0,1,2.006.364,4.221,4.221,0,0,1,1.5,1.019,4.379,4.379,0,0,1,.946,1.553,5.721,5.721,0,0,1,.334,1.979v7.9Z" transform="translate(-663.715 134.556)" fill="#fff"></path>
  <path id="Path_504" data-name="Path 504" d="M461.438-32.16a.185.185,0,0,1-.166.111.388.388,0,0,1-.22-.125,3.134,3.134,0,0,0-.355-.257,2.578,2.578,0,0,0-.569-.271,2.449,2.449,0,0,0-.835-.126,2.591,2.591,0,0,0-.877.144,1.883,1.883,0,0,0-.629.386,1.708,1.708,0,0,0-.387.566,1.748,1.748,0,0,0-.132.683,1.427,1.427,0,0,0,.2.77,1.8,1.8,0,0,0,.521.515,3.947,3.947,0,0,0,.735.361c.269.091.555.189.842.28s.567.206.838.313a3.219,3.219,0,0,1,.733.43,1.984,1.984,0,0,1,.522.641,2.044,2.044,0,0,1,.2.936,3.005,3.005,0,0,1-.2,1.08,2.6,2.6,0,0,1-.571.883,2.677,2.677,0,0,1-.922.588,3.278,3.278,0,0,1-1.235.219,3.535,3.535,0,0,1-1.56-.322,3.612,3.612,0,0,1-1.142-.874l.184-.284a.227.227,0,0,1,.177-.095.276.276,0,0,1,.153.078c.054.051.132.113.218.189a2.552,2.552,0,0,0,.31.241,1.893,1.893,0,0,0,.422.247,2.592,2.592,0,0,0,.542.2,2.986,2.986,0,0,0,.7.078,2.667,2.667,0,0,0,.97-.167,2.093,2.093,0,0,0,.721-.448,1.921,1.921,0,0,0,.446-.672,2.255,2.255,0,0,0,.158-.839,1.517,1.517,0,0,0-.2-.8,1.8,1.8,0,0,0-.521-.519,3.425,3.425,0,0,0-.735-.355q-.409-.14-.845-.273c-.284-.089-.569-.193-.839-.306a2.862,2.862,0,0,1-.735-.426,2.061,2.061,0,0,1-.522-.659,2.205,2.205,0,0,1-.193-.976,2.309,2.309,0,0,1,.175-.881,2.219,2.219,0,0,1,.507-.754,2.452,2.452,0,0,1,.834-.521,3,3,0,0,1,1.126-.2,3.413,3.413,0,0,1,1.273.226,3.051,3.051,0,0,1,1.028.69Z" transform="translate(-328.528 81.063)" fill="#fff"></path>
  <path id="Path_505" data-name="Path 505" d="M487.789-33.017v.563h-3.21v8.574h-.666v-8.574h-3.225v-.563Z" transform="translate(-346.145 80.806)" fill="#fff"></path>
  <path id="Path_506" data-name="Path 506" d="M516.681-28.709a5.185,5.185,0,0,0-.263-1.713,3.586,3.586,0,0,0-.753-1.293,3.154,3.154,0,0,0-1.157-.809,3.851,3.851,0,0,0-1.5-.284,3.837,3.837,0,0,0-1.492.284,3.227,3.227,0,0,0-1.165.809,3.743,3.743,0,0,0-.76,1.293,5.142,5.142,0,0,0-.262,1.713,5.126,5.126,0,0,0,.262,1.719,3.732,3.732,0,0,0,.76,1.291,3.088,3.088,0,0,0,1.165.805,3.879,3.879,0,0,0,1.492.282,3.893,3.893,0,0,0,1.5-.282,3.02,3.02,0,0,0,1.157-.805,3.575,3.575,0,0,0,.753-1.291,5.168,5.168,0,0,0,.263-1.719m.689,0a5.564,5.564,0,0,1-.318,1.918,4.382,4.382,0,0,1-.891,1.475,3.954,3.954,0,0,1-1.379.945,4.579,4.579,0,0,1-1.772.328,4.563,4.563,0,0,1-1.768-.328,3.9,3.9,0,0,1-1.377-.945,4.18,4.18,0,0,1-.888-1.475,5.4,5.4,0,0,1-.319-1.918,5.409,5.409,0,0,1,.319-1.912,4.175,4.175,0,0,1,.888-1.473,3.956,3.956,0,0,1,1.377-.945,4.481,4.481,0,0,1,1.768-.335,4.538,4.538,0,0,1,1.772.333,3.917,3.917,0,0,1,1.379.943,4.445,4.445,0,0,1,.891,1.478,5.572,5.572,0,0,1,.318,1.912" transform="translate(-366.286 81.064)" fill="#fff"></path>
  <path id="Path_507" data-name="Path 507" d="M544.365-33.017h.55a.23.23,0,0,1,.237.175l2.307,7.511q.069.256.129.586c.02-.1.042-.208.063-.31s.048-.193.078-.276l2.582-7.511a.309.309,0,0,1,.088-.12.239.239,0,0,1,.154-.056h.181a.218.218,0,0,1,.149.051.3.3,0,0,1,.093.124l2.583,7.511c.028.082.051.178.076.273a3.018,3.018,0,0,1,.071.3c.02-.1.042-.2.062-.3l.061-.273,2.306-7.511a.2.2,0,0,1,.087-.12.237.237,0,0,1,.159-.056h.5l-2.874,9.137h-.591l-2.7-7.926c-.034-.1-.062-.209-.092-.331-.023.122-.056.226-.086.331L547.83-23.88h-.585Z" transform="translate(-391.999 80.806)" fill="#fff"></path>
  <path id="Path_508" data-name="Path 508" d="M592.241-27.2h4.09l-1.858-4.614a4.111,4.111,0,0,1-.191-.543,2.446,2.446,0,0,1-.091.3,1.941,1.941,0,0,1-.087.253Zm6.111,3.318h-.511a.274.274,0,0,1-.15-.045.32.32,0,0,1-.088-.131L596.532-26.7h-4.487l-1.073,2.649a.253.253,0,0,1-.094.122.229.229,0,0,1-.151.053h-.5l3.737-9.137h.651Z" transform="translate(-425.023 80.807)" fill="#fff"></path>
  <path id="Path_509" data-name="Path 509" d="M626.489-28.5h1.583a3.7,3.7,0,0,0,1.086-.151,2.1,2.1,0,0,0,.811-.412,1.716,1.716,0,0,0,.51-.653,1.976,1.976,0,0,0,.173-.854,1.679,1.679,0,0,0-.633-1.444,3.043,3.043,0,0,0-1.86-.475h-1.668Zm0,.49v4.13h-.669v-9.137h2.337a3.8,3.8,0,0,1,2.36.612,2.128,2.128,0,0,1,.788,1.795,2.426,2.426,0,0,1-.184.954,2.284,2.284,0,0,1-.523.759,2.737,2.737,0,0,1-.821.534,3.638,3.638,0,0,1-1.078.275.993.993,0,0,1,.278.258l3.146,3.951h-.57a.383.383,0,0,1-.181-.036.363.363,0,0,1-.137-.129L628.3-27.751a1.511,1.511,0,0,0-.108-.129.551.551,0,0,0-.121-.078.684.684,0,0,0-.157-.039,1.441,1.441,0,0,0-.232-.013Z" transform="translate(-450.655 80.807)" fill="#fff"></path>
  <path id="Path_510" data-name="Path 510" d="M658.534-33.017v.229a.453.453,0,0,1-.094.264l-5.8,8.1h5.843v.548H651.76v-.237a.512.512,0,0,1,.019-.127,1.164,1.164,0,0,1,.058-.106l5.808-8.112h-5.719v-.555Z" transform="translate(-469.334 80.806)" fill="#fff"></path>
  <path id="Path_511" data-name="Path 511" d="M683.379-27.644v3.764h-.662v-3.764l-3.381-5.373h.581a.246.246,0,0,1,.152.047.367.367,0,0,1,.093.113l2.618,4.2c.056.1.107.2.154.291s.081.184.115.273a2.364,2.364,0,0,1,.122-.273c.046-.093.1-.189.154-.291l2.613-4.2a.286.286,0,0,1,.09-.111.266.266,0,0,1,.154-.049h.582Z" transform="translate(-489.192 80.807)" fill="#fff"></path>
  <path id="Path_512" data-name="Path 512" d="M713.926-32.16a.172.172,0,0,1-.164.111.409.409,0,0,1-.219-.125,2.728,2.728,0,0,0-.354-.257,2.531,2.531,0,0,0-.572-.271,2.421,2.421,0,0,0-.829-.126,2.538,2.538,0,0,0-.875.144,1.842,1.842,0,0,0-.635.386,1.7,1.7,0,0,0-.388.566,1.807,1.807,0,0,0-.13.683,1.419,1.419,0,0,0,.192.77,1.789,1.789,0,0,0,.526.515,4.058,4.058,0,0,0,.728.361c.275.091.555.189.845.28s.567.206.841.313a3.205,3.205,0,0,1,.736.43,2.066,2.066,0,0,1,.52.641,2.038,2.038,0,0,1,.2.936,2.994,2.994,0,0,1-.2,1.08,2.551,2.551,0,0,1-.573.883,2.616,2.616,0,0,1-.919.588,3.291,3.291,0,0,1-1.236.219,3.52,3.52,0,0,1-1.555-.322,3.532,3.532,0,0,1-1.146-.874l.186-.284a.211.211,0,0,1,.178-.095.256.256,0,0,1,.144.078c.064.051.139.113.222.189a2.917,2.917,0,0,0,.313.241,1.9,1.9,0,0,0,.416.247,2.644,2.644,0,0,0,.552.2,2.9,2.9,0,0,0,.7.078,2.687,2.687,0,0,0,.967-.167,2.084,2.084,0,0,0,.72-.448,1.8,1.8,0,0,0,.446-.672,2.18,2.18,0,0,0,.159-.839,1.5,1.5,0,0,0-.2-.8,1.748,1.748,0,0,0-.522-.519,3.321,3.321,0,0,0-.733-.355c-.272-.093-.556-.184-.841-.273s-.57-.193-.846-.306a2.872,2.872,0,0,1-.728-.426,1.98,1.98,0,0,1-.523-.659,2.119,2.119,0,0,1-.193-.976,2.371,2.371,0,0,1,.171-.881,2.1,2.1,0,0,1,.511-.754,2.493,2.493,0,0,1,.83-.521,3.019,3.019,0,0,1,1.122-.2,3.408,3.408,0,0,1,1.277.226,3.129,3.129,0,0,1,1.032.69Z" transform="translate(-510.35 81.063)" fill="#fff"></path>
  <path id="Path_513" data-name="Path 513" d="M740.868-33.017v.229a.483.483,0,0,1-.092.264l-5.8,8.1h5.841v.548h-6.724v-.237a.34.34,0,0,1,.022-.127.6.6,0,0,1,.057-.106l5.81-8.112h-5.72v-.555Z" transform="translate(-528.624 80.806)" fill="#fff"></path>
  <path id="Path_514" data-name="Path 514" d="M771.511-33.017v.555H766.7v3.687h4.006v.539H766.7v3.808h4.829l-.021.548h-5.472v-9.137Z" transform="translate(-551.627 80.806)" fill="#fff"></path>
  <path id="Path_515" data-name="Path 515" d="M794.409-32.992a.286.286,0,0,1,.109.1l5.917,7.915a3.562,3.562,0,0,1-.018-.375v-7.666h.574v9.137h-.31a.238.238,0,0,1-.134-.029.291.291,0,0,1-.112-.1l-5.931-7.917a3.537,3.537,0,0,1,.021.357v7.693h-.585v-9.137h.331a.305.305,0,0,1,.137.024" transform="translate(-571.719 80.806)" fill="#fff"></path>
  <path id="Path_516" data-name="Path 516" d="M829.936-23.88h.666v-9.137h-.666Z" transform="translate(-597.639 80.807)" fill="#fff" fill-rule="evenodd"></path>
  <path id="Path_517" data-name="Path 517" d="M848.566-33.017v.555h-4.808v3.687h4v.539h-4v3.808h4.822l-.013.548H843.09v-9.137Z" transform="translate(-607.111 80.806)" fill="#fff"></path>
  <path id="Path_518" data-name="Path 518" d="M109.168-150.874H60.433v-48.74h48.735Zm-62.542-23.9C46.553-174.7,29.845-158,29.845-158S17.438-170.37,13.322-174.518c-.1-.1-.859-.958-1.126-1.294a9.267,9.267,0,0,1-1.909-5.811,9.841,9.841,0,0,1,9.849-9.837,9.819,9.819,0,0,1,9.7,8.3,9.84,9.84,0,0,1,9.715-8.3,9.841,9.841,0,0,1,9.846,9.837,9.387,9.387,0,0,1-1.9,5.811c-.208.265-.634.795-.868,1.039M0-146.726H113.318v-57.031H0Z" transform="translate(0 203.757)" fill="#fff"></path>
  <path id="Path_519" data-name="Path 519" d="M246.907-124.514l21.736-21.67-11.072-11.076-10.664,10.6-10.62-10.6-11.072,11.076Z" transform="translate(-162.178 170.274)" fill="#fff"></path>
</svg>
