<?xml version="1.0" encoding="UTF-8"?>
<svg xmlns="http://www.w3.org/2000/svg" width="273.28" height="57.031" viewBox="0 0 273.28 57.031">
  <g id="Group_358" data-name="Group 358" transform="translate(0)">
    <path id="Path_520" data-name="Path 520" d="M43.657-201.837c-4.741,0-8.88,1.367-9.933,6.3H33.2c-1.053-4.936-5.192-6.3-9.933-6.3H0v11.467H23.87c3.461,0,4.816.912,4.816,3.873v2.506h9.553V-186.5c0-2.961,1.354-3.873,4.816-3.873h23.87v-11.467Z" transform="translate(0 202.374)" fill="#fff"></path>
    <path id="Path_521" data-name="Path 521" d="M43.657-132.8c-4.741,0-8.88,1.367-9.933,6.3H33.2c-1.053-4.936-5.192-6.3-9.933-6.3H0v11.466H23.87c3.461,0,4.816.912,4.816,3.873v2.506h9.553v-2.506c0-2.961,1.354-3.873,4.816-3.873h23.87V-132.8Z" transform="translate(0 152.659)" fill="#fff"></path>
    <path id="Path_522" data-name="Path 522" d="M43.657-63.757c-4.741,0-8.88,1.367-9.933,6.3H33.2c-1.053-4.936-5.192-6.3-9.933-6.3H0v11.467H23.87c3.461,0,4.816.912,4.816,3.873v2.506h9.553v-2.506c0-2.961,1.354-3.873,4.816-3.873h23.87V-63.757Z" transform="translate(0 102.943)" fill="#fff"></path>
    <path id="Path_523" data-name="Path 523" d="M347.1-200.577v12.465H311.071v6.369h35.27v12.533h-35.27v19.588H291.826v-50.954Z" transform="translate(-210.145 201.467)" fill="#fff"></path>
    <path id="Path_524" data-name="Path 524" d="M567.186-200.577v12.465H530v6.369h36.435v12.4H530v6.985h37.736v12.739H510.822v-50.954Z" transform="translate(-367.844 201.467)" fill="#fff"></path>
    <path id="Path_525" data-name="Path 525" d="M761.3-150.955c-28.148,0-31.094-11.437-31.094-18.08v-.685h21.368c.205,2.739,1.644,7.191,12.739,7.191h.616c10.89,0,12.465-2.328,12.465-4.794v-.068c0-2.6-1.3-4.247-11.986-4.589l-9.451-.274c-19.724-.548-25-7.465-25-15.341v-.616c0-8.286,5.548-15.546,29.312-15.546h6.1c25.2,0,30.956,8.013,30.956,16.094v.548H776.159c-.206-1.849-1.3-5.411-12.328-5.411h-.685c-10.2,0-11.231,1.78-11.231,3.767v.068c0,2.055,1.507,3.7,11.1,3.9l9.176.205c19.381.548,26.916,5.068,26.916,15.342v.959c0,8.56-4.794,17.326-31.572,17.326Z" transform="translate(-525.822 203.757)" fill="#fff"></path>
  </g>
</svg>
