<?xml version="1.0" encoding="UTF-8"?>
<svg xmlns="http://www.w3.org/2000/svg" width="164.282" height="38.74" viewBox="0 0 164.282 38.74">
  <g id="Group_379" data-name="Group 379" transform="translate(0 38.74)">
    <path id="Path_535" data-name="Path 535" d="M63.9-17.9H58.584V-19.08h6.6v.837c0,4.085-2.35,6.714-6.211,6.714a6.68,6.68,0,0,1-6.938-6.993,6.742,6.742,0,0,1,6.995-7.05,6.518,6.518,0,0,1,4.924,1.79l-.727.951a5.946,5.946,0,0,0-4.2-1.567,5.521,5.521,0,0,0-5.706,5.82,5.492,5.492,0,0,0,5.6,5.819,4.657,4.657,0,0,0,4.924-4.98V-17.9Z" fill="#fff"></path>
    <path id="Path_536" data-name="Path 536" d="M73.468-25.347H73.8L80.35-11.918H78.9L77.607-14.5H69.663l-1.289,2.577H66.921Zm.28,2.63h-.168l-3.134,6.829-.112.223h6.715l-.112-.223Z" fill="#fff"></path>
    <path id="Path_537" data-name="Path 537" d="M82.252-12.2l8.617-11.918H82.475v-1.23H92.938v.336l-8.5,11.918h8.281v1.175H82.252Z" fill="#fff"></path>
    <path id="Path_538" data-name="Path 538" d="M105.361-17.906h-7.44v4.812h8.449v1.175H96.632V-25.347h9.735v1.175H97.921v5.036h7.442Z" fill="#fff"></path>
    <path id="Path_539" data-name="Path 539" d="M108.774-25.347h10.855v1.175h-4.812v12.254h-1.231v-12.2h-4.812Z" fill="#fff"></path>
    <path id="Path_540" data-name="Path 540" d="M126.288-25.347h.336l6.546,13.429h-1.454L130.427-14.5h-7.944l-1.288,2.577h-1.454Zm.28,2.63H126.4l-3.134,6.829-.112.223h6.715l-.112-.223Z" fill="#fff"></path>
    <path id="Path_541" data-name="Path 541" d="M135.856-13.6a.947.947,0,0,1,.934.942.947.947,0,0,1-.942.943.948.948,0,0,1-.943-.943.945.945,0,0,1,.276-.666A.952.952,0,0,1,135.856-13.6Z" fill="#fff"></path>
    <path id="Path_542" data-name="Path 542" d="M140.444-25.347h5.372c3.357,0,5.315,1.511,5.315,4.42,0,3.021-2.07,4.588-5.371,4.588h-4.028v4.42h-1.288Zm5.372,1.231h-4.084v6.658h4.085c2.462,0,4.028-1.007,4.028-3.357C149.844-23.11,148.222-24.116,145.816-24.116Z" fill="#fff"></path>
    <path id="Path_543" data-name="Path 543" d="M154.992-11.918V-25.347h1.289v12.254h8v1.175Z" fill="#fff"></path>
    <path id="Path_544" data-name="Path 544" d="M13.429-32.621a6.166,6.166,0,0,1,6.137-6.119A6.166,6.166,0,0,1,25.7-32.6a6.166,6.166,0,0,1-6.137,6.137,6.139,6.139,0,0,1-4.339-1.8A6.157,6.157,0,0,1,13.429-32.621ZM33.572-12.478a6.166,6.166,0,0,0,6.119-6.137,6.166,6.166,0,0,0-6.137-6.137,6.166,6.166,0,0,0-6.137,6.137,6.139,6.139,0,0,0,1.8,4.34A6.157,6.157,0,0,0,33.572-12.478ZM5.6-13.037a5.622,5.622,0,0,0,5.6-5.6,5.622,5.622,0,0,0-5.6-5.6,5.622,5.622,0,0,0-5.6,5.6A5.622,5.622,0,0,0,5.6-13.037Zm0-14.548A5.039,5.039,0,0,0,10.59-32.6a5.039,5.039,0,0,0-5.015-5.015A5.039,5.039,0,0,0,.559-32.6a5.017,5.017,0,0,0,1.469,3.547A5.038,5.038,0,0,0,5.6-27.586ZM33.572,0a4.6,4.6,0,0,0,4.559-4.574,4.6,4.6,0,0,0-4.574-4.574,4.6,4.6,0,0,0-4.574,4.574,4.576,4.576,0,0,0,1.34,3.235A4.617,4.617,0,0,0,33.572,0Zm0-29.544a3.092,3.092,0,0,0,3.078-3.077A3.092,3.092,0,0,0,33.572-35.7,3.092,3.092,0,0,0,30.5-32.621,3.092,3.092,0,0,0,33.572-29.544ZM5.6-1.567A3.092,3.092,0,0,0,8.673-4.644,3.092,3.092,0,0,0,5.6-7.722,3.092,3.092,0,0,0,2.518-4.644,3.092,3.092,0,0,0,5.6-1.567Zm13.99-13.149a3.911,3.911,0,0,0,3.869-3.892A3.911,3.911,0,0,0,19.561-22.5a3.911,3.911,0,0,0-3.892,3.892,3.894,3.894,0,0,0,1.14,2.752A3.918,3.918,0,0,0,19.585-14.716Zm0,14.157a4.078,4.078,0,0,0,4.028-4.085v-.017A4.031,4.031,0,0,0,19.6-8.673h-.017A4.078,4.078,0,0,0,15.5-4.644,4.163,4.163,0,0,0,19.585-.56Z" fill="#fff"></path>
  </g>
</svg>
