<svg xmlns="http://www.w3.org/2000/svg" width="57.705" height="51.046" viewBox="0 0 57.705 51.046" style="fill:#ffffff">
  <g id="Group_110" data-name="Group 110" transform="translate(0 0)">
    <path id="Path_1" data-name="Path 1" d="M27.234-50.724a18.576,18.576,0,0,1-5.536-5.7c-2.187-3.972-2-7.94.192-9.926a5.874,5.874,0,0,1,8.393.814,5.874,5.874,0,0,1,8.393-.814c2.191,1.986,2.38,5.954.192,9.926a18.577,18.577,0,0,1-5.536,5.7H56.5v1.837H3.342v-1.837Zm3.049-.159c2.675-1.667,5.737-4.016,6.96-6.392l.012-.023A9.807,9.807,0,0,0,38.6-61.922a4,4,0,0,0-1.157-3.064,4.141,4.141,0,0,0-6.356,1.525.918.918,0,0,1-.8.475.918.918,0,0,1-.8-.475,4.141,4.141,0,0,0-6.356-1.525,4,4,0,0,0-1.156,3.064A9.809,9.809,0,0,0,23.31-57.3l.012.023C24.546-54.9,27.608-52.551,30.283-50.884Z" transform="translate(-0.824 67.744)" fill-rule="evenodd"/>
    <g id="Group_109" data-name="Group 109" transform="translate(0 24.745)">
      <path id="Path_2" data-name="Path 2" d="M2.607-25.038A2.58,2.58,0,0,0,5.4-27.881v-6.15H3.1v5.71c0,.96-.235,1.237-.8,1.237a2.23,2.23,0,0,1-1.34-.495L0-25.7A5.854,5.854,0,0,0,2.607-25.038Z" transform="translate(0 34.689)"/>
      <path id="Path_3" data-name="Path 3" d="M15.279-27.656A2.976,2.976,0,0,0,12-30.915a3.175,3.175,0,0,0-3.489,3.337c0,2.1,1.358,3.308,3.561,3.308a3.022,3.022,0,0,0,3.138-2.125l-2.028-.26a1.084,1.084,0,0,1-1.123.683,1.268,1.268,0,0,1-1.364-1.178h4.563Zm-3.271-1.739a1.053,1.053,0,0,1,1.111.852H10.753A1.122,1.122,0,0,1,12.008-29.395Z" transform="translate(-2.097 33.921)"/>
      <path id="Path_4" data-name="Path 4" d="M21.127-24.266c1.473,0,2.806-.531,2.806-2.064,0-1.382-1.074-1.865-2.052-2.137-.791-.223-1.521-.284-1.521-.664,0-.235.272-.35.67-.35a.957.957,0,0,1,.978.646l1.666-.362c-.272-1.261-1.358-1.7-2.643-1.7-1.533,0-2.662.627-2.662,1.973a1.782,1.782,0,0,0,1.34,1.744c1,.4,2.112.4,2.112,1,0,.344-.362.423-.682.423a1.05,1.05,0,0,1-1.1-.791l-1.817.507C18.472-24.8,19.643-24.266,21.127-24.266Z" transform="translate(-4.492 33.917)"/>
      <path id="Path_5" data-name="Path 5" d="M29.64-25.007H31v-1.641h-.567c-.435,0-.658-.211-.658-.755v-2.325H31V-31.4H29.773v-2.016h-1.72c0,1.6-.392,2.016-1.738,2.016v1.671h1.219v2.572A1.923,1.923,0,0,0,29.64-25.007Z" transform="translate(-6.486 34.537)"/>
      <path id="Path_7" data-name="Path 7" d="M45.354-32.52H46.67l1.37-1.642L46.99-34.9Zm.694,7.267c1.473,0,2.806-.531,2.806-2.064,0-1.382-1.074-1.865-2.052-2.137-.791-.223-1.521-.284-1.521-.664,0-.235.272-.35.67-.35a.957.957,0,0,1,.978.646l1.666-.362c-.272-1.261-1.358-1.7-2.643-1.7-1.533,0-2.662.627-2.662,1.973a1.782,1.782,0,0,0,1.34,1.744c1,.4,2.112.4,2.112,1,0,.344-.362.423-.682.423a1.05,1.05,0,0,1-1.1-.791l-1.817.507C43.393-25.784,44.564-25.253,46.048-25.253Z" transform="translate(-10.635 34.904)"/>
      <path id="Path_8" data-name="Path 8" d="M60.112-30.9a2.453,2.453,0,0,0-2.04.911,2.237,2.237,0,0,0-2.058-.911,2.4,2.4,0,0,0-1.919.851v-.73H51.909v6.391h2.185v-3.265c0-1.22.567-1.509,1.111-1.509a.808.808,0,0,1,.881.881v3.893h2.221v-3.386c0-1.1.561-1.388,1.117-1.388a.806.806,0,0,1,.863.881v3.893h2.2v-4.539C62.49-30.223,61.584-30.9,60.112-30.9Z" transform="translate(-12.795 33.917)"/>
      <path id="Path_9" data-name="Path 9" d="M72.113-30.739v3.217c0,1.159-.652,1.43-1.31,1.43a.87.87,0,0,1-.99-.936v-3.712H67.6v4.176c0,1.4.815,2.215,2.481,2.215a2.773,2.773,0,0,0,2.028-.767v.815c0,.978-.4,1.335-1.249,1.335-.8,0-1.231-.193-1.5-.96l-1.919.767c.447,1.014,1.346,1.816,3.422,1.816,2.2,0,3.464-.941,3.464-3.573v-5.824Z" transform="translate(-16.624 33.877)"/>
      <path id="Path_15" data-name="Path 15" d="M51.351-12.255a2.745,2.745,0,0,0-2.04.785v-.664h-2.2v6.391h2.2V-9.081c.012-1.159.67-1.436,1.322-1.436a.872.872,0,0,1,.99.942v3.833h2.215v-4.3C53.837-11.441,53.022-12.255,51.351-12.255Z" transform="translate(-11.613 29.321)"/>
      <path id="Path_16" data-name="Path 16" d="M64.671-5.743v-6.391h-2.2v.543a2.314,2.314,0,0,0-1.781-.664,3.082,3.082,0,0,0-3.127,3.338A3.086,3.086,0,0,0,60.688-5.58a2.212,2.212,0,0,0,1.859-.773l.048.61h1.225c-.76.682-1.4,1.455-1.4,2,0,.495.591.718,1.237.718a2.71,2.71,0,0,0,1.014-.2V-4.541a1.213,1.213,0,0,1-.754.284c-.175,0-.3-.048-.3-.187C63.621-4.741,64.165-5.321,64.671-5.743ZM61.207-7.385a1.407,1.407,0,0,1-1.443-1.533,1.4,1.4,0,0,1,1.443-1.533,1.408,1.408,0,0,1,1.449,1.533A1.411,1.411,0,0,1,61.207-7.385Z" transform="translate(-14.188 29.321)"/>
      <path id="Path_37" data-name="Path 37" d="M69.412-9.545h2.227v-5.842H69.412Zm1.116,3.151a1.187,1.187,0,0,0,1.195-1.183,1.191,1.191,0,0,0-1.195-1.2,1.19,1.19,0,0,0-1.189,1.2A1.186,1.186,0,0,0,70.528-6.394Z" transform="translate(-17.091 30.094)"/>
      <path id="Path_38" data-name="Path 38" d="M43.07-13.692a1.2,1.2,0,0,0,1.189-1.2,1.194,1.194,0,0,0-1.189-1.183,1.2,1.2,0,0,0-1.213,1.183A1.207,1.207,0,0,0,43.07-13.692ZM41.947-6.685h2.209v-6.391H41.947Z" transform="translate(-10.317 30.263)"/>
      <path id="Path_39" data-name="Path 39" d="M40.2-27.656a2.976,2.976,0,0,0-3.283-3.259,3.175,3.175,0,0,0-3.489,3.337c0,2.1,1.358,3.308,3.561,3.308a3.022,3.022,0,0,0,3.138-2.125l-2.028-.26a1.084,1.084,0,0,1-1.123.683,1.268,1.268,0,0,1-1.364-1.178h4.563Zm-3.271-1.739a1.053,1.053,0,0,1,1.111.852H35.674A1.122,1.122,0,0,1,36.929-29.395Z" transform="translate(-8.24 33.921)"/>
      <path id="Path_40" data-name="Path 40" d="M6.683-11.171v-.948h-2.1v6.392H6.8V-8.654c0-1.3.579-1.611,2-1.611v-1.925A2.715,2.715,0,0,0,6.683-11.171Z" transform="translate(-1.13 29.306)"/>
      <path id="Path_41" data-name="Path 41" d="M14.863-5.622c2.179,0,3.688-1.207,3.688-3.32s-1.5-3.313-3.688-3.313c-2.173,0-3.67,1.207-3.67,3.313S12.7-5.622,14.863-5.622Zm-.024-1.713a1.451,1.451,0,0,1-1.455-1.606,1.453,1.453,0,0,1,1.455-1.612A1.473,1.473,0,0,1,16.36-8.942,1.471,1.471,0,0,1,14.839-7.336Z" transform="translate(-2.759 29.321)"/>
      <path id="Path_42" data-name="Path 42" d="M27-15.916v3.422a2.313,2.313,0,0,0-1.781-.664A3.082,3.082,0,0,0,22.09-9.82a3.086,3.086,0,0,0,3.127,3.338,2.212,2.212,0,0,0,1.859-.773l.048.61H29.2v-9.271ZM25.736-8.287A1.407,1.407,0,0,1,24.294-9.82a1.4,1.4,0,0,1,1.443-1.533A1.408,1.408,0,0,1,27.185-9.82,1.411,1.411,0,0,1,25.736-8.287Z" transform="translate(-5.445 30.224)"/>
      <path id="Path_43" data-name="Path 43" d="M38.577-12.1H33.3v1.671h2.215L33.067-5.7h5.365V-7.369H36.109Z" transform="translate(-8.151 29.282)"/>
    </g>
  </g>
</svg>
