<?xml version="1.0" encoding="UTF-8"?>
<svg xmlns="http://www.w3.org/2000/svg" width="130" height="46.115" viewBox="0 0 130 46.115">
  <g id="Group_332" data-name="Group 332" transform="translate(-535 -1013.075)">
    <path id="Path_253" data-name="Path 253" d="M61.771-26.121c-5.615-4.069-11-9.019-13.54-13.931-5.349-9.714-4.888-19.419.47-24.276a14.365,14.365,0,0,1,20.527,1.992,14.365,14.365,0,0,1,20.527-1.992c5.358,4.857,5.82,14.562.47,24.276-2.542,4.912-7.925,9.862-13.54,13.931h56.657v4.492h-130v-4.492Zm7.457-.39c6.543-4.078,14.03-9.821,17.022-15.632l.03-.057a23.985,23.985,0,0,0,3.287-11.306c0-3.074-.891-5.738-2.828-7.494-3.9-3.533-11.646-3.335-15.544,3.731a2.246,2.246,0,0,1-1.967,1.161,2.246,2.246,0,0,1-1.967-1.161c-3.9-7.066-11.646-7.264-15.544-3.731-1.938,1.756-2.828,4.421-2.828,7.494A23.988,23.988,0,0,0,52.176-42.2l.03.057C55.2-36.332,62.686-30.588,69.228-26.511Z" transform="translate(531.658 1080.819)" fill-rule="evenodd"></path>
  </g>
</svg>
