<svg xmlns="http://www.w3.org/2000/svg" fill="none" viewBox="0 0 28 28" id="svg_ch_win_qoq" width="100%" height="100%"><defs><linearGradient gradientUnits="userSpaceOnUse" id="sf_a" x1="8.692" x2="19.009" y1="3.551" y2="23.885"><stop stop-color="#FFB18E"></stop><stop offset="1" stop-color="#FF77A4"></stop></linearGradient></defs><g><path d="M14 28c7.732 0 14-6.268 14-14S21.732 0 14 0 0 6.268 0 14s6.268 14 14 14z" fill="#FBD3DC"></path><path d="M14 26c6.627 0 12-5.373 12-12S20.627 2 14 2 2 7.373 2 14s5.373 12 12 12z" fill="url(#sf_a)"></path><path d="M8.91 18H18.8c.13 0 .258-.106.31-.239l1.88-6.135c.052-.186-.129-.372-.31-.266l-3.477 1.78-2.988-5.02c-.103-.16-.335-.16-.464 0l-3.246 5.02-3.22-1.807c-.154-.08-.309.053-.283.213l1.545 6.188c.078.16.207.266.361.266z" fill="#FBD5DA"></path><path clip-rule="evenodd" d="M13.363 7.805c.305-.376.953-.452 1.273.043l.005.008 2.753 4.625 3.05-1.561a.695.695 0 01.819.096.743.743 0 01.21.743l-.004.013-1.886 6.153-.006.017c-.106.272-.389.558-.776.558H8.91c-.412 0-.683-.284-.81-.547l-.023-.047-1.563-6.26-.004-.02a.706.706 0 01.258-.669.69.69 0 01.748-.068l.008.004 2.818 1.58 3.006-4.647.016-.02zm.613.89l-3.305 5.11-3.01-1.688L9.005 17.5h9.663l1.653-5.394-3.306 1.692-3.039-5.104z" fill-rule="evenodd" fill="#fff"></path><path d="M7 12a1 1 0 100-2 1 1 0 000 2z" fill="#FBD5DA"></path><path clip-rule="evenodd" d="M9 11a2 2 0 11-4 0 2 2 0 014 0zm-1 0a1 1 0 11-2 0 1 1 0 012 0z" fill-rule="evenodd" fill="#fff"></path><path d="M14 8a1 1 0 100-2 1 1 0 000 2z" fill="#FBD5DA"></path><path clip-rule="evenodd" d="M16 7a2 2 0 11-4 0 2 2 0 014 0zm-1 0a1 1 0 11-2 0 1 1 0 012 0z" fill-rule="evenodd" fill="#fff"></path><path d="M21 12a1 1 0 100-2 1 1 0 000 2z" fill="#FBD5DA"></path><path clip-rule="evenodd" d="M23 11a2 2 0 11-4 0 2 2 0 014 0zm-1 0a1 1 0 11-2 0 1 1 0 012 0z" fill-rule="evenodd" fill="#fff"></path><path d="M9 20.5a.5.5 0 01.5-.5h9a.5.5 0 010 1h-9a.5.5 0 01-.5-.5z" fill="#FBD5DA"></path><path clip-rule="evenodd" d="M9.5 19h9a1.5 1.5 0 010 3h-9a1.5 1.5 0 010-3zm0 1a.5.5 0 000 1h9a.5.5 0 000-1h-9z" fill-rule="evenodd" fill="#fff"></path></g></svg>