<svg xmlns="http://www.w3.org/2000/svg" width="470.87" height="40" viewBox="0 0 470.87 40"><polygon points="197.34 2.49 192.53 19.29 192.37 19.29 187.73 2.49 173.65 2.49 173.65 6.55 176.54 7.26 176.54 26.68 173.65 27.4 173.65 31.45 184.43 31.45 184.43 27.4 181.97 26.73 181.97 9.61 182.13 9.61 188.44 31.14 194.12 31.14 200.38 9.39 200.55 9.39 200.55 26.73 198.13 27.4 198.13 31.45 211.75 31.45 211.75 27.4 208.78 26.68 208.78 7.26 211.75 6.55 211.75 2.49 197.34 2.49" fill="#fff"/><path d="M211.88,20.46c0-7.68,5.08-11.78,11.53-11.78,7.43,0,11.55,4.18,11.55,11.48C235,27.82,229.87,32,223.44,32c-7.47,0-11.56-4.45-11.56-11.51m15,0c0-5.76-1.42-7.22-3.51-7.22s-3.43,1.29-3.43,6.92,1.42,7.24,3.55,7.24,3.39-1.42,3.39-6.94" fill="#fff"/><path d="M80,20.46c0-7.68,5.1-11.78,11.53-11.78,7.44,0,11.57,4.18,11.57,11.48,0,7.66-5.11,11.81-11.52,11.81C84.05,32,80,27.52,80,20.46m15,0c0-5.76-1.42-7.22-3.51-7.22S88,14.53,88,20.16s1.41,7.24,3.54,7.24S95,26,95,20.46" fill="#fff"/><path d="M236.1,27.64l2.44-.58V14.23l-2.5-.66V9.68l9.19-.95.63.26v3.34h.26a6.57,6.57,0,0,1,5.55-3.59,5.15,5.15,0,0,1,1.18.15v6.76a9.47,9.47,0,0,0-2-.21,11,11,0,0,0-4.72.83V27.06l3.09.58v3.8H236.1Z" fill="#fff"/><path d="M269.76,34.86c0-2.45,2.18-3.83,4.68-4.5v-.21a3.57,3.57,0,0,1-2.92-3.59c0-1.8,1.42-3.55,3.22-4.72a6.22,6.22,0,0,1-3.43-5.64c0-4.88,4-7.52,9.78-7.52a13.88,13.88,0,0,1,4.74.71l7.16-1v4.52l-3-.13a5.09,5.09,0,0,1,.95,3c0,4.89-3.89,7.52-9.77,7.52a14.58,14.58,0,0,1-3.09-.3,2,2,0,0,0-.5,1.22c0,.54.38,1.13,1.54,1.13h7.23c3.83,0,6.89,1.67,6.89,6.1,0,4.65-3.77,8.56-12.86,8.56-7.11,0-10.58-2.13-10.58-5.1m16.41-1.71c0-1.22-.7-1.59-2.62-1.59h-5.27a2.13,2.13,0,0,0-1.45,2c0,1.23,1.09,2.1,4.09,2.1,3.89,0,5.25-1.23,5.25-2.56m-2.37-17.09c0-2.91-1.22-3.58-2.68-3.58s-2.54.81-2.54,3.43,1.12,3.66,2.59,3.66,2.63-.88,2.63-3.51" fill="#fff"/><path d="M293.83,25.9c0-4.39,3.09-5.82,8.14-6.74l3.88-.75V17.33c0-2.27-.83-3.1-4.17-3.1a40.69,40.69,0,0,0-5.73.42V10.23a29,29,0,0,1,9.36-1.55C311,8.68,313.5,11,313.5,16V26c0,1,.66,1.33,1.5,1.33h.66V31a9.42,9.42,0,0,1-4.46,1c-2.44,0-3.89-.74-4.51-2.59h-.22a7.55,7.55,0,0,1-6,2.64c-4,0-6.6-2.5-6.6-6.11m12,.83V21.92l-2,.06c-1.71.12-2.43,1-2.43,2.8s.67,2.75,2.24,2.75a3.31,3.31,0,0,0,2.17-.83" fill="#fff"/><path d="M315.05,34.86c0-2.45,2.16-3.83,4.68-4.5v-.21a3.56,3.56,0,0,1-2.91-3.59c0-1.8,1.42-3.55,3.21-4.72a6.24,6.24,0,0,1-3.42-5.64c0-4.88,4-7.52,9.77-7.52a14.33,14.33,0,0,1,4.73.71l7.13-1v4.52l-3-.13a5.09,5.09,0,0,1,1,3c0,4.89-3.89,7.52-9.78,7.52a14.58,14.58,0,0,1-3.09-.3,2,2,0,0,0-.5,1.22c0,.54.37,1.13,1.55,1.13h7.22c3.86,0,6.89,1.67,6.89,6.1,0,4.65-3.74,8.56-12.86,8.56-7.1,0-10.56-2.13-10.56-5.1m16.41-1.71c0-1.22-.71-1.59-2.63-1.59h-5.27a2.14,2.14,0,0,0-1.46,2c0,1.23,1.08,2.1,4.09,2.1,3.89,0,5.27-1.23,5.27-2.56M329.15,16c0-2.91-1.22-3.58-2.68-3.58s-2.62.81-2.62,3.43,1.13,3.66,2.58,3.66,2.68-.88,2.68-3.51" fill="#fff"/><path d="M338.1,20.25c0-7.33,4.51-11.57,11.28-11.57s10.14,3.44,10.14,12.78H346.08c.42,3.93,2.51,5.3,6.12,5.3a19.18,19.18,0,0,0,6.38-1v4A14.68,14.68,0,0,1,350.11,32c-7.82,0-11.91-4.22-11.91-11.74m14-2.59c0-3.46-1.23-4.51-2.8-4.51s-3,1-3.27,4.76Z" fill="#fff"/><polygon points="365.73 27.4 368.62 26.68 368.62 7.26 365.73 6.55 365.73 2.49 377.54 2.49 386.95 18.91 387.16 18.91 387.16 7.3 384.23 6.55 384.23 2.49 395.21 2.49 395.21 6.55 392.66 7.26 392.66 31.45 385.15 31.45 374.33 12.15 374.12 12.15 374.12 26.73 377.08 27.4 377.08 31.45 365.73 31.45 365.73 27.4" fill="#fff"/><path d="M394.77,20.25c0-7.33,4.51-11.57,11.27-11.57s10.15,3.44,10.15,12.78H402.77c.42,3.93,2.51,5.3,6.11,5.3a19.28,19.28,0,0,0,6.39-1v4a14.62,14.62,0,0,1-8.5,2.16c-7.83,0-11.91-4.22-11.91-11.74m14-2.59c0-3.46-1.22-4.51-2.79-4.51s-3,1-3.27,4.76Z" fill="#fff"/><polygon points="418.27 13.53 416.56 12.95 416.56 9.14 427.75 9.14 427.75 12.95 425.9 13.45 428.25 22.46 428.42 22.46 432.35 9.14 437.69 9.14 441.63 22.46 441.79 22.46 444.07 13.45 442.29 12.95 442.29 9.14 451.43 9.14 451.43 12.95 449.72 13.53 444.37 31.45 437.78 31.45 434.14 18.91 434.02 18.91 430.26 31.45 423.62 31.45 418.27 13.53" fill="#fff"/><path d="M452.52,30.57l-.38-6.12h4.74l.83,2.45a6.37,6.37,0,0,0,2.91.67c1.8,0,2.93-.71,2.93-2s-.72-1.67-2.67-2.17l-2.44-.59c-4.12-.84-6.35-2.77-6.35-6.73,0-4.35,3-7.48,9.93-7.48a21,21,0,0,1,7.4,1.23v5.78h-4.6l-.51-2.19a4.85,4.85,0,0,0-2.51-.54c-1.62,0-2.88.5-2.88,1.74s.76,1.68,3,2.18l2.71.62c4.48,1,6.24,3.26,6.24,6.65,0,4.72-3.1,7.89-10.54,7.89a22.46,22.46,0,0,1-7.82-1.43" fill="#fff"/><polygon points="0 27.39 2.88 26.68 2.88 7.26 0 6.55 0 2.49 11.81 2.49 21.21 18.9 21.42 18.9 21.42 7.3 18.5 6.55 18.5 2.49 29.48 2.49 29.48 6.55 26.93 7.26 26.93 31.43 19.42 31.43 8.61 12.15 8.39 12.15 8.39 26.71 11.35 27.39 11.35 31.43 0 31.43 0 27.39" fill="#fff"/><path d="M28.85,25.9c0-4.39,3.09-5.82,8.15-6.74l3.89-.75V17.33c0-2.27-.85-3.1-4.18-3.1a40.69,40.69,0,0,0-5.73.42V10.23a28.88,28.88,0,0,1,9.35-1.55C46,8.68,48.51,11,48.51,16V26c0,1,.67,1.34,1.5,1.34h.67V31a9.46,9.46,0,0,1-4.47,1c-2.45,0-3.88-.73-4.5-2.58h-.16A7.61,7.61,0,0,1,35.43,32c-4,0-6.6-2.51-6.6-6.1m12,.83V21.92l-2,.09c-1.71.12-2.45,1-2.45,2.8s.68,2.75,2.27,2.75a3.33,3.33,0,0,0,2.17-.83" fill="#fff"/><path d="M130,25.9c0-4.39,3.09-5.82,8.15-6.74l3.89-.75V17.33c0-2.27-.84-3.1-4.19-3.1a42.22,42.22,0,0,0-5.72.42V10.23a29,29,0,0,1,9.37-1.55c5.62,0,8.17,2.35,8.17,7.33V26c0,1,.67,1.34,1.51,1.34h.66V31a9.46,9.46,0,0,1-4.47,1c-2.44,0-3.87-.73-4.5-2.58h-.21A7.56,7.56,0,0,1,136.56,32c-4,0-6.61-2.51-6.61-6.1m12,.83V21.92L140,22c-1.72.12-2.45,1-2.45,2.8s.66,2.75,2.25,2.75a3.36,3.36,0,0,0,2.18-.83" fill="#fff"/><path d="M52.54,25.68v-12H50.1V10.18l3-1.12,1-5.19h6V9.1h4.5v4.56H60.18V24.45c0,2,.87,2.55,2.71,2.55a7.82,7.82,0,0,0,2-.3v4a11,11,0,0,1-5.38,1.21c-4.51,0-7-1.5-7-6.21" fill="#fff"/><path d="M257.06,25.68v-12h-2.39V10.18l3.06-1.12.95-5.19h6V9.11h4.5v4.55h-4.5V24.45c0,2,.88,2.55,2.71,2.55a7.94,7.94,0,0,0,2.05-.3v4a11,11,0,0,1-5.39,1.21c-4.51,0-7-1.46-7-6.18" fill="#fff"/><path d="M67.28,27.68l2.37-.59V14.32l-2.58-.65V9.79l9.52-1,.71.29v18l2.24.59v3.78H67.32Zm1.78-24a3.86,3.86,0,0,1,4-3.69h.24c2.33,0,4.21,1.42,4.21,3.67a4,4,0,0,1-4.09,3.79H73.3A3.86,3.86,0,0,1,69.08,4V3.64" fill="#fff"/><path d="M103.35,27.66l2.37-.59V14.26l-2.45-.65V9.79l9.15-1,.65.29v2.37h.25a11.34,11.34,0,0,1,7.34-2.7c3.42,0,5.81,1.54,5.81,5.49V27.07l2.2.59v3.78H117V27.66l1.74-.47V16.89c0-1.79-.83-2.38-2.59-2.38a8.53,8.53,0,0,0-2.78.54V27.19l1.74.47v3.78H103.35Z" fill="#fff"/><polygon points="153.39 27.68 155.85 27.09 155.85 5.78 153.19 5.07 153.19 1.25 162.81 0.29 163.47 0.62 163.47 27.09 165.83 27.68 165.83 31.46 153.39 31.46 153.39 27.68" fill="#fff"/></svg>