<?xml version="1.0" encoding="utf-8"?>
<!-- Generator: Adobe Illustrator 26.5.0, SVG Export Plug-In . SVG Version: 6.00 Build 0)  -->
<svg version="1.1" id="Layer_1" xmlns="http://www.w3.org/2000/svg" xmlns:xlink="http://www.w3.org/1999/xlink" x="0px" y="0px"
	 viewBox="0 0 288 44.4" style="enable-background:new 0 0 288 44.4;" xml:space="preserve">
<style type="text/css">
	.st0{fill:#065697;}
</style>
<image style="overflow:visible;" width="308" height="43" xlink:href="ms-logo-1.png"  transform="matrix(1 0 0 1 4.7113 -177.1769)">
</image>
<g>
	<polygon class="st0" points="22.7,21 22.5,21 18.1,4.8 4.5,4.8 4.5,8.7 7.3,9.4 7.3,28.1 4.5,28.8 4.5,32.7 14.9,32.7 14.9,28.8 
		12.5,28.2 12.5,11.6 12.7,11.6 18.8,32.4 24.2,32.4 30.3,11.4 30.5,11.4 30.5,28.2 28.1,28.8 28.1,32.7 41.3,32.7 41.3,28.8 
		38.4,28.1 38.4,9.4 41.3,8.7 41.3,4.8 27.3,4.8 	"/>
	<path class="st0" d="M52.5,10.8c-6.2,0-11.1,4-11.1,11.4c0,6.8,4,11.1,11.2,11.1c6.2,0,11.1-4,11.1-11.4
		C63.7,14.8,59.7,10.8,52.5,10.8z M52.6,28.8c-2.1,0-3.4-1.4-3.4-7c0-5.4,1.3-6.7,3.3-6.7c2,0,3.4,1.4,3.4,7
		C55.9,27.4,54.6,28.8,52.6,28.8z"/>
	<path class="st0" d="M74.4,14.3h-0.2v-3.2l-0.6-0.3l-8.9,0.9v3.7l2.4,0.6v12.4l-2.3,0.6v3.7h12.7v-3.7l-3-0.6V18.1
		c1.2-0.6,2.6-0.8,4.6-0.8c0.7,0,1.4,0.1,1.9,0.2V11c-0.3-0.1-0.7-0.1-1.1-0.1C77.4,10.8,75.5,12.4,74.4,14.3z"/>
	<path class="st0" d="M113.2,26.8h-7c-1.1,0-1.5-0.6-1.5-1.1c0-0.4,0.2-0.8,0.5-1.2c0.9,0.2,1.9,0.3,3,0.3c5.7,0,9.5-2.6,9.5-7.3
		c0-1.1-0.4-2-0.9-2.9l2.9,0.1v-4.4l-6.9,1c-1.2-0.4-2.8-0.7-4.6-0.7c-5.6,0-9.5,2.6-9.5,7.3c0,2.5,1.3,4.4,3.3,5.4
		c-1.7,1.1-3.1,2.8-3.1,4.6c0,1.7,0.9,2.9,2.8,3.5v0.2c-2.4,0.6-4.5,2-4.5,4.4c0,2.9,3.3,4.9,10.2,4.9c8.8,0,12.4-3.7,12.4-8.2
		C119.9,28.4,116.9,26.8,113.2,26.8z M108.2,14.4c1.5,0,2.6,0.6,2.6,3.5c0,2.5-1.1,3.4-2.6,3.4c-1.4,0-2.5-0.8-2.5-3.5
		C105.7,15.2,106.8,14.4,108.2,14.4z M108,36.8c-2.9,0-4-0.8-4-2c0-1,0.6-1.6,1.4-2h5.1c1.9,0,2.5,0.4,2.5,1.5
		C113.1,35.7,111.8,36.8,108,36.8z"/>
	<path class="st0" d="M141.5,28.7h-0.6c-0.8,0-1.5-0.3-1.5-1.3v-9.6c0-4.8-2.5-7.1-7.9-7.1c-3.7,0-7,0.8-9,1.5v4.3
		c1.5-0.2,3.6-0.4,5.5-0.4c3.2,0,4,0.8,4,3v1l-3.7,0.7c-4.9,0.9-7.9,2.3-7.9,6.5c0,3.5,2.5,5.9,6.4,5.9c2.7,0,4.8-1.2,5.8-2.5h0.2
		c0.6,1.8,2,2.5,4.4,2.5c1.8,0,3.6-0.5,4.3-1V28.7z M132.1,28.2c-0.4,0.4-1.2,0.8-2.1,0.8c-1.5,0-2.2-0.8-2.2-2.7
		c0-1.7,0.7-2.6,2.4-2.7l1.9-0.1V28.2z"/>
	<path class="st0" d="M156.9,26.8h-7c-1.1,0-1.5-0.6-1.5-1.1c0-0.4,0.2-0.8,0.5-1.2c0.9,0.2,1.9,0.3,3,0.3c5.7,0,9.5-2.6,9.5-7.3
		c0-1.1-0.4-2-0.9-2.9l2.9,0.1v-4.4l-6.9,1c-1.2-0.4-2.8-0.7-4.6-0.7c-5.6,0-9.5,2.6-9.5,7.3c0,2.5,1.3,4.4,3.3,5.4
		c-1.7,1.1-3.1,2.8-3.1,4.6c0,1.7,0.9,2.9,2.8,3.5v0.2c-2.4,0.6-4.5,2-4.5,4.4c0,2.9,3.3,4.9,10.2,4.9c8.8,0,12.4-3.7,12.4-8.2
		C163.6,28.4,160.6,26.8,156.9,26.8z M151.9,14.4c1.5,0,2.6,0.6,2.6,3.5c0,2.5-1.1,3.4-2.6,3.4c-1.4,0-2.5-0.8-2.5-3.5
		C149.4,15.2,150.5,14.4,151.9,14.4z M151.7,36.8c-2.9,0-4-0.8-4-2c0-1,0.6-1.6,1.4-2h5.1c1.9,0,2.5,0.4,2.5,1.5
		C156.8,35.7,155.5,36.8,151.7,36.8z"/>
	<path class="st0" d="M174.1,10.8c-6.5,0-10.9,4.1-10.9,11.2c0,7.3,4,11.3,11.5,11.3c4.1,0,6.7-1.1,8.2-2.1v-3.9
		c-1.5,0.5-3.3,1-6.2,1c-3.4,0-5.4-1.3-5.8-5.1h13C183.9,14.1,180.8,10.8,174.1,10.8z M170.9,19.7c0.3-3.6,1.5-4.6,3.1-4.6
		c1.6,0,2.7,1,2.7,4.4L170.9,19.7z"/>
	<path class="st0" d="M277.2,19.6l-2.5-0.6c-2.1-0.5-2.8-0.9-2.8-2c0-1.2,1.2-1.6,2.7-1.6c1.1,0,1.9,0.2,2.3,0.5l0.5,2.1h4.3v-5.4
		c-1.7-0.7-4.3-1.1-6.9-1.1c-6.4,0-9.3,2.9-9.3,7c0,3.7,2.1,5.5,5.9,6.4l2.3,0.5c1.8,0.5,2.5,0.9,2.5,2c0,1.2-1.1,1.8-2.7,1.8
		c-1.2,0-2.2-0.4-2.7-0.6l-0.8-2.3h-4.4l0.4,5.7c2.1,0.9,5,1.3,7.3,1.3c7,0,9.8-3,9.8-7.4C283,22.6,281.4,20.5,277.2,19.6z"/>
	<path class="st0" d="M201.3,15.9l-3.2-0.6c-1.8-0.3-4.7-1.1-4.5-4c0.1-2,2-3.3,4.6-3.3c1.4,0,2.5,0.3,3.4,0.9l0.2,0.2l0.6,2.7h4.2
		V5.1L206.4,5c-2.1-0.8-5-1.3-7.9-1.3c-7.3,0-11.5,3.4-11.5,9.4c0,4.6,2.3,7.2,7.4,8.5l2.9,0.8c2.2,0.6,3.7,1.3,3.7,3.6
		c0,2-1.6,3.4-4.2,3.4c-2,0-3.4-0.7-3.9-1l-0.2-0.1l-0.9-3.1h-4.4l0.4,7.1l0.2,0.1c2.4,1,5.6,1.6,8.5,1.6c8,0,11.7-3,11.7-9.4
		C208.2,20,206.1,17.4,201.3,15.9z"/>
	<path class="st0" d="M92.6,26.1V15.7h4.4v-4.4h-4.4v-5h-5.8l-0.9,5l-2.9,1.1v3.3h2.3v11.6c0,4.6,2.4,6,6.8,6c2.3,0,4.2-0.6,5.2-1.2
		v-3.8c-0.6,0.2-1.3,0.3-2,0.3C93.4,28.5,92.6,28,92.6,26.1z"/>
	<path class="st0" d="M245.2,28v-9.6c0-4.8-2.5-7.1-7.9-7.1c-3.7,0-7,0.8-9,1.5v4.3c1.5-0.2,3.6-0.4,5.5-0.4c3.2,0,4,0.8,4,3v1
		l-3.7,0.7c-4.9,0.9-7.9,2.3-7.9,6.5c0,3.5,2.5,5.9,6.4,5.9c2.7,0,4.8-1.2,5.8-2.5h0.2c0.6,1.8,2,2.5,4.4,2.5c1.8,0,3.6-0.5,4.3-1
		v-3.5h-0.6C245.8,29.3,245.2,29,245.2,28z M237.8,28.8c-0.4,0.4-1.2,0.8-2.1,0.8c-1.5,0-2.2-0.8-2.2-2.7c0-1.7,0.7-2.6,2.4-2.7
		l1.9-0.1V28.8z"/>
	<path class="st0" d="M219.4,26.7V16.3h4.4v-4.4h-4.4v-5h-5.8l-0.9,5l-2.9,1.1v3.3h2.3v11.6c0,4.6,2.4,6,6.8,6
		c2.3,0,4.2-0.6,5.2-1.2v-3.8c-0.6,0.2-1.3,0.3-2,0.3C220.3,29.1,219.4,28.6,219.4,26.7z"/>
	<path class="st0" d="M258.4,26V15.6h4.4v-4.4h-4.4v-5h-5.8l-0.9,5l-2.9,1.1v3.3h2.3v11.6c0,4.6,2.4,6,6.8,6c2.3,0,4.2-0.6,5.2-1.2
		v-3.8c-0.6,0.2-1.3,0.3-2,0.3C259.2,28.5,258.4,27.9,258.4,26z"/>
</g>
</svg>
