<svg xmlns="http://www.w3.org/2000/svg" xmlns:xlink="http://www.w3.org/1999/xlink" x="0px" y="0px" width="256.725px" height="256.725px" viewBox="0 0 256.725 256.725" xml:space="preserve">
<g id="Background">
</g>
<g id="Objects">
	<g>
		<path fill="#3499EE" d="M234.959,206.853c0,0-44.124-16.601-58.103-29.708c0,0-3.931-4.368-8.301-4.368    c0,0-9.61-0.873-9.61-27.085c0,0,4.806-3.495,4.806-10.921l1.311-11.36c0,0,5.679,0,5.679-6.554c0,0,0.438-3.423,2.621-8.481    c0,0,11.359-14.672,3.932-16.855c0,0-3.932,0.874-4.804,2.621c0,0-1.749-7.428,2.183-18.349c0,0,1.301-5.49-1.747-13.105    c0,0,11.357-17.912-2.185-24.028c0,0,0-15.291-19.659-17.038c0,0-8.738-11.795-22.718-4.696    c-13.98-7.099-22.718,4.696-22.718,4.696c-19.659,1.747-19.659,17.038-19.659,17.038c-13.543,6.116-2.184,24.028-2.184,24.028    c-3.048,7.624-1.748,13.105-1.748,13.105c3.932,10.921,2.185,18.349,2.185,18.349c-0.875-1.747-4.807-2.621-4.807-2.621    c-7.426,2.184,3.932,16.855,3.932,16.855c2.186,5.059,2.622,8.481,2.622,8.481c0,6.554,5.679,6.554,5.679,6.554l1.311,11.36    c0,7.426,4.806,10.921,4.806,10.921c0,26.212-9.611,27.085-9.611,27.085c-4.369,0-8.301,4.368-8.301,4.368    c-13.979,13.107-58.103,29.708-58.103,29.708c-6.453,1.593-11.724,3.88-16.042,6.53v28.856h244v-29.602    C245.652,210.306,240.795,208.293,234.959,206.853z"></path>
	</g>
</g>
</svg>