<svg xmlns="http://www.w3.org/2000/svg" width="949.31" height="142.6" viewBox="0 0 949.31 142.6">
  <title>amaze</title>
  <g>
    <g>
      <path d="M45.17,72H22.84L18.47,89.32H0L23.45,13.8H45.17L68.61,89.32H49.53ZM41.72,58l-1.63-6.4c-2-7.51-4-16.54-6-24.26h-.4c-1.83,7.92-3.86,16.75-5.79,24.26L26.29,58Z" transform="translate(0 -12.38)" fill="#3e3a39"/>
      <path d="M79.78,13.8H99.37l12,32.58c1.53,4.37,2.74,9.14,4.16,13.81H116c1.53-4.67,2.74-9.44,4.16-13.81L131.75,13.8h19.69V89.32H134.89V63.44c0-7.51,1.42-18.78,2.34-26.19h-.41l-6.29,18.07L120.38,82.93h-9.95L100.18,55.32,94.09,37.25h-.41C94.6,44.66,96,55.93,96,63.44V89.32H79.78Z" transform="translate(0 -12.38)" fill="#3e3a39"/>
      <path d="M207.67,72H185.34L181,89.32H162.5L186,13.8h21.72l23.44,75.52H212Zm-3.46-14-1.62-6.4c-2-7.51-4-16.54-6-24.26h-.4c-1.83,7.92-3.86,16.75-5.79,24.26L188.79,58Z" transform="translate(0 -12.38)" fill="#3e3a39"/>
      <path d="M237.5,78.36l32.59-49.53H240.65v-15h51.77V24.66L259.83,74.09h32.89V89.32H237.5Z" transform="translate(0 -12.38)" fill="#3e3a39"/>
      <path d="M308.35,13.8h47.91v15H326.52v14h25.27V58.06H326.52v16h30.86V89.32h-49Z" transform="translate(0 -12.38)" fill="#3e3a39"/>
      <path d="M415.13,62.63,392.39,13.8h19.28L418,30.55c2,5.69,4,11,6.09,16.85h.4c2.14-5.89,4.17-11.16,6.3-16.85l6.29-16.75h19L433.19,62.63V89.32H415.13Z" transform="translate(0 -12.38)" fill="#3e3a39"/>
      <path d="M461.31,51.16c0-24.77,14-38.78,34.61-38.78s34.61,14.11,34.61,38.78-14,39.58-34.61,39.58S461.31,75.92,461.31,51.16Zm50.75,0c0-14.62-6.19-23.25-16.14-23.25s-16,8.63-16,23.25,6.09,24,16,24S512.06,65.87,512.06,51.16Z" transform="translate(0 -12.38)" fill="#3e3a39"/>
      <path d="M547.38,53.79v-40h18.07V55.72c0,14.32,4.26,19.39,12.58,19.39S590.82,70,590.82,55.72V13.8h17.46v40c0,25.48-10.15,36.95-30.25,36.95S547.38,79.27,547.38,53.79Z" transform="translate(0 -12.38)" fill="#3e3a39"/>
      <path d="M669.28,89.32,655.37,62.73h-8.73V89.32H628.47V13.8h27.71c16.14,0,29.54,5.48,29.54,23.75,0,11.07-5.18,18.17-13,21.83l16.85,29.94Zm-22.64-40.9h8.12c8.63,0,13.2-3.76,13.2-10.87s-4.57-9.43-13.2-9.43h-8.12Z" transform="translate(0 -12.38)" fill="#3e3a39"/>
      <path d="M697.19,79.88,707.44,67.4c5.38,4.56,12.38,7.71,18.37,7.71,6.7,0,9.85-2.54,9.85-6.6,0-4.36-4.16-5.78-10.66-8.52l-9.64-4.06C707.44,52.78,700,46.18,700,35.22c0-12.69,11.37-22.84,27.41-22.84A35.13,35.13,0,0,1,752,22.33L743,33.7c-5-3.76-9.65-5.79-15.53-5.79-5.59,0-9,2.23-9,6.3s4.77,5.78,11.47,8.42l9.44,3.75c9.34,3.76,14.92,10,14.92,20.71,0,12.59-10.55,23.65-28.82,23.65A42.25,42.25,0,0,1,697.19,79.88Z" transform="translate(0 -12.38)" fill="#3e3a39"/>
      <path d="M770.07,13.8H818v15H788.23v14h25.28V58.06H788.23v16h30.86V89.32h-49Z" transform="translate(0 -12.38)" fill="#3e3a39"/>
      <path d="M837.26,13.8h18.17V74.09h29.33V89.32h-47.5Z" transform="translate(0 -12.38)" fill="#3e3a39"/>
      <path d="M901.1,13.8h48.21v15h-30V45.37h25.78V60.49H919.27V89.32H901.1Z" transform="translate(0 -12.38)" fill="#3e3a39"/>
    </g>
    <g>
      <path d="M10.81,151.57l1.57-2a8.3,8.3,0,0,0,6.21,2.87c3,0,5.09-1.78,5.09-4.65s-2-5-7.78-5v-2.39c5.15,0,6.93-2.09,6.93-4.78,0-2.43-1.64-4-4.24-4A7.78,7.78,0,0,0,13.41,134l-1.68-2a10,10,0,0,1,7-3c4.2,0,7.27,2.25,7.27,6.28a6.23,6.23,0,0,1-4.47,6v.14a6.43,6.43,0,0,1,5.33,6.35c0,4.47-3.59,7.13-8,7.13A10.38,10.38,0,0,1,10.81,151.57Z" transform="translate(0 -12.38)" fill="#3e3a39"/>
      <path d="M35.73,141.94c0-8.7,3-12.9,7.82-12.9s7.78,4.23,7.78,12.9-3,13-7.78,13S35.73,150.64,35.73,141.94Zm12.56,0c0-7.3-1.91-10.38-4.74-10.38s-4.78,3.08-4.78,10.38,1.91,10.55,4.78,10.55S48.29,149.31,48.29,141.94Z" transform="translate(0 -12.38)" fill="#3e3a39"/>
      <path d="M59.87,143.78h8.74v2.39H59.87Z" transform="translate(0 -12.38)" fill="#3e3a39"/>
      <path d="M78.85,129.52h3.82l4.81,13.38c.59,1.74,1.17,3.48,1.78,5.22h.17c.58-1.74,1.13-3.48,1.71-5.22l4.78-13.38h3.82v25h-3V140.68c0-2.15.24-5.19.41-7.38H97l-2,5.7-4.74,13H88.2l-4.74-13-2-5.7h-.14c.14,2.19.38,5.23.38,7.38v13.86H78.85Z" transform="translate(0 -12.38)" fill="#3e3a39"/>
      <path d="M111.86,129.52H115v25h-3.18Z" transform="translate(0 -12.38)" fill="#3e3a39"/>
      <path d="M127.15,129.52h3.28l9.11,15.77,2.67,5.15h.17c-.17-2.53-.41-5.32-.41-7.92v-13h3v25h-3.24l-9.11-15.81-2.7-5.15h-.14c.14,2.52.38,5.19.38,7.81v13.15h-3Z" transform="translate(0 -12.38)" fill="#3e3a39"/>
      <path d="M157,144.19V129.52h3.18V144.3c0,6,2.56,7.91,5.8,7.91s6-1.87,6-7.91V129.52h3v14.67c0,8.06-3.89,10.79-9,10.79S157,152.25,157,144.19Z" transform="translate(0 -12.38)" fill="#3e3a39"/>
      <path d="M192.22,132.18h-7.58v-2.66H203v2.66H195.4v22.36h-3.18Z" transform="translate(0 -12.38)" fill="#3e3a39"/>
      <path d="M212.74,129.52h14.44v2.66H215.92V140h9.48v2.7h-9.48v9.11h11.63v2.7H212.74Z" transform="translate(0 -12.38)" fill="#3e3a39"/>
      <path d="M256.27,132.18h-7.58v-2.66H267v2.66h-7.58v22.36h-3.17Z" transform="translate(0 -12.38)" fill="#3e3a39"/>
      <path d="M274.43,141.94c0-8,4.4-12.9,10.69-12.9s10.68,4.88,10.68,12.9-4.41,13-10.68,13S274.43,150,274.43,141.94Zm18.12,0c0-6.28-3-10.14-7.43-10.14s-7.45,3.86-7.45,10.14,2.94,10.27,7.45,10.27S292.55,148.19,292.55,141.94Z" transform="translate(0 -12.38)" fill="#3e3a39"/>
      <path d="M310.79,132.18h-7.58v-2.66h18.33v2.66H314v22.36h-3.17Z" transform="translate(0 -12.38)" fill="#3e3a39"/>
      <path d="M341.24,146.89h-9.15l-2.42,7.65h-3.21l8.5-25h3.51l8.5,25h-3.34Zm-.79-2.53-1.19-3.82c-.92-2.83-1.71-5.56-2.53-8.46h-.13c-.79,2.93-1.61,5.63-2.5,8.46l-1.22,3.82Z" transform="translate(0 -12.38)" fill="#3e3a39"/>
      <path d="M355.78,129.52H359v22.32h10.92v2.7h-14.1Z" transform="translate(0 -12.38)" fill="#3e3a39"/>
      <path d="M392.52,129.52H400c5.08,0,8.6,1.7,8.6,6.11a5.44,5.44,0,0,1-3.69,5.42v.17c3,.58,5.12,2.56,5.12,6,0,4.91-3.89,7.34-9.49,7.34h-8Zm6.89,10.65c4.3,0,6-1.61,6-4.13,0-2.94-2-4-5.9-4h-3.86v8.16Zm.65,11.84c4.3,0,6.83-1.54,6.83-4.92,0-3.1-2.46-4.5-6.83-4.5h-4.37V152Z" transform="translate(0 -12.38)" fill="#3e3a39"/>
      <path d="M418.8,141.94c0-8,4.41-12.9,10.69-12.9s10.68,4.88,10.68,12.9-4.4,13-10.68,13S418.8,150,418.8,141.94Zm18.13,0c0-6.28-3-10.14-7.44-10.14S422,135.66,422,141.94s2.94,10.27,7.45,10.27S436.93,148.19,436.93,141.94Z" transform="translate(0 -12.38)" fill="#3e3a39"/>
      <path d="M450.86,129.52h6.28c7.68,0,11.81,4.47,11.81,12.42s-4.13,12.6-11.67,12.6h-6.42Zm6,22.42c5.9,0,8.8-3.68,8.8-10s-2.9-9.86-8.8-9.86H454v19.86Z" transform="translate(0 -12.38)" fill="#3e3a39"/>
      <path d="M482.92,144.81l-7.51-15.29h3.38l3.2,7.06c.82,1.84,1.57,3.59,2.46,5.46h.14c.88-1.87,1.74-3.62,2.49-5.46l3.24-7.06h3.28l-7.51,15.29v9.73h-3.17Z" transform="translate(0 -12.38)" fill="#3e3a39"/>
      <path d="M513.4,151.26l1.88-2.15a9.81,9.81,0,0,0,6.93,3.1c3.27,0,5.25-1.63,5.25-4.09s-1.8-3.38-4.16-4.44l-3.62-1.57c-2.32-1-5.08-2.76-5.08-6.42,0-3.85,3.34-6.65,7.88-6.65a10.25,10.25,0,0,1,7.37,3.1l-1.67,2a8.07,8.07,0,0,0-5.7-2.36c-2.83,0-4.68,1.44-4.68,3.69,0,2.42,2.19,3.34,4.14,4.16l3.58,1.54c2.9,1.26,5.15,3,5.15,6.69,0,4-3.27,7.1-8.5,7.1A12,12,0,0,1,513.4,151.26Z" transform="translate(0 -12.38)" fill="#3e3a39"/>
      <path d="M545.35,132.18h-7.57v-2.66h18.33v2.66h-7.58v22.36h-3.18Z" transform="translate(0 -12.38)" fill="#3e3a39"/>
      <path d="M579.63,154.54l-6.08-10.62h-4.5v10.62h-3.18v-25h7.85c5.09,0,8.74,1.81,8.74,7,0,3.89-2.25,6.21-5.67,7l6.42,11Zm-10.58-13.18h4.2c3.92,0,6.07-1.57,6.07-4.81s-2.15-4.47-6.07-4.47h-4.2Z" transform="translate(0 -12.38)" fill="#3e3a39"/>
      <path d="M592.84,129.52h14.44v2.66H596V140h9.49v2.7H596v9.11h11.64v2.7H592.84Z" transform="translate(0 -12.38)" fill="#3e3a39"/>
      <path d="M618.21,129.52h3.27l9.12,15.77,2.66,5.15h.17c-.17-2.53-.41-5.32-.41-7.92v-13h3v25h-3.25l-9.11-15.81-2.7-5.15h-.13c.13,2.52.37,5.19.37,7.81v13.15h-3Z" transform="translate(0 -12.38)" fill="#3e3a39"/>
      <path d="M646.71,142c0-8.09,4.85-13,11.47-13a9.53,9.53,0,0,1,7.2,3.1l-1.7,2.05a7,7,0,0,0-5.43-2.39c-5,0-8.29,3.89-8.29,10.14s3,10.27,8.32,10.27a6.9,6.9,0,0,0,4.54-1.46v-6.56h-5.29v-2.62h8.19v10.51A10.72,10.72,0,0,1,658,155C651.39,155,646.71,150.17,646.71,142Z" transform="translate(0 -12.38)" fill="#3e3a39"/>
      <path d="M681.43,132.18h-7.58v-2.66h18.33v2.66h-7.57v22.36h-3.18Z" transform="translate(0 -12.38)" fill="#3e3a39"/>
      <path d="M702,129.52h3.17V140H716.8V129.52h3.14v25H716.8V142.73H705.12v11.81H702Z" transform="translate(0 -12.38)" fill="#3e3a39"/>
      <path d="M742.47,129.52h3.28l2.63,13.62c.48,2.69,1,5.39,1.47,8.09H750c.58-2.7,1.2-5.4,1.81-8.09l3.45-13.62h2.87l3.51,13.62c.62,2.66,1.2,5.35,1.78,8.09h.17c.47-2.74.95-5.43,1.43-8.09l2.63-13.62h3l-5.19,25h-3.79l-3.79-15.09c-.44-2-.82-3.79-1.23-5.7h-.13c-.41,1.91-.86,3.72-1.27,5.7l-3.72,15.09H747.8Z" transform="translate(0 -12.38)" fill="#3e3a39"/>
      <path d="M778.63,141.94c0-8,4.4-12.9,10.68-12.9S800,133.92,800,141.94s-4.4,13-10.68,13S778.63,150,778.63,141.94Zm18.12,0c0-6.28-3-10.14-7.44-10.14s-7.44,3.86-7.44,10.14,2.93,10.27,7.44,10.27S796.75,148.19,796.75,141.94Z" transform="translate(0 -12.38)" fill="#3e3a39"/>
      <path d="M824.44,154.54l-6.08-10.62h-4.5v10.62h-3.18v-25h7.85c5.09,0,8.74,1.81,8.74,7,0,3.89-2.25,6.21-5.67,7l6.42,11Zm-10.58-13.18h4.19c3.93,0,6.08-1.57,6.08-4.81s-2.15-4.47-6.08-4.47h-4.19Z" transform="translate(0 -12.38)" fill="#3e3a39"/>
      <path d="M837.65,129.52h3.18v12.56h.1l10.44-12.56h3.55L847.11,139l9,15.5H852.6l-7.47-13-4.3,5.12v7.92h-3.18Z" transform="translate(0 -12.38)" fill="#3e3a39"/>
      <path d="M862.81,141.94c0-8,4.4-12.9,10.69-12.9s10.68,4.88,10.68,12.9-4.4,13-10.68,13S862.81,150,862.81,141.94Zm18.13,0c0-6.28-3-10.14-7.44-10.14s-7.45,3.86-7.45,10.14,2.94,10.27,7.45,10.27S880.94,148.19,880.94,141.94Z" transform="translate(0 -12.38)" fill="#3e3a39"/>
      <path d="M894.77,144.19V129.52h3.17V144.3c0,6,2.56,7.91,5.8,7.91s6-1.87,6-7.91V129.52h3v14.67c0,8.06-3.89,10.79-9,10.79S894.77,152.25,894.77,144.19Z" transform="translate(0 -12.38)" fill="#3e3a39"/>
      <path d="M930,132.18h-7.58v-2.66h18.33v2.66h-7.58v22.36H930Z" transform="translate(0 -12.38)" fill="#3e3a39"/>
    </g>
  </g>
</svg>
