<svg xmlns="http://www.w3.org/2000/svg" width="284.09" height="157.29" viewBox="0 0 284.09 157.29">
  <title>commitment-head</title>
  <g id="圖層_2" data-name="圖層 2">
    <g id="圖層_1-2" data-name="圖層 1">
      <g>
        <path d="M99.19,53.44c6.75-1.36,10-2.19,16.26-4,.07,2.52.1,3.77.17,6.24-3.92,1.11-5.91,1.65-10,2.61l.18,6.72c3.5-.83,5.22-1.27,8.6-2.21l.16,6c-3.38.92-5.09,1.37-8.6,2.19l.31,11.28c-2.47.56-3.72.83-6.27,1.34C99.69,72,99.54,66.16,99.19,53.44Z" fill="#3d3a39"/>
        <path d="M125.12,46.49c2.3-.75,3.45-1.13,5.72-1.9.35,12.71.51,18.71.84,30.75-2.28.71-3.42,1.06-5.72,1.75C125.63,65.13,125.47,59.18,125.12,46.49Z" fill="#3d3a39"/>
        <path d="M138.55,41.93l5.95-2.08c1.23,5.44,1.84,8.11,3.07,13.44.79,3.12,1.32,6.18,2.1,9.32l.16,0c.57-3.58,1-7,1.57-10.56.91-6,1.36-9.11,2.27-15.3,2.32-.78,3.49-1.16,5.83-1.91-2.54,13.73-3.8,20.44-6.31,33.71l-6.77,2.14C143.27,59.26,141.71,53.69,138.55,41.93Z" fill="#3d3a39"/>
        <path d="M167.5,32.36c6.24-1.79,9.44-2.62,16.14-4l.17,6.35c-4.16.85-6.18,1.33-10.15,2.36l.16,5.91c3.37-.87,5.09-1.28,8.6-2l.17,6.42c-3.51.75-5.22,1.15-8.59,2l.18,6.73c4.12-1,6.22-1.51,10.54-2.38l.18,6.42c-6.87,1.36-10.15,2.17-16.54,3.89C168,51.47,167.85,45.18,167.5,32.36Z" fill="#3d3a39"/>
      </g>
      <g>
        <path d="M.07,118.49c-.74-10.41,4.42-16.71,11.18-16.92a11.5,11.5,0,0,1,8.48,3.79c-1.25,2-1.86,2.93-3.09,4.89-1.45-1.37-2.93-2.33-4.82-2.25-3.43.12-5.92,3.87-5.49,10s3.06,9.67,6.81,9.49a6.53,6.53,0,0,0,4.91-3.07c1.5,1.8,2.25,2.69,3.76,4.48a10.44,10.44,0,0,1-8.46,5C6.6,134.17.83,129.07.07,118.49Z" fill="#3d3a39"/>
        <path d="M28.38,116.88c-.72-10.1,4-15.95,11.74-16.24s13.4,4.94,14.1,14.72-4.14,16.3-11.84,16.84S29.11,127,28.38,116.88Zm18.9-1c-.42-5.84-3-9.14-6.71-9s-5.74,3.75-5.32,9.67,3,9.58,6.68,9.33S47.7,121.71,47.28,115.83Z" fill="#3d3a39"/>
        <path d="M64.79,99.91c2.92-.21,4.38-.33,7.26-.58,2.13,4.83,3.18,7.23,5.29,12.06.67,1.62,1.25,3.41,1.9,5.17l.18,0c.42-1.89.73-3.79,1.12-5.52,1.32-5.22,2-7.78,3.28-12.89,2.82-.33,4.21-.51,7-.91q1,14.52,2.08,29c-2.31.36-3.48.53-5.83.87-.3-4.16-.44-6.19-.73-10.21-.21-2.92,0-7.31.11-10.17l-.15,0L84.52,114c-1.15,4.46-1.73,6.71-2.88,11.3-1.44.18-2.16.28-3.61.45-1.81-4.22-2.72-6.29-4.53-10.43-1.1-2.72-1.65-4.08-2.75-6.78H70.6a98.55,98.55,0,0,1,1.59,10.11c.3,4.06.44,6.11.74,10.27l-6,.64Z" fill="#3d3a39"/>
        <path d="M102.47,95.25c2.58-.51,3.85-.76,6.34-1.32,1.87,4.5,2.8,6.76,4.65,11.37.59,1.55,1.1,3.28,1.67,5l.16,0c.34-1.91.58-3.83.9-5.6,1.07-5.31,1.6-7.93,2.65-13.19,2.38-.65,3.56-1,5.88-1.66q1.05,14.59,2.09,29.2c-2,.52-2.94.79-4.94,1.3-.29-4.16-.44-6.2-.73-10.22-.21-2.92-.09-7.35,0-10.23l-.13,0c-.56,2.95-.84,4.42-1.4,7.4-.93,4.56-1.39,6.86-2.33,11.56-1.22.3-1.84.44-3.08.73-1.6-4.1-2.4-6.11-4-10.06-1-2.6-1.46-3.88-2.44-6.44l-.13,0c.49,2.73,1.25,6.92,1.46,9.83.29,4,.44,6,.73,10.21-2.07.45-3.13.66-5.27,1.08Z" fill="#3d3a39"/>
        <path d="M134.72,86.71,139.91,85Q141,99.82,142,114.62l-5.2,1.54Q135.78,101.43,134.72,86.71Z" fill="#3d3a39"/>
        <path d="M154.26,86.33l-5.81,1.86c-.17-2.34-.25-3.51-.42-5.85,6.7-2.23,10-3.35,17-5.41.17,2.39.25,3.58.43,6-2.41.7-3.6,1.06-6,1.79q.87,12.1,1.73,24.22c-2.1.61-3.14.91-5.22,1.53Q155.13,98.39,154.26,86.33Z" fill="#3d3a39"/>
        <path d="M173.58,74.51c2.38-.63,3.59-.94,6-1.52,1.87,4.9,2.82,7.36,4.73,12.31.61,1.66,1.14,3.51,1.73,5.3l.17,0c.35-2,.61-4,1-5.87,1.12-5.58,1.7-8.36,2.84-13.93,2.6-.51,3.89-.76,6.49-1.25l2.19,30.59-5.45,1-.75-10.48c-.22-3-.08-7.7,0-10.76l-.13,0-1.55,7.72c-1,4.73-1.53,7.09-2.53,11.83l-3.2.67c-1.63-4.2-2.44-6.29-4-10.47-1-2.75-1.46-4.12-2.42-6.85l-.13,0c.5,2.92,1.27,7.37,1.48,10.41.3,4.19.45,6.29.76,10.5-2,.47-3,.71-5,1.21Z" fill="#3d3a39"/>
        <path d="M207.88,67.45c6.31-1.11,9.47-1.64,15.8-2.63.18,2.43.26,3.65.44,6.08-3.93.61-5.89.93-9.82,1.6.17,2.27.25,3.4.41,5.67,3.33-.56,5-.84,8.34-1.36.17,2.46.26,3.7.44,6.16-3.34.53-5,.8-8.34,1.37.19,2.6.28,3.89.47,6.49,4.07-.69,6.1-1,10.18-1.65.17,2.46.26,3.7.44,6.16-6.47,1-9.71,1.55-16.17,2.69Z" fill="#3d3a39"/>
        <path d="M234.61,63.2c2.44-.34,3.66-.5,6.11-.82L248,76.24c1.17,2.6,1.76,3.9,2.94,6.5l.17,0c-.57-3.21-1.36-7.55-1.62-11.21l-.72-10.11c2.28-.26,3.42-.39,5.71-.63l2.19,30.58c-2.45.26-3.67.39-6.12.68-2.89-5.62-4.34-8.42-7.24-14-1.17-2.56-1.75-3.83-2.93-6.38l-.16,0c.51,3.37,1.31,7.5,1.58,11.2.29,4.06.43,6.09.72,10.15l-5.7.77Z" fill="#3d3a39"/>
        <path d="M271.23,65.42c-2.71.19-4.07.3-6.78.53-.17-2.43-.26-3.65-.43-6.08,7.84-.67,11.76-.93,19.63-1.25.17,2.43.26,3.65.44,6.08-2.74.12-4.1.18-6.83.34q.89,12.24,1.76,24.5c-2.42.13-3.63.21-6,.38Q272.11,77.68,271.23,65.42Z" fill="#3d3a39"/>
      </g>
      <path d="M25,42.37s45.57,10.74,87.52-8.59S193.69,1,256.27,1" fill="none" stroke="#880780" stroke-miterlimit="10" stroke-width="2"/>
      <path d="M25,47.57S70.59,58.31,112.54,39,193.69,6.21,256.27,6.21" fill="none" stroke="#880780" stroke-miterlimit="10" stroke-width="2"/>
      <path d="M25,147.88s45.57,10.74,87.52-8.59,81.15-32.78,143.73-32.78" fill="none" stroke="#880780" stroke-miterlimit="10" stroke-width="2"/>
      <path d="M25,153.32s45.57,10.74,87.52-8.59S193.69,112,256.27,112" fill="none" stroke="#880780" stroke-miterlimit="10" stroke-width="2"/>
    </g>
  </g>
</svg>
