<?xml version="1.0" encoding="UTF-8"?>
<svg id="b" data-name="圖層 2" xmlns="http://www.w3.org/2000/svg" width="490.23" height="110.13" viewBox="0 0 490.23 110.13">
  <defs>
    <style>
      .d {
        stroke: #f0f;
      }

      .d, .e {
        fill: none;
        stroke-miterlimit: 10;
        stroke-width: .5px;
      }

      .f {
        fill: #999;
      }

      .g {
        fill: #f0f;
      }

      .e {
        stroke: #601986;
      }
    </style>
  </defs>
  <g id="c" data-name="圖層 1">
    <line class="d" x1="337.09" y1="35.31" x2=".25" y2="35.31"/>
    <g>
      <line class="e" x1=".25" x2=".25" y2="22.19"/>
      <line class="e" x1="9.11" x2="9.11" y2="22.19"/>
      <line class="e" x1="17.98" x2="17.98" y2="22.19"/>
      <line class="e" x1="26.84" x2="26.84" y2="22.19"/>
      <line class="e" x1="35.71" x2="35.71" y2="22.19"/>
      <line class="e" x1="44.57" x2="44.57" y2="22.19"/>
      <line class="e" x1="53.44" x2="53.44" y2="22.19"/>
      <line class="e" x1="62.3" x2="62.3" y2="22.19"/>
      <line class="e" x1="71.16" x2="71.16" y2="22.19"/>
      <line class="e" x1="80.03" x2="80.03" y2="22.19"/>
      <line class="e" x1="88.89" x2="88.89" y2="22.19"/>
      <line class="e" x1="97.76" x2="97.76" y2="22.19"/>
      <line class="e" x1="106.62" x2="106.62" y2="22.19"/>
      <line class="e" x1="115.49" x2="115.49" y2="22.19"/>
      <line class="e" x1="124.35" x2="124.35" y2="22.19"/>
      <line class="e" x1="133.21" x2="133.21" y2="22.19"/>
      <line class="e" x1="142.08" x2="142.08" y2="22.19"/>
      <line class="e" x1="150.94" x2="150.94" y2="22.19"/>
      <line class="e" x1="159.81" x2="159.81" y2="22.19"/>
      <line class="e" x1="168.67" x2="168.67" y2="22.19"/>
      <line class="e" x1="177.54" x2="177.54" y2="22.19"/>
      <line class="e" x1="186.4" x2="186.4" y2="22.19"/>
      <line class="e" x1="195.26" x2="195.26" y2="22.19"/>
      <line class="e" x1="204.13" x2="204.13" y2="22.19"/>
      <line class="e" x1="212.99" x2="212.99" y2="22.19"/>
      <line class="e" x1="221.86" x2="221.86" y2="22.19"/>
      <line class="e" x1="230.72" x2="230.72" y2="22.19"/>
      <line class="e" x1="239.59" x2="239.59" y2="22.19"/>
      <line class="e" x1="248.45" x2="248.45" y2="22.19"/>
      <line class="e" x1="257.32" x2="257.32" y2="22.19"/>
      <line class="e" x1="266.18" x2="266.18" y2="22.19"/>
      <line class="e" x1="275.04" x2="275.04" y2="22.19"/>
      <line class="e" x1="283.91" x2="283.91" y2="22.19"/>
      <line class="e" x1="292.77" x2="292.77" y2="22.19"/>
      <line class="e" x1="301.64" x2="301.64" y2="22.19"/>
      <line class="e" x1="310.5" x2="310.5" y2="22.19"/>
      <line class="e" x1="319.37" x2="319.37" y2="22.19"/>
      <line class="e" x1="328.23" x2="328.23" y2="22.19"/>
      <line class="e" x1="337.09" x2="337.09" y2="22.19"/>
      <line class="e" x1="345.96" x2="345.96" y2="22.19"/>
      <line class="e" x1="354.82" x2="354.82" y2="22.19"/>
      <line class="e" x1="363.69" x2="363.69" y2="22.19"/>
      <line class="e" x1="372.55" x2="372.55" y2="22.19"/>
      <line class="e" x1="381.42" x2="381.42" y2="22.19"/>
      <line class="e" x1="390.28" x2="390.28" y2="22.19"/>
      <line class="e" x1="399.14" x2="399.14" y2="22.19"/>
      <line class="e" x1="408.01" x2="408.01" y2="22.19"/>
      <line class="e" x1="416.87" x2="416.87" y2="22.19"/>
      <line class="e" x1="425.74" x2="425.74" y2="22.19"/>
      <line class="e" x1="434.6" x2="434.6" y2="22.19"/>
      <line class="e" x1="443.47" x2="443.47" y2="22.19"/>
    </g>
    <path d="M11.91,72.67c.63-1.6,1.17-3.23,1.62-4.89h-3.06v13.28c0,1.65-.29,2.59-1.47,3.13s-2.78,.54-5.22,.54c-.21-1.09-.54-2.16-1-3.17h3.85c.5,0,.61-.14,.61-.54v-13.24H1.62v-3H10.15c-2.14-1.75-4.45-3.28-6.91-4.54l1.76-2.18c1.12,.54,2.31,1.22,3.46,1.91,1.1-1.12,2.11-2.34,3-3.64H2.41v-2.92H13.6l.62-.18,2,1.44c-1.53,2.49-3.34,4.8-5.4,6.88,.89,.61,1.74,1.3,2.52,2.05l-.87,1.19h2.16l.47-.11,2.09,.51c-.9,2.84-1.91,6.08-2.81,8.09l-2.47-.61Zm12.09,7.38c-2.4,2.12-5.15,3.79-8.13,4.95-.69-.8-1.43-1.55-2.23-2.24,2.77-.98,5.32-2.48,7.52-4.42l2.84,1.71Zm-1-20.88c.18-1,.39-2,.54-3h-7.2v-2.83h18.14v2.85h-7.23c-.33,1-.65,2.05-.94,3h7v18.7h-15.64v-18.72h5.33Zm7.13,2.49h-9.36v3h9.36v-3Zm0,5.32h-9.36v3h9.36v-3Zm0,5.37h-9.36v3h9.36v-3Zm-1.08,6.12c2.2,1.32,4.29,2.84,6.22,4.53l-2.62,1.91c-1.89-1.77-3.94-3.36-6.12-4.75l2.52-1.69Z"/>
    <path d="M53.78,75.55c-.51,2.94-1.31,5.82-2.37,8.6-.94-.4-1.9-.73-2.88-1,1.08-2.63,1.86-5.39,2.3-8.2l2.95,.6Zm7.31-2.16c-.11-.54-.25-1.19-.43-1.91-8.79,1.41-10.08,1.73-10.87,2.13-.18-.61-.69-2.2-1.08-3.1,.9-.18,1.76-1,3-2.27,1.14-1.17,2.21-2.41,3.2-3.7-3.88,.47-4.78,.65-5.29,.93-.3-1.02-.66-2.02-1.08-3,.72-.11,1.41-.83,2.23-1.87,2.11-2.73,3.89-5.71,5.29-8.86l3.06,1.33c-1.69,3.18-3.68,6.19-5.94,9l3.86-.33c1.02-1.42,1.97-2.9,2.84-4.42l2.84,1.83c-2.49,3.74-5.29,7.25-8.38,10.51l5.54-.75c-.32-1-.72-2.13-1.08-3.06l2.7-.69c1,2.41,1.79,4.91,2.38,7.45l-2.79,.78Zm-3.24,1.33c.53,2.61,.91,5.24,1.15,7.89l-2.81,.75c-.2-2.68-.53-5.35-1-8l2.66-.64Zm4.15-.82c.93,2.17,1.7,4.41,2.3,6.69l-2.59,1c-.58-2.32-1.3-4.61-2.16-6.84l2.45-.85Zm18.5-15.59v1.69c-.43,15.7-.86,21.13-2.23,22.86-.7,1.03-1.85,1.67-3.09,1.73-1.81,.14-3.63,.14-5.44,0-.13-1.17-.5-2.29-1.08-3.31,2.2,.18,4.21,.18,5.11,.18,.55,.07,1.09-.15,1.44-.58,1-1.12,1.51-6.34,1.87-19.4h-9.5c-.77,1.75-1.71,3.43-2.81,5-.64-.47-2.08-1.44-2.91-1.91,2.52-3.06,4.43-7.92,5.51-12.74l3.31,.65c-.51,2-1.12,4-1.77,5.83h11.59Zm-8.57,17.1c-1.67-2.89-3.76-5.52-6.19-7.81l2.34-1.69c2.46,2.2,4.6,4.74,6.34,7.55l-2.49,1.95Z"/>
    <path d="M197,68.35v13.36c0,1.33-.25,2-1.12,2.48-1.31,.44-2.7,.6-4.07,.47-.18-.88-.49-1.72-.9-2.52h2.81c.39,0,.47-.11,.47-.47v-4.07c-1.48,.9-2.91,1.8-4.25,2.6l-1-2c-.21,2.4-.96,4.73-2.2,6.8-.68-.68-1.47-1.26-2.34-1.69,1.84-2.73,2-6.41,2-9.25v-5.71h-1.75v-5.35h1.48v-10h11v10h1.47v5.32l-1.6,.03Zm-1-3h-8.9v1.94h8.93l-.03-1.94Zm-7.24-2.35h1.83v-5.63h3.74v-1.9h-5.57v7.53Zm.39,11c0,1.27-.05,2.54-.18,3.81,1.44-.61,3.28-1.55,5.22-2.52v-5.68h-5v2.49l1.33-1.37c1.31,.78,2.54,1.7,3.67,2.73l-1.51,1.73c-1.07-1.08-2.24-2.05-3.49-2.91l-.04,1.72Zm5.18-11v-3.61h-1.9v3.61h1.9Zm23,18.64v2.52h-18.75v-2.49h4.75c-.32-1-.72-2.09-1.11-3l2.41-.72h-4.07v-6.83h14.83v6.81h-4.21l2.74,.75c-.62,1-1.16,2.06-1.7,3l5.11-.04Zm-.33-12h-18v-2.48h18v2.48Zm-.86-4.07h-16.51v-11.08h4.39v-2.66h2.66v2.66h2.16v-2.66h2.66v2.66h4.65v11.08Zm-14.01-6.66h2.38v-2.15h-2.38v2.15Zm0,4.36h2.38v-2.2h-2.38v2.2Zm1.3,12.52h8.78v-2.51h-8.78v2.51Zm1.26,2.13c.59,1.21,1.1,2.46,1.54,3.74h3.17c.58-1.21,1.08-2.46,1.52-3.73h-6.23Zm4.21-19.01v-2.16h-2.27v2.16h2.27Zm-2.27,2.16v2.2h2.29v-2.2h-2.29Zm6.84-4.32h-2.45v2.16h2.45v-2.16Zm0,4.32h-2.45v2.2h2.45v-2.2Z"/>
    <path d="M230.8,81.74c.77-2.52,1.29-5.12,1.55-7.74l1.8,.57c-.29,2.67-.75,5.32-1.4,7.92l-1.95-.75Zm14.13-10.94c-.25,8.68-.5,11.81-1.26,12.81-.43,.61-1.12,.98-1.87,1-.95,.1-1.9,.13-2.85,.07-.08-.9-.32-1.78-.72-2.59,.75,.1,1.51,.15,2.27,.14,.35,.06,.7-.1,.9-.39,.25-.4,.43-1.48,.61-3.89l-1.33,.54c-.49-1.59-1.08-3.15-1.75-4.67l1.29-.43c.7,1.43,1.3,2.91,1.8,4.43,.08-1.33,.15-3.13,.22-5.4h-9.54v-19.08h12.1v2.74h-4.11v2.92h3.49v1.37c3.81-2.13,7.02-5.19,9.33-8.89l3.06,1c-.21,.4-.45,.78-.72,1.15,2.45,2.37,5.28,4.32,8.38,5.76-.54,.95-.99,1.96-1.33,3-1.13-.62-2.23-1.3-3.27-2.06v2.09h-10.61v-1.77c-.94,.65-1.87,1.3-2.85,1.87-.61-.74-1.28-1.42-2-2.05v1h-3.49v2.7h3.57v2.6h-3.57v2.84h4.25v1.19Zm-8.75,3.71c.25,2.09,.4,4.71,.43,6.48l-1.61,.18c0-1.77-.15-4.47-.33-6.48l1.51-.18Zm-.86-18.43v2.92h2.73v-2.92h-2.73Zm2.73,5.43h-2.73v2.7h2.73v-2.7Zm-2.73,8.14h2.73v-2.84h-2.73v2.84Zm3,4.43c.47,1.83,1,4.24,1.22,5.79l-1.51,.33c-.3-1.98-.69-3.94-1.19-5.87l1.48-.25Zm13.28,.57c-.21,1-.5,1.91-.79,2.85,1.36,.79,2.6,1.76,3.71,2.88l-1.73,2.19c-.9-.97-1.91-1.84-3-2.59-.83,1.81-1.97,3.45-3.38,4.86-.7-.68-1.45-1.32-2.23-1.91,2.3-2,3.81-5.22,4.57-8.82l2.85,.54Zm-5.36-9.9h7.34v8.46h-7.34v-8.46Zm2.24,6.25h2.7v-4h-2.7v4Zm10.45-11.25c-1.67-1.22-3.24-2.58-4.68-4.07-1.23,1.48-2.61,2.85-4.1,4.07h8.78Zm1.59,14.69c-.24,1.36-.59,2.7-1.05,4,1.58,1.06,3.07,2.25,4.46,3.56l-2,2.3c-1.09-1.18-2.3-2.25-3.6-3.2-.69,1.37-1.58,2.62-2.66,3.71-.77-.7-1.59-1.34-2.45-1.91,2.27-2,3.67-5.29,4.32-9l2.98,.54Zm-5.55-9.69h7.63v8.46h-7.63v-8.46Zm2.33,6.25h2.91v-4h-2.91v4Z"/>
    <path class="f" d="M6.91,110H1.49v-12.57H6.68c2.63,0,4.09,1.37,4.09,3.24,.04,1.34-.85,2.53-2.15,2.88,1.43,.28,2.46,1.54,2.43,3,0,2.04-1.53,3.45-4.14,3.45Zm-.59-10.54h-2.32v3.15h2.32c1.19,0,1.87-.54,1.87-1.56s-.68-1.59-1.87-1.59Zm.18,5.1h-2.5v3.38h2.55c1.23,0,2-.59,2-1.65s-.83-1.73-2.05-1.73Z"/>
    <path class="f" d="M21.6,110.12c-3.55,.14-6.55-2.63-6.69-6.18-.14-3.55,2.63-6.55,6.18-6.69,.17,0,.34,0,.51,0,3.55,.14,6.32,3.13,6.18,6.69-.13,3.36-2.82,6.05-6.18,6.18Zm0-2.25c2.27,0,3.83-1.64,3.83-4.19s-1.56-4.16-3.83-4.16-3.85,1.6-3.85,4.16,1.56,4.19,3.85,4.19Z"/>
    <path class="f" d="M38.43,110.12c-3.56,0-6.44-2.87-6.45-6.43,0-3.56,2.87-6.44,6.43-6.45s6.44,2.87,6.45,6.43h0c.07,3.49-2.69,6.38-6.18,6.45-.08,0-.17,0-.25,0Zm0-2.25c2.27,0,3.83-1.64,3.83-4.19s-1.56-4.16-3.83-4.16-3.85,1.6-3.85,4.16,1.56,4.19,3.85,4.19Z"/>
    <path class="f" d="M52,104.4v5.6h-2.57v-12.57h2.57v5.63l4.57-5.63h3l-5.18,6.23,5.32,6.34h-3.19l-4.52-5.6Z"/>
    <path class="f" d="M64.06,97.43h2.52v12.57h-2.52v-12.57Z"/>
    <path class="f" d="M82.51,97.41v12.59h-2.51l-5.71-8.63v8.63h-2.53v-12.59h2.52l5.72,8.64v-8.64h2.51Z"/>
    <path class="f" d="M99.34,101.21h-2.9c-.6-1.08-1.77-1.71-3-1.62-2.25,0-3.82,1.6-3.82,4.1-.2,2.08,1.34,3.93,3.42,4.13,.17,.02,.34,.02,.51,.01,1.76,.1,3.3-1.15,3.56-2.89h-4.27v-1.94h6.81v2.2c-.61,2.89-3.18,4.95-6.14,4.89-3.54,.14-6.53-2.62-6.67-6.16-.14-3.54,2.62-6.53,6.16-6.67,.17,0,.34,0,.51,0,2.61-.16,5.01,1.46,5.83,3.95Z"/>
    <path class="f" d="M118.49,99.46h-4.77v3.15h4.28v2h-4.23v3.33h4.77v2.06h-7.34v-12.59h7.29v2.05Z"/>
    <path class="f" d="M128.28,105.76l-2.46,4.24h-2.82l4-6.34-4-6.23h2.9l2.72,4.21,2.38-4.21h2.84l-3.94,6.32,4,6.25h-2.9l-2.72-4.24Z"/>
    <path class="f" d="M143.15,105.17h-2.1v4.83h-2.53v-12.57h4.63c3,0,4.54,1.71,4.54,3.89,0,1.91-1.3,3.85-4.54,3.85Zm-.11-2c1.43,0,2.06-.71,2.06-1.82s-.63-1.84-2.06-1.84h-2v3.66h2Z"/>
    <path class="f" d="M159.46,99.46h-4.77v3.15h4.23v2h-4.23v3.33h4.77v2.06h-7.29v-12.59h7.29v2.05Z"/>
    <path class="f" d="M169.16,97.43c3,0,4.54,1.74,4.54,3.85,.03,1.74-1.16,3.25-2.86,3.62l3,5.1h-2.91l-2.78-4.9h-1.15v4.9h-2.53v-12.57h4.69Zm-.09,2.09h-2.07v3.69h2.1c1.41,0,2-.74,2-1.88s-.62-1.81-2.03-1.81Z"/>
    <path class="f" d="M178.68,97.43h2.52v12.57h-2.52v-12.57Z"/>
    <path class="f" d="M193.68,99.46h-4.77v3.15h4.23v2h-4.23v3.33h4.77v2.06h-7.29v-12.59h7.29v2.05Z"/>
    <path class="f" d="M209.41,97.41v12.59h-2.52l-5.71-8.63v8.63h-2.52v-12.59h2.52l5.71,8.64v-8.64h2.52Z"/>
    <path class="f" d="M220.35,97.27c2.66-.13,5.07,1.53,5.91,4.06h-2.9c-.55-1.15-1.73-1.86-3-1.8-2.2,0-3.77,1.61-3.77,4.16s1.57,4.16,3.77,4.16c1.28,.06,2.46-.66,3-1.82h2.9c-.82,2.54-3.25,4.2-5.91,4.07-3.54-.14-6.3-3.13-6.16-6.67,.13-3.35,2.81-6.03,6.16-6.16Z"/>
    <path class="f" d="M238.41,99.46h-4.77v3.15h4.23v2h-4.23v3.33h4.77v2.06h-7.29v-12.59h7.29v2.05Z"/>
    <g>
      <path class="g" d="M348.33,42.72c-3.56,0-6-1.5-5.66-4.68h4.72c-.08,.82,.24,1.22,1,1.22,.46,0,.84-.24,.84-.7,0-1.8-5.66-1.5-5.66-5.58,0-3.08,2.48-4.8,5.9-4.8s5.66,1.7,5.3,4.58h-4.77c.14-.74-.2-1.12-.78-1.12-.4-.03-.74,.26-.78,.66,0,.02,0,.04,0,.06,0,1.7,5.64,1.74,5.64,5.8,0,2.58-2.08,4.56-5.75,4.56Z"/>
      <path class="g" d="M359.79,28.42h11.92l-.62,3.52h-3.76l-1.88,10.64h-4.45l1.88-10.64h-3.72l.63-3.52Z"/>
      <path class="g" d="M382.87,40.44h-4.72l-1.08,2.14h-4.66l7.68-14.16h5.12l2.66,14.16h-4.68l-.32-2.14Zm-1.06-7.28l-2,3.94h2.56l-.56-3.94Z"/>
      <path class="g" d="M401,28.42c3.56,0,5,2,4.56,4.64-.37,1.98-1.84,3.57-3.78,4.1l2.12,5.42h-4.9l-1.78-5.08-.9,5.08h-4.44l2.5-14.16h6.62Zm-1.06,3.72h-1.76l-.42,2.4h1.76c.73,.09,1.4-.43,1.5-1.16v-.04c.09-.72-.27-1.2-1.11-1.2h.03Z"/>
      <path class="g" d="M410,28.42h11.92l-.62,3.52h-3.76l-1.88,10.64h-4.44l1.88-10.64h-3.72l.62-3.52Z"/>
      <path class="g" d="M446.07,28.42l-2.5,14.16h-4.44l-3.44-7.12-1.26,7.12h-4.43l2.5-14.16h4.44l3.42,7.24,1.28-7.24h4.43Z"/>
      <path class="g" d="M455.51,42.72c-3.1,.21-5.79-2.14-6-5.24-.02-.23-.02-.45,0-.68,0-5.12,3.36-8.62,8.34-8.62,3.72,0,6.06,2.34,6.06,5.86,0,5.1-3.36,8.68-8.4,8.68Zm.68-4.14c2.16,0,3.38-1.88,3.38-4,.13-1.15-.69-2.18-1.84-2.32-.15-.02-.3-.02-.44,0-2.16,0-3.42,1.86-3.42,4-.12,1.16,.72,2.2,1.88,2.32,.15,.02,.3,.02,.44,0Z"/>
      <path class="g" d="M469.43,28.42h4.78l-.28,8.92,3.48-8.92h4.84l.34,8.92,2.86-8.92h4.78l-5.74,14.16h-5.49l-.22-8-3.06,8h-5.52l-.77-14.16Z"/>
    </g>
    <path d="M123.14,81.62c1.39,0,1.64-.69,1.79-4.89,.77,.55,2.19,1.09,3.1,1.31-.4,5.22-1.31,6.6-4.63,6.6h-5.58c-3.87,0-4.85-.99-4.85-4.31v-7.73h-1.17c-1.82,5.55-5.73,9.92-14.85,12.44-.36-.88-1.2-2.15-1.93-2.85,7.88-1.97,11.38-5.36,13.1-9.59h-9.48v-8.43c-.55,.44-1.09,.88-1.68,1.28-.55-.77-1.64-1.97-2.44-2.48,4.92-3.25,8.43-7.66,10.36-11.24l3.72,.69c-.36,.69-.77,1.31-1.24,2.01h8.24l.51-.15,2.37,1.5c-.91,1.61-2.23,3.5-3.54,5.11h10.21v11.71h-8.65v7.7c0,1.13,.26,1.31,1.79,1.31h4.85Zm-14.12-12.04c.4-1.79,.58-3.68,.77-5.66h-7.77v5.66h7Zm-3.68-12.33c-.95,1.24-2.01,2.48-3.14,3.65h8.72c.95-1.06,1.93-2.41,2.74-3.65h-8.32Zm8.03,6.68c-.18,1.93-.4,3.87-.77,5.66h8.97v-5.66h-8.21Z"/>
    <path d="M163.31,79.88c3.44,1.06,6.95,2.34,9.22,3.29l-2.52,2.09c-2.38-1.13-6.51-2.74-10.54-4.02l1.39-1.35h-9.7l2.63,1.17c-2.96,1.72-7.57,3.37-11.23,4.32-.51-.7-1.76-1.9-2.45-2.49,3.59-.62,7.72-1.76,10.28-3h-5.64v-11.2c-.91,.26-1.9,.48-3,.66-.29-.77-1.1-2.05-1.61-2.67,4.43-.7,7.06-1.76,8.6-3h-6.04c.4-1.72,.77-4.17,.99-6.18h7.1v-1.79h-8.64v-2.12h8.64v-1.83h3.07v1.83h4.98v-1.83h3.22v1.83h7.94v6.04h-7.94v1.94h10.25s-.04,.62-.07,.99c-.22,2.08-.44,3.22-.95,3.81-.51,.48-1.17,.69-1.9,.73-.22,.04-.48,.04-.81,.04v12.77h-5.27Zm-16.91-20.27c-.11,.66-.22,1.32-.33,1.94h4.24c.26-.62,.37-1.24,.44-1.94h-4.35Zm18.74,8.56h-17.09v1.87h17.09v-1.87Zm0,3.84h-17.09v1.9h17.09v-1.9Zm-17.09,5.82h17.09v-1.94h-17.09v1.94Zm4.83-14.16c-.51,.88-1.21,1.68-2.2,2.42h8.16v-2.42h-5.97Zm5.97-4.06h-4.98c0,.69-.07,1.32-.22,1.94h5.2v-1.94Zm-4.98-2.12h4.98v-1.79h-4.98v1.79Zm8.2-1.79v1.79h4.83v-1.79h-4.83Zm0,7.98v2.42h3.88c-.11-.44-.29-.84-.44-1.17,.99,.11,1.87,.15,2.23,.15,.4,0,.62-.04,.84-.26,.15-.18,.26-.48,.37-1.13h-6.88Z"/>
  </g>
</svg>