<svg xmlns="http://www.w3.org/2000/svg" width="53.49" height="53.49" viewBox="0 0 53.49 53.49">
  <title>fb-white</title>
  <g id="圖層_2" data-name="圖層 2">
    <g id="圖層_1-2" data-name="圖層 1">
      <path d="M37,53.48V32.85h6.82l1-8.1H37.08c0-2.33-.14-4.55.05-6.74.12-1.47,1-2.15,2.6-2.24,1.76-.1,3.54,0,5.38,0V8.38c-4-.16-8-1-11.77,1.07A8.91,8.91,0,0,0,28.69,17c-.16,2.09-.09,4.21-.13,6.32,0,.43,0,.86-.06,1.41H21.68v8.05h6.8V53.43c-.41,0-.77,0-1.12,0-5.72,0-11.44,0-17.16,0A10,10,0,0,1,0,43.31Q0,26.77,0,10.22A9.94,9.94,0,0,1,10.18,0Q26.73,0,43.28,0A10,10,0,0,1,53.48,10.3q0,16.41,0,32.84A10,10,0,0,1,43.1,53.48C41.09,53.49,39.07,53.48,37,53.48Z" fill="#fff"/>
    </g>
  </g>
</svg>
