<svg xmlns="http://www.w3.org/2000/svg" width="34.74" height="34.74" viewBox="0 0 34.74 34.74">
  <title>fb</title>
  <g id="圖層_2" data-name="圖層 2">
    <g id="圖層_1-2" data-name="圖層 1">
      <g>
        <path d="M15.08,26.56V16H13.36v-1.7h1.72v-.58a5.82,5.82,0,0,1,1.41-4.28,4.24,4.24,0,0,1,3-1.13,5.27,5.27,0,0,1,1.9.35l-.3,1.72a3.2,3.2,0,0,0-1.42-.28c-1.9,0-2.37,1.67-2.37,3.55v.65h2.95V16H17.29V26.56Z" fill="#f0f"/>
        <path d="M17.38,34.74A17.37,17.37,0,1,1,34.74,17.38,17.39,17.39,0,0,1,17.38,34.74m0-33.2A15.84,15.84,0,1,0,33.22,17.38,15.86,15.86,0,0,0,17.38,1.54" fill="#f0f"/>
      </g>
    </g>
  </g>
</svg>
