<svg xmlns="http://www.w3.org/2000/svg" width="98.78mm" height="34.2mm" viewBox="0 0 280 96.94">
  <g>
    <path d="M58.51,75.53a97.47,97.47,0,0,0,10.06-10.2c-1.11,3.82-1.54,7.08-.63,8.7,1.62,2.88,4.17,6.73,5.76,6.84s2.49,1,8.39-4.84S94.31,62.52,97,59.43c0,0-3.2,9.68-3.67,13.19-.68,5-.49,9.42,5.46,10,6.42.61,14.42-7.52,14.42-7.52l4.6-5.35s-.12-2.33-1.29-1.1-6.87,7.17-9.23,6.75c-1-.18-2.42.31.81-10.72S119,42.3,119,42.3s2.66-4.51-.48-5.13A14.23,14.23,0,0,1,113.17,35c-1.83-1-4.14-1.7-5.47-.67S86.31,72.47,82.13,65.92c0,0-2.44-1.42,7.53-22.67,4.19-8.93-1.74-10.25-2-10.25-2.15,0-7.58-.19-17.85,9.31,0,0-.39,2,.51,1.75,2-.6,6.49-4.32,7-2.57s-1.88,7.13-5.09,14.3c-.69,1.54-1.35,3.12-2,4.7-31.19,26.47-44,22-44,22S-1,81.37,28,40.22C52.39,5.42,69.56,13.28,69.56,13.28c5.33,3.27-3.77,13.83.06,16.15S75.89,23,75.89,23s1.92-6.81.55-10.08S73,5.74,67.16,3.56s-7.62-4.67-15.22-3C43.42,2.37,12,20.67,1.16,58.12c-4.37,15.2,5,20.84,5,20.84s2.9,2.07,6,4.84c10.58,9.4,25.4,10.46,46.33-8.27" fill="#fff"/>
    <path d="M157,82.4c2.93.08,3.65-2.34,5.87-1.19,3.36,1.73,5.1,1,6,0,3.26-2.92,19.58-17.9,25.2-30.17,6.25-13.65,5.32-25.49-1.69-21.76-2.61,1.39-4.57,3.67-6.39,7s1.72,5.46,1.72,5.46c2.39,13.56-12.59,28.83-17.14,33.11,3.17-18.32,2.84-24.39,2.76-27.89-.17-7.09-4-5.68-9.11-3.95-4.36,1.5-11.17,6-11.17,6s-.7,2.21,1.62,1.31,7.91-6.12,5.27,9.87c-2.51,15.24-5.85,22.08-2.92,22.15" fill="#fff"/>
    <path d="M223.17,54.33c-2,2.09-7.17,5.59-8.65,4a4.55,4.55,0,0,1-.79-4.87c4.34-6.3,12.47-16.82,16.22-14,0,0,5.15,2.28-6.78,14.85m3.34-22.39a8.91,8.91,0,0,0-10-.23c-3.46,2.17-12,8.61-18,21.88-5.67,12.59-3.08,19.72,1.14,21.73a78.39,78.39,0,0,1,7.21,4c2.4,1.32,13.28,5.71,22.83-3.4,13-12.43,5.8-16.47,6-15.78a45,45,0,0,1-3.34,4.52c-11,13.11-18.4,12.68-20.84,11.6-9.81-4.35-.7-17.39-.7-17.39l.18-.31a10.36,10.36,0,0,0,2.18,3.23c1.83,1.47,3.86,7.86,16.25-2,5.5-4.33,15.22-14.13,8.39-20.29a17.63,17.63,0,0,0-3.44-2.33s-3.69-2.24-7.88-5.23" fill="#fff"/>
    <path d="M277.72,56c-2-3-7.4-4.37-12.2-4.05s-4.59-.64-4.59-.64c-.19-1.86,6.57-6.07,10.11-8.09s3.65.22,3.35,1.71-3,4.78.1,2.34,3.23-7.78,2.61-9.26-3.13-2.76-4.91-4.69-3.34-3.09-6.47-2.77c-4,.42-16.05,10-19.1,15.76-2.22,4.24.63,8.2.63,8.2,2.51,3.51,7.62,2.66,11.9,3A8,8,0,0,1,265.31,61s4.17,4.68-7.83,16.5-15.56,8.41-15.56,8.41c-2.6-4.9,8-18.84,10.13-21.51s-.52-1.27-.52-1.27a49.89,49.89,0,0,0-18.05,24c-.94,3,1.87,4.36,2.6,5s3,3.4,3,3.4.41,2,6.89,1.39,24-12.56,30.16-21.93,3.54-16,1.56-18.94" fill="#fff"/>
    <path d="M138.24,62.52a.45.45,0,0,1,.06-.12c11.12-24,22-27.67,28.3-28.95,5-1,6.46-.68,10.64.17,9.25,1.89,1.32-6.45,1.32-6.45a13.73,13.73,0,0,0-13.08-1.23c-6.34,2.83-16.65,13.84-21.76,20.3a18.26,18.26,0,0,0,.47-2.39c.77-6-1.7-8.35-1.7-8.35s-1.27-1.78-5.84-.5A26.88,26.88,0,0,0,127,40c-1.46,1.64-.07,1.8-.07,1.8,6.78-2.93,3.79,6.11,3.79,6.11-6.7,14.59-9.64,21-9.64,21s-2.75,5.87.11,8.71c4.54,4.52,10.86,4.5,13.39,4,4.23-.83,2.68-2.42,2.68-2.42s-2.83,1.48-3.48-1.71c-.3-1.43.21-4.31.87-7.06,1-2.06,2.23-4.83,3.57-7.92" fill="#fff"/>
    <path d="M272.56,91.47c.31,0,.51-.08.51-.44s-.2-.46-.51-.46h-.75v.9Zm-.75,1.93c0,.29-.1.49-.45.49s-.44-.16-.44-.49V90.26c0-.23.07-.42.46-.42h1.12c.8,0,1.48.24,1.48,1.19a1,1,0,0,1-1,1.12l.72,1.17a.52.52,0,0,1,.06.22c0,.22-.13.35-.48.35s-.41-.25-.53-.49l-.63-1.19h-.3Zm.58,1.22a2.82,2.82,0,1,0-2.77-2.82,2.78,2.78,0,0,0,2.77,2.82m0-6.56a3.74,3.74,0,1,1-3.66,3.74,3.71,3.71,0,0,1,3.66-3.74" fill="#fff"/>
  </g>
</svg>
