<svg xmlns="http://www.w3.org/2000/svg" width="180.5" height="180.5" viewBox="0 0 180.5 180.5">
  <title>gotoddd</title>
  <g>
    <circle cx="90.25" cy="90.25" r="72" fill="none" stroke="#601986" stroke-miterlimit="10" stroke-width="0.5"/>
    <circle cx="90.25" cy="90.25" r="90" fill="none" stroke="#601986" stroke-miterlimit="10" stroke-width="0.5"/>
    <line x1="90.25" y1="14.76" x2="90.25" y2="3.96" fill="none" stroke="#601986" stroke-miterlimit="10" stroke-width="0.5"/>
    <line x1="90.25" y1="176.54" x2="90.25" y2="165.74" fill="none" stroke="#601986" stroke-miterlimit="10" stroke-width="0.5"/>
    <line x1="83.67" y1="15.05" x2="82.73" y2="4.29" fill="none" stroke="#601986" stroke-miterlimit="10" stroke-width="0.5"/>
    <line x1="97.77" y1="176.21" x2="96.83" y2="165.45" fill="none" stroke="#601986" stroke-miterlimit="10" stroke-width="0.5"/>
    <line x1="77.14" y1="15.91" x2="75.27" y2="5.27" fill="none" stroke="#601986" stroke-miterlimit="10" stroke-width="0.5"/>
    <line x1="105.23" y1="175.23" x2="103.36" y2="164.59" fill="none" stroke="#601986" stroke-miterlimit="10" stroke-width="0.5"/>
    <line x1="70.71" y1="17.33" x2="67.92" y2="6.9" fill="none" stroke="#601986" stroke-miterlimit="10" stroke-width="0.5"/>
    <line x1="112.58" y1="173.6" x2="109.79" y2="163.17" fill="none" stroke="#601986" stroke-miterlimit="10" stroke-width="0.5"/>
    <line x1="64.43" y1="19.31" x2="60.74" y2="9.17" fill="none" stroke="#601986" stroke-miterlimit="10" stroke-width="0.5"/>
    <line x1="119.76" y1="171.33" x2="116.07" y2="161.19" fill="none" stroke="#601986" stroke-miterlimit="10" stroke-width="0.5"/>
    <line x1="58.35" y1="21.83" x2="53.78" y2="12.05" fill="none" stroke="#601986" stroke-miterlimit="10" stroke-width="0.5"/>
    <line x1="126.72" y1="168.45" x2="122.15" y2="158.67" fill="none" stroke="#601986" stroke-miterlimit="10" stroke-width="0.5"/>
    <line x1="52.51" y1="24.87" x2="47.11" y2="15.52" fill="none" stroke="#601986" stroke-miterlimit="10" stroke-width="0.5"/>
    <line x1="133.39" y1="164.98" x2="127.99" y2="155.63" fill="none" stroke="#601986" stroke-miterlimit="10" stroke-width="0.5"/>
    <line x1="46.95" y1="28.41" x2="40.76" y2="19.57" fill="none" stroke="#601986" stroke-miterlimit="10" stroke-width="0.5"/>
    <line x1="139.74" y1="160.93" x2="133.55" y2="152.09" fill="none" stroke="#601986" stroke-miterlimit="10" stroke-width="0.5"/>
    <line x1="41.73" y1="32.42" x2="34.78" y2="24.15" fill="none" stroke="#601986" stroke-miterlimit="10" stroke-width="0.5"/>
    <line x1="145.72" y1="156.35" x2="138.77" y2="148.08" fill="none" stroke="#601986" stroke-miterlimit="10" stroke-width="0.5"/>
    <line x1="36.87" y1="36.87" x2="29.23" y2="29.23" fill="none" stroke="#601986" stroke-miterlimit="10" stroke-width="0.5"/>
    <line x1="151.27" y1="151.27" x2="143.63" y2="143.63" fill="none" stroke="#601986" stroke-miterlimit="10" stroke-width="0.5"/>
    <line x1="32.42" y1="41.73" x2="24.15" y2="34.78" fill="none" stroke="#601986" stroke-miterlimit="10" stroke-width="0.5"/>
    <line x1="156.35" y1="145.72" x2="148.08" y2="138.77" fill="none" stroke="#601986" stroke-miterlimit="10" stroke-width="0.5"/>
    <line x1="28.41" y1="46.95" x2="19.57" y2="40.76" fill="none" stroke="#601986" stroke-miterlimit="10" stroke-width="0.5"/>
    <line x1="160.93" y1="139.74" x2="152.09" y2="133.55" fill="none" stroke="#601986" stroke-miterlimit="10" stroke-width="0.5"/>
    <line x1="24.87" y1="52.51" x2="15.52" y2="47.11" fill="none" stroke="#601986" stroke-miterlimit="10" stroke-width="0.5"/>
    <line x1="164.98" y1="133.39" x2="155.63" y2="127.99" fill="none" stroke="#601986" stroke-miterlimit="10" stroke-width="0.5"/>
    <line x1="21.83" y1="58.35" x2="12.05" y2="53.78" fill="none" stroke="#601986" stroke-miterlimit="10" stroke-width="0.5"/>
    <line x1="168.45" y1="126.72" x2="158.67" y2="122.15" fill="none" stroke="#601986" stroke-miterlimit="10" stroke-width="0.5"/>
    <line x1="19.31" y1="64.43" x2="9.17" y2="60.74" fill="none" stroke="#601986" stroke-miterlimit="10" stroke-width="0.5"/>
    <line x1="171.33" y1="119.76" x2="161.19" y2="116.07" fill="none" stroke="#601986" stroke-miterlimit="10" stroke-width="0.5"/>
    <line x1="17.33" y1="70.71" x2="6.9" y2="67.92" fill="none" stroke="#601986" stroke-miterlimit="10" stroke-width="0.5"/>
    <line x1="173.6" y1="112.58" x2="163.17" y2="109.79" fill="none" stroke="#601986" stroke-miterlimit="10" stroke-width="0.5"/>
    <line x1="15.91" y1="77.14" x2="5.27" y2="75.27" fill="none" stroke="#601986" stroke-miterlimit="10" stroke-width="0.5"/>
    <line x1="175.23" y1="105.23" x2="164.59" y2="103.36" fill="none" stroke="#601986" stroke-miterlimit="10" stroke-width="0.5"/>
    <line x1="15.05" y1="83.67" x2="4.29" y2="82.73" fill="none" stroke="#601986" stroke-miterlimit="10" stroke-width="0.5"/>
    <line x1="176.21" y1="97.77" x2="165.45" y2="96.83" fill="none" stroke="#601986" stroke-miterlimit="10" stroke-width="0.5"/>
    <line x1="14.76" y1="90.25" x2="3.96" y2="90.25" fill="none" stroke="#601986" stroke-miterlimit="10" stroke-width="0.5"/>
    <line x1="176.54" y1="90.25" x2="165.74" y2="90.25" fill="none" stroke="#601986" stroke-miterlimit="10" stroke-width="0.5"/>
    <line x1="15.05" y1="96.83" x2="4.29" y2="97.77" fill="none" stroke="#601986" stroke-miterlimit="10" stroke-width="0.5"/>
    <line x1="176.21" y1="82.73" x2="165.45" y2="83.67" fill="none" stroke="#601986" stroke-miterlimit="10" stroke-width="0.5"/>
    <line x1="15.91" y1="103.36" x2="5.27" y2="105.23" fill="none" stroke="#601986" stroke-miterlimit="10" stroke-width="0.5"/>
    <line x1="175.23" y1="75.27" x2="164.59" y2="77.14" fill="none" stroke="#601986" stroke-miterlimit="10" stroke-width="0.5"/>
    <line x1="17.33" y1="109.79" x2="6.9" y2="112.58" fill="none" stroke="#601986" stroke-miterlimit="10" stroke-width="0.5"/>
    <line x1="173.6" y1="67.92" x2="163.17" y2="70.71" fill="none" stroke="#601986" stroke-miterlimit="10" stroke-width="0.5"/>
    <line x1="19.31" y1="116.07" x2="9.17" y2="119.76" fill="none" stroke="#601986" stroke-miterlimit="10" stroke-width="0.5"/>
    <line x1="171.33" y1="60.74" x2="161.19" y2="64.43" fill="none" stroke="#601986" stroke-miterlimit="10" stroke-width="0.5"/>
    <line x1="21.83" y1="122.15" x2="12.05" y2="126.72" fill="none" stroke="#601986" stroke-miterlimit="10" stroke-width="0.5"/>
    <line x1="168.45" y1="53.78" x2="158.67" y2="58.35" fill="none" stroke="#601986" stroke-miterlimit="10" stroke-width="0.5"/>
    <line x1="24.87" y1="127.99" x2="15.52" y2="133.39" fill="none" stroke="#601986" stroke-miterlimit="10" stroke-width="0.5"/>
    <line x1="164.98" y1="47.11" x2="155.63" y2="52.51" fill="none" stroke="#601986" stroke-miterlimit="10" stroke-width="0.5"/>
    <line x1="28.41" y1="133.55" x2="19.57" y2="139.74" fill="none" stroke="#601986" stroke-miterlimit="10" stroke-width="0.5"/>
    <line x1="160.93" y1="40.76" x2="152.09" y2="46.95" fill="none" stroke="#601986" stroke-miterlimit="10" stroke-width="0.5"/>
    <line x1="32.42" y1="138.77" x2="24.15" y2="145.72" fill="none" stroke="#601986" stroke-miterlimit="10" stroke-width="0.5"/>
    <line x1="156.35" y1="34.78" x2="148.08" y2="41.73" fill="none" stroke="#601986" stroke-miterlimit="10" stroke-width="0.5"/>
    <line x1="36.87" y1="143.63" x2="29.23" y2="151.27" fill="none" stroke="#601986" stroke-miterlimit="10" stroke-width="0.5"/>
    <line x1="151.27" y1="29.23" x2="143.63" y2="36.87" fill="none" stroke="#601986" stroke-miterlimit="10" stroke-width="0.5"/>
    <line x1="41.73" y1="148.08" x2="34.78" y2="156.35" fill="none" stroke="#601986" stroke-miterlimit="10" stroke-width="0.5"/>
    <line x1="145.72" y1="24.15" x2="138.77" y2="32.42" fill="none" stroke="#601986" stroke-miterlimit="10" stroke-width="0.5"/>
    <line x1="46.95" y1="152.09" x2="40.76" y2="160.93" fill="none" stroke="#601986" stroke-miterlimit="10" stroke-width="0.5"/>
    <line x1="139.74" y1="19.57" x2="133.55" y2="28.41" fill="none" stroke="#601986" stroke-miterlimit="10" stroke-width="0.5"/>
    <line x1="52.51" y1="155.63" x2="47.11" y2="164.98" fill="none" stroke="#601986" stroke-miterlimit="10" stroke-width="0.5"/>
    <line x1="133.39" y1="15.52" x2="127.99" y2="24.87" fill="none" stroke="#601986" stroke-miterlimit="10" stroke-width="0.5"/>
    <line x1="58.35" y1="158.67" x2="53.78" y2="168.45" fill="none" stroke="#601986" stroke-miterlimit="10" stroke-width="0.5"/>
    <line x1="126.72" y1="12.05" x2="122.15" y2="21.83" fill="none" stroke="#601986" stroke-miterlimit="10" stroke-width="0.5"/>
    <line x1="64.43" y1="161.19" x2="60.74" y2="171.33" fill="none" stroke="#601986" stroke-miterlimit="10" stroke-width="0.5"/>
    <line x1="119.76" y1="9.17" x2="116.07" y2="19.31" fill="none" stroke="#601986" stroke-miterlimit="10" stroke-width="0.5"/>
    <line x1="70.71" y1="163.17" x2="67.92" y2="173.6" fill="none" stroke="#601986" stroke-miterlimit="10" stroke-width="0.5"/>
    <line x1="112.58" y1="6.9" x2="109.79" y2="17.33" fill="none" stroke="#601986" stroke-miterlimit="10" stroke-width="0.5"/>
    <line x1="77.14" y1="164.59" x2="75.27" y2="175.23" fill="none" stroke="#601986" stroke-miterlimit="10" stroke-width="0.5"/>
    <line x1="105.23" y1="5.27" x2="103.36" y2="15.91" fill="none" stroke="#601986" stroke-miterlimit="10" stroke-width="0.5"/>
    <line x1="83.67" y1="165.45" x2="82.73" y2="176.21" fill="none" stroke="#601986" stroke-miterlimit="10" stroke-width="0.5"/>
    <line x1="97.77" y1="4.29" x2="96.83" y2="15.05" fill="none" stroke="#601986" stroke-miterlimit="10" stroke-width="0.5"/>
    <polyline points="56.33 115.43 124.17 115.43 116.22 106.94" fill="none" stroke="#601986" stroke-miterlimit="10" stroke-width="0.5"/>
    <g>
      <path d="M60.31,81.77c-.45,1.09-.93,2.35-1.36,3.12l-.59-.18a19.24,19.24,0,0,0,1-2.4h-2v6.48c0,.45-.1.69-.46.79a7.8,7.8,0,0,1-2,.12,3.24,3.24,0,0,0-.25-.67c.84,0,1.53,0,1.74,0s.28-.08.28-.24V82.31H54.07v-.66H58.2a16.29,16.29,0,0,0-3.3-2.46l.42-.48a15.56,15.56,0,0,1,1.6,1,11.8,11.8,0,0,0,1.82-2.11H54.37v-.66h4.85l.15,0,.48.32a14.33,14.33,0,0,1-2.42,2.88,11.33,11.33,0,0,1,1.34,1.15l-.33.41h1.3l.11-.05Zm2.58,6a10.68,10.68,0,0,1-3.42,2,3.94,3.94,0,0,0-.49-.51,8.94,8.94,0,0,0,3.21-1.86ZM63,79.26c.13-.51.28-1.14.39-1.68H60.07v-.66h7.56v.66H64.18c-.15.57-.31,1.17-.46,1.68h3.37V87h-6.4V79.26Zm3.39.62h-5v1.74h5Zm0,2.34h-5V84h5Zm0,2.35h-5v1.8h5Zm-1.23,2.88a16.59,16.59,0,0,1,2.73,1.91l-.59.42a16.47,16.47,0,0,0-2.7-1.94Z" fill="#601986"/>
      <path d="M74.82,85.77a25.58,25.58,0,0,1-1,3.6c-.15-.07-.47-.18-.66-.24a17.59,17.59,0,0,0,1-3.51Zm3.79-.93a6.2,6.2,0,0,0-.24-.87c-4.12.66-4.57.75-4.87.9,0-.16-.15-.52-.24-.75.3,0,.67-.39,1.18-.94a24.57,24.57,0,0,0,1.79-2.09,12.15,12.15,0,0,0-2.81.47,4.41,4.41,0,0,0-.25-.72c.25,0,.57-.38.93-.83a23.52,23.52,0,0,0,2.53-3.87l.69.3a25.8,25.8,0,0,1-2.94,4.23l2.34-.24A17,17,0,0,0,78,78.65l.66.39a35.26,35.26,0,0,1-4,4.86l3.54-.51c-.17-.53-.39-1.08-.6-1.58l.61-.15a15.84,15.84,0,0,1,1.07,3Zm-2.08.71A28.88,28.88,0,0,1,77,88.82l-.64.15c-.06-.9-.27-2.25-.45-3.29Zm1.8-.29a19.79,19.79,0,0,1,1,2.91l-.61.21a23.22,23.22,0,0,0-1-2.94Zm7.84-5.83c-.22,6.82-.4,9.07-1,9.75a1.25,1.25,0,0,1-1,.48,20.21,20.21,0,0,1-2.11,0,1.65,1.65,0,0,0-.26-.72c1,.08,1.85.08,2.16.08a.61.61,0,0,0,.6-.21c.47-.51.69-2.81.89-9.08H80.68A13,13,0,0,1,79.39,82a3.17,3.17,0,0,0-.61-.39,15.15,15.15,0,0,0,2.4-5.4l.7.15A21.65,21.65,0,0,1,81,79h5.2Zm-3,6.19a15.27,15.27,0,0,0-2.61-3.34l.51-.38a14.68,14.68,0,0,1,2.65,3.3Z" fill="#601986"/>
      <path d="M97.18,88.85c0,.37-.09.55-.36.67a6,6,0,0,1-1.68.11,3,3,0,0,0-.24-.57h1.4c.18,0,.24-.06.24-.23V86.52c-.83.5-1.65,1-2.36,1.38l-.34-.57c.69-.31,1.68-.84,2.7-1.41V83.21H93.79v2.22a7.81,7.81,0,0,1-1.05,4.38,1.6,1.6,0,0,0-.52-.45,6.91,6.91,0,0,0,.94-3.93V82.62h4Zm0-8h.64v2h-.61V81.41H93v1.45h-.62v-2h.65V76.74h4.17Zm-3.54,0h1.14V78.51h1.75V77.34H93.69Zm2.11,4.89a11.29,11.29,0,0,0-1.71-1.42l.38-.41a12.6,12.6,0,0,1,1.77,1.37Zm.78-6.64H95.37v1.75h1.21Zm9.18,9.73v.6H98.05v-.6h2.39a15.68,15.68,0,0,0-.62-1.62l.6-.16a15,15,0,0,1,.69,1.78h1.59a19.37,19.37,0,0,0,.72-1.84l.68.21c-.26.52-.54,1.15-.78,1.63Zm-.13-5.52H98.25v-.6h7.38Zm-.45-1.53H98.61V77.36h1.92V76.17h.63v1.19h1.35V76.17h.63v1.19h2ZM99,86.82V84.14h5.78v2.68Zm.18-7.57h1.37V77.94H99.22Zm0,1.92h1.37V79.82H99.22Zm.48,5.1h4.43V84.71H99.7Zm2.82-7V77.94h-1.36v1.31Zm-1.36.57v1.35h1.36V79.82Zm3.39-1.88h-1.46v1.31h1.46Zm0,1.88h-1.46v1.35h1.46Z" fill="#601986"/>
      <path d="M111.1,88.55a16.19,16.19,0,0,0,.72-3.33l.5.15a21.67,21.67,0,0,1-.71,3.39Zm5.72-4.49c-.15,3.74-.26,4.94-.56,5.34a.89.89,0,0,1-.72.32c-.24,0-.7,0-1.14,0a1.5,1.5,0,0,0-.18-.63,9.49,9.49,0,0,0,1.13.06c.16,0,.27,0,.36-.15s.34-1.42.46-4.62h-4.24V76.89h4.92v.65h-2.09v1.62h1.76v.63h-1.76v1.59h1.76V82h-1.76v1.73h2.06Zm-4.28-6.52v1.62h1.59V77.54Zm1.59,2.25h-1.59v1.59h1.59Zm-1.59,3.93h1.59V82h-1.59Zm.62,1.68c.12.85.22,2,.25,2.71l-.49.06c0-.73-.12-1.84-.24-2.71Zm.84-.23a17.56,17.56,0,0,1,.7,2.42l-.46.13a18.17,18.17,0,0,0-.68-2.44ZM115.45,87a17.83,17.83,0,0,0-1-2l.4-.17a14.31,14.31,0,0,1,1,2Zm4.92,1.78a10.69,10.69,0,0,0-1.63-1.36,6.91,6.91,0,0,1-1.65,2.32c-.11-.1-.38-.34-.53-.45a6.47,6.47,0,0,0,2.1-3.78l.69.11a9.41,9.41,0,0,1-.37,1.24,10.3,10.3,0,0,1,1.81,1.44Zm1-12.55-.27.43a13.2,13.2,0,0,0,3.79,3.18,2,2,0,0,0-.39.57,15.11,15.11,0,0,1-3.73-3.24,12.54,12.54,0,0,1-3.62,3.36c-.12-.1-.36-.31-.52-.42a11.37,11.37,0,0,0,4-4.09Zm-3.8,5.35h2.84v3.33h-2.84Zm.59,2.76h1.65V82.17h-1.65Zm5-4.18h-4.56v-.63h4.56Zm0,5.35a7.38,7.38,0,0,1-.45,1.58,12.13,12.13,0,0,1,2.07,1.8l-.46.51a13.68,13.68,0,0,0-1.88-1.74,6.21,6.21,0,0,1-1.57,2,4.51,4.51,0,0,0-.59-.45,6,6,0,0,0,2.19-3.84Zm1-.6h-2.94V81.6h2.94Zm-.6-2.76h-1.76v2.19h1.76Z" fill="#601986"/>
    </g>
  </g>
</svg>
