<svg xmlns="http://www.w3.org/2000/svg" width="184.35" height="136.28" viewBox="0 0 184.35 136.28">
  <title>index-brand-head</title>
  <g id="圖層_2" data-name="圖層 2">
    <g id="圖層_1-2" data-name="圖層 1">
      <g>
        <g>
          <path d="M15.08,48.56c3.68,0,5.62.09,9.58.34,6.09.38,10.83,2.15,10.83,6.81a5,5,0,0,1-3.82,4.88v.13c3.07.83,5.31,2.74,5.31,5.87,0,4.8-4.76,6.77-11.48,6.53-4.32-.16-6.43-.23-10.42-.25Zm9.86,10c2.45.14,4.15-.68,4.15-2.41,0-1.93-1.59-2.69-4.15-2.85-1.57-.1-2.35-.15-3.88-.22v5.27C22.59,58.42,23.37,58.46,24.94,58.56Zm.63,10.12c3.1.14,4.95-.63,4.95-2.81,0-2-1.78-2.84-4.95-3-1.83-.1-2.73-.15-4.51-.22V68.5C22.84,68.56,23.74,68.6,25.57,68.68Z" fill="#3d3a39"/>
          <path d="M65.73,72.36c-2.17-2.72-3.28-4.14-5.54-7.1-1.66.14-2.51.19-4.21.26v7.89c-2.41.14-3.64.19-6.1.23V50.51a92.57,92.57,0,0,0,10.17-.18c6.35-.44,10.85.22,10.85,5.74a8.45,8.45,0,0,1-4.83,7.51c2.58,3.13,3.84,4.57,6.27,7.38A56.4,56.4,0,0,1,65.73,72.36ZM56,61.24c1.47-.06,2.21-.09,3.65-.2,3.66-.25,5.49-1.7,5.49-3.88s-1.83-2.62-5.49-2.38c-1.44.09-2.18.12-3.65.16Z" fill="#3d3a39"/>
          <path d="M94.28,57.26c-3,1.35-4.43,2.05-7.42,3.37-.55,2.3-.82,3.44-1.37,5.71-2.2.92-3.3,1.37-5.57,2.2,3-10,4.51-15.11,7.43-26,2.62-1.24,3.91-1.89,6.51-3.16,3,8.1,4.44,12,7.47,20.06-2.29.94-3.42,1.43-5.66,2.43C95.12,60,94.84,59.1,94.28,57.26ZM93.21,53.5c-.21-.69-.32-1-.54-1.73-.62-2-1.41-4.48-2.06-6.59l-.11,0c-.63,2.79-1.39,5.91-2,8.51-.21.89-.32,1.33-.54,2.21C90.06,55,91.11,54.48,93.21,53.5Z" fill="#3d3a39"/>
          <path d="M110.64,32.25a59.18,59.18,0,0,1,5.79-1.53c2.74,3.84,4.11,5.76,6.85,9.65,1.29,2,1.93,3,3.22,5l.16,0a66.44,66.44,0,0,1-.71-8.79V28.7c2.2-.44,3.31-.65,5.52-1V51.52c-2.37.42-3.55.64-5.91,1.12-2.75-4-4.12-5.9-6.86-9.8-1.26-2-1.89-2.94-3.15-4.88l-.19,0a82.79,82.79,0,0,1,.68,8.78v7.87c-2.21.5-3.29.79-5.4,1.43Z" fill="#3d3a39"/>
          <path d="M145,25.59c3-.36,4.5-.52,7.51-.77,8.09-.67,13.51,2.9,13.51,11.23s-5.42,12-13.16,12.6c-3.14.26-4.71.42-7.86.8Zm7.25,18.52c4.48-.38,7.79-2.08,7.79-8s-3.31-7.16-7.79-6.79l-1.5.14V44.24Z" fill="#3d3a39"/>
          <path d="M26.68,104.37c1.43-1.61,2.15-2.42,3.61-4a11.08,11.08,0,0,0,6.56,2.24c2.42-.09,3.56-1,3.56-2.21s-1.51-1.73-3.85-2.52c-1.39-.47-2.08-.7-3.46-1.19-2.83-.93-5.42-3-5.42-6.49,0-4,4-7.17,9.76-7.15a14.55,14.55,0,0,1,8.88,2.91l-3.27,3.58a10,10,0,0,0-5.61-1.67c-2,0-3.25.72-3.25,2s1.71,1.8,4.13,2.56c1.36.44,2,.65,3.41,1.06,3.38,1,5.39,2.81,5.39,6.09,0,3.88-3.83,7.69-10.41,8A15.05,15.05,0,0,1,26.68,104.37Z" fill="#3d3a39"/>
          <path d="M61.92,86.58c-2.79.39-4.22.55-7.1.8V82.93A83.28,83.28,0,0,0,74.45,79.6V84c-2.5.7-3.79,1-6.46,1.56v18.13c-2.37.49-3.59.71-6.07,1.11Z" fill="#3d3a39"/>
          <path d="M81,88.51c0-7.4,4-12.9,9.8-15.31s9.68.3,9.68,7.94-3.94,13.79-9.68,15.94S81,95.9,81,88.51Zm14.29-5.4c0-4.48-1.72-6.38-4.49-5.26s-4.49,4.35-4.49,8.75,1.71,6.66,4.49,5.61S95.26,87.63,95.26,83.11Z" fill="#3d3a39"/>
          <path d="M122.35,87.08c-1.78-3-2.67-4.45-4.45-7.4l-2.79.62v8.36c-2.31.53-3.43.83-5.62,1.46V66.44c3.34-1,5.13-1.41,8.67-2.2,5.17-1.13,9.46-.23,9.46,5.51a8.89,8.89,0,0,1-4.16,7.69c2.16,3.32,3.23,5,5.39,8.34C126.25,86.27,125,86.53,122.35,87.08ZM115.11,75.8l2.6-.58c2.76-.61,4.22-2.09,4.22-4.32s-1.46-2.67-4.22-2.06l-2.6.58Z" fill="#3d3a39"/>
          <path d="M141.32,75.34c-2.91-5.74-4.36-8.58-7.27-14.22,2.46-.42,3.7-.61,6.17-1l2,5c.65,1.7,1.27,3.28,2,5h.13c.68-1.94,1.33-3.68,2-5.54.8-2.2,1.2-3.3,2-5.49,2.43-.25,3.65-.36,6.08-.54-2.93,6.35-4.39,9.56-7.31,16V83c-2.32.26-3.47.4-5.79.72Z" fill="#3d3a39"/>
        </g>
        <path d="M.26,34.08s36.28,8.55,69.68-6.84S134.53,1.15,184.35,1.15" fill="none" stroke="#880780" stroke-miterlimit="10" stroke-width="2.3"/>
        <path d="M.26,38.23s36.28,8.54,69.68-6.84S134.53,5.3,184.35,5.3" fill="none" stroke="#880780" stroke-miterlimit="10" stroke-width="2.3"/>
        <path d="M.26,128.43s36.28,8.55,69.68-6.84S134.53,95.5,184.35,95.5" fill="none" stroke="#880780" stroke-miterlimit="10" stroke-width="2.3"/>
        <path d="M.26,132.76s36.28,8.55,69.68-6.84,64.59-26.09,114.41-26.09" fill="none" stroke="#880780" stroke-miterlimit="10" stroke-width="2.3"/>
      </g>
    </g>
  </g>
</svg>
