<svg xmlns="http://www.w3.org/2000/svg" width="565.64" height="192.05" viewBox="0 0 565.64 192.05">
  <title>index-brand-deco</title>
  <g opacity="0.29">
    <g>
      <path d="M235.29,71.61a16.48,16.48,0,0,1-5.24-2.36c-7.64-4.91-12.14-2.5-16.86,5-10.43,16.57-21.76,32.6-33.16,48.53-2.72,3.8-7.2,6.34-13.05,11.32,0-6.72-.84-10.29.15-13.24,3.27-9.71,7.2-19.19,10.88-28.76,2.06-5.35,4.85-10.55,6-16.09,1.26-6.06-1-11.36-8.4-10.88-14.57,1-25,9.35-33.37,21.14l13.11-5.76L158,82.4c-5.4,12.37-7.86,27.75-16.8,36.51-20.62,20.17-44.77,37.5-73.84,43-27.66,5.23-44.84-10.76-33.58-40.45,12.28-32.38,32.69-59.41,59.63-81.3,12.24-9.94,25.68-16.72,42.19-15.4,7.65.61,10.45,4.21,8.58,11.42C143,40.82,140.84,45.26,140,50c-.4,2.32,1.27,5,2,7.52,2.46-1,5.67-1.44,7.27-3.25,6.86-7.75,8.06-25.41,2.85-34.49C142.61,3.06,113.94-5,95,4.75,48.5,28.8,17.69,66.3,2.91,116.52c-3.1,10.53-4.41,23.34,3.89,31.23,11.4,10.82,24.43,21.3,38.7,27.39,19.8,8.45,38.44-1.19,54.79-12.55,12.78-8.88,24.25-19.66,36.76-30a26.33,26.33,0,0,1,.31,4.57c-1,9.48,3.57,16.89,11.22,20.65s12.9-3.55,17.75-8.48c9.4-9.56,18.49-19.42,28.45-29.94-2.23,9.86-4.66,18.49-6.06,27.27-1.7,10.63,3.35,15.82,14,15.45,11.76-.41,30.67-15.2,34.17-26.92l-19.35,14.32L215,147.94c.22-3.24-.4-6.84.8-9.67,7.65-17.91,15.37-35.81,23.79-53.36C242.82,78.23,244.48,73.64,235.29,71.61Z" fill="none" stroke="#3d3a39" stroke-miterlimit="10" stroke-width="1.05"/>
      <path d="M539.71,102.42c-3.92,0-7.84,0-11.76,0-.48-1.3-1-2.6-1.42-3.91l26.23-17.62c.45,5.2.69,7.88,1,12.06,5.54-6.56,8.23-12.69,4.5-19.44-5.16-9.34-17.69-16.07-24.71-12.79-14.16,6.6-26.57,15.94-34.81,29.45-6.32,10.36-.14,20.89,11.81,21.73,4.47.32,9,.35,13.38,1.28,12.93,2.76,17.34,10.67,9.54,21.24-8.41,11.41-19.24,21.19-29.92,30.65-3.37,3-9.68,2.63-14.65,3.8.68-5.09.08-10.84,2.29-15.14,5.2-10.06,11.75-19.42,18.7-30.59-16.67,10.14-26.9,23.65-34.62,39.27-2.6,5.28-6.78,11-1,16.69,6.67,6.62,12.76,16.35,24.22,10.76A310.46,310.46,0,0,0,535,169.21c12.37-8.26,22.94-18.65,28-33.36C569.71,116.24,560.21,102.55,539.71,102.42Z" fill="none" stroke="#3d3a39" stroke-miterlimit="10" stroke-width="1.05"/>
      <path d="M479.44,117.18c-10.81,10.19-18.78,19-28.07,26.16-12.49,9.59-22.89,10-29.51,3.14-6.33-6.59-5-17.22,4.23-30.34,9.25,11,14.34,14,21.88,10.52,14.79-6.89,27.4-16.71,35-31.69,4.16-8.2,1.9-14.83-5.91-19.66Q468.47,70,460,64.49c-10.12-6.6-17.69-6.46-27.25.75C415.81,78,404.29,94.75,397.53,114.7c-6.91,20.41-3.53,26.69,14.86,38.12,27.86,17.31,52.64,1.85,64.56-19.94C479,129.07,478.48,123.8,479.44,117.18Zm-47.46-12A335.93,335.93,0,0,1,455.7,79c1.68-1.68,5.94-1.43,8.8-.92,1.05.19,1.49,3.74,1.74,4.45-1,10.71-18.76,30.26-28.39,32.34-1.52.33-4.51-.18-4.78-1C432.15,111.07,430.66,106.79,432,105.17Z" fill="none" stroke="#3d3a39" stroke-miterlimit="10" stroke-width="1.05"/>
      <path d="M399.62,64.05c0-7.58-5.31-9.68-12-5.91C377.39,63.89,374.83,71.29,379,82.9a15.46,15.46,0,0,1,.6,3.8c1.35,16.66-17.95,49.39-34.1,57.13.51-3.81,1.14-7.27,1.4-10.75,1-14.08,2.4-28.17,2.51-42.26,0-3.09-5.09-9.19-6.94-8.86a66.81,66.81,0,0,0-33.77,16.27c16-2.17,18,0,15.68,14.61-.76,4.75-1.76,9.47-2.71,14.18-2.31,11.45-4.66,22.88-7.05,34.64,6.67-.53,11.6-.69,16.46-1.37,4.28-.61,9.11-.79,12.55-3,4.8-3,8.66-7.62,12.7-11.77,16.38-16.84,33.23-33.52,40-57A90,90,0,0,0,399.62,64.05Z" fill="none" stroke="#3d3a39" stroke-miterlimit="10" stroke-width="1.05"/>
      <path d="M366.66,65.76c-2.81-13.55-15.41-21.2-27.85-16-8.64,3.6-16.56,9.57-23.86,15.62-8,6.6-14.83,14.52-22.66,22.35-.56-4.88.18-9.47-1.73-12.27-2.28-3.34-7.4-7.76-10.26-7.12-8.3,1.87-16.09,6-24.08,9.3,9.91,4.55,11.67,8.13,7.41,17.92-5.74,13.24-12.26,26.13-18.08,39.33-5.7,12.91-2.52,20.53,10.88,24.13,6.42,1.72,13.5,1,20.29,1.33.12-.88.25-1.76.37-2.64-11.36-3.94-7.3-12.89-4.42-19,7.48-15.9,15.52-31.73,25.2-46.36,10.41-15.76,25.46-26.29,45.07-27.7C350.69,64.05,358.57,65.31,366.66,65.76Z" fill="none" stroke="#3d3a39" stroke-miterlimit="10" stroke-width="1.05"/>
      <path d="M537.46,181c-1.44,5,1.71,9.19,7.32,8.49,3.27-.41,6.24-3.3,9.35-5.07l.39-4c-3-2.26-6.08-6.25-9.15-6.28C542.64,174.16,538.33,178.07,537.46,181Z" fill="none" stroke="#3d3a39" stroke-miterlimit="10" stroke-width="1.05"/>
    </g>
  </g>
</svg>
