<svg xmlns="http://www.w3.org/2000/svg" width="78.3" height="64.5" viewBox="0 0 78.3 64.5">
  <title>layer-4</title>
  <path d="M30.16,27.18c.9,0,1.1-.5,1.2-3.4a9.35,9.35,0,0,0,2.9,1.2c-.3,3.9-1.2,5-3.8,5h-3.6c-3.2,0-4-.9-4-3.8v-4.8h-.4c-1.4,3.9-4.3,7.1-10.9,8.9a7.61,7.61,0,0,0-1.8-2.6c5.4-1.4,8-3.6,9.2-6.3h-6.6v-5.9a2.7,2.7,0,0,0-.8.7,10.15,10.15,0,0,0-2.2-2.4,22.26,22.26,0,0,0,7.4-8.1l3.4.7a7.46,7.46,0,0,1-.7,1.2h5.3l.5-.1,2.2,1.4c-.7,1-1.6,2.4-2.5,3.5h7.1v9h-5.9v4.8c0,.9.2,1,1.2,1Zm-10.3-8.6c.2-1.1.3-2.2.4-3.4h-4.8v3.4Zm-2.2-8.4c-.6.8-1.2,1.5-1.9,2.3h5.5a19.52,19.52,0,0,0,1.7-2.3Zm6,5c-.1,1.2-.3,2.3-.5,3.4h5.5v-3.4Z" fill="#862882"/>
  <path d="M28.11,55.42a42.89,42.89,0,0,1,5.7,2.2l-2.3,1.9a61,61,0,0,0-7.5-3l1-1h-6.4l1.9.9a35.78,35.78,0,0,1-8.3,3.2,24.94,24.94,0,0,0-2.3-2.3,33.07,33.07,0,0,0,6.9-1.8h-3.5v-7.8c-.6.1-1.3.3-2,.4a12.75,12.75,0,0,0-1.5-2.5c3.1-.4,5-1,6.2-1.8h-4.3c.3-1.3.6-3.2.8-4.8h5v-1.2h-6v-1.9h6v-1.1h2.9V36h2.9v-1.2h3V36h5.6v4.7h-5.6v1.2h7.4v.8c-.1,1.6-.3,2.6-.7,3a2,2,0,0,1-1.5.6h-.4v9.1ZM15,41.82h2.5a5,5,0,0,0,.2-1.2h-2.5Zm1.5,5.3v1.1h11.4v-1.1Zm0,2.7v1.1h11.4v-1.1Zm0,3.8h11.4v-1.1H16.51Zm3.4-10a6.57,6.57,0,0,1-1.2,1.7h4.8v-1.7Zm3.6-3h-2.9c0,.4-.1.8-.1,1.2h3Zm-3-1.8h2.9v-1h-2.9Zm6-1v1.1h2.7v-1.1Zm0,5.8v1.7h2.4a3.55,3.55,0,0,0-.4-.9,9.23,9.23,0,0,0,1.5.1.73.73,0,0,0,.6-.2,1,1,0,0,0,.2-.7Z" fill="#862882"/>
  <path d="M54.5,18v9.46c0,1.09-.2,1.79-.89,2.19a6.83,6.83,0,0,1-3.09.4,8.6,8.6,0,0,0-.7-2.29h1.79c.3,0,.3-.1.3-.3V25.09c-.89.6-1.69,1.09-2.58,1.59l-.7-1.49A12.23,12.23,0,0,1,47,30.26a12.92,12.92,0,0,0-2.19-1.49c1.29-2,1.39-4.68,1.39-6.77V18H45V13.94h1V6.47H54.5v7.47h1.1V18Zm-1.19-2h-6v1.1h6Zm-4.88-2.09h1V9.76H52V8.66H48.43Zm.4,8.16a19.11,19.11,0,0,1-.1,2.39c.89-.4,2-.89,3.18-1.49V21.8L50.82,23a19,19,0,0,0-2-1.69Zm0-1.49.89-.9a19.77,19.77,0,0,1,2.19,1.6V19.12H48.83ZM52,13.94V11.45H51v2.49ZM69.33,27.48v2.29H55.5V27.48h3.08c-.2-.7-.5-1.3-.69-1.89l1.69-.5H56.79V19.91H68v5.18h-3l2,.6c-.39.69-.79,1.29-1.19,1.89h3.48Zm-.2-8.36H55.7V16.93H69.13Zm-.49-3.19H56.09V7.47h3.09V5.58h2.39V7.47h1.19V5.58h2.49V7.47h3.39ZM58.38,10.75h1.3V9.56h-1.3Zm0,3.19h1.3V12.75h-1.3Zm1.1,9.26h5.67V21.8H59.48Zm.79,1.89c.3.79.7,1.69.9,2.39h2.09c.3-.8.7-1.69.9-2.39ZM63,10.75V9.56H61.67v1.19Zm-1.29,1.9v1.19H63V12.65Zm4.58-3.09h-1.4v1.19h1.4Zm0,3.09h-1.4v1.19h1.4Z" fill="#862882"/>
  <path d="M44.7,57.13a34.5,34.5,0,0,0,1.09-5.67l1.59.6a31,31,0,0,1-1,5.67Zm15.62-5.27a10.75,10.75,0,0,1-.59,2,11,11,0,0,1,2.49,1.89l-1.5,2a11.13,11.13,0,0,0-1.89-1.59,11.83,11.83,0,0,1-2.29,3.38c-.4-.39-1.39-1.19-2-1.69a3.33,3.33,0,0,1-.3.6,1.81,1.81,0,0,1-1.49.89,9.75,9.75,0,0,1-2,.1,6,6,0,0,0-.6-2.29,9.85,9.85,0,0,0,1.49.1c.3,0,.5,0,.7-.29a5.63,5.63,0,0,0,.4-2.29l-1,.39a16.11,16.11,0,0,0-1.09-3.38l1.09-.4a19.71,19.71,0,0,1,.9,2.59,29,29,0,0,0,.1-3.19H45.89V36H55v2.49H52.26v1.69h2.29v.6a19.61,19.61,0,0,0,6.77-6.27l2.79,1a5.58,5.58,0,0,1-.5.8,22,22,0,0,0,5.87,3.58,14.64,14.64,0,0,0-1.19,2.89,22.36,22.36,0,0,1-2.49-1.49V43H58V41.71a19.18,19.18,0,0,1-1.8,1.09c-.39-.5-1.19-1.29-1.69-1.79V42.5H52.26v1.6h2.49v2.28H52.36v1.7h2.89v1a50.88,50.88,0,0,1-.6,8.66,11,11,0,0,0,3-6.27ZM48.88,52c.1,1.49.2,3.48.2,4.78l-1.4.2a40.88,40.88,0,0,0-.1-4.88Zm-.5-13.44v1.69H50V38.52Zm1.69,4.08H48.48v1.59h1.59Zm-1.69,5.48H50v-1.7H48.38Zm2,3.58a39.5,39.5,0,0,1,.8,4.28l-1.3.3A36.18,36.18,0,0,0,49.18,52ZM56,44.49h5.68v6.37H56ZM58,49h1.49V46.48H58Zm7-8.16c-1-.8-2-1.59-2.88-2.39a30.18,30.18,0,0,1-2.49,2.39Zm2,10.95a28.52,28.52,0,0,1-.69,3.09,30.91,30.91,0,0,1,3.08,2.28l-1.79,2.1a16.31,16.31,0,0,0-2.29-2,11.45,11.45,0,0,1-1.59,2.29,10.8,10.8,0,0,0-2.29-1.69,11.75,11.75,0,0,0,2.79-6.57Zm-4.48-7.27h5.88v6.37H62.51Zm2,4.48H66.2V46.48H64.51Z" fill="#862882"/>
  <line x1="39.77" y1="6.18" x2="39.77" y2="57.46" fill="none" stroke="#862882" stroke-miterlimit="10" stroke-width="0.75"/>
</svg>
