<svg xmlns="http://www.w3.org/2000/svg" width="232.26" height="176.39" viewBox="0 0 232.26 176.39">
  <title>location-head</title>
  <g id="圖層_2" data-name="圖層 2">
    <g id="圖層_1-2" data-name="圖層 1">
      <g>
        <g>
          <path d="M47.06,65.68c3.58.27,5.4.42,9,.68,5.39.39,9.72,2.26,9.72,7.89,0,2.6-1.3,5.37-3.4,6.18v.16c2.63.9,4.63,3.12,4.63,7,0,5.88-4.54,8.5-10.22,8.36-3.93-.11-5.9-.18-9.77-.32Zm8.79,12.43c2.67.16,3.86-1.08,3.86-3.1S58.48,72,55.85,71.78l-2.58-.18V78Zm.53,12.37c3,.12,4.56-1.06,4.56-3.56s-1.51-3.39-4.56-3.55l-3.11-.16v7.15Z" transform="translate(-7.95)" fill="#3d3a39"/>
          <path d="M90.62,94.43c-1.78-3.58-2.68-5.4-4.49-9.15-1.15.11-1.72.17-2.88.25v9.81c-2.41.22-3.63.3-6.09.43V67.19c3.76,0,5.61-.13,9.23-.47,5.27-.49,9.37.83,9.37,7.73,0,4.18-1.57,7.14-4.05,8.88,2.13,4.08,3.18,6,5.23,9.88C94.47,93.8,93.2,94,90.62,94.43ZM83.25,80.19c1.08-.07,1.61-.11,2.68-.21,2.82-.27,4.26-1.89,4.26-4.57s-1.44-3.36-4.26-3.11c-1.07.09-1.6.13-2.68.2Z" transform="translate(-7.95)" fill="#3d3a39"/>
          <path d="M114.75,80.87c-2.43,1-3.66,1.52-6.16,2.45-.49,2.74-.73,4.1-1.22,6.81-2.09.73-3.15,1.08-5.31,1.72q3.59-15.22,6.7-30.56c2.43-.95,3.63-1.46,6-2.52,2.55,10.68,3.8,15.63,6.31,25.82-2,.9-3.06,1.35-5.13,2.21C115.46,84.43,115.22,83.25,114.75,80.87ZM113.81,76c-.18-.88-.27-1.32-.44-2.21-.56-2.58-1.09-5.78-1.65-8.51l-.11.05c-.5,3.25-1.07,6.82-1.6,9.84l-.45,2.56C111.28,77.11,112.12,76.76,113.81,76Z" transform="translate(-7.95)" fill="#3d3a39"/>
          <path d="M127.71,52.56c2-1,3-1.44,5-2.37,2,4.77,3,7.12,5.1,11.89.81,2.27,1.22,3.41,2,5.69l.14,0c-.28-3-.68-7.09-.68-10.63V47.26c1.91-.79,2.88-1.18,4.84-1.89V75c-2.1.71-3.13,1.1-5.17,1.89-2.06-4.86-3.08-7.24-5.1-12-.8-2.21-1.2-3.31-2-5.52l-.14.06c.22,3.18.63,7,.63,10.52v9.62c-1.86.8-2.78,1.21-4.62,2Z" transform="translate(-7.95)" fill="#3d3a39"/>
          <path d="M153.24,57.65c0-9.92,5.16-16.79,11-18a7.24,7.24,0,0,1,7,2.5l-2.92,5.11a4.26,4.26,0,0,0-4-1.52c-3,.62-5.43,4.59-5.43,10.39S161,65,164.3,64.36a7.36,7.36,0,0,0,4.41-3.6l2.93,3.92c-2,3.28-4.54,5.26-7.56,5.88C158.21,71.76,153.24,67.72,153.24,57.65Z" transform="translate(-7.95)" fill="#3d3a39"/>
          <path d="M180.24,37.28c2.23-.35,3.34-.52,5.57-.84V47.76c3-.43,4.56-.63,7.61-1V35.48c2.2-.25,3.3-.36,5.5-.56V64.66c-2.2.2-3.3.31-5.5.56V53c-3,.34-4.57.54-7.61,1V66.19c-2.23.31-3.34.48-5.57.84Z" transform="translate(-7.95)" fill="#3d3a39"/>
          <path d="M27.26,108c2.23,0,3.37,0,5.69,0V132.3c3.74,0,5.67,0,9.59-.11v6.05c-6.35.12-9.46.13-15.28.13Z" transform="translate(-7.95)" fill="#3d3a39"/>
          <path d="M50.1,123c0-9.76,4.8-15.16,11.93-15.25S74,112.53,74,121.88,69.16,137.62,62,138.06,50.1,132.73,50.1,123Zm17.51-.63c0-5.6-2.14-8.76-5.58-8.67s-5.55,3.45-5.55,9.16,2.11,9.3,5.55,9.1S67.61,128,67.61,122.34Z" transform="translate(-7.95)" fill="#3d3a39"/>
          <path d="M83.25,121.18c0-9.43,5.64-15.21,11.58-16.47a7.29,7.29,0,0,1,6.9,1.87c-1.12,2-1.68,3-2.82,5a4.31,4.31,0,0,0-4-1.22c-3,.66-5.6,4.23-5.6,9.71s2.24,8.58,5.54,7.86a7.41,7.41,0,0,0,4.38-3.65c1.14,1.45,1.7,2.17,2.82,3.62-1.87,3.36-4.37,5.49-7.42,6.14C88.69,135.26,83.25,130.75,83.25,121.18Z" transform="translate(-7.95)" fill="#3d3a39"/>
          <path d="M119.76,119.07c-2.4.9-3.6,1.34-6,2.2-.48,2.83-.72,4.25-1.2,7.13-2,.69-3,1-5.14,1.68,2.15-10.22,4.34-20.43,6.5-30.65,2.37-.91,3.54-1.38,5.87-2.34,2.51,10.24,3.75,15.44,6.25,26.39l-5.09,1.91C120.46,122.84,120.22,121.57,119.76,119.07Zm-.93-5c-.17-.91-.26-1.36-.43-2.26-.55-2.64-1.07-5.83-1.62-8.48l-.11,0c-.49,3.14-1,6.65-1.56,9.67-.18,1-.27,1.54-.44,2.57Z" transform="translate(-7.95)" fill="#3d3a39"/>
          <path d="M134.27,96.87c-2.21.85-3.3,1.29-5.47,2.17V93.32A164.21,164.21,0,0,1,145,87.23v5.88c-2.34.72-3.49,1.11-5.75,1.92v23.68c-2,.67-3,1-5,1.72Z" transform="translate(-7.95)" fill="#3d3a39"/>
          <path d="M153.46,84.91c2.21-.51,3.33-.75,5.56-1.23v29.74c-2.23.49-3.35.73-5.56,1.24Z" transform="translate(-7.95)" fill="#3d3a39"/>
          <path d="M168.5,96.44c0-9.75,4.28-16.14,10.59-17.18s10.6,4,10.6,13.73-4.29,16.11-10.6,17.14S168.5,106.2,168.5,96.44ZM184,93.77c0-5.76-1.89-8.89-4.94-8.39s-4.91,4.24-4.91,10,1.87,9.09,4.91,8.59S184,99.56,184,93.77Z" transform="translate(-7.95)" fill="#3d3a39"/>
          <path d="M199.2,77.25c2.26-.2,3.39-.29,5.65-.43,2.3,5.55,3.45,8.34,5.75,14,.91,2.6,1.36,3.91,2.27,6.52H213c-.31-3.15-.75-7.42-.75-11V76.48c2.11-.06,3.17-.07,5.28-.07v29.74c-2.26,0-3.39,0-5.65.09-2.29-5.68-3.43-8.5-5.72-14.11-.91-2.55-1.36-3.83-2.27-6.37h-.15c.25,3.3.71,7.34.71,10.94v9.88c-2.11.14-3.17.22-5.28.4Z" transform="translate(-7.95)" fill="#3d3a39"/>
        </g>
        <path d="M8.19,42.54S53.92,53.31,96,33.92,177.42,1,240.21,1" transform="translate(-7.95)" fill="none" stroke="#880780" stroke-miterlimit="10" stroke-width="2.06"/>
        <path d="M8.19,47.76S53.92,58.54,96,39.14,177.42,6.26,240.21,6.26" transform="translate(-7.95)" fill="none" stroke="#880780" stroke-miterlimit="10" stroke-width="2.06"/>
        <path d="M8.19,166.92S53.92,177.69,96,158.3s81.42-32.89,144.21-32.89" transform="translate(-7.95)" fill="none" stroke="#880780" stroke-miterlimit="10" stroke-width="2.06"/>
        <path d="M8.19,172.37S53.92,183.14,96,163.75s81.42-32.88,144.21-32.88" transform="translate(-7.95)" fill="none" stroke="#880780" stroke-miterlimit="10" stroke-width="2.06"/>
      </g>
    </g>
  </g>
</svg>
