<svg xmlns="http://www.w3.org/2000/svg" width="77.26mm" height="26.75mm" viewBox="0 0 219 75.82">
  <g>
    <path d="M45.77,59.07a76.63,76.63,0,0,0,7.86-8c-.87,3-1.2,5.54-.49,6.8,1.27,2.25,3.26,5.26,4.51,5.35s1.94.8,6.56-3.79,9.55-10.56,11.63-13A98.81,98.81,0,0,0,73,56.8c-.52,4-.38,7.37,4.28,7.82,5,.48,11.28-5.88,11.28-5.88l3.59-4.18s-.09-1.83-1-.87S85.73,59.3,83.89,59c-.82-.15-1.9.24.63-8.39s8.54-17.51,8.54-17.51,2.08-3.52-.37-4a11.4,11.4,0,0,1-4.18-1.72c-1.43-.75-3.23-1.33-4.27-.52s-16.74,29.84-20,24.72c0,0-1.91-1.11,5.89-17.73,3.28-7-1.37-8-1.58-8-1.69,0-5.93-.15-14,7.28,0,0-.31,1.59.4,1.37,1.54-.47,5.07-3.38,5.44-2S59,38,56.45,43.64c-.54,1.2-1.06,2.44-1.53,3.67C30.53,68,20.49,64.54,20.49,64.54s-21.24-.9,1.37-33.08C41,4.24,54.41,10.39,54.41,10.39c4.16,2.55-2.95,10.82,0,12.63s4.91-5,4.91-5,1.5-5.32.43-7.88a11.85,11.85,0,0,0-7.26-7.34c-4.59-1.71-6-3.66-11.91-2.37C34,1.85,9.35,16.17.91,45.46c-3.42,11.88,3.91,16.3,3.91,16.3s2.27,1.62,4.7,3.78c8.28,7.35,19.87,8.19,36.25-6.47" fill="#4c2a5e"/>
    <path d="M122.78,64.45c2.29.06,2.85-1.83,4.59-.94,2.63,1.36,4,.82,4.68,0,2.55-2.28,15.32-14,19.71-23.59,4.89-10.68,4.16-19.94-1.33-17a12.57,12.57,0,0,0-5,5.48c-1.4,2.61,1.34,4.27,1.34,4.27,1.87,10.6-9.84,22.55-13.4,25.9,2.48-14.33,2.22-19.08,2.16-21.81-.14-5.55-3.14-4.45-7.13-3.09-3.41,1.17-8.74,4.72-8.74,4.72s-.54,1.73,1.27,1,6.19-4.79,4.13,7.71c-2,11.92-4.58,17.27-2.29,17.33" fill="#4c2a5e"/>
    <path d="M174.55,42.49c-1.56,1.64-5.61,4.38-6.76,3.15a3.53,3.53,0,0,1-.62-3.8c3.39-4.93,9.75-13.16,12.69-11,0,0,4,1.78-5.31,11.61M177.16,25a7,7,0,0,0-7.84-.18c-2.7,1.7-9.36,6.73-14,17.12-4.44,9.84-2.41,15.42.89,17a62.41,62.41,0,0,1,5.64,3.1,15.39,15.39,0,0,0,17.86-2.66c10.2-9.72,4.53-12.88,4.69-12.35a36,36,0,0,1-2.61,3.54c-8.57,10.26-14.4,9.92-16.3,9.08C157.77,56.21,164.9,46,164.9,46l.14-.24a8.13,8.13,0,0,0,1.71,2.53c1.42,1.15,3,6.14,12.71-1.54,4.3-3.38,11.9-11,6.56-15.86a13.51,13.51,0,0,0-2.7-1.83s-2.88-1.75-6.16-4.09" fill="#4c2a5e"/>
    <path d="M217.22,43.76c-1.55-2.33-5.79-3.42-9.55-3.17s-3.59-.5-3.59-.5c-.15-1.45,5.14-4.74,7.91-6.32s2.86.16,2.62,1.33-2.37,3.74.08,1.83,2.53-6.08,2-7.24-2.45-2.16-3.84-3.67-2.61-2.42-5.06-2.16c-3.1.32-12.55,7.79-14.93,12.32a6.43,6.43,0,0,0,.49,6.41c2,2.75,6,2.09,9.3,2.33a6.29,6.29,0,0,1,4.82,2.75s3.26,3.66-6.12,12.9-12.17,6.58-12.17,6.58c-2-3.83,6.28-14.73,7.92-16.82s-.41-1-.41-1a39.16,39.16,0,0,0-14.12,18.74c-.73,2.33,1.47,3.41,2,3.91S187,74.64,187,74.64s.32,1.58,5.39,1.09S211.19,65.9,216,58.58s2.78-12.49,1.23-14.82" fill="#4c2a5e"/>
    <path d="M108.12,48.9a.47.47,0,0,1,0-.1c8.7-18.77,17.21-21.64,22.13-22.64,3.91-.8,5.06-.53,8.32.13,7.24,1.48,1-5,1-5a10.73,10.73,0,0,0-10.23-1c-5,2.22-13,10.82-17,15.88a16.64,16.64,0,0,0,.37-1.87c.6-4.67-1.33-6.54-1.33-6.54s-1-1.38-4.57-.38a21,21,0,0,0-7.53,3.89c-1.14,1.28-.06,1.41-.06,1.41,5.31-2.3,3,4.78,3,4.78L94.71,53.91s-2.14,4.59.09,6.81a12.32,12.32,0,0,0,10.47,3.13c3.32-.65,2.1-1.89,2.1-1.89a1.78,1.78,0,0,1-2.72-1.35,16.71,16.71,0,0,1,.68-5.52c.76-1.61,1.74-3.77,2.79-6.19" fill="#4c2a5e"/>
  </g>
</svg>
