<svg xmlns="http://www.w3.org/2000/svg" width="19.51" height="492.67" viewBox="0 0 19.51 492.67">
  <title>nav-1</title>
  <g id="圖層_2" data-name="圖層 2">
    <g id="圖層_1-2" data-name="圖層 1">
      <g>
        <path d="M19,0V4.79c0,3.37-1.18,5.66-4.05,5.66A3.61,3.61,0,0,1,11.32,8h-.09a3.85,3.85,0,0,1-4,3.44C4,11.42,2.41,8.86,2.41,5.16V0ZM3.9,4.86C3.9,7.8,5,9.59,7.31,9.59c2.13,0,3.1-1.72,3.1-4.73v-3H3.9Zm8-.45c0,3,1.08,4.18,2.83,4.18,2,0,2.78-1.38,2.78-4.07V1.88H11.86Z" fill="#3d3a39"/>
        <path d="M2.41,26.49l7.14-4.14v-3.1H2.41V17.37H19v5.07c0,3.37-1.2,5.72-4.59,5.72a4.47,4.47,0,0,1-4.64-3.85L2.41,28.59Zm8.68-7.24v2.89c0,2.67,1.06,4.14,3.28,4.14s3.07-1.47,3.07-4.14V19.25Z" fill="#3d3a39"/>
        <path d="M7.63,41.64V35.47l-5.22-1.7V31.9L19,37.55v2.06L2.41,45.28v-2Zm1.47-.47,2.69-.86c1.88-.64,3.66-1.16,5.61-1.72V38.5c-2-.54-3.73-1.09-5.61-1.7L9.1,35.94Z" fill="#3d3a39"/>
        <path d="M19,50.31v1.92L8.24,58.49,4.85,60.28v.11c1.65-.11,3.46-.25,5.15-.25h9v1.79H2.41V60l10.71-6.22L16.52,52v-.11c-1.65.09-3.33.22-5,.22H2.41V50.31Z" fill="#3d3a39"/>
        <path d="M19,69.17v4.07C19,78.33,16,81,10.75,81s-8.34-2.65-8.34-7.67V69.17Zm-15,3.91c0,4,2.58,6,6.81,6s6.67-1.94,6.67-6v-2H3.94Z" fill="#3d3a39"/>
        <path d="M4.58,93.69l1.29,1.13a6.42,6.42,0,0,0-2.11,4.64c0,2.26,1.16,3.64,2.85,3.64s2.35-1.24,3.05-2.83l1.07-2.39c.65-1.54,1.78-3.37,4.2-3.37s4.32,2.17,4.32,5.11a6.57,6.57,0,0,1-2,4.81l-1.2-1a5.33,5.33,0,0,0,1.58-3.82c0-1.92-1-3.21-2.53-3.21s-2.33,1.49-2.87,2.76l-1,2.39c-.84,1.9-2,3.44-4.43,3.44s-4.64-2.15-4.64-5.56A7.73,7.73,0,0,1,4.58,93.69Z" fill="#3d3a39"/>
        <path d="M17.38,113.89v-5H19v12H17.38v-5.07h-15v-1.9Z" fill="#3d3a39"/>
        <path d="M10.75,124.93c5.27,0,8.5,2.9,8.5,7s-3.23,7-8.5,7-8.64-2.9-8.64-7S5.46,124.93,10.75,124.93Zm0,12.08c4.23,0,6.85-2,6.85-5.09s-2.62-5.07-6.85-5.07-7,2-7,5.07S6.5,137,10.75,137Z" fill="#3d3a39"/>
        <path d="M2.41,154.31l7.14-4.14v-3.09H2.41V145.2H19v5.06c0,3.37-1.2,5.73-4.59,5.73a4.47,4.47,0,0,1-4.64-3.85l-7.32,4.28Zm8.68-7.23V150c0,2.67,1.06,4.14,3.28,4.14s3.07-1.47,3.07-4.14v-2.89Z" fill="#3d3a39"/>
        <path d="M8.9,164.67l10.06-5v2l-4.79,2.22c-1.23.56-2.38,1.06-3.62,1.67v.09c1.24.59,2.39,1.15,3.62,1.67L19,169.58v1.92l-10.06-5H2.41v-1.86Z" fill="#3d3a39"/>
      </g>
      <g>
        <path d="M9.83,465.34c6.54,0,9.68,2.24,9.68,5.79s-3.16,5.74-9.68,5.74S0,474.65,0,471.13,3.24,465.34,9.83,465.34Zm0,9.49c5.51,0,8-1.49,8-3.7s-2.47-3.76-8-3.76-8.13,1.52-8.13,3.76S4.22,474.83,9.83,474.83Z" fill="#3d3a39"/>
        <path d="M2.08,482.53v4.22H16.53v-3.32h1.36a10.81,10.81,0,0,0,1.29,3.81v1.6H2.08v3.83H.33V482.53Z" fill="#3d3a39"/>
      </g>
      <line x1="8.23" y1="200.95" x2="8.23" y2="451.4" fill="none" stroke="#3d3a39" stroke-miterlimit="10" stroke-width="0.98"/>
    </g>
  </g>
</svg>
