<svg xmlns="http://www.w3.org/2000/svg" width="20.04" height="547.1" viewBox="0 0 20.04 547.1">
  <title>nav-2</title>
  <g id="圖層_2" data-name="圖層 2">
    <g id="圖層_1-2" data-name="圖層 1">
      <g>
        <path d="M2.23,0,3.47.94A5.58,5.58,0,0,0,1.56,5.15c0,2,1.61,3.7,4.14,3.7s4-1.42,4-3.61a4.72,4.72,0,0,0-1-2.85l.64-1,7.82.53v8H15.52V3.54l-5.1-.46a5.14,5.14,0,0,1,.71,2.62c0,2.78-1.66,5-5.38,5A5.43,5.43,0,0,1,0,5.31,7,7,0,0,1,2.23,0Z" fill="#3d3a39"/>
        <path d="M8.71,23.8c5.41,0,8.72,3.13,8.72,7.39a6.16,6.16,0,0,1-2,4.57L14.14,34.7a4.56,4.56,0,0,0,1.61-3.49c0-3.29-2.67-5.45-7-5.45s-7.08,2.07-7.08,5.38a5.11,5.11,0,0,0,1.93,4l-1.2,1.06A6.4,6.4,0,0,1,0,31.05C0,26.89,3.26,23.8,8.71,23.8Z" fill="#3d3a39"/>
        <path d="M8.78,40.36c5.36,0,8.65,3,8.65,7.11S14.14,54.6,8.78,54.6,0,51.65,0,47.47,3.4,40.36,8.78,40.36Zm0,12.28c4.3,0,7-2,7-5.17s-2.67-5.15-7-5.15-7.1,2-7.1,5.15S4.46,52.64,8.78,52.64Z" fill="#3d3a39"/>
        <path d="M17.13,61v2.35l-9.2,3.31c-1.19.41-2.39.8-3.58,1.22V68c1.19.42,2.39.78,3.58,1.18l9.2,3.28v2.35H.3V73H10c1.42,0,3.4.14,4.87.23v-.09L11.08,71.8,2,68.51V67.2l9.06-3.31,3.82-1.33v-.09c-1.47.09-3.45.23-4.87.23H.3V61Z" fill="#3d3a39"/>
        <path d="M17.13,82.13v2.35l-9.2,3.31c-1.19.41-2.39.8-3.58,1.22v.11c1.19.42,2.39.78,3.58,1.17l9.2,3.29v2.35H.3V94.16H10c1.42,0,3.4.14,4.87.23V94.3L11.08,93,2,89.67V88.36l9.06-3.31,3.82-1.33v-.09c-1.47.09-3.45.23-4.87.23H.3V82.13Z" fill="#3d3a39"/>
        <path d="M17.13,103.29v1.91H.3v-1.91Z" fill="#3d3a39"/>
        <path d="M15.52,116.08V111h1.61v12.21H15.52V118H.3v-1.93Z" fill="#3d3a39"/>
        <path d="M17.13,128.89v2.35l-9.2,3.31c-1.19.41-2.39.8-3.58,1.22v.11c1.19.41,2.39.78,3.58,1.17l9.2,3.29v2.35H.3v-1.77H10c1.42,0,3.4.13,4.87.23v-.1l-3.82-1.33L2,136.43v-1.31l9.06-3.31,3.82-1.33v-.09c-1.47.09-3.45.23-4.87.23H.3v-1.73Z" fill="#3d3a39"/>
        <path d="M17.13,150.05v9.59H15.52V152H10v6.46H8.37V152H1.91v7.93H.3v-9.84Z" fill="#3d3a39"/>
        <path d="M17.13,166.15v1.95l-10.9,6.37-3.45,1.82v.12c1.68-.12,3.52-.26,5.24-.26h9.11V178H.3v-2l10.9-6.32,3.45-1.84v-.12c-1.68.1-3.38.23-5.13.23H.3v-1.79Z" fill="#3d3a39"/>
        <path d="M15.52,188.85v-5.13h1.61v12.21H15.52v-5.15H.3v-1.93Z" fill="#3d3a39"/>
      </g>
      <g>
        <path d="M10.2,518.91c6.64,0,9.84,2.28,9.84,5.89s-3.22,5.83-9.84,5.83-10-2.25-10-5.83S3.5,518.91,10.2,518.91Zm0,9.66c5.6,0,8.11-1.52,8.11-3.77S15.8,521,10.2,521s-8.27,1.54-8.27,3.82S4.49,528.57,10.2,528.57Z" fill="#3d3a39"/>
        <path d="M1.82,535.24c5.34,6.12,9.22,8.85,12.54,8.85,2.25,0,3.95-1.18,3.95-3.64A5.57,5.57,0,0,0,16,536.37l1.21-1.26a7.28,7.28,0,0,1,2.8,5.57c0,3.41-2.2,5.5-5.6,5.5-3.88,0-7.83-3-12.22-7.72.1,1,.15,2.17.15,3.14v5.5H.54V535.24Z" fill="#3d3a39"/>
      </g>
      <line x1="9.13" y1="220.36" x2="9.13" y2="475.02" fill="none" stroke="#3d3a39" stroke-miterlimit="10"/>
    </g>
  </g>
</svg>
