<svg xmlns="http://www.w3.org/2000/svg" width="232.26" height="176.39" viewBox="0 0 232.26 176.39">
  <title>news-head</title>
  <g>
    <g>
      <path d="M32.54,64.69c2.17,0,3.28,0,5.54.11,2.29,5.81,3.46,8.78,5.83,14.69.93,2.73,1.4,4.09,2.35,6.81h.16c-.32-3.22-.78-7.58-.78-11.18V65.2c2.2.14,3.31.22,5.55.39V95.53l-5.93-.21c-2.37-5.93-3.54-8.92-5.84-14.87-.92-2.69-1.37-4-2.27-6.71H37c.24,3.38.71,7.55.71,11.24V95.09c-2.11,0-3.14-.06-5.17-.07Z" transform="translate(-13.53)" fill="#3d3a39"/>
      <path d="M62.55,66.45c6.35.44,9.56.66,15.85.74V73c-3.9,0-5.88-.11-9.82-.31v5.44c3.35.15,5,.2,8.35.24v5.79c-3.32,0-5,0-8.35-.15v6.16c4.09.09,6.14.1,10.18,0v5.7c-6.42.2-9.72.15-16.21,0Z" transform="translate(-13.53)" fill="#3d3a39"/>
      <path d="M86.76,67.06c2.37-.11,3.55-.19,5.86-.43.6,5.31.89,7.89,1.48,13,.38,3.53.57,5.27.94,8.72h.13c.43-3,.9-6.06,1.36-9,.94-5.28,1.41-8,2.33-13.52,1.82-.33,2.72-.53,4.48-1,.92,5.17,1.37,7.65,2.27,12.52.43,2.76.81,5.64,1.23,8.48l.15-.05c.25-3,.54-6.08.79-9.08.55-5.3.82-8,1.36-13.56,1.91-.64,2.85-1,4.7-1.7q-1.68,14.79-3.55,29.56c-2.51.82-3.79,1.2-6.42,1.88-.78-4.56-1.18-6.84-2-11.5-.36-2-.66-4.26-.87-6.36l-.15,0c-.27,2.2-.54,4.53-.87,6.73-.78,5-1.18,7.46-2,12.36-2.71.49-4.09.68-6.91,1Q88.88,81.07,86.76,67.06Z" transform="translate(-13.53)" fill="#3d3a39"/>
      <path d="M119.8,83.9c1.07-2.3,1.6-3.46,2.66-5.79a4.62,4.62,0,0,0,4.72.78,3.89,3.89,0,0,0,2.52-3.65c0-1.65-1.06-1.7-2.73-2l-2.47-.39c-2-.26-4-1.88-4-6.07,0-4.84,3-10.17,7.06-12.17a5.15,5.15,0,0,1,6.27.84c-.92,2.23-1.39,3.34-2.31,5.55a3.64,3.64,0,0,0-4-.33,3.88,3.88,0,0,0-2.32,3.54c0,1.6,1.23,1.64,2.94,1.84l2.41.29c2.38.3,3.81,2.07,3.81,6.14,0,4.82-2.69,10.23-7.36,12.29A6.62,6.62,0,0,1,119.8,83.9Z" transform="translate(-13.53)" fill="#3d3a39"/>
      <path d="M163.26,64.46c-2.62.57-4,.84-6.52,1.51-.51,2.87-.76,4.3-1.25,7.17-2.1.57-3.13.89-5.16,1.56q3.24-15.86,6.58-31.69c2.5-.65,3.8-.91,6.35-1.46q3.45,14.14,6.88,28.29c-2.24.46-3.36.69-5.6,1.17C164,68.39,163.77,67.08,163.26,64.46Zm-1-5.3-.48-2.41c-.59-2.83-1.16-6.26-1.76-9.17l-.12,0c-.53,3.24-1.13,6.86-1.69,10-.19,1-.28,1.58-.47,2.63C159.52,59.75,160.44,59.56,162.25,59.16Z" transform="translate(-13.53)" fill="#3d3a39"/>
      <path d="M177.47,38.67c2.17-.4,3.25-.59,5.42-1,2.21,5.33,3.31,8,5.51,13.36.87,2.51,1.31,3.76,2.18,6.28l.15,0c-.3-3.11-.72-7.33-.72-10.89V36.6c2-.3,3-.44,5.07-.69V65.65c-2.17.28-3.26.43-5.43.74-2.19-5.42-3.28-8.12-5.48-13.5L182,46.74l-.15,0c.24,3.27.68,7.28.68,10.87v9.88c-2,.34-3,.52-5.06.9Z" transform="translate(-13.53)" fill="#3d3a39"/>
      <path d="M205.24,34.83c2.55-.22,3.82-.31,6.37-.46,6.76-.38,11.23,4,11.23,14.39s-4.47,15-10.93,15.34c-2.67.15-4,.25-6.68.47Q205.23,49.71,205.24,34.83Zm6,23.55c3.58-.21,6.11-2.46,6.11-9.54s-2.53-9-6.11-8.77l-.71,0V58.42Z" transform="translate(-13.53)" fill="#3d3a39"/>
      <path d="M60.92,108.3c6.34,0,9.56,0,15.86-.33v5.65c-3.91.24-5.89.31-9.84.41v5.4c3.36-.13,5-.2,8.37-.42v5.81c-3.33.24-5,.34-8.37.5v6.23c4.1-.22,6.15-.36,10.21-.72v5.92c-6.45.6-9.74.8-16.23,1.09Z" transform="translate(-13.53)" fill="#3d3a39"/>
      <path d="M84.43,107.47c2.47-.22,3.7-.34,6.11-.65,1.09,4.89,1.63,7.32,2.7,12.26.69,2.9,1.13,5.76,1.82,8.77l.15,0c.66-3.25,1.15-6.28,1.8-9.41,1-5.3,1.55-7.89,2.56-13.08,2.2-.46,3.28-.71,5.39-1.26-2.23,9.9-4.48,19.79-6.66,29.7-2.62.53-4,.76-6.67,1.2C89.33,125.77,86.89,116.61,84.43,107.47Z" transform="translate(-13.53)" fill="#3d3a39"/>
      <path d="M111.88,102c5.21-1.71,7.68-2.71,12.61-4.72v5.61c-3.06,1.21-4.59,1.81-7.74,2.94v5.19c2.67-.93,4-1.43,6.59-2.43v5.76c-2.61,1-3.92,1.46-6.59,2.38v6.09c3.26-1.1,4.86-1.69,8-2.87v5.92c-5,1.86-7.57,2.78-12.9,4.41Z" transform="translate(-13.53)" fill="#3d3a39"/>
      <path d="M133,93.79c1.89-.79,2.83-1.19,4.74-2,1.93,4.76,2.91,7.17,4.88,12.1.78,2.33,1.17,3.5,2,5.86l.14,0c-.27-3.06-.65-7.17-.65-10.68V89.38c1.83-.67,2.75-1,4.62-1.62v29.63c-2,.62-3,.94-4.94,1.6-2-5.1-2.94-7.62-4.88-12.55-.76-2.28-1.14-3.41-1.91-5.65l-.13,0c.21,3.15.6,7,.6,10.56v9.82L133,122.86Z" transform="translate(-13.53)" fill="#3d3a39"/>
      <path d="M162.62,90c-2.4.53-3.61.78-6,1.36V85.41C163.45,83.7,167,83,174,81.69v5.92c-2.41.46-3.61.71-6,1.21v23.83c-2.13.44-3.2.67-5.33,1.14Z" transform="translate(-13.53)" fill="#3d3a39"/>
      <path d="M180.2,106.56c1.2-2.18,1.8-3.26,3-5.43a6.81,6.81,0,0,0,5.39,2.18c2-.3,2.89-1.42,2.89-3s-1.22-2.11-3.13-2.9l-2.83-1.16c-2.32-.87-4.5-3.09-4.5-7.41,0-5,3.34-9.59,8-10.29a7.78,7.78,0,0,1,7.21,2.94l-2.65,4.82a5.33,5.33,0,0,0-4.56-1.64,2.8,2.8,0,0,0-2.65,2.88c0,1.64,1.4,2.06,3.37,2.81l2.77,1.09c2.74,1.1,4.38,3.4,4.38,7.59,0,5-3.1,9.66-8.46,10.46A9.38,9.38,0,0,1,180.2,106.56Z" transform="translate(-13.53)" fill="#3d3a39"/>
    </g>
    <path d="M13.76,42.54s45.73,10.77,87.82-8.62S183,1,245.79,1" transform="translate(-13.53)" fill="none" stroke="#880780" stroke-miterlimit="10" stroke-width="2.06"/>
    <path d="M13.76,47.76s45.73,10.78,87.82-8.62S183,6.26,245.79,6.26" transform="translate(-13.53)" fill="none" stroke="#880780" stroke-miterlimit="10" stroke-width="2.06"/>
    <path d="M13.76,166.92s45.73,10.77,87.82-8.62S183,125.41,245.79,125.41" transform="translate(-13.53)" fill="none" stroke="#880780" stroke-miterlimit="10" stroke-width="2.06"/>
    <path d="M13.76,172.37s45.73,10.77,87.82-8.62S183,130.87,245.79,130.87" transform="translate(-13.53)" fill="none" stroke="#880780" stroke-miterlimit="10" stroke-width="2.06"/>
  </g>
</svg>
