<svg xmlns="http://www.w3.org/2000/svg" width="137.58mm" height="60.43mm" viewBox="0 0 390 171.28">
  <g>
    <g>
      <path d="M47.57,163.3h5v-5.05h-5Zm-2.31,3.54V156.21h9.67v9.12H47.57v1.51ZM43,153.29v-2.22h20.7v2.22H60.92V167.1q.07,3.19-3.25,3.37H53.82c-.12-.71-.26-1.45-.43-2.22h3.25c1.37.06,2-.56,1.88-1.86v-13.1Z" fill="#fff"/>
      <path d="M83.91,163l-1.54-1.51c-.57.54-1.16,1.07-1.79,1.6a8.33,8.33,0,0,0-.94-1.06l1-.8a5.2,5.2,0,0,1,.69-.62l-1.63-1.51.94-1,1.71,1.5a16.16,16.16,0,0,0,1.37-1.59l1.11.8-.08.09a13.72,13.72,0,0,1-1.46,1.59,1.17,1.17,0,0,0,.26.18c.4.35.86.79,1.37,1.33Zm-.08,5.22-1.54-1.32c-.12.11-.31.29-.6.53a4.24,4.24,0,0,1-1.2,1c-.28-.29-.6-.59-.94-.88.63-.54,1.23-1.07,1.8-1.6l-1.63-1.68.94-.89a1.17,1.17,0,0,0,.26.18c.4.35.86.8,1.37,1.33.51-.53,1-1.06,1.45-1.6l1,.89a19.52,19.52,0,0,1-1.46,1.68l1.54,1.51ZM76,163.12l-1.54-1.51a21.78,21.78,0,0,1-1.8,1.51,7.26,7.26,0,0,0-.94-1l.6-.53c.23-.17.6-.5,1.11-1a19.29,19.29,0,0,1-1.62-1.51l.94-.88,1.71,1.5a17.62,17.62,0,0,0,1.37-1.59l1.11.8-.6.62c-.4.47-.71.82-.94,1.06a1,1,0,0,0,.26.18c.4.35.85.79,1.37,1.32Zm.08,5.22-1.71-1.5a12,12,0,0,1-1.88,1.59,6,6,0,0,0-.94-1,16.06,16.06,0,0,0,1.8-1.6l-1.54-1.59.94-.89,1.62,1.51c.52-.53,1-1.06,1.46-1.6l1.11.89c-.51.53-1,1.09-1.54,1.68a12.59,12.59,0,0,1,1,1,5.35,5.35,0,0,0,.68.62Zm1.12,1.86V157.54H71.42v13.11H69.29V156l-.77.18a9.7,9.7,0,0,1-.43-1.06,3.72,3.72,0,0,0-.17-.53q3.93-1.06,7-2L75.7,154l-5.81,1.86h7.27V152.4h-9v-1.77H88.53v1.77H79.38v3.46H87c-.91-.3-2.42-.77-4.53-1.42-.68-.18-1.2-.32-1.54-.44l.68-1.42c2.46.59,4.85,1.27,7.19,2l-.51,1.59-.86-.27V168a2.11,2.11,0,0,1-2.48,2.48q-.94.09-2.91.09c0-.18-.11-.45-.17-.8s-.2-.71-.26-.89q.86.09,2.4.09c.91,0,1.34-.35,1.28-1.06V157.54h-5.9V170.2Z" fill="#fff"/>
      <path d="M104.26,166.31a10.33,10.33,0,0,0,3-2.93H101a5.23,5.23,0,0,0-.52.71,7,7,0,0,1-.68.89c1.42.41,2.91.85,4.45,1.33M93.39,151.07H99v1.78H93.39Zm18,4.79-.68-.27a12.09,12.09,0,0,0-1.37-.44l1-2h-3.25v.27a1.33,1.33,0,0,0-.09.35c.8,2.42,3,4,6.59,4.69l-1,2q-5-1.41-6.42-4.25-1,2-4.36,3.45l1.37.36a12.7,12.7,0,0,1-.94,1.41h11v1.86H109.9a13.61,13.61,0,0,1-3.08,3.72c.69.18,1.71.48,3.08.89l3.08.79-1,2c-1-.35-2.34-.79-4.11-1.33-1.48-.53-2.59-.91-3.34-1.15q-3.49,1.77-10.35,2.57c0-.18-.2-.53-.42-1.06s-.32-.83-.43-1.07a39.16,39.16,0,0,0,8.13-1.23l-2.91-.89-.6.62-2.14-.8c.91-1.06,1.74-2.09,2.48-3.1h-5v-1.86h6.42l.77-1.24-.69.18c0-.12-.17-.32-.34-.62l-.77-1.33c3.54-.82,5.56-2.09,6.08-3.8a6.77,6.77,0,0,0,.34-1.51h-2.31a25.62,25.62,0,0,1-2.23,2.92,14.81,14.81,0,0,0-1.71-1.41,13.9,13.9,0,0,0,3.34-5.14l2.14.26c-.17.48-.37,1-.6,1.51h9.07v1.86Zm-16.85,4.51-1.45-1.77q2.56-1.86,4.7-3.72a13.63,13.63,0,0,0,1.46,1.68Z" fill="#fff"/>
      <path d="M128.62,163.92a13.25,13.25,0,0,0,3.51-7h-6.42c-.62,1.59-1.28,3.16-2,4.69,1.93.89,3.56,1.66,4.87,2.31m-10.6-7v-2.21h5.9c0-.18.14-.45.25-.8a36.58,36.58,0,0,0,1.29-4.34l2.73.62c-.4,1.3-.94,2.8-1.62,4.52h11.89v2.21H134.7a16.63,16.63,0,0,1-3.6,8.15l4.11,2a19.6,19.6,0,0,0,2.56,1.24l-1.53,2.3c-.92-.53-2.34-1.32-4.28-2.39q-1.89-.88-2.82-1.41-3.16,2.29-9.76,4a10,10,0,0,1-.68-1.15c-.29-.53-.51-.94-.68-1.24a26.41,26.41,0,0,0,8.64-2.83c-1.26-.71-2.54-1.39-3.85-2a5.32,5.32,0,0,0-.43.89,1.25,1.25,0,0,1-.17.35L120,163.65a63.92,63.92,0,0,0,3.08-6.73Z" fill="#fff"/>
      <path d="M151.7,159.75l-.94-.44a9.67,9.67,0,0,0-1-.35,27.9,27.9,0,0,0,2.31-7.8l2.13.36c-.05.35-.17.88-.34,1.59-.11.53-.2.92-.25,1.15h2.31v-4.6h2.3v4.6h4.88v2.22H158.2v4.42h4.54v2.22H158.2v4.78h5.39v1.95H149.74V167.9h6.16v-4.78h-5V160.9h5v-4.42h-3a30.36,30.36,0,0,1-1.2,3.27m-2.22-2.65a15.31,15.31,0,0,0-1.54-1.42v15h-2.22V149.66h2.22v3.45a25.47,25.47,0,0,1,2.57,2Zm-5,3.45a4.83,4.83,0,0,0-1.62-.27c.17-.82.37-2.24.6-4.25.11-.88.2-1.5.25-1.86l1.54.18c-.23,2-.48,4-.77,6.2" fill="#fff"/>
      <path d="M204,170.91l-1-1.51a5,5,0,0,0-.43-.53q5.22-1.94,5.74-6.28a8.72,8.72,0,0,0,.17-1.77h-3.25V159a20.14,20.14,0,0,1-1.89,1.5c-.39-.71-.82-1.44-1.28-2.21a18.22,18.22,0,0,0,6.5-7.44l2.14,1a23.73,23.73,0,0,1-5.22,6.91h13.78a14.93,14.93,0,0,1-4.88-7h-2.65v-2h4.19a16,16,0,0,0,7.1,8.41,14.78,14.78,0,0,0-1.37,2.39l-.77-.53c-.34-.23-.86-.62-1.54-1.15-.06.77-.11,2.12-.17,4.07-.12,1.72-.17,2.9-.17,3.55q-.09,4-4.11,3.89c-.45,0-1.11,0-2,.09h-1.36a19.48,19.48,0,0,0-.43-2.3q1.62.09,3.42.09c1.37.06,2.08-.68,2.14-2.22.11-1.89.17-3.6.17-5.13h-6a19.75,19.75,0,0,1-.25,2q-.34,5.42-6.59,8.06" fill="#fff"/>
      <path d="M242.15,163.12h2.73v-1.33h-2.73Zm2.73-4h-2.73v1.33h2.73Zm-6.07-6.2a16.16,16.16,0,0,1,1.37,2h2l1.28-2Zm-1.45,10.19h2.82v-1.33h-2.82Zm0-2.66h2.82v-1.33h-2.82Zm-2.23-7.53v-1.5h5v-1.77h2v1.77h5.05v1.5h-3.42l1.79.36L244.37,155h3.34v1.59h-13V155H238c-.12-.18-.29-.47-.52-.88s-.48-.63-.6-.8l1.71-.36Zm-1.79,13.2-1.2-.36a3.31,3.31,0,0,0,.17-.61c.23-.77.54-1.75.94-2.93l1.2.27q-.34,1.32-1.11,3.63m-5.05.35c-.06-.23-.14-.59-.26-1.06-.28-1.18-.54-2.09-.77-2.75l1.29-.35q.51,1.68,1,3.72Zm5.22-10.89A6.7,6.7,0,0,1,233,155c-.8-1.12-1.42-1.95-1.88-2.48a22.5,22.5,0,0,1-2.14,3.1h4.45v1.68H231.8v2.13h2.48v1.77H231.8v6.2l2.48-.36v1.51h5.9v-1.15h-5.05v-1.51h5.05v-1.41h-4.7V157.8h11.29v6.65h-4.62v1.41h5v1.51h-5v1.15h5.73v1.59H234.19v-1.24c-1,.12-2.34.33-4.1.62-1.2.18-2.11.33-2.74.45l-.26-1.95a21.43,21.43,0,0,0,2.91-.36v-6.46h-2.65V159.4H230v-2.13h-1.63v-1.06l-.51.62c-.17-.35-.4-.82-.68-1.42-.12-.23-.2-.41-.26-.53a13.52,13.52,0,0,0,3.42-5.31l2.06.26-.43.89c.45.47,1.08,1.18,1.88,2.13.45.47.8.85,1,1.15Z" fill="#fff"/>
      <path d="M269.93,152.05h-1.79v2h1.79Zm-1.88,14a32.86,32.86,0,0,0,2.74-2.13H266.6a6.34,6.34,0,0,0,1.45,2.13m-3.34-12h1.8v-2h-1.8Zm-2.82,8.42h7.44V161h-7.44Zm-.6-8.42h1.8v-2h-1.8Zm-1.88-3.45h12.4v4.87h-12.4Zm-.77,6.11h14v1.6h-14Zm-6.33-3.27v-2.13h6v2.13h-2v4.95h1.8v2h-1.8v5.4l2.05-.44v1.68a14.94,14.94,0,0,0,5.31-3.19h-3.85v-4.42h11.55v4.42h-.26l1.11,1.16c-1,.71-2,1.41-2.91,2.12a15.61,15.61,0,0,0,3.51,1.33,13.94,13.94,0,0,0-.77,1.42,1,1,0,0,1-.17.35q-5.22-1.77-6.84-5.31c-.35.35-.75.74-1.2,1.15v2.3q.42-.09,1.2-.18c.62-.17,1.11-.32,1.45-.44a15,15,0,0,0,.09,1.68c-.52.18-1.34.42-2.48.71s-2.06.62-2.57.8l-.69-1.68a.61.61,0,0,0,.26-.09,2.64,2.64,0,0,0,.77-.27v-1.5a30.28,30.28,0,0,1-3.16,1.41c.11-.06,0,0-.26.09-.06-.12-.17-.32-.34-.62a2.57,2.57,0,0,0-.34-.53,3.61,3.61,0,0,0-.69.09,37.83,37.83,0,0,0-4.7,1l-.35-2.12,2.31-.44v-5.85h-2v-2h2v-4.95Z" fill="#fff"/>
      <path d="M295.15,155.06a24,24,0,0,0-2.39-3.1l1.62-1.15c.29.35.74.89,1.37,1.59s.89,1,1.11,1.33Zm-8.72,15.59a5.51,5.51,0,0,0-.6-.71l-.86-1.15v1.86h-2.05v-7.8h-2v1.51a9.42,9.42,0,0,1-2.31,6.37l-.51-.53c-.51-.41-.88-.71-1.11-.88a6.91,6.91,0,0,0,2.05-5v-1.42h-1.88v-2.12h5.73V157.8h-2.57v1h-2v-8h2v4.87h2.57v-5.76H285v18.51q4.2-3.54,4.71-10.27H286V156h3.85q.09-2.22.09-6.12h2.3c-.05.65-.08,1.66-.08,3s-.09,2.39-.09,3.1h5.48v2.21h-5.31a14.78,14.78,0,0,0,5.65,10.27,25.84,25.84,0,0,0-1.54,2.13,17.09,17.09,0,0,1-5.22-8.95,15.76,15.76,0,0,1-4.7,9" fill="#fff"/>
      <path d="M316,162.06h3.08v-1.42H316Zm3.08-4.08H316v1.42h3.08Zm.77-5.67H316v1.51h3.85Zm-9,9.75h3v-1.42h-3Zm0-2.66h3V158h-3Zm-.86-5.58h3.85v-1.5H310Zm-2,.35v-3.63h13.94v3.63h-1.54v1.15H316v1.33h5.13v6.73H316v1.42h6.24v1.6H316v1.85h-2.14V166.4h-6.16v-1.6h6.16v-1.42h-5.13v-6.73h5.13v-1.33h-4.36v-1.15Zm-1.88.09q-1.8-1.68-3.6-3.1l1.37-1.5a32.06,32.06,0,0,1,2.66,2.12l1,.8Zm-3.17,16.39-.94-2.4c.86-.82,1.66-1.56,2.4-2.21v-4.6h-2.23v-2h4.37V166c1,1.48,2.59,2.21,4.87,2.21q5.39.09,11.46,0a6.12,6.12,0,0,0-.25.71,5.56,5.56,0,0,0-.43,1.33H315.5c-1.72,0-3.23,0-4.54-.09a6.85,6.85,0,0,1-5.47-2.3,34,34,0,0,0-2.57,2.75m2.48-12a43.42,43.42,0,0,0-3.5-3.1l1.36-1.59a29.51,29.51,0,0,1,3.6,3Z" fill="#fff"/>
      <path d="M334.05,162.5h2.48v-1.42h-2.48Zm2.48-4.25h-2.48v1.42h2.48Zm-6.85,4.25h2.48v-1.42h-2.48Zm0-2.84h2.48v-1.41h-2.48ZM328,152.58a4.67,4.67,0,0,0-.08-.62c-.12-.47-.21-.83-.26-1.06q4.62,0,10.26-.45l.43,1.6q-.6,0-1.62.09c-1.2.12-2.09.17-2.65.17v1.51h4.61v1.68h-4.61v1.24h4.27v7.18h-4.27v1.41h4.27v1.51h-4.27v1.41c.51,0,1.25,0,2.22-.08a19.11,19.11,0,0,0,2.22-.09v.53q2.4-2.93,2.4-10.72V156h-1.54v-2.12H341v-4.25H343l-.09,4.25h4q0,8.33-.26,13.37c0,2-.82,3-2.48,3a19,19,0,0,1-2.22.09,8.1,8.1,0,0,1-.17-1.06c-.12-.53-.2-.89-.26-1.07h1.8c.91,0,1.37-.53,1.37-1.59V166q.25-6.81.25-9.92h-2.13v1.69q-.09,9-3.26,13.19a8.31,8.31,0,0,0-1.28-1.24c-3.48.06-7.18.24-11.12.53l-.17-1.86,5.13-.09v-1.41h-4.53v-1.51h4.53v-1.41h-4.27v-7.18h4.27V155.5h-5v-1.68h5V152.4a18,18,0,0,1-2.13.09c-.86.06-1.55.09-2.06.09" fill="#fff"/>
      <path d="M178.56,154.36c0-2-.81-2.53-2.1-2.53s-2.1.6-2.1,2.18v1.42h-3.83v-1.2c0-3.54,2.06-5.56,6-5.56s6,2,6,5.56v.57c0,2.37-.88,3.82-2.84,4.51v.07c2,.76,2.84,2.37,2.84,4.61v1.74c0,3.53-2.06,5.55-6,5.55s-6-2-6-5.55v-1.84h3.83V166c0,1.57.81,2.18,2.1,2.18s2.1-.54,2.1-2.5v-1.74c0-2-.81-2.81-2.65-2.81h-1.37v-3.15h1.59c1.51,0,2.43-.57,2.43-2.34Z" fill="#fff"/>
      <path d="M189.06,166c0,1.58.81,2.18,2.1,2.18s2.1-.6,2.1-2.18V154c0-1.58-.81-2.18-2.1-2.18s-2.1.6-2.1,2.18ZM185,154.23c0-3.54,2.17-5.56,6.15-5.56s6.15,2,6.15,5.56v11.5c0,3.53-2.17,5.55-6.15,5.55s-6.15-2-6.15-5.55Z" fill="#fff"/>
    </g>
    <g>
      <path d="M81.5,105.2A136.66,136.66,0,0,0,95.51,91c-1.55,5.33-2.14,9.87-.88,12.12,2.26,4,5.81,9.37,8,9.53s3.46,1.43,11.68-6.75,17-18.81,20.72-23.12c0,0-4.46,13.49-5.12,18.38-.94,7-.68,13.13,7.61,13.92,8.93.86,20.08-10.47,20.08-10.47l6.4-7.45s-.17-3.25-1.8-1.53-9.56,10-12.84,9.4c-1.45-.25-3.38.43,1.12-14.93s15.21-31.17,15.21-31.17,3.71-6.28-.66-7.14a19.88,19.88,0,0,1-7.43-3.05c-2.55-1.35-5.77-2.37-7.61-.93s-29.81,53.13-35.62,44c0,0-3.4-2,10.49-31.57C130.72,47.8,122.45,46,122.07,46c-3,0-10.55-.26-24.86,13,0,0-.54,2.82.71,2.43,2.74-.83,9-6,9.69-3.59s-2.62,10-7.09,19.93c-1,2.15-1.88,4.35-2.71,6.54-43.44,36.87-61.33,30.68-61.33,30.68S-1.33,113.33,38.94,56c34-48.48,58-37.52,58-37.52,7.42,4.55-5.25,19.26.07,22.49s8.75-8.91,8.75-8.91,2.66-9.48.76-14S101.72,8,93.55,5,82.93-1.55,72.34.74C60.48,3.3,16.66,28.79,1.62,81c-6.1,21.17,7,29,7,29s4,2.88,8.37,6.74C31.7,129.81,52.34,131.29,81.5,105.2" fill="#fff"/>
      <path d="M218.65,114.78c4.08.11,5.08-3.26,8.18-1.67,4.67,2.41,7.09,1.45,8.33,0,4.53-4.06,27.27-24.93,35.09-42,8.71-19,7.41-35.5-2.35-30.31-3.64,1.93-6.36,5.11-8.89,9.75s2.39,7.6,2.39,7.6c3.32,18.89-17.54,40.16-23.88,46.13,4.42-25.52,4-34,3.85-38.85-.24-9.88-5.59-7.92-12.69-5.5-6.08,2.09-15.56,8.4-15.56,8.4s-1,3.09,2.25,1.84,11-8.54,7.35,13.73c-3.5,21.24-8.15,30.76-4.07,30.87" fill="#fff"/>
      <path d="M310.84,75.68c-2.77,2.91-10,7.78-12,5.6-1.84-2-1.92-4.28-1.1-6.78,6-8.77,17.36-23.42,22.59-19.51,0,0,7.18,3.18-9.45,20.69m4.66-31.2a12.46,12.46,0,0,0-14-.31c-4.81,3-16.66,12-25,30.48-7.91,17.52-4.3,27.47,1.58,30.25s6.69,3.68,10,5.52,18.51,8,31.81-4.73c18.16-17.31,8.07-22.94,8.35-22A63.55,63.55,0,0,1,323.66,90c-15.26,18.27-25.63,17.67-29,16.17-13.67-6.06-1-24.23-1-24.23l.26-.43a14.45,14.45,0,0,0,3,4.5c2.54,2,5.37,10.94,22.63-2.73,7.66-6,21.2-19.68,11.68-28.26a24.11,24.11,0,0,0-4.79-3.25s-5.13-3.12-11-7.29" fill="#fff"/>
      <path d="M386.83,77.93c-2.76-4.16-10.32-6.09-17-5.64s-6.4-.89-6.4-.89c-.26-2.6,9.15-8.45,14.09-11.27s5.08.3,4.66,2.39-4.22,6.65.14,3.25,4.51-10.83,3.64-12.9-4.37-3.85-6.84-6.53-4.65-4.31-9-3.85c-5.53.57-22.37,13.87-26.61,21.94-3.1,5.91.88,11.42.88,11.42C347.88,80.75,355,79.56,361,80a11.19,11.19,0,0,1,8.57,4.89s5.82,6.53-10.9,23S337,119.58,337,119.58c-3.63-6.82,11.18-26.24,14.1-29.95s-.73-1.77-.73-1.77a69.59,69.59,0,0,0-25.14,33.35c-1.31,4.17,2.61,6.09,3.63,7s4.22,4.74,4.22,4.74.57,2.81,9.59,1.93,33.46-17.5,42-30.54,4.94-22.24,2.18-26.39" fill="#fff"/>
      <path d="M192.55,87.08a.89.89,0,0,1,.08-.17C208.12,53.47,223.28,48.37,232,46.59c7-1.42,9-1,14.83.23,12.88,2.64,1.84-9,1.84-9s-8.33-6.14-18.22-1.72c-8.82,3.95-23.19,19.28-30.3,28.28a32,32,0,0,0,.65-3.34c1.07-8.3-2.37-11.63-2.37-11.63s-1.76-2.47-8.14-.69a37.25,37.25,0,0,0-13.4,6.94c-2,2.28-.11,2.5-.11,2.5,9.45-4.08,5.28,8.52,5.28,8.52C172.77,87,168.67,96,168.67,96s-3.83,8.17.16,12.13c6.32,6.3,15.12,6.26,18.64,5.57,5.9-1.16,3.74-3.37,3.74-3.37s-3.94,2.07-4.85-2.39c-.41-2,.3-6,1.21-9.83,1.36-2.86,3.11-6.73,5-11" fill="#fff"/>
      <path d="M379.63,127.41c.44,0,.72-.11.72-.62s-.28-.64-.72-.64h-1v1.26Zm-1,2.68c0,.4-.13.68-.62.68s-.62-.22-.62-.68v-4.36c0-.33.11-.59.65-.59h1.55c1.12,0,2.06.33,2.06,1.65a1.36,1.36,0,0,1-1.4,1.56l1,1.63a.67.67,0,0,1,.09.3c0,.31-.19.49-.67.49s-.57-.34-.74-.68l-.88-1.66h-.42Zm.81,1.71a3.93,3.93,0,1,0-3.85-3.94,3.88,3.88,0,0,0,3.85,3.94m0-9.14a5.21,5.21,0,1,1-5.1,5.2,5.16,5.16,0,0,1,5.1-5.2" fill="#fff"/>
    </g>
  </g>
</svg>
