<svg xmlns="http://www.w3.org/2000/svg" width="188.48" height="15.28" viewBox="0 0 188.48 15.28">
  <title>scrolldown</title>
  <g id="圖層_2" data-name="圖層 2">
    <g id="圖層_1-2" data-name="圖層 1">
      <g>
        <path d="M0,13.13l1.69-2a5.78,5.78,0,0,0,3.74,1.63c1.53,0,2.35-.65,2.35-1.69s-.9-1.43-2.21-2l-2-.83a4.27,4.27,0,0,1-3-4C.62,1.85,2.73,0,5.71,0a6.57,6.57,0,0,1,4.62,1.89L8.83,3.74A4.66,4.66,0,0,0,5.71,2.53c-1.29,0-2.13.57-2.13,1.55S4.64,5.51,5.89,6l1.93.82c1.79.73,3,1.87,3,4,0,2.41-2,4.46-5.41,4.46A7.8,7.8,0,0,1,0,13.13Z" fill="#fff"/>
        <path d="M17.33,7.7c0-4.85,3.12-7.7,6.84-7.7a6,6,0,0,1,4.32,1.89L26.94,3.76a3.8,3.8,0,0,0-2.71-1.23c-2.23,0-3.9,1.91-3.9,5.07s1.51,5.13,3.84,5.13a4.06,4.06,0,0,0,3-1.45l1.56,1.83a6,6,0,0,1-4.7,2.17C20.35,15.28,17.33,12.62,17.33,7.7Z" fill="#fff"/>
        <path d="M43.82,15l-3-5.57h-2V15H35.81V.28h5.13c3.08,0,5.53,1.07,5.53,4.46A4.2,4.2,0,0,1,43.66,9l3.45,6ZM38.75,7.1h1.91c1.89,0,2.93-.79,2.93-2.36s-1-2.13-2.93-2.13H38.75Z" fill="#fff"/>
        <path d="M53.31,7.58C53.31,2.79,56,0,59.9,0s6.58,2.81,6.58,7.58-2.68,7.7-6.58,7.7S53.31,12.36,53.31,7.58Zm10.17,0c0-3.16-1.4-5.05-3.58-5.05s-3.59,1.89-3.59,5.05,1.4,5.15,3.59,5.15S63.48,10.73,63.48,7.58Z" fill="#fff"/>
        <path d="M74,.28H77V12.54h6V15H74Z" fill="#fff"/>
        <path d="M90.19.28h2.94V12.54h6V15H90.19Z" fill="#fff"/>
        <path d="M115.53.28h4c4.5,0,7.28,2.33,7.28,7.3S124.07,15,119.73,15h-4.2Zm3.86,12.36c2.75,0,4.46-1.48,4.46-5.06s-1.71-4.95-4.46-4.95h-.91v10Z" fill="#fff"/>
        <path d="M133.67,7.58c0-4.79,2.69-7.58,6.59-7.58s6.58,2.81,6.58,7.58-2.68,7.7-6.58,7.7S133.67,12.36,133.67,7.58Zm10.17,0c0-3.16-1.39-5.05-3.58-5.05s-3.58,1.89-3.58,5.05,1.39,5.15,3.58,5.15S143.84,10.73,143.84,7.58Z" fill="#fff"/>
        <path d="M152.89.28h3l1.17,7.18c.22,1.55.46,3.13.68,4.7h.08c.3-1.57.62-3.17.94-4.7L160.47.28H163l1.72,7.18c.31,1.51.61,3.11.93,4.7h.1c.22-1.59.44-3.17.66-4.7L167.53.28h2.81L167.61,15H164L162.3,7.72c-.24-1.15-.46-2.29-.64-3.4h-.08c-.2,1.11-.4,2.25-.64,3.4L159.33,15h-3.6Z" fill="#fff"/>
        <path d="M177.21.28h3l4.28,7.84L186,11.3h.1c-.16-1.53-.38-3.48-.38-5.15V.28h2.79V15h-3l-4.26-7.88L179.74,4h-.1c.14,1.59.36,3.44.36,5.13V15h-2.79Z" fill="#fff"/>
      </g>
    </g>
  </g>
</svg>
