<svg xmlns="http://www.w3.org/2000/svg" xmlns:xlink="http://www.w3.org/1999/xlink" width="939.34" height="1297.25" viewBox="0 0 939.34 1297.25">
  <defs>
    <linearGradient id="a" data-name="未命名漸層 8" y1="648.63" x2="939.34" y2="648.63" gradientUnits="userSpaceOnUse">
      <stop offset="0.02" stop-color="#662d8c"/>
      <stop offset="0.39" stop-color="#6f2a93" stop-opacity="0.97"/>
      <stop offset="0.63" stop-color="#8c22a9" stop-opacity="0.88"/>
      <stop offset="0.83" stop-color="#be13ce" stop-opacity="0.71"/>
      <stop offset="1" stop-color="#f0f" stop-opacity="0.5"/>
    </linearGradient>
  </defs>
  <title>taiwan</title>
  <g>
    <g opacity="0.2">
      <g>
        <path d="M937.12,108.71c-.57-.47-2.09-.27-3.23-.6s-3.33-2.69-4.2-3-6.19,1.14-8.2,1.88-2.32.51-3.33.27-2.09-2.82-3.4-4-2-5-2.18-5.58a11.37,11.37,0,0,1,.6-5c.64-1.58.3-2.21-1.14-3.09s-2.89-3.13-4.14-5.81.47-5.82,1.48-7.3a4.15,4.15,0,0,0,.81-3.77c-.34-1.14-2.29-.33-2.76-1.21s2.76-2.68,3-3.76-1.08-.47-3.23-.67a16.09,16.09,0,0,0-6.72.87c-2.49.81-2.76-.07-4.51-.67a56,56,0,0,0-8.54-1.41c-1.14-.07-9.81-.14-10.82.6s-1.45.81-2.22.64-.84-2.22-.94-2.45a21.77,21.77,0,0,0-4.07-2.42c-1.24-.54-.4-1.75,0-3.13s-3.36-.27-5.41-.37-.74-.3-1.21-1-2.62-1.34-3.53-1.44-1-.91-2-2.22-3-1.21-3.66-1.08-.37,1.42-.44,2.39.17.81.54,1.31-.77,1.52-1,2.29-1.54-.1-1.81-1.38-1.62-2-3.13-3.19-2.39-.41-3.23.1-1-.3-1.61-1.28A2.89,2.89,0,0,0,840.47,52c-.81,0-4.88.34-5.79.27s1-1.82,1.55-2.32,0-2.22-.77-2.46a57,57,0,0,1-7.4-4.43,21.49,21.49,0,0,1-.47-3.33c0-.67,1.61-2.32,1.92-2.83s-.81-1-1.89-.87-1.91,1.14-2.48,1.18-1.95-.88-3.27-1.15a7.92,7.92,0,0,1-3.86-2c-.54-.78-2.39-3.77-2.66-4.17s-1.65-3-2.55-3.67A8.59,8.59,0,0,1,810.17,24c-.63-1-.1-8.43-.43-9.31a54.48,54.48,0,0,0-6.46-7.59c-.67-.34-11-5.6-11.24-5.7S789.21,0,788.08,0s-4.34,2.12-5.72,2.34-4-.17-4.77-.8-1.59.05-2.37.5a21.23,21.23,0,0,1-4.66,1.52c-1.09.15-1.67,1.36-3,1.84S766.12,4.06,765.69,4s-.73,2.65-1.31,3.3-6.15,3-7.09,3.27-1.44,1.41-1.85,2.05-6.48,4.91-7.16,6-1.54.37-2.42.37S745,21,744.49,22.52s-2.06,5.81-2.26,6.55-3.56,4.1-4.43,5.31a38.17,38.17,0,0,1-4,5.08c-1.1.91-.65,1.81-.7,2.42s-.76,1.31-2,1.82,0,1.1,1.06,1.36.81.6,1.21,1.31,3.28,2.17,4.44,2.57a14.91,14.91,0,0,1,4.29,2c1,.85,3.58,3.12,4.28,3.88s.91,6.05.91,6.81-.35,5.29-.71,5.19S745.19,62,745.14,61s-1.66-3.63-2.22-4.39a25.37,25.37,0,0,0-4.08-3c-.86-.56-3.38-1.36-4-1.77s-1.56-1.61-2.32-1.61-2,1.66-2.72,2.93-1.66.5-2-.06-2.67-2-3.37-2.72-4.14,1.72-6,2.62-1.61.76-1.31,1.06a1.83,1.83,0,0,0,2,.41,23.33,23.33,0,0,0,3.73-2c1.31-.71,2.22.2,2.83.76s-.11,1.41-.36,1.81-2.42.76-3.43,1.26.46.46.91,1-1.46,1-3.33,2.32-1.36-.1-1.81-.61-2.07.86-2.17,1.62.3,1.31-.4,1.51-8.53,4.06-9.08,4.26-11.85.33-12.86.43-.35.1-2.22,1.21-7.87.56-9.28.56a35.76,35.76,0,0,0-6.65.6c-1.21.4-3.58,1.92-4.64,2.27s-7,1.66-9,2.52-10.54,7.16-12.15,8S635,86.42,633.91,86.49s-7.73,2-9,2.89-11.64,8.34-12.38,8.88-2.08-.67-3.22-1-7.53,7.93-7.53,7.93a39.08,39.08,0,0,0-2.42,4c-.61,1.34-4,5.44-4.78,6.79a5.73,5.73,0,0,0-1.07,3.56c.13,1-.88,4.37-1.48,6.52s-4.22,5.95-4.22,5.95-7.21,9.33-8.42,10.34-1.92,2.83-2.53,4.59-1,6.42-1.24,6.62a27,27,0,0,0-3,3.7c-.51,1-1.21,3-1.72,4a48,48,0,0,1-3.16,4.84c-.47.57-2.69,3.24-2.63,3.74s1.51.11,2.67.26-.15.8-.86,1.41-1.21,2-2.62,3-1.77-.1-2.42-1-1.77,1.66-2.22,2.87-2.12,4.44-2.62,5.8-.46,2.62-.91,3.58-2.83,3.13-3.18,3.88a62.87,62.87,0,0,0-1.56,7.77c0,.7-1.06,3.43-1.21,4.39s-.2,5.9-.15,7.06.45.6,1,.6,1-1,1.51-1.16.15,1.26-.15,2.07-2,2.22-2.78,3.53-6.75,6.84-8.3,8.52-1.41,3-2,5.85-5.24,6.52-7.12,8.47-3.57,3.63-3.43,4.44,2.62,1.21,3.7,1.61,8.4.34,10.15.54-4.57.81-6.39,1.35a9.39,9.39,0,0,1-4.3.53c-1.28-.2-2.76-2.22-3.7-2.62s-7,1.75-8.2,1.75-7.4.67-8.61,1.55-5.85,7.39-6.39,7.8-.67,1.61-.94,3a9.47,9.47,0,0,1-1.41,3.09c-.47.88,1.08,1.55,1.68,2.22s5.24,2.89,5.72,3.77-.81.47-1.22.33-5-2.82-5.58-2.69a6.31,6.31,0,0,0-3.22,1.69c-.74,1-1.35,1-2.15.4a1.94,1.94,0,0,0-2.22-.27,27.23,27.23,0,0,0-5.11,3.16c-.94.94-2.63,4.71-3.1,6.39s-1.14,5.65-1.27,6.18-4.31,6.05-4.84,7.6-1.67,7.21-1.67,7.21-1.16,2.68-1.76,4-4.59,8-5.2,9.53a10,10,0,0,0-.7,3c0,.15-7.42,10.32-7.82,11.26s-5.51,5.58-7.6,6.93-7.53,11.26-7.53,11.26a3.37,3.37,0,0,0,1.48,3.2c1.82,1.21,4.64,3,6.05,4s6.12,4.64,6.79,5.85a12.74,12.74,0,0,0,4.91,3.9c1.35.41,11.43,2.29,13.85,2.22a16.65,16.65,0,0,1,6.79,1.21c1.89.81,5.92,3,7.53,4.71a110,110,0,0,0,8.81,7,11.37,11.37,0,0,0,7.26,2.22c3.16-.2,5.92-.2,6.79.67s6.39,5.72,7.6,7,5.35,4.33,7.16,4.84,8.37-.3,10-.41.7.21-1.11.81-8.47,2.52-9.38,2.12-8.17-5.95-8.68-6.76-5.31-6.15-7.12-6.55a37.31,37.31,0,0,0-7.26-.34c-1.69.07-5.79,0-7.27-1.61s-8-9.42-10.55-10.36-7.33-1.07-8.68-1.34-16.1-3.4-17.66-4.31-5-4.69-5.95-5.54-5.8-5.25-7.67-5.85-4-2.32-5.39-2.32a2.76,2.76,0,0,0-2.88,2.32c-.35,1.61-2.27,7.16-2.77,8.37s-1.51,4.79-3.08,6a47.51,47.51,0,0,0-5.9,6.39c-.2.57,1.21,1.21,2.12,1.51s4.47,2,6.93,2.79a7.82,7.82,0,0,1,4.43,2.93c.74,1.07,3,1.76,5.23,1.76s6.1.5,7,1.46a82,82,0,0,0,10.39,7.42,36.83,36.83,0,0,0,4.54,1.91l3.58,1.16s.75.51.25.51a39.38,39.38,0,0,1-7.06-1.57c-2.17-.8-7.21-4.38-9.68-6.15s-4.89-3.43-7.16-3.58-6.26.05-7.67-1-4.94-1.76-7.26-2.57a31.17,31.17,0,0,0-6-1.41c-.81-.05-1.36-.2-1.31.55s-.71,5.6-.86,6.46-.15,1.56-1.56,1.11-3.13-1.92-4.44-2.52-2-1.72-2.62-.05a11.79,11.79,0,0,1-2.72,4,38.88,38.88,0,0,1-3.38,2.22c-.51.45-.51,1.36.65,1.36s4.49-.3,4,.35-1,1.21-.31,1.21h3.89c1.36,0,2.37.66,1.86.91s-2.12.51-3.12.86-1.16.75-.56,1.46.66,4-.5,5.25-2,1.21-1.36.1,1.21-2.58.9-3.18-1.36-2.37-1.81-1.51-2.52,6.85-2.93,7.81-2.47,4-2.27,6.2.36,3.38-.4,3.13-1.76-1.66-2.32-2-1.36-.8-1.51.36a35.49,35.49,0,0,1-2,5.09c-.25.66-1.26,1.26-1.56.81s-.05-1.52.6-2.78a61.15,61.15,0,0,0,2.47-6.35.6.6,0,0,0-1.11.05c-.35.71-3,7.21-3.43,7.51s-1.16.81-.45-.65,2.22-4.54,1.82-4.59-2.73-.2-3,.55-3.13,6.61-3.23,7.72,7.48,3.87,8.39,4.61,6.62,4.13,7.77,5.95a102.24,102.24,0,0,1,5,9.81c.88,2.15,3.23,12.31,3.94,14s3.73,4.34,5.34,5,4.14,1.62,2.42,1.62-7.86-2.93-8.77-4.74-5.35-10.69-5.65-12.61-1.92-8.37-2.82-10-4.24-3.94-4.95-4.64-.9-2.73-1.81-1.52-2.62,3.26-3.16,3.94-3.3.87-3.36,2.08.4,2.09-.21,2.89-2,2.83-1.95,3.57.54,2.42-.67,2.42-6,.13-7.06.13a3.8,3.8,0,0,0-2.62,1.08c-.2.4-1.41,1.21-1.41,2.35s-.81,1.75-1.55,2.35-3.28,3.1-3.28,4.05,1,2.32,0,2.73-3.17-.1-4,.5-1.36,2.37-2,3.33-5.19,7.46-5.8,7.87.41.55,1.06.65,3.73.81,4.59-.15-1.21-.86,1.31-1.86,3.89-1.06,4.24-2.32,1.56-6.56,1.71-7,3.18-.91,4.39-.91,3.23-.35,4.59-.35,2,.4,4,.85-1.16.76-2.52.76-3.33-.4-3.38.5a13.93,13.93,0,0,1-.5,4.24c-.61,2-2.07,5.09-2,5.5s1.57.05,3,.5,3.07.61,2,1a15.21,15.21,0,0,1-4,.35c-1.16,0-1.31-.35-2.77.71a6.46,6.46,0,0,1-3.94,1.46c-1.26,0-11.56-.08-11.83,0s-.27.54-.23,1.24.74,1.79,0,1.79-1.81.57-1.65-.14.71-1.71.51-2-.47-.4-.77.41-1.55,4.5-2,5.54-2.15,2.93-1.08,3.43,11.1.17,11.8-.27,1.45-2.11,2.19-3.09,1-1.88,1-.84a18,18,0,0,1-2.28,5.41,8,8,0,0,1-2.52,1.48,49.42,49.42,0,0,0-6.53,4.07c-.27.34.88,2.52,1.31,3.3s2.26,3.79,1.89,4-4.07-6.18-4.41-6.28-1.64,2.08-1.71,2.38-4.94,8.11-5.51,9.52-2,4.54-1.55,4.84,1.78.91,2.29,1.34.33.84-.51.84-6.82-1.14-7.36-.37a48.24,48.24,0,0,0-2.72,7.38c-.16,1,.1,1.11,1.16,1.16s4.58-.05,3.83.31-5.55.2-6.1.7-2.12,4.64-3,5.45-2.72,3.73-2.17,3.88,5,1.46,5,1.92-7.85,15.81-8.38,16.69-4.1,7.8-5.11,8.47a8.66,8.66,0,0,1-4.1.81c-1.15,0-2.76-.07-3,.67s-.88,3.29-1.62,3.83-1.68,1.21-.6,2.22,3.16,3.5,5.44,4.44,13.12,3.9,14.73,4.77,3.29,1.75,4.5.07,8.07-3,10.09-3,6.39.47,8.2.47,8.81-1.61,11.16-1.88a22,22,0,0,1,8.34,1.54c1.41.68,5.18,4.64,6.93,5.85a11.91,11.91,0,0,0,6.45,1.75c2.15,0,6.19-.2,7.6,1.15a6.08,6.08,0,0,0,4,2c1.21,0,21.85,2.69,23.76,2.09s5.35-1.52,7.37-.61,5,4.94,8.87,4.44,13.52,1.21,16.34.3,8.88-5,9.58-6.15,7.16-7.56,7.16-7.56,3.13-2.93,2.83-2.32-9.48,10.48-9.59,11.29.11,2.32-1.21,3.53-1.91,3.53-3.63,3.83-9.38.31-11.39.31a96.7,96.7,0,0,1-12.11-1.42c-2.82-.6-5.44-1-7.46-2.31a14,14,0,0,0-6.45-2c-1.11.1-2,1.41-4.84,1.31a115.33,115.33,0,0,1-11.6-1.72c-.91-.2-13.75-3.12-15.37-3.39a22.27,22.27,0,0,1-5.11-1.08c-2.55-.87-7.93-3.16-9.75-4s-4.9-2.82-6.58-3.7a9.46,9.46,0,0,0-5.52-1.48c-2.49.14-9.55,1.88-10.89,2.09s-6.19,1.14-9,1.34-6.15,3.3-9,2.79-2.82-1.81-7.16-3.12-16.23-2.93-19.56-4-7.33-2.86-8.37-2.86-2.49-.53-2.12,0a5.65,5.65,0,0,0,2.32,1.61,11.67,11.67,0,0,1,2.38,1.88c.34.24,2.66.64,3.43.88s1.92.74,2,1.38-1.24,1.78-1.85.9-3.83-2.32-4.91-2.45-2.15-.27-2,.34-.61,2,.23,2.75,1.58,1.55.34,1.65-2.93-.47-4.24-.44-4.07,1.38-5.58,2.09-6.25,4.1-6.86,4.33-1.31.81-.2,1.18,2.49.84,2.42,1.82a6.75,6.75,0,0,1-1.28,4.37c-1.41,2-2.21,4.1-3.22,4.94a2,2,0,0,0-.07,3.16c1,.8,1.35,2.22,2.42,2.15s3.9-.81,4.64-1.68,3.09-3.57,3.73-4.24,1.08-1.31,2.42-1.11,3.57.24,3.6.54-1.24,1.18-1.55,1.48-.27.47-1.21,0-1.75-1-2.28-.7a6,6,0,0,0-1.62,2c-.43.78-.8.95-1.24,1.75s0,1.38,1,1.11,2.35.1,3.9-.4,3-1.31,3.63-1.14a4.53,4.53,0,0,1,2,.87c1,.71,2.55.61,3.19,1.61s1,1.68.54,1.68a11.48,11.48,0,0,1-2.82-1.51,7.33,7.33,0,0,0-2.89-1.34,14.36,14.36,0,0,0-3.2.53c-.74.24-3.36.37-4,.78s-.81,1.34-1.75,1.85-2.82.3-2.35-.2,1.38-.64,1.85-1,.37-1-.94-.74a10.52,10.52,0,0,0-2.89.81c-.64.34-1,1.75-1.25,2.76s-.84,5.58-.43,6.79,0,2.49-.68,4.1-1.95,5-.33,5.24,3.49-.33,4.37.27,1.54,1.82-.41,2.49a12.57,12.57,0,0,0-5,3.63,77.39,77.39,0,0,0-6.46,10.83A33.21,33.21,0,0,0,288,639c-.4,3.63-2,4.31-1.34,6.52s1.41,1.62,1.68,3.43-.91,4.44.15,3.94,3-.51,2.67-1.31-1.86-.81-.5-1.16,3.28-1.42,3.08-.46-3.33,3.48-4.19,3.89-1.71.7-2,1.71a103.53,103.53,0,0,0,.15,13.16c.26.35,2.07-.1,2.37-.1s1.26-1.76,1.32-2.67.25-3.38.55-2.12-.2,5-.1,6.4-.4,1.67-.61.71.41-2.07-.45-1.66a5.54,5.54,0,0,1-2.17.7c-1,.1-1.61.1-1.41,1s-.25,2.52.81,3,2.57.85,2.62,2-.51,2.37.1,3.18,2.37,1.75,2.71,2.59.06,2.15-.58,1.17a7.52,7.52,0,0,0-2.75-2.38c-.64-.2-1.78.07-.94.7s1.58,2.63.8,2.73a14.35,14.35,0,0,1-3.59-.34c-1.18-.23-3.2-1-4.37-1.18s-1.79-1.44-1.65,1-.54,8.1,0,8.94,2.15,1.68,2.75,2.15a2.28,2.28,0,0,0,2.56.44c.94-.57,1.24-2.05,2.22-2.09s1.24.54,2.59.44a26.64,26.64,0,0,1,5.65-.1,49.3,49.3,0,0,0,7,.84c1.08-.07,1.82.27.95.47s-8.34-.24-9.08-.24-2.05,0-2.12.74.4,1.89-.6,2.46-2.06,3-2.83,3.43-1.21.8-.94,1.44a4.47,4.47,0,0,1,.05,3.06,11.79,11.79,0,0,1-2.77,2.57c-.56.26-.71.51-.15,1s1.11,1,1.71.66a18.57,18.57,0,0,1,2.93-1.47c1.51-.55,3.12-1.51,3.63-.8s1.21,1.91,2.06,2.17,1.82.75,3.08-.36,1.61-1.16,1.66-2.16a6.24,6.24,0,0,1,.86-3.33c.71-1,1-2.68,1.31-1.52s.41,1.32-.2,2.17a9.44,9.44,0,0,0-1.36,4.14c0,1.21.3,2.27-.86,2.67s-3.23,1.16-4.69.66-.86-1-2.42-.76-1.71-.3-2.77,2.22-1.82,3.73-1.31,4.08,1.16.66,1.16,1.31-.23,7.82,0,8.32.78,1.11,1,1.62.58.53.8-.13A2.2,2.2,0,0,1,293,727a1.71,1.71,0,0,0,.89-1.84,16.21,16.21,0,0,1-.71-2.92c.08-.66,1-.89,1.36,0s1.21,1.61.83,2.52S294,726.36,294,727a10.1,10.1,0,0,0,.83,2.85c.23.45.69.85.28,1.73s-1.84,2.48-2,3.84-.4,2.37-1,2.06-.1-.75,0-1.91.4-1.82-.5-1.72-2,.51-2.78.51a23.19,23.19,0,0,0-3.22.05c-.81.15-1.26.86-.61,1.26a7.51,7.51,0,0,1,1.67,1.66c.35.46,1.81.21,2.42.1s1.46-.2,1.46,1-.1,4,.55,5.4,1.06,2.52.31,2.37-.76-1.67-1.16-1.92-.86-.5-.86.61-.15,3.43-.76,2.87-.75-2.12-.7-3.07.4-2.37.4-2.88-.1-1.36-.81-.1-1.16,2.72-1.81,2.32-1-1.56-1.92-1.06-.86.4-1.16,1.67a11.74,11.74,0,0,1-1.86,3.47c-.51.71-1.11.71-.76,1.82a6.6,6.6,0,0,0,.6,1.11c.36.5.76.45,0,.71s-1,.25-1.16,1.21-1.61,1.91.11,2.72,2,1.51,3.42,1.61,4.29,0,3.69.46a9.24,9.24,0,0,1-3,.65c-.35.05-1.46.56-1.41,1a10.51,10.51,0,0,1-.81,3.78c-.5.81-1.21,1.21-.81,1.87s.16,1.51,1.21,1.26a18.72,18.72,0,0,1,2.93-.66c.2.1.76.81-.15,1.06s-2.62.71-3.08.86-1.11.35-1.21-.56a1.48,1.48,0,0,0-.65-1.31c-.46-.45.45-1.16.6-1.76s.56-3.08.66-3.68a4.18,4.18,0,0,0-.31-2.52c-.4-.46-1-.76-1.1.2a32.73,32.73,0,0,1-2.07,5.54c-.41.86-2.12,3.33-2.47,3.89a6.13,6.13,0,0,1-1.67,1.91c-.91.66-.55,5-.45,6.41s-1.16,2.37.55,2.37,1.42,1.51,3-.1,4.94-3.43,3.93-2.52a53,53,0,0,0-3.73,4.33,3.91,3.91,0,0,0-.81,2.94c.14,1.21.44,2.46-.23,3.64s-1.58,2.79-1.21,3.16-.61.94-1.08,1.07-1.34.07-1.64.64-.78.87,0,1.34,1,1.08,1.81,1.15a15.4,15.4,0,0,1,2.69.2,46,46,0,0,0,6.49.1c1.78,0,4.14-.74,3.2-.17a15.53,15.53,0,0,1-4.81,1.65c-1,0-3.63-.07-4.84-.14s-3.63-.3-3.9.31-.57,1.64-1,1.75-.74-.31-1.14-.81-.94-.47-1.14-1.08.23-2.72.13-3.36-.77-1.48-.81-.67a36.92,36.92,0,0,1-.8,4.47,19.46,19.46,0,0,0-.81,2.25c-.1.78-1.21,1.75.2,1.28s2.79-.74,2.93,0,0,1.85-.51,1.82a3.85,3.85,0,0,1-1.31-.48c-.5-.2-1.28-.3-1.28.71a8.33,8.33,0,0,1-.7,3.43c-.51,1-1.68,2.69-2,3.6s-.54,1.34.27,1.11a20.64,20.64,0,0,1,3.29-1.08c.71,0,2-.17,1.28.61a4.25,4.25,0,0,1-2.39,1.31c-1.24.37-1.74.3-1.88.9a21.88,21.88,0,0,0,.47,3.7c.08.51-.17.86,1.19.43s3.81-1.34,3.65-.68-1,1.08-1.63,1.26-2.2.08-2.6.83a3.85,3.85,0,0,0-.3,2.27c.07.58,1.26.53,1.79,1a2.36,2.36,0,0,1,.9,1.84c-.05.73-2.09.8-2.37.88s-.59,2.72-.26,2.86,2.09-.21,2.89.4a3.15,3.15,0,0,1,1.11,2.59c.07,1.11.32,3.07.78,3.13a6.67,6.67,0,0,0,2.52-.51c1.06-.4,1.81-.91,1.86.25a15.44,15.44,0,0,1-.45,2.93c-.15,1.21-.25,1.91.5,1.26s2.37-3.28,3.43-3.88,2.27-1.26,1.62-.16-2.32,2.42-3.08,3.48-1.51,1.87-.86,2,2.12.2,3,.3,2.27.81,1.06.86-2.57.45-4,0-1.05-.55-2.52-1-2.62-.1-2.77-.91-.3-2.67-.76-3-2.47-.1-3.43.25-2.52.35-2.57,1.06-.4,2.87-.75,2.77-1-1-.56-1.41.86-1.26.4-1.31a7.6,7.6,0,0,0-2.57,1,39.72,39.72,0,0,0-4.23,2c-1.42.9-2.27,1.86-2.68,1.86s-.8-1.26-1.36-.35-.2,1.86-.6,2.72-.36,1.46.55,1.06,1.62-1.56,1.62-.55-1.13,3.73-.89,4.6-.27,1.31-.27,2.19.53,1.48,1.54.4,1.92-1.55,2.83-1.28a8.68,8.68,0,0,0,4.3.07c2.12-.4,2.59-.5,2.86-1.11s.94-1,1.41-.27.34,1.14.81,1.14,2-1.14,1.88-.37-.54,2.09-1,2.09-.24-1.28-1.21-.34-1,1.92-1.62,2.49-.74.81-1.14.47-.44-.67-1.41-.07-2.15,1.82-2.76,1.42a3.27,3.27,0,0,1-1.34-1.85c-.17-.74-.78-1-2-1s-2.86-.64-3,0,.87.33,1.35,1.11.53,1.51.16,1.58a2.66,2.66,0,0,1-1.51-.41c-.74-.33-1.48-.9-1.14.31a33.47,33.47,0,0,1,.67,3.76c.1.74,1.55.78,3,.78s4.77-1.18,5-.81,0,.57-.57,1.28-1.64,1.27-.77,1.51,2.22.81,3,.27a11.12,11.12,0,0,0,2.45-3.43c1-1.75,6.79-7.4,7.23-8a3.56,3.56,0,0,1,1.81-1.24c.44-.07,6.66,0,8.41-.37s9.21-.71,11.19-1.21a65.72,65.72,0,0,1,7-.94c.88-.1,2.19-.94,1.18.1s-12,2.52-13.28,2.66-9.95.9-11.63.9-2.72.1-3.16.74-8.71,11.47-8.71,11.47-1.44,1.38-1.48,2.08a3,3,0,0,0,1.31,2.29c.61.16,10.09,5.58,11.2,6.28s8.87,6.56,9.63,7.52,1.9,2.3,2.4,2.06,1.58-1.1,2.73-1.68,2.22-1.11,1.24-.27a23.74,23.74,0,0,0-2.89,2.66,1.2,1.2,0,0,0,.23,1.35A14,14,0,0,1,289.9,885c.07.1.71-.34,1-1.1a3.8,3.8,0,0,1,1.92-2.27c1-.35,2.44-1.08,2.77-.48s.58.68-.7,1.24-2.63,1-3,1.91-1.46,2.05-.68,3A8.53,8.53,0,0,1,293,890.5c.38,1.31.18,2.69.93,2.11a9.44,9.44,0,0,1,1.87-1.16c.73-.35.73-.53.2-1.56s-1.54-1.86-.71-2.24,1.69.07,2.8.45,1.84.48,1.82,1.51-.1,2.58-1,2.63-1.49-.28-2.17.07a1.46,1.46,0,0,0-.71,1.94c.33.94,1,2.37,1.27,3a15.06,15.06,0,0,1,1.61,5.19c.13,2.49.44,9.68.34,11s3.29,11.14,4,12.55,2.47,5.42,2.62,6,.33.78.68.35-.48-1.11.55-1.84,1.42-.38,1.79-.73,0-.76.79-1.34,2.24-2.39,2.52-1a8.13,8.13,0,0,1-.78,4.57,2.54,2.54,0,0,0-.64,2.09c.23.48.23,1.64,1.09,2.17s2.17.05,2.24,1.29-.35,1.91-1,1.18-2-2.24-2.47-2.77-1.14-2.1-1.92-2.15a7.19,7.19,0,0,0-2.57.08c-.53.25-2.52-.45-1.36,1.23s1.44,2.85,2.39,3.74,2.74,4.81,3.24,6.49,1.45,4.21,1.11,4.91-1.88,1.25-2.22,1.41-.17,1.18.44,1.85,1,.88,2.86.88,3.83.37,5-.07,1-.81,2.16-1.58,1.95-1,2-.24.64,2.09-.84,2.36-6.32.87-6.66.87-.5.34-.13,1,4.5,11.23,5.92,13.45a100.92,100.92,0,0,1,4.63,9.81c.61,1.42.79,4.16,1.6,4.36s1.36.35,1.36,1.11.1,1.66.46,1.71.6,1.72.6,2.07.71,2.92.81,3.63.65,1.36,1.06.86.75-2.27,1.56-2.22a1.78,1.78,0,0,1,1.66,1.71,23.42,23.42,0,0,1,.06,2.78c.05,1.51.1,2.47.15,3.42s-.21,1.62-1,1-1.21-2.52-2.12-1.21.05,5.4-.76,6.26-3.32,2.47-3.32,3.07-1.16,4.54-.26,6,2.73,4.69,3.13,5.7,2.12,3.23,2.37,4.54-.35,2.37.1,3.68,11.9,17,12,17.25,3.28,3.07,3.63,3.33,2,.85,1.82.4-8.07-10.19-8.07-10.19-7.21-10.28-7.31-10.94.7-1.56,1.41-2,.66-1,1.77-.8,1.56.8,1.71-.66.5-2.42.15-3.58a31.09,31.09,0,0,0-1.06-4.08c-.55-1.21-2-2.53-1.16-2.78s1-.2,1.41,1.31,3.08,6.91,2.73,8.32-1.16,1.57-1.11,2.37.55,1.11,1.26,2.27,1.26,3.48.76,3.63-.91-1-1.21-1.91-1-1.82-1.87-1.82-2-.7-1.61.2a55.09,55.09,0,0,0,2.92,5.25c.61.91,5.7,8,6.61,8.82s1.61,1,1.76,1.92a2.7,2.7,0,0,0,.81,1.92c.55.5.86,1.56,1.31,1.66s.55-.56,1-1,1.76-1.31,1.91-.76-.55,1-.85,1.47,0,.7.9,1.41,1,2,1.6,1.76,1.11-1.37,1.75-.57-.37,2,.34,2.26,1,.7.57.9-.41,1-1.21,1.15-2.56.84-3-.14a10,10,0,0,0-1.32-2.62c-.6-.67-1.14-1-1.78-.77a11.76,11.76,0,0,1-1.81.7c-.61.14-1.42.34-.1.91s2.18.87,2.92,2,.67,2.08,1.51,3,1.72.43,1.85,1.58,3,4.38,5.33,5.9,15.28,9.22,16.39,10,6.5,3.63,7,3.13a3.78,3.78,0,0,0,1-3.23,72.11,72.11,0,0,1-.61-7.77c0-2.82-.1-3.83,1.11-5.74s5.55-7.37,6.15-9.69.66-12.5.61-14.12a31.66,31.66,0,0,0-1.16-5.19,101.83,101.83,0,0,1,.05-10.3,41.92,41.92,0,0,0-1.08-9.42,27.79,27.79,0,0,1-.74-6.65c0-1.68.61-6.26,2.32-8.37s3.94-4.54,4.44-5.85a38.13,38.13,0,0,0,.81-10.8c-.4-2.82-.61-8.16-.1-10.08s.1-5,.3-5.95,1.82-1.51,1.51-.2-.3,12.5.51,15a47.26,47.26,0,0,1,1.81,7.67c.3,2.32-2.92,7.26-4.23,9.08s-4.44,4.74-4.84,7.36-1.42,4.94-.91,6.45,2.08,4.81,2.08,6.56.07,6.65-.2,10.35-.4,5.18.54,7.33a18.64,18.64,0,0,1,1.28,7.2c-.14,1.61,1.54,3.69.53,5.37a16.85,16.85,0,0,0-1.95,4.24c-.33,1.28-5.36,9.43-5.76,11A19.21,19.21,0,0,0,387,1070c.35,2.52,2.62,8.83,3.17,10.34s1,1.06,1.72.71a3.29,3.29,0,0,1,2.22-.11c.85.16,1.46-.65,2.82-1.41s2.17-.85,2.77-2.67a28,28,0,0,0,1-6.2c0-.91-.4-3.23.25-1.36a23.32,23.32,0,0,1,1,5.29,3.71,3.71,0,0,1-1.21,3.63,28.76,28.76,0,0,1-5.55,4c-.75.35-2.52.15-2.67.9a2.27,2.27,0,0,0,.81,2.22,8.89,8.89,0,0,1,1.71,2.62c.31.56,1.16,2.48,2,1.87s1.51-1.76,2.42-2.42,3.58-1.31,4.94-.5,4.79,3.27,5.25,4.13-.05,1.36-.51,2.12-.7,2-1.36,1.76-8-4.33-8-3.63,11,6.36,12.71,8.07,5.24,4.24,5.55,3.68,1.41-3.58,1.41-3.58,5.68-10.91,5.95-11.71,1.48-1.62,2.69-2.22,2.08-.41,1.55-.07-3.84,3.7-4.58,5.65-5.31,11.76-5.24,12.44,13.25,6.85,14.86,8.27,7.76,4.74,9.38,7.56a120.55,120.55,0,0,0,7.43,11c1.88,2.36,7.73,10.16,9,11.64a9.46,9.46,0,0,1,2.22,5.17c.13,1.75,2.08,14.12,3.56,16.07s4.44,5.72,4.91,6.26,7,13.11,7.53,15.39,2.28,13.32,2.28,13.79.48,7.19,2.49,10.15,4,7.26,4,8.87,1.21,6.32-.21,7.2-3.29,1.14-3.22,2.49,1.48,4,1.88,5.78-1.08,4.44-1.88,4.44-2,.27-2.15,1.41-1.55,2.15-.47,2.82,1.54,1,.06,2.09-4.37,3.16-3.63,4.23a46.19,46.19,0,0,1,3.23,7.53c.47,1.68,1.41,3.43,2.49,4s1.81.6,2.48,2.55,2.49,3.9,2.43,5.45-1.69,3.76-1.15,5.78a73.36,73.36,0,0,1,1,9.14c.14,1.82.47,3.16,1.68,4.17s3.77,3.16,4.78,3.16a17.65,17.65,0,0,0,3.63-1c.47-.14.74-1.89.74-3.5s-.61-3.63-.14-5.58a10,10,0,0,1,3.83-4.84c1-.54,1.21-1,3.63,1s5.32,5.11,7.2,4.77,4.44-.27,5.78,1.14,2.22,1.88,3.3,1.75,3.22-.17,4.13,1.45,6,8.87,7.36,9.88a17.21,17.21,0,0,0,5.35,2.12c1,.2,1.71-.51,1.41-1.31s-1.71-2.73-1.92-4.14.51-4.54-1.31-6.15-3.63-1.92-3.83-4.54-1.11-6.86-.5-9.08,1.21-6.55.6-7.46.2-1.41,1.11-1.41,6.72-2.49,7.87-3.16a3.46,3.46,0,0,0,1.51-2.69c.2-1-.44-2,.94-2.72s2.93-1.79,3.2-3,.23-2.36,1.34-3,2.66-1.65,2.45-2.35-1.78-4.81-1.64-5.68-.94-11-.94-12.46-.21-1.76.75-2.92,2.62-2.88,2.62-3.73a5.06,5.06,0,0,0-.85-2.78c-.66-1.06-2.73-2.67-3.08-4s-1.06-4.34-.76-5.15a5.9,5.9,0,0,1,2.43-2.37c1-.6,2.52-.85,1.76-2.06a9.42,9.42,0,0,1-1.7-4.42c0-1.48-.06-14.46-.6-15.13s-.94-.94-.34-1.35,1.48-.74,1.28-1.68a80.78,80.78,0,0,1,.47-10.89c.34-2.15,1-6.19.6-7a39.72,39.72,0,0,1-1.41-5.92c-.33-1.88-.74-8.4-.87-10.89s2-17.21,2.49-18.83,3.49-5.44,3.83-6.52,2.76-9.35,3.16-10.49,6.92-16.94,6.92-16.94l11-35.64s3.5-12.23,4.37-13.45a50.21,50.21,0,0,1,6.19-6.38c1-.61,3.29-2,2.42-2.36s-3.5-1.47-4.31-1.68-3.9-.4-4-.94,2.29-.87,3.77-.6,4.1.67,4.37.27,2-5.11,1.81-7,2.76-10.22,3.63-12,5-8.88,6.66-9.89,4.1-1.81,5.24-2.49a10,10,0,0,0,4-3.29c1.48-2.09,3.23-4.84,5.24-5.25s11-3.42,12.71-5.11,8.61-8.13,10.36-9.88a76.37,76.37,0,0,1,8.06-6c1-.61,2.69-1.88,1.55-2.35a52.91,52.91,0,0,1-5.78-2.42c-.81-.61-1.88-2.9-2.56-3.23s-3.16-2.09-3.16-2.49a8.8,8.8,0,0,0-.6-3.39c-.61-1.32-.15-2.27-1.72-4.14s-4.64-3.48-4.33-4.89,1.27-4.19,1.81-3,.88,3.5,2.15,5.79,3.5,5.64,4.78,7.59,2.89,3.57,3.9,5.11,1.48,2.09,2.42,2.49.87.54,1.75-.94a55.79,55.79,0,0,1,6-7.19c1.55-1.48,3.36-1,3.16-3.77s-3.29-8.34-3.29-10.76.2-7.19,1.68-8.6,5.51-4,6.38-4.17,6.32-2.62,8.07-4.71,5.92-5.51,6.93-7.06,5.78-9.34,5.91-10.55a41,41,0,0,1,3.33-9.32c1.41-2.42,6-4.84,7.37-6.75a72.34,72.34,0,0,0,4.94-8.68c.2-.7,14.62-39.13,16.13-40.54a6.66,6.66,0,0,1,5.25-1.51c1.91.1,3.53-.71,4-2s1.62-4.94,2.83-4.84,2.32,1.61,2.82.1,2.22-2.52,1.61-3.33-3-1.51-3-3-.51-6.56.1-7.87,2.52-3.83,2-5.35-2.73-7.66-2.53-9.58-1.71-5.55-.1-6.05a12.55,12.55,0,0,0,5-3.53c.7-1.11,2.42-2,1.71-3.23s-1.71-1.91-.7-3.33,4.33-13.41,4.43-13.91,3.58-9.63,5.1-11.5,2.42-4.08,3.37-4.34,2.73-1,2.73-2.06a59.55,59.55,0,0,1,2-9.74c.66-1.46.61-5.95.61-5.95s6-19.56,6.56-22.29,3.16-9.31,3.22-10a37.82,37.82,0,0,0,.27-5.85c-.2-1.35-1.61-1.68-2.15-2.56s1.08-1.21,2-1.27,2.69-1.62,3.36-3a12.42,12.42,0,0,0,.6-6c-.26-1.89-1.21-11-1.21-12.51s.34-1.34,1.08-2.82.6-3.5.6-5.31,6.83-17.6,6.88-18.81-.45-1.26-.35-1.87.6-.4.6-1.06.71-9.38,1-11.19,5.8-21.43,6.1-22.7a10.54,10.54,0,0,0-.4-4.84c-.46-1.16.2-2.72.4-4.94s3.33-4,3.73-5.55,2.17-6.75,2.88-9.17.6-8.78.35-11.25a19.65,19.65,0,0,1,.66-7.06c.55-1.91,3.61-5.71,4.22-6.92s6.85-23.4,7.19-25.35,1.58-16.78,1.51-17.75-.54-.27-1.14.87A6.9,6.9,0,0,1,797.5,528c-1.07.57-1.48-.54-1.21-1.28a27.47,27.47,0,0,1,3.36-4.24,3.19,3.19,0,0,0,.25-3.33c-.5-1.16.16-3.26.29-4.2s2.89-4,3.3-5,3.22-4.17,4.5-4.64,3-3.56,4.3-5.72,1.28-3,1.28-3.76-1.28-2.82-2.55-4.24-7-13-7.53-14,0-5.19,0-6.6a53.74,53.74,0,0,1,1.74-6.76,27.37,27.37,0,0,1,2.24-4.54,61.17,61.17,0,0,1,8.09-6.43,5.36,5.36,0,0,0,2.47-3.49c.13-1.21.33-1.54-1-2.35a33.85,33.85,0,0,0-6.05-2.49,11.83,11.83,0,0,1-4.91-3.23c-.47-.67.33-1.14,1.07-.67a12.55,12.55,0,0,0,4.17,1.41,19.81,19.81,0,0,1,3.63.81,17.36,17.36,0,0,0,4.37.81c1-.07.27-2.56.07-3.9s-2-4.44-2-5.38A112.45,112.45,0,0,1,822,421c.87-1.61,10.15-5.58,11.49-6.05s4-8.13,5-8.77,2.42-.34,3.43-.68a8,8,0,0,0,3.4-3.16c.84-1.41,6.53-14.32,7-15.78s.25-2.27.65-3,1.92-.56,3-.66.76-1,.25-1.26a24.33,24.33,0,0,1-4.69-2.27,21.07,21.07,0,0,0-5.85-2.92c-2.32-.76-8.52-1.62-10.89-2.37s-4.44-1.52-5-2.53,2.07.36,4.13,1.06,3.43.31,5.2.76,4,1.51,5.19,1.61,2.12-.6,2-1.51-.46-3-.1-3.08,1.91,2.32,2.67,3.28a9.07,9.07,0,0,0,3.08,2.62,11.59,11.59,0,0,0,5.12-.37c1.35-.53.07-2.75.74-5.58a36.26,36.26,0,0,1,3.63-8.74c1.55-2.75,1.65-10.49,1.75-11.39s1.55-11,2.42-14.33,2.29-3.73,4.34-5.27.91-1.45.07-1.95-3.43-2.19-4.58-2.93-3.09-2.22-2.89-2.79,1.15.27,2.42.84a30.61,30.61,0,0,1,4.31,2.69,5.25,5.25,0,0,0,3.12.84c.61-.2,2.54-3.36,2.59-4.62s.61-1.41,1.31-1.66,2-1.57,3.58-2.88,5.2-2.27,7.06-3,1.11-1.42.2-1.72-2.21-1-2.42-1.86-.5-1.16-1.46-2.17-2.12-1.72-2.17-3.13a18.65,18.65,0,0,1,.76-5.45c.45-1.05,9.48-4.94,10.08-5.24s1.11-5,.86-6.35-1.06-9.08-1.11-10.54.36-1.47,1.26-2.07-.1-1.26-1.41-2.57-1.61-2-1.31-2.3.71-.85.1-.95a1.92,1.92,0,0,1-1.88-1.71c-.24-1.45,1-1.11,2.39-.94s3,.54,4.1.54,1.74-.14,1.17-.58-3.9-1.51-5.85-3-6.08-8.81-7.09-11.13-2.62-15.94-3.13-19.27-1.78-10.15-1.85-10.55-2.74-8.31-3.44-9.16-1.06-13.52-1.11-15.38.32-16.17.52-16.58a1.81,1.81,0,0,0-1.08-1.95c-.94-.43.24-1,1-1.41s1.31-.57,1.54-1.48a33.89,33.89,0,0,1,3.1-7.46c1.51-2.35,8.3-13.89,8.3-13.89s6.45-5,7.16-5.58,4.07-6.38,3.8-7.53.13-1.81.81-3,1.95-.47,2.69-.81,5.91-5.38,6.65-5.85,2.56-4.84,3.16-5.85,10.29-5.31,10.76-5.51,3.77-.81,5.85-1.35,8.07-6.11,8.4-6.18,2.63-.94,3-2.29S937.69,109.18,937.12,108.71Z" fill="url(#a)"/>
        <path d="M65.43,665.06c1.55.67,2.49,3,3.3,1.14s1.41-3,1.47-4.23a8.85,8.85,0,0,0-.87-3.16,26.38,26.38,0,0,1-.13-3.23c-.07-.54.47-.47,1.81-.94s1.75-.81,1.82-2.22a41.94,41.94,0,0,1,.06-4.24A3.41,3.41,0,0,0,71.82,645c-1-1.21-2.76-3.56-1.14-4.1s2.75-.2,4.23-.4,1.82-.81,2.82-1.82,1.75-1.68,1.75-2.62a1.33,1.33,0,0,0-1.88-1.28c-1.08.41-2.15,1.42-2.89,1.42a4.69,4.69,0,0,1-2.89-1.08c-.74-.74-4-2.62-4.57-.67s-1.48,4.1-2,5.51-2.22,1.75-.47,3.36,2.42,3.3,1.88,5.18S65.9,653,65,653.09s-3.5-1.34-4-.8-1.21,1.48-.4,2,3.09.34,3.5,1.28.87,3-.34,3.77S62.34,662,60,661.83s-3.56-.6-4.77.81-3.76,4.17-4.1,4.84,1.28,1.08,3,.27,3.17-1.34,4.31-.74,1.48.4,3.23-1S63.88,664.39,65.43,665.06Z" fill="url(#a)"/>
        <path d="M130.58,665.36c-2.18.74-3.73-.37-3.53-1.58s1-6.12.44-6.62a47.52,47.52,0,0,0-3.56-3.16c-1.05-.67-1.72-.34-2.69-.3s-2.59-.24-2.86-.74.55-2.78.45-3.23-.2-.3-1.21-.76-1.86-1.26-2-.45a13.94,13.94,0,0,1-.66,3.68c-.5,1.21-.81,3.18-1.51,3s-.41-1-1-1.87-.5-2.12-1-1.71a3.33,3.33,0,0,0-1.16,2c-.15.91-.7,1.21-.5,1.67s1.26.86.8,1.31-.85.5-1.76.86-1.77,1.76-1.61-.41.95-2.57.15-4-.61-2.07-1.92-2.17-1.87.2-2-.81a29.79,29.79,0,0,1-.55-4.43c.1-1.21-1.46-1.52-2.12-2.63s-1.26-1.61-.45-2.22,1.91-1.41,1.41-1.56a30.32,30.32,0,0,0-4.17.35c-1,.58-2,.78-2.18,1.42s-.51,1.74.53,1.91,2.86.61,3,1-.77,1.32-1,2-.57.94,1.42,1.65,2.38.67,2.85,1.71-.47,1.11-1.21,1.35-1.88.67-1.51,1.65,1.45,1.54,1.65,3-.24,2.39-1.42,2.39-2.42-.37-2.48.81,1.07,2.65.9,3.46a.85.85,0,0,1-1.58.37c-.5-.77-2-1.55-2.31-2.49s.13-2.65-.54-3.36-1.28-2.35-2-1.58-1.08,2.49-2.62,2.79-4.2.4-4.24,1.85a31.88,31.88,0,0,0,.51,3.56c0,.54-.42,4.42-.1,4.89s.58.71,1.49-.35,1.56-2,2.32-1.11,2.22,1,1.29,2-1.67,1.44-2.17,1.36-2.12-.68-2.17.15.43,1.29,1.06,2.09-.23,1.62,1,1.54a3.77,3.77,0,0,0,2.85-1.23c.48-.73-.66-1.36.9-1.29s3.08.68,4.64.15,2-.17,2.17.63a4.85,4.85,0,0,0,1.14,2.35c.6.55.55,1-.43,1.31s-1.24.23-1.51,1.11-2.15,2-2.43,2-1.46-.36-2.21.37-.91,1.57-2,1.84-2.21-.17-2.29-1.1-.56-2.12-1.51-1.77-1.21.63-1.54,1.71-.91,2.07.33,2.2,2.16-1.24,2.37.8-.21,3.53.93,3.74,3.83.6,4.31.07.1-1.41,2.24-1.06a18.67,18.67,0,0,1,3.81,1c1.16.38,1.74-.08,1.74-1s-.6-1.16.25-1.84,1.34-1.16,1-2.15-1.36-1.31-.73-2.14,2.66-3.29,4.2-4.94,1.05-1.28,3.57-2.69,4-2.92,4.17-3.46.67-1.65,2.48-1.11,2.93.94,4.51.64a3.91,3.91,0,0,1,3.36.77c.5.5,3.26,2.12,4.77,1.78a2.69,2.69,0,0,0,2.39-1.75c.64-1.14,1.75-1.17,1.28-2.28S132.77,664.62,130.58,665.36Z" fill="url(#a)"/>
        <path d="M83,676.1a16,16,0,0,1-.76-2.52c-.35-1.31-1.11-3.78-2.42-2.06-.75,1-1.51,1.41-1.31,2.11s0,1.31.2,2,.26.86,1.36,1.66.91,1.16,1.72,2.32.76,2.07,1.66,1.06,1.21-.55.91-1.66A25.58,25.58,0,0,0,83,676.1Z" fill="url(#a)"/>
        <path d="M78.44,691.23c-1,0-5.14.66-5.14.66a6,6,0,0,0-2.78,1.21c-.7.75-1.16,1.46-.1,1.76a13.9,13.9,0,0,0,3.58,0c1,0,1.67-1,2.68-1.46s1.66-.35,2.22-.76A.79.79,0,0,0,78.44,691.23Z" fill="url(#a)"/>
        <path d="M67.72,742.18c.94-.67,2-1.07,1-1.81s-1.42-.81-1.69-2.22-.13-3.43-.26-5.11a1.62,1.62,0,0,0-2-1.48c-.21,0-1.48.2-2-.34a6,6,0,0,1-.88-1.14c-.8-.4-2.35.81-1.54,1.95s2.15,2.28,2.15,4a15.1,15.1,0,0,1-1.08,5.52c-.6,1.21-1.41.53-1.61,2.55s-1.08,2.49,1.61,1.55,2.83-.74,4.24-.2,1.82.67,1.82-.81S66.78,742.85,67.72,742.18Z" fill="url(#a)"/>
        <path d="M77.87,738.62c-1.48-.27-5.11.54-5.11.54-1,.6-.67,1.21-1.48,2.21s-2.76,3-.67,2.36,2.49-1.08,3.63-1.48,3.43-.14,3.7-.94S79.35,738.89,77.87,738.62Z" fill="url(#a)"/>
        <path d="M4.72,725.57c-.95-.6-3.57-2.48-4.31-1.07a6.47,6.47,0,0,0-.4,3c0,.81.13,1.28,1.14.74s1.15-1.07,2.56-.8S5.66,726.18,4.72,725.57Z" fill="url(#a)"/>
        <path d="M45.16,796.37c-1.21,0-6.46.71-6.46.71-1.51.71-4,1.61-4.74,2a1.57,1.57,0,0,0,.51,2.62c1.31.7,2.22,1.31,2,2.72s-1.42,2-.11,2.83,3.74,3.53,3.64,1.21.4-3.23,1.1-3.43,1.82,0,2.83-.71.91-1.31.7-2.72.81-2.22,1.52-3.33S46.37,796.37,45.16,796.37Z" fill="url(#a)"/>
        <path d="M104,784.64c-.88.44-1.62,0-1.75,1.11s.54,1.41,1,1.71.91,1,1.41,0a4.14,4.14,0,0,0,.78-2.19C105.47,784.34,104,784.64,104,784.64Z" fill="url(#a)"/>
        <path d="M71.53,780a1.35,1.35,0,0,0-1.21.05c-.85.1-.7,0-1.51,1.21s-1.77,2.32-.45,2,.15-.3,1.51-1.26S72.14,780.34,71.53,780Z" fill="url(#a)"/>
        <path d="M125.14,780.77a14,14,0,0,1-1.82.24c-.47.17-1.07.37-1,1a4.85,4.85,0,0,1,.27,2.22c-.24.84-.51,1.75.13,2.12s1.34,1.58,1.51.7,0-1.47.27-1.84.71-.61,1.31-1.35a2.7,2.7,0,0,0,.61-2.22A1.22,1.22,0,0,0,125.14,780.77Z" fill="url(#a)"/>
        <path d="M99.35,603.1a1.92,1.92,0,0,0,1.75-1.44c.27-1,.27-2.15,1-2.39a16.85,16.85,0,0,0,2.83-1.08c.91-.5,1.61-.6,1.14-1.44a14.52,14.52,0,0,0-1.68-2.59c-.84-1-1.51-3.4-2.22-2.19s.24,1.62-1.07,2.76-1.21,1.85-2.29,3.23-1.75,1.65-1.14,2.65S98.65,603.24,99.35,603.1Z" fill="url(#a)"/>
        <path d="M98.24,587.84c1.28.2,1.68-.4,2.59-.44s2-.5,1.31-1.11-1.14-2-2-.9a3.94,3.94,0,0,1-1.44,1.37C98,587,97,587.64,98.24,587.84Z" fill="url(#a)"/>
        <path d="M82.58,609.05c.16,1,.43,2.12,1.07,1.28a3.94,3.94,0,0,0,.54-3.16,2.07,2.07,0,0,0-1.24-1c-.71,0-1.45.2-1.15.87A6.29,6.29,0,0,1,82.58,609.05Z" fill="url(#a)"/>
        <path d="M372,1125.21a21.31,21.31,0,0,0-3.68.55,25.22,25.22,0,0,1-2.68,1.67c-.45.15-.95,1.21-.7,2.67s.45,2.17-.4,3.23-2.17,1.26-1.62,2.32.41,2.77,1,2.82,1.41-1,2.12-2.12-.51-.6,2.57-2.52,3.88-2.37,4.79-3.58a3.12,3.12,0,0,0,.2-3.53C373,1125.61,373.34,1125.21,372,1125.21Z" fill="url(#a)"/>
        <path d="M797.37,1250c-2.36-1.35-5.45-3-6.73-3.9s-3.7-2.09-4.17-4.24-2.48-3.83-.87-4.84,2.62-1.81,2.15-2.69-1.54-1.14-1.21-2.76,2.29-4.84.81-5-2,.54-2.83.74a5.52,5.52,0,0,1-3,.07,10,10,0,0,0-4.91,0,18.33,18.33,0,0,1-5.11.67,14.78,14.78,0,0,0-2-.13c-1.48-.07-3.09-.88-3.76-.94s-.94.4-1.68.87-1.89-.13-1.68,1,.74,1.61,2.35,2.75,2.29,1.08,1.88,2.83-1.54,3.36-.47,4.84,3,2.76,3.9,3.77,3.36,3.63,4,5,.54,2,2.69,1.48,4.1-.47,5.24.6,2.36,1,3.7,4.37,1.14,3.36,3.09,3.36,1.75-.26,3.77.07,3,.88,3.09-.87a8.23,8.23,0,0,1,1.08-4C797.3,1252,799.72,1251.36,797.37,1250Z" fill="url(#a)"/>
        <path d="M801.92,1275.28a15.84,15.84,0,0,0-2,.71c-.7.15-.95.2-.7,1.46s-.15,2.27.25,2.47,1.36-.25,2.07-.81a2.82,2.82,0,0,0,1.21-2C802.73,1276.39,802.63,1275.13,801.92,1275.28Z" fill="url(#a)"/>
        <path d="M765,1018.05c-.94-1.14-2.49-1.48-2.56-2.69s-.67-1.81.74-2.62,2.09-1,2.09-2.08-.34-1.28.74-2.16a3.36,3.36,0,0,0,.6-3.83c-.54-1.21,1.55-3.16-.94-2.28s-2.22.67-4.37.53-8.4-.06-8.4-.06c-1.28,0-3-1.21-3.16.2s-1.21,2.42.4,3.29,3.36,2.15,3.29,3.3-.4,2.62-.53,3.56,1.21.67,3.09,1,2.22.87,3.43,2.55,1.41,3.3,2.35,3.37a12.93,12.93,0,0,1,2.62.2C764.82,1020.54,765.9,1019.2,765,1018.05Z" fill="url(#a)"/>
        <path d="M922.26,174.64c-.57-.81-2.72-.67-2.72-.67-.61.23-1.28,1.34-2.19,1.41s-2.32.1-2,.77,1.38.88,2.22,1.68-.07,1.18,1.55,1.18a23.65,23.65,0,0,1,3,0c1.24.14,2.32-.3,1.65-1.41S922.83,175.45,922.26,174.64Z" fill="url(#a)"/>
      </g>
      <g>
        <path d="M937.12,108.71c-.57-.47-2.09-.27-3.23-.6s-3.33-2.69-4.2-3-6.19,1.14-8.2,1.88-2.32.51-3.33.27-2.09-2.82-3.4-4-2-5-2.18-5.58a11.37,11.37,0,0,1,.6-5c.64-1.58.3-2.21-1.14-3.09s-2.89-3.13-4.14-5.81.47-5.82,1.48-7.3a4.15,4.15,0,0,0,.81-3.77c-.34-1.14-2.29-.33-2.76-1.21s2.76-2.68,3-3.76-1.08-.47-3.23-.67a16.09,16.09,0,0,0-6.72.87c-2.49.81-2.76-.07-4.51-.67a56,56,0,0,0-8.54-1.41c-1.14-.07-9.81-.14-10.82.6s-1.45.81-2.22.64-.84-2.22-.94-2.45a21.77,21.77,0,0,0-4.07-2.42c-1.24-.54-.4-1.75,0-3.13s-3.36-.27-5.41-.37-.74-.3-1.21-1-2.62-1.34-3.53-1.44-1-.91-2-2.22-3-1.21-3.66-1.08-.37,1.42-.44,2.39.17.81.54,1.31-.77,1.52-1,2.29-1.54-.1-1.81-1.38-1.62-2-3.13-3.19-2.39-.41-3.23.1-1-.3-1.61-1.28A2.89,2.89,0,0,0,840.47,52c-.81,0-4.88.34-5.79.27s1-1.82,1.55-2.32,0-2.22-.77-2.46a57,57,0,0,1-7.4-4.43,21.49,21.49,0,0,1-.47-3.33c0-.67,1.61-2.32,1.92-2.83s-.81-1-1.89-.87-1.91,1.14-2.48,1.18-1.95-.88-3.27-1.15a7.92,7.92,0,0,1-3.86-2c-.54-.78-2.39-3.77-2.66-4.17s-1.65-3-2.55-3.67A8.59,8.59,0,0,1,810.17,24c-.63-1-.1-8.43-.43-9.31a54.48,54.48,0,0,0-6.46-7.59c-.67-.34-11-5.6-11.24-5.7S789.21,0,788.08,0s-4.34,2.12-5.72,2.34-4-.17-4.77-.8-1.59.05-2.37.5a21.23,21.23,0,0,1-4.66,1.52c-1.09.15-1.67,1.36-3,1.84S766.12,4.06,765.69,4s-.73,2.65-1.31,3.3-6.15,3-7.09,3.27-1.44,1.41-1.85,2.05-6.48,4.91-7.16,6-1.54.37-2.42.37S745,21,744.49,22.52s-2.06,5.81-2.26,6.55-3.56,4.1-4.43,5.31a38.17,38.17,0,0,1-4,5.08c-1.1.91-.65,1.81-.7,2.42s-.76,1.31-2,1.82,0,1.1,1.06,1.36.81.6,1.21,1.31,3.28,2.17,4.44,2.57a14.91,14.91,0,0,1,4.29,2c1,.85,3.58,3.12,4.28,3.88s.91,6.05.91,6.81-.35,5.29-.71,5.19S745.19,62,745.14,61s-1.66-3.63-2.22-4.39a25.37,25.37,0,0,0-4.08-3c-.86-.56-3.38-1.36-4-1.77s-1.56-1.61-2.32-1.61-2,1.66-2.72,2.93-1.66.5-2-.06-2.67-2-3.37-2.72-4.14,1.72-6,2.62-1.61.76-1.31,1.06a1.83,1.83,0,0,0,2,.41,23.33,23.33,0,0,0,3.73-2c1.31-.71,2.22.2,2.83.76s-.11,1.41-.36,1.81-2.42.76-3.43,1.26.46.46.91,1-1.46,1-3.33,2.32-1.36-.1-1.81-.61-2.07.86-2.17,1.62.3,1.31-.4,1.51-8.53,4.06-9.08,4.26-11.85.33-12.86.43-.35.1-2.22,1.21-7.87.56-9.28.56a35.76,35.76,0,0,0-6.65.6c-1.21.4-3.58,1.92-4.64,2.27s-7,1.66-9,2.52-10.54,7.16-12.15,8S635,86.42,633.91,86.49s-7.73,2-9,2.89-11.64,8.34-12.38,8.88-2.08-.67-3.22-1-7.53,7.93-7.53,7.93a39.08,39.08,0,0,0-2.42,4c-.61,1.34-4,5.44-4.78,6.79a5.73,5.73,0,0,0-1.07,3.56c.13,1-.88,4.37-1.48,6.52s-4.22,5.95-4.22,5.95-7.21,9.33-8.42,10.34-1.92,2.83-2.53,4.59-1,6.42-1.24,6.62a27,27,0,0,0-3,3.7c-.51,1-1.21,3-1.72,4a48,48,0,0,1-3.16,4.84c-.47.57-2.69,3.24-2.63,3.74s1.51.11,2.67.26-.15.8-.86,1.41-1.21,2-2.62,3-1.77-.1-2.42-1-1.77,1.66-2.22,2.87-2.12,4.44-2.62,5.8-.46,2.62-.91,3.58-2.83,3.13-3.18,3.88a62.87,62.87,0,0,0-1.56,7.77c0,.7-1.06,3.43-1.21,4.39s-.2,5.9-.15,7.06.45.6,1,.6,1-1,1.51-1.16.15,1.26-.15,2.07-2,2.22-2.78,3.53-6.75,6.84-8.3,8.52-1.41,3-2,5.85-5.24,6.52-7.12,8.47-3.57,3.63-3.43,4.44,2.62,1.21,3.7,1.61,8.4.34,10.15.54-4.57.81-6.39,1.35a9.39,9.39,0,0,1-4.3.53c-1.28-.2-2.76-2.22-3.7-2.62s-7,1.75-8.2,1.75-7.4.67-8.61,1.55-5.85,7.39-6.39,7.8-.67,1.61-.94,3a9.47,9.47,0,0,1-1.41,3.09c-.47.88,1.08,1.55,1.68,2.22s5.24,2.89,5.72,3.77-.81.47-1.22.33-5-2.82-5.58-2.69a6.31,6.31,0,0,0-3.22,1.69c-.74,1-1.35,1-2.15.4a1.94,1.94,0,0,0-2.22-.27,27.23,27.23,0,0,0-5.11,3.16c-.94.94-2.63,4.71-3.1,6.39s-1.14,5.65-1.27,6.18-4.31,6.05-4.84,7.6-1.67,7.21-1.67,7.21-1.16,2.68-1.76,4-4.59,8-5.2,9.53a10,10,0,0,0-.7,3c0,.15-7.42,10.32-7.82,11.26s-5.51,5.58-7.6,6.93-7.53,11.26-7.53,11.26a3.37,3.37,0,0,0,1.48,3.2c1.82,1.21,4.64,3,6.05,4s6.12,4.64,6.79,5.85a12.74,12.74,0,0,0,4.91,3.9c1.35.41,11.43,2.29,13.85,2.22a16.65,16.65,0,0,1,6.79,1.21c1.89.81,5.92,3,7.53,4.71a110,110,0,0,0,8.81,7,11.37,11.37,0,0,0,7.26,2.22c3.16-.2,5.92-.2,6.79.67s6.39,5.72,7.6,7,5.35,4.33,7.16,4.84,8.37-.3,10-.41.7.21-1.11.81-8.47,2.52-9.38,2.12-8.17-5.95-8.68-6.76-5.31-6.15-7.12-6.55a37.31,37.31,0,0,0-7.26-.34c-1.69.07-5.79,0-7.27-1.61s-8-9.42-10.55-10.36-7.33-1.07-8.68-1.34-16.1-3.4-17.66-4.31-5-4.69-5.95-5.54-5.8-5.25-7.67-5.85-4-2.32-5.39-2.32a2.76,2.76,0,0,0-2.88,2.32c-.35,1.61-2.27,7.16-2.77,8.37s-1.51,4.79-3.08,6a47.51,47.51,0,0,0-5.9,6.39c-.2.57,1.21,1.21,2.12,1.51s4.47,2,6.93,2.79a7.82,7.82,0,0,1,4.43,2.93c.74,1.07,3,1.76,5.23,1.76s6.1.5,7,1.46a82,82,0,0,0,10.39,7.42,36.83,36.83,0,0,0,4.54,1.91l3.58,1.16s.75.51.25.51a39.38,39.38,0,0,1-7.06-1.57c-2.17-.8-7.21-4.38-9.68-6.15s-4.89-3.43-7.16-3.58-6.26.05-7.67-1-4.94-1.76-7.26-2.57a31.17,31.17,0,0,0-6-1.41c-.81-.05-1.36-.2-1.31.55s-.71,5.6-.86,6.46-.15,1.56-1.56,1.11-3.13-1.92-4.44-2.52-2-1.72-2.62-.05a11.79,11.79,0,0,1-2.72,4,38.88,38.88,0,0,1-3.38,2.22c-.51.45-.51,1.36.65,1.36s4.49-.3,4,.35-1,1.21-.31,1.21h3.89c1.36,0,2.37.66,1.86.91s-2.12.51-3.12.86-1.16.75-.56,1.46.66,4-.5,5.25-2,1.21-1.36.1,1.21-2.58.9-3.18-1.36-2.37-1.81-1.51-2.52,6.85-2.93,7.81-2.47,4-2.27,6.2.36,3.38-.4,3.13-1.76-1.66-2.32-2-1.36-.8-1.51.36a35.49,35.49,0,0,1-2,5.09c-.25.66-1.26,1.26-1.56.81s-.05-1.52.6-2.78a61.15,61.15,0,0,0,2.47-6.35.6.6,0,0,0-1.11.05c-.35.71-3,7.21-3.43,7.51s-1.16.81-.45-.65,2.22-4.54,1.82-4.59-2.73-.2-3,.55-3.13,6.61-3.23,7.72,7.48,3.87,8.39,4.61,6.62,4.13,7.77,5.95a102.24,102.24,0,0,1,5,9.81c.88,2.15,3.23,12.31,3.94,14s3.73,4.34,5.34,5,4.14,1.62,2.42,1.62-7.86-2.93-8.77-4.74-5.35-10.69-5.65-12.61-1.92-8.37-2.82-10-4.24-3.94-4.95-4.64-.9-2.73-1.81-1.52-2.62,3.26-3.16,3.94-3.3.87-3.36,2.08.4,2.09-.21,2.89-2,2.83-1.95,3.57.54,2.42-.67,2.42-6,.13-7.06.13a3.8,3.8,0,0,0-2.62,1.08c-.2.4-1.41,1.21-1.41,2.35s-.81,1.75-1.55,2.35-3.28,3.1-3.28,4.05,1,2.32,0,2.73-3.17-.1-4,.5-1.36,2.37-2,3.33-5.19,7.46-5.8,7.87.41.55,1.06.65,3.73.81,4.59-.15-1.21-.86,1.31-1.86,3.89-1.06,4.24-2.32,1.56-6.56,1.71-7,3.18-.91,4.39-.91,3.23-.35,4.59-.35,2,.4,4,.85-1.16.76-2.52.76-3.33-.4-3.38.5a13.93,13.93,0,0,1-.5,4.24c-.61,2-2.07,5.09-2,5.5s1.57.05,3,.5,3.07.61,2,1a15.21,15.21,0,0,1-4,.35c-1.16,0-1.31-.35-2.77.71a6.46,6.46,0,0,1-3.94,1.46c-1.26,0-11.56-.08-11.83,0s-.27.54-.23,1.24.74,1.79,0,1.79-1.81.57-1.65-.14.71-1.71.51-2-.47-.4-.77.41-1.55,4.5-2,5.54-2.15,2.93-1.08,3.43,11.1.17,11.8-.27,1.45-2.11,2.19-3.09,1-1.88,1-.84a18,18,0,0,1-2.28,5.41,8,8,0,0,1-2.52,1.48,49.42,49.42,0,0,0-6.53,4.07c-.27.34.88,2.52,1.31,3.3s2.26,3.79,1.89,4-4.07-6.18-4.41-6.28-1.64,2.08-1.71,2.38-4.94,8.11-5.51,9.52-2,4.54-1.55,4.84,1.78.91,2.29,1.34.33.84-.51.84-6.82-1.14-7.36-.37a48.24,48.24,0,0,0-2.72,7.38c-.16,1,.1,1.11,1.16,1.16s4.58-.05,3.83.31-5.55.2-6.1.7-2.12,4.64-3,5.45-2.72,3.73-2.17,3.88,5,1.46,5,1.92-7.85,15.81-8.38,16.69-4.1,7.8-5.11,8.47a8.66,8.66,0,0,1-4.1.81c-1.15,0-2.76-.07-3,.67s-.88,3.29-1.62,3.83-1.68,1.21-.6,2.22,3.16,3.5,5.44,4.44,13.12,3.9,14.73,4.77,3.29,1.75,4.5.07,8.07-3,10.09-3,6.39.47,8.2.47,8.81-1.61,11.16-1.88a22,22,0,0,1,8.34,1.54c1.41.68,5.18,4.64,6.93,5.85a11.91,11.91,0,0,0,6.45,1.75c2.15,0,6.19-.2,7.6,1.15a6.08,6.08,0,0,0,4,2c1.21,0,21.85,2.69,23.76,2.09s5.35-1.52,7.37-.61,5,4.94,8.87,4.44,13.52,1.21,16.34.3,8.88-5,9.58-6.15,7.16-7.56,7.16-7.56,3.13-2.93,2.83-2.32-9.48,10.48-9.59,11.29.11,2.32-1.21,3.53-1.91,3.53-3.63,3.83-9.38.31-11.39.31a96.7,96.7,0,0,1-12.11-1.42c-2.82-.6-5.44-1-7.46-2.31a14,14,0,0,0-6.45-2c-1.11.1-2,1.41-4.84,1.31a115.33,115.33,0,0,1-11.6-1.72c-.91-.2-13.75-3.12-15.37-3.39a22.27,22.27,0,0,1-5.11-1.08c-2.55-.87-7.93-3.16-9.75-4s-4.9-2.82-6.58-3.7a9.46,9.46,0,0,0-5.52-1.48c-2.49.14-9.55,1.88-10.89,2.09s-6.19,1.14-9,1.34-6.15,3.3-9,2.79-2.82-1.81-7.16-3.12-16.23-2.93-19.56-4-7.33-2.86-8.37-2.86-2.49-.53-2.12,0a5.65,5.65,0,0,0,2.32,1.61,11.67,11.67,0,0,1,2.38,1.88c.34.24,2.66.64,3.43.88s1.92.74,2,1.38-1.24,1.78-1.85.9-3.83-2.32-4.91-2.45-2.15-.27-2,.34-.61,2,.23,2.75,1.58,1.55.34,1.65-2.93-.47-4.24-.44-4.07,1.38-5.58,2.09-6.25,4.1-6.86,4.33-1.31.81-.2,1.18,2.49.84,2.42,1.82a6.75,6.75,0,0,1-1.28,4.37c-1.41,2-2.21,4.1-3.22,4.94a2,2,0,0,0-.07,3.16c1,.8,1.35,2.22,2.42,2.15s3.9-.81,4.64-1.68,3.09-3.57,3.73-4.24,1.08-1.31,2.42-1.11,3.57.24,3.6.54-1.24,1.18-1.55,1.48-.27.47-1.21,0-1.75-1-2.28-.7a6,6,0,0,0-1.62,2c-.43.78-.8.95-1.24,1.75s0,1.38,1,1.11,2.35.1,3.9-.4,3-1.31,3.63-1.14a4.53,4.53,0,0,1,2,.87c1,.71,2.55.61,3.19,1.61s1,1.68.54,1.68a11.48,11.48,0,0,1-2.82-1.51,7.33,7.33,0,0,0-2.89-1.34,14.36,14.36,0,0,0-3.2.53c-.74.24-3.36.37-4,.78s-.81,1.34-1.75,1.85-2.82.3-2.35-.2,1.38-.64,1.85-1,.37-1-.94-.74a10.52,10.52,0,0,0-2.89.81c-.64.34-1,1.75-1.25,2.76s-.84,5.58-.43,6.79,0,2.49-.68,4.1-1.95,5-.33,5.24,3.49-.33,4.37.27,1.54,1.82-.41,2.49a12.57,12.57,0,0,0-5,3.63,77.39,77.39,0,0,0-6.46,10.83A33.21,33.21,0,0,0,288,639c-.4,3.63-2,4.31-1.34,6.52s1.41,1.62,1.68,3.43-.91,4.44.15,3.94,3-.51,2.67-1.31-1.86-.81-.5-1.16,3.28-1.42,3.08-.46-3.33,3.48-4.19,3.89-1.71.7-2,1.71a103.53,103.53,0,0,0,.15,13.16c.26.35,2.07-.1,2.37-.1s1.26-1.76,1.32-2.67.25-3.38.55-2.12-.2,5-.1,6.4-.4,1.67-.61.71.41-2.07-.45-1.66a5.54,5.54,0,0,1-2.17.7c-1,.1-1.61.1-1.41,1s-.25,2.52.81,3,2.57.85,2.62,2-.51,2.37.1,3.18,2.37,1.75,2.71,2.59.06,2.15-.58,1.17a7.52,7.52,0,0,0-2.75-2.38c-.64-.2-1.78.07-.94.7s1.58,2.63.8,2.73a14.35,14.35,0,0,1-3.59-.34c-1.18-.23-3.2-1-4.37-1.18s-1.79-1.44-1.65,1-.54,8.1,0,8.94,2.15,1.68,2.75,2.15a2.28,2.28,0,0,0,2.56.44c.94-.57,1.24-2.05,2.22-2.09s1.24.54,2.59.44a26.64,26.64,0,0,1,5.65-.1,49.3,49.3,0,0,0,7,.84c1.08-.07,1.82.27.95.47s-8.34-.24-9.08-.24-2.05,0-2.12.74.4,1.89-.6,2.46-2.06,3-2.83,3.43-1.21.8-.94,1.44a4.47,4.47,0,0,1,.05,3.06,11.79,11.79,0,0,1-2.77,2.57c-.56.26-.71.51-.15,1s1.11,1,1.71.66a18.57,18.57,0,0,1,2.93-1.47c1.51-.55,3.12-1.51,3.63-.8s1.21,1.91,2.06,2.17,1.82.75,3.08-.36,1.61-1.16,1.66-2.16a6.24,6.24,0,0,1,.86-3.33c.71-1,1-2.68,1.31-1.52s.41,1.32-.2,2.17a9.44,9.44,0,0,0-1.36,4.14c0,1.21.3,2.27-.86,2.67s-3.23,1.16-4.69.66-.86-1-2.42-.76-1.71-.3-2.77,2.22-1.82,3.73-1.31,4.08,1.16.66,1.16,1.31-.23,7.82,0,8.32.78,1.11,1,1.62.58.53.8-.13A2.2,2.2,0,0,1,293,727a1.71,1.71,0,0,0,.89-1.84,16.21,16.21,0,0,1-.71-2.92c.08-.66,1-.89,1.36,0s1.21,1.61.83,2.52S294,726.36,294,727a10.1,10.1,0,0,0,.83,2.85c.23.45.69.85.28,1.73s-1.84,2.48-2,3.84-.4,2.37-1,2.06-.1-.75,0-1.91.4-1.82-.5-1.72-2,.51-2.78.51a23.19,23.19,0,0,0-3.22.05c-.81.15-1.26.86-.61,1.26a7.51,7.51,0,0,1,1.67,1.66c.35.46,1.81.21,2.42.1s1.46-.2,1.46,1-.1,4,.55,5.4,1.06,2.52.31,2.37-.76-1.67-1.16-1.92-.86-.5-.86.61-.15,3.43-.76,2.87-.75-2.12-.7-3.07.4-2.37.4-2.88-.1-1.36-.81-.1-1.16,2.72-1.81,2.32-1-1.56-1.92-1.06-.86.4-1.16,1.67a11.74,11.74,0,0,1-1.86,3.47c-.51.71-1.11.71-.76,1.82a6.6,6.6,0,0,0,.6,1.11c.36.5.76.45,0,.71s-1,.25-1.16,1.21-1.61,1.91.11,2.72,2,1.51,3.42,1.61,4.29,0,3.69.46a9.24,9.24,0,0,1-3,.65c-.35.05-1.46.56-1.41,1a10.51,10.51,0,0,1-.81,3.78c-.5.81-1.21,1.21-.81,1.87s.16,1.51,1.21,1.26a18.72,18.72,0,0,1,2.93-.66c.2.1.76.81-.15,1.06s-2.62.71-3.08.86-1.11.35-1.21-.56a1.48,1.48,0,0,0-.65-1.31c-.46-.45.45-1.16.6-1.76s.56-3.08.66-3.68a4.18,4.18,0,0,0-.31-2.52c-.4-.46-1-.76-1.1.2a32.73,32.73,0,0,1-2.07,5.54c-.41.86-2.12,3.33-2.47,3.89a6.13,6.13,0,0,1-1.67,1.91c-.91.66-.55,5-.45,6.41s-1.16,2.37.55,2.37,1.42,1.51,3-.1,4.94-3.43,3.93-2.52a53,53,0,0,0-3.73,4.33,3.91,3.91,0,0,0-.81,2.94c.14,1.21.44,2.46-.23,3.64s-1.58,2.79-1.21,3.16-.61.94-1.08,1.07-1.34.07-1.64.64-.78.87,0,1.34,1,1.08,1.81,1.15a15.4,15.4,0,0,1,2.69.2,46,46,0,0,0,6.49.1c1.78,0,4.14-.74,3.2-.17a15.53,15.53,0,0,1-4.81,1.65c-1,0-3.63-.07-4.84-.14s-3.63-.3-3.9.31-.57,1.64-1,1.75-.74-.31-1.14-.81-.94-.47-1.14-1.08.23-2.72.13-3.36-.77-1.48-.81-.67a36.92,36.92,0,0,1-.8,4.47,19.46,19.46,0,0,0-.81,2.25c-.1.78-1.21,1.75.2,1.28s2.79-.74,2.93,0,0,1.85-.51,1.82a3.85,3.85,0,0,1-1.31-.48c-.5-.2-1.28-.3-1.28.71a8.33,8.33,0,0,1-.7,3.43c-.51,1-1.68,2.69-2,3.6s-.54,1.34.27,1.11a20.64,20.64,0,0,1,3.29-1.08c.71,0,2-.17,1.28.61a4.25,4.25,0,0,1-2.39,1.31c-1.24.37-1.74.3-1.88.9a21.88,21.88,0,0,0,.47,3.7c.08.51-.17.86,1.19.43s3.81-1.34,3.65-.68-1,1.08-1.63,1.26-2.2.08-2.6.83a3.85,3.85,0,0,0-.3,2.27c.07.58,1.26.53,1.79,1a2.36,2.36,0,0,1,.9,1.84c-.05.73-2.09.8-2.37.88s-.59,2.72-.26,2.86,2.09-.21,2.89.4a3.15,3.15,0,0,1,1.11,2.59c.07,1.11.32,3.07.78,3.13a6.67,6.67,0,0,0,2.52-.51c1.06-.4,1.81-.91,1.86.25a15.44,15.44,0,0,1-.45,2.93c-.15,1.21-.25,1.91.5,1.26s2.37-3.28,3.43-3.88,2.27-1.26,1.62-.16-2.32,2.42-3.08,3.48-1.51,1.87-.86,2,2.12.2,3,.3,2.27.81,1.06.86-2.57.45-4,0-1.05-.55-2.52-1-2.62-.1-2.77-.91-.3-2.67-.76-3-2.47-.1-3.43.25-2.52.35-2.57,1.06-.4,2.87-.75,2.77-1-1-.56-1.41.86-1.26.4-1.31a7.6,7.6,0,0,0-2.57,1,39.72,39.72,0,0,0-4.23,2c-1.42.9-2.27,1.86-2.68,1.86s-.8-1.26-1.36-.35-.2,1.86-.6,2.72-.36,1.46.55,1.06,1.62-1.56,1.62-.55-1.13,3.73-.89,4.6-.27,1.31-.27,2.19.53,1.48,1.54.4,1.92-1.55,2.83-1.28a8.68,8.68,0,0,0,4.3.07c2.12-.4,2.59-.5,2.86-1.11s.94-1,1.41-.27.34,1.14.81,1.14,2-1.14,1.88-.37-.54,2.09-1,2.09-.24-1.28-1.21-.34-1,1.92-1.62,2.49-.74.81-1.14.47-.44-.67-1.41-.07-2.15,1.82-2.76,1.42a3.27,3.27,0,0,1-1.34-1.85c-.17-.74-.78-1-2-1s-2.86-.64-3,0,.87.33,1.35,1.11.53,1.51.16,1.58a2.66,2.66,0,0,1-1.51-.41c-.74-.33-1.48-.9-1.14.31a33.47,33.47,0,0,1,.67,3.76c.1.74,1.55.78,3,.78s4.77-1.18,5-.81,0,.57-.57,1.28-1.64,1.27-.77,1.51,2.22.81,3,.27a11.12,11.12,0,0,0,2.45-3.43c1-1.75,6.79-7.4,7.23-8a3.56,3.56,0,0,1,1.81-1.24c.44-.07,6.66,0,8.41-.37s9.21-.71,11.19-1.21a65.72,65.72,0,0,1,7-.94c.88-.1,2.19-.94,1.18.1s-12,2.52-13.28,2.66-9.95.9-11.63.9-2.72.1-3.16.74-8.71,11.47-8.71,11.47-1.44,1.38-1.48,2.08a3,3,0,0,0,1.31,2.29c.61.16,10.09,5.58,11.2,6.28s8.87,6.56,9.63,7.52,1.9,2.3,2.4,2.06,1.58-1.1,2.73-1.68,2.22-1.11,1.24-.27a23.74,23.74,0,0,0-2.89,2.66,1.2,1.2,0,0,0,.23,1.35A14,14,0,0,1,289.9,885c.07.1.71-.34,1-1.1a3.8,3.8,0,0,1,1.92-2.27c1-.35,2.44-1.08,2.77-.48s.58.68-.7,1.24-2.63,1-3,1.91-1.46,2.05-.68,3A8.53,8.53,0,0,1,293,890.5c.38,1.31.18,2.69.93,2.11a9.44,9.44,0,0,1,1.87-1.16c.73-.35.73-.53.2-1.56s-1.54-1.86-.71-2.24,1.69.07,2.8.45,1.84.48,1.82,1.51-.1,2.58-1,2.63-1.49-.28-2.17.07a1.46,1.46,0,0,0-.71,1.94c.33.94,1,2.37,1.27,3a15.06,15.06,0,0,1,1.61,5.19c.13,2.49.44,9.68.34,11s3.29,11.14,4,12.55,2.47,5.42,2.62,6,.33.78.68.35-.48-1.11.55-1.84,1.42-.38,1.79-.73,0-.76.79-1.34,2.24-2.39,2.52-1a8.13,8.13,0,0,1-.78,4.57,2.54,2.54,0,0,0-.64,2.09c.23.48.23,1.64,1.09,2.17s2.17.05,2.24,1.29-.35,1.91-1,1.18-2-2.24-2.47-2.77-1.14-2.1-1.92-2.15a7.19,7.19,0,0,0-2.57.08c-.53.25-2.52-.45-1.36,1.23s1.44,2.85,2.39,3.74,2.74,4.81,3.24,6.49,1.45,4.21,1.11,4.91-1.88,1.25-2.22,1.41-.17,1.18.44,1.85,1,.88,2.86.88,3.83.37,5-.07,1-.81,2.16-1.58,1.95-1,2-.24.64,2.09-.84,2.36-6.32.87-6.66.87-.5.34-.13,1,4.5,11.23,5.92,13.45a100.92,100.92,0,0,1,4.63,9.81c.61,1.42.79,4.16,1.6,4.36s1.36.35,1.36,1.11.1,1.66.46,1.71.6,1.72.6,2.07.71,2.92.81,3.63.65,1.36,1.06.86.75-2.27,1.56-2.22a1.78,1.78,0,0,1,1.66,1.71,23.42,23.42,0,0,1,.06,2.78c.05,1.51.1,2.47.15,3.42s-.21,1.62-1,1-1.21-2.52-2.12-1.21.05,5.4-.76,6.26-3.32,2.47-3.32,3.07-1.16,4.54-.26,6,2.73,4.69,3.13,5.7,2.12,3.23,2.37,4.54-.35,2.37.1,3.68,11.9,17,12,17.25,3.28,3.07,3.63,3.33,2,.85,1.82.4-8.07-10.19-8.07-10.19-7.21-10.28-7.31-10.94.7-1.56,1.41-2,.66-1,1.77-.8,1.56.8,1.71-.66.5-2.42.15-3.58a31.09,31.09,0,0,0-1.06-4.08c-.55-1.21-2-2.53-1.16-2.78s1-.2,1.41,1.31,3.08,6.91,2.73,8.32-1.16,1.57-1.11,2.37.55,1.11,1.26,2.27,1.26,3.48.76,3.63-.91-1-1.21-1.91-1-1.82-1.87-1.82-2-.7-1.61.2a55.09,55.09,0,0,0,2.92,5.25c.61.91,5.7,8,6.61,8.82s1.61,1,1.76,1.92a2.7,2.7,0,0,0,.81,1.92c.55.5.86,1.56,1.31,1.66s.55-.56,1-1,1.76-1.31,1.91-.76-.55,1-.85,1.47,0,.7.9,1.41,1,2,1.6,1.76,1.11-1.37,1.75-.57-.37,2,.34,2.26,1,.7.57.9-.41,1-1.21,1.15-2.56.84-3-.14a10,10,0,0,0-1.32-2.62c-.6-.67-1.14-1-1.78-.77a11.76,11.76,0,0,1-1.81.7c-.61.14-1.42.34-.1.91s2.18.87,2.92,2,.67,2.08,1.51,3,1.72.43,1.85,1.58,3,4.38,5.33,5.9,15.28,9.22,16.39,10,6.5,3.63,7,3.13a3.78,3.78,0,0,0,1-3.23,72.11,72.11,0,0,1-.61-7.77c0-2.82-.1-3.83,1.11-5.74s5.55-7.37,6.15-9.69.66-12.5.61-14.12a31.66,31.66,0,0,0-1.16-5.19,101.83,101.83,0,0,1,.05-10.3,41.92,41.92,0,0,0-1.08-9.42,27.79,27.79,0,0,1-.74-6.65c0-1.68.61-6.26,2.32-8.37s3.94-4.54,4.44-5.85a38.13,38.13,0,0,0,.81-10.8c-.4-2.82-.61-8.16-.1-10.08s.1-5,.3-5.95,1.82-1.51,1.51-.2-.3,12.5.51,15a47.26,47.26,0,0,1,1.81,7.67c.3,2.32-2.92,7.26-4.23,9.08s-4.44,4.74-4.84,7.36-1.42,4.94-.91,6.45,2.08,4.81,2.08,6.56.07,6.65-.2,10.35-.4,5.18.54,7.33a18.64,18.64,0,0,1,1.28,7.2c-.14,1.61,1.54,3.69.53,5.37a16.85,16.85,0,0,0-1.95,4.24c-.33,1.28-5.36,9.43-5.76,11A19.21,19.21,0,0,0,387,1070c.35,2.52,2.62,8.83,3.17,10.34s1,1.06,1.72.71a3.29,3.29,0,0,1,2.22-.11c.85.16,1.46-.65,2.82-1.41s2.17-.85,2.77-2.67a28,28,0,0,0,1-6.2c0-.91-.4-3.23.25-1.36a23.32,23.32,0,0,1,1,5.29,3.71,3.71,0,0,1-1.21,3.63,28.76,28.76,0,0,1-5.55,4c-.75.35-2.52.15-2.67.9a2.27,2.27,0,0,0,.81,2.22,8.89,8.89,0,0,1,1.71,2.62c.31.56,1.16,2.48,2,1.87s1.51-1.76,2.42-2.42,3.58-1.31,4.94-.5,4.79,3.27,5.25,4.13-.05,1.36-.51,2.12-.7,2-1.36,1.76-8-4.33-8-3.63,11,6.36,12.71,8.07,5.24,4.24,5.55,3.68,1.41-3.58,1.41-3.58,5.68-10.91,5.95-11.71,1.48-1.62,2.69-2.22,2.08-.41,1.55-.07-3.84,3.7-4.58,5.65-5.31,11.76-5.24,12.44,13.25,6.85,14.86,8.27,7.76,4.74,9.38,7.56a120.55,120.55,0,0,0,7.43,11c1.88,2.36,7.73,10.16,9,11.64a9.46,9.46,0,0,1,2.22,5.17c.13,1.75,2.08,14.12,3.56,16.07s4.44,5.72,4.91,6.26,7,13.11,7.53,15.39,2.28,13.32,2.28,13.79.48,7.19,2.49,10.15,4,7.26,4,8.87,1.21,6.32-.21,7.2-3.29,1.14-3.22,2.49,1.48,4,1.88,5.78-1.08,4.44-1.88,4.44-2,.27-2.15,1.41-1.55,2.15-.47,2.82,1.54,1,.06,2.09-4.37,3.16-3.63,4.23a46.19,46.19,0,0,1,3.23,7.53c.47,1.68,1.41,3.43,2.49,4s1.81.6,2.48,2.55,2.49,3.9,2.43,5.45-1.69,3.76-1.15,5.78a73.36,73.36,0,0,1,1,9.14c.14,1.82.47,3.16,1.68,4.17s3.77,3.16,4.78,3.16a17.65,17.65,0,0,0,3.63-1c.47-.14.74-1.89.74-3.5s-.61-3.63-.14-5.58a10,10,0,0,1,3.83-4.84c1-.54,1.21-1,3.63,1s5.32,5.11,7.2,4.77,4.44-.27,5.78,1.14,2.22,1.88,3.3,1.75,3.22-.17,4.13,1.45,6,8.87,7.36,9.88a17.21,17.21,0,0,0,5.35,2.12c1,.2,1.71-.51,1.41-1.31s-1.71-2.73-1.92-4.14.51-4.54-1.31-6.15-3.63-1.92-3.83-4.54-1.11-6.86-.5-9.08,1.21-6.55.6-7.46.2-1.41,1.11-1.41,6.72-2.49,7.87-3.16a3.46,3.46,0,0,0,1.51-2.69c.2-1-.44-2,.94-2.72s2.93-1.79,3.2-3,.23-2.36,1.34-3,2.66-1.65,2.45-2.35-1.78-4.81-1.64-5.68-.94-11-.94-12.46-.21-1.76.75-2.92,2.62-2.88,2.62-3.73a5.06,5.06,0,0,0-.85-2.78c-.66-1.06-2.73-2.67-3.08-4s-1.06-4.34-.76-5.15a5.9,5.9,0,0,1,2.43-2.37c1-.6,2.52-.85,1.76-2.06a9.42,9.42,0,0,1-1.7-4.42c0-1.48-.06-14.46-.6-15.13s-.94-.94-.34-1.35,1.48-.74,1.28-1.68a80.78,80.78,0,0,1,.47-10.89c.34-2.15,1-6.19.6-7a39.72,39.72,0,0,1-1.41-5.92c-.33-1.88-.74-8.4-.87-10.89s2-17.21,2.49-18.83,3.49-5.44,3.83-6.52,2.76-9.35,3.16-10.49,6.92-16.94,6.92-16.94l11-35.64s3.5-12.23,4.37-13.45a50.21,50.21,0,0,1,6.19-6.38c1-.61,3.29-2,2.42-2.36s-3.5-1.47-4.31-1.68-3.9-.4-4-.94,2.29-.87,3.77-.6,4.1.67,4.37.27,2-5.11,1.81-7,2.76-10.22,3.63-12,5-8.88,6.66-9.89,4.1-1.81,5.24-2.49a10,10,0,0,0,4-3.29c1.48-2.09,3.23-4.84,5.24-5.25s11-3.42,12.71-5.11,8.61-8.13,10.36-9.88a76.37,76.37,0,0,1,8.06-6c1-.61,2.69-1.88,1.55-2.35a52.91,52.91,0,0,1-5.78-2.42c-.81-.61-1.88-2.9-2.56-3.23s-3.16-2.09-3.16-2.49a8.8,8.8,0,0,0-.6-3.39c-.61-1.32-.15-2.27-1.72-4.14s-4.64-3.48-4.33-4.89,1.27-4.19,1.81-3,.88,3.5,2.15,5.79,3.5,5.64,4.78,7.59,2.89,3.57,3.9,5.11,1.48,2.09,2.42,2.49.87.54,1.75-.94a55.79,55.79,0,0,1,6-7.19c1.55-1.48,3.36-1,3.16-3.77s-3.29-8.34-3.29-10.76.2-7.19,1.68-8.6,5.51-4,6.38-4.17,6.32-2.62,8.07-4.71,5.92-5.51,6.93-7.06,5.78-9.34,5.91-10.55a41,41,0,0,1,3.33-9.32c1.41-2.42,6-4.84,7.37-6.75a72.34,72.34,0,0,0,4.94-8.68c.2-.7,14.62-39.13,16.13-40.54a6.66,6.66,0,0,1,5.25-1.51c1.91.1,3.53-.71,4-2s1.62-4.94,2.83-4.84,2.32,1.61,2.82.1,2.22-2.52,1.61-3.33-3-1.51-3-3-.51-6.56.1-7.87,2.52-3.83,2-5.35-2.73-7.66-2.53-9.58-1.71-5.55-.1-6.05a12.55,12.55,0,0,0,5-3.53c.7-1.11,2.42-2,1.71-3.23s-1.71-1.91-.7-3.33,4.33-13.41,4.43-13.91,3.58-9.63,5.1-11.5,2.42-4.08,3.37-4.34,2.73-1,2.73-2.06a59.55,59.55,0,0,1,2-9.74c.66-1.46.61-5.95.61-5.95s6-19.56,6.56-22.29,3.16-9.31,3.22-10a37.82,37.82,0,0,0,.27-5.85c-.2-1.35-1.61-1.68-2.15-2.56s1.08-1.21,2-1.27,2.69-1.62,3.36-3a12.42,12.42,0,0,0,.6-6c-.26-1.89-1.21-11-1.21-12.51s.34-1.34,1.08-2.82.6-3.5.6-5.31,6.83-17.6,6.88-18.81-.45-1.26-.35-1.87.6-.4.6-1.06.71-9.38,1-11.19,5.8-21.43,6.1-22.7a10.54,10.54,0,0,0-.4-4.84c-.46-1.16.2-2.72.4-4.94s3.33-4,3.73-5.55,2.17-6.75,2.88-9.17.6-8.78.35-11.25a19.65,19.65,0,0,1,.66-7.06c.55-1.91,3.61-5.71,4.22-6.92s6.85-23.4,7.19-25.35,1.58-16.78,1.51-17.75-.54-.27-1.14.87A6.9,6.9,0,0,1,797.5,528c-1.07.57-1.48-.54-1.21-1.28a27.47,27.47,0,0,1,3.36-4.24,3.19,3.19,0,0,0,.25-3.33c-.5-1.16.16-3.26.29-4.2s2.89-4,3.3-5,3.22-4.17,4.5-4.64,3-3.56,4.3-5.72,1.28-3,1.28-3.76-1.28-2.82-2.55-4.24-7-13-7.53-14,0-5.19,0-6.6a53.74,53.74,0,0,1,1.74-6.76,27.37,27.37,0,0,1,2.24-4.54,61.17,61.17,0,0,1,8.09-6.43,5.36,5.36,0,0,0,2.47-3.49c.13-1.21.33-1.54-1-2.35a33.85,33.85,0,0,0-6.05-2.49,11.83,11.83,0,0,1-4.91-3.23c-.47-.67.33-1.14,1.07-.67a12.55,12.55,0,0,0,4.17,1.41,19.81,19.81,0,0,1,3.63.81,17.36,17.36,0,0,0,4.37.81c1-.07.27-2.56.07-3.9s-2-4.44-2-5.38A112.45,112.45,0,0,1,822,421c.87-1.61,10.15-5.58,11.49-6.05s4-8.13,5-8.77,2.42-.34,3.43-.68a8,8,0,0,0,3.4-3.16c.84-1.41,6.53-14.32,7-15.78s.25-2.27.65-3,1.92-.56,3-.66.76-1,.25-1.26a24.33,24.33,0,0,1-4.69-2.27,21.07,21.07,0,0,0-5.85-2.92c-2.32-.76-8.52-1.62-10.89-2.37s-4.44-1.52-5-2.53,2.07.36,4.13,1.06,3.43.31,5.2.76,4,1.51,5.19,1.61,2.12-.6,2-1.51-.46-3-.1-3.08,1.91,2.32,2.67,3.28a9.07,9.07,0,0,0,3.08,2.62,11.59,11.59,0,0,0,5.12-.37c1.35-.53.07-2.75.74-5.58a36.26,36.26,0,0,1,3.63-8.74c1.55-2.75,1.65-10.49,1.75-11.39s1.55-11,2.42-14.33,2.29-3.73,4.34-5.27.91-1.45.07-1.95-3.43-2.19-4.58-2.93-3.09-2.22-2.89-2.79,1.15.27,2.42.84a30.61,30.61,0,0,1,4.31,2.69,5.25,5.25,0,0,0,3.12.84c.61-.2,2.54-3.36,2.59-4.62s.61-1.41,1.31-1.66,2-1.57,3.58-2.88,5.2-2.27,7.06-3,1.11-1.42.2-1.72-2.21-1-2.42-1.86-.5-1.16-1.46-2.17-2.12-1.72-2.17-3.13a18.65,18.65,0,0,1,.76-5.45c.45-1.05,9.48-4.94,10.08-5.24s1.11-5,.86-6.35-1.06-9.08-1.11-10.54.36-1.47,1.26-2.07-.1-1.26-1.41-2.57-1.61-2-1.31-2.3.71-.85.1-.95a1.92,1.92,0,0,1-1.88-1.71c-.24-1.45,1-1.11,2.39-.94s3,.54,4.1.54,1.74-.14,1.17-.58-3.9-1.51-5.85-3-6.08-8.81-7.09-11.13-2.62-15.94-3.13-19.27-1.78-10.15-1.85-10.55-2.74-8.31-3.44-9.16-1.06-13.52-1.11-15.38.32-16.17.52-16.58a1.81,1.81,0,0,0-1.08-1.95c-.94-.43.24-1,1-1.41s1.31-.57,1.54-1.48a33.89,33.89,0,0,1,3.1-7.46c1.51-2.35,8.3-13.89,8.3-13.89s6.45-5,7.16-5.58,4.07-6.38,3.8-7.53.13-1.81.81-3,1.95-.47,2.69-.81,5.91-5.38,6.65-5.85,2.56-4.84,3.16-5.85,10.29-5.31,10.76-5.51,3.77-.81,5.85-1.35,8.07-6.11,8.4-6.18,2.63-.94,3-2.29S937.69,109.18,937.12,108.71Z" fill="#8e278a" opacity="0.48"/>
        <path d="M65.43,665.06c1.55.67,2.49,3,3.3,1.14s1.41-3,1.47-4.23a8.85,8.85,0,0,0-.87-3.16,26.38,26.38,0,0,1-.13-3.23c-.07-.54.47-.47,1.81-.94s1.75-.81,1.82-2.22a41.94,41.94,0,0,1,.06-4.24A3.41,3.41,0,0,0,71.82,645c-1-1.21-2.76-3.56-1.14-4.1s2.75-.2,4.23-.4,1.82-.81,2.82-1.82,1.75-1.68,1.75-2.62a1.33,1.33,0,0,0-1.88-1.28c-1.08.41-2.15,1.42-2.89,1.42a4.69,4.69,0,0,1-2.89-1.08c-.74-.74-4-2.62-4.57-.67s-1.48,4.1-2,5.51-2.22,1.75-.47,3.36,2.42,3.3,1.88,5.18S65.9,653,65,653.09s-3.5-1.34-4-.8-1.21,1.48-.4,2,3.09.34,3.5,1.28.87,3-.34,3.77S62.34,662,60,661.83s-3.56-.6-4.77.81-3.76,4.17-4.1,4.84,1.28,1.08,3,.27,3.17-1.34,4.31-.74,1.48.4,3.23-1S63.88,664.39,65.43,665.06Z" fill="#8e278a"/>
        <path d="M130.58,665.36c-2.18.74-3.73-.37-3.53-1.58s1-6.12.44-6.62a47.52,47.52,0,0,0-3.56-3.16c-1.05-.67-1.72-.34-2.69-.3s-2.59-.24-2.86-.74.55-2.78.45-3.23-.2-.3-1.21-.76-1.86-1.26-2-.45a13.94,13.94,0,0,1-.66,3.68c-.5,1.21-.81,3.18-1.51,3s-.41-1-1-1.87-.5-2.12-1-1.71a3.33,3.33,0,0,0-1.16,2c-.15.91-.7,1.21-.5,1.67s1.26.86.8,1.31-.85.5-1.76.86-1.77,1.76-1.61-.41.95-2.57.15-4-.61-2.07-1.92-2.17-1.87.2-2-.81a29.79,29.79,0,0,1-.55-4.43c.1-1.21-1.46-1.52-2.12-2.63s-1.26-1.61-.45-2.22,1.91-1.41,1.41-1.56a30.32,30.32,0,0,0-4.17.35c-1,.58-2,.78-2.18,1.42s-.51,1.74.53,1.91,2.86.61,3,1-.77,1.32-1,2-.57.94,1.42,1.65,2.38.67,2.85,1.71-.47,1.11-1.21,1.35-1.88.67-1.51,1.65,1.45,1.54,1.65,3-.24,2.39-1.42,2.39-2.42-.37-2.48.81,1.07,2.65.9,3.46a.85.85,0,0,1-1.58.37c-.5-.77-2-1.55-2.31-2.49s.13-2.65-.54-3.36-1.28-2.35-2-1.58-1.08,2.49-2.62,2.79-4.2.4-4.24,1.85a31.88,31.88,0,0,0,.51,3.56c0,.54-.42,4.42-.1,4.89s.58.71,1.49-.35,1.56-2,2.32-1.11,2.22,1,1.29,2-1.67,1.44-2.17,1.36-2.12-.68-2.17.15.43,1.29,1.06,2.09-.23,1.62,1,1.54a3.77,3.77,0,0,0,2.85-1.23c.48-.73-.66-1.36.9-1.29s3.08.68,4.64.15,2-.17,2.17.63a4.85,4.85,0,0,0,1.14,2.35c.6.55.55,1-.43,1.31s-1.24.23-1.51,1.11-2.15,2-2.43,2-1.46-.36-2.21.37-.91,1.57-2,1.84-2.21-.17-2.29-1.1-.56-2.12-1.51-1.77-1.21.63-1.54,1.71-.91,2.07.33,2.2,2.16-1.24,2.37.8-.21,3.53.93,3.74,3.83.6,4.31.07.1-1.41,2.24-1.06a18.67,18.67,0,0,1,3.81,1c1.16.38,1.74-.08,1.74-1s-.6-1.16.25-1.84,1.34-1.16,1-2.15-1.36-1.31-.73-2.14,2.66-3.29,4.2-4.94,1.05-1.28,3.57-2.69,4-2.92,4.17-3.46.67-1.65,2.48-1.11,2.93.94,4.51.64a3.91,3.91,0,0,1,3.36.77c.5.5,3.26,2.12,4.77,1.78a2.69,2.69,0,0,0,2.39-1.75c.64-1.14,1.75-1.17,1.28-2.28S132.77,664.62,130.58,665.36Z" fill="#8e278a"/>
        <path d="M83,676.1a16,16,0,0,1-.76-2.52c-.35-1.31-1.11-3.78-2.42-2.06-.75,1-1.51,1.41-1.31,2.11s0,1.31.2,2,.26.86,1.36,1.66.91,1.16,1.72,2.32.76,2.07,1.66,1.06,1.21-.55.91-1.66A25.58,25.58,0,0,0,83,676.1Z" fill="#8e278a"/>
        <path d="M78.44,691.23c-1,0-5.14.66-5.14.66a6,6,0,0,0-2.78,1.21c-.7.75-1.16,1.46-.1,1.76a13.9,13.9,0,0,0,3.58,0c1,0,1.67-1,2.68-1.46s1.66-.35,2.22-.76A.79.79,0,0,0,78.44,691.23Z" fill="#8e278a"/>
        <path d="M67.72,742.18c.94-.67,2-1.07,1-1.81s-1.42-.81-1.69-2.22-.13-3.43-.26-5.11a1.62,1.62,0,0,0-2-1.48c-.21,0-1.48.2-2-.34a6,6,0,0,1-.88-1.14c-.8-.4-2.35.81-1.54,1.95s2.15,2.28,2.15,4a15.1,15.1,0,0,1-1.08,5.52c-.6,1.21-1.41.53-1.61,2.55s-1.08,2.49,1.61,1.55,2.83-.74,4.24-.2,1.82.67,1.82-.81S66.78,742.85,67.72,742.18Z" fill="#8e278a"/>
        <path d="M77.87,738.62c-1.48-.27-5.11.54-5.11.54-1,.6-.67,1.21-1.48,2.21s-2.76,3-.67,2.36,2.49-1.08,3.63-1.48,3.43-.14,3.7-.94S79.35,738.89,77.87,738.62Z" fill="#8e278a"/>
        <path d="M4.72,725.57c-.95-.6-3.57-2.48-4.31-1.07a6.47,6.47,0,0,0-.4,3c0,.81.13,1.28,1.14.74s1.15-1.07,2.56-.8S5.66,726.18,4.72,725.57Z" fill="#8e278a"/>
        <path d="M45.16,796.37c-1.21,0-6.46.71-6.46.71-1.51.71-4,1.61-4.74,2a1.57,1.57,0,0,0,.51,2.62c1.31.7,2.22,1.31,2,2.72s-1.42,2-.11,2.83,3.74,3.53,3.64,1.21.4-3.23,1.1-3.43,1.82,0,2.83-.71.91-1.31.7-2.72.81-2.22,1.52-3.33S46.37,796.37,45.16,796.37Z" fill="#8e278a"/>
        <path d="M104,784.64c-.88.44-1.62,0-1.75,1.11s.54,1.41,1,1.71.91,1,1.41,0a4.14,4.14,0,0,0,.78-2.19C105.47,784.34,104,784.64,104,784.64Z" fill="#8e278a"/>
        <path d="M71.53,780a1.35,1.35,0,0,0-1.21.05c-.85.1-.7,0-1.51,1.21s-1.77,2.32-.45,2,.15-.3,1.51-1.26S72.14,780.34,71.53,780Z" fill="#8e278a"/>
        <path d="M125.14,780.77a14,14,0,0,1-1.82.24c-.47.17-1.07.37-1,1a4.85,4.85,0,0,1,.27,2.22c-.24.84-.51,1.75.13,2.12s1.34,1.58,1.51.7,0-1.47.27-1.84.71-.61,1.31-1.35a2.7,2.7,0,0,0,.61-2.22A1.22,1.22,0,0,0,125.14,780.77Z" fill="#8e278a"/>
        <path d="M99.35,603.1a1.92,1.92,0,0,0,1.75-1.44c.27-1,.27-2.15,1-2.39a16.85,16.85,0,0,0,2.83-1.08c.91-.5,1.61-.6,1.14-1.44a14.52,14.52,0,0,0-1.68-2.59c-.84-1-1.51-3.4-2.22-2.19s.24,1.62-1.07,2.76-1.21,1.85-2.29,3.23-1.75,1.65-1.14,2.65S98.65,603.24,99.35,603.1Z" fill="#8e278a"/>
        <path d="M98.24,587.84c1.28.2,1.68-.4,2.59-.44s2-.5,1.31-1.11-1.14-2-2-.9a3.94,3.94,0,0,1-1.44,1.37C98,587,97,587.64,98.24,587.84Z" fill="#8e278a"/>
        <path d="M82.58,609.05c.16,1,.43,2.12,1.07,1.28a3.94,3.94,0,0,0,.54-3.16,2.07,2.07,0,0,0-1.24-1c-.71,0-1.45.2-1.15.87A6.29,6.29,0,0,1,82.58,609.05Z" fill="#8e278a"/>
        <path d="M372,1125.21a21.31,21.31,0,0,0-3.68.55,25.22,25.22,0,0,1-2.68,1.67c-.45.15-.95,1.21-.7,2.67s.45,2.17-.4,3.23-2.17,1.26-1.62,2.32.41,2.77,1,2.82,1.41-1,2.12-2.12-.51-.6,2.57-2.52,3.88-2.37,4.79-3.58a3.12,3.12,0,0,0,.2-3.53C373,1125.61,373.34,1125.21,372,1125.21Z" fill="#8e278a"/>
        <path d="M797.37,1250c-2.36-1.35-5.45-3-6.73-3.9s-3.7-2.09-4.17-4.24-2.48-3.83-.87-4.84,2.62-1.81,2.15-2.69-1.54-1.14-1.21-2.76,2.29-4.84.81-5-2,.54-2.83.74a5.52,5.52,0,0,1-3,.07,10,10,0,0,0-4.91,0,18.33,18.33,0,0,1-5.11.67,14.78,14.78,0,0,0-2-.13c-1.48-.07-3.09-.88-3.76-.94s-.94.4-1.68.87-1.89-.13-1.68,1,.74,1.61,2.35,2.75,2.29,1.08,1.88,2.83-1.54,3.36-.47,4.84,3,2.76,3.9,3.77,3.36,3.63,4,5,.54,2,2.69,1.48,4.1-.47,5.24.6,2.36,1,3.7,4.37,1.14,3.36,3.09,3.36,1.75-.26,3.77.07,3,.88,3.09-.87a8.23,8.23,0,0,1,1.08-4C797.3,1252,799.72,1251.36,797.37,1250Z" fill="#8e278a"/>
        <path d="M801.92,1275.28a15.84,15.84,0,0,0-2,.71c-.7.15-.95.2-.7,1.46s-.15,2.27.25,2.47,1.36-.25,2.07-.81a2.82,2.82,0,0,0,1.21-2C802.73,1276.39,802.63,1275.13,801.92,1275.28Z" fill="#8e278a"/>
        <path d="M765,1018.05c-.94-1.14-2.49-1.48-2.56-2.69s-.67-1.81.74-2.62,2.09-1,2.09-2.08-.34-1.28.74-2.16a3.36,3.36,0,0,0,.6-3.83c-.54-1.21,1.55-3.16-.94-2.28s-2.22.67-4.37.53-8.4-.06-8.4-.06c-1.28,0-3-1.21-3.16.2s-1.21,2.42.4,3.29,3.36,2.15,3.29,3.3-.4,2.62-.53,3.56,1.21.67,3.09,1,2.22.87,3.43,2.55,1.41,3.3,2.35,3.37a12.93,12.93,0,0,1,2.62.2C764.82,1020.54,765.9,1019.2,765,1018.05Z" fill="#8e278a"/>
        <path d="M922.26,174.64c-.57-.81-2.72-.67-2.72-.67-.61.23-1.28,1.34-2.19,1.41s-2.32.1-2,.77,1.38.88,2.22,1.68-.07,1.18,1.55,1.18a23.65,23.65,0,0,1,3,0c1.24.14,2.32-.3,1.65-1.41S922.83,175.45,922.26,174.64Z" fill="#8e278a"/>
      </g>
    </g>
    <path d="M778.18,28.81c-5.3-.53-3.26,4.08-12.34,9.11s-20.19,15.91-22.72,22.36-5.19,8.81,6.31,12.06,5.88,15.83,4.08,23.75,5.42,7.33,13.58,11.92.55,16.16,9.7,19.19,19.89,3.89,15.89-5.53-.39-17.76,10.13-20.54-9.63-9-8.3-21.12,3.75-13.42-1.67-21.42S787,29.69,778.18,28.81Z" fill="none" stroke="#fff" stroke-miterlimit="10"/>
    <path d="M826.59,39.53A81.18,81.18,0,0,1,809.7,51.91c-10.56,5.92-15.78,14.21,2.24,25.13s19.92,17.67,29.91,14.4,3.19-13.88,1-24.32S861,57,861,57" fill="none" stroke="#fff" stroke-miterlimit="10"/>
    <path d="M901.52,140s-48.12-4.95-95.65,57.41c-16.86,22.13-24.93,18.34-32.48,30S739.15,250,732.51,268.67s-26.67,69.09-58.33,90.42-53.14,41.72-77.9,42.36-30.6-12.81-38.61-4.8-26.16,9.44-26.16,9.44" fill="none" stroke="#fff" stroke-miterlimit="10"/>
    <path d="M583.25,135.06s70.94,41.56,92.59,74.7,30.83,65.9,49.08,75.61" fill="none" stroke="#fff" stroke-miterlimit="10"/>
    <path d="M542.84,222.09s33.34,10.33,53,32.67,29.62,51.05,53.34,67.33S682.1,353,682.1,353" fill="none" stroke="#fff" stroke-miterlimit="10"/>
    <path d="M694,340.73s-1.28,28.4,21.56,34.73,35.71,8.09,51.46,15.46,44.59-26.35,79.79,8.42" fill="none" stroke="#fff" stroke-miterlimit="10"/>
    <path d="M735,380.52s-3.81,21.08-16.8,36.4S666.7,542.68,666.9,585s-19,78-62.06,155.45c-49.45,89-8,108.5,38,124.5s51.36,20.1,66-27.06,2.67-84.55,39.86-78" fill="none" stroke="#fff" stroke-miterlimit="10"/>
    <path d="M706.61,433.19s-24.77-16.62-73.6,8.3-86.29,71.06-126.5,72.27-81-43-81-43" fill="none" stroke="#fff" stroke-miterlimit="10"/>
    <path d="M486.63,511s-18.07,42.43-19.73,92.1,8,57.07,3.4,78.07-160,6.55-180,41.55" fill="none" stroke="#fff" stroke-miterlimit="10"/>
    <path d="M470.3,681.18s36.88,20.5,57.21,52.54,70.62,16.12,70.62,16.12" fill="none" stroke="#fff" stroke-miterlimit="10"/>
    <path d="M553.19,753.17S477.38,794,466.93,834,419.56,957.91,320.06,970.25" fill="none" stroke="#fff" stroke-miterlimit="10"/>
    <path d="M269.9,799.5c2,1.52,39.94,42.26,67.94,14.59s53.62-42.35,72-36-11.5,82.74,53.93,66.54" fill="none" stroke="#fff" stroke-miterlimit="10"/>
    <path d="M583.7,818.48s-58,100.55-56.43,135,42.19,62.57,19.13,98.26-95.06,149.68,8.94,189.68" fill="none" stroke="#fff" stroke-miterlimit="10"/>
    <circle cx="714.03" cy="770.22" r="1.99" fill="#8e278a" opacity="0.04"/>
    <circle cx="714.03" cy="770.22" r="1.99" fill="#8e278a" opacity="0.04"/>
  </g>
</svg>
