<svg xmlns="http://www.w3.org/2000/svg" width="15.52mm" height="15.52mm" viewBox="0 0 44 44">
  <title>youtube-white</title>
  <g>
    <path d="M18.82,22v4.08a.36.36,0,0,0,.55.32l7.11-4.08a.37.37,0,0,0,0-.64L19.37,17.6a.36.36,0,0,0-.55.32Z" fill="#fff"/>
    <path d="M0,8V36a8,8,0,0,0,8,8H36a8,8,0,0,0,8-8V8a8,8,0,0,0-8-8H8A8,8,0,0,0,0,8ZM37.43,29.19a4.35,4.35,0,0,1-3.8,3.46c-1.23.15-2.46.28-3.7.31-3.41.09-6.83.16-10.25.15a74,74,0,0,1-9.17-.43,5,5,0,0,1-2.35-.88,4.9,4.9,0,0,1-1.81-3.9C6.2,26.44,6.08,25,6,23.5L6,22l0-1.5c0-1.47.17-2.94.32-4.4a4.9,4.9,0,0,1,1.81-3.9,5.06,5.06,0,0,1,2.35-.88,73.89,73.89,0,0,1,9.17-.43c3.42,0,6.84.06,10.25.15,1.24,0,2.47.16,3.7.31a4.35,4.35,0,0,1,3.8,3.46A36.15,36.15,0,0,1,38,22,36.15,36.15,0,0,1,37.43,29.19Z" fill="#fff"/>
  </g>
</svg>
