<?xml version="1.0" encoding="utf-8"?>
<!-- Generator: Adobe Illustrator 25.4.2, SVG Export Plug-In . SVG Version: 6.00 Build 0)  -->
<svg version="1.1" id="Livello_1" xmlns="http://www.w3.org/2000/svg" xmlns:xlink="http://www.w3.org/1999/xlink" x="0px" y="0px"
	 viewBox="0 0 254.07 50" style="enable-background:new 0 0 254.07 50;" xml:space="preserve">
<style type="text/css">
	.st0{fill:#FF7600;}
	.st1{fill:url(#Tracciato_2_00000145023858741275148490000005219405860774214057_);}
	.st2{fill:url(#Tracciato_3_00000108309316905867674250000009785762037027122864_);}
	.st3{fill:url(#Tracciato_4_00000123426804741199646670000015081869157960558262_);}
	.st4{fill:url(#Tracciato_2_00000113348645262713695470000008775578680782678682_);}
	.st5{fill:url(#Tracciato_3_00000117678396285722751250000014418689809674720393_);}
	.st6{fill:url(#Tracciato_4_00000143615115401872737130000006501899401490692275_);}
</style>
<g id="logo-webnews" transform="translate(-9426.159 -133.444)">
	<g id="Raggruppa_2" transform="translate(9426.161 133.444)">
		<g id="Raggruppa_1">
			<path id="Tracciato_1" class="st0" d="M75.21,0.15L60.34,49.56H45.16L38.65,26.6l-6.71,22.96H18.18L0.65,0.15h14.47l8.91,26.45
				l6.13-26.45h16.42l6.36,26.45l6.68-26.45H75.21z"/>
			
				<linearGradient id="Tracciato_2_00000031925519032898050930000000196495221055654829_" gradientUnits="userSpaceOnUse" x1="-366.2122" y1="529.8825" x2="-366.441" y2="529.8566" gradientTransform="matrix(20.839 0 0 -61.886 7663.6157 32823.4062)">
				<stop  offset="0" style="stop-color:#000000;stop-opacity:0"/>
				<stop  offset="1" style="stop-color:#000000;stop-opacity:0.38"/>
			</linearGradient>
			<path id="Tracciato_2" style="fill:url(#Tracciato_2_00000031925519032898050930000000196495221055654829_);" d="M23.99,26.33
				l7.89,23.54L36,31.76L26.76,14.2L23.99,26.33z"/>
			
				<linearGradient id="Tracciato_3_00000044155229373098512080000015957432896670856336_" gradientUnits="userSpaceOnUse" x1="-368.1943" y1="529.7342" x2="-368.4231" y2="529.7083" gradientTransform="matrix(22.123 0 0 -60.668 8207.0049 32168.9863)">
				<stop  offset="0" style="stop-color:#000000;stop-opacity:0"/>
				<stop  offset="1" style="stop-color:#000000;stop-opacity:0.38"/>
			</linearGradient>
			<path id="Tracciato_3" style="fill:url(#Tracciato_3_00000044155229373098512080000015957432896670856336_);" d="M52.81,26.64
				l7.43,22.92l5.32-17.74l-9.39-17.22L52.81,26.64z"/>
			
				<linearGradient id="Tracciato_4_00000126290136526665951840000000732129105622502804_" gradientUnits="userSpaceOnUse" x1="-363.1584" y1="534.1113" x2="-363.3486" y2="534.0842" gradientTransform="matrix(22.2109 16.1437 31.8229 -43.7827 -8885.8691 29265.4199)">
				<stop  offset="0" style="stop-color:#000000;stop-opacity:0"/>
				<stop  offset="1" style="stop-color:#000000;stop-opacity:0.38"/>
			</linearGradient>
			<path id="Tracciato_4" style="fill:url(#Tracciato_4_00000126290136526665951840000000732129105622502804_);" d="M46.56,0.13
				L38.6,26.58l2.42,8.09l8.22-23.12L46.56,0.13z"/>
		</g>
	</g>
	<path id="Tracciato_5" d="M9505.53,176.77v-34.85h20.91v2.81h-17.8v12.94h14.79v2.76h-14.79v13.59h17.8v2.76H9505.53z
		 M9531.21,141.92h12.38c6.85,0,10.28,2.92,10.28,8.77c0,4.11-1.54,6.82-4.61,8.12c3.84,1.2,5.77,3.96,5.77,8.27
		c0,3.51-0.91,6-2.73,7.47c-1.82,1.47-4.47,2.21-7.95,2.21h-13.14V141.92z M9544,160.37h-9.68v13.64h9.98
		c2.44,0,4.31-0.52,5.62-1.56s1.96-2.86,1.96-5.47C9551.87,162.58,9549.24,160.37,9544,160.37z M9543.49,144.68h-9.18v12.99h9.62
		c2.34,0,4.05-0.56,5.14-1.68c1.09-1.12,1.63-2.78,1.63-4.99c0-2.21-0.59-3.81-1.78-4.81
		C9547.74,145.18,9545.93,144.68,9543.49,144.68L9543.49,144.68z M9560.14,176.77v-34.85h6.12l14.59,32.09h1.15v-32.09h3.06v34.85
		h-6.02l-14.69-32.04h-1.1v32.04H9560.14z M9591.83,176.77v-34.85h20.91v2.81h-17.8v12.94h14.79v2.76h-14.79v13.59h17.8v2.76
		H9591.83z M9614.8,141.92h3.16l6.32,32.09h1.65l7.32-31.69h3.66l7.27,31.69h1.66l6.32-32.09h3.16l-7.17,34.85h-6.22l-6.87-30.59
		l-6.87,30.59h-6.22L9614.8,141.92z M9668.75,144.12c-5.38,0-8.07,2.06-8.07,6.17c0,2.41,0.61,4.03,1.83,4.86s3.61,1.6,7.17,2.31
		c3.56,0.7,6.1,1.67,7.62,2.91s2.28,3.31,2.28,6.22c0,3.74-0.93,6.44-2.78,8.1s-4.57,2.48-8.15,2.49c-3.04-0.03-6.07-0.27-9.08-0.7
		l-1.81-0.25l0.35-2.66c3.52,0.49,7.07,0.77,10.63,0.85c2.51,0,4.41-0.61,5.72-1.83s1.96-3.01,1.96-5.37c0-2.36-0.58-3.96-1.73-4.81
		c-1.15-0.85-2.99-1.51-5.52-1.98c-1.87-0.31-3.72-0.74-5.54-1.28c-1.17-0.38-2.28-0.94-3.29-1.65c-0.99-0.68-1.75-1.64-2.18-2.76
		c-0.47-1.36-0.69-2.8-0.65-4.24c0-6.08,3.68-9.13,11.03-9.13c2.89,0.05,5.77,0.29,8.62,0.7l1.65,0.25l-0.25,2.66
		C9675.32,144.52,9672.04,144.23,9668.75,144.12L9668.75,144.12z"/>
</g>
<g id="Raggruppa_2_00000160164995605583522090000006745834501826172338_" transform="translate(9426.161 133.444)">
	<g id="Raggruppa_1_00000055669618184093360160000006984230271684634772_">
		<path id="Tracciato_1_00000121263294389648761050000013882773192535409590_" class="st0" d="M-9390.03-18.88l-25.79,85.73h-26.34
			l-11.29-39.84l-11.64,39.84h-23.89l-30.41-85.73h25.1l15.45,45.89l10.64-45.89h28.48l11.04,45.89l11.59-45.89H-9390.03z"/>
		
			<linearGradient id="Tracciato_2_00000156578940004274882360000006126349487442584759_" gradientUnits="userSpaceOnUse" x1="-9795.7666" y1="394.2223" x2="-9796.1631" y2="394.1773" gradientTransform="matrix(20.839 0 0 -61.886 194669.1875 24431.6445)">
			<stop  offset="0" style="stop-color:#000000;stop-opacity:0"/>
			<stop  offset="1" style="stop-color:#000000;stop-opacity:0.38"/>
		</linearGradient>
		
			<path id="Tracciato_2_00000035514998267066040730000006201137853766650240_" style="fill:url(#Tracciato_2_00000156578940004274882360000006126349487442584759_);" d="
			M-9478.91,26.53l13.69,40.85l7.15-31.43l-16.02-30.45L-9478.91,26.53z"/>
		
			<linearGradient id="Tracciato_3_00000079462491816106395750000018075270183652039353_" gradientUnits="userSpaceOnUse" x1="-9796.5771" y1="394.0298" x2="-9796.9746" y2="393.9847" gradientTransform="matrix(22.123 0 0 -60.668 207315.75 23939.7617)">
			<stop  offset="0" style="stop-color:#000000;stop-opacity:0"/>
			<stop  offset="1" style="stop-color:#000000;stop-opacity:0.38"/>
		</linearGradient>
		
			<path id="Tracciato_3_00000116204156174412138740000014560509721557017730_" style="fill:url(#Tracciato_3_00000079462491816106395750000018075270183652039353_);" d="
			M-9428.89,27.08l12.9,39.77l9.22-30.79l-16.29-29.88L-9428.89,27.08z"/>
		
			<linearGradient id="Tracciato_4_00000063598652973955210510000007899448888139494567_" gradientUnits="userSpaceOnUse" x1="-9788.3945" y1="398.0975" x2="-9788.7246" y2="398.0505" gradientTransform="matrix(22.2109 16.1437 31.8229 -43.7827 195297.9219 175462.25)">
			<stop  offset="0" style="stop-color:#000000;stop-opacity:0"/>
			<stop  offset="1" style="stop-color:#000000;stop-opacity:0.38"/>
		</linearGradient>
		
			<path id="Tracciato_4_00000080891000980183395280000004200942908478457279_" style="fill:url(#Tracciato_4_00000063598652973955210510000007899448888139494567_);" d="
			M-9439.73-18.92l-13.81,45.89l4.2,14.04l14.26-40.11L-9439.73-18.92z"/>
	</g>
</g>
</svg>
