<svg xmlns="http://www.w3.org/2000/svg" xmlns:xlink="http://www.w3.org/1999/xlink" width="26" height="34" viewBox="0 0 26 34">
  <defs>
    <clipPath id="clip-i-localizacao">
      <rect width="26" height="34"/>
    </clipPath>
  </defs>
  <g id="i-localizacao" clip-path="url(#clip-i-localizacao)">
    <g id="placeholder-2" transform="translate(-63.592 0.21)">
      <g id="Grupo_1588" data-name="Grupo 1588" transform="translate(64)">
        <g id="Grupo_1587" data-name="Grupo 1587" transform="translate(0)">
          <path id="Caminho_1105" data-name="Caminho 1105" d="M76.592,0A12.6,12.6,0,0,0,64,12.592c0,8.729,11.367,20.2,11.849,20.681a1.054,1.054,0,0,0,1.486,0c.483-.485,11.849-11.952,11.849-20.681A12.6,12.6,0,0,0,76.592,0Zm0,31.013C74.086,28.331,66.1,19.26,66.1,12.592a10.494,10.494,0,0,1,20.987,0C87.086,19.254,79.1,28.331,76.592,31.013Z" transform="translate(-64)" fill="#fff"/>
        </g>
      </g>
      <g id="Grupo_1590" data-name="Grupo 1590" transform="translate(70.296 6.296)">
        <g id="Grupo_1589" data-name="Grupo 1589" transform="translate(0)">
          <path id="Caminho_1106" data-name="Caminho 1106" d="M166.3,96a6.3,6.3,0,1,0,6.3,6.3A6.3,6.3,0,0,0,166.3,96Zm0,10.494a4.2,4.2,0,1,1,4.2-4.2A4.2,4.2,0,0,1,166.3,106.494Z" transform="translate(-160 -96)" fill="#fff"/>
        </g>
      </g>
    </g>
  </g>
</svg>
