<svg xmlns="http://www.w3.org/2000/svg" xmlns:xlink="http://www.w3.org/1999/xlink" width="52" height="38" viewBox="0 0 52 38">
  <defs>
    <clipPath id="clip-linkedin">
      <rect width="52" height="38"/>
    </clipPath>
  </defs>
  <g id="linkedin" clip-path="url(#clip-linkedin)">
    <g id="linkedin_2_" data-name="linkedin (2)" transform="translate(8 1)">
      <path id="Caminho_1107" data-name="Caminho 1107" d="M245.993,203.738v-.053c-.011.018-.026.035-.035.053Z" transform="translate(-226.498 -187.569)" fill="#fff" fill-rule="evenodd"/>
      <path id="Caminho_1108" data-name="Caminho 1108" d="M0,0V36H36V0ZM11.2,29.908H5.856V13.839H11.2ZM8.527,11.645H8.491a2.784,2.784,0,1,1,.07-5.553,2.785,2.785,0,1,1-.035,5.553ZM30.462,29.908H25.119v-8.6c0-2.159-.772-3.633-2.706-3.633a2.921,2.921,0,0,0-2.741,1.954,3.66,3.66,0,0,0-.177,1.3v8.974H14.152s.072-14.562,0-16.069H19.5v2.277a5.306,5.306,0,0,1,4.815-2.654c3.516,0,6.151,2.3,6.151,7.231Z" fill="#fff" fill-rule="evenodd"/>
    </g>
  </g>
</svg>
