<svg xmlns="http://www.w3.org/2000/svg" xmlns:xlink="http://www.w3.org/1999/xlink" width="252" height="60" viewBox="0 0 252 60">
  <defs>
    <clipPath id="clip-qi-network">
      <rect width="252" height="60"/>
    </clipPath>
  </defs>
  <g id="qi-network" clip-path="url(#clip-qi-network)">
    <g id="Grupo_1586" data-name="Grupo 1586" transform="translate(-39.425 -351.37)">
      <g id="Grupo_153" data-name="Grupo 153" transform="translate(133.343 361.901)">
        <path id="Caminho_42" data-name="Caminho 42" d="M221.483,376.476a.276.276,0,0,1,.275-.275h3.934a.567.567,0,0,1,.425.23l10.21,15.7c.083.127.15.107.15-.044V376.476a.276.276,0,0,1,.275-.275h4.124a.276.276,0,0,1,.275.275v24.011a.276.276,0,0,1-.275.275h-3.948a.568.568,0,0,1-.425-.23l-10.2-15.652c-.083-.127-.15-.107-.15.044v15.563a.276.276,0,0,1-.275.275h-4.126a.276.276,0,0,1-.275-.275Z" transform="translate(-221.483 -375.583)" fill="#fff"/>
        <g id="Grupo_151" data-name="Grupo 151" transform="translate(21.45 5.996)">
          <path id="Caminho_43" data-name="Caminho 43" d="M291.457,399.56a.282.282,0,0,1-.28.275H276.807a4.879,4.879,0,0,0,1.7,3.081,5.31,5.31,0,0,0,3.514,1.143,6.078,6.078,0,0,0,4.39-1.786l3.841,1.8a9.044,9.044,0,0,1-3.44,3.011,10.718,10.718,0,0,1-4.759.979,9.411,9.411,0,0,1-6.961-2.7,9.185,9.185,0,0,1-2.689-6.753,9.494,9.494,0,0,1,2.681-6.906,9.006,9.006,0,0,1,6.721-2.746,9.334,9.334,0,0,1,6.978,2.746,9.921,9.921,0,0,1,2.689,7.255Zm-4.839-3.314a.159.159,0,0,0,.155-.247,7.227,7.227,0,0,0-1.66-2.224,5.17,5.17,0,0,0-3.087-.953,5.46,5.46,0,0,0-3.344,1.069,5.944,5.944,0,0,0-1.672,2.355Z" transform="translate(-272.399 -388.966)" fill="#fff"/>
        </g>
        <path id="Caminho_44" data-name="Caminho 44" d="M321.867,375.763a.276.276,0,0,1,.275-.275h4.007a.276.276,0,0,1,.275.275v6.146a.276.276,0,0,0,.275.275h1.551a.4.4,0,0,1,.356.263l1.046,3.4a.192.192,0,0,1-.194.263H326.7a.276.276,0,0,0-.275.275v13.691a.276.276,0,0,1-.275.275h-4.007a.276.276,0,0,1-.275-.275V386.383a.276.276,0,0,0-.275-.275h-1.787a.276.276,0,0,1-.275-.275v-3.374a.276.276,0,0,1,.275-.275h1.787a.276.276,0,0,0,.275-.275Z" transform="translate(-278.225 -375.17)" fill="#fff"/>
        <path id="Caminho_45" data-name="Caminho 45" d="M344.177,391.642a.181.181,0,0,1,.182-.259h3.915a.417.417,0,0,1,.367.259l3.47,9.815c.05.143.136.143.19,0l3.732-9.82a.43.43,0,0,1,.373-.257h2.181a.428.428,0,0,1,.372.257l3.662,9.7c.053.142.139.141.19,0l3.473-9.7a.419.419,0,0,1,.368-.259h3.942a.18.18,0,0,1,.181.258l-6.44,17.649a.423.423,0,0,1-.369.258h-2.339a.428.428,0,0,1-.372-.257l-3.682-9.837c-.053-.142-.141-.142-.2,0l-3.794,9.839a.433.433,0,0,1-.374.256h-2.3a.422.422,0,0,1-.368-.258Z" transform="translate(-292.479 -384.369)" fill="#fff"/>
        <g id="Grupo_152" data-name="Grupo 152" transform="translate(77.882 5.996)">
          <path id="Caminho_46" data-name="Caminho 46" d="M415.77,388.966a9.63,9.63,0,0,1,4.836,1.285,9.427,9.427,0,0,1,4.8,8.248,9.541,9.541,0,0,1-1.276,4.809,9.226,9.226,0,0,1-3.479,3.5,9.621,9.621,0,0,1-4.86,1.26,9.056,9.056,0,0,1-6.669-2.78,9.567,9.567,0,0,1,6.652-16.321Zm.077,4.292a4.691,4.691,0,0,0-3.539,1.477,5.24,5.24,0,0,0-1.413,3.782,5.333,5.333,0,0,0,1.4,3.838,4.659,4.659,0,0,0,3.535,1.472,4.736,4.736,0,0,0,3.566-1.486,5.862,5.862,0,0,0,.023-7.623A4.721,4.721,0,0,0,415.847,393.258Z" transform="translate(-406.352 -388.966)" fill="#fff"/>
        </g>
        <path id="Caminho_47" data-name="Caminho 47" d="M456.575,391.015a.276.276,0,0,1,.275-.275H460.2a.276.276,0,0,1,.275.275v2.012a4.907,4.907,0,0,1,1.687-2.054,4.077,4.077,0,0,1,2.307-.7,4.249,4.249,0,0,1,1.854.468l-1.421,3.924a3.114,3.114,0,0,0-1.316-.4,2.089,2.089,0,0,0-1.781,1.3q-.725,1.3-.726,5.11l.013.609c0,.152.005.4.005.55v6.8a.276.276,0,0,1-.275.275H456.85a.276.276,0,0,1-.275-.275Z" transform="translate(-357.535 -383.726)" fill="#fff"/>
        <path id="Caminho_48" data-name="Caminho 48" d="M483.843,375.008a.276.276,0,0,1,.275-.275h4.007a.276.276,0,0,1,.275.275v13.954c0,.151.083.183.184.07l6.348-7.081a.709.709,0,0,1,.459-.2h5.173c.151,0,.192.092.091.2l-7.459,8.3a.309.309,0,0,0,0,.407l8.388,9.055c.1.111.063.2-.088.2h-5.107a.721.721,0,0,1-.462-.2l-7.343-7.969c-.1-.111-.186-.078-.186.073v7.823a.276.276,0,0,1-.275.275h-4.007a.276.276,0,0,1-.275-.275Z" transform="translate(-373.315 -374.733)" fill="#fff"/>
      </g>
      <path id="Caminho_49" data-name="Caminho 49" d="M120.046,352.56H77.229a8.05,8.05,0,0,0-8.049,8.052v28.264a8.049,8.049,0,0,0,8.049,8.049h27.235l19.107,13.254-4.992-13.254h1.467a8.049,8.049,0,0,0,8.049-8.049V360.612a8.05,8.05,0,0,0-8.049-8.052Z" transform="translate(0)" fill="#ae1e22"/>
      <path id="Caminho_50" data-name="Caminho 50" d="M116.344,394.717l3.77,4.873c.278.359.134.653-.32.653h-3.886a1.91,1.91,0,0,1-1.332-.652l-1.664-2.143a12.973,12.973,0,0,1-15.2-2.34,12.928,12.928,0,0,1,2.729-20.245,12.517,12.517,0,0,1,6.407-1.735,12.215,12.215,0,0,1,8.98,3.774,13.117,13.117,0,0,1,.512,17.816Zm-3.426-4.428a.469.469,0,0,0,.862-.091,11.946,11.946,0,0,0,1.129-4.132,8.215,8.215,0,0,0-2.358-5.927,7.634,7.634,0,0,0-5.7-2.437,7.746,7.746,0,0,0-5.765,2.37A8.256,8.256,0,0,0,98.76,386.1a7.849,7.849,0,0,0,2.93,6.446,8.046,8.046,0,0,0,5.2,1.852,7.683,7.683,0,0,0,3.145-.653l-3.893-5.007c-.278-.358-.135-.651.318-.651h3.928a1.9,1.9,0,0,1,1.33.653Z" transform="translate(-14.394 -11.902)" fill="#fff"/>
      <path id="Caminho_51" data-name="Caminho 51" d="M164.169,373.319a2.8,2.8,0,0,1,2.056.868,2.887,2.887,0,0,1,.857,2.106,2.852,2.852,0,0,1-.848,2.079,2.755,2.755,0,0,1-2.031.859,2.8,2.8,0,0,1-2.074-.875,2.946,2.946,0,0,1-.856-2.13,2.905,2.905,0,0,1,2.9-2.906Zm-2.278,8.307a.828.828,0,0,1,.825-.825h2.907a.827.827,0,0,1,.825.825v16.514a.828.828,0,0,1-.825.825h-2.907a.828.828,0,0,1-.825-.825Z" transform="translate(-53.296 -12.014)" fill="#fff"/>
    </g>
  </g>
</svg>
