<svg xmlns="http://www.w3.org/2000/svg" xmlns:xlink="http://www.w3.org/1999/xlink" width="52" height="38" viewBox="0 0 52 38">
  <defs>
    <clipPath id="clip-twiter">
      <rect width="52" height="38"/>
    </clipPath>
  </defs>
  <g id="twiter" clip-path="url(#clip-twiter)">
    <path id="twitter_2_" data-name="twitter (2)" d="M0,0V36.094H36.094V0ZM27.983,12.951q.015.33.015.663A14.58,14.58,0,0,1,5.553,25.9a10.347,10.347,0,0,0,7.59-2.123,5.132,5.132,0,0,1-4.789-3.56,5.131,5.131,0,0,0,2.315-.088A5.13,5.13,0,0,1,6.557,15.1c0-.022,0-.043,0-.065a5.106,5.106,0,0,0,2.322.641A5.132,5.132,0,0,1,7.293,8.832a14.555,14.555,0,0,0,10.567,5.357,5.13,5.13,0,0,1,8.736-4.676A10.261,10.261,0,0,0,29.85,8.268,5.141,5.141,0,0,1,27.6,11.1a10.251,10.251,0,0,0,2.944-.807A10.41,10.41,0,0,1,27.983,12.951Z" transform="translate(7.953 0.953)" fill="#fff" fill-rule="evenodd"/>
  </g>
</svg>
