<?xml version="1.0" encoding="UTF-8"?><svg id="a" xmlns="http://www.w3.org/2000/svg" width="300" height="88" viewBox="0 0 300 88"><g><path d="M8.92,75.1H.44c-.12,0-.23,.04-.32,.13-.16,.19-.16,.46,0,.64,.08,.08,.2,.13,.32,.12h3.74v10.12c0,.13,.05,.27,.14,.36h0c.09,.09,.21,.15,.35,.14,.14,0,.28-.06,.37-.15,.08-.11,.13-.23,.13-.36v-10.12h3.74c.12,0,.23-.05,.32-.13s.13-.19,.13-.3-.04-.23-.13-.32c-.08-.08-.2-.13-.32-.13Z" style="fill:#fff;"/><path d="M18.86,75.96c.12,0,.25-.04,.34-.12,.16-.18,.16-.46,0-.63-.09-.08-.21-.13-.34-.13h-6.16c-.14,0-.28,.06-.37,.15-.11,.08-.16,.21-.15,.35v10.43c0,.13,.05,.27,.15,.35,.11,.09,.23,.15,.37,.15h6.15c.12,0,.25-.04,.34-.12,.08-.08,.13-.2,.13-.32s-.04-.23-.13-.32-.21-.12-.34-.12h-5.7v-4.49h5.38c.13,0,.25-.04,.34-.13,.08-.08,.13-.2,.13-.32s-.04-.23-.13-.32-.21-.12-.34-.12h-5.38v-4.33h5.71Z" style="fill:#fff;"/><path d="M31.09,84.35c-.14,.02-.26,.08-.36,.18-.48,.41-1.02,.75-1.6,.99-.54,.19-1.11,.28-1.67,.27-1.16,.06-2.27-.41-3.03-1.29-1.45-2.22-1.45-5.1,0-7.32,.75-.88,1.87-1.37,3.03-1.3,.57,0,1.13,.08,1.67,.28,.58,.25,1.12,.57,1.59,.99,.11,.08,.23,.14,.36,.15,.09,0,.19-.05,.23-.13,.07-.08,.11-.2,.12-.3,0-.19-.08-.35-.22-.48-.48-.46-1.05-.82-1.67-1.04-.67-.25-1.36-.36-2.07-.36-.98-.02-1.94,.22-2.8,.71-.8,.47-1.42,1.17-1.79,2.01-.84,2-.84,4.25,0,6.25,.37,.84,.99,1.54,1.79,2.02h0c.85,.49,1.82,.73,2.81,.7,.7,0,1.4-.12,2.07-.36,.63-.22,1.2-.57,1.67-1.04,.13-.12,.21-.28,.22-.46,0-.12-.04-.22-.12-.3-.05-.08-.14-.14-.23-.14v-.04Z" style="fill:#fff;"/><path d="M44.02,75.16c-.11-.09-.23-.13-.36-.13-.14,0-.27,.05-.36,.14-.08,.11-.13,.25-.13,.37v4.75h-7.3v-4.75c0-.14-.04-.27-.13-.37-.09-.09-.22-.15-.36-.14-.14,0-.27,.05-.36,.14-.09,.11-.14,.23-.14,.37v10.56c0,.13,.05,.26,.14,.36,.09,.09,.22,.15,.36,.15s.27-.05,.36-.15c.08-.11,.13-.23,.13-.36v-4.92h7.31v4.92c0,.13,.05,.26,.13,.36,.09,.11,.22,.16,.36,.15,.14,0,.27-.05,.36-.14,.08-.11,.13-.25,.13-.37v-10.56c0-.14-.04-.28-.13-.39h-.01Z" style="fill:#fff;"/><path d="M58.53,75.43c-.04-.11-.12-.2-.21-.27-.11-.06-.22-.09-.34-.09-.23,0-.46,.14-.53,.36l-4.77,10.64s-.02,.12,0,.18c0,.13,.05,.25,.14,.32,.09,.08,.21,.13,.34,.13,.2,0,.37-.12,.44-.3l1.26-2.8h6.28l1.24,2.8c.04,.09,.09,.16,.18,.22,.09,.04,.19,.04,.28,0,.12,0,.22-.05,.3-.12,.09-.07,.15-.18,.15-.29,0-.05-.02-.09-.05-.13l-4.72-10.64Zm-3.37,7.18l2.8-6.27,2.8,6.27h-5.59Z" style="fill:#fff;"/><path d="M70.18,75.1h-3.13c-.14,0-.28,.06-.37,.15-.11,.08-.16,.21-.15,.35v10.43c0,.13,.05,.27,.15,.35h0c.09,.09,.22,.15,.36,.15h3.16c1.54,.09,3.05-.43,4.19-1.49,.9-1.02,1.43-2.32,1.5-3.67,.16-3.31-2.37-6.12-5.68-6.28h-.01Zm-.04,10.56h-2.62v-9.67h2.62c3.11,0,4.67,1.59,4.67,4.83s-1.56,4.84-4.67,4.84Z" style="fill:#fff;"/><path d="M88.18,75c-.19-.01-.36,.09-.42,.27l-4.39,9.94-4.33-9.93c-.07-.18-.25-.29-.43-.28-.13,0-.25,.05-.35,.13-.09,.08-.15,.2-.15,.32v.18l4.71,10.63c.05,.12,.12,.21,.22,.27,.09,.06,.21,.09,.32,.09,.12,0,.23-.04,.34-.09,.09-.07,.18-.16,.22-.27l4.76-10.63c.01-.06,.01-.13,0-.2,0-.12-.06-.23-.15-.3-.09-.08-.22-.13-.35-.13h0Z" style="fill:#fff;"/><path d="M92.09,75.03c-.14,0-.27,.05-.36,.14-.09,.11-.15,.23-.14,.37v10.56c0,.14,.05,.27,.14,.36h0c.09,.11,.22,.15,.36,.15s.27-.06,.36-.15c.09-.11,.14-.23,.14-.36v-10.56c0-.14-.05-.27-.14-.37-.09-.09-.22-.14-.36-.14Z" style="fill:#fff;"/><path d="M101.51,75.87c.57,0,1.13,.08,1.67,.28,.57,.25,1.11,.57,1.57,.99,.11,.08,.23,.14,.37,.15,.09,0,.19-.06,.23-.13,.07-.09,.11-.2,.09-.3,0-.19-.08-.36-.22-.48-.48-.47-1.04-.82-1.66-1.04-.67-.25-1.36-.36-2.07-.36-.98-.02-1.94,.22-2.8,.71-.8,.47-1.42,1.17-1.8,2.01-.82,2-.82,4.25,0,6.25,.39,.84,1.02,1.54,1.8,2.02,.84,.48,1.8,.73,2.77,.7,.7,0,1.4-.12,2.07-.36,.63-.22,1.19-.57,1.66-1.04,.14-.12,.22-.28,.22-.46,0-.11-.02-.22-.09-.3-.05-.08-.14-.14-.23-.14-.14,.02-.27,.08-.37,.18-.46,.41-.98,.75-1.56,.99-.54,.19-1.11,.28-1.67,.27-1.16,.06-2.28-.41-3.04-1.29-1.44-2.23-1.44-5.1,0-7.32,.76-.88,1.88-1.37,3.04-1.3v-.04Z" style="fill:#fff;"/><path d="M115.64,75.1h-6.17c-.14,0-.28,.06-.37,.15s-.15,.21-.15,.35v10.43c0,.13,.06,.26,.15,.35,.11,.09,.23,.15,.37,.15h6.17c.12,0,.23-.04,.32-.12s.13-.2,.13-.32-.04-.23-.13-.32-.2-.12-.32-.12h-5.71v-4.49h5.38c.13,0,.25-.04,.34-.13,.08-.08,.13-.2,.13-.32s-.04-.23-.13-.32-.21-.12-.34-.12h-5.38v-4.33h5.72c.12,0,.23-.04,.32-.12s.13-.19,.13-.3v-.02c0-.23-.21-.42-.44-.42h-.01Z" style="fill:#fff;"/><path d="M132.36,75.04h0c-.15,0-.29,.09-.36,.22l-3.86,4.98-3.86-4.98c-.08-.13-.21-.2-.36-.2-.12,0-.23,.05-.3,.14-.08,.08-.13,.19-.13,.3s.04,.22,.12,.3l4.05,5.19v5.08c0,.14,.05,.27,.14,.36,.09,.11,.22,.16,.36,.15,.13,0,.26-.05,.35-.15,.09-.09,.14-.22,.14-.36v-5.09l4.05-5.23c.07-.08,.12-.2,.12-.3,0-.12-.05-.23-.13-.32s-.19-.13-.3-.13v.02Z" style="fill:#fff;"/><path d="M142.35,75.68c-.84-.5-1.81-.75-2.8-.71-.95-.02-1.89,.22-2.71,.71-.78,.48-1.39,1.18-1.75,2.02-.82,2-.82,4.23,0,6.23,.37,.84,.98,1.54,1.75,2.02h.07c1.68,.94,3.74,.94,5.43,0,.78-.48,1.4-1.19,1.78-2.02,.82-2,.82-4.25,0-6.25-.37-.83-.99-1.54-1.78-2.01h.01Zm.21,8.79c-.75,.88-1.86,1.36-3.02,1.29-1.15,.06-2.26-.42-2.98-1.3-1.42-2.23-1.42-5.08,0-7.3,.74-.88,1.85-1.36,2.98-1.3,1.15-.06,2.27,.41,3.02,1.29,1.42,2.23,1.42,5.09,0,7.32Z" style="fill:#fff;"/><path d="M156.3,75.17c-.09,.11-.14,.23-.14,.37v6.69c.07,.97-.25,1.92-.88,2.65-.7,.63-1.63,.95-2.57,.88-.29,.04-.6,.04-.89-.01-1.67-.27-2.82-1.85-2.55-3.52v-6.69c0-.14-.05-.28-.14-.39-.11-.09-.23-.13-.36-.13h-.12c-.26,.04-.42,.27-.39,.53v6.57c-.09,1.24,.32,2.46,1.13,3.39h0c1.94,1.54,4.68,1.54,6.62,.01,.81-.94,1.2-2.16,1.11-3.39v-6.57c0-.14-.04-.28-.13-.39-.21-.18-.51-.18-.73,0h.02Z" style="fill:#fff;"/><path d="M171.35,75.86c.56,0,1.13,.08,1.66,.28,.58,.25,1.12,.57,1.59,.99,.11,.08,.23,.14,.37,.15,.09,0,.19-.05,.23-.13,.07-.09,.11-.2,.09-.3,0-.19-.08-.36-.22-.48-.48-.46-1.04-.82-1.66-1.04-.67-.25-1.36-.36-2.07-.36-.98-.02-1.94,.22-2.8,.71-.8,.47-1.42,1.17-1.8,2.01-.84,2-.84,4.25,0,6.25,.39,.84,1.02,1.54,1.8,2.02,.83,.48,1.78,.71,2.74,.7,.7,0,1.4-.12,2.07-.36,.62-.22,1.19-.57,1.66-1.04,.14-.12,.22-.28,.22-.46,0-.11-.02-.22-.09-.3-.05-.08-.14-.14-.23-.14-.14,.02-.27,.08-.37,.18-.46,.41-.98,.74-1.53,.99-.54,.19-1.1,.28-1.66,.27-1.16,.07-2.28-.41-3.04-1.29-1.44-2.23-1.44-5.1,0-7.32,.76-.89,1.88-1.37,3.04-1.3v-.04Z" style="fill:#fff;"/><path d="M183.4,75.43c-.05-.11-.13-.2-.22-.27-.11-.06-.22-.09-.34-.09-.23,0-.44,.14-.53,.36l-4.77,10.57s-.02,.12,0,.18c0,.12,.05,.23,.14,.32,.04,.04,.08,.07,.13,.08,.26,.11,.55,0,.67-.26l1.24-2.8h6.28l1.24,2.8c.04,.09,.09,.16,.18,.22,.07,.06,.16,.08,.25,.08,.13,0,.25-.05,.34-.13,.09-.07,.15-.18,.15-.29,0-.05-.02-.09-.05-.14l-4.71-10.64h.01Zm-3.37,7.2l2.8-6.27,2.8,6.27h-5.59Z" style="fill:#fff;"/><path d="M199.86,75.03c-.13,0-.25,.05-.34,.14-.09,.11-.14,.23-.14,.37v9.29l-7.08-9.57c-.08-.15-.25-.25-.42-.23-.14-.01-.28,.04-.37,.14s-.15,.23-.14,.37v10.6c0,.14,.04,.27,.12,.37,.09,.09,.22,.15,.35,.14,.13,0,.26-.05,.35-.15,.08-.11,.13-.23,.13-.36v-9.31l7.11,9.54c.09,.15,.26,.25,.43,.25,.14,0,.27-.06,.36-.15,.08-.11,.13-.23,.13-.36v-10.56c0-.14-.04-.28-.13-.39-.09-.09-.22-.13-.35-.13h-.01Z" style="fill:#fff;"/><path d="M218.23,84.35c-.14,.02-.27,.08-.37,.18-.48,.41-1.02,.75-1.6,.99-.54,.19-1.11,.28-1.67,.27-1.16,.06-2.28-.41-3.04-1.29-1.44-2.23-1.44-5.1,0-7.32,.76-.88,1.88-1.37,3.04-1.3,.57,0,1.13,.08,1.67,.28,.57,.25,1.11,.57,1.57,.99,.11,.08,.23,.14,.37,.15,.09,0,.19-.05,.23-.13,.07-.09,.11-.2,.09-.3,0-.19-.08-.36-.22-.48-.48-.47-1.04-.82-1.66-1.04-.67-.25-1.36-.36-2.07-.36-.98-.02-1.94,.22-2.8,.71-.8,.47-1.42,1.17-1.8,2.01-.82,2-.82,4.25,0,6.25,.39,.84,1.02,1.54,1.8,2.02,.85,.49,1.84,.74,2.83,.7,.7,0,1.4-.12,2.07-.36,.63-.22,1.19-.57,1.66-1.04,.14-.12,.22-.28,.22-.46,0-.11-.02-.22-.09-.3-.05-.08-.14-.14-.23-.14v-.04Z" style="fill:#fff;"/><path d="M229.23,75.68c-1.7-.95-3.75-.95-5.45,0-.77,.49-1.38,1.19-1.75,2.02-.82,2-.82,4.23,0,6.23,.37,.83,.98,1.53,1.74,2.02h.04c1.68,.94,3.74,.94,5.43,0,.77-.48,1.39-1.19,1.75-2.02,.82-2,.82-4.25,0-6.25-.36-.83-.98-1.53-1.75-2.01Zm.23,8.79h-.01l-.16,.16c-1.65,1.57-4.26,1.49-5.82-.16-1.42-2.23-1.42-5.08,0-7.3,.74-.88,1.85-1.36,3.01-1.3,1.15-.06,2.26,.42,3.01,1.29,1.42,2.23,1.42,5.09,0,7.32h-.01Z" style="fill:#fff;"/><path d="M243.26,75.17c-.09,.11-.15,.23-.14,.37v6.7c.07,.96-.25,1.92-.88,2.65-.7,.63-1.63,.94-2.57,.88-.28,.04-.57,.04-.87,0-1.68-.26-2.84-1.84-2.57-3.52v-6.69c0-.14-.04-.28-.13-.39-.11-.08-.23-.13-.36-.13-.14,0-.27,.04-.37,.13-.09,.11-.13,.25-.13,.39v6.57c-.09,1.24,.3,2.46,1.11,3.39h0c1.94,1.53,4.68,1.53,6.62,0,.82-.94,1.22-2.15,1.13-3.39v-6.57c0-.14-.05-.28-.14-.39-.21-.18-.51-.16-.71,.01v-.02Z" style="fill:#fff;"/><path d="M257.06,75.17c-.2-.18-.5-.18-.7,0-.08,.11-.13,.25-.13,.37v9.29l-7.08-9.57c-.08-.15-.25-.25-.42-.23-.14,0-.28,.05-.39,.14-.09,.11-.14,.23-.14,.37v10.6c0,.13,.04,.27,.12,.37,.09,.09,.22,.14,.36,.14,.13,0,.26-.06,.34-.15,.09-.09,.14-.22,.14-.36v-9.31l7.1,9.54c.11,.15,.27,.25,.44,.25,.13,0,.26-.06,.35-.15,.08-.11,.13-.23,.13-.36v-10.56c.01-.14-.02-.28-.12-.39h-.01Z" style="fill:#fff;"/><path d="M268.88,75.11h-8.47c-.13,0-.25,.04-.34,.13-.16,.19-.16,.46,0,.64,.09,.08,.21,.12,.34,.12h3.74v10.12c0,.13,.05,.26,.13,.36,.09,.11,.22,.16,.36,.15,.14,0,.27-.06,.36-.15,.09-.11,.14-.23,.14-.36v-10.12h3.73c.12,0,.23-.05,.32-.13s.13-.19,.13-.3-.04-.23-.13-.32c-.08-.08-.2-.13-.32-.13h0Z" style="fill:#fff;"/><path d="M284.8,75.68c-1.7-.95-3.75-.95-5.45,0-.77,.49-1.38,1.19-1.75,2.02-.82,2-.82,4.23,0,6.23,.39,.83,.99,1.54,1.78,2.02h.07c1.68,.94,3.74,.94,5.43,0,.75-.49,1.34-1.19,1.7-2.02,.84-2,.84-4.25,0-6.25-.36-.83-.98-1.53-1.75-2.01h-.01Zm.28,8.79c-.75,.87-1.86,1.34-3.01,1.29-1.15,.06-2.26-.42-2.98-1.3-1.42-2.23-1.42-5.08,0-7.3,.74-.88,1.85-1.36,2.98-1.3,1.15-.06,2.26,.41,3.01,1.29,1.42,2.23,1.42,5.09,0,7.32Z" style="fill:#fff;"/><path d="M299.75,75.16h0c-.09-.09-.22-.13-.35-.13s-.25,.05-.34,.14c-.09,.11-.15,.23-.14,.37v9.29l-7.08-9.57c-.08-.15-.25-.25-.42-.23-.14-.01-.28,.04-.37,.14-.09,.11-.15,.23-.14,.37v10.6c0,.14,.04,.27,.12,.37,.09,.09,.22,.15,.35,.14,.13,0,.26-.06,.35-.15,.08-.11,.13-.23,.13-.36v-9.31l7.11,9.54c.09,.15,.26,.25,.43,.25,.13,0,.26-.05,.35-.15,.09-.09,.14-.22,.14-.36v-10.56c0-.14-.04-.28-.13-.39h-.01Z" style="fill:#fff;"/></g><g><path d="M25.25,10.24l-.02,.02,.02-.02Z" style="fill:#1c489e;"/><path d="M.39,26.61c.11-.62,.23-1.24,.37-1.86-.15,.62-.27,1.24-.37,1.86Z" style="fill:#1c489e;"/><path d="M53.42,36.86c-2.3,8.9-9.25,15.85-18.15,18.15-7.99,2.19-16.08-.22-21.79-5.25l13.16-13.17c-.34,.33-.8,.5-1.27,.5h0c-1.02,0-1.84-.84-1.84-1.86,0-.48,.2-.95,.54-1.29h0l-13.17,13.17c-3.44-4.15-5.46-9.47-5.13-15.3,.23-5.4,2.48-10.34,6.06-14.02-.08,.09-.19,.18-.27,.27C5.6,23.52,2.22,31.23,2.25,39.3c0,1.09,.06,2.19,.2,3.26-.29-.67-.56-1.34-.81-2.03,1.47,4.14,3.91,7.94,7.23,11.04,15.38,14.64,41.61,6.26,45.61-14.6v.06c.15-.67-.94-.88-1.04-.21v.04Z" style="fill:#fff;"/><path d="M24.78,10.74s-.07,.07-.11,.09c.04-.04,.07-.06,.11-.09Z" style="fill:#1c489e;"/><path d="M.41,35.88c-.25-1.44-.37-2.9-.4-4.36,.01,1.46,.15,2.92,.4,4.36Z" style="fill:#1c489e;"/><path d="M.01,31.09c0-.57,.02-1.13,.06-1.71-.04,.57-.06,1.13-.06,1.71Z" style="fill:#1c489e;"/><path d="M12.15,17.46c2.82-2.78,6.42-4.79,10.5-5.68l-.58,.12c-3.78,.87-7.22,2.81-9.92,5.57Z" style="fill:#1c489e;"/><path d="M22.95,4c-.68-.15-1.39-.14-2.09,.09-4.94,1.34-9.32,3.98-12.78,7.5,3.46-3.52,7.85-6.14,12.78-7.48,.7-.25,1.43-.27,2.11-.12h-.01Z" style="fill:#1c489e;"/><path d="M.12,28.8c.05-.53,.11-1.05,.19-1.58-.08,.53-.14,1.05-.19,1.58Z" style="fill:#1c489e;"/><path d="M.85,37.99c-.15-.61-.28-1.2-.4-1.82,.11,.61,.25,1.22,.4,1.82Z" style="fill:#1c489e;"/><path d="M24.26,11.15c-.08,.05-.15,.11-.23,.15,.08-.05,.15-.09,.23-.15Z" style="fill:#1c489e;"/><path d="M1.49,40.14c-.19-.56-.36-1.12-.51-1.68,.15,.56,.33,1.12,.51,1.68Z" style="fill:#1c489e;"/><path d="M2.23,39.31c-.02-8.07,3.36-15.79,9.31-21.24,.08-.09,.18-.18,.27-.27,.11-.12,.22-.22,.33-.34,2.71-2.76,6.14-4.7,9.92-5.57l.58-.12,.18-.04c.41-.07,.8-.21,1.16-.42h0s.04-.02,.05-.04c.08-.05,.15-.11,.23-.15,.15-.09,.29-.2,.42-.3,.04-.04,.07-.06,.11-.09,.16-.15,.32-.3,.44-.48l.02-.02c.8-1.03,1.06-2.4,.61-3.7-.47-1.36-1.6-2.27-2.91-2.55-.68-.14-1.4-.13-2.11,.12-4.94,1.34-9.32,3.95-12.78,7.48-3.46,3.52-6.01,7.95-7.26,12.91-.02,.08-.04,.16-.05,.23-.14,.62-.27,1.24-.37,1.86-.04,.2-.06,.4-.08,.6-.07,.53-.14,1.05-.19,1.58-.01,.2-.04,.4-.05,.6-.04,.57-.06,1.13-.06,1.71v.43c.02,1.46,.15,2.92,.4,4.36,.01,.09,.04,.19,.06,.28,.11,.61,.25,1.22,.4,1.82,.04,.16,.08,.32,.13,.47,.15,.56,.33,1.12,.51,1.68,.05,.14,.09,.27,.14,.41,.25,.69,.5,1.37,.81,2.03-.14-1.09-.2-2.18-.2-3.26h-.01Z" style="fill:#4687f9;"/><path d="M23.53,35.23c0,1.02,.82,1.85,1.84,1.86h0c.47,0,.92-.18,1.27-.5,0,0,.02,0,.04-.02l3.7-3.68c.73-.73,.73-1.89,0-2.62s-1.89-.73-2.62,0l-3.68,3.68h0c-.34,.35-.53,.81-.54,1.3h0Z" style="fill:#4687f9;"/><path d="M29.44,25.93l3.59,1.11c.29,.08,.51,.32,.6,.6l1.11,3.59c.06,.2,.19,.36,.35,.49,.42,.29,.99,.2,1.29-.22l2.16-3.08c.18-.25,.47-.4,.77-.39h3.75c.21,0,.41-.07,.57-.19,.41-.3,.48-.89,.18-1.29l-2.23-3.02c-.19-.25-.23-.56-.14-.85l1.2-3.54h0c.07-.2,.07-.41,0-.61-.16-.48-.68-.75-1.17-.58l-3.56,1.2c-.29,.09-.61,.05-.85-.13l-3.01-2.25c-.16-.11-.36-.16-.56-.15-.5,.04-.9,.47-.87,.97v3.75c0,.3-.14,.6-.39,.77l-3.06,2.16c-.16,.12-.29,.28-.35,.48-.15,.48,.12,1.01,.61,1.16Z" style="fill:#fff;"/><path d="M32.72,7.13c.13,.18,.15,.4,.08,.6l-.91,2.47c-.06,.14-.06,.29,0,.44,.12,.34,.48,.51,.82,.4l2.51-.78c.2-.07,.42-.02,.58,.12l2.08,1.63h-.01c.12,.09,.27,.15,.42,.15,.36,0,.65-.29,.65-.65v-2.65c0-.21,.11-.41,.28-.53l2.27-1.46c.12-.08,.21-.2,.26-.34,.12-.34-.07-.7-.41-.81l-2.5-.85c-.2-.06-.36-.22-.42-.43l-.73-2.53c-.02-.22-.16-.42-.36-.53-.32-.15-.7,0-.85,.32l-1.57,2.11c-.13,.16-.32,.26-.53,.27l-2.64-.09c-.14,0-.28,.04-.4,.12-.29,.21-.35,.61-.14,.9l1.52,2.15h-.01Z" style="fill:#4687f9;"/><path d="M56.65,21.62c.06-.12,.08-.25,.06-.37-.06-.32-.35-.51-.67-.47l-2.3,.36c-.19,.04-.37-.04-.5-.18l-1.63-1.7c-.08-.09-.2-.15-.32-.16-.32-.05-.61,.16-.65,.48l-.37,2.23c-.02,.19-.13,.34-.29,.43l-2.09,1.01c-.11,.06-.2,.14-.25,.25-.14,.28-.04,.63,.25,.77l2.08,1.06c.16,.08,.28,.25,.3,.43l.28,2.32h0c.01,.13,.07,.26,.16,.34,.22,.22,.58,.22,.81,0l1.65-1.7c.13-.13,.32-.19,.5-.15l2.3,.53c.13,.02,.26,0,.36-.06,.28-.14,.4-.49,.25-.77l-1.06-2.08c-.08-.16-.08-.36,0-.53l1.11-2.06h.02Z" style="fill:#4687f9;"/><path d="M46.34,11.43l1.92,.28c.15,.01,.28,.12,.35,.25l.88,1.74h0s.08,.11,.14,.14c.22,.14,.51,.08,.65-.14l.91-1.71c.07-.14,.21-.23,.36-.25l1.92-.28c.11-.01,.2-.06,.27-.14,.19-.19,.18-.49,0-.67l-1.39-1.39c-.12-.12-.16-.27-.14-.43l.35-1.95c.01-.11,0-.21-.06-.3-.13-.23-.41-.32-.64-.19l-1.72,.89c-.14,.07-.29,.07-.43,0l-1.72-.89c-.09-.05-.2-.07-.3-.06-.26,.04-.43,.28-.4,.54l.34,1.92c.02,.15-.04,.32-.14,.43l-1.39,1.39c-.07,.07-.12,.16-.14,.27-.05,.26,.13,.5,.39,.55Z" style="fill:#4687f9;"/></g><g><path d="M127.51,12.78c-.46,0-.9,.14-1.27,.42-.41,.3-.7,.76-.82,1.26l-11.58,36.65-11.43-36.15c-.15-.57-.48-1.1-.94-1.49-.39-.33-.89-.51-1.39-.53-.5,0-.99,.18-1.39,.49-.46,.35-.78,.84-.94,1.39l-11.57,36.1-11.44-36.49c-.25-.98-1.13-1.67-2.15-1.67-.61,0-1.18,.23-1.64,.64-.47,.43-.74,1.04-.71,1.67,0,.33,.07,.65,.18,.96l13.17,40.91c.16,.56,.5,1.05,.98,1.39,.44,.3,.97,.48,1.51,.48s1.06-.16,1.51-.48c.48-.34,.83-.83,.99-1.39l11.47-35.58,11.37,35.58c.16,.56,.51,1.05,.99,1.39,.44,.32,.97,.48,1.51,.48s1.11-.15,1.57-.48c.48-.34,.83-.83,.99-1.39l13.11-40.92c.12-.33,.18-.68,.18-1.03,.02-.62-.21-1.22-.67-1.64-.43-.4-1.01-.62-1.59-.61h-.01Z" style="fill:#4687f9;"/><path d="M136.45,14.18c-.58,.62-.9,1.46-.88,2.32-.05,.88,.27,1.73,.88,2.37h0c.64,.65,1.53,1.01,2.44,.95,1.73-.11,3.05-1.59,2.95-3.32,.04-.85-.28-1.7-.88-2.32-1.26-1.19-3.24-1.19-4.51,0Z" style="fill:#4687f9;"/><path d="M138.7,26.56c-.63-.02-1.25,.2-1.71,.64-.48,.51-.71,1.2-.67,1.89v27.11c-.04,.7,.2,1.38,.67,1.89h0c.96,.89,2.43,.89,3.39,.01,.46-.53,.69-1.22,.64-1.92V29.12c.05-.69-.19-1.37-.64-1.89-.44-.46-1.05-.7-1.7-.67h.01Z" style="fill:#4687f9;"/><path d="M172.06,54.88c-.41-.37-.95-.57-1.51-.55h-16.54l17.23-22.81c.43-.57,.68-1.27,.68-2,.01-.61-.21-1.19-.63-1.64-.44-.46-1.05-.7-1.7-.67h-19.66c-.57-.04-1.13,.18-1.53,.57-.37,.42-.57,.97-.55,1.53,0,.51,.19,1.02,.55,1.39,.42,.39,.97,.58,1.53,.55h15.89l-17.16,22.88c-.43,.57-.68,1.26-.7,1.99-.01,.61,.22,1.2,.64,1.65s1.01,.69,1.63,.67h20.3c.56,.04,1.1-.16,1.51-.55,.36-.41,.56-.96,.53-1.51,.04-.56-.15-1.1-.53-1.52h.01Z" style="fill:#4687f9;"/></g><g><path d="M209.74,49.13c-.62,.06-1.19,.3-1.67,.7-1.61,1.49-3.45,2.7-5.45,3.61-1.75,.71-3.63,1.06-5.52,1.03-4.07,.21-7.96-1.61-10.4-4.88-2.41-3.27-3.61-7.89-3.61-13.84s1.2-10.54,3.61-13.78c2.43-3.23,6.32-5.05,10.36-4.84,1.91-.04,3.81,.32,5.58,1.03,1.98,.91,3.81,2.13,5.43,3.59,.48,.4,1.06,.65,1.67,.71,.46-.04,.87-.28,1.1-.67,.29-.49,.43-1.05,.39-1.63,0-.84-.33-1.65-.92-2.25-1.71-1.72-3.75-3.06-6-3.95-2.33-.94-4.82-1.4-7.32-1.39-7.27-.27-13.92,4.09-16.56,10.88-1.61,3.89-2.39,8.08-2.29,12.3-.11,4.23,.68,8.46,2.29,12.37,1.34,3.25,3.61,6.05,6.53,8.02,3.01,1.93,6.53,2.9,10.1,2.81,2.51,0,4.99-.47,7.32-1.39,2.26-.89,4.3-2.23,6-3.95,.6-.6,.92-1.4,.92-2.25,.02-.57-.14-1.13-.46-1.6-.23-.39-.64-.63-1.1-.64h0Z" style="fill:#fff;"/><path d="M229.21,26.33c-1.74,0-3.47,.26-5.13,.74-1.63,.46-3.17,1.13-4.61,2.02-.61,.36-1.15,.84-1.59,1.39-.34,.46-.51,1.01-.5,1.57-.02,.54,.14,1.06,.48,1.49,.25,.37,.67,.61,1.11,.63,.82-.18,1.57-.55,2.21-1.09,2.4-1.5,5.17-2.33,8-2.37,1.73-.15,3.44,.5,4.61,1.79,1.08,1.68,1.57,3.67,1.39,5.66v2.15h-1.29c-3.46-.08-6.92,.21-10.31,.88-2.03,.33-3.91,1.31-5.33,2.8-1.17,1.58-1.74,3.52-1.63,5.48-.02,1.7,.44,3.37,1.33,4.82,.88,1.44,2.14,2.62,3.64,3.4,1.54,.82,3.26,1.24,5.02,1.22,1.85,.04,3.67-.49,5.23-1.51,1.56-1.04,2.75-2.55,3.4-4.3v3.11c-.04,.68,.19,1.34,.63,1.86,.43,.48,1.05,.74,1.7,.71,.63,.02,1.24-.23,1.65-.71,.42-.53,.64-1.18,.61-1.86v-17.47c0-8.23-3.53-12.36-10.58-12.41h-.02Zm6,19.16c.11,2.43-.69,4.82-2.23,6.7h0c-1.4,1.7-3.51,2.67-5.71,2.62h-.28c-3.12-.07-5.6-2.65-5.52-5.78-.09-1.22,.32-2.41,1.13-3.31,1.08-.9,2.4-1.46,3.8-1.6,2.57-.37,5.18-.54,7.78-.49h1.04v1.87h-.01Z" style="fill:#fff;"/><path d="M264.99,42.87c-1.95-.95-4.01-1.66-6.13-2.13-1.4-.3-2.77-.74-4.08-1.31-.8-.33-1.5-.87-2.03-1.53-.41-.68-.61-1.47-.56-2.27-.05-1.39,.56-2.72,1.65-3.59,1.25-.97,2.81-1.46,4.39-1.39,1.23-.04,2.44,.18,3.59,.64,1.08,.5,2.11,1.1,3.08,1.8,.58,.56,1.31,.94,2.09,1.09,.43,0,.84-.22,1.1-.57,.3-.4,.47-.89,.46-1.39-.11-1.32-.84-2.51-1.96-3.22-1.13-.83-2.4-1.47-3.74-1.88-1.42-.46-2.9-.68-4.39-.68-1.93-.02-3.84,.39-5.58,1.22-1.56,.75-2.89,1.89-3.86,3.33-.94,1.45-1.43,3.16-1.39,4.89-.11,2.09,.7,4.13,2.21,5.58,2.14,1.67,4.65,2.8,7.32,3.26,1.57,.34,3.1,.81,4.58,1.39,.87,.32,1.64,.85,2.22,1.57,.44,.67,.67,1.46,.63,2.27,.07,1.39-.58,2.74-1.73,3.53-1.46,.9-3.16,1.32-4.88,1.22-1.45,.05-2.89-.19-4.26-.67-1.22-.49-2.37-1.1-3.46-1.82-.57-.5-1.27-.84-2.02-.96-.44,0-.87,.2-1.13,.55-.3,.4-.46,.89-.43,1.39-.02,.57,.13,1.15,.43,1.64,.41,.55,.91,1.02,1.49,1.39,1.29,.88,2.69,1.54,4.19,1.99h0c1.66,.47,3.37,.68,5.09,.64,2.91,.14,5.78-.74,8.12-2.47,2.01-1.56,3.15-3.98,3.08-6.53,.05-1.45-.27-2.89-.92-4.19-.75-1.2-1.82-2.18-3.1-2.8h-.04Z" style="fill:#fff;"/><path d="M299.5,43.04c.36-.55,.54-1.22,.48-1.87,.21-3.86-.95-7.68-3.25-10.78-2.13-2.64-5.37-4.12-8.76-4-2.48-.05-4.92,.68-6.98,2.07-2.09,1.43-3.73,3.41-4.74,5.74-1.16,2.69-1.73,5.59-1.67,8.51-.26,4.29,1.1,8.54,3.8,11.88,2.63,2.91,6.43,4.49,10.35,4.3,1.53,0,3.05-.23,4.53-.67,1.54-.46,3.02-1.15,4.37-2.02,1.13-.57,1.91-1.7,2.02-2.97,.02-.53-.14-1.05-.46-1.49-.25-.34-.63-.54-1.05-.56-.74,.18-1.43,.5-2.02,.96-1.11,.7-2.28,1.31-3.49,1.82-1.24,.48-2.56,.7-3.88,.67-5.95,0-9.11-3.67-9.45-11.05h18.71c.56,.05,1.12-.16,1.51-.57l-.02,.02Zm-20.16-2.77c.09-2.64,1.02-5.18,2.64-7.26h0c1.5-1.71,3.68-2.65,5.95-2.57,2.19-.11,4.3,.83,5.68,2.54,1.5,2.13,2.25,4.69,2.15,7.29h-16.43Z" style="fill:#fff;"/></g></svg>