<svg width="112" height="40" viewBox="0 0 112 40" fill="none" xmlns="http://www.w3.org/2000/svg">
  <path d="M99.1735 32.6152H41.1288L41.8445 34.8004H99.1735V32.6152Z" fill="black"/>
  <path d="M108.311 6.17871V20.6129L99.3383 6.17871H95.4842V27.5322H99.1734V12.8909L108.28 27.5322H112V6.17871H108.311Z" fill="black"/>
  <path d="M76.9228 16.8522C76.9228 20.5721 78.6647 24.3525 82.8439 24.3525C87.0344 24.3525 88.7763 20.5721 88.7763 16.8522C88.7763 13.1379 87.0344 9.3586 82.8439 9.3586C78.6647 9.3586 76.9228 13.1379 76.9228 16.8522ZM92.9058 16.8522C92.9058 22.8815 89.1308 28.0691 82.8439 28.0691C76.5683 28.0691 72.7922 22.8815 72.7922 16.8522C72.7922 10.8273 76.5683 5.63867 82.8439 5.63867C89.1308 5.63867 92.9058 10.8273 92.9058 16.8522Z" fill="black"/>
  <path d="M66.7266 13.4379C66.2931 11.7285 64.9926 9.3586 61.581 9.3586C57.4786 9.3586 55.7728 13.1379 55.7728 16.8522C55.7728 20.5721 57.4786 24.3525 61.581 24.3525C64.3265 24.3525 66.8124 22.342 66.8124 19.4023H61.7267V15.8626H70.3379V27.5317H66.9862V25.7003C65.6281 27.2911 63.3726 28.0691 61.581 28.0691C54.9928 28.0691 51.7269 22.8815 51.7269 16.8522C51.7269 10.8273 55.4263 5.63867 61.581 5.63867C65.7726 5.63867 68.7778 7.82831 70.3379 11.9076L66.7266 13.4379Z" fill="black"/>
  <path d="M30.4434 0L0 9.80818L9.89428 40L36.6467 31.377L34.3123 24.2429H25.7515L24.6814 27.5308H20.5953L27.6019 6.17745H32.4618L30.4434 0ZM30.0352 11.2219L26.9204 20.7069H33.1434L30.0352 11.2219Z" fill="#0069B4"/>
  <path d="M51.3578 23.8123H39.8227V18.2934H47.9587V14.7537H39.8227V9.89864H50.5754V6.17871H35.7711V16.2627L39.4626 27.5322H51.3578V23.8123Z" fill="black"/>
</svg>
