<svg width="116" height="55" viewBox="0 0 116 55" fill="none" xmlns="http://www.w3.org/2000/svg">
<g clip-path="url(#clip0_757_1102)">
<path d="M52.4116 41.365V26.2474H57.4963V41.365C57.4963 44.0991 59.192 45.7719 61.7505 45.7719H62.5179C65.0773 45.7719 66.7722 44.1 66.7722 41.365V26.2474H71.8892V41.365C71.8892 46.7328 68.5948 50.3072 63.5767 50.3072H60.6979C55.6736 50.3072 52.4116 46.7363 52.4116 41.365Z" fill="white"/>
<path d="M87.4313 45.9971L86.8879 50.3089H82.9504C79.9753 50.3089 77.9926 48.3466 77.9926 45.3231V35.9955H74.9922V31.6838H77.9987V27.8559L82.9241 25.8584V31.6838H86.8905V35.9955H82.9241V44.6191C82.9241 45.4234 83.4675 46.0024 84.2673 46.0024L87.4313 45.9971Z" fill="white"/>
<path d="M107.684 44.6139C106.948 48.5059 103.462 50.6926 99.3713 50.6926C93.8063 50.6926 90.1602 46.3509 90.1602 40.9787C90.1602 35.64 93.6147 31.2992 98.9872 31.2992C104.648 31.2992 108.327 35.7377 107.367 41.7531H94.8904C95.1136 44.2935 96.7131 46.3526 99.3678 46.3526C101.223 46.3526 102.63 45.3847 103.11 43.7471L107.684 44.6139ZM95.0497 38.5668H102.726C102.598 36.5728 101.095 35.2863 99.0799 35.2863C97.1611 35.2863 95.5939 36.476 95.0497 38.5668Z" fill="white"/>
<path d="M116 50.3072H111.074V26.2474H116V50.3072Z" fill="white"/>
<path d="M29.4883 44.3595L34.3594 55H39.1938L32.6435 39.5013L29.4883 44.3595Z" fill="white"/>
<path d="M16.2298 47.0417L9.73025 44.8884L9.70312 44.9791L11.3569 55H16.8475L16.2298 47.0417Z" fill="white"/>
<path d="M37.9655 17.3519L34.9905 19.2878L28.7972 14.822L25.831 18.0268L18.8117 15.247L17.5132 22.5146L22.7124 28.2731L5.72427 30.9833L5.96664 24.6476L0.777878 26.9646L2.63376 31.5404L0 55.0001H4.31726L8.16728 41.8887L20.1679 45.8635L20.1408 45.9462H20.1618L26.5292 55.0053H31.7792L26.8232 44.1818L37.773 27.2928L35.8909 23.157L37.9594 22.204L41.3929 29.7461L44.8728 22.5621L37.9655 17.3519ZM28.5303 22.8076L26.552 21.537L28.7613 18.0585L30.7397 19.3301L28.5303 22.8076Z" fill="white"/>
<path d="M19.8743 1.66663L17.1543 2.24792L19.2948 12.092L22.0149 11.5107L19.8743 1.66663Z" fill="white"/>
<path d="M7.5852 3.26367L5.54541 5.15503L14.573 14.9675L16.6128 13.0761L7.5852 3.26367Z" fill="white"/>
<path d="M4.13887 14.3752L3.3623 17.0561L12.8628 19.8836L13.6393 17.2027L4.13887 14.3752Z" fill="white"/>
</g>
<defs>
<clipPath id="clip0_757_1102">
<rect width="116" height="55" fill="white"/>
</clipPath>
</defs>
</svg>
