<svg width="283" height="337" viewBox="0 0 283 337" fill="none" xmlns="http://www.w3.org/2000/svg">
<path d="M185.975 269.739L216.696 336.966H247.186L205.875 239.044L185.975 269.739Z" fill="#333333"/>
<path d="M102.355 286.685L61.3646 273.08L61.1935 273.653L71.6233 336.966H106.251L102.355 286.685Z" fill="#333333"/>
<path d="M239.438 99.1013L220.675 111.333L181.616 83.1172L162.909 103.366L118.64 85.8025L110.451 131.72L143.241 168.102L36.1014 185.226L37.63 145.197L4.90585 159.835L16.6104 188.746L0 336.967H27.2278L51.5087 254.127L127.194 279.241L127.022 279.763H127.155L167.312 337H200.423L169.166 268.616L238.224 161.909L226.354 135.778L239.399 129.757L261.053 177.409L283 132.02L239.438 99.1013ZM179.933 133.571L167.456 125.543L181.39 103.566L193.867 111.599L179.933 133.571Z" fill="#333333"/>
<path d="M125.341 0L108.186 3.67271L121.686 65.8689L138.84 62.1962L125.341 0Z" fill="#333333"/>
<path d="M47.8379 10.0903L34.9736 22.0401L91.9081 84.0363L104.772 72.0865L47.8379 10.0903Z" fill="#333333"/>
<path d="M26.1028 80.294L21.2052 97.2323L81.1219 115.097L86.0194 98.1587L26.1028 80.294Z" fill="#333333"/>
</svg>
