<?xml version="1.0" encoding="UTF-8"?>
<svg width="40px" height="40px" viewBox="0 0 40 40" version="1.1" xmlns="http://www.w3.org/2000/svg" xmlns:xlink="http://www.w3.org/1999/xlink">
    <!-- Generator: Sketch 47.1 (45422) - http://www.bohemiancoding.com/sketch -->
    <title>newsletter-mobile</title>
    <desc>Created with Sketch.</desc>
    <defs></defs>
    <g id="Dengie" stroke="none" stroke-width="1" fill="none" fill-rule="evenodd">
        <g id="SPRITES" transform="translate(-841.000000, -60.000000)">
            <g id="newsletter-mobile" transform="translate(841.000000, 60.000000)">
                <circle id="Oval" fill="#20812F" cx="20" cy="20" r="20"></circle>
                <circle id="Oval-6" stroke="#FFFFFF" stroke-width="1.5" fill="#20812F" cx="20" cy="20" r="17"></circle>
                <g id="ic_email_black_24px" transform="translate(10.000000, 11.000000)">
                    <path d="M16.4,3 L3.6,3 C2.72,3 2.008,3.675 2.008,4.5 L2,13.5 C2,14.325 2.72,15 3.6,15 L16.4,15 C17.28,15 18,14.325 18,13.5 L18,4.5 C18,3.675 17.28,3 16.4,3 Z M16.4,6 L10,9.75 L3.6,6 L3.6,4.5 L10,8.25 L16.4,4.5 L16.4,6 Z" id="Shape" fill="#FFFFFF" fill-rule="nonzero"></path>
                    <polygon id="Shape" points="0 0 19 0 19 19 0 19"></polygon>
                </g>
            </g>
        </g>
    </g>
</svg>