<?xml version="1.0" encoding="utf-8"?>
<!-- Generator: Adobe Illustrator 24.1.3, SVG Export Plug-In . SVG Version: 6.00 Build 0)  -->
<svg version="1.1" id="Layer_1" xmlns="http://www.w3.org/2000/svg" xmlns:xlink="http://www.w3.org/1999/xlink" x="0px" y="0px"
	 width="64px" height="54px" viewBox="0 0 64 54" style="enable-background:new 0 0 64 54;" xml:space="preserve">
<style type="text/css">
	.st0{fill:#FFFFFF;}
	.st1{fill:#C0101A;}
</style>
<path class="st0" d="M64,29l-2.7,0l0,11.2L44.4,22l9.2-5l-1.3-2.3L32.2,25.6L5.8,11.8l39.4-0.1l0-2.7L0,9.1L0,42
	c0,1.8,1.5,3.2,3.2,3.2c0,0,0,0,0,0l57.5-0.1c1.8,0,3.2-1.5,3.2-3.2L64,29z M32.2,28.7l9.8-5.4l17.8,19.2L4.2,42.6L22,23.3
	L32.2,28.7z M2.7,40.2l0-27.1L19.5,22L2.7,40.2z"/>
<polygon class="st1" points="61.3,25.7 61.3,11.7 47.3,11.8 47.3,9.1 63.9,9.1 63.9,25.7 "/>
</svg>
