<?xml version="1.0" encoding="UTF-8"?>
<svg width="65px" height="43px" viewBox="0 0 65 43" version="1.1" xmlns="http://www.w3.org/2000/svg" xmlns:xlink="http://www.w3.org/1999/xlink">
    <title>Group 12</title>
    <defs>
        <polygon id="path-1" points="0 -4.7406559e-15 28.9891872 -4.7406559e-15 28.9891872 28.8397352 0 28.8397352"></polygon>
        <polygon id="path-3" points="-9.53040132e-15 0 29.2707899 0 29.2707899 28.3875152 -9.53040132e-15 28.3875152"></polygon>
        <polygon id="path-5" points="0 0 35.2260271 0 35.2260271 13.1476068 0 13.1476068"></polygon>
    </defs>
    <g id="Page-1" stroke="none" stroke-width="1" fill="none" fill-rule="evenodd">
        <g id="Homepage---APPROVATA-Copy-2" transform="translate(-1005.000000, -3077.000000)">
            <g id="old-box-on" transform="translate(700.000000, 3028.000000)">
                <g id="Group-10" transform="translate(305.000000, 49.000000)">
                    <g id="Group-3" transform="translate(3.088308, 14.160265)">
                        <mask id="mask-2" fill="white">
                            <use xlink:href="#path-1"></use>
                        </mask>
                        <g id="Clip-2"></g>
                        <path d="M14.4945936,7.27768675 C10.5364623,7.27768675 7.315367,10.4815235 7.315367,14.4199343 C7.315367,18.3576779 10.5364623,21.5621819 14.4945936,21.5621819 C18.4527249,21.5621819 21.6738202,18.3576779 21.6738202,14.4199343 C21.6738202,10.4815235 18.4527249,7.27768675 14.4945936,7.27768675 M14.4945936,28.8398687 C6.5018778,28.8398687 0,22.3708138 0,14.4199343 C0,6.4683877 6.5018778,0 14.4945936,0 C22.4866387,0 28.9891872,6.4683877 28.9891872,14.4199343 C28.9891872,22.3708138 22.4866387,28.8398687 14.4945936,28.8398687" id="Fill-1" fill="#E10F18" mask="url(#mask-2)"></path>
                    </g>
                    <g id="Group-6" transform="translate(35.729210, 14.020289)">
                        <mask id="mask-4" fill="white">
                            <use xlink:href="#path-3"></use>
                        </mask>
                        <g id="Clip-5"></g>
                        <path d="M29.270857,28.3875152 L21.6744908,28.3875152 L21.6744908,14.5600438 C21.6744908,10.6990268 18.5171065,7.55723852 14.6360991,7.55723852 C10.7550917,7.55723852 7.59770743,10.6990268 7.59770743,14.5600438 L7.59770743,28.3875152 L-9.53040132e-15,28.3875152 L-9.53040132e-15,14.5600438 C-9.53040132e-15,6.53177056 6.56625947,0 14.6360991,0 C22.7059388,0 29.270857,6.53177056 29.270857,14.5600438 L29.270857,28.3875152 Z" id="Fill-4" fill="#E10F18" mask="url(#mask-4)"></path>
                    </g>
                    <g id="Group-9">
                        <mask id="mask-6" fill="white">
                            <use xlink:href="#path-5"></use>
                        </mask>
                        <g id="Clip-8"></g>
                        <path d="M29.4350302,13.1476068 C26.5834589,9.4720681 22.0948495,7.27768675 17.4278492,7.27768675 C12.8487031,7.27768675 8.56329832,9.30260234 5.67014713,12.8340285 L-0.000134128474,8.23643591 C4.2879532,3.00167883 10.6402777,0 17.4278492,0 C24.3455253,0 30.9989682,3.25254152 35.2260271,8.70079876 L29.4350302,13.1476068 Z" id="Fill-7" fill="#E10F18" mask="url(#mask-6)"></path>
                    </g>
                </g>
            </g>
        </g>
    </g>
</svg>