<?xml version="1.0" encoding="UTF-8"?>
<svg width="29px" height="30px" viewBox="0 0 29 30" version="1.1" xmlns="http://www.w3.org/2000/svg" xmlns:xlink="http://www.w3.org/1999/xlink">
    <!-- Generator: Sketch 48.2 (47327) - http://www.bohemiancoding.com/sketch -->
    <title>Group 6</title>
    <desc>Created with Sketch.</desc>
    <defs>
        <polygon id="path-1" points="1.60306537e-05 0.0736028169 28.9266712 0.0736028169 28.9266712 29 1.60306537e-05 29"></polygon>
    </defs>
    <g id="Artboard" stroke="none" stroke-width="1" fill="none" fill-rule="evenodd" transform="translate(-735.000000, -62.000000)">
        <g id="Group-6" transform="translate(735.000000, 62.000000)">
            <g id="Page-1">
                <path d="M14.4634845,23.9757704 C11.6770338,23.9757704 9.41013239,21.708869 9.41013239,18.9224183 C9.41013239,16.1359676 11.6770338,13.8690662 14.4634845,13.8690662 C17.2495268,13.8690662 19.5164282,16.1359676 19.5164282,18.9224183 C19.5164282,21.708869 17.2495268,23.9757704 14.4634845,23.9757704 M14.4634845,12.1919676 C10.7523014,12.1919676 7.7330338,15.2112352 7.7330338,18.9224183 C7.7330338,22.6336014 10.7523014,25.6524606 14.4634845,25.6524606 C18.1746676,25.6524606 21.1939352,22.6336014 21.1939352,18.9224183 C21.1939352,15.2112352 18.1746676,12.1919676 14.4634845,12.1919676" id="Fill-1" fill="#000000"></path>
                <g id="Group-5" transform="translate(0.000000, 0.335052)">
                    <mask id="mask-2" fill="white">
                        <use xlink:href="#path-1"></use>
                    </mask>
                    <g id="Clip-4"></g>
                    <path d="M27.2495028,9.64768732 L21.9302493,9.64768732 L21.9302493,8.75032113 C21.9412775,8.02246197 21.6618972,7.33177183 21.1431648,6.80487042 C20.6174887,6.27102535 19.8896296,5.96509577 19.1466577,5.96509577 L9.77965775,5.96509577 C9.03668592,5.96509577 8.30923521,6.27102535 7.78396761,6.80487042 C7.26482676,7.33177183 6.98544648,8.02246197 6.99647465,8.77115211 L6.99647465,9.64768732 L1.67762958,9.64768732 L1.67762958,5.77965915 C1.67762958,5.3724338 1.92923521,4.96112394 2.4463338,4.52244789 C3.03409437,4.02454648 3.97884085,3.52868732 5.10779859,3.12554648 C7.55237606,2.25187042 10.962531,1.75070141 14.463362,1.75070141 C17.964193,1.75070141 21.3739394,2.25187042 23.8193338,3.12554648 C24.9474746,3.52868732 25.893038,4.02454648 26.4799817,4.52244789 C26.9978972,4.96112394 27.2495028,5.3724338 27.2495028,5.77965915 L27.2495028,9.64768732 Z M28.9266014,10.4862366 L28.9266014,5.77965915 C28.9266014,4.87167324 28.4564746,3.99268732 27.5672775,3.23950423 C26.792038,2.58230704 25.7541648,2.02681408 24.3940239,1.54075775 C21.746038,0.594785915 18.2194746,0.0736028169 14.463362,0.0736028169 C10.7072493,0.0736028169 7.18068592,0.594785915 4.5327,1.54075775 C3.17296761,2.02681408 2.13509437,2.58230704 1.35944648,3.23950423 C0.470249296,3.99268732 0.000122535211,4.87167324 0.000122535211,5.77965915 L0.000122535211,10.4862366 C0.000122535211,10.9486028 0.376305634,11.3243775 0.838671831,11.3243775 L4.78634789,11.3243775 L0.0789535211,16.6746732 C0.0254464789,16.788631 -0.00191971831,16.9152507 0.000122535211,17.0402366 L0.000122535211,17.2514056 L1.67762958,17.2514056 L1.67762958,17.2465042 L6.68972817,11.3243775 L7.83543239,11.3243775 C8.29779859,11.3243775 8.67357324,10.9486028 8.67357324,10.4862366 L8.67357324,8.72295493 C8.66703803,8.44153239 8.77119296,8.17603944 8.96684085,7.97549014 C9.17637606,7.76105352 9.4651507,7.64260282 9.77965775,7.64260282 L19.1466577,7.64260282 C19.4615732,7.64260282 19.7507563,7.76105352 19.9598831,7.97589859 C20.1559394,8.17603944 20.2600944,8.44194085 20.2531507,8.72254648 L20.2531507,10.4862366 C20.2531507,10.9486028 20.6293338,11.3243775 21.0917,11.3243775 L22.2847845,11.3243775 L27.2495028,17.2465042 L27.2495028,27.183293 C27.2495028,27.2707014 27.1972211,27.3225746 27.1098127,27.3225746 L11.8027141,27.3225746 L11.8027141,29.0000817 L27.1098127,29.0000817 C28.0945873,29.0000817 28.9266014,28.1680676 28.9266014,27.183293 L28.9266014,17.0418704 C28.9282352,16.9152507 28.9012775,16.788631 28.8379676,16.6579268 L24.3249958,11.3243775 L28.0884606,11.3243775 C28.5508268,11.3243775 28.9266014,10.9486028 28.9266014,10.4862366 Z" id="Fill-3" fill="#000000" mask="url(#mask-2)"></path>
                </g>
                <polygon id="Fill-6" fill="#E20714" points="0.0341056338 19.1620972 1.66790845 19.1600549 1.67811972 27.6819704 10.2000352 27.6713507 10.2024859 29.3051535 0.0467676056 29.3178155"></polygon>
            </g>
        </g>
    </g>
</svg>