<svg xmlns="http://www.w3.org/2000/svg" width="24" height="24" viewBox="0 0 24 24">
    <g fill="none" fill-rule="evenodd">
        <g fill-rule="nonzero">
            <g>
                <g>
                    <path fill="#FFF" fill-opacity="0" d="M0 0H24V24H0z" transform="translate(-339 -2959) translate(0 2929) translate(339 30)"/>
                    <g>
                        <path fill="#1877F2" d="M19.201 9.601c0-5.107-3.998-9.32-9.098-9.587C5.003-.253.587 3.52.053 8.599c-.533 5.079 3.004 9.686 8.048 10.484v-6.707H5.664V9.601h2.437V7.486c-.196-1.86 1.153-3.528 3.014-3.724.204-.022.409-.025.613-.009.72.01 1.437.072 2.148.186v2.362h-1.211c-.364-.049-.733.05-1.024.273-.292.223-.484.553-.532.917-.014.103-.017.207-.007.31v1.8h2.666l-.427 2.775h-2.24v6.705c4.664-.738 8.099-4.758 8.1-9.48z" transform="translate(-339 -2959) translate(0 2929) translate(339 30) translate(2.399 2.4)"/>
                        <path fill="#FFF" d="M13.338 12.373l.427-2.775h-2.664v-1.8c-.066-.76.495-1.43 1.255-1.5.102-.01.205-.007.307.007h1.213V3.94c-.71-.115-1.428-.179-2.148-.19-.896-.068-1.783.222-2.465.808-.682.586-1.103 1.419-1.171 2.315-.015.204-.012.41.009.613v2.117H5.664v2.77h2.437v6.71c.994.156 2.006.156 3 0v-6.71h2.237z" transform="translate(-339 -2959) translate(0 2929) translate(339 30) translate(2.399 2.4)"/>
                    </g>
                </g>
            </g>
        </g>
    </g>
</svg>
