<svg xmlns="http://www.w3.org/2000/svg" width="24" height="24" viewBox="0 0 24 24">
    <g fill="none" fill-rule="evenodd">
        <g fill-rule="nonzero">
            <g>
                <g transform="translate(-395 -2959) translate(0 2929) translate(395 30)">
                    <rect width="16.587" height="16.587" x="3.706" y="3.707" fill="#FFF" rx="8"/>
                    <path fill="#069" d="M20.181 21.602H3.82c-.772.011-1.407-.605-1.42-1.377V3.775c.015-.77.65-1.384 1.42-1.373h16.361c.77-.01 1.404.603 1.419 1.373v16.45c-.013.772-.647 1.388-1.419 1.377zm-5.873-9.726c.444-.027.87.179 1.125.543.252.428.37.921.341 1.417v4.638h2.9v-4.972c.009-.587-.077-1.173-.253-1.733-.143-.45-.382-.866-.7-1.216-.623-.64-1.488-.986-2.381-.951-.617-.017-1.224.155-1.739.494-.351.25-.649.569-.875.936v-1.23h-2.9c.035.738.007 7.31 0 8.62v.05h2.9v-4.841c-.01-.238.023-.475.1-.7.111-.28.292-.529.525-.721.27-.22.609-.339.957-.336v.002zM5.32 9.802v8.67h2.9v-8.67h-2.9zm1.47-4.178c-.437-.014-.863.14-1.19.43-.292.277-.455.663-.45 1.066-.005.399.153.782.437 1.062.315.293.733.45 1.163.437h.019c.442.016.872-.14 1.2-.437.288-.276.449-.66.445-1.058-.002-.401-.164-.785-.45-1.067-.32-.293-.741-.448-1.174-.432v-.001z"/>
                    <path fill="#FFF" fill-opacity="0" d="M0 0H24V24H0z"/>
                </g>
            </g>
        </g>
    </g>
</svg>
