<svg xmlns="http://www.w3.org/2000/svg" width="24" height="24" viewBox="0 0 24 24">
    <g fill="none" fill-rule="evenodd">
        <g fill-rule="nonzero">
            <g>
                <g>
                    <path fill="#FFF" fill-opacity="0" d="M0 0H24V24H0z" transform="translate(-423 -2959) translate(0 2929) translate(423 30)"/>
                    <g>
                        <path fill="red" d="M18.797 2.1c-.222-.83-.87-1.478-1.7-1.7-2.489-.297-4.994-.43-7.5-.4-2.506-.03-5.011.103-7.5.4-.83.222-1.478.87-1.7 1.7-.535 3.058-.535 6.185 0 9.243.222.83.87 1.478 1.7 1.7 2.489.297 4.994.43 7.5.4 2.506.03 5.011-.103 7.5-.4.83-.222 1.478-.87 1.7-1.7.535-3.058.535-6.185 0-9.243z" transform="translate(-423 -2959) translate(0 2929) translate(423 30) translate(2.4 5.28)"/>
                        <path fill="#FFF" d="M8.181 9L12.188 6.721 8.181 4.442z" transform="translate(-423 -2959) translate(0 2929) translate(423 30) translate(2.4 5.28)"/>
                    </g>
                </g>
            </g>
        </g>
    </g>
</svg>
