<svg xmlns="http://www.w3.org/2000/svg" width="24" height="24" viewBox="0 0 24 24">
    <g fill="none" fill-rule="evenodd">
        <g fill-rule="nonzero">
            <g>
                <g>
                    <path fill="#FFF" fill-opacity="0" d="M0 0H24V24H0z" transform="translate(-367 -2959) translate(0 2929) translate(367 30)"/>
                    <g fill="#1DA1F2">
                        <path d="M19.2 2.89c-.718.327-1.481.543-2.264.64.829-.511 1.444-1.305 1.733-2.235-.77.47-1.616.8-2.5.98-.736-.814-1.782-1.279-2.88-1.28-2.203.027-3.966 1.835-3.939 4.038 0 .31.036.619.106.921-3.187-.174-6.145-1.71-8.119-4.219C.291 3.578.819 5.915 2.556 7.128c-.628-.018-1.242-.19-1.788-.5v.048c-.016 1.902 1.302 3.555 3.16 3.962-.578.16-1.185.183-1.773.069.495 1.63 1.977 2.76 3.68 2.806C4.197 14.838 2.092 15.443 0 15.19c1.791 1.184 3.891 1.814 6.038 1.814 7.245 0 11.207-6.155 11.207-11.493 0-.175 0-.35-.011-.525.775-.576 1.44-1.286 1.966-2.096z" transform="translate(-367 -2959) translate(0 2929) translate(367 30) translate(2.4 2.998)"/>
                    </g>
                </g>
            </g>
        </g>
    </g>
</svg>
