<svg width="95" height="30" viewBox="0 0 95 30" fill="none" xmlns="http://www.w3.org/2000/svg">
<path d="M19.0938 17.8984C19.0938 18.9141 18.7266 19.7109 17.9922 20.2891C17.2578 20.8672 16.2448 21.1562 14.9531 21.1562C13.6615 21.1562 12.6042 20.9557 11.7812 20.5547V18.7891C12.3021 19.0339 12.8542 19.2266 13.4375 19.3672C14.026 19.5078 14.5729 19.5781 15.0781 19.5781C15.8177 19.5781 16.362 19.4375 16.7109 19.1562C17.0651 18.875 17.2422 18.4974 17.2422 18.0234C17.2422 17.5964 17.0807 17.2344 16.7578 16.9375C16.4349 16.6406 15.7682 16.2891 14.7578 15.8828C13.7161 15.4609 12.9818 14.9792 12.5547 14.4375C12.1276 13.8958 11.9141 13.2448 11.9141 12.4844C11.9141 11.5312 12.2526 10.7812 12.9297 10.2344C13.6068 9.6875 14.5156 9.41406 15.6562 9.41406C16.75 9.41406 17.8385 9.65365 18.9219 10.1328L18.3281 11.6562C17.3125 11.2292 16.4062 11.0156 15.6094 11.0156C15.0052 11.0156 14.5469 11.1484 14.2344 11.4141C13.9219 11.6745 13.7656 12.0208 13.7656 12.4531C13.7656 12.75 13.8281 13.0052 13.9531 13.2188C14.0781 13.4271 14.2839 13.625 14.5703 13.8125C14.8568 14 15.3724 14.2474 16.1172 14.5547C16.9557 14.9036 17.5703 15.2292 17.9609 15.5312C18.3516 15.8333 18.638 16.1745 18.8203 16.5547C19.0026 16.9349 19.0938 17.3828 19.0938 17.8984ZM24.8828 21.1562C23.5391 21.1562 22.487 20.7656 21.7266 19.9844C20.9714 19.1979 20.5938 18.1172 20.5938 16.7422C20.5938 15.3307 20.9453 14.2214 21.6484 13.4141C22.3516 12.6068 23.3177 12.2031 24.5469 12.2031C25.6875 12.2031 26.5885 12.5495 27.25 13.2422C27.9115 13.9349 28.2422 14.888 28.2422 16.1016V17.0938H22.4844C22.5104 17.9323 22.737 18.5781 23.1641 19.0312C23.5911 19.4792 24.1927 19.7031 24.9688 19.7031C25.4792 19.7031 25.9531 19.6562 26.3906 19.5625C26.8333 19.4635 27.3073 19.3021 27.8125 19.0781V20.5703C27.3646 20.7839 26.9115 20.9349 26.4531 21.0234C25.9948 21.112 25.4714 21.1562 24.8828 21.1562ZM24.5469 13.5938C23.9635 13.5938 23.4948 13.7786 23.1406 14.1484C22.7917 14.5182 22.5833 15.0573 22.5156 15.7656H26.4375C26.4271 15.0521 26.2552 14.513 25.9219 14.1484C25.5885 13.7786 25.1302 13.5938 24.5469 13.5938ZM35.7344 21L35.3672 19.7969H35.3047C34.888 20.3229 34.4688 20.6823 34.0469 20.875C33.625 21.0625 33.0833 21.1562 32.4219 21.1562C31.5729 21.1562 30.9089 20.9271 30.4297 20.4688C29.9557 20.0104 29.7188 19.362 29.7188 18.5234C29.7188 17.6328 30.0495 16.9609 30.7109 16.5078C31.3724 16.0547 32.3802 15.8073 33.7344 15.7656L35.2266 15.7188V15.2578C35.2266 14.7057 35.0964 14.2943 34.8359 14.0234C34.5807 13.7474 34.1823 13.6094 33.6406 13.6094C33.1979 13.6094 32.7734 13.6745 32.3672 13.8047C31.9609 13.9349 31.5703 14.0885 31.1953 14.2656L30.6016 12.9531C31.0703 12.7083 31.5833 12.5234 32.1406 12.3984C32.6979 12.2682 33.224 12.2031 33.7188 12.2031C34.8177 12.2031 35.6458 12.4427 36.2031 12.9219C36.7656 13.401 37.0469 14.1536 37.0469 15.1797V21H35.7344ZM33 19.75C33.6667 19.75 34.2005 19.5651 34.6016 19.1953C35.0078 18.8203 35.2109 18.2969 35.2109 17.625V16.875L34.1016 16.9219C33.237 16.9531 32.6068 17.099 32.2109 17.3594C31.8203 17.6146 31.625 18.0078 31.625 18.5391C31.625 18.9245 31.7396 19.224 31.9688 19.4375C32.1979 19.6458 32.5417 19.75 33 19.75ZM43.9922 12.2031C44.362 12.2031 44.6667 12.2292 44.9062 12.2812L44.7266 13.9922C44.4661 13.9297 44.1953 13.8984 43.9141 13.8984C43.1797 13.8984 42.5833 14.138 42.125 14.6172C41.6719 15.0964 41.4453 15.7188 41.4453 16.4844V21H39.6094V12.3594H41.0469L41.2891 13.8828H41.3828C41.6693 13.3672 42.0417 12.9583 42.5 12.6562C42.9635 12.3542 43.4609 12.2031 43.9922 12.2031ZM50 21.1562C48.6927 21.1562 47.6979 20.776 47.0156 20.0156C46.3385 19.25 46 18.1536 46 16.7266C46 15.2734 46.3542 14.1562 47.0625 13.375C47.776 12.5938 48.8047 12.2031 50.1484 12.2031C51.0599 12.2031 51.8802 12.3724 52.6094 12.7109L52.0547 14.1875C51.2786 13.8854 50.638 13.7344 50.1328 13.7344C48.638 13.7344 47.8906 14.7266 47.8906 16.7109C47.8906 17.6797 48.0755 18.4089 48.4453 18.8984C48.8203 19.3828 49.3672 19.625 50.0859 19.625C50.9036 19.625 51.6771 19.4219 52.4062 19.0156V20.6172C52.0781 20.8099 51.7266 20.9479 51.3516 21.0312C50.9818 21.1146 50.5312 21.1562 50 21.1562ZM62.0391 21H60.1953V15.6875C60.1953 15.0208 60.0599 14.5234 59.7891 14.1953C59.5234 13.8672 59.099 13.7031 58.5156 13.7031C57.7448 13.7031 57.1771 13.9349 56.8125 14.3984C56.4531 14.8568 56.2734 15.6276 56.2734 16.7109V21H54.4375V8.84375H56.2734V11.9297C56.2734 12.4245 56.2422 12.9531 56.1797 13.5156H56.2969C56.5469 13.099 56.8932 12.776 57.3359 12.5469C57.7839 12.3177 58.3047 12.2031 58.8984 12.2031C60.9922 12.2031 62.0391 13.2578 62.0391 15.3672V21Z" fill="#8F8F8F"/>
<rect x="0.5" y="0.5" width="94" height="29" rx="3.5" stroke="#909090"/>
<path d="M81.579 10.9871C82.0529 12.1015 82.2087 13.3253 82.0291 14.5229C81.8494 15.7204 81.3414 16.8447 80.5614 17.7709L84.8299 22.0409C84.8831 22.0924 84.9256 22.154 84.9548 22.2221C84.984 22.2902 84.9994 22.3634 85 22.4375C85.0006 22.5116 84.9864 22.585 84.9584 22.6536C84.9303 22.7221 84.8888 22.7844 84.8364 22.8368C84.784 22.8891 84.7217 22.9305 84.6531 22.9586C84.5845 22.9866 84.511 23.0007 84.437 23C84.3629 22.9993 84.2897 22.9839 84.2216 22.9546C84.1536 22.9253 84.092 22.8828 84.0406 22.8295L79.7714 18.5609C78.7168 19.4493 77.4089 19.9823 76.0338 20.084C74.6586 20.1856 73.2865 19.8508 72.1128 19.1271C70.9391 18.4035 70.0237 17.3279 69.4969 16.0536C68.9701 14.7793 68.8589 13.3713 69.179 12.0301C69.4991 10.6888 70.2343 9.48284 71.2797 8.58382C72.3252 7.6848 73.6277 7.13862 75.0018 7.02305C76.3758 6.90749 77.7512 7.22845 78.9322 7.9402C80.1131 8.65196 81.0394 9.71823 81.579 10.9871V10.9871ZM73.4244 8.5471C72.7675 8.82626 72.172 9.23207 71.6719 9.74137C71.1718 10.2507 70.7769 10.8535 70.5098 11.5154C70.2427 12.1773 70.1086 12.8854 70.1151 13.5991C70.1216 14.3129 70.2686 15.0183 70.5478 15.6753C70.8269 16.3322 71.2327 16.9277 71.742 17.4278C72.2513 17.9279 72.8541 18.3228 73.516 18.5899C74.1779 18.857 74.8859 18.9912 75.5997 18.9847C76.3134 18.9782 77.0189 18.8311 77.6758 18.552C79 17.9866 80.0457 16.9188 80.5834 15.5831C81.121 14.2474 81.1067 12.753 80.5436 11.4278C79.9805 10.1026 78.9145 9.05508 77.5797 8.51513C76.245 7.97517 74.7505 7.98694 73.4244 8.54784V8.5471Z" fill="#909090"/>
</svg>
