<svg width="17" height="16" viewBox="0 0 17 16" fill="none" xmlns="http://www.w3.org/2000/svg">
<path d="M1.87238 0.272116L1.88129 0.281025L8.0251 6.50787L14.1189 0.333165C14.4839 -0.0367247 15.0796 -0.0407133 15.4495 0.324257L15.4584 0.333165C15.8297 0.709503 15.8297 1.31438 15.4584 1.69071L9.36411 7.86487L15.7227 14.309C16.094 14.6854 16.094 15.2902 15.7227 15.6666C15.3577 16.0365 14.762 16.0404 14.3921 15.6755C14.3891 15.6725 14.3861 15.6696 14.3832 15.6666L8.0251 9.22287L1.61701 15.7187C1.25204 16.0886 0.656321 16.0926 0.286431 15.7276C0.283442 15.7247 0.280472 15.7217 0.277522 15.7187C-0.0938095 15.3424 -0.0938095 14.7375 0.277522 14.3612L6.6861 7.86487L0.541796 1.63857C0.170464 1.26223 0.170464 0.657362 0.541796 0.281025C0.906766 -0.0888654 1.50249 -0.092854 1.87238 0.272116Z" fill="#9BA4AB"/>
</svg>
