<svg xmlns="http://www.w3.org/2000/svg" xmlns:xlink="http://www.w3.org/1999/xlink" viewBox="0 0 32 32"><defs><style>.cls-1{fill:url(#Dégradé_RED_by_SFR);}.cls-2{fill:url(#Dégradé_RED_by_SFR-2);}.cls-3{fill:url(#Dégradé_sans_nom_9);}.cls-4{fill:url(#Dégradé_sans_nom_9-2);}.cls-5{fill:#1a171b;}.cls-6{fill:none;}</style><linearGradient id="Dégradé_RED_by_SFR" x1="1.92" y1="8.71" x2="6.09" y2="8.71" gradientUnits="userSpaceOnUse"><stop offset="0" stop-color="#00e094"/><stop offset="1" stop-color="#08bf7e"/></linearGradient><linearGradient id="Dégradé_RED_by_SFR-2" x1="7.21" y1="8.71" x2="10.33" y2="8.71" xlink:href="#Dégradé_RED_by_SFR"/><linearGradient id="Dégradé_sans_nom_9" x1="-3159.47" y1="8.71" x2="-3155.3" y2="8.71" gradientTransform="matrix(-1, 0, 0, 1, -3129.39, 0)" gradientUnits="userSpaceOnUse"><stop offset="0" stop-color="#08bf7e"/><stop offset="1" stop-color="#00e094"/></linearGradient><linearGradient id="Dégradé_sans_nom_9-2" x1="-3154.18" y1="8.71" x2="-3151.06" y2="8.71" xlink:href="#Dégradé_sans_nom_9"/></defs><title>ic-quality-reseau</title><g id="Calque_2" data-name="Calque 2"><g id="Quality_réseau" data-name="Quality réseau"><g id="ic-quality-reseau"><path class="cls-1" d="M5.23,15.47a.82.82,0,0,1-.61-.25,9.21,9.21,0,0,1,0-13,.85.85,0,0,1,1.21,0,.86.86,0,0,1,0,1.22A7.5,7.5,0,0,0,5.83,14a.86.86,0,0,1,0,1.22A.82.82,0,0,1,5.23,15.47Z"/><path class="cls-2" d="M9.47,13a.9.9,0,0,1-.61-.25,5.67,5.67,0,0,1,0-8,.86.86,0,0,1,1.22,1.22,3.94,3.94,0,0,0,0,5.57.88.88,0,0,1,0,1.22A.9.9,0,0,1,9.47,13Z"/><path class="cls-3" d="M26.77,15.47a.82.82,0,0,1-.6-.25.86.86,0,0,1,0-1.22,7.5,7.5,0,0,0,0-10.59.86.86,0,0,1,0-1.22.85.85,0,0,1,1.21,0,9.21,9.21,0,0,1,0,13A.82.82,0,0,1,26.77,15.47Z"/><path class="cls-4" d="M22.53,13a.9.9,0,0,1-.61-.25.88.88,0,0,1,0-1.22,3.94,3.94,0,0,0,0-5.57A.86.86,0,0,1,23.14,4.7a5.67,5.67,0,0,1,0,8A.9.9,0,0,1,22.53,13Z"/><path class="cls-5" d="M19.53,8.71a3.53,3.53,0,1,0-4.39,3.42V29.2a.86.86,0,1,0,1.72,0V12.13A3.54,3.54,0,0,0,19.53,8.71ZM16,10.52a1.82,1.82,0,1,1,1.81-1.81A1.82,1.82,0,0,1,16,10.52Z"/><rect class="cls-6" width="32" height="32"/></g></g></g></svg>