<svg xmlns="http://www.w3.org/2000/svg" viewBox="0 0 32 32">
    <g fill="none" fill-rule="evenodd">
        <path fill="#FFF" fill-rule="nonzero" d="M11.446 20.613A9.27 9.27 0 0 1 9.417 2.297a.858.858 0 0 1 .381 1.673 7.554 7.554 0 1 0 5.06.626.857.857 0 1 1 .772-1.524 9.27 9.27 0 0 1-4.179 17.547l-.005-.006zM26.625 29.581a.857.857 0 0 1-.606-.248l-8.234-8.238a.855.855 0 0 1 0-1.211l2.2-2.2a.855.855 0 0 1 1.211 0l8.234 8.234a.855.855 0 0 1 0 1.212l-2.192 2.203a.86.86 0 0 1-.613.248zm-7.023-9.091l7.023 7.02.986-.986-7.02-7.021-.99.987z"/>
        <path d="M0 0h31.855v31.855H0z"/>
    </g>
</svg>
