<svg id="flag-icons-us" xmlns="http://www.w3.org/2000/svg" xmlns:xlink="http://www.w3.org/1999/xlink" viewBox="0 0 912 480"><defs><style>.cls-1,.cls-2{fill:none;}.cls-1{clip-rule:evenodd;}.cls-3{fill:#182958;}.cls-4{clip-path:url(#clip-path);}.cls-5{clip-path:url(#clip-path-2);}.cls-6{fill:#fff;}</style><clipPath id="clip-path"><path class="cls-1" d="M535.55,304.89c1.28-.32,1.17,1,.84,1.8-.74,1.89-1.57,3.76-2.37,5.64-1.13,2.64,0,5,2.7,5.63,3.69.87,6.67,3,9.52,5.28a4.89,4.89,0,0,0,2.59,1.32l.33,0c.75-.16,1.36-.92,2.12-2.31,2.69-4.89,1.17-10.24,2.14-15.31a16.11,16.11,0,0,1,2.43-5.49,1.68,1.68,0,0,1,1.13-.76c.58,0,.69.62.69,1.09.06,3.49,2.82,6.19,2.87,9.7a1.35,1.35,0,0,0,1.43,1.45l.38-.05a5.3,5.3,0,0,1,1.2-.12l.5.06c1.89.35,2.35,2.29,2.33,3.92,0,3.89,3,6.8,2.88,10.78,0,1.79,2.6,3.06,4.58,3.69,4.35,1.37,6.15,4.46,6.43,8.68.06.85.29,1.31.9,1.35h.34l.41-.08A4.05,4.05,0,0,1,583,341l.35,0c.55.09,1,.37.94,1-.19,2.44,1.1,3.91,2.54,5.27l1.08,1c.35.34.69.69,1,1.05a17.42,17.42,0,0,1,4.09,9.23,43.22,43.22,0,0,1,.19,12.84,15.92,15.92,0,0,1-3,8.07c-4.5,5.53-6.87,11.92-8.11,18.78-.34,1.92-1.06,3.15-2.73,3.46l-.59.07H578l-.88,0c-2.54.24-4.26,2.16-5.73,3.84a3.79,3.79,0,0,1-1.63,1.23l-.36.07h-.34a3.5,3.5,0,0,1-2.05-1.57c-.89-1.18-1.72-2-2.65-2.05l-.36,0a3.69,3.69,0,0,0-2,1.35,3.06,3.06,0,0,1-1.66,1l-.48.06a3.93,3.93,0,0,1-1.6-.32,72.79,72.79,0,0,0-7.49-2.59c-3-.86-3.64-3.15-4.11-5.72-.36-2,.37-4.92-2.59-4.89l-.64,0c-.23,0-.48.08-.75.14l-.34,0c-.66-.06-.54-.91-.3-1.47a2.78,2.78,0,0,0-.55-3.35c-.59,1.29-1.16,2.58-2.33,3l-.46.09a3.32,3.32,0,0,1-1.13-.11,27.3,27.3,0,0,0,2.79-9.46c-1,3.13-4.44,4.15-5.93,6.84-.23.42-.33,1.16-.85,1.34l-.3,0-.39-.08c-.87-.29-.8-1.19-1.16-1.84-1.87-3.46-3.2-7.49-7.32-9-2.93-1.11-5.84-2.53-9-2.7h-1.22a10.65,10.65,0,0,0-1.24.13c-1.17.2-2.38.15-3.36.88a8.85,8.85,0,0,1-5.28,1.55c-5.27.05-9.54,2-12.6,6.23a2.1,2.1,0,0,1-1.46,1l-.4,0a11,11,0,0,1-1.26-.1c-2-.23-4.07-.56-6.12-.69a7.14,7.14,0,0,0-4.78,1.79l-1.38,1a15.7,15.7,0,0,1-1.41.94,9.24,9.24,0,0,1-3.94,1.06l-.88,0c-2.63,0-5.3-1-6.75-2.73a2.28,2.28,0,0,1-.05-3.17c2.37-2.52,2.16-5.39,1.22-8.27-1.63-5-3.44-10-5.21-15a11,11,0,0,0-1-1.75,4.32,4.32,0,0,0-.5-.67l-.36-.43c-.57-.72-.8-1.42,1.18-2.14,1.3-.47.69-2.24,0-3.35-1.48-2.29-2.65-4.49-.73-7.21.47-.68-.25-2.07-.08-3.08a3.53,3.53,0,0,1,2.42-2.62l1.14-.49a7.53,7.53,0,0,0,1.06-.54c4.76-3.05,10.27-4.41,15.74-5.69,4.75-1.12,8.18-4.38,9-9.12a3.33,3.33,0,0,1,1.91-2.75,1.11,1.11,0,0,1,.38-.06l.28.1c.57.37.61,1.7,1.65,1.93l.11-.29c.33-1.13-.13-2.83,1.17-3h.4a4.88,4.88,0,0,1,1.1.29l.23,0,.2-.11a3.41,3.41,0,0,0,.57-1.76c.38-3.67,3.82-4.55,6.12-6.36a2.34,2.34,0,0,1,1.32-.44h.51a5.78,5.78,0,0,1,2.12.65c1.4.73,1.76,3.3,2.69,3.07l.78-.14a6.06,6.06,0,0,1,.73,0l.72.05a13.19,13.19,0,0,1,2.25.53l-.13-.75c-.2-1.92.9-3.28,1.68-5,1.61-3.5,3.75-3.88,6.78-3.77h.22c.15,0,.3,0,.34-.11a3,3,0,0,1,2.52-1.79h.46c1.24.1,2.55.77,3.82.86,1.77.12,3.52.58,5.33.6l1.09-.05Zm40.12,113.82-.24,3.73c-.13,2.49-1.85,4.2-3.57,5.36a1.7,1.7,0,0,1-.42.22l-.42.1h-.42A3.7,3.7,0,0,1,568,425.8c-1.42-3.46-2.52-7-3.89-11a20,20,0,0,0,5.52,1l.63,0c1.3-.08,3-.35,5.69-.8-.17,2.51-.37,5-.51,7.48ZM555,91.8a19.53,19.53,0,0,1,5.76,4.31,5.32,5.32,0,0,0,3.34,1.83h.59a4.82,4.82,0,0,0,1.26-.31l.67-.3h0c0,.27,0,.55,0,.83a6.87,6.87,0,0,0,0,.79,2.37,2.37,0,0,0,2.07,2.23c-3.65,1.32-6.85,2.49-8.1,6.16a.94.94,0,0,1-.68.71l-.3,0a5.26,5.26,0,0,1-1.3-.32c-1.61-.5-3.21-1-4.95-1.59l-1.78-.58c.12,1.68,1.34,3.71-1.48,4l-.33,0c-.48,0-.72-.13-.91-.75a7.14,7.14,0,0,1,.55-6.11c.25-.43.52-1,1-1.08h.29a5.32,5.32,0,0,0,1.08.16l.42,0c1.42-.23,1.45-1.74,1.64-3.24C554.16,96.37,554.62,94.22,555,91.8Zm-2.66,19.5.23,0c.52.19,1,1,1.64,2.31,2,4.11,2.35,7.62-1.22,11.33-1.26,1.31-.89,4.24-1.07,6.44a10.86,10.86,0,0,1-1,4.21c-.26.51-.45,1.21-.86,1.4l-.19,0c-.27,0-.63-.17-1.12-.68a.78.78,0,0,0-.5-.28l-.23,0c-.35.14-.62.63-.85.92a4.25,4.25,0,0,1-2.62,1.66l-.6,0a3.92,3.92,0,0,1-1.23-.23,7.09,7.09,0,0,0-2-.44l-.58,0c-1.88.18-3.07,1.59-4,3.68a4.64,4.64,0,0,1-1,1.77l-.47.29c-1.39-3.18-1.82-4.18-3.7-4.18l-.45,0c-.81.06-1.86.25-3.29.51s-2.71.44-4.06.65l-3.6.53-1,.14c2.6-2.76,3.66-6.18,7.44-6.4h.85c2.08.13,4.18-1.28,6.28.19a.82.82,0,0,0,.27.13h.22c.33-.11.5-.65.71-1,.88-1.39,1.83-2.75,2.69-4.15.6-1,1.2-1.78,2.07-1.77l.35,0a3.22,3.22,0,0,1,1.21.65,1.33,1.33,0,0,0,.65.31h.29a2.24,2.24,0,0,0,1.22-1q3-4.16,6-8.3a3.83,3.83,0,0,0,.41-3.33,3.83,3.83,0,0,1,.87-4C551.16,111.8,551.83,111.27,552.38,111.3Zm-23.64,30,.24.05c.29.12.44.44.45,1-.18,1-.41,1.92-1.61,2.11a2.7,2.7,0,0,0-2,.91c-.21.29-.37.82-.67,1l-.21.06a.87.87,0,0,1-.56-.22,4.51,4.51,0,0,1-1.56-2c-.32-1,.82-1.12,1.48-1.38,1.26-.5,2.56-.92,3.84-1.37A1.65,1.65,0,0,1,528.74,141.32Zm-11,1.13a2.53,2.53,0,0,1,1.27.62,6.29,6.29,0,0,1-.47,9.7,2.78,2.78,0,0,1-1.08.49l-.34,0c-.64,0-1.14-.54-1.24-1.69-.08-.76,0-1.54,0-2.54-.68-.38,1-2.71-.5-2.66l-.37,0a3.78,3.78,0,0,0-.47.13l-.6.22-.28-.67-.07-.33c-.07-1.73,1.43-2.13,2.55-2.85a2.8,2.8,0,0,1,1.22-.48Zm-29.85,57.61.14.88c.59,3.81.84,7.36-2.25,10.42-1.47,1.47.61,2.53,1,3.78.2.6.48.75.8.72l.25-.05a5.11,5.11,0,0,1,1.05-.33c.42,0,.85-.06,1.25,0l.4,0c1.17.11,2.09.66,2.13,2.55,0,.85,1.11,1.37,1.26,2.4V221a1.73,1.73,0,0,1-1.76-1.1,6,6,0,0,0-5-2.78h-.55l-.45.06c-.26.06-.5.1-.72.13l-.63,0c-2.74,0-2.73-2.81-3.74-4.28s-2-3.5-.18-5.56c.71-.81.58-2.4.66-3.65.12-1.88.33-3.57,2.07-3.41l.47.08a6.63,6.63,0,0,1,1.15.42,1.33,1.33,0,0,0,.42.12l.39,0C486.73,200.85,487.26,200.27,487.88,200.06Zm-1.13,23.35.23.28c1.17,1.1,4.13-.33,3.49,2.91l.08,0v.07l.18,0a1.34,1.34,0,0,1,1,.68l.15.37c.6,1.81.53,3.32-.63,4.65l-.49.49c-2.16-.88-2.34-2.35-1.61-4.08l.19-.41v-.08l-.53.06c-.35,0-.66.06-.93.07h-.38C485.85,228.39,486,227.48,486.75,223.41Zm12.37,7.79c1.1,2.29,2.14,4.3,3,6.38s.34,2.15-1.59,3.24c-.85.47-1.16,1.9-1.64,3.17l-.26.62a4.36,4.36,0,0,0-2-1.22l-.79-.3c-1.57-.62-2.88-1.42-1.53-4.21l.33-.63-.58.12-.57,0c-1.35,0-2.69-.4-3.94-.34l-.52.06a3.25,3.25,0,0,0-2,1.17l-.44.61c.48-2.42,1.51-4.29,4-5,.45-.13,1.17-.48,1.31-.33.52.59.73,1.35,1.55,1.27l.39-.09a2.5,2.5,0,0,0,.48-.22C497.73,233.81,498.31,233.52,499.12,231.2ZM492.14,49c4.66,2.75,10.62,4.1,11.44,10.91a35.06,35.06,0,0,0,2,6.67c.66,2,.47,4.47,4.31,3.68,2.81-.57,7,3.61,7.84,6.57,1.08,3.69,2.16,4.21,5.71,2.76,1.72-.7,3.44-1.42,5.17-2.09.78-.3,1.8-1.18,2.36-.46a2.88,2.88,0,0,1,.2,2.74c-2.84,3.1-2.08,7.56-4.44,10.83-1,1.41-1.47,2.8-3.79,1.65-1.67-.83-4.37,2.08-4.11,4.41a8.68,8.68,0,0,1-1.82,7l-.62.65c.53,1.29-.26,2.18-1,3.13-.94,1.29-2.2,2.45-1.65,4.34.2.7-.36,1.25-1,1.62s-1,.62-1.46,1c-1.72,1.24-4,2.16-5,3.83-.72,1.16-.12,1.91.68,2.64l.71.62a3.7,3.7,0,0,1,1.09,1.43l.09.46c4.18,2.83,4.11,7.17,3.88,11.37-.12,2.36-1.8,3.69-4.4,3.49s-4.28,1.62-6.57,2.1c-.39-1,.27-1.76.63-2.44,1.11-2.07,1.32-3.9-.41-5.79-.7-.75-1.36-1.49.66-2s-.1-2.32.21-3.53c-1-.62-2.24-1.44-3.12-.35s-1.4.36-2-.08c-.79-.56-1.25-1.2-.52-2.15a5.24,5.24,0,0,0,.91-1.49c.61-1.78,2.43-4.1-1.67-4.06-.53,0-.64-.66-.78-1.12-2.92.18-5.61.86-7.6,3.19a4.17,4.17,0,0,1-2.66,1.36l.13.13-.65.39.32-.53-.11-.11c.61-2.18.41-4.62,2.49-6.33.65-.54-.19-1.45-.78-1.94a1.48,1.48,0,0,0-2.33.19c-1.59,2.64-5.33,2.9-6.53,6-.34.9-1.91,1.36-3.13,1.19s-1.5.7-1.85,1.47.17,1.45.81,2a10.9,10.9,0,0,1,3.11,3.36c.73,1.36,2.24,2.21,3.88.67.77-.73,1.63-1.9,2.62-1.67,1.77.4,3.41,1.35,5.32,1.35.11,0,.34.47.29.66a1.65,1.65,0,0,1-1.35,1.34c-4.19.85-6.7,3.64-8.64,7.2-.74,1.36-1,2.27.73,2.88a4.08,4.08,0,0,1,2.74,3.45c.56,2.62,2.58,4.52,3.77,6.82-.78,1.08-1.67-.44-2.57.38a6.61,6.61,0,0,0,.93,1l.55.53c1.27,1.22,2.2,2.48-1.35,3.78,3.15,2.54,3.51,5.44.66,8.82-1.7,2-2.42,4.93-5.25,6-.19.07-.34.49-.36.75-.43,5.92-6.28,7.47-9.4,11.2-2,2.34-5.31,2.73-8.13,2.88a8.37,8.37,0,0,0-5.95,2.3c-1.06,1-3.09,1.1-4.72,1.39-2.51.45-4.68,1.07-3.83,4.28a1.18,1.18,0,0,1-1.67-1c-.26-3.39-2.25-3.51-4.37-3.42l-1,.05c-.33,0-.65,0-1,0-1.9,1.81-3.86,3.55-5.68,5.44-2.09,2.16-1.7,4.13-.31,6.58,2.07,3.64,5.26,6.07,8.19,8.81a7.21,7.21,0,0,1,2.18,5.22,75.74,75.74,0,0,1-.24,7.82c-.08,1.44-4.79,5.39-6.62,5.35-.94,0-1.66,0-1.78.89-.42,3.27-3.44,3.78-5.65,5.7-.55-2.52.23-4.83-1-6.81a7.86,7.86,0,0,1-6-2.84v0c-2.22-1.53-2.81-4.9-6.37-5.1-.78-.05-.71-3.4-3-2.15-1.44.8-.29,2.73-.8,4.06a14,14,0,0,1-.78,1.55l-.08.22-.12.21c-.51,1.24-1.12,2.45-1.5,3.72s-.72,3.73.39,4c3.13.64,2.81,3.1,3.43,5s1.24,3.08,3.3,3.47c1.3.25,2.05,1.31,2.8,2.32l.37.5c3.28,1.85,5.11,4.41,4.17,8.29-.41,1.67.51,2.85,1.5,3.89s.7,1.94-.25,2.92-1.71.8-2.78.11l-.52-.39-1-.86a3.28,3.28,0,0,0-1.72-.86h-.61l-.09-.53c-.36-1.19-1.75-1.6-2.42-2.61-2.27-3.38-2.67-7.17-3.21-11-2.08-2.09-3.09-5.12-6-6.5-1-.45-.52-1.29-.39-2,.28-1.6.55-3.2.83-4.8a1.54,1.54,0,0,1-.36-1.86c1.28-3.72.36-7.21-.92-10.7-.87-2.36-1.78-4.71-1.62-7.3a3.5,3.5,0,0,0-1.43-2.75c-.82-.74-1.45-2-2.41.08-.63,1.39-2.35,2.05-3.75,2.63-2.38,1-4.3-.56-3.63-2.94s0-4.25-.95-6.33a24.23,24.23,0,0,0-6.08-8.49c-1.44-1.07-1.49-2.83-2-4.3a2.93,2.93,0,0,0-2.39-2.16c-1.5-.28-1.22,1.15-1.52,1.93-1.11,2.8-3.65,2.23-5.85,2.5a8.28,8.28,0,0,1-1.3.51c-1.37-2.31-2.67-.35-4,0a1.29,1.29,0,0,0-1.15,1.61,4.55,4.55,0,0,1-3.17,4.7c-4,1.32-6.81,4.09-9.48,7l-1.78,1.91c-.29.32-.59.63-.89.94-1.84,1.88-4.1,2.88-6.17,4.2-1.71,1.09-2.42,1.94-1.86,3.85.89,3,1.26,6-.78,8.86a2.47,2.47,0,0,0-.39,1.67c.66,3.91-2.32,5.9-4.44,8.33-.25.28-.82.42-.89.7-.35,1.42-1.32,3.06-2.47,2.77-1.72-.45-2.88-2.26-3.64-3.93a39.31,39.31,0,0,1-1.44-4.7c-.54-1.75-1-3.47-2.71-4.65-1.46-1-1.4-2.92-1.84-4.46a23.69,23.69,0,0,0-2.9-7.24c-3.41-5.07-3.5-11-4.07-16.69-.23-2.31-.22-4.63-.29-6.94,0-.46.33-1-.43-1.13s-.9.46-1.07,1.05c-.41,1.38-.12,3-2.15,3.71-2.53.92-4.4,1-5.8-1.65a18,18,0,0,0-2.36-2.87c.62-1.48,2.58-.25,3.38-2.22-3.18.77-5.36-.27-6.72-2.86-3-.24-2.84-3.35-4.46-4.89-1.07-1-1.81-1.79-3.37-1.63-3.6.36-7.22.61-10.84.94-1.07.09-2.72,1-2.95-.45-.2-1.31-.24-3.2,1.33-4.2,1.31-.83,2.71-1.52,4.42-2.46-1.78-.85-2.85-1.93-2.45-3.82a1.18,1.18,0,0,0-.86-1.38c-3.12-.78-3.65-3.43-4.47-5.9a1.18,1.18,0,0,1,.14-1.65l.49-.49a2,2,0,0,0,.4-.53c.83-1.7,1.4-3.26-.81-4.41-.4-.21-.9-.64-.95-1-.59-4.76-2.53-9.64,1.05-14.1,2.89.11,6.28,2.38,8.15-2,.24-.54,1.34-.72,2.05-1s1.57-.66,1.7-1.49c.65-4.15,3.63-3.88,6.69-3.52l1.15.42a3.74,3.74,0,0,0,3,0c3,.21,5.43-1.23,7.89-2.52,1.22-.64,1.63-3.15,3-2.68s1.18,2.67,1.69,4.11a11,11,0,0,1,.38,1.1c.33,1.41,1.06,1.69,2.27.85a11.75,11.75,0,0,1,7.88-1.85l1.06.1c-.2-1.45.18-3.91-1.3-4-3.36-.16-3.12-2.31-3.44-4.38a6.06,6.06,0,0,1,4.89-4.44c2.74-.44,5.55-.27,7.8-2.38.5-.47,2,.28,2.41-.59,1.5-3.21,5.08-3.77,7.4-5.91,2.92-2.83,1.86-6,.6-9-1-2.47-.73-3.86,2.35-3.59,3.46.3,4.86-1.26,5.42-4.67,1-6,1.23-6,7.42-5.45,2.36.22,3.16-.59,3.13-2.78,0-1,0-2.92.6-2.93,3-.06,3.05-2.88,4.54-4.29.38.94,1.18.69,1.91.66a4.23,4.23,0,0,1,.91.7c1.57,2.16,2.6,4.9,6,4.93.69,0,1.18.64,1.41,1.35.76,2.4,2.55,5,2.11,7.16-1,4.8,2.23,4.82,5.12,5.59a18.69,18.69,0,0,0,2.28.6c5.54.72,9.69,3.22,11.76,8.57a2.26,2.26,0,0,0,3,1.5c7.46-1.85,14.31-.31,20.69,3.77.65.41,1.45.62,2.09,1.05,1.49,1,2.8.71,4.39,0,3.45-1.48,6.61-4.16,10.73-3.39A7.35,7.35,0,0,0,448.4,103a20.53,20.53,0,0,1,2.48-2.06c1.21-.93,2.27-1.65,1-3.49-1-1.44,1.31-4.88,2.71-4.2,4.26,2.07,7.57-.59,9.63-2.91,3.76-4.22,7.69-6.19,13.23-5,.11,0,.28-.21.43-.32-2.89-6.57-2.89-6.57-9.67-5.18a6,6,0,0,0-.86.17c-1.3.51-1.88,0-1.87-1.29,0-.56,0-1.12-.05-1.69l-.12-1.71c-.13-2.27-.07-4.52,1.65-6.53a4.14,4.14,0,0,1,3.09.43c4.41,1.86,7.17.56,8.61-3.91.84-2.62,1.08-5.51,3.81-7.27,1-.63.62-2,0-2.91-1.28-1.68-.94-3.64,1.15-4.33,2.51-.82,5.13-1.27,7.71-1.86A1.32,1.32,0,0,1,492.14,49Zm15,207.66c.08-.06.15,0,.2.31l.08.15.11.11-.21-.1-.16.26a1.46,1.46,0,0,0,.25,1.47l.67-.13a3.25,3.25,0,0,1,.51,0l.38,0c.63.15.54.7.32,1.33l-.25.64c-.28.74-.47,1.43.37,1.5a4,4,0,0,1-.09.5c-1.93-.09-1.94.75-1.8,1.69l.1.64a1.74,1.74,0,0,1-.15,1.14l-.21.23a38.76,38.76,0,0,1-2.27-6.49c-.17-1-.22-3.06,1.83-2.9l.36.06-.1,0c-.06,0-.09-.07-.08-.09l0-.06,0,0C507.08,256.63,507.13,256.57,507.18,256.62Zm-4.58,17.61.42,0a2.1,2.1,0,0,1,1.47,1.14,1,1,0,0,1-.68,1.59l-.58.08c-1.45,0-2-1.32-3-2.36A11.16,11.16,0,0,1,502.6,274.23Zm7.45-1.22h.52c.86,0,1.75.24,2.57.31,1.87.16,3.2,1.26,3.54,3.68l.08.77c-2.5-2.55-5.47-2.32-8.27-2.7l-.72-.12-.06.15a.34.34,0,0,1-.37.23h0l-.16-.08c-.06,0,.12-.43.19-.65A3.11,3.11,0,0,1,510.05,273Zm-40.33-33.3c1.55,3.49,4.18,5.42,8.22,6.1-2,1.41-4.17,1.82-5.34,3.42l-.39.65c-1.76,4.55,1.22,7.27,4.36,10.57l.59.63a6.8,6.8,0,0,0-2.05-.31l-.53,0c-2,.33-2.35,2.25-2.84,4.06-.34,1.27-.42,2.61-1.77,3.48-1.09.7-3.22,1.14-1.41,3.26.4.47-.44,1-.84,1.35-1.27,1.2-2.55,2.39-3.92,3.66l-1.41,1.3c-.57-2.25-2.23-2.08-4-2.4a3.56,3.56,0,0,0-.47,0h-.48c-1,.06-2.05.39-3.05.47l-.5,0a3,3,0,0,1-2.87-2.2s-.15-.08-.32-.08l-.28,0a1.66,1.66,0,0,0-.53.11,4.73,4.73,0,0,1-1.06.31l-.43,0c-1.5,0-1.89-1.37-2-3-.17-2.13-.78-3.94-2.86-5a1.91,1.91,0,0,1-1-2.42c.44-1.77.64-3.6.94-5.41.23-1.37.86-1.66,1.83-1.08l.38.26c.66.14,1.33.24,2,.43a4.8,4.8,0,0,0,1.16.24h.34c.65-.07,1.13-.48,1.28-1.58a2.16,2.16,0,0,1,2.29-2.14l.52,0h.66l.58-.09c1.65-.4,2.39-2,3.3-3.36l.21-.35.39-.73a1.66,1.66,0,0,1,1.47-1.08l.38,0a3.75,3.75,0,0,1,.95.37l.33.11.33,0c.8-.16,1.63-1.16,2.22-2C465.77,244.87,467.62,242.51,469.72,239.71Zm26.72,19.4c-.71,1.83-1.42,3.4-3.24,3.74l-.58.07a6.47,6.47,0,0,1-1.39-.12,28.36,28.36,0,0,0-5.38-.65l-1.1.05a11.17,11.17,0,0,0-2.23.41c-2.29.65-2.15,2.44-1.79,3.61a2.8,2.8,0,0,0,2.6,2l.52-.06.54-.16c1.46-.56,2.91-1.16,4.31-1.85a3.18,3.18,0,0,1,1.21-.37l.4,0a2.77,2.77,0,0,1,1.32.69c-2.6.07-3,3-5.15,3.83l-.7.16H485c2.83,2.18,3.13,5.48,5,7.88.13.73.26,1.44.37,2.17s.68,1.91-.21,2.18l-.4.06c-.72,0-2.71-.36-2-2.29a1.3,1.3,0,0,0,0-.56l0-.29c-.34.12-.87.39-1.25.5l-.26,0c-.15,0-.25-.05-.25-.21a3.89,3.89,0,0,0-1.21-2.56l-.78-.89a3.41,3.41,0,0,1-1-2.8l.15-.63c-2.25,1.14-2.95,2.47-2.43,4.54a33.31,33.31,0,0,1,.39,3.75c.15,1.12-.19,1.55-1.15,1.65l-.45,0c-1.24,0-1.51-.45-1.45-1.5a18,18,0,0,0,0-3.2c-.14-1,.82-2.52-1.41-2.91-.51-.1-1.06-2.48-.38-4,1.4-3.17,3.1-6.16,4-9.6.52-1.93,3-2.59,5.34-2.5l.61,0a20.94,20.94,0,0,1,3.73.84,10.87,10.87,0,0,0,3.11.51l.59-.06A4.33,4.33,0,0,0,496.44,259.11ZM396.19,244.66c3.23.75,6.73.49,9.37,3.17s5.17,5,7.79,7.5c1.33,1.25,2.74,2.26,4.54,1.39l.52-.31-.08.34a1.73,1.73,0,0,0,1.17,2.33,32.74,32.74,0,0,1,3.86,2.09c.62.34,1.29.69.88,1.54-1.68,3.46.86,5.17,3.06,6.88.59.47.94,1.56,1.91,1.47l.46-.12v.46c.21,1.32,1.62,1.76,2.38,2.69v.06c.78,2.81-.1,5.59-.17,8.38l0,1.14-.88.09a8.36,8.36,0,0,1-7-3.24c-3.71-4.19-8.4-7.58-10.43-13.09a3.75,3.75,0,0,0-1.63-1.62c-2.59-1.51-4.05-3.51-3.41-6.62.35-1.73-1.07-1.87-2.14-2.09-1.94-.4-3.1-1.32-3.36-3.37s-1.94-3.08-3.1-4.48S397.38,246.36,396.19,244.66Zm36.75,39a11,11,0,0,1,7.26,2.47c2.89,2.18,5.32,1.74,8.27.09,1.93-1.08,5,0,5.69,1.3,1.26,2.5,3.35,1.76,5,2.47a13.14,13.14,0,0,0,1.36.39c1.09,1.66,2.9.21,4.21,1,.39,3.26-1.69,2-3.26,1.7h.07c.47-.8-.23-.56-.58-.63.08.25,0,.65.32.67l.18,0-.15.36c-.39.74-1,.71-1.75.15a6.76,6.76,0,0,0-6.84-1.24,1.63,1.63,0,0,1-1.16.08,20.79,20.79,0,0,0-7.45-2.15l-3.88-.48a21.23,21.23,0,0,1-7.5-2.12c-1.77-1-2.31-1.4-.8-2.9.17-.16.68-.55.31-.9l-.21-.12Zm56.7,7.37c.52,1.43-.19,2-1.44,2.22s-2.46.64-3.7.81l-.94.08a7,7,0,0,1-1.93-.16,3.44,3.44,0,0,0-.72,0h-.37l-.35,0a1.13,1.13,0,0,1-.86-.68.62.62,0,0,1,.23-.79l.56-.3.82-.55a1.62,1.62,0,0,1,.88-.29l.39.08a1.85,1.85,0,0,1,.42.24,3.61,3.61,0,0,0,2.48.64l.64,0a6.57,6.57,0,0,1,1.26.06h.51l.4-.14c.47-.26.75-.78,1.28-1Zm-15.24.37c.94.33,2.54.16,2.49,1.51s-1.58.67-2.4.86c-2.38.6-4.88,1.31-7-1,1.68,1.25,2.71-1.56,4.4-.55l.93-.07-.36-.61C473.07,290.91,473.81,291.16,474.4,291.38Zm29.8,1.07c-1.62,1.87-3.86,2.52-6,3.33l-.92.37c-.81.92-1.3,2.23-2.71,2.42-.38.05-.85.27-1.27.33H493a.77.77,0,0,1-.67-.61c-.29-.87-.55-2.13,1-2.53a26.63,26.63,0,0,0,3-1.15C498.34,291.84,501.45,292.88,504.2,292.45Zm-25,3.16.55,0a3.72,3.72,0,0,1,2,1.06c.43.39,1.47.55.82,1.46a1.64,1.64,0,0,1-1,.74h-.29a1.57,1.57,0,0,1-.9-.52,10.92,10.92,0,0,0-3.62-2.12A5.52,5.52,0,0,1,479.24,295.61Zm43.19-30.06.6.06c1.39.2,2.73.87,4.08,1.11,1.66.3,1.68,2,1.45,3.54-.1.61,3.09,5.15,3.6,5.05l.42-.11a2.16,2.16,0,0,0,1.06-.72c1.41-2.12,4-2.8,5.64-4.73a2.43,2.43,0,0,1,1.9-1l.45.06.48.15c3.22,1.36,6.55,2.49,9.83,3.72,5.24,1.95,11.08,2.58,15.21,7,.74.79,1.36,1.47,1.25,2.47l-.12.53.89.05a22.41,22.41,0,0,1,3.29,1.13c2.82.91,2.86,1.31,1,3.54-.73.87-.25,1.66.48,2.26,3.72,3,6.37,7.3,11,8.92.28.78-.14,1-.46,1.12-1.78.68-9.78-1.48-11-2.95-2.22-2.68-4.18-5.62-7.91-6.59-1.86-.49-5.86,1.11-5.75,2.87.13,2-.81,1.77-2,1.76-1.8,0-3.63,1.11-5.4-.14-2.61-1.89-3.69-2.67-5.56-2.82l-.59,0h-.65c-1.15,0-2.61.22-4.68.48a.82.82,0,0,1-.13-.27c-.09-.38.25-.59.52-.88,1.11-1.19,3.55-1.75,2.78-3.9-.84-2.35-1.49-5.06-4.81-5.58a41,41,0,0,1-5.32-1.6c-2.64-.79-5.31-1.54-6.35-4.86l-.21-.82c-1,1.37-1.74,2.39-2.45,3.36l-.52.72c-3.37-4.35-3.55-4.62,0-6.57l.63-.35h-1.57c-1.8,0-3.46-.23-4.82-1.68s-.76-1.95.67-3.14A4.42,4.42,0,0,1,522.43,265.55Z"/></clipPath><clipPath id="clip-path-2"><rect class="cls-2" x="213.28" y="-4.09" width="488.4" height="488.4"/></clipPath></defs><rect class="cls-3" width="912" height="480"/><g class="cls-4"><g class="cls-5"><rect class="cls-6" x="270.64" y="42.94" width="329.01" height="391.07"/></g></g></svg>