<?xml version="1.0" encoding="UTF-8"?>
<svg width="38px" height="38px" viewBox="0 0 38 38" version="1.1" xmlns="http://www.w3.org/2000/svg" xmlns:xlink="http://www.w3.org/1999/xlink">
    <title>Icon_Science_Technology</title>
    <defs>
        <circle id="path-1" cx="19" cy="19" r="19"></circle>
    </defs>
    <g id="Icon_Science_Technology" stroke="none" stroke-width="1" fill="none" fill-rule="evenodd">
        <g id="Circle-1">
            <mask id="mask-2" fill="white">
                <use xlink:href="#path-1"></use>
            </mask>
            <use id="Mask" fill="#D8D8D8" xlink:href="#path-1"></use>
            <g id="Group" mask="url(#mask-2)">
                <g transform="translate(-1.753846, -1.753846)" id="Color">
                    <rect id="Rectangle" fill="#FBB040" x="0" y="0" width="204.615385" height="204.615385"></rect>
                </g>
            </g>
            <path d="M10.7836027,28.3498903 L13.3511458,23.3743752 L24.8725996,23.3743752 L27.4501896,28.3317134 L10.7836027,28.3498903 Z M17.2699396,15.7764283 L17.4482181,15.4211524 L17.4482181,8.55193411 L20.7805258,8.51227541 L20.7805258,15.1137974 L20.7805258,15.5136893 L20.9654688,15.8689652 L24.0078658,21.7219292 L14.1975519,21.7219292 L17.2699396,15.7764283 Z M28.9330665,27.5914176 L22.4466796,15.112145 L22.4466796,8.50236073 L24.1128334,8.50236073 L24.1128334,6.84991468 L22.4366827,6.84991468 L22.4366827,6.84 L21.6769165,6.84826223 L14.1159104,6.84826223 L14.1159104,8.49244606 L15.7820642,8.49244606 L15.7820642,15.0229129 C11.4567288,23.4052209 9.29406114,27.5963749 9.29406114,27.5963749 C9.16793329,27.8480424 9.10863488,28.1276363 9.12179749,28.4083869 C9.13496011,28.6893027 9.22013389,28.9621216 9.36925466,29.2010653 C9.51837543,29.4401742 9.72654469,29.6374763 9.97403519,29.7746293 C10.2215257,29.9116171 10.5001732,29.9836637 10.7836193,29.9841594 C10.7836193,29.9841594 27.4452078,29.9841594 27.4452078,29.9841594 C27.7291204,29.983829 28.0083678,29.9116171 28.2562915,29.7741336 C28.5042152,29.6368153 28.7124844,29.4388522 28.8616052,29.1990823 C29.0107259,28.9593124 29.0955332,28.6858326 29.1080293,28.404421 C29.1205255,28.1231747 29.0602107,27.8432503 28.9330832,27.5914176 C28.9330832,27.5914176 28.9330776,27.5914176 28.9330665,27.5914176 Z" id="Vector" fill="#FFFFFF" mask="url(#mask-2)"></path>
        </g>
    </g>
</svg>