<?xml version="1.0" encoding="UTF-8"?>
<svg width="38px" height="38px" viewBox="0 0 38 38" version="1.1" xmlns="http://www.w3.org/2000/svg" xmlns:xlink="http://www.w3.org/1999/xlink">
    <title>Icon_More_Information</title>
    <defs>
        <circle id="path-1" cx="19" cy="19" r="19"></circle>
    </defs>
    <g id="Icon_More_Information" stroke="none" stroke-width="1" fill="none" fill-rule="evenodd">
        <g id="Circle-3">
            <mask id="mask-2" fill="white">
                <use xlink:href="#path-1"></use>
            </mask>
            <use id="Mask" fill="#D8D8D8" xlink:href="#path-1"></use>
            <g id="Group" mask="url(#mask-2)">
                <g transform="translate(-2.133846, -1.753846)" id="Color">
                    <rect id="Rectangle" fill="#6C3688" x="0" y="0" width="204.615385" height="204.615385"></rect>
                </g>
            </g>
            <path d="M18.9707692,8.74 C19.6165176,8.74 20.14,9.26348245 20.14,9.90923077 L20.139,17.801 L28.0323077,17.8015385 C28.678056,17.8015385 29.2015385,18.3250209 29.2015385,18.9707692 C29.2015385,19.6165176 28.678056,20.14 28.0323077,20.14 L20.139,20.14 L20.14,28.0323077 C20.14,28.678056 19.6165176,29.2015385 18.9707692,29.2015385 C18.3250209,29.2015385 17.8015385,28.678056 17.8015385,28.0323077 L17.801,20.139 L9.90923077,20.14 C9.26348245,20.14 8.74,19.6165176 8.74,18.9707692 C8.74,18.3250209 9.26348245,17.8015385 9.90923077,17.8015385 L17.801,17.801 L17.8015385,9.90923077 C17.8015385,9.26348245 18.3250209,8.74 18.9707692,8.74 Z" id="Combined-Shape" fill="#FFFFFF"></path>
        </g>
    </g>
</svg>