<?xml version="1.0" encoding="UTF-8"?>
<svg width="38px" height="38px" viewBox="0 0 38 38" version="1.1" xmlns="http://www.w3.org/2000/svg" xmlns:xlink="http://www.w3.org/1999/xlink">
    <title>Icon_Who_We_Are</title>
    <defs>
        <circle id="path-1" cx="19" cy="19" r="19"></circle>
    </defs>
    <g id="Icon_Who_We_Are" stroke="none" stroke-width="1" fill="none" fill-rule="evenodd">
        <g id="Circle-2">
            <mask id="mask-2" fill="white">
                <use xlink:href="#path-1"></use>
            </mask>
            <use id="Mask" fill="#D8D8D8" xlink:href="#path-1"></use>
            <g id="Group" mask="url(#mask-2)">
                <g transform="translate(-0.380000, -2.338462)" id="Color">
                    <rect id="Rectangle" fill="#F15A29" x="0" y="0" width="204.615385" height="204.615385"></rect>
                </g>
            </g>
            <path d="M12.2809006,12.222031 C12.0572146,12.222031 11.842688,12.1324085 11.6845172,11.972871 C11.5263464,11.8133335 11.4375028,11.5969742 11.4375028,11.3713617 C11.4375028,11.1457322 11.5263464,10.9293729 11.6845172,10.7698354 C11.842688,10.6102979 12.0572146,10.5206754 12.2809006,10.5206754 C12.5032202,10.5250398 12.7152504,10.6160495 12.8724935,10.7746566 C13.0297366,10.9332468 13.1199802,11.1471025 13.1242984,11.3713617 C13.1242984,11.5969742 13.035438,11.8133335 12.8772671,11.972871 C12.7190963,12.1324085 12.5045697,12.222031 12.2809006,12.222031 Z M12.2809006,8.81933673 C11.7804621,8.81933673 11.2912745,8.96901204 10.8751927,9.24943334 C10.4591108,9.52985464 10.1348075,9.9284362 9.94330563,10.3947506 C9.75180374,10.8610819 9.70168904,11.3742036 9.79932076,11.8692419 C9.89695249,12.364297 10.1379281,12.8190237 10.4917841,13.1759236 C10.8456232,13.5328403 11.2964699,13.7758935 11.7872768,13.8743632 C12.2780836,13.972833 12.7868212,13.9222871 13.249155,13.7291369 C13.7114887,13.5359867 14.1066543,13.2088765 14.384672,12.7892003 C14.6626896,12.3695241 14.8110939,11.8761099 14.8110939,11.3713786 C14.8110939,10.6945241 14.5445127,10.0454123 14.0700171,9.56681672 C13.5955047,9.08822112 12.9519416,8.81933673 12.2809006,8.81933673 C12.2809006,8.81933673 12.2809006,8.81933673 12.2809006,8.81933673 Z M27.1415522,28.3508145 L24.0884523,28.3508145 L24.0884523,26.6495435 C26.112607,26.6495435 27.1246843,26.6495435 27.1246843,26.6495435 C27.2103735,26.6470061 27.2930265,26.6172334 27.3608357,26.5644546 C27.3944029,26.5312987 27.4207169,26.4915454 27.4380909,26.447563 C27.4556336,26.4035807 27.4637302,26.3565534 27.4620434,26.3091878 C27.4620434,26.3091878 27.4620434,24.7155946 27.4620434,21.5284082 L29.1488389,21.5284082 C29.1488389,19.0104188 29.1488389,17.7514241 29.1488389,17.7514241 C29.1493449,17.4079558 29.0160881,17.0780205 28.7777439,16.8326836 C28.5341706,16.5905608 28.2086191,16.4507138 27.8668743,16.441376 C27.8668743,16.441376 25.6909081,16.441376 25.6909081,16.441376 C25.4969266,15.8177063 25.1814958,15.2393046 24.7631706,14.7400204 C24.7631706,14.7400204 27.8668743,14.7400204 27.8668743,14.7400204 C28.6522463,14.7459411 29.4038824,15.0637982 29.9585007,15.6247253 C30.5156493,16.1904737 30.830574,16.954041 30.8356364,17.7514241 C30.8356364,17.7514241 30.8356364,21.4433531 30.8356364,21.4433531 C30.8363091,21.9044741 30.6618945,22.3483744 30.3481505,22.6837906 C30.0345752,23.0192067 29.6052858,23.2206797 29.1488389,23.2467815 C29.1488389,23.2467815 29.1488389,26.3091878 29.1488389,26.3091878 C29.1488389,26.8478024 28.9379895,27.3644258 28.5620027,27.7469031 C28.186016,28.1292112 27.675423,28.3464163 27.1415522,28.3508145 C27.1415522,28.3508145 27.1415522,28.3508145 27.1415522,28.3508145 Z M22.4016906,23.2127629 L20.714895,23.2127629 C20.714895,26.9783736 20.714895,28.8611789 20.714895,28.8611789 C20.71363,28.9510044 20.6772458,29.0366008 20.6136873,29.0993603 C20.5849106,29.1338695 20.548577,29.1609355 20.507571,29.1786976 C20.4665819,29.1962906 20.4220505,29.2042412 20.3775359,29.2015346 C20.3775359,29.2015346 17.6617952,29.2015346 17.6617952,29.2015346 C17.5736432,29.1973056 17.4901975,29.1602589 17.4278029,29.0973303 C17.3654083,29.0342326 17.328535,28.9501586 17.3244361,28.8611789 C17.3244361,28.8611789 17.3244361,26.9783736 17.3244361,23.2127629 L15.6545072,23.2127629 C15.6545072,19.5718703 15.6545072,17.7514241 15.6545072,17.7514241 C15.6540193,17.4079558 15.7872762,17.0780205 16.0256035,16.8326836 C16.2691093,16.5905608 16.5946608,16.4507138 16.9364731,16.441376 C16.9364731,16.441376 21.119726,16.441376 21.119726,16.441376 C21.4622804,16.4472291 21.7890633,16.5876173 22.0305956,16.8326836 C22.1509147,16.9525017 22.2458475,17.095698 22.3096421,17.2536285 C22.3734367,17.4115589 22.4047437,17.5809079 22.4016906,17.7514241 C22.4016906,17.7514241 22.4016906,19.5718703 22.4016906,23.2127629 Z M23.2282204,15.6247253 C22.6694019,15.0596537 21.9110186,14.7414583 21.119726,14.7400204 C21.119726,14.7400204 16.9364731,14.7400204 16.9364731,14.7400204 C16.1510336,14.7459411 15.3995325,15.0637982 14.8448466,15.6247253 C14.2876981,16.1904737 13.9727734,16.954041 13.9676888,17.7514241 C13.9676888,17.7514241 13.9676888,23.1276909 13.9676888,23.1276909 C13.9653177,23.5899284 14.1406601,24.0350975 14.4568837,24.3697355 C14.6087965,24.5397441 14.7931632,24.6771044 14.9989523,24.7735272 C15.2047413,24.8699501 15.427702,24.9235747 15.6545085,24.931187 C15.6545085,24.931187 15.6545085,28.8611789 15.6545085,28.8611789 C15.6529229,29.1298096 15.7043027,29.3959028 15.8056622,29.6440647 C15.9070218,29.8923958 16.0563201,30.1178899 16.2448869,30.3073523 C16.5482065,30.5922226 16.9309067,30.776441 17.341304,30.8348022 C17.341304,30.8348022 20.714895,30.8348022 20.714895,30.8348022 C21.1888171,30.7757643 21.6240104,30.5411354 21.9357976,30.1762511 C22.2476018,29.811536 22.4136668,29.3427856 22.4016906,28.8611789 C22.4016906,28.8611789 22.4016906,24.931187 22.4016906,24.931187 C22.6284971,24.9235747 22.8514577,24.8699501 23.0572468,24.7735272 C23.263019,24.6771044 23.4474026,24.5397441 23.5993154,24.3697355 C23.7597465,24.2066624 23.8858007,24.0125988 23.9698706,23.7991491 C24.0539405,23.5856994 24.0943561,23.3572957 24.0884523,23.1276909 C24.0884523,23.1276909 24.0884523,17.7514241 24.0884523,17.7514241 C24.0898018,16.9560879 23.7807134,16.1921822 23.2282204,15.6247253 Z M10.9146131,26.6495435 L13.967713,26.6495435 L13.967713,28.3508145 C11.9323131,28.3508145 10.9146131,28.3508145 10.9146131,28.3508145 C10.3807086,28.3464163 9.87018304,28.1292112 9.49421319,27.7469031 C9.11826021,27.3644258 8.90730956,26.8478024 8.90732643,26.3091878 C8.90732643,26.3091878 8.90732643,23.2467815 8.90732643,23.2467815 C8.68053677,23.2392538 8.45755927,23.185663 8.25178709,23.0891894 C8.04599803,22.9927158 7.86163128,22.8553556 7.70971848,22.68533 C7.54928736,22.5223415 7.42323313,22.328261 7.33916324,22.1148113 C7.25509335,21.9013615 7.2147452,21.6729578 7.22054778,21.4433531 C7.22054778,21.4433531 7.22054778,17.7514241 7.22054778,17.7514241 C7.22560816,16.954041 7.54053289,16.1904737 8.09768145,15.6247253 C8.65236728,15.0637982 9.40386842,14.7459411 10.1893079,14.7400204 C10.1893079,14.7400204 13.2930116,14.7400204 13.2930116,14.7400204 C12.8747201,15.2393046 12.5593231,15.8177063 12.3652741,16.441376 C12.3652741,16.441376 10.1893079,16.441376 10.1893079,16.441376 C9.84751251,16.4507138 9.52194411,16.5905608 9.27843831,16.8326836 C9.04012784,17.0780205 8.90685412,17.4079558 8.9073433,17.7514241 C8.9073433,17.7514241 8.9073433,19.0104188 8.9073433,21.5284082 L10.5941388,21.5284082 C10.5941388,24.7155946 10.5941388,26.3091878 10.5941388,26.3091878 C10.5902761,26.3553693 10.5957581,26.4017199 10.6102477,26.4455331 C10.6247542,26.4895154 10.6479645,26.5299454 10.6784786,26.5644546 C10.7462878,26.6172334 10.8289745,26.6470061 10.91463,26.6495435 C10.91463,26.6495435 10.9146243,26.6495435 10.9146131,26.6495435 Z M25.1789657,11.972871 C25.3370184,12.1324085 25.5515788,12.222031 25.7752479,12.222031 C25.998917,12.222031 26.2134773,12.1324085 26.3716988,11.972871 C26.5297515,11.8133335 26.6186456,11.5969742 26.6186456,11.3713617 C26.61426,11.1471025 26.5240164,10.9332468 26.3668071,10.7746566 C26.2095977,10.6160495 25.9975675,10.5250398 25.7752479,10.5206754 C25.5515788,10.5206754 25.3370184,10.6102979 25.1789657,10.7698354 C25.0207442,10.9293729 24.9318501,11.1457322 24.9318501,11.3713617 C24.9318501,11.5969742 25.0207442,11.8133335 25.1789657,11.972871 Z M24.3696412,9.24941642 C24.7856049,8.96899513 25.2747756,8.81931982 25.7752479,8.81931982 C26.4462551,8.81931982 27.0899363,9.08818729 27.5644319,9.56678289 C28.0389275,10.0453785 28.3054411,10.6944903 28.3054411,11.3713448 C28.3054411,11.876076 28.1570031,12.3694903 27.8790192,12.7891665 C27.6010353,13.2088427 27.2058191,13.5359529 26.7434685,13.7291031 C26.2811178,13.9222533 25.7723803,13.9727991 25.2816915,13.8743294 C24.790834,13.7758597 24.3399536,13.5328065 23.9861482,13.1758897 C23.6322922,12.8189899 23.3913166,12.3642632 23.2936849,11.869208 C23.1960532,11.3741698 23.2461679,10.861048 23.4376698,10.3947167 C23.6291717,9.92840237 23.953475,9.5298208 24.3696412,9.24939951 C24.3696412,9.24939951 24.3696412,9.24941642 24.3696412,9.24941642 Z M19.965165,9.19678985 C19.6877715,9.01091369 19.3616971,8.91161508 19.0280827,8.91161508 C18.5807108,8.91161508 18.1516912,9.0897605 17.8353496,9.40700856 C17.5190248,9.7242397 17.3412871,10.15459 17.3412871,10.6032438 C17.3412871,10.9378142 17.440184,11.2648229 17.6255291,11.5430113 C17.8108742,11.8211996 18.0743347,12.0379818 18.382546,12.1660212 C18.6907742,12.2940437 19.0299044,12.327724 19.357109,12.262444 C19.6843136,12.197181 19.9848837,12.0360534 20.2207989,11.7994791 C20.4566973,11.5629048 20.6173477,11.261372 20.6824411,10.9332298 C20.7475177,10.6050877 20.7141529,10.2649688 20.5864793,9.95587442 C20.4588226,9.6467631 20.2425586,9.38266602 19.965165,9.19678985 Z M20.9023486,13.4163548 C20.3475616,13.788124 19.6953115,13.9865013 19.0280827,13.9865013 C18.1333389,13.9865013 17.2752997,13.6300075 16.6426333,12.9955114 C16.0099669,12.3610322 15.6544916,11.5005345 15.6544916,10.6032438 C15.6544916,9.93410316 15.8523021,9.28006874 16.2229923,8.72369204 C16.5936825,8.16731535 17.1205868,7.73354791 17.7370262,7.47748606 C18.3534825,7.2214073 19.0318442,7.15448647 19.6862534,7.28502946 C20.3406626,7.41557245 20.9417016,7.73781081 21.4135151,8.21095937 C21.8853119,8.68412485 22.2066295,9.2869875 22.3367995,9.94327179 C22.4669696,10.5995561 22.4002399,11.2797769 22.1448928,11.8979826 C21.8895626,12.5161884 21.4571357,13.0446024 20.9023486,13.4163548 Z" id="Union" fill="#FFFFFF" mask="url(#mask-2)"></path>
        </g>
    </g>
</svg>