<?xml version="1.0" encoding="UTF-8"?>
<svg width="38px" height="38px" viewBox="0 0 38 38" version="1.1" xmlns="http://www.w3.org/2000/svg" xmlns:xlink="http://www.w3.org/1999/xlink">
    <title>Icon_Careers</title>
    <defs>
        <circle id="path-1" cx="19" cy="19" r="19"></circle>
        <rect id="path-3" x="0" y="0" width="204.615385" height="204.615385"></rect>
    </defs>
    <g id="Icon_Careers" stroke="none" stroke-width="1" fill="none" fill-rule="evenodd">
        <g id="Circle-5">
            <mask id="mask-2" fill="white">
                <use xlink:href="#path-1"></use>
            </mask>
            <use id="Mask" fill="#D8D8D8" xlink:href="#path-1"></use>
            <g id="Group" mask="url(#mask-2)">
                <g transform="translate(-2.133846, -1.753846)" id="Color">
                    <mask id="mask-4" fill="white">
                        <use xlink:href="#path-3"></use>
                    </mask>
                    <use id="Rectangle" fill="#00B6EE" xlink:href="#path-3"></use>
                </g>
            </g>
            <path d="M19.3584416,7.26335056 L22.5352628,13.7002935 C22.8348125,14.3072474 23.4138438,14.7279383 24.0836572,14.8252679 L24.0836572,14.8252679 L31.1872455,15.8574796 L26.0470407,20.867941 C25.5623592,21.3403887 25.3411889,22.0210808 25.4556067,22.6881877 L25.4556067,22.6881877 L26.6690444,29.7630726 L20.3154019,26.4227651 C19.7163026,26.1077999 19.0005805,26.1077999 18.4014812,26.4227651 L18.4014812,26.4227651 L12.0478387,29.7630726 L13.2612765,22.6881877 C13.3756943,22.0210808 13.154524,21.3403887 12.6698425,20.867941 L12.6698425,20.867941 L7.52963769,15.8574796 L14.633226,14.8252679 C15.3030393,14.7279383 15.8820707,14.3072474 16.1816203,13.7002935 L16.1816203,13.7002935 L19.3584416,7.26335056 Z" id="Star" stroke="#FFFFFF" stroke-width="2.05647059"></path>
        </g>
    </g>
</svg>