<?xml version="1.0" encoding="UTF-8"?>
<svg width="38px" height="38px" viewBox="0 0 38 38" version="1.1" xmlns="http://www.w3.org/2000/svg" xmlns:xlink="http://www.w3.org/1999/xlink">
    <title>Icon_Contact_Us</title>
    <defs>
        <circle id="path-1" cx="19" cy="19" r="19"></circle>
    </defs>
    <g id="Icon_Contact_Us" stroke="none" stroke-width="1" fill="none" fill-rule="evenodd">
        <g id="Circle-4">
            <mask id="mask-2" fill="white">
                <use xlink:href="#path-1"></use>
            </mask>
            <use id="Mask" fill="#D8D8D8" xlink:href="#path-1"></use>
            <g id="Group" mask="url(#mask-2)">
                <g transform="translate(-2.133846, -1.753846)" id="Color">
                    <rect id="Rectangle" fill="#35458F" x="0" y="0" width="204.615385" height="204.615385"></rect>
                </g>
            </g>
            <g id="Speech-Bubble" transform="translate(7.220000, 7.220000)">
                <path d="M11.6923077,0 C18.1497909,0 23.3846154,5.23482446 23.3846154,11.6923077 C23.3846154,18.1497909 18.1497909,23.3846154 11.6923077,23.3846154 C9.46645661,23.3846154 7.38587384,22.7626478 5.61487443,21.6830276 L0,23.3846154 L1.70158775,17.769741 C0.621967598,15.9987415 0,13.9181588 0,11.6923077 C0,5.23482446 5.23482446,0 11.6923077,0 Z" id="Combined-Shape" fill="#FFFFFF" transform="translate(11.692308, 11.692308) scale(-1, 1) translate(-11.692308, -11.692308) "></path>
                <circle id="Oval" fill="#35458F" cx="4.38461538" cy="11.9846154" r="2.04615385"></circle>
                <circle id="Oval-Copy" fill="#35458F" cx="11.2051282" cy="11.9846154" r="2.04615385"></circle>
                <circle id="Oval-Copy-2" fill="#35458F" cx="18.025641" cy="11.9846154" r="2.04615385"></circle>
            </g>
        </g>
    </g>
</svg>