<?xml version="1.0" encoding="utf-8"?>
<!-- Generator: Adobe Illustrator 26.0.3, SVG Export Plug-In . SVG Version: 6.00 Build 0)  -->
<svg version="1.1" xmlns="http://www.w3.org/2000/svg" xmlns:xlink="http://www.w3.org/1999/xlink" x="0px" y="0px"
	 viewBox="0 0 1429 695.5" style="enable-background:new 0 0 1429 695.5;" xml:space="preserve">
<style type="text/css">
	.st0{fill:#FFFFFF;}
	.st1{fill-rule:evenodd;clip-rule:evenodd;fill:#FAAE3F;}
	.st2{fill-rule:evenodd;clip-rule:evenodd;fill:url(#Stroke-7_00000171694973598987562780000006177600206873705119_);}
	.st3{fill-rule:evenodd;clip-rule:evenodd;fill:url(#Stroke-9_00000110461718249421470930000015063793995652767421_);}
	.st4{fill-rule:evenodd;clip-rule:evenodd;fill:url(#Stroke-11_00000178168163254739526380000005254847649732045209_);}
	.st5{fill-rule:evenodd;clip-rule:evenodd;fill:url(#Stroke-13_00000005235646270179304140000012905089571540971434_);}
	.st6{fill-rule:evenodd;clip-rule:evenodd;fill:url(#Stroke-15_00000182489929676497535810000009187544830693705100_);}
	.st7{fill-rule:evenodd;clip-rule:evenodd;fill:url(#Stroke-17_00000028283630891005160240000010555072400890294415_);}
	.st8{fill-rule:evenodd;clip-rule:evenodd;fill:url(#Stroke-19_00000109024930234296190290000007482588320932126370_);}
	.st9{fill-rule:evenodd;clip-rule:evenodd;fill:url(#Stroke-21_00000126310575276545535180000010886988154695903620_);}
	.st10{fill-rule:evenodd;clip-rule:evenodd;fill:url(#Stroke-23_00000171678339757123967320000002608084933773458106_);}
	.st11{fill-rule:evenodd;clip-rule:evenodd;fill:url(#Stroke-25_00000174580667273571394560000008716013766092624056_);}
	.st12{fill-rule:evenodd;clip-rule:evenodd;fill:url(#Stroke-27_00000177475014644590534940000000007353764039254667_);}
	.st13{fill-rule:evenodd;clip-rule:evenodd;fill:url(#Stroke-29_00000060715718404655663150000013490853257433292211_);}
	.st14{fill-rule:evenodd;clip-rule:evenodd;fill:url(#Stroke-31_00000122695326928419959600000009070091819363633341_);}
	.st15{fill-rule:evenodd;clip-rule:evenodd;fill:url(#Stroke-33_00000071547562330604028820000017941244041336997052_);}
	.st16{fill-rule:evenodd;clip-rule:evenodd;fill:url(#Stroke-35_00000169539263496053954990000012209157692145602181_);}
	.st17{fill-rule:evenodd;clip-rule:evenodd;fill:url(#Stroke-37_00000015350355433691870480000003846108704725723564_);}
	.st18{fill-rule:evenodd;clip-rule:evenodd;fill:url(#Stroke-39_00000036227008476053679530000010978707224191724472_);}
	.st19{fill-rule:evenodd;clip-rule:evenodd;fill:url(#Stroke-41_00000134247155628167844460000006807811698352990137_);}
</style>
<g id="Layer_2">
	<g>
		<g id="Group_00000054232696594316368640000008380968482747378093_" transform="translate(0.000000, 212.700000)">
			<path id="Path_00000111162132473795085460000008120799088092261007_" class="st0" d="M7.7,214.6V47.1h32.9v26.2
				C46.1,65,54,58,64,52.2c10.1-5.7,20.6-8.6,31.4-8.6c38.3,0,57.4,23,57.4,68.9v102.1h-32.9v-99.9c0-28.7-11.8-42.4-35.4-41.2
				c-8.3,0-15.8,1.8-22.5,5.3S50,87,46.2,93s-5.7,12.7-5.7,20.1v101.5H7.7L7.7,214.6z"/>
			<path id="Shape" class="st0" d="M272.8,217.8c-16.4,0-31-3.8-43.9-11.3c-12.9-7.5-23-17.9-30.5-31s-11.2-28-11.2-44.8
				s3.7-31.7,11.2-44.8c7.4-13.1,17.6-23.4,30.5-31c12.9-7.5,27.5-11.3,43.9-11.3c16.2,0,30.7,3.8,43.5,11.3s23,17.9,30.5,31
				c7.4,13.1,11.2,28,11.2,44.8s-3.7,31.8-11.2,44.8c-7.5,13.1-17.6,23.4-30.5,31C303.5,214,289,217.8,272.8,217.8z M272.8,187.8
				c10,0,18.9-2.5,26.8-7.5c7.9-5,14-11.8,18.5-20.4c4.5-8.6,6.6-18.3,6.4-29.2c0.2-11.1-1.9-20.9-6.4-29.5s-10.6-15.4-18.5-20.3
				c-7.9-4.9-16.8-7.3-26.8-7.3s-19,2.5-27,7.5s-14.2,11.8-18.7,20.4s-6.6,18.3-6.4,29.2c-0.2,10.9,1.9,20.6,6.4,29.2
				c4.5,8.6,10.7,15.4,18.7,20.4S262.8,187.8,272.8,187.8z"/>
			<polygon id="Path_00000170269382319124212860000002113386306797744029_" class="st0" points="443.8,214.6 373,47.1 408.4,47.1 
				457.2,166.7 507.9,47.1 541.7,47.1 467.4,214.6 			"/>
			<path id="Shape_00000180341381352602994480000018373753968240680109_" class="st0" d="M631.4,217.8c-13.8,0-26.4-3.8-37.8-11.5
				c-11.4-7.7-20.5-18.1-27.3-31.3c-6.8-13.2-10.2-28.1-10.2-44.7c0-16.8,3.5-31.7,10.4-44.8c6.9-13.1,16.3-23.3,28.1-30.8
				c11.8-7.4,25-11.2,39.7-11.2c12.5,0,23.7,2.7,33.3,8.1c9.7,5.4,17.1,12.4,22.2,20.9V47H723v167.5h-33.2v-25.8
				c-5.7,8.1-13.9,14.9-24.4,20.6C654.9,214.9,643.5,217.8,631.4,217.8z M640,187.4c10,0,18.8-2.4,26.5-7.3
				c7.7-4.9,13.7-11.6,18-20.3c4.4-8.6,6.5-18.5,6.5-29.5c0-10.9-2.2-20.5-6.5-29c-4.4-8.5-10.4-15.2-18-20.1
				c-7.7-4.9-16.5-7.3-26.5-7.3c-9.8,0-18.5,2.5-26,7.3c-7.5,4.9-13.5,11.6-17.9,20.1c-4.4,8.5-6.5,18.2-6.5,29
				c0,11.1,2.2,20.9,6.5,29.5c4.4,8.6,10.3,15.4,17.9,20.3C621.6,185,630.2,187.4,640,187.4z"/>
			<polygon id="Path_00000046305847093095835240000003132034394760081335_" class="st0" points="820,214.6 749.2,47.1 784.6,47.1 
				833.4,166.7 884.1,47.1 917.9,47.1 843.6,214.6 			"/>
			<path id="Shape_00000152255136980555828210000010143103676831942277_" class="st0" d="M1007.6,217.8c-13.8,0-26.4-3.8-37.8-11.5
				c-11.4-7.7-20.5-18.1-27.3-31.3s-10.2-28.1-10.2-44.7c0-16.8,3.5-31.7,10.4-44.8s16.3-23.3,28.1-30.8
				c11.8-7.4,25.1-11.2,39.7-11.2c12.6,0,23.7,2.7,33.3,8.1c9.7,5.4,17.1,12.4,22.2,20.9V47h33.2v167.5H1066v-25.8
				c-5.7,8.1-13.9,14.9-24.4,20.6C1031,214.9,1019.7,217.8,1007.6,217.8z M1016.2,187.4c10,0,18.8-2.4,26.5-7.3
				c7.7-4.9,13.7-11.6,18-20.3c4.4-8.6,6.5-18.5,6.5-29.5c0-10.9-2.2-20.5-6.5-29c-4.4-8.5-10.4-15.2-18-20.1
				c-7.7-4.9-16.5-7.3-26.5-7.3c-9.8,0-18.4,2.5-26,7.3c-7.6,4.9-13.5,11.6-17.9,20.1c-4.4,8.5-6.5,18.2-6.5,29
				c0,11.1,2.2,20.9,6.5,29.5c4.4,8.6,10.3,15.4,17.9,20.3C997.7,185,1006.4,187.4,1016.2,187.4z"/>
			<polygon id="Path_00000062178007848943506650000018248102217906113920_" class="st0" points="1127.2,214.6 1191.6,130.7 
				1126.8,47.1 1168.3,47.1 1213.6,106.1 1251.9,47.1 1290.8,47.1 1231.8,129.7 1296.6,214.6 1256.4,214.6 1210.5,154.9 
				1166.2,214.6 			"/>
		</g>
	</g>
</g>
<g id="Layer_3">
	<g id="Group-3" transform="translate(825.000000, 0.000000)">
		<path id="Stroke-1" class="st1" d="M26.3,498.4c-4.9-0.1-8.9-4.1-8.8-9c0.1-4.9,4.1-8.9,9-8.8c4.9,0.1,8.9,4.1,8.8,9
			C35.3,494.5,31.3,498.5,26.3,498.4z"/>
		<path id="Stroke-3" class="st1" d="M87.5,547.5c0.1-8.4-6.6-15.3-15.1-15.4c-8.4-0.1-15.3,6.6-15.5,15.1
			c-0.1,8.4,6.6,15.3,15.1,15.5C80.5,562.7,87.4,555.9,87.5,547.5z"/>
		<path id="Stroke-5" class="st1" d="M151.5,591.6c0.1-11-8.7-20.1-19.7-20.2s-20.1,8.7-20.2,19.7c-0.1,11,8.7,20.1,19.7,20.2
			C142.3,611.5,151.3,602.6,151.5,591.6z"/>
		
			<linearGradient id="Stroke-7_00000105401036352540580980000011487911814946935214_" gradientUnits="userSpaceOnUse" x1="-301.2157" y1="460.1794" x2="-302.2157" y2="460.2414" gradientTransform="matrix(42.8835 0 0 -42.8837 13138.748 20353.9805)">
			<stop  offset="0" style="stop-color:#F67532"/>
			<stop  offset="1" style="stop-color:#F99B3B"/>
		</linearGradient>
		
			<path id="Stroke-7" style="fill-rule:evenodd;clip-rule:evenodd;fill:url(#Stroke-7_00000105401036352540580980000011487911814946935214_);" d="
			M221.6,618.7c0.2-11.8-9.3-21.6-21.2-21.7c-11.8-0.2-21.6,9.3-21.7,21.2c-0.2,11.8,9.3,21.6,21.2,21.7
			C211.7,640,221.4,630.6,221.6,618.7z"/>
		
			<linearGradient id="Stroke-9_00000124869475882991416570000003855015313080284318_" gradientUnits="userSpaceOnUse" x1="-302.2165" y1="460.5966" x2="-303.2165" y2="460.5966" gradientTransform="matrix(39.6333 0 0 -39.6334 12271.1465 18881.7227)">
			<stop  offset="0" style="stop-color:#EE5926"/>
			<stop  offset="1" style="stop-color:#F25D2A"/>
		</linearGradient>
		
			<path id="Stroke-9" style="fill-rule:evenodd;clip-rule:evenodd;fill:url(#Stroke-9_00000124869475882991416570000003855015313080284318_);" d="
			M293.3,627c0.1-10.9-8.6-19.9-19.6-20.1c-10.9-0.1-19.9,8.6-20.1,19.6c-0.1,10.9,8.6,19.9,19.6,20.1
			C284.2,646.7,293.2,637.9,293.3,627z"/>
		
			<linearGradient id="Stroke-11_00000160185416659164504820000014352992036647495066_" gradientUnits="userSpaceOnUse" x1="-305.9507" y1="462.2724" x2="-306.7797" y2="461.7309" gradientTransform="matrix(31.0626 0 0 -31.0626 9862.9111 14966.8369)">
			<stop  offset="0" style="stop-color:#EE5926"/>
			<stop  offset="1" style="stop-color:#EE5926"/>
		</linearGradient>
		
			<path id="Stroke-11" style="fill-rule:evenodd;clip-rule:evenodd;fill:url(#Stroke-11_00000160185416659164504820000014352992036647495066_);" d="
			M362,616c0.1-8.6-6.8-15.6-15.3-15.7c-8.6-0.1-15.6,6.8-15.7,15.3c-0.1,8.6,6.8,15.6,15.3,15.7C354.8,631.5,361.9,624.6,362,616z"
			/>
		
			<linearGradient id="Stroke-13_00000090254105099608406380000009456386491469905071_" gradientUnits="userSpaceOnUse" x1="-313.6707" y1="465.2988" x2="-314.142" y2="464.5703" gradientTransform="matrix(21.452 0 0 -21.4518 7148.2397 10559.5234)">
			<stop  offset="0" style="stop-color:#EE5926"/>
			<stop  offset="1" style="stop-color:#EE5926"/>
		</linearGradient>
		
			<path id="Stroke-13" style="fill-rule:evenodd;clip-rule:evenodd;fill:url(#Stroke-13_00000090254105099608406380000009456386491469905071_);" d="
			M424.8,586.4c0.1-5.9-4.7-10.8-10.6-10.9c-5.9-0.1-10.8,4.7-10.9,10.6c-0.1,5.9,4.7,10.8,10.6,10.9
			C419.9,597,424.7,592.3,424.8,586.4z"/>
		
			<linearGradient id="Stroke-15_00000043457660517799573150000011531927235781644711_" gradientUnits="userSpaceOnUse" x1="-323.7561" y1="469.2101" x2="-323.7561" y2="468.2101" gradientTransform="matrix(15.2911 0 0 -15.2911 5422.2622 7707.1924)">
			<stop  offset="0" style="stop-color:#D3523D"/>
			<stop  offset="1" style="stop-color:#D75436"/>
		</linearGradient>
		
			<path id="Stroke-15" style="fill-rule:evenodd;clip-rule:evenodd;fill:url(#Stroke-15_00000043457660517799573150000011531927235781644711_);" d="
			M479.3,540.2c0-4.2-3.3-7.7-7.6-7.7c-4.2,0-7.7,3.3-7.7,7.6c0,4.2,3.3,7.7,7.6,7.7C475.8,547.8,479.3,544.4,479.3,540.2z"/>
		
			<linearGradient id="Stroke-17_00000012444799698050758520000008762833765020364695_" gradientUnits="userSpaceOnUse" x1="-325.1065" y1="469.7307" x2="-325.1065" y2="468.7307" gradientTransform="matrix(14.7112 0 0 -14.7114 5298.104 7383.6841)">
			<stop  offset="0" style="stop-color:#6B3487"/>
			<stop  offset="1" style="stop-color:#703682"/>
		</linearGradient>
		
			<path id="Stroke-17" style="fill-rule:evenodd;clip-rule:evenodd;fill:url(#Stroke-17_00000012444799698050758520000008762833765020364695_);" d="
			M522.8,480.8c0-4.1-3.2-7.4-7.3-7.4c-4.1-0.1-7.4,3.2-7.5,7.3c0,4.1,3.2,7.4,7.3,7.5C519.4,488.1,522.7,484.8,522.8,480.8z"/>
		
			<linearGradient id="Stroke-19_00000027591286351597951980000010894563982372452279_" gradientUnits="userSpaceOnUse" x1="-317.3895" y1="466.7552" x2="-317.3895" y2="465.7552" gradientTransform="matrix(18.7817 0 0 -18.7813 6503.2939 9168.7793)">
			<stop  offset="0" style="stop-color:#66368A"/>
			<stop  offset="1" style="stop-color:#693587"/>
		</linearGradient>
		
			<path id="Stroke-19" style="fill-rule:evenodd;clip-rule:evenodd;fill:url(#Stroke-19_00000027591286351597951980000010894563982372452279_);" d="
			M551.6,412c0.1-5.2-4.1-9.5-9.3-9.5s-9.5,4.1-9.5,9.3c-0.1,5.2,4.1,9.4,9.3,9.5S551.5,417.2,551.6,412z"/>
		
			<linearGradient id="Stroke-21_00000141431597279505625900000012884576654583533458_" gradientUnits="userSpaceOnUse" x1="-309.3249" y1="463.6478" x2="-309.3249" y2="462.6478" gradientTransform="matrix(26.422 0 0 -26.4123 8723.0488 12571.3066)">
			<stop  offset="0" style="stop-color:#473E8D"/>
			<stop  offset="1" style="stop-color:#523D8C"/>
		</linearGradient>
		
			<path id="Stroke-21" style="fill-rule:evenodd;clip-rule:evenodd;fill:url(#Stroke-21_00000141431597279505625900000012884576654583533458_);" d="
			M563.3,338.7c0.1-7.3-5.7-13.3-13-13.4c-7.3-0.1-13.3,5.7-13.4,13c-0.1,7.3,5.7,13.3,13,13.4C557.2,351.8,563.2,346,563.3,338.7z"
			/>
		
			<linearGradient id="Stroke-23_00000094598214489816288160000005850053020811073195_" gradientUnits="userSpaceOnUse" x1="-304.5509" y1="461.7687" x2="-304.3702" y2="460.7687" gradientTransform="matrix(35.0127 0 0 -35.0128 11198.7803 16415.8984)">
			<stop  offset="0" style="stop-color:#294390"/>
			<stop  offset="1" style="stop-color:#36438F"/>
		</linearGradient>
		
			<path id="Stroke-23" style="fill-rule:evenodd;clip-rule:evenodd;fill:url(#Stroke-23_00000094598214489816288160000005850053020811073195_);" d="
			M556.3,265.8c0.1-9.7-7.6-17.6-17.3-17.7c-9.7-0.1-17.6,7.6-17.7,17.3c-0.1,9.7,7.6,17.6,17.3,17.7S556.2,275.5,556.3,265.8z"/>
		
			<linearGradient id="Stroke-25_00000153697955380978828100000001613678245887748774_" gradientUnits="userSpaceOnUse" x1="-302.3667" y1="460.8136" x2="-301.9279" y2="459.9567" gradientTransform="matrix(41.4336 0 0 -41.4334 13027.7197 19273.0547)">
			<stop  offset="0" style="stop-color:#204093"/>
			<stop  offset="1" style="stop-color:#224295"/>
		</linearGradient>
		
			<path id="Stroke-25" style="fill-rule:evenodd;clip-rule:evenodd;fill:url(#Stroke-25_00000153697955380978828100000001613678245887748774_);" d="
			M529.6,198.4c0.1-11.4-9-20.8-20.5-21c-11.4-0.1-20.8,9-21,20.4s9,20.8,20.5,21C520,219,529.4,209.8,529.6,198.4z"/>
		
			<linearGradient id="Stroke-27_00000041257107718123740900000000547473308871091380_" gradientUnits="userSpaceOnUse" x1="-301.4952" y1="460.2804" x2="-300.7019" y2="459.6732" gradientTransform="matrix(45.2038 0 0 -45.204 14072.7695 20933.2031)">
			<stop  offset="0" style="stop-color:#204093"/>
			<stop  offset="1" style="stop-color:#204093"/>
		</linearGradient>
		
			<path id="Stroke-27" style="fill-rule:evenodd;clip-rule:evenodd;fill:url(#Stroke-27_00000041257107718123740900000000547473308871091380_);" d="
			M485.1,141.1c0.2-12.5-9.8-22.7-22.3-22.9c-12.5-0.2-22.7,9.8-22.9,22.3s9.8,22.7,22.3,22.9C474.6,163.5,484.9,153.5,485.1,141.1z
			"/>
		
			<linearGradient id="Stroke-29_00000026863893889825192910000010843224960543912636_" gradientUnits="userSpaceOnUse" x1="-300.7496" y1="459.8483" x2="-299.8051" y2="459.463" gradientTransform="matrix(48.524 0 0 -48.524 14974.3037 22402.0176)">
			<stop  offset="0" style="stop-color:#1C4A9D"/>
			<stop  offset="1" style="stop-color:#204093"/>
		</linearGradient>
		
			<path id="Stroke-29" style="fill-rule:evenodd;clip-rule:evenodd;fill:url(#Stroke-29_00000026863893889825192910000010843224960543912636_);" d="
			M427,97.7c0.2-13.4-10.6-24.4-24-24.6c-13.4-0.2-24.4,10.6-24.6,24c-0.2,13.4,10.6,24.4,24,24.6C415.9,121.8,426.9,111.1,427,97.7
			z"/>
		
			<linearGradient id="Stroke-31_00000177442590716183920330000006939576506228940702_" gradientUnits="userSpaceOnUse" x1="-299.2841" y1="459.4352" x2="-300.2841" y2="459.4978" gradientTransform="matrix(50.9243 0 0 -50.9245 15600.2627 23469.0312)">
			<stop  offset="0" style="stop-color:#204093"/>
			<stop  offset="1" style="stop-color:#116AB6"/>
		</linearGradient>
		
			<path id="Stroke-31" style="fill-rule:evenodd;clip-rule:evenodd;fill:url(#Stroke-31_00000177442590716183920330000006939576506228940702_);" d="
			M359.3,71.3c0.2-14.1-11.1-25.6-25.1-25.8c-14.1-0.2-25.6,11.1-25.8,25.1c-0.2,14.1,11.1,25.6,25.1,25.8
			C347.6,96.6,359.2,85.3,359.3,71.3z"/>
		
			<linearGradient id="Stroke-33_00000148624063533159539020000010804383908436675261_" gradientUnits="userSpaceOnUse" x1="-300.3145" y1="459.4775" x2="-299.3145" y2="459.4775" gradientTransform="matrix(50.7843 0 0 -50.7843 15486.333 23397.625)">
			<stop  offset="0" style="stop-color:#078CD1"/>
			<stop  offset="1" style="stop-color:#0B75C0"/>
		</linearGradient>
		
			<path id="Stroke-33" style="fill-rule:evenodd;clip-rule:evenodd;fill:url(#Stroke-33_00000148624063533159539020000010804383908436675261_);" d="
			M285.9,63.7c0.2-14-11-25.5-25.1-25.7c-14-0.2-25.5,11-25.7,25.1c-0.2,14,11,25.5,25.1,25.7C274.2,89,285.7,77.7,285.9,63.7z"/>
		
			<linearGradient id="Stroke-35_00000120528283666675422320000006772174507869001126_" gradientUnits="userSpaceOnUse" x1="-299.8826" y1="459.8041" x2="-300.8826" y2="459.5916" gradientTransform="matrix(48.124 0 0 -48.124 14643.3115 22197.5332)">
			<stop  offset="0" style="stop-color:#0197D9"/>
			<stop  offset="1" style="stop-color:#02A9E8"/>
		</linearGradient>
		
			<path id="Stroke-35" style="fill-rule:evenodd;clip-rule:evenodd;fill:url(#Stroke-35_00000120528283666675422320000006772174507869001126_);" d="
			M211.7,75.4c0.2-13.3-10.5-24.2-23.8-24.4c-13.3-0.2-24.2,10.5-24.4,23.7s10.5,24.2,23.8,24.4C200.6,99.3,211.5,88.6,211.7,75.4z"
			/>
		
			<linearGradient id="Stroke-37_00000152251557955293207690000017974750560095947151_" gradientUnits="userSpaceOnUse" x1="-302.3439" y1="459.9939" x2="-301.5642" y2="460.6089" gradientTransform="matrix(42.0636 0 0 -42.0634 12821.5176 19467.1582)">
			<stop  offset="0" style="stop-color:#00B6F0"/>
			<stop  offset="1" style="stop-color:#00AFEC"/>
		</linearGradient>
		
			<path id="Stroke-37" style="fill-rule:evenodd;clip-rule:evenodd;fill:url(#Stroke-37_00000152251557955293207690000017974750560095947151_);" d="
			M141.3,105.6c0.1-11.6-9.1-21.2-20.8-21.3c-11.6-0.2-21.2,9.1-21.3,20.8c-0.2,11.6,9.1,21.2,20.8,21.3
			C131.6,126.5,141.2,117.2,141.3,105.6z"/>
		
			<linearGradient id="Stroke-39_00000104697940806819788060000001948806548474930867_" gradientUnits="userSpaceOnUse" x1="-306.2825" y1="462.4667" x2="-306.7067" y2="461.5562" gradientTransform="matrix(30.8526 0 0 -30.8526 9518.8076 14407.3662)">
			<stop  offset="0" style="stop-color:#02B1EE"/>
			<stop  offset="1" style="stop-color:#00B6F0"/>
		</linearGradient>
		
			<path id="Stroke-39" style="fill-rule:evenodd;clip-rule:evenodd;fill:url(#Stroke-39_00000104697940806819788060000001948806548474930867_);" d="
			M78.6,152.2c0.1-8.5-6.7-15.5-15.2-15.6s-15.5,6.7-15.6,15.2c-0.1,8.5,6.7,15.5,15.2,15.6C71.5,167.5,78.5,160.7,78.6,152.2z"/>
		
			<linearGradient id="Stroke-41_00000084511841390626525970000005509065403364260757_" gradientUnits="userSpaceOnUse" x1="-319.5917" y1="466.9114" x2="-318.5917" y2="466.9114" gradientTransform="matrix(17.7014 0 0 -17.7014 5668.395 8476.8662)">
			<stop  offset="0" style="stop-color:#00B6F0"/>
			<stop  offset="1" style="stop-color:#00B6F0"/>
		</linearGradient>
		
			<path id="Stroke-41" style="fill-rule:evenodd;clip-rule:evenodd;fill:url(#Stroke-41_00000084511841390626525970000005509065403364260757_);" d="
			M28.9,212c0.1-4.9-3.9-8.9-8.7-9c-4.9-0.1-8.9,3.9-9,8.7c-0.1,4.9,3.9,8.9,8.7,9C24.8,220.8,28.8,216.9,28.9,212z"/>
	</g>
</g>
</svg>
