<?xml version="1.0" encoding="utf-8"?>
<!-- Generator: Adobe Illustrator 26.0.3, SVG Export Plug-In . SVG Version: 6.00 Build 0)  -->
<svg version="1.1" xmlns="http://www.w3.org/2000/svg" xmlns:xlink="http://www.w3.org/1999/xlink" x="0px" y="0px"
	 viewBox="0 0 1429 695.5" style="enable-background:new 0 0 1429 695.5;" xml:space="preserve">
<style type="text/css">
	.st0{fill:#182958;}
	.st1{fill-rule:evenodd;clip-rule:evenodd;fill:#FAAE3F;}
	.st2{fill-rule:evenodd;clip-rule:evenodd;fill:url(#Stroke-7_00000032626612887322413010000017192457980713122445_);}
	.st3{fill-rule:evenodd;clip-rule:evenodd;fill:url(#Stroke-9_00000080901574142656996640000004635452384800298170_);}
	.st4{fill-rule:evenodd;clip-rule:evenodd;fill:url(#Stroke-11_00000178163875704944776180000009964672401720595895_);}
	.st5{fill-rule:evenodd;clip-rule:evenodd;fill:url(#Stroke-13_00000177452886202279367050000010377662673084580287_);}
	.st6{fill-rule:evenodd;clip-rule:evenodd;fill:url(#Stroke-15_00000148635409197027692900000010708738541794898083_);}
	.st7{fill-rule:evenodd;clip-rule:evenodd;fill:url(#Stroke-17_00000175286403525642162880000012173269908119574408_);}
	.st8{fill-rule:evenodd;clip-rule:evenodd;fill:url(#Stroke-19_00000104674963145678071770000000273037065512429977_);}
	.st9{fill-rule:evenodd;clip-rule:evenodd;fill:url(#Stroke-21_00000018953552740740999290000017306458812921261467_);}
	.st10{fill-rule:evenodd;clip-rule:evenodd;fill:url(#Stroke-23_00000039133586900330429640000010430243134547547008_);}
	.st11{fill-rule:evenodd;clip-rule:evenodd;fill:url(#Stroke-25_00000084492107926656028010000008263107230322850436_);}
	.st12{fill-rule:evenodd;clip-rule:evenodd;fill:url(#Stroke-27_00000013180004461107306070000013253753551853787778_);}
	.st13{fill-rule:evenodd;clip-rule:evenodd;fill:url(#Stroke-29_00000075845366391822262960000018245703506929793708_);}
	.st14{fill-rule:evenodd;clip-rule:evenodd;fill:url(#Stroke-31_00000168099612457041427910000002898984028108453518_);}
	.st15{fill-rule:evenodd;clip-rule:evenodd;fill:url(#Stroke-33_00000116924304344114554280000011975406630272625319_);}
	.st16{fill-rule:evenodd;clip-rule:evenodd;fill:url(#Stroke-35_00000093878382774627078670000003585907491188474300_);}
	.st17{fill-rule:evenodd;clip-rule:evenodd;fill:url(#Stroke-37_00000098223241088116240760000001776863884065630896_);}
	.st18{fill-rule:evenodd;clip-rule:evenodd;fill:url(#Stroke-39_00000070091447247204412700000003497978795394220201_);}
	.st19{fill-rule:evenodd;clip-rule:evenodd;fill:url(#Stroke-41_00000034066095044016251660000005594336266426461326_);}
</style>
<g id="Layer_2">
	<g>
		<g id="Group_00000054232696594316368640000008380968482747378093_" transform="translate(0.000000, 212.700000)">
			<path id="Path_00000111162132473795085460000008120799088092261007_" class="st0" d="M7.7,214.6V47.1h32.9v26.2
				C46.1,65,54,58,64,52.2c10.1-5.7,20.6-8.6,31.4-8.6c38.3,0,57.4,23,57.4,68.9v102.1h-32.9v-99.9c0-28.7-11.8-42.4-35.4-41.2
				c-8.3,0-15.8,1.8-22.5,5.3S50,87,46.2,93s-5.7,12.7-5.7,20.1v101.5H7.7L7.7,214.6z"/>
			<path id="Shape" class="st0" d="M272.8,217.8c-16.4,0-31-3.8-43.9-11.3c-12.9-7.5-23-17.9-30.5-31s-11.2-28-11.2-44.8
				s3.7-31.7,11.2-44.8c7.4-13.1,17.6-23.4,30.5-31c12.9-7.5,27.5-11.3,43.9-11.3c16.2,0,30.7,3.8,43.5,11.3s23,17.9,30.5,31
				c7.4,13.1,11.2,28,11.2,44.8s-3.7,31.8-11.2,44.8c-7.5,13.1-17.6,23.4-30.5,31C303.5,214,289,217.8,272.8,217.8z M272.8,187.8
				c10,0,18.9-2.5,26.8-7.5c7.9-5,14-11.8,18.5-20.4c4.5-8.6,6.6-18.3,6.4-29.2c0.2-11.1-1.9-20.9-6.4-29.5s-10.6-15.4-18.5-20.3
				c-7.9-4.9-16.8-7.3-26.8-7.3s-19,2.5-27,7.5s-14.2,11.8-18.7,20.4s-6.6,18.3-6.4,29.2c-0.2,10.9,1.9,20.6,6.4,29.2
				c4.5,8.6,10.7,15.4,18.7,20.4S262.8,187.8,272.8,187.8z"/>
			<polygon id="Path_00000170269382319124212860000002113386306797744029_" class="st0" points="443.8,214.6 373,47.1 408.4,47.1 
				457.2,166.7 507.9,47.1 541.7,47.1 467.4,214.6 			"/>
			<path id="Shape_00000180341381352602994480000018373753968240680109_" class="st0" d="M631.4,217.8c-13.8,0-26.4-3.8-37.8-11.5
				c-11.4-7.7-20.5-18.1-27.3-31.3c-6.8-13.2-10.2-28.1-10.2-44.7c0-16.8,3.5-31.7,10.4-44.8c6.9-13.1,16.3-23.3,28.1-30.8
				c11.8-7.4,25-11.2,39.7-11.2c12.5,0,23.7,2.7,33.3,8.1c9.7,5.4,17.1,12.4,22.2,20.9V47H723v167.5h-33.2v-25.8
				c-5.7,8.1-13.9,14.9-24.4,20.6C654.9,214.9,643.5,217.8,631.4,217.8z M640,187.4c10,0,18.8-2.4,26.5-7.3
				c7.7-4.9,13.7-11.6,18-20.3c4.4-8.6,6.5-18.5,6.5-29.5c0-10.9-2.2-20.5-6.5-29c-4.4-8.5-10.4-15.2-18-20.1
				c-7.7-4.9-16.5-7.3-26.5-7.3c-9.8,0-18.5,2.5-26,7.3c-7.5,4.9-13.5,11.6-17.9,20.1c-4.4,8.5-6.5,18.2-6.5,29
				c0,11.1,2.2,20.9,6.5,29.5c4.4,8.6,10.3,15.4,17.9,20.3C621.6,185,630.2,187.4,640,187.4z"/>
			<polygon id="Path_00000046305847093095835240000003132034394760081335_" class="st0" points="820,214.6 749.2,47.1 784.6,47.1 
				833.4,166.7 884.1,47.1 917.9,47.1 843.6,214.6 			"/>
			<path id="Shape_00000152255136980555828210000010143103676831942277_" class="st0" d="M1007.6,217.8c-13.8,0-26.4-3.8-37.8-11.5
				c-11.4-7.7-20.5-18.1-27.3-31.3s-10.2-28.1-10.2-44.7c0-16.8,3.5-31.7,10.4-44.8s16.3-23.3,28.1-30.8
				c11.8-7.4,25.1-11.2,39.7-11.2c12.6,0,23.7,2.7,33.3,8.1c9.7,5.4,17.1,12.4,22.2,20.9V47h33.2v167.5H1066v-25.8
				c-5.7,8.1-13.9,14.9-24.4,20.6C1031,214.9,1019.7,217.8,1007.6,217.8z M1016.2,187.4c10,0,18.8-2.4,26.5-7.3
				c7.7-4.9,13.7-11.6,18-20.3c4.4-8.6,6.5-18.5,6.5-29.5c0-10.9-2.2-20.5-6.5-29c-4.4-8.5-10.4-15.2-18-20.1
				c-7.7-4.9-16.5-7.3-26.5-7.3c-9.8,0-18.4,2.5-26,7.3c-7.6,4.9-13.5,11.6-17.9,20.1c-4.4,8.5-6.5,18.2-6.5,29
				c0,11.1,2.2,20.9,6.5,29.5c4.4,8.6,10.3,15.4,17.9,20.3C997.7,185,1006.4,187.4,1016.2,187.4z"/>
			<polygon id="Path_00000062178007848943506650000018248102217906113920_" class="st0" points="1127.2,214.6 1191.6,130.7 
				1126.8,47.1 1168.3,47.1 1213.6,106.1 1251.9,47.1 1290.8,47.1 1231.8,129.7 1296.6,214.6 1256.4,214.6 1210.5,154.9 
				1166.2,214.6 			"/>
		</g>
	</g>
	<path class="st0" d="M1.6,529.8c0-3.1,0.6-6.2,1.7-9.2c1.2-3,2.8-5.8,5-8.2c2.2-2.5,5-4.5,8-5.9c3.4-1.5,7.1-2.3,10.8-2.2
		c4.4-0.1,8.7,1,12.4,3.1c3.3,1.9,6.1,4.6,7.9,8l-8.9,6.4c-0.6-1.6-1.7-3.1-3-4.2c-1.2-1-2.6-1.7-4.2-2.1c-1.4-0.4-2.9-0.6-4.3-0.6
		c-2,0-4.1,0.4-5.9,1.3c-1.6,0.9-3.1,2.1-4.2,3.6c-1.1,1.5-1.9,3.2-2.4,5c-0.5,1.8-0.8,3.6-0.8,5.5c0,2,0.3,3.9,0.9,5.8
		c0.6,1.8,1.5,3.5,2.7,5c1.2,1.4,2.6,2.6,4.3,3.4c1.7,0.8,3.6,1.3,5.5,1.3c1.5,0,3-0.3,4.4-0.7c1.5-0.5,2.9-1.3,4.1-2.3
		c1.3-1.1,2.3-2.5,2.9-4.1l9.6,5.7c-1,2.5-2.8,4.7-4.9,6.4c-2.3,1.8-5,3.2-7.8,4.1c-2.8,0.9-5.7,1.4-8.6,1.4c-3.5,0-7-0.7-10.2-2.3
		c-3-1.5-5.8-3.5-8-6c-2.2-2.5-4-5.4-5.2-8.5C2.2,536.5,1.6,533.2,1.6,529.8z"/>
	<path class="st0" d="M76.9,528c-2.6,0-5.1,0.4-7.5,1.3c-2,0.7-3.8,2.1-4.9,3.9v22.6H53v-37.3h10.6v7.2c1.1-2.4,2.9-4.5,5-6
		c1.9-1.4,4.1-2.2,6.5-2.2h1.2c0.2,0,0.5,0,0.7,0.1L76.9,528z"/>
	<path class="st0" d="M99.5,556.6c-2.9,0.1-5.8-0.5-8.5-1.5c-2.4-0.9-4.5-2.4-6.4-4.2c-1.7-1.7-3.1-3.8-4-6.1
		c-0.9-2.3-1.4-4.7-1.4-7.2c0-3.4,0.8-6.8,2.4-9.8c1.6-3,4-5.4,6.9-7.1c6.8-3.6,15-3.6,21.8,0c2.9,1.7,5.3,4.1,6.9,7
		c1.6,2.9,2.4,6.1,2.4,9.4c0,0.6,0,1.3-0.1,1.9l-0.2,1.7H91.5c0.1,1.5,0.6,2.9,1.4,4.1c0.8,1.1,1.8,2,3.1,2.6
		c1.2,0.6,2.6,0.9,3.9,0.9c1.7,0,3.4-0.4,4.9-1.2c1.4-0.7,2.5-1.9,3.1-3.3l9.8,2.7c-1,2-2.4,3.8-4.1,5.2c-1.8,1.6-3.9,2.8-6.2,3.6
		C104.9,556.1,102.2,556.6,99.5,556.6z M91.2,533.7h16.4c-0.2-1.4-0.6-2.7-1.4-3.9c-0.7-1.1-1.7-2-2.9-2.6c-2.5-1.2-5.4-1.2-7.9,0
		c-1.2,0.6-2.1,1.5-2.8,2.6C91.8,531,91.3,532.3,91.2,533.7z"/>
	<path class="st0" d="M122.5,544.7c0-2.3,0.7-4.6,2.1-6.4c1.5-1.9,3.5-3.4,5.8-4.4c2.7-1.1,5.5-1.6,8.4-1.6c1.5,0,3,0.1,4.5,0.4
		c1.3,0.2,2.6,0.6,3.9,1.1v-1.7c0.1-1.7-0.6-3.4-1.9-4.6c-1.2-1.1-3.1-1.6-5.7-1.6c-2,0-4,0.4-5.9,1.1c-2.1,0.8-4,1.9-5.9,3.1
		l-3.4-7.4c2.4-1.6,5-2.8,7.8-3.7c2.8-0.8,5.7-1.2,8.6-1.2c5.7,0,10,1.3,13.2,4c3.1,2.7,4.7,6.5,4.7,11.5v9.7
		c-0.1,0.8,0.1,1.6,0.5,2.3c0.5,0.5,1.2,0.8,1.9,0.8v9.6c-1,0.2-1.9,0.3-2.7,0.4c-0.7,0.1-1.5,0.1-2.2,0.2c-1.7,0.1-3.5-0.3-4.9-1.3
		c-1.1-0.9-1.9-2.1-2.1-3.5l-0.2-1.7c-1.6,2.1-3.6,3.8-6,4.9c-2.3,1.1-4.8,1.7-7.3,1.7c-2.3,0-4.6-0.5-6.7-1.6
		c-1.9-1-3.5-2.4-4.7-4.2C123.1,549,122.5,546.9,122.5,544.7z M145.3,546.1c0.5-0.4,0.9-0.9,1.3-1.4c0.3-0.4,0.5-0.9,0.5-1.5V540
		c-1-0.4-2.1-0.7-3.2-0.9c-1.1-0.2-2.2-0.3-3.3-0.3c-1.8-0.1-3.7,0.4-5.2,1.3c-1.3,0.7-2.1,2.1-2.1,3.6c0,0.8,0.2,1.6,0.7,2.3
		c0.5,0.7,1.2,1.3,2,1.7c0.9,0.4,2,0.7,3,0.6c1.2,0,2.3-0.2,3.4-0.6C143.5,547.3,144.5,546.8,145.3,546.1L145.3,546.1z"/>
	<path class="st0" d="M191.1,553.8c-1.1,0.4-2.2,0.9-3.5,1.3c-1.3,0.4-2.6,0.8-4,1c-1.4,0.3-2.7,0.4-4.1,0.4c-1.8,0-3.6-0.3-5.3-1
		c-1.6-0.6-2.9-1.7-3.8-3.2c-1-1.8-1.5-3.8-1.4-5.8v-19.3h-4.8v-8.7h4.8v-12h11.5v12h7.7v8.7h-7.7v15.4c-0.1,1,0.2,1.9,0.9,2.6
		c0.7,0.6,1.5,0.8,2.4,0.8c0.9,0,1.8-0.2,2.6-0.4c0.8-0.2,1.6-0.6,2.4-0.9L191.1,553.8z"/>
	<path class="st0" d="M195.5,513.8v-10.4H207v10.4H195.5z M195.5,555.8v-37.7H207v37.7H195.5z"/>
	<path class="st0" d="M251.2,555.8h-11.5v-20.8c0-2.4-0.5-4.2-1.4-5.3c-0.9-1.1-2.3-1.7-3.7-1.7c-1.1,0-2.2,0.3-3.2,0.8
		c-1.1,0.6-2.2,1.3-3,2.3c-0.9,1-1.6,2.1-2,3.3v21.3h-11.5v-37.3h10.3v6.3c1-1.5,2.2-2.7,3.6-3.8c1.5-1.1,3.2-1.9,5-2.4
		c2-0.6,4-0.8,6.1-0.8c2.1-0.1,4.1,0.4,5.9,1.3c1.4,0.8,2.6,2,3.4,3.4c0.8,1.4,1.3,3,1.6,4.6c0.3,1.6,0.4,3.2,0.4,4.8V555.8z"/>
	<path class="st0" d="M273.5,556.6c-2.4,0-4.7-0.5-6.8-1.5c-2-1-3.8-2.4-5.3-4.1c-1.5-1.8-2.6-3.9-3.4-6.1c-0.8-2.4-1.2-4.9-1.2-7.4
		c0-2.6,0.4-5.2,1.3-7.7c0.8-2.3,2-4.4,3.6-6.2c1.5-1.8,3.4-3.2,5.5-4.2c2.2-1,4.6-1.5,7.1-1.5c2.6-0.1,5.2,0.6,7.5,1.8
		c2.1,1.2,3.9,2.9,5.2,5v-6.2h10v34.8c0.1,3.5-0.9,6.9-2.8,9.8c-1.9,2.8-4.6,5-7.7,6.4c-3.6,1.6-7.5,2.3-11.4,2.2
		c-3.6,0.1-7.1-0.6-10.4-2c-2.9-1.3-5.5-3.2-7.6-5.6l6.2-6.2c1.4,1.6,3.2,2.9,5.2,3.8c2.1,0.9,4.3,1.4,6.6,1.4
		c1.8,0,3.5-0.3,5.2-0.9c1.5-0.6,2.9-1.6,3.8-3c1-1.6,1.5-3.5,1.5-5.5v-3.7c-1.1,2.1-2.9,3.7-5,4.7
		C278.3,556,275.9,556.6,273.5,556.6z M277.4,547.4c0.9,0,1.7-0.1,2.5-0.4c0.8-0.3,1.5-0.6,2.2-1.1c0.7-0.5,1.3-1,1.9-1.7
		c0.6-0.6,1-1.3,1.4-2.1v-7.9c-0.5-1.3-1.2-2.5-2.1-3.5c-0.8-0.9-1.9-1.7-3-2.3c-1.1-0.5-2.3-0.8-3.5-0.8c-1.2,0-2.3,0.3-3.4,0.8
		c-1.1,0.5-2,1.3-2.7,2.3c-0.7,1-1.3,2.1-1.7,3.3c-0.4,1.2-0.6,2.5-0.6,3.8c0,1.3,0.2,2.6,0.7,3.8c0.4,1.1,1.1,2.2,1.9,3
		c0.8,0.9,1.8,1.5,2.9,2C275,547.2,276.3,547.4,277.4,547.4L277.4,547.4z"/>
	<path class="st0" d="M346,553.8c-1,0.4-2.2,0.9-3.5,1.3c-1.3,0.4-2.6,0.8-4,1c-1.3,0.3-2.7,0.4-4.1,0.4c-1.8,0-3.6-0.3-5.3-1
		c-1.6-0.6-2.9-1.7-3.8-3.2c-1-1.8-1.5-3.8-1.4-5.8v-19.3h-4.8v-8.7h4.8v-12h11.5v12h7.7v8.7h-7.7v15.4c-0.1,1,0.3,1.9,0.9,2.6
		c0.7,0.6,1.5,0.8,2.4,0.8c0.9,0,1.8-0.2,2.6-0.4c0.8-0.2,1.6-0.6,2.4-0.9L346,553.8z"/>
	<path class="st0" d="M367.9,556.6c-2.9,0.1-5.9-0.5-8.6-1.6c-4.7-1.9-8.5-5.6-10.3-10.4c-0.9-2.3-1.3-4.8-1.3-7.3
		c0-2.5,0.4-5,1.3-7.4c0.9-2.3,2.2-4.4,3.9-6.2c1.8-1.8,4-3.3,6.4-4.2c2.7-1.1,5.6-1.6,8.6-1.6c2.9-0.1,5.8,0.5,8.5,1.6
		c4.7,1.9,8.4,5.7,10.3,10.4c0.9,2.3,1.4,4.8,1.4,7.4c0,2.5-0.5,5-1.4,7.3c-1.8,4.7-5.6,8.5-10.3,10.4
		C373.8,556.1,370.9,556.6,367.9,556.6z M359.5,537.3c0,1.7,0.3,3.4,1.1,5c0.7,1.4,1.7,2.5,3,3.3c1.3,0.8,2.8,1.2,4.3,1.2
		c1.5,0,3-0.4,4.3-1.2c1.3-0.8,2.3-2,3-3.4c0.7-1.5,1.1-3.2,1.1-5c0-1.7-0.3-3.4-1.1-5c-0.7-1.4-1.7-2.5-3-3.3
		c-2.6-1.6-5.9-1.6-8.6,0c-1.3,0.8-2.3,2-3,3.3C359.9,533.8,359.5,535.6,359.5,537.3L359.5,537.3z"/>
	<path class="st0" d="M453.4,555.8h-11.5v-20.8c0-2.4-0.5-4.2-1.4-5.3c-0.8-1.1-2.1-1.7-3.5-1.7c-1.7,0.1-3.3,0.7-4.5,1.8
		c-1.5,1.2-2.6,2.9-3.2,4.7v21.2h-11.5v-20.8c0-2.4-0.5-4.2-1.4-5.3c-0.8-1.1-2.2-1.7-3.5-1.7c-1.6,0.1-3.2,0.7-4.5,1.8
		c-1.5,1.2-2.6,2.8-3.2,4.6v21.3h-11.5v-37.3h10.3v6.3c1.4-2.2,3.3-4,5.6-5.1c2.6-1.3,5.4-1.9,8.3-1.8c3.1,0,5.5,0.7,7.2,2.2
		c1.6,1.3,2.7,3.1,3.2,5.1c1.4-2.3,3.4-4.1,5.7-5.4c2.5-1.3,5.2-1.9,8-1.9c2-0.1,4,0.4,5.8,1.3c1.4,0.8,2.6,2,3.4,3.4
		c0.8,1.4,1.3,3,1.6,4.6c0.3,1.6,0.4,3.2,0.4,4.8L453.4,555.8z"/>
	<path class="st0" d="M478.9,556.6c-2.9,0.1-5.9-0.5-8.6-1.6c-2.4-1-4.6-2.4-6.4-4.2c-1.7-1.8-3-3.9-3.9-6.2
		c-0.9-2.3-1.3-4.8-1.3-7.3c0-2.5,0.4-5,1.3-7.4c0.9-2.3,2.2-4.4,3.9-6.2c1.8-1.8,4-3.3,6.4-4.2c2.7-1.1,5.6-1.6,8.6-1.6
		c2.9-0.1,5.8,0.5,8.5,1.6c4.7,1.9,8.4,5.7,10.3,10.4c0.9,2.3,1.4,4.8,1.4,7.4c0,2.5-0.5,5-1.4,7.3c-1.8,4.7-5.6,8.5-10.3,10.4
		C484.7,556.1,481.8,556.6,478.9,556.6z M470.5,537.3c0,1.7,0.3,3.4,1.1,5c0.7,1.4,1.7,2.5,3,3.3c1.3,0.8,2.8,1.2,4.3,1.2
		c1.5,0,3-0.4,4.3-1.2c1.3-0.8,2.3-2,3-3.4c0.7-1.5,1.1-3.2,1.1-4.9c0-1.7-0.3-3.4-1.1-5c-0.7-1.4-1.7-2.5-3-3.3
		c-2.6-1.6-5.9-1.6-8.6,0c-1.3,0.8-2.3,2-3,3.3C470.8,533.9,470.4,535.6,470.5,537.3z"/>
	<path class="st0" d="M528.6,528c-2.6,0-5.1,0.4-7.5,1.3c-2,0.7-3.7,2.1-4.9,3.9v22.6h-11.5v-37.3h10.6v7.2c1.1-2.4,2.9-4.4,5-6
		c1.9-1.4,4.1-2.2,6.5-2.2h1.2c0.2,0,0.5,0,0.7,0.1L528.6,528z"/>
	<path class="st0" d="M557.3,528c-2.6,0-5.1,0.4-7.5,1.3c-2,0.7-3.7,2.1-4.9,3.9v22.6h-11.5v-37.3H544v7.2c1.1-2.4,2.9-4.4,5-6
		c1.9-1.4,4.1-2.2,6.5-2.2h1.2c0.2,0,0.5,0,0.7,0.1V528z"/>
	<path class="st0" d="M579.9,556.6c-2.9,0.1-5.9-0.5-8.6-1.6c-4.7-1.9-8.5-5.6-10.3-10.4c-0.9-2.3-1.3-4.8-1.3-7.3
		c0-2.5,0.4-5,1.3-7.4c0.9-2.3,2.2-4.4,3.9-6.2c1.8-1.8,4-3.3,6.4-4.2c2.7-1.1,5.6-1.6,8.6-1.6c2.9-0.1,5.8,0.5,8.5,1.6
		c2.4,1,4.5,2.4,6.3,4.2c1.7,1.8,3.1,3.9,4,6.2c0.9,2.3,1.4,4.8,1.4,7.4c0,2.5-0.4,5-1.4,7.3c-0.9,2.3-2.3,4.4-4,6.2
		c-1.8,1.8-3.9,3.3-6.3,4.2C585.7,556.1,582.8,556.6,579.9,556.6z M571.5,537.3c0,1.7,0.3,3.4,1.1,5c0.7,1.4,1.7,2.5,3,3.3
		c1.3,0.8,2.8,1.2,4.3,1.2c1.5,0,3-0.4,4.3-1.2c1.3-0.8,2.3-2,3-3.4c0.7-1.5,1.1-3.2,1.1-4.9c0-1.7-0.3-3.4-1.1-5
		c-0.7-1.4-1.7-2.5-3-3.3c-2.6-1.6-5.9-1.6-8.6,0c-1.3,0.8-2.3,2-3,3.3C571.8,533.8,571.4,535.6,571.5,537.3z"/>
	<path class="st0" d="M650.9,518.6h10.9l-15.6,37.3h-9.5l-5.8-15.2l-5.7,15.2h-9.5l-15.6-37.3h10.8l10.1,26.5l3.6-10.4l-6.8-16.2
		h9.4l3.6,11.2l3.6-11.2h9.3l-6.7,16.2l3.6,10.4L650.9,518.6z"/>
	<path class="st0" d="M664.4,523l1.7-9.1h-3.2v-10.5h11.7v10.8l-2.7,8.8H664.4z"/>
	<path class="st0" d="M691,556.6c-3.2,0-6.4-0.5-9.4-1.6c-2.9-1-5.6-2.6-7.8-4.7l3.9-7.2c2.1,1.5,4.3,2.8,6.7,3.8
		c1.9,0.8,4,1.3,6.1,1.3c1.2,0.1,2.4-0.2,3.4-0.7c0.8-0.4,1.3-1.2,1.2-2.1c0-0.6-0.2-1.2-0.7-1.7c-0.7-0.5-1.4-0.9-2.2-1.1
		c-1-0.3-2.2-0.7-3.6-1.1c-2.4-0.8-4.8-1.7-7.2-2.7c-1.7-0.7-3.2-1.9-4.3-3.3c-1-1.5-1.5-3.3-1.4-5.1c-0.1-2.3,0.6-4.6,1.9-6.5
		c1.4-1.9,3.2-3.4,5.4-4.3c2.7-1.1,5.5-1.6,8.4-1.6c2.6,0,5.1,0.4,7.6,1.2c2.6,0.9,4.9,2.3,6.9,4.1l-4.4,7.2
		c-1.8-1.3-3.7-2.4-5.7-3.2c-1.5-0.6-3.2-1-4.9-1c-0.8,0-1.5,0.1-2.2,0.3c-0.6,0.2-1.2,0.5-1.6,0.9c-0.4,0.5-0.6,1.1-0.6,1.7
		c0,0.6,0.2,1.2,0.6,1.7c0.6,0.5,1.2,0.9,1.9,1.1c0.9,0.3,2,0.7,3.3,1.1c2.6,0.7,5.2,1.6,7.8,2.7c1.8,0.7,3.4,1.9,4.6,3.4
		c1.1,1.6,1.6,3.4,1.5,5.3c0.2,3.4-1.4,6.7-4.1,8.8C699.5,555.5,695.7,556.6,691,556.6z"/>
	<path class="st0" d="M13.4,637.9L0,600.6h11.9l8.3,27l8.3-27h10.8l-13.3,37.3H13.4z"/>
	<path class="st0" d="M40.1,626.8c0-2.3,0.7-4.6,2.1-6.4c1.5-1.9,3.5-3.4,5.7-4.3c2.7-1.1,5.5-1.6,8.4-1.6c1.5,0,3,0.1,4.5,0.4
		c1.3,0.2,2.6,0.6,3.9,1.1v-1.6c0.1-1.7-0.6-3.4-1.9-4.6c-1.2-1.1-3.1-1.6-5.7-1.6c-2,0-4,0.3-5.9,1.1c-2.1,0.8-4,1.9-5.9,3.1
		L42,605c2.4-1.6,5-2.8,7.8-3.7c2.8-0.8,5.7-1.2,8.6-1.2c5.6,0,10,1.3,13.2,4c3.1,2.7,4.7,6.5,4.7,11.5v9.6
		c-0.1,0.8,0.1,1.7,0.5,2.4c0.5,0.5,1.2,0.8,1.9,0.8v9.5c-1,0.2-1.9,0.3-2.7,0.4c-0.7,0.1-1.5,0.1-2.2,0.1c-1.7,0.1-3.5-0.3-4.9-1.3
		c-1.1-0.9-1.9-2.1-2.1-3.5l-0.2-1.7c-1.6,2.1-3.6,3.8-6,4.9c-2.3,1.1-4.8,1.7-7.3,1.7c-2.3,0-4.6-0.5-6.7-1.6
		c-1.9-1-3.5-2.4-4.7-4.2C40.7,631.1,40.1,629,40.1,626.8z M63,628.2c0.5-0.4,0.9-0.9,1.3-1.4c0.3-0.4,0.5-0.9,0.5-1.5v-3.3
		c-1-0.4-2.1-0.7-3.2-0.9c-1.1-0.2-2.2-0.3-3.3-0.3c-1.8-0.1-3.7,0.4-5.2,1.3c-1.3,0.7-2.1,2.1-2.1,3.6c0,0.8,0.2,1.6,0.7,2.3
		c0.5,0.7,1.2,1.3,2,1.7c0.9,0.4,2,0.7,3,0.6c1.2,0,2.3-0.2,3.4-0.6C61.2,629.4,62.1,628.9,63,628.2L63,628.2z"/>
	<path class="st0" d="M102.6,638.6c-2.9,0-5.8-0.5-8.5-1.6c-2.4-1-4.6-2.4-6.4-4.2c-1.7-1.8-3.1-3.9-4-6.2c-0.9-2.3-1.4-4.8-1.4-7.4
		c0-3.3,0.8-6.6,2.4-9.5c1.6-2.9,4-5.4,6.9-7.1c3.3-1.9,7.1-2.8,10.9-2.7c3.9-0.1,7.7,0.8,11,2.8c2.9,1.7,5.2,4.2,6.7,7.2l-11.2,3.4
		c-0.7-1.1-1.6-2-2.8-2.7c-1.2-0.6-2.5-0.9-3.8-0.9c-1.5,0-3,0.4-4.3,1.2c-1.3,0.8-2.3,1.9-3,3.3c-0.8,1.6-1.2,3.3-1.1,5
		c0,1.7,0.4,3.5,1.1,5c0.7,1.4,1.7,2.5,3,3.4c1.3,0.8,2.7,1.2,4.2,1.2c0.9,0,1.8-0.1,2.7-0.5c0.8-0.3,1.6-0.8,2.3-1.3
		c0.7-0.5,1.2-1.2,1.6-1.9l11.2,3.4c-0.9,2-2.3,3.7-3.9,5.1c-1.8,1.5-3.8,2.7-6,3.5C108,638.2,105.3,638.7,102.6,638.6z"/>
	<path class="st0" d="M143.2,638.6c-2.9,0-5.8-0.5-8.5-1.6c-2.4-1-4.6-2.4-6.4-4.2c-1.7-1.8-3.1-3.9-4-6.2c-0.9-2.3-1.4-4.8-1.4-7.4
		c0-3.3,0.8-6.6,2.4-9.5c1.6-2.9,4-5.4,6.9-7.1c3.3-1.9,7.1-2.8,10.9-2.7c3.9-0.1,7.7,0.8,11,2.8c2.9,1.7,5.2,4.2,6.7,7.2l-11.2,3.4
		c-0.7-1.1-1.6-2-2.8-2.7c-1.2-0.6-2.5-0.9-3.8-0.9c-1.5,0-3,0.4-4.3,1.2c-1.3,0.8-2.3,1.9-3,3.3c-1.5,3.2-1.5,6.8,0,10
		c0.7,1.4,1.7,2.5,3,3.4c1.3,0.8,2.7,1.2,4.2,1.2c0.9,0,1.8-0.1,2.7-0.5c0.8-0.3,1.6-0.8,2.3-1.3c0.7-0.5,1.2-1.2,1.6-1.9l11.2,3.4
		c-0.9,2-2.3,3.7-3.9,5.1c-1.8,1.5-3.8,2.7-6,3.5C148.6,638.2,145.9,638.7,143.2,638.6z"/>
	<path class="st0" d="M166.2,595.9v-10.4h11.5v10.4H166.2z M166.2,637.9v-37.7h11.5v37.7H166.2z"/>
	<path class="st0" d="M221.9,637.9h-11.5v-20.8c0-2.4-0.5-4.2-1.4-5.3c-0.9-1.1-2.3-1.7-3.7-1.7c-1.1,0-2.2,0.3-3.2,0.8
		c-2.3,1.2-4.1,3.2-5,5.6v21.3h-11.5v-37.3h10.3v6.4c1-1.5,2.2-2.7,3.6-3.8c1.5-1.1,3.2-1.9,5-2.4c2-0.6,4-0.8,6.1-0.8
		c2.1-0.1,4.1,0.4,5.9,1.3c1.4,0.8,2.6,2,3.5,3.4c0.8,1.4,1.3,3,1.6,4.6c0.3,1.6,0.4,3.2,0.4,4.8L221.9,637.9z"/>
	<path class="st0" d="M247.5,638.6c-2.9,0-5.8-0.5-8.5-1.5c-2.4-0.9-4.5-2.4-6.4-4.2c-1.7-1.7-3.1-3.8-4-6.1
		c-0.9-2.3-1.4-4.7-1.4-7.2c0-3.4,0.8-6.8,2.4-9.8c1.6-3,4-5.4,6.9-7.1c6.8-3.6,15-3.6,21.8,0c2.9,1.7,5.3,4.1,6.9,7
		c1.6,2.9,2.4,6.1,2.4,9.4c0,0.7,0,1.3-0.1,2c-0.1,0.6-0.1,1.2-0.2,1.7h-27.9c0.1,1.5,0.6,2.9,1.4,4.1c0.8,1.1,1.8,2,3.1,2.5
		c1.2,0.6,2.6,0.9,3.9,0.9c1.7,0,3.4-0.4,4.9-1.2c1.4-0.7,2.5-1.9,3.1-3.3l9.8,2.7c-1,2-2.4,3.8-4.1,5.2c-1.8,1.6-3.9,2.8-6.2,3.6
		C252.9,638.3,250.2,638.7,247.5,638.6z M239.2,615.8h16.4c-0.2-1.4-0.6-2.7-1.4-3.9c-0.7-1.1-1.7-2-2.9-2.6c-2.5-1.2-5.4-1.2-7.9,0
		c-1.2,0.6-2.1,1.5-2.8,2.6C239.8,613.1,239.3,614.4,239.2,615.8z"/>
	<path class="st0" d="M287.3,638.6c-3.2,0-6.4-0.5-9.4-1.6c-2.9-1-5.6-2.6-7.8-4.7l4-7.3c2.1,1.6,4.3,2.8,6.7,3.8
		c1.9,0.8,4,1.3,6.1,1.3c1.2,0.1,2.4-0.2,3.4-0.7c0.8-0.4,1.3-1.2,1.2-2.1c0-0.6-0.2-1.3-0.7-1.7c-0.7-0.5-1.4-0.9-2.2-1.1
		c-1-0.3-2.2-0.7-3.6-1.1c-2.4-0.8-4.8-1.7-7.2-2.8c-1.7-0.7-3.2-1.9-4.3-3.3c-1-1.5-1.5-3.3-1.4-5.1c0-2.3,0.6-4.6,1.9-6.6
		c1.4-1.9,3.2-3.4,5.4-4.3c2.7-1.1,5.5-1.6,8.4-1.5c2.6,0,5.1,0.4,7.6,1.2c2.6,0.9,4.9,2.3,6.9,4.1l-4.5,7.2
		c-1.8-1.3-3.7-2.4-5.7-3.2c-1.6-0.6-3.2-1-4.9-1c-0.7,0-1.5,0.1-2.2,0.3c-0.6,0.2-1.2,0.5-1.6,0.9c-0.4,0.5-0.6,1.1-0.6,1.7
		c0,0.6,0.2,1.2,0.6,1.7c0.6,0.5,1.2,0.9,1.9,1.1c0.9,0.3,2,0.7,3.3,1.1c2.6,0.7,5.2,1.6,7.7,2.7c1.8,0.7,3.4,1.9,4.6,3.4
		c1.1,1.6,1.6,3.4,1.5,5.3c0.1,3.4-1.4,6.7-4.1,8.8C295.8,637.5,292,638.6,287.3,638.6z"/>
	<path class="st0" d="M349.7,635.9c-1.1,0.4-2.2,0.9-3.5,1.3c-1.3,0.4-2.6,0.8-4,1c-1.3,0.3-2.7,0.4-4.1,0.4c-1.8,0-3.6-0.3-5.3-1
		c-1.6-0.6-2.9-1.7-3.8-3.2c-1-1.8-1.5-3.8-1.4-5.8v-19.3h-4.8v-8.7h4.8v-12h11.5v12h7.7v8.7h-7.7v15.4c-0.1,1,0.2,1.9,0.9,2.6
		c0.7,0.6,1.5,0.8,2.4,0.8c0.9,0,1.8-0.2,2.6-0.4c0.8-0.2,1.6-0.6,2.4-0.9L349.7,635.9z"/>
	<path class="st0" d="M371.7,638.6c-2.9,0-5.8-0.5-8.6-1.6c-2.4-1-4.6-2.4-6.4-4.2c-1.7-1.8-3-3.9-3.9-6.2c-0.9-2.3-1.3-4.8-1.3-7.3
		c0-2.5,0.4-5,1.3-7.4c0.9-2.3,2.2-4.4,3.9-6.2c1.8-1.8,4-3.3,6.4-4.2c2.7-1.1,5.6-1.6,8.6-1.6c2.9-0.1,5.8,0.5,8.5,1.6
		c2.4,1,4.5,2.4,6.3,4.2c1.7,1.8,3.1,3.9,4,6.2c0.9,2.3,1.4,4.8,1.4,7.4c0,2.5-0.4,5-1.4,7.3c-0.9,2.3-2.3,4.4-4,6.2
		c-1.8,1.8-3.9,3.3-6.3,4.2C377.5,638.1,374.6,638.7,371.7,638.6z M363.3,619.4c0,1.7,0.3,3.4,1.1,5c0.7,1.4,1.7,2.5,3,3.3
		c1.3,0.8,2.8,1.2,4.3,1.2c1.5,0,3-0.4,4.3-1.2c1.3-0.8,2.3-2,3-3.4c0.7-1.6,1.1-3.3,1.1-5c0-1.7-0.3-3.4-1.1-5
		c-0.7-1.4-1.7-2.5-3-3.3c-1.3-0.8-2.8-1.2-4.3-1.2c-1.5,0-3,0.4-4.3,1.2c-1.3,0.8-2.3,2-3,3.3C363.6,615.9,363.2,617.6,363.3,619.4
		z"/>
	<path class="st0" d="M395.4,619.3c-0.1-3.4,0.7-6.7,2.2-9.8c1.3-2.8,3.4-5.2,5.9-6.9c2.5-1.7,5.6-2.6,8.6-2.5c2.5,0,5,0.6,7.2,1.9
		c2.1,1.2,3.8,2.9,4.9,5v-21.5h11.5v39.6c-0.1,0.8,0.1,1.7,0.6,2.4c0.5,0.5,1.2,0.8,1.9,0.8v9.6c-1.6,0.3-3.2,0.5-4.9,0.6
		c-1.7,0.1-3.4-0.4-4.8-1.3c-1.2-0.8-2-2.1-2.3-3.6l-0.2-1.9c-1.3,2.3-3.2,4.1-5.5,5.2c-2.2,1.1-4.7,1.7-7.2,1.7
		c-2.5,0-4.9-0.5-7.2-1.5c-2.2-0.9-4.1-2.3-5.7-4.1c-1.6-1.8-2.9-3.9-3.7-6.2C395.8,624.5,395.3,621.9,395.4,619.3z M424.1,623.8
		v-7.7c-0.4-1.2-1.1-2.3-2-3.3c-0.9-0.9-1.9-1.7-3-2.2c-2.1-1.1-4.7-1.1-6.8-0.1c-1,0.5-2,1.2-2.7,2.1c-0.8,0.9-1.4,2-1.8,3.1
		c-0.4,1.2-0.6,2.4-0.6,3.7c0,1.3,0.2,2.5,0.7,3.7c0.4,1.1,1.1,2.1,1.9,3c0.8,0.9,1.8,1.5,2.9,2c1.1,0.5,2.4,0.7,3.6,0.7
		c0.8,0,1.6-0.1,2.4-0.4c0.8-0.3,1.5-0.6,2.2-1c0.7-0.4,1.4-1,1.9-1.6C423.3,625.3,423.8,624.6,424.1,623.8z"/>
	<path class="st0" d="M442.1,626.8c0-2.3,0.7-4.6,2.1-6.4c1.5-1.9,3.5-3.4,5.7-4.3c2.7-1.1,5.5-1.6,8.4-1.6c1.5,0,3,0.1,4.5,0.4
		c1.3,0.2,2.6,0.6,3.9,1.1v-1.6c0.1-1.7-0.6-3.4-1.9-4.6c-1.2-1.1-3.1-1.6-5.7-1.6c-2,0-4,0.3-5.9,1.1c-2.1,0.8-4,1.9-5.8,3.1
		L444,605c2.4-1.6,5-2.8,7.8-3.7c2.8-0.8,5.7-1.2,8.6-1.2c5.7,0,10,1.3,13.2,4c3.1,2.7,4.7,6.5,4.7,11.5v9.6
		c-0.1,0.8,0.1,1.7,0.5,2.4c0.5,0.5,1.2,0.8,1.9,0.8v9.5c-1,0.2-1.8,0.3-2.7,0.4c-0.7,0.1-1.5,0.1-2.2,0.1c-1.7,0.1-3.5-0.3-4.9-1.3
		c-1.1-0.9-1.9-2.1-2.1-3.5l-0.2-1.7c-1.6,2.1-3.6,3.8-6,4.9c-2.3,1.1-4.8,1.7-7.3,1.7c-2.3,0-4.6-0.5-6.7-1.6
		c-1.9-1-3.5-2.4-4.7-4.2C442.7,631.1,442.1,629,442.1,626.8z M464.9,628.2c0.5-0.4,0.9-0.9,1.3-1.4c0.3-0.4,0.5-0.9,0.5-1.5v-3.3
		c-1-0.4-2.1-0.7-3.2-0.9c-1.1-0.2-2.2-0.3-3.3-0.3c-1.8-0.1-3.7,0.4-5.2,1.3c-1.3,0.7-2.1,2.1-2.1,3.6c0,0.8,0.2,1.6,0.7,2.3
		c0.5,0.7,1.2,1.3,2,1.7c0.9,0.4,2,0.7,3,0.6c1.2,0,2.3-0.2,3.5-0.6C463.1,629.4,464.1,628.9,464.9,628.2L464.9,628.2z"/>
	<path class="st0" d="M485.3,643.6c1,0.3,1.8,0.5,2.7,0.7c0.7,0.2,1.5,0.2,2.3,0.2c0.8,0,1.6-0.2,2.3-0.6c0.7-0.5,1.3-1.2,1.7-2
		c0.6-1.2,1-2.5,1.3-3.8l-14.4-37.4h11.8l8.8,25.7l7.5-25.7h10.9l-14.4,43.4c-0.6,2-1.7,3.8-3.1,5.4c-1.4,1.6-3.1,2.8-5,3.7
		c-2,0.9-4.2,1.3-6.5,1.3c-2,0-4-0.3-5.9-1.1L485.3,643.6z"/>
	<path class="st0" d="M520.5,637.9v-11.7h9.4v11.7H520.5z"/>
</g>
<g id="Layer_3">
	<g id="Group-3" transform="translate(825.000000, 0.000000)">
		<path id="Stroke-1" class="st1" d="M26.3,498.4c-4.9-0.1-8.9-4.1-8.8-9c0.1-4.9,4.1-8.9,9-8.8c4.9,0.1,8.9,4.1,8.8,9
			C35.3,494.5,31.3,498.5,26.3,498.4z"/>
		<path id="Stroke-3" class="st1" d="M87.5,547.5c0.1-8.4-6.6-15.3-15.1-15.4c-8.4-0.1-15.3,6.6-15.5,15.1
			c-0.1,8.4,6.6,15.3,15.1,15.5C80.5,562.7,87.4,555.9,87.5,547.5z"/>
		<path id="Stroke-5" class="st1" d="M151.5,591.6c0.1-11-8.7-20.1-19.7-20.2s-20.1,8.7-20.2,19.7c-0.1,11,8.7,20.1,19.7,20.2
			C142.3,611.5,151.3,602.6,151.5,591.6z"/>
		
			<linearGradient id="Stroke-7_00000168814382128249112410000014667913245527829397_" gradientUnits="userSpaceOnUse" x1="-301.2157" y1="460.1794" x2="-302.2157" y2="460.2414" gradientTransform="matrix(42.8835 0 0 -42.8837 13138.748 20353.9805)">
			<stop  offset="0" style="stop-color:#F67532"/>
			<stop  offset="1" style="stop-color:#F99B3B"/>
		</linearGradient>
		
			<path id="Stroke-7" style="fill-rule:evenodd;clip-rule:evenodd;fill:url(#Stroke-7_00000168814382128249112410000014667913245527829397_);" d="
			M221.6,618.7c0.2-11.8-9.3-21.6-21.2-21.7c-11.8-0.2-21.6,9.3-21.7,21.2c-0.2,11.8,9.3,21.6,21.2,21.7
			C211.7,640,221.4,630.6,221.6,618.7z"/>
		
			<linearGradient id="Stroke-9_00000018199887264849689420000002391614805694314663_" gradientUnits="userSpaceOnUse" x1="-302.2165" y1="460.5966" x2="-303.2165" y2="460.5966" gradientTransform="matrix(39.6333 0 0 -39.6334 12271.1465 18881.7227)">
			<stop  offset="0" style="stop-color:#EE5926"/>
			<stop  offset="1" style="stop-color:#F25D2A"/>
		</linearGradient>
		
			<path id="Stroke-9" style="fill-rule:evenodd;clip-rule:evenodd;fill:url(#Stroke-9_00000018199887264849689420000002391614805694314663_);" d="
			M293.3,627c0.1-10.9-8.6-19.9-19.6-20.1c-10.9-0.1-19.9,8.6-20.1,19.6c-0.1,10.9,8.6,19.9,19.6,20.1
			C284.2,646.7,293.2,637.9,293.3,627z"/>
		
			<linearGradient id="Stroke-11_00000022546651377281242050000000549373261427414712_" gradientUnits="userSpaceOnUse" x1="-305.9507" y1="462.2724" x2="-306.7797" y2="461.7309" gradientTransform="matrix(31.0626 0 0 -31.0626 9862.9111 14966.8369)">
			<stop  offset="0" style="stop-color:#EE5926"/>
			<stop  offset="1" style="stop-color:#EE5926"/>
		</linearGradient>
		
			<path id="Stroke-11" style="fill-rule:evenodd;clip-rule:evenodd;fill:url(#Stroke-11_00000022546651377281242050000000549373261427414712_);" d="
			M362,616c0.1-8.6-6.8-15.6-15.3-15.7c-8.6-0.1-15.6,6.8-15.7,15.3c-0.1,8.6,6.8,15.6,15.3,15.7C354.8,631.5,361.9,624.6,362,616z"
			/>
		
			<linearGradient id="Stroke-13_00000012432963487422243740000009696929414388623540_" gradientUnits="userSpaceOnUse" x1="-313.6707" y1="465.2988" x2="-314.142" y2="464.5703" gradientTransform="matrix(21.452 0 0 -21.4518 7148.2397 10559.5234)">
			<stop  offset="0" style="stop-color:#EE5926"/>
			<stop  offset="1" style="stop-color:#EE5926"/>
		</linearGradient>
		
			<path id="Stroke-13" style="fill-rule:evenodd;clip-rule:evenodd;fill:url(#Stroke-13_00000012432963487422243740000009696929414388623540_);" d="
			M424.8,586.4c0.1-5.9-4.7-10.8-10.6-10.9c-5.9-0.1-10.8,4.7-10.9,10.6c-0.1,5.9,4.7,10.8,10.6,10.9
			C419.9,597,424.7,592.3,424.8,586.4z"/>
		
			<linearGradient id="Stroke-15_00000157293261127444138690000003595024907442194563_" gradientUnits="userSpaceOnUse" x1="-323.7561" y1="469.2101" x2="-323.7561" y2="468.2101" gradientTransform="matrix(15.2911 0 0 -15.2911 5422.2622 7707.1924)">
			<stop  offset="0" style="stop-color:#D3523D"/>
			<stop  offset="1" style="stop-color:#D75436"/>
		</linearGradient>
		
			<path id="Stroke-15" style="fill-rule:evenodd;clip-rule:evenodd;fill:url(#Stroke-15_00000157293261127444138690000003595024907442194563_);" d="
			M479.3,540.2c0-4.2-3.3-7.7-7.6-7.7c-4.2,0-7.7,3.3-7.7,7.6c0,4.2,3.3,7.7,7.6,7.7C475.8,547.8,479.3,544.4,479.3,540.2z"/>
		
			<linearGradient id="Stroke-17_00000143617964081203347450000009054612667485853325_" gradientUnits="userSpaceOnUse" x1="-325.1065" y1="469.7307" x2="-325.1065" y2="468.7307" gradientTransform="matrix(14.7112 0 0 -14.7114 5298.104 7383.6841)">
			<stop  offset="0" style="stop-color:#6B3487"/>
			<stop  offset="1" style="stop-color:#703682"/>
		</linearGradient>
		
			<path id="Stroke-17" style="fill-rule:evenodd;clip-rule:evenodd;fill:url(#Stroke-17_00000143617964081203347450000009054612667485853325_);" d="
			M522.8,480.8c0-4.1-3.2-7.4-7.3-7.4c-4.1-0.1-7.4,3.2-7.5,7.3c0,4.1,3.2,7.4,7.3,7.5C519.4,488.1,522.7,484.8,522.8,480.8z"/>
		
			<linearGradient id="Stroke-19_00000175319849269089497130000010687641689029414546_" gradientUnits="userSpaceOnUse" x1="-317.3895" y1="466.7552" x2="-317.3895" y2="465.7552" gradientTransform="matrix(18.7817 0 0 -18.7813 6503.2939 9168.7793)">
			<stop  offset="0" style="stop-color:#66368A"/>
			<stop  offset="1" style="stop-color:#693587"/>
		</linearGradient>
		
			<path id="Stroke-19" style="fill-rule:evenodd;clip-rule:evenodd;fill:url(#Stroke-19_00000175319849269089497130000010687641689029414546_);" d="
			M551.6,412c0.1-5.2-4.1-9.5-9.3-9.5s-9.5,4.1-9.5,9.3c-0.1,5.2,4.1,9.4,9.3,9.5S551.5,417.2,551.6,412z"/>
		
			<linearGradient id="Stroke-21_00000091694315007221749980000000850621871117453977_" gradientUnits="userSpaceOnUse" x1="-309.3249" y1="463.6478" x2="-309.3249" y2="462.6478" gradientTransform="matrix(26.422 0 0 -26.4123 8723.0488 12571.3066)">
			<stop  offset="0" style="stop-color:#473E8D"/>
			<stop  offset="1" style="stop-color:#523D8C"/>
		</linearGradient>
		
			<path id="Stroke-21" style="fill-rule:evenodd;clip-rule:evenodd;fill:url(#Stroke-21_00000091694315007221749980000000850621871117453977_);" d="
			M563.3,338.7c0.1-7.3-5.7-13.3-13-13.4c-7.3-0.1-13.3,5.7-13.4,13c-0.1,7.3,5.7,13.3,13,13.4C557.2,351.8,563.2,346,563.3,338.7z"
			/>
		
			<linearGradient id="Stroke-23_00000008833971462488326670000009912872454946775728_" gradientUnits="userSpaceOnUse" x1="-304.5509" y1="461.7687" x2="-304.3702" y2="460.7687" gradientTransform="matrix(35.0127 0 0 -35.0128 11198.7803 16415.8984)">
			<stop  offset="0" style="stop-color:#294390"/>
			<stop  offset="1" style="stop-color:#36438F"/>
		</linearGradient>
		
			<path id="Stroke-23" style="fill-rule:evenodd;clip-rule:evenodd;fill:url(#Stroke-23_00000008833971462488326670000009912872454946775728_);" d="
			M556.3,265.8c0.1-9.7-7.6-17.6-17.3-17.7c-9.7-0.1-17.6,7.6-17.7,17.3c-0.1,9.7,7.6,17.6,17.3,17.7S556.2,275.5,556.3,265.8z"/>
		
			<linearGradient id="Stroke-25_00000165221962210627044810000013767435905037610148_" gradientUnits="userSpaceOnUse" x1="-302.3667" y1="460.8136" x2="-301.9279" y2="459.9567" gradientTransform="matrix(41.4336 0 0 -41.4334 13027.7197 19273.0547)">
			<stop  offset="0" style="stop-color:#204093"/>
			<stop  offset="1" style="stop-color:#224295"/>
		</linearGradient>
		
			<path id="Stroke-25" style="fill-rule:evenodd;clip-rule:evenodd;fill:url(#Stroke-25_00000165221962210627044810000013767435905037610148_);" d="
			M529.6,198.4c0.1-11.4-9-20.8-20.5-21c-11.4-0.1-20.8,9-21,20.4s9,20.8,20.5,21C520,219,529.4,209.8,529.6,198.4z"/>
		
			<linearGradient id="Stroke-27_00000047035104230550556040000012302143816364655545_" gradientUnits="userSpaceOnUse" x1="-301.4952" y1="460.2804" x2="-300.7019" y2="459.6732" gradientTransform="matrix(45.2038 0 0 -45.204 14072.7695 20933.2031)">
			<stop  offset="0" style="stop-color:#204093"/>
			<stop  offset="1" style="stop-color:#204093"/>
		</linearGradient>
		
			<path id="Stroke-27" style="fill-rule:evenodd;clip-rule:evenodd;fill:url(#Stroke-27_00000047035104230550556040000012302143816364655545_);" d="
			M485.1,141.1c0.2-12.5-9.8-22.7-22.3-22.9c-12.5-0.2-22.7,9.8-22.9,22.3s9.8,22.7,22.3,22.9C474.6,163.5,484.9,153.5,485.1,141.1z
			"/>
		
			<linearGradient id="Stroke-29_00000163791052718465849130000015925821234053578145_" gradientUnits="userSpaceOnUse" x1="-300.7496" y1="459.8483" x2="-299.8051" y2="459.463" gradientTransform="matrix(48.524 0 0 -48.524 14974.3037 22402.0176)">
			<stop  offset="0" style="stop-color:#1C4A9D"/>
			<stop  offset="1" style="stop-color:#204093"/>
		</linearGradient>
		
			<path id="Stroke-29" style="fill-rule:evenodd;clip-rule:evenodd;fill:url(#Stroke-29_00000163791052718465849130000015925821234053578145_);" d="
			M427,97.7c0.2-13.4-10.6-24.4-24-24.6c-13.4-0.2-24.4,10.6-24.6,24c-0.2,13.4,10.6,24.4,24,24.6C415.9,121.8,426.9,111.1,427,97.7
			z"/>
		
			<linearGradient id="Stroke-31_00000082337785324670944200000003749748373184523905_" gradientUnits="userSpaceOnUse" x1="-299.2841" y1="459.4352" x2="-300.2841" y2="459.4978" gradientTransform="matrix(50.9243 0 0 -50.9245 15600.2627 23469.0312)">
			<stop  offset="0" style="stop-color:#204093"/>
			<stop  offset="1" style="stop-color:#116AB6"/>
		</linearGradient>
		
			<path id="Stroke-31" style="fill-rule:evenodd;clip-rule:evenodd;fill:url(#Stroke-31_00000082337785324670944200000003749748373184523905_);" d="
			M359.3,71.3c0.2-14.1-11.1-25.6-25.1-25.8c-14.1-0.2-25.6,11.1-25.8,25.1c-0.2,14.1,11.1,25.6,25.1,25.8
			C347.6,96.6,359.2,85.3,359.3,71.3z"/>
		
			<linearGradient id="Stroke-33_00000089575092003638853810000008181197814961249694_" gradientUnits="userSpaceOnUse" x1="-300.3145" y1="459.4775" x2="-299.3145" y2="459.4775" gradientTransform="matrix(50.7843 0 0 -50.7843 15486.333 23397.625)">
			<stop  offset="0" style="stop-color:#078CD1"/>
			<stop  offset="1" style="stop-color:#0B75C0"/>
		</linearGradient>
		
			<path id="Stroke-33" style="fill-rule:evenodd;clip-rule:evenodd;fill:url(#Stroke-33_00000089575092003638853810000008181197814961249694_);" d="
			M285.9,63.7c0.2-14-11-25.5-25.1-25.7c-14-0.2-25.5,11-25.7,25.1c-0.2,14,11,25.5,25.1,25.7C274.2,89,285.7,77.7,285.9,63.7z"/>
		
			<linearGradient id="Stroke-35_00000142136171357171417410000015682618445924099734_" gradientUnits="userSpaceOnUse" x1="-299.8826" y1="459.8041" x2="-300.8826" y2="459.5916" gradientTransform="matrix(48.124 0 0 -48.124 14643.3115 22197.5332)">
			<stop  offset="0" style="stop-color:#0197D9"/>
			<stop  offset="1" style="stop-color:#02A9E8"/>
		</linearGradient>
		
			<path id="Stroke-35" style="fill-rule:evenodd;clip-rule:evenodd;fill:url(#Stroke-35_00000142136171357171417410000015682618445924099734_);" d="
			M211.7,75.4c0.2-13.3-10.5-24.2-23.8-24.4c-13.3-0.2-24.2,10.5-24.4,23.7s10.5,24.2,23.8,24.4C200.6,99.3,211.5,88.6,211.7,75.4z"
			/>
		
			<linearGradient id="Stroke-37_00000076574343520711107640000014852788507661440647_" gradientUnits="userSpaceOnUse" x1="-302.3439" y1="459.9939" x2="-301.5642" y2="460.6089" gradientTransform="matrix(42.0636 0 0 -42.0634 12821.5176 19467.1582)">
			<stop  offset="0" style="stop-color:#00B6F0"/>
			<stop  offset="1" style="stop-color:#00AFEC"/>
		</linearGradient>
		
			<path id="Stroke-37" style="fill-rule:evenodd;clip-rule:evenodd;fill:url(#Stroke-37_00000076574343520711107640000014852788507661440647_);" d="
			M141.3,105.6c0.1-11.6-9.1-21.2-20.8-21.3c-11.6-0.2-21.2,9.1-21.3,20.8c-0.2,11.6,9.1,21.2,20.8,21.3
			C131.6,126.5,141.2,117.2,141.3,105.6z"/>
		
			<linearGradient id="Stroke-39_00000019670454289090569420000004590007280624581010_" gradientUnits="userSpaceOnUse" x1="-306.2825" y1="462.4667" x2="-306.7067" y2="461.5562" gradientTransform="matrix(30.8526 0 0 -30.8526 9518.8076 14407.3662)">
			<stop  offset="0" style="stop-color:#02B1EE"/>
			<stop  offset="1" style="stop-color:#00B6F0"/>
		</linearGradient>
		
			<path id="Stroke-39" style="fill-rule:evenodd;clip-rule:evenodd;fill:url(#Stroke-39_00000019670454289090569420000004590007280624581010_);" d="
			M78.6,152.2c0.1-8.5-6.7-15.5-15.2-15.6s-15.5,6.7-15.6,15.2c-0.1,8.5,6.7,15.5,15.2,15.6C71.5,167.5,78.5,160.7,78.6,152.2z"/>
		
			<linearGradient id="Stroke-41_00000175296241279453376500000014072163169713575061_" gradientUnits="userSpaceOnUse" x1="-319.5917" y1="466.9114" x2="-318.5917" y2="466.9114" gradientTransform="matrix(17.7014 0 0 -17.7014 5668.395 8476.8662)">
			<stop  offset="0" style="stop-color:#00B6F0"/>
			<stop  offset="1" style="stop-color:#00B6F0"/>
		</linearGradient>
		
			<path id="Stroke-41" style="fill-rule:evenodd;clip-rule:evenodd;fill:url(#Stroke-41_00000175296241279453376500000014072163169713575061_);" d="
			M28.9,212c0.1-4.9-3.9-8.9-8.7-9c-4.9-0.1-8.9,3.9-9,8.7c-0.1,4.9,3.9,8.9,8.7,9C24.8,220.8,28.8,216.9,28.9,212z"/>
	</g>
</g>
</svg>
