<?xml version="1.0" encoding="UTF-8"?>
<svg width="256px" height="159px" viewBox="0 0 256 159" version="1.1" xmlns="http://www.w3.org/2000/svg" xmlns:xlink="http://www.w3.org/1999/xlink">
    <!-- Generator: Sketch 53.2 (72643) - https://sketchapp.com -->
    <title>Group 4</title>
    <desc>Created with Sketch.</desc>
    <defs>
        <linearGradient x1="50%" y1="9.35421499%" x2="50%" y2="130.040447%" id="linearGradient-1">
            <stop stop-color="#5CBBFF" offset="0%"></stop>
            <stop stop-color="#157CD6" offset="100%"></stop>
        </linearGradient>
        <linearGradient x1="50%" y1="0%" x2="50%" y2="100%" id="linearGradient-2">
            <stop stop-color="#65D6AD" offset="0%"></stop>
            <stop stop-color="#3EBD93" offset="100%"></stop>
        </linearGradient>
        <rect id="path-3" x="0" y="0" width="82" height="32" rx="16"></rect>
        <filter x="-6.1%" y="-12.5%" width="112.2%" height="131.2%" filterUnits="objectBoundingBox" id="filter-5">
            <feOffset dx="0" dy="1" in="SourceAlpha" result="shadowOffsetOuter1"></feOffset>
            <feGaussianBlur stdDeviation="1.5" in="shadowOffsetOuter1" result="shadowBlurOuter1"></feGaussianBlur>
            <feColorMatrix values="0 0 0 0 0   0 0 0 0 0   0 0 0 0 0  0 0 0 0.12 0" type="matrix" in="shadowBlurOuter1"></feColorMatrix>
        </filter>
        <linearGradient x1="50%" y1="0%" x2="50%" y2="100%" id="linearGradient-6">
            <stop stop-color="#EF4E4E" offset="0%"></stop>
            <stop stop-color="#E12D39" offset="100%"></stop>
        </linearGradient>
        <rect id="path-7" x="94" y="0" width="82" height="32" rx="16"></rect>
        <filter x="-6.1%" y="-12.5%" width="112.2%" height="131.2%" filterUnits="objectBoundingBox" id="filter-8">
            <feOffset dx="0" dy="1" in="SourceAlpha" result="shadowOffsetOuter1"></feOffset>
            <feGaussianBlur stdDeviation="1.5" in="shadowOffsetOuter1" result="shadowBlurOuter1"></feGaussianBlur>
            <feColorMatrix values="0 0 0 0 0   0 0 0 0 0   0 0 0 0 0  0 0 0 0.12 0" type="matrix" in="shadowBlurOuter1"></feColorMatrix>
        </filter>
    </defs>
    <g id="Symbols" stroke="none" stroke-width="1" fill="none" fill-rule="evenodd">
        <g id="How-It-Works/HIW-B" transform="translate(-318.000000, -93.000000)">
            <g id="Group-4" transform="translate(318.000000, 93.000000)">
                <path d="M41.4012875,24.7528118 C53.9726781,16.5923113 76.2874387,32.096648 114.488528,15.8743835 C164.135107,-5.20825991 204.424058,-5.20825991 230.598131,15.8743835 C256.772204,36.9570269 274.122015,89.1085297 223.673299,137.335169 C173.224582,185.561808 12.5278624,141.441293 3.15229849,118.749553 C-8.82180795,89.7685433 15.3538072,41.6610826 41.4012875,24.7528118 Z" id="Rectangle" fill="url(#linearGradient-1)" fill-rule="nonzero"></path>
                <g id="Group-3" transform="translate(45.000000, 44.000000)">
                    <g id="Group" transform="translate(0.000000, 29.000000)">
                        <mask id="mask-4" fill="white">
                            <use xlink:href="#path-3"></use>
                        </mask>
                        <g id="Rectangle" fill-rule="nonzero">
                            <use fill="black" fill-opacity="1" filter="url(#filter-5)" xlink:href="#path-3"></use>
                            <use fill="url(#linearGradient-2)" xlink:href="#path-3"></use>
                        </g>
                        <g id="icon-security-check" mask="url(#mask-4)">
                            <g transform="translate(11.000000, 8.000000)" id="Path">
                                <path d="M0,1.6 L6.5,0 L13,1.6 L13,8.848 C12.9986863,11.2701719 11.6087053,13.4840783 9.40875,14.568 L6.5,16 L3.59125,14.568 C1.39129467,13.4840783 0.00131365678,11.2701719 0,8.848 L0,1.6 Z" fill="#FFFFFF"></path>
                                <path d="M5.31897861,7.92058802 L8.70457325,4.20404505 C9.01883982,3.91262897 9.48450242,3.93592209 9.77332366,4.2575055 C10.0621449,4.57908891 10.0767569,5.09054988 9.80685988,5.43136854 L5.87012193,9.75293014 C5.56396693,10.0823566 5.0739903,10.0823566 4.7678353,9.75293014 L3.19314012,8.0243055 C2.92324312,7.68348684 2.9378551,7.17202586 3.22667634,6.85044245 C3.51549758,6.52885904 3.98116018,6.50556592 4.29542675,6.79698201 L5.31897861,7.92058802 Z" fill="#3EBD93"></path>
                            </g>
                        </g>
                        <g id="Rectangle-Copy" fill-rule="nonzero">
                            <use fill="black" fill-opacity="1" filter="url(#filter-8)" xlink:href="#path-7"></use>
                            <use fill="url(#linearGradient-6)" xlink:href="#path-7"></use>
                        </g>
                        <g id="Group-2" transform="translate(31.000000, 5.000000)">
                            <text id="12" font-family="HelveticaNeue-Bold, Helvetica Neue" font-size="12" font-weight="bold" line-spacing="12" fill="#FFFFFF">
                                <tspan x="25" y="12">12</tspan>
                            </text>
                            <text id="Forwarded" font-family="HelveticaNeue, Helvetica Neue" font-size="8" font-weight="normal" fill="#C6F7E2">
                                <tspan x="0" y="20">Forwarded</tspan>
                            </text>
                        </g>
                        <g id="Group-2-Copy" transform="translate(105.000000, 5.000000)">
                            <text id="47" font-family="HelveticaNeue-Bold, Helvetica Neue" font-size="12" font-weight="bold" line-spacing="12" fill="#FFFFFF">
                                <tspan x="46" y="12">47</tspan>
                            </text>
                            <text id="Blocked" font-family="HelveticaNeue, Helvetica Neue" font-size="8" font-weight="normal" fill="#FFBDBD">
                                <tspan x="30" y="20">Blocked</tspan>
                            </text>
                            <g id="icon-security-important" transform="translate(0.000000, 3.000000)">
                                <path d="M0,1.625 L6.5,0 L13,1.625 L13,8.98625 C12.9986863,11.4462683 11.6087053,13.694767 9.40875,14.795625 L6.5,16.25 L3.59125,14.795625 C1.39129467,13.694767 0.00131365678,11.4462683 0,8.98625 L0,1.625 Z" id="Path" fill="#FFFFFF"></path>
                                <path d="M5.39884271,7.08931331 L3.53009271,5.22056331 C3.25614594,4.89625726 3.27804273,4.41571872 3.58034841,4.11767086 C3.88265408,3.81962301 4.36345486,3.80454424 4.68384271,4.08306331 L6.54446771,5.93556331 L8.41321771,4.06681331 C8.73752376,3.79286654 9.2180623,3.81476332 9.51611016,4.117069 C9.81415801,4.41937468 9.82923678,4.90017546 9.55071771,5.22056331 L7.69821771,7.08931331 L9.56696771,8.95806331 C9.84091448,9.28236935 9.8190177,9.7629079 9.51671202,10.0609557 C9.21440635,10.3590036 8.73360556,10.3740824 8.41321771,10.0955633 L6.54446771,8.24306331 L4.67571771,10.1118133 C4.47547811,10.3421542 4.16304204,10.440848 3.86681873,10.3673321 C3.57059541,10.2938162 3.34055842,10.060493 3.27125146,9.76325673 C3.2019445,9.46602048 3.30505983,9.15501569 3.53821771,8.95806331 L5.39071771,7.08931331 L5.39884271,7.08931331 Z" id="Path" fill="#E12D39" fill-rule="nonzero"></path>
                            </g>
                        </g>
                    </g>
                    <g id="Primary-Logo-Reverse" transform="translate(40.000000, -0.000000)" fill="#FFFFFF">
                        <g id="Group">
                            <path d="M6.85714286,4.4 C7.51020735,4.4 8.10122184,4.5299987 8.63020408,4.79 C9.15918632,5.0500013 9.60979406,5.3966645 9.98204082,5.83 C10.3542876,6.2633355 10.6481622,6.7633305 10.8636735,7.33 C11.0791848,7.8966695 11.1999999,8.4866636 11.2261224,9.1 C11.2391837,9.300001 11.2457143,9.533332 11.2457143,9.8 C11.2457143,10.066668 11.2391837,10.299999 11.2261224,10.5 C11.1999999,11.1133364 11.0791848,11.7033305 10.8636735,12.27 C10.6481622,12.8366695 10.3542876,13.3366645 9.98204082,13.77 C9.60979406,14.2033355 9.15918632,14.5499987 8.63020408,14.81 C8.10122184,15.0700013 7.51020735,15.2 6.85714286,15.2 C6.45224287,15.2 6.08979752,15.1600004 5.76979592,15.08 C5.44979432,14.9999996 5.1689808,14.9000006 4.92734694,14.78 C4.68571308,14.6599994 4.48000085,14.5300007 4.31020408,14.39 C4.14040731,14.2499993 4.00326583,14.1200006 3.89877551,14 L3.89877551,14.46 C3.89877551,14.6066674 3.84653113,14.7333328 3.74204082,14.84 C3.6375505,14.9466672 3.51347011,15 3.36979592,15 L1.88081633,15 C1.73714214,15 1.61306175,14.9466672 1.50857143,14.84 C1.40408111,14.7333328 1.35183673,14.6066674 1.35183673,14.46 L1.35183673,1.34 C1.35183673,1.1933326 1.40408111,1.0666672 1.50857143,0.96 C1.61306175,0.8533328 1.73714214,0.8 1.88081633,0.8 L3.36979592,0.8 C3.51347011,0.8 3.6375505,0.8533328 3.74204082,0.96 C3.84653113,1.0666672 3.89877551,1.1933326 3.89877551,1.34 L3.89877551,5.6 C4.00326583,5.4799994 4.14040731,5.3500007 4.31020408,5.21 C4.48000085,5.0699993 4.68571308,4.9400006 4.92734694,4.82 C5.1689808,4.6999994 5.44979432,4.6000004 5.76979592,4.52 C6.08979752,4.4399996 6.45224287,4.4 6.85714286,4.4 Z M8.67918367,9.24 C8.60081593,8.373329 8.33959406,7.7500019 7.8955102,7.37 C7.45142635,6.9899981 6.90939096,6.8 6.26938776,6.8 C5.62938456,6.8 5.09061443,6.999998 4.65306122,7.4 C4.21550802,7.800002 3.96408196,8.3466632 3.89877551,9.04 C3.87265293,9.240001 3.85959184,9.4933318 3.85959184,9.8 C3.85959184,10.1066682 3.87265293,10.359999 3.89877551,10.56 C3.96408196,11.2800036 4.21550802,11.8333314 4.65306122,12.22 C5.09061443,12.6066686 5.62938456,12.8 6.26938776,12.8 C6.90939096,12.8 7.45142635,12.6100019 7.8955102,12.23 C8.33959406,11.8499981 8.60081593,11.226671 8.67918367,10.36 C8.71836754,9.9866648 8.71836754,9.6133352 8.67918367,9.24 Z M12.4016327,5.14 C12.4016327,4.9933326 12.453877,4.8666672 12.5583673,4.76 C12.6628577,4.6533328 12.7869381,4.6 12.9306122,4.6 L14.4195918,4.6 C14.563266,4.6 14.6873464,4.6533328 14.7918367,4.76 C14.8963271,4.8666672 14.9485714,4.9933326 14.9485714,5.14 L14.9485714,10.22 C14.9485714,11.020004 15.1151004,11.6599976 15.4481633,12.14 C15.7812262,12.6200024 16.3265268,12.86 17.0840816,12.86 C17.77633,12.86 18.3053043,12.6200024 18.6710204,12.14 C19.0367365,11.6599976 19.2195918,11.020004 19.2195918,10.22 L19.2195918,5.14 C19.2195918,4.9933326 19.2718362,4.8666672 19.3763265,4.76 C19.4808168,4.6533328 19.6048972,4.6 19.7485714,4.6 L21.237551,4.6 C21.3812252,4.6 21.5053056,4.6533328 21.6097959,4.76 C21.7142862,4.8666672 21.7665306,4.9933326 21.7665306,5.14 L21.7665306,14.46 C21.7665306,14.6066674 21.7142862,14.7333328 21.6097959,14.84 C21.5053056,14.9466672 21.3812252,15 21.237551,15 L19.7485714,15 C19.6048972,15 19.4808168,14.9466672 19.3763265,14.84 C19.2718362,14.7333328 19.2195918,14.6066674 19.2195918,14.46 L19.2195918,14 C18.9191822,14.3066682 18.546941,14.5833321 18.1028571,14.83 C17.6587733,15.0766679 17.1232684,15.2 16.4963265,15.2 C15.6995879,15.2 15.0400026,15.0733346 14.517551,14.82 C13.9950994,14.5666654 13.5771444,14.2266688 13.2636735,13.8 C12.9502025,13.3733312 12.7281639,12.8766695 12.597551,12.31 C12.4669381,11.7433305 12.4016327,11.1466698 12.4016327,10.52 L12.4016327,5.14 Z M28.2514286,7 C27.4677512,7 26.9028589,7.1766649 26.5567347,7.53 C26.2106105,7.8833351 26.037551,8.459996 26.037551,9.26 L26.037551,14.46 C26.037551,14.6066674 25.9853066,14.7333328 25.8808163,14.84 C25.776326,14.9466672 25.6522456,15 25.5085714,15 L24.0195918,15 C23.8759176,15 23.7518373,14.9466672 23.6473469,14.84 C23.5428566,14.7333328 23.4906122,14.6066674 23.4906122,14.46 L23.4906122,5.14 C23.4906122,4.9933326 23.5428566,4.8666672 23.6473469,4.76 C23.7518373,4.6533328 23.8759176,4.6 24.0195918,4.6 L25.5085714,4.6 C25.6522456,4.6 25.776326,4.6533328 25.8808163,4.76 C25.9853066,4.8666672 26.037551,4.9933326 26.037551,5.14 L26.037551,5.6 C26.3771446,5.2799984 26.7395899,5.0333342 27.124898,4.86 C27.510206,4.6866658 28.0163234,4.6 28.6432653,4.6 L29.524898,4.6 C29.6685721,4.6 29.7926525,4.6533328 29.8971429,4.76 C30.0016332,4.8666672 30.0538776,4.9933326 30.0538776,5.14 L30.0538776,6.46 C30.0538776,6.6066674 30.0016332,6.7333328 29.8971429,6.84 C29.7926525,6.9466672 29.6685721,7 29.524898,7 L28.2514286,7 Z M40.2612245,14.46 C40.2612245,14.6066674 40.2089801,14.7333328 40.1044898,14.84 C39.9999995,14.9466672 39.8759191,15 39.7322449,15 L38.2432653,15 C38.0995911,15 37.9755107,14.9466672 37.8710204,14.84 C37.7665301,14.7333328 37.7142857,14.6066674 37.7142857,14.46 L37.7142857,9.38 C37.7142857,8.579996 37.5314304,7.9400024 37.1657143,7.46 C36.7999982,6.9799976 36.2383711,6.74 35.4808163,6.74 C34.788568,6.74 34.2432673,6.9799976 33.844898,7.46 C33.4465286,7.9400024 33.2473469,8.579996 33.2473469,9.38 L33.2473469,14.46 C33.2473469,14.6066674 33.1951026,14.7333328 33.0906122,14.84 C32.9861219,14.9466672 32.8620415,15 32.7183673,15 L31.2293878,15 C31.0857136,15 30.9616332,14.9466672 30.8571429,14.84 C30.7526525,14.7333328 30.7004082,14.6066674 30.7004082,14.46 L30.7004082,5.14 C30.7004082,4.9933326 30.7526525,4.8666672 30.8571429,4.76 C30.9616332,4.6533328 31.0857136,4.6 31.2293878,4.6 L32.7183673,4.6 C32.8620415,4.6 32.9861219,4.6533328 33.0906122,4.76 C33.1951026,4.8666672 33.2473469,4.9933326 33.2473469,5.14 L33.2473469,5.6 C33.5869405,5.2533316 33.9853038,4.9666678 34.442449,4.74 C34.8995941,4.5133322 35.4416295,4.4 36.0685714,4.4 C36.8653101,4.4 37.5314259,4.5266654 38.0669388,4.78 C38.6024517,5.0333346 39.0334678,5.3733312 39.36,5.8 C39.6865322,6.2266688 39.9183667,6.7233305 40.0555102,7.29 C40.1926537,7.8566695 40.2612245,8.4533302 40.2612245,9.08 L40.2612245,14.46 Z M41.3779592,9.8 C41.3779592,9.0533296 41.4889785,8.3500033 41.7110204,7.69 C41.9330623,7.0299967 42.2530591,6.4566691 42.6710204,5.97 C43.0889817,5.4833309 43.5950991,5.1000014 44.1893878,4.82 C44.7836764,4.5399986 45.446527,4.4 46.1779592,4.4 C46.9093914,4.4 47.5722419,4.5366653 48.1665306,4.81 C48.7608193,5.0833347 49.2669367,5.4499977 49.684898,5.91 C50.1028592,6.3700023 50.4261213,6.9099969 50.6546939,7.53 C50.8832664,8.1500031 50.997551,8.7999966 50.997551,9.48 L50.997551,10.38 C50.997551,10.5266674 50.9453066,10.6533328 50.8408163,10.76 C50.736326,10.8666672 50.6122456,10.92 50.4685714,10.92 L43.924898,10.92 C43.924898,11.2266682 43.9869382,11.4966655 44.1110204,11.73 C44.2351027,11.9633345 44.4016316,12.1599992 44.6106122,12.32 C44.8195929,12.4800008 45.0612231,12.5999996 45.3355102,12.68 C45.6097973,12.7600004 45.8906108,12.8 46.1779592,12.8 C46.5959205,12.8 46.9355089,12.7566671 47.1967347,12.67 C47.4579605,12.5833329 47.6734685,12.473334 47.8432653,12.34 C47.9869395,12.2333328 48.1044893,12.1600002 48.1959184,12.12 C48.2873474,12.0799998 48.4114278,12.06 48.5681633,12.06 L50.1355102,12.06 C50.2791844,12.06 50.4065301,12.1133328 50.517551,12.22 C50.628572,12.3266672 50.6775511,12.4533326 50.6644898,12.6 C50.6514285,12.7866676 50.550205,13.0266652 50.3608163,13.32 C50.1714276,13.6133348 49.8873488,13.8999986 49.5085714,14.18 C49.129794,14.4600014 48.6628599,14.699999 48.1077551,14.9 C47.5526503,15.100001 46.9093914,15.2 46.1779592,15.2 C45.446527,15.2 44.7836764,15.0700013 44.1893878,14.81 C43.5950991,14.5499987 43.0889817,14.1800024 42.6710204,13.7 C42.2530591,13.2199976 41.9330623,12.6500033 41.7110204,11.99 C41.4889785,11.3299967 41.3779592,10.600004 41.3779592,9.8 Z M46.1779592,6.8 C45.7991818,6.8 45.4759197,6.8566661 45.2081633,6.97 C44.9404068,7.0833339 44.715103,7.2299991 44.5322449,7.41 C44.3493868,7.5900009 44.2089801,7.7899989 44.1110204,8.01 C44.0130607,8.2300011 43.9510205,8.439999 43.924898,8.64 L48.3526531,8.64 C48.3265305,8.439999 48.2775514,8.2300011 48.2057143,8.01 C48.1338772,7.7899989 48.0163273,7.5900009 47.8530612,7.41 C47.6897951,7.2299991 47.4742871,7.0833339 47.2065306,6.97 C46.9387742,6.8566661 46.5959205,6.8 46.1779592,6.8 Z M56.9142857,7 C56.1306083,7 55.565716,7.1766649 55.2195918,7.53 C54.8734677,7.8833351 54.7004082,8.459996 54.7004082,9.26 L54.7004082,14.46 C54.7004082,14.6066674 54.6481638,14.7333328 54.5436735,14.84 C54.4391832,14.9466672 54.3151028,15 54.1714286,15 L52.682449,15 C52.5387748,15 52.4146944,14.9466672 52.3102041,14.84 C52.2057138,14.7333328 52.1534694,14.6066674 52.1534694,14.46 L52.1534694,5.14 C52.1534694,4.9933326 52.2057138,4.8666672 52.3102041,4.76 C52.4146944,4.6533328 52.5387748,4.6 52.682449,4.6 L54.1714286,4.6 C54.3151028,4.6 54.4391832,4.6533328 54.5436735,4.76 C54.6481638,4.8666672 54.7004082,4.9933326 54.7004082,5.14 L54.7004082,5.6 C55.0400017,5.2799984 55.4024471,5.0333342 55.7877551,4.86 C56.1730632,4.6866658 56.6791805,4.6 57.3061224,4.6 L58.1877551,4.6 C58.3314293,4.6 58.4555097,4.6533328 58.56,4.76 C58.6644903,4.8666672 58.7167347,4.9933326 58.7167347,5.14 L58.7167347,6.46 C58.7167347,6.6066674 58.6644903,6.7333328 58.56,6.84 C58.4555097,6.9466672 58.3314293,7 58.1877551,7 L56.9142857,7 Z M61.9102041,5.6 C62.223675,5.2133314 62.6024468,4.9166677 63.0465306,4.71 C63.4906145,4.5033323 63.9542833,4.4 64.437551,4.4 C65.2604123,4.4 65.9330586,4.5566651 66.4555102,4.87 C66.9779618,5.1833349 67.3893863,5.5933308 67.6897959,6.1 C67.8595927,5.833332 68.0685702,5.5933344 68.3167347,5.38 C68.5648992,5.1666656 68.8293864,4.9866674 69.1102041,4.84 C69.3910218,4.6933326 69.6816312,4.5833337 69.9820408,4.51 C70.2824505,4.4366663 70.5763251,4.4 70.8636735,4.4 C71.608167,4.4 72.2285689,4.5266654 72.724898,4.78 C73.221227,5.0333346 73.6228556,5.3733312 73.9297959,5.8 C74.2367362,6.2266688 74.4522443,6.7233305 74.5763265,7.29 C74.7004088,7.8566695 74.762449,8.4533302 74.762449,9.08 L74.762449,14.46 C74.762449,14.6066674 74.7102046,14.7333328 74.6057143,14.84 C74.501224,14.9466672 74.3771436,15 74.2334694,15 L72.7444898,15 C72.6008156,15 72.4767352,14.9466672 72.3722449,14.84 C72.2677546,14.7333328 72.2155102,14.6066674 72.2155102,14.46 L72.2155102,9.18 C72.2155102,8.2733288 72.045716,7.6400018 71.7061224,7.28 C71.3665289,6.9199982 70.889799,6.74 70.2759184,6.74 C69.7534668,6.74 69.3061243,6.9133316 68.9338776,7.26 C68.5616308,7.6066684 68.3624491,8.213329 68.3363265,9.08 L68.3363265,14.46 C68.3363265,14.6066674 68.2840822,14.7333328 68.1795918,14.84 C68.0751015,14.9466672 67.9510211,15 67.8073469,15 L66.3183673,15 C66.1746932,15 66.0506128,14.9466672 65.9461224,14.84 C65.8416321,14.7333328 65.7893878,14.6066674 65.7893878,14.46 L65.7893878,9.18 C65.7893878,8.2733288 65.6195935,7.6400018 65.28,7.28 C64.9404065,6.9199982 64.4636765,6.74 63.8497959,6.74 C63.314283,6.74 62.8571448,6.9233315 62.4783673,7.29 C62.0995899,7.6566685 61.9102041,8.2866622 61.9102041,9.18 L61.9102041,14.46 C61.9102041,14.6066674 61.8579597,14.7333328 61.7534694,14.84 C61.6489791,14.9466672 61.5248987,15 61.3812245,15 L59.8922449,15 C59.7485707,15 59.6244903,14.9466672 59.52,14.84 C59.4155097,14.7333328 59.3632653,14.6066674 59.3632653,14.46 L59.3632653,5.14 C59.3632653,4.9933326 59.4155097,4.8666672 59.52,4.76 C59.6244903,4.6533328 59.7485707,4.6 59.8922449,4.6 L61.3812245,4.6 C61.5248987,4.6 61.6489791,4.6533328 61.7534694,4.76 C61.8579597,4.8666672 61.9102041,4.9933326 61.9102041,5.14 L61.9102041,5.6 Z M76.3885714,7.16 C76.4408166,6.8799986 76.5616317,6.5800016 76.7510204,6.26 C76.9404091,5.9399984 77.2081615,5.6400014 77.5542857,5.36 C77.9004099,5.0799986 78.3248954,4.8500009 78.8277551,4.67 C79.3306148,4.4899991 79.9150987,4.4 80.5812245,4.4 C81.2473503,4.4 81.8481606,4.4899991 82.3836735,4.67 C82.9191864,4.8500009 83.3795899,5.1133316 83.764898,5.46 C84.150206,5.8066684 84.4473459,6.2433307 84.6563265,6.77 C84.8653072,7.2966693 84.9697959,7.8999966 84.9697959,8.58 L84.9697959,14.46 C84.9697959,14.6066674 84.9175515,14.7333328 84.8130612,14.84 C84.7085709,14.9466672 84.5844905,15 84.4408163,15 L82.9518367,15 C82.8081625,15 82.6840822,14.9466672 82.5795918,14.84 C82.4751015,14.7333328 82.4228571,14.6066674 82.4228571,14.46 L82.4228571,13.8 C82.1485701,14.1866686 81.753472,14.5166653 81.237551,14.79 C80.7216301,15.0633347 80.0653101,15.2 79.2685714,15.2 C78.706936,15.2 78.2040839,15.1233341 77.76,14.97 C77.3159161,14.8166659 76.943675,14.6000014 76.6432653,14.32 C76.3428556,14.0399986 76.1110212,13.7100019 75.9477551,13.33 C75.784489,12.9499981 75.7028571,12.5333356 75.7028571,12.08 C75.7028571,11.1599954 76.0228539,10.4400026 76.6628571,9.92 C77.3028603,9.3999974 78.158362,9.0466676 79.2293878,8.86 L82.4228571,8.3 C82.4228571,7.7533306 82.2465324,7.3666678 81.8938776,7.14 C81.5412227,6.9133322 81.1036761,6.8 80.5812245,6.8 C80.2546922,6.8 80.0000009,6.8466662 79.8171429,6.94 C79.6342848,7.0333338 79.45796,7.1599992 79.2881633,7.32 C79.1706117,7.4266672 79.0628576,7.4999998 78.964898,7.54 C78.8669383,7.5800002 78.7591843,7.6 78.6416327,7.6 L76.8195918,7.6 C76.6889789,7.6 76.5779596,7.5600004 76.4865306,7.48 C76.3951016,7.3999996 76.3624488,7.293334 76.3885714,7.16 Z M79.6604082,12.8 C80.104492,12.8 80.4995901,12.7366673 80.8457143,12.61 C81.1918385,12.4833327 81.4824478,12.3133344 81.717551,12.1 C81.9526542,11.8866656 82.128979,11.646668 82.2465306,11.38 C82.3640822,11.113332 82.4228571,10.8400014 82.4228571,10.56 L82.4228571,10.36 L79.7583673,10.84 C79.2228545,10.9333338 78.8375522,11.0699991 78.602449,11.25 C78.3673458,11.4300009 78.2497959,11.6733318 78.2497959,11.98 C78.2497959,12.2600014 78.3902027,12.466666 78.6710204,12.6 C78.9518381,12.733334 79.2816308,12.8 79.6604082,12.8 Z M89.1428571,14.46 C89.1428571,14.6066674 89.0906128,14.7333328 88.9861224,14.84 C88.8816321,14.9466672 88.7575517,15 88.6138776,15 L87.124898,15 C86.9812238,15 86.8571434,14.9466672 86.7526531,14.84 C86.6481627,14.7333328 86.5959184,14.6066674 86.5959184,14.46 L86.5959184,5.14 C86.5959184,4.9933326 86.6481627,4.8666672 86.7526531,4.76 C86.8571434,4.6533328 86.9812238,4.6 87.124898,4.6 L88.6138776,4.6 C88.7575517,4.6 88.8816321,4.6533328 88.9861224,4.76 C89.0906128,4.8666672 89.1428571,4.9933326 89.1428571,5.14 L89.1428571,14.46 Z M88.7118367,0.8 C88.8555109,0.8 88.9795913,0.8533328 89.0840816,0.96 C89.188572,1.0666672 89.2408163,1.1933326 89.2408163,1.34 L89.2408163,2.9 C89.2408163,3.0466674 89.188572,3.1733328 89.0840816,3.28 C88.9795913,3.3866672 88.8555109,3.44 88.7118367,3.44 L87.0269388,3.44 C86.8832646,3.44 86.7591842,3.3866672 86.6546939,3.28 C86.5502036,3.1733328 86.4979592,3.0466674 86.4979592,2.9 L86.4979592,1.34 C86.4979592,1.1933326 86.5502036,1.0666672 86.6546939,0.96 C86.7591842,0.8533328 86.8832646,0.8 87.0269388,0.8 L88.7118367,0.8 Z M93.4138776,14.46 C93.4138776,14.6066674 93.3616332,14.7333328 93.2571429,14.84 C93.1526525,14.9466672 93.0285721,15 92.884898,15 L91.3959184,15 C91.2522442,15 91.1281638,14.9466672 91.0236735,14.84 C90.9191832,14.7333328 90.8669388,14.6066674 90.8669388,14.46 L90.8669388,1.34 C90.8669388,1.1933326 90.9191832,1.0666672 91.0236735,0.96 C91.1281638,0.8533328 91.2522442,0.8 91.3959184,0.8 L92.884898,0.8 C93.0285721,0.8 93.1526525,0.8533328 93.2571429,0.96 C93.3616332,1.0666672 93.4138776,1.1933326 93.4138776,1.34 L93.4138776,14.46 Z" id="burnermail-copy"></path>
                        </g>
                    </g>
                </g>
            </g>
        </g>
    </g>
</svg>