<?xml version="1.0" encoding="UTF-8"?>
<svg width="12px" height="12px" viewBox="0 0 12 12" version="1.1" xmlns="http://www.w3.org/2000/svg" xmlns:xlink="http://www.w3.org/1999/xlink">
    <!-- Generator: Sketch 53 (72520) - https://sketchapp.com -->
    <title>Path</title>
    <desc>Created with Sketch.</desc>
    <g id="Symbols" stroke="none" stroke-width="1" fill="none" fill-rule="evenodd">
        <g id="Hero-Sections/Hero-C/b" transform="translate(-492.000000, -369.000000)" fill="#FFDB00">
            <g id="Hero-B">
                <g id="Left" transform="translate(492.000000, 147.000000)">
                    <g id="Star-Rating" transform="translate(0.000000, 220.000000)">
                        <g id="icon-star-copy-4" transform="translate(0.000000, 1.000000)">
                            <path d="M3.53,11.93 C3.19387697,12.1058319 2.78720431,12.0763428 2.47996439,11.8538587 C2.17272447,11.6313746 2.0178206,11.2542048 2.08,10.88 L2.55,8.12 L0.55,6.17 C0.281029628,5.90450885 0.18470995,5.51006375 0.301044279,5.15048491 C0.417378607,4.79090608 0.726490432,4.52763 1.1,4.47 L3.87,4.07 L5.1,1.56 C5.26708644,1.21500967 5.61667741,0.995889894 6,0.995889894 C6.38332259,0.995889894 6.73291356,1.21500967 6.9,1.56 L8.13,4.06 L10.9,4.46 C11.2778306,4.51482334 11.5914749,4.7799966 11.7083741,5.14344693 C11.8252733,5.50689727 11.7250257,5.90519362 11.45,6.17 L9.45,8.12 L9.92,10.88 C9.9821794,11.2542048 9.82727553,11.6313746 9.52003561,11.8538587 C9.21279569,12.0763428 8.80612303,12.1058319 8.47,11.93 L6,10.63 L3.53,11.93 Z" id="Path"></path>
                        </g>
                    </g>
                </g>
            </g>
        </g>
    </g>
</svg>