<?xml version="1.0" encoding="UTF-8"?>
<svg width="170px" height="88px" viewBox="0 0 170 88" version="1.1" xmlns="http://www.w3.org/2000/svg" xmlns:xlink="http://www.w3.org/1999/xlink">
    <!-- Generator: Sketch 50.2 (55047) - http://www.bohemiancoding.com/sketch -->
    <title>product-hunt-1 (1)</title>
    <desc>Created with Sketch.</desc>
    <defs></defs>
    <g id="Page-1" stroke="none" stroke-width="1" fill="none" fill-rule="evenodd">
        <g id="landing" transform="translate(-888.000000, -1335.000000)" fill-rule="nonzero">
            <g id="press-logos" transform="translate(621.000000, 1335.000000)">
                <g id="product-hunt-1-(1)" transform="translate(267.000000, 0.000000)">
                    <g id="ph-bullet" transform="translate(56.000000, 0.000000)">
                        <path d="M58,29 C58,45.0225 45.0225,58 29,58 C12.9775,58 0,45.0225 0,29 C0,12.9775 12.9775,0 29,0 C45.0225,0 58,12.9775 58,29" id="Fill-1" fill="#CED7E1"></path>
                        <path d="M32.8666667,29 L24.65,29 L24.65,20.3 L32.8666667,20.3 C35.2591667,20.3 37.2166667,22.2575 37.2166667,24.65 C37.2166667,27.0425 35.2591667,29 32.8666667,29 M32.8666667,14.5 L18.85,14.5 L18.85,43.5 L24.65,43.5 L24.65,34.8 L32.8666667,34.8 C38.4733333,34.8 43.0166667,30.2566667 43.0166667,24.65 C43.0166667,19.0433333 38.4733333,14.5 32.8666667,14.5" id="Fill-3" fill="#FFFFFF"></path>
                    </g>
                    <g id="ph-text" transform="translate(0.000000, 68.000000)" fill="#CED7E1">
                        <path d="M11.1005666,6.24691358 C11.1005666,4.61728395 9.87252125,3.62962963 8.28328612,3.62962963 L4.02124646,3.62962963 L4.02124646,8.83950617 L8.28328612,8.83950617 C9.87252125,8.83950617 11.1005666,7.85185185 11.1005666,6.24691358 Z M0,19.7530864 L0,0 L8.8611898,0 C12.9787535,0 15.2181303,2.83950617 15.2181303,6.24691358 C15.2181303,9.62962963 12.9546742,12.4691358 8.8611898,12.4691358 L4.04532578,12.4691358 L4.04532578,19.7530864 L0,19.7530864 Z" id="Fill-5"></path>
                        <path d="M17.6501416,19.7530864 L17.6501416,5.35802469 L21.2620397,5.35802469 L21.2620397,7.25925926 C22.2492918,6.04938272 23.9348442,5.01234568 25.6444759,5.01234568 L25.6444759,8.61728395 C25.3796034,8.56790123 25.0665722,8.54320988 24.6572238,8.54320988 C23.4532578,8.54320988 21.8640227,9.2345679 21.286119,10.1481481 L21.286119,19.7777778 L17.6501416,19.7777778 L17.6501416,19.7530864 Z" id="Fill-7"></path>
                        <path d="M37.7563739,12.3703704 C37.7563739,10.1975309 36.5042493,8.2962963 34.2407932,8.2962963 C32.0014164,8.2962963 30.7492918,10.1975309 30.7492918,12.3703704 C30.7492918,14.5925926 32.0014164,16.4691358 34.2407932,16.4691358 C36.5042493,16.4691358 37.7563739,14.5679012 37.7563739,12.3703704 M26.9929178,12.3703704 C26.9929178,8.39506173 29.713881,5.01234568 34.2167139,5.01234568 C38.7677054,5.01234568 41.4886686,8.39506173 41.4886686,12.3703704 C41.4886686,16.345679 38.7677054,19.7530864 34.2167139,19.7530864 C29.713881,19.7530864 26.9929178,16.345679 26.9929178,12.3703704" id="Fill-9"></path>
                        <path d="M53.6246459,14.8641975 L53.6246459,9.90123457 C53.0226629,8.96296296 51.7223796,8.2962963 50.5424929,8.2962963 C48.4716714,8.2962963 47.0509915,9.95061728 47.0509915,12.3703704 C47.0509915,14.8148148 48.4716714,16.4691358 50.5424929,16.4691358 C51.7223796,16.4691358 53.0226629,15.8024691 53.6246459,14.8641975 Z M53.6246459,19.7530864 L53.6246459,17.6049383 C52.5410765,19.0123457 51.072238,19.7530864 49.3866856,19.7530864 C45.9433428,19.7530864 43.3186969,17.0864198 43.3186969,12.3703704 C43.3186969,7.80246914 45.8951841,5.01234568 49.3866856,5.01234568 C51,5.01234568 52.5410765,5.7037037 53.6246459,7.16049383 L53.6246459,0 L57.2606232,0 L57.2606232,19.7530864 L53.6246459,19.7530864 Z" id="Fill-11"></path>
                        <path d="M70.0708215,19.7530864 L70.0708215,17.6296296 C69.131728,18.6666667 67.4943343,19.7530864 65.2549575,19.7530864 C62.2450425,19.7530864 60.8243626,18.0740741 60.8243626,15.3333333 L60.8243626,5.35802469 L64.4362606,5.35802469 L64.4362606,13.8765432 C64.4362606,15.8271605 65.4235127,16.4691358 66.9645892,16.4691358 C68.3611898,16.4691358 69.4688385,15.6790123 70.0949008,14.8641975 L70.0949008,5.35802469 L73.7067989,5.35802469 L73.7067989,19.7530864 L70.0708215,19.7530864 Z" id="Fill-13"></path>
                        <path d="M76.3796034,12.3703704 C76.3796034,8.07407407 79.4376771,5.01234568 83.6515581,5.01234568 C86.4688385,5.01234568 88.1543909,6.27160494 89.0694051,7.55555556 L86.7096317,9.82716049 C86.0594901,8.83950617 85.072238,8.32098765 83.8201133,8.32098765 C81.6288952,8.32098765 80.111898,9.95061728 80.111898,12.3950617 C80.111898,14.8395062 81.6529745,16.4938272 83.8201133,16.4938272 C85.072238,16.4938272 86.0594901,15.9012346 86.7096317,14.962963 L89.0694051,17.2345679 C88.1543909,18.5185185 86.4688385,19.8024691 83.6515581,19.8024691 C79.4376771,19.7530864 76.3796034,16.691358 76.3796034,12.3703704" id="Fill-15"></path>
                        <path d="M92.1756374,15.8765432 L92.1756374,8.56790123 L89.9121813,8.56790123 L89.9121813,5.33333333 L92.1756374,5.33333333 L92.1756374,1.50617284 L95.7875354,1.50617284 L95.7875354,5.35802469 L98.5566572,5.35802469 L98.5566572,8.59259259 L95.7875354,8.59259259 L95.7875354,14.9135802 C95.7875354,15.8271605 96.2450425,16.4938272 97.0396601,16.4938272 C97.5694051,16.4938272 98.0991501,16.2962963 98.2917847,16.0493827 L99.0623229,18.8641975 C98.5325779,19.3580247 97.5694051,19.7777778 96.0524079,19.7777778 C93.5,19.7530864 92.1756374,18.4197531 92.1756374,15.8765432" id="Fill-17"></path>
                        <polygon id="Fill-19" points="121.624646 19.7530864 121.624646 11.2345679 112.691218 11.2345679 112.691218 19.7530864 108.669972 19.7530864 108.669972 0 112.691218 0 112.691218 7.62962963 121.624646 7.62962963 121.624646 0 125.694051 0 125.694051 19.7530864"></polygon>
                        <path d="M138.576487,19.7530864 L138.576487,17.6296296 C137.637394,18.6666667 136,19.7530864 133.760623,19.7530864 C130.750708,19.7530864 129.330028,18.0740741 129.330028,15.3333333 L129.330028,5.35802469 L132.941926,5.35802469 L132.941926,13.8765432 C132.941926,15.8271605 133.929178,16.4691358 135.470255,16.4691358 C136.866856,16.4691358 137.974504,15.6790123 138.600567,14.8641975 L138.600567,5.35802469 L142.212465,5.35802469 L142.212465,19.7530864 L138.576487,19.7530864 Z" id="Fill-21"></path>
                        <path d="M154.998584,19.7530864 L154.998584,10.9135802 C154.998584,8.96296296 154.011331,8.2962963 152.470255,8.2962963 C151.049575,8.2962963 149.966006,9.11111111 149.339943,9.92592593 L149.339943,19.7530864 L145.728045,19.7530864 L145.728045,5.35802469 L149.339943,5.35802469 L149.339943,7.16049383 C150.230878,6.12345679 151.916431,5.01234568 154.131728,5.01234568 C157.165722,5.01234568 158.610482,6.7654321 158.610482,9.48148148 L158.610482,19.7530864 L154.998584,19.7530864 Z" id="Fill-23"></path>
                        <path d="M162.944759,15.8765432 L162.944759,8.56790123 L160.681303,8.56790123 L160.681303,5.33333333 L162.944759,5.33333333 L162.944759,1.50617284 L166.556657,1.50617284 L166.556657,5.35802469 L169.325779,5.35802469 L169.325779,8.59259259 L166.556657,8.59259259 L166.556657,14.9135802 C166.556657,15.8271605 167.014164,16.4938272 167.808782,16.4938272 C168.338527,16.4938272 168.868272,16.2962963 169.060907,16.0493827 L169.831445,18.8641975 C169.3017,19.3580247 168.338527,19.7777778 166.82153,19.7777778 C164.269122,19.7530864 162.944759,18.4197531 162.944759,15.8765432" id="Fill-25"></path>
                    </g>
                </g>
            </g>
        </g>
    </g>
</svg>