<?xml version="1.0" encoding="UTF-8"?>
<svg width="32px" height="32px" viewBox="0 0 32 32" version="1.1" xmlns="http://www.w3.org/2000/svg" xmlns:xlink="http://www.w3.org/1999/xlink">
    <!-- Generator: Sketch 55.2 (78181) - https://sketchapp.com -->
    <title>testimonial_firefox</title>
    <desc>Created with Sketch.</desc>
    <defs>
        <radialGradient cx="86.8496638%" cy="30.0272996%" fx="86.8496638%" fy="30.0272996%" r="184.024457%" gradientTransform="translate(0.868497,0.300273),scale(1.000000,0.362882),rotate(2.554810),translate(-0.868497,-0.300273)" id="radialGradient-1">
            <stop stop-color="#FFEA00" offset="4.5%"></stop>
            <stop stop-color="#FFDE00" offset="12%"></stop>
            <stop stop-color="#FFBF00" offset="25.4%"></stop>
            <stop stop-color="#FF8E00" offset="42.9%"></stop>
            <stop stop-color="#FF272D" offset="76.9%"></stop>
            <stop stop-color="#E0255A" offset="87.2%"></stop>
            <stop stop-color="#CC2477" offset="95.3%"></stop>
            <stop stop-color="#C42482" offset="100%"></stop>
        </radialGradient>
        <radialGradient cx="70.8275826%" cy="12.3927561%" fx="70.8275826%" fy="12.3927561%" r="109.233694%" gradientTransform="translate(0.708276,0.123928),scale(1.000000,0.994695),translate(-0.708276,-0.123928)" id="radialGradient-2">
            <stop stop-color="#00CCDA" offset="0%"></stop>
            <stop stop-color="#0083FF" offset="22%"></stop>
            <stop stop-color="#007AF9" offset="26.1%"></stop>
            <stop stop-color="#0060E8" offset="33%"></stop>
            <stop stop-color="#005FE7" offset="33.3%"></stop>
            <stop stop-color="#2639AD" offset="43.8%"></stop>
            <stop stop-color="#401E84" offset="52.2%"></stop>
            <stop stop-color="#4A1475" offset="56.6%"></stop>
        </radialGradient>
        <linearGradient x1="56.5177405%" y1="75.2198361%" x2="36.8086422%" y2="6.80511416%" id="linearGradient-3">
            <stop stop-color="#000F43" stop-opacity="0.4" offset="0%"></stop>
            <stop stop-color="#001962" stop-opacity="0.173" offset="48.5%"></stop>
            <stop stop-color="#002079" stop-opacity="0" offset="100%"></stop>
        </linearGradient>
        <radialGradient cx="147.72731%" cy="-21.6638402%" fx="147.72731%" fy="-21.6638402%" r="171.815161%" gradientTransform="translate(1.477273,-0.216638),scale(0.923323,1.000000),rotate(5.761779),translate(-1.477273,0.216638)" id="radialGradient-4">
            <stop stop-color="#FFEA00" offset="0.3%"></stop>
            <stop stop-color="#FF272D" offset="49.7%"></stop>
            <stop stop-color="#C42482" offset="100%"></stop>
        </radialGradient>
        <radialGradient cx="135.976%" cy="-52.1307456%" fx="135.976%" fy="-52.1307456%" r="453.896488%" gradientTransform="translate(1.359760,-0.521307),scale(1.000000,0.541483),rotate(5.761779),translate(-1.359760,0.521307)" id="radialGradient-5">
            <stop stop-color="#FFE900" offset="0.3%"></stop>
            <stop stop-color="#FFAF0E" offset="15.7%"></stop>
            <stop stop-color="#FF7A1B" offset="31.6%"></stop>
            <stop stop-color="#FF4E26" offset="47.2%"></stop>
            <stop stop-color="#FF2C2E" offset="62.1%"></stop>
            <stop stop-color="#FF1434" offset="76.2%"></stop>
            <stop stop-color="#FF0538" offset="89.2%"></stop>
            <stop stop-color="#FF0039" offset="100%"></stop>
        </radialGradient>
        <radialGradient cx="211.883445%" cy="2.14494548%" fx="211.883445%" fy="2.14494548%" r="377.539423%" gradientTransform="translate(2.118834,0.021449),scale(0.533470,1.000000),rotate(5.761779),translate(-2.118834,-0.021449)" id="radialGradient-6">
            <stop stop-color="#FF272D" offset="0.3%"></stop>
            <stop stop-color="#C42482" offset="49.7%"></stop>
            <stop stop-color="#620700" offset="98.6%"></stop>
        </radialGradient>
        <radialGradient cx="76.8453227%" cy="39.179475%" fx="76.8453227%" fy="39.179475%" r="84.0433431%" gradientTransform="translate(0.768453,0.391795),scale(1.000000,0.959470),translate(-0.768453,-0.391795)" id="radialGradient-7">
            <stop stop-color="#FFEA00" offset="15.6%"></stop>
            <stop stop-color="#FFDE00" offset="23.1%"></stop>
            <stop stop-color="#FFBF00" offset="36.5%"></stop>
            <stop stop-color="#FF8E00" offset="54.1%"></stop>
            <stop stop-color="#FF272D" offset="76.3%"></stop>
            <stop stop-color="#F92433" offset="79.6%"></stop>
            <stop stop-color="#E91C45" offset="84.1%"></stop>
            <stop stop-color="#CF0E62" offset="89.3%"></stop>
            <stop stop-color="#B5007F" offset="93.5%"></stop>
        </radialGradient>
        <radialGradient cx="24.9534176%" cy="0.138231601%" fx="24.9534176%" fy="0.138231601%" r="249.815176%" gradientTransform="translate(0.249534,0.001382),scale(1.000000,0.396485),translate(-0.249534,-0.001382)" id="radialGradient-8">
            <stop stop-color="#FFEA00" offset="27.9%"></stop>
            <stop stop-color="#FFDD00" offset="40.2%"></stop>
            <stop stop-color="#FFBA00" offset="63%"></stop>
            <stop stop-color="#FF9100" offset="85.6%"></stop>
            <stop stop-color="#FF6711" offset="93.3%"></stop>
            <stop stop-color="#FF4A1D" offset="99.4%"></stop>
        </radialGradient>
        <linearGradient x1="-82.2555484%" y1="64.455333%" x2="121.169039%" y2="29.6659057%" id="linearGradient-9">
            <stop stop-color="#C42482" stop-opacity="0.5" offset="0%"></stop>
            <stop stop-color="#FF272D" stop-opacity="0.5" offset="47.4%"></stop>
            <stop stop-color="#FF2C2C" stop-opacity="0.513" offset="48.6%"></stop>
            <stop stop-color="#FF7A1A" stop-opacity="0.72" offset="67.5%"></stop>
            <stop stop-color="#FFB20D" stop-opacity="0.871" offset="82.9%"></stop>
            <stop stop-color="#FFD605" stop-opacity="0.964" offset="94.2%"></stop>
            <stop stop-color="#FFE302" offset="100%"></stop>
        </linearGradient>
        <linearGradient x1="52.9481506%" y1="94.8929888%" x2="36.1567612%" y2="5.47775928%" id="linearGradient-10">
            <stop stop-color="#891551" stop-opacity="0.6" offset="0%"></stop>
            <stop stop-color="#C42482" stop-opacity="0" offset="100%"></stop>
        </linearGradient>
        <linearGradient x1="27.0011607%" y1="6.68641317%" x2="48.856905%" y2="47.8860609%" id="linearGradient-11">
            <stop stop-color="#891551" stop-opacity="0.5" offset="0.5%"></stop>
            <stop stop-color="#FF272D" stop-opacity="0.5" offset="48.4%"></stop>
            <stop stop-color="#FF272D" stop-opacity="0" offset="100%"></stop>
        </linearGradient>
        <linearGradient x1="47.5090137%" y1="56.361967%" x2="50.0086151%" y2="47.7956819%" id="linearGradient-12">
            <stop stop-color="#C42482" offset="0%"></stop>
            <stop stop-color="#C42482" stop-opacity="0.81" offset="8.3%"></stop>
            <stop stop-color="#C42482" stop-opacity="0.565" offset="20.6%"></stop>
            <stop stop-color="#C42482" stop-opacity="0.362" offset="32.8%"></stop>
            <stop stop-color="#C42482" stop-opacity="0.204" offset="44.7%"></stop>
            <stop stop-color="#C42482" stop-opacity="0.091" offset="56.2%"></stop>
            <stop stop-color="#C42482" stop-opacity="0.023" offset="67.3%"></stop>
            <stop stop-color="#C42482" stop-opacity="0" offset="77.3%"></stop>
        </linearGradient>
        <linearGradient x1="40.8989464%" y1="1.6470824%" x2="58.8270646%" y2="89.4608567%" id="linearGradient-13">
            <stop stop-color="#FFF14F" offset="0%"></stop>
            <stop stop-color="#FFEE4C" offset="26.8%"></stop>
            <stop stop-color="#FFE643" offset="45.2%"></stop>
            <stop stop-color="#FFD834" offset="61.2%"></stop>
            <stop stop-color="#FFC41E" offset="75.7%"></stop>
            <stop stop-color="#FFAB02" offset="89.2%"></stop>
            <stop stop-color="#FFA900" offset="90.2%"></stop>
            <stop stop-color="#FFA000" offset="94.9%"></stop>
            <stop stop-color="#FF9100" offset="100%"></stop>
        </linearGradient>
        <linearGradient x1="70.04206%" y1="7.15860627%" x2="43.3270302%" y2="81.9478615%" id="linearGradient-14">
            <stop stop-color="#FF8E00" offset="0%"></stop>
            <stop stop-color="#FF8E00" stop-opacity="0.858" offset="4%"></stop>
            <stop stop-color="#FF8E00" stop-opacity="0.729" offset="8.4%"></stop>
            <stop stop-color="#FF8E00" stop-opacity="0.628" offset="13%"></stop>
            <stop stop-color="#FF8E00" stop-opacity="0.557" offset="17.8%"></stop>
            <stop stop-color="#FF8E00" stop-opacity="0.514" offset="22.7%"></stop>
            <stop stop-color="#FF8E00" stop-opacity="0.5" offset="28.2%"></stop>
            <stop stop-color="#FF8E00" stop-opacity="0.478" offset="38.9%"></stop>
            <stop stop-color="#FF8E00" stop-opacity="0.416" offset="52.4%"></stop>
            <stop stop-color="#FF8E00" stop-opacity="0.314" offset="67.6%"></stop>
            <stop stop-color="#FF8E00" stop-opacity="0.172" offset="83.8%"></stop>
            <stop stop-color="#FF8E00" stop-opacity="0" offset="100%"></stop>
        </linearGradient>
    </defs>
    <g id="Page-1" stroke="none" stroke-width="1" fill="none" fill-rule="evenodd">
        <g id="testimonial_firefox" fill-rule="nonzero">
            <circle id="Oval" stroke="#E1E7EC" fill="#FFFFFF" cx="16" cy="16" r="15.5"></circle>
            <g id="firefox-icon" transform="translate(6.000000, 5.000000)">
                <path d="M16.1485325,1.91945493 C15.646499,2.50402516 15.4126834,3.81964361 15.92174,5.15333333 C16.4307966,6.48702306 17.2110482,6.19735849 17.6974214,7.55737945 C18.339413,9.35192872 18.040587,11.7625996 18.040587,11.7625996 C18.040587,11.7625996 18.812369,13.9975891 19.3501887,11.623543 C20.540608,7.16436059 16.1485325,3.01754717 16.1485325,1.91945493 Z" id="Path" fill="url(#radialGradient-1)"></path>
                <path d="M10.0224738,20.4326625 C15.1636897,20.4326625 19.3285535,16.2452621 19.3285535,11.0819706 C19.3285535,5.91867925 15.1636897,1.73129979 10.0274633,1.73129979 C4.8912369,1.73129979 0.726397295,5.91870021 0.726397295,11.0819706 C0.716457023,16.2502516 4.88622642,20.4326625 10.0224738,20.4326625 Z" id="_Path_" fill="url(#radialGradient-2)"></path>
                <path d="M16.995283,16.8477149 C16.7941137,16.9896373 16.5830747,17.1170257 16.3637736,17.2289099 C16.6542795,16.8032508 16.9222916,16.3626683 17.1667086,15.9089727 C17.3650314,15.6894759 17.5467086,15.4761006 17.6947589,15.2453878 C17.7668134,15.1320335 17.8480713,14.9921593 17.9340881,14.8298952 C18.4565409,13.8885954 19.0326205,12.3652621 19.0489518,10.8005451 L19.0489518,10.7967715 C19.0493928,10.75826 19.0493928,10.7197275 19.0493928,10.681153 C19.0519491,10.2883838 19.0117954,9.89649169 18.9294969,9.51243187 C18.9336897,9.54243187 18.9373795,9.5724109 18.941153,9.60238994 C18.9365199,9.57932914 18.9326205,9.55601677 18.927652,9.53291405 C18.9353249,9.57555556 18.9414885,9.61677149 18.9481132,9.65834382 C19.0549057,10.5643606 18.978847,11.4481132 18.5983857,12.0996436 C18.5923899,12.1091614 18.5862264,12.1180713 18.5801677,12.1273795 C18.7774423,11.1371488 18.8434382,10.0437945 18.6239413,8.94918239 C18.6239413,8.94918239 18.5361635,8.41704403 17.8823061,6.80157233 C17.5059539,5.87174004 16.8375891,5.109413 16.247086,4.55404612 C15.7294759,3.91366876 15.2593711,3.48392034 15.0002306,3.21106918 C14.4589099,2.64106918 14.2320335,2.21381551 14.1388679,1.93503145 C14.0580922,1.8945283 13.0249266,0.890859539 12.9428512,0.852620545 C12.4918868,1.5518239 11.0736268,3.73888889 11.7482809,5.78230608 C12.0540252,6.70834382 12.8272537,7.66945493 13.636478,8.20863732 C13.6720126,8.24922432 14.1180084,8.73362683 14.3301048,9.82618449 C14.5490985,10.9549476 14.4339623,11.8357233 13.9832285,13.1381971 C13.4531237,14.2808595 12.0950314,15.4104822 10.8233962,15.5260377 C8.1048218,15.7730189 7.10958071,14.1610901 7.10958071,14.1610901 C8.08098532,14.5494549 9.15503145,14.468218 9.80819706,14.0655765 C10.466478,13.6583438 10.8646751,13.3564151 11.1878616,13.4754717 C11.5065199,13.5939832 11.7601887,13.249979 11.5325577,12.8933543 C11.1732047,12.3398676 10.5179785,12.0545636 9.86798742,12.1685535 C9.20901468,12.2756604 8.60538784,12.797673 7.74194969,12.2921174 C7.68606594,12.2596888 7.63197586,12.2242632 7.57991614,12.1859958 C7.5229979,12.1485744 7.76494759,12.242956 7.70849057,12.2004193 C7.54046122,12.1091405 7.24308176,11.9102306 7.16593291,11.8394759 C7.15308176,11.8276939 7.29631027,11.8851572 7.28345912,11.8733543 C6.47612159,11.2085325 6.57696017,10.759434 6.60232704,10.4777568 C6.62264151,10.2524109 6.76928721,9.9636478 7.01639413,9.84651992 C7.13574423,9.91165618 7.21010482,9.96138365 7.21010482,9.96138365 C7.21010482,9.96138365 7.15920335,9.85737945 7.13167715,9.80255765 C7.14132075,9.79836478 7.15054507,9.79947589 7.16014675,9.79538784 C7.25792453,9.84257862 7.47412998,9.96519916 7.58796646,10.039979 C7.73622642,10.1445493 7.78348008,10.2377987 7.78348008,10.2377987 C7.78348008,10.2377987 7.82251572,10.2163103 7.7936478,10.1251153 C7.78316562,10.0877149 7.73815514,9.96886792 7.59129979,9.84893082 L7.60048218,9.84995807 C7.68837902,9.90004046 7.77163653,9.95785837 7.84926625,10.0227254 C7.89067086,9.87218029 7.96513627,9.71498952 7.9487631,9.43379455 C7.9387631,9.23607966 7.94337526,9.1848847 7.90853249,9.10853249 C7.87733753,9.04295597 7.92601677,9.01737945 7.98018868,9.0854717 C7.97091653,9.03211846 7.95537927,8.98004614 7.93389937,8.93033543 L7.93436059,8.92522013 C8.00197065,8.68966457 9.36513627,8.07698113 9.46436059,8.00536688 C9.62738965,7.89001331 9.76409507,7.7413894 9.86545073,7.56930818 C9.94127883,7.44849057 9.99830189,7.27899371 10.0122013,7.02188679 C10.0196436,6.83647799 9.93339623,6.7129979 8.55503145,6.56867925 C8.17807128,6.53155136 7.95689727,6.25840671 7.83121593,6.0063522 C7.80828092,5.95205451 7.78490566,5.90285115 7.76150943,5.85368973 C7.73917831,5.79621777 7.72125099,5.73713049 7.7078826,5.6769392 C7.93322851,5.0297065 8.31186583,4.48245283 8.86861635,4.06897275 C8.89895178,4.04134172 8.74740042,4.0760587 8.77771488,4.04842767 C8.81308176,4.01618449 9.04408805,3.92312369 9.08771488,3.90215933 C9.14100629,3.8770021 8.85958071,3.75750524 8.61115304,3.78660377 C8.35813417,3.8151153 8.30440252,3.84530398 8.16937107,3.90255765 C8.22540881,3.84677149 8.40360587,3.7736478 8.3618239,3.77412998 C8.0890566,3.81595388 7.75010482,3.97450734 7.46035639,4.15408805 C7.45979183,4.12281721 7.46574423,4.09177221 7.47786164,4.06293501 C7.34283019,4.12020964 7.01119497,4.35199161 6.91465409,4.54809224 C6.91881455,4.510505 6.92067685,4.47269886 6.92023061,4.4348847 C6.81736497,4.52067571 6.72456342,4.61785888 6.64360587,4.72457023 L6.63855346,4.72916143 C5.85536688,4.4136478 5.16616352,4.39322851 4.58293501,4.53469602 C4.45534591,4.40656184 4.39301887,4.50023061 4.1027044,3.86238994 C4.08297694,3.82398323 4.11784067,3.90031447 4.1027044,3.86238994 C4.05494759,3.73870021 4.1318239,4.02742138 4.1027044,3.86238994 C3.61457023,4.24754717 2.97230608,4.68404612 2.66400419,4.99215933 C2.66018868,5.00444444 3.02366876,4.88943396 2.66400419,4.99215933 C2.53805031,5.02813417 2.54660377,5.10287212 2.52746331,5.77832285 C2.52285115,5.82953878 2.5269392,5.88689727 2.52278826,5.9329979 C2.27649895,6.24679245 2.1087631,6.51251572 2.04532495,6.65020964 C1.72681342,7.1990566 1.37601677,8.05465409 1.03597484,9.40809224 C1.18596156,9.04123603 1.36679125,8.6877611 1.57651992,8.35146751 C1.29375262,9.06985325 1.02039832,10.1979665 0.965744235,11.9352201 C1.03414736,11.576731 1.12185714,11.2221968 1.22849057,10.8731656 C1.16173456,12.3144554 1.41028309,13.7529532 1.95679245,15.0882809 C2.15236897,15.5667086 2.47587002,16.2927883 3.02658281,17.0882809 C4.75683438,18.908805 7.19733753,20.0421593 9.89979036,20.0421593 C12.7210063,20.0421593 15.2544025,18.8078197 16.995283,16.8477149 Z" id="Path" fill="url(#linearGradient-3)"></path>
                <path d="M14.9077568,18.169979 C18.3222222,17.7745912 19.8337317,14.2559329 17.8926834,14.1867505 C16.1393711,14.1307128 13.2904403,18.3565618 14.9077568,18.169979 Z" id="Path" fill="url(#radialGradient-4)"></path>
                <path d="M18.1385115,13.4680084 C20.4876939,12.1008386 19.8751782,9.14767296 19.8751782,9.14767296 C19.8751782,9.14767296 18.9685535,10.2008805 18.3526415,11.8797484 C17.7442348,13.5422013 16.7261426,14.2937526 18.1385115,13.4680084 Z" id="Path" fill="url(#radialGradient-5)"></path>
                <path d="M10.6807966,19.9174423 C13.9559958,20.9625367 16.7709434,18.3824319 15.0357862,17.5207966 C13.4581971,16.7437317 9.12628931,19.4232704 10.6807966,19.9174423 Z" id="Path" fill="url(#radialGradient-6)"></path>
                <path d="M18.3825786,14.7218868 C18.4622432,14.6094549 18.57,14.2494549 18.6651782,14.0885325 C19.2434172,13.1551363 19.2475052,12.4109015 19.2475052,12.3938574 C19.5967505,10.6492243 19.5650734,9.93683438 19.3502306,8.61937107 C19.1772537,7.55857442 18.4210482,6.038826 17.7659539,5.3070021 C17.0909015,4.55301887 17.566499,4.79867925 16.9128721,4.24792453 C16.339979,3.61285115 15.7845073,2.98396226 15.4819916,2.73104822 C13.2959119,0.903438155 13.345304,0.51524109 13.3874004,0.449056604 C13.3802935,0.456834382 13.3698532,0.468385744 13.3565409,0.483501048 C13.3306499,0.380293501 13.312369,0.293501048 13.312369,0.293501048 C13.312369,0.293501048 12.1174004,1.4884696 11.8658281,3.48008386 C11.7015933,4.78031447 12.1883229,6.1357652 12.8930818,7.00209644 C13.2600663,7.45106295 13.6748053,7.85877249 14.129979,8.21802935 L14.129979,8.21748428 C14.6624738,8.98220126 14.9555556,9.92584906 14.9555556,10.9409434 C14.9555556,13.4827463 12.8938994,15.5432704 10.3506918,15.5432704 C10.0040852,15.5434501 9.65855839,15.5046386 9.32062893,15.4275681 C8.12071279,15.1988889 7.42779874,14.5935849 7.08222222,14.1826625 C6.88417191,13.9471488 6.79995807,13.7754717 6.79995807,13.7754717 C7.87507338,14.160608 9.06381551,14.0800419 9.7867086,13.6807547 C10.5151992,13.2768763 10.9559748,12.9774843 11.3136897,13.0955346 C11.6663103,13.2130608 11.947044,12.8719078 11.6952411,12.51826 C11.4484696,12.1651153 10.8063522,11.6593501 9.85293501,11.7994759 C9.12360587,11.9057023 8.45551363,12.4233753 7.49989518,11.9220126 C7.438351,11.8900354 7.37849527,11.8549085 7.32056604,11.8167715 C7.25756813,11.7796436 7.52534591,11.8732704 7.46285115,11.8310692 C7.27689727,11.7405451 6.94769392,11.5432704 6.86236897,11.4731237 C6.84813417,11.4614465 7.00666667,11.5184277 6.99234801,11.5066667 C6.098826,10.8473585 6.21037736,10.4019916 6.23849057,10.1226415 C6.26098532,9.89916143 6.42327044,9.61278826 6.69675052,9.4966457 C6.828826,9.5612369 6.91113208,9.61054507 6.91113208,9.61054507 C6.91113208,9.61054507 6.85477987,9.50740042 6.82431866,9.45303983 C6.83498952,9.44897275 6.84515723,9.45 6.8557652,9.44593291 C6.96398323,9.49272537 7.20327044,9.61425577 7.32926625,9.68849057 C7.4933543,9.79220126 7.54566038,9.88467505 7.54566038,9.88467505 C7.54566038,9.88467505 7.58886792,9.86337526 7.55689727,9.77293501 C7.54522013,9.73584906 7.49549266,9.61798742 7.33295597,9.49903564 L7.34312369,9.50006289 C7.43961002,9.5492448 7.53172582,9.60656644 7.6184696,9.67140461 C7.66429769,9.5221174 7.74672956,9.36622642 7.72859539,9.08735849 C7.71752621,8.89129979 7.72264151,8.84050314 7.68406709,8.76480084 C7.64953878,8.69981132 7.70343816,8.67440252 7.7633543,8.74199161 C7.75298472,8.68868319 7.73576285,8.63694008 7.7121174,8.58805031 L7.71264151,8.58297694 C7.78748428,8.34937107 9.29618449,7.74178197 9.40599581,7.67075472 C9.58294792,7.55967958 9.73426579,7.41225632 9.84991614,7.23825996 C9.93377358,7.11844864 9.99696017,6.95035639 10.012348,6.69538784 C10.0175052,6.58050314 9.98213836,6.48958071 9.58257862,6.40262055 C9.3427673,6.35041929 8.97176101,6.29962264 8.39949686,6.24593291 C7.98230608,6.2091195 7.73750524,5.93825996 7.59840671,5.68828092 C7.57301887,5.63442348 7.54714885,5.58555556 7.52125786,5.53687631 C7.49664571,5.48020363 7.4767938,5.42158054 7.46190776,5.36161426 C7.71155258,4.70807063 8.1611409,4.1500159 8.74658281,3.7670021 C8.78012579,3.73958071 8.6124109,3.77402516 8.64595388,3.74662474 C8.6851153,3.71465409 8.94077568,3.62236897 8.98907757,3.60157233 C9.04805031,3.5767086 8.73658281,3.4581761 8.46163522,3.48698113 C8.18161426,3.51526205 8.12213836,3.5451782 7.97268344,3.60199161 C8.03471698,3.54666667 8.23192872,3.47410901 8.18570231,3.47463312 C7.88381551,3.51610063 7.50855346,3.6733543 7.18779874,3.85142558 C7.18721157,3.82020346 7.19384074,3.78926732 7.20716981,3.76102725 C7.05771488,3.81781971 6.69067086,4.04769392 6.58381551,4.24215933 C6.58841083,4.2049278 6.59047008,4.16742697 6.58997904,4.12991614 C6.47743744,4.21379199 6.37475662,4.31014317 6.28389937,4.41712788 L6.27830189,4.42169811 C5.41148847,4.10880503 4.64870021,4.08855346 4.00320755,4.228826 C3.86199161,4.10176101 3.63494759,3.90962264 3.3136478,3.27704403 C3.2918239,3.23895178 3.28010482,3.3557652 3.26333333,3.31815514 C3.13849057,3.02857442 3.0630608,2.55412998 3.07545073,2.22704403 C3.07545073,2.22704403 2.81721174,2.34473795 2.60348008,2.83626834 C2.56379455,2.92463312 2.53834382,2.97337526 2.51291405,3.0221174 C2.50121593,3.03633124 2.53943396,2.86069182 2.53333333,2.87025157 C2.49618449,2.93314465 2.40008386,3.02102725 2.35784067,3.13477987 C2.328826,3.21907757 2.28813417,3.26628931 2.26215933,3.37142558 L2.2560587,3.38106918 C2.25396226,3.35008386 2.26375262,3.25358491 2.25662474,3.27337526 C2.1564437,3.47577705 2.07023248,3.68479793 1.99859539,3.89897275 C1.88352201,4.2772956 1.74955975,4.79226415 1.72832285,5.46218029 C1.72320755,5.51297694 1.72775681,5.56985325 1.72314465,5.61557652 C1.45060797,5.92677149 1.26490566,6.19027254 1.19469602,6.32685535 C0.842348008,6.87132075 0.45408805,7.71983229 0.0777148847,9.06203354 C0.245167486,8.69539626 0.44540871,8.34464083 0.675995807,8.01404612 C0.363018868,8.72647799 0.0604821803,9.84524109 0,11.5681342 C0.0759712482,11.2115956 0.173081927,10.8598915 0.29081761,10.5148847 C0.236771488,11.6637317 0.370587002,13.0880503 1.09687631,14.6950314 C1.52811321,15.6402516 2.52079665,17.5597904 4.9463522,19.0577149 L4.94614256,19.0578616 C4.94614256,19.0578616 5.77129979,19.6721174 7.18968553,20.1324738 C7.29450734,20.1705031 7.40069182,20.2079455 7.5090566,20.2442767 C7.47505241,20.2305451 7.44215933,20.2161006 7.41020964,20.2012579 C8.35430001,20.4841216 9.33450825,20.6281868 10.3200629,20.6289358 C13.9925996,20.6320545 15.0757442,19.1572327 15.0757442,19.1572327 C15.0757442,19.1572327 15.0719287,19.1601048 15.0649895,19.1651363 C15.1168134,19.1163452 15.1667296,19.0656324 15.2147379,19.0129979 C14.635304,19.5601677 13.312956,19.596478 12.8185115,19.5570021 C13.661761,19.3093501 14.2166457,19.0998532 15.2959748,18.6865828 C15.4222781,18.6397624 15.5514326,18.5863732 15.6834382,18.5264151 C15.6977149,18.5201258 15.7121174,18.5133124 15.726457,18.5067925 C15.7526415,18.4945912 15.7785744,18.4830608 15.8050105,18.4702306 C16.3308817,18.2224185 16.8253641,17.9128515 17.2780084,17.5480713 C18.3618658,16.6822432 18.5976939,15.8382809 18.7209644,15.2818239 C18.7037736,15.3351572 18.6502096,15.4594969 18.6125786,15.540021 C18.3334382,16.1371279 17.7144444,16.503522 17.0421803,16.8177568 C17.3620814,16.398022 17.6587387,15.9610705 17.9308176,15.5088679 C18.1502516,15.291195 18.2187212,14.9506918 18.3825786,14.7218868 Z" id="Path" fill="url(#radialGradient-7)"></path>
                <path d="M17.0633333,16.7920755 C17.5052621,16.3048428 17.9021174,15.7475472 18.2027254,15.1155975 C18.9763103,13.4891405 20.172369,10.7847799 19.2303564,7.96033543 C18.4858491,5.72798742 17.4636478,4.50733753 16.1657652,3.31492662 C14.0579245,1.37853249 13.4692243,0.514067086 13.4692243,0 C13.4692243,0 11.0354927,2.71297694 12.0909853,5.54257862 C13.146478,8.37218029 15.3081761,8.26844864 16.7383438,11.2212788 C18.4212579,14.6960168 15.3767296,18.4878197 12.8590147,19.5491195 C13.0131656,19.5148847 18.45587,18.2832285 18.7419078,15.1700419 C18.7354298,15.2272956 18.6127883,16.0883438 17.0633333,16.7920755 Z" id="Path" fill="url(#radialGradient-8)"></path>
                <path d="M10.0124109,6.69545073 C10.0206499,6.51159329 9.92528302,6.38811321 8.4048218,6.24549266 C7.77926625,6.18773585 7.53972746,5.60955975 7.4667086,5.36622642 C7.24427673,5.94410901 7.15243187,6.55050314 7.20180294,7.28398323 C7.23555556,7.76448637 7.55838574,8.28023061 7.7127044,8.58303983 C7.7127044,8.58303983 7.7470021,8.5384696 7.76283019,8.52199161 C8.05341719,8.21945493 9.27092243,7.75849057 9.38530398,7.69303983 C9.51138365,7.61339623 9.9912369,7.26278826 10.0124109,6.69545073 Z" id="Path" fill="url(#linearGradient-9)"></path>
                <path d="M3.31895178,3.28031447 C3.29712788,3.24220126 3.28540881,3.35901468 3.26863732,3.32142558 C3.14379455,3.03184486 3.06784067,2.56251572 3.08582809,2.23081761 C3.08582809,2.23081761 2.8275891,2.34851153 2.61385744,2.84004193 C2.57417191,2.92840671 2.54872117,2.97714885 2.5232914,3.02589099 C2.51159329,3.04010482 2.54981132,2.86446541 2.54371069,2.87402516 C2.50658281,2.93691824 2.41048218,3.02480084 2.36874214,3.13345912 C2.33412998,3.22232704 2.29853249,3.27004193 2.27203354,3.38025157 C2.26387841,3.41020964 2.28025157,3.24769392 2.27312369,3.26748428 C1.77603774,4.2281761 1.68115304,5.68077568 1.73354298,5.6193501 C2.79178197,4.48937107 4.00450734,4.22138365 4.00450734,4.22138365 C3.8754717,4.12633124 3.5951153,3.85188679 3.31897275,3.28031447 L3.31895178,3.28031447 Z" id="Path" fill="url(#linearGradient-10)"></path>
                <path d="M7.33425577,15.0964361 C5.87253669,14.472348 4.21073375,13.5921384 4.27345912,11.5924948 C4.35888889,8.95897275 6.72932914,9.47947589 6.72932914,9.47947589 C6.63987421,9.50125786 6.40071279,9.67155136 6.31595388,9.8530608 C6.22637317,10.0800419 6.06293501,10.5925996 6.55811321,11.1297904 C7.33566038,11.9723899 4.96062893,13.1288679 8.62651992,15.3135849 C8.71897275,15.3638994 7.76716981,15.2836059 7.33429769,15.0964361 L7.33425577,15.0964361 Z" id="Path" fill="url(#linearGradient-11)"></path>
                <path d="M6.81496855,13.7840671 C7.85148847,14.1448008 9.05899371,14.0815304 9.78190776,13.6822222 C10.26587,13.4128092 10.8867296,12.9812998 11.2687421,13.0878197 C10.9379874,12.957086 10.6874843,12.8959958 10.3861426,12.8810692 C10.3348218,12.8810692 10.2733124,12.879979 10.2174214,12.8743606 C10.1070525,12.8740032 9.99675567,12.8800441 9.88708595,12.8924528 C9.70050314,12.9096017 9.49366876,13.0273166 9.30563941,13.0084277 C9.2954717,13.0074004 9.48802935,12.9293082 9.47236897,12.9328512 C9.37274633,12.9536268 9.26450734,12.9581132 9.15014675,12.9722851 C9.07746331,12.9803774 9.01494759,12.9894759 8.94278826,12.9924738 C6.78383648,13.1755556 4.95920335,11.8223899 4.95920335,11.8223899 C4.80389937,12.3454507 5.65450734,13.3800419 6.81498952,13.7840671 L6.81496855,13.7840671 Z" id="Path" fill="url(#linearGradient-12)"></path>
                <path d="M17.0594969,16.8059958 C19.2431866,14.6619706 20.3480084,12.0557862 19.8809434,9.13264151 C19.8809434,9.13264151 20.0675262,10.6315933 19.360021,12.1646751 C19.6999161,10.6679665 19.7394759,8.80798742 18.8364361,6.88190776 C17.6311321,4.31102725 15.648847,2.95825996 14.8920545,2.39389937 C13.7454088,1.53878407 13.2700839,0.668134172 13.2615094,0.488469602 C12.9189727,1.1902935 11.8827673,3.59538784 13.1501887,5.66666667 C14.3376101,7.60721174 16.2081551,8.18320755 17.517652,9.96324948 C19.9301258,13.2424948 17.0594969,16.8059958 17.0594969,16.8059958 Z" id="Path" fill="url(#linearGradient-13)"></path>
                <path d="M16.7466247,11.2274843 C15.9834801,9.6509434 15.0309853,8.96331237 14.129979,8.21802935 C14.2348008,8.36477987 14.2606289,8.41662474 14.3186583,8.5115304 C15.1116771,9.35672956 16.2810692,11.4183648 15.4320755,14.0064361 C13.8339832,18.8780294 7.44165618,16.5840042 6.77148847,15.9396017 C7.04259958,18.7590776 11.761761,20.10826 14.8343816,18.2798532 C16.5828092,16.6247379 17.9972327,13.8110692 16.7466247,11.2274843 Z" id="Path" fill="url(#linearGradient-14)"></path>
            </g>
        </g>
    </g>
</svg>