<?xml version="1.0" encoding="UTF-8"?>
<svg width="125px" height="25px" viewBox="0 0 125 25" version="1.1" xmlns="http://www.w3.org/2000/svg" xmlns:xlink="http://www.w3.org/1999/xlink">
    <!-- Generator: Sketch 55.2 (78181) - https://sketchapp.com -->
    <title>wired</title>
    <desc>Created with Sketch.</desc>
    <g id="Page-1" stroke="none" stroke-width="1" fill="none" fill-rule="evenodd">
        <g id="wired" fill="#CED7E1" fill-rule="nonzero">
            <path d="M105.375,3.875 L105.375,21.125 L113.875,21.125 C116.25,21.125 117.625,20.75 118.625,19.875 C119.875,18.75 120.5,16.75 120.5,12.5 C120.5,8.25 119.875,6.25 118.625,5.125 C117.625,4.25 116.25,3.875 113.875,3.875 L105.375,3.875 Z M117,12.5 C117,16.25 116.75,17.125 116,17.625 C115.5,18 114.875,18.125 113.625,18.125 L108.875,18.125 L108.875,6.75 L113.625,6.75 C114.875,6.75 115.5,6.75 116,7.25 C116.75,7.875 117,8.75 117,12.5 Z M124.875,24.938 L99.937,24.938 L99.937,0 L124.875,0 L124.875,24.938 Z M79.563,6.75 L79.563,3.875 L94.313,3.875 L94.313,9.375 L91.187,9.375 L91.187,6.75 L85.187,6.75 L85.187,10.875 L89.937,10.875 L89.937,13.625 L85.187,13.625 L85.187,18.25 L91.313,18.25 L91.313,15.25 L94.437,15.25 L94.437,21.125 L79.564,21.125 L79.564,18.25 L81.938,18.25 L81.938,6.75 L79.563,6.75 Z M66.188,16.625 C66.188,18.5 66.312,19.875 66.562,21 L69.938,21 C69.812,20.125 69.688,18.5 69.688,16.375 C69.562,13.875 68.812,13.5 67.062,13.125 C69.062,12.75 69.938,11.875 69.938,8.75 C69.938,6.25 69.562,5.25 68.812,4.625 C68.312,4.125 67.438,3.875 66.062,3.875 L55.562,3.875 L55.562,21.125 L59.062,21.125 L59.062,14.375 L63.938,14.375 C64.938,14.375 65.312,14.5 65.688,14.75 C66.064,15 66.188,15.375 66.188,16.625 L66.188,16.625 Z M59.062,11.625 L59.062,6.875 L64.688,6.875 C65.438,6.875 65.688,7 65.812,7.125 C66.062,7.375 66.312,7.75 66.312,9.25 C66.312,10.75 66.062,11.25 65.812,11.5 C65.688,11.625 65.438,11.75 64.688,11.75 L59.062,11.625 Z M74.938,24.938 L49.938,24.938 L49.938,0 L74.875,0 L74.875,24.938 L74.938,24.938 Z M43.438,18.25 L43.438,21.125 L31.562,21.125 L31.562,18.25 L35.812,18.25 L35.812,6.75 L31.562,6.75 L31.562,3.875 L43.437,3.875 L43.437,6.75 L39.187,6.75 L39.187,18.25 L43.438,18.25 Z M23.375,3.875 L20.125,3.875 L17.75,17.5 L15,4.875 C14.875,4 14.5,3.875 13.75,3.875 L12,3.875 C11.25,3.875 10.875,4.125 10.75,4.875 L8,17.5 L5.625,3.875 L2.125,3.875 L5.5,20.25 C5.625,21 5.875,21.125 6.75,21.125 L9.125,21.125 C9.875,21.125 10.125,21 10.375,20.25 L13,8.375 L15.625,20.25 C15.75,21 16,21.125 16.875,21.125 L19.125,21.125 C19.875,21.125 20.25,21 20.375,20.25 L23.375,3.875 Z M25.125,24.938 L0.125,24.938 L0.125,0 L25.063,0 L25.063,24.938 L25.125,24.938 Z" id="Shape"></path>
        </g>
    </g>
</svg>