<?xml version="1.0" encoding="UTF-8"?>
<svg width="123px" height="56px" viewBox="0 0 123 56" version="1.1" xmlns="http://www.w3.org/2000/svg" xmlns:xlink="http://www.w3.org/1999/xlink">
    <!-- Generator: Sketch 53.2 (72643) - https://sketchapp.com -->
    <title>_brand_assets_images_logos_zapier-logo</title>
    <desc>Created with Sketch.</desc>
    <g id="Symbols" stroke="none" stroke-width="1" fill="none" fill-rule="evenodd">
        <g id="Press-Logos" transform="translate(-380.000000, -4.000000)" fill="#CED7E1" fill-rule="nonzero">
            <g id="press-logos">
                <g id="_brand_assets_images_logos_zapier-logo" transform="translate(380.000000, 4.000000)">
                    <path d="M73.8087085,24.3151452 L70.7427859,24.3151452 C70.6798094,24.0654075 70.6328231,23.7757608 70.6015808,23.4469395 C70.5391472,22.8069613 70.5391472,22.1624686 70.6015808,21.5224904 C70.6328231,21.1944036 70.6798094,20.9050017 70.7427859,20.653795 L78.3836071,20.653795 L78.3836071,44.7346275 C78.0010925,44.8008302 77.6154346,44.8475739 77.2281358,44.8746765 C76.8434215,44.9040384 76.4577668,44.9195551 76.0719266,44.9211962 C75.70232,44.9188533 75.3329163,44.9033367 74.9644257,44.8746765 C74.5772732,44.8473735 74.1917768,44.8003843 73.8094465,44.733893 L73.8094465,24.3141658 L73.8094465,24.3146555 L73.8087085,24.3151452 Z M100.408163,30.3710388 C100.408163,29.4945086 100.290082,28.6576425 100.054904,27.8589717 C99.8187425,27.061525 99.4718798,26.3654425 99.0172681,25.7704792 C98.5604425,25.1764953 97.9791398,24.6988108 97.2716382,24.3391396 C96.5643825,23.9792235 95.7230558,23.7990206 94.748396,23.7990206 C92.8305646,23.7990206 91.3604569,24.3788038 90.3388107,25.5361665 C89.3169185,26.693774 88.6962556,28.3053165 88.4758378,30.3710388 L100.408409,30.3710388 L100.408163,30.3710388 Z M88.4288514,33.8443512 C88.4918279,36.4729626 89.1757134,38.3979014 90.4805078,39.6176985 C91.7848103,40.8379853 93.7110057,41.4491081 96.2578641,41.4491081 C98.4895939,41.4491081 100.612099,41.0573627 102.624395,40.2750962 C102.875317,40.7444561 103.079499,41.3156698 103.23694,41.9884925 C103.391402,42.6435629 103.486087,43.3111824 103.519842,43.9832109 C102.482944,44.4224554 101.342233,44.7495628 100.101153,44.969185 C98.8583509,45.1875831 97.4829539,45.2977615 95.9747158,45.2977615 C93.7729982,45.2977615 91.8861631,44.9917104 90.3149485,44.3820567 C88.7425039,43.7711787 87.4455816,42.9105631 86.4236894,41.8002099 C85.4020432,40.6896118 84.6549352,39.3750612 84.1833495,37.8570479 C83.7120097,36.3397692 83.4756018,34.6731375 83.4756018,32.8581322 C83.4756018,31.0744666 83.7033996,29.4078349 84.1594873,27.858482 C84.6145909,26.3103533 85.3156965,24.9644631 86.2578841,23.8222805 C87.2015476,22.6796083 88.3882611,21.7724729 89.8190086,21.0996502 C91.249018,20.4268276 92.9388055,20.0899265 94.8891091,20.0899265 C96.5552804,20.0899265 98.0172701,20.3719832 99.2753242,20.9351172 C100.532394,21.4982511 101.586021,22.2729276 102.435219,23.2586569 C103.283926,24.244631 103.928451,25.4181532 104.368795,26.7787338 C104.808646,28.1405386 105.029556,29.6188877 105.029556,31.2152501 C105.029556,31.6535152 105.012828,32.1147954 104.981586,32.5995803 C104.95577,33.0145715 104.924443,33.4292049 104.887613,33.8433718 L88.4278674,33.8433718 L88.4283594,33.8441063 L88.4288514,33.8443512 Z M110.172965,20.653795 C110.501194,20.5944918 110.831567,20.5476118 111.163369,20.5132564 C111.477022,20.4826513 111.807894,20.4667366 112.153773,20.4667366 C112.499652,20.4667366 112.845039,20.4826513 113.19141,20.5132564 C113.537042,20.5450857 113.851679,20.5920951 114.134827,20.653795 C114.228308,21.1233998 114.322773,21.7421126 114.416745,22.5079748 C114.510964,23.2748164 114.558934,23.9236446 114.558934,24.4559286 C115.218958,23.39234 116.091527,22.4685554 117.175903,21.6860441 C118.260772,20.9042672 119.651913,20.5125219 121.349573,20.5125219 C121.600987,20.5125219 121.860273,20.5208464 122.127677,20.5365163 C122.356459,20.5487583 122.585241,20.5717733 122.811562,20.6062959 C122.874047,20.8883526 122.922263,21.186079 122.95326,21.498496 C122.984256,21.8111577 123,22.139979 123,22.4839804 C123,22.8598111 122.97663,23.2513116 122.929643,23.6572578 C122.884286,24.0496246 122.829329,24.4408331 122.764822,24.8305352 C122.510046,24.7681029 122.24861,24.7366156 121.986226,24.7367611 L121.349081,24.7367611 C120.500374,24.7367611 119.690536,24.8542847 118.920303,25.0885974 C118.149333,25.3236446 117.458068,25.738405 116.845031,26.3323889 C116.232486,26.9273522 115.744664,27.7412032 115.383779,28.7739419 C115.021418,29.8066807 114.841099,31.1366562 114.841099,32.7636236 L114.841099,44.733893 C114.458566,44.8 114.072835,44.8472543 113.685381,44.8744316 C113.26152,44.9057712 112.876035,44.9209514 112.530402,44.9209514 C112.144723,44.9194275 111.759228,44.9039106 111.374685,44.8744316 C110.971826,44.8452734 110.570454,44.7984634 110.171735,44.7341378 L110.171735,20.6540399 L110.172965,20.653795 Z M77.0724166,7.79573277 C77.0724633,8.35757104 76.9705401,8.91479751 76.7715562,9.44057363 C76.2431099,9.63862492 75.6830934,9.74014648 75.1184229,9.74025883 L75.1115349,9.74025883 C74.5468698,9.74033204 73.9868346,9.63889004 73.4584017,9.44081847 C73.2590922,8.91494671 73.1569979,8.35752998 73.1570493,7.79548793 L73.1570493,7.78814271 C73.1570493,7.20909409 73.2638141,6.65452956 73.4571717,6.14281217 C73.9856984,5.9444637 74.545946,5.84301342 75.1107969,5.84337181 L75.1171929,5.84337181 C75.6992336,5.84337181 76.256182,5.94963274 76.7703262,6.14281217 C76.9695306,6.66869756 77.0714602,7.22612485 77.0711866,7.78814271 L77.0711866,7.79548793 L77.0719246,7.79548793 L77.0724166,7.79573277 Z M82.8352587,6.49317943 L78.2655261,6.49317943 L81.496516,3.27719482 C80.9884408,2.56702893 80.3646784,1.94637618 79.6510092,1.44088842 L76.4195274,4.65687303 L76.4195274,0.108464498 C75.9898383,0.0365268227 75.5548866,0.000247188507 75.119161,0 L75.1107969,0 C74.6675013,0 74.2333079,0.0377054914 73.8101845,0.108464498 L73.8101845,4.65687303 L70.5779646,1.44064358 C70.2220078,1.69279858 69.8879153,1.97420828 69.5791966,2.28191675 L69.5777206,2.2833858 C69.2690149,2.59086604 68.9865334,2.92336292 68.7331959,3.27743966 L71.9654157,6.49317943 L67.3946992,6.49317943 C67.3946992,6.49317943 67.2859663,7.34767401 67.2859663,7.78936691 L67.2859663,7.79475341 C67.2859663,8.23644631 67.3236046,8.66932494 67.3949452,9.09069605 L71.9656617,9.09069605 L68.7329499,12.306191 C69.2413949,13.0162666 69.8651918,13.6370365 70.5787026,14.1429871 L73.8104305,10.9272473 L73.8104305,15.4759007 C74.2330619,15.5464148 74.6665173,15.5836306 75.1093209,15.5841203 L75.120391,15.5841203 C75.5556105,15.5837224 75.9900527,15.547526 76.4192814,15.4759007 L76.4192814,10.9272473 L79.6512552,14.1437216 C80.0072621,13.8913365 80.3415811,13.6099439 80.6507612,13.3024484 L80.6514992,13.3024484 C80.96006,12.9946406 81.2424531,12.6619052 81.495778,12.30766 L78.2647881,9.09094089 L82.8355047,9.09094089 C82.9063533,8.66981462 82.9437455,8.23840504 82.9437455,7.7976915 L82.9437455,7.78642882 C82.9437455,7.35306051 82.9073373,6.9209164 82.8355047,6.49366912 L82.8355047,6.49317943 L82.8352587,6.49317943 Z M0,44.0777195 L12.7340459,24.3621546 L1.50897607,24.3621546 C1.41500332,23.7990206 1.36801694,23.1736971 1.36801694,22.4849598 C1.36801694,21.8280518 1.41574133,21.2171738 1.50996008,20.6535502 L19.6673653,20.6535502 L19.9035272,21.2649178 L7.0752626,41.0265128 L19.1013148,41.0265128 C19.1955336,41.6525708 19.2430119,42.2935642 19.2430119,42.9504722 C19.2430119,43.5772648 19.1957796,44.1714935 19.1015608,44.7346275 L0.236161889,44.7346275 L0,44.076985 L0,44.0777195 Z M36.7394099,33.421511 C36.2678241,33.3595663 35.6702854,33.2976215 34.9472856,33.2342078 C34.2240398,33.172263 33.6110029,33.1404337 33.1086669,33.1404337 C31.1588553,33.1404337 29.6732494,33.5003498 28.6520952,34.2201819 C27.629465,34.9405037 27.119503,36.0351871 27.119503,37.5059461 C27.119503,38.444666 27.2917043,39.1801679 27.6378291,39.7119622 C27.9832159,40.2447359 28.4159333,40.6506821 28.9347515,40.9324939 C29.4538156,41.2140609 30.0270002,41.3864288 30.6555352,41.4491081 C31.2840703,41.5115425 31.8818551,41.5426373 32.4476596,41.5426373 C33.1709054,41.5426373 33.9175213,41.5034627 34.6879995,41.4251137 C35.4579857,41.3474991 36.1418711,41.2297307 36.7396559,41.0732774 L36.7396559,33.421511 L36.7394099,33.421511 Z M36.7394099,28.8689402 C36.7394099,27.0218608 36.2678241,25.7388947 35.3248986,25.0190626 C34.381235,24.2992305 33.0137101,23.9393144 31.2215858,23.9393144 C30.120235,23.9393144 29.0912087,24.0259881 28.1325391,24.1978664 C27.1838569,24.3673308 26.2464788,24.5943959 25.3256566,24.8777894 C24.7278718,23.8450507 24.4302094,22.6098286 24.4302094,21.1694299 C25.497858,20.8256733 26.6766994,20.5597761 27.9664877,20.3719832 C29.255538,20.1839454 30.497356,20.0899265 31.6926795,20.0899265 C34.8365847,20.0899265 37.2260018,20.8024134 38.8611769,22.226163 C40.495614,23.6511368 41.3138165,25.9274222 41.3138165,29.0562434 L41.3138165,44.1242392 C40.2127117,44.3744666 38.876921,44.6325289 37.3049684,44.8986709 C35.7155354,45.1657923 34.1063328,45.2992937 32.4944,45.2977615 C30.9539356,45.2977615 29.5620565,45.1574676 28.3207306,44.8756558 C27.0784206,44.5933543 26.0250402,44.1406436 25.1605893,43.513851 C24.2951544,42.8885275 23.627997,42.0903463 23.1556732,41.1205317 C22.6843335,40.1502274 22.4484176,38.97695 22.4484176,37.5997202 C22.4484176,36.2545645 22.7234478,35.0729626 23.2737542,34.055404 C23.8144894,33.0500484 24.5812917,32.1826273 25.5143401,31.5208115 C26.4575117,30.8489682 27.5421343,30.3475341 28.7684541,30.0194474 C29.99502,29.6906261 31.2835783,29.526093 32.6356051,29.526093 C33.6417531,29.526093 34.4670897,29.5500874 35.1118609,29.5970969 C35.755894,29.6436166 36.2985744,29.698461 36.7389179,29.7611403 L36.7389179,28.869185 L36.7394099,28.8689402 Z M51.0764046,40.790731 C51.6718028,41.0096384 52.2882487,41.1670017 52.9160073,41.2603358 C53.5447884,41.3545995 54.3615149,41.4013641 55.3686469,41.4013641 C56.500256,41.4013641 57.5374003,41.2218958 58.4805718,40.8619797 C59.4242354,40.5027982 60.2335819,39.9467646 60.9095953,39.195348 C61.5856087,38.444666 62.119925,37.4986009 62.5130361,36.3551941 C62.9059012,35.2137461 63.1029488,33.8607555 63.1029488,32.2952431 C63.1029488,29.7919902 62.6384971,27.8048618 61.7115617,26.333858 C60.7833963,24.8633438 59.2663021,24.1278419 57.1605253,24.1278419 C56.374549,24.1278419 55.619323,24.2683806 54.8973072,24.5504372 C54.1730774,24.8320042 53.5290442,25.2545995 52.9629937,25.8177335 C52.3971892,26.3808674 51.9413475,27.0933543 51.5957148,27.9537251 C51.248852,28.8150752 51.0766506,29.8389997 51.0766506,31.0284365 L51.0766506,40.7914655 L51.0766506,40.7909759 L51.0764046,40.790731 Z M46.4072873,20.6533054 C46.7270898,20.5906261 47.0493524,20.5438615 47.374075,20.5127667 C47.7112629,20.4817146 48.0497128,20.4661915 48.3883411,20.4662469 C48.7017476,20.4662469 49.0316363,20.4824064 49.378253,20.5127667 C49.7236398,20.544596 50.0537744,20.5918503 50.3686569,20.6535502 C50.3996532,20.7172088 50.4395055,20.9118573 50.4867379,21.2406786 C50.5334783,21.5694998 50.5807106,21.9213361 50.628189,22.2964323 C50.6754214,22.672263 50.7224078,23.0329136 50.7696402,23.3761805 C50.8168725,23.7209164 50.8404887,23.940049 50.8404887,24.033823 C51.1541412,23.5336132 51.5317543,23.0480937 51.9720978,22.5787338 C52.4124413,22.1091291 52.9396235,21.6867786 53.5526604,21.3116824 C54.1656973,20.9358517 54.8569629,20.6388597 55.627687,20.4194823 C56.3976732,20.2005946 57.254498,20.0901714 58.1979156,20.0901714 C59.6124269,20.0901714 60.9253394,20.3252186 62.1364071,20.7948234 C63.3462448,21.2649178 64.3831431,21.9913606 65.248332,22.9773347 C66.1125369,23.9633088 66.7883043,25.2151801 67.2761262,26.7324589 C67.7632101,28.2514516 68.0067521,30.0427072 68.0067521,32.107695 C68.0067521,36.2381602 66.8825231,39.4700595 64.6340651,41.8009444 C62.3856071,44.1325638 59.2030796,45.2977615 55.0842687,45.2977615 C54.3922651,45.2977615 53.6852555,45.250752 52.9620097,45.156978 C52.2382719,45.0627142 51.6099829,44.9373557 51.0751746,44.7816369 L51.0751746,55.8126967 C50.6767978,55.8772176 50.2757516,55.9241912 49.873209,55.9534802 C49.4483636,55.9840853 49.0628785,56 48.7169997,56 C48.3314874,55.9983481 47.9461608,55.9828314 47.5617745,55.9534802 C47.1745409,55.9261728 46.7889628,55.8791837 46.4065493,55.8126967 L46.4065493,20.6535502 L46.4072873,20.6533054 Z" id="Shape"></path>
                </g>
            </g>
        </g>
    </g>
</svg>