<svg width="13" height="15" viewBox="0 0 13 15" fill="none" xmlns="http://www.w3.org/2000/svg">
<path fill-rule="evenodd" clip-rule="evenodd" d="M11.7 13.75H9.1V7.5H3.9V13.75H1.3V5.59625L6.4246 1.60125L11.7 5.605V13.75ZM5.2 13.75H7.8V8.75H5.2V13.75ZM9.1 1.25H10.4V2.99125L9.1 2.0175V1.25ZM12.753 4.8125L11.7 4.0125V0.625C11.7 0.28 11.4088 0 11.05 0H8.45C8.0912 0 7.8 0.28 7.8 0.625V1.0525L6.8224 0.31C6.7028 0.22 6.5611 0.175 6.4181 0.175C6.2738 0.175 6.1282 0.2225 6.0099 0.315L0.2405 4.8125C0.0884 4.93125 0 5.10875 0 5.2975V14.375C0 14.72 0.2912 15 0.65 15H12.35C12.7088 15 13 14.72 13 14.375V5.3025C13 5.11125 12.909 4.93125 12.753 4.8125V4.8125Z" fill="#6400AA"/>
</svg>
