<?xml version="1.0" encoding="iso-8859-1"?>
<!-- Generator: Adobe Illustrator 16.0.4, SVG Export Plug-In . SVG Version: 6.00 Build 0)  -->
<!DOCTYPE svg PUBLIC "-//W3C//DTD SVG 1.1//EN" "http://www.w3.org/Graphics/SVG/1.1/DTD/svg11.dtd">
<svg version="1.1" id="Capa_1" xmlns="http://www.w3.org/2000/svg" xmlns:xlink="http://www.w3.org/1999/xlink" x="0px" y="0px"
	 width="89.886px" height="89.763px" viewBox="0 0 89.886 89.763" style="enable-background:new 0 0 89.886 89.763;fill:black"
	 xml:space="preserve">
<g id="Moon">
	<g>
		<path d="M89.855,44.107c-0.01-1.104-0.707-2.082-1.745-2.443c-1.041-0.371-2.192-0.04-2.887,0.812
			C79.706,49.264,71.55,53.151,62.84,53.151c-15.918,0-28.867-12.977-28.867-28.928c0-7.373,2.797-14.41,7.873-19.812
			c0.752-0.798,0.925-1.986,0.431-2.97c-0.491-0.979-1.552-1.565-2.636-1.42C17.042,2.69,0,21.906,0,44.724
			c0,24.834,20.161,45.039,44.942,45.039c24.784,0,44.943-20.205,44.943-45.039C89.886,44.554,89.876,44.383,89.855,44.107z
			 M44.942,84.536c-21.904,0-39.724-17.862-39.724-39.812c0-17.887,11.851-33.275,28.468-38.166
			c-3.212,5.297-4.933,11.376-4.933,17.666c0,18.835,15.291,34.159,34.086,34.159c7.87,0,15.358-2.688,21.358-7.544
			C81.253,69.899,64.771,84.536,44.942,84.536z"/>
	</g>
</g>
<g>
</g>
<g>
</g>
<g>
</g>
<g>
</g>
<g>
</g>
<g>
</g>
<g>
</g>
<g>
</g>
<g>
</g>
<g>
</g>
<g>
</g>
<g>
</g>
<g>
</g>
<g>
</g>
<g>
</g>
</svg>
