<?xml version="1.0" encoding="UTF-8"?><svg id="Layer_2" xmlns="http://www.w3.org/2000/svg" xmlns:xlink="http://www.w3.org/1999/xlink" viewBox="0 0 1845.9 223.23"><defs><style>.cls-1{fill:#32215e;}.cls-2{fill:#0480f7;filter:url(#drop-shadow-1);}</style><filter id="drop-shadow-1" filterUnits="userSpaceOnUse"><feOffset dx="37.94" dy="63.23"/><feGaussianBlur result="blur" stdDeviation="25.29"/><feFlood flood-color="#21201f" flood-opacity=".3"/><feComposite in2="blur" operator="in"/><feComposite in="SourceGraphic"/></filter></defs><g id="Layer_1-2"><g><g><path class="cls-1" d="m212.38,53.23l-74.24.02v42.43l-63.47-42.45H20.2C9.04,53.23,0,44.18,0,33.03V.02h192.01c11.25,0,20.37,9.12,20.37,20.37v32.84Z"/><path class="cls-2" d="m94.6,223.21c-11.23,0-20.22-9-20.22-20.23v-117.95s63.75,42.6,63.75,42.6l-.12,95.6-43.41-.02Z"/></g><g><path class="cls-1" d="m301.8,40.85v50.33h70.8v37h-70.8v51.36h92.45v38.48h-134.69c-5.7,0-10.33-4.62-10.33-10.33V2.37h134.69c5.7,0,10.33,4.62,10.33,10.33v28.16h-92.45Z"/><path class="cls-1" d="m562.14,178.06v39.96h-125.41c-5.7,0-10.33-4.62-10.33-10.33V2.37h41.93c5.7,0,10.33,4.62,10.33,10.33v165.36h83.48Z"/><path class="cls-1" d="m641.29,40.85v50.33h70.8v37h-70.8v51.36h92.45v38.48h-134.69c-5.7,0-10.33-4.62-10.33-10.33V2.37h134.69c5.7,0,10.33,4.62,10.33,10.33v28.16h-92.45Z"/><path class="cls-1" d="m962.54,12.7v205.33h-27.21c-4.02,0-7.37-.59-10.05-1.78-2.99-1.48-5.72-3.65-8.19-6.51l-106.21-128.62c.2,1.48.41,3.6.62,6.36.21,2.76.31,4.34.31,4.74,0,1.28.02,3.06.08,5.33.05,2.27.08,3.9.08,4.88v115.6h-35.74c-5.7,0-10.33-4.62-10.33-10.33V2.37h27.52c1.75,0,3.66.1,5.72.3,1.13.1,2.53.44,4.17,1.04,1.44.69,2.63,1.48,3.56,2.37,1.65,1.58,2.94,2.91,3.86,4l107.14,129.51c-.62-5.62-.98-9.67-1.09-12.14-.21-5.13-.31-8.78-.31-10.95V2.37h35.74c5.7,0,10.33,4.62,10.33,10.33Z"/><path class="cls-1" d="m1227.21,110.12c0,15.69-2.84,30.19-8.5,43.51-5.46,13.22-13.35,24.92-23.65,35.08-10.41,9.97-22.73,17.71-36.95,23.24-14.22,5.62-30.15,8.44-47.77,8.44s-33.6-2.81-47.92-8.44c-14.33-5.62-26.64-13.37-36.95-23.24-10.41-10.06-18.35-21.75-23.81-35.08-5.67-13.32-8.5-27.82-8.5-43.51s2.83-30.19,8.5-43.52c5.56-13.42,13.5-25.06,23.81-34.93,10.1-9.77,22.42-17.51,36.95-23.24,14.32-5.62,30.3-8.44,47.92-8.44s33.55,2.81,47.77,8.44c14.53,5.72,26.85,13.52,36.95,23.38,10.31,9.97,18.19,21.61,23.65,34.93,5.67,13.32,8.5,27.78,8.5,43.37Zm-53.49,0c0-10.85-1.45-20.47-4.33-28.86-3.09-8.78-7.27-15.98-12.52-21.61-5.26-5.92-11.85-10.46-19.79-13.62-8.04-3.16-16.96-4.74-26.75-4.74s-18.92,1.58-27.06,4.74c-7.94,3.26-14.53,7.8-19.79,13.62-5.25,5.62-9.43,12.83-12.52,21.61-2.89,8.39-4.33,18.01-4.33,28.86s1.44,20.57,4.33,28.86c2.99,8.88,7.16,16.13,12.52,21.75,5.25,5.92,11.85,10.41,19.79,13.47,7.83,3.16,16.85,4.74,27.06,4.74s19.12-1.58,26.75-4.74c7.83-2.96,14.43-7.45,19.79-13.47,5.36-5.62,9.53-12.88,12.52-21.75,2.88-8.29,4.33-17.91,4.33-28.86Z"/><path class="cls-1" d="m1409.79,162.22c1.44,0,2.68.25,3.71.74,1.13.3,2.32,1.04,3.55,2.22l20.72,20.87c-8.97,11.25-20.3,19.83-34.01,25.75-14.02,5.72-30.2,8.58-48.54,8.58-17.01,0-32.36-2.76-46.07-8.29-13.71-5.72-25.15-13.42-34.32-23.09-9.28-9.57-16.54-21.21-21.8-34.93-5.05-13.52-7.58-28.17-7.58-43.96s2.73-30.83,8.19-44.26c5.36-13.42,13.04-25.06,23.04-34.93,9.79-9.67,21.64-17.27,35.56-22.79,13.6-5.43,28.81-8.14,45.61-8.14,8.35,0,16.33.74,23.96,2.22,7.62,1.38,14.58,3.35,20.87,5.92,6.29,2.27,12.26,5.28,17.93,9.03,5.67,3.75,10.51,7.6,14.53,11.55l-17.62,22.64c-1.13,1.38-2.47,2.66-4.02,3.85-1.65,1.09-3.81,1.63-6.49,1.63-1.65,0-3.4-.39-5.26-1.18-.62-.3-2.37-1.23-5.25-2.81l-6.03-3.85c-3.3-1.68-5.98-2.86-8.04-3.55-3.1-1.28-6.6-2.27-10.51-2.96-4.43-.79-9.22-1.18-14.38-1.18-8.76,0-16.65,1.53-23.65,4.59-7.32,3.16-13.5,7.65-18.55,13.47-5.25,5.72-9.27,12.93-12.06,21.61-2.89,8.29-4.33,18.01-4.33,29.16s1.54,20.87,4.64,29.45c3.4,8.88,7.73,16.08,12.99,21.61,5.15,5.82,11.44,10.31,18.86,13.47,7.11,3.06,14.84,4.59,23.19,4.59,3.5,0,7.83-.2,12.99-.59,4.95-.79,8.6-1.58,10.98-2.37,3.19-.79,6.39-2.17,9.58-4.14,2.89-1.58,5.93-3.75,9.12-6.51,1.03-.89,2.37-1.68,4.02-2.37,1.34-.69,2.83-1.04,4.48-1.04Z"/><path class="cls-1" d="m1657.29,12.7v205.33h-52.56v-91.17h-91.52v91.17h-42.24c-5.7,0-10.33-4.62-10.33-10.33V2.37h52.56v90.14h91.52V2.37h42.24c5.7,0,10.33,4.62,10.33,10.33Z"/><path class="cls-1" d="m1753.45,40.85v50.33h70.8v37h-70.8v51.36h92.45v38.48h-134.69c-5.7,0-10.33-4.62-10.33-10.33V2.37h134.69c5.7,0,10.33,4.62,10.33,10.33v28.16h-92.45Z"/></g></g></g></svg>