<?xml version="1.0" encoding="UTF-8"?>
<svg viewBox="0 0 163 96" version="1.1" xmlns="http://www.w3.org/2000/svg" xmlns:xlink="http://www.w3.org/1999/xlink">
    <!-- Generator: Sketch 54.1 (76490) - https://sketchapp.com -->
    <title>Logo RED By SFR</title>
    <g id="Page-1" stroke="none" stroke-width="1" fill="none" fill-rule="evenodd">
        <g id="logo" fill="#FFFFFF" fill-rule="nonzero">
            <path d="M162.9,42.5 L162.9,36.8 C163,26.4 163,16.6 154.9,8.4 C149.9,3.4 142.7,0.8 134.1,0.8 L104.8,0.8 L104.8,15.8 L71.8,15.8 L71.8,32.4 L104.8,32.4 L104.8,47.4 L71.8,47.4 L71.8,64 L104.8,64 L104.8,79 L134.1,79 C142.8,79 150,76.4 154.9,71.4 C163.1,63.3 163,53.2 162.9,42.5 Z M143.3,59.6 C140.8,62.6 137.5,64 132.8,64 L121.4,64 L121.4,15.8 L132.8,15.8 C137.5,15.8 140.8,17.2 143.3,20.2 C145.5,22.9 146.3,26.3 146.3,39.6 C146.3,51.1 145.9,56.4 143.3,59.6 Z" id="Shape"></path>
            <path d="M41.7,79 L60.3,79 L44.4,47.4 C53,43.8 58.3,34.8 58.3,25.3 C58.3,10.8 47.3,0.7 32,0.7 L0.6,0.7 L0.6,78.9 L17.2,78.9 L17.2,50.2 L27.1,50.2 L41.7,79 Z M17.3,15.8 L31.3,15.8 C37.5,15.8 41.7,19.7 41.7,25.5 C41.7,31.9 37.5,35.3 31.3,35.3 L17.3,35.3 L17.3,15.8 Z" id="Shape"></path>
            <g id="Group" transform="translate(104.000000, 87.000000)">
                <path d="M5.7,4.3 C6.2,4.1 6.5,3.9 6.7,3.5 C6.9,3.1 7.1,2.7 7.1,2.2 C7.1,1.5 6.8,0.9 6.2,0.5 C5.8,0.3 5.4,0.2 4.5,0.2 L1.9,0.2 L0.9,8.5 L4.2,8.5 C5.2,8.5 5.6,8.4 6.1,8.1 C6.9,7.6 7.4,6.9 7.4,5.9 C7.4,5.4 7.2,4.9 6.8,4.5 C6.4,4.5 6.2,4.4 5.7,4.3 Z M3.7,2 L4.1,2 C4.5,2 4.7,2 4.8,2.1 C5,2.2 5.1,2.4 5.1,2.7 C5.1,3.3 4.7,3.6 3.8,3.6 L3.5,3.6 L3.7,2 Z M4.7,6.7 C4.5,6.9 4.2,6.9 3.6,6.9 L3,6.9 L3.2,5.1 L3.8,5.1 C4.3,5.1 4.5,5.1 4.6,5.2 C4.8,5.3 4.9,5.6 4.9,5.9 C5.1,6.2 5,6.5 4.7,6.7 Z" id="Shape"></path>
                <path d="M13.6,2.4 C13.4,2.7 13.3,2.8 13.2,3.1 C13.1,2.7 13.1,2.6 12.7,1.9 L12.6,1.7 L12,0.4 L9.7,0.4 L11.8,5 L11.3,8.7 L13.4,8.7 L13.8,5.1 L17.4,0.4 L14.8,0.4 L13.6,2.4 Z" id="Path"></path>
                <path d="M26.1,1.9 C26.5,1.9 27,2.1 27.5,2.5 L28.4,0.9 C27.6,0.4 26.8,0.1 26,0.1 C24.2,0.1 23,1.2 23,2.7 C23,3.8 23.4,4.3 24.9,5.1 C25.7,5.5 25.9,5.7 25.9,6 C25.9,6.5 25.5,6.8 24.8,6.8 C24.3,6.8 23.8,6.6 23.1,6.1 L22.2,7.7 C23.3,8.4 24,8.6 25,8.6 C26,8.6 26.7,8.3 27.3,7.8 C27.9,7.3 28.2,6.6 28.2,5.8 C28.2,4.7 27.7,4.1 26.4,3.5 C25.5,3.1 25.3,2.9 25.3,2.5 C25.2,2.2 25.6,1.9 26.1,1.9 Z" id="Path"></path>
                <polygon id="Path" points="31 8.6 33 8.6 33.4 5.4 35.8 5.4 36.1 3.5 33.7 3.5 33.8 2.1 36.5 2.1 36.7 0.3 32 0.3"></polygon>
                <path d="M44.7,4.7 C45.1,4.2 45.4,3.6 45.4,2.9 C45.4,2 45.1,1.2 44.5,0.8 C44,0.5 43.4,0.3 42.5,0.3 L39.8,0.3 L38.8,8.6 L40.9,8.6 L41.3,5.3 L43.3,8.6 L45.7,8.6 L43.7,5.4 C44.2,5.2 44.5,5 44.7,4.7 Z M41.8,4.1 L41.4,4.1 L41.7,2 L42.1,2 C43,2 43.3,2.2 43.3,3 C43.3,3.7 42.8,4.1 41.8,4.1 Z" id="Shape"></path>
            </g>
        </g>
    </g>
</svg>