<svg xmlns="http://www.w3.org/2000/svg" viewBox="0 0 67 67">
    <defs>
        <linearGradient id="a" x1=".001%" x2="99.809%" y1="50.104%" y2="50.104%">
            <stop offset="0%" stop-color="#00E094"/>
            <stop offset="100%" stop-color="#08BF7E"/>
        </linearGradient>
    </defs>
    <g fill="none" fill-rule="evenodd">
        <path fill="url(#a)" fill-rule="nonzero" d="M20.267 34.191a1.78 1.78 0 0 1-1.8-1.8c0-7.81 6.805-14.93 14.28-14.93a16.436 16.436 0 0 1 9.295 2.43 1.837 1.837 0 0 1-1.905 3.14 12.814 12.814 0 0 0-7.39-1.863 11.6 11.6 0 0 0-10.679 11.306 1.78 1.78 0 0 1-1.8 1.717z"/>
        <path fill="#1A171B" fill-rule="nonzero" d="M55.317 13.044A28.245 28.245 0 0 0 33.5 3.77a28.287 28.287 0 0 0-21.691 9.191A30.443 30.443 0 0 0 4.188 33.5a30.946 30.946 0 0 0 7.516 20.08A27.91 27.91 0 0 0 33.5 63.23 35.594 35.594 0 0 0 46.44 60.3a1.78 1.78 0 1 0-1.466-3.245A32.788 32.788 0 0 1 33.5 59.65a24.392 24.392 0 0 1-19.095-8.375A27.407 27.407 0 0 1 7.768 33.5c0-13.002 8.835-26.15 25.732-26.15s25.732 13.022 25.732 25.878c0 5.925-2.24 9.024-4.187 10.573a7.621 7.621 0 0 1-5.968 1.906c-3.6-.65-3.873-4.963-3.873-6.282V29.417a1.8 1.8 0 1 0-3.58 0V40.284a10.28 10.28 0 0 1-8.982 5.611 10.72 10.72 0 0 1-9.61-7.077 1.8 1.8 0 0 0-2.283-1.13 1.78 1.78 0 0 0-1.11 2.282 14.28 14.28 0 0 0 13.107 9.505A13.295 13.295 0 0 0 42.88 44.87a7.558 7.558 0 0 0 5.632 4.334c3.211.44 6.456-.53 8.899-2.659 2.47-2.094 5.402-6.03 5.402-13.337a30.653 30.653 0 0 0-7.496-20.163z"/>
        <path d="M0 0h67v67H0z"/>
    </g>
</svg>
