<?xml version="1.0" encoding="utf-8"?>
<!-- Generator: Adobe Illustrator 27.2.0, SVG Export Plug-In . SVG Version: 6.00 Build 0)  -->
<svg version="1.1" id="Layer_1" xmlns="http://www.w3.org/2000/svg" xmlns:xlink="http://www.w3.org/1999/xlink" x="0px" y="0px"
	 width="35px" height="32px" viewBox="0 0 35 32" style="enable-background:new 0 0 35 32;" xml:space="preserve">
<style type="text/css">
	.st0{fill:#E03A3E;}
</style>
<g id="Boosters">
	<g>
		<path class="st0" d="M30.9,1.2l-3.7,0.6c-3.7,0.5-6.9,2.2-9.3,4.8l-4.1,4.5l-5.6-0.3c-0.3,0-0.6,0.1-0.8,0.4l-2.8,4.2
			c-0.3,0.4-0.1,1,0.4,1.3l4,1.8l6.1,6.1l1.8,4c0.2,0.5,0.8,0.6,1.2,0.4l4.3-2.9c0.3-0.2,0.4-0.5,0.4-0.8l-0.4-5.6l4.5-4.1
			c2.6-2.4,4.3-5.6,4.8-9.3l0.6-3.7C32.5,1.8,31.7,1,30.9,1.2z M24.1,13c-1,1-2.6,1-3.6,0s-1-2.6,0-3.6s2.6-1,3.6,0S25.1,12,24.1,13
			z"/>
		<path class="st0" d="M12.9,25.3l-4.7-4.7c-0.1-0.1-0.3-0.1-0.5,0c-0.3,0.2-0.6,0.6-0.7,0.7c-4.2,4.2-4.3,9.5-4.3,9.5
			s5.3-0.1,9.5-4.3c0.1-0.1,0.5-0.5,0.7-0.7C13,25.7,13,25.5,12.9,25.3z"/>
	</g>
</g>
</svg>
