<?xml version="1.0" encoding="utf-8"?>
<!-- Generator: Adobe Illustrator 27.2.0, SVG Export Plug-In . SVG Version: 6.00 Build 0)  -->
<svg version="1.1" id="Layer_1" xmlns="http://www.w3.org/2000/svg" xmlns:xlink="http://www.w3.org/1999/xlink" x="0px" y="0px"
	 width="35px" height="32px" viewBox="0 0 35 32" style="enable-background:new 0 0 35 32;" xml:space="preserve">
<style type="text/css">
	.st0{fill:#E03A3E;}
</style>
<g>
	<g>
		<g>
			<path class="st0" d="M18.9,19.2l-1.8-0.9c-0.4-0.2-0.4-0.6-0.3-0.7c0-0.1,0.1-0.5,0.6-0.5c0.5,0,1,0.2,1.2,0.7
				c0.2,0.5,0.8,0.7,1.3,0.5c0.5-0.2,0.7-0.8,0.5-1.3c-0.3-0.7-0.9-1.3-1.6-1.6V15c0-0.5-0.4-1-1-1c-0.5,0-1,0.4-1,1v0.3
				c-1,0.2-1.7,1-1.9,2c-0.2,1.1,0.3,2.3,1.4,2.8L18,21c0.4,0.2,0.4,0.6,0.3,0.7c0,0.1-0.1,0.4-0.5,0.5l-0.1,0c-0.5,0-1-0.2-1.2-0.7
				c-0.2-0.5-0.8-0.7-1.3-0.5c-0.5,0.2-0.7,0.8-0.5,1.3c0.4,0.9,1.1,1.5,2,1.7v0.3c0,0.5,0.4,1,1,1c0.5,0,1-0.4,1-1v-0.3
				c0.8-0.3,1.4-1,1.5-1.9C20.5,20.8,19.9,19.8,18.9,19.2z"/>
			<path class="st0" d="M30.2,27.7H4.8C4.4,27.7,4,28,4,28.5v2.3c0,0.2,0.2,0.4,0.4,0.4h26.2c0.2,0,0.4-0.2,0.4-0.4v-2.3
				C31,28,30.6,27.7,30.2,27.7z M7.5,24.6v0.8c0,0.2,0.2,0.4,0.4,0.4h3.9c0.2,0,0.4-0.2,0.4-0.4v-0.8c0-0.2-0.2-0.4-0.4-0.4V15
				c0.2,0,0.4-0.2,0.4-0.4v-0.8c0-0.2-0.2-0.4-0.4-0.4H7.9c-0.2,0-0.4,0.2-0.4,0.4v0.8c0,0.2,0.2,0.4,0.4,0.4v9.2
				C7.7,24.2,7.5,24.4,7.5,24.6z M30.6,8.2L17.9,0.9c-0.2-0.1-0.5-0.1-0.8,0L4.4,8.2C4.2,8.3,4,8.6,4,8.9v2.2c0,0.2,0.2,0.4,0.4,0.4
				h26.2c0.2,0,0.4-0.2,0.4-0.4V8.9C31,8.6,30.8,8.3,30.6,8.2z M17.5,9.4c-1.2,0-2.2-1-2.2-2.2s1-2.2,2.2-2.2c1.2,0,2.2,1,2.2,2.2
				S18.7,9.4,17.5,9.4z M22.9,24.6v0.8c0,0.2,0.2,0.4,0.4,0.4h3.9c0.2,0,0.4-0.2,0.4-0.4v-0.8c0-0.2-0.2-0.4-0.4-0.4V15
				c0.2,0,0.4-0.2,0.4-0.4v-0.8c0-0.2-0.2-0.4-0.4-0.4h-3.9c-0.2,0-0.4,0.2-0.4,0.4v0.8c0,0.2,0.1,0.3,0.3,0.4v9.3
				C23,24.3,22.9,24.4,22.9,24.6z"/>
		</g>
	</g>
</g>
</svg>
