<?xml version="1.0" encoding="utf-8"?>
<!-- Generator: Adobe Illustrator 27.2.0, SVG Export Plug-In . SVG Version: 6.00 Build 0)  -->
<svg version="1.1" id="Layer_1" xmlns="http://www.w3.org/2000/svg" xmlns:xlink="http://www.w3.org/1999/xlink" x="0px" y="0px"
	 width="35px" height="32px" viewBox="0 0 35 32" style="enable-background:new 0 0 35 32;" xml:space="preserve">
<style type="text/css">
	.st0{fill:#E03A3E;}
</style>
<g id="CD">
	<g>
		<g>
			<path class="st0" d="M29.1,14.5c0-0.6-0.5-1.1-1.1-1.1H8.8c-0.6,0-1.1,0.5-1.1,1.1s0.5,1.1,1.1,1.1H28
				C28.6,15.7,29.1,15.2,29.1,14.5z M8.8,18c-0.6,0-1.1,0.5-1.1,1.1s0.5,1.1,1.1,1.1h7.9c0.6,0,1.1-0.5,1.1-1.1S17.3,18,16.7,18H8.8
				z M21.6,11.1c0.6,0,1.1-0.5,1.1-1.1s-0.5-1.1-1.1-1.1h-7.3c-0.6,0-1.1,0.5-1.1,1.1s0.5,1.1,1.1,1.1H21.6z M33,1.5H2
				c-1,0-1.8,0.8-1.8,1.8v22.8c0,1,0.8,1.8,1.8,1.8h17.3v-3.6H6.6c0-1.5-1.2-2.7-2.7-2.7V7.9c1.5,0,2.7-1.2,2.7-2.7h21.9
				c0,1.5,1.2,2.7,2.7,2.7v13.7c-1.5,0-2.7,1.2-2.7,2.7l0,0v3.6H33c1,0,1.8-0.8,1.8-1.8V3.3C34.8,2.3,34,1.5,33,1.5z"/>
			<path class="st0" d="M21.6,26.3v3.8c0,0.2,0.2,0.4,0.4,0.4c0.1,0,0.2,0,0.2-0.1l1.4-1c0.1-0.1,0.2-0.1,0.2-0.1
				c0.1,0,0.2,0,0.2,0.1l1.4,1c0.1,0.1,0.2,0.1,0.2,0.1c0.2,0,0.4-0.2,0.4-0.4v-3.8c-0.7,0.3-1.5,0.5-2.3,0.5
				C23.1,26.8,22.3,26.6,21.6,26.3z M23.9,24.5c1.8,0,3.2-1.4,3.2-3.2c0-1.8-1.4-3.2-3.2-3.2c-1.8,0-3.2,1.4-3.2,3.2
				C20.7,23,22.1,24.5,23.9,24.5z"/>
		</g>
	</g>
</g>
</svg>
