<?xml version="1.0" encoding="UTF-8"?>
<svg width="35px" height="34px" viewBox="0 0 35 34" version="1.1" xmlns="http://www.w3.org/2000/svg" xmlns:xlink="http://www.w3.org/1999/xlink">
    <title>Group 3</title>
    <defs>
        <path d="M8.01980324,0.195938375 C7.50641432,0.335677371 7.10846197,0.753375456 6.97479858,1.2865101 L6.97479858,1.2865101 C6.844173,1.82116365 6.99910101,2.38771415 7.38338325,2.76743968 L7.38338325,2.76743968 C7.92107461,3.29297982 8.32358367,3.95218334 8.54990009,4.68277527 L8.54990009,4.68277527 C8.60002386,4.84377889 8.54078667,5.01997154 8.40560439,5.11414347 L8.40560439,5.11414347 C5.82498967,6.84265409 3.96889126,9.52351635 3.2079213,12.61752 L3.2079213,12.61752 C3.16994874,12.7891559 3.02261524,12.9091492 2.8540171,12.9091492 L2.8540171,12.9091492 L2.18721907,12.9091492 C0.979691874,12.9091492 0,13.9298514 0,15.1875024 L0,15.1875024 L0,18.2253067 C0,19.4829576 0.979691874,20.5036598 2.18721907,20.5036598 L2.18721907,20.5036598 L3.9962315,20.5036598 C4.12837599,20.5036598 4.25140706,20.5780861 4.31671985,20.6995982 L4.31671985,20.6995982 C5.41032939,22.6939167 6.97176078,24.366228 8.85368051,25.560085 L8.85368051,25.560085 C8.99190061,25.6497003 9.05417559,25.824374 9.00860853,25.9868965 L9.00860853,25.9868965 L7.72817404,30.6073968 C7.44869604,31.61291 8.00461422,32.668547 8.97215488,32.9601762 L8.97215488,32.9601762 C9.13771521,33.0087811 9.30783225,33.0346024 9.48098709,33.0346024 L9.48098709,33.0346024 C10.2905619,33.0346024 11.0044459,32.4771653 11.2307623,31.6675905 L11.2307623,31.6675905 L12.3486743,27.6440188 C12.4063926,27.4435237 12.6084066,27.3280871 12.8013071,27.3858054 L12.8013071,27.3858054 C15.8679705,28.3366381 19.1320912,28.3396759 22.2002735,27.3964377 L22.2002735,27.3964377 C22.2929266,27.3690975 22.3916552,27.3797298 22.4767137,27.4283347 L22.4767137,27.4283347 C22.5632911,27.4769395 22.6255661,27.5589602 22.6513875,27.65617 L22.6513875,27.65617 L23.7677805,31.6675905 C23.9940969,32.4771653 24.7079809,33.0346024 25.5175558,33.0346024 L25.5175558,33.0346024 C25.6891917,33.0346024 25.8608277,33.0087811 26.026388,32.9601762 L26.026388,32.9601762 C26.9939286,32.668547 27.5498468,31.61291 27.2703688,30.6073968 L27.2703688,30.6073968 L25.9868965,25.9914532 C25.9428484,25.8289307 26.0066423,25.6557759 26.1433435,25.5646417 L26.1433435,25.5646417 C29.2874709,23.635636 31.4336796,20.3380995 31.9880789,16.5803356 L31.9880789,16.5803356 C32.0063057,16.4421156 32.0959209,16.326679 32.2204709,16.2765552 L32.2204709,16.2765552 C33.7894968,15.6507675 34.8709551,14.137941 34.9955051,12.3912036 L34.9955051,12.3912036 C35.0258831,11.9902134 34.9013331,11.5922611 34.6507143,11.2854428 L34.6507143,11.2854428 C34.3985765,10.9801435 34.0401156,10.7902807 33.6558334,10.7583838 L33.6558334,10.7583838 C32.8523342,10.6976277 32.1506014,11.3188587 32.079213,12.1542548 L32.079213,12.1542548 C32.0716185,12.2590591 31.9941545,12.3441176 31.892388,12.3547499 L31.892388,12.3547499 C31.7921405,12.3653822 31.6994874,12.2970316 31.6736661,12.1952652 L31.6736661,12.1952652 C30.9658577,9.64806633 29.5001172,7.40161008 27.4860529,5.7794226 L27.4860529,5.7794226 C23.7951208,2.82060125 19.0652595,1.65104661 14.4903263,2.5669446 L14.4903263,2.5669446 C14.3536251,2.59124703 14.215405,2.53200985 14.1333843,2.41353548 L14.1333843,2.41353548 C13.0169913,0.871849822 11.2839239,0 9.4840249,0 L9.4840249,0 C8.99797622,0 8.50585193,0.0637938894 8.01980324,0.195938375 L8.01980324,0.195938375 Z M15.67507,6.93378822 C15.6355785,6.30496274 16.0912492,5.76119578 16.6957722,5.71866652 L16.6957722,5.71866652 C19.5680161,5.51209583 22.4159576,6.39154016 24.7155755,8.19447699 L24.7155755,8.19447699 C24.9494864,8.37522634 25.1044144,8.64710982 25.1454248,8.94785245 L25.1454248,8.94785245 C25.1864351,9.24859507 25.11049,9.5538944 24.9342974,9.79539983 L24.9342974,9.79539983 C24.7596236,10.0369053 24.5014103,10.19639 24.2143378,10.2389193 L24.2143378,10.2389193 C23.9272652,10.2829674 23.635636,10.2039845 23.403244,10.0232352 L23.403244,10.0232352 C21.5182865,8.55445679 19.1913284,7.83601609 16.8415868,7.99701971 L16.8415868,7.99701971 C16.8172844,7.99853861 16.7929819,8.00005752 16.7671606,8.00005752 L16.7671606,8.00005752 C16.1960534,8.00005752 15.7145614,7.53679237 15.67507,6.93378822 L15.67507,6.93378822 Z M7.29073022,12.9091492 C7.29073022,12.0707152 7.94233924,11.3902471 8.74887627,11.3902471 L8.74887627,11.3902471 C9.5538944,11.3902471 10.2070223,12.0707152 10.2070223,12.9091492 L10.2070223,12.9091492 C10.2070223,13.7475832 9.5538944,14.4280513 8.74887627,14.4280513 L8.74887627,14.4280513 C7.94233924,14.4280513 7.29073022,13.7475832 7.29073022,12.9091492 L7.29073022,12.9091492 Z" id="path-1"></path>
    </defs>
    <g id="Homepage---2022" stroke="none" stroke-width="1" fill="none" fill-rule="evenodd">
        <g id="Mobile---Home---Revision-02" transform="translate(-19.000000, -596.000000)">
            <g id="m-Help/Icons" transform="translate(14.000000, 440.000000)">
                <g id="Group-3" transform="translate(5.000000, 156.000000)">
                    <mask id="mask-2" fill="white">
                        <use xlink:href="#path-1"></use>
                    </mask>
                    <g id="Clip-2"></g>
                    <polygon id="Fill-1" fill="#DF3A3E" mask="url(#mask-2)" points="-7.59451065 40.6291131 42.5945724 40.6291131 42.5945724 -7.59451065 -7.59451065 -7.59451065"></polygon>
                </g>
            </g>
        </g>
    </g>
</svg>