<?xml version="1.0" encoding="UTF-8"?>
<svg width="35px" height="29px" viewBox="0 0 35 29" version="1.1" xmlns="http://www.w3.org/2000/svg" xmlns:xlink="http://www.w3.org/1999/xlink">
    <title>Group 7</title>
    <defs>
        <path d="M23.2341667,0 C23.1379167,0 23.0445833,0.0379166667 22.9760417,0.106458333 L22.9760417,0.106458333 L13.72875,9.35375 C13.321875,9.760625 12.8041667,10.0377083 12.2397917,10.1514583 L12.2397917,10.1514583 C10.854375,10.5145833 9.44416667,10.7770833 8.02083333,10.9375 L8.02083333,10.9375 C7.14729167,10.9375 6.31895833,10.5466667 5.76479167,9.87 L5.76479167,9.87 C5.210625,9.19333333 4.98895833,8.30375 5.16104167,7.44770833 L5.16104167,7.44770833 L5.89020833,3.801875 C6.00395833,3.2375 6.28104167,2.71979167 6.68791667,2.31291667 L6.68791667,2.31291667 L8.378125,0.622708333 C8.483125,0.519166667 8.51375,0.361666667 8.456875,0.224583333 L8.456875,0.224583333 C8.4,0.0875 8.26729167,0 8.12,0 L8.12,0 L2.1875,0 C0.98,0 0,0.978541667 0,2.1875 L0,2.1875 L0,18.2291667 C0,19.4366667 0.98,20.4166667 2.1875,20.4166667 L2.1875,20.4166667 L32.8125,20.4166667 C34.02,20.4166667 35,19.4366667 35,18.2291667 L35,18.2291667 L35,2.1875 C35,0.978541667 34.02,0 32.8125,0 L32.8125,0 L23.2341667,0 Z M17.1354167,14.5833333 C17.1354167,13.9795833 17.6254167,13.4895833 18.2291667,13.4895833 L18.2291667,13.4895833 L29.8958333,13.4895833 C30.5010417,13.4895833 30.9895833,13.9795833 30.9895833,14.5833333 L30.9895833,14.5833333 C30.9895833,15.1870833 30.5010417,15.6770833 29.8958333,15.6770833 L29.8958333,15.6770833 L18.2291667,15.6770833 C17.6254167,15.6770833 17.1354167,15.1870833 17.1354167,14.5833333 L17.1354167,14.5833333 Z" id="path-1"></path>
        <path d="M12.2500863,0.816666667 L0.942169649,12.11875 C0.840086316,12.219375 0.770086316,12.350625 0.743836316,12.4920833 L0.743836316,12.4920833 L0.0146696494,16.1379167 C-0.0290803506,16.3522917 0.026336316,16.5754167 0.163419649,16.7460417 L0.163419649,16.7460417 C0.303419649,16.9152083 0.510502983,17.0129167 0.729252983,17.0129167 L0.729252983,17.0129167 C0.778836316,17.0129167 0.826961316,17.0085417 0.875086316,16.9983333 L0.875086316,16.9983333 L4.52091965,16.2691667 C4.66383632,16.2414583 4.79362798,16.1714583 4.89425298,16.069375 L4.89425298,16.069375 L16.1963363,4.76729167 C17.2871696,3.67791667 17.288628,1.91041667 16.199253,0.818125 L16.199253,0.818125 C15.6538363,0.272708333 14.939253,0 14.2246696,0 L14.2246696,0 C13.5100863,0 12.795503,0.272708333 12.2500863,0.816666667 L12.2500863,0.816666667 Z" id="path-3"></path>
    </defs>
    <g id="Homepage---2022" stroke="none" stroke-width="1" fill="none" fill-rule="evenodd">
        <g id="Mobile---Home---Revision-02" transform="translate(-19.000000, -536.000000)">
            <g id="m-Help/Icons" transform="translate(14.000000, 440.000000)">
                <g id="Group-7" transform="translate(5.000000, 96.000000)">
                    <g id="Group-3" transform="translate(0.000000, 8.260000)">
                        <mask id="mask-2" fill="white">
                            <use xlink:href="#path-1"></use>
                        </mask>
                        <g id="Clip-2"></g>
                        <polygon id="Fill-1" fill="#DF3A3E" mask="url(#mask-2)" points="-7.29166667 27.7083333 42.2916667 27.7083333 42.2916667 -7.29166667 -7.29166667 -7.29166667"></polygon>
                    </g>
                    <g id="Group-6" transform="translate(7.291580, 0.000000)">
                        <mask id="mask-4" fill="white">
                            <use xlink:href="#path-3"></use>
                        </mask>
                        <g id="Clip-5"></g>
                        <polygon id="Fill-4" fill="#DF3A3E" mask="url(#mask-4)" points="-7.29158035 24.3045833 24.3075863 24.3045833 24.3075863 -7.29166667 -7.29158035 -7.29166667"></polygon>
                    </g>
                </g>
            </g>
        </g>
    </g>
</svg>