<?xml version="1.0" encoding="UTF-8"?>
<svg width="35px" height="25px" viewBox="0 0 35 25" version="1.1" xmlns="http://www.w3.org/2000/svg" xmlns:xlink="http://www.w3.org/1999/xlink">
    <title>Group 7</title>
    <defs>
        <path d="M0.380434783,0 C0.170434783,0 0,0.170434783 0,0.380434783 L0,0.380434783 L0,13.3152174 C0,14.9967391 1.36195652,16.3586957 3.04347826,16.3586957 L3.04347826,16.3586957 L31.9565217,16.3586957 C33.6365217,16.3586957 35,14.9967391 35,13.3152174 L35,13.3152174 L35,0.380434783 C35,0.170434783 34.8295652,0 34.6195652,0 L34.6195652,0 L0.380434783,0 Z M4.94565217,4.94565217 C4.94565217,4.31565217 5.45695652,3.80434783 6.08695652,3.80434783 L6.08695652,3.80434783 L18.2608696,3.80434783 C18.8908696,3.80434783 19.4021739,4.31565217 19.4021739,4.94565217 L19.4021739,4.94565217 C19.4021739,5.57565217 18.8908696,6.08695652 18.2608696,6.08695652 L18.2608696,6.08695652 L6.08695652,6.08695652 C5.45695652,6.08695652 4.94565217,5.57565217 4.94565217,4.94565217 L4.94565217,4.94565217 Z M23.9673913,11.0326087 C23.9673913,10.401087 24.4786957,9.89130435 25.1086957,9.89130435 L25.1086957,9.89130435 L29.673913,9.89130435 C30.303913,9.89130435 30.8152174,10.401087 30.8152174,11.0326087 L30.8152174,11.0326087 C30.8152174,11.6626087 30.303913,12.173913 29.673913,12.173913 L29.673913,12.173913 L25.1086957,12.173913 C24.4786957,12.173913 23.9673913,11.6626087 23.9673913,11.0326087 L23.9673913,11.0326087 Z M4.94565217,11.0326087 C4.94565217,10.401087 5.45695652,9.89130435 6.08695652,9.89130435 L6.08695652,9.89130435 L10.6521739,9.89130435 C11.2836957,9.89130435 11.7934783,10.401087 11.7934783,11.0326087 L11.7934783,11.0326087 C11.7934783,11.6626087 11.2836957,12.173913 10.6521739,12.173913 L10.6521739,12.173913 L6.08695652,12.173913 C5.45695652,12.173913 4.94565217,11.6626087 4.94565217,11.0326087 L4.94565217,11.0326087 Z" id="path-1"></path>
        <path d="M3.04347826,0 C1.36195652,0 0,1.36347826 0,3.04347826 L0,3.04347826 L0,5.32608696 C0,5.53608696 0.170434783,5.70652174 0.380434783,5.70652174 L0.380434783,5.70652174 L34.6195652,5.70652174 C34.8295652,5.70652174 35,5.53608696 35,5.32608696 L35,5.32608696 L35,3.04347826 C35,1.36347826 33.6365217,0 31.9565217,0 L31.9565217,0 L3.04347826,0 Z" id="path-3"></path>
    </defs>
    <g id="Homepage---2022" stroke="none" stroke-width="1" fill="none" fill-rule="evenodd">
        <g id="Mobile---Home---Revision-02" transform="translate(-18.000000, -667.000000)">
            <g id="m-Help/Icons" transform="translate(14.000000, 440.000000)">
                <g id="Group-11" transform="translate(4.000000, 221.000000)">
                    <g id="Group-7" transform="translate(0.000000, 6.000000)">
                        <g id="Group-3" transform="translate(0.000000, 7.989130)">
                            <mask id="mask-2" fill="white">
                                <use xlink:href="#path-1"></use>
                            </mask>
                            <g id="Clip-2"></g>
                            <polygon id="Fill-1" fill="#DF3A3E" mask="url(#mask-2)" points="-7.60869565 23.9673913 42.6086957 23.9673913 42.6086957 -7.60869565 -7.60869565 -7.60869565"></polygon>
                        </g>
                        <g id="Group-6">
                            <mask id="mask-4" fill="white">
                                <use xlink:href="#path-3"></use>
                            </mask>
                            <g id="Clip-5"></g>
                            <polygon id="Fill-4" fill="#DF3A3E" mask="url(#mask-4)" points="-7.60869565 13.3152174 42.6086957 13.3152174 42.6086957 -7.60869565 -7.60869565 -7.60869565"></polygon>
                        </g>
                    </g>
                </g>
            </g>
        </g>
    </g>
</svg>