<?xml version="1.0" encoding="UTF-8"?>
<svg width="35px" height="33px" viewBox="0 0 35 33" version="1.1" xmlns="http://www.w3.org/2000/svg" xmlns:xlink="http://www.w3.org/1999/xlink">
    <title>Group 10</title>
    <defs>
        <path d="M0.797219092,5.66458235e-15 C0.357154153,5.66458235e-15 0,0.357154153 0,0.797219092 L0,0.797219092 L0,2.28801879 C0,2.53834559 0.117988426,2.77591688 0.318887637,2.92579407 L0.318887637,2.92579407 L4.94275837,6.34586397 C5.06393567,6.43515251 5.22497393,6.44950245 5.35890674,6.38253605 L5.35890674,6.38253605 C5.49443398,6.31397521 5.58053364,6.17685352 5.58053364,6.02697634 L5.58053364,6.02697634 L5.58053364,0.797219092 C5.58053364,0.357154153 5.22497393,5.66458235e-15 4.78331455,5.66458235e-15 L4.78331455,5.66458235e-15 L0.797219092,5.66458235e-15 Z" id="path-1"></path>
        <path d="M16.07685,0.470359264 L0.637905098,11.8817533 C0.0910128009,12.291524 -0.133802983,13.0058323 0.0798517337,13.656363 L0.0798517337,13.656363 C0.295100888,14.3068938 0.89939296,14.7469588 1.58340694,14.7517421 L1.58340694,14.7517421 L1.58340694,14.7597143 L33.4147708,14.7597143 C34.0987848,14.754931 34.7046713,14.314866 34.9199205,13.6643352 L34.9199205,13.6643352 C35.1335752,13.0153989 34.9103539,12.3010906 34.3618671,11.8897255 L34.3618671,11.8897255 L18.9213278,0.470359264 C18.4988016,0.156254942 17.9997425,0 17.4990889,0 L17.4990889,0 C16.9984353,0 16.4993762,0.156254942 16.07685,0.470359264 L16.07685,0.470359264 Z" id="path-3"></path>
        <path d="M0.797219092,0 C0.357154153,0 -1.41614559e-15,0.357154153 -1.41614559e-15,0.797219092 L-1.41614559e-15,0.797219092 L-1.41614559e-15,15.1742682 C-1.41614559e-15,15.6143331 0.357154153,15.9714873 0.797219092,15.9714873 L0.797219092,15.9714873 L4.38470501,15.9714873 C4.82476994,15.9714873 5.1819241,15.6143331 5.1819241,15.1742682 L5.1819241,15.1742682 L5.1819241,7.17497183 C5.1819241,6.73490689 5.53907825,6.37775274 5.97914319,6.37775274 L5.97914319,6.37775274 L11.5596768,6.37775274 C11.9997418,6.37775274 12.3568959,6.73490689 12.3568959,7.17497183 L12.3568959,7.17497183 L12.3568959,15.1742682 C12.3568959,15.6143331 12.7140501,15.9714873 13.154115,15.9714873 L13.154115,15.9714873 L27.9026682,15.9714873 C28.3427332,15.9714873 28.6998873,15.6143331 28.6998873,15.1742682 L28.6998873,15.1742682 L28.6998873,0.797219092 C28.6998873,0.357154153 28.3427332,0 27.9026682,0 L27.9026682,0 L0.797219092,0 Z M16.7416009,11.9582864 L16.7416009,7.17497183 C16.7416009,6.73490689 17.0987551,6.37775274 17.53882,6.37775274 L17.53882,6.37775274 L23.9165728,6.37775274 C24.3582321,6.37775274 24.7137919,6.73490689 24.7137919,7.17497183 L24.7137919,7.17497183 L24.7137919,11.9582864 C24.7137919,12.3983513 24.3582321,12.7555055 23.9165728,12.7555055 L23.9165728,12.7555055 L17.53882,12.7555055 C17.0987551,12.7555055 16.7416009,12.3983513 16.7416009,11.9582864 L16.7416009,11.9582864 Z" id="path-5"></path>
    </defs>
    <g id="Homepage---2022" stroke="none" stroke-width="1" fill="none" fill-rule="evenodd">
        <g id="Mobile---Home---Revision-02" transform="translate(-19.000000, -729.000000)">
            <g id="m-Help/Icons" transform="translate(14.000000, 440.000000)">
                <g id="Group-13" transform="translate(5.000000, 288.000000)">
                    <g id="Group-10" transform="translate(0.000000, 1.000000)">
                        <g id="Group-3" transform="translate(26.242988, 1.206990)">
                            <mask id="mask-2" fill="white">
                                <use xlink:href="#path-1"></use>
                            </mask>
                            <g id="Clip-2"></g>
                            <polygon id="Fill-1" fill="#DF3A3E" mask="url(#mask-2)" points="-7.97219092 14.3961824 13.5527246 14.3961824 13.5527246 -7.97219092 -7.97219092 -7.97219092"></polygon>
                        </g>
                        <g id="Group-6">
                            <mask id="mask-4" fill="white">
                                <use xlink:href="#path-3"></use>
                            </mask>
                            <g id="Clip-5"></g>
                            <polygon id="Fill-4" fill="#DF3A3E" mask="url(#mask-4)" points="-7.9720611 22.7319052 42.9718333 22.7319052 42.9718333 -7.97378536 -7.9720611 -7.97378536"></polygon>
                        </g>
                        <g id="Group-9" transform="translate(3.149145, 16.354152)">
                            <mask id="mask-6" fill="white">
                                <use xlink:href="#path-5"></use>
                            </mask>
                            <g id="Clip-8"></g>
                            <polygon id="Fill-7" fill="#DF3A3E" mask="url(#mask-6)" points="-7.97219092 23.9436782 36.6720782 23.9436782 36.6720782 -7.97219092 -7.97219092 -7.97219092"></polygon>
                        </g>
                    </g>
                </g>
            </g>
        </g>
    </g>
</svg>