<?xml version="1.0" encoding="UTF-8"?>
<svg width="35px" height="30px" viewBox="0 0 35 30" version="1.1" xmlns="http://www.w3.org/2000/svg" xmlns:xlink="http://www.w3.org/1999/xlink">
    <title>Group 3</title>
    <defs>
        <path d="M9.32272727,0 C8.295,0 7.385,0.657045455 7.05886364,1.63068182 L7.05886364,1.63068182 L5.30886364,6.88068182 C5.25477273,7.04136364 5.10363636,7.15272727 4.93181818,7.15272727 L4.93181818,7.15272727 L1.59090909,7.15272727 C0.712727273,7.15272727 0,7.86545455 0,8.74363636 L0,8.74363636 L0,10.3361364 C0,11.2127273 0.712727273,11.9254545 1.59090909,11.9254545 L1.59090909,11.9254545 L2.68704545,11.9254545 C2.84772727,11.9254545 2.9925,12.0225 3.05454545,12.1704545 L3.05454545,12.1704545 C3.11659091,12.32 3.08318182,12.4902273 2.96863636,12.6047727 L2.96863636,12.6047727 L0.466136364,15.1136364 C0.170227273,15.4127273 0.00159090909,15.8168182 0,16.2384091 L0,16.2384091 L0,21.4772727 C0.00159090909,22.1025 0.377045455,22.6672727 0.954545455,22.9090909 L0.954545455,22.9090909 C1.09931818,22.9727273 1.19318182,23.1159091 1.19318182,23.2734091 L1.19318182,23.2734091 L1.19318182,27.0502273 C1.19636364,28.1463636 2.08568182,29.0325 3.18181818,29.0340909 L3.18181818,29.0340909 L6.36363636,29.0340909 C7.46136364,29.0325 8.35068182,28.1431818 8.35227273,27.0454545 L8.35227273,27.0454545 L8.35227273,23.4659091 C8.35227273,23.2463636 8.53045455,23.0681818 8.75,23.0681818 L8.75,23.0681818 L26.25,23.0681818 C26.4695455,23.0681818 26.6477273,23.2463636 26.6477273,23.4659091 L26.6477273,23.4659091 L26.6477273,27.0454545 C26.6477273,28.1431818 27.5386364,29.0325 28.6363636,29.0340909 L28.6363636,29.0340909 L31.8181818,29.0340909 C32.9175,29.0325 33.8052273,28.1431818 33.8068182,27.0454545 L33.8068182,27.0454545 L33.8068182,23.2670455 C33.8068182,23.1079545 33.9006818,22.9663636 34.0454545,22.9027273 L34.0454545,22.9027273 C34.6213636,22.6609091 34.9984091,22.0961364 35,21.4709091 L35,21.4709091 L35,16.2384091 C34.9984091,15.8168182 34.8313636,15.4127273 34.5338636,15.1136364 L34.5338636,15.1136364 L32.0313636,12.6079545 C31.9168182,12.4934091 31.8834091,12.3231818 31.9438636,12.1736364 L31.9438636,12.1736364 C32.0059091,12.0256818 32.1522727,11.9286364 32.3129545,11.9286364 L32.3129545,11.9286364 L33.4090909,11.9318182 C34.2888636,11.9318182 35,11.2190909 35,10.3409091 L35,10.3409091 L35,8.75 C35,7.87340909 34.2888636,7.15909091 33.4090909,7.15909091 L33.4090909,7.15909091 L30.0681818,7.15909091 C29.8963636,7.15909091 29.7452273,7.04931818 29.6911364,6.88704545 L29.6911364,6.88704545 L27.9411364,1.63704545 C27.6181818,0.660227273 26.705,0 25.6772727,0 L25.6772727,0 L9.32272727,0 Z M8.00863636,9.37840909 C7.93533503,9.275 7.91636364,9.14295455 7.95454545,9.02204545 L7.95454545,9.02204545 L9.81113636,3.45386364 C9.86522727,3.29159091 10.0131818,3.185 10.1818182,3.18181818 L10.1818182,3.18181818 L24.8181818,3.18181818 C24.9884091,3.18181818 25.1411364,3.29 25.1952273,3.45386364 L25.1952273,3.45386364 L27.0454545,9.02204545 C27.0852273,9.14295455 27.0645455,9.27659091 26.9897727,9.38 L26.9897727,9.38 C26.915,9.48340909 26.7940909,9.54545455 26.6668182,9.54545455 L26.6668182,9.54545455 L8.32840909,9.54545455 C8.20272727,9.54386364 8.08340909,9.48181818 8.00863636,9.37840909 L8.00863636,9.37840909 Z M26.25,18.2954545 L26.25,16.7045455 C26.25,16.2654545 26.6063636,15.9090909 27.0454545,15.9090909 L27.0454545,15.9090909 L31.8181818,15.9090909 C32.2588636,15.9090909 32.6136364,16.2654545 32.6136364,16.7045455 L32.6136364,16.7045455 L32.6136364,18.2954545 C32.6136364,18.7345455 32.2588636,19.0909091 31.8181818,19.0909091 L31.8181818,19.0909091 L27.0454545,19.0909091 C26.6063636,19.0909091 26.25,18.7345455 26.25,18.2954545 L26.25,18.2954545 Z M2.38636364,18.2954545 L2.38636364,16.7045455 C2.38636364,16.2654545 2.74272727,15.9090909 3.18181818,15.9090909 L3.18181818,15.9090909 L7.95454545,15.9090909 C8.39363636,15.9090909 8.75,16.2654545 8.75,16.7045455 L8.75,16.7045455 L8.75,18.2954545 C8.75,18.7345455 8.39363636,19.0909091 7.95454545,19.0909091 L7.95454545,19.0909091 L3.18181818,19.0909091 C2.74272727,19.0909091 2.38636364,18.7345455 2.38636364,18.2954545 L2.38636364,18.2954545 Z" id="path-1"></path>
    </defs>
    <g id="Homepage---2022" stroke="none" stroke-width="1" fill="none" fill-rule="evenodd">
        <g id="Mobile---Home---Revision-02" transform="translate(-174.000000, -536.000000)">
            <g id="m-Help/Icons" transform="translate(14.000000, 440.000000)">
                <g id="Group-14" transform="translate(160.000000, 93.000000)">
                    <g id="Group-3" transform="translate(0.000000, 3.000000)">
                        <mask id="mask-2" fill="white">
                            <use xlink:href="#path-1"></use>
                        </mask>
                        <g id="Clip-2"></g>
                        <polygon id="Fill-1" fill="#DF3A3E" mask="url(#mask-2)" points="-7.95454545 36.9886364 42.9545455 36.9886364 42.9545455 -7.95454545 -7.95454545 -7.95454545"></polygon>
                    </g>
                </g>
            </g>
        </g>
    </g>
</svg>