<?xml version="1.0" encoding="utf-8"?>
<!-- Generator: Adobe Illustrator 27.2.0, SVG Export Plug-In . SVG Version: 6.00 Build 0)  -->
<svg version="1.1" id="Layer_1" xmlns="http://www.w3.org/2000/svg" xmlns:xlink="http://www.w3.org/1999/xlink" x="0px" y="0px"
	 width="35px" height="32px" viewBox="0 0 35 32" style="enable-background:new 0 0 35 32;" xml:space="preserve">
<style type="text/css">
	.st0{display:none;}
	.st1{display:inline;}
	.st2{fill:#E03A3E;}
	.st3{display:inline;fill:#E03A3E;}
</style>
<g id="RV" class="st0">
	<g class="st1">
		<path class="st2" d="M33.5,21.2h-4.4v-6.3c0-5.3-4.3-9.6-9.6-9.6H2.7c-1.3,0-2.3,1.1-2.3,2.3V21c0,1.3,1.1,2.3,2.3,2.3h7.9
			c0-2.2,1.8-4,4-4s4,1.8,4,4h8.3h1.2h5.2c0.6,0,1.1-0.5,1.1-1.1C34.7,21.7,34.1,21.2,33.5,21.2z M9.2,20.8c0,0.3-0.2,0.5-0.5,0.5
			H3.8c-0.3,0-0.5-0.2-0.5-0.5v-9.3c0-0.3,0.2-0.5,0.5-0.5h4.9c0.3,0,0.5,0.2,0.5,0.5V20.8z M24.3,15.6c0,0.3-0.2,0.5-0.5,0.5h-4.7
			c-0.3,0-0.5-0.2-0.5-0.5v-4.2c0-0.3,0.2-0.5,0.5-0.5h4.7c0.3,0,0.5,0.2,0.5,0.5V15.6z"/>
		<path class="st2" d="M14.7,22.1c0.8,0,1.4,0.6,1.4,1.4s-0.6,1.4-1.4,1.4c-0.8,0-1.4-0.6-1.4-1.4S13.9,22.1,14.7,22.1 M14.7,20.2
			c-1.8,0-3.2,1.4-3.2,3.2c0,1.8,1.4,3.2,3.2,3.2s3.2-1.4,3.2-3.2C17.9,21.7,16.4,20.2,14.7,20.2L14.7,20.2z"/>
	</g>
	<path class="st3" d="M4.7,17.6L4.7,17.6c-0.2,0-0.4-0.2-0.4-0.4v-1.7c0-0.2,0.2-0.4,0.4-0.4l0,0c0.2,0,0.4,0.2,0.4,0.4v1.7
		C5.1,17.4,4.9,17.6,4.7,17.6z"/>
</g>
<g>
	<g>
		<g>
			<g>
				<path class="st2" d="M25.7,0.5c-4,0-7.3,3.3-7.3,7.3c0,4,3.3,7.3,7.3,7.3s7.3-3.3,7.3-7.3C33.1,3.7,29.8,0.5,25.7,0.5z
					 M25.4,6.4L27,7.2c1,0.5,1.5,1.6,1.3,2.7c-0.1,0.9-0.7,1.5-1.4,1.9V12c0,0.6-0.5,1-1,1c-0.6,0-1-0.5-1-1v-0.2
					c-0.8-0.3-1.5-0.9-1.8-1.7c-0.2-0.5,0-1.1,0.5-1.3c0.5-0.2,1.1,0,1.3,0.5c0.2,0.4,0.6,0.6,1,0.6c0.3,0,0.4-0.2,0.4-0.4
					c0-0.1,0-0.4-0.3-0.5l-1.7-0.9c-1-0.5-1.5-1.6-1.3-2.7c0.2-1,0.9-1.7,1.8-1.9V3.4c0-0.6,0.5-1,1-1c0.6,0,1,0.5,1,1v0.4
					c0.6,0.3,1.2,0.8,1.5,1.5c0.2,0.5,0,1.1-0.5,1.3c-0.5,0.2-1.1,0-1.3-0.5c-0.2-0.4-0.6-0.6-1-0.6c-0.3,0-0.4,0.2-0.4,0.4
					C25.1,6,25.1,6.2,25.4,6.4z"/>
				<path class="st2" d="M25,17.7c-0.6-0.1-1.3,0.1-1.8,0.5c-0.2-0.7-0.8-1.2-1.5-1.4c-0.6-0.1-1.2,0.1-1.7,0.5
					c-0.2-0.6-0.9-1.2-1.6-1.3c-0.6-0.1-1.5,0.2-1.9,0.7v-5.1c0-0.7-0.4-1.4-1.1-1.6c-1.1-0.4-2.2,0.5-2.2,1.5v13
					c-0.9,0-1.6-0.7-1.6-1.6v-1.5c0-0.3-0.3-0.6-0.6-0.6h-0.5c-1.2,0-2.2,1-2.2,2.2v4c0,0.7,0.3,1.4,0.8,1.8l2.2,1.9
					c0.4,0.4,1,0.6,1.6,0.6h9c0.6,0,1.3-0.3,1.7-0.7l1.8-1.8c0.5-0.5,0.7-1.1,0.7-1.7v-7.9C26.4,18.6,25.8,17.8,25,17.7z M11.3,16.1
					h-2c-0.4,0-0.8-0.4-0.8-0.8V5.5c0-0.4,0.4-0.8,0.8-0.8h7.7c0.3-0.9,0.8-1.7,1.3-2.4h-13c-1.8,0-3.3,1.5-3.3,3.3v9.8
					c0,1.8,1.5,3.3,3.3,3.3h6.1V16.1z M5.8,11.7c-0.8,0-1.4-0.6-1.4-1.4C4.5,9.6,5.1,9,5.8,9c0.8,0,1.4,0.6,1.4,1.4
					C7.2,11.1,6.6,11.7,5.8,11.7z"/>
			</g>
		</g>
	</g>
</g>
</svg>
