<?xml version="1.0" encoding="utf-8"?>
<!-- Generator: Adobe Illustrator 27.2.0, SVG Export Plug-In . SVG Version: 6.00 Build 0)  -->
<svg version="1.1" id="Layer_1" xmlns="http://www.w3.org/2000/svg" xmlns:xlink="http://www.w3.org/1999/xlink" x="0px" y="0px"
	 width="35px" height="32px" viewBox="0 0 35 32" style="enable-background:new 0 0 35 32;" xml:space="preserve">
<style type="text/css">
	.st0{fill:#E03A3E;}
</style>
<g id="RV">
	<g>
		<path class="st0" d="M33.5,21.2h-4.4v-6.3c0-5.3-4.3-9.6-9.6-9.6H2.7c-1.3,0-2.3,1.1-2.3,2.3V21c0,1.3,1.1,2.3,2.3,2.3h7.9
			c0-2.2,1.8-4,4-4s4,1.8,4,4h8.3h1.2h5.2c0.6,0,1.1-0.5,1.1-1.1C34.7,21.7,34.1,21.2,33.5,21.2z M9.2,20.8c0,0.3-0.2,0.5-0.5,0.5
			H3.8c-0.3,0-0.5-0.2-0.5-0.5v-9.3c0-0.3,0.2-0.5,0.5-0.5h4.9c0.3,0,0.5,0.2,0.5,0.5V20.8z M24.3,15.6c0,0.3-0.2,0.5-0.5,0.5h-4.7
			c-0.3,0-0.5-0.2-0.5-0.5v-4.2c0-0.3,0.2-0.5,0.5-0.5h4.7c0.3,0,0.5,0.2,0.5,0.5V15.6z"/>
		<path class="st0" d="M14.7,22.1c0.8,0,1.4,0.6,1.4,1.4s-0.6,1.4-1.4,1.4c-0.8,0-1.4-0.6-1.4-1.4S13.9,22.1,14.7,22.1 M14.7,20.2
			c-1.8,0-3.2,1.4-3.2,3.2c0,1.8,1.4,3.2,3.2,3.2s3.2-1.4,3.2-3.2C17.9,21.7,16.4,20.2,14.7,20.2L14.7,20.2z"/>
	</g>
	<path class="st0" d="M4.7,17.6L4.7,17.6c-0.2,0-0.4-0.2-0.4-0.4v-1.7c0-0.2,0.2-0.4,0.4-0.4l0,0c0.2,0,0.4,0.2,0.4,0.4v1.7
		C5.1,17.4,4.9,17.6,4.7,17.6z"/>
</g>
</svg>
