<?xml version="1.0" encoding="UTF-8"?>
<svg width="205px" height="65px" viewBox="0 0 205 65" version="1.1" xmlns="http://www.w3.org/2000/svg" xmlns:xlink="http://www.w3.org/1999/xlink">
    <title>Group 39</title>
    <g id="Homepage---2022" stroke="none" stroke-width="1" fill="none" fill-rule="evenodd">
        <g id="Home-/-Desktop---Revision-02" transform="translate(-390.000000, -2940.000000)">
            <g id="Footer" transform="translate(-37.000000, 2765.000000)">
                <g id="Group-39" transform="translate(427.000000, 175.000000)">
                    <path d="M88.0712865,44.4106631 L87.8843357,44.3167404 C87.790413,44.5036912 87.6964904,44.5036912 87.5095395,44.5036912 C87.228666,44.5036912 85.541636,43.3801972 83.1059081,43.3801972 C79.6388199,43.3801972 76.7343732,45.4411289 76.7343732,48.7203718 C76.7343732,52.3744109 79.8266652,53.9666237 83.0119854,53.9666237 C86.5721018,53.9666237 87.6025677,52.2804882 88.0712865,52.2804882 C88.0712865,52.2804882 88.1643147,52.3744109 88.2591319,52.3744109 L88.35216,52.2804882 L86.8538699,50.2195565 L86.7590527,50.3125847 L86.7590527,50.5943527 C86.7590527,51.2500224 85.0729172,52.2804882 83.1059081,52.2804882 C80.7632084,52.2804882 78.7022767,51.343945 78.7022767,48.7203718 C78.7022767,46.0967986 80.7632084,45.0663327 83.0119854,45.0663327 C84.698121,45.0663327 86.4790737,46.0037704 86.4790737,46.3776721 L86.4790737,46.5655174 L86.6660245,46.6594401 L88.0712865,44.4106631 Z" id="Fill-1" fill="#FFFFFF"></path>
                    <path d="M98.0024012,53.9667132 C101.188616,53.9667132 103.811295,52.0927323 103.811295,48.7204613 C103.811295,45.253373 101.188616,43.3793922 98.0024012,43.3793922 L98.0024012,45.0664222 C100.064227,45.0664222 101.844286,46.3777616 101.844286,48.7204613 C101.844286,51.0622665 100.064227,52.2805777 98.0024012,52.2805777 L98.0024012,53.9667132 Z M98.0024012,43.3793922 C94.7231583,43.3793922 92.1004796,45.253373 92.1004796,48.7204613 C92.1004796,52.0927323 94.7231583,53.9667132 98.0024012,53.9667132 L98.0024012,52.2805777 C95.8484413,52.2805777 94.0683831,51.0622665 94.0683831,48.7204613 C94.0683831,46.3777616 95.8484413,45.0664222 98.0024012,45.0664222 L98.0024012,43.3793922 Z" id="Fill-3" fill="#FFFFFF"></path>
                    <path d="M116.648287,43.5672375 L116.648287,43.7550828 C116.928266,43.7550828 117.023083,43.848111 117.023083,43.9420337 C117.023083,44.0350618 116.928266,44.2229072 116.928266,44.3159353 L113.74384,50.1257233 L110.932422,44.691626 C110.651548,44.3159353 110.557626,44.1289845 110.557626,44.0350618 C110.557626,43.848111 110.744577,43.7550828 110.932422,43.7550828 L110.932422,43.5672375 L107.84013,43.5672375 L107.84013,43.7550828 C108.121898,43.7550828 108.214926,43.848111 108.214926,44.2229072 L108.214926,53.2180153 C108.214926,53.4979944 108.121898,53.6858397 107.84013,53.6858397 L107.84013,53.873685 L110.36978,53.873685 L110.36978,53.6858397 C109.994984,53.6858397 109.901956,53.4979944 109.901956,53.2180153 L109.901956,46.8464804 L113.555995,53.873685 L113.74384,53.873685 L117.396985,46.8464804 L117.396985,53.2180153 C117.396985,53.4979944 117.396985,53.6858397 117.116112,53.6858397 L117.116112,53.873685 L119.832713,53.873685 L119.832713,53.6858397 C119.458811,53.6858397 119.458811,53.4979944 119.458811,53.2180153 L119.458811,44.2229072 C119.458811,43.848111 119.458811,43.7550828 119.832713,43.7550828 L119.832713,43.5672375 L116.648287,43.5672375 Z" id="Fill-5" fill="#FFFFFF"></path>
                    <path d="M132.857551,43.5672375 L132.857551,43.7550828 C133.044502,43.7550828 133.231453,43.848111 133.231453,43.9420337 C133.231453,44.0350618 133.13753,44.2229072 133.044502,44.3159353 L129.95221,50.1257233 L127.047763,44.691626 C126.860812,44.3159353 126.765995,44.1289845 126.765995,44.0350618 C126.765995,43.848111 126.952946,43.7550828 127.140791,43.7550828 L127.140791,43.5672375 L124.049394,43.5672375 L124.049394,43.7550828 C124.42419,43.7550828 124.42419,43.848111 124.42419,44.2229072 L124.42419,53.2180153 C124.42419,53.4979944 124.42419,53.6858397 124.049394,53.6858397 L124.049394,53.873685 L126.486016,53.873685 L126.486016,53.6858397 C126.11122,53.6858397 126.11122,53.4979944 126.11122,53.2180153 L126.11122,46.8464804 L129.670442,53.873685 L129.858287,53.873685 L133.513221,46.8464804 L133.606249,46.8464804 L133.606249,53.2180153 C133.606249,53.4979944 133.513221,53.6858397 133.231453,53.6858397 L133.231453,53.873685 L135.948054,53.873685 L135.948054,53.6858397 C135.66718,53.6858397 135.574152,53.4979944 135.574152,53.2180153 L135.574152,44.2229072 C135.574152,43.848111 135.66718,43.7550828 135.948054,43.7550828 L135.948054,43.5672375 L132.857551,43.5672375 Z" id="Fill-7" fill="#FFFFFF"></path>
                    <path d="M142.601357,44.223265 C142.601357,43.8484688 142.694385,43.7545461 143.068287,43.7545461 L143.068287,43.5675953 L140.258657,43.5675953 L140.258657,43.7545461 C140.539531,43.7545461 140.633453,43.8484688 140.633453,44.223265 L140.633453,50.4069546 C140.633453,53.123556 142.601357,53.967071 145.786677,53.967071 C149.065025,53.967071 151.032035,53.123556 151.032035,50.4069546 L151.032035,44.223265 C151.032035,43.8484688 151.032035,43.7545461 151.40862,43.7545461 L151.40862,43.5675953 L148.598096,43.5675953 L148.598096,43.7545461 C148.972892,43.7545461 148.972892,43.8484688 148.972892,44.223265 L148.972892,50.0321584 C148.972892,51.718294 148.316328,52.280041 145.786677,52.280041 C143.256132,52.280041 142.601357,51.718294 142.601357,50.0321584 L142.601357,44.223265 Z" id="Fill-9" fill="#FFFFFF"></path>
                    <path d="M166.398678,44.223265 C166.398678,43.8484688 166.491706,43.7545461 166.773474,43.7545461 L166.773474,43.5675953 L164.243823,43.5675953 L164.243823,43.7545461 C164.618619,43.7545461 164.618619,43.8484688 164.618619,44.223265 L164.618619,50.6878281 L158.528852,44.1293423 C158.43493,44.0354196 158.341902,43.941497 158.341902,43.941497 C158.341902,43.8484688 158.43493,43.7545461 158.715803,43.7545461 L158.715803,43.5675953 L155.718328,43.5675953 L155.718328,43.7545461 C156.093125,43.7545461 156.093125,43.8484688 156.093125,44.223265 L156.093125,53.2174786 C156.093125,53.4983522 156.093125,53.6861975 155.718328,53.6861975 L155.718328,53.8740428 L158.247979,53.8740428 L158.247979,53.6861975 C157.967105,53.6861975 157.872288,53.4983522 157.872288,53.2174786 L157.872288,46.3781194 L164.243823,53.123556 C164.430774,53.3114013 164.525591,53.405324 164.525591,53.4983522 C164.525591,53.5931693 164.336851,53.6861975 164.149006,53.6861975 L164.149006,53.8740428 L166.773474,53.8740428 L166.773474,53.6861975 C166.491706,53.6861975 166.398678,53.4983522 166.398678,53.2174786 L166.398678,44.223265 Z" id="Fill-11" fill="#FFFFFF"></path>
                    <path d="M173.799784,44.223265 C173.799784,43.8484688 173.893707,43.7545461 174.362425,43.7545461 L174.362425,43.5675953 L171.271028,43.5675953 L171.271028,43.7545461 C171.739747,43.7545461 171.832775,43.8484688 171.832775,44.223265 L171.832775,53.2174786 C171.832775,53.4983522 171.739747,53.6861975 171.271028,53.6861975 L171.271028,53.8740428 L174.362425,53.8740428 L174.362425,53.6861975 C173.893707,53.6861975 173.799784,53.4983522 173.799784,53.2174786 L173.799784,44.223265 Z" id="Fill-13" fill="#FFFFFF"></path>
                    <path d="M184.19926,45.2535519 L187.572425,45.2535519 C187.94901,45.2535519 188.041144,45.3465801 188.041144,45.6283481 L188.228095,45.6283481 L188.228095,43.1926202 L188.041144,43.1926202 C188.041144,43.4734937 187.94901,43.5674164 187.572425,43.5674164 L178.766057,43.5674164 C178.391261,43.5674164 178.299127,43.4734937 178.299127,43.1926202 L178.110387,43.1926202 L178.110387,45.6283481 L178.299127,45.6283481 C178.299127,45.3465801 178.391261,45.2535519 178.766057,45.2535519 L182.139222,45.2535519 L182.139222,53.2172997 C182.139222,53.4981733 182.139222,53.6860186 181.765321,53.6860186 L181.765321,53.8738639 L184.57495,53.8738639 L184.57495,53.6860186 C184.19926,53.6860186 184.19926,53.4981733 184.19926,53.2172997 L184.19926,45.2535519 Z" id="Fill-15" fill="#FFFFFF"></path>
                    <path d="M191.133436,43.5672375 L191.133436,43.7550828 C191.508232,43.7550828 191.602155,44.0350618 191.883028,44.3159353 L195.724913,49.3761309 L195.724913,53.2180153 C195.724913,53.4979944 195.724913,53.6858397 195.444039,53.6858397 L195.444039,53.873685 L198.066718,53.873685 L198.066718,53.6858397 C197.785845,53.6858397 197.785845,53.4979944 197.785845,53.2180153 L197.785845,49.3761309 L201.439884,44.3159353 C201.626834,44.0350618 201.908602,43.7550828 202.189476,43.7550828 L202.189476,43.5672375 L199.285029,43.5672375 L199.285029,43.7550828 C199.378057,43.7550828 199.472875,43.848111 199.472875,43.9420337 C199.472875,43.9420337 199.378057,44.0350618 199.378057,44.1289845 L196.756273,47.6899954 L194.224834,44.2229072 C194.1327,44.0350618 194.037883,43.9420337 194.037883,43.848111 C194.037883,43.848111 194.1327,43.7550828 194.224834,43.7550828 L194.224834,43.5672375 L191.133436,43.5672375 Z" id="Fill-17" fill="#FFFFFF"></path>
                    <path d="M86.197574,39.0698623 L86.197574,38.2272418 C84.4175158,38.0393965 84.1366423,37.6646003 84.1366423,36.6341344 L84.1366423,25.2032984 L92.3812636,25.2032984 C93.7865257,25.2032984 94.2552445,25.3902492 94.4430898,26.2337643 L95.2857104,26.2337643 L95.2857104,18.9256861 L94.4430898,18.9256861 C94.2552445,19.956152 93.7865257,20.1439973 92.3812636,20.1439973 L84.1366423,20.1439973 L84.1366423,12.179355 L97.3475366,12.179355 C98.5649533,12.179355 99.0336721,12.3672003 99.2206229,13.3037435 L100.064138,13.3037435 L100.064138,5.99655988 L99.2206229,5.99655988 C99.0336721,6.93310306 98.5649533,7.1200539 97.3475366,7.1200539 L75.9850492,7.1200539 L75.9850492,7.96356891 C77.7651074,8.15141425 78.0459809,8.52531592 78.0459809,9.55667628 L78.0459809,36.6341344 C78.0459809,37.6646003 77.7651074,38.0393965 76.0780773,38.2272418 L76.0780773,39.0698623 L86.197574,39.0698623 Z" id="Fill-19" fill="#FFFFFF"></path>
                    <path d="M114.586461,39.0698623 L114.586461,38.2272418 C112.806403,38.0393965 112.525529,37.6646003 112.525529,36.6341344 L112.525529,9.55667628 C112.525529,8.52531592 112.806403,8.15141425 114.586461,7.96356891 L114.586461,7.1200539 L104.373936,7.1200539 L104.373936,7.96356891 C106.153994,8.15141425 106.434868,8.52531592 106.434868,9.55667628 L106.434868,36.6341344 C106.434868,37.6646003 106.153994,38.0393965 104.373936,38.2272418 L104.373936,39.0698623 L114.586461,39.0698623 Z" id="Fill-21" fill="#FFFFFF"></path>
                    <path d="M133.231453,26.9835355 L137.728112,35.602953 C138.384676,36.8212642 138.477704,37.1021377 138.477704,37.4769339 C138.477704,38.0395754 137.915957,38.1326035 137.261182,38.2265262 L137.261182,39.0700412 L146.25629,39.0700412 L146.25629,38.2265262 C145.03619,38.0395754 144.661394,37.0091095 143.350055,34.2916136 L138.664655,25.015632 C143.256132,23.9851661 145.504909,20.6120005 145.504909,16.0214183 C145.504909,10.4933984 141.476074,7.1202328 134.82456,7.1202328 L133.231453,7.1202328 L133.231453,12.1795339 L134.074968,12.1795339 C137.822929,12.1795339 139.415142,13.7735358 139.415142,16.4901371 C139.415142,19.1137104 137.822929,20.7059232 134.074968,20.7059232 L133.231453,20.7059232 L133.231453,26.9835355 Z M128.546948,39.0700412 L128.546948,38.2265262 C127.422559,38.0395754 127.140791,37.6638847 127.140791,36.6343133 L127.140791,25.859147 L132.669705,25.859147 L133.231453,26.9835355 L133.231453,20.7059232 L127.140791,20.7059232 L127.140791,12.1795339 L133.231453,12.1795339 L133.231453,7.1202328 L119.645762,7.1202328 L119.645762,7.96374781 C120.864073,8.15069865 121.144947,8.52549482 121.144947,9.55685518 L121.144947,36.6343133 C121.144947,37.6638847 120.864073,38.0395754 119.832713,38.2265262 L119.832713,39.0700412 L128.546948,39.0700412 Z" id="Fill-23" fill="#FFFFFF"></path>
                    <path d="M149.346793,37.2895358 L150.001569,37.6643319 C150.376365,37.1025849 150.658133,36.8217114 151.032035,36.8217114 C151.970367,36.8217114 152.814776,37.3834584 154.686968,38.1330508 C156.561843,38.7887205 158.997571,39.4452846 161.902018,39.4452846 C171.364951,39.4452846 175.768582,34.3850891 175.768582,29.325788 C175.768582,16.8644861 156.561843,21.548991 156.561843,15.0844279 C156.561843,13.0234962 157.967105,11.3364661 161.432405,11.3364661 C166.491706,11.3364661 169.115279,13.5852432 169.115279,14.9905052 L169.115279,16.0218655 L169.959689,16.3027391 L174.455454,8.80681558 L173.987629,8.52594207 C173.613728,8.99376641 173.238931,9.27553442 172.582367,9.27553442 C171.926698,9.27553442 170.98926,8.71289291 169.304019,8.05722323 C167.522172,7.30763088 165.181261,6.74588387 161.995046,6.74588387 C154.031298,6.74588387 150.470287,11.1495153 150.470287,16.0218655 C150.470287,27.3587789 169.678815,22.954253 169.678815,29.6066615 C169.678815,32.4171855 167.80394,34.3850891 162.181997,34.3850891 C158.715803,34.3850891 153.748636,32.7919817 153.748636,30.73105 C153.748636,30.5432046 153.843453,30.3562538 153.843453,30.0753803 L153.000833,29.7005841 L149.346793,37.2895358 Z" id="Fill-25" fill="#FFFFFF"></path>
                    <path d="M196.28666,39.0698623 L196.28666,38.2272418 C195.163166,38.0393965 194.78837,37.6646003 194.78837,36.6341344 L194.78837,12.179355 L202.095553,12.179355 C203.50171,12.179355 203.969534,12.3672003 204.158274,13.5855115 L205,13.5855115 L205,5.99655988 L204.158274,5.99655988 C203.969534,6.93310306 203.50171,7.1200539 202.095553,7.1200539 L181.390525,7.1200539 C180.077396,7.1200539 179.515649,6.93310306 179.327804,5.99655988 L178.485183,5.99655988 L178.485183,13.5855115 L179.327804,13.5855115 C179.515649,12.3672003 180.077396,12.179355 181.390525,12.179355 L188.697708,12.179355 L188.697708,36.6341344 C188.697708,37.6646003 188.41594,38.0393965 187.479397,38.2272418 L187.479397,39.0698623 L196.28666,39.0698623 Z" id="Fill-27" fill="#FFFFFF"></path>
                    <path d="M35.0414743,0 L30.2621522,2.90444672 C30.8247938,7.96374781 28.763862,10.8681945 25.4846192,12.9300207 L26.9829093,18.4580407 L31.9491823,15.5526995 L36.258891,31.4810896 L42.6295315,27.826156 L35.0414743,0 Z" id="Fill-29" fill="#DF3B3E"></path>
                    <path d="M0,23.8916907 L1.21741669,29.325788 C6.46456312,30.3562538 8.61941749,33.1676724 9.55685518,36.8217114 L15.4587768,37.1965076 L14.1474374,31.6684877 L30.9184481,32.6050309 L29.3262352,25.5778262 L0,23.8916907 Z" id="Fill-31" fill="#DF3B3E"></path>
                    <path d="M12.836277,64.0862099 L18.4573251,64.5540342 C20.9869756,60.0573746 24.4540639,58.9320916 28.3889764,59.119937 L30.4499081,53.873685 L24.7349374,53.3110435 L30.8247043,38.0392176 L23.4227035,37.3835479 L12.836277,64.0862099 Z" id="Fill-33" fill="#DF3B3E"></path>
                    <path d="M55.840873,64.4604694 L57.9957273,59.4011683 C54.4356109,55.654101 54.3416883,52.0930901 55.7469503,48.5329737 L51.2493962,44.8789347 L49.0015137,50.1260811 L35.8845421,39.7257109 L32.9800954,46.3781194 L55.840873,64.4604694 Z" id="Fill-35" fill="#DF3B3E"></path>
                    <path d="M69.5200388,25.0154531 L65.2103301,21.4553367 C60.4319025,23.6110855 56.9648142,22.5797252 53.9673393,20.1439973 L49.0019609,23.1414722 L53.4046978,26.8894339 L39.2572604,35.7906194 L44.7852803,40.569047 L69.5200388,25.0154531 Z" id="Fill-37" fill="#DF3B3E"></path>
                </g>
            </g>
        </g>
    </g>
</svg>