<?xml version="1.0" encoding="utf-8"?>
<!-- Generator: Adobe Illustrator 16.0.0, SVG Export Plug-In . SVG Version: 6.00 Build 0)  -->
<!DOCTYPE svg PUBLIC "-//W3C//DTD SVG 1.1//EN" "http://www.w3.org/Graphics/SVG/1.1/DTD/svg11.dtd">
<svg version="1.1" id="Layer_2" xmlns="http://www.w3.org/2000/svg" xmlns:xlink="http://www.w3.org/1999/xlink" x="0px" y="0px"
	 width="364.434px" height="121.796px" viewBox="27.783 49.215 364.434 121.796"
	 enable-background="new 27.783 49.215 364.434 121.796" xml:space="preserve">
<g>
	<polygon fill="#8B5586" points="139.571,49.115 34.318,74.864 105.863,74.307 	"/>
	<polygon fill="#C0C55C" points="56.196,98.617 45.386,138.648 101.37,78.966 	"/>
	<polygon fill="#9EAE56" points="55.314,96.357 100.342,76.772 27.783,77.335 	"/>
	<polygon fill="#5981B5" points="102.715,81.074 47.063,140.41 83.528,128.567 	"/>
	<polygon fill="#5B306B" points="143.548,49.168 107.646,75.997 130.783,164.913 	"/>
	<polygon fill="#7297CE" points="106.022,79.371 85.881,129.217 129.08,167.988 	"/>
</g>
<g>
	<path fill="#292C69" d="M164.955,72.425c-7.29,0-11.525-5.031-11.525-11.559c0-6.528,4.858-11.87,12.394-11.87
		c2.433,0,4.58,0.483,5.938,1.252l-0.033,3.817c-1.909-1.146-3.751-1.63-5.799-1.63c-5.309,0-7.947,3.851-7.947,8.159
		c0,4.62,2.916,8.192,7.635,8.192c2.081,0,3.89-0.59,5.62-1.524l1.146,3.022c-2.532,1.524-4.964,2.154-7.43,2.154V72.425z
		 M176.547,72.08V49.208h12.738l-1.146,3.506h-7.39v5.938h7.39v3.506h-7.39v6.422h8.536v3.506h-12.738V72.08z M210.732,72.08
		l-10.346-13.395c-0.974-1.286-1.63-2.154-2.253-3.122h-0.066c0.066,0.762,0.106,1.981,0.106,3.055v13.467h-4.202V49.215h4.268
		l9.961,12.877c1.074,1.392,1.703,2.253,2.253,3.194h0.066c-0.066-1.007-0.066-2.326-0.066-3.333V49.215h4.162v22.872h-3.891
		L210.732,72.08z M235.514,52.714h-6.25V72.08h-4.235V52.714H218.4v-3.506h18.12L235.514,52.714z M251.996,72.08
		c-3.539-5.899-5.137-8.749-6.005-9.027h-1.942v9.027h-4.201V49.208h6.177c5.938,0,8.159,2.949,8.159,6.455
		c0,3.056-2.082,5.104-4.235,6.005v0.033c1.04,0.59,3.333,4.546,6.84,10.379H251.996z M246.131,52.747h-2.082v7.118h2.115
		c2.154,0,3.784-1.63,3.784-3.711c0-1.875-1.213-3.4-3.817-3.4V52.747z M274.975,72.08l-2.254-5.727h-8.158l-2.115,5.727h-4.129
		l8.889-22.978h3.055l9.199,22.978h-4.48H274.975z M269.559,57.678c-0.417-1.146-0.695-2.081-0.867-2.843h-0.033
		c-0.14,0.795-0.451,1.703-0.836,2.777l-1.98,5.309h5.553l-1.842-5.242H269.559z M282.994,72.08V49.208h4.201v19.333h8.191v3.539
		H282.994L282.994,72.08z M161.761,102.143h-7.257V79.271h7.291c4.48,0,6.594,2.916,6.594,5.693c0,1.982-0.974,3.818-2.843,4.752
		v0.033c2.532,0.59,4.341,2.811,4.341,5.521c0,3.261-2.359,6.873-8.119,6.873H161.761z M160.753,82.81h-2.048v5.972h2.499
		c1.491,0,2.982-1.213,2.982-3.022C164.187,83.95,163.073,82.81,160.753,82.81L160.753,82.81z M161.549,92.288h-2.843v6.316h2.671
		c2.81,0,4.202-1.253,4.202-3.334C165.578,93.5,164.12,92.288,161.549,92.288z M174.705,102.143V79.271h12.738l-1.146,3.506h-7.39
		v5.938h7.39v3.506h-7.39v6.422h8.537v3.506h-12.738V102.143z M199.346,102.143h-6.667V79.271h6.939
		c8.298,0,12.672,4.546,12.672,11.247S207.432,102.143,199.346,102.143z M199.519,82.81h-2.638v15.794h2.671
		c6.005,0,8.258-3.785,8.258-8.02c0-4.58-2.744-7.774-8.298-7.774H199.519z M228.15,82.777h-7.43v6.038h7.323l0.032,3.473h-7.355
		v9.855h-4.203V79.271h12.771l-1.146,3.506H228.15z M252.414,99.194c-2.082,2.081-4.965,3.3-8.398,3.3
		c-3.433,0-6.07-0.974-8.085-2.81c-2.326-2.081-3.612-5.169-3.612-8.749c0-3.579,1.18-6.389,3.294-8.536
		c2.048-2.081,4.931-3.334,8.397-3.334c3.678,0,6.733,1.286,8.781,3.539c1.909,2.081,2.883,4.931,2.883,8.119
		C255.674,94.09,254.527,97.113,252.414,99.194L252.414,99.194z M243.977,82.565c-4.268,0-7.258,3.088-7.258,8.225
		c0,5.137,2.982,8.258,7.258,8.258s7.217-3.088,7.217-8.258C251.193,85.62,248.351,82.565,243.977,82.565z M272.82,102.143
		c-3.539-5.899-5.137-8.749-6.005-9.027h-1.942v9.027h-4.201V79.271h6.177c5.938,0,8.159,2.949,8.159,6.455
		c0,3.056-2.082,5.104-4.236,6.005v0.033c1.041,0.59,3.334,4.546,6.84,10.379H272.82z M266.955,82.81h-2.082v7.118h2.115
		c2.153,0,3.783-1.63,3.783-3.711c0-1.875-1.213-3.4-3.816-3.4V82.81z M288.369,102.143h-6.668V79.271h6.939
		c8.297,0,12.665,4.546,12.665,11.247s-4.858,11.625-12.944,11.625H288.369z M288.541,82.81h-2.639v15.794h2.672
		c6.004,0,8.258-3.785,8.258-8.02c0-4.58-2.744-7.774-8.298-7.774H288.541z M311.725,102.488c-3.229,0-5.521-1.041-7.045-2.081
		l1.703-3.089c1.252,0.868,3.021,1.737,5.169,1.737c1.77,0,3.784-0.729,3.784-2.638c0-3.261-5.554-3.851-8.33-6.979
		c-0.902-1.008-1.492-2.327-1.492-4.096c0-3.4,2.672-6.283,7.463-6.283c2.433,0,4.375,0.59,5.621,1.286l-0.066,3.751
		c-1.77-0.974-3.473-1.597-5.342-1.597s-3.301,0.795-3.301,2.326c0,4.235,9.895,3.99,9.895,11.108c0,4.029-3.539,6.561-8.053,6.561
		L311.725,102.488z M339.421,102.143v-9.789h-11.075v9.789h-4.201V79.271h4.201v9.438h11.075v-9.438h4.202v22.872H339.421z
		 M349.21,102.143V79.271h4.202v22.872H349.21z M371.147,102.143c-3.539-5.899-5.136-8.749-6.005-9.027h-1.941v9.027h-4.202V79.271
		h6.177c5.938,0,8.159,2.949,8.159,6.455c0,3.056-2.081,5.104-4.235,6.005v0.033c1.041,0.59,3.334,4.546,6.84,10.379H371.147z
		 M365.282,82.81h-2.081v7.118h2.114c2.153,0,3.784-1.63,3.784-3.711c0-1.875-1.213-3.4-3.817-3.4V82.81z M379.479,102.143V79.271
		h12.738l-1.146,3.506h-7.39v5.938h7.39v3.506h-7.39v6.422h8.536v3.506h-12.738V102.143z M163.08,129.469
		c-5.872,0-9.511-4.215-9.511-9.994s4.036-10.293,9.875-10.293c2.379,0,4.155,0.603,5.057,1.173v2.347
		c-1.418-0.902-2.797-1.538-5.149-1.538c-4.428,0-7.437,3.552-7.437,8.159c0,4.605,2.771,8.125,7.403,8.125
		c1.683,0,3.34-0.543,4.666-1.266l0.663,1.809C166.811,129.012,164.916,129.469,163.08,129.469L163.08,129.469z M188.192,126.877
		c-1.743,1.684-4.096,2.592-6.833,2.592c-2.737,0-4.997-0.875-6.713-2.465c-1.956-1.811-3.102-4.488-3.102-7.648
		c0-2.982,1.054-5.541,2.797-7.344c1.743-1.776,4.182-2.83,7.012-2.83c3.009,0,5.567,1.173,7.317,3.128
		c1.564,1.81,2.499,4.249,2.499,7.046c0,3.102-1.113,5.719-2.982,7.528L188.192,126.877z M181.358,111.283
		c-4.573,0-7.436,3.16-7.436,8.064c0,4.905,2.863,8.066,7.436,8.066c4.573,0,7.437-3.161,7.437-8.066
		C188.795,114.742,186.237,111.283,181.358,111.283z M195.568,129.164v-19.837h2.2v17.796h7.529v2.047h-9.723L195.568,129.164z
		 M209.387,129.164v-19.837h2.201v17.796h7.528v2.047h-9.723L209.387,129.164z M223.324,129.164v-19.837h9.723l-0.841,2.048h-6.681
		v6.621h6.621v2.016h-6.621v7.104h7.615v2.049H223.324L223.324,129.164z M246.449,129.462c-5.84,0-9.875-4.063-9.875-9.901
		c0-6.203,4.154-10.386,10.358-10.386c2.405,0,4.513,0.689,5.507,1.207v2.378c-1.232-0.662-3.28-1.537-5.627-1.537
		c-4.996,0-7.887,3.281-7.887,8.039c0,5.117,3.102,8.159,8.04,8.159c1.835,0,3.042-0.364,3.791-0.815v-7.012h2.2v8.311
		c-1.087,0.604-3.586,1.564-6.502,1.564L246.449,129.462z M258.252,129.164v-19.837h9.723l-0.841,2.048h-6.681v6.621h6.621v2.016
		h-6.621v7.104h7.615v2.049H258.252z"/>
	<g>
		<g>
			<path fill="#292C69" d="M165.081,151.174c-0.954,0-2.001-0.748-2.916-1.577c-1.08,0.954-2.419,1.671-4.202,1.671
				c-2.326,0-3.579-1.69-3.579-3.414c0-1.723,0.974-2.79,2.73-3.506c-0.901-1.008-1.465-1.723-1.465-2.949
				c0-1.379,1.213-2.552,3.009-2.552c1.796,0,2.936,1.061,2.936,2.604c0,1.545-1.047,2.439-2.552,3.229
				c0.603,0.748,2.22,2.479,3.228,3.354c0.829-0.862,1.65-2.182,1.849-2.916l1.153,0.271c-0.219,0.842-0.955,2.127-2.167,3.412
				c0.915,0.883,1.836,1.525,2.658,1.32l0.278,0.841c-0.238,0.126-0.603,0.199-0.974,0.199L165.081,151.174z M157.837,145.216
				c-1.598,0.663-2.015,1.524-2.015,2.552c0,1.318,0.935,2.326,2.492,2.326c0.842,0,2.074-0.385,2.969-1.227
				C160.309,147.967,158.646,146.21,157.837,145.216z M158.606,140.007c-1.153,0-1.63,0.808-1.63,1.411
				c0,0.77,0.424,1.34,1.339,2.439c1.266-0.623,1.962-1.451,1.962-2.273C160.276,140.98,159.912,140.007,158.606,140.007z"/>
			<path fill="#292C69" d="M181.187,150.055c-0.716,0.715-1.816,1.192-3.427,1.192c-1.524,0-2.532-0.438-3.188-1.067
				c-0.974-0.954-1.173-2.365-1.173-3.466v-7.741h1.339v7.754c0,0.829,0.186,1.836,0.861,2.512c0.458,0.479,1.153,0.789,2.201,0.789
				c1.153,0,1.909-0.311,2.399-0.809c0.55-0.59,0.749-1.432,0.749-2.386v-7.866h1.339v8.052c0,1.101-0.312,2.22-1.1,3.028V150.055z"
				/>
			<path fill="#292C69" d="M194.7,151.062l-6.124-8.146c-0.716-0.954-1.047-1.412-1.266-1.889h-0.04
				c0.02,0.404,0.04,0.828,0.04,1.465v8.563h-1.338v-12.088h1.392l5.866,7.846c0.828,1.102,1.153,1.559,1.378,2.035h0.04
				c-0.02-0.404-0.04-0.828-0.04-1.465v-8.416h1.339v12.088H194.7V151.062z"/>
			<path fill="#292C69" d="M199.525,151.062v-12.089h1.339v12.089H199.525z"/>
			<path fill="#292C69" d="M208.678,151.115h-0.749l-4.765-12.143h1.432l3.102,8.053c0.219,0.59,0.458,1.246,0.676,1.869h0.04
				c0.199-0.623,0.424-1.213,0.696-1.869l3.354-8.053h1.392l-5.169,12.143H208.678z"/>
			<path fill="#292C69" d="M216.141,151.062v-12.089h5.925l-0.511,1.246h-4.068v4.036h4.035v1.226h-4.035v4.328h4.639v1.246h-5.979
				L216.141,151.062z"/>
			<path fill="#292C69" d="M231.397,151.062c-1.942-3.082-3.082-5.024-3.612-5.136h-1.299v5.136h-1.339v-12.089h2.492
				c2.843,0,3.996,1.451,3.996,3.268s-1.101,2.803-2.366,3.268v0.02c0.385,0.186,1.764,2.439,3.725,5.541h-1.597V151.062z
				 M227.64,140.225h-1.153v4.514h1.227c1.411,0,2.479-1.08,2.479-2.346C230.191,141.239,229.568,140.225,227.64,140.225z"/>
			<path fill="#292C69" d="M237.853,151.247c-1.577,0-2.638-0.511-3.3-0.954l0.643-1.08c0.457,0.331,1.432,0.842,2.638,0.842
				c1.101,0,2.399-0.531,2.399-1.816c0-2.127-2.896-2.564-4.381-4.162c-0.511-0.551-0.861-1.246-0.861-2.181
				c0-1.703,1.285-3.009,3.485-3.009c1.286,0,2.147,0.312,2.678,0.59v1.432c-0.644-0.438-1.65-0.789-2.638-0.789
				c-1.174,0-2.201,0.478-2.201,1.65c0,2.697,5.355,2.717,5.355,6.343C241.67,149.981,240.039,151.247,237.853,151.247
				L237.853,151.247z"/>
			<path fill="#292C69" d="M244.514,151.062v-12.089h1.338v12.089H244.514z"/>
			<path fill="#292C69" d="M256.49,140.225h-3.428v10.837h-1.338v-10.837h-3.467v-1.245h8.709L256.49,140.225z"/>
			<path fill="#292C69" d="M263.144,146.217v4.845h-1.339v-4.878l-4.016-7.204h1.465l2.146,3.87c0.365,0.643,0.789,1.393,1.08,2.016
				h0.04c0.272-0.623,0.677-1.393,1.008-2.016l2.087-3.87h1.412l-3.891,7.243L263.144,146.217z"/>
			<path fill="#292C69" d="M279.428,151.247c-3.579,0-5.793-2.565-5.793-6.091s2.459-6.27,6.019-6.27
				c1.451,0,2.532,0.364,3.081,0.716v1.431c-0.861-0.549-1.703-0.934-3.135-0.934c-2.697,0-4.526,2.167-4.526,4.971
				c0,2.803,1.69,4.951,4.514,4.951c1.027,0,2.034-0.332,2.843-0.77l0.404,1.101c-1.119,0.622-2.273,0.901-3.393,0.901
				L279.428,151.247z"/>
			<path fill="#292C69" d="M285.479,151.062v-12.089h5.926l-0.511,1.246h-4.069v4.036h4.036v1.226h-4.036v4.328h4.639v1.246h-5.978
				L285.479,151.062z"/>
			<path fill="#292C69" d="M303.215,151.062l-6.125-8.146c-0.715-0.954-1.047-1.412-1.266-1.889h-0.039
				c0.02,0.404,0.039,0.828,0.039,1.465v8.563h-1.338v-12.088h1.391l5.866,7.846c0.828,1.102,1.153,1.559,1.378,2.035h0.04
				c-0.02-0.404-0.04-0.828-0.04-1.465v-8.416h1.34v12.088h-1.246V151.062z"/>
			<path fill="#292C69" d="M315.098,140.225h-3.426v10.837h-1.34v-10.837h-3.466v-1.245h8.709L315.098,140.225z"/>
			<path fill="#292C69" d="M323.939,151.062c-1.942-3.082-3.082-5.024-3.612-5.136h-1.3v5.136h-1.338v-12.089h2.492
				c2.843,0,3.996,1.451,3.996,3.268s-1.1,2.803-2.366,3.268v0.02c0.384,0.186,1.763,2.439,3.725,5.541h-1.597V151.062z
				 M320.182,140.225h-1.154v4.514h1.227c1.412,0,2.479-1.08,2.479-2.346C322.732,141.239,322.109,140.225,320.182,140.225z"/>
			<path fill="#292C69" d="M327.83,151.062v-12.089h5.924l-0.51,1.246h-4.069v4.036h4.036v1.226h-4.036v4.328h4.64v1.246h-5.979
				L327.83,151.062z"/>
		</g>
	</g>
	<g>
		<g>
			<path fill="#292C69" d="M156.499,164.436h-0.756v3.314h-1v-9.053h1.855c1.882,0,3.049,1.026,3.049,2.816
				c0,1.537-0.948,2.93-3.148,2.93V164.436z M156.512,159.625h-0.769v3.903h0.855c1.372,0,1.969-0.842,1.969-2.034
				c0-1.127-0.689-1.869-2.048-1.869H156.512z"/>
			<path fill="#292C69" d="M164.644,167.75l-0.258-0.63c-0.397,0.385-1.034,0.769-1.995,0.769c-1.06,0-1.995-0.756-1.995-1.994
				c0-1.24,0.895-2.062,2.611-2.115l1.319-0.039v-0.305c0-1.113-0.577-1.484-1.405-1.484c-0.828,0-1.358,0.344-1.703,0.603
				l-0.411-0.729c0.782-0.563,1.472-0.742,2.293-0.742c1.239,0,2.227,0.537,2.227,2.201v1.981c0,1.843,0.053,2.28,0.139,2.485
				H164.644L164.644,167.75z M164.326,164.629l-1.292,0.039c-1.167,0.04-1.637,0.438-1.637,1.153c0,0.663,0.411,1.192,1.266,1.192
				s1.359-0.424,1.664-0.742v-1.65V164.629z"/>
			<path fill="#292C69" d="M169.972,162.256c-0.139-0.053-0.344-0.113-0.616-0.113c-0.384,0-1.014,0.332-1.432,0.782v4.825h-1
				v-6.502h0.822l0.139,0.742c0.895-0.809,1.385-0.908,1.855-0.908c0.292,0,0.537,0.113,0.663,0.193l-0.424,0.974L169.972,162.256z"
				/>
			<path fill="#292C69" d="M173.121,167.889c-0.935,0-1.385-0.55-1.385-1.385v-4.4h-1.061v-0.855h1.061v-1.432l1.001-0.344v1.77
				h1.995l-0.358,0.854h-1.637v4.096c0,0.55,0.205,0.796,0.629,0.796c0.464,0,0.895-0.26,1.153-0.465l0.318,0.717
				c-0.484,0.357-1.113,0.643-1.716,0.643V167.889z"/>
			<path fill="#292C69" d="M183.798,167.074c-0.511,0.523-1.227,0.809-2.062,0.809s-1.511-0.271-2.021-0.796
				c-0.59-0.603-0.908-1.524-0.908-2.598s0.332-1.969,0.908-2.571c0.524-0.537,1.226-0.836,2.035-0.836s1.538,0.305,2.062,0.836
				c0.577,0.603,0.908,1.498,0.908,2.571S184.388,166.471,183.798,167.074z M181.75,161.938c-1.226,0-1.922,0.987-1.922,2.531
				c0,1.545,0.729,2.559,1.936,2.559c1.206,0,1.935-1.014,1.935-2.559C183.698,162.925,182.996,161.938,181.75,161.938
				L181.75,161.938z"/>
			<path fill="#292C69" d="M189.126,159.048c-0.192-0.112-0.464-0.192-0.782-0.192c-0.59,0-0.868,0.411-0.868,1.141v1.252h1.69
				l-0.358,0.855h-1.332v5.646h-1.001v-5.646h-0.809v-0.855h0.809v-1.152c0-1.691,1.1-2.075,1.896-2.075
				c0.292,0,0.676,0.066,0.961,0.219L189.126,159.048L189.126,159.048z"/>
			<path fill="#292C69" d="M197.921,159.631h-2.571v8.119h-1.001v-8.119h-2.598v-0.934h6.528L197.921,159.631L197.921,159.631z"/>
			<path fill="#292C69" d="M203.044,167.75v-4.043c0-0.809-0.153-1.677-1.167-1.677c-0.782,0-1.458,0.55-1.982,1.015v4.698h-1
				v-9.729h1v3.996c0.716-0.549,1.359-0.934,2.267-0.934c0.908,0,1.882,0.604,1.882,2.379v4.288h-1V167.75z"/>
			<path fill="#292C69" d="M206.424,164.668c0,1.239,0.716,2.333,2.161,2.333c0.55,0,1.153-0.219,1.538-0.464l0.305,0.689
				c-0.464,0.385-1.292,0.662-2.048,0.662c-2.035,0-3.022-1.663-3.022-3.52c0-1.855,1.074-3.287,2.638-3.287
				c1.677,0,2.599,1.332,2.599,3.354v0.232h-4.163H206.424z M208.002,161.931c-0.961,0-1.564,0.854-1.564,1.882h3.062
				C209.5,162.905,208.989,161.931,208.002,161.931z"/>
			<path fill="#292C69" d="M217.73,167.75h-2.266v-9.053h2.531c1.65,0,2.366,1.152,2.366,2.187c0,0.935-0.438,1.677-1.253,2.009
				v0.013c0.855,0.14,1.789,0.987,1.789,2.2s-0.729,2.65-3.16,2.65L217.73,167.75z M217.619,159.631h-1.154v3.022h1.167
				c0.796,0,1.637-0.537,1.637-1.577C219.269,160.168,218.745,159.631,217.619,159.631L217.619,159.631z M217.891,163.574h-1.432
				v3.241h1.346c1.278,0,1.98-0.729,1.98-1.69C219.785,164.258,219.043,163.574,217.891,163.574z"/>
			<path fill="#292C69" d="M222.994,164.668c0,1.239,0.715,2.333,2.16,2.333c0.55,0,1.152-0.219,1.537-0.464l0.305,0.689
				c-0.463,0.385-1.292,0.662-2.047,0.662c-2.035,0-3.023-1.663-3.023-3.52c0-1.855,1.074-3.287,2.639-3.287
				c1.677,0,2.598,1.332,2.598,3.354v0.232H223H222.994z M224.57,161.931c-0.961,0-1.563,0.854-1.563,1.882h3.062
				C226.068,162.905,225.559,161.931,224.57,161.931z"/>
			<path fill="#292C69" d="M231.457,167.889c-1.816,0-3.34-1.061-3.34-3.301c0-2.021,1.497-3.506,3.354-3.506
				c0.463,0,0.795,0.04,1.061,0.113v-3.175h1v9.397c-0.397,0.232-1.152,0.465-2.074,0.465V167.889z M232.531,162.13
				c-0.26-0.1-0.498-0.166-1.002-0.166c-1.278,0-2.393,1.001-2.393,2.559c0,1.472,0.809,2.512,2.499,2.512
				c0.331,0,0.689-0.066,0.896-0.165V162.13z"/>
			<path fill="#292C69" d="M238.283,159.048c-0.191-0.112-0.471-0.192-0.781-0.192c-0.59,0-0.869,0.411-0.869,1.141v1.252h1.69
				l-0.358,0.855h-1.332v5.646h-1v-5.646h-0.809v-0.855h0.809v-1.152c0-1.691,1.1-2.075,1.895-2.075
				c0.292,0,0.677,0.066,0.961,0.219L238.283,159.048L238.283,159.048z"/>
			<path fill="#292C69" d="M243.619,167.074c-0.511,0.523-1.227,0.809-2.062,0.809s-1.511-0.271-2.021-0.796
				c-0.59-0.603-0.908-1.524-0.908-2.598s0.331-1.969,0.908-2.571c0.523-0.537,1.226-0.836,2.034-0.836s1.538,0.305,2.062,0.836
				c0.577,0.603,0.908,1.498,0.908,2.571S244.209,166.471,243.619,167.074z M241.57,161.938c-1.226,0-1.922,0.987-1.922,2.531
				c0,1.545,0.729,2.559,1.936,2.559s1.936-1.014,1.936-2.559C243.52,162.925,242.816,161.938,241.57,161.938L241.57,161.938z"/>
			<path fill="#292C69" d="M248.895,162.256c-0.14-0.053-0.345-0.113-0.617-0.113c-0.384,0-1.014,0.332-1.432,0.782v4.825h-1v-6.502
				h0.822l0.139,0.742c0.895-0.809,1.385-0.908,1.855-0.908c0.292,0,0.537,0.113,0.663,0.193l-0.425,0.974L248.895,162.256z"/>
			<path fill="#292C69" d="M252.725,167.889c-1.815,0-3.34-1.061-3.34-3.301c0-2.021,1.498-3.506,3.354-3.506
				c0.464,0,0.795,0.04,1.061,0.113v-3.175h1v9.397c-0.396,0.232-1.152,0.465-2.074,0.465V167.889z M253.799,162.13
				c-0.259-0.1-0.497-0.166-1.001-0.166c-1.278,0-2.393,1.001-2.393,2.559c0,1.472,0.809,2.512,2.499,2.512
				c0.331,0,0.689-0.066,0.895-0.165V162.13z"/>
			<path fill="#292C69" d="M263.813,167.889c-2.677,0-4.34-1.922-4.34-4.56s1.842-4.698,4.506-4.698
				c1.088,0,1.896,0.271,2.307,0.536v1.073c-0.643-0.41-1.279-0.702-2.353-0.702c-2.021,0-3.394,1.624-3.394,3.726
				c0,2.1,1.266,3.711,3.38,3.711c0.769,0,1.524-0.246,2.128-0.576l0.305,0.821c-0.835,0.464-1.703,0.676-2.545,0.676
				L263.813,167.889z"/>
			<path fill="#292C69" d="M271.727,167.074c-0.51,0.523-1.227,0.809-2.061,0.809c-0.836,0-1.512-0.271-2.021-0.796
				c-0.59-0.603-0.908-1.524-0.908-2.598s0.331-1.969,0.908-2.571c0.523-0.537,1.226-0.836,2.034-0.836s1.538,0.305,2.062,0.836
				c0.576,0.603,0.908,1.498,0.908,2.571S272.316,166.471,271.727,167.074z M269.679,161.938c-1.226,0-1.923,0.987-1.923,2.531
				c0,1.545,0.729,2.559,1.936,2.559c1.207,0,1.936-1.014,1.936-2.559C271.627,162.925,270.925,161.938,269.679,161.938z"/>
			<path fill="#292C69" d="M275.094,167.889c-0.796,0-1.141-0.51-1.141-1.192v-8.669h1.001v8.219c0,0.615,0.152,0.742,0.537,0.742
				c0.065,0,0.179,0,0.345-0.041l0.125,0.729c-0.305,0.153-0.536,0.219-0.867,0.219V167.889z"/>
			<path fill="#292C69" d="M278.063,167.889c-0.795,0-1.141-0.51-1.141-1.192v-8.669h1.002v8.219c0,0.615,0.152,0.742,0.536,0.742
				c0.066,0,0.179,0,0.345-0.041l0.126,0.729c-0.305,0.153-0.536,0.219-0.868,0.219V167.889z"/>
			<path fill="#292C69" d="M280.614,164.668c0,1.239,0.716,2.333,2.161,2.333c0.549,0,1.152-0.219,1.537-0.464l0.305,0.689
				c-0.464,0.385-1.293,0.662-2.048,0.662c-2.034,0-3.022-1.663-3.022-3.52c0-1.855,1.074-3.287,2.639-3.287
				c1.676,0,2.598,1.332,2.598,3.354v0.232h-4.162H280.614z M282.191,161.931c-0.961,0-1.564,0.854-1.564,1.882h3.063
				C283.689,162.905,283.18,161.931,282.191,161.931z"/>
			<path fill="#292C69" d="M288.461,171.004c-1.969,0-3.062-0.868-3.062-1.936c0-0.715,0.497-1.238,1.239-1.623
				c-0.357-0.192-0.451-0.498-0.451-0.795c0-0.299,0.219-0.796,0.742-1.24c-0.676-0.385-1.073-1.152-1.073-1.969
				c0-1.357,1.101-2.365,2.419-2.365c0.484,0,0.822,0.053,1.141,0.219c0.079,0.039,0.125,0.026,0.166-0.014
				c0.33-0.305,1-0.59,1.815-0.451l-0.292,0.908c-0.344-0.079-0.676-0.112-0.947,0.027c0.483,0.438,0.756,1,0.756,1.689
				c0,1.418-1.048,2.393-2.559,2.393c-0.305,0-0.576-0.039-0.822-0.139c-0.205,0.219-0.331,0.424-0.331,0.756
				c0,0.947,4.493-0.027,4.493,2.432c0,1.074-0.961,2.102-3.228,2.102L288.461,171.004z M287.375,167.75
				c-0.358,0.219-0.936,0.59-0.936,1.206c0,0.677,0.822,1.206,2.088,1.206s2.049-0.464,2.049-1.166c0-1.166-2.354-1.014-3.201-1.253
				V167.75z M288.361,161.951c-0.881,0-1.484,0.59-1.484,1.498c0,0.907,0.604,1.551,1.484,1.551c0.882,0,1.498-0.551,1.498-1.538
				C289.859,162.554,289.23,161.951,288.361,161.951L288.361,161.951z"/>
			<path fill="#292C69" d="M292.969,164.668c0,1.239,0.715,2.333,2.16,2.333c0.55,0,1.152-0.219,1.537-0.464l0.305,0.689
				c-0.463,0.385-1.292,0.662-2.047,0.662c-2.035,0-3.023-1.663-3.023-3.52c0-1.855,1.074-3.287,2.639-3.287
				c1.677,0,2.598,1.332,2.598,3.354v0.232h-4.162H292.969z M294.545,161.931c-0.961,0-1.563,0.854-1.563,1.882h3.062
				C296.043,162.905,295.533,161.931,294.545,161.931z"/>
			<path fill="#292C69" d="M305.965,167.889c-2.664,0-4.507-1.855-4.507-4.52c0-2.83,1.896-4.738,4.726-4.738
				c1.1,0,2.061,0.317,2.512,0.549v1.088c-0.563-0.305-1.498-0.703-2.571-0.703c-2.28,0-3.599,1.498-3.599,3.672
				c0,2.333,1.418,3.725,3.672,3.725c0.834,0,1.385-0.166,1.729-0.371v-3.201h1.001v3.791c-0.498,0.271-1.637,0.716-2.97,0.716
				L305.965,167.889z"/>
			<path fill="#292C69" d="M313.766,162.256c-0.139-0.053-0.345-0.113-0.616-0.113c-0.385,0-1.015,0.332-1.432,0.782v4.825h-1.001
				v-6.502h0.822l0.139,0.742c0.895-0.809,1.385-0.908,1.855-0.908c0.292,0,0.537,0.113,0.663,0.193l-0.425,0.974L313.766,162.256z"
				/>
			<path fill="#292C69" d="M319.386,167.074c-0.511,0.523-1.226,0.809-2.062,0.809c-0.834,0-1.511-0.271-2.021-0.796
				c-0.59-0.603-0.908-1.524-0.908-2.598s0.332-1.969,0.908-2.571c0.523-0.537,1.227-0.836,2.035-0.836s1.537,0.305,2.061,0.836
				c0.577,0.603,0.908,1.498,0.908,2.571S319.976,166.471,319.386,167.074z M317.338,161.938c-1.227,0-1.922,0.987-1.922,2.531
				c0,1.545,0.729,2.559,1.936,2.559c1.206,0,1.936-1.014,1.936-2.559C319.287,162.925,318.584,161.938,317.338,161.938
				L317.338,161.938z"/>
			<path fill="#292C69" d="M325.953,167.75l-0.258-0.676c-0.484,0.41-1.239,0.809-2.102,0.809c-0.861,0-1.98-0.451-1.98-2.28v-4.354
				h1v4.262c0,1.087,0.451,1.512,1.266,1.512c0.815,0,1.459-0.524,1.73-0.869v-4.904h1v3.777c0,2.049,0.041,2.446,0.14,2.725
				H325.953L325.953,167.75z"/>
			<path fill="#292C69" d="M330.487,167.889c-0.483,0-0.809-0.1-1.087-0.205v3.327h-1.001v-9.484
				c0.438-0.152,1.192-0.437,2.128-0.437c1.961,0,3.214,1.266,3.214,3.34c0,2.267-1.637,3.466-3.254,3.466V167.889z M330.514,161.99
				c-0.464,0-0.809,0.066-1.113,0.166v4.605c0.357,0.166,0.616,0.26,1.047,0.26c1.359,0,2.279-0.975,2.279-2.586
				C332.727,162.732,331.693,161.99,330.514,161.99z"/>
		</g>
	</g>
</g>
</svg>