<svg xmlns="http://www.w3.org/2000/svg" xmlns:xlink="http://www.w3.org/1999/xlink" id="a3051efb-f5ee-421b-9817-4783e4a50662" data-name="Layer 1" viewBox="0 0 420 150"><defs><linearGradient id="a837875c-2f68-4682-8c35-a37e76be33e6" x1="256.16" y1="56.24" x2="375.09" y2="56.24" gradientUnits="userSpaceOnUse"><stop offset="0" stop-color="#a31e22"></stop><stop offset="0.24" stop-color="#90191f"></stop><stop offset="0.73" stop-color="#6f1119"></stop><stop offset="1" stop-color="#620e17"></stop></linearGradient><linearGradient id="a992b602-8ca9-47d6-bfac-a6ff60394499" x1="718.37" y1="-1055.59" x2="810.13" y2="-1055.59" gradientTransform="matrix(-0.84, -0.54, 0.54, -0.84, 1306.3, -376.5)" xlink:href="#a837875c-2f68-4682-8c35-a37e76be33e6"></linearGradient><linearGradient id="a0daeb7e-72e5-46a1-8c90-bff81a686305" x1="9.21" y1="75" x2="139.06" y2="75" gradientUnits="userSpaceOnUse"><stop offset="0" stop-color="#d6465c"></stop><stop offset="0.51" stop-color="#d15a4b"></stop><stop offset="1" stop-color="#cd693e"></stop></linearGradient></defs><path d="M256.16,65.9l118-5.65c1.57-.07,1.1-1.66-.53-1.78l-89.45-11.9Z" style="fill:url(#a837875c-2f68-4682-8c35-a37e76be33e6)"></path><path d="M147.12,92.52,41.59,120.7a.86.86,0,0,1-1-1.17L78.43,30.24a1.57,1.57,0,0,1,3,.93L67.85,95.28l79-4.45A.86.86,0,0,1,147.12,92.52Z" style="fill:url(#a992b602-8ca9-47d6-bfac-a6ff60394499)"></path><path d="M9.54,120.58,113.27,6a1.22,1.22,0,0,1,2.1.6L139,141.8a2.21,2.21,0,0,1-4.25,1.17L101.61,56.38l-90.45,66A1.22,1.22,0,0,1,9.54,120.58Z" style="fill:url(#a0daeb7e-72e5-46a1-8c90-bff81a686305)"></path><path d="M166.1,111.33a18.59,18.59,0,0,1-5.74-.84,10.88,10.88,0,0,1-4.08-2.17,3.75,3.75,0,0,1-1.48-2.74,4.54,4.54,0,0,1,.35-1.57,5,5,0,0,1,.94-1.57,1.83,1.83,0,0,1,1.41-.67,3,3,0,0,1,1.85.77,14.49,14.49,0,0,0,2.45,1.5,9.38,9.38,0,0,0,4.11.74c1.89,0,3.13-.31,3.74-.94a2.76,2.76,0,0,0,.91-1.93,2.67,2.67,0,0,0-1.1-2.28,9.53,9.53,0,0,0-2.79-1.33c-1.13-.36-2.34-.73-3.61-1.11a16.74,16.74,0,0,1-3.61-1.53A7.78,7.78,0,0,1,156.69,93a8.16,8.16,0,0,1-1.07-4.44,10.81,10.81,0,0,1,1.07-4.68,8.84,8.84,0,0,1,3.51-3.77,12.59,12.59,0,0,1,6.66-1.51,20.1,20.1,0,0,1,4.86.57,11.36,11.36,0,0,1,3.74,1.57,2.77,2.77,0,0,1,1.44,2.21,4.67,4.67,0,0,1-.38,1.57,6.56,6.56,0,0,1-1,1.77,2,2,0,0,1-1.6.8,3.87,3.87,0,0,1-1.67-.5,19.06,19.06,0,0,0-2.23-1,8.65,8.65,0,0,0-3-.47,5.7,5.7,0,0,0-2.51.47,3.34,3.34,0,0,0-1.38,1.14,2.52,2.52,0,0,0-.44,1.4A2.08,2.08,0,0,0,163.72,90a10.53,10.53,0,0,0,2.79,1.14c1.15.31,2.36.65,3.64,1a14.43,14.43,0,0,1,3.64,1.67,8.76,8.76,0,0,1,2.8,2.91,9.42,9.42,0,0,1,1.06,4.81,9.07,9.07,0,0,1-3,7.09C172.68,110.44,169.83,111.33,166.1,111.33Z" style="fill:#414042"></path><path d="M187.82,110.73a4.47,4.47,0,0,1-2.82-.87,2.42,2.42,0,0,1-1.13-1.87V63.14A2.22,2.22,0,0,1,185,61.21a5.06,5.06,0,0,1,2.82-.74,5.52,5.52,0,0,1,3,.74,2.2,2.2,0,0,1,1.2,1.93v28l11.86-11.83a2,2,0,0,1,1.57-.67,3.2,3.2,0,0,1,1.85.63,5.64,5.64,0,0,1,1.51,1.57,3.56,3.56,0,0,1,.6,1.94,2.59,2.59,0,0,1-.16.84,2,2,0,0,1-.53.77l-7.41,7.15,9.29,14A2.78,2.78,0,0,1,211,107a3.35,3.35,0,0,1-.75,2,6.47,6.47,0,0,1-1.82,1.64,4.12,4.12,0,0,1-2.08.63,2.34,2.34,0,0,1-2-1.13l-8.41-13.3L192,100.64V108a2.39,2.39,0,0,1-1.2,1.87A4.86,4.86,0,0,1,187.82,110.73Z" style="fill:#414042"></path><path d="M234.72,110.73a5.79,5.79,0,0,1-2.83-.7,2.23,2.23,0,0,1-1.25-2V100.1H215.57a2.74,2.74,0,0,1-2-.83,3.1,3.1,0,0,1-.81-2.24,3.49,3.49,0,0,1,.12-.87,5.59,5.59,0,0,1,.32-.87l14.88-31.14a3.84,3.84,0,0,1,1.53-1.77,3.89,3.89,0,0,1,1.92-.51,4.32,4.32,0,0,1,1.69.41,5.09,5.09,0,0,1,1.67,1.13,2.48,2.48,0,0,1,.72,1.81,3.22,3.22,0,0,1-.32,1.13L223.23,92h7.41V85a2.2,2.2,0,0,1,1.25-2.11,6.58,6.58,0,0,1,5.62,0A2.19,2.19,0,0,1,238.8,85v7h2.89a2.13,2.13,0,0,1,2,1.27,6,6,0,0,1,.65,2.81,5,5,0,0,1-.81,2.74,2.26,2.26,0,0,1-1.82,1.27H238.8V108a2.22,2.22,0,0,1-1.29,2A5.83,5.83,0,0,1,234.72,110.73Z" style="fill:#414042"></path><path d="M252.8,125.5a4.47,4.47,0,0,1-2.82-.87,2.4,2.4,0,0,1-1.13-1.87V81.66A2.21,2.21,0,0,1,250,79.72a4.94,4.94,0,0,1,2.76-.74,4.55,4.55,0,0,1,2.67.74,2.26,2.26,0,0,1,1,1.94v2a10.76,10.76,0,0,1,3.27-3.51,8.76,8.76,0,0,1,5.21-1.57,9.65,9.65,0,0,1,5.71,1.84,12.65,12.65,0,0,1,4.05,4.91,15.6,15.6,0,0,1,1.47,6.82v5.48a15.29,15.29,0,0,1-1.5,6.68,13.89,13.89,0,0,1-4,5.08,8.79,8.79,0,0,1-5.46,1.94,8.46,8.46,0,0,1-5-1.61,9.22,9.22,0,0,1-3.21-3.67v16.71a2.39,2.39,0,0,1-1.19,1.87A4.88,4.88,0,0,1,252.8,125.5Zm9.73-21.72a4.42,4.42,0,0,0,2.73-.91,7.1,7.1,0,0,0,2-2.3,6,6,0,0,0,.79-2.94V92.15a5.82,5.82,0,0,0-.76-2.88,6.69,6.69,0,0,0-2-2.23,4.82,4.82,0,0,0-2.86-.91,5,5,0,0,0-2.6.74,6,6,0,0,0-2,2.07,6.08,6.08,0,0,0-.82,3.21v6.68a3.85,3.85,0,0,0,.73,1.84,8.22,8.22,0,0,0,2,2.14A4.64,4.64,0,0,0,262.53,103.78Z" style="fill:#414042"></path><path d="M295.24,111.33a15,15,0,0,1-7.79-1.81,11,11,0,0,1-4.45-4.91,16.26,16.26,0,0,1-1.45-7V92.28a16.55,16.55,0,0,1,1.42-7,10.78,10.78,0,0,1,4.45-4.91,14.84,14.84,0,0,1,7.69-1.81,16.8,16.8,0,0,1,5.21.74,9.7,9.7,0,0,1,3.58,1.93,3.47,3.47,0,0,1,1.32,2.54,4.8,4.8,0,0,1-.41,1.74,5.28,5.28,0,0,1-1.13,1.74A2.25,2.25,0,0,1,302,88a2.59,2.59,0,0,1-1.41-.46,11.82,11.82,0,0,0-1.86-.94,8,8,0,0,0-3-.47q-3.19,0-4.64,1.64a6.56,6.56,0,0,0-1.45,4.51v5.35a6.56,6.56,0,0,0,1.45,4.51q1.44,1.64,4.7,1.64a6.83,6.83,0,0,0,3-.54,19.26,19.26,0,0,0,1.79-1,2.69,2.69,0,0,1,1.47-.47,2.86,2.86,0,0,1,1.92.67,4.34,4.34,0,0,1,1.19,1.64,4.6,4.6,0,0,1,.41,1.77,3.61,3.61,0,0,1-1.35,2.6,10.14,10.14,0,0,1-3.71,2.08A16.48,16.48,0,0,1,295.24,111.33Z" style="fill:#414042"></path><path d="M314,111.13a3.94,3.94,0,0,1-3.05-1.37,4.78,4.78,0,0,1,0-6.38A4,4,0,0,1,314,102a3.93,3.93,0,0,1,2.95,1.34,4.7,4.7,0,0,1,0,6.38A3.9,3.9,0,0,1,314,111.13Z" style="fill:#414042"></path><path d="M328.32,110.73a4.57,4.57,0,0,1-2.88-.87,2.39,2.39,0,0,1-1.13-1.87V81.66a2.21,2.21,0,0,1,1.13-1.94,5.17,5.17,0,0,1,2.88-.74,4.29,4.29,0,0,1,2.55.74,2.26,2.26,0,0,1,1,1.94v2A9.69,9.69,0,0,1,335,80.15a9.26,9.26,0,0,1,10.7.27,13.11,13.11,0,0,1,3.93,4.91,15.6,15.6,0,0,1,1.47,6.82V108a2.23,2.23,0,0,1-1.25,2,5.81,5.81,0,0,1-5.53,0,2.21,2.21,0,0,1-1.32-2V92.15a6,6,0,0,0-.72-2.88,6.51,6.51,0,0,0-2-2.23,4.55,4.55,0,0,0-2.76-.91,4.63,4.63,0,0,0-2.45.74,5.62,5.62,0,0,0-1.94,2.07,6.35,6.35,0,0,0-.76,3.21V108a2.37,2.37,0,0,1-1.19,1.87A4.76,4.76,0,0,1,328.32,110.73Z" style="fill:#414042"></path><path d="M372.46,111.33a17.37,17.37,0,0,1-7.88-1.71,13,13,0,0,1-5.37-4.81,13.21,13.21,0,0,1-1.95-7.18V92a12.5,12.5,0,0,1,1.86-6.65,14.05,14.05,0,0,1,5-4.88A13.4,13.4,0,0,1,371,78.58a13.14,13.14,0,0,1,11.18,6A11.78,11.78,0,0,1,384,91.15a7.29,7.29,0,0,1-.88,4.11,3.68,3.68,0,0,1-2.23,1.53,12.82,12.82,0,0,1-2.79.3H365.36v1a5.85,5.85,0,0,0,2,4.64,9,9,0,0,0,8.76,1.1c.92-.44,1.72-.87,2.39-1.27a3.69,3.69,0,0,1,1.88-.6,2.28,2.28,0,0,1,1.63.67,4.71,4.71,0,0,1,1.07,1.57,4.23,4.23,0,0,1,.38,1.57,3.6,3.6,0,0,1-1.35,2.44,10.89,10.89,0,0,1-3.83,2.21A17.25,17.25,0,0,1,372.46,111.33ZM365.36,92h9.17a2.25,2.25,0,0,0,1.47-.36,1.91,1.91,0,0,0,.41-1.44,5.08,5.08,0,0,0-.75-2.74,5.17,5.17,0,0,0-2-1.87,6,6,0,0,0-5.46,0,5.21,5.21,0,0,0-2,1.8,4.8,4.8,0,0,0-.79,2.77Z" style="fill:#414042"></path><path d="M401.59,110.73q-5.65,0-8.64-2.61t-3-8.22V67.49a2.19,2.19,0,0,1,1.32-1.94,5.46,5.46,0,0,1,5.49,0,2.2,2.2,0,0,1,1.29,1.94V79h7.41A1.69,1.69,0,0,1,407,80a4.73,4.73,0,0,1,0,4.35,1.68,1.68,0,0,1-1.54,1h-7.41V99.9a3.87,3.87,0,0,0,.78,2.74,3.76,3.76,0,0,0,2.74.8H404a3.05,3.05,0,0,1,2.61,1.14,4.08,4.08,0,0,1,.85,2.47,4.18,4.18,0,0,1-.85,2.54,3.05,3.05,0,0,1-2.61,1.14Z" style="fill:#414042"></path></svg>