<svg xmlns="http://www.w3.org/2000/svg" width="20" height="20" viewBox="0 0 20 20">
    <g fill="none" fill-rule="evenodd">
        <g>
            <g>
                <g>
                    <g stroke="#000" stroke-linecap="round">
                        <path stroke-linejoin="round" d="M1.5 4.5L3.5 4.5M1.5 6.5L3.5 6.5M1.5 8.5L3.5 8.5M0 13.5L5 13.5 5 2.5 0 2.5z" transform="translate(-156.000000, -574.000000) translate(156.000000, 574.000000) translate(0.500000, 0.500000) translate(0.000000, 5.500000)"/>
                        <path stroke-linejoin="round" d="M2 13.5L3.209 13.5 3.209 10.5 2 10.5z" transform="translate(-156.000000, -574.000000) translate(156.000000, 574.000000) translate(0.500000, 0.500000) translate(0.000000, 5.500000)"/>
                        <path d="M2.5 0L2.5 2" transform="translate(-156.000000, -574.000000) translate(156.000000, 574.000000) translate(0.500000, 0.500000) translate(0.000000, 5.500000)"/>
                    </g>
                    <g stroke-linecap="round">
                        <path stroke="#000" stroke-linejoin="round" d="M2 5.002L4 5.002M2 3.5L4 3.5M2 6.5L4 6.5M0 0L6.001 2" transform="translate(-156.000000, -574.000000) translate(156.000000, 574.000000) translate(0.500000, 0.500000) translate(13.000000, 9.000000)"/>
                        <path stroke="#FFF" stroke-linejoin="round" d="M0 10L6 10" transform="translate(-156.000000, -574.000000) translate(156.000000, 574.000000) translate(0.500000, 0.500000) translate(13.000000, 9.000000)"/>
                        <path stroke="#000" stroke-linejoin="round" d="M0 10L6.001 10M2 10L4 10 4 8 2 8z" transform="translate(-156.000000, -574.000000) translate(156.000000, 574.000000) translate(0.500000, 0.500000) translate(13.000000, 9.000000)"/>
                        <path stroke="#000" d="M6 2L6 10" transform="translate(-156.000000, -574.000000) translate(156.000000, 574.000000) translate(0.500000, 0.500000) translate(13.000000, 9.000000)"/>
                    </g>
                    <g stroke="#000" stroke-linejoin="round">
                        <path stroke-linecap="round" d="M1.481 6.5L2.981 6.5 2.981 5 1.481 5zM1.5 10L3 10 3 8.5 1.5 8.5zM1.5 13.5L3 13.5 3 12 1.5 12zM1.5 17L3 17 3 15.5 1.5 15.5zM4.981 6.5L6.481 6.5 6.481 5 4.981 5zM5 10L6.5 10 6.5 8.5 5 8.5zM5 13.5L6.5 13.5 6.5 12 5 12zM5 17L6.5 17 6.5 15.5 5 15.5z" transform="translate(-156.000000, -574.000000) translate(156.000000, 574.000000) translate(0.500000, 0.500000) translate(5.000000, 0.000000)"/>
                        <path stroke-linecap="round" d="M0 19L8 19 8 3 0 3z" transform="translate(-156.000000, -574.000000) translate(156.000000, 574.000000) translate(0.500000, 0.500000) translate(5.000000, 0.000000)"/>
                        <path d="M4 0L8 3 0 3z" transform="translate(-156.000000, -574.000000) translate(156.000000, 574.000000) translate(0.500000, 0.500000) translate(5.000000, 0.000000)"/>
                    </g>
                </g>
            </g>
        </g>
    </g>
</svg>
