<svg width="158" height="24" viewBox="0 0 158 24" fill="none" xmlns="http://www.w3.org/2000/svg">
<path fill-rule="evenodd" clip-rule="evenodd" d="M41.3894 12.9459H37.9911L39.7965 7.0733L41.3894 12.9459ZM36.3982 18.8821L37.4602 15.3034H41.8141L42.8761 18.8821H46.4867L42.6637 5.29985C42.4513 4.40782 42.0265 4.12109 41.0708 4.12109H35.7611V5.34233H36.1858C36.823 5.34233 37.1416 5.5441 37.1416 6.03259C37.1416 6.34056 37.1416 6.54233 36.823 7.27507L33 18.8821" fill="#4E4E4E"/>
<path d="M51.0529 18.8821V5.20428C51.0529 4.49278 50.6282 4.12109 49.8848 4.12109H46.5928V5.34233H46.8052C47.4423 5.34233 47.7609 5.60782 47.7609 6.18127V18.8821" fill="#4E4E4E"/>
<path d="M57 18.8821V5.20428C57 4.49278 56.5752 4.12109 55.8318 4.12109H52.5398V5.34233H52.7522C53.3893 5.34233 53.7079 5.60782 53.7079 6.18127V18.8821" fill="#4E4E4E"/>
<path fill-rule="evenodd" clip-rule="evenodd" d="M63.0532 5.42739C63.0532 4.4504 62.3098 3.87695 61.1417 3.87695C59.8674 3.87695 59.2302 4.4504 59.2302 5.42739C59.2302 6.42562 59.8674 7.00969 61.1417 7.00969C62.3098 7.00969 63.0532 6.42562 63.0532 5.42739ZM62.947 18.8822V8.92119C62.947 8.23093 62.5222 7.82739 61.885 7.82739H58.593V9.02739H58.8054C59.4426 9.02739 59.655 9.29287 59.655 9.89818V18.8822" fill="#4E4E4E"/>
<path fill-rule="evenodd" clip-rule="evenodd" d="M70.8053 13.5194V15.7282C70.1681 16.3654 69.4248 16.7265 68.7876 16.7265C68.1504 16.7265 67.8318 16.4185 67.8318 15.5902C67.8318 14.6769 68.0442 14.3265 68.7876 14.0398C69.3186 13.8168 69.8495 13.6787 70.8053 13.5194ZM66.1327 10.8752L66.4513 10.7477C67.3009 10.4079 67.8318 10.2805 68.469 10.1637C68.7876 10.1212 69.2124 10.0787 69.4248 10.0787C70.4867 10.0787 70.8053 10.4291 70.8053 11.4061V11.6822C69.3186 11.9265 68.8938 12.0114 68.0442 12.192C67.6194 12.2982 67.1947 12.4362 66.7699 12.6168C65.3894 13.169 64.7522 14.2309 64.7522 15.8982C64.7522 17.9902 65.6018 18.9884 67.5133 18.9884C68.2566 18.9884 69 18.8185 69.5309 18.4787C70.0619 18.2344 70.2743 18.107 70.9115 17.5229V17.8628C70.9115 18.553 71.2301 18.8822 71.8672 18.8822H75.0531V17.7459H74.9469C74.3097 17.7459 73.9911 17.4592 73.9911 16.8858V11.4592C73.9911 8.63446 73.0354 7.67871 70.2743 7.67871C69.3186 7.67871 68.469 7.78491 67.6194 7.98667C66.7699 8.18844 66.3451 8.33712 65.3894 8.83623" fill="#4E4E4E"/>
<path fill-rule="evenodd" clip-rule="evenodd" d="M80.0442 18.882V11.3847C80.7875 10.6944 81.3185 10.4289 82.0619 10.4289C82.8052 10.4289 83.0176 10.7475 83.0176 11.8732V18.882H86.3096V11.3422C86.3096 9.79174 86.0972 9.12271 85.6725 8.53864C85.1415 7.96519 84.5043 7.69971 83.5486 7.69971C82.2742 7.69971 81.3185 8.16696 79.8318 9.45192V8.85723C79.8318 8.16696 79.5132 7.82714 78.876 7.82714H75.6902V9.02714H75.7964C76.4335 9.02714 76.7521 9.29262 76.7521 9.89793V18.882" fill="#4E4E4E"/>
<path d="M96.5048 16.7681H91.6199L96.2924 10.099V7.82646H89.2836C88.434 7.82646 88.1154 8.16631 88.1154 8.98401V10.9911H89.2836V10.7681C89.2836 10.1628 89.6022 9.91853 90.2393 9.91853H92.788L88.0093 16.5875V18.8813H96.5048" fill="#4E4E4E"/>
<path fill-rule="evenodd" clip-rule="evenodd" d="M115.301 18.2761V5.76635C115.301 4.7575 114.876 4.42829 113.921 4.42829H111.053V5.80887H111.372C111.903 5.80887 112.115 6.0106 112.115 6.62653V18.2761H115.301ZM117 18.2761H120.08V8.83539C120.08 7.87964 119.655 7.49733 118.699 7.49733H117V18.2761ZM110.416 18.2761V7.49733H108.717C107.761 7.49733 107.336 7.87964 107.336 8.83539V18.2761H110.416ZM123.69 11.9894C123.69 17.8407 119.443 22.1097 113.708 22.1097C107.974 22.1097 103.726 17.8407 103.726 11.9894C103.726 6.13808 107.974 1.86903 113.708 1.86903C119.443 1.86903 123.69 6.13808 123.69 11.9894ZM125.708 11.9894C125.708 5.13985 120.611 -3.8147e-06 113.708 -3.8147e-06C106.912 -3.8147e-06 101.708 5.13985 101.708 11.9894C101.708 18.8602 106.912 24 113.708 24C120.611 24 125.708 18.8602 125.708 11.9894Z" fill="#4E4E4E"/>
</svg>
