<svg width="158" height="24" viewBox="0 0 158 24" fill="none" xmlns="http://www.w3.org/2000/svg">
<path d="M90.0017 4.17203L86.727 9.10659H86.6821C86.4129 8.79258 84.9774 6.95333 84.9774 6.95333C83.1831 8.34398 81.1644 9.28603 78.9662 9.91407L81.613 13.3683V13.4131C81.2092 13.9963 75.8709 21.8916 75.8709 21.8916H75.8261C75.8261 15.7458 75.8261 10.5421 75.8261 10.5421C73.9868 10.8113 72.2373 10.901 70.5326 10.901C69.9943 10.901 69.4111 10.901 68.828 10.901V15.4318C68.828 15.4318 68.7831 15.4767 68.7831 15.4318C68.5139 14.8038 68.1551 14.2655 67.8411 13.9066C65.5981 11.529 57.8822 10.6767 56.7607 9.42061C56.5364 9.19631 56.4467 8.79258 56.4467 8.52342C56.4467 7.49165 57.0747 6.86361 58.7794 6.81875C60.0355 6.77389 61.0224 7.35707 61.2915 9.73463H68.1551C68.1551 9.46547 68.1102 9.06174 68.0654 8.83744C67.7065 5.33838 65.9121 3.22998 59.228 3.22998C55.1009 3.22998 52.3196 3.94774 50.7495 5.51782C49.7626 6.50474 49.2692 7.80567 49.2692 9.46547C49.2692 10.587 49.5383 11.9776 50.4355 12.9197C51.4224 13.9514 53.5757 14.7141 55.7289 15.3421C58.4205 16.1496 61.1121 16.7327 61.6056 17.4505C61.785 17.7196 61.9196 18.0337 61.9196 18.3925C61.9196 19.9626 60.3495 20.4112 58.8691 20.4112C57.9271 20.4112 57.299 20.1421 56.8056 19.6486C56.357 19.1103 56.1327 18.3028 56.0878 17.2262L49 17.1813C49.0897 19.3346 49.314 20.9495 50.6598 22.1159C52.0056 23.2822 54.428 24 58.6448 24C64.7009 24 67.7513 22.3402 68.7831 19.6935C68.7831 19.6935 68.828 19.6935 68.828 19.7383V23.4617H82.3756L86.2335 17.9439H86.2784C86.5924 18.3925 89.9569 23.4617 89.9569 23.4617H104.402V9.73463C104.402 9.73463 104.402 9.68977 104.447 9.68977C104.85 9.68977 108.618 9.68977 108.618 9.68977V4.17203H90.0017ZM97.4484 21.9813C97.4036 21.9813 91.3475 13.5926 91.3475 13.5926V13.5477C91.5718 13.2337 93.9942 9.86921 93.9942 9.82435L94.0391 9.77949H97.4484C97.4484 9.77949 97.4484 9.77949 97.4484 9.82435C97.4484 10.4524 97.4484 21.8916 97.4484 21.8916C97.4484 21.8916 97.4484 21.9365 97.4484 21.9813Z" fill="#4E4E4E"/>
<path d="M83.6764 6.41493C80.4914 8.56819 76.0054 9.82426 70.3531 9.7794C69.8597 9.7794 69.3662 9.7794 68.8279 9.73454V4.17195C73.9867 4.53082 77.4858 3.63363 79.5942 2.06354C80.4017 1.43551 80.9848 0.762614 81.4334 0H88.7007C87.7138 2.60186 86.054 4.79998 83.6764 6.41493Z" fill="#B9B9B9"/>
</svg>
