<svg width="17" height="16" viewBox="0 0 17 16" fill="none" xmlns="http://www.w3.org/2000/svg">
<path d="M16.1836 14.6531L12.3898 10.8594C12.318 10.7875 12.2242 10.75 12.1242 10.75H11.7117C12.6961 9.60938 13.293 8.125 13.293 6.5C13.293 2.90937 10.3836 0 6.79297 0C3.20234 0 0.292969 2.90937 0.292969 6.5C0.292969 10.0906 3.20234 13 6.79297 13C8.41797 13 9.90234 12.4031 11.043 11.4187V11.8313C11.043 11.9313 11.0836 12.025 11.1523 12.0969L14.9461 15.8906C15.093 16.0375 15.3305 16.0375 15.4773 15.8906L16.1836 15.1844C16.3305 15.0375 16.3305 14.8 16.1836 14.6531ZM6.79297 11.5C4.03047 11.5 1.79297 9.2625 1.79297 6.5C1.79297 3.7375 4.03047 1.5 6.79297 1.5C9.55547 1.5 11.793 3.7375 11.793 6.5C11.793 9.2625 9.55547 11.5 6.79297 11.5Z" fill="#7A7D85"/>
</svg>
