<?xml version="1.0" encoding="UTF-8"?>
<svg width="465px" height="745px" viewBox="0 0 465 745" version="1.1" xmlns="http://www.w3.org/2000/svg" xmlns:xlink="http://www.w3.org/1999/xlink">
    <title>fibonnaci-big-updated1</title>
    <g id="Page-1" stroke="none" stroke-width="1" fill="none" fill-rule="evenodd">
        <g id="fibonnaci-big-updated1">
            <polygon id="Rectangle" fill="#000000" fill-rule="nonzero" points="1 1 464 0 464 744 1 744"></polygon>
            <line x1="1" y1="0" x2="1" y2="745" id="Path" stroke="#005D67" stroke-width="2"></line>
            <line x1="463.421053" y1="284.5" x2="2.57894737" y2="284.5" id="Line-3" stroke="#005D67" stroke-width="2" stroke-linecap="square"></line>
            <path d="M465.001287,284 L465.001287,745.000584 L4,745.000584 L4,743.755446 L4.40929848,743.755446 L4.40929848,743.755446 C258.491581,743.755446 464.09548,538.12631 464.120338,284 L465.001287,284 Z" id="Combined-Shape" fill="#FFFFFF" fill-rule="nonzero"></path>
            <line x1="179" y1="0.000715384616" x2="179" y2="284.000715" id="Path-3" stroke="#005D67" stroke-width="2"></line>
            <line x1="3" y1="176.000715" x2="179" y2="176.000715" id="Path-4" stroke="#005D67" stroke-width="2"></line>
            <line x1="113" y1="176.000715" x2="113" y2="284.000715" id="Path-5" stroke="#005D67" stroke-width="2"></line>
            <line x1="113" y1="219.000715" x2="179" y2="219.000715" id="Path-6" stroke="#005D67" stroke-width="2"></line>
            <rect id="Rectangle" fill="#00D7EE" fill-rule="nonzero" x="113" y="176" width="66" height="43"></rect>
            <path d="M1.40801188,1.05587998 C1,0.811723583 24.3038783,1.40594615 34.6168277,2.09503514 C274.130868,18.098846 463.119053,216.965363 463.119053,460.355763 L462.997461,460.355763 C462.997461,617.105366 336.04341,743.946405 179.150289,743.946405 L179.150289,744 C81.9231168,744 3.24708119,665.394739 3.24708119,568.252647 L3.43662178,568.252647 C3.43662178,508.547473 51.7921228,460.235471 111.552246,460.235471 L111.535556,460.235471 C148.894127,460.235471 179.125255,490.438214 179.125255,527.764369 L179.125255,527.723875" id="Stroke-12" stroke="#00D7EE" stroke-width="2" transform="translate(232.260888, 372.500000) scale(-1, 1) rotate(-180.000000) translate(-232.260888, -372.500000) "></path>
        </g>
    </g>
</svg>