<?xml version="1.0" encoding="UTF-8"?>
<svg width="191px" height="70px" viewBox="0 0 191 70" version="1.1" xmlns="http://www.w3.org/2000/svg" xmlns:xlink="http://www.w3.org/1999/xlink">
    <title>28A63A6A-12C9-47E5-9342-E23679D4F3AB</title>
    <g id="UI-Kit" stroke="none" stroke-width="1" fill="none" fill-rule="evenodd">
        <g id="Style-Tile" transform="translate(-244.000000, -228.000000)" fill="#FFFFFF">
            <g id="logo-nav" transform="translate(244.000000, 228.000000)">
                <path d="M34.7004,0.000165240005 C53.8649352,0.000165240005 69.4008,15.53603 69.4008,34.7005652 C69.4008,53.8651004 53.8649352,69.4009652 34.7004,69.4009652 C15.5358648,69.4009652 3.62376795e-13,53.8651004 3.62376795e-13,34.7005652 C3.62376795e-13,15.53603 15.5358648,0.000165240005 34.7004,0.000165240005 Z M34.667352,2.40715669 C16.8412608,2.41597404 2.3981832,16.874474 2.40699197,34.7005652 C2.4163596,52.5266564 16.8743088,66.9702848 34.7004,66.9609258 C52.50501,66.9300764 66.930462,52.5046244 66.960756,34.7005652 L66.960756,34.7005652 L66.960756,34.6675172 C66.9513924,16.841426 52.4934432,2.39779764 34.667352,2.40715669 Z M18.6700005,25.335412 L18.7658662,25.3368 L19.8013702,25.3368 C20.1610426,25.3368 20.3152666,25.5202164 20.2640422,25.8876 L20.2640422,25.8876 L17.7028222,40.368132 C17.2621822,42.8247 16.1715982,44.168652 13.0761022,44.168652 C9.98060616,44.168652 9.33066216,42.8247 9.77130216,40.368132 L9.77130216,40.368132 L10.1348302,38.22552 C10.1612686,37.8955908 10.449337,37.6493832 10.7792662,37.67472 L11.8312942,37.67472 C12.1948222,37.67472 12.3490462,37.861992 12.2719342,38.22552 L12.2719342,38.22552 L11.9084062,40.368132 C11.7046102,41.607432 11.8753582,42.35652 13.3570102,42.35652 C14.8386622,42.35652 15.3288742,41.607432 15.5602102,40.368132 L15.5602102,40.368132 L18.1214302,25.8876 L18.1230826,25.8672204 C18.1539274,25.54335 18.4419958,25.3059552 18.7658662,25.3368 Z M29.3442991,25.335412 L29.4401498,25.3368 L30.4701458,25.3368 C30.8336738,25.3368 30.9895502,25.5202164 30.9383258,25.8876 L30.9383258,25.8876 L28.3771058,40.368132 C27.9364658,42.8247 26.8458818,44.168652 23.7503858,44.168652 C20.6548898,44.168652 20.0049458,42.8247 20.4455858,40.368132 L20.4455858,40.368132 L23.0068058,25.8876 L23.0068058,25.8876 L23.0084582,25.8672204 C23.039303,25.54335 23.3273714,25.3059552 23.6512418,25.3368 L23.6512418,25.3368 L24.6867458,25.3368 C25.0464182,25.3368 25.201193,25.5202164 25.1494178,25.8876 L25.1494178,25.8876 L22.5826898,40.368132 C22.3788938,41.607432 22.5496418,42.35652 24.0312938,42.35652 C25.5129458,42.35652 26.0031578,41.607432 26.2344938,40.368132 L26.2344938,40.368132 L28.7957138,25.8876 L28.7973662,25.8672204 C28.8287618,25.54335 29.1162794,25.3059552 29.4401498,25.3368 Z M47.7542498,25.2047182 C50.8552538,25.2047182 51.5051978,26.5486702 51.0645578,28.9997302 L51.0645578,28.9997302 L49.0486298,40.3682422 C48.6079898,42.8248102 47.5174058,44.1687622 44.4219098,44.1687622 C41.3264138,44.1687622 40.6764698,42.8248102 41.1171098,40.3682422 L41.1171098,40.3682422 L43.1054978,29.0052382 C43.5406298,26.5486702 44.6532458,25.2047182 47.7542498,25.2047182 Z M34.6129605,25.3244759 L34.6789188,25.3334952 C34.9108056,25.3830672 35.05842,25.6116492 35.008848,25.843536 L35.008848,25.843536 L34.7004,37.190016 L34.36992,42.240852 L34.53516,42.240852 L35.956224,37.201032 L39.679632,25.854552 C39.7446264,25.5510612 40.0139676,25.3351476 40.324068,25.3368 L40.324068,25.3368 L41.425668,25.3368 C41.789196,25.3368 41.91588,25.590168 41.816736,25.975728 L41.816736,25.975728 L36.044352,43.469136 C35.9964324,43.7990652 35.7050592,44.0375616 35.372376,44.019936 L35.372376,44.019936 L33.048,44.019936 C32.678964,44.019936 32.4972,43.854696 32.4972,43.469136 L32.4972,43.469136 L32.899284,25.97022 C32.8981824,25.95645 32.8976316,25.9437816 32.8976316,25.9300116 C32.8954284,25.59843 33.1625664,25.3279872 33.494148,25.325784 L33.494148,25.325784 L34.546176,25.325784 C34.5907908,25.3213776 34.6354056,25.3241316 34.6789188,25.3334952 Z M47.4182618,26.9893102 C45.9476258,26.9893102 45.5069858,27.7604302 45.2756498,28.9997302 L45.2756498,28.9997302 L43.2542138,40.3682422 C43.0504178,41.6075422 43.2211658,42.3566302 44.7028178,42.3566302 C46.1844698,42.3566302 46.6746818,41.6075422 46.9060178,40.3682422 L46.9060178,40.3682422 L48.8888978,29.0052382 C49.1257418,27.7604302 48.8888978,26.9893102 47.4182618,26.9893102 Z M134.863215,30.294 C136.224242,30.294 137.248179,30.751164 137.848551,31.687524 L136.559679,32.6349 C136.224242,32.0499504 135.579806,31.7128608 134.907279,31.770144 C134.130651,31.770144 133.712043,32.128164 133.712043,32.706504 C133.712043,33.372972 134.262843,33.670404 135.364443,33.951312 C137.144078,34.39746 137.942738,35.052912 137.942738,36.567612 C137.942738,37.961136 137.006378,39.05172 135.006974,39.05172 C133.514306,39.05172 132.478251,38.644128 131.702174,37.658196 L133.023543,36.743868 C133.454819,37.324962 134.152683,37.6466292 134.874231,37.597608 C135.860163,37.597608 136.196151,37.167984 136.196151,36.644724 C136.196151,36.121464 135.838131,35.71938 134.456174,35.36136 C132.803774,34.915212 131.938467,34.116552 131.938467,32.706504 C131.938467,31.296456 132.841779,30.294 134.863215,30.294 Z M143.461588,30.294 C145.152544,30.294 146.303716,31.180788 146.584624,33.048 L144.921208,33.048 C144.856765,32.2923024 144.207922,31.7211228 143.450572,31.75362 C142.453624,31.75362 141.919348,32.431104 141.919348,34.061472 L141.919348,35.273232 C141.919348,36.854028 142.470148,37.581084 143.450572,37.581084 C144.314778,37.581084 144.733386,37.15146 144.921208,36.286704 L146.573608,36.286704 C146.286642,38.19798 145.212582,39.040704 143.461588,39.040704 C141.550312,39.040704 140.200852,37.878516 140.200852,35.273232 L140.200852,34.061472 C140.200852,31.434156 141.544804,30.294 143.461588,30.294 Z M173.981471,30.294 C175.672427,30.294 176.823599,31.180788 177.104507,33.048 L175.440541,33.048 C175.376648,32.2923024 174.727805,31.7211228 173.969905,31.75362 C172.973507,31.75362 172.439231,32.431104 172.439231,34.061472 L172.439231,35.273232 C172.439231,36.854028 172.990031,37.581084 173.969905,37.581084 C174.834661,37.581084 175.253269,37.15146 175.440541,36.286704 L177.092941,36.286704 C176.806525,38.19798 175.732465,39.040704 173.981471,39.040704 C172.070195,39.040704 170.720735,37.878516 170.720735,35.273232 L170.720735,34.061472 C170.720735,31.434156 172.064137,30.294 173.981471,30.294 Z M57.5121962,30.2539458 L57.6080618,30.2553338 L58.3075778,30.2553338 C58.6672502,30.2553338 58.822025,30.4387502 58.7702498,30.8061338 L58.7702498,30.8061338 L58.2194498,33.7529138 L61.1662298,33.7529138 C61.5297578,33.7529138 61.6894898,33.9346778 61.6178858,34.3037138 L61.6178858,34.3037138 L61.4912018,35.0032298 C61.4537474,35.327651 61.1728394,35.5677998 60.8467658,35.5540298 L60.8467658,35.5540298 L57.9275258,35.5540298 L57.3767258,38.4732698 C57.3475334,38.8020974 57.0611174,39.0466526 56.7322898,39.0240698 L56.7322898,39.0240698 L56.0437898,39.0240698 C55.6857698,39.0240698 55.5315458,38.8367978 55.5811178,38.4732698 L55.5811178,38.4732698 L56.1319178,35.5540298 L53.1851378,35.5540298 C53.1217958,35.5633934 53.0562506,35.5573346 52.9951118,35.5375058 C52.7725886,35.465351 52.650311,35.2263038 52.7224658,35.0032298 L52.7224658,35.0032298 L52.8491498,34.3037138 C52.8755882,33.9737846 53.1636566,33.727577 53.4935858,33.7529138 L53.4935858,33.7529138 L56.4128258,33.7529138 L56.9636258,30.8061338 L56.9636258,30.8061338 L56.9652782,30.7857542 C56.996123,30.4618838 57.2841914,30.224489 57.6080618,30.2553338 Z M163.080644,30.4263022 L166.412984,35.7745702 L166.412984,30.4263022 L168.04886,30.4263022 L168.04886,38.9471782 L166.606314,38.9471782 L163.301514,33.6760222 L163.301514,38.9471782 L161.649114,38.9471782 L161.649114,30.4263022 L163.080644,30.4263022 Z M105.335102,30.4263022 L105.335102,31.8969382 L102.99971,31.8969382 L102.99971,38.9471782 L101.270198,38.9471782 L101.270198,31.8969382 L98.9232394,31.8969382 L98.9232394,30.4263022 L105.335102,30.4263022 Z M86.1450098,30.426192 C88.1058578,30.426192 89.3286338,31.301964 89.3286338,33.031476 C89.4002378,34.0306272 88.8097802,34.9587252 87.8745218,35.317296 L89.6425898,38.947068 L87.7147898,38.947068 L86.1835658,35.603712 L84.8230898,35.603712 L84.8230898,38.947068 L83.0935778,38.947068 L83.0935778,30.426192 L86.1450098,30.426192 Z M110.776951,30.4261369 L113.740255,38.9470129 L111.900583,38.9470129 L111.382831,37.3276609 L108.507655,37.3276609 L107.989352,38.9470129 L106.161247,38.9470129 L109.124551,30.4261369 L110.776951,30.4261369 Z M117.3204,30.426192 L117.3204,38.947068 L115.590888,38.947068 L115.590888,30.426192 L117.3204,30.426192 Z M150.869628,30.426192 L150.869628,38.947068 L149.139565,38.947068 L149.139565,30.426192 L150.869628,30.426192 Z M122.079092,30.4265225 L122.079092,37.4872277 L125.659292,37.4872277 L125.659292,38.9418905 L120.34958,38.9418905 L120.34958,30.4265225 L122.079092,30.4265225 Z M184.842862,30.4263022 L184.842862,31.8969382 L181.262662,31.8969382 L181.262662,33.8082142 L184.473826,33.8082142 L184.473826,35.2513102 L181.262662,35.2513102 L181.262662,37.4545102 L184.842862,37.4545102 L184.842862,38.9080714 L179.56069,38.9080714 L179.56069,30.4263022 L184.842862,30.4263022 Z M159.214028,30.4263022 L159.214028,31.8969382 L155.633828,31.8969382 L155.633828,33.8082142 L158.844992,33.8082142 L158.844992,35.2513102 L155.633828,35.2513102 L155.633828,37.4545102 L159.214028,37.4545102 L159.214028,38.9080714 L153.904316,38.9080714 L153.904316,30.4263022 L159.214028,30.4263022 Z M97.2328892,30.4263022 L97.2328892,31.8969382 L93.6361652,31.8969382 L93.6361652,33.8082142 L96.8473292,33.8082142 L96.8473292,35.2513102 L93.6361652,35.2513102 L93.6361652,37.4545102 L97.2163652,37.4545102 L97.2163652,38.9080714 L91.9066532,38.9080714 L91.9066532,30.4263022 L97.2328892,30.4263022 Z M109.950751,32.8716889 L108.986851,35.8735489 L110.914651,35.8735489 L109.950751,32.8716889 Z M85.9632458,31.913352 L84.8230898,31.913352 L84.8230898,34.1496 L85.9632458,34.1496 C86.9877338,34.1496 87.5825978,33.92928 87.5825978,33.048 C87.5825978,32.16672 86.9877338,31.913352 85.9632458,31.913352 Z M188.742856,30.426192 L189.28264,31.3956 L189.83344,30.4317 L190.312086,30.4317 L190.312086,32.30442 L189.811408,32.30442 L189.811408,31.42314 L189.47542,32.012496 L189.094818,32.012496 L188.769846,31.42314 L188.769846,32.298912 L188.268618,32.298912 L188.268618,30.426192 L188.742856,30.426192 Z M188.120452,30.426192 L188.120452,30.87234 L187.569652,30.87234 L187.569652,32.298912 L187.067874,32.298912 L187.067874,30.87234 L186.517074,30.87234 L186.517074,30.426192 L188.120452,30.426192 Z" id="Combined-Shape"></path>
            </g>
        </g>
    </g>
</svg>