<svg xmlns="http://www.w3.org/2000/svg" viewBox="0 0 432 427.97"><defs><style>.cls-1{fill:#f5ed59;}</style></defs><g id="Layer_2" data-name="Layer 2"><g id="Layer_1-2" data-name="Layer 1"><path class="cls-1" d="M230.12,14.25q-6.59-.13-13.14-.79c-.84-.14-1.68-.24-2.54-.3a3.75,3.75,0,0,0-2.26.52,2.65,2.65,0,0,1-.53.27,5.6,5.6,0,0,1-2.54.19,17,17,0,0,0-3-.19,12.79,12.79,0,0,1-2.23.14,33.77,33.77,0,0,0-4.61,0l-17.47,2.28-24,5.46-17.5,6.37a30,30,0,0,0-4.13,1.87c-1.31.72-2.64,1.38-4,2A198.86,198.86,0,0,0,86.42,60.59L76.57,69l-19,21.26L42.79,111.89a271.12,271.12,0,0,0-16.54,36.16,97.27,97.27,0,0,0-4.35,14.67l-4.58,22.05-1.52,15.4a113.74,113.74,0,0,0,0,21.12l.31,3.27.43,5.18a178.71,178.71,0,0,0,5.69,32.8L23.75,268a163.86,163.86,0,0,0,17.71,41.53l9.08,15.27,14.57,18.37,17.72,17.72,18.73,14.69,20.06,12.28,18.61,8.53,19.92,6.93,21.46,4.92L203,410.85h23.09l16.74-1.57L262.14,406l17.9-5.49a155.71,155.71,0,0,0,21.47-8.32,184.79,184.79,0,0,0,43.36-27.38,209.64,209.64,0,0,0,61.42-89l4.3-15c.15-.53.29-1.07.4-1.61.3-1.38.58-2.76.84-4.15q1.21-6.5,2.6-13a29.14,29.14,0,0,0,.64-5.67,28.23,28.23,0,0,1,.18-2.91A194.22,194.22,0,0,0,365,79.42a21.85,21.85,0,0,1-1.46-1.87,25.24,25.24,0,0,0-3.75-4.18l-18.91-16.8-18.39-13-2.91-1.85A290.44,290.44,0,0,0,280.4,23.69l-24.21-6.37-19.45-2.8c-.34,0-.68-.08-1-.1-1.86-.07-3.73-.13-5.59-.17m-13.29,5.5,25.3,10.37A82.62,82.62,0,0,1,280,28.39a52.49,52.49,0,0,1,6.33,1.38A54.36,54.36,0,0,1,308,43.11,247.05,247.05,0,0,1,326,63.84a30.77,30.77,0,0,0,15.36,6.43,64.84,64.84,0,0,1,29.28,26q3.21,5.15,6.25,10.4a44.06,44.06,0,0,1,5.56,22,53.66,53.66,0,0,0,.28,11.26,12.87,12.87,0,0,0,3.11,6.28l11.88,15.14,5.38,9a51.07,51.07,0,0,1,5.75,37.08,75.55,75.55,0,0,1-5.57,15.28l-6.29,13a80.72,80.72,0,0,1,3.26,24.91,22.77,22.77,0,0,1-.21,2.6c-.18,1.34-.41,2.68-.69,4a63,63,0,0,1-4.75,14.09c-.26.54-.53,1.07-.83,1.59a24.49,24.49,0,0,0-1.73,3.75,34,34,0,0,1-5.27,9.45,25.51,25.51,0,0,0-1.79,2.6,24,24,0,0,1-2.05,2.93,48.59,48.59,0,0,1-9.68,9c-.72.51-1.44,1-2.14,1.58s-1.42,1.08-2.15,1.6a37.59,37.59,0,0,0-6,5.26,7.33,7.33,0,0,0-1.22,1.75,22.47,22.47,0,0,0-1.38,3.33,69.4,69.4,0,0,1-38,47.94,53.2,53.2,0,0,1-19.25,5c-3.44.26-6.87.65-10.27,1.15a21.73,21.73,0,0,0-12,5.7,52.85,52.85,0,0,1-41,17.78,77.77,77.77,0,0,1-32.89-8.29,16.1,16.1,0,0,0-17.79-.23,43.93,43.93,0,0,1-24,3.45,62.12,62.12,0,0,1-33.41-15.59c-.88-.8-1.78-1.57-2.71-2.32q-1.71-1.38-3.32-2.88a61.38,61.38,0,0,1-9.45-11.21q-1.15-1.75-2.25-3.54a12.5,12.5,0,0,1-.63-1.13,18.33,18.33,0,0,0-9.64-8.85c-.69-.27-1.38-.51-2.09-.72-1.18-.35-2.36-.67-3.55-.95-1-.26-2.06-.56-3.08-.88a59.78,59.78,0,0,1-37.14-31.86,44.71,44.71,0,0,1-4.56-16.47l-1.27-17a14.74,14.74,0,0,0-8-12.13,69.52,69.52,0,0,1-10-12.41,40,40,0,0,1-5-9.25,62.21,62.21,0,0,1-2.88-22.1,98.84,98.84,0,0,1,2.88-19.2c.33-1.31.69-2.61,1.09-3.9a17,17,0,0,1,.65-1.81c1.17-2.85,2.45-5.65,3.81-8.41a12.73,12.73,0,0,0,1.67-5.5,23.47,23.47,0,0,0-1-5.69q-1-3.47-1.79-7a51.47,51.47,0,0,1-.78-17.15,84.29,84.29,0,0,1,19.84-44.22,9.63,9.63,0,0,1,1.26-1.21c1.29-1,2.6-2,3.95-3a59.85,59.85,0,0,1,17.35-8.46A38.37,38.37,0,0,1,81.47,75.7,84.85,84.85,0,0,1,114,48.5q2.19-1.05,4.44-2a19.71,19.71,0,0,1,2.16-.76,70.7,70.7,0,0,1,26.75-2.51L159.6,32.12a54.64,54.64,0,0,1,57.23-12.37"/><path class="cls-1" d="M207.82,23.28a27.55,27.55,0,0,0-12.31-.76c-.29.05-.58.08-.87.12a45.7,45.7,0,0,0-15.89,3.79,67,67,0,0,0-17.88,12c-.75.7-1.48,1.42-2.2,2.16s-1.63,1.7-2.42,2.57a14,14,0,0,1-9.42,4.59q-5.15.51-10.28,1.15A70.41,70.41,0,0,0,116.22,54a47.52,47.52,0,0,0-9.36,5.31l-.82.57-3.6,2.43a46.67,46.67,0,0,0-8.53,7.35c-.5.54-1,1.07-1.54,1.59a36.2,36.2,0,0,0-3,3.23A38.7,38.7,0,0,0,81.71,107,42.65,42.65,0,0,0,52,124.91a75.17,75.17,0,0,0-13.39,38.57,70.63,70.63,0,0,0,5,27.71A75,75,0,0,0,31.12,232a64.57,64.57,0,0,0,1.24,12.48,51.28,51.28,0,0,0,10.07,22.34L59,279.27a61.09,61.09,0,0,0,2.78,32,32.85,32.85,0,0,0,1.3,3.05,16.57,16.57,0,0,0,1.21,2.08q4.37,6.29,9.07,12.35a43.17,43.17,0,0,0,23.67,15.64,50.46,50.46,0,0,1,12.76,2.45c.28.1.55.21.82.33a15.57,15.57,0,0,1,6,6l5,8.2a65.62,65.62,0,0,0,37.5,29.33,34.39,34.39,0,0,0,23.77-1.33l13.5-5.76a75,75,0,0,0,36.71,13.86l14.47,1.15A70.94,70.94,0,0,0,278.22,378a22.74,22.74,0,0,1,9.66-3.85,75.86,75.86,0,0,0,20.4-1.14,36.62,36.62,0,0,0,4.24-1.09,29.93,29.93,0,0,0,3.64-1.44,181.77,181.77,0,0,0,17-9.37,42.67,42.67,0,0,0,19.94-42l16.12-11.25A64.56,64.56,0,0,0,391.6,280.9a41.09,41.09,0,0,0,3.65-14.65c.05-.79.1-1.59.16-2.38a34.49,34.49,0,0,0-.61-13l-4.54-16.41a68,68,0,0,0,14-36.44A34.74,34.74,0,0,0,402.38,184a75.67,75.67,0,0,0-10.14-19.62l-12-16A18.05,18.05,0,0,1,376.6,139c-.09-1.95-.1-3.9,0-5.84,0-1.18.07-2.35.06-3.52a48.93,48.93,0,0,0-8-25.85l-5.42-7.58A54.3,54.3,0,0,0,336.52,74.9,31,31,0,0,1,318.2,64L308.45,52,294.66,40a26.07,26.07,0,0,0-13.82-6.23,124.75,124.75,0,0,0-21.77-1l-18.26,3.46a233.54,233.54,0,0,0-33-13M395.69,182.14l2.72,16.5L396,213.25q-2.23,7-5.11,13.8a19.09,19.09,0,0,1-2.93,5.37,9.7,9.7,0,0,1-3.49,2.45,2.1,2.1,0,0,1-.83.14,1.09,1.09,0,0,1-1-.71,3.55,3.55,0,0,1-.21-1.61,12,12,0,0,1,1.18-4.33A53.56,53.56,0,0,0,388,216.44a96.42,96.42,0,0,0,2-30.53,30.45,30.45,0,0,0-4.41-12.86,19.85,19.85,0,0,0-9.56-7.36c-.63-.26-1.26-.51-1.9-.75a8.67,8.67,0,0,0-10.27,3.49,7.75,7.75,0,0,0-.92,2.81,8.94,8.94,0,0,1-.82,2.63,14.86,14.86,0,0,0-.78,3.79,8.72,8.72,0,0,1-1.17,3.75,5.1,5.1,0,0,1-1.42,1.61,1.93,1.93,0,0,1-2,.07,4.67,4.67,0,0,1-2.47-2.49c-.16-.32-.32-.65-.47-1a19.68,19.68,0,0,1-1.27-13A14,14,0,0,1,366.81,156a30.52,30.52,0,0,1,28.88,26.13m-4.69,86A68.55,68.55,0,0,1,375.29,297a61,61,0,0,1-15,11.9c-1.58.88-3.18,1.75-4.78,2.59a2,2,0,0,1-1.66,0,3.93,3.93,0,0,1-2.22-2.09,1.6,1.6,0,0,1,.28-1.78,7,7,0,0,1,1.79-1.36,14.06,14.06,0,0,0,1.33-.83q6.09-4.61,11.73-9.78c1-.9,1.92-1.84,2.81-2.82s1.76-2,2.56-3.07A101.21,101.21,0,0,0,383.87,270a22.12,22.12,0,0,0-12.18-29.7l-10.08,10.08a13.76,13.76,0,0,1-2.3,2,2.91,2.91,0,0,1-1.87.52,2,2,0,0,1-.82-.31,6,6,0,0,1-2.5-6,9.2,9.2,0,0,1,.38-1.73,22,22,0,0,1,9.5-12.2,10,10,0,0,1,8.53-1,10.92,10.92,0,0,1,2.7,1.27,2.89,2.89,0,0,1,1.21,1.81,9.38,9.38,0,0,0,1.1,3,6.11,6.11,0,0,0,3.9,2.46c1.31.26,2.62.46,3.95.6a2.48,2.48,0,0,1,1.72,1.14,12.87,12.87,0,0,1,1.3,2.63l1.4,2.64a20.84,20.84,0,0,1,1.22,3,36.24,36.24,0,0,1,0,17.92m-7.39-86.6a10.36,10.36,0,0,1,.87,2.37,44.38,44.38,0,0,1,.9,5.13,85.91,85.91,0,0,1,0,19.63,25.24,25.24,0,0,1-.67,3.55,27.64,27.64,0,0,1-1.22,3.63q-1.77,4.26-3.82,8.41a20.48,20.48,0,0,1-1.46,2.88,3.21,3.21,0,0,1-.85.91,1,1,0,0,1-1.2,0A2.7,2.7,0,0,1,375,225.3a17,17,0,0,1,.51-1.72c.15-.4.29-.8.43-1.2l4.36-14.84a28.19,28.19,0,0,0-5-26.06q-2-2.28-3.82-4.74a13.71,13.71,0,0,1-1.26-2.51,2.76,2.76,0,0,1-.1-2,2.43,2.43,0,0,1,1.6-1.37,5.51,5.51,0,0,1,5.36,1.33,43.52,43.52,0,0,1,6.54,9.37M375,277.82a71.22,71.22,0,0,1-16.45,19,32,32,0,0,1-2.7,2.23,3.39,3.39,0,0,1-1.22.52,2.19,2.19,0,0,0-.87.38l-1.34,1a3,3,0,0,1-1.17.53,1.58,1.58,0,0,1-1.26-.42,2.13,2.13,0,0,1-.84-1.34,2,2,0,0,1,.33-1.32,8.14,8.14,0,0,1,2.06-2.12q.76-.58,1.5-1.2l8.21-6.92a33.51,33.51,0,0,0,11.47-21.95,18.49,18.49,0,0,0,.1-4.52,4.24,4.24,0,0,0-.37-1.21,8.26,8.26,0,0,1-.5-4.86,4.8,4.8,0,0,0-.08-2.1,6,6,0,0,1-.18-2.06,3.79,3.79,0,0,1,1-2,1.8,1.8,0,0,1,1.84-.47,4.4,4.4,0,0,1,1.89,1.2,7.46,7.46,0,0,1,1.9,3A31.83,31.83,0,0,1,375,277.82M350.38,89.61a59.93,59.93,0,0,1,20.91,44.68c0,1.57-.12,3.13-.25,4.69q0,2.1,0,4.2a4.64,4.64,0,0,1-.77,2.39,2.1,2.1,0,0,0-.37,1l-.2,1.49a2.32,2.32,0,0,1-.29.85,1.16,1.16,0,0,1-.9.56,2.15,2.15,0,0,1-2.33-1.15,7.19,7.19,0,0,1-.74-3c-.06-.87-.09-1.74-.1-2.61A115.59,115.59,0,0,0,364.13,130a64.14,64.14,0,0,0-14.78-32.42,21.93,21.93,0,0,0-18-7.69,9.32,9.32,0,0,0-8.78,8,14.85,14.85,0,0,0,.52,5.78c.21.9.39,1.81.52,2.73.17.67.36,1.34.58,2a4.33,4.33,0,0,1-1.35,4.44,3.25,3.25,0,0,1-2.76.57,9.1,9.1,0,0,1-4.7-3,17.55,17.55,0,0,1-1.52-21A15.19,15.19,0,0,1,324.16,83a36,36,0,0,1,5.17-.64,30,30,0,0,1,21.05,7.23m17.37,103.28c.25.28.5.56.74.85a3.25,3.25,0,0,1,.52,1.48l0,.89,0,1.72a4.23,4.23,0,0,1-.11.62,7.75,7.75,0,0,1-.28.81c-.16.4-.32.79-.49,1.18a1.35,1.35,0,0,1-.43.49,1.27,1.27,0,0,1-.59.21q-.79,0-1.59,0a1.31,1.31,0,0,1-.6-.21,1.33,1.33,0,0,1-.42-.49c-.17-.39-.34-.79-.5-1.18l-.26-.62a6.37,6.37,0,0,1-.14-1.68l-.05-1.78a2.76,2.76,0,0,1,.47-1.41,4.84,4.84,0,0,1,.69-.74,4.39,4.39,0,0,1,.9-.82,1.19,1.19,0,0,1,1.41,0,3.72,3.72,0,0,1,.75.68m-7.13,74.34a5,5,0,0,1-.47,2.25,7.93,7.93,0,0,1-1.87,2.79,3.37,3.37,0,0,1-.86.59,3.17,3.17,0,0,1-.95.29,7.52,7.52,0,0,1-1.5,0,1.13,1.13,0,0,1-.75-.75,17.76,17.76,0,0,1,0-3.26,2.79,2.79,0,0,1,.26-1,3,3,0,0,1,.61-.9,13.22,13.22,0,0,1,1.4-1.4l.46-.48a2.34,2.34,0,0,1,2.1-.31,2.3,2.3,0,0,1,1.54,2.17M350.18,106.48a82.9,82.9,0,0,1,7.26,14.23,32.31,32.31,0,0,1,1.16,3.57,20.7,20.7,0,0,1,.56,3,113.76,113.76,0,0,1,.73,13.56,28.3,28.3,0,0,1-.1,4.22,5.91,5.91,0,0,1-.37,1.37,1.07,1.07,0,0,1-.41.53,1,1,0,0,1-.79.06,3.14,3.14,0,0,1-1.47-1.09,2.77,2.77,0,0,1-.65-1.71,25.09,25.09,0,0,0-.3-4.07,5.46,5.46,0,0,0-.44-1.31,5.44,5.44,0,0,1-.39-2.79c.07-.68.12-1.37.16-2.05a12.06,12.06,0,0,0,0-1.59,34.45,34.45,0,0,0-21-29.79,11.43,11.43,0,0,1-3.43-2.07,3.14,3.14,0,0,1-1.09-2.28,2.8,2.8,0,0,1,.76-1.84,2.86,2.86,0,0,1,1.79-.88,9.23,9.23,0,0,1,3.58.38,24.6,24.6,0,0,1,14.43,10.54m-3,209.72a30.45,30.45,0,0,1-3.31,27.26,56.09,56.09,0,0,1-46.8,25.8l-6.08.41a5.91,5.91,0,0,1-2.75-.54,2,2,0,0,1-1.16-1.69,2.43,2.43,0,0,1,.69-1.59,6,6,0,0,1,4.15-1.76,73.89,73.89,0,0,0,24.72-6.4,63.66,63.66,0,0,0,20.21-14.56,18.85,18.85,0,0,0,4.36-18,30.82,30.82,0,0,0-1.22-4.08,6.62,6.62,0,0,0-3.94-3.52,8.4,8.4,0,0,0-5.78-.38l-7.56,2.61a5,5,0,0,1-3.87-.05,3.56,3.56,0,0,1-1.68-4.07,5.49,5.49,0,0,1,.62-1.62,17,17,0,0,1,6.48-6.52,15.43,15.43,0,0,1,7.85-2.55c.33,0,.66,0,1,.05a17.26,17.26,0,0,1,14.08,11.16m-9-195.88.44.49a3.37,3.37,0,0,1,.47,1.41c0,.43.07.86.07,1.29s0,.9-.07,1.34a3.21,3.21,0,0,1-.93,1.91,1.36,1.36,0,0,1-1.22.34,2.51,2.51,0,0,1-.71-.45,21.58,21.58,0,0,1-1.68-1.77,4.74,4.74,0,0,1-.7-1,2.46,2.46,0,0,1-.24-.84,10.28,10.28,0,0,1-.06-1.1c0-.54,0-1.08.06-1.61a2.61,2.61,0,0,1,1-1.87,1.37,1.37,0,0,1,1.22-.33,2,2,0,0,1,.71.45,18.71,18.71,0,0,1,1.69,1.76M201,321.7a.9.9,0,0,0-.63-.66,3,3,0,0,0-1.12-.09c-.59.06-1.19.1-1.79.11a2.54,2.54,0,0,1-.67-.11,13.87,13.87,0,0,0-3.27-.4,220,220,0,0,1-36.16-6.73,145.53,145.53,0,0,1-26.45-10.14,80,80,0,0,1-14.55-9.53,49.84,49.84,0,0,1-7.8-8.36,25.65,25.65,0,0,1-5.17-15.85,26.81,26.81,0,0,1,4.54-13.25,46.53,46.53,0,0,1,5.89-7l2.55-2.26a4.1,4.1,0,0,1,1.23-.63,6.94,6.94,0,0,1-.51,1.23,33.25,33.25,0,0,0-3.9,5.94,22.94,22.94,0,0,0-2.4,10.22,21.65,21.65,0,0,0,2.71,11,34.74,34.74,0,0,0,8,10.1A63.71,63.71,0,0,0,134,294.17a122.14,122.14,0,0,0,23.23,9.71,186.55,186.55,0,0,0,29.95,6.41c7.33,1,14.71,1.58,22.1,1.85q4.85.21,9.7.09c4.63,0,9.27-.11,13.89-.47a201.83,201.83,0,0,0,42.75-7.23,132.69,132.69,0,0,0,20.59-7.85A71.6,71.6,0,0,0,315.78,283a37.12,37.12,0,0,0,6.4-9.51A22.33,22.33,0,0,0,324,261.36,26.79,26.79,0,0,0,318.56,249a34.11,34.11,0,0,0-6.86-7.13,73.54,73.54,0,0,0-7.66-5.59,57.17,57.17,0,0,0-6.56-3.59q-.23-.12-.45-.27a1.63,1.63,0,0,0-.44-.21,5.44,5.44,0,0,1-.83-.43,1.14,1.14,0,0,1,.25-.49l1,.49a28.48,28.48,0,0,1,5.4,2.06,92.13,92.13,0,0,1,21,11.66,47.19,47.19,0,0,1,9.75,9.6,28.12,28.12,0,0,1,5.13,11,35.51,35.51,0,0,1,.19,6.27,16.29,16.29,0,0,1-1.83,8,34.21,34.21,0,0,1-8.43,11.6,67.23,67.23,0,0,1-15.44,10.91,118.12,118.12,0,0,1-13.5,6.17,183.91,183.91,0,0,1-34.59,9.31q-8.27,1.45-16.63,2.23a10.25,10.25,0,0,0-2.28.38,3.3,3.3,0,0,1-1.17.09c-.6-.05-1.19-.09-1.79-.11a2,2,0,0,0-.8.17.91.91,0,0,0-.46.59H201m124.54,25.46c-1,.7-2.07,1.36-3.14,2s-2.2,1.31-3.24,2a38.79,38.79,0,0,1-12.25,5.64,76.84,76.84,0,0,1-10.54,2c-1,.21-1.91.45-2.86.69a5.35,5.35,0,0,1-4-.69,1.81,1.81,0,0,1-.57-.53.85.85,0,0,1-.09-.79,1.87,1.87,0,0,1,.6-.76,10.15,10.15,0,0,1,3.21-1.59,10.62,10.62,0,0,1,1.14-.31l13.11-2.76a28.41,28.41,0,0,0,4.23-1.23,14,14,0,0,0,2.69-1.38,41.24,41.24,0,0,0,13.75-15.28,30.29,30.29,0,0,0,1.79-4.82,14,14,0,0,1,1.58-3.25,2.87,2.87,0,0,1,2.61-1.42,3.54,3.54,0,0,1,3,3.27,4.53,4.53,0,0,1,0,1,25.88,25.88,0,0,1-11,18.17M314.62,331a4.48,4.48,0,0,1,0,2.41,1.52,1.52,0,0,1-.27.48,10,10,0,0,1-1,1.06,3.41,3.41,0,0,1-1.13.74l-.7.23c-.28.1-.56.2-.83.32a10.28,10.28,0,0,1-1.21.44,2.22,2.22,0,0,1-2.81-2.84l.72-1.11a12.25,12.25,0,0,1,1.91-1.83,12.54,12.54,0,0,1,1.81-1l.62-.34a2.45,2.45,0,0,1,2.1.32,2.29,2.29,0,0,1,.79,1.08M298.5,53.61a67.1,67.1,0,0,1,13.87,18.64c.37.87.72,1.74,1.06,2.61a9.72,9.72,0,0,1,1,3.58,2.51,2.51,0,0,1-.27,1.32,1.37,1.37,0,0,1-1,.69,3.18,3.18,0,0,1-3.46-1.81c-.12-.29-.25-.57-.39-.85a5.75,5.75,0,0,0-.57-1L297.86,61.82,288.49,54a46.47,46.47,0,0,0-19.72-9.46,19.58,19.58,0,0,0-19.58,7.32,6.72,6.72,0,0,0-.1,8.68l5.29,6.91c.63.73,1.24,1.47,1.84,2.23a3.49,3.49,0,0,1,.74,1.77,2.41,2.41,0,0,1-.56,1.62,4.48,4.48,0,0,1-4.56,1.86,16.6,16.6,0,0,1-2.5-.62,17.79,17.79,0,0,1-11.19-10.08,15.73,15.73,0,0,1,6-19.32A75.59,75.59,0,0,1,254,39.3a15.62,15.62,0,0,1,4.49-.78,13.8,13.8,0,0,0,3.66-.71,9.75,9.75,0,0,1,4.74.12l1.65.35a62,62,0,0,1,30,15.33m-22.86-1.26A54.79,54.79,0,0,1,300.79,74.4a35.55,35.55,0,0,1,2.31,3.89,5.1,5.1,0,0,1,.5,2.33,2.86,2.86,0,0,1-.31,1.08,1,1,0,0,1-1.09.55,3.49,3.49,0,0,1-1.49-.74,12.79,12.79,0,0,1-2.5-2.59l-4.86-7.32a33.71,33.71,0,0,0-15-12.26,78.48,78.48,0,0,0-7.94-2.2,15,15,0,0,0-5.89.24,22.42,22.42,0,0,1-6.63.66,10,10,0,0,1-1.54-.3,2,2,0,0,1-1.51-1.85,4.54,4.54,0,0,1,1-3.09,4.59,4.59,0,0,1,2.77-1.67,33.09,33.09,0,0,1,4.55-.46l.7-.08a22.6,22.6,0,0,1,11.82,1.76m-47.11,110,3.05.22L246.17,164l8.13,1.44,7.8,1.87,8.15,2.74,5.82,2.82A30.24,30.24,0,0,1,287.79,183v16.9l-.93,10.58-2,10.57-2.14,7.76a87.39,87.39,0,0,1-12.6,24.49,73,73,0,0,1-10.43,10.58,52.49,52.49,0,0,1-17.17,9.53l-1.09.47-7.75,2-6.18.8-6.8.37-8.61-.53-4.93-.78A49.42,49.42,0,0,1,197,273.09l-3.49-1.29a36.94,36.94,0,0,1-8-4.08,74.33,74.33,0,0,1-14.41-12.25L165,246.88l-2,5.75a33.36,33.36,0,0,1-3.15,6.64,12.91,12.91,0,0,1-3.35,3.56A9.57,9.57,0,0,1,143,260.6a18.05,18.05,0,0,1-1.58-2.81,6.6,6.6,0,0,1-.35-1,7.18,7.18,0,0,1-.23-1.12,30.72,30.72,0,0,1-.22-6.43,7.25,7.25,0,0,1,.41-1.65,24.4,24.4,0,0,1,.77-2.56,12.15,12.15,0,0,1,.88-1.47,1.77,1.77,0,0,1,.55.54,2.71,2.71,0,0,1,0,.94,12.35,12.35,0,0,0,1,8.13,5.68,5.68,0,0,0,9.75,1,12.39,12.39,0,0,0,1.36-3.07c.09-.26.19-.52.3-.77a2.47,2.47,0,0,0,.13-.93,6.25,6.25,0,0,1,.11-1.29,2.26,2.26,0,0,0,.18-1.4,5.18,5.18,0,0,0-2.19-3.66,19.94,19.94,0,0,0-3.38-2.11l-12.63-6.24A45.31,45.31,0,0,1,120.7,220L118,214.2l-1.49-6.27-.17-5.7a11.85,11.85,0,0,1,3.83-9.15,14.62,14.62,0,0,1,6.06-3.42,36.26,36.26,0,0,1,13.2-1,22.6,22.6,0,0,1,4.51,1,47.31,47.31,0,0,1,8.09,3.29v-9a11.58,11.58,0,0,1,3-4.84A38.39,38.39,0,0,1,167.75,171l7.3-2.84,9-2.27,7.62-1.44,7.69-1.06,12.35-1h16.83m45.61,193.29a9.5,9.5,0,0,1,1.34,2.25,13.74,13.74,0,0,1,.85,2.94,22.14,22.14,0,0,1-2.76,14.91,27.78,27.78,0,0,1-1.88,2.79c-.42.55-.82,1.12-1.21,1.7a22.86,22.86,0,0,1-11.57,9.2,64.88,64.88,0,0,1-47.5-2,43.28,43.28,0,0,1-12.54-7.16,5.39,5.39,0,0,1-2-3.44,6,6,0,0,1,0-1.41,1.66,1.66,0,0,1,.31-.86,1.13,1.13,0,0,1,.9-.36,4.13,4.13,0,0,1,1.55.36c.76.32,1.51.68,2.24,1.06l13.29,6.14a17.37,17.37,0,0,0,2.21.85q1.68.53,3.42.9,7.37,1.59,14.84,2.65a51,51,0,0,0,16-.76,17.05,17.05,0,0,0,9.17-4.72c.63-.63,1.22-1.28,1.78-2a25.56,25.56,0,0,0,1.57-2.14,17.76,17.76,0,0,0,2.92-11.13,1.65,1.65,0,0,0-.2-.64,13.55,13.55,0,0,0-3.33-4,2.65,2.65,0,0,0-.69-.4l-10.32-3.66a3.47,3.47,0,0,1-1.86-1.33,2.67,2.67,0,0,1-.2-2.19,7.11,7.11,0,0,1,2.38-3.33,4.37,4.37,0,0,1,2.14-.6,11.2,11.2,0,0,0,2.3-.27,2.83,2.83,0,0,0,.76-.33,4.07,4.07,0,0,1,2.29-.49,12.8,12.8,0,0,1,2.46.35,19.73,19.73,0,0,1,11.35,7.05M272.65,69.78a8,8,0,0,1,3.28,2.33,2.52,2.52,0,0,1,.46,1.4,4.27,4.27,0,0,1-.14,1.63,2.2,2.2,0,0,1-1.14,1.29,2.23,2.23,0,0,1-1.72.06,7.66,7.66,0,0,1-4.64-3.94,6.78,6.78,0,0,1-.53-1,.88.88,0,0,1,0-.62,2.31,2.31,0,0,1,.52-.88,2.23,2.23,0,0,1,.71-.5,3,3,0,0,1,1-.24,4,4,0,0,1,2.22.42m-21,309.28a60.22,60.22,0,0,1-8.32,1.84c-.34,0-.69.05-1,.06a85.43,85.43,0,0,1-12.49-.46,48.59,48.59,0,0,1-22-8.17,10.14,10.14,0,0,1-2.21-1.92,3.37,3.37,0,0,1-.49-.81,1.41,1.41,0,0,1-.13-.67.93.93,0,0,1,.45-.71,2.11,2.11,0,0,1,1.12-.29,9.45,9.45,0,0,1,3.91.94l11.32,4.94a30.49,30.49,0,0,0,27.8-1.75,67.43,67.43,0,0,1,8.94-5.08,1.9,1.9,0,0,1,.8-.18,1,1,0,0,1,.81.39,2.13,2.13,0,0,1,.4,1,9.55,9.55,0,0,1-.33,4,4.45,4.45,0,0,1-.34.88,12.49,12.49,0,0,1-8.16,6M207,79a14.93,14.93,0,0,0-3.26,2.72,8.92,8.92,0,0,0-1.53,2.34,10,10,0,0,0-.8,3.45,6.1,6.1,0,0,0,.17.95l.54,1.84a6.45,6.45,0,0,0,.34.82c.46.69.94,1.36,1.45,2a41.14,41.14,0,0,0,8.9,7.25q4.11,2.5,8.36,4.77l18.38,9.95,6.44,4,5.22,3.84,3,2.83,2.57,3.11,1.45,2.77.9,3v3.33l-1,3.62-2.27,4a25.51,25.51,0,0,1-5.74,5.43A46.61,46.61,0,0,1,239,156.59l-1.45.49c-.34.11-.69.21-1,.3a99.51,99.51,0,0,1-10.54,2.18,50.33,50.33,0,0,1-5.33.52,5.65,5.65,0,0,1-1.88.07,2.61,2.61,0,0,0-1,.08l-.06,0a3.77,3.77,0,0,1-1.16,0,4.15,4.15,0,0,1,1-.5l.09,0a67.93,67.93,0,0,0,14.28-3.93,20,20,0,0,0,2.74-1.36,26.27,26.27,0,0,0,6.26-5.09,18.49,18.49,0,0,0,1.43-1.87l.42-.88a10.2,10.2,0,0,0-.07-7.84,15,15,0,0,0-3.21-4.7c-.35-.36-.71-.7-1.07-1a66.36,66.36,0,0,0-10.29-7.42q-5.84-3.44-11.85-6.53L214.42,118l-8.13-4.76a57.63,57.63,0,0,1-11.76-8.83,16.11,16.11,0,0,1-1.77-1.92l-2.17-2.94-1.43-3.2-.64-2.57,0-1a17.14,17.14,0,0,1,1-5.62,11,11,0,0,1,2.09-3.49,19.11,19.11,0,0,1,4.54-3.72,34.56,34.56,0,0,1,7.41-3.28,99.9,99.9,0,0,1,15.19-3.52l2.69-.32a51.27,51.27,0,0,0-12.94,5.25c-.51.3-1,.62-1.49.94m31.35,280.3a8.36,8.36,0,0,1,1,.27,2.24,2.24,0,0,1,.57,3.93l-.59.34c-.41.22-.81.42-1.23.61l-.62.34a2.73,2.73,0,0,1-1.5,0l-.65-.32a5.55,5.55,0,0,0-1-.29,5.8,5.8,0,0,1-1.1-.32,2.28,2.28,0,0,1-.62-4l.63-.3c.41-.22.82-.42,1.23-.61l.62-.34a2.73,2.73,0,0,1,1.5,0l.65.32a7.84,7.84,0,0,0,1.17.34M192.6,107.43A93.12,93.12,0,0,0,205,115.74L225.19,127l5.1,3.31a26,26,0,0,1,5.93,5.1c.34.41.66.84,1,1.28a15.86,15.86,0,0,1,.93,1.84,5.43,5.43,0,0,1,.09.69,3.36,3.36,0,0,1,.08,2.51,5.08,5.08,0,0,0-.35.59l-.77-.44a15.88,15.88,0,0,0-2.44-3.1,37.8,37.8,0,0,0-9.17-6.7l-.75-.39-18-9.46-6.65-4a41.29,41.29,0,0,1-9.88-8L189,108.78A16.74,16.74,0,0,1,186,104l-1-2.37c-.11-.43-.2-.88-.27-1.32,0-.2,0-.4,0-.59a49.18,49.18,0,0,0,7.87,7.73m6.13-76.5a53.54,53.54,0,0,1,22.46,5.19,38.45,38.45,0,0,1,6.49,3.38,30.59,30.59,0,0,0,3.1,2.21,5.59,5.59,0,0,1,2.33,3,2,2,0,0,1,.09.69,1,1,0,0,1-.71.93,3.43,3.43,0,0,1-1.56.09,11.45,11.45,0,0,1-2.64-.71L215.7,40.83a54.23,54.23,0,0,0-40.22.08,20,20,0,0,0-12,14.39,9.19,9.19,0,0,0,4.35,9.84,16.06,16.06,0,0,0,5.89,1.79,22.49,22.49,0,0,1,5.22,1.27,8,8,0,0,1,2.49,1.73,2,2,0,0,1,.45.88.94.94,0,0,1-.14.71,10.65,10.65,0,0,1-6.34,4.81,22.21,22.21,0,0,1-13.95-1.24,9.85,9.85,0,0,1-5.06-4.71,3.52,3.52,0,0,1-.22-2.39c.27-1,.51-2,.71-3a3.5,3.5,0,0,0-.53-2.56,7.18,7.18,0,0,1-1.59-4,8.22,8.22,0,0,1,.39-2.61,34.59,34.59,0,0,1,19-21.54,40.42,40.42,0,0,1,17-3.42l7.62.1m6.59,12.12a90,90,0,0,1,16.46,5.44l2.09.77a3.12,3.12,0,0,1,1.55,1.2,2.38,2.38,0,0,1,.29,1.52,1.34,1.34,0,0,1-.72,1,3.5,3.5,0,0,1-1.8.34,10.63,10.63,0,0,1-3.44-.68L210.25,49A29.76,29.76,0,0,0,181,53.11l-4.69,3.55a17.06,17.06,0,0,1-3.15,2.09,3.4,3.4,0,0,1-1.91.33,2.21,2.21,0,0,1-1.72-1.87,6.13,6.13,0,0,1,.65-3.52,8.81,8.81,0,0,1,1.21-1.93,24.84,24.84,0,0,1,18.8-8.66l15.1-.05M196,59.17a6.06,6.06,0,0,1,.84.32,16.34,16.34,0,0,1,1.77.9,3.11,3.11,0,0,1,.72.68,1.15,1.15,0,0,1,.2.53,1.77,1.77,0,0,1-.11.68l-.71,1.49a1.66,1.66,0,0,1-.46.53,1.22,1.22,0,0,1-.55.23,19.28,19.28,0,0,1-2.28,0c-.89,0-1.77,0-2.66-.08a2.63,2.63,0,0,1-1.85-.95,1.92,1.92,0,0,1-.25-.47,4.78,4.78,0,0,1-.2-.83,13.39,13.39,0,0,1-.06-1.55.92.92,0,0,1,.52-.69l.5-.07c.61-.14,1.2-.3,1.8-.49l.59-.28a3.51,3.51,0,0,1,1.61-.1,3.71,3.71,0,0,1,.58.11M156.4,378.47a18.66,18.66,0,0,0,22-2.51c.76-.64,1.51-1.29,2.24-2a4.78,4.78,0,0,0,1.32-3.56,9.63,9.63,0,0,0-1.53-4.83,27.66,27.66,0,0,0-3.85-5.89,8.74,8.74,0,0,1-1.88-3.79,2.36,2.36,0,0,1,1.39-2.74,6,6,0,0,1,2.55-.5,12.58,12.58,0,0,1,8.75,3.54,19.58,19.58,0,0,1,5.65,9.8,9,9,0,0,1-.44,4.23,32.4,32.4,0,0,0-1.18,4.45,9.79,9.79,0,0,1-3.51,5.14,33,33,0,0,1-36,3.55,48.71,48.71,0,0,1-4.44-2.8c-.8-.57-1.62-1.11-2.45-1.63a55.54,55.54,0,0,1-20.81-23.25,53,53,0,0,1-4.94-12.36,11.26,11.26,0,0,1,.36-6.06,2.09,2.09,0,0,1,.71-1.06,1.45,1.45,0,0,1,1.45-.1,3.73,3.73,0,0,1,2,2.22,72.75,72.75,0,0,0,32.64,40.11m-14-24.86a25.51,25.51,0,0,0,2.34,3.48,20,20,0,0,0,2.62,2.66,34.71,34.71,0,0,0,16.74,7.7c1.85.19,3.7.33,5.55.41a8.68,8.68,0,0,1,3.35.92,3.41,3.41,0,0,1,1.55,3.24,2.07,2.07,0,0,1-1,1.41,8.71,8.71,0,0,1-2,.9,6.55,6.55,0,0,0-1.52.76,2.15,2.15,0,0,1-1.3.35,10.65,10.65,0,0,1-2.5-.49l-.84-.18a29.24,29.24,0,0,1-16-7.49q-3.59-3.07-7-6.37a47.37,47.37,0,0,1-11.71-20.8,9.74,9.74,0,0,0-.73-1.65,3.59,3.59,0,0,1-.41-1.3,1.2,1.2,0,0,1,.25-.89,1.17,1.17,0,0,1,.79-.46,3.12,3.12,0,0,1,1.84.4,4.48,4.48,0,0,1,1.39,1.1q4,8.26,8.52,16.3m16.5-6.28a3.38,3.38,0,0,1,1.89.87,12.43,12.43,0,0,1,1.41,1.4l.47.47a2.48,2.48,0,0,1,.46,1.39,4.27,4.27,0,0,1-.14,1.63,2.16,2.16,0,0,1-2.84,1.34l-.6-.32c-.74-.5-1.47-1-2.19-1.54a2.09,2.09,0,0,1-.42-.42,3.22,3.22,0,0,1-.39-.64,8,8,0,0,1-.58-1.26,7.38,7.38,0,0,1-.2-2.25,1.13,1.13,0,0,1,.73-.73,9,9,0,0,1,1.64,0l.76.06M125.12,69.77a66.71,66.71,0,0,0-21.63,9.64,23.28,23.28,0,0,0-10.17,16A17.08,17.08,0,0,0,95.1,106.1a8.76,8.76,0,0,0,8.28,4.2,4.77,4.77,0,0,0,1.44-.47,5.1,5.1,0,0,1,2.28-.44,16.66,16.66,0,0,0,2.34-.1,3.11,3.11,0,0,0,1-.35,6,6,0,0,1,3.55-.53,6.79,6.79,0,0,1,1.87.49,1.94,1.94,0,0,1,1.14,1.51,5.42,5.42,0,0,1-.42,2.84,7.87,7.87,0,0,1-.56,1.17,14.45,14.45,0,0,1-9.86,7,20.42,20.42,0,0,1-4.41.36,18,18,0,0,1-4.07-.56,14.55,14.55,0,0,1-10.44-9.71,34.55,34.55,0,0,1-.43-19.84,18.91,18.91,0,0,1,1.1-2.91,27.51,27.51,0,0,1,1.89-3.4,43,43,0,0,1,16-14.85l2.06-1.59a70.46,70.46,0,0,1,31.48-8.19,50.33,50.33,0,0,1,7,.29,22.65,22.65,0,0,1,5.09,1.85,1,1,0,0,1,.62.9,2.53,2.53,0,0,1-.43,1.51,3,3,0,0,1-1.88,1.45,9.27,9.27,0,0,1-3,.39,94,94,0,0,0-21.71,2.64M111.8,87.85a17.45,17.45,0,0,0-2.64,3.51c-1.64,3.5-3.42,7-5.31,10.32a3.87,3.87,0,0,1-1.43,1.57,1.78,1.78,0,0,1-1.82-.09,3.73,3.73,0,0,1-1.39-1.79,7.34,7.34,0,0,1-.49-3.56,18.16,18.16,0,0,1,5.68-11.63,54.31,54.31,0,0,1,29.19-14,36.76,36.76,0,0,1,7.63-.28c1.2,0,2.39,0,3.58,0a8.89,8.89,0,0,1,2,.35,2,2,0,0,1,.93.52,1.3,1.3,0,0,1,.3,1,3.09,3.09,0,0,1-1,1.71,3.28,3.28,0,0,1-2.25.94,34.74,34.74,0,0,0-7.19.8,21.31,21.31,0,0,1-3,.28A30.42,30.42,0,0,0,111.8,87.85m16.26,5.79a2.48,2.48,0,0,1,.46,1.39,5.57,5.57,0,0,1-.2,1.58,2.36,2.36,0,0,1-.76,1.11l-.6.33c-.41.22-.82.43-1.24.63A6.09,6.09,0,0,1,125,99a4.11,4.11,0,0,1-.7.13,18.8,18.8,0,0,1-3.27,0,1.17,1.17,0,0,1-.75-.75,9.4,9.4,0,0,1,0-1.5,5.09,5.09,0,0,1,.18-.93,1.65,1.65,0,0,1,.21-.42,8.87,8.87,0,0,1,2.83-2.14,5.21,5.21,0,0,1,1.06-.52,4.55,4.55,0,0,1,1.64-.14,2.42,2.42,0,0,1,1.86.93m-52.46,216q1.73,3.45,3.75,6.74l3.48,6a10.59,10.59,0,0,0,2.45,3,10.14,10.14,0,0,1,1.46,1.47,17.76,17.76,0,0,0,11.42,6.44,16,16,0,0,0,8.06-1.17c1-.33,1.92-.7,2.86-1.11a7.12,7.12,0,0,0,3.75-7.11,31.18,31.18,0,0,0-1.44-6.81,26.26,26.26,0,0,1-.81-4.49,3.41,3.41,0,0,1,.86-2.68,3,3,0,0,1,2.32-.82,6.73,6.73,0,0,1,3.53,1.3,14.71,14.71,0,0,1,5.58,7.43c.48,1.63,1,3.24,1.56,4.85a7.45,7.45,0,0,1-.26,4.95c-.16.46-.33.92-.52,1.38a3.37,3.37,0,0,1-1.77,1.83,17.28,17.28,0,0,1-2.52.83,6.22,6.22,0,0,0-2.76,1.47,4.26,4.26,0,0,0-1,2.38c-.1.69-.2,1.39-.32,2.08a3.19,3.19,0,0,1-.42,1.11,1.64,1.64,0,0,1-.9.67,37.67,37.67,0,0,1-6.39,1.28,30.23,30.23,0,0,1-25-8.53,66.49,66.49,0,0,1-19.67-49.9,11.69,11.69,0,0,1,1.85-6.73c.16-.23.33-.45.5-.66a2.08,2.08,0,0,1,1.2-.74,2,2,0,0,1,1.39.23,3.43,3.43,0,0,1,1.83,3.23,68.18,68.18,0,0,0,5.95,32.13M80,291.29a46.21,46.21,0,0,0,9.82,22.18,6.24,6.24,0,0,0,1,1c1.09.8,2.22,1.55,3.38,2.25a69.72,69.72,0,0,0,7.8,4.09,12.39,12.39,0,0,1,3.19,2,3.33,3.33,0,0,1,.84,1.17,1.57,1.57,0,0,1-.25,1.57,3.66,3.66,0,0,1-1.06.94,6.85,6.85,0,0,1-6,1c-.56-.14-1.11-.29-1.65-.47a21.91,21.91,0,0,1-10.54-7.41,55.33,55.33,0,0,1-12.31-38.29,7.71,7.71,0,0,1,.51-2.6,2.34,2.34,0,0,1,.69-.95,1.2,1.2,0,0,1,1.38-.06A3.07,3.07,0,0,1,78.08,279a4.74,4.74,0,0,1,.41,1.34L80,291.29m18.6,5.9.47.48a11.76,11.76,0,0,1,1.81,1.92,2.65,2.65,0,0,1,.26.5c.19.49.36,1,.52,1.49a9,9,0,0,1,.32,1.71,2,2,0,0,1-.13.84l-.45,1.08a1.4,1.4,0,0,1-.44.55,1.09,1.09,0,0,1-.56.22,7.79,7.79,0,0,1-1.28-.07,4.68,4.68,0,0,1-.84-.2,1.77,1.77,0,0,1-.48-.23,7.82,7.82,0,0,1-2.6-4A7.64,7.64,0,0,1,95,300l0-.89a2.43,2.43,0,0,1,.94-1.86l.61-.32a2.42,2.42,0,0,1,2.09.31M70.54,139a23.92,23.92,0,0,0-3,3.08,19.18,19.18,0,0,0-2.11,3.29,43,43,0,0,0-4.33,14.23,15.78,15.78,0,0,0,.59,6.37,18.12,18.12,0,0,1,.06,8.66,1.58,1.58,0,0,1-1.16,1.25,2.86,2.86,0,0,1-1.86-.28,5.36,5.36,0,0,1-3.16-3.62,24.45,24.45,0,0,1-1.28-5.8,28.87,28.87,0,0,1,.87-7.35A49.06,49.06,0,0,1,77.41,127a15.07,15.07,0,0,0,1.86-1.4,7.16,7.16,0,0,1,3.38-1.24,2.52,2.52,0,0,1,.82,0,1,1,0,0,1,.64.47,1,1,0,0,1,.11.52,3.47,3.47,0,0,1-.56,1.68,7.65,7.65,0,0,1-1.54,1.9L70.54,139M46.91,208.12a14.93,14.93,0,0,0-.66,1.84c-.36,1.28-.69,2.58-1,3.89q-1.47,6.93-2.47,14a24.84,24.84,0,0,0,.48,11.9,13.74,13.74,0,0,1,.13,3.07,11.41,11.41,0,0,0,.08,1.94,29.47,29.47,0,0,0,5.56,13.1,16.06,16.06,0,0,0,7.18,5l4.13,1.68a5,5,0,0,0,4.24-.36,12.88,12.88,0,0,0,5.87-7.29,29.09,29.09,0,0,0,1.3-4.36c.31-1.32.61-2.65.89-4a1.65,1.65,0,0,1,.89-1.23,4.34,4.34,0,0,1,2.61-.35,5,5,0,0,1,3.54,2.17,9.7,9.7,0,0,1,1.63,3.2,19,19,0,0,1-2.08,15,9.3,9.3,0,0,1-3.72,3.56,3.64,3.64,0,0,1-3.74-.23,14.28,14.28,0,0,0-1.49-.93,1.92,1.92,0,0,0-1.2-.19,4.81,4.81,0,0,1-1.65-.05,9,9,0,0,0-1.94-.15,1.79,1.79,0,0,0-1,.35,21.71,21.71,0,0,1-3,2.27,3.51,3.51,0,0,1-3.57.14l-3.8-1.78a30.09,30.09,0,0,1-15.11-17.82,72.48,72.48,0,0,1-1.24-38.13,60.08,60.08,0,0,1,6.68-16.35,8.24,8.24,0,0,1,5.17-4.15,1.55,1.55,0,0,1,.88,0,1.26,1.26,0,0,1,.71.67,4.18,4.18,0,0,1,.29,2.13,5.54,5.54,0,0,1-.36,1.66l-4.34,9.77m25.45-83.66a70.7,70.7,0,0,0-16,19.08q-1.78,3.42-3.64,6.79c-.57,1.48-1.13,2.95-1.67,4.44-.37.7-.71,1.42-1,2.15-.47,1.52-.86,3.07-1.18,4.62a13.85,13.85,0,0,0-.54,2.2,14.91,14.91,0,0,0,.33,4.71,20.54,20.54,0,0,0,7.78,12.69,18.38,18.38,0,0,0,2.22,1.6,3.18,3.18,0,0,0,2,.39,10.61,10.61,0,0,0,4.27-1.64A15.84,15.84,0,0,0,70,177.44a27.76,27.76,0,0,1,3.2-3.57,7.08,7.08,0,0,1,2.61-1.42,2.38,2.38,0,0,1,2.28.55,5.62,5.62,0,0,1,1.87,5.07,20.55,20.55,0,0,1-.47,2.56,17.38,17.38,0,0,1-14,13.13,13.47,13.47,0,0,1-4.25,0,13.76,13.76,0,0,1-4.06-1.25A21.47,21.47,0,0,1,53,189.61a31.16,31.16,0,0,1-9.21-34.08l2.89-8.17a52.57,52.57,0,0,1,14.83-22.09,76.51,76.51,0,0,1,11.92-9.69,12.28,12.28,0,0,1,3.22-1.45,7,7,0,0,1,4.19.48,1.21,1.21,0,0,1,.7.72,1.46,1.46,0,0,1-.15,1.1,4.09,4.09,0,0,1-1.13,1.38l-7.93,6.65m7.42,28.71a11.13,11.13,0,0,1,0,2.58,3.25,3.25,0,0,1-.13.62,5.82,5.82,0,0,1-.3.79,10.35,10.35,0,0,1-.6,1.26,3.35,3.35,0,0,1-.83,1,9.83,9.83,0,0,1-1.12.68l-1,.55a1.29,1.29,0,0,1-.82.08,1.78,1.78,0,0,1-.78-.47,2.06,2.06,0,0,1-.6-1,4.79,4.79,0,0,1-.2-1,12.34,12.34,0,0,1,0-1.49,2.76,2.76,0,0,1,.47-1.41l.47-.46a11.83,11.83,0,0,1,1.93-1.81,1.93,1.93,0,0,1,.61-.3,7.67,7.67,0,0,1,1.34-.23c.3,0,.6,0,.9,0a.94.94,0,0,1,.65.53M69.12,230.31l.27.62a7.29,7.29,0,0,1,.14,1.68c0,.53,0,1.07,0,1.61a3.6,3.6,0,0,1-.47,1.53l-.41.47a9,9,0,0,1-.78.86,2.31,2.31,0,0,1-.71.45,1.23,1.23,0,0,1-.71,0,2.1,2.1,0,0,1-.71-.45,9,9,0,0,1-.78-.86l-.41-.47a3.28,3.28,0,0,1-.47-1.4c0-.43-.07-.86-.08-1.29s0-.92,0-1.38a2.89,2.89,0,0,1,.52-1.46l.89-.86a6.09,6.09,0,0,1,1-.72,2.15,2.15,0,0,1,.7-.24,1.66,1.66,0,0,1,.93.15,1.11,1.11,0,0,1,.57.58c.17.39.33.78.49,1.18m-15.7-11.84a34.13,34.13,0,0,0,7.59,33,8.93,8.93,0,0,1,2,3.27,5.83,5.83,0,0,1,.26,2.38,1.54,1.54,0,0,1-.29.73.91.91,0,0,1-.45.32,6.54,6.54,0,0,1-5.66-1.07,4.65,4.65,0,0,1-.73-.67,52.25,52.25,0,0,1-6.56-9.33,7.79,7.79,0,0,1-.66-1.61c-.42-1.45-.77-2.92-1.06-4.41a43.3,43.3,0,0,1-.74-11A74.86,74.86,0,0,1,50.3,212.4a52.26,52.26,0,0,1,5-10.24,1.61,1.61,0,0,1,.9-.72,1.1,1.1,0,0,1,1.08.32,2.78,2.78,0,0,1,.74,2,3.85,3.85,0,0,1-.18,1.16l-4.37,13.55"/><path class="cls-1" d="M152.69,203.5a18.49,18.49,0,0,0-14.92-5.07,7.29,7.29,0,0,0-6.47,6.29,20.25,20.25,0,0,0,2.56,13l2.39,4.18a76.69,76.69,0,0,0,5.28,6.12l5.25,4a9.83,9.83,0,0,0,3.78,1.75,11.15,11.15,0,0,1,1.27.43c.25.1.5.19.76.27a16.56,16.56,0,0,0,6.89.66l-2.17-6.41a34.79,34.79,0,0,1-1.33-4.9l-2.32-11.44-1-8.9"/><path class="cls-1" d="M163.77,197.93a38.51,38.51,0,0,1-8.29-5.35l1.23,15.16,1.06,6.7.26,1.63q1,4.5,2.47,8.88a75.3,75.3,0,0,0,8.56,16.85,49.64,49.64,0,0,0,15.6,14.69c.48.31,1,.61,1.46.9l.68.38q2.35,1.2,4.75,2.3a49.91,49.91,0,0,0,9.8,3.34l4.44.92a58.06,58.06,0,0,0,27.73-.53l6.51-2.28a79.65,79.65,0,0,0,10.49-5.94,10,10,0,0,0,1.48-1.2,9.72,9.72,0,0,1,.76-.66,63.1,63.1,0,0,0,16.84-20.49l3.18-7.39,1.91-6.17,1.62-7.37.89-8a19.51,19.51,0,0,0,.1-3.5,3,3,0,0,1,0-.89,2.72,2.72,0,0,0,0-.7.53.53,0,0,0-.24-.39.57.57,0,0,0-.44-.09,1.79,1.79,0,0,0-.51.22,4.48,4.48,0,0,1-.68.37,23.16,23.16,0,0,0-2.56,1,50.3,50.3,0,0,1-6.88,2.36l-11.77,3.07-10.54,2L233.37,209l-7.87.4c-.44,0-.87.06-1.31.12a13.87,13.87,0,0,1-2.41.14l-11.45-.3-10.69-1-7.7-1.31a100.15,100.15,0,0,1-28.17-9.13"/><path class="cls-1" d="M234.22,165.34l-23.36-.65L197,166l-7.35,1.19-8.19,1.86-7.21,2.27-6,2.57-7.11,4.45a7.92,7.92,0,0,0-3.17,9.56,35.56,35.56,0,0,0,3.14,6.22l7.19-3.34,7.83-2.76,7.36-1.91,10.31-1.92,13.41-1.35c1.35-.15,2.71-.25,4.06-.29h11.82c.41,0,.81,0,1.22,0a22.27,22.27,0,0,1,2.83,0l11.1.78,9.68,1.37,9.32,1.82,9.81,2.83,8.4,3.49a16.92,16.92,0,0,0,2.22-5.73,8.39,8.39,0,0,0-2.9-8,50.36,50.36,0,0,0-18.14-9.39l-8.31-2.18-14.14-2.21"/><path class="cls-1" d="M222.64,0H202L175.28,3.72,161.06,7.33A204.83,204.83,0,0,0,112.9,26.11,260.94,260.94,0,0,0,88.4,41.24L67.68,58.36l-19.5,21a286.66,286.66,0,0,0-28.11,44.83l-9.23,23L4.6,170.86l-4,30.81A69.12,69.12,0,0,0,.3,217L2,239.48l3,18.76L9.18,274a144,144,0,0,0,8.76,24.07,168.47,168.47,0,0,0,20.22,36.27L46.69,346A153.19,153.19,0,0,0,75,375.35L87.22,385a183.15,183.15,0,0,0,23.65,15.28,214.39,214.39,0,0,0,221.07-6.15A205.12,205.12,0,0,0,388.45,342a177.17,177.17,0,0,0,24.09-40.13,155.8,155.8,0,0,0,12.8-37.41c.34-.91.67-1.83,1-2.75l3.53-19.67L432,219.5l-.93-25-3.7-24.25L423.24,155a160.87,160.87,0,0,0-8.15-23.24A168,168,0,0,0,394,93.32l-8.33-11.26A168.15,168.15,0,0,0,364.35,58.6,232.64,232.64,0,0,0,309.25,21l-9.45-4.45L272.43,7.21,244.34,1.62,229.19.84a16.29,16.29,0,0,1-2.86-.41A15.83,15.83,0,0,0,222.64,0m1.87,4.68a16.87,16.87,0,0,1,3.81.44,15.88,15.88,0,0,0,2.74.4l13.71.88,23.45,4.66,2.1.47A264,264,0,0,1,322,33.11l5.18,3a208.58,208.58,0,0,1,97,152.89,183.62,183.62,0,0,1-.33,46.61l-1.69,13.72-4.56,19.9-2.22,6.64a244.71,244.71,0,0,1-11.67,28.18A200.59,200.59,0,0,1,372.62,350L363,360.59l-12.65,10.63a201.7,201.7,0,0,1-44.88,28.67l-7.17,3.42-23.81,8.34A90.11,90.11,0,0,1,258,415.72l-17,2.67-23,1.76a8.22,8.22,0,0,1-1.11,0c-2.45-.12-4.89-.26-7.34-.43l-19.69-1.34L166,414.05l-26.81-8.42-22.61-10.5A206,206,0,0,1,8,234.22a292.85,292.85,0,0,1-1.41-30.77l.35-8.71,3.91-24.64,5.8-21.89,7.69-19.57a210,210,0,0,1,200.19-124"/></g></g></svg>