<svg id="Layer_1" data-name="Layer 1" xmlns="http://www.w3.org/2000/svg" viewBox="0 0 100 100"><title>Artboard 1 copy 9</title><path d="M27.54,52.25a6.06,6.06,0,0,0,0,12.09,6.06,6.06,0,0,0,0-12.09Zm0,9.07a3,3,0,1,1,2.81-3A2.87,2.87,0,0,1,27.54,61.32Z"/><path d="M57.12,61.32H40.22a1.51,1.51,0,0,0,0,3h16.9a1.51,1.51,0,0,0,0-3Z"/><path d="M59.94,55.27H37.4a1.52,1.52,0,0,0,0,3H59.94a1.52,1.52,0,0,0,0-3Z"/><path d="M81.07,43.18a5.86,5.86,0,0,0-5.63-6H72.62c-2.82-9.08-5.64-9.08-8.45-9.08h-31c-2.82,0-5.63,0-8.45,9.08H21.9a5.86,5.86,0,0,0-5.63,6,6,6,0,0,0,2.91,5.24,9.42,9.42,0,0,0-2.91,6.85v9.07c0,1.82,1,3.23,2.81,4.34v7.76a2.89,2.89,0,0,0,2.82,3h5.64a2.88,2.88,0,0,0,2.81-3V72.21a126.65,126.65,0,0,0,18.32,1.21A126.47,126.47,0,0,0,67,72.21v4.23a2.88,2.88,0,0,0,2.82,3h5.64a2.88,2.88,0,0,0,2.81-3V68.68c1.79-1.11,2.82-2.52,2.82-4.34V55.27a9.46,9.46,0,0,0-2.91-6.85A6,6,0,0,0,81.07,43.18ZM27.35,38c.56-1.81,1.78-5.24,3.29-6.45a3.77,3.77,0,0,1,2.53-.5h31a3.77,3.77,0,0,1,2.53.5C68.2,32.79,69.43,36.22,70,38l2.53,8.17H24.91Zm-8.27,5.15a2.88,2.88,0,0,1,2.82-3h1.88L21.9,46.2A2.88,2.88,0,0,1,19.08,43.18Zm8.46,33.26H21.9V70.09a37.44,37.44,0,0,0,5.64,1.61Zm47.9,0H69.8V71.7a28.54,28.54,0,0,0,5.64-1.61Zm2.81-21.17v9.38c-.37,1.21-2.91,2.32-3.85,2.72a40.06,40.06,0,0,1-9.67,2.22,143.94,143.94,0,0,1-16.06.8,123.53,123.53,0,0,1-16.06-.9,40.25,40.25,0,0,1-9.68-2.22c-.93-.41-3.47-1.51-3.85-2.72V55.17a5.87,5.87,0,0,1,5.64-6.05h47.9A6,6,0,0,1,78.25,55.27ZM75.44,46.2l-1.88-6.05h1.88a3,3,0,0,1,0,6.05Z"/><path d="M69.8,52.25a6.06,6.06,0,1,0,5.64,6A5.86,5.86,0,0,0,69.8,52.25Zm0,9.07a3,3,0,1,1,2.82-3A2.87,2.87,0,0,1,69.8,61.32Z"/></svg>