<svg id="Layer_1" data-name="Layer 1" xmlns="http://www.w3.org/2000/svg" viewBox="0 0 100 100"><title>Artboard 1 copy 4</title><path d="M35.71,58.09a1.13,1.13,0,1,0,2.26,0V55.66a1.13,1.13,0,0,0-2.26,0Z"/><path d="M35.71,49.33a1.13,1.13,0,0,0,2.26,0V46.9a1.13,1.13,0,0,0-2.26,0Z"/><path d="M35.71,40.57a1.13,1.13,0,1,0,2.26,0V38.14a1.13,1.13,0,1,0-2.26,0Z"/><path d="M36.84,32.94A1.14,1.14,0,0,0,38,31.81V29.38a1.13,1.13,0,1,0-2.26,0v2.43A1.13,1.13,0,0,0,36.84,32.94Z"/><path d="M81.55,20.84H19a3.54,3.54,0,0,0-3.56,3.56V35a2.91,2.91,0,0,0,1.35,2.49,7.26,7.26,0,0,1,0,12.43,2.91,2.91,0,0,0-1.35,2.49V63.07A3.54,3.54,0,0,0,19,66.63h14.3L35.88,63H19.09V52.78a10.85,10.85,0,0,0,0-18.09V24.46H81.55V63H53.29l-2.55,3.62H81.61a3.54,3.54,0,0,0,3.56-3.56V24.4A3.63,3.63,0,0,0,81.55,20.84Z"/><path d="M59.9,31.24V34.3a7.06,7.06,0,0,0-2.15.73,5.36,5.36,0,0,0-1.47,1.19,4.33,4.33,0,0,0-.85,1.58,6.78,6.78,0,0,0-.28,1.81,4.77,4.77,0,0,0,.45,2.09,1.56,1.56,0,0,0,.17.28,5.34,5.34,0,0,0,1,1.19l.06.06a7.13,7.13,0,0,0,1.52,1c.63.28,1.19.51,1.81.73s1.19.46,1.7.62a4.94,4.94,0,0,1,1.24.63,2.75,2.75,0,0,1,.74.68,1.51,1.51,0,0,1,.22.9,1.52,1.52,0,0,1-.62,1.3,4.45,4.45,0,0,1-2.37.45,8.83,8.83,0,0,1-1.81-.17,11.78,11.78,0,0,1-.17,3.45,3,3,0,0,0,.73.06v3.39h3.57V52.78a8,8,0,0,0,2.31-.73,5.52,5.52,0,0,0,1.53-1.19,4,4,0,0,0,.85-1.53,5.77,5.77,0,0,0,.22-1.69,5.05,5.05,0,0,0-.45-2.15,4.84,4.84,0,0,0-1.19-1.64,10.93,10.93,0,0,0-1.8-1.24c-.74-.34-1.47-.68-2.32-1a13.13,13.13,0,0,1-1.42-.51,5.21,5.21,0,0,1-1-.51,1.33,1.33,0,0,1-.56-.57,1.54,1.54,0,0,1-.17-.79A1.37,1.37,0,0,1,60.07,38a3.45,3.45,0,0,1,2-.46,13.11,13.11,0,0,1,2.6.29,9.22,9.22,0,0,1,2.15.68l.9-3.4A9.72,9.72,0,0,0,66,34.58a20.64,20.64,0,0,0-2.55-.45V31.19H59.9Z"/><path d="M52,70.7a9.42,9.42,0,0,0-5.71,1.92l-1.47-2.09L55.15,56.06a9.62,9.62,0,0,0-1.07-12.38,1,1,0,0,0-1.42.11L32.2,72.62a9.48,9.48,0,1,0,2.15,12.61c.17-.17-.06.17,4.92-6.73,4.92,6.9,4.63,6.62,4.86,6.73A9.45,9.45,0,1,0,52,70.7ZM26.38,85.29a5.15,5.15,0,1,1,5.14-5.15A5.17,5.17,0,0,1,26.38,85.29Zm25.66,0a5.15,5.15,0,1,1,5.15-5.15A5.17,5.17,0,0,1,52,85.29Z"/></svg>