<?xml version="1.0" encoding="utf-8"?>
<!-- Generator: Adobe Illustrator 16.0.0, SVG Export Plug-In . SVG Version: 6.00 Build 0)  -->
<svg version="1.1" id="Layer_1" xmlns="http://www.w3.org/2000/svg" xmlns:xlink="http://www.w3.org/1999/xlink" x="0px" y="0px"
	 width="512px" height="512px" viewBox="0 0 512 512" enable-background="new 0 0 512 512" xml:space="preserve">
   <path stroke="null" id="Shape" d="m261.180299,54.977385c4.919907,0 8.904499,-3.984592 8.904499,-8.912103c0,-4.927511 -3.976988,-8.904499 -8.904499,-8.904499l-39.298421,0c-4.919907,0 -8.912103,3.976988 -8.912103,8.904499c0,4.927511 3.984592,8.912103 8.912103,8.912103l39.298421,0z"/>
   <path stroke="null" id="Shape" d="m446.387797,269.301302c-8.699186,-7.786684 -19.976191,-12.752216 -32.097259,-15.900348l-33.085803,-42.629054l0,-174.074973c0,-18.166395 -14.782533,-32.948928 -32.964136,-32.948928l-213.434227,0c-18.173999,0 -32.948928,14.782533 -32.948928,32.948928l0,62.240243c-3.695633,-0.015208 -7.406475,0.311772 -11.079296,1.368753c-10.136377,2.897194 -18.607437,9.581271 -23.839116,18.805146c-5.239283,9.231479 -6.653661,19.915357 -3.96178,30.104963c2.714694,10.296065 9.277104,18.850771 18.455354,24.044429l20.417233,11.611588l0,7.132724l-5.672721,-0.570314c-9.900647,-2.266047 -20.113066,-0.646356 -28.903502,4.661365c-9.026166,5.436991 -15.474514,14.090552 -18.135978,24.363804c-5.520637,21.314527 7.079495,43.077701 28.08225,48.522296c0.403022,0.114063 0.806043,0.190105 1.216669,0.250938l23.413282,3.802092l0,1.984692l-16.288161,2.501776c-21.413381,3.589175 -35.884143,24.158492 -32.256947,45.868436c3.269799,19.535148 20.105462,33.435596 38.872587,33.435596c2.075942,0 4.182301,-0.167292 6.303868,-0.517084l3.368653,-0.494272l0,62.856182c0,18.173999 14.782533,32.956532 32.948928,32.956532l7.071891,0c3.657612,10.25044 6.083347,19.010459 8.235331,26.873185c2.220422,8.174497 4.319176,15.892744 7.398871,23.603386c2.083546,5.231678 7.109912,8.417831 12.417632,8.417831c1.650108,0 3.323028,-0.311772 4.942719,-0.950523c6.858974,-2.729902 10.19721,-10.516586 7.467308,-17.367956c-2.509381,-6.28866 -4.334385,-12.980342 -6.440744,-20.721401c-1.634899,-6.014909 -3.467508,-12.569716 -5.801992,-19.854524l118.473182,0c7.383662,0 13.360551,-5.984493 13.360551,-13.360551c0,-7.383662 -5.976888,-13.368155 -13.360551,-13.368155l-153.756594,0c-3.437091,0 -6.220222,-2.790735 -6.220222,-6.227826l0,-381.958146c0,-3.421883 2.790735,-6.212618 6.220222,-6.212618l213.434227,0c3.437091,0 6.235431,2.790735 6.235431,6.212618l0,212.392454c-5.102407,0.296563 -9.680126,0.699585 -13.679926,1.102607l0,-180.675404c0,-4.919907 -3.992196,-8.912103 -8.912103,-8.912103l-180.705821,0c-4.919907,0 -8.912103,3.984592 -8.912103,8.912103l0,300.981194c0,4.927511 3.984592,8.912103 8.912103,8.912103l146.334911,0c-2.23563,4.851469 -3.916155,9.984293 -4.722198,15.421284c-1.087398,7.300016 3.96178,14.098157 11.254192,15.170346c7.345641,1.209065 14.105761,-3.954176 15.185555,-11.254192c1.893442,-12.767424 14.288261,-25.443599 24.249742,-35.625601c8.303769,-8.486269 14.866179,-15.200763 16.713996,-23.071093c1.786983,-7.665017 0.212917,-14.99545 -4.440843,-20.668171c-8.813249,-10.767524 -25.496828,-11.550755 -32.439448,-11.786485c-3.847717,-0.790835 -7.201162,-2.897194 -9.512834,-6.014909c-2.364901,-3.193757 -3.330632,-7.079495 -2.74511,-10.957629c0.56271,-3.710842 1.619691,-10.630649 21.185256,-12.660966l3.117715,-0.349792c28.622147,-3.201361 51.297823,-2.988444 68.042236,0.501876c0.159688,0.045625 0.32698,0.060833 0.486668,0.09125c10.714295,2.288859 19.002855,5.923659 24.652763,10.988045c5.862826,5.239283 8.577519,11.900547 8.562311,20.95713c-0.121667,63.2516 -32.363406,134.381134 -80.216534,176.987375c-5.513033,4.912303 -6.007305,13.352947 -1.102607,18.858376c2.646256,2.973236 6.311472,4.486468 9.984293,4.486468c3.16334,0 6.334285,-1.110211 8.889291,-3.383862c53.198869,-47.36646 89.029782,-126.495595 89.174262,-196.902732c0.053229,-16.493474 -5.976888,-30.64486 -17.443997,-40.910508zm-351.746724,-119.286829c-2.881986,-1.642504 -4.950324,-4.341989 -5.817201,-7.626996c-0.897294,-3.391466 -0.41823,-6.965432 1.361149,-10.090752c1.764171,-3.102507 4.585323,-5.338137 7.946372,-6.303868c1.239482,-0.357397 2.478964,-0.342188 3.718446,-0.319376l0,28.439647l-7.208766,-4.098655zm-11.200963,92.945937c-6.440744,-1.954275 -10.204814,-8.934916 -8.417831,-15.809098c0.897294,-3.452299 3.041673,-6.357098 6.037722,-8.159289c2.912402,-1.756566 6.296264,-2.281255 9.497625,-1.421982c0.661564,0.159688 1.338336,0.288959 2.022713,0.357397l9.277104,0.935315l0,27.086102l-18.417333,-2.988444zm10.889191,86.938632c-6.843765,1.186253 -13.451801,-3.748863 -14.653262,-10.927212c-1.201461,-7.170745 3.429487,-13.946073 10.136377,-15.063888l12.045027,-1.855421l0,26.73631l-7.528142,1.110211zm190.309905,-43.275409c-1.665316,10.965233 1.07219,21.945674 7.703038,30.895798c6.760119,9.117416 16.7216,15.048679 28.051834,16.706392c0.752814,0.114063 1.589274,0.1825 2.32688,0.129271c3.330632,0.007604 7.330433,0.425834 10.01471,1.171044c-2.106359,2.532193 -5.596679,6.098555 -8.356998,8.919707c-4.859073,4.957928 -10.410127,10.706691 -15.550556,17.162643l-148.745437,0l0,-283.187404l162.896823,0l0,173.892472c-27.89975,4.942719 -36.33279,21.116818 -38.340294,34.310077z"/>
   <path stroke="null" id="Shape" d="m181.184287,172.013376l53.845225,0l0,-53.845225l-53.845225,0l0,53.845225zm9.832209,-44.013015l34.18841,0l0,34.180806l-34.18841,0l0,-34.180806z"/>
   <rect stroke="null" height="15.945973" width="15.945973" y="137.117777" x="200.133913" id="Rectangle-path"/>
   <path stroke="null" id="Shape" d="m248.025061,118.168152l0,53.845225l53.845225,0l0,-53.845225l-53.845225,0l0,0zm44.013015,44.013015l-34.180806,0l0,-34.180806l34.180806,0l0,34.180806z"/>
   <rect stroke="null" height="15.945973" width="15.945973" y="137.117777" x="266.974687" id="Rectangle-path"/>
   <path stroke="null" id="Shape" d="m181.184287,236.01779l53.845225,0l0,-53.845225l-53.845225,0l0,53.845225zm9.832209,-44.005411l34.18841,0l0,34.18841l-34.18841,0l0,-34.18841z"/>
   <rect stroke="null" height="15.945973" width="15.945973" y="201.129795" x="200.133913" id="Rectangle-path"/>
   <rect stroke="null" height="15.945973" width="15.945973" y="201.129795" x="251.028714" id="Rectangle-path"/>
   <rect stroke="null" height="15.945973" width="15.945973" y="185.183822" x="266.974687" id="Rectangle-path"/>
</svg>
