<?xml version="1.0" encoding="utf-8"?>
<!-- Generator: Adobe Illustrator 23.0.0, SVG Export Plug-In . SVG Version: 6.00 Build 0)  -->
<svg version="1.1" id="图层_1" xmlns="http://www.w3.org/2000/svg" xmlns:xlink="http://www.w3.org/1999/xlink" x="0px" y="0px"
	 width="199.2px" height="106.4px" viewBox="0 0 199.2 106.4" style="enable-background:new 0 0 199.2 106.4;" xml:space="preserve"
	>
<style type="text/css">
	.st0{fill:#E5F2E2;}
</style>
<title>资源 3</title>
<g>
	<g id="图层_1-2">
		<path class="st0" d="M87.4,70.5c-4.2,1.3-11.8,1.3-15.9,3.5c7-1.4,18.8-0.7,27.3-1c6.2-0.3,12.5-0.2,18.7,0.3
			c-3-1.3-6.2-2.3-9.4-2.7c-3.5-0.6-4.3-1.9-4.7-4.7v-0.1c-0.1-1.8,0.2-3.7,1-5.3c0.5-1.1,0.9-2.1,1.3-3.2c0.2-0.7,0.6-1.3,1.1-1.8
			c0.6-0.6,1.1-1.3,1.4-2.1c0.3-0.8,0.7-1.6,1.2-2.3c0.5-0.5,1.2-0.9,1.9-1.2c1.1-0.3,2.2-0.5,3.3-0.8c1-0.2,1.9-0.6,2.6-1.2
			c0.3-0.3,0.6-0.6,1-0.8c1.6-0.9,3.4-1.5,5.3-1.7c1.3-0.3,2.7-0.4,4-0.4c1.4,0,2.8,0.6,3.6,1.8c0.5,0.8,1.5,1.1,2.3,0.6
			c0.1-0.1,0.2-0.1,0.3-0.2c0.6-0.4,1.4-0.6,2.1-0.5c0.3,0.1,0.5,0.1,0.8,0.1c1,0.1,2,0.1,2.9-0.1c0.5-0.1,1-0.2,1.5-0.2
			c1.1,0,1.4,0.5,0.8,1.4c-0.3,0.3-0.2,0.8,0.1,1.1c0.1,0.1,0.3,0.2,0.4,0.2h0.4c0.5,0,1.1-0.1,1.6-0.3c0.9-0.3,1.9,0,2.5,0.7
			l0.2,0.2c0.6,0.6,1.4,1,2.2,1.1c0.5,0.1,0.9,0.2,1.4,0.2c0.7-0.1,1.5-0.1,2.2,0c0.5,0.1,0.9,0,1.4-0.1c0.3-0.1,0.5-0.3,0.6-0.6
			c0.1-0.3,0-0.5-0.3-0.7c-0.2-0.2-0.4-0.3-0.6-0.4c-0.8-0.3-1.5-0.8-2.3-1.1c-0.4-0.2-0.8-0.3-1.2-0.2c-0.3,0-0.7,0-1,0
			s-0.6,0-0.7-0.4s0.2-0.6,0.4-0.7c0.5-0.2,0.9-0.6,1.2-1c0.2-0.2,0.6-0.3,0.9-0.3c1.3,0.2,2.5,0.9,3.2,2c0.4,0.6,1,1,1.7,1.3
			c0.6,0.2,1.1,0.6,1.3,1.2c0.2,0.4,0.7,0.7,1.1,0.5c0.9-0.1,1.7-0.1,2.6-0.1c0.6,0,1.1-0.1,1.6-0.4c0.6-0.3,0.7-0.8,0.2-1.4
			c-0.3-0.4-0.7-0.7-1.1-0.9c-0.9-0.5-1.5-1.3-1.9-2.3c-0.1-0.2-0.2-0.4-0.3-0.5c-0.5-0.6-1.1-1.1-1.7-1.5c-0.3-0.2-0.7-0.3-1.1-0.2
			c-1.3,0.3-2.7,0.4-4,0.2c-0.4,0-0.9,0-1.3,0c-1.2-0.2-2.4-0.7-3.4-1.5c-0.7-0.5-1.5-0.8-2.4-0.9c-0.3,0-0.6-0.1-0.9-0.1
			c-1.1-0.4-2.4-0.3-3.4,0.3c-0.4,0.2-0.8,0.2-1.3,0.1c-1-0.4-2.1-0.6-3.2-0.6c-0.3,0-0.5-0.1-0.7-0.3c-0.4-0.4-0.3-0.8,0.2-1
			c0.7-0.3,1.5-0.4,2.3-0.2c0.4,0.1,0.8,0.1,1.2-0.1c1-0.4,2.1-0.5,3.2-0.3c0.3,0,0.7,0,1-0.1c0.3-0.1,0.7-0.1,0.9,0.1
			c0.2,0.1,0.4,0.2,0.6,0.2c1,0.2,2,0.2,3,0c0.7-0.1,1.5,0,2.2,0.3c0.3,0.1,0.7,0.2,0.7,0.6s-0.3,0.6-0.6,0.7s-0.6,0.3-0.9,0.4
			s-0.4,0.5,0,0.7c1,0.5,2.2,0.5,3.2,0c0.3-0.2,0.6-0.4,1-0.4c0.8-0.2,1.7-0.1,2.5,0.2c1,0.3,2,0.8,2.9,1.4c0.7,0.3,1.2,1,1.3,1.8
			c0.1,0.4,0.3,0.8,0.7,0.9c0.3,0.1,0.5,0.3,0.7,0.5c0.2,0.2,0.4,0.4,0.7,0.5c0.6,0.2,1.1,0.6,1.5,1c0.7,0.7,1.7,0.9,2.7,0.7
			c0.4,0,0.8-0.1,1.1-0.3c0.7-0.7,1.3-1.5,1.8-2.4c0.1-0.2,0.1-0.4-0.1-0.5c-0.1,0-0.1-0.1-0.2-0.1c-0.2-0.1-0.5-0.1-0.7-0.1
			c-1,0.1-2-0.3-3-0.3c-0.3,0-0.5-0.2-0.5-0.4c0-0.3,0.2-0.3,0.4-0.4c0.2-0.1,0.5-0.2,0.8-0.2c0.3,0,0.7-0.1,1-0.2
			c0.9-0.2,1.9-0.3,2.8-0.2c0.6,0.1,1.3,0.1,1.9,0c0.5-0.1,0.6-0.4,0.3-0.8c-0.3-0.3-0.6-0.6-1-0.8c-1.2-0.6-2.6-0.7-3.9-0.5
			c-1,0.2-2.1,0.1-3-0.5c-0.7-0.5-1.6-0.5-2.4-0.2c-1.1,0.6-2.4,0.4-3.2-0.5c-0.3-0.2-0.3-0.3,0-0.5c0.5-0.3,1.1-0.3,1.7-0.2
			c1,0.1,2,0.2,2.9,0.4c1.1,0.2,2.2,0.2,3.3,0.5c0.4,0.1,0.8,0,1.1-0.2c0.3-0.2,0.5-0.3,0.5-0.7c0-0.3-0.3-0.6-0.6-0.6
			c-0.3-0.1-0.6-0.4-0.7-0.7c-0.1-0.4-0.4-0.7-0.7-1c-0.3-0.3-0.7-0.3-1-0.2c-0.5,0.3-1.1,0.2-1.5-0.2c-0.3-0.3-0.8-0.4-1.3-0.3
			c-0.5,0.1-1,0.1-1.5-0.1c-0.4-0.2-0.9-0.2-1.3-0.1c-0.7,0.1-1.3,0.1-2-0.1c-0.6-0.2-1.2-0.2-1.8,0c-0.9,0.2-1.8,0.5-2.7,0.8
			c-0.7,0.2-1.5,0.2-2.2,0c-1-0.2-2-0.4-3-0.4c-0.9,0-1.8-0.2-2.7-0.2c-1.6,0.1-3.1,0.3-4.6,0.7c-0.2,0.1-0.5,0.1-0.7,0
			c-0.3,0-0.4-0.3-0.2-0.5c0.2-0.2,0.4-0.3,0.6-0.4c0.5-0.1,0.9-0.3,1.3-0.6c1.1-0.8,2.5-0.9,3.7-0.4c0.7,0.3,1.4,0.5,2.2,0.3
			c1-0.1,2.1-0.2,3.1-0.1c0.6,0,1.3-0.2,1.8-0.6c0.2-0.1,0.3-0.2,0.2-0.4c0-0.2-0.2-0.3-0.4-0.3c-0.9-0.2-1.8-0.2-2.8,0
			c-0.6,0.1-1.2-0.1-1.7-0.5c-0.4-0.3-0.4-0.6,0.1-0.9c0.4-0.2,0.8-0.4,1.3-0.5c0.8-0.3,1.7-0.3,2.4,0.2c0.2,0.1,0.4,0.2,0.7,0.3
			c1.4,0.8,3.1,1.2,4.8,0.9c0.4-0.1,0.9,0,1.3,0.2c0.3,0.2,0.6,0.4,0.8,0.6c0.5,0.4,1.2,0.6,1.8,0.4c0.7-0.2,1.5-0.1,2.2,0.3
			c0.6,0.3,1.3,0.4,2,0.2c0.5-0.2,1.1-0.3,1.6-0.3c0.9-0.1,1.3,0.4,1,1.3v0.1c-0.3,0.8,0,1.2,0.7,1.4c1.3,0.4,2.8,0.3,4.1-0.3
			c0.1,0,0.2-0.1,0.3-0.2c0.2-0.1,0.2-0.4,0.1-0.6c-0.1-0.1-0.1-0.1-0.2-0.2c-0.2-0.1-0.3-0.1-0.5-0.1c-0.4,0-0.6-0.2-0.6-0.6
			c0-0.7,0.2-1,0.6-1s0.8,0,1.2,0c1,0,1.1-0.1,1.1-1.2c0-1.3-0.9-2.4-2.1-2.6c-0.5-0.1-1,0-1.5,0.3c-1.1,0.5-2.3,0.7-3.6,0.9
			c-1.2,0.2-2.5,0.1-3.7-0.3c-0.9-0.4-2-0.6-3-0.6c-0.2,0-0.3-0.1-0.4-0.2c0,0,0,0,0,0c0-0.2,0.2-0.2,0.3-0.3
			c0.6-0.1,1.1-0.2,1.7-0.2c1.1-0.2,2.3-0.1,3.3,0.2c0.9,0.3,1.8,0.2,2.6-0.3c0.4-0.2,0.7-0.6,0.7-1.1c-0.1-0.5-0.4-0.7-0.9-0.8
			c-0.9-0.3-1.9-0.4-2.9-0.4c-0.4,0.1-0.8-0.2-0.9-0.7c0-0.1,0-0.2,0-0.3c0.1-0.5,0-0.7-0.5-0.9c-0.4-0.1-0.9-0.1-1.3,0
			c-1,0.2-2.1,0.2-3.1-0.2c-0.8-0.4-1.6-0.5-2.5-0.5c-0.7,0-1.4-0.1-2-0.4c-0.1-0.1-0.3-0.1-0.3-0.4s0.2-0.2,0.4-0.3
			c0.8-0.1,1.7-0.1,2.5,0c1.3,0.2,2.5,0.7,3.8,0.8c0.2,0,0.4,0,0.6-0.1s0-0.4-0.1-0.6c-0.5-1.1-1.4-2.1-2.4-2.7
			c-0.8-0.6-1.9-0.6-2.8,0c-0.8,0.6-1.9,0.9-2.9,0.8c-0.8-0.1-1.5,0.2-2.1,0.7c-0.8,0.6-2,0.5-2.8-0.1c-0.4-0.3-0.5-0.8-0.3-1.3
			c0.1-0.4,0.5-0.8,1-0.8c0.3,0,0.6,0,0.9,0.1c1.1,0.2,2.2,0.2,3.3-0.1c0.6-0.2,0.9-0.8,0.8-1.4c-0.1-0.8-0.7-1.4-1.4-1.6
			c-0.6-0.2-1.2-0.3-1.8-0.3c-1.2-0.1-2.4-0.4-3.5-1c-0.1-0.1-0.3-0.1-0.5-0.2c-0.7-0.4-1.5-0.2-2.1,0.4c-0.3,0.3-0.8,0.6-1.2,0.7
			c-0.5,0.2-1,0.5-1.4,0.9c-0.1,0.2-0.3,0.4-0.2,0.7s0.4,0.2,0.6,0.2c0.5,0,1,0,1.6,0c0.6,0,1.2,0.2,1.8,0.4
			c0.3,0.1,0.4,0.3,0.3,0.6c0,0,0,0.1-0.1,0.1c-0.3,0.7-0.9,1.2-1.7,1.4c-0.3,0.1-0.5-0.1-0.6-0.3c0,0,0-0.1,0-0.1
			c-0.1-0.6-0.3-0.8-0.9-0.9c-0.4,0-0.9,0-1.3,0.1c-1.1,0.3-2.1,0.7-3.1,1.2c-0.6,0.2-1,0.6-1.4,1.1c-0.3,0.4-0.3,1.1,0.2,1.4
			c0.1,0.1,0.2,0.1,0.3,0.2c0.2,0.1,0.3,0.1,0.5,0.1c0.7,0,1.3,0.2,2,0.3c1.2,0.5,2.6,0.5,3.8,0c0.3-0.1,0.7-0.1,1,0
			c0.2,0,0.3,0.2,0.3,0.4c0,0.1-0.1,0.2-0.2,0.2c-0.2,0.1-0.4,0.2-0.6,0.2c-0.4,0.1-0.7,0.2-1.1,0.3c-0.3,0.2-0.4,0.4-0.2,0.7
			c0.3,0.6,0.9,1,1.6,1c0.7,0,1.3-0.1,1.9-0.3c0.5-0.2,1.1-0.2,1.6-0.1c0.4,0.1,0.9,0.1,1.3,0c0.8-0.3,1.8,0,2.3,0.7
			c0.2,0.2,0.5,0.4,0.8,0.5c0.4,0.1,0.7,0.3,1.1,0.5c0.1,0.1,0.2,0.2,0.2,0.4c0,0.2-0.2,0.2-0.3,0.3c-0.6,0.1-1.2,0.1-1.7,0
			c-0.4-0.1-0.9-0.1-1.3-0.1c-0.5,0.1-1.1,0-1.6-0.1c-1-0.3-2-0.5-3.1-0.4c-0.4,0-0.7-0.1-1-0.3c-0.5-0.3-1-0.5-1.6-0.5
			c-0.5,0-0.9,0-1.4,0.1c-0.7,0.1-1.3,0.1-2,0c-0.1,0-0.2,0-0.3-0.2s0.1-0.2,0.2-0.3c0.2-0.1,0.4-0.3,0.6-0.5c0.3-0.3,0.4-0.9,0-1.2
			c0,0-0.1-0.1-0.1-0.1c-0.4-0.3-0.8-0.5-1.3-0.6c-0.9-0.5-2.1-0.2-2.6,0.7c0,0,0,0.1,0,0.1c-0.3,0.4-0.7,0.6-1.1,0.7
			c-1.5,0.3-3,0.4-4.5,0.1c-0.7-0.1-1.4,0-2.1,0.2c-0.5,0.1-0.6,0.4-0.3,0.8l0.1,0.1c0.2,0.1,0.2,0.4,0,0.5c0,0-0.1,0.1-0.1,0.1
			c-0.2,0.1-0.4,0.2-0.6,0.2l-1.3,0.1c-0.5,0-1,0.1-1.4,0.4c-0.3,0.1-0.4,0.5-0.3,0.8c0,0.1,0.1,0.2,0.2,0.2c0.3,0.3,0.6,0.5,1,0.5
			c0.6,0.1,1.1,0,1.7,0c0.5,0,1,0.2,1.3,0.6c0.1,0.1,0.2,0.3,0.1,0.4c-0.1,0.2-0.2,0.2-0.4,0.2c-0.3,0-0.7-0.1-1-0.2
			c-0.5-0.2-1.2-0.3-1.8-0.2c-0.9,0.3-1.8,0.3-2.7,0c-0.5-0.1-1,0-1.4,0.3c-0.4,0.3-0.8,0.5-1.3,0.7c-0.2,0.1-0.3,0.1-0.4-0.1
			c-0.1-0.2-0.1-0.4,0.1-0.5c0.2-0.2,0.4-0.4,0.6-0.5c0.2-0.1,0.3-0.2,0.4-0.4c0.3-0.4,0.2-0.6-0.2-0.7c-0.2,0-0.3,0-0.5-0.1
			s-0.5-0.1-0.6-0.5c0-0.3,0.1-0.6,0.4-0.7c0.6-0.4,1.4-0.6,2.1-0.3c0.4,0.1,0.9,0.1,1.3-0.2c0.2-0.1,0.3-0.3,0.2-0.5
			c0,0-0.1-0.1-0.1-0.1c-0.1-0.1-0.3-0.3-0.4-0.4c-0.3-0.4-0.2-0.8,0.3-0.9c0.3-0.1,0.6-0.1,0.9-0.1c1.5,0.3,3.1,0.1,4.5-0.5
			c0.5-0.2,1-0.3,1.5-0.3c0.7,0,1.3-0.2,1.9-0.5c0.4-0.2,0.9-0.2,1.3,0c0.4,0.2,0.8,0.3,1.3,0.3c0.6,0,0.9-0.3,0.8-0.7
			c-0.3-1.3-0.8-2.3-2.2-2.2c-1.1,0-2.3,0.4-3.2,1c-0.9,0.6-1.9,0.9-3,1c-0.3,0-0.6-0.1-0.8-0.3c-0.2-0.1-0.2-0.4-0.1-0.6
			c0,0,0.1-0.1,0.1-0.1c0.2-0.2,0.4-0.3,0.7-0.4c0.9-0.4,1.9-0.6,2.8-1s1-0.4,0.6-1.4l0,0c-0.1-0.2,0-0.6,0.2-0.7c0,0,0,0,0.1,0
			c0.4-0.2,0.8-0.1,1,0.2c0,0,0,0,0,0c0.4,0.5,1,0.8,1.6,0.8l0.4,0.1c0.8,0.1,1.7-0.1,2.3-0.7c0.2-0.1,0.3-0.4,0.1-0.6
			c-0.1-0.1-0.1-0.1-0.2-0.2c-0.2-0.1-0.5-0.2-0.8-0.3c-0.5-0.1-0.9-0.4-1.2-0.7c-0.1-0.1-0.2-0.2-0.1-0.3c0.1-0.1,0.2-0.1,0.3-0.1
			h0.6c1.1,0.1,2.1,0.4,3.1,0.5c0.5,0.1,1-0.2,1.2-0.6c0.4-0.6,0.4-1.4,0-2c-0.4-0.6-1.1-0.8-1.8-0.5c-0.1,0-0.2,0.1-0.3,0.1
			c-0.6,0.2-1.3,0.2-2,0.1c-0.5-0.1-0.6-0.4-0.3-0.8c0.3-0.4,0.8-0.6,1.3-0.5c1,0,1.9-0.2,2.8-0.7c0.5-0.2,0.8-0.9,0.5-1.4
			c0-0.1-0.1-0.2-0.1-0.2c-0.2-0.3-0.5-0.5-0.8-0.7c-0.6-0.3-1.3-0.5-2-0.6c-1.1,0-2.2-0.5-3.1-1.1c-0.7-0.6-1.7-0.9-2.6-0.7
			c-1.1,0.1-2.2,0.7-2.8,1.6c-0.5,0.9-0.8,0.9-1.7,0.5c-0.1-0.1-0.3-0.1-0.4-0.2c-0.3-0.2-0.6-0.4-0.6-0.9s0.4-0.5,0.7-0.6
			c0.6-0.2,1.2-0.4,1.8-0.6c1.1-0.4,2-1.2,2.6-2.2c0.3-0.6,0.1-1-0.4-0.9c-0.4,0-0.9,0-1.3-0.1c-0.6,0-1.2-0.2-1.7-0.6
			c-0.3-0.3-0.8-0.5-1.2-0.3c-0.5,0.1-1.1,0-1.5-0.3c-0.3-0.3-0.7-0.5-1-0.8c-0.6-0.5-1.5-0.8-2.3-0.6h-0.3c-0.4,0-0.9,0-1.3,0
			c-0.3,0-0.5,0.1-0.6,0.4c-0.1,0.2,0,0.5,0.2,0.7c0.1,0.1,0.3,0.3,0.4,0.4c0.3,0.2,0.5,0.4,0.8,0.6c0.3,0.2,0.4,0.7,0.1,1
			c-0.1,0.1-0.1,0.1-0.2,0.2c-0.6,0.5-1.4,0.5-2,0c-0.3-0.3-0.6-0.6-0.8-0.9c-0.2-0.3-0.5-0.5-0.8-0.7c-0.8-0.6-1.5-0.3-1.7,0.8
			c0,0.5-0.4,1-0.9,1.1c-0.6,0.2-1.3,0.3-1.8-0.3c-0.6-0.7-0.9-1.6-0.8-2.5c0.1-0.7,0.4-1,1-1c0.3,0,0.7,0,1-0.1
			c0.2,0,0.4-0.2,0.4-0.4c0.1-0.2-0.1-0.4-0.3-0.5c-0.6-0.4-1.1-0.9-1.5-1.4c-0.4-0.6-1.2-0.8-1.8-0.4c0,0-0.1,0.1-0.1,0.1
			c-0.6,0.4-1.2,0.7-1.8,1c-0.5,0.2-0.6,0.5-0.4,1c0,0.1,0.1,0.2,0.1,0.3c0.1,0.3,0.3,0.6,0,0.9c-0.3,0.3-0.7,0.5-1.1,0.4
			c-0.3-0.1-0.6-0.4-0.6-0.7c0-0.3-0.1-0.6-0.2-0.8c-0.4-0.7-1-1.3-1.6-1.8c-0.6-0.5-1.4-0.6-2.1-0.1c-0.8,0.5-1.6,0.8-2.6,1
			c-0.9,0.2-1.9,0-2.7-0.5c-0.4-0.3-0.9-0.5-1.5-0.6C97.4,1,97,0.8,96.7,0.5c-0.3-0.2-0.6-0.4-1-0.3c-0.5,0-0.9-0.1-1.3-0.2
			c-0.2-0.1-0.5-0.1-0.8,0c-0.7,0.4-1.5,0.7-2.3,1c-0.4,0.1-0.5,0.5-0.3,0.9c0.2,0.4,0.5,0.8,0.8,1.1c0.4,0.4,0.4,0.7-0.1,1
			c-0.2,0.1-0.3,0.2-0.5,0.2c-0.8,0.3-1.6,0.4-2.4,0.3c-1-0.1-1.3-0.5-0.8-1.4c0.2-0.3,0.1-0.8-0.2-1C87.8,2.1,87.7,2,87.7,2
			c-0.2-0.1-0.4-0.1-0.6-0.1c-0.8,0.1-1.6,0.2-2.4,0.2c-0.6,0-1.2,0.4-1.4,1c-0.2,0.4-0.7,0.7-1.1,0.5c-0.2,0-0.4-0.1-0.6-0.2
			c-0.9-0.4-2-0.4-2.9,0.1c-0.3,0.1-0.6,0.4-0.8,0.7c-0.2,0.4-0.6,0.6-1.1,0.7C76,5,75.4,5,74.8,5.1c-0.6,0.1-1.2,0-1.8-0.3
			c-0.5-0.4-1.2-0.4-1.8,0C70,5.5,68.7,6,67.4,6.3c-0.7,0.1-1.2,0.6-1.4,1.3c-0.2,0.4,0,0.8,0.3,1.1c0.5,0.5,1.2,0.7,1.9,0.6
			c0.4-0.1,0.8,0.1,1,0.4c0.3,0.4,0.2,0.6-0.2,0.8c-0.3,0.2-0.6,0.4-0.9,0.6c-0.4,0.6-1.2,0.8-1.8,0.4c0,0-0.1-0.1-0.1-0.1
			c-0.4-0.2-0.8-0.4-1.2-0.6c-0.4-0.2-0.9-0.1-1.2,0.2c-0.2,0.2-0.5,0.4-0.7,0.6c-0.5,0.4-1.1,0.5-1.7,0.3c-0.8-0.4-1.7-0.6-2.6-0.8
			c-0.3-0.1-0.7-0.1-1-0.1c-0.5,0-0.8,0.3-0.7,0.9c0,0.2,0.1,0.5,0.1,0.7c0.1,0.5-0.2,0.9-0.7,1c-0.1,0-0.2,0-0.3,0
			c-0.2,0-0.4,0-0.6,0c-0.7-0.2-1.4-0.1-2,0.3c-0.5,0.2-0.9,0.4-1.4,0.6c-0.3,0.1-0.7,0.2-1,0.2c-1.5,0-2.8,0.9-3.5,2.3
			c-0.4,0.7-0.3,1,0.5,1.3c0.7,0.2,1.3,0.6,1.9,1c0.6,0.5,0.5,0.9-0.2,1.2c-0.4,0.1-0.7,0.5-0.8,0.8l-0.3,0.9
			c-0.1,0.2-0.3,0.4-0.6,0.4c-0.7,0-1-0.3-1-1c0-0.5-0.1-0.9-0.7-1.1c-0.9-0.3-1.9-0.2-2.7,0.3c-1,0.8-1.7,1.8-2.1,2.9
			c-0.2,0.4-0.3,0.7-0.7,0.8c-0.8,0.3-1.4,1-1.3,1.9c0,0.5-0.1,0.6-0.5,0.7s-1,0.1-1.5,0.2C37,27.6,36.5,27.9,37,29v0.1
			c0.3,0.8,0,1.1-0.8,1c-1.4-0.4-2.8,0.5-3.2,1.8c0,0.1,0,0.1,0,0.2c-0.3,0.9-0.8,1.7-1.6,2.3c-0.3,0.2-0.6,0.4-0.9,0.4
			c-0.5,0.1-1,0.2-1.4,0.5c-1,0.5-1.7,1.6-1.6,2.7c0,0.4-0.2,0.7-0.6,0.8c-0.9,0.4-1.6,1.2-1.8,2.1c-0.1,0.2-0.1,0.4,0,0.6
			c0.3,0.7,0,1.6-0.6,2C24.2,43.7,24,44,24,44.4c-0.2,0.6,0.1,1,0.7,1c0.2,0,0.4,0,0.6-0.1c0.7-0.2,1.4-0.2,2.1-0.2
			c0.7,0.1,1.4,0.4,1.9,0.8c0.3,0.4,0.9,0.5,1.3,0.2c0,0,0,0,0,0c0.2-0.1,0.5-0.3,0.7-0.5c0.7-0.6,1.5-0.8,2.4-0.7
			c0.4,0,0.7,0.2,0.9,0.5c0.2,0.2,0.2,0.5,0,0.6c0,0-0.1,0.1-0.1,0.1c-0.2,0.1-0.4,0.2-0.6,0.2c-0.7,0.2-1.4,0.5-2,1
			c-0.2,0.2-0.4,0.3-0.3,0.7c0.1,0.3,0.4,0.5,0.7,0.5c0.4,0,0.8,0,1.2,0c0.9-0.2,1.7,0.1,2.4,0.7c0.2,0.1,0.4,0.2,0.6,0.3
			c1,0.3,2.1,0.3,3.1,0l0.2-0.1c0.2-0.1,0.3-0.3,0.2-0.5c0,0,0-0.1-0.1-0.1c-0.1-0.2-0.3-0.4-0.5-0.5c-0.4-0.3-0.6-0.7-0.7-1.1
			c-0.1-0.6,0-0.9,0.7-1c1.5-0.2,3,0.2,4.3,1.1c0.4,0.3,0.9,0.3,1.4,0.1c1-0.4,2-0.7,3.1-0.9c0.9-0.1,1.7-0.6,2.2-1.3
			c0.3-0.5,0.8-0.8,1.4-0.8c0.4,0,0.7-0.1,1-0.2c0.5-0.2,1.1-0.1,1.6,0.1c0.6,0.3,1.4,0.2,1.9-0.3c0.3-0.3,0.8-0.4,1.2-0.5
			c1.2-0.2,2.4-0.1,3.5,0.4c0.4,0.2,0.9,0.3,1.4,0.3c0.7-0.1,1.3-0.1,2-0.1c1.4,0.1,2.8,0.2,4.2,0.4c1.5,0.3,2.9,0.6,4.3,1.2
			c2.2,0.8,4.3,1.6,6.6,2.3c0.9,0.3,1.7,0.6,2.5,1.1c1.3,0.8,2.5,1.7,3.7,2.7c0.8,0.6,1.4,1.2,2.1,1.9c0.6,0.7,1,1.4,1.4,2.2
			c0.3,0.7,0.3,1.6,0,2.3c-0.3,1,0,2,0.8,2.7c0.5,0.5,1,1,1.6,1.4c0.6,0.5,1,1.3,1.1,2.1C92.3,64.4,91,69.8,87.4,70.5 M123.1,10.7
			c0.1-0.2,0.2-0.3,0.4-0.4c0.5-0.5,0.9-1.1,1.2-1.8c0.2-0.5,0.4-0.6,1-0.6c0.2,0,0.3,0.1,0.5,0.1c0.5,0.1,0.9,0.7,0.7,1.2
			c0,0.2-0.1,0.3-0.2,0.4c-0.2,0.3-0.5,0.6-0.8,0.8c-0.6,0.4-1.2,0.8-1.8,1.1c-0.1,0.1-0.3,0.1-0.4,0.1c-0.2,0-0.4-0.1-0.6-0.3
			C122.9,11.1,122.9,10.8,123.1,10.7 M121.1,15.3c0.3-0.1,0.6-0.1,0.9-0.1c0.8,0,1.6,0.1,2.4,0.3c0.7,0.2,1.4,0.1,2.1-0.1
			c2-0.6,4.2-0.5,6.1,0.4c0.3,0.1,0.5,0.3,0.7,0.5c0.2,0.4,0.1,0.6-0.2,0.8c-0.4,0.2-0.9,0.2-1.4,0c-0.8-0.3-1.6-0.5-2.4-0.7
			c-0.3,0-0.7,0-1,0c-0.3,0-0.6,0.2-0.8,0.4c-0.2,0.2-0.2,0.5,0,0.7c0,0,0.1,0,0.1,0.1c0.3,0.2,0.5,0.5,0.5,0.8
			c0.1,0.3,0.5,0.6,0.8,0.6c0.5,0.1,1,0.1,1.4,0.2s0.7,0.3,0.7,0.7c0,0.4-0.3,0.7-0.6,0.7c0,0-0.1,0-0.1,0c-1.5,0-3-0.2-3.8-1.8
			c-0.6-1.1-1.8-1.7-3-1.5c-0.5,0.1-1.1,0-1.6-0.1c-0.4-0.1-0.8-0.4-1-0.8c-0.2-0.3-0.2-0.8,0.2-1C121,15.4,121.1,15.3,121.1,15.3
			 M116.6,19.6c0.1-0.7,0.3-0.9,1-0.8c0.5,0,1.1,0.2,1.5,0.5c0.2,0.1,0.3,0.2,0.3,0.4s-0.3,0.2-0.4,0.2s-0.5-0.1-0.7-0.1
			c-0.4,0-0.6,0.3-0.3,0.7c0.2,0.4,0.6,0.7,1.1,0.8c0.4,0.1,0.9,0.3,1.2,0.6c0.1,0.1,0.2,0.2,0.1,0.3s-0.2,0.1-0.3,0.1
			c-0.4,0-0.8-0.1-1.1-0.3c-0.5-0.3-1.1-0.5-1.7-0.4c-0.3,0-0.6,0-0.9-0.2c-0.9-0.4-2-0.4-2.8,0.1c-0.4,0.2-0.8,0.4-1.2,0.5
			c-0.3,0.1-0.7,0-0.8-0.3c-0.3-0.5-0.9-0.7-1.4-0.5c-0.3,0.1-0.7,0-1-0.2c-0.5-0.4-1.1-0.5-1.7-0.4h-0.2c-0.2,0-0.3,0-0.3-0.2
			c0-0.1,0.1-0.3,0.2-0.3c0.9-0.5,1.9-0.8,3-0.9c0.2,0,0.5,0,0.7,0.1c0.7,0.2,1.5,0.2,2.2,0.1c0.7,0,1.3,0.2,1.8,0.5
			c0.3,0.1,0.7,0.2,1,0.3C116.3,20.4,116.6,20.2,116.6,19.6 M109.6,13.1c1.3-0.1,2.6-0.5,3.9-0.7c0.6-0.1,1.3,0.1,1.7,0.6
			c0.2,0.2,0.4,0.4,0.7,0.6c0.3,0.3,0.5,0.7,0.4,1.1c0,0.4,0,0.8-0.1,1.1c-0.1,0.3-0.3,0.5-0.6,0.6c-0.5,0.1-1-0.1-1.4-0.4
			c-0.1-0.1-0.2-0.3-0.1-0.5c0.1-1,0-1.2-1-1.1c-0.7,0-1.4,0.2-2,0.4c-0.7,0.3-1.5,0.4-2.2,0.1c-0.9-0.4-2-0.3-2.9,0.1
			c-0.2,0.1-0.5,0.2-0.8,0.1c-0.2,0-0.4-0.2-0.4-0.4c0-0.1,0.1-0.2,0.1-0.3c0.3-0.3,0.7-0.5,1.1-0.6c0.5-0.1,0.9-0.2,1.4-0.3
			c0.4-0.1,0.8-0.2,1.2-0.3C108.8,13.2,109.2,13.1,109.6,13.1 M100.5,8.1c1.2-0.7,2.5-0.9,3.9-0.8c0.4,0.1,0.8,0.3,1.1,0.6
			c0.5,0.5,1.1,0.9,1.8,1c0.3,0.1,0.6,0.2,0.9,0.3c0.2,0.1,0.4,0.2,0.3,0.5c0,0.2-0.2,0.5-0.4,0.5c-0.4,0.2-0.9,0.3-1.4,0.3
			c-0.5,0.1-1,0.2-1.6,0.2c-0.7,0-1.4-0.2-1.9-0.7c-0.6-0.5-1.3-0.9-2.1-1c-0.4,0-0.7-0.2-0.8-0.6C100.3,8.3,100.3,8.1,100.5,8.1
			 M99.2,21.4c0.4-0.4,0.5-0.9,0.3-1.4c-0.1-0.3-0.2-0.6-0.4-0.9c-0.1-0.3-0.1-0.6,0.1-0.9c0.3-0.4,0.6-0.7,1-0.9
			c0.6-0.3,1.1-0.1,1.3,0.6c0,0.1,0,0.2,0.1,0.3c0.2,0.9,0.5,1.1,1.3,1.1c0.2,0,0.4,0,0.6,0.1c0.2,0,0.4,0.2,0.4,0.5
			c0,0.2-0.2,0.4-0.3,0.4c-0.3,0.1-0.7,0.3-1,0.4c-0.8,0.2-1.5,0.7-1.8,1.4c-0.2,0.5-0.6,0.8-1.1,0.9c-0.7,0.3-1.5,0.5-2.2,0.6
			c-0.6,0-1.3-0.2-1.8-0.6c-0.1-0.1-0.2-0.2-0.3-0.4c-0.2-0.3-0.2-0.7,0.1-0.9c0.1-0.1,0.3-0.2,0.4-0.1c0.6,0.1,1.3,0.2,1.9,0.4
			C98.2,22,98.8,21.8,99.2,21.4 M93.6,12.2c0.5-0.1,1-0.1,1.5-0.1c0.6,0,1.2,0.1,1.7,0.3c0.5,0.2,0.8,0.8,0.6,1.3
			c-0.1,0.2-0.2,0.3-0.3,0.4c-0.5,0.4-0.9,1-1,1.7c0,0.1-0.1,0.3-0.2,0.4c-0.3,0.4-0.6,0.5-0.9,0.1c-0.3-0.3-0.5-0.6-0.7-1
			c-0.2-0.4-0.6-0.7-1-0.9c-0.6-0.3-0.8-0.7-0.7-1.2C92.5,12.6,92.9,12.2,93.6,12.2 M70.7,13.7c0-0.1,0.1-0.1,0.2-0.2
			c0.7-0.5,1.3-1.1,1.8-1.8c0.1-0.2,0.3-0.4,0.6-0.5c0.5-0.3,1-0.6,1.4-0.9c0.3-0.2,0.7-0.3,1-0.2c0.5,0.2,1.1,0.1,1.5-0.2
			c0.3-0.2,0.7-0.2,1,0.1c0.7,0.7,1.6,1,2.5,0.9c0.9,0,1.8,0.4,2.7,0.4c0.5,0.1,0.9,0.1,1.4,0c0.5-0.1,0.8-0.5,0.9-1
			C86,9.3,86.4,9,87.5,9c1.1,0,2.1-0.2,3.2-0.5c0.6-0.3,1.4-0.4,2.1-0.3c0.4,0.1,0.7,0.4,0.7,0.8c0,0.3-0.3,0.4-0.6,0.5l-1.4,0.1
			c-0.4,0-0.7,0.1-1,0.3c-0.3,0.2-0.7,0.4-1.1,0.4c-0.2,0-0.4,0.1-0.5,0.3c-0.5,0.6-1.1,1.2-1.5,1.8c-0.1,0.1-0.2,0.3-0.2,0.4
			c-0.5,1.2-0.2,1.8,0.9,2.3c0.5,0.2,1,0.5,1.4,0.8c0.2,0.2,0.4,0.3,0.3,0.6c-0.1,0.2-0.4,0.4-0.7,0.3c-0.6-0.2-1.2-0.5-1.8-0.8
			c-0.9-0.6-1.8-1.3-2.5-2c-0.3-0.3-0.7-0.5-1.2-0.6c-0.6-0.2-1.2-0.5-1.8-0.8c-0.7-0.5-1.6-0.7-2.4-0.5c-1.3,0.2-2.7,0.3-4,0.3
			c-0.6,0-1.2,0.2-1.6,0.6c-0.7,0.6-1.5,1.1-2.4,1.5c-0.1,0.1-0.3,0.1-0.4,0.1c-0.2,0.1-0.4,0.1-0.6-0.1S70.5,14,70.7,13.7
			 M91.7,20.8c-0.1,0.4-0.4,0.6-0.7,0.6c-0.5,0-1,0.2-1.4,0.5c-0.8,0.6-1.8,0.6-2.6,0c-0.8-0.5-1.8-0.6-2.7-0.4c-0.3,0-0.6,0-0.8,0
			c-0.2,0-0.4-0.1-0.5-0.3c-0.1-0.2,0.1-0.5,0.3-0.6c0.5-0.3,1.1-0.5,1.8-0.5c0.2,0,0.3,0,0.5,0c0.6,0,1.1,0.1,1.7,0.3
			c0.5,0.2,1.1,0.1,1.7-0.1c0.7-0.3,1.4-0.4,2.2-0.3l0.2,0c0.4,0.1,0.6,0.4,0.6,0.7 M58.8,24.3c0.4-0.2,0.9-0.3,1.4-0.3
			c0.9-0.2,1.8-0.4,2.7-0.8c1.2-0.5,2.5-0.9,3.8-1.2c1.2-0.3,2.6-0.1,3.6,0.6c0.3,0.2,0.6,0.4,1,0.4c0.9,0.1,1.8,0.4,2.6,0.8
			c0.9,0.5,2,0.7,3,0.7c0.8,0,1-0.4,0.8-1.2c-0.3-1-1.1-1.7-2.1-1.9c-0.6-0.1-1.1-0.3-1.7-0.5c-0.3-0.1-0.6-0.4-0.8-0.6
			c-0.2-0.2-0.2-0.5,0-0.7c0.1-0.1,0.1-0.1,0.2-0.1c0.8-0.4,1.7-0.4,2.5,0c0.5,0.3,1.1,0.4,1.7,0.2c0.4-0.2,0.8-0.2,1.2-0.2
			c0.2,0,0.4,0.1,0.5,0.3c0,0.2,0,0.4-0.2,0.5l-0.5,0.3c-0.4,0.2-0.6,0.8-0.4,1.2c0.2,0.6,0.6,1.1,1,1.6c0.2,0.3,0.4,0.5,0.7,0.8
			c0.5,0.6,1.3,0.8,2.1,0.7c0.5-0.1,1-0.1,1.5,0c0.5,0.2,0.7,0.7,0.3,1c-0.9,0.8-1.8,1.7-3.1,1.3c-0.8-0.1-1.6-0.1-2.4,0.2
			c-0.6,0.1-1.1,0.1-1.7,0c-0.4-0.1-0.6-0.3-0.5-0.8c0.1-0.7,0.1-0.8-0.6-1c-1.4-0.4-2.8-0.6-4.2-0.9c-0.7-0.2-1.3-0.4-1.9-0.8
			c-0.4-0.3-0.8-0.5-1.3-0.6c-0.6-0.2-1.4-0.1-1.8,0.4c-0.5,0.5-1.3,0.8-2,0.7c-0.7-0.1-1.4,0.1-1.9,0.5c-0.1,0.1-0.3,0.1-0.4,0.2
			c-0.3,0.3-0.8,0.2-1.1-0.1c-0.3-0.3-0.8-0.4-1.3-0.3l-0.4,0.1c-0.2,0.1-0.4,0-0.4-0.2c0,0,0,0,0,0C58.4,24.5,58.6,24.4,58.8,24.3
			 M58.8,41.4h-1c-0.6-0.1-1.2,0.1-1.8,0.3c-0.5,0.3-1,0.4-1.6,0.5c-0.4,0.1-0.9-0.1-1.2-0.4c-0.2-0.2-0.3-0.6,0-0.8
			c0.1-0.1,0.2-0.1,0.3-0.2c0.2-0.1,0.5-0.1,0.7-0.2c0.2,0,0.4-0.1,0.6-0.2c0.2-0.1,0.4-0.3,0.4-0.5c0-0.3-0.2-0.5-0.4-0.5
			c-0.4-0.1-0.8-0.1-1.3-0.1l-1.1,0.1c-0.7,0.1-1.5-0.1-2.1-0.4c-0.3-0.2-0.7-0.4-1.1-0.4c-0.5-0.1-0.9,0.1-1.1,0.6
			c0,0.1,0,0.2,0,0.3c0,0.2,0,0.5,0,0.7c0.1,0.6-0.2,1.2-0.7,1.6c-0.5,0.4-1.1,0.7-1.8,0.9c-0.5,0.1-1,0-1.1-0.3s0.3-0.8,0.8-0.9
			c0.2-0.1,0.3-0.1,0.5-0.1c0.3,0,0.5-0.2,0.5-0.5c0-0.3-0.1-0.5-0.3-0.6c-0.4-0.3-0.9-0.4-1.4-0.3c-1,0.1-2,0.1-2.9,0.3
			c-0.6,0.1-1.2,0.3-1.7,0.6c-0.8,0.3-1.6,0.4-2.4,0.3l-1.1-0.1c-0.2,0-0.4,0-0.4-0.3s0.2-0.3,0.4-0.4c0.5,0,1-0.1,1.5-0.2
			c0.3-0.1,0.6-0.2,0.9-0.4c0.2-0.1,0.3-0.3,0.2-0.5c0-0.2-0.2-0.4-0.4-0.4l-0.5-0.2c-0.2,0-0.4-0.2-0.4-0.4s0.2-0.3,0.4-0.3
			c0.4-0.1,0.8-0.1,1.1-0.1c0.6,0,1.2-0.2,1.6-0.6c0.3-0.2,0.6-0.4,0.9-0.5c0.4-0.1,0.8,0.1,1,0.4c0.3,0.5,0.6,0.6,1,0.4
			c1.4-0.6,3-0.9,4.4-1.4c0.3-0.1,0.7-0.2,1-0.1c0.1,0,0.2,0.1,0.3,0.2c0,0.1-0.1,0.2-0.2,0.3c-0.1,0.1-0.2,0.2-0.3,0.3
			c-0.2,0.2-0.2,0.4,0,0.6c0,0,0.1,0.1,0.1,0.1c0.3,0.2,0.7,0.3,1.1,0.4c1.8,0.4,3.7,0.5,5.6,1c0.9,0.1,1.6,0.6,2.2,1.3
			c0.2,0.2,0.4,0.4,0.7,0.5c0.2,0.1,0.3,0.2,0.5,0.3c0.1,0.1,0.2,0.3,0.2,0.5C59.1,41.3,59,41.5,58.8,41.4 M60.4,30.5
			c-0.4,0.2-0.8,0.3-1.2,0.3c-0.9,0-1.8,0.2-2.7,0.6c-0.4,0.2-0.9,0.3-1.3,0.3c-0.1,0-0.2,0-0.3,0c-1-0.2-2.1-0.1-3,0.3
			C51.6,32,51.3,32.1,51,32c-0.5,0-0.6-0.4-0.3-0.8c0.1-0.2,0.3-0.4,0.6-0.4c1.1-0.4,2.3-0.5,3.5-0.5c0.4,0,0.7,0,1.1-0.1
			c1.1-0.1,2.3-0.3,3.4-0.4c0.4-0.1,0.8,0,1.2,0c0.1,0,0.3,0.1,0.3,0.3S60.6,30.4,60.4,30.5 M68.1,41.9c-0.5-0.1-1.1-0.2-1.6-0.3
			c-0.5-0.1-1-0.1-1.6-0.1c-0.8,0.1-1.6-0.1-2.3-0.4c-0.6-0.3-1.1-0.8-1.3-1.5c-0.1-0.4-0.3-0.7-0.5-1c-0.3-0.3-0.2-0.5,0.1-0.7
			c0.1,0,0.2-0.1,0.3-0.1c0.9-0.2,1.8-0.1,2.6-0.3c0.3,0,0.6,0.1,0.9,0.3c1,0.9,2.2,1.5,3.1,2.3c0.4,0.3,0.6,0.7,0.7,1.1
			C68.8,41.7,68.6,42,68.1,41.9 M69.2,31.8c0.4,0.3,0.7,0.8,0.5,1.3c-0.1,0.4-0.3,0.6-0.7,0.8c-0.9,0.3-1.9-0.2-2.2-1
			c0,0,0-0.1,0-0.1c-0.1-0.5-0.3-1-0.6-1.5c-0.2-0.2-0.2-0.5-0.1-0.7c0.1-0.2,0.3-0.2,0.6-0.2c0.2,0,0.3,0,0.5,0.1
			c0.6,0.3,1.3,0.3,1.8-0.2c0.4-0.3,0.8-0.5,1.3-0.6c0.8-0.1,1.7,0,2.4,0.5c0.6,0.3,1.2,0.6,1.9,0.8c0.5,0.2,0.9,0.5,1.2,0.8
			c0.6,0.5,1.4,0.7,2.1,0.5c0.3-0.1,0.6-0.1,0.9-0.2c1.5-0.2,3,0.6,3.6,2c0.3,0.7,0.9,1.3,1.6,1.7c0.4,0.2,0.7,0.5,1,0.8
			c0.3,0.3,0.6,0.6,0.9,0.8c0.6,0.4,0.9,1.2,0.9,1.9c0,0.6-0.3,0.8-0.8,0.4s-1.1-1-1.7-1.4c-1.1-0.8-2.1-1.6-3.2-2.4
			c-0.6-0.4-1.3-0.6-2-0.7c-0.3,0-0.5-0.1-0.8-0.2c-0.8-0.4-1.7-0.5-2.5-0.5c-0.8,0-1.5,0-2.3-0.3c-0.2-0.1-0.4-0.2-0.5-0.4
			s0.2-0.5,0.4-0.6s0.5-0.3,0.5-0.7s-0.4-0.4-0.7-0.5c-0.5-0.2-1-0.4-1.5-0.8c-0.6-0.5-1.4-0.6-2.1-0.5l-0.3,0.1
			c-0.2,0.1-0.4,0.2-0.4,0.4s0.2,0.3,0.3,0.4 M79,44.6c-0.1,0.2-0.3,0.2-0.5,0.2c-0.5-0.1-0.9-0.2-1.4-0.4c-0.6-0.3-1.3-0.6-1.9-1
			c-0.8-0.5-1.7-1-2.5-1.5c-0.5-0.3-0.9-0.7-1.4-1l-0.1-0.1c-0.1-0.2-0.3-0.3-0.2-0.5s0.3-0.1,0.5-0.1c0.6,0.2,1.2,0.4,1.7,0.7
			c0.9,0.6,1.8,1.1,2.7,1.6c0.8,0.4,1.7,0.7,2.4,1.2c0.2,0.1,0.4,0.3,0.5,0.4C79,44.3,79.1,44.5,79,44.6 M89.9,49.7
			c-0.2,0.2-0.5,0-0.6-0.2c-0.6-0.7-1.3-1.2-1.9-1.8c-0.6-0.7-1.3-1.3-2-1.8c-1.3-0.9-2.6-2-3.8-3c-1-0.8-2-1.5-3.2-2.1
			c-1.3-0.7-2.6-1.4-3.9-2.1c-0.5-0.2-0.9-0.4-1.3-0.7c-0.2-0.1-0.4-0.3-0.3-0.5s0.3-0.2,0.5-0.2c0.7,0.1,1.4,0.2,2,0.2
			c1.6,0.1,3.1,0.5,4.6,1.1c1.4,0.6,2.6,1.4,3.8,2.3c2.1,1.8,3.9,3.9,5.2,6.3c0.3,0.4,0.5,0.8,0.8,1.2c0.1,0.1,0.2,0.3,0.2,0.4
			C90,49.2,90.1,49.5,89.9,49.7 M94,41.1c-0.4,0.7-0.6,1.4-0.9,2.1c-0.1,0.3-0.3,0.6-0.6,0.8c-0.4,0.4-0.8,0.4-1.1-0.1
			c-0.3-0.5-0.5-1-0.6-1.5c-0.2-1.1-0.5-2.2-0.9-3.2c-0.2-0.7-0.3-1.4-0.1-2.2c0.1-0.7,0-1.4-0.4-2c-0.2-0.3-0.4-0.6-0.6-0.9
			c-0.3-0.5-0.2-0.8,0.3-1c0.1-0.1,0.3-0.1,0.4-0.1c0.3,0,0.6,0,0.8,0c0.3,0,0.7,0,1,0.1c0.7,0.1,1.1,0.8,1,1.4
			c0,0.1-0.1,0.3-0.2,0.4c-0.1,0.3-0.3,0.5-0.5,0.7c-0.4,0.5-0.3,1.1,0.2,1.5c0,0,0,0,0,0c0.3,0.3,0.7,0.5,1,0.8
			c0.6,0.5,1,1.2,1.2,2C94.3,40.4,94.2,40.7,94,41.1 M94.6,36c-0.1-0.3-0.1-0.6-0.1-0.8l0.2-1.4c0.1-0.8,0.4-1.1,1.1-1.1
			s1.2,0.4,1.1,1.2c-0.1,0.8-0.1,1.5,0,2.3c0,0.3,0,0.6-0.1,1c-0.2,0.4-0.5,0.6-0.9,0.4C95.4,37.1,94.9,36.6,94.6,36 M99.4,57.7
			c-0.3,0.4-0.8,0.7-1.2,1c-0.3,0.2-0.6,0.1-0.8-0.1c-0.4-0.3-0.7-0.7-0.9-1.1c-0.6-1.1-1-2.3-1.1-3.5c-0.1-0.6-0.1-1.1-0.2-1.7
			c0-1,0.1-2,0.4-3c0.2-0.6,0.3-1.3,0.3-2c0-0.6,0-1.2,0.1-1.8c0.1-0.4,0.1-0.8,0.5-1c0.4-0.2,0.9-0.1,1.2,0.3
			c0.3,0.4,0.6,0.8,0.7,1.3c0.2,0.5,0.5,1.1,0.8,1.5c0.9,1.1,1.4,2.4,1.6,3.8C101.3,53.6,100.7,55.9,99.4,57.7 M110.1,43
			c-1.5,1.2-2.9,2.7-3.9,4.3c-0.3,0.5-0.7,0.9-1.1,1.3c-0.2,0.2-0.5,0.4-0.8,0.5c-0.4,0.2-0.9,0.1-1.1-0.2c0-0.1-0.1-0.1-0.1-0.2
			c-0.5-1.2-1-2.3-1.6-3.5c-0.2-0.4-0.3-0.8-0.3-1.2c0-0.4,0.1-0.8,0.4-1c1.4-1.1,2.7-2.4,4-3.7c0.5-0.5,1.1-0.8,1.8-1
			c0.6-0.2,1.2-0.4,1.7-0.7c0.5-0.3,0.9-0.8,0.8-1.4c0-0.5,0-1.1,0-1.7c0-1.1,0.7-1.6,1.7-1.1c0.3,0.2,0.7,0.3,1.1,0.5
			s0.6,0.7,0.2,1.1c-0.8,0.8-0.5,1.3,0.3,1.8c1,0.6,1,0.8,0.4,1.8C112.8,40.5,111.6,41.9,110.1,43 M117.4,40.6
			c-0.3,1.1-0.8,2.2-1.5,3.2c-0.8,1.1-2,1.9-3.3,2.1h-0.2c-0.3,0-0.6,0-0.7-0.3s0-0.5,0.2-0.8c0.5-0.6,1.1-1.2,1.6-1.8
			s0.9-1.4,1.4-2c0.2-0.2,0.4-0.5,0.6-0.7c0.4-0.5,0.8-1.1,1-1.7c0.1-0.3,0.3-0.6,0.5-0.8c0.1-0.2,0.4-0.3,0.6-0.2
			c0.2,0.1,0.3,0.3,0.3,0.6v0.3C117.9,39.3,117.7,40,117.4,40.6 M119.2,27.4c-0.4,0.1-0.8,0.2-1.3,0.3c-0.3,0.1-0.6,0.3-0.7,0.6
			c-0.2,0.4,0,0.9,0.4,1.1c0.1,0,0.1,0.1,0.2,0.1c0.3,0.1,0.6,0.1,0.8,0.3c0.4,0.2,0.4,0.5,0,0.7c-0.3,0.1-0.5,0.2-0.8,0.2
			c-0.4,0-0.7,0-1.1,0.1c-0.4,0.1-0.5,0.4-0.3,0.7s0.2,0.7-0.4,0.7c-0.9,0.1-1.7,0-2.5-0.2c-0.4-0.1-0.7-0.3-1-0.5
			c-0.3-0.3-0.5-0.8-0.4-1.2c0.2-1.1,0.1-1.5-0.9-2.1c-0.4-0.2-0.8-0.4-1.2-0.5c-0.3-0.1-0.6,0-0.8,0.3c-0.3,0.3-0.6,0.6-0.8,0.9
			c-0.3,0.5-0.8,0.8-1.4,0.9c-0.8,0.1-1.6,0.3-2.4,0.4c-0.5,0.1-0.9,0.2-1.3,0.5c-0.5,0.2-0.6,0.8-0.4,1.3c0.1,0.2,0.2,0.3,0.4,0.4
			c0.3,0.2,0.6,0.3,1,0.3l2.2,0.3c0.2,0,0.4,0.1,0.6,0.3c0.4,0.3,0.6,0.8,0.3,1.3c-0.1,0.2-0.3,0.3-0.4,0.4
			c-0.5,0.2-0.9,0.4-1.4,0.5c-0.6,0.2-1.2,0.6-1.5,1.2c-0.9,1.4-2.1,2.7-3.5,3.6c-0.2,0.1-0.5,0.3-0.7,0.3c-0.8,0.3-1.1-0.2-1.1-1
			c0.1-0.7,0.3-1.3,0.6-1.9c0.2-0.4,0.3-0.9,0.3-1.4c-0.1-0.5,0.2-0.9,0.6-1.1c0.4-0.2,0.7-0.4,0.9-0.7c0.4-0.4,0.4-1,0.2-1.5
			c-0.1-0.2-0.2-0.5-0.3-0.7c-0.3-0.6-0.2-0.9,0.3-1.3c0.6-0.5,1.2-1,1.7-1.6c0.2-0.2,0.4-0.5,0.5-0.7c0.3-0.4,0.3-0.9-0.1-1.3
			c-0.1-0.1-0.3-0.2-0.5-0.2c-0.5-0.1-1-0.1-1.5-0.1c-1.6-0.1-3.1,0.3-4.5,1.1c-0.7,0.5-1.5,0.5-2.2,0c-0.5-0.3-0.9-0.2-1.2,0.3
			s-0.7,1-1.3,0.8c-0.7-0.1-1.3-0.5-1.6-1.1c-0.6-1.4-0.3-3,0.7-4.1c0.2-0.3,0.5-0.4,0.9-0.3c0.2,0,0.4,0.3,0.4,0.5c0,0,0,0.1,0,0.1
			c-0.1,0.4-0.3,0.8-0.6,1.1c-0.2,0.3-0.5,0.7-0.2,1.1s0.7,0.3,1.1,0.2c0.9-0.2,1.8-0.5,2.7-0.9c0.6-0.3,1.3-0.3,1.9-0.2
			c1,0.3,2,0.4,3.1,0.4c0.7-0.1,1.4-0.1,2.2-0.1c1,0,2,0.2,2.9,0.6c0.4,0.1,0.7,0.3,1.1,0.4c0.6,0.2,1.2,0.1,1.6-0.3
			c0.7-0.6,1.6-1,2.5-1.1c0.2,0,0.4,0,0.5,0c0.8,0.1,0.9,0.3,1,1.1c0.2,1.2,0.6,1.5,1.8,1.3c0.5-0.1,1-0.2,1.4-0.4
			c0.5-0.3,0.8-0.9,0.7-1.5c0-0.2,0-0.4-0.1-0.6c0-0.6,0.3-0.8,0.9-0.7c0.4,0.1,0.7,0.3,1,0.6c0.4,0.4,0.8,0.8,1.1,1.3
			C119.6,27,119.6,27.2,119.2,27.4 M133.8,42.4c-0.2,0-0.5,0.1-0.7,0.1c-1.5-0.1-3-0.3-4.5-0.5c-1.7-0.3-3.4-0.4-5.1-0.3
			c-0.6,0-1.2,0.2-1.7,0.4c-0.4,0.2-0.9,0.3-1.3,0.4c-0.8,0.2-1.1-0.1-0.9-1c0.1-0.3,0.2-0.7,0.3-1c0.3-0.7,0.4-1.5,0.5-2.2
			c0-0.7,0.3-1.3,0.9-1.7c1.1-0.9,2.5-1.3,3.9-1.3c0.1,0,0.2,0,0.3,0c0.2,0,0.3,0.1,0.3,0.3c0,0.2-0.1,0.3-0.2,0.4
			c-0.3,0.2-0.5,0.4-0.8,0.5c-0.4,0.1-0.7,0.3-0.9,0.6c-0.1,0.2-0.3,0.3-0.2,0.5s0.3,0.2,0.4,0.2c0.8,0,1.5-0.1,2.3-0.1
			c0.6,0,1.2,0.1,1.8,0.2c0.2,0,0.5,0.1,0.5,0.4s-0.3,0.2-0.5,0.3c-0.4,0-0.8,0-1.2,0.1c-0.6,0-1.1,0.5-1.2,1.1
			c-0.1,0.5,0.2,0.9,0.6,1.1c0.5,0.1,1,0.2,1.6,0.1c1.7-0.1,3.5,0.1,5.1,0.7c0.3,0.1,0.5,0.2,0.8,0.4c0.1,0,0.1,0.1,0.1,0.2
			S133.9,42.3,133.8,42.4 M142.2,32.4c-0.6,0.2-1.3,0.3-1.9,0.4c-0.5,0.1-1,0.2-1.5,0.3c-0.4-0.1-0.7-0.1-1.1,0
			c-0.2,0-0.5,0.1-0.5,0.4s0.3,0.3,0.5,0.4c0.4,0,0.7,0.1,1.1,0.2c0.5,0.2,0.6,0.5,0.2,0.9c-0.3,0.3-0.6,0.5-1,0.7
			c-1.1,0.6-2.2,1.1-3.4,1.5c-0.4,0.2-0.9,0.2-1.4,0.1c-0.5-0.2-0.5-0.4-0.1-0.7c0.5-0.5,1.1-0.8,1.8-0.8h0.9c0.2,0,0.4,0,0.6-0.1
			c0.2-0.1,0.3-0.2,0.3-0.4s-0.2-0.3-0.4-0.3c-0.4,0-0.9,0-1.3,0c-0.5-0.1-0.9-0.2-1.4-0.4c-0.5-0.2-1-0.4-1.5-0.4
			c-0.2,0-0.4,0-0.6-0.1c-0.1,0-0.2,0-0.2-0.2s0.1-0.2,0.2-0.3c0.2-0.1,0.3-0.1,0.5-0.1c0.6-0.1,1.2-0.3,1.7-0.7
			c0.9-0.8,2.2-1.2,3.4-0.9c0.5,0.1,1,0.1,1.5-0.1c1.2-0.2,2.5-0.2,3.7-0.2c0.3,0,0.6,0,0.6,0.3s-0.3,0.5-0.5,0.7"/>
		<path class="st0" d="M11.7,76.8C10.3,76.7,9,77.1,7.8,78c-0.9,0.7-1.5,1.7-1.5,2.9c0,1,0.4,2,1.2,2.8c0.9,0.8,1.9,1.4,2.9,1.9
			c1.2,0.6,2.4,1.1,3.8,1.7c1.3,0.5,2.6,1.2,3.8,2c1.2,0.7,2.2,1.7,3,2.8c0.8,1.3,1.2,2.7,1.2,4.3c0,1.4-0.3,2.9-1,4.2
			c-0.7,1.3-1.6,2.4-2.8,3.2c-1.3,0.9-2.8,1.6-4.4,2c-1.8,0.5-3.7,0.7-5.6,0.7c-1.7,0-3.4-0.2-5-0.5c-1.2-0.2-2.3-0.7-3.4-1.3
			c0.3-1.1,0.6-2,0.9-2.9s0.4-1.8,0.6-2.9h1c0.1,0.7,0.4,1.3,0.8,1.9c0.4,0.6,0.9,1.1,1.5,1.6c0.6,0.5,1.4,0.8,2.1,1.1
			c0.9,0.3,1.9,0.4,2.8,0.4c1.7,0.1,3.3-0.4,4.6-1.4c0.9-0.8,1.5-2,1.5-3.3c0-1.1-0.4-2.1-1.1-2.8c-0.8-0.8-1.8-1.4-2.9-1.9
			c-1.2-0.6-2.4-1.1-3.8-1.6c-1.3-0.5-2.6-1.2-3.7-1.9C3.1,90,2.2,89,1.4,87.9c-0.8-1.3-1.2-2.8-1.1-4.2c0-1.5,0.3-2.9,1-4.2
			c0.6-1.2,1.5-2.2,2.6-3.1c1.1-0.8,2.3-1.5,3.7-1.9c1.4-0.4,2.9-0.6,4.4-0.6c1.7,0,3.3,0.2,4.9,0.6c1.3,0.3,2.5,0.9,3.6,1.6
			c-0.3,0.7-0.6,1.4-0.8,2l-0.9,2.5H18C16.9,78.1,14.8,76.8,11.7,76.8"/>
		<path class="st0" d="M27.7,89.2c-0.4-1.8,0.4-3.6,2.1-4.3c0.6-0.3,1.3-0.6,2-0.8c1.6-0.5,3.3-0.8,5-0.8c1.3,0,2.6,0.1,3.8,0.4
			c1.1,0.2,2.1,0.7,3,1.3c0.8,0.6,1.5,1.4,2,2.3c0.5,1.1,0.7,2.2,0.7,3.4c0,1.9,0,3.7-0.1,5.4s-0.1,3.3-0.1,4.9c0,0.6,0,1.2,0.2,1.7
			c0.1,0.4,0.3,0.7,0.5,0.9c0.3,0.2,0.6,0.4,1,0.4c0.5,0.1,0.9,0.1,1.4,0.1v1.1c-1,0.4-1.8,0.6-2.5,0.8c-0.7,0.2-1.5,0.3-2.2,0.3
			c-1.1,0.1-2.2-0.2-3.1-0.8c-0.8-0.6-1.5-1.4-1.8-2.4c-0.8,0.9-1.7,1.7-2.8,2.3c-1.2,0.6-2.6,0.9-4,0.9c-1.1,0-2.3-0.1-3.4-0.4
			c-0.9-0.3-1.6-0.7-2.3-1.3c-0.6-0.5-1-1.2-1.3-1.9c-0.3-0.7-0.4-1.4-0.4-2.2c0-0.9,0.1-1.8,0.5-2.6c0.4-0.7,0.9-1.4,1.5-1.9
			c0.7-0.6,1.6-1,2.4-1.3c1-0.4,2.1-0.7,3.2-0.9c1.5-0.3,2.6-0.6,3.5-0.8c0.7-0.2,1.3-0.4,1.9-0.7c0.3-0.2,0.6-0.4,0.8-0.8
			c0.1-0.3,0.2-0.7,0.2-1c0-1.1-0.5-2.1-1.3-2.8c-1-0.8-2.3-1.2-3.7-1.2c-0.6,0-1.2,0.1-1.8,0.2c-0.6,0.1-1.2,0.3-1.8,0.6
			c-0.5,0.2-1.1,0.5-1.6,0.8c-0.4,0.2-0.8,0.6-1.1,0.9H27.7z M39.4,98.9c0-1.3,0-2.3,0-3s0-1.3,0-1.8c-0.7,0.4-1.5,0.7-2.3,0.9
			c-0.8,0.2-1.5,0.5-2.2,0.9c-1.6,0.7-2.5,2.4-2.3,4.1c-0.1,0.9,0.2,1.8,0.8,2.6c0.6,0.6,1.3,0.9,2.2,0.9c1,0,2.1-0.4,2.8-1.1
			C39.1,101.3,39.5,100.1,39.4,98.9"/>
		<path class="st0" d="M97,89.2c-0.4-1.7,0.4-3.5,2-4.3c0.6-0.3,1.3-0.5,1.9-0.8c1.6-0.5,3.3-0.8,5-0.8c1.3,0,2.6,0.1,3.8,0.4
			c1.1,0.2,2.1,0.7,3,1.3c0.9,0.6,1.5,1.4,2,2.3c0.5,1.1,0.7,2.2,0.7,3.4c0,1.9,0,3.7-0.1,5.4s-0.1,3.3-0.1,4.9c0,0.6,0,1.2,0.2,1.7
			c0.2,0.7,0.8,1.3,1.5,1.3c0.5,0.1,0.9,0.1,1.4,0.1v1.1c-1,0.4-1.8,0.6-2.5,0.8c-0.7,0.2-1.5,0.3-2.2,0.3c-1.1,0.1-2.2-0.2-3.1-0.8
			c-0.8-0.6-1.5-1.4-1.8-2.4c-0.8,0.9-1.7,1.7-2.8,2.3c-1.2,0.6-2.6,0.9-4,0.9c-1.1,0-2.3-0.1-3.4-0.4c-0.9-0.3-1.6-0.7-2.3-1.3
			c-0.6-0.5-1-1.2-1.3-1.9c-0.3-0.7-0.4-1.4-0.4-2.2c0-0.9,0.2-1.8,0.6-2.6c0.4-0.7,0.9-1.4,1.6-1.9c0.7-0.6,1.5-1,2.4-1.3
			c1-0.4,2.1-0.7,3.2-0.9c1.4-0.3,2.6-0.6,3.4-0.8c0.7-0.2,1.3-0.4,1.9-0.7c0.3-0.2,0.6-0.4,0.8-0.8c0.1-0.3,0.2-0.7,0.2-1
			c0-1.1-0.5-2.1-1.3-2.8c-1-0.8-2.3-1.2-3.7-1.2c-0.6,0-1.2,0.1-1.8,0.2c-0.6,0.1-1.2,0.3-1.8,0.6c-0.5,0.2-1.1,0.5-1.6,0.8
			c-0.4,0.2-0.8,0.6-1.1,0.9L97,89.2z M108.6,98.9c0-1.3,0-2.3,0-3s0-1.3,0-1.8c-0.7,0.4-1.5,0.7-2.3,0.9c-0.8,0.2-1.5,0.5-2.2,0.9
			c-1.6,0.7-2.5,2.3-2.3,4.1c-0.1,0.9,0.2,1.8,0.8,2.6c0.6,0.6,1.3,0.9,2.2,0.9c1,0,2.1-0.4,2.8-1.1
			C108.3,101.3,108.7,100.1,108.6,98.9"/>
		<path class="st0" d="M177.8,89.2c-0.4-1.8,0.4-3.6,2.1-4.3c0.6-0.3,1.3-0.5,1.9-0.8c1.6-0.5,3.3-0.8,5-0.8c1.3,0,2.6,0.1,3.8,0.4
			c1.1,0.2,2.1,0.7,3,1.3c0.8,0.6,1.5,1.4,2,2.3c0.5,1.1,0.7,2.2,0.7,3.4c0,1.9,0,3.7-0.1,5.4s-0.1,3.3-0.1,4.9c0,0.6,0,1.2,0.2,1.7
			c0.1,0.4,0.3,0.7,0.6,0.9c0.3,0.2,0.6,0.4,1,0.4c0.5,0.1,0.9,0.1,1.4,0.1v1.1c-1,0.4-1.9,0.6-2.6,0.8c-0.7,0.2-1.5,0.3-2.2,0.3
			c-1.1,0.1-2.2-0.2-3.1-0.8c-0.8-0.6-1.5-1.4-1.8-2.4c-0.8,0.9-1.7,1.7-2.8,2.3c-1.2,0.6-2.6,0.9-4,0.9c-1.1,0-2.3-0.1-3.4-0.4
			c-0.9-0.3-1.6-0.7-2.3-1.3c-0.6-0.5-1-1.2-1.3-1.9c-0.3-0.7-0.4-1.4-0.4-2.2c0-0.9,0.2-1.8,0.5-2.6c0.4-0.7,0.9-1.4,1.6-1.9
			c0.7-0.6,1.6-1,2.4-1.3c1-0.4,2.1-0.7,3.2-0.9c1.4-0.3,2.6-0.6,3.4-0.8c0.7-0.2,1.3-0.4,1.9-0.7c0.3-0.2,0.6-0.4,0.8-0.8
			c0.1-0.3,0.2-0.7,0.2-1c0-1.1-0.5-2.1-1.3-2.8c-1-0.8-2.3-1.2-3.7-1.2c-0.6,0-1.2,0.1-1.8,0.2c-0.6,0.1-1.2,0.3-1.8,0.6
			c-0.5,0.2-1.1,0.5-1.6,0.8c-0.4,0.2-0.8,0.6-1.1,0.9H177.8z M189.4,98.9c0-1.3,0-2.3,0-3s0-1.3,0-1.8c-0.7,0.4-1.5,0.7-2.3,0.9
			c-0.8,0.2-1.5,0.5-2.2,0.9c-1.6,0.7-2.5,2.4-2.3,4.1c-0.1,0.9,0.2,1.8,0.8,2.6c0.6,0.6,1.3,0.9,2.2,0.9c1,0,2.1-0.4,2.8-1.1
			C189.1,101.3,189.4,100.1,189.4,98.9"/>
		<path class="st0" d="M157.5,94.9c0,1.1,0.1,2.3,0.4,3.4c0.2,1,0.7,1.9,1.3,2.8c0.6,0.8,1.3,1.4,2.2,1.8c1,0.5,2,0.7,3.1,0.7
			c2.3,0,4.5-0.7,6.4-2l0.6,0.4l-1.1,2.6c-1,0.6-2,1.1-3.1,1.4c-1.6,0.4-3.2,0.6-4.8,0.5c-1.6,0-3.3-0.2-4.8-0.6
			c-1.5-0.4-2.8-1.1-4-2c-1.2-1-2.1-2.2-2.8-3.6c-0.7-1.6-1.1-3.4-1-5.2c0-1.8,0.3-3.5,0.9-5.1c0.6-1.4,1.4-2.6,2.5-3.6
			c1.1-1,2.4-1.7,3.8-2.2c1.6-0.5,3.2-0.7,4.8-0.7c3.4,0,6.1,0.9,7.9,2.6c1.8,1.8,2.7,4.2,2.7,7.4v1c0,0.2,0,0.4-0.1,0.5L157.5,94.9
			z M165.5,92.9c0-1.9-0.3-3.7-1-5.5c-0.4-1.2-1.6-2-2.9-2c-0.7,0-1.4,0.2-1.9,0.7c-0.5,0.5-1,1.1-1.3,1.8c-0.3,0.8-0.6,1.6-0.7,2.4
			c-0.2,0.9-0.2,1.8-0.3,2.7L165.5,92.9z"/>
		<path class="st0" d="M88.5,85.3c-1.5-1.3-3.5-2-5.5-2c-1.3-0.1-2.6,0.1-3.8,0.6c-1.9,0.8-3.5,2-4.7,3.7c-0.5-1.3-1.5-2.4-2.6-3.2
			c-1.2-0.8-2.6-1.1-4-1.1c-1.5,0-3.1,0.3-4.4,1c-1.1,0.6-2.2,1.5-3,2.5v-2.8h-3.9c-2.2,0-3.9,1.8-3.9,3.9l0,0v17.9h7.8v-14
			c0-0.9,0.2-1.9,0.7-2.7l0,0c0.7-1.2,2-1.9,3.4-1.8c1.2-0.2,2.4,0.4,3,1.5c0.3,0.6,0.1,1.4,0.2,2.4v10.7c0,2.2,1.8,3.9,3.9,3.9h3.8
			V90.4c0.1-0.4,0.3-0.9,0.5-1.3c0.3-0.5,0.7-1,1.3-1.3c0.6-0.3,1.3-0.5,2-0.5c1.2-0.1,2.3,0.4,3.1,1.3c0.5,0.6,0.3,1.5,0.4,2.5
			v14.6h7.8V91.2C90.5,88.5,89.8,86.5,88.5,85.3"/>
		<path class="st0" d="M144.9,93.8v12H141c-2.2,0-3.9-1.8-3.9-3.9V91.2c-0.1-0.9,0.1-1.7-0.2-2.4c-0.6-1.1-1.8-1.7-3-1.5
			c-1.4-0.1-2.7,0.6-3.4,1.8l0,0c-0.5,0.8-0.7,1.7-0.7,2.7v14H122V87.9c0-2.2,1.8-3.9,3.9-3.9c0,0,0,0,0,0h3.9v2.9
			c0.8-1,1.9-1.8,3-2.5c1.4-0.7,2.9-1,4.4-1c1.4,0,2.8,0.4,4,1.1c1.2,0.8,2.1,1.9,2.6,3.2C144.6,89.6,145,91.7,144.9,93.8"/>
		<path class="st0" d="M75.5,101.2c0,0-0.3,3.7,2.4,3.7v0.9h-6.5"/>
		<path class="st0" d="M144.9,101.2c0,0-0.3,3.7,2.4,3.7v0.9h-6.5"/>
	</g>
</g>
</svg>
