<?xml version="1.0" encoding="utf-8"?>
<!-- Generator: Adobe Illustrator 17.0.0, SVG Export Plug-In . SVG Version: 6.00 Build 0)  -->
<!DOCTYPE svg PUBLIC "-//W3C//DTD SVG 1.1//EN" "http://www.w3.org/Graphics/SVG/1.1/DTD/svg11.dtd">
<svg version="1.1" id="Layer_1" xmlns="http://www.w3.org/2000/svg" xmlns:xlink="http://www.w3.org/1999/xlink" x="0px" y="0px"
	 width="180px" height="96.123px" viewBox="0 0 180 96.123" enable-background="new 0 0 180 96.123" xml:space="preserve">
<path fill="#243877" d="M78.951,63.697c-3.811,1.133-10.672,1.212-14.362,3.135c6.285-1.3,16.963-0.593,24.617-0.94
	c7.418-0.336,10.833-0.088,16.896,0.301c-3.741-1.489-5.085-1.846-8.541-2.444c-3.147-0.544-3.93-1.689-4.254-4.25
	c-0.004-0.038-0.009-0.077-0.014-0.117c-0.185-1.666,0.274-3.234,0.952-4.795c0.414-0.957,0.773-1.939,1.173-2.903
	c0.249-0.601,0.54-1.188,1.022-1.618c0.581-0.52,0.991-1.155,1.312-1.878c0.321-0.72,0.59-1.475,1.086-2.097
	c0.353-0.441,1.151-0.884,1.695-1.034c1.001-0.277,2.021-0.47,3.028-0.725c0.849-0.214,1.704-0.446,2.381-1.101
	c0.28-0.27,0.552-0.561,0.89-0.754c1.488-0.852,3.094-1.272,4.74-1.516c1.186-0.177,2.365-0.465,3.577-0.382
	c1.287,0.086,2.437,0.444,3.275,1.607c0.641,0.892,1.426,1,2.365,0.378c0.607-0.402,1.237-0.541,1.931-0.446
	c0.238,0.033,0.475,0.094,0.714,0.104c0.877,0.037,1.766,0.152,2.626-0.101c0.448-0.132,0.881-0.197,1.346-0.185
	c0.95,0.027,1.221,0.435,0.689,1.272c-0.337,0.53-0.079,1.041,0.52,1.136c0.112,0.017,0.228,0.015,0.343,0.013
	c0.495-0.008,0.98-0.118,1.451-0.26c0.868-0.262,1.599-0.053,2.236,0.601c0.049,0.05,0.103,0.097,0.154,0.146
	c0.576,0.539,1.209,0.95,2.001,1.027c0.431,0.042,0.843,0.26,1.283,0.207c0.675-0.083,1.346-0.068,2.021,0.005
	c0.421,0.045,0.846,0.047,1.263-0.06c0.272-0.071,0.437-0.26,0.513-0.532c0.078-0.272-0.064-0.462-0.244-0.63
	c-0.154-0.147-0.321-0.281-0.514-0.358c-0.719-0.286-1.389-0.683-2.084-1.024c-0.347-0.17-0.718-0.239-1.103-0.212
	c-0.308,0.022-0.616,0.041-0.924,0.042c-0.272,0.001-0.55-0.044-0.641-0.37c-0.097-0.34,0.148-0.506,0.377-0.65
	c0.395-0.248,0.786-0.49,1.102-0.855c0.207-0.239,0.496-0.287,0.794-0.232c1.182,0.22,2.191,0.769,2.919,1.8
	c0.393,0.555,0.867,0.939,1.506,1.128c0.527,0.156,0.976,0.448,1.24,1.007c0.205,0.437,0.603,0.533,1.026,0.496
	c0.774-0.069,1.546-0.161,2.327-0.116c0.51,0.029,1.005-0.088,1.462-0.329c0.583-0.304,0.647-0.724,0.218-1.245
	c-0.291-0.353-0.669-0.582-1.033-0.834c-0.741-0.513-1.386-1.113-1.686-2.034c-0.057-0.174-0.165-0.318-0.28-0.454
	c-0.461-0.547-0.984-1.013-1.605-1.345c-0.322-0.172-0.667-0.303-1.025-0.189c-1.189,0.378-2.4,0.3-3.61,0.218
	c-0.399-0.028-0.795,0.025-1.198-0.027c-1.141-0.147-2.111-0.707-3.035-1.366c-0.655-0.467-1.358-0.736-2.135-0.824
	c-0.261-0.03-0.531-0.034-0.781-0.105c-1.056-0.3-2.077-0.288-3.073,0.248c-0.359,0.192-0.758,0.207-1.139,0.058
	c-0.923-0.357-1.867-0.567-2.856-0.503c-0.246,0.016-0.48-0.048-0.659-0.248c-0.327-0.358-0.259-0.709,0.173-0.891
	c0.663-0.279,1.344-0.4,2.049-0.214c0.383,0.1,0.751,0.068,1.109-0.092c0.928-0.414,1.901-0.381,2.873-0.317
	c0.3,0.02,0.59,0.042,0.881-0.051c0.297-0.096,0.582-0.077,0.865,0.077c0.161,0.085,0.342,0.136,0.519,0.182
	c0.909,0.236,1.825,0.068,2.734,0.011c0.677-0.042,1.324,0.022,1.96,0.246c0.281,0.099,0.628,0.206,0.644,0.566
	c0.015,0.345-0.297,0.52-0.565,0.665c-0.254,0.138-0.526,0.24-0.773,0.392c-0.327,0.2-0.316,0.457,0.012,0.653
	c0.284,0.169,0.604,0.245,0.916,0.294c0.672,0.105,1.357,0.171,1.954-0.284c0.269-0.206,0.559-0.323,0.876-0.389
	c0.769-0.159,1.526-0.068,2.275,0.137c0.929,0.255,1.766,0.725,2.585,1.239c0.593,0.373,1.073,0.81,1.178,1.589
	c0.056,0.411,0.301,0.69,0.675,0.846c0.248,0.102,0.458,0.27,0.652,0.463c0.183,0.185,0.377,0.361,0.617,0.455
	c0.511,0.199,0.975,0.485,1.382,0.863c0.716,0.669,1.546,0.779,2.441,0.595c0.335-0.069,0.717-0.04,0.984-0.28
	c0.667-0.6,1.207-1.322,1.631-2.133c0.127-0.247,0.033-0.446-0.227-0.539c-0.198-0.072-0.405-0.089-0.611-0.069
	c-0.911,0.09-1.788-0.251-2.695-0.232c-0.227,0.005-0.448-0.149-0.482-0.391c-0.035-0.245,0.206-0.318,0.388-0.389
	c0.224-0.087,0.452-0.164,0.693-0.199c0.306-0.045,0.607-0.119,0.911-0.173c0.834-0.148,1.659-0.313,2.52-0.217
	c0.574,0.065,1.159,0.16,1.742,0.051c0.411-0.077,0.529-0.341,0.279-0.694c-0.23-0.325-0.542-0.55-0.895-0.711
	c-1.137-0.517-2.314-0.629-3.529-0.419c-0.956,0.167-1.882,0.153-2.744-0.43c-0.683-0.46-1.406-0.475-2.161-0.132
	c-1.038,0.474-2.026,0.366-2.922-0.407c-0.242-0.209-0.241-0.299,0.032-0.471c0.475-0.298,0.991-0.243,1.505-0.214
	c0.893,0.051,1.774,0.207,2.651,0.361c0.993,0.175,2.008,0.147,2.989,0.418c0.328,0.091,0.657-0.002,0.96-0.174
	c0.24-0.136,0.468-0.279,0.442-0.62c-0.023-0.327-0.236-0.479-0.499-0.576c-0.297-0.108-0.507-0.292-0.617-0.625
	c-0.118-0.359-0.354-0.649-0.627-0.895c-0.273-0.246-0.598-0.343-0.928-0.182c-0.493,0.244-0.927,0.187-1.342-0.172
	c-0.334-0.291-0.707-0.343-1.128-0.236c-0.449,0.114-0.893,0.121-1.34-0.094c-0.38-0.183-0.799-0.202-1.214-0.108
	c-0.617,0.143-1.223,0.085-1.835-0.062c-0.537-0.13-1.078-0.163-1.632-0.047c-0.834,0.176-1.629,0.486-2.442,0.736
	c-0.552,0.169-1.454,0.168-2.016,0.036c-0.885-0.208-1.779-0.313-2.69-0.326c-0.811-0.012-1.617-0.172-2.431-0.14
	c-1.41,0.055-2.797,0.294-4.167,0.652c-0.201,0.053-0.409,0.069-0.612,0.029c-0.259-0.051-0.328-0.273-0.15-0.48
	c0.157-0.185,0.38-0.264,0.593-0.351c0.403-0.167,0.825-0.276,1.185-0.56c1.052-0.833,2.244-0.76,3.367-0.332
	c0.674,0.258,1.258,0.489,1.991,0.319c0.92-0.213,1.872-0.04,2.809-0.088c0.58-0.029,1.13-0.184,1.627-0.509
	c0.126-0.082,0.249-0.199,0.218-0.381c-0.031-0.181-0.186-0.246-0.331-0.274c-0.832-0.163-1.665-0.335-2.515-0.134
	c-0.577,0.136-1.06-0.084-1.502-0.44c-0.356-0.283-0.337-0.538,0.049-0.784c0.356-0.226,0.756-0.347,1.148-0.475
	c0.731-0.237,1.458-0.305,2.152,0.156c0.193,0.128,0.407,0.222,0.615,0.322c1.372,0.658,2.777,1.145,4.315,0.842
	c0.418-0.082,0.801,0.001,1.158,0.209c0.259,0.151,0.511,0.327,0.737,0.527c0.478,0.425,1.019,0.544,1.609,0.399
	c0.688-0.169,1.33-0.085,1.964,0.246c0.571,0.298,1.163,0.376,1.798,0.162c0.465-0.157,0.957-0.239,1.442-0.315
	c0.799-0.124,1.157,0.338,0.909,1.14c-0.007,0.022-0.015,0.045-0.023,0.068c-0.226,0.727-0.03,1.097,0.668,1.291
	c1.247,0.347,2.468,0.241,3.67-0.228c0.104-0.04,0.21-0.103,0.291-0.183c0.243-0.24,0.185-0.518-0.124-0.65
	c-0.153-0.063-0.315-0.059-0.474-0.076c-0.394-0.041-0.525-0.185-0.526-0.563c-0.001-0.602,0.143-0.879,0.517-0.91
	c0.352-0.031,0.709-0.015,1.064-0.017c0.903-0.004,1.005-0.117,0.955-1.073c-0.063-1.212-0.84-2.177-1.89-2.331
	c-0.458-0.068-0.91,0.043-1.314,0.235c-0.829,0.392-2.298,0.702-3.211,0.791c-1.13,0.108-2.257,0.103-3.367-0.261
	c-0.884-0.288-1.757-0.636-2.711-0.521c-0.138,0.016-0.301-0.031-0.324-0.202c-0.027-0.207,0.166-0.197,0.286-0.237
	c0.501-0.167,1.023-0.114,1.534-0.142c1.01-0.056,2.03-0.229,3.013,0.214c0.818,0.37,1.596,0.121,2.35-0.239
	c0.412-0.195,0.658-0.627,0.603-1.006c-0.065-0.465-0.406-0.605-0.776-0.706c-0.866-0.235-1.739-0.397-2.642-0.365
	c-0.552,0.021-0.876-0.347-0.797-0.826c0.075-0.444-0.038-0.649-0.446-0.79c-0.391-0.135-0.783-0.093-1.186-0.027
	c-0.956,0.157-1.903,0.208-2.832-0.218c-0.705-0.324-1.446-0.493-2.236-0.477c-0.599,0.013-1.213-0.066-1.776-0.34
	c-0.131-0.062-0.311-0.131-0.291-0.315c0.019-0.183,0.202-0.214,0.347-0.242c0.75-0.145,1.506-0.121,2.252,0
	c1.164,0.188,2.285,0.615,3.468,0.703c0.197,0.014,0.404,0.041,0.544-0.136c0.158-0.198,0.026-0.397-0.06-0.573
	c-0.515-1.061-1.25-1.914-2.246-2.477c-0.812-0.461-1.686-0.581-2.481-0.005c-0.818,0.592-1.68,0.835-2.654,0.735
	c-0.721-0.075-1.338,0.188-1.903,0.663c-0.659,0.552-1.867,0.475-2.503-0.112c-0.328-0.304-0.438-0.723-0.297-1.145
	c0.141-0.423,0.47-0.67,0.914-0.691c0.266-0.012,0.525,0.024,0.785,0.075c0.992,0.191,1.981,0.198,2.956-0.112
	c0.534-0.171,0.864-0.707,0.719-1.263c-0.182-0.696-0.564-1.242-1.26-1.454c-0.528-0.161-1.071-0.272-1.617-0.32
	c-1.115-0.101-2.199-0.308-3.191-0.895c-0.128-0.076-0.279-0.108-0.415-0.173c-0.697-0.327-1.31-0.203-1.858,0.356
	c-0.309,0.314-0.675,0.527-1.092,0.661c-0.477,0.153-0.907,0.409-1.222,0.833c-0.133,0.18-0.306,0.37-0.207,0.617
	c0.106,0.262,0.358,0.214,0.572,0.218c0.467,0.006,0.932-0.091,1.402-0.004c0.539,0.101,1.094,0.101,1.61,0.336
	c0.295,0.134,0.374,0.371,0.241,0.647c-0.323,0.67-0.836,1.116-1.542,1.27c-0.306,0.068-0.549-0.108-0.58-0.359
	c-0.07-0.565-0.243-0.742-0.775-0.768c-0.402-0.021-0.802-0.006-1.193,0.11c-0.949,0.282-1.888,0.597-2.768,1.071
	c-0.476,0.256-0.953,0.537-1.262,1.033c-0.338,0.544-0.138,1.189,0.444,1.412c0.15,0.058,0.311,0.097,0.469,0.105
	c0.609,0.028,1.202,0.153,1.796,0.285c1.155,0.256,2.302,0.544,3.463-0.026c0.279-0.137,0.635-0.104,0.941,0.039
	c0.274,0.13,0.295,0.368,0.058,0.561c-0.148,0.12-0.33,0.161-0.506,0.214c-0.319,0.093-0.66,0.103-0.962,0.259
	c-0.305,0.158-0.343,0.329-0.185,0.641c0.304,0.597,0.797,0.845,1.41,0.867c0.588,0.022,1.162-0.098,1.725-0.263
	c0.473-0.138,0.952-0.145,1.43-0.064c0.403,0.068,0.807,0.095,1.19-0.04c0.833-0.296,1.504-0.035,2.078,0.61
	c0.211,0.239,0.463,0.385,0.752,0.482c0.339,0.111,0.677,0.229,0.985,0.421c0.123,0.077,0.228,0.176,0.206,0.346
	c-0.023,0.186-0.17,0.207-0.307,0.23c-0.524,0.087-1.049,0.078-1.575,0.026c-0.398-0.039-0.795-0.139-1.196-0.076
	c-0.496,0.078-0.982,0.041-1.464-0.081c-0.913-0.232-1.824-0.459-2.777-0.378c-0.337,0.028-0.658-0.091-0.939-0.298
	c-0.421-0.313-0.897-0.404-1.397-0.423c-0.414-0.016-0.82,0.058-1.23,0.098c-0.615,0.06-1.228,0.166-1.845,0.04
	c-0.101-0.021-0.22-0.027-0.253-0.151c-0.036-0.131,0.072-0.194,0.154-0.256c0.186-0.139,0.379-0.269,0.534-0.451
	c0.351-0.414,0.322-0.845-0.078-1.199c-0.335-0.294-0.749-0.402-1.138-0.577c-0.992-0.446-1.764-0.205-2.382,0.725
	c-0.242,0.366-0.611,0.54-1.033,0.654c-1.359,0.368-2.724,0.261-4.092,0.13c-0.644-0.062-1.282-0.035-1.906,0.15
	c-0.443,0.131-0.493,0.326-0.219,0.701c0.028,0.039,0.058,0.075,0.088,0.111c0.197,0.233,0.127,0.418-0.096,0.567
	c-0.158,0.105-0.335,0.155-0.52,0.17c-0.388,0.032-0.775,0.059-1.164,0.091c-0.434,0.034-0.871,0.071-1.256,0.317
	c-0.385,0.247-0.42,0.549-0.119,0.894c0.253,0.291,0.574,0.422,0.938,0.478c0.514,0.077,1.027-0.033,1.541,0.002
	c0.459,0.03,0.884,0.141,1.205,0.52c0.092,0.108,0.183,0.233,0.114,0.39c-0.062,0.143-0.2,0.143-0.326,0.155
	c-0.319,0.03-0.609-0.085-0.9-0.196c-0.515-0.197-1.045-0.301-1.584-0.165c-0.827,0.209-1.645,0.259-2.471-0.013
	c-0.446-0.148-0.853,0.011-1.242,0.251c-0.375,0.232-0.733,0.5-1.145,0.659c-0.139,0.055-0.305,0.101-0.408-0.058
	c-0.106-0.164-0.046-0.341,0.075-0.463c0.174-0.174,0.364-0.329,0.56-0.477c0.141-0.106,0.279-0.212,0.382-0.359
	c0.221-0.319,0.156-0.512-0.204-0.595c-0.145-0.033-0.297-0.031-0.442-0.063c-0.237-0.053-0.489-0.106-0.548-0.413
	c-0.056-0.296,0.123-0.465,0.329-0.622c0.591-0.445,1.23-0.457,1.904-0.277c0.41,0.11,0.818,0.098,1.19-0.16
	c0.218-0.151,0.249-0.336,0.076-0.545c-0.106-0.128-0.229-0.237-0.335-0.364c-0.29-0.348-0.193-0.718,0.234-0.814
	c0.277-0.064,0.561-0.1,0.852-0.067c1.377,0.158,2.737,0.161,4.044-0.454c0.417-0.197,0.888-0.27,1.342-0.275
	c0.6-0.01,1.148-0.19,1.693-0.417c0.402-0.168,0.796-0.168,1.201,0.007c0.361,0.154,0.74,0.258,1.131,0.291
	c0.509,0.045,0.848-0.227,0.75-0.674c-0.253-1.135-0.744-2.035-1.965-2.026c-1.051,0.009-2.019,0.346-2.906,0.881
	c-0.845,0.511-1.71,0.853-2.681,0.906c-0.271,0.015-0.499-0.046-0.682-0.259c-0.181-0.211-0.174-0.409,0.05-0.585
	c0.185-0.146,0.389-0.253,0.602-0.345c0.827-0.36,1.709-0.542,2.542-0.883c0.86-0.352,0.862-0.345,0.546-1.238
	c-0.003-0.011-0.007-0.023-0.012-0.034c-0.129-0.308-0.014-0.509,0.25-0.65c0.357-0.189,0.658-0.143,0.967,0.26
	c0.379,0.493,0.866,0.686,1.435,0.735c0.137,0.011,0.273,0.043,0.41,0.046c0.764,0.015,1.522-0.011,2.113-0.632
	c0.252-0.265,0.215-0.517-0.088-0.71c-0.22-0.14-0.47-0.19-0.713-0.259c-0.42-0.121-0.768-0.37-1.089-0.666
	c-0.077-0.071-0.155-0.162-0.105-0.284c0.042-0.103,0.145-0.113,0.237-0.11c0.183,0.005,0.366,0.018,0.547,0.034
	c0.96,0.086,1.887,0.385,2.843,0.501c0.479,0.058,0.826-0.125,1.079-0.537c0.341-0.557,0.317-1.32-0.05-1.843
	c-0.392-0.559-0.887-0.715-1.585-0.499c-0.088,0.027-0.173,0.062-0.262,0.086c-0.606,0.173-1.223,0.206-1.837,0.085
	c-0.449-0.087-0.525-0.398-0.22-0.756c0.324-0.382,0.748-0.5,1.21-0.482c0.894,0.035,1.72-0.24,2.521-0.614
	c0.576-0.268,0.723-0.937,0.338-1.474c-0.198-0.277-0.462-0.47-0.754-0.618c-0.573-0.291-1.177-0.48-1.812-0.519
	c-1.044-0.064-2.011-0.381-2.848-1.039c-0.704-0.552-1.448-0.762-2.316-0.626c-1.001,0.156-1.836,0.553-2.393,1.494
	c-0.455,0.767-0.729,0.842-1.513,0.489c-0.116-0.051-0.229-0.11-0.338-0.176c-0.285-0.176-0.572-0.388-0.544-0.77
	c0.026-0.351,0.354-0.458,0.619-0.553c0.541-0.193,1.1-0.336,1.641-0.53c1.002-0.359,1.776-1.045,2.353-1.968
	c0.308-0.492,0.11-0.892-0.401-0.847c-0.396,0.036-0.776-0.026-1.162-0.069c-0.541-0.06-1.107-0.068-1.523-0.537
	c-0.302-0.343-0.672-0.433-1.098-0.34c-0.498,0.11-0.957,0-1.369-0.309c-0.3-0.223-0.595-0.452-0.882-0.692
	c-0.616-0.512-1.302-0.681-2.067-0.524c-0.079,0.016-0.161,0.013-0.238,0.033c-0.387,0.101-0.775-0.01-1.161,0.007
	c-0.228,0.01-0.429,0.09-0.522,0.341c-0.091,0.243-0.026,0.455,0.134,0.634c0.109,0.122,0.236,0.229,0.362,0.331
	c0.236,0.192,0.489,0.361,0.714,0.567c0.372,0.339,0.34,0.797-0.056,1.105c-0.55,0.427-1.308,0.422-1.855-0.019
	c-0.284-0.227-0.517-0.512-0.748-0.797c-0.202-0.249-0.412-0.488-0.676-0.665c-0.773-0.522-1.352-0.279-1.522,0.672
	c-0.095,0.534-0.327,0.883-0.84,1.016c-0.575,0.149-1.18,0.254-1.61-0.252c-0.549-0.646-0.839-1.449-0.749-2.338
	c0.067-0.657,0.331-0.865,0.954-0.875c0.286-0.005,0.572-0.001,0.856-0.059c0.192-0.04,0.353-0.12,0.406-0.336
	c0.056-0.226-0.07-0.385-0.236-0.477c-0.553-0.308-0.934-0.799-1.33-1.289c-0.496-0.615-1.07-0.733-1.714-0.314
	c-0.52,0.338-1.054,0.623-1.621,0.858c-0.442,0.183-0.524,0.461-0.344,0.932c0.039,0.101,0.088,0.197,0.129,0.297
	c0.115,0.272,0.227,0.562,0.001,0.814c-0.258,0.287-0.597,0.41-0.972,0.328c-0.318-0.071-0.472-0.319-0.525-0.644
	C98,3.47,97.949,3.225,97.82,3.001c-0.382-0.658-0.862-1.219-1.462-1.663c-0.602-0.446-1.2-0.571-1.883-0.14
	c-0.708,0.445-1.466,0.774-2.298,0.916c-0.883,0.151-1.702,0.106-2.451-0.483c-0.39-0.307-0.867-0.433-1.327-0.58
	c-0.388-0.123-0.749-0.291-1.067-0.565c-0.245-0.214-0.542-0.318-0.86-0.315c-0.424,0.004-0.843-0.022-1.258-0.131
	c-0.22-0.058-0.462-0.06-0.678,0.04c-0.668,0.312-1.329,0.637-2.03,0.871c-0.37,0.123-0.427,0.411-0.256,0.792
	c0.17,0.38,0.447,0.667,0.727,0.956c0.358,0.369,0.33,0.636-0.096,0.926c-0.133,0.092-0.282,0.16-0.432,0.218
	c-0.69,0.261-1.402,0.344-2.129,0.266c-0.868-0.091-1.166-0.466-0.719-1.303c0.268-0.501,0.109-0.849-0.406-1.035
	c-0.177-0.064-0.359-0.088-0.542-0.072C77.935,1.76,77.219,1.832,76.5,1.892c-0.59,0.049-1.032,0.304-1.306,0.897
	c-0.196,0.425-0.551,0.555-0.984,0.451c-0.189-0.044-0.387-0.081-0.56-0.167c-0.902-0.446-1.78-0.292-2.66,0.077
	c-0.308,0.13-0.572,0.304-0.748,0.607c-0.222,0.379-0.56,0.559-0.965,0.613c-0.568,0.076-1.134,0.161-1.703,0.209
	c-0.561,0.047-1.148,0.07-1.645-0.236c-0.561-0.346-1.072-0.258-1.593,0.03c-1.112,0.613-2.276,1.071-3.499,1.365
	c-0.577,0.139-0.969,0.523-1.166,1.12c-0.127,0.388-0.044,0.708,0.262,0.97c0.494,0.423,1.037,0.657,1.684,0.547
	c0.371-0.063,0.71-0.017,0.946,0.343c0.226,0.345,0.178,0.59-0.188,0.744c-0.306,0.13-0.551,0.33-0.778,0.576
	c-0.594,0.637-0.949,0.695-1.715,0.297c-0.359-0.187-0.703-0.403-1.075-0.566c-0.423-0.183-0.799-0.143-1.156,0.162
	c-0.205,0.174-0.417,0.34-0.632,0.501c-0.467,0.349-0.994,0.518-1.522,0.256c-0.76-0.377-1.575-0.491-2.374-0.693
	c-0.29-0.072-0.585-0.112-0.886-0.099c-0.489,0.022-0.706,0.298-0.628,0.806c0.034,0.214,0.084,0.428,0.098,0.644
	c0.037,0.619-0.267,0.962-0.847,0.964c-0.193,0.001-0.391-0.006-0.58-0.048c-0.638-0.138-1.241-0.078-1.831,0.243
	c-0.405,0.22-0.841,0.382-1.265,0.561c-0.29,0.121-0.587,0.183-0.903,0.195c-1.416,0.048-2.446,0.799-3.155,2.052
	c-0.364,0.646-0.245,0.897,0.425,1.165c0.612,0.245,1.215,0.515,1.735,0.941c0.538,0.44,0.488,0.818-0.142,1.067
	c-0.361,0.144-0.596,0.392-0.727,0.764c-0.091,0.261-0.178,0.523-0.271,0.784c-0.086,0.243-0.248,0.352-0.501,0.354
	c-0.622,0.005-0.871-0.228-0.92-0.887c-0.033-0.431-0.132-0.842-0.591-0.957c-0.836-0.211-1.691-0.215-2.419,0.304
	c-0.897,0.641-1.48,1.59-1.886,2.642c-0.139,0.36-0.272,0.617-0.668,0.721c-0.72,0.192-1.195,0.928-1.179,1.708
	c0.01,0.466-0.058,0.577-0.5,0.668c-0.436,0.091-0.883,0.13-1.321,0.221c-0.697,0.142-1.231,0.393-0.741,1.431
	c0.02,0.043,0.034,0.09,0.048,0.135c0.239,0.712-0.005,1.029-0.708,0.89c-1.391-0.275-2.454,0.37-2.878,1.836
	c-0.248,0.854-0.768,1.501-1.424,2.04c-0.238,0.196-0.502,0.323-0.809,0.368c-0.443,0.066-0.882,0.182-1.274,0.415
	c-0.899,0.534-1.552,1.245-1.445,2.449c0.037,0.418-0.187,0.605-0.524,0.734c-0.851,0.327-1.321,1.039-1.65,1.883
	c-0.067,0.171-0.066,0.364-0.007,0.535c0.267,0.78,0.017,1.365-0.584,1.834c-0.268,0.208-0.423,0.508-0.522,0.835
	c-0.174,0.577,0.051,0.901,0.623,0.894c0.182-0.002,0.37-0.005,0.544-0.054c0.617-0.174,1.244-0.211,1.874-0.167
	c0.629,0.045,1.209,0.272,1.698,0.702c0.427,0.377,0.716,0.435,1.202,0.143c0.218-0.132,0.43-0.282,0.621-0.453
	c0.632-0.567,1.375-0.679,2.162-0.604c0.326,0.032,0.628,0.152,0.834,0.445c0.189,0.27,0.139,0.505-0.143,0.652
	c-0.164,0.084-0.34,0.145-0.516,0.197c-0.643,0.193-1.256,0.46-1.796,0.881c-0.184,0.143-0.378,0.319-0.303,0.601
	c0.081,0.301,0.338,0.383,0.594,0.408c0.365,0.035,0.73-0.001,1.095-0.042c0.784-0.086,1.534-0.004,2.156,0.593
	c0.146,0.141,0.324,0.224,0.513,0.285c0.929,0.295,1.856,0.162,2.782-0.023c0.056-0.011,0.11-0.038,0.16-0.066
	c0.224-0.128,0.271-0.31,0.144-0.545c-0.107-0.197-0.276-0.328-0.45-0.44c-0.371-0.237-0.557-0.592-0.643-1.024
	c-0.112-0.561,0.05-0.836,0.589-0.915c1.392-0.201,2.675,0.181,3.839,0.987c0.378,0.261,0.846,0.284,1.258,0.08
	c0.89-0.44,1.841-0.619,2.801-0.775c0.799-0.129,1.48-0.486,1.98-1.184c0.314-0.438,0.738-0.669,1.255-0.731
	c0.318-0.04,0.636-0.095,0.946-0.175c0.483-0.127,0.958-0.136,1.412,0.085c0.617,0.3,1.174,0.2,1.714-0.199
	c0.322-0.238,0.678-0.408,1.07-0.469c1.085-0.168,2.145-0.088,3.156,0.398c0.394,0.189,0.802,0.278,1.235,0.249
	c0.615-0.04,1.234-0.127,1.846-0.098c1.275,0.06,2.55,0.151,3.815,0.33c1.112,0.157,2.87,0.651,3.915,1.06
	c1.957,0.765,3.931,1.475,5.943,2.068c0.778,0.229,1.508,0.572,2.208,0.983c1.184,0.696,2.222,1.621,3.308,2.467
	c0.664,0.518,1.319,1.044,1.878,1.693c0.52,0.605,0.926,1.293,1.272,2.018c0.33,0.692,0.154,1.397-0.021,2.09
	c-0.247,0.982,0.051,1.78,0.704,2.474c0.446,0.474,0.965,0.853,1.457,1.267c0.576,0.482,0.915,1.086,1.01,1.867
	C83.384,58.146,82.214,63.053,78.951,63.697 M111.209,9.62c0.101-0.145,0.221-0.278,0.346-0.402
	c0.476-0.469,0.843-1.012,1.069-1.663c0.151-0.441,0.369-0.579,0.875-0.577c0.117,0.024,0.301,0.043,0.473,0.105
	c0.718,0.259,0.885,0.858,0.424,1.497c-0.21,0.293-0.484,0.51-0.761,0.727c-0.498,0.392-1.053,0.681-1.592,0.997
	c-0.121,0.071-0.252,0.115-0.392,0.124c-0.215,0.014-0.374-0.075-0.489-0.267C111.045,9.964,111.099,9.782,111.209,9.62
	 M109.387,13.809c0.264-0.105,0.54-0.111,0.814-0.087c0.718,0.064,1.438,0.105,2.14,0.301c0.636,0.178,1.253,0.117,1.889-0.081
	c1.857-0.578,3.689-0.395,5.482,0.33c0.247,0.101,0.475,0.246,0.624,0.491c0.192,0.319,0.119,0.551-0.218,0.682
	c-0.414,0.162-0.827,0.119-1.246-0.006c-0.715-0.212-1.404-0.521-2.145-0.641c-0.308-0.05-0.616-0.055-0.923-0.022
	c-0.272,0.028-0.498,0.169-0.675,0.395c-0.188,0.241-0.183,0.473,0.062,0.654c0.248,0.182,0.396,0.417,0.49,0.717
	c0.112,0.365,0.417,0.507,0.74,0.573c0.425,0.088,0.86,0.127,1.287,0.209c0.464,0.089,0.623,0.257,0.611,0.592
	c-0.014,0.37-0.22,0.628-0.659,0.636c-1.381,0.025-2.68-0.18-3.473-1.608c-0.578-1.04-1.484-1.417-2.719-1.362
	c-0.402,0.025-0.939,0.098-1.464-0.098c-0.374-0.139-0.723-0.306-0.943-0.68C108.822,14.395,108.96,13.978,109.387,13.809
	 M105.32,17.727c0.126-0.667,0.246-0.772,0.909-0.747c0.488,0.018,0.95,0.157,1.378,0.401c0.135,0.076,0.306,0.186,0.251,0.387
	c-0.052,0.196-0.242,0.204-0.403,0.2c-0.217-0.005-0.433-0.051-0.649-0.046c-0.372,0.007-0.51,0.283-0.308,0.617
	c0.233,0.387,0.582,0.604,1.001,0.704c0.396,0.093,0.772,0.236,1.053,0.567c0.067,0.078,0.165,0.163,0.102,0.283
	c-0.051,0.099-0.161,0.071-0.251,0.071c-0.352,0-0.68-0.107-0.979-0.296c-0.468-0.295-0.966-0.427-1.51-0.377
	c-0.278,0.025-0.548-0.034-0.804-0.152c-0.868-0.403-1.708-0.331-2.544,0.125c-0.341,0.187-0.686,0.379-1.083,0.442
	c-0.313,0.048-0.57-0.01-0.771-0.267c-0.34-0.435-0.751-0.598-1.281-0.454c-0.306,0.083-0.619,0.037-0.895-0.143
	c-0.483-0.311-0.995-0.485-1.567-0.405c-0.056,0.008-0.115,0.001-0.172-0.003c-0.134-0.009-0.254-0.046-0.279-0.211
	c-0.024-0.158,0.063-0.26,0.188-0.31c0.86-0.354,1.7-0.796,2.659-0.785c0.206-0.006,0.41,0.017,0.612,0.065
	c0.651,0.16,1.305,0.196,1.976,0.133c0.598-0.056,1.124,0.288,1.67,0.496c0.302,0.115,0.605,0.221,0.922,0.278
	C105.016,18.384,105.227,18.225,105.32,17.727 M98.921,11.799c1.184-0.121,2.339-0.441,3.519-0.598
	c0.596-0.08,1.107,0.039,1.522,0.532c0.182,0.216,0.39,0.41,0.602,0.592c0.304,0.258,0.43,0.598,0.408,0.988
	c-0.02,0.335-0.024,0.675-0.118,1.006c-0.083,0.289-0.255,0.457-0.523,0.509c-0.467,0.088-0.88-0.079-1.265-0.339
	c-0.139-0.095-0.156-0.243-0.131-0.419c0.127-0.91-0.007-1.06-0.908-1.043c-0.615,0-1.207,0.153-1.769,0.393
	c-0.668,0.286-1.332,0.334-2.009,0.095c-0.894-0.318-1.765-0.338-2.628,0.122c-0.224,0.12-0.48,0.169-0.736,0.115
	c-0.339-0.07-0.444-0.365-0.219-0.641c0.257-0.316,0.613-0.464,0.986-0.547c0.413-0.091,0.832-0.154,1.248-0.228
	c0.374-0.065,0.744-0.138,1.091-0.303C98.288,11.892,98.6,11.831,98.921,11.799 M90.786,7.289c1.108-0.531,2.248-0.89,3.485-0.697
	c0.385,0.061,0.719,0.233,0.992,0.529c0.463,0.502,1.02,0.809,1.673,0.925c0.284,0.051,0.557,0.14,0.813,0.28
	c0.165,0.089,0.326,0.193,0.315,0.429c-0.011,0.251-0.159,0.392-0.364,0.477c-0.398,0.164-0.818,0.229-1.239,0.278
	c-0.476,0.056-0.94,0.211-1.42,0.185c-0.656,0.037-1.226-0.207-1.726-0.613c-0.567-0.46-1.176-0.776-1.892-0.871
	c-0.32-0.042-0.632-0.146-0.758-0.527C90.608,7.514,90.612,7.373,90.786,7.289 M89.592,19.322c0.371-0.363,0.458-0.787,0.268-1.286
	c-0.102-0.269-0.214-0.535-0.329-0.798c-0.125-0.284-0.086-0.542,0.102-0.776c0.267-0.334,0.574-0.628,0.937-0.84
	c0.526-0.307,0.965-0.103,1.138,0.506c0.024,0.082,0.038,0.165,0.058,0.247c0.189,0.796,0.451,1.014,1.221,1.039
	c0.182,0.007,0.364,0.036,0.543,0.072c0.211,0.042,0.359,0.183,0.383,0.409c0.021,0.213-0.137,0.329-0.301,0.394
	c-0.3,0.119-0.6,0.24-0.911,0.315c-0.727,0.176-1.309,0.527-1.665,1.261c-0.212,0.435-0.581,0.721-1.031,0.845
	c-0.65,0.181-1.262,0.518-1.998,0.54c-0.543-0.053-1.109-0.168-1.588-0.574c-0.117-0.1-0.219-0.213-0.296-0.347
	c-0.278-0.481-0.042-0.949,0.489-0.955c0.579-0.006,1.121,0.224,1.682,0.334C88.793,19.806,89.224,19.683,89.592,19.322
	 M84.544,10.991c0.452-0.067,0.911-0.077,1.324-0.11c0.558,0.035,1.072,0.063,1.551,0.296c0.728,0.353,0.859,1.014,0.252,1.563
	c-0.463,0.419-0.787,0.891-0.918,1.52c-0.026,0.125-0.095,0.247-0.168,0.353c-0.265,0.391-0.521,0.413-0.849,0.075
	c-0.256-0.264-0.452-0.579-0.648-0.89c-0.222-0.35-0.503-0.614-0.864-0.802c-0.553-0.288-0.735-0.601-0.664-1.052
	C83.645,11.413,83.969,11.074,84.544,10.991 M63.911,12.437c0.041-0.057,0.094-0.107,0.149-0.147
	c0.611-0.437,1.166-0.933,1.585-1.585c0.123-0.189,0.312-0.318,0.513-0.417c0.469-0.23,0.913-0.499,1.313-0.85
	c0.279-0.245,0.606-0.283,0.941-0.177c0.468,0.15,0.893,0.19,1.317-0.18c0.292-0.254,0.69-0.228,0.946,0.065
	c0.63,0.727,1.448,0.825,2.29,0.846c0.82,0.02,1.593,0.326,2.401,0.41c0.423,0.044,0.844,0.066,1.261-0.049
	c0.451-0.125,0.729-0.422,0.848-0.902c0.261-1.06,0.585-1.315,1.613-1.333c0.976-0.018,1.932-0.179,2.869-0.476
	c0.611-0.193,1.224-0.422,1.88-0.235c0.374,0.106,0.614,0.347,0.619,0.692c-0.023,0.308-0.271,0.389-0.546,0.42
	c-0.41,0.046-0.821,0.071-1.229,0.116C82.37,8.669,82.08,8.781,81.81,8.95c-0.297,0.187-0.613,0.322-0.955,0.389
	c-0.171,0.033-0.347,0.091-0.46,0.229c-0.458,0.555-0.993,1.037-1.389,1.649c-0.077,0.118-0.136,0.252-0.193,0.383
	c-0.446,1.047-0.224,1.632,0.782,2.055c0.457,0.194,0.918,0.383,1.299,0.725c0.152,0.137,0.353,0.286,0.228,0.544
	c-0.121,0.247-0.333,0.297-0.588,0.236c-0.578-0.141-1.102-0.417-1.586-0.759c-0.799-0.565-1.603-1.123-2.297-1.835
	c-0.296-0.306-0.67-0.462-1.056-0.579c-0.566-0.17-1.1-0.41-1.596-0.743c-0.663-0.446-1.358-0.571-2.157-0.483
	c-1.189,0.131-2.372,0.376-3.58,0.312c-0.548-0.028-1.021,0.21-1.45,0.565c-0.66,0.546-1.372,1.007-2.147,1.351
	c-0.115,0.052-0.236,0.091-0.357,0.129c-0.188,0.057-0.391,0.123-0.527-0.096C63.636,12.79,63.782,12.61,63.911,12.437
	 M82.952,18.759c-0.024,0.278-0.309,0.549-0.661,0.583c-0.457,0.044-0.88,0.196-1.244,0.475c-0.797,0.609-1.601,0.575-2.401,0.052
	c-0.763-0.499-1.57-0.538-2.413-0.35c-0.249,0.056-0.5,0.049-0.752,0.043c-0.202-0.005-0.397-0.054-0.453-0.302
	c-0.054-0.242,0.047-0.429,0.237-0.555c0.489-0.321,1.041-0.418,1.601-0.478c0.148-0.015,0.298-0.002,0.435-0.002
	c0.523-0.054,1.014,0.07,1.494,0.228c0.52,0.168,0.997,0.114,1.495-0.121c0.602-0.283,1.246-0.39,1.907-0.258
	c0.068,0.013,0.136,0.025,0.201,0.046C82.773,18.241,82.977,18.479,82.952,18.759 M53.155,21.987
	c0.391-0.187,0.811-0.267,1.229-0.322c0.849-0.113,1.648-0.397,2.445-0.704c1.129-0.436,2.267-0.846,3.448-1.092
	c1.15-0.24,2.255-0.155,3.257,0.574c0.256,0.187,0.543,0.339,0.856,0.35c0.837,0.029,1.58,0.363,2.318,0.726
	c0.854,0.42,1.75,0.638,2.693,0.624c0.69-0.008,0.93-0.366,0.716-1.062c-0.3-0.971-0.983-1.482-1.874-1.736
	c-0.508-0.144-1.035-0.207-1.519-0.445c-0.284-0.139-0.549-0.305-0.747-0.564c-0.236-0.309-0.187-0.669,0.165-0.802
	c0.73-0.277,1.497-0.46,2.223-0.027c0.508,0.303,0.984,0.385,1.533,0.166c0.339-0.136,0.702-0.223,1.076-0.198
	c0.197,0.013,0.364,0.079,0.422,0.3c0.053,0.207-0.054,0.347-0.203,0.459c-0.141,0.103-0.289,0.198-0.428,0.302
	c-0.428,0.314-0.516,0.608-0.321,1.125c0.212,0.561,0.592,1.002,0.959,1.449c0.196,0.238,0.389,0.479,0.606,0.692
	c0.53,0.525,1.168,0.757,1.886,0.652c0.444-0.063,0.878-0.176,1.319-0.002c0.432,0.169,0.588,0.626,0.237,0.932
	c-0.808,0.709-1.597,1.537-2.82,1.211c-0.738-0.197-1.453,0.043-2.173,0.164c-0.513,0.086-1.026,0.088-1.535-0.028
	c-0.394-0.09-0.496-0.269-0.415-0.675c0.132-0.656,0.076-0.711-0.536-0.901c-1.256-0.39-2.562-0.507-3.83-0.828
	c-0.61-0.154-1.177-0.385-1.707-0.734c-0.36-0.238-0.748-0.415-1.16-0.535c-0.625-0.182-1.201-0.058-1.661,0.406
	c-0.517,0.524-1.128,0.65-1.753,0.632c-0.657-0.06-1.23,0.052-1.75,0.415c-0.114,0.079-0.247,0.13-0.363,0.206
	c-0.337,0.225-0.653,0.242-0.967-0.06c-0.326-0.313-0.717-0.346-1.129-0.238c-0.111,0.029-0.221,0.062-0.333,0.086
	c-0.18,0.037-0.332-0.03-0.388-0.211C52.871,22.107,53.034,22.046,53.155,21.987 M53.12,37.436
	c-0.274,0.012-0.548,0.002-0.888,0.002c-0.52-0.074-1.07,0.052-1.606,0.299c-0.462,0.212-0.935,0.401-1.441,0.463
	c-0.413,0.049-0.803-0.019-1.106-0.354c-0.33-0.366-0.252-0.76,0.192-0.94c0.212-0.085,0.443-0.12,0.663-0.183
	c0.177-0.051,0.357-0.092,0.524-0.171c0.196-0.093,0.35-0.25,0.327-0.503c-0.022-0.252-0.166-0.425-0.398-0.491
	c-0.367-0.103-0.745-0.128-1.122-0.125c-0.342,0.002-0.685,0.025-1.027,0.053c-0.678,0.054-1.317-0.065-1.928-0.394
	c-0.325-0.175-0.674-0.302-1.04-0.363c-0.569-0.097-0.94,0.187-1.002,0.792c-0.02,0.204-0.023,0.413,0,0.617
	c0.075,0.628-0.188,1.079-0.655,1.416c-0.491,0.357-1.006,0.672-1.59,0.837c-0.427,0.12-0.885-0.027-0.956-0.316
	c-0.07-0.287,0.252-0.673,0.672-0.797c0.143-0.043,0.289-0.074,0.435-0.108c0.228-0.054,0.414-0.166,0.442-0.436
	c0.027-0.259-0.112-0.439-0.304-0.57c-0.393-0.266-0.848-0.328-1.289-0.296c-0.888,0.065-1.779,0.109-2.663,0.25
	c-0.539,0.085-1.04,0.289-1.537,0.501c-0.699,0.298-1.42,0.354-2.157,0.308c-0.332-0.02-0.662-0.041-0.993-0.066
	c-0.159-0.011-0.352-0.005-0.37-0.23c-0.018-0.247,0.157-0.32,0.356-0.352c0.45-0.07,0.912,0.008,1.359-0.131
	c0.286-0.088,0.58-0.144,0.819-0.35c0.148-0.128,0.262-0.27,0.21-0.496c-0.049-0.207-0.166-0.342-0.358-0.401
	c-0.165-0.049-0.33-0.096-0.497-0.136c-0.205-0.049-0.393-0.138-0.379-0.39c0.014-0.23,0.216-0.241,0.388-0.274
	c0.351-0.07,0.707-0.083,1.06-0.061c0.571,0.034,1.055-0.164,1.48-0.555c0.238-0.219,0.512-0.367,0.823-0.422
	c0.371-0.065,0.675,0.047,0.888,0.396c0.25,0.41,0.511,0.544,0.928,0.359c1.285-0.571,2.666-0.784,3.98-1.248
	c0.294-0.104,0.597-0.164,0.91-0.125c0.106,0.013,0.213,0.044,0.247,0.163c0.034,0.117-0.069,0.163-0.135,0.227
	c-0.075,0.073-0.159,0.141-0.223,0.225c-0.19,0.254-0.162,0.463,0.092,0.643c0.292,0.207,0.634,0.266,0.97,0.344
	c1.666,0.387,3.378,0.477,5.046,0.854c0.769,0.174,1.471,0.449,1.976,1.131c0.167,0.226,0.408,0.344,0.659,0.44
	c0.151,0.058,0.301,0.12,0.421,0.238c0.115,0.115,0.191,0.245,0.14,0.419C53.412,37.308,53.299,37.428,53.12,37.436 M54.615,27.451
	c-0.336,0.177-0.708,0.219-1.068,0.235c-0.834,0.037-1.628,0.216-2.398,0.555c-0.378,0.167-0.78,0.28-1.2,0.251
	c-0.103,0-0.212,0.023-0.308-0.002c-0.951-0.252-1.86-0.071-2.758,0.271c-0.261,0.098-0.536,0.126-0.813,0.1
	c-0.399-0.037-0.534-0.335-0.307-0.682c0.129-0.196,0.305-0.339,0.523-0.392c1.032-0.258,2.06-0.563,3.141-0.451
	c0.333,0.034,0.66-0.041,0.988-0.085c1.032-0.136,2.062-0.279,3.096-0.399c0.35-0.041,0.71-0.047,1.057,0.052
	c0.122,0.034,0.254,0.082,0.261,0.246C54.835,27.304,54.732,27.388,54.615,27.451 M61.518,37.76c-0.486-0.073-0.97-0.163-1.45-0.274
	c-0.464-0.109-0.925-0.117-1.395-0.076c-0.717,0.061-1.417-0.049-2.074-0.367c-0.567-0.274-0.97-0.717-1.142-1.369
	c-0.092-0.353-0.236-0.672-0.491-0.938c-0.228-0.239-0.174-0.448,0.121-0.587c0.082-0.039,0.172-0.066,0.262-0.084
	c0.81-0.16,1.645-0.063,2.369-0.267c0.35,0.017,0.624,0.07,0.825,0.248c0.892,0.782,1.944,1.316,2.839,2.089
	c0.304,0.263,0.543,0.584,0.644,1.003C62.134,37.59,61.958,37.826,61.518,37.76 M62.473,28.596c0.44,0.319,0.565,0.661,0.449,1.179
	c-0.079,0.358-0.295,0.562-0.609,0.673c-0.843,0.298-1.744-0.168-2.008-1.066c-0.138-0.466-0.301-0.91-0.569-1.312
	c-0.124-0.184-0.185-0.406-0.061-0.613c0.113-0.191,0.318-0.161,0.5-0.159c0.152,0.001,0.298,0.047,0.429,0.118
	c0.572,0.308,1.099,0.204,1.623-0.145c0.367-0.243,0.748-0.469,1.184-0.56c0.782-0.162,1.503,0.084,2.194,0.41
	c0.565,0.266,1.123,0.542,1.708,0.757c0.419,0.153,0.761,0.441,1.103,0.723c0.571,0.473,1.214,0.586,1.913,0.446
	c0.269-0.053,0.539-0.112,0.811-0.151c1.333-0.189,2.607,0.477,3.246,1.772c0.335,0.679,0.817,1.157,1.418,1.529
	c0.319,0.198,0.607,0.428,0.856,0.717c0.241,0.28,0.533,0.494,0.83,0.703c0.578,0.406,0.802,1.006,0.795,1.712
	c-0.006,0.517-0.301,0.693-0.702,0.39c-0.54-0.407-1.031-0.882-1.565-1.298c-0.957-0.746-1.926-1.477-2.899-2.2
	c-0.522-0.388-1.15-0.365-1.75-0.433c-0.242-0.028-0.477-0.065-0.701-0.162c-0.765-0.327-1.556-0.487-2.272-0.429
	c-0.763-0.002-1.417,0.007-2.043-0.233c-0.193-0.073-0.412-0.144-0.449-0.397c-0.04-0.273,0.162-0.406,0.338-0.542
	c0.2-0.156,0.474-0.282,0.421-0.602c-0.054-0.326-0.349-0.392-0.603-0.456c-0.502-0.128-0.927-0.41-1.342-0.712
	c-0.586-0.426-1.226-0.578-1.926-0.434c-0.079,0.015-0.157,0.035-0.231,0.064c-0.165,0.063-0.333,0.142-0.367,0.344
	C62.158,28.444,62.346,28.504,62.473,28.596 M71.376,40.312c-0.086,0.209-0.28,0.169-0.474,0.18
	c-0.409-0.055-0.832-0.162-1.227-0.358c-0.57-0.281-1.135-0.571-1.679-0.907c-0.76-0.468-1.544-0.893-2.297-1.373
	c-0.439-0.279-0.84-0.628-1.255-0.946c-0.037-0.028-0.07-0.064-0.1-0.1c-0.113-0.138-0.252-0.288-0.142-0.479
	c0.103-0.18,0.286-0.115,0.438-0.07c0.529,0.159,1.034,0.38,1.518,0.663c0.81,0.473,1.567,1.048,2.419,1.437
	c0.744,0.341,1.493,0.671,2.212,1.072c0.174,0.098,0.317,0.237,0.446,0.39C71.352,39.961,71.456,40.118,71.376,40.312
	 M81.198,44.854c-0.218,0.157-0.438-0.002-0.584-0.16c-0.545-0.59-1.202-1.054-1.714-1.67c-0.521-0.627-1.112-1.154-1.767-1.594
	c-1.211-0.814-2.312-1.779-3.443-2.704C72.8,38,71.838,37.4,70.832,36.87c-1.168-0.615-2.325-1.249-3.488-1.875
	c-0.386-0.208-0.824-0.302-1.17-0.598c-0.142-0.12-0.336-0.224-0.262-0.456c0.075-0.235,0.294-0.18,0.449-0.195
	c0.625,0.078,1.225,0.185,1.829,0.224c1.432,0.091,2.795,0.476,4.124,1.017c1.25,0.508,2.354,1.28,3.424,2.118
	c1.965,1.54,3.382,3.587,4.736,5.693c0.232,0.359,0.514,0.684,0.694,1.079c0.054,0.119,0.117,0.243,0.135,0.37
	C81.332,44.458,81.394,44.713,81.198,44.854 M84.944,37.128c-0.319,0.618-0.54,1.281-0.837,1.908
	c-0.135,0.283-0.291,0.548-0.511,0.768c-0.362,0.361-0.684,0.329-0.97-0.11c-0.271-0.417-0.429-0.892-0.502-1.38
	c-0.151-1.013-0.501-1.959-0.808-2.92c-0.209-0.656-0.268-1.31-0.114-1.997c0.143-0.633-0.045-1.22-0.385-1.751
	c-0.173-0.27-0.371-0.524-0.531-0.801c-0.251-0.428-0.137-0.733,0.318-0.893c0.119-0.043,0.242-0.083,0.366-0.096
	c0.25-0.026,0.502-0.031,0.753-0.046c0.297,0.016,0.595,0.002,0.887,0.083c0.797,0.225,1.097,0.899,0.727,1.678
	c-0.112,0.237-0.277,0.444-0.411,0.668c-0.336,0.562-0.302,0.939,0.159,1.38c0.279,0.267,0.601,0.482,0.883,0.746
	c0.534,0.498,0.946,1.078,1.083,1.844C85.109,36.533,85.086,36.85,84.944,37.128 M85.408,32.597c-0.138-0.221-0.104-0.49-0.08-0.744
	c0.039-0.431,0.086-0.863,0.129-1.295c0.072-0.71,0.346-0.964,1.032-0.957c0.713,0.008,1.077,0.352,1.003,1.048
	c-0.078,0.703-0.073,1.394-0.001,2.094c0.028,0.284,0.041,0.58-0.059,0.86c-0.145,0.401-0.454,0.552-0.79,0.328
	C86.136,33.593,85.735,33.126,85.408,32.597 M89.755,52.191c-0.289,0.397-0.7,0.657-1.103,0.91c-0.256,0.16-0.506,0.09-0.74-0.08
	c-0.359-0.261-0.587-0.637-0.806-1.022c-0.562-0.982-0.858-2.049-0.97-3.183c-0.055-0.565-0.161-1.125-0.138-1.554
	c0.007-1.03,0.082-1.906,0.395-2.741c0.223-0.594,0.302-1.211,0.292-1.847c-0.009-0.544-0.021-1.09,0.071-1.628
	c0.06-0.348,0.121-0.73,0.483-0.859c0.397-0.143,0.784-0.066,1.124,0.233c0.342,0.301,0.507,0.712,0.66,1.129
	c0.184,0.501,0.421,0.964,0.76,1.368c0.834,0.996,1.224,2.187,1.399,3.485C91.472,48.548,90.999,50.477,89.755,52.191
	 M99.494,38.852c-1.402,1.089-2.564,2.397-3.505,3.936c-0.268,0.437-0.6,0.824-0.955,1.186c-0.209,0.211-0.445,0.38-0.71,0.501
	c-0.476,0.215-0.839,0.103-1.065-0.382c-0.482-1.041-0.948-2.091-1.404-3.145c-0.142-0.329-0.233-0.683-0.226-1.092
	c-0.031-0.36,0.123-0.675,0.413-0.909c1.266-1.022,2.399-2.205,3.592-3.315c0.468-0.435,1.003-0.706,1.582-0.911
	c0.52-0.185,1.053-0.332,1.544-0.602c0.49-0.27,0.758-0.692,0.771-1.276c0.01-0.496-0.013-0.992-0.002-1.487
	c0.021-1.005,0.653-1.414,1.509-0.986c0.32,0.161,0.641,0.32,0.956,0.493c0.444,0.244,0.532,0.64,0.165,0.991
	c-0.752,0.722-0.456,1.206,0.248,1.617c0.876,0.511,0.91,0.757,0.364,1.653C101.888,36.574,100.804,37.832,99.494,38.852
	 M106.069,36.719c-0.332,1.005-0.715,1.988-1.335,2.845c-0.758,1.043-1.766,1.654-2.973,1.919c-0.056,0.012-0.114,0.018-0.171,0.02
	c-0.246,0.005-0.511-0.005-0.639-0.254c-0.136-0.266,0.045-0.49,0.205-0.679c0.464-0.548,0.976-1.048,1.425-1.615
	c0.466-0.586,0.791-1.272,1.263-1.85c0.178-0.219,0.362-0.435,0.546-0.65c0.379-0.444,0.668-0.945,0.889-1.496
	c0.103-0.255,0.223-0.507,0.418-0.7c0.155-0.156,0.343-0.264,0.561-0.182c0.215,0.08,0.253,0.293,0.27,0.503
	c0.007,0.084,0.001,0.169,0.001,0.254C106.527,35.503,106.272,36.106,106.069,36.719 M107.714,24.777
	c-0.37,0.126-0.755,0.199-1.133,0.295c-0.293,0.074-0.522,0.221-0.64,0.54c-0.188,0.511,0.016,0.955,0.527,1.083
	c0.256,0.064,0.518,0.106,0.752,0.241c0.32,0.185,0.324,0.464,0.007,0.661c-0.233,0.146-0.493,0.176-0.76,0.179
	c-0.319,0.002-0.644-0.042-0.954,0.068c-0.348,0.123-0.418,0.331-0.231,0.661c0.236,0.419,0.136,0.641-0.323,0.657
	c-0.767,0.026-1.533,0.001-2.289-0.166c-0.341-0.076-0.651-0.213-0.913-0.471c-0.314-0.31-0.414-0.678-0.331-1.119
	c0.192-1.035,0.062-1.338-0.785-1.885c-0.328-0.211-0.686-0.332-1.058-0.413c-0.292-0.064-0.537,0.06-0.768,0.233
	c-0.304,0.227-0.532,0.537-0.744,0.849c-0.324,0.478-0.75,0.714-1.292,0.79c-0.714,0.102-1.425,0.233-2.136,0.36
	c-0.407,0.073-0.804,0.197-1.17,0.407c-0.628,0.362-0.645,1.095-0.038,1.507c0.288,0.196,0.616,0.246,0.945,0.297
	c0.657,0.1,1.313,0.197,1.969,0.306c0.179,0.03,0.352,0.097,0.499,0.224c0.567,0.489,0.509,1.125-0.137,1.481
	c-0.401,0.222-0.847,0.294-1.276,0.421c-0.579,0.172-1.003,0.509-1.334,1.054c-0.804,1.32-1.857,2.388-3.126,3.21
	c-0.203,0.132-0.43,0.227-0.655,0.313c-0.71,0.276-1.011-0.162-0.983-0.858c0.027-0.603,0.287-1.145,0.528-1.679
	c0.188-0.415,0.301-0.831,0.266-1.292c-0.035-0.472,0.125-0.813,0.561-1.009c0.327-0.148,0.608-0.383,0.846-0.67
	c0.329-0.397,0.395-0.835,0.191-1.314c-0.088-0.209-0.198-0.409-0.291-0.617c-0.241-0.536-0.193-0.765,0.251-1.124
	c0.539-0.433,1.07-0.873,1.515-1.417c0.171-0.209,0.347-0.422,0.484-0.657c0.363-0.618,0.146-1.144-0.529-1.307
	c-0.46-0.111-0.929-0.126-1.32-0.109c-1.472,0-2.812,0.209-4.029,1.006c-0.638,0.419-1.303,0.444-1.986,0.041
	c-0.487-0.288-0.784-0.202-1.076,0.291c-0.287,0.486-0.617,0.858-1.208,0.759c-0.631-0.103-1.147-0.416-1.44-1.043
	c-0.564-1.201-0.282-2.77,0.657-3.668c0.224-0.214,0.469-0.4,0.801-0.293c0.259,0.084,0.374,0.259,0.31,0.553
	c-0.084,0.375-0.3,0.676-0.491,0.991c-0.184,0.306-0.434,0.63-0.212,0.997c0.232,0.381,0.634,0.268,0.978,0.216
	c0.845-0.124,1.645-0.428,2.424-0.777c0.563-0.252,1.122-0.285,1.711-0.182c0.922,0.162,1.834,0.431,2.787,0.314
	c0.648-0.08,1.301-0.1,1.952-0.125c0.914-0.035,1.766,0.219,2.609,0.541c0.323,0.124,0.65,0.234,0.974,0.353
	c0.546,0.201,1.051,0.085,1.483-0.292c0.67-0.583,1.445-0.867,2.286-0.995c0.157-0.024,0.32-0.034,0.478-0.016
	c0.68,0.08,0.835,0.242,0.946,0.958c0.168,1.065,0.574,1.37,1.598,1.206c0.432-0.069,0.856-0.165,1.242-0.394
	c0.52-0.308,0.719-0.73,0.644-1.358c-0.023-0.191-0.047-0.385-0.044-0.576c0.009-0.521,0.282-0.735,0.771-0.627
	c0.371,0.082,0.661,0.304,0.947,0.558c0.38,0.338,0.716,0.713,0.982,1.155C108.154,24.466,108.108,24.642,107.714,24.777
	 M120.954,38.376c-0.216,0.025-0.433,0.071-0.648,0.059c-1.371-0.075-2.732-0.236-4.093-0.422c-1.531-0.209-3.071-0.342-4.619-0.282
	c-0.531,0.021-1.039,0.159-1.544,0.326c-0.404,0.133-0.806,0.275-1.219,0.367c-0.731,0.163-0.978-0.111-0.804-0.871
	c0.07-0.305,0.164-0.607,0.279-0.895c0.257-0.644,0.383-1.314,0.421-2.008c0.037-0.655,0.295-1.189,0.802-1.573
	c1.049-0.792,2.221-1.172,3.51-1.145c0.103,0.003,0.206,0.019,0.305,0.047c0.134,0.037,0.268,0.091,0.302,0.259
	c0.037,0.169-0.072,0.271-0.177,0.364c-0.222,0.199-0.496,0.297-0.757,0.422c-0.301,0.144-0.618,0.263-0.843,0.539
	c-0.106,0.13-0.221,0.266-0.142,0.452c0.072,0.172,0.235,0.182,0.383,0.177c0.686-0.019,1.372-0.063,2.058-0.064
	c0.559-0.001,1.121,0.042,1.667,0.183c0.183,0.047,0.444,0.107,0.434,0.339c-0.01,0.23-0.279,0.217-0.449,0.238
	c-0.35,0.043-0.704,0.047-1.056,0.073c-0.595,0.046-0.969,0.41-1.07,1.033c-0.072,0.456,0.145,0.835,0.565,0.989
	c0.468,0.17,0.951,0.109,1.43,0.124c1.566,0.022,3.138,0.013,4.627,0.654c0.232,0.1,0.462,0.209,0.688,0.321
	c0.061,0.031,0.117,0.086,0.102,0.172S121.022,38.369,120.954,38.376 M128.581,29.496c-0.565,0.201-1.162,0.261-1.744,0.389
	c-0.435,0.094-0.86,0.248-1.32,0.279c-0.333-0.081-0.674-0.015-1.014,0.03c-0.207,0.026-0.435,0.093-0.44,0.368
	c-0.003,0.274,0.233,0.304,0.42,0.335c0.338,0.057,0.684,0.061,1.011,0.187c0.467,0.183,0.521,0.447,0.17,0.832
	c-0.26,0.284-0.585,0.464-0.912,0.639c-0.981,0.523-1.998,0.962-3.028,1.364c-0.407,0.158-0.841,0.229-1.278,0.072
	c-0.414-0.15-0.456-0.331-0.138-0.662c0.461-0.482,1.023-0.715,1.668-0.727c0.274-0.004,0.548-0.004,0.824-0.008
	c0.173-0.002,0.344-0.027,0.5-0.109c0.147-0.078,0.283-0.184,0.269-0.381c-0.014-0.191-0.171-0.256-0.316-0.288
	c-0.413-0.088-0.829-0.183-1.248-0.231c-0.44-0.05-0.854-0.164-1.248-0.368c-0.428-0.222-0.879-0.331-1.359-0.326
	c-0.192,0.003-0.387-0.038-0.579-0.064c-0.091-0.014-0.197-0.033-0.216-0.145c-0.023-0.142,0.097-0.183,0.189-0.218
	c0.139-0.052,0.283-0.099,0.429-0.124c0.553-0.093,1.08-0.29,1.508-0.658c0.903-0.775,1.903-1.079,3.04-0.846
	c0.464,0.096,0.912,0.017,1.361-0.064c1.112-0.201,2.233-0.183,3.352-0.172c0.232,0.002,0.546-0.019,0.58,0.31
	C129.094,29.223,128.836,29.406,128.581,29.496"/>
<path fill="#243877" d="M10.605,69.38c-1.439,0-2.613,0.369-3.519,1.109c-0.908,0.74-1.361,1.602-1.361,2.588
	c0,1.013,0.352,1.841,1.055,2.484c0.704,0.645,1.589,1.227,2.652,1.747c1.063,0.521,2.206,1.02,3.426,1.499
	c1.22,0.48,2.361,1.068,3.425,1.767c1.063,0.698,1.947,1.548,2.652,2.547c0.703,1,1.055,2.28,1.055,3.841
	c0,1.37-0.298,2.623-0.891,3.759c-0.595,1.138-1.439,2.11-2.535,2.916c-1.096,0.809-2.4,1.426-3.917,1.849
	c-1.519,0.425-3.215,0.637-5.092,0.637c-1.69,0-3.199-0.158-4.527-0.472c-1.331-0.315-2.34-0.705-3.028-1.17
	c0.313-0.959,0.579-1.835,0.798-2.63c0.219-0.794,0.406-1.657,0.563-2.588h0.891c0.125,0.602,0.36,1.17,0.705,1.704
	c0.344,0.535,0.781,1.007,1.313,1.417c0.531,0.413,1.174,0.734,1.925,0.966c0.75,0.233,1.595,0.35,2.534,0.35
	c1.876,0,3.261-0.412,4.151-1.233c0.893-0.822,1.339-1.808,1.339-2.958c0-1.04-0.345-1.889-1.033-2.547
	c-0.688-0.657-1.548-1.239-2.581-1.746c-1.032-0.506-2.159-0.999-3.379-1.479c-1.22-0.479-2.346-1.061-3.378-1.745
	c-1.033-0.685-1.893-1.528-2.58-2.527c-0.689-1.001-1.033-2.28-1.033-3.841c0-1.424,0.289-2.685,0.868-3.779
	c0.579-1.096,1.353-2.013,2.322-2.753c0.97-0.74,2.09-1.3,3.355-1.686c1.268-0.381,2.604-0.574,4.013-0.574
	c1.689,0,3.167,0.179,4.434,0.535c1.268,0.356,2.354,0.848,3.262,1.478c-0.283,0.631-0.524,1.24-0.728,1.828
	c-0.203,0.589-0.462,1.335-0.775,2.24h-0.703C15.281,70.557,13.389,69.38,10.605,69.38"/>
<path fill="#243877" d="M25.057,80.636c-0.392-1.585,0.399-3.225,1.88-3.913c0.569-0.263,1.156-0.494,1.756-0.689
	c1.518-0.492,3.027-0.739,4.528-0.739c1.252,0,2.401,0.123,3.45,0.369c1.047,0.247,1.954,0.638,2.721,1.172
	c0.766,0.534,1.361,1.226,1.784,2.074c0.421,0.85,0.633,1.876,0.633,3.081c0,1.753-0.023,3.376-0.071,4.869
	c-0.047,1.493-0.071,2.978-0.071,4.456c0,0.658,0.055,1.173,0.165,1.541c0.11,0.37,0.274,0.652,0.493,0.843
	c0.218,0.191,0.508,0.314,0.867,0.369c0.36,0.056,0.775,0.083,1.244,0.083v0.985c-0.907,0.329-1.674,0.575-2.299,0.74
	s-1.299,0.246-2.018,0.246c-1.157,0-2.096-0.246-2.815-0.738c-0.72-0.494-1.267-1.206-1.643-2.137
	c-0.719,0.877-1.556,1.575-2.51,2.095c-0.954,0.519-2.15,0.78-3.59,0.78c-1.189,0-2.204-0.137-3.05-0.411
	c-0.844-0.273-1.54-0.663-2.088-1.171c-0.547-0.507-0.947-1.081-1.197-1.726c-0.25-0.643-0.375-1.293-0.375-1.95
	c0-0.904,0.165-1.685,0.493-2.342c0.327-0.657,0.797-1.218,1.408-1.684c0.609-0.466,1.337-0.855,2.182-1.171
	c0.844-0.314,1.799-0.582,2.862-0.802c1.314-0.272,2.353-0.513,3.12-0.718c0.766-0.206,1.339-0.412,1.714-0.616
	c0.375-0.206,0.617-0.431,0.727-0.679c0.109-0.245,0.164-0.546,0.164-0.903c0-0.986-0.399-1.828-1.196-2.526
	c-0.799-0.698-1.902-1.048-3.309-1.048c-0.532,0-1.079,0.062-1.642,0.184c-0.564,0.124-1.103,0.296-1.619,0.514
	c-0.516,0.22-0.985,0.459-1.408,0.72c-0.422,0.26-0.743,0.54-0.962,0.842H25.057z M35.567,89.345c0-1.178,0.007-2.075,0.024-2.692
	c0.015-0.615,0.024-1.156,0.024-1.622c-0.658,0.329-1.354,0.596-2.089,0.802c-0.734,0.205-1.407,0.466-2.017,0.78
	c-0.609,0.315-1.111,0.747-1.503,1.293c-0.39,0.55-0.585,1.343-0.585,2.384c0,1.013,0.241,1.786,0.727,2.321
	c0.485,0.533,1.133,0.801,1.948,0.801c1.032,0,1.869-0.342,2.51-1.027C35.247,91.7,35.567,90.687,35.567,89.345"/>
<path fill="#243877" d="M87.607,80.636c-0.393-1.585,0.399-3.225,1.88-3.913c0.569-0.263,1.155-0.494,1.756-0.689
	c1.518-0.492,3.026-0.739,4.528-0.739c1.251,0,2.401,0.123,3.45,0.369c1.046,0.247,1.953,0.638,2.72,1.172
	c0.767,0.534,1.361,1.226,1.784,2.074c0.422,0.85,0.634,1.876,0.634,3.081c0,1.753-0.024,3.376-0.072,4.869
	c-0.046,1.493-0.07,2.978-0.07,4.456c0,0.658,0.055,1.173,0.165,1.541c0.109,0.37,0.274,0.652,0.493,0.843
	c0.218,0.191,0.508,0.314,0.867,0.369c0.36,0.056,0.775,0.083,1.244,0.083v0.985c-0.908,0.329-1.674,0.575-2.299,0.74
	c-0.626,0.165-1.299,0.246-2.018,0.246c-1.158,0-2.096-0.246-2.815-0.738c-0.72-0.494-1.267-1.206-1.643-2.137
	c-0.719,0.877-1.556,1.575-2.51,2.095c-0.954,0.519-2.151,0.78-3.59,0.78c-1.189,0-2.206-0.137-3.05-0.411
	c-0.845-0.273-1.541-0.663-2.088-1.171c-0.547-0.507-0.947-1.081-1.197-1.726c-0.25-0.643-0.375-1.293-0.375-1.95
	c0-0.904,0.164-1.685,0.493-2.342c0.327-0.657,0.797-1.218,1.407-1.684c0.61-0.466,1.338-0.855,2.182-1.171
	c0.845-0.314,1.799-0.582,2.863-0.802c1.313-0.272,2.353-0.513,3.12-0.718c0.766-0.206,1.338-0.412,1.713-0.616
	c0.375-0.206,0.617-0.431,0.728-0.679c0.109-0.245,0.163-0.546,0.163-0.903c0-0.986-0.398-1.828-1.195-2.526
	c-0.799-0.698-1.902-1.048-3.309-1.048c-0.532,0-1.079,0.062-1.642,0.184c-0.564,0.124-1.103,0.296-1.619,0.514
	c-0.516,0.22-0.985,0.459-1.409,0.72c-0.421,0.26-0.743,0.54-0.962,0.842H87.607z M98.117,89.345c0-1.178,0.007-2.075,0.023-2.692
	c0.016-0.615,0.025-1.156,0.025-1.622c-0.658,0.329-1.354,0.596-2.089,0.802c-0.735,0.205-1.407,0.466-2.017,0.78
	c-0.611,0.315-1.111,0.747-1.503,1.293c-0.39,0.55-0.586,1.343-0.586,2.384c0,1.013,0.242,1.786,0.728,2.321
	c0.484,0.533,1.133,0.801,1.947,0.801c1.032,0,1.87-0.342,2.511-1.027C97.796,91.7,98.117,90.687,98.117,89.345"/>
<path fill="#243877" d="M160.62,80.636c-0.392-1.585,0.4-3.225,1.881-3.913c0.569-0.263,1.155-0.494,1.756-0.689
	c1.518-0.492,3.026-0.739,4.528-0.739c1.252,0,2.401,0.123,3.449,0.369c1.047,0.247,1.955,0.638,2.722,1.172
	c0.766,0.534,1.361,1.226,1.783,2.074c0.421,0.85,0.634,1.876,0.634,3.081c0,1.753-0.024,3.376-0.072,4.869
	c-0.046,1.493-0.07,2.978-0.07,4.456c0,0.658,0.055,1.173,0.164,1.541c0.11,0.37,0.274,0.652,0.494,0.843
	c0.218,0.191,0.508,0.314,0.867,0.369c0.36,0.056,0.774,0.083,1.244,0.083v0.985c-0.908,0.329-1.674,0.575-2.299,0.74
	c-0.626,0.165-1.299,0.246-2.018,0.246c-1.157,0-2.096-0.246-2.816-0.738c-0.719-0.494-1.266-1.206-1.642-2.137
	c-0.719,0.877-1.556,1.575-2.511,2.095c-0.954,0.519-2.15,0.78-3.589,0.78c-1.189,0-2.205-0.137-3.05-0.411
	c-0.845-0.273-1.541-0.663-2.088-1.171c-0.547-0.507-0.947-1.081-1.197-1.726c-0.251-0.643-0.375-1.293-0.375-1.95
	c0-0.904,0.164-1.685,0.493-2.342c0.327-0.657,0.797-1.218,1.407-1.684c0.61-0.466,1.338-0.855,2.183-1.171
	c0.844-0.314,1.798-0.582,2.862-0.802c1.313-0.272,2.353-0.513,3.12-0.718c0.766-0.206,1.338-0.412,1.713-0.616
	c0.375-0.206,0.618-0.431,0.728-0.679c0.108-0.245,0.164-0.546,0.164-0.903c0-0.986-0.4-1.828-1.197-2.526
	c-0.799-0.698-1.901-1.048-3.308-1.048c-0.532,0-1.079,0.062-1.642,0.184c-0.564,0.124-1.103,0.296-1.619,0.514
	c-0.517,0.22-0.985,0.459-1.408,0.72c-0.422,0.26-0.744,0.54-0.963,0.842H160.62z M171.131,89.345c0-1.178,0.007-2.075,0.023-2.692
	c0.016-0.615,0.025-1.156,0.025-1.622c-0.658,0.329-1.354,0.596-2.09,0.802c-0.734,0.205-1.406,0.466-2.016,0.78
	c-0.61,0.315-1.111,0.747-1.503,1.293c-0.39,0.55-0.585,1.343-0.585,2.384c0,1.013,0.241,1.786,0.726,2.321
	c0.485,0.533,1.134,0.801,1.948,0.801c1.032,0,1.87-0.342,2.511-1.027C170.811,91.7,171.131,90.687,171.131,89.345"/>
<path fill="#243877" d="M142.321,85.771c0,1.096,0.124,2.123,0.375,3.081c0.249,0.96,0.633,1.787,1.149,2.486
	c0.516,0.698,1.173,1.246,1.972,1.643c0.796,0.397,1.728,0.596,2.791,0.596c2.159,0,4.083-0.616,5.772-1.849l0.563,0.369
	l-1.032,2.302c-0.783,0.52-1.721,0.937-2.816,1.252c-1.095,0.314-2.534,0.472-4.317,0.472c-1.533,0-2.988-0.185-4.365-0.554
	c-1.375-0.37-2.588-0.979-3.635-1.829c-1.049-0.847-1.877-1.923-2.486-3.224c-0.611-1.301-0.916-2.855-0.916-4.663
	c0-1.78,0.273-3.327,0.82-4.641c0.548-1.316,1.306-2.411,2.277-3.288c0.969-0.876,2.117-1.533,3.449-1.971
	c1.328-0.439,2.775-0.658,4.34-0.658c3.097,0,5.466,0.795,7.109,2.383s2.463,3.835,2.463,6.738v0.861
	c0,0.247-0.015,0.413-0.046,0.494H142.321z M149.547,83.922c-0.063-2.053-0.353-3.697-0.868-4.93
	c-0.516-1.232-1.385-1.848-2.606-1.848c-0.688,0-1.265,0.206-1.735,0.616c-0.469,0.412-0.845,0.939-1.126,1.582
	c-0.281,0.644-0.494,1.37-0.633,2.178c-0.141,0.806-0.228,1.608-0.258,2.402H149.547z"/>
<path fill="#243877" d="M79.983,77.082c-1.186-1.115-2.843-1.708-4.974-1.78c-1.165-0.04-2.351,0.117-3.439,0.54
	c-1.675,0.654-3.101,1.772-4.281,3.355c-0.562-1.259-1.353-2.224-2.369-2.896c-1.017-0.67-2.23-1.007-3.637-1.007
	c-1.501,0-2.839,0.316-4.012,0.945c-1.012,0.545-1.907,1.294-2.698,2.224v-2.634h-3.476c-1.968,0-3.563,1.594-3.563,3.563v16.196
	h7.039V82.94c0-0.842,0.164-1.696,0.602-2.415c0.003-0.004,0.005-0.008,0.008-0.013c0.657-1.067,1.69-1.601,3.097-1.601
	c1.314,0,2.205,0.452,2.674,1.355c0.292,0.562,0.092,1.283,0.202,2.13v9.63c0,1.969,1.595,3.563,3.562,3.563h3.477v-13.92
	c0.104-0.395,0.246-0.778,0.455-1.136c0.282-0.478,0.665-0.868,1.149-1.17c0.486-0.301,1.104-0.452,1.854-0.452
	c1.189,0,2.112,0.405,2.768,1.212c0.443,0.543,0.25,1.314,0.395,2.273v13.193h7.038V82.396C81.78,79.988,81.17,78.2,79.983,77.082"
	/>
<path fill="#243877" d="M130.885,84.742v10.847h-3.477c-1.967,0-3.562-1.595-3.562-3.563v-9.631c-0.111-0.846,0.09-1.568-0.201-2.13
	c-0.469-0.903-1.361-1.355-2.675-1.355c-1.407,0-2.439,0.534-3.097,1.602c-0.002,0.004-0.005,0.008-0.008,0.013
	c-0.438,0.718-0.602,1.572-0.602,2.414v12.65h-7.039V79.392c0-1.968,1.596-3.563,3.563-3.563h3.476v2.635
	c0.791-0.931,1.686-1.68,2.698-2.225c1.174-0.629,2.511-0.945,4.012-0.945c1.407,0,2.62,0.337,3.637,1.008
	c1.016,0.671,1.807,1.637,2.37,2.896C129.98,79.198,130.885,80.982,130.885,84.742"/>
</svg>
