<svg xmlns="http://www.w3.org/2000/svg" width="480.003" height="73.14" viewBox="0 0 127.001 19.352"><path  d="M97.493 13.491v2.51c0 .732.171.868 1.143.914v.354h-3.424v-.354c.958-.046 1.14-.182 1.14-.913v-5.078c0-.731-.182-.88-1.14-.914v-.354h3.424v.354c-.96.035-1.143.183-1.143.914V13h3.79v-2.076c0-.731-.183-.88-1.141-.914v-.354h3.424v.354c-.958.035-1.14.183-1.14.914v5.078c0 .73.17.867 1.14.913v.354h-3.424v-.354c.97-.046 1.141-.182 1.141-.913v-2.51m-12.132-3.47c-.823 0-1.187.365-1.53 1.483h-.332l.195-1.849h7.008l.194 1.85h-.33c-.355-1.142-.709-1.484-1.53-1.484h-1.28v5.98c0 .73.173.867 1.143.913v.354h-3.401v-.354c.97-.046 1.14-.182 1.14-.913v-5.98M87.6 17.269h-6.255v-.354c.971-.046 1.142-.182 1.142-.913v-5.078c0-.731-.171-.88-1.142-.914v-.354h3.424v.354c-.958.035-1.14.183-1.14.914v4.953c0 .764.307 1.004 1.3 1.004 1.027 0 1.485-.137 1.839-.525.342-.388.627-1.016.65-1.438h.33M77.042 11.79c-.08-.206-.159-.423-.228-.628-.046-.126-.058-.126-.09-.285-.047.16-.07.217-.093.285l-1.233 3.047h2.626zm3.094 4.37c.194.503.502.72 1.06.754v.354h-3.138v-.354h.251c.457 0 .662-.115.662-.354 0-.114-.022-.217-.103-.4l-.616-1.46h-3.037l-.593 1.46a.805.805 0 0 0-.079.32c0 .331.193.434.81.434h.137v.354h-2.626v-.354c.731-.023 1.016-.205 1.234-.753l2.739-6.631h.411m-5.17 1.986h-.366a2.944 2.944 0 0 0-.387-.959c-.263-.365-.583-.513-1.143-.513h-1.654v2.99h.719c.708 0 1.027-.331 1.06-1.061h.355v2.579h-.354c-.045-.856-.285-1.119-1.061-1.119h-.72v2.443c0 .764.309 1.004 1.301 1.004 1.028 0 1.485-.125 1.84-.525.341-.377.627-1.016.65-1.438h.33l-.136 2.35h-6.268v-.353c.972-.046 1.143-.182 1.143-.913v-5.078c0-.731-.183-.88-1.143-.914v-.354h5.628m-13.865 2.89v3.14c0 .912.214 1.083 1.426 1.14v.443h-4.279v-.442c1.197-.058 1.426-.229 1.426-1.141v-6.35c0-.911-.229-1.097-1.426-1.14v-.442h4.28v.442c-1.199.043-1.427.229-1.427 1.14v2.597h4.737V9.337c0-.912-.228-1.098-1.427-1.141v-.442h4.28v.442c-1.198.043-1.427.229-1.427 1.14v6.35c0 .912.214 1.083 1.427 1.14v.443h-4.28v-.442c1.213-.058 1.427-.229 1.427-1.141v-3.14m-12.627 3.718c.297.434.64.605 1.29.651v.354h-3.322v-.354h.229c.422 0 .594-.091.594-.308 0-.103-.035-.171-.15-.343l-1.597-2.362-1.803 2.362a.544.544 0 0 0-.137.32c0 .206.24.297.913.331v.354h-2.83v-.354c.695 0 1.198-.205 1.551-.65l2.066-2.75-1.986-2.865c-.353-.48-.616-.617-1.3-.64v-.354h3.286v.354h-.205c-.377 0-.57.08-.57.252 0 .079.068.25.159.388l1.313 1.917 1.415-1.86c.126-.16.183-.286.183-.388 0-.217-.24-.297-.902-.309v-.354h2.807v.354c-.821.046-1.186.194-1.517.64l-1.712 2.305m-8.595-1.164c-.08-.206-.16-.423-.228-.628-.046-.126-.057-.126-.092-.285-.045.16-.068.217-.091.285l-1.233 3.047h2.625zm3.093 4.37c.194.503.502.72 1.062.754v.354h-3.14v-.354h.252c.456 0 .662-.115.662-.354 0-.114-.023-.217-.103-.4l-.616-1.46H37.47l-.594 1.46a.813.813 0 0 0-.08.32c0 .331.194.434.81.434h.138v.354h-2.626v-.354c.73-.023 1.016-.205 1.233-.753l2.74-6.631h.41m-5.057 5.045h-.354c-.011-.492-.034-.605-.16-.788-.16-.24-.422-.354-.81-.354h-.788v2.568c0 .73.183.867 1.142.913v.354h-3.402v-.354c.97-.046 1.142-.182 1.142-.913v-5.078c0-.731-.183-.88-1.142-.914v-.354h5.582l.194 1.85h-.343c-.33-1.119-.707-1.484-1.518-1.484h-1.655v3.024h.845c.605 0 .913-.354.913-1.06h.354m-7.26-1.062c0-.731-.17-.88-1.14-.914v-.354h3.424v.354c-.96.035-1.142.183-1.142.914v5.078c0 .73.172.867 1.142.913v.354h-3.425v-.354c.97-.046 1.142-.182 1.142-.913m-1.815 1.267h-6.255v-.354c.97-.046 1.142-.182 1.142-.913v-5.078c0-.731-.171-.88-1.142-.914v-.354h3.424v.354c-.958.035-1.141.183-1.141.914v4.953c0 .764.308 1.004 1.301 1.004 1.027 0 1.484-.137 1.838-.525.342-.388.628-1.016.65-1.438h.331M14.812 11.79c-.08-.206-.16-.423-.228-.628-.046-.126-.057-.126-.091-.285-.046.16-.069.217-.092.285L13.17 14.21h2.625zm3.093 4.37c.195.503.503.72 1.062.754v.354h-3.139v-.354h.251c.457 0 .662-.115.662-.354 0-.114-.023-.217-.103-.4l-.616-1.46h-3.036l-.593 1.46a.808.808 0 0 0-.08.32c0 .331.194.434.81.434h.137v.354h-2.625v-.354c.73-.023 1.016-.205 1.232-.753l2.74-6.631h.41M2.854 12.547v3.139c0 .912.215 1.083 1.427 1.14v.443H0v-.442c1.199-.058 1.427-.229 1.427-1.141v-6.35c0-.911-.228-1.097-1.427-1.14v-.442h4.28v.442c-1.198.043-1.427.229-1.427 1.14v2.597H7.59V9.337c0-.912-.228-1.098-1.426-1.141v-.442h4.28v.442c-1.199.043-1.427.229-1.427 1.14v6.35c0 .912.214 1.083 1.427 1.14v.443h-4.28v-.442c1.212-.058 1.426-.229 1.426-1.141v-3.14" fill="#5e92c1"/><path d="M110.827 17.047h6.254l.35.31h-6.604zm0-.986h4.732l.35.225h-5.082zm0-1.007h3.315l.329.205h-3.644zm16.172-11.207S124.212 0 118.603 0c-.004 0 0 .65 0 .65s4.632-.228 7.771 3.443v9.974h-2.449v.369l-.451.288h2.9v.7h-3.846l-.699.451h4.545v.534h-5.285l-.657.495h5.942v.533h-6.724l-.657.535h7.381v.755h-15.547v-.59h7.795l-.012-8.704-5.373 2.989v1.973h-2.41V4.092c3.139-3.67 7.77-3.442 7.77-3.442s.005-.65 0-.65c-5.61 0-8.395 3.847-8.395 3.847V19.34h.002v.013H127v-.013H127V3.847m-6.158 10.631v.164l1.357.74.082-2.385-1.274-1.315-.699.864.041.698.37.37v-.985l.206-.248.7.782-.042 1.685m.671-8.688v3.913l1.191.671V6.482c-.04-.061.055-.5-.492-.719-.59-.137-.686.301-.699.397m-1.59-.877v3.913l1.193.67v-4.26c-.042-.063.054-.5-.494-.72-.59-.137-.685.302-.7.397m-1.588-.905v3.913l1.192.672V4.701c-.042-.062.055-.5-.493-.72-.59-.136-.685.301-.7.397m-1.185 4.053l-.76.412V4.958c.004-.129-.02-.519.277-.792l.004 4.225.48-.26v.3zm-1.617.905l-.76.41V5.863c.004-.127-.021-.518.277-.791l.002 4.224.481-.26v.301zm-1.616.877l-.761.41V6.74c.005-.13-.021-.52.277-.792l.004 4.223.48-.26v.302zm9.28 1.593v-.22l-5.327-2.92v-5.63l-.5.275v-.713h-.288v-.473h-.556v1.648l-.39.214v-.71h-.288v-.474h-.555v1.646l-.452.247v-.762h-.288V3.46h-.555v1.7l-.452.247v-.734h-.288v-.472h-.555V5.87l-.205.112.005 6.281 5.366-3.022v-.383m5.327 3.304l-5.326-2.92v.191l5.326 2.948m-.667-8.386h-.555v.473h-.288v.7l.843.472m-1.192-2.303h-.556v.474h-.287v.698l.843.473m-1.81-1.85h-.288v.698l.844.474V2.66h-.555m-1.255-.246h-.287v.699l.842.472V1.94h-.555" fill="#5e92c1"/></svg>