<svg xmlns="http://www.w3.org/2000/svg" xmlns:xlink="http://www.w3.org/1999/xlink" viewBox="0 0 368.52 155.65"><defs><style>.cls-1{fill:#dfe3ef;}.cls-2{fill:url(#Dégradé_sans_nom_9);}.cls-3{fill:url(#Dégradé_sans_nom_13);}.cls-4{fill:url(#Dégradé_sans_nom_16);}</style><linearGradient id="Dégradé_sans_nom_9" x1="48.47" y1="155.4" x2="48.47" gradientUnits="userSpaceOnUse"><stop offset="0" stop-color="#00cff7"/><stop offset="1" stop-color="#2a5cff"/></linearGradient><linearGradient id="Dégradé_sans_nom_13" x1="59.67" y1="154.48" x2="59.67" y2="15.16" gradientUnits="userSpaceOnUse"><stop offset="0" stop-color="#009fef"/><stop offset="0.5" stop-color="#004df6"/><stop offset="1" stop-color="#0000fd"/></linearGradient><linearGradient id="Dégradé_sans_nom_16" x1="59.78" y1="151.56" x2="59.78" y2="100.95" gradientUnits="userSpaceOnUse"><stop offset="0" stop-color="#004df6"/><stop offset="1" stop-color="#0000fd"/></linearGradient></defs><title>Fichier 2</title><g id="Calque_2" data-name="Calque 2"><g id="CRDF_Labs_Logo" data-name="CRDF Labs Logo"><g id="Light_txt"><g id="CRDF_dark"><path id="C" class="cls-1" d="M160,66.86a29.17,29.17,0,0,1,11.37,9.26,34.66,34.66,0,0,1,6,13.9H157.17A13.48,13.48,0,0,0,152,83.63a14.54,14.54,0,0,0-8.1-2.29,12.63,12.63,0,0,0-10.24,4.73q-3.9,4.74-3.9,12.63t3.9,12.68a12.56,12.56,0,0,0,10.24,4.78,14.26,14.26,0,0,0,8.1-2.34,13.75,13.75,0,0,0,5.17-6.44h20.19q-2.36,12.11-11.07,19.26t-22.09,7.17a35,35,0,0,1-17.9-4.43,30,30,0,0,1-11.8-12.44,39,39,0,0,1-4.15-18.24,39,39,0,0,1,4.15-18.24A30,30,0,0,1,126.3,68a35,35,0,0,1,17.9-4.44A36.89,36.89,0,0,1,160,66.86Z"/><path id="R" class="cls-1" d="M221.05,133.33l-14-25.46h-1.95v25.46H185.94V64.27h30.33a31.43,31.43,0,0,1,14.09,2.88,20,20,0,0,1,8.73,7.95A22.44,22.44,0,0,1,242,86.51,20.22,20.22,0,0,1,238,99a21,21,0,0,1-11.51,7.46l15.7,26.83ZM205.15,95h9.46q8,0,8-7.22a7.18,7.18,0,0,0-2-5.37q-2-1.95-6-2h-9.46Z"/><path id="D" class="cls-1" d="M308.63,116.5a31.33,31.33,0,0,1-12.48,12.34,38.65,38.65,0,0,1-19,4.49h-27.5V64.27h27.5a40,40,0,0,1,19.07,4.34,30.15,30.15,0,0,1,12.48,12.15A36.11,36.11,0,0,1,313,98.6,36,36,0,0,1,308.63,116.5Zm-19.89-4.92q4.88-4.59,4.87-13t-4.87-12.92q-4.87-4.64-13.37-4.63h-6.53v35.11h6.53Q283.86,116.16,288.74,111.58Z"/><path id="F" class="cls-1" d="M368.52,64.27V79.59h-27.7V91.88h20.67v14.43H340.82v27H321.6V64.27Z"/></g><g id="Labs_dark"><path id="L" class="cls-1" d="M190,153.41h4.62v2.1h-7.38V141.74H190Z"/><path id="A" class="cls-1" d="M224.49,152.74H219l-1,2.77h-2.91l5.07-13.61h3.14l5,13.61h-2.9Zm-.74-2.09-2-5.81-2,5.81Z"/><path id="B" class="cls-1" d="M259.42,149.59a3.38,3.38,0,0,1,.75,2.18,3.46,3.46,0,0,1-1.16,2.74,5,5,0,0,1-3.37,1h-5.91V141.74h5.8a4.92,4.92,0,0,1,3.2.92,3.13,3.13,0,0,1,1.13,2.57,3.22,3.22,0,0,1-.68,2.11,3.15,3.15,0,0,1-1.76,1.07A3.39,3.39,0,0,1,259.42,149.59Zm-6.94-2.08H255a2.39,2.39,0,0,0,1.57-.45,1.65,1.65,0,0,0,.54-1.32,1.71,1.71,0,0,0-.53-1.33,2.39,2.39,0,0,0-1.62-.47h-2.44Zm4.29,5.28a1.69,1.69,0,0,0,.59-1.39,1.73,1.73,0,0,0-.6-1.42,2.55,2.55,0,0,0-1.68-.5h-2.6v3.79h2.62A2.58,2.58,0,0,0,256.77,152.79Z"/><path id="S" class="cls-1" d="M290.93,153.69a3.79,3.79,0,0,1-1.56,1.42,5.39,5.39,0,0,1-2.52.54,6.57,6.57,0,0,1-2.61-.5,4.49,4.49,0,0,1-1.85-1.43,4.11,4.11,0,0,1-.78-2.19h2.92a2.29,2.29,0,0,0,.67,1.4,2.13,2.13,0,0,0,1.53.55,1.75,1.75,0,0,0,1.32-.46,1.72,1.72,0,0,0,.09-2.24,2.72,2.72,0,0,0-.94-.67c-.37-.17-.89-.36-1.56-.59a16,16,0,0,1-2.1-.84,3.88,3.88,0,0,1-1.4-1.22,3.54,3.54,0,0,1-.57-2.09,3.4,3.4,0,0,1,1.27-2.8,5.27,5.27,0,0,1,3.39-1,5.39,5.39,0,0,1,3.48,1,4,4,0,0,1,1.47,2.81h-3a2.06,2.06,0,0,0-.63-1.22,1.92,1.92,0,0,0-1.38-.48,1.8,1.8,0,0,0-1.23.4,1.45,1.45,0,0,0-.47,1.16,1.47,1.47,0,0,0,.36,1,2.87,2.87,0,0,0,.92.65,14.77,14.77,0,0,0,1.51.57,20.76,20.76,0,0,1,2.16.87,3.93,3.93,0,0,1,1.41,1.23,3.62,3.62,0,0,1,.59,2.15A3.75,3.75,0,0,1,290.93,153.69Z"/></g></g><g id="Forme_1" data-name="Forme #1"><path class="cls-2" d="M96.94,106.93A48.47,48.47,0,0,1,.29,112.26,49.39,49.39,0,0,1,0,106.93,57.79,57.79,0,0,1,3.34,87.31s1.81,6.54,6.39,8.57a45.41,45.41,0,0,1,1.43-18.35,35.94,35.94,0,0,1,11.21-17.6C56.34,31,38.7,0,38.7,0A99.43,99.43,0,0,1,53.08,15.16l0,0,1.65,2.27,0,0c16.58,23.93,6.94,41.55,4.5,47.33-2,4.72-1.32,9,2.42,12.08s9.23,3,14-1.8c9.25-9.25,2.14-25.7,1.86-26.33A139.08,139.08,0,0,1,89,71.14C93.22,81.43,96.94,94.19,96.94,106.93Z"/></g><g id="Forme_2" data-name="Forme #2"><path class="cls-3" d="M96.94,106.93a48.5,48.5,0,0,1-34.18,46.33,26.81,26.81,0,0,1-25.35-5.12A42.58,42.58,0,0,1,25,130.5a43.35,43.35,0,0,1-1.12-26.12L43.13,98a16.85,16.85,0,0,1,10.69,0L73,104.37c-.2-.55-4-11.07-17.7-19.58-14.06-8.73-3.86-25.4-.43-32.59,8.11-17.05,2.55-29.14-1.82-37l0,0,1.65,2.27,0,0c16.59,23.93,7,41.55,4.5,47.33-2,4.72-1.31,9,2.43,12.08s9.23,3,14-1.8c9.24-9.25,2.13-25.7,1.85-26.33C78.16,49.67,96.94,78.3,96.94,106.93Z"/></g><g id="Shield"><path class="cls-4" d="M48.47,101a14.73,14.73,0,0,1,4.64.75l16.69,5.58a37.69,37.69,0,0,1-1,22.67c-2.86,7.68-8.74,15.79-20.36,21.61Z"/></g></g></g></svg>