<svg width="43" height="40" viewBox="0 0 43 40" fill="none" xmlns="http://www.w3.org/2000/svg">
<path d="M41.9215 34.3779H0.839758C0.374807 34.3779 0 34.0031 0 33.5381V0.839758C0 0.374807 0.374807 0 0.839758 0H41.9215C42.3864 0 42.7612 0.374807 42.7612 0.839758V33.5381C42.7612 34.0031 42.3864 34.3779 41.9215 34.3779ZM1.67952 32.6984H41.0817V1.67952H1.67952V32.6984Z" fill="#87D1E6"/>
<path d="M41.9215 27.954H0.839758C0.374807 27.954 0 27.5792 0 27.1142C0 26.6493 0.374807 26.2745 0.839758 26.2745H41.9215C42.3864 26.2745 42.7612 26.6493 42.7612 27.1142C42.7612 27.5792 42.3864 27.954 41.9215 27.954Z" fill="#87D1E6"/>
<path d="M16.6196 40C16.1547 40 15.7799 39.6252 15.7799 39.1602V33.5381C15.7799 33.0732 16.1547 32.6984 16.6196 32.6984C17.0846 32.6984 17.4594 33.0732 17.4594 33.5381V39.1602C17.4594 39.6252 17.0846 40 16.6196 40Z" fill="#87D1E6"/>
<path d="M26.1369 40C25.6719 40 25.2971 39.6252 25.2971 39.1602V33.5381C25.2971 33.0732 25.6719 32.6984 26.1369 32.6984C26.6018 32.6984 26.9766 33.0732 26.9766 33.5381V39.1602C26.9766 39.6252 26.6018 40 26.1369 40Z" fill="#87D1E6"/>
<path d="M28.7083 40H14.0529C13.5879 40 13.2131 39.6252 13.2131 39.1602C13.2131 38.6953 13.5879 38.3205 14.0529 38.3205H28.7083C29.1733 38.3205 29.5481 38.6953 29.5481 39.1602C29.5481 39.6252 29.1733 40 28.7083 40Z" fill="#87D1E6"/>
<path d="M22.664 31.1327H20.0973C19.6323 31.1327 19.2575 30.7579 19.2575 30.293C19.2575 29.828 19.6323 29.4532 20.0973 29.4532H22.664C23.1289 29.4532 23.5037 29.828 23.5037 30.293C23.5037 30.7579 23.1289 31.1327 22.664 31.1327Z" fill="#87D1E6"/>
<path d="M26.5639 22.7351H16.1974C15.7324 22.7351 15.3576 22.3603 15.3576 21.8954V12.5869C15.3576 12.1219 15.7324 11.7471 16.1974 11.7471H26.5639C27.0288 11.7471 27.4036 12.1219 27.4036 12.5869V21.8954C27.4036 22.3603 27.0288 22.7351 26.5639 22.7351ZM17.0371 21.0556H25.7241V13.4266H17.0371V21.0556Z" fill="#87D1E6"/>
<path d="M25.354 13.4266H17.4024C16.9375 13.4266 16.5627 13.0518 16.5627 12.5869V10.0344C16.5627 7.37754 18.7214 5.21884 21.3782 5.21884C24.0351 5.21884 26.1938 7.37754 26.1938 10.0344V12.5869C26.1938 13.0518 25.819 13.4266 25.354 13.4266ZM18.2422 11.7471H24.5143V10.0344C24.5143 8.30269 23.1052 6.89835 21.3782 6.89835C19.6513 6.89835 18.2422 8.30744 18.2422 10.0344V11.7471Z" fill="#87D1E6"/>
<path d="M21.3782 19.2575C20.9133 19.2575 20.5385 18.8827 20.5385 18.4177V16.259C20.5385 15.7941 20.9133 15.4193 21.3782 15.4193C21.8432 15.4193 22.218 15.7941 22.218 16.259V18.4177C22.218 18.8827 21.8432 19.2575 21.3782 19.2575Z" fill="#87D1E6"/>
</svg>
