<svg width="98" height="49" viewBox="0 0 98 49" fill="none" xmlns="http://www.w3.org/2000/svg">
<g clip-path="url(#clip0_92_60484)">
<path d="M9.06907 16.5861H13.747L22.9209 41.4653H18.4802L16.2405 35.0298H6.52598L4.34146 41.4653H0L9.06907 16.5861ZM11.3915 20.7739L7.67892 31.5675H15.1041L11.3915 20.7739Z" fill="white"/>
<path d="M39.2772 33.4086H26.5121C26.5452 35.1068 26.9644 36.4148 27.7643 37.327C28.5697 38.2393 29.6951 38.6955 31.1569 38.6955C32.194 38.6955 33.0712 38.4317 33.7828 37.9096C34.4944 37.3875 34.9688 36.6566 35.206 35.7223H39.0731C38.72 37.6238 37.7988 39.1571 36.2983 40.3167C34.7978 41.4763 33.005 42.0589 30.9142 42.0589C28.2939 42.0589 26.2307 41.1906 24.7247 39.4594C23.2187 37.7227 22.4685 35.3376 22.4685 32.2984C22.4685 29.2593 23.2243 26.9346 24.7413 25.2199C26.2583 23.5108 28.3491 22.6534 31.0135 22.6534C33.678 22.6534 35.6363 23.4888 37.1147 25.1595C38.5931 26.8302 39.3379 29.1329 39.3379 32.0621C39.3379 32.3204 39.3213 32.7326 39.2882 33.2932C39.2772 33.3481 39.2717 33.3866 39.2717 33.4141L39.2772 33.4086ZM35.2777 30.6058C35.2667 29.1219 34.8806 27.9678 34.1248 27.1489C33.369 26.3356 32.2988 25.9234 30.9197 25.9234C29.5406 25.9234 28.5752 26.3246 27.8195 27.1215C27.0637 27.9238 26.6224 29.0834 26.4955 30.6003H35.2777V30.6058Z" fill="white"/>
<path d="M53.598 39.0857C52.9967 39.965 52.2354 40.63 51.3086 41.0861C50.3819 41.5423 49.3117 41.7731 48.1036 41.7731C45.6708 41.7731 43.729 40.9103 42.2727 39.1791C40.8163 37.4534 40.0881 35.1562 40.0881 32.2984C40.0881 29.4407 40.8163 27.017 42.2727 25.2694C43.729 23.5272 45.6873 22.6534 48.1367 22.6534C49.3337 22.6534 50.3819 22.8842 51.2755 23.3569C52.1692 23.824 52.9525 24.5495 53.6311 25.5277V23.247H57.3436V40.7124C57.3436 43.6856 56.6651 45.8125 55.3081 47.0875C53.951 48.3625 51.7334 49.0055 48.6607 49.0055C46.1838 49.0055 44.2531 48.5164 42.8629 47.5381C41.4728 46.5599 40.7667 45.1969 40.7446 43.4493H44.7275C44.7826 44.2242 45.1467 44.8177 45.8142 45.2244C46.4817 45.6311 47.4306 45.8344 48.6607 45.8344C50.3984 45.8344 51.6562 45.4772 52.434 44.7628C53.2118 44.0483 53.598 42.8613 53.598 41.207V39.0967V39.0857ZM44.0379 32.0951C44.0379 34.156 44.4517 35.7333 45.2846 36.8269C46.1176 37.9206 47.3092 38.4647 48.8703 38.4647C50.4315 38.4647 51.6782 37.9481 52.4726 36.9204C53.267 35.8872 53.6697 34.3374 53.6697 32.2655C53.6697 30.1936 53.2504 28.6603 52.4174 27.6051C51.5789 26.5444 50.3543 26.0168 48.738 26.0168C47.2816 26.0168 46.1342 26.5554 45.2957 27.6381C44.4572 28.7207 44.0434 30.2046 44.0434 32.0951H44.0379Z" fill="white"/>
<path d="M60.1515 16.5861H64.0516V20.5046H60.1515V16.5861ZM60.1515 23.2415H64.0516V41.4653H60.1515V23.2415Z" fill="white"/>
<path d="M80.8439 28.5284H77.0816C77.0154 27.6271 76.6513 26.9401 75.9949 26.4675C75.3384 25.9948 74.4117 25.7585 73.2146 25.7585C72.2547 25.7585 71.4935 25.9399 70.9363 26.2971C70.3791 26.6598 70.0978 27.138 70.0978 27.7315C70.0978 28.325 70.324 28.7702 70.7763 29.1274C71.2287 29.4846 72.0286 29.7924 73.1815 30.0507L75.5039 30.5728C77.7546 31.0894 79.2937 31.7489 80.1267 32.5513C80.9597 33.3536 81.3734 34.4858 81.3734 35.9641C81.3734 37.8876 80.6784 39.388 79.2882 40.4541C77.8981 41.5258 75.9563 42.0589 73.4573 42.0589C70.9584 42.0589 69.0662 41.4928 67.7092 40.3607C66.3521 39.2286 65.6736 37.6293 65.6736 35.5574H69.4524C69.5682 36.6731 69.9764 37.5029 70.688 38.047C71.3997 38.5911 72.4423 38.8659 73.8104 38.8659C74.9412 38.8659 75.8349 38.6515 76.4969 38.2174C77.1589 37.7832 77.4899 37.1952 77.4899 36.4532C77.4899 35.9037 77.2968 35.464 76.9051 35.1452C76.5134 34.8265 75.7632 34.5242 74.6434 34.2439L71.8962 33.5515C69.8164 33.0459 68.3491 32.3919 67.4885 31.595C66.6279 30.7926 66.1976 29.71 66.1976 28.336C66.1976 26.5884 66.8376 25.2089 68.1229 24.1922C69.4082 23.17 71.1514 22.6644 73.3525 22.6644C75.5536 22.6644 77.4678 23.1975 78.8193 24.2582C80.1709 25.3189 80.8439 26.7478 80.8439 28.5394V28.5284Z" fill="white"/>
<path d="M56.0528 8.42497V7.18842H55.6225C55.1536 7.18842 55.0433 7.11698 55.0433 6.79273V3.39087H56.0528V2.23127H55.0433V0.555069H53.3111V2.23127H52.4506V3.39087H53.3111V6.7103C53.3111 7.9963 53.6201 8.45794 55.0543 8.45794C55.2364 8.45794 55.5729 8.43596 56.0473 8.42497" fill="white"/>
<path d="M46.1232 8.381H47.8664V4.73733C47.8664 3.92946 48.396 3.44034 49.2069 3.44034C49.9571 3.44034 50.2164 3.83603 50.2164 4.66589V8.381H51.9596V4.19325C51.9596 2.78085 51.248 2.07739 49.8082 2.07739C48.9862 2.07739 48.3243 2.37966 47.8278 2.9677V2.23677H46.1177V8.381H46.1232Z" fill="white"/>
<path d="M45.053 0.0604553H43.3098V1.5553H45.053V0.0604553Z" fill="white"/>
<path d="M45.053 2.23676H43.3098V8.381H45.053V2.23676Z" fill="white"/>
<path d="M37.7932 5.30339C37.7932 4.07784 38.3559 3.40736 39.3268 3.40736C40.2977 3.40736 40.8494 4.07784 40.8494 5.30339C40.8494 6.52894 40.2977 7.21041 39.3268 7.21041C38.3559 7.21041 37.7932 6.52894 37.7932 5.30339ZM36.0225 5.30339C36.0225 7.3533 37.2747 8.58984 39.3268 8.58984C41.3789 8.58984 42.6312 7.3533 42.6312 5.30339C42.6312 3.25348 41.3789 2.01694 39.3268 2.01694C37.2747 2.01694 36.0225 3.25348 36.0225 5.30339Z" fill="white"/>
<path d="M33.7277 5.34735C33.7277 6.49596 33.176 7.16644 32.3155 7.16644C31.3942 7.16644 30.8536 6.51794 30.8536 5.34735C30.8536 4.08333 31.3556 3.44033 32.2769 3.44033C33.1981 3.44033 33.7277 4.09982 33.7277 5.34735ZM29.1601 10.8431H30.8536V7.6116C31.2839 8.2491 31.9459 8.58434 32.7844 8.58434C34.3069 8.58434 35.4599 7.29834 35.4599 5.27591C35.4599 3.25348 34.34 2.02243 32.7568 2.02243C31.9073 2.02243 31.317 2.34668 30.815 3.06662V2.23127H29.1545V10.8431H29.1601Z" fill="white"/>
<path d="M25.6184 8.381H27.3285V3.39087H28.4097V2.23127H27.3175V1.8026C27.3175 1.40691 27.4775 1.34096 27.9574 1.34096H28.4097V0.0329744C28.1008 0.0109915 27.8305 0 27.5768 0C26.2363 0 25.6239 0.511104 25.6239 1.66521V2.23127H24.6917V3.39087H25.6239V8.381H25.6184Z" fill="white"/>
<path d="M19.7325 5.30339C19.7325 4.07784 20.2951 3.40736 21.266 3.40736C22.2369 3.40736 22.7886 4.07784 22.7886 5.30339C22.7886 6.52894 22.2369 7.21041 21.266 7.21041C20.2951 7.21041 19.7325 6.52894 19.7325 5.30339ZM17.9617 5.30339C17.9617 7.3533 19.2139 8.58984 21.266 8.58984C23.3182 8.58984 24.5704 7.3533 24.5704 5.30339C24.5704 3.25348 23.3182 2.01694 21.266 2.01694C19.2139 2.01694 17.9617 3.25348 17.9617 5.30339Z" fill="white"/>
<path d="M12.7265 5.30339C12.7265 4.07784 13.2892 3.40736 14.2601 3.40736C15.2309 3.40736 15.7826 4.07784 15.7826 5.30339C15.7826 6.52894 15.2309 7.21041 14.2601 7.21041C13.2892 7.21041 12.7265 6.52894 12.7265 5.30339ZM10.9557 5.30339C10.9557 7.3533 12.2079 8.58984 14.2601 8.58984C16.3122 8.58984 17.5644 7.3533 17.5644 5.30339C17.5644 3.25348 16.3122 2.01694 14.2601 2.01694C12.2079 2.01694 10.9557 3.25348 10.9557 5.30339Z" fill="white"/>
<path d="M7.00037 8.381H8.74357V5.12752C8.74357 4.20424 9.23453 3.7371 10.1834 3.7371H10.7626V2.07189C10.6743 2.0609 10.5916 2.0609 10.5033 2.0609C9.67034 2.0609 9.08007 2.4401 8.62221 3.28645V2.23127H7.00037V8.3755V8.381Z" fill="white"/>
<path d="M4.56763 5.34735C4.56763 6.49596 4.01599 7.16644 3.15542 7.16644C2.23417 7.16644 1.69355 6.51794 1.69355 5.34735C1.69355 4.08333 2.19555 3.44033 3.1168 3.44033C4.03805 3.44033 4.56763 4.09982 4.56763 5.34735ZM0 10.8431H1.69355V7.6116C2.12384 8.2491 2.78582 8.58434 3.62432 8.58434C5.14686 8.58434 6.2998 7.29834 6.2998 5.27591C6.2998 3.25348 5.17996 2.02243 3.59674 2.02243C2.7472 2.02243 2.15694 2.34668 1.65494 3.06662V2.23127H0V10.8431Z" fill="white"/>
<path d="M58.2759 7.8699C58.2759 8.24361 57.9835 8.54038 57.5974 8.54038C57.2112 8.54038 56.9133 8.24911 56.9133 7.8699C56.9133 7.49069 57.2167 7.21041 57.5974 7.21041C57.978 7.21041 58.2759 7.50169 58.2759 7.8699ZM57.0843 7.8699C57.0843 8.16117 57.305 8.39749 57.6029 8.39749C57.9008 8.39749 58.1104 8.16667 58.1104 7.8754C58.1104 7.58412 57.8953 7.34231 57.6029 7.34231C57.3105 7.34231 57.0899 7.57863 57.0899 7.8699M57.4981 8.21613H57.3436V7.55664C57.4043 7.54565 57.487 7.53466 57.5974 7.53466C57.7243 7.53466 57.7794 7.55664 57.8291 7.58412C57.8677 7.6116 57.8953 7.66656 57.8953 7.72701C57.8953 7.79846 57.8401 7.85341 57.7573 7.88089C57.8235 7.91387 57.8566 7.96333 57.8787 8.05126C57.9008 8.15018 57.9118 8.19415 57.9284 8.21613H57.7629C57.7629 8.21613 57.7298 8.1337 57.7077 8.05675C57.6967 7.98531 57.6525 7.95234 57.5698 7.95234H57.4981V8.21613ZM57.4981 7.84242H57.5698C57.6525 7.84242 57.7243 7.81494 57.7243 7.7435C57.7243 7.68304 57.6801 7.64457 57.5808 7.64457C57.5422 7.64457 57.5146 7.64457 57.4981 7.65007V7.83693V7.84242Z" fill="white"/>
<path d="M87.2705 12.9095C87.2705 12.9095 92.1857 9.76043 98.0056 12.9095V19.8616C98.0056 21.2685 97.2884 22.5765 96.1024 23.3349L92.5387 25.6101L89.1185 23.3459C87.9656 22.582 87.2705 21.296 87.2705 19.9166V12.9205V12.9095Z" fill="white"/>
</g>
<defs>
<clipPath id="clip0_92_60484">
<rect width="98" height="49" fill="white"/>
</clipPath>
</defs>
</svg>
