<svg width="49" height="41" viewBox="0 0 49 41" fill="none" xmlns="http://www.w3.org/2000/svg">
<path d="M44.1828 22.7835L44.1288 22.8315V36.8479C44.1288 37.2734 43.9551 37.6809 43.6554 37.9985L29.0876 25.7498C28.9318 25.624 28.7461 25.5581 28.5363 25.576C28.3386 25.594 28.1528 25.6839 28.027 25.8397C27.9011 25.9955 27.8352 26.1813 27.8532 26.385C27.8712 26.5828 27.961 26.7685 28.1169 26.8944L41.9356 38.5019H3.69139L17.5101 26.9064C17.6659 26.7805 17.7558 26.6007 17.7738 26.397C17.7918 26.1993 17.7258 25.9955 17.6 25.8457C17.4742 25.6899 17.2944 25.6 17.0906 25.582C16.8869 25.564 16.6891 25.63 16.5393 25.7558L1.95955 37.9865C1.65393 37.6689 1.48614 37.2674 1.48614 36.836V9.46217C1.48614 8.97079 1.70187 8.50936 2.08539 8.19176L20.5723 26.6786C21.1715 27.2779 21.9566 27.6015 22.8135 27.6015C23.6704 27.6015 24.4554 27.2779 25.0547 26.6786L30.0404 21.6929L29.9386 21.591C29.6509 21.3034 29.3693 21.0097 29.1116 20.7101L29.0097 20.5903L23.988 25.612C23.3348 26.2532 22.2861 26.2532 21.639 25.612L3.82322 7.80824H26.0075V6.30412H3.16404C1.41423 6.30412 0 7.73034 0 9.46816V36.8419C0 38.5918 1.42622 40.006 3.16404 40.006H42.4749C44.2247 40.006 45.639 38.5798 45.639 36.8419V21.5011L45.4052 21.7288C45.0217 22.0824 44.6142 22.436 44.1828 22.7895" fill="#87D1E6"/>
<path d="M38.0225 0.0719101L37.7348 0L28.3506 2.28315L27.3978 2.51685V11.4936C27.3978 17.63 29.9566 21.0577 37.1775 24.5753L37.7228 24.839L38.2682 24.5753C45.4951 21.0577 48.0479 17.63 48.0479 11.4936V2.52285L38.0225 0.0719101ZM46.6697 3.6015V11.4876C46.6697 17.0427 44.4105 20.027 37.7228 23.2929C31.0292 20.027 28.776 17.0367 28.776 11.4876V3.6015L37.7228 1.42622L46.6697 3.6015Z" fill="#87D1E6"/>
<path d="M37.6689 21.9745L37.7348 22.0045L37.8007 21.9745C43.6674 19.1161 45.6449 16.5094 45.6449 11.6195V4.34457L37.7768 2.43296L37.7408 2.42097L29.9446 4.31461L29.8367 4.34457V11.6255C29.8247 16.5094 31.8142 19.1221 37.6809 21.9805M31.215 11.6255V5.43521L37.7348 3.84719L44.2547 5.43521V11.6255C44.2547 15.8142 42.6667 17.9655 37.7348 20.4584C32.803 17.9655 31.215 15.8142 31.215 11.6255Z" fill="#87D1E6"/>
<path d="M42.409 9.21049C42.5468 9.07266 42.6187 8.90487 42.6187 8.7191C42.6187 8.53333 42.5468 8.35356 42.409 8.22772C42.1453 7.96405 41.6839 7.96405 41.4202 8.22772L36.4404 13.2075L34.385 11.1521C34.1213 10.8884 33.6599 10.8884 33.3963 11.1521C33.1266 11.4217 33.1266 11.8712 33.3963 12.1408L36.4404 15.185L42.409 9.21049Z" fill="#87D1E6"/>
</svg>
