<svg width="16" height="16" viewBox="0 0 16 16" fill="none" xmlns="http://www.w3.org/2000/svg">
<g clip-path="url(#clip0_7_53544)">
<path d="M7.99995 8.02504C7.99995 8.185 7.95205 8.34496 7.86401 8.46494L3.86396 14.4649C3.71997 14.681 3.48003 14.825 3.19995 14.825H0.799951C0.360059 14.825 0 14.4649 0 14.025C0 13.8649 0.0480469 13.705 0.135937 13.585L3.83994 8.02504L0.135937 2.46494C0.0480469 2.34496 0 2.185 0 2.02504C0 1.585 0.360059 1.22495 0.799951 1.22495H3.19995C3.48003 1.22495 3.71997 1.36894 3.86396 1.585L7.86401 7.585C7.95205 7.70497 7.99995 7.86494 7.99995 8.02504Z" fill="white"/>
<path d="M16.0001 8.02504C16.0001 8.185 15.9521 8.34496 15.864 8.46494L11.8641 14.4649C11.7201 14.681 11.48 14.825 11.2001 14.825H8.8001C8.36006 14.825 8 14.4649 8 14.025C8 13.8649 8.04805 13.705 8.13608 13.585L11.8401 8.02504L8.13608 2.46494C8.04805 2.34496 8 2.185 8 2.02504C8 1.585 8.36006 1.22495 8.8001 1.22495H11.2001C11.48 1.22495 11.7201 1.36894 11.8641 1.585L15.864 7.585C15.9521 7.70497 16.0001 7.86494 16.0001 8.02504Z" fill="white"/>
</g>
<defs>
<clipPath id="clip0_7_53544">
<rect width="16" height="16" fill="white"/>
</clipPath>
</defs>
</svg>
