<?xml version="1.0" encoding="UTF-8"?><svg id="Layer_2" xmlns="http://www.w3.org/2000/svg" viewBox="0 0 74.32 69.35"><defs><style>.cls-1{fill:#87d1e6;}</style></defs><g id="Slide_4"><g id="Icons_Graphic"><g id="COMPROMISED"><path class="cls-1" d="m44.25,41.06l1.41-2.44-18.29-6.33c7.36-1.21,13.02-9.55,13.38-17.1,0-8.38-6.82-15.19-15.19-15.19s-15.2,6.82-15.2,15.19c0,7.24,5.82,15.86,13.36,17.1L.17,40.3l-.17.06.45,22.27,2.77-.06-.41-20.25,22.74-7.73s18.7,6.47,18.7,6.47ZM13.12,15.19c0-6.85,5.58-12.43,12.43-12.43s12.43,5.55,12.43,12.36c-.32,6.74-5.82,14.57-12.43,14.57s-12.43-7.97-12.43-14.5Z"/><path class="cls-1" d="m74.16,67.53l-20.03-34.69c-.22-.38-.62-.61-1.06-.61s-.84.23-1.06.61l-20.02,34.68c-.22.38-.22.84,0,1.22.22.38.62.61,1.06.61h40.05c.44,0,.84-.23,1.06-.61s.22-.84,0-1.22h0Zm-39-.61l17.91-31.02,17.91,31.02h-35.83.01Z"/><path class="cls-1" d="m51.91,46.03c-.3.28-.45.64-.43,1.03l.53,10.31c.03.48.45.85.96.85s.93-.38.96-.85l.53-10.31c.02-.39-.13-.75-.43-1.03-.56-.53-1.55-.53-2.12,0Z"/><path class="cls-1" d="m52.97,60.08c-.91,0-1.65.74-1.65,1.66s.74,1.66,1.65,1.66,1.65-.74,1.65-1.66-.74-1.66-1.65-1.66Z"/></g></g></g></svg>