<svg width="43" height="40" viewBox="0 0 43 40" fill="none" xmlns="http://www.w3.org/2000/svg">
<path d="M3.12111 32.3394C3.07235 32.3394 3.02846 32.3394 2.9797 32.3248C2.07271 32.159 1.07796 31.4129 0.999936 29.8086C0.912163 28.0385 2.17999 27.3217 2.86267 27.1901L9.98689 26.405L11.9033 22.5186L13.2979 23.2061L11.1913 27.4729C11.0743 27.7118 10.8402 27.8727 10.5769 27.902L3.09185 28.7261C2.97482 28.7602 2.51645 28.9553 2.55059 29.7355C2.58472 30.4571 2.90168 30.7058 3.18938 30.779C4.00859 30.7692 10.2746 30.6766 12.5128 30.5742C13.1077 30.5449 13.3613 30.423 13.7514 29.9695C14.2829 29.3502 15.658 27.5655 15.6726 27.546L16.9063 28.4969C16.8478 28.57 15.4873 30.3352 14.9314 30.9838C14.2634 31.764 13.6051 32.0858 12.5811 32.1297C10.1771 32.2419 3.40881 32.3345 3.12111 32.3394Z" fill="#87D1E6"/>
<path d="M17.4866 40C17.1648 40 16.8478 39.9512 16.5503 39.8586C14.9607 39.3661 14.5218 37.8593 14.7803 36.6646C15.1216 35.1091 16.3114 31.1252 16.6869 29.8769L12.1032 23.5816C10.9085 21.5336 12.2105 19.3295 12.8346 18.2665L16.3212 13.6487L14.1805 13.1074L10.4063 16.9938C9.72357 17.7008 8.32896 17.9788 7.28056 17.184C5.9786 16.1941 6.05662 14.78 6.68078 13.8876C7.63653 12.532 10.5867 8.99183 10.7135 8.84067C11.1036 8.37255 11.757 7.59722 12.8639 7.59722C12.9565 7.59722 19.876 7.8069 22.1678 7.83616C24.2158 7.86054 26.9319 10.1475 27.0099 12.5466C27.0538 13.8974 27.0733 16.8963 27.0782 17.9739C28.073 18.72 31.1401 21.0265 32.3007 22.0553C32.9882 22.6649 33.3198 23.8254 32.5201 25.0494C31.8667 26.0393 30.5891 26.4342 29.609 25.9515C27.8584 25.0933 24.2158 23.172 22.2068 21.9432C21.5729 21.5482 21.412 20.7924 21.373 20.5242L19.8126 22.3577L22.9626 26.9316C23.382 27.4436 23.5185 28.336 23.2503 29.004C23.2406 29.0382 20.861 35.9625 20.0125 38.2445C19.5444 39.5026 18.5009 40 17.4866 40ZM13.9318 11.4641C13.9952 11.4641 14.0586 11.4739 14.122 11.4885L17.8377 12.4296C18.0912 12.493 18.296 12.6783 18.3838 12.927C18.4716 13.1757 18.4277 13.4487 18.2717 13.6535L14.1268 19.1345C13.6636 19.9244 12.7127 21.5385 13.4052 22.7331L18.1741 29.2722C18.3156 29.4721 18.3594 29.7208 18.2912 29.9549C18.2765 30.0085 16.6918 35.2408 16.3017 36.9962C16.248 37.2498 16.1359 38.0983 17.0087 38.3665C17.3598 38.4737 18.2083 38.6249 18.5496 37.6984C19.3932 35.4309 21.7631 28.5261 21.7875 28.4579C21.8557 28.2823 21.807 27.9751 21.7094 27.8581L18.1839 22.7429C17.984 22.4503 18.0035 22.0651 18.2327 21.7969L21.3974 18.0861C21.6022 17.8471 21.9289 17.7545 22.2312 17.852C22.5286 17.9495 22.7432 18.2177 22.7676 18.5298L22.9139 20.334C22.9334 20.4706 22.9968 20.5973 23.026 20.6217C24.9083 21.7725 28.5265 23.6889 30.2868 24.552C30.5013 24.6593 30.95 24.591 31.2084 24.196C31.5741 23.6401 31.3986 23.3476 31.2572 23.2257C29.9406 22.0602 25.864 19.0272 25.825 18.9979C25.6299 18.8516 25.5129 18.6225 25.5129 18.3786C25.5129 18.3348 25.4934 14.2094 25.4398 12.6051C25.3861 11.0057 23.3088 9.41607 22.1337 9.40144C19.8321 9.37218 12.898 9.1625 12.8298 9.1625C12.5274 9.1625 12.2982 9.37218 11.8984 9.85006C11.8691 9.88419 8.86535 13.4926 7.94374 14.7946C7.78282 15.0286 7.59752 15.487 8.21193 15.9551C8.63617 16.277 9.13842 16.0673 9.27496 15.921L13.3661 11.7128C13.5124 11.5616 13.7172 11.4787 13.9269 11.4787L13.9318 11.4641Z" fill="#87D1E6"/>
<path d="M29.8187 10.5474C26.9124 10.5474 24.5474 8.18237 24.5474 5.27612C24.5474 2.36986 26.9124 0 29.8187 0C32.7249 0 35.0948 2.36499 35.0948 5.27124C35.0948 8.1775 32.7298 10.5425 29.8187 10.5425V10.5474ZM29.8187 1.5604C27.7706 1.5604 26.1078 3.22809 26.1078 5.27612C26.1078 7.32415 27.7755 8.99183 29.8187 8.99183C31.8618 8.99183 33.5344 7.32415 33.5344 5.27612C33.5344 3.22809 31.8667 1.5604 29.8187 1.5604Z" fill="#87D1E6"/>
<path d="M33.9147 35.9917C33.5831 35.9917 33.2711 35.8649 33.0419 35.6309L28.0144 30.6034C27.5317 30.1207 27.5317 29.3356 28.0144 28.8577L35.4898 21.3824C35.7238 21.1484 36.031 21.0216 36.3626 21.0216C36.6942 21.0216 37.0063 21.1532 37.2355 21.3873L42.2629 26.4099C42.497 26.6439 42.6237 26.9511 42.6237 27.2827C42.6237 27.6143 42.497 27.9215 42.2629 28.1556L34.7876 35.6309C34.5535 35.8649 34.2414 35.9917 33.9147 35.9917ZM29.3408 29.7257L33.9147 34.2996L40.9317 27.2778L36.3577 22.7039L29.3408 29.7208V29.7257Z" fill="#87D1E6"/>
</svg>
