<svg width="48" height="40" viewBox="0 0 48 40" fill="none" xmlns="http://www.w3.org/2000/svg">
<path d="M44.3505 0H2.79395C1.2486 0 0 1.2486 0 2.79395V30.2744C0 31.8141 1.2486 33.0683 2.79395 33.0683H16.439L15.6047 38.449C15.5935 38.5106 15.5935 38.5834 15.5935 38.645H12.9003C12.5308 38.645 12.2228 38.9418 12.2228 39.3225C12.2228 39.7033 12.5196 40 12.9003 40H33.617C33.9866 40 34.2945 39.7033 34.2945 39.3225C34.2945 38.9418 33.9978 38.645 33.617 38.645H30.9295C30.9295 38.5834 30.9295 38.5218 30.9183 38.449L30.084 33.0683H44.3617C45.9015 33.0683 47.1557 31.8197 47.1557 30.2744V2.79395C47.1445 1.2542 45.8959 0 44.3561 0M2.79395 31.7133C1.99888 31.7133 1.36058 31.0694 1.36058 30.28V27.1333H45.8007V30.28C45.8007 31.075 45.1568 31.7133 44.3673 31.7133H2.79395ZM45.7895 25.7783H38.8578V21.4334L31.5398 18.897C33.7962 18.2083 35.4703 15.5935 35.5823 13.2139C35.5823 10.3583 33.2587 8.03471 30.4031 8.03471C27.5476 8.03471 25.224 10.3583 25.224 13.2139C25.224 15.5039 26.9429 18.1971 29.2497 18.9026L25.3919 20.2128V18.617L18.0739 16.0806C20.3191 15.3919 22.0045 12.7772 22.1109 10.3919C22.1109 7.53639 19.7872 5.21277 16.9317 5.21277C14.0761 5.21277 11.7525 7.53639 11.7525 10.3919C11.7525 12.682 13.4714 15.3695 15.7783 16.0806L8.33707 18.6114L8.30347 25.7839H1.35498V2.79395C1.35498 1.99888 1.99888 1.36058 2.78835 1.36058H44.3449C45.14 1.36058 45.7783 2.00448 45.7783 2.79395V25.7783H45.7895ZM16.9205 15.0336C14.7872 15.0336 12.9563 12.4804 12.9563 10.3807C12.9563 8.28108 14.7368 6.41657 16.9205 6.41657C19.1041 6.41657 20.8847 8.18589 20.8847 10.3471C20.7783 12.5252 19.0258 15.0336 16.9205 15.0336ZM30.3975 17.8611C28.2643 17.8611 26.4334 15.308 26.4334 13.2083C26.4334 11.1086 28.2139 9.24412 30.3975 9.24412C32.5812 9.24412 34.3617 11.0134 34.3617 13.1747C34.2553 15.3415 32.5028 17.8611 30.3975 17.8611ZM9.52968 19.4793L16.9093 16.9709L24.1489 19.4793V20.6271L21.7805 21.4278L21.7469 25.7727H9.50168L9.52968 19.4849V19.4793ZM23.0067 22.2956L24.972 21.6237C24.972 21.6237 25.0056 21.6125 25.0224 21.6069L30.3863 19.7816L37.626 22.29V25.7615H22.9787L23.0067 22.29V22.2956ZM16.9373 38.6282L17.8108 33.0515H28.7066L29.5969 38.6282H16.9373Z" fill="#87D1E6"/>
<path d="M23.7122 28.3987C23.1747 28.3987 22.7436 28.8298 22.7436 29.3673C22.7436 29.9048 23.1747 30.3359 23.7122 30.3359C24.2497 30.3359 24.6809 29.9048 24.6809 29.3673C24.6921 28.8298 24.2497 28.3987 23.7122 28.3987Z" fill="#87D1E6"/>
</svg>
