<svg width="28" height="41" viewBox="0 0 28 41" fill="none" xmlns="http://www.w3.org/2000/svg">
<path d="M18.1132 38.3701C18.3525 38.3701 18.507 38.5595 18.4023 38.724C17.9238 39.4567 15.9749 40.005 13.6422 40.005C11.3095 40.005 9.36555 39.4567 8.88704 38.724C8.78237 38.5645 8.93689 38.3701 9.17614 38.3701H18.1182H18.1132Z" fill="#87D1E6"/>
<path d="M18.7512 35.1202H8.53813C8.14935 35.1202 7.83035 34.8012 7.83035 34.4124C7.83035 34.0236 8.14935 33.7046 8.53813 33.7046H18.7512C19.14 33.7046 19.459 34.0236 19.459 34.4124C19.459 34.8012 19.14 35.1202 18.7512 35.1202Z" fill="#87D1E6"/>
<path d="M18.3575 37.438H8.92692C8.53813 37.438 8.21913 37.119 8.21913 36.7302C8.21913 36.3414 8.53813 36.0224 8.92692 36.0224H18.3575C18.7462 36.0224 19.0652 36.3414 19.0652 36.7302C19.0652 37.119 18.7462 37.438 18.3575 37.438Z" fill="#87D1E6"/>
<path d="M26.2029 8.30402C25.5101 6.66913 24.5132 5.2087 23.2472 3.95262C21.9811 2.69655 20.5107 1.7196 18.8708 1.03673C17.1712 0.333929 15.3718 -0.0149806 13.5176 -2.73062e-05C6.01103 0.0697546 -0.0500273 6.2305 -0.000183044 13.737C0.0097858 15.3819 0.313836 16.9869 0.897013 18.5121C1.46025 19.9825 2.26773 21.3383 3.30449 22.5395C5.17863 24.7127 6.36991 27.3944 6.75371 30.2953C6.9481 31.7906 8.23409 32.9171 9.74436 32.9171H17.555C19.0603 32.9171 20.3462 31.7906 20.5456 30.2953C20.9294 27.3944 22.1207 24.7177 23.9948 22.5395C25.0366 21.3283 25.854 19.9576 26.4173 18.4673C27.0004 16.9271 27.2945 15.3022 27.2945 13.6374C27.2945 11.7832 26.9307 9.98876 26.2079 8.29904L26.2029 8.30402ZM23.0378 21.7271C21.0042 24.0847 19.7132 26.9956 19.2995 30.1358C19.1849 31.0131 18.4322 31.671 17.545 31.671H9.7344C8.85215 31.671 8.09951 31.0081 7.97988 30.1358C7.56617 26.9956 6.27521 24.0897 4.24156 21.7271C2.32754 19.504 1.26088 16.6679 1.24094 13.7321C1.20106 6.90838 6.70885 1.31088 13.5275 1.24608C13.5674 1.24608 13.6073 1.24608 13.6422 1.24608C16.9319 1.24608 20.0272 2.51711 22.3649 4.83486C24.7325 7.18253 26.0335 10.3078 26.0335 13.6374C26.0335 16.6031 24.9668 19.4741 23.0328 21.7221L23.0378 21.7271Z" fill="#87D1E6"/>
<path d="M18.5618 12.9296V10.6168C18.5419 7.92022 16.3487 5.73704 13.6472 5.73704C10.9456 5.73704 8.75247 7.92022 8.73253 10.6168V12.9296H8.43346C7.95496 12.9296 7.57116 13.3134 7.57116 13.7919V20.8099C7.57116 21.2884 7.95496 21.6722 8.43346 21.6722H18.8609C19.3394 21.6722 19.7232 21.2884 19.7232 20.8099V13.7919C19.7232 13.3134 19.3394 12.9296 18.8609 12.9296H18.5618ZM12.9793 18.6816C12.7998 18.6816 12.6752 18.5071 12.735 18.3377L13.2783 16.7576C12.8447 16.6031 12.5356 16.1794 12.5556 15.686C12.5805 15.1377 13.0191 14.6841 13.5724 14.6492C14.2104 14.6043 14.7388 15.1078 14.7388 15.7358C14.7388 16.2093 14.4347 16.6081 14.016 16.7576L14.5593 18.3377C14.6191 18.5071 14.4945 18.6816 14.3151 18.6816H12.9793ZM16.6478 12.9296H10.6366C10.6366 12.9296 10.6366 10.6268 10.6366 10.6317C10.6465 8.98689 11.9973 7.65106 13.6372 7.65106C15.2771 7.65106 16.6279 8.98689 16.6378 10.6317V12.9296H16.6478Z" fill="#87D1E6"/>
</svg>
