<svg width="308" height="46" viewBox="0 0 308 46" fill="none" xmlns="http://www.w3.org/2000/svg">
<path d="M2.55371 15.3758H6.43031V38.4395H2.55371V15.3758Z" fill="white"/>
<path d="M21.1624 15.3758H24.6596V38.4395H21.2086V36.2335C20.4753 37.1862 19.6805 37.8791 18.8293 38.3223C17.9781 38.7655 17.0038 38.9897 15.9116 38.9897C13.7374 38.9897 11.9786 38.1745 10.63 36.5391C9.28136 34.9037 8.61475 32.7487 8.61475 30.0638C8.61475 27.3789 9.28649 25.1627 10.63 23.4967C11.9734 21.8308 13.722 21.0003 15.8757 21.0003C17.0192 21.0003 18.0345 21.2194 18.9113 21.6524C19.7882 22.0855 20.5368 22.7478 21.1573 23.6343V15.3809L21.1624 15.3758ZM16.7166 24.1438C15.3065 24.1438 14.2143 24.6685 13.4297 25.7078C12.6452 26.7522 12.2555 28.2195 12.2555 30.1096C12.2555 31.9998 12.6503 33.3091 13.4349 34.323C14.2245 35.3368 15.3168 35.8412 16.7115 35.8412C18.1063 35.8412 19.2908 35.3317 20.0702 34.3128C20.8496 33.2938 21.2342 31.8164 21.2342 29.8753C21.2342 27.9342 20.8496 26.5739 20.0856 25.6008C19.3164 24.6278 18.1934 24.1438 16.7115 24.1438H16.7166Z" fill="white"/>
<path d="M42.1143 30.9707H30.2487C30.2794 32.5449 30.6691 33.7575 31.4127 34.6032C32.1613 35.4489 33.2074 35.8718 34.5662 35.8718C35.5303 35.8718 36.3456 35.6272 37.0071 35.1432C37.6685 34.6592 38.1095 33.9816 38.33 33.1155H41.9246C41.5964 34.8783 40.7401 36.2997 39.3453 37.3747C37.9557 38.4497 36.284 38.9897 34.3406 38.9897C31.9049 38.9897 29.9871 38.1847 28.5873 36.5799C27.1874 34.97 26.49 32.7589 26.49 29.9415C26.49 27.1242 27.1925 24.9691 28.6026 23.3796C30.0128 21.7951 31.9562 21.0003 34.4329 21.0003C36.9096 21.0003 38.73 21.7747 40.1042 23.3235C41.4785 24.8723 42.1707 27.007 42.1707 29.7174C42.1707 29.9568 42.1554 30.3389 42.1246 30.8586C42.1143 30.9095 42.1092 30.9452 42.1092 30.9656L42.1143 30.9707ZM38.3967 28.3724C38.3864 26.9917 38.0275 25.9269 37.325 25.1678C36.6225 24.4087 35.6277 24.0317 34.3457 24.0317C33.0638 24.0317 32.1664 24.4036 31.4639 25.1423C30.7614 25.8861 30.3512 26.9611 30.2333 28.3673H38.3967V28.3724Z" fill="white"/>
<path d="M58.3542 27.6948V38.4344H54.7442V27.333C54.7442 26.309 54.4776 25.5295 53.9391 24.9844C53.4059 24.4392 52.6367 24.1692 51.6368 24.1692C50.2728 24.1692 49.2062 24.5615 48.4473 25.3461C47.6833 26.1307 47.3038 27.221 47.3038 28.6169V38.4344H43.6938V21.5404H47.1756V23.8126C47.7756 22.9465 48.5242 22.2791 49.4216 21.8155C50.3189 21.3519 51.3035 21.1175 52.3752 21.1175C54.5186 21.1175 56.0518 21.6066 56.9697 22.5797C57.8875 23.5579 58.349 25.2595 58.349 27.6948H58.3542Z" fill="white"/>
<path d="M61.2975 16.894H64.8767V21.5455H67.7124V24.2049H64.8767V34.1497C64.8767 34.7662 64.9741 35.1738 65.1741 35.3776C65.3741 35.5814 65.7484 35.6832 66.292 35.6832C66.3843 35.6832 66.5073 35.6782 66.6612 35.668C66.815 35.6578 66.9278 35.6527 66.9996 35.6527L67.7072 35.6221V38.47C67.6201 38.4802 67.5021 38.4904 67.3432 38.5006C66.3125 38.6076 65.5895 38.6585 65.169 38.6585C63.7486 38.6585 62.7487 38.3631 62.1641 37.767C61.5795 37.1709 61.2873 36.1112 61.2873 34.5879V24.2049H58.8618V21.5455H61.2873V16.894H61.2975Z" fill="white"/>
<path d="M68.8403 15.3758H72.4657V19.0083H68.8403V15.3758ZM68.8403 21.5455H72.4657V38.4395H68.8403V21.5455Z" fill="white"/>
<path d="M75.5321 16.894H79.1113V21.5455H81.947V24.2049H79.1113V34.1497C79.1113 34.7662 79.2087 35.1738 79.4087 35.3776C79.6087 35.5814 79.983 35.6832 80.5266 35.6832C80.6189 35.6832 80.7419 35.6782 80.8958 35.668C81.0496 35.6578 81.1624 35.6527 81.2342 35.6527L81.9419 35.6221V38.47C81.8547 38.4802 81.7367 38.4904 81.5778 38.5006C80.5471 38.6076 79.8241 38.6585 79.4036 38.6585C77.9832 38.6585 76.9833 38.3631 76.3987 37.767C75.8142 37.1709 75.5219 36.1112 75.5219 34.5879V24.2049H73.0964V21.5455H75.5219V16.894H75.5321Z" fill="white"/>
<path d="M82.4905 21.5455H86.4645L90.7052 34.5573L94.8946 21.5455H98.7712L91.6948 41.2263C91.0949 42.8973 90.4232 44.0131 89.6694 44.5786C88.9156 45.1441 87.808 45.4243 86.3363 45.4243C85.9671 45.4243 85.6543 45.409 85.3928 45.3835C85.1313 45.3581 84.8903 45.3071 84.6698 45.2358V42.1026C84.921 42.1535 85.1621 42.1943 85.3877 42.2197C85.6133 42.2452 85.8287 42.2605 86.0235 42.2605C86.6953 42.2605 87.2132 42.1433 87.567 41.909C87.9259 41.6746 88.2028 41.2721 88.4028 40.7117L88.89 39.3005L82.4905 21.5455Z" fill="white"/>
<path d="M105.042 15.3758H123.185V18.7587H116.062V38.4395H112.216V18.7587H105.048V15.3758H105.042Z" fill="white"/>
<path d="M124.031 15.3758H127.656V23.7209C128.205 22.8752 128.918 22.2332 129.81 21.79C130.702 21.3468 131.707 21.1226 132.845 21.1226C134.727 21.1226 136.163 21.5811 137.163 22.4931C138.163 23.405 138.66 24.7246 138.66 26.4466C138.66 26.4873 138.66 26.6809 138.676 27.0172C138.686 27.3585 138.691 27.6693 138.691 27.9495V38.4395H135.081V28.0106C135.081 26.6758 134.82 25.7078 134.302 25.1067C133.784 24.5055 132.953 24.2049 131.82 24.2049C130.569 24.2049 129.564 24.587 128.8 25.3563C128.036 26.1256 127.656 27.1496 127.656 28.4335V38.4395H124.031V15.3758Z" fill="white"/>
<path d="M150.136 21.1837V24.8774H149.172C147.721 24.8774 146.634 25.2391 145.901 25.9677C145.173 26.6911 144.803 27.7814 144.803 29.2334V38.4395H141.224V21.5455H144.614V24.5208C145.106 23.3948 145.747 22.5491 146.536 21.9938C147.326 21.4334 148.254 21.1583 149.326 21.1583H149.418C149.67 21.1786 149.905 21.1888 150.126 21.1888L150.136 21.1837Z" fill="white"/>
<path d="M165.863 30.9707H153.997C154.028 32.5449 154.418 33.7575 155.167 34.6032C155.915 35.4489 156.961 35.8718 158.32 35.8718C159.284 35.8718 160.099 35.6272 160.761 35.1432C161.422 34.6592 161.863 33.9816 162.084 33.1155H165.679C165.35 34.8783 164.494 36.2997 163.099 37.3747C161.71 38.4497 160.038 38.9897 158.095 38.9897C155.659 38.9897 153.741 38.1847 152.341 36.5799C150.941 34.9751 150.244 32.7589 150.244 29.9415C150.244 27.1242 150.946 24.9691 152.357 23.3796C153.762 21.7951 155.71 21.0003 158.187 21.0003C160.664 21.0003 162.484 21.7747 163.858 23.3235C165.232 24.8723 165.925 27.007 165.925 29.7174C165.925 29.9568 165.909 30.3389 165.878 30.8586C165.868 30.9095 165.863 30.9452 165.863 30.9656V30.9707ZM162.145 28.3724C162.135 26.9917 161.776 25.9269 161.074 25.1678C160.371 24.4087 159.376 24.0317 158.095 24.0317C156.813 24.0317 155.915 24.4036 155.213 25.1423C154.51 25.8811 154.1 26.9611 153.982 28.3673H162.145V28.3724Z" fill="white"/>
<path d="M177.611 36.1978C176.919 37.0843 176.083 37.7721 175.103 38.2561C174.129 38.7401 173.083 38.9846 171.965 38.9846C170.253 38.9846 168.909 38.5414 167.94 37.6549C166.971 36.7684 166.484 35.5406 166.484 33.9765C166.484 32.2647 167.002 30.9808 168.042 30.1147C169.083 29.2537 170.97 28.6526 173.698 28.3061C173.78 28.2959 173.904 28.2807 174.062 28.2603C176.344 27.9699 177.483 27.3229 177.483 26.3192C177.483 25.504 177.201 24.9029 176.632 24.5208C176.062 24.1336 175.185 23.94 174.001 23.94C172.898 23.94 172.052 24.1692 171.463 24.6278C170.873 25.0863 170.581 25.7435 170.581 26.5994V26.7268H167.16V26.4466C167.16 24.7653 167.781 23.4356 169.027 22.4625C170.273 21.4843 171.97 21.0003 174.124 21.0003C176.278 21.0003 178.088 21.4232 179.236 22.2587C180.385 23.0993 180.964 24.3425 180.964 25.9931V34.3688C180.964 35.0158 181.041 35.4387 181.195 35.6374C181.349 35.8361 181.621 35.9329 182.005 35.9329C182.077 35.9329 182.159 35.9329 182.252 35.9227C182.339 35.9227 182.498 35.9023 182.718 35.8819V38.4955C182.395 38.577 182.072 38.6433 181.764 38.684C181.452 38.7248 181.159 38.7452 180.872 38.7452C179.78 38.7452 178.97 38.5363 178.436 38.1185C177.903 37.7007 177.631 37.0588 177.606 36.1927L177.611 36.1978ZM177.452 29.967C176.698 30.3542 175.493 30.665 173.842 30.9044C173.242 30.9961 172.801 31.0725 172.519 31.1235C171.678 31.2814 171.052 31.5718 170.642 31.9947C170.232 32.4175 170.027 32.9729 170.027 33.6607C170.027 34.435 170.268 35.0311 170.75 35.454C171.232 35.8768 171.919 36.0908 172.801 36.0908C174.134 36.0908 175.242 35.7138 176.124 34.9649C177.006 34.216 177.447 33.2531 177.447 32.0813V29.967H177.452Z" fill="white"/>
<path d="M184.067 16.894H187.646V21.5455H190.482V24.2049H187.646V34.1497C187.646 34.7662 187.749 35.1738 187.943 35.3776C188.138 35.5814 188.518 35.6832 189.061 35.6832C189.159 35.6832 189.282 35.6782 189.43 35.668C189.584 35.6578 189.697 35.6527 189.769 35.6527L190.477 35.6221V38.47C190.389 38.4802 190.271 38.4904 190.112 38.5006C189.082 38.6076 188.359 38.6585 187.938 38.6585C186.518 38.6585 185.518 38.3631 184.933 37.767C184.349 37.1709 184.057 36.1112 184.057 34.5879V24.2049H181.631V21.5455H184.057V16.894H184.067Z" fill="white"/>
<path d="M199.291 15.3758H208.26C211.664 15.3758 214.218 16.3336 215.926 18.2492C217.633 20.1648 218.489 23.028 218.489 26.8389C218.489 30.6497 217.556 33.4314 215.685 35.4336C213.813 37.4358 211.126 38.4395 207.613 38.4395H199.291V15.3758ZM203.091 18.6466V35.0413H207.834C210.136 35.0413 211.828 34.3586 212.916 32.9881C214.003 31.6177 214.546 29.5034 214.546 26.63C214.546 24.0215 213.997 22.0346 212.905 20.6794C211.813 19.3242 210.208 18.6415 208.101 18.6415H203.086L203.091 18.6466Z" fill="white"/>
<path d="M235.206 30.9707H223.34C223.371 32.5449 223.761 33.7575 224.504 34.6032C225.253 35.4489 226.299 35.8718 227.658 35.8718C228.622 35.8718 229.437 35.6272 230.099 35.1432C230.76 34.6592 231.201 33.9816 231.422 33.1155H235.016C234.693 34.8783 233.832 36.2997 232.437 37.3747C231.048 38.4497 229.376 38.9897 227.432 38.9897C224.997 38.9897 223.079 38.1847 221.679 36.5799C220.279 34.97 219.582 32.7589 219.582 29.9415C219.582 27.1242 220.284 24.9691 221.694 23.3796C223.105 21.7951 225.048 21.0003 227.525 21.0003C230.001 21.0003 231.822 21.7747 233.196 23.3235C234.57 24.8723 235.263 27.007 235.263 29.7174C235.263 29.9568 235.247 30.3389 235.216 30.8586C235.206 30.9095 235.201 30.9452 235.201 30.9656L235.206 30.9707ZM231.488 28.3724C231.478 26.9917 231.119 25.9269 230.417 25.1678C229.714 24.4087 228.719 24.0317 227.438 24.0317C226.156 24.0317 225.258 24.4036 224.556 25.1423C223.853 25.8861 223.443 26.9611 223.325 28.3673H231.488V28.3724Z" fill="white"/>
<path d="M244.021 15.279V18.3001L243.246 18.239C243.046 18.2186 242.882 18.2084 242.759 18.2084C242.108 18.2084 241.657 18.346 241.411 18.616C241.165 18.886 241.042 19.4363 241.042 20.2616V21.5455H244.021V24.2049H241.042V38.4395H237.462V24.2049H234.847V21.5455H237.462V19.4617C237.462 17.9894 237.821 16.894 238.544 16.1706C239.262 15.4522 240.36 15.0905 241.831 15.0905C242.221 15.0905 242.913 15.1465 243.913 15.2637L244.021 15.279Z" fill="white"/>
<path d="M259.322 30.9707H247.456C247.487 32.5449 247.877 33.7575 248.626 34.6032C249.374 35.4489 250.42 35.8718 251.779 35.8718C252.743 35.8718 253.558 35.6272 254.22 35.1432C254.881 34.6592 255.322 33.9816 255.543 33.1155H259.137C258.809 34.8783 257.953 36.2997 256.558 37.3747C255.169 38.4497 253.497 38.9897 251.554 38.9897C249.118 38.9897 247.2 38.1847 245.8 36.5799C244.4 34.9751 243.703 32.7589 243.703 29.9415C243.703 27.1242 244.405 24.9691 245.816 23.3796C247.221 21.7951 249.169 21.0003 251.646 21.0003C254.123 21.0003 255.943 21.7747 257.317 23.3235C258.691 24.8723 259.384 27.007 259.384 29.7174C259.384 29.9568 259.368 30.3389 259.337 30.8586C259.327 30.9095 259.322 30.9452 259.322 30.9656V30.9707ZM255.604 28.3724C255.594 26.9917 255.235 25.9269 254.533 25.1678C253.83 24.4087 252.835 24.0317 251.554 24.0317C250.272 24.0317 249.374 24.4036 248.672 25.1423C247.969 25.8811 247.559 26.9611 247.441 28.3673H255.604V28.3724Z" fill="white"/>
<path d="M275.562 27.6948V38.4344H271.952V27.333C271.952 26.309 271.685 25.5295 271.147 24.9844C270.613 24.4392 269.844 24.1692 268.844 24.1692C267.48 24.1692 266.414 24.5615 265.655 25.3461C264.891 26.1307 264.511 27.221 264.511 28.6169V38.4344H260.901V21.5404H264.383V23.8126C264.983 22.9465 265.732 22.2791 266.629 21.8155C267.526 21.3519 268.511 21.1175 269.583 21.1175C271.726 21.1175 273.259 21.6066 274.177 22.5797C275.095 23.5579 275.557 25.2595 275.557 27.6948H275.562Z" fill="white"/>
<path d="M291.047 26.4466H287.55C287.489 25.611 287.15 24.9742 286.54 24.536C285.93 24.0979 285.068 23.8788 283.956 23.8788C283.064 23.8788 282.356 24.047 281.838 24.3781C281.315 24.7144 281.059 25.1576 281.059 25.7078C281.059 26.2581 281.269 26.6707 281.689 27.0019C282.11 27.3279 282.858 27.6132 283.93 27.8527L286.089 28.3367C288.181 28.8156 289.612 29.427 290.386 30.1708C291.16 30.9146 291.545 31.9692 291.545 33.3346C291.545 35.1177 290.899 36.5086 289.607 37.502C288.314 38.4955 286.509 38.9897 284.186 38.9897C281.864 38.9897 280.105 38.4649 278.843 37.4154C277.582 36.3659 276.951 34.8834 276.951 32.9627H280.464C280.571 33.9969 280.951 34.7662 281.612 35.2706C282.274 35.7749 283.243 36.0297 284.515 36.0297C285.566 36.0297 286.397 35.831 287.012 35.4285C287.627 35.026 287.935 34.4809 287.935 33.7931C287.935 33.2836 287.755 32.8761 287.391 32.5806C287.027 32.2851 286.33 32.0049 285.289 31.745L282.735 31.1031C280.802 30.6344 279.438 30.0281 278.638 29.2843C277.838 28.5456 277.438 27.5368 277.438 26.2631C277.438 24.643 278.033 23.3643 279.228 22.4217C280.423 21.4792 282.043 21.0054 284.089 21.0054C286.135 21.0054 287.914 21.4996 289.171 22.4829C290.427 23.4713 291.053 24.7908 291.053 26.4517L291.047 26.4466Z" fill="white"/>
<path d="M307.939 30.9707H296.073C296.104 32.5449 296.493 33.7575 297.237 34.6032C297.986 35.4489 299.032 35.8718 300.39 35.8718C301.354 35.8718 302.17 35.6272 302.831 35.1432C303.493 34.6592 303.934 33.9816 304.154 33.1155H307.749C307.426 34.8783 306.564 36.2997 305.17 37.3747C303.78 38.4497 302.108 38.9897 300.165 38.9897C297.729 38.9897 295.811 38.1847 294.411 36.5799C293.012 34.97 292.314 32.7589 292.314 29.9415C292.314 27.1242 293.017 24.9691 294.427 23.3796C295.837 21.7951 297.78 21.0003 300.257 21.0003C302.734 21.0003 304.554 21.7747 305.928 23.3235C307.303 24.8723 307.995 27.007 307.995 29.7174C307.995 29.9568 307.98 30.3389 307.949 30.8586C307.939 30.9095 307.933 30.9452 307.933 30.9656L307.939 30.9707ZM304.221 28.3724C304.211 26.9917 303.852 25.9269 303.149 25.1678C302.447 24.4087 301.452 24.0317 300.17 24.0317C298.888 24.0317 297.991 24.4036 297.288 25.1423C296.586 25.8861 296.175 26.9611 296.057 28.3673H304.221V28.3724Z" fill="white"/>
<path d="M54.6365 7.81017V6.66386H54.2366C53.8007 6.66386 53.6981 6.59763 53.6981 6.29704V3.14343H54.6365V2.06845H53.6981V0.514565H52.088V2.06845H51.2881V3.14343H52.088V6.22062C52.088 7.41278 52.3752 7.84074 53.7084 7.84074C53.8776 7.84074 54.1904 7.82036 54.6314 7.81017" fill="white"/>
<path d="M45.4065 7.76941H47.0269V4.39163C47.0269 3.64271 47.5191 3.18928 48.2729 3.18928C48.9703 3.18928 49.2113 3.5561 49.2113 4.3254V7.76941H50.8317V3.88725C50.8317 2.57792 50.1702 1.9258 48.8319 1.9258C48.0678 1.9258 47.4525 2.206 46.991 2.75114V2.07354H45.4014V7.76941H45.4065Z" fill="white"/>
<path d="M44.4116 0.0560379H42.7913V1.44179H44.4116V0.0560379Z" fill="white"/>
<path d="M44.4116 2.07354H42.7913V7.76941H44.4116V2.07354Z" fill="white"/>
<path d="M37.6636 4.91638C37.6636 3.78026 38.1866 3.15871 39.0891 3.15871C39.9916 3.15871 40.5044 3.78026 40.5044 4.91638C40.5044 6.0525 39.9916 6.68424 39.0891 6.68424C38.1866 6.68424 37.6636 6.0525 37.6636 4.91638ZM36.0176 4.91638C36.0176 6.8167 37.1816 7.96301 39.0891 7.96301C40.9967 7.96301 42.1607 6.8167 42.1607 4.91638C42.1607 3.01606 40.9967 1.86975 39.0891 1.86975C37.1816 1.86975 36.0176 3.01606 36.0176 4.91638Z" fill="white"/>
<path d="M33.8845 4.95714C33.8845 6.02193 33.3717 6.64348 32.5718 6.64348C31.7154 6.64348 31.2129 6.04231 31.2129 4.95714C31.2129 3.78536 31.6795 3.18928 32.5359 3.18928C33.3922 3.18928 33.8845 3.80064 33.8845 4.95714ZM29.6387 10.0518H31.2129V7.05615C31.6129 7.64714 32.2282 7.95791 33.0076 7.95791C34.4229 7.95791 35.4946 6.76575 35.4946 4.89091C35.4946 3.01606 34.4537 1.87485 32.982 1.87485C32.1923 1.87485 31.6436 2.17543 31.177 2.84284V2.06845H29.6335V10.0518H29.6387Z" fill="white"/>
<path d="M26.3466 7.76941H27.9362V3.14343H28.9412V2.06845H27.9259V1.67106C27.9259 1.30424 28.0746 1.24311 28.5208 1.24311H28.9412V0.0305682C28.6541 0.0101894 28.4028 0 28.1618 0C26.9158 0 26.3466 0.473807 26.3466 1.54369V2.06845H25.48V3.14343H26.3466V7.76941Z" fill="white"/>
<path d="M20.8753 4.91638C20.8753 3.78026 21.3983 3.15871 22.3008 3.15871C23.2033 3.15871 23.7161 3.78026 23.7161 4.91638C23.7161 6.0525 23.2033 6.68424 22.3008 6.68424C21.3983 6.68424 20.8753 6.0525 20.8753 4.91638ZM19.2292 4.91638C19.2292 6.8167 20.3933 7.96301 22.3008 7.96301C24.2083 7.96301 25.3723 6.8167 25.3723 4.91638C25.3723 3.01606 24.2083 1.86975 22.3008 1.86975C20.3933 1.86975 19.2292 3.01606 19.2292 4.91638Z" fill="white"/>
<path d="M14.3628 4.91638C14.3628 3.78026 14.8858 3.15871 15.7883 3.15871C16.6908 3.15871 17.2036 3.78026 17.2036 4.91638C17.2036 6.0525 16.6908 6.68424 15.7883 6.68424C14.8858 6.68424 14.3628 6.0525 14.3628 4.91638ZM12.7168 4.91638C12.7168 6.8167 13.8808 7.96301 15.7883 7.96301C17.6959 7.96301 18.8599 6.8167 18.8599 4.91638C18.8599 3.01606 17.6959 1.86975 15.7883 1.86975C13.8808 1.86975 12.7168 3.01606 12.7168 4.91638Z" fill="white"/>
<path d="M9.04541 7.76941H10.6658V4.75335C10.6658 3.89744 11.1222 3.46439 12.0041 3.46439H12.5426V1.9207C12.4605 1.91051 12.3836 1.91051 12.3015 1.91051C11.5273 1.91051 10.9786 2.26204 10.553 3.04662V2.06844H9.04541V7.76431V7.76941Z" fill="white"/>
<path d="M6.78413 4.95714C6.78413 6.02193 6.27135 6.64348 5.47142 6.64348C4.61508 6.64348 4.11256 6.04231 4.11256 4.95714C4.11256 3.78536 4.57919 3.18928 5.43553 3.18928C6.29186 3.18928 6.78413 3.80064 6.78413 4.95714ZM2.53833 10.0518H4.11256V7.05615C4.51253 7.64714 5.12786 7.95791 5.90728 7.95791C7.32255 7.95791 8.39425 6.76575 8.39425 4.89091C8.39425 3.01606 7.35331 1.87485 5.88164 1.87485C5.09196 1.87485 4.54329 2.17543 4.07666 2.84284V2.06845H2.5332V10.0518H2.53833Z" fill="white"/>
<path d="M56.7031 7.29561C56.7031 7.64204 56.4313 7.91716 56.0724 7.91716C55.7134 7.91716 55.4365 7.64714 55.4365 7.29561C55.4365 6.94407 55.7186 6.68424 56.0724 6.68424C56.4262 6.68424 56.7031 6.95426 56.7031 7.29561ZM55.5955 7.29561C55.5955 7.56562 55.8006 7.7847 56.0775 7.7847C56.3544 7.7847 56.5493 7.57072 56.5493 7.3007C56.5493 7.03068 56.3493 6.80651 56.0775 6.80651C55.8057 6.80651 55.6006 7.02559 55.6006 7.29561M55.9801 7.61657H55.8365V7.00521C55.8929 6.99502 55.9698 6.98483 56.0724 6.98483C56.1903 6.98483 56.2416 7.00521 56.2877 7.03068C56.3236 7.05616 56.3493 7.1071 56.3493 7.16314C56.3493 7.22937 56.298 7.28032 56.2211 7.3058C56.2826 7.33636 56.3134 7.38222 56.3339 7.46373C56.3544 7.55544 56.3646 7.59619 56.38 7.61657H56.2262C56.2262 7.61657 56.1954 7.54015 56.1749 7.46883C56.1647 7.40259 56.1236 7.37203 56.0467 7.37203H55.9801V7.61657ZM55.9801 7.27013H56.0467C56.1236 7.27013 56.1903 7.24466 56.1903 7.17843C56.1903 7.12239 56.1493 7.08672 56.057 7.08672C56.0211 7.08672 55.9955 7.08672 55.9801 7.09182V7.26504V7.27013Z" fill="white"/>
</svg>
