<svg width="43" height="40" viewBox="0 0 43 40" fill="none" xmlns="http://www.w3.org/2000/svg">
<path d="M33.1261 19.3926V14.5195C33.1452 14.1638 31.5303 12.9681 28.2815 10.9325C26.7858 9.99405 24.8136 8.76027 22.2222 7.12635V0H42.8296V19.3926H33.1309M22.227 34.3218C28.2958 33.9836 33.1356 28.8151 33.1356 22.5319V20.6026H42.8343V39.9952H22.227V34.3027V34.3218ZM10.0274 20.6026V22.5604C10.0322 28.7293 14.6624 33.8359 20.6121 34.3027V39.9952H0V20.6026H10.0274ZM10.0274 19.3926H0V0H20.6074V7.32166C18.2113 8.83173 16.363 9.99405 14.9387 10.8848C11.6391 12.9554 9.99881 14.167 10.0179 14.5195V19.3926" fill="#87D1E6"/>
<path d="M17.068 26.5285C16.7155 26.5285 16.4297 26.2427 16.4297 25.8902V20.2215C16.4297 19.869 16.7155 19.5832 17.068 19.5832H17.9207V18.6114C17.9207 16.8012 19.3926 15.3293 21.2028 15.3293C23.013 15.3293 24.4849 16.8012 24.4849 18.6114V19.5832H25.3376C25.6901 19.5832 25.9759 19.869 25.9759 20.2215V25.8902C25.9759 26.2427 25.6901 26.5285 25.3376 26.5285H17.068ZM17.7063 25.2519H24.6945V20.8646H17.7063V25.2519ZM19.1973 19.5832H23.2035V18.6114C23.2035 17.5063 22.3032 16.6107 21.198 16.6107C20.0929 16.6107 19.1973 17.511 19.1973 18.6114V19.5832Z" fill="#87D1E6"/>
</svg>
