<?xml version="1.0" encoding="UTF-8"?><svg id="Layer_2" xmlns="http://www.w3.org/2000/svg" viewBox="0 0 73.14 94.35"><defs><style>.cls-1{fill:#87d1e6;}</style></defs><g id="Slide_4"><g id="Icons_Graphic"><g id="NEGLIGENT_USERS"><path class="cls-1" d="m50.65,46.66v-6.31l-23.29-8.06c7.36-1.21,13.02-9.55,13.38-17.1,0-8.38-6.82-15.19-15.19-15.19s-15.2,6.82-15.2,15.19c0,7.24,5.82,15.86,13.36,17.1L.17,40.3l-.17.06.45,22.27,2.77-.06-.41-20.25,22.74-7.73,22.34,7.73v4.34c-12.52.72-22.49,11.13-22.49,23.82s10.71,23.87,23.87,23.87,23.87-10.71,23.87-23.87-9.97-23.1-22.49-23.82ZM13.12,15.19c0-6.85,5.58-12.43,12.43-12.43s12.43,5.55,12.43,12.36c-.32,6.74-5.82,14.57-12.43,14.57s-12.43-7.97-12.43-14.5Zm36.15,76.4c-11.64,0-21.1-9.47-21.1-21.1s9.47-21.1,21.1-21.1,21.1,9.47,21.1,21.1-9.47,21.1-21.1,21.1Z"/><rect class="cls-1" x="47.43" y="79.55" width="3.47" height="3.8"/><path class="cls-1" d="m49.58,57.15c-2.52,0-4.47.69-5.86,2.08-1.39,1.39-2.08,3.34-2.08,5.86v.47h3.07c.07-1.88.49-3.29,1.27-4.22.78-.93,1.93-1.4,3.46-1.4,1.24,0,2.23.36,2.99,1.07.76.71,1.14,1.65,1.14,2.82,0,.82-.15,1.56-.45,2.22-.3.66-.8,1.33-1.51,2.03l-1.35,1.35c-.98.97-1.69,1.95-2.11,2.94-.42.99-.64,2.12-.64,3.39,0,.08,0,.21.02.37.01.17.02.29.02.37l3.12-.02c-.01-.09-.02-.2-.03-.33s0-.31,0-.54c0-.96.15-1.77.44-2.43s.89-1.42,1.79-2.27l1.46-1.39c.87-.82,1.51-1.7,1.94-2.64.43-.94.64-1.96.64-3.06,0-2.01-.66-3.63-1.99-4.85s-3.1-1.83-5.32-1.83h-.02Z"/></g></g></g></svg>