<svg width="47" height="40" viewBox="0 0 47 40" fill="none" xmlns="http://www.w3.org/2000/svg">
<path d="M11.5152 20.4226V21.2417H15.7771C15.8185 20.9566 15.86 20.7077 15.943 20.4226H11.5152Z" fill="#87D1E6"/>
<path d="M30.7505 21.2417L34.6701 21.2003C34.7116 20.9151 34.5768 20.7077 34.6598 20.4174H30.7505V21.2417Z" fill="#87D1E6"/>
<path d="M22.8697 33.3895H23.6889V28.5885C23.4038 28.464 23.1549 28.407 22.8697 28.2411V33.3895Z" fill="#87D1E6"/>
<path d="M22.8697 13.0655H23.6889V9.09916C23.4038 8.97472 23.1549 9.26507 22.8697 9.09916V13.0655Z" fill="#87D1E6"/>
<path d="M31.7926 39.9119H14.7712C14.5638 39.9119 14.3616 39.746 14.3616 39.5023V33.4362C14.3616 33.2288 14.5275 33.0266 14.7712 33.0266H31.7874C31.9948 33.0266 32.197 33.1925 32.197 33.4362V39.5437C32.197 39.7511 32.0311 39.9119 31.7874 39.9119M15.1808 39.1342H31.3778V33.8043H15.1808V39.1342Z" fill="#87D1E6"/>
<path d="M31.7926 40H14.7712C14.5327 40 14.2735 39.8082 14.2735 39.5023V33.4362C14.2735 33.1977 14.4653 32.9332 14.7712 32.9332H31.7874C32.0259 32.9332 32.2852 33.1251 32.2852 33.4362V39.5437C32.2852 39.803 32.0726 40 31.7874 40M14.7712 33.1095C14.5742 33.1095 14.4498 33.2754 14.4498 33.431V39.4971C14.4498 39.6941 14.6157 39.8185 14.7712 39.8185H31.7874C31.9741 39.8185 32.1089 39.7045 32.1089 39.5386V33.431C32.1089 33.234 31.943 33.1095 31.7874 33.1095H14.7712ZM31.466 39.2171H15.0875V33.7058H31.466V39.2171ZM15.269 39.0356H31.2845V33.8872H15.269V39.0356Z" fill="#87D1E6"/>
<path d="M22.7297 37.0395H18.2605C18.0531 37.0395 17.8509 36.8736 17.8509 36.6299C17.8509 36.4226 18.0169 36.2203 18.2605 36.2203H22.7297C22.9371 36.2203 23.1393 36.3863 23.1393 36.6299C23.1393 36.8373 22.932 37.0395 22.7297 37.0395Z" fill="#87D1E6"/>
<path d="M22.7297 37.1277H18.2605C18.022 37.1277 17.7576 36.9358 17.7576 36.6299C17.7576 36.3914 17.9494 36.1322 18.2605 36.1322H22.7297C22.9682 36.1322 23.2275 36.324 23.2275 36.6299C23.2275 36.8892 22.9838 37.1277 22.7297 37.1277ZM18.2605 36.3085C18.0635 36.3085 17.9391 36.4744 17.9391 36.6299C17.9391 36.827 18.105 36.9514 18.2605 36.9514H22.7297C22.8853 36.9514 23.0512 36.7855 23.0512 36.6299C23.0512 36.4329 22.8853 36.3085 22.7297 36.3085H18.2605Z" fill="#87D1E6"/>
<path d="M28.2255 35.8885C28.6351 35.8885 28.9618 36.2203 28.9618 36.6248C28.9618 37.0292 28.6299 37.361 28.2255 37.361C27.8211 37.361 27.4893 37.0292 27.4893 36.6248C27.4893 36.2203 27.8211 35.8885 28.2255 35.8885Z" fill="#87D1E6"/>
<path d="M28.5107 0H18.048C17.488 0 17.0369 0.456254 17.0369 1.01102V8.29553C17.0369 8.85548 17.4932 9.30655 18.048 9.30655H28.5107C29.0706 9.30655 29.5217 8.85029 29.5217 8.29553V1.01102C29.5217 0.451069 29.0655 0 28.5107 0ZM24.7881 5.12767C24.6896 5.13804 24.6014 5.18471 24.5392 5.25729C24.4096 5.41283 24.4303 5.64614 24.5859 5.78095L27.9041 8.56513H18.6598L21.978 5.78095C22.0557 5.71873 22.1024 5.63059 22.1076 5.53208C22.118 5.43357 22.0868 5.33506 22.0246 5.26248C21.895 5.10693 21.6617 5.0862 21.5062 5.21581L17.7835 8.34219C17.7835 8.34219 17.7835 8.31108 17.7835 8.30071V1.01102C17.7835 0.985094 17.7835 0.95917 17.7939 0.933247L22.569 5.70836C22.9527 6.09203 23.6163 6.09203 24 5.70836L28.7751 0.933247C28.7751 0.933247 28.7855 0.985094 28.7855 1.01102V8.29553C28.7855 8.29553 28.7855 8.32664 28.7855 8.34219L25.0629 5.21581C24.9851 5.1536 24.8918 5.12249 24.7933 5.13286M23.4815 5.19508C23.3778 5.29877 23.1964 5.29877 23.0979 5.19508L18.639 0.741413H27.9248L23.4763 5.18989L23.4815 5.19508Z" fill="#87D1E6"/>
<path d="M45.2728 16.2022H34.9034C34.4679 16.2022 34.1154 16.5548 34.1154 16.9903V23.9948C34.1154 24.4303 34.4679 24.7829 34.9034 24.7829H45.2728C45.7084 24.7829 46.0609 24.4303 46.0609 23.9948V16.9903C46.0609 16.5548 45.7084 16.2022 45.2728 16.2022ZM34.8775 16.9903C34.8775 16.9903 34.8879 16.9644 34.9034 16.9644H45.2728C45.2728 16.9644 45.2988 16.9747 45.2988 16.9903V23.9948C45.2988 23.9948 45.2884 24.0207 45.2728 24.0207H34.9034C34.9034 24.0207 34.8775 24.0104 34.8775 23.9948V16.9903Z" fill="#87D1E6"/>
<path d="M45.895 22.569H34.2813V23.3312H45.895V22.569Z" fill="#87D1E6"/>
<path d="M37.0499 26.0428C37.0499 26.2502 37.221 26.4213 37.4284 26.4213H42.7427C42.9501 26.4213 43.1212 26.2502 43.1212 26.0428C43.1212 25.8354 42.9501 25.6643 42.7427 25.6643H37.4284C37.221 25.6643 37.0499 25.8354 37.0499 26.0428Z" fill="#87D1E6"/>
<path d="M39.0719 24.1815H38.3098V26.2605H39.0719V24.1815Z" fill="#87D1E6"/>
<path d="M41.8665 24.1815H41.1043V26.2605H41.8665V24.1815Z" fill="#87D1E6"/>
<path d="M9.53986 24.0933H2.97084C1.26507 23.9844 0 22.6468 0 20.9877C0 19.5204 0.985094 18.2968 2.37459 17.9806C2.96047 16.7362 4.2359 15.9119 5.62541 15.9119C7.01491 15.9119 8.21776 16.7103 8.82955 17.9287C8.90732 17.9287 8.98509 17.9287 9.06286 17.9287C10.7738 17.9287 12.1685 19.3234 12.1685 21.0343C12.1685 22.5327 11.0953 23.8185 9.62281 24.0881C9.59689 24.0881 9.57097 24.0933 9.53986 24.0933ZM5.62541 16.8088C4.53662 16.8088 3.50486 17.5191 3.11601 18.5353C3.05898 18.6857 2.91899 18.7946 2.75826 18.8205C1.67984 18.976 0.902139 19.8833 0.902139 20.9877C0.902139 22.1698 1.80428 23.1186 3.00194 23.1964H5.72391C5.72391 23.1964 5.73947 23.1964 5.74465 23.1964H9.50356C10.5301 22.989 11.2767 22.0868 11.2767 21.0343C11.2767 19.8159 10.2865 18.8257 9.06805 18.8257C8.93843 18.8257 8.77252 18.8257 8.70512 18.8464C8.47699 18.919 8.22813 18.8049 8.14517 18.582C7.73558 17.5191 6.72975 16.8088 5.63577 16.8088" fill="#87D1E6"/>
<path d="M23.3415 18.8879C21.9728 18.8879 20.8633 19.9974 20.8633 21.3662C20.8633 22.6312 21.9676 24.1555 23.3415 24.1555C24.7155 24.1555 25.7576 22.6883 25.8198 21.3662C25.8198 19.9974 24.7103 18.8879 23.3415 18.8879ZM25.0318 21.3454C24.9903 22.2579 24.2229 23.3623 23.3415 23.3623C22.4601 23.3623 21.6513 22.2424 21.6513 21.361C21.6513 20.4277 22.4083 19.6708 23.3415 19.6708C24.2748 19.6708 25.0318 20.4226 25.0318 21.3402" fill="#87D1E6"/>
<path d="M23.383 23.6578L17.3636 25.7732L18.1465 26.3383L23.3778 24.4925L28.8944 26.3694L29.2677 25.6643L23.383 23.6578Z" fill="#87D1E6"/>
<path d="M19.1316 17.7628H19.9041V14.709H19.3441C19.1316 15.0097 18.8308 15.2223 18.4005 15.269V15.8704C18.7427 15.7822 18.9605 15.6993 19.1316 15.6111V17.7628Z" fill="#87D1E6"/>
<path d="M23.2741 14.6261C22.8853 14.6261 22.5846 14.7557 22.372 15.0564C22.1594 15.3571 22.0298 15.7459 22.0298 16.2178C22.0298 16.6896 22.1594 17.0784 22.372 17.3791C22.6312 17.6798 22.8905 17.8095 23.2741 17.8095C23.6578 17.8095 23.9637 17.6798 24.1763 17.3791C24.3889 17.0784 24.5185 16.6896 24.5185 16.2178C24.5185 15.7459 24.3889 15.3571 24.1763 15.0564C23.9637 14.7557 23.6578 14.6261 23.2741 14.6261ZM23.5749 16.9903C23.5334 17.1199 23.4038 17.208 23.2741 17.208C23.1445 17.208 23.0564 17.1199 22.9734 17.0369C22.8853 16.9488 22.8438 16.6481 22.8438 16.2178C22.8438 15.7874 22.8853 15.5282 22.9734 15.3986C23.0616 15.269 23.1445 15.2275 23.2741 15.2275C23.4452 15.2275 23.5334 15.3156 23.6163 15.4401C23.6578 15.5697 23.7045 15.8289 23.7045 16.2126C23.7045 16.5962 23.663 16.9021 23.5749 16.9851" fill="#87D1E6"/>
<path d="M27.1523 17.7628H27.9248V14.709H27.3649C27.1523 15.0097 26.8516 15.2223 26.4213 15.269V15.8704C26.7634 15.7822 26.9812 15.6993 27.1523 15.6111V17.7628Z" fill="#87D1E6"/>
<path d="M19.2612 19.593C18.8723 19.593 18.5716 19.7226 18.359 20.0233C18.1465 20.324 18.0168 20.7129 18.0168 21.1847C18.0168 21.6565 18.1465 22.0454 18.359 22.3461C18.6183 22.6468 18.8775 22.7764 19.2612 22.7764C19.6448 22.7764 19.9507 22.6053 20.1633 22.3461C20.3759 22.0454 20.5055 21.6565 20.5055 21.1847C20.5055 20.7129 20.3759 20.324 20.1633 20.0233C19.9507 19.7226 19.6448 19.593 19.2612 19.593ZM19.5619 21.9572C19.5204 22.0868 19.3908 22.1698 19.2612 22.1698C19.1316 22.1698 19.0434 22.0817 18.9605 21.9987C18.8723 21.9106 18.8308 21.6099 18.8308 21.1795C18.8308 20.7492 18.8723 20.49 18.9605 20.3603C19.0486 20.2307 19.1316 20.1892 19.2612 20.1892C19.4323 20.1892 19.5204 20.2774 19.6034 20.4018C19.6448 20.5314 19.6915 20.7907 19.6915 21.1743C19.6915 21.558 19.65 21.8172 19.5619 21.9469" fill="#87D1E6"/>
<path d="M27.2819 19.593C26.8931 19.593 26.5924 19.7226 26.3798 20.0233C26.1672 20.324 26.0376 20.7129 26.0376 21.1847C26.0376 21.6565 26.1672 22.0454 26.3798 22.3461C26.639 22.6468 26.8931 22.7764 27.2819 22.7764C27.6708 22.7764 27.9715 22.6053 28.1841 22.3461C28.3966 22.0454 28.5262 21.6565 28.5262 21.1847C28.5262 20.7129 28.3966 20.324 28.1841 20.0233C27.9715 19.7226 27.6656 19.593 27.2819 19.593ZM27.5826 21.9572C27.5412 22.0868 27.4115 22.1698 27.2819 22.1698C27.1523 22.1698 27.0693 22.0817 26.9812 21.9987C26.8931 21.9106 26.8516 21.6099 26.8516 21.1795C26.8516 20.7492 26.8931 20.49 26.9812 20.3603C27.0693 20.2307 27.1523 20.1892 27.2819 20.1892C27.453 20.1892 27.5412 20.2774 27.6241 20.4018C27.6656 20.5314 27.7122 20.7907 27.7122 21.1743C27.7122 21.558 27.6708 21.8172 27.5826 21.9469" fill="#87D1E6"/>
<path d="M23.4245 28.6351C18.9605 28.6351 15.326 25.0058 15.326 20.5366C15.326 16.0674 18.9553 12.4381 23.4245 12.4381C27.8937 12.4381 31.523 16.0674 31.523 20.5366C31.523 25.0058 27.8937 28.6351 23.4245 28.6351ZM23.4245 13.3662C19.4686 13.3662 16.2489 16.5859 16.2489 20.5418C16.2489 24.4977 19.4686 27.7174 23.4245 27.7174C27.3804 27.7174 30.6001 24.4977 30.6001 20.5418C30.6001 16.5859 27.3804 13.3662 23.4245 13.3662Z" fill="#87D1E6"/>
</svg>
