<svg width="101" height="46" viewBox="0 0 101 46" fill="none" xmlns="http://www.w3.org/2000/svg">
<g clip-path="url(#clip0_92_60541)">
<path d="M17.6971 22.386L14.035 22.4015C13.9531 21.0808 13.457 20.0437 12.5517 19.2957C11.6464 18.5476 10.4342 18.1709 8.91003 18.1709C7.65181 18.1709 6.62376 18.465 5.83098 19.0583C5.03309 19.6516 4.63414 20.3843 4.63414 21.2613C4.63414 22.1384 4.98705 22.8762 5.68777 23.4437C6.38848 24.0112 7.86152 24.5839 10.1069 25.1617C13.5133 26.0285 15.7382 26.9675 16.7816 27.9839C17.825 29.0002 18.3467 30.4139 18.3467 32.2351C18.3467 34.4329 17.5334 36.2026 15.9018 37.5388C14.2702 38.8751 12.0965 39.5458 9.37035 39.5458C6.50101 39.5458 4.26588 38.8493 2.66498 37.4511C1.06408 36.0529 0.204809 34.046 0.0922852 31.4251H3.83113C3.93343 32.9367 4.50116 34.1131 5.51898 34.9437C6.54192 35.7795 7.92801 36.1974 9.67724 36.1974C10.9968 36.1974 12.0811 35.8775 12.9251 35.2275C13.769 34.5826 14.1884 33.788 14.1884 32.849C14.1884 32.4776 14.0708 32.0597 13.8355 31.5902C13.6002 31.1207 13.2984 30.7131 12.9302 30.3778C12.3215 29.8154 10.9713 29.2788 8.87423 28.7629C8.42413 28.6494 8.08145 28.5617 7.85129 28.5101C5.26325 27.8239 3.43219 26.9468 2.36321 25.884C1.29424 24.8212 0.762311 23.3766 0.762311 21.5451C0.762311 19.6 1.54486 18.0162 3.10996 16.7934C4.67506 15.5707 6.75674 14.9619 9.36012 14.9619C11.9635 14.9619 13.902 15.6326 15.4057 16.9688C16.9094 18.3051 17.6715 20.1108 17.692 22.386H17.6971Z" fill="white"/>
<path d="M20.3003 15.5707H23.9164V19.2492H20.3003V15.5707ZM20.3003 21.8185H23.9164V38.9266H20.3003V21.8185Z" fill="white"/>
<path d="M38.2119 36.6875C37.6544 37.513 36.9486 38.1373 36.0893 38.5655C35.2301 38.9937 34.2378 39.2052 33.1177 39.2052C30.8621 39.2052 29.0617 38.3952 27.7115 36.7701C26.3612 35.1449 25.686 32.9935 25.686 30.3055C25.686 27.6175 26.3612 25.3475 27.7115 23.7068C29.0617 22.0662 30.8775 21.251 33.1484 21.251C34.2583 21.251 35.2301 21.4729 36.0586 21.9114C36.8872 22.3499 37.6135 23.031 38.2426 23.9493V21.8082H41.6848V38.2044C41.6848 40.9955 41.0557 42.9921 39.7975 44.1891C38.5393 45.3912 36.4832 45.9897 33.6343 45.9897C31.3378 45.9897 29.5476 45.5305 28.2587 44.6122C26.9698 43.6938 26.3151 42.4143 26.2947 40.7737H29.9875C30.0386 41.5011 30.3762 42.0583 30.9951 42.4401C31.614 42.8219 32.4937 43.0128 33.6343 43.0128C35.2454 43.0128 36.4116 42.6774 37.1327 42.0067C37.8488 41.336 38.2119 40.2216 38.2119 38.6687V36.6875ZM29.3482 30.1249C29.3482 32.0597 29.7318 33.5404 30.5041 34.5671C31.2764 35.5938 32.3812 36.1045 33.8286 36.1045C35.2761 36.1045 36.432 35.6196 37.1685 34.6548C37.9051 33.69 38.2784 32.2299 38.2784 30.2849C38.2784 28.3398 37.8897 26.9004 37.1174 25.9098C36.34 24.9141 35.2045 24.4188 33.7059 24.4188C32.3556 24.4188 31.2917 24.9244 30.5143 25.9408C29.7369 26.9572 29.3533 28.3502 29.3533 30.1249H29.3482Z" fill="white"/>
<path d="M57.4328 23.9906C58.0619 23.1341 58.7984 22.4892 59.6475 22.0507C60.4965 21.6122 61.4274 21.3903 62.4401 21.3903C64.3786 21.3903 65.7953 21.9114 66.6955 22.9536C67.5957 23.9957 68.0458 25.6519 68.0458 27.9219V38.9266H64.4911V28.1747C64.4911 26.9159 64.266 25.9975 63.8108 25.4145C63.3556 24.8315 62.6447 24.5426 61.6729 24.5426C60.5016 24.5426 59.5861 24.9089 58.9263 25.6364C58.2665 26.3638 57.9392 27.3854 57.9392 28.6958V38.9215H54.3691V27.4886C54.3691 26.5805 54.1185 25.8634 53.6172 25.332C53.116 24.8057 52.4306 24.5375 51.556 24.5375C50.4001 24.5375 49.4845 24.9089 48.8248 25.6467C48.165 26.3845 47.8274 27.4112 47.8274 28.7216V38.9163H44.2573V21.8082H47.6688V24.0112C48.2672 23.1548 48.9884 22.5047 49.8272 22.0559C50.666 21.607 51.5969 21.38 52.6199 21.38C53.7451 21.38 54.6862 21.5864 55.4534 21.9991C56.2155 22.4118 56.8753 23.0722 57.4328 23.9803V23.9906Z" fill="white"/>
<path d="M80.6741 36.6566C79.9836 37.5543 79.1499 38.2508 78.173 38.7409C77.1961 39.231 76.1578 39.4787 75.0428 39.4787C73.3345 39.4787 71.9944 39.0298 71.0278 38.1321C70.056 37.2344 69.5752 35.991 69.5752 34.4071C69.5752 32.6736 70.0918 31.3735 71.1301 30.4964C72.1684 29.6245 74.0506 29.0157 76.7716 28.6649C76.8534 28.6546 76.9762 28.6391 77.1347 28.6184C79.4108 28.3244 80.5462 27.6691 80.5462 26.6528C80.5462 25.8273 80.2649 25.2185 79.6972 24.8315C79.1295 24.4446 78.2548 24.2434 77.0733 24.2434C75.9737 24.2434 75.1298 24.4755 74.5416 24.9399C73.9534 25.4042 73.6618 26.0698 73.6618 26.9365V27.0655H70.2503V26.7817C70.2503 25.0792 70.8692 23.7326 72.1121 22.7472C73.355 21.7566 75.0479 21.2665 77.1961 21.2665C79.4517 21.2665 81.1498 21.6947 82.2955 22.5408C83.4411 23.3921 84.0191 24.651 84.0191 26.3226V34.8044C84.0191 35.4596 84.0958 35.8878 84.2493 36.0891C84.4027 36.2903 84.6738 36.3883 85.0574 36.3883C85.129 36.3883 85.2108 36.3883 85.3029 36.378C85.3899 36.378 85.5484 36.3573 85.7683 36.3367V38.9834C85.4461 39.0659 85.129 39.133 84.817 39.1743C84.5101 39.2156 84.2135 39.2362 83.927 39.2362C82.8376 39.2362 82.0295 39.0247 81.4976 38.6016C80.9656 38.1786 80.6946 37.5285 80.6741 36.6514V36.6566ZM80.5155 30.3468C79.7586 30.7389 78.5617 31.0536 76.9148 31.2961C76.3164 31.389 75.8765 31.4664 75.5952 31.5179C74.7564 31.6779 74.1324 31.972 73.7232 32.4002C73.314 32.8284 73.1095 33.3908 73.1095 34.0873C73.1095 34.8715 73.3498 35.4751 73.8306 35.9033C74.3114 36.3315 74.9917 36.5482 75.8765 36.5482C77.2063 36.5482 78.3111 36.1664 79.1959 35.408C80.0808 34.6496 80.5155 33.6745 80.5155 32.4879V30.3468Z" fill="white"/>
<path d="M51.9703 7.90915V6.74832H51.5713C51.1366 6.74832 51.0343 6.68125 51.0343 6.37685V3.18327H51.9703V2.09466H51.0343V0.521088H49.4283V2.09466H48.6304V3.18327H49.4283V6.29946C49.4283 7.50673 49.7147 7.94011 51.0445 7.94011C51.2133 7.94011 51.5253 7.91947 51.9652 7.90915" fill="white"/>
<path d="M42.7639 7.86788H44.3801V4.44729C44.3801 3.68887 44.8712 3.2297 45.623 3.2297C46.3186 3.2297 46.559 3.60117 46.559 4.38022V7.86788H48.1753V3.93652C48.1753 2.61059 47.5155 1.9502 46.1805 1.9502C45.4184 1.9502 44.8047 2.23396 44.3443 2.786V2.09982H42.7588V7.86788H42.7639Z" fill="white"/>
<path d="M41.772 0.0567551H40.1558V1.46007H41.772V0.0567551Z" fill="white"/>
<path d="M41.772 2.09982H40.1558V7.86788H41.772V2.09982Z" fill="white"/>
<path d="M35.0407 4.97869C35.0407 3.82817 35.5624 3.19874 36.4626 3.19874C37.3628 3.19874 37.8743 3.82817 37.8743 4.97869C37.8743 6.1292 37.3628 6.76895 36.4626 6.76895C35.5624 6.76895 35.0407 6.1292 35.0407 4.97869ZM33.3989 4.97869C33.3989 6.90309 34.56 8.06393 36.4626 8.06393C38.3653 8.06393 39.5263 6.90309 39.5263 4.97869C39.5263 3.05428 38.3653 1.89345 36.4626 1.89345C34.56 1.89345 33.3989 3.05428 33.3989 4.97869Z" fill="white"/>
<path d="M31.2713 5.01996C31.2713 6.09825 30.7599 6.72768 29.962 6.72768C29.1078 6.72768 28.6066 6.11888 28.6066 5.01996C28.6066 3.83333 29.072 3.2297 29.9262 3.2297C30.7803 3.2297 31.2713 3.84881 31.2713 5.01996ZM27.0364 10.1792H28.6066V7.14558C29.0055 7.74405 29.6193 8.05877 30.3967 8.05877C31.8084 8.05877 32.8774 6.8515 32.8774 4.95289C32.8774 3.05428 31.8391 1.89861 30.3712 1.89861C29.5835 1.89861 29.0362 2.203 28.5708 2.87887V2.09466H27.0312V10.1792H27.0364Z" fill="white"/>
<path d="M23.7528 7.86788H25.3384V3.18327H26.3409V2.09466H25.3282V1.69224C25.3282 1.32077 25.4765 1.25886 25.9215 1.25886H26.3409V0.0309556C26.0544 0.0103185 25.8038 0 25.5685 0C24.3257 0 23.7579 0.479812 23.7579 1.56326V2.09466H22.8936V3.18327H23.7579V7.86788H23.7528Z" fill="white"/>
<path d="M18.2951 4.97869C18.2951 3.82817 18.8168 3.19874 19.717 3.19874C20.6172 3.19874 21.1287 3.82817 21.1287 4.97869C21.1287 6.1292 20.6172 6.76895 19.717 6.76895C18.8168 6.76895 18.2951 6.1292 18.2951 4.97869ZM16.6533 4.97869C16.6533 6.90309 17.8144 8.06393 19.717 8.06393C21.6197 8.06393 22.7807 6.90309 22.7807 4.97869C22.7807 3.05428 21.6197 1.89345 19.717 1.89345C17.8144 1.89345 16.6533 3.05428 16.6533 4.97869Z" fill="white"/>
<path d="M11.7995 4.97869C11.7995 3.82817 12.3212 3.19874 13.2214 3.19874C14.1216 3.19874 14.6331 3.82817 14.6331 4.97869C14.6331 6.1292 14.1216 6.76895 13.2214 6.76895C12.3212 6.76895 11.7995 6.1292 11.7995 4.97869ZM10.1577 4.97869C10.1577 6.90309 11.3188 8.06393 13.2214 8.06393C15.1241 8.06393 16.2851 6.90309 16.2851 4.97869C16.2851 3.05428 15.1241 1.89345 13.2214 1.89345C11.3188 1.89345 10.1577 3.05428 10.1577 4.97869Z" fill="white"/>
<path d="M6.49072 7.86788H8.10697V4.81359C8.10697 3.94684 8.56218 3.5083 9.44191 3.5083H9.97895V1.94504C9.89711 1.93472 9.82039 1.93472 9.73856 1.93472C8.96624 1.93472 8.41897 2.29071 7.99445 3.08524V2.09466H6.49072V7.86272V7.86788Z" fill="white"/>
<path d="M4.23497 5.01996C4.23497 6.09825 3.7235 6.72768 2.92561 6.72768C2.07145 6.72768 1.57021 6.11888 1.57021 5.01996C1.57021 3.83333 2.03565 3.2297 2.88981 3.2297C3.74396 3.2297 4.23497 3.84881 4.23497 5.01996ZM0 10.1792H1.57021V7.14558C1.96916 7.74405 2.58292 8.05877 3.36036 8.05877C4.77202 8.05877 5.84099 6.8515 5.84099 4.95289C5.84099 3.05428 4.8027 1.89861 3.33478 1.89861C2.54712 1.89861 1.99985 2.203 1.53441 2.87887V2.09466H0V10.1792Z" fill="white"/>
<path d="M54.0319 7.38806C54.0319 7.73889 53.7608 8.01749 53.4028 8.01749C53.0448 8.01749 52.7686 7.74405 52.7686 7.38806C52.7686 7.03207 53.0499 6.76895 53.4028 6.76895C53.7557 6.76895 54.0319 7.04239 54.0319 7.38806ZM52.9271 7.38806C52.9271 7.6615 53.1317 7.88335 53.4079 7.88335C53.6841 7.88335 53.8784 7.66666 53.8784 7.39322C53.8784 7.11978 53.679 6.89277 53.4079 6.89277C53.1368 6.89277 52.9322 7.11462 52.9322 7.38806M53.3107 7.7131H53.1675V7.09399C53.2238 7.08367 53.3005 7.07335 53.4028 7.07335C53.5204 7.07335 53.5716 7.09399 53.6176 7.11978C53.6534 7.14558 53.679 7.19717 53.679 7.25392C53.679 7.32099 53.6278 7.37259 53.5511 7.39838C53.6125 7.42934 53.6432 7.47577 53.6636 7.55832C53.6841 7.65119 53.6943 7.69246 53.7097 7.7131H53.5562C53.5562 7.7131 53.5255 7.63571 53.5051 7.56348C53.4948 7.49641 53.4539 7.46545 53.3772 7.46545H53.3107V7.7131ZM53.3107 7.36227H53.3772C53.4539 7.36227 53.5204 7.33647 53.5204 7.2694C53.5204 7.21265 53.4795 7.17653 53.3874 7.17653C53.3516 7.17653 53.3261 7.17653 53.3107 7.18169V7.35711V7.36227Z" fill="white"/>
<path d="M93.8037 21.7979H101V23.1754H91.6709V22.1952L96.0542 16.845L91.9113 11.5516V10.4372H100.402V11.7992H94.0134V11.8766L97.875 16.7934L93.8088 21.7463V21.8031L93.8037 21.7979Z" fill="white"/>
</g>
<defs>
<clipPath id="clip0_92_60541">
<rect width="101" height="46" fill="white"/>
</clipPath>
</defs>
</svg>
