<svg width="46" height="42" viewBox="0 0 46 42" fill="none" xmlns="http://www.w3.org/2000/svg">
<path d="M23.3148 24.6325V24.1718C25.2952 23.817 25.9359 21.7837 25.9359 20.9947C25.9359 19.6497 25.0569 18.2094 22.5947 18.2094H22.5152C21.7633 18.1935 21.2073 17.9817 20.9108 17.5952C20.6778 17.2933 20.6725 16.9756 20.7043 16.8485C20.9478 15.8372 21.8374 15.62 22.5364 15.6148C23.606 15.6148 24.3474 16.2608 24.3738 16.282C24.7021 16.5838 25.2105 16.5679 25.5123 16.2396C25.8194 15.9113 25.8035 15.4029 25.4752 15.0958C25.4329 15.0588 24.6121 14.3121 23.3148 14.0738V13.592C23.3148 13.1419 22.9547 12.7818 22.5046 12.7818C22.0545 12.7818 21.6945 13.1419 21.6945 13.592V14.0844C20.376 14.3439 19.4387 15.1911 19.1316 16.4673C18.9674 17.1557 19.1581 17.9658 19.6346 18.5801C20.0582 19.1308 20.9002 19.7927 22.5046 19.8244H22.5947C23.7384 19.8244 24.3156 20.2163 24.3156 20.9894C24.3156 21.0053 24.1409 22.6044 22.7006 22.6044H22.5417C21.292 22.5462 20.8313 21.8578 20.8208 21.8419C20.5984 21.4554 20.1006 21.3283 19.7141 21.5507C19.3275 21.7784 19.2004 22.2708 19.4228 22.6574C19.6876 23.1128 20.4395 23.8435 21.6945 24.1136V24.6272C21.6945 25.0773 22.0545 25.4374 22.5046 25.4374C22.9547 25.4374 23.3148 25.0773 23.3148 24.6272V24.6325Z" fill="#87D1E6"/>
<path d="M45.0093 34.4869V17.1027C45.0093 16.8485 44.8928 16.6103 44.6916 16.4567L39.5658 12.5435V8.91632C39.5658 8.6039 39.3857 8.31796 39.0998 8.18558C38.8192 8.0532 38.4803 8.09026 38.242 8.29148L36.198 9.97006L25.9783 2.17022C23.9343 0.608136 21.0749 0.608136 19.031 2.17022L8.7318 10.0336L6.79375 8.31266C6.55547 8.10085 6.21128 8.0479 5.92534 8.18028C5.6341 8.31266 5.44877 8.5986 5.44877 8.91632V12.5435L0.317712 16.4567C0.116495 16.6103 0 16.8485 0 17.1027V34.4922C0 38.0982 2.90707 41.0053 6.47604 41.0053H38.5279C42.1022 41.0053 45.004 38.0982 45.004 34.5292V34.4975L45.0093 34.4869ZM39.5658 14.5769L42.8223 17.0656L39.5658 18.8501V14.5769ZM20.0106 3.45696C21.4774 2.33437 23.5266 2.33967 24.9987 3.45696L32.0995 8.87925L30.6169 10.0971L28.4247 8.29148C28.1281 8.0479 27.6939 8.0479 27.3974 8.29148L25.2052 10.0971L23.013 8.29148C22.7164 8.04261 22.2822 8.04261 21.9804 8.29148L19.7935 10.0971L17.6013 8.29148C17.3047 8.0479 16.8705 8.0479 16.574 8.29148L14.3818 10.0971L12.9097 8.88455L20.0212 3.45696H20.0106ZM7.06381 10.722L8.16521 11.7016C8.45115 11.9558 8.87477 11.9769 9.18189 11.7493L11.6336 9.94359L13.8523 11.7704C14.1488 12.0193 14.583 12.0193 14.8795 11.7704L17.0718 9.96477L19.264 11.7704C19.5605 12.014 19.9947 12.014 20.2965 11.7704L22.4834 9.96477L24.6757 11.7704C24.9722 12.0193 25.4064 12.014 25.7029 11.7704L27.8952 9.96477L30.0874 11.7704C30.3839 12.014 30.8181 12.014 31.1146 11.7704L33.3439 9.93829L35.7268 11.6592C36.0233 11.8763 36.431 11.8605 36.7117 11.6275L37.9296 10.6267V19.7397L22.4887 28.2068L7.04792 19.7397V10.722H7.06381ZM5.44347 14.5769V18.8501L2.18692 17.0656L5.44347 14.5769ZM43.3889 34.4869C43.3889 37.198 41.2073 39.3797 38.5279 39.3797H6.47604C3.79666 39.3797 1.61504 37.198 1.61504 34.5186V18.596L16.2669 26.6341L6.28541 35.3977C5.95181 35.6942 5.91475 36.2025 6.21128 36.5414C6.37013 36.7215 6.59253 36.8168 6.82023 36.8168C7.01085 36.8168 7.20148 36.7479 7.35504 36.6156L17.7813 27.4601L22.1128 29.8377C22.3564 29.9701 22.6476 29.9701 22.8912 29.8377L27.228 27.4601L37.6542 36.6156C37.8078 36.7532 37.9984 36.8168 38.189 36.8168C38.4114 36.8168 38.6391 36.7215 38.798 36.5414C39.0945 36.2078 39.0627 35.6942 38.7239 35.3977L28.7424 26.6288L43.3942 18.596V34.4816L43.3889 34.4869Z" fill="#87D1E6"/>
</svg>
