<svg width="94" height="28" fill="none" xmlns="http://www.w3.org/2000/svg"><path fill-rule="evenodd" clip-rule="evenodd" d="M21.903 12.897a9.462 9.462 0 0 1-.433-3.989 9.454 9.454 0 0 1 1.253-3.81C25.178.92 30.458-.879 35.419.41l1.442 2.173L34.553 4.4c-4.741-1.267-9.636.538-11.677 3.999a7.447 7.447 0 0 0-.973 4.497Z" fill="#F35C22"/><path d="M0 9.021c.008-.605.25-1.183.675-1.614a2.348 2.348 0 0 1 1.614-.696 2.348 2.348 0 0 1 2.323 2.324 2.337 2.337 0 0 1-.69 1.613 2.334 2.334 0 0 1-1.633.67 2.321 2.321 0 0 1-1.614-.678A2.321 2.321 0 0 1 0 9.021Zm.436 4.034h3.746v14.523H.436V13.055ZM21.068 18.66v8.918H17.32v-8.453c0-1.974-1.189-2.99-2.875-2.99-1.829 0-3.195 1.075-3.195 3.6v7.843H7.503V13.055h3.746v1.614c.872-1.307 2.383-2.033 4.327-2.033 3.098.013 5.492 2.162 5.492 6.024ZM23.322 22.96l3.43-2.006c.725 1.882 2.15 3.109 4.673 3.109 2.42 0 3.254-1.017 3.254-2.152 0-1.511-1.366-2.092-4.386-2.958-3.106-.9-6.129-2.208-6.129-6.07s3.195-6.04 6.68-6.04c3.34 0 5.898 1.713 7.262 4.572l-3.367 1.947c-.726-1.541-1.832-2.614-3.895-2.614-1.683 0-2.67.871-2.67 2.033 0 1.248.782 1.917 3.862 2.845 3.227 1.017 6.653 2.093 6.653 6.245 0 3.805-3.052 6.129-7.38 6.129-4.152-.016-6.881-2.014-7.987-5.04ZM56.232 13.056v14.522h-3.749v-1.713c-1.043 1.307-2.614 2.12-4.733 2.12-3.865 0-7.06-3.341-7.06-7.668s3.195-7.668 7.06-7.668c2.12 0 3.69.807 4.733 2.12v-1.713h3.75Zm-3.749 7.26c0-2.438-1.713-4.095-4.034-4.095-2.32 0-4.007 1.657-4.007 4.096 0 2.44 1.713 4.096 4.007 4.096 2.294 0 4.034-1.654 4.034-4.096ZM59.526 6.375h3.765v21.203h-3.765V6.375ZM73.89 24.585c1.452 0 2.614-.608 3.251-1.452l3.023 1.742c-1.366 1.977-3.544 3.11-6.333 3.11-4.879 0-7.958-3.341-7.958-7.668s3.106-7.668 7.667-7.668c4.303 0 7.35 3.397 7.35 7.668a8.666 8.666 0 0 1-.145 1.538h-10.95c.52 1.918 2.102 2.73 4.095 2.73Zm3.251-5.648c-.462-2.09-2.033-2.934-3.6-2.934-2.004 0-3.37 1.076-3.806 2.934h7.406ZM93.787 23.337c0 3.135-2.73 4.647-5.839 4.647-2.904 0-5.053-1.221-6.1-3.456l3.255-1.832c.406 1.192 1.393 1.883 2.845 1.883 1.192 0 2.004-.406 2.004-1.248 0-2.12-7.493-.957-7.493-6.07 0-2.958 2.525-4.617 5.519-4.617 2.353 0 4.386 1.075 5.518 3.076l-3.195 1.743a2.469 2.469 0 0 0-2.323-1.48c-.93 0-1.686.407-1.686 1.19 0 2.156 7.495.82 7.495 6.164Z" fill="#2A2E32"/></svg>
