<?xml version="1.0" encoding="utf-8"?>
<!-- Generator: Adobe Illustrator 24.0.1, SVG Export Plug-In . SVG Version: 6.00 Build 0)  -->
<svg version="1.1" id="Layer_1" xmlns:serif="http://www.serif.com/"
	 xmlns="http://www.w3.org/2000/svg" xmlns:xlink="http://www.w3.org/1999/xlink" x="0px" y="0px" viewBox="0 0 20 20"
	 style="enable-background:new 0 0 20 20;" xml:space="preserve">
<style type="text/css">
	.st0{fill-rule:evenodd;clip-rule:evenodd;}
</style>
<path class="st0" d="M10,17.8L10,17.8L10,17.8L10,17.8L10,17.8z M10,17.8L10,17.8L10,17.8L10,17.8z M9.9,17.8L9.9,17.8L9.9,17.8
	L9.9,17.8z M10.1,17.8L10.1,17.8L10.1,17.8L10.1,17.8z M9.9,17.8L9.9,17.8L9.9,17.8L9.9,17.8L9.9,17.8z M10.1,17.8L10.1,17.8
	L10.1,17.8L10.1,17.8L10.1,17.8z M10.1,17.8L10.1,17.8L10.1,17.8L10.1,17.8L10.1,17.8z M9.9,17.8L9.9,17.8L9.9,17.8L9.9,17.8
	L9.9,17.8z M10.1,17.8L10.1,17.8L10.1,17.8L10.1,17.8L10.1,17.8z M9.9,17.8L9.9,17.8L9.9,17.8L9.9,17.8L9.9,17.8z M10.2,17.8
	L10.2,17.8L10.2,17.8L10.2,17.8z M9.8,17.8L9.8,17.8L9.8,17.8L9.8,17.8L9.8,17.8z M9.8,17.8L9.8,17.8L9.8,17.8L9.8,17.8L9.8,17.8z
	 M10.2,17.8L10.2,17.8L10.2,17.8L10.2,17.8z M9.8,17.8L9.8,17.8L9.8,17.8L9.8,17.8z M10.2,17.8L10.2,17.8L10.2,17.8L10.2,17.8z
	 M10.2,17.8L10.2,17.8L10.2,17.8L10.2,17.8L10.2,17.8z M9.8,17.8L9.8,17.8L9.8,17.8L9.8,17.8L9.8,17.8z M9.7,17.8L9.7,17.8L9.7,17.8
	L9.7,17.8L9.7,17.8z M10.3,17.8L10.3,17.8L10.3,17.8L10.3,17.8L10.3,17.8z M10.3,17.8L10.3,17.8L10.3,17.8L10.3,17.8z M9.7,17.8
	L9.7,17.8L9.7,17.8L9.7,17.8z M9.7,17.8L9.7,17.8L9.7,17.8L9.7,17.8z M10.3,17.8L10.3,17.8L10.3,17.8L10.3,17.8z M9.7,17.8L9.7,17.8
	L9.7,17.8L9.7,17.8L9.7,17.8z M10.3,17.8L10.3,17.8L10.3,17.8L10.3,17.8L10.3,17.8z M9.6,17.8L9.6,17.8L9.6,17.8L9.6,17.8z
	 M10.4,17.8L10.4,17.8L10.4,17.8L10.4,17.8L10.4,17.8z M9.6,17.8L9.6,17.8L9.6,17.8L9.6,17.8z M10.4,17.8L10.4,17.8L10.4,17.8
	L10.4,17.8z M9.6,17.8L9.6,17.8L9.6,17.8L9.6,17.8z M10.4,17.8L10.4,17.8L10.4,17.8L10.4,17.8z M10.4,17.8L10.4,17.8L10.4,17.8
	L10.4,17.8L10.4,17.8L10.4,17.8z M9.6,17.8L9.6,17.8L9.6,17.8L9.6,17.8L9.6,17.8L9.6,17.8z M10.5,17.8L10.5,17.8L10.5,17.8
	L10.5,17.8z M9.5,17.8L9.5,17.8L9.5,17.8L9.5,17.8z M9.5,17.8L9.5,17.8L9.5,17.8L9.5,17.8L9.5,17.8z M10.5,17.8L10.5,17.8L10.5,17.8
	L10.5,17.8L10.5,17.8z M9.5,17.8L9.5,17.8L9.5,17.8L9.5,17.8L9.5,17.8L9.5,17.8z M10.5,17.8L10.5,17.8L10.5,17.8L10.5,17.8
	L10.5,17.8L10.5,17.8z M10.5,17.8L10.5,17.8L10.5,17.8L10.5,17.8L10.5,17.8z M9.5,17.8L9.5,17.8L9.5,17.8L9.5,17.8z M9.4,17.8
	L9.4,17.8L9.4,17.8L9.4,17.8L9.4,17.8z M10.5,17.8L10.5,17.8L10.5,17.8L10.5,17.8z M9.4,17.8L9.4,17.8L9.4,17.8L9.4,17.8L9.4,17.8z
	 M10.6,17.8L10.6,17.8L10.6,17.8L10.6,17.8L10.6,17.8z M9.4,17.8L9.4,17.8L9.4,17.8L9.4,17.8z M10.6,17.8L10.6,17.8L10.6,17.8
	L10.6,17.8z M10.6,17.8L10.6,17.8L10.6,17.8L10.6,17.8z M9.4,17.8L9.4,17.8L9.4,17.8L9.4,17.8L9.4,17.8z M9.3,17.8L9.3,17.8
	L9.3,17.8L9.3,17.8z M10.6,17.8L10.6,17.8L10.6,17.8L10.6,17.8z M9.3,17.8L9.3,17.8L9.3,17.8L9.3,17.8L9.3,17.8z M10.7,17.8
	L10.7,17.8L10.7,17.8L10.7,17.8L10.7,17.8z M10.7,17.8L10.7,17.8L10.7,17.8L10.7,17.8L10.7,17.8z M9.3,17.8L9.3,17.8L9.3,17.8
	L9.3,17.8L9.3,17.8z M9.3,17.8L9.3,17.8L9.3,17.8L9.3,17.8z M10.7,17.8L10.7,17.8L10.7,17.8L10.7,17.8z M8.8,17.7
	c-3.7-0.6-6.6-3.8-6.6-7.7c0-4.3,3.5-7.8,7.8-7.8s7.8,3.5,7.8,7.8c0,3.9-2.9,7.1-6.6,7.7v-5.4H13l0.3-2.3h-2.2V8.5
	c0-0.6,0.3-1.2,1.3-1.2h1V5.4c0,0-0.9-0.2-1.7-0.2c-1.8,0-2.9,1.1-2.9,3V10h-2v2.3h2L8.8,17.7L8.8,17.7z"/>
</svg>
