<?xml version="1.0" encoding="utf-8"?>
<!-- Generator: Adobe Illustrator 24.0.1, SVG Export Plug-In . SVG Version: 6.00 Build 0)  -->
<svg version="1.1" id="Layer_1" xmlns:serif="http://www.serif.com/"
	 xmlns="http://www.w3.org/2000/svg" xmlns:xlink="http://www.w3.org/1999/xlink" x="0px" y="0px" viewBox="0 0 20 20"
	 style="enable-background:new 0 0 20 20;" xml:space="preserve">
<style type="text/css">
	.st0{fill-rule:evenodd;clip-rule:evenodd;}
</style>
<path class="st0" d="M10,2.2c4.3,0,7.8,3.5,7.8,7.8s-3.5,7.8-7.8,7.8S2.2,14.3,2.2,10S5.7,2.2,10,2.2z M7.6,14.4V8.3h-2v6.1H7.6z
	 M14.9,14.4v-3.5c0-1.9-1-2.7-2.3-2.7c-1.1,0-1.6,0.6-1.8,1V8.3h-2c0,0.6,0,6.1,0,6.1h2V11c0-0.2,0-0.4,0.1-0.5
	c0.1-0.4,0.5-0.7,1-0.7c0.7,0,1,0.6,1,1.4v3.3L14.9,14.4L14.9,14.4z M6.6,5.4c-0.7,0-1.1,0.5-1.1,1.1c0,0.6,0.4,1.1,1.1,1.1h0
	c0.7,0,1.1-0.5,1.1-1.1C7.7,5.8,7.3,5.4,6.6,5.4L6.6,5.4z"/>
</svg>
