<?xml version="1.0" encoding="UTF-8"?>
<svg width="95px" height="16px" viewBox="0 0 95 16" version="1.1" xmlns="http://www.w3.org/2000/svg" xmlns:xlink="http://www.w3.org/1999/xlink">
    <!-- Generator: Sketch 53 (72520) - https://sketchapp.com -->
    <title>Group</title>
    <desc>Created with Sketch.</desc>
    <g id="Symbols" stroke="none" stroke-width="1" fill="none" fill-rule="evenodd">
        <g id="Primary-Logo-Blue" transform="translate(-1.000000, 0.000000)" fill="#0096FF">
            <g id="Group">
                <path d="M7,4.4 C7.66667,4.4 8.2699973,4.5299987 8.81,4.79 C9.3500027,5.0500013 9.8099981,5.3966645 10.19,5.83 C10.5700019,6.2633355 10.8699989,6.7633305 11.09,7.33 C11.3100011,7.8966695 11.4333332,8.4866636 11.46,9.1 C11.4733334,9.300001 11.48,9.533332 11.48,9.8 C11.48,10.066668 11.4733334,10.299999 11.46,10.5 C11.4333332,11.1133364 11.3100011,11.7033305 11.09,12.27 C10.8699989,12.8366695 10.5700019,13.3366645 10.19,13.77 C9.8099981,14.2033355 9.3500027,14.5499987 8.81,14.81 C8.2699973,15.0700013 7.66667,15.2 7,15.2 C6.5866646,15.2 6.2166683,15.1600004 5.89,15.08 C5.5633317,14.9999996 5.2766679,14.9000006 5.03,14.78 C4.7833321,14.6599994 4.5733342,14.5300007 4.4,14.39 C4.2266658,14.2499993 4.0866672,14.1200006 3.98,14 L3.98,14.46 C3.98,14.6066674 3.9266672,14.7333328 3.82,14.84 C3.7133328,14.9466672 3.5866674,15 3.44,15 L1.92,15 C1.7733326,15 1.6466672,14.9466672 1.54,14.84 C1.4333328,14.7333328 1.38,14.6066674 1.38,14.46 L1.38,1.34 C1.38,1.1933326 1.4333328,1.0666672 1.54,0.96 C1.6466672,0.8533328 1.7733326,0.8 1.92,0.8 L3.44,0.8 C3.5866674,0.8 3.7133328,0.8533328 3.82,0.96 C3.9266672,1.0666672 3.98,1.1933326 3.98,1.34 L3.98,5.6 C4.0866672,5.4799994 4.2266658,5.3500007 4.4,5.21 C4.5733342,5.0699993 4.7833321,4.9400006 5.03,4.82 C5.2766679,4.6999994 5.5633317,4.6000004 5.89,4.52 C6.2166683,4.4399996 6.5866646,4.4 7,4.4 Z M8.86,9.24 C8.7799996,8.373329 8.5133356,7.7500019 8.06,7.37 C7.6066644,6.9899981 7.0533366,6.8 6.4,6.8 C5.7466634,6.8 5.1966689,6.999998 4.75,7.4 C4.3033311,7.800002 4.046667,8.3466632 3.98,9.04 C3.9533332,9.240001 3.94,9.4933318 3.94,9.8 C3.94,10.1066682 3.9533332,10.359999 3.98,10.56 C4.046667,11.2800036 4.3033311,11.8333314 4.75,12.22 C5.1966689,12.6066686 5.7466634,12.8 6.4,12.8 C7.0533366,12.8 7.6066644,12.6100019 8.06,12.23 C8.5133356,11.8499981 8.7799996,11.226671 8.86,10.36 C8.9000002,9.9866648 8.9000002,9.6133352 8.86,9.24 Z M12.66,5.14 C12.66,4.9933326 12.7133328,4.8666672 12.82,4.76 C12.9266672,4.6533328 13.0533326,4.6 13.2,4.6 L14.72,4.6 C14.8666674,4.6 14.9933328,4.6533328 15.1,4.76 C15.2066672,4.8666672 15.26,4.9933326 15.26,5.14 L15.26,10.22 C15.26,11.020004 15.4299983,11.6599976 15.77,12.14 C16.1100017,12.6200024 16.6666628,12.86 17.44,12.86 C18.1466702,12.86 18.6866648,12.6200024 19.06,12.14 C19.4333352,11.6599976 19.62,11.020004 19.62,10.22 L19.62,5.14 C19.62,4.9933326 19.6733328,4.8666672 19.78,4.76 C19.8866672,4.6533328 20.0133326,4.6 20.16,4.6 L21.68,4.6 C21.8266674,4.6 21.9533328,4.6533328 22.06,4.76 C22.1666672,4.8666672 22.22,4.9933326 22.22,5.14 L22.22,14.46 C22.22,14.6066674 22.1666672,14.7333328 22.06,14.84 C21.9533328,14.9466672 21.8266674,15 21.68,15 L20.16,15 C20.0133326,15 19.8866672,14.9466672 19.78,14.84 C19.6733328,14.7333328 19.62,14.6066674 19.62,14.46 L19.62,14 C19.3133318,14.3066682 18.9333356,14.5833321 18.48,14.83 C18.0266644,15.0766679 17.4800032,15.2 16.84,15.2 C16.0266626,15.2 15.353336,15.0733346 14.82,14.82 C14.286664,14.5666654 13.8600016,14.2266688 13.54,13.8 C13.2199984,13.3733312 12.993334,12.8766695 12.86,12.31 C12.726666,11.7433305 12.66,11.1466698 12.66,10.52 L12.66,5.14 Z M28.84,7 C28.039996,7 27.4633351,7.1766649 27.11,7.53 C26.7566649,7.8833351 26.58,8.459996 26.58,9.26 L26.58,14.46 C26.58,14.6066674 26.5266672,14.7333328 26.42,14.84 C26.3133328,14.9466672 26.1866674,15 26.04,15 L24.52,15 C24.3733326,15 24.2466672,14.9466672 24.14,14.84 C24.0333328,14.7333328 23.98,14.6066674 23.98,14.46 L23.98,5.14 C23.98,4.9933326 24.0333328,4.8666672 24.14,4.76 C24.2466672,4.6533328 24.3733326,4.6 24.52,4.6 L26.04,4.6 C26.1866674,4.6 26.3133328,4.6533328 26.42,4.76 C26.5266672,4.8666672 26.58,4.9933326 26.58,5.14 L26.58,5.6 C26.9266684,5.2799984 27.2966647,5.0333342 27.69,4.86 C28.0833353,4.6866658 28.5999968,4.6 29.24,4.6 L30.14,4.6 C30.2866674,4.6 30.4133328,4.6533328 30.52,4.76 C30.6266672,4.8666672 30.68,4.9933326 30.68,5.14 L30.68,6.46 C30.68,6.6066674 30.6266672,6.7333328 30.52,6.84 C30.4133328,6.9466672 30.2866674,7 30.14,7 L28.84,7 Z M41.1,14.46 C41.1,14.6066674 41.0466672,14.7333328 40.94,14.84 C40.8333328,14.9466672 40.7066674,15 40.56,15 L39.04,15 C38.8933326,15 38.7666672,14.9466672 38.66,14.84 C38.5533328,14.7333328 38.5,14.6066674 38.5,14.46 L38.5,9.38 C38.5,8.579996 38.3133352,7.9400024 37.94,7.46 C37.5666648,6.9799976 36.9933372,6.74 36.22,6.74 C35.5133298,6.74 34.9566687,6.9799976 34.55,7.46 C34.1433313,7.9400024 33.94,8.579996 33.94,9.38 L33.94,14.46 C33.94,14.6066674 33.8866672,14.7333328 33.78,14.84 C33.6733328,14.9466672 33.5466674,15 33.4,15 L31.88,15 C31.7333326,15 31.6066672,14.9466672 31.5,14.84 C31.3933328,14.7333328 31.34,14.6066674 31.34,14.46 L31.34,5.14 C31.34,4.9933326 31.3933328,4.8666672 31.5,4.76 C31.6066672,4.6533328 31.7333326,4.6 31.88,4.6 L33.4,4.6 C33.5466674,4.6 33.6733328,4.6533328 33.78,4.76 C33.8866672,4.8666672 33.94,4.9933326 33.94,5.14 L33.94,5.6 C34.2866684,5.2533316 34.693331,4.9666678 35.16,4.74 C35.626669,4.5133322 36.1799968,4.4 36.82,4.4 C37.6333374,4.4 38.3133306,4.5266654 38.86,4.78 C39.4066694,5.0333346 39.846665,5.3733312 40.18,5.8 C40.513335,6.2266688 40.7499993,6.7233305 40.89,7.29 C41.0300007,7.8566695 41.1,8.4533302 41.1,9.08 L41.1,14.46 Z M42.24,9.8 C42.24,9.0533296 42.3533322,8.3500033 42.58,7.69 C42.8066678,7.0299967 43.1333312,6.4566691 43.56,5.97 C43.9866688,5.4833309 44.5033303,5.1000014 45.11,4.82 C45.7166697,4.5399986 46.3933296,4.4 47.14,4.4 C47.8866704,4.4 48.5633303,4.5366653 49.17,4.81 C49.7766697,5.0833347 50.2933312,5.4499977 50.72,5.91 C51.1466688,6.3700023 51.4766655,6.9099969 51.71,7.53 C51.9433345,8.1500031 52.06,8.7999966 52.06,9.48 L52.06,10.38 C52.06,10.5266674 52.0066672,10.6533328 51.9,10.76 C51.7933328,10.8666672 51.6666674,10.92 51.52,10.92 L44.84,10.92 C44.84,11.2266682 44.9033327,11.4966655 45.03,11.73 C45.1566673,11.9633345 45.3266656,12.1599992 45.54,12.32 C45.7533344,12.4800008 45.9999986,12.5999996 46.28,12.68 C46.5600014,12.7600004 46.8466652,12.8 47.14,12.8 C47.5666688,12.8 47.913332,12.7566671 48.18,12.67 C48.446668,12.5833329 48.6666658,12.473334 48.84,12.34 C48.9866674,12.2333328 49.1066662,12.1600002 49.2,12.12 C49.2933338,12.0799998 49.4199992,12.06 49.58,12.06 L51.18,12.06 C51.3266674,12.06 51.4566661,12.1133328 51.57,12.22 C51.6833339,12.3266672 51.7333334,12.4533326 51.72,12.6 C51.7066666,12.7866676 51.6033343,13.0266652 51.41,13.32 C51.2166657,13.6133348 50.9266686,13.8999986 50.54,14.18 C50.1533314,14.4600014 49.6766695,14.699999 49.11,14.9 C48.5433305,15.100001 47.8866704,15.2 47.14,15.2 C46.3933296,15.2 45.7166697,15.0700013 45.11,14.81 C44.5033303,14.5499987 43.9866688,14.1800024 43.56,13.7 C43.1333312,13.2199976 42.8066678,12.6500033 42.58,11.99 C42.3533322,11.3299967 42.24,10.600004 42.24,9.8 Z M47.14,6.8 C46.7533314,6.8 46.4233347,6.8566661 46.15,6.97 C45.8766653,7.0833339 45.6466676,7.2299991 45.46,7.41 C45.2733324,7.5900009 45.1300005,7.7899989 45.03,8.01 C44.9299995,8.2300011 44.8666668,8.439999 44.84,8.64 L49.36,8.64 C49.3333332,8.439999 49.2833337,8.2300011 49.21,8.01 C49.1366663,7.7899989 49.0166675,7.5900009 48.85,7.41 C48.6833325,7.2299991 48.4633347,7.0833339 48.19,6.97 C47.9166653,6.8566661 47.5666688,6.8 47.14,6.8 Z M58.1,7 C57.299996,7 56.7233351,7.1766649 56.37,7.53 C56.0166649,7.8833351 55.84,8.459996 55.84,9.26 L55.84,14.46 C55.84,14.6066674 55.7866672,14.7333328 55.68,14.84 C55.5733328,14.9466672 55.4466674,15 55.3,15 L53.78,15 C53.6333326,15 53.5066672,14.9466672 53.4,14.84 C53.2933328,14.7333328 53.24,14.6066674 53.24,14.46 L53.24,5.14 C53.24,4.9933326 53.2933328,4.8666672 53.4,4.76 C53.5066672,4.6533328 53.6333326,4.6 53.78,4.6 L55.3,4.6 C55.4466674,4.6 55.5733328,4.6533328 55.68,4.76 C55.7866672,4.8666672 55.84,4.9933326 55.84,5.14 L55.84,5.6 C56.1866684,5.2799984 56.5566647,5.0333342 56.95,4.86 C57.3433353,4.6866658 57.8599968,4.6 58.5,4.6 L59.4,4.6 C59.5466674,4.6 59.6733328,4.6533328 59.78,4.76 C59.8866672,4.8666672 59.94,4.9933326 59.94,5.14 L59.94,6.46 C59.94,6.6066674 59.8866672,6.7333328 59.78,6.84 C59.6733328,6.9466672 59.5466674,7 59.4,7 L58.1,7 Z M63.2,5.6 C63.5200016,5.2133314 63.9066644,4.9166677 64.36,4.71 C64.8133356,4.5033323 65.2866642,4.4 65.78,4.4 C66.6200042,4.4 67.306664,4.5566651 67.84,4.87 C68.373336,5.1833349 68.7933318,5.5933308 69.1,6.1 C69.2733342,5.833332 69.4866654,5.5933344 69.74,5.38 C69.9933346,5.1666656 70.2633319,4.9866674 70.55,4.84 C70.8366681,4.6933326 71.1333318,4.5833337 71.44,4.51 C71.7466682,4.4366663 72.0466652,4.4 72.34,4.4 C73.1000038,4.4 73.7333308,4.5266654 74.24,4.78 C74.7466692,5.0333346 75.1566651,5.3733312 75.47,5.8 C75.7833349,6.2266688 76.0033327,6.7233305 76.13,7.29 C76.2566673,7.8566695 76.32,8.4533302 76.32,9.08 L76.32,14.46 C76.32,14.6066674 76.2666672,14.7333328 76.16,14.84 C76.0533328,14.9466672 75.9266674,15 75.78,15 L74.26,15 C74.1133326,15 73.9866672,14.9466672 73.88,14.84 C73.7733328,14.7333328 73.72,14.6066674 73.72,14.46 L73.72,9.18 C73.72,8.2733288 73.5466684,7.6400018 73.2,7.28 C72.8533316,6.9199982 72.3666698,6.74 71.74,6.74 C71.206664,6.74 70.7500019,6.9133316 70.37,7.26 C69.9899981,7.6066684 69.7866668,8.213329 69.76,9.08 L69.76,14.46 C69.76,14.6066674 69.7066672,14.7333328 69.6,14.84 C69.4933328,14.9466672 69.3666674,15 69.22,15 L67.7,15 C67.5533326,15 67.4266672,14.9466672 67.32,14.84 C67.2133328,14.7333328 67.16,14.6066674 67.16,14.46 L67.16,9.18 C67.16,8.2733288 66.9866684,7.6400018 66.64,7.28 C66.2933316,6.9199982 65.8066698,6.74 65.18,6.74 C64.6333306,6.74 64.1666686,6.9233315 63.78,7.29 C63.3933314,7.6566685 63.2,8.2866622 63.2,9.18 L63.2,14.46 C63.2,14.6066674 63.1466672,14.7333328 63.04,14.84 C62.9333328,14.9466672 62.8066674,15 62.66,15 L61.14,15 C60.9933326,15 60.8666672,14.9466672 60.76,14.84 C60.6533328,14.7333328 60.6,14.6066674 60.6,14.46 L60.6,5.14 C60.6,4.9933326 60.6533328,4.8666672 60.76,4.76 C60.8666672,4.6533328 60.9933326,4.6 61.14,4.6 L62.66,4.6 C62.8066674,4.6 62.9333328,4.6533328 63.04,4.76 C63.1466672,4.8666672 63.2,4.9933326 63.2,5.14 L63.2,5.6 Z M77.98,7.16 C78.0333336,6.8799986 78.1566657,6.5800016 78.35,6.26 C78.5433343,5.9399984 78.8166649,5.6400014 79.17,5.36 C79.5233351,5.0799986 79.9566641,4.8500009 80.47,4.67 C80.9833359,4.4899991 81.5799966,4.4 82.26,4.4 C82.9400034,4.4 83.5533306,4.4899991 84.1,4.67 C84.6466694,4.8500009 85.1166647,5.1133316 85.51,5.46 C85.9033353,5.8066684 86.2066656,6.2433307 86.42,6.77 C86.6333344,7.2966693 86.74,7.8999966 86.74,8.58 L86.74,14.46 C86.74,14.6066674 86.6866672,14.7333328 86.58,14.84 C86.4733328,14.9466672 86.3466674,15 86.2,15 L84.68,15 C84.5333326,15 84.4066672,14.9466672 84.3,14.84 C84.1933328,14.7333328 84.14,14.6066674 84.14,14.46 L84.14,13.8 C83.8599986,14.1866686 83.4566693,14.5166653 82.93,14.79 C82.4033307,15.0633347 81.7333374,15.2 80.92,15.2 C80.3466638,15.2 79.8333356,15.1233341 79.38,14.97 C78.9266644,14.8166659 78.5466682,14.6000014 78.24,14.32 C77.9333318,14.0399986 77.6966675,13.7100019 77.53,13.33 C77.3633325,12.9499981 77.28,12.5333356 77.28,12.08 C77.28,11.1599954 77.6066634,10.4400026 78.26,9.92 C78.9133366,9.3999974 79.7866612,9.0466676 80.88,8.86 L84.14,8.3 C84.14,7.7533306 83.9600018,7.3666678 83.6,7.14 C83.2399982,6.9133322 82.793336,6.8 82.26,6.8 C81.926665,6.8 81.6666676,6.8466662 81.48,6.94 C81.2933324,7.0333338 81.1133342,7.1599992 80.94,7.32 C80.8199994,7.4266672 80.7100005,7.4999998 80.61,7.54 C80.5099995,7.5800002 80.4000006,7.6 80.28,7.6 L78.42,7.6 C78.286666,7.6 78.1733338,7.5600004 78.08,7.48 C77.9866662,7.3999996 77.9533332,7.293334 77.98,7.16 Z M81.32,12.8 C81.7733356,12.8 82.1766649,12.7366673 82.53,12.61 C82.8833351,12.4833327 83.1799988,12.3133344 83.42,12.1 C83.6600012,11.8866656 83.8399994,11.646668 83.96,11.38 C84.0800006,11.113332 84.14,10.8400014 84.14,10.56 L84.14,10.36 L81.42,10.84 C80.8733306,10.9333338 80.4800012,11.0699991 80.24,11.25 C79.9999988,11.4300009 79.88,11.6733318 79.88,11.98 C79.88,12.2600014 80.0233319,12.466666 80.31,12.6 C80.5966681,12.733334 80.9333314,12.8 81.32,12.8 Z M91,14.46 C91,14.6066674 90.9466672,14.7333328 90.84,14.84 C90.7333328,14.9466672 90.6066674,15 90.46,15 L88.94,15 C88.7933326,15 88.6666672,14.9466672 88.56,14.84 C88.4533328,14.7333328 88.4,14.6066674 88.4,14.46 L88.4,5.14 C88.4,4.9933326 88.4533328,4.8666672 88.56,4.76 C88.6666672,4.6533328 88.7933326,4.6 88.94,4.6 L90.46,4.6 C90.6066674,4.6 90.7333328,4.6533328 90.84,4.76 C90.9466672,4.8666672 91,4.9933326 91,5.14 L91,14.46 Z M90.56,0.8 C90.7066674,0.8 90.8333328,0.8533328 90.94,0.96 C91.0466672,1.0666672 91.1,1.1933326 91.1,1.34 L91.1,2.9 C91.1,3.0466674 91.0466672,3.1733328 90.94,3.28 C90.8333328,3.3866672 90.7066674,3.44 90.56,3.44 L88.84,3.44 C88.6933326,3.44 88.5666672,3.3866672 88.46,3.28 C88.3533328,3.1733328 88.3,3.0466674 88.3,2.9 L88.3,1.34 C88.3,1.1933326 88.3533328,1.0666672 88.46,0.96 C88.5666672,0.8533328 88.6933326,0.8 88.84,0.8 L90.56,0.8 Z M95.36,14.46 C95.36,14.6066674 95.3066672,14.7333328 95.2,14.84 C95.0933328,14.9466672 94.9666674,15 94.82,15 L93.3,15 C93.1533326,15 93.0266672,14.9466672 92.92,14.84 C92.8133328,14.7333328 92.76,14.6066674 92.76,14.46 L92.76,1.34 C92.76,1.1933326 92.8133328,1.0666672 92.92,0.96 C93.0266672,0.8533328 93.1533326,0.8 93.3,0.8 L94.82,0.8 C94.9666674,0.8 95.0933328,0.8533328 95.2,0.96 C95.3066672,1.0666672 95.36,1.1933326 95.36,1.34 L95.36,14.46 Z" id="burnermail-copy"></path>
            </g>
        </g>
    </g>
</svg>