<?xml version="1.0" encoding="UTF-8"?>
<svg width="180px" height="45px" viewBox="0 0 180 45" version="1.1" xmlns="http://www.w3.org/2000/svg" xmlns:xlink="http://www.w3.org/1999/xlink">
    <!-- Generator: Sketch 50.2 (55047) - http://www.bohemiancoding.com/sketch -->
    <title>Lifehacker</title>
    <desc>Created with Sketch.</desc>
    <defs></defs>
    <g id="Page-1" stroke="none" stroke-width="1" fill="none" fill-rule="evenodd">
        <g id="landing" transform="translate(-621.000000, -1355.000000)" fill="#CED7E1" fill-rule="nonzero">
            <g id="press-logos" transform="translate(621.000000, 1335.000000)">
                <g id="Lifehacker" transform="translate(90.000000, 42.500000) scale(-1, 1) rotate(-180.000000) translate(-90.000000, -42.500000) translate(0.000000, 20.000000)">
                    <g id="g12">
                        <polyline id="path14" points="6.89650251 0.501390604 0 0.501390604 0 44.4014094 6.89650251 43.9559396 6.89650251 0.501390604"></polyline>
                        <path d="M18.1864523,0.501390604 L11.2899196,0.501390604 L11.2899196,31.8107718 L18.1864523,31.4208725 L18.1864523,0.501390604 Z M14.7381709,41.3374832 C16.9072764,41.3374832 18.6869849,39.554698 18.6869849,37.3820134 C18.6869849,35.2090268 16.9072764,33.4262416 14.7381709,33.4262416 C12.5690955,33.4262416 10.7893869,35.2090268 10.7893869,37.3820134 C10.7893869,39.554698 12.5690955,41.3374832 14.7381709,41.3374832 Z" id="path16"></path>
                        <path d="M34.6489447,25.5156644 L34.6489447,18.6075604 L29.4764925,18.6075604 L29.4764925,0.531591946 L22.5799598,0.531591946 L22.5799598,34.875 C22.5799598,40.1116107 26.9180201,44.8471812 32.0348744,44.8471812 C33.7588945,44.8471812 35.1494472,44.3455369 35.4832161,44.122953 L35.2049246,37.4934564 L32.0348744,37.4934564 C30.6443216,37.4934564 29.4764925,36.3234564 29.4764925,34.875 L29.4764925,25.5156644 L34.6489447,25.5156644" id="path18"></path>
                        <path d="M44.3351759,19.4989832 L49.5075377,19.4989832 L49.5075377,22.7299228 C49.5075377,24.178651 48.3394975,25.3484698 46.9489447,25.3484698 C45.5029146,25.3484698 44.3351759,24.178651 44.3351759,22.7299228 L44.3351759,19.4989832 Z M37.4384925,22.7299228 C37.4384925,27.967047 41.6653266,32.2565436 46.9489447,32.2565436 C52.1770854,32.2565436 56.4039196,27.967047 56.4039196,22.7299228 L56.4039196,16.0445839 C56.4039196,14.0949362 54.8466332,12.5908792 52.9558794,12.5908792 L44.3351759,12.5908792 L44.3351759,9.58231208 C44.3351759,8.13418792 45.5029146,6.96388591 46.9489447,6.96388591 L53.5676382,6.96388591 L53.7901508,1.11414564 L47.561005,0.167287047 C41.5540704,-0.835610738 37.4384925,4.34570134 37.4384925,9.58231208 L37.4384925,22.7299228 Z" id="path20"></path>
                        <path d="M62.301407,0.501390604 L62.301407,44.122953 L66.7510553,44.122953 L66.7510553,30.8639597 C67.9745729,31.2538591 69.9211055,31.4208725 71.2558794,31.4208725 C75.9835176,31.4208725 79.6540704,27.1311946 79.6540704,22.2842114 L79.6540704,0.501390604 L75.3159799,0.501390604 L75.3159799,22.2842114 C75.3159799,24.6799329 73.3694472,26.5741007 70.9778894,26.5741007 L66.7510553,26.5741007 L66.7510553,0.501390604 L62.301407,0.501390604" id="path22"></path>
                        <path d="M95.9318593,8.91365436 L95.9318593,16.4347248 L91.6492462,16.4347248 C89.2579899,16.4347248 87.3669347,14.540406 87.3669347,12.145198 L87.3669347,8.91365436 C87.3669347,6.51841611 89.2579899,4.56855705 91.6492462,4.56855705 C94.0411055,4.56855705 95.9318593,6.51841611 95.9318593,8.91365436 Z M95.9318593,23.0085906 C95.9318593,25.5156644 94.7638191,27.5213356 91.5937688,27.1867651 L91.6492462,27.1867651 C89.8694472,27.1311946 87.5894472,26.9083389 85.698392,26.7969564 C85.6429146,28.4126074 85.5871357,29.0253926 85.5316583,30.2508725 C87.0331658,30.8080872 89.2022111,31.365302 91.0377889,31.4208725 C96.599397,31.5323154 100.270251,27.0196913 100.270251,22.1731007 L100.270251,8.91365436 C100.270251,4.12284564 96.4326633,0.167287047 91.6492462,0.167287047 C86.8664322,0.167287047 82.9175879,4.12284564 82.9175879,8.91365436 L82.9175879,11.6435537 C82.9175879,16.4347248 86.1988945,20.0558054 91.6492462,20.0558054 C93.7073367,20.0558054 94.7638191,19.8329497 95.9318593,19.4989832 L95.9318593,23.0085906 Z" id="path24"></path>
                        <path d="M112.730352,31.4208725 C117.513769,31.4208725 121.462312,27.5213356 121.462312,22.6743523 L121.462312,22.1171678 C119.738291,22.0613859 118.347739,22.0613859 117.068744,22.0058154 L117.068744,22.6743523 C117.068744,25.0141409 115.12191,26.9639094 112.730352,26.9639094 C110.394573,26.9639094 108.503216,25.0141409 108.503216,22.6743523 L108.503216,8.74658054 C108.503216,6.2954396 110.394573,4.45681208 112.730352,4.45681208 C115.066432,4.45681208 117.012965,6.23965772 117.068744,8.57965772 C119.237487,8.41225168 121.295578,8.30089933 121.462312,8.30089933 C121.239799,3.67701342 117.346734,0 112.730352,0 C107.947538,0 104.053869,3.89986913 104.053869,8.74658054 L104.053869,22.6743523 C104.053869,27.5213356 107.947538,31.4208725 112.730352,31.4208725" id="path26"></path>
                        <path d="M138.992261,0.501390604 L130.538593,15.2649966 C129.70402,16.713151 129.70402,16.8804362 130.705327,18.6075604 L138.15799,30.9751007 L143.219397,30.9751007 L134.820905,16.713151 L143.886633,0.501390604 L138.992261,0.501390604 Z M129.42603,44.0115101 L129.42603,0.501390604 L124.976683,0.501390604 L124.976683,44.0115101 L129.42603,44.0115101 Z" id="path28"></path>
                        <path d="M149.273065,17.9389933 L157.838291,17.9389933 L157.838291,22.6188121 C157.838291,25.0141409 155.891457,26.9639094 153.555678,26.9639094 C151.164121,26.9639094 149.273065,25.0141409 149.273065,22.6188121 L149.273065,17.9389933 Z M144.823719,22.6188121 C144.823719,27.4654027 148.717085,31.4208725 153.555678,31.4208725 C158.338492,31.4208725 162.232161,27.4654027 162.232161,22.6188121 L162.232161,15.7661577 C162.232161,14.4846242 161.230854,13.5377517 160.007337,13.5377517 L149.273065,13.5377517 L149.273065,8.80251342 C149.273065,6.40694295 151.164121,4.45681208 153.555678,4.45681208 L159.173065,4.45681208 C159.228543,3.00869094 159.284322,2.00532081 159.395578,1.00301376 L154.056181,0.167287047 C148.605829,-0.779807718 144.823719,3.9554396 144.823719,8.80251342 L144.823719,22.6188121 Z" id="path30"></path>
                        <path d="M170.584221,0.501390604 L166.134573,0.501390604 L166.134573,22.2286711 C166.134573,27.0756242 169.916683,31.5878859 175.478291,31.476745 C177.369347,31.4208725 178.537387,30.9751007 179.816683,30.3623154 C179.760905,29.0253926 179.705427,27.9111141 179.64995,26.9083389 L174.811055,27.0196913 C172.474975,27.0196913 170.584221,24.5126477 170.584221,22.2286711 L170.584221,0.501390604" id="path32"></path>
                    </g>
                </g>
            </g>
        </g>
    </g>
</svg>