<svg height="98" viewBox="0 0 98 98" width="98" xmlns="http://www.w3.org/2000/svg"><path d="m74 56v-26h-22v26h-2v-54h-22v17 1 36h-2v-36h-5c-.552 0-1-.448-1-1v-7h-12v7c0 .552-.448 1-1 1h-5v36h-2v-37c0-.552.448-1 1-1h5v-7c0-.552.448-1 1-1h5v-5.937l2-.063v-4h2v10h5c.552 0 1 .448 1 1v7h4v-17c0-.552.448-1 1-1h24c.552 0 1 .448 1 1v27h23c.552 0 1 .448 1 1v27zm-67-32h14c.552 0 1 .448 1 1v3.999c0 .552-.448 1-1 1h-14c-.552 0-1-.448-1-1v-3.999c0-.552.448-1 1-1zm1 4h12v-2h-12zm-1 4h14c.552 0 1 .448 1 1v4c0 .552-.448 1-1 1h-14c-.552 0-1-.448-1-1v-4c0-.552.448-1 1-1zm1 4h12v-2h-12zm23.001-32h6c.552 0 .999.448.999 1v6c0 .552-.447 1-.999 1h-6c-.552 0-1.001-.448-1.001-1l.001-6c0-.552.448-1 1-1zm.999 6h4.001v-4h-4.001zm-.999 4h6c.552 0 .999.448.999 1v6c0 .552-.447 1-.999 1h-6c-.552 0-1-.448-1-1v-6c0-.552.448-1 1-1zm.999 6h4.001v-4h-4.001zm9.001-16h6c.552 0 .999.448.999 1v6c0 .552-.447 1-.999 1h-6c-.552 0-1-.448-1-1v-6c0-.552.448-1 1-1zm.999 6h4.001v-4h-4.001zm-.999 4h6c.552 0 .999.448.999 1v6c0 .552-.447 1-.999 1h-6c-.552 0-1-.448-1-1v-6c0-.552.448-1 1-1zm.999 6h4.001v-4h-4.001zm14 18.681c.136-.405.515-.679.942-.681h12.104c.432-.002.817.274.954.684l1.561 4c.216.647-.266 1.316-.948 1.316h-.613v12h-2v-12h-10v12h-2v-12h-.608c-.684 0-1.166-.671-.947-1.319zm13 3.319-1-2h-10l-1 2z" fill="#cccbcb" transform="translate(12 23)"/><path d="m0 0h100v2h-100z" fill="#fc0" transform="translate(0 79)"/></svg>