<?xml version="1.0" encoding="utf-8"?>
<!-- Generator: Adobe Illustrator 15.1.0, SVG Export Plug-In . SVG Version: 6.00 Build 0)  -->
<!DOCTYPE svg PUBLIC "-//W3C//DTD SVG 1.1//EN" "http://www.w3.org/Graphics/SVG/1.1/DTD/svg11.dtd">
<svg version="1.1" id="usa" xmlns="http://www.w3.org/2000/svg" xmlns:xlink="http://www.w3.org/1999/xlink" x="0px" y="0px"
	 width="127.5px" height="126.801px" viewBox="0 0 127.5 126.801" enable-background="new 0 0 127.5 126.801" xml:space="preserve">
<g>
	<rect y="0.445" fill="#FFFFFF" width="127.5" height="125.911"/>
	<g>
		<polygon fill="#B5001A" points="127.15,49.753 77.416,49.753 77.416,0.019 50.083,0.019 50.083,49.753 0.35,49.753 0.35,77.085 
			50.083,77.085 50.083,126.818 77.416,126.818 77.416,77.085 127.15,77.085 		"/>
		<g>
			<polygon fill="#111D6F" points="82.555,0.019 82.555,29.871 112.436,0.019 			"/>
			<polygon fill="#111D6F" points="127.5,44.936 127.5,4.384 86.947,44.936 			"/>
			<polygon fill="#B5001A" points="82.594,34.816 82.594,44.387 126.902,-0.019 117.473,-0.019 			"/>
		</g>
		<g>
			<polygon fill="#111D6F" points="44.917,0.018 15.065,0.018 44.917,29.898 			"/>
			<polygon fill="#111D6F" points="0,44.964 40.553,44.964 0,4.411 			"/>
			<polygon fill="#B5001A" points="10.12,0.057 0.548,0.057 44.955,44.367 44.955,34.936 			"/>
		</g>
		<g>
			<polygon fill="#111D6F" points="82.555,126.781 82.555,96.928 112.436,126.781 			"/>
			<polygon fill="#111D6F" points="127.5,81.864 127.5,122.417 86.947,81.864 			"/>
			<polygon fill="#B5001A" points="82.594,91.984 82.594,82.413 126.902,126.818 117.473,126.818 			"/>
		</g>
		<g>
			<polygon fill="#111D6F" points="44.917,126.782 15.065,126.782 44.917,96.9 			"/>
			<polygon fill="#111D6F" points="0,81.837 40.553,81.837 0,122.389 			"/>
			<polygon fill="#B5001A" points="10.12,126.743 0.548,126.743 44.955,82.432 44.955,91.864 			"/>
		</g>
	</g>
</g>
</svg>
