<svg enable-background="new 0 0 1057.2 180" viewBox="0 0 1057.2 180" xmlns="http://www.w3.org/2000/svg"><path d="m1029 180h-1000.7c-15.6 0-28.3-12.8-28.3-28.3v-123.4c0-15.6 12.8-28.3 28.3-28.3h1000.6c15.6 0 28.3 12.8 28.3 28.3v123.3c.1 15.6-12.7 28.4-28.2 28.4z" fill="#b2fce4"/><g enable-background="new"><path d="m562.2 108.3-3.1-7.7h-17.4l-3.1 7.7h-7.6l16.4-38.1h6.7l16 38.1zm-11.5-29.1h-.2l-6.5 15.8h13z"/><path d="m577.4 108.3-10.4-28h7.3l6.8 19.4h.2l7.2-19.4h7.1l-11 28z"/><path d="m618.2 108.3v-3.6c-2.1 2.5-5.2 4.1-8.8 4.1-7.7 0-13.5-6.2-13.5-14.4s6-14.5 13.7-14.5c3.6 0 6.6 1.6 8.7 4v-3.5h6.9v28h-7zm-.1-14c0-4.7-3.4-8-7.6-8s-7.6 3.4-7.6 8 3.4 8 7.6 8 7.6-3.3 7.6-8z"/><path d="m630.5 72.8c0-2.1 1.8-4 4-4s4 1.9 4 4c0 2.2-1.8 4-4 4s-4-1.9-4-4zm.4 35.5v-28h7.1v28z"/><path d="m644 108.3v-38.1h7.1v38.1z"/><path d="m677.9 108.3v-3.6c-2.1 2.5-5.2 4.1-8.8 4.1-7.7 0-13.5-6.2-13.5-14.4s6-14.5 13.7-14.5c3.6 0 6.6 1.6 8.7 4v-3.5h6.9v28h-7zm-.1-14c0-4.7-3.4-8-7.6-8s-7.6 3.4-7.6 8 3.4 8 7.6 8 7.6-3.3 7.6-8z"/><path d="m690.5 108.3v-38.1h7.1v13.5c2.1-2.4 5-3.9 8.6-3.9 7.6 0 13.5 6.2 13.5 14.4s-6 14.5-13.7 14.5c-3.7 0-6.7-1.6-8.7-4.1v3.6h-6.8zm22.2-14c0-4.5-3.4-8-7.6-8s-7.6 3.4-7.6 8 3.4 8 7.6 8c4.1 0 7.6-3.5 7.6-8z"/><path d="m724.1 108.3v-38.1h7.1v38.1z"/><path d="m743 96.1c.5 4.1 3.5 6.5 7.2 6.5 3 0 5.3-1.4 6.6-3.6h7.2c-1.7 5.9-7 9.7-14 9.7-8.5 0-14.4-5.9-14.4-14.4s6.3-14.6 14.6-14.6 14.4 6.2 14.4 14.6c0 .6-.1 1.2-.2 1.8zm14.1-4.4c-.5-3.6-3.5-5.8-6.9-5.8-3.5 0-6.3 2.1-7.1 5.8z"/><path d="m778.6 72.8c0-2.1 1.8-4 4-4s4 1.9 4 4c0 2.2-1.8 4-4 4s-4-1.9-4-4zm.5 35.5v-28h7.1v28z"/><path d="m809.1 108.3v-17.5c0-3.1-2.1-4.8-4.9-4.8-2.9 0-5.2 1.8-5.2 4.7v17.5h-7v-28h6.9v3.5c1-1.7 3.6-4 7.8-4 6 0 9.5 3.8 9.5 9.8v18.7h-7.1z"/><path d="m821 96.3v-5.3h14.7v5.3z"/><path d="m857.8 88.7c-.7-2.4-2.9-3.5-6.4-3.5-3 0-5.3.9-5.3 2.9 0 5.4 18.9-.1 18.9 11.3 0 5.9-5.8 9.4-13.3 9.4-6.7 0-12.4-2.4-13.2-9.2h6.9c1 2.8 3.1 3.8 6.6 3.8 3.6 0 5.9-1.2 5.9-3.2 0-5.7-19 0-19-11.3 0-5.4 4.8-9.1 12.9-9.1 6.3 0 11.9 2.7 12.6 9h-6.6z"/><path d="m878.5 108.3c-5.7 0-7.9-2.5-7.9-8.2v-13.7h-3.6v-6.1h3.6v-6.8h7.1v6.8h4.4v6.1h-4.4v12.4c0 2.4.7 3.2 3.1 3.2h1.4v6.2h-3.7z"/><path d="m899.3 108.7c-8.3 0-14.7-6.2-14.7-14.4s6.3-14.5 14.7-14.5c8.3 0 14.7 6.3 14.7 14.5s-6.4 14.4-14.7 14.4zm7.6-14.4c0-4.5-3.4-8-7.6-8-4.1 0-7.6 3.4-7.6 8s3.5 8 7.6 8c4.1-.1 7.6-3.5 7.6-8z"/><path d="m918.2 108.3v-28h6.9v2.7c1.1-1.7 3.1-3.2 6-3.2 1.8 0 3.2.6 4.1 1.3l-3.5 6.2c-.7-.4-1.5-.7-2.4-.7-2.7 0-4.1 2.2-4.1 5.1v16.6z"/><path d="m942.4 96.1c.5 4.1 3.5 6.5 7.2 6.5 3 0 5.3-1.4 6.6-3.6h7.2c-1.7 5.9-7 9.7-14 9.7-8.5 0-14.4-5.9-14.4-14.4s6.3-14.6 14.6-14.6 14.4 6.2 14.4 14.6c0 .6-.1 1.2-.2 1.8zm14-4.4c-.5-3.6-3.5-5.8-6.9-5.8-3.5 0-6.3 2.1-7.1 5.8z"/></g><path d="m498.5 70.4-12.4-7.1-12.6-7.2c-8.4-4.8-18.8 1.2-18.8 10.9v1.6c0 .9.5 1.7 1.2 2.1l5.8 3.4c1.6.9 3.6-.2 3.6-2.1v-3.8c0-1.9 2.1-3.1 3.7-2.1l11.5 6.6 11.5 6.6c1.7 1 1.7 3.3 0 4.3l-11.5 6.6-11.5 6.6c-1.7.9-3.7-.2-3.7-2.1v-1.9c0-9.6-10.4-15.7-18.8-10.9l-12.6 7.2-12.4 7.1c-8.4 4.8-8.4 16.9 0 21.7l12.4 7.1 12.6 7.2c8.4 4.8 18.8-1.2 18.8-10.9v-1.6c0-.9-.5-1.7-1.2-2.2l-5.8-3.4c-1.6-.9-3.6.2-3.6 2.1v3.8c0 1.9-2.1 3.1-3.7 2.1l-11.5-6.6-11.5-6.6c-1.7-1-1.7-3.3 0-4.3l11.5-6.6 11.5-6.6c1.7-.9 3.7.2 3.7 2.1v1.9c0 9.6 10.4 15.7 18.8 10.9l12.6-7.2 12.4-7.1c8.4-4.7 8.4-16.8 0-21.6"/><path d="m416.9 72.8-29.1 60.1h-12.1l10.9-22.5-17.1-37.6h12.4l11 25.2 12-25.2z"/><path d="m125.8 94.1c0-7.2-5.2-12.2-11.6-12.2s-11.6 5.1-11.6 12.2c0 7 5.2 12.2 11.6 12.2s11.6-5 11.6-12.2m.1 21.4v-5.6c-3.2 3.8-7.9 6.2-13.5 6.2-11.7 0-20.6-9.4-20.6-22s9.2-22.1 20.8-22.1c5.5 0 10.1 2.4 13.2 6.2v-5.4h10.6v42.7z"/><path d="m187.4 106c-3.7 0-4.7-1.4-4.7-5v-19h6.7v-9.3h-6.7v-10.4h-10.8v10.4h-13.9v-4.3c0-3.6 1.4-5 5.1-5h2.4v-8.3h-5.1c-8.9 0-13.1 2.9-13.1 11.8v5.7h-6v9.3h6v33.4h10.8v-33.4h13.9v20.9c0 8.7 3.3 12.5 12 12.5h5.6v-9.5h-2.2z"/><path d="m226 90.3c-.8-5.6-5.3-8.9-10.6-8.9s-9.7 3.2-10.8 8.9zm-21.4 6.6c.8 6.3 5.3 9.9 11 9.9 4.5 0 8-2.1 10.1-5.6h11c-2.6 9.1-10.7 14.9-21.4 14.9-12.9 0-22-9.1-22-22s9.6-22.2 22.2-22.2c12.7 0 22 9.4 22 22.2 0 .9-.1 1.9-.3 2.7z"/><path d="m306 94.1c0-6.9-5.2-12.2-11.6-12.2s-11.6 5.1-11.6 12.2c0 7 5.2 12.2 11.6 12.2s11.6-5.3 11.6-12.2m-33.8 38.8v-60.2h10.5v5.6c3.2-3.9 7.9-6.3 13.5-6.3 11.5 0 20.6 9.5 20.6 22 0 12.6-9.2 22.1-20.8 22.1-5.4 0-9.8-2.1-12.9-5.7v22.5z"/><path d="m354.6 94.1c0-7.2-5.2-12.2-11.6-12.2s-11.6 5.1-11.6 12.2c0 7 5.2 12.2 11.6 12.2s11.6-5 11.6-12.2m.1 21.4v-5.6c-3.2 3.8-7.9 6.2-13.5 6.2-11.7 0-20.6-9.4-20.6-22s9.2-22.1 20.8-22.1c5.5 0 10.1 2.4 13.2 6.2v-5.4h10.5v42.7z"/><path d="m253.2 76.9s2.7-5 9.2-5c2.8 0 4.6 1 4.6 1v10.9s-4-2.4-7.6-1.9-5.9 3.8-5.9 8.3v25.3h-10.8v-42.7h10.5z"/></svg>