<svg viewBox="0 0 1306.58 274.87" xmlns="http://www.w3.org/2000/svg"><g transform="translate(-32.42 -209.33)"><path d="m578.69 444.2-.48-5-1.34-4.87a64 64 0 0 0 -4-9.26c-1.45-2.79-3.05-5.49-4.73-8.16-2.94-4.91-6.21-9.63-9.34-14.41-.33-.5-.63-1-1-1.51a219.14 219.14 0 0 1 -17.33-34.76c-2.8-7.12-5.26-14.38-7.46-21.71l4.78.1a.51.51 0 0 0 .55-.45h1.22c1 0 1-.71.29-1.16a5.88 5.88 0 0 0 -1.26-.59h.44c1 0 1-.59.43-1a2.9 2.9 0 0 0 -.85-.33 1.48 1.48 0 0 0 0-.37c.49-.1.87-.26 1-.52.2-.44 0-.67-.26-.8.27-.74-.46-.91-1-.92l-7.1-.13q-3.26-11.77-5.66-23.76c-3.17-15.83-5.58-31.8-7.62-47.81-1-8-1.88-16-2.85-24-.28-2.31-.54-4.62-1-6.91a43 43 0 0 0 -4.91-14.54 22.75 22.75 0 0 0 -2-2.82l-.15-.28a21 21 0 0 0 -4-5 23.08 23.08 0 0 0 -4.37-3.12 10.72 10.72 0 0 0 -1.45-.08l-1-.65a5.28 5.28 0 0 0 -2.42.18q-1.7.32-3.38.75c-.77.19-2.46.33-3.2 1a12.07 12.07 0 0 0 -3.63.49 5.36 5.36 0 0 0 -.66 0h-.27a1.78 1.78 0 0 0 -1.66.5c-3.15 18-6 36-10.63 53.68a178.78 178.78 0 0 1 -24.77 55.07 191 191 0 0 1 -14.18 18.27q-11.05.47-22.11 1c-2.19.11-4.93.15-7 1a1.85 1.85 0 0 0 -.52.31 5.92 5.92 0 0 0 -1 .12h-.28c-.27 0-1 0-1.64.08l-1.54.07a.87.87 0 1 0 -.16 1.18l.8.15c.79.22 1.58.41 2.38.59a2 2 0 0 0 .29.25l.5.22a6.68 6.68 0 0 0 .7.48 22.62 22.62 0 0 0 2.59 1.1 28.49 28.49 0 0 0 3.36 1.12c5.11.37 10.26.71 15.4 1.14q-6.54 6.68-13.61 12.86c-15.22 13.28-31.79 24.43-49 35a727.88 727.88 0 0 1 -66.49 33.84c-28.11 12.71-57.11 23.97-86.96 32.25a511.84 511.84 0 0 1 -50.52 11.48 340.92 340.92 0 0 1 -41.13 3.29q-15.36.28-30.68-.82a84.59 84.59 0 0 1 -11.42-1.47c-1.43-.29-2.86-.64-4.28-1l-1.12-.42a33 33 0 0 1 -6.74-3.44 32.88 32.88 0 0 1 -6-5.92 24.46 24.46 0 0 1 -2.26-7.17 23.54 23.54 0 0 1 1.4-13.15 36.34 36.34 0 0 1 6.89-11.24c4.59-5.17 10.24-8.85 16.14-12.32a163.64 163.64 0 0 1 44.25-15 167 167 0 0 1 26-2.92l10.09-.1h3.2q5.53.43 11 1.38l.25.12a28.53 28.53 0 0 0 10.66 2.22.75.75 0 0 0 .27 0c1.43.18 2.85.21 4.43.27q.8-.09.23-.66a6.66 6.66 0 0 0 -2-1l-2.24-.92c.9.09 1.8.16 2.7.2h1.22q.73-.12.3-.48c-.25-.73-3.89-1.35-3.67-1.31l-1.88-.42a.66.66 0 0 0 .49-.31.62.62 0 0 0 0-.09h1.23a4.89 4.89 0 0 0 1.9-.24c.65-.64-.22-.82-.9-1l-.76-.21c.1-.27-.16-.49-.77-.63a78 78 0 0 0 -9.29-2.15c-.84-.51-1.7-1.09-2.63-1.76a7.82 7.82 0 0 0 -1-.19l-.88-.59a3.89 3.89 0 0 0 -2.06 0q-1.95.22-3.87.6c.08 0-.5.1-1.08.3-.78 0-1.55 0-2.33 0l-1.4-.09-.23-.06a5.16 5.16 0 0 0 -1.94-.09h-.19c-1.15-.05-2.31-.1-3.46-.12-3.93 0-7.88-.05-11.81 0a180.57 180.57 0 0 0 -25.52 2.61c-.79.1-1.57.17-2.36.28a182.78 182.78 0 0 0 -25.84 5.46 86.31 86.31 0 0 0 -15 5.53q-4.76 2.17-9.63 4.1a82.42 82.42 0 0 0 -9.4 5.4c-1.53 1-3.05 2.09-4.5 3.23-4.52 3.54-7.59 7.52-10.83 12.22a14.92 14.92 0 0 0 -2.85 4.86 27 27 0 0 0 -2 5.88 33.54 33.54 0 0 0 -.77 10.07 26.65 26.65 0 0 0 2.6 9.52c1.66 3.44 5 6.37 8.26 8.32a43.16 43.16 0 0 0 12.58 4.87l1.07.41a92.56 92.56 0 0 0 9.13 2.9c8.91 2.3 17.88 2.87 27 3.25 52.54 3.14 105-6.25 154.85-22.53a664.76 664.76 0 0 0 65.39-25.42c19.42-8.7 38.56-18.1 57.16-28.45a362.7 362.7 0 0 0 50.4-33.43 269.8 269.8 0 0 0 20.3-18c1.51-1.48 3-3 4.49-4.56l.7.13 45 14.71c2.1 1.17 4.17 2.38 6.16 3.67a137.41 137.41 0 0 1 22.67 18 246.81 246.81 0 0 1 19 21.82c7.7 10.47 15 21.17 22.1 32a1.49 1.49 0 0 0 1.31.83l.43.1a6 6 0 0 0 1.86.6l.66.16a2.74 2.74 0 0 0 .72.58 3.86 3.86 0 0 0 1.55.9q1.33.61 2.7 1.1c.25.09 3.36 1.26 3.26.51l-.06-.44c1.15.33 4.84 1.32 4.77.67l-.21-2.08c.16-.02.29-.1.28-.23zm-83-197.63c.29 2.28.56 4.55.8 6.84q1.51 12 3.26 24c2.37 16 5.17 31.88 9 47.56q1.61 6.56 3.48 13.07c-12.65-.14-25.3-.17-38 0q-8.71.13-17.41.38c1.87-2.35 3.68-4.73 5.39-7.14a182.9 182.9 0 0 0 14-23 187.81 187.81 0 0 0 10.6-25.78 257.82 257.82 0 0 0 8.22-32.77c.29-1.01.48-2.09.68-3.16zm-43.15 98.84c8.36-.36 16.72-.67 25.08-.86q10.82-.25 21.63-.36 7.42 0 14.85.05a257.35 257.35 0 0 0 9.57 26.16c1.14 2.66 2.36 5.28 3.61 7.89a121.64 121.64 0 0 0 -17.42-12.29 150.23 150.23 0 0 0 -22.11-10.5 192.62 192.62 0 0 0 -35.19-10.09z" fill="#f00"/><path d="m541.83 414.57h1.32a8.55 8.55 0 0 0 6.29-2.8q2.73-2.8 2.73-7.87v-73.21q0-6.06-3.06-8.43a12.19 12.19 0 0 0 -7.28-2.5v-1.12h31v1.12a12.71 12.71 0 0 0 -7.24 2.44q-3.16 2.31-3.16 8.49v70.78q0 6.32 3.16 8.76t10.34 2.44h8.36a23.76 23.76 0 0 0 8.72-1.32 11.39 11.39 0 0 0 5.17-4 38 38 0 0 0 3.88-7.64h1.12l-3.69 15.93h-57.66z"/><path d="m609 319.76v-1.12h57.8v15.28h-.92q0-12.25-16.33-12.25h-20.22v44h17.78a24.47 24.47 0 0 0 9.42-1.71q4.15-1.71 4.74-7.83h1v22h-1a11.93 11.93 0 0 0 -2.27-5.73 8.71 8.71 0 0 0 -3.26-2.67 7.74 7.74 0 0 0 -2.86-.66 30.05 30.05 0 0 0 -4.94-.39h-18.61v34.44a14.3 14.3 0 0 0 1.48 6.72q1.48 2.83 6.88 2.83h14.42a20.9 20.9 0 0 0 8.56-1.51 12.87 12.87 0 0 0 5.3-4.21 25.13 25.13 0 0 0 3.26-6.52h.92l-3.36 15.21h-57.79v-1.05h1.32a9.35 9.35 0 0 0 6.06-2.5q3-2.5 3-8.16v-73.11a14.63 14.63 0 0 0 -2-7.77q-2-3.29-7-3.29z"/><path d="m764.24 318.64v1.12a20 20 0 0 0 -6.45 1.94q-3.16 1.55-7.38 6.95-4.74 5.66-5.4 6.72l-20.67 28.18 24.56 36.74a45.1 45.1 0 0 0 8.3 9.91 17.48 17.48 0 0 0 6.52 3.72 27.08 27.08 0 0 0 6.26.66v1.05h-36.55v-1.05q4.68-.06 6.09-2.17a7.18 7.18 0 0 0 1.42-4q0-2.7-2.7-6.85l-19.69-29.7-19.82 27.44q-3.75 5.07-3.75 8.89a7.64 7.64 0 0 0 1.58 4.21q1.58 2.31 6.78 2.17v1.05h-29v-1.05q8.56.2 14.49-7 4-4.81 4.41-5.4l23.64-32.59-24-36.28q-5.53-8.56-9.28-10.83a19.25 19.25 0 0 0 -8.49-2.67v-1.12h34.9v1.12q-4.74.26-6.42 2.07a5.74 5.74 0 0 0 -1.68 4q0 3.49 3.36 8.76l17.49 26.37 19.42-26.47q4.15-5.86 4.15-9.15a6.07 6.07 0 0 0 -1.35-3.56q-1.35-1.84-6.09-2.11v-1.12z"/><path d="m820.34 317.46 29 83.09a41.21 41.21 0 0 0 4.35 9.35 9.84 9.84 0 0 0 3.92 3.65 17 17 0 0 0 4.77 1v1.05h-31.64v-1.05a23.74 23.74 0 0 0 7.51-.92q2.63-.92 2.63-5a20.21 20.21 0 0 0 -1.25-6 2 2 0 0 1 -.26-.79l-8.63-25.74h-33.58l-7.7 23.9a26.91 26.91 0 0 0 -1.58 7.84q0 4.08 2 5.43a10.47 10.47 0 0 0 5.79 1.35v1.05h-22.73v-1.05a11.52 11.52 0 0 0 7.8-3.72q2.93-3.26 5.1-9.91l27.39-83.49zm-22.06 55.18h30.88l-15.8-46h-.26z"/><path d="m969.34 318.64v1.12a21.1 21.1 0 0 0 -5.83 1.42 6.7 6.7 0 0 0 -3.32 3.75 21.49 21.49 0 0 0 -1.19 8.07v85.07h-.66l-74.46-83.07v59.65a74.94 74.94 0 0 0 .59 11.06 13 13 0 0 0 1.71 5.2q2.44 3.42 8.49 3.69v1.05h-24.3v-1.05a12.27 12.27 0 0 0 6.35-1.75q2.27-1.54 3.23-5.66a59.43 59.43 0 0 0 1-12.41v-63.3l-3.23-3.62q-4.28-4.87-6.85-6.16a23.17 23.17 0 0 0 -6.39-1.94v-1.12h18.24l73.28 82.17v-62.61a72.43 72.43 0 0 0 -.56-10.54 9.09 9.09 0 0 0 -3-5.6q-2.4-2.11-7.54-2.3v-1.12z"/><path d="m978.69 319.76v-1.12h37.31a72.36 72.36 0 0 1 14.45 1.35 61.43 61.43 0 0 1 11.85 3.59 50.46 50.46 0 0 1 9.05 4.91 42.41 42.41 0 0 1 6.45 5.43 48.61 48.61 0 0 1 7.84 10.24 47.92 47.92 0 0 1 4.84 11.89 51.48 51.48 0 0 1 1.61 12.91 49.37 49.37 0 0 1 -1.58 12.64 44.61 44.61 0 0 1 -4.54 11.09 45.54 45.54 0 0 1 -7.08 9.25 51.09 51.09 0 0 1 -9.58 7.51 45.09 45.09 0 0 1 -10.73 4.48q-6.06 1.71-16.4 1.71h-43.49v-1.05h1.31a7.55 7.55 0 0 0 6.78-3.42 13 13 0 0 0 2.24-7.24v-73.24a14.08 14.08 0 0 0 -1.22-6.19 7.92 7.92 0 0 0 -3.26-3.62 9.3 9.3 0 0 0 -4.54-1.12zm20.31 3.49v76.84q0 5.66 1.81 8.33a8.54 8.54 0 0 0 5.63 3.46 59.27 59.27 0 0 0 11.19.79 65.46 65.46 0 0 0 17.78-2.07q7.24-2.07 14-9.25a40.42 40.42 0 0 0 8-13q3-7.7 3-18.63a61.52 61.52 0 0 0 -2.44-17.09 45.38 45.38 0 0 0 -7.44-15 38.5 38.5 0 0 0 -14.39-11.65q-8.79-4.21-21.17-4.21a103.18 103.18 0 0 0 -15.97 1.48z"/><path d="m1083.71 319.76v-1.12h57.81v15.28h-.92q0-12.25-16.33-12.25h-20.21v44h17.78a24.48 24.48 0 0 0 9.42-1.71q4.15-1.71 4.74-7.83h1v22h-1a11.93 11.93 0 0 0 -2.24-5.76 8.71 8.71 0 0 0 -3.26-2.67 7.75 7.75 0 0 0 -2.86-.66 30 30 0 0 0 -4.94-.39h-18.63v34.44a14.3 14.3 0 0 0 1.48 6.72q1.48 2.83 6.88 2.83h14.42a20.9 20.9 0 0 0 8.56-1.51 12.87 12.87 0 0 0 5.3-4.21 25.15 25.15 0 0 0 3.26-6.52h.92l-3.36 15.21h-57.81v-1.05h1.28a9.35 9.35 0 0 0 6.06-2.5q3-2.5 3-8.16v-73.08a14.63 14.63 0 0 0 -2-7.77q-2-3.29-7-3.29z"/><path d="m1153.63 320h-1.32v-1.38h33.58a33.72 33.72 0 0 1 13.73 2.5 23.09 23.09 0 0 1 8.76 6.35 24.64 24.64 0 0 1 4.48 8.13 28 28 0 0 1 1.35 8.43 24.1 24.1 0 0 1 -2.21 10.11 21.77 21.77 0 0 1 -6.78 8.33 26.32 26.32 0 0 1 -11.42 4.74v.26q8.69 4.21 16.07 16.72l8.76 14.81q5.93 9.94 9.51 12.58a14.28 14.28 0 0 0 7.08 3v1.05h-17.65q-1.12-1.45-2.11-2.8l-2.11-2.86q-.66-1-1.94-3a24.07 24.07 0 0 0 -1.55-2.27l-11.59-19.16a48.59 48.59 0 0 0 -7.14-9.51 27.4 27.4 0 0 0 -6.81-5.23 19.83 19.83 0 0 0 -5.7-2 39.15 39.15 0 0 0 -6-.39v35.49q0 10.34 10.54 10.67v1.05h-30.88v-1.05a14.7 14.7 0 0 0 5.14-1.09 8.21 8.21 0 0 0 3.72-3.29 11.64 11.64 0 0 0 1.48-6.29v-73.34q0-5.79-2.83-8.16a9.44 9.44 0 0 0 -6.16-2.4zm19 45.83h5.53q8.69 0 14.25-2.5a16.41 16.41 0 0 0 8.07-7.14 23.67 23.67 0 0 0 2.5-11.36 28.25 28.25 0 0 0 -2.24-11 20.35 20.35 0 0 0 -7.61-9q-5.37-3.65-14.45-3.65a25.62 25.62 0 0 0 -6.06.59z"/><path d="m1177.48 445.11 8.24-16.37q25.28 15.26 49.14 15.26a66 66 0 0 0 29-6.3 52 52 0 0 0 20.68-17.19 40.63 40.63 0 0 0 7.57-23.66 38.11 38.11 0 0 0 -6.89-22.43q-6.89-9.82-24.87-22.76-17.53-12.77-21.35-15.72t-10-8.35q-10.94-10.48-10.94-24.72 0-25.7 30.57-49.45a109.82 109.82 0 0 1 19.55-12.12 115.9 115.9 0 0 1 21.65-8.19 79 79 0 0 1 19.93-2.78q13.63 0 21.43 5.57t7.81 15.5q0 12.28-9.44 26.28t-25.77 25.79l-12-7.37a136.16 136.16 0 0 0 18.73-16.37 78.22 78.22 0 0 0 11.84-16q4.19-7.77 4.2-14.16a12.52 12.52 0 0 0 -2.25-7.53 14 14 0 0 0 -6.44-4.75 29.09 29.09 0 0 0 -10.49-1.64 72.16 72.16 0 0 0 -25.1 5 114.5 114.5 0 0 0 -25.28 13.21q-26.37 18.18-26.37 40.44a23.15 23.15 0 0 0 3.15 11.71q3.15 5.49 11 12.36t23 17.68q11.24 8 17 13.1a55.86 55.86 0 0 1 9.51 10.64 43.44 43.44 0 0 1 8.39 26 53.38 53.38 0 0 1 -5.32 22.6 77.43 77.43 0 0 1 -15.06 21.45q-22.78 23.42-63.23 23.42-26.31.04-41.59-8.15z"/></g></svg>