<svg xmlns="http://www.w3.org/2000/svg" width="124.581" height="17.75" viewBox="0 0 124.581 17.75">
    <defs>
        <style>
            .cls-1{fill:#54b751}.cls-2{fill:#2e2f2e}.cls-3{fill:#fdfefd}
        </style>
    </defs>
    <g id="Group_983" transform="translate(-1071.684 -6095.929)">
        <g id="Group_982">
            <path id="Path_2569" d="M1143.362 6107.181a.652.652 0 0 0 .252-.285q2.42-3.609 4.832-7.224a.5.5 0 0 1 .485-.264c.681.017 1.363.019 2.043 0 .249-.007.3.076.3.3q-.012 3.549 0 7.1a.571.571 0 0 0 .054.37l5.194-7.752h-1.53l-.014-.065 1.4-.857c1.35-.827 2.7-1.648 4.047-2.484.228-.142.32-.144.385.144.23 1.012.476 2.02.728 3.027.049.192.011.255-.181.231a.351.351 0 0 0-.064 0c-.39.018-.844-.136-1.155.059s-.453.6-.667.915q-4.281 6.329-8.558 12.659a.48.48 0 0 1-.464.242c-.66-.014-1.32-.019-1.98 0-.263.008-.308-.083-.307-.321.008-2.376.005-4.753.005-7.129v-.379a.638.638 0 0 0-.251.29q-2.42 3.628-4.827 7.265a.519.519 0 0 1-.511.273q-.972-.026-1.947 0c-.26.008-.34-.054-.338-.326.013-1.782.007-3.565.007-5.347 0-2.621.006-5.242-.008-7.862 0-.3.089-.365.371-.358.8.019 1.6.017 2.4 0 .256-.005.315.072.314.319-.009 2.355-.006 4.71 0 7.066z" class="cls-1"/>
            <path id="Path_2570" d="M1083.668 6107.308l.941-1.406q2.074-3.109 4.145-6.223a.52.52 0 0 1 .512-.271c.659.018 1.32.012 1.98 0 .189 0 .275.023.274.25q-.011 6.7 0 13.4c0 .212-.075.237-.257.236-.83-.009-1.66-.013-2.49 0-.229 0-.277-.062-.276-.281.008-2.525.005-5.051.005-7.6-.141.058-.182.184-.245.279q-2.439 3.669-4.869 7.345a.493.493 0 0 1-.484.261c-.66-.017-1.321-.025-1.98 0-.3.012-.339-.092-.338-.356.01-2.366.006-4.732.006-7.1v-.379c-.143.062-.183.188-.246.283q-2.413 3.63-4.815 7.267a.553.553 0 0 1-.54.279c-1.084-.012-2.168 0-3.307 0 .374-.558.724-1.082 1.076-1.6q4.047-6 8.091-12a.517.517 0 0 1 .507-.277c.649.02 1.3.018 1.948 0 .249-.006.316.061.315.311-.01 2.409-.007 4.818 0 7.226a.54.54 0 0 0 .047.356z" class="cls-2"/>
            <path id="Path_2571" d="M1100.052 6112.392a4.107 4.107 0 0 1-2.242 1.183c-2.356.322-4.521-.631-4.936-3.336a6.055 6.055 0 0 1 .748-3.988 6.3 6.3 0 0 1 5.138-3.291 2.878 2.878 0 0 1 2.9 1.325c.059-.295.115-.542.155-.792.024-.153.092-.2.25-.2q1.262.014 2.522 0c.2 0 .227.059.193.237q-.9 4.76-1.793 9.52c-.021.112-.005.25-.208.248-.935-.01-1.87 0-2.821 0 .051-.3.1-.581.146-.86 0-.029.015-.074 0-.083-.036-.029-.042.012-.052.037zm-1.156-6.632a3.122 3.122 0 0 0-2.947 2.338 2.071 2.071 0 0 0 2.546 2.662 3.154 3.154 0 0 0 2.471-2.845 1.96 1.96 0 0 0-2.066-2.155z" class="cls-2"/>
            <path id="Path_2572" d="M1163.547 6112.316c-.18.159-.333.3-.492.433a4.435 4.435 0 0 1-5.749-.266 4.344 4.344 0 0 1-1.077-3.479 6.414 6.414 0 0 1 6.518-6.024 2.562 2.562 0 0 1 2.088 1.115c.049.064.066.158.18.194.048-.24.1-.473.137-.71.024-.173.1-.222.275-.22.819.007 1.639.017 2.458 0 .3-.008.3.111.254.335-.188 1.021-.367 2.043-.547 3.065-.365 2.076-.733 4.151-1.086 6.229-.036.21-.112.253-.3.251q-1.26-.013-2.522 0c-.211 0-.282-.041-.224-.264a1.822 1.822 0 0 0 .087-.659zm.893-4.547a1.922 1.922 0 0 0-1.687-1.929 2.991 2.991 0 0 0-2.652 1.035 2.813 2.813 0 0 0-.79 2.089 1.957 1.957 0 0 0 2.37 1.865 3.133 3.133 0 0 0 2.759-3.06z" class="cls-1"/>
            <path id="Path_2573" d="M1190.443 6104.246a3.134 3.134 0 0 1 2.07-1.231 3.547 3.547 0 0 1 2.833.658 2.474 2.474 0 0 1 .911 1.885 13.519 13.519 0 0 1-.394 3.049c-.257 1.493-.546 2.979-.806 4.471-.037.215-.112.278-.324.275-.809-.01-1.618-.012-2.426 0-.235 0-.292-.063-.249-.29.327-1.727.644-3.456.97-5.183a3.792 3.792 0 0 0 .064-.663 1.232 1.232 0 0 0-1.667-1.359 2.17 2.17 0 0 0-1.621 1.732c-.327 1.856-.681 3.707-1.016 5.561-.031.167-.11.2-.259.2-.841 0-1.682-.008-2.522 0-.211 0-.208-.075-.177-.244q.638-3.5 1.263-7c.387-2.147.78-4.292 1.159-6.44.035-.2.1-.258.3-.256q1.245.015 2.49 0c.2 0 .248.037.208.249-.274 1.446-.531 2.9-.793 4.344-.011.051-.008.105-.014.242z" class="cls-1"/>
            <path id="Path_2574" d="M1120.589 6113.295c-1.1 0-2.158-.006-3.211 0-.191 0-.22-.107-.273-.237q-.838-2.091-1.685-4.179a.6.6 0 0 0-.183-.32l-.481 2.573c-.12.645-.248 1.289-.359 1.937-.028.164-.076.227-.256.225q-1.308-.015-2.618 0c-.208 0-.2-.063-.172-.236q.921-4.885 1.829-9.773.339-1.812.681-3.623c.022-.119.005-.256.2-.255.946.006 1.892 0 2.861 0-.268 1.428-.53 2.83-.8 4.232q-.287 1.512-.586 3.023c-.011.055-.036.1.033.125s.115-.017.164-.068c.225-.24.457-.473.685-.71l2.428-2.527a.4.4 0 0 1 .294-.163h3.355c-.359.366-.679.708-1.015 1.033-1.085 1.047-2.17 2.1-3.271 3.124a.377.377 0 0 0-.082.534c.777 1.646 1.542 3.3 2.31 4.948.05.105.091.2.152.337z" class="cls-2"/>
            <path id="Path_2575" d="M1130.974 6110.185c-1.427 2.115-3.195 3.509-5.8 3.486a4.3 4.3 0 0 1-4.062-5.293 6.591 6.591 0 0 1 5.447-5.3 4.11 4.11 0 0 1 5.029 3.117 6.446 6.446 0 0 1-.119 2.8c-.054.237-.186.279-.408.278-2.288-.008-4.576 0-6.864-.011-.282 0-.361.056-.323.346a1.8 1.8 0 0 0 1.712 1.516 2.731 2.731 0 0 0 2.19-.835.271.271 0 0 1 .214-.11c.967.008 1.933.006 2.984.006zm-6.61-3.024a.264.264 0 0 0 .049.015c1.412.013 2.825.022 4.238.039.2 0 .192-.108.18-.246a1.691 1.691 0 0 0-1.254-1.413 2.79 2.79 0 0 0-3.213 1.605z" class="cls-2"/>
            <path id="Path_2576" d="M1184.366 6107.192h-1.309c-.11 0-.2 0-.244-.137a1.866 1.866 0 0 0-2.5-1.18 2.837 2.837 0 0 0-2.153 2.272 2.032 2.032 0 0 0 2.962 2.452 2.462 2.462 0 0 0 1.149-.927.359.359 0 0 1 .342-.175c.873 0 1.745.008 2.618 0 .217 0 .263.05.165.247a6.677 6.677 0 0 1-5.36 3.873 4.33 4.33 0 0 1-3.68-1.027 4.08 4.08 0 0 1-1.356-3.99 6.475 6.475 0 0 1 4.85-5.381 4.869 4.869 0 0 1 3.842.276 4.173 4.173 0 0 1 2.214 3.433c.021.205-.044.281-.26.273-.428-.02-.854-.009-1.28-.009z" class="cls-1"/>
            <path id="Path_2577" d="M1170.486 6113.295c-.394 0-.789-.018-1.181.006-.267.017-.294-.084-.252-.308.268-1.425.527-2.852.791-4.278.176-.958.351-1.916.535-2.872.037-.193 0-.268-.214-.257-.329.017-.659 0-.989.008-.175.006-.223-.053-.192-.219.115-.625.225-1.25.334-1.876.022-.125.089-.162.216-.179a2.052 2.052 0 0 0 2.008-1.9c.068-.341.062-.778.274-.986s.666-.055 1.013-.065c.436-.012.873.006 1.309-.006.215-.006.29.021.24.275-.162.809-.279 1.627-.435 2.438-.042.219.021.253.213.248.436-.009.873 0 1.309-.005.2 0 .29.019.237.26-.133.6-.236 1.205-.348 1.809a.212.212 0 0 1-.253.2c-.468-.012-.937.009-1.4-.01-.224-.009-.309.056-.349.281-.318 1.792-.651 3.582-.978 5.374-.111.6-.224 1.207-.324 1.812-.032.2-.12.255-.316.248-.418-.009-.834.002-1.248.002z" class="cls-1"/>
            <path id="Path_2578" d="M1132.444 6113.295c.334-1.792.662-3.55.992-5.309.134-.718.267-1.436.411-2.152.039-.2 0-.257-.213-.248-.4.017-.807 0-1.248 0 .151-.721.3-1.419.44-2.118.026-.126.107-.1.189-.112a2.043 2.043 0 0 0 2-1.862c.05-.292.121-.582.152-.876.02-.2.087-.262.291-.258.713.012 1.427.016 2.139 0 .242 0 .251.086.214.274-.15.769-.291 1.54-.435 2.311-.071.38-.07.381.307.381h1.309c.167 0 .219.028.179.216-.131.61-.241 1.226-.348 1.841-.031.173-.112.214-.278.211-.478-.011-.958 0-1.436-.009-.184 0-.247.046-.281.234-.411 2.239-.837 4.475-1.252 6.713-.141.76-.132.762-.894.762z" class="cls-2"/>
            <path id="Path_2579" d="M1109.226 6104.15a3.2 3.2 0 0 1 2.412-1.174c.211 0 .274.043.231.261q-.24 1.23-.451 2.468c-.036.216-.11.3-.344.287a2.755 2.755 0 0 0-.664.065 2.063 2.063 0 0 0-1.787 1.885c-.311 1.708-.635 3.414-.941 5.123-.034.192-.1.236-.282.234-.829-.009-1.66-.018-2.489 0-.278.007-.284-.092-.243-.309q.692-3.62 1.372-7.239c.138-.729.283-1.455.407-2.186.032-.186.1-.246.285-.244q1.164.013 2.33 0c.21 0 .255.063.2.258a4.926 4.926 0 0 0-.082.532c-.044.024-.054.081-.025.1s.045-.038.071-.061z" class="cls-2"/>
            <path id="Path_2580" d="M1098.9 6105.76a1.96 1.96 0 0 1 2.07 2.155 3.154 3.154 0 0 1-2.471 2.845 2.071 2.071 0 0 1-2.546-2.662 3.122 3.122 0 0 1 2.947-2.338z" class="cls-3"/>
            <path id="Path_2581" d="M1100.052 6112.392c.01-.025.016-.066.053-.04.012.009 0 .054 0 .083z" class="cls-3"/>
            <path id="Path_2582" d="M1164.44 6107.769a3.133 3.133 0 0 1-2.759 3.06 1.957 1.957 0 0 1-2.37-1.865 2.813 2.813 0 0 1 .79-2.089 2.991 2.991 0 0 1 2.652-1.035 1.922 1.922 0 0 1 1.687 1.929z" class="cls-3"/>
            <path id="Path_2583" d="M1124.364 6107.161a2.79 2.79 0 0 1 3.213-1.6 1.691 1.691 0 0 1 1.254 1.413c.012.138.019.248-.18.246-1.413-.017-2.826-.026-4.238-.039a.264.264 0 0 1-.049-.02z" class="cls-3"/>
            <path id="Path_2584" d="M1109.226 6104.15c-.022.023-.023.09-.067.063s-.019-.074.025-.1z" class="cls-3"/>
        </g>
    </g>
</svg>
