<svg xmlns="http://www.w3.org/2000/svg" width="129.904" height="22.631" viewBox="0 0 129.904 22.631">
    <defs>
        <style>
            .cls-1{fill:#fcfcfc}.cls-2{fill:#030303}
        </style>
    </defs>
    <g id="Group_987" transform="translate(-1326.742 -6093.444)">
        <g id="Group_986">
            <path id="Path_2641" d="M1420.094 6100.492c-1.084-1.242-1.582-1.577-2.533-1.789a5.222 5.222 0 0 0-5.781 2.694 7.791 7.791 0 0 0-.547 5.463 5.048 5.048 0 0 0 5.292 4.2 4.3 4.3 0 0 0 3.453-1.788 6.294 6.294 0 0 1-.094 2.217 2.175 2.175 0 0 1-1.617 1.787 2.132 2.132 0 0 1-2.479-.679c-.617-1.073-1.313-.807-2.143-.535a13.429 13.429 0 0 1-1.691.477c-.481.09-.48.3-.319.66a4.246 4.246 0 0 0 2.59 2.354 9.237 9.237 0 0 0 5.887.083 5.316 5.316 0 0 0 3.877-4.9c.043-.582.044-1.169.044-1.753 0-3.246-.011-6.493.014-9.739.005-.614-.128-.755-.733-.546a22.733 22.733 0 0 1-2.543.7c-.526.112-.851.302-.677 1.094zm-18.7-1.969c-1.243.337-2.4.652-3.558.963a.539.539 0 0 0-.475.6q.024 5.484 0 10.968c0 .431.162.551.57.542 1-.02 2-.036 3 .006.521.022.625-.169.62-.645-.024-2.017-.007-4.035-.013-6.053a3.9 3.9 0 0 1 .261-1.544 2.2 2.2 0 0 1 2.515-1.321c.888.107 1.34.622 1.5 1.763a9.877 9.877 0 0 1 .09 1.31c.009 1.959.013 3.919 0 5.878 0 .423.068.631.568.611 1.028-.039 2.059-.026 3.088 0 .384.008.506-.115.5-.5-.027-2.865.011-5.732-.069-8.6a3.727 3.727 0 0 0-1.973-3.4 5.374 5.374 0 0 0-6.048.937c-.151.152-.2.436-.576.425zm-64.632-.009c-1.257.344-2.434.674-3.616.985-.346.091-.446.276-.445.623q.018 5.439 0 10.879c0 .461.139.612.6.6 1-.027 2-.038 3 0 .528.022.621-.18.616-.65-.023-2.017-.005-4.035-.013-6.053a4.081 4.081 0 0 1 .21-1.466 2.236 2.236 0 0 1 2.56-1.4c.918.12 1.385.685 1.508 1.861a13.085 13.085 0 0 1 .065 1.312c.007 1.9.022 3.8-.009 5.7-.009.536.133.714.686.688.968-.045 1.941-.023 2.911-.007.372.007.59-.025.585-.5-.032-2.837.033-5.676-.063-8.509a3.778 3.778 0 0 0-3.679-3.95 5.178 5.178 0 0 0-4.914 2.012zm32.654 8.511a6.116 6.116 0 0 1-4.1 2.143 3.236 3.236 0 0 1-2.97-.963c-.321-.369-.435-.62.24-.79 2.073-.521 4.128-1.118 6.19-1.683 2.3-.631 2.41-.834 1.659-3.122-.027-.083-.065-.163-.1-.244-1.077-2.818-3.812-4.194-7.277-3.661a6.74 6.74 0 0 0-2.361 12.373 9.755 9.755 0 0 0 9.464-.795c.191-.152.374-.278.263-.567-.324-.861-.641-1.725-1.005-2.691zm7.536 4.936a8.139 8.139 0 0 0 4.651-1.125 3.717 3.717 0 0 0 1.713-3.863 3.385 3.385 0 0 0-2.685-2.814c-.535-.148-1.087-.24-1.63-.361a9.307 9.307 0 0 1-2.946-.824c-.7-.424-.744-1.064-.136-1.462a2.49 2.49 0 0 1 3.275.862c.161.34.276.426.634.314.895-.277 1.8-.54 2.707-.754.412-.1.441-.26.315-.6a3.3 3.3 0 0 0-1.818-1.926 9.176 9.176 0 0 0-7.6-.091 3.41 3.41 0 0 0-1.729 4.836c.681 1.252 1.946 1.611 3.209 1.926 1.052.262 2.12.462 3.169.735.589.153 1.128.452 1.1 1.173-.023.693-.532.991-1.124 1.181a2.5 2.5 0 0 1-3.339-1.539c-.147-.377-.28-.426-.625-.323-.842.25-1.687.5-2.545.69-.5.109-.519.346-.388.742a4.043 4.043 0 0 0 1.911 2.308 8.119 8.119 0 0 0 3.884.915zm-18.462-13.034c-1.263 0-2.433.036-3.6-.017-.527-.024-.71.169-.834.631-.521 1.945-1.055 3.886-1.62 5.819a5.365 5.365 0 0 1-.633 1.808c-.68-2.444-1.391-4.791-1.969-7.171-.217-.9-.589-1.166-1.48-1.09-1.02.086-2.054.02-3.12.02a2.555 2.555 0 0 0 .059.377c1.315 3.93 2.643 7.855 3.937 11.791.146.444.38.507.771.5 1.206-.015 2.413-.022 3.619 0a.69.69 0 0 0 .806-.58c.4-1.309.875-2.6 1.312-3.894.913-2.698 1.818-5.403 2.755-8.194zm29.9 12.783c1.912 0 1.912 0 2.419-1.836.007-.029.021-.055.029-.083.346-1.246.346-1.246-.919-1.212-1.424.039-1.7-.23-1.708-1.659v-3.86c0-1.405 0-1.416 1.43-1.405.5 0 .92.033 1-.647s.731-1.478.367-1.965c-.247-.332-1.264-.1-1.937-.116a.92.92 0 0 0-.176 0c-.521.083-.74-.086-.7-.655.053-.728-.011-1.463.021-2.193.022-.494-.141-.613-.611-.474-1.011.3-2.027.586-3.05.84-.428.107-.525.327-.523.739.019 3.626-.018 7.253.031 10.879.035 2.544 1.139 3.578 3.707 3.645.215.007.421.002.63.002zm-57.1-17.221c-1.413.379-2.736.743-4.065 1.086-.379.1-.495.293-.494.684q.021 7.371 0 14.741c0 .454.125.615.6.6 1.058-.031 2.121-.059 3.176.008.7.044.806-.213.8-.838-.026-5.148-.015-10.3-.015-15.443zm64.6 4.044c-1.228.333-2.407.668-3.595.97a.56.56 0 0 0-.5.654q.025 5.429 0 10.859c0 .457.121.6.587.586.968-.034 1.939-.044 2.906 0 .56.027.681-.169.678-.693-.021-3.941-.011-7.882-.014-11.823.008-.165-.028-.334-.052-.553zm50.481 6c0-.215.046-.373-.01-.478-.135-.255.35-.752-.277-.79s-.643.4-.64.886c.016 2.25.005 4.5.009 6.75 0 .325-.13.7.472.7.568 0 .51-.313.508-.673-.006-1.227-.011-2.455 0-3.682a4.6 4.6 0 0 1 .408-2.129 2.135 2.135 0 0 1 2.426-1.154c.967.2 1.173.952 1.247 1.779.026.29.029.583.029.875 0 1.461.029 2.923-.012 4.383-.016.562.238.628.68.584.5-.05.295-.429.3-.672a38.631 38.631 0 0 1 .151-5.16 2 2 0 0 1 2.359-1.813c1.117.1 1.568.691 1.575 2.1.007 1.636.01 3.273-.005 4.909 0 .4.027.651.547.652.493 0 .493-.245.49-.6-.012-1.783.022-3.566-.025-5.348a2.5 2.5 0 0 0-3.344-2.526 2.958 2.958 0 0 0-1.844 1.406c-.952-1.805-3.224-2.125-5.034.006zm-9.884 2.889c0 .2-.013.41 0 .613a4.071 4.071 0 0 0 2.6 3.637 3.665 3.665 0 0 0 3.915-1.075 5.28 5.28 0 0 0 .248-5.988 3.646 3.646 0 0 0-5.655-.416 4.509 4.509 0 0 0-1.095 3.234zm-7.068.075a4.436 4.436 0 0 1 .75-2.563 2.311 2.311 0 0 1 4.058.4c.178.414.32.568.792.421.638-.2.258-.577.163-.824-.863-2.24-4.156-2.561-5.774-.577a5.238 5.238 0 0 0-.035 6.142 3.443 3.443 0 0 0 3.363 1.3 3.007 3.007 0 0 0 2.51-2.182c.095-.276.431-.645-.152-.849-.51-.178-.623.055-.761.5a2.217 2.217 0 0 1-1.923 1.7 2.381 2.381 0 0 1-2.367-1.226 4.216 4.216 0 0 1-.614-2.239zm-37.618-11.363c0 1.858 0 1.858 1.753 1.318.028-.009.055-.022.082-.032.74-.263 1.774-.145 2.182-.762.419-.635.076-1.591.133-2.4.046-.656-.05-1.025-.852-.688a15.061 15.061 0 0 1-1.694.468c-1.595.462-1.594.462-1.594 2.101zm35.476 14.573c.055-.47.065-.836-.668-.836-.705 0-.729.311-.712.838.018.51-.069.925.73.909.773-.009.683-.418.66-.906z" class="cls-1"/>
            <path id="Path_2642" d="M1420.094 6100.492c-.174-.791.151-.982.677-1.1a22.733 22.733 0 0 0 2.543-.7c.6-.209.738-.068.733.546-.025 3.246-.01 6.493-.014 9.739 0 .584 0 1.171-.044 1.753a5.316 5.316 0 0 1-3.877 4.9 9.237 9.237 0 0 1-5.887-.083 4.246 4.246 0 0 1-2.59-2.354c-.161-.357-.162-.57.319-.66a13.429 13.429 0 0 0 1.691-.477c.83-.272 1.526-.538 2.143.535a2.132 2.132 0 0 0 2.479.679 2.175 2.175 0 0 0 1.617-1.787 6.294 6.294 0 0 0 .094-2.217 4.3 4.3 0 0 1-3.453 1.788 5.048 5.048 0 0 1-5.292-4.2 7.791 7.791 0 0 1 .547-5.463 5.222 5.222 0 0 1 5.781-2.694c.951.218 1.449.553 2.533 1.795zm-.014 4.43c0-1.566-.59-2.672-1.623-3.029a2.318 2.318 0 0 0-3.131 1.679c-.554 2.086.232 4.02 1.736 4.271.057.01.117.008.175.014 1.763.173 2.839-.935 2.843-2.935z" class="cls-2"/>
            <path id="Path_2643" d="M1401.4 6098.523v1.941c.374.011.425-.273.576-.425a5.374 5.374 0 0 1 6.048-.937 3.727 3.727 0 0 1 1.973 3.4c.08 2.864.042 5.731.069 8.6 0 .383-.118.506-.5.5-1.029-.022-2.06-.035-3.088 0-.5.02-.572-.188-.568-.611.017-1.959.013-3.919 0-5.878a9.877 9.877 0 0 0-.09-1.31c-.16-1.141-.612-1.656-1.5-1.763a2.2 2.2 0 0 0-2.515 1.321 3.9 3.9 0 0 0-.261 1.544c.006 2.018-.011 4.036.013 6.053.005.476-.1.667-.62.645-1-.042-2-.026-3-.006-.408.009-.571-.111-.57-.542q.02-5.484 0-10.968a.539.539 0 0 1 .475-.6c1.158-.312 2.312-.627 3.558-.964z" class="cls-2"/>
            <path id="Path_2644" d="M1336.765 6098.514v2.137a5.178 5.178 0 0 1 4.914-2.012 3.778 3.778 0 0 1 3.679 3.95c.1 2.833.031 5.672.063 8.509.005.474-.213.506-.585.5-.97-.016-1.943-.038-2.911.007-.553.026-.7-.152-.686-.688.031-1.9.016-3.8.009-5.7a13.085 13.085 0 0 0-.065-1.312c-.123-1.176-.59-1.741-1.508-1.861a2.236 2.236 0 0 0-2.56 1.4 4.081 4.081 0 0 0-.21 1.466c.008 2.018-.01 4.036.013 6.053.005.47-.088.672-.616.65-1-.042-2-.031-3 0-.461.013-.6-.138-.6-.6q.025-5.439 0-10.879c0-.347.1-.532.445-.623 1.184-.323 2.361-.653 3.618-.997z" class="cls-2"/>
            <path id="Path_2645" d="M1369.419 6107.025c.364.966.686 1.83 1.015 2.691.111.289-.072.415-.263.567a9.755 9.755 0 0 1-9.464.795 6.74 6.74 0 0 1 2.361-12.373c3.465-.533 6.2.843 7.277 3.661.031.081.069.161.1.244.751 2.288.642 2.491-1.659 3.122-2.062.565-4.117 1.162-6.19 1.683-.675.17-.561.421-.24.79a3.236 3.236 0 0 0 2.97.963 6.116 6.116 0 0 0 4.093-2.143zm-7.7-2.151c1.55-.423 3.095-.852 4.644-1.261.376-.1.444-.26.313-.623a2.488 2.488 0 0 0-2.9-1.535 3 3 0 0 0-2.057 3.419z" class="cls-2"/>
            <path id="Path_2646" d="M1376.955 6111.961a8.119 8.119 0 0 1-3.877-.917 4.043 4.043 0 0 1-1.911-2.308c-.131-.4-.115-.633.388-.742.858-.185 1.7-.44 2.545-.69.345-.1.478-.054.625.323a2.5 2.5 0 0 0 3.339 1.539c.592-.19 1.1-.488 1.124-1.181.025-.721-.514-1.02-1.1-1.173-1.049-.273-2.117-.473-3.169-.735-1.263-.315-2.528-.674-3.209-1.926a3.41 3.41 0 0 1 1.729-4.836 9.176 9.176 0 0 1 7.6.091 3.3 3.3 0 0 1 1.818 1.926c.126.342.1.5-.315.6-.911.214-1.812.477-2.707.754-.358.112-.473.026-.634-.314a2.49 2.49 0 0 0-3.275-.862c-.608.4-.562 1.038.136 1.462a9.307 9.307 0 0 0 2.946.824c.543.121 1.095.213 1.63.361a3.385 3.385 0 0 1 2.685 2.814 3.717 3.717 0 0 1-1.713 3.863 8.139 8.139 0 0 1-4.655 1.127z" class="cls-2"/>
            <path id="Path_2647" d="M1358.493 6098.927c-.937 2.791-1.842 5.5-2.752 8.2-.437 1.3-.912 2.585-1.312 3.894a.69.69 0 0 1-.806.58c-1.206-.026-2.413-.019-3.619 0-.391 0-.625-.058-.771-.5-1.294-3.936-2.622-7.861-3.937-11.791a2.555 2.555 0 0 1-.059-.377c1.066 0 2.1.066 3.12-.02.891-.076 1.263.194 1.48 1.09.578 2.38 1.289 4.727 1.969 7.171a5.365 5.365 0 0 0 .633-1.808c.565-1.933 1.1-3.874 1.62-5.819.124-.462.307-.655.834-.631 1.167.047 2.337.011 3.6.011z" class="cls-2"/>
            <path id="Path_2648" d="M1388.4 6111.71h-.618c-2.568-.067-3.672-1.1-3.707-3.645-.049-3.626-.012-7.253-.031-10.879 0-.412.095-.632.523-.739 1.023-.254 2.039-.54 3.05-.84.47-.139.633-.02.611.474-.032.73.032 1.465-.021 2.193-.042.569.177.738.7.655a.92.92 0 0 1 .176 0c.673.018 1.69-.216 1.937.116.364.487-.285 1.281-.367 1.965s-.5.651-1 .647c-1.43-.011-1.43 0-1.43 1.405v3.86c0 1.429.284 1.7 1.708 1.659 1.265-.034 1.265-.034.919 1.212-.008.028-.022.054-.029.083-.512 1.839-.512 1.839-2.421 1.834z" class="cls-2"/>
            <path id="Path_2649" d="M1331.3 6094.489v.84c0 5.147-.011 10.295.015 15.443 0 .625-.1.882-.8.838-1.055-.067-2.118-.039-3.176-.008-.47.013-.6-.148-.6-.6q.021-7.37 0-14.741c0-.391.115-.586.494-.684 1.332-.345 2.655-.709 4.067-1.088z" class="cls-2"/>
            <path id="Path_2650" d="M1395.9 6098.533c.024.219.06.388.06.556 0 3.941-.007 7.882.014 11.823 0 .524-.118.72-.678.693-.967-.047-1.938-.037-2.906 0-.466.017-.589-.129-.587-.586q.027-5.429 0-10.859a.56.56 0 0 1 .5-.654c1.19-.306 2.369-.64 3.597-.973z" class="cls-2"/>
            <path id="Path_2651" d="M1446.381 6104.538c1.81-2.131 4.082-1.811 5.051 0a2.958 2.958 0 0 1 1.844-1.406 2.5 2.5 0 0 1 3.344 2.526c.047 1.782.013 3.565.025 5.348 0 .354 0 .6-.49.6-.52 0-.551-.249-.547-.652.015-1.636.012-3.273.005-4.909-.007-1.409-.458-2-1.575-2.1a2 2 0 0 0-2.359 1.813 38.631 38.631 0 0 0-.151 5.16c-.01.243.2.622-.3.672-.442.044-.7-.022-.68-.584.041-1.46.015-2.922.012-4.383 0-.292 0-.585-.029-.875-.074-.827-.28-1.58-1.247-1.779a2.135 2.135 0 0 0-2.426 1.154 4.6 4.6 0 0 0-.408 2.129c-.013 1.227-.008 2.455 0 3.682 0 .36.06.676-.508.673-.6 0-.471-.379-.472-.7 0-2.25.007-4.5-.009-6.75 0-.481.005-.924.64-.886s.142.535.277.79c.049.104.003.262.003.477z" class="cls-2"/>
            <path id="Path_2652" d="M1436.5 6107.427a4.509 4.509 0 0 1 1.108-3.229 3.646 3.646 0 0 1 5.655.416 5.28 5.28 0 0 1-.248 5.988 3.665 3.665 0 0 1-3.915 1.075 4.071 4.071 0 0 1-2.6-3.637c-.016-.203 0-.409 0-.613zm6.536-.064a3.788 3.788 0 0 0-.58-2.185 2.518 2.518 0 0 0-4.321-.082 4.637 4.637 0 0 0 .028 4.74 2.5 2.5 0 0 0 4.26-.068 4.108 4.108 0 0 0 .61-2.405z" class="cls-2"/>
            <path id="Path_2653" d="M1429.429 6107.5a4.216 4.216 0 0 0 .624 2.246 2.381 2.381 0 0 0 2.367 1.226 2.217 2.217 0 0 0 1.923-1.7c.138-.446.251-.679.761-.5.583.2.247.573.152.849a3.007 3.007 0 0 1-2.51 2.182 3.443 3.443 0 0 1-3.363-1.3 5.238 5.238 0 0 1 .035-6.142c1.618-1.984 4.911-1.663 5.774.577.095.247.475.626-.163.824-.472.147-.614-.007-.792-.421a2.311 2.311 0 0 0-4.058-.4 4.436 4.436 0 0 0-.75 2.559z" class="cls-2"/>
            <path id="Path_2654" fill="#fea501" d="M1391.811 6096.139c0-1.635 0-1.639 1.6-2.1a15.061 15.061 0 0 0 1.694-.468c.8-.337.9.032.852.688-.057.813.286 1.769-.133 2.4-.408.617-1.442.5-2.182.762-.027.01-.054.023-.082.032-1.749.547-1.749.547-1.749-1.314z"/>
            <path id="Path_2655" d="M1427.287 6110.712c.023.49.113.9-.65.911-.8.016-.712-.4-.73-.909-.017-.527.007-.838.712-.838.733 0 .723.366.668.836z" class="cls-2"/>
            <path id="Path_2656" d="M1420.08 6104.922c0 2-1.077 3.108-2.843 2.935-.058-.006-.118 0-.175-.014-1.5-.251-2.29-2.185-1.736-4.271a2.318 2.318 0 0 1 3.131-1.679c1.033.357 1.625 1.463 1.623 3.029z" class="cls-1"/>
            <path id="Path_2657" d="M1361.719 6104.874a3 3 0 0 1 2.059-3.419 2.488 2.488 0 0 1 2.9 1.535c.131.363.063.523-.313.623-1.551.409-3.096.838-4.646 1.261z" class="cls-1"/>
            <path id="Path_2658" d="M1443.033 6107.363a4.108 4.108 0 0 1-.613 2.405 2.5 2.5 0 0 1-4.26.068 4.637 4.637 0 0 1-.028-4.74 2.518 2.518 0 0 1 4.321.082 3.788 3.788 0 0 1 .58 2.185z" class="cls-1"/>
        </g>
    </g>
</svg>
