<svg xmlns="http://www.w3.org/2000/svg" width="104.742" height="94.882">
    <defs>
        <style>
            .cls-3{fill:#081f3b}.cls-4{fill:#e34}
        </style>
    </defs>
    <g id="Group_1717" data-name="Group 1717" transform="translate(-807.156 -1768.626)">
        <g id="Group_1715" data-name="Group 1715">
            <path id="Path_4198" data-name="Path 4198" d="M910.968 1834.67c-6.481-19.583-.514-36.644-3.6-46.9-2.93-9.736-15.214-28.214-59.736-13.9s-42.264 43.76-38.839 54.406c16.026 49.849 113.614 41.963 102.175 6.392zm0 0" style="fill:#eff4fa"/>
        </g>
        <path id="Path_4199" data-name="Path 4199" d="M895.468 1847.675a4.575 4.575 0 1 1 5.081-4.007 4.581 4.581 0 0 1-5.081 4.007zm.716-6.058a1.525 1.525 0 1 0 1.336 1.693 1.528 1.528 0 0 0-1.336-1.693zm0 0" style="fill:#a4aec0"/>
        <g id="Group_1716" data-name="Group 1716">
            <path id="Path_4200" data-name="Path 4200" class="cls-3" d="M891.183 1813.346a1.021 1.021 0 0 0 1.021-1.021v-6.634a1.021 1.021 0 0 0-1.021-1.022h-9.545a1.021 1.021 0 0 0-1.021 1.022v6.634a1.021 1.021 0 0 0 1.021 1.021zm-8.523-6.634h7.5v4.591h-7.5z"/>
            <path id="Path_4201" data-name="Path 4201" class="cls-4" d="M845.294 1817.212a1.021 1.021 0 0 0 1.022 1.021h44.867a1.022 1.022 0 0 0 0-2.043h-44.867a1.021 1.021 0 0 0-1.022 1.022z"/>
            <path id="Path_4202" data-name="Path 4202" class="cls-4" d="M846.316 1822.426h5.512a1.022 1.022 0 0 0 0-2.044h-5.512a1.022 1.022 0 0 0 0 2.044z"/>
            <path id="Path_4203" data-name="Path 4203" class="cls-4" d="M846.316 1826.359h10.556a1.022 1.022 0 0 0 0-2.044h-10.556a1.022 1.022 0 0 0 0 2.044z"/>
            <path id="Path_4204" data-name="Path 4204" class="cls-3" d="M892.857 1797.3h-48.2a5.267 5.267 0 0 0-5.272 5.251v3.127a1.022 1.022 0 0 0 2.044 0v-3.127a3.222 3.222 0 0 1 3.228-3.208h48.2a3.222 3.222 0 0 1 3.229 3.208v25.889a3.233 3.233 0 0 1-3.229 3.229h-48.2c-.01 0-.019.005-.029.006H824a1.022 1.022 0 0 0 0 2.043h20.648c.011 0 .02-.006.03-.006h48.183a5.278 5.278 0 0 0 5.272-5.272v-25.889a5.267 5.267 0 0 0-5.276-5.251z"/>
            <path id="Path_4205" data-name="Path 4205" class="cls-3" d="m828.127 1826.359 12.076-.018a.976.976 0 0 0 .2.02 1.022 1.022 0 0 0 1.022-1.022v-13.016a1.022 1.022 0 0 0-2.044 0v4.631h-6.624a1.022 1.022 0 0 0 0 2.044h6.624v5.317h-11.254a1.022 1.022 0 1 0 0 2.044z"/>
        </g>
    </g>
</svg>
