<svg xmlns="http://www.w3.org/2000/svg" width="117.755" height="33.431" viewBox="0 0 117.755 33.431">
    <defs>
        <style>
            .cls-1{fill:#fff}.cls-2{fill:#0187ba}.cls-3{fill:#020202}
        </style>
    </defs>
    <g id="Group_977" transform="translate(-632.832 -6088.089)">
        <g id="Group_976">
            <path id="Path_2422" d="M672.094 6088.089H662.82a.143.143 0 0 0-.163.125 1.65 1.65 0 0 1-.059.161q-3.674 10.069-7.346 20.139l-1.266 3.473a1.658 1.658 0 0 1-1.014 1.028c-.064.024-.126.054-.229.1.071 0 .09.007.109.007h8.936a1.429 1.429 0 0 0 .285-.026 1.708 1.708 0 0 0 1.343-1.2q4.167-11.443 8.343-22.886zm4.885 12.684a.842.842 0 0 1 .2.272l3.483 6.066q1.656 2.885 3.307 5.772a.415.415 0 0 0 .426.242c.708-.014 1.418-.006 2.126-.006h.891c.2 0 .2-.005.2-.21v-15.266c0-.253.023-.246-.252-.245h-1.954c-.366 0-.313-.04-.313.325v11.864a.981.981 0 0 1-.233-.294q-3.371-5.818-6.733-11.64a.462.462 0 0 0-.472-.263c-.948.012-1.9 0-2.845 0-.314 0-.314 0-.314.323v15.179c0 .216.005.218.222.219h1.926c.379 0 .333.048.333-.338v-11.65zm47.712 3.984v-7.945a1.687 1.687 0 0 1 0-.2c.015-.14-.045-.18-.181-.179q-1.149.007-2.3 0c-.123 0-.177.037-.165.163.006.066 0 .134 0 .2v4.044c0 .314 0 .324-.327.285-.4-.049-.8-.064-1.2-.08a9.177 9.177 0 0 0-2.315.147 5.24 5.24 0 0 0-3.92 3.121 7.5 7.5 0 0 0-.51 4.185 5.371 5.371 0 0 0 3.776 4.58 8.264 8.264 0 0 0 2.855.411 30.856 30.856 0 0 0 4.028-.376c.258-.037.258-.042.258-.325zm23.22 13.652a.258.258 0 0 0 .174-.031c.742-.329 1.481-.669 2.231-.979a.378.378 0 0 0 .271-.422q-.01-7.718-.005-15.436v-.2c0-.1-.047-.136-.139-.137-.057 0-.115 0-.172-.008-1.033-.051-2.066-.11-3.1-.151a11.611 11.611 0 0 0-3.589.319 5.035 5.035 0 0 0-3.4 2.807 6.5 6.5 0 0 0-.555 2.1 7.806 7.806 0 0 0 .425 3.639 4.96 4.96 0 0 0 2.712 2.924 7.589 7.589 0 0 0 1.621.474 9.942 9.942 0 0 0 2.918.068l.609-.062zm-57.31-14.874c.513-.087.994-.17 1.475-.25a14.932 14.932 0 0 1 3.863-.194 3.317 3.317 0 0 1 1 .221 1.076 1.076 0 0 1 .653.716 5.6 5.6 0 0 1 .134 1.538c0 .1-.062.1-.133.1-.2-.007-.4-.011-.6-.022a18.988 18.988 0 0 0-3.414.082 5.7 5.7 0 0 0-2.2.68 2.962 2.962 0 0 0-1.419 1.833 4.912 4.912 0 0 0-.1 1.935 3.142 3.142 0 0 0 2.21 2.8 8.25 8.25 0 0 0 2.517.379c1.111.027 2.222 0 3.332-.065.746-.041 1.491-.1 2.233-.19.228-.028.229-.034.229-.251v-7.949a5.745 5.745 0 0 0-.116-1.14 2.982 2.982 0 0 0-2.095-2.4 7.386 7.386 0 0 0-1.975-.337 21.93 21.93 0 0 0-3.273.06 20.873 20.873 0 0 0-2.156.327c-.109.022-.166.049-.165.175l-.001 1.952zm46.8 9.541v-.235-7.806a6.44 6.44 0 0 0-.063-.972 3.568 3.568 0 0 0-.622-1.645 3.226 3.226 0 0 0-1.888-1.169 10.21 10.21 0 0 0-2.278-.253 20.746 20.746 0 0 0-4.656.389c-.271.054-.271.056-.271.317v1.578c0 .082-.028.171.033.245l1.786-.291a14.135 14.135 0 0 1 3.522-.142 3.432 3.432 0 0 1 .952.2 1.12 1.12 0 0 1 .727.823 6.367 6.367 0 0 1 .11 1.426c0 .1-.046.131-.139.126-.2-.01-.4-.012-.6-.023a19.225 19.225 0 0 0-3.386.079 6.142 6.142 0 0 0-1.929.523 3.032 3.032 0 0 0-1.779 2.248 5.108 5.108 0 0 0 .072 2.245 2.989 2.989 0 0 0 1.757 2.1 4.526 4.526 0 0 0 .675.239 8.942 8.942 0 0 0 2.188.276c1.39.027 2.778-.02 4.164-.121.534-.041 1.067-.103 1.624-.157zm-84.22-16.252a1.573 1.573 0 0 0-1.5 1.086q-1.56 4.266-3.116 8.534a.587.587 0 0 0 .008.44c.313.842.618 1.686.925 2.53.282.772.553 1.548.847 2.315a1.574 1.574 0 0 0 2.467.678 1.788 1.788 0 0 0 .551-.823q1.539-4.227 3.087-8.453a.587.587 0 0 0-.007-.438c-.209-.554-.409-1.111-.613-1.668-.383-1.05-.764-2.1-1.151-3.149a1.561 1.561 0 0 0-1.497-1.052zm58.294 6.645v-1.98c0-.13-.064-.16-.17-.177a24.015 24.015 0 0 0-3.773-.325 7.369 7.369 0 0 0-2.676.438 3.156 3.156 0 0 0-2.209 2.865 2.907 2.907 0 0 0 1.453 2.907 5.233 5.233 0 0 0 .586.3 9.511 9.511 0 0 0 1.606.522c.6.146 1.223.224 1.82.4a2.9 2.9 0 0 1 1.006.471 1.1 1.1 0 0 1-.037 1.812 2.314 2.314 0 0 1-.777.357 6.957 6.957 0 0 1-2.249.206 15.006 15.006 0 0 1-2.13-.306c-.4-.083-.8-.162-1.211-.244-.006.07-.013.117-.013.164v1.807c0 .223 0 .222.238.264.546.1 1.093.191 1.644.258a14.1 14.1 0 0 0 3.809.031 5.812 5.812 0 0 0 2.21-.752 3.274 3.274 0 0 0 1.534-2.061 4.037 4.037 0 0 0 .089-1.225 2.781 2.781 0 0 0-1.173-2.168 4.34 4.34 0 0 0-.795-.455 9.178 9.178 0 0 0-1.579-.512c-.724-.178-1.461-.3-2.175-.519a2.926 2.926 0 0 1-.832-.378.922.922 0 0 1-.4-1 1.021 1.021 0 0 1 .522-.687 2.745 2.745 0 0 1 1.056-.343 10.509 10.509 0 0 1 2.721.027c.63.076 1.248.194 1.906.303z" class="cls-1"/>
            <path id="Path_2423" d="M632.832 6121.45c.105-.057.12-.169.155-.265l4.841-13.276 3.74-10.261a1.7 1.7 0 0 1 1.163-1.132 2.075 2.075 0 0 1 .6-.064h8.846c.005.056-.038.067-.07.077a1.715 1.715 0 0 0-1.153 1.146q-.827 2.291-1.667 4.578l-6.891 18.9c-.041.111-.121.22-.077.352h-9.256c-.077-.005-.178.058-.231-.055z" class="cls-2"/>
            <path id="Path_2424" d="M672.094 6088.089l-.335.925q-4.173 11.442-8.343 22.886a1.708 1.708 0 0 1-1.343 1.2 1.429 1.429 0 0 1-.285.026h-8.936c-.019 0-.038 0-.109-.007.1-.045.165-.075.229-.1a1.658 1.658 0 0 0 1.014-1.028q.634-1.735 1.266-3.473l7.346-20.139a1.65 1.65 0 0 0 .059-.161.143.143 0 0 1 .163-.125H672.094z" class="cls-2"/>
            <path id="Path_2425" d="M676.979 6100.773V6112.781c0 .386.046.336-.333.338h-1.926c-.217 0-.219 0-.222-.219v-15.179c0-.323 0-.323.314-.323.948 0 1.9.007 2.845 0a.462.462 0 0 1 .472.263q3.359 5.825 6.733 11.64a.981.981 0 0 0 .233.294v-.3-11.564c0-.365-.053-.324.313-.325h1.954c.275 0 .252-.008.252.245v15.266c-.005.2-.005.208-.2.21h-.891c-.708 0-1.418-.008-2.126.006a.415.415 0 0 1-.426-.242q-1.646-2.89-3.307-5.772l-3.483-6.066a.842.842 0 0 0-.202-.28z" class="cls-3"/>
            <path id="Path_2426" d="M724.691 6104.757v8.032c0 .283 0 .288-.258.325a30.856 30.856 0 0 1-4.028.376 8.264 8.264 0 0 1-2.855-.411 5.371 5.371 0 0 1-3.776-4.58 7.5 7.5 0 0 1 .51-4.185 5.24 5.24 0 0 1 3.92-3.121 9.177 9.177 0 0 1 2.315-.147c.4.016.8.031 1.2.08.325.039.327.029.327-.285v-4.041c0-.067.005-.135 0-.2-.012-.126.042-.164.165-.163q1.149.006 2.3 0c.136 0 .2.039.181.179a1.687 1.687 0 0 0 0 .2zm-2.642 2.544v-2.639-1.205c0-.1 0-.181-.139-.2a8.769 8.769 0 0 0-2.688-.059 2.971 2.971 0 0 0-2.5 2.088 5.994 5.994 0 0 0-.15 3.31 3.5 3.5 0 0 0 3.3 2.822 11.809 11.809 0 0 0 1.949-.055c.227-.019.228-.024.228-.246v-3.817z" class="cls-3"/>
            <path id="Path_2427" d="M747.911 6118.409v-5.1l-.609.062a9.942 9.942 0 0 1-2.918-.068 7.589 7.589 0 0 1-1.621-.474 4.96 4.96 0 0 1-2.712-2.924 7.806 7.806 0 0 1-.425-3.639 6.5 6.5 0 0 1 .555-2.1 5.035 5.035 0 0 1 3.4-2.807 11.611 11.611 0 0 1 3.589-.319c1.034.041 2.067.1 3.1.151.057 0 .115.008.172.008.092 0 .143.039.139.137v.2q0 7.718.005 15.436a.378.378 0 0 1-.271.422c-.75.31-1.489.65-2.231.979a.258.258 0 0 1-.173.036zm.02-11.2v-1.377-2.437c0-.145-.021-.224-.193-.233a11.69 11.69 0 0 0-2.52.029 3.185 3.185 0 0 0-2.77 2.542 6.2 6.2 0 0 0 .08 3.23 3.037 3.037 0 0 0 2.281 2.232 8.493 8.493 0 0 0 3.024.03c.075-.007.093-.055.094-.117s0-.134 0-.2z" class="cls-3"/>
            <path id="Path_2428" d="M690.6 6103.535v-1.953c0-.126.056-.153.165-.175a20.873 20.873 0 0 1 2.156-.327 21.93 21.93 0 0 1 3.273-.06 7.386 7.386 0 0 1 1.975.337 2.982 2.982 0 0 1 2.095 2.4 5.745 5.745 0 0 1 .116 1.14v7.949c0 .217 0 .223-.229.251-.742.09-1.487.149-2.233.19-1.11.061-2.221.092-3.332.065a8.25 8.25 0 0 1-2.517-.379 3.142 3.142 0 0 1-2.21-2.8 4.912 4.912 0 0 1 .1-1.935 2.962 2.962 0 0 1 1.419-1.833 5.7 5.7 0 0 1 2.2-.68 18.988 18.988 0 0 1 3.414-.082c.2.011.4.015.6.022.071 0 .134 0 .133-.1a5.6 5.6 0 0 0-.134-1.538 1.076 1.076 0 0 0-.653-.716 3.317 3.317 0 0 0-1-.221 14.932 14.932 0 0 0-3.863.194l-1.475.251zm7.29 5.962v-1.751c0-.143-.033-.2-.189-.206a27.212 27.212 0 0 0-2.729-.028 4.972 4.972 0 0 0-1.518.284 1.576 1.576 0 0 0-1.1 1.405 1.8 1.8 0 0 0 1.3 2.088 4.006 4.006 0 0 0 .784.169 17.422 17.422 0 0 0 3.243-.022c.205-.014.207-.024.208-.246.003-.564.002-1.129.002-1.69z" class="cls-3"/>
            <path id="Path_2429" d="M737.4 6113.076c-.559.054-1.092.116-1.626.155-1.386.1-2.774.148-4.164.121a8.942 8.942 0 0 1-2.188-.276 4.526 4.526 0 0 1-.675-.239 2.989 2.989 0 0 1-1.757-2.1 5.108 5.108 0 0 1-.072-2.245 3.032 3.032 0 0 1 1.779-2.248 6.142 6.142 0 0 1 1.929-.523 19.225 19.225 0 0 1 3.386-.079c.2.011.4.013.6.023.093 0 .14-.021.139-.126a6.367 6.367 0 0 0-.11-1.426 1.12 1.12 0 0 0-.727-.823 3.432 3.432 0 0 0-.952-.2 14.135 14.135 0 0 0-3.522.142l-1.786.291c-.061-.074-.033-.163-.033-.245v-1.578c0-.261 0-.263.271-.317a20.746 20.746 0 0 1 4.656-.389 10.21 10.21 0 0 1 2.278.253 3.226 3.226 0 0 1 1.888 1.169 3.568 3.568 0 0 1 .622 1.645 6.44 6.44 0 0 1 .063.972v7.806zm-2.486-3.592v-1.719c0-.207 0-.21-.2-.221a24.706 24.706 0 0 0-2.7-.033 5.1 5.1 0 0 0-1.517.277 1.582 1.582 0 0 0-1.131 1.44 1.789 1.789 0 0 0 1.3 2.058 3.658 3.658 0 0 0 .5.123 15.431 15.431 0 0 0 3.577.025c.143-.009.167-.076.166-.2.004-.584.007-1.167.007-1.75z" class="cls-3"/>
            <path id="Path_2430" d="M653.182 6096.824a1.561 1.561 0 0 1 1.495 1.052c.387 1.048.768 2.1 1.151 3.149.2.557.4 1.114.613 1.668a.587.587 0 0 1 .007.438q-1.55 4.226-3.087 8.453a1.788 1.788 0 0 1-.551.823 1.574 1.574 0 0 1-2.467-.678c-.294-.767-.565-1.543-.847-2.315-.307-.844-.612-1.688-.925-2.53a.587.587 0 0 1-.008-.44q1.563-4.266 3.116-8.534a1.573 1.573 0 0 1 1.503-1.086z" class="cls-2"/>
            <path id="Path_2431" d="M711.476 6103.469c-.658-.109-1.279-.227-1.906-.3a10.509 10.509 0 0 0-2.721-.027 2.745 2.745 0 0 0-1.056.343 1.021 1.021 0 0 0-.522.687.922.922 0 0 0 .4 1 2.926 2.926 0 0 0 .832.378c.714.22 1.451.341 2.175.519a9.178 9.178 0 0 1 1.579.512 4.34 4.34 0 0 1 .795.455 2.781 2.781 0 0 1 1.173 2.168 4.037 4.037 0 0 1-.089 1.225 3.274 3.274 0 0 1-1.534 2.061 5.812 5.812 0 0 1-2.21.752 14.1 14.1 0 0 1-3.809-.031c-.551-.067-1.1-.162-1.644-.258-.235-.042-.237-.041-.238-.264v-1.807c0-.047.007-.094.013-.164.41.082.811.161 1.211.244a15.006 15.006 0 0 0 2.13.306 6.957 6.957 0 0 0 2.249-.206 2.314 2.314 0 0 0 .777-.357 1.1 1.1 0 0 0 .037-1.812 2.9 2.9 0 0 0-1.006-.471c-.6-.178-1.216-.256-1.82-.4a9.511 9.511 0 0 1-1.606-.522 5.233 5.233 0 0 1-.586-.3 2.907 2.907 0 0 1-1.453-2.907 3.156 3.156 0 0 1 2.209-2.865 7.369 7.369 0 0 1 2.676-.438 24.015 24.015 0 0 1 3.773.325c.106.017.172.047.17.177-.002.646.001 1.295.001 1.977z" class="cls-3"/>
            <path id="Path_2432" d="M722.049 6107.3v3.816c0 .222 0 .227-.228.246a11.809 11.809 0 0 1-1.949.055 3.5 3.5 0 0 1-3.3-2.822 5.994 5.994 0 0 1 .15-3.31 2.971 2.971 0 0 1 2.5-2.088 8.769 8.769 0 0 1 2.688.059c.137.019.139.1.139.2v1.205z" class="cls-1"/>
            <path id="Path_2433" d="M747.931 6107.214V6111.114c0 .067-.019.11-.094.117a8.493 8.493 0 0 1-3.024-.03 3.037 3.037 0 0 1-2.281-2.232 6.2 6.2 0 0 1-.08-3.23 3.185 3.185 0 0 1 2.77-2.542 11.69 11.69 0 0 1 2.52-.029c.172.009.193.088.193.233-.006.812 0 1.625 0 2.437z" class="cls-1"/>
            <path id="Path_2434" d="M697.891 6109.5v1.693c0 .222 0 .232-.208.246a17.422 17.422 0 0 1-3.243.022 4.006 4.006 0 0 1-.784-.169 1.8 1.8 0 0 1-1.3-2.088 1.576 1.576 0 0 1 1.1-1.405 4.972 4.972 0 0 1 1.518-.284 27.212 27.212 0 0 1 2.729.028c.156.007.19.063.189.206-.005.581-.001 1.164-.001 1.751z" class="cls-1"/>
            <path id="Path_2435" d="M734.916 6109.484v1.748c0 .126-.023.193-.166.2a15.431 15.431 0 0 1-3.577-.025 3.658 3.658 0 0 1-.5-.123 1.789 1.789 0 0 1-1.3-2.058 1.582 1.582 0 0 1 1.131-1.44 5.1 5.1 0 0 1 1.517-.277 24.706 24.706 0 0 1 2.7.033c.192.011.2.014.2.221-.004.575-.005 1.148-.005 1.721z" class="cls-1"/>
        </g>
    </g>
</svg>
