<?xml version="1.0" encoding="UTF-8"?> <svg xmlns="http://www.w3.org/2000/svg" viewBox="0 0 502.38 138.28"><defs><style>.cls-1{fill:#16223a;}.cls-2{fill:#e73645;}</style></defs><g id="Layer_2" data-name="Layer 2"><g id="Layer_1-2" data-name="Layer 1"><path class="cls-1" d="M120.17,52.44a6.37,6.37,0,0,1,2.31-5.25,8.65,8.65,0,0,1,5.67-1.88,6.5,6.5,0,0,1,7,7.13v8.35a33.69,33.69,0,0,1,3.56-7.33A21.58,21.58,0,0,1,144,47.94a23.88,23.88,0,0,1,7.28-3.49,34.48,34.48,0,0,1,9.61-1.21,7.21,7.21,0,0,1,5.59,2.07,6.45,6.45,0,0,1,1.92,4.5,6.35,6.35,0,0,1-1.88,4.36c-1.25,1.35-3.18,2-5.83,2a27.68,27.68,0,0,0-10.82,2,21.45,21.45,0,0,0-8,5.78,25.79,25.79,0,0,0-5,9.14,39.41,39.41,0,0,0-1.74,12.16v46.05a6,6,0,0,1-2.38,5.2,8.85,8.85,0,0,1-5.32,1.74,8.44,8.44,0,0,1-2.7-.44,6.66,6.66,0,0,1-2.36-1.24,6.23,6.23,0,0,1-1.64-2.16,7.52,7.52,0,0,1-.61-3.1Z"></path><path class="cls-1" d="M54.27,138.28A54.29,54.29,0,1,1,108.55,84,54.34,54.34,0,0,1,54.27,138.28Zm0-93.78A39.49,39.49,0,1,0,93.75,84,39.55,39.55,0,0,0,54.27,44.5Z"></path><path class="cls-1" d="M230.54,29.71a54.12,54.12,0,0,0-39.28,16.86v-39a7.7,7.7,0,0,0-.65-3.29,7.49,7.49,0,0,0-1.69-2.34,6.82,6.82,0,0,0-2.34-1.4A8,8,0,0,0,183.86,0a8.39,8.39,0,0,0-5.21,1.89,6.71,6.71,0,0,0-2.4,5.63V126.09c0,2.62.78,4.56,2.31,5.76a7.9,7.9,0,0,0,5,1.84,8.34,8.34,0,0,0,5.3-1.91,6.85,6.85,0,0,0,2.38-5.69v-4.68a54.27,54.27,0,1,0,39.28-91.7Zm0,93.77a39.55,39.55,0,0,1-39.28-35.41V79.89a39.49,39.49,0,1,1,39.28,43.59Z"></path><path class="cls-1" d="M477.38,97.06l-3.27-4L466.74,84,457,96l31.87,39.28c1.66,2,3.47,3,5.41,3a7.91,7.91,0,0,0,5.06-1.75,8.26,8.26,0,0,0,2.9-4.84,6.9,6.9,0,0,0-1.73-5.92Z"></path><path class="cls-1" d="M502.24,36.47a8.35,8.35,0,0,0-2.88-4.74A7.37,7.37,0,0,0,494.27,30a7.24,7.24,0,0,0-2.78.76,7.82,7.82,0,0,0-2.59,2.12L457,72,466.74,84l33.77-41.62A6.72,6.72,0,0,0,502.24,36.47Z"></path><path class="cls-2" d="M447.21,72,415.33,32.86a7.92,7.92,0,0,0-2.59-2.12A7.2,7.2,0,0,0,410,30a7.54,7.54,0,0,0-2.72.39,8,8,0,0,0-2.41,1.36A8.35,8.35,0,0,0,402,36.47a6.7,6.7,0,0,0,1.7,5.88L437.49,84l-7.39,9.09-3.27,4L403.7,125.77a6.83,6.83,0,0,0-1.71,5.92,8.22,8.22,0,0,0,2.87,4.84,8,8,0,0,0,5.07,1.75c1.94,0,3.75-1,5.41-3L447.21,96,457,84Z"></path><path class="cls-1" d="M347.06,123.48A39.53,39.53,0,0,1,307.58,84h93.74a54.45,54.45,0,1,0-7.78,27.9H375A39.33,39.33,0,0,1,347.06,123.48Zm0-79a39.54,39.54,0,0,1,36.65,24.84H310.42A39.52,39.52,0,0,1,347.06,44.5Z"></path></g></g></svg> 