<?xml version="1.0" encoding="UTF-8"?> <svg xmlns="http://www.w3.org/2000/svg" viewBox="0 0 109.4 40.29"><defs><style>.cls-1{isolation:isolate;}.cls-2{mix-blend-mode:darken;}.cls-3{fill:#154876;}.cls-4{fill:#00386c;}</style></defs><g class="cls-1"><g id="Layer_2" data-name="Layer 2"><g id="Layer_1-2" data-name="Layer 1"><g class="cls-2"><path class="cls-3" d="M51.88,40.29c-.25-2.65-1.31-5.1-2-7.65-.6-2.39-1.28-4.76-2-7.11-.27-.88-.24-1.19.82-1.2,3.44,0,3.45-.08,4.22,3.25.57,2.45,1.09,4.9,1.69,7.59,1-3.36,2-6.49,2.73-9.67.37-1.53,1.36-1.07,2.25-1.14s1.53-.05,1.81,1.12c.73,3.06,1.65,6.07,2.59,9.44.52-2.14,1-4,1.43-5.86.15-.62.24-1.25.39-1.88.66-2.9.67-2.86,3.63-2.87,1,0,1.27.19,1,1.23C69.2,29.69,68,33.86,66.87,38a4.76,4.76,0,0,0-.46,2.26H62c-.6-3.27-1.91-6.32-2.81-9.77-.22.76-.33,1.23-.49,1.7-.93,2.67-1.41,5.49-2.63,8.07Z"></path><path class="cls-3" d="M.89,36.16c.54,0,1.08-.08,1.61-.08H42.92c2.94,0,3.12.19,2.76,3.11a7.37,7.37,0,0,1-.32,1.11H0V36.44l.61-.23C.73,36.35.82,36.3.89,36.16Z"></path><path class="cls-3" d="M95.46,40a19.19,19.19,0,0,1-4.15,0L91,39.71c-1.4-2-2.81-4-4.4-6.28l-.31,6.86H81.83l.06-.31s.09-.07.08-.09a1.18,1.18,0,0,0-.11-.19V25.47s.1-.06.1-.07a1.8,1.8,0,0,0-.08-.21C84.12,24,86.57,24.1,89,24.14a10,10,0,0,1,3.61.68,4.49,4.49,0,0,1,3.11,4.24,4,4,0,0,1-3.33,3.67c-1.42.35-1,.79-.42,1.55,1.34,1.77,2.62,3.57,3.92,5.35ZM86.38,29.1c0,.79,0,1.58,0,2.37,0,.51.11.8.7.89A3.3,3.3,0,0,0,90.9,28c-.44-1.34-1.9-2-3.69-1.7-1.48.25-.6,1.39-.82,2.12A2.54,2.54,0,0,0,86.38,29.1Z"></path><path class="cls-3" d="M23.12,0l15,6.76c.57.26,1.13.56,1.7.83-.42.64-1.07.4-1.63.4H6.9c-.53,0-1.1.17-1.56-.25L21.44.63c.38-.17.86-.2,1.09-.63Z"></path><path class="cls-3" d="M109.4,21a5.64,5.64,0,0,0-1.47-.07c-2.45.55-3.79-.55-4.69-2.76a20.08,20.08,0,0,0-2.82-4.59c0,2-.06,4,0,5.94,0,1-.16,1.48-1.35,1.45-2.77-.07-2.77,0-2.77-2.8,0-3.79.07-7.6,0-11.39,0-1.48.46-2,1.85-1.78.59.07,1.18,0,1.77.06v6.4c0,.5.12.51.39.12.5.45.56-.13.69-.34,1-1.62,2.07-3.23,3-4.89A1.71,1.71,0,0,1,106,5.31a21.46,21.46,0,0,0,2.92,0c-1.45,2.12-2.76,4.11-4.15,6.05a1.48,1.48,0,0,0,0,1.94c1.37,2.1,2.65,4.26,4,6.37.18.29.22.78.74.75Z"></path><path class="cls-3" d="M99,39.7q-.19-7.41,0-14.82s.11-.05.11-.07,0-.14-.08-.22c.24-.49.69-.25,1-.25,2.7,0,5.41,0,8.11,0,.28,0,.7-.25.85.26-.49.62,0,1.47-.54,2.08-1.33,0-2.66.08-4,.07-.62,0-.94.19-.88.84v.15c-.2,3.16-.19,3.12,3,3.18.69,0,1.86-.65,1.86,1,0,1.1-.27,1.57-1.39,1.37a1.41,1.41,0,0,0-.29,0c-3.28,0-3.24,0-3.2,3.3,0,1,.39,1.09,1.23,1.12,1.39,0,2.81-.32,4.19.2h-4.93v.28h5V39.7c-.67.21-1.62-.54-2,.59H99l0-.31s.1-.08.09-.09A1.27,1.27,0,0,0,99,39.7Z"></path><path class="cls-3" d="M73.23,40.29c0-4.88,0-9.77,0-14.65,0-1,.21-1.35,1.28-1.34,3.47,0,3.47,0,3.47,3.41Q78,34,78,40.29Z"></path><path class="cls-4" d="M107,40.29c.4-1.13,1.35-.38,2-.59l-.25.59Z"></path><path class="cls-3" d="M79.56,20.43q0-7.32-.08-14.63c0-.57.2-.72.75-.78,1.87-.2,3.3.08,4.33,2a46.35,46.35,0,0,0,5,7.15V5.63l.3-.25c3-.16,3-.16,3,2.86,0,3.7,0,7.39,0,11.09,0,.54.49,1.53-.46,1.57s-2.27.65-3.1-.63c-1.91-3-3.86-5.95-5.79-8.92L83,10.57c0,3.22-.07,6.05,0,8.88,0,1.21-.28,1.76-1.53,1.51-.63-.12-1.34.33-1.91-.25h2.75v-.28Z"></path><path class="cls-3" d="M48.64,19.85c0-4.43,0-8.87-.08-13.3a1,1,0,0,1,.86-1.14A15.18,15.18,0,0,1,57,5.16c1.62.41,3.18,1.11,3.51,3,.4,2.3-.13,3.06-2.62,4.43.58.35,1.16.64,1.68,1a3.74,3.74,0,0,1-.17,6.33,11.82,11.82,0,0,1-10.74.22.73.73,0,0,0,.09-.09A1.27,1.27,0,0,0,48.64,19.85ZM52.44,8a5.07,5.07,0,0,0,0,3.54c.08.89.8.66,1.21.51s.93-.25,1.4-.39A2.43,2.43,0,0,0,56.45,8c-.75-1.17-2-1.15-3.17-1.12C52.52,6.91,52.46,7.44,52.44,8Zm0,10.65c1.3,1.32,2.54.37,3.7-.21s1.09-1.56,1-2.57a2.38,2.38,0,0,0-2.25-2.16,18.4,18.4,0,0,0-2.35-.08A8.76,8.76,0,0,0,52.45,18.66Z"></path><path class="cls-3" d="M72.33,17.49a11.2,11.2,0,0,1-1.92,0c-2.25-.33-3.92.12-4.18,2.77-.08.87-.8.69-1.36.7-2.54,0-2.55,0-1.72-2.28,1.47-4.12,3-8.22,4.43-12.35a1.33,1.33,0,0,1,1.55-1c3.07.07,3.07,0,4.1,2.9C74.62,12.1,76,16,77.41,19.87c.37,1,.08.95-.8,1.15-3.08.7-3.69-1.36-4.28-3.53l.07-.13ZM69.85,8.64l-2.06,6.71h4Z"></path><path class="cls-3" d="M42.7,11.82c-.29,0-.59.08-.88.09H4.13c-.29,0-.58-.06-.88-.09l-.41-.23c-.65-1.88-.34-2.4,1.49-2.4H41.57c1.84,0,2.12.47,1.49,2.38Z"></path><path class="cls-3" d="M42.69,34.66a8.66,8.66,0,0,1-1,.11H4.28c-.34,0-.68-.07-1-.1l-.46-.28C2.25,32.47,2.54,32,4.43,32H41.48c1.87,0,2.16.44,1.62,2.36Z"></path><path class="cls-3" d="M30.24,22.13c0,2.52,0,5,0,7.54,0,1.25-.48,1.66-1.66,1.64-4.09,0-3.63.35-3.63-3.5,0-4.38,0-8.77,0-13.16,0-1.06.25-1.55,1.39-1.38a5.83,5.83,0,0,0,1.77,0c2.11-.36,2.14-.35,2.14,1.79Z"></path><path class="cls-3" d="M39.69,22.2c0,2.51,0,5,0,7.54,0,1.16-.46,1.58-1.58,1.57-4.35,0-3.66.27-3.69-3.58,0-4.33,0-8.67,0-13,0-1,.07-1.73,1.43-1.47a4,4,0,0,0,2-.2c1.28-.42,1.82.08,1.83,1.46C39.7,17.07,39.69,19.63,39.69,22.2Z"></path><path class="cls-3" d="M11.26,13.63c0,5.46.22,10.93,0,16.38-.08,2.17-2.19.77-3.33,1.07-.75.2-1.77.3-1.77-1.06q0-8.2.07-16.4s.11,0,.11-.06a.8.8,0,0,0,0-.21,5.19,5.19,0,0,1,4.9,0s-.09.08-.08.09A1.33,1.33,0,0,0,11.26,13.63Z"></path><path class="cls-3" d="M15.71,30.51a61.92,61.92,0,0,1-.12-7.08c0-3.05,0-6.11,0-9.17,0-1.06.42-1.6,1.49-1.47s2.36-.41,3.42.38l.24.45v16.6l-.1.07a1.72,1.72,0,0,0,.07.21.56.56,0,0,1-.54.55c-.11-.14-.2-.12-.28,0H16.59a.54.54,0,0,0-.65-.21l0,0C15.88,30.77,15.8,30.64,15.71,30.51Z"></path><path class="cls-4" d="M5.34,7.74c.46.42,1,.25,1.56.25H38.14c.56,0,1.21.24,1.63-.4.25.5.85.28,1.44.65H4.37Z"></path><path class="cls-4" d="M100.3,11.61c-.27.39-.4.38-.39-.12V5.09l.3,0a.21.21,0,0,0,.12.19A49.05,49.05,0,0,1,100.3,11.61Z"></path><path class="cls-4" d="M109.05,38.21h-5v-.28H109Z"></path><path class="cls-4" d="M79.56,20.43h2.77v.28H79.59A.24.24,0,0,1,79.56,20.43Z"></path><path class="cls-4" d="M108.5,26.68c.51-.61,0-1.46.54-2.08C108.8,25.28,109.83,26.29,108.5,26.68Z"></path><path class="cls-4" d="M15.94,30.87a.54.54,0,0,1,.65.21C16.34,31.13,16.08,31.16,15.94,30.87Z"></path><path class="cls-4" d="M95.46,40l.42-.38L96,40Z"></path><path class="cls-4" d="M48.64,19.85a1.27,1.27,0,0,1,.13.19.73.73,0,0,1-.09.09Z"></path><path class="cls-4" d="M20.72,13.62l-.24-.45A.4.4,0,0,1,20.72,13.62Z"></path><path class="cls-4" d="M11.26,13.63a1.33,1.33,0,0,1-.14-.19s.05-.06.08-.09Z"></path><path class="cls-4" d="M6.3,13.35a.8.8,0,0,1,0,.21s-.07,0-.11.06Z"></path><path class="cls-4" d="M42.7,11.82l.36-.25A.31.31,0,0,1,42.7,11.82Z"></path><path class="cls-4" d="M99.05,24.59c0,.08.06.15.08.22s-.07.05-.11.07Z"></path><path class="cls-4" d="M81.88,25.19a1.8,1.8,0,0,1,.08.21s-.07.05-.1.07A.24.24,0,0,1,81.88,25.19Z"></path><path class="cls-4" d="M2.84,11.59l.41.23Z"></path><path class="cls-4" d="M20.69,30.5a1.72,1.72,0,0,1-.07-.21l.1-.07A.24.24,0,0,1,20.69,30.5Z"></path><path class="cls-4" d="M15.71,30.51c.09.13.17.26.26.38A.33.33,0,0,1,15.71,30.51Z"></path><path class="cls-4" d="M19.87,31.08c.08-.15.17-.17.28,0l-.14.06Z"></path><path class="cls-4" d="M89.82,5.38l-.3.25C89.48,5.38,89.63,5.35,89.82,5.38Z"></path><path class="cls-4" d="M2.8,34.39l.46.28A.46.46,0,0,1,2.8,34.39Z"></path><path class="cls-4" d="M42.69,34.66l.41-.27Z"></path><path class="cls-4" d="M.89,36.16c-.07.14-.16.19-.28.05Z"></path><path class="cls-3" d="M100.33,5.31a.21.21,0,0,1-.12-.19C100.35,5.12,100.47,5.14,100.33,5.31Z"></path><path class="cls-4" d="M81.86,39.7a1.18,1.18,0,0,1,.11.19s0,.06-.08.09A.24.24,0,0,1,81.86,39.7Z"></path><path class="cls-4" d="M91,39.71l.33.29C91.09,40,91,39.89,91,39.71Z"></path><path class="cls-4" d="M99,39.7a1.27,1.27,0,0,1,.13.19s-.06.06-.09.09A1.27,1.27,0,0,1,99,39.8S99,39.73,99,39.7Z"></path><path class="cls-4" d="M52.51,13.64l-.06,5A8.76,8.76,0,0,1,52.51,13.64Z"></path><path class="cls-4" d="M52.44,8v3.54A5.07,5.07,0,0,1,52.44,8Z"></path><path class="cls-4" d="M72.33,17.49l.07-.13-.07.13Z"></path></g></g></g></g></svg> 