<?xml version="1.0" encoding="UTF-8"?> <svg xmlns="http://www.w3.org/2000/svg" viewBox="0 0 102.15 63.88"><defs><style>.cls-1{fill:#007b84;}.cls-2{fill:#00447c;}.cls-3{fill:#e11836;}.cls-4{fill:#fcfcfc;}.cls-5{fill:#fdfcfc;}</style></defs><g id="Layer_2" data-name="Layer 2"><g id="Layer_1-2" data-name="Layer 1"><g id="W38Bus.tif"><path class="cls-1" d="M71,0H97.67c0,.07.1,0,.16.05A4.85,4.85,0,0,1,102,6c-.33,1.74-.78,3.47-1.18,5.2L95.3,35.06c-1.66,7.16-3.34,14.31-5,21.47a9.53,9.53,0,0,1-1.44,3.57,8.5,8.5,0,0,1-7.19,3.77q-12,0-24,0l-2,0c0-.13-.08-.07-.14-.08a4.82,4.82,0,0,1-3-1.81,5,5,0,0,1-.92-4c.26-1.35.6-2.69.91-4,.25-1.07.49-2.14.74-3.21h1.25c.49,0,.5,0,.64-.44s.35-1.18.53-1.81c-.65,0-1.28.15-1.91.15.23-1,.47-2,.69-3,.15-.66.34-1.31.44-2h.28c1.72,0,3.45,0,5.17,0a2.47,2.47,0,0,0,2-1.13,10.25,10.25,0,0,0,1-2.63c.29-.9.54-1.81.82-2.71.13-.44.27-.88.39-1.33,0-.08.09-.25-.09-.21a3.76,3.76,0,0,1-.75,0,35.07,35.07,0,0,0-4.35.14,4.85,4.85,0,0,0-1.85.56c-.34.2-.67.44-1,.69a.39.39,0,0,1,0-.16c.1-.36.21-.73.33-1.09,0-.08,0-.11,0-.15a.86.86,0,0,1,0-.23c.28-1.22.57-2.44.85-3.66h1.2a.31.31,0,0,0,.36-.3c.13-.75.27-1.49.41-2.23.27-1.39.66-2.75.87-4.15a1.9,1.9,0,0,0-.8-2.16.84.84,0,0,0,.06-.14l2.46-10.56c.38-1.66.81-3.31,1.15-5A8.89,8.89,0,0,1,69.87.2C70.23.11,70.6.09,71,0ZM70.7,36.53c.08-.29.15-.55.24-.8s0-.24-.17-.23c-.85,0-1.69,0-2.53,0a.29.29,0,0,0-.33.26c-1.19,4-2.4,7.94-3.58,11.92-.09.29-.19.43-.5.37s-.25,0-.3.21c-.14.51-.29,1-.46,1.52-.07.21,0,.25.18.25h5.3c.44,0,.45,0,.31.43-.07.21,0,.24.19.23h2.22c.48,0,.48,0,.63-.46,0-.09,0-.21.18-.2s.47,0,.72,0l-.19.67c.7,0,1.37,0,2,0a2.88,2.88,0,0,0,2.59-1.31c.44-.63.91-1.25,1.37-1.88,0,0,.06-.14.16-.16l.31,1.94a1.54,1.54,0,0,0,1.45,1.3l1.56,0c.17,0,.25,0,.3-.22.17-.58.34-1.16.53-1.73.07-.21,0-.24-.18-.23a4.87,4.87,0,0,1-.54,0c-.4,0-.44-.07-.5-.47-.1-.69-.22-1.39-.32-2.09,0-.17-.09-.23-.26-.22h-1.2c.18-.22.34-.38.47-.56a.43.43,0,0,1,.39-.19h3.07a.22.22,0,0,0,.26-.2c.13-.45.26-.89.41-1.34.07-.19,0-.22-.17-.22H81.57c-.18,0-.21,0-.16-.22.14-.39.27-.79.38-1.19a.26.26,0,0,1,.3-.22h2.78c.17,0,.24,0,.29-.21.14-.51.29-1,.45-1.51.08-.23,0-.28-.2-.28h-9c-.28,0-.4.07-.47.35-.13.54-.31,1.08-.47,1.64h3.2c.23,0,.25,0,.18.25-.13.38-.25.76-.35,1.15,0,.19-.14.23-.32.23h-3c-.09,0-.21,0-.25.11-.16.54-.33,1.08-.5,1.66h3.07c-.82,1.15-1.61,2.27-2.42,3.38a1.23,1.23,0,0,1-.82.43c-.3,0-.61,0-.92,0-.13,0-.1-.08-.08-.15s.09-.33.15-.49,0-.24-.18-.23h-.58a1.63,1.63,0,0,1,.07-.26l2.79-9.23c.08-.25.09-.58.26-.73s.52,0,.79,0,.25,0,.28-.21.15-.46.22-.69h.08v1.1a1,1,0,0,0,.52.91,1.78,1.78,0,0,0,.77.24c.79.06,1.57,0,2.35,0,.09,0,.14,0,.17-.11.18-.61.37-1.22.56-1.85-.31,0-.61,0-.89,0a.31.31,0,0,1-.3-.34c0-.31,0-.61,0-.92s0-.22-.22-.22c-2.21,0-4.43,0-6.64.14a4.74,4.74,0,0,0-2.59.83Zm-2-20.26c-1.26,0-2.46,0-3.65,0-.24,0-.31.07-.35.29-.41,1.92-.79,3.85-1.26,5.75-.74,3-1.47,6.07-2.21,9.1,0,.21,0,.27.21.26,1.09,0,2.18-.06,3.27,0,.23,0,.31,0,.36-.27.32-1.61.63-3.22,1.06-4.81a.52.52,0,0,1,.61-.47,18.74,18.74,0,0,0,3.74-.27,6.55,6.55,0,0,0,5.16-6.75,2.53,2.53,0,0,0-1.53-2.32,5.72,5.72,0,0,0-1.95-.45C71,16.22,69.82,16.27,68.72,16.27Zm20.11,10.8L88.77,26c0-1.05-.11-2.11-.16-3.16,0-.19-.07-.32-.29-.27-1,.2-2,.4-2.95.52-.25,0-.31.13-.26.39s.13.65.17,1c.29,2.37.64,4.74.86,7.13a.51.51,0,0,1-.06.29c-.87,1.49-1.72,3-2.64,4.46-.29.47-.61.78-1.2.68-.12,0-.18,0-.21.16-.15.52-.31,1-.47,1.56,0,.12,0,.2.13.2.66,0,1.31.05,2,0a2.39,2.39,0,0,0,2.11-1.26c.65-1.15,1.33-2.28,2-3.43,2.09-3.84,4.3-7.6,6.48-11.38.05-.08.16-.15.07-.27s-.18-.06-.28,0a27.6,27.6,0,0,1-2.72.47.68.68,0,0,0-.65.49C90.15,24.77,89.41,25.87,88.83,27.07ZM78.28,31.18l-.06.25c-.08.34-.07.35.28.34,1,0,2-.07,2.94,0,.26,0,.38-.08.42-.35.27-1.7.62-3.38,1-5.05.27-1.13.54-2.26.8-3.38.06-.24,0-.28-.22-.23l-.73.13-2.45.38c-.19,0-.33.09-.32.31a.07.07,0,0,1-.06.1l0,0-.06-.08a1.93,1.93,0,0,0-1.89-.77,5.25,5.25,0,0,0-3.14,1.81,6.72,6.72,0,0,0-1.38,3.2,5.33,5.33,0,0,0-.11,1.78,2.38,2.38,0,0,0,1.48,2,3.11,3.11,0,0,0,3.48-.36ZM60.84,48.57l-1.8.11c-.37,0-.56-.15-.56-.52s0-.8,0-1.2c0-.21.08-.25.27-.26l1.58-.06a1.83,1.83,0,0,0,1.74-1.36c.09-.4.17-.81.27-1.22,0-.14,0-.13-.13-.13H60.35c-.12,0-.17,0-.2.14s-.15.47-.22.71a.48.48,0,0,1-.52.39c-.2,0-.41,0-.61,0s-.21,0-.2-.19,0-.5,0-.74,0-.2-.18-.2H56.05c-.15,0-.18.06-.18.2,0,1.79-.07,3.59-.1,5.39a.76.76,0,0,0,.76.9,28.33,28.33,0,0,0,3.57.11.14.14,0,0,0,.16-.13Z"></path><path class="cls-2" d="M53.26,50.69c-.25,1.07-.49,2.14-.74,3.21-.31,1.34-.65,2.68-.91,4a5,5,0,0,0,.92,4,4.82,4.82,0,0,0,3,1.81c.06,0,.15-.05.14.08H31.2s-.05,0-.08,0H28.07l-.63-.09a4.65,4.65,0,0,1-3.88-3.47,6.39,6.39,0,0,1,.07-3.25q2.51-10.71,5-21.43,1.22-5.25,2.44-10.49c.32.11.43.27.41.66a8.17,8.17,0,0,1-.2,1.39c-.26,1.4-.6,2.77-.92,4.16-.07.3-.05.33.25.31.93-.06,1.87-.06,2.81,0a.3.3,0,0,0,.36-.28c.29-1.71.66-3.41,1-5.1a7.23,7.23,0,0,0,.28-2.07,1.59,1.59,0,0,0-1.27-1.53,3.07,3.07,0,0,0-.53-.06,5.6,5.6,0,0,0-1.68.25.22.22,0,0,1,0-.08c1.24-5.35,2.46-10.71,3.75-16A8.55,8.55,0,0,1,41.66.22c.33-.1.67-.15,1-.22H71c-.36.09-.73.11-1.09.2a8.89,8.89,0,0,0-6.45,6.89c-.34,1.67-.77,3.32-1.15,5L59.81,22.63a.84.84,0,0,1-.06.14,4.43,4.43,0,0,0-4,.72c.07-.27.13-.5.18-.73s0-.31-.25-.26c-1,.2-2,.36-3,.5-.38.06-.38.06-.42.44-.1.83-.23,1.65-.39,2.47-.34,1.81-.79,3.6-1.22,5.4-.09.33-.07.36.27.34.92-.06,1.84-.06,2.76,0,.36,0,.36,0,.43-.37,0-.17.06-.33.1-.5.33-1.71.68-3.42,1.08-5.12,0-.08,0-.19.12-.24a2,2,0,0,1,1-.26.51.51,0,0,1,.5.46,2.15,2.15,0,0,1,0,.76c-.27,1.69-.68,3.35-1.07,5-.07.31-.06.33.25.31.54,0,1.07-.06,1.61,0-.28,1.22-.57,2.44-.85,3.66a.86.86,0,0,0,0,.23H54.28c-.12,0-.21,0-.26.17-.36,1.26-.75,2.51-1.13,3.77l-1.47,4.9q-.77,2.52-1.5,5c-.05.16-.14.33-.07.49a1.12,1.12,0,0,0,.73.68,4.89,4.89,0,0,0,1.27.11ZM44.83,31.8A8.47,8.47,0,0,0,46,31.71a4.69,4.69,0,0,0,3.29-1.95,7.58,7.58,0,0,0,1.28-4.29,2.54,2.54,0,0,0-2.07-2.67A6.22,6.22,0,0,0,46,22.66a4.79,4.79,0,0,0-3.45,1.81,7.21,7.21,0,0,0-1.42,4.65,2.47,2.47,0,0,0,2.11,2.5A7.46,7.46,0,0,0,44.83,31.8ZM49,48.49a1,1,0,0,0-.17,0l-1.26.18a2.86,2.86,0,0,1-1.09-.07c-.21-.06-.28-.15-.2-.37.24-.78.48-1.56.7-2.35,0-.17.13-.21.3-.21h2.89a.23.23,0,0,0,.26-.2c.14-.5.3-1,.46-1.51.09-.3.09-.3-.22-.3h-3c.15-.48.3-.94.43-1.4.05-.19.13-.26.33-.25h2.79c.09,0,.2,0,.25-.11.18-.6.36-1.2.55-1.8l-.09,0H44c-.13,0-.17.06-.2.17-.16.53-.32,1.06-.49,1.59-.05.16,0,.19.15.18h1.43c.19,0,.21,0,.15.22-.13.42-.26.84-.37,1.27,0,.14-.1.17-.24.17H43c-.12,0-.2,0-.24.16q-.24.86-.51,1.71c-.06.17,0,.18.14.17h1.41c.22,0,.23,0,.17.24-.32,1-.61,2.09-1,3.12a1.1,1.1,0,0,0,.2,1.14,1.17,1.17,0,0,0,.87.42c1.39.12,2.78,0,4.16,0a.12.12,0,0,0,.15-.1C48.55,49.89,48.76,49.2,49,48.49ZM37.11,31.66V31.6h1.55a.29.29,0,0,0,.32-.26c.24-1.62.66-3.2,1-4.79.15-.63.31-1.26.46-1.89,0-.24,0-.28-.23-.23-1.06.2-2.13.36-3.2.51-.2,0-.28.11-.3.3-.15,1.21-.38,2.41-.63,3.6-.19.86-.53,1.68-.77,2.53,0,.21,0,.28.22.28C36.07,31.65,36.59,31.66,37.11,31.66Zm6.37,8h1.3a3.79,3.79,0,0,0,2.55-.93.56.56,0,0,1,.41-.15H51.8c.17,0,.27,0,.32-.22.14-.52.3-1,.47-1.56.06-.19,0-.25-.17-.24H49.55c-.18,0-.23,0-.13-.2s.31-.58.46-.88l-.06,0H46.73c-.13,0-.17.06-.23.16-.28.51-.57,1-.85,1.54a1,1,0,0,1-1,.56c-.16,0-.32,0-.48,0a.14.14,0,0,0-.17.11C43.86,38.48,43.67,39.08,43.48,39.7Zm-4-18a3.18,3.18,0,0,0-2.2.81,1,1,0,0,0,.42,1.7,2.48,2.48,0,0,0,1.24.06,2.82,2.82,0,0,0,1.67-.86.91.91,0,0,0-.41-1.59A2.3,2.3,0,0,0,39.48,21.67Z"></path><path class="cls-3" d="M31.07,25.13q-1.23,5.25-2.44,10.49-2.5,10.71-5,21.43a6.39,6.39,0,0,0-.07,3.25,4.65,4.65,0,0,0,3.88,3.47l.63.09H5.41c-.33,0-.66,0-1,0A4.75,4.75,0,0,1,.2,60.32c-.08-.29-.14-.59-.2-.89V58.3c.06-.3.11-.61.18-.92L3,45.43,7.35,26.64C8.89,20,10.41,13.4,12,6.79A8.59,8.59,0,0,1,18.48.17,8.71,8.71,0,0,0,19.34,0H42.67c-.34.07-.68.12-1,.22a8.55,8.55,0,0,0-6.28,6.46c-1.29,5.34-2.51,10.7-3.75,16.05a.22.22,0,0,0,0,.08,7.55,7.55,0,0,0-1.31.69c.07-.28.13-.49.18-.71s0-.34-.26-.29c-1.05.2-2.1.38-3.15.52-.19,0-.25.13-.27.3-.12,1.11-.32,2.21-.54,3.3-.33,1.59-.72,3.16-1.1,4.73,0,.17-.08.33.19.31,1-.07,2-.07,3-.05a.24.24,0,0,0,.27-.22c0-.22.09-.45.13-.67.34-1.71.69-3.41,1.08-5.1,0-.09,0-.2.11-.24A1.72,1.72,0,0,1,31.07,25.13Zm-15-8.81h0c-.64,0-1.28,0-1.92,0-.18,0-.24,0-.28.21-.24,1.1-.51,2.19-.74,3.29-.55,2.65-1.3,5.26-1.64,8A2.94,2.94,0,0,0,13.06,31a3.83,3.83,0,0,0,.73.29,10.57,10.57,0,0,0,6.2-.14,5.56,5.56,0,0,0,3.61-3.4,20.36,20.36,0,0,0,.8-2.66c.72-2.83,1.4-5.66,2.17-8.48.08-.3.09-.3-.23-.3-1,0-2.06,0-3.09,0-.19,0-.25,0-.29.2q-.9,4.23-1.83,8.46a9.78,9.78,0,0,1-.77,2.48,2.89,2.89,0,0,1-2.91,1.68,1.69,1.69,0,0,1-1.74-1.78,11.24,11.24,0,0,1,.39-2.65c.67-2.74,1.35-5.47,2.12-8.18,0-.15,0-.18-.15-.18Z"></path><path class="cls-4" d="M70.7,36.53l.12-.05a4.74,4.74,0,0,1,2.59-.83c2.21-.11,4.43-.15,6.64-.14.17,0,.23.05.22.22s0,.61,0,.92a.31.31,0,0,0,.3.34c.28,0,.58,0,.89,0-.19.63-.38,1.24-.56,1.85,0,.09-.08.11-.17.11-.78,0-1.56,0-2.35,0a1.78,1.78,0,0,1-.77-.24,1,1,0,0,1-.52-.91v-1.1H77c-.07.23-.16.46-.22.69s-.12.21-.28.21-.61-.12-.79,0-.18.48-.26.73l-2.79,9.23a1.63,1.63,0,0,0-.07.26h.58c.19,0,.27,0,.18.23s-.1.33-.15.49,0,.15.08.15c.31,0,.62,0,.92,0A1.23,1.23,0,0,0,75,48.3c.81-1.11,1.6-2.23,2.42-3.38H74.39c.17-.58.34-1.12.5-1.66,0-.16.16-.11.25-.11h3c.18,0,.27,0,.32-.23.1-.39.22-.77.35-1.15.07-.2.05-.25-.18-.25h-3.2c.16-.56.34-1.1.47-1.64.07-.28.19-.35.47-.35h9c.25,0,.28.05.2.28-.16.5-.31,1-.45,1.51,0,.17-.12.21-.29.21H82.09a.26.26,0,0,0-.3.22c-.11.4-.24.8-.38,1.19,0,.17,0,.22.16.22h2.79c.19,0,.24,0,.17.22-.15.45-.28.89-.41,1.34a.22.22,0,0,1-.26.2H80.79a.43.43,0,0,0-.39.19c-.13.18-.29.34-.47.56h1.2c.17,0,.24.05.26.22.1.7.22,1.4.32,2.09.06.4.1.44.5.47a4.87,4.87,0,0,0,.54,0c.18,0,.25,0,.18.23-.19.57-.36,1.15-.53,1.73-.05.18-.13.23-.3.22l-1.56,0a1.54,1.54,0,0,1-1.45-1.3l-.31-1.94c-.1,0-.12.11-.16.16-.46.63-.93,1.25-1.37,1.88a2.88,2.88,0,0,1-2.59,1.31c-.68,0-1.35,0-2,0L72.8,50c-.25,0-.49,0-.72,0s-.16.11-.18.2c-.15.46-.15.46-.63.46H69.05c-.19,0-.26,0-.19-.23C69,50,69,50,68.55,50h-5.3c-.21,0-.25,0-.18-.25.17-.5.32-1,.46-1.52,0-.18.13-.24.3-.21s.41-.08.5-.37c1.18-4,2.39-8,3.58-11.92a.29.29,0,0,1,.33-.26c.84,0,1.68,0,2.53,0,.19,0,.23,0,.17.23S70.78,36.24,70.7,36.53ZM67.27,47.91h2.28c.11,0,.14-.06.17-.15.2-.66.39-1.33.6-2,0-.12,0-.16-.12-.16H68.11c-.09,0-.15,0-.18.12C67.72,46.45,67.5,47.16,67.27,47.91Zm1.15-3.68.07,0a6,6,0,0,1,2.39-.74.2.2,0,0,0,.19-.17q.23-.79.48-1.59c0-.17,0-.18-.15-.18h-2c-.16,0-.21.07-.25.2-.23.78-.46,1.55-.7,2.32C68.42,44.11,68.38,44.16,68.42,44.23Zm1.18-4,.15,0a5.74,5.74,0,0,1,2.32-.63c.13,0,.15-.08.18-.17.16-.53.31-1,.48-1.57,0-.16,0-.2-.16-.2h-1.4c-.25,0-.56-.1-.75,0s-.18.46-.25.7C70,39,69.8,39.56,69.6,40.22Z"></path><path class="cls-4" d="M68.72,16.27c1.1,0,2.28-.05,3.46,0a5.72,5.72,0,0,1,1.95.45,2.53,2.53,0,0,1,1.53,2.32,6.55,6.55,0,0,1-5.16,6.75,18.74,18.74,0,0,1-3.74.27.52.52,0,0,0-.61.47c-.43,1.59-.74,3.2-1.06,4.81,0,.23-.13.28-.36.27-1.09-.06-2.18,0-3.27,0-.24,0-.26,0-.21-.26.74-3,1.47-6.06,2.21-9.1.47-1.9.85-3.83,1.26-5.75,0-.22.11-.3.35-.29C66.26,16.3,67.46,16.28,68.72,16.27Zm-1,7.45.66,0a3.25,3.25,0,0,0,3.17-2.77A1.66,1.66,0,0,0,70,18.68l-1.88-.16c-.14,0-.19,0-.21.16,0,.3-.11.59-.17.88-.31,1.33-.61,2.65-.92,4,0,.15,0,.19.15.19Z"></path><path class="cls-4" d="M53.26,50.69H51.85a4.89,4.89,0,0,1-1.27-.11,1.12,1.12,0,0,1-.73-.68c-.07-.16,0-.33.07-.49q.73-2.52,1.5-5l1.47-4.9c.38-1.26.77-2.51,1.13-3.77,0-.19.14-.17.26-.17h2.56c.06,0,.06.07,0,.15-.12.36-.23.73-.33,1.09a.39.39,0,0,0,0,.16c.35-.25.68-.49,1-.69a4.85,4.85,0,0,1,1.85-.56,35.07,35.07,0,0,1,4.35-.14,3.76,3.76,0,0,0,.75,0c.18,0,.11.13.09.21-.12.45-.26.89-.39,1.33-.28.9-.53,1.81-.82,2.71a10.25,10.25,0,0,1-1,2.63,2.47,2.47,0,0,1-2,1.13c-1.72.1-3.45,0-5.17,0H54.9c-.18,0-.26,0-.32.2-.43,1.43-.88,2.86-1.27,4.3-.1.33.11.56.46.5.63,0,1.26-.1,1.91-.15-.18.63-.35,1.22-.53,1.81s-.15.44-.64.44Zm1.94-9h.16l4.26,0a.2.2,0,0,0,.23-.15c.09-.26.16-.52.25-.79H55.56a.09.09,0,0,0-.14.06,8.67,8.67,0,0,0-.22.84l0,0Zm.54-1.88c.08,0,.12,0,.17-.06a5,5,0,0,1,2.65-1c.64,0,1.27,0,1.91,0,.2,0,.3-.06.34-.25a4.57,4.57,0,0,1,.19-.63c.09-.23,0-.27-.21-.27H56.63a.3.3,0,0,0-.35.26C56.11,38.56,55.92,39.19,55.74,39.83Z"></path><path class="cls-4" d="M88.83,27.07c.58-1.2,1.32-2.3,1.8-3.53a.68.68,0,0,1,.65-.49A27.6,27.6,0,0,0,94,22.58c.1,0,.2-.07.28,0s0,.19-.07.27c-2.18,3.78-4.39,7.54-6.48,11.38-.63,1.15-1.31,2.28-2,3.43A2.39,2.39,0,0,1,83.66,39c-.66,0-1.31,0-2,0-.18,0-.17-.08-.13-.2.16-.52.32-1,.47-1.56,0-.12.09-.18.21-.16.59.1.91-.21,1.2-.68.92-1.47,1.77-3,2.64-4.46a.51.51,0,0,0,.06-.29c-.22-2.39-.57-4.76-.86-7.13,0-.33-.11-.66-.17-1s0-.36.26-.39c1-.12,2-.32,2.95-.52.22-.05.28.08.29.27,0,1.05.11,2.11.16,3.16Z"></path><path class="cls-4" d="M78.28,31.18h-.06a3.11,3.11,0,0,1-3.48.36,2.38,2.38,0,0,1-1.48-2,5.33,5.33,0,0,1,.11-1.78,6.72,6.72,0,0,1,1.38-3.2,5.25,5.25,0,0,1,3.14-1.81,1.93,1.93,0,0,1,1.89.77l.06.08,0,0a.07.07,0,0,0,.06-.1c0-.22.13-.28.32-.31l2.45-.38.73-.13c.24-.05.28,0,.22.23-.26,1.12-.53,2.25-.8,3.38-.39,1.67-.74,3.35-1,5.05,0,.27-.16.36-.42.35-1,0-2,0-2.94,0-.35,0-.36,0-.28-.34Zm1.2-5.06c0-.15,0-.3-.06-.45a.9.9,0,0,0-.65-.82,1.06,1.06,0,0,0-1.1.39,2.59,2.59,0,0,0-.4.68A11.77,11.77,0,0,0,76.69,28a2.94,2.94,0,0,0,0,1.32.67.67,0,0,0,.72.55A1.64,1.64,0,0,0,78.75,29a4.92,4.92,0,0,0,.38-1.16A10.35,10.35,0,0,0,79.48,26.12Z"></path><path class="cls-4" d="M57.71,31.61c-.54,0-1.07,0-1.61,0-.31,0-.32,0-.25-.31.39-1.66.8-3.32,1.07-5a2.15,2.15,0,0,0,0-.76.51.51,0,0,0-.5-.46,2,2,0,0,0-1,.26c-.11.05-.1.16-.12.24-.4,1.7-.75,3.41-1.08,5.12,0,.17-.07.33-.1.5-.07.38-.07.38-.43.37-.92,0-1.84,0-2.76,0-.34,0-.36,0-.27-.34.43-1.8.88-3.59,1.22-5.4.16-.82.29-1.64.39-2.47,0-.38,0-.38.42-.44,1-.14,2-.3,3-.5.23-.05.31,0,.25.26s-.11.46-.18.73a4.43,4.43,0,0,1,4-.72,1.9,1.9,0,0,1,.8,2.16c-.21,1.4-.6,2.76-.87,4.15-.14.74-.28,1.48-.41,2.23a.31.31,0,0,1-.36.3Z"></path><path class="cls-4" d="M60.84,48.57l-.58,1.94a.14.14,0,0,1-.16.13,28.33,28.33,0,0,1-3.57-.11.76.76,0,0,1-.76-.9c0-1.8.07-3.6.1-5.39,0-.14,0-.2.18-.2h2.41c.15,0,.18.06.18.2s0,.49,0,.74,0,.2.2.19.41,0,.61,0a.48.48,0,0,0,.52-.39c.07-.24.16-.47.22-.71s.08-.14.2-.14h1.86c.1,0,.16,0,.13.13-.1.41-.18.82-.27,1.22a1.83,1.83,0,0,1-1.74,1.36l-1.58.06c-.19,0-.28,0-.27.26,0,.4,0,.8,0,1.2s.19.54.56.52Z"></path><path class="cls-2" d="M53.77,48.58c-.35.06-.56-.17-.46-.5.39-1.44.84-2.87,1.27-4.3.06-.19.14-.25.32-.2-.1.67-.29,1.32-.44,2C54.24,46.57,54,47.58,53.77,48.58Z"></path><path class="cls-5" d="M31.07,25.13a1.72,1.72,0,0,0-1.13.25c-.09,0-.09.15-.11.24-.39,1.69-.74,3.39-1.08,5.1,0,.22-.09.45-.13.67a.24.24,0,0,1-.27.22c-1,0-2,0-3,.05-.27,0-.23-.14-.19-.31.38-1.57.77-3.14,1.1-4.73.22-1.09.42-2.19.54-3.3,0-.17.08-.28.27-.3,1.05-.14,2.1-.32,3.15-.52.26-.05.33,0,.26.29s-.11.43-.18.71a7.55,7.55,0,0,1,1.31-.69,5.6,5.6,0,0,1,1.68-.25,3.07,3.07,0,0,1,.53.06,1.59,1.59,0,0,1,1.27,1.53,7.23,7.23,0,0,1-.28,2.07c-.38,1.69-.75,3.39-1,5.1a.3.3,0,0,1-.36.28c-.94,0-1.88,0-2.81,0-.3,0-.32,0-.25-.31.32-1.39.66-2.76.92-4.16a8.17,8.17,0,0,0,.2-1.39C31.5,25.4,31.39,25.24,31.07,25.13Z"></path><path class="cls-4" d="M44.83,31.8a7.46,7.46,0,0,1-1.56-.18,2.47,2.47,0,0,1-2.11-2.5,7.21,7.21,0,0,1,1.42-4.65A4.79,4.79,0,0,1,46,22.66a6.22,6.22,0,0,1,2.43.14,2.54,2.54,0,0,1,2.07,2.67,7.58,7.58,0,0,1-1.28,4.29A4.69,4.69,0,0,1,46,31.71,8.47,8.47,0,0,1,44.83,31.8Zm2.34-6.13v-.25a.77.77,0,0,0-1.29-.63,1.37,1.37,0,0,0-.35.33,2.72,2.72,0,0,0-.35.65,11.76,11.76,0,0,0-.57,2.09A3.83,3.83,0,0,0,44.52,29a.78.78,0,0,0,.43.72.83.83,0,0,0,.87-.14,1.81,1.81,0,0,0,.54-.66A9.48,9.48,0,0,0,47.17,25.67Z"></path><path class="cls-4" d="M49,48.49c-.21.71-.42,1.4-.62,2.09a.12.12,0,0,1-.15.1c-1.38,0-2.77.07-4.16,0a1.17,1.17,0,0,1-.87-.42,1.1,1.1,0,0,1-.2-1.14c.34-1,.63-2.08,1-3.12.06-.19,0-.25-.17-.24H42.34c-.13,0-.2,0-.14-.17q.27-.85.51-1.71c0-.15.12-.16.24-.16h1.48c.14,0,.2,0,.24-.17.11-.43.24-.85.37-1.27.06-.17,0-.22-.15-.22H43.46c-.15,0-.2,0-.15-.18.17-.53.33-1.06.49-1.59,0-.11.07-.17.2-.17h7.88l.09,0c-.19.6-.37,1.2-.55,1.8-.05.14-.16.11-.25.11H48.38c-.2,0-.28.06-.33.25-.13.46-.28.92-.43,1.4h3c.31,0,.31,0,.22.3-.16.5-.32,1-.46,1.51a.23.23,0,0,1-.26.2H47.25c-.17,0-.25,0-.3.21-.22.79-.46,1.57-.7,2.35-.08.22,0,.31.2.37a2.86,2.86,0,0,0,1.09.07l1.26-.18A1,1,0,0,1,49,48.49Z"></path><path class="cls-4" d="M37.11,31.66c-.52,0-1,0-1.56,0-.22,0-.27-.07-.22-.28.24-.85.58-1.67.77-2.53.25-1.19.48-2.39.63-3.6,0-.19.1-.27.3-.3,1.07-.15,2.14-.31,3.2-.51.25-.05.28,0,.23.23-.15.63-.31,1.26-.46,1.89-.36,1.59-.78,3.17-1,4.79a.29.29,0,0,1-.32.26H37.11Z"></path><path class="cls-4" d="M43.48,39.7c.19-.62.38-1.22.55-1.83a.14.14,0,0,1,.17-.11c.16,0,.32,0,.48,0a1,1,0,0,0,1-.56c.28-.52.57-1,.85-1.54.06-.1.1-.16.23-.16h3.09l.06,0c-.15.3-.3.59-.46.88s-.05.21.13.2h2.87c.21,0,.23,0,.17.24-.17.52-.33,1-.47,1.56,0,.2-.15.22-.32.22H47.74a.56.56,0,0,0-.41.15,3.79,3.79,0,0,1-2.55.93Z"></path><path class="cls-4" d="M39.48,21.67a2.3,2.3,0,0,1,.72.12.91.91,0,0,1,.41,1.59,2.82,2.82,0,0,1-1.67.86,2.48,2.48,0,0,1-1.24-.06,1,1,0,0,1-.42-1.7A3.18,3.18,0,0,1,39.48,21.67Z"></path><path class="cls-1" d="M31.2,63.86h-.08S31.17,63.83,31.2,63.86Z"></path><path class="cls-5" d="M16.11,16.32h2c.16,0,.19,0,.15.18-.77,2.71-1.45,5.44-2.12,8.18a11.24,11.24,0,0,0-.39,2.65,1.69,1.69,0,0,0,1.74,1.78,2.89,2.89,0,0,0,2.91-1.68A9.78,9.78,0,0,0,21.13,25q.93-4.23,1.83-8.46c0-.18.1-.21.29-.2,1,.06,2.06,0,3.09,0,.32,0,.31,0,.23.3-.77,2.82-1.45,5.65-2.17,8.48a20.36,20.36,0,0,1-.8,2.66A5.56,5.56,0,0,1,20,31.16a10.57,10.57,0,0,1-6.2.14,3.83,3.83,0,0,1-.73-.29,2.94,2.94,0,0,1-1.53-3.24c.34-2.71,1.09-5.32,1.64-8,.23-1.1.5-2.19.74-3.29,0-.19.1-.21.28-.21.64,0,1.28,0,1.92,0Z"></path><path class="cls-1" d="M67.27,47.91c.23-.75.45-1.46.66-2.18,0-.1.09-.12.18-.12H70.2c.15,0,.15,0,.12.16-.21.67-.4,1.34-.6,2,0,.09-.06.15-.17.15Z"></path><path class="cls-1" d="M68.42,44.23c0-.07,0-.12,0-.18.24-.77.47-1.54.7-2.32,0-.13.09-.21.25-.2h2c.15,0,.2,0,.15.18q-.26.8-.48,1.59a.2.2,0,0,1-.19.17,6,6,0,0,0-2.39.74Z"></path><path class="cls-1" d="M69.6,40.22c.2-.66.37-1.27.57-1.87.07-.24.06-.57.25-.7s.5,0,.75,0h1.4c.17,0,.21,0,.16.2-.17.52-.32,1-.48,1.57,0,.09,0,.16-.18.17a5.74,5.74,0,0,0-2.32.63Z"></path><path class="cls-1" d="M67.77,23.72H67c-.15,0-.18,0-.15-.19.31-1.33.61-2.65.92-4,.06-.29.13-.58.17-.88,0-.15.07-.18.21-.16l1.88.16a1.66,1.66,0,0,1,1.57,2.23,3.25,3.25,0,0,1-3.17,2.77Z"></path><path class="cls-1" d="M55.74,39.83c.18-.64.37-1.27.54-1.9a.3.3,0,0,1,.35-.26h4.16c.23,0,.3,0,.21.27a4.57,4.57,0,0,0-.19.63c0,.19-.14.25-.34.25-.64,0-1.27,0-1.91,0a5,5,0,0,0-2.65,1S55.82,39.85,55.74,39.83Z"></path><path class="cls-1" d="M55.56,40.79H60.1c-.09.27-.16.53-.25.79a.2.2,0,0,1-.23.15l-4.26,0A7.57,7.57,0,0,0,55.56,40.79Z"></path><path class="cls-2" d="M55.56,40.79a7.57,7.57,0,0,1-.2.92H55.2v0a8.67,8.67,0,0,1,.22-.84A.09.09,0,0,1,55.56,40.79Z"></path><path class="cls-1" d="M55.2,41.69v0h0Z"></path><path class="cls-1" d="M79.48,26.12a10.35,10.35,0,0,1-.35,1.76A4.92,4.92,0,0,1,78.75,29a1.64,1.64,0,0,1-1.39.86.67.67,0,0,1-.72-.55,2.94,2.94,0,0,1,0-1.32,11.77,11.77,0,0,1,.58-2.11,2.59,2.59,0,0,1,.4-.68,1.06,1.06,0,0,1,1.1-.39.9.9,0,0,1,.65.82C79.45,25.82,79.46,26,79.48,26.12Z"></path><path class="cls-2" d="M47.17,25.67a9.48,9.48,0,0,1-.81,3.23,1.81,1.81,0,0,1-.54.66.83.83,0,0,1-.87.14.78.78,0,0,1-.43-.72,3.83,3.83,0,0,1,.09-1.12,11.76,11.76,0,0,1,.57-2.09,2.72,2.72,0,0,1,.35-.65,1.37,1.37,0,0,1,.35-.33.77.77,0,0,1,1.29.63Z"></path></g></g></g></svg> 