<?xml version="1.0" encoding="UTF-8"?> <svg xmlns="http://www.w3.org/2000/svg" viewBox="0 0 152.88 28.89"><defs><style>.cls-1{fill:#4b75ad;}.cls-2{fill:#f6951f;}.cls-3{fill:#fefefd;}</style></defs><g id="Layer_2" data-name="Layer 2"><g id="Layer_1-2" data-name="Layer 1"><path class="cls-1" d="M131.35,6.58c2.41,0,4.67,0,6.94,0,.53,0,.55.41.67.74q1.6,4.49,3.2,9c.07.22.16.44.33.86l1.74-5.26c.5-1.5,1-3,1.47-4.52a.93.93,0,0,1,1.06-.79c2,.05,4,0,6.12,0-.93,2.18-1.8,4.22-2.66,6.26l-4.44,10.45-.15.37c-1.34,3.7-4.06,5.25-7.93,5.22-7.57-.05-15.13,0-22.7,0-5.43,0-10.86,0-16.29,0-.85,0-1.09-.2-.8-1,.34-1,.11-2.38.88-2.9s2-.15,3-.15q16.8,0,33.6,0a3.38,3.38,0,0,0,3.06-1.25,1.57,1.57,0,0,0,.18-1.84c-2.31-4.7-4.55-9.43-6.82-14.15C131.65,7.29,131.53,7,131.35,6.58Z"></path><path class="cls-2" d="M36.1,10.62a4.79,4.79,0,0,1-2.75.27,1.42,1.42,0,0,0-1.44.83c-1.85,3.3-3.77,6.56-5.62,9.86a1.29,1.29,0,0,1-1.44.75C19.28,21.84,13.7,21.41,8.12,21c-.81-.07-1.61-.18-2.41-.32,4.39,0,8.79,0,13.18,0a1.32,1.32,0,0,0,1.36-.79c.95-1.74,2-3.45,3-5.32L0,12v-.18H1c7.64,0,15.27,0,22.91,0,.7,0,1.18-.14,1.33-1L10.36,8.42l0-.14c4.34,0,8.69,0,13,0,.55,0,1-.07,1.22-.66a1.77,1.77,0,0,1,2.19-1.25c.43,0,1.21.32,1.24-.4,0-.42-.73-.26-1.12-.3-5.36-.6-10.72-1.17-16.08-1.75C9,3.72,7,3.51,5.13,3.14h1q11.56,0,23.12,0c.64,0,1.22,0,1.55-.85L12.25.28c10.28,0,20.56-.6,31.13-.05L40.57,3.81c-.3.39-.69.15-1,.12C37,3.75,36,4.28,35.11,6.41h1.52c1.68,0,1.65,0,.88,1.41a8.37,8.37,0,0,0-1.22,2.4h0q-.37.07-.21.42Z"></path><path class="cls-1" d="M95.12,6.61c.75,0,1.49,0,2.24,0s1,.15.91.88a9.12,9.12,0,0,0,0,1,.33.33,0,0,0,.51-.07,7.49,7.49,0,0,1,8.55-1.59c3,1.22,4.17,3.89,4.5,6.94a10.46,10.46,0,0,1-.25,3.61c-1.4,5.87-8.34,6.74-11.94,4.23-.78-.54-.92-.36-1.11.45-.47,2-1.06,4-1.53,6a.92.92,0,0,1-1.09.85c-2.14-.05-4.27,0-6.41,0-.71,0-1-.08-.71-.89.54-1.77,1-3.57,1.46-5.36,1.12-2,2.27-4.07,3.37-6.12.94-1.76,1.86-3.53,2.7-5.34C97.33,9,97,7.76,95.12,6.61Zm3.66,8.19c0,.16,0,.57.08,1a3,3,0,0,0,3,2.57,2.66,2.66,0,0,0,2.84-2.1,6.63,6.63,0,0,0,0-3.31,2.83,2.83,0,0,0-3.5-2.11C99.57,11.15,98.79,12.39,98.78,14.8Z"></path><path class="cls-1" d="M133.33,22.57c-2.17,0-4.07,0-6,0-1,0-1.08-.66-1.26-1.3s-.32-.55-.75-.24c-2.85,2.06-6,2.23-9.33,1.52a4.36,4.36,0,0,1-3.78-4.46,4,4,0,0,1,3-3.81,33.9,33.9,0,0,1,5.55-1.21,31.63,31.63,0,0,0,3.85-.9c.34-.12.9,0,.88-.65a1.51,1.51,0,0,0-.66-1.3c-1.25-.86-4.27-.32-5.07,1a.93.93,0,0,1-1.06.49c-1.72-.18-3.45-.34-5.17-.45-.73,0-.73-.32-.54-.9a5.22,5.22,0,0,1,3.92-3.49A24.62,24.62,0,0,1,128,6.71c2.88.6,4.35,2.61,4.38,5.54,0,1.83,0,3.65,0,5.48C132.41,19.34,132.21,21,133.33,22.57Zm-7.81-6.7c.18-.72-.11-.95-1-.62a18.76,18.76,0,0,1-1.86.48,10.42,10.42,0,0,0-2.6.85,1.44,1.44,0,0,0,0,2.65A3.86,3.86,0,0,0,125.52,15.87Z"></path><path class="cls-2" d="M36.29,10.22c.25.22.35-.05.46-.16a12.68,12.68,0,0,1,8.49-3.85,31.52,31.52,0,0,1,7.7.15c2.63.39,3.54,1.88,2.6,4.38a39.75,39.75,0,0,1-2.66,4.88c-.75,1.36-1.54,2.69-2.3,4.05A3.28,3.28,0,0,0,50,21.36c.06,1-.47,1.05-1.24,1-1.46,0-2.91,0-4.37,0-1.2,0-1.2,0-1-1.18,0-.14,0-.27.05-.4s.12-.12.11-.14-.16-.05-.23,0a17.77,17.77,0,0,1-6.76,2,10.72,10.72,0,0,1-4-.33,2.38,2.38,0,0,1-1.62-3.43,8.08,8.08,0,0,1,4.73-4.47c2.39-1,4.94-1.14,7.43-1.59,1.53-.28,3.06-.58,4.57-1a1.27,1.27,0,0,0,1-1.4c0-.76-.7-.72-1.22-.75a5.83,5.83,0,0,0-4.79,1.47,1,1,0,0,1-.9.34c-1.71-.19-3.43-.36-5.15-.52-.3,0-.55,0-.53-.42h0c.21-.07.42-.14.21-.42Zm10,4.64c-2,.55-4.09.79-6,1.49a3.23,3.23,0,0,0-1.61,1.19c-.65.93-.35,1.63.77,1.78A6.93,6.93,0,0,0,46.31,14.86Z"></path><path class="cls-2" d="M95.12,6.61C97,7.76,97.33,9,96.31,11.16c-.84,1.81-1.76,3.58-2.7,5.34-1.1,2.05-2.25,4.08-3.37,6.12a110.92,110.92,0,0,1-13,.17,19.53,19.53,0,0,1-3.33-.39c-2.11-.49-2.8-1.92-1.86-3.87,1.45-3,4-4.43,7.17-5.08s6.34-.55,9.52-.77a14.61,14.61,0,0,1,1.62,0A2.49,2.49,0,0,0,92.71,11c.46-.89.24-1.49-.72-1.82A9.74,9.74,0,0,0,88.15,9c-1.24.1-2.48.33-3.72.52a2.64,2.64,0,0,0-2.21,1.73,1.67,1.67,0,0,1-1.91,1.13c-.83,0-1.91.09-2.33-.67s.39-1.41.78-2.06c1.34-2.24,3.6-2.88,5.94-3.24A28.09,28.09,0,0,1,95.12,6.61ZM81.88,21.72a8.62,8.62,0,0,1,1,0c1,.13,1.42-.14,1.54-1.23.17-1.52.18-3.13,1.52-4.33a1,1,0,0,0-.34-1.7,2.18,2.18,0,0,0-2.21.28c-.7.41-1.36,1-1.21,1.83a2.14,2.14,0,0,1-.42,1.66c-.32.52-.64,1-.93,1.57s-1.12,1.27-.85,1.71S81.3,21.6,81.88,21.72Z"></path><path class="cls-2" d="M68.77,6a29,29,0,0,1,4.07.35,3,3,0,0,1,2.62,3.3c0,.5-.19.7-.71.73-1.83.12-3.65.28-5.48.42-.4,0-.82.13-.8-.53a.82.82,0,0,0-.7-.78,4.12,4.12,0,0,0-3.77.54c-.32.25-.67.56-.55,1s.51.51.88.57c1.68.27,3.36.47,5,.81,3.64.74,4.39,3.05,1.94,5.86a13.26,13.26,0,0,1-8.55,4.23,22.74,22.74,0,0,1-7.89-.2c-2.15-.46-3.14-1.84-2.79-3.65a.82.82,0,0,1,.92-.8c2-.11,3.92-.27,5.88-.46.5-.05.68,0,.65.55a1.16,1.16,0,0,0,1.05,1.29,5.39,5.39,0,0,0,4-.67c.46-.29.93-.67.81-1.29s-.69-.6-1.14-.7c-1.79-.38-3.6-.67-5.37-1.12-2.47-.63-3.16-2.34-1.82-4.52,1.71-2.77,4.44-4,7.48-4.58A33.69,33.69,0,0,1,68.77,6Z"></path><path class="cls-3" d="M36.3,10.21c.21.28,0,.35-.21.42Q35.92,10.29,36.3,10.21Z"></path><path class="cls-3" d="M43.34,20.68c.07-.07.15-.14.23,0s-.07.09-.11.14Z"></path></g></g></svg> 