<svg id="Capa_1" data-name="Capa 1" xmlns="http://www.w3.org/2000/svg" viewBox="0 0 280.61 56.69"><defs><style>.cls-1{fill:#0067ff;}</style></defs><path class="cls-1" d="M89.58,188.89a1,1,0,0,1-1-.77c-.95-4.23-4.38-6.77-9-6.77-6.6,0-10.94,5.06-10.94,13.94,0,9.13,4.4,14,10.88,14,4.55,0,8-2.35,9.09-6.46a1,1,0,0,1,.94-.73l7.22,0a1,1,0,0,1,1,1.15c-1.45,7.4-7.93,14-18.34,14-11.43,0-19.89-8-19.89-21.93s8.61-21.92,19.89-21.92c9.49,0,16.75,5.23,18.36,14.39a1,1,0,0,1-1,1.13Z" transform="translate(-59.49 -171.95)"/><path class="cls-1" d="M99,200.75c0-9.92,6-16.54,15.75-16.54s15.76,6.62,15.76,16.54-6,16.51-15.76,16.51S99,210.61,99,200.75Zm22.49-.06c0-5.58-2.3-9.71-6.69-9.71s-6.78,4.13-6.78,9.71,2.29,9.69,6.78,9.69S121.53,206.28,121.53,200.69Z" transform="translate(-59.49 -171.95)"/><path class="cls-1" d="M171,172.58a23.41,23.41,0,0,0-5.33-.63c-6,0-10.5,3.4-10.5,10.36v3.93H144.79v-3.76c0-2.17.88-3.44,3.49-3.44a9.92,9.92,0,0,1,1.93.21,1,1,0,0,0,1.15-.73l1.12-4.78a1,1,0,0,0-.73-1.16,23.48,23.48,0,0,0-5.33-.63c-6,0-10.5,3.4-10.5,10.36v3.93h-3.56a1,1,0,0,0-1,1v4.73a1,1,0,0,0,1,1h3.56v22.75a1,1,0,0,0,1,1h6.93a1,1,0,0,0,1-1V192.91h10.34v22.75a1,1,0,0,0,1,1H163a1,1,0,0,0,1-1V192.91h5.38a1,1,0,0,0,1-1v-4.73a1,1,0,0,0-1-1H164v-3.76c0-2.17.87-3.44,3.48-3.44a9.84,9.84,0,0,1,1.93.21,1,1,0,0,0,1.15-.73l1.12-4.78A1,1,0,0,0,171,172.58Z" transform="translate(-59.49 -171.95)"/><path class="cls-1" d="M170.56,200.78c0-9.88,6.11-16.57,15.53-16.57,8.46,0,15,5.37,15,16.25v1.47a1,1,0,0,1-1,1H179.34v0c0,4.77,2.81,7.71,7.25,7.71,2.71,0,4.87-1.06,5.9-3.12a.93.93,0,0,1,.91-.54l6.37.42a1,1,0,0,1,.87,1.27c-1.68,5.26-6.82,8.6-14.2,8.6C176.59,217.26,170.56,210.93,170.56,200.78Zm22.22-3.38a6.31,6.31,0,0,0-6.54-6.57,6.76,6.76,0,0,0-6.9,6.57Z" transform="translate(-59.49 -171.95)"/><path class="cls-1" d="M203.87,200.78c0-9.88,6.1-16.57,15.53-16.57,8.46,0,15,5.37,15,16.25v1.47a1,1,0,0,1-1,1H212.64v0c0,4.77,2.82,7.71,7.26,7.71,2.71,0,4.86-1.06,5.89-3.12a1,1,0,0,1,.92-.54l6.37.42a1,1,0,0,1,.86,1.27c-1.68,5.26-6.81,8.6-14.19,8.6C209.89,217.26,203.87,210.93,203.87,200.78Zm22.22-3.38a6.31,6.31,0,0,0-6.55-6.57,6.77,6.77,0,0,0-6.9,6.57Z" transform="translate(-59.49 -171.95)"/><path class="cls-1" d="M266.56,188.89a1,1,0,0,1-.95-.77c-.95-4.23-4.39-6.77-9.05-6.77-6.61,0-10.94,5.06-10.94,13.94,0,9.13,4.4,14,10.88,14,4.55,0,8-2.35,9.09-6.46a1,1,0,0,1,.94-.73l7.22,0a1,1,0,0,1,.95,1.15c-1.45,7.4-7.94,14-18.35,14-11.42,0-19.88-8-19.88-21.93s8.61-21.92,19.88-21.92c9.5,0,16.76,5.23,18.36,14.39a1,1,0,0,1-1,1.13Z" transform="translate(-59.49 -171.95)"/><path class="cls-1" d="M298.62,184.62h6.93a1,1,0,0,1,1,1v30.07a1,1,0,0,1-1,1H299a1,1,0,0,1-1-1v-4.84h-.33c-1.44,3.75-4.9,6.23-9.72,6.23-6.44,0-10.81-4.56-10.84-12V185.59a1,1,0,0,1,1-1H285a1,1,0,0,1,1,1v17.83c0,3.77,2.19,6.13,5.55,6.13,3.19,0,6.13-2.25,6.1-6.54V185.59A1,1,0,0,1,298.62,184.62Z" transform="translate(-59.49 -171.95)"/><path class="cls-1" d="M309.85,184.62h6.81a1,1,0,0,1,1,1V190h.4a9.42,9.42,0,0,1,9.11-5.79c7,0,13,5.46,13,16.46,0,10.71-5.69,16.49-13,16.49a9.46,9.46,0,0,1-9.09-5.65h-.27v16.16a1,1,0,0,1-1,1h-6.94a1,1,0,0,1-1-1V185.59A1,1,0,0,1,309.85,184.62Zm14.45,25.47c4.36,0,6.74-3.88,6.74-9.46s-2.34-9.36-6.74-9.36-6.73,3.65-6.73,9.36S320,210.09,324.3,210.09Z" transform="translate(-59.49 -171.95)"/></svg>