<?xml version="1.0" encoding="UTF-8"?>
<svg width="16px" height="16px" viewBox="0 0 16 16" version="1.1" xmlns="http://www.w3.org/2000/svg" xmlns:xlink="http://www.w3.org/1999/xlink">
    <title>Building_midgrey</title>
    <g id="Building_midgrey" stroke="none" stroke-width="1" fill="none" fill-rule="evenodd">
        <path d="M1,14.6666667 L2.33333333,14.6666667 L2.33333333,0 L14.3333333,0 L14.3333333,14.6666667 L15.6666667,14.6666667 L15.6666667,16 L1,16 L1,14.6666667 Z M5.66666667,12.6666667 L5.66666667,15.3333333 L7.66666667,15.3333333 L7.66666667,12.6666667 L5.66666667,12.6666667 Z M9,12.6666667 L9,15.3333333 L11,15.3333333 L11,12.6666667 L9,12.6666667 Z M5,9.33333333 L3.66666667,9.33333333 L3.66666667,10.6666667 L5,10.6666667 L5,9.33333333 Z M10.3333333,9.33333333 L9,9.33333333 L9,10.6666667 L10.3333333,10.6666667 L10.3333333,9.33333333 Z M7.66666667,9.33333333 L6.33333333,9.33333333 L6.33333333,10.6666667 L7.66666667,10.6666667 L7.66666667,9.33333333 Z M13,9.33333333 L11.6666667,9.33333333 L11.6666667,10.6666667 L13,10.6666667 L13,9.33333333 Z M5,6.66666667 L3.66666667,6.66666667 L3.66666667,8 L5,8 L5,6.66666667 Z M10.3333333,6.66666667 L9,6.66666667 L9,8 L10.3333333,8 L10.3333333,6.66666667 Z M7.66666667,6.66666667 L6.33333333,6.66666667 L6.33333333,8 L7.66666667,8 L7.66666667,6.66666667 Z M13,6.66666667 L11.6666667,6.66666667 L11.6666667,8 L13,8 L13,6.66666667 Z M5,4 L3.66666667,4 L3.66666667,5.33333333 L5,5.33333333 L5,4 Z M10.3333333,4 L9,4 L9,5.33333333 L10.3333333,5.33333333 L10.3333333,4 Z M7.66666667,4 L6.33333333,4 L6.33333333,5.33333333 L7.66666667,5.33333333 L7.66666667,4 Z M13,4 L11.6666667,4 L11.6666667,5.33333333 L13,5.33333333 L13,4 Z M5,1.33333333 L3.66666667,1.33333333 L3.66666667,2.66666667 L5,2.66666667 L5,1.33333333 Z M10.3333333,1.33333333 L9,1.33333333 L9,2.66666667 L10.3333333,2.66666667 L10.3333333,1.33333333 Z M7.66666667,1.33333333 L6.33333333,1.33333333 L6.33333333,2.66666667 L7.66666667,2.66666667 L7.66666667,1.33333333 Z M13,1.33333333 L11.6666667,1.33333333 L11.6666667,2.66666667 L13,2.66666667 L13,1.33333333 Z" id="Shape" fill="#CCCCCC"></path>
    </g>
</svg>