<?xml version="1.0" encoding="utf-8"?>
<!-- Generator: Adobe Illustrator 22.1.0, SVG Export Plug-In . SVG Version: 6.00 Build 0)  -->
<svg version="1.1" id="Layer_1" xmlns="http://www.w3.org/2000/svg" xmlns:xlink="http://www.w3.org/1999/xlink" x="0px" y="0px"
	 viewBox="0 0 357.1 500" style="enable-background:new 0 0 357.1 500;" xml:space="preserve">
<style type="text/css">
	.st0{fill:#CCCCCC;}
</style>
<title>Asset 1</title>
<g id="Layer_2_1_">
	<g id="Layer_1-2">
		<path class="st0" d="M285.7,71.4h54.6l-54.6-54.6V71.4z M47.6,428.6h261.9v23.8H47.6V428.6z M47.6,381h261.9v23.8H47.6V381z
			 M47.6,333.3h261.9v23.8H47.6V333.3z M47.6,285.7h261.9v23.8H47.6V285.7z M47.6,238.1h261.9v23.8H47.6V238.1z M47.6,190.5h261.9
			v23.8H47.6V190.5z M47.6,142.9h261.9v23.8H47.6V142.9z M47.6,95.3h166.6V119H47.6V95.3z M47.6,47.6h166.6v23.8H47.6V47.6z M0,0
			v500h357.1V95.3h-95.2V0H0z"/>
	</g>
</g>
</svg>
