<?xml version="1.0" encoding="UTF-8"?>
<svg width="16px" height="16px" viewBox="0 0 16 16" version="1.1" xmlns="http://www.w3.org/2000/svg" xmlns:xlink="http://www.w3.org/1999/xlink">
    <title>Help</title>
    <g id="Help" stroke="none" stroke-width="1" fill="none" fill-rule="evenodd">
        <path d="M8,1.33333333 C11.676,1.33333333 14.6666667,4.324 14.6666667,8 C14.6666667,11.676 11.676,14.6666667 8,14.6666667 C4.324,14.6666667 1.33333333,11.676 1.33333333,8 C1.33333333,4.324 4.324,1.33333333 8,1.33333333 Z M8,0 C3.582,0 0,3.582 0,8 C0,12.418 3.582,16 8,16 C12.418,16 16,12.418 16,8 C16,3.582 12.418,0 8,0 Z M8.83333333,11.3333333 C8.83333333,11.7933333 8.46066667,12.1666667 8,12.1666667 C7.54066667,12.1666667 7.16666667,11.7933333 7.16666667,11.3333333 C7.16666667,10.8733333 7.54066667,10.5 8,10.5 C8.46066667,10.5 8.83333333,10.8733333 8.83333333,11.3333333 Z M9.762,4.668 C9.35666667,4.25733333 8.752,4.03133333 8.06133333,4.03133333 C6.608,4.03133333 5.668,5.06466667 5.668,6.66466667 L7.00866667,6.66466667 C7.00866667,5.674 7.56133333,5.32266667 8.034,5.32266667 C8.45666667,5.32266667 8.90533333,5.60333333 8.94333333,6.14 C8.98466667,6.70466667 8.68333333,6.99133333 8.302,7.354 C7.36066667,8.24933333 7.34333333,8.68266667 7.34733333,9.666 L8.684,9.666 C8.67533333,9.22333333 8.704,8.864 9.30733333,8.214 C9.75866667,7.72733333 10.32,7.122 10.3313333,6.19933333 C10.3386667,5.58333333 10.142,5.05333333 9.762,4.668 L9.762,4.668 Z" id="Shape" fill="#666666"></path>
    </g>
</svg>