<?xml version="1.0" encoding="UTF-8"?>
<svg width="16px" height="16px" viewBox="0 0 16 16" version="1.1" xmlns="http://www.w3.org/2000/svg" xmlns:xlink="http://www.w3.org/1999/xlink">
    <title>Location</title>
    <g id="Location" stroke="none" stroke-width="1" fill="none" fill-rule="evenodd">
        <path d="M7.75,1.33333333 C9.847375,1.33333333 11.6875,3.07866667 11.6875,5.068 C11.6875,7.13 10.0514687,9.82266667 7.75,13.5086667 C5.44853125,9.82266667 3.8125,7.13 3.8125,5.068 C3.8125,3.07866667 5.652625,1.33333333 7.75,1.33333333 M7.75,0 C4.9950625,0 2.5,2.26866667 2.5,5.068 C2.5,7.86666667 4.77653125,11.208 7.75,16 C10.7234687,11.208 13,7.86666667 13,5.068 C13,2.26866667 10.5055937,0 7.75,0 Z M7.75,7.33333333 C6.66259375,7.33333333 5.78125,6.438 5.78125,5.33333333 C5.78125,4.22866667 6.66259375,3.33333333 7.75,3.33333333 C8.83740625,3.33333333 9.71875,4.22866667 9.71875,5.33333333 C9.71875,6.438 8.83740625,7.33333333 7.75,7.33333333 Z" id="Shape" fill="#666666"></path>
    </g>
</svg>