<svg width="291" height="224" viewBox="0 0 291 224" fill="none" xmlns="http://www.w3.org/2000/svg">
<path d="M284.948 7.55109C283.711 8.61509 282.404 9.59506 281.037 10.4844L280 8.71465C281.461 7.95678 282.966 7.28744 284.508 6.71022C282.974 6.15635 281.478 5.50311 280.029 4.75466L281.007 2.95556C282.444 3.74756 283.872 5.12622 284.997 5.88889C284.721 4.27174 284.548 2.63888 284.478 1H286.522C286.45 2.63876 286.277 4.2715 286.004 5.88889C287.284 4.85621 288.626 3.90272 290.022 3.03376L291 4.79375C289.592 5.64442 287.676 6.19197 286.463 6.74931C288.012 7.33146 289.527 8.0007 291 8.75377L289.964 10.5235C288.57 9.63573 287.237 8.65577 285.974 7.59021C286.249 9.20736 286.422 10.8402 286.492 12.4791H284.42C284.4 10.8364 284.86 8.97865 284.948 7.55109Z" fill="#F5F7FA"/>
<path d="M237.864 36.6082L204.814 50.6173V21.3239L250.116 0H266.848V155.083H237.864V36.6082Z" fill="#F5F7FA"/>
<path d="M0.201172 53.2368H21.3786L63.4147 106.861C67.2745 111.806 70.6777 116.287 73.6157 120.767H73.9259C73.7708 115.511 73.6157 108.713 73.6157 103.923V53.2368H94.7845V155.083H75.4681L31.7261 99.2964C28.0127 94.351 24.7732 89.8708 21.2149 85.2356H20.9047C21.37 88.9403 21.37 95.2815 21.37 100.382V155.092H0.201172V53.2368Z" fill="#F5F7FA"/>
<path d="M110.354 118.303C110.354 96.2036 125.5 80.1353 147.909 80.1353C170.319 80.1353 185.31 96.2036 185.31 118.303C185.31 140.402 170.164 156.626 147.909 156.626C125.655 156.626 110.354 140.402 110.354 118.303ZM163.978 118.303C163.978 105.939 158.877 96.8239 147.901 96.8239C136.924 96.8239 131.677 105.939 131.677 118.303C131.677 130.666 136.933 139.937 147.901 139.937C158.869 139.937 163.978 130.666 163.978 118.303Z" fill="#F5F7FA"/>
<path d="M194.778 144.882C194.778 138.239 199.879 133.294 206.211 133.294C212.544 133.294 217.489 138.239 217.489 144.882C217.489 151.525 212.389 156.625 206.211 156.625C200.034 156.625 194.778 151.525 194.778 144.882Z" fill="#F5F7FA"/>
<path d="M0.603516 172.771C0.603516 171.668 1.45647 170.789 2.61959 170.789C3.78271 170.789 4.66152 171.642 4.66152 172.771C4.66152 173.9 3.78271 174.727 2.61959 174.727C1.45647 174.727 0.603516 173.874 0.603516 172.771ZM0.965376 176.855H4.27381V189.89H0.965376V176.855Z" fill="#F5F7FA"/>
<path d="M7.31411 176.855H10.1228L10.4502 178.319C11.8287 177.242 13.2934 176.527 14.9132 176.527C16.9809 176.527 19.1004 177.544 19.1004 181.266V189.899H15.792V182.291C15.792 180.689 15.4646 179.396 13.7759 179.396C12.6989 179.396 11.5444 179.974 10.5795 180.775V189.899H7.29688V176.863L7.31411 176.855Z" fill="#F5F7FA"/>
<path d="M28.6553 171.72H33.9798C37.8655 171.72 39.6317 173.951 39.6317 176.321C39.6317 177.889 38.8563 179.353 37.4261 180.068V180.12C39.5455 180.646 40.8465 182.377 40.8465 184.506C40.8465 187.314 38.6926 189.882 34.4795 189.882H28.6639V171.711L28.6553 171.72ZM33.5318 179.302C35.3755 179.302 36.3405 178.285 36.3405 176.872C36.3405 175.459 35.4875 174.442 33.4973 174.442H31.9551V179.293H33.5232L33.5318 179.302ZM34.0832 187.159C36.2888 187.159 37.4778 186.358 37.4778 184.514C37.4778 182.972 36.2888 182.033 34.445 182.033H31.9637V187.159H34.0832Z" fill="#F5F7FA"/>
<path d="M43.2949 172.771C43.2949 171.668 44.1479 170.789 45.311 170.789C46.4741 170.789 47.3529 171.642 47.3529 172.771C47.3529 173.9 46.4741 174.727 45.311 174.727C44.1479 174.727 43.2949 173.874 43.2949 172.771ZM43.6568 176.855H46.9652V189.89H43.6568V176.855Z" fill="#F5F7FA"/>
<path d="M51.0495 186.668V179.414H48.7061V176.846H51.0495V173.814L54.3321 172.849V176.846H58.2781L57.4769 179.414H54.3321V185.867C54.3321 187.082 54.7457 187.521 55.5986 187.521C56.374 187.521 57.0891 187.22 57.5802 186.884L58.5711 189.141C57.6319 189.779 56.0639 190.158 54.7629 190.158C52.4453 190.158 51.0409 188.831 51.0409 186.66L51.0495 186.668Z" fill="#F5F7FA"/>
<path d="M59.1826 183.472C59.1826 179.422 62.1895 176.527 66.0752 176.527C67.7036 176.527 68.8839 176.967 69.5732 177.406V180.189C68.6599 179.526 67.6691 179.172 66.4026 179.172C63.973 179.172 62.5427 180.99 62.5427 183.394C62.5427 186.065 64.0074 187.53 66.2389 187.53C67.4537 187.53 68.3584 187.142 69.2716 186.651L70.2366 188.908C69.1855 189.623 67.5657 190.175 65.7736 190.175C61.5261 190.175 59.1826 187.254 59.1826 183.472Z" fill="#F5F7FA"/>
<path d="M71.1826 183.334C71.1826 179.422 73.8018 176.527 77.6875 176.527C81.5732 176.527 84.2182 179.422 84.2182 183.334C84.2182 187.245 81.5732 190.175 77.6875 190.175C73.8018 190.175 71.1826 187.254 71.1826 183.334ZM80.8322 183.334C80.8322 180.939 79.7553 179.172 77.6875 179.172C75.6197 179.172 74.5427 180.939 74.5427 183.334C74.5427 185.729 75.6197 187.521 77.6875 187.521C79.7553 187.521 80.8322 185.755 80.8322 183.334Z" fill="#F5F7FA"/>
<path d="M86.1924 172.771C86.1924 171.668 87.0453 170.789 88.2085 170.789C89.3716 170.789 90.2504 171.642 90.2504 172.771C90.2504 173.9 89.3716 174.727 88.2085 174.727C87.0453 174.727 86.1924 173.874 86.1924 172.771ZM86.5542 176.855H89.8627V189.89H86.5542V176.855Z" fill="#F5F7FA"/>
<path d="M92.903 176.855H95.7117L96.0391 178.319C97.4176 177.242 98.8823 176.527 100.502 176.527C102.57 176.527 104.689 177.544 104.689 181.266V189.899H101.381V182.291C101.381 180.689 101.053 179.396 99.3648 179.396C98.2878 179.396 97.1333 179.974 96.1683 180.775V189.899H92.8857V176.863L92.903 176.855Z" fill="#F5F7FA"/>
<path d="M114.821 186.668V179.414H112.478V176.846H114.821V173.814L118.104 172.849V176.846H122.05L121.248 179.414H118.104V185.867C118.104 187.082 118.517 187.521 119.37 187.521C120.146 187.521 120.861 187.22 121.352 186.884L122.343 189.141C121.403 189.779 119.835 190.158 118.534 190.158C116.217 190.158 114.812 188.831 114.812 186.66L114.821 186.668Z" fill="#F5F7FA"/>
<path d="M123.997 176.855H126.78L127.142 178.319C128.331 177.13 129.399 176.527 130.726 176.527C131.329 176.527 132.053 176.691 132.57 177.053L131.415 179.836C130.838 179.474 130.312 179.396 129.925 179.396C129.072 179.396 128.357 179.758 127.28 180.689V189.899H123.997V176.863V176.855Z" fill="#F5F7FA"/>
<path d="M141.349 188.65C140.41 189.503 139.23 190.166 137.601 190.166C135.12 190.166 133.276 188.512 133.276 186.005C133.276 184.238 134.129 183.136 135.482 182.446C136.395 181.981 137.524 181.757 138.842 181.705L141.074 181.619V181.206C141.074 179.689 140.083 179.026 138.566 179.026C137.274 179.026 136.085 179.439 135.146 179.939L134.069 177.82C135.611 176.967 137.291 176.527 139.118 176.527C142.616 176.527 144.356 178.13 144.356 181.266V186.556C144.356 188.072 144.408 189.201 144.606 189.89H141.849L141.349 188.65ZM139.307 183.877C138.454 183.902 137.843 184.04 137.403 184.29C136.852 184.592 136.602 185.117 136.602 185.781C136.602 186.909 137.343 187.573 138.532 187.573C139.721 187.573 140.626 186.97 141.065 186.608V183.825L139.299 183.877H139.307Z" fill="#F5F7FA"/>
<path d="M146.613 183.497C146.613 179.362 149.62 176.527 153.756 176.527C154.255 176.527 154.996 176.579 155.522 176.691V170.376H158.83V189.201C157.538 189.839 155.634 190.166 154.031 190.166C149.784 190.166 146.613 187.797 146.613 183.497ZM155.513 187.219V179.414C155.014 179.302 154.6 179.224 153.945 179.224C151.653 179.224 149.973 180.766 149.973 183.446C149.973 185.979 151.602 187.443 153.971 187.443C154.411 187.443 155.074 187.392 155.513 187.219Z" fill="#F5F7FA"/>
<path d="M161.294 183.385C161.294 179.474 163.448 176.519 167.17 176.519C170.892 176.519 172.96 179.164 172.96 183.489V184.264H164.602C164.654 186.28 166.093 187.573 168.273 187.573C169.599 187.573 170.642 187.211 171.581 186.694L172.572 188.951C171.193 189.804 169.565 190.166 167.971 190.166C163.198 190.166 161.303 186.909 161.303 183.385H161.294ZM169.617 181.981C169.565 180.49 168.841 179.034 167.11 179.034C165.481 179.034 164.577 180.413 164.577 181.981H169.625H169.617Z" fill="#F5F7FA"/>
<path d="M179.904 176.854H183.238L186.461 185.729H186.512L189.683 176.854H192.991L187.701 189.976H185.22L179.896 176.854H179.904Z" fill="#F5F7FA"/>
<path d="M193.405 183.334C193.405 179.422 196.024 176.527 199.91 176.527C203.796 176.527 206.441 179.422 206.441 183.334C206.441 187.245 203.796 190.175 199.91 190.175C196.024 190.175 193.405 187.254 193.405 183.334ZM203.055 183.334C203.055 180.939 201.978 179.172 199.91 179.172C197.842 179.172 196.765 180.939 196.765 183.334C196.765 185.729 197.842 187.521 199.91 187.521C201.978 187.521 203.055 185.755 203.055 183.334Z" fill="#F5F7FA"/>
<path d="M208.88 170.376H212.162V186.065C212.162 186.978 212.524 187.254 213.127 187.254C213.291 187.254 213.679 187.202 213.955 187.09L214.592 189.623C213.817 189.951 212.912 190.088 212.162 190.088C209.983 190.088 208.88 189.012 208.88 186.944V170.376Z" fill="#F5F7FA"/>
<path d="M216.521 187.607C216.22 186.892 216.082 186.091 216.082 184.876V176.854H219.365V184.548C219.365 185.238 219.451 185.763 219.64 186.177C219.968 186.952 220.605 187.366 221.596 187.366C222.673 187.366 223.69 186.84 224.267 186.211V176.863H227.575V186.676C227.575 188.081 227.601 189.209 227.799 189.899H224.991L224.491 188.546C223.5 189.425 222.147 190.174 220.442 190.174C219.175 190.174 217.323 189.649 216.53 187.607H216.521Z" fill="#F5F7FA"/>
<path d="M230.694 176.855H233.451L233.779 178.319C235.071 177.303 236.561 176.527 238.164 176.527C239.767 176.527 240.999 177.242 241.636 178.543C243.204 177.217 244.858 176.527 246.323 176.527C248.615 176.527 250.648 177.794 250.648 181.24V189.899H247.366V182.153C247.366 180.611 247.064 179.396 245.384 179.396C244.333 179.396 243.23 179.922 242.3 180.689C242.325 180.827 242.325 180.99 242.325 181.188V189.899H239.017V182.179C239.017 180.663 238.767 179.396 237.087 179.396C236.036 179.396 234.933 179.922 233.968 180.689V189.899H230.686V176.863L230.694 176.855Z" fill="#F5F7FA"/>
<path d="M253.035 183.385C253.035 179.474 255.189 176.519 258.911 176.519C262.633 176.519 264.701 179.164 264.701 183.489V184.264H256.344C256.395 186.28 257.834 187.573 260.005 187.573C261.332 187.573 262.375 187.211 263.314 186.694L264.305 188.951C262.926 189.804 261.298 190.166 259.704 190.166C254.931 190.166 253.035 186.909 253.035 183.385ZM261.358 181.981C261.306 180.49 260.583 179.034 258.851 179.034C257.222 179.034 256.318 180.413 256.318 181.981H261.367H261.358Z" fill="#F5F7FA"/>
<path d="M1.92992 206.984H0V204.416H1.92992V202.598C1.92992 199.54 3.72199 197.937 6.36701 197.937C7.21997 197.937 8.21078 198.101 9.0982 198.514L8.43479 201.133C7.88338 200.944 7.33197 200.772 6.83226 200.772C5.72945 200.772 5.22974 201.435 5.22974 202.564V204.407H8.62433L7.82307 206.975H5.22974V217.452H1.92992V206.975V206.984Z" fill="#F5F7FA"/>
<path d="M9.15039 210.904C9.15039 206.993 11.7696 204.098 15.6553 204.098C19.5409 204.098 22.186 206.993 22.186 210.904C22.186 214.816 19.5409 217.745 15.6553 217.745C11.7696 217.745 9.15039 214.824 9.15039 210.904ZM18.8 210.904C18.8 208.509 17.723 206.743 15.6553 206.743C13.5875 206.743 12.5105 208.509 12.5105 210.904C12.5105 213.299 13.5875 215.091 15.6553 215.091C17.723 215.091 18.8 213.325 18.8 210.904Z" fill="#F5F7FA"/>
<path d="M24.5381 204.425H27.321L27.6828 205.89C28.8718 204.701 29.9401 204.098 31.267 204.098C31.8701 204.098 32.5938 204.261 33.1107 204.623L31.9562 207.406C31.379 207.044 30.8534 206.967 30.4657 206.967C29.6127 206.967 28.8976 207.329 27.8207 208.259V217.469H24.5381V204.434V204.425Z" fill="#F5F7FA"/>
<path d="M40.2275 209.138C40.2275 203.538 43.312 199.126 48.4469 199.126C49.6876 199.126 51.1523 199.35 52.4963 199.979L51.6434 202.547C50.6784 202.047 49.6273 201.806 48.6106 201.806C46.1552 201.806 44.1218 203.434 43.648 207.156C44.7508 206.415 46.2155 205.829 47.9214 205.829C50.9541 205.829 53.4354 207.871 53.4354 211.456C53.4354 215.341 50.7646 217.745 47.1201 217.745C43.4757 217.745 40.2275 215.074 40.2275 209.147V209.138ZM49.9288 211.921C49.9288 209.715 48.7399 208.526 47.034 208.526C45.8795 208.526 44.5009 209.103 43.7255 209.767C43.8117 213.299 45.3539 215.057 47.1718 215.057C48.9897 215.057 49.9288 213.868 49.9288 211.912V211.921Z" fill="#F5F7FA"/>
<path d="M60.8181 220.855C61.4212 221.157 62.0588 221.355 62.7739 221.355C64.2386 221.355 65.3931 220.364 66.4097 217.383L60.5338 204.425H63.9543L67.9003 213.687H67.952L71.1225 204.425H74.4568L69.4683 217.874C67.4264 223.302 65.2811 223.991 62.9031 223.991C61.8262 223.991 60.8612 223.767 59.9824 223.388L60.8095 220.855H60.8181Z" fill="#F5F7FA"/>
<path d="M74.9736 210.956C74.9736 207.044 77.1276 204.089 80.8496 204.089C84.5715 204.089 86.6393 206.734 86.6393 211.059V211.834H78.2821C78.3338 213.85 79.7726 215.143 81.9524 215.143C83.2792 215.143 84.3217 214.781 85.2608 214.264L86.2516 216.521C84.8731 217.374 83.2447 217.736 81.6508 217.736C76.8777 217.736 74.9823 214.479 74.9823 210.956H74.9736ZM83.2964 209.551C83.2447 208.061 82.521 206.605 80.7892 206.605C79.1609 206.605 78.2562 207.983 78.2562 209.551H83.305H83.2964Z" fill="#F5F7FA"/>
<path d="M96.2975 216.22C95.3584 217.073 94.1781 217.736 92.5497 217.736C90.0684 217.736 88.2246 216.082 88.2246 213.575C88.2246 211.809 89.0776 210.706 90.4302 210.017C91.3435 209.551 92.4722 209.327 93.7904 209.276L96.0218 209.19V208.776C96.0218 207.26 95.031 206.596 93.5147 206.596C92.2223 206.596 91.0333 207.01 90.0942 207.509L89.0173 205.39C90.5595 204.537 92.2395 204.098 94.0661 204.098C97.564 204.098 99.3044 205.7 99.3044 208.836V214.126C99.3044 215.643 99.3561 216.771 99.5543 217.461H96.7972L96.2975 216.22ZM94.2556 211.447C93.4027 211.473 92.7909 211.611 92.3515 211.86C91.8001 212.162 91.5503 212.688 91.5503 213.351C91.5503 214.48 92.2912 215.143 93.4802 215.143C94.6692 215.143 95.5738 214.54 96.0132 214.178V211.395L94.247 211.447H94.2556Z" fill="#F5F7FA"/>
<path d="M102.277 204.425H105.06L105.422 205.89C106.611 204.701 107.679 204.098 109.006 204.098C109.609 204.098 110.333 204.261 110.85 204.623L109.695 207.406C109.118 207.044 108.593 206.967 108.205 206.967C107.352 206.967 106.637 207.329 105.56 208.259V217.469H102.277V204.434V204.425Z" fill="#F5F7FA"/>
<path d="M112.056 214.074C113.047 214.712 114.287 215.151 115.614 215.151C116.941 215.151 117.906 214.764 117.906 213.773C117.906 211.567 111.789 212.394 111.789 208.035C111.789 205.717 113.667 204.089 116.726 204.089C118.19 204.089 119.483 204.339 120.56 204.726V207.509C119.457 207.044 118.242 206.682 116.863 206.682C115.761 206.682 115.02 207.01 115.02 207.871C115.02 209.939 121.137 209.138 121.137 213.687C121.137 216.556 118.656 217.736 115.847 217.736C113.805 217.736 112.125 217.133 111.048 216.47L112.065 214.074H112.056Z" fill="#F5F7FA"/>
<path d="M129.149 200.341C129.149 199.238 130.002 198.359 131.166 198.359C132.329 198.359 133.207 199.212 133.207 200.341C133.207 201.47 132.329 202.297 131.166 202.297C130.002 202.297 129.149 201.444 129.149 200.341ZM129.511 204.425H132.82V217.46H129.511V204.425Z" fill="#F5F7FA"/>
<path d="M135.861 204.425H138.67L138.997 205.89C140.376 204.813 141.84 204.098 143.46 204.098C145.528 204.098 147.647 205.114 147.647 208.836V217.469H144.339V209.862C144.339 208.259 144.011 206.967 142.323 206.967C141.246 206.967 140.091 207.544 139.126 208.345V217.469H135.844V204.434L135.861 204.425Z" fill="#F5F7FA"/>
<path d="M154.799 219.451C155.299 219.701 155.928 219.778 156.453 219.778C158.297 219.778 158.547 218.564 158.547 217.108V199.299H161.855V217.547C161.855 220.442 160.339 222.561 156.729 222.561C155.575 222.561 154.851 222.398 154.136 222.122L154.799 219.451Z" fill="#F5F7FA"/>
<path d="M172.925 216.22C171.986 217.073 170.806 217.736 169.178 217.736C166.696 217.736 164.853 216.082 164.853 213.575C164.853 211.809 165.705 210.706 167.058 210.017C167.971 209.551 169.1 209.327 170.418 209.276L172.65 209.19V208.776C172.65 207.26 171.659 206.596 170.143 206.596C168.85 206.596 167.661 207.01 166.722 207.509L165.645 205.39C167.187 204.537 168.867 204.098 170.694 204.098C174.192 204.098 175.932 205.7 175.932 208.836V214.126C175.932 215.643 175.984 216.771 176.182 217.461H173.425L172.925 216.22ZM170.884 211.447C170.031 211.473 169.419 211.611 168.979 211.86C168.428 212.162 168.178 212.688 168.178 213.351C168.178 214.48 168.919 215.143 170.108 215.143C171.297 215.143 172.202 214.54 172.641 214.178V211.395L170.875 211.447H170.884Z" fill="#F5F7FA"/>
<path d="M178.906 204.916C180.336 204.416 182.051 204.089 183.843 204.089C188.53 204.089 190.985 206.734 190.985 210.895C190.985 215.057 188.28 217.736 184.205 217.736C183.516 217.736 182.826 217.624 182.189 217.435V224H178.906V204.925V204.916ZM183.955 215.005C186.385 215.005 187.625 213.402 187.625 210.895C187.625 208.112 186.083 206.786 183.74 206.786C183.162 206.786 182.689 206.872 182.197 207.01V214.678C182.775 214.902 183.274 215.005 183.964 215.005H183.955Z" fill="#F5F7FA"/>
<path d="M200.65 216.22C199.711 217.073 198.531 217.736 196.902 217.736C194.421 217.736 192.577 216.082 192.577 213.575C192.577 211.809 193.43 210.706 194.783 210.017C195.696 209.551 196.825 209.327 198.143 209.276L200.374 209.19V208.776C200.374 207.26 199.384 206.596 197.867 206.596C196.575 206.596 195.386 207.01 194.447 207.509L193.37 205.39C194.912 204.537 196.592 204.098 198.419 204.098C201.917 204.098 203.657 205.7 203.657 208.836V214.126C203.657 215.643 203.709 216.771 203.907 217.461H201.15L200.65 216.22ZM198.608 211.447C197.755 211.473 197.143 211.611 196.704 211.86C196.153 212.162 195.903 212.688 195.903 213.351C195.903 214.48 196.644 215.143 197.833 215.143C199.022 215.143 199.926 214.54 200.366 214.178V211.395L198.6 211.447H198.608Z" fill="#F5F7FA"/>
<path d="M206.631 204.425H209.439L209.767 205.89C211.145 204.813 212.61 204.098 214.23 204.098C216.297 204.098 218.417 205.114 218.417 208.836V217.469H215.108V209.862C215.108 208.259 214.781 206.967 213.092 206.967C212.015 206.967 210.861 207.544 209.896 208.345V217.469H206.613V204.434L206.631 204.425Z" fill="#F5F7FA"/>
</svg>
