<svg width="64" height="65" viewBox="0 0 64 65" fill="none" xmlns="http://www.w3.org/2000/svg">
<rect x="37.8276" y="42.1211" width="17.8778" height="4" transform="rotate(45 37.8276 42.1211)" fill="#F7694D"/>
<rect x="44.7964" y="54.7734" width="17.9623" height="4" transform="rotate(-45 44.7964 54.7734)" fill="#F7694D"/>
<rect x="45.5073" y="53.0703" width="23" height="4" transform="rotate(-90 45.5073 53.0703)" fill="#F7694D"/>
<rect x="9.99951" y="35.0703" width="31" height="4" fill="#F7694D"/>
<rect x="9.99951" y="9.07031" width="44" height="4" fill="#F7694D"/>
<rect x="7.99951" y="9.07031" width="30" height="4" transform="rotate(90 7.99951 9.07031)" fill="#F7694D"/>
<rect x="59.9995" y="9.07031" width="30" height="4" transform="rotate(90 59.9995 9.07031)" fill="#F7694D"/>
<path d="M41 24.0703C41 27.5798 37.3645 31.0703 32 31.0703C26.6355 31.0703 23 27.5798 23 24.0703C23 20.5609 26.6355 17.0703 32 17.0703C37.3645 17.0703 41 20.5609 41 24.0703Z" stroke="#F7694D" stroke-width="4"/>
</svg>
