<svg xmlns="http://www.w3.org/2000/svg" width="19.65" height="57.84" viewBox="0 0 19.65 57.84">
  <g id="Group_2" data-name="Group 2" transform="translate(-577 -658)">
    <path id="Subtraction_6" data-name="Subtraction 6" d="M13,54.236h0a13.082,13.082,0,0,1-2.615-1.4,19.31,19.31,0,0,1-5.4-5.893A32.009,32.009,0,0,1,1.336,38.2,42.336,42.336,0,0,1,0,27.5,42.332,42.332,0,0,1,1.336,16.8,32.009,32.009,0,0,1,4.98,8.054a19.31,19.31,0,0,1,5.4-5.893A11.593,11.593,0,0,1,17,0V2.5a11.191,11.191,0,0,0-4.453,1.85,17.807,17.807,0,0,0-4.99,5.422,29.4,29.4,0,0,0-3.363,8.043A38.8,38.8,0,0,0,2.96,27.668a38.8,38.8,0,0,0,1.234,9.85A29.37,29.37,0,0,0,7.557,45.56a17.811,17.811,0,0,0,4.99,5.423c.149.1.3.2.453.3v2.956Z" transform="translate(577 658)" fill="#c9252c"/>
    <path id="Subtraction_7" data-name="Subtraction 7" d="M40.263,36.043h0a74.017,74.017,0,0,0-13.969-2.687,22.371,22.371,0,0,0,4.356-2.488c.086-.059.17-.122.251-.187a4.878,4.878,0,0,0,1.62-2.5l.014.011.034.027a21.61,21.61,0,0,0,.943-4.971,93.523,93.523,0,0,0,6.751,12.8Z" transform="translate(556.387 679.797)" fill="#c9252c"/>
  </g>
</svg>
