<svg height="50" width="110" xmlns="http://www.w3.org/2000/svg"><g fill="#fff" fill-rule="evenodd"><path d="M.724 13.251H0V13h6.24v.251H4.518l3.448 17.146 3.448-17.146H9.379V13h3.413v.251h-1.035L6.93 37.135H5.551zM8.93 36.884h1.028L14.756 13h1.37l4.799 23.884h.797v.251h-6.28v-.251h1.713l-1.482-7.402h-3.89L10.3 36.884h2.022v.251H8.93zm2.904-7.654h3.788l-1.894-9.484z"/><path d="M21.314 36.818h.846V13.25h-1.404V13h4.822l5.672 15.148V13.25h-1.643V13h3.217v.25H31.57v23.885h-.667l-8.422-22.68v22.363h1.65v.25h-2.817zM33.79 37.135v-.251h.905V13.25h-.906V13h5.31v.251h-.937v23.633h.937v.251zM43.319 37.135v-.251h1.12V13.26h-.068c-1.664 0-3.471 1.973-3.777 9.172h-.288V13h12.067v9.432h-.288c-.34-7.2-2.283-9.172-3.777-9.172h-.101v23.624h1.154v.251zM56.468 37.135v-.251h1.098V25.655l-3.528-12.404h-.7V13h6.026v.251h-1.73l3.428 11.7 2.696-11.7h-1.864V13h3.03v.251h-.833l-2.83 12.404v11.229h1.1v.251zM68.061 37.135v-.251h.976V13.25h-.976V13h10.62v7.217h-.286c-.303-5.203-2.213-6.966-4.839-6.966h-.783v11.154h.446c2.037 0 2.778-1.033 2.98-4.188h.252v8.862h-.252c-.202-3.457-.943-4.423-2.744-4.423h-.682v12.228h1.456v.251zM76.991 36.884h1.035L82.853 13h1.379l4.827 23.884h.724v.251h-6.241v-.251h1.724l-1.491-7.402H79.86l-1.491 7.402h2.034v.251h-3.413zm2.922-7.654h3.81l-1.905-9.484zM89.783 36.884h.905V13.25h-.905V13h5.31v.251h-.938v23.633h.938v.251h-5.31zM104.196 34.081v-5.917c0-3.16-.881-3.825-2.651-3.825h-.677v12.584h1.436v.252h-6.005v-.252h.947V13.252h-.947V13h5.254c3.85 0 6.33 1.815 6.33 5.951 0 3.631-2.17 4.91-5.188 5.245v.034c3.149.437 5.09 1.614 5.09 5.884v5.834c0 .74.262.941.653.941.261 0 .457-.067.653-.134v.252c-.204.126-.816.37-1.665.37-2.023 0-3.23-.74-3.23-3.296zm-3.328-20.83v10.836h.49c1.761 0 3.034-.059 3.034-4.497v-1.177c0-4.303-1.273-5.161-2.839-5.161z"/></g></svg>