<?xml version="1.0" encoding="UTF-8"?> <svg xmlns="http://www.w3.org/2000/svg" width="24" height="24" viewBox="0 0 24 24" fill="none"> <path d="M5.07178 22.2032C4.44206 22.2032 3.90546 21.9814 3.46198 21.538C3.01849 21.0945 2.79675 20.5579 2.79675 19.9282V6.07166C2.79675 5.44194 3.01849 4.90534 3.46198 4.46186C3.90546 4.01837 4.44206 3.79663 5.07178 3.79663H6.00003V1.79663H8.13753V3.79663H15.8625V1.79663H18V3.79663H18.9283C19.558 3.79663 20.0946 4.01837 20.5381 4.46186C20.9816 4.90534 21.2033 5.44194 21.2033 6.07166V19.9282C21.2033 20.5579 20.9816 21.0945 20.5381 21.538C20.0946 21.9814 19.558 22.2032 18.9283 22.2032H5.07178ZM5.07178 19.9282H18.9283V9.99991H5.07178V19.9282ZM5.07178 7.99991H18.9283V6.07166H5.07178V7.99991Z" fill="#9799BB"></path> </svg> 