<?xml version="1.0" encoding="UTF-8"?> <svg xmlns="http://www.w3.org/2000/svg" width="128" height="128" viewBox="0 0 128 128" fill="none"> <path d="M118.46 71.5827C118.265 71.5496 118.065 71.5554 117.872 71.5997C117.679 71.644 117.497 71.7259 117.336 71.8407C117.175 71.9555 117.038 72.1011 116.933 72.2689C116.829 72.4367 116.758 72.6236 116.726 72.8188C113.014 94.9383 95.6588 112.294 73.5392 116.005C73.1454 116.071 72.7939 116.291 72.5621 116.616C72.3303 116.942 72.2372 117.346 72.3032 117.739C72.4411 118.563 73.2239 119.115 74.0375 118.975C97.4231 115.052 115.772 96.703 119.696 73.3168C119.729 73.1217 119.723 72.9222 119.678 72.7295C119.634 72.5368 119.552 72.3547 119.437 72.1937C119.322 72.0326 119.177 71.8958 119.009 71.791C118.842 71.6862 118.655 71.6154 118.46 71.5827ZM11.2968 56.5033C11.6527 56.5027 11.9969 56.3761 12.2684 56.146C12.5398 55.9159 12.7211 55.5971 12.7801 55.2462C16.4913 33.1266 33.8468 15.7712 55.9666 12.0596C56.3553 11.9879 56.7001 11.7662 56.9268 11.4426C57.1536 11.1189 57.244 10.719 57.1786 10.3293C57.1132 9.93954 56.8973 9.59111 56.5773 9.35912C56.2574 9.12713 55.8591 9.03018 55.4683 9.08918C32.0824 13.0136 13.7338 31.362 9.80994 54.7482C9.65608 55.6649 10.3627 56.5033 11.2968 56.5033ZM55.9666 116.005C33.8471 112.294 16.4916 94.9383 12.7801 72.8188C12.7475 72.6237 12.6769 72.4369 12.5721 72.2691C12.4673 72.1014 12.3304 71.9559 12.1694 71.8411C12.0083 71.7263 11.8262 71.6444 11.6334 71.6001C11.4407 71.5557 11.2411 71.5498 11.046 71.5827C10.851 71.6154 10.6643 71.6862 10.4966 71.7911C10.3289 71.8959 10.1835 72.0328 10.0687 72.1939C9.95396 72.3549 9.87203 72.537 9.82763 72.7297C9.78322 72.9224 9.77721 73.122 9.80994 73.3171C13.7338 96.7027 32.0827 115.051 55.4686 118.976C56.2814 119.115 57.0641 118.565 57.2027 117.74C57.2354 117.545 57.2294 117.345 57.185 117.152C57.1406 116.96 57.0587 116.778 56.9439 116.616C56.8291 116.455 56.6837 116.319 56.516 116.214C56.3484 116.109 56.1617 116.038 55.9666 116.005ZM73.5392 12.0596C95.6588 15.7712 113.015 33.1266 116.726 55.2462C116.785 55.5972 116.966 55.9161 117.238 56.1463C117.509 56.3764 117.853 56.5029 118.209 56.5033C118.428 56.5035 118.645 56.4559 118.843 56.3639C119.042 56.2719 119.218 56.1377 119.36 55.9706C119.501 55.8036 119.605 55.6076 119.663 55.3965C119.721 55.1854 119.732 54.9642 119.696 54.7482C115.772 31.3623 97.4237 13.0133 74.0372 9.08948C73.8422 9.05679 73.6426 9.06282 73.45 9.10725C73.2573 9.15167 73.0752 9.23361 72.9142 9.34839C72.7532 9.46317 72.6163 9.60854 72.5115 9.7762C72.4067 9.94386 72.3359 10.1305 72.3032 10.3256C72.2705 10.5206 72.2765 10.7201 72.3209 10.9128C72.3654 11.1055 72.4473 11.2876 72.5621 11.4486C72.6769 11.6096 72.8222 11.7464 72.9899 11.8513C73.1576 11.9561 73.3442 12.0269 73.5392 12.0596Z" fill="white"></path> <path d="M108.395 65.5385H124.988C125.186 65.5385 125.382 65.4996 125.565 65.4239C125.747 65.3482 125.913 65.2373 126.053 65.0974C126.193 64.9575 126.304 64.7915 126.38 64.6087C126.455 64.426 126.494 64.2301 126.494 64.0323C126.494 63.8346 126.455 63.6388 126.38 63.4561C126.304 63.2734 126.193 63.1074 126.053 62.9675C125.913 62.8277 125.747 62.7168 125.565 62.6412C125.382 62.5656 125.186 62.5267 124.988 62.5268H108.395C107.615 39.6419 89.1435 21.1706 66.2589 20.3909V3.79742C66.2589 3.39804 66.1003 3.01502 65.8179 2.73262C65.5355 2.45022 65.1525 2.29156 64.7531 2.29156C64.3537 2.29156 63.9707 2.45022 63.6883 2.73262C63.4059 3.01502 63.2472 3.39804 63.2472 3.79742V20.3909C40.3624 21.1706 21.8911 39.6419 21.1114 62.5268H4.51788C4.1185 62.5268 3.73548 62.6854 3.45308 62.9678C3.17067 63.2502 3.01202 63.6333 3.01202 64.0326C3.01202 64.432 3.17067 64.815 3.45308 65.0974C3.73548 65.3798 4.1185 65.5385 4.51788 65.5385H21.1114C21.8911 88.4234 40.3624 106.894 63.2472 107.674V124.268C63.2472 124.466 63.2861 124.661 63.3617 124.844C63.4374 125.027 63.5483 125.193 63.6881 125.333C63.8279 125.472 63.9939 125.583 64.1766 125.659C64.3592 125.735 64.555 125.774 64.7528 125.774C64.9506 125.774 65.1464 125.735 65.3292 125.659C65.5119 125.584 65.678 125.473 65.8179 125.333C65.9577 125.193 66.0687 125.027 66.1444 124.844C66.2201 124.661 66.259 124.466 66.2589 124.268V107.674C89.1435 106.894 107.615 88.4234 108.395 65.5385ZM66.2589 104.66V95.6186C82.5007 94.8533 95.5747 81.7793 96.3397 65.5379H105.381C104.604 86.7624 87.4829 103.884 66.2589 104.66ZM64.7528 35.4207C80.5296 35.4207 93.3647 48.2558 93.3647 64.0323C93.3647 79.8091 80.5296 92.6442 64.7528 92.6442C48.9763 92.6442 36.1412 79.8091 36.1412 64.0323C36.1412 48.2558 48.9763 35.4207 64.7528 35.4207ZM105.381 62.5268H96.3391C95.5741 46.285 82.5001 33.211 66.2583 32.446V23.4045C87.4829 24.1814 104.604 41.3025 105.381 62.5268ZM63.2472 23.4045V32.446C47.0055 33.2107 33.9315 46.2854 33.1665 62.5268H24.1249C24.9019 41.3025 42.023 24.1814 63.2472 23.4045ZM24.1249 65.5385H33.1665C33.9312 81.7802 47.0058 94.8542 63.2472 95.6195V104.661C42.023 103.884 24.9019 86.7624 24.1249 65.5385Z" fill="white"></path> <path d="M27.8588 5.30328C29.1064 5.30328 30.1178 4.29192 30.1178 3.04434C30.1178 1.79676 29.1064 0.7854 27.8588 0.7854C26.6112 0.7854 25.5999 1.79676 25.5999 3.04434C25.5999 4.29192 26.6112 5.30328 27.8588 5.30328Z" fill="white"></path> <path d="M2.25894 23.3739C3.50652 23.3739 4.51788 22.3625 4.51788 21.1149C4.51788 19.8674 3.50652 18.856 2.25894 18.856C1.01136 18.856 0 19.8674 0 21.1149C0 22.3625 1.01136 23.3739 2.25894 23.3739Z" fill="white"></path> <path d="M97.1295 5.30328C98.3771 5.30328 99.3884 4.29192 99.3884 3.04434C99.3884 1.79676 98.3771 0.7854 97.1295 0.7854C95.8819 0.7854 94.8705 1.79676 94.8705 3.04434C94.8705 4.29192 95.8819 5.30328 97.1295 5.30328Z" fill="white"></path> <path d="M124.235 36.9269C125.483 36.9269 126.494 35.9155 126.494 34.668C126.494 33.4204 125.483 32.409 124.235 32.409C122.988 32.409 121.976 33.4204 121.976 34.668C121.976 35.9155 122.988 36.9269 124.235 36.9269Z" fill="white"></path> <path d="M125.741 100.174C126.989 100.174 128 99.1622 128 97.9146C128 96.667 126.989 95.6556 125.741 95.6556C124.493 95.6556 123.482 96.667 123.482 97.9146C123.482 99.1622 124.493 100.174 125.741 100.174Z" fill="white"></path> <path d="M103.153 121.256C104.4 121.256 105.412 120.245 105.412 118.997C105.412 117.75 104.4 116.739 103.153 116.739C101.905 116.739 100.894 117.75 100.894 118.997C100.894 120.245 101.905 121.256 103.153 121.256Z" fill="white"></path> <path d="M38.4001 125.774C39.6477 125.774 40.6591 124.762 40.6591 123.515C40.6591 122.267 39.6477 121.256 38.4001 121.256C37.1525 121.256 36.1412 122.267 36.1412 123.515C36.1412 124.762 37.1525 125.774 38.4001 125.774Z" fill="white"></path> <path d="M3.7648 97.1621C5.01237 97.1621 6.02373 96.1507 6.02373 94.9032C6.02373 93.6556 5.01237 92.6442 3.7648 92.6442C2.51722 92.6442 1.50586 93.6556 1.50586 94.9032C1.50586 96.1507 2.51722 97.1621 3.7648 97.1621Z" fill="white"></path> <path d="M117.459 21.8677C123.271 21.8677 128 17.1391 128 11.3267C128 5.51434 123.271 0.785706 117.459 0.785706C111.647 0.785706 106.918 5.51434 106.918 11.3267C106.918 17.1391 111.647 21.8677 117.459 21.8677ZM117.459 3.79742C121.61 3.79742 124.988 7.17497 124.988 11.3267C124.988 15.4784 121.61 18.856 117.459 18.856C113.307 18.856 109.93 15.4784 109.93 11.3267C109.93 7.17497 113.307 3.79742 117.459 3.79742ZM15.0589 109.209C10.0767 109.209 6.02343 113.262 6.02343 118.244C6.02343 123.226 10.0767 127.279 15.0589 127.279C20.0411 127.279 24.0943 123.226 24.0943 118.244C24.0943 113.262 20.0411 109.209 15.0589 109.209ZM15.0589 124.268C11.7376 124.268 9.03545 121.566 9.03545 118.244C9.03545 114.923 11.7376 112.221 15.0589 112.221C18.3801 112.221 21.0823 114.923 21.0823 118.244C21.0823 121.565 18.3801 124.268 15.0589 124.268Z" fill="white"></path> <path d="M79.9215 55.913L78.8056 57.2999C77.1382 54.6739 74.7597 52.5419 71.9389 51.1847C71.9612 49.714 71.5501 48.3666 70.816 47.2165L72.9559 43.2067C73.1428 42.8492 73.181 42.4324 73.062 42.0469C72.943 41.6615 72.6766 41.3386 72.3207 41.1487C71.9648 40.9588 71.5483 40.9171 71.1618 41.0329C70.7754 41.1486 70.4503 41.4123 70.2574 41.7666L68.5482 44.9698C66.2654 43.5435 63.3102 43.4875 60.9369 44.9735L59.2276 41.7709C59.1341 41.5919 59.006 41.4333 58.8508 41.3041C58.6956 41.1749 58.5163 41.0778 58.3234 41.0182C58.1305 40.9587 57.9276 40.9379 57.7266 40.9572C57.5256 40.9764 57.3304 41.0352 57.1523 41.1303C56.9741 41.2254 56.8166 41.3548 56.6887 41.5111C56.5608 41.6673 56.4651 41.8474 56.4072 42.0408C56.3493 42.2343 56.3302 42.4373 56.3512 42.6381C56.3721 42.8389 56.4326 43.0336 56.5291 43.211L58.6703 47.2232C57.9392 48.3709 57.5291 49.7159 57.5514 51.185C54.7568 52.5297 52.3967 54.6345 50.7317 57.2265L49.6428 55.9014C49.4993 55.7268 49.319 55.5861 49.1147 55.4896C48.9104 55.393 48.6872 55.3429 48.4612 55.3429H43.8118C43.4062 55.3429 43.0171 55.504 42.7303 55.7908C42.4435 56.0776 42.2824 56.4667 42.2824 56.8723C42.2824 57.2779 42.4435 57.6669 42.7303 57.9537C43.0171 58.2406 43.4062 58.4017 43.8118 58.4017H47.7384L49.2179 60.2021C48.5824 61.8393 48.212 63.5673 48.1204 65.321H44.9732C44.5676 65.321 44.1786 65.4822 43.8918 65.769C43.6049 66.0558 43.4438 66.4448 43.4438 66.8505C43.4438 67.2561 43.6049 67.6451 43.8918 67.9319C44.1786 68.2187 44.5676 68.3799 44.9732 68.3799H48.2449C48.6041 71.1062 49.6369 73.7001 51.2499 75.9272L50.2344 76.9507H46.1377C45.7321 76.9507 45.3431 77.1118 45.0562 77.3986C44.7694 77.6855 44.6083 78.0745 44.6083 78.4801C44.6083 78.8857 44.7694 79.2747 45.0562 79.5616C45.3431 79.8484 45.7321 80.0095 46.1377 80.0095H50.8712C51.279 80.0095 51.6696 79.8468 51.9568 79.5571L53.2666 78.2372C59.7253 84.3971 69.8228 84.3748 76.2561 78.2057L77.6252 79.5651C77.9117 79.8496 78.2991 80.0093 78.7028 80.0092H83.3519C84.1968 80.0092 84.8813 79.3246 84.8813 78.4798C84.8813 77.6349 84.1968 76.9504 83.3519 76.9504H79.3329L78.2657 75.8905C79.8639 73.6714 80.8874 71.0908 81.2447 68.3796H84.6008C85.0065 68.3796 85.3955 68.2184 85.6823 67.9316C85.9691 67.6448 86.1303 67.2558 86.1303 66.8502C86.1303 66.4445 85.9691 66.0555 85.6823 65.7687C85.3955 65.4819 85.0065 65.3207 84.6008 65.3207H81.3692C81.2799 63.6043 80.9234 61.9124 80.3127 60.3058L81.8455 58.4014H85.6782C86.0838 58.4014 86.4728 58.2403 86.7596 57.9534C87.0464 57.6666 87.2076 57.2776 87.2076 56.872C87.2076 56.4663 87.0464 56.0773 86.7596 55.7905C86.4728 55.5037 86.0838 55.3426 85.6782 55.3426H81.1132C80.8845 55.3425 80.6588 55.3937 80.4525 55.4925C80.2463 55.5912 80.0648 55.7349 79.9215 55.913ZM64.7451 46.9378C66.6682 46.9378 68.2845 48.2577 68.7476 50.038C66.1192 49.3851 63.371 49.3851 60.7427 50.038C61.2058 48.2577 62.822 46.9378 64.7451 46.9378ZM66.2742 79.6966V63.3616C66.2742 62.9559 66.1131 62.5669 65.8263 62.2801C65.5395 61.9933 65.1504 61.8322 64.7448 61.8322C64.3392 61.8322 63.9502 61.9933 63.6634 62.2801C63.3765 62.5669 63.2154 62.9559 63.2154 63.3616V79.6966C56.4401 78.934 51.156 73.1718 51.156 66.1959C51.156 58.703 57.2519 52.6071 64.7448 52.6071C72.2377 52.6071 78.3336 58.703 78.3336 66.1959C78.3336 73.1718 73.0495 78.934 66.2742 79.6966Z" fill="white"></path> <path d="M69.9782 61.0353C70.9416 61.0353 71.7226 60.2543 71.7226 59.2908C71.7226 58.3274 70.9416 57.5464 69.9782 57.5464C69.0147 57.5464 68.2337 58.3274 68.2337 59.2908C68.2337 60.2543 69.0147 61.0353 69.9782 61.0353Z" fill="white"></path> <path d="M74.63 69.1764C75.5935 69.1764 76.3745 68.3954 76.3745 67.432C76.3745 66.4685 75.5935 65.6875 74.63 65.6875C73.6666 65.6875 72.8856 66.4685 72.8856 67.432C72.8856 68.3954 73.6666 69.1764 74.63 69.1764Z" fill="white"></path> <path d="M69.9782 75.0343C70.9416 75.0343 71.7226 74.2533 71.7226 73.2899C71.7226 72.3264 70.9416 71.5454 69.9782 71.5454C69.0147 71.5454 68.2337 72.3264 68.2337 73.2899C68.2337 74.2533 69.0147 75.0343 69.9782 75.0343Z" fill="white"></path> <path d="M59.5115 61.0353C60.4749 61.0353 61.2559 60.2543 61.2559 59.2908C61.2559 58.3274 60.4749 57.5464 59.5115 57.5464C58.5481 57.5464 57.767 58.3274 57.767 59.2908C57.767 60.2543 58.5481 61.0353 59.5115 61.0353Z" fill="white"></path> <path d="M54.8599 69.1764C55.8234 69.1764 56.6044 68.3954 56.6044 67.432C56.6044 66.4685 55.8234 65.6875 54.8599 65.6875C53.8965 65.6875 53.1155 66.4685 53.1155 67.432C53.1155 68.3954 53.8965 69.1764 54.8599 69.1764Z" fill="white"></path> <path d="M59.5115 75.0343C60.4749 75.0343 61.2559 74.2533 61.2559 73.2899C61.2559 72.3264 60.4749 71.5454 59.5115 71.5454C58.5481 71.5454 57.767 72.3264 57.767 73.2899C57.767 74.2533 58.5481 75.0343 59.5115 75.0343Z" fill="white"></path> </svg> 