<?xml version="1.0" encoding="UTF-8"?> <svg xmlns="http://www.w3.org/2000/svg" width="24" height="24" viewBox="0 0 24 24" fill="none"> <path d="M10.981 22.1592C9.68241 22.0418 8.47435 21.6926 7.35678 21.1116C6.2392 20.5306 5.27045 19.7833 4.45054 18.8698C3.6306 17.9562 2.98648 16.9084 2.51818 15.7265C2.04988 14.5446 1.81573 13.2961 1.81573 11.9809C1.81573 9.34175 2.69183 7.05443 4.44401 5.11893C6.19618 3.18341 8.38349 2.07598 11.006 1.79663V4.07166C9.01321 4.35499 7.36249 5.24385 6.05379 6.73823C4.74508 8.23261 4.09074 9.98016 4.09074 11.9809C4.09074 13.9776 4.74409 15.7222 6.05081 17.2146C7.35751 18.707 9.00089 19.5968 10.981 19.8842V22.1592ZM11.981 17.0657L6.89021 11.9619L8.38096 10.4711L10.9331 13.0233V6.94013H13.0228V13.0233L15.556 10.4961L17.0467 12.0059L11.981 17.0657ZM12.981 22.1592V19.8842C13.6897 19.7881 14.3692 19.5995 15.0196 19.3181C15.6699 19.0368 16.2744 18.6814 16.8331 18.2521L18.4864 19.9054C17.6871 20.5499 16.8235 21.0637 15.8956 21.4467C14.9677 21.8296 13.9962 22.0671 12.981 22.1592ZM16.8831 5.69773C16.3078 5.27236 15.6949 4.92101 15.0446 4.64366C14.3942 4.36631 13.7147 4.17564 13.006 4.07166V1.79663C14.0172 1.88866 14.9878 2.12616 15.9177 2.50913C16.8475 2.89211 17.7038 3.40589 18.4864 4.05046L16.8831 5.69773ZM19.8864 18.4554L18.2831 16.8271C18.7085 16.2684 19.0515 15.6629 19.3122 15.0105C19.5729 14.3582 19.7552 13.6796 19.8592 12.9749H22.1842C22.0549 13.9861 21.8049 14.9599 21.4342 15.8961C21.0636 16.8323 20.5476 17.6854 19.8864 18.4554ZM19.8532 10.9749C19.7493 10.2702 19.5679 9.59166 19.3092 8.93931C19.0505 8.28696 18.7085 7.68143 18.2831 7.12273L19.8744 5.50046C20.5357 6.26639 21.0609 7.11747 21.4503 8.05371C21.8396 8.98994 22.0822 9.96367 22.1783 10.9749H19.8532Z" fill="#9799BB"></path> </svg> 