<?xml version="1.0" encoding="UTF-8"?> <svg xmlns="http://www.w3.org/2000/svg" width="24" height="24" viewBox="0 0 24 24" fill="none"> <path d="M10.9104 17.2032H7.00003C5.56046 17.2032 4.33336 16.6959 3.31873 15.6814C2.30408 14.6668 1.79675 13.4398 1.79675 12.0004C1.79675 10.5609 2.30408 9.33378 3.31873 8.31893C4.33336 7.30406 5.56046 6.79663 7.00003 6.79663H10.9104V9.07166H7.00258C6.18846 9.07166 5.49647 9.35635 4.9266 9.92573C4.35672 10.4951 4.07178 11.1865 4.07178 11.9999C4.07178 12.8133 4.35672 13.5047 4.9266 14.0741C5.49647 14.6435 6.18846 14.9282 7.00258 14.9282H10.9104V17.2032ZM7.86253 13.0477V10.9521H16.1375V13.0477H7.86253ZM13.0897 17.2032V14.9282H16.9975C17.8116 14.9282 18.5036 14.6435 19.0735 14.0741C19.6433 13.5047 19.9283 12.8133 19.9283 11.9999C19.9283 11.1865 19.6433 10.4951 19.0735 9.92573C18.5036 9.35635 17.8116 9.07166 16.9975 9.07166H13.0897V6.79663H17C18.4396 6.79663 19.6667 7.30391 20.6813 8.31846C21.696 9.33301 22.2033 10.56 22.2033 11.9994C22.2033 13.4389 21.696 14.666 20.6813 15.6809C19.6667 16.6957 18.4396 17.2032 17 17.2032H13.0897Z" fill="#9799BB"></path> </svg> 