<?xml version="1.0" encoding="UTF-8"?> <svg xmlns="http://www.w3.org/2000/svg" width="150" height="40" viewBox="0 0 150 40" fill="none"> <path d="M29.3631 3.5L15 11.7563V28.2473L19.1001 30.6078L19.0712 14.1132L29.3341 8.21377L39.5971 14.1132V30.6006L43.6972 28.2473V11.7419L29.3631 3.5Z" fill="#0050AB"></path> <path d="M31.3969 30.6042L29.3486 31.7898L27.2895 30.615V14.1132L23.193 16.4701L23.2002 32.9647L29.345 36.5L35.497 32.9647V16.4701L31.3969 14.1132V30.6042Z" fill="#0050AB"></path> <path d="M53.088 11.8572L58.7262 26.0418H58.7732L64.2738 11.8572H66.4198V28.1104H64.9361V13.9474H64.889C64.8118 14.2045 64.7286 14.4616 64.6393 14.7186C64.5621 14.9301 64.4741 15.1643 64.3752 15.4214C64.2774 15.6809 64.187 15.9223 64.1146 16.1494L59.3884 28.1104H58.0422L53.269 16.153C53.1773 15.9415 53.0856 15.7109 52.994 15.461C52.9023 15.2112 52.8178 14.9721 52.7406 14.7439C52.649 14.47 52.5573 14.2045 52.4656 13.9474H52.4186V28.1104H51.0108V11.8572H53.088Z" fill="#0050AB"></path> <path d="M70.7333 28.1789C70.2901 28.057 69.8756 27.8488 69.5138 27.5662C69.1688 27.2911 68.8915 26.941 68.7032 26.5427C68.5054 26.1343 68.4064 25.6574 68.4064 25.112C68.4064 24.4153 68.5355 23.8471 68.7937 23.4074C69.0485 22.973 69.4095 22.6097 69.8431 22.3515C70.2846 22.0872 70.7985 21.8866 71.3847 21.7497C72.0053 21.6079 72.6336 21.502 73.2665 21.4325C73.8455 21.3725 74.3365 21.3076 74.7394 21.2379C75.1423 21.1683 75.4692 21.0806 75.7201 20.9749C75.971 20.8691 76.1531 20.7286 76.2665 20.5532C76.3799 20.3778 76.4366 20.1388 76.4366 19.8361V19.609C76.4366 18.8066 76.1929 18.2119 75.7056 17.8251C75.2183 17.4383 74.5186 17.2449 73.6067 17.2449C71.5054 17.2449 70.4016 18.117 70.2955 19.8613H68.9022C68.9794 18.7249 69.4016 17.8155 70.1688 17.1332C70.936 16.4509 72.0808 16.1097 73.6031 16.1097C74.8962 16.1097 75.9155 16.3944 76.661 16.9638C77.4065 17.5332 77.7792 18.4618 77.7792 19.7496V26.1355C77.7792 26.4839 77.8443 26.7373 77.9746 26.8959C78.1049 27.0545 78.2991 27.1422 78.5572 27.159C78.6373 27.1588 78.7173 27.1515 78.7961 27.1374C78.8793 27.1229 78.9734 27.0977 79.082 27.0689H79.1507V28.0924C79.0251 28.1441 78.8956 28.1863 78.7635 28.2185C78.5759 28.2603 78.3839 28.2797 78.1917 28.2762C77.6754 28.2762 77.2641 28.1428 76.9577 27.8761C76.6513 27.6095 76.4836 27.189 76.4547 26.6148V26.3661H76.3932C76.208 26.6149 76.0061 26.8509 75.7888 27.0725C75.5337 27.3294 75.2453 27.5512 74.9312 27.732C74.5655 27.941 74.1737 28.1009 73.7659 28.2077C73.3244 28.3302 72.8226 28.3903 72.2605 28.3879C71.743 28.3919 71.2276 28.3227 70.7297 28.1825M74.211 26.9427C74.7056 26.7385 75.1206 26.4767 75.4559 26.1571C75.7708 25.8621 76.0223 25.5066 76.1953 25.112C76.3682 24.7174 76.4589 24.292 76.4619 23.8615V21.7461C76.0808 21.9575 75.62 22.1209 75.0795 22.2362C74.5391 22.3515 73.9794 22.4464 73.4004 22.5209C72.8986 22.5978 72.4342 22.6771 72.0072 22.7587C71.5801 22.8404 71.211 22.9726 70.8998 23.1552C70.5922 23.333 70.3365 23.5876 70.1579 23.8939C69.9746 24.2039 69.8829 24.6099 69.8829 25.112C69.8829 25.5204 69.9553 25.8616 70.1001 26.1355C70.2354 26.3974 70.4314 26.6235 70.6718 26.795C70.9223 26.9679 71.2055 27.088 71.5042 27.1482C71.835 27.2171 72.1722 27.2509 72.5102 27.2491C73.1495 27.2491 73.7165 27.147 74.211 26.9427Z" fill="#0050AB"></path> <path d="M81.5755 31.3537C80.7842 30.7699 80.3355 30.0383 80.2293 29.159H81.5973C81.7203 29.8413 82.0894 30.3302 82.7046 30.6258C83.3198 30.9213 84.0544 31.069 84.9085 31.069C86.1727 31.069 87.1051 30.7699 87.7058 30.1717C88.3065 29.5734 88.6069 28.7506 88.6069 27.7031V25.8399H88.5382C88.0967 26.5054 87.5864 27.0123 87.0074 27.3607C86.4284 27.7091 85.6901 27.8833 84.7927 27.8833C84.0158 27.8833 83.3162 27.7391 82.6938 27.4508C82.0789 27.1704 81.533 26.7596 81.0942 26.2471C80.6527 25.733 80.3138 25.1155 80.0774 24.3948C79.8409 23.674 79.7227 22.8824 79.7227 22.0199C79.7227 21.0661 79.859 20.2216 80.1316 19.4864C80.4043 18.7512 80.7697 18.1338 81.2281 17.6341C81.6744 17.1422 82.2243 16.7545 82.8385 16.4989C83.4561 16.2413 84.1195 16.1102 84.7891 16.1133C85.701 16.1133 86.4537 16.2995 87.0472 16.6718C87.6407 17.0442 88.1353 17.5476 88.5309 18.1818H88.5997V16.3583H90.0002V27.6562C90.0002 28.9584 89.6347 30.0119 88.9037 30.8168C88.0062 31.7561 86.6901 32.2258 84.9555 32.2258C83.4935 32.2258 82.3669 31.9339 81.5755 31.3501M87.7637 25.4038C88.3886 24.5389 88.701 23.4025 88.701 21.9947C88.701 21.2979 88.625 20.6612 88.473 20.0846C88.321 19.508 88.0846 19.0119 87.7637 18.5963C87.4483 18.183 87.0374 17.8517 86.5659 17.6305C86.0858 17.4022 85.5261 17.2881 84.8868 17.2881C83.7143 17.2881 82.8047 17.7193 82.1582 18.5819C81.5116 19.4444 81.1883 20.5964 81.1883 22.0379C81.1832 22.6626 81.2599 23.2853 81.4163 23.8903C81.5683 24.4573 81.7963 24.9498 82.1003 25.3678C82.3976 25.7783 82.7882 26.1129 83.2402 26.3444C83.6962 26.5799 84.2366 26.6976 84.8614 26.6976C86.169 26.6976 87.1353 26.2652 87.7601 25.4002" fill="#0050AB"></path> <path d="M94.9074 27.9409C94.2423 27.6451 93.6533 27.2027 93.1848 26.6472C92.7216 26.0946 92.3682 25.4423 92.1245 24.6903C91.8808 23.9383 91.759 23.1239 91.759 22.2469C91.759 21.3676 91.8881 20.5531 92.1462 19.8036C92.4044 19.054 92.765 18.4029 93.2282 17.8503C93.6889 17.2994 94.266 16.8564 94.9182 16.5529C95.5793 16.243 96.3211 16.088 97.1438 16.088C98.0871 16.088 98.882 16.2658 99.5286 16.6214C100.162 16.9649 100.702 17.4558 101.103 18.0521C101.506 18.6503 101.792 19.3363 101.96 20.1099C102.129 20.894 102.212 21.6938 102.21 22.4956H93.2174C93.2265 23.1232 93.3227 23.7466 93.5033 24.3479C93.6623 24.8851 93.9172 25.3893 94.256 25.8363C94.5855 26.2636 95.0122 26.607 95.5009 26.8382C96.0027 27.0808 96.5889 27.2022 97.2596 27.2022C98.2487 27.2022 99.0135 26.9631 99.5539 26.485C100.094 26.0069 100.478 25.3666 100.705 24.5642H102.076C101.818 25.7318 101.285 26.664 100.477 27.3607C99.6685 28.0575 98.5962 28.4058 97.2596 28.4058C96.3766 28.4058 95.5925 28.2509 94.9074 27.9409ZM100.477 19.7567C100.325 19.2498 100.104 18.8101 99.8145 18.4377C99.523 18.0642 99.1474 17.7642 98.718 17.562C98.2765 17.3506 97.7518 17.2449 97.1438 17.2449C96.5358 17.2449 96.0063 17.3506 95.5551 17.562C95.1036 17.7649 94.7022 18.0638 94.379 18.4377C94.05 18.8262 93.7916 19.2689 93.6155 19.7459C93.4189 20.2726 93.2924 20.8226 93.2391 21.382H100.726C100.716 20.8316 100.632 20.2851 100.477 19.7567Z" fill="#0050AB"></path> <path d="M105.384 16.3584V18.153H105.431C105.835 17.5539 106.369 17.0527 106.994 16.6863C107.64 16.2995 108.435 16.1061 109.379 16.1061C110.474 16.1061 111.376 16.4208 112.086 17.0503C112.795 17.6797 113.148 18.5855 113.146 19.7675V28.1139H111.731V19.9045C111.731 19.0107 111.491 18.3549 111.011 17.9368C110.531 17.5188 109.872 17.311 109.035 17.3134C108.552 17.3107 108.072 17.3962 107.62 17.5656C107.192 17.7234 106.797 17.9579 106.455 18.2576C106.121 18.551 105.852 18.9106 105.666 19.3135C105.473 19.734 105.375 20.1917 105.38 20.6541V28.1139H103.969V16.3584H105.384Z" fill="#0050AB"></path> <path d="M116.797 27.7139C116.387 27.3872 116.182 26.8454 116.182 26.0886V17.5188H114.402V16.3583H116.182V12.7437H117.597V16.3583H119.79V17.5188H117.597V25.8616C117.597 26.2868 117.692 26.5787 117.883 26.7373C118.074 26.8958 118.358 26.9751 118.737 26.9751C118.91 26.9742 119.082 26.9549 119.251 26.9175C119.396 26.8887 119.537 26.8465 119.674 26.7913H119.743V27.995C119.323 28.1355 118.883 28.205 118.44 28.2004C117.755 28.2004 117.207 28.0371 116.797 27.7103" fill="#0050AB"></path> <path d="M123.977 27.941C123.314 27.6402 122.726 27.1972 122.255 26.6436C121.782 26.091 121.42 25.4399 121.169 24.6903C120.918 23.9407 120.793 23.1263 120.793 22.247C120.793 21.3676 120.918 20.5532 121.169 19.8036C121.42 19.054 121.782 18.4017 122.255 17.8467C122.726 17.2933 123.314 16.8503 123.977 16.5493C124.655 16.2394 125.42 16.0845 126.272 16.0845C127.123 16.0845 127.884 16.2394 128.555 16.5493C129.214 16.8524 129.798 17.2952 130.267 17.8467C130.74 18.3993 131.097 19.0516 131.338 19.8036C131.579 20.5556 131.701 21.37 131.703 22.247C131.703 23.1263 131.582 23.9407 131.338 24.6903C131.094 25.4399 130.737 26.091 130.267 26.6436C129.798 27.1952 129.214 27.6381 128.555 27.941C127.887 28.2509 127.126 28.4058 126.272 28.4058C125.418 28.4058 124.653 28.2509 123.977 27.941ZM128.009 26.8382C128.505 26.5856 128.936 26.2202 129.264 25.7715C129.6 25.3174 129.851 24.7864 130.017 24.1786C130.352 22.9125 130.352 21.5815 130.017 20.3153C129.851 19.7075 129.6 19.1765 129.264 18.7224C128.936 18.2735 128.506 17.908 128.009 17.6557C127.507 17.3962 126.929 17.2677 126.275 17.2701C125.621 17.2725 125.039 17.401 124.527 17.6557C124.033 17.9122 123.604 18.2769 123.272 18.7224C122.929 19.1765 122.674 19.7075 122.508 20.3153C122.174 21.5816 122.174 22.9123 122.508 24.1786C122.674 24.784 122.929 25.315 123.272 25.7715C123.604 26.2166 124.033 26.5813 124.527 26.8382C125.022 27.0953 125.605 27.2238 126.275 27.2238C126.946 27.2238 127.524 27.0953 128.009 26.8382Z" fill="#0050AB"></path> <path d="M133.513 18.3116C132.637 18.3116 132.029 17.7062 132.029 16.8016C132.029 15.8971 132.651 15.2844 133.513 15.2844C134.374 15.2844 135 15.8971 135 16.8016C135 17.7062 134.378 18.3116 133.513 18.3116ZM133.513 15.4574C132.807 15.4574 132.242 15.9403 132.242 16.798C132.242 17.6557 132.803 18.1314 133.513 18.1314C134.222 18.1314 134.79 17.6485 134.79 16.798C134.79 15.9475 134.222 15.4574 133.513 15.4574ZM133.951 17.6089L133.448 16.8917H133.285V17.5836H132.995V15.9043H133.505C133.856 15.9043 134.092 16.0809 134.092 16.3944C134.092 16.6358 133.961 16.7908 133.752 16.8557L134.236 17.5404L133.951 17.6089ZM133.509 16.171H133.285V16.6647H133.495C133.683 16.6647 133.802 16.5854 133.802 16.416C133.802 16.2466 133.697 16.1674 133.509 16.1674" fill="#0050AB"></path> </svg> 