<?xml version="1.0" encoding="UTF-8"?> <svg xmlns="http://www.w3.org/2000/svg" width="151" height="40" viewBox="0 0 151 40" fill="none"> <path fill-rule="evenodd" clip-rule="evenodd" d="M63.5926 10.9777V26.3138H69.12V28.9596H60.6493V10.9777H63.5926ZM79.5091 18.6071V16.9887H82.2986V28.9603H79.5098V27.3412C79.1339 27.9408 78.6016 28.412 77.9102 28.754C77.2194 29.0967 76.524 29.2677 75.8246 29.2677C74.9198 29.2677 74.0925 29.1014 73.342 28.7673C72.6107 28.4472 71.9528 27.9792 71.4097 27.3925C70.8715 26.8089 70.4466 26.1296 70.1568 25.3895C69.8547 24.6205 69.7024 23.8004 69.708 22.9739C69.708 22.1354 69.8571 21.3342 70.1561 20.5716C70.4441 19.8264 70.8693 19.1423 71.4097 18.5552C71.953 17.9689 72.6108 17.5011 73.342 17.1811C74.0925 16.847 74.9198 16.6806 75.8246 16.6806C76.524 16.6806 77.2194 16.8516 77.9102 17.1944C78.6009 17.5371 79.1332 18.0075 79.5091 18.6071ZM79.2532 24.4385C79.425 23.9698 79.5119 23.474 79.5098 22.9745C79.5098 22.4601 79.4236 21.9723 79.2532 21.5105C79.0933 21.0658 78.8503 20.6559 78.5373 20.3027C78.2248 19.9563 77.846 19.6766 77.4236 19.4802C76.9887 19.2752 76.5068 19.1721 75.9784 19.1721C75.4488 19.1721 74.9708 19.2752 74.5446 19.4802C74.1274 19.679 73.7534 19.9585 73.4441 20.3027C73.1321 20.6541 72.8932 21.0645 72.7414 21.5098C72.5775 21.9803 72.495 22.4754 72.4975 22.9739C72.4975 23.4876 72.5784 23.976 72.7408 24.4379C72.9025 24.901 73.1372 25.3029 73.4448 25.6457C73.754 25.99 74.1279 26.2696 74.5452 26.4682C74.9708 26.6738 75.4488 26.7763 75.9778 26.7763C76.5068 26.7763 76.9887 26.6738 77.4236 26.4682C77.8461 26.272 78.2249 25.9922 78.5373 25.6457C78.8503 25.2927 79.0933 24.883 79.2532 24.4385ZM84.4995 16.9887H92.0746V19.7444H87.2883V28.961H84.4995V16.9887ZM102.183 18.6071V16.9887H104.972V28.9603H102.183V27.3412C101.807 27.9408 101.274 28.412 100.583 28.754C99.8923 29.0967 99.1975 29.2677 98.4975 29.2677C97.5933 29.2677 96.766 29.1014 96.0156 28.7673C95.2842 28.4472 94.6263 27.9792 94.0832 27.3925C93.5447 26.809 93.1196 26.1296 92.8296 25.3895C92.5278 24.6204 92.3757 23.8004 92.3815 22.9739C92.3815 22.1354 92.5306 21.3342 92.8296 20.5716C93.1174 19.8264 93.5424 19.1424 94.0825 18.5552C94.626 17.9688 95.2841 17.501 96.0156 17.1811C96.766 16.847 97.5933 16.6806 98.4975 16.6806C99.1969 16.6806 99.8923 16.8516 100.583 17.1944C101.274 17.5371 101.807 18.0075 102.183 18.6071ZM101.927 24.4385C102.098 23.9697 102.185 23.4739 102.183 22.9745C102.183 22.4601 102.096 21.9723 101.927 21.5105C101.767 21.0658 101.524 20.6559 101.211 20.3027C100.898 19.9563 100.52 19.6766 100.097 19.4802C99.6622 19.2752 99.1796 19.1721 98.6513 19.1721C98.1223 19.1721 97.6443 19.2752 97.2181 19.4802C96.8009 19.679 96.4269 19.9585 96.1176 20.3027C95.8054 20.654 95.5663 21.0644 95.4143 21.5098C95.2506 21.9803 95.1683 22.4755 95.171 22.9739C95.171 23.4876 95.2512 23.976 95.4143 24.4379C95.5761 24.901 95.8107 25.3029 96.1176 25.6457C96.4268 25.99 96.8008 26.2696 97.2181 26.4682C97.6443 26.6738 98.1223 26.7763 98.6513 26.7763C99.1796 26.7763 99.6622 26.6738 100.097 26.4682C100.52 26.272 100.898 25.9922 101.211 25.6457C101.524 25.2927 101.767 24.883 101.927 24.4385ZM116.155 16.9887H118.98L114.403 28.9603H110.896L106.318 16.9887H109.143L112.649 26.1561L116.155 16.9887ZM125.064 16.6806C128.862 16.6806 131.452 20.0598 130.966 24.0146H121.712C121.712 25.0474 122.751 27.0438 125.217 27.0438C127.339 27.0438 128.761 25.1705 128.761 25.1692L130.646 26.6332C128.961 28.4386 127.581 29.2684 125.421 29.2684C121.561 29.2684 118.944 26.8169 118.944 22.9745C118.944 19.4988 121.649 16.6806 125.064 16.6806ZM121.719 21.9337H128.404C128.383 21.7035 128.021 18.9046 125.042 18.9046C122.062 18.9046 121.74 21.7035 121.719 21.9337ZM132.782 28.9596V10.9777H135.571V28.9596H132.782Z" fill="#0050AB"></path> <path fill-rule="evenodd" clip-rule="evenodd" d="M48.469 10.6874C48.4812 10.7328 48.4874 10.7795 48.4876 10.8265V18.1279C48.4876 18.2216 48.4629 18.3137 48.4161 18.3948C48.3693 18.4759 48.302 18.5431 48.2211 18.5897L42.1163 22.118V29.1113C42.1163 29.3016 42.0156 29.4773 41.8512 29.5731L29.108 36.937C29.0789 36.9537 29.047 36.9643 29.0152 36.9756C29.0033 36.9796 28.992 36.9869 28.9794 36.9903C28.8904 37.0138 28.7967 37.0138 28.7076 36.9903C28.6931 36.9863 28.6798 36.9783 28.6659 36.973C28.6367 36.9623 28.6062 36.953 28.5784 36.937L15.8379 29.5731C15.757 29.5264 15.6897 29.4592 15.6429 29.3781C15.5961 29.297 15.5715 29.205 15.5714 29.1113V7.2071C15.5714 7.15919 15.578 7.11261 15.59 7.06736C15.594 7.05205 15.6032 7.03808 15.6085 7.02277C15.6185 6.99482 15.6278 6.96621 15.6423 6.94026C15.6523 6.92295 15.6669 6.90898 15.6788 6.89301C15.694 6.87171 15.708 6.84975 15.7259 6.83112C15.7411 6.81581 15.761 6.8045 15.7782 6.79119C15.7975 6.77522 15.8147 6.75792 15.8366 6.74528L22.2078 3.06331C22.2885 3.01671 22.3799 2.99219 22.473 2.99219C22.566 2.99219 22.6575 3.01671 22.7381 3.06331L29.1087 6.74528H29.11C29.1312 6.75859 29.1491 6.77522 29.1684 6.79053C29.1856 6.80384 29.2048 6.81581 29.2201 6.83046C29.2386 6.84975 29.2519 6.87171 29.2678 6.89301C29.2791 6.90898 29.2943 6.92295 29.3036 6.94026C29.3188 6.96687 29.3275 6.99482 29.3381 7.02277C29.3434 7.03808 29.3527 7.05205 29.3566 7.06802C29.3688 7.11337 29.3751 7.16013 29.3752 7.2071V20.8882L34.6838 17.8198V10.8259C34.6838 10.7793 34.6904 10.732 34.7023 10.6874C34.707 10.6715 34.7156 10.6575 34.7209 10.6422C34.7315 10.6142 34.7408 10.5856 34.7554 10.5597C34.7653 10.5424 34.7799 10.5284 34.7912 10.5124C34.8071 10.4911 34.8203 10.4692 34.8389 10.4505C34.8541 10.4352 34.8734 10.4239 34.8906 10.4106C34.9105 10.3946 34.9277 10.3773 34.9489 10.3647L41.3208 6.68272C41.4015 6.63606 41.4929 6.6115 41.586 6.6115C41.6791 6.6115 41.7705 6.63606 41.8512 6.68272L48.2217 10.3647C48.2443 10.378 48.2615 10.3946 48.2814 10.4099C48.298 10.4233 48.3172 10.4352 48.3324 10.4499C48.351 10.4692 48.3643 10.4911 48.3802 10.5124C48.3921 10.5284 48.4067 10.5424 48.416 10.5597C48.4312 10.5856 48.4398 10.6142 48.4504 10.6422C48.4564 10.6575 48.465 10.6715 48.469 10.6874ZM47.4256 17.8198V11.7482L42.1163 14.8166V20.8882L47.4262 17.8198H47.4256ZM41.055 28.8032V22.7275L29.3745 29.4207V35.5536L41.055 28.8032ZM16.6334 8.12876V28.8032L28.3125 35.5529V29.4214L22.2111 25.955L22.2091 25.9537L22.2065 25.9523C22.1859 25.9404 22.1687 25.9231 22.1495 25.9084C22.1329 25.8951 22.1137 25.8845 22.0991 25.8698L22.0978 25.8678C22.0805 25.8512 22.0686 25.8306 22.054 25.8119C22.0408 25.794 22.0248 25.7787 22.0142 25.76L22.0136 25.758C22.0016 25.7381 21.9943 25.7141 21.9857 25.6915C21.9771 25.6715 21.9658 25.6529 21.9605 25.6316C21.9539 25.6063 21.9526 25.579 21.9499 25.5531C21.9473 25.5331 21.942 25.5131 21.942 25.4932V11.1972L16.6334 8.12876ZM22.4736 4.14001L17.1657 7.2071L22.4723 10.2742L27.7796 7.20644L22.4723 4.14001H22.4736ZM28.3132 21.5018V8.12876L23.004 11.1972V24.5702L28.3132 21.5018ZM41.586 7.75943L36.2787 10.8265L41.586 13.8936L46.8926 10.8259L41.586 7.75943ZM41.055 14.8166L35.7458 11.7482V17.8198L41.055 20.8882V14.8166ZM28.8429 28.4991L40.5187 21.8085L35.2154 18.7435L23.5442 25.4885L28.8429 28.4991Z" fill="#0050AB"></path> </svg> 