<?xml version="1.0" encoding="UTF-8"?> <svg xmlns="http://www.w3.org/2000/svg" width="150" height="40" viewBox="0 0 150 40" fill="none"> <path d="M30.3955 17.6L42.4403 20.5902C44.5364 19.772 45.7958 18.7289 45.7958 17.6V12.7902C45.7958 10.1389 38.8997 7.9834 30.3955 7.9834C21.8922 7.9834 15 10.1389 15 12.7902V17.6C15 20.2522 21.8922 22.4048 30.3955 22.4048V17.6Z" fill="#0050AB"></path> <path d="M42.4393 25.398L30.3955 22.4048L30.3945 27.2107L42.4393 30.2048C44.5364 29.3828 45.7958 28.3435 45.7958 27.2107V22.4048C45.7968 23.5376 44.5364 24.5769 42.4393 25.398Z" fill="#0050AB"></path> <path d="M15 22.4048V27.2116C15 29.8649 21.8922 32.0165 30.3955 32.0165V27.2116C21.8922 27.2116 15 25.0581 15 22.4048Z" fill="#0050AB"></path> <path d="M59.0114 26.7724C55.2507 26.7724 52.4591 23.8698 52.4591 20.2006V20.1655C52.4591 16.5344 55.1961 13.5578 59.1195 13.5578C61.5283 13.5578 62.9718 14.3623 64.1572 15.5292L62.3688 17.5912C61.3831 16.697 60.3789 16.1496 59.102 16.1496C56.9474 16.1496 55.3977 17.9379 55.3977 20.1276V20.1655C55.3977 22.3552 56.9114 24.1805 59.102 24.1805C60.562 24.1805 61.4552 23.597 62.4585 22.6834L64.2468 24.4892C62.9348 25.8957 61.4747 26.7724 59.0114 26.7724Z" fill="#0050AB"></path> <path d="M71.9864 22.6104C71.513 22.3892 70.8906 22.2451 70.2166 22.2451C69.0302 22.2451 68.2987 22.7194 68.2987 23.5961V23.6321C68.2987 24.3792 68.9201 24.8175 69.8133 24.8175C71.1088 24.8175 71.9864 24.1084 71.9864 23.1022V22.6104ZM71.9299 26.5522V25.4944C71.2559 26.2425 70.3257 26.7354 68.9737 26.7354C67.1318 26.7354 65.6162 25.6766 65.6162 23.7422V23.7042C65.6162 21.5681 67.24 20.5824 69.5572 20.5824C70.5438 20.5824 71.2559 20.747 71.9503 20.9837V20.8211C71.9503 19.6727 71.2383 19.0328 69.8503 19.0328C68.7925 19.0328 68.0445 19.2344 67.1503 19.5616L66.4559 17.4451C67.5331 16.9688 68.5919 16.66 70.2516 16.66C73.2818 16.66 74.6153 18.2292 74.6153 20.8776V26.5522H71.9299Z" fill="#0050AB"></path> <path d="M83.3017 26.5522L80.7459 22.5558L79.7777 23.5775V26.5522H77.0056V13.2275H79.7777V20.3301L83.028 16.7701H86.3484L82.6257 20.6194L86.4761 26.5522H83.3017Z" fill="#0050AB"></path> <path d="M91.7114 18.8146C90.5621 18.8146 89.8121 19.6357 89.5939 20.8941H93.7744C93.6088 19.6523 92.8793 18.8146 91.7114 18.8146ZM96.4384 22.6299H89.6309C89.9037 23.8883 90.7803 24.5448 92.0222 24.5448C92.9533 24.5448 93.6274 24.2516 94.3939 23.5406L95.9835 24.9471C95.0689 26.0789 93.755 26.7724 91.9851 26.7724C89.0465 26.7724 86.8725 24.7104 86.8725 21.7172V21.6792C86.8725 18.8867 88.8634 16.587 91.7105 16.587C94.9774 16.587 96.4744 19.1243 96.4744 21.8993V21.9354C96.4744 22.2091 96.4569 22.3737 96.4384 22.6299Z" fill="#0050AB"></path> <path d="M106.092 18.2477C106.092 16.9893 105.217 16.3143 103.811 16.3143H101.64V20.2221H103.866C105.271 20.2221 106.092 19.3795 106.092 18.2867V18.2477ZM103.774 22.7195H101.641V26.5523H98.8296V13.776H104.049C107.096 13.776 108.94 15.5828 108.94 18.1951V18.2302C108.939 21.1863 106.639 22.7195 103.774 22.7195Z" fill="#0050AB"></path> <path d="M119.013 26.5523V21.4211H113.83V26.5523H111.019V13.776H113.83V18.8321H119.013V13.776H121.823V26.5523H119.013Z" fill="#0050AB"></path> <path d="M132.153 18.2477C132.153 16.9893 131.277 16.3143 129.872 16.3143H127.7V20.2221H129.925C131.332 20.2221 132.153 19.3795 132.153 18.2867V18.2477ZM129.837 22.7195H127.7V26.5523H124.889V13.776H130.108C133.155 13.776 135 15.5828 135 18.1951V18.2302C135.001 21.1863 132.701 22.7195 129.837 22.7195Z" fill="#0050AB"></path> </svg> 