<?xml version="1.0" encoding="UTF-8"?> <svg xmlns="http://www.w3.org/2000/svg" width="151" height="44" viewBox="0 0 151 44" fill="none"> <path d="M65.5977 34.1462C65.5977 35.1164 65.1126 35.6016 64.1423 35.6016H62.6595V24.5027C62.8019 21.0225 64.6285 19.3393 68.1372 19.3393C71.7598 19.3393 73.5854 21.2798 73.5854 25.1872C73.5854 29.1241 72.0456 31.1774 68.9071 31.2924C67.4517 31.2924 66.3391 30.6934 65.5977 29.4953V34.1462ZM68.1077 28.6685C69.7054 28.6685 70.5048 27.5569 70.5903 25.3032C70.5903 22.964 69.7624 21.7945 68.0803 21.7945C66.3971 21.7945 65.5977 22.964 65.6262 25.3032C65.7116 27.5569 66.511 28.6685 68.1077 28.6685ZM79.3194 21.9084C77.5792 21.9084 76.8094 23.3637 76.8094 25.1313V31.0656H73.8986V16.1459H75.3825C76.3527 16.1459 76.8378 16.6595 76.8378 17.6287V21.109C78.3502 19.3973 80.1757 18.9132 82.3714 19.6831C83.9977 20.2821 84.7686 21.8229 84.6821 24.3614V31.0941H81.7724V25.1313C81.7724 23.1634 81.0025 21.9084 79.3194 21.9084ZM88.1339 22.4789H85.1957C85.5374 20.3391 87.0782 19.2834 89.7601 19.2834C92.983 19.2834 94.6377 20.3391 94.6957 22.4789V26.4158C94.6957 29.6113 92.7552 31.0361 89.5882 31.265C86.7934 31.4928 84.8245 30.1808 84.8245 27.6139C84.8814 24.8181 86.9358 24.0756 89.9025 23.7909C91.1575 23.6485 91.8134 23.2773 91.8134 22.6213C91.7565 21.9653 91.129 21.6226 89.9025 21.6226C88.8753 21.6795 88.3047 21.9368 88.1339 22.4789ZM91.8419 26.3009V25.2178C91.1575 25.5025 90.3591 25.7303 89.5028 25.9307C88.3332 26.1585 87.7342 26.7006 87.7342 27.5559C87.7911 28.4692 88.2762 28.9258 89.218 28.9258C90.8442 28.9258 91.8419 27.9556 91.8419 26.3009ZM98.4322 17.5718V31.0656H95.4941V16.1459H97.0053C97.7752 16.1459 98.4322 16.8019 98.4322 17.5718ZM104.366 31.3219C100.828 31.3219 99.0028 29.297 98.9174 25.3032C98.9174 21.3378 100.714 19.3404 104.309 19.2834C107.133 19.2834 108.816 20.5384 109.329 23.0484H106.134C105.791 22.2501 105.164 21.8514 104.223 21.8514C102.682 21.8514 101.912 23.021 101.912 25.3317C101.912 27.6413 102.739 28.8119 104.366 28.7834C105.051 28.7834 105.649 28.4987 106.134 27.9556C106.419 27.6708 106.762 27.5284 107.133 27.5284H109.358C108.816 29.8665 107.076 31.4073 104.366 31.3219ZM120.34 25.3317C120.34 29.3255 118.543 31.3504 115.006 31.3504C111.468 31.3504 109.7 29.3255 109.7 25.3317C109.7 21.2809 111.468 19.3119 115.006 19.3119C118.571 19.2834 120.34 21.2809 120.34 25.3317ZM112.695 25.3317C112.723 27.5854 113.494 28.7265 115.006 28.7265C116.518 28.7265 117.259 27.5284 117.288 25.2462C117.288 22.9925 116.546 21.8799 115.034 21.8799C113.466 21.8514 112.695 23.021 112.695 25.3317ZM129.155 31.0656C128.185 31.0076 127.7 30.552 127.7 29.6103V23.6485C127.643 22.4504 126.959 21.8514 125.675 21.8514C124.362 21.8514 123.706 22.4504 123.678 23.6485V31.0656H120.683V24.2465C120.683 20.9371 122.366 19.2824 125.703 19.2824C129.04 19.2824 130.667 20.9381 130.667 24.2465V31.0646H129.155V31.0656Z" fill="#0050AB"></path> <path d="M36.4649 25.7894L34.5149 26.7174L38.5446 26.3979L39.3123 25.7894L39.0888 25.4065L36.4659 25.7894H36.4649Z" fill="#0050AB"></path> <path d="M43.2778 36.6635L45.1972 37.56V38.1347L43.8852 37.5916L43.726 37.8795L44.9409 38.487L45.4535 39.7346L44.2375 38.7116H43.9823L44.2375 41.8449L42.702 40.0541L42.5754 38.2307L43.2778 36.6635Z" fill="#0050AB"></path> <path d="M40.7202 36.4083L42.9265 38.5513V40.0225L40.9438 40.8536L39.7289 38.6789V32.3143L40.2404 31.323L40.4323 31.4833L40.7202 36.4083Z" fill="#0050AB"></path> <path d="M45.6769 31.2597L47.5963 32.155V32.7625L46.316 32.1867L46.1568 32.4746L47.3074 33.0504L47.8516 34.3613L46.6999 33.3067H46.4447L46.6683 36.4073L45.0051 34.4889L44.9419 33.0504L45.6769 31.2586V31.2597Z" fill="#0050AB"></path> <path d="M44.0455 32.4746L45.1971 33.2424V34.4256L41.9985 35.6406L40.8806 33.274L40.6232 31.7385L41.3594 31.2586L43.534 31.131L44.0455 32.4746Z" fill="#0050AB"></path> <path d="M36.8499 30.6512L40.9439 27.9007L37.7769 27.0697L31.7656 33.0494V36.9515L33.2684 42.1012V39.3824L36.8499 30.6512ZM51.0503 27.1657C50.986 27.1657 47.1799 28.1254 47.1799 28.1254L43.4064 31.2586L41.3594 31.2586L47.5943 27.1657H51.0503Z" fill="#0050AB"></path> <path d="M56.1356 24.5101L57.6701 26.9737L55.8477 27.9334L49.0665 25.1503L48.9072 23.2635L52.6807 23.5198L56.1356 24.5112V24.5101Z" fill="#0050AB"></path> <path d="M56.1029 26.4295L55.4955 26.8777L55.4322 26.7818L56.1029 26.2703L57.0626 26.8134L56.9994 26.941L56.1029 26.4295Z" fill="#0050AB"></path> <path d="M41.2001 20.5131L48.459 22.3355V26.5255L45.677 25.4709L40.2393 22.6877L41.2001 20.5131Z" fill="#0050AB"></path> <path d="M50.2498 21.2482L46.9879 18.0179L47.0839 15.0122L50.2498 21.2482Z" fill="#0050AB"></path> <path d="M49.0676 22.4641L47.1166 14.0841L31.7329 0.907715L34.0035 7.17638L42.9582 15.8116L49.0676 22.4641Z" fill="#0050AB"></path> <path d="M31.5081 7.33562L37.106 13.7329L42.9592 15.8105L30.9956 4.23504L31.5081 7.33668V7.33562Z" fill="#0050AB"></path> <path d="M23.7367 14.2761L29.9737 15.9719L35.0275 20.9603L29.6542 19.3614L28.2463 18.4017L23.7367 14.2761Z" fill="#0050AB"></path> <path d="M40.2078 23.967L40.0802 25.0216L34.0994 24.4785L29.3652 21.92L40.2078 23.967Z" fill="#0050AB"></path> <path d="M38.4803 26.1743L36.0821 25.9497L32.4036 24.7664L40.3037 25.0543L48.0109 25.6944L48.9073 27.3576L46.9879 27.0053L42.7979 26.6214L39.7606 25.4698L38.4803 26.1743Z" fill="#0050AB"></path> <path d="M26.4566 18.3385L39.5687 22.3355L45.677 25.4709L40.0801 25.0227L32.9477 22.8797L26.4566 18.3385Z" fill="#0050AB"></path> <path d="M25.1446 13.8922L30.4209 17.9546L35.0264 20.9603L40.2404 22.6877L41.2001 20.5131L21.4967 8.7119L25.1446 13.8922Z" fill="#0050AB"></path> <path d="M20.6667 4.23398L26.3912 12.0698L41.2001 20.5131L49.0676 22.4641L42.9592 15.8105L20.6667 4.23398Z" fill="#0050AB"></path> <path d="M48.4591 26.4928L48.459 22.3355L49.0676 22.4641L49.0676 22.5918L52.6807 23.5198L49.5464 23.967L52.0417 25.0216L49.5464 25.0859L53.4802 26.6531L55.8478 27.9323L55.9754 28.4765L52.2336 27.1656H48.9073L48.4591 26.4928Z" fill="#0050AB"></path> <path d="M57.6702 29.1156L56.7105 29.9477H55.7191L56.1674 29.18L55.8478 27.9323L57.6702 26.9726V29.1156Z" fill="#0050AB"></path> <path d="M36.466 36.8555L37.1694 37.7519L37.0102 37.9755L37.5217 43.0925L34.2597 36.8882L37.0418 30.3L42.799 26.6214L47.5964 27.1329V27.1646L39.7289 32.3143L39.0572 31.3229L36.466 36.8555Z" fill="#0050AB"></path> <path d="M42.799 26.6214L31.7645 33.5292L29.3652 36.3767L30.1973 33.274L32.6915 29.8518L39.7606 25.4698L42.799 26.6214Z" fill="#0050AB"></path> <path d="M39.7289 32.3143L39.7289 40.0868L40.7202 42.5483L36.466 36.8555L39.0572 31.3229L39.7289 32.3143Z" fill="#0050AB"></path> <path d="M28.8863 31.5465V32.6339L30.9323 29.8834L28.8863 31.5465Z" fill="#0050AB"></path> <path d="M30.9967 38.6146L31.3489 40.7576L30.5812 40.2777V37.6233L30.9967 38.6146Z" fill="#0050AB"></path> </svg> 