<?xml version="1.0" encoding="UTF-8"?> <svg xmlns="http://www.w3.org/2000/svg" width="128" height="125" viewBox="0 0 128 125" fill="none"> <path d="M125.714 54.1187C126.977 54.1187 128 53.0954 128 51.833C128 50.5707 126.977 49.5473 125.714 49.5473C124.452 49.5473 123.429 50.5707 123.429 51.833C123.429 53.0954 124.452 54.1187 125.714 54.1187Z" fill="white"></path> <path d="M124.19 102.881C125.453 102.881 126.476 101.857 126.476 100.595C126.476 99.3326 125.453 98.3092 124.19 98.3092C122.928 98.3092 121.905 99.3326 121.905 100.595C121.905 101.857 122.928 102.881 124.19 102.881Z" fill="white"></path> <path d="M99.8095 124.214C101.072 124.214 102.095 123.191 102.095 121.928C102.095 120.666 101.072 119.643 99.8095 119.643C98.5472 119.643 97.5238 120.666 97.5238 121.928C97.5238 123.191 98.5472 124.214 99.8095 124.214Z" fill="white"></path> <path d="M29.7143 6.88064C30.9767 6.88064 32 5.85729 32 4.59492C32 3.33256 30.9767 2.30921 29.7143 2.30921C28.4519 2.30921 27.4286 3.33256 27.4286 4.59492C27.4286 5.85729 28.4519 6.88064 29.7143 6.88064Z" fill="white"></path> <path d="M8.38095 90.6902C9.64332 90.6902 10.6667 89.6668 10.6667 88.4045C10.6667 87.1421 9.64332 86.1187 8.38095 86.1187C7.11859 86.1187 6.09524 87.1421 6.09524 88.4045C6.09524 89.6668 7.11859 90.6902 8.38095 90.6902Z" fill="white"></path> <path d="M2.28571 31.2616C3.54808 31.2616 4.57143 30.2382 4.57143 28.9759C4.57143 27.7135 3.54808 26.6902 2.28571 26.6902C1.02335 26.6902 0 27.7135 0 28.9759C0 30.2382 1.02335 31.2616 2.28571 31.2616Z" fill="white"></path> <path d="M117.676 35.7922C117.493 35.6782 117.288 35.6043 117.074 35.5755C116.86 35.5467 116.643 35.5635 116.436 35.6249C115.033 36.0419 113.577 36.2537 112.113 36.2536C103.741 36.2536 96.9295 29.4409 96.9295 21.0673C96.9296 20.7525 96.8321 20.4454 96.6504 20.1882C96.4688 19.9311 96.212 19.7365 95.9153 19.6313L64.5099 8.49222C64.1811 8.37546 63.8221 8.37525 63.4932 8.49161L31.932 19.6307C31.6347 19.7355 31.3772 19.93 31.1951 20.1874C31.013 20.4448 30.9153 20.7523 30.9154 21.0676C30.9154 29.4416 24.1039 36.2539 15.7321 36.2539C14.325 36.2539 12.9152 36.0552 11.5422 35.6633C11.3362 35.6046 11.12 35.59 10.9079 35.6204C10.6958 35.6509 10.4925 35.7257 10.3112 35.84C10.13 35.9543 9.97488 36.1055 9.85601 36.2838C9.73713 36.4621 9.65717 36.6634 9.62133 36.8747C8.96896 40.7297 8.63979 44.6324 8.63726 48.5422C8.63726 64.2993 13.9035 79.794 23.8677 93.352C33.6454 106.656 47.3176 117.287 63.4066 124.094C63.5944 124.174 63.7963 124.215 64.0003 124.215C64.2043 124.215 64.4062 124.174 64.594 124.094C80.683 117.287 94.3552 106.656 104.133 93.352C114.096 79.794 119.363 64.299 119.363 48.5422C119.363 44.6534 119.03 40.7135 118.373 36.8317C118.337 36.619 118.256 36.4163 118.136 36.2371C118.016 36.0578 117.859 35.9062 117.676 35.7922ZM64 121.033C32.1969 107.336 11.6846 78.9453 11.6846 48.5416C11.6846 45.3681 11.9165 42.162 12.3749 38.9876C13.4818 39.1959 14.6057 39.3008 15.7321 39.3012C25.419 39.3012 33.3653 31.7059 33.931 22.1568L63.9991 11.5447L93.9142 22.155C94.4786 31.705 102.426 39.3012 112.113 39.3012C113.293 39.3012 114.468 39.1869 115.622 38.9602C116.082 42.1333 116.314 45.3353 116.316 48.5416C116.315 78.9453 95.8031 107.336 64 121.033ZM117.333 22.1187C123.215 22.1187 128 17.3337 128 11.4521C128 5.57047 123.215 0.7854 117.333 0.7854C111.452 0.7854 106.667 5.57047 106.667 11.4521C106.667 17.3337 111.452 22.1187 117.333 22.1187ZM117.333 3.83302C121.534 3.83302 124.952 7.25092 124.952 11.4521C124.952 15.6532 121.534 19.0711 117.333 19.0711C113.132 19.0711 109.714 15.6532 109.714 11.4521C109.714 7.25092 113.132 3.83302 117.333 3.83302ZM15.2381 105.928C10.1967 105.928 6.09524 110.03 6.09524 115.071C6.09524 120.112 10.1967 124.214 15.2381 124.214C20.2795 124.214 24.381 120.112 24.381 115.071C24.381 110.03 20.2795 105.928 15.2381 105.928ZM15.2381 121.166C11.8772 121.166 9.14286 118.432 9.14286 115.071C9.14286 111.71 11.8772 108.976 15.2381 108.976C18.599 108.976 21.3333 111.71 21.3333 115.071C21.3333 118.432 18.5993 121.166 15.2381 121.166Z" fill="white"></path> <path d="M92.9524 64.7854C92.9524 48.8211 79.9643 35.833 64 35.833C48.0354 35.833 35.0476 48.8211 35.0476 64.7854C35.0476 80.7497 48.0354 93.7378 64 93.7378C79.9643 93.7378 92.9524 80.7497 92.9524 64.7854ZM65.5238 63.2616V39.0921C71.2104 40.6775 75.8129 50.9766 76.1673 63.2616H65.5238ZM76.1676 66.3092C75.8132 78.5942 71.2104 88.8933 65.5241 90.4787V66.3092H76.1676ZM62.4762 39.0921V63.2616H51.8324C52.1871 50.9769 56.7896 40.6775 62.4762 39.0921ZM62.4762 66.3092V90.4787C56.7896 88.8936 52.1868 78.5942 51.8324 66.3092H62.4762ZM72.1612 89.3654C76.2344 84.5413 78.9617 76.1451 79.218 66.3092H89.856C89.2282 77.0752 81.9962 86.0913 72.1612 89.3654ZM89.8563 63.2616H79.2183C78.962 53.4257 76.2347 45.0295 72.1615 40.2054C81.9962 43.4795 89.2282 52.4956 89.8563 63.2616ZM55.8388 40.2054C51.7653 45.0295 49.0383 53.4257 48.782 63.2616H38.144C38.7718 52.4956 46.0038 43.4795 55.8388 40.2054ZM38.1437 66.3092H48.7817C49.038 76.1451 51.765 84.5413 55.8385 89.3654C46.0038 86.091 38.7718 77.0752 38.1437 66.3092Z" fill="white"></path> <path d="M64 31.2616C64.4041 31.2616 64.7917 31.101 65.0775 30.8153C65.3633 30.5295 65.5238 30.1419 65.5238 29.7378C65.5238 29.3336 65.3633 28.9461 65.0775 28.6603C64.7917 28.3745 64.4041 28.214 64 28.214C43.8342 28.214 27.4286 44.6196 27.4286 64.7854C27.4286 65.1895 27.5891 65.5771 27.8749 65.8629C28.1607 66.1487 28.5482 66.3092 28.9524 66.3092C29.3565 66.3092 29.7441 66.1487 30.0299 65.8629C30.3156 65.5771 30.4762 65.1895 30.4762 64.7854C30.4762 46.3004 45.515 31.2616 64 31.2616ZM99.0476 63.2616C98.6435 63.2616 98.2559 63.4221 97.9701 63.7079C97.6844 63.9937 97.5238 64.3813 97.5238 64.7854C97.5238 83.2704 82.485 98.3092 64 98.3092C63.1583 98.3092 62.4762 98.9913 62.4762 99.833C62.4762 100.675 63.1583 101.357 64 101.357C84.1658 101.357 100.571 84.9509 100.571 64.7854C100.571 64.3813 100.411 63.9937 100.125 63.7079C99.8393 63.4221 99.4518 63.2616 99.0476 63.2616Z" fill="white"></path> </svg> 