<?xml version="1.0" encoding="UTF-8"?> <svg xmlns="http://www.w3.org/2000/svg" width="415" height="123" viewBox="0 0 415 123" fill="none"> <path d="M34.8488 15.6613V24.7581H22.2878V63.2258H12.4966V24.7581H0V15.6613H34.8488Z" fill="white"></path> <path d="M72.7895 42.0645V63.2258H63.3848V43.6129C63.3848 38.3871 61.5168 35.8065 57.3298 35.8065C52.6275 35.8065 49.5355 39.2903 49.5355 44.9032V63.2258H40.1308V15.6452H49.5355V31.6129C52.3698 28.9032 55.8482 27.5484 60.0352 27.5484C67.9583 27.5484 72.7895 33.2258 72.7895 42.0645Z" fill="white"></path> <path d="M101.165 28.1935V37.0968H97.1063C91.7599 37.0968 89.6986 39.4194 89.6986 45.0968V63.2258H80.2939V28.3871H86.349L88.0238 32.6452C90.4071 29.6774 93.7567 28.1935 98.0726 28.1935H101.165Z" fill="white"></path> <path d="M138.848 48.4516H112.566C113.339 53.1613 116.431 55.8064 121.069 55.8064C124.225 55.8064 126.931 54.3226 128.412 51.8065H138.332C135.756 59.3548 129.121 64.1935 121.069 64.1935C115.916 64.1935 111.6 62.4516 108.186 58.9032C104.772 55.3548 103.033 51.0323 103.033 45.8065C103.033 35.2903 110.698 27.4194 121.069 27.4194C131.569 27.2258 139.298 35.8065 139.041 45.6774C139.041 46.5806 138.976 47.4839 138.848 48.4516ZM112.824 42H129.636C128.348 37.8064 125.191 35.4194 121.069 35.4194C116.946 35.4194 113.854 37.871 112.824 42Z" fill="white"></path> <path d="M173.825 28.3226H180.846V63.1613H173.439L172.666 60.0645C169.509 62.8387 165.709 64.1935 161.393 64.1935C156.175 64.1935 151.795 62.4516 148.381 58.9032C144.903 55.4194 143.163 51.0323 143.163 45.7419C143.163 40.4516 144.903 36.129 148.381 32.6452C151.795 29.1613 156.175 27.4194 161.393 27.4194C165.838 27.4194 169.638 28.8387 172.795 31.6774L173.825 28.3226ZM162.166 55.2903C164.871 55.2903 167.126 54.3871 168.93 52.5806C170.733 50.7742 171.635 48.5161 171.635 45.7419C171.635 42.9677 170.733 40.7097 168.93 38.9032C167.126 37.0968 164.871 36.1935 162.166 36.1935C156.755 36.1935 152.697 40.3226 152.697 45.7419C152.697 48.5161 153.599 50.7742 155.402 52.5806C157.142 54.3871 159.396 55.2903 162.166 55.2903Z" fill="white"></path> <path d="M211.057 54.8032V63.1903H204.423C196.757 63.1903 192.055 58.5452 192.055 50.7387V35.9H183.858L201.266 17.4194V28.3516H210.864V35.9H201.459V49.5129C201.459 52.8677 203.392 54.8032 206.806 54.8032H211.057Z" fill="white"></path> <path d="M409.199 49.3548V78.4935C409.199 81.6355 406.645 84.1935 403.508 84.1935H238.067C234.93 84.1935 232.376 81.6355 232.376 78.4935V49.3548H226.578V78.4935C226.578 84.8484 231.722 90 238.067 90H403.508C409.853 90 414.997 84.8484 414.997 78.4935V49.3548H409.199Z" fill="#FF7E00"></path> <path d="M232.379 43.5484V11.5065C232.379 8.36452 234.933 5.80645 238.07 5.80645H403.511C406.649 5.80645 409.203 8.36452 409.203 11.5065V43.5484H415V11.5065C415 5.15161 409.856 0 403.511 0H238.07C231.725 0 226.581 5.15161 226.581 11.5065V43.5484H232.379Z" fill="#FF7E00"></path> <path d="M248.422 60.5806C245.201 57.8065 243.59 54.0645 243.59 49.2258H253.446C253.446 53.6774 257.053 55.6774 260.983 55.6774C264.912 55.6774 268.262 53.6774 268.262 50.3871C268.004 48.1936 267.038 47.2258 264.525 46.2581C262.657 45.5484 261.82 45.3548 259.243 44.7742C257.182 44.2581 256.667 44.129 254.67 43.5484C253.639 43.2258 252.866 42.9677 252.351 42.7097C251.256 42.2581 249.195 41.2903 248.228 40.4516C245.974 38.3871 244.235 35.8065 244.235 31.4194C244.235 22.8387 250.483 17.871 260.596 17.871C270.709 17.871 276.829 23.3548 276.829 32.3871H267.166C267.166 28.7097 264.203 26.7097 260.338 26.7097C256.924 26.7097 253.961 28.1936 253.961 30.9677C254.219 32.9677 255.056 33.9355 257.569 34.8387C259.372 35.4839 260.145 35.6774 262.657 36.2581C265.62 37.0323 265.878 37.0323 268.712 38C271.289 38.9032 272.32 39.6129 274.188 41.0323C276.829 43.0968 277.988 46 278.182 50.2581C278.182 60 270.387 64.7742 261.047 64.7742C255.829 64.7742 251.578 63.3548 248.422 60.5806Z" fill="#FF7E00"></path> <path d="M285.135 24.3871V15.6129H294.54V24.3871H285.135ZM285.135 63.871V29.0323H294.54V63.871H285.135Z" fill="#FF7E00"></path> <path d="M331.192 29.0323H337.312V59.8065C337.312 70.7097 330.484 77.4194 319.533 77.4194C310.064 77.4194 303.365 72.5807 301.819 64.6452H311.159C312.19 67.5484 315.668 69.3548 319.34 69.3548C324.3 69.3548 328.036 66.129 328.036 61.1613V59.871C325.137 61.9355 321.852 62.9677 318.116 62.9677C308.582 63.1613 300.595 55.1613 300.853 45.5484C300.853 40.7097 302.527 36.5807 305.877 33.1613C309.162 29.7419 313.285 28.0645 318.116 28.0645C322.625 28.0645 326.49 29.5484 329.711 32.5161L331.192 29.0323ZM328.1 45.5484C328.1 40.3871 324.429 36.5806 319.211 36.5806C313.993 36.5806 310.386 40.3871 310.386 45.5484C310.386 50.7097 314.058 54.5806 319.211 54.5806C324.364 54.5806 328.1 50.7742 328.1 45.5484Z" fill="#FF7E00"></path> <path d="M378.795 42.7742V63.871H369.391V44.2581C369.391 39.0323 367.394 36.4516 363.336 36.4516C358.504 36.4516 355.541 39.9355 355.541 45.5484V63.871H346.137V29.0323H352.578L354.446 33.3548C356.958 30.129 361.274 28.1936 365.977 28.1936C373.9 28.1936 378.795 33.9355 378.795 42.7742Z" fill="#FF7E00"></path> <path d="M387.62 63.871V53.8065H397.605V63.871H387.62ZM387.878 49.2903V15.6129H397.411V49.2903H387.878Z" fill="#FF7E00"></path> <path d="M243.377 104.151L239.943 116H238.209L235.455 106.463L232.599 116L230.882 116.017L227.567 104.151H229.216L231.8 114.198L234.656 104.151H236.39L239.11 114.164L241.711 104.151H243.377ZM253.57 110.985C253.57 111.28 253.553 111.591 253.519 111.92H246.073C246.13 112.838 246.442 113.558 247.008 114.079C247.586 114.589 248.283 114.844 249.099 114.844C249.768 114.844 250.323 114.691 250.765 114.385C251.219 114.068 251.536 113.648 251.717 113.127H253.383C253.134 114.022 252.635 114.753 251.887 115.32C251.139 115.875 250.21 116.153 249.099 116.153C248.215 116.153 247.422 115.955 246.719 115.558C246.028 115.161 245.484 114.6 245.087 113.875C244.691 113.138 244.492 112.288 244.492 111.325C244.492 110.362 244.685 109.517 245.07 108.792C245.456 108.067 245.994 107.511 246.685 107.126C247.388 106.729 248.193 106.531 249.099 106.531C249.983 106.531 250.765 106.724 251.445 107.109C252.125 107.494 252.647 108.027 253.009 108.707C253.383 109.376 253.57 110.135 253.57 110.985ZM251.972 110.662C251.972 110.073 251.842 109.568 251.581 109.149C251.321 108.718 250.964 108.395 250.51 108.18C250.068 107.953 249.575 107.84 249.031 107.84C248.249 107.84 247.581 108.089 247.025 108.588C246.481 109.087 246.17 109.778 246.09 110.662H251.972ZM257.159 108.418C257.477 107.863 257.941 107.409 258.553 107.058C259.165 106.707 259.862 106.531 260.644 106.531C261.483 106.531 262.237 106.729 262.905 107.126C263.574 107.523 264.101 108.084 264.486 108.809C264.872 109.523 265.064 110.356 265.064 111.308C265.064 112.249 264.872 113.087 264.486 113.824C264.101 114.561 263.568 115.133 262.888 115.541C262.22 115.949 261.472 116.153 260.644 116.153C259.84 116.153 259.131 115.977 258.519 115.626C257.919 115.275 257.465 114.827 257.159 114.283V116H255.612V103.42H257.159V108.418ZM263.483 111.308C263.483 110.605 263.342 109.993 263.058 109.472C262.775 108.951 262.39 108.554 261.902 108.282C261.426 108.01 260.899 107.874 260.321 107.874C259.755 107.874 259.228 108.016 258.74 108.299C258.264 108.571 257.879 108.973 257.584 109.506C257.301 110.027 257.159 110.634 257.159 111.325C257.159 112.028 257.301 112.645 257.584 113.178C257.879 113.699 258.264 114.102 258.74 114.385C259.228 114.657 259.755 114.793 260.321 114.793C260.899 114.793 261.426 114.657 261.902 114.385C262.39 114.102 262.775 113.699 263.058 113.178C263.342 112.645 263.483 112.022 263.483 111.308ZM270.399 116.153C269.685 116.153 269.044 116.034 268.478 115.796C267.911 115.547 267.463 115.207 267.135 114.776C266.806 114.334 266.625 113.83 266.591 113.263H268.189C268.234 113.728 268.449 114.107 268.835 114.402C269.231 114.697 269.747 114.844 270.382 114.844C270.971 114.844 271.436 114.714 271.776 114.453C272.116 114.192 272.286 113.864 272.286 113.467C272.286 113.059 272.104 112.759 271.742 112.566C271.379 112.362 270.818 112.164 270.059 111.971C269.367 111.79 268.801 111.608 268.359 111.427C267.928 111.234 267.554 110.957 267.237 110.594C266.931 110.22 266.778 109.733 266.778 109.132C266.778 108.656 266.919 108.22 267.203 107.823C267.486 107.426 267.888 107.115 268.41 106.888C268.931 106.65 269.526 106.531 270.195 106.531C271.226 106.531 272.059 106.792 272.694 107.313C273.328 107.834 273.668 108.548 273.714 109.455H272.167C272.133 108.968 271.934 108.577 271.572 108.282C271.22 107.987 270.744 107.84 270.144 107.84C269.588 107.84 269.146 107.959 268.818 108.197C268.489 108.435 268.325 108.747 268.325 109.132C268.325 109.438 268.421 109.693 268.614 109.897C268.818 110.09 269.067 110.248 269.362 110.373C269.668 110.486 270.087 110.617 270.62 110.764C271.288 110.945 271.832 111.127 272.252 111.308C272.671 111.478 273.028 111.739 273.323 112.09C273.629 112.441 273.787 112.9 273.799 113.467C273.799 113.977 273.657 114.436 273.374 114.844C273.09 115.252 272.688 115.575 272.167 115.813C271.657 116.04 271.067 116.153 270.399 116.153ZM276.781 105.171C276.487 105.171 276.237 105.069 276.033 104.865C275.829 104.661 275.727 104.412 275.727 104.117C275.727 103.822 275.829 103.573 276.033 103.369C276.237 103.165 276.487 103.063 276.781 103.063C277.065 103.063 277.303 103.165 277.495 103.369C277.699 103.573 277.801 103.822 277.801 104.117C277.801 104.412 277.699 104.661 277.495 104.865C277.303 105.069 277.065 105.171 276.781 105.171ZM277.529 106.684V116H275.982V106.684H277.529ZM282.053 107.959V113.45C282.053 113.903 282.149 114.226 282.342 114.419C282.535 114.6 282.869 114.691 283.345 114.691H284.484V116H283.09C282.229 116 281.583 115.802 281.152 115.405C280.721 115.008 280.506 114.357 280.506 113.45V107.959H279.299V106.684H280.506V104.338H282.053V106.684H284.484V107.959H282.053ZM294.858 110.985C294.858 111.28 294.841 111.591 294.807 111.92H287.361C287.418 112.838 287.73 113.558 288.296 114.079C288.874 114.589 289.571 114.844 290.387 114.844C291.056 114.844 291.611 114.691 292.053 114.385C292.507 114.068 292.824 113.648 293.005 113.127H294.671C294.422 114.022 293.923 114.753 293.175 115.32C292.427 115.875 291.498 116.153 290.387 116.153C289.503 116.153 288.71 115.955 288.007 115.558C287.316 115.161 286.772 114.6 286.375 113.875C285.979 113.138 285.78 112.288 285.78 111.325C285.78 110.362 285.973 109.517 286.358 108.792C286.744 108.067 287.282 107.511 287.973 107.126C288.676 106.729 289.481 106.531 290.387 106.531C291.271 106.531 292.053 106.724 292.733 107.109C293.413 107.494 293.935 108.027 294.297 108.707C294.671 109.376 294.858 110.135 294.858 110.985ZM293.26 110.662C293.26 110.073 293.13 109.568 292.869 109.149C292.609 108.718 292.252 108.395 291.798 108.18C291.356 107.953 290.863 107.84 290.319 107.84C289.537 107.84 288.869 108.089 288.313 108.588C287.769 109.087 287.458 109.778 287.378 110.662H293.26ZM308.437 113.365H303.269L302.317 116H300.685L304.969 104.219H306.754L311.021 116H309.389L308.437 113.365ZM307.995 112.107L305.853 106.123L303.711 112.107H307.995ZM317.427 106.514C318.56 106.514 319.478 106.86 320.181 107.551C320.883 108.231 321.235 109.217 321.235 110.509V116H319.705V110.73C319.705 109.801 319.472 109.092 319.008 108.605C318.543 108.106 317.908 107.857 317.104 107.857C316.288 107.857 315.636 108.112 315.149 108.622C314.673 109.132 314.435 109.874 314.435 110.849V116H312.888V106.684H314.435V108.01C314.741 107.534 315.154 107.166 315.676 106.905C316.208 106.644 316.792 106.514 317.427 106.514ZM325.649 107.959V113.45C325.649 113.903 325.745 114.226 325.938 114.419C326.13 114.6 326.465 114.691 326.941 114.691H328.08V116H326.686C325.824 116 325.178 115.802 324.748 115.405C324.317 115.008 324.102 114.357 324.102 113.45V107.959H322.895V106.684H324.102V104.338H325.649V106.684H328.08V107.959H325.649ZM330.753 105.171C330.458 105.171 330.209 105.069 330.005 104.865C329.801 104.661 329.699 104.412 329.699 104.117C329.699 103.822 329.801 103.573 330.005 103.369C330.209 103.165 330.458 103.063 330.753 103.063C331.036 103.063 331.274 103.165 331.467 103.369C331.671 103.573 331.773 103.822 331.773 104.117C331.773 104.412 331.671 104.661 331.467 104.865C331.274 105.069 331.036 105.171 330.753 105.171ZM331.501 106.684V116H329.954V106.684H331.501ZM340.598 109.115V110.424H333.815V109.115H340.598ZM355.52 104.236V116H353.973V107.228L350.063 116H348.975L345.048 107.211V116H343.501V104.236H345.167L349.519 113.96L353.871 104.236H355.52ZM357.565 111.308C357.565 110.356 357.758 109.523 358.143 108.809C358.529 108.084 359.056 107.523 359.724 107.126C360.404 106.729 361.158 106.531 361.985 106.531C362.801 106.531 363.51 106.707 364.11 107.058C364.711 107.409 365.159 107.851 365.453 108.384V106.684H367.017V116H365.453V114.266C365.147 114.81 364.688 115.263 364.076 115.626C363.476 115.977 362.773 116.153 361.968 116.153C361.141 116.153 360.393 115.949 359.724 115.541C359.056 115.133 358.529 114.561 358.143 113.824C357.758 113.087 357.565 112.249 357.565 111.308ZM365.453 111.325C365.453 110.622 365.312 110.01 365.028 109.489C364.745 108.968 364.36 108.571 363.872 108.299C363.396 108.016 362.869 107.874 362.291 107.874C361.713 107.874 361.186 108.01 360.71 108.282C360.234 108.554 359.855 108.951 359.571 109.472C359.288 109.993 359.146 110.605 359.146 111.308C359.146 112.022 359.288 112.645 359.571 113.178C359.855 113.699 360.234 114.102 360.71 114.385C361.186 114.657 361.713 114.793 362.291 114.793C362.869 114.793 363.396 114.657 363.872 114.385C364.36 114.102 364.745 113.699 365.028 113.178C365.312 112.645 365.453 112.028 365.453 111.325ZM371.179 103.42V116H369.632V103.42H371.179ZM386.225 106.684L383.318 116H381.72L379.476 108.605L377.232 116H375.634L372.71 106.684H374.291L376.433 114.504L378.745 106.684H380.326L382.587 114.521L384.695 106.684H386.225ZM387.183 111.308C387.183 110.356 387.375 109.523 387.761 108.809C388.146 108.084 388.673 107.523 389.342 107.126C390.022 106.729 390.775 106.531 391.603 106.531C392.419 106.531 393.127 106.707 393.728 107.058C394.328 107.409 394.776 107.851 395.071 108.384V106.684H396.635V116H395.071V114.266C394.765 114.81 394.306 115.263 393.694 115.626C393.093 115.977 392.39 116.153 391.586 116.153C390.758 116.153 390.01 115.949 389.342 115.541C388.673 115.133 388.146 114.561 387.761 113.824C387.375 113.087 387.183 112.249 387.183 111.308ZM395.071 111.325C395.071 110.622 394.929 110.01 394.646 109.489C394.362 108.968 393.977 108.571 393.49 108.299C393.014 108.016 392.487 107.874 391.909 107.874C391.331 107.874 390.804 108.01 390.328 108.282C389.852 108.554 389.472 108.951 389.189 109.472C388.905 109.993 388.764 110.605 388.764 111.308C388.764 112.022 388.905 112.645 389.189 113.178C389.472 113.699 389.852 114.102 390.328 114.385C390.804 114.657 391.331 114.793 391.909 114.793C392.487 114.793 393.014 114.657 393.49 114.385C393.977 114.102 394.362 113.699 394.646 113.178C394.929 112.645 395.071 112.028 395.071 111.325ZM400.796 108.197C401.068 107.664 401.453 107.251 401.952 106.956C402.462 106.661 403.08 106.514 403.805 106.514V108.112H403.397C401.663 108.112 400.796 109.053 400.796 110.934V116H399.249V106.684H400.796V108.197ZM414.091 110.985C414.091 111.28 414.074 111.591 414.04 111.92H406.594C406.65 112.838 406.962 113.558 407.529 114.079C408.107 114.589 408.804 114.844 409.62 114.844C410.288 114.844 410.844 114.691 411.286 114.385C411.739 114.068 412.056 113.648 412.238 113.127H413.904C413.654 114.022 413.156 114.753 412.408 115.32C411.66 115.875 410.73 116.153 409.62 116.153C408.736 116.153 407.942 115.955 407.24 115.558C406.548 115.161 406.004 114.6 405.608 113.875C405.211 113.138 405.013 112.288 405.013 111.325C405.013 110.362 405.205 109.517 405.591 108.792C405.976 108.067 406.514 107.511 407.206 107.126C407.908 106.729 408.713 106.531 409.62 106.531C410.504 106.531 411.286 106.724 411.966 107.109C412.646 107.494 413.167 108.027 413.53 108.707C413.904 109.376 414.091 110.135 414.091 110.985ZM412.493 110.662C412.493 110.073 412.362 109.568 412.102 109.149C411.841 108.718 411.484 108.395 411.031 108.18C410.589 107.953 410.096 107.84 409.552 107.84C408.77 107.84 408.101 108.089 407.546 108.588C407.002 109.087 406.69 109.778 406.611 110.662H412.493Z" fill="white"></path> </svg> 