<?xml version="1.0" encoding="utf-8"?>
<!-- Generator: Adobe Illustrator 21.0.0, SVG Export Plug-In . SVG Version: 6.00 Build 0)  -->
<svg version="1.1" id="Capa_1" xmlns="http://www.w3.org/2000/svg" xmlns:xlink="http://www.w3.org/1999/xlink" x="0px" y="0px"
	 viewBox="0 0 200 75" style="enable-background:new 0 0 200 75;" xml:space="preserve">
<style type="text/css">
	.st0{fill-rule:evenodd;clip-rule:evenodd;fill:#FFFFFF;}
</style>
<path class="st0" d="M42.2,56.4C40,57.5,37.9,58,35.8,58c-4.4,0-7.8-1.9-10.4-5.7c-2.6-3.8-3.9-8.5-3.9-14.2c0-3.5,0.6-6.8,1.7-9.9
	c1.1-3.1,2.8-5.6,5.1-7.5c2.3-1.9,5-2.8,8-2.8c1.8,0,3.8,0.5,5.9,1.4v8.9c-1.5-1.4-3-2.2-4.7-2.2c-2.1,0-3.8,1.1-5,3.2
	c-1.2,2.1-1.8,5.2-1.8,9.2c0,3.4,0.6,6.2,1.8,8.3c1.2,2.1,2.8,3.1,4.8,3.1c1.5,0,3.1-0.7,4.9-2.1V56.4z M169.8,26.1
	c-1.8,0-3.2,1.1-4.2,3.1c-1,2.1-1.4,5-1.4,8.6c0,3.7,0.5,6.6,1.4,8.7c0.9,2.1,2.2,3.2,3.9,3.2c1.6,0,2.9-1.1,3.9-3.3
	c1-2.2,1.5-5.1,1.5-8.7c0-3.7-0.5-6.6-1.5-8.6C172.4,27.1,171.2,26.1,169.8,26.1z M168.8,17.9c4.7,0,8.4,1.8,11.1,5.3
	c2.7,3.5,4.1,8.4,4.1,14.5c0,6.2-1.4,11.1-4.1,14.7c-2.7,3.7-6.3,5.5-10.6,5.5c-4.5,0-8-1.9-10.5-5.7c-2.5-3.8-3.7-8.5-3.7-14.2
	c0-3.9,0.6-7.5,1.8-10.6c1.2-3.1,2.9-5.5,5.1-7.1C164.2,18.7,166.5,17.9,168.8,17.9z M151.8,56.4c-2.2,1.1-4.4,1.6-6.4,1.6
	c-4.4,0-7.8-1.9-10.4-5.7c-2.6-3.8-3.9-8.5-3.9-14.2c0-3.5,0.6-6.8,1.7-9.9c1.1-3.1,2.8-5.6,5.1-7.5c2.3-1.9,5-2.8,8-2.8
	c1.8,0,3.8,0.5,5.9,1.4v8.9c-1.5-1.4-3-2.2-4.7-2.2c-2.1,0-3.8,1.1-5,3.2c-1.2,2.1-1.8,5.2-1.8,9.2c0,3.4,0.6,6.2,1.8,8.3
	c1.2,2.1,2.8,3.1,4.8,3.1c1.5,0,3.1-0.7,4.9-2.1V56.4z M115,29.2l-2.5,13.6h4.9L115,29.2z M110.7,18.6h9l10.2,38.8H120l-1.4-7.7
	h-7.4l-1.4,7.7h-9.3L110.7,18.6z M87.4,26.1v8.3h2c1.5,0,2.7-0.4,3.5-1.2c0.9-0.8,1.3-1.9,1.3-3.2c0-1.3-0.3-2.3-1-3
	c-0.7-0.6-1.7-1-3-1H87.4z M78.2,18.6v38.8h9.1V42h3.1c3.1,0,5.8-0.7,7.9-2c2.1-1.4,3.4-3,4.1-4.8c0.6-1.9,1-3.7,1-5.5
	c0-3.5-1-6.2-2.9-8.2c-2-1.9-4.7-2.9-8.3-2.9H78.2z M60.2,26.1c-1.8,0-3.2,1.1-4.2,3.1c-1,2.1-1.4,5-1.4,8.6c0,3.7,0.5,6.6,1.4,8.7
	c0.9,2.1,2.2,3.2,3.9,3.2c1.6,0,2.9-1.1,3.9-3.3c1-2.2,1.5-5.1,1.5-8.7c0-3.7-0.5-6.6-1.5-8.6C62.8,27.1,61.6,26.1,60.2,26.1z
	 M59.3,17.9c4.7,0,8.4,1.8,11.1,5.3c2.7,3.5,4.1,8.4,4.1,14.5c0,6.2-1.4,11.1-4.1,14.7c-2.7,3.7-6.3,5.5-10.6,5.5
	c-4.5,0-8-1.9-10.5-5.7c-2.5-3.8-3.7-8.5-3.7-14.2c0-3.9,0.6-7.5,1.8-10.6c1.2-3.1,2.9-5.5,5.1-7.1C54.6,18.7,56.9,17.9,59.3,17.9z"
	/>
</svg>
