<?xml version="1.0" encoding="utf-8"?>
<!-- Generator: Adobe Illustrator 21.0.0, SVG Export Plug-In . SVG Version: 6.00 Build 0)  -->
<svg version="1.1" id="Capa_1" xmlns="http://www.w3.org/2000/svg" xmlns:xlink="http://www.w3.org/1999/xlink" x="0px" y="0px"
	 viewBox="0 0 200 75" style="enable-background:new 0 0 200 75;" xml:space="preserve">
<style type="text/css">
	.st0{fill-rule:evenodd;clip-rule:evenodd;fill:#FFFFFF;}
</style>
<path id="XMLID_25_" class="st0" d="M50.1,58.3c4,2.3,7.7,2.2,11.2-0.2c10.4-12.2,15.1-26.3,12.9-42.7H62.2
	c2.3,12.5-0.4,22.9-6.5,31.3c-6.2-8.7-8.6-19.1-7.1-30.8H36.5C35.7,32,39.6,46.4,50.1,58.3z M100.5,61c12.5,0,22.7-10.3,22.7-23
	c0-12.7-10.2-23-22.7-23C88,15,77.8,25.3,77.8,38C77.8,50.7,88,61,100.5,61z M125.6,15.9l0.4,11.8c7.5,1.1,12.5,3.8,12.3,10.3
	c0.3,5.7-4.8,8.5-12.3,10.1v11.8c6.7,0.2,13-1.2,18.5-5.8c5.5,3.6,11.9,5.7,19.2,6.3V47.8c-6.8-0.3-11.8-2.7-12.7-9.6
	c0.8-6.4,4.9-9.8,12.3-10.3l0.7-12.1c-7.8-0.5-14.1,1.5-19,5.8C140,17.4,133.6,15.4,125.6,15.9z M100.5,47.4c5.1,0,9.3-4.2,9.3-9.4
	c0-5.2-4.2-9.4-9.3-9.4c-5.1,0-9.3,4.2-9.3,9.4C91.2,43.2,95.4,47.4,100.5,47.4z"/>
</svg>
