<svg id="Logo" xmlns="http://www.w3.org/2000/svg" xmlns:xlink="http://www.w3.org/1999/xlink" width="166" height="32" viewBox="0 0 166 32">
  <defs>
    <clipPath id="clip-path">
      <path id="Clip_10" data-name="Clip 10" d="M0,32H166V0H0Z" fill="none"/>
    </clipPath>
  </defs>
  <path id="Fill_1" data-name="Fill 1" d="M13.78,19.949a1.019,1.019,0,0,0-1.019-1.017H6.689A6.657,6.657,0,0,1,.026,12.28V6.649A6.655,6.655,0,0,1,6.689,0H19.334A6.656,6.656,0,0,1,26,6.649v3.3H14.472l0-.885a1.034,1.034,0,0,0-2.068,0v2.109c0,.579.363.869,1,.869l6.015-.007A6.588,6.588,0,0,1,26,18.687l0,6.656a6.657,6.657,0,0,1-6.663,6.65L6.663,32A6.657,6.657,0,0,1,0,25.35V20.813H11.719v1.753a1.034,1.034,0,0,0,2.068,0v-2.05Z" fill="#002b52"/>
  <path id="Fill_3" data-name="Fill 3" d="M12.89,9.528a1.016,1.016,0,1,0-2.031,0V32H0V.04H10.849V3.626L13.665.013,18.455,0A6.59,6.59,0,0,1,25,6.635V32H12.875Z" transform="translate(29)" fill="#002b52"/>
  <path id="Fill_5" data-name="Fill 5" d="M26,25.343a6.657,6.657,0,0,1-6.664,6.65L6.664,32A6.657,6.657,0,0,1,0,25.35L.025,6.65A6.657,6.657,0,0,1,6.689,0H19.336A6.657,6.657,0,0,1,26,6.65v7.694H14.473l0-4.794a1.034,1.034,0,0,0-2.068,0V22.482a1.034,1.034,0,0,0,2.068,0l0-5.594H26v8.455Z" transform="translate(57)" fill="#002b52"/>
  <path id="Fill_7" data-name="Fill 7" d="M0,4.648l1.94-.124a1.527,1.527,0,0,0,.258.737,1.075,1.075,0,0,0,.9.41.99.99,0,0,0,.676-.211A.614.614,0,0,0,3.791,4.5a2.552,2.552,0,0,0-1.045-.393A4.393,4.393,0,0,1,.831,3.286,1.669,1.669,0,0,1,.254,1.979,1.8,1.8,0,0,1,.55.995a1.967,1.967,0,0,1,.889-.73A4.074,4.074,0,0,1,3.066,0,3.287,3.287,0,0,1,5,.48,2.089,2.089,0,0,1,5.791,2.01l-1.925.115a1.061,1.061,0,0,0-.325-.664,1.033,1.033,0,0,0-.684-.208.816.816,0,0,0-.541.156.479.479,0,0,0-.181.376.378.378,0,0,0,.152.292,1.69,1.69,0,0,0,.689.249,8.447,8.447,0,0,1,1.917.6,2.032,2.032,0,0,1,.843.751A1.936,1.936,0,0,1,6,4.68a2.184,2.184,0,0,1-.352,1.2,2.211,2.211,0,0,1-.983.834A3.889,3.889,0,0,1,3.073,7,3.232,3.232,0,0,1,.736,6.336,2.65,2.65,0,0,1,0,4.648" transform="translate(89 1)" fill="#002b52"/>
  <path id="Clip_10-2" data-name="Clip 10" d="M0,32H166V0H0Z" fill="none"/>
  <g id="Logo-2" data-name="Logo" clip-path="url(#clip-path)">
    <path id="Fill_9" data-name="Fill 9" d="M0,7H2V0H0Z" transform="translate(96 1)" fill="#002b52"/>
    <path id="Fill_11" data-name="Fill 11" d="M0,0H5.887V1.489H2.2V2.614H5.63V4.038H2.2V5.416H6V7H0Z" transform="translate(100 1)" fill="#002b52"/>
    <path id="Fill_12" data-name="Fill 12" d="M1.89,7H0V0H3.141A4.024,4.024,0,0,1,4.476.172,1.46,1.46,0,0,1,5.22.808,2.142,2.142,0,0,1,5.5,1.94a2.189,2.189,0,0,1-.217,1,1.845,1.845,0,0,1-.6.683,2.122,2.122,0,0,1-.663.276,1.78,1.78,0,0,1,.489.261,2.108,2.108,0,0,1,.3.371,2.787,2.787,0,0,1,.262.438L6,7H3.876L2.864,4.854a1.643,1.643,0,0,0-.342-.541.729.729,0,0,0-.464-.164H1.89V7Zm0-5.591V2.835h.8a2.531,2.531,0,0,0,.5-.1A.5.5,0,0,0,3.5,2.52a.71.71,0,0,0,.118-.407.7.7,0,0,0-.188-.522A1.034,1.034,0,0,0,2.72,1.41Z" transform="translate(108 1)" fill="#002b52"/>
    <path id="Fill_13" data-name="Fill 13" d="M1.89,7H0V0H3.141A4.024,4.024,0,0,1,4.476.172a1.466,1.466,0,0,1,.745.636A2.15,2.15,0,0,1,5.5,1.94a2.189,2.189,0,0,1-.217,1,1.845,1.845,0,0,1-.6.683,2.11,2.11,0,0,1-.663.276,1.78,1.78,0,0,1,.489.261,2.108,2.108,0,0,1,.3.371,2.923,2.923,0,0,1,.263.438L6,7H3.876L2.865,4.854a1.663,1.663,0,0,0-.343-.541.729.729,0,0,0-.464-.164H1.89V7Zm0-5.591V2.835h.8a2.531,2.531,0,0,0,.5-.1A.5.5,0,0,0,3.5,2.52a.71.71,0,0,0,.118-.407.7.7,0,0,0-.188-.522,1.029,1.029,0,0,0-.7-.181Z" transform="translate(115 1)" fill="#002b52"/>
    <path id="Fill_14" data-name="Fill 14" d="M2.031,7H0L2.409,0H4.6L7,7H4.917L4.6,5.845H2.354L2.031,7ZM3.478,1.812l-.7,2.512h1.4Z" transform="translate(122 1)" fill="#002b52"/>
    <path id="Fill_15" data-name="Fill 15" d="M0,0H1.8L4.171,3.882V0H6V7H4.171L1.816,3.139V7H0Z" transform="translate(89 12)" fill="#002b52"/>
    <path id="Fill_16" data-name="Fill 16" d="M0,0H5.887V1.489H2.2V2.614H5.63V4.038H2.2V5.416H6V7H0Z" transform="translate(97 12)" fill="#002b52"/>
    <path id="Fill_17" data-name="Fill 17" d="M0,0H2.086L3.544,5.038,4.977,0H7L4.605,7H2.442Z" transform="translate(104 12)" fill="#002b52"/>
    <path id="Fill_18" data-name="Fill 18" d="M2.031,7H0L2.409,0H4.6L7,7H4.917L4.6,5.845H2.353L2.031,7ZM3.478,1.812l-.7,2.512h1.4Z" transform="translate(111 12)" fill="#002b52"/>
    <path id="Fill_19" data-name="Fill 19" d="M2.993,7H0V0H2.993a3.381,3.381,0,0,1,1.43.257,2.359,2.359,0,0,1,.9.741A3.165,3.165,0,0,1,5.841,2.12,5.609,5.609,0,0,1,6,3.476a5.049,5.049,0,0,1-.238,1.741A2.926,2.926,0,0,1,5.1,6.253a2.137,2.137,0,0,1-.908.555A4.4,4.4,0,0,1,2.993,7ZM2.011,1.584V5.416H2.5a1.973,1.973,0,0,0,.9-.15,1.015,1.015,0,0,0,.418-.527,3.483,3.483,0,0,0,.151-1.218A2.512,2.512,0,0,0,3.638,2a1.386,1.386,0,0,0-1.124-.411Z" transform="translate(119 12)" fill="#002b52"/>
    <path id="Fill_20" data-name="Fill 20" d="M2.031,7H0L2.409,0H4.6L7,7H4.917L4.6,5.845H2.353L2.031,7ZM3.478,1.812l-.7,2.512h1.4Z" transform="translate(125 12)" fill="#002b52"/>
    <path id="Fill_21" data-name="Fill 21" d="M4.326,4.127,6,4.68a3.5,3.5,0,0,1-.53,1.282,2.355,2.355,0,0,1-.9.777A3.13,3.13,0,0,1,3.207,7a3.673,3.673,0,0,1-1.644-.32A2.726,2.726,0,0,1,.463,5.55,4.127,4.127,0,0,1,0,3.484,3.725,3.725,0,0,1,.815.9a2.946,2.946,0,0,1,2.3-.9A2.933,2.933,0,0,1,4.953.515,3.048,3.048,0,0,1,5.944,2.1l-1.688.409a1.653,1.653,0,0,0-.185-.451,1.13,1.13,0,0,0-.39-.368,1.048,1.048,0,0,0-.517-.129,1.094,1.094,0,0,0-.992.574,2.65,2.65,0,0,0-.26,1.34,2.755,2.755,0,0,0,.311,1.549,1.025,1.025,0,0,0,.873.419A1.011,1.011,0,0,0,3.92,5.1a2.18,2.18,0,0,0,.405-.978" transform="translate(89 23)" fill="#002b52"/>
    <path id="Fill_22" data-name="Fill 22" d="M3.571,7A4.329,4.329,0,0,1,1.68,6.635,2.853,2.853,0,0,1,.465,5.48,3.863,3.863,0,0,1,0,3.5,3.51,3.51,0,0,1,.922.923,3.48,3.48,0,0,1,3.488,0a3.543,3.543,0,0,1,2.6.907A3.441,3.441,0,0,1,7,3.448a4.2,4.2,0,0,1-.4,1.947A2.871,2.871,0,0,1,5.449,6.577,3.807,3.807,0,0,1,3.571,7ZM3.484,1.574a1.284,1.284,0,0,0-1.021.449,2.3,2.3,0,0,0-.384,1.488,2.287,2.287,0,0,0,.382,1.48A1.3,1.3,0,0,0,3.5,5.441,1.3,1.3,0,0,0,4.549,5a2.527,2.527,0,0,0,.372-1.581,2.109,2.109,0,0,0-.387-1.4A1.33,1.33,0,0,0,3.484,1.574Z" transform="translate(96 23)" fill="#002b52"/>
    <path id="Fill_23" data-name="Fill 23" d="M1.89,7H0V0H3.141A4.031,4.031,0,0,1,4.476.172a1.466,1.466,0,0,1,.745.636A2.15,2.15,0,0,1,5.5,1.94a2.189,2.189,0,0,1-.217,1,1.845,1.845,0,0,1-.6.683,2.1,2.1,0,0,1-.663.276,1.762,1.762,0,0,1,.489.261,2.108,2.108,0,0,1,.3.371,2.759,2.759,0,0,1,.262.438L6,7H3.876L2.865,4.854a1.659,1.659,0,0,0-.343-.541.729.729,0,0,0-.464-.164H1.89V7Zm0-5.591V2.834h.8a2.483,2.483,0,0,0,.5-.1A.5.5,0,0,0,3.5,2.52a.72.72,0,0,0,.119-.407.7.7,0,0,0-.189-.522,1.032,1.032,0,0,0-.7-.181Z" transform="translate(105 23)" fill="#002b52"/>
    <path id="Fill_24" data-name="Fill 24" d="M2.192,7H0V0H3.632A2.515,2.515,0,0,1,5.409.559,2.1,2.1,0,0,1,6,2.148a2.158,2.158,0,0,1-.645,1.658,2.824,2.824,0,0,1-1.967.6h-1.2V7Zm0-5.575V2.993h.536a1.388,1.388,0,0,0,.887-.218.7.7,0,0,0,.257-.559.778.778,0,0,0-.222-.561,1.163,1.163,0,0,0-.835-.23Z" transform="translate(112 23)" fill="#002b52"/>
    <path id="Fill_25" data-name="Fill 25" d="M3.57,7a4.329,4.329,0,0,1-1.891-.365A2.856,2.856,0,0,1,.465,5.48,3.856,3.856,0,0,1,0,3.5,3.513,3.513,0,0,1,.921.923,3.486,3.486,0,0,1,3.488,0a3.54,3.54,0,0,1,2.6.907A3.438,3.438,0,0,1,7,3.448a4.2,4.2,0,0,1-.4,1.947A2.871,2.871,0,0,1,5.449,6.577,3.809,3.809,0,0,1,3.57,7ZM3.484,1.574a1.282,1.282,0,0,0-1.021.449,2.3,2.3,0,0,0-.384,1.488,2.287,2.287,0,0,0,.382,1.48A1.3,1.3,0,0,0,3.5,5.441,1.3,1.3,0,0,0,4.549,5a2.527,2.527,0,0,0,.372-1.581,2.112,2.112,0,0,0-.387-1.4A1.33,1.33,0,0,0,3.484,1.574Z" transform="translate(118 23)" fill="#002b52"/>
    <path id="Fill_26" data-name="Fill 26" d="M1.89,7H0V0H3.141A4.024,4.024,0,0,1,4.476.172a1.466,1.466,0,0,1,.745.636A2.15,2.15,0,0,1,5.5,1.94a2.189,2.189,0,0,1-.217,1,1.845,1.845,0,0,1-.6.683,2.1,2.1,0,0,1-.663.276,1.762,1.762,0,0,1,.489.261,2.108,2.108,0,0,1,.3.371,2.85,2.85,0,0,1,.263.438L6,7H3.876L2.865,4.854a1.663,1.663,0,0,0-.343-.541.729.729,0,0,0-.464-.164H1.89V7Zm0-5.591V2.834h.8a2.483,2.483,0,0,0,.5-.1A.5.5,0,0,0,3.5,2.52a.71.71,0,0,0,.118-.407.7.7,0,0,0-.188-.522,1.029,1.029,0,0,0-.7-.181Z" transform="translate(126 23)" fill="#002b52"/>
    <path id="Fill_27" data-name="Fill 27" d="M2.031,7H0L2.408,0H4.6L7,7H4.917L4.6,5.845H2.354L2.031,7ZM3.478,1.812l-.7,2.512h1.4Z" transform="translate(133 23)" fill="#002b52"/>
    <path id="Fill_28" data-name="Fill 28" d="M0,0H6V1.727H3.986V7H2.015V1.727H0Z" transform="translate(140 23)" fill="#002b52"/>
    <path id="Fill_29" data-name="Fill 29" d="M0,7H2V0H0Z" transform="translate(148 23)" fill="#002b52"/>
    <path id="Fill_30" data-name="Fill 30" d="M3.571,7A4.329,4.329,0,0,1,1.68,6.635,2.86,2.86,0,0,1,.465,5.48,3.863,3.863,0,0,1,0,3.5,3.51,3.51,0,0,1,.922.923,3.482,3.482,0,0,1,3.488,0a3.541,3.541,0,0,1,2.6.907A3.441,3.441,0,0,1,7,3.448a4.2,4.2,0,0,1-.4,1.947A2.871,2.871,0,0,1,5.449,6.577,3.807,3.807,0,0,1,3.571,7ZM3.484,1.574a1.284,1.284,0,0,0-1.021.449,2.3,2.3,0,0,0-.384,1.488,2.287,2.287,0,0,0,.382,1.48A1.3,1.3,0,0,0,3.5,5.441,1.3,1.3,0,0,0,4.549,5a2.527,2.527,0,0,0,.372-1.581,2.109,2.109,0,0,0-.387-1.4A1.33,1.33,0,0,0,3.484,1.574Z" transform="translate(152 23)" fill="#002b52"/>
    <path id="Fill_31" data-name="Fill 31" d="M0,0H1.8L4.171,3.882V0H6V7H4.171L1.816,3.139V7H0Z" transform="translate(160 23)" fill="#002b52"/>
  </g>
</svg>
