<svg xmlns="http://www.w3.org/2000/svg" viewBox="0 0 81.48 51.38"><defs><style>.cls-1{fill:#e5e5e5;fill-rule:evenodd;}</style></defs><g id="Layer_2" data-name="Layer 2"><g id="Layer_1-2" data-name="Layer 1"><path class="cls-1" d="M71.58,48l-2.77,2.77-2.58-1.58V39.9l-2-1.38-.39.39V48l1.38.79h0l-2.17,2-3-2h0c.39-.2.59-.59.59-1.58V39.7L59.5,38.52l-1,.79-.2-.4,2.78-2.57,2.57,2.18,2.18-2.38a32.15,32.15,0,0,0,4.35,2.77h0a1.62,1.62,0,0,0-.79,1.59V48l1,.59.79-.79.4.2Z"/><path class="cls-1" d="M59.3,48l-2.77,2.77L53.76,49l-2,1.78c-1.39-.79-3.17-2-4.35-2.57V48c.59-.2.79-.4.79-1.58V39.11l-1-.59-.79.79-.4-.2,2.77-3,2.57,1.78v9.31l2.18,1.38.2-.2v-9.3l-1.19-.79h0l2-2.18,3.17,2.18h0c-.59.2-.79.39-.79,1.19v8.31l1.19.79,1-1,.19.4Z"/><polygon class="cls-1" points="32.58 32.18 30.8 34.56 28.62 32.97 30.4 30.6 32.58 32.18 32.58 32.18"/><path class="cls-1" d="M34.75,48l-3,2.77-3.17-2h0a1.34,1.34,0,0,0,.79-1.19V39.11l-1-.59-.79.79-.4-.4L30,36.14l3.17,2v.2a.91.91,0,0,0-.59,1V48l.79.59,1-1,.39.4Z"/><path class="cls-1" d="M26.84,37.13a2.44,2.44,0,0,1-2.38,2.57,2.06,2.06,0,0,1-1.78-1h-.2v9.11l1.19.79,1-1,.39.4-3,2.77-3.36-2.18h0c.59-.2.59-.59.59-1.38V39.7l-1.19-1.18-.79.79-.39-.2,2.77-3,2.37,2.18h.2l1.78-2.18a2.78,2.78,0,0,0,2,1Z"/><path class="cls-1" d="M81.48,40.5a53.54,53.54,0,0,0-5.55,3.56v3l2.38,1.58L79.7,47l.39.4-3.36,3.36L72,48v-.2c.6,0,.8-.39.8-1.38V39.7c2-1.18,4.15-2.77,5.54-3.56l3.17,4.36Zm-3.17,1.38c-.4-.59-1.78-2.57-2.38-3.56h0v5.15l2.38-1.59Z"/><path class="cls-1" d="M45.64,38.91c-.59.2-.79.6-.79,1.39v7.32L39.7,50.79c-1-.59-3-1.78-4.35-2.57V48c.59-.2.79-.59.79-1.78V32.38a3.9,3.9,0,0,0-.4-1.78l.2-.2A1.59,1.59,0,0,1,36.73,32h.2a3.58,3.58,0,0,1,3.17-2.17V30a3.16,3.16,0,0,0-.79,2.18v6.14h0l2-2.18,4.35,2.77Zm-4,9.7V39.9l-2-1.38-.39.39v8.32l2.37,1.38Z"/><path class="cls-1" d="M18.72,29.81c0,2.37-1.19,4.35-3.76,4.35h-.4V48.41A11,11,0,0,0,18.12,47l.2.2a11,11,0,0,1-8.51,4.15C4.86,51.38.9,48.22.9,42.87c0-4.75,3.76-8.12,6.34-9.11l.19.2a8.91,8.91,0,0,0-3,7.13c0,3,1.19,5.15,3.17,6.34l.79-.4c.6-.4.6-.59.6-2.38V37.92c0-1.19,0-1.58-.79-1.78v-.2L12,34h0c-2.38-.39-5.55-1.78-7.33-1.78s-3,.79-3,2.18a1.84,1.84,0,0,0,.79,1.38l-.19.2A3,3,0,0,1,.51,33c0-2.57,2-4.35,4.75-4.35,4,0,7.52,2.57,10.89,2.57a2.39,2.39,0,0,0,2.37-1.58l.2.2Zm-4.55,18.6V34.16H12.58v8.51c0,1.79,0,2.38-2,3.57L8,47.82a9.8,9.8,0,0,0,4.16.79,7.4,7.4,0,0,0,2-.2Z"/><polygon class="cls-1" points="34.84 2.77 33.06 5.15 30.88 3.56 32.67 1.19 34.84 2.77 34.84 2.77"/><path class="cls-1" d="M46.33,7.72c-.2,1.19-.8,2.57-2.38,2.57a2.56,2.56,0,0,1-2.18-1.38h-.2v8.71L44,19.2l1.58-1.58.4.4-3.56,3.36-4.75-2.77v-.2c.59-.2.79-.39.79-1.19V9.9c2-1.19,3.76-2.18,5.14-3a2.37,2.37,0,0,0,1.39.79c.59,0,1,0,1.19-.2l.2.2Z"/><path class="cls-1" d="M37,18.61l-3,2.77-3.17-2h0a1.09,1.09,0,0,0,.8-1.19V9.7l-1-.59-.8.79-.39-.4,2.77-2.77,3.17,2v.2a.91.91,0,0,0-.6,1v8.71l.8.59,1-1,.39.4Z"/><path class="cls-1" d="M29.89,18.61l-2.77,2.77L24.75,19.8V10.49L22.57,9.11l-.4.59v8.91l1.39.79h0l-2,2-3.17-2h0c.4-.2.6-.39.6-1.38V3a7,7,0,0,0-.4-2H19a2,2,0,0,1,.59,1.58h.2A3.81,3.81,0,0,1,23,.4h0a4.09,4.09,0,0,0-.8,2.17V8.91h0l2.18-2c1,.59,3,2,4.16,2.57h0a1.34,1.34,0,0,0-.79,1.19v7.92l1,.59.79-1,.39.4Z"/><path class="cls-1" d="M80,9.5c-.59.4-.79.4-.79,1.39v7.32c-2,1.19-3.17,2-5.15,3.17-1.58-1-2.57-1.58-4.35-2.57v-.2c.59-.2.79-.59.79-1.39V10.1c1.78-1,3.56-2.18,5.15-3.17,1,.59,3.16,2,4.35,2.57Zm-4,9.7V10.49L73.65,8.91h0v8.91A15.86,15.86,0,0,0,76,19.4v-.2Z"/><path class="cls-1" d="M69.29,20.39c0,1-1,1.39-2.18,2.38a25.32,25.32,0,0,1-2.57,2,4,4,0,0,0-2.57-.6,14.58,14.58,0,0,0-3.57.6h0a5.74,5.74,0,0,1,5-3,5,5,0,0,1,3.17,1c.2-.2.59-.4.59-.79,0-1-1.58-.6-2.17-2.58h0l-2,2s-2.78-1.78-4.36-2.57v-.2a.91.91,0,0,0,.59-1V10.1a42.88,42.88,0,0,0,5.15-3.17L68.7,9.5h0c-.4.4-.6.4-.6,1.39v6.53c0,1.39,1.19,1.59,1.19,3Zm-4.35-1.58V10.49s-1.39-.79-2.58-1.58v8.91l2.18,1.38.4-.39Z"/><path class="cls-1" d="M57.81,18.61,55,21.38,52.27,19.6h0c-1,.59-1.59,1.19-2.58,1.78a4.23,4.23,0,0,1-3.17-3.76c0-2,2-3.37,3.57-4.16h0a4.89,4.89,0,0,1-3-3.76l5-2.77L56.22,9.5h0a1.34,1.34,0,0,0-.79,1.39v7.52l1.19.79.79-.79.4.2Zm-5.54-5.54V10.49L49.69,8.91l-.39.2a5.22,5.22,0,0,0,1.58,4.15c.4,0,1-.19,1.39-.19Zm0,5.94V13.46a3,3,0,0,0-3,3,3.33,3.33,0,0,0,2.57,3l.4-.39Z"/><path class="cls-1" d="M18,17.62C16.63,19.2,13.46,22,9.7,22,4.16,22,0,18.21,0,11.68,0,5.74,5,2.38,8.12,1.19l.2.2A9.19,9.19,0,0,0,3.76,9.9c0,3.76,1.19,6.33,3,7.92l.79-.6c.8-.39.8-1,.8-2V5.74c0-1-.2-1.38-.8-1.78v-.2A43.07,43.07,0,0,0,13.46,0a2.86,2.86,0,0,0,2.18,1A3.82,3.82,0,0,0,17.42.4h0c0,2-1,3.36-3,3.36h-.79V19c1.58,0,3.17-1.19,4.16-1.59l.2.2ZM13.26,19.2V3.56a3,3,0,0,1-1.38-.79v10.1c0,1.78-.2,2.37-2.57,4L7.33,18c1.38,1,3.36,1.18,5.34,1.18Z"/></g></g></svg>