<svg xmlns="http://www.w3.org/2000/svg" viewBox="0 0 234.31 218.66"><defs><style>.cls-1{fill:#e5e5e5;}</style></defs><g id="Layer_2" data-name="Layer 2"><g id="Layer_1-2" data-name="Layer 1"><path class="cls-1" d="M121.57,218.17c4.15-17.43,8.3-34.86,12.69-53.32-2.23,1.62-3.73,2.69-5.21,3.78-12.22,9-26,14-41,16-16.78,2.25-33.27,1-49.19-4.91C27.07,175.32,16.21,169.36,8.27,159,3.12,152.31,0,145.11.08,136.5.19,108,.39,79.5,0,51-.18,37.43,5.73,27.16,15.54,18.94,30.68,6.26,48.69.88,68.19.14,78.86-.27,89.48.06,99.88,3.08,113.41,7,125.68,13,135.23,23.65A10.61,10.61,0,0,0,144,27.33c27.83-.11,55.66-.07,83.49,0,2.1,0,4.2.26,6.84.44-.3,2-.41,3.41-.75,4.81q-4.81,19.91-9.7,39.81c-1.23,5-1.33,5.05-6.36,5.06-12.66,0-25.33,0-38,0-5.35,0-5.4,0-7.28,4.94-2.55,6.61-5,13.26-7.52,19.89l.82,1L216,82.53l.84.91L122.67,218.66Zm7.49-147.93c-7.48,31.94-14.78,63.09-22.32,95.32l39.54-16.77c-2.09,10.86-3.95,20.48-5.8,30.1l.92.33,52.46-78.68-.76-.82-43.63,19c.71-2.33.94-3.41,1.36-4.4,5.62-13,11.46-25.89,16.78-39,1.6-4,3.66-5.24,7.76-5.16,12.16.22,24.32,0,36.49.13,3.35,0,5.19-1,5.91-4.47C219,60,220.67,54.19,222,48.35c1-4.12,1.73-8.29,2.71-13H199.55q-51.74,0-103.48,0c-5.07,0-5.5.32-6.47,4.3q-3.06,12.63-6.08,25.26c-.36,1.53-.53,3.09-.91,5.36Zm-3-43c.24-.54.47-1.07.7-1.61-3.92-2.65-7.63-5.72-11.81-7.88A86.89,86.89,0,0,0,65.69,8.21C53.75,9.35,42.38,12,31.79,17.69,22.82,22.48,15,28.54,10.6,38.08c-2.16,4.72-3.41,9.64-2.53,15,1.57,9.59,6.6,17,14,22.89,15.86,12.59,34.5,17.17,54.22,17,14.14-.15,27.55-4.44,39.89-11.6a28.62,28.62,0,0,0,2.94-2.25l-.27-1.53c-14.95-.35-29.93.12-45-.27a13.26,13.26,0,0,1-.22-3.1c3.52-14.57,7.11-29.13,10.62-43.7.58-2.41,2.09-3.2,4.35-3.19,4.16,0,8.33,0,12.49,0ZM116.1,91.76C75.93,106.68,39.79,103.86,7.94,74.6a29.44,29.44,0,0,0,3.53,17.25c5.35,9.53,13.59,15.82,23.29,20.32a89.05,89.05,0,0,0,29.82,7.66c15,1.32,29.59,0,43.59-5.78a5.52,5.52,0,0,0,3-2.89C113,105,114.39,98.67,116.1,91.76Zm-108.55,11c0,8.36,1.81,15.09,6,21.19,5.51,7.94,13.22,13.17,21.78,17,20.69,9.35,42.19,9.83,64,4.91,1.46-.33,3.53-1.4,3.89-2.56,1.93-6.27,3.41-12.68,5.32-20.11-5,1.27-8.81,2.41-12.66,3.15a116.12,116.12,0,0,1-34.27,1.19c-15.72-1.62-30.34-6-43.14-15.53C15,109.41,11.72,106.31,7.55,102.77Zm.14,27.16c-.51,7.58.54,14.16,4.25,20.09a46.51,46.51,0,0,0,16,15.51c18.35,10.83,38.13,14,59.09,10.95,11.08-1.6,8.47-.91,11.06-10.13,1.05-3.74,1.75-7.58,2.65-11.59a19.15,19.15,0,0,0-2.76,0,126.12,126.12,0,0,1-42.72.58c-14.19-2.15-27.34-7.27-38.4-16.8C13.87,136,11.13,133.19,7.69,129.93Z"/></g></g></svg>