<svg id="svg" xmlns="http://www.w3.org/2000/svg" xmlns:xlink="http://www.w3.org/1999/xlink" width="400" height="229.11795961742828" viewBox="0, 0, 400,229.11795961742828"><g id="svgg"><path id="path0" d="M136.451 12.115 L 136.451 23.804 137.620 23.804 C 138.766 23.803,138.791 23.748,138.920 20.934 C 139.359 11.342,143.404 3.401,147.850 3.401 L 149.628 3.401 149.628 33.601 L 149.628 63.801 148.585 64.844 C 147.821 65.608,147.081 65.887,145.822 65.887 C 144.194 65.887,144.102 65.956,144.102 67.163 L 144.102 68.438 154.516 68.438 L 164.931 68.438 164.931 67.163 C 164.931 65.939,164.855 65.887,163.065 65.887 C 161.862 65.887,160.843 65.599,160.196 65.075 L 159.192 64.262 159.078 33.832 L 158.963 3.401 160.480 3.401 C 165.462 3.401,170.032 12.168,170.032 21.726 C 170.032 23.752,170.064 23.804,171.307 23.804 L 172.582 23.804 172.582 12.115 L 172.582 0.425 154.516 0.425 L 136.451 0.425 136.451 12.115 M173.433 1.700 C 173.433 2.897,173.533 2.976,175.076 2.976 C 176.094 2.976,177.144 3.310,177.839 3.857 L 178.959 4.738 178.959 34.269 L 178.959 63.801 177.915 64.844 C 177.151 65.608,176.411 65.887,175.152 65.887 C 173.525 65.887,173.433 65.956,173.433 67.163 L 173.433 68.438 183.634 68.438 L 193.836 68.438 193.836 67.163 C 193.836 66.034,193.692 65.887,192.581 65.887 C 188.481 65.887,188.310 65.205,188.310 48.811 L 188.310 35.262 195.855 35.378 L 203.401 35.494 203.401 49.665 L 203.401 63.836 202.208 64.862 C 201.447 65.516,200.486 65.887,199.551 65.887 C 198.208 65.887,198.087 65.992,198.087 67.163 L 198.087 68.438 208.289 68.438 L 218.491 68.438 218.491 67.163 C 218.491 65.966,218.390 65.887,216.848 65.887 C 215.829 65.887,214.779 65.552,214.085 65.006 L 212.965 64.125 212.965 34.475 L 212.965 4.824 213.949 3.900 C 214.635 3.255,215.470 2.976,216.712 2.976 C 218.405 2.976,218.491 2.914,218.491 1.700 L 218.491 0.425 208.289 0.425 L 198.087 0.425 198.087 1.700 C 198.087 2.888,198.196 2.976,199.681 2.989 C 203.352 3.020,203.590 4.020,203.603 19.447 L 203.613 31.456 195.962 31.456 L 188.310 31.456 188.310 18.979 C 188.310 3.659,188.482 2.976,192.321 2.976 C 193.721 2.976,193.836 2.879,193.836 1.700 L 193.836 0.425 183.634 0.425 L 173.433 0.425 173.433 1.700 M220.616 1.700 C 220.616 2.907,220.709 2.976,222.336 2.976 C 223.599 2.976,224.335 3.255,225.108 4.027 L 226.159 5.079 226.045 34.671 L 225.930 64.262 224.926 65.075 C 224.323 65.564,223.264 65.887,222.270 65.887 C 220.716 65.887,220.616 65.964,220.616 67.163 L 220.616 68.438 238.045 68.438 L 255.473 68.438 255.473 56.748 L 255.473 45.058 254.441 45.058 C 253.495 45.058,253.389 45.263,253.171 47.503 C 251.895 60.626,248.066 65.462,238.952 65.462 L 235.494 65.462 235.494 50.159 L 235.494 34.857 237.162 34.857 C 240.616 34.857,242.649 38.061,243.096 44.208 C 243.354 47.760,243.378 47.824,244.527 47.956 L 245.696 48.090 245.696 33.184 L 245.696 18.278 244.679 18.278 C 243.439 18.278,243.146 18.961,243.146 21.849 C 243.146 27.263,240.566 31.456,237.237 31.456 L 235.494 31.456 235.494 17.428 L 235.494 3.401 239.639 3.410 C 248.686 3.430,252.076 7.819,253.175 20.935 C 253.400 23.621,253.481 23.804,254.444 23.804 L 255.473 23.804 255.473 12.115 L 255.473 0.425 238.045 0.425 L 220.616 0.425 220.616 1.700 M68.222 80.446 C 68.094 80.972,65.323 95.247,62.064 112.168 C 55.386 146.843,55.716 145.802,51.407 145.802 C 50.302 145.802,50.159 145.949,50.159 147.088 L 50.159 148.373 57.492 148.257 L 64.825 148.140 64.825 147.085 C 64.825 146.191,64.576 145.989,63.202 145.766 C 60.223 145.281,59.760 143.929,60.777 138.687 C 61.016 137.457,61.416 135.399,61.667 134.113 L 62.122 131.775 67.802 131.775 C 72.844 131.775,73.506 131.858,73.700 132.519 C 74.648 135.739,75.651 143.333,75.231 144.117 C 74.710 145.090,73.176 145.802,71.598 145.802 C 70.732 145.802,70.563 146.010,70.563 147.078 L 70.563 148.353 96.493 148.353 L 122.423 148.353 122.423 136.663 L 122.423 124.973 121.360 124.973 C 120.407 124.973,120.298 125.146,120.298 126.643 C 120.298 138.731,115.668 145.377,107.249 145.377 L 103.719 145.377 103.719 115.058 L 103.719 84.739 104.703 83.815 C 105.346 83.211,106.230 82.891,107.254 82.891 C 108.711 82.891,108.820 82.802,108.820 81.615 L 108.820 80.340 98.831 80.340 L 88.842 80.340 88.842 81.615 C 88.842 82.814,88.941 82.891,90.495 82.891 C 91.489 82.891,92.548 83.214,93.152 83.703 L 94.155 84.516 94.155 114.346 L 94.155 144.177 93.152 144.990 C 90.766 146.922,86.439 145.637,85.473 142.710 C 85.135 141.686,72.689 80.249,72.689 79.604 C 72.689 78.833,68.418 79.638,68.222 80.446 M185.859 80.624 C 179.850 82.750,176.284 90.064,177.292 98.193 C 178.169 105.261,181.224 109.662,190.223 116.820 C 199.244 123.995,202.694 130.929,201.090 138.658 C 200.157 143.150,197.848 145.287,193.500 145.681 C 185.966 146.364,179.809 137.990,179.809 127.061 C 179.809 125.118,179.735 124.973,178.746 124.973 L 177.683 124.973 177.683 136.663 C 177.683 148.085,177.703 148.353,178.537 148.353 C 179.136 148.353,179.593 147.846,180.071 146.652 C 180.882 144.626,180.606 144.668,183.097 146.191 C 189.652 150.199,199.317 149.527,204.203 144.722 C 207.493 141.487,208.502 138.400,208.502 131.562 C 208.502 120.637,205.608 115.558,194.163 106.388 C 184.081 98.312,181.098 89.979,186.488 84.950 C 193.546 78.365,201.941 85.872,202.720 99.465 C 202.972 103.868,202.989 103.924,204.038 103.928 L 205.101 103.932 205.214 92.136 C 205.325 80.595,205.309 80.340,204.479 80.340 C 203.917 80.340,203.338 80.914,202.764 82.038 L 201.898 83.735 200.136 82.459 C 196.746 80.003,190.046 79.142,185.859 80.624 M0.425 81.615 C 0.425 82.736,0.573 82.891,1.643 82.891 C 5.193 82.891,4.620 80.939,11.964 118.066 L 18.039 148.778 19.992 148.778 L 21.944 148.778 25.450 131.456 C 27.379 121.929,29.169 113.177,29.428 112.009 C 29.891 109.923,29.972 110.245,33.777 129.224 L 37.654 148.565 39.656 148.695 C 40.757 148.766,41.658 148.712,41.658 148.574 C 41.658 147.031,54.640 86.537,55.206 85.441 C 56.094 83.723,57.443 82.906,59.405 82.897 C 60.655 82.891,60.786 82.769,60.786 81.615 L 60.786 80.340 53.135 80.340 L 45.484 80.340 45.484 81.615 C 45.484 82.773,45.612 82.891,46.877 82.891 C 48.711 82.891,49.987 83.833,50.305 85.424 C 50.530 86.551,43.367 127.231,42.853 127.745 C 42.553 128.046,34.854 87.858,34.855 85.996 C 34.857 83.964,35.918 82.891,37.927 82.891 C 38.955 82.891,39.107 82.726,39.107 81.615 L 39.107 80.340 29.968 80.340 L 20.829 80.340 20.829 81.615 C 20.829 82.698,20.992 82.891,21.911 82.891 C 24.216 82.891,24.821 84.216,26.545 93.036 L 28.147 101.231 25.665 114.767 C 23.543 126.340,22.529 130.340,22.529 127.139 C 22.529 126.721,20.893 117.694,18.894 107.079 C 14.461 83.540,14.429 82.891,17.722 82.891 C 18.529 82.891,18.704 82.664,18.704 81.615 L 18.704 80.340 9.564 80.340 L 0.425 80.340 0.425 81.615 M124.123 81.615 C 124.123 82.823,124.215 82.891,125.852 82.891 C 130.242 82.891,130.074 81.645,130.074 114.346 C 130.074 147.314,130.300 145.802,125.371 145.802 C 123.796 145.802,123.698 145.877,123.698 147.078 L 123.698 148.353 140.914 148.353 L 158.130 148.353 158.130 136.663 L 158.130 124.973 157.101 124.973 C 156.140 124.973,156.055 125.162,155.812 127.843 C 154.641 140.752,151.209 145.347,142.721 145.368 L 139.001 145.377 139.001 115.898 C 139.001 81.671,138.853 82.891,143.011 82.891 C 144.412 82.891,144.527 82.794,144.527 81.615 L 144.527 80.340 134.325 80.340 L 124.123 80.340 124.123 81.615 M209.139 92.030 L 209.139 103.719 210.139 103.719 C 211.091 103.719,211.153 103.541,211.424 100.000 C 212.173 90.201,216.141 83.026,220.603 83.402 L 222.104 83.528 222.104 113.639 L 222.104 143.751 220.911 144.776 C 220.087 145.486,219.202 145.802,218.042 145.802 C 216.463 145.802,216.366 145.876,216.366 147.078 L 216.366 148.353 226.780 148.353 L 237.194 148.353 237.194 147.078 C 237.194 145.881,237.094 145.802,235.551 145.802 C 234.533 145.802,233.483 145.467,232.788 144.921 L 231.668 144.040 231.668 113.678 L 231.668 83.316 233.447 83.316 C 237.841 83.316,241.523 90.436,242.515 100.850 C 242.770 103.527,242.857 103.719,243.817 103.719 L 244.846 103.719 244.846 92.030 L 244.846 80.340 226.993 80.340 L 209.139 80.340 209.139 92.030 M246.971 81.615 C 246.971 82.839,247.047 82.891,248.837 82.891 C 250.041 82.891,251.059 83.179,251.706 83.703 L 252.710 84.515 252.830 113.352 C 252.973 147.524,253.182 145.802,248.884 145.802 C 247.042 145.802,246.971 145.850,246.971 147.078 L 246.971 148.353 257.386 148.353 L 267.800 148.353 267.800 147.078 C 267.800 145.850,267.729 145.802,265.887 145.802 C 262.176 145.802,262.274 146.242,262.274 129.600 L 262.274 115.098 265.093 115.277 C 270.242 115.605,271.004 117.307,271.626 129.862 C 272.412 145.732,273.732 148.565,280.340 148.565 C 285.527 148.565,287.590 146.085,288.071 139.273 L 288.330 135.600 286.779 135.600 L 285.228 135.600 285.228 138.548 C 285.228 142.336,284.735 143.677,283.341 143.677 C 281.709 143.677,281.518 142.826,281.002 133.260 C 280.257 119.427,278.865 116.536,271.928 114.407 L 269.385 113.626 271.462 113.104 C 279.717 111.027,283.741 105.654,283.741 96.706 C 283.741 83.768,278.350 80.340,258.002 80.340 L 246.971 80.340 246.971 81.615 M288.629 81.615 C 288.629 82.822,288.721 82.891,290.349 82.891 C 291.608 82.891,292.348 83.170,293.112 83.934 L 294.155 84.977 294.155 114.346 L 294.155 143.716 293.112 144.759 C 292.348 145.523,291.608 145.802,290.349 145.802 C 288.721 145.802,288.629 145.871,288.629 147.078 L 288.629 148.353 306.057 148.353 L 323.486 148.353 323.486 136.663 L 323.486 124.973 322.457 124.973 C 321.496 124.973,321.410 125.165,321.160 127.843 C 319.976 140.513,316.039 145.377,306.964 145.377 L 303.507 145.377 303.507 130.074 L 303.507 114.772 305.192 114.772 C 308.581 114.772,311.148 118.803,311.164 124.151 C 311.173 127.057,311.533 127.949,312.696 127.949 L 313.709 127.949 313.709 113.071 L 313.709 98.193 312.696 98.193 C 311.527 98.193,311.173 99.084,311.164 102.048 C 311.149 107.196,308.500 111.371,305.250 111.371 L 303.507 111.371 303.507 97.343 L 303.507 83.316 307.651 83.325 C 316.637 83.345,320.133 87.768,321.164 100.425 C 321.419 103.551,321.485 103.719,322.459 103.719 L 323.486 103.719 323.486 92.030 L 323.486 80.340 306.057 80.340 L 288.629 80.340 288.629 81.615 M325.689 81.509 C 325.809 82.551,326.031 82.702,327.736 82.902 C 331.718 83.367,331.557 82.046,331.557 114.346 C 331.557 146.557,331.660 145.802,327.291 145.802 C 326.180 145.802,326.036 145.949,326.036 147.078 L 326.036 148.353 343.471 148.353 L 360.906 148.353 360.793 136.769 L 360.680 125.186 359.511 125.051 C 358.359 124.919,358.342 124.951,358.342 127.301 C 358.342 138.626,353.235 145.377,344.667 145.377 L 340.935 145.377 340.818 130.074 L 340.701 114.771 342.564 114.771 C 346.055 114.772,348.008 118.050,348.462 124.671 C 348.687 127.951,348.704 127.992,349.797 127.865 L 350.903 127.736 350.903 113.071 L 350.903 98.406 349.797 98.277 C 348.704 98.151,348.687 98.192,348.462 101.472 C 348.008 108.092,346.055 111.371,342.564 111.371 L 340.701 111.371 340.819 97.343 L 340.936 83.316 344.645 83.318 C 353.763 83.324,357.432 87.729,358.203 99.597 L 358.473 103.763 359.577 103.635 L 360.680 103.507 360.793 91.923 L 360.906 80.340 343.230 80.340 L 325.555 80.340 325.689 81.509 M363.868 92.030 L 363.868 103.719 364.931 103.719 C 365.902 103.719,365.994 103.560,365.994 101.862 C 365.994 92.087,370.512 83.316,375.548 83.316 L 377.068 83.316 376.950 113.533 L 376.833 143.751 375.640 144.777 C 374.816 145.486,373.931 145.802,372.771 145.802 C 371.192 145.802,371.095 145.876,371.095 147.078 L 371.095 148.353 381.509 148.353 L 391.923 148.353 391.923 147.078 C 391.923 145.881,391.823 145.802,390.280 145.802 C 389.262 145.802,388.212 145.467,387.517 144.921 L 386.397 144.040 386.397 113.678 L 386.397 83.316 388.083 83.316 C 392.401 83.316,395.983 89.768,397.095 99.548 C 397.546 103.514,397.619 103.719,398.572 103.719 L 399.575 103.719 399.575 92.030 L 399.575 80.340 381.722 80.340 L 363.868 80.340 363.868 92.030 M269.883 84.725 C 273.080 86.840,273.964 89.583,273.964 97.386 L 273.964 104.018 272.476 106.921 C 270.623 110.538,268.631 111.796,264.758 111.796 L 262.274 111.796 262.274 97.499 L 262.274 83.201 265.249 83.414 C 267.496 83.575,268.631 83.896,269.883 84.725 M70.333 113.144 C 71.629 120.782,72.689 127.429,72.689 127.915 C 72.689 128.761,72.470 128.799,67.580 128.799 C 62.502 128.799,62.472 128.793,62.684 127.843 C 62.895 126.894,67.557 99.434,67.621 98.758 C 67.704 97.889,68.123 100.112,70.333 113.144 M276.727 159.661 C 276.727 160.088,265.801 216.801,265.008 220.494 C 264.232 224.102,262.785 225.717,260.329 225.717 C 258.995 225.717,258.874 225.824,258.874 226.993 L 258.874 228.268 266.100 228.268 L 273.326 228.268 273.326 226.993 C 273.326 225.835,273.198 225.717,271.933 225.717 C 268.465 225.717,268.154 224.534,269.577 216.754 L 270.503 211.690 276.304 211.690 L 282.106 211.690 283.073 217.227 C 284.340 224.482,283.909 225.717,280.108 225.717 C 278.996 225.717,278.852 225.864,278.852 226.993 L 278.852 228.268 304.995 228.268 L 331.137 228.268 331.137 216.578 L 331.137 204.888 329.926 204.888 L 328.715 204.888 328.455 209.033 C 327.736 220.493,323.861 225.284,315.303 225.290 L 312.009 225.292 312.009 195.092 L 312.009 164.892 313.052 163.849 C 313.816 163.085,314.556 162.806,315.815 162.806 C 317.442 162.806,317.535 162.737,317.535 161.530 L 317.535 160.255 307.333 160.255 L 297.131 160.255 297.131 161.530 C 297.131 162.727,297.232 162.806,298.774 162.806 C 299.792 162.806,300.842 163.140,301.537 163.687 L 302.657 164.568 302.657 194.099 L 302.657 223.631 301.613 224.674 C 299.405 226.883,294.899 225.670,293.884 222.593 C 293.718 222.090,290.786 207.715,287.367 190.648 L 281.152 159.617 278.940 159.489 C 277.723 159.418,276.727 159.495,276.727 159.661 M119.547 160.539 C 101.193 167.034,102.288 223.281,120.866 228.309 C 132.969 231.584,141.977 217.119,141.977 194.408 C 141.977 170.357,132.450 155.972,119.547 160.539 M86.291 161.530 C 86.291 162.729,86.391 162.806,87.944 162.806 C 88.939 162.806,89.997 163.129,90.601 163.618 L 91.605 164.431 91.605 192.644 C 91.605 219.334,91.562 220.953,90.806 222.627 C 88.875 226.909,82.116 226.593,79.605 222.104 C 78.197 219.588,78.324 218.351,80.054 217.725 C 85.446 215.775,85.042 207.006,79.554 206.862 C 72.278 206.671,71.448 220.039,78.367 225.962 C 84.302 231.041,95.915 228.800,99.452 221.892 C 101.049 218.772,101.169 216.579,101.169 190.395 L 101.169 164.892 102.212 163.849 C 102.976 163.085,103.716 162.806,104.975 162.806 C 106.603 162.806,106.695 162.737,106.695 161.530 L 106.695 160.255 96.493 160.255 L 86.291 160.255 86.291 161.530 M141.977 161.530 C 141.977 162.737,142.069 162.806,143.696 162.806 C 144.955 162.806,145.695 163.085,146.459 163.849 L 147.503 164.892 147.503 190.372 C 147.503 219.962,147.447 219.477,151.321 223.715 C 157.101 230.040,169.191 230.466,173.737 224.506 C 176.612 220.736,176.578 221.105,176.714 192.349 C 176.844 164.739,176.835 164.929,178.119 163.645 C 179.479 162.285,184.994 162.426,186.425 163.857 L 187.477 164.909 187.362 194.448 C 187.233 227.848,187.532 225.262,183.746 225.697 C 181.932 225.906,181.722 226.040,181.722 226.993 L 181.722 228.055 192.030 228.169 L 202.338 228.283 202.338 227.000 C 202.338 225.765,202.268 225.717,200.442 225.717 C 196.741 225.717,196.812 226.035,196.812 209.435 L 196.812 195.013 199.568 195.188 C 204.829 195.523,205.570 197.132,206.188 209.564 C 206.981 225.519,208.747 229.100,215.578 228.606 C 220.194 228.272,222.290 225.511,222.644 219.298 L 222.860 215.515 221.313 215.515 L 219.766 215.515 219.766 218.731 C 219.766 222.461,219.315 223.592,217.828 223.592 C 216.276 223.592,216.106 222.752,215.541 212.327 C 214.831 199.216,212.732 195.373,205.545 194.024 L 203.904 193.716 206.203 192.998 C 217.351 189.512,222.083 178.326,216.690 168.207 C 212.877 161.053,209.861 160.270,186.079 160.261 L 168.332 160.255 168.332 161.530 C 168.332 162.731,168.429 162.806,170.001 162.806 C 173.605 162.806,173.433 161.378,173.433 191.266 C 173.433 222.508,173.402 222.720,168.578 224.911 C 164.145 226.924,160.291 225.273,158.044 220.399 L 157.067 218.278 157.067 191.355 L 157.067 164.431 158.070 163.618 C 158.622 163.171,159.722 162.806,160.515 162.806 C 161.832 162.806,161.955 162.696,161.955 161.530 L 161.955 160.255 151.966 160.255 L 141.977 160.255 141.977 161.530 M222.742 161.519 C 222.742 162.755,222.814 162.806,224.608 162.806 C 225.811 162.806,226.830 163.094,227.477 163.618 L 228.480 164.430 228.605 192.630 C 228.754 226.563,228.860 225.717,224.461 225.717 C 222.834 225.717,222.742 225.786,222.742 226.993 L 222.742 228.268 229.968 228.268 L 237.194 228.268 237.194 226.993 C 237.194 225.853,237.056 225.717,235.891 225.717 C 234.039 225.717,232.963 225.016,232.270 223.359 C 231.505 221.527,231.409 174.264,232.174 175.846 C 232.420 176.356,237.259 188.407,242.927 202.626 L 253.232 228.480 254.884 228.480 L 256.536 228.480 256.755 196.599 C 256.876 179.065,257.019 164.678,257.074 164.629 C 257.128 164.579,257.592 164.149,258.104 163.672 C 258.702 163.114,259.611 162.806,260.654 162.806 C 262.171 162.806,262.274 162.724,262.274 161.530 L 262.274 160.255 255.048 160.255 L 247.821 160.255 247.821 161.530 C 247.821 162.730,247.920 162.806,249.484 162.806 C 250.819 162.806,251.364 163.063,252.247 164.113 L 253.348 165.421 253.323 184.623 L 253.299 203.826 247.147 188.310 C 243.763 179.777,239.889 170.021,238.539 166.631 L 236.083 160.468 229.413 160.351 L 222.742 160.233 222.742 161.519 M127.400 163.641 C 131.053 165.868,131.350 168.153,131.350 194.049 C 131.350 221.894,130.766 224.824,125.065 225.589 C 117.726 226.573,116.913 223.473,116.908 194.474 C 116.902 165.507,117.517 162.809,124.123 162.809 C 125.274 162.809,126.580 163.140,127.400 163.641 M204.501 164.693 C 207.804 166.879,209.401 172.813,208.693 180.278 C 207.929 188.346,205.175 191.679,199.256 191.702 L 196.812 191.711 196.812 177.414 L 196.812 163.116 199.787 163.329 C 202.075 163.493,203.163 163.808,204.501 164.693 M278.843 193.411 C 280.030 200.542,281.106 206.902,281.235 207.545 L 281.470 208.714 276.336 208.714 C 272.517 208.714,271.198 208.578,271.189 208.183 C 271.148 206.289,276.104 178.986,276.368 179.651 C 276.543 180.088,277.656 186.281,278.843 193.411 M337.513 219.889 C 336.929 220.183,336.087 221.098,335.643 221.922 C 333.566 225.775,337.501 230.356,340.864 228.000 C 344.936 225.148,341.859 217.700,337.513 219.889 " stroke="none" fill="#e5e5e5" fill-rule="evenodd"></path></g></svg>