<?xml version="1.0" encoding="UTF-8" standalone="no"?>
<svg width="297px" height="34px" viewBox="0 0 297 34" version="1.1" xmlns="http://www.w3.org/2000/svg" xmlns:xlink="http://www.w3.org/1999/xlink">
    <!-- Generator: Sketch 40.1 (33804) - http://www.bohemiancoding.com/sketch -->
    <title>Page 1</title>
    <desc>Created with Sketch.</desc>
    <defs>
        <path d="M0,32.8342282 L296.499258,32.8342282 L296.499258,0.125560521 L44.9297041,0.125560521 L0,0.125560521 L0,32.8342282 Z" id="path-1"></path>
    </defs>
    <g id="Site-Pages" stroke="none" stroke-width="1" fill="none" fill-rule="evenodd">
        <g id="Blog-single-" transform="translate(-130.000000, -20.000000)">
            <g id="Group" transform="translate(130.000000, 20.000000)">
                <g id="Page-1">
                    <polygon id="Fill-1" fill="#3E3B3F" points="8.5843395 0.304051034 -0.0001485 33.0127187 10.2353625 33.0127187 39.3309675 33.0127187 39.5252055 33.0127187 48.2979915 0.304051034"></polygon>
                    <g id="Group-25">
                        <path d="M267.307128,20.6302624 C266.828364,20.7096118 266.380785,20.7488305 265.963797,20.7488305 C264.789756,20.7488305 263.967066,20.4405535 263.496321,19.8236957 C263.024982,19.2074459 262.789461,18.3379469 262.789461,17.2151987 C262.789461,16.1562948 263.040723,15.3023009 263.542653,14.6538248 C264.043989,14.0056529 264.8052,13.6812628 265.824504,13.6812628 C266.303268,13.6812628 266.7357,13.7286901 267.1218,13.8235445 C267.5079,13.9183989 267.863409,14.0293665 268.187733,14.155535 L268.906176,11.3333115 C268.396227,11.1122885 267.871131,10.942037 267.330294,10.8234689 C266.789457,10.7052049 266.195457,10.6459209 265.546512,10.6459209 C264.558096,10.6459209 263.677491,10.8198207 262.905291,11.1673162 C262.132794,11.5157239 261.476424,11.9857398 260.936181,12.57858 C260.395344,13.1717243 259.98192,13.8673235 259.696503,14.6656817 C259.410492,15.4640398 259.267932,16.3140815 259.267932,17.2151987 C259.267932,18.148238 259.387326,19.0140887 259.627005,19.8118389 C259.86609,20.6105011 260.244765,21.302452 260.762436,21.8873877 C261.279513,22.4723234 261.940041,22.9344348 262.743129,23.2746339 C263.546217,23.6142249 264.503745,23.7844765 265.61601,23.7844765 C266.341878,23.7844765 267.00597,23.7209362 267.608583,23.5947676 C268.210899,23.467991 268.712829,23.3184128 269.11467,23.144209 L268.62759,20.2508447 C268.226046,20.4250485 267.785892,20.5515211 267.307128,20.6302624 L267.307128,20.6302624 Z" id="Fill-2" fill="#97979B"></path>
                        <path d="M275.72883,15.9583166 C275.775162,15.6579442 275.848521,15.3615241 275.949204,15.0687522 C276.04959,14.7765884 276.192447,14.519995 276.377775,14.2983639 C276.563103,14.0767329 276.794763,13.8988808 277.072458,13.7645037 C277.351044,13.6304306 277.682793,13.562938 278.068893,13.562938 C278.470734,13.562938 278.806641,13.6340788 279.076911,13.7763605 C279.346884,13.9183381 279.570822,14.1004465 279.748725,14.3220775 C279.926331,14.5437086 280.057605,14.7960457 280.142844,15.080609 C280.227489,15.3651723 280.277682,15.6579442 280.293423,15.9583166 L275.72883,15.9583166 Z M278.022561,10.6458601 C277.281546,10.6458601 276.558945,10.7881417 275.85654,11.072401 C275.153244,11.3569643 274.53192,11.7765128 273.99138,12.3295263 C273.450543,12.8831479 273.014547,13.5747948 272.682204,14.4050752 C272.349861,15.2347475 272.184432,16.2036612 272.184432,17.3102963 C272.184432,18.2269185 272.311845,19.0809125 272.566374,19.8710621 C272.8212,20.6621238 273.215319,21.3455622 273.748137,21.9228973 C274.280955,22.4999285 274.953066,22.9547434 275.763579,23.2864299 C276.574686,23.6184204 277.528353,23.7844157 278.625174,23.7844157 C279.057309,23.7844157 279.489741,23.7607021 279.922173,23.7132748 C280.354902,23.6658476 280.76001,23.6065636 281.138685,23.5354228 C281.51736,23.4642819 281.860692,23.3812843 282.169869,23.2864299 C282.478452,23.1915754 282.725556,23.096721 282.911478,23.0021706 L282.447861,20.1325198 C282.061464,20.3064196 281.563692,20.4523495 280.953357,20.5709176 C280.343319,20.6894856 279.721401,20.7487697 279.088494,20.7487697 C278.099781,20.7487697 277.312137,20.5353472 276.725265,20.1088062 C276.138096,19.6813532 275.806347,19.1046261 275.72883,18.3771047 L283.559829,18.3771047 C283.574976,18.1873958 283.590717,17.9703251 283.606161,17.7249805 C283.621308,17.4802439 283.629327,17.2549646 283.629327,17.0488386 C283.629327,14.9465359 283.127397,13.3534678 282.123537,12.2702423 C281.119083,11.1873208 279.752586,10.6458601 278.022561,10.6458601 L278.022561,10.6458601 Z" id="Fill-4" fill="#97979B"></path>
                        <mask id="mask-2" fill="white">
                            <use xlink:href="#path-1"></use>
                        </mask>
                        <g id="Clip-7"></g>
                        <polygon id="Fill-6" fill="#97979B" mask="url(#mask-2)" points="251.650773 23.4524555 255.102507 23.4524555 255.102507 10.977577 251.650773 10.977577"></polygon>
                        <path d="M205.182212,17.5965013 C204.896201,17.2733274 204.506537,16.9717389 204.012626,16.692952 C203.517824,16.4141651 202.892342,16.1311219 202.135586,15.8438224 C201.76493,15.7012367 201.459911,15.5692918 201.220826,15.4501157 C200.981147,15.3306356 200.791958,15.219364 200.652962,15.116301 C200.513966,15.0135421 200.421302,14.9068308 200.37497,14.7961673 C200.328638,14.6858078 200.305472,14.5590312 200.305472,14.4167496 C200.305472,13.7998917 200.845715,13.4916148 201.927092,13.4916148 C202.514261,13.4916148 203.042921,13.5472506 203.51426,13.65761 C203.985302,13.7685776 204.421595,13.8947461 204.823139,14.0370278 L205.425752,11.2859451 C205.023614,11.1281584 204.483371,10.9819245 203.803538,10.8472433 C203.124002,10.7131702 202.413578,10.6456776 201.672266,10.6456776 C200.189642,10.6456776 199.023026,10.9858767 198.173903,11.6656669 C197.324483,12.345457 196.899773,13.2705918 196.899773,14.4404632 C196.899773,15.041512 196.984418,15.5546988 197.154599,15.9821518 C197.324483,16.4086927 197.563568,16.7762537 197.872745,17.0845306 C198.181922,17.3931115 198.556439,17.6579135 198.996296,17.8792405 C199.43645,18.1008716 199.926797,18.31399 200.467634,18.519204 C201.162911,18.7888703 201.679988,19.0296546 202.019756,19.2427731 C202.359821,19.4561955 202.529705,19.7051884 202.529705,19.9897518 C202.529705,20.3539685 202.398431,20.5987051 202.135586,20.7251777 C201.872741,20.8519543 201.425162,20.9148865 200.791958,20.9148865 C200.189642,20.9148865 199.579604,20.847698 198.961547,20.7133209 C198.343787,20.5792478 197.741174,20.3931871 197.154599,20.156051 L196.575152,23.0257018 C196.853144,23.1524784 197.35151,23.3102651 198.069656,23.499974 C198.788099,23.6896828 199.687712,23.7845373 200.768792,23.7845373 C202.421597,23.7845373 203.699588,23.4689639 204.603062,22.837817 C205.506833,22.2069742 205.95857,21.2763671 205.95857,20.0453875 C205.95857,19.5252082 205.900655,19.0676572 205.784825,18.6733424 C205.668995,18.2790277 205.468223,17.9196753 205.182212,17.5965013" id="Fill-8" fill="#97979B" mask="url(#mask-2)"></path>
                        <path d="M296.325632,18.6734032 C296.209802,18.2790885 296.00903,17.9197361 295.723316,17.5965621 C295.437602,17.2733882 295.047344,16.9717998 294.553433,16.6927088 C294.058928,16.4142259 293.433149,16.1311827 292.676987,15.8438832 C292.305737,15.7012975 292.000718,15.5693526 291.761633,15.4498725 C291.521954,15.3303924 291.333062,15.2191208 291.194066,15.1163618 C291.054773,15.0136029 290.962109,14.9068916 290.915777,14.7962281 C290.869445,14.6858686 290.846279,14.559092 290.846279,14.4168104 C290.846279,13.7999525 291.387116,13.4916756 292.467899,13.4916756 C293.055068,13.4916756 293.583728,13.5473114 294.055364,13.6576708 C294.526109,13.7683344 294.962105,13.8948069 295.363946,14.0370886 L295.966559,11.2860059 C295.565015,11.1282192 295.024178,10.9816812 294.344939,10.8473041 C293.664809,10.713231 292.954682,10.6457384 292.213073,10.6457384 C290.730449,10.6457384 289.563833,10.9859375 288.715007,11.6657277 C287.86529,12.3455178 287.44058,13.2706526 287.44058,14.440524 C287.44058,15.0415728 287.525225,15.5547596 287.695406,15.9819086 C287.86529,16.4087535 288.104375,16.7763145 288.413552,17.0845914 C288.722729,17.3931723 289.097246,17.6579743 289.537103,17.8793013 C289.977851,18.1006284 290.467604,18.3140508 291.008441,18.5192648 C291.703718,18.788627 292.220795,19.0294114 292.560563,19.2428339 C292.900331,19.4562564 293.070512,19.7052492 293.070512,19.9898126 C293.070512,20.3540293 292.939238,20.5987659 292.676987,20.7252385 C292.414142,20.8517111 291.965969,20.9146433 291.333062,20.9146433 C290.730449,20.9146433 290.120411,20.8477588 289.502354,20.7133817 C288.884594,20.5793086 288.282575,20.3932479 287.695406,20.1561118 L287.116553,23.0257626 C287.394248,23.1525392 287.892317,23.3103259 288.61076,23.5000348 C289.328906,23.6894396 290.228519,23.7842941 291.309896,23.7842941 C292.962404,23.7842941 294.240692,23.4690247 295.143869,22.8378778 C296.04764,22.206731 296.499377,21.2764279 296.499377,20.0451443 C296.499377,19.524965 296.441462,19.067718 296.325632,18.6734032" id="Fill-9" fill="#97979B" mask="url(#mask-2)"></path>
                        <path d="M253.365087,5.28585471 C252.808806,5.28585471 252.325884,5.47191534 251.917212,5.84342855 C251.507352,6.21494176 251.303016,6.72478436 251.303016,7.37326037 C251.303016,8.02143236 251.507352,8.53127495 251.917212,8.90278817 C252.325884,9.27430138 252.808806,9.46005798 253.365087,9.46005798 C253.921071,9.46005798 254.403399,9.27430138 254.812962,8.90278817 C255.221931,8.53127495 255.426861,8.02143236 255.426861,7.37326037 C255.426861,6.72478436 255.221931,6.21494176 254.812962,5.84342855 C254.403399,5.47191534 253.921071,5.28585471 253.365087,5.28585471" id="Fill-10" fill="#97979B" mask="url(#mask-2)"></path>
                        <path d="M212.987461,15.9583166 C213.033793,15.6579442 213.106855,15.3615241 213.207538,15.0687522 C213.307627,14.7765884 213.450781,14.519995 213.636406,14.2983639 C213.821734,14.0767329 214.053394,13.8988808 214.331386,13.7645037 C214.609081,13.6304306 214.941424,13.562938 215.327524,13.562938 C215.729068,13.562938 216.064678,13.6340788 216.335245,13.7763605 C216.605515,13.9183381 216.829453,14.1004465 217.007356,14.3220775 C217.184665,14.5437086 217.315939,14.7960457 217.400881,15.080609 C217.485526,15.3651723 217.536016,15.6579442 217.55146,15.9583166 L212.987461,15.9583166 Z M215.281192,10.6458601 C214.539583,10.6458601 213.817576,10.7881417 213.114874,11.072401 C212.411875,11.3569643 211.790254,11.7765128 211.250011,12.3295263 C210.709174,12.8831479 210.272881,13.5747948 209.940835,14.4050752 C209.608492,15.2347475 209.442469,16.2036612 209.442469,17.3102963 C209.442469,18.2269185 209.570476,19.0809125 209.825005,19.8710621 C210.079831,20.6621238 210.473653,21.3455622 211.006768,21.9228973 C211.539586,22.4999285 212.211103,22.9547434 213.02221,23.2864299 C213.833317,23.6184204 214.78639,23.7844157 215.883508,23.7844157 C216.31594,23.7844157 216.748372,23.7607021 217.181101,23.7132748 C217.612939,23.6658476 218.018641,23.6065636 218.397316,23.5354228 C218.775397,23.4642819 219.119323,23.3812843 219.4285,23.2864299 C219.737083,23.1915754 219.984187,23.096721 220.169515,23.0021706 L219.706492,20.1325198 C219.320095,20.3064196 218.821729,20.4523495 218.211988,20.5709176 C217.601356,20.6894856 216.980032,20.7487697 216.346828,20.7487697 C215.358412,20.7487697 214.570471,20.5353472 213.983896,20.1088062 C213.39643,19.6813532 213.064681,19.1046261 212.987461,18.3771047 L220.81846,18.3771047 C220.833607,18.1873958 220.849348,17.9703251 220.864792,17.7249805 C220.879939,17.4802439 220.887958,17.2549646 220.887958,17.0488386 C220.887958,14.9465359 220.385731,13.3534678 219.382168,12.2702423 C218.377714,11.1873208 217.01092,10.6458601 215.281192,10.6458601 L215.281192,10.6458601 Z" id="Fill-11" fill="#97979B" mask="url(#mask-2)"></path>
                        <path d="M244.058829,12.981985 C243.849444,13.7012978 243.63204,14.4288192 243.407508,15.163637 C243.182679,15.899063 242.953692,16.6144235 242.721735,17.3100227 C242.489184,18.0059259 242.27178,18.6382888 242.070414,19.2074155 C241.853604,18.6382888 241.632339,18.0059259 241.406916,17.3100227 C241.182087,16.6144235 240.956961,15.899063 240.732132,15.163637 C240.507303,14.4288192 240.289899,13.7012978 240.080514,12.981985 C239.871129,12.2623682 239.688474,11.5947388 239.53344,10.977577 L235.873212,10.977577 C236.601456,13.4763225 237.372765,15.7841432 238.186545,17.9028629 C239.000325,20.0215827 239.803116,21.8718523 240.59373,23.4524555 L243.458295,23.4524555 C244.248612,21.8718523 245.050215,20.0215827 245.863698,17.9028629 C246.676587,15.7841432 247.447005,13.4763225 248.175843,10.977577 L244.605309,10.977577 C244.450275,11.5947388 244.268214,12.2623682 244.058829,12.981985" id="Fill-12" fill="#97979B" mask="url(#mask-2)"></path>
                        <path d="M231.605768,10.8473041 C231.342923,10.8080855 231.080078,10.7761633 230.817827,10.7524497 C230.554982,10.7287361 230.331341,10.7168793 230.145716,10.7168793 C229.110968,10.7168793 228.172448,10.81599 227.33075,11.0132994 C226.489052,11.2112168 225.759026,11.420383 225.141563,11.6420141 L225.141563,23.4526076 L228.593594,23.4526076 L228.593594,13.9185205 C228.748034,13.8710933 228.97613,13.8276184 229.277288,13.7880957 C229.578149,13.748877 229.836539,13.7288117 230.053052,13.7288117 C230.531816,13.7288117 230.979989,13.7725906 231.396977,13.8592365 C231.814262,13.9461864 232.176899,14.0291841 232.485779,14.1082294 L233.065226,11.1911515 C232.879601,11.1121061 232.655663,11.0452216 232.393115,10.9895858 C232.130567,10.934254 231.868019,10.8871308 231.605768,10.8473041" id="Fill-13" fill="#97979B" mask="url(#mask-2)"></path>
                        <path d="M79.87815,20.6302624 C79.707969,20.6621846 79.49205,20.6895464 79.229205,20.7132601 C78.96636,20.7369737 78.680943,20.7488305 78.37236,20.7488305 C77.429682,20.7488305 76.719258,20.4168399 76.240494,19.7525549 C75.76173,19.0888778 75.522645,18.2111703 75.522645,17.1203442 C75.522645,14.8435337 76.34088,13.7049765 77.978538,13.7049765 C78.333453,13.7049765 78.684804,13.7524037 79.032294,13.8472581 C79.380081,13.9421125 79.661637,14.0606806 79.87815,14.2029623 L79.87815,20.6302624 Z M79.87815,11.2621707 C79.49205,11.0885749 79.109514,10.9538938 78.731136,10.8590393 C78.352758,10.7644889 77.924187,10.7170617 77.445423,10.7170617 C76.580262,10.7170617 75.811923,10.8672479 75.139812,11.1673162 C74.468295,11.4682967 73.900728,11.9027422 73.437111,12.4718688 C72.973791,13.0412994 72.618579,13.7329464 72.371772,14.5471136 C72.124074,15.3615849 72.000819,16.2748629 72.000819,17.2863395 C72.000819,18.2823111 72.143379,19.17978 72.429687,19.9781382 C72.715104,20.7764963 73.127934,21.4562865 73.668771,22.0175086 C74.209608,22.5790347 74.8737,23.0101359 75.661344,23.3102043 C76.448988,23.6102727 77.34474,23.7607629 78.349194,23.7607629 C78.765885,23.7607629 79.201881,23.7406975 79.658073,23.7014788 C80.113374,23.6616521 80.561547,23.6102727 81.001998,23.5473404 C81.441855,23.4838001 81.862407,23.409011 82.264545,23.3220611 C82.665792,23.2354152 83.021004,23.144209 83.329884,23.0493546 L83.329884,5.04890103 L79.87815,5.61772363 L79.87815,11.2621707 Z" id="Fill-14" fill="#3E3B3F" mask="url(#mask-2)"></path>
                        <path d="M64.5638499,20.8910817 C64.3785219,20.9230039 64.1314179,20.9467175 63.8228349,20.9622226 C63.5136579,20.9780316 63.1887399,20.9859362 62.8495659,20.9859362 C62.2160649,20.9859362 61.7176989,20.8792249 61.3550619,20.6658024 C60.9921279,20.45238 60.8109579,20.0690099 60.8109579,19.5153884 C60.8109579,19.2311291 60.8724369,18.993993 60.9962859,18.8042841 C61.1195409,18.6145752 61.2891279,18.464085 61.5056409,18.3534215 C61.7215599,18.243062 61.9728219,18.1676649 62.2588329,18.1281422 C62.5442499,18.0889236 62.8495659,18.0688582 63.1735929,18.0688582 C63.4052529,18.0688582 63.6606729,18.0846673 63.9383679,18.1162854 C64.2163599,18.1482076 64.4248539,18.1795217 64.5638499,18.2111399 L64.5638499,20.8910817 Z M66.7533339,12.0212798 C66.3440679,11.5792338 65.7993699,11.2384267 65.1201309,11.0012906 C64.4400009,10.7644585 63.5911749,10.6458905 62.5715739,10.6458905 C62.1697329,10.6458905 61.7720499,10.6659558 61.3782279,10.7051745 C60.9847029,10.7446972 60.6098889,10.7921244 60.2546769,10.8474561 C59.8991679,10.9030919 59.5712799,10.9657202 59.2698249,11.036861 C58.9686669,11.1080018 58.7174049,11.1754944 58.5169299,11.2384267 L58.9570839,14.0843638 C59.3743689,13.9265771 59.8682799,13.8040568 60.4397079,13.7171069 C61.0114329,13.630461 61.5902859,13.586682 62.1777519,13.586682 C63.0580599,13.586682 63.6758199,13.7684864 64.0310319,14.131791 C64.3862439,14.4963118 64.5638499,14.9781845 64.5638499,15.5786252 L64.5638499,15.9109198 C64.3473369,15.8479875 64.0657809,15.796608 63.7185879,15.7567813 C63.3705039,15.7172586 62.9728209,15.6974973 62.5252419,15.6974973 C61.8605559,15.6974973 61.2196299,15.7646858 60.6018699,15.899063 C59.9841099,16.0334401 59.4358479,16.2511188 58.9570839,16.5511872 C58.4783199,16.8515596 58.0960809,17.254995 57.8100699,17.7605813 C57.5243559,18.2667756 57.3817959,18.8836335 57.3817959,19.6102428 C57.3817959,20.3693823 57.5050509,21.0096498 57.7521549,21.5316532 C57.9995559,22.0533526 58.3550649,22.4762453 58.8180879,22.8000273 C59.2817049,23.1247213 59.8335309,23.3576011 60.4744569,23.4998828 C61.1153829,23.6421644 61.8299649,23.7133052 62.6179059,23.7133052 C63.8691669,23.7133052 64.9348029,23.6379081 65.8151109,23.488026 C66.6954189,23.3381438 67.3823799,23.2077189 67.8771819,23.0967514 L67.8771819,15.7449245 C67.8771819,14.9702799 67.7922399,14.2664722 67.6220589,13.6341092 C67.4518779,13.0020504 67.1623029,12.4639338 66.7533339,12.0212798 L66.7533339,12.0212798 Z" id="Fill-15" fill="#3E3B3F" mask="url(#mask-2)"></path>
                        <path d="M138.430512,20.6421192 C138.03669,20.7132601 137.654748,20.7488305 137.283498,20.7488305 C136.511298,20.7488305 135.997785,20.5278075 135.742959,20.0848494 C135.488133,19.6421954 135.36072,19.0496592 135.36072,18.3060247 L135.36072,13.9183989 L139.508028,13.9183989 L139.508028,10.9776074 L135.36072,10.9776074 L135.36072,7.30199793 L131.908392,7.87112456 L131.908392,18.3534519 C131.908392,19.1600186 131.982048,19.8948365 132.129063,20.5591216 C132.275484,21.2231027 132.534171,21.7888851 132.904827,22.2546447 C133.275483,22.7213163 133.769691,23.084925 134.387451,23.3457747 C135.005211,23.6066244 135.785133,23.7370493 136.727811,23.7370493 C137.468826,23.7370493 138.094605,23.6735089 138.604257,23.5473404 C139.114206,23.4208678 139.577526,23.2709856 139.994217,23.0967818 L139.508028,20.3456991 C139.183704,20.4724757 138.824334,20.5709784 138.430512,20.6421192" id="Fill-16" fill="#3E3B3F" mask="url(#mask-2)"></path>
                        <path d="M165.321753,19.3021179 C165.10524,19.4288945 164.842395,19.539254 164.533812,19.6341084 C164.224635,19.7289629 163.892886,19.7763901 163.537377,19.7763901 C161.977236,19.7763901 161.197908,18.788627 161.197908,16.8118849 C161.197908,15.8633405 161.421252,15.0807914 161.869425,14.4642376 C162.317598,13.8473797 162.996837,13.5391028 163.908627,13.5391028 C164.21721,13.5391028 164.48748,13.5509596 164.71914,13.5746732 C164.9508,13.5983868 165.151572,13.6263567 165.321753,13.6576708 L165.321753,19.3021179 Z M166.479756,10.9065881 C166.047324,10.8436559 165.611328,10.7922764 165.171174,10.7524497 C164.730723,10.713231 164.302152,10.6931657 163.885461,10.6931657 C162.912192,10.6931657 162.039012,10.8397036 161.267109,11.1318674 C160.494612,11.4246393 159.8424,11.8399315 159.309285,12.3768319 C158.776467,12.9149484 158.371359,13.5591682 158.092773,14.3100991 C157.814781,15.0610301 157.676082,15.8952627 157.676082,16.8118849 C157.676082,18.6460414 158.123958,20.0731142 159.01971,21.0924954 C159.915462,22.1124846 161.205333,22.6223272 162.889026,22.6223272 C163.352049,22.6223272 163.78062,22.5788523 164.174739,22.4919024 C164.568561,22.4052565 164.9508,22.2748316 165.321753,22.1006278 L165.321753,22.5511864 C165.321753,23.2473936 165.116823,23.8159122 164.707557,24.2588703 C164.298291,24.7012203 163.59945,24.9228513 162.611034,24.9228513 C161.853684,24.9228513 161.178306,24.859615 160.583415,24.7331425 C159.988821,24.6063659 159.420957,24.4327701 158.880714,24.211139 L158.278695,27.1759482 C158.911602,27.3972753 159.59886,27.5751273 160.340469,27.7095044 C161.082078,27.8435775 161.823093,27.9110701 162.564702,27.9110701 C164.680233,27.9110701 166.244235,27.4167326 167.256114,26.4286655 C168.267696,25.4402944 168.773487,23.9265757 168.773487,21.8872053 L168.773487,11.404878 C168.464607,11.3097195 168.113553,11.2188173 167.719434,11.1318674 C167.325612,11.0452216 166.912188,10.9698244 166.479756,10.9065881 L166.479756,10.9065881 Z" id="Fill-17" fill="#3E3B3F" mask="url(#mask-2)"></path>
                        <path d="M150.280931,20.8910817 C150.095603,20.9230039 149.848499,20.9467175 149.539322,20.9622226 C149.230145,20.9780316 148.905821,20.9859362 148.566647,20.9859362 C147.932849,20.9859362 147.43478,20.8792249 147.071846,20.6658024 C146.708912,20.45238 146.527445,20.0690099 146.527445,19.5153884 C146.527445,19.2311291 146.588924,18.993993 146.712773,18.8042841 C146.836028,18.6145752 147.006209,18.464085 147.222722,18.3534215 C147.438641,18.243062 147.689606,18.1676649 147.975617,18.1281422 C148.261034,18.0889236 148.566647,18.0688582 148.890674,18.0688582 C149.122334,18.0688582 149.37716,18.0846673 149.655152,18.1162854 C149.933441,18.1482076 150.141935,18.1795217 150.280931,18.2111399 L150.280931,20.8910817 Z M152.470118,12.0212798 C152.060852,11.5792338 151.516451,11.2384267 150.836915,11.0012906 C150.157082,10.7644585 149.307662,10.6458905 148.288061,10.6458905 C147.886517,10.6458905 147.489131,10.6659558 147.095012,10.7051745 C146.70119,10.7446972 146.326673,10.7921244 145.971758,10.8474561 C145.616249,10.9030919 145.288064,10.9657202 144.986906,11.036861 C144.685748,11.1080018 144.434486,11.1754944 144.233714,11.2384267 L144.674165,14.0843638 C145.091153,13.9265771 145.585064,13.8040568 146.156789,13.7171069 C146.72792,13.630461 147.307367,13.586682 147.894536,13.586682 C148.775141,13.586682 149.392307,13.7684864 149.747816,14.131791 C150.103325,14.4963118 150.280931,14.9781845 150.280931,15.5786252 L150.280931,15.9109198 C150.064418,15.8479875 149.782565,15.796608 149.435075,15.7567813 C149.087585,15.7172586 148.689902,15.6974973 148.241729,15.6974973 C147.577637,15.6974973 146.936711,15.7646858 146.318951,15.899063 C145.701191,16.0334401 145.152632,16.2511188 144.674165,16.5511872 C144.195401,16.8515596 143.812865,17.254995 143.527151,17.7605813 C143.241437,18.2667756 143.098877,18.8836335 143.098877,19.6102428 C143.098877,20.3693823 143.222132,21.0096498 143.469236,21.5316532 C143.716043,22.0533526 144.071552,22.4762453 144.535169,22.8000273 C144.998489,23.1247213 145.550315,23.3576011 146.191538,23.4998828 C146.832167,23.6421644 147.547046,23.7133052 148.334393,23.7133052 C149.585654,23.7133052 150.651587,23.6379081 151.532192,23.488026 C152.412203,23.3381438 153.099461,23.2077189 153.593966,23.0967514 L153.593966,15.7449245 C153.593966,14.9702799 153.508727,14.2664722 153.33914,13.6341092 C153.168959,13.0020504 152.879384,12.4639338 152.470118,12.0212798 L152.470118,12.0212798 Z" id="Fill-18" fill="#3E3B3F" mask="url(#mask-2)"></path>
                        <path d="M176.53478,15.9583166 C176.581112,15.6579442 176.654471,15.3615241 176.754857,15.0687522 C176.85554,14.7765884 176.998397,14.519995 177.183725,14.2983639 C177.369053,14.0767329 177.600713,13.8988808 177.878705,13.7645037 C178.1564,13.6304306 178.488743,13.562938 178.874843,13.562938 C179.276387,13.562938 179.612591,13.6340788 179.882861,13.7763605 C180.152834,13.9183381 180.376772,14.1004465 180.554675,14.3220775 C180.731984,14.5437086 180.863258,14.7960457 180.9482,15.080609 C181.033439,15.3651723 181.083632,15.6579442 181.099373,15.9583166 L176.53478,15.9583166 Z M178.828511,10.6458601 C178.086902,10.6458601 177.364895,10.7881417 176.662193,11.072401 C175.959194,11.3569643 175.337573,11.7765128 174.79733,12.3295263 C174.256493,12.8831479 173.8202,13.5747948 173.488154,14.4050752 C173.155811,15.2347475 172.990382,16.2036612 172.990382,17.3102963 C172.990382,18.2269185 173.117795,19.0809125 173.372324,19.8710621 C173.62715,20.6621238 174.020972,21.3455622 174.554087,21.9228973 C175.086905,22.4999285 175.759016,22.9547434 176.569529,23.2864299 C177.380636,23.6184204 178.334303,23.7844157 179.430827,23.7844157 C179.863259,23.7844157 180.295691,23.7607021 180.728123,23.7132748 C181.160852,23.6658476 181.56596,23.6065636 181.944635,23.5354228 C182.322716,23.4642819 182.666642,23.3812843 182.975819,23.2864299 C183.284402,23.1915754 183.531506,23.096721 183.716834,23.0021706 L183.253811,20.1325198 C182.867414,20.3064196 182.369642,20.4523495 181.759307,20.5709176 C181.149269,20.6894856 180.527351,20.7487697 179.894444,20.7487697 C178.905731,20.7487697 178.118087,20.5353472 177.531215,20.1088062 C176.944046,19.6813532 176.612,19.1046261 176.53478,18.3771047 L184.365779,18.3771047 C184.380926,18.1873958 184.396667,17.9703251 184.412111,17.7249805 C184.427258,17.4802439 184.435277,17.2549646 184.435277,17.0488386 C184.435277,14.9465359 183.933347,13.3534678 182.929487,12.2702423 C181.925033,11.1873208 180.558239,10.6458601 178.828511,10.6458601 L178.828511,10.6458601 Z" id="Fill-19" fill="#3E3B3F" mask="url(#mask-2)"></path>
                        <path d="M126.24873,12.2821599 C125.846889,11.7765736 125.302785,11.384995 124.615527,11.1080322 C123.928269,10.8316775 123.066672,10.6933481 122.031924,10.6933481 C121.012917,10.6933481 120.039945,10.7684412 119.113008,10.9183233 C118.186368,11.0688136 117.429315,11.2308566 116.84274,11.4050604 L116.84274,23.4524859 L120.294474,23.4524859 L120.294474,13.8235445 C120.51069,13.7922304 120.757794,13.7642605 121.036083,13.7405469 C121.314075,13.7168333 121.576326,13.7049765 121.823727,13.7049765 C122.626815,13.7049765 123.175077,13.9421125 123.468513,14.4166888 C123.761949,14.8909609 123.908964,15.6975277 123.908964,16.8354769 L123.908964,23.4524859 L127.360995,23.4524859 L127.360995,16.408936 C127.360995,15.554942 127.275756,14.7806015 127.106169,14.0843942 C126.935988,13.389099 126.650571,12.7883543 126.24873,12.2821599" id="Fill-20" fill="#3E3B3F" mask="url(#mask-2)"></path>
                        <path d="M108.812484,20.8910817 C108.627156,20.9230039 108.380052,20.9467175 108.071469,20.9622226 C107.761698,20.9780316 107.437671,20.9859362 107.0982,20.9859362 C106.464699,20.9859362 105.966333,20.8792249 105.603696,20.6658024 C105.240762,20.45238 105.058998,20.0690099 105.058998,19.5153884 C105.058998,19.2311291 105.121071,18.993993 105.24492,18.8042841 C105.368175,18.6145752 105.537762,18.464085 105.754275,18.3534215 C105.970491,18.243062 106.221159,18.1676649 106.50717,18.1281422 C106.792884,18.0889236 107.0982,18.0688582 107.422524,18.0688582 C107.653887,18.0688582 107.908713,18.0846673 108.187002,18.1162854 C108.464994,18.1482076 108.673488,18.1795217 108.812484,18.2111399 L108.812484,20.8910817 Z M111.001968,12.0212798 C110.592405,11.5792338 110.048004,11.2384267 109.368468,11.0012906 C108.688635,10.7644585 107.839215,10.6458905 106.820208,10.6458905 C106.41807,10.6458905 106.020684,10.6659558 105.626862,10.7051745 C105.233337,10.7446972 104.858226,10.7921244 104.503311,10.8474561 C104.147802,10.9030919 103.819914,10.9657202 103.518459,11.036861 C103.217301,11.1080018 102.966039,11.1754944 102.765564,11.2384267 L103.205718,14.0843638 C103.622706,13.9265771 104.116914,13.8040568 104.688639,13.7171069 C105.260067,13.630461 105.83892,13.586682 106.426089,13.586682 C107.306694,13.586682 107.924454,13.7684864 108.279666,14.131791 C108.634878,14.4963118 108.812484,14.9781845 108.812484,15.5786252 L108.812484,15.9109198 C108.595971,15.8479875 108.314415,15.796608 107.966628,15.7567813 C107.619138,15.7172586 107.221455,15.6974973 106.773876,15.6974973 C106.10919,15.6974973 105.468264,15.7646858 104.850504,15.899063 C104.232744,16.0334401 103.684482,16.2511188 103.205718,16.5511872 C102.726954,16.8515596 102.344715,17.254995 102.058704,17.7605813 C101.77299,18.2667756 101.63043,18.8836335 101.63043,19.6102428 C101.63043,20.3693823 101.753685,21.0096498 102.000789,21.5316532 C102.24819,22.0533526 102.603699,22.4762453 103.066722,22.8000273 C103.530042,23.1247213 104.082165,23.3576011 104.723388,23.4998828 C105.364017,23.6421644 106.078599,23.7133052 106.86654,23.7133052 C108.117504,23.7133052 109.18314,23.6379081 110.063745,23.488026 C110.944053,23.3381438 111.631014,23.2077189 112.125519,23.0967514 L112.125519,15.7449245 C112.125519,14.9702799 112.04028,14.2664722 111.870693,13.6341092 C111.700512,13.0020504 111.410937,12.4639338 111.001968,12.0212798 L111.001968,12.0212798 Z" id="Fill-21" fill="#3E3B3F" mask="url(#mask-2)"></path>
                        <path d="M95.013864,12.981985 C94.805073,13.7012978 94.587669,14.4288192 94.362543,15.163637 C94.137714,15.899063 93.909321,16.6144235 93.67677,17.3100227 C93.444219,18.0059259 93.227409,18.6382888 93.026043,19.2074155 C92.808639,18.6382888 92.587374,18.0059259 92.362248,17.3100227 C92.137122,16.6144235 91.91259,15.899063 91.687464,15.163637 C91.462338,14.4288192 91.245231,13.7012978 91.035846,12.981985 C90.826164,12.2623682 90.644103,11.5947388 90.489069,10.977577 L86.828247,10.977577 C87.556788,13.4763225 88.3278,15.7847512 89.142174,17.9028629 C89.955954,20.0215827 90.758448,21.8718523 91.549062,23.4524555 L94.413924,23.4524555 C95.203647,21.8718523 96.00525,20.0215827 96.818733,17.9028629 C97.631622,15.7847512 98.402634,13.4763225 99.130581,10.977577 L95.560938,10.977577 C95.405904,11.5947388 95.223249,12.2623682 95.013864,12.981985" id="Fill-22" fill="#3E3B3F" mask="url(#mask-2)"></path>
                        <path d="M19.9372536,22.9975191 C19.5440256,23.0923735 19.0527876,23.1571299 18.4635396,23.1927003 C17.8736976,23.2282707 17.1974286,23.2459039 16.4347326,23.2459039 C15.1626816,23.2459039 14.1567426,23.0151523 13.4169156,22.553953 C12.6767916,22.0921456 12.3076206,21.2700738 12.3076206,20.0865215 C12.3076206,19.4477742 12.4570116,18.9327632 12.7581696,18.5420967 C13.0584366,18.1514302 13.4344386,17.8440653 13.8855816,17.6187861 C14.3364276,17.3944188 14.8330116,17.2463608 15.3768186,17.17522 C15.9197346,17.1040791 16.4347326,17.0685087 16.9200306,17.0685087 C17.6595606,17.0685087 18.2897946,17.1104636 18.8104356,17.1931572 C19.3301856,17.2764588 19.7061876,17.3767856 19.9372536,17.4947456 L19.9372536,22.9975191 Z M21.9084426,25.5041692 L22.2185106,24.3215289 L23.0934726,20.7316533 L23.0934726,13.7671487 C23.0934726,12.725878 22.9770486,11.7733814 22.7462796,10.9093547 C22.5152136,10.0459361 22.1276286,9.29986951 21.5847126,8.67267495 C21.0409056,8.04608843 20.3242446,7.56056748 19.4344326,7.21732819 C18.5440266,6.87439291 17.4513636,6.70262126 16.1570376,6.70262126 C15.0239826,6.70262126 13.9720086,6.79109126 13.0011156,6.96863931 C12.7739106,7.01029014 12.5648226,7.05163694 12.3682086,7.09419983 L11.5475976,10.1526474 C11.9271636,10.0167502 12.4041456,9.90547861 13.0878396,9.77322964 C13.8855816,9.61969922 14.8160826,9.54247798 15.8796396,9.54247798 C16.7115366,9.54247798 17.3881026,9.6665184 17.9084466,9.91551129 C18.4287906,10.1638961 18.8389476,10.4952786 19.1395116,10.9093547 C19.4397786,11.3237349 19.6476786,11.796791 19.7641026,12.3297391 C19.8793386,12.8617752 19.9372536,13.4004998 19.9372536,13.9443927 L19.9372536,14.8677034 C19.8445896,14.8445978 19.6824276,14.8090274 19.4516586,14.7609921 C19.2202956,14.7141729 18.9488376,14.6606653 18.6366906,14.6013813 C18.3245436,14.5427053 17.9948736,14.4949741 17.6482746,14.4594037 C17.3013786,14.4238332 16.9660656,14.4065041 16.6426326,14.4065041 C15.6248136,14.4065041 14.6539206,14.5126073 13.7293596,14.7254217 C12.8042046,14.9385402 11.9951766,15.2702267 11.3016816,15.7195692 C10.6078896,16.1695197 10.0581426,16.7611439 9.6542226,17.4947456 C9.2494116,18.2283474 9.0471546,19.1048389 9.0471546,20.1220919 C9.0471546,21.1870762 9.2203056,22.0985301 9.5674986,22.8558455 C9.9143946,23.6134649 10.3996926,24.2221142 11.0239866,24.6839215 C11.6482806,25.1454248 12.3881076,25.4828877 13.2437646,25.6957022 C14.0988276,25.9085166 15.0352686,26.0152279 16.0527906,26.0152279 C16.7691546,26.0152279 17.4920526,25.9851298 18.2205936,25.9264538 C18.9488376,25.8671698 19.6251066,25.8024134 20.2494006,25.7312726 C20.8350846,25.6646921 21.7911276,25.5218024 21.9084426,25.5041692 L21.9084426,25.5041692 Z" id="Fill-23" fill="#FEFEFE" mask="url(#mask-2)"></path>
                        <path d="M37.5434136,18.8554204 C37.2885876,18.2516354 36.9247626,17.7369285 36.4507506,17.3112996 C35.9770356,16.8847586 35.4047166,16.5123334 34.7343876,16.1928077 C34.0634646,15.873586 33.3004716,15.548588 32.4454086,15.2165974 C31.7976516,14.9803734 31.2428556,14.7550941 30.7804266,14.5422797 C30.3177006,14.3288572 29.9310066,14.0981055 29.6188596,13.8497207 C29.3067126,13.6013358 29.0753496,13.3231569 28.9253646,13.0154881 C28.7741916,12.7081232 28.6993476,12.3533311 28.6993476,11.9501998 C28.6993476,11.1691708 29.0343636,10.5957879 29.7052866,10.228835 C30.3759126,9.86218607 31.1620716,9.67855761 32.0637636,9.67855761 C33.1041546,9.67855761 33.9939666,9.77918844 34.7343876,9.98014608 C35.4742146,10.1814077 36.0174276,10.376893 36.3643236,10.5659938 L36.7634916,9.19486079 L37.1326626,7.7878533 C36.9286236,7.71215217 36.4899546,7.5668303 36.1733526,7.47714422 C35.8380396,7.38289782 35.4504546,7.29442782 35.0117856,7.21082215 C34.5722256,7.12843255 34.0982136,7.05729173 33.5900466,6.9980077 C33.0809886,6.9390277 32.5722276,6.90923368 32.0637636,6.90923368 C30.0290166,6.90923368 28.4219496,7.38867421 27.2431566,8.34694725 C26.0640666,9.3055243 25.4742246,10.6012602 25.4742246,12.2344591 C25.4742246,13.0632193 25.6129236,13.7612507 25.8903216,14.3288572 C26.1677196,14.8970718 26.5374846,15.3825927 27.0002106,15.784812 C27.4626396,16.1873353 28.0111986,16.536047 28.6473726,16.8318591 C29.2835466,17.1282792 29.9485296,17.4180108 30.6420246,17.7013581 C32.0753466,18.2935903 33.1041546,18.8262344 33.7284486,19.2995945 C34.3524456,19.7726506 34.6648896,20.412006 34.6648896,21.2161406 C34.6648896,21.9971696 34.3468026,22.5653841 33.7112226,22.9204802 C33.0750486,23.2752723 32.0982156,23.4531244 30.7804266,23.4531244 C29.4391746,23.4531244 28.3640346,23.3108427 27.5553036,23.0268875 C26.8624026,22.783671 26.3405736,22.5960902 25.9699176,22.4571528 L25.2238536,25.2392456 C25.5532266,25.3806152 26.1555426,25.584613 27.0349596,25.849415 C27.9366516,26.1212095 29.1849426,26.2574107 30.7804266,26.2574107 C33.0697026,26.2574107 34.8323976,25.819925 36.0696996,24.9440416 C37.3061106,24.0684621 37.9250586,22.7781986 37.9250586,21.074467 C37.9250586,20.1991916 37.7976456,19.4592054 37.5434136,18.8554204" id="Fill-24" fill="#FEFEFE" mask="url(#mask-2)"></path>
                    </g>
                </g>
            </g>
        </g>
    </g>
</svg>