<?xml version="1.0" encoding="iso-8859-1"?>
<!-- Generator: Adobe Illustrator 22.1.0, SVG Export Plug-In . SVG Version: 6.00 Build 0)  -->
<svg version="1.1" id="Layer_1" xmlns="http://www.w3.org/2000/svg" xmlns:xlink="http://www.w3.org/1999/xlink" x="0px" y="0px"
	 viewBox="0 0 299.703 113.473" style="enable-background:new 0 0 299.703 113.473;" xml:space="preserve">
<g>
	<path d="M268.07,61.073c-2.439,0-4.375-1.943-4.375-4.414c0-2.437,1.936-4.36,4.391-4.36c2.453,0,4.388,1.924,4.388,4.353
		C272.474,59.138,270.562,61.073,268.07,61.073z M268.086,52.717c-2.207,0-3.956,1.761-3.956,3.983c0,2.192,1.763,3.956,3.94,3.956
		c2.186,0,3.957-1.764,3.957-3.942C272.027,54.468,270.306,52.717,268.086,52.717z M268.453,54.075c1.047,0,1.594,0.381,1.594,1.344
		c0,0.713-0.334,1.157-1.001,1.357c0.444,0.124,0.667,0.354,0.816,0.922l0.257,0.998c0.076,0.257,0.176,0.454,0.297,0.619h-0.953
		c-0.099-0.086-0.158-0.208-0.205-0.398l-0.238-0.908c-0.193-0.792-0.369-0.94-1.389-0.94h-0.395v2.246h-0.889v-5.24H268.453z
		 M267.236,56.477h0.551c0.926,0,1.359-0.145,1.359-0.934c0-0.617-0.272-0.877-1.137-0.877h-0.773V56.477z"/>
</g>
<g>
	<path d="M89.271,60.185c0-4.178-2.179-5.84-5.373-5.84c-1.788,0-3.665,0.514-4.857,1.96c-0.939,1.151-0.982,2.388-0.982,2.94
		c0,3.071,2.26,4.048,5.759,5.411l2.045,0.811c5.581,2.218,7.838,4.437,7.838,8.735c0,1.537-0.383,8.697-10.444,8.697
		c-6.942,0-10.269-3.154-10.269-8.822v-0.557h4.092v0.682c0,5.755,4.734,6.096,6.394,6.096c4.771,0,6.138-3.025,6.138-5.582
		c0-3.494-2.942-4.689-5.793-5.796l-2.56-0.981c-2.944-1.151-7.206-2.897-7.206-8.098c0-0.808,0.045-2.813,1.449-4.689
		c2.046-2.768,5.412-3.363,8.611-3.363c4.431,0,6.521,1.321,7.714,3.151c0.471,0.685,1.279,2.217,1.279,4.435
		c0,0.254,0,0.512-0.045,0.811H89.271z"/>
	<path d="M100.803,61.076v2.601c1.617-2.044,4.091-3.07,6.65-3.07c6.861,0,8.053,6.523,8.053,10.786
		c0,5.283-1.621,11.421-8.906,11.421c-2.388,0-4.817-1.023-5.797-2.682v11.038h-3.58V61.076H100.803z M100.761,75.228
		c0,4.176,3.07,5.199,5.071,5.199c5.796,0,5.838-6.437,5.838-8.652c0-3.71-0.679-8.779-5.412-8.779
		c-1.618,0-3.409,0.726-4.349,1.915c-1.062,1.322-1.148,3.331-1.148,4.733V75.228z"/>
	<path d="M119.457,56.475v-3.708h3.618v3.708H119.457z M119.457,82.388V61.076h3.618v21.312H119.457z"/>
	<path d="M141.6,82.388v-2.601c-0.77,0.852-2.729,3.025-6.649,3.025c-6.905,0-8.057-6.392-8.057-10.741
		c0-7.795,3.411-11.465,8.867-11.465c3.454,0,4.901,1.582,5.839,2.733V52.299h3.535v30.089H141.6z M141.6,68.197
		c0-4.222-3.155-5.201-5.029-5.201c-5.796,0-5.841,6.391-5.841,8.65c0,3.84,0.726,8.781,5.37,8.781c1.664,0,3.408-0.724,4.345-1.92
		c1.068-1.365,1.155-3.238,1.155-4.646V68.197z"/>
	<path d="M152.833,71.859c0,2.643,0.088,8.568,5.584,8.568c1.363,0,4.647-0.557,4.899-4.559h3.623c0,3.622-2.938,6.944-8.694,6.944
		c-6.692,0-9.291-4.347-9.291-10.484c0-6.946,2.771-11.722,9.549-11.722c5.453,0,8.523,3.16,8.523,9.976v1.064h-14.193V71.859z
		 M163.404,69.428c-0.045-1.318-0.17-6.433-4.86-6.433c-3.065,0-5.325,2.172-5.584,6.433H163.404z"/>
	<path d="M171.631,82.388V61.076h3.705v2.774c0.474-0.685,2.175-3.157,5.204-3.157c1.321,0,2.005,0.47,2.516,0.812v3.325
		c-0.554-0.386-1.706-1.193-3.54-1.193c-3.705,0-4.179,2.897-4.179,4.048v14.703H171.631z"/>
	<path d="M186.041,82.388V52.299h4.131v27.192h13.643v2.897H186.041z"/>
	<path d="M220.523,82.388c-1.406,0-1.746-0.469-1.746-1.749v-0.598c-1.834,2.093-4.309,2.772-6.309,2.772
		c-4.092,0-6.688-2.09-6.688-6.183c0-2.894,1.698-4.431,2.681-4.984c1.452-0.803,3.453-1.491,10.316-2.131v-2.26
		c0-2.855-1.193-4.26-4.05-4.26c-1.321,0-4.734,0.17-4.734,4.561v0.299h-3.45v-0.643c0-5.07,4.309-6.607,8.438-6.607
		c3.414,0,5.416,1.026,6.395,2.43c0.807,1.151,0.98,2.986,0.98,4.607v11.632c0,1.62,0.211,2.473,0.984,2.601v0.512H220.523z
		 M218.777,71.518c-4.393,0.515-6.27,1.025-7.205,1.581c-1.447,0.85-1.916,2.17-1.916,3.45c0,2.386,1.407,3.836,3.877,3.836
		c1.322,0,2.431-0.344,3.281-0.895c1.836-1.198,1.963-3.195,1.963-4.774V71.518z"/>
	<path d="M227.497,82.388V52.299h3.663V64.02c1.15-1.446,3.326-3.414,6.99-3.414c6.097,0,7.584,5.456,7.584,10.832
		c0,5.495-1.699,11.375-8.48,11.375c-3.451,0-5.237-1.833-6.139-2.856v2.431H227.497z M231.115,73.991
		c0,2.261,0.217,4.302,2.39,5.629c0.425,0.251,1.405,0.808,2.814,0.808c4.305,0,5.627-3.623,5.627-9.076
		c0-2.477-0.087-8.355-5.029-8.355c-1.752,0-3.582,0.809-4.646,2.26c-1.109,1.488-1.154,3.025-1.154,4.732V73.991z"/>
	<path d="M260.916,67.174v-0.599c0-1.449-0.726-3.707-4.008-3.707c-2.859,0-4.094,1.618-4.094,3.193
		c0,2.048,2.172,2.903,4.136,3.453l2.218,0.64c3.578,1.022,5.623,2.816,5.623,6.224c0,3.197-2.002,6.435-8.055,6.435
		c-5.965,0-7.883-2.942-7.883-6.476v-0.557h3.666v0.557c0,1.83,0.81,4.09,4.558,4.09c3.157,0,4.136-1.618,4.136-3.324
		c0-2.643-2.09-3.28-4.05-3.878l-2.728-0.811c-1.318-0.382-4.985-1.446-4.985-5.452c0-3.071,1.786-6.356,7.587-6.356
		c3.706,0,7.33,1.537,7.33,6.311v0.257H260.916z"/>
</g>
<g id="T2LwsX_45_">
	<g>
		<g>
			<path style="fill-rule:evenodd;clip-rule:evenodd;fill:#ED1A3D;" d="M38.71,22.461c0.084,0,0.171,0,0.258,0
				c-1.771,8.831,1.022,17.033,4.249,22.529c3.372-5.372,5.944-13.208,4.507-22.143c2.885,5.142,2.435,14.351,0,19.698
				c3.677-2.256,6.948-6.326,8.885-10.945c0.627-1.502,1.231-3.161,1.413-4.637c0.656,8.192-3.142,14.443-7.727,18.413
				c7.076,4.732,12.248,11.368,13.91,21.508c-3.368-7.15-7.819-13.213-14.425-17.129c4.407,7.313,7.059,21.153,3.998,32.197
				c-0.226-11.848-3.226-22.413-8.374-30.137c-0.377-0.565-1.881-2.816-2.064-2.833c-0.451-0.03-1.594,2.13-2.057,2.833
				c-5.02,7.634-8.591,17.461-8.238,30.137c-3.537-10.548-0.825-24.849,3.86-32.197c-6.859,3.824-11.248,10.133-14.677,17.387
				c0-0.088,0-0.174,0-0.258c1.772-9.43,6.668-16.976,14.034-21.378c-4.312-3.993-8.468-10.139-7.727-18.413
				c1.231,5.716,4.443,10.905,8.624,14.292c0.527,0.423,1.014,1.107,1.678,1.03C36.157,37.264,36.269,27.789,38.71,22.461z"/>
		</g>
	</g>
</g>
<g>
	<g>
		<g>
			<g>
				<g>
					<path d="M79.898,24.652v20.899h-3.14V24.652h-6.639v-2.191h16.353v2.191H79.898z"/>
				</g>
				<g>
					<path d="M84.445,45.551V29.198h2.845v2.127c0.359-0.523,1.668-2.421,3.99-2.421c1.014,0,1.537,0.36,1.93,0.621v2.551
						c-0.425-0.294-1.309-0.915-2.715-0.915c-2.846,0-3.205,2.223-3.205,3.106v11.284H84.445z"/>
				</g>
				<g>
					<path d="M105.899,45.551v-1.897c-0.851,0.785-2.649,2.224-5.396,2.224c-1.014,0-2.061-0.131-3.14-0.949
						c-1.668-1.276-1.799-3.14-1.799-5.004V29.198h2.78v9.976c0,2.257,0.229,4.874,3.369,4.874c1.079,0,2.518-0.426,3.238-1.178
						c0.817-0.851,0.948-1.57,0.948-2.617V29.198h2.78v16.353H105.899z"/>
				</g>
				<g>
					<path d="M119.865,33.875v-0.458c0-1.112-0.556-2.845-3.075-2.845c-2.191,0-3.14,1.242-3.14,2.453
						c0,1.57,1.668,2.224,3.172,2.649l1.701,0.491c2.748,0.785,4.318,2.159,4.318,4.775c0,2.452-1.537,4.938-6.182,4.938
						c-4.579,0-6.05-2.257-6.05-4.972v-0.425h2.813v0.425c0,1.407,0.621,3.141,3.499,3.141c2.421,0,3.172-1.243,3.172-2.552
						c0-2.028-1.603-2.518-3.107-2.976l-2.093-0.623c-1.014-0.294-3.826-1.112-3.826-4.186c0-2.355,1.374-4.873,5.822-4.873
						c2.845,0,5.625,1.177,5.625,4.84v0.197H119.865z"/>
				</g>
				<path d="M151.643,29.198l-3.696,13.442l-3.729-13.442h-2.583l-4.186,13.442l-3.533-13.442h-5.928v-4.055l-2.846,0.491
					l-0.065,15.044c0,2.616,0.099,3.599,1.243,4.448c0.981,0.72,2.16,0.72,2.551,0.72c1.44,0,2.485-0.361,3.074-0.557v-1.898
					c-0.294,0.099-0.981,0.393-1.864,0.393c-1.897,0-2.126-1.308-2.126-3.042l0.033-9.877h3.436l4.258,14.684h2.977l3.957-12.559
					l3.63,12.559h3.009l4.84-16.353H151.643z"/>
				<g>
					<path d="M166,45.551c-1.078,0-1.34-0.359-1.34-1.34v-0.458c-1.406,1.602-3.303,2.125-4.842,2.125
						c-3.138,0-5.134-1.602-5.134-4.743c0-2.225,1.31-3.401,2.062-3.827c1.111-0.621,2.648-1.144,7.914-1.635v-1.734
						c0-2.191-0.916-3.271-3.108-3.271c-1.013,0-3.63,0.131-3.63,3.499v0.229h-2.648v-0.491c0-3.892,3.302-5.069,6.474-5.069
						c2.617,0,4.155,0.785,4.907,1.864c0.621,0.883,0.752,2.29,0.752,3.532v8.93c0,1.242,0.162,1.897,0.752,1.995v0.392H166z
						 M164.66,37.212c-3.37,0.392-4.807,0.784-5.527,1.21c-1.113,0.654-1.473,1.668-1.473,2.649c0,1.833,1.079,2.944,2.977,2.944
						c1.014,0,1.864-0.261,2.518-0.687c1.406-0.916,1.505-2.453,1.505-3.663V37.212z"/>
				</g>
				<g>
					<path d="M177.187,45.551h-2.977l-5.396-16.353h3.075l4.087,13.41l4.612-13.41h2.551L177.187,45.551z"/>
				</g>
				<g>
					<path d="M186.442,37.473c0,2.028,0.066,6.575,4.286,6.575c1.047,0,3.565-0.426,3.76-3.5h2.78c0,2.78-2.257,5.331-6.672,5.331
						c-5.135,0-7.13-3.336-7.13-8.046c0-5.331,2.127-8.994,7.327-8.994c4.187,0,6.54,2.42,6.54,7.653v0.817h-10.892V37.473z
						 M194.553,35.609c-0.032-1.013-0.131-4.938-3.729-4.938c-2.354,0-4.087,1.668-4.284,4.938H194.553z"/>
				</g>
			</g>
		</g>
	</g>
</g>
<g>
	<path d="M201.269,33.544c-1.372,0-2.462-1.097-2.462-2.482c0-1.371,1.089-2.456,2.469-2.456c1.383,0,2.472,1.085,2.472,2.45
		C203.748,32.455,202.671,33.544,201.269,33.544z M201.277,28.845c-1.236,0-2.222,0.99-2.222,2.239c0,1.236,0.989,2.227,2.215,2.227
		c1.227,0,2.226-0.99,2.226-2.221C203.496,29.832,202.527,28.845,201.277,28.845z M201.491,29.606c0.582,0,0.888,0.218,0.888,0.757
		c0,0.401-0.186,0.655-0.56,0.763c0.251,0.07,0.374,0.202,0.456,0.522l0.149,0.562c0.04,0.141,0.095,0.253,0.166,0.346h-0.531
		c-0.062-0.048-0.094-0.12-0.116-0.223l-0.138-0.514c-0.108-0.442-0.208-0.527-0.782-0.527H200.8v1.263h-0.497v-2.949H201.491z
		 M200.8,30.961h0.314c0.519,0,0.763-0.082,0.763-0.528c0-0.345-0.155-0.495-0.641-0.495H200.8V30.961z"/>
</g>
</svg>
