<svg width="200" height="30" viewBox="0 0 200 30" fill="#242628" xmlns="http://www.w3.org/2000/svg">
<path d="M3.03572 4.94085H0V0.476562H12.3214V4.94085H8.51191L13.2143 20.179L20.4167 3.33372H23.0357L30.2381 20.179L34.6429 4.94085H30.6548V0.476562H42.9762V4.94085H39.881L32.0833 29.7623H29.2857L21.5476 11.9051L13.75 29.7623H10.9524L3.03572 4.94085Z" fill="#242628"/>
<path d="M45.5957 25.0004H48.929V4.94085H45.5957V0.476562H57.2624C63.4528 0.476562 68.2148 4.04801 68.2148 9.94086C68.2148 16.6075 63.5124 19.8813 56.6671 19.8813C55.2981 19.8813 54.4647 19.8813 53.8695 19.8218V25.0004H57.5005V29.4647H45.5957V25.0004ZM63.0957 9.94086C63.0957 6.90515 60.5957 4.94085 57.0243 4.94085H53.8695V15.417C54.4052 15.4766 55.1195 15.4766 57.1433 15.4766C60.8933 15.4766 63.0957 13.3932 63.0957 9.94086Z" fill="#242628"/>
<path d="M70.2979 26.667L91.4883 4.70276H80.3574L79.286 9.52419H74.7621L76.905 0.476562H98.5717L98.9883 3.27419L77.7979 25.2385H89.5836L90.655 20.417H95.1788L93.0359 29.4647H70.7145L70.2979 26.667Z" fill="#242628"/>
<path d="M98.8691 17.0238C98.8691 8.69048 105.595 0 114.881 0C122.738 0 127.5 5.41666 127.5 12.9762C127.5 21.3095 120.774 30 111.488 30C103.631 30 98.8691 24.5833 98.8691 17.0238ZM122.381 12.9167C122.381 8.15477 119.583 4.52381 114.464 4.52381C108.452 4.52381 104.048 10.9524 104.048 17.0833C104.048 21.8452 106.845 25.4762 111.964 25.4762C117.917 25.4762 122.381 19.0476 122.381 12.9167Z" fill="#242628"/>
<path d="M130.952 17.0238C130.952 8.69048 137.678 0 146.964 0C154.821 0 159.583 5.41666 159.583 12.9762C159.583 21.3095 152.857 30 143.571 30C135.714 30 130.952 24.5833 130.952 17.0238ZM154.464 12.9167C154.464 8.15477 151.666 4.52381 146.547 4.52381C140.535 4.52381 136.131 10.9524 136.131 17.0833C136.131 21.8452 138.928 25.4762 144.047 25.4762C150.059 25.4762 154.464 19.0476 154.464 12.9167Z" fill="#242628"/>
<path d="M160.654 25.0004H163.75L169.404 4.94085H165.893L166.904 0.476562H174.107L179.404 16.7266L191.547 0.476562H199.404L198.393 4.94085H195.297L191.547 25.0004H195.178L194.166 29.4647H182.262L183.273 25.0004H186.607L189.523 10.0599L178.393 24.5837H177.678L172.678 10.0599L168.69 25.0004H172.5L171.488 29.4647H159.583L160.654 25.0004Z" fill="#242628"/>
</svg>
