<?xml version="1.0" encoding="UTF-8"?><svg id="e" xmlns="http://www.w3.org/2000/svg" viewBox="0 0 34.0969502 14.0811855"><path d="M6.2301562,1.8861332c-.3996194,.472883-1.0390104,.845861-1.6784013,.7925785-.0799237-.6393911,.2331113-1.318744,.5994291-1.7383445,.3996194-.4862036,1.0989534-.8325404,1.6650809-.8591817,.0666032,.6660324-.1931495,1.318744-.5861087,1.8049477m.5794485,.9191247c-.9257851-.0532825-1.7183637,.5261657-2.1579449,.5261657-.4462417,0-1.1189343-.4995243-1.8515699-.4862036-.9524262,.0133207-1.8382493,.5528068-2.324453,1.4119887-.9990485,1.7183632-.2597526,4.2626071,.7059943,5.6612756,.472883,.6926732,1.0390105,1.4519507,1.7849665,1.4253088,.7059942-.0266409,.9857278-.4595619,1.8382492-.4595619,.8591818,0,1.1056136,.4595619,1.8515702,.4462415,.7725974-.0133204,1.2588013-.6926732,1.7316841-1.3853475,.5394866-.7859184,.7592765-1.5518556,.7725979-1.5918174-.0133204-.0133204-1.4919126-.5794479-1.505233-2.2844907-.0133204-1.4253094,1.1655561-2.1046622,1.2188389-2.1446242-.6660324-.9857283-1.7050432-1.0922937-2.0647003-1.1189348M12.1578447,.873764V11.2572077h1.6117981v-3.5499527h2.2312084c2.0380584,0,3.470028-1.398668,3.470028-3.4234064s-1.4053287-3.4100857-3.4167462-3.4100857h-3.8962883v.0000011Zm1.6117981,1.358706h1.8582299c1.398668,0,2.1979078,.7459563,2.1979078,2.0580398s-.7992388,2.0647003-2.2045675,2.0647003h-1.8515702V2.23247Zm8.6451002,9.1046624c1.01237,0,1.951474-.5128447,2.3777363-1.325404h.0333016v1.2454803h1.4919121V6.0887972c0-1.4985728-1.1988582-2.4643197-3.0437687-2.4643197-1.711704,0-2.9771655,.9790674-3.0237865,2.324453h1.4519497c.119885-.639391,.7126554-1.0589916,1.5252137-1.0589916,.9857271,0,1.5385352,.4595624,1.5385352,1.3054233v.5727877l-2.0114185,.119886c-1.8715513,.1132253-2.8839193,.8791625-2.8839193,2.2112272,0,1.3453862,1.0456716,2.2378691,2.5442444,2.2378691Zm.432921-1.2321599c-.8591813,0-1.4053287-.4129399-1.4053287-1.0456706,0-.6527119,.5261652-1.0323502,1.5318744-1.0922932l1.7916266-.1132253v.5861087c0,.9724071-.8258797,1.6650804-1.9181724,1.6650804Zm5.4614654,3.976213c1.5718368,0,2.3111331-.5994291,2.9571833-2.4176977l2.8306375-7.9391053h-1.63844l-1.8981922,6.1341582h-.0333016l-1.8981922-6.1341579h-1.6850611l2.7307327,7.5594678-.1465279,.4595619c-.2464328,.7792577-.6460522,1.0789722-1.3587056,1.0789722-.1265457,0-.3729785-.0133204-.4728834-.0266409v1.2454803c.0932441,.0266409,.4928635,.0399613,.6127506,.0399613Z"/></svg>