<?xml version="1.0" encoding="utf-8"?>
<!-- Generator: Adobe Illustrator 24.0.1, SVG Export Plug-In . SVG Version: 6.00 Build 0)  -->
<svg version="1.1" xmlns="http://www.w3.org/2000/svg" xmlns:xlink="http://www.w3.org/1999/xlink" x="0px" y="0px"
	 viewBox="0 0 80 80" enable-background="new 0 0 80 80" xml:space="preserve">
<g id="Layer_19">
</g>
<g id="Layer_1">
</g>
<g id="Layer_2">
</g>
<g id="Layer_3">
</g>
<g id="Layer_4">
</g>
<g id="Layer_5">
</g>
<g id="Layer_6">
</g>
<g id="Layer_9">
</g>
<g id="Layer_10">
</g>
<g id="Layer_11">
</g>
<g id="Layer_12">
</g>
<g id="Layer_13">
</g>
<g id="Layer_14">
</g>
<g id="Layer_15">
</g>
<g id="Layer_17">
</g>
<g id="Layer_7">
</g>
<g id="Layer_8">
</g>
<g id="Layer_18">
	<rect y="0" fill="none" width="80" height="80"/>
	<g id="Ebene_2_10_">
		<g>
			<g>
				<path fill="#0068B4" d="M21.1482,45.5903c0.4522-1.0276,1.7264-1.6442,3.7406-1.6442c1.0276,0,1.973,0.2877,2.754,0.7399
					s1.6442,0.8632,2.6307,0.8632c1.0687,0,2.2197-0.4111,3.0007-0.9865c0.4933-0.3699,1.1098-0.6166,1.7675-0.6166
					c0.6988,0,1.3154,0.2466,1.8086,0.6577c0.7399,0.6166,1.6853,0.9865,2.7129,0.9865c0.5755,0,1.1098-0.1233,1.6031-0.2877
					c0.1233-0.0411,0.2877-0.0822,0.4522-0.0822c0.2055,0,0.411,0.0411,0.5755,0.1644c0.2466,0.1644,0.5344,0.2466,0.8632,0.2466
					c0.3288,0,0.6577-0.1233,0.9454-0.2877c0.2877-0.2055,0.6988-0.3288,1.1098-0.3288s0.7399,0.1233,1.0687,0.3288
					c0.2877,0.2055,0.6577,0.3288,1.0687,0.3288c0.4933,0,0.9454-0.2055,1.2332-0.4933c0.8221-0.6988,1.973-1.1509,3.2884-1.1509
					c1.3565,0,2.6718,0.4933,3.4939,1.1921c0.3288,0.2877,0.7399,0.4522,1.192,0.4522c0.4933,0,0.9454-0.2055,1.2743-0.5344
					c0.4111-0.4111,1.1098-0.6577,1.7675-0.6577c0.4933,0,0.9454,0.1233,1.3154,0.3699c0.6988,0.4933,1.562,0.781,2.5074,0.781
					s1.7675-0.2877,2.5074-0.781c0.3699-0.2466,0.8221-0.4111,1.3154-0.4111c0.3699,0,0.7399,0.0822,1.0276,0.2466l-1.2743,1.8086
					l1.192,1.7264c0.6166,0.6577,1.8086,0.5344,2.7129-0.2466c0.2055-0.1644,0.3288-0.3699,0.4933-0.5344l6.1658-9.372
					c0.3699-0.5755,0.3288-1.2743,0-1.8086l-1.0687-1.562l-4.1105,2.754l-1.8908-2.754l-2.1786,2.754l-1.8908-2.754l-7.7278,1.1921
					l-2.5485-3.7406l-2.5896,3.5762l-1.8908-2.754l-4.686,0.8632l-2.6307,3.1651l-1.6031-2.343l-8.5499,2.5074l-1.7264-2.5485
					l-2.754,3.3706l-2.3019-3.3706l-2.3841,2.0964l-1.4387-2.0964l-6.0836,1.3154l-4.1927,2.3019l-4.1927-6.0836l-6.4535,9.9475
					l1.8908,2.754c0.3288,0.4933,0.8221,0.781,1.3976,0.781c0.4933,0,0.9043-0.2055,1.2332-0.5755
					c0.6166-0.6988,1.4798-1.0687,2.4663-1.0687s1.8908,0.411,2.4663,1.1098c0.2877,0.3288,0.7399,0.5344,1.192,0.5344
					c0.4933,0,0.9043-0.2055,1.192-0.5344c0.3699-0.411,0.9865-0.6577,1.6442-0.6577c0.4933,0,0.9454,0.1233,1.3154,0.3699
					l-1.2332,1.6442l1.1509,1.6853c0.4522,0.6166,1.7675,0.5755,2.5896-0.2055c0.2877-0.2466,0.4933-0.5755,0.6166-0.8632
					L21.1482,45.5903z"/>
				<path fill="#0068B4" d="M69.1591,49.2898c-0.5755,0-1.1509-0.2055-1.562-0.6577c0-0.0411-0.0411-0.0411-0.0411-0.0822
					l-1.192-1.7264c-0.1644-0.2466-0.1644-0.5344,0-0.781l0.6988-0.9865c-0.3288,0-0.6166,0.1233-0.8632,0.2877
					c-0.8632,0.5755-1.8497,0.8632-2.8774,0.8632c-1.0276,0-2.0142-0.2877-2.8774-0.9043
					c-0.2466-0.1644-0.5755-0.2877-0.9454-0.2877c-0.4933,0-1.0276,0.2055-1.3154,0.4522
					c-0.4522,0.4522-1.0687,0.6988-1.7264,0.6988c-0.6166,0-1.192-0.2055-1.6442-0.6166c-0.6988-0.6166-1.8908-1.0276-3.0418-1.0276
					c-1.1098,0-2.1375,0.3699-2.8774,0.9865c-0.4522,0.4111-1.0687,0.6577-1.6853,0.6577c-0.5344,0-1.0276-0.1644-1.4387-0.4522
					c-0.3699-0.2466-0.9865-0.2466-1.3976,0.0411c-0.3699,0.2877-0.8221,0.4111-1.3154,0.4111
					c-0.4111,0-0.8632-0.1233-1.2332-0.3699c-0.0822-0.0411-0.2466-0.0822-0.4111,0c-0.5755,0.2466-1.1921,0.3699-1.8497,0.3699
					c-1.1509,0-2.2608-0.4111-3.1651-1.1098c-0.4111-0.3288-0.9043-0.4933-1.3976-0.4933c-0.4933,0-0.9454,0.1644-1.3565,0.4933
					c-0.9043,0.6988-2.2197,1.1509-3.4117,1.1509c-1.2332,0-2.2197-0.5344-3.0007-0.9454c-0.7399-0.4522-1.562-0.6577-2.4252-0.6577
					c-1.6442,0-2.7952,0.4522-3.124,1.2332l0,0l-0.6577,1.4798c-0.2055,0.4111-0.4522,0.781-0.781,1.0687
					c-0.5755,0.5755-1.4387,0.9043-2.2197,0.8221c-0.5755-0.0411-1.0687-0.2877-1.3565-0.6988l-1.1509-1.6853
					c-0.1644-0.2466-0.1644-0.5344,0-0.781l0.6988-0.9865c-0.0822,0-0.1644,0-0.2877,0c-0.4522,0-0.9043,0.1644-1.1509,0.4522
					c-0.4522,0.4522-1.0276,0.7399-1.6853,0.7399c-0.6577,0-1.2743-0.2877-1.6853-0.781c-0.4933-0.5755-1.2332-0.8632-1.973-0.8632
					c-0.781,0-1.4798,0.3288-1.973,0.8632c-0.4522,0.4933-1.0687,0.781-1.7264,0.781c-0.781,0-1.4387-0.3699-1.9319-1.0687
					l-1.8908-2.754c-0.1644-0.2055-0.1644-0.4933,0-0.7399l6.5768-9.9063c0.1233-0.2055,0.3288-0.2877,0.5344-0.2877
					c0.2466,0,0.4111,0.1233,0.5344,0.2877l3.8228,5.5903l3.6584-2.0142c0.0411-0.0411,0.1233-0.0411,0.1644-0.0822l6.0425-1.3154
					c0.2466-0.0411,0.5344,0.0411,0.6988,0.2877l1.0276,1.4798l1.8086-1.6031c0.1233-0.1233,0.3288-0.1644,0.5344-0.1644
					c0.2055,0.0411,0.3699,0.1233,0.4522,0.2877l1.8086,2.6307l2.1786-2.7129c0.1233-0.1644,0.3288-0.2466,0.5344-0.2466
					c0.2055,0,0.4111,0.1233,0.5344,0.2877l1.4798,2.1375l8.0566-2.3841c0.2877-0.0822,0.5755,0.0411,0.7399,0.2466l1.1098,1.6031
					l2.0553-2.5074c0.0822-0.1233,0.2466-0.2055,0.4111-0.2466l4.686-0.8632c0.2466-0.0411,0.5344,0.0822,0.6577,0.2877
					l1.3565,1.973l2.0553-2.8363c0.1233-0.1644,0.3288-0.2877,0.5344-0.2877l0,0c0.2055,0,0.4111,0.1233,0.5344,0.2877
					l2.3019,3.3706l7.3167-1.1509c0.2466-0.0411,0.4933,0.0822,0.6577,0.2877l1.3976,2.0142l1.6442-2.0553
					c0.1233-0.1644,0.3288-0.2466,0.5344-0.2466c0.2055,0,0.411,0.1233,0.5344,0.2877l1.5209,2.2197l3.5762-2.3841
					c0.2877-0.2055,0.6988-0.1233,0.9043,0.1644l1.0687,1.562c0.5344,0.781,0.5344,1.7675,0.0411,2.5485l-6.1658,9.372
					c-0.1644,0.2466-0.3699,0.4522-0.5755,0.6577C70.5978,48.9609,69.8579,49.2898,69.1591,49.2898z M68.6247,47.7689
					c0.3288,0.3288,1.1098,0.2466,1.7264-0.3288c0.1233-0.1233,0.2466-0.2877,0.3699-0.411l6.1658-9.372
					c0.2055-0.3288,0.2055-0.7399,0-1.0687l-0.6988-1.0276l-3.5761,2.3841c-0.2877,0.2055-0.6988,0.1233-0.9043-0.1644
					L70.31,35.7662l-1.6442,2.0553c-0.1233,0.1644-0.3288,0.2466-0.5344,0.2466s-0.411-0.1233-0.5344-0.2877l-1.6442-2.4252
					l-7.3167,1.1509c-0.2466,0.0411-0.4933-0.0822-0.6577-0.2877l-2.0142-2.9596l-2.0553,2.8363
					c-0.1233,0.1644-0.3288,0.2877-0.5344,0.2877s-0.4111-0.1233-0.5344-0.2877l-1.6442-2.3841l-4.0283,0.7399l-2.4663,3.0007
					c-0.1233,0.1644-0.3288,0.2466-0.5344,0.2466c-0.2055,0-0.411-0.1233-0.5344-0.2877l-1.3565-1.973l-8.0566,2.3841
					c-0.2877,0.0822-0.5755-0.0411-0.7399-0.2466l-1.2332-1.8086l-2.1786,2.7129c-0.1233,0.1644-0.3288,0.2466-0.5344,0.2466
					s-0.4111-0.1233-0.5344-0.2877l-1.8497-2.754l-1.8086,1.6031c-0.1233,0.1233-0.3288,0.1644-0.5344,0.1644
					c-0.2055-0.0411-0.3699-0.1233-0.4522-0.2877l-1.1921-1.7264l-5.5081,1.1921l-4.1105,2.2608
					c-0.2877,0.1644-0.6577,0.0822-0.8632-0.2055l-3.6173-5.2615l-5.7136,8.6321l1.6442,2.3841
					c0.2877,0.4522,0.6166,0.4933,0.8632,0.4933c0.2877,0,0.5344-0.1233,0.7399-0.3288c0.7399-0.8221,1.8086-1.3154,2.9596-1.3154
					s2.2197,0.4933,2.9596,1.3154c0.2055,0.2055,0.4522,0.3288,0.6988,0.3288c0.2877,0,0.5344-0.1233,0.6988-0.3288
					c0.4933-0.5344,1.2743-0.8632,2.1375-0.8632c0.6166,0,1.1921,0.1644,1.6853,0.4933c0.1644,0.0822,0.2466,0.2466,0.2877,0.4522
					c0.0411,0.1644,0,0.3699-0.1233,0.4933l-0.9454,1.2743l0.9043,1.2743c0.0411,0.0822,0.2055,0.1233,0.3699,0.1644
					c0.4111,0.0411,0.8632-0.1233,1.1921-0.4522c0.2055-0.2055,0.3699-0.4522,0.4933-0.6988l0.6577-1.4387
					c0.5755-1.3154,2.0964-2.0142,4.316-2.0142c1.1098,0,2.1786,0.2877,3.0829,0.8632c0.6577,0.3699,1.4387,0.781,2.3019,0.781
					c0.9043,0,1.8908-0.3288,2.5896-0.8632c0.6577-0.4933,1.3976-0.7399,2.1786-0.7399c0.8221,0,1.6031,0.2877,2.2608,0.8221
					c0.6577,0.5344,1.4798,0.8221,2.3019,0.8221c0.4933,0,0.9454-0.0822,1.3565-0.2466c0.5344-0.2055,1.1509-0.1644,1.6031,0.1233
					c0.3288,0.2055,0.781,0.2055,1.0687-0.0411c0.4111-0.2877,0.9454-0.4522,1.4798-0.4522s1.0276,0.1644,1.4387,0.4522
					c0.4111,0.2877,1.0687,0.2466,1.4798-0.1233c0.9454-0.8221,2.3019-1.3154,3.7406-1.3154c1.4798,0,3.0007,0.5344,3.9461,1.3565
					c0.2055,0.1644,0.4522,0.2877,0.7399,0.2877c0.2877,0,0.5755-0.1233,0.8221-0.3288c0.5344-0.4933,1.3976-0.8221,2.2197-0.8221
					c0.6166,0,1.192,0.1644,1.6853,0.4933c0.6166,0.4111,1.3565,0.6577,2.1375,0.6577c0.7399,0,1.4798-0.2466,2.1375-0.6577
					c0.4933-0.3288,1.0687-0.4933,1.6853-0.4933c0.4522,0,0.9043,0.0822,1.3154,0.2877c0.1644,0.0822,0.2877,0.2466,0.3699,0.4111
					c0.0411,0.2055,0,0.4111-0.0822,0.5344l-0.9865,1.3976L68.6247,47.7689z M21.1482,45.5903L21.1482,45.5903L21.1482,45.5903z"/>
			</g>
			<g>
				<g>
					<path fill="#0068B4" d="M52.8403,33.0121c0-0.9043,0.781-1.6442,1.7675-1.6442c0.9454,0,1.7675,0.7399,1.7675,1.6442v8.1799
						c0,0.9043-0.781,1.6442-1.7675,1.6442c-0.9454,0-1.7675-0.7399-1.7675-1.6442C52.8403,41.1921,52.8403,33.0121,52.8403,33.0121
						z"/>
					<path fill="#0068B4" d="M54.5667,43.4939c-1.3154,0-2.4252-1.0276-2.4252-2.3019v-8.1799c0-1.2743,1.0687-2.3019,2.4252-2.3019
						s2.4252,1.0276,2.4252,2.3019v8.1799C56.9919,42.4663,55.8821,43.4939,54.5667,43.4939z M54.5667,32.0667
						c-0.6166,0-1.0687,0.4522-1.0687,0.9865v8.1799c0,0.5344,0.4933,0.9865,1.0687,0.9865c0.5755,0,1.0687-0.4522,1.0687-0.9865
						v-8.221C55.6766,32.4778,55.1833,32.0667,54.5667,32.0667z"/>
				</g>
			</g>
			<g>
				<path fill="#0068B4" d="M5.6927,41.3565l-0.2466,0.5344c-0.3699,0.8221-1.3565,1.1921-2.1786,0.8221
					c-0.8221-0.3699-1.1921-1.3565-0.8221-2.1786l3.6995-8.1799c0.2466-0.5755,0.8221-0.9454,1.4798-0.9454
					s1.2332,0.4111,1.4798,0.9454l3.6995,8.1799c0.3699,0.8221,0,1.8086-0.8221,2.1786c-0.8221,0.3699-1.8086,0-2.1786-0.8221
					l-0.2466-0.5344H5.6927L5.6927,41.3565z M6.8025,38.8491h1.6853l-0.8221-1.8497L6.8025,38.8491z"/>
				<path fill="#0068B4" d="M11.3652,43.4939c-0.2877,0-0.5344-0.0411-0.8221-0.1644c-0.5755-0.2055-1.0276-0.6577-1.2743-1.1921
					l-0.0822-0.1233H6.1037l-0.0822,0.1233c-0.2466,0.5755-0.6988,0.9865-1.2743,1.1921c-0.5755,0.2055-1.1921,0.2055-1.7675-0.0411
					s-0.9865-0.6988-1.1921-1.2743c-0.2055-0.5755-0.2055-1.192,0.0411-1.7675l3.6995-8.1799
					c0.3699-0.8221,1.192-1.3565,2.0964-1.3565c0.9043,0,1.7264,0.5344,2.0964,1.3565l3.6995,8.1799
					c0.2466,0.5755,0.2877,1.1921,0.0411,1.7675c-0.2055,0.5755-0.6577,1.0276-1.192,1.2743
					C12.0229,43.4117,11.694,43.4939,11.3652,43.4939z M5.6927,40.6988h3.9461c0.2466,0,0.4933,0.1644,0.6166,0.3699l0.2466,0.5344
					c0.1233,0.2466,0.2877,0.4111,0.5344,0.4933c0.2466,0.0822,0.4933,0.0822,0.7399-0.0411
					c0.2466-0.1233,0.4111-0.2877,0.4933-0.5344c0.0822-0.2466,0.0822-0.4933-0.0411-0.7399l-3.6995-8.1799
					c-0.1644-0.3288-0.4933-0.5755-0.9043-0.5755c-0.3699,0-0.7399,0.2055-0.9043,0.5755L3.0208,40.781
					c-0.1233,0.2466-0.1233,0.4933-0.0411,0.7399c0.0822,0.2466,0.2877,0.4522,0.4933,0.5344
					c0.2466,0.1233,0.4933,0.1233,0.7399,0.0411c0.2466-0.0822,0.4522-0.2877,0.5344-0.4933l0.2466-0.5344
					C5.1994,40.8221,5.4049,40.6988,5.6927,40.6988z M8.4878,39.5067H6.8025c-0.2055,0-0.4522-0.1233-0.5755-0.2877
					c-0.1233-0.2055-0.1233-0.4111-0.0411-0.6166l0.8221-1.8497c0.1233-0.2466,0.3288-0.3699,0.6166-0.3699
					c0.2466,0,0.4933,0.1644,0.6166,0.3699l0.8221,1.8497c0.0822,0.2055,0.0822,0.4522-0.0411,0.6166S8.7345,39.5067,8.4878,39.5067
					z"/>
			</g>
			<g>
				<path fill="#0068B4" d="M47.1267,39.1368v2.0553c0,0.9043-0.781,1.6442-1.7675,1.6442c-0.9454,0-1.7675-0.7399-1.7675-1.6442
					v-8.7554c0-0.5755,0.4933-1.0687,1.1509-1.0687h3.8228c2.1786,0,3.5761,1.7264,3.5761,3.8639s-1.3976,3.8639-3.5761,3.8639
					L47.1267,39.1368L47.1267,39.1368z M47.9077,36.3416c0.4111,0,0.781-0.411,0.781-0.9454c0-0.5344-0.3288-0.9454-0.781-0.9454
					h-0.781v1.9319L47.9077,36.3416L47.9077,36.3416z"/>
				<path fill="#0068B4" d="M45.4003,43.4939c-1.3154,0-2.4252-1.0276-2.4252-2.3019v-8.7554c0-0.9454,0.8221-1.7264,1.8086-1.7264
					h3.8228c2.4252,0,4.2338,1.8908,4.2338,4.5216c0,2.6307-1.7675,4.5216-4.2338,4.5216h-0.8221v1.3976
					C47.7844,42.4663,46.7157,43.4939,45.4003,43.4939z M44.7837,32.0667c-0.2466,0-0.4933,0.1644-0.4933,0.4111v8.7554
					c0,0.5344,0.4933,0.9865,1.0687,0.9865c0.6166,0,1.0687-0.4522,1.0687-0.9865v-2.0553c0-0.3699,0.2877-0.6577,0.6577-0.6577
					h1.4798c1.6853,0,2.8774-1.3154,2.8774-3.2062s-1.1921-3.2062-2.8774-3.2062L44.7837,32.0667z M47.9077,37.0404h-0.781
					c-0.3699,0-0.6577-0.2877-0.6577-0.6577v-1.9319c0-0.3699,0.2877-0.6577,0.6577-0.6577h0.781
					c0.781,0,1.4387,0.7399,1.4387,1.6031C49.3464,36.3005,48.6887,37.0404,47.9077,37.0404z M47.7844,35.684h0.1233
					c0.0411,0,0.1233-0.1233,0.1233-0.2877c0-0.1644-0.0822-0.2877-0.1233-0.2877h-0.0822L47.7844,35.684L47.7844,35.684z"/>
			</g>
			<g>
				<g>
					<path fill="#0068B4" d="M32.5755,39.219c0,2.0142-1.8908,3.6173-4.1516,3.6173s-4.1516-1.6031-4.1516-3.6173v-3.6995
						c0-0.9043,0.7399-1.6442,1.6442-1.6442s1.6442,0.7399,1.6442,1.6442v3.6995c0,0.4522,0.4111,0.8221,0.9043,0.8221
						s0.9043-0.3699,0.9043-0.8221v-3.6995c0-0.9043,0.7399-1.6442,1.6442-1.6442c0.9043,0,1.6442,0.7399,1.6442,1.6442v3.6995
						H32.5755z"/>
					<path fill="#0068B4" d="M28.4238,43.4939c-2.6718,0-4.8504-1.9319-4.8504-4.2749v-3.6995c0-1.2743,1.0276-2.3019,2.3019-2.3019
						c1.2743,0,2.3019,1.0276,2.3019,2.3019v3.6995c0,0.0822,0.1233,0.1644,0.2466,0.1644s0.2466-0.0822,0.2466-0.1644v-3.6995
						c0-1.2743,1.0276-2.3019,2.3019-2.3019c1.2743,0,2.3019,1.0276,2.3019,2.3019v3.6995
						C33.2332,41.562,31.0957,43.4939,28.4238,43.4939z M25.8753,34.533c-0.5344,0-0.9865,0.4522-0.9865,0.9865v3.6995
						c0,1.6442,1.562,2.9596,3.4939,2.9596s3.4939-1.3154,3.4939-2.9596v-3.6995c0-0.5344-0.4522-0.9865-0.9454-0.9865
						c-0.5344,0-0.9865,0.4522-0.9865,0.9865v3.6995c0,0.8221-0.6988,1.4798-1.562,1.4798c-0.8632,0-1.562-0.6577-1.562-1.4798
						v-3.6995C26.8619,34.9852,26.4097,34.533,25.8753,34.533z"/>
				</g>
			</g>
			<g>
				<g>
					<path fill="#0068B4" d="M70.1867,45.7958c-0.1233,0.2055-0.2877,0.3699-0.4933,0.5344
						c-0.9043,0.8221-2.0964,0.9043-2.7129,0.2466c-0.4522-0.4522-0.4522-1.2743-0.1233-1.7264l1.4387-2.1786
						c-0.5755-0.2466-0.9454-0.8221-0.9454-1.4798v-5.6725c0-0.9043,0.7399-1.6442,1.6442-1.6442s1.6442,0.7399,1.6442,1.6442
						v3.6584l3.0007-4.5627c0.4933-0.7399,1.5209-0.9454,2.2608-0.4522c0.7399,0.4933,0.9454,1.5209,0.4522,2.2608L70.1867,45.7958z
						"/>
					<path fill="#0068B4" d="M68.0903,47.6867c-0.5755,0-1.1509-0.2055-1.562-0.6577c-0.6577-0.7399-0.6166-1.8908-0.2055-2.5485
						l1.0687-1.6442c-0.4522-0.4111-0.6988-1.0276-0.6988-1.6442v-5.6725c0-0.6166,0.2466-1.1921,0.6577-1.6442
						c0.4522-0.4522,1.0276-0.6577,1.6031-0.6577l0,0c1.2743,0,2.3019,1.0276,2.3019,2.3019v1.4387l1.7675-2.7129
						c0.3288-0.4933,0.8632-0.8632,1.4387-0.9865c0.6166-0.1233,1.2332,0,1.7264,0.3288c1.0687,0.6988,1.3565,2.1375,0.6577,3.1651
						l-6.1658,9.372l0,0c-0.1644,0.2466-0.3699,0.4522-0.5755,0.6577C69.529,47.3989,68.7891,47.6867,68.0903,47.6867z
						 M68.9947,34.533c-0.2466,0-0.4933,0.0822-0.6988,0.2877c-0.1644,0.1644-0.2877,0.4111-0.2877,0.6988v5.6725
						c0,0.3699,0.2055,0.7399,0.5755,0.9043c0.1644,0.0822,0.2877,0.2466,0.3699,0.4111c0.0411,0.2055,0.0411,0.3699-0.0822,0.5344
						l-1.4387,2.1786c-0.1644,0.2055-0.1233,0.6988,0.0822,0.9043c0.3288,0.3288,1.1098,0.2877,1.7675-0.3288
						c0.1233-0.1233,0.2466-0.2877,0.3699-0.411l6.1658-9.372c0.2877-0.4522,0.1644-1.0687-0.2877-1.3565
						c-0.2055-0.1233-0.4933-0.2055-0.7399-0.1233c-0.2466,0.0411-0.4933,0.2055-0.6166,0.411l-3.0007,4.5627
						c-0.1644,0.2466-0.4522,0.3699-0.7399,0.2877s-0.4522-0.3288-0.4522-0.6166v-3.6584
						C69.9812,34.9852,69.529,34.533,68.9947,34.533L68.9947,34.533L68.9947,34.533z M70.1867,45.7958L70.1867,45.7958
						L70.1867,45.7958z"/>
				</g>
			</g>
			<g>
				<path fill="#0068B4" d="M39.8922,42.343c-0.0822,0-0.1233,0-0.2055,0.0411c-0.5755,0.2877-1.2743,0.4522-1.973,0.4522
					c-2.4663,0-4.4805-2.0142-4.4805-4.4805s2.0142-4.4805,4.4805-4.4805c0.6988,0,1.3565,0.1644,1.9731,0.4522
					c0.0411,0.0411,0.1233,0.0411,0.2055,0.0411c0.1233,0,0.2055-0.0411,0.2877-0.1233c0.2877-0.2466,0.6577-0.3699,1.0687-0.3699
					c0.9043,0,1.6442,0.7399,1.6442,1.6442v5.6725c0,0.9043-0.7399,1.6442-1.6442,1.6442c-0.4111,0-0.781-0.1644-1.0687-0.4111
					C40.0566,42.3841,39.9744,42.343,39.8922,42.343z M36.2338,38.3558c0,0.8632,0.6988,1.6031,1.6031,1.6031
					c0.8632,0,1.6031-0.6988,1.6031-1.6031c0-0.8632-0.6988-1.6031-1.6031-1.6031C36.9737,36.7938,36.2338,37.4926,36.2338,38.3558z
					"/>
				<path fill="#0068B4" d="M41.2076,43.4939c-0.4933,0-0.9865-0.1644-1.3565-0.4522c-0.6577,0.2877-1.3976,0.4522-2.0964,0.4522
					c-2.8363,0-5.1381-2.3019-5.1381-5.1381s2.3019-5.1381,5.1381-5.1381c0.7399,0,1.4387,0.1644,2.0964,0.4522
					c0.4111-0.2877,0.8632-0.4522,1.3565-0.4522c1.2743,0,2.3019,1.0276,2.3019,2.3019v5.6725
					C43.5094,42.4663,42.4818,43.4939,41.2076,43.4939z M39.9744,42.9596L39.9744,42.9596L39.9744,42.9596z M39.8922,41.6853
					c0.2466,0,0.4933,0.0822,0.6988,0.2466c0.1644,0.1644,0.4111,0.2466,0.6166,0.2466c0.5344,0,0.9865-0.4522,0.9865-0.9865
					v-5.6725c0-0.5344-0.4522-0.9865-0.9865-0.9865c-0.2466,0-0.4522,0.0822-0.6166,0.2055
					c-0.3288,0.2877-0.8221,0.3288-1.1921,0.1644c-0.4933-0.2466-1.0687-0.3699-1.6442-0.3699
					c-2.0964,0-3.8228,1.7264-3.8228,3.8228c0,2.0964,1.7264,3.8228,3.8228,3.8228c0.5755,0,1.1509-0.1233,1.6853-0.3699
					C39.5222,41.7264,39.6867,41.6853,39.8922,41.6853z M39.9744,33.752L39.9744,33.752L39.9744,33.752z M37.8369,40.6166
					c-1.2332,0-2.2608-1.0276-2.2608-2.2608s1.0276-2.2608,2.2608-2.2608c1.2332,0,2.2608,1.0276,2.2608,2.2608
					S39.0701,40.6166,37.8369,40.6166z M37.8369,37.4515c-0.4933,0-0.9454,0.4111-0.9454,0.9454
					c0,0.4933,0.4111,0.9454,0.9454,0.9454c0.5344,0,0.9454-0.4111,0.9454-0.9454S38.3302,37.4515,37.8369,37.4515z"/>
			</g>
			<g>
				<path fill="#0068B4" d="M63.6099,42.343c-0.0822,0-0.1233,0-0.2055,0.0411c-0.5755,0.2877-1.2743,0.4522-1.973,0.4522
					c-2.4663,0-4.4805-2.0142-4.4805-4.4805s2.0142-4.4805,4.4805-4.4805c0.6988,0,1.3565,0.1644,1.973,0.4522
					c0.0411,0.0411,0.1233,0.0411,0.2055,0.0411c0.1233,0,0.2055-0.0411,0.2877-0.1233c0.2877-0.2466,0.6577-0.3699,1.0687-0.3699
					c0.9043,0,1.6442,0.7399,1.6442,1.6442v5.6725c0,0.9043-0.7399,1.6442-1.6442,1.6442c-0.411,0-0.781-0.1644-1.0687-0.4111
					C63.8154,42.3841,63.6921,42.343,63.6099,42.343z M59.9926,38.3558c0,0.8632,0.6988,1.6031,1.6031,1.6031
					c0.8632,0,1.6031-0.6988,1.6031-1.6031c0-0.8632-0.6988-1.6031-1.6031-1.6031C60.6914,36.7938,59.9926,37.4926,59.9926,38.3558z
					"/>
				<path fill="#0068B4" d="M64.9252,43.4939c-0.4933,0-0.9865-0.1644-1.3565-0.4522c-0.6577,0.2877-1.3976,0.4522-2.0964,0.4522
					c-2.8363,0-5.1381-2.3019-5.1381-5.1381s2.3019-5.1381,5.1381-5.1381c0.7399,0,1.4387,0.1644,2.0964,0.4522
					c0.411-0.2877,0.8632-0.4522,1.3565-0.4522c1.2743,0,2.3019,1.0276,2.3019,2.3019v5.6725
					C67.2271,42.4663,66.1995,43.4939,64.9252,43.4939z M63.7332,42.9596C63.6921,42.9596,63.6921,42.9596,63.7332,42.9596
					C63.6921,42.9596,63.6921,42.9596,63.7332,42.9596z M63.6099,41.6853c0.2466,0,0.4933,0.0822,0.6988,0.2466
					c0.1644,0.1644,0.4111,0.2466,0.6166,0.2466c0.5344,0,0.9865-0.4522,0.9865-0.9865v-5.6725
					c0-0.5344-0.4522-0.9865-0.9865-0.9865c-0.2466,0-0.4522,0.0822-0.6166,0.2055c-0.3288,0.2877-0.8221,0.3288-1.192,0.1644
					c-0.4933-0.2466-1.0687-0.3699-1.6442-0.3699c-2.0964,0-3.8228,1.7264-3.8228,3.8228c0,2.0964,1.7264,3.8228,3.8228,3.8228
					c0.5755,0,1.1509-0.1233,1.6853-0.3699C63.2399,41.7264,63.4044,41.6853,63.6099,41.6853z M63.6921,33.752L63.6921,33.752
					L63.6921,33.752z M61.5546,40.6166c-1.2332,0-2.2608-1.0276-2.2608-2.2608s1.0276-2.2608,2.2608-2.2608
					s2.2608,1.0276,2.2608,2.2608S62.7878,40.6166,61.5546,40.6166z M61.5546,37.4515c-0.4933,0-0.9454,0.4111-0.9454,0.9454
					c0,0.4933,0.411,0.9454,0.9454,0.9454c0.4933,0,0.9454-0.4111,0.9454-0.9454S62.089,37.4515,61.5546,37.4515z"/>
			</g>
			<g>
				<path fill="#0068B4" d="M17.5721,39.9589c0.8632,0,1.6031-0.6988,1.6031-1.6031c0-0.8632-0.6988-1.6031-1.6031-1.6031
					c-0.8632,0-1.6031,0.6988-1.6031,1.6031C16.0101,39.2601,16.7089,39.9589,17.5721,39.9589z M20.6961,34.6152
					c0.4522-0.6577,1.2743-0.9043,2.0142-0.5755c0.8221,0.3699,1.1921,1.3154,0.8221,2.1375l-4.1105,9.3309
					c-0.1233,0.2877-0.3699,0.6166-0.6166,0.8632c-0.8221,0.781-2.0142,0.8221-2.5896,0.2055
					c-0.3699-0.4111-0.4111-1.0276-0.1233-1.6442l0.9454-2.1375c-2.3019-0.1644-4.0283-2.1786-4.0283-4.4394
					c0-2.4663,2.0142-4.4805,4.4805-4.4805c1.1921,0,2.2197,0.2877,2.8774,0.7399c0.0411,0.0411,0.1233,0.0411,0.1644,0.0411
					C20.5728,34.6974,20.655,34.6563,20.6961,34.6152z"/>
				<path fill="#0068B4" d="M17.2843,47.6867c-0.0411,0-0.0411,0-0.0822,0c-0.5755,0-1.1098-0.2466-1.4798-0.6577
					c-0.5344-0.5755-0.6166-1.4798-0.2466-2.343l0.6166-1.3565c-2.1786-0.5755-3.7406-2.5896-3.7406-4.9326
					c0-2.8363,2.3019-5.1381,5.1381-5.1381c1.1509,0,2.1786,0.2466,2.9596,0.6577c0.6577-0.6577,1.6853-0.8632,2.5896-0.4933
					c1.1509,0.4933,1.6853,1.8908,1.1509,3.0418l-4.1105,9.3309c-0.2055,0.4111-0.4522,0.781-0.781,1.0687
					C18.723,47.3989,18.0242,47.6867,17.2843,47.6867z M17.4899,34.533c-2.0964,0-3.8228,1.7264-3.8228,3.8228
					c0,1.973,1.5209,3.6584,3.4117,3.7817c0.2055,0,0.4111,0.1233,0.5344,0.3288c0.1233,0.1644,0.1233,0.4111,0.0411,0.6166
					l-0.9454,2.1375c-0.1644,0.3699-0.1644,0.7399,0,0.9454c0.1233,0.1233,0.3288,0.2055,0.5344,0.2055
					c0.3699,0,0.781-0.1644,1.0687-0.4522c0.2055-0.2055,0.3699-0.4522,0.4933-0.6988l4.1105-9.2898
					c0.2055-0.4933,0-1.0687-0.4933-1.2743c-0.4522-0.2055-0.9454-0.0411-1.2332,0.3288c-0.0411,0.0411-0.0411,0.0822-0.0822,0.0822
					c-0.3288,0.3288-0.8632,0.3699-1.2332,0.0822C19.4218,34.7796,18.5175,34.533,17.4899,34.533z M20.6961,34.6152L20.6961,34.6152
					L20.6961,34.6152z M20.6961,34.0809C20.7372,34.0809,20.7372,34.0809,20.6961,34.0809
					C20.7372,34.0809,20.7372,34.0809,20.6961,34.0809z M17.5721,40.6166c-1.2332,0-2.2608-1.0276-2.2608-2.2608
					s1.0276-2.2608,2.2608-2.2608c1.2332,0,2.2608,1.0276,2.2608,2.2608S18.8463,40.6166,17.5721,40.6166z M17.5721,37.4515
					c-0.4933,0-0.9454,0.4111-0.9454,0.9454c0,0.4933,0.4111,0.9454,0.9454,0.9454c0.4933,0,0.9454-0.4111,0.9454-0.9454
					S18.1064,37.4515,17.5721,37.4515z"/>
			</g>
			<g>
				<g>
					<path fill="#FFFFFF" d="M52.8403,33.0121c0-0.9043,0.781-1.6442,1.7675-1.6442c0.9454,0,1.7675,0.7399,1.7675,1.6442v8.1799
						c0,0.9043-0.781,1.6442-1.7675,1.6442c-0.9454,0-1.7675-0.7399-1.7675-1.6442C52.8403,41.1921,52.8403,33.0121,52.8403,33.0121
						z"/>
				</g>
			</g>
			<g>
				<path fill="#FFFFFF" d="M5.6927,41.3565l-0.2466,0.5344c-0.3699,0.8221-1.3565,1.1921-2.1786,0.8221
					c-0.8221-0.3699-1.1921-1.3565-0.8221-2.1786l3.6995-8.1799c0.2466-0.5755,0.8221-0.9454,1.4798-0.9454
					s1.2332,0.4111,1.4798,0.9454l3.6995,8.1799c0.3699,0.8221,0,1.8086-0.8221,2.1786c-0.8221,0.3699-1.8086,0-2.1786-0.8221
					l-0.2466-0.5344H5.6927L5.6927,41.3565z M6.8025,38.8491h1.6853l-0.8221-1.8497L6.8025,38.8491z"/>
			</g>
			<g>
				<path fill="#FFFFFF" d="M47.1267,39.1368v2.0553c0,0.9043-0.781,1.6442-1.7675,1.6442c-0.9454,0-1.7675-0.7399-1.7675-1.6442
					v-8.7554c0-0.5755,0.4933-1.0687,1.1509-1.0687h3.8228c2.1786,0,3.5761,1.7264,3.5761,3.8639s-1.3976,3.8639-3.5761,3.8639
					L47.1267,39.1368L47.1267,39.1368z M47.9077,36.3416c0.4111,0,0.781-0.411,0.781-0.9454c0-0.5344-0.3288-0.9454-0.781-0.9454
					h-0.781v1.9319L47.9077,36.3416L47.9077,36.3416z"/>
			</g>
			<g>
				<g>
					<path fill="#FFFFFF" d="M32.5755,39.219c0,2.0142-1.8908,3.6173-4.1516,3.6173s-4.1516-1.6031-4.1516-3.6173v-3.6995
						c0-0.9043,0.7399-1.6442,1.6442-1.6442s1.6442,0.7399,1.6442,1.6442v3.6995c0,0.4522,0.4111,0.8221,0.9043,0.8221
						s0.9043-0.3699,0.9043-0.8221v-3.6995c0-0.9043,0.7399-1.6442,1.6442-1.6442c0.9043,0,1.6442,0.7399,1.6442,1.6442v3.6995
						H32.5755z"/>
				</g>
			</g>
			<g>
				<g>
					<path fill="#FFFFFF" d="M70.1867,45.7958c-0.1233,0.2055-0.2877,0.3699-0.4933,0.5344
						c-0.9043,0.8221-2.0964,0.9043-2.7129,0.2466c-0.4522-0.4522-0.4522-1.2743-0.1233-1.7264l1.4387-2.1786
						c-0.5755-0.2466-0.9454-0.8221-0.9454-1.4798v-5.6725c0-0.9043,0.7399-1.6442,1.6442-1.6442s1.6442,0.7399,1.6442,1.6442
						v3.6584l3.0007-4.5627c0.4933-0.7399,1.5209-0.9454,2.2608-0.4522c0.7399,0.4933,0.9454,1.5209,0.4522,2.2608L70.1867,45.7958z
						"/>
				</g>
			</g>
			<g>
				<path fill="#FFFFFF" d="M39.8922,42.343c-0.0822,0-0.1233,0-0.2055,0.0411c-0.5755,0.2877-1.2743,0.4522-1.973,0.4522
					c-2.4663,0-4.4805-2.0142-4.4805-4.4805s2.0142-4.4805,4.4805-4.4805c0.6988,0,1.3565,0.1644,1.9731,0.4522
					c0.0411,0.0411,0.1233,0.0411,0.2055,0.0411c0.1233,0,0.2055-0.0411,0.2877-0.1233c0.2877-0.2466,0.6577-0.3699,1.0687-0.3699
					c0.9043,0,1.6442,0.7399,1.6442,1.6442v5.6725c0,0.9043-0.7399,1.6442-1.6442,1.6442c-0.4111,0-0.781-0.1644-1.0687-0.4111
					C40.0566,42.3841,39.9744,42.343,39.8922,42.343z M36.2338,38.3558c0,0.8632,0.6988,1.6031,1.6031,1.6031
					c0.8632,0,1.6031-0.6988,1.6031-1.6031c0-0.8632-0.6988-1.6031-1.6031-1.6031C36.9737,36.7938,36.2338,37.4926,36.2338,38.3558z
					"/>
			</g>
			<g>
				<path fill="#FFFFFF" d="M63.6099,42.343c-0.0822,0-0.1233,0-0.2055,0.0411c-0.5755,0.2877-1.2743,0.4522-1.973,0.4522
					c-2.4663,0-4.4805-2.0142-4.4805-4.4805s2.0142-4.4805,4.4805-4.4805c0.6988,0,1.3565,0.1644,1.973,0.4522
					c0.0411,0.0411,0.1233,0.0411,0.2055,0.0411c0.1233,0,0.2055-0.0411,0.2877-0.1233c0.2877-0.2466,0.6577-0.3699,1.0687-0.3699
					c0.9043,0,1.6442,0.7399,1.6442,1.6442v5.6725c0,0.9043-0.7399,1.6442-1.6442,1.6442c-0.411,0-0.781-0.1644-1.0687-0.4111
					C63.8154,42.3841,63.6921,42.343,63.6099,42.343z M59.9926,38.3558c0,0.8632,0.6988,1.6031,1.6031,1.6031
					c0.8632,0,1.6031-0.6988,1.6031-1.6031c0-0.8632-0.6988-1.6031-1.6031-1.6031C60.6914,36.7938,59.9926,37.4926,59.9926,38.3558z
					"/>
			</g>
			<g>
				<path fill="#FFFFFF" d="M17.5721,39.9589c0.8632,0,1.6031-0.6988,1.6031-1.6031c0-0.8632-0.6988-1.6031-1.6031-1.6031
					c-0.8632,0-1.6031,0.6988-1.6031,1.6031C16.0101,39.2601,16.7089,39.9589,17.5721,39.9589z M20.6961,34.6152
					c0.4522-0.6577,1.2743-0.9043,2.0142-0.5755c0.8221,0.3699,1.1921,1.3154,0.8221,2.1375l-4.1105,9.3309
					c-0.1233,0.2877-0.3699,0.6166-0.6166,0.8632c-0.8221,0.781-2.0142,0.8221-2.5896,0.2055
					c-0.3699-0.4111-0.4111-1.0276-0.1233-1.6442l0.9454-2.1375c-2.3019-0.1644-4.0283-2.1786-4.0283-4.4394
					c0-2.4663,2.0142-4.4805,4.4805-4.4805c1.1921,0,2.2197,0.2877,2.8774,0.7399c0.0411,0.0411,0.1233,0.0411,0.1644,0.0411
					C20.5728,34.6974,20.655,34.6563,20.6961,34.6152z"/>
			</g>
		</g>
	</g>
</g>
</svg>
