<?xml version="1.0" encoding="utf-8"?>
<!-- Generator: Adobe Illustrator 24.0.1, SVG Export Plug-In . SVG Version: 6.00 Build 0)  -->
<svg version="1.1" xmlns="http://www.w3.org/2000/svg" xmlns:xlink="http://www.w3.org/1999/xlink" x="0px" y="0px"
	 viewBox="0 0 80 80" enable-background="new 0 0 80 80" xml:space="preserve">
<g id="Layer_19">
</g>
<g id="Layer_1">
</g>
<g id="Layer_2">
</g>
<g id="Layer_3">
</g>
<g id="Layer_4">
</g>
<g id="Layer_5">
</g>
<g id="Layer_6">
</g>
<g id="Layer_9">
</g>
<g id="Layer_10">
</g>
<g id="Layer_11">
</g>
<g id="Layer_12">
</g>
<g id="Layer_13">
</g>
<g id="Layer_14">
</g>
<g id="Layer_15">
</g>
<g id="Layer_17">
</g>
<g id="Layer_7">
</g>
<g id="Layer_8">
	<rect y="0" fill="none" width="80" height="80"/>
	<g id="Ebene_2_9_">
		<g>
			<g>
				<path fill="#FFFFFF" d="M42.9871,48.5589c1.336,0.334,2.4215,1.2525,2.8808,2.5051v-0.0417c0-0.5845,0.167-1.0855,0.4593-1.503
					c-1.169-0.0835-2.1293-0.7515-2.7138-1.67C43.4464,48.0997,43.2376,48.3502,42.9871,48.5589 M49.041,48.5589
					c1.0855,0.2923,1.837,1.2525,1.837,2.4633v0.167c0.2505-0.4175,0.5845-0.7933,0.9185-1.1273
					c0.9185-0.9185,2.0875-1.503,3.3401-1.7118c-0.5428-0.6263-0.8768-1.4195-0.8768-2.338v-1.1273h-4.0916v1.1273
					C50.1265,47.0141,49.709,47.8909,49.041,48.5589 M56.0969,60.6667c-2.2128,0-4.1333-1.169-5.2606-2.8808v0.0835
					c0,1.4613-1.0438,2.5468-2.5051,2.5468c-1.1273,0-2.0458-0.668-2.338-1.67c-0.7515,0.9603-1.8788,1.67-3.2566,1.67h-3.1731
					c-1.2525,0-2.5468-0.9185-2.5468-2.5051v-6.8889c0-1.002,0.5428-1.837,1.3778-2.2545c-0.835-0.6263-1.3778-1.67-1.3778-2.7973
					v-1.2108c-1.0855-0.2505-2.3798-0.7933-3.5488-1.7953c-1.2525-1.0438-2.7138-2.9643-2.9226-6.0121
					c-9.6862-1.9623-17.9529-7.1811-24.633-15.4896c-0.2505-0.334-0.2923-0.7933-0.0418-1.169
					c0.167-0.2505,0.4593-0.4175,0.7933-0.4175c0.1253,0,0.2088,0,0.334,0.0418c5.4694,1.9623,19.0384,4.4673,24.4242,4.5091
					c3.7576-2.2128,7.7239-4.0498,8.1832-4.2168c0.2923-0.167,1.67-0.8768,3.3818-0.8768c2.171,0,4.4673,1.336,5.8869,2.5468l0,0
					c0.668,0.5845,1.336,1.2525,1.9623,1.8788c0.0835,0.0835,0.167,0.167,0.2505,0.2505c5.9704-0.4593,16.8256-2.338,21.9192-4.1333
					c0.0835-0.0418,0.2088-0.0418,0.334-0.0418c0.334,0,0.6263,0.167,0.7933,0.4175c0.2505,0.3758,0.2088,0.835-0.0835,1.169
					c-0.2088,0.2505-0.4175,0.4593-0.6263,0.7098c-0.5845,0.6263-1.7535,1.9205-1.7535,1.9205
					c-0.7515,0.7515-3.2148,3.1731-3.2148,3.1731c-2.0875,1.9205-4.8431,3.8411-8.5172,5.8451
					c0.2923,0.334,0.7515,0.7933,0.8768,0.9603c0.7098,0.9185,4.2168,7.5152,4.9266,8.8512
					c0.2088,0.3758,0.2505,0.7933,0.1253,1.2108s-0.3758,0.7515-0.7515,0.9603c-0.2505,0.1253-0.501,0.2088-0.7515,0.2088
					c-0.5845,0-1.1273-0.2923-1.3778-0.835l0,0c-0.4175-0.7098-1.0438-1.7535-1.6283-2.7556v4.2586
					c0,1.3778-0.7933,2.5468-1.9205,3.1313c0.9185,0.5845,1.5448,1.3778,1.5448,2.4216c0,0.6263-0.2505,1.2108-0.668,1.67
					c0.6263,0.4593,0.9603,1.169,0.9603,2.004v1.7953C61.1905,59.1636,58.5184,60.6667,56.0969,60.6667"/>
			</g>
			<g>
				<g>
					<g>
						<g>
							<defs>
								<rect id="SVGID_19_" x="6.7891" y="20.2936" width="66.6343" height="39.4128"/>
							</defs>
							<clipPath id="SVGID_1_">
								<use xlink:href="#SVGID_19_"  overflow="visible"/>
							</clipPath>
							<path clip-path="url(#SVGID_1_)" d="M38.1022,43.8828c-1.7118,0-6.5131-1.9205-6.5131-7.7657
								c-6.0539-1.1273-15.9906-4.3003-24.8-15.2808c5.8034,2.0875,19.8734,4.5926,25.0088,4.5508
								c3.9246-2.3798,8.3084-4.3421,8.3084-4.3421s1.2943-0.7515,2.9226-0.7515c1.67,0,3.7576,1.002,5.2606,2.338
								c0.835,0.7515,1.7118,1.6283,2.5051,2.4215c5.6364-0.3758,17.1178-2.2963,22.5872-4.2168
								c-3.0478,3.3818-6.5549,7.7239-15.0303,12.0242c0.0417,0,1.503,1.503,1.7535,1.7953
								c0.668,0.8768,4.8431,8.7259,4.8431,8.7259c0.167,0.2923,0.0418,0.668-0.2505,0.835s-0.668,0.0417-0.835-0.2505
								c-1.002-1.7535-3.4236-5.7199-3.4236-5.7199v7.6822c0,1.4195-1.169,2.5468-2.5468,2.5468
								c-1.4195,0-2.5468-1.1273-2.5468-2.5468v-2.0875h-6.0121v2.0875c0,1.4195-1.169,2.5468-2.5468,2.5468
								s-2.5468-1.1273-2.5468-2.5468v-2.0875h-0.8768v2.0875c0,1.4195-1.169,2.5468-2.5468,2.5468
								c-1.4195,0-2.5468-1.1273-2.5468-2.5468C38.1022,45.9704,38.1022,43.8828,38.1022,43.8828z"/>
						</g>
					</g>
				</g>
			</g>
			<g>
				<path fill="#FFFFFF" d="M45.5339,37.2862c0-0.501,0.4175-0.9185,0.9185-0.9185c0.501,0,0.9185,0.4175,0.9185,0.9185
					c0,0.501-0.4175,0.9185-0.9185,0.9185C45.9514,38.163,45.5339,37.7872,45.5339,37.2862"/>
				<g>
					<path fill="#E3000B" d="M65.3238,25.4707c-4.9683,1.4195-12.8175,2.4215-17.5354,2.5886h-0.0418l-0.0417,5.1354h0.0417
						c8.8094-1.4613,16.0741-6.1791,17.5771-7.6404l0.1253-0.1253L65.3238,25.4707z"/>
					<path fill="#E3000B" d="M15.515,25.9717h-0.167l0.1253,0.1253c1.6283,1.5448,8.6007,5.9704,14.4458,6.7636h0.0417v-4.6761
						v-0.0417h-0.0417C25.911,27.934,20.5251,27.1407,15.515,25.9717z"/>
				</g>
				<path d="M49.8342,57.9529c0,1.002-0.668,1.5865-1.5448,1.5865s-1.5448-0.5845-1.5448-1.5865v-6.8471
					c0-1.002,0.668-1.5865,1.5448-1.5865s1.5448,0.5845,1.5448,1.5865V57.9529z"/>
				<path d="M58.4767,53.7778c0.9185,0,1.7118,0.501,1.7118,1.5448v1.7953c0,1.5448-2.2128,2.6721-4.1333,2.6721
					c-3.0061,0-5.2606-2.4633-5.2606-5.2606c0-2.9226,2.5468-5.2606,5.2189-5.2606c1.7118,0,3.8828,0.8768,3.8828,2.338
					c0,0.835-0.7515,1.503-1.503,1.503c-0.2923,0-0.501-0.0417-0.7098-0.167c-0.167-0.0835-0.334-0.2088-0.5428-0.334
					c-0.334-0.2088-0.6263-0.2923-1.0438-0.2923c-1.0438,0-2.2545,0.8768-2.2545,2.2545c0,1.2943,1.169,2.171,2.171,2.171
					c0.5845,0,1.2943-0.2923,1.5865-0.668h-0.5428c-1.2525,0-1.7535-0.3758-1.7535-1.2108c0-0.7933,0.5428-1.169,1.6283-1.169
					L58.4767,53.7778L58.4767,53.7778L58.4767,53.7778z"/>
				<path d="M37.977,51.1475c0-0.9603,0.8768-1.6283,1.7535-1.6283h2.171c1.7953,0,3.1731,1.3778,3.1731,2.9226
					c0,0.668-0.1253,1.336-0.4175,1.7118c0.5845,0.4593,1.169,1.5448,1.169,2.4216c0,1.336-1.336,2.9643-3.1313,2.9643h-3.1313
					c-0.7515,0-1.5865-0.5428-1.5865-1.5448V51.1475L37.977,51.1475L37.977,51.1475z M41.0248,53.4855h0.6263
					c0.501,0,0.668-0.2923,0.668-0.501c0-0.2088-0.1253-0.501-0.668-0.501h-0.668v1.002H41.0248z M40.9831,56.6168h1.0438
					c0.4175,0,0.5845-0.2923,0.5845-0.5428c0-0.2088-0.167-0.5845-0.6263-0.5845h-1.002V56.6168z"/>
			</g>
		</g>
	</g>
</g>
<g id="Layer_18">
</g>
</svg>
