<?xml version="1.0" encoding="utf-8"?>
<!-- Generator: Adobe Illustrator 26.2.1, SVG Export Plug-In . SVG Version: 6.00 Build 0)  -->
<svg version="1.1" id="Ebene_1" xmlns="http://www.w3.org/2000/svg" xmlns:xlink="http://www.w3.org/1999/xlink" x="0px" y="0px"
	 viewBox="0 0 118 118" style="enable-background:new 0 0 118 118;" xml:space="preserve">
<style type="text/css">
	.st0{fill:#E40E1A;}
	.st1{fill:#FFFFFF;}
</style>
<g>
	<circle class="st0" cx="59" cy="59" r="59"/>
	<path class="st1" d="M72.1,50.2c2.4,0,3.5-2.6,3.8-4.9c0.6-8.4-0.6-12.8-3.7-13.1c-4.7,0-4.7,6.3-4.7,8.4
		C67.4,47,69,50.2,72.1,50.2z M70,38.6c0-1.3,0.8-4,1.6-4c1,0,1.8,3.9,1.8,7v0.1c0,4.8-0.9,6.1-1.4,6.1c-1.7,0-2-4-2-7.3
		C70,39.9,70,39.3,70,38.6z"/>
	<path class="st1" d="M73.7,61.3c0,0,0,0.5,0,0.5c0,1,0.6,1.5,1.8,1.5c0.6,0,1.1-0.4,1.3-1.1c1.6-4.9,3.1-10.1,4.4-15.1
		c0.7-2.4,1.3-4.7,2-7c0.2-0.7,0.4-1.3,0.6-2c0.5-1.5,1.1-3,1.1-4.6c0-1.2-0.7-2-1.9-2c-0.2,0-0.6,0-0.6,0l-0.2,0L82,31.8
		c-0.2,0.2-0.3,0.5-0.4,1.2c0,0.1,0,0.2,0,0.2C79.4,42.4,76.8,51.3,73.7,61.3L73.7,61.3z"/>
	<path class="st1" d="M87.4,45c-4.7,0-4.7,6.3-4.7,8.4c0,6.4,1.6,9.7,4.6,9.7c2.4,0,3.5-2.6,3.8-4.9C91.8,49.8,90.6,45.4,87.4,45z
		 M88.8,54.5c0,4.8-0.9,6.1-1.4,6.1c-1.7,0-2-4-2-7.3c0-0.6,0-1.2,0-1.9c0-1.3,0.8-4,1.6-4C87.9,47.5,88.8,51.4,88.8,54.5L88.8,54.5
		L88.8,54.5z"/>
	<path class="st1" d="M72.6,70.6c-6,0-3.5,12.7-3.2,14.1c0.6,2.2,1.7,3.4,3.7,3.4c0.1,0,0.2,0,0.3,0C78.7,87.6,78,70.6,72.6,70.6z
		 M75.4,82.7c-0.2,1.1-0.7,3.9-2.4,4.1c-0.1,0-0.2,0-0.3,0c-1.2-0.1-2-2.4-2.2-3.2c-0.5-1.8-1.7-11.4,1.9-11.7h0.2
		C76.1,71.9,75.8,80.8,75.4,82.7z"/>
	<path class="st1" d="M80.9,69.9c-0.7,0-2.4,0-2.4,0.6c0,2.8,0.3,6.5,0.5,9.6c0,1.3,0.1,5.3,0.1,6.6c0.1,0.2,0.5,0.3,0.7,0.3
		c0.3,0,0.6-0.3,0.6-0.6c0-3.5,0-4.5-0.1-7.9l-0.1-1.4c0.6-0.1,2.7,0.2,2.7-0.5c0-0.3-0.3-0.8-0.6-0.8l-2.2,0l-0.3-4.7
		c3.3,0,3.3-0.3,3.3-0.4C83,69.6,81.8,69.9,80.9,69.9z"/>
	<path class="st1" d="M87.9,69.9c-0.7,0-2.4,0-2.4,0.6c0,2.8,0.3,6.5,0.5,9.6c0,1.3,0.1,5.3,0.1,6.6c0.1,0.2,0.5,0.3,0.7,0.3
		c0.3,0,0.6-0.3,0.6-0.6c0-3.5,0-4.5-0.1-7.9l-0.1-1.4c0.6-0.1,2.7,0.2,2.7-0.5c0-0.3-0.3-0.8-0.6-0.8l-2.2,0l-0.3-4.7
		c3.3,0,3.3-0.3,3.3-0.4C90,69.6,88.8,69.9,87.9,69.9z"/>
	<g>
		<path class="st1" d="M28.9,30.2c-0.8,0-1.9,0-2.3,1.4l0,0l0,39.1c-0.1,1.4-0.5,14.1-0.5,15.8c0,0.1-0.1,0.7-0.1,0.8
			c0,0.9,0.7,3,2.1,3c0.7,0,2-0.3,2.6-1.2l0.1-0.1l1-37.2l0-19.4C31.4,31.1,30.3,30.2,28.9,30.2z"/>
		<path class="st1" d="M60.4,55.9c0-1.3-0.1-2.4-0.1-3.3c-0.8-5.4-3.4-10.8-16.1-9.5L44,35.8c0,0,0-0.1,0-0.2c0-0.4,0-0.6,0.1-0.6
			h10.4c1.8,0,1.9-0.5,1.9-1.8c0-1.2-0.9-2.9-2.5-2.9H40.2c-0.9,0-1.9,0.4-1.9,2.5c0,2.1,0.1,4.2,0.3,6.2c0.1,2,0.3,4.1,0.3,6.2v1.3
			l0,0.1c0.4,1.3,1.7,1.3,2.8,1.2c1.2,0,2.4,0,3.6-0.1c5.8-0.2,9.9-0.4,10.4,8.1c0.8,13.4-0.7,23.5-4,27c-0.8,0.9-1.8,1.3-2.8,1.3
			c-1,0-1.5-0.8-2.1-1.8c-0.7-1.1-1.4-2.2-3-2.2c-1,0-1.4,0.4-1.9,2.3l0,0.1c0,3.6,3.4,6.8,7.1,6.8c2.5,0,4.6-0.9,6.3-2.6
			C61.3,80.4,60.7,63.9,60.4,55.9z"/>
	</g>
</g>
</svg>
