<?xml version="1.0" encoding="utf-8"?>
<!-- Generator: Adobe Illustrator 24.0.1, SVG Export Plug-In . SVG Version: 6.00 Build 0)  -->
<svg version="1.1" id="Ebene_4" xmlns="http://www.w3.org/2000/svg" xmlns:xlink="http://www.w3.org/1999/xlink" x="0px" y="0px"
	 viewBox="0 0 172.9909 172.9909" enable-background="new 0 0 172.9909 172.9909" xml:space="preserve">
<g>
	<ellipse fill="#FFFFFF" cx="86.4955" cy="86.4955" rx="86.4955" ry="86.4955"/>
	<g>
		<path fill="#1D1D1B" d="M49.0972,80.4226l0.0713,0.166c0.2524,0.3809,0.7759,0.6563,1.2446,0.6563
			c0.6436,0,1.208-0.4697,1.5107-1.2568l0.0303-0.124c0.8262-7.4375,2.1753-14.8154,3.48-21.9497l0.6826-3.7471
			c0.0396-0.1279,0.0518-0.3066,0.0518-0.6714c0-0.8589-0.5337-1.436-1.3281-1.436c-1.8462,0-2.0371,2.0425-2.1631,3.394
			c-0.0278,0.2959-0.0527,0.5718-0.0938,0.8047l-0.2207,1.3433c-0.5327,3.249-1.6274,9.9272-2.332,14.0454
			c-0.0908-0.5244-0.1909-1.0518-0.3174-1.5576l-1.5107-6.7979c-0.1372-0.6523-0.623-1.0244-1.2563-1.0195
			c-0.9556,0.0205-2.1099,0.9067-2.2451,1.7217c-0.1592,0.9272-0.9282,4.4072-1.5288,6.9189
			c-0.124-0.9287-0.2407-1.8564-0.3555-2.7676c-0.2764-2.1953-0.5625-4.4653-0.9458-6.7046
			c-0.2095-1.2583-1.1821-7.3804-1.3608-8.5928c0-0.3774-0.1787-1.2559-1.832-1.2559c-1.2915,0-1.2915,1.2163-1.2915,1.6157v0.3242
			l0.0122,0.1094c1.1113,5.5938,2.2603,11.3774,2.7979,17.0713l0.9355,9.3975l0.0503,0.1738
			c0.3682,0.7363,0.7583,0.9971,1.4912,0.9971c1.522,0,1.6401-1.207,1.7183-2.0059c0.0186-0.1885,0.0366-0.3799,0.0669-0.5518
			l2.0483-9.7734L49.0972,80.4226z"/>
		<path fill="#1D1D1B" d="M59.274,68.7586v7.127l0.0366,1.7803c0.0054,0.1621,0.0615,0.3984,0.2974,0.6084
			c0.3032,0.2705,0.9839,0.5791,3.2329,0.5791c0.8833,0,2.0088-0.0479,3.4482-0.1641l0.2563-0.0059
			c0.6626-0.1025,1.1074-0.6777,1.1074-1.4307c0-0.335-0.1284-0.6338-0.3716-0.8643c-0.7095-0.6719-2.2139-0.6455-4.1074-0.54
			c-0.3315,0.0186-0.6909,0.0381-0.96,0.041l-0.064-7.459h4.0674c1.041,0,1.4199-0.6572,1.4282-1.2197
			c0.0122-0.8555-0.7754-1.874-1.8242-1.9043c-0.1387,0-0.3989,0.0054-0.7256,0.0122c-0.6655,0.0137-2.2363,0.0488-2.9746,0.0063
			c-0.0698-1.186-0.1509-2.2734-0.23-3.3242c-0.1597-2.1348-0.311-4.1548-0.3203-6.5649h3.6743l0.1978-0.0405
			c0.5127-0.2207,0.7344-1.0068,0.7344-1.3594c0-0.1372,0-0.5552-0.356-0.8833c-0.5625-0.5186-1.7788-0.7256-6.5918-0.3354
			l-0.4595,0.0376v2.2969c0,2.5884,0.1284,4.7461,0.2529,6.833C59.1466,64.0569,59.274,66.1995,59.274,68.7586z"/>
		<path fill="#1D1D1B" d="M74.4903,80.0369c0.5425-0.1543,1.1646-0.2246,1.8228-0.2979c0.7856-0.0889,1.5981-0.1797,2.3101-0.4307
			c0.9438-0.333,1.0532-1.0244,1.0532-1.5156c0-0.4209-0.168-1.3994-1.7236-1.3994c-1.186,0-2.6318,0.3076-3.8726,0.6221
			c-0.46-5.5039-0.5908-11.1152-0.7173-16.5483c-0.0576-2.4683-0.1152-4.9316-0.2021-7.3848l-0.0166-0.1113
			c-0.1748-0.6558-0.7642-1.6309-1.6709-1.6309c-0.5356,0-0.9199,0.2725-1.1748,0.833l-0.0449,0.0986l0.0005,4.7061l0.4678,8.8896
			c0.085,1.6665,0.1089,3.437,0.1323,5.1499c0.0366,2.6787,0.0742,5.4482,0.3413,8.1104c0.106,0.6924,0.9185,1.3975,1.6099,1.3975
			c0.4595,0,0.8501-0.165,1.1948-0.3105C74.1612,80.1463,74.315,80.0789,74.4903,80.0369z"/>
		<path fill="#1D1D1B" d="M92.2359,76.9822c0.106-0.2471,0.1953-0.4063,0.2676-0.5361c0.1753-0.3125,0.2837-0.5293,0.313-1.0645
			c0-0.7607-0.561-1.292-1.3643-1.292h-0.1079c-1.3086,0-1.7056,1.0244-2.0244,1.8467c-0.3716,0.959-0.6299,1.501-1.6108,1.501
			h-0.1582c-4.3945-0.1904-4.5801-7.3867-4.5317-9.5869c0.1357-6.2437,2.3843-12.3711,4.5732-12.3711c0.0015,0,0.0029,0,0.0044,0
			l0.1172,0.0239c0.4902,0.0664,0.7759,0.3735,1.1069,0.7295c0.3755,0.4038,0.8433,0.9063,1.6597,0.9307
			c0.5376,0,1.1118-0.3394,1.1118-1.292c0-2.0098-1.8296-3.0005-3.6675-3.0913h-0.252c-5.5273,0-7.3115,7.8716-7.4805,12.0044
			c-0.2104,2.103-0.6489,9.2505,2.5391,12.9429c1.1958,1.3848,2.7661,2.1328,4.6895,2.2217h0.3237
			C89.8297,79.949,91.2965,78.9832,92.2359,76.9822z"/>
		<path fill="#1D1D1B" d="M106.3428,65.7425c-0.2769-6.4336-2.5986-13.3584-7.0415-13.3584c-1.7588,0-3.1904,0.6689-4.2539,1.9878
			c-4.1016,5.0859-1.3818,18.3271-1.0532,19.8398c0.9629,3.6914,2.9341,5.4854,6.0269,5.4854c0.0928,0,0.1855-0.0107,0.2783-0.0215
			c0.0513-0.0068,0.1025-0.0146,0.1968-0.0166C104.9088,79.2781,106.6202,72.1785,106.3428,65.7425z M102.9439,71.0349
			c-0.2881,1.5049-1.0542,5.5029-3.0308,5.6826c-0.0464,0-0.0972,0.0039-0.1523,0.0088c-0.0728,0.0059-0.1284,0.0107-0.2295-0.0059
			c-1.3716-0.1377-2.5054-3.0303-2.8398-4.4092l-0.002-0.0078c-0.5-1.9219-1.937-12.1636,0.6089-15.792
			c0.4951-0.7056,1.0947-1.0815,1.7871-1.1479h0.2876c0.7153,0,1.3208,0.3145,1.8516,0.9619
			C103.6832,59.324,103.4698,68.4031,102.9439,71.0349z"/>
		<path fill="#1D1D1B" d="M110.4976,79.9851c0.5884,0,1.1367-0.4814,1.248-1.0957l0.0083-0.1182
			c0.0649-5.9346,0.1318-12.0532,0.7456-18.0112c0.5186,1.1211,1.418,3.1157,2.9761,6.6528
			c0.3247,0.7363,0.8193,0.8496,1.085,0.8525c0.0029,0,0.0059,0,0.0088,0c0.7471,0,1.3633-0.8115,1.5474-1.21
			c0.3384-0.7515,1.7969-3.6602,2.1206-4.2056c0.4546-0.9736,0.9556-1.9336,1.4683-2.877c-0.0674,2.9541-0.0454,5.9229-0.0239,8.812
			c0.021,2.8438,0.0425,5.7852-0.0215,8.6758l-0.0391,2.3096l0.1191,0.1426c0.0586,0.0703,0.5884,0.6836,1.2119,0.6836
			c0.8291,0,1.377-0.6045,1.6133-1.1709l0.0742-1.9092c0.0811-3.6025,0.0967-7.2695,0.1118-10.8169
			c0.0186-4.3271,0.0376-8.8013,0.1758-13.188l0.0083-0.2559l-0.2031-0.1563c-0.5308-0.4082-0.8721-0.5977-1.5283-0.6436
			c-0.7021,0-1.1763,0.2939-1.5132,0.9746c-0.8164,2.2119-1.6382,3.8296-3.0508,6.3877l-0.1924,0.3101
			c-0.7148,1.2856-1.4561,2.5542-1.8862,3.2422c-1.5864-2.6055-2.4585-6.2598-3.0503-8.7397l-0.2236-0.9277
			c-0.2168-0.9028-0.9165-1.2285-1.2529-1.3848c-0.0547-0.0254-0.1025-0.0439-0.1035-0.0396
			c-0.1826-0.1826-0.4194-0.1826-0.4976-0.1826c-0.6685,0-1.7876,0-2.0479,10.4585l-0.3994,16.5537l0.0693,0.1211
			C109.3248,79.7,110.189,79.9851,110.4976,79.9851z"/>
		<path fill="#1D1D1B" d="M136.0406,76.3885c-0.71-0.6729-2.2148-0.6465-4.1064-0.54c-0.332,0.0186-0.6914,0.0381-0.9609,0.041
			l-0.0645-7.459h4.0684c1.041,0,1.4199-0.6563,1.4277-1.2188c0.0127-0.8564-0.7754-1.875-1.8242-1.9053
			c-0.1387,0-0.3984,0.0054-0.7256,0.0122c-0.665,0.0137-2.2373,0.0483-2.9746,0.0063c-0.0693-1.1851-0.1504-2.2715-0.2295-3.3218
			c-0.1602-2.1353-0.3115-4.1563-0.3203-6.5674h3.6738l0.1973-0.0405c0.5137-0.2207,0.7354-1.0068,0.7354-1.3594
			c0-0.1372,0-0.5552-0.3564-0.8833c-0.5625-0.5186-1.7783-0.7256-6.5913-0.3354l-0.4595,0.0376v2.2969
			c0,2.5884,0.1284,4.7461,0.2529,6.833c0.1235,2.0723,0.251,4.2148,0.251,6.7739v7.127l0.0366,1.7803
			c0.0054,0.1621,0.0615,0.3984,0.2974,0.6084c0.3032,0.2705,0.9844,0.5791,3.2324,0.5791c0.8838,0,2.0088-0.0479,3.4482-0.1641
			l0.2568-0.0059c0.6621-0.1025,1.1074-0.6777,1.1074-1.4307C136.4127,76.9177,136.2838,76.6189,136.0406,76.3885z"/>
		<path fill="#1D1D1B" d="M56.8927,117.2898h-0.1079c-1.3086,0-1.7056,1.0244-2.0244,1.8467
			c-0.3716,0.959-0.6299,1.501-1.6108,1.501h-0.1582c-4.3945-0.1904-4.5801-7.3867-4.5317-9.5869
			c0.1357-6.2441,2.3843-12.3711,4.5732-12.3711c0.0015,0,0.0029,0,0.0044,0l0.1167,0.0234
			c0.4902,0.0664,0.7764,0.374,1.1074,0.7305c0.3755,0.4033,0.8428,0.9063,1.6597,0.9307c0.5376,0,1.1118-0.3398,1.1118-1.292
			c0-2.0088-1.8296-3-3.6675-3.0918h-0.252c-5.5273,0-7.3115,7.8721-7.4805,12.0049c-0.2104,2.1025-0.6489,9.25,2.5391,12.9424
			c1.1958,1.3848,2.7661,2.1328,4.6895,2.2217h0.3237c2.085,0,3.5518-0.9658,4.4912-2.9668
			c0.106-0.2471,0.1953-0.4063,0.2676-0.5361c0.1753-0.3125,0.2837-0.5293,0.313-1.0645
			C58.2569,117.8211,57.6959,117.2898,56.8927,117.2898z"/>
		<path fill="#1D1D1B" d="M64.7413,95.5847c-1.7588,0-3.1904,0.6689-4.2539,1.9883c-4.1016,5.085-1.3818,18.3262-1.0532,19.8389
			c0.9629,3.6914,2.9341,5.4854,6.0269,5.4854c0.0928,0,0.1855-0.0107,0.2783-0.0215c0.0513-0.0068,0.1025-0.0146,0.1968-0.0166
			c4.4126-0.3809,6.124-7.4805,5.8467-13.916C71.5059,102.5095,69.1842,95.5847,64.7413,95.5847z M68.3839,114.2351
			c-0.2881,1.5049-1.0542,5.5029-3.0308,5.6826c-0.0464,0-0.0972,0.0039-0.1523,0.0088c-0.0728,0.0059-0.1284,0.0117-0.2295-0.0059
			c-1.3716-0.1377-2.5054-3.0303-2.8398-4.4092l-0.002-0.0078c-0.5-1.9219-1.9355-12.165,0.6094-15.792
			c0.4951-0.7051,1.0942-1.0811,1.7866-1.1475h0.2876c0.7153,0,1.3208,0.3145,1.8516,0.9619
			C69.1226,102.5242,68.9097,111.6033,68.3839,114.2351z"/>
		<path fill="#1D1D1B" d="M85.4049,95.116c-0.813,0-1.688,0.3818-1.688,1.2207v0.791c0,5.9648-0.7231,12.4092-2.1475,19.1475
			c-0.3188,1.4131-1.479,4.1816-2.7158,4.1816c-0.4233,0-0.7749-0.1553-1.0757-0.4746c-1.6294-1.7324-1.2842-7.3691-1.1187-10.0781
			c0.0313-0.5088,0.0571-0.9346,0.0664-1.248c0.0356-1.7861,0.1636-3.5908,0.2866-5.3369c0.1245-1.7588,0.2529-3.5771,0.2896-5.3994
			l0.001-0.2363c0.0283-0.7285,0.0674-1.7266-0.5103-2.3271c-0.2915-0.3027-0.688-0.4561-1.1787-0.4561
			c-0.499,0-0.9751,0.2998-1.2544,0.5801l-0.125,0.125l-0.0181,0.1768c-0.313,3.0742-0.3809,6.1904-0.4468,9.2041
			c-0.0181,0.832-0.0361,1.6631-0.0596,2.498c-0.0356,1.7021-0.0718,6.3535-0.0718,6.5977v0.6484c0,2.1084,0,8.5264,5.4312,8.5264
			c4.436,0,5.5381-6.3906,5.9541-8.8848c0.0454-0.1123,0.0649-0.2119,0.0728-0.2822l0.1167-0.6045
			c0.9424-5.3398,1.3892-10.3447,1.7705-16.2158l0.0371-0.5732C87.0206,95.8543,86.2657,95.116,85.4049,95.116z"/>
		<path fill="#1D1D1B" d="M92.066,94.3963c-0.5879,0-1.6416,0.3193-2.0918,0.9199l-0.0972,0.1289l-0.0029,0.1621
			c-0.0562,3.3027-0.1558,15.8115-0.2153,23.2852l-0.0366,4.6924c0,0.8291,0.5776,1.3643,1.4717,1.3643
			c0.9307,0,1.2368-0.4219,1.4517-1.1504l0.0581-1.4482c0.0591-2.0918,0.1577-5.5947,0.2109-6.4834l0.2236-1.9492
			c4.5698-2.7334,6.439-5.8828,6.439-10.8145C99.4771,98.7693,97.1856,94.3963,92.066,94.3963z M96.0294,103.5349
			c0,2.6924-0.4761,4.8623-2.8198,6.7188c-0.0767,0.0625-0.2305,0.1582-0.3916,0.2461v-0.8389l0.2476-12.0684
			c0.0029,0,0.0054,0,0.0083,0C95.0347,97.5926,96.0294,99.5916,96.0294,103.5349z"/>
		<path fill="#1D1D1B" d="M106.9332,95.5847c-1.7588,0-3.1904,0.6689-4.2539,1.9883c-4.1016,5.085-1.3818,18.3262-1.0532,19.8389
			c0.9629,3.6914,2.9341,5.4854,6.0269,5.4854c0.0928,0,0.1855-0.0107,0.2783-0.0215c0.0513-0.0068,0.1025-0.0146,0.1968-0.0166
			c4.4126-0.3809,6.124-7.4805,5.8467-13.916C113.6978,102.5095,111.376,95.5847,106.9332,95.5847z M110.5758,114.2351
			c-0.2881,1.5049-1.0542,5.5029-3.0308,5.6826c-0.0464,0-0.0972,0.0039-0.1523,0.0088c-0.0728,0.0059-0.1274,0.0117-0.2295-0.0059
			c-1.3716-0.1377-2.5054-3.0303-2.8398-4.4092l-0.002-0.0078c-0.5-1.9219-1.9365-12.1631,0.6089-15.791
			c0.4951-0.7061,1.0947-1.082,1.7871-1.1484h0.2876c0.7153,0,1.3208,0.3145,1.8516,0.9619
			C111.3145,102.5242,111.1016,111.6033,110.5758,114.2351z"/>
		<path fill="#1D1D1B" d="M126.8043,97.1326c-0.7476,0-1.6465,0.4023-1.8545,1.2852l-0.0137,0.0586l0.0005,0.0596
			c0.0376,4.7764-0.0151,8.6084-0.3945,12.9551l-0.2021,2.8281c-1.1982-3.2012-2.1646-6.3857-3.1045-9.4844
			c-0.7344-2.4219-1.4941-4.9258-2.3457-7.3672l-0.0654-0.125c-0.2627-0.3682-0.9688-1.2363-1.8018-1.1621
			c-0.3223,0.0215-0.7813,0.1875-1.1353,0.8584l-0.0532,0.1016l-0.9038,26.0293c0.0278,0.833,0.5732,1.5625,1.2695,1.6982
			c0.0601,0.0117,0.1372,0.0205,0.2261,0.0205c0.4097,0,1.0767-0.2041,1.585-1.3535l0.2573-17.6973
			c0.938,2.8037,1.9243,5.5898,2.8862,8.3076c1.0308,2.9131,2.0967,5.9248,3.1279,9.0039c0.2129,0.3721,0.897,0.9355,1.4424,0.9355
			c0.6021,0,1.2114-0.708,1.3276-0.9971l0.0718-0.6387c0.2441-8.0264,0.5366-16.5146,1.186-24.3066l0.0137-0.1611l-0.083-0.1377
			C127.9586,97.3718,127.4752,97.1326,126.8043,97.1326z"/>
	</g>
</g>
</svg>
