<?xml version="1.0" encoding="utf-8"?>
<!-- Generator: Adobe Illustrator 24.0.1, SVG Export Plug-In . SVG Version: 6.00 Build 0)  -->
<svg version="1.1" xmlns="http://www.w3.org/2000/svg" xmlns:xlink="http://www.w3.org/1999/xlink" x="0px" y="0px"
	 viewBox="0 0 80 80" enable-background="new 0 0 80 80" xml:space="preserve">
<g id="Layer_19">
</g>
<g id="Layer_1">
</g>
<g id="Layer_2">
</g>
<g id="Layer_3">
</g>
<g id="Layer_4">
</g>
<g id="Layer_5">
</g>
<g id="Layer_6">
</g>
<g id="Layer_9">
</g>
<g id="Layer_10">
</g>
<g id="Layer_11">
</g>
<g id="Layer_12">
</g>
<g id="Layer_13">
</g>
<g id="Layer_14">
</g>
<g id="Layer_15">
</g>
<g id="Layer_17">
	<rect y="0" fill="none" width="80" height="80"/>
	<g>
		<path fill="#DE3C76" d="M75.3473,39.9984c0,10.0494-15.8258,18.1947-35.3481,18.1947c-19.521,0-35.3464-8.1448-35.3464-18.1947
			c0-10.0465,15.8254-18.1914,35.3464-18.1914C59.5215,21.807,75.3473,29.9518,75.3473,39.9984z"/>
		<path fill="#FFFFFF" d="M73.9301,39.9257c0,9.3074-15.2047,16.8509-33.9639,16.8509c-18.7551,0-33.9594-7.544-33.9594-16.8509
			c0-9.3041,15.2043-16.8464,33.9594-16.8464C58.7254,23.0793,73.9301,30.622,73.9301,39.9257z"/>
		<path fill="#DE3C76" d="M16.7573,28.4955c-6.2787,3.0329-9.7345,7.0966-9.7345,11.4393s3.4559,8.4061,9.7345,11.4398
			c6.1957,2.9941,14.4289,4.644,23.1808,4.644c8.7511,0,16.9846-1.6495,23.1828-4.644c6.2762-3.0337,9.7345-7.0974,9.7345-11.4398
			c0-4.3427-3.4579-8.4065-9.7345-11.4393c-6.1982-2.9936-14.4317-4.6436-23.1828-4.6436
			C31.1862,23.8519,22.953,25.5018,16.7573,28.4955z M7.698,39.9348c0-8.4919,14.4627-15.3966,32.2401-15.3966
			c17.7787,0,32.2414,6.9047,32.2414,15.3966c0,8.4911-14.4631,15.3987-32.2414,15.3987
			C22.1611,55.3335,7.698,48.4259,7.698,39.9348z"/>
		<path fill="#DE3C76" d="M27.3709,37.4587c-2.8079,0-4.9902,1.8744-4.9902,4.7463c0,2.7786,2.1773,4.5858,4.8363,4.5858
			c2.6569,0,5.0125-1.8072,5.0125-4.7595C32.2295,39.3607,30.1305,37.4587,27.3709,37.4587z M27.2755,46.1144
			c-1.8674,0-3.0448-1.7036-3.0448-4.0654c0-2.1712,1.0016-3.9205,3.0758-3.923c1.9566-0.0008,3.0279,1.6784,3.0279,3.8619
			C30.3344,44.3885,28.9275,46.1144,27.2755,46.1144z"/>
		<path fill="#DE3C76" d="M35.9016,46.4371c-0.3603-0.0796-0.4738-0.2922-0.4738-0.9805c0-0.6867,0-1.4469,0-2.1563
			c0-0.898,0-1.7989,0-2.6656c0-1.0614,0.6149-1.5323,1.9087-1.7246c0.9162-0.1403,1.2302-0.8002,1.2909-1.5216
			c-0.2204-0.0128-0.4201-0.0297-0.6929-0.0297c-1.0924,0-2.2525,0.7305-2.6412,1.7416c-0.0941-1.1514-1.0932-1.5695-1.9809-1.5583
			c-0.0021,0.0054-0.0363,0.0978-0.0363,0.0978c0.3619,0.1808,0.4354,0.8047,0.4354,1.6446c0,0.2129,0-0.2369,0-0.2369
			c0,1.6615,0,3.1633,0,4.2532c0,1.1027,0,1.7816,0,1.7816c0,1.0866,0.4362,1.4118,1.0226,1.527
			c0.3207,0.0611,0.8939,0.0194,1.1799-0.0908C35.9131,46.4887,35.9053,46.4656,35.9016,46.4371z"/>
		<path fill="#DE3C76" d="M11.5764,40.255c0,4.1058,2.8546,6.4974,6.3955,6.4974c1.8088,0,3.3762-0.8336,4.1785-1.7907
			c-0.3112-0.5266-0.9467-0.6818-1.4448-0.1791c-0.4354,0.4441-1.3606,1.0602-2.4382,1.0602c-2.6185,0-4.5771-1.9401-4.5771-5.8569
			c0-3.7452,2.1237-5.5944,4.4566-5.5944c1.9392,0,2.3523,0.9884,3.1872,0.9884c0.4911,0,0.773-0.2468,0.8893-0.5666
			c-0.8728-0.5278-2.3734-1.1659-4.0312-1.1659C14.4417,33.6475,11.5764,36.5656,11.5764,40.255z"/>
		<path fill="#DE3C76" d="M65.8245,45.4888c-0.591,0.2596-1.1836,0.4358-1.9838,0.4358c-1.9289,0-3.1608-1.5344-3.2408-3.4361
			c0.9228,0,2.0424,0.0124,2.9573-0.047c2.0882-0.13,3.6391-0.7478,3.7154-2.5331c0.0805-1.8641-1.9702-2.5455-3.5434-2.5079
			c-2.8509,0.0714-4.9911,2.0577-4.9911,4.8309c0,2.6651,2.0544,4.5066,5.0125,4.5066c1.1683,0,2.4543-0.2794,3.4967-0.7556
			C67.0555,45.379,66.4369,45.2135,65.8245,45.4888z M63.5518,38.0707c1.2913-0.0272,2.0341,0.6941,1.9363,1.8777
			c-0.1527,1.9929-2.7077,1.7729-4.8858,1.7907C60.6019,40.0586,61.6872,38.107,63.5518,38.0707z"/>
		<path fill="#DE3C76" d="M52.4207,33.5942c0-1.1027-1.1101-1.6041-2.132-1.6041c-0.0025,0.0033-0.0367,0.0986-0.0367,0.0986
			c0.3747,0.3013,0.456,0.9372,0.456,1.567c0,0.2125,0,0,0,0c0,0.7263-0.0016,11.4261-0.0016,11.4261
			c0,1.0916,0.4692,1.4135,1.0528,1.5286c0.3223,0.0607,0.8836,0.0161,1.1514-0.0966c-0.0021-0.0301-0.0066-0.0528-0.0087-0.0768
			c-0.402-0.0797-0.4866-0.3471-0.4866-1.08C52.4149,44.6749,52.4207,33.5942,52.4207,33.5942z"/>
		<path fill="#DE3C76" d="M56.7961,33.5942c0-1.1027-1.1122-1.6041-2.1336-1.6041c0,0.0033-0.0351,0.0986-0.0351,0.0986
			c0.3776,0.3013,0.4568,0.9372,0.4568,1.567c0,0.2125,0,0,0,0c0,0.7263-0.0017,11.4261-0.0017,11.4261
			c0,1.0916,0.4663,1.4135,1.0528,1.5286c0.3215,0.0607,0.8836,0.0161,1.1539-0.0966c-0.005-0.0301-0.0087-0.0528-0.0136-0.0768
			c-0.4011-0.0797-0.4837-0.3471-0.4837-1.08C56.7923,44.6749,56.7961,33.5942,56.7961,33.5942z"/>
		<path fill="#DE3C76" d="M49.3004,40.9112c-0.0223-1.867-1.0491-2.3655-2.0321-2.6978c-1.4267-0.487-2.6676,0.6566-2.6676,0.6566
			s-1.4597-2.0742-3.7419-1.224c-0.6504,0.2435-2.2463,1.073-2.1167,4.1628c0.1296,3.0906,3.8504,5.6992,3.8504,5.6992
			s0.7589-0.7804,1.6091-1.1819c0.7998-0.3764,1.9623-0.7726,2.7733-1.3346C48.5526,43.8929,49.321,42.7774,49.3004,40.9112z
			 M45.9729,44.2928c-0.5357,0.4387-1.3586,0.8357-1.8711,1.0924c-0.697,0.3524-1.4069,0.9661-1.4069,0.9661
			s-2.4386-2.0474-2.5422-4.9675c-0.0743-2.082,1.1502-2.5401,1.6054-2.6742c1.6916-0.4956,2.6911,0.9339,2.6911,0.9339
			s0.7973-0.74,1.7671-0.4123c0.6677,0.2249,1.5096,0.6541,1.5228,1.9124C47.7544,42.4019,47.2836,43.2227,45.9729,44.2928z"/>
		<path fill="#DE3C76" d="M41.6062,50.8211c0.6289-0.307,7.1338,1.1951,7.8947-4.3415c-0.7787,1.0371-3.6593,0.6442-5.7933,1.7576
			C41.4031,49.4419,41.6062,50.8211,41.6062,50.8211z"/>
		<g>
			<path fill="#DE3C76" d="M67.8565,36.9123v-1.0767h0.4775c0.0957,0,0.1692,0.0095,0.2187,0.0289
				c0.0499,0.0194,0.09,0.0536,0.1197,0.1028c0.0301,0.0487,0.045,0.1032,0.045,0.1622c0,0.0763-0.0248,0.1403-0.0743,0.1931
				c-0.0495,0.0524-0.1263,0.0858-0.2295,0.1003c0.038,0.0182,0.0664,0.0359,0.0863,0.0537
				c0.0417,0.0384,0.0809,0.0863,0.118,0.1432l0.1874,0.293h-0.1791l-0.1424-0.2241c-0.0417-0.0644-0.0759-0.1139-0.1032-0.1486
				c-0.0268-0.0343-0.0512-0.0582-0.0722-0.0722c-0.0215-0.0136-0.0433-0.0231-0.0648-0.0285
				c-0.0165-0.0033-0.0429-0.0054-0.0797-0.0054h-0.1655v0.4783H67.8565z M67.9985,36.311h0.3062
				c0.0652,0,0.116-0.0066,0.1531-0.0202c0.0367-0.0132,0.0644-0.0351,0.0834-0.0648c0.019-0.0293,0.0289-0.0615,0.0289-0.0966
				c0-0.0512-0.0182-0.0924-0.0553-0.1255s-0.0957-0.0495-0.1754-0.0495h-0.3409V36.311z"/>
		</g>
		<path fill="#DE3C76" d="M68.287,35.5335c0.4742,0,0.8576,0.3842,0.8576,0.858c0,0.4738-0.3838,0.8576-0.8576,0.8576
			c-0.4742,0-0.858-0.3838-0.858-0.8576C67.429,35.9173,67.8128,35.5335,68.287,35.5335 M68.287,35.4088
			c-0.5415,0-0.9826,0.4408-0.9826,0.9826c0,0.5419,0.4408,0.9822,0.9826,0.9822c0.5414,0,0.9822-0.4403,0.9822-0.9822
			C69.2692,35.8496,68.8284,35.4088,68.287,35.4088L68.287,35.4088z"/>
	</g>
</g>
<g id="Layer_7">
</g>
<g id="Layer_8">
</g>
<g id="Layer_18">
</g>
</svg>
