<?xml version="1.0" encoding="utf-8"?>
<svg xmlns="http://www.w3.org/2000/svg" viewBox="0 0 80 80">
  <title>dickietoys_logo_pos_rgb_R01</title>
  <rect width="80" height="80" style="fill: none"/>
  <g>
    <path d="M40.0086,62.6a22.7049,22.7049,0,0,1-20.1149-12.296l-3.4275-.7926a3.5,3.5,0,0,1-2.592-2.5063L9.74,31.5385a2.79,2.79,0,0,1,.3856-2.2921,2.85,2.85,0,0,1,1.9922-1.2l9.34-.9854a22.6207,22.6207,0,0,1,37.0808,0l9.34.9854a2.7821,2.7821,0,0,1,2.3778,3.4917L66.1215,47.0049a3.5352,3.5352,0,0,1-2.592,2.5063l-3.4275.7926A22.6476,22.6476,0,0,1,40.0086,62.6Z" transform="translate(0)" style="fill: #fff"/>
    <g>
      <path d="M40.0086,20.9348a18.9193,18.9193,0,0,1,13.4742,5.6125l2.5492.2785a20.7655,20.7655,0,0,0-32.09,0l2.5492-.2785A19.133,19.133,0,0,1,40.0086,20.9348Z" transform="translate(0)" style="fill: #ff2128"/>
      <path d="M67.6853,29.8676,40.33,26.9971a3.2213,3.2213,0,0,0-.6426,0l-27.3554,2.87a.975.975,0,0,0-.8354,1.2l4.1558,15.4664a1.6823,1.6823,0,0,0,1.2425,1.2l4.2843.9854a20.7627,20.7627,0,0,0,37.702,0l4.2843-.9854a1.717,1.717,0,0,0,1.2425-1.2l4.1344-15.4664A.98.98,0,0,0,67.6853,29.8676ZM40.0086,59.0438a19.0541,19.0541,0,0,1-16.666-9.8325L39.58,52.96a1.9282,1.9282,0,0,0,.8569,0l16.2376-3.7488A19.0028,19.0028,0,0,1,40.0086,59.0438Z" transform="translate(0)" style="fill: #ff2128"/>
    </g>
    <g>
      <path d="M18.587,43.3418V31.6456a.3278.3278,0,0,1,.3642-.3642H22.25a4.54,4.54,0,0,1,3.0633.8354c.9854.8569,1.4352,2.4635,1.4352,5.3768,0,2.6563-.3856,4.2415-1.1782,5.1412a4.2177,4.2177,0,0,1-3.32,1.0711H18.93A.332.332,0,0,1,18.587,43.3418ZM21.7788,41.05h.4284a1.03,1.03,0,0,0,.9426-.4927,6.8177,6.8177,0,0,0,.407-3.0633c0-1.5-.0643-2.6349-.4927-3.1918a1.0668,1.0668,0,0,0-.8783-.3856h-.4284a.0785.0785,0,0,0-.0857.0857v6.9406A.1012.1012,0,0,0,21.7788,41.05Z" transform="translate(0)" style="fill: #fff"/>
      <path d="M30.8616,31.2814H28.3338a.3278.3278,0,0,0-.3642.3642v1.5209a.3981.3981,0,0,0,.1928.3213l2.5706,1.2a.3141.3141,0,0,0,.45-.2785V31.6456A.3166.3166,0,0,0,30.8616,31.2814Zm-2.87,4.2843v7.776a.3611.3611,0,0,0,.3642.3642h2.5063a.3278.3278,0,0,0,.3642-.3642V37.0438a.4232.4232,0,0,0-.2571-.3856L28.27,35.3944A.1832.1832,0,0,0,27.9911,35.5657Z" transform="translate(0)" style="fill: #fff"/>
      <path d="M50.12,31.6456v2.742a.3066.3066,0,0,0,.45.2785l2.5706-1.2a.3322.3322,0,0,0,.1928-.3213V31.6242a.3278.3278,0,0,0-.3642-.3642H50.4409A.395.395,0,0,0,50.12,31.6456Zm2.9562,3.7274-2.6991,1.2639a.4232.4232,0,0,0-.2571.3856V43.32a.3278.3278,0,0,0,.3642.3642h2.5277a.3611.3611,0,0,0,.3642-.3642V35.5657A.2223.2223,0,0,0,53.0758,35.3729Z" transform="translate(0)" style="fill: #fff"/>
      <path d="M32.4468,37.4937c0-5.27,1.5852-6.3836,4.4985-6.3836a8.59,8.59,0,0,1,1.9708.2571.305.305,0,0,1,.2785.3856l-.15,2.0351a.3.3,0,0,1-.407.3,6.7232,6.7232,0,0,0-1.0925-.1071c-1.7351,0-1.8637,1.1782-1.8637,3.5131,0,2.3135.1285,3.5131,1.8637,3.5131A7.858,7.858,0,0,0,38.8519,40.9a.3084.3084,0,0,1,.407.3l.15,2.0351c.0214.2356-.0857.3642-.2785.3856a10.176,10.176,0,0,1-2.185.2571C34.032,43.8773,32.4468,42.7634,32.4468,37.4937Z" transform="translate(0)" style="fill: #fff"/>
      <path d="M40.3942,43.3418V31.6456a.3278.3278,0,0,1,.3642-.3642h2.5277a.3278.3278,0,0,1,.3642.3642v4.1129a.0921.0921,0,0,0,.0857.0857h.15a.1821.1821,0,0,0,.1071-.0643A29.5418,29.5418,0,0,0,45.9,31.5171a.3222.3222,0,0,1,.3-.2142H48.62a.3884.3884,0,0,1,.3856.557,47.31,47.31,0,0,1-2.592,5.2269.5056.5056,0,0,0-.0214.4927A58.0662,58.0662,0,0,1,49.07,43.17a.3868.3868,0,0,1-.3856.5355H46.1138a.3025.3025,0,0,1-.3-.2142,36.3889,36.3889,0,0,0-1.8208-4.2629.1178.1178,0,0,0-.1071-.0643h-.1714a.0921.0921,0,0,0-.0857.0857v4.0915a.3278.3278,0,0,1-.3642.3642H40.7369A.332.332,0,0,1,40.3942,43.3418Z" transform="translate(0)" style="fill: #fff"/>
      <path d="M58.1527,40.8569h2.9348a.3278.3278,0,0,1,.3642.3642v2.1207a.3278.3278,0,0,1-.3642.3642H55.1751a.3278.3278,0,0,1-.3642-.3642V31.6456a.3278.3278,0,0,1,.3642-.3642h5.72a.3278.3278,0,0,1,.3642.3642v2.1207a.3278.3278,0,0,1-.3642.3642H58.1313a.0921.0921,0,0,0-.0857.0857v1.6923a.0921.0921,0,0,0,.0857.0857H60.659a.3278.3278,0,0,1,.3642.3642v2.1207a.3278.3278,0,0,1-.3642.3642H58.1313a.0921.0921,0,0,0-.0857.0857V40.814C58.067,40.814,58.0884,40.8569,58.1527,40.8569Z" transform="translate(0)" style="fill: #fff"/>
    </g>
    <g>
      <path d="M31.847,46.0409c0-.5141.15-.6212.6426-.6212H34.439a1.043,1.043,0,0,1,.0214.2571c0,.5141-.1714.6212-.5141.6212h-.3l-.3856,3.1276H32.1683l.3856-3.1276-.6855.0214A1.3176,1.3176,0,0,1,31.847,46.0409Z" transform="translate(0)" style="fill: #fff"/>
      <path d="M39.1517,46.8977c0,1.6923-.6855,2.592-1.9279,2.592-.8569,0-1.2-.6855-1.2-1.6495,0-1.7137.814-2.4849,1.9279-2.4849C38.7019,45.334,39.1517,45.9124,39.1517,46.8977Zm-1.1139.1071c0-.407-.0428-.7283-.3427-.7283a.4918.4918,0,0,0-.3.0857,3.3287,3.3287,0,0,0-.3,1.4567c0,.407.0643.7283.3427.7283a.395.395,0,0,0,.2785-.0857A3.1709,3.1709,0,0,0,38.0378,47.0049Z" transform="translate(0)" style="fill: #fff"/>
      <path d="M41.0154,45.4625a2.5664,2.5664,0,0,1,.7712-.1071c.45,0,.4927.15.4927.6641l.0857,1.2h.0214l.6-1.7994h1.05L42.7506,48.14l-.15,1.2853H41.5081l.15-1.2425Z" transform="translate(0)" style="fill: #fff"/>
      <path d="M47.2063,45.334a2.4666,2.4666,0,0,1,.9854.1714c-.0643.557-.1928.8783-.5141.8783-.1714,0-.3642-.1071-.6212-.1071a.8393.8393,0,0,0-.2785.0428.299.299,0,0,0-.0643.1928c0,.15.0643.2571.45.407a1.0761,1.0761,0,0,1,.8354,1.0925,1.49,1.49,0,0,1-1.5424,1.4567,1.9067,1.9067,0,0,1-1.0925-.2571c.0428-.557.2142-.7926.4927-.7926.1928,0,.4284.15.7069.15a.5023.5023,0,0,0,.2571-.0428.3806.3806,0,0,0,.0857-.2142c0-.15-.0643-.2571-.4284-.4284a1.1283,1.1283,0,0,1-.814-1.1139A1.3915,1.3915,0,0,1,47.2063,45.334Z" transform="translate(0)" style="fill: #fff"/>
    </g>
  </g>
</svg>
