<?xml version="1.0" encoding="utf-8"?>
<!-- Generator: Adobe Illustrator 24.0.1, SVG Export Plug-In . SVG Version: 6.00 Build 0)  -->
<svg version="1.1" xmlns="http://www.w3.org/2000/svg" xmlns:xlink="http://www.w3.org/1999/xlink" x="0px" y="0px"
	 viewBox="0 0 80 80" enable-background="new 0 0 80 80" xml:space="preserve">
<g id="Layer_19">
</g>
<g id="Layer_1">
</g>
<g id="Layer_2">
</g>
<g id="Layer_3">
</g>
<g id="Layer_4">
</g>
<g id="Layer_5">
</g>
<g id="Layer_6">
</g>
<g id="Layer_9">
</g>
<g id="Layer_10">
</g>
<g id="Layer_11">
</g>
<g id="Layer_12">
</g>
<g id="Layer_13">
</g>
<g id="Layer_14">
</g>
<g id="Layer_15">
	<rect y="0" fill="none" width="80" height="80"/>
	<g id="Ebene_2_6_">
		<g>
			<g>
				<path fill="#FFFFFF" d="M17.072,64.1135c-1.5666,0-2.8369-1.2702-2.8369-2.8369v-42.638c0-1.5666,1.2702-2.8369,2.8369-2.8369
					H62.928c1.5666,0,2.8369,1.2702,2.8369,2.8369v42.638c0,1.5666-1.2702,2.8369-2.8369,2.8369L17.072,64.1135L17.072,64.1135z"/>
				<path fill="#A7338B" d="M62.8856,16.5216c1.1856,0,2.1171,0.9739,2.1171,2.1171v42.638c0,1.1856-0.9739,2.1171-2.1171,2.1171
					H17.072c-1.1856,0-2.1171-0.9739-2.1171-2.1171v-42.638c0-1.1856,0.9739-2.1171,2.1171-2.1171H62.8856 M62.8856,15.1667H17.072
					c-1.9477,0-3.5144,1.5666-3.5144,3.5143v42.638c0,1.9477,1.5666,3.5144,3.5144,3.5144H62.928
					c1.9477,0,3.5144-1.5666,3.5144-3.5144V18.6387C66.4,16.7333,64.8333,15.1667,62.8856,15.1667L62.8856,15.1667z"/>
			</g>
			<path fill="#A7338B" d="M26.5989,53.6975c0.0423,0.127,0.0847,0.2117,0.0847,0.3387c0,0.4658-0.3811,0.8045-0.8045,0.8468
				c-0.4658,0.0423-0.9315-0.3387-0.9315-0.8468c0-0.4658,0.4234-0.8468,0.8468-0.8468
				C26.1331,53.1894,26.4295,53.3588,26.5989,53.6975 M35.8294,59.2866c0.254-0.2117,0.5081-0.4234,0.5928-0.5081
				c0,0,1.3973-1.3126,2.1594-2.1594l0.4234-1.1009c0.3811-0.9739,0.8468-2.6675,1.482-3.472
				c0.3811-0.5081,0.8892-0.7198,1.482-0.7198c0.8892,0.0423,1.3126,0.5928,1.3126,1.3973c0,0.7621-0.5928,1.6937-1.736,2.9216
				c0.2541-0.127,0.5081-0.2117,0.6775-0.2117c0.7621,0.0423,1.0585,0.5504,1.0585,1.1009c0,0.4234-0.2117,0.9739-0.3811,1.3973
				l-0.5928,1.482c0.1694-0.127,0.3811-0.2964,0.5928-0.5081l0.1694-0.127c0.5928-0.5081,1.1432-0.9739,1.3549-1.1432
				c0.5081-1.1856,1.5243-2.3711,2.9639-2.3711c0.3811,0,0.7198,0.0847,1.0585,0.2117c0.4658-0.3811,1.1432-0.127,1.1432,0.5081
				c0,1.0585,0.2117,1.0585,0.4234,1.0585c0.5928-0.2964,1.0585-1.5243,2.1594-1.5243c0.4234,0,0.8468,0.127,0.9739,0.5928v0.0423
				c0.2541-0.2117,0.5081-0.4234,0.7621-0.5928c0.6351-0.4234,1.3549,0.127,1.0162,0.8468
				c-0.0847,0.2117-0.2117,0.6351,0.0423,0.8045c0.0847-0.0423,0.1694-0.127,0.254-0.2117
				c0.5928-0.6351,1.9477-2.2018,2.8792-1.2702c0.2117,0.2117,0.254,0.5081,0.2964,0.7621c0,0.0423,0,0.0847,0,0.127
				c0.7198-0.6351,1.5666-1.1432,2.2018-1.1432c0.6351-0.0423,1.1009,0.4234,1.0585,1.1009c0,0.4234-0.2117,0.9739-0.3811,1.3549
				l-0.5928,1.482v0.0423c0.254-0.1694,0.5504-0.3811,0.8045-0.6351c0.7198-0.5928,1.609,0.3811,0.9315,1.0162
				c-0.8468,0.7198-1.863,1.3126-2.3288,1.3126c-0.6351,0-1.0162-0.4658-1.0162-1.1009c0-0.3811,0.127-0.7621,0.2964-1.1432
				l0.5928-1.4396c0.0423-0.1694,0.127-0.3387,0.1694-0.4658c-0.2541,0.1694-0.6351,0.4234-1.0585,0.8045
				c-0.8892,0.8045-1.736,1.9477-2.1171,2.9216c-0.3811,0.8045-1.609,0.4234-1.3549-0.4658l0.9315-2.4558
				c0.0423-0.127,0.0847-0.254,0.127-0.3811c-0.5081,0.5504-0.9315,1.1432-1.736,1.1432c-0.5928,0-1.1009-0.3811-1.3549-0.8892
				c-0.0847,0.127-0.2117,0.2117-0.2964,0.3387c-0.5928,0.6775-1.0585,1.609-1.482,2.6252
				c-0.2964,0.8468-1.6513,0.5081-1.3549-0.4234l0.9315-2.4558c0.0423-0.127,0.0847-0.254,0.127-0.3811
				c-0.6775,0.7198-1.2702,1.2702-2.3288,0.7621c-0.1694,0.5504-0.3811,1.0585-0.5928,1.4396
				c-0.6351,0.9739-1.6937,1.5666-2.7099,1.5243c-0.9315,0-1.6513-0.5081-1.736-1.5243l-0.2117,0.1694l-0.127,0.127
				c-0.5081,0.4234-1.4396,1.2279-2.1171,1.2279c-0.6351-0.0423-0.9739-0.4658-0.9739-1.1009
				c0.0423-0.4234,0.127-0.7621,0.2964-1.1432l0.5928-1.4396c0.0423-0.127,0.0847-0.2541,0.127-0.3811
				c-0.2964,0.2117-0.6351,0.4658-0.9739,0.8045c-0.8892,0.8045-1.7783,1.863-2.2018,2.7945
				c-0.3387,0.8468-1.6513,0.4658-1.3126-0.4234l0.2117-0.5081l-0.127,0.0847c-0.5081,0.4234-1.3973,1.3126-2.1171,1.3126
				c-0.6351-0.0423-0.9739-0.4658-0.9739-1.1009c0.0423-0.4234,0.127-0.7621,0.2964-1.1432l0.5928-1.4396
				c0.0423-0.127,0.0847-0.2541,0.127-0.3811c-0.2964,0.2117-0.6351,0.4658-0.9739,0.8045
				c-0.8892,0.8045-1.7783,1.863-2.2018,2.7945c-0.3387,0.8468-1.6513,0.4658-1.3126-0.4234l0.2964-0.7621l-0.3811,0.3387
				c-1.0162,0.8468-1.736,1.3126-2.7522,1.3126c-0.8045,0-1.3549-0.4658-1.482-1.3126l-0.127,0.127
				c-0.8045,0.6775-1.5243,1.2279-2.3288,1.2279c-0.5928,0-0.9315-0.4234-0.9315-1.0162c0-0.127,0-0.254,0.0423-0.4234
				l-0.0847,0.0847l-0.1694,0.127c-1.0162,0.8045-1.9901,1.2279-3.1333,1.2279c-1.3973,0-2.2441-0.9315-2.2864-2.4982
				c0-1.609,1.0162-2.8369,2.6675-3.3873c-0.2964-0.3811-0.4658-0.8892-0.4658-1.4396c0.0423-1.5666,1.5243-2.7945,3.1333-2.7945
				c0.7198,0,1.3549,0.2117,1.7783,0.4658c0.7621,0.4658,0.0423,1.609-0.7198,1.2279c-0.2964-0.1694-0.6351-0.2964-1.1009-0.2964
				c-0.9315,0-1.6513,0.6775-1.6513,1.3973c0,0.6351,0.4658,1.1009,1.2702,1.1856c0.8892,0.0847,0.8045,1.3549-0.0847,1.3973
				c-2.2441,0-3.3873,1.0162-3.345,2.2864c0,0.8468,0.3811,1.1432,0.8892,1.1432c0.7621,0,1.3973-0.2541,2.2018-0.8892l0.127-0.0847
				c1.0585-0.8468,1.7783-1.482,2.3711-2.7945c0.3811-0.8045,1.6513-0.3811,1.3126,0.5081l-0.9739,2.5405
				c-0.0423,0.1694-0.127,0.3387-0.1694,0.4658c0.2117-0.127,0.4234-0.3387,0.7198-0.5504l0.127-0.0847
				c0.8045-0.7198,1.4396-1.5666,2.2018-2.2864c0.5928-0.5504,1.3973-1.1009,2.2441-1.1009c0.4234,0,0.8468,0.127,1.1856,0.2964
				c0.8045,0.4658,0.0423,1.609-0.7198,1.1856c-0.127-0.0847-0.2964-0.127-0.4658-0.127c-0.2964,0-0.7621,0.2117-1.1432,0.5928
				c-0.5081,0.5081-0.8892,1.1856-0.8892,1.9054c0,0.254,0.0423,0.3811,0.0423,0.3811s0.0423,0,0.0847,0
				c0.4658,0,0.8892-0.2117,1.736-0.9315l0.1694-0.127c0.8892-0.7198,1.5243-1.3126,2.2441-1.9901l0.4234-1.1856
				c0.3811-0.9739,0.8468-2.6675,1.482-3.472c0.3811-0.5081,0.8892-0.7198,1.482-0.7198c0.8892,0.0423,1.3126,0.5928,1.3126,1.3973
				c0,0.7621-0.5928,1.6937-1.736,2.9216c0.254-0.127,0.5081-0.2117,0.6775-0.2117c0.7621,0.0423,1.0585,0.5504,1.0585,1.1009
				c0,0.4234-0.2117,0.9739-0.3811,1.3973L35.8294,59.2866z M47.3039,58.9479c0.2964-0.4658,0.5504-1.3126,0.7198-2.1594
				c-0.2117-0.127-0.4658-0.2117-0.7621-0.2117c-0.3387,0-0.7198,0.2117-1.0585,0.6351c-0.4234,0.5504-0.7198,1.3549-0.7198,2.1171
				c0,0.3387,0.127,0.4234,0.3811,0.4234C46.3724,59.7947,46.9652,59.4983,47.3039,58.9479 M40.6986,54.629
				c0.8468-0.9315,1.1432-1.482,1.1432-1.863v-0.0423c-0.127,0-0.2117,0.0423-0.3387,0.2117
				c-0.254,0.2964-0.4658,0.7621-0.6775,1.4396L40.6986,54.629z M34.2204,54.629c0.8468-0.9315,1.1432-1.482,1.1432-1.863v-0.0423
				c-0.127,0-0.2117,0.0423-0.3387,0.2117c-0.2541,0.2964-0.4658,0.7621-0.6775,1.4396L34.2204,54.629z"/>
			<g>
				<path fill="#A7338B" d="M41.3761,39.1743c0,0-2.2018-0.1694-2.7522-0.7198c-0.5504-0.5504-1.3549-1.482-1.4396-3.8954
					c-0.127-3.8107-3.1756-8.3836-8.1719-8.1296c-4.6576,0.2117-6.2666,4.0648-8.2143,3.7684
					c0.6775,2.4135,0.1694,3.3873,0.7198,4.6576c0.9315,2.2018,2.9216,3.3026,6.6053,3.5144
					c3.599,0.1694-0.1694,4.0648,3.218,6.8593c1.9054,1.6937,6.9864,2.1171,9.9079-2.2018
					C42.0536,42.0112,41.3761,39.1743,41.3761,39.1743"/>
				<path fill="#F39222" d="M41.7148,40.1905c0,0-2.9216,0.254-4.2765-1.4396c-1.3549-1.6513-1.3126-2.6675-1.3973-4.7423
					c-0.127-2.6252-2.7522-6.4783-6.7747-6.2666s-5.4621,3.5144-7.1134,3.3026c0.5928,2.1171,0.3811,2.8792,0.8468,4.0225
					c0.8045,1.9054,4.0648,1.1432,7.2827,1.3126c1.4396,0.0847,2.8792,1.2279,2.4982,2.7945
					c-0.127,0.5928-1.1009-1.3126-1.3549-0.6775c-0.8468,1.736-0.0847,4.2765,1.0162,5.1657
					c1.6513,1.482,5.2927,2.5405,8.4683-1.2279C41.5455,41.4608,41.7148,40.1905,41.7148,40.1905"/>
				<path fill="#FBBB1D" d="M28.0808,31.1294c2.9639-1.4396,2.5828-3.472,1.1856-3.3873c-4.0224,0.2117-5.4621,3.5143-7.1134,3.3026
					c0.5928,2.1171,0.8468,2.2864,1.5243,3.3026c1.3126,1.9901,5.335,0.2117,5.1657-1.1432
					C28.6736,31.8492,26.8529,31.7222,28.0808,31.1294"/>
				<path fill="#A7338B" d="M53.4011,33.7123c-0.1694,0.127,0,0.4234-0.1694,0.5928c-0.5504,0.7621-1.736-0.3811-2.2018,0.7198
					c-0.8468,1.2279-2.3711,2.1171-3.8107,2.2018c-0.6351-0.8468-0.8045-1.8207-1.1009-2.7522c0-0.1694-0.3811-0.6775-0.3811-0.8468
					c0.0423-0.127,0.2964-0.0847,0.5504-0.0423c1.0162,0.2117,2.2864,0.5081,3.0909-0.3387
					c0.2964-0.5928-0.0423-1.5666,0.5928-1.9477c0.3387-0.127,0.5081,0.0423,0.5504,0.2964c0.0847,0.254,0,0.5928,0.3811,0.7621
					c0.8045,0.1694,1.9477-0.7198,2.4135,0.3811C53.5705,32.9501,53.8245,33.4582,53.4011,33.7123"/>
				<path fill="#F39222" d="M52.9353,32.6961c-0.2964,0-0.5928,0-0.8468,0.1694c0,0.5081,0.4234,0,0.6351,0.0847
					c0.1694,0,0.4234,0.0423,0.4234,0.254c0,0.4234-0.3811,0-0.5928,0.127c-0.1694,0-0.4234,0.0423-0.4658,0.2117
					c0.1694,0.2117,0.5504,0.0423,0.7621,0.2117c0.0847,0.0847,0.0847,0.2117,0.0423,0.2964
					c-0.5928,0.4234-1.3549-0.2964-1.9477,0.0423c-0.5081,0.6351-0.8892,1.3973-1.736,1.736
					c-0.7621,0.2964-1.482,0.6351-2.3288,0.5081c-0.3387-0.5928-0.4658-1.3549-0.5504-2.0324
					c0.6351,0.2117,1.3549,0.127,2.0324-0.0847c0.6351-0.1694,1.2702-0.5504,1.3973-1.2702c0.127-0.4234-0.127-1.0162,0.3387-1.2279
					c0.4658-0.127,0.0847,0.8468,0.8045,0.8892C51.6651,32.6961,52.3849,32.0186,52.9353,32.6961"/>
				<path fill="#A7338B" d="M54.9677,33.6276c-0.0847,0.2964-0.4234,0.5504-0.6775,0.6351
					c-0.8468-0.4658-1.6937-0.254-2.4558-0.8045c-0.6351-0.2964-1.2702-0.8468-1.3973-1.609
					c-0.254-0.8045-0.0847-1.736,0.3811-2.4982c0.9739-1.3126,3.6414-1.609,4.5729-1.1856c0.9315,0.4234,1.1009,1.736,1.0162,2.6675
					C56.238,32.0186,55.6029,32.8231,54.9677,33.6276"/>
				<path fill="#FBBB1D" d="M51.1993,29.5628c0.2117-1.0162,3.0909-1.482,3.7684-1.1009c0.254,0.127,0.1694,0.2964,0.0847,0.3811
					C54.2903,29.7745,51.4111,30.2403,51.1993,29.5628"/>
				<path fill="#A7338B" d="M54.502,33.797l-0.2117,0.0847c-1.0585-0.2964-2.2018-0.6775-2.9639-1.4396
					c-0.3811-0.7198-0.5504-1.5666-0.2117-2.3711c1.3549,0.2964,3.0909,0.127,4.1071-0.8045
					c0.5504,0.254,0.9315,1.3549,0.3811,2.7099C55.5182,32.2727,54.8407,33.2042,54.502,33.797"/>
				<path d="M54.375,33.7546c-0.0423,0.0423-0.0847,0.0847-0.1694,0.0423c0-0.1694,0.0423-0.4234,0.0423-0.5928
					c-0.0423-1.0162-0.254-1.9054-0.9315-2.7945c0.5928-0.0423,1.482-0.4658,1.736-0.7198
					c0.8045,0.6775,0.5504,1.9054-0.1694,3.1333C54.7137,33.1618,54.502,33.5429,54.375,33.7546"/>
				<path fill="#A7338B" d="M42.6887,23.5503c2.3288-0.0423,4.3188,1.4396,5.2927,3.5143c0.3811,0.0423,1.1432,0.4658,1.0585,1.4396
					c0.127,0.3811,0.1694,1.1856-0.5504,1.863c-0.5081,2.5405-3.0486,4.1071-5.4621,4.4882
					c-2.2018,0.2117-4.4459-0.9315-5.5467-2.8369c-0.5928-0.9315-0.7621-1.9477-0.7621-2.9639
					c-1.863-0.7621-2.3711-3.0063-3.0909-4.6999c-0.7198-1.0585-1.7783-1.9054-3.1756-2.0747
					c-0.5081-0.0423-1.0162,0.2117-1.0162,0.254c-0.0423,0-0.0423,0,0,0c0.0423-0.0423,0.6351-0.5504,0.9739-0.5928
					c-0.2117,0-1.0162-0.0423-1.482,0.1694h-0.0423c0.254-0.1694,0.5504-0.2964,0.8045-0.3811
					c3.1333-0.9315,6.6053,1.1009,8.9341,2.9639c0.0847-0.4234-0.0423-0.9315-0.127-1.3549
					c-0.4658-1.3126-1.6937-2.0324-3.0486-2.1171c-0.3387-0.0423-0.4658-0.0423-0.8045-0.0423c-0.0423,0-0.0423,0,0-0.0423
					c0.4234-0.127,0.9315-0.1694,1.0585-0.2117c-0.5081-0.0847-1.1009-0.127-1.3126-0.1694c-0.0423,0,0,0,0,0
					C37.1843,20.163,40.868,21.2215,42.6887,23.5503"/>
				<path fill="#F39222" d="M38.3275,21.5602c0.5928,0.5504,0.8892,1.9901,1.736,2.7522c0.6775-0.4234,1.1432-0.5081,1.5666-0.6775
					C41.1644,22.6611,39.386,21.6873,38.3275,21.5602"/>
				<path fill="#FBBB1D" d="M47.7697,27.234c0,0.127,0.0847,0.1694,0.2117,0.2117c0.3387,0.127,0.7621,0.2964,0.7198,0.7198
					c-0.0423,0.2964-0.2117,0.4658-0.4658,0.5081c-0.2964,0-0.5504-0.1694-0.7198-0.4234
					c-0.2117,0.0847-0.4234,0.0847-0.3811,0.3811c0.0423,0.4658,0.7198,0.6775,1.1009,0.5928c0,0.7198-0.2117,0.8892-0.4234,1.0162
					c-0.254,0.1694-0.7621,0.2117-0.8468,0.127c-0.2964-0.254-0.254-0.4658-0.2117-0.7198
					c-0.1694,0.1694-0.3811,0.3387-0.5928,0.4658c0.127,0.4658,0.3387,0.5504,0.4658,0.6775
					c0.0847,0.3811,0.254,0.8045,0.6351,0.9315c-1.0585,1.5666-3.345,2.5405-5.081,2.2441c-1.609-0.254-3.0486-1.0585-3.5567-2.6675
					c-0.5928-1.9477,0.0423-2.7522,0.0423-2.7522c-1.9054-0.254-3.7684-1.9477-3.8107-4.4882
					c2.6675,0.3811,3.6414,3.0063,4.4459,3.1756c0.3811-0.5081,0.8892-1.0585,0.8892-1.0585s-0.3811-0.3387-0.5928-0.5081
					c0.6351-0.6775,1.482-0.9315,1.9054-1.0585C44.1283,23.8467,46.2454,24.9476,47.7697,27.234"/>
				<path fill="#F39222" d="M48.4895,29.8592c0.0423-0.254,0.127-0.5928,0.127-0.8468l0.2964-0.254
					c0.0847,0.2964,0,0.7198-0.254,0.9315L48.4895,29.8592z"/>
				<path d="M44.213,27.7845c-0.5081-0.1694-1.3973-0.3811-1.6937-0.0423c-0.2117,0.254-0.127,0.5928-0.127,0.8468
					c-0.2964-0.1694-0.5928-0.7198-0.2117-1.1432C42.604,27.0223,43.7896,27.4034,44.213,27.7845"/>
				<path d="M45.6949,29.2241c0,0.2964-0.2117,0.2964-0.4234,0.3387c-0.5928,0.3811-1.2702,0.6351-1.9477,0.2117
					c-0.2117-0.1694-0.4234-0.4658-0.4658-0.7621c0.0847-0.4658,0.4658-0.7621,0.9315-0.8468
					C44.6364,27.9962,45.2715,28.6736,45.6949,29.2241"/>
				<path fill="#FFFFFF" d="M44.6787,28.843c0,0.2117-0.1694,0.3387-0.3811,0.3811c-0.2117-0.0423-0.4234-0.2117-0.3811-0.4234
					c0.0423-0.1694,0.2541-0.3387,0.4234-0.2964C44.5094,28.5466,44.6364,28.6736,44.6787,28.843"/>
				<path fill="#FFFFFF" d="M47.812,31.2565c-0.254,0.1694-0.2964-0.254-0.3387-0.3811c0.1694,0.0423,0.4234,0.0423,0.6351-0.0847
					C48.0661,30.9601,47.939,31.1718,47.812,31.2565"/>
				<path d="M51.157,25.244c-0.0847-0.0847-0.2541-0.0847-0.3387,0c-0.7198,0.5504-1.2702,1.4396-1.8207,2.2018
					c0.6351-0.8468,1.3973-1.4396,2.1594-2.0747C51.157,25.4133,51.2417,25.3286,51.157,25.244"/>
				<path d="M51.3687,25.625c-0.8045,0.5504-1.4396,1.3973-2.0747,2.1171c0.8045-0.6351,1.5243-1.3973,2.3711-1.9477
					c0.0423-0.0423,0.0423-0.0847,0-0.1694C51.5804,25.5827,51.4534,25.5404,51.3687,25.625"/>
				<path d="M51.5804,26.4295c0.127-0.0423,0.3387,0.127,0.0847,0.254c-0.5928,0.2964-1.609,0.8892-2.2441,1.3973
					C50.0138,27.4034,50.7336,26.8106,51.5804,26.4295"/>
				<path fill="#A7338B" d="M55.9416,39.0473c-0.5504-1.0162-1.5243-0.127-1.3126,0.4658
					c-0.2541-0.3811-0.5928,0.0847-0.4234,0.3387c-0.3811-0.127-0.3387,0.3387-0.1694,0.4658c0,0.127-0.0847,0.127-0.2117,0.2964
					c-0.2117,0.254-0.5504,0.3387-0.5081,0.2117c0.1694-0.8468,0.0423-2.7945-1.2702-3.5567s-2.2441-0.4658-3.8107,0.4234
					c0.0847-2.5405-2.0747-3.9378-2.0747-3.9378l0,0c-0.0847-0.0423-0.1694-0.127-0.2541-0.1694
					c-1.0585,0.4658-2.4982,0.6351-3.4297,0.5928c-0.2117,0-0.3811,0.0423-0.5081,0.254c-0.9315,1.4396-2.4558,4.7846-2.2018,6.2242
					c0.2541,1.4396,0.6775,2.8369,3.472,3.345c0.0423,0.7621-0.4658,1.3549-1.1432,1.2279C42.0112,44.34,40.9103,44.34,40.741,44.34
					c-0.1694,0-0.3811,0.254-0.6351,0.7198c-0.2541,0.4658-1.0162,1.6513-1.3973,1.6937c-0.7198,0.0847-0.7621,0.5928-0.5504,0.9315
					c-0.6351,0.3811-0.0423,0.9315,0.6775,0.8468c-0.2117,0.6351,0.5081,1.0585,0.8468,0.9315
					c0.3811-0.1694,0.4658-0.8045,0.6775-1.1432c0.2117-0.3387,0.7198-0.6351,1.609-0.9739
					c4.3612,2.2441,7.3251-0.3811,7.5791-3.0063c0.0423-0.6351-0.0423-1.2702-0.2117-1.8207
					c0.9739-0.5504,2.0324-0.9315,2.1594-0.4658c0.0423,0.127,0.0423,0.254,0.0847,0.3811
					c-0.4658,0.8468,0.0423,1.9477,0.8892,2.0747c2.2441-0.5081,3.8107-3.7261,3.345-4.2765
					C55.8993,39.9365,56.111,39.3437,55.9416,39.0473"/>
				<path fill="#F39222" d="M55.6029,39.259c-0.127-0.3811-0.6351-0.2964-0.7621,0.1694c-0.0423,0.127,0,0.4658,0.0847,0.7198
					c-0.9315,1.3126-1.9901,1.2702-1.9901,1.2702s0.2117-2.7945-1.3549-3.599c-1.0585-0.5504-1.736-0.5081-3.472,0.4658
					c-0.1694,0.127-0.4234,0.254-0.4234,0.254s0-0.0423-0.0423-0.254c-0.1694-2.1171-1.482-3.8107-1.9054-4.4035
					c0,0-0.0423,0.0423-0.0847,0.0847c0,0,0,0-0.0423-0.0423c-0.8892,0.4658-1.8207,0.6351-2.7522,0.7621
					c-0.2117,0.2117-1.9054,3.3873-2.0747,5.6314c-0.0847,1.1856,0.8892,2.1171,1.3126,2.2864
					c0.4234,0.2117,0.8468,0.3387,1.3126,0.3387l0,0c0,0,0,0,0.0423,0c0.1694,0,0.3811,0,0.5504,0
					c0.254,0.3811,0.3811,0.7198,0.4234,1.0162c0,0.0847,0,0.1694,0,0.2117c-0.0423,1.0162-1.2279,1.482-2.5405,1.2279
					c-0.3811-0.6775-0.8468-0.8045-1.1856-0.3387c-0.254,0.3811-1.3973,1.8207-1.736,1.8207c-0.5928,0-0.4658,0.3811-0.3387,0.4234
					c0.1694,0.0423,0.2117-0.0847,0.254,0.0423c0,0.0847,0,0.0423-0.2964,0.127c-0.2964,0.0847-0.4234,0.7198,0.4658,0.5081
					c0.1694-0.0423,0.3811-0.2964,0.3811-0.1694c0.0423,0.0847-0.1694,0.1694-0.2117,0.3387
					c-0.0847,0.5081,0.254,0.7621,0.5081,0.6351c0.2964-0.127,0.2964-0.7621,0.4658-1.0585s1.6937-1.1009,1.9054-0.9739
					c3.3873,1.9054,6.3089-0.5928,6.5206-2.9216c0.0847-1.4396-1.2279-3.218-1.2279-3.218s0.7621,0.254,1.3973,0.8892
					c1.7783-1.1432,2.9639-0.6351,3.1333,0c0.0423,0.1694,0.0423,0.6351,0.0423,0.8468c-0.2541,0.7621,0.3387,1.482,0.7198,1.3973
					c1.5666-0.5081,3.0486-2.6675,2.8792-3.5567C55.6452,39.9365,55.7299,39.6401,55.6029,39.259"/>
				<path fill="#A7338B" d="M34.6861,34.7285c0.1694,0.1694,0,0.5081,0.1694,0.6775c0.6351,0.8468,1.9477-0.4234,2.4982,0.7621
					c0.8045,1.1432,2.1171,2.0324,3.472,2.3288c0.2964,0.0847,0.5081,0.1694,1.0162-0.0423
					c0.8468-0.2964,1.0162-2.6675,1.0585-2.9639c0.0423-0.2964-0.0423-0.7621-0.2117-1.0162
					c-1.1432,0.2541-2.5828,0.5504-3.472-0.3387c-0.3387-0.6775,0.0423-1.736-0.6775-2.2018
					c-0.3811-0.1694-0.5504,0.0423-0.5928,0.3387c-0.0847,0.2964,0,0.6775-0.4234,0.8468
					c-0.8892,0.1694-2.1594-0.8045-2.7099,0.4234C34.5168,33.8393,34.2204,34.4321,34.6861,34.7285"/>
				<path fill="#F39222" d="M35.2366,33.5853c0.3387,0,0.9739-0.127,0.9739,0.1694c0,0.2964-0.4234,0.0847-0.7198,0.0847
					c-0.2117,0-0.4658,0.0423-0.4658,0.2964c0,0.4658,0.4234,0.1694,0.6775,0.1694c0.2964,0,0.5081,0.0423,0.5081,0.2117
					c0,0.2117-0.6351,0.0423-0.8892,0.254c-0.127,0.0847-0.127,0.2117-0.0423,0.3387c0.6775,0.4658,1.5243-0.3387,2.2018,0.0423
					c0.5504,0.6775,0.9739,1.5243,1.9477,1.9054c0.9739,0.3811,1.4396,0.5928,2.6252,0.5081
					c1.2702-0.127,1.2279-1.5666,1.3549-1.9901c0.0847-0.3387,0.2117-0.4658-0.5504-0.2964c-0.7198,0.2117-1.7783,0.2964-2.4982,0
					c-0.7198-0.3387-1.4396-0.6351-1.609-1.4396c-0.127-0.4658,0.127-1.1432-0.4234-1.3973
					c-0.5081-0.127-0.0847,0.9315-0.9315,1.0162C36.6762,33.5853,35.8717,32.7808,35.2366,33.5853"/>
				<path fill="#FBBB1D" d="M47.3463,40.2329c0.254-0.2964,0.3811-1.1009,0.3387-1.6937c-0.0847-2.2018-1.482-4.0224-1.9477-4.6152
					c-0.3387,0.1694-0.9315,0.4658-1.9477,0.6775c0.5504,1.609-0.0423,2.5828-0.127,3.6414
					C43.5355,39.2167,44.467,41.4184,47.3463,40.2329"/>
				<path d="M46.6688,30.7484c-1.2279,0.3811-2.0747,1.0162-3.3026,2.9216c0,0.0423-0.0847,0.0847-0.1694,0.0847
					c-0.0847,0-0.0847-0.0847-0.0423-0.0847c0.4234-0.7198,0.9315-1.3549,1.482-1.9054c-0.9315,0.4234-1.6937,1.1856-2.3288,1.9054
					c-0.0423,0.0423-0.0847,0.0847-0.1694,0.0423s-0.0423-0.127-0.0423-0.1694c0.9739-1.2702,2.5828-2.3288,4.1918-2.9216
					c0,0,0.127-0.0423,0.0847-0.127c-0.0423-0.0847-0.127-0.0423-0.127-0.0423c-1.9054,0.4658-3.5144,1.6937-4.7846,2.9639
					c-0.0423,0.0423-0.1694,0.127-0.2964,0.0847c-0.127-0.0423-0.0423-0.1694,0-0.2117c2.1594-2.1171,3.7684-2.7099,5.1233-3.1756
					C46.2877,30.3249,46.3724,30.4943,46.6688,30.7484"/>
			</g>
		</g>
	</g>
</g>
<g id="Layer_17">
</g>
<g id="Layer_7">
</g>
<g id="Layer_8">
</g>
<g id="Layer_18">
</g>
</svg>
