<?xml version="1.0" encoding="UTF-8"?><svg id="i" xmlns="http://www.w3.org/2000/svg" viewBox="0 0 35.2555153 14"><path d="M16.6734545,6.8396801v4.1037405h-1.3018756V.8090008h3.4528021c.832452-.0173891,1.637363,.2984619,2.2358318,.8773515,.6055116,.544652,.9460332,1.3244593,.9339537,2.1387967,.0173431,.8188857-.3237831,1.6045126-.9339537,2.1509262-.6037681,.5757362-1.3490458,.8633353-2.2358305,.8627961h-2.1509278v.0008088Zm0-4.7829804v3.5377073h2.1832708c.4839745,.014346,.9515966-.1758736,1.2881304-.523985,.6839502-.6649516,.6993487-1.758452,.0343986-2.4424015-.0113046-.0116269-.022772-.0230941-.0343986-.034398-.3324522-.3555927-.8015254-.5514081-1.2881292-.5377315h-2.1832708l-.0000012,.0008086Z" fill="#5f6368"/><path d="M24.9941429,3.7831007c.9622559,0,1.7218191,.2571411,2.2786872,.7714224,.5568681,.5142819,.8350332,1.2193973,.8344952,2.1153471v4.2735503h-1.2452725v-.9622565h-.0566043c-.5390784,.7924461-1.2560539,1.18867-2.1509266,1.18867-.7638743,0-1.4029541-.2264135-1.9172345-.6792393-.4998344-.4209091-.7832384-1.0447539-.771423-1.6980995,0-.7175141,.2711568-1.2881298,.8134703-1.7118459s1.2662974-.636113,2.1719514-.6371914c.7730394,0,1.409691,.1415083,1.9099573,.4245249v-.297573c.0029859-.445377-.1944653-.8684879-.537731-1.1522818-.3442725-.3106083-.7929439-.4800869-1.2565943-.4746592-.7272165,0-1.3026837,.3067359-1.7264017,.9202083l-1.1466209-.7220966c.6307242-.9056531,1.5641399-1.3584799,2.8002474-1.3584799Zm-1.6843519,5.0376955c-.0017718,.336176,.1590858,.6524696,.4318022,.8490498,.2879323,.22649,.6453108,.3464731,1.0115829,.3396197,.5493712-.0009174,1.0759753-.2195841,1.46441-.6080811,.4312642-.405927,.6468951-.8822028,.6468951-1.4288293-.4059258-.3234475-.9719589-.4851713-1.6980995-.4851713-.5288374,0-.9698022,.1274917-1.3228992,.382477-.3566061,.2587572-.5336939,.5733104-.5336939,.9509353h.0000025Z" fill="#5f6368"/><path d="M35.2555153,4.0095142l-4.3471356,9.9904858h-1.3439241l1.6131955-3.4956588-2.858468-6.494827h1.4150829l2.0660201,4.9810918h.0283022l2.0094183-4.9810918h1.4175087Z" fill="#5f6368"/><path d="M11.4125807,5.9550509c.0004911-.3967471-.033055-.7928051-.1002692-1.1838179H5.8217902v2.2423003h3.1447185c-.1300328,.7236747-.5500844,1.3628076-1.1627936,1.7692578v1.4555139h1.8768042c1.0989127-1.0131993,1.7320614-2.5115699,1.7320614-4.283254Z" fill="#4285f4"/><path d="M5.8217902,11.644493c1.5711464,0,2.8940468-.5158992,3.8587291-1.4053793l-1.8768042-1.4555139c-.5223677,.3541748-1.1951385,.5563295-1.9819249,.5563295-1.518586,0-2.8075246-1.0237117-3.2684371-2.4032152H.6199454v1.4999882c.9882566,1.9665258,3.0009642,3.2076908,5.2018449,3.2077907Z" fill="#34a853"/><path d="M2.5533529,6.9367141c-.243668-.722869-.2436679-1.5056842,0-2.2285533v-1.4999882H.6199454C-.2066485,4.8530067-.2066485,6.7918682,.6199454,8.4367023l1.9334076-1.4999882Z" fill="#fbbc04"/><path d="M5.8217902,2.3049456c.8302798-.0135647,1.6325504,.30014,2.2334054,.8733083h0l1.6617113-1.6617116C8.6632088,.5268542,7.2672926-.0165011,5.8217902,.000382,3.6209095,.0004823,1.608202,1.2416466,.6199454,3.2081727l1.9334076,1.4999882c.4609126-1.3795038,1.7498512-2.4032152,3.2684373-2.4032152Z" fill="#ea4335"/></svg>