<?xml version="1.0" encoding="utf-8"?>
<!-- Generator: Adobe Illustrator 24.0.1, SVG Export Plug-In . SVG Version: 6.00 Build 0)  -->
<svg version="1.1" xmlns="http://www.w3.org/2000/svg" xmlns:xlink="http://www.w3.org/1999/xlink" x="0px" y="0px"
	 viewBox="0 0 80 80" enable-background="new 0 0 80 80" xml:space="preserve">
<g id="Layer_19">
</g>
<g id="Layer_1">
</g>
<g id="Layer_2">
</g>
<g id="Layer_3">
</g>
<g id="Layer_4">
</g>
<g id="Layer_5">
</g>
<g id="Layer_6">
</g>
<g id="Layer_9">
</g>
<g id="Layer_10">
</g>
<g id="Layer_11">
</g>
<g id="Layer_12">
</g>
<g id="Layer_13">
</g>
<g id="Layer_14">
	<rect y="0" fill="none" width="80" height="80"/>
	<g>
		<g>
			
				<linearGradient id="SVGID_1_" gradientUnits="userSpaceOnUse" x1="40" y1="-323.8446" x2="40" y2="-284.6083" gradientTransform="matrix(1 0 0 -1 0 -264.4722)">
				<stop  offset="0" style="stop-color:#BFBFBF"/>
				<stop  offset="0.25" style="stop-color:#F7F7F8"/>
				<stop  offset="0.5" style="stop-color:#BFBFBF"/>
				<stop  offset="0.75" style="stop-color:#F7F7F8"/>
				<stop  offset="1" style="stop-color:#BFBFBF"/>
			</linearGradient>
			<path fill="url(#SVGID_1_)" d="M76.4609,46.2976L73.9382,43.78c-0.0472-0.0468-0.1013-0.1221-0.1013-0.2842
				c0-0.1923,0.0762-0.3948,0.1425-0.5097l0.014-0.0255l1.4509-3.1035c0.4842-1.0229,0.7191-1.8947,0.7191-2.6652
				c0-0.6335-0.1557-1.2084-0.4625-1.7096c-1.0003-1.6738-3.103-1.7364-3.9144-1.7398c0.0455-1.1279-0.1413-2.2014-0.5778-3.1907
				c-1.8296-4.1497-7.9582-6.5447-15.5858-6.4792c-4.499,0.0387-9.5197,0.9331-14.4872,2.8286L41.129,26.9l-3.5915-0.0004H18.6905
				l1.3905,1.2794c1.8338,1.687,2.5176,2.9554,2.5176,3.3587c0,0.1196-0.0306,0.2395-0.0842,0.3574
				c-0.0481,0.0821-5.0398,8.6781-5.0398,8.6781c-0.0115,0.0187-0.845,1.2462-3.1,1.2462l-2.5571,0.0068
				c-0.3234,0.0072-1.2573,0.0272-1.49-0.08c-0.1421-0.1221-1.8789-1.6262-1.8789-1.6262l-4.9092,9.047l3.4128-0.0102h9.7252
				c1.0109,0,1.9483-0.043,2.8248-0.12c2.1691,3.3094,8.5147,8.7164,26.4244,6.2801c0,0,12.2223-1.5513,20.8745-9.0278
				L76.4609,46.2976L76.4609,46.2976z M35.0161,33.7417c2.0891-3.3753,6.8677-5.8231,6.8677-5.8231
				c11.7935-4.6033,23.4465-1.5139,25.9411,4.1361c0.2374,0.5374,0.3166,1.1024,0.3404,1.6866h-4.5441
				c0.4216-0.8914,1.4275-3.0154,1.4275-3.0154l-3.2043,0.0017h-10.483l1.3203,1.2692c0.8442,0.8101,1.2628,1.4109,1.4113,1.7445
				c-0.8773,0-3.9876,0-3.9876,0c-1.6683,0-3.072,0.4574-4.2161,1.3071c-1.1373-1.2947-3.009-1.3071-3.6698-1.3071h-7.2034V33.7417z
				 M43.6274,53.5486c-12.8469,0.8684-17.6268-2.8996-19.3947-5.5619c1.4041-0.6131,2.6554-1.5415,3.7468-2.7371
				c1.0777,1.005,2.6903,1.008,3.2707,1.008l33.8372,0.0306C56.6424,52.7704,43.6274,53.5486,43.6274,53.5486L43.6274,53.5486z"/>
			
				<linearGradient id="SVGID_2_" gradientUnits="userSpaceOnUse" x1="39.9798" y1="-320.0247" x2="39.9798" y2="-288.9639" gradientTransform="matrix(1 0 0 -1 0 -264.4722)">
				<stop  offset="0" style="stop-color:#BFBFBF"/>
				<stop  offset="0.25" style="stop-color:#F7F7F8"/>
				<stop  offset="0.5" style="stop-color:#BFBFBF"/>
				<stop  offset="0.75" style="stop-color:#F7F7F8"/>
				<stop  offset="1" style="stop-color:#BFBFBF"/>
			</linearGradient>
			<path fill="url(#SVGID_2_)" d="M41.2715,27.2548l-0.0647,0.0238l-0.0779-0.0004l-3.5915-0.0004c0,0-16.1312,0-17.8774,0
				c0.3395,0.311,0.6765,0.6221,0.6765,0.6221c1.8138,1.6675,2.6393,3.0545,2.6393,3.6374l-0.1191,0.5161
				c-0.017,0.0323-5.056,8.7096-5.056,8.7096c-0.1196,0.1732-1.0782,1.4343-3.4272,1.4343l-2.5567,0.0072
				c-0.9599,0.0213-1.4245-0.0111-1.6496-0.1153l-0.0494-0.0221c0,0-1.0939-0.9484-1.5624-1.3539
				c-0.3812,0.7046-3.8706,7.134-4.3812,8.0718c0.8446-0.0009,2.7758-0.006,2.7758-0.006h9.726c0.9565,0,1.8959-0.0408,2.7916-0.12
				l0.2259-0.02l0.1238,0.1902c2.1708,3.3102,8.442,8.5083,26.0568,6.112c0.1242-0.0157,12.2143-1.6258,20.6792-8.9389
				l0.1068-0.0915c0,0,7.3825,0.0055,8.8836,0.0068c-0.7152-0.7148-1.8738-1.8704-1.8738-1.8704
				c-0.1434-0.1468-0.2119-0.3268-0.2119-0.5527c0-0.3314,0.1451-0.6169,0.1898-0.6969c0.0026,0,1.4534-3.103,1.4534-3.103
				c0.4608-0.9722,0.6837-1.7913,0.6837-2.5044c0-0.5616-0.1374-1.0709-0.4063-1.5113c-0.6161-1.0309-1.8236-1.5543-3.5936-1.559
				l-0.3931-0.0009l0.017-0.3923c0.0042-0.1059,0.0051-0.2098,0.0051-0.3144c0-0.9675-0.1855-1.8781-0.5518-2.7099
				C67.9504,24.099,53.8462,22.4558,41.2715,27.2548z M34.6936,33.5438c2.121-3.4277,6.8187-5.861,7.0179-5.9614l0.0162-0.0102
				l0.0183-0.0068c11.9671-4.6696,23.8201-1.5619,26.4244,4.3365c0.2263,0.5148,0.3412,1.0769,0.3731,1.8249l0.0166,0.394h-5.5376
				c0,0,1.0837-2.287,1.4266-3.0145c-0.7901,0.0004-2.6052,0.0004-2.6052,0.0004s-7.9846,0-9.5431,0
				c0.3217,0.3093,0.6429,0.6182,0.6429,0.6182c1.0105,0.9701,1.3709,1.5841,1.4943,1.864l0.2366,0.5318h-4.5697
				c-1.5496,0-2.8907,0.4153-3.9897,1.2322l-0.28,0.2081l-0.2306-0.2621c-1.0339-1.1786-2.8026-1.1786-3.3855-1.1786h-7.8816
				L34.6936,33.5438z M23.9179,48.1952L23.6673,47.82l0.414-0.1808c1.3296-0.5804,2.5473-1.4696,3.6174-2.6448l0.2591-0.2825
				l0.2795,0.2612c0.9722,0.9054,2.455,0.9054,3.0128,0.9054l34.9506,0.0311l-0.882,0.6786
				c-8.4385,6.4784-21.5374,7.3306-21.6693,7.3378C31.0519,54.7787,25.9645,51.2795,23.9179,48.1952z"/>
			<g>
				<path fill="#285CA0" d="M51.789,43.4111c0,0-0.1128,0.645-0.1353,0.7782c0.1625,0,5.6176,0,6.1244,0
					c-0.1128-0.0655-0.2259-0.1306-0.2259-0.1306c-0.4672-0.2638-0.6463-0.5246-0.6463-0.8237c0-0.1919,0.0736-0.4025,0.1851-0.6421
					c0,0,4.1812-8.8342,4.6748-9.8784c-0.0549,0-0.1094,0-0.1094,0s-5.718,0-6.2146,0c0,0,0.8582,0.6446,0.4416,1.5985
					c0-0.0017-0.8939,1.887-0.8939,1.887l-0.0608,0.1289c-0.1255-0.6757-0.9909-0.6012-0.9909-0.6012h-3.9119
					c-2.1014,0-3.5851,0.8795-4.4063,2.6176c-0.0068,0.0047-0.111,0.2289-1.4998,3.1681c-0.2315,0.491-0.3476,0.9173-0.3476,1.2743
					c0,0.2561,0.0596,0.4782,0.177,0.6637c0.3149,0.4957,1.0122,0.7374,2.1355,0.7374h4.208
					C51.2103,44.1893,51.789,43.4111,51.789,43.4111z M49.0225,42.2887h-0.0017c-0.0655-0.1025-0.0072-0.2753,0.054-0.4004
					l1.6555-3.5106c0.1842-0.3957,0.4897-0.5918,0.9361-0.5918h1.9844c0.1391,0,0.3178,0.0213,0.3829,0.1234
					c0.0651,0.1025,0.0043,0.2812-0.0566,0.4102c0,0.0021-1.6538,3.5089-1.6538,3.5089c-0.1872,0.3983-0.4906,0.594-0.9237,0.594
					h-1.9844C49.2731,42.4219,49.0885,42.3947,49.0225,42.2887z"/>
				<path fill="#285CA0" d="M14.2936,43.8034c3.474,0,4.8135-2.1887,4.8305-2.2116c0,0,5.1326-8.8479,5.136-8.8513
					c1.0356-2.1546-1.0046-3.8557-1.0046-3.8557c1.0105,0,13.3405,0,14.2021,0c0,0-3.2745,1.7683-5.0364,4.8113
					c0,0-4.1272,7.4029-4.1272,7.4059c-1.2594,2.4516-2.9503,4.1408-5.0241,5.0173c-1.5487,0.6433-3.7949,0.968-6.6724,0.968
					c0,0-9.4844,0-9.7265,0c0.1102-0.2047,2.0032-3.6906,2.0768-3.8263c0.6803,0.5884,1.7977,0.5718,2.795,0.5493L14.2936,43.8034z"
					/>
				<path fill="#285CA0" d="M31.4596,37.919c0.097-0.0357,0.1957-0.0711,0.1957-0.0711c0.6369-0.2289,1.593-0.3459,2.3614-0.3459
					h4.8632c0.3829,0,0.5136,0.0808,0.5591,0.1515c0.0481,0.0804,0.0119,0.1932-0.0289,0.2723
					c-0.0872,0.1813-0.1974,0.3144-0.3336,0.3897c-0.1345,0.0706-0.3646,0.1051-0.6991,0.1051h-4.5437
					c-1.0918,0-1.9691,0.2089-2.6018,0.6225c-0.5867,0.3851-1.082,1.0203-1.5207,1.9385c-0.0013,0-0.2787,0.5893-0.2787,0.5893
					c-0.4382,0.9275-0.5412,1.5704-0.3093,1.9695c0.2549,0.4353,0.9246,0.6489,2.047,0.6489h3.5447
					c0.5659,0,0.9663-0.0328,1.1918-0.0817c0.6744-0.1417,1.2173-0.7808,1.2173-0.7808s-0.1459,0.7263-0.1723,0.8624
					c0.1698,0,5.3147,0,5.6006,0c-0.043-0.0583-0.0889-0.1136-0.0889-0.1136c-0.1872-0.237-0.3136-0.4778-0.3136-0.7803
					c0-0.1991,0.0566-0.4272,0.1864-0.7025l1.7215-3.6425c0.351-0.7412,0.5255-1.3373,0.5255-1.8002
					c0-0.2638-0.0545-0.4808-0.1647-0.6569c-0.3-0.5144-1.0454-0.7654-2.2767-0.7654h-9.438L31.4596,37.919z M34.3515,42.1509
					c0-0.0902,0.0353-0.2042,0.0996-0.3378c-0.0013,0.0017-0.0013,0.0017,0.4497-0.9475c0.1485-0.3212,0.3587-0.5255,0.6463-0.6157
					c0.1136-0.0357,0.348-0.0536,0.6786-0.0536h2.1159l-0.5148,1.0773c-0.2485,0.5395-0.4748,0.8718-0.6697,1.0007
					c-0.14,0.094-0.4353,0.1476-0.8769,0.1476h-1.1696c-0.4548,0-0.5855-0.0408-0.6199-0.0553
					C34.3639,42.2866,34.3515,42.1509,34.3515,42.1509z"/>
				<path fill="#285CA0" d="M60.6156,37.919c0.0957-0.0357,0.1949-0.0711,0.1949-0.0711c0.6374-0.2289,1.5836-0.3459,2.3533-0.3459
					h5.1811c0.3825,0,0.5123,0.0808,0.5595,0.1515c0.0464,0.0804,0.0115,0.1932-0.0302,0.2723
					c-0.0859,0.1813-0.1966,0.3144-0.3349,0.3897c-0.1327,0.0706-0.3629,0.1051-0.6978,0.1051h-4.5429
					c-1.0918,0-1.97,0.2089-2.601,0.6225c-0.5889,0.3851-1.0833,1.0203-1.5215,1.9385c-0.0009,0-0.2787,0.5893-0.2787,0.5893
					c-0.4382,0.9275-0.5421,1.5704-0.3097,1.9695c0.2544,0.4353,0.9246,0.6489,2.0474,0.6489h3.5447
					c0.565,0,0.9663-0.0328,1.1918-0.0817c0.674-0.1417,1.2173-0.7808,1.2173-0.7808s-0.1459,0.7263-0.1732,0.8624
					c0.1715,0,5.3147,0,5.6002,0c-0.0421-0.0583-0.0894-0.1136-0.0894-0.1136c-0.1868-0.237-0.3119-0.4778-0.3119-0.7803
					c0-0.1991,0.0562-0.4272,0.1868-0.7025l1.7202-3.6425c0.351-0.7412,0.5267-1.3373,0.5267-1.8002
					c0-0.2638-0.0549-0.4808-0.1659-0.6569c-0.2995-0.5144-1.0454-0.7654-2.2763-0.7654h-9.915L60.6156,37.919z M63.8156,42.1509
					c0-0.0902,0.0357-0.2042,0.1004-0.3378c-0.0013,0.0017-0.0013,0.0017,0.4497-0.9475c0.1476-0.3212,0.3591-0.5255,0.645-0.6157
					c0.1136-0.0357,0.3497-0.0536,0.6799-0.0536h2.1159l-0.5148,1.0773c-0.2485,0.5395-0.4744,0.8718-0.6693,1.0007
					c-0.14,0.094-0.4353,0.1476-0.8769,0.1476h-1.1713c-0.4536,0-0.5842-0.0408-0.6182-0.0553
					C63.8284,42.2866,63.8156,42.1509,63.8156,42.1509z"/>
			</g>
		</g>
		<g>
			<path fill="#285CA0" d="M75.4521,42.4338c0.4723,0,0.8484,0.3842,0.8484,0.8642c0,0.4876-0.3761,0.868-0.8522,0.868
				c-0.4723,0-0.8565-0.3804-0.8565-0.868c0-0.4799,0.3838-0.8642,0.8565-0.8642H75.4521z M75.4482,42.5683
				c-0.3804,0-0.6914,0.3263-0.6914,0.7297c0,0.411,0.311,0.7335,0.6948,0.7335c0.3838,0.0038,0.6914-0.3225,0.6914-0.7297
				s-0.3072-0.7335-0.6914-0.7335H75.4482z M75.287,43.8005h-0.1536v-0.9637c0.0808-0.0115,0.1574-0.023,0.2727-0.023
				c0.1459,0,0.2421,0.0306,0.2995,0.0728c0.0574,0.0421,0.0885,0.1076,0.0885,0.1996c0,0.1268-0.0842,0.2034-0.1881,0.234v0.0077
				c0.0843,0.0153,0.1421,0.0919,0.1613,0.2344c0.023,0.1498,0.046,0.2072,0.0613,0.2378h-0.1613
				c-0.023-0.0306-0.046-0.1191-0.0651-0.2459c-0.023-0.123-0.0842-0.1689-0.2072-0.1689h-0.1077v0.4153H75.287z M75.287,43.2669
				h0.1115c0.1268,0,0.2344-0.046,0.2344-0.1651c0-0.0842-0.0613-0.1689-0.2344-0.1689c-0.0498,0-0.0842,0.0038-0.1115,0.0077
				V43.2669z"/>
		</g>
	</g>
</g>
<g id="Layer_15">
</g>
<g id="Layer_17">
</g>
<g id="Layer_7">
</g>
<g id="Layer_8">
</g>
<g id="Layer_18">
</g>
</svg>
