<?xml version="1.0" encoding="UTF-8"?><svg id="c" xmlns="http://www.w3.org/2000/svg" viewBox="0 0 44.4637292 14"><path d="M39.0637445,5.9685873c-1.6085089-1.091487-3.8489282-.6893601-4.9404139,.9191469-1.0914879,1.608507-.6893606,3.8489274,.9191461,4.9404152,1.2063795,.8042533,2.8148883,.8042533,4.0212678,0v.459573h2.0106339V5.5090137h-2.0106339v.4595736Zm-1.8382921,4.6531816c-.9765941-.0574469-1.6659547-.8617002-1.6659547-1.8382937,.0574458-.9191471,.8617002-1.6659541,1.8382921-1.6085072,.9191461,.0574469,1.6659547,.8042533,1.6659547,1.7234005-.0574458,.9765935-.8617002,1.7808468-1.8382921,1.7234005Z"/><rect x="9.2489162" y="2.5217863" width="2.1255277" height="9.7659361"/><path d="M29.8722752,5.3366738c-.8042544-.0574466-1.6085067,.2872334-2.0680797,.9191469v-.746807h-2.0106339v6.7787087h2.0106339v-3.5616942c-.0574458-.8042533,.517021-1.4936134,1.3212733-1.5510603h.2297876c.8617002,0,1.3787213,.5170199,1.3787213,1.493614v3.6191406h2.0106317V7.9792212c0-1.5510603-1.2063795-2.6425474-2.8723342-2.6425474Z"/><path d="M17.7510249,5.9685873c-1.6085067-1.091487-3.8489271-.6893601-4.940415,.9191469-1.0914868,1.608507-.6893606,3.8489274,.9191471,4.9404152,1.2063806,.8042533,2.8148873,.8042533,4.0212678,0v.459573h2.010635V5.5090137h-2.0106339s0,.4595736-.0000011,.4595736Zm-1.8382932,4.6531816c-.9765941-.0574469-1.6659536-.8617002-1.6659536-1.8382937,.0574458-.9191471,.8616992-1.6659541,1.8382932-1.6085072,.9191471,.0574469,1.6659536,.8042533,1.6659536,1.7234005-.0574469,.9765935-.8617002,1.7808468-1.8382932,1.7234005h0Z"/><path d="M22.8637794,6.4281609v-.9191471h-2.0680797v6.7787087h2.0680797v-3.1595676c0-1.0340404,1.1489337-1.6085072,1.9531881-1.6085072h0v-2.0106339c-.6893606,0-1.4361671,.3446803-1.9531881,.9191471Z"/><path d="M43.1999039,9.8749619c-.6893584,0-1.2638253,.5744668-1.2638253,1.2638269,0,.6893606,.5744668,1.2638275,1.2638253,1.2638275s1.2638253-.5744668,1.2638253-1.2638269c.0000044-.6893606-.5744624-1.2638275-1.2638253-1.2638275h0Z"/><path d="M7.7553022,2.5217863h-2.1829741c0,1.7808471-.8617002,3.446801-2.2404207,4.538288l-.8617,.6319135,3.3893546,4.5957346h2.7574409l-3.1021212-4.2510543c1.4361671-1.4361674,2.2978673-3.4468013,2.2404204-5.5148818Z"/><rect y="2.5217863" width="2.1829739" height="9.7659361"/></svg>