<?xml version="1.0" encoding="UTF-8"?><svg id="k" xmlns="http://www.w3.org/2000/svg" viewBox="0 0 49.5247842 14"><path d="M18.5181665,3.7176078h-2.7405983c-.1875414,0-.3470333,.1362485-.3762859,.3213861l-1.108421,7.0276167c-.0220403,.1386531,.0853562,.2636813,.2260118,.2636813h1.3083859c.1875414,0,.3470333-.1362485,.3762859-.3217866l.2989445-1.8954566c.0288521-.1855381,.1887445-.3217866,.3758854-.3217866h.8675826c1.8052927,0,2.8471922-.8735933,3.1192888-2.6047503,.1226235-.7573814,.0052097-1.3524665-.3494379-1.7692265-.3895089-.457636-1.0803684-.6996775-1.9976418-.6996775Zm.3161772,2.5666809c-.1498735,.9833932-.9012438,.9833932-1.6277687,.9833932h-.4135548l.2901287-1.8365494c.0172311-.1110026,.1134072-.1927515,.2256113-.1927515h.1895455c.4949028,0,.9617546,0,1.2029935,.2821143,.1438644,.1683074,.187945,.4183632,.1330445,.7637934Z" fill="#253b80"/><path d="M26.7103069,6.2526309h-1.312394c-.1118036,0-.2083802,.0817489-.2256113,.1927515l-.0581062,.3670696-.0917674-.1330425c-.284118-.4123521-.9176739-.5502035-1.5500268-.5502035-1.4502446,0-2.6889034,1.0984032-2.9301438,2.6392133-.1254286,.7686014,.0528965,1.5035423,.4888921,2.0160768,.3999298,.4712597,.9721724,.6676177,1.6530146,.6676177,1.1685312,0,1.8165132-.7513703,1.8165132-.7513703l-.0585067,.364665c-.0220403,.1394542,.0853562,.2644823,.2252108,.2644823h1.1821547c.1879435,0,.3466313-.1362485,.3762874-.3217866l.7092922-4.4917915c.0224439-.138253-.0845536-.2636816-.2248088-.2636816Zm-1.8293356,2.554258c-.1266317,.7497675-.7217157,1.2530856-1.4807002,1.2530856-.3810951,0-.6856498-.122223-.8812076-.3538451-.1939542-.2300192-.2676879-.5574169-.2059756-.9220818,.1182149-.7433555,.7233192-1.2631037,1.4706813-1.2631037,.3726798,0,.6756325,.1238258,.8751953,.357452,.1999664,.2360307,.2793103,.5654309,.2220067,.9284931Z" fill="#253b80"/><path d="M33.6998542,6.2526309h-1.3188053c-.1258307,0-.2440455,.0625141-.3153762,.1671047l-1.8189177,2.6792862-.7710075-2.5746955c-.0484893-.161094-.1971583-.2716957-.3654675-.2716957h-1.2959639c-.1574863,0-.2668869,.1538806-.2167955,.3021509l1.4526492,4.2629746-1.3656895,1.9279163c-.107395,.1518769,.000801,.3606576,.1863384,.3606576h1.3172032c.1250266,0,.2420399-.0609113,.3129701-.1634978l4.3864053-6.3315469c.1049888-.1514764-.0028066-.3586543-.1875429-.3586543Z" fill="#253b80"/><path d="M38.0662156,3.7176078h-2.7410004c-.1871424,0-.3466313,.1362485-.3758869,.3213861l-1.108421,7.0276167c-.0220403,.1386531,.0853546,.2636813,.2252093,.2636813h1.406566c.1306368,0,.2424435-.0953743,.2628787-.2252108l.3145752-1.9920331c.0288521-.1855381,.1887445-.3217866,.3758869-.3217866h.8671821c1.8056917,0,2.8471938-.8735933,3.1196878-2.6047503,.123024-.7573814,.0048092-1.3524665-.3498384-1.7692265-.3891068-.4576352-1.0795659-.6996767-1.9968393-.6996767Zm.3161772,2.5666809c-.149473,.9833932-.9008433,.9833932-1.6277671,.9833932h-.4131528l.2905292-1.8365494c.0172311-.1110026,.1126046-.1927515,.2252093-.1927515h.1895455c.4945023,0,.9617546,0,1.2029935,.2821143,.1438628,.1683074,.1875429,.4183632,.1326424,.7637934Z" fill="#179bd7"/><path d="M46.2579554,6.2526309h-1.311593c-.1126046,0-.2083787,.0817489-.2252093,.1927515l-.0581046,.3670696-.0921694-.1330425c-.284118-.4123521-.9172734-.5502035-1.5496248-.5502035-1.4502461,0-2.6885029,1.0984032-2.9297418,2.6392133-.1250266,.7686014,.0524944,1.5035423,.4884916,2.0160768,.4007308,.4712597,.972174,.6676177,1.6530146,.6676177,1.1685312,0,1.8165116-.7513703,1.8165116-.7513703l-.0585082,.364665c-.0220403,.1394542,.0853546,.2644823,.2260134,.2644823h1.1817542c.1871424,0,.3466313-.1362485,.3758869-.3217866l.7096958-4.4917915c.0216367-.138253-.0857582-.2636816-.2264169-.2636816Zm-1.8293341,2.554258c-.1258307,.7497675-.7217172,1.2530856-1.4807002,1.2530856-.3802925,0-.6856498-.122223-.8812061-.3538451-.1939542-.2300192-.2668869-.5574169-.2059756-.9220818,.1190159-.7433555,.7233192-1.2631037,1.4706813-1.2631037,.3726798,0,.675631,.1238258,.8751953,.357452,.2007659,.2360307,.2801098,.5654309,.2220052,.9284931Z" fill="#179bd7"/><path d="M47.8051771,3.9103593l-1.1248511,7.1562506c-.0220403,.1386531,.0853546,.2636805,.2252093,.2636805h1.1308618c.1879435,0,.3474323-.1362485,.3762874-.3217866l1.109222-7.0272153c.0220403-.1386529-.0853546-.2640816-.2252093-.2640816h-1.2663108c-.1118006,.0004009-.2079782,.08215-.2252093,.1931524Z" fill="#179bd7"/><path d="M2.9117055,12.6959814l.2095821-1.331228-.4668514-.0108199H.4251709L1.9743963,1.5308198c.0048088-.0296541,.0204373-.0573045,.0432788-.0769403,.0228417-.0196358,.0520951-.0304555,.0825505-.0304555h3.7588553c1.2478759,0,2.1090465,.2596736,2.5586663,.7722083,.2107848,.2404384,.3450293,.4916968,.4099479,.7682009,.0681243,.2901291,.0693266,.6367612,.0028051,1.0595323l-.0048084,.0308563v.2708941l.2107848,.1194179c.1775241,.0941716,.318581,.2019682,.4267785,.3253935,.1803292,.2055747,.2969412,.4668514,.3462316,.7766162,.0508931,.318581,.0340618,.6976724-.0492896,1.1268552-.0961753,.4937005-.2516591,.9236843-.4616421,1.275526-.1931524,.3241912-.4392012,.5930814-.731334,.8014616-.2789083,.1979608-.6103133,.3482349-.9849964,.4444102-.3630622,.0945725-.7770167,.1422593-1.2310453,.1422593h-.2925333c-.2091816,0-.4123521,.0753373-.5718429,.2103835-.1598917,.1378513-.2656846,.3261946-.2981439,.5321702l-.0220403,.1198184-.3702752,2.3462787-.0168306,.0861572c-.0044079,.02725-.0120218,.0408743-.0232422,.0500914-.0100181,.0084153-.0244445,.0140255-.03847,.0140255l-1.8060953,.0000008Z" fill="#253b80"/><path d="M9.2360394,4.0854786h0c-.0112204,.0717308-.0240436,.1450644-.0384704,.220402-.4957038,2.5450413-2.1915968,3.4242452-4.3575467,3.4242452h-1.1028111c-.2648832,0-.4880903,.1923506-.5293654,.4536273h0l-.5646297,3.5809301-.1598917,1.0150508c-.0268489,.1715126,.1053922,.3261946,.278508,.3261946h1.9559673c.2316224,0,.4283813-.168307,.4648477-.3967234l.0192352-.0993809,.3682715-2.3370624,.0236431-.1282337c.0360658-.2292182,.2332252-.3975252,.4648477-.3975252h.2925337c1.8950561,0,3.3785614-.7694032,3.8121517-2.9958635,.1811302-.9300963,.0873595-1.7067125-.391915-2.2529085-.1450644-.1646997-.3249923-.3013489-.5353758-.4127522Z" fill="#179bd7"/><path d="M8.7174935,3.8787016c-.0757378-.0220401-.1538809-.0420767-.2340266-.0601097-.080547-.0176322-.1630973-.0332607-.2480522-.0468855-.2973425-.0480877-.6231365-.0709294-.9721732-.0709294h-2.946173c-.0725322,0-.1414579,.0164299-.2031705,.046084-.1358476,.0653194-.2368318,.193954-.2612763,.3514411l-.626743,3.9696393-.0180329,.115811c.0412751-.2612767,.2644823-.4536273,.5293654-.4536273h1.1028111c2.1659499,0,3.8618429-.879604,4.3575467-3.4242448,.0148273-.0753373,.02725-.1486711,.0384704-.220402-.1254286-.0665213-.2612767-.1234251-.4075433-.1719135-.0360658-.0120214-.073334-.0236427-.1110026-.0348632Z" fill="#222d65"/><path d="M3.8526217,4.098302c.0244445-.1574873,.1254286-.2861219,.2612767-.3510402,.0621132-.029654,.1306383-.046084,.2031705-.046084h2.9461726c.3490367,0,.6748307,.0228417,.9721732,.0709294,.0849549,.0136248,.1675052,.0292533,.2480522,.0468855,.0801465,.0180329,.1582889,.0380693,.2340266,.0601097,.0376686,.0112204,.0749368,.0228417,.1114031,.0344628,.1462667,.0484884,.2821147,.1057929,.4075433,.1719135,.147469-.9405151-.0012023-1.580883-.5097293-2.1607406-.5606225-.6383642-1.5724676-.9116626-2.8672292-.9116626H2.1006263c-.2644823,0-.4900938,.1923508-.5309683,.454028L.0040028,11.3912024c-.0308563,.196358,.12062,.3734808,.318581,.3734808H2.6432159l.5826624-3.6967419,.6267434-3.9696393Z" fill="#253b80"/></svg>