<?xml version="1.0" encoding="utf-8"?>
<!-- Generator: Adobe Illustrator 24.0.1, SVG Export Plug-In . SVG Version: 6.00 Build 0)  -->
<svg version="1.1" xmlns="http://www.w3.org/2000/svg" xmlns:xlink="http://www.w3.org/1999/xlink" x="0px" y="0px"
	 viewBox="0 0 80 80" enable-background="new 0 0 80 80" xml:space="preserve">
<g id="Layer_19">
</g>
<g id="Layer_1">
</g>
<g id="Layer_2">
</g>
<g id="Layer_3">
</g>
<g id="Layer_4">
</g>
<g id="Layer_5">
</g>
<g id="Layer_6">
</g>
<g id="Layer_9">
</g>
<g id="Layer_10">
	<rect y="0" fill="none" width="80" height="80"/>
	<g id="Logo1">
		
			<linearGradient id="Palbg_1_" gradientUnits="userSpaceOnUse" x1="1421.63" y1="385.5934" x2="1452.6563" y2="406.5209" gradientTransform="matrix(1 0 0 1 -1397.2974 -347.4449)">
			<stop  offset="0" style="stop-color:#1B0800"/>
			<stop  offset="1" style="stop-color:#0F0000"/>
		</linearGradient>
		<path id="Palbg" fill="url(#Palbg_1_)" d="M50.3772,36.9683c-0.08-0.3599-0.16-0.7198-0.3199-0.9997
			c-0.3199-0.6798-0.8398-1.2397-1.4396-1.6396c-1.4396-0.9997-2.7993-2.1994-5.6785-2.0794
			c-0.9997,0.04-2.0395,0.9997-2.9592,1.3996c-0.9198,0.3599-1.7595,0.7198-2.5993,0.8798
			c-10.8771,2.3194-19.4348,6.6382-17.7952,16.9554c1.3996,8.8776,13.9163,11.277,24.7534,9.7574
			c10.0773-1.4396,16.5955-6.5183,16.5955-14.0362c-0.12-1.9995-1.0397-3.759-2.1594-4.7987
			c-1.8395-1.6396-3.0392-2.2794-3.759-1.2397c-0.12,0.16-0.4399,0.3599-0.9597,0.3599s-1.3996-0.3999-1.7995-0.4799
			c-0.7998-0.1999-1.1997-0.9597-1.4396-1.7595C50.4972,38.288,50.4572,37.4082,50.3772,36.9683z"/>
		
			<linearGradient id="Pal_1_" gradientUnits="userSpaceOnUse" x1="18.8204" y1="1912.7646" x2="57.6641" y2="1924.8174" gradientTransform="matrix(1 0 0 1 0 -1872.85)">
			<stop  offset="0.2173" style="stop-color:#FFDF60"/>
			<stop  offset="0.9309" style="stop-color:#B16A00"/>
		</linearGradient>
		<path id="Pal" fill="url(#Pal_1_)" d="M41.9395,58.6825c-10.8771,1.5596-22.9139-0.9597-24.2735-9.3975
			c-1.5996-9.9173,6.5182-14.1562,17.4353-16.4756c3.559-0.7598,7.0381-0.7998,10.1973-0.1999
			c1.2797,0.4799,1.9195,1.0797,2.1994,1.8395c0.16,0.3599,0.2399,0.7998,0.3199,1.2397c0.08,0.4399,0.08,0.9597,0.16,1.4796
			c0.1999,1.7195,0.5199,3.719,3.639,3.759c0.5199,0,0.9997-0.04,1.4796-0.12c0.4799-0.08,0.9198-0.16,1.3596-0.1999
			c0.8798-0.08,1.6795,0,2.4393,0.7198c0.9997,0.9597,1.0797,1.7995,1.1997,3.719C58.1751,52.2442,51.9768,57.2429,41.9395,58.6825z
			 M42.4993,40.5274c1.7595,0,3.1592-1.1197,3.1592-2.4793s-1.3996-2.4793-3.1592-2.4793c-1.7595,0-3.1592,1.1197-3.1592,2.4793
			C39.3402,39.4077,40.7398,40.5274,42.4993,40.5274z"/>
		<path id="PalR" fill="#7C3809" d="M35.9411,59.2823c-3.599,0-6.9981-0.4799-9.7974-1.3996
			c-5.0386-1.6396-8.0778-4.6388-8.6777-8.5977c-0.7598-4.7187,0.5998-8.4377,4.1189-11.277
			c2.8792-2.3194,7.278-4.1189,13.4764-5.4385c3.4791-0.7198,6.9981-0.7998,10.2772-0.1999h0.04
			c1.2397,0.4799,1.9595,1.0797,2.3194,1.9595c0.16,0.3599,0.2399,0.7598,0.3199,1.2797c0.04,0.2799,0.08,0.5199,0.08,0.8398
			c0.04,0.1999,0.04,0.4399,0.08,0.6798c0.2399,1.9195,0.6398,3.559,3.4391,3.599c0.5199,0,1.0397-0.04,1.4796-0.12
			c0.12-0.04,0.2799-0.04,0.3999-0.08c0.3599-0.04,0.6798-0.12,0.9997-0.12c0.7998-0.08,1.7595-0.04,2.5993,0.7998
			c1.0797,1.0397,1.1197,1.9195,1.2397,3.839c0.04,7.1981-6.0784,12.3567-16.3956,13.7963l-0.04-0.1999l0.04,0.1999
			C39.94,59.1624,37.9006,59.2823,35.9411,59.2823z M40.8198,32.4096c-1.8795,0-3.799,0.1999-5.6785,0.5998
			c-6.1184,1.3196-10.4772,3.0392-13.3164,5.3586c-3.3991,2.7593-4.6787,6.3183-3.9589,10.9171
			c0.7598,4.7987,4.9987,7.1581,8.4377,8.2778c4.2789,1.3996,9.9573,1.7595,15.6358,0.9597
			c10.0773-1.4396,16.0357-6.4383,16.0357-13.3964c-0.12-1.8795-0.1999-2.6393-1.1197-3.559
			c-0.7598-0.7198-1.5196-0.7598-2.2794-0.6798c-0.3199,0.04-0.6398,0.08-0.9597,0.12c-0.12,0.04-0.2799,0.04-0.3999,0.08
			c-0.4399,0.08-0.9597,0.12-1.5196,0.12c-3.3991-0.08-3.639-2.3994-3.839-3.9589c-0.04-0.2399-0.04-0.4399-0.08-0.6798
			c-0.04-0.2799-0.04-0.5599-0.08-0.7998c-0.08-0.5199-0.16-0.8798-0.2799-1.1997c-0.3199-0.7598-0.9597-1.3196-2.0794-1.7195
			C43.819,32.5295,42.3394,32.4096,40.8198,32.4096z M42.4993,40.7273c-1.8795,0-3.3591-1.1997-3.3591-2.6793
			s1.5196-2.6793,3.3591-2.6793c1.8795,0,3.3591,1.1997,3.3591,2.6793C45.8984,39.5276,44.3788,40.7273,42.4993,40.7273z
			 M42.4993,35.8086c-1.6396,0-2.9592,0.9997-2.9592,2.2794c0,1.2797,1.3196,2.2794,2.9592,2.2794
			c1.6396,0,2.9592-0.9997,2.9592-2.2794C45.4585,36.8084,44.1389,35.8086,42.4993,35.8086z"/>
		<path id="PalGloss" fill="#FFFFFF" d="M19.7854,40.3674c0-0.04,0.08-0.7998,0.08-0.7998
			c3.1192-3.599,8.7177-5.6785,15.1959-7.0781c3.3991-0.7198,6.7582-0.8398,10.3172-0.1999c0.6798,0.16,1.0397,0.3199,1.2397,0.5998
			c0.12,0.12,0.12,0.2399,0.08,0.3199c-0.08,0.12-0.12,0.2399-0.2399,0.16c-0.2399-0.1999-0.5998-0.3999-1.1997-0.5598
			c-3.1192-0.5599-6.5582-0.5199-10.0773,0.1999c-6.7182,1.4396-12.2767,3.559-15.1959,7.2381c-0.08,0.12-0.16,0.1999-0.1999,0.2799
			C19.7454,40.4874,19.7854,40.4074,19.7854,40.3674z"/>
		
			<linearGradient id="Schipperbg_1_" gradientUnits="userSpaceOnUse" x1="29.0812" y1="2426.2922" x2="50.3435" y2="2463.1196" gradientTransform="matrix(1 0 0 1 0 -2398.8501)">
			<stop  offset="0" style="stop-color:#1B0800"/>
			<stop  offset="1" style="stop-color:#0F0000"/>
		</linearGradient>
		<path id="Schipperbg" fill="url(#Schipperbg_1_)" d="M32.1821,39.4877c0.04,0,0.04,0,0.08,0c0.12-0.04,0.2399,0,0.3599,0.04
			s0.16,0.08,0.2399,0.08c0.08,0,0.16,0,0.2799-0.08c0.1999-0.08,0.3199-0.2399,0.3199-0.4799c0-0.04-0.04-0.08-0.08-0.12
			c-0.04-0.08-0.08-0.16-0.12-0.2399c-0.04-0.12-0.08-0.2399-0.04-0.3599c0-0.2399,0.1999-0.5199,0.4799-0.5599
			c0.1999-0.04,0.3599,0.04,0.4799,0.08c0.2399,0.12,0.4799,0.2799,0.5998,0.4399c0.08,0.08,0.12,0.12,0.16,0.1999
			c0.04,0.04,0.08,0.08,0.12,0.12s0.08,0.04,0.12,0.08c0.04,0,0.08-0.2399,0.16-0.4799c0.08-0.2399,0.16-0.5199,0.1999-0.5599
			c0,0,0.04-0.12,0.08-0.2399c0.04-0.12,0.12-0.2799,0.1999-0.3199c0.1999-0.08,1.3996,1.2797,1.4796,1.6796
			c0.04,0.2799,0,0.5598-0.08,0.7598c-0.04,0.08-0.08,0.1999-0.16,0.2799c-0.04,0.08-0.12,0.16-0.16,0.2399
			c-0.04,0.08-0.08,0.12-0.12,0.1999c-0.04,0.04-0.08,0.08-0.08,0.16c-0.04,0.08-0.04,0.12-0.04,0.1999c0.04,0,0.08-0.04,0.12-0.08
			c0.08-0.04,0.16-0.12,0.2799-0.2399c0.1999-0.16,0.4399-0.3599,0.5998-0.3199c0,0,0.2799,0.2799,0.5598,0.5598
			c0.2799,0.2799,0.5998,0.5998,0.6798,0.7198c0.16,0.16,0.3199,0.5998,0.04,0.9597c-0.1999,0.2399-0.4799,0.3199-0.6798,0.3599
			c-0.08,0-0.04,0.1999-0.04,0.1999c-0.04,0,0.5199,0.3199,0.5199,0.3199l0.3599,1.2397l2.9592-1.8395l2.1594,1.2397v0.2399
			c0.16-0.08,0.2799-0.1999,0.4399-0.3599c0.16-0.16,0.3199-0.3199,0.5199-0.4799c0.3599-0.3199,0.7198-0.5599,1.1197-0.4399
			c0.5199,0.1999,0.9597,0.4799,1.3596,0.7598c0.3999,0.2799,0.7198,0.5598,1.0397,0.7598l2.9992-1.6795l2.1194,1.1997l0.04,0.2399
			c0.16-0.08,0.3199-0.1999,0.5199-0.3199c0.1999-0.16,0.4399-0.2799,0.6798-0.4399c0.4799-0.2799,0.9597-0.4399,1.3196-0.2799
			c0.6398,0.3199,1.6796,0.9597,2.3194,1.5996c0.12,0.12,0.1999,0.1999,0.2799,0.3199c0.2799-0.2799,0.5598-0.4799,0.9198-0.6798
			c0.3999-0.1999,1.1197-0.6798,1.9195-1.0397s1.6795-0.6398,2.3594-0.4799c0.4799,0.12,0.9597,0.3999,1.4796,0.7198
			c0.5199,0.3199,0.9997,0.7198,1.4396,1.0397l2.7193-1.7595l2.1594,1.0797v0.12c0.08-0.04,0.16-0.16,0.2-0.3199
			c0.04-0.16,0.08-0.3199,0.12-0.4799c0.08-0.3199,0.2399-0.6398,0.5598-0.6398l2.1194,1.2397v4.9187h-0.6798h-0.2399
			c-1.1997,0-1.3196,0.04-1.5596,0.16c-0.08,0.04-0.16,0.08-0.16,0.08c-0.08,0.08-0.08,0.1999-0.08,0.5199v2.3194h-5.1186
			l-0.2399-0.3199c-1.6396,0.3599-2.6793,0.5199-3.9189,0.5199c-1.5996,0-2.9592-0.3599-3.879-1.1597
			c-0.7198,0.7598-1.7595,1.1597-3.0792,1.1597c-0.7198,0-1.5196-0.12-1.9995-0.3199l-0.12-0.04v1.8795h-5.0786l-0.9997-1.7595
			c-0.4799,0.1999-0.7198,0.2399-1.3596,0.2399c-0.7198,0-1.5196-0.12-1.9995-0.3199l-0.12-0.04v1.8795h-5.0786l-1.0397-1.7595
			l-2.0794,0.6398l-0.5598-0.6398l-4.5988,0.08l-0.5998-1.1597v1.1597H25.144c-0.7598,0.12-1.4396,0.1999-2.3194,0.1999
			c-1.4796,0-2.7992-0.1999-3.599-0.6398c-0.08-0.04-0.1999-0.08-0.2799-0.16c-0.12,0.12-0.2799,0.2399-0.3999,0.3199
			c-1.1997,0.8398-2.4793,1.1597-5.1586,1.1597c-2.3994,0-3.639-0.12-6.1583-0.5998l-0.3599-0.08l-1.4796-2.1994l1.4796-1.3996
			l0.5199,0.08c2.4793,0.4399,4.0389,0.5599,6.0384,0.5599c0.4399,0,0.8798-0.1999,0.8798-0.7598c0-0.08,0-0.08-0.04-0.12
			c-0.04-0.04-0.12-0.12-0.3199-0.1999c-0.08-0.04-0.1999-0.04-0.2799-0.04s-0.1999,0-0.3199,0h-0.9997
			c-0.5199,0-1.6795-0.08-2.3594-0.16c-2.3994-0.3199-3.9589-2.1994-4.7987-4.7587c-0.2799-0.8798,0.1999-1.5596,0.9198-2.1194
			c0.3599-0.2799,0.7598-0.5199,1.1197-0.7598c0.3999-0.1999,0.7598-0.3999,1.0397-0.5998
			c1.1997-0.7198,2.9192-1.1197,5.4385-1.1197c0.4799,0,0.8798-0.08,1.1997-0.16s0.5998-0.2399,0.8798-0.3599
			c0.5598-0.2399,1.1197-0.3999,2.0794-0.1999l1.9995,1.3996l-0.4799,5.0786c0.8798-0.3599,2.0395-0.5599,3.3191-0.5599
			c0.7598,0,1.5196,0.08,2.4393,0.1999l2.9992-2.7992l1.4796,0.8398c-0.04-0.08-0.08-0.16-0.04-0.1999
			c0.08-0.3599,0.4799-0.2799,0.8798-0.16c0.1999,0.04,0.4399,0.12,0.5998,0.16c0.1999,0.04,0.3599,0.08,0.4399,0.04
			c0.1999-0.08,0.3199-0.12,0.4799-0.16c0.12-0.04,0.1999-0.08,0.2799-0.12c0-0.04-0.04-0.08-0.08-0.08
			c-0.12-0.08-0.1999-0.16-0.2399-0.1999c-0.12-0.12-0.12-0.2799-0.08-0.3999c-0.08-0.04-0.12-0.08-0.1999-0.12
			c-0.08,0-0.1999,0-0.3199,0c-0.16,0-0.3199,0-0.3999,0.04c-0.2799,0.08-0.6798,0.16-1.0397,0.12
			c-0.3599-0.04-0.7598-0.16-0.9198-0.6798l-0.9597-1.4396c0.08-0.4399,0.5998-0.3599,1.1197-0.2399
			c0.2799,0.08,0.5598,0.1999,0.7998,0.2799s0.4799,0.16,0.5998,0.16C31.1424,38.7678,31.7422,39.0478,32.1821,39.4877
			c-0.04,0.04-0.04,0.04-0.08,0H32.1821z M32.1421,39.4477c0.04,0,0.04,0.04,0.08,0.04
			C32.1821,39.4877,32.1421,39.4477,32.1421,39.4477L32.1421,39.4477z"/>
		
			<linearGradient id="Schipper_1_" gradientUnits="userSpaceOnUse" x1="5.2251" y1="2442.8564" x2="72.6346" y2="2442.8564" gradientTransform="matrix(1 0 0 1 0 -2398.8501)">
			<stop  offset="0" style="stop-color:#DDAB36"/>
			<stop  offset="0.6822" style="stop-color:#B16A00"/>
		</linearGradient>
		<path id="Schipper" fill="url(#Schipper_1_)" d="M24.1443,45.3661c-0.8398-0.12-1.6396-0.1999-2.2794-0.1999
			c-0.5199,0-0.7998,0.04-1.0797,0.12c-0.4399,0.08-0.7198,0.4799-0.7198,0.9198c0,0.6398,0.5199,0.9997,1.3996,0.9997
			c0.6798,0,1.5996-0.12,2.6793-0.3199V45.3661L24.1443,45.3661z M41.8195,46.1259c0,0.8398,0.4399,1.3996,1.1597,1.3996
			c0.7198,0,1.1197-0.5199,1.1197-1.3996c0-0.7998-0.4399-1.3196-1.1197-1.3196C42.2594,44.8062,41.8195,45.2861,41.8195,46.1259z
			 M51.4169,46.1259c0,0.8398,0.4399,1.3996,1.1597,1.3996c0.7198,0,1.1197-0.5199,1.1197-1.3996
			c0-0.7998-0.4399-1.3196-1.1197-1.3196C51.8568,44.8062,51.4169,45.2861,51.4169,46.1259z M65.3732,48.8851
			c-1.8795,0.4399-2.8392,0.5598-4.1189,0.5598c-1.0797,0-2.0794-0.1999-2.7593-0.5598c-0.5998-0.3199-1.0397-0.7198-1.2797-1.2797
			c-0.3999,1.2797-1.3196,1.8395-2.9592,1.8395c-1.0797,0-1.8395-0.2399-2.3594-0.6798c-0.08-0.08-0.1999-0.16-0.3999-0.3999v2.4793
			h-3.759l0.04-3.719c-0.2799,1.5996-1.2797,2.2794-3.0792,2.2794c-1.0797,0-1.8395-0.1999-2.3594-0.6398
			c-0.08-0.08-0.1999-0.16-0.3999-0.3999v2.4393h-3.759v-2.1194l-3.2791,0.9597l-1.1597-4.0789v3.679h-3.759v-3.1991
			c0-0.6798-0.2799-0.9597-0.9597-0.9597c-0.7198,0-1.0397,0.3199-1.0397,1.0397v3.1192h-3.759v-0.2399
			c-0.9997,0.3199-1.9195,0.4399-2.9992,0.4399c-1.1197,0-2.1594-0.12-2.7992-0.3599c-0.4399-0.16-0.7998-0.3599-1.1197-0.6398
			c-0.1999,0.2399-0.4399,0.4799-0.6798,0.6398c-1.0797,0.7598-2.2394,1.0797-4.9187,1.0797c-2.3594,0-3.559-0.12-6.0784-0.5998
			v-2.7193c2.5193,0.4399,4.0789,0.5599,6.1583,0.5599c0.5598,0,1.3196-0.2799,1.3196-1.1997c0-0.2399-0.08-0.5199-0.6398-0.7198
			c-0.16-0.04-0.2799-0.08-0.3999-0.08c-0.08,0-0.1999,0-0.3199,0h-0.9997c-0.5199,0-1.6396-0.08-2.2794-0.16
			c-2.1194-0.2799-3.1192-1.6796-3.1192-3.879c0-1.7195,0.6398-2.5593,1.5996-3.1592c1.0797-0.6798,2.7193-1.0397,5.2386-1.0397
			c1.9195,0,3.759,0.1999,5.6785,0.5998v2.6793c-1.7995-0.2799-3.3191-0.3999-5.6385-0.3999c-0.2799,0-0.6398,0-0.9198,0.16
			c-0.3999,0.16-0.6798,0.5599-0.6798,0.9997s0.1999,0.5998,0.4399,0.6398c0.12,0.04,0.2399,0.04,0.3999,0
			c0.12,0,0.2399-0.04,0.3599-0.04h1.9595c1.0397,0,2.2394,0.1999,2.8392,0.4799c0.3199,0.12,0.6398,0.4799,0.8798,0.9198
			c0.7998-0.4799,1.9995-0.7198,3.5191-0.7198c0.8798,0,2.0395,0.12,3.1192,0.3199v-1.7195h3.759v2.6393
			c0.2799-0.3599,0.3599-0.4399,0.5199-0.5998c0.5199-0.4399,1.2797-0.6398,2.3594-0.6398c1.0797,0,1.8795,0.2799,2.3194,0.8398
			c0.4799-0.08,0.9198-0.16,1.7595-0.3999c0.8798-0.2399,1.2797-0.3999,1.7595-0.6398l1.4796,5.1186v-4.7587h3.759v0.9997
			l0.2799-0.3599c0.4799-0.5199,1.3596-0.8398,2.3994-0.8398c0.9997,0,1.8795,0.2799,2.3994,0.7598
			c0.3999,0.3599,0.6398,0.8798,0.7598,1.5596v-2.1594h3.759v0.9997l0.2799-0.3599c0.4799-0.5199,1.3596-0.8398,2.3994-0.8398
			c0.9997,0,1.8795,0.2799,2.3994,0.7598c0.3199,0.3199,0.5199,0.7198,0.6798,1.1997c0.16-0.3999,0.4399-0.7598,0.7598-1.0397
			c0.7198-0.6398,1.8795-0.9198,3.679-0.9198c1.9995,0,3.1991,0.3599,3.839,1.1997c0.2799,0.3599,0.5199,0.9997,0.5998,1.6796
			v-2.6793h3.5191v1.9195c0.2399-0.9997,0.2799-1.1197,0.5598-1.4796c0.3599-0.4799,0.7598-0.5998,1.6396-0.5998
			c0.2799,0,0.4399,0,0.7998,0.08v3.639c-1.2397,0-1.4796,0-1.7995,0.12c-0.7198,0.1999-0.9597,0.5199-0.9597,1.3196v1.6396h-3.759
			v-2.7593h-5.1986c0,0.3199,0.04,0.5199,0.08,0.7198c0.12,0.4399,0.5998,0.6398,1.3196,0.6398c0.6398,0,1.5196-0.08,2.3594-0.2399
			l1.1997-0.1999L65.3732,48.8851z M63.1338,44.8062c-0.12-0.4399-0.5598-0.7198-1.1197-0.7198
			c-0.7998,0-1.1597,0.3599-1.2797,1.1597h2.4393C63.1738,44.9662,63.1338,44.8862,63.1338,44.8062z"/>
		<g id="SchipperR">
			<g>
				<path id="SchipperR4_8_" fill="#7C3809" d="M43.0192,44.5663c-0.8798,0-1.3996,0.5998-1.3996,1.5196
					c0,0.9997,0.5598,1.6396,1.3996,1.6396s1.3596-0.6398,1.3596-1.6396C44.3788,45.1661,43.819,44.5663,43.0192,44.5663z
					 M42.9792,47.2456c-0.5998,0-0.9198-0.3999-0.9198-1.1597c0-0.3999,0.12-1.0797,0.9198-1.0797
					c0.5599,0,0.8798,0.3999,0.8798,1.0797C43.899,46.8457,43.579,47.2456,42.9792,47.2456z"/>
				<path id="SchipperR3_8_" fill="#7C3809" d="M52.5766,44.5663c-0.8398,0-1.3596,0.5998-1.3596,1.5196
					c0,0.9597,0.5199,1.5996,1.3596,1.5996c0.8398,0,1.3596-0.5998,1.3596-1.5996C53.9363,45.1661,53.4164,44.5663,52.5766,44.5663z
					 M52.5766,47.2456c-0.5998,0-0.9198-0.4399-0.9198-1.1597c0-0.6798,0.3199-1.0797,0.9597-1.0797
					c0.5599,0,0.9198,0.3999,0.9198,1.0797C53.4964,46.8457,53.1765,47.2456,52.5766,47.2456z"/>
				<path id="SchipperR2_8_" fill="#7C3809" d="M63.1738,45.4461c0.04,0,0.12-0.04,0.16-0.08c0.04-0.04,0.08-0.08,0.08-0.16
					c0-0.2799,0-0.3599-0.04-0.4799l0,0c-0.16-0.5199-0.6798-0.8798-1.3196-0.8798c-0.8798,0-1.3596,0.3999-1.4796,1.3596
					c0,0.08,0,0.12,0.04,0.16s0.12,0.08,0.16,0.08H63.1738L63.1738,45.4461z M62.0141,44.2864c0.4799,0,0.7998,0.1999,0.9198,0.5598
					c0,0.04,0,0.08,0.04,0.16h-1.9195C61.1343,44.4863,61.4143,44.2864,62.0141,44.2864z"/>
				<path id="SchipperR1_8_" fill="#7C3809" d="M72.8512,42.5668c0-0.12-0.08-0.1999-0.1999-0.1999
					c-0.3999-0.04-0.5598-0.08-0.8398-0.08c-0.9198,0-1.3996,0.1999-1.7995,0.7198c-0.08,0.08-0.12,0.16-0.16,0.2399v-0.5599
					c0-0.12-0.08-0.1999-0.1999-0.1999H66.133c-0.12,0-0.2,0.08-0.2,0.1999v1.1997c-0.08-0.12-0.12-0.2399-0.1999-0.3199
					c-0.6798-0.8798-1.9595-1.2797-3.9989-1.2797c-1.8395,0-3.0392,0.3199-3.799,0.9597c-0.2399,0.1999-0.3999,0.4399-0.5598,0.6798
					c-0.16-0.3199-0.3199-0.5998-0.5598-0.8398c-0.5598-0.5199-1.4796-0.8398-2.5193-0.8398c-1.0397,0-1.9195,0.2799-2.4793,0.7998
					v-0.3999c0-0.12-0.08-0.1999-0.1999-0.1999h-3.759c-0.12,0-0.1999,0.08-0.1999,0.1999v0.9198
					c-0.12-0.1999-0.2399-0.3599-0.3999-0.4799c-0.5599-0.5199-1.4796-0.8398-2.5593-0.8398c-0.9997,0-1.8795,0.2799-2.4393,0.7598
					v-0.3599c0-0.12-0.12-0.2399-0.2399-0.2399h-3.759c-0.12,0-0.2399,0.12-0.2399,0.2399v3.0792l-1.0797-3.759l-0.2399,0.12
					c-0.4399,0.1999-0.8398,0.3599-1.7195,0.5998c-0.7998,0.2399-1.2397,0.3199-1.6795,0.3999
					c-0.5199-0.5598-1.2397-0.8398-2.3194-0.8398c-1.1597,0-1.9195,0.1999-2.5193,0.6798c-0.08,0.04-0.12,0.12-0.16,0.16v-2.0395
					c0-0.12-0.08-0.1999-0.1999-0.1999h-3.9189c-0.12,0-0.1999,0.08-0.1999,0.1999v1.4796
					c-1.0397-0.1999-1.9995-0.2799-2.8792-0.2799c-1.4396,0-2.5993,0.2399-3.4391,0.6798
					c-0.2799-0.3999-0.5599-0.6798-0.8798-0.7998c-0.6398-0.2799-1.8795-0.4799-2.9192-0.4799h-2.1194c-0.08,0-0.16,0-0.2399,0
					c-0.1999,0-0.4799,0.04-0.5998-0.08c-0.08-0.08-0.12-0.1999-0.12-0.3599c0-0.3599,0.1999-0.6798,0.5598-0.8398
					c0.2399-0.12,0.5598-0.12,0.8398-0.12c2.3594,0,3.879,0.12,5.5985,0.3599c0.08,0,0.12,0,0.16-0.04
					c0.04-0.04,0.08-0.12,0.08-0.16v-2.6393c0-0.12-0.08-0.1999-0.16-0.1999c-1.9595-0.3999-3.759-0.5998-5.7185-0.5998
					c-2.3994,0-4.1589,0.3599-5.3586,1.0797c-1.1597,0.7198-1.6795,1.7595-1.6795,3.3191c0,2.3994,1.1597,3.799,3.3191,4.1189
					c0.6798,0.08,1.7995,0.16,2.3194,0.16h0.9997c0.16,0,0.2399,0,0.3199,0c0.08,0,0.1999,0,0.3199,0.04
					c0.5199,0.16,0.5199,0.3999,0.5199,0.5199c0,0.9198-0.9198,0.9597-1.0797,0.9597c-1.9195,0-3.4791-0.16-6.0784-0.5998
					c-0.08,0-0.12,0-0.16,0.04c-0.04,0.04-0.08,0.12-0.08,0.16v2.7593c0,0.12,0.08,0.1999,0.16,0.1999
					c2.4393,0.4799,3.679,0.5998,6.1184,0.5998c2.5993,0,3.879-0.2799,5.0386-1.1197c0.1999-0.16,0.3999-0.3199,0.5598-0.5199
					c0.2799,0.2399,0.6398,0.4399,1.0397,0.5599c0.6798,0.2399,1.7195,0.3599,2.8792,0.3599c1.0397,0,1.7595-0.12,2.7593-0.3999l0,0
					c0,0.12,0.08,0.1999,0.1999,0.1999h3.759c0.12,0,0.1999-0.08,0.1999-0.1999v-3.1192c0-0.5998,0.1999-0.7998,0.7998-0.7998
					c0.5599,0,0.7198,0.1999,0.7198,0.7198v3.1991c0,0.12,0.08,0.1999,0.1999,0.1999h3.799c0.04,0,0.12-0.04,0.16-0.08
					c0.04-0.04,0.08-0.08,0.08-0.16v-2.0794l0.7998,2.7593l3.1991-0.8798v1.7995c0,0.12,0.12,0.2399,0.2399,0.2399h3.759
					c0.12,0,0.2399-0.12,0.2399-0.2399v-1.9195l0,0c0.5598,0.4799,1.3996,0.7198,2.5193,0.7198
					c1.3596,0,2.3194-0.4399,2.8392-1.2397v2.3994c0,0.12,0.08,0.1999,0.1999,0.1999h3.759c0.12,0,0.1999-0.08,0.1999-0.1999
					v-1.9595l0,0h0.04c0.5598,0.4799,1.3996,0.7198,2.5193,0.7198c1.5196,0,2.4793-0.4799,2.9992-1.5596
					c0.2799,0.3999,0.6398,0.7198,1.1197,0.9597c0.7198,0.3599,1.7195,0.5598,2.8792,0.5598c1.3196,0,2.2794-0.12,4.1589-0.5998
					c0.08,0,0.12-0.08,0.16-0.12l0.3199-0.8798v1.1997c0,0.12,0.08,0.1999,0.2,0.1999h3.759c0.12,0,0.1999-0.08,0.1999-0.1999
					v-1.6396c0-0.7198,0.16-0.9597,0.7998-1.1197c0.3199-0.08,0.5199-0.12,1.7595-0.12c0.04,0,0.12-0.04,0.16-0.08
					c0.04-0.04,0.08-0.08,0.08-0.16L72.8512,42.5668z M16.4263,48.9251c-0.9597,0.6798-1.9995,1.0397-4.7987,1.0397
					c-2.3594,0-3.559-0.12-5.8384-0.5598v-2.3194c2.4793,0.4399,3.9989,0.5599,5.9184,0.5599c0.7598,0,1.5196-0.4399,1.5196-1.3996
					c0-0.4399-0.2399-0.7198-0.7998-0.9198c-0.16-0.04-0.3199-0.08-0.4399-0.08c-0.08,0-0.1999,0-0.3599,0h-0.9997
					c-0.4799,0-1.5996-0.08-2.2394-0.16c-1.9595-0.2799-2.9192-1.4796-2.9192-3.679c0-1.4396,0.4399-2.3194,1.4796-2.9592
					c1.1197-0.6798,2.7992-0.9997,5.1186-0.9997c1.8795,0,3.599,0.16,5.4785,0.5598v2.1994
					c-1.6396-0.2399-3.1592-0.3599-5.4385-0.3599c-0.2799,0-0.6798,0-0.9997,0.16c-0.5199,0.2399-0.7998,0.6798-0.7998,1.2397
					c0,0.2799,0.08,0.5199,0.2399,0.6798c0.2799,0.2399,0.6798,0.1999,0.9597,0.1999c0.08,0,0.16,0,0.1999,0h2.0794
					c0.9997,0,2.1594,0.1999,2.7593,0.4399c0.2399,0.08,0.4399,0.3199,0.6798,0.6398c-0.7198,0.5199-1.1597,1.5196-1.1597,2.7193
					c0,1.0797,0.3199,1.9195,0.8798,2.5593C16.7862,48.6452,16.6263,48.8052,16.4263,48.9251z M21.185,49.245
					c-1.1197,0-2.1194-0.12-2.7593-0.3199c-0.3999-0.12-0.7598-0.3199-1.0397-0.5998l0,0l0,0
					c-0.5598-0.5598-0.8798-1.3596-0.8798-2.3594c0-1.0797,0.3999-1.9595,1.0797-2.3994l0.04-0.04l0,0l0,0
					c0.7598-0.4399,1.9595-0.7198,3.3991-0.7198c0.8798,0,1.8395,0.08,2.8792,0.2799v2.1194c-0.7598-0.12-1.3996-0.16-2.0395-0.16
					c-0.5599,0-0.8398,0.04-1.1197,0.12c-0.5199,0.12-0.8798,0.5599-0.8798,1.1197c0,0.7598,0.5998,1.1997,1.5996,1.1997
					c0.7198,0,1.4796-0.12,2.4793-0.3199v1.7195C22.9046,49.1251,22.2248,49.245,21.185,49.245z M21.465,46.9656
					c-0.5199,0-1.1597-0.12-1.1597-0.7598c0-0.3599,0.1999-0.6398,0.5599-0.7198c0.2799-0.08,0.5199-0.12,1.0397-0.12
					c0.6398,0,1.3196,0.08,2.0395,0.1999v1.0797C22.7846,46.8857,22.1048,46.9656,21.465,46.9656z M33.5017,49.0451h-3.3591v-2.9992
					c0-0.7998-0.3999-1.1597-1.1597-1.1597c-0.8398,0-1.2397,0.3999-1.2397,1.2397v2.9192h-3.3191v-6.2383v-0.16l0,0v-1.3196h3.3191
					v2.4393c0,0.08,0.08,0.16,0.16,0.1999s0.1999,0,0.2399-0.08c0.2399-0.3599,0.3199-0.3999,0.4799-0.5598
					c0.4799-0.3999,1.1997-0.5998,2.2394-0.5998c0.9597,0,1.5996,0.1999,1.9995,0.6798l0.6398,2.2394V49.0451z M35.0213,49.405
					l-1.0797-3.799l0,0c0-0.04,0-0.04,0-0.04l-0.5598-1.9995c0.4399-0.08,0.8398-0.16,1.5996-0.3999
					c0.7598-0.1999,1.1597-0.3599,1.5596-0.5199l1.3596,4.7187v1.2397L35.0213,49.405z M44.6587,49.205
					c-0.9997,0-1.7195-0.1999-2.2394-0.5998l0,0c-0.08-0.08-0.16-0.16-0.3599-0.3599c-0.08-0.08-0.16-0.08-0.2399-0.04
					c-0.08,0.04-0.16,0.12-0.16,0.1999v2.2394h-3.3191v-7.6779h3.3191v0.7598c0,0.12,0.08,0.1999,0.16,0.2399
					c0.08,0.04,0.1999,0,0.2799-0.08l0.2799-0.3199c0.4399-0.4799,1.2797-0.7598,2.2394-0.7598
					c0.9198,0,1.7595,0.2799,2.2394,0.7198c0.3999,0.3999,0.6398,0.9997,0.7198,1.7595c0,0,0,0.1999,0,0.4399v1.4396
					C47.298,48.5652,46.4183,49.205,44.6587,49.205z M54.2562,49.245c-0.9997,0-1.7595-0.1999-2.2394-0.6398l0,0
					c-0.08-0.08-0.16-0.16-0.3599-0.3599c-0.08-0.08-0.16-0.08-0.2399-0.04c-0.08,0.04-0.12,0.12-0.12,0.1999v2.2394h-3.3191
					v-3.3591c0-0.08,0.04-0.12,0.04-0.1999v-0.04c0-0.3199,0-1.8395,0-1.8395c0-0.08-0.04-0.16-0.04-0.1999v-2.0794h3.3191v0.7598
					c0,0.08,0.04,0.16,0.16,0.1999c0.08,0.04,0.1999,0,0.2399-0.08l0.2799-0.3199c0.4399-0.4799,1.2797-0.7598,2.2394-0.7598
					c0.9198,0,1.7595,0.2799,2.2394,0.7198c0.2799,0.2399,0.4799,0.5998,0.5998,1.0397c-0.04,0.12-0.08,0.2799-0.12,0.3999
					c-0.12,0.3599-0.1999,0.7598-0.1999,1.1997c0,0.5998,0.08,1.1197,0.2799,1.5596C56.6155,48.7252,55.7758,49.245,54.2562,49.245z
					 M65.2132,48.6852c-1.7995,0.4399-2.6793,0.5599-3.9589,0.5599c-1.0397,0-2.0395-0.1999-2.6793-0.5199
					c-0.5598-0.2799-0.9198-0.6798-1.1597-1.1597v-0.04c-0.2399-0.5599-0.2799-1.7595-0.08-2.5593c0.04-0.08,0.04-0.12,0.04-0.1999
					c0-0.04,0.04-0.08,0.04-0.08c0.16-0.3999,0.3999-0.7598,0.7198-1.0397c0.6798-0.5998,1.8395-0.8798,3.5191-0.8798
					c1.9195,0,3.0792,0.3599,3.679,1.1197c0.2399,0.3199,0.4399,0.8798,0.5598,1.4796v0.5998c0,0.12,0,0.2399,0,0.3599h-4.9987
					c-0.04,0-0.12,0.04-0.16,0.08c-0.04,0.04-0.08,0.12-0.08,0.16c0,0.3599,0.04,0.5598,0.12,0.7598
					c0.16,0.5199,0.6798,0.7998,1.5596,0.7998c0.6398,0,1.5196-0.08,2.3994-0.2399l0.8398-0.16L65.2132,48.6852z M65.8931,47.2056
					l-1.2397,0.1999c-0.8398,0.12-1.7195,0.2399-2.3194,0.2399c-0.9597,0-1.0797-0.3599-1.1197-0.4799
					c-0.04-0.12-0.08-0.2399-0.08-0.3999h4.7587L65.8931,47.2056L65.8931,47.2056z M70.7717,46.1259
					c-0.7998,0.2399-1.1197,0.6398-1.1197,1.5196v1.3996h-3.3191v-3.1192v-0.04c0-0.2399,0-0.4399,0-0.5599c0,0,0,0,0-0.04l0,0
					v-2.3994h3.0792v1.6795c0,0.12,0.08,0.1999,0.1999,0.1999s0.1999-0.08,0.2399-0.16c0.2-0.9597,0.2799-1.0397,0.5199-1.3996
					c0.3199-0.3999,0.6798-0.5199,1.4396-0.5199c0.1999,0,0.3599,0,0.5998,0.04v3.2391
					C71.4116,46.0059,71.1316,46.0059,70.7717,46.1259z"/>
			</g>
		</g>
		<path id="Fleck" fill="#BD271D" d="M32.582,42.1269c-0.16,0.08-0.2799,0.1999-0.3999,0.3199
			c-0.12,0.12-0.2799,0.2799-0.3999,0.3999c-0.2399,0.2399-0.6398,0.6398-0.7998,0.3199c-0.16-0.3199,0.04-0.6398,0.2399-0.9198
			c0.04-0.04,0.08-0.08,0.12-0.12l0.12-0.12c0.08-0.08,0.12-0.16,0.16-0.2799c0-0.08-0.04-0.12-0.08-0.16
			c-0.04,0-0.04-0.04-0.08-0.04l-0.08-0.04c-0.16-0.08-0.2799-0.08-0.4399-0.08s-0.2799,0.04-0.4399,0.08l-0.2799,0.04
			c-0.08,0-0.1999,0.04-0.2799,0.04c-0.16,0-0.3199-0.04-0.2799-0.2399c0.08-0.4399,0.4399-0.5998,0.8398-0.7598
			c0.16-0.08,0.3199-0.12,0.4799-0.16c0.16-0.04,0.2799-0.12,0.4399-0.2399c0.2399-0.16,0.16-0.5998-0.12-0.7998
			c-0.16-0.12-0.16-0.16-0.16-0.1999c0.04-0.04,0.04-0.08,0.04-0.08c0-0.04,0-0.12-0.04-0.1999c0-0.04-0.04-0.04-0.08-0.08
			c-0.04-0.04-0.12-0.08-0.16-0.12c-0.12-0.08-0.2399-0.16-0.2799-0.2399c-0.04-0.12,0-0.12,0.08-0.12s0.16,0.04,0.2399,0.04
			c0.16,0,0.3199,0.04,0.3999,0.08c0.12,0.04,0.1999,0.08,0.2799,0.08c0.16,0.04,0.3199,0.04,0.6398-0.08
			c0.3999-0.16,0.5998-0.4799,0.5998-0.9198c0-0.08,0-0.12-0.04-0.1999c-0.04-0.04-0.04-0.12-0.08-0.16
			c-0.08-0.12-0.12-0.1999-0.12-0.3599c0-0.1999,0.1999-0.16,0.3599-0.08s0.3999,0.2399,0.5199,0.3599
			c0.08,0.08,0.12,0.12,0.16,0.1999c0.04,0.08,0.12,0.12,0.16,0.16c0.12,0.08,0.2399,0.16,0.3999,0.1999
			c0.2399,0.04,0.3999-0.04,0.5199-0.16l0.2399-0.16c0.08-0.04,0.16-0.12,0.2799-0.16c0.2799-0.12,0.6798-0.12,0.7598,0.1999
			c0.04,0.1999,0,0.3599-0.08,0.5199c-0.04,0.08-0.08,0.16-0.12,0.1999c-0.04,0.08-0.12,0.12-0.16,0.1999
			c-0.1999,0.2799-0.4399,0.5599-0.3599,0.9198c0.08,0.3999,0.3599,0.5199,0.7198,0.5598c0.3599,0.04,0.7998,0,1.1997,0.08
			c0.3199,0.04,0.6798,0.3999,0.4799,0.6798c-0.12,0.16-0.2799,0.1999-0.4399,0.2399c-0.08,0-0.16,0-0.2399,0.04
			c-0.08,0-0.16,0.04-0.2799,0.04c-0.6798,0.1999-0.9597,0.8398-0.9597,1.5996c0,0.1999,0,0.3599,0.04,0.4799
			c0,0.16,0,0.3199-0.04,0.4799s-0.08,0.2799-0.2399,0.3599c-0.1999,0.08-0.3999-0.12-0.5199-0.2799
			c-0.2399-0.3199-0.3599-0.6398-0.5599-0.9198c-0.1999-0.2799-0.3999-0.4799-0.7998-0.5998
			C33.1818,41.847,32.9019,41.927,32.582,42.1269z"/>
		<path id="Drop" fill="#BD271D" d="M30.6625,38.4879c-0.08,0.04-0.16,0.04-0.2799,0.04c-0.12,0-0.2399,0-0.3999,0.04
			c-0.12,0-0.2799,0.04-0.3599,0.04c-0.5199,0.12-1.3596,0.2399-1.4396-0.3599c0.1999-0.9997,1.9195-0.6798,2.5593,0.08
			C30.7825,38.4079,30.7425,38.4479,30.6625,38.4879z"/>
		<path id="FleckR" fill="#96491B" d="M35.3413,43.9265c-0.16,0-0.3599-0.08-0.5599-0.3599
			c-0.12-0.1999-0.2399-0.3599-0.3599-0.5599c-0.08-0.12-0.16-0.2399-0.2399-0.3599c-0.1999-0.2799-0.3999-0.4399-0.6798-0.5199
			c-0.3199-0.04-0.5598,0-0.8398,0.16l0,0c-0.12,0.08-0.2399,0.16-0.3999,0.3199c-0.08,0.08-0.16,0.16-0.2799,0.2799
			c-0.04,0.04-0.08,0.08-0.16,0.16c-0.2799,0.2799-0.5598,0.5199-0.8398,0.4799c-0.12,0-0.1999-0.08-0.2799-0.1999
			c-0.2399-0.4399,0.04-0.8398,0.2399-1.1197c0.04-0.08,0.08-0.12,0.12-0.16l0.12-0.12c0.04-0.04,0.08-0.08,0.08-0.12l-0.04-0.04
			l-0.08-0.04c-0.12-0.04-0.1999-0.08-0.3599-0.08c-0.08,0-0.1999,0-0.2799,0.04c-0.04,0-0.08,0-0.16,0.04l-0.2799,0.04
			c-0.12,0-0.2399,0.04-0.3199,0.04c-0.1999,0-0.3199-0.04-0.3999-0.16c-0.04-0.04-0.08-0.16-0.08-0.2799
			c0.12-0.5598,0.5998-0.7598,0.9198-0.9198c0.12-0.04,0.2399-0.08,0.3199-0.12c0.04,0,0.08-0.04,0.16-0.04
			c0.12-0.04,0.2399-0.12,0.3999-0.1999c0.04-0.04,0.08-0.08,0.08-0.12c0-0.12-0.08-0.2799-0.16-0.3599
			c-0.12-0.08-0.3199-0.1999-0.1999-0.4399c0-0.04,0-0.04,0-0.04s0-0.04,0-0.08l0,0c-0.04-0.04-0.08-0.04-0.16-0.08l0,0
			c-0.16-0.08-0.3199-0.16-0.3599-0.3199c-0.04-0.16-0.04-0.2399,0.04-0.2799c0.04-0.04,0.12-0.12,0.2799-0.08
			c0.04,0,0.08,0,0.12,0.04c0.04,0,0.08,0.04,0.12,0.04c0.16,0,0.3199,0.04,0.4399,0.08c0.04,0,0.12,0.04,0.16,0.04
			c0.04,0,0.08,0.04,0.12,0.04c0.12,0.04,0.1999,0.04,0.4799-0.08c0.3199-0.16,0.4799-0.3999,0.4799-0.7598c0-0.04,0-0.08-0.04-0.12
			c0-0.04-0.04-0.08-0.08-0.12c-0.08-0.12-0.16-0.2799-0.16-0.4799c0-0.16,0.12-0.2399,0.16-0.2799
			c0.12-0.08,0.2799-0.04,0.4799,0.04c0.1999,0.12,0.4399,0.2799,0.5599,0.3999c0.04,0.04,0.12,0.12,0.16,0.16l0.04,0.04
			c0.04,0.04,0.08,0.12,0.12,0.16c0.08,0.08,0.16,0.12,0.2799,0.12c0.16,0,0.2799-0.04,0.3999-0.12l0.2399-0.16
			c0.08-0.04,0.1999-0.12,0.3199-0.16c0.1999-0.08,0.5199-0.12,0.7598,0c0.12,0.08,0.1999,0.1999,0.2399,0.3199
			c0.04,0.1999,0,0.3999-0.08,0.6398c-0.04,0.08-0.08,0.16-0.16,0.2399c-0.04,0.08-0.12,0.16-0.16,0.1999
			c-0.1999,0.2399-0.3599,0.4799-0.3199,0.7598c0.04,0.2399,0.1999,0.3599,0.5598,0.3999c0.16,0.04,0.3599,0.04,0.5599,0.04
			s0.4399,0,0.6798,0.04c0.2799,0.04,0.5598,0.2399,0.6398,0.5199c0.08,0.16,0.04,0.3599-0.08,0.4799
			c-0.16,0.1999-0.3999,0.2799-0.5598,0.2799c-0.04,0-0.12,0-0.16,0.04h-0.08c-0.08,0-0.16,0-0.2399,0.04
			c-0.7598,0.1999-0.8398,1.0397-0.8398,1.3996c0,0.12,0,0.2399,0,0.3599c0,0.04,0,0.08,0,0.12c0,0.16,0,0.3199-0.04,0.5199
			c-0.04,0.16-0.12,0.3999-0.3599,0.5199C35.4612,43.9265,35.4212,43.9265,35.3413,43.9265z M33.3018,41.6871
			c0.12,0,0.1999,0,0.3199,0.04h0.04c0.4799,0.16,0.7198,0.4399,0.8798,0.6798c0.08,0.12,0.16,0.2399,0.2399,0.3999
			c0.08,0.16,0.1999,0.3599,0.3199,0.5199c0.08,0.08,0.1999,0.2399,0.2799,0.1999c0.08-0.04,0.12-0.08,0.12-0.2399
			c0.04-0.16,0.04-0.3199,0.04-0.4399c0-0.04,0-0.08,0-0.12c0-0.12,0-0.2399,0-0.3599c0-0.9198,0.3999-1.5596,1.1197-1.7595
			c0.12-0.04,0.1999-0.04,0.2799-0.04h0.08c0.04,0,0.12,0,0.16,0c0.12,0,0.2399-0.04,0.3199-0.16c0,0,0.04-0.04,0-0.08
			c-0.04-0.12-0.1999-0.2399-0.3599-0.2799c-0.1999-0.04-0.3999-0.04-0.6398-0.04c-0.1999,0-0.3999,0-0.5998-0.04
			c-0.3199-0.04-0.7598-0.16-0.8798-0.7198c-0.08-0.4399,0.16-0.7998,0.3999-1.0797c0.04-0.08,0.12-0.12,0.16-0.1999
			s0.08-0.12,0.12-0.1999c0.08-0.12,0.08-0.2399,0.04-0.3999c0-0.04-0.04-0.04-0.04-0.08c-0.08-0.04-0.2799-0.04-0.4399,0.04
			c-0.08,0.04-0.16,0.08-0.2399,0.12l-0.2399,0.16c-0.16,0.12-0.3599,0.2399-0.6798,0.1999c-0.2399-0.04-0.3999-0.16-0.5199-0.2399
			c-0.08-0.04-0.12-0.12-0.16-0.1999l-0.04,0.04c-0.04-0.04-0.08-0.12-0.12-0.16c-0.08-0.12-0.2799-0.2399-0.4399-0.3199
			c-0.04,0-0.08-0.04-0.08-0.04c0,0.08,0.04,0.12,0.08,0.1999c0.04,0.04,0.08,0.12,0.08,0.1999c0.04,0.08,0.04,0.16,0.04,0.2799
			c0,0.5199-0.2399,0.8798-0.7198,1.0797c-0.3599,0.16-0.5598,0.16-0.7598,0.08c-0.04,0-0.08-0.04-0.12-0.04s-0.08-0.04-0.12-0.04
			c-0.04,0-0.08-0.04-0.16-0.04l0.04,0.04c0.08,0.04,0.12,0.12,0.16,0.1999c0.04,0.12,0.04,0.1999,0.04,0.2799v0.04l0.04,0.04
			c0.1999,0.16,0.3199,0.3999,0.3199,0.6398c0,0.1999-0.08,0.3599-0.2399,0.4399c-0.1999,0.12-0.3599,0.1999-0.4799,0.2399
			c-0.04,0-0.12,0.04-0.16,0.04c-0.08,0.04-0.1999,0.08-0.3199,0.12c-0.3599,0.16-0.6398,0.2799-0.7198,0.5998c0,0,0.04,0,0.08,0
			c0.08,0,0.16,0,0.2399,0l0.2799-0.04c0.04,0,0.08,0,0.12-0.04c0.12,0,0.2399-0.04,0.3199-0.04c0.1999,0,0.3599,0.04,0.5199,0.12
			l0.08,0.04c0.04,0.04,0.08,0.04,0.12,0.08c0.12,0.12,0.16,0.2399,0.16,0.3199c0,0.1999-0.12,0.3199-0.1999,0.3999l-0.12,0.12
			c-0.04,0.04-0.08,0.08-0.08,0.12c-0.1999,0.2799-0.3199,0.4799-0.1999,0.7198l0,0c0.04,0,0.16-0.04,0.4799-0.3599
			c0.04-0.04,0.08-0.08,0.16-0.16c0.08-0.08,0.16-0.1999,0.2799-0.2799c0.16-0.16,0.3199-0.2799,0.4399-0.3599
			C32.7819,41.767,33.0219,41.6871,33.3018,41.6871z M30.9424,38.9678L30.9424,38.9678L30.9424,38.9678z"/>
		<path id="DropR" fill="#96491B" d="M28.903,38.8878c-0.2399,0-0.4799-0.04-0.6398-0.16s-0.2399-0.2799-0.2799-0.4799v-0.04v-0.04
			c0.08-0.3599,0.3199-0.6398,0.7198-0.7198c0.6798-0.1999,1.6796,0.16,2.1994,0.7198v0.04v0.04c0.04,0.08,0.04,0.16,0,0.2399
			c-0.04,0.04-0.08,0.12-0.1999,0.16l0,0c-0.08,0.04-0.1999,0.04-0.3599,0.08c-0.08,0-0.16,0-0.1999,0c-0.04,0-0.12,0-0.16,0
			c-0.12,0-0.2399,0-0.3199,0.04C29.4228,38.8478,29.1429,38.8878,28.903,38.8878z M28.3831,38.248c0,0.08,0.04,0.12,0.12,0.16
			c0.16,0.12,0.5998,0.12,1.0797,0c0.12-0.04,0.2799-0.04,0.3999-0.04c0.08,0,0.12,0,0.1999,0c0.08,0,0.16,0,0.1999,0s0.08,0,0.12,0
			c-0.4399-0.3999-1.1997-0.5998-1.6795-0.4799C28.5831,37.8881,28.4231,38.048,28.3831,38.248z"/>
		<g id="Pinsel">
			
				<linearGradient id="SVGID_1_" gradientUnits="userSpaceOnUse" x1="47.2599" y1="2441.0547" x2="41.8651" y2="2436.0242" gradientTransform="matrix(1 0 0 1 0 -2398.8501)">
				<stop  offset="0" style="stop-color:#FFFFFF"/>
				<stop  offset="1" style="stop-color:#181716"/>
			</linearGradient>
			<path fill="url(#SVGID_1_)" d="M42.4993,40.3274c0.12,0,0.1999,0,0.3199-0.04c1.0797-0.9997,2.1194-2.0395,3.1592-3.1192
				l-2.3194-2.1994c-1.3596,1.3196-2.6393,2.6393-3.9189,3.9989C40.2599,39.7676,41.2996,40.3274,42.4993,40.3274z"/>
			<path fill="#FFFFFF" d="M40.3799,39.6476l3.5191-3.5191l0.2799-0.2399c0.04-0.04,0.04-0.16,0.04-0.16l-0.04-0.12l-0.08-0.08
				c0,0-0.08-0.04-0.12-0.04c-0.04,0-0.16,0.04-0.16,0.04l-0.3199,0.3199c-0.3199,0.2399-1.9195,1.9195-3.4391,3.4791
				C40.14,39.4477,40.2599,39.5676,40.3799,39.6476z"/>
			<path fill="#181716" d="M42.0994,40.2874c1.0797-1.0397,2.1594-2.0794,3.3991-3.3991l-0.6798-0.6398l-3.759,3.759
				C41.3796,40.1675,41.7395,40.2475,42.0994,40.2874z"/>
			<path fill="#8B8B8A" d="M42.4993,40.3274c0.04,0,0.04,0,0.04,0l2.3594-1.3596l0.08-0.08l0.08-0.08l-2.7593,1.5196
				C42.4193,40.3274,42.4593,40.3274,42.4993,40.3274z"/>
			
				<linearGradient id="SVGID_2_" gradientUnits="userSpaceOnUse" x1="43.5579" y1="2439.613" x2="41.8149" y2="2436.4277" gradientTransform="matrix(1 0 0 1 0 -2398.8501)">
				<stop  offset="0" style="stop-color:#FFFFFF"/>
				<stop  offset="1" style="stop-color:#181716"/>
			</linearGradient>
			<path fill="url(#SVGID_2_)" d="M42.4993,40.3274c0.12,0,0.2399,0,0.3199-0.04c0.7998-0.4399,1.5996-0.8798,2.3994-1.3596
				c0.04-0.04,0.04-0.08,0.04-0.12l-1.1997-1.9595c-1.3996,0.7998-2.7593,1.5996-4.0789,2.4393
				C40.5399,39.9275,41.4596,40.3274,42.4993,40.3274z"/>
			<path fill="#FFFFFF" d="M40.5399,39.7276l3.5191-2.0395l0.2399-0.12c0,0,0.04-0.04,0.08-0.12c0-0.08-0.08-0.1999-0.16-0.2399
				c-0.04,0-0.12,0-0.12,0c-0.4399,0.2399-2.3194,1.3596-3.839,2.2794C40.3399,39.6076,40.4199,39.6876,40.5399,39.7276z"/>
			<path fill="#030000" d="M42.0594,40.2874c0.9198-0.5199,1.8795-1.0397,2.9592-1.7195l-0.3599-0.5998l-3.559,2.0395
				C41.4196,40.1675,41.7395,40.2475,42.0594,40.2874z"/>
			<g id="GruenB">
				<g id="GruenH">
					<path id="GruenH5" fill="#BE8644" d="M61.4143,27.8508c-2.2394,1.8795-4.5188-0.2799-7.9179,4.3588l0.5199,0.9597
						C54.816,32.7295,58.2151,33.7292,61.4143,27.8508z"/>
					<path id="GruenH4" fill="#EACC90" d="M60.8144,28.4506c-2.4393,1.2397-3.5191,1.1997-6.7982,3.679l-0.08,0.12v0.12l0.08,0.08
						l0.2399-0.08C56.0557,30.73,58.455,29.7703,60.8144,28.4506z"/>
					<path id="GruenH3" fill="#EACC90" d="M59.7347,29.2504c0,0-1.9195,0.9198-3.2791,1.6796
						c-1.3196,0.7598-2.0794,1.2797-2.2794,1.4796c-0.2399,0.1999,0.08,0.04,0.16-0.04c0,0,0.9597-0.5599,1.9195-1.0397
						c0.7198-0.3199,1.6396-0.8798,2.2794-1.2797c-0.3599,0.12-1.3996,0.7198-1.7195,0.8398L59.7347,29.2504z"/>
					<path id="GruenH2" fill="#7F4E1E" d="M60.6944,28.8905c0,0-1.3196,1.2397-2.7593,2.1194
						c-1.4396,0.8398-2.9592,1.3996-3.599,1.6795c-0.6398,0.2799-0.3999,0.12-0.3199,0.12c0,0,0.2799-0.16,0.3199-0.2399
						c0,0-0.2399,0.12-0.3599,0.16l0.08-0.16l-0.16,0.08l0.1999-0.2399l-0.2799,0.16c0,0,0.08-0.08,0.08-0.12s-0.08-0.08-0.12-0.08
						s-0.08,0.04-0.12,0.04c-0.04,0,0-0.08,0-0.08l0.16-0.1999c0,0-0.12,0.08-0.1999,0.12c-0.08,0.04-0.12,0-0.12,0
						s0.3199,0.6798,0.4799,0.9198c0.08-0.08,0.2399-0.12,0.3199-0.12c0.12-0.04,0.2399-0.12,0.5998-0.1999
						s0.8798-0.1999,1.3196-0.3599c0.4399-0.16,0.8398-0.3599,1.3196-0.6398c0.4799-0.2799,1.0797-0.6398,1.0797-0.6398
						s-1.2797,0.5998-1.9995,0.9198c-0.7198,0.3199-0.8398,0.2799-0.8398,0.2799s2.0395-0.9198,3.1592-1.5596
						c1.0797-0.6398,1.1597-1.0397,1.1597-1.0397s-0.6398,0.5998-1.5996,1.1597c-0.9597,0.5199-2.1594,1.0797-2.1594,1.0797
						s2.1194-1.0397,3.0792-1.8395C60.4145,29.3704,60.6944,28.8905,60.6944,28.8905z"/>
					<path id="GruenH1" fill="#EACC90" d="M58.2151,29.3704c0,0-0.9198,0.3599-1.7595,0.8398
						c-0.8798,0.4799-1.7995,1.2797-2.0794,1.4396c0,0,1.0797-1.0797,1.9995-1.5996
						C57.3353,29.5703,58.2151,29.3704,58.2151,29.3704z"/>
				</g>
				<g id="Gruen">
					<path id="Gruen5" fill="#B60A0A" d="M61.3743,27.8908c-1.1997,0.7998-4.3988,0.7198-5.8384,2.1994l0,0
						c0.5598-0.1999,0.7998,0.5199,1.3996,0.5998c0.5199,0.08,1.1197,0.7998,0.8798,1.3596
						C58.1351,31.8497,60.2546,30.57,61.3743,27.8908z"/>
					<path id="Gruen4" fill="#FFFFFF" d="M61.2143,28.0507c-0.8398,0.7198-4.1189,1.0397-5.1986,1.9595
						c0.2399-0.04,0.5199,0.3599,0.5199,0.3599C57.6153,29.4104,60.1746,29.2104,61.2143,28.0507z"/>
					<path id="Gruen3" fill="#6E0901" d="M61.0144,28.3706c-1.0797,1.2397-2.7193,1.4796-3.799,2.3594
						c0.2399-0.04,0.5598,0.5199,0.5598,0.5199C58.695,30.4501,59.8147,30.0902,61.0144,28.3706z"/>
					<path id="Gruen2" fill="#F39768" d="M58.2151,31.6098c-0.2399,0.12-0.2799-0.1999,0.04-0.3999
						c-0.08,0.08,2.2794-1.5596,3.1192-3.2791C60.4145,30.1302,58.3351,31.4898,58.2151,31.6098z"/>
					<path id="Gruen1" fill="#5E0800" d="M55.6158,30.0502c0.16,0,0.2799,0.04,0.4399,0.08l0.1999,0.12
						c0.08,0.12,0.12,0.1999,0.2399,0.2799c0.2799,0.1999,0.5598,0.12,0.8398,0.3199c0.1999,0.16,0.2399,0.3599,0.3199,0.5998
						c0.08,0.1999,0.16,0.3199,0.16,0.5199c0,0,0.04,0,0.04-0.04c0.12-0.16,0.08-0.3199,0-0.4799
						c-0.08-0.3199-0.16-0.5599-0.3999-0.7198c-0.3199-0.2399-0.6398-0.12-0.9597-0.3199c-0.08-0.04-0.16-0.08-0.1999-0.16
						l-0.1999-0.12C55.9357,30.0502,55.8158,30.0102,55.6158,30.0502z"/>
				</g>
			</g>
			<g id="RotB">
				<g id="RotH">
					<path id="RotH5" fill="#BE8644" d="M61.9741,18.3333c-2.2394,3.1991-5.9184,1.1997-8.7576,8.3578l0.9997,1.0797
						C55.1359,26.931,59.8947,27.051,61.9741,18.3333z"/>
					<path id="RotH4" fill="#EACC90" d="M61.4143,19.2931c-2.7193,2.4793-4.1589,2.7593-7.518,7.1181l-0.08,0.16v0.12l0.16,0.04
						l0.2799-0.16C56.0557,23.9318,58.8149,21.8124,61.4143,19.2931z"/>
					<path id="RotH3" fill="#EACC90" d="M60.2946,20.7327c0,0-2.1594,1.8795-3.639,3.3191
						c-1.4796,1.4396-2.2394,2.3994-2.4393,2.7193c-0.2399,0.3199,0.08,0,0.1999-0.08c0,0,1.0397-1.0397,2.1194-1.9995
						c0.8398-0.6398,1.7995-1.7195,2.4793-2.4393c-0.4399,0.3199-1.5596,1.3996-1.9595,1.6796L60.2946,20.7327z"/>
					<path id="RotH2" fill="#7F4E1E" d="M61.4143,19.8929c0,0-1.2797,2.0794-2.7993,3.679
						c-1.5596,1.5996-3.3591,2.8392-4.0389,3.4391c-0.6798,0.5998-0.4399,0.3199-0.3999,0.2399c0,0,0.2799-0.3199,0.3599-0.4399
						c0,0-0.2799,0.2399-0.3999,0.3199l0.04-0.1999l-0.16,0.16l0.1999-0.3999l-0.3199,0.2799c0,0,0.04-0.12,0.04-0.16
						c0-0.08-0.12-0.12-0.1999-0.08c-0.08,0.04-0.08,0.08-0.16,0.08c-0.04,0-0.04-0.12-0.04-0.12l0.16-0.3199
						c0,0-0.12,0.16-0.2399,0.1999c-0.08,0.04-0.16,0.04-0.16,0.04s0.6798,0.7598,0.9198,0.9997
						c0.08-0.12,0.2799-0.1999,0.3599-0.2799c0.12-0.08,0.2799-0.2399,0.7198-0.4799c0.4399-0.1999,1.0397-0.5598,1.5596-0.9198
						c0.5199-0.3599,0.9597-0.7598,1.4796-1.2797c0.5199-0.5199,1.1597-1.1997,1.1597-1.1997s-1.4396,1.2397-2.2394,1.8795
						c-0.7998,0.6398-0.9597,0.6798-0.9597,0.6798s2.3194-1.9195,3.5191-3.1192c1.1997-1.1997,1.1597-1.7595,1.1597-1.7595
						s-0.6398,0.9997-1.6795,2.0395c-1.0397,1.0397-2.4393,2.1194-2.4393,2.1194s2.3594-2.0794,3.3591-3.4391
						C61.2143,20.6527,61.4143,19.8929,61.4143,19.8929z"/>
					<path id="RotH1" fill="#EACC90" d="M58.3751,21.4125c0,0-1.0397,0.7598-1.9995,1.6796
						c-0.9597,0.9198-1.8795,2.2394-2.1594,2.5993c0,0,0.9997-1.7595,2.0395-2.7593
						C57.2554,21.9724,58.3751,21.4125,58.3751,21.4125z"/>
				</g>
				<g id="Rot">
					<path id="Rot5" fill="#E3000B" d="M61.9341,18.3733c-1.2797,1.4396-5.4385,2.4393-6.7982,4.8387l0,0
						c0.6798-0.4799,1.2397,0.3599,2.0395,0.3199c0.6798-0.04,1.7595,0.6398,1.5996,1.4396
						C59.1349,24.6516,61.4143,22.2523,61.9341,18.3733z"/>
					<path id="Rot4" fill="#FFFFFF" d="M61.7742,18.6133c-0.8398,1.2397-4.9587,2.7992-6.0384,4.3188
						c0.3199-0.12,0.7998,0.2399,0.7998,0.2399C57.5753,21.6524,60.8544,20.5327,61.7742,18.6133z"/>
					<path id="Rot3" fill="#B51B1A" d="M61.6142,19.1331c-0.9597,1.9995-2.9992,2.8792-4.0789,4.3988
						c0.3199-0.12,0.8798,0.4399,0.8798,0.4399C59.3348,22.6522,60.6944,21.7724,61.6142,19.1331z"/>
					<path id="Rot2" fill="#FFDF3B" d="M59.1349,24.3317c-0.2799,0.2799-0.4399-0.16-0.08-0.5199
						c-0.08,0.12,2.3994-2.8392,2.8792-5.3186C61.4542,21.6524,59.2148,24.1318,59.1349,24.3317z"/>
					<path id="Rot1" fill="#840B03" d="M55.2159,23.212c0.1999-0.08,0.3599-0.08,0.5998-0.04l0.3199,0.12
						c0.16,0.12,0.2399,0.1999,0.4399,0.2799c0.4399,0.16,0.7598-0.04,1.1997,0.12c0.3199,0.12,0.3999,0.3599,0.5998,0.6398
						c0.16,0.2399,0.2799,0.3599,0.3599,0.6398c0-0.04,0.04-0.04,0.04-0.04c0.08-0.2399-0.04-0.4399-0.16-0.6398
						c-0.1999-0.3999-0.3999-0.6398-0.7998-0.7998c-0.5199-0.1999-0.8798,0.08-1.3596-0.12c-0.12-0.04-0.1999-0.08-0.3199-0.16
						l-0.3199-0.12C55.6558,23.0521,55.4558,23.0521,55.2159,23.212z"/>
				</g>
			</g>
			
				<linearGradient id="Pinsel29_1_" gradientUnits="userSpaceOnUse" x1="43.6753" y1="2434.7161" x2="46.4536" y2="2434.7161" gradientTransform="matrix(1 0 0 1 0 -2398.8501)">
				<stop  offset="0" style="stop-color:#FFFFFF"/>
				<stop  offset="1" style="stop-color:#009DE2"/>
			</linearGradient>
			<path id="Pinsel29" fill="url(#Pinsel29_1_)" d="M46.0184,37.2083c-0.7598-0.7598-1.5596-1.4796-2.3194-2.2394
				c0.3199-0.2799,0.6398-0.4799,1.1997-0.4399c0.5199,0.4799,1.0397,0.9997,1.5596,1.4796
				C46.4983,36.5684,46.2583,36.8884,46.0184,37.2083z"/>
			<path id="Pinsel28" fill="#030000" d="M46.0184,37.2882l-0.04-0.04c-0.7598-0.7198-1.5596-1.4796-2.3194-2.2394l-0.08-0.08
				l0.04-0.04c0.3199-0.2799,0.6398-0.4799,1.2397-0.4799h0.04l0.5599,0.5199c0.3599,0.3199,0.6798,0.6798,1.0397,0.9997l0,0v0.04
				c0.04,0.5998-0.1999,0.9198-0.4399,1.2397L46.0184,37.2882z M43.779,34.9689c0.7598,0.7198,1.4796,1.4396,2.2394,2.1194
				c0.2399-0.2799,0.3999-0.5598,0.3999-1.0797c-0.3199-0.3199-0.6798-0.6398-0.9997-0.9597l-0.5199-0.4799
				C44.3388,34.569,44.0589,34.7289,43.779,34.9689z"/>
			
				<linearGradient id="Pinsel27_1_" gradientUnits="userSpaceOnUse" x1="44.7983" y1="2433.679" x2="47.3839" y2="2433.679" gradientTransform="matrix(1 0 0 1 0 -2398.8501)">
				<stop  offset="0" style="stop-color:#FFFFFF"/>
				<stop  offset="1" style="stop-color:#009DE2"/>
			</linearGradient>
			<path id="Pinsel27" fill="url(#Pinsel27_1_)" d="M44.9387,34.569l1.4396,1.3596c0.1999,0.1999,0.5998,0.1999,0.7998-0.04l0,0
				c0.2399-0.2399,0.2399-0.5998,0-0.7998l-1.4396-1.3596c-0.1999-0.1999-0.5998-0.1999-0.7998,0.04l0,0
				C44.7387,34.0091,44.7387,34.369,44.9387,34.569z"/>
			<path id="Pinsel26" fill="#030000" d="M46.7782,36.1685c-0.16,0-0.3199-0.04-0.4399-0.16l-1.4396-1.3596
				c-0.12-0.12-0.16-0.2799-0.1999-0.4399c0-0.16,0.08-0.3599,0.1999-0.4799c0.2399-0.2399,0.6398-0.2799,0.9198-0.04l1.4396,1.3596
				c0.12,0.12,0.16,0.2799,0.1999,0.4399c0,0.16-0.08,0.3599-0.1999,0.4799C47.1381,36.0886,46.9381,36.1685,46.7782,36.1685z
				 M45.0187,34.529l1.4396,1.3596c0.1999,0.1999,0.5199,0.16,0.7198-0.04c0.12-0.12,0.16-0.2399,0.16-0.3599
				s-0.04-0.2399-0.12-0.3199l-1.4396-1.3596c-0.1999-0.1999-0.5199-0.16-0.7198,0.04c-0.12,0.12-0.16,0.2399-0.16,0.3599
				C44.8587,34.329,44.8987,34.449,45.0187,34.529L45.0187,34.529z"/>
			<path id="Pinsel25" fill="#181716" d="M46.4183,34.609c0,0,0.2399,0.1999,0.3599,0.3199s0.16,0.16,0.1999,0.2799
				c0.08,0.2399-0.3199,0.7198-0.5199,0.5598c-0.2399-0.2399-0.4799-0.4399-0.5998-0.5998L46.4183,34.609z"/>
			<path id="Pinsel24" fill="#FFFFFF" d="M45.9384,34.0891l-0.12-0.08c0,0-0.16-0.12-0.2799-0.12s-0.1999,0.04-0.2799,0.12
				c-0.08,0.08-0.12,0.16-0.12,0.16s-0.04,0.08-0.04,0.16c0,0.04,0.04,0.16,0.04,0.16l0.16,0.16l0.12,0.08l0.1999-0.1999
				l0.1999-0.16c0,0,0.12-0.08,0.1999-0.08s0.16,0.08,0.16,0.08l0.16,0.12L45.9384,34.0891z"/>
			<path id="Pinsel23" fill="#FFFFFF" d="M45.9784,35.6887l-0.9997-0.9597c0,0-0.16-0.04-0.3999,0.08
				c-0.2399,0.12-0.4399,0.2799-0.4399,0.2799l-0.08,0.08l0.3999,0.3999l0.2799-0.2399c0,0,0.16-0.12,0.2799-0.16
				c0.12-0.04,0.1999,0,0.1999,0l0.1999,0.16l0.1999,0.1999l0.1999,0.16l0.12,0.16l0.04,0.04V35.6887L45.9784,35.6887z"/>
			<polygon id="Pinsel22" fill="#181716" points="45.7385,35.7287 45.5785,35.5687 45.0586,36.0886 45.8984,36.8084 
				46.0184,36.6884 46.1384,36.3685 46.0584,36.1286 45.9784,35.9686 			"/>
			
				<linearGradient id="Pinsel21_1_" gradientUnits="userSpaceOnUse" x1="45.6765" y1="2429.783" x2="54.2244" y2="2429.783" gradientTransform="matrix(1 0 0 1 0 -2398.8501)">
				<stop  offset="0" style="stop-color:#FFFFFF"/>
				<stop  offset="1" style="stop-color:#009DE2"/>
			</linearGradient>
			<path id="Pinsel21" fill="url(#Pinsel21_1_)" d="M45.6985,33.4893l7.478-6.8382l1.0397,1.1197l-6.7182,7.398
				c-0.04,0.04-0.16,0.08-0.2399,0l-0.7598-0.7198l-0.7598-0.7198C45.6585,33.6492,45.6985,33.5293,45.6985,33.4893z"/>
			<path id="Pinsel20" fill="#030000" d="M47.378,35.2888c-0.08,0-0.12-0.04-0.16-0.08l-1.5196-1.4796
				c-0.08-0.08-0.12-0.1999-0.04-0.3199l0,0l7.518-6.8782l1.1197,1.1997l-0.04,0.04l-6.7182,7.438
				C47.498,35.2888,47.418,35.2888,47.378,35.2888z M45.7784,33.5293c-0.04,0.08,0,0.12,0,0.12l1.5596,1.4796
				c0.04,0.04,0.04,0.08,0.12,0l6.6782-7.358l-0.9597-1.0397L45.7784,33.5293z"/>
			<polygon id="Pinsel19" fill="#FFFFFF" points="46.2983,33.5692 53.3364,26.931 53.4964,27.051 46.6582,33.8492 			"/>
			<path id="Pinsel18" fill="#030000" d="M46.9781,34.0891l6.7982-6.7982l0.2399,0.2799L47.338,34.529
				c-0.04,0.04-0.12,0.12-0.2399,0.12l0.3999,0.5199c-0.12,0.16-0.1999,0.08-0.2399,0.04l-1.5196-1.4396
				c-0.16-0.12-0.08-0.16-0.08-0.1999c0-0.08,0.08-0.08,0.12-0.12l0.7598,0.6398C46.7382,34.329,46.8981,34.1691,46.9781,34.0891z"
				/>
			<polygon id="Pinsel17" fill="#FFFFFF" points="53.4564,28.3307 47.418,34.7289 47.538,34.8889 			"/>
			<path id="Pinsel16" fill="none" d="M46.4183,36.3685c0.2799,0.3999,0.5599,0.7598,0.8398,1.1597"/>
			<path id="Pinsel15" fill="#FFFFFF" d="M54.0962,27.8108h-0.04l-0.8798-0.9597c-0.04-0.04,0-0.04,0-0.08s0.04,0,0.08,0
				l0.8798,0.9597C54.1362,27.7708,54.1362,27.7708,54.0962,27.8108C54.1362,27.8108,54.0962,27.8108,54.0962,27.8108z"/>
			
				<linearGradient id="Pinsel14_1_" gradientUnits="userSpaceOnUse" x1="44.0917" y1="2436.6196" x2="45.8912" y2="2436.6196" gradientTransform="matrix(1 0 0 1 0 -2398.8501)">
				<stop  offset="0" style="stop-color:#FFFFFF"/>
				<stop  offset="1" style="stop-color:#009DE2"/>
			</linearGradient>
			<path id="Pinsel14" fill="url(#Pinsel14_1_)" d="M45.3386,38.8878c-0.3999-0.6798-0.8398-1.3596-1.2397-2.0794
				c0.2799-0.12,0.5598-0.2399,0.9597-0.08c0.2799,0.4799,0.5598,0.9198,0.8398,1.3996
				C45.8184,38.5279,45.5785,38.7279,45.3386,38.8878z"/>
			<path id="Pinsel13" fill="#030000" d="M45.3386,38.9678l-0.04-0.04c-0.3999-0.6798-0.8398-1.3596-1.2397-2.0794l-0.04-0.04
				l0.04-0.04c0.2799-0.12,0.5599-0.2399,0.9997-0.12l0,0l0.3199,0.5199c0.16,0.2799,0.3599,0.5998,0.5199,0.8798l0,0l0,0
				c-0.08,0.4399-0.3199,0.6398-0.5598,0.7998C45.3386,38.8478,45.3386,38.9678,45.3386,38.9678z M44.1789,36.8484
				c0.3999,0.6398,0.7998,1.3196,1.1997,1.9595c0.1999-0.16,0.3999-0.3199,0.4799-0.6798c-0.16-0.2799-0.3599-0.5598-0.5199-0.8798
				l-0.2799-0.4799C44.6587,36.6884,44.4188,36.7284,44.1789,36.8484z"/>
			
				<linearGradient id="Pinsel12_1_" gradientUnits="userSpaceOnUse" x1="45.0361" y1="2436.0784" x2="46.6752" y2="2436.0784" gradientTransform="matrix(1 0 0 1 0 -2398.8501)">
				<stop  offset="0" style="stop-color:#FFFFFF"/>
				<stop  offset="1" style="stop-color:#009DE2"/>
			</linearGradient>
			<path id="Pinsel12" fill="url(#Pinsel12_1_)" d="M45.0986,36.8084l0.7598,1.2797c0.12,0.1999,0.3999,0.2399,0.5998,0.12l0,0
				c0.1999-0.12,0.2799-0.3599,0.16-0.5598l-0.7598-1.2797c-0.12-0.1999-0.3999-0.2399-0.5998-0.12l0,0
				C45.0586,36.3685,44.9787,36.6084,45.0986,36.8084z"/>
			<path id="Pinsel11" fill="#030000" d="M46.2183,38.328c-0.16,0-0.3199-0.08-0.3999-0.1999l-0.7598-1.2797
				c-0.08-0.12-0.08-0.2399-0.04-0.3199c0.04-0.12,0.12-0.2399,0.2399-0.2799c0.2399-0.12,0.5199-0.08,0.6398,0.16l0.7598,1.2797
				c0.08,0.12,0.08,0.2399,0.04,0.3199c-0.04,0.12-0.12,0.2399-0.2399,0.3199C46.3783,38.288,46.2983,38.328,46.2183,38.328z
				 M45.1386,36.7684l0.7598,1.2797c0.12,0.16,0.3199,0.2399,0.5199,0.12c0.08-0.04,0.16-0.12,0.1999-0.2399
				c0.04-0.08,0-0.1999-0.04-0.2799l-0.7598-1.2797c-0.12-0.16-0.3199-0.2399-0.5199-0.12c-0.08,0.04-0.16,0.12-0.1999,0.2399
				C45.0586,36.6084,45.0986,36.6884,45.1386,36.7684L45.1386,36.7684z"/>
			<path id="Pinsel10" fill="#030000" d="M46.1384,37.0883c0,0,0.12,0.1999,0.1999,0.3199c0.08,0.12,0.12,0.12,0.08,0.1999
				c0.08,0.12-0.2799,0.4799-0.4799,0.3599c-0.12-0.2799-0.2799-0.3999-0.3199-0.5598L46.1384,37.0883z"/>
			<path id="Pinsel9" fill="#FFFFFF" d="M45.8984,36.6084l-0.08-0.08c0,0-0.04-0.08-0.08-0.08c-0.04-0.04-0.12-0.08-0.2399-0.04
				c-0.08,0-0.16,0.04-0.1999,0.12c-0.08,0.12-0.04,0.2399-0.04,0.2399l0.08,0.16l0.04,0.08l0.12-0.08c0,0,0.12-0.08,0.1999-0.12
				c0.16-0.04,0.2799,0.08,0.2799,0.08l0.08,0.12L45.8984,36.6084z"/>
			<path id="Pinsel8" fill="#FFFFFF" d="M45.6185,37.7681l-0.5199-0.8798c0,0-0.12-0.04-0.3199,0
				c-0.16,0.04-0.3599,0.12-0.3599,0.12l-0.08,0.04l0.2399,0.3599l0.2399-0.12c0,0,0.16-0.08,0.2399-0.08
				c0.08,0,0.16,0.04,0.16,0.04l0.12,0.16l0.08,0.16l0.12,0.16l0.08,0.12l0.04,0.04L45.6185,37.7681L45.6185,37.7681z"/>
			<path id="Pinsel7" fill="#030000" d="M45.4585,37.8081l-0.12-0.16l-0.4399,0.2799l0.4399,0.6798l0.12-0.04
				c0,0,0.08-0.08,0.12-0.1999c0.04-0.08,0-0.1999,0-0.1999l-0.04-0.16L45.4585,37.8081z"/>
			
				<linearGradient id="Pinsel6_1_" gradientUnits="userSpaceOnUse" x1="45.8019" y1="2433.824" x2="53.9912" y2="2433.824" gradientTransform="matrix(1 0 0 1 0 -2398.8501)">
				<stop  offset="0" style="stop-color:#FFFFFF"/>
				<stop  offset="1" style="stop-color:#009DE2"/>
			</linearGradient>
			<path id="Pinsel6" fill="url(#Pinsel6_1_)" d="M45.8584,36.1685l7.598-3.9989l0.5199,0.9997l-7.1981,4.5988
				c-0.04,0-0.12,0.04-0.16-0.04l-0.3999-0.6798l-0.3999-0.6798C45.7784,36.2485,45.8184,36.2085,45.8584,36.1685z"/>
			<path id="Pinsel5" fill="#030000" d="M46.7382,37.8081c-0.08,0-0.12-0.04-0.16-0.08l-0.8398-1.3596
				c-0.04-0.08-0.04-0.16,0.04-0.2399l0,0l7.638-4.0389l0.5599,1.0797l-0.04,0.04L46.7382,37.8081
				C46.8182,37.7681,46.7782,37.8081,46.7382,37.8081z M45.8584,36.2085c-0.04,0.04-0.04,0.08,0,0.08l0.8398,1.3596
				c0,0.04,0.04,0.08,0.12,0.04l7.1181-4.5588l-0.4799-0.9198L45.8584,36.2085z"/>
			<polygon id="Pinsel4" fill="#FFFFFF" points="46.2583,36.3285 53.4964,32.3696 53.5764,32.4895 46.4583,36.5684 			"/>
			<path id="Pinsel3" fill="#030000" d="M46.6582,36.8484l7.1181-4.1189l0.12,0.2399l-7.0781,4.2789c-0.04,0.04-0.12,0.04-0.16,0.04
				l0.1999,0.4399c-0.12,0.08-0.16,0-0.1999-0.04l-0.7998-1.3596c-0.08-0.12,0-0.12,0-0.16c0.04-0.04,0.08-0.04,0.08-0.08
				l0.3999,0.5998C46.4183,36.9683,46.5782,36.8484,46.6582,36.8484z"/>
			<polygon id="Pinsel2" fill="#FFFFFF" points="53.3364,33.4093 46.8182,37.3682 46.8981,37.5282 			"/>
			<path id="Pinsel1" fill="#FFFFFF" d="M53.8563,33.1693c0,0-0.04,0-0.04-0.04l-0.4399-0.8798c0-0.04,0-0.04,0.04-0.08
				c0.04,0,0.04,0,0.08,0.04l0.4399,0.8798C53.9363,33.1294,53.8963,33.1693,53.8563,33.1693L53.8563,33.1693z"/>
		</g>
		<g id="Gloss">
			<path id="Gloss19" fill="#FFFFFF" d="M61.6542,42.8068c0.8798,0,1.6396,0.08,2.2394,0.2399c0.16,0.04,0.2799-0.08,0.3199-0.1999
				c0.04-0.12,0-0.2799-0.2-0.3199c-0.6798-0.16-1.4396-0.2399-2.3594-0.2399c-1.7995,0-3.0392,0.3199-3.839,0.9997
				c-0.7598,0.6798-1.1597,1.6796-1.1597,2.8392c0,0.7998,0.16,1.4396,0.4799,1.9595c0.08,0.16,0.2399,0.16,0.3599,0.08
				c0.12-0.08,0.16-0.1999,0.08-0.3599c-0.2799-0.4399-0.3999-0.9597-0.3999-1.6796c0-1.0397,0.3199-1.8795,0.9597-2.4393
				C58.8149,43.0867,59.9347,42.8068,61.6542,42.8068z"/>
			<path id="Gloss18" fill="#FFFFFF" d="M63.3337,45.4061c0-0.12-0.2399-0.3999-0.3999-0.3999h-1.9195
				c-0.08,0-0.2799,0.12-0.3599,0.3999c0,0,0,0.04,0.04,0.04h2.5993C63.2937,45.486,63.3337,45.4461,63.3337,45.4061z"/>
			<path id="Gloss17" fill="#FFFFFF" d="M53.4564,45.1661c-0.12,0.04-0.16,0.16-0.12,0.3199c0.08,0.16,0.12,0.3599,0.12,0.6398
				c0,0.7998-0.3599,1.1597-0.9198,1.1597c-0.2399,0-0.4399-0.08-0.5599-0.1999c-0.12-0.12-0.2399-0.08-0.3199,0.04
				c-0.08,0.08-0.08,0.2399,0.04,0.3199c0.2399,0.1999,0.5199,0.3199,0.8798,0.3199c0.8798,0,1.3596-0.6798,1.3596-1.6396
				c0-0.3199-0.08-0.5998-0.1999-0.8398C53.6963,45.1261,53.5364,45.0862,53.4564,45.1661z"/>
			<path id="Gloss16" fill="#FFFFFF" d="M47.7379,42.4869c-0.12,0-0.2399,0.12-0.2399,0.2399v8.1178c0,0.12,0.04,0.16,0.12,0.1999
				c0.12,0,0.3599-0.3999,0.3599-0.3999v-7.7179h3.3191c0.12-0.12,0.2799-0.3199,0.3999-0.4799L47.7379,42.4869z"/>
			<path id="Gloss15" fill="#FFFFFF" d="M56.1757,42.7268c-0.5599-0.2799-1.2397-0.4399-1.9995-0.4399
				c-0.8398,0-1.6396,0.1999-2.1994,0.5598c-0.3599,0.2399-0.5598,0.9198-0.5598,0.9997c0,0.08,0.08,0.08,0.16,0.04
				c0.08-0.04,0.16-0.12,0.2399-0.1999c0.08-0.08,0.2799-0.3199,0.4399-0.3999c0.4399-0.2799,1.1197-0.4799,1.9195-0.4799
				c0.6798,0,1.2797,0.16,1.7595,0.3999c0.16,0.08,0.2799,0,0.3599-0.12C56.3356,42.9667,56.3356,42.8068,56.1757,42.7268z"/>
			<path id="Gloss14" fill="#FFFFFF" d="M44.0189,45.4061c-0.12,0.04-0.1999,0.12-0.16,0.2799c0.04,0.12,0.04,0.2399,0.04,0.3999
				c0,0.7998-0.3599,1.1597-0.9198,1.1597c-0.1999,0-0.3999-0.04-0.5199-0.16c-0.12-0.08-0.2399-0.04-0.3199,0.04
				c-0.08,0.08-0.08,0.2399,0.04,0.3199c0.2399,0.16,0.4799,0.2399,0.7998,0.2399c0.8798,0,1.3596-0.6798,1.3596-1.6396
				c0-0.1999-0.04-0.3599-0.08-0.5199C44.2589,45.4461,44.1389,45.3661,44.0189,45.4061z"/>
			<path id="Gloss13" fill="#FFFFFF" d="M44.5788,42.2869c-1.0397,0-1.7995,0.2799-2.2794,0.6398
				c-0.2799,0.2399-0.4799,0.8398-0.4799,0.9597c0,0.08,0.12,0.08,0.2399,0c0.12-0.08,0.2799-0.3199,0.4399-0.4799
				c0.3599-0.3199,1.1197-0.6398,2.0794-0.6398c0.16,0,0.2399-0.12,0.2399-0.2399C44.8187,42.4069,44.6987,42.2869,44.5788,42.2869z
				"/>
			<path id="Gloss12" fill="#FFFFFF" d="M42.0994,42.4469h-3.9589c-0.12,0-0.2399,0.08-0.2399,0.2399c0,0.2399,0,8.1978,0,8.1978
				c0.04,0.12,0.08,0.12,0.08,0.16c0.16-0.04,0.3999-0.3999,0.3999-0.3999v-7.6779h3.2791
				C41.6596,42.9667,42.0994,42.4469,42.0994,42.4469z"/>
			<path id="Gloss11" fill="#FFFFFF" d="M34.5815,43.2866l-0.2399-0.3999c-0.3999,0.1999-0.8798,0.2399-1.3196,0.3199
				c-0.16,0-0.2399,0.16-0.1999,0.2799l1.7995,6.2383c0.04,0.16,0.08,0.3199,0.12,0.2399c0.04-0.04,0.2399-0.5199,0.2399-0.5199
				l-1.6396-5.8384C33.6617,43.5266,34.3015,43.4066,34.5815,43.2866z"/>
			<path id="Gloss10" fill="#FFFFFF" d="M5.5093,41.927c0-0.16,0-0.3199,0-0.5199c0-1.5996,0.5998-2.3994,1.4796-2.9192
				c1.0397-0.6398,2.5993-0.9997,5.0786-0.9997c1.9195,0,3.559,0.16,5.4785,0.5598l0.3999-0.3999
				c-1.4796-0.5199-4.0389-0.6798-5.8784-0.6798c-2.7593,0-4.2389,0.4399-5.3586,1.1197c-0.9997,0.6398-1.6795,1.5596-1.6795,3.3591
				c0,0.1999,0,0.3599,0.04,0.5598c0,0.16,0.16,0.2399,0.2799,0.2399C5.3893,42.2069,5.5093,42.087,5.5093,41.927z"/>
			<path id="Gloss9" fill="#FFFFFF" d="M12.6273,46.8457c-0.1999,0.2799-0.5998,0.3999-0.9198,0.3999
				c-2.0395,0.08-3.559-0.1999-6.0784-0.6398c-0.16-0.04-0.2799,0.12-0.2799,0.2799v2.7593l0.4799-0.1999v-2.2394
				c2.3594,0.3999,3.879,0.5998,5.9184,0.5199c0.3999,0,0.9597-0.12,1.2797-0.5998c0.08-0.12,0.04-0.2399-0.04-0.3199
				C12.8673,46.7257,12.7073,46.7257,12.6273,46.8457z"/>
			<path id="Gloss8" fill="#FFFFFF" d="M32.8619,37.1283c-0.04-0.04-0.08-0.12-0.08-0.16c-0.04-0.04-0.04-0.08-0.04-0.12
				c0.3199-0.2799-0.3599-0.6398-0.3999-0.08c0,0.1999,0.04,0.3199,0.12,0.4399c0.04,0.04,0.08,0.12,0.08,0.16
				c0.04,0.04,0.04,0.08,0.04,0.16c0,0.3599-0.16,0.5998-0.4799,0.7198c-0.2399,0.12-0.3999,0.08-0.5599,0.04
				c-0.08-0.04-0.16-0.04-0.2799-0.08c-0.12-0.04-0.1999-0.04-0.3599-0.04h-0.04c0-0.04-0.04-0.12-0.08-0.16
				c-0.6398-0.5599-2.5593-1.1597-2.7593,0.2799c0.08,0.5598,0.7198,0.2399,0.4399-0.04c0.08-0.2799,0.3199-0.3999,0.7598-0.3599
				c0.3999,0,0.8398,0.16,1.1597,0.3999c-0.08,0.12-0.04,0.2399,0.04,0.3199c0.08,0.08,0.2399,0.16,0.3199,0.04
				c0.04,0,0.08-0.04,0.12-0.04c0.16,0,0.2799,0.04,0.3599,0.08c0.12,0.04,0.1999,0.08,0.2799,0.08
				c0.1999,0.04,0.3999,0.04,0.7598-0.12c0.4799-0.1999,0.7198-0.5998,0.7198-1.1197
				C32.9819,37.3682,32.9019,37.2483,32.8619,37.1283z"/>
			<path id="Gloss7" fill="#FFFFFF" d="M31.3423,39.9675c-0.16,0.12-0.3199,0.16-0.4799,0.2399
				c-0.16,0.08-0.3199,0.12-0.5199,0.1999c-0.3999,0.16-0.8398,0.3599-0.9198,0.9198c-0.12,0.4799,0.5199,0.4399,0.3999,0.08
				c0.08-0.2799,0.2799-0.4399,0.6798-0.5998c0.1999-0.08,0.3599-0.12,0.5199-0.1999c0.16-0.08,0.3599-0.16,0.5199-0.2799
				c0.12-0.08,0.12-0.1999,0.04-0.2799C31.5823,39.9275,31.4623,39.8876,31.3423,39.9675z"/>
			<path id="Gloss6" fill="#FFFFFF" d="M35.0613,36.9683c-0.12,0.04-0.2399,0.12-0.3199,0.16l-0.2399,0.16
				c-0.12,0.08-0.2399,0.16-0.3999,0.12c-0.16,0-0.2399,0.08-0.2399,0.1999s0.04,0.2399,0.1999,0.2399
				c0.3199,0.04,0.5199-0.08,0.6798-0.1999l0.2399-0.16c0.08-0.04,0.16-0.08,0.2399-0.12c0.04,0,0.16-0.04,0.2399-0.04
				c0.12,0,0.16,0,0.1999,0.04c0.04,0.12,0.16,0.16,0.2799,0.12c0.12-0.04,0.1999-0.16,0.12-0.2799
				C35.9011,36.8084,35.3812,36.8484,35.0613,36.9683z"/>
			<path id="Gloss5" fill="#FFFFFF" d="M49.8973,40.8473c0.9198,0.4399,2.0794,0.3199,3.0792,0.1999
				c0.5199-0.08,1.8795-0.3599,2.3594-0.1999c0.2799,0.08,0.3999-0.3599,0.12-0.4399c-0.2799-0.08-0.6798-0.04-1.1197,0
				c-1.2797,0.16-3.1192,0.5199-4.2789,0.04C49.8174,40.3274,49.6174,40.7273,49.8973,40.8473z"/>
			<path id="Gloss4" fill="#FFFFFF" d="M23.9443,41.1272v1.4396c-0.9997-0.2399-2.0395-0.2799-2.8792-0.2799
				c-1.4396,0-2.5993,0.2399-3.4391,0.6798c-0.2399-0.3599-0.5199-0.6798-0.8798-0.7998c-0.6398-0.2799-1.8795-0.4799-2.9192-0.4799
				h-2.1194c-0.12,0-0.2799,0.04-0.3999,0.04c-0.16,0-0.2799,0-0.3999-0.04c-0.12-0.08-0.2399,0-0.3199,0.08
				c-0.04,0.08-0.04,0.2399,0.08,0.3199c0.16,0.08,0.3199,0.12,0.5199,0.12c0.16,0,0.3199-0.04,0.5199-0.04h2.0794
				c1.0397,0,2.1994,0.1999,2.7593,0.4399c0.1999,0.08,0.4399,0.3199,0.6798,0.6398c-0.7198,0.5598-1.1597,1.5596-1.1597,2.7193
				c0,0.7998,0.16,1.5196,0.5199,2.1194c0.08,0.12,0.2399,0.12,0.3199,0.08c0.08-0.04,0.16-0.1999,0.08-0.3199
				c-0.2799-0.4799-0.4799-1.1197-0.4799-1.8795c0-1.1197,0.3999-1.9595,1.0397-2.3994c0.7598-0.4799,1.9195-0.7198,3.4791-0.7198
				c0.8398,0,1.8395,0.08,2.8792,0.2799v3.559c-1.0797,0.1999-1.8395,0.3599-2.4793,0.3599c-0.6798,0-1.0397-0.1999-1.1197-0.4799
				c-0.04-0.12-0.1999-0.16-0.2799-0.12c-0.12,0.04-0.16,0.16-0.12,0.2799c0.1999,0.5199,0.7998,0.7598,1.5596,0.7598
				c0.6798,0,1.4396-0.12,2.4793-0.3199v2.1194c0,0,0,0.16,0.08,0.1999l0.3999-0.3599l-0.04-7.7179h3.3191l0.3999-0.4799h-3.9589
				C24.0243,40.8873,23.9443,41.0072,23.9443,41.1272z"/>
			<path id="Gloss3" fill="#FFFFFF" d="M72.6512,42.3669c-0.3999-0.04-0.5598-0.08-0.8398-0.08c-0.8798,0-1.4396,0.16-1.8795,0.7998
				c-0.16,0.2399-0.2,0.5599-0.2,0.7998c0,0.1999,0,0.4399,0.12,0.4399c0.16,0,0.04-0.3999,0.4799-0.9597
				c0.3599-0.4799,0.7598-0.5998,1.5196-0.5998c0.2799,0,0.4399,0.04,0.5598,0.04c0.08-0.04,0.3999-0.2399,0.3999-0.3199
				C72.8512,42.3669,72.8112,42.4069,72.6512,42.3669z"/>
			<path id="Gloss2" fill="#FFFFFF" d="M69.852,42.5668c0.08-0.04,0.04-0.08,0-0.12c-0.04,0-0.12-0.04-0.1999-0.04H66.133
				c-0.12,0-0.2399,0.12-0.2399,0.2399v4.4788l-1.1997,0.1999c-0.8398,0.12-1.7195,0.2399-2.3194,0.2399
				c-0.2799,0-0.5199-0.04-0.6798-0.08s-0.2399,0.04-0.2799,0.16c-0.04,0.12,0,0.2399,0.16,0.2799
				c0.2399,0.08,0.5199,0.12,0.8398,0.12c0.6398,0,1.5596-0.08,2.3994-0.2399l0.7998-0.12c0.08-0.08,0.2-0.1999,0.3199-0.3199
				v1.8395c0,0.08,0.04,0.12,0.08,0.16l0.04,0.04c0,0,0,0.04,0.04,0l0.04-0.04c0.04-0.04,0.08-0.08,0.12-0.16l0.12-0.16l0.04-0.08
				v-6.1184h3.0392C69.5721,42.8068,69.772,42.6468,69.852,42.5668z"/>
			<path id="Gloss1" fill="#FFFFFF" d="M28.663,42.7268c0.5599-0.3199,1.3196-0.4799,2.0395-0.4399c0.16,0,0.2799,0.04,0.2799,0.04
				c-0.16,0.1999-0.1999,0.4399-0.1999,0.4399c-0.8398-0.04-1.8395,0.3199-2.1194,0.5598
				c-0.3999,0.3599-0.4799,0.5599-0.6398,0.6798c-0.08,0.04-0.16,0-0.16-0.08c-0.04-0.1999,0.08-0.5599,0.3199-0.8398
				C28.2232,43.0067,28.3431,42.8867,28.663,42.7268z"/>
		</g>
		<g id="erfolgreich">
			<g>
				<path id="erfolgreich16_8_" fill="#0C0000" d="M16.5063,33.9291c0.16-0.12,0.3599-0.2399,0.1999-0.4399
					c-0.08-0.08-0.4799-0.4399-1.9195,1.6796c-0.2799-0.8398-0.4799-1.7595-0.5598-2.6793
					c1.0797-1.3996,1.7595-1.3596,1.4796-1.7595c-0.12-0.12-0.1999-0.2799-1.2397,0.7998l-0.2799,0.3599
					c-0.16-2.0395-0.12-1.3196-0.12-1.7995c0-0.2399,0-0.3199-0.16-0.3599c0.4399-0.5599,0.9997-1.0397,1.5996-1.4796
					c0.1999-0.12,0.2799-0.3199,0.16-0.4799c-0.12-0.1999-0.3599-0.04-0.4799,0.08c-0.5598,0.3999-1.4396,1.2397-1.8395,1.7995
					c-0.08,0.12-0.16,0.2399-0.08,0.3599c0.08,0.08,0.1999,0.16,0.2799,0.08l0.08,1.3196c0.12,1.8795,0.6798,4.1589,0.8398,4.3988
					c0.08,0.12,0.3199,0.1999,0.4799,0.12c0.12-0.08,0.16-0.2399,0.1999-0.3599C15.4666,34.9689,15.9864,34.369,16.5063,33.9291z"/>
				<path id="erfolgreich15_8_" fill="#0C0000" d="M19.2656,30.2901c0.16-0.3199,0.4799-0.7598,0.7598-0.9198
					c0.12-0.04,0.16-0.04,0.2799-0.04c0.3599-0.04,0.3999-0.2399,0.3199-0.3599c-0.12-0.2399-0.5998-0.3599-1.3996,0.6798
					c-0.04-1.1197,0-2.2794,0.2399-3.3991c0-0.12,0.04-0.2399,0-0.3599c-0.04-0.08-0.16-0.12-0.2399-0.04
					c-0.3599,0.1999-0.4799,1.9195-0.3599,4.4388c-0.04,0.08-0.08,0.16-0.12,0.1999c-0.04-0.04-0.08-0.04-0.12,0
					c-0.08,0.04-0.2399,0.6398-0.4799,0.7598c-0.08,0.04-0.12,0.04-0.16-0.04c-0.12-0.1999,0.1999-0.8798,0.12-0.9997
					c-0.04-0.08-0.1999-0.12-0.2799-0.08c-0.1999,0.12-0.6398,1.7195-0.6798,1.9995h-0.04c-0.12-0.3999,0.08-1.0397-0.04-1.1997
					c-0.04-0.08-0.16-0.08-0.2399-0.04c-0.2799,0.16-0.1999,1.2797-0.16,1.5596s0.1999,1.4396,0.3599,1.6396
					c0.08,0.08,0.16,0.12,0.2399,0.04c0.16-0.08,0.08-0.3599,0.08-0.5199c-0.08-0.7198,0-1.4796,0.1999-2.1594h0.04
					c0,0.08,0,0.16,0.04,0.2799c0.12,0.1999,0.3199,0.16,0.5199,0.04c0.1999-0.12,0.3599-0.3999,0.4799-0.6398
					c0.04,0.08,0.16,0.08,0.2399,0l0.08,0.8798c0.08,0.7198,0.2799,1.8795,0.6398,2.5193c0.16,0.2799,0.4799,0.5599,0.7998,0.3599
					c0.5199-0.2799,0.4799-1.4396,0.3999-2.0395C20.6252,30.73,19.7054,30.1702,19.2656,30.2901z M20.3453,34.409
					c-0.3599,0.1999-0.6798-0.7598-0.7998-1.6796L19.3056,30.89v-0.12c0.2399-0.12,0.9997,0.2399,1.1997,2.3194
					C20.5052,33.2493,20.5852,34.2491,20.3453,34.409z"/>
				<path id="erfolgreich14_8_" fill="#0C0000" d="M22.1048,29.9302c0.04-0.5199,0.04-1.1597-0.1999-1.5996
					c-0.12-0.2399-0.3199-0.3599-0.5598-0.2399c-0.3999,0.1999-0.5998,0.9597-0.6798,1.3596c-0.08,0.5199-0.08,1.2397,0.16,1.7195
					c0.12,0.2399,0.3999,0.4399,0.6798,0.2799C21.9448,31.2099,22.0648,30.4101,22.1048,29.9302z M21.1051,30.77
					c-0.16-0.2799-0.12-0.8398-0.08-1.1597c0.04-0.1999,0.1999-0.9198,0.3999-0.9997c0.08-0.04,0.16,0,0.1999,0.08
					c0.16,0.3199-0.12,1.0397-0.08,1.0797s0.12,0.08,0.1999,0.08c0.04,0.2799-0.04,0.8798-0.3199,1.0397
					C21.265,30.9699,21.1451,30.89,21.1051,30.77z"/>
				<path id="erfolgreich13_8_" fill="#0C0000" d="M25.9438,28.2107c-0.04,0.4399-0.08,0.9997,0,1.1597
					c0.04,0.12,0.12,0.12,0.2399,0.12c0.16-0.04,0.1999-0.3199,0.1999-0.4799c0.12-0.7198,0.3599-1.4396,0.7198-2.0395h0.04
					c-0.04,0.08-0.04,0.16,0,0.2799c0.08,0.2399,0.2799,0.2399,0.4799,0.16c0.2799-0.08,0.5199-0.3599,0.6798-0.5598
					c0.08-0.08,0.2399-0.3599,0.1999-0.4799c0-0.04-0.08-0.12-0.16-0.08c-0.12,0.04-0.3999,0.5598-0.6398,0.6398
					c-0.08,0.04-0.12,0-0.16-0.08c-0.08-0.2399,0.4399-0.7998,0.3599-0.9597c-0.04-0.08-0.16-0.16-0.2399-0.16
					c-0.2399,0.08-1.0397,1.4796-1.1197,1.7995h-0.04c-0.04-0.4399,0.3599-0.9597,0.2799-1.1997c-0.04-0.08-0.16-0.12-0.1999-0.08
					c-0.2399,0.08-0.3999,0.7598-0.4799,1.1597v-0.04c-0.04-0.08-0.1999-0.12-0.2399,0.12c-0.08,0.7198-0.3199,1.2397-0.6398,1.7595
					h-0.04c0.04-0.5598,0.08-1.1197,0.1999-1.6795c0-0.08,0-0.12,0-0.12c-0.04,0-0.08-0.04-0.12-0.08
					c0-0.3999-0.04-0.5598-0.16-0.6798s-0.2799-0.16-0.4399-0.08c-0.5599,0.2399-0.9597,1.2397-1.0397,2.1194c0,0,0,0-0.04,0
					c-0.12,0.08-0.12,0.2799-0.16,0.3999c-0.04,0.2399-0.12,0.8798-0.3599,0.9597c-0.08,0.04-0.12,0-0.16-0.08
					c-0.08-0.16-0.12-0.6798-0.12-0.8798l0.04-0.16c0.3599-0.8398,0.6398-1.4796,0.8398-2.3994
					c0.12-0.5998,0.3999-1.8395,0.16-2.3594c-0.08-0.1999-0.2799-0.2799-0.4799-0.1999c-0.9597,0.4399-1.1997,5.5185-0.7598,6.3983
					c0.08,0.1999,0.3199,0.3199,0.5199,0.1999c0.2799-0.12,0.4399-0.5998,0.5599-1.0397v0.04
					c0.1999,0.4399,0.7598,0.5598,1.0797-0.4799h0.04c0,0.4799,0,0.2399-0.04,0.7598c-0.5599,0.6798-1.5996,1.7995-1.1997,2.7593
					c0.12,0.3199,0.3999,0.4399,0.6798,0.3199c0.7598-0.3199,0.7998-2.2394,0.8398-2.9592v-0.08
					c0.3199-0.4399,0.6398-0.9597,0.7998-1.4796C25.9038,28.3706,25.9438,28.2907,25.9438,28.2107z M22.9046,26.2512
					c0.08-0.8398,0.2399-1.5996,0.4799-1.6795c0.04-0.04,0.12,0,0.12,0.04c0.12,0.2799-0.04,1.2797-0.08,1.5996
					c-0.12,0.6798-0.3199,1.3596-0.6398,1.9995C22.7846,27.9308,22.8246,27.051,22.9046,26.2512z M24.1842,32.4895
					c-0.12,0.04-0.1999,0-0.2399-0.12c-0.1999-0.4799,0.3999-1.5596,0.7598-1.9195C24.6641,30.85,24.5441,32.2896,24.1842,32.4895z
					 M24.6641,28.0507c-0.04,0.08-0.04,0.16,0.08,0.1999c-0.08,0.9597-0.5199,1.3996-0.6398,1.0397
					c-0.1999-0.5199,0.2399-2.0794,0.5599-2.1994C24.944,26.971,24.8641,27.6508,24.6641,28.0507z"/>
				<path id="erfolgreich12_8_" fill="#0C0000" d="M28.3831,27.7308c0.12,0.3999,0.4799,0.5598,0.8798,0.4799
					c0.3999-0.08,0.8398-0.5599,1.1197-0.9997c-0.04,0.2799-0.04,0.4799,0,0.5998c0.04,0.12,0.12,0.1999,0.2399,0.16
					c0.1999-0.04,0.16-0.2799,0.16-0.4399c0.04-1.5196,0.5998-2.3994,0.5199-2.5993c-0.04-0.08-0.12-0.16-0.1999-0.12
					c-0.16,0.04-0.3999,0.7598-0.5998,1.5196c-0.1999,0.1999-0.5199,1.1997-1.1997,1.3996c-0.2799,0.08-0.4799-0.04-0.5199-0.3199
					c0.7998-0.4799,1.2797-1.5196,1.1597-2.0395c-0.04-0.1999-0.2399-0.2799-0.3999-0.2399
					C29.0229,25.2915,28.1032,26.6111,28.3831,27.7308z M29.0229,26.2512c0.12-0.2799,0.3199-0.5598,0.4399-0.5998
					c0.08,0,0.12,0,0.12,0.08c0.04,0.16-0.08,0.4399-0.16,0.5598c-0.16,0.3199-0.3599,0.5199-0.6398,0.7198
					C28.783,26.851,28.903,26.5311,29.0229,26.2512z"/>
				<path id="erfolgreich11_8_" fill="#0C0000" d="M31.4223,23.8519c0.2399-0.08,0.4399-0.5598,0.3999-0.7998
					c-0.04-0.12-0.12-0.1999-0.2799-0.16c-0.2399,0.04-0.4399,0.5598-0.3599,0.7998
					C31.1824,23.8119,31.3023,23.8918,31.4223,23.8519z"/>
				<path id="erfolgreich10_8_" fill="#0C0000" d="M31.3823,27.011c0.08,0.3999,0.3999,0.5998,0.7998,0.5199
					c0.5199-0.12,0.8798-0.6398,1.1197-1.0797c0.08-0.12,0.3199-0.5199,0.2799-0.6798c0-0.04-0.16-0.3199-0.3199,0.08
					c-0.16,0.3599-0.5998,1.1597-1.0397,1.2397c-0.16,0.04-0.3199-0.08-0.3599-0.2399c-0.12-0.6398,0.5599-1.9595,0.8798-1.9995
					c0.16-0.04,0.12,0.2399-0.04,0.5199c-0.2399,0.3199,0.04,0.3999,0.08,0.3599c0.2399-0.04,0.4799-0.6798,0.3999-1.0397
					c-0.04-0.2399-0.1999-0.3599-0.3999-0.3199C32.1021,24.4917,31.1824,25.9713,31.3823,27.011z"/>
				<path id="erfolgreich9_8_" fill="#0C0000" d="M33.9016,27.011c0.2399-1.2397,0.9597-2.0794,1.2797-2.3194
					c-0.1999,0.5199-0.5599,1.1997-0.4799,1.7595c0.04,0.2799,0.2399,0.4399,0.4799,0.3599c0.2399-0.08,0.5598-0.3999,0.8798-1.0397
					c0.3599-0.7598,0.1999-0.7998,0.12-0.7598c-0.2399,0.04-0.5199,1.1597-0.8798,1.2397c-0.08,0-0.12-0.04-0.16-0.12
					c-0.04-0.3199,0.3999-1.2397,0.5598-1.5196c0.16-0.2799,0.16-0.4399,0.12-0.5199c-0.04-0.08-0.16-0.08-0.2399-0.08
					c-0.2799,0.04-0.9997,0.7998-1.1597,1.0797h-0.04c0.12-0.3999,0.2399-0.7998,0.3599-1.1597l0.7598-1.9195
					c0.08-0.12,0.1999-0.3999,0.1999-0.5598c0-0.12-0.16-0.2399-0.2799-0.2399c-0.08,0.04-0.3199,0.1999-0.5599,1.1197
					l-1.2397,3.9189c-0.04,0.1999-0.16,0.6398-0.16,0.8398C33.5417,27.2509,33.8217,27.3309,33.9016,27.011z"/>
				<path id="erfolgreich8_8_" fill="#0C0000" d="M37.1008,26.7711c0.1999,0,0.2399-0.2399,0.3199-0.3999
					c0.1999-0.5998,0.5199-1.1997,0.9997-1.5996l0,0c-0.16,0.3199-0.5199,1.1997-0.5199,1.5596c0,0.12,0.08,0.16,0.16,0.16
					c0.16,0,0.1999-0.12,0.2399-0.2399c0.2399-0.5998,0.6798-1.2797,1.1597-1.7195l0,0c-0.2799,0.3599-0.4799,0.7998-0.4399,1.2797
					c0,0.2399,0.1999,0.7598,0.5199,0.7198c0.12,0,0.1999-0.12,0.1999-0.2399c0-0.08-0.08-0.12-0.12-0.1999
					c-0.12-0.12-0.16-0.1999-0.16-0.3999c-0.04-0.5199,0.4399-1.1597,0.7598-1.5596c0.08-0.08,0.1999-0.2399,0.16-0.3599
					c0-0.12-0.12-0.1999-0.2399-0.16c-0.3599,0.04-1.1597,0.9198-1.3996,1.1997c0.04-0.2399,0.4399-0.6798,0.4399-0.8798
					c0-0.08-0.12-0.16-0.1999-0.16c-0.2799,0.04-0.9997,0.8398-1.1997,1.0797c0.04-0.2399,0.5199-0.9597,0.4799-1.0797
					c0-0.08-0.08-0.16-0.16-0.16c-0.4399,0.04-1.2797,2.4393-1.2397,2.8792C36.9408,26.6911,37.0208,26.7711,37.1008,26.7711z"/>
				<path id="erfolgreich7_8_" fill="#0C0000" d="M40.5798,26.3712c0.3999,0,0.6798-0.5199,0.8398-0.8398l0,0v0.2799
					c0,0.4399,0.2799,0.7198,0.5998,0.6798c0.12,0,0.2399-0.08,0.2399-0.1999c0-0.12-0.08-0.16-0.1999-0.2399
					c-0.16-0.08-0.2399-0.2399-0.2399-0.3999c0-0.3199,0.2399-0.9597,0.3999-1.2397c0.04-0.08,0.12-0.1999,0.12-0.3199
					c0-0.08-0.04-0.12-0.08-0.16c0.04-0.12,0.08-0.1999,0.08-0.2799c0-0.2399-0.2399-0.3599-0.4399-0.3599
					c-0.9198,0.04-1.7995,1.6396-1.7995,2.4793C40.1,26.0513,40.2599,26.3712,40.5798,26.3712z M41.7395,23.7719
					c0.12,0,0.1999,0.08,0.2799,0.1999c-0.3199,0.1999-0.7198,1.7995-1.2397,1.8395c-0.12,0-0.1999-0.12-0.1999-0.2399
					C40.5399,25.0915,41.1797,23.7719,41.7395,23.7719z"/>
				<path id="erfolgreich6_8_" fill="#0C0000" d="M42.6593,26.2512c0.3199,0,0.6398-0.3199,0.9198-0.6798
					c0,0.4399,0.2799,0.6798,0.6798,0.7198c0.4399,0.04,1.0397-0.3199,1.4796-0.6798c0,0,0,0,0,0.04
					c-0.08,0.12-0.1999,0.3599-0.2399,0.4799c0,0.12,0.04,0.2399,0.1999,0.2399c0.1999,0,0.3199-0.2399,0.3999-0.3599
					c0.3199-0.4799,0.6798-0.9198,1.1997-1.1597v0.04c-0.2799,0.3599-0.5598,0.8398-0.5998,1.3196
					c-0.04,0.2799,0,0.8398,0.3599,0.8798c0.08,0,0.1999-0.08,0.1999-0.16c0-0.12-0.16-0.2799-0.12-0.6798
					c0.16-1.1197,1.1997-1.7195,1.2397-2.0395c0-0.12-0.04-0.2399-0.16-0.2399c-0.3199-0.04-1.2397,0.6798-1.4796,0.9198v-0.04
					c0.08-0.1999,0.4799-0.5599,0.5199-0.7598c0-0.12-0.08-0.1999-0.16-0.1999c-0.16,0-0.5598,0.5199-0.8798,1.0397
					c0,0-0.04-0.04-0.08-0.04c-0.1999,0-0.8398,0.9997-1.6396,0.9997c-0.2799,0-0.4799-0.16-0.3999-0.4399
					c0.9198-0.1999,1.6795-1.0397,1.7195-1.5596c0-0.1999-0.16-0.3199-0.3199-0.3599c-0.3999,0-1.1997,0.5199-1.6396,1.2797
					c-0.12,0.04-0.1999,0.1999-0.2399,0.2799c-0.12,0.1999-0.4799,0.7198-0.7198,0.7198c-0.08,0-0.12-0.04-0.12-0.12
					c0-0.1999,0.1999-0.6798,0.2799-0.8398l0.12-0.12c0.6798-0.5998,1.1997-1.0797,1.7595-1.7995
					c0.3599-0.4799,1.1197-1.4796,1.1197-2.0794c0-0.1999-0.16-0.3599-0.3599-0.3599c-1.0397,0-3.3991,4.4788-3.3991,5.4785
					C42.2594,26.0513,42.4193,26.2512,42.6593,26.2512z M44.6587,24.3317c0.1999-0.2399,0.4399-0.4399,0.5998-0.3999
					c0.08,0,0.08,0.04,0.08,0.12c0,0.16-0.2399,0.3999-0.3199,0.4799c-0.2399,0.2399-0.4799,0.3999-0.7998,0.4799
					C44.2589,24.8516,44.4188,24.5717,44.6587,24.3317z M44.2988,22.2523c0.4399-0.7198,0.9198-1.3596,1.1197-1.3596
					c0.08,0,0.08,0.04,0.08,0.12c0,0.2799-0.5998,1.1597-0.7598,1.3996c-0.3999,0.5598-0.8798,1.1197-1.3996,1.5596
					C43.4591,23.6919,43.899,22.9321,44.2988,22.2523z"/>
				<path id="erfolgreich5_8_" fill="#0C0000" d="M47.8979,26.891c0,0.12,0.04,0.2399,0.16,0.2799
					c0.2799,0.04,0.5199-0.3999,0.5599-0.6398c0-0.12-0.04-0.2399-0.1999-0.2799C48.1778,26.2112,47.8979,26.6911,47.8979,26.891z"
					/>
				<path id="erfolgreich4_8_" fill="#0C0000" d="M52.2567,21.2126c-0.16-0.04-0.2799,0.16-0.3599,0.2799l-2.4793,3.1991
					c-0.16,0.1999-0.5998,0.6398-0.6398,0.8798c0,0.12,0.04,0.3199,0.1999,0.3199c0.12,0,0.1999-0.08,0.2799-0.1999l2.5193-3.1192
					c0.16-0.2399,0.6398-0.7998,0.6798-1.0797C52.4167,21.3725,52.3767,21.2526,52.2567,21.2126z"/>
				<path id="erfolgreich3_8_" fill="#0C0000" d="M18.7457,33.8492c-0.04,0.04-1.3196,0.6798-2.7193,2.1194
					c-0.12,0.12-0.12,0.3199,0,0.4399c0.08,0.04,0.12,0.08,0.1999,0.08s0.16-0.04,0.2399-0.08
					c1.3196-1.3596,2.5193-1.9995,2.5593-1.9995c0.16-0.08,0.1999-0.2799,0.12-0.3999
					C19.0656,33.8092,18.9057,33.7692,18.7457,33.8492z"/>
				<path id="erfolgreich2_8_" fill="#0C0000" d="M23.4644,31.6098c-0.08-0.16-0.2399-0.2399-0.3999-0.16
					c-0.04,0-0.9997,0.3999-1.6396,0.8798c-0.12,0.12-0.16,0.3199-0.04,0.4399c0.08,0.08,0.16,0.12,0.2399,0.12
					s0.12-0.04,0.1999-0.08c0.5199-0.4399,1.4396-0.7998,1.4796-0.7998C23.4644,31.9697,23.5444,31.7697,23.4644,31.6098z"/>
				<path id="erfolgreich1_8_" fill="#0C0000" d="M49.3775,28.1707c-2.1994-1.2797-7.398-1.3196-11.5569-0.9198
					c-4.1189,0.3999-9.3975,1.3996-11.8768,3.0792c-0.16,0.08-0.16,0.2799-0.08,0.4399c0.08,0.08,0.16,0.12,0.2399,0.12
					c0.08,0,0.12,0,0.16-0.04c1.9595-1.3196,6.4783-2.5193,11.5569-2.9992c5.1586-0.4799,9.4375-0.16,11.197,0.8398
					c0.16,0.08,0.3199,0.04,0.4399-0.12C49.5774,28.4506,49.5374,28.2507,49.3775,28.1707z"/>
			</g>
		</g>
	</g>
</g>
<g id="Layer_11">
</g>
<g id="Layer_12">
</g>
<g id="Layer_13">
</g>
<g id="Layer_14">
</g>
<g id="Layer_15">
</g>
<g id="Layer_17">
</g>
<g id="Layer_7">
</g>
<g id="Layer_8">
</g>
<g id="Layer_18">
</g>
</svg>
