<?xml version="1.0" encoding="utf-8"?>
<!-- Generator: Adobe Illustrator 24.0.1, SVG Export Plug-In . SVG Version: 6.00 Build 0)  -->
<svg version="1.1" xmlns="http://www.w3.org/2000/svg" xmlns:xlink="http://www.w3.org/1999/xlink" x="0px" y="0px"
	 viewBox="0 0 80 80" enable-background="new 0 0 80 80" xml:space="preserve">
<g id="Layer_19">
</g>
<g id="Layer_1">
</g>
<g id="Layer_2">
</g>
<g id="Layer_3">
</g>
<g id="Layer_4">
</g>
<g id="Layer_5">
</g>
<g id="Layer_6">
</g>
<g id="Layer_9">
	<rect y="0" fill="none" width="80" height="80"/>
	<g id="Ebene_2_4_">
		<g>
			<path fill="#E3000B" d="M18.9301,36.4821c0.8454-2.029,1.1413-2.8321,1.6908-3.6352c0.5495-0.7609,1.4795-1.4372,1.7331-1.4795
				c0.2114,0,0.2959-0.0845,0.0423,0.9299c-0.2536,1.0568,0.1691,1.564,0.465,1.9022c0.2959,0.3382,2.8321,1.6485,3.8466-0.9299
				c0.9299-2.4094-0.7186-3.5507-1.3526-3.9311c-0.6341-0.3804-2.6208-1.3104-5.8756,0.0845s-4.7343,4.8611-5.8333,7.355
				s-2.3249,5.7065-3.2971,7.355s-2.029,1.9867-2.029,1.9867s-0.2536,0.1268-0.3804,0c-0.1691-0.1691,0.0845-0.5072,0.1268-0.6763
				c0.0423-0.1268,0.1691-0.465-0.0845-1.2681c-0.2536-0.8454-1.3104-1.4372-2.4939-1.2681
				c-1.8599,0.2536-2.9166,2.7053-1.9022,4.2693c1.5217,2.2826,4.1002,2.3671,6.256,1.8599
				c2.1558-0.5495,4.3116-2.4939,5.5374-4.7343C16.6898,42.0195,18.0847,38.5111,18.9301,36.4821z M75.699,42.104
				c-0.5918-0.5072-0.8031-0.9299-0.8031-0.9299l0.1691-0.3382c0,0,0.2536-0.465,0.2536-1.4795s-0.8877-1.5217-0.8877-1.5217
				s0-0.2536-0.2959-0.9299c-0.2959-0.7186-1.099-1.3104-1.7331-1.5217c-0.634-0.2113-2.7053-0.5918-4.8611,1.1413
				c-2.2826,1.8599-2.7898,4.4384-2.7898,4.4384s-0.634,0.6763-0.9299,0.9299c-0.2959,0.2536-2.0712,1.7331-3.4662,1.5217
				c-1.3949-0.2113-1.7753-1.7331-1.1413-3.4662s1.9867-2.2826,1.9867-2.2826s0.1691-0.1268,0.1691,0.3804
				c0,0.2114-0.0423,0.6341,0.2113,1.1836c0.2114,0.465,1.0145,1.0145,1.9867,0.7609c0.9722-0.2536,1.8176-1.0568,1.9022-2.3249
				c0.1268-1.2681-1.2681-2.1558-2.3671-2.4094s-2.3671-0.465-4.7343,0.9299c-2.5785,1.5217-3.9311,5.7487-3.9311,5.7487
				L54.268,42.104c0,0-0.5072,0.5918-1.1413,0.5072c-0.5918-0.0845-0.0845-1.3104-0.0845-1.3104s1.6485-3.3816,1.9867-4.1425
				c0.3382-0.7609,0.3804-1.4795,0.3804-1.4795h-4.6497l-0.2959,0.7186c0,0-1.7331,4.0157-1.9867,4.5229
				c-0.2536,0.5072-0.6341,1.1413-1.099,1.3104c-0.465,0.1691-0.5918,0.0845-0.6763-0.2113s0.3382-1.3104,0.3382-1.3104
				s1.3949-2.9166,1.7331-3.8043c0.3804-0.8877,0.2536-1.1413,0.2536-1.1413h-4.3538L44.419,36.313c0,0-0.8877,2.1135-1.1836,2.7476
				c-0.2959,0.6763-0.7186,1.2681-1.4372,2.029c-0.7609,0.7609-1.6485,1.1836-1.9444,1.1413s-0.2114-0.3804-0.2114-0.5495
				c0-0.1691,0.3804-0.9722,0.5918-1.3949c0.2113-0.4227,1.0568-2.5362,1.2258-3.1703c0.1691-0.6341-0.1268-1.099-0.6763-1.3104
				c-0.5495-0.2114-1.5217-0.2114-2.663,0.2959c-1.099,0.5072-2.6208,1.6908-2.7476,1.7753
				c-0.1268,0.0845-0.2959,0.0423-0.3804-0.1268c-0.0423-0.1691,0.2536-0.8877,0.465-1.3949
				c0.2959-0.6763,0.8877-1.9867,1.9444-3.593c0.465-0.6763,1.099-1.099,1.4795-1.2681s0.465,0.1268,0.465,0.1268
				s-0.2959,0.6341-0.2959,1.7331s1.1836,1.5217,1.8599,1.564c0.6341,0.0423,2.7053-0.2114,2.8321-2.6208
				c0.1268-2.7053-2.4939-3.593-3.8889-3.593c-1.3526,0-3.0857,0-5.6642,2.1981c-2.5785,2.1981-3.1703,5.5374-4.1425,7.4396
				c-1.0145,1.9022-1.8599,2.7898-2.4094,3.1703s-2.6208,1.9022-3.8043,1.6908c-0.7609-0.1268-1.4795-0.9299-1.3949-2.1981
				c0.0845-1.0568,1.099-2.4094,1.564-2.8744c0.3804-0.3804,0.3804-0.4227,0.5918-0.3804c0.1691,0.0423,0.1691,0.1691,0.1691,0.3804
				c0,0.2113-0.0845,0.7609,0.2114,1.1836c0.2536,0.3804,0.5918,1.0145,1.8176,0.8031c1.2258-0.2114,1.9867-1.2258,2.0712-2.2403
				c0.0845-1.0145-0.465-1.6485-1.3949-2.2403c-0.9299-0.5918-2.8321-1.0145-5.2838,0.3382
				c-2.4517,1.3526-3.7198,3.593-4.0157,5.7065c-0.3382,2.1135,0.8454,4.1425,3.2971,4.1425
				c2.4517,0.0423,5.8333-2.198,5.8333-2.198s0.0845,0,0.1268,0c0.2959,0.0423-0.1691,0.8031-0.2959,1.1413s0,0.7186,0,0.7186
				l4.3116,0.0423c0,0,0.2959-0.6341,0.465-0.9299s1.1836-2.1135,1.3526-2.4939s0.3804-0.6763,0.7186-1.0568
				c0.3382-0.3804,0.5495-0.5495,0.7609-0.7186c0.2113-0.1691,0.5072-0.2536,0.6763-0.0845
				c0.1691,0.1691,0.0423,0.5072,0.0423,0.5072s-0.5495,1.2258-0.8454,2.1558c-0.2959,0.9299-0.4227,1.3104,0.0845,2.1135
				c0.5072,0.8454,1.8176,0.8877,2.7053,0.7186c0.8877-0.2113,2.1135-0.9722,2.2403-1.0568
				c0.1268-0.0845,0.7186-0.465,1.0568-0.6763c0.465-0.2959,0.8031-0.465,0.8031-0.465l0.1691,0.5072
				c0,0,0.2113,0.9722,0.8877,1.5217c0.7186,0.5495,1.6063,0.3804,2.4517,0.0845c0.8454-0.2959,2.3249-1.3949,2.4094-1.3526
				c0.0845,0.0423,0.1268,0.0845,0.2113,0.1691c0.1268,0.1268,0.1268,0.465,0.1691,0.6763
				c0.0845,0.2113,0.3804,0.6763,1.0145,0.8877c0.5918,0.2114,1.1413,0.2114,2.1558-0.0845
				c1.0568-0.2959,2.7898-1.6908,3.3393-1.8176c0.1268-0.0423,0.1691-0.0423,0.1691-0.0423s0.6763,0.9299,1.1836,1.2681
				s1.564,0.9722,3.4239,0.5495c1.8599-0.4227,3.593-1.6063,4.3538-2.1558c0.3804-0.2959,0.5495-0.4227,0.7609-0.5495
				c0.2536-0.1268,0.2959-0.1691,0.3804,0.0845c0.0423,0.1691,0.0845,0.1691,0.1268,0.3804
				c0.0845,0.2113,0.5495,1.6908,1.6908,2.2403c1.1413,0.5072,2.5785,0.5495,4.1847-0.1691c1.564-0.7186,2.8744-2.663,3.0012-2.8744
				c0.0845-0.0845,0.1268-0.2114,0.2536-0.2536c0.1268-0.0423,0.3382,0.0845,0.3382,0.0845s0.5072,0.3804,0.6763,0.7609
				c0.1268,0.3804,0.3382,0.9299-0.2536,2.029c-0.6763,1.1836-2.5785,1.2258-2.5785,1.2258l-56.473,0.3804l-1.7331,4.227
				l57.9524-2.4939c0,0,3.128,0,4.4384-2.4094C77.5589,43.668,76.2907,42.6113,75.699,42.104z M72.1905,37.708
				c-0.0845,0.1691-0.5072,0.2959-0.9299,0.9722c-0.4227,0.6763-0.4227,1.2258-0.2536,1.7753
				c0.1691,0.5495,0.7609,1.0145,0.7609,1.0145s0.465,0.2536,0.3382,0.6341c-0.1268,0.3804-0.5918,1.3104-1.6485,1.3949
				c-0.7609,0.0845-1.2258-0.5072-1.4372-0.9299c-0.1691-0.3804-0.1268-1.0145,0.0423-1.564
				c0.3382-1.2258,0.8031-2.1981,1.5217-2.9166c0.7609-0.7609,1.1413-0.8877,1.3949-0.7609
				C72.2751,37.4543,72.2751,37.5389,72.1905,37.708z"/>
		</g>
	</g>
</g>
<g id="Layer_10">
</g>
<g id="Layer_11">
</g>
<g id="Layer_12">
</g>
<g id="Layer_13">
</g>
<g id="Layer_14">
</g>
<g id="Layer_15">
</g>
<g id="Layer_17">
</g>
<g id="Layer_7">
</g>
<g id="Layer_8">
</g>
<g id="Layer_18">
</g>
</svg>
