<?xml version="1.0" encoding="utf-8"?>
<!-- Generator: Adobe Illustrator 24.0.1, SVG Export Plug-In . SVG Version: 6.00 Build 0)  -->
<svg version="1.1" xmlns="http://www.w3.org/2000/svg" xmlns:xlink="http://www.w3.org/1999/xlink" x="0px" y="0px"
	 viewBox="0 0 80 80" enable-background="new 0 0 80 80" xml:space="preserve">
<g id="Layer_19">
</g>
<g id="Layer_1">
</g>
<g id="Layer_2">
</g>
<g id="Layer_3">
</g>
<g id="Layer_4">
</g>
<g id="Layer_5">
</g>
<g id="Layer_6">
	<rect y="0" fill="none" width="80" height="80"/>
	<g id="Ebene_2_3_">
		<g>
			<g>
				<g>
					<path fill="#FFFFFF" d="M77.7005,50.7178l-0.0432-0.0432v-0.0864c0.1296-0.8637,0.2591-2.6342,0.0432-4.6207
						c-0.2159-1.8137-0.8637-3.5411-1.3819-4.7503c-0.3023-2.6774-1.166-4.6639-1.8137-5.8299
						c-1.6842-2.9797-4.0593-4.8798-5.4844-5.7867c0.2159-0.3023,0.4318-0.6478,0.6046-0.9501
						c1.3387-2.5911,0.5614-5.5708-0.6046-7.4709c-1.2523-2.0729-2.8934-3.2388-4.6207-3.2388c-0.6478,0-1.2955,0.1727-1.9001,0.475
						c-0.8205,0.4318-1.5978,0.9932-2.2024,1.5978c-0.1296-0.0432-0.2159-0.0432-0.3887-0.0864
						c-0.5614-0.0864-1.3387-0.0432-1.6842,0c-0.3023-0.0432-0.9069-0.1296-1.6842-0.1296c0.2159-0.475,0.4318-1.0364,0.0432-1.641
						c-0.2591-0.3887-0.7341-0.6478-1.166-0.6478c-0.1727,0-0.3455,0.0432-0.5182,0.0864
						c-0.6909,0.2591-1.2523,0.6478-1.6842,1.1228c-0.2591-0.1727-0.5614-0.3023-0.8637-0.3023
						c-0.3023,0-0.5614,0.0864-0.8205,0.2591c-1.2523,0.8637-1.9865,2.2888-2.116,4.0593
						c-1.2092,1.3819-1.8137,3.0229-1.6842,4.7935c0.0864,0.8637,0.1727,1.7274,0.3023,2.4615
						c0.0864,0.6909,0.1727,1.3819,0.2159,1.9433c-1.5546,0.0864-2.7206,1.2955-2.9797,2.5047
						c-0.1296,0.691-0.0432,1.7274,0.6046,2.5047c0.5182,0.6478,1.2955,0.9932,2.2024,0.9932l0,0c0.1296,0,0.3023,0,0.4318-0.0432
						c2.9797-0.3455,3.6707-3.2388,3.973-5.3549c0.0432-0.3887,0.0864-0.7341,0.1296-1.0364c0.0864,0,0.1296,0,0.2159,0
						c0.2591,0,0.5614-0.0432,0.8205-0.1727c0.0432-0.0432,0.1296-0.0432,0.1727-0.0864c0.1296,0.5614,0.3023,1.2523,0.8637,1.9001
						c0.1727,0.2159,0.3023,0.3455,0.475,0.475c-0.1296,0.3023-0.3023,0.6046-0.3887,0.8205
						c-0.1727,0.475-0.3023,0.9501-0.3887,1.4251c-0.1296,0.6046-0.3023,1.2523-0.5182,1.5546
						c-0.1727,0.2159-0.3455,0.4318-0.5182,0.6909c-0.6478,0.8205-1.4683,1.8137-2.2024,3.0661
						c0,0.0432-0.0432,0.0864-0.0432,0.0864c-0.2591-0.3023-0.6046-0.475-0.9932-0.475H44.794
						c-0.7341,0-1.3387,0.6046-1.3387,1.3387v3.4548c-0.4318-0.2591-0.9932-0.4318-1.5546-0.4318h-3.5411
						c-0.475,0-0.9069,0.0864-1.3387,0.3023c-0.3023-0.1296-0.6046-0.2159-0.9069-0.2591c-0.0864,0-0.1727-0.0432-0.2591-0.0432
						h-2.3751c-0.475,0-0.9069,0.0864-1.3387,0.3023c-0.3887-0.2159-0.8637-0.3023-1.3387-0.3023h-4.4912
						c-0.4318,0-0.8637,0.2159-1.0796,0.5614c0-0.0864,0.0432-0.1727,0.0432-0.3023v-3.973c0-0.7341-0.6046-1.3387-1.3387-1.3387
						h-4.1025c-0.3023,0-0.6046,0.1296-0.8637,0.3023c-0.2159-0.1727-0.5182-0.3023-0.8637-0.3023H7.9146
						c-2.2456,0-4.0593,1.8137-4.0593,4.0593v1.2523c0,0.1727,0.0432,0.3455,0.0864,0.5182
						c-0.0864,0.1727-0.0864,0.3455-0.0864,0.5182v2.4183c0,0.9932,0.3455,1.9001,0.9501,2.5911
						c-0.5614,0.1727-0.9501,0.6909-0.9501,1.2955v4.4048c0,0.7341,0.6046,1.3387,1.3387,1.3387h10.1915
						c1.2092,0,2.2888-0.5614,3.0661-1.3819v0.0432c0,0.7341,0.6046,1.3387,1.3387,1.3387h5.4412
						c0.1727,0,0.3887-0.0432,0.5614-0.1296c0.1727,0.0864,0.3455,0.1296,0.5614,0.1296h6.7799c0.0864,0,0.2159,0,0.3023-0.0432
						c0.0864,0,0.2159,0.0432,0.3023,0.0432h5.0958c0.0864,0,0.2159,0,0.3023-0.0432c0.0864,0.0432,0.2159,0.0432,0.3023,0.0432
						h2.3751c0.0432,0,0.0432,0,0.0864,0h2.9365c0.2159,0,0.3887-0.0432,0.5614-0.1296c0.1727,0.0864,0.3455,0.1296,0.5614,0.1296
						h3.5843c0.2159,0,0.4318-0.0432,0.6478-0.1727c0.3455,0.0864,0.7341,0.1727,1.1228,0.1727h2.1592
						c1.3387,0,2.5479-0.6478,3.282-1.6842c0.7341,0.9932,1.9433,1.6842,3.282,1.6842h1.9433c0.3023,0,0.6478-0.0432,0.9501-0.1296
						c0.1727,0.0864,0.3455,0.1296,0.5614,0.1296h5.0958c0.0864,0,0.1727,0,0.2591-0.0432c0.0432,0,0.0432,0,0.0864,0
						c0,0,0,0,0.0432,0h5.1821c0.0432,0,0.1295,0,0.2159,0c0.3887,0,0.9069-0.0864,1.3819-0.3887
						c0.5182-0.3455,0.8205-1.0364,0.7341-1.7706c-0.0432-0.3887-0.1296-1.1228-0.3887-1.5546
						c-0.2159-0.3887-0.5182-0.6478-0.7773-0.8637c0-0.0864-0.0432-0.1727-0.0864-0.2591c0.7773,0.2159,1.4251,0.2591,1.4683,0.2591
						l0,0c0.2591,0,0.475-0.0432,0.6478-0.1296C78.6073,53.2657,78.0891,51.7974,77.7005,50.7178z"/>
				</g>
				<g>
					<g>
						<g>
							<path fill="#FFFFFF" d="M51.9194,22.6048c0-1.0364,0.2159-2.4183,0.3887-2.7638c-1.3387,1.1228-1.5115,2.5047-1.5115,3.8866
								l0.2159,0.2591l0.8205-0.8637L51.9194,22.6048z"/>
							<path fill="#D9DADA" d="M76.1458,50.8042c0,0,0.1727-1.2523,0.2159-2.116c0.0432-0.8637-0.0864-2.2456-0.3455-3.5843
								c-0.2591-1.3819-1.166-3.3684-1.166-3.3684s-0.1296-1.6842-0.6909-3.4116c-0.5614-1.7274-1.9001-3.7139-3.1956-5.0958
								c-1.3387-1.3819-3.8434-2.9365-3.8434-2.9365l-0.3023-0.475c0,0,0.6478-0.6046,1.1228-1.166
								c0.475-0.6046,0.9069-1.7274,0.9932-2.9365c0.0432-1.2092-0.9069-3.3252-1.5546-4.2752
								c-0.6478-0.9069-1.9433-1.8569-3.1525-1.8569c-1.2092,0-3.5411,2.116-3.5411,2.116
								c-0.5614-0.475-2.4183-0.3023-2.4183-0.3023s-1.5978-0.1296-1.9865-0.1296s-2.0728,0.2591-2.5479,0.3455
								c-0.475,0.0864-1.2955,0.6046-1.9433,0.9501c-0.6478,0.3455-1.5115,1.3387-2.2024,2.5911
								c-0.6909,1.2955-0.3887,2.2456,0,5.3117c0.3887,3.0661-0.2591,3.282-0.2591,3.282l-0.2591-0.2591
								c0,0-0.1727-0.0864-0.6046-0.1296c-0.4318,0-0.9932,0.0432-1.5546,0.9069c-0.5614,0.8205,0.1296,1.9865,0.7341,2.116
								c0.6046,0.1296,1.7274,0.0864,2.5911-1.166c0.8637-1.2955,0.8637-3.2388,0.9501-4.3616
								c0.0432-1.1228,0.2591-2.4615,0.6046-2.9797c0.3023-0.5182,1.7274-1.166,1.7274-1.166l0.2159,0.2591
								c0,0-0.3455,0.1727-0.5182,0.3023c-0.2159,0.1727-0.691,0.6046-0.8637,1.641c-0.2159,1.0364,0.5614,1.1228,1.0796,0.8205
								c0.5182-0.2591,0.8637-0.6478,0.8637-0.6478s0.3887,0.1296,0.691,0.5614c0.3023,0.4318,0.0432,0.6046,0.6046,1.9433
								s1.8569,1.166,1.8569,1.166s-0.0432,0.1727-0.6478,1.166c-0.5614,0.9932-0.9069,2.5479-0.9501,2.9365
								c-0.0432,0.3455-0.4318,1.2092-0.7773,1.641c-0.3455,0.4318-1.9001,2.5047-2.5047,3.3252
								c-0.6046,0.8205-1.2523,2.7206-1.2523,2.7206s-0.3023-0.0432-0.6909,0.7341c-0.3455,0.7773-0.2591,1.1228-0.2591,1.1228
								s6.0026-0.0864,6.1322-0.1727c0.1296-0.0864,0.1296-0.9069,0.1296-0.9069s0.3455-0.2159,0.7341-0.3887
								c0.3455-0.1727,1.3819-0.8205,1.3819-0.8205s1.4251,2.7206,2.0728,3.6707c0.6478,0.9501,4.7503,3.3684,5.0526,3.4547
								c0.3023,0.0864,3.4548,0.1296,3.4548,0.1296s0.2159,0.9069,0.1727,1.3387c-0.0432,0.4318,0.0432,2.4183,0.0432,2.4183
								s-0.3887,0.3887-0.4318,0.3887c-0.0432,0-0.3023,0.475-0.2591,1.1228s1.3387,0.3455,1.3387,0.3455
								s4.5775-0.0864,4.6207-0.1296c0.0432,0,0.2159-0.2591,0.1727-0.8637c0-0.6046-0.9501-1.1228-0.9501-1.1228
								s-0.4318-1.9433-0.5614-2.4615s-0.1296-1.7706-0.1296-1.7706s0.6478-1.5115,1.0796-2.7206
								c0.3887-1.2092,0.6478-2.6774,0.6478-2.6774s0.0864,0.3455,0.5182,2.2456c0.4318,1.9001-0.4318,3.8866-0.4318,3.8866
								l-0.0432,0.5182c0,0,1.5546,0.4318,1.641,0.3887C76.6208,52.2724,76.1458,50.8042,76.1458,50.8042z M47.7305,34.7396
								c-0.0864-0.3887,0.3023-0.6046,0.4318-0.6046l0.0432,0.0432l0.1727,0.3887l0.1727,0.2591
								C48.5942,34.7828,47.8601,35.0851,47.7305,34.7396z"/>
							<path fill="#FFFFFF" d="M55.2878,18.9341c0,0-1.1228,1.8569-1.1228,3.9298c0,2.2888,0.9069,3.4979,0.9069,3.4979
								s0.1727-1.0796,0.8637-1.0364c0.6909,0.0432,1.2523,0.5182,0.9069,1.4683c-0.3455,0.9501-1.0364,1.5546-1.8137,1.3819
								c-1.2955-0.2591-2.1592-2.0728-2.2456-3.8434C52.6967,22.4752,53.4309,19.7114,55.2878,18.9341z"/>
							<path fill="#E3000B" d="M72.1297,46.4425c0,0,1.8137-2.807,2.5479-6.5208c-0.3455-1.4683-0.8637-2.807-1.4683-3.8434
								c-1.4251-2.5911-3.4979-4.2753-4.7935-5.1821c-0.2159,0.6909-0.6478,2.0297-1.2955,3.5843
								c-0.9501,2.2456-2.0728,4.2321-2.0728,4.2321s2.2888,2.7206,3.9298,4.5344C70.7478,45.1038,72.1297,46.4425,72.1297,46.4425z
								"/>
							<path fill="#FFFFFF" d="M71.9569,42.4696c0.0432-0.0864,1.2955-2.3751,1.9433-5.0957
								c-0.2159-0.475-0.4318-0.9069-0.6478-1.2955c-0.1296-0.2591-0.2591-0.475-0.4318-0.6909
								c-0.0864,0.475-0.1727,0.9932-0.3023,1.641c-0.3455,1.5546-0.9501,2.9797-1.3387,3.8434l-2.1592-2.5479
								c0.2159-0.475,0.6046-1.2523,0.9932-2.2024c0.4318-1.1228,0.7341-2.2456,0.9069-3.1525
								c-0.4318-0.4318-0.8205-0.8205-1.2092-1.1228c-0.1296,0.7773-0.475,2.2888-1.0364,3.757
								c-0.5614,1.4683-1.1228,2.4615-1.166,2.4615l-0.2591,0.4318l4.1889,4.8798L71.9569,42.4696z"/>
							<path d="M73.5548,50.4155c0,0-0.3887,0.8205,0.0432,2.6342c0.4318,1.8137,0.5182,1.8137,0.5182,1.8137
								s0.5182,0.2159,0.7773,0.6909c0.0864,0.1727,0.1727,0.6909,0.1727,0.9501c0,0.3023-0.0432,0.5182-0.1727,0.6046
								c-0.3023,0.2159-0.7341,0.1727-0.7341,0.1727h-5.2685c0,0-0.2159,0-0.3887-0.1727c-0.1296-0.1727-0.0864-0.5182,0-0.8637
								c0.1296-0.475,0.475-0.9932,0.6478-1.1228c0.2159-0.8205-0.1727-3.973-0.1727-3.973s0-0.2591,0.0432-0.3455
								c0.0864-0.0864,0.2159-0.2591,0.2159,0.0432c0,0,0.5614,3.5411,0.3887,4.3616c-0.1727,0.1296-0.5182,0.5182-0.6478,0.9069
								c-0.1296,0.3023-0.1296,0.5182,0,0.6909c0.1295,0.1727,0.5182,0.1727,0.5182,0.1727l4.3616,0.0432
								c0,0,0.3023,0.0432,0.5614-0.0864c0.0864-0.0432,0.2159-0.2159,0.1727-0.5182c0-0.2591-0.0432-0.4318-0.1296-0.6046
								c-0.1296-0.2591-0.3023-0.3455-0.475-0.4318c-0.1296-0.0864-0.1727-0.0864-0.2591-0.1727
								c-0.0864-0.1296-0.1727-0.3023-0.2159-0.5182c-0.0432-0.3023-0.0864-0.5614-0.2159-1.3387
								c-0.2159-1.2955-0.3023-1.8569-0.3455-2.1592c-0.0432-0.2159-0.0432-0.4318,0.0864-0.6478
								C73.1229,50.1996,73.8571,49.8109,73.5548,50.4155z"/>
							<path d="M61.8518,41.9514c-0.9501,0.8637-3.4979,2.3751-4.0593,2.7638c-0.5614,0.3887-1.166,0.691-1.166,0.691
								s0,0.4318-0.0432,0.6478c-0.0432,0.2159-0.1727,0.475-0.5614,0.475c-1.4683,0.0864-5.0958,0-5.0958,0s0-0.3455,0.1727-0.9501
								c0.1727-0.6046,0.4318-1.1228,0.9069-1.166c0.475,0.0432,0.6478,0.2591,0.7341,0.3023c0.0864,0.0432,0.1296,0.2591,0,0.1727
								c-0.1296-0.0864-0.2591-0.2159-0.6478-0.2591c-0.3887,0.0432-0.475,0.3887-0.6478,0.9069
								c-0.1727,0.5182-0.1296,0.6046-0.0432,0.6909c0.0864,0.0864,4.4048-0.0432,4.5775-0.0432
								c0.2591,0,0.3023-0.0864,0.3887-0.3455c0.1296-0.3023-0.1727-0.6909-0.1727-0.6909s0.6478-0.1727,1.1228-0.5182
								c0.475-0.3455,3.4547-2.116,4.1457-3.0229c0.3887-0.5182,0.7341-0.475,0.9069-0.3455
								C62.4132,41.4332,62.0677,41.7354,61.8518,41.9514z"/>
							<path d="M57.3175,27.3551c-0.3455,2.6774-0.1727,5.8299,3.3684,5.0526c3.4979-0.7341,6.3913-2.4183,7.5141-4.448
								c1.1228-2.0297,0.3887-4.3616-0.4318-5.7435c-0.8205-1.3387-2.4183-3.1525-4.4912-2.2024
								c-2.0728,0.9932-3.6707,3.1093-3.6707,3.1093l-0.1727-0.1727c0,0,1.5978-2.2888,3.757-3.4116
								c2.1592-1.0796,3.8434,0.8205,4.7503,2.2456c0.8637,1.4251,1.6842,3.973,0.5614,6.1754s-4.1025,4.0593-7.73,4.923
								c-3.6275,0.8637-3.8866-2.5047-3.5843-5.398L57.3175,27.3551z"/>
							<path d="M55.8924,25.1095c-0.6909-0.0432-0.9069,0.6046-0.9069,0.6046s-0.7341-0.691-0.7341-2.9797
								s1.5978-4.1025,1.0796-3.9298c-2.1592,0.7773-2.7206,3.6707-2.6342,5.4412c0.0864,1.7706,0.9932,3.757,2.2456,4.0593
								c0.8205,0.1727,1.641-0.5182,1.9865-1.4683C57.3175,25.8436,56.6265,25.1527,55.8924,25.1095z M56.6265,26.6209
								c-0.2591,0.7773-0.8637,1.2955-1.4251,1.2955c-0.0864,0-0.1296,0-0.2159,0c-1.166-0.2591-2.0728-2.2024-2.0728-3.973
								c0.0432-2.116,0.7341-3.973,2.0728-4.7071c0.1727-0.1296-0.9501,1.8137-0.9932,3.6707
								c-0.0432,1.9001,0.7341,3.5843,1.1228,3.4547c0.2591-0.0864,0.2159-0.9069,0.7773-0.8637
								C56.5833,25.4981,56.7561,26.1891,56.6265,26.6209z"/>
							<path d="M57.3175,24.1594c-0.0432,0-0.0864,0-0.1296,0c-0.475-0.0864-0.6909-0.6478-0.7341-0.6909
								c-0.0432-0.0864-0.0432-0.1296,0.0432-0.1727c0.0864-0.0432,0.1296,0.1296,0.2159,0.2159
								c0.2159,0.2159,0.3023,0.2591,0.5182,0.3023c0.1727,0.0432,0.3887-0.1296,0.5614-0.2591
								c0.0864-0.0864,0.2159-0.0864,0.3023,0c0.0864,0.0864,0.0864,0.1727,0,0.2591
								C57.8357,24.0299,57.5766,24.1594,57.3175,24.1594z"/>
							<path d="M57.4038,33.1849c-0.0432,0.2159-0.7773,1.0796-1.0364,1.7706c-0.3887,1.0364-0.475,2.6342-1.166,3.4979
								c-0.6909,0.8637-1.7706,1.9865-2.7206,3.5411c-0.7773,1.2523-1.1228,2.5479-1.1228,2.5479l-0.3887-0.0432
								c0,0,0.475-1.3819,1.2523-2.6342c0.9501-1.5115,1.9865-2.7638,2.6774-3.6275c0.6478-0.8637,0.7341-2.332,1.0796-3.3252
								c0.2591-0.6909,0.9932-1.9865,0.9932-1.9865s0.1727-0.2591,0.3455-0.3023C57.447,32.7531,57.447,32.969,57.4038,33.1849z"/>
							<path d="M53.6036,27.096c0,0-0.1727,0.0432-0.475,0.3455c-0.3887,0.3455-0.8205,0.9501-0.8205,1.7706
								c0,0.5182,0.3455,0.7341,0.7773,0.6046c0.4318-0.1727,0.7341-0.6046,1.0796-0.6478
								c0.6046-0.0432,0.9069,0.6046,1.0364,1.0796c0.1296,0.475,0.1296,1.1228,0.6478,1.7706
								c0.5182,0.6046,1.1228,0.7773,1.5115,0.6909l-0.3455,0.3023c-0.3455,0.0432-0.8205-0.0432-1.2955-0.6909
								c-0.5182-0.6478-0.5614-1.4251-0.6909-1.9433c-0.1296-0.475-0.5614-0.9932-0.8637-0.9501
								c-0.3455,0.0864-0.5614,0.475-0.9932,0.6046c-0.4318,0.1727-1.0364,0.0432-1.1228-0.7773
								c-0.0432-0.8205,0.3455-1.5546,0.7341-1.9433c0.3023-0.3023,0.7341-0.5182,0.7341-0.5182L53.6036,27.096z"/>
							<path d="M54.2082,27.7869c0,0-0.2159,0.0432-0.6046,0.2591c-0.3455,0.1727-0.5614,0.5182-0.6478,0.5182
								c-0.0432,0,0.0432-0.2591,0.3455-0.5614c0.2591-0.3023,0.6046-0.3887,0.6046-0.3887l-0.1296-0.1727
								c0,0-0.3023,0.1296-0.6478,0.5614c-0.3455,0.3887-0.475,0.8637-0.3023,0.9501s0.5182-0.3887,0.8205-0.5614
								c0.3887-0.2159,0.8205-0.3023,0.8205-0.3023L54.2082,27.7869z"/>
							<path d="M56.972,38.3671c0,0-0.1727,1.2955-0.9069,1.9433c-0.7341,0.6909-1.7274,1.3387-2.5047,2.2024
								c-0.7341,0.8637-1.1228,2.0297-1.1228,2.0297l-0.475-0.0864c0,0,0.691-1.2955,1.4251-2.1592
								c0.7341-0.8637,1.641-1.4251,2.332-2.116c0.7341-0.6909,0.8637-1.8137,0.8637-1.8137s0.0864-0.1727,0.2591-0.2591
								C56.972,38.0648,56.972,38.3671,56.972,38.3671z"/>
							<path d="M56.4969,45.4061c-0.5614-0.3455-0.9501-0.2591-0.9501-0.2591c-0.1727,0-0.0432,0.0864,0.0432,0.1296
								s0.475,0.1296,0.6478,0.2591s0.1727,0.1296,0.1727,0.1296L56.4969,45.4061z"/>
							<path d="M69.15,51.1928c-3.8002,0.3455-5.2685-1.0796-6.9527-2.332c-1.8569-1.4251-3.3684-4.923-3.3684-4.923l-0.475,0.2591
								c0,0,1.5978,3.4979,3.4547,4.923c1.7274,1.3387,3.4547,2.9365,7.2982,2.5911L69.15,51.1928z"/>
							<path d="M53.3013,26.5346c-0.6909,0.3455-1.2955,0.6046-1.8569,1.5115c-0.5614,0.9069-0.3455,2.5911-0.6046,4.5775
								c-0.3455,2.4615-1.2092,3.4547-2.5911,3.5843c-1.4251,0.1727-1.5546-0.9069-1.4251-1.5546s0.9069-1.4683,2.0297-1.2092
								c0.7341,0.1727,0.3887,1.2955,0.0864,1.2955c-0.2591,0-0.5182-0.3887-0.5182-0.5614c0-0.1727-0.3887-0.2159-0.6046,0.1296
								c-0.2591,0.3887,0.0864,1.0364,0.9501,0.6046l-0.2159-0.2159c-0.475,0.3023-0.7341,0-0.5614-0.3023
								c0.1727-0.3455,0.3455-0.1727,0.3455,0.0432c0,0.2159,0.3887,0.5614,0.6478,0.5182c0.4318-0.0432,0.9932-1.3387-0.0432-1.641
								c-1.2092-0.3887-2.1592,0.6046-2.332,1.3387c-0.1296,0.7341,0.2159,2.0297,1.7706,1.8569
								c1.5546-0.1727,2.4183-1.3819,2.7638-4.1889c0.3023-2.2888,0.0864-2.9797,0.6046-4.1025
								c0.475-0.9501,1.3387-1.166,1.7274-1.4251L53.3013,26.5346z"/>
							<path d="M49.4147,33.9191c0.0864-0.2159,0.2591-0.6909,0.3023-0.9501c0.2159-1.4251-0.2591-3.1956-0.4318-5.4844
								s1.2955-4.2321,3.7139-5.4412l0.1296-0.3455c-0.1296,0.0432-0.2591,0.0864-0.3455,0.1727
								c-2.4183,1.166-3.8866,3.2388-3.7139,5.5276s0.6909,4.448,0.4318,5.4844c-0.0864,0.2591-0.1296,0.5182-0.2591,0.7341
								L49.4147,33.9191z"/>
							<path d="M54.3809,21.6115c1.7706-0.4318,3.8866-0.0864,3.8866-0.0864s0.6909-0.2159,1.4251-0.0864
								c0.6478,0.0864,0.9501,0.475,0.9501,0.475l0.1296-0.4318c0,0-0.2591-0.1727-0.9932-0.3023
								c-0.7341-0.1296-1.5115,0.0432-1.5115,0.0432s-1.8137-0.3455-3.8002,0.0864L54.3809,21.6115z"/>
							<path d="M52.1353,46.2698c-0.8637,0-1.5978,0-1.641-0.0432c-0.0864-0.0864-0.1296-0.1727,0.0432-0.6909
								s0.2159-0.8205,0.6478-0.9069c0.3023,0.0432,0.3023,0.0864,0.4318,0.1296c0.0864,0.0432,0.1727-0.0864,0.1296-0.1296
								c-0.0432-0.0432-0.2159-0.2159-0.6046-0.2159c-0.3887,0-0.6909,0.5614-0.9069,1.166
								c-0.0864,0.2159-0.1296,0.3887-0.1296,0.5182c-0.0432,0.2591-0.0432,0.4318-0.0432,0.4318h2.0729V46.2698L52.1353,46.2698z"
								/>
							<path d="M69.4954,54.993c0,0,0.6909-0.1296,0.8205-0.0864c0.1727,0,0.0864,0.0864-0.0432,0.2159
								c-0.1727,0.1296-0.3887,0.1296-0.6478,0.1727s-0.475,0.3023-0.5614,0.4318s-0.0864,0-0.0864,0L69.4954,54.993z"/>
							<path d="M76.3186,50.8042c0-0.1296,0-0.1727,0.0432-0.4318c0.0864-0.7341,0.2591-2.4183,0.0432-4.2752
								c-0.2159-1.8137-0.9069-3.5411-1.3819-4.5344c-0.2159-2.2024-0.9069-4.1025-1.6842-5.5708
								c-2.2456-4.0593-6.0026-5.8731-6.0026-5.8731l-0.2591-0.3887l-0.3887,0.2159l0.3887,0.5182c0,0,3.8002,1.8137,6.0458,5.8299
								c0.6909,1.2523,1.2523,2.7638,1.5115,4.4912c0,0,0,0,0,0.0432c0.0432,0.2591,0.0432,0.475,0.0864,0.7341l0,0
								c0,0.1296,0.0432,0.2159,0.0432,0.2159s1.1228,2.6342,1.3819,4.923c0.1727,1.4683,0.0432,2.8502-0.0864,3.5843
								c-0.0432,0.3023-0.0432,0.3455-0.0432,0.475s0.0432,0.1727,0.1296,0.4318c0.1296,0.3455,0.2591,0.7773,0.1727,0.8205
								c-0.1295,0.0864-1.0796-0.2159-1.2092-0.3887c-0.2159-0.3023,0.6478-1.4251,0.6046-2.6774
								c0-1.4251-0.3455-3.3684-0.7773-4.8366c-0.0432-0.1296-0.0432-0.1296-0.1295-0.2591
								c-0.0864-0.1296-0.0864,0.2591-0.0864,0.2591l-0.0864,0.9069c-0.2591,1.7274-0.7773,3.5411-1.6842,5.4844l0.4318,0.3023
								c0.7341-1.5115,1.2092-3.0229,1.4683-4.448c0-0.0864,0.0432-0.0864,0.0432-0.1296c0.0432-0.0432,0.0432,0.0432,0.0432,0.1296
								c0.2591,1.2092,0.475,2.0297,0.4318,2.7638c-0.0432,1.4683-0.9932,2.2024-0.8637,2.7206
								c0.1296,0.3887,2.0297,0.8205,2.2456,0.7341c0.1296-0.0864-0.1296-0.9069-0.3023-1.4251
								C76.3617,50.9769,76.3186,50.9337,76.3186,50.8042z"/>
							<path d="M50.9262,23.2957c0-1.2523,0.3455-2.3751,1.1228-3.0661c0.1296-0.1296-0.2159,0.9932-0.2159,2.332
								c0.0864-0.0432,0.1296-0.0864,0.2159-0.1296c0-1.641,0.6046-2.9365,0.2591-2.6774
								c-1.2092,0.8205-1.5978,2.2888-1.5546,3.7139C50.7534,23.4253,50.8398,23.3389,50.9262,23.2957z"/>
						</g>
						<g>
							<path fill="#E3000B" d="M44.5349,53.5248c-0.5614,0-0.9932-0.475-0.9932-0.9932v-0.9501l0,0v-3.3252
								c0-0.9501-0.7773-1.6842-1.6842-1.6842h-1.166h-1.2092h-1.166c-0.5614,0-1.0364,0.2591-1.3387,0.6478
								c-0.3023-0.3455-0.7341-0.6046-1.2092-0.6478l0,0h-0.1296h-1.4683h-0.7773c-0.5182,0-1.0364,0.2591-1.3387,0.6478
								c-0.3023-0.3887-0.7773-0.6478-1.3387-0.6478h-0.7773h-0.6478h-2.9797V50.07h0.3887c0.5614,0,1.0364,0.475,1.0364,0.9932
								v1.4683c0,0.5614-0.475,0.9932-1.0364,0.9932h-0.3887v3.7138h2.9797h0.1296h0.5182h0.7773h2.3751v-3.7139h-0.3023
								c0,0,0,0-0.0432,0l0,0c-0.5182,0-0.9501-0.475-0.9501-0.9932v-1.5115c0-0.5614,0.4318-0.9932,0.9501-0.9932
								s0.9501,0.475,0.9501,0.9932v0.0432l0,0v1.2092v0.5614v4.4048h0.475h0.3455h1.1228h0.1296h2.5047h0.0864h0.475v-3.7139
								h-0.3023c0,0,0,0-0.0432,0l0,0c-0.5182,0-0.9501-0.475-0.9501-0.9932v-1.5115c0-0.5614,0.4318-0.9932,0.9501-0.9932
								c0.5182,0,0.9501,0.475,0.9501,0.9932v0.0432l0,0v1.1228v0.5614v4.4912l0,0h1.2092h1.166c0.0432,0,0.0432,0,0.0864,0l0,0
								h2.9365v-3.7139H44.5349L44.5349,53.5248z"/>
							<path fill="#E3000B" d="M67.984,53.7839c-0.3887,0-0.691-0.3023-0.691-0.6909v-0.0432v-3.8002v-2.7206h-2.7206h-0.8205
								h-1.8137h-1.5115h-0.4318c-1.4683,0-2.7206,1.2092-2.7206,2.7206v5.2685c0,1.4683,1.2092,2.7206,2.7206,2.7206h0.475h0.691
								h0.8205c0.5614,0,1.0796-0.1727,1.4683-0.4318v0.4318h1.166h1.2092h1.5115h1.2523v-3.4547H67.984L67.984,53.7839
								L67.984,53.7839z M63.2769,52.5315c0,0.5614-0.4318,0.9932-0.9501,0.9932s-0.9501-0.475-0.9501-0.9932v-1.4251
								c0-0.5614,0.4318-0.9932,0.9501-0.9932s0.9501,0.475,0.9501,0.9932V52.5315z"/>
							<path fill="#E3000B" d="M53.4309,46.5721h-3.4116v-4.4048h-2.3751h-1.7274h-1.2523v3.5411h0.5614
								c0.3887,0,0.6909,0.3023,0.6909,0.6909l0,0v10.8393h3.5843v-0.6478c0.475,0.3887,1.0796,0.6478,1.7706,0.6478h2.1592
								c1.4683,0,2.7206-1.2092,2.7206-2.7206v-5.2685C56.1515,47.7813,54.8991,46.5721,53.4309,46.5721z M51.9626,52.5315
								c0,0.5614-0.4318,0.9932-0.9501,0.9932c-0.5182,0-0.9501-0.475-0.9501-0.9932v-1.4251c0-0.5614,0.4318-0.9932,0.9501-0.9932
								c0.5182,0,0.9501,0.475,0.9501,0.9932V52.5315z"/>
							<g>
								<rect x="19.8334" y="41.5195" fill="#E3000B" width="4.1025" height="3.973"/>
								<path fill="#E3000B" d="M24.9292,53.5248c-0.5182,0-0.9501-0.3887-0.9932-0.8637l0,0v-6.089h-4.1025v10.6665h2.4615h1.641
									h1.3387v-3.7139H24.9292L24.9292,53.5248z"/>
							</g>
							<g>
								<path fill="#E3000B" d="M15.4286,48.0404L15.4286,48.0404h-2.3751l0,0H11.542c-0.7341,0-1.3387-0.6046-1.3387-1.3387
									v-0.1727H5.1939v2.4183c0,1.4683,1.2092,2.7206,2.7206,2.7206l0,0h1.8137c0.0864,0,0.1296,0,0.2159,0h2.116
									c0.5614,0,0.9932,0.4318,0.9932,0.9501c0,0.5182-0.475,0.9501-0.9932,0.9501h-2.116c-0.475,0-0.8637-0.3023-0.9932-0.691
									h-3.757v1.166v0.5614v2.7206h2.7206h1.4251h6.089c1.4683,0,2.7206-1.2092,2.7206-2.7206v-3.8002
									C18.1061,49.2495,16.8969,48.0404,15.4286,48.0404z"/>
								<path fill="#E3000B" d="M15.4286,41.5195h-1.4251h-6.089c-1.4683,0-2.7206,1.2092-2.7206,2.7206v1.2523h3.0229h2.0297
									h4.0161h2.4615h1.3819v-0.6909v-0.5614v-2.7206H15.4286z"/>
							</g>
						</g>
					</g>
				</g>
			</g>
		</g>
	</g>
</g>
<g id="Layer_9">
</g>
<g id="Layer_10">
</g>
<g id="Layer_11">
</g>
<g id="Layer_12">
</g>
<g id="Layer_13">
</g>
<g id="Layer_14">
</g>
<g id="Layer_15">
</g>
<g id="Layer_17">
</g>
<g id="Layer_7">
</g>
<g id="Layer_8">
</g>
<g id="Layer_18">
</g>
</svg>
