<?xml version="1.0" encoding="utf-8"?>
<!-- Generator: Adobe Illustrator 24.0.1, SVG Export Plug-In . SVG Version: 6.00 Build 0)  -->
<svg version="1.1" xmlns="http://www.w3.org/2000/svg" xmlns:xlink="http://www.w3.org/1999/xlink" x="0px" y="0px"
	 viewBox="0 0 80 80" enable-background="new 0 0 80 80" xml:space="preserve">
<g id="Layer_19">
</g>
<g id="Layer_1">
</g>
<g id="Layer_2">
</g>
<g id="Layer_3">
</g>
<g id="Layer_4">
	<rect y="0" fill="none" width="80" height="80"/>
	<g id="Ebene_2_1_">
		<g>
			<rect x="11.3757" y="19.8333" fill="#FFFFFF" width="57.2486" height="40.3333"/>
			<g>
				<rect x="40.0206" y="21.6854" fill="#0074BE" width="26.7517" height="25.4347"/>
				<rect x="13.2689" y="21.6854" fill="#E3000B" width="26.7517" height="25.4347"/>
				<path fill="#FFFFFF" d="M66.7311,31.4395H56.5655l-3.169-9.6718l-3.169,9.6718H40.0617l8.2313,6.0088l-3.1279,9.6718
					l8.2313-5.9677l8.2313,5.9677l-3.1279-9.6718L66.7311,31.4395z M29.8138,31.4395l-3.169-9.6718l-3.169,9.6718H13.31
					l8.2313,6.0088l-3.1279,9.6718l8.2313-5.9677l8.2313,5.9677l-3.1279-9.6718l8.2313-6.0088H29.8138z"/>
				<path fill="#0074BE" d="M67.1838,57.2446c-0.2881,0-0.5762-0.0823-0.6997-0.4116c-0.9877-2.4694-1.9343-4.9799-2.881-7.4493
					h-2.3048c-0.9054,2.4694-1.7286,5.0211-2.7163,7.4493c-0.1646,0.3293-0.4527,0.4116-0.782,0.4116c-0.0823,0-0.2881,0-0.4116,0
					h-1.3582c0,0-0.1646,0-0.2469,0c-0.1235,0-0.2881-0.0412-0.4116-0.1235c-0.1235-0.0823-0.2058-0.2058-0.2469-0.4939
					c0-0.0823,0-0.1646,0-0.2469v-1.8932c0,0,1.7286-2.2225,2.5105-3.2102c0.3704-0.4939,0.7408-0.9054,1.5228-0.9054v-1.0289
					h-4.3214v1.0289h0.535c0.3704,0,0.5762,0.0823,0.6997,0.2881c0.0412,0.1235,0.0823,0.2058,0.0412,0.3293
					c-0.0412,0.0823-0.0412,0.1235-0.1235,0.2058c-0.4939,0.6585-0.6997,0.9466-1.6051,2.099
					c-0.9878-1.3582-1.4816-2.0578-1.5639-2.2224c-0.0412-0.1235-0.0823-0.2469-0.0823-0.3704
					c0.0823-0.2881,0.3704-0.3293,0.6173-0.3293c0.2058,0,0.6585-0.0412,0.6585-0.0412v-1.0289h-9.466v1.0289h0.3293
					c0.2058,0,0.2881,0,0.4116,0.0412c0.2469,0.0823,0.2881,0.2058,0.3704,0.3293c0.0823,0.1235,0.0823,0.2058,0.0823,0.3704v5.3915
					c0,0.0823,0,0.2469-0.0412,0.3704c-0.1235,0.2881-0.3704,0.2881-0.6585,0.3293h-0.4939v1.0289h4.6095v-1.0289h-0.6997
					c-0.1646,0-0.2469,0-0.3704-0.0412c-0.1235-0.0412-0.2469-0.1235-0.2881-0.2881c0-0.0412-0.0412-0.0823-0.0412-0.1235
					c0-0.0823-0.0412-0.1646-0.0412-0.2881v-5.3915c0.0412-0.1646,0.0412-0.2469,0.1235-0.3704s0.1235-0.2058,0.2881-0.2469
					c0.0823-0.0412,0.1235-0.0823,0.3704-0.0823h0.6585c0.3704,0,0.7408,0.0412,1.0289,0.3293
					c0.0823,0.0823,0.1235,0.1235,0.2058,0.2469c0.0823,0.0823,0.1646,0.2058,0.2881,0.3293l2.4282,3.2925v1.8109
					c0,0.0823,0,0.2058,0,0.2469c0,0.1646-0.0412,0.3293-0.2058,0.4527c-0.1646,0.0823-0.4116,0.1235-0.6585,0.1235
					c-0.3293,0-0.9878,0.0412-0.9878,0.0412v1.0289h10.5772v-0.9466h-0.9466c-0.1646,0-0.2881,0-0.4116-0.0412
					c-0.1235-0.0412-0.2469-0.2058-0.1646-0.4116c0.1235-0.3704,0.4116-1.2347,0.4116-1.2347h3.169l0.3704,1.0289
					c0.0823,0.2058,0.0823,0.3704-0.0412,0.535c-0.1646,0.1235-0.2881,0.0823-0.4939,0.1235l-0.8643,0.0412v1.0289h4.9388v-1.0289
					L67.1838,57.2446z M61.1338,54.3224l1.1112-3.3337l1.1935,3.3337H61.1338z M37.3454,54.8986
					c-0.7408-1.8109-1.3993-3.7041-2.1401-5.515h-4.4037v1.0289c0,0,0.4939,0,0.7408,0.0412c0.1646,0,0.3293,0,0.4527,0.0412
					c0.1235,0.0412,0.2469,0.1235,0.2881,0.2469c0.0823,0.1235,0.0823,0.2058,0.0823,0.3293v5.4738c0,0.2058,0,0.2469-0.0823,0.4116
					c-0.0823,0.1646-0.2469,0.2881-0.4527,0.2881h-0.3293H31.46h-0.2469c-0.2881,0-0.5762-0.0823-0.6997-0.4116
					c-0.9878-2.4694-1.9344-4.9799-2.881-7.4493h-2.3048c-0.9054,2.4694-1.7286,5.0211-2.7163,7.4493
					c-0.1646,0.3293-0.4527,0.4116-0.782,0.4116c-0.2469,0-0.7408,0-0.7408,0h-0.6997c-0.3293,0-0.5762,0-0.5762,0
					c-0.2469,0-0.3293-0.0412-0.535-0.1235c-0.2469-0.1235-0.4116-0.3293-0.4116-0.6173v-5.5561v-0.2058
					c0-0.1646,0.0823-0.4116,0.2881-0.4527c0.4939-0.0823,0.9878,0.0823,1.3993,0.4527c0.5762,0.535,0.6173,1.2758,0.6173,2.0578
					h1.0289v-3.416h-8.931v3.416h1.0701c0-0.782,0.1235-1.5639,0.6997-2.099c0.4116-0.3293,0.9878-0.535,1.5228-0.4116
					c0.2469,0.0823,0.3293,0.2881,0.3293,0.4527c0,0.0823,0,0.1646,0,0.2469v5.5973c0,0.2469-0.1235,0.4527-0.3293,0.5762
					c-0.1646,0.0823-0.2881,0.1235-0.4939,0.1235c-0.4527,0-0.9054,0.0412-0.9054,0.0412v1.0289c1.5228,0,10.7418,0,10.7418,0
					v-1.0289h-0.9466c-0.1646,0-0.2881,0-0.4116-0.0412c-0.1235-0.0412-0.2469-0.2058-0.1646-0.4116
					c0.1235-0.3704,0.4116-1.2347,0.4116-1.2347h3.169l0.3704,0.9878c0.0823,0.2058,0.0823,0.4116-0.0823,0.535
					s-0.2881,0.0823-0.4939,0.1235l-0.8231,0.0412v1.0289h8.3548v-1.0289h-0.782c-0.2881,0-0.4116-0.0412-0.5762-0.2881
					c-0.0412-0.0823-0.0823-0.2469-0.0823-0.4116V51.318h0.0412c0.8643,2.3459,1.7697,4.733,2.5929,7.0789h1.1935l2.634-7.0789
					h0.0412v5.3092c0,0.0823,0,0.1646,0,0.2469c-0.0823,0.3704-0.4116,0.4527-0.6997,0.4527l-0.6997,0.0412v1.0289H43.56V57.368
					h-0.535c-0.1235,0-0.2469-0.0412-0.3293-0.0412c-0.1646-0.0823-0.2881-0.2058-0.3293-0.4116c-0.0412-0.0823,0-0.1646,0-0.2881
					c0,0,0-5.268,0-5.3915c0-0.0823,0.0412-0.2058,0.0412-0.2881c0.1235-0.3704,0.3704-0.4116,0.6585-0.4527h0.535V49.466h-4.1156
					C39.4444,49.3837,38.0862,53.0878,37.3454,54.8986z M25.1631,54.3224l1.1112-3.3337l1.1935,3.3337H25.1631z"/>
			</g>
		</g>
	</g>
</g>
<g id="Layer_5">
</g>
<g id="Layer_6">
</g>
<g id="Layer_9">
</g>
<g id="Layer_10">
</g>
<g id="Layer_11">
</g>
<g id="Layer_12">
</g>
<g id="Layer_13">
</g>
<g id="Layer_14">
</g>
<g id="Layer_15">
</g>
<g id="Layer_17">
</g>
<g id="Layer_7">
</g>
<g id="Layer_8">
</g>
<g id="Layer_18">
</g>
</svg>
