<?xml version="1.0" encoding="utf-8"?>
<!-- Generator: Adobe Illustrator 24.0.1, SVG Export Plug-In . SVG Version: 6.00 Build 0)  -->
<svg version="1.1" xmlns="http://www.w3.org/2000/svg" xmlns:xlink="http://www.w3.org/1999/xlink" x="0px" y="0px"
	 viewBox="0 0 80 80" enable-background="new 0 0 80 80" xml:space="preserve">
<g id="Layer_19">
</g>
<g id="Layer_1">
	<rect fill="none" width="80" height="80"/>
	<g id="ZochEbenen">
		<g id="ZochGr">
			<path id="ZochBg" fill="#FFCB00" d="M65.3566,18.9162c-0.6042-0.4748-1.4674-0.9064-2.6328-0.9064H17.3193
				c0,0-1.5969,0-2.7623,1.0358c-0.6906,0.6042-1.2516,1.5106-1.2516,3.0212v35.9093c0,0,0,1.6401,1.1222,2.8917
				c0.6042,0.6042,1.5106,1.1222,2.8917,1.1222h45.4045c0,0,1.5106,0,2.6759-0.9495c0.6906-0.5611,1.2948-1.5106,1.2948-3.0212
				V22.0669C66.6946,22.0669,66.6946,20.0816,65.3566,18.9162z"/>
			<g id="ZochVerlauf">
				
					<linearGradient id="ZochVerlauf4_1_" gradientUnits="userSpaceOnUse" x1="39.9568" y1="-656.7878" x2="39.9568" y2="-635.0759" gradientTransform="matrix(1 0 0 -1 0 -616.97)">
					<stop  offset="0.8208" style="stop-color:#FFCB00"/>
					<stop  offset="0.9453" style="stop-color:#F6BC00"/>
					<stop  offset="1" style="stop-color:#ECAA00"/>
				</linearGradient>
				<path id="ZochVerlauf4" fill="url(#ZochVerlauf4_1_)" d="M65.3566,18.9162c-0.6042-0.4748-1.4674-0.9064-2.6328-0.9064H17.3193
					c0,0-1.5969,0-2.7623,1.0358l25.2919,20.8895L65.3566,18.9162z"/>
				
					<linearGradient id="ZochVerlauf3_1_" gradientUnits="userSpaceOnUse" x1="39.9137" y1="-656.8621" x2="39.9137" y2="-678.8509" gradientTransform="matrix(1 0 0 -1 0 -616.97)">
					<stop  offset="0.8208" style="stop-color:#FFCB00"/>
					<stop  offset="0.9453" style="stop-color:#F6BC00"/>
					<stop  offset="1" style="stop-color:#ECAA00"/>
				</linearGradient>
				<path id="ZochVerlauf3" fill="url(#ZochVerlauf3_1_)" d="M39.8489,39.8921L14.4276,60.8248
					c0.6042,0.6042,1.5106,1.1222,2.8917,1.1222h45.4045c0,0,1.5106,0,2.6759-0.9495L39.8489,39.8921z"/>
				
					<linearGradient id="ZochVerlauf2_1_" gradientUnits="userSpaceOnUse" x1="39.8489" y1="-656.9484" x2="66.6946" y2="-656.9484" gradientTransform="matrix(1 0 0 -1 0 -616.97)">
					<stop  offset="0.8208" style="stop-color:#FFCB00"/>
					<stop  offset="0.9453" style="stop-color:#F6BC00"/>
					<stop  offset="1" style="stop-color:#ECAA00"/>
				</linearGradient>
				<path id="ZochVerlauf2" fill="url(#ZochVerlauf2_1_)" d="M65.3998,60.9974c0.6906-0.5611,1.2948-1.5106,1.2948-3.0212V22.0669
					c0,0,0-1.9422-1.3811-3.1075l-25.4645,21.019L65.3998,60.9974z"/>
				
					<linearGradient id="ZochVerlauf1_1_" gradientUnits="userSpaceOnUse" x1="39.7345" y1="-656.9268" x2="13.3607" y2="-656.9268" gradientTransform="matrix(1 0 0 -1 0 -616.97)">
					<stop  offset="0.8208" style="stop-color:#FFCB00"/>
					<stop  offset="0.9453" style="stop-color:#F6BC00"/>
					<stop  offset="1" style="stop-color:#ECAA00"/>
				</linearGradient>
				<path id="ZochVerlauf1" fill="url(#ZochVerlauf1_1_)" d="M14.5571,19.0457c-0.6906,0.6042-1.2516,1.5106-1.2516,3.0212v35.9093
					c0,0,0,1.6401,1.1222,2.8917l25.4214-20.9327L14.5571,19.0457z"/>
			</g>
			
				<linearGradient id="ZochGloss_1_" gradientUnits="userSpaceOnUse" x1="13.3486" y1="-641.9934" x2="66.6946" y2="-641.9934" gradientTransform="matrix(1 0 0 -1 0 -616.97)">
				<stop  offset="0" style="stop-color:#FFCB00;stop-opacity:0"/>
				<stop  offset="1" style="stop-color:#FFEE20"/>
			</linearGradient>
			<path id="ZochGloss" fill="url(#ZochGloss_1_)" d="M62.8533,18.0099H17.2762c-0.259,0-3.9276,0.1726-3.9276,4.0571v7.1646
				c0,0,14.8039,2.8054,26.5004,2.8054s26.8456-2.7623,26.8456-2.7623v-7.2078C66.6946,22.0669,66.6946,18.1394,62.8533,18.0099z"/>
			<path id="ZochGr7" fill="#181716" d="M43.086,45.3303c0.1295,0.2158,0.2158,0.4316,0.2158,0.6906
				c0,0.6906-0.6042,1.2516-1.4674,1.2516c-0.3453,0-0.6906-0.1295-0.9064-0.259c0.259,0.3453,0.6906,0.5611,1.1653,0.5611
				c0.7769,0,1.4674-0.5611,1.4674-1.2516C43.5607,45.8914,43.3449,45.5461,43.086,45.3303 M32.6843,39.8921
				c-0.7769,0-1.5106,0.6906-1.5106,1.4674c0,0.4748,0.2158,0.82,0.5611,1.0358c-0.1295-0.2158-0.2158-0.4748-0.2158-0.7769
				c0-0.7769,0.6906-1.4674,1.5106-1.4674c0.3453,0,0.6042,0.0863,0.82,0.259C33.5907,40.1079,33.1591,39.8921,32.6843,39.8921
				 M40.9711,39.7195c-0.0863,0-0.2158,0.2158-0.259,0.259c-0.0863,0.1295-0.1295,0.4316-0.82,0.9495
				c-0.5611,0.4316-0.9495,0.6042-1.3811,0.6042c-0.4316,0-0.6906-0.1295-1.0358-0.4316c0.3453,0.4316,0.7769,0.6906,1.2948,0.6906
				c0.4316,0,0.9064-0.2158,1.3811-0.6042c0.6906-0.5611,0.7769-0.82,0.82-0.9495l0,0c0-0.1295,0-0.3453,0-0.4316
				C41.0143,39.7626,40.9711,39.7195,40.9711,39.7195 M35.5761,38.7268c0.0863,0.1295,0.2158,0.2158,0.259,0.3453
				c0.5611,0.9064,0.82,2.0717,0.5611,3.1075c-0.259,1.0358-1.2516,2.8054-3.7118,2.9781c-0.0863,0-0.1295,0-0.2158,0
				c-1.7264,0-2.7623-1.1653-2.8054-1.2516c-0.0863-0.0863-0.0863-0.0863-0.1295-0.0863c0,0-0.0863,0-0.0863,0.0863
				c0,0-2.0717,1.5106-3.3665,2.6328c-1.1653,0.9495-3.4528,3.3233-4.1865,4.1434c-0.7769,0.82-4.0139,4.9634-4.3592,5.5245
				c-0.3453,0.5611-1.0358,1.1653-1.1222,1.2516l-0.0863,0.0863c0,0.0863,0,0.0863,0,0.0863c-0.0863,0.2158,0,0.259,0.1295,0.259
				c0.1295,0,0.259-0.0863,0.259-0.1295c0.0863-0.0863,0.7769-0.6906,1.1222-1.2516c0.3453-0.5611,3.6686-4.7045,4.3592-5.5245
				c0.7769-0.82,3.0212-3.1507,4.1865-4.1434c1.2948-1.1222,3.3665-2.6328,3.3665-2.6328c0.0863,0,0.0863-0.0863,0.0863-0.0863
				c0.0863,0,0.0863,0.0863,0.1295,0.0863c0.0863,0.0863,1.1653,1.2516,2.8054,1.2516c0.0863,0,0.1295,0,0.2158,0
				c2.4601-0.1295,3.4528-1.9422,3.7118-2.9781c0.259-1.0358,0.0863-2.2012-0.5611-3.1075
				C36.0077,39.1584,35.7919,38.9426,35.5761,38.7268 M24.9155,38.3383h-0.0863c-0.2158,0.1295-2.417,1.2948-2.9781,1.5969
				c-0.4748,0.259-1.7264,0.9495-2.2875,1.2948c-0.4316,0.259-1.2516,0.9064-1.6401,1.1653
				c-0.0863,0.1295-0.2158,0.2158-0.2158,0.2158c-0.1295,0.1295-0.1295,0.2158-0.0863,0.3453c0,0,0,0,0.0863,0
				s0.1295,0,0.259-0.0863c0.2158-0.1295,1.3811-1.0358,1.9422-1.3811c0.5611-0.3453,1.7696-1.0358,2.2875-1.2948
				c0.4316-0.2158,1.7696-0.9495,2.5465-1.3811c0.0863-0.1295,0.1295-0.259,0.1295-0.3453
				C24.9155,38.4678,24.9587,38.3383,24.9155,38.3383 M33.7202,37.0867c0.0863,0.0863,0.1295,0.2158,0.1295,0.3453
				c0.0863,0.1295,0.1295,0.2158,0.259,0.259C34.0655,37.5183,33.936,37.2162,33.7202,37.0867 M39.59,35.274
				c0.0863,0.0863,0.0863,0.1295,0.0863,0.2158c0.0863,0.259-0.259,0.9495-0.6906,1.3811
				c-0.4316,0.4748-0.6042,1.2948-0.3453,1.4674c0.0863,0,0.0863,0.0863,0.1295,0.0863c-0.0863-0.3453,0.1295-0.9064,0.4748-1.2516
				c0.4316-0.4748,0.7769-1.1653,0.6906-1.3811C39.9353,35.5761,39.7626,35.4466,39.59,35.274 M44.5966,34.7992
				c-0.1295,0-0.259,0-0.4316,0.0863c-0.5611,0.2158-0.82,0.9495-0.9064,1.9422c-0.0863,0.9495-0.259,2.1148-0.4748,3.1507
				c-0.259,1.0358-1.1222,2.2875-1.5106,2.8054c-0.0863,0.1295-0.1295,0.2158-0.259,0.259c0,0.0863,0,0.1295,0,0.2158
				c0,0.0863,0,0.2158,0.1295,0.2158c0.0863,0,0.259-0.0863,0.4748-0.3453c0.4316-0.5611,1.2516-1.8559,1.5106-2.8054
				c0.259-1.0358,0.4748-2.2012,0.4748-3.1507c0.0863-0.9495,0.3453-1.7264,0.9064-1.9422c0.1295-0.0863,0.259-0.0863,0.4316-0.0863
				c0.3453,0,0.6906,0.1295,1.0358,0.4748l-0.0863-0.0863C45.5029,35.015,45.0282,34.7992,44.5966,34.7992 M30.5695,33.7202
				c0,0.1295,0,0.259,0,0.4316c-0.0863,0.2158-0.9064,1.5969-1.0358,1.9422c-0.2158,0.259-2.1148,3.7118-2.2875,4.0139
				c-0.1295,0.2158-1.2516,2.4601-1.4674,2.9781c-0.2158,0.4748-0.259,0.4748-0.259,0.6042
				c-0.0863,0.0863-0.0863,0.2158,0.0863,0.2158c0,0,0,0,0.0863,0s0.1295-0.0863,0.3453-0.1295
				c0.0863-0.0863,0.0863-0.2158,0.1295-0.3453c0.2158-0.4748,1.2948-2.6759,1.4674-2.9781
				c0.1295-0.2158,2.0717-3.7118,2.2875-4.0139s0.9495-1.7264,1.0358-1.9422s0-0.3453,0-0.4748
				C30.8285,33.8497,30.7421,33.7634,30.5695,33.7202L30.5695,33.7202 M47.4451,32.2527c0.3453,0.4316,0.6906,1.0358,1.0358,1.5969
				c0.1295,0.2158,0.259,0.3453,0.4316,0.4748c-0.0863-0.0863-0.0863-0.1295-0.1295-0.2158
				C48.2652,33.5044,47.9199,32.7275,47.4451,32.2527 M55.6887,29.2315h-0.0863c0,0-0.0863,0-0.0863,0.0863l0.0863,0.0863
				C55.6456,29.3179,55.6887,29.3179,55.6887,29.2315L55.6887,29.2315L55.6887,29.2315 M56.5088,28.1957
				c-0.0863,0-0.1295,0.0863-0.1295,0.0863l-0.3453,0.4316v0.1295l-0.0863,0.0863l-0.1295,0.1295l0,0l0.0863,0.0863l0.0863,0.0863
				h0.0863v-0.0863l0,0v-0.0863l0.259-0.2158v-0.1295l-0.0863-0.0863V28.541l0.3453-0.3453H56.5088L56.5088,28.1957
				 M42.6544,27.2893c0.3453,0.4316,0.4748,1.1222,0.5611,1.5106c0.1295,0.7769,0.1295,3.237,0.2158,3.5823
				c0,0.2158,0.1295,0.259,0.259,0.259l0,0c0-0.259-0.0863-2.8054-0.2158-3.5823C43.4312,28.6273,43.2154,27.7209,42.6544,27.2893
				 M60.5658,27.1167l-0.1295,0.0863L60.35,27.4188l-0.259,0.1295l-0.1295,0.0863l-0.1295,0.0863l0,0l-0.1295,0.3453h-0.0863
				c-0.1295,0.2158-0.4748,0.5611-0.7769,0.6906c-0.3453,0.259-1.1653,1.1222-1.9422,1.7696
				c-0.7769,0.6906-4.4887,4.0571-5.2224,4.6181c-0.7769,0.5611-1.1653,0.9064-2.0717,1.5106
				c-0.6042,0.4316-1.1222,0.5611-1.5969,0.5611c-0.1295,0-0.3453,0-0.4748-0.0863c-0.2158-0.0863-0.3453-0.1295-0.5611-0.3453
				c0.259,0.3453,0.5611,0.5611,0.82,0.6042c0.1295,0,0.259,0.0863,0.4748,0.0863c0.4316,0,0.9064-0.1295,1.5969-0.5611
				c0.9064-0.6042,1.3811-0.9495,2.0717-1.5106c0.7769-0.5611,4.4023-3.9276,5.2224-4.6181
				c0.7769-0.6906,1.5969-1.5106,1.9422-1.7696s0.7769-0.7769,0.82-0.82s0.259-0.4316,0.259-0.4316l0.2158-0.0863l0.0863-0.1295
				l0.0863-0.1295l0.2158-0.0863V27.203L60.5658,27.1167L60.5658,27.1167z M60.0911,26.944c-0.0863,0-0.0863,0-0.0863,0.0863
				c-0.0863,0.0863-0.2158,0.1295-0.1295,0.2158l0,0l0.259-0.1295L60.0911,26.944L60.0911,26.944L60.0911,26.944 M61.3427,26.5988
				c-0.0863,0-0.2158,0.0863-0.0863,0.1295l0,0C61.3427,26.6851,61.3427,26.5988,61.3427,26.5988L61.3427,26.5988 M60.1774,26.124
				l-0.2158,0.0863l-0.0863,0.0863l-0.0863,0.1295l-0.2158,0.0863h-0.2158l-0.1295,0.0863l-0.0863,0.1295l0.1295,0.0863
				l-0.2158,0.259l-0.1295,0.1295l-0.0863,0.0863l0.0863,0.1295c0,0-0.2158,0.2158-0.2158,0.259
				c-0.0863,0.0863-0.2158,0.2158-0.2158,0.2158l-0.2158,0.1295v0.1295h0.1295h0.1295l0.0863-0.1295l0.0863-0.0863l0.1295-0.2158
				h0.1295h0.2158l0,0l-0.0863-0.1295l0.0863-0.0863l0.1295-0.1295l0.2158-0.259h-0.0863l0,0h-0.0863
				c-0.0863-0.0863,0.0863-0.1295,0.1295-0.2158s0.0863-0.0863,0.0863-0.0863s0,0,0.0863,0c0,0,0.0863,0,0,0.0863l0,0h0.1295
				l0.2158-0.0863l0.0863-0.1295l0.0863-0.0863l0.259-0.1295c0,0,0.2158-0.1295,0.1295-0.2158c-0.0863,0-0.2158,0-0.2158,0h-0.259
				L60.1774,26.124L60.1774,26.124z M60.4364,25.5629L60.4364,25.5629c-0.1295,0-0.2158,0.0863-0.259,0.2158
				c-0.0863,0.0863-0.0863,0.1295-0.1295,0.1295l0.1295-0.0863c0,0,0.1295,0,0.2158,0v0.0863
				c0.0863-0.0863,0.2158-0.0863,0.2158-0.0863l0.0863-0.1295H60.609c-0.0863,0-0.0863,0-0.1295-0.0863
				C60.4364,25.7356,60.4364,25.6492,60.4364,25.5629 M59.4868,25.4334c0,0-0.1295,0.1295-0.0863,0.1295l0,0
				c0.0863,0,0.1295,0,0.1295,0v-0.0863L59.4868,25.4334L59.4868,25.4334z M61.7743,25.0882c-0.0863,0-0.0863,0.0863-0.1295,0.0863
				c-0.0863,0.0863-0.6906,0.5611-0.7769,0.6042c-0.0863,0.0863-0.1295,0.2158-0.0863,0.2158c0,0,0.0863,0.0863,0.1295,0.0863
				s0.0863,0,0.0863-0.0863c0.0863-0.0863,0.1295-0.1295,0.259-0.2158c0.0863-0.0863,0.3453-0.3453,0.4316-0.3453
				c0.0863-0.0863,0.1295-0.1295,0.1295-0.2158C61.7743,25.1745,61.7743,25.0882,61.7743,25.0882 M63.4144,24.8724
				c-0.0863,0-0.1295,0-0.2158,0.0863c-0.0863,0.0863-0.2158,0.2158-0.1295,0.2158s0.0863,0,0.1295,0
				c0.0432,0,0.0863,0,0.1295-0.0863c0.0863-0.0863,0.1295-0.1295,0.1295-0.1295L63.4144,24.8724 M60.7816,24.2249L60.7816,24.2249
				L60.7816,24.2249l-0.0863,0.2158l-0.2158,0.1295l-0.2158,0.2158c0,0-0.1295,0.1295-0.259,0.1295
				c-0.0863,0-0.1295,0.1295-0.1295,0.1295s-0.0863,0.0863-0.1295,0.1295c-0.0863,0.0863-0.1295,0.1295-0.1295,0.1295
				s-0.0863,0.1295,0.0863,0.1295c0.0863,0,0.1295,0,0.2158-0.0863s0.259-0.2158,0.4316-0.3453c0,0,0.0863-0.0863,0.1295-0.0863
				c0.0863-0.0863,0.2158-0.259,0.259-0.4316c0.1295-0.0863,0.0863-0.0863,0.2158-0.259
				C60.9974,24.2249,60.9111,24.2249,60.7816,24.2249 M64.0187,23.9228c0,0-0.0863,0.0863-0.1295,0.0863
				c-0.0863,0.0863-0.1295,0.1295-0.0863,0.1295h0.0863c0.0863,0,0.0863,0,0.0863-0.0863
				C64.0187,24.0091,64.0187,23.9228,64.0187,23.9228L64.0187,23.9228 M61.3427,23.8797L61.3427,23.8797
				c-0.0863,0.0863-0.1295,0.1295-0.1295,0.2158l0.1295-0.1295V23.8797L61.3427,23.8797z M62.2491,23.0165
				c-0.0863,0-0.0863,0.1295-0.0863,0.1295l0.1295,0.1295h0.0863l0.0863-0.1295l-0.0863-0.0863
				C62.2922,23.0165,62.2922,23.0165,62.2491,23.0165L62.2491,23.0165 M62.8533,22.628l-0.1295,0.1295c0,0,0,0.0863,0.0863,0.0863
				l0.0863,0.0863l0,0l0.0863-0.1295L62.8533,22.628L62.8533,22.628z M63.9755,22.628c-0.0863,0-0.0863,0.0863-0.2158,0.0863
				c-0.0863,0-0.0863,0-0.0863,0h-0.0863l0,0c0,0.0863,0,0.0863-0.0863,0.0863c0,0.0863,0,0.0863-0.0863,0.1295
				c-0.0863,0.0432-0.0863,0.1295-0.2158,0.2158h-0.0863v0.0863c0,0.0863-0.1295,0.2158-0.1295,0.2158s-0.0863,0.0863-0.1295,0.1295
				l0,0c-0.0863,0-0.0863-0.0863-0.0863-0.0863s-0.0863-0.0863-0.1295-0.0863l0,0v0.0863l-0.0863,0.1295h-0.0863
				c0,0.0863-0.0863,0.1295-0.1295,0.1295c0,0,0,0-0.0863,0s-0.0863,0-0.0863-0.0863c0,0,0,0,0-0.0863h-0.0863L61.947,23.707l0,0
				l0.1295,0.0863c0,0,0,0.1295-0.0863,0.1295s-0.1295,0.1295-0.1295,0.1295l-0.1295-0.0863l-0.1295,0.0863v0.0863l-0.1295,0.0863
				l0,0l-0.0863,0.0863v0.0863v0.1295l-0.0863,0.0863h-0.1295l-0.0863,0.0863c0,0-0.0863,0.1295-0.0863,0.2158
				s-0.1295,0.1295-0.2158,0.2158s-0.2158,0.1295-0.2158,0.1295h0.1726c-0.0863,0.0863-0.0863,0.1295-0.0863,0.1295
				s-0.0863,0.1295-0.1295,0.2158c0.0863-0.0863,0.7769-0.6042,0.7769-0.6042c0.0863-0.0863,0.0863-0.0863,0.1295-0.0863v0.1295
				c0,0.0863-0.0863,0.1295-0.1295,0.2158c-0.0863,0-0.259,0.2158-0.3453,0.3453l0.1295-0.0863c0,0,0.1295-0.0863,0.2158-0.1295
				s0.2158-0.1295,0.2158-0.2158c0.0863-0.1295,0.0863-0.2158,0.0863-0.2158l0.0863-0.0863h0.1295l0.0863-0.0863v-0.1295v-0.1295
				l0.0863-0.0863l0.1295-0.0863v-0.0863l0.1295-0.0863l0.1295,0.0863c0,0,0.0863-0.1295,0.1295-0.1295
				c0.0863,0,0.0863-0.1295,0.0863-0.1295l-0.1295-0.1295c0,0,0-0.0863,0.0863-0.0863s0.0863,0,0.1295,0
				c0.0863,0,0.0863,0,0.0863,0.0863c0,0.0863,0,0.0863,0.0863,0.0863c0,0,0,0,0.0863,0s0.1295-0.2158,0.1295-0.2158
				s0.0863-0.1295,0.1295-0.1295c0.0863,0,0.1295,0.0863,0.1295,0.0863s0,0.0863,0.0863,0.0863l0,0
				c0.0863-0.0863,0.1295-0.1295,0.1295-0.1295s0.1295-0.1295,0.1295-0.2158c0-0.0863,0-0.2158,0-0.2158h0.1295
				c0,0,0-0.2158,0.0863-0.2158s0.0863-0.0863,0.1295-0.1295c0,0.0863,0.0863,0,0.0863,0l0.0863-0.1295
				C64.0187,22.7575,64.0187,22.628,63.9755,22.628 M63.1986,22.3259c-0.0863,0-0.0863,0-0.0863,0.0863c0,0.0863,0,0.2158,0,0.259
				c0,0,0-0.0863,0.0863-0.0863c0.0863-0.0863,0.0863-0.1295,0.0863-0.2158c0,0,0-0.0863,0.0863-0.0863
				C63.2849,22.4122,63.2849,22.3259,63.1986,22.3259"/>
			<path id="ZochGr6" fill="#FFFFFF" d="M31.1737,41.3595c0-0.7769,0.6906-1.4674,1.5106-1.4674
				c0.7769,0,1.3811,0.5611,1.3811,1.3811c0,0.7769-0.6906,1.4674-1.4674,1.4674C31.8643,42.6544,31.1737,42.0933,31.1737,41.3595
				L31.1737,41.3595z M62.9828,22.2827c0,0.0863,0.0863,0.0863,0.0863,0.1295c0,0.0863-0.0863,0.0863-0.1295,0.0863
				s-0.0863-0.2158-0.0863-0.3453s0.2158-0.0863,0.2158,0C63.0691,22.1533,62.9828,22.1964,62.9828,22.2827L62.9828,22.2827z
				 M63.1123,24.6134c-0.0863,0-0.1295,0-0.2158,0.0863c-0.0863,0.0863-0.2158,0.2158-0.1295,0.2158
				c0.1295,0.0863,0.2158,0.0863,0.2158,0c0.0863-0.0863,0.1295-0.1295,0.1295-0.1295
				C63.1986,24.6997,63.1123,24.6134,63.1123,24.6134L63.1123,24.6134z M63.7597,23.7933c0,0.0863-0.1295,0.0863-0.2158,0.0863
				c-0.0863-0.0863,0-0.1295,0.0863-0.1295c0.0863-0.0863,0.1295-0.0863,0.1295-0.0863S63.7597,23.707,63.7597,23.7933
				L63.7597,23.7933z M61.2564,23.5344c-0.0863,0-0.1295,0-0.2158,0.0863s-0.2158,0.2158-0.1295,0.2158
				c0.1295,0,0.1295,0,0.2158-0.0863C61.2564,23.6639,61.2564,23.5344,61.2564,23.5344L61.2564,23.5344z M59.8321,26.7714
				c0,0.0863-0.0863,0.1295-0.1295,0.2158c-0.0863,0.0863-0.0863,0.0863-0.1295,0.0863c-0.0863-0.0863,0.0863-0.1295,0.1295-0.2158
				C59.7458,26.6851,59.7458,26.6851,59.8321,26.7714C59.8321,26.6851,59.8753,26.6851,59.8321,26.7714L59.8321,26.7714z
				 M61.0838,26.3398c-0.0863,0-0.2158,0.0863-0.0863,0.1295C61.0838,26.4261,61.0838,26.3398,61.0838,26.3398L61.0838,26.3398z
				 M61.4722,24.9587c0,0.0863-0.0863,0.1295-0.1295,0.2158c-0.0863,0.0863-0.3453,0.259-0.4316,0.3453
				c-0.0863,0.0863-0.2158,0.2158-0.259,0.2158c-0.0863,0.0863-0.1295,0.0863-0.2158,0s0-0.2158,0.0863-0.2158
				c0.0863-0.0863,0.7769-0.6042,0.7769-0.6042c0.0863-0.0863,0.0863-0.0863,0.1295-0.0863
				C61.4722,24.7429,61.4722,24.8724,61.4722,24.9587L61.4722,24.9587z M59.271,25.1745l-0.1295-0.0863
				c0,0-0.1295,0.1295-0.0863,0.1295s0.1295,0,0.1295,0L59.271,25.1745L59.271,25.1745z M56.2498,28.0662l-0.3453,0.259v0.0863
				l0.0863,0.0863v0.1295l-0.259,0.2158l-0.0863,0.1295h-0.0863l-0.1295-0.1295l0.0863-0.1295l0.0863-0.0863v-0.1295l0.3453-0.4316
				c0,0,0.0863-0.0863,0.1295-0.0863L56.2498,28.0662L56.2498,28.0662z M39.6331,35.4898
				c-0.1295-0.4748-0.6042-0.7769-1.4674-0.6906c-0.7769,0-1.7264,1.7264-1.7696,2.2012c-0.0863,0.4748-0.3453,2.2875,0.259,3.237
				c0.5611,0.9495,1.5969,2.0717,3.1507,0.7769c0.6906-0.5611,0.7769-0.82,0.82-0.9495c0.0863-0.1295,0.259-0.4748,0.259-0.1295
				s0,1.5969-0.0863,1.9422c-0.0863,0.3453-0.1295,0.9495-0.2158,1.1653c-0.0863,0.2158,0.1295,0.4316,0.5611-0.1295
				s1.2516-1.8559,1.5106-2.8054c0.259-1.0358,0.4748-2.2012,0.4748-3.1507c0.0863-0.9495,0.3453-1.7264,0.9064-1.9422
				c0.5611-0.2158,1.1222,0,1.7264,0.6042c0.6042,0.6906,1.1653,1.4674,1.7264,1.5969c0.4748,0.1295,1.1222,0.0863,1.9854-0.4748
				c0.9064-0.6042,1.3811-0.9495,2.0717-1.5106c0.7769-0.5611,4.4023-3.9276,5.2224-4.6181
				c0.7769-0.6906,1.5969-1.5106,1.9422-1.7696s0.7769-0.7769,0.82-0.82c0.0863-0.0863,0.259-0.4316,0.259-0.4316l0.2158-0.0863
				l0.0863-0.1295l0.0863-0.1295l0.2158-0.0863v-0.1295l-0.1295-0.0863h-0.1295l-0.0863,0.2158l-0.259,0.1295l-0.1295,0.0863
				L59.53,27.462l-0.1295,0.259l-0.2158,0.0863h-0.1295l-0.1295,0.2158l-0.0863,0.0863l-0.0863,0.1295h-0.1295h-0.1295v-0.1295
				l0.2158-0.1295c0,0,0.1295-0.1295,0.2158-0.2158c0.0863-0.0863,0.2158-0.259,0.2158-0.259l-0.0863-0.1295l0.0863-0.0863
				l0.1295-0.1295l0.2158-0.259l-0.1295-0.0863l0.0863-0.1295l0.1295-0.0863h0.2158l0.2158-0.0863l0.0863-0.1295l0.0863-0.0863
				l0.259-0.1295c0,0,0.2158-0.1295,0.1295-0.2158c-0.0863,0-0.2158,0-0.2158,0l-0.259,0.0863l-0.0863-0.1295
				c0,0,0.0863-0.0863,0.2158-0.1295c0.1295-0.0863,0.2158-0.0863,0.2158-0.0863l0.1295-0.2158l0.2158-0.2158l0.259-0.1295
				c0,0,0.1295-0.0863,0.2158-0.1295c0.0863-0.0863,0.2158-0.1295,0.2158-0.2158c0-0.0863,0.0863-0.2158,0.0863-0.2158
				l0.0863-0.0863h0.1295l0.0863-0.0863v-0.1295v-0.1295l-0.1295,0.1295l0.1295-0.0863v-0.0863l0.1295-0.0863l0.1295,0.0863
				c0,0,0.0863-0.1295,0.1295-0.1295c0.0863,0,0.0863-0.1295,0.0863-0.1295l-0.1295-0.1295c0,0,0-0.0863,0.0863-0.0863
				s0.2158-0.0863,0.2158,0.0863c0,0.0863,0,0.0863,0.0863,0.0863s0.1295-0.2158,0.1295-0.2158s0.0863-0.1295,0.1295-0.1295
				c0.0432,0,0.1295,0.0863,0.1295,0.0863s0,0.0863,0.0863,0.0863c0.0863-0.0863,0.1295-0.1295,0.1295-0.1295
				s0.1295-0.1295,0.1295-0.2158c0-0.0863,0-0.2158,0-0.2158h0.1295c0,0,0-0.2158,0.0863-0.2158s0.0863-0.0863,0.1295-0.1295
				c0.0863-0.0863,0.0863-0.1295,0.0863-0.1295l0.0863-0.1295c0,0,0-0.1295-0.0863-0.1295s-0.0863,0.0863-0.2158,0.0863
				s-0.2158,0-0.2158,0.0863c0,0.0863,0,0.1295-0.0863,0.2158c-0.0863,0.0863-0.0863,0.1295-0.2158,0.2158
				c-0.0863,0-0.2158,0.0863-0.2158,0c-0.0863-0.0863-0.0863-0.1295-0.0863-0.1295l-0.1295,0.0863h-0.1295v-0.0863l0.0863-0.0863
				l0.1295-0.1295l-0.0863-0.1295l-0.1295,0.1295l-0.1295,0.1295c0,0,0.0863,0.1295-0.0863,0.1295c-0.1726,0-0.1295,0-0.2158,0
				c-0.0863-0.0863-0.0863,0.1295-0.0863,0.1295l0.2158,0.2158l0.0863-0.1295l0.1295,0.0863l0.1295,0.1295l-0.0863,0.1295
				l-0.2158-0.0863l-0.1295,0.0863l-0.1295,0.1295h-0.1295l-0.1295-0.1295l-0.0863,0.259v0.1295h-0.0863l-0.0863,0.2158
				l-0.0863,0.1295l-0.2158,0.1295h-0.2158l-0.2158-0.0863l-0.1295-0.1295l-0.1295,0.0863v0.2158l-0.2158,0.1295l-0.2158,0.2158
				c0,0-0.1295,0.1295-0.259,0.1295c-0.0863,0-0.1295,0.1295-0.1295,0.1295s-0.0863,0-0.1295,0.0863
				c-0.0863,0.0863-0.1295,0.1295-0.1295,0.1295s-0.0863,0.1295,0.0863,0.1295c0.1295,0,0.1295,0,0.2158-0.0863
				s0.259-0.2158,0.4316-0.3453c0.1295-0.0863,0.4316-0.2158,0.4748-0.259c0.0863-0.1295,0.0863-0.259,0.1295-0.259
				c0.0863,0,0.4316-0.0863,0.259,0.1295c-0.1295,0.1295-0.0863,0.1295-0.2158,0.259c-0.1295,0.0863-0.259,0.4316-0.259,0.4316
				s-0.1295,0.259-0.259,0.3453c-0.1295,0-0.1295,0.0863-0.259,0.2158c-0.0863,0.1295-0.259,0.259-0.3453,0.259
				c-0.0863,0-0.2158,0.1295-0.2158,0.1295h-0.259c0,0-0.2158-0.0863-0.259-0.0863s-0.2158,0.259-0.2158,0.259l0.0863,0.2158
				l-0.1295,0.0863c0,0-0.0863,0.2158-0.1295,0.259c-0.0863,0.0863-0.0863,0.1295-0.1295,0.2158c0.0863,0-0.0863,0-0.1295,0.0863
				c-0.0863,0.0863-0.0863,0.259-0.0863,0.259s0,0.3453-0.0863,0.3453s-0.259,0.1295-0.259,0.1295l-0.0863,0.259
				c0,0-0.0863,0.0863-0.0863,0.2158s-0.0863,0.2158-0.1295,0.2158s-0.2158,0.0863-0.259,0.0863
				c-0.0863,0.0863-0.0863,0.2158-0.2158,0.2158s-0.2158,0.1295-0.2158,0.1295h-0.1295v0.259h-0.2158l-0.0863,0.1295h-0.1295
				l-0.1295-0.0863v-0.0863l-0.0863,0.0863l-0.0863-0.0863l-0.0863-0.1295l-0.1295-0.1295v0.1295v0.2158
				c0,0-0.0863,0.0863-0.1295,0.0863c-0.0863,0-0.0863-0.0863-0.1295-0.1295c-0.0863-0.0863-0.1295-0.1295-0.1295-0.1295
				l0.0863-0.2158c0,0-0.0863,0-0.1295,0c-0.0863,0.0863-0.1295,0.1295-0.1295,0.1295l-0.0863,0.2158l-0.2158-0.0863
				c0,0-0.1295-0.0863-0.1295,0.0863c0,0.0863,0.1295,0.1295,0.1295,0.1295v0.1295c0,0-0.2158,0.0863-0.2158,0.1295
				c0,0.1295,0.0863,0.259-0.0863,0.259c-0.1295,0-0.259,0-0.259,0.0863c0,0.0863,0,0.3453-0.1295,0.259
				c-0.1295,0-0.259,0.259-0.4316,0.3453c-0.1295,0.0863-1.2516,1.5106-1.7264,1.9854c-0.4748,0.4316-1.5106,1.3811-1.7696,1.5969
				c-0.259,0.1295-1.1653,0.9064-1.9422-0.3453c-0.7769-1.1653-1.2516-2.6759-2.9781-2.0717c-1.1653,0.4316-1.4674,0.82-1.5969,0.82
				c-0.1295,0.0863-0.4748,0-0.4748-0.259s-0.0863-2.8054-0.2158-3.5823c-0.1295-0.7769-0.5611-2.1149-1.5969-1.9854
				c-1.1222,0.1295-1.0358,1.7696-1.1222,2.6328c-0.0863,0.8632,0.0863,3.7981,0.1295,4.5318c0,0.82-0.0863,2.3307-0.7769,3.3665
				c-0.6042,1.1222-1.0358,1.1653-1.2948,0.9495s-0.1295-1.0358,0.3453-1.4674C39.3742,36.3961,39.7195,35.7056,39.6331,35.4898
				L39.6331,35.4898z M17.7509,42.5249c0.2158-0.1295,1.3811-1.0358,1.9422-1.3811c0.5611-0.3453,1.7696-1.0358,2.2875-1.2948
				c0.4748-0.259,2.7623-1.4674,2.9781-1.5969c0.2158-0.1295,0.0863,0.1295,0,0.2158c0,0.0863-0.2158,0.4316-0.3453,0.6906
				s-1.7696,3.496-2.2875,4.5318c-0.4316,1.0358-1.8559,3.9276-2.2012,4.5318c-0.3453,0.6042-2.6328,5.3087-2.8917,5.8698
				c-0.2158,0.4748-1.1653,2.7623-1.2516,3.1507c-0.0863,0.4316,0.3453,0.2158,0.4316,0.1295s0.7769-0.6906,1.1222-1.2516
				c0.3453-0.5611,3.6686-4.7045,4.3592-5.5245c0.7769-0.82,3.0212-3.1507,4.1865-4.1434c1.2948-1.1222,3.3665-2.6328,3.3665-2.6328
				c0.1295-0.0863,0.1295,0,0.2158,0.0863c0.0863,0.0863,1.2516,1.2948,3.0212,1.2516c2.4601-0.1295,3.4528-1.9422,3.7118-2.9781
				c0.259-1.0358,0.0863-2.2012-0.5611-3.1075c-0.5611-0.9064-1.4674-1.2516-1.6401-1.3811
				c-0.1295-0.0863-0.3453-0.2158-0.4316-0.3453c-0.2158-0.3453-0.3453-0.7769-1.1222-0.7769c-0.7769,0-1.1653,0.6906-1.1653,0.82
				c-0.0863,0.1295-0.2158,0.2158-0.4316,0.259c-0.2158,0.0863-0.6042,0.2158-1.2948,0.9064
				c-0.9495,0.9495-1.1653,2.417-1.1222,3.1075c0,0.1295,0,0.0863,0,0.1295c0,0-0.259,0.2158-0.4316,0.259
				c-0.1295,0.0863-1.1653,0.7769-1.4674,0.9064c-0.259,0.1295-1.1653,0.6042-1.2948,0.6906s-0.1295-0.0863-0.0863-0.2158
				c0.0863-0.0863,0.0863-0.1295,0.259-0.6042c0.2158-0.4748,1.2948-2.6759,1.4674-2.9781
				c0.1295-0.2158,2.0717-3.7118,2.2875-4.0139c0.2158-0.259,0.9495-1.7264,1.0358-1.9422s0-0.3453,0-0.4748
				c0-0.1295-0.0863-0.1295-0.259-0.259c-0.2158-0.0863-0.3453,0-0.4316,0.0863c-0.1295,0.0863-0.1295,0.1295-0.4316,0.1295
				c-0.2158,0.0863-1.3811,0.9064-1.9422,1.1653c-0.4748,0.259-2.4601,1.2948-3.237,1.7264
				c-0.82,0.4748-2.2875,1.4674-2.4601,1.5969c-0.2158,0.1295-0.82,0.5611-1.2516,0.9064
				c-0.1295,0.4748-1.5106,1.8559-1.7264,2.0717s-1.1222,1.2948-1.2516,1.4674c-0.1295,0.1295-0.1295,0.2158-0.0863,0.3453
				C17.4056,42.6544,17.5351,42.6544,17.7509,42.5249L17.7509,42.5249z M40.4532,46.0209c0-0.6906,0.6042-1.2516,1.4674-1.2516
				c0.7769,0,1.4674,0.5611,1.4674,1.2516c0,0.6906-0.6042,1.2516-1.4674,1.2516C41.1006,47.2725,40.4532,46.7114,40.4532,46.0209"
				/>
			<path id="ZochGr5" fill="#181716" d="M47.2725,41.6185H44.726v1.5106h1.1653h0.0863c0.0863,0,0.2158,0,0.0863,0.1295
				c-0.1295,0.1295-1.2516,1.1653-1.3811,1.2948c-0.1295,0.1295-0.3453,0.5611-0.2158,0.9064
				c0.1295,0.3453,0.4316,0.6906,0.9495,0.6906h3.1075V44.726h-1.4674c0,0,0,0-0.0863,0s-0.2158,0,0-0.1295
				c0.2158-0.2158,1.1653-1.0358,1.2516-1.1653c0.1295-0.1295,0.3453-0.6042,0.2158-1.0358
				C48.3083,41.8343,47.9199,41.6185,47.2725,41.6185 M52.9265,41.6185h-1.7264v2.6759c0,0.2158-0.2158,0.259-0.3453,0.259
				c-0.0863,0-0.3453-0.0863-0.3453-0.259v-2.6759h-1.7696c0,0,0,2.6759,0,2.9781c0,0.9495,1.0358,1.5969,2.1148,1.5969
				c0.9495,0,2.0717-0.6042,2.0717-1.5969V41.6185L52.9265,41.6185z M57.8467,41.5753c-0.5611,0-1.0358,0.259-1.2948,0.5611
				c-0.2158-0.259-0.82-0.5611-1.2948-0.5611c-0.9495,0-1.9854,0.6906-1.9854,1.6401v2.8054h1.7696v-2.6759
				c0-0.2158,0.2158-0.259,0.3453-0.259c0.0863,0,0.3453,0.0863,0.3453,0.259v2.6759h1.7696V45.244v-1.9422
				c0-0.2158,0.2158-0.259,0.3453-0.259c0.0863,0,0.3453,0.0863,0.3453,0.259v2.6759h1.7696c0,0,0-2.5465,0-2.8054
				C59.8321,42.3091,59.0121,41.6185,57.8467,41.5753L57.8467,41.5753"/>
			<path id="ZochGr4" fill="#FFFFFF" d="M57.1562,45.7619h-1.7696V43.086c0-0.2158-0.2158-0.259-0.3453-0.259
				c-0.0863,0-0.3453,0.0863-0.3453,0.259v2.6759h-1.7696v-2.8054c0-0.9495,1.0358-1.6401,1.9854-1.6401
				c0.4316,0,1.0358,0.259,1.2948,0.5611c0.259-0.259,0.7769-0.5611,1.2948-0.5611c1.1222,0,1.9422,0.6906,1.9422,1.6401
				c0,0.259,0,2.8054,0,2.8054h-1.7696V43.086c0-0.2158-0.2158-0.259-0.3453-0.259c-0.0863,0-0.3453,0.0863-0.3453,0.259v1.9422
				L57.1562,45.7619L57.1562,45.7619z M48.481,41.3595h1.7696v2.6759c0,0.2158,0.2158,0.259,0.3453,0.259
				c0.0863,0,0.3453-0.0863,0.3453-0.259v-2.6759h1.7696v2.9781c0,0.9495-1.1222,1.5969-2.0717,1.5969
				c-1.1222,0-2.1148-0.6906-2.1148-1.5969C48.5241,44.0355,48.481,41.3595,48.481,41.3595L48.481,41.3595z M44.4671,41.3595v1.5106
				h1.1653c0.1295,0,0.3453,0,0.1295,0.1295c-0.1295,0.1295-1.2516,1.1653-1.3811,1.2948
				c-0.1295,0.1295-0.3453,0.5611-0.2158,0.9064c0.0863,0.259,0.4316,0.6906,0.9495,0.6906h3.1075v-1.4674h-1.4674
				c0,0-0.259,0-0.0863-0.1295c0.2158-0.2158,1.1653-1.0358,1.2516-1.1653c0.1295-0.1295,0.3453-0.6042,0.2158-1.0358
				s-0.5611-0.6042-1.1653-0.6042L44.4671,41.3595L44.4671,41.3595z"/>
			<path id="ZochGr3" fill="#181716" d="M43.2154,48.4378H41.489v4.4023h1.7264V48.4378L43.2154,48.4378z M45.8482,48.3947
				c-1.2516,0-2.2875,0.9495-2.2875,2.3307c0,0.6906,0.4316,2.2875,2.3307,2.2875c1.3811,0,2.2875-1.0358,2.2875-1.0358
				l-0.9495-0.9495c0,0-0.5611,0.5611-1.1222,0.5611l0,0c-0.5611,0-0.9064-0.6042-0.9064-1.0358s0.3453-0.7769,0.4748-0.82
				c0.0863,0,0.1295-0.0863,0.2158-0.0863c0.1295,0,0.3453,0.0863,0.4748,0.2158l-0.82,0.5611l0.4748,0.82l2.1148-1.2516
				C48.1789,50.1211,47.8336,48.3947,45.8482,48.3947 M53.0128,48.3947c-1.2516,0-2.2875,0.9495-2.2875,2.3307
				c0,0.6906,0.4316,2.2875,2.3307,2.2875c1.3811,0,2.2875-1.0358,2.2875-1.0358l-0.9495-0.9495c0,0-0.5611,0.5611-1.1222,0.5611
				l0,0c-0.5611,0-0.9064-0.6042-0.9064-1.0358s0.3453-0.7769,0.4748-0.82c0.0863,0,0.1295-0.0863,0.2158-0.0863
				c0.1295,0,0.3453,0.0863,0.4748,0.2158l-0.82,0.5611l0.4748,0.82l2.1149-1.2516C55.3435,50.1211,54.9982,48.3947,53.0128,48.3947
				 M38.6836,48.3083c-1.2516,0-2.2875,0.9495-2.3307,2.2875v0.0863v3.9276h1.6401v-1.5969v-0.1295v-2.2875
				c0.0863-0.3453,0.3453-0.5611,0.6042-0.5611c0.3453,0,0.6042,0.259,0.6042,0.6042c0,0.3453-0.259,0.6042-0.6042,0.6042
				c-0.1295,0-0.259-0.0863-0.4316-0.1295v1.7696c0.1295,0,0.259,0.0863,0.4316,0.0863c1.2948,0,2.3307-1.0358,2.3307-2.3307
				C41.0143,49.4305,39.9784,48.3083,38.6836,48.3083 M57.7604,48.3083c-0.9495,0-2.0717,0.6042-2.0717,1.5969v2.9781h1.7696
				v-2.6759c0-0.2158,0.2158-0.259,0.3453-0.259c0.0863,0,0.3453,0.0863,0.3453,0.259v2.6759h1.7696c0,0,0-2.6759,0-2.9781
				C59.8321,48.9989,58.7963,48.3083,57.7604,48.3083 M35.9214,46.7114h-1.9422c-0.6042,0-1.9422,0.2158-1.9422,1.5106
				c0,1.2516,1.3811,2.0717,1.5969,2.2012c0.4748,0.3453,0.3453,0.6906-0.0863,0.6906h-1.4674v1.7264h2.1148
				c0.4316,0,1.9422-0.3453,1.9422-1.7696c0-1.1222-1.3811-1.9422-1.7264-2.1148c-0.4316-0.259-0.3453-0.5611,0-0.5611h1.5106
				V46.7114L35.9214,46.7114z M50.3369,46.6683h-1.7264v6.2151h1.7264V46.6683L50.3369,46.6683z"/>
			<path id="ZochGr2" fill="#FFFFFF" d="M59.53,52.5812h-1.7696v-2.6759c0-0.2158-0.2158-0.259-0.3453-0.259
				c-0.0863,0-0.3453,0.0863-0.3453,0.259v2.6759h-1.7696v-2.9781c0-0.9495,1.1222-1.5969,2.0717-1.5969
				c1.1222,0,2.1149,0.6906,2.1149,1.5969C59.53,49.9484,59.53,52.5812,59.53,52.5812L59.53,52.5812z M53.2286,49.6031l-0.82,0.5611
				l0.4748,0.82l2.1148-1.2516c0,0-0.259-1.7264-2.3307-1.7264c-1.2516,0-2.2875,0.9495-2.2875,2.3307
				c0,0.6906,0.4316,2.2875,2.3307,2.2875c1.3811,0,2.2875-1.0358,2.2875-1.0358l-0.9495-0.9495c0,0-0.5611,0.6042-1.1222,0.5611
				c-0.5611,0-0.9064-0.6042-0.9064-1.0358s0.3453-0.7769,0.4748-0.82C52.7107,49.3442,53.056,49.3442,53.2286,49.6031
				L53.2286,49.6031z M48.3083,46.3661h1.7264v6.2151h-1.7264V46.3661L48.3083,46.3661z M46.064,49.6031l-0.82,0.5611l0.4748,0.82
				l2.1148-1.2516c0,0-0.259-1.7264-2.3307-1.7264c-1.2516,0-2.2875,0.9495-2.2875,2.3307c0,0.6906,0.4316,2.2875,2.3307,2.2875
				c1.3811,0,2.2875-1.0358,2.2875-1.0358l-0.9495-0.9495c0,0-0.5611,0.6042-1.1222,0.5611c-0.5611,0-0.9064-0.6042-0.9064-1.0358
				s0.3453-0.7769,0.4748-0.82C45.5461,49.3442,45.8914,49.3442,46.064,49.6031L46.064,49.6031z M41.1437,48.1789h1.7696v4.4023
				h-1.7264L41.1437,48.1789L41.1437,48.1789L41.1437,48.1789z M36.0508,50.38v-0.0863c0.0863-1.2516,1.1222-2.2875,2.3307-2.2875
				c1.2948,0,2.3307,1.0358,2.3307,2.3307c0,1.2948-1.0358,2.3307-2.3307,2.3307c-0.1295,0-0.259,0-0.4316-0.0863v-1.7696
				c0.1295,0.0863,0.259,0.1295,0.4316,0.1295c0.3453,0,0.6042-0.259,0.6042-0.6042s-0.259-0.6042-0.6042-0.6042
				c-0.3453,0-0.6042,0.259-0.6042,0.5611v2.2875v0.1295v1.5969h-1.7264V50.38L36.0508,50.38z M35.6624,48.0925v-1.7264h-1.9422
				c-0.6042,0-1.9422,0.2158-1.9422,1.5106c0,1.2516,1.3811,2.0717,1.5969,2.2012c0.4748,0.3453,0.3453,0.6906-0.0863,0.6906
				h-1.4674v1.7264h2.1149c0.4316,0,1.9422-0.3453,1.9422-1.7696c0-1.1222-1.3811-1.9422-1.7264-2.1148
				c-0.4316-0.259-0.3453-0.5611,0-0.5611L35.6624,48.0925L35.6624,48.0925z"/>
			<path id="ZochGr1" fill="#E3210A" d="M39.7195,45.1576c0-0.9064,0.7769-1.6401,1.6401-1.6401
				c0.9064,0,1.6401,0.7769,1.6401,1.6401c0,0.9064-0.7769,1.6401-1.6401,1.6401C40.4532,46.7114,39.7195,46.0209,39.7195,45.1576
				L39.7195,45.1576z M31.9075,41.9638c0.7769,0,1.4674-0.6042,1.4674-1.4674c0-0.7769-0.5611-1.3811-1.3811-1.3811
				c-0.7769,0-1.5106,0.6906-1.5106,1.4674C30.4832,41.489,31.0874,41.9638,31.9075,41.9638L31.9075,41.9638z M62.2922,21.4627
				c0-0.0863-0.1295-0.1295-0.2158,0c0,0.1295-0.0863,0.3453,0.0863,0.3453c0.0863,0,0.1295,0,0.1295-0.0863
				c0-0.0863,0-0.0863-0.0863-0.1295C62.2922,21.5059,62.2922,21.4627,62.2922,21.4627L62.2922,21.4627z M62.4649,24.0523
				c0,0.0863-0.0863,0.0863-0.1295,0.1295c-0.0863,0.0863-0.1295,0.0863-0.2158,0c-0.1295,0,0.0863-0.1295,0.1295-0.2158
				c0.0863-0.0863,0.1295-0.0863,0.2158-0.0863C62.4649,23.9228,62.4649,24.0091,62.4649,24.0523L62.4649,24.0523z M63.0691,22.9733
				c-0.0863,0-0.0863,0.0863-0.1295,0.0863c-0.0863,0.0863-0.1295,0.1295-0.0863,0.1295c0.0863,0.0863,0.1295,0.0863,0.2158-0.0863
				C63.0691,23.0165,63.0691,22.9733,63.0691,22.9733L63.0691,22.9733z M60.4364,23.0165
				c-0.0863,0.0863-0.1295,0.0863-0.2158,0.0863c-0.1295,0,0.0863-0.2158,0.1295-0.2158c0.0863-0.0863,0.0863-0.0863,0.1295-0.0863
				C60.5227,22.8438,60.5227,22.9733,60.4364,23.0165L60.4364,23.0165z M59.1415,25.9945c-0.0863,0-0.0863,0-0.1295,0.0863
				c-0.0863,0.0863-0.259,0.2158-0.2158,0.2158c0.0863,0.0863,0.0863,0,0.1295-0.0863
				C59.0552,26.2103,59.1415,26.124,59.1415,25.9945L59.1415,25.9945L59.1415,25.9945z M60.2206,25.7356
				c-0.0863,0,0.0863-0.1295,0.0863-0.1295C60.3069,25.6492,60.3069,25.7356,60.2206,25.7356L60.2206,25.7356z M60.7816,24.1386
				c-0.0863,0-0.0863,0.0863-0.1295,0.0863c-0.0863,0.0863-0.6906,0.5611-0.7769,0.6042c-0.0863,0.0432-0.1295,0.2158-0.0863,0.2158
				c0.0863,0.0863,0.1295,0.0863,0.2158,0s0.1295-0.1295,0.259-0.2158c0.0863-0.0863,0.3453-0.3453,0.4316-0.3453
				c0.0863-0.0863,0.1295-0.1295,0.1295-0.2158C60.7816,24.2249,60.7816,24.1386,60.7816,24.1386L60.7816,24.1386z M58.5805,24.5271
				c0,0-0.0863,0-0.1295,0c-0.0863,0,0.0863-0.1295,0.0863-0.1295l0.1295,0.0863L58.5805,24.5271L58.5805,24.5271z M55.4729,27.2462
				c-0.0863,0-0.1295,0.0863-0.1295,0.0863l-0.3453,0.4316v0.1295l-0.0863,0.0863l-0.0863,0.1295l0.1295,0.1295h0.0863
				l0.0863-0.1295l0.259-0.2158v-0.1295l-0.0863-0.0863v-0.0863l0.3453-0.3453H55.4729L55.4729,27.2462z M38.252,36.1803
				c-0.4316,0.4748-0.6042,1.2948-0.3453,1.4674c0.259,0.2158,0.6906,0.1295,1.2948-0.9495
				c0.6042-1.1222,0.7769-2.6328,0.7769-3.3665c0-0.82-0.1295-3.7118-0.1295-4.5318c0.0863-0.82,0-2.4601,1.1222-2.6328
				c1.1222-0.1295,1.4674,1.2516,1.5969,1.9854c0.1295,0.7769,0.1295,3.237,0.2158,3.5823c0,0.259,0.3453,0.3453,0.4748,0.259
				s0.4316-0.4316,1.5969-0.82c1.7264-0.6042,2.2012,0.9064,2.9781,2.0717c0.7769,1.1653,1.6401,0.4748,1.9422,0.3453
				c0.259-0.1295,1.2948-1.1222,1.7696-1.5969c0.4748-0.4316,1.5969-1.8559,1.7264-1.9854c0.1295-0.0863,0.259-0.3453,0.4316-0.3453
				c0.1726,0,0.1295-0.2158,0.1295-0.259c0-0.0863,0.1295-0.0863,0.259-0.0863s0.0863-0.1295,0.0863-0.259
				c0-0.1295,0.2158-0.1295,0.2158-0.1295v-0.1726c0,0-0.1295-0.0863-0.1295-0.1295s0.1295-0.0863,0.1295-0.0863l0.2158,0.0863
				l0.0863-0.2158c0,0,0.0863-0.1295,0.1295-0.1295c0.0863-0.0863,0.1295,0,0.1295,0l-0.2158,0.1295
				c0,0,0.0863,0.0863,0.1295,0.1295c0.0863,0.0863,0.0863,0.1295,0.1295,0.1295c0.0863,0,0.1295-0.0863,0.1295-0.0863v-0.2158
				v-0.0432l0.1295,0.1295l0.0863,0.1295l0.0863,0.0863l0.0863-0.0863l0.0863-0.0863l0.1295,0.0863h0.1295l0.0863-0.1295h0.2158
				v-0.259h-0.0863c0,0,0.1295-0.1295,0.2158-0.1295c0.1295,0,0.1295-0.1295,0.2158-0.2158s0.2158-0.0863,0.259-0.0863
				s0.1295-0.0863,0.1295-0.2158c0-0.1295,0.0863-0.2158,0.0863-0.2158l0.0863-0.259c0,0,0.2158-0.1295,0.259-0.1295
				c0.0863,0,0.0863-0.3453,0.0863-0.3453s0-0.2158,0.0863-0.259c0.0863-0.0432,0.2158-0.1295,0.259-0.2158
				c0.0863-0.0863,0.0863-0.1295,0.1295-0.2158c0.0863-0.0863,0.1295-0.259,0.1295-0.259l0.1295-0.0863l-0.0863-0.2158
				c0,0,0.1295-0.259,0.2158-0.259s0.259,0.0863,0.259,0.0863h0.259c0,0,0.1295-0.1295,0.2158-0.1295s0.259-0.2158,0.3453-0.259
				c0.0863-0.1295,0.1295-0.1295,0.259-0.2158c0.1295,0,0.259-0.3453,0.259-0.3453s0.2158-0.3453,0.259-0.4316
				c0.1295-0.0863,0.0863-0.0863,0.2158-0.259c-0.0863,0-0.3453,0-0.4316,0s-0.0863,0.1295-0.1295,0.2158
				c-0.0863,0.0863-0.4316,0.2158-0.4748,0.259c-0.1295,0.0863-0.3453,0.259-0.4316,0.3453s-0.1295,0.0863-0.2158,0.0863
				s-0.0863-0.1295-0.0863-0.1295s0.0863-0.0863,0.1295-0.0863c0.0863-0.0863,0.1295-0.1295,0.1295-0.1295
				s0.0863-0.1295,0.1295-0.1295c0.0863,0,0.259-0.1295,0.259-0.1295l0.1295-0.2158l0.2158-0.1295v-0.2158l0.1295-0.0863
				l0.1295,0.1295l0.2158,0.0863h0.2158l0.2158-0.1295l0.0863-0.1295l0.0863-0.2158h0.0863v-0.1295l0.1295-0.2158l0.1295,0.1295
				h0.1295l0.1295-0.1295l0.1295-0.0863l0.2158,0.0863l0.0863-0.1295l-0.0863-0.1726l-0.1295-0.0863l-0.0863,0.1295l-0.2158-0.2158
				c0,0,0-0.2158,0.0863-0.1295s0.1295,0,0.2158,0c0.1295,0,0.0863-0.1295,0.0863-0.1295l0.1295-0.1295l0.1295-0.1295l0.0863,0.1295
				l-0.1295,0.1295l-0.0863,0.0863v0.0863h0.1295l0.1295-0.0863c0,0,0.0863,0.0863,0.0863,0.1295c0.0863,0.0863,0.1295,0,0.2158,0
				s0.1295-0.1295,0.2158-0.2158s0.0863-0.1295,0.0863-0.2158s0.0863-0.0863,0.2158-0.0863s0.1295-0.0863,0.2158-0.0863
				s0.0863,0.1295,0.0863,0.1295l-0.0863,0.2158c0,0-0.0863,0.0863-0.0863,0.1295c0,0.0863-0.0863,0.1295-0.1295,0.1295
				s-0.0863,0.2158-0.0863,0.2158h-0.1295c0,0,0,0.1295,0,0.2158s-0.1295,0.2158-0.1295,0.2158s-0.0863,0-0.1295,0.0863
				c-0.0863,0.0863-0.0863-0.0863-0.0863-0.0863s-0.0863-0.0863-0.1295-0.0863c-0.0432,0-0.1295,0.1295-0.1295,0.1295
				s-0.0863,0.2158-0.1295,0.2158c-0.0863,0-0.0863,0-0.0863-0.0863c0-0.0863-0.1295-0.0863-0.2158-0.0863
				S61.429,22.887,61.429,22.887l0.1295,0.1295c0,0,0,0.1295-0.0863,0.1295s-0.1295,0.1295-0.1295,0.1295l-0.1295-0.0863
				l-0.1295,0.0863v0.0863l-0.1295,0.0863l-0.0863,0.0863v0.1295v0.1295l-0.0863,0.0863h-0.1295l-0.0863,0.0863
				c0,0-0.0863,0.1295-0.0863,0.2158c0,0.0863-0.1295,0.1295-0.2158,0.2158c-0.0863,0.0863-0.2158,0.1295-0.2158,0.1295
				l-0.259,0.1295l-0.2158,0.2158l-0.1295,0.2158c0,0-0.1295,0.0863-0.2158,0.0863s-0.2158,0.1295-0.2158,0.1295l0.0863,0.1295
				l0.259-0.0863c0,0,0.1295,0,0.2158,0s-0.1295,0.2158-0.1295,0.2158h-0.2158l-0.0863,0.0863l-0.0863,0.1295l-0.2158,0.0863
				h-0.2158l-0.1295,0.0863l-0.0863,0.1295l0.1295,0.0863l-0.2158,0.259l-0.1295,0.1295l-0.0863,0.0863l0.0863,0.1295
				c0,0-0.2158,0.2158-0.2158,0.259c-0.0863,0.0863-0.2158,0.2158-0.2158,0.2158l-0.2158,0.1295v0.1295h0.1295h0.1295l0.0863-0.1295
				l0.0863-0.0863l0.1295-0.2158h0.1295l0.3453-0.0432l0.1295-0.3453l0.1295-0.0863l0.1295-0.0863l0.259-0.1295l0.0863-0.2158
				l0.1295-0.0863l0.1295,0.0863v0.1295l-0.2158,0.0863l0.0863,0.1295l-0.0863,0.1295l-0.2158,0.0863c0,0-0.2158,0.259-0.259,0.4316
				c-0.0863,0.0863-0.4748,0.5611-0.82,0.82c-0.3453,0.259-1.1653,1.1222-1.9422,1.7696c-0.7769,0.6906-4.4887,4.0571-5.2224,4.6181
				c-0.7769,0.5611-1.1653,0.9064-2.0717,1.5106c-0.9064,0.6042-1.5106,0.6042-1.9854,0.4748s-1.1222-0.9064-1.7264-1.5969
				c-0.6042-0.6906-1.1653-0.82-1.7264-0.6042s-0.82,0.9495-0.9064,1.9422c-0.0863,0.9495-0.259,2.1148-0.4748,3.1507
				c-0.259,1.0358-1.1222,2.2875-1.5106,2.8054c-0.4316,0.5611-0.6042,0.3453-0.5611,0.1295
				c0.0432-0.2158,0.0863-0.82,0.2158-1.1653c0.0863-0.3453,0.0863-1.5969,0.0863-1.9422c0-0.3453-0.2158-0.0863-0.259,0.1295
				c-0.0863,0.1295-0.1295,0.4316-0.82,0.9495c-1.5969,1.2948-2.6328,0.259-3.1507-0.7769c-0.5611-0.9495-0.3453-2.7623-0.259-3.237
				c0.0863-0.4748,1.0358-2.1149,1.7696-2.2012c0.82-0.0863,1.2948,0.2158,1.4674,0.6906
				C39.0289,35.1013,38.6836,35.7919,38.252,36.1803L38.252,36.1803z M16.7151,41.9638c-0.0863-0.0863,0-0.2158,0.0863-0.3453
				c0.1295-0.1295,1.0358-1.2516,1.2516-1.4674c0.2158-0.1295,1.5106-1.5106,1.9422-1.8559
				c0.3453-0.3453,1.0358-0.7769,1.2516-0.9064c0.2158-0.1295,1.6401-1.1222,2.4601-1.5969c0.82-0.4748,2.7623-1.5106,3.237-1.7264
				c0.4748-0.259,1.7264-1.1222,1.9422-1.1653c0.2158-0.0863,0.259-0.1295,0.4316-0.1295c0.1295-0.0863,0.259-0.1295,0.4316-0.0863
				c0.2158,0.0863,0.259,0.1295,0.259,0.259c0,0.1295,0,0.259,0,0.4748c-0.0863,0.2158-0.9064,1.5969-1.0358,1.9422
				c-0.2158,0.259-2.1148,3.7118-2.2875,4.0139c-0.1295,0.2158-1.2516,2.4601-1.4674,2.9781
				c-0.2158,0.4748-0.259,0.4748-0.259,0.6042c-0.0863,0.0863-0.0863,0.2158,0.0863,0.2158
				c0.1295-0.0863,1.0358-0.5611,1.2948-0.6906c0.259-0.1295,1.2948-0.82,1.4674-0.9064c0.1295-0.0863,0.4316-0.259,0.4316-0.259
				s0.0863,0,0-0.1295c-0.1295-0.6042,0.0863-2.0717,1.1222-3.1075c0.6906-0.6906,1.0358-0.82,1.2948-0.9064
				c0.2158-0.0863,0.3453-0.1295,0.4316-0.259c0.0863-0.1295,0.4316-0.82,1.1653-0.82c0.7337,0,0.9495,0.3453,1.1222,0.7769
				c0.0863,0.1295,0.2158,0.259,0.4316,0.3453c0.1295,0.0863,1.0358,0.4748,1.6401,1.3811c0.5611,0.9064,0.82,2.0717,0.5611,3.1075
				c-0.259,1.0358-1.2516,2.8054-3.7118,2.9781c-1.7696,0.0863-2.9781-1.1653-3.0212-1.2516
				c-0.0863-0.0863-0.1295-0.1295-0.2158-0.0863c0,0-2.0717,1.5106-3.3665,2.6328c-1.1653,0.9495-3.4528,3.3233-4.1865,4.1434
				c-0.7769,0.82-4.0139,4.9634-4.3592,5.5245c-0.3453,0.5611-1.0358,1.1653-1.1222,1.2516
				c-0.0863,0.0863-0.4748,0.259-0.4316-0.1295c0.0432-0.3884,1.0358-2.6328,1.2516-3.1507
				c0.2158-0.4748,2.5465-5.1792,2.8917-5.7835s1.7696-3.5823,2.2012-4.5318c0.4316-1.0358,2.1148-4.2729,2.2875-4.5318
				c0.1295-0.259,0.3453-0.6042,0.3453-0.6906s0.1295-0.259,0-0.2158c-0.2158,0.1295-2.417,1.2948-2.9781,1.5969
				c-0.4748,0.259-1.7264,0.9495-2.2875,1.2948c-0.5611,0.3453-1.7264,1.2516-1.9422,1.3811
				C16.7582,41.9638,16.7151,41.9638,16.7151,41.9638L16.7151,41.9638z"/>
		</g>
	</g>
</g>
<g id="Layer_2">
</g>
<g id="Layer_3">
</g>
<g id="Layer_4">
</g>
<g id="Layer_5">
</g>
<g id="Layer_6">
</g>
<g id="Layer_9">
</g>
<g id="Layer_10">
</g>
<g id="Layer_11">
</g>
<g id="Layer_12">
</g>
<g id="Layer_13">
</g>
<g id="Layer_14">
</g>
<g id="Layer_15">
</g>
<g id="Layer_17">
</g>
<g id="Layer_7">
</g>
<g id="Layer_8">
</g>
<g id="Layer_18">
</g>
</svg>
