<svg version="1.1" id="Layer_1" xmlns="http://www.w3.org/2000/svg" x="0" y="0" viewBox="0 0 223 223" width="65" height="65" xml:space="preserve"><style>.st0{fill:#04699a}.st0,.st2{fill-rule:evenodd;clip-rule:evenodd}.st2,.st3{fill:#003959}</style><path class="st0" d="M59.7 158.9c-13.9 1-27.8.7-41.7-.8 27.1.9 54.1-3.8 79.2-13.9.9 2.1 2.6 4.1 3.4 5.9-7.6 2.5-15.2 4.9-23.9 6.4 1.7 2.3 3.6 4.3 5.8 6 10.5 8.9 25.6 15.1 45.6 14.2 5.2-.3 10.4-1.2 15.4-2.6 1.5-.3 3.1-.8 4.5-1.4 1.8-.9 4-3.2 5.6-4.6 12.2-11.1 22.3-26.8 22.3-49.3 0-23.6-10.4-39.4-23.1-50.6-12.4-10.9-31.9-19.9-56-14.9 9.8 9.8 19 20.2 27.5 31.1 6.3-5.2 12.2-10.9 17.7-17.1.6-.7 1.8-2.4 2.4-2.5s2.3 1 3 1.4c2.5 1.9 4.7 4.1 6.6 6.6-6.9 7.8-14.6 14.9-22.9 21.2 4.5 6.8 8.7 14 12.9 21 7.3-5.9 14.2-12.5 20.5-19.5.6-.6 2.3-2.8 2.9-2.8s1.4 2.1 1.6 2.8c1 2.2 1.6 4.5 2 6.8.3 1.3.4 2.7.3 4-.2.7-1.7 1.9-2.5 2.6-6.2 5.5-13 11-19.5 16 1.5 4.6 3.8 8.7 5.8 13.6 1.4 3.2 2.5 7.2 3.8 10.9.5 1.2.9 2.4 1.2 3.6.1 1.8-1.4 3.9-2.3 5.2-1 1.5-2.1 2.8-3.5 3.9-11.4-44.1-31.7-79.5-58.1-108.9-3.5 1.4-7.9 1.6-11.2 3.2-1.1.7-2.2 1.5-3.1 2.4-2.1 1.8-3.6 3.2-5.7 5.3-.7.7-2.4 2.2-2.5 2.9-.2 1 1.2 4.5 1.5 5.6C78.5 85 83 97.1 88.6 108.8c1.7 0 3.1-1.1 4.5-1.9 9.4-5.3 18-11.6 26.5-18 2 3.1 3.8 6.4 5.7 9.7-9.6 7.3-20.9 13-32.8 18.2.8 2.2 1.8 4.3 3.1 6.3 3.2 5.9 6.7 11.7 10.4 17.3 11.3-4.9 21.3-11.7 30.5-18.4 1.6 2.7 2.4 6 3.6 9-8.6 6.6-19.2 11.2-29.6 16.1 5.7 8.1 11.9 15.9 18.6 23.2 1 1 1.8 2 2.6 3.1-3 .5-6.1.6-9.1.4-1 .1-2 0-3-.2-.9-.8-1.6-1.7-2.2-2.6-20.3-28.6-36.7-62.3-44.3-103-.8.5-1.5 1.2-2 2-9 11.3-15.3 26.8-13.9 48-3.8 1.2-8 2.2-11.8 3.5-1-10.7.8-21.6 5.4-31.3 3.7-8.2 9-15.6 15.6-21.7C73 62.3 81 58 89.3 53.6c8.9-5 18.9-7.8 29.2-8.1 12.8-.7 25.6 2.3 36.8 8.7 9.4 5.3 17.3 13 22.8 22.3 1.4 2.4 3 4.7 4.2 7.2 4 8.7 6 18.1 5.9 27.6 0 14.1-3.7 26.2-9.7 35.4-7.4 11.4-17.9 20.5-30.3 26.2-2.5 1.1-4.7 2.9-7.1 4.1-9.8 4.9-23.1 7.9-38 6.3-20.3-2.3-32.7-12.3-43.4-24.4z"/><path class="st0" d="M84.7 119.3c-8.1 2.8-16.5 5-25 6.5-.6 2.3.5 4.7 1.2 6.7 2.2 5.9 5.1 11.6 8.8 16.7-4.5 1.4-9.5 2.2-14.4 3.2-2.5-3.4-4.5-7.1-5.8-11.1-1.7-4.3-2.9-8.8-3.6-13.3-6.6.4-12.3.8-19.3.8-1.9 0-5.3-.3-6.7-.1 5.9-.7 11.6-1.2 17.3-2.2 5.4-1 10.8-2 16-3.4 9.8-2.8 19.4-6.2 28.7-10.4.8 2.2 2 4.3 2.8 6.6z"/><path d="M100.6 106.5c2.7-2.3 6.8-4.6 8.3-4.6s3.9.2 5.6 1.7c0 0 7.4 6.8 8.4 7.3s3.7 1 4.6-.7c.9-1.7 12.7-25 18.8-36.5s17.8-31.6 19.2-34c2.7-4.2 6.2-7.9 10.4-10.6 5.3-3.3 10.9-6.2 16.6-8.7 2.5-1.1 3.9-1.2 4.9-.5s-.6 2.5-1 3-11.1 16-16.1 24.6S158 86.1 148.1 107s-10 21.6-10.6 22.2c-2.7 2.1-5.7 3.8-8.8 5.2-3.4 1.3-7.1 3.3-9.9 3.5s-4.3-1-6.8-2.7-15.1-10.8-17.5-16.9c-1.7-4.4-.5-5.2.5-6.5 1.8-2 3.7-3.7 5.6-5.3z" fill-rule="evenodd" clip-rule="evenodd" fill="#800e27"/><path class="st2" d="M17.4 58.7c2.2 1.1 4.8 2 6.8 3.1-.9 1.5-2.3 1.8-3.3 2.6-1.8 1.2-3.3 2.7-4.3 4.6-1.4 2.4-1.7 5.2-.9 7.9 1.4 4.3 8 7.8 12.7 6.8 6.3-1.4 8-9.3 7-14.5-.1-.7-.7-1.4-.2-2.4 2.1.3 4.6 1.9 6.9 2.8 0 2.7-.3 5.5-.9 8.1C37.8 89.5 29.4 94.5 20.6 92c-10-2.8-15-11.3-11.3-21.4 1.6-4.6 4.4-8.7 8.1-11.9zM1.5 124.3v-19.8H7v5.6h19.9c.2-1.6 0-3.8.1-5.6h5.4v19.9H27V119c-6.4-.3-13.3 0-19.9-.1-.2 1.6 0 3.8-.1 5.6-1.9 0-3.7 0-5.5-.2zM34.4 35.1l7.5-6.6c9.9 5 19.8 10.1 29.7 15-1.9 2-4.6 4-6.8 6-1.9-1.1-3.9-2-5.8-3.2l-9.4 8.2c.6 2.1 1.5 4.2 2.3 6.3l-6.7 5.8c-3.6-10.5-7.3-20.9-10.8-31.5zm13 13.9l6.2-5.4c-3.3-2-6.8-3.8-10.3-5.5 1.5 3.7 2.8 7.3 4.1 10.9zM68 11.2l9.7-2.9c5.8 4.1 11.3 9 17.1 13.2l-5-16.8 7.7-2.3 8.8 29.6-7.9 2.4c-6.8-5.1-13.3-10.8-20-16l6 20.2-7.8 2.3-8.7-29.3c-.1-.2 0-.3.1-.4zM120.8.4l10 1.6c3.5 6.3 6.3 13 9.7 19.3l2.7-17.4 7.9 1.2-4.7 30.5-4.1-.6c-1.2-.2-3-.1-4-.6-.5-.3-1.1-1.9-1.6-2.8-3.2-6.6-6.5-14.1-9.7-20.2l-3.2 20.8-7.9-1.2L120.5.8c.1-.3.2-.4.3-.4z"/><path class="st3" d="M39.7 191.6l-3-3.5 2.3-3.5-4.2-4.9-3.9 1.7L28 178l19.3-8 3.3 3.9-10.9 17.7zm1.3-10.2l4-6.2-6.8 3 2.8 3.2zM47.7 199.1c-.8-.7-1.5-1.5-2-2.4-1-1.7-1.2-3.8-.5-5.6.9-2.3 2.6-4.1 4.7-5.4.9-.5 1.9-.8 2.9-.8.9 0 1.9.2 2.8.5.9.4 1.7.9 2.5 1.5.6.5 1.2 1.2 1.7 1.9.4.6.7 1.3 1 2l-2.7 3.1-.4-.4c0-.2 0-.5-.1-.8 0-.3-.1-.7-.2-1-.1-.3-.3-.7-.5-1-.2-.4-.5-.7-.9-1-.7-.7-1.8-1-2.8-.8-1.1.3-2.1 1-2.8 1.9-.8.8-1.3 1.9-1.4 3.1 0 1 .5 1.9 1.3 2.6.4.3.8.6 1.2.8.4.2.7.3 1.1.3h.9l.8-.1.4.4L52 201c-.7-.2-1.4-.4-2.1-.7-.9-.2-1.6-.7-2.2-1.2zM60.5 208.3c-.9-.6-1.7-1.2-2.4-2.1-1.3-1.5-1.8-3.5-1.3-5.5.6-2.4 1.9-4.5 3.8-6 .8-.6 1.8-1 2.8-1.2.9-.2 1.9-.1 2.8.1.9.2 1.8.6 2.7 1.2.7.4 1.3 1 1.9 1.6.5.6.9 1.2 1.3 1.9l-2.2 3.5-.5-.3c-.1-.2-.1-.5-.2-.8-.1-.3-.2-.7-.4-1-.2-.4-.4-.7-.6-1-.3-.3-.6-.6-1-.9-.8-.6-1.9-.7-2.8-.3-1.1.5-2 1.3-2.5 2.3-.7.9-1.1 2.1-1 3.3.1 1 .7 1.9 1.6 2.4.4.3.8.5 1.3.6.4.1.8.2 1.1.1.3 0 .6 0 .9-.1l.8-.2.5.3-2.2 3.5c-.7 0-1.5-.2-2.2-.4-.7-.2-1.5-.6-2.2-1zM81.4 206.7l-.3-.1c-.2-.2-.5-.4-.7-.5-.3-.2-.6-.3-.9-.4-.5-.2-1-.4-1.5-.5-.5-.1-1-.2-1.5-.2l-4.1 9.2-3.8-1.7 6.1-13.7 3.8 1.7-.9 2c.9-.4 1.9-.6 2.9-.7.7 0 1.3.1 1.9.4l.4.2.4.2-1.8 4.1zM95.3 214.6l-9.2-2.5c-.3 1-.1 2 .4 2.9.7.9 1.7 1.5 2.8 1.7.9.2 1.7.3 2.6.1.8-.1 1.5-.3 2.2-.6l.4.1-1 3.7c-.9.2-1.9.2-2.8.2-.9 0-1.9-.2-2.8-.4-2.2-.4-4.1-1.7-5.3-3.5-1-1.9-1.2-4.1-.5-6.1.4-2.1 1.7-4 3.4-5.2 1.7-1.1 3.9-1.3 5.8-.7 1.8.3 3.3 1.4 4.1 3 .7 1.8.8 3.7.2 5.6l-.3 1.7zm-3.2-3.8c.3-.8.3-1.6 0-2.4-.3-.6-.9-1.1-1.7-1.2-.7-.2-1.5-.2-2.1.2-.7.5-1.2 1.2-1.4 2l5.2 1.4zM111.3 222.9l-4.2-.4.1-1.6c-.7.5-1.4 1-2.2 1.3-.7.3-1.5.4-2.2.3-1.5-.1-2.9-1-3.6-2.4-.9-1.8-1.2-3.8-.9-5.8.1-1.1.3-2.3.8-3.3.4-.9.9-1.7 1.5-2.4.6-.6 1.2-1.1 2-1.4.7-.3 1.5-.4 2.3-.4.7 0 1.3.2 1.9.5.5.3 1 .5 1.5.9l.6-6.4 4.2.4-1.8 20.7zm-3.8-4.4l.7-7.4c-.3-.2-.6-.3-.9-.4-.3-.1-.6-.1-.9-.2-1-.1-1.9.2-2.6 1-.7.9-1.1 2-1.1 3.1-.2 1.1-.1 2.2.4 3.3.4.7 1.2 1.2 2 1.2.4 0 .8 0 1.2-.1.4-.1.8-.3 1.2-.5zM120.5 205.6l-4.4.1-.1-3.6 4.4-.1.1 3.6zm.3 17.1l-4.2.1-.4-15 4.2-.1.4 15zM134 221.4c-.5.2-.9.3-1.4.5-.6.1-1.2.3-1.8.3-1.3.2-2.6 0-3.7-.7-.9-.7-1.4-1.9-1.6-3.7l-.8-7-1.7.2-.3-3.2 1.7-.2-.5-4.3 4.2-.4.5 4.3 3.9-.4.4 3.2-3.9.4.6 5.3c.1.5.1 1 .2 1.4 0 .3.1.7.3 1 .1.3.4.5.6.7.4.2.8.2 1.2.1.3 0 .6-.1.8-.3.2-.1.5-.2.7-.4h.4l.2 3.2zM149 211.6l-9.3 2.2c.2 1 .9 1.9 1.8 2.4 1 .5 2.2.5 3.3.2.9-.2 1.7-.6 2.4-1.1.6-.4 1.2-1 1.6-1.6l.4-.1.9 3.8c-.7.6-1.5 1.1-2.4 1.5-.8.4-1.7.7-2.6.9-2.1.7-4.4.4-6.3-.6-1.8-1.2-3-3-3.4-5.1-.6-2.1-.4-4.3.6-6.2 1-1.8 2.8-3 4.8-3.4 1.7-.5 3.6-.3 5.1.7 1.5 1.2 2.5 2.9 2.8 4.8l.3 1.6zm-4.7-1.8c-.1-.8-.6-1.5-1.1-2.1-.6-.4-1.3-.5-2-.3-.7.1-1.4.6-1.8 1.2-.4.7-.5 1.6-.3 2.4l5.2-1.2zM166.9 211.7l-3.9 1.6-.6-1.4c-.3.8-.8 1.5-1.3 2.2-.5.6-1.1 1-1.8 1.3-1.4.6-3.1.4-4.3-.5-1.6-1.2-2.8-2.8-3.5-4.7-.5-1.1-.7-2.2-.8-3.4-.1-1 0-1.9.3-2.8.2-.8.6-1.5 1.1-2.2.5-.6 1.1-1.1 1.9-1.4.6-.3 1.2-.4 1.9-.5.6 0 1.1 0 1.7.1l-2.4-5.9 3.9-1.6 7.8 19.2zm-5.5-2.3l-2.8-6.8c-.3 0-.7 0-1 .1-.3.1-.6.1-.9.3-.9.3-1.6 1.1-1.8 2-.2 1.1 0 2.3.5 3.4.4 1.1 1 2 1.8 2.7.7.4 1.6.5 2.3.1.4-.2.7-.4 1-.7.5-.4.7-.7.9-1.1zM193.7 194l-4.3 3.3-8.2-3-1.6 1.3 4.4 5.8-3.5 2.7-12-15.9 6-4.5c.7-.5 1.4-1 2.2-1.4.6-.3 1.3-.5 2.1-.5s1.6.1 2.3.4c.8.4 1.5 1 2.1 1.8.8 1 1.3 2.2 1.5 3.4.1 1.2-.1 2.3-.6 3.4l9.6 3.2zm-13.9-6.8c-.3-.4-.6-.7-1-.9-.4-.2-.8-.2-1.2-.1-.4.1-.7.2-1 .4-.3.2-.7.5-1.1.8l-1.3 1 3.2 4.3 1.1-.8c.5-.4.9-.8 1.4-1.2.3-.3.5-.7.6-1.2.1-.4.1-.8 0-1.1-.2-.5-.5-.9-.7-1.2zM200.2 177.3l-6.5 7c.7.7 1.7 1.1 2.8 1 1.1-.2 2.1-.8 2.9-1.7.6-.6 1.1-1.4 1.4-2.3.3-.7.4-1.5.5-2.2l.3-.3 2.8 2.6c-.3.9-.7 1.8-1.1 2.6-.5.8-1 1.6-1.7 2.2-1.4 1.7-3.4 2.8-5.6 3-2.1 0-4.2-.9-5.7-2.4-1.6-1.4-2.7-3.3-2.9-5.5-.1-2 .7-4 2.1-5.4 1.1-1.4 2.8-2.2 4.6-2.2 1.9.2 3.7 1.1 5 2.5l1.1 1.1zm-4.9 1.1c-.6-.6-1.3-1-2.1-1.1-.7 0-1.4.3-1.9.9-.5.5-.8 1.2-.8 1.9.1.8.5 1.6 1.1 2.2l3.7-3.9zM213.6 166.1c1 .6 1.9 1.4 2.7 2.4.6.7 1 1.6 1.1 2.4.1.9 0 1.7-.2 2.6-.3 1-.8 1.9-1.3 2.7-.5.8-1 1.5-1.6 2.1-.5.6-1 1.2-1.6 1.7l-3.2-2 .3-.4c.5-.4 1.1-.8 1.5-1.2.5-.4.9-.9 1.3-1.5.4-.5.6-1.1.8-1.7.1-.4.1-.9 0-1.3s-.4-.7-.6-1c-.4-.4-.8-.7-1.3-1l-.2-.1c.1.7.1 1.3 0 2s-.4 1.4-.8 1.9c-.8 1.4-2.3 2.4-3.9 2.5-1.6.2-3.5-.5-5.7-1.9-.9-.6-1.8-1.3-2.4-2.1-.6-.7-1-1.5-1.3-2.4-.2-.8-.3-1.6-.2-2.4.1-.8.4-1.5.8-2.2.3-.6.8-1 1.3-1.5.5-.4 1-.7 1.5-.9l-.5-.5 2.2-3.4 11.3 7.2zm-4.8 1.9l-5.7-3.7c-.3.2-.5.4-.7.6-.2.2-.4.5-.6.7-.6.8-.7 1.8-.4 2.7.4 1 1.2 1.8 2.1 2.3.8.6 1.9 1 2.9 1 .8-.1 1.5-.6 1.8-1.3.2-.4.4-.7.5-1.2.1-.3.1-.7.1-1.1zM202.7 151.2l-1.3 4.3-3.5-1 1.3-4.3 3.5 1zm16.4 4.9l-1.2 4-14.4-4.2 1.2-4 14.4 4.2zM216.9 138.3c1.5.1 2.8.9 3.5 2.2.9 1.5 1.2 3.3.9 5.1-.1 1.1-.3 2.1-.7 3.1-.3.8-.6 1.5-1.1 2.2l-3.9-.4v-.4c.2-.2.4-.4.6-.7.3-.3.5-.7.8-1.1.3-.4.5-.9.7-1.4.2-.6.3-1.1.4-1.7.1-.6.1-1.3-.1-1.9-.1-.4-.5-.7-.9-.7-.3-.1-.6 0-.8.3-.3.4-.5.8-.6 1.3-.1.3-.2.7-.4 1.2-.1.5-.3.9-.5 1.4-.4 1-1 1.9-1.9 2.4-.9.5-1.9.7-2.9.6-1.4-.1-2.7-.9-3.4-2.1-.9-1.5-1.2-3.3-.9-5 .1-.9.3-1.9.6-2.8.2-.7.6-1.4.9-2l3.8.4v.4c-.6.6-1 1.3-1.4 2-.4.7-.6 1.5-.7 2.4-.1.6 0 1.2.1 1.7.1.4.4.7.8.8.3.1.6 0 .8-.2.3-.4.6-.9.7-1.4.1-.4.3-.9.4-1.3s.3-1 .5-1.4c.3-.9 1-1.7 1.8-2.3 1-.6 2-.8 2.9-.7zM221.4 126.3c.1.5.3.9.3 1.4.1.6.1 1.2.1 1.9.1 1.3-.3 2.6-1.1 3.6-.7.8-2 1.2-3.9 1.2l-7 .1v1.7h-3.3v-1.7l-4.3.1-.1-4.2 4.3-.1v-3.9h3.3v3.9l5.3-.1h1.4c.4 0 .7-.1 1.1-.2.3-.1.6-.3.7-.6.2-.4.3-.8.3-1.2 0-.3-.1-.6-.2-.9-.1-.3-.2-.5-.3-.7v-.4l3.4.1zM209.8 114.3v.4c-.1.3-.1.6-.1.9 0 .4 0 .7.1 1 .1.5.2 1 .3 1.6.2.5.4 1 .6 1.4l10-1.1.5 4.2-14.9 1.7-.5-4.2 2.2-.3c-.8-.6-1.5-1.3-2.1-2.2-.3-.6-.6-1.2-.6-1.8v-.5-.5l4.5-.6zM216 101.9l.9.6c.3.2.6.5.9.8.3.3.6.7.8 1.1.2.4.4.9.5 1.4.3 1.1.1 2.4-.5 3.3-.7 1-1.8 1.8-3 2-.9.3-1.9.3-2.8 0-.8-.3-1.5-.7-2-1.3-.7-.8-1.2-1.6-1.5-2.6-.4-1.1-.9-2.2-1.2-3.4h-.1c-.7.1-1.3.6-1.4 1.3-.1.9-.1 1.8.2 2.6.2.7.6 1.4 1 2 .5.7.8 1.2 1 1.5l.1.4-3.5.9c-.2-.4-.6-1.1-1-2-.4-.9-.8-1.9-1-2.8-.6-2.3-.6-4.1 0-5.3.7-1.3 2-2.3 3.4-2.5l9.9-2.5 1 4-1.7.5zm-2.2.6l-3 .8c.2.5.4 1.1.7 1.7.2.5.4.9.7 1.4.2.3.5.6.9.8.4.1.8.1 1.2 0 .2-.1.5-.1.7-.3.2-.1.4-.3.5-.5.1-.2.2-.5.2-.7 0-.4 0-.8-.2-1.2-.1-.4-.3-.8-.6-1.2-.4-.3-.7-.6-1.1-.8zM201 87.6l.1.3c0 .3.1.6.2.8.1.4.3.7.4.9.2.5.5.9.8 1.4.3.4.6.8 1 1.2l9.1-4.2 1.7 3.8-13.7 6.2-1.7-3.8 2-.9c-1-.3-1.9-.8-2.6-1.4-.5-.4-.9-.9-1.2-1.5-.1-.1-.1-.3-.2-.5s-.1-.3-.2-.5l4.3-1.8z"/></svg>