<svg xmlns="http://www.w3.org/2000/svg" xmlns:xlink="http://www.w3.org/1999/xlink" viewBox="0 0 82 63" width="82" height="63"><path d="M56.2 41.5c.1-.8 1.4-1.2 2.9-1.1 1.5.2 2.6 1 2.5 1.8-.3 3-2.2 6-4.9 8.7C34.6 71.5 3.8 40.8 29.5 22c3.6-2.6 7.9-4.4 12.3-5.1h.2c4.8-.8 9.7-.3 14.3 1.4 4 1.6 7.6 4.2 10.4 8 1.7 2.4 2.8 4.9 3.3 7.5.9 4.2.3 8.6-1.5 12.7s-4.8 8-8.9 10.9c-3.5 2.5-7.8 4.5-12.8 5.5-1.3.3-3-.1-3.8-.9-.7-.7-.3-1.6 1-1.8 4.1-.9 7.8-2.5 10.8-4.7 3.8-2.7 6.5-6.2 8.1-10.1 8-18.6-12.3-33.8-29-21.6-20.5 15.2-.5 42.4 17.9 25.3 2.5-2.3 4.1-5 4.4-7.6z" fill-rule="evenodd" clip-rule="evenodd" fill="#e84222"/><defs><path id="a" d="M16.9 47.2c.4-.3.9-.4 1.3-.2.4.1.8.4 1.1.7l.1.1c.3.4.3.9.2 1.2-.1.4-.3.8-.7 1l-.1.1-5.9 3.6c-.4.3-.9.4-1.3.2-.4-.1-.8-.4-1.1-.8-.2-.3-.3-.5-.3-.8s0-.5.2-.8l4-8.4V42.8s0-.1-.1-.1l-.1-.1H14l-10.1-.5c-.4 0-.9-.1-1.2-.3-.4-.2-.8-.4-1.1-.7-.4-.3-.6-.6-.8-1-.2-.4-.3-.8-.4-1.2-.2-.4-.2-.8-.2-1.2.1-.4.2-.9.3-1.2.2-.3.4-.7.8-1 .3-.3.6-.5 1-.7l10.3-5-2.6-4.1v-.2c-.2-.4-.4-.7-.4-1.1-.1-.4-.2-.8-.1-1.1 0-.4.1-.8.3-1.1.2-.4.3-.7.6-1.1l.1-.1c.3-.3.5-.5.8-.7.3-.2.6-.3 1-.4.4-.1.8-.2 1.1-.2.4 0 .8.1 1.1.2l5.5 1.8-3.2-9.2c-.1-.3-.2-.7-.2-1.1 0-.3 0-.8.1-1.1s.3-.7.4-1.1c.2-.3.4-.6.7-.8.3-.3.6-.4 1-.6.3-.2.7-.3 1-.3.4-.1.8-.1 1.1 0 .3.1.7.2 1 .3L32.6 13h.3c.1 0 .1 0 .1-.1l.1-.1 3.5-5.4c.2-.3.4-.6.7-.8.3-.3.5-.4.9-.6.4-.2.6-.3 1-.3.3-.1.7-.1 1 0 .4 0 .7.1 1 .3.4.1.6.3 1 .5.3.2.5.4.8.7.2.3.4.6.5.9l.8 1.8s0 .1.1.1l.1.1h.4l.1-.1c.4-.6 1-1.3 1.5-2s1-1.4 1.8-2.3c.5-.7 1.1-1.4 1.7-2.1s1.1-1.3 1.5-1.9c.3-.3.5-.5.8-.7s.6-.4 1-.5c.4-.4.8-.5 1.1-.5s.7 0 1.1.1c.3.1.7.2 1 .3.3.2.6.3.9.6.3.3.4.5.6.9.2.3.4.6.4 1l3.1 12s0 .1.1.1l.1.1s.1 0 .1.1h12.6c.4 0 .7.1 1 .2.4.1.7.3 1 .4.3.2.6.4.8.7.3.3.4.6.6 1 .2.3.3.7.3 1s.1.7 0 1.1l-.3 1.1c-.2.3-.3.6-.6 1l-2.7 3.2-.1.1v.4h.1s.1 0 .1.1l4.5 1.8c.4.2.8.4 1.1.6.3.3.6.6.8 1 .2.4.3.7.4 1.1.1.4.1.8.1 1.2s-.2.9-.3 1.2c-.2.3-.3.7-.6 1-.3.4-.6.6-1 .8-.3.2-.7.3-1.1.4l-4.5.8c-.4.1-1 0-1.3-.3-.4-.3-.6-.6-.8-1.1-.1-.4 0-1 .3-1.3.3-.3.6-.6 1.1-.7l4.5-.9s.1 0 .1-.1c0 0 .1 0 .1-.1l.1-.1V30.5s0-.1-.1-.1l-.1-.1-4.5-1.8c-.3-.1-.5-.3-.8-.4-.3-.2-.4-.3-.6-.6-.2-.3-.3-.4-.5-.8-.2-.3-.3-.5-.3-.9-.2-.2-.2-.5-.2-.8s0-.6.1-.9l.3-.9c.2-.3.3-.5.5-.8l2.7-3.2.1-.1v-.2s0-.1-.1-.1H61.9c-.4 0-.9-.1-1.2-.2-.4-.2-.8-.3-1.1-.6-.4-.3-.6-.6-.9-1-.3-.3-.4-.7-.5-1.1L55.1 3.8v-.1s0-.1-.1-.1c0 0-.1 0-.1-.1h-.5l-.1.1-1.5 1.8c-.5.7-1 1.4-1.7 2.2-.5.7-1.1 1.4-1.7 2.2-.5.7-1.1 1.4-1.5 2-.2.3-.4.5-.7.7-.3.2-.5.4-.9.5s-.6.3-1 .3c-.4.1-.7.1-1.1 0-.4 0-.7-.1-1-.3-.4-.1-.6-.3-.9-.5-.3-.2-.5-.4-.7-.7-.2-.3-.3-.5-.5-.9l-.8-1.8s0-.1-.1-.1l-.1-.1h-.4s-.1 0-.1.1c0 0 0 .1-.1.1L36 14.5c-.3.4-.6.7-1 1.1-.4.3-.8.5-1.2.6-.4.1-.9.2-1.4.1-.4 0-.9-.2-1.3-.3l-10.7-5.2H20.1s-.1 0-.1.1l-.1.1v.3l3.8 10.9c.1.2.1.3.1.4s.1.3.1.4v.4c0 .2 0 .3-.1.5l.2.6v.4c-.2.4-.4.8-.9 1-.4.2-.9.3-1.3.1l-8.2-2.7H13.3s-.1 0-.1.1v.1l-.1.1v.2s0 .1.1.1v.1l3.3 5.2c.1.2.2.3.3.4s.1.4.1.5v.6c0 .3-.1.6-.3.9-.2.3-.4.5-.7.6l-12 5.7-.1.1-.1.1v.4l.1.1.1.1H4l10.1.5c.3 0 .6.1 1 .2.3.1.6.2.9.4.3.2.5.3.7.6.2.3.4.4.6.8.2.3.3.6.4.9.1.3.2.6.2 1s0 .6-.1 1-.2.6-.3.9L16 47.8l.9-.6z"/></defs><clipPath id="b"><use xlink:href="#a" overflow="visible"/></clipPath><linearGradient id="c" gradientUnits="userSpaceOnUse" x1="136.514" y1="28.607" x2="30.014" y2="28.607" gradientTransform="matrix(.875 0 0 -.875 -32.806 56.75)"><stop offset="0" stop-color="#e73533"/><stop offset="1" stop-color="#fc6a37"/></linearGradient><path d="M-6.5-2.6h93.2v68.7H-6.5V-2.6z" clip-path="url(#b)" fill="url(#c)"/></svg>