<svg xmlns="http://www.w3.org/2000/svg" width="240" height="142" viewBox="0 0 400.3 236.5"><linearGradient id="a" gradientUnits="userSpaceOnUse" x1="80.317" y1="78.593" x2="319.72" y2="78.593"><stop offset="0" stop-color="#fc6a37"/><stop offset="1" stop-color="#fe534b"/></linearGradient><path d="M132.2 146.3c4.5-2.8 1.9-8.8-3.6-5.7-2 1.2-6.7 4.2-6.7 4.2s6.5-14.1 6.9-14.9c2.3-5.8-1.8-13-8.9-13.5-1.5-.1-28.6-1.2-29.9-1.2-4.1-.9-2.6-5-1.4-5.5.4-.2 34.2-16.4 35-16.8 3.4-1.9 3.8-4.6 2.1-7.3-.3-.5-8-11.8-10.5-16.3-.7-1.6.7-4.4 4.6-3.4 1 .3 22.8 7.3 23.5 7.6 4.4 1.4 6.5-3.6 4.6-9-.2-.6-8.1-22.5-11.1-32.1-1.1-3.6 3-4.3 4.1-3.4.9.4 30.6 14.5 31.7 15 4.4 1.9 8.7 1.7 11.9-2.2.6-.8 11.1-17 11.7-17.7 2-2.5 4.3 0 4.6.7.3.7 2 5.3 2.6 6.4 4 7 12.8 5.8 15.4 2.7 1-1.2 20.2-26.5 20.7-26.5.3 0 3.3-1.6 4.2 1 3.3 9.6 9.2 35.4 9.3 36 1.6 6.1 6.3 7.6 10.4 7.7.7 0 34.3-.1 34.8-.1 4.7-.2 4.7 3 4.1 4-2.9 4-8.7 10.6-9 10.9-2.6 3.6-2.7 11.6 2.7 14.2 1 .4 13.9 5.7 14.3 5.9 3.3 1 4.3 4.6-.3 5.9-.8.2-9.9 1.9-12 2.5-5 1.4-4.1 7.8 1 6.6 1.4-.3 12.5-2.4 13.5-2.6 8.5-2.2 10.4-14.7 1.3-18.4-.6-.2-9.8-3.4-14.4-5.9-1.7-1.1-.9-3.6-.9-3.6s9.3-11.4 9.9-12.2c3-3.8.5-14.2-9.7-14-.4 0-25.4.4-36 .1-2.9-.1-3.2-3.6-3.2-3.6s-8.4-32.4-9-34.7c-2.2-7.5-12-9.4-17.4-3-1 1.1-19.1 24.4-19.1 24.4s-2.5 2.5-4.5-1c-.9-2.1-2.6-5.4-3-6.5-3.4-6.4-12-6.5-15.7-1.6-1.1 1.7-11.3 17.1-11.3 17.1s-1.2 2.6-4.4 1c-9.6-4.7-30.2-14.6-31.1-15-6.2-3.1-16.4 1.9-14 11.2.2.5 10.9 31.1 10.8 31.6-.1.5-17.8-5.9-18.8-6.2-9.6-3.2-17 5.7-12.3 13.9.4.7 9 14.4 9 14.4S85.6 103.2 85 103.7c-7.5 4.6-5.5 16.8 4.8 18 .8 0 29.2 1.4 30.3 1.3.3.1 3.4.9 2.4 3.9-3 7.4-11 23.6-11.3 24-2.6 4.5 1 8 5.9 4.7.5-.2 14.7-9 15.1-9.3z" fill="url(#a)"/><path d="M247 121.7c.6 6.9-13.8 37-51 40.2-24.7.6-45.2-22.7-43.2-50.7 1-21.9 26.9-55.4 65-56.8 35-.7 57.2 31.6 55.2 54.7-.9 27.6-24.7 57.7-60 65.3-7.6 1.6-5.2 6.3 3.8 6.9 11.8-1 69.3-20 70-73.7-2.4-34.1-31.9-61-74.9-58.9-36.3 1-71.2 30.6-72.7 62.1-1.8 39.8 33.9 57.4 58.4 57 29.4-.6 60.4-19.8 63.2-44.6-1.2-3.5-10.4-5.7-13.8-1.5z" fill="#fa4d32"/><path d="M382.3 195.9c-12.6 0-17.9 2-17.9 11 0 5.8 2.8 9.2 10.4 11.5l10.3 3c3.7.8 5.3 1.4 5.3 3.9 0 2.7-1.9 3.2-8.4 3.2-3.6 0-7.6-.1-16.5-.2l-.6 6.8c7.6 1.5 13.7 1.6 17 1.6 13.2 0 18.3-2.6 18.3-11.5 0-5.7-2.6-9.3-10.6-11.6l-9.9-2.7c-4-1-5.7-1.6-5.7-4 0-2.8 2.3-3.1 8.3-3.1 5.2 0 11.2.1 15.5.2l.6-6.4c-5.4-1.5-11.2-1.7-16.1-1.7zm-24.7 32.6h-19.8c-2.6 0-3.8-.9-3.8-2.7v-6.9h20.8v-6.8H334v-5.5c0-1.8 1.2-2.7 3.8-2.7h19.8l.5-6.9c-6.9-.6-15.4-.6-23.2-.6-6.4 0-10.6 3.2-10.7 8.1v23.3c.1 4.9 4.2 8.1 10.7 8.1 7.7 0 16.2 0 23.2-.6l-.5-6.8zm-57.3-31.9c-2.2 0-3.5 1-4 3l-7.2 18.6c-.7 1.9-1.1 3.7-1.6 5.6h-1.1c-.5-1.9-.8-3.7-1.5-5.6l-7.3-18.6c-.5-2-1.8-3-3.9-3H264c-2.4 0-3.6 1.2-3.7 3.5l-1.9 35.7h9.3l1.6-31.9h1.3l9 23.3c.7 1.9 1.9 3 4.1 3h6.8c2.2 0 3.2-1.1 4-3l8.9-23.3h1.4l1.8 31.9h9.3l-2-35.7c-.1-2.3-1.3-3.5-3.7-3.5h-9.9zm-62.8 22.1h-13.1l4.4-11.1c.4-1.2.9-2.6 1.2-3.9h1.8c.3 1.2.8 2.7 1.2 3.9l4.5 11.1zm2.9 7.2l3.9 9.9h10l-15.2-36.7c-.5-1.5-1.8-2.5-3.5-2.5h-9.5c-1.6 0-3 1-3.5 2.5l-15.2 36.7h10l3.9-9.9h19.1zm-37.9-29.3h-9.3V219c0 2.2.2 4.3.5 6.4h-1c-1.1-2.2-2.4-4.4-3.6-6.1l-13.9-19.9c-1.1-1.7-1.9-2.8-4-2.8h-6.7c-2.3 0-3.6 1.1-3.6 3.4v35.8h9.4v-23.1c0-2-.2-4.1-.5-6.1h.9c.7 1.9 2 4.4 3.1 5.9l14.4 20.6c1.1 1.8 1.9 2.8 4 2.8h6.8c2.4 0 3.6-1.1 3.6-3.4v-35.9zm-77.6 32.7v-10.8h9.1c6.9.1 9 1.1 9 5.6 0 4.2-2 5.2-8.7 5.2h-9.4zm17-21.6c0 3.9-2 4.8-8 4.8h-9v-9.4h8.3c6.6 0 8.7.8 8.7 4.6zm.6 7.6c6.2-.5 8.8-3.3 8.8-8.9 0-8.1-4.7-10.2-17.7-10.2-8.2 0-12.7.1-18.3.5v39.2c6.2.4 11.2.5 20.6.5 12 0 16.9-2.2 16.9-10.2 0-6.2-2.7-9.9-10.4-10.4v-.5zm-35.8 13.2H86.9c-2.6 0-3.8-.9-3.8-2.7v-6.9h20.8v-6.8H83.1v-5.5c0-1.8 1.2-2.7 3.8-2.7h19.8l.5-6.9c-6.9-.6-15.4-.6-23.2-.6-6.4 0-10.6 3.2-10.7 8.1v23.3c.1 4.9 4.2 8.1 10.7 8.1 7.7 0 16.2 0 23.2-.6l-.5-6.8zm-39.6-31.9h-10l-6 26.6c-.3 1.8-.6 3.9-.7 5.8h-1.6c-.3-1.9-.6-4-1.1-5.9l-6.3-23.6c-.3-1.7-1.7-2.9-3.5-2.9h-8.7c-1.9 0-3.2 1.2-3.5 2.9L19.4 223c-.5 1.9-.8 4-1.1 6h-1.6c-.2-2.2-.4-4.1-.7-5.9l-6-26.5H0l8.8 36.6c.3 1.6 1.8 2.6 3.5 2.6H22c1.8 0 3.3-1 3.6-2.6l6.2-24.6c.4-1.7.6-3.5.9-5.2h1.5c.2 1.6.5 3.4.9 5.1l6.3 24.7c.3 1.6 1.8 2.6 3.6 2.6h9.7c1.8 0 3.2-1 3.5-2.6l8.9-36.6z" fill-rule="evenodd" clip-rule="evenodd" fill="#fa4d32"/></svg>