<svg version="1.1" id="Слой_1" xmlns="http://www.w3.org/2000/svg" xmlns:xlink="http://www.w3.org/1999/xlink" x="0" y="0" style="enable-background:new 0 0 288 63" xml:space="preserve" height="63" width="288"><style>.st5{display:inline;fill:#555}.st6{font-family:&apos;Exo2-Regular&apos;}.st7{font-size:14px}.st8{letter-spacing:2}.st9{fill:#555}</style><path d="M278.9 21.4c-6.2 0-8.8 1.1-8.8 5.4 0 2.9 1.4 4.6 5.2 5.7l5.1 1.5c1.8.4 2.6.7 2.6 1.9 0 1.3-1 1.6-4.2 1.6-1.8 0-3.8 0-8.1-.1l-.3 3.3c3.8.7 6.7.8 8.4.8 6.6 0 9-1.2 9-5.7 0-2.8-1.2-4.6-5.2-5.7l-4.9-1.3c-2-.4-2.8-.8-2.8-2 0-1.4 1.1-1.5 4.1-1.5 2.5 0 5.5 0 7.7.1l.3-3.1c-2.8-.7-5.7-.9-8.1-.9zm-12.3 16.1h-9.8c-1.3 0-1.9-.4-1.9-1.3v-3.4h10.4v-3.3h-10.2v-2.7c0-.9.6-1.3 1.9-1.3h9.8l.3-3.4c-3.4-.4-7.6-.4-11.5-.4-3.1 0-5.2 1.6-5.2 4v11.5c0 2.5 2.1 4 5.2 4 3.9 0 8.1 0 11.5-.3 0 .1-.5-3.4-.5-3.4zm-28.2-15.7c-1.1 0-1.8.5-1.9 1.5l-3.6 9.2c-.3 1-.5 1.8-.8 2.7h-.5c-.3-1-.3-1.8-.7-2.7l-3.6-9.2c-.3-1-.9-1.5-1.9-1.5h-4.8c-1.1 0-1.8.6-1.8 1.8l-1 17.7h4.6l.8-15.8h.6l4.5 11.6c.3 1 1 1.5 2 1.5h3.3c1.1 0 1.6-.5 1.9-1.5l4.4-11.6h.7l.9 15.8h4.6l-1-17.7c-.1-1.1-.6-1.8-1.8-1.8h-4.9zm-31.1 11h-6.5l2.2-5.5c.3-.6.4-1.3.6-1.9h.9c.2.6.4 1.3.6 1.9l2.2 5.5zm1.4 3.5 1.9 4.9h4.9L208 23.1c-.3-.8-.9-1.2-1.8-1.2h-4.7c-.8 0-1.5.4-1.8 1.2l-7.5 18.1h4.9l1.9-4.9h9.7zM190 21.8h-4.6v11c0 1 .1 2.1.3 3.1h-.5c-.5-1-1.1-2.2-1.8-3.1l-6.9-9.8c-.5-.9-1-1.4-2-1.4h-3.3c-1.1 0-1.8.5-1.8 1.7V41h4.6V29.8c0-1-.1-2-.3-3.1h.4c.3 1 1 2.2 1.6 2.9l7.1 10.2c.5.9 1 1.4 1.9 1.4h3.4c1.1 0 1.8-.5 1.8-1.7l.1-17.7zM151.6 38v-5.3h4.6c3.4 0 4.5.5 4.5 2.8 0 2.1-1 2.5-4.3 2.5h-4.8zm8.5-10.7c0 1.9-1 2.4-3.9 2.4h-4.6V25h4.1c3.3 0 4.4.5 4.4 2.3zm.2 3.8c3.1-.3 4.4-1.7 4.4-4.4 0-4-2.3-5.1-8.8-5.1-4.1 0-6.3 0-9 .3v19.3c3.1.2 5.5.3 10.1.3 6 0 8.4-1.1 8.4-5.1 0-3.1-1.3-4.9-5.2-5.2l.1-.1zm-17.7 6.4h-9.8c-1.3 0-1.9-.4-1.9-1.3v-3.4h10.2v-3.3h-10.2v-2.7c0-.9.6-1.3 1.9-1.3h9.8l.3-3.4c-3.4-.4-7.6-.4-11.5-.4-3.2 0-5.2 1.6-5.2 4v11.5c0 2.5 2.1 4 5.2 4 3.8 0 8.1 0 11.5-.3 0 .1-.3-3.4-.3-3.4zM123 21.8h-5l-3 13.1c-.2.9-.3 1.9-.3 2.9h-.8l-.5-2.9-3.2-11.6c-.2-.9-.8-1.4-1.8-1.4h-4.3c-1 0-1.6.6-1.8 1.4l-3.1 11.6c-.3 1-.3 2-.5 3h-.8c-.1-1.1-.2-2-.3-2.9l-3-13.1h-4.9L94.3 40c.2.8.9 1.3 1.8 1.3h4.8c.9 0 1.7-.5 1.8-1.3l3.1-12.2c.2-.9.4-1.8.4-2.5h.7c.1.8.3 1.7.4 2.5l3.2 12.2c.2.8.9 1.3 1.8 1.3h4.8c.9 0 1.6-.5 1.8-1.3l4.1-18.2z" style="fill-rule:evenodd;clip-rule:evenodd;fill:#e73533"/><path d="M56.2 41.5c.1-.8 1.4-1.2 2.9-1.1 1.5.2 2.6 1 2.5 1.8-.3 3-2.2 6-4.9 8.7C34.6 71.5 3.8 40.8 29.5 22c3.6-2.6 7.9-4.4 12.3-5.1h.2c4.8-.8 9.7-.3 14.3 1.4 4 1.6 7.6 4.2 10.4 8 1.7 2.4 2.8 4.9 3.3 7.5.9 4.2.3 8.6-1.5 12.7s-4.8 8-8.9 10.9c-3.5 2.5-7.8 4.5-12.8 5.5-1.3.3-3-.1-3.8-.9-.7-.7-.3-1.6 1-1.8 4.1-.9 7.8-2.5 10.8-4.7 3.8-2.7 6.5-6.2 8.1-10.1 8-18.6-12.2-33.8-29-21.6-20.5 15.2-.5 42.4 17.9 25.3 2.5-2.3 4.1-5 4.4-7.6z" style="fill-rule:evenodd;clip-rule:evenodd;fill:#e84222"/><defs><path id="SVGID_1_" d="M16.9 47.2c.4-.3.9-.4 1.3-.2.4.1.8.4 1.1.7l.1.1c.3.4.3.9.2 1.2-.1.4-.3.8-.7 1l-.1.1-5.9 3.6c-.4.3-.9.4-1.3.2-.4-.1-.8-.4-1.1-.8-.2-.3-.3-.5-.3-.8s0-.5.2-.8l4-8.4V42.8s0-.1-.1-.1l-.1-.1H14l-10.1-.5c-.4 0-.9-.1-1.2-.3-.4-.2-.8-.4-1.1-.7-.4-.3-.6-.6-.8-1-.2-.4-.3-.8-.4-1.2-.2-.4-.2-.8-.2-1.2.1-.4.2-.9.3-1.2.2-.3.4-.7.8-1 .3-.3.6-.5 1-.7l10.3-5-2.6-4.1v-.2c-.2-.4-.4-.7-.4-1.1-.1-.4-.2-.8-.1-1.1 0-.4.1-.8.3-1.1.2-.4.3-.7.6-1.1l.1-.1c.3-.3.5-.5.8-.7.3-.2.6-.3 1-.4.4-.1.8-.2 1.1-.2.4 0 .8.1 1.1.2l5.5 1.8-3.2-9.2c-.1-.3-.2-.7-.2-1.1 0-.3 0-.8.1-1.1s.3-.7.4-1.1c.2-.3.4-.6.7-.8.3-.3.6-.4 1-.6.3-.2.7-.3 1-.3.4-.1.8-.1 1.1 0 .3.1.7.2 1 .3L32.6 13h.3c.1 0 .1 0 .1-.1l.1-.1 3.5-5.4c.2-.3.4-.6.7-.8.3-.3.5-.4.9-.6.4-.2.6-.3 1-.3.3-.1.7-.1 1 0 .4 0 .7.1 1 .3.4.1.6.3 1 .5.3.2.5.4.8.7.2.3.4.6.5.9l.8 1.8s0 .1.1.1l.1.1h.4l.1-.1c.4-.6 1-1.3 1.5-2s1-1.4 1.8-2.3c.5-.7 1.1-1.4 1.7-2.1s1.1-1.3 1.5-1.9c.3-.3.5-.5.8-.7s.6-.4 1-.5c.4-.4.8-.5 1.1-.5s.7 0 1.1.1c.3.1.7.2 1 .3.3.2.6.3.9.6.3.3.4.5.6.9.2.3.4.6.4 1l3.1 12s0 .1.1.1l.1.1s.1 0 .1.1h12.6c.4 0 .7.1 1 .2.4.1.7.3 1 .4.3.2.6.4.8.7.3.3.4.6.6 1 .2.3.3.7.3 1s.1.7 0 1.1l-.3 1.1c-.2.3-.3.6-.6 1l-2.7 3.2-.1.1v.4h.1s.1 0 .1.1l4.5 1.8c.4.2.8.4 1.1.6.3.3.6.6.8 1 .2.4.3.7.4 1.1.1.4.1.8.1 1.2s-.2.9-.3 1.2c-.2.3-.3.7-.6 1-.3.4-.6.6-1 .8-.3.2-.7.3-1.1.4l-4.5.8c-.4.1-1 0-1.3-.3-.4-.3-.6-.6-.8-1.1-.1-.4 0-1 .3-1.3.3-.3.6-.6 1.1-.7l4.5-.9s.1 0 .1-.1c0 0 .1 0 .1-.1l.1-.1V30.5s0-.1-.1-.1l-.1-.1-4.5-1.8c-.3-.1-.5-.3-.8-.4-.3-.2-.4-.3-.6-.6-.2-.3-.3-.4-.5-.8-.2-.3-.3-.5-.3-.9-.2-.2-.2-.5-.2-.8s0-.6.1-.9l.3-.9c.2-.3.3-.5.5-.8l2.7-3.2.1-.1v-.2s0-.1-.1-.1H61.9c-.4 0-.9-.1-1.2-.2-.4-.2-.8-.3-1.1-.6-.4-.3-.6-.6-.9-1-.3-.3-.4-.7-.5-1.1L55.1 3.8v-.1s0-.1-.1-.1c0 0-.1 0-.1-.1h-.5l-.1.1-1.5 1.8c-.5.7-1 1.4-1.7 2.2-.5.7-1.1 1.4-1.7 2.2-.5.7-1.1 1.4-1.5 2-.2.3-.4.5-.7.7-.3.2-.5.4-.9.5s-.6.3-1 .3c-.4.1-.7.1-1.1 0-.4 0-.7-.1-1-.3-.4-.1-.6-.3-.9-.5-.3-.2-.5-.4-.7-.7-.2-.3-.3-.5-.5-.9l-.8-1.8s0-.1-.1-.1l-.1-.1h-.4s-.1 0-.1.1c0 0 0 .1-.1.1L36 14.5c-.3.4-.6.7-1 1.1-.4.3-.8.5-1.2.6-.4.1-.9.2-1.4.1-.4 0-.9-.2-1.3-.3l-10.7-5.2H20.1s-.1 0-.1.1l-.1.1v.3l3.8 10.9c.1.2.1.3.1.4s.1.3.1.4v.4c0 .2 0 .3-.1.5l.2.6v.4c-.2.4-.4.8-.9 1-.4.2-.9.3-1.3.1l-8.2-2.7H13.3s-.1 0-.1.1v.1l-.1.1v.2s0 .1.1.1v.1l3.3 5.2c.1.2.2.3.3.4s.1.4.1.5v.6c0 .3-.1.6-.3.9-.2.3-.4.5-.7.6l-12 5.7-.1.1-.1.1v.4l.1.1.1.1H4l10.1.5c.3 0 .6.1 1 .2.3.1.6.2.9.4.3.2.5.3.7.6.2.3.4.4.6.8.2.3.3.6.4.9.1.3.2.6.2 1s0 .6-.1 1-.2.6-.3.9L16 47.8l.9-.6z"/></defs><clipPath id="SVGID_2_"><use xlink:href="#SVGID_1_" style="overflow:visible"/></clipPath><linearGradient id="SVGID_3_" gradientUnits="userSpaceOnUse" x1="163.8" y1="-12.679" x2="57.3" y2="-12.679" gradientTransform="matrix(.875 0 0 -.875 -56.681 20.625)"><stop offset="0" style="stop-color:#e73533"/><stop offset="1" style="stop-color:#fc6a37"/></linearGradient><path d="M-6.5-2.6h93.2v68.7H-6.5V-2.6z" style="clip-path:url(#SVGID_2_);fill:url(#SVGID_3_)"/><path style="fill:none" d="M89.9 46.4h196.6v18H89.9z"/><g><path class="st9" d="M94.2 49.1c.8 0 1.4.1 1.9.2s.8.3 1 .6c.2.3.3.6.3 1.1 0 .5-.1.9-.4 1.2s-.7.4-1.3.5c.7 0 1.2.2 1.5.6s.4.8.4 1.3-.1.9-.3 1.1c-.2.3-.5.5-1 .6-.5.1-1 .2-1.8.2H92c-.3 0-.7 0-1.1-.1l.2-.7h3.2c.5 0 .9 0 1.2-.1.3-.1.5-.2.6-.4.1-.2.2-.4.2-.8s-.1-.7-.2-.8c-.1-.2-.3-.3-.7-.4s-.7-.1-1.3-.1H91v-.7h3.1c.5 0 .8 0 1.1-.1s.5-.2.6-.4c.1-.2.2-.4.2-.7 0-.3-.1-.6-.2-.7-.1-.2-.3-.3-.7-.3-.3-.1-.7-.1-1.2-.1H91l-.2-.7c.3 0 .6 0 .9-.1h1c.6-.2 1.1-.2 1.5-.2zm-1.9 0v7.1h-1.2v-7.1h1.2zM103.2 49h1.1c.3 0 .6 0 .8.1.2 0 .5.1.8.1l-.1.7c-.3 0-.5 0-.8-.1h-1.8c-.6 0-1.1.1-1.5.3-.4.2-.6.5-.8.9-.2.4-.2 1-.2 1.7s.1 1.3.2 1.7c.2.4.4.7.8.9.4.2.9.3 1.5.3h1.5c.4 0 .8 0 1.2-.1l.1.7c-.4.1-.8.1-1.2.2-.4 0-1 .1-1.6.1-.9 0-1.7-.1-2.2-.4-.6-.2-1-.6-1.2-1.1-.2-.5-.4-1.2-.4-2.1s.1-1.6.4-2.1c.2-.5.6-.9 1.2-1.2.5-.5 1.3-.6 2.2-.6zM109.5 49.1h4.1l-.1.7h-3.9c-.3 0-.5.1-.6.2-.1.1-.2.3-.2.5v4.2c0 .2.1.4.2.5.1.1.3.2.6.2h3.9l.1.7h-4.1c-.6 0-1-.1-1.4-.3-.3-.2-.5-.5-.5-.9v-4.6c0-.4.2-.7.5-.9.4-.2.9-.3 1.4-.3zm-1.6 3h5.2v.7h-5.2v-.7zm1.9-4.8c.2 0 .3.1.3.2v.6c0 .2-.1.2-.3.2h-.4c-.2 0-.3-.1-.3-.2v-.6c0-.2.1-.2.3-.2h.4zm2.4 0c.2 0 .3.1.3.2v.6c0 .2-.1.2-.3.2h-.4c-.2 0-.3-.1-.3-.2v-.6c0-.2.1-.2.3-.2h.4zM116.2 55c.2 0 .3 0 .3.1.1 0 .1.1.1.3v.6c0 .2 0 .4-.1.6s-.1.4-.2.5-.2.3-.3.5l-.6-.1c0-.2.1-.4.1-.6v-.6c-.2 0-.3-.1-.3-.3v-.6c0-.1.1-.2.1-.3s.2-.1.3-.1h.6zM125.6 49.1v2.7c0 .3.1.6.3.7s.6.2 1.1.2c.4 0 .7 0 1-.1.3 0 .6-.1 1-.2.3-.1.7-.2 1.1-.4l.1.6c-.4.2-.8.3-1.3.4-.4.1-.8.2-1.2.2-.4.1-.8.1-1.1.1-.7 0-1.3-.1-1.6-.4-.4-.3-.5-.7-.5-1.2v-2.9h1.1zm5.4 0v7.1h-1.2v-7.1h1.2zM140 49.1v.8h-7.5v-.8h7.5zm-3.1 0v7.1h-1.2v-7.1h1.2zM144.8 49c.7 0 1.3.1 1.8.2s.9.3 1.2.6c.3.3.5.7.6 1.1.1.5.2 1 .2 1.7s-.1 1.3-.2 1.7c-.1.5-.3.8-.6 1.1-.3.3-.7.5-1.2.6-.5.1-1.1.2-1.8.2s-1.3-.1-1.8-.2-.9-.3-1.2-.6c-.3-.3-.5-.7-.7-1.1-.1-.5-.2-1-.2-1.7s.1-1.3.2-1.7c.1-.5.4-.8.7-1.1.3-.3.7-.5 1.2-.6.5-.1 1.1-.2 1.8-.2zm0 .8c-.6 0-1.1.1-1.5.3-.4.2-.6.5-.8.9-.2.4-.2 1-.2 1.7s.1 1.3.2 1.7c.2.4.4.7.8.9s.9.3 1.5.3 1.1-.1 1.5-.3.6-.5.8-.9c.2-.4.2-1 .2-1.7s-.1-1.3-.2-1.7-.4-.7-.8-.9c-.3-.2-.8-.3-1.5-.3zM157.9 49.1v7.1h-1.2v-7.1h1.2zm4.6 2.9v.8h-4.7V52h4.7zm1.1-2.9v7.1h-1.2v-7.1h1.2zM166.3 49.1l1.9 4.1c.1.1.2.2.3.2h.7l.2.8h-1.2c-.3 0-.5 0-.6-.1-.2-.1-.3-.2-.3-.4l-2.2-4.5h1.2zm6.2 0-2.6 5.3c-.2.3-.3.6-.5.9s-.4.5-.7.7c-.3.2-.6.3-1 .3h-.6c-.2 0-.4 0-.6-.1s-.4-.1-.6-.1l.1-.7h1.1c.3 0 .5 0 .6-.1.2-.1.3-.2.4-.3.1-.1.2-.4.4-.6l.3-.6.1-.3 2.1-4.4h1.5zM174.6 49.1l.6 1.2c.2.4.4.7.6 1 .2.3.5.5.7.6.3.2.6.2 1 .2v.7c-.4 0-.8.1-1 .2-.3.1-.5.4-.8.6-.2.3-.4.6-.7 1-.2.4-.5.9-.7 1.4H173c.2-.4.4-.9.6-1.2.2-.4.4-.7.5-1 .2-.3.4-.5.6-.7.2-.2.5-.4.7-.5s.6-.2 1-.2c-.3 0-.6-.1-.9-.2s-.5-.3-.7-.5c-.2-.2-.4-.4-.6-.7-.2-.3-.3-.6-.5-.9-.2-.3-.3-.7-.5-1.1h1.4zm4.2 3.1v.7h-1.6v-.7h1.6zm.8-3.1V51.9c0 .2-.1.4-.1.6.1.2.1.4.1.6v3.2h-1.2v-2.6c0-.2 0-.4.1-.6s.1-.4.1-.6c-.1-.2-.1-.4-.1-.6V49.1h1.1zm1.3 3.1v.7h-1.5v-.7h1.5zm3.8-3.1c-.2.4-.3.7-.5 1.1s-.3.6-.5.9c-.2.3-.4.5-.6.7-.2.2-.4.4-.7.5s-.6.2-.9.2c.4 0 .7.1 1 .2s.5.3.7.5.4.5.6.7c.2.3.4.6.5 1l.6 1.2h-1.3c-.3-.5-.5-1-.7-1.4-.2-.4-.4-.8-.7-1-.2-.3-.5-.5-.8-.6-.3-.1-.6-.2-1-.2v-.7c.4 0 .7-.1 1-.2.3-.2.5-.4.7-.6.2-.3.4-.6.6-1l.6-1.2h1.4zM187.8 49.1v7.1h-1.2v-7.1h1.2zm4.6 2.9v.8h-4.7V52h4.7zm1.1-2.9v7.1h-1.2v-7.1h1.2zM199.4 49c.7 0 1.3.1 1.8.2s.9.3 1.2.6c.3.3.5.7.6 1.1.1.5.2 1 .2 1.7s-.1 1.3-.2 1.7c-.1.5-.3.8-.6 1.1-.3.3-.7.5-1.2.6-.5.1-1.1.2-1.8.2s-1.3-.1-1.8-.2-.9-.3-1.2-.6c-.3-.3-.5-.7-.7-1.1-.1-.5-.2-1-.2-1.7s.1-1.3.2-1.7c.1-.5.4-.8.7-1.1.3-.3.7-.5 1.2-.6.5-.1 1.1-.2 1.8-.2zm0 .8c-.6 0-1.1.1-1.5.3-.4.2-.6.5-.8.9-.2.4-.2 1-.2 1.7s.1 1.3.2 1.7c.2.4.4.7.8.9.4.2.9.3 1.5.3s1.1-.1 1.5-.3c.4-.2.6-.5.8-.9.2-.4.2-1 .2-1.7s-.1-1.3-.2-1.7c-.2-.4-.4-.7-.8-.9-.4-.2-.9-.3-1.5-.3zM219.2 55.5v.7h-8.9v-.7h8.9zm-7.9.6-.1 1.6h-.9v-1.6h1zm6.8-7v7.1h-1.2v-6.3h-2c-.3 0-.6.1-.8.2-.2.1-.2.3-.3.6 0 .5-.1.9-.1 1.3s-.1.8-.2 1.2c-.1.4-.2.7-.4 1.1-.1.4-.3.7-.5 1-.2.3-.4.7-.7 1h-1.1c.5-.6.8-1.2 1.1-1.8.3-.6.5-1.3.6-1.9.1-.7.2-1.3.3-2 0-.4.2-.7.5-1 .3-.2.8-.3 1.4-.3h3.4zm1.1 7v1.6h-.9l-.1-1.6h1zM227.4 49.1v.7h-3c-.6 0-1 .2-1 .7-.1.6-.1 1.1-.2 1.6-.1.4-.1.8-.2 1.1-.1.3-.2.6-.2.9-.1.2-.2.5-.4.7-.2.3-.4.5-.6.7s-.5.4-.8.5c-.3.1-.6.2-1 .2l-.1-.7c.3-.1.6-.2.8-.3.2-.1.4-.3.6-.6.1-.2.2-.4.3-.5.1-.2.1-.4.2-.6.1-.2.1-.5.2-.7.1-.3.1-.6.1-1s.1-.8.2-1.3c.1-.9.8-1.3 1.9-1.3h3.2zm.2 0v7.1h-1.2v-7.1h1.2zM232.9 49.1h2.3c.3 0 .6 0 1 .1l-.2.7h-3.1c-.4 0-.8 0-1.1.1-.3.1-.5.2-.6.4-.1.2-.2.5-.2.8 0 .3.1.6.2.8.1.2.3.4.6.5.3.1.6.2 1.1.2h3.1v.7h-3.3c-.3 0-.6.1-.8.2s-.4.3-.5.6l-.8 2.1h-1.3l.9-2.2c.1-.2.2-.4.3-.5.1-.1.3-.2.5-.3s.3-.1.5-.2V53c-.4 0-.8-.2-1-.3-.3-.2-.5-.4-.6-.6-.1-.3-.2-.6-.2-.9 0-.5.1-.9.3-1.2s.5-.5 1-.7c.6-.2 1.2-.2 1.9-.2zm3.3 0v7.1H235v-7.1h1.2zM247.9 49h1.1c.3 0 .6 0 .8.1.2 0 .5.1.8.1l-.1.7c-.3 0-.5 0-.8-.1s-.5 0-.8 0h-1c-.6 0-1.1.1-1.5.3-.4.2-.6.5-.8.9-.2.4-.2 1-.2 1.7s.1 1.3.2 1.7c.2.4.4.7.8.9s.9.3 1.5.3h1.5c.4 0 .8 0 1.2-.1l.1.7c-.4.1-.8.1-1.2.2-.4 0-1 .1-1.6.1-.9 0-1.7-.1-2.2-.4-.6-.2-1-.6-1.2-1.1-.2-.5-.4-1.2-.4-2.1s.1-1.6.4-2.1c.2-.5.6-.9 1.2-1.2.6-.5 1.3-.6 2.2-.6zM256.3 49.1c.1 0 .2 0 .3.1.1 0 .1.1.2.2l3.1 6.8h-1.3l-2.5-5.8c0-.1-.1-.2-.1-.3s-.1-.2-.1-.3h-.4c0 .1-.1.2-.1.3s-.1.2-.1.3l-2.5 5.8h-1.3l3.1-6.8c0-.1.1-.1.2-.2.1 0 .2-.1.3-.1h1.2zm1.8 4.1v.8h-4.9v-.8h4.9zM268.4 49.1v7.1h-1.2v-5.5c0-.1 0-.3.1-.4h-.1c-.1.1-.1.3-.2.4-.1.1-.2.3-.3.4l-4.3 5.2h-1.3v-7.1h1.2v5.9h.1c.1-.1.2-.3.3-.4.1-.1.2-.3.3-.4l4.2-5.2h1.2zm-2.3-1.9h.9c0 .3 0 .5-.2.7-.2.2-.4.4-.7.5-.3.1-.7.2-1.2.2-.4 0-.8-.1-1.2-.2-.3-.1-.6-.3-.7-.5-.2-.2-.2-.4-.2-.7h.9c0 .3.1.5.3.7s.5.2.9.2.7-.1.9-.2c.2-.2.3-.4.3-.7zM277.5 49.1v.8H270v-.8h7.5zm-3.2 0v7.1h-1.2v-7.1h1.2zM282.8 49.1c.1 0 .2 0 .3.1.1 0 .1.1.2.2l3.1 6.8h-1.3l-2.5-5.8c0-.1-.1-.2-.1-.3s-.1-.2-.1-.3h-.4c0 .1-.1.2-.1.3s-.1.2-.1.3l-2.5 5.8H278l3.1-6.8c0-.1.1-.1.2-.2.1 0 .2-.1.3-.1h1.2zm1.8 4.1v.8h-4.9v-.8h4.9z"/></g></svg>