<svg version="1.1" id="Слой_1" xmlns="http://www.w3.org/2000/svg" x="0" y="0" viewBox="0 0 818 37" style="enable-background:new 0 0 818 37" xml:space="preserve" height="37" width="818"><style>.st4{fill-rule:evenodd;clip-rule:evenodd;fill:#4db45e}.st10{fill:#009ddd}</style><g id="Слой_2_1_"><path d="M38.7 3.7 34 32.8h7.5l4.7-29.1h-7.5zm22.6 11.9c-2.6-1.3-4.2-2.2-4.2-3.5 0-1.2 1.3-2.4 4.3-2.4 2.4-.1 4.2.5 5.6 1.1l.7.3 1-6.1c-1.5-.6-3.8-1.2-6.7-1.2-7.4 0-12.6 3.8-12.6 9.3-.1 4.1 3.7 6.3 6.6 7.6 2.9 1.4 3.9 2.3 3.9 3.5 0 1.9-2.3 2.8-4.5 2.8-3 0-4.6-.5-7-1.5l-1-.5-1 6.3c1.8.8 5 1.5 8.3 1.5 7.8 0 13-3.8 13-9.6-.1-3.2-2.1-5.6-6.4-7.6zM87.8 3.8H82c-1.8 0-3.1.5-3.9 2.3L67 32.8h7.8L77 27h8.8l1.1 5.8h6.9l-6-29zm-8.6 17.4c.2 0 3-9.4 3-9.4l2.3 9.4h-5.3zM27.8 3.7l-7.3 19.8-.8-3.9c-1.4-4.5-5.6-9.4-10.3-11.8l6.7 25H24L35.7 3.7h-7.9z" style="fill:#2394bc"/><path d="M17.2 7.5c-.6-2.2-2.4-3.7-4.9-3.8H.7l-.1.6c9.1 2.2 16.6 9.1 19.1 15.6L17.2 7.5z" style="fill:#efc75e"/></g><path id="Слой_5" d="M713.7 24c.1.6-.1.9-.3.9s-.5-.3-.8-.8-.5-1.1-.3-1.4c.1-.2.3-.3.6-.2.5.3.8 1.1.8 1.5zm-3 1.4c.7.5.8 1.2.5 1.7-.2.3-.5.4-.9.4s-.8-.1-1-.4c-.6-.5-.8-1.4-.4-1.8.2-.2.4-.3.7-.3.4 0 .8.1 1.1.4zm-1.1 5.4c2.8 0 5.9 1 9.2 4 .3.3.8-.1.5-.5-3.3-4.2-6.4-5-9.4-5.7-3.8-.8-5.7-2.9-7-5.2-.3-.5-.4-.4-.4.2 0 .7 0 1.7.2 2.6h-.5c-5.3 0-9.7-4.3-9.7-9.7s4.3-9.7 9.7-9.7 9.7 4.3 9.7 9.7c0 .4 0 .8-.1 1.1-.7-.1-2.1-.1-3.1-.1-.4 0-.3.2 0 .3 3.2.6 5.4 2.6 5.9 6.2 0 .1.1.1.2 0 1.4-2.3 2.1-4.9 2.1-7.5 0-8.1-6.6-14.6-14.7-14.6s-14.7 6.6-14.7 14.6 6.6 14.6 14.7 14.6c2.2.1 4.3-.3 7.4-.3z" style="fill:#ff8c00"/><g id="Слой_6"><path id="Combined-Shape" d="M622 1.9c2.6 0 5.1.6 7.3 1.7.3.2.7.3 1 .5l-1.5 1.4-2.3-2.4-4 3.5-2.3-2.5-7.3 6.4 4.7 5.1-1.8 1.6 4.6 5.1-1.8 1.6 6.6 7.2 3.9-3.5 3.4 3.8c-.7.5-1.4 1-2.2 1.4-2.5 1.4-5.3 2.1-8.2 2.1-9.2 0-16.7-7.4-16.7-16.5-.1-9.1 7.4-16.5 16.6-16.5zm-3.1 15.5 4-3.5 3.6 3.9-4 3.5-3.6-3.9zm2.9 6.8 4-3.6 3.6 3.9-4 3.5c-.1.1-3.6-3.8-3.6-3.8zm-5.7-13.6 4-3.5 3.6 3.9-4 3.5-3.6-3.9zm7.3-1.9 3-2.7 2.6 3-3 2.7-2.6-3zm5.3 12.2 3-2.6 2.7 3-3 2.6-2.7-3zm2.6 5.9 3-2.6 2.7 2.9-3 2.7-2.7-3zm1.2-13.6 2-1.8 1.8 1.9-2 1.8c0 .1-1.8-1.9-1.8-1.9zM630 7.4l2-1.8 1.8 2-2 1.8-1.8-2zm5 11.6 2-1.8 1.8 2-2 1.8-1.8-2zm-8.9-4.3 3-2.7 2.7 2.9-3 2.6-2.7-2.8z" style="fill:#036cb5"/></g><g id="Слой_7"><g id="g5"><path id="path7" class="st4" d="M382.5 6.1s-3.5 0-4.4 3.3c-.9 3.1-3.2 11.5-3.3 11.7h-.7s-2.5-8.6-3.3-11.7c-.9-3.3-4.4-3.3-4.4-3.3h-8v25.3h8v-15h.6l4.6 15h5.5l4.6-15h.7v15h8V6.1h-7.9z"/></g><g id="g9"><path id="path11" class="st4" d="M411.6 6.1s-2.3.2-3.4 2.7l-5.6 12.4h-.7v-15h-8v25.3h7.5s2.4-.2 3.5-2.6l5.5-12.4h.7v15h8V6.1h-7.5z"/></g><g id="g13"><path id="path15" class="st4" d="M422.6 17.6v13.8h8v-8.1h8.6c3.8 0 7-2.4 8.1-5.8h-24.7z"/></g><g id="g17"><linearGradient id="path24_1_" gradientUnits="userSpaceOnUse" x1="421.51" y1="1053.315" x2="447.85" y2="1053.315" gradientTransform="translate(0 -1042)"><stop offset=".3" style="stop-color:#00b4e6"/><stop offset="1" style="stop-color:#088ccb"/></linearGradient><path id="path24" d="M439.2 6.1h-17.7c.9 4.8 4.5 8.7 9.2 9.9 1.1.3 2.2.4 3.3.4h13.6c.1-.6.2-1.2.2-1.8 0-4.6-3.8-8.5-8.6-8.5z" style="fill-rule:evenodd;clip-rule:evenodd;fill:url(#path24_1_)"/></g></g><g id="Слой_8"><path d="M157.9 34.6v-2.2c0-.8-.5-1.4-1.3-1.4-.4 0-.9.1-1.2.6-.2-.4-.6-.6-1.2-.6-.4 0-.8.2-1.1.5v-.4h-.7v3.5h.7v-2c0-.6.4-.9.9-.9s.8.3.8.9v2h.7v-2c0-.6.4-.9.9-.9s.8.3.8.9v2h.7zm11.3-3.5h-1.3v-1h-.7v1h-.7v.6h.7v1.6c0 .8.3 1.3 1.2 1.3.3 0 .6-.1.9-.2l-.2-.6c-.2.1-.4.2-.6.2-.4 0-.5-.2-.5-.6v-1.7h1.3l-.1-.6zm6.5-.1c-.4 0-.7.2-.9.5v-.4h-.8v3.5h.7v-2c0-.6.3-.9.8-.9.2 0 .3 0 .5.1l.2-.6c-.2-.1-.4-.2-.5-.2zm-9.8.4c-.4-.2-.9-.4-1.4-.4-.9 0-1.4.4-1.4 1.1 0 .6.4.9 1.2 1h.4c.4.1.6.2.6.4s-.3.4-.8.4c-.4 0-.8-.1-1.2-.4l-.4.5c.5.4 1.1.4 1.5.4 1 0 1.6-.5 1.6-1.1 0-.6-.4-.9-1.2-1h-.4c-.3 0-.6-.2-.6-.4s.3-.4.7-.4c.4 0 .9.2 1.1.3-.1.1.3-.4.3-.4zm10.5 1.4c0 1 .7 1.8 1.8 1.8.5 0 .9-.1 1.2-.4l-.4-.5c-.3.2-.6.3-.9.3-.6 0-1.1-.5-1.1-1.2s.5-1.2 1.1-1.2c.3 0 .6.1.9.3l.4-.5c-.4-.3-.7-.4-1.2-.4-1 0-1.8.8-1.8 1.8zm-4.8-1.8c-1 0-1.7.7-1.7 1.8s.7 1.8 1.8 1.8c.5 0 1-.2 1.4-.5l-.4-.5c-.3.2-.6.3-1 .4-.5 0-1-.3-1.1-.9h2.6v-.3c0-1-.7-1.8-1.6-1.8zm-.1.7c.5 0 .9.3.9.9h-1.9c.2-.6.5-.9 1-.9zm-9.4 1.1v-1.7h-.7v.4c-.2-.3-.6-.5-1.1-.5-1 0-1.7.8-1.7 1.8s.7 1.8 1.7 1.8c.5 0 .9-.2 1.1-.5v.4h.7v-1.7zm-2.8 0c0-.7.4-1.2 1.1-1.2.6 0 1.1.5 1.1 1.2s-.4 1.2-1.1 1.2c-.7 0-1.1-.5-1.1-1.2zm26.9-1.8c-.4 0-.7.2-.9.5v-.4h-.7v3.5h.7v-2c0-.6.3-.9.8-.9.2 0 .3 0 .5.1l.2-.6c-.3-.1-.5-.2-.6-.2zm-2.7 1.8v-1.7h-.7v.4c-.2-.3-.6-.5-1.1-.5-1 0-1.7.8-1.7 1.8s.7 1.8 1.7 1.8c.5 0 .9-.2 1.1-.5v.4h.7v-1.7zm-2.8 0c0-.7.4-1.2 1.1-1.2.6 0 1.1.5 1.1 1.2s-.4 1.2-1.1 1.2c-.7 0-1.1-.5-1.1-1.2zm9.8 0v-3.1h-.7v1.8c-.2-.3-.6-.5-1.1-.5-1 0-1.7.8-1.7 1.8s.7 1.8 1.7 1.8c.5 0 .9-.2 1.1-.5v.4h.7v-1.7zm-2.8 0c0-.7.4-1.2 1.1-1.2.6 0 1.1.5 1.1 1.2s-.4 1.2-1.1 1.2c-.7 0-1.1-.5-1.1-1.2z" style="fill:#ccc"/><path d="M165.1 4.7h12.6v20.6h-12.6V4.7z" style="fill:#ff5f00"/><path d="M166.4 14.9c0-4 1.8-7.8 5-10.3-5.7-4.5-13.9-3.5-18.4 2.2s-3.5 13.9 2.2 18.4c4.7 3.7 11.4 3.7 16.2 0-3.2-2.5-5-6.2-5-10.3z" style="fill:#eb001b"/><path d="M192.5 14.9c0 7.2-5.8 13.1-13.1 13.1-2.9 0-5.8-1-8.1-2.8 5.7-4.5 6.6-12.7 2.1-18.4-.6-.8-1.4-1.5-2.1-2.2 5.7-4.5 13.9-3.5 18.3 2.2 1.9 2.4 2.9 5.2 2.9 8.1z" style="fill:#f79e1b"/></g><g id="Слой_9"><path class="st10" d="M277.8 30.5c3.3-3 5.4-7.3 5.4-12.1s-2.1-9.1-5.4-12.1c-3-2.7-6.9-4.2-10.9-4.2-9 0-16.4 7.3-16.4 16.3s7.3 16.3 16.4 16.3c4.2 0 8.1-1.6 10.9-4.2z"/><path class="st10" d="M277.8 30.5c3.3-3 5.4-7.3 5.4-12.1s-2.1-9.1-5.4-12.1v24.2z"/><path d="M288.8 2c-4.2 0-8.1 1.6-11 4.2-.6.5-1.1 1.1-1.6 1.7h3.3c.4.5.9 1.2 1.2 1.7H275c-.4.6-.7 1.1-1 1.7h7.7c.3.6.5 1.1.7 1.7h-9.1c-.2.6-.3 1.1-.5 1.8h10c.2 1.1.3 2.3.3 3.5 0 1.8-.3 3.5-.8 5.2h-9.1c.2.6.4 1.1.7 1.7h7.7c-.3.6-.6 1.2-.9 1.7H275c.4.6.8 1.2 1.2 1.7h3.3c-.5.6-1.1 1.2-1.7 1.7 2.9 2.6 6.8 4.2 11 4.2 9 0 16.3-7.3 16.3-16.3 0-8.9-7.3-16.2-16.3-16.2z" style="fill:#ed1c2e"/><path d="M299.5 21.9c0-.3.3-.5.5-.5.3 0 .5.2.5.5s-.2.5-.5.5c-.2 0-.5-.2-.5-.5zm.5.4c.2 0 .4-.2.4-.4s-.2-.4-.4-.4-.4.2-.4.4.2.4.4.4zm0-.2h-.1v-.5H300.2l.1.1c0 .1 0 .1-.1.1l.1.2h-.1l-.1-.2h-.1v.3zm0-.3h.1v-.1l-.1.1zm-35.1.6h-2L264 16l-2.8 6.4h-1.9l-.3-6.3-1.2 6.3H256l1.6-8.3h3.2l.2 5.1 2.2-5.1h3.3l-1.6 8.3zm22.7-.1c-.6.2-1 .2-1.5.2-1 0-1.6-.5-1.6-1.5 0-.2 0-.4.1-.6l.1-.7.1-.5.9-5.1h2l-.3 1.5h1l-.3 1.6H287l-.5 2.8c0 .1-.1.2-.1.3 0 .4.2.5.7.5.2 0 .4 0 .5-.1v1.6zm5.9-6.6-.2-.1c-.1 0-.2 0-.2-.1h-.2c-.7 0-1.2.3-1.8 1.1l.2-1h-1.9l-1.2 6.8h2c.7-4.1 1-4.9 2-4.9h.3l.2.1.8-1.9zm-14 2.1c0 .8.5 1.4 1.6 1.9.8.4 1 .5 1 .8 0 .4-.4.6-1.2.6-.6 0-1.2-.1-1.9-.3l-.3 1.6h.1l.4.1h.5c.5.1.9.1 1.1.1 2.1 0 3.2-.7 3.2-2.2 0-.9-.4-1.5-1.5-1.9-.9-.3-1-.4-1-.7 0-.4.4-.5 1-.5.4 0 1 0 1.5.1l.3-1.5c-.5-.1-1.3-.1-1.8-.1-2.2-.3-3 .8-3 2zm-8.1 4.6h-1.7v-.7c-.5.5-1.2.8-2.1.8-1.1 0-1.8-.7-1.8-1.8 0-1.6 1.3-2.6 3.6-2.6h.8c.1-.2.1-.3.1-.4 0-.5-.3-.6-1.3-.6-.6 0-1.2.1-1.7.2l-.3.1h-.2l.3-1.5c1-.3 1.7-.4 2.4-.4 1.8 0 2.6.7 2.6 2 0 .4 0 .6-.2 1.3l-.4 2.4-.1.4-.1.3v.2l.1.3zm-1.4-3h-.4c-1.2 0-1.7.4-1.7 1 0 .4.2.7.7.7.7 0 1.3-.7 1.4-1.7zm8.1 2.9c-.7.2-1.4.3-2.1.3-2.3 0-3.4-1.1-3.4-3 0-2.3 1.5-4 3.6-4 1.7 0 2.7 1 2.7 2.4 0 .5-.1 1-.2 1.7h-4.1v.2c0 .8.6 1.2 1.8 1.2.7 0 1.4-.1 2.1-.4 0-.1-.4 1.6-.4 1.6zm-1.1-4v-.4c0-.5-.4-.9-1-.9s-1.1.5-1.3 1.2l2.3.1zm22.8 1.1c-.3 2.2-1.9 3.2-4 3.2-2.3 0-3.2-1.4-3.2-3.1 0-2.4 1.6-4 4-4 2.1 0 3.2 1.3 3.2 3 .1.4.1.5 0 .9zm-2.1-.9c0-.7-.3-1.3-1.1-1.3-1 0-1.7 1.2-1.7 2.3 0 .9.4 1.5 1.1 1.5.5 0 1.4-.6 1.6-1.6.1-.3.1-.6.1-.9z" style="fill:#fff"/></g><path d="M801.5 1.9c-9.2 0-16.5 7.4-16.5 16.5 0 9.2 7.4 16.5 16.5 16.5S818 27.5 818 18.4s-7.4-16.5-16.5-16.5zm0 22.6c-3.3 0-6.2-2.8-6.2-6.2s2.8-6.2 6.2-6.2c3.3 0 6.2 2.8 6.2 6.2-.1 3.4-2.9 6.2-6.2 6.2zM784.9 6.7v24H779l-7.5-24h13.4z" style="fill:#8b3ffd" id="Слой_10"/><g id="Слой_11"><path d="m507.4 9.4 4 7.1v4.3l-4 7.1V9.4z" style="fill:#5b57a2"/><path d="m522.6 13.9 3.7-2.3h7.6l-11.3 6.9v-4.6z" style="fill:#d90751"/><path d="M522.6 9.3v9.4l-4-2.5v-14l4 7.1z" style="fill:#fab718"/><path d="M534 11.6h-7.6l-3.7-2.3-4-7.1 15.3 9.4z" style="fill:#ed6f26"/><path d="M522.6 27.9v-4.6l-4-2.4V35c0 .1 4-7.1 4-7.1z" style="fill:#63b22f"/><path d="m526.3 25.7-15-9.2-4-7.1 26.6 16.3h-7.6z" style="fill:#1487c9"/><path d="m518.6 35 4-7.1 3.7-2.3h7.6L518.6 35z" style="fill:#017f36"/><path d="m507.4 27.9 11.3-6.9-3.8-2.3-3.5 2.2-4 7z" style="fill:#984995"/></g></svg>