<svg xmlns="http://www.w3.org/2000/svg" xmlns:xlink="http://www.w3.org/1999/xlink" width="127" height="38" viewBox="0 0 127 38" class="logoTiendas"><defs><clipPath id="clip-path"><rect id="Rect\xE1ngulo_2658" data-name="Rect\xE1ngulo 2658" width="127" height="38" transform="translate(-0.218)" fill="none"></rect></clipPath><clipPath id="clip-path-3"><path id="Trazado_5686" data-name="Trazado 5686" d="M10.411,7.536A1.877,1.877,0,0,0,9.97,8.849V29.606a1.819,1.819,0,0,0,.441,1.314l.066.075L22.1,19.368v-.282L10.476,7.47Z" transform="translate(-9.966 -7.47)" fill="none"></path></clipPath><linearGradient id="linear-gradient" x1="-0.11" y1="1.25" x2="-0.073" y2="1.25" gradientUnits="objectBoundingBox"><stop offset="0" stop-color="#00a0ff"></stop><stop offset="0.01" stop-color="#00a1ff"></stop><stop offset="0.26" stop-color="#00beff"></stop><stop offset="0.51" stop-color="#00d2ff"></stop><stop offset="0.76" stop-color="#00dfff"></stop><stop offset="1" stop-color="#00e3ff"></stop></linearGradient><clipPath id="clip-path-4"><path id="Trazado_5687" data-name="Trazado 5687" d="M22.9,19.6v.282l3.847,3.875.1-.047L31.439,21.1c1.314-.751,1.314-1.971,0-2.712l-4.607-2.609-.084-.056Z" transform="translate(-22.9 -15.72)" fill="none"></path></clipPath><linearGradient id="linear-gradient-2" x1="-2.181" y1="2.836" x2="-2.086" y2="2.836" gradientUnits="objectBoundingBox"><stop offset="0" stop-color="#ffe000"></stop><stop offset="0.41" stop-color="#ffbd00"></stop><stop offset="0.78" stop-color="orange"></stop><stop offset="1" stop-color="#ff9c00"></stop></linearGradient><clipPath id="clip-path-5"><path id="Trazado_5688" data-name="Trazado 5688" d="M10.44,31.692a1.519,1.519,0,0,0,1.942.066l13.71-7.8L22.132,20Z" transform="translate(-10.44 -20)" fill="none"></path></clipPath><linearGradient id="linear-gradient-3" x1="-0.395" y1="1.141" x2="-0.347" y2="1.141" gradientUnits="objectBoundingBox"><stop offset="0" stop-color="#ff3a44"></stop><stop offset="1" stop-color="#c31162"></stop></linearGradient><clipPath id="clip-path-6"><path id="Trazado_5689" data-name="Trazado 5689" d="M10.44,7.515,22.132,19.207l3.96-3.96L12.382,7.459a1.51,1.51,0,0,0-1.942.056" transform="translate(-10.44 -7.132)" fill="none"></path></clipPath><linearGradient id="linear-gradient-4" x1="-0.399" y1="1.761" x2="-0.351" y2="1.761" gradientUnits="objectBoundingBox"><stop offset="0" stop-color="#32a071"></stop><stop offset="0.07" stop-color="#2da771"></stop><stop offset="0.48" stop-color="#15cf74"></stop><stop offset="0.8" stop-color="#06e775"></stop><stop offset="1" stop-color="#00f076"></stop></linearGradient><clipPath id="clip-path-8"><rect id="Rect\xE1ngulo_2649" data-name="Rect\xE1ngulo 2649" width="15.652" height="8.197" fill="none"></rect></clipPath><clipPath id="clip-path-9"><rect id="Rect\xE1ngulo_2650" data-name="Rect\xE1ngulo 2650" width="0.512" height="1.454" fill="none"></rect></clipPath><clipPath id="clip-path-10"><rect id="Rect\xE1ngulo_2651" data-name="Rect\xE1ngulo 2651" width="5.687" height="3.96" fill="none"></rect></clipPath><clipPath id="clip-path-11"><rect id="Rect\xE1ngulo_2652" data-name="Rect\xE1ngulo 2652" width="21.667" height="12.068" fill="none"></rect></clipPath></defs><g id="Grupo_5798" data-name="Grupo 5798" transform="translate(0.319)"><g id="Grupo_5797" data-name="Grupo 5797" transform="translate(-0.102)" clip-path="url(#clip-path)"><g id="Grupo_5774" data-name="Grupo 5774"><g id="Grupo_5773" data-name="Grupo 5773" clip-path="url(#clip-path)"><path id="Trazado_5683" data-name="Trazado 5683" d="M4.692,0h117.3a4.692,4.692,0,0,1,4.692,4.692V32.843a4.692,4.692,0,0,1-4.692,4.692H4.692A4.692,4.692,0,0,1,0,32.843V4.692A4.692,4.692,0,0,1,4.692,0" transform="translate(0.103)"></path><path id="Trazado_5684" data-name="Trazado 5684" d="M121.988.751a3.941,3.941,0,0,1,3.941,3.941V32.843a3.941,3.941,0,0,1-3.941,3.941H4.692A3.941,3.941,0,0,1,.751,32.843V4.692A3.941,3.941,0,0,1,4.692.751Zm0-.751H4.692A4.692,4.692,0,0,0,0,4.692V32.843a4.692,4.692,0,0,0,4.692,4.692h117.3a4.692,4.692,0,0,0,4.692-4.692V4.692A4.692,4.692,0,0,0,121.988,0" transform="translate(0.103)" fill="#a6a6a6"></path><path id="Trazado_5685" data-name="Trazado 5685" d="M66.459,21.46a4,4,0,1,0,4.007,3.988,3.931,3.931,0,0,0-3.875-3.988h-.132m0,6.409a2.421,2.421,0,1,1,2.246-2.584q.006.082.006.163a2.308,2.308,0,0,1-2.192,2.419l-.06,0M57.714,21.46a4,4,0,1,0,4.007,3.988,3.931,3.931,0,0,0-3.875-3.988h-.132m0,6.409a2.421,2.421,0,1,1,2.246-2.584q.006.082.006.163a2.308,2.308,0,0,1-2.192,2.419l-.06,0m-10.4-5.18v1.689H51.37a3.537,3.537,0,0,1-.938,2.13A4.145,4.145,0,0,1,47.3,27.747a4.5,4.5,0,1,1,0-9.008,4.354,4.354,0,0,1,3.078,1.21l1.192-1.192a5.911,5.911,0,0,0-4.251-1.708,6.2,6.2,0,1,0-.482,12.4c.16.007.322.007.482,0a5.7,5.7,0,0,0,4.326-1.736,5.63,5.63,0,0,0,1.464-3.969,5.889,5.889,0,0,0-.084-1.051ZM89.834,24a3.678,3.678,0,0,0-7.177,1.2c0,.081,0,.161.008.242a3.969,3.969,0,0,0,7.282,2.224l-1.361-.938a2.262,2.262,0,0,1-1.961,1.1,2.017,2.017,0,0,1-1.933-1.21l5.339-2.205Zm-5.443,1.332A2.2,2.2,0,0,1,86.44,23l.044,0a1.539,1.539,0,0,1,1.473.854ZM80.056,29.2h1.755V17.472H80.056Zm-2.871-6.85h-.066a2.757,2.757,0,0,0-2.1-.938,4,4,0,0,0,0,7.985,2.7,2.7,0,0,0,2.1-.938h.066v.572c0,1.53-.816,2.346-2.13,2.346a2.214,2.214,0,0,1-2.017-1.417l-1.52.629a3.754,3.754,0,0,0,3.538,2.365c2.055,0,3.753-1.21,3.753-4.157v-7.1H77.185Zm-2.017,5.518a2.421,2.421,0,0,1,0-4.833,2.243,2.243,0,0,1,2.144,2.337c0,.024,0,.05,0,.074a2.233,2.233,0,0,1-2.036,2.414c-.034,0-.069.006-.1.007m22.887-10.4h-4.2V29.2h1.755V24.754h2.449a3.65,3.65,0,1,0,.523-7.282,3.737,3.737,0,0,0-.523,0m0,5.63H95.605v-4h2.487a2.008,2.008,0,0,1,0,4.016Zm10.829-1.68a3.275,3.275,0,0,0-3.125,1.792l1.548.647a1.67,1.67,0,0,1,1.6-.854,1.69,1.69,0,0,1,1.874,1.482l0,.029v.113a3.921,3.921,0,0,0-1.83-.45c-1.67,0-3.378.938-3.378,2.646a2.713,2.713,0,0,0,2.832,2.586l.086-.006a2.486,2.486,0,0,0,2.233-1.145h.056V29.2h1.689V24.688c0-2.055-1.558-3.247-3.556-3.247Zm-.216,6.428c-.572,0-1.37-.291-1.37-.995,0-.938.995-1.257,1.877-1.257a3.109,3.109,0,0,1,1.6.394,2.122,2.122,0,0,1-2.064,1.877Zm9.965-6.156-2.008,5.086h-.056l-2.083-5.086h-1.877l3.125,7.113-1.783,3.951h1.83l4.8-11.063ZM102.868,29.2h1.745V17.472h-1.745Z" transform="translate(-2.416 -1.051)" fill="#fff"></path></g></g><g id="Grupo_5776" data-name="Grupo 5776" transform="translate(9.455 7.01)"><g id="Grupo_5775" data-name="Grupo 5775" clip-path="url(#clip-path-3)"><rect id="Rect\xE1ngulo_2645" data-name="Rect\xE1ngulo 2645" width="25.237" height="25.237" transform="translate(-11.79 11.762) rotate(-45)" fill="url(#linear-gradient)"></rect></g></g><g id="Grupo_5778" data-name="Grupo 5778" transform="translate(21.592 14.751)"><g id="Grupo_5777" data-name="Grupo 5777" clip-path="url(#clip-path-4)"><rect id="Rect\xE1ngulo_2646" data-name="Rect\xE1ngulo 2646" width="9.853" height="8.032" transform="translate(0 0)" fill="url(#linear-gradient-2)"></rect></g></g><g id="Grupo_5780" data-name="Grupo 5780" transform="translate(9.9 18.767)"><g id="Grupo_5779" data-name="Grupo 5779" clip-path="url(#clip-path-5)"><rect id="Rect\xE1ngulo_2647" data-name="Rect\xE1ngulo 2647" width="19.7" height="19.699" transform="translate(-6.104 6.101) rotate(-44.987)" fill="url(#linear-gradient-3)"></rect></g></g><g id="Grupo_5782" data-name="Grupo 5782" transform="translate(9.9 6.692)"><g id="Grupo_5781" data-name="Grupo 5781" clip-path="url(#clip-path-6)"><rect id="Rect\xE1ngulo_2648" data-name="Rect\xE1ngulo 2648" width="19.606" height="19.606" transform="translate(-6.037 6.037) rotate(-45)" fill="url(#linear-gradient-4)"></rect></g></g><g id="Grupo_5796" data-name="Grupo 5796"><g id="Grupo_5795" data-name="Grupo 5795" clip-path="url(#clip-path)"><g id="Grupo_5785" data-name="Grupo 5785" transform="translate(9.9 22.643)" opacity="0.2" style="isolation: isolate;"><g id="Grupo_5784" data-name="Grupo 5784"><g id="Grupo_5783" data-name="Grupo 5783" clip-path="url(#clip-path-8)"><path id="Trazado_5690" data-name="Trazado 5690" d="M25.979,24.13l-13.6,7.742a1.557,1.557,0,0,1-1.877,0l-.066.066.066.075a1.557,1.557,0,0,0,1.877,0l13.71-7.8Z" transform="translate(-10.44 -24.13)"></path></g></g></g><g id="Grupo_5788" data-name="Grupo 5788" transform="translate(9.482 29.005)" opacity="0.12" style="isolation: isolate;"><g id="Grupo_5787" data-name="Grupo 5787"><g id="Grupo_5786" data-name="Grupo 5786" clip-path="url(#clip-path-9)"><path id="Trazado_5691" data-name="Trazado 5691" d="M10.413,32.233A1.876,1.876,0,0,1,10,30.91v.141a1.821,1.821,0,0,0,.441,1.314l.066-.066Z" transform="translate(-9.994 -30.91)"></path></g></g></g><g id="Grupo_5791" data-name="Grupo 5791" transform="translate(25.439 18.767)" opacity="0.12" style="isolation: isolate;"><g id="Grupo_5790" data-name="Grupo 5790"><g id="Grupo_5789" data-name="Grupo 5789" clip-path="url(#clip-path-10)"><path id="Trazado_5692" data-name="Trazado 5692" d="M31.692,21.22,27,23.875l.084.084,4.607-2.609A1.643,1.643,0,0,0,32.687,20a1.745,1.745,0,0,1-.995,1.22" transform="translate(-27 -20)"></path></g></g></g><g id="Grupo_5794" data-name="Grupo 5794" transform="translate(9.459 6.7)" opacity="0.25" style="isolation: isolate;"><g id="Grupo_5793" data-name="Grupo 5793"><g id="Grupo_5792" data-name="Grupo 5792" clip-path="url(#clip-path-11)"><path id="Trazado_5693" data-name="Trazado 5693" d="M12.353,7.59l18.289,10.4a1.745,1.745,0,0,1,.995,1.22,1.643,1.643,0,0,0-.995-1.351L12.353,7.459c-1.3-.751-2.383-.131-2.383,1.37V8.97c.028-1.5,1.079-2.121,2.383-1.379" transform="translate(-9.97 -7.14)" fill="#fff"></path></g></g></g><path id="Trazado_5694" data-name="Trazado 5694" d="M41.28,12.63V7h1.727a2.818,2.818,0,1,1,0,5.63ZM42,11.936h1a2.119,2.119,0,0,0,1.539-.554,2.093,2.093,0,0,0,.572-1.567,1.963,1.963,0,0,0-2.111-2.121H42Z" transform="translate(-2.441 -0.431)" fill="#fff"></path><path id="Trazado_5695" data-name="Trazado 5695" d="M41.28,12.63V7h1.727a2.818,2.818,0,1,1,0,5.63ZM42,11.936h1a2.119,2.119,0,0,0,1.539-.554,2.093,2.093,0,0,0,.572-1.567,1.963,1.963,0,0,0-2.111-2.121H42Z" transform="translate(-2.441 -0.431)" fill="none" stroke="#fff" stroke-miterlimit="10" stroke-width="0.2"></path><rect id="Rect\xE1ngulo_2653" data-name="Rect\xE1ngulo 2653" width="0.713" height="5.63" transform="translate(44.432 6.569)" fill="#fff"></rect><rect id="Rect\xE1ngulo_2654" data-name="Rect\xE1ngulo 2654" width="0.713" height="5.63" transform="translate(44.432 6.569)" fill="none" stroke="#fff" stroke-miterlimit="10" stroke-width="0.2"></rect><path id="Trazado_5696" data-name="Trazado 5696" d="M50.951,12.744a2.114,2.114,0,0,1-1.2-.394,1.876,1.876,0,0,1-.769-1.126l.666-.272a1.5,1.5,0,0,0,.479.788,1.248,1.248,0,0,0,.826.319,1.317,1.317,0,0,0,.807-.253.788.788,0,0,0,.328-.666.874.874,0,0,0-.328-.732,3.677,3.677,0,0,0-1.06-.479,2.758,2.758,0,0,1-1.135-.61,1.265,1.265,0,0,1-.385-.938,1.415,1.415,0,0,1,.479-1.06,1.8,1.8,0,0,1,1.22-.45,1.765,1.765,0,0,1,1.164.357,1.594,1.594,0,0,1,.582.779l-.657.272a.936.936,0,0,0-.347-.488,1.078,1.078,0,0,0-.723-.235,1.15,1.15,0,0,0-.713.235.714.714,0,0,0-.291.582.656.656,0,0,0,.272.525,2.515,2.515,0,0,0,.8.394,6.08,6.08,0,0,1,.694.253,2.976,2.976,0,0,1,.563.338,1.274,1.274,0,0,1,.432.516,1.612,1.612,0,0,1,.15.723,1.548,1.548,0,0,1-.169.732,1.317,1.317,0,0,1-.45.507,2.07,2.07,0,0,1-.6.291,2.227,2.227,0,0,1-.629.094" transform="translate(-2.915 -0.423)" fill="#fff"></path><path id="Trazado_5697" data-name="Trazado 5697" d="M50.951,12.744a2.114,2.114,0,0,1-1.2-.394,1.876,1.876,0,0,1-.769-1.126l.666-.272a1.5,1.5,0,0,0,.479.788,1.248,1.248,0,0,0,.826.319,1.317,1.317,0,0,0,.807-.253.788.788,0,0,0,.328-.666.874.874,0,0,0-.328-.732,3.677,3.677,0,0,0-1.06-.479,2.758,2.758,0,0,1-1.135-.61,1.265,1.265,0,0,1-.385-.938,1.415,1.415,0,0,1,.479-1.06,1.8,1.8,0,0,1,1.22-.45,1.765,1.765,0,0,1,1.164.357,1.594,1.594,0,0,1,.582.779l-.657.272a.936.936,0,0,0-.347-.488,1.078,1.078,0,0,0-.723-.235,1.15,1.15,0,0,0-.713.235.714.714,0,0,0-.291.582.656.656,0,0,0,.272.525,2.515,2.515,0,0,0,.8.394,6.08,6.08,0,0,1,.694.253,2.976,2.976,0,0,1,.563.338,1.274,1.274,0,0,1,.432.516,1.612,1.612,0,0,1,.15.723,1.548,1.548,0,0,1-.169.732,1.317,1.317,0,0,1-.45.507,2.07,2.07,0,0,1-.6.291A2.227,2.227,0,0,1,50.951,12.744Z" transform="translate(-2.915 -0.423)" fill="none" stroke="#fff" stroke-miterlimit="10" stroke-width="0.2"></path><path id="Trazado_5698" data-name="Trazado 5698" d="M54.953,12.63H54.23V7h1.877a1.767,1.767,0,0,1,1.239.479,1.624,1.624,0,0,1,.1,2.293c-.032.035-.065.068-.1.1a1.767,1.767,0,0,1-1.239.479H54.953Zm0-2.975h1.21a.939.939,0,0,0,.732-.3.986.986,0,0,0,0-1.361.939.939,0,0,0-.732-.3h-1.21Z" transform="translate(-3.239 -0.431)" fill="#fff"></path><path id="Trazado_5699" data-name="Trazado 5699" d="M54.953,12.63H54.23V7h1.877a1.767,1.767,0,0,1,1.239.479,1.624,1.624,0,0,1,.1,2.293c-.032.035-.065.068-.1.1a1.767,1.767,0,0,1-1.239.479H54.953Zm0-2.975h1.21a.939.939,0,0,0,.732-.3.986.986,0,0,0,0-1.361.939.939,0,0,0-.732-.3h-1.21Z" transform="translate(-3.239 -0.431)" fill="none" stroke="#fff" stroke-miterlimit="10" stroke-width="0.2"></path><path id="Trazado_5700" data-name="Trazado 5700" d="M63.674,11.89a2.76,2.76,0,0,1-2.064.854,2.731,2.731,0,0,1-2.064-.854,3.011,3.011,0,0,1,0-4.166,2.909,2.909,0,0,1,4.114-.006l.006.006a3.032,3.032,0,0,1,0,4.166Zm-3.594-.469a2.14,2.14,0,0,0,3.025.024l.024-.024a2.383,2.383,0,0,0,0-3.228A2.14,2.14,0,0,0,60.1,8.169l-.024.024a2.383,2.383,0,0,0,0,3.228" transform="translate(-3.515 -0.423)" fill="#fff"></path><path id="Trazado_5701" data-name="Trazado 5701" d="M63.674,11.89a2.76,2.76,0,0,1-2.064.854,2.731,2.731,0,0,1-2.064-.854,3.011,3.011,0,0,1,0-4.166,2.909,2.909,0,0,1,4.114-.006l.006.006a3.032,3.032,0,0,1,0,4.166Zm-3.594-.469a2.14,2.14,0,0,0,3.025.024l.024-.024a2.383,2.383,0,0,0,0-3.228A2.14,2.14,0,0,0,60.1,8.169l-.024.024A2.383,2.383,0,0,0,60.08,11.421Z" transform="translate(-3.515 -0.423)" fill="none" stroke="#fff" stroke-miterlimit="10" stroke-width="0.2"></path><path id="Trazado_5702" data-name="Trazado 5702" d="M66,12.63V7h.882l2.74,4.382V7h.723v5.63h-.76L66.769,8.042V12.63Z" transform="translate(-3.964 -0.431)" fill="#fff"></path><path id="Trazado_5703" data-name="Trazado 5703" d="M66,12.63V7h.882l2.74,4.382V7h.723v5.63h-.76L66.769,8.042V12.63Z" transform="translate(-3.964 -0.431)" fill="none" stroke="#fff" stroke-miterlimit="10" stroke-width="0.2"></path><rect id="Rect\xE1ngulo_2655" data-name="Rect\xE1ngulo 2655" width="0.723" height="5.63" transform="translate(67.666 6.569)" fill="#fff"></rect><rect id="Rect\xE1ngulo_2656" data-name="Rect\xE1ngulo 2656" width="0.723" height="5.63" transform="translate(67.666 6.569)" fill="none" stroke="#fff" stroke-miterlimit="10" stroke-width="0.2"></rect><path id="Trazado_5704" data-name="Trazado 5704" d="M74.1,12.63V7h2.036a1.693,1.693,0,0,1,1.145.432,1.435,1.435,0,0,1,.479,1.1,1.228,1.228,0,0,1-.206.713A1.327,1.327,0,0,1,77,9.7a1.427,1.427,0,0,1,.685.488,1.257,1.257,0,0,1,.263.8,1.475,1.475,0,0,1-.507,1.145,1.7,1.7,0,0,1-1.2.46Zm.723-3.219h1.314a.889.889,0,0,0,.7-1.453l-.02-.021a.8.8,0,0,0-.629-.263h-1.37Zm0,2.524h1.454a.863.863,0,0,0,.676-.291.93.93,0,0,0-.713-1.558H74.823Z" transform="translate(-4.464 -0.431)" fill="#fff"></path><path id="Trazado_5705" data-name="Trazado 5705" d="M74.1,12.63V7h2.036a1.693,1.693,0,0,1,1.145.432,1.435,1.435,0,0,1,.479,1.1,1.228,1.228,0,0,1-.206.713A1.327,1.327,0,0,1,77,9.7a1.427,1.427,0,0,1,.685.488,1.257,1.257,0,0,1,.263.8,1.475,1.475,0,0,1-.507,1.145,1.7,1.7,0,0,1-1.2.46Zm.723-3.219h1.314a.889.889,0,0,0,.7-1.453l-.02-.021a.8.8,0,0,0-.629-.263h-1.37Zm0,2.524h1.454a.863.863,0,0,0,.676-.291.93.93,0,0,0-.713-1.558H74.823Z" transform="translate(-4.464 -0.431)" fill="none" stroke="#fff" stroke-miterlimit="10" stroke-width="0.2"></path><path id="Trazado_5706" data-name="Trazado 5706" d="M79.24,12.63V7h.713v4.936h2.44v.694Z" transform="translate(-4.78 -0.431)" fill="#fff"></path><path id="Trazado_5707" data-name="Trazado 5707" d="M79.24,12.63V7h.713v4.936h2.44v.694Z" transform="translate(-4.78 -0.431)" fill="none" stroke="#fff" stroke-miterlimit="10" stroke-width="0.2"></path><path id="Trazado_5708" data-name="Trazado 5708" d="M86.864,7.694H84.3V9.477H86.62v.676H84.3v1.783h2.562v.694H83.58V7h3.284Z" transform="translate(-5.048 -0.431)" fill="#fff"></path><path id="Trazado_5709" data-name="Trazado 5709" d="M86.864,7.694H84.3V9.477H86.62v.676H84.3v1.783h2.562v.694H83.58V7h3.284Z" transform="translate(-5.048 -0.431)" fill="none" stroke="#fff" stroke-miterlimit="10" stroke-width="0.2"></path><path id="Trazado_5710" data-name="Trazado 5710" d="M93.594,7.694H91.023V9.477H93.34v.676H91.023v1.783h2.571v.694H90.3V7h3.294Z" transform="translate(-5.462 -0.431)" fill="#fff"></path><path id="Trazado_5711" data-name="Trazado 5711" d="M93.594,7.694H91.023V9.477H93.34v.676H91.023v1.783h2.571v.694H90.3V7h3.294Z" transform="translate(-5.462 -0.431)" fill="none" stroke="#fff" stroke-miterlimit="10" stroke-width="0.2"></path><path id="Trazado_5712" data-name="Trazado 5712" d="M95,12.63V7h.938l2.74,4.382V7H99.4v5.63h-.76L95.826,8.042V12.63Z" transform="translate(-5.752 -0.431)" fill="#fff"></path><path id="Trazado_5713" data-name="Trazado 5713" d="M95,12.63V7h.938l2.74,4.382V7H99.4v5.63h-.76L95.826,8.042V12.63Z" transform="translate(-5.752 -0.431)" fill="none" stroke="#fff" stroke-miterlimit="10" stroke-width="0.2"></path></g></g></g></g></svg>