<svg height="491" viewBox="0 0 2670 491" width="2670" xmlns="http://www.w3.org/2000/svg" xmlns:xlink="http://www.w3.org/1999/xlink"><mask id="a" fill="#fff"><path d="m0 0h1475.81v490.445h-1475.81z" fill="#fff" fill-rule="evenodd"/></mask><g fill="none" fill-rule="evenodd"><path d="m2.102 266.069c6.083 50.354 17.754 88.221 35.017 113.63 33.103 46.579 75.591 77.87 127.425 93.861 30.824 11.296 93.405 16.945 187.723 16.945l793.623-1.419h66.55c26.61 0 53.87-5.463 82.65-11.99 24.85-5.635 72.95-23.964 102.97-46.58 28.8-21.701 44.37-47.997 53.24-69.167 16.33-36.706 24.51-67.752 24.51-93.167v-23.996c0-34.807-.8-72.039-16.12-105.15-27.19-58.823-63.67-88.356-102.97-107.281-46.67-22.484-92.91-30.348-116.27-30.348h-282.277s-584.747-1.407-587.934-1.407c-3.19 0-6.359.664-11.482.331-5.121-.331-21.201-.331-21.201-.331h-31.52c-83.111 0-142.426 10.582-177.918 31.755-18.669 5.18-47.168 22.981-79.81 59.99-28.803 32.658-48.308 94.336-48.308 129.155v20.468zm81.189 113.63c-35.438-36.232-53.166-85.159-53.166-146.801 0-22.59 8.87-52.689 26.575-90.336 49.009-76.227 127.693-114.334 236.029-114.334h904.301c41.09 0 82.19 8.468 123.28 25.408 36.89 12.699 77.69 39.099 109.97 102.336 14.64 28.695 18.21 61.874 18.21 95.274 0 27.296-7.94 56.228-23.81 86.807-5.14 15.526-18.92 33.88-41.33 55.046-45.76 46.125-118.39 69.173-217.84 69.173h-858.07c-104.602 0-179.322-27.526-224.149-82.573z" fill="#1a1919" mask="url(#a)" transform="translate(0 .495)"/><path d="m872.875 136.813v-.004z" fill="#fffffe"/><g fill="#1a1919"><path d="m358.932 165.426v131.36c.731 18.723 1.359 25.911 2.575 32.363 1.885 9.998 6.364 17.799 11.812 23.751 7.168 7.337 12.923 11.376 17.264 12.117 5.252 2.021 10.148 3.03 14.692 3.03 8.179 0 16.859-2.923 26.047-8.767 9.393-8.93 15.244-17.858 17.572-26.787 1.915-7.973 2.875-15.62 2.875-22.953v-154c0-10.307-4.746-15.461-14.238-15.461-7.568 0-12.265 2.284-14.083 6.853-1.211 2.552-1.818 7.172-1.818 13.87v147.94c0 7.869-2.625 14.562-7.872 20.088-2.828 2.018-6.06 3.031-9.695 3.031-7.571 0-12.67-4.788-15.297-14.349-.707-5.527-1.058-10.307-1.058-14.352v-149.852c0-8.818-5.149-13.229-15.449-13.229-5.554 0-9.387 2.497-11.513 7.488-1.209 3.613-1.814 9.569-1.814 17.859"/><path d="m609.495 159.367v187.792c0 7.868 1.763 12.704 5.295 14.511 2.527 1.81 9.025 2.712 15.487 2.712h45.436c6.16 0 10.301-1.648 12.419-4.944 1.613-4.041 2.425-9.246 2.425-15.623 0-8.29-5.907-12.434-17.723-12.434h-15.598c-13.073 0-17.418-2.29-17.418-18.653v-154.48c0-8.39-1.865-13.495-5.601-15.302-2.223-1.06-4.95-1.597-8.178-1.597h-2.31c-5.96 0-9.896 1.653-11.811 4.947-1.618 3.297-2.423 7.653-2.423 13.071"/><path d="m713.045 157.93v190.671c0 9.988 4.848 14.979 14.543 14.979 5.854 0 11.712-1.486 13.734-4.463 1.615-2.014 2.423-8.5 2.423-19.45v-182.531c0-8.396-1.865-13.496-5.602-15.306-1.494-.729-5.961-1.914-10.555-1.914-8.179 0-12.928 3.507-14.239 10.523z"/><path d="m910.806 202.409v100.115c0 19.983 2.821 33.744 8.478 41.291 5.554 10.311 13.782 17.275 24.685 20.884 2.831.957 6.965 1.699 12.422 2.235 16.86 0 30.035-8.825 39.528-26.465 4.241-8.929 6.361-20.459 6.361-34.597v-46.866c0-9.778-1.06-15.728-3.185-17.858-2.223-2.657-6.713-3.987-13.478-3.987h-12.716c-7.981 0-12.779 1.472-14.394 5.399-1.412 2.87-2.116 11.347-2.116 15.917 0 5.52 8.48 6.718 8.48 6.718s5.313.802 6.498 2.252c1.185 1.452 1.466 4.968 1.466 7.447v39.338c0 12.537-5.29 19.87-14.78 21.994h-2.123c-9.592 0-15.246-6.956-16.958-20.883v-118.035c0-7.862 2.473-14.19 7.419-18.97 2.727-2.232 5.805-3.348 9.239-3.348 7.167 0 12.214 4.094 15.146 12.275.909 2.869 1.46 10.05 2.123 21.52.314 5.41 6.357 7.816 6.357 7.816s2.373 1.114 7.117 1.431c10.399 0 15.605-4.569 15.605-13.709 0-16.898-1.67-28.428-5-34.594-2.328-6.8-6.466-12.751-12.42-17.857-7.878-7.436-16.107-11.157-24.688-11.157h-6.364c-9.691 0-20.829 4.414-29.986 15.623-4.549 5.572-7.114 11.796-9.235 17.537-2.324 9.139-3.481 18.652-3.481 28.534"/><path d="m1034.38 161.754.3 6.379v104.9l-.3 6.694.3 5.262v9.245l-.3 6.378.3 6.697v9.406l-.3 5.574.3 6.218v19.771c0 8.29 2.48 13.392 7.42 15.302 3.13.743 5.96 1.119 8.48 1.119h48.77c8.68 0 13.88-2.124 15.6-6.38.91-2.335 1.51-5.682 1.82-10.041 0-6.694-1.68-10.918-3.94-13.713-1.2-1.487-5.5-3.171-12.42-3.346h-28.68c-7.05 0-7.61-2.881-8.17-8.928-.3-3.165-.26-16.412-.26-20.882v-22.259c0-9.413 9.4-8.667 16.66-8.667h17.73c10.57 0 14.73-1.117 16.96-3.349 2.12-2.124 3.17-7.068 3.17-14.826v-4.462c0-5.102-2.89-10.525-9.68-10.525l-20.49-.391-18.27-.245c-4.4 0-6.08-1.819-6.08-8.11v-21.382c0-11.648.67-21.26.67-25.847 0-5.361 3.58-5.253 3.58-5.253s5.7-.463 13.17-.463h19.08c8.08 0 12.88-1.754 14.39-5.265 1.41-2.331 2.12-7.81 2.12-16.417 0-7.016-3.98-11.002-11.97-11.958l-7.11-.321h-47.7c-6.37 0-10.61 1.755-12.73 5.263-1.21 2.554-2.02 7.492-2.42 14.822"/><path d="m873.297 143.423c-2.221-1.592-5.552-2.548-9.995-2.867-9.596 0-14.386 4.939-14.386 14.826v49.294s.459 45.631.378 54.886c-.008 1.01-.008 1.769-1.095 1.758-.762-.007-1.681-.674-2.073-1.914-.664-2.103-6.944-21.995-6.944-21.995-.479-1.191-.955-2.539-1.413-4.076-1.39-4.654-18.821-56.887-23.58-75.069v-.003c-.281-1.082-.525-2.059-.713-2.881l-3.183-8.608c-2.433-7.367-19.383-6.218-19.383-6.218-8.782.853-13.178 5.317-13.178 13.392l-.3 5.577v179.827c.3 13.178 2.192 18.243 3.18 19.765 1.416 2.193 3.278 3.188 9.842 4.145h6.364c4.976-.75 5.947-3.658 7.417-5.578.83-1.089 1.917-3.876 2.122-9.723v-76.679c0-1.043.05-1.956.126-2.805 0 0-.281-23.938-.281-30.148 0-2.356 1.647-1.436 2.132.135.486 1.572 31.274 100.409 31.274 100.409l-.319-.449c.028.096.057.19.084.287 4.322 14.833 7.769 20.517 11.207 22.316 2.343 1.231 5.907 2.553 11.664 2.553 9.998 0 14.989-4.94 14.989-14.821v-190.027c0-7.761-1.311-12.859-3.936-15.309"/><path d="m1175.51 226.164v-29.561c0-10.521 1.16-16.899 3.48-19.128 2.43-2.975 6.26-4.468 11.52-4.468 9.89 0 16.15 5.638 18.77 16.902.51 4.678.76 14.68.76 27.005 0 14.248-3.69 21.894-11.05 24.869-3.64 1.492-19.13 5.244-19.13 5.244-5.55 0-4.35-8.321-4.35-20.863m50.13 56.273-4.69-20.344c7.09-5.832 16.2-12.986 16.2-33.221l.61-14.981v-15.785c0-20.301-3.79-34.808-11.37-43.524-7.57-10.202-21.1-15.3-40.58-15.3h-23.47c-10.51 0-15.76 4.994-15.76 14.984v188.911c0 9.568 1.21 15.305 3.64 17.218 2.83 2.232 6.36 3.348 10.6 3.348 6.46 0 10.75-1.966 12.87-5.9 1.21-2.124 1.82-5.368 1.82-9.724v-52.607c0-.922 0-2.058.02-3.308h.01c.02-9.723 6.81-13.101 6.81-13.101 1.32-1.036 3.42-2.289 5.9-3.619 4.49-2.647 6.4 2.107 6.75 3.149 1.91 5.92 2.88 13.467 3.99 18.79l10.29 49.577c1.82 7.761 4.44 12.757 7.88 14.988 3.84 1.171 7.17 1.755 9.99 1.755 9.29 0 13.94-3.455 13.94-10.366z"/><path d="m513.307 225.663v-29.561c0-10.521 1.158-16.899 3.48-19.128 2.425-2.975 6.261-4.468 11.515-4.468 9.891 0 16.149 5.638 18.778 16.902.502 4.678.759 14.68.759 27.006 0 14.247-3.693 21.893-11.055 24.868-3.635 1.493-19.128 5.244-19.128 5.244-5.552 0-4.349-8.321-4.349-20.863m50.13 56.274-4.692-20.345c7.089-5.832 16.201-12.986 16.201-33.221l.606-14.98v-15.786c0-20.3-3.787-34.808-11.363-43.524-7.571-10.202-21.099-15.3-40.581-15.3h-23.475c-10.505 0-15.754 4.994-15.754 14.984v188.911c0 9.568 1.212 15.305 3.634 17.218 2.828 2.232 6.362 3.348 10.603 3.348 6.46 0 10.751-1.966 12.872-5.9 1.21-2.124 1.819-5.368 1.819-9.723v-52.608c0-.922.003-2.058.022-3.308h.002c.021-9.723 6.819-13.101 6.819-13.101 1.32-1.037 3.414-2.289 5.894-3.618 4.488-2.648 6.396 2.106 6.754 3.148 1.908 5.92 2.877 13.467 3.986 18.79l10.296 49.578c1.815 7.761 4.439 12.756 7.875 14.987 3.488 1.755 7.168 1.755 9.995 1.755 9.288 0 13.934-3.454 13.934-10.366z"/><path d="m263.948 182.557c0-6.086.566-7.566 6.783-7.566h8.51c9.9 0 15.957 5.789 18.181 17.374.803 2.342 1.209 5.479 1.209 9.405v101.508c0 12.541-4.314 19.399-12.873 23.168-4.315 1.901-17.903 4.325-19.4 3.885-1.495-.441-2.41-1.343-2.41-4.779zm48.464-27.016c-1.012-2.018-3.587-4.515-7.726-7.494-7.871-4.994-15.499-7.491-22.865-7.491l-13.934-.798h-17.418c-7.37 0-12.164 2.501-14.387 7.496-.909 3.927-1.362 8.073-1.362 12.434v187.633c0 7.119 1.411 11.641 4.241 13.551 2.568 1.891 7.187 2.974 13.818 3.264l.001.009c.12.007.23.005.35.01.28.011.57.018.857.024 27.735 1.173 42.863-9.215 42.863-9.215 20.547-12.83 26.239-28.114 27.815-36.033 0 0 2.135-5.994 2.135-23.419v-91.188c0-22.211-4.798-38.472-14.388-48.783z"/><path d="m634.811 81.24c0 .536-.268.803-.983.803h-2.01c-1.606 0-2.232-2.678-5.447-2.678-1.963 0-2.678.804-2.678 2.188 0 3.839 12.099 2.366 12.099 9.197 0 4.286-4.152 6.654-9.063 6.654-5 0-8.662-2.01-8.662-3.796v-1.652c0-.848.357-1.161 1.249-1.161h1.473c3.126 0 2.01 3.304 6.43 3.304 1.698 0 3.616-.803 3.616-2.187 0-4.555-12.099-2.635-12.099-9.601 0-4.732 5.135-6.25 9.019-6.25 2.59 0 7.056.937 7.056 2.813z"/><path d="m644.85 75.615c-.49.268-.891.357-1.249.357-.446 0-.581-.313-.581-.804v-3.795c0-.715.224-.938.715-1.161l4.019-1.965c.357-.223.713-.358 1.07-.358.314 0 .447.135.447.537v4.465c0 .49-.133.624-.804.937zm-2.053 21.342c-.804 0-1.072-.268-1.072-.848v-1.384c0-.805.268-.983 1.251-.983 1.07 0 1.295-.313 1.295-1.295v-8.662c0-.803-.225-1.027-.536-1.027-.312 0-.983.179-1.385.179-.357 0-.579-.223-.579-.715v-1.473c0-.625.311-.803.891-1.072l6.476-3.125c.669-.313 1.026-.491 1.338-.491.314 0 .493.267.493.759v1.697c0 .624-.357.982-.894 1.205-.58.224-1.072.447-1.072 1.295v11.43c0 .982.224 1.295 1.295 1.295.983 0 1.251.178 1.251.983v1.384c0 .58-.268.848-1.073.848z"/><path d="m659.851 83.874c0-1.16-.314-1.518-.671-1.518-.447 0-.981.581-1.338.581-.358 0-.537-.223-.537-.715v-1.563c0-.445.223-.713.537-.937l4.152-3.081c.536-.402.891-.58 1.384-.58.625 0 1.07.58 1.07 1.384v2.098c2.145-1.741 4.734-3.482 7.367-3.482 2.993 0 6.029 1.384 6.029 6.876v9.51c0 .982.223 1.295 1.295 1.295.981 0 1.249.178 1.249.983v1.384c0 .58-.268.848-1.07.848h-7.681c-.803 0-1.071-.268-1.071-.848v-1.384c0-.805.268-.983 1.249-.983 1.073 0 1.295-.313 1.295-1.295v-8.618c0-2.455-1.517-3.214-3.08-3.214-2.589 0-3.705 1.161-5.447 2.322v9.51c0 .982.223 1.295 1.295 1.295.983 0 1.249.178 1.249.983v1.384c0 .58-.266.848-1.07.848h-7.679c-.804 0-1.073-.268-1.073-.848v-1.384c0-.805.269-.983 1.249-.983 1.073 0 1.297-.313 1.297-1.295z"/><path d="m701.056 84.946c0-3.349-1.073-5.581-4.467-5.581-4.017 0-6.205 3.259-6.205 7.099 0 3.706 2.411 6.385 5.758 6.385 2.056 0 3.795-1.205 4.914-2.322zm4.731 7.367c0 .983.223 1.429 1.206 1.429s1.251.313 1.251.893v1.295c0 .759-.268 1.027-.983 1.027h-4.911c-.582 0-.894-.313-.894-1.072v-1.563c-2.456 1.787-3.973 3.082-7.099 3.082-5 0-8.215-4.51-8.215-9.333 0-7.589 4.554-12.01 10.447-12.01 1.609 0 3.126.446 4.467.982v-3.795c0-.804-.225-1.027-.537-1.027-.314 0-.983.178-1.384.178-.357 0-.582-.223-.582-.714v-1.473c0-.625.314-.804.894-1.072l6.474-3.125c.671-.313 1.026-.491 1.34-.491.312 0 .49.268.49.758v1.697c0 .626-.357.983-.891 1.205-.582.224-1.073.447-1.073 1.296z"/><path d="m730.965 81.24c0 .536-.268.803-.983.803h-2.009c-1.607 0-2.232-2.678-5.448-2.678-1.964 0-2.678.804-2.678 2.188 0 3.839 12.099 2.366 12.099 9.197 0 4.286-4.152 6.654-9.063 6.654-5 0-8.662-2.01-8.662-3.796v-1.652c0-.848.357-1.161 1.249-1.161h1.473c3.126 0 2.01 3.304 6.43 3.304 1.698 0 3.616-.803 3.616-2.187 0-4.555-12.099-2.635-12.099-9.601 0-4.732 5.135-6.25 9.02-6.25 2.589 0 7.055.937 7.055 2.813z"/><path d="m759.889 96.957c-.85 0-1.162-.268-1.162-.982v-1.608c0-.849.402-1.071 1.831-1.071 2.054 0 2.59-.491 2.59-2.099v-17.324c0-.625-.358-1.116-.848-1.116-.983 0-2.456.758-2.993.758-.355 0-.623-.267-.623-.848v-2.098c0-.535.222-.714.758-.982l6.027-2.903c.493-.223.938-.313 1.474-.313.669 0 1.161.76 1.161 2.01v22.727c0 1.697.58 2.188 2.902 2.188 1.205 0 1.562.267 1.562.982v1.697c0 .669-.401.982-1.115.982z"/><path d="m793.369 79.409c2.947 0 5.135-1.83 5.135-4.598 0-2.769-2.188-4.599-5.135-4.599s-5.133 1.83-5.133 4.599c0 2.768 2.186 4.598 5.133 4.598zm0 14.064c2.993 0 6.162-1.517 6.162-5.089 0-3.573-3.169-5.134-6.162-5.134-2.991 0-6.16 1.561-6.16 5.134 0 3.572 3.169 5.089 6.16 5.089zm-5.805-12.68c-2.722-1.339-4.017-3.348-4.017-6.428 0-5.671 4.957-7.994 9.868-7.994 4.821 0 9.778 2.323 9.778 7.994 0 3.08-1.295 5.089-4.02 6.428 3.305 1.295 5.315 3.573 5.315 7.189 0 6.43-5.225 9.332-11.119 9.332s-11.116-2.902-11.116-9.332c0-3.616 2.009-5.894 5.311-7.189z"/><path d="m821.759 79.409c2.947 0 5.135-1.83 5.135-4.598 0-2.769-2.188-4.599-5.135-4.599s-5.133 1.83-5.133 4.599c0 2.768 2.186 4.598 5.133 4.598zm0 14.064c2.993 0 6.162-1.517 6.162-5.089 0-3.573-3.169-5.134-6.162-5.134-2.991 0-6.16 1.561-6.16 5.134 0 3.572 3.169 5.089 6.16 5.089zm-5.804-12.68c-2.723-1.339-4.018-3.348-4.018-6.428 0-5.671 4.957-7.994 9.868-7.994 4.821 0 9.778 2.323 9.778 7.994 0 3.08-1.295 5.089-4.019 6.428 3.304 1.295 5.314 3.573 5.314 7.189 0 6.43-5.225 9.332-11.119 9.332s-11.116-2.902-11.116-9.332c0-3.616 2.01-5.894 5.312-7.189z"/><path d="m845.062 96.957c-.85 0-1.162-.268-1.162-.982v-1.608c0-.849.401-1.071 1.831-1.071 2.054 0 2.59-.491 2.59-2.099v-17.324c0-.625-.358-1.116-.848-1.116-.983 0-2.457.758-2.993.758-.355 0-.623-.267-.623-.848v-2.098c0-.535.222-.714.758-.982l6.027-2.903c.493-.223.937-.313 1.474-.313.669 0 1.161.76 1.161 2.01v22.727c0 1.697.58 2.188 2.901 2.188 1.206 0 1.563.267 1.563.982v1.697c0 .669-.401.982-1.116.982z"/><path d="m901.099 81.464c0 3.617-2.933 6.549-6.55 6.549s-6.549-2.932-6.549-6.549c0-3.618 2.932-6.55 6.549-6.55s6.55 2.932 6.55 6.55"/><path d="m587.808 81.583c0 3.618-2.932 6.55-6.549 6.55-3.618 0-6.55-2.932-6.55-6.55 0-3.617 2.932-6.549 6.55-6.549 3.617 0 6.549 2.932 6.549 6.549"/><path d="m1615.63 203.191h6.75c10.06 0 12.6-3.649 12.6-9.729 0-6.081-2.54-9.729-12.6-9.729h-6.75zm0-32.504h5.53c6.97 0 9.84-2.211 9.84-7.85 0-6.191-2.87-8.402-9.84-8.402h-5.53zm-16.91-13.488c0-2.211-1.11-3.207-4.09-3.207-3.65 0-4.76-.994-4.76-3.758v-5.749c0-2.322 1.11-3.096 3.87-3.096h28.2c18.24 0 25.97 7.739 25.97 18.574 0 9.95-5.74 13.598-9.17 16.141 9.17 3.317 13.82 9.066 13.82 21.116 0 12.604-10.06 19.016-30.18 19.016h-28.64c-2.76 0-3.87-.773-3.87-3.096v-5.748c0-2.764 1.11-3.759 4.76-3.759 2.98 0 4.09-.995 4.09-3.206z"/><path d="m1697.13 157.199c0-2.211-1.1-3.207-4.09-3.207-3.87 0-4.98-.994-4.98-3.758v-5.749c0-2.322 1.11-3.096 3.88-3.096h28.41c2.76 0 3.87.774 3.87 3.096v6.08c0 2.543-1 3.427-6.41 3.427-2.66 0-3.76.885-3.76 3.207v45.992h8.4c10.06 0 6.3-6.744 16.81-6.744 5.52 0 6.74 1.105 6.74 2.874 0 1.438-4.98 13.599-5.64 15.257-.44 1.105-1.22 1.658-3.65 1.658h-44.77c-2.77 0-3.88-.773-3.88-3.096v-5.748c0-2.764 1.11-3.759 4.98-3.759 2.99 0 4.09-.995 4.09-3.206z"/><path d="m1804.61 200.427c0 2.211 1.1 3.206 4.09 3.206 3.87 0 4.97.995 4.97 3.759v5.748c0 2.323-1.1 3.096-3.86 3.096h-27.31c-2.77 0-3.87-.773-3.87-3.096v-5.748c0-2.764 1.1-3.759 4.97-3.759 2.99 0 4.1-.995 4.1-3.206v-43.228c0-2.211-1.11-3.207-4.1-3.207-3.87 0-4.97-.994-4.97-3.758v-5.749c0-2.322 1.1-3.096 3.87-3.096h27.31c2.76 0 3.86.774 3.86 3.096v5.749c0 2.764-1.1 3.758-4.97 3.758-2.99 0-4.09.996-4.09 3.207z"/><path d="m1877.92 212.257c0 11.829-5.09 20.563-22.88 20.563-5.53 0-16.26-2.322-16.26-7.407 0-2.875 1.44-7.85 4.76-7.85 2.1 0 5.31 1.216 8.62 1.216 6.86 0 8.85-2.433 8.85-7.96v-53.62c0-2.211-1.11-3.207-4.1-3.207-5.41 0-6.52-.994-6.52-3.758v-5.749c0-2.322 1.11-3.096 3.87-3.096h28.86c2.76 0 3.87.774 3.87 3.096v5.749c0 2.764-1.11 3.758-4.98 3.758-2.98 0-4.09.996-4.09 3.207z"/><path d="m1946.7 170.576h7.74c10.39 0 4.2-3.316 13.15-3.316 3.76 0 5.31.552 5.65 1.547.99 2.654 5.85 14.152 5.85 16.142 0 1.879-1.21 3.095-5.41 3.095-12.28 0-4.98-4.422-18.13-4.422h-8.85v19.569h13.93c10.06 0 6.3-6.744 16.81-6.744 5.52 0 6.74 1.105 6.74 2.874 0 1.438-4.97 13.599-5.64 15.257-.44 1.105-1.22 1.658-3.65 1.658h-50.08c-2.76 0-3.87-.773-3.87-3.096v-5.748c0-2.764 1.11-3.759 4.76-3.759 2.98 0 4.08-.995 4.08-3.206v-43.228c0-2.211-1.1-3.207-4.08-3.207-3.65 0-4.76-.994-4.76-3.758v-5.749c0-2.322 1.11-3.096 3.87-3.096h47.1c1.65 0 2.32.774 2.87 2.101.55 1.216 4.98 12.161 4.98 14.041 0 2.432-1.77 3.316-6.97 3.316-7.63 0-6.96-6.412-17.24-6.412h-8.85z"/><path d="m2103.94 216.236c-2.1 0-2.87-.884-3.32-2.321l-18.9-54.394c-1-2.986-2.99-5.529-5.97-5.529-1.33 0-2.54-.773-2.54-2.874v-6.744c0-2.321.88-2.985 3.53-2.985h27.64c2.99 0 3.98.774 3.98 2.985v6.081c0 2.764-2.1 3.537-5.08 3.537-2.66 0-3.87.996-3.87 2.654 0 .995.11 2.101.55 3.428l11.61 37.146h.44l11.83-37.92c.33-.885.56-1.88.56-2.654 0-1.658-1.33-2.654-4.76-2.654-2.88 0-4.09-.884-4.09-2.984v-6.634c0-2.432.99-2.985 3.54-2.985h25.43c2.76 0 3.98.885 3.98 2.985v6.744c0 2.101-.89 2.874-2.66 2.874-3.31 0-4.86 2.322-6.41 7.076l-17.02 52.847c-.45 1.437-1.22 2.321-3.32 2.321z"/><path d="m2216.4 203.522c12.05 0 17.58-10.724 17.58-24.654 0-14.041-5.53-24.765-17.58-24.765s-17.58 10.724-17.58 24.765c0 13.93 5.53 24.654 17.58 24.654zm0-63.46c22.44 0 36.59 16.695 36.59 38.806 0 22.001-14.15 38.695-36.59 38.695-22.45 0-36.6-16.694-36.6-38.695 0-22.111 14.15-38.806 36.6-38.806z"/><path d="m2313.6 170.576h7.74c10.39 0 4.2-3.316 13.15-3.316 3.76 0 5.31.552 5.64 1.547.99 2.654 5.86 14.152 5.86 16.142 0 1.879-1.22 3.095-5.42 3.095-12.27 0-4.97-4.422-18.13-4.422h-8.84v19.569h13.93c10.06 0 6.3-6.744 16.8-6.744 5.53 0 6.74 1.105 6.74 2.874 0 1.438-4.97 13.599-5.63 15.257-.44 1.105-1.22 1.658-3.65 1.658h-50.08c-2.77 0-3.87-.773-3.87-3.096v-5.748c0-2.764 1.1-3.759 4.75-3.759 2.98 0 4.09-.995 4.09-3.206v-43.228c0-2.211-1.11-3.207-4.09-3.207-3.65 0-4.75-.994-4.75-3.758v-5.749c0-2.322 1.1-3.096 3.87-3.096h47.09c1.66 0 2.32.774 2.88 2.101.55 1.216 4.97 12.161 4.97 14.041 0 2.432-1.77 3.316-6.96 3.316-7.63 0-6.97-6.412-17.25-6.412h-8.84z"/><path d="m2399.96 216.236c-2.77 0-3.87-.773-3.87-3.096v-5.748c0-2.764 1.1-3.759 4.98-3.759 4.08 0 5.19-.995 5.19-3.206v-44.555c-13.15 0-5.86 4.422-18.13 4.422-4.2 0-5.42-1.216-5.42-3.095 0-1.99 4.87-13.488 5.86-16.142.33-.995 1.88-1.547 5.64-1.547 8.95 0 2.76 3.316 13.16 3.316h19.9c9.62 0 3.98-3.316 14.92-3.316 4.21 0 5.42 1.216 5.42 3.095 0 1.99-4.87 13.488-5.86 16.142-.33.994-1.88 1.547-5.64 1.547-6.08 0-4.2-4.422-12.93-4.422v44.555c0 2.211 1.1 3.206 5.85 3.206 3.88 0 4.98.995 4.98 3.759v5.748c0 2.323-1.1 3.096-3.86 3.096z"/><path d="m2506.22 170.576h7.74c10.4 0 4.2-3.316 13.16-3.316 3.76 0 5.3.552 5.64 1.547.99 2.654 5.85 14.152 5.85 16.142 0 1.879-1.21 3.095-5.41 3.095-12.27 0-4.97-4.422-18.13-4.422h-8.85v19.569h13.93c10.06 0 6.31-6.744 16.81-6.744 5.53 0 6.75 1.105 6.75 2.874 0 1.438-4.98 13.599-5.65 15.257-.44 1.105-1.21 1.658-3.64 1.658h-50.09c-2.76 0-3.86-.773-3.86-3.096v-5.748c0-2.764 1.1-3.759 4.75-3.759 2.98 0 4.09-.995 4.09-3.206v-43.228c0-2.211-1.11-3.207-4.09-3.207-3.65 0-4.75-.994-4.75-3.758v-5.749c0-2.322 1.1-3.096 3.86-3.096h47.1c1.66 0 2.32.774 2.88 2.101.55 1.216 4.97 12.161 4.97 14.041 0 2.432-1.77 3.316-6.96 3.316-7.63 0-6.97-6.412-17.25-6.412h-8.85z"/><path d="m2584.85 157.199c0-2.543-1.11-3.207-3.2-3.207-3.77 0-4.76-.884-4.76-4.311v-5.196c0-2.322 1.1-3.096 3.87-3.096h23.99c1.88 0 2.87.774 3.54 2.101l21.77 51.188h.12v-37.479c0-2.543-1.11-3.207-3.21-3.207-4.09 0-5.08-.884-5.08-4.311v-5.196c0-2.322 1.1-3.096 3.86-3.096h21.67c2.77 0 3.87.774 3.87 3.096v5.86c0 2.874-1.21 3.647-3.54 3.647-2.98 0-3.86.664-3.86 3.207v55.831c0 2.322-1.11 3.206-3.21 3.206h-14.81c-2.11 0-3.32-.773-4.1-2.653l-22.99-53.842h-.22v40.686c0 2.543 1.1 3.206 3.64 3.206 3.32 0 4.32.884 4.32 4.311v5.196c0 2.323-1.11 3.096-3.87 3.096h-21.89c-2.77 0-3.87-.773-3.87-3.096v-5.196c0-3.427.99-4.311 4.31-4.311 2.54 0 3.65-.663 3.65-3.206z"/><path d="m1615.63 352.885h6.75c10.06 0 12.6-3.649 12.6-9.729 0-6.081-2.54-9.729-12.6-9.729h-6.75zm0-32.503h5.53c6.97 0 9.84-2.212 9.84-7.85 0-6.191-2.87-8.402-9.84-8.402h-5.53zm-16.91-13.489c0-2.211-1.11-3.206-4.09-3.206-3.65 0-4.76-.995-4.76-3.759v-5.749c0-2.322 1.11-3.095 3.87-3.095h28.2c18.24 0 25.97 7.738 25.97 18.573 0 9.95-5.74 13.599-9.17 16.142 9.17 3.316 13.82 9.065 13.82 21.116 0 12.603-10.06 19.015-30.18 19.015h-28.64c-2.76 0-3.87-.773-3.87-3.095v-5.749c0-2.764 1.11-3.759 4.76-3.759 2.98 0 4.09-.995 4.09-3.206z"/><path d="m1697.13 306.893c0-2.211-1.1-3.206-4.09-3.206-3.87 0-4.98-.995-4.98-3.759v-5.749c0-2.322 1.11-3.095 3.88-3.095h28.41c2.76 0 3.87.773 3.87 3.095v6.081c0 2.542-1 3.427-6.41 3.427-2.66 0-3.76.884-3.76 3.206v45.992h8.4c10.06 0 6.3-6.744 16.81-6.744 5.52 0 6.74 1.106 6.74 2.874 0 1.438-4.98 13.599-5.64 15.257-.44 1.106-1.22 1.658-3.65 1.658h-44.77c-2.77 0-3.88-.773-3.88-3.095v-5.749c0-2.764 1.11-3.759 4.98-3.759 2.99 0 4.09-.995 4.09-3.206z"/><path d="m1804.61 350.121c0 2.211 1.1 3.206 4.09 3.206 3.87 0 4.97.995 4.97 3.759v5.749c0 2.322-1.1 3.095-3.86 3.095h-27.31c-2.77 0-3.87-.773-3.87-3.095v-5.749c0-2.764 1.1-3.759 4.97-3.759 2.99 0 4.1-.995 4.1-3.206v-43.228c0-2.211-1.11-3.206-4.1-3.206-3.87 0-4.97-.995-4.97-3.759v-5.749c0-2.322 1.1-3.095 3.87-3.095h27.31c2.76 0 3.86.773 3.86 3.095v5.749c0 2.764-1.1 3.759-4.97 3.759-2.99 0-4.09.995-4.09 3.206z"/><path d="m1877.92 361.951c0 11.829-5.09 20.563-22.88 20.563-5.53 0-16.26-2.322-16.26-7.407 0-2.875 1.44-7.849 4.76-7.849 2.1 0 5.31 1.215 8.62 1.215 6.86 0 8.85-2.432 8.85-7.96v-53.62c0-2.211-1.11-3.206-4.1-3.206-5.41 0-6.52-.995-6.52-3.759v-5.749c0-2.322 1.11-3.095 3.87-3.095h28.86c2.76 0 3.87.773 3.87 3.095v5.749c0 2.764-1.11 3.759-4.98 3.759-2.98 0-4.09.995-4.09 3.206z"/><path d="m1946.7 320.27h7.74c10.39 0 4.2-3.316 13.15-3.316 3.76 0 5.31.553 5.65 1.548.99 2.653 5.85 14.151 5.85 16.141 0 1.879-1.21 3.096-5.41 3.096-12.28 0-4.98-4.423-18.13-4.423h-8.85v19.569h13.93c10.06 0 6.3-6.744 16.81-6.744 5.52 0 6.74 1.106 6.74 2.874 0 1.438-4.97 13.599-5.64 15.257-.44 1.106-1.22 1.658-3.65 1.658h-50.08c-2.76 0-3.87-.773-3.87-3.095v-5.749c0-2.764 1.11-3.759 4.76-3.759 2.98 0 4.08-.995 4.08-3.206v-43.228c0-2.211-1.1-3.206-4.08-3.206-3.65 0-4.76-.995-4.76-3.759v-5.749c0-2.322 1.11-3.095 3.87-3.095h47.1c1.65 0 2.32.773 2.87 2.1.55 1.216 4.98 12.161 4.98 14.04 0 2.433-1.77 3.318-6.97 3.318-7.63 0-6.96-6.412-17.24-6.412h-8.85z"/><path d="m2080.5 365.93c-2.76 0-3.86-.773-3.86-3.095v-5.197c0-3.426.99-4.311 5.08-4.311 2.54 0 3.65-.663 3.65-3.206v-43.67c0-1.99-.89-2.764-4.53-2.764-3.32 0-4.2-.774-4.2-3.317v-6.191c0-2.322 1.1-3.095 3.86-3.095h26.98c1.88 0 2.99.663 3.43 2.431l12.6 43.45h.22l12.71-43.45c.45-1.768 1.55-2.431 3.43-2.431h25.76c2.77 0 3.87.773 3.87 3.095v5.86c0 2.763-.77 3.648-4.42 3.648-3.21 0-4.2.774-4.2 3.206v43.228c0 2.432.88 3.206 3.54 3.206 4.09 0 5.08.885 5.08 3.648v5.86c0 2.322-1.1 3.095-3.87 3.095h-22.33c-2.76 0-3.87-.773-3.87-3.095v-6.08c0-2.764.89-3.428 3.65-3.428 2.43 0 3.21-.774 3.21-3.206v-43.78h-.23l-15.81 56.605c-.66 2.211-1.54 2.984-3.2 2.984h-7.41c-1.66 0-2.54-.773-3.2-2.984l-17.14-56.605h-.22v43.78c0 2.543.88 3.206 3.87 3.206 2.32 0 3.54.774 3.54 3.648v5.86c0 2.322-1.11 3.095-3.88 3.095z"/><path d="m2229.56 320.27h7.74c10.39 0 4.2-3.316 13.16-3.316 3.76 0 5.3.553 5.63 1.548 1 2.653 5.86 14.151 5.86 16.141 0 1.879-1.21 3.096-5.42 3.096-12.26 0-4.97-4.423-18.13-4.423h-8.84v19.569h13.93c10.06 0 6.3-6.744 16.8-6.744 5.53 0 6.75 1.106 6.75 2.874 0 1.438-4.98 13.599-5.64 15.257-.44 1.106-1.21 1.658-3.65 1.658h-50.08c-2.76 0-3.87-.773-3.87-3.095v-5.749c0-2.764 1.11-3.759 4.75-3.759 2.99 0 4.1-.995 4.1-3.206v-43.228c0-2.211-1.11-3.206-4.1-3.206-3.64 0-4.75-.995-4.75-3.759v-5.749c0-2.322 1.11-3.095 3.87-3.095h47.1c1.66 0 2.32.773 2.87 2.1.56 1.216 4.98 12.161 4.98 14.04 0 2.433-1.77 3.318-6.97 3.318-7.63 0-6.96-6.412-17.25-6.412h-8.84z"/><path d="m2308.18 306.893c0-2.543-1.1-3.206-3.2-3.206-3.76 0-4.76-.885-4.76-4.311v-5.197c0-2.322 1.11-3.095 3.88-3.095h23.98c1.89 0 2.88.773 3.54 2.1l21.78 51.188h.11v-37.479c0-2.543-1.1-3.206-3.2-3.206-4.1 0-5.09-.885-5.09-4.311v-5.197c0-2.322 1.11-3.095 3.87-3.095h21.67c2.76 0 3.87.773 3.87 3.095v5.86c0 2.874-1.22 3.648-3.54 3.648-2.99 0-3.87.663-3.87 3.206v55.831c0 2.323-1.11 3.206-3.2 3.206h-14.82c-2.1 0-3.31-.773-4.09-2.653l-23-53.841h-.22v40.685c0 2.543 1.11 3.206 3.65 3.206 3.32 0 4.31.885 4.31 4.311v5.197c0 2.322-1.1 3.095-3.87 3.095h-21.88c-2.77 0-3.88-.773-3.88-3.095v-5.197c0-3.426 1-4.311 4.32-4.311 2.54 0 3.64-.663 3.64-3.206z"/><path d="m2437.01 289.757c7.73 0 17.35 2.1 19.67 6.412 1.44 2.764 3.87 9.729 3.87 12.493 0 1.548-.78 2.1-7.3 2.1-13.26 0-8.84-7.96-17.8-7.96-4.53 0-6.96 2.211-6.96 6.855 0 13.599 35.6 8.402 35.6 33.941 0 17.911-14.26 23.66-29.41 23.66-4.86 0-18.35-.996-21.45-7.077-1.54-2.984-3.98-8.844-3.98-11.718 0-2.101 1-3.317 7.19-3.317 14.37 0 11.16 9.066 21.34 9.066 6.63 0 9.4-2.433 9.4-8.182 0-14.262-35.61-10.281-35.61-34.936 0-15.588 11.28-21.337 25.44-21.337"/><path d="m2524.69 320.27h7.74c10.39 0 4.2-3.316 13.16-3.316 3.75 0 5.3.553 5.63 1.548 1 2.653 5.87 14.151 5.87 16.141 0 1.879-1.22 3.096-5.42 3.096-12.27 0-4.98-4.423-18.14-4.423h-8.84v19.569h13.93c10.06 0 6.3-6.744 16.8-6.744 5.53 0 6.75 1.106 6.75 2.874 0 1.438-4.98 13.599-5.64 15.257-.44 1.106-1.21 1.658-3.65 1.658h-50.08c-2.76 0-3.87-.773-3.87-3.095v-5.749c0-2.764 1.11-3.759 4.75-3.759 2.99 0 4.09-.995 4.09-3.206v-43.228c0-2.211-1.1-3.206-4.09-3.206-3.64 0-4.75-.995-4.75-3.759v-5.749c0-2.322 1.11-3.095 3.87-3.095h47.1c1.65 0 2.32.773 2.87 2.1.55 1.216 4.97 12.161 4.97 14.04 0 2.433-1.76 3.318-6.96 3.318-7.63 0-6.96-6.412-17.25-6.412h-8.84z"/><path d="m2603.31 306.893c0-2.543-1.1-3.206-3.21-3.206-3.75 0-4.75-.885-4.75-4.311v-5.197c0-2.322 1.11-3.095 3.87-3.095h23.99c1.89 0 2.88.773 3.54 2.1l21.78 51.188h.11v-37.479c0-2.543-1.1-3.206-3.2-3.206-4.09 0-5.09-.885-5.09-4.311v-5.197c0-2.322 1.11-3.095 3.87-3.095h21.67c2.76 0 3.87.773 3.87 3.095v5.86c0 2.874-1.22 3.648-3.54 3.648-2.98 0-3.87.663-3.87 3.206v55.831c0 2.323-1.1 3.206-3.2 3.206h-14.82c-2.1 0-3.31-.773-4.09-2.653l-23-53.841h-.22v40.685c0 2.543 1.11 3.206 3.65 3.206 3.32 0 4.31.885 4.31 4.311v5.197c0 2.322-1.1 3.095-3.86 3.095h-21.9c-2.76 0-3.87-.773-3.87-3.095v-5.197c0-3.426 1-4.311 4.31-4.311 2.55 0 3.65-.663 3.65-3.206z"/></g></g></svg>