<?xml version="1.0" encoding="utf-8"?>
<!-- Generator: Adobe Illustrator 24.1.3, SVG Export Plug-In . SVG Version: 6.00 Build 0)  -->
<svg version="1.1" xmlns="http://www.w3.org/2000/svg" xmlns:xlink="http://www.w3.org/1999/xlink" x="0px" y="0px"
	 viewBox="0 0 41.7 41.7" style="enable-background:new 0 0 41.7 41.7;" xml:space="preserve">
<style type="text/css">
	.st0{display:none;}
	.st1{display:inline;}
	.st2{clip-path:url(#SVGID_2_);}
	.st3{clip-path:url(#SVGID_4_);fill:#FFFFFF;}
	.st4{clip-path:url(#SVGID_6_);}
	.st5{clip-path:url(#SVGID_8_);}
	.st6{clip-path:url(#SVGID_10_);fill:#FFFFFF;}
	.st7{clip-path:url(#SVGID_12_);}
	.st8{fill:none;}
	.st9{fill:#1D1D1B;}
</style>
<g id="Quote" class="st0">
	<g class="st1">
		<path d="M33.5,14.7h-6.7v-3.8c0-1.2-1-2.2-2.2-2.2h-12c-1.2,0-2.2,1-2.2,2.2v21c0,1.2,1,2.2,2.2,2.2h12c1.2,0,2.2-1,2.2-2.2v-4.2
			l2.5-2.5h4.2c1.2,0,2.2-1,2.2-2.2v-6C35.8,15.7,34.8,14.7,33.5,14.7z M11.8,10.9c0-0.4,0.3-0.7,0.7-0.7h12c0.4,0,0.7,0.3,0.7,0.7
			v0.7H11.8V10.9z M25.4,31.8c0,0.4-0.3,0.7-0.7,0.7h-12c-0.4,0-0.7-0.3-0.7-0.7v-2.2h13.5v2.2H25.4z M25.4,28.1H11.8v-15h13.5v1.6
			h-0.7c-1.2,0-2.2,1-2.2,2.2v6c0,1.2,1,2.2,2.2,2.2h0.7C25.4,25.5,25.4,27.8,25.4,28.1z M34.3,22.9c0,0.4-0.3,0.7-0.7,0.7h-4.5
			c-0.2,0-0.4,0.1-0.5,0.2l-1.7,1.7v-1.2l0,0c0-0.4-0.3-0.7-0.7-0.7h-1.5c-0.4,0-0.7-0.3-0.7-0.7v-6c0-0.4,0.3-0.7,0.7-0.7h8.9
			c0.4,0,0.7,0.3,0.7,0.7V22.9z"/>
	</g>
	<g class="st1">
		<path d="M33.4,16.7h-6.3c-0.4,0-0.8,0.4-0.8,0.8s0.4,0.8,0.8,0.8h6.3c0.4,0,0.8-0.4,0.8-0.8S33.8,16.7,33.4,16.7z"/>
	</g>
	<g class="st1">
		<path d="M30.2,19.8H27c-0.4,0-0.8,0.4-0.8,0.8s0.4,0.8,0.8,0.8h3.2c0.4,0,0.8-0.4,0.8-0.8S30.7,19.8,30.2,19.8z"/>
	</g>
	<g class="st1">
		<path d="M20.8,2c10.4,0,18.8,8.4,18.8,18.8s-8.4,18.8-18.8,18.8S2,31.2,2,20.8S10.4,2,20.8,2 M20.8,0C9.3,0,0,9.3,0,20.8
			s9.3,20.8,20.8,20.8s20.8-9.3,20.8-20.8S32.3,0,20.8,0L20.8,0z"/>
	</g>
</g>
<g id="E-Signature" class="st0">
	<g class="st1">
		<g>
			<defs>
				<rect id="SVGID_1_" x="1.7" y="1" width="38.7" height="38.7"/>
			</defs>
			<clipPath id="SVGID_2_">
				<use xlink:href="#SVGID_1_"  style="overflow:visible;"/>
			</clipPath>
			<g class="st2">
				<defs>
					<rect id="SVGID_3_" x="1.7" y="1" width="38.7" height="38.7"/>
				</defs>
				<clipPath id="SVGID_4_">
					<use xlink:href="#SVGID_3_"  style="overflow:visible;"/>
				</clipPath>
				<path class="st3" d="M21,39.7c10.7,0,19.3-8.7,19.3-19.3C40.4,9.7,31.7,1,21,1S1.7,9.7,1.7,20.3C1.7,31,10.3,39.7,21,39.7"/>
			</g>
			<g class="st2">
				<defs>
					<rect id="SVGID_5_" x="1.7" y="1" width="38.7" height="38.7"/>
				</defs>
				<clipPath id="SVGID_6_">
					<use xlink:href="#SVGID_5_"  style="overflow:visible;"/>
				</clipPath>
				<path class="st4" d="M11.3,22c0.3,0,0.6-0.3,0.6-0.6c0-0.3-0.3-0.6-0.6-0.6H6.7c-0.3,0-0.6,0.3-0.6,0.6c0,0.3,0.3,0.6,0.6,0.6
					H11.3z"/>
				<path class="st4" d="M4.4,18.9h6.9c0.3,0,0.6-0.3,0.6-0.6c0-0.3-0.3-0.6-0.6-0.6H4.4c-0.3,0-0.6,0.3-0.6,0.6
					C3.8,18.6,4.1,18.9,4.4,18.9"/>
				<path class="st4" d="M11.9,24.4c0-0.3-0.3-0.6-0.6-0.6h-3c-0.3,0-0.6,0.3-0.6,0.6C7.7,24.8,8,25,8.3,25h3
					C11.6,25,11.9,24.8,11.9,24.4"/>
				<path class="st4" d="M37.6,16.3c-0.8-0.8-2.2-0.8-3.1,0c-0.3,0.3-1.9,1.9-2.2,2.2v-5.7c0-0.6-0.2-1.1-0.6-1.5l-2-2
					c-0.4-0.4-0.9-0.6-1.5-0.6H15.8c-1.2,0-2.2,1-2.2,2.2v20.2c0,1.2,1,2.2,2.2,2.2h14.4c1.2,0,2.2-1,2.2-2.2v-6.4l5.2-5.2
					C38.4,18.5,38.4,17.1,37.6,16.3 M30.4,24.6L30,24.9l-1.5,0.5l0.5-1.5l0.4-0.4L30.4,24.6z M31.4,23.5l-1-1c0.5-0.5,2.9-3,3.5-3.5
					l1,1L31.4,23.5z M28.7,10.2l2,2c0.2,0.2,0.2,0.5,0.2,0.6h-2.9V10C28.2,10,28.5,10,28.7,10.2 M30.2,31.7H15.8
					c-0.4,0-0.7-0.3-0.7-0.7V10.7c0-0.4,0.3-0.7,0.7-0.7h10.8v3.6c0,0.4,0.3,0.7,0.7,0.7h3.6v5.6L28.8,22l-1,1
					c-0.1,0.1-0.1,0.2-0.2,0.3l-1,3.1c-0.1,0.3,0,0.5,0.2,0.7c0.2,0.2,0.5,0.3,0.7,0.2l3.1-1c0.1,0,0.2-0.1,0.3-0.2l0.1-0.1v5
					C30.9,31.3,30.6,31.7,30.2,31.7 M36.6,18.3l-0.7,0.7l-1-1l0.7-0.7c0.3-0.3,0.7-0.3,1,0C36.9,17.6,36.9,18,36.6,18.3"/>
				<path class="st4" d="M17.3,17.2h10.1c0.4,0,0.7-0.3,0.7-0.7c0-0.4-0.3-0.7-0.7-0.7H17.3c-0.4,0-0.7,0.3-0.7,0.7
					C16.6,16.9,16.9,17.2,17.3,17.2"/>
				<path class="st4" d="M17.3,20.1h7.2c0.4,0,0.7-0.3,0.7-0.7c0-0.4-0.3-0.7-0.7-0.7h-7.2c-0.4,0-0.7,0.3-0.7,0.7
					C16.6,19.7,16.9,20.1,17.3,20.1"/>
				<path class="st4" d="M17.3,22.9h7.2c0.4,0,0.7-0.3,0.7-0.7c0-0.4-0.3-0.7-0.7-0.7h-7.2c-0.4,0-0.7,0.3-0.7,0.7
					C16.6,22.6,16.9,22.9,17.3,22.9"/>
				<path class="st4" d="M25.2,25.1c0-0.4-0.3-0.7-0.7-0.7h-7.2c-0.4,0-0.7,0.3-0.7,0.7c0,0.4,0.3,0.7,0.7,0.7h7.2
					C24.9,25.8,25.2,25.5,25.2,25.1"/>
				<path class="st4" d="M27.4,28.8H23c-0.4,0-0.7,0.3-0.7,0.7c0,0.4,0.3,0.7,0.7,0.7h4.3c0.4,0,0.7-0.3,0.7-0.7
					C28.1,29.1,27.7,28.8,27.4,28.8"/>
			</g>
		</g>
	</g>
	<g class="st1">
		<path d="M20.8,2c10.4,0,18.8,8.4,18.8,18.8s-8.4,18.8-18.8,18.8S2,31.2,2,20.8S10.4,2,20.8,2 M20.8,0C9.3,0,0,9.3,0,20.8
			s9.3,20.8,20.8,20.8s20.8-9.3,20.8-20.8S32.3,0,20.8,0L20.8,0z"/>
	</g>
</g>
<g id="Video_Ident" class="st0">
	<g class="st1">
		<g>
			<defs>
				<rect id="SVGID_7_" x="-0.2" y="0" width="41.7" height="41.7"/>
			</defs>
			<clipPath id="SVGID_8_">
				<use xlink:href="#SVGID_7_"  style="overflow:visible;"/>
			</clipPath>
			<g class="st5">
				<defs>
					<rect id="SVGID_9_" x="-0.2" y="0" width="41.7" height="41.7"/>
				</defs>
				<clipPath id="SVGID_10_">
					<use xlink:href="#SVGID_9_"  style="overflow:visible;"/>
				</clipPath>
				<path class="st6" d="M20.7,41.7c11.5,0,20.8-9.3,20.8-20.8C41.5,9.3,32.2,0,20.7,0S-0.2,9.3-0.2,20.8
					C-0.2,32.3,9.2,41.7,20.7,41.7"/>
			</g>
			<g class="st5">
				<defs>
					<rect id="SVGID_11_" x="-0.2" y="0" width="41.7" height="41.7"/>
				</defs>
				<clipPath id="SVGID_12_">
					<use xlink:href="#SVGID_11_"  style="overflow:visible;"/>
				</clipPath>
				<path class="st7" d="M25.3,23.2c0.1,0.1,0.3,0.2,0.5,0.2c0.2,0,0.4-0.1,0.5-0.2l5.3-5.3c0.4-0.4,0.4-1.2,0-1.6
					c-0.4-0.4-1.2-0.4-1.6,0l-4.2,4.2L24.3,19c-0.4-0.4-1.2-0.4-1.6,0c-0.4,0.4-0.4,1.2,0,1.6L25.3,23.2z"/>
				<path class="st7" d="M16.6,22.4h0.1c0.9,0,1.7-0.3,2.2-1c1.2-1.4,1-3.8,1-4c-0.1-1.7-0.9-2.5-1.5-2.9c-0.5-0.3-1.1-0.4-1.7-0.4
					h-0.1c-0.4,0-1,0.1-1.7,0.4c-0.7,0.4-1.5,1.2-1.6,2.9c0,0.2-0.2,2.6,1,4C14.9,22.1,15.7,22.4,16.6,22.4 M14.2,17.5
					C14.2,17.5,14.2,17.5,14.2,17.5c0.1-2.3,1.7-2.6,2.4-2.6h0c0.9,0,2.3,0.4,2.4,2.5c0,0,0,0,0,0c0,0,0.2,2.2-0.8,3.3
					c-0.4,0.5-0.9,0.7-1.6,0.7h0c-0.7,0-1.2-0.2-1.6-0.7C14,19.7,14.2,17.6,14.2,17.5"/>
				<path class="st7" d="M18.5,22.6c-0.1,0.2-0.1,0.5,0.1,0.6c0.1,0,1.3,0.9,2.9,1.3c0.7,0.3,0.8,1.1,0.8,1.8c0,0,0,0.1,0,0.1
					c0,0.2,0,0.4,0,0.5h0.9c0-0.3,0-0.5,0-0.6v0c0,0,0-0.1,0-0.1c0-0.6-0.1-2.1-1.4-2.6c0,0,0,0,0,0c-1.4-0.4-2.6-1.2-2.6-1.2
					C18.9,22.3,18.6,22.4,18.5,22.6"/>
				<path class="st7" d="M11,26.9c0-0.2,0-0.4,0-0.5c0,0,0-0.1,0-0.1c0-0.7,0.1-1.5,0.8-1.8c1.6-0.4,2.9-1.3,2.9-1.3
					c0.2-0.1,0.2-0.4,0.1-0.6s-0.4-0.2-0.6-0.1c0,0-1.2,0.8-2.6,1.2c0,0,0,0,0,0c-1.4,0.5-1.4,2-1.4,2.6c0,0,0,0.1,0,0.1v0
					c0,0.1,0,0.3,0,0.6H11z"/>
				<path class="st7" d="M33.9,10H7.4c-0.3,0-0.6,0.3-0.6,0.6v18.6c0,0.3,0.3,0.6,0.6,0.6H16v2.5h-1.7c-0.3,0-0.6,0.3-0.6,0.6
					c0,0.3,0.3,0.6,0.6,0.6h12.9c0.3,0,0.6-0.3,0.6-0.6c0-0.3-0.3-0.6-0.6-0.6h-1.4v-2.5h8.2c0.3,0,0.6-0.3,0.6-0.6V10.6
					C34.5,10.2,34.2,10,33.9,10 M24.5,32.3h-7.4v-2.5h7.4V32.3z M33.3,28.6H8V11.1h25.3V28.6z"/>
			</g>
		</g>
	</g>
	<g class="st1">
		<path d="M20.8,2c10.4,0,18.8,8.4,18.8,18.8s-8.4,18.8-18.8,18.8S2,31.2,2,20.8S10.4,2,20.8,2 M20.8,0C9.3,0,0,9.3,0,20.8
			s9.3,20.8,20.8,20.8s20.8-9.3,20.8-20.8S32.3,0,20.8,0L20.8,0z"/>
	</g>
</g>
<g id="E-Signature_1_">
	<g>
		<path d="M20.8,2c10.4,0,18.8,8.4,18.8,18.8s-8.4,18.8-18.8,18.8S2,31.2,2,20.8S10.4,2,20.8,2 M20.8,0C9.3,0,0,9.3,0,20.8
			s9.3,20.8,20.8,20.8s20.8-9.3,20.8-20.8S32.3,0,20.8,0L20.8,0z"/>
	</g>
	<g>
		<g>
			<path d="M24.1,12.2H13.7c-0.3,0-0.5-0.2-0.5-0.5c0-0.3,0.2-0.5,0.5-0.5h10.4c0.3,0,0.5,0.2,0.5,0.5
				C24.6,11.9,24.4,12.2,24.1,12.2z"/>
		</g>
		<g>
			<path d="M21.4,15.1h-7.7c-0.3,0-0.5-0.2-0.5-0.5c0-0.3,0.2-0.5,0.5-0.5h7.7c0.3,0,0.5,0.2,0.5,0.5C21.9,14.9,21.7,15.1,21.4,15.1
				z"/>
		</g>
		<g>
			<path d="M21.4,17.9h-7.7c-0.3,0-0.5-0.2-0.5-0.5c0-0.3,0.2-0.5,0.5-0.5h7.7c0.3,0,0.5,0.2,0.5,0.5C21.9,17.6,21.7,17.9,21.4,17.9
				z"/>
		</g>
		<g>
			<path d="M21.4,20.8h-7.7c-0.3,0-0.5-0.2-0.5-0.5c0-0.3,0.2-0.5,0.5-0.5h7.7c0.3,0,0.5,0.2,0.5,0.5C21.9,20.6,21.7,20.8,21.4,20.8
				z"/>
		</g>
		<g>
			<g>
				<path class="st8" d="M12.1,9.1v22.1h15.2v-5.5l-1.6,0.6c-0.1,0-0.1,0-0.2,0c-0.2,0-0.3-0.1-0.4-0.2c-0.2-0.2-0.2-0.4-0.1-0.7
					l1.5-3.7c0-0.1,0.1-0.2,0.1-0.2l0.8-0.8V9.1H12.1z"/>
			</g>
			<g>
				<circle class="st8" cx="19.8" cy="32.7" r="0.9"/>
			</g>
			<g>
				<path class="st8" d="M19.8,8.5c0.2,0,0.4-0.2,0.4-0.4c0-0.2-0.2-0.4-0.4-0.4c-0.2,0-0.4,0.2-0.4,0.4C19.4,8.3,19.5,8.5,19.8,8.5
					z"/>
			</g>
			<g>
				<polygon class="st8" points="29.3,20.7 28.5,21.5 29.3,22.3 29.8,22.8 33.4,19.2 32.1,18 				"/>
			</g>
			<g>
				<path class="st8" d="M34.2,18.3l0.9-0.9c0.1-0.2,0.3-0.6-0.2-1.1c-0.4-0.4-0.8-0.2-1,0L33,17.1L34.2,18.3z"/>
			</g>
			<g>
				<polygon class="st8" points="27.5,22.4 27.4,22.8 26.6,24.7 27.4,24.4 28.7,23.9 28.9,23.6 27.6,22.4 				"/>
			</g>
			<g>
				<path class="st9" d="M27.4,25.7v5.5H12.1V9.1h15.2v11.7l2-1.9V9.8c0-1.5-1.2-2.7-2.7-2.7H13c-1.5,0-2.7,1.2-2.7,2.7v21.7
					c0,1.5,1.2,2.7,2.7,2.7h13.6c1.5,0,2.7-1.2,2.7-2.7v-6.5c0,0,0,0-0.1,0L27.4,25.7z M19.8,7.7c0.2,0,0.4,0.2,0.4,0.4
					c0,0.2-0.2,0.4-0.4,0.4c-0.2,0-0.4-0.2-0.4-0.4C19.4,7.9,19.5,7.7,19.8,7.7z M19.8,33.6c-0.5,0-0.9-0.4-0.9-0.9
					c0-0.5,0.4-0.9,0.9-0.9c0.5,0,0.9,0.4,0.9,0.9C20.7,33.2,20.3,33.6,19.8,33.6z"/>
			</g>
			<g>
				<path d="M35.8,15.5c-0.6-0.6-1.2-0.7-1.9-0.5c-0.5,0.2-0.8,0.5-0.8,0.5L29.3,19l-2,1.9l-0.8,0.8c-0.1,0.1-0.1,0.1-0.1,0.2
					l-1.5,3.7c-0.1,0.2,0,0.5,0.1,0.7c0.1,0.1,0.3,0.2,0.4,0.2c0.1,0,0.1,0,0.2,0l1.6-0.6l1.9-0.7c0,0,0,0,0.1,0
					c0.1,0,0.1-0.1,0.2-0.1l0.6-0.6c0.1,0,0.2-0.1,0.2-0.2c0-0.1,0.1-0.1,0.1-0.2l4.2-4.2l1.4-1.4c0,0,0,0,0.1-0.1
					C36.4,17.7,36.8,16.5,35.8,15.5z M28.7,23.9l-1.3,0.5l-0.8,0.3l0.8-1.9l0.2-0.4l0,0l1.4,1.2L28.7,23.9z M29.8,22.8l-0.5-0.4
					l-0.9-0.8l0.9-0.8l2.8-2.7l1.2,1.2L29.8,22.8z M34.9,16.4c0.5,0.5,0.3,0.9,0.2,1.1l-0.9,0.9L33,17.1l0.8-0.8
					C34,16.2,34.5,15.9,34.9,16.4z"/>
			</g>
		</g>
		<g>
			<g>
				<path class="st9" d="M17,29.5c1.5-0.6,2.5-2.2,2.3-3.9c-0.1-1.5-1.4-1.9-2.1-0.5c-0.7,1.4-0.4,3.4,1.1,4.2
					c1.4,0.8,2.7-0.4,2.9-1.8c0.1-0.4-0.6-0.6-0.8-0.2c-0.2,0.3-0.2,0.8,0.1,1.1c0.5,0.5,1.6-0.3,1.9,0.5c0.1,0.4,0.6,0.4,0.8,0
					c0.1-0.2,1.8-1.2,2-1.2c0.5,0,0.5-0.8,0-0.8c-0.6,0-1,0.5-1.5,0.7c-0.6,0.3-1,0.4-1.3,1c0.3,0,0.5,0,0.8,0
					c-0.1-0.4-0.4-0.8-0.7-1c-0.1-0.1-0.3-0.1-0.4-0.1c-0.1,0-0.9,0.1-1,0.1c-0.3-0.1-0.5-0.1-0.8-0.2c-0.2,1.2-1.3,1.6-2.1,0.7
					c-0.7-0.7-0.7-2-0.2-2.8c0.3-0.6,0.5-0.2,0.6,0.2c0.1,0.4,0,0.9-0.2,1.3c-0.3,0.8-0.8,1.5-1.6,1.8C16.3,28.9,16.5,29.7,17,29.5
					L17,29.5z"/>
			</g>
		</g>
	</g>
</g>
</svg>
