<?xml version="1.0" encoding="utf-8"?>
<!-- Generator: Adobe Illustrator 23.0.2, SVG Export Plug-In . SVG Version: 6.00 Build 0)  -->
<svg version="1.1" id="Ebene_1" xmlns="http://www.w3.org/2000/svg" xmlns:xlink="http://www.w3.org/1999/xlink" x="0px" y="0px"
	 viewBox="0 0 41.7 41.7" style="enable-background:new 0 0 41.7 41.7;" xml:space="preserve">
<g>
	<path d="M33.5,14.7h-6.7v-3.8c0-1.2-1-2.2-2.2-2.2h-12c-1.2,0-2.2,1-2.2,2.2v21c0,1.2,1,2.2,2.2,2.2h12c1.2,0,2.2-1,2.2-2.2v-4.2
		l2.5-2.5h4.2c1.2,0,2.2-1,2.2-2.2v-6C35.8,15.7,34.8,14.7,33.5,14.7z M11.8,10.9c0-0.4,0.3-0.7,0.7-0.7h12c0.4,0,0.7,0.3,0.7,0.7
		v0.7H11.8V10.9z M25.4,31.8c0,0.4-0.3,0.7-0.7,0.7h-12c-0.4,0-0.7-0.3-0.7-0.7v-2.2h13.5V31.8z M25.4,28.1H11.8v-15h13.5v1.6h-0.7
		c-1.2,0-2.2,1-2.2,2.2v6c0,1.2,1,2.2,2.2,2.2h0.7C25.4,25.5,25.4,27.8,25.4,28.1z M34.3,22.9c0,0.4-0.3,0.7-0.7,0.7h-4.5
		c-0.2,0-0.4,0.1-0.5,0.2l-1.7,1.7v-1.2v0c0-0.4-0.3-0.7-0.7-0.7h-1.5c-0.4,0-0.7-0.3-0.7-0.7v-6c0-0.4,0.3-0.7,0.7-0.7h8.9
		c0.4,0,0.7,0.3,0.7,0.7V22.9z"/>
</g>
<g>
	<path d="M33.4,16.7h-6.3c-0.4,0-0.8,0.4-0.8,0.8s0.4,0.8,0.8,0.8h6.3c0.4,0,0.8-0.4,0.8-0.8S33.8,16.7,33.4,16.7z"/>
</g>
<g>
	<path d="M30.2,19.8h-3.2c-0.4,0-0.8,0.4-0.8,0.8s0.4,0.8,0.8,0.8h3.2c0.4,0,0.8-0.4,0.8-0.8S30.7,19.8,30.2,19.8z"/>
</g>
<g>
	<path d="M20.8,2c10.4,0,18.8,8.4,18.8,18.8s-8.4,18.8-18.8,18.8S2,31.2,2,20.8S10.4,2,20.8,2 M20.8,0C9.3,0,0,9.3,0,20.8
		s9.3,20.8,20.8,20.8c11.5,0,20.8-9.3,20.8-20.8S32.3,0,20.8,0L20.8,0z"/>
</g>
</svg>
