<svg xmlns="http://www.w3.org/2000/svg" width="48" height="48" viewBox="0 0 48 48">
    <g fill="#0067A5" fill-rule="evenodd">
        <path d="M42.532 28.717a7.14 7.14 0 0 0 .02-.49c0-3.748-2.961-6.788-6.614-6.788a6.46 6.46 0 0 0-3.621 1.11c-1.258-2.516-3.809-4.238-6.753-4.238-4.19 0-7.587 3.487-7.587 7.789 0 .16.006.319.015.477a5.991 5.991 0 0 0-.5-.023c-3.347 0-6.061 2.786-6.061 6.223 0 3.424 2.693 6.2 6.023 6.222V39h26.23c.134-.056.265-.117.392-.183 1.705-.885 2.874-2.7 2.874-4.794 0-2.682-1.915-4.905-4.418-5.306"/>
        <path d="M16.676 25.223c.431-4.645 4.253-8.29 8.888-8.29 2.903 0 5.57 1.424 7.234 3.792a7.754 7.754 0 0 1 3.14-.663c.07 0 .139.003.208.005-.498-5.061-4.661-9.012-9.723-9.012-3.832 0-7.147 2.265-8.749 5.561a6.907 6.907 0 0 0-3.95-1.238c-3.904 0-7.07 3.248-7.07 7.256 0 .539.06 1.063.168 1.568C3.568 24.442 1 27.226 1 30.628c0 3.56 2.81 6.444 6.278 6.444h4.115a7.687 7.687 0 0 1-1.304-4.295c0-3.908 2.887-7.136 6.587-7.554"/>
    </g>
</svg>
