<svg width="104" height="75" viewBox="0 0 104 75" fill="none" xmlns="http://www.w3.org/2000/svg">
<path d="M32.2683 73.7399C13.0114 73.7399 6.45729 49.9218 4.98869 45.2882C1.30067 33.653 0.179512 23.1722 0.0608273 22.0722C-0.624006 15.7255 4.58062 11.309 10.2927 11.309C14.6179 11.309 19.6376 13.8412 20.3024 19.9847C20.4179 21.0181 21.2971 29.93 24.4077 39.6407C27.654 49.7751 31.0977 53.6726 33.5777 53.6726C37.5826 53.6726 40.0261 43.6123 42.1863 34.0331C43.7777 26.9758 45.4982 19.8642 48.8945 13.5472C54.8037 2.55731 63.7328 0 71.4466 0C88.3612 0 96.8267 19.1665 96.8267 24.1323C96.8267 32.4309 89.9062 34.5476 86.9067 34.5476C80.3461 34.5476 78.1222 30.2484 76.2502 26.4801C74.5666 23.0899 72.808 20.2711 70.5344 20.2711C69.7874 20.2711 69.095 20.6413 68.4548 21.2779C62.8038 26.8951 60.9088 56.2818 49.6101 67.5135C43.346 73.7399 36.5306 73.7399 32.2683 73.7399Z" fill="url(#paint0_linear)"/>
<path d="M32.2683 73.7399C13.0114 73.7399 6.45729 49.9218 4.98869 45.2882C1.30067 33.653 0.179512 23.1722 0.0608273 22.0722C-0.624006 15.7255 4.58062 11.309 10.2927 11.309C14.6179 11.309 19.6376 13.8412 20.3024 19.9847C20.4179 21.0181 21.2971 29.93 24.4077 39.6407C27.654 49.7751 31.0977 53.6726 33.5777 53.6726C37.5826 53.6726 40.0261 43.6123 42.1863 34.0331C43.7777 26.9758 45.4982 19.8642 48.8945 13.5472C54.8037 2.55731 63.7328 0 71.4466 0C88.3612 0 96.8267 19.1665 96.8267 24.1323C96.8267 32.4309 89.9062 34.5476 86.9067 34.5476C80.3461 34.5476 78.1222 30.2484 76.2502 26.4801C74.5666 23.0899 72.808 20.2711 70.5344 20.2711C69.7874 20.2711 69.095 20.6413 68.4548 21.2779C62.8038 26.8951 60.9088 56.2818 49.6101 67.5135C43.346 73.7399 36.5306 73.7399 32.2683 73.7399Z" fill="url(#paint1_radial)"/>
<path d="M32.2683 73.7399C13.0114 73.7399 6.45729 49.9218 4.98869 45.2882C1.30067 33.653 0.179512 23.1722 0.0608273 22.0722C-0.624006 15.7255 4.58062 11.309 10.2927 11.309C14.6179 11.309 19.6376 13.8412 20.3024 19.9847C20.4179 21.0181 21.2971 29.93 24.4077 39.6407C27.654 49.7751 31.0977 53.6726 33.5777 53.6726C37.5826 53.6726 40.0261 43.6123 42.1863 34.0331C43.7777 26.9758 45.4982 19.8642 48.8945 13.5472C54.8037 2.55731 63.7328 0 71.4466 0C88.3612 0 96.8267 19.1665 96.8267 24.1323C96.8267 32.4309 89.9062 34.5476 86.9067 34.5476C80.3461 34.5476 78.1222 30.2484 76.2502 26.4801C74.5666 23.0899 72.808 20.2711 70.5344 20.2711C69.7874 20.2711 69.095 20.6413 68.4548 21.2779C62.8038 26.8951 60.9088 56.2818 49.6101 67.5135C43.346 73.7399 36.5306 73.7399 32.2683 73.7399Z" fill="url(#paint2_radial)"/>
<path d="M32.2683 73.7399C13.0114 73.7399 6.45729 49.9218 4.98869 45.2882C1.30067 33.653 0.179512 23.1722 0.0608273 22.0722C-0.624006 15.7255 4.58062 11.309 10.2927 11.309C14.6179 11.309 19.6376 13.8412 20.3024 19.9847C20.4179 21.0181 21.2971 29.93 24.4077 39.6407C27.654 49.7751 31.0977 53.6726 33.5777 53.6726C37.5826 53.6726 40.0261 43.6123 42.1863 34.0331C43.7777 26.9758 45.4982 19.8642 48.8945 13.5472C54.8037 2.55731 63.7328 0 71.4466 0C88.3612 0 96.8267 19.1665 96.8267 24.1323C96.8267 32.4309 89.9062 34.5476 86.9067 34.5476C80.3461 34.5476 78.1222 30.2484 76.2502 26.4801C74.5666 23.0899 72.808 20.2711 70.5344 20.2711C69.7874 20.2711 69.095 20.6413 68.4548 21.2779C62.8038 26.8951 60.9088 56.2818 49.6101 67.5135C43.346 73.7399 36.5306 73.7399 32.2683 73.7399Z" fill="url(#paint3_radial)"/>
<path d="M32.2683 73.7399C13.0114 73.7399 6.45729 49.9218 4.98869 45.2882C1.30067 33.653 0.179512 23.1722 0.0608273 22.0722C-0.624006 15.7255 4.58062 11.309 10.2927 11.309C14.6179 11.309 19.6376 13.8412 20.3024 19.9847C20.4179 21.0181 21.2971 29.93 24.4077 39.6407C27.654 49.7751 31.0977 53.6726 33.5777 53.6726C37.5826 53.6726 40.0261 43.6123 42.1863 34.0331C43.7777 26.9758 45.4982 19.8642 48.8945 13.5472C54.8037 2.55731 63.7328 0 71.4466 0C88.3612 0 96.8267 19.1665 96.8267 24.1323C96.8267 32.4309 89.9062 34.5476 86.9067 34.5476C80.3461 34.5476 78.1222 30.2484 76.2502 26.4801C74.5666 23.0899 72.808 20.2711 70.5344 20.2711C69.7874 20.2711 69.095 20.6413 68.4548 21.2779C62.8038 26.8951 60.9088 56.2818 49.6101 67.5135C43.346 73.7399 36.5306 73.7399 32.2683 73.7399Z" fill="url(#paint4_radial)"/>
<path d="M32.2683 73.7399C13.0114 73.7399 6.45729 49.9218 4.98869 45.2882C1.30067 33.653 0.179512 23.1722 0.0608273 22.0722C-0.624006 15.7255 4.58062 11.309 10.2927 11.309C14.6179 11.309 19.6376 13.8412 20.3024 19.9847C20.4179 21.0181 21.2971 29.93 24.4077 39.6407C27.654 49.7751 31.0977 53.6726 33.5777 53.6726C37.5826 53.6726 40.0261 43.6123 42.1863 34.0331C43.7777 26.9758 45.4982 19.8642 48.8945 13.5472C54.8037 2.55731 63.7328 0 71.4466 0C88.3612 0 96.8267 19.1665 96.8267 24.1323C96.8267 32.4309 89.9062 34.5476 86.9067 34.5476C80.3461 34.5476 78.1222 30.2484 76.2502 26.4801C74.5666 23.0899 72.808 20.2711 70.5344 20.2711C69.7874 20.2711 69.095 20.6413 68.4548 21.2779C62.8038 26.8951 60.9088 56.2818 49.6101 67.5135C43.346 73.7399 36.5306 73.7399 32.2683 73.7399Z" fill="url(#paint5_radial)"/>
<path d="M32.2683 73.7399C13.0114 73.7399 6.45729 49.9218 4.98869 45.2882C1.30067 33.653 0.179512 23.1722 0.0608273 22.0722C-0.624006 15.7255 4.58062 11.309 10.2927 11.309C14.6179 11.309 19.6376 13.8412 20.3024 19.9847C20.4179 21.0181 21.2971 29.93 24.4077 39.6407C27.654 49.7751 31.0977 53.6726 33.5777 53.6726C37.5826 53.6726 40.0261 43.6123 42.1863 34.0331C43.7777 26.9758 45.4982 19.8642 48.8945 13.5472C54.8037 2.55731 63.7328 0 71.4466 0C88.3612 0 96.8267 19.1665 96.8267 24.1323C96.8267 32.4309 89.9062 34.5476 86.9067 34.5476C80.3461 34.5476 78.1222 30.2484 76.2502 26.4801C74.5666 23.0899 72.808 20.2711 70.5344 20.2711C69.7874 20.2711 69.095 20.6413 68.4548 21.2779C62.8038 26.8951 60.9088 56.2818 49.6101 67.5135C43.346 73.7399 36.5306 73.7399 32.2683 73.7399Z" fill="url(#paint6_radial)"/>
<path d="M32.2683 73.7399C13.0114 73.7399 6.45729 49.9218 4.98869 45.2882C1.30067 33.653 0.179512 23.1722 0.0608273 22.0722C-0.624006 15.7255 4.58062 11.309 10.2927 11.309C14.6179 11.309 19.6376 13.8412 20.3024 19.9847C20.4179 21.0181 21.2971 29.93 24.4077 39.6407C27.654 49.7751 31.0977 53.6726 33.5777 53.6726C37.5826 53.6726 40.0261 43.6123 42.1863 34.0331C43.7777 26.9758 45.4982 19.8642 48.8945 13.5472C54.8037 2.55731 63.7328 0 71.4466 0C88.3612 0 96.8267 19.1665 96.8267 24.1323C96.8267 32.4309 89.9062 34.5476 86.9067 34.5476C80.3461 34.5476 78.1222 30.2484 76.2502 26.4801C74.5666 23.0899 72.808 20.2711 70.5344 20.2711C69.7874 20.2711 69.095 20.6413 68.4548 21.2779C62.8038 26.8951 60.9088 56.2818 49.6101 67.5135C43.346 73.7399 36.5306 73.7399 32.2683 73.7399Z" fill="url(#paint7_linear)"/>
<path d="M32.2683 73.7399C13.0114 73.7399 6.45729 49.9218 4.98869 45.2882C1.30067 33.653 0.179512 23.1722 0.0608273 22.0722C-0.624006 15.7255 4.58062 11.309 10.2927 11.309C14.6179 11.309 19.6376 13.8412 20.3024 19.9847C20.4179 21.0181 21.2971 29.93 24.4077 39.6407C27.654 49.7751 31.0977 53.6726 33.5777 53.6726C37.5826 53.6726 40.0261 43.6123 42.1863 34.0331C43.7777 26.9758 45.4982 19.8642 48.8945 13.5472C54.8037 2.55731 63.7328 0 71.4466 0C88.3612 0 96.8267 19.1665 96.8267 24.1323C96.8267 32.4309 89.9062 34.5476 86.9067 34.5476C80.3461 34.5476 78.1222 30.2484 76.2502 26.4801C74.5666 23.0899 72.808 20.2711 70.5344 20.2711C69.7874 20.2711 69.095 20.6413 68.4548 21.2779C62.8038 26.8951 60.9088 56.2818 49.6101 67.5135C43.346 73.7399 36.5306 73.7399 32.2683 73.7399Z" fill="url(#paint8_radial)"/>
<path d="M71.4469 0C63.7331 0 54.804 2.55732 48.8948 13.5472C45.4983 19.8642 43.778 26.9758 42.1866 34.0331C41.6626 36.3555 41.1221 38.7059 40.5471 40.9347V72.8655C43.466 72.0577 46.6018 70.5039 49.6104 67.5135C60.9091 56.2818 62.8041 26.8951 68.4551 21.2779C69.0953 20.6413 69.7877 20.2711 70.5347 20.2711C72.8083 20.2711 74.5668 23.0899 76.2505 26.4801C78.1225 30.2484 80.3464 34.5476 86.9069 34.5476C89.9064 34.5476 96.827 32.4309 96.827 24.1323C96.827 19.1665 88.3615 0 71.4469 0Z" fill="url(#paint9_radial)"/>
<path d="M32.2683 73.7399C13.0114 73.7399 6.45729 49.9218 4.98869 45.2882C1.30067 33.653 0.179512 23.1722 0.0608273 22.0722C-0.624006 15.7255 4.58062 11.309 10.2927 11.309C14.6179 11.309 19.6376 13.8412 20.3024 19.9847C20.4179 21.0181 21.2971 29.93 24.4077 39.6407C27.654 49.7751 31.0977 53.6726 33.5777 53.6726C37.5826 53.6726 40.0261 43.6123 42.1863 34.0331C43.7777 26.9758 45.4982 19.8642 48.8945 13.5472C54.8037 2.55731 63.7328 0 71.4466 0C88.3612 0 96.8267 19.1665 96.8267 24.1323C96.8267 32.4309 89.9062 34.5476 86.9067 34.5476C80.3461 34.5476 78.1222 30.2484 76.2502 26.4801C74.5666 23.0899 72.808 20.2711 70.5344 20.2711C69.7874 20.2711 69.095 20.6413 68.4548 21.2779C62.8038 26.8951 60.9088 56.2818 49.6101 67.5135C43.346 73.7399 36.5306 73.7399 32.2683 73.7399Z" fill="url(#paint10_radial)"/>
<path d="M32.2683 73.7399C13.0114 73.7399 6.45729 49.9218 4.98869 45.2882C1.30067 33.653 0.179512 23.1722 0.0608273 22.0722C-0.624006 15.7255 4.58062 11.309 10.2927 11.309C14.6179 11.309 19.6376 13.8412 20.3024 19.9847C20.4179 21.0181 21.2971 29.93 24.4077 39.6407C27.654 49.7751 31.0977 53.6726 33.5777 53.6726C37.5826 53.6726 40.0261 43.6123 42.1863 34.0331C43.7777 26.9758 45.4982 19.8642 48.8945 13.5472C54.8037 2.55731 63.7328 0 71.4466 0C88.3612 0 96.8267 19.1665 96.8267 24.1323C96.8267 32.4309 89.9062 34.5476 86.9067 34.5476C80.3461 34.5476 78.1222 30.2484 76.2502 26.4801C74.5666 23.0899 72.808 20.2711 70.5344 20.2711C69.7874 20.2711 69.095 20.6413 68.4548 21.2779C62.8038 26.8951 60.9088 56.2818 49.6101 67.5135C43.346 73.7399 36.5306 73.7399 32.2683 73.7399Z" fill="url(#paint11_radial)"/>
<path d="M32.2683 73.7399C13.0114 73.7399 6.45729 49.9218 4.98869 45.2882C1.30067 33.653 0.179512 23.1722 0.0608273 22.0722C-0.624006 15.7255 4.58062 11.309 10.2927 11.309C14.6179 11.309 19.6376 13.8412 20.3024 19.9847C20.4179 21.0181 21.2971 29.93 24.4077 39.6407C27.654 49.7751 31.0977 53.6726 33.5777 53.6726C37.5826 53.6726 40.0261 43.6123 42.1863 34.0331C43.7777 26.9758 45.4982 19.8642 48.8945 13.5472C54.8037 2.55731 63.7328 0 71.4466 0C88.3612 0 96.8267 19.1665 96.8267 24.1323C96.8267 32.4309 89.9062 34.5476 86.9067 34.5476C80.3461 34.5476 78.1222 30.2484 76.2502 26.4801C74.5666 23.0899 72.808 20.2711 70.5344 20.2711C69.7874 20.2711 69.095 20.6413 68.4548 21.2779C62.8038 26.8951 60.9088 56.2818 49.6101 67.5135C43.346 73.7399 36.5306 73.7399 32.2683 73.7399Z" fill="url(#paint12_radial)"/>
<path d="M32.2683 73.7399C13.0114 73.7399 6.45729 49.9218 4.98869 45.2882C1.30067 33.653 0.179512 23.1722 0.0608273 22.0722C-0.624006 15.7255 4.58062 11.309 10.2927 11.309C14.6179 11.309 19.6376 13.8412 20.3024 19.9847C20.4179 21.0181 21.2971 29.93 24.4077 39.6407C27.654 49.7751 31.0977 53.6726 33.5777 53.6726C37.5826 53.6726 40.0261 43.6123 42.1863 34.0331C43.7777 26.9758 45.4982 19.8642 48.8945 13.5472C54.8037 2.55731 63.7328 0 71.4466 0C88.3612 0 96.8267 19.1665 96.8267 24.1323C96.8267 32.4309 89.9062 34.5476 86.9067 34.5476C80.3461 34.5476 78.1222 30.2484 76.2502 26.4801C74.5666 23.0899 72.808 20.2711 70.5344 20.2711C69.7874 20.2711 69.095 20.6413 68.4548 21.2779C62.8038 26.8951 60.9088 56.2818 49.6101 67.5135C43.346 73.7399 36.5306 73.7399 32.2683 73.7399Z" fill="url(#paint13_radial)"/>
<path d="M32.2683 73.7399C13.0114 73.7399 6.45729 49.9218 4.98869 45.2882C1.30067 33.653 0.179512 23.1722 0.0608273 22.0722C-0.624006 15.7255 4.58062 11.309 10.2927 11.309C14.6179 11.309 19.6376 13.8412 20.3024 19.9847C20.4179 21.0181 21.2971 29.93 24.4077 39.6407C27.654 49.7751 31.0977 53.6726 33.5777 53.6726C37.5826 53.6726 40.0261 43.6123 42.1863 34.0331C43.7777 26.9758 45.4982 19.8642 48.8945 13.5472C54.8037 2.55731 63.7328 0 71.4466 0C88.3612 0 96.8267 19.1665 96.8267 24.1323C96.8267 32.4309 89.9062 34.5476 86.9067 34.5476C80.3461 34.5476 78.1222 30.2484 76.2502 26.4801C74.5666 23.0899 72.808 20.2711 70.5344 20.2711C69.7874 20.2711 69.095 20.6413 68.4548 21.2779C62.8038 26.8951 60.9088 56.2818 49.6101 67.5135C43.346 73.7399 36.5306 73.7399 32.2683 73.7399Z" fill="url(#paint14_radial)"/>
<path d="M93.7097 11.309C92.9474 11.309 92.1804 11.3794 91.4282 11.5243C95.0037 16.5668 96.7927 21.8493 96.7927 24.1317C96.7927 32.4304 89.872 34.5472 86.8726 34.5472C84.5318 34.5472 82.7434 33.9996 81.3259 33.1243C81.3127 33.1762 81.2997 33.2278 81.2864 33.2797C80.8649 34.9267 80.5321 36.7293 79.9561 38.4834C78.8487 41.8563 77.3551 45.7091 75.7599 48.6903C74.0406 51.9043 72.3383 53.7847 70.3092 53.686C68.0018 53.574 66.131 50.6651 63.8057 42.4439C63.0558 39.7931 62.3615 36.8869 61.718 34.0331C60.1219 26.9548 58.1627 19.837 54.8128 13.5472C49.3412 3.27427 40.0074 0 32.5559 0C25.6454 0 20.4824 3.19993 16.4266 7.23155C15.3058 8.34574 14.0815 9.8468 12.8518 11.6108C16.3893 12.4443 19.7342 15.0485 20.2684 19.9841C20.3735 20.9252 21.112 28.3994 23.5921 37.0607C24.3038 34.8891 25.3414 31.6733 27.752 26.4801C28.9335 24.1018 29.9996 22.5335 30.9616 21.5773C31.8438 20.7004 32.6383 20.3382 33.3535 20.3382C34.125 20.3382 36.7591 21.0288 39.3234 29.8299C42.5037 40.7432 44.8705 58.1117 53.8878 67.3336C57.865 71.4015 63.4308 74.0333 71.1444 74.0333C77.9128 74.0333 83.5557 71.1179 87.579 67.0625C94.1942 60.3937 97.8191 49.3682 99.1121 45.2882C102.791 33.6809 103.822 23.1829 103.942 22.0722C104.627 15.7255 99.1597 11.309 93.7097 11.309Z" fill="#316AFF"/>
<path d="M93.7097 11.309C92.9474 11.309 92.1804 11.3794 91.4282 11.5243C95.0037 16.5668 96.7927 21.8493 96.7927 24.1317C96.7927 32.4304 89.872 34.5472 86.8726 34.5472C84.5318 34.5472 82.7434 33.9996 81.3259 33.1243C81.3127 33.1762 81.2997 33.2278 81.2864 33.2797C80.8649 34.9267 80.5321 36.7293 79.9561 38.4834C78.8487 41.8563 77.3551 45.7091 75.7599 48.6903C74.0406 51.9043 72.3383 53.7847 70.3092 53.686C68.0018 53.574 66.131 50.6651 63.8057 42.4439C63.0558 39.7931 62.3615 36.8869 61.718 34.0331C60.1219 26.9548 58.1627 19.837 54.8128 13.5472C49.3412 3.27427 40.0074 0 32.5559 0C25.6454 0 20.4824 3.19993 16.4266 7.23155C15.3058 8.34574 14.0815 9.8468 12.8518 11.6108C16.3893 12.4443 19.7342 15.0485 20.2684 19.9841C20.3735 20.9252 21.112 28.3994 23.5921 37.0607C24.3038 34.8891 25.3414 31.6733 27.752 26.4801C28.9335 24.1018 29.9996 22.5335 30.9616 21.5773C31.8438 20.7004 32.6383 20.3382 33.3535 20.3382C34.125 20.3382 36.7591 21.0288 39.3234 29.8299C42.5037 40.7432 44.8705 58.1117 53.8878 67.3336C57.865 71.4015 63.4308 74.0333 71.1444 74.0333C77.9128 74.0333 83.5557 71.1179 87.579 67.0625C94.1942 60.3937 97.8191 49.3682 99.1121 45.2882C102.791 33.6809 103.822 23.1829 103.942 22.0722C104.627 15.7255 99.1597 11.309 93.7097 11.309Z" fill="url(#paint15_radial)"/>
<path d="M93.7097 11.309C92.9474 11.309 92.1804 11.3794 91.4282 11.5243C95.0037 16.5668 96.7927 21.8493 96.7927 24.1317C96.7927 32.4304 89.872 34.5472 86.8726 34.5472C84.5318 34.5472 82.7434 33.9996 81.3259 33.1243C81.3127 33.1762 81.2997 33.2278 81.2864 33.2797C80.8649 34.9267 80.5321 36.7293 79.9561 38.4834C78.8487 41.8563 77.3551 45.7091 75.7599 48.6903C74.0406 51.9043 72.3383 53.7847 70.3092 53.686C68.0018 53.574 66.131 50.6651 63.8057 42.4439C63.0558 39.7931 62.3615 36.8869 61.718 34.0331C60.1219 26.9548 58.1627 19.837 54.8128 13.5472C49.3412 3.27427 40.0074 0 32.5559 0C25.6454 0 20.4824 3.19993 16.4266 7.23155C15.3058 8.34574 14.0815 9.8468 12.8518 11.6108C16.3893 12.4443 19.7342 15.0485 20.2684 19.9841C20.3735 20.9252 21.112 28.3994 23.5921 37.0607C24.3038 34.8891 25.3414 31.6733 27.752 26.4801C28.9335 24.1018 29.9996 22.5335 30.9616 21.5773C31.8438 20.7004 32.6383 20.3382 33.3535 20.3382C34.125 20.3382 36.7591 21.0288 39.3234 29.8299C42.5037 40.7432 44.8705 58.1117 53.8878 67.3336C57.865 71.4015 63.4308 74.0333 71.1444 74.0333C77.9128 74.0333 83.5557 71.1179 87.579 67.0625C94.1942 60.3937 97.8191 49.3682 99.1121 45.2882C102.791 33.6809 103.822 23.1829 103.942 22.0722C104.627 15.7255 99.1597 11.309 93.7097 11.309Z" fill="url(#paint16_radial)"/>
<path d="M93.7097 11.309C92.9474 11.309 92.1804 11.3794 91.4282 11.5243C95.0037 16.5668 96.7927 21.8493 96.7927 24.1317C96.7927 32.4304 89.872 34.5472 86.8726 34.5472C84.5318 34.5472 82.7434 33.9996 81.3259 33.1243C81.3127 33.1762 81.2997 33.2278 81.2864 33.2797C80.8649 34.9267 80.5321 36.7293 79.9561 38.4834C78.8487 41.8563 77.3551 45.7091 75.7599 48.6903C74.0406 51.9043 72.3383 53.7847 70.3092 53.686C68.0018 53.574 66.131 50.6651 63.8057 42.4439C63.0558 39.7931 62.3615 36.8869 61.718 34.0331C60.1219 26.9548 58.1627 19.837 54.8128 13.5472C49.3412 3.27427 40.0074 0 32.5559 0C25.6454 0 20.4824 3.19993 16.4266 7.23155C15.3058 8.34574 14.0815 9.8468 12.8518 11.6108C16.3893 12.4443 19.7342 15.0485 20.2684 19.9841C20.3735 20.9252 21.112 28.3994 23.5921 37.0607C24.3038 34.8891 25.3414 31.6733 27.752 26.4801C28.9335 24.1018 29.9996 22.5335 30.9616 21.5773C31.8438 20.7004 32.6383 20.3382 33.3535 20.3382C34.125 20.3382 36.7591 21.0288 39.3234 29.8299C42.5037 40.7432 44.8705 58.1117 53.8878 67.3336C57.865 71.4015 63.4308 74.0333 71.1444 74.0333C77.9128 74.0333 83.5557 71.1179 87.579 67.0625C94.1942 60.3937 97.8191 49.3682 99.1121 45.2882C102.791 33.6809 103.822 23.1829 103.942 22.0722C104.627 15.7255 99.1597 11.309 93.7097 11.309Z" fill="url(#paint17_radial)"/>
<path d="M93.7097 11.309C92.9474 11.309 92.1804 11.3794 91.4282 11.5243C95.0037 16.5668 96.7927 21.8493 96.7927 24.1317C96.7927 32.4304 89.872 34.5472 86.8726 34.5472C84.5318 34.5472 82.7434 33.9996 81.3259 33.1243C81.3127 33.1762 81.2997 33.2278 81.2864 33.2797C80.8649 34.9267 80.5321 36.7293 79.9561 38.4834C78.8487 41.8563 77.3551 45.7091 75.7599 48.6903C74.0406 51.9043 72.3383 53.7847 70.3092 53.686C68.0018 53.574 66.131 50.6651 63.8057 42.4439C63.0558 39.7931 62.3615 36.8869 61.718 34.0331C60.1219 26.9548 58.1627 19.837 54.8128 13.5472C49.3412 3.27427 40.0074 0 32.5559 0C25.6454 0 20.4824 3.19993 16.4266 7.23155C15.3058 8.34574 14.0815 9.8468 12.8518 11.6108C16.3893 12.4443 19.7342 15.0485 20.2684 19.9841C20.3735 20.9252 21.112 28.3994 23.5921 37.0607C24.3038 34.8891 25.3414 31.6733 27.752 26.4801C28.9335 24.1018 29.9996 22.5335 30.9616 21.5773C31.8438 20.7004 32.6383 20.3382 33.3535 20.3382C34.125 20.3382 36.7591 21.0288 39.3234 29.8299C42.5037 40.7432 44.8705 58.1117 53.8878 67.3336C57.865 71.4015 63.4308 74.0333 71.1444 74.0333C77.9128 74.0333 83.5557 71.1179 87.579 67.0625C94.1942 60.3937 97.8191 49.3682 99.1121 45.2882C102.791 33.6809 103.822 23.1829 103.942 22.0722C104.627 15.7255 99.1597 11.309 93.7097 11.309Z" fill="url(#paint18_radial)"/>
<path d="M93.7097 11.309C92.9474 11.309 92.1804 11.3794 91.4282 11.5243C95.0037 16.5668 96.7927 21.8493 96.7927 24.1317C96.7927 32.4304 89.872 34.5472 86.8726 34.5472C84.5318 34.5472 82.7434 33.9996 81.3259 33.1243C81.3127 33.1762 81.2997 33.2278 81.2864 33.2797C80.8649 34.9267 80.5321 36.7293 79.9561 38.4834C78.8487 41.8563 77.3551 45.7091 75.7599 48.6903C74.0406 51.9043 72.3383 53.7847 70.3092 53.686C68.0018 53.574 66.131 50.6651 63.8057 42.4439C63.0558 39.7931 62.3615 36.8869 61.718 34.0331C60.1219 26.9548 58.1627 19.837 54.8128 13.5472C49.3412 3.27427 40.0074 0 32.5559 0C25.6454 0 20.4824 3.19993 16.4266 7.23155C15.3058 8.34574 14.0815 9.8468 12.8518 11.6108C16.3893 12.4443 19.7342 15.0485 20.2684 19.9841C20.3735 20.9252 21.112 28.3994 23.5921 37.0607C24.3038 34.8891 25.3414 31.6733 27.752 26.4801C28.9335 24.1018 29.9996 22.5335 30.9616 21.5773C31.8438 20.7004 32.6383 20.3382 33.3535 20.3382C34.125 20.3382 36.7591 21.0288 39.3234 29.8299C42.5037 40.7432 44.8705 58.1117 53.8878 67.3336C57.865 71.4015 63.4308 74.0333 71.1444 74.0333C77.9128 74.0333 83.5557 71.1179 87.579 67.0625C94.1942 60.3937 97.8191 49.3682 99.1121 45.2882C102.791 33.6809 103.822 23.1829 103.942 22.0722C104.627 15.7255 99.1597 11.309 93.7097 11.309Z" fill="url(#paint19_radial)"/>
<path d="M93.7097 11.309C92.9474 11.309 92.1804 11.3794 91.4282 11.5243C95.0037 16.5668 96.7927 21.8493 96.7927 24.1317C96.7927 32.4304 89.872 34.5472 86.8726 34.5472C84.5318 34.5472 82.7434 33.9996 81.3259 33.1243C81.3127 33.1762 81.2997 33.2278 81.2864 33.2797C80.8649 34.9267 80.5321 36.7293 79.9561 38.4834C78.8487 41.8563 77.3551 45.7091 75.7599 48.6903C74.0406 51.9043 72.3383 53.7847 70.3092 53.686C68.0018 53.574 66.131 50.6651 63.8057 42.4439C63.0558 39.7931 62.3615 36.8869 61.718 34.0331C60.1219 26.9548 58.1627 19.837 54.8128 13.5472C49.3412 3.27427 40.0074 0 32.5559 0C25.6454 0 20.4824 3.19993 16.4266 7.23155C15.3058 8.34574 14.0815 9.8468 12.8518 11.6108C16.3893 12.4443 19.7342 15.0485 20.2684 19.9841C20.3735 20.9252 21.112 28.3994 23.5921 37.0607C24.3038 34.8891 25.3414 31.6733 27.752 26.4801C28.9335 24.1018 29.9996 22.5335 30.9616 21.5773C31.8438 20.7004 32.6383 20.3382 33.3535 20.3382C34.125 20.3382 36.7591 21.0288 39.3234 29.8299C42.5037 40.7432 44.8705 58.1117 53.8878 67.3336C57.865 71.4015 63.4308 74.0333 71.1444 74.0333C77.9128 74.0333 83.5557 71.1179 87.579 67.0625C94.1942 60.3937 97.8191 49.3682 99.1121 45.2882C102.791 33.6809 103.822 23.1829 103.942 22.0722C104.627 15.7255 99.1597 11.309 93.7097 11.309Z" fill="url(#paint20_radial)"/>
<path d="M93.7097 11.309C92.9474 11.309 92.1804 11.3794 91.4282 11.5243C95.0037 16.5668 96.7927 21.8493 96.7927 24.1317C96.7927 32.4304 89.872 34.5472 86.8726 34.5472C84.5318 34.5472 82.7434 33.9996 81.3259 33.1243C81.3127 33.1762 81.2997 33.2278 81.2864 33.2797C80.8649 34.9267 80.5321 36.7293 79.9561 38.4834C78.8487 41.8563 77.3551 45.7091 75.7599 48.6903C74.0406 51.9043 72.3383 53.7847 70.3092 53.686C68.0018 53.574 66.131 50.6651 63.8057 42.4439C63.0558 39.7931 62.3615 36.8869 61.718 34.0331C60.1219 26.9548 58.1627 19.837 54.8128 13.5472C49.3412 3.27427 40.0074 0 32.5559 0C25.6454 0 20.4824 3.19993 16.4266 7.23155C15.3058 8.34574 14.0815 9.8468 12.8518 11.6108C16.3893 12.4443 19.7342 15.0485 20.2684 19.9841C20.3735 20.9252 21.112 28.3994 23.5921 37.0607C24.3038 34.8891 25.3414 31.6733 27.752 26.4801C28.9335 24.1018 29.9996 22.5335 30.9616 21.5773C31.8438 20.7004 32.6383 20.3382 33.3535 20.3382C34.125 20.3382 36.7591 21.0288 39.3234 29.8299C42.5037 40.7432 44.8705 58.1117 53.8878 67.3336C57.865 71.4015 63.4308 74.0333 71.1444 74.0333C77.9128 74.0333 83.5557 71.1179 87.579 67.0625C94.1942 60.3937 97.8191 49.3682 99.1121 45.2882C102.791 33.6809 103.822 23.1829 103.942 22.0722C104.627 15.7255 99.1597 11.309 93.7097 11.309Z" fill="url(#paint21_radial)"/>
<path d="M93.7097 11.309C92.9474 11.309 92.1804 11.3794 91.4282 11.5243C95.0037 16.5668 96.7927 21.8493 96.7927 24.1317C96.7927 32.4304 89.872 34.5472 86.8726 34.5472C84.5318 34.5472 82.7434 33.9996 81.3259 33.1243C81.3127 33.1762 81.2997 33.2278 81.2864 33.2797C80.8649 34.9267 80.5321 36.7293 79.9561 38.4834C78.8487 41.8563 77.3551 45.7091 75.7599 48.6903C74.0406 51.9043 72.3383 53.7847 70.3092 53.686C68.0018 53.574 66.131 50.6651 63.8057 42.4439C63.0558 39.7931 62.3615 36.8869 61.718 34.0331C60.1219 26.9548 58.1627 19.837 54.8128 13.5472C49.3412 3.27427 40.0074 0 32.5559 0C25.6454 0 20.4824 3.19993 16.4266 7.23155C15.3058 8.34574 14.0815 9.8468 12.8518 11.6108C16.3893 12.4443 19.7342 15.0485 20.2684 19.9841C20.3735 20.9252 21.112 28.3994 23.5921 37.0607C24.3038 34.8891 25.3414 31.6733 27.752 26.4801C28.9335 24.1018 29.9996 22.5335 30.9616 21.5773C31.8438 20.7004 32.6383 20.3382 33.3535 20.3382C34.125 20.3382 36.7591 21.0288 39.3234 29.8299C42.5037 40.7432 44.8705 58.1117 53.8878 67.3336C57.865 71.4015 63.4308 74.0333 71.1444 74.0333C77.9128 74.0333 83.5557 71.1179 87.579 67.0625C94.1942 60.3937 97.8191 49.3682 99.1121 45.2882C102.791 33.6809 103.822 23.1829 103.942 22.0722C104.627 15.7255 99.1597 11.309 93.7097 11.309Z" fill="url(#paint22_radial)"/>
<path d="M93.7097 11.309C92.9474 11.309 92.1804 11.3794 91.4282 11.5243C95.0037 16.5668 96.7927 21.8493 96.7927 24.1317C96.7927 32.4304 89.872 34.5472 86.8726 34.5472C84.5318 34.5472 82.7434 33.9996 81.3259 33.1243C81.3127 33.1762 81.2997 33.2278 81.2864 33.2797C80.8649 34.9267 80.5321 36.7293 79.9561 38.4834C78.8487 41.8563 77.3551 45.7091 75.7599 48.6903C74.0406 51.9043 72.3383 53.7847 70.3092 53.686C68.0018 53.574 66.131 50.6651 63.8057 42.4439C63.0558 39.7931 62.3615 36.8869 61.718 34.0331C60.1219 26.9548 58.1627 19.837 54.8128 13.5472C49.3412 3.27427 40.0074 0 32.5559 0C25.6454 0 20.4824 3.19993 16.4266 7.23155C15.3058 8.34574 14.0815 9.8468 12.8518 11.6108C16.3893 12.4443 19.7342 15.0485 20.2684 19.9841C20.3735 20.9252 21.112 28.3994 23.5921 37.0607C24.3038 34.8891 25.3414 31.6733 27.752 26.4801C28.9335 24.1018 29.9996 22.5335 30.9616 21.5773C31.8438 20.7004 32.6383 20.3382 33.3535 20.3382C34.125 20.3382 36.7591 21.0288 39.3234 29.8299C42.5037 40.7432 44.8705 58.1117 53.8878 67.3336C57.865 71.4015 63.4308 74.0333 71.1444 74.0333C77.9128 74.0333 83.5557 71.1179 87.579 67.0625C94.1942 60.3937 97.8191 49.3682 99.1121 45.2882C102.791 33.6809 103.822 23.1829 103.942 22.0722C104.627 15.7255 99.1597 11.309 93.7097 11.309Z" fill="url(#paint23_radial)"/>
<path d="M93.7097 11.309C92.9474 11.309 92.1804 11.3794 91.4282 11.5243C95.0037 16.5668 96.7927 21.8493 96.7927 24.1317C96.7927 32.4304 89.872 34.5472 86.8726 34.5472C84.5318 34.5472 82.7434 33.9996 81.3259 33.1243C81.3127 33.1762 81.2997 33.2278 81.2864 33.2797C80.8649 34.9267 80.5321 36.7293 79.9561 38.4834C78.8487 41.8563 77.3551 45.7091 75.7599 48.6903C74.0406 51.9043 72.3383 53.7847 70.3092 53.686C68.0018 53.574 66.131 50.6651 63.8057 42.4439C63.0558 39.7931 62.3615 36.8869 61.718 34.0331C60.1219 26.9548 58.1627 19.837 54.8128 13.5472C49.3412 3.27427 40.0074 0 32.5559 0C25.6454 0 20.4824 3.19993 16.4266 7.23155C15.3058 8.34574 14.0815 9.8468 12.8518 11.6108C16.3893 12.4443 19.7342 15.0485 20.2684 19.9841C20.3735 20.9252 21.112 28.3994 23.5921 37.0607C24.3038 34.8891 25.3414 31.6733 27.752 26.4801C28.9335 24.1018 29.9996 22.5335 30.9616 21.5773C31.8438 20.7004 32.6383 20.3382 33.3535 20.3382C34.125 20.3382 36.7591 21.0288 39.3234 29.8299C42.5037 40.7432 44.8705 58.1117 53.8878 67.3336C57.865 71.4015 63.4308 74.0333 71.1444 74.0333C77.9128 74.0333 83.5557 71.1179 87.579 67.0625C94.1942 60.3937 97.8191 49.3682 99.1121 45.2882C102.791 33.6809 103.822 23.1829 103.942 22.0722C104.627 15.7255 99.1597 11.309 93.7097 11.309Z" fill="url(#paint24_radial)"/>
<path d="M32.2683 73.7399C13.0114 73.7399 6.45729 49.9218 4.98869 45.2882C1.30067 33.653 0.179512 23.1722 0.0608273 22.0722C-0.624006 15.7255 4.58062 11.309 10.2927 11.309C14.6179 11.309 19.6376 13.8412 20.3024 19.9847C20.418 21.0181 21.2971 29.93 24.4077 39.6407C27.654 49.7751 31.0977 53.6726 33.5777 53.6726C37.5826 53.6726 40.0261 43.6123 42.1863 34.0331C43.7777 26.9758 45.4982 19.8642 48.8945 13.5472C54.8037 2.55731 63.7328 0 71.4466 0C88.3612 0 96.8267 19.1665 96.8267 24.1323C96.8267 32.4309 89.9062 34.5476 86.9067 34.5476C80.3461 34.5476 78.1222 30.2484 76.2502 26.4801C74.5666 23.0899 72.808 20.2711 70.5344 20.2711C69.7874 20.2711 69.095 20.6413 68.4548 21.2779C62.8038 26.8951 60.9088 56.2818 49.6101 67.5135C43.346 73.7399 36.5306 73.7399 32.2683 73.7399Z" fill="url(#paint25_linear)"/>
<path d="M32.2683 73.7399C13.0114 73.7399 6.45729 49.9218 4.98869 45.2882C1.30067 33.653 0.179512 23.1722 0.0608273 22.0722C-0.624006 15.7255 4.58062 11.309 10.2927 11.309C14.6179 11.309 19.6376 13.8412 20.3024 19.9847C20.418 21.0181 21.2971 29.93 24.4077 39.6407C27.654 49.7751 31.0977 53.6726 33.5777 53.6726C37.5826 53.6726 40.0261 43.6123 42.1863 34.0331C43.7777 26.9758 45.4982 19.8642 48.8945 13.5472C54.8037 2.55731 63.7328 0 71.4466 0C88.3612 0 96.8267 19.1665 96.8267 24.1323C96.8267 32.4309 89.9062 34.5476 86.9067 34.5476C80.3461 34.5476 78.1222 30.2484 76.2502 26.4801C74.5666 23.0899 72.808 20.2711 70.5344 20.2711C69.7874 20.2711 69.095 20.6413 68.4548 21.2779C62.8038 26.8951 60.9088 56.2818 49.6101 67.5135C43.346 73.7399 36.5306 73.7399 32.2683 73.7399Z" fill="url(#paint26_radial)"/>
<path d="M32.2683 73.7399C13.0114 73.7399 6.45729 49.9218 4.98869 45.2882C1.30067 33.653 0.179512 23.1722 0.0608273 22.0722C-0.624006 15.7255 4.58062 11.309 10.2927 11.309C14.6179 11.309 19.6376 13.8412 20.3024 19.9847C20.418 21.0181 21.2971 29.93 24.4077 39.6407C27.654 49.7751 31.0977 53.6726 33.5777 53.6726C37.5826 53.6726 40.0261 43.6123 42.1863 34.0331C43.7777 26.9758 45.4982 19.8642 48.8945 13.5472C54.8037 2.55731 63.7328 0 71.4466 0C88.3612 0 96.8267 19.1665 96.8267 24.1323C96.8267 32.4309 89.9062 34.5476 86.9067 34.5476C80.3461 34.5476 78.1222 30.2484 76.2502 26.4801C74.5666 23.0899 72.808 20.2711 70.5344 20.2711C69.7874 20.2711 69.095 20.6413 68.4548 21.2779C62.8038 26.8951 60.9088 56.2818 49.6101 67.5135C43.346 73.7399 36.5306 73.7399 32.2683 73.7399Z" fill="url(#paint27_linear)"/>
<path d="M32.2683 73.7399C13.0114 73.7399 6.45729 49.9218 4.98869 45.2882C1.30067 33.653 0.179512 23.1722 0.0608273 22.0722C-0.624006 15.7255 4.58062 11.309 10.2927 11.309C14.6179 11.309 19.6376 13.8412 20.3024 19.9847C20.418 21.0181 21.2971 29.93 24.4077 39.6407C27.654 49.7751 31.0977 53.6726 33.5777 53.6726C37.5826 53.6726 40.0261 43.6123 42.1863 34.0331C43.7777 26.9758 45.4982 19.8642 48.8945 13.5472C54.8037 2.55731 63.7328 0 71.4466 0C88.3612 0 96.8267 19.1665 96.8267 24.1323C96.8267 32.4309 89.9062 34.5476 86.9067 34.5476C80.3461 34.5476 78.1222 30.2484 76.2502 26.4801C74.5666 23.0899 72.808 20.2711 70.5344 20.2711C69.7874 20.2711 69.095 20.6413 68.4548 21.2779C62.8038 26.8951 60.9088 56.2818 49.6101 67.5135C43.346 73.7399 36.5306 73.7399 32.2683 73.7399Z" fill="url(#paint28_linear)"/>
<path d="M32.2683 73.7399C13.0114 73.7399 6.45729 49.9218 4.98869 45.2882C1.30067 33.653 0.179512 23.1722 0.0608273 22.0722C-0.624006 15.7255 4.58062 11.309 10.2927 11.309C14.6179 11.309 19.6376 13.8412 20.3024 19.9847C20.418 21.0181 21.2971 29.93 24.4077 39.6407C27.654 49.7751 31.0977 53.6726 33.5777 53.6726C37.5826 53.6726 40.0261 43.6123 42.1863 34.0331C43.7777 26.9758 45.4982 19.8642 48.8945 13.5472C54.8037 2.55731 63.7328 0 71.4466 0C88.3612 0 96.8267 19.1665 96.8267 24.1323C96.8267 32.4309 89.9062 34.5476 86.9067 34.5476C80.3461 34.5476 78.1222 30.2484 76.2502 26.4801C74.5666 23.0899 72.808 20.2711 70.5344 20.2711C69.7874 20.2711 69.095 20.6413 68.4548 21.2779C62.8038 26.8951 60.9088 56.2818 49.6101 67.5135C43.346 73.7399 36.5306 73.7399 32.2683 73.7399Z" fill="url(#paint29_radial)"/>
<defs>
<linearGradient id="paint0_linear" x1="86.29" y1="21.6353" x2="18.5626" y2="44.3459" gradientUnits="userSpaceOnUse">
<stop stop-color="#5CEE64"/>
<stop offset="1" stop-color="#00BBFF"/>
</linearGradient>
<radialGradient id="paint1_radial" cx="0" cy="0" r="1" gradientUnits="userSpaceOnUse" gradientTransform="translate(39.5842 39.3241) rotate(-121.424) scale(43.8446 37.1897)">
<stop stop-color="#007383"/>
<stop offset="0.407867" stop-color="#00717E" stop-opacity="0.75"/>
<stop offset="0.874482" stop-color="#007281" stop-opacity="0"/>
</radialGradient>
<radialGradient id="paint2_radial" cx="0" cy="0" r="1" gradientUnits="userSpaceOnUse" gradientTransform="translate(68.8644 31.2142) rotate(-127.347) scale(35.8329 23.6881)">
<stop stop-color="#218970"/>
<stop offset="0.459527" stop-color="#267E6A"/>
<stop offset="1" stop-color="#026C51" stop-opacity="0"/>
</radialGradient>
<radialGradient id="paint3_radial" cx="0" cy="0" r="1" gradientUnits="userSpaceOnUse" gradientTransform="translate(37.0179 41.3832) rotate(-107.836) scale(29.0087 15.3894)">
<stop stop-color="#178697"/>
<stop offset="0.407867" stop-color="#17838F" stop-opacity="0.79"/>
<stop offset="0.874482" stop-color="#007281" stop-opacity="0"/>
</radialGradient>
<radialGradient id="paint4_radial" cx="0" cy="0" r="1" gradientUnits="userSpaceOnUse" gradientTransform="translate(50.178 41.2289) rotate(-121.424) scale(73.9548 23.0496)">
<stop stop-color="#25342F" stop-opacity="0.3"/>
<stop offset="1" stop-color="#25342F" stop-opacity="0"/>
</radialGradient>
<radialGradient id="paint5_radial" cx="0" cy="0" r="1" gradientUnits="userSpaceOnUse" gradientTransform="translate(63.5865 32.0203) rotate(84.9882) scale(27.693 16.0549)">
<stop stop-color="#056D4F"/>
<stop offset="0.232593" stop-color="#056C4E" stop-opacity="0.75"/>
<stop offset="0.598902" stop-color="#056C4E" stop-opacity="0.300824"/>
<stop offset="0.874482" stop-color="#056C4F" stop-opacity="0"/>
</radialGradient>
<radialGradient id="paint6_radial" cx="0" cy="0" r="1" gradientUnits="userSpaceOnUse" gradientTransform="translate(64.8389 -12.7592) rotate(56.4937) scale(32.7661 17.3393)">
<stop stop-color="#22B67B"/>
<stop offset="0.407867" stop-color="#24BE82"/>
<stop offset="1" stop-color="#24BE82" stop-opacity="0.07"/>
</radialGradient>
<linearGradient id="paint7_linear" x1="-25.5879" y1="36.2267" x2="22.6207" y2="36.632" gradientUnits="userSpaceOnUse">
<stop stop-color="#09F8FF"/>
<stop offset="1" stop-color="#0BF7F9" stop-opacity="0"/>
</linearGradient>
<radialGradient id="paint8_radial" cx="0" cy="0" r="1" gradientUnits="userSpaceOnUse" gradientTransform="translate(-15.2311 -6.24061) rotate(49.021) scale(42.9129 42.9495)">
<stop stop-color="#09F8FF"/>
<stop offset="1" stop-color="#0BF7F9" stop-opacity="0"/>
</radialGradient>
<radialGradient id="paint9_radial" cx="0" cy="0" r="1" gradientUnits="userSpaceOnUse" gradientTransform="translate(19.5861 -27.6431) rotate(47.3777) scale(87.0911 87.1356)">
<stop stop-color="#00B8FF"/>
<stop offset="0.745423" stop-color="#00B9FC" stop-opacity="0"/>
</radialGradient>
<radialGradient id="paint10_radial" cx="0" cy="0" r="1" gradientUnits="userSpaceOnUse" gradientTransform="translate(24.2535 37.0244) rotate(-107.836) scale(41.6433 29.3825)">
<stop stop-color="#00BCFF" stop-opacity="0.76"/>
<stop offset="0.57273" stop-color="#00BAFC" stop-opacity="0"/>
</radialGradient>
<radialGradient id="paint11_radial" cx="0" cy="0" r="1" gradientUnits="userSpaceOnUse" gradientTransform="translate(88.8538 21.2405) rotate(-130.177) scale(29.6572 20.8454)">
<stop stop-color="#5FEC50"/>
<stop offset="1" stop-color="#3CC08E" stop-opacity="0"/>
</radialGradient>
<radialGradient id="paint12_radial" cx="0" cy="0" r="1" gradientUnits="userSpaceOnUse" gradientTransform="translate(84.5528 40.1688) rotate(-78.8553) scale(8.90423 6.28679)">
<stop stop-color="#28855B"/>
<stop offset="1" stop-color="#14795C" stop-opacity="0"/>
</radialGradient>
<radialGradient id="paint13_radial" cx="0" cy="0" r="1" gradientUnits="userSpaceOnUse" gradientTransform="translate(84.1142 39.5139) rotate(-77.6157) scale(7.34188 10.4702)">
<stop stop-color="#28855B"/>
<stop offset="1" stop-color="#14795C" stop-opacity="0"/>
</radialGradient>
<radialGradient id="paint14_radial" cx="0" cy="0" r="1" gradientUnits="userSpaceOnUse" gradientTransform="translate(93.0483 26.3004) rotate(-133.426) scale(24.5844 17.2961)">
<stop stop-color="#5FF05B"/>
<stop offset="0.813285" stop-color="#5DE955" stop-opacity="0"/>
</radialGradient>
<radialGradient id="paint15_radial" cx="0" cy="0" r="1" gradientUnits="userSpaceOnUse" gradientTransform="translate(85.2697 33.289) rotate(36.8427) scale(21.9456 30.321)">
<stop stop-color="#123AA8"/>
<stop offset="0.966119" stop-color="#123AA8" stop-opacity="0"/>
</radialGradient>
<radialGradient id="paint16_radial" cx="0" cy="0" r="1" gradientUnits="userSpaceOnUse" gradientTransform="translate(79.7657 35.7279) rotate(8.30215) scale(26.0922 38.1262)">
<stop stop-color="#123AA8"/>
<stop offset="0.592487" stop-color="#123AA8" stop-opacity="0"/>
</radialGradient>
<radialGradient id="paint17_radial" cx="0" cy="0" r="1" gradientUnits="userSpaceOnUse" gradientTransform="translate(81.8839 38.8948) rotate(24.1836) scale(22.2143 39.0087)">
<stop stop-color="#123AA8"/>
<stop offset="0.756788" stop-color="#123AA8" stop-opacity="0"/>
</radialGradient>
<radialGradient id="paint18_radial" cx="0" cy="0" r="1" gradientUnits="userSpaceOnUse" gradientTransform="translate(79.2654 40.187) rotate(95.9323) scale(39.214 21.9625)">
<stop stop-color="#123AA8"/>
<stop offset="0.592487" stop-color="#123AA8" stop-opacity="0"/>
<stop offset="1" stop-color="#123AA8" stop-opacity="0"/>
</radialGradient>
<radialGradient id="paint19_radial" cx="0" cy="0" r="1" gradientUnits="userSpaceOnUse" gradientTransform="translate(85.2698 22.8783) rotate(93.7494) scale(47.1861 17.215)">
<stop stop-color="#123AA8"/>
<stop offset="0.884611" stop-color="#123AA8" stop-opacity="0"/>
</radialGradient>
<radialGradient id="paint20_radial" cx="0" cy="0" r="1" gradientUnits="userSpaceOnUse" gradientTransform="translate(30.5976 32.6884) rotate(84.714) scale(25.0414 13.5599)">
<stop stop-color="#123AA8"/>
<stop offset="0.884611" stop-color="#123AA8" stop-opacity="0"/>
</radialGradient>
<radialGradient id="paint21_radial" cx="0" cy="0" r="1" gradientUnits="userSpaceOnUse" gradientTransform="translate(30.5792 33.3618) rotate(87.1887) scale(26.1311 22.0563)">
<stop stop-color="#123AA8"/>
<stop offset="0.884611" stop-color="#123AA8" stop-opacity="0"/>
</radialGradient>
<radialGradient id="paint22_radial" cx="0" cy="0" r="1" gradientUnits="userSpaceOnUse" gradientTransform="translate(36.6579 57.9144) rotate(-22.7152) scale(29.694 57.1502)">
<stop stop-color="#123AA8"/>
<stop offset="0.708977" stop-color="#123AA8" stop-opacity="0"/>
</radialGradient>
<radialGradient id="paint23_radial" cx="0" cy="0" r="1" gradientUnits="userSpaceOnUse" gradientTransform="translate(26.0568 26.9733) rotate(-159.94) scale(19.6867 33.1443)">
<stop stop-color="#1A3DA0"/>
<stop offset="0.708977" stop-color="#123AA8" stop-opacity="0"/>
</radialGradient>
<radialGradient id="paint24_radial" cx="0" cy="0" r="1" gradientUnits="userSpaceOnUse" gradientTransform="translate(8.68118 33.5438) rotate(16.4007) scale(37.5803 37.2374)">
<stop stop-color="#1E3882"/>
<stop offset="0.761404" stop-color="#123AA8" stop-opacity="0"/>
</radialGradient>
<linearGradient id="paint25_linear" x1="-3.1309" y1="13.1778" x2="33.4861" y2="37.0742" gradientUnits="userSpaceOnUse">
<stop offset="0.229329" stop-color="#1DC4FF"/>
<stop offset="1" stop-color="#1CC1FF" stop-opacity="0"/>
</linearGradient>
<radialGradient id="paint26_radial" cx="0" cy="0" r="1" gradientUnits="userSpaceOnUse" gradientTransform="translate(-15.2334 -6.24233) rotate(49.021) scale(42.9129 42.9495)">
<stop stop-color="#09F8FF"/>
<stop offset="1" stop-color="#0BF7F9" stop-opacity="0"/>
</radialGradient>
<linearGradient id="paint27_linear" x1="-1.08026" y1="14.3608" x2="9.11688" y2="23.8129" gradientUnits="userSpaceOnUse">
<stop stop-color="#26FBFF"/>
<stop offset="0.637346" stop-color="#0BF7F9" stop-opacity="0"/>
</linearGradient>
<linearGradient id="paint28_linear" x1="-3.84498" y1="21.4227" x2="10.5453" y2="22.4725" gradientUnits="userSpaceOnUse">
<stop stop-color="#26FBFF"/>
<stop offset="0.637346" stop-color="#0BF7F9" stop-opacity="0"/>
</linearGradient>
<radialGradient id="paint29_radial" cx="0" cy="0" r="1" gradientUnits="userSpaceOnUse" gradientTransform="translate(24.2522 37.0249) rotate(-107.836) scale(41.6433 29.3825)">
<stop stop-color="#00BCFF" stop-opacity="0.76"/>
<stop offset="0.57273" stop-color="#00BAFC" stop-opacity="0"/>
</radialGradient>
</defs>
</svg>
