<svg width="144" height="144" viewBox="0 0 144 144" fill="none" xmlns="http://www.w3.org/2000/svg">
<g clip-path="url(#clip0)">
<rect width="144" height="144" rx="10" fill="#2D8CFF"/>
<path fill-rule="evenodd" clip-rule="evenodd" d="M60.262 62.2717C57.5452 59.5906 53.9924 58.25 50.4047 58.25C46.8519 58.25 43.2643 59.5906 40.5474 62.2717C35.1137 67.6341 35.1137 76.3307 40.5474 81.7274C45.9811 87.0897 54.7935 87.0897 60.262 81.7274C65.6957 76.365 65.6957 67.6341 60.262 62.2717ZM56.3261 77.8431C53.0519 81.0743 47.7575 81.0743 44.5182 77.8431C41.2441 74.612 41.2441 69.3871 44.5182 66.1904C47.7924 62.9592 53.0867 62.9592 56.3261 66.1904C59.5654 69.3871 59.5654 74.612 56.3261 77.8431Z" fill="white"/>
<path fill-rule="evenodd" clip-rule="evenodd" d="M89.5203 62.2717C86.8034 59.5906 83.2507 58.25 79.663 58.25C76.1102 58.25 72.5226 59.5906 69.8057 62.2717C64.372 67.6341 64.372 76.3307 69.8057 81.7274C75.2394 87.0897 84.0518 87.0897 89.5203 81.7274C94.954 76.365 94.954 67.6341 89.5203 62.2717ZM85.5844 77.8431C82.3102 81.0743 77.0158 81.0743 73.7765 77.8431C70.5024 74.612 70.5024 69.3871 73.7765 66.1904C77.0507 62.9592 82.345 62.9592 85.5844 66.1904C88.8237 69.3871 88.8237 74.612 85.5844 77.8431Z" fill="white"/>
<path fill-rule="evenodd" clip-rule="evenodd" d="M15.573 85.6813L16.9663 85.7501H37.8651L37.7954 84.3751C37.6213 82.1065 35.9842 80.4565 33.6853 80.319L32.2921 80.2503H19.7528L36.4718 63.7508L36.4022 62.3758C36.2977 60.1072 34.591 58.4228 32.2921 58.3197L30.8988 58.251H10L10.0697 59.6259C10.2438 61.8602 11.9157 63.5446 14.1798 63.6821L15.573 63.7508H28.1123L11.3933 80.2503L11.4629 81.6252C11.6022 83.8939 13.2741 85.5439 15.573 85.6813Z" fill="white"/>
<path fill-rule="evenodd" clip-rule="evenodd" d="M110.942 66.4997C111.429 67.3247 111.568 68.2184 111.638 69.2496L111.708 70.6246V80.2493L111.777 81.6242C111.917 83.8585 113.589 85.5429 115.888 85.6804L117.281 85.7491V70.6246L117.351 69.2496C117.42 68.2184 117.56 67.2903 118.047 66.4654C119.022 64.8154 120.799 63.7498 122.854 63.7498C124.909 63.7498 126.72 64.8498 127.695 66.4997C128.183 67.3247 128.322 68.2528 128.357 69.2496L128.427 70.6246V80.2493L128.497 81.6242C128.636 83.8929 130.308 85.5429 132.607 85.6804L134 85.7491V70.6246V69.2496C134 63.1655 129.019 58.25 122.854 58.25C119.51 58.25 116.549 59.6937 114.494 61.9624C112.439 59.6937 109.479 58.25 106.135 58.25C103.836 58.25 101.676 58.9375 99.9 60.1406C98.8202 58.9375 96.382 58.25 94.9888 58.25V85.7491L96.382 85.6804C98.7157 85.5429 100.388 83.8929 100.492 81.6242L100.562 80.2493V70.6246L100.631 69.2496C100.701 68.2184 100.84 67.2903 101.328 66.4997C102.303 64.8498 104.08 63.7498 106.135 63.7498C108.19 63.7498 110.001 64.8498 110.942 66.4997Z" fill="white"/>
</g>
<defs>
<clipPath id="clip0">
<rect width="144" height="144" fill="white"/>
</clipPath>
</defs>
</svg>
