<svg width="148" height="36" viewBox="0 0 148 36" fill="none" xmlns="http://www.w3.org/2000/svg">
<g clip-path="url(#clip0_391_63278)">
<path d="M110.933 26.623H112.503L109.384 35.2526H107.812L110.932 26.623H110.933Z" fill="#414141"/>
<path d="M115.649 34.5747C114.26 34.5747 113.333 33.7824 113.325 32.5965H114.783C114.791 33.0896 115.168 33.3346 115.704 33.3346C116.119 33.3346 116.49 33.1466 116.49 32.7766C116.49 32.4065 116.011 32.2835 115.426 32.186C114.543 32.0384 113.419 31.8022 113.419 30.4991C113.419 29.4529 114.309 28.7295 115.644 28.7295C116.979 28.7295 117.856 29.4726 117.861 30.5778H116.442C116.436 30.1379 116.128 29.9214 115.607 29.9214C115.141 29.9214 114.866 30.1349 114.866 30.4509C114.866 30.82 115.339 30.9056 115.913 31.0099C116.815 31.1723 117.967 31.3632 117.967 32.7106C117.967 33.8395 117.044 34.5737 115.647 34.5737L115.649 34.5747Z" fill="#414141"/>
<path d="M122.905 33.0863V34.418H121.843C120.626 34.418 119.879 33.67 119.879 32.4427V30.0884H118.879V29.7656L121.064 27.4429H121.349V28.8857H122.876V30.0884H121.375V32.2439C121.375 32.7783 121.682 33.0854 122.227 33.0854H122.906L122.905 33.0863Z" fill="#414141"/>
<path d="M124.363 32.0825V28.8867H125.858V31.9122C125.858 32.6996 126.274 33.168 126.965 33.168C127.656 33.168 128.064 32.6887 128.064 31.9122V28.8867H129.559V32.0825C129.559 33.5765 128.53 34.5745 126.965 34.5745C125.4 34.5745 124.363 33.5765 124.363 32.0825Z" fill="#414141"/>
<path d="M136.992 26.8926V34.4179H135.888L135.712 33.9573C135.247 34.3519 134.65 34.5832 133.98 34.5832C132.302 34.5832 131.071 33.3274 131.071 31.6522C131.071 29.9771 132.302 28.7301 133.98 28.7301C134.55 28.7301 135.069 28.8964 135.497 29.1887V26.8936H136.992V26.8926ZM135.609 31.6522C135.609 30.7851 134.97 30.1365 134.101 30.1365C133.232 30.1365 132.595 30.7832 132.595 31.6522C132.595 32.5213 133.232 33.1679 134.101 33.1679C134.97 33.1679 135.609 32.5174 135.609 31.6522Z" fill="#414141"/>
<path d="M138.941 28.8867H140.437V34.4179H138.941V28.8867ZM138.944 26.7588H140.434V28.1495H138.944V26.7588Z" fill="#414141"/>
<path d="M142.02 31.6526C142.02 29.9745 143.297 28.7305 145.01 28.7305C146.724 28.7305 148 29.9765 148 31.6526C148 33.3287 146.715 34.5747 145.01 34.5747C143.305 34.5747 142.02 33.3208 142.02 31.6526ZM146.484 31.6526C146.484 30.757 145.872 30.1369 145.01 30.1369C144.148 30.1369 143.536 30.757 143.536 31.6526C143.536 32.5482 144.148 33.1683 145.01 33.1683C145.872 33.1683 146.484 32.5482 146.484 31.6526Z" fill="#414141"/>
<path d="M38.0842 18.7552C35.2113 18.7552 33.0352 16.5782 33.0352 13.7289C33.0352 10.8796 35.2122 8.72021 38.0842 8.72021C40.4748 8.72021 42.331 10.1719 42.8655 12.3667H40.903C40.403 11.2693 39.3331 10.5971 38.0842 10.5971C36.3529 10.5971 35.0508 11.9602 35.0508 13.7299C35.0508 15.4995 36.3716 16.8803 38.0842 16.8803C39.3509 16.8803 40.3675 16.2081 40.8852 15.0398H42.8832C42.3655 17.2701 40.4571 18.7562 38.0842 18.7562V18.7552Z" fill="#414141"/>
<path d="M49.2906 18.7552C46.3291 18.7552 44.1343 16.6136 44.1343 13.7289C44.1343 10.8441 46.3291 8.72021 49.2906 8.72021C52.2521 8.72021 54.4291 10.8619 54.4291 13.7289C54.4291 16.5959 52.2343 18.7552 49.2906 18.7552ZM49.2906 16.8793C51.1104 16.8793 52.4135 15.5694 52.4135 13.7289C52.4135 11.8884 51.1114 10.5961 49.2906 10.5961C47.4698 10.5961 46.1509 11.9061 46.1509 13.7289C46.1509 15.5516 47.453 16.8793 49.2906 16.8793Z" fill="#414141"/>
<path d="M64.0319 5.5332H66.0122V18.5248H64.5132L64.2455 17.4274C63.3892 18.2591 62.1934 18.7551 60.8559 18.7551C57.9298 18.7551 55.8423 16.5958 55.8423 13.7465C55.8423 10.8972 57.9298 8.72008 60.8559 8.72008C62.0871 8.72008 63.1747 9.12755 64.0319 9.8352V5.5332ZM60.9986 16.8782C62.8184 16.8782 64.1569 15.5151 64.1569 13.7278C64.1569 11.9404 62.8184 10.595 60.9986 10.595C59.1788 10.595 57.8589 11.9404 57.8589 13.7278C57.8589 15.5151 59.1975 16.8782 60.9986 16.8782Z" fill="#414141"/>
<path d="M68.8042 7.48018V5.44482H70.8386V7.48018H68.8042ZM68.8396 18.5063V8.94961H70.8199V18.5073H68.8396V18.5063Z" fill="#414141"/>
<path d="M78.7163 8.73682C80.9819 8.73682 82.3913 10.4001 82.3913 12.7544V18.5061H80.4111V13.1609C80.4111 11.4267 79.6434 10.5064 78.1986 10.5064C76.6819 10.5064 75.6121 11.7101 75.6121 13.3912V18.5061H73.6318V8.94941H75.0058L75.3985 10.2948C76.1121 9.32144 77.3079 8.7378 78.7173 8.7378L78.7163 8.73682Z" fill="#414141"/>
<path d="M92.9471 8.94954H94.2492V17.2681C94.2492 20.3123 92.4294 22.1705 89.4492 22.1705C86.969 22.1705 85.221 20.8959 84.7387 18.8074H86.7013C87.0763 19.8517 88.2179 20.4353 89.4315 20.4353C91.0909 20.4353 92.3221 19.3379 92.3221 17.5329V17.09C91.4836 17.8153 90.3773 18.2405 89.1283 18.2405C86.4345 18.2405 84.3647 16.1697 84.3647 13.4799C84.3647 10.79 86.4345 8.71924 89.1283 8.71924C90.5377 8.71924 91.769 9.28516 92.643 10.1887L92.9461 8.94954H92.9471ZM89.3429 16.4187C91.0554 16.4187 92.3044 15.1796 92.3044 13.4809C92.3044 11.7821 91.0731 10.5607 89.3429 10.5607C87.6126 10.5607 86.3804 11.8175 86.3804 13.4809C86.3804 15.1442 87.6294 16.4187 89.3429 16.4187Z" fill="#414141"/>
<path d="M101.83 8.77246C104.149 8.77246 105.594 10.4181 105.594 12.8432V18.5073H104.72V13.0203C104.72 10.8432 103.579 9.56869 101.634 9.56869C99.6891 9.56869 98.2265 11.1434 98.2265 13.0558V18.5073H97.3525V8.94962H97.9952L98.1734 10.8964C98.8692 9.60412 100.243 8.77246 101.831 8.77246H101.83Z" fill="#414141"/>
<path d="M108.656 6.98508V5.76367H109.763V6.98508H108.656ZM108.781 18.5073V8.94957H109.655V18.5073H108.781Z" fill="#414141"/>
<path d="M117.493 8.77246C119.812 8.77246 121.258 10.4181 121.258 12.8432V18.5073H120.384V13.0203C120.384 10.8432 119.242 9.56869 117.297 9.56869C115.353 9.56869 113.89 11.1434 113.89 13.0558V18.5073H113.016V8.94962H113.659L113.837 10.8964C114.533 9.60412 115.907 8.77246 117.494 8.77246H117.493Z" fill="#414141"/>
<path d="M124.552 6.98508V5.76367H125.641V6.98508H124.552ZM122.019 21.9057V21.1095H122.429C123.839 21.1095 124.66 20.2956 124.66 18.897V8.94957H125.534V18.9492C125.534 20.7542 124.357 21.9048 122.537 21.9048H122.019V21.9057Z" fill="#414141"/>
<path d="M137.31 8.94961H138.023V18.5073H137.292L137.185 16.4365C136.346 17.8174 134.847 18.7022 132.992 18.7022C130.173 18.7022 128.05 16.5605 128.05 13.7289C128.05 10.8974 130.173 8.77344 132.992 8.77344C134.847 8.77344 136.346 9.65824 137.185 11.0391L137.31 8.9506V8.94961ZM133.045 17.8695C135.418 17.8695 137.149 16.1176 137.149 13.728C137.149 11.3383 135.418 9.60411 133.045 9.60411C130.672 9.60411 128.942 11.3914 128.942 13.728C128.942 16.0645 130.709 17.8695 133.045 17.8695Z" fill="#414141"/>
<path d="M144.253 18.7022C142.041 18.7022 140.649 17.6048 140.524 15.8175H141.38C141.505 17.1452 142.611 17.906 144.271 17.906C145.93 17.906 147.072 17.1452 147.072 15.9415C147.072 14.4543 145.627 14.1896 144.128 13.9415C142.469 13.6581 140.702 13.3402 140.702 11.3747C140.702 9.81671 142.111 8.77246 144.199 8.77246C146.286 8.77246 147.625 9.83443 147.696 11.5332H146.857C146.786 10.2763 145.805 9.55097 144.181 9.55097C142.557 9.55097 141.558 10.2763 141.558 11.356C141.558 12.6483 142.86 12.8609 144.342 13.1079C146.019 13.3914 147.946 13.7093 147.946 15.9041C147.946 17.6028 146.465 18.7002 144.252 18.7002L144.253 18.7022Z" fill="#414141"/>
<path d="M12.8233 26.7027C19.9054 26.7027 25.6466 20.8924 25.6466 13.7249C25.6466 6.55744 19.9054 0.74707 12.8233 0.74707C5.74119 0.74707 0 6.55744 0 13.7249C0 20.8924 5.74119 26.7027 12.8233 26.7027Z" fill="#414141"/>
<path d="M4.64916 13.7654C4.61078 15.0891 4.84108 16.4129 5.26429 17.6973C5.64912 18.7878 6.38039 19.7218 7.34295 20.3832C8.45905 21.084 9.73951 21.3566 11.0751 21.3566H19.2716V17.4522H11.0623C9.05745 17.4522 8.0939 16.0733 8.0939 13.7732V13.7752C8.0939 11.4751 9.05745 10.1011 11.0623 10.1011H19.2716V6.19775H11.0751C9.77986 6.19775 8.45905 6.47038 7.34295 7.17114C6.38039 7.83253 5.6501 8.76655 5.26429 9.85706C4.84108 11.1415 4.61078 12.4652 4.64916 13.789" fill="url(#paint0_linear_391_63278)"/>
<path fill-rule="evenodd" clip-rule="evenodd" d="M9.62842 12.9658L13.4767 13.7099C13.4767 13.7099 10.654 16.6773 9.62842 12.9658Z" fill="white"/>
<path fill-rule="evenodd" clip-rule="evenodd" d="M18.653 12.98L14.9229 13.7634C14.9229 13.7634 18.154 16.6993 18.653 12.98Z" fill="white"/>
</g>
<defs>
<linearGradient id="paint0_linear_391_63278" x1="4.64522" y1="13.7772" x2="19.2716" y2="13.7772" gradientUnits="userSpaceOnUse">
<stop stop-color="#F16222"/>
<stop offset="0.26" stop-color="#F37421"/>
<stop offset="0.71" stop-color="#F68D1E"/>
<stop offset="1" stop-color="#F7981D"/>
</linearGradient>
<clipPath id="clip0_391_63278">
<rect width="148" height="34.5055" fill="white" transform="translate(0 0.74707)"/>
</clipPath>
</defs>
</svg>
