<svg xmlns="http://www.w3.org/2000/svg" width="25" height="25" viewBox="0 0 25 25">
  <path id="Icon_metro-instagram" data-name="Icon metro-instagram" d="M23.42,1.928H6.721a4.163,4.163,0,0,0-4.15,4.15v16.7a4.163,4.163,0,0,0,4.15,4.15h16.7a4.163,4.163,0,0,0,4.15-4.15V6.078A4.163,4.163,0,0,0,23.42,1.928ZM10.574,12.866h8.994a4.761,4.761,0,1,1-8.994,0Zm13.872,0v9.374A1.567,1.567,0,0,1,22.883,23.8H7.258A1.567,1.567,0,0,1,5.7,22.241V12.866H8.14a7.1,7.1,0,1,0,13.862,0h2.444Zm0-5.47a.784.784,0,0,1-.781.781H22.1a.784.784,0,0,1-.781-.781V5.834a.784.784,0,0,1,.781-.781h1.563a.784.784,0,0,1,.781.781Z" transform="translate(-2.571 -1.928)" fill="#919191"/>
</svg>
