<svg xmlns="http://www.w3.org/2000/svg" width="49.181" height="49.249" viewBox="0 0 49.181 49.249"><path d="M21.839-511.893a12.608,12.608,0,0,0-3.213.895,9.329,9.329,0,0,0-4.742,4.973,14.426,14.426,0,0,0-.231,9.1l.173.5-2.26.029c-2.232.029-2.251.029-2.434.26a.863.863,0,0,0,.067,1.154c.24.192.375.2,2.818.2h2.559l.385.606a21.363,21.363,0,0,0,2.713,3.242c2.607,2.5,6.464,5.819,12.043,10.388,2.366,1.933,2.684,2.164,2.991,2.164s.568-.183,2.174-1.491q8.758-7.142,12.861-11.062a21.363,21.363,0,0,0,2.713-3.242l.385-.606H53.4c2.443,0,2.578-.01,2.818-.2a.863.863,0,0,0,.067-1.154c-.183-.231-.2-.231-2.4-.26-1.222-.019-2.222-.038-2.222-.048s.125-.519.279-1.135a13.285,13.285,0,0,0-1.058-9.754,10.27,10.27,0,0,0-2.693-2.886,11.863,11.863,0,0,0-9.484-1.337,13.547,13.547,0,0,0-3.588,1.76,15.811,15.811,0,0,0-2.241,2.222l-.164.231-.164-.231A15.811,15.811,0,0,0,30.3-509.8a13.421,13.421,0,0,0-3.588-1.77A12.7,12.7,0,0,0,21.839-511.893Zm3.376,1.683a9.448,9.448,0,0,1,6.377,4.136c.933,1.347,1.3,1.347,2.232,0a9.655,9.655,0,0,1,9.455-4.194,7.817,7.817,0,0,1,6.829,5.156,12.3,12.3,0,0,1-.087,8.138l-.2.548-2.6.029c-2.587.029-2.607.029-2.78.25l-.183.221-.192-.654c-.106-.356-.317-1.106-.481-1.664-.375-1.308-.721-1.645-1.385-1.337a.872.872,0,0,0-.317.26c-.058.087-.442,1.308-.856,2.7-.548,1.847-.779,2.491-.837,2.357-.038-.1-.462-2-.933-4.223-.8-3.713-.885-4.059-1.116-4.261a.968.968,0,0,0-.539-.212c-.587,0-.664.192-1.491,3.482l-.75,3.049-2.347.029c-2.328.029-2.347.029-2.53.26-.135.154-.192.183-.231.1-.019-.077-.24-.827-.471-1.674-.481-1.674-.664-1.972-1.222-1.972-.529,0-.664.26-1.472,3a26.234,26.234,0,0,1-.818,2.52c-.029-.029-.452-1.924-.943-4.2-.808-3.79-.914-4.175-1.135-4.377a1,1,0,0,0-.539-.212c-.587,0-.664.192-1.491,3.492l-.76,3.049H15.6l-.2-.558a12.484,12.484,0,0,1-.481-6.743,7.755,7.755,0,0,1,5.916-6.31A10.914,10.914,0,0,1,25.215-510.21Zm-.741,15.717c.462,2.145.885,4.021.943,4.165a.691.691,0,0,0,.75.452c.558,0,.673-.231,1.529-3.126.442-1.481.827-2.732.856-2.78a8.179,8.179,0,0,1,.5,1.491c.375,1.289.51,1.606.731,1.8a.568.568,0,0,0,.548.173c.471-.1.616-.308.981-1.414l.356-1.048h2.28c2.135,0,2.309-.01,2.53-.192.2-.154.317-.462.654-1.828.221-.9.423-1.626.433-1.616s.4,1.78.866,3.925.875,4.011.923,4.146a.808.808,0,0,0,1.347.183,27.1,27.1,0,0,0,.972-2.886c.433-1.452.808-2.674.846-2.722A7.624,7.624,0,0,1,43-494.329c.337,1.2.481,1.578.7,1.8s.317.26.568.212c.481-.1.625-.3.991-1.414l.356-1.048h1.626c.895,0,1.626.019,1.626.038a18.6,18.6,0,0,1-2.058,2.414c-1.414,1.414-4.684,4.309-7.7,6.839-1.472,1.222-5.9,4.867-6.281,5.165-.125.106-.721-.356-5.387-4.242-5.714-4.742-8.974-7.714-10.312-9.407l-.606-.76,2.934-.048c2.664-.048,2.963-.067,3.136-.221a5.62,5.62,0,0,0,.6-1.808c.231-.895.423-1.616.433-1.606S24.022-496.637,24.474-494.492Z" transform="translate(-8.104 511.999)" fill="#fff"/><path d="M2.116-287.871A2.73,2.73,0,0,0,.23-285.053a91.966,91.966,0,0,0,4.155,9.128,36.834,36.834,0,0,0,3.27,3.549l2.8,2.838-.2.337c-.192.327-.2.452-.2,4.04,0,4.136-.01,4.05.693,4.588l.346.269,4.915.029c5.512.029,5.492.029,6-.635l.26-.337.029-3.867.029-3.857L22.1-269.3a1.738,1.738,0,0,0-1.048-.76l-.327-.067-.058-1.529a15.709,15.709,0,0,0-.164-1.972,7.332,7.332,0,0,0-3.771-5.108,18.783,18.783,0,0,1-4.858-2.934,3.508,3.508,0,0,0-2.79-1.145,2.709,2.709,0,0,0-1.529.269,3.868,3.868,0,0,1-.587.24c-.01-.019-.375-.875-.818-1.9-1.039-2.462-1.164-2.7-1.654-3.117A2.779,2.779,0,0,0,2.116-287.871Zm1.27,1.741a10.292,10.292,0,0,1,1.183,2.376,20.779,20.779,0,0,0,2.049,4.165,50.856,50.856,0,0,0,5.137,5.156.865.865,0,0,0,.991-1,22.129,22.129,0,0,0-2.4-2.616c-1.289-1.3-2.4-2.453-2.453-2.568-.1-.192-.077-.231.269-.414a2.337,2.337,0,0,1,1.693-.058,6.1,6.1,0,0,1,1.029.731,20.744,20.744,0,0,0,5.271,3.155,5.734,5.734,0,0,1,2.568,3.338,6.465,6.465,0,0,1,.3,2.289l.038,1.51h-6.7l-3.232-3.251c-1.78-1.78-3.367-3.463-3.53-3.723-.4-.654-3.771-8.09-3.771-8.33A.99.99,0,0,1,3.385-286.13ZM20.68-265.161v3.27l-4.492-.019-4.5-.029-.029-3.251-.019-3.242H20.68Z" transform="translate(-0.212 309.504)" fill="#fff"/><path d="M171.4-59.885a.793.793,0,0,0-.192,1.279c.2.212.317.24.962.24s.76-.029.962-.24a.73.73,0,0,0-.058-1.145c-.25-.212-.385-.25-.885-.25A2.3,2.3,0,0,0,171.4-59.885Z" transform="translate(-154.535 103.478)" fill="#fff"/><path d="M300.378-287.768a2.71,2.71,0,0,0-1.3,1.241c-.115.24-.577,1.279-1.01,2.309s-.808,1.885-.827,1.9-.125-.029-.25-.106a3.978,3.978,0,0,0-3.347-.144,11.388,11.388,0,0,0-1.606,1.116,17.05,17.05,0,0,1-4,2.434,6.562,6.562,0,0,0-3.521,3.251,7.874,7.874,0,0,0-.962,4l-.058,1.626-.327.067a1.738,1.738,0,0,0-1.048.76l-.221.327.029,3.848.029,3.857.231.327a1.8,1.8,0,0,0,.625.5c.366.164.721.183,5.233.183,4.627,0,4.848-.01,5.2-.192a1.571,1.571,0,0,0,.875-1.077,33.446,33.446,0,0,0,.077-3.857c-.029-3.338-.038-3.492-.231-3.819l-.2-.337,2.8-2.838a36.826,36.826,0,0,0,3.27-3.549c.269-.394,1.279-2.482,2.309-4.713l1.828-4,.01-.721a1.929,1.929,0,0,0-.3-1.25,2.72,2.72,0,0,0-1.462-1.25A3.07,3.07,0,0,0,300.378-287.768Zm1.529,1.568a1.024,1.024,0,0,1,.491.827c0,.231-3.386,7.686-3.78,8.32-.164.26-1.751,1.943-3.521,3.723l-3.222,3.251h-6.714l.038-1.51a6.465,6.465,0,0,1,.3-2.289,5.734,5.734,0,0,1,2.568-3.338,20.665,20.665,0,0,0,5.319-3.193,4.888,4.888,0,0,1,1.087-.731,2.756,2.756,0,0,1,1.712.125c.221.144.24.2.144.385-.067.115-1.145,1.25-2.4,2.52a28.806,28.806,0,0,0-2.385,2.578.784.784,0,0,0,1.1.972,52.122,52.122,0,0,0,4.906-4.954,20.269,20.269,0,0,0,2.116-4.252,10.551,10.551,0,0,1,1.183-2.376A.969.969,0,0,1,301.907-286.2Zm-9.34,21-.029,3.251-4.492.029-4.5.019v-6.541h9.042Z" transform="translate(-254.805 309.516)" fill="#fff"/><path d="M316.21-59.75a.73.73,0,0,0-.058,1.145c.2.212.317.24.962.24s.76-.029.962-.24a.723.723,0,0,0,.24-.548c-.01-.587-.385-.846-1.241-.846A1.046,1.046,0,0,0,316.21-59.75Z" transform="translate(-285.536 103.478)" fill="#fff"/></svg>