<svg id="Camada_1" data-name="Camada 1" xmlns="http://www.w3.org/2000/svg" viewBox="0 0 425.85 484.86"><defs><style>.cls-1{fill:#fff;}</style></defs><path class="cls-1" d="M532.86,265.06c0-11.81-1.27-13.36-13.08-16a11.77,11.77,0,0,0-2.92-.6c-2.93.13-3.73-1.34-4.33-4.06a187.3,187.3,0,0,0-26.83-64c-1.95-2.93-1.92-4.7.41-7.2,2.61-2.81,4.05-6.44,5.51-10,1.17-2.88.91-5-1.63-7.37-11.73-11.11-23.18-22.52-34.73-33.82-8.25-8.08-10.31-8.28-20.2-1.85a14.84,14.84,0,0,0-2.81,2.06c-1.61,1.74-2.94,1.27-4.72.11A193.38,193.38,0,0,0,361.1,95.07c-2.26-.47-3.28-1.41-3.54-3.85a36.25,36.25,0,0,0-3.5-11.39c-1.52-3.28-3.35-4.9-7.48-4.81-16,.34-32,.14-48,.14-11.22,0-12.92,1.37-15.49,12.45a15.88,15.88,0,0,0-.63,3.44c0,2.39-1.16,3.43-3.45,3.9a190,190,0,0,0-66.39,27.41c-2.07,1.35-3.38,1.29-5.16-.28-3.17-2.77-7-4.41-10.89-5.9-3.18-1.2-5.39-.6-7.88,1.91-10.9,11-22.05,21.76-33.14,32.58-9.61,9.39-9.79,11.33-1.91,22.63a11.62,11.62,0,0,0,1.2,1.59c1.38,1.4,1.38,2.65.24,4.35a191.4,191.4,0,0,0-27.86,66.21c-.44,2-1.17,2.67-3.15,2.9a43.43,43.43,0,0,0-13.26,4.14c-2.78,1.3-3.75,3-3.72,6.15.16,16,.07,32,.07,48,0,12.12.93,13.22,13.13,15.68a12.75,12.75,0,0,0,2.93.57c2.68-.12,3.49,1.11,4.06,3.7a186.08,186.08,0,0,0,26,62.7c2.3,3.51,3.18,6,0,9.37-2.48,2.66-3.65,6.29-5,9.69-1.11,2.76-.71,4.73,1.6,6.95,11.52,11.09,22.83,22.39,34.21,33.63,8.92,8.8,11.16,9,21.83,1.92a7.29,7.29,0,0,0,1.62-1.15c2-2.28,3.7-1.64,6-.14a157.26,157.26,0,0,0,28.13,14.94c3.25,1.31,3.63,2.62,2.5,5.84q-13.38,37.79-26.34,75.74c-1.08,3.13-2.44,4.32-5.95,4.27-18-.22-36-.12-54-.06-1.49,0-3.42-.92-4.44,1.11-2.13,4.25.43,8.39,5.18,8.39H320.05q81,0,161.93.11c4.12,0,4.87-1.3,4.91-5.06s-1-4.72-4.75-4.68c-18,.2-36,0-54,.15-3,0-4.67-.53-5.78-3.77q-13.14-38.4-26.78-76.64c-1.17-3.28-.25-4.21,2.55-5.36a146.81,146.81,0,0,0,25.62-13.3c3.88-2.58,7.08-4.14,11.09-.06,2.28,2.31,5.8,3.08,8.91,4.29s5.11.58,7.44-1.77c11.37-11.48,22.94-22.76,34.44-34.11,8.14-8,8.31-9.72,2-19.53a12.18,12.18,0,0,0-2.07-2.8c-2.34-2-1.6-3.72-.11-5.95a188,188,0,0,0,27.17-64.35c.6-2.68,1.26-3.93,4.26-4.12,4-.26,7.75-1.66,11.48-3.19,3.34-1.37,4.65-3.3,4.59-7.09C532.71,296.71,532.86,280.89,532.86,265.06Zm-208-82c0-13.66.09-27.32-.06-41,0-3,.7-4.26,3.84-4.92,16.24-3.37,26.87-13.22,31.81-29,.92-2.94,2-3.51,4.81-2.77a201.15,201.15,0,0,1,51.47,21.11c2.47,1.46,2.88,2.45,1.43,5.2-7.88,15-7.21,29.75,2.36,43.81,1.53,2.26,1,3.24-.59,4.85q-30,29.75-59.83,59.63c-1.78,1.78-2.81,1.77-4.78.24A53.65,53.65,0,0,0,328.5,229c-2.86-.35-3.81-1.37-3.77-4.4C324.92,210.73,324.81,196.9,324.81,183.07Zm41.27,87.42a48.32,48.32,0,0,1-16.4,53.65c-3.34,2.61-4.47,2.23-5.79-1.78-4.14-12.61-8.73-25.08-13-37.67-.93-2.75-2.17-4-5.24-3.76-5.13.36-11.6-1.59-15.07.87s-4,9.11-5.68,13.95c-3.22,9.07-6.59,18.1-9.49,27.28-1.21,3.83-2.38,3.26-4.95,1.32a48.48,48.48,0,1,1,75.59-53.86ZM324.81,387.94c0-13.64.05-27.28,0-40.93,0-2.5.23-4,3.33-4.07a24.26,24.26,0,0,0,8.22-1.85c3.44-1.45,4.45,0,5.47,3q19.51,56.16,39.28,112.23c1.21,3.42,1.05,5-2.78,5.85-4.69,1-9.28,2.54-13.89,3.89-2.13.62-3,.14-3.81-2.24-5.13-16.24-15.94-26.5-32.82-29.82-3.06-.6-3-2.31-3-4.59C324.83,415.56,324.81,401.75,324.81,387.94Zm-9.54.89c0,13.5-.11,27,.08,40.49,0,3.18-1,4.14-4,4.79-15.91,3.45-26.72,13-31.93,28.41-1.28,3.79-2.72,4.14-6,3.07-4.25-1.41-8.59-2.58-12.92-3.75-2.37-.63-3.12-1.65-2.22-4.21q20.08-57.36,40-114.8c.86-2.47,1.81-2.94,4.28-2a21.92,21.92,0,0,0,8.21,1.92c4.38-.08,4.59,2.17,4.55,5.56C315.19,361.84,315.27,375.34,315.27,388.83ZM305.16,332c-2-.53-2.58-1.45-1.82-3.58,4.25-11.84,8.45-23.71,12.45-35.64.78-2.33,2.1-2.45,4.06-2.58,2.19-.15,3.29.6,4,2.67,4.06,11.91,8.15,23.81,12.42,35.65.77,2.14.39,3-1.66,3.52-4.83,1.29-9.68,2.37-14.72,2.12C314.84,334.36,310,333.27,305.16,332Zm-86-156c9.76-14.57,10.63-29.67,2.25-45.13-1.08-2-.55-2.71,1.16-3.76a192.13,192.13,0,0,1,52.2-21.73c2.34-.61,3.46-.17,4.26,2.42,5.08,16.39,16.22,26.24,33,29.58,2.78.55,3.3,1.84,3.28,4.38-.11,13.81-.06,27.63-.06,41.44,0,13.65-.07,27.3.06,40.94,0,2.92-.44,4.5-3.8,4.87a53.25,53.25,0,0,0-27.19,11.46c-1.65,1.28-2.55,1.36-4-.13q-30.36-30.37-60.84-60.62C218.15,178.36,218.13,177.49,219.17,175.94Zm-81.23,64.52a195.33,195.33,0,0,1,21.17-50.31c1.42-2.37,2.28-3.12,5.21-1.56,14.93,7.94,29.72,7.19,43.88-2.05,2.56-1.67,3.77-1.27,5.74.71q29.43,29.53,59.07,58.86c1.8,1.78,2.4,2.91.58,5.25a51.38,51.38,0,0,0-10.81,25.87c-.37,3.18-1.74,3.9-4.76,3.87-13.82-.17-27.63-.08-41.45-.08s-27.63-.07-41.44.06c-3,0-4.47-.42-5.27-4-3.55-15.91-13.42-26.4-29-31.26C137.61,244.81,137.07,243.71,137.94,240.46Zm75.48,144.07c-1.77,1.77-2.9,1.81-5,.49-14.43-9.08-29.36-9.68-44.52-1.94-2.09,1.07-3,.95-4.26-1.09a187.81,187.81,0,0,1-22-52.1c-.71-2.79.58-3,2.4-3.61,16.53-5.19,26.7-16.23,30.1-33.25.57-2.84,2.13-2.8,4.24-2.8,14,0,28,0,42,0s28,.1,42-.07c2.9,0,4.1.67,4.45,3.64a53.4,53.4,0,0,0,11.12,26.83c1.44,1.86,1.28,2.92-.35,4.53Q243.38,354.78,213.42,384.53Zm31,71.19c-7.16-3.52-14.3-7-21.22-11-2.18-1.26-2.91-2.09-1.45-4.81,7.89-14.8,7-29.44-2-43.47-1.61-2.51-1.48-3.66.58-5.68,19.85-19.48,39.59-39.1,59.4-58.63.9-.88,1.71-3.09,3.53-1.47,2.39,2.14,5.73,3.15,7.4,5.89-.52,1.45-.93,2.54-1.31,3.64q-19.65,56.44-39.22,112.93C249,456.5,248,457.5,244.44,455.72ZM413.81,550H226.23c5-14.18,9.82-28.1,14.66-42,4.05-11.6,8.13-23.18,12.05-34.82.9-2.66,1.7-3.67,4.83-2.54a133.58,133.58,0,0,0,21.14,5.72c2.16.4,3.66,1.21,3.53,3.78a11.81,11.81,0,0,0,.55,2.93c2.5,11.6,4.27,13.05,16,13.05,16.15,0,32.3-.09,48.45.07,3.09,0,5-.81,6.1-3.72s3.09-5.82,3.24-8.8c.29-5.85,3.38-7.55,8.52-8.49,5.85-1.07,11.53-3.09,17.27-4.75,1.64-.47,3-1.15,3.85,1.3C395.46,497.72,404.59,523.69,413.81,550Zm6.52-154c-9.34,14.14-10.12,28.86-2.13,43.82,1.38,2.57,1,3.49-1.3,4.82-7.36,4.2-14.91,8-22.62,11.51-2.55,1.16-3.36.47-4.17-1.86Q370,396.49,349.7,338.74c-.78-2.21-.46-3.25,1.47-4.37,2.26-1.32,4.33-3,6.64-4.59.82.74,1.58,1.35,2.27,2q30,29.67,60,59.31C422,393,421.61,394.07,420.33,396Zm81.79-64.88A189,189,0,0,1,481.05,381c-1.51,2.48-2.45,3.39-5.64,1.8-14.82-7.39-29.53-6.81-43.63,2.07-2.28,1.43-3.49,1.37-5.4-.53q-29.75-29.62-59.7-59c-1.72-1.69-2.12-2.77-.46-4.89a52.44,52.44,0,0,0,11.06-26.33c.38-3.15,1.67-3.93,4.73-3.89,13.82.17,27.65.07,41.48.07,14,0,28,.07,42-.05,2.76,0,3.93.57,4.58,3.6,3.51,16.33,13.43,27.14,29.3,32.25C502.37,327,503,328,502.12,331.13Zm-2.5-85.55c-16,5.15-26.3,15.74-29.65,32.43-.62,3.09-2.24,3-4.52,3-14,0-28,0-41.95,0-13.81,0-27.63-.08-41.44.07-3,0-4.41-.57-4.8-3.81a52.13,52.13,0,0,0-10.88-25.86c-1.5-1.95-1.61-3,.25-4.89q30-29.67,59.77-59.57c2-2,3.18-1.76,5.34-.36,14.2,9.23,29,9.84,43.92,2,2.82-1.47,3.77-1,5.25,1.46a192.42,192.42,0,0,1,21.37,51.28C503.07,244.43,502.05,244.8,499.62,245.58Z" transform="translate(-107.11 -75.02)"/></svg>