<svg xmlns="http://www.w3.org/2000/svg" viewBox="0 0 104 104"><defs><style>.cls-1{fill:#695e4a;}.cls-2{fill:#fff;}</style></defs><title>icons</title><g id="Layer_3" data-name="Layer 3"><circle class="cls-1" cx="52" cy="52" r="52"/></g><g id="Layer_7" data-name="Layer 7"><path class="cls-2" d="M38.56,37.3a.92.92,0,0,1-.62-.23,1,1,0,0,1-.11-1.36l6.68-7.88A13.87,13.87,0,0,1,53.71,23a1,1,0,1,1,.2,1.92A12,12,0,0,0,46,29.08L39.3,37A.94.94,0,0,1,38.56,37.3Z"/><path class="cls-2" d="M41.87,40.12a1,1,0,0,1-.73-1.6l6.44-7.6a12.39,12.39,0,0,1,8.13-4.31A1,1,0,0,1,56,28.53a10.32,10.32,0,0,0-6.9,3.65l-6.45,7.59A1,1,0,0,1,41.87,40.12Z"/><path class="cls-2" d="M64.9,55.12a1,1,0,0,1-.63-.23,1,1,0,0,1-.11-1.37L75.69,39.93a.89.89,0,0,1,.41-.28l8.05-3-9.72.76L60,54.5a1,1,0,1,1-1.47-1.26L73.22,35.89a1,1,0,0,1,.66-.34L91,34.22A1,1,0,0,1,92,35a1,1,0,0,1-.61,1.11L77,41.37,65.64,54.78A1,1,0,0,1,64.9,55.12Z"/><path class="cls-2" d="M64.39,31.36c-.52,0-1,0-1.58-.07h0a14.05,14.05,0,0,1-7.17-2.64c-2-1.53-3-3.46-2.8-5.42.38-3.95,5.35-6.59,11.32-6a14.14,14.14,0,0,1,7.18,2.63c2,1.54,3,3.46,2.8,5.43s-1.53,3.67-3.78,4.79A13.3,13.3,0,0,1,64.39,31.36Zm-1.39-2a12.14,12.14,0,0,0,6.49-1,4.36,4.36,0,0,0,2.72-3.26c.13-1.28-.6-2.59-2-3.7A12.07,12.07,0,0,0,64,19.14c-4.73-.46-8.95,1.5-9.22,4.27a4.36,4.36,0,0,0,2.06,3.71A12.12,12.12,0,0,0,63,29.36Z"/><path class="cls-2" d="M18.79,70a3.64,3.64,0,0,1-2.34-.86l-3.21-2.72a3.62,3.62,0,0,1-.42-5.11L35,35.13a2.3,2.3,0,0,1,1.59-.82,2.35,2.35,0,0,1,1.7.55l5.18,4.39a2.34,2.34,0,0,1,.27,3.29L21.56,68.72A3.64,3.64,0,0,1,18.79,70Zm18-33.76h0a.43.43,0,0,0-.28.14L14.29,62.56a1.69,1.69,0,0,0,.2,2.38l3.21,2.72h0a1.68,1.68,0,0,0,2.38-.19l22.2-26.18a.4.4,0,0,0-.05-.57l-5.17-4.39A.39.39,0,0,0,36.8,36.24Z"/><path class="cls-2" d="M39.3,47.27a1,1,0,0,1-.9-.61l-4-10a1,1,0,0,1,1.8-.73l4,10a1,1,0,0,1-.54,1.26A.92.92,0,0,1,39.3,47.27Z"/><path class="cls-2" d="M33.47,54.15a1,1,0,0,1-.92-.65L28.9,43.09a1,1,0,1,1,1.82-.64l3.66,10.41a1,1,0,0,1-.59,1.23A1,1,0,0,1,33.47,54.15Z"/><path class="cls-2" d="M28.44,60.07a1,1,0,0,1-.88-.58l-4.25-9.73a1,1,0,0,1,.5-1.27,1,1,0,0,1,1.28.5l4.24,9.73a1,1,0,0,1-.5,1.27A1.09,1.09,0,0,1,28.44,60.07Z"/><path class="cls-2" d="M23.47,65.94a1,1,0,0,1-.89-.58l-4.24-9.74a1,1,0,0,1,.5-1.27,1,1,0,0,1,1.28.5l4.23,9.73a1,1,0,0,1-.5,1.28A1,1,0,0,1,23.47,65.94Z"/><path class="cls-2" d="M51,75.73a2.3,2.3,0,0,1-1.5-.56L43.8,70.33A2.34,2.34,0,0,1,43.53,67L55.71,52.68a2.3,2.3,0,0,1,1.59-.82,2.33,2.33,0,0,1,1.7.55l5.71,4.84a2.38,2.38,0,0,1,.82,1.59,2.33,2.33,0,0,1-.55,1.7L52.8,74.9a2.3,2.3,0,0,1-1.59.82Zm6.48-21.94a.43.43,0,0,0-.31.14L45,68.29a.41.41,0,0,0,0,.57l5.71,4.84h0a.38.38,0,0,0,.29.09.41.41,0,0,0,.28-.14L63.5,59.29a.4.4,0,0,0,.1-.29.45.45,0,0,0-.14-.28l-5.71-4.84A.41.41,0,0,0,57.49,53.79Z"/><path class="cls-2" d="M60.52,65.27a1,1,0,0,1-.89-.58L55.09,54.24a1,1,0,0,1,1.78-.77l4.54,10.45a1,1,0,0,1-.5,1.27A1.09,1.09,0,0,1,60.52,65.27Z"/><path class="cls-2" d="M54.69,72.15a1,1,0,0,1-.9-.62L49.6,60.66A1,1,0,1,1,51.4,60l4.19,10.86A1,1,0,0,1,55,72.08.87.87,0,0,1,54.69,72.15Z"/><path class="cls-2" d="M38.39,86.87a1,1,0,0,1-.65-.25l-3.59-3.21a1,1,0,0,1-.09-1.35L44.63,69.6a1,1,0,0,1,1.47,1.25l-10,11.75,2.15,1.92,9.93-11.71a1,1,0,0,1,1.48,1.25L39.13,86.53a1,1,0,0,1-.68.34Z"/></g></svg>