<svg xmlns="http://www.w3.org/2000/svg" viewBox="0 0 104 104"><defs><style>.cls-1{fill:#b8b308;}.cls-2{fill:#fff;}</style></defs><title>icons</title><g id="Layer_6" data-name="Layer 6"><circle class="cls-1" cx="52" cy="52" r="52"/></g><g id="Layer_7" data-name="Layer 7"><path class="cls-2" d="M58.54,84.65A3.66,3.66,0,0,1,54.88,81V75.85a21,21,0,0,0-1.32-7.35l-.74-2A2,2,0,0,0,51,65.25a1.93,1.93,0,0,0-1.82,1.3l-.75,2.17a21.26,21.26,0,0,0-1.14,6.85V81a3.65,3.65,0,0,1-6.82,1.82l-1.87-3.26A43.87,43.87,0,0,1,33,61.5a17.61,17.61,0,0,0-2.28-7.2l-2.81-4.93a22.24,22.24,0,0,1-2.94-11,20.91,20.91,0,0,1,2.61-10.52,13.25,13.25,0,0,1,11.54-6.51,14.06,14.06,0,0,1,2.35.2l9.84,1.74a1,1,0,1,1-.33,1.91l-9.84-1.74a11.52,11.52,0,0,0-11.88,5.37,18.94,18.94,0,0,0-2.35,9.55,20.31,20.31,0,0,0,2.67,10.07l2.82,4.93a19.64,19.64,0,0,1,2.53,8A42.13,42.13,0,0,0,40.29,78.6l1.88,3.26A1.72,1.72,0,0,0,45.38,81V75.57a22.93,22.93,0,0,1,1.25-7.48l.74-2.17a3.86,3.86,0,0,1,7.26-.09l.74,2a22.89,22.89,0,0,1,1.45,8V81a1.72,1.72,0,0,0,3.21.86L61.9,78.6a42.15,42.15,0,0,0,5.42-17.26,17.91,17.91,0,0,1,.48-2.9A1,1,0,0,1,69,57.73a1,1,0,0,1,.7,1.17,17.85,17.85,0,0,0-.43,2.6,44,44,0,0,1-5.66,18.06L61.7,82.82A3.65,3.65,0,0,1,58.54,84.65Z"/><path class="cls-2" d="M33.8,37.2a1,1,0,0,1-1-1,9.07,9.07,0,0,1,1.66-5.41c.13-.18.27-.36.4-.52A8.24,8.24,0,0,1,43,27.72a1,1,0,1,1-.41,1.89,6.29,6.29,0,0,0-6.2,1.95,4.47,4.47,0,0,0-.32.41,7.18,7.18,0,0,0-1.29,4.27,1,1,0,0,1-1,1Z"/><path class="cls-2" d="M67.87,53.77A17.21,17.21,0,1,1,85.08,36.56,17.23,17.23,0,0,1,67.87,53.77Zm0-32.49A15.28,15.28,0,1,0,83.14,36.56,15.3,15.3,0,0,0,67.87,21.28Z"/><path class="cls-2" d="M71.1,47.07H64.63a1,1,0,0,1-1-1V40.77H58.33a1,1,0,0,1-1-1V33.32a1,1,0,0,1,1-1h5.33V27a1,1,0,0,1,1-1H71.1a1,1,0,0,1,1,1v5.33H77.4a1,1,0,0,1,1,1V39.8a1,1,0,0,1-1,1H72.07V46.1A1,1,0,0,1,71.1,47.07Zm-5.5-1.94h4.53V39.8a1,1,0,0,1,1-1h5.33V34.29H71.1a1,1,0,0,1-1-1V28H65.6v5.33a1,1,0,0,1-1,1H59.3v4.55h5.33a1,1,0,0,1,1,1Z"/></g></svg>