<svg xmlns="http://www.w3.org/2000/svg" viewBox="0 0 104 104"><defs><style>.cls-1{fill:#695e4a;}.cls-2{fill:#fff;}</style></defs><title>icons</title><g id="Layer_1" data-name="Layer 1"><circle class="cls-1" cx="52" cy="52" r="52"/></g><g id="Layer_7" data-name="Layer 7"><path class="cls-2" d="M58.62,80.63a3.42,3.42,0,0,1-3.41-3.34l-2.4-19.17a1.15,1.15,0,0,0-.75-1,1,1,0,0,0-.39,0,1.12,1.12,0,0,0-1.16,1l-2,19.16a3.41,3.41,0,0,1-3.4,3.36,3.47,3.47,0,0,1-1.35-.28A3.1,3.1,0,0,1,42,77.8c-.24-2.31-1.09-10.34-2-17.14-.47-3.58-2.16-7.19-3.79-10.68-.5-1.06-1-2.07-1.42-3.09s-1.08-2.24-1.72-3.46c-2.56-4.9-5.47-10.46-2-15.72,1.82-2.75,6-4.77,9.87-4.79a13.18,13.18,0,0,1,2,.17H43a18.9,18.9,0,0,1,5.73,1.49,6.76,6.76,0,0,0,2.74.69h0a6.61,6.61,0,0,0,3-.65,22.73,22.73,0,0,1,6.23-1.54,17.91,17.91,0,0,1,2.1-.17,11.72,11.72,0,0,1,10,5.35c2.66,4.49.45,9.63-1.32,13.75l-.08.21c-.67,1.56-1.41,3.11-2.11,4.62s-1.44,3-2.1,4.58l-.53,1.22a29.44,29.44,0,0,0-2.44,7.16c-1.07,7.06-2.15,15.61-2.46,18.06a3,3,0,0,1-1.45,2.29A3.33,3.33,0,0,1,58.62,80.63Zm-6.9-25.5a2.93,2.93,0,0,1,.88.13,3.06,3.06,0,0,1,2.13,2.62L57.14,77.1s0,.08,0,.12a1.47,1.47,0,0,0,2.21,1.27,1.14,1.14,0,0,0,.5-.86c.31-2.46,1.39-11,2.47-18.11a30.87,30.87,0,0,1,2.58-7.64l.52-1.21c.68-1.57,1.41-3.13,2.13-4.65s1.42-3,2.08-4.55l.09-.21c1.6-3.72,3.58-8.36,1.43-12a9.89,9.89,0,0,0-8.37-4.41,17.2,17.2,0,0,0-1.87.16,20.65,20.65,0,0,0-5.76,1.42,8.44,8.44,0,0,1-3.7.78h0A8.47,8.47,0,0,1,48,26.37,17.66,17.66,0,0,0,42.81,25h-.08A13.61,13.61,0,0,0,41,24.85c-3.57,0-7,2-8.28,3.93-2.86,4.31-.35,9.11,2.09,13.75.65,1.25,1.27,2.43,1.78,3.59.43,1,.89,2,1.39,3,1.7,3.63,3.45,7.38,4,11.25.88,6.82,1.74,14.88,2,17.19a1.17,1.17,0,0,0,.64,1,1.48,1.48,0,0,0,2.06-1.35v-.1l2-19.21a3,3,0,0,1,.55-1.49,3.25,3.25,0,0,1,2.46-1.29Z"/><path class="cls-2" d="M42.55,53.21a1,1,0,0,1-.75-.36,1,1,0,0,1,.14-1.36l.94-.77a3.76,3.76,0,0,1,3.86-.55l.1,0a1.12,1.12,0,0,0,1.34-.38l1.69-2.75A2.56,2.56,0,0,1,52,45.87h0a2.56,2.56,0,0,1,2.17,1.19l1.7,2.69a1.12,1.12,0,0,0,1.34.56l.55-.18a3.77,3.77,0,0,1,3.14.34l1.07.65a1,1,0,0,1-1,1.66L60,52.13A1.81,1.81,0,0,0,58.43,52l-.55.18a3,3,0,0,1-3.62-1.41L52.59,48.1a.63.63,0,0,0-.54-.3.67.67,0,0,0-.54.31L49.8,50.9A3.07,3.07,0,0,1,46.08,52L46,52a1.86,1.86,0,0,0-1.88.27l-.94.77A1,1,0,0,1,42.55,53.21Z"/><path class="cls-2" d="M22,81.09a1,1,0,0,1-1-1V61.76a8.19,8.19,0,0,1,3.63-7,7.8,7.8,0,0,1,3.08-1.18,8.15,8.15,0,0,1,6.15,1.66,8.86,8.86,0,0,1,3.29,6,1,1,0,1,1-1.92.22,7,7,0,0,0-2.54-4.74A6.29,6.29,0,0,0,28,55.52a6,6,0,0,0-2.32.89,6.36,6.36,0,0,0-2.75,5.35V80.12A1,1,0,0,1,22,81.09Z"/><path class="cls-2" d="M82.05,81.09a1,1,0,0,1-1-1V61.76a6.36,6.36,0,0,0-2.75-5.35A6,6,0,0,0,76,55.52a6.29,6.29,0,0,0-4.69,1.28,7,7,0,0,0-2.54,4.74,1,1,0,1,1-1.92-.22,8.86,8.86,0,0,1,3.29-6,8.15,8.15,0,0,1,6.15-1.66,7.8,7.8,0,0,1,3.08,1.18,8.19,8.19,0,0,1,3.63,7V80.12A1,1,0,0,1,82.05,81.09Z"/></g></svg>