<svg xmlns="http://www.w3.org/2000/svg" viewBox="0 0 104 104"><defs><style>.cls-1{fill:#695e4a;}.cls-2{fill:#fff;}</style></defs><title>icons</title><g id="Layer_5" data-name="Layer 5"><circle class="cls-1" cx="52" cy="52" r="52"/></g><g id="Layer_7" data-name="Layer 7"><path class="cls-2" d="M58.51,81.29a10.12,10.12,0,0,1-4.39-1A18.18,18.18,0,0,1,52,79.11a17.6,17.6,0,0,1-1.86,1.06,10.92,10.92,0,0,1-12.77-2.44l-3.45-3.6A32.22,32.22,0,0,1,25.4,57.6c-1-5.71-.38-10.67,1.94-14.74,3.77-6.59,11-9.57,19.41-8a26.88,26.88,0,0,0,5.06.54h.38a26.8,26.8,0,0,0,5.06-.54c8.39-1.6,15.64,1.38,19.41,8,2.32,4.07,3,9,1.94,14.74a32.22,32.22,0,0,1-8.52,16.53l-3.45,3.6A11.3,11.3,0,0,1,58.51,81.29ZM52,77a1,1,0,0,1,.55.17A17.22,17.22,0,0,0,55,78.56a9,9,0,0,0,10.29-2.17l3.44-3.6a30.23,30.23,0,0,0,8-15.54c1-5.25.37-9.77-1.72-13.43-1.6-2.8-6.49-9.1-17.36-7a28.34,28.34,0,0,1-5.43.58h-.38a28.34,28.34,0,0,1-5.43-.58C35.52,34.72,30.62,41,29,43.82,26.93,47.48,26.35,52,27.3,57.25a30.23,30.23,0,0,0,8,15.54l3.44,3.6a9,9,0,0,0,10.52,2,17.9,17.9,0,0,0,2.17-1.29A.92.92,0,0,1,52,77Z"/><path class="cls-2" d="M36.19,44.75a1,1,0,0,1-.59-.2,1,1,0,0,1-.17-1.36,8.83,8.83,0,0,1,1.76-1.7A9.63,9.63,0,0,1,43.75,40a9.7,9.7,0,0,1,2.56.53,20.83,20.83,0,0,0,2.09.58,25.59,25.59,0,0,0,5.14.61h.37a1,1,0,0,1,0,1.93h-.38A28,28,0,0,1,48,43c-1-.24-1.71-.45-2.26-.62a7.67,7.67,0,0,0-2.12-.45,7.74,7.74,0,0,0-5.28,1.16A6.29,6.29,0,0,0,37,44.38,1,1,0,0,1,36.19,44.75Z"/><path class="cls-2" d="M49.54,36.78a12.36,12.36,0,0,1-8.15-2.87,13,13,0,0,1-4.26-8.81,1,1,0,0,1,.75-1,12.92,12.92,0,0,1,9.66,1.53c4.93,3.13,5.58,8.75,5.66,9.85a1,1,0,0,1-.75,1A13.85,13.85,0,0,1,49.54,36.78Zm-10.39-11a10.82,10.82,0,0,0,3.5,6.62,10.91,10.91,0,0,0,8.52,2.3,11,11,0,0,0-4.66-7.49A10.83,10.83,0,0,0,39.15,25.82Z"/><path class="cls-2" d="M54.93,36.78a13.82,13.82,0,0,1-2.9-.3,1,1,0,0,1-.76-1c.08-1.1.74-6.72,5.66-9.85a12.94,12.94,0,0,1,9.67-1.53,1,1,0,0,1,.75,1,13,13,0,0,1-4.26,8.81A12.36,12.36,0,0,1,54.93,36.78Zm-1.62-2a10.91,10.91,0,0,0,8.52-2.3,10.74,10.74,0,0,0,3.49-6.62A10.81,10.81,0,0,0,58,27.25,10.93,10.93,0,0,0,53.31,34.74Z"/><path class="cls-2" d="M52.19,37.36a1,1,0,0,1-1-1V28.32A12,12,0,0,0,45.4,18l-2.54-1.52a1,1,0,1,1,1-1.66l2.53,1.52a13.9,13.9,0,0,1,5.37,5.87,14.07,14.07,0,0,1,1.4,6.08V36.4A1,1,0,0,1,52.19,37.36Z"/></g></svg>