<svg xmlns="http://www.w3.org/2000/svg" viewBox="0 0 104 104"><defs><style>.cls-1{fill:#b8b308;}.cls-2{fill:#fff;}</style></defs><title>icons</title><g id="Layer_2" data-name="Layer 2"><circle class="cls-1" cx="52" cy="52" r="52"/></g><g id="Layer_7" data-name="Layer 7"><path class="cls-2" d="M53.42,83.25a3.62,3.62,0,0,1-3.61-3.62V74.56a20.88,20.88,0,0,0-1.3-7.25l-.74-2a1.88,1.88,0,0,0-3.54,0l-.74,2.13a21,21,0,0,0-1.12,6.76v5.35a3.61,3.61,0,0,1-6.75,1.8l-1.85-3.21a43.46,43.46,0,0,1-5.59-17.81,17.53,17.53,0,0,0-2.25-7.11l-2.77-4.85a21.92,21.92,0,0,1-2.9-10.89,20.63,20.63,0,0,1,2.58-10.38,13.07,13.07,0,0,1,11.38-6.43,12.86,12.86,0,0,1,2.33.21l9.71,1.71a1,1,0,0,1-.34,1.9l-9.71-1.71a10.85,10.85,0,0,0-2-.17,11.16,11.16,0,0,0-9.73,5.45,18.71,18.71,0,0,0-2.32,9.42,20,20,0,0,0,2.65,9.93l2.77,4.85a19.23,19.23,0,0,1,2.49,7.9,41.63,41.63,0,0,0,5.34,17l1.85,3.21a1.68,1.68,0,0,0,3.14-.84V74.28a22.55,22.55,0,0,1,1.24-7.38l.73-2.14a3.81,3.81,0,0,1,7.18-.09l.74,2a22.77,22.77,0,0,1,1.42,7.92v5.07a1.68,1.68,0,0,0,3.14.84,1,1,0,0,1,1.68,1A3.65,3.65,0,0,1,53.42,83.25Z"/><path class="cls-2" d="M70.17,44.2a.84.84,0,0,1-.27,0A1,1,0,0,1,69.23,43,19.79,19.79,0,0,0,70,37.56a18.71,18.71,0,0,0-2.31-9.4A11.13,11.13,0,0,0,58,22.69a11,11,0,0,0-2,.17l-9.7,1.71a1,1,0,0,1-1.12-.78,1,1,0,0,1,.78-1.12L55.63,21a12.72,12.72,0,0,1,2.31-.21A13.08,13.08,0,0,1,69.35,27.2a20.62,20.62,0,0,1,2.56,10.36,22,22,0,0,1-.81,5.93A1,1,0,0,1,70.17,44.2Z"/><path class="cls-2" d="M29,36.45a1,1,0,0,1-1-1,8.89,8.89,0,0,1,1.64-5.34c.13-.18.26-.36.4-.52a8.13,8.13,0,0,1,8-2.56L44,28.36a1,1,0,0,1,.74,1.16,1,1,0,0,1-1.16.73L37.67,29a6.21,6.21,0,0,0-6.1,1.92c-.1.13-.21.26-.31.4A7.07,7.07,0,0,0,30,35.49,1,1,0,0,1,29,36.45Z"/><path class="cls-2" d="M75.41,78.05h-8a1,1,0,0,1-1-1V73.33a1,1,0,0,1,1-1h1.26v-.49a1,1,0,0,1,1.93,0v1.46a1,1,0,0,1-1,1H68.42v1.82h6V74.3H73.13a1,1,0,0,1-1-1L72.11,64a1,1,0,0,1,1-1h1.38V61.41h-6v1.51h1.26a1,1,0,0,1,1,1V69a1,1,0,1,1-1.93,0V64.85H67.46a1,1,0,0,1-1-1V60.44a1,1,0,0,1,1-1h8a1,1,0,0,1,1,1V64a1,1,0,0,1-1,1H74.05l0,7.4h1.32a1,1,0,0,1,1,1v3.75A1,1,0,0,1,75.41,78.05Z"/><path class="cls-2" d="M73.24,58.49a1,1,0,0,1-.62-1.7,1.85,1.85,0,1,0-2.4,0,1,1,0,0,1,.09,1.37,1,1,0,0,1-1.36.09,3.78,3.78,0,1,1,4.92.05A1,1,0,0,1,73.24,58.49Z"/><path class="cls-2" d="M71.44,83.12a18.31,18.31,0,1,1,18.3-18.3A18.32,18.32,0,0,1,71.44,83.12Zm0-34.67A16.37,16.37,0,1,0,87.81,64.82,16.38,16.38,0,0,0,71.44,48.45Z"/></g></svg>