<svg xmlns="http://www.w3.org/2000/svg" viewBox="0 0 104 104"><defs><style>.cls-1{fill:#b8b308;}.cls-2{fill:#fff;}</style></defs><title>icons</title><g id="Layer_4" data-name="Layer 4"><circle class="cls-1" cx="52" cy="52" r="52"/></g><g id="Layer_7" data-name="Layer 7"><path class="cls-2" d="M47.13,64.18a2,2,0,0,1-2-2V60.31a6.68,6.68,0,0,0-.48-2.49l-.3-.74a.18.18,0,0,0-.17-.09.2.2,0,0,0-.18.09l-.29.8a6.62,6.62,0,0,0-.42,2.33v2a2,2,0,0,1-2,2,2.08,2.08,0,0,1-1.75-1L38.74,62a16.27,16.27,0,0,1-2.34-7,5.57,5.57,0,0,0-.81-2.4l-1.12-1.83a8.47,8.47,0,0,1-1.25-4.42,7.92,7.92,0,0,1,1.12-4.22,5.93,5.93,0,0,1,5.07-2.7,5.69,5.69,0,0,1,1,.09l3.75.62,3.75-.62a5.66,5.66,0,0,1,1-.09A5.92,5.92,0,0,1,54,42.19a7.89,7.89,0,0,1,1.12,4.21,8.47,8.47,0,0,1-1.25,4.42l-1.12,1.83a5.57,5.57,0,0,0-.81,2.4,16.31,16.31,0,0,1-2.34,7l-.74,1.21A2.08,2.08,0,0,1,47.13,64.18Zm-.1-2a.69.69,0,0,0,.2,0L48,61A14.32,14.32,0,0,0,50,54.87a7.61,7.61,0,0,1,1.09-3.23l1.12-1.83a6.54,6.54,0,0,0,1-3.41,6,6,0,0,0-.84-3.2A4,4,0,0,0,49,41.42a4.17,4.17,0,0,0-.71.06l-3.9.64a.86.86,0,0,1-.32,0l-3.9-.64a4.17,4.17,0,0,0-.71-.06A4,4,0,0,0,36,43.19a6,6,0,0,0-.84,3.21,6.54,6.54,0,0,0,1,3.41l1.12,1.83a7.61,7.61,0,0,1,1.09,3.23A14.27,14.27,0,0,0,40.39,61l.74,1.21a.13.13,0,0,0,.1,0,.11.11,0,0,0,.1,0v-2a8.72,8.72,0,0,1,.53-3l.3-.81a2.14,2.14,0,0,1,4,0l.29.75a8.56,8.56,0,0,1,.62,3.2v1.91Z"/><path class="cls-2" d="M51.82,83.33a1,1,0,0,1-1-1V75a7.42,7.42,0,0,1,7.29-7.39c4.1-.06,9.43-.26,13.17-.41a2.36,2.36,0,0,0,2.25-2.68,8.86,8.86,0,0,0-.75-2.87,4.83,4.83,0,0,1-.55-2.25,3.61,3.61,0,0,1,2-3.24h0a.53.53,0,0,0,0-.17,1.4,1.4,0,0,0-.8-1.42L68.28,52a1,1,0,0,1-.53-.9,1,1,0,0,1,.61-.86,42.09,42.09,0,0,0,6.37-3.08c-.5-1.16-1.34-3.29-1.39-3.39a1,1,0,0,1-.06-.35c0-.46,0-.9,2.74-2.43,1.89-1.1,2.88-2.3,2.85-3.43a.86.86,0,0,0,0-.22,1.77,1.77,0,0,0-.93-1.25c-1.31-.73-2.6-1.52-3.85-2.35-3-2-4.79-3.21-6-5.22a12.2,12.2,0,0,1-1.7-6.88,1,1,0,0,1,1-.93h0a1,1,0,0,1,.93,1,10.34,10.34,0,0,0,1.41,5.8c1,1.59,2.4,2.57,5.49,4.63,1.2.81,2.44,1.57,3.7,2.26A3.74,3.74,0,0,1,80.76,37a3.37,3.37,0,0,1,0,.5c0,1.3-.61,3.26-3.83,5.15-.61.34-1.22.72-1.6,1,.36.91,1,2.59,1.32,3.18a1.16,1.16,0,0,1,0,.93c-.12.31-.47,1.2-5.68,3.46l3.39,1.71a3.32,3.32,0,0,1,1.84,3.45,2,2,0,0,1-1.09,1.58,1.66,1.66,0,0,0-1,1.5,2.9,2.9,0,0,0,.31,1.36,10.3,10.3,0,0,1,1,3.54,4.39,4.39,0,0,1-1,3.34,4.34,4.34,0,0,1-3.11,1.51c-3.75.16-9.1.35-13.22.41A5.49,5.49,0,0,0,52.78,75v7.33A1,1,0,0,1,51.82,83.33Z"/><path class="cls-2" d="M32.25,55.41a1,1,0,0,1-.7-.3,11.93,11.93,0,0,1-2.17-3.21,11.62,11.62,0,0,1-1.06-4.12,1,1,0,0,1,1.93-.11,10,10,0,0,0,2.7,6.1,1,1,0,0,1-.7,1.64Z"/><path class="cls-2" d="M30.91,60.5a1,1,0,0,1-.37-.07,12.13,12.13,0,0,1-6.05-6.27,12.14,12.14,0,0,1-.84-8.67,1,1,0,0,1,1.23-.61,1,1,0,0,1,.61,1.22,10.33,10.33,0,0,0,.76,7.25,10.37,10.37,0,0,0,5,5.29,1,1,0,0,1-.36,1.86Z"/><path class="cls-2" d="M55.79,55.41a1,1,0,0,1-.7-1.64,10,10,0,0,0,2.7-6.1,1,1,0,1,1,1.93.11,11.62,11.62,0,0,1-1.06,4.12,11.93,11.93,0,0,1-2.17,3.21A1,1,0,0,1,55.79,55.41Z"/><path class="cls-2" d="M57.13,60.5a1,1,0,0,1-.89-.6,1,1,0,0,1,.53-1.26,10.37,10.37,0,0,0,5-5.29,10.33,10.33,0,0,0,.76-7.25,1,1,0,0,1,.61-1.22,1,1,0,0,1,1.23.61,12.14,12.14,0,0,1-.84,8.67,12.13,12.13,0,0,1-6,6.27A1,1,0,0,1,57.13,60.5Z"/></g></svg>