<svg xmlns="http://www.w3.org/2000/svg" id="Layer_1" data-name="Layer 1" viewBox="0 0 612 259.52"><defs><style>.cls-2{fill:#b8b308}.cls-3{fill:#fff}</style></defs><path fill="#d9d588" d="M524.4 114.12a65.68 65.68 0 11-65.68-65.67 65.68 65.68 0 0165.68 65.67z"/><path d="M524.4 114.12a65.68 65.68 0 01-131.35 0c0-36.27 32.77 7.58 69 7.58s62.35-43.85 62.35-7.58z" class="cls-2"/><path d="M524.25 117.59s0 50.75 1.23 60.49c0 0-35 2.93-65.48 1.71z" class="cls-2"/><path d="M490.06 96.2c-.2-7.81-1.28-16.64-6.83-23.38a16 16 0 00-12.62-6.06 20.68 20.68 0 00-7.26 1.39 47.08 47.08 0 00-5.08 2.28c-.9.47-1.83 1.18-2.8 1.81a12.86 12.86 0 01-1.25.74l-.39.16H453a41.69 41.69 0 00-13.76 2.4c-6 2.17-12.42 6.45-15.66 14.5a25.14 25.14 0 00-1.68 9.51c0 8.87 3.32 18.57 6.58 26.15a120.39 120.39 0 006.54 13s2.91 4.94 6.05 10.2c1.57 2.63 3.18 5.33 4.52 7.54s2.38 3.88 2.87 4.61a10.65 10.65 0 001.42 1.59 6.29 6.29 0 004.12 1.76 5.21 5.21 0 001.9-.37 4.75 4.75 0 002.63-2.62 7.44 7.44 0 00.53-2.89 11.55 11.55 0 00-.26-2.35c0-.15-.07-.49-.14-1a107.74 107.74 0 01-.81-12.39 43.48 43.48 0 01.93-9.91c.67-2.86 1.84-4.73 3-5.26a2.48 2.48 0 011.12-.33 2.09 2.09 0 011.31.57c1.61 1.24 3.12 5.08 3.68 7.13 2.18 7.11.59 15.15 2.42 23.45a7.77 7.77 0 001.92 3.78 4.89 4.89 0 003.49 1.49c2.81-.08 5.07-2.13 6.37-5 1.4-3.18 1.84-6.76 2.44-9.63 1.25-6 2.1-12 2.95-18a226.49 226.49 0 002.67-31.73c-.06-1.07-.07-2.11-.09-3.14z" class="cls-3"/><path fill="none" stroke="#b8b308" d="M490.06 96.2c-.2-7.81-1.28-16.64-6.83-23.38a16 16 0 00-12.62-6.06 20.68 20.68 0 00-7.26 1.39 47.08 47.08 0 00-5.08 2.28c-.9.47-1.83 1.18-2.8 1.81a12.86 12.86 0 01-1.25.74l-.39.16H453a41.69 41.69 0 00-13.76 2.4c-6 2.17-12.42 6.45-15.66 14.5a25.14 25.14 0 00-1.68 9.51c0 8.87 3.32 18.57 6.58 26.15a120.39 120.39 0 006.54 13s2.91 4.94 6.05 10.2c1.57 2.63 3.18 5.33 4.52 7.54s2.38 3.88 2.87 4.61a10.65 10.65 0 001.42 1.59 6.29 6.29 0 004.12 1.76h0a5.21 5.21 0 001.9-.37 4.75 4.75 0 002.63-2.62 7.44 7.44 0 00.53-2.89 11.55 11.55 0 00-.26-2.35c0-.15-.07-.49-.14-1a107.74 107.74 0 01-.81-12.39 43.48 43.48 0 01.93-9.91c.67-2.86 1.84-4.73 3-5.26a2.48 2.48 0 011.12-.33 2.09 2.09 0 011.31.57c1.61 1.24 3.12 5.08 3.68 7.13 2.18 7.11.59 15.15 2.42 23.45a7.77 7.77 0 001.92 3.78 4.89 4.89 0 003.49 1.49c2.81-.08 5.07-2.13 6.37-5 1.4-3.18 1.84-6.76 2.44-9.63 1.25-6 2.1-12 2.95-18a226.49 226.49 0 002.67-31.73c-.06-1.07-.07-2.11-.09-3.14z"/><path d="M19.82 70.29a62.5 62.5 0 0121.29-14.14 64.12 64.12 0 0148.29 0 62.6 62.6 0 0121.29 14.14l8.85 8.86-17.71 18-9.15-8.86a38 38 0 00-12.85-8.57 38.57 38.57 0 00-29.15 0 38 38 0 00-12.86 8.57 35.2 35.2 0 00-8.57 12.58 38.54 38.54 0 000 29.14C38 151.82 61 157.55 82.32 154.46c10.69-1.54 22.43-4.49 32.18-9.14 8.19-3.89 27.79-13.49 27.79-13.49s14.59 19.51 15.07 19.65c-3.48 2.17-22.08 11.94-25.54 13.81a125.67 125.67 0 01-33.69 12.05C71 183 40.44 181.49 19.82 160.87a61 61 0 01-14-21.14 66.07 66.07 0 010-48.29 61.07 61.07 0 0114-21.15z" class="cls-2"/><path d="M268.13 114s13 25.92 13 25.93c.3.5-33.62 21.78-37.12 23.79-21.18 12.17-45.58 22.08-70.25 15.75A63.82 63.82 0 01134.4 150a60.82 60.82 0 01-8.28-24.1 66.46 66.46 0 011.56-24.52 65.29 65.29 0 0110.37-22.12 61.4 61.4 0 0118.81-17A62.73 62.73 0 01181 53.79a64.2 64.2 0 0146.78 12 62.56 62.56 0 0117.12 19l6.38 10.77q-43.21 25.61-86.45 51.21c5.64 4.42 11.53 9 33.82 8.41 14.87-.4 29.3-10.24 41.81-17.9 3.84-2.4 29.4-19.86 27.67-23.28zm-98.22-30.16a38.22 38.22 0 00-18.18 41.06l12.69-7.51 18.08-10.71q9.56-5.66 18.39-10.78t13.7-8a38.34 38.34 0 00-21.37-9.3 36.78 36.78 0 00-23.31 5.24z" class="cls-2"/><path d="M385.28 0v115.44a62.74 62.74 0 01-5 24.86 66.13 66.13 0 01-13.72 20.57 64 64 0 01-70.15 13.86A64.83 64.83 0 01262 140.3a63.39 63.39 0 0113.86-70.15 66 66 0 0120.57-13.72 62.78 62.78 0 0124.87-5h38.57V0zm-64 154.29a37.56 37.56 0 0015-3 38.78 38.78 0 0012.28-8.29 39 39 0 0011.29-27.57V76.86h-38.57a38.65 38.65 0 00-35.87 23.58 37.7 37.7 0 00-3 15A38.94 38.94 0 00293.7 143a38 38 0 0012.43 8.28 38.5 38.5 0 0015.15 3.01zM610.75 51.43v25.43h-12.84a37.51 37.51 0 00-15 3 38.79 38.79 0 00-20.58 20.57 37.87 37.87 0 00-3 15v64.29h-25.72v-64.28a62.36 62.36 0 015-25 63.66 63.66 0 0113.86-20.29A66.17 66.17 0 01573 56.43a62.71 62.71 0 0124.87-5z" class="cls-2"/><path d="M7.62 215.87a80 80 0 0112-.9c8.07 0 13.81 1.87 17.62 5.42S43.33 229 43.33 236s-2.2 12.92-6.27 16.92-10.78 6.26-19.24 6.26a91.51 91.51 0 01-10.2-.51zm5.62 38.48a35.32 35.32 0 005.68.32c12 0 18.53-6.71 18.53-18.46.06-10.27-5.75-16.79-17.63-16.79a32.07 32.07 0 00-6.58.58zM86.07 238.4H69.15v15.69H88v4.72H63.54v-43.52H87V220H69.15v13.76h16.92zM108.22 258.81v-43.52h6.13l14 22a125.33 125.33 0 017.81 14.13l.13-.06c-.52-5.81-.65-11.1-.65-17.88v-18.19h5.3v43.52h-5.74l-13.81-22.08a139.21 139.21 0 01-8.14-14.53l-.19.06c.32 5.49.45 10.72.45 18v18.6zM171.88 220.07h-13.24v-4.78h32.22v4.78h-13.3v38.74h-5.68zM210.81 245.12l-4.52 13.69h-5.81l14.79-43.52h6.78l14.85 43.52h-6l-4.65-13.69zm14.27-4.39l-4.26-12.53c-1-2.84-1.61-5.42-2.26-7.94h-.13c-.64 2.58-1.35 5.23-2.19 7.88L212 240.73zM256.2 215.29h5.62v38.8h18.6v4.72H256.2zM356.6 257.39a27.7 27.7 0 01-11.49 2.13c-12.27 0-21.5-7.82-21.5-22.08 0-13.63 9.23-22.86 22.73-22.86 5.42 0 8.84 1.16 10.33 1.94l-1.36 4.58a20.48 20.48 0 00-8.78-1.81c-10.2 0-17 6.52-17 18 0 10.66 6.13 17.5 16.72 17.5a22.42 22.42 0 009.17-1.81zM399.09 238.4h-16.92v15.69H401v4.72h-24.44v-43.52h23.5V220h-17.89v13.76h16.92zM421.24 258.81v-43.52h6.13l13.94 22a124 124 0 017.82 14.13l.13-.06c-.52-5.81-.65-11.1-.65-17.88v-18.19h5.29v43.52h-5.68l-13.81-22.08a139.21 139.21 0 01-8.14-14.53l-.19.06c.32 5.49.45 10.72.45 18v18.6zM484.9 220.07h-13.24v-4.78h32.22v4.78h-13.3v38.74h-5.68zM521.64 215.87a58.63 58.63 0 0110.78-.9c6 0 9.88 1.1 12.59 3.55a10.85 10.85 0 013.42 8.26c0 5.75-3.62 9.56-8.2 11.11v.19c3.36 1.16 5.36 4.26 6.39 8.78 1.42 6.07 2.46 10.27 3.36 11.95h-5.81c-.71-1.3-1.68-5-2.91-10.4-1.29-6-3.61-8.26-8.71-8.46h-5.3v18.86h-5.61zm5.61 19.82H533c6 0 9.81-3.29 9.81-8.26 0-5.62-4.06-8.07-10-8.14a23 23 0 00-5.56.52zM591.82 238.4H574.9v15.69h18.86v4.72h-24.47v-43.52h23.5V220H574.9v13.76h16.92z" class="cls-3"/></svg>