<svg id="Isolation_Mode" data-name="Isolation Mode" xmlns="http://www.w3.org/2000/svg" viewBox="0 0 116.06 26.95"><defs><style>.cls-1{fill:#0067ac;}.cls-2{fill:#0081c6;}.cls-3{fill:#7fc0e3;}</style></defs><title>invisalign</title><path class="cls-1" d="M99.84,8.82h2.07l0,.86a3,3,0,0,1,2.38-1.12c2.27,0,3.51,1.4,3.51,3.85v5.71h-2.15V12.49a1.85,1.85,0,1,0-3.69,0v5.64H99.84Zm-18.12,9.3H79.57V4.61h2.15Zm4.59,0H84.16V8.82h2.15ZM85.24,4.39a1.35,1.35,0,1,0,1.35,1.35,1.34,1.34,0,0,0-1.35-1.35M75,8.82h2.13v9.3H75l0-1a4.17,4.17,0,0,1-2.88,1.24c-2.53,0-4.41-2-4.41-4.91,0-3,2-4.91,4.41-4.91A3.73,3.73,0,0,1,75,9.8Zm-5.13,4.65a2.64,2.64,0,1,0,5.23,0,2.64,2.64,0,1,0-5.23,0m25.49,0a2.64,2.64,0,1,0-5.23,0,2.69,2.69,0,0,0,2.62,3,2.66,2.66,0,0,0,2.61-3m2,3.73c0,4-2.33,5.31-5.08,5.31A7.26,7.26,0,0,1,89,21.78l.53-1.85a5.63,5.63,0,0,0,2.78.72,2.78,2.78,0,0,0,3-2.87v-.64a3.79,3.79,0,0,1-2.9,1.24c-2.5,0-4.4-2-4.4-4.91s1.78-4.91,4.4-4.91A3.69,3.69,0,0,1,95.24,9.8l0-1h2.13Z"/><path class="cls-2" d="M48.2,8.82l2.41,5.59L53,8.82h2.38l-4.8,9.94L45.83,8.82Zm12,7.16a5.18,5.18,0,0,0,2.4.7c1,0,1.54-.45,1.54-1.06s-.38-1-1.55-1.41c-1.84-.62-2.57-1.58-2.57-2.7,0-1.66,1.31-2.94,3.5-2.94a5.41,5.41,0,0,1,2.51.56l-.48,1.66a4.22,4.22,0,0,0-2-.54c-.85,0-1.36.42-1.36,1s.45.91,1.65,1.35c1.72.6,2.47,1.46,2.49,2.85,0,1.72-1.27,2.93-3.77,2.93a6.08,6.08,0,0,1-2.87-.66ZM35,18.12H32.81V8.82H35ZM33.89,4.38a1.35,1.35,0,1,0,1.34,1.35,1.35,1.35,0,0,0-1.34-1.35M58.31,18.12H56.16V8.82h2.15ZM57.23,4.38a1.35,1.35,0,1,0,1.34,1.35,1.35,1.35,0,0,0-1.34-1.35M37.4,8.82h2.07l0,.86a3,3,0,0,1,2.4-1.12c2.08,0,3.48,1.4,3.48,3.85v5.7H43.24v-5.6a1.85,1.85,0,1,0-3.69,0v5.6H37.4Z"/><path class="cls-3" d="M16.41,8.29a6,6,0,0,1,2.25,2.25,6.71,6.71,0,0,1-3.26,1,6.69,6.69,0,0,1,1-3.27m2.25,8.11a6.71,6.71,0,0,0-3.26-1,6.68,6.68,0,0,0,1,3.26,6,6,0,0,0,2.25-2.25m-2.47-2.93a6.69,6.69,0,0,0,3,1.59,5.93,5.93,0,0,0,0-3.18,6.7,6.7,0,0,0-3,1.59m-5.42,0a6.7,6.7,0,0,0-3-1.59,6,6,0,0,0,0,3.18,6.69,6.69,0,0,0,3-1.59m.8,1.92a6.71,6.71,0,0,0-3.26,1,6,6,0,0,0,2.24,2.25,6.74,6.74,0,0,0,1-3.26m0-3.83a6.75,6.75,0,0,0-1-3.27A6,6,0,0,0,8.3,10.54a6.71,6.71,0,0,0,3.26,1m1.92,4.62a6.7,6.7,0,0,0-1.59,3,5.91,5.91,0,0,0,3.18,0,6.77,6.77,0,0,0-1.59-3m0-5.42a6.78,6.78,0,0,0,1.59-3,5.94,5.94,0,0,0-3.18,0,6.71,6.71,0,0,0,1.59,3"/><path class="cls-1" d="M18.79,5.85A14.81,14.81,0,0,1,23,3.95,14.78,14.78,0,0,1,21.1,8.16a9.33,9.33,0,0,0-2.31-2.31M15.11,4.32A14.87,14.87,0,0,0,13.48,0a14.79,14.79,0,0,0-1.64,4.32,9.61,9.61,0,0,1,1.64-.14,9.35,9.35,0,0,1,1.63.14M18.79,21.1A14.73,14.73,0,0,0,23,23a14.8,14.8,0,0,0-1.91-4.22,9.32,9.32,0,0,1-2.31,2.31M4.33,11.84A14.75,14.75,0,0,0,0,13.47,14.72,14.72,0,0,0,4.33,15.1a9.12,9.12,0,0,1,0-3.26M22.62,15.1a14.73,14.73,0,0,0,4.33-1.63,14.76,14.76,0,0,0-4.33-1.63,9.44,9.44,0,0,1,0,3.26M8.16,5.85a14.85,14.85,0,0,0-4.21-1.9,14.73,14.73,0,0,0,1.9,4.21A9.29,9.29,0,0,1,8.16,5.85m3.68,16.77a14.8,14.8,0,0,0,1.64,4.32,14.88,14.88,0,0,0,1.63-4.32,9.42,9.42,0,0,1-3.27,0m-6-3.84A14.73,14.73,0,0,0,3.95,23,14.77,14.77,0,0,0,8.16,21.1a9.3,9.3,0,0,1-2.31-2.31"/><path class="cls-2" d="M15.27,21a9.15,9.15,0,0,1-.16,1.66,9.48,9.48,0,0,1-3.27,0A9,9,0,0,1,11.68,21a7.34,7.34,0,0,1,.21-1.76,5.94,5.94,0,0,0,3.18,0A7.45,7.45,0,0,1,15.27,21m3.94-9.08a5.93,5.93,0,0,1,0,3.18,7.59,7.59,0,0,0,1.76.21,8.58,8.58,0,0,0,1.65-.17,9.37,9.37,0,0,0,0-3.26A8.66,8.66,0,0,0,21,11.68a7.48,7.48,0,0,0-1.76.21m-.56,4.52a6,6,0,0,1-2.25,2.25A7.39,7.39,0,0,0,17.5,20a8.68,8.68,0,0,0,1.29,1.05,9.28,9.28,0,0,0,2.31-2.31A9,9,0,0,0,20,17.5a7.36,7.36,0,0,0-1.39-1.09M7.74,15.06a6,6,0,0,1,0-3.18A7.45,7.45,0,0,0,6,11.68a8.7,8.7,0,0,0-1.65.17,9.18,9.18,0,0,0,0,3.26A8.62,8.62,0,0,0,6,15.27a7.55,7.55,0,0,0,1.76-.21m8.67-6.77a6,6,0,0,1,2.25,2.25A7.24,7.24,0,0,0,20,9.45,8.88,8.88,0,0,0,21.1,8.16a9.31,9.31,0,0,0-2.31-2.31A9.05,9.05,0,0,0,17.5,6.9a7.44,7.44,0,0,0-1.1,1.39m-4.52-.55a6,6,0,0,1,3.18,0A7.45,7.45,0,0,0,15.27,6a9.12,9.12,0,0,0-.16-1.66,9.41,9.41,0,0,0-3.27,0A9,9,0,0,0,11.68,6a7.34,7.34,0,0,0,.21,1.76M8.3,10.54a6,6,0,0,1,2.24-2.25A7.31,7.31,0,0,0,9.45,6.9,9.11,9.11,0,0,0,8.16,5.85,9.39,9.39,0,0,0,5.85,8.16,8.84,8.84,0,0,0,6.91,9.45,7.33,7.33,0,0,0,8.3,10.54m2.24,8.11A6,6,0,0,1,8.3,16.41,7.45,7.45,0,0,0,6.91,17.5a8.91,8.91,0,0,0-1.05,1.29A9.36,9.36,0,0,0,8.16,21.1,8.88,8.88,0,0,0,9.45,20a7.38,7.38,0,0,0,1.09-1.39"/><path class="cls-1" d="M113.76,8.77a2.31,2.31,0,1,1-2.31,2.31,2.3,2.3,0,0,1,2.31-2.31m0,4.28a1.91,1.91,0,0,0,1.89-2,1.9,1.9,0,1,0-3.79,0,1.91,1.91,0,0,0,1.9,2m-.88-3.32h1c.64,0,.94.25.94.77a.69.69,0,0,1-.71.73l.77,1.19h-.44l-.73-1.16h-.44v1.16h-.41Zm.41,1.2h.42c.37,0,.72,0,.72-.45s-.32-.41-.6-.41h-.54Z"/></svg>