<svg width="34" height="34" viewBox="0 0 34 34" xmlns="http://www.w3.org/2000/svg" xmlns:xlink="http://www.w3.org/1999/xlink">
    <defs>
        <path d="M.043.46.038.307.043.46A2.44 2.44 0 0 0 0 .005L.02.001 4.042 0c.013 0 .02 0 .032.006a1.898 1.898 0 0 0-.032.347v1.48c0 .6-.462 1.1-1.047 1.16L2.876 3H1.21l-.1-.006a1.119 1.119 0 0 1-.934-.68 1.35 1.35 0 0 1-.053-.135 1.75 1.75 0 0 1-.08-.542V.46z" id="a"/>
        <path d="M4.985-8.623A4.65 4.65 0 0 1 6.709-5c0 1.439-.65 2.774-1.783 3.665-.458.36-.757.836-.851 1.341C4.062 0 4.055 0 4.043 0H.019L0 .006C-.1-.52-.37-.98-.762-1.275c-1.457-1.097-2.13-2.901-1.76-4.708a4.658 4.658 0 0 1 3.565-3.579 4.691 4.691 0 0 1 3.943.939z" id="b"/>
        <path d="M4.6 4.796c.265 1.191.837 2.247 1.495 2.83 1.386 1.231 3.87-.915 6.547.85a4.632 4.632 0 0 1-1.759 3.19c-.458.36-.756.835-.85 1.34C10.02 13 10.012 13 10 13H5.977l-.02.005c-.1-.524-.37-.984-.763-1.28-1.457-1.097-2.13-2.901-1.76-4.708.16-.78.527-1.494 1.039-2.082z" id="d"/>
    </defs>
    <g transform="translate(1 1)" fill="none" fill-rule="evenodd">
        <rect stroke="#D9DCE3" stroke-width=".533" width="32" height="32" rx="16"/>
        <g transform="translate(8 8)">
            <path d="m12.735 12.027.922.922a.5.5 0 1 1-.707.708l-.923-.923a.5.5 0 1 1 .708-.707zm-8.762 0a.5.5 0 0 1 0 .707l-.922.923a.499.499 0 0 1-.708 0 .5.5 0 0 1 0-.708l.923-.922a.5.5 0 0 1 .707 0zM15.5 7.5a.5.5 0 0 1 0 1h-1.305a.5.5 0 0 1 0-1H15.5zm-13.695 0a.5.5 0 0 1 0 1H.5a.5.5 0 0 1 0-1h1.305zM8.167 5A2.837 2.837 0 0 1 11 7.833a.5.5 0 0 1-1 0A1.835 1.835 0 0 0 8.167 6a.5.5 0 0 1 0-1zm5.49-2.657a.5.5 0 0 1 0 .707l-.922.923a.502.502 0 0 1-.708 0 .5.5 0 0 1 0-.708l.923-.922a.5.5 0 0 1 .707 0zm-10.606 0 .922.922a.5.5 0 1 1-.707.708l-.923-.923a.5.5 0 1 1 .708-.707zM8 0a.5.5 0 0 1 .5.5v1.305a.5.5 0 0 1-1 0V.5A.5.5 0 0 1 8 0z" fill="#8800A6"/>
            <g transform="translate(5.957 13)">
                <use fill="#AD1FCC" xlink:href="#a"/>
                <mask id="c" fill="#fff">
                    <use xlink:href="#b"/>
                </mask>
                <use fill="#AD1FCC" xlink:href="#b"/>
                <circle fill="#FFF" mask="url(#c)" cx="4.603" cy="-6.28" r="1"/>
            </g>
            <use fill="#8800A6" xlink:href="#d"/>
        </g>
    </g>
</svg>
