<svg width="42" height="42" viewBox="0 0 42 42" xmlns="http://www.w3.org/2000/svg" xmlns:xlink="http://www.w3.org/1999/xlink">
    <defs>
        <filter color-interpolation-filters="auto" id="c">
            <feColorMatrix in="SourceGraphic" values="0 0 0 0 1.000000 0 0 0 0 1.000000 0 0 0 0 1.000000 0 0 0 1.000000 0"/>
        </filter>
        <circle id="a" cx="21" cy="21" r="21"/>
    </defs>
    <g fill="none" fill-rule="evenodd">
        <g>
            <mask id="b" fill="#fff">
                <use xlink:href="#a"/>
            </mask>
            <use fill="#002956" xlink:href="#a"/>
            <path d="M-9.015 14.086c-5.738-.667-6.842 2.554-3.31 9.663 5.297 10.664-4.636 15.995-2.318 21.327 2.317 5.332 11.919 11.663 19.865 7.664 7.946-3.999 13.906-5.332 12.25-14.995-1.655-9.664 11.92-16.995 1.656-20.327-6.843-2.222-16.224-3.332-28.143-3.332z" fill="#4A6784" mask="url(#b)" transform="scale(-1 1) rotate(39 0 22.704)"/>
        </g>
        <g filter="url(#c)">
            <g fill="#000" fill-rule="nonzero">
                <path d="M27.56 14.003H11.273c-.71 0-1.273.597-1.273 1.302V25.32c.006.694.58 1.25 1.273 1.245h.66v-8.169c0-1.336 1.091-2.404 2.427-2.404h14.462v-.688c0-.705-.551-1.302-1.262-1.302zM29.334 25.77a.911.911 0 0 0-1.285.114.57.57 0 0 1-.887 0 .912.912 0 0 0-1.62.586.92.92 0 0 0 .921.915.89.89 0 0 0 .705-.33.564.564 0 0 1 .438-.205.55.55 0 0 1 .437.2c.04.045.074.085.12.119a.911.911 0 1 0 1.17-1.399z"/>
                <path d="M30.653 17.13H14.36a1.277 1.277 0 0 0-1.29 1.267v.836h18.879v-.836c0-.71-.586-1.268-1.296-1.268zM13.07 20.37h18.873v1.478H13.07zM13.07 22.985v5.406a1.3 1.3 0 0 0 1.29 1.302h16.287a1.308 1.308 0 0 0 1.296-1.302v-5.406H13.07zm17.39 4.627a2.057 2.057 0 0 1-2.854.552 2.026 2.026 0 0 1-1.149.352 2.056 2.056 0 0 1 0-4.11c.41 0 .808.12 1.149.352a2.05 2.05 0 0 1 2.302 0 2.057 2.057 0 0 1 .551 2.854z"/>
            </g>
        </g>
    </g>
</svg>
