<svg width="38" height="38" viewBox="0 0 38 38" xmlns="http://www.w3.org/2000/svg" xmlns:xlink="http://www.w3.org/1999/xlink">
    <defs>
        <path d="M3.016 11.461c.493 0 .903.4.903.906v4.22c0 .439-.353.907-.903.907H.9A.905.905 0 0 1 0 16.588v-4.22c0-.496.399-.907.907-.907zm3.599-.603c.223 0 .483.051.768.14-1.112 1.266-1.344 2.69-1.344 2.69s-.41 1.048-.072 2.649a.737.737 0 0 0-.237-.05 8.822 8.822 0 0 0-1.207.145v-4.065c0-.26-.073-.502-.19-.717.112-.056.188-.098.317-.16.662-.317 1.497-.632 1.965-.632zm-5.106 4.826a.302.302 0 1 0 0 .603.302.302 0 0 0 0-.603zm9.65-13.27c2.328 0 4.223 1.9 4.223 4.236a4.22 4.22 0 0 1-.624 2.214c-2.023-.125-4.155-.086-6.086 1.063l-.105.064a4.232 4.232 0 0 1-1.63-3.341c0-2.336 1.893-4.237 4.221-4.237zm5.427 3.92c0-.402.604-.402.604 0v2.933a4.71 4.71 0 0 0-.604-.195zm-11.76-1.81c0-.4.602-.4.602 0v2.111c0 .406-.603.403-.603 0zm1.206-1.508c0-.401.603-.401.603 0v1.81c0 .41-.603.394-.603 0zm9.047-1.508c0-.404.603-.404.603 0v2.11c0 .406-.603.4-.603 0zM13.872.302c0-.403.604-.403.604 0v1.81c0 .402-.604.402-.604 0z" id="b"/>
        <path d="M1.55 2.183c1.292.4 3.093 1.567 4.196 2.204.294.17.39.53.22.823a.595.595 0 0 1-.824.22L3.315 4.377c-.355-.234-.681.327-.303.52l1.83 1.056A1.21 1.21 0 0 0 6.49 5.51c.132-.23.176-.486.15-.732l3.786-1.311c.549-.187 1.113-.07 1.391.412.29.502.122 1.158-.391 1.442-2.028 1.186-5.508 3.155-7.158 3.772-.3.112-.528.186-.755.186-.754 0-1.449-.504-2.094-.96-.37-.26-.9-.659-1.286-.798-.338-1.6.072-2.649.072-2.649s.222-1.366 1.278-2.611zm9.807-1.73v.773l.389-.39a.329.329 0 0 1 .208-.091c.097.059.191.12.282.184a.3.3 0 0 1-.063.332l-.906.906a.302.302 0 0 1-.425 0l-.906-.906c-.28-.3.15-.702.427-.425l.39.388V.257c.21.053.411.118.604.195zM8.924.047 8.866.14a4.22 4.22 0 0 1-3.542 1.931 4.19 4.19 0 0 1-2.59-.893l.104-.066C4.77-.037 6.902-.076 8.924.048z" id="c"/>
        <circle id="a" cx="19" cy="19" r="19"/>
    </defs>
    <g fill="none" fill-rule="evenodd">
        <use fill="#E5D4FA" xlink:href="#a"/>
        <use fill="#4B00A6" fill-rule="nonzero" xlink:href="#b" transform="translate(9.096 9.526)"/>
        <use fill="#8B3CEC" fill-rule="nonzero" xlink:href="#c" transform="translate(14.93 18.341)"/>
        <path d="M18.645 16.387v.334l1.422 1.654h.607v-.032l-1.319-1.533h.011c.319.018.635-.066.904-.24a.966.966 0 0 0 .377-.718h.408l.122-.423h-.537a1.097 1.097 0 0 0-.218-.53h.633l.122-.423h-2.474l-.127.423h.753c.356-.04.69.184.786.53h-1.422l-.123.423h1.554c-.035.16-.13.3-.266.39a.958.958 0 0 1-.543.146l-.67-.001z" fill="#E5D4FA" fill-rule="nonzero"/>
    </g>
</svg>
