<svg width="38" height="38" viewBox="0 0 38 38" xmlns="http://www.w3.org/2000/svg" xmlns:xlink="http://www.w3.org/1999/xlink">
    <defs>
        <circle id="a" cx="19" cy="19" r="19"/>
        <path d="M8.541.157v10.667H1.659C.77 10.255.183 9.405 0 8.433h4.292c.146-.939.842-1.7 1.733-1.92l.169-.034V.954h-.78c.349-.298.77-.551 1.378-.798h1.749zM3.33 3.589l-.055.028c.075-.086.149-.176.223-.27.698-.897 1.09-1.532 1.55-2.034A3.404 3.404 0 0 1 3.33 3.589zM10.54.347v.627h-.777V0c.265.09.525.207.777.347z" id="b"/>
    </defs>
    <g fill="none" fill-rule="evenodd">
        <use fill="#DEF1FF" xlink:href="#a"/>
        <use fill="#72ACF2" fill-rule="nonzero" xlink:href="#b" transform="translate(16.921 14.176)"/>
        <g fill="#2680EB" fill-rule="nonzero">
            <path d="M10 15.15h.776v-2.352h15.908v2.352h.776V12H10z"/>
            <path d="M23.715 14.331c-.609.247-1.03.5-1.379.799h-.308a3.502 3.502 0 0 1-.06.362c-.46.5-.852 1.136-1.55 2.03a6.275 6.275 0 0 1-.222.27 3.235 3.235 0 0 1-1.466.35c-1.707 0-3.104-1.317-3.298-3.012h-1.086v5.524c.97.16 1.746.957 1.9 1.954h.675c.183.973.771 1.822 1.66 2.393h-6.563V14.332z"/>
        </g>
    </g>
</svg>
