<svg width="38" height="38" viewBox="0 0 38 38" xmlns="http://www.w3.org/2000/svg" xmlns:xlink="http://www.w3.org/1999/xlink">
    <defs>
        <circle id="a" cx="19" cy="19" r="19"/>
    </defs>
    <g fill="none" fill-rule="evenodd">
        <mask id="b" fill="#fff">
            <use xlink:href="#a"/>
        </mask>
        <use fill="#F6E3EA" xlink:href="#a"/>
        <g fill-rule="nonzero" mask="url(#b)">
            <g fill="#FF005C">
                <path d="M13.958 16.393a.565.565 0 0 0-.4.966c.7.336 1.432.605 2.183.805-.59-.707-1.188-1.41-1.383-1.605a.565.565 0 0 0-.4-.166zM14.924 22.448a.565.565 0 0 1-.8-.8l1.862-1.862H10v4.524c0 .624.506 1.13 1.131 1.13h5.655v-4.855l-1.862 1.863z"/>
                <path d="M28.095 19.786v4.524c0 .624-.506 1.13-1.13 1.13h-9.048v-4.855l1.862 1.862a.565.565 0 1 0 .8-.8l-1.863-1.861h9.38zm-2.827 2.262h-3.393a.565.565 0 1 0 0 1.13h3.393a.565.565 0 1 0 0-1.13zM16.786 13v4.65c-.635-.76-1.373-1.637-1.628-1.892a1.697 1.697 0 0 0-2.4 2.4c.285.215.603.383.941.497H10V14.13c0-.625.506-1.131 1.131-1.131h5.655zm10.178 0c.625 0 1.131.506 1.131 1.131v4.524h-7.092c.338-.114.655-.282.94-.497a1.696 1.696 0 0 0-2.399-2.398c-.254.254-.993 1.13-1.627 1.89V13zm-6.62 3.558a.565.565 0 0 1 .814.787c-.704.343-1.439.617-2.195.818.59-.707 1.187-1.41 1.382-1.605z"/>
            </g>
            <g fill="#F9899D">
                <path d="M13.958 16.395a.565.565 0 0 0-.4.966c.7.336 1.432.605 2.183.805-.59-.707-1.188-1.41-1.383-1.605a.565.565 0 0 0-.4-.166zM14.924 22.45a.565.565 0 0 1-.8-.8l1.862-1.862H10v4.524c0 .624.506 1.13 1.131 1.13h5.655v-4.855l-1.862 1.863z"/>
                <path d="m17.917 20.587 1.862 1.862c.054.056.118.099.188.128.031.876-.146 1.895-.536 2.866h-1.514v-4.856zm-4.314-5.286-.025.005a1.697 1.697 0 0 0-.82 2.854c.228.172.477.314.74.422l.201.075H10v-4.524c0-.583.441-1.063 1.008-1.124l.123-.007 1.589-.001c.347.495.64 1.261.883 2.3z"/>
            </g>
        </g>
    </g>
</svg>
