<svg width="34" height="34" viewBox="0 0 34 34" xmlns="http://www.w3.org/2000/svg">
    <g transform="translate(1 1)" fill="none" fill-rule="evenodd">
        <rect stroke="#D9DCE3" stroke-width=".533" width="32" height="32" rx="16"/>
        <path d="M16.703 18.858c.182 0 .274-.077.274-.232 0-.515.039-.889.117-1.12.13-.413.39-.773.781-1.082l.82-.541c.808-.644 1.328-1.108 1.563-1.391.495-.67.742-1.404.742-2.203 0-1.365-.508-2.434-1.523-3.207C18.513 8.36 17.237 8 15.648 8c-1.197 0-2.174.258-2.93.773C11.574 9.52 11 10.91 11 12.946h3.008c0-.824.091-1.378.273-1.662.39-.618.912-.927 1.563-.927.677 0 1.21.232 1.601.696.287.36.43.824.43 1.39 0 .387-.156.8-.469 1.237-.104.155-.3.348-.586.58l-.43.27a8.83 8.83 0 0 0-.976.734c-.365.31-.638.593-.82.85-.339.516-.534 1.366-.586 2.55 0 .13.091.194.273.194h2.422zm-1.367 5.14c.52.025.963-.123 1.328-.445.365-.322.56-.754.586-1.295.026-.54-.13-.979-.469-1.313-.338-.335-.781-.516-1.328-.541-.52-.026-.957.128-1.308.463-.352.335-.54.773-.567 1.314-.026.541.13.972.469 1.294.338.322.768.496 1.289.522z" fill="#002956" fill-rule="nonzero"/>
    </g>
</svg>
