<svg width="12" height="12" viewBox="0 0 12 12" xmlns="http://www.w3.org/2000/svg" xmlns:xlink="http://www.w3.org/1999/xlink">
    <defs>
        <path d="M2.41 7.097c-.21.705-.342 1.533-.554 2.454-.178.768-.067 1.51.228 2.185H1.83a.85.85 0 0 1-.849-.848v-3.79zM2.766 0c1.65 0 2.607 1.178 3.089 2.294C6.336 1.183 7.293.014 8.94.014c1.318 0 1.786.718 1.786 1.332.001.112-.014.228-.046.347-1.166.553-2.407 2.49-4.46 2.866v-.614a10.66 10.66 0 0 1-.748 0l-.002.702c-1.6.201-2.35.809-2.786 1.718H.85a.85.85 0 0 1-.842-.742L0 5.517V4.302c0-.432.337-.802.757-.856l.106-.007h2.044C1.592 2.896.98 2.022.98 1.332.98.717 1.45 0 2.766 0zM8.94.746C7.2.746 6.527 2.4 6.307 3.22c1.376-.059 2.254-.41 2.752-.718.687-.41.936-.878.936-1.17.015-.44-.541-.586-1.054-.586zm-6.175 0c-.512 0-1.054.161-1.054.6 0 .63 1.083 1.756 3.688 1.874C5.18 2.4 4.522.746 2.766.746z" id="a"/>
        <path d="M3.718 5.404v4.64H.314C.018 9.368-.092 8.626.085 7.858c.213-.92.344-1.75.554-2.454h3.079zm5.253 0V9.18a.85.85 0 0 1-.849.849H4.464V5.404H8.97zM7.036 1.746h2.052a.84.84 0 0 1 .83.757l.004.106v1.215a.85.85 0 0 1-.742.842l-.106.007H4.449l.001-1.807C6.504 2.49 7.744.554 8.91 0c-.164.61-.773 1.292-1.874 1.746zM3.7 2.954l.002 1.719-2.788-.001c.437-.91 1.185-1.517 2.786-1.718z" id="b"/>
    </defs>
    <g fill="none" fill-rule="evenodd">
        <use fill="#8800A6" fill-rule="nonzero" xlink:href="#a"/>
        <use fill="#AD1FCC" fill-rule="nonzero" xlink:href="#b" transform="translate(1.77 1.693)"/>
    </g>
</svg>
