<svg width="61" height="61" viewBox="0 0 61 61" xmlns="http://www.w3.org/2000/svg" xmlns:xlink="http://www.w3.org/1999/xlink">
    <defs>
        <path d="M46.138 43.125c.555 0 1.005.45 1.005 1.004v2.01c0 .554-.45 1.004-1.005 1.004h-12.12c-.555 0-1.005-.45-1.005-1.005V44.13c0-.554.45-1.004 1.005-1.004zM29.933 20.96a.995.995 0 0 1 1.005 1.004c0 .523-.382.941-.886.998l-.119.007h-.944c.321 2.571 1.928 4.205 3.897 6.134 1.548 1.519 3.236 3.174 4.442 5.535l.22.451h-3.597a3.018 3.018 0 0 0-3.008 2.837l-.006.177v8.035c0 .283.047.555.123.813l.062.192H17.88c-2.712 0-4.982-2.17-5.022-4.822 0-7.252 3.235-10.426 6.087-13.218 1.887-1.849 3.442-3.426 3.85-5.818l.048-.316h-.945a.995.995 0 0 1-1.004-1.005c0-.522.38-.94.886-.998l.118-.006h8.036zm16.205 16.138c.555 0 1.005.45 1.005 1.005v2.009c0 .554-.45 1.004-1.005 1.004h-12.12c-.555 0-1.005-.45-1.005-1.004v-2.01c0-.554.45-1.004 1.005-1.004zm-17.994-4.821h-2.678a1.004 1.004 0 0 0-.118 2.002l.118.007h.253l-1.593 1.593-1.3-1.3a1.005 1.005 0 0 0-1.326-.084l-.095.083-1.991 1.992a1.004 1.004 0 0 0 1.325 1.504l.095-.083 1.282-1.282 1.3 1.3c.362.362.932.39 1.326.084l.094-.084 2.304-2.303v.254a1.004 1.004 0 0 0 2.002.117l.007-.117V33.28c0-.554-.45-1.004-1.005-1.004zm3.798-19.42c.402 0 .763.241.924.623.16.382.08.803-.221 1.085-.016.031-1.905 1.978-2.98 4.386h-7.5c-1.075-2.408-2.964-4.355-2.98-4.386a.953.953 0 0 1-.22-1.085c.16-.382.522-.623.923-.623 1.808 0 2.793.643 3.576 1.165.703.482 1.246.844 2.451.844 1.206 0 1.748-.362 2.451-.844.784-.522 1.768-1.165 3.576-1.165z" id="a"/>
    </defs>
    <g transform="translate(.222 .429)" fill="none" fill-rule="evenodd">
        <mask id="b" fill="#fff">
            <use xlink:href="#a"/>
        </mask>
        <use fill="#FEAF02" xlink:href="#a"/>
        <path d="M9.616 51.747A15.571 15.571 0 0 0 20.9 56.273c6.9-.269 12.249-4.216 17.093-7.893 4.845-3.677 6.122-9.351 3.257-13.763-2.864-4.411-7.352-2.526-13.108-5.371-5.756-2.846-6.854-4.472-13.243-3.74-6.389.731-11.209 7.903-10.437 15.511.771 7.609 5.153 10.73 5.153 10.73" fill="#FFD000" mask="url(#b)"/>
    </g>
</svg>
