<svg width="364" height="269" viewBox="0 0 364 269" xmlns="http://www.w3.org/2000/svg">
    <g fill="none" fill-rule="evenodd">
        <path d="M95.61 29.744S38.654 62.91 13.76 105.516c-24.892 42.604-15.827 91.856 25.695 123.707 41.522 31.852 110.754 17.564 172.408 32.958 61.656 15.394 125.564 1.86 146.574-51.269 21.01-53.128-23.2-65.94-38.07-122.124C305.493 32.604 230.89-42.518 95.61 29.744" fill="#FAFBFC"/>
        <g fill-rule="nonzero">
            <path d="M264.399 67.313c-1.555.355-2.313 2.154-2.462 3.744-.148 1.59.052 3.279-.615 4.73-.75 1.635-2.544 2.844-2.604 4.643-.037 1.099.614 2.122.58 3.23-.052 1.803-1.883 3.182-1.984 4.965-.068 1.3.794 2.54.588 3.825-.159.997-.937 1.783-1.266 2.736-.65 1.909.657 4.005 2.355 5.076a7.71 7.71 0 0 0 11.245-3.598c.943-2.293.735-4.875.529-7.342a547.784 547.784 0 0 1-1.417-23.116" fill="#002953"/>
            <path d="M259.88 94.458c.32-.199.57-.494.713-.844.154-.415.214-.859.18-1.3a7.156 7.156 0 0 0-.386-1.713 4.98 4.98 0 0 1-.276-2.174c.133-.828.724-1.507 1.26-2.175.287-.327.53-.692.715-1.086.187-.4.216-.854.083-1.274-.276-.865-1.123-1.502-1.508-2.504a2.662 2.662 0 0 1-.086-1.548c.12-.48.297-.946.529-1.384a11.72 11.72 0 0 0 1.057-2.499c.37-1.681.196-3.29.45-4.608a5.114 5.114 0 0 1 1.34-2.822c.205-.21.443-.39.698-.53.088-.047.182-.081.281-.102-.33.183-.635.412-.904.679a5.178 5.178 0 0 0-1.221 2.785 16.994 16.994 0 0 0-.149 2.123 13.292 13.292 0 0 1-.242 2.488 11.91 11.91 0 0 1-1.058 2.556c-.396.833-.763 1.81-.411 2.72.349.912 1.19 1.544 1.513 2.52.146.483.11 1-.101 1.46a5.012 5.012 0 0 1-.795 1.193c-.529.668-1.107 1.305-1.232 2.047a4.796 4.796 0 0 0 .242 2.083c.19.57.308 1.162.35 1.76.025.462-.055.922-.238 1.347a1.64 1.64 0 0 1-.529.668.796.796 0 0 1-.276.134z" fill="#455A64"/>
            <path d="m255.74 107.034-4.761 13.79-19.92 1.06-3.323 7.426 20.797 2.122c4.014 1.653 8.606-.271 10.255-4.294.044-.11.089-.222.128-.335l5.55-15.529-8.726-4.24zM296.917 237.159s-14.595-46.473-14.907-47.98c-.281-1.368 5.293-34.81 6.001-43.494l-19.723.736v.196l-8.383.467 7.505 95.007h9.075l-.899-31.534c5.598 15.06 13.62 30.408 13.62 30.408l7.711-3.806z" fill="#E2AA91"/>
            <path d="M275.956 221.872c0-.287-.112-10.566-.112-10.566-.112.616-3.477-8.921-3.396-9.5.041-.301 3.508 20.066 3.508 20.066z" fill="#A36957"/>
            <path d="M272.065 197.288a2.05 2.05 0 0 0-.058.577c-.028.53-.028 1.06 0 1.59 0 .335.047.695.092 1.087.041.391.101.806.19 1.234.187.938.437 1.865.745 2.768.656 1.924 1.385 3.606 1.899 4.827.242.53.455 1.034.635 1.439.065.188.154.366.266.53a1.976 1.976 0 0 0-.16-.53c-.121-.35-.306-.854-.528-1.475-.466-1.24-1.164-2.937-1.815-4.843a23.612 23.612 0 0 1-.758-2.726 16.509 16.509 0 0 1-.217-1.214 16.11 16.11 0 0 1-.127-1.06 29.399 29.399 0 0 1-.107-1.559 2.247 2.247 0 0 0-.057-.645z" fill="#A36957"/>
            <path d="M267.24 242.574v-.854l9.297-.407.026 3.527-.57.036c-2.556.15-12.99.583-14.697.068-1.909-.572 5.945-2.37 5.945-2.37z" fill="#455A64"/>
            <path d="M276.686 244.629a1.582 1.582 0 0 1-.16 0l-.455.032-1.683.074a156.83 156.83 0 0 1-11.102.056l-1.677-.07h-.62a.793.793 0 0 1 .159 0h.461l1.683.033c1.417 0 3.38.042 5.545.032 2.165-.011 4.134-.048 5.551-.088l1.683-.043h.615v-.026z" fill="#002953"/>
            <path d="M264.209 244.923a4.244 4.244 0 0 0-.318-.801 3.854 3.854 0 0 0-.576-.642c.29.104.529.31.672.582a1.3 1.3 0 0 1 .222.861zM266.949 243.53s-.154-.144-.292-.356c-.138-.211-.221-.397-.195-.412.026-.016.153.138.291.35.139.21.222.401.196.417zM267.699 243.153c0 .026-.17-.073-.328-.217-.16-.143-.276-.276-.255-.297.02-.021.169.073.328.217.161.143.278.25.255.297zM268.17 242.255c-.156.058-.323.08-.487.064a1.061 1.061 0 0 1-.482-.048c.154-.059.318-.08.482-.064a1.01 1.01 0 0 1 .487.048zM268.33 241.637a.99.99 0 0 1-.53.162 1.001 1.001 0 0 1-.528-.074c.174-.03.351-.045.529-.043.174-.034.351-.047.528-.045z" fill="#002953"/>
            <path d="M266.636 242.717a1.65 1.65 0 0 1-.599 0 3.485 3.485 0 0 1-.63-.138 1.647 1.647 0 0 1-.365-.149.338.338 0 0 1-.148-.185.227.227 0 0 1 .09-.238 1.097 1.097 0 0 1 1.545.715.41.41 0 0 1 0 .16c-.06-.19-.153-.371-.276-.53a1.085 1.085 0 0 0-.528-.33.94.94 0 0 0-.709.053c-.091.068-.052.18.047.243.107.057.221.107.339.143.198.066.4.118.61.154.398.086.624.086.624.102z" fill="#002953"/>
            <path d="M266.483 242.748a.548.548 0 0 1-.073-.412.978.978 0 0 1 .164-.436.608.608 0 0 1 .492-.308.242.242 0 0 1 .185.277.63.63 0 0 1-.102.266c-.08.13-.174.253-.28.365a.834.834 0 0 1-.34.238s.118-.107.282-.298c.096-.11.18-.23.247-.355.078-.128.138-.355 0-.38-.138-.027-.297.138-.385.255-.084.115-.14.248-.17.386-.02.134-.028.27-.02.402zM276.49 242.093s-.265 0-.682.026a2.928 2.928 0 0 0-2.417 1.948c-.139.397-.149.668-.17.663-.02-.005 0-.068 0-.185.013-.17.044-.34.097-.504.169-.543.492-1.024.932-1.384a2.86 2.86 0 0 1 1.55-.61c.174-.022.354-.022.529 0 .054.007.11.023.161.046zM272.039 243.885a5.041 5.041 0 0 1-1.355.136 4.797 4.797 0 0 1-1.35-.12c0-.031.605 0 1.35 0 .748 0 1.35-.047 1.355-.016z" fill="#002953"/>
            <path d="M273.849 243.869s-.047.127-.112.266c-.063.138-.096.266-.128.26-.03-.004-.047-.143.026-.307.073-.165.193-.246.214-.22zM274.531 243.015s-.036.117-.132.211c-.097.097-.19.16-.217.139-.026-.021.037-.118.133-.217.094-.102.19-.16.216-.133zM275.506 242.624c0 .032-.128.032-.266.08s-.232.125-.26.104c-.027-.021.052-.152.22-.21.173-.061.316-.006.306.026zM276.199 242.434c0 .032-.037.08-.118.11-.078.026-.148.031-.159 0-.01-.033.042-.08.118-.11.075-.03.148-.03.159 0z" fill="#002953"/>
            <path d="m289.022 241.754-.35-.78 8.315-4.186 1.467 3.183-.529.271c-2.271 1.183-11.61 5.861-13.378 6.094-1.956.28 4.475-4.582 4.475-4.582z" fill="#455A64"/>
            <path d="m298.483 239.743-.138.087-.407.211-1.503.765a170.692 170.692 0 0 1-5.011 2.386c-1.975.901-3.785 1.671-5.095 2.217l-1.56.632-.425.164a.55.55 0 0 1-.154.047l.143-.068.417-.185 1.545-.663a244.963 244.963 0 0 0 5.08-2.248 289.64 289.64 0 0 0 5.026-2.355l1.514-.726.417-.196.15-.068z" fill="#002953"/>
            <path d="M287.238 245.137a3.894 3.894 0 0 0-.62-.605 3.748 3.748 0 0 0-.79-.35 1.49 1.49 0 0 1 1.41.955zM289.147 242.738s-.2-.063-.412-.201c-.21-.138-.364-.272-.349-.298.016-.026.201.063.412.201.214.139.365.272.349.298zM289.665 242.098c0 .026-.18 0-.385-.064-.206-.064-.36-.146-.354-.178a.789.789 0 0 1 .39.064c.204.048.36.122.35.178zM289.74 241.075c0 .031-.174.144-.416.261-.14.084-.297.136-.46.154 0-.031.174-.144.41-.261.144-.086.303-.138.467-.154zM289.634 240.448s-.154.212-.43.366a.913.913 0 0 1-.528.16c.15-.103.312-.189.481-.262.26-.141.451-.29.477-.264z" fill="#002953"/>
            <path d="M288.55 242.135a1.677 1.677 0 0 1-.528.243c-.209.06-.42.104-.636.133a1.63 1.63 0 0 1-.39 0 .303.303 0 0 1-.212-.107.239.239 0 0 1 0-.256 1.09 1.09 0 0 1 1.699.016c.062.086.091.138.083.143a1.57 1.57 0 0 0-.46-.355 1.052 1.052 0 0 0-.6-.091.938.938 0 0 0-.625.34c-.057.101 0 .185.143.2.123.01.245.01.365 0 .21-.02.42-.057.625-.112.302-.081.537-.17.537-.154z" fill="#002953"/>
            <path d="M288.402 242.224a.587.587 0 0 1-.232-.35.992.992 0 0 1-.031-.462.603.603 0 0 1 .328-.483c.133-.042.44.227.461.329.021.102-.153.047-.164.133a1.85 1.85 0 0 1-.107.441.841.841 0 0 1-.21.36s.062-.143.137-.38a2.41 2.41 0 0 0 .079-.432c0-.148 0-.376-.17-.339-.17.037-.216.243-.255.392a.942.942 0 0 0 0 .417c.044.13.099.256.164.374zM297.266 237.509s-.255.09-.615.308c-.471.282-.854.689-1.107 1.177a3.002 3.002 0 0 0-.302 1.59c.032.426.133.668.112.679a.67.67 0 0 1-.078-.17 2.94 2.94 0 0 1-.112-.498 2.804 2.804 0 0 1 1.917-3.045.708.708 0 0 1 .185-.041zM293.937 240.978c-.745.52-1.578.901-2.461 1.126 0-.032.555-.243 1.232-.53.68-.288 1.214-.622 1.23-.596z" fill="#002953"/>
            <path d="M295.587 240.219c.026 0 0 .133 0 .287v.292c0 .01-.109-.117-.109-.292s.082-.303.109-.287zM295.856 239.159c.026 0 0 .122-.032.248-.032.128-.114.222-.14.211-.027-.01 0-.123.031-.248.035-.125.11-.222.14-.211zM296.584 238.378c0 .031-.107.078-.211.18-.107.102-.164.206-.19.196-.026-.01 0-.16.117-.282.117-.123.279-.094.284-.094zM297.143 237.945s0 .088-.064.146c-.063.059-.124.093-.146.07-.02-.022 0-.088.064-.147.064-.058.125-.09.146-.069z" fill="#002953"/>
            <path d="m286.73 129.986-1.545-18.936 7.937.143s.365-2.796-.805-8.916c-.719-3.754-3.212-6.057-6.012-7.425V94.8l-.242-.063a22.59 22.59 0 0 0-7.28-1.903l-9.763.112s-7.455-.956-11.568 4.397c-1.587 2.052-6.515 16.103-6.515 16.103l11.722 5.655-1.097-7.79s.221 5.65.943 7.425c.396.997 1.586 4.094 1.586 4.094l-.153 9.347 22.792-2.191z" fill="#FF6700"/>
            <path fill="#FF6700" d="m281.348 108.303-1.45 6.182h13.67l-.902-10.372z"/>
            <path d="M293.567 114.485c-.596-.11-1.203-.17-1.81-.18a71.367 71.367 0 0 0-4.381-.112c-1.735.01-3.264.086-4.387.17-.607.02-1.211.096-1.805.222.607.05 1.214.05 1.82 0a168.292 168.292 0 0 1 8.747-.06c.605.039 1.212.023 1.816-.04z" fill="#002953"/>
            <path d="M280.754 104.063a8.317 8.317 0 0 0-.041 1.59c0 .971.041 2.308.101 3.788.058 1.48.128 2.823.19 3.789.003.535.06 1.067.17 1.59.065-.528.078-1.06.041-1.59 0-.972-.041-2.314-.101-3.794a154.52 154.52 0 0 0-.19-3.788 7.745 7.745 0 0 0-.17-1.585z" fill="#002953"/>
            <path d="M268.319 109.42s3.037 22.579 11.578 21.981c0 0 3.848-.042 5.08-2.603v-1.008l-16.658-18.37zM280.754 105.394l-1.633 11.07 1.058 1.943 1.745-3.799-.74-.02z" opacity=".3" fill="#000"/>
            <path d="M264.044 122.835a2.087 2.087 0 0 1-.231-.53c-.133-.345-.308-.849-.53-1.48a46.151 46.151 0 0 1-1.307-5.013 35.874 35.874 0 0 1-.646-5.141c-.031-.663-.041-1.198-.031-1.59-.013-.19 0-.384.036-.572.042 0 .073.817.185 2.123.149 1.71.391 3.412.725 5.096a64.15 64.15 0 0 0 1.221 5.008c.17.59.313 1.091.43 1.506.073.19.122.39.148.593zM267.493 129.323c-.073 0-.286-.462-.471-1.06a2.565 2.565 0 0 1-.206-1.167c.234.324.393.694.471 1.086.152.36.222.75.206 1.14zM268.673 129.237a4.883 4.883 0 0 1-.047-3.31c.042.55.042 1.104 0 1.654.058.551.073 1.105.047 1.656z" fill="#002953"/>
            <path d="M262.896 119.355c-.037.062-2.761-1.23-6.09-2.896-3.33-1.665-6.002-3.075-5.97-3.146.03-.068 2.76 1.23 6.09 2.896 3.328 1.665 6.001 3.078 5.97 3.146z" fill="#002953"/>
            <path d="M267.699 94.77c.057-2.683.073-5.505.073-5.505s-3.433-.663-4.032-5.193c-.57-4.319 1.026-14.454 1.026-14.454 5.017-1.898 10.23-.175 13.662 3.898l-.852 21.785c-.101 2.53-2.35 4.462-5.048 4.334-2.727-.133-4.886-2.308-4.829-4.864z" fill="#E2AA91"/>
            <path d="M264.503 77.72a.584.584 0 0 0 .529.6.558.558 0 0 0 .607-.501l.002-.029a.579.579 0 0 0-.529-.595.526.526 0 0 0-.61.525zM264.292 76.96c.068.073.529-.238 1.138-.217.61.02 1.058.34 1.133.266.076-.073-.03-.17-.226-.323a1.588 1.588 0 0 0-.91-.303c-.322-.013-.64.08-.903.266-.2.141-.269.274-.232.31zM270.807 78.111a.578.578 0 0 0 .528.6c.29.045.56-.153.602-.443.005-.029.005-.058.005-.086a.573.573 0 0 0-.529-.596.526.526 0 0 0-.606.525zM270.765 77.354c.068.078.529-.232 1.138-.217.61.016 1.058.34 1.138.267.081-.074-.036-.17-.231-.319a1.512 1.512 0 0 0-.904-.308 1.522 1.522 0 0 0-.91.266c-.195.139-.265.272-.231.311zM268.394 81.91a3.892 3.892 0 0 0-1.005-.206c-.159 0-.307-.058-.328-.165a.773.773 0 0 1 .117-.472l.498-1.194a20.64 20.64 0 0 0 1.138-3.14 21.01 21.01 0 0 0-1.386 3.039c-.164.417-.328.822-.482 1.203a.954.954 0 0 0-.096.622.389.389 0 0 0 .255.242c.089.027.18.04.271.042.333.052.677.063 1.018.029z" fill="#002953"/>
            <path d="M267.775 89.265a11.42 11.42 0 0 0 6.064-1.46s-1.54 3.06-6.033 2.525l-.031-1.065z" fill="#A36957"/>
            <path d="M272.755 75.545c-.128.195-.604.112-1.133 0-.529-.113-.995-.201-1.058-.431-.062-.23.493-.53 1.201-.387.709.144 1.115.648.99.818zM266.579 74.641c-.047.227-.555.314-1.138.34-.581.026-1.097 0-1.165-.233-.067-.232.425-.561 1.128-.595.703-.031 1.222.272 1.175.488z" fill="#002953"/>
            <path d="M268.405 83.398a.306.306 0 0 0-.344.16.355.355 0 0 0 .617.347.358.358 0 0 0 0-.348.354.354 0 0 0-.406-.175" fill="#A36957"/>
            <path d="M268.546 83.463c0-.026-.102-.18-.37-.122a.472.472 0 0 0-.339.334.53.53 0 0 0 .185.561c.18.123.417.123.6 0a.445.445 0 0 0 .19-.441c-.053-.282-.261-.324-.272-.287-.01.036.073.133.058.297a.246.246 0 0 1-.128.196.265.265 0 0 1-.27 0 .281.281 0 0 1-.097-.26.255.255 0 0 1 .143-.197c.154-.086.284-.044.3-.08zM276.378 78.837c-.529 1.24-1.841 2.2-1.662 3.543.118.864.672 1.67.566 2.54-.138 1.06-1.266 1.846-1.43 2.932-.196 1.332 1.101 2.366 1.615 3.606.758 1.814-.206 3.85-.232 5.835a6.221 6.221 0 0 0 5.504 6.057c1.206.102 2.565-.266 3.175-1.305.529-.86.412-1.953.719-2.9.466-1.421 1.815-2.463 2.118-3.925.528-2.653-2.699-4.88-2.488-7.595.091-1.162.805-2.17 1.107-3.295a4.845 4.845 0 0 0-.943-4.292c-.8-.95-1.954-1.59-2.646-2.61-.769-1.173-.795-2.654-1.058-4.037-1.162-5.496-6.548-9.01-12.032-7.846-1.487.316-2.883.96-4.087 1.89 0 0-.768 3.496 2.816 4.084 3.582.59 5.239-.092 5.642 1.347a3.804 3.804 0 0 0 1.058 3.284c1.459 1.585 2.852 1.246 2.258 2.687z" fill="#002953"/>
            <path d="M282.067 103.084a1.386 1.386 0 0 1-.328-.031 5.203 5.203 0 0 1-.91-.248 6.503 6.503 0 0 1-2.773-2.053 7.362 7.362 0 0 1-1.175-2.122 8.425 8.425 0 0 1-.482-2.72c-.01-1.024.117-2.042.38-3.03.144-.521.32-1.033.53-1.532.218-.496.41-1.005.575-1.522a2.83 2.83 0 0 0 0-1.559 8.5 8.5 0 0 0-.6-1.454 9.617 9.617 0 0 1-.62-1.438 3.113 3.113 0 0 1-.111-1.523c.21-.997.815-1.738 1.175-2.498a4.737 4.737 0 0 0 .476-2.259 5.33 5.33 0 0 0-1.18-3.13 9.75 9.75 0 0 0-.893-.875c.37.21.703.483.98.807a5.32 5.32 0 0 1 1.291 3.183 4.906 4.906 0 0 1-.466 2.365c-.365.786-.953 1.533-1.133 2.447-.18.91.247 1.872.719 2.796.258.478.466.981.625 1.501a3.13 3.13 0 0 1 0 1.697c-.177.535-.38 1.06-.61 1.574-.208.489-.385.99-.528 1.502a10.884 10.884 0 0 0-.386 2.955 7.695 7.695 0 0 0 1.555 4.71 6.488 6.488 0 0 0 2.647 2.073c.792.303 1.247.35 1.242.384z" fill="#455A64"/>
            <path d="M281.538 76.317a3.673 3.673 0 0 1-.789.118 8.24 8.24 0 0 1-2.18-.057 4.142 4.142 0 0 1-2.75-1.671 8.961 8.961 0 0 1-.72-1.784 2.98 2.98 0 0 0-1.206-1.49c-1.159-.737-2.519-.828-3.704-.972a6.435 6.435 0 0 1-3.084-.966 3.062 3.062 0 0 1-1.266-1.767c-.047-.196-.06-.4-.036-.6 0-.14.031-.207.041-.207.006.264.04.525.102.78.219.677.67 1.257 1.271 1.635a6.368 6.368 0 0 0 3 .87c1.186.138 2.593.206 3.833.992a3.223 3.223 0 0 1 1.312 1.629 8.83 8.83 0 0 0 .683 1.739 3.99 3.99 0 0 0 2.57 1.59c.699.13 1.41.177 2.118.143.266-.013.537-.008.805.018zM280.226 72.002c-.201.068-.41.096-.62.091a3.765 3.765 0 0 1-2.647-1.06 4.914 4.914 0 0 1-.82-1.099c-.477-.807-.938-1.799-1.925-2.211a6.345 6.345 0 0 0-2.965-.262 9.119 9.119 0 0 1-2.529 0 3.168 3.168 0 0 1-1.586-.7 1.711 1.711 0 0 1-.308-.35c-.062-.09-.09-.14-.078-.143.016-.005.149.17.456.408.453.323.98.527 1.53.595a9.597 9.597 0 0 0 2.476-.042 6.326 6.326 0 0 1 3.095.266c.51.23.948.598 1.266 1.06.278.413.534.841.768 1.285.209.386.466.741.769 1.06.265.269.57.496.903.674a3.933 3.933 0 0 0 1.587.44c.406-.007.622-.038.628-.012zM283.643 101.938c-.026 0 .143-.35.339-1.008a9.12 9.12 0 0 0 .349-2.843 8.66 8.66 0 0 0-1.128-4.047c-.386-.695-.974-1.316-1.456-2.078a3.68 3.68 0 0 1-.529-1.28 2.854 2.854 0 0 1 .117-1.433c.297-.916.826-1.687.943-2.53.117-.843-.286-1.59-.688-2.297a10.866 10.866 0 0 1-.565-1.06 3.983 3.983 0 0 1-.302-1.11 9.706 9.706 0 0 1 .063-2.02c.169-.946.08-1.922-.256-2.823a2.564 2.564 0 0 0-.625-.828s.026 0 .063.032c.062.03.12.073.169.122.206.173.375.39.492.632a5.24 5.24 0 0 1 .344 2.88c-.073.658-.08 1.318-.026 1.979.13.741.422 1.444.857 2.057.227.358.42.736.576 1.13.166.426.221.886.159 1.337-.128.93-.672 1.713-.949 2.577a2.688 2.688 0 0 0-.112 1.3c.092.42.26.823.498 1.183.45.737 1.058 1.368 1.446 2.094a8.798 8.798 0 0 1 1.101 4.175 8.58 8.58 0 0 1-.445 2.88c-.086.25-.187.496-.307.73a.748.748 0 0 1-.128.249z" fill="#455A64"/>
            <path d="M262.09 200.769s-3.565-33.86-3.774-46.374c-.205-12.511 5.614-24.86 5.614-24.86l22.797-.951s4.51 12.694 4.587 18.033c.16 10.365-2.745 20.597-2.412 28.816l.763 25.354" fill="#002953"/>
            <path d="M290.434 159.136c-.12.105-.245.199-.375.287l-.206.144-.221.217c-.196.17-.373.36-.53.566-.734.9-1.27 2.52-1.784 4.53a15.253 15.253 0 0 1-1.153 3.224c-.154.282-.331.549-.53.802-.096.128-.184.266-.296.386l-.35.35c-.5.468-1.08.843-1.713 1.105-1.277.56-2.72.827-4.032 1.49a6.357 6.357 0 0 0-2.926 3.342c-.646 1.439-1.057 2.945-1.586 4.355-.529 1.41-1.242 2.757-2.38 3.619a6.536 6.536 0 0 1-3.705 1.172c-1.227.073-2.365.037-3.386.19a5.344 5.344 0 0 0-2.55.967 3.587 3.587 0 0 0-1.185 1.676c-.141.418-.172.867-.092 1.3.063.298.144.441.128.446a1.309 1.309 0 0 1-.18-.436 2.449 2.449 0 0 1 .042-1.342 3.629 3.629 0 0 1 1.19-1.767 5.39 5.39 0 0 1 2.647-1.06c1.057-.17 2.185-.149 3.397-.227a6.317 6.317 0 0 0 3.592-1.146 7.695 7.695 0 0 0 2.281-3.512c.53-1.394.915-2.906 1.587-4.37a6.642 6.642 0 0 1 3.058-3.476c1.365-.678 2.81-.94 4.053-1.48a5.569 5.569 0 0 0 1.651-1.06l.334-.334c.107-.118.195-.248.291-.37a4.95 4.95 0 0 0 .493-.771c.508-1.013.898-2.08 1.17-3.183.528-2.005 1.106-3.644 1.883-4.55.153-.207.333-.395.528-.562.084-.073.16-.149.232-.206l.216-.138c.13-.068.269-.128.407-.178zM290.572 143.468c.023.15.034.3.031.452a5.603 5.603 0 0 1-.159 1.3 8.378 8.378 0 0 1-2.576 3.99 15.296 15.296 0 0 1-2.646 1.958c-1.022.606-2.15 1.183-3.309 1.84a17.146 17.146 0 0 0-3.375 2.382 13.075 13.075 0 0 0-2.56 3.6 33.112 33.112 0 0 1-2.218 3.919 9.223 9.223 0 0 1-1.45 1.59 8.72 8.72 0 0 1-1.75 1.162 21.143 21.143 0 0 1-3.54 1.363c-1.134.35-2.191.663-3.114 1.06-.836.334-1.63.76-2.37 1.274a7.292 7.292 0 0 0-1.487 1.373c-.36.454-.662.953-.894 1.485.037-.146.089-.29.149-.43.174-.4.396-.778.661-1.126a7.219 7.219 0 0 1 1.482-1.433c.743-.53 1.545-.976 2.386-1.326a31.913 31.913 0 0 1 3.118-1.086 21.79 21.79 0 0 0 3.493-1.368 8.988 8.988 0 0 0 1.668-1.126 9.55 9.55 0 0 0 1.396-1.558 34.195 34.195 0 0 0 2.196-3.893 13.202 13.202 0 0 1 2.646-3.671 17.022 17.022 0 0 1 3.441-2.407c1.164-.653 2.292-1.22 3.313-1.82a15.303 15.303 0 0 0 2.647-1.898 8.437 8.437 0 0 0 2.605-3.877c.13-.567.203-1.146.216-1.729zM258.434 156.165a.393.393 0 0 1-.047-.107 3.14 3.14 0 0 1-.102-.313 2.546 2.546 0 0 1 .052-1.274c.297-1.06 1.467-2.423 3.35-3.097.943-.324 2.006-.53 3.118-.807a5.873 5.873 0 0 0 4.314-3.219c.302-.619.565-1.253.789-1.903a20.83 20.83 0 0 1 1.677-4.068 6.465 6.465 0 0 1 3.452-2.689A30.945 30.945 0 0 1 279 137.68a13.095 13.095 0 0 0 3.446-1.177 7.256 7.256 0 0 0 2.33-2.123 7.9 7.9 0 0 0 1.481-4.297 11.93 11.93 0 0 0-.112-1.697c.16.55.232 1.122.216 1.697a7.814 7.814 0 0 1-1.43 4.407 7.315 7.315 0 0 1-2.375 2.19c-1.102.572-2.28.985-3.498 1.225a31.27 31.27 0 0 0-3.926 1.013 6.22 6.22 0 0 0-3.313 2.582 20.805 20.805 0 0 0-1.657 4.01c-.23.663-.5 1.308-.81 1.937a7.024 7.024 0 0 1-1.185 1.645 6.88 6.88 0 0 1-3.308 1.671c-1.123.287-2.18.467-3.108.776-1.836.626-3 1.913-3.313 2.945a2.732 2.732 0 0 0-.102 1.23c.047.148.078.3.097.451zM288.613 184.809c.02.11.034.222.036.334a3.48 3.48 0 0 1-.101.955 5.422 5.422 0 0 1-2 2.864 8.792 8.792 0 0 1-2.118 1.251c-.81.345-1.704.621-2.647.911-.977.287-1.935.64-2.862 1.06a8.214 8.214 0 0 0-2.545 1.904c-.774.806-1.44 1.691-2.18 2.477a9.903 9.903 0 0 1-2.441 1.909 10.704 10.704 0 0 1-5.033 1.316 10.031 10.031 0 0 1-3.462-.577 6.678 6.678 0 0 1-.877-.376c-.105-.042-.201-.1-.292-.165.107.029.21.068.312.112.292.126.587.235.889.33a10.596 10.596 0 0 0 8.338-.86 9.84 9.84 0 0 0 2.365-1.872c.724-.775 1.386-1.655 2.175-2.482a8.5 8.5 0 0 1 2.688-1.964 21.71 21.71 0 0 1 2.904-1.06c.933-.287 1.821-.53 2.647-.88a8.89 8.89 0 0 0 2.063-1.193 5.42 5.42 0 0 0 2.016-2.736c.086-.415.125-.838.125-1.258z" fill="#FAFAFA"/>
            <path d="m286.016 114.509-4.413.107a7.153 7.153 0 0 1-.995 2.509c-3.704-6.417-6.545-15.01-7.254-18.464.107-.345.227-.726.38-1.151a4.928 4.928 0 0 0-.057-1.943c-.128-.77-.339-1.804-.401-2.282-.195-1.464-.435-1.691-.943-1.527-.688.227.286 4.1-.281 4.185-.308.042-.678-1.284-.784-2.37-.107-1.087-.605-4.439-.959-4.663-.529-.33-.99.19-.852 1.274.138 1.08.302 4.37-.27 4.417-.574.047-1.058-5.511-1.058-5.511s.091-1.21-.576-1.183c-1.195.052-.26 5.908-.159 6.464.073.382-.529.457-.604.037-.076-.42-.35-5.553-1.586-5.511-.943 0 .724 4.822.195 5.934-.529 1.115-.888-3.775-1.784-3.713-.334.026-.581.092.03 2.854a62.886 62.886 0 0 0 2.119 6.478c1.417 7.665 7.642 32.183 17.395 27.698 5.462-2.514 7.673-13.642 7.673-13.642l-4.816.003z" fill="#E2AA91"/>
            <path d="M267.201 94.745c.042.01.086.01.128 0a.28.28 0 0 0 .195-.308c0-.33-.062-.807-.138-1.426a19.301 19.301 0 0 1-.242-2.258c0-.447 0-.922.026-1.426a5.4 5.4 0 0 1 .078-.765c.042-.237.2-.53.386-.483h.031c.185 0 .334.139.39.36.066.23.092.473.074.71.11 1.486.297 2.964.565 4.429.042.196.086.397.149.6.028.105.062.204.106.303.026.055.058.107.091.16.047.078.13.13.222.138a.391.391 0 0 0 .333-.282 1.73 1.73 0 0 0 .102-.324c.042-.214.07-.43.083-.647.05-.886.037-1.77-.036-2.653a5.844 5.844 0 0 1-.052-1.332.734.734 0 0 1 .26-.493.276.276 0 0 1 .227-.026c.044.01.088.029.127.052a.17.17 0 0 1 .058.078c.166.431.289.878.364 1.332.097.467.175.95.248 1.433.073.483.143.972.2 1.465.045.51.128 1.013.243 1.512.062.253.143.504.237.746.054.136.13.264.221.376a.314.314 0 0 0 .313.118.327.327 0 0 0 .216-.238c.062-.271.083-.55.057-.827 0-.267-.031-.53-.057-.786-.037-.447-.078-.885-.096-1.321a5.284 5.284 0 0 1 0-.643c.01-.094.033-.188.067-.276a.241.241 0 0 1 .047-.079h.068c.349-.143.466.345.56.737.096.391.133.838.216 1.255.138.833.318 1.666.406 2.462.06.382.047.77-.041 1.147-.128.38-.256.76-.375 1.135v.068a61.238 61.238 0 0 0 2.365 7.67 81.34 81.34 0 0 0 2.412 5.836 61.314 61.314 0 0 0 1.857 3.676l.529.95c.057.113.128.22.206.319a2.037 2.037 0 0 0-.164-.34l-.53-.97a92.577 92.577 0 0 1-1.778-3.713 80.364 80.364 0 0 1-2.35-5.836 63.564 63.564 0 0 1-2.318-7.65v.074c.122-.37.242-.747.37-1.125.11-.413.133-.846.062-1.27-.096-.832-.27-1.639-.406-2.477-.078-.413-.133-.838-.216-1.274a2.264 2.264 0 0 0-.112-.658.622.622 0 0 0-.292-.298.669.669 0 0 0-.417 0h-.086a.432.432 0 0 0-.122.068.468.468 0 0 0-.133.186c-.05.114-.078.237-.091.36-.016.23-.016.46 0 .69 0 .446.062.89.101 1.336 0 .261.042.53.053.77.02.24.007.48-.037.715 0 .053-.042.042 0 .068l-.031-.031a1.065 1.065 0 0 1-.16-.287 5.164 5.164 0 0 1-.226-.705 9.654 9.654 0 0 1-.237-1.47 30.201 30.201 0 0 0-.206-1.48 28.778 28.778 0 0 0-.255-1.444 6.5 6.5 0 0 0-.401-1.415.452.452 0 0 0-.164-.186.928.928 0 0 0-.195-.086.59.59 0 0 0-.451.063.985.985 0 0 0-.39.69c-.035.24-.035.485 0 .725 0 .227.051.452.067.674.073.866.089 1.738.047 2.61-.013.207-.04.413-.078.617a1.288 1.288 0 0 1-.078.276.364.364 0 0 1-.058.097c0 .047-.036 0-.031.063v-.068a.947.947 0 0 1-.063-.113c-.036-.086-.067-.18-.101-.271a7.77 7.77 0 0 1-.143-.577 42.247 42.247 0 0 1-.6-4.392 2.32 2.32 0 0 0-.09-.79.737.737 0 0 0-.206-.35.533.533 0 0 0-.391-.15h.031a.466.466 0 0 0-.46.217 1.171 1.171 0 0 0-.16.413c-.044.264-.07.53-.073.796v1.444c.05.762.149 1.52.292 2.271.091.617.159 1.092.19 1.416a.252.252 0 0 1-.154.276c-.14.026-.19.032-.185.037z" fill="#A36957"/>
            <path d="M232.737 121.811a11.33 11.33 0 0 0-3.063.356c-2.735.72-7.45 3.584-7.648 7.122h3.428s-1.92 4.094-1.36 3.713c1.467-.987 4.377-3.953 4.377-3.953l4.266-7.238z" fill="#E2AA91"/>
            <path d="M279.48 60.162c-.078 0-.385-2.833-.692-6.366-.308-3.532-.498-6.365-.425-6.365.073 0 .386 2.833.693 6.365.307 3.533.498 6.366.425 6.366zM294.513 47.65c.057.042-2.253 3.41-5.17 7.522-2.915 4.11-5.335 7.425-5.398 7.363-.062-.063 2.253-3.41 5.17-7.522 2.918-4.112 5.335-7.404 5.398-7.363zM300.76 62.916c0 .073-2.689.694-6.033 1.384-3.345.689-6.075 1.188-6.09 1.115-.016-.074 2.682-.695 6.032-1.384 3.347-.692 6.051-1.19 6.09-1.115z" fill="#002953"/>
        </g>
        <g>
            <path d="M238.627 101.528a19.739 19.739 0 0 1-4.474 2.762l-.26 4.799-7.967 1.341-1.87-4.442a20.177 20.177 0 0 1-5.141-1.144l-3.633 3.211-6.586-4.592 1.87-4.438a19.307 19.307 0 0 1-2.805-4.398l-4.881-.255-1.365-7.834 4.514-1.834c.17-1.721.57-3.413 1.19-5.031l-3.265-3.567 4.648-6.506 4.51 1.839a20.08 20.08 0 0 1 4.474-2.758l.26-4.798 7.972-1.32 1.866 4.442c1.758.153 3.487.538 5.14 1.144l3.634-3.21 6.599 4.591-1.884 4.425a19.43 19.43 0 0 1 2.81 4.398l4.881.255 1.365 7.834-4.533 1.812a19.232 19.232 0 0 1-1.163 5.053l3.266 3.572-4.67 6.487-4.515-1.838h.013zm-5.905-9.822a8.409 8.409 0 0 0 .259-9.476c-1.872-2.919-5.349-4.442-8.809-3.857-3.46.584-6.22 3.16-6.992 6.527-.773 3.366.593 6.858 3.462 8.847 3.91 2.709 9.313 1.796 12.08-2.04zM138.543 100.085a18.44 18.44 0 0 1 2.89 3.99h4.617l1.718 7.323-4.16 1.97a17.98 17.98 0 0 1-.824 4.838l3.28 3.198-4.054 6.369-4.358-1.496a18.643 18.643 0 0 1-4.058 2.842v4.543l-7.444 1.685-2.01-4.09a18.9 18.9 0 0 1-4.92-.81l-3.253 3.224-6.479-3.985 1.521-4.284a18.335 18.335 0 0 1-2.89-3.99h-4.617l-1.691-7.327 4.16-1.975c.055-1.641.332-3.268.824-4.838l-3.28-3.198 4.054-6.368 4.358 1.495a18.643 18.643 0 0 1 4.058-2.841v-4.54l7.449-1.688 2.004 4.09c1.67.053 3.325.326 4.922.81l3.252-3.22 6.479 3.958-1.521 4.284-.027.031zm-9.114 5.978c-3.843-2.344-8.89-1.185-11.28 2.59-2.39 3.774-1.217 8.738 2.62 11.092 3.836 2.354 8.886 1.209 11.286-2.56a7.943 7.943 0 0 0 1.038-6.097 8.065 8.065 0 0 0-3.664-5.025zM143.044 69.297c.628.661 1.165 1.4 1.597 2.2h2.56l.948 4.054-2.305 1.091a10.03 10.03 0 0 1-.447 2.674l1.812 1.76-2.237 3.518-2.412-.827a10.29 10.29 0 0 1-2.237 1.57v2.516l-4.125.933-1.11-2.26a10.693 10.693 0 0 1-2.72-.44l-1.79 1.78L127 85.668l.845-2.375c-.63-.66-1.17-1.399-1.601-2.199h-2.555l-.984-4.06 2.304-1.09c.027-.907.177-1.807.447-2.674l-1.816-1.76 2.237-3.518 2.411.826a10.553 10.553 0 0 1 2.237-1.574V64.73l4.125-.936 1.128 2.243c.922.027 1.837.175 2.72.44l1.79-1.786 3.579 2.199-.841 2.37.018.036zm-5.047 3.338c-2.124-1.302-4.92-.666-6.247 1.42-1.327 2.087-.684 4.836 1.437 6.144 2.121 1.307 4.918.678 6.25-1.406a4.396 4.396 0 0 0 .58-3.373 4.463 4.463 0 0 0-2.02-2.785z" fill="#E0E0E0"/>
            <path d="M111.26 74.1c.512.537.948 1.14 1.297 1.79h2.072l.77 3.286-1.866.88a8.068 8.068 0 0 1-.367 2.168l1.467 1.433-1.816 2.85-1.955-.677c-.548.502-1.16.93-1.821 1.276v2.036l-3.342.757-.895-1.834a8.661 8.661 0 0 1-2.206-.365l-1.458 1.447-2.904-1.786.68-1.922a8.395 8.395 0 0 1-1.293-1.79h-2.071l-.77-3.282 1.866-.88a8.228 8.228 0 0 1 .371-2.168l-1.472-1.433 1.821-2.86 1.955.674a8.267 8.267 0 0 1 1.817-1.276v-2.028l3.337-.756.895 1.834c.748.024 1.49.146 2.206.36l1.458-1.442 2.908 1.786-.684 1.922zm-4.085 2.687c-1.722-1.058-3.99-.544-5.068 1.149a3.58 3.58 0 0 0 1.168 4.982c1.722 1.059 3.99.545 5.068-1.147a3.584 3.584 0 0 0-1.168-4.984z"/>
            <path d="M107.175 76.787c.072.033.14.07.206.115.192.125.367.273.523.44a3.53 3.53 0 0 1 1.06 2.199 3.628 3.628 0 0 1-.227 1.693 3.73 3.73 0 0 1-2.126 2.107 3.58 3.58 0 0 1-1.105.255 3.873 3.873 0 0 1-2.295-.554 3.719 3.719 0 0 1-1.763-2.872 3.543 3.543 0 0 1 .076-1.07 3.674 3.674 0 0 1 .927-1.732 3.757 3.757 0 0 1 3.914-.968c.215.07.42.165.613.282.07.037.136.081.197.132 0 .026-.286-.159-.837-.33a3.742 3.742 0 0 0-2.384.092 3.563 3.563 0 0 0-2.237 2.569c-.073.33-.094.67-.063 1.007a3.507 3.507 0 0 0 1.664 2.696 3.664 3.664 0 0 0 2.153.524c.357-.024.71-.102 1.042-.234a3.3 3.3 0 0 0 .895-.497c.96-.73 1.48-1.889 1.378-3.078a3.565 3.565 0 0 0-.958-2.147c-.38-.448-.67-.607-.653-.629z" fill="#E0E0E0" fill-rule="nonzero"/>
            <path d="M111.26 74.1s0-.04.036-.123l.12-.365.493-1.447v.044l-2.917-1.76h.076l-1.454 1.452-.027.03h-.04a8.548 8.548 0 0 0-2.188-.351h-.045l-.022-.044-.895-1.83.09.044-3.338.765.071-.088v2.094l-.05.026a8.441 8.441 0 0 0-1.789 1.263l-.044.044h-.059l-1.955-.669.121-.04-1.79 2.86v-.133l1.472 1.43.05.048v.062a7.955 7.955 0 0 0-.363 2.137v.07l-.062.027-1.866.88.063-.128c.246 1.038.505 2.155.774 3.286l-.117-.088H97.748l.036.061c.342.641.77 1.233 1.275 1.76 0 .048 0-.119.027.114V85.645l-.04.124-.085.242-.175.479c-.112.321-.228.642-.34.959l-.049-.132 2.908 1.786h-.143c.492-.489.98-.968 1.459-1.447l.049-.049.067.022a8.384 8.384 0 0 0 2.174.356h.067l.032.062.895 1.834-.126-.057 3.338-.757-.08.106V87.07l.053-.027a8.46 8.46 0 0 0 1.79-1.258l.044-.04.054.023 1.955.673-.112.04 1.821-2.855v.11l-1.463-1.439-.04-.035v-.048a8.19 8.19 0 0 0 .371-2.147v-.044h.045l1.87-.88-.04.076c-.29-1.272-.541-2.358-.752-3.286l.05.04h-2.072a8.72 8.72 0 0 0-.895-1.386l-.268-.317-.085-.105a.725.725 0 0 1 .103.092c.062.066.156.167.277.308.366.422.685.882.949 1.372h-.032 2.112v.044c.224.924.483 2.01.788 3.277v.053l-.05.026-1.86.88.04-.062a8.318 8.318 0 0 1-.363 2.2v-.084l1.472 1.434.054.048-.04.057-1.79 2.864-.04.066-.072-.027-1.955-.668h.098c-.551.51-1.17.945-1.839 1.293l.054-.093v2.125h-.085l-3.338.76h-.085l-.04-.074c-.295-.607-.595-1.214-.895-1.834l.099.061a8.675 8.675 0 0 1-2.237-.365l.116-.03-1.459 1.447-.067.066-.076-.049-2.908-1.785-.08-.049.03-.088c.113-.316.23-.638.34-.959l.171-.483.09-.238.04-.123.022-.062v-.03c.05.233 0 .061 0 .114a8.298 8.298 0 0 1-1.31-1.812l.102.061h-2.237v-.088c-.264-1.13-.523-2.243-.77-3.285v-.084l.081-.04 1.87-.879-.067.097a8.324 8.324 0 0 1 .376-2.2l.027.11c-.506-.5-1.011-.989-1.468-1.438l-.058-.061.045-.07 1.82-2.855.046-.07.076.026 1.955.677h-.103a8.65 8.65 0 0 1 1.843-1.284l-.05.083v-2.106h.073l3.297-.876h.067l.027.062c.313.642.617 1.262.895 1.838l-.067-.043c.759.025 1.511.15 2.237.373h-.072l1.467-1.438.032-.035.04.026 2.895 1.804h.027v.026c-.229.611-.403 1.086-.528 1.416l-.139.37a.673.673 0 0 1-.076.145z" fill="#E0E0E0" fill-rule="nonzero"/>
            <g transform="translate(141.71 52.794)" fill-rule="nonzero">
                <path d="m70.986 174.996-58.344-.273C5.627 174.686-.032 168.875 0 161.741L.615 13a13.034 13.034 0 0 1 3.762-9.126A12.6 12.6 0 0 1 13.384.129l58.34.273a12.603 12.603 0 0 1 8.971 3.832 13.04 13.04 0 0 1 3.676 9.163l-.62 148.746c-.036 7.134-5.75 12.887-12.765 12.853z" fill="#002953"/>
                <path d="m71.636 5.533-11.311-.05a2.784 2.784 0 0 0-1.972.873 2.88 2.88 0 0 0-.786 2.035v2.085a2.88 2.88 0 0 1-.784 2.047 2.784 2.784 0 0 1-1.982.874l-22.048-.103c-1.551-.044-2.775-1.356-2.735-2.934V8.275c.039-1.578-1.185-2.89-2.736-2.934h-3.978l-9.898-.05c-4.908-.017-8.904 4.008-8.936 9l-.602 145.182a9.127 9.127 0 0 0 2.584 6.406 8.823 8.823 0 0 0 6.282 2.672l58.226.273a8.82 8.82 0 0 0 6.307-2.622 9.125 9.125 0 0 0 2.633-6.39l.606-145.187c.017-5-3.953-9.07-8.87-9.092z" fill="#FAFAFA"/>
                <path d="M41.682 53.29a2.27 2.27 0 0 1 .561-1.607 1.973 1.973 0 0 1 1.474-.674c1.177 0 2.13 1.022 2.13 2.282s-.953 2.282-2.13 2.282c-.557 0-1.09-.243-1.474-.675a2.27 2.27 0 0 1-.561-1.607zm.827-5.384-.482-17.341h3.3l-.483 17.34H42.51zM15.3 96.602l.097-32.828a1.885 1.885 0 0 1 1.89-1.88l52.511.156a1.885 1.885 0 0 1 1.88 1.891l-.098 32.828a1.885 1.885 0 0 1-1.89 1.88l-52.511-.157a1.885 1.885 0 0 1-1.88-1.89z" fill="#FF6700"/>
                <path d="M63.353 70.537a3.883 3.883 0 1 1-7.766-.048 3.883 3.883 0 0 1 7.766.048z" fill="#FFF"/>
                <path d="m64.438 74.608-.298.021a4.06 4.06 0 1 1 4.073-4.049 4.067 4.067 0 0 1-3.775 4.028zm-.542-7.75a3.71 3.71 0 1 0 3.966 3.68 3.72 3.72 0 0 0-3.7-3.724l-.266.043zM20.324 85.311l-.01 3.134-.32-.002.006-2.838h-.735l.001-.286zM23.528 88.158v.285l-2.191-.007-.016-.225 1.304-1.268c.352-.345.42-.555.42-.77.003-.35-.25-.586-.738-.586a1.063 1.063 0 0 0-.853.345l-.23-.197a1.39 1.39 0 0 1 1.11-.425c.633 0 1.035.324 1.033.847 0 .3-.096.567-.516.976l-1.066 1.039 1.743-.014zM26.816 87.632l-.623-.002-.002.822-.33-.005.001-.818-1.762-.006.001-.233 1.66-2.066.348.004-1.6 2.01 1.354.005.002-.724.313.003-.002.72.65-.007zM31.605 87.645l-.624-.001-.001.821-.324-.001.005-.819-1.766-.005.002-.234 1.662-2.066.349.004-1.6 2.013 1.354.003.002-.725.313.003-.002.72.624.002zM34.339 87.555c-.005.533-.377.946-1.14.943-.41.013-.81-.13-1.117-.402l.156-.255c.26.242.604.372.959.365.533.001.814-.259.815-.638.001-.38-.247-.652-1.041-.655h-.665l.162-1.567 1.71.006-.001.286-1.428-.005-.108.996h.4c.94.004 1.297.376 1.298.926zM37.427 87.552a.976.976 0 0 1-1.072.955c-.829 0-1.28-.579-1.276-1.564.004-1.045.584-1.615 1.433-1.612.258-.009.513.05.74.172l-.128.26a1.111 1.111 0 0 0-.61-.15c-.671-.001-1.108.426-1.108 1.279l.018.253a.997.997 0 0 1 .958-.534.948.948 0 0 1 1.045.94zm-.32.022c.003-.411-.3-.675-.781-.677a.722.722 0 0 0-.806.68c0 .348.284.676.824.674a.695.695 0 0 0 .763-.691v.014zM41.699 87.601c-.002.522-.382.921-1.134.918a1.622 1.622 0 0 1-1.125-.401l.157-.255c.264.242.61.372.969.364.515.002.801-.24.802-.627 0-.387-.26-.623-.842-.638l-.222.016.001-.237.868-1.084-1.595-.004v-.285l2.007.006.015.225-.89 1.114c.657.034.992.386.989.888zM44.834 87.573a.976.976 0 0 1-1.072.956c-.829-.001-1.276-.58-1.276-1.565.003-1.062.584-1.614 1.434-1.61.257-.012.513.047.74.17l-.129.26a1.111 1.111 0 0 0-.61-.149c-.671-.002-1.104.426-1.108 1.275l.018.257a.997.997 0 0 1 .959-.534.948.948 0 0 1 1.044.94zm-.319.023c.003-.411-.301-.676-.782-.677a.722.722 0 0 0-.805.68c0 .348.284.676.823.673a.695.695 0 0 0 .763-.69l.001.014zM47.714 85.39l.016.226-1.323 2.895-.348-.003 1.292-2.834-1.606-.003v.585l-.318-.002.002-.87zM52.178 85.406l-.001.226-1.317 2.878h-.348l1.295-2.834-1.605-.007-.004.586-.317-.003.005-.87zM55.247 87.667c-.003.554-.47.896-1.215.893-.745-.004-1.205-.348-1.205-.902a.781.781 0 0 1 .604-.766.695.695 0 0 1-.486-.687c-.001-.508.433-.824 1.095-.821.661.002 1.101.32 1.102.828a.695.695 0 0 1-.502.686c.357.083.61.402.607.769zm-.33-.005c0-.386-.33-.628-.884-.634-.554-.007-.878.238-.88.622 0 .383.323.628.877.635.554.006.885-.236.886-.623zm-.88-.882c.483.001.774-.218.779-.556.004-.338-.308-.567-.778-.569-.47-.002-.772.211-.772.56 0 .347.283.564.77.565zM58.283 86.957c-.004 1.044-.584 1.614-1.434 1.611a1.47 1.47 0 0 1-.74-.171l.132-.26c.183.107.394.159.606.15.672 0 1.109-.427 1.112-1.276l-.018-.257a.993.993 0 0 1-.955.534.945.945 0 0 1-.727-1.653.973.973 0 0 1 .744-.243c.832.001 1.284.579 1.28 1.565zm-.44-.62c.003-.35-.285-.677-.824-.674a.695.695 0 0 0-.764.676c-.003.411.301.676.782.677a.722.722 0 0 0 .805-.68zM61.456 85.43l-.008 3.133-.324-.002.01-2.838-.738-.004.001-.286zM64.66 88.28l-.001.285-2.19-.007-.017-.229 1.304-1.268c.356-.345.421-.555.424-.767.003-.349-.254-.588-.738-.59a1.077 1.077 0 0 0-.853.346l-.226-.197a1.39 1.39 0 0 1 1.107-.443c.634.005 1.033.325 1.034.847a1.296 1.296 0 0 1-.516.976l-1.044 1.059 1.716-.013zM67.465 87.676c-.001.522-.384.922-1.136.919a1.612 1.612 0 0 1-1.126-.406l.16-.251c.264.24.61.371.966.364.519-.001.805-.24.806-.627 0-.387-.263-.623-.842-.638l-.223-.002v-.233l.869-1.084-1.599-.003.001-.286 2.01.006.015.225-.887 1.106c.652.056.986.409.986.91zM43.433 92.172l.003-1.358 25.025.07-.004 1.358zM55.615 94.915l.004-1.358 12.833.036-.003 1.358z" fill="#FFF"/>
                <path d="m19.666 74.783 8.02.024a1.24 1.24 0 0 1 1.236 1.244l-.016 5.362a1.24 1.24 0 0 1-1.244 1.237l-8.02-.024a1.24 1.24 0 0 1-1.236-1.244l.016-5.363a1.24 1.24 0 0 1 1.244-1.236z" opacity=".5" fill="#000"/>
                <path d="m18.414 80.445.003-.502 5.408.015a1.132 1.132 0 0 0 .005-2.263l-5.408-.015.003-.505 5.405.015a1.636 1.636 0 1 1-.008 3.27l-5.408-.015z" fill="#FF725E"/>
                <path fill="#FF725E" d="m25.21 79.079.002-.504 3.71.014-.003.504z"/>
                <path fill="#FFF" d="m19.69 68.326 27.004.08-.007 2.317-27.004-.08z"/>
                <path fill="#FF725E" d="m66.99 69.387.505.701.857-.026-.496.705.29.822-.817-.264-.677.532-.004-.871-.707-.487.812-.277zM41.658 79.663a.589.589 0 0 1-.584.594.589.589 0 0 1-.584-.594c0-.328.262-.594.584-.594a.575.575 0 0 1 .415.172c.11.112.17.264.17.422z"/>
                <rect fill="#E0E0E0" x="15.127" y="135.256" width="56.114" height="4.644" rx="2.322"/>
                <rect fill="#FF6700" x="15.127" y="135.256" width="29.772" height="4.644" rx="2.322"/>
                <path d="M39.476 151.314c0 .951-.65 1.693-1.994 1.693a2.808 2.808 0 0 1-1.976-.72l.277-.446a2.362 2.362 0 0 0 1.69.648c.936 0 1.428-.447 1.428-1.144 0-.696-.44-1.165-1.836-1.165h-1.172l.28-2.805h3.013v.51H36.67l-.189 1.786h.707c1.66-.014 2.288.652 2.288 1.643zM43.885 151.314c0 .951-.65 1.693-1.994 1.693a2.808 2.808 0 0 1-1.976-.72l.277-.446a2.362 2.362 0 0 0 1.69.648c.936 0 1.427-.447 1.427-1.144 0-.696-.439-1.165-1.835-1.165H40.3l.281-2.805h3.013v.51h-2.516l-.19 1.786h.708c1.66-.014 2.288.652 2.288 1.643zM44.442 148.845c0-.894.505-1.519 1.243-1.519.738 0 1.243.599 1.243 1.519 0 .92-.514 1.518-1.243 1.518-.729 0-1.243-.607-1.243-1.518zm2.09 0c0-.728-.338-1.162-.847-1.162-.51 0-.848.447-.848 1.162 0 .714.33 1.156.848 1.156s.86-.429.86-1.156h-.013zm2.486-1.479h.46l-3.754 5.596h-.465l3.759-5.596zm-1.203 4.118c0-.893.509-1.523 1.242-1.523.734 0 1.239.612 1.239 1.523 0 .91-.501 1.518-1.239 1.518-.737 0-1.242-.607-1.242-1.518zm2.09 0c0-.724-.33-1.161-.848-1.161s-.852.446-.852 1.16c0 .715.339 1.157.852 1.157.514 0 .848-.437.848-1.156z" fill="#FF6700"/>
            </g>
            <g fill="#263238" fill-rule="nonzero">
                <path d="M263.97 227.153c0 .194-43.234.36-96.554.36s-96.561-.166-96.561-.36c0-.195 43.225-.362 96.561-.362 53.337 0 96.553.153 96.553.362z"/>
            </g>
            <g fill-rule="nonzero">
                <path fill="#002953" d="M99.955 201.402h31.101v4.255h-31.1z"/>
                <path d="M131.114 205.706H99.906v-4.357h31.208v4.357zm-31.1-.106h30.993v-4.144h-30.998l.004 4.144z" fill="#263238"/>
                <path fill="#002953" d="m102.84 204.238 4.476 21.98h16.567l4.324-20.565z"/>
                <path fill="#455A64" d="m102.84 224.138 2.39 3.27h20.133l2.844-3.27z"/>
                <path d="M114.337 204.881c-.058 0-.138-10.183-.173-22.74-.036-12.557 0-22.744.049-22.744s.138 10.178.173 22.74c.036 12.561.014 22.744-.049 22.744zM121.266 179.399a.99.99 0 0 1-.08.235c-.076.173-.166.39-.282.661-.062.142-.129.302-.2.475l-.21.577c-.071.208-.151.444-.236.66-.085.218-.152.493-.232.76-.37 1.243-.66 2.509-.87 3.789a45.368 45.368 0 0 0-.48 4.739 63.592 63.592 0 0 0 .245 8.656c.102 1.105.2 1.997.276 2.614.031.293.058.528.076.714a.883.883 0 0 1 0 .249 1.065 1.065 0 0 1-.058-.244c-.031-.187-.072-.417-.116-.706a47.783 47.783 0 0 1-.348-2.609 56.814 56.814 0 0 1-.312-8.683c.08-1.597.248-3.187.504-4.766.22-1.286.527-2.556.918-3.802.09-.262.16-.52.25-.754l.254-.662.227-.572c.076-.173.156-.328.223-.47l.317-.644c.036-.077.08-.15.134-.217z" fill="#263238"/>
                <path d="M120.472 171.164a1.945 1.945 0 0 1-.098.333l-.326.949-.236.679c-.076.257-.16.532-.25.825-.182.59-.392 1.256-.58 2.01-.102.377-.204.768-.311 1.18-.107.413-.192.844-.294 1.287-.214.888-.375 1.85-.575 2.853a86.799 86.799 0 0 0-.852 6.616c-.21 2.356-.28 4.619-.312 6.656-.031 2.036.022 3.9.107 5.448.027.777.076 1.478.116 2.095.04.616.076 1.144.116 1.58.04.434.053.745.076.993.01.117.01.234 0 .35a1.767 1.767 0 0 1-.054-.346c-.031-.244-.071-.576-.12-.993a43.259 43.259 0 0 1-.152-1.576c-.049-.616-.111-1.33-.152-2.094-.102-1.548-.147-3.403-.151-5.457a78.194 78.194 0 0 1 1.168-13.32c.21-1.008.37-1.97.597-2.858.107-.444.205-.887.304-1.291.098-.404.222-.799.33-1.176.196-.754.419-1.42.61-2.01l.268-.816c.093-.249.183-.47.258-.68.152-.39.272-.7.366-.931.04-.106.089-.209.147-.306zM112.39 206.682a.503.503 0 0 1 0-.12c0-.092 0-.208-.028-.35-.022-.324-.053-.776-.093-1.331-.076-1.19-.179-2.875-.312-4.96-.268-4.185-.66-9.97-1.369-16.333-.361-3.182-.78-6.212-1.217-8.941-.232-1.367-.446-2.662-.678-3.878-.232-1.216-.446-2.339-.673-3.363-.227-1.025-.446-1.953-.615-2.765-.17-.812-.357-1.508-.5-2.076-.142-.568-.245-.999-.325-1.331-.031-.142-.058-.253-.076-.342a.504.504 0 0 1-.022-.12.398.398 0 0 1 .04.111c.027.089.063.2.103.337.084.315.21.75.36 1.305.152.554.349 1.26.54 2.072.192.812.446 1.73.647 2.76.2 1.03.472 2.147.7 3.359.227 1.21.445 2.515.7 3.882a172.01 172.01 0 0 1 1.239 8.95c.709 6.367 1.074 12.157 1.302 16.346a306.604 306.604 0 0 1 .294 6.318v.35c0 .041-.007.081-.018.12z" fill="#263238"/>
                <path d="M114.088 164.29c-.138-1.441-1.6-2.528-3.059-2.546-1.457-.018-2.813.856-3.7 2a11.457 11.457 0 0 0-1.783 3.941c-.981 3.399-1.516 6.966-1.097 10.48.42 3.515 1.85 6.967 4.383 9.447.41.404.94.807 1.506.688a1.87 1.87 0 0 0 .798-.488 23.415 23.415 0 0 0 7.646-17.837c-.035-1.332-.214-2.725-.958-3.838-.745-1.114-2.475-2.294-3.736-1.846" fill="#FF6700"/>
                <path d="m103.214 152.737-2.05 3.696c-.045.084-.108.182-.21.19-.103.01-.187-.093-.245-.181l-5.422-8.28 1.249-.706 6.678 5.28z" fill="#FF725E"/>
                <path d="m103.214 152.737-2.05 3.696c-.045.084-.108.182-.21.19-.103.01-.187-.093-.245-.181l-5.422-8.28 1.249-.706 6.678 5.28z" opacity=".2" fill="#000"/>
                <path d="M114.213 159.397 95.72 148.535a.863.863 0 0 1-.446-.444c-.071-.27.134-.533.33-.737a12.792 12.792 0 0 1 9.88-3.864 11.29 11.29 0 0 1 8.916 5.533c1.783 3.172 1.846 7.37-.2 10.382" fill="#FF6700"/>
                <path d="M98.386 145.07a.927.927 0 0 1 .24-.032c.161 0 .397-.035.7-.03.86-.015 1.718.052 2.564.199 2.82.478 5.448 1.74 7.58 3.638a15.19 15.19 0 0 1 4.39 7.122c.225.826.375 1.671.446 2.524.031.298.027.533.036.693a.795.795 0 0 1 0 .244s-.04-.333-.116-.928c-.75-6.622-5.778-11.97-12.367-13.156a16.123 16.123 0 0 0-2.537-.27c-.602.004-.936.013-.936-.005z" fill="#263238"/>
                <path d="M111.707 151.898a4.02 4.02 0 0 1-.932.444 40.262 40.262 0 0 1-4.717 1.486 4.719 4.719 0 0 1-1.007.195 4.88 4.88 0 0 1 .967-.341l2.354-.732 2.35-.755c.318-.13.648-.23.985-.297zM108.796 144.115c.255 1.357.291 2.746.107 4.113-.093-.68-.13-1.367-.112-2.054a12.85 12.85 0 0 1 .005-2.059zM95.56 148.33c.43-.196.878-.353 1.337-.47.842-.257 2.01-.585 3.317-.887a67.245 67.245 0 0 1 3.361-.706 8.786 8.786 0 0 1 1.41-.19c-.452.149-.914.264-1.383.346-.856.186-2.037.443-3.34.763-1.301.32-2.474.612-3.32.834-.453.136-.915.24-1.383.31z" fill="#263238"/>
                <path d="M105.702 160.874c-1.587-1.198-3.273-1.433-5.265-1.358a16.156 16.156 0 0 0-5.765 1.482c-3.12 1.358-6.05 3.364-7.909 6.212-1.859 2.849-2.514 6.59-1.119 9.678.108.324.334.596.633.763a1.5 1.5 0 0 0 1.043-.08c3.545-1.15 7.134-2.312 10.38-4.118 3.245-1.806 6.24-4.308 7.975-7.587.45-.773.737-1.63.843-2.516.097-.9-.2-1.797-.816-2.463" fill="#FF6700"/>
                <path d="M105.702 160.501c-.08.047-.165.083-.254.107l-.745.253-.535.177c-.196.071-.406.16-.628.244-.446.182-.972.364-1.52.626l-.87.395c-.299.137-.602.31-.918.47-.647.315-1.298.715-1.989 1.123a31.43 31.43 0 0 0-7.824 6.85c-.49.63-.976 1.225-1.369 1.82-.205.293-.41.568-.588.847l-.504.808c-.334.51-.58.998-.816 1.42-.116.213-.227.404-.325.59l-.245.506-.348.7a1.378 1.378 0 0 1-.134.24.982.982 0 0 1 .094-.257l.312-.719c.067-.16.147-.328.227-.519.08-.19.196-.382.308-.599.227-.444.468-.927.793-1.442l.495-.82c.174-.285.38-.564.58-.862.388-.603.891-1.202 1.364-1.841a33.24 33.24 0 0 1 3.633-3.79 33.687 33.687 0 0 1 4.24-3.105c.7-.404 1.36-.803 2.01-1.11.322-.16.625-.328.933-.465l.891-.382a15.644 15.644 0 0 1 1.538-.599c.228-.08.446-.164.638-.226l.544-.16.758-.217c.083-.026.168-.047.254-.063zM93.29 167.197a35.645 35.645 0 0 1-3.865 1.242 38.04 38.04 0 0 1-3.932 1.03 38.472 38.472 0 0 1 3.87-1.243 38.457 38.457 0 0 1 3.927-1.029z" fill="#263238"/>
                <path d="M93.134 175.694a5.79 5.79 0 0 1-.085-1.198 56.514 56.514 0 0 1 0-2.897c.027-1.123.09-2.157.152-2.898.014-.401.065-.8.152-1.193.035.4.035.802 0 1.202-.023.812-.054 1.801-.09 2.893-.035 1.092-.053 2.081-.071 2.893.014.4-.005.8-.058 1.198zM100.446 171.989c-.063 0-.255-2.081-.446-4.654-.192-2.574-.277-4.664-.214-4.668.062-.005.254 2.076.446 4.654.191 2.578.276 4.664.214 4.668z" fill="#263238"/>
                <path d="M91.342 162.463a7.696 7.696 0 0 1 1.24-.036c.766 0 1.823.027 2.986.067 1.164.04 2.23.084 2.983.128.414.002.828.042 1.235.12a6.526 6.526 0 0 1-1.24.036c-.762 0-1.819-.027-2.987-.062a107.46 107.46 0 0 1-2.982-.134 6.718 6.718 0 0 1-1.235-.12zM109.62 188.606a1.965 1.965 0 0 1-.026-.253c0-.19 0-.444-.031-.723a37.122 37.122 0 0 1 0-2.663c.035-1.122.093-2.462.227-3.94a57.88 57.88 0 0 1 .65-4.796c.3-1.69.674-3.284 1.053-4.721a51.679 51.679 0 0 1 1.155-3.78c.37-1.065.686-1.913.932-2.494l.28-.666a1.27 1.27 0 0 1 .112-.226.844.844 0 0 1-.067.24c-.067.181-.147.403-.245.683a70.107 70.107 0 0 0-1.97 6.292 60.966 60.966 0 0 0-1.03 4.712 63.743 63.743 0 0 0-.665 4.774 59.616 59.616 0 0 0-.276 3.927 68.14 68.14 0 0 0-.058 2.662v.723a1.034 1.034 0 0 1-.04.249z" fill="#263238"/>
                <path d="M110.606 176.049a4.992 4.992 0 0 1-.736.803 36.977 36.977 0 0 1-1.935 1.775 59.633 59.633 0 0 1-2.033 1.677 5.208 5.208 0 0 1-.891.621c.243-.273.511-.523.802-.745l1.984-1.717 1.975-1.735a5.79 5.79 0 0 1 .834-.68zM116.45 180.739a8.143 8.143 0 0 1-.784-1.083c-.508-.732-1.132-1.646-1.828-2.662-.695-1.016-1.337-1.899-1.863-2.627a8.37 8.37 0 0 1-.75-1.109c.328.312.626.652.892 1.016a56.18 56.18 0 0 1 1.922 2.596 73.662 73.662 0 0 1 1.783 2.693c.244.373.454.767.629 1.176zM113.383 165.986c.036.048-1.908 1.353-4.342 2.906-2.434 1.553-4.427 2.778-4.458 2.724-.031-.053 1.912-1.33 4.342-2.91 2.43-1.58 4.427-2.774 4.458-2.72zM118.867 171.874a35.495 35.495 0 0 1-2.942-2.707 36.957 36.957 0 0 1-2.787-2.862 35.495 35.495 0 0 1 2.943 2.707 35.974 35.974 0 0 1 2.786 2.862z" fill="#263238"/>
                <path d="m120.245 171.754 1.671-.138a8.325 8.325 0 0 0 3.366-1.025 13.329 13.329 0 0 1 1.574-.785c2.064-.825 4.365-.679 6.585-.79a27.34 27.34 0 0 0 10.477-2.662.983.983 0 0 0 .446-.413c.343-.62-.295-1.176-.843-1.508-2.813-1.726-5.675-3.47-8.863-4.326-3.188-.857-6.808-.715-9.527 1.149-3.197 2.187-4.36 6.682-4.904 10.502" fill="#FF6700"/>
                <path d="M144.413 165.728a1.3 1.3 0 0 1-.281-.128l-.794-.413c-.686-.36-1.672-.887-2.92-1.486a27.198 27.198 0 0 0-4.525-1.735 15.004 15.004 0 0 0-5.858-.47 10.037 10.037 0 0 0-5.35 2.28 11.866 11.866 0 0 0-2.782 3.891c-.456.99-.86 2-1.213 3.03-.12.347-.222.626-.294.835a1.27 1.27 0 0 1-.12.288c.02-.101.045-.202.076-.301.066-.213.151-.497.258-.848.32-1.046.704-2.071 1.15-3.07.64-1.51 1.591-2.87 2.791-3.994a10.158 10.158 0 0 1 5.448-2.351 14.995 14.995 0 0 1 5.948.497 26.141 26.141 0 0 1 4.534 1.775 52.227 52.227 0 0 1 2.897 1.548l.772.444c.093.062.181.132.263.208z" fill="#263238"/>
                <path d="M140.405 167.876c-.036.053-2.23-1.331-4.873-3.137-2.644-1.806-4.788-3.27-4.753-3.324.036-.053 2.23 1.358 4.873 3.142 2.644 1.784 4.788 3.27 4.753 3.319zM138.31 161.211a5.198 5.198 0 0 1-1.704.338 5.312 5.312 0 0 1-1.738-.023 9.315 9.315 0 0 1 1.716-.195 9.693 9.693 0 0 1 1.725-.12zM128.524 159.463a6.099 6.099 0 0 1-.718 1.424 6.001 6.001 0 0 1-.892 1.332c.409-.984.955-1.906 1.623-2.738l-.013-.018zM130.476 169.158a6.05 6.05 0 0 1-1.047-.568 36.256 36.256 0 0 1-2.394-1.597 74.872 74.872 0 0 1-2.292-1.735 6.883 6.883 0 0 1-.892-.772c.355.181.69.398.999.648l2.327 1.681c.892.657 1.743 1.23 2.35 1.642.335.208.653.442.95.701z" fill="#263238"/>
                <path d="M122.701 178.813c-1.591-.421-3.486 1.123-3.816 2.729-.33 1.606.276 3.248.985 4.726a24.133 24.133 0 0 0 6.585 8.572c2.849 2.258 6.42 3.705 10.062 3.687-.673-3.106.179-6.363-.196-9.522-.683-5.725-5.245-10.224-11.003-10.853-1.016-.106-2.193-.266-2.6.67" fill="#FF6700"/>
                <path d="M136.517 198.527a1.05 1.05 0 0 1-.223-.106 3.648 3.648 0 0 1-.597-.395 6.214 6.214 0 0 1-1.574-2.095c-.25-.488-.535-1.02-.811-1.61-.277-.59-.558-1.225-.856-1.886a18.192 18.192 0 0 0-1.052-2.014 16.204 16.204 0 0 0-1.45-1.962c-1.092-1.273-2.26-2.373-3.272-3.425a22.623 22.623 0 0 1-2.496-2.982 11.27 11.27 0 0 1-1.222-2.316 6.676 6.676 0 0 1-.21-.683 1.578 1.578 0 0 1-.053-.24c.022 0 .112.324.343.888.341.796.767 1.553 1.271 2.258a23.72 23.72 0 0 0 2.51 2.929c1.02 1.038 2.198 2.138 3.3 3.425a15.942 15.942 0 0 1 1.461 1.992c.395.657.746 1.34 1.053 2.041l.838 1.895c.267.586.544 1.123.789 1.615a6.372 6.372 0 0 0 1.484 2.099c.469.404.78.55.767.572z" fill="#263238"/>
                <path d="M128.287 195.94c.01-.359.06-.716.147-1.065.125-.652.33-1.548.602-2.524.272-.976.575-1.846.812-2.467.11-.345.26-.675.446-.985a5.702 5.702 0 0 1-.286 1.038c-.196.63-.468 1.504-.744 2.476-.277.972-.5 1.855-.665 2.498a5.8 5.8 0 0 1-.312 1.03zM136.219 188.304a6.392 6.392 0 0 1-1.124-.253c-.687-.182-1.632-.443-2.675-.66-1.043-.218-2.015-.422-2.715-.551a6.773 6.773 0 0 1-1.123-.249c.385-.008.77.023 1.15.094.704.093 1.676.253 2.733.492 1.056.24 2.006.506 2.675.723.372.098.734.233 1.079.404zM122.38 190.523c.016-.416.074-.83.174-1.234.138-.754.361-1.797.66-2.933.299-1.136.615-2.152.86-2.88.108-.4.258-.788.446-1.157-.072.409-.175.812-.308 1.206-.21.737-.503 1.775-.798 2.889-.294 1.114-.543 2.16-.722 2.91-.07.408-.174.809-.312 1.199zM132.567 181.653c0 .058-1.997-.102-4.458-.36a44.108 44.108 0 0 1-4.414-.576c1.492.043 2.98.163 4.459.36 1.48.117 2.953.31 4.413.576z" fill="#263238"/>
                <path d="M131.114 205.635c0 .062-6.986.111-15.604.111-8.618 0-15.604-.049-15.604-.11 0-.063 6.982-.112 15.604-.112s15.604.054 15.604.111zM126.25 214.585c0 .058-4.708.11-10.513.11-5.804 0-10.512-.052-10.512-.11s4.708-.111 10.512-.111c5.805 0 10.513.062 10.513.11zM126.433 215.867c0 .062-4.708.111-10.513.111s-10.512-.049-10.512-.11c0-.063 4.707-.112 10.512-.112 5.805 0 10.513.045 10.513.111zM126.433 213.529c0 .062-4.869.11-10.874.11-6.005 0-10.874-.048-10.874-.11s4.869-.111 10.874-.111c6.005 0 10.874.049 10.874.11z" fill="#455A64"/>
            </g>
            <text fill="#002953" fill-rule="nonzero" font-family="Rubik-Regular, Rubik" font-size="6" transform="translate(70.855 52.794)">
                                <tspan x="103.074" y="126.87">FAILED</tspan>
                            </text>
        </g>
    </g>
</svg>
