<?xml version="1.0" encoding="UTF-8"?> <svg xmlns="http://www.w3.org/2000/svg" xmlns:xlink="http://www.w3.org/1999/xlink" viewBox="0 0 460 460"><defs><style>.cls-1{fill:url(#Magenta);}.cls-2{fill:#fff;}</style><linearGradient id="Magenta" x1="-768.27" y1="-594.96" x2="-308.27" y2="-594.96" gradientTransform="translate(768.27 824.96)" gradientUnits="userSpaceOnUse"><stop offset="0" stop-color="#d471ad"></stop><stop offset="0.5" stop-color="#c7158c"></stop><stop offset="1" stop-color="#9d248e"></stop></linearGradient></defs><g id="Layer_2" data-name="Layer 2"><g id="Layer_1-2" data-name="Layer 1"><rect class="cls-1" width="460" height="460" transform="translate(460 0) rotate(90)"></rect><g id="layer1"><g id="g4305"><g id="g4345"><path id="path3847" class="cls-2" d="M239.26,84.17A159.84,159.84,0,1,0,378.12,164.1,159,159,0,0,0,239.26,84.17Zm58.28,18a152.27,152.27,0,0,1,49.94,32.94l-55.69,56.38a73.57,73.57,0,0,0-24-15.9ZM239.7,176.73A67.3,67.3,0,1,1,172.46,244,67.31,67.31,0,0,1,239.7,176.73Zm0,6.73A60.57,60.57,0,1,0,300.32,244,60.53,60.53,0,0,0,239.7,183.46Zm0,39.24A21.32,21.32,0,1,1,218.39,244,21.32,21.32,0,0,1,239.7,222.7Zm-19.23,104a29.92,29.92,0,0,1,5.33.44,34.49,34.49,0,0,1,4.2,1,21,21,0,0,1,3,1.17c.8.4,1.37.71,1.73.94l-3,8.38a25.51,25.51,0,0,0-5-1.93,23.34,23.34,0,0,0-6.41-.79,14.12,14.12,0,0,0-4.71.79,10.5,10.5,0,0,0-4,2.58,12.7,12.7,0,0,0-2.83,4.56,19.06,19.06,0,0,0-1.07,6.78,24.63,24.63,0,0,0,.69,6,12.64,12.64,0,0,0,2.27,4.75,10.88,10.88,0,0,0,4.1,3.16,14.49,14.49,0,0,0,6.12,1.17,26.42,26.42,0,0,0,7.26-.9,16.42,16.42,0,0,0,2.46-.83l1.93-.85,2.87,8.32a24.16,24.16,0,0,1-6.2,2.39,36.09,36.09,0,0,1-9.26,1.07q-11.25,0-17.15-6.27t-5.89-17.77a27.31,27.31,0,0,1,1.81-10.22,22.08,22.08,0,0,1,4.94-7.6,20.61,20.61,0,0,1,7.45-4.7A27,27,0,0,1,220.47,326.72Zm35.8.54A40.39,40.39,0,0,1,267,328.59a22,22,0,0,1,8.28,4.21,18.65,18.65,0,0,1,5.33,7.32,27.79,27.79,0,0,1,1.87,10.72,27,27,0,0,1-1.87,10.45,19.36,19.36,0,0,1-5.29,7.38,22.65,22.65,0,0,1-8.36,4.42,39,39,0,0,1-11.06,1.45c-1.86,0-4-.07-6.53-.23a53.83,53.83,0,0,1-7.33-1v-45a61.07,61.07,0,0,1,7.5-.89C252.16,327.33,254.4,327.26,256.27,327.26Zm.52,8.87c-.71,0-1.43,0-2.19,0a20.26,20.26,0,0,0-2.14.16v29.18c.49,0,1.06.08,1.71.1s1.4,0,2.28,0c5.2,0,9.07-1.31,11.58-3.93s3.76-6.23,3.76-10.84q0-7.26-3.6-11C265.79,337.36,262,336.13,256.79,336.13Z"></path></g></g></g></g></g></svg> 