<?xml version="1.0" encoding="UTF-8"?> <svg xmlns="http://www.w3.org/2000/svg" xmlns:xlink="http://www.w3.org/1999/xlink" viewBox="0 0 460 460"><defs><style>.cls-1{fill:url(#Blue_Green);}.cls-2{fill:#fff;}</style><linearGradient id="Blue_Green" x1="-42.53" y1="130.78" x2="417.47" y2="130.78" gradientTransform="translate(42.53 99.22)" gradientUnits="userSpaceOnUse"><stop offset="0.01" stop-color="#8ad0c3"></stop><stop offset="0.5" stop-color="#00b6a9"></stop><stop offset="1" stop-color="#00a185"></stop></linearGradient></defs><g id="Layer_2" data-name="Layer 2"><g id="Layer_1-2" data-name="Layer 1"><rect class="cls-1" width="460" height="460" transform="translate(460 0) rotate(90)"></rect><path class="cls-2" d="M372.81,189.48a84.22,84.22,0,0,0-145.1-81,72,72,0,0,0-103.36,64.76c0,.22,0,.43,0,.65a76.55,76.55,0,0,0,10,152.46H183l-46.09-56.44h68.54V198.65h67.88v71.28h67.93L295.2,326.37h30.49a76.55,76.55,0,0,0,47.12-136.89Z"></path><polygon class="cls-2" points="265.89 276.74 265.89 205.57 212.33 205.57 212.33 276.74 152.18 276.74 195.65 329.96 239.11 383.2 282.58 329.96 326.04 276.74 265.89 276.74"></polygon></g></g></svg> 