<svg xmlns="http://www.w3.org/2000/svg" width="100" height="40"><path fill="#FFF" d="M66.995 0s-3.645 5.356.602 9.562c4.256 4.198-4.549 3.039-4.549 3.039S59.701 7.772 66.995 0zM96.121 2.783s1.836 6.28-3.475 8.881c-5.291 2.609 3.414 4.372 3.414 4.372s4.628-3.499.061-13.253z"/><g fill="#AD0F0A"><path d="M14.167 16.747a20.945 20.945 0 0 1-.067-1.386c0-.659.06-1.188.173-1.586-.016-.138-.105-.264-.279-.387l-.455-.193-.147.107-.388-.242c-.17.135-.479.195-.924.195-.418 0-.799-.043-1.146-.127l-.56.287-.235-.113-.431.113c-.346.832-.517 2.381-.517 4.645 0 .258.009.668.035 1.254.015.578.041 1.318.073 2.218.082 1.781.131 2.936.131 3.457 0 1.236-.342 1.851-1.016 1.851a.985.985 0 0 1-.504-.13 1.391 1.391 0 0 1-.44-.357 1.65 1.65 0 0 1-.306-.5 1.697 1.697 0 0 1-.104-.569c0-.236.002-.614.014-1.121.006-.508.014-1.162.027-1.96.044-1.582.064-2.607.064-3.09 0-2.262-.151-4.123-.454-5.583-.513 0-.909-.077-1.185-.227-.213.133-.478.198-.793.198-.205 0-.354-.027-.455-.086l-.213.113-.197-.113-.193.113a2.414 2.414 0 0 0-1.057 0c-.5.07-.752.264-.752.562 0 .13.05.274.15.425-.069.262-.108.741-.108 1.424 0 .422.022 1.217.067 2.395.028.582.047 1.027.065 1.342.011.313.017.484.017.531 0 2.746.025 4.394.065 4.937.171 2.195.703 3.793 1.583 4.81.885 1.011 2.186 1.519 3.889 1.519 2.458 0 4.242-.647 5.343-1.941 1.104-1.33 1.656-3.475 1.656-6.436 0-.583-.082-1.869-.257-3.868-.068-1.014-.128-1.842-.169-2.481zM9.96 17.952l.133-.675h.197v.357l.104.023c.036 0 .071-.014.104-.02v.371c-.07.077-.142.168-.209.295h-.217c.039-.158.007-.276-.112-.351zm.436-1.763l-.232.129.106-.293.126.164zm-.257-.85l.235.443-.063-.089-.146.332-.203-.309.177-.377zm-.109 1.604l.045-.196c0-.021-.033-.075-.101-.185a.585.585 0 0 1-.097-.309l.175.289.149-.157h.194a1.616 1.616 0 0 1-.194.648l-.258.131-.259-.222h.346v.001zm-.217 3.202l.218.043.021-.155-.021-.47h.391l-.129-.449c.086-.119.158-.225.207-.313v1.306l-.125-.029c-.115.164-.185.287-.19.359l.086.041a.37.37 0 0 0 .229-.074v.45h-.188v.092h.188v.07c-.045-.005-.086-.016-.127-.024l-.018.157-.304.115-.239-.115.001-1.004zm2.52 9.452l-.041-.068.321-.295.044.05-.324.313zm1.23-1.616h-.105v-.332h.105v.332zm.43-2.39h-.09v-.336h.09v.336zM26.571 20.501c-.141-.297-.223-.513-.235-.629l.104-.312-.104-.201.065-.182a.663.663 0 0 1-.041-.424 6.178 6.178 0 0 0-.324-.824l.105-.068c-.115.041-.172.056-.172.025l.021-.049.151-.107a3.218 3.218 0 0 1-.172-.205c-.1-.116-.254-.299-.451-.537-.306-.396-.584-.659-.842-.777l-.105.044v-.03a12.545 12.545 0 0 0-.842-.551 9.262 9.262 0 0 0-.774-.421 2.355 2.355 0 0 1-.537.086l-.108-.086-.304.086-.192-.205c-.502-.041-.785-.089-.844-.151-.156.028-.296.059-.404.069a2.788 2.788 0 0 0-.28.082l-.089-.087-.237-.066a.351.351 0 0 0-.259.111c-.389-.092-.611-.135-.664-.135-.133 0-.224.023-.281.068l-.561-.137c-.22.104-.527.156-.929.156h-.277l-.11-.113-.151.094-.149-.045c-.678.227-.988.674-.943 1.367l.02.329-.197.181c.179.699.282 1.237.324 1.613-.056.122-.08.266-.08.416 0 .18.038.325.127.428v.912l-.11.114c.029.509.049.942.074 1.308.021.363.047.672.076.924l-.194.207.09 1.506v3.781c-.027.037-.063.065-.09.103v2.119c.016.009.043.054.077.108.033.063.088.148.156.266.133.24.232.357.305.357.541 0 .81-.004.795-.018l-.018-.249.106.204c-.019-.063.019-.141.088-.217v.082h.385c.054.139.089.238.108.244l.216-.084c.33 0 .589.049.771.172l.174-.225c.017.021.027.026.043.035.016.01.031.021.049.036.1-.028.154-.063.17-.097v.136l.146.026.109-.11.09.11.104-.162.088.113c.016-.059.064-.089.15-.089.072 0 .129.007.173.026.058-.346.103-.661.142-.941.033-.281.063-.533.076-.761l-.068-.334-.148.021.217-.311a.4.4 0 0 1-.043-.133 2.016 2.016 0 0 0-.06-.25 4.873 4.873 0 0 0-.058-.243c-.024-.078-.058-.128-.102-.151.127-.229.193-.414.193-.563 0-.089-.051-.295-.149-.622a.243.243 0 0 1-.173-.025c-.115.072-.178.112-.189.112v-.087l-.218.154v.246c.144.012.218.16.218.445 0 .283-.061.467-.177.559l-.019.152-.022-1.156-.028-.75c.099-.037.194-.073.277-.09.104-.026.197-.041.266-.052v-.142l.148.221c-.013-.021-.018-.068-.018-.133 0-.026.005-.039.018-.039h.066l.324-.406.301.156c.143-.07.275-.119.389-.156h.523a.79.79 0 0 1 .166.156l.119-.156h.389l.098.115.104-.115h.41l-.02-.152.086.086.063-.129.084.064v-.111l.11.09c.117-.09.199-.18.259-.271.264-.045.523-.1.754-.178h.021c.418-.354.682-.62.801-.799l.189-.047c.033-.094.109-.229.24-.4a2.03 2.03 0 0 0 .278-.583c.113-.509.237-.802.363-.872l-.063-.035c.061-.063.121-.26.195-.586.055-.314.123-.514.189-.604l-.064-.586.153-.059zm-7.906 2.072l.106-.178.065.047-.106.18-.065-.049zm1.443-1.537c0-1.433.096-2.291.283-2.563l.086.106.105-.136.104.136.047-.155c.775.669 1.177 1.077 1.207 1.227l.151-.047-.11.116.154.089v.647c-.072.279-.101.479-.091.602-.041.09-.104.207-.188.35-.09.139-.125.261-.107.365v.065a4.244 4.244 0 0 0-.463.215c-.196.097-.352.149-.463.149-.047 0-.105-.021-.197-.047l-.148.047-.26-.16-.109-.424.109-.117-.11-.465zm0 1.205l.068.154h-.068l-.065-.108.065-.046zm-1.568-.469c.125-.062.19-.146.19-.24 0-.021-.007-.045-.01-.084-.009-.04-.015-.094-.032-.17l.24.254-.198-.047.149.133v.197a2.168 2.168 0 0 0-.17.645l-.154-.355-.107.099.133-.231h-.196l.172-.133.133.068-.15-.136zm-.281.133l.17.179-.17.229.064-.209-.129.099.065-.298zm-1.1-.893l.129-.038.021.063-.15.069v-.094zm2.719 7.757h.104a4.614 4.614 0 0 1-.537.715c-.014-.029-.016-.045-.021-.069l-.021-1.004.475.358zm3.377-3.402c0-.011-.02-.026-.041-.058.02 0 .045-.004.063-.01-.005.02-.01.063-.022.068z"/></g><g fill="#FFF"><path d="M34.738 13.685l-.11-.11-.453.11-.041-.11-.412.047c-.096-.107-.256-.156-.471-.156-.101.104-.186.156-.26.156-.029 0-.045-.037-.045-.091-.117.021-.191.044-.236.044a.638.638 0 0 1-.321-.089l-.129.136c-.03-.037-.058-.047-.089-.047-.039 0-.086.031-.127.11l-.086-.11c-.211 0-.395-.023-.542-.044h-.104l-.088-.112c-.072-.017-.137-.027-.191-.037-.063-.004-.114-.008-.178-.008-.025 0-.08.004-.17.008-.084.01-.209.021-.363.037l-.366.268a.672.672 0 0 1-.28.066.844.844 0 0 1-.324-.066c-.026.025-.052.041-.063.041-.019 0-.033-.016-.063-.041l-.045.092-.404-.359-.281.158c-.018-.063-.063-.09-.133-.09-.045 0-.264.153-.668.469-.06.138-.086.277-.086.447 0 .729-.059 1.244-.172 1.56l.172-.071-.084.119.129.247a1.02 1.02 0 0 0-.023.252c0 .065-.008.138-.021.216-.028.223-.068.361-.127.399.115.269.199.502.258.694-.069.259-.131.474-.184.662-.05.182-.088.336-.119.453l.217.051-.045.398c.103.119.146.426.146.915 0 .138-.002.264-.01.378-.004.117-.016.229-.027.337-.07 0-.109.094-.109.268 0 .132.027.375.086.721.031.171.052.322.078.436.021.11.027.194.027.254 0 .045-.016.141-.061.291l.15.201h-.136l.045.203-.104.227c.031.117.047.264.051.418a5.78 5.78 0 0 1-.006.582c-.014.285-.025.508-.031.674a4.59 4.59 0 0 0-.014.33c0 .168.01.422.022.775.013.346.033.807.066 1.375.026.545.052 1.004.069 1.358.022.36.035.622.035.783v.313c.202.225.324.373.363.471l.191.063c.016-.013.024-.046.024-.092.063.032.095.058.104.073v-.144l.242.144c.183-.045.336-.094.447-.144l.176.099.109-.099.215.029v-.136l.127.154.043-.109.11.131c.099 0 .226-.012.376-.04.148-.033.342-.076.572-.136l.213.045v.023l.189.037.09.098.148-.049c.347-.418.52-.689.52-.824 0-.071-.01-.254-.02-.525-.017-.273-.037-.648-.066-1.122a65.713 65.713 0 0 1-.063-1.883c0-.507.037-.913.107-1.21l-.13.025-.021-.203c0-.479.174-.713.516-.713l.152-.14.453.14.107-.088a.572.572 0 0 0 .302.105c.099 0 .188-.059.28-.178.184.066.417.08.688.048.299-.284.451-.492.451-.624 0-.051-.023-.08-.064-.113l.13-.158a4.326 4.326 0 0 1-.13-1.045c0-.361.06-.736.176-1.146a12.537 12.537 0 0 1-.327-.845l-.104.084-.172-.311-.193.113c-.047-.168-.154-.239-.328-.225l-.297.022-.305.356h-.104c-.302 0-.503-.052-.604-.156l-.254.045c-.019-.063-.051-.088-.09-.088l-.107.043-.107-.137c-.059-.175-.079-.408-.064-.688l.021-.763c.071-.215.13-.369.173-.492.046-.116.078-.207.107-.268h.559l.049-.049.362.096-.022.156h.322a.997.997 0 0 1 .241-.033c.173-.029.431-.067.774-.123l.129-.162.082.162c.117-.209.219-.391.305-.539.088-.149.141-.278.17-.402-.001-2.019-.167-3.057-.492-3.098zm-1.571 2.461l-.154-.188.041-.072.152.209-.039.051zM48.092 21.618c-.062-1.882-.538-3.484-1.446-4.829-1.021-1.507-2.393-2.254-4.116-2.254h-.342c-.142 0-.338.005-.578.014-.245.023-.44.028-.586.028h-.321c-.016.021-.105.069-.281.17-.17.098-.437.226-.793.387-1.717.882-2.866 3.187-3.471 6.908-.013.093-.013.25 0 .486.016.186 0 .363-.045.541l.088.022c-.068.222-.109.39-.109.49 0 .414.066.832.195 1.258l-.195.302c.203.467.381.871.531 1.219.148.35.262.656.334.91.073.03.121.084.178.146.145.321.389.825.709 1.349l-.113.135c.114.225.212.347.28.356.089.03.151.056.214.08.064.097.137.192.207.283l.035.147c.041 0 .096.066.156.194.065.129.121.188.164.188l.151.088c.019-.016.026-.023.033-.047.053.047.103.092.146.127-.18.105.004.25.906.442.059.037.114.062.162.124.021-.02.035-.063.059-.082.291.063.615.117 1.036.184.242.033.47.056.69.08l.176.248.299-.094-.021.133.154-.084h.539s.344-.037.813-.257c-.015.024-.023.058-.038.077l.193.064c.049-.064.092-.131.138-.197.129-.031.241-.063.354-.1l.023.008c.031 0 .064-.043.088-.049.051-.018.098-.027.142-.049l.071.098.109-.112.107.112c.057-.112.107-.211.156-.303.459-.268.771-.578.981-.884.006-.005.019-.016.026-.02l-.006-.015c.228-.328.33-.633.381-.83.553-.17.974-1.054 1.259-2.664.233-1.189.346-2.367.346-3.53 0-.452-.021-.755-.063-.917l-.105-.081zm-7.261 1.319a6.804 6.804 0 0 1-.074-.494 5.306 5.306 0 0 1-.035-.627c0-.881.121-1.522.369-1.942a.83.83 0 0 1 .029-.443c.049-.121.143-.172.272-.156.06-.152.293-.34.707-.559l.047.115.261.104.038-.104c.177.072.332.13.482.197.153.063.231.205.231.441l.338.449-.037.379h.147c.029.204.052.517.067.921.037.447.049.711.021.805-.046.067-.051.17-.021.291.011.057.025.104.033.139.002.044.004.072.004.104 0 .402-.117.788-.357 1.16.182.104.273.363.273.781 0 .236-.023.501-.086.786l.064.063c0 .161-.021.334-.064.524a3.169 3.169 0 0 1-.452 1.043 2.201 2.201 0 0 1-.258.297.226.226 0 0 1-.067.039l-.08-.073-.017.133a2.765 2.765 0 0 1-.381.142l-.166-.067-.285.044c-.473-.3-.821-.905-1.053-1.813l.066-.197a1.363 1.363 0 0 1-.088-.427c0-.255.045-.492.126-.71-.126-.284-.19-.539-.19-.766a1.76 1.76 0 0 1 .136-.579zm.599 7.102s-.541.019-1.107.067a2.375 2.375 0 0 0-.008-.459l.281.037.032-.103c.25-.056.451-.146.599-.259.017.012.021.035.035.042l.019-.037.223.153-.074.559zM60.215 29.509c-.098-.275-.191-.494-.256-.68l-.068.093c0-.207-.119-.577-.365-1.116l-.041.066a32.395 32.395 0 0 1-.479-1.032 15.72 15.72 0 0 1-.299-.731l.113-.07-.135.033-.318-.906c.014-.01-.01-.166-.066-.46l-.111.037c-.229-.479-.375-.837-.428-1.095l.297-.264.025-.09c.406-.166.797-.482 1.188-.957l.111.086c.438-.691.658-1.191.658-1.521v-.069l.139.069v-.895l.105.068a1.468 1.468 0 0 1-.025-.339c0-.114.006-.237.025-.37.012-.125.023-.263.063-.412l-.262-.446c.014-.226-.082-.619-.299-1.199-.193-.548-.369-.845-.543-.922-.098-.191-.154-.289-.17-.289h-.068c-1.016-.863-1.621-1.295-1.805-1.295l-.109.088-.047-.088-.232.042-.192-.09-.149.048c-.328-.134-.582-.199-.755-.199l-.239.082-.039-.082-.105.082c-.26-.146-.438-.226-.539-.242l-.09-.115-.559.115a1.099 1.099 0 0 0-.496-.115h-.222l-.075.115c-.379-.043-1.064-.063-2.07-.063-.659 0-1.119.101-1.369.317-.254.219-.379.574-.379 1.085v1.659c0 .084-.054.338-.146.754-.078.418-.111.677-.111.787l.021.177h.09l.082.422-.128.249c.046.088.021.146-.063.177.013.302.025.651.041 1.046.012.384.035.826.068 1.302.022.537.049 1.002.063 1.396.014.389.019.717.019.973 0 .209-.005.409-.009.617-.008.197-.021.396-.032.592l-.109.104-.041.207.15.2c-.131.177-.232.412-.302.714.114.282.171.647.171 1.092 0 .938.044 1.502.131 1.677l-.109.313.433.497c.058-.047.166-.047.323 0 .174.035.287.063.347.063.114 0 .17-.035.17-.107l.105.195.089-.113c.017 0 .112.051.298.158.189.103.324.159.414.159l.061-.022.15-.137.105.09c.235-.135.553-.199.953-.199h.793l.221-.489-.109-.044c.129-.105.193-.382.193-.829 0-.356-.027-.653-.084-.896a3.33 3.33 0 0 0 .129-.801c0-.166-.033-.277-.092-.336l.092-.137-.129-.404c.025-.111.037-.262.037-.424v-.24c0-.356.092-.599.264-.718l.104.07v-.119c.189.224.33.553.435.989.131.503.258.846.387 1.022l-.036.222h.143c.158.822.311 1.425.451 1.793l.09-.069.063.403.085-.088c0 .908.557 1.361 1.661 1.361.429 0 .854-.07 1.271-.205l.193.135.102-.135.095.156c.263-.115.455-.176.603-.176.086 0 .149.02.194.064l.297-.24.109.082.194-.131.062-.197c-.149-.36-.278-.677-.372-.935zm-4.565-9.414a.87.87 0 0 0-.15.445v.135c-.146.061-.262.213-.344.443-.057.154-.229.234-.518.234-.13 0-.22.035-.263.105a2.818 2.818 0 0 1-.192-.157l-.104.097c-.021-.155-.103-.342-.265-.566.101-.153.162-.373.162-.672.008-.296.015-.599.015-.912.016-.288.021-.521.028-.701.01-.19.01-.328.01-.412h.371l.082.112h.172c.06.036.111.061.152.061l.131-.023.299.412.093-.047c.213.387.319.787.319 1.201v.245h.002z"/></g><g fill="#AD0F0A"><path d="M62.074 12.537c-.021-.088.049-.26-.035-.279 0 .121-.158.279.035.279zM62.039 23.842c-.037-.137-.119-.222-.193-.315-.02.492.139.806.264 1.144-.108-.373.191-.931-.071-.829zM62.419 24.951c.041.1.021.271.146.274-.021-.117-.05-.225-.146-.274zM90.729 30.37c.076.011.039.146.154.111-.025-.104.08-.08.08-.158-.067.028-.227-.051-.234.047zM89.666 31.433c.199-.041.273-.218.381-.353-.227.014-.274.219-.381.353zM75.259 37.645c-.193.015-.406.015-.572.074.269.008.285.258.502.319-.01-.175.093-.218.07-.393zM79.112 39.179c.318.148.322-.341.531-.434-.275.05-.478.159-.531.434zM81.604 12.297c-.014.016-.018.027-.018.043.005-.016.011-.027.018-.043z"/><path d="M95.072 13.639c-.969-1.235-2.191-2.342-3.543-2.725-.057-.11-.18-.154-.146-.352-.784-.064-1.086-.805-2.028-.561-.015-.078.217-.092.08-.16-.263.229-.576.082-.916.041-1.072-.125-2.346 0-3.2.283.094.105.178.043.227.233-.053-.079-.385.004-.186-.114h-.461c-.088.053.072.114-.031.156-.633.237-1.205.671-1.873.749-.049.126.125.033.08.153-.355.059-.342.494-.797.438.008-.089.229-.175.145-.236-.273.215-.684.494-.818.75.041-.045.135-.092.135-.037-.842.715-1.52 1.613-2.133 2.57-.211-.289-.479-.584-.309-1.068-.217-.332-.568-.545-.877-.789-.004-.371-.35-.379-.451-.631.105.004-.031-.243.078-.243.045 0 .135.135.146.04-.344-.559-.832-.971-1.252-1.457-.072-.102-.063-.285-.271-.237.037.378.439.392.496.749-.863-.236-1.01-1.223-1.566-1.781-.271-.125-.59-.191-.799-.396-.295.049-.354-.157-.65-.116.063.188.359.129.466.273-.519-.047-.962-.168-1.269-.43.162-.06.316.088.387 0-.154-.121-.416-.121-.531-.279.496-.076.916.473 1.412.396-.189-.146-.66-.142-.65-.356-.455.092-.846-.44-1.412-.232 0-.059.021-.088.043-.121-.127-.021-.354.047-.42-.038.094-.03.217-.042.262-.116-.403.074-.666-.211-.912-.164.063.109-.006.152.08.28-.701.024-.967-.608-1.719-.392.105 0 .229-.029.229.072-.384.139-.921-.232-1.218.039a.41.41 0 0 1 .228.121c-.312-.054-.621.116-.877.231-.058-.021.004-.185-.108-.154-.578-.056-.621.437-1.033.558 0-.152.227-.269.158-.354-.088.119-.218.19-.349.271-.011-.053.013-.146-.037-.154-.258.266-.549.48-.95.596.141.516-.56.535-.771.631.031-.318.488-.189.502-.509-.369.083-.613.308-.879.509a.168.168 0 0 0 .115-.045c-.217.229-.424.45-.605.711-.053-.002-.041-.068-.08-.072-.074.133-.146.289-.266.396-.088-.107.022-.309-.035-.359-.199.326-.355.689-.803.752-.49.533-.811 1.164-1.067 1.896-.221.617-.824 1.078-.838 1.82-.137.15-.334.238-.309.549.143.027.102-.168.264-.117.012.271.01.533-.035.754-.061.045-.127.103-.264.078.018.52.127 1.271-.111 1.621-.059-.177.111-.33 0-.436-.033.128-.023.297-.162.32-.016-.246-.012-.517-.072-.721-.133.223.049.663.072 1.112.029.31.021.647.08.905.053.117.203.132.193.318-.078.07-.027.159-.111.037-.047.664.623.961.34 1.623.23.367.283.898.342 1.345.158.092.438.461.381.547.01-.037-.098-.086-.076-.037.08.184.314.21.263.476-.188-.097-.254-.335-.381-.516-.173.516.362.636.381 1.075.088.045.213.045.231.16.131.619.417 1.088.725 1.537-.091-.01-.117.062-.15.115.148.139.313.256.533.318.271.15.049.816.381.91 0-.072-.1-.235 0-.272.472.531 1.07.911 1.522 1.461-.021-.019-.146-.103-.149 0 .168.077.416.09.382.276.862-.084.877 1.029 1.487 1.342h-.153c.375.494 1.172.549 1.405 1.186.011-.058-.008-.145.041-.16.312.049.558.164.728.358-.174-.053-.584-.067-.461.162.127-.183.137.156.305.192.01.07-.105.199 0 .236.229.078.412.512.611.75.729.343 1.491.638 2.02 1.187-.26-.072-.146.242-.34.236-.16-.363-.621-.588-.873-.762.004.047-.035.116-.045.131.518.215.729.559.992.986-.004-.088.03-.128.114-.111.302.225.593.461.837.748-.244.051-.341-.261-.455-.201.188.338.584.248.836.475.037.037.016.128.037.162.088.13.26.201.344.354.377.655 1.072 1.316 1.834 1.774a.74.74 0 0 0-.271.119c.461.199 1.164.137 1.332.627-.028.291-.461.313-.604.244.168.179.297.401.524.52-.004-.18-.004-.354.16-.355.058.352.199.633.338.904.08-.201.425-.102.5.04-.084.079-.217.123-.271.231.283.104.504.275.875.289.33.586 1.015-.155 1.304-.362-.08-.039-.134.124-.156 0 .449-.267.418-1.042.914-1.267.004.277.16.398.42.314.05-.725.507-1.242.988-1.384-.179.384-.392.729-.572 1.11.24.025.431-.219.531-.203.015.162-.265.227-.188.324a3.513 3.513 0 0 0 1.332-1.348c-.363.188-.593.723-.947.789a1.99 1.99 0 0 1 1.027-1.264c.079.154.049.225.038.432.218-.139.353-.378.607-.479-.019.08-.199.188-.111.24.254-.16.358-.463.606-.631.267-.179.599-.148.882-.355a.804.804 0 0 1-.611-.473c.19-.08.339-.363.568-.279 0-.186.391-.408.534-.428.027.223-.065.322-.03.553.168-.012.11-.256.252-.276.086 0 .06.104.164.073.106-.131.313-.334.396-.438-.023.008-.058.008-.093.008.147-.201.431-.265.649-.401.025-.119-.069-.119-.041-.234.095-.224.164-.335.343-.472.485-.387 1.564-1.015 2.102-1.267a.456.456 0 0 1 .381-.041c.078-.158.158-.306.375-.311-.047.126-.207.145-.226.311.257-.232.511-.475.722-.754-.455.063-.566.461-.912.633.08-.508.643-.668.981-.901 1.162-.812 2.302-1.61 3.474-2.335.744-.922 1.651-1.662 2.211-2.77h.115c-.015-.181.108-.207.114-.354.054 0 .08.017.112.033v-.272c.855-1.506 1.394-3.102 1.525-5.299.168-2.754-.735-4.709-2.03-6.36z"/><path d="M85.284 34.396c-.004.012-.018.021-.021.037.009-.003.021-.016.021-.037zM70.192 32.816c.014.008.026.021.045.026-.004-.016-.017-.026-.045-.026zM60.664 15.578c-.041.066-.076.365-.037.4-.025-.139.234-.339.037-.4z"/></g><g fill="#FFF"><path d="M76.212 17.122c.014-.229.025-.399.043-.504l-.195-.089.152-.09-.564-.444c-.082-.048-.317-.052-.703-.021a1.486 1.486 0 0 0-.35-.072c-.115 0-.16.025-.133.072-.195 0-.398.006-.598.008-.203.008-.396.021-.586.031l-.318-.199-.479.113-.105-.113-.195.068-.084.092c-.461 0-.689.465-.689 1.4v.473c0 .18.009.397.021.646.012.879.047 1.335.109 1.363l.018 7.062c-.025.027-.053.135-.074.313-.018.188-.065.283-.119.316v.309c0 .14-.006.313-.022.521-.012.21-.021.376-.021.51v.291c0 1.238.168 2.07.496 2.503.049 0 .119.006.237.022.111.019.197.021.236.021l.088.07.19-.044v-.142l.109.115.039-.115.131.154v-.154l.348.115.107-.115h.279c-.07-.043-.063-.066.021-.066.059 0 .143.049.262.139.154-.063.283-.09.389-.09.072 0 .094.027.09.09l.664-.07.041.113a.808.808 0 0 1 .473-.043l.496-.359.127-3.325-.084-.05c.027-.146.041-.254.041-.313a.973.973 0 0 0-.041-.27 8.45 8.45 0 0 0 .131-1.562c0-.133-.01-.352-.024-.661-.009-.3-.035-.695-.063-1.172-.027-.479-.05-.867-.063-1.177a14.24 14.24 0 0 1-.021-.653c0-.52.043-1.023.127-1.498l.11.043-.155-.111.043-.089a6.984 6.984 0 0 1-.063-1.028c0-.367.021-.849.063-1.429.027-.373.054-.672.068-.905zm-2.774 12.461l-.049-.063.129-.117.039.043-.119.137zm.461.309l-.008.133-.24-.021c.049-.165.104-.299.146-.411.045-.114.078-.2.103-.28.049.299.069.522.069.67l-.07-.091zm.518-2.303l-.102-.338.233.205-.131.133zM87.842 16.087v-.515c-.045-.184-.164-.271-.363-.271-.149 0-.346.048-.607.136l-.687-.225-.346.112-.408-.112-.217.112-.518-.112-.213.112c-.178-.068-.986-.112-2.437-.112-.178-.072-.31-.109-.412-.109-.198 0-.475.072-.812.223l-.172-.112a.88.88 0 0 1-.506.063l-.063-.31h-.232c-.233.357-.428.621-.608.804h-.115c-.08-.254-.263-.381-.563-.381-.246 0-.623.103-1.146.293l.279.381-.324.041c-.172.391-.256 1.004-.256 1.836 0 .744.07 1.23.217 1.475h.279c.244-.057.471-.107.682-.146a4.52 4.52 0 0 1 .59-.076c.725.174 1.15.367 1.248.556.09.14.135.594.135 1.386 0 .462-.022 1.495-.072 3.108a136.05 136.05 0 0 0-.063 3.104c0 1.379.125 2.115.369 2.188-.258.212-.396.774-.396 1.696 0 1.133.502 1.7 1.488 1.7.148 0 .324-.012.547-.033.211-.023.459-.051.752-.08.57-.077 1.031-.127 1.363-.17l.678-.073c.146-.105.221-.357.221-.76a320.262 320.262 0 0 0-.069-4.963c-.021-1.277-.045-2.332-.063-3.147-.008-.824-.024-1.425-.024-1.812 0-1.388.271-2.313.803-2.774.074.02.138.033.197.035.053.009.114.009.19.009.199 0 .363-.024.494-.082l.304.228h.965v-2.714c-.07-.117-.109-.289-.109-.509zm-8.419 1.883v-.219l.123.099-.123.12zm5.508-.855l-.119.219-.19-.273v-.015l.309.069zm-1.399 3.594h.07a.493.493 0 0 0-.134.192h-.274l.229-.283.109.091zm-.603.937l.063.021v.222c-.021-.049-.05-.093-.066-.136-.001-.044.003-.086.003-.107zm1.691-4.287c.027.009.076.009.102.017l-.102.075v-.092zm-.523 4.607l.014.021-.014.07v-.091zm.523-4.359v-.027l.031.027s-.008.013-.008.017l-.023-.017zm-4.316.553l-.039.111h-.197l.107-.332c.342.158.49.244.447.244h.014s-.182.551-.289.514c.013-.25 0-.427-.043-.537zm4.002 5.835l-.168-.064v-.096l.195.068-.027.092zm.027-.445c-.084.07-.16.137-.236.19v-.562l.236-.054v.426zm.084-3.693c0 .066-.01.174-.025.328-.01.146-.031.36-.059.613-.039.39-.066.697-.066.937h-.17v-.371l.041.016.039-.087-.08-.024v-.367h-.238c.027-.078.05-.16.063-.236l.218.182.155-.162-.185.024.027-.268-.217.179-.301-.088c.119-.115.172-.235.172-.335 0-.012-.014-.024-.014-.038l.143-.164h.105a.248.248 0 0 0 .084-.177c-.004-.016-.004-.03-.014-.051l.045-.063h.448c0 .051.021.114.021.153h-.192zm1.51-2.048l-.256-.229h-.307c.057.177.084.35.084.518 0 .186-.053.303-.168.332a.39.39 0 0 0 .107-.27 2.74 2.74 0 0 0-.068-.268.484.484 0 0 1 0-.268l-.063-.156c-.096.182-.162.323-.221.434l-.142-.096a.53.53 0 0 1 .213-.474l-.153-.204h.237c.203.15.361.23.496.23.084 0 .115-.039.084-.115l.256.314-.099.252zm.66-.12a1.771 1.771 0 0 1-.057-.229c-.016-.069-.033-.131-.045-.194l.217-.242h.255l.064.271c0 .026-.029.08-.105.155-.073.072-.108.119-.108.131-.014.015.01.027.085.027l.129-.119h.283v.201h-.718zm.763.452h-.262l.262-.199v.199z"/></g><g fill="#FFF"><path d="M4.297 36.201c0 .006-.006.023-.009.048h-.031c-.195 0-.289.137-.289.407 0 .146.023.264.075.354v.014c0 .049.031.101.081.148l-.081.09c.028.057.077.086.151.086.059-.004.096-.01.125-.01h.051c.054-.046.107-.154.154-.329.041-.144.123-.226.242-.246a.383.383 0 0 1 .201-.075c.072 0 .133.075.18.229.041.143.105.222.19.222a.32.32 0 0 0 .157-.045c-.04.052-.077.08-.118.122a.23.23 0 0 0-.063.148c0 .016.006.029.016.06.021.062.104.088.242.088.107-.059.164-.135.164-.247l-.077-.406c0-.121.077-.205.237-.258-.133-.01-.246-.101-.324-.271-.073-.167-.168-.253-.277-.253a.383.383 0 0 0-.126.026c.077-.1.213-.173.403-.217.078-.023.156-.045.238-.066.084-.016.158-.032.242-.055a.496.496 0 0 1 .125-.015h.102c.352 0 .594.117.735.353-.027.06-.142.172-.347.309-.182.117-.273.23-.273.34a.31.31 0 0 0 .061.177.732.732 0 0 0-.252.583v.064c0 .033.004.062.008.089v.172a.988.988 0 0 1-.079.426.14.14 0 0 1 .028.084.645.645 0 0 1-.059.188.545.545 0 0 0-.055.208c0 .063.029.122.085.184h-.018c-.065 0-.112.029-.133.084-.004.066-.01.118-.015.187 0 .082-.021.134-.069.146l-.727-.079a.388.388 0 0 0 .039-.148c0-.07-.053-.163-.146-.303a.563.563 0 0 1-.129-.346v-.038a1.813 1.813 0 0 1-.203.084c-.092.037-.14.086-.14.163 0 .027.005.058.017.08.045.058.156.108.326.168l-.068-.011a.37.37 0 0 0-.28.126l-.194.28c-.08.102-.172.158-.287.158a.71.71 0 0 1-.217-.053c-.058-.259-.113-.508-.179-.754-.056-.255-.119-.51-.176-.766a9.74 9.74 0 0 0-.451-1.475.699.699 0 0 1-.11.014c-.072 0-.138-.036-.184-.118l-.102-.226a.424.424 0 0 1-.012-.066c0-.084.042-.162.12-.229A.666.666 0 0 1 3 35.679h.799c.333.033.498.185.498.468v.054zm-.009.643v-.162h.083v.162h-.083zM11.352 39.327c-.364.053-.603.116-.729.196a1.54 1.54 0 0 0-.402-.082h-.068c-.029-.008-.072-.008-.128-.008-.063 0-.146 0-.244.008h-.417c0-.008 0-.022.004-.056v-.126c0-.066-.029-.126-.093-.142l-.806.329a.505.505 0 0 1-.297-.092c-.071.111-.161.168-.27.168a.888.888 0 0 1-.301-.082.805.805 0 0 0-.305-.086c-.045-.029-.078-.102-.09-.199-.011-.094-.035-.163-.072-.204.072-.076.183-.113.328-.113.076 0 .125.009.154.024a.277.277 0 0 0 .163-.082c.046-.055.075-.106.075-.17s-.031-.119-.079-.157c.021-.166.041-.339.05-.511a5.12 5.12 0 0 0 .029-.565v-2.122c-.003-.004-.016-.016-.031-.035a.624.624 0 0 0-.061-.08c-.04-.037-.069-.062-.105-.062-.017 0-.031 0-.041.004-.022.051-.046.078-.082.078-.031 0-.07-.021-.119-.063-.068-.046-.104-.082-.119-.093-.049-.028-.078-.093-.084-.188.007-.035.007-.071.007-.114v-.103c.017-.004.052-.016.11-.025.062-.012.146-.039.25-.063a1.83 1.83 0 0 1 .357-.053c.195 0 .354.076.473.226h.059c.029 0 .066 0 .104-.006l.096-.009.074.009c.06.016.105.039.139.084-.01-.005-.026-.005-.047-.005h-.032c-.191 0-.313.106-.369.321-.015.074-.021.299-.021.667v.276c.02.092.075.174.153.219a.738.738 0 0 1 .399-.245c.188-.048.318-.101.393-.173a1.04 1.04 0 0 1 .277-.047c.14 0 .328.068.568.203.233.131.43.194.575.194a.91.91 0 0 0 .162-.017v.033c0 .111.065.244.199.389.14.164.214.279.214.345 0 .099-.063.198-.177.302.057.055.104.09.149.09h.014c-.008.013-.018.054-.027.084a5.12 5.12 0 0 0-.055.158.673.673 0 0 0-.059.241c0 .103.047.183.141.243-.141 0-.223-.03-.239-.082l.076-.079-.236-.164a.474.474 0 0 0 .172-.394c0-.01 0-.045-.006-.072 0-.041-.001-.082-.006-.125a4.245 4.245 0 0 0-.007-.119v-.102-.092c.003-.023.005-.054.007-.082l-.476-.406a.152.152 0 0 0-.049.119l.092.406a.193.193 0 0 1-.043.127.454.454 0 0 1 .084.26c0 .016-.024.147-.068.414a.162.162 0 0 0-.016.062v.065c0 .103.023.195.08.264a.423.423 0 0 0-.095.285c0 .126.032.223.095.287.023.06.063.087.121.087h.199c.053-.025.08-.078.08-.151a.882.882 0 0 0-.006-.179l-.16-.159a.198.198 0 0 1 .096-.02c.047 0 .092.029.125.104.055.1.086.15.098.157 0 .028 0 .044-.002.084a.336.336 0 0 0-.01.093c-.006.04-.008.071-.012.102-.005.022-.005.057-.005.071 0 .152.087.229.265.229h.475c-.107.144-.306.238-.615.297zm-2.463-.863a.23.23 0 0 0-.078-.166.252.252 0 0 0-.162-.084l.152-.17.006-.041c.003-.019.003-.026.003-.041a.372.372 0 0 0-.162-.325c.048-.053.092-.078.125-.078H8.8v-.41l-.152.08-.023.109c-.016.047-.033.104-.064.155a.671.671 0 0 0-.074.265c0 .081.023.146.078.204-.055.062-.078.12-.078.17 0 .021.006.05.014.082.01.037.026.06.037.103.014.027.023.062.035.102a.206.206 0 0 1 .021.091.183.183 0 0 1-.028.108h.237c.054-.044.086-.098.086-.154zm-.009-3.457h.156v.077l-.156-.077zm.156.524c0 .031-.026.078-.082.133l-.074-.081c.052-.052.098-.082.131-.082h.023v.03h.002zm.795 2.924a.591.591 0 0 0 .076-.431.682.682 0 0 0-.025-.133 3.493 3.493 0 0 0-.021-.129c-.011-.035-.011-.07-.011-.1a.59.59 0 0 1 .133-.346.496.496 0 0 0-.042-.188.618.618 0 0 0-.106-.149.684.684 0 0 0-.147-.109.426.426 0 0 0-.175-.058c-.021.031-.033.054-.051.07a.117.117 0 0 0-.021.04c0 .038.026.088.071.144l-.317.162.079.088c-.135.068-.201.178-.201.302 0 .026.006.054.012.089.004.037.012.074.019.115.007.039.017.074.019.109.002.041.004.071.004.096 0 .101-.025.19-.088.263.088.049.141.101.141.159 0 .02-.008.063-.029.137a.47.47 0 0 0-.029.169v.03h.019c.038 0 .088.029.135.08.021-.141.071-.219.147-.219.037 0 .102.029.197.078.1.051.166.064.205.064.077 0 .129-.051.16-.173l-.154-.16zm-.477-.818h.157v.082l-.157-.082zm.212-.892a.162.162 0 0 1-.055.065l.237-.162h-.153a.295.295 0 0 1-.029.097zm.129 1.217h-.022l.076-.161.082.082c-.047.056-.094.079-.136.079zM15.253 38.527c0 .147-.078.281-.221.412-.216.188-.334.32-.369.377a1.294 1.294 0 0 1-.711.218 2.13 2.13 0 0 1-.718-.146c-.116-.04-.231-.071-.353-.126-.112-.042-.229-.08-.348-.128-.302-.315-.449-.729-.449-1.245 0-.408.095-.867.279-1.377.08-.082.17-.171.243-.238.078-.092.163-.17.239-.25.213-.199.418-.291.613-.291.018 0 .043.008.063.008.028.004.049.004.072.007.029-.003.051-.003.086-.007.027 0 .056-.008.08-.008.541 0 1.029.342 1.469 1.033.066.25.098.424.098.523a.761.761 0 0 1-.177.492c-.081.022-.174.052-.278.064a2.539 2.539 0 0 1-.332.016h-.621a.594.594 0 0 1-.346.098c-.021 0-.051-.004-.086-.004-.031-.005-.072-.005-.105-.012-.045-.004-.081-.014-.112-.014-.035 0-.062-.007-.078-.007-.228 0-.356.124-.412.364l.13.128c.049.038.094.062.135.062.018 0 .037-.011.064-.015-.056.051-.076.103-.076.147v.021c.034.044.079.082.118.122.048.041.095.064.138.064.021 0 .047-.01.065-.023a.214.214 0 0 1 .104-.02c.037 0 .104.014.196.054a.821.821 0 0 0 .207.048c.097 0 .168-.053.229-.158a.408.408 0 0 0 .137.021c.115 0 .24-.08.383-.241.15-.155.262-.239.35-.239.082 0 .17.038.271.122a.644.644 0 0 1 .023.148zm-.66-1.443a.344.344 0 0 0-.088-.223l-.17-.178a1.333 1.333 0 0 0-.627-.182c-.135 0-.306.034-.523.096v.254c-.021.062-.102.086-.242.086v.252c.021-.035.051-.043.08-.043a.263.263 0 0 1 .127.043c.029.019.051.024.074.035a.18.18 0 0 0 .052.014c.028 0 .056-.014.075-.049h.027c.037 0 .084.026.141.082.086-.056.197-.07.334-.07h.1c.027 0 .063.007.092.011.103.005.188.017.271.017a.856.856 0 0 0 .264-.037.487.487 0 0 0 .013-.108zM19.028 36.895c-.023.15-.049.258-.088.317-.054.095-.146.136-.289.136a.21.21 0 0 1-.07.016c-.121 0-.225-.082-.319-.234a3.064 3.064 0 0 0-.136-.221c-.037-.055-.059-.092-.065-.098.103-.035.158-.057.163-.057a.368.368 0 0 0 .143-.098.325.325 0 0 0-.22-.098c-.092 0-.211.061-.353.149l-.332.252a.875.875 0 0 0-.274.267.73.73 0 0 0-.094.383c0 .008.003.013.01.017v.405c0 .183-.03.342-.084.477.002.27.158.401.463.401h.103c.043-.005.092-.005.147-.005.062-.008.106-.014.147-.014.048-.006.087-.006.113-.006.162 0 .283.027.371.08l-.158.314a3.528 3.528 0 0 0-.385.027c-.154.012-.335.022-.551.049a7.304 7.304 0 0 1-.943.076c-.266 0-.508-.021-.725-.078-.046-.016-.073-.08-.082-.201.004-.043.006-.082.006-.127v-.137a.31.31 0 0 0 .21.084.564.564 0 0 0 .279-.098.759.759 0 0 1 .306-.096.43.43 0 0 1 .184.037.315.315 0 0 0 .063-.164c0-.01.005-.022.007-.029l.002-.014-.009-.058v-.274c-.048-.053-.099-.078-.136-.078h-.01a.455.455 0 0 0 .125-.315.408.408 0 0 0-.125-.299c.098-.047.146-.112.146-.208a.822.822 0 0 0-.075-.29.861.861 0 0 1-.07-.276h-.147c-.043-.104-.112-.16-.202-.16a.845.845 0 0 0-.232.061.868.868 0 0 1-.25.055.305.305 0 0 1-.135-.029v-.545c.129-.041.276-.07.459-.08h.481c.058 0 .108.005.151.005h.242c.029 0 .062-.005.084-.005a.159.159 0 0 0-.022.08c0 .051.035.104.103.156.078.082.121.135.141.15.029-.04.104-.063.223-.084.111-.016.166-.061.166-.133a.217.217 0 0 0-.02-.09c.146-.032.271-.047.385-.071.109-.009.207-.019.287-.019.398 0 .72.154.965.474a1.062 1.062 0 0 0-.074.321zM22.382 38.527c0 .147-.07.281-.215.412-.215.188-.341.32-.371.377a1.3 1.3 0 0 1-.714.218 2.13 2.13 0 0 1-.716-.146c-.117-.04-.234-.071-.35-.126-.117-.042-.236-.08-.351-.128-.299-.315-.451-.729-.451-1.245 0-.408.097-.867.287-1.377.08-.082.164-.171.238-.238.079-.092.159-.17.239-.25.213-.199.418-.291.613-.291.02 0 .039.008.066.008.023.004.045.004.066.007.026-.003.059-.003.084-.007.028 0 .055-.008.088-.008.539 0 1.022.342 1.463 1.033.07.25.104.424.104.523a.751.751 0 0 1-.187.492c-.077.022-.174.052-.276.064a2.482 2.482 0 0 1-.33.016h-.616a.611.611 0 0 1-.347.098c-.026 0-.056-.004-.092-.004-.03-.005-.07-.005-.109-.012-.036-.004-.073-.014-.108-.014s-.06-.007-.078-.007c-.223 0-.36.124-.412.364.041.042.087.088.131.128.047.038.09.062.135.062.018 0 .037-.011.063-.015-.053.051-.075.103-.075.147v.021a.996.996 0 0 0 .128.122c.046.041.085.064.128.064a.16.16 0 0 0 .071-.023c.021-.014.054-.02.1-.02.036 0 .104.014.198.054a.812.812 0 0 0 .207.048c.092 0 .167-.053.226-.158a.416.416 0 0 0 .141.021c.113 0 .244-.08.387-.241.145-.155.256-.239.348-.239.076 0 .17.038.27.122a.57.57 0 0 1 .017.148zm-.658-1.443a.354.354 0 0 0-.084-.223l-.173-.178a1.335 1.335 0 0 0-.63-.182c-.131 0-.305.034-.52.096v.254c-.021.062-.1.086-.246.086v.252a.09.09 0 0 1 .084-.043.256.256 0 0 1 .131.043c.025.019.051.024.07.035a.15.15 0 0 0 .051.014c.031 0 .055-.014.076-.049h.022c.043 0 .093.026.142.082.088-.056.205-.07.332-.07h.103c.028 0 .063.007.097.011.102.005.184.017.268.017a.865.865 0 0 0 .266-.037.477.477 0 0 0 .011-.108z"/></g><g fill="#AD0F0A"><path d="M29.851 39.327c-.363.053-.606.116-.727.196a1.577 1.577 0 0 0-.402-.082h-.068c-.026-.008-.069-.008-.121-.008-.065 0-.149 0-.251.008h-.425c0-.008.004-.022.004-.056.002-.028.005-.067.005-.126 0-.066-.029-.126-.089-.142l-.805.329a.536.536 0 0 1-.305-.092c-.07.111-.158.168-.264.168a.879.879 0 0 1-.303-.082.799.799 0 0 0-.301-.086c-.052-.029-.085-.102-.093-.199-.013-.094-.035-.163-.071-.204.071-.076.18-.113.324-.113.074 0 .126.009.152.024a.272.272 0 0 0 .164-.082c.05-.055.076-.106.076-.17s-.028-.119-.08-.157c.021-.166.035-.339.054-.511a7.22 7.22 0 0 0 .026-.565v-2.122a.116.116 0 0 1-.028-.035c-.017-.014-.033-.047-.062-.08-.039-.037-.076-.062-.105-.062-.021 0-.037 0-.045.004-.02.051-.051.078-.084.078-.03 0-.068-.021-.115-.063-.066-.046-.102-.082-.113-.093-.057-.028-.086-.093-.089-.188a1.32 1.32 0 0 0 .004-.114v-.103c.019-.004.056-.016.113-.025s.147-.039.246-.063a1.89 1.89 0 0 1 .362-.053c.194 0 .352.076.465.226h.068c.027 0 .062 0 .1-.006l.103-.009.065.009c.06.016.111.039.136.084-.011-.005-.021-.005-.039-.005h-.037c-.188 0-.312.106-.364.321-.018.074-.029.299-.029.667v.276a.35.35 0 0 0 .162.219.725.725 0 0 1 .397-.245c.188-.048.32-.101.388-.173a1.15 1.15 0 0 1 .282-.047c.144 0 .327.068.566.203.237.131.428.194.573.194a.974.974 0 0 0 .166-.017v.033c0 .111.065.244.199.389.143.164.211.279.211.345 0 .099-.059.198-.17.302.051.055.102.09.146.09h.009a.27.27 0 0 1-.026.084 1.302 1.302 0 0 1-.052.158.824.824 0 0 0-.062.241c0 .103.043.183.14.243-.14 0-.222-.03-.235-.082l.082-.079-.242-.164a.486.486 0 0 0 .172-.394c0-.01 0-.045-.002-.072a1.37 1.37 0 0 0-.01-.125c0-.042-.006-.079-.006-.119-.007-.04-.007-.083-.007-.102a.4.4 0 0 1 .007-.092c0-.023.006-.054.006-.082l-.476-.406a.17.17 0 0 0-.047.119l.084.406a.208.208 0 0 1-.037.127.477.477 0 0 1 .084.26c0 .016-.022.147-.071.414a.144.144 0 0 0-.013.062v.065c0 .103.024.195.078.264a.439.439 0 0 0-.095.285.41.41 0 0 0 .095.287c.022.06.063.087.123.087h.196c.058-.025.084-.078.084-.151a.99.99 0 0 0-.006-.179l-.16-.159a.197.197 0 0 1 .094-.02c.049 0 .089.029.126.104.055.1.088.15.098.157 0 .028 0 .044-.005.084-.005.026-.01.06-.014.093 0 .04-.004.071-.008.102-.008.022-.008.057-.008.071 0 .152.096.229.271.229h.471c-.096.144-.303.238-.61.297zm-2.465-.863a.225.225 0 0 0-.076-.166.26.26 0 0 0-.166-.084l.154-.17c.002-.019.004-.035.012-.041v-.041a.37.37 0 0 0-.166-.325c.053-.053.097-.078.133-.078h.021v-.41l-.154.08c-.004.033-.011.063-.021.109a.685.685 0 0 1-.06.155.647.647 0 0 0-.082.265c0 .081.025.146.086.204-.061.062-.086.12-.086.17 0 .021.006.05.021.082.011.037.021.06.037.103.01.027.024.062.032.102a.22.22 0 0 1 .021.091.199.199 0 0 1-.025.108h.231c.06-.044.088-.098.088-.154zm-.012-3.457h.163v.077l-.163-.077zm.164.524c0 .031-.027.078-.081.133l-.082-.081c.058-.052.103-.082.136-.082h.027v.03zm.792 2.924a.591.591 0 0 0 .09-.323c0-.026-.004-.067-.006-.108a1.291 1.291 0 0 1-.026-.133c-.009-.043-.017-.09-.027-.129a.601.601 0 0 1-.008-.1c0-.112.045-.223.137-.346a.54.54 0 0 0-.3-.445.404.404 0 0 0-.172-.058c-.021.031-.041.054-.051.07-.016.018-.023.033-.023.04 0 .038.023.088.074.144l-.322.162.084.088c-.133.068-.204.178-.204.302 0 .026.004.054.01.089.006.037.017.074.022.115a.54.54 0 0 0 .015.109.46.46 0 0 1 .008.096c0 .101-.026.19-.089.263.093.049.141.101.141.159 0 .02-.009.063-.031.137a.537.537 0 0 0-.035.169v.03h.033c.033 0 .078.029.133.08.019-.141.068-.219.148-.219.032 0 .096.029.188.078a.504.504 0 0 0 .21.064c.073 0 .129-.051.164-.173l-.163-.161zm-.479-.818h.164v.082l-.164-.082zm.216-.892a.289.289 0 0 1-.053.065l.234-.162h-.156c-.004.038-.013.063-.025.097zm.127 1.217h-.022l.078-.161.08.082c-.044.056-.093.079-.136.079zM34.206 38.6l.08.088c-.105.178-.24.332-.404.472a1.13 1.13 0 0 1-.576.29 1.196 1.196 0 0 0-.121-.006c-.045-.01-.098-.01-.148-.01-.033 0-.089 0-.146.01a4.47 4.47 0 0 0-.217.006c-.086.007-.154.007-.219.014h-.158c-.381 0-.672-.061-.873-.18a5.404 5.404 0 0 1-.583-.84c-.168-.312-.251-.608-.251-.894 0-.176.037-.366.102-.55.244-.658.599-1.085 1.064-1.279.14-.037.275-.057.423-.057.307 0 .639.1.997.29.158.085.318.167.476.258l.472.274c.014.095.09.225.229.39.136.158.208.295.208.405a.63.63 0 0 1-.103.306c-.117 0-.196-.069-.233-.211a4.976 4.976 0 0 0-.077-.397c-.023-.135-.081-.203-.169-.203-.045 0-.101.018-.181.041l.097.232a.459.459 0 0 0 .147.204c-.053.06-.086.11-.086.147v.018l.012.084c.003.029.003.057.003.089 0 .354-.087.665-.255.925l-.324.434.094.102c.036.047.069.071.107.071.021 0 .035 0 .044-.002a.608.608 0 0 1 .258-.313.846.846 0 0 0 .313-.291.322.322 0 0 1-.008-.083c0-.056.01-.125.025-.191a.78.78 0 0 1 .141-.319.2.2 0 0 0 .033.039c.018.017.045.038.076.065.04.039.061.078.061.117a.092.092 0 0 1-.008.037l-.072.084c.049.061.072.112.072.146v.021l-.322.167zm-1.226-1.347l.166-.173v-.051c0-.116-.075-.235-.219-.336a3.459 3.459 0 0 0-.445-.207.173.173 0 0 1 .031.095c0 .067-.062.119-.173.146-.112.026-.172.061-.182.09l.078.1a.45.45 0 0 0-.088.105c-.039.045-.072.063-.109.063a.687.687 0 0 1-.047-.006l.006.049a.576.576 0 0 1-.054.242c-.04.075-.075.147-.114.217l-.319-.334c.073-.063.151-.208.233-.44a.422.422 0 0 1 .135-.213.31.31 0 0 1-.08.03c-.034.017-.061.026-.1.052a.782.782 0 0 0-.357.318.255.255 0 0 0-.023.105l.134.438a.334.334 0 0 1-.031.127l.247-.084c.115.035.179.123.179.271 0 .033-.007.084-.017.146-.004.062-.015.103-.015.124s.011.042.015.055a.685.685 0 0 0 .182.268l.227.238c.022.012.043.012.064.012h.064a.601.601 0 0 0 .487-.23c.063-.081.136-.236.216-.482.079-.23.153-.395.233-.482l-.324-.253zm-1.559.668h-.078l.169.088-.091-.088zM38.036 38.316c-.089.074-.129.162-.129.234 0 .014 0 .04.004.064l.086.082c.047-.053.098-.082.133-.082h.024c.005.016.005.051.005.087 0 .13-.117.25-.349.354-.263.121-.413.252-.458.377a.28.28 0 0 1-.214.086h-.054c-.016 0-.037-.008-.056-.012l-.319-.08a.339.339 0 0 0-.227.092 1.827 1.827 0 0 1-.436-.365c-.148-.166-.221-.336-.221-.487 0-.046.006-.093.022-.136.003-.02.003-.045.003-.084a.395.395 0 0 0-.166-.33 1.37 1.37 0 0 0 .174-.658c0-.146-.033-.313-.095-.49.051-.02.084-.1.084-.246-.091-.111-.235-.175-.445-.175-.036 0-.065.005-.104.005-.035 0-.078.004-.133.006a.716.716 0 0 1-.133.014c-.037.005-.063.005-.092.005-.18 0-.268-.073-.268-.218 0-.082.019-.184.061-.297.09-.111.239-.164.453-.164h.037l.072.002h.104c.21 0 .354-.053.445-.166a.528.528 0 0 1-.056-.262c0-.041.004-.092.008-.134l.023-.164.01-.069c.002-.024.002-.049.002-.067a.51.51 0 0 0-.15-.375c.12-.132.253-.202.396-.202.149 0 .28.07.399.202a.396.396 0 0 0-.083.258c0 .021.003.032.007.06 0 .02.007.039.009.059.051.232.074.357.074.365a.372.372 0 0 1-.09.258.517.517 0 0 0 .188.173.504.504 0 0 0 .293.075l.509-.047a.559.559 0 0 1 .372.117c.102.068.147.22.147.416a.576.576 0 0 1-.149.131.42.42 0 0 1-.258.072l-.543-.058c-.021-.004-.045-.015-.078-.015-.115 0-.193.029-.25.093a.252.252 0 0 0-.084.196c0 .029 0 .049.004.07.002.029.006.053.009.082-.052.042-.075.09-.075.139 0 .045.023.104.075.184.048.08.079.128.079.169.041-.009.072-.009.087-.009.118 0 .228.104.31.308.09.214.161.313.209.313.062 0 .153-.096.27-.281a.306.306 0 0 1 .154-.036c.084 0 .181.052.282.164.118.112.21.187.284.199-.012.034-.082.103-.192.198zm-1.236-.69c-.049-.062-.08-.095-.104-.095s-.051.041-.092.127c-.029.085-.068.13-.121.132.045.044.088.073.123.116.047.045.09.064.129.064.016 0 .037-.01.063-.012v-.333h.002zm-.161.657c-.041.041-.062.08-.062.113 0 .021.012.035.025.066.009.029.027.049.047.079.021.026.033.052.051.078a.21.21 0 0 1 .02.077l.238-.082-.319-.331zm.477.164v.084l.08-.084h-.08zM41.712 38.316c-.084.074-.131.162-.131.234 0 .014.002.04.013.064l.081.082c.05-.053.099-.082.136-.082h.021c.006.016.01.051.01.087 0 .13-.115.25-.348.354-.267.121-.418.252-.459.377a.282.282 0 0 1-.212.086h-.057c-.017 0-.035-.008-.054-.012l-.323-.08a.353.353 0 0 0-.231.092 1.93 1.93 0 0 1-.429-.365c-.146-.166-.22-.336-.22-.487 0-.046.009-.093.021-.136.005-.02.005-.045.005-.084 0-.139-.06-.25-.168-.33.11-.208.17-.422.17-.658 0-.146-.027-.313-.089-.49.054-.02.082-.1.082-.246-.086-.111-.237-.175-.446-.175-.029 0-.06.005-.1.005-.031 0-.079.004-.132.006a.818.818 0 0 1-.133.014c-.038.005-.068.005-.089.005-.186 0-.276-.073-.276-.218 0-.082.022-.184.062-.297.092-.111.244-.164.461-.164h.031l.068.002h.107c.207 0 .359-.053.445-.166a.54.54 0 0 1-.055-.262c0-.041.002-.092.006-.134a.985.985 0 0 0 .027-.164.249.249 0 0 0 .012-.069c.002-.024.002-.049.002-.067a.505.505 0 0 0-.154-.375c.123-.132.254-.202.396-.202.149 0 .276.07.394.202a.427.427 0 0 0-.072.258v.06a6.22 6.22 0 0 1 .088.424.361.361 0 0 1-.088.258.509.509 0 0 0 .183.173.506.506 0 0 0 .291.075l.515-.047c.098 0 .176.011.229.037.055.015.102.05.143.08.104.068.152.22.152.416a.612.612 0 0 1-.152.131.433.433 0 0 1-.258.072l-.547-.058c-.018-.004-.047-.015-.08-.015-.111 0-.189.029-.247.093a.276.276 0 0 0-.081.196v.07c.008.029.01.053.014.082-.056.042-.086.09-.086.139 0 .045.03.104.086.184.051.08.076.128.076.169.045-.009.071-.009.084-.009.124 0 .229.104.316.308.088.214.154.313.205.313.061 0 .15-.096.27-.281a.314.314 0 0 1 .148-.036c.088 0 .183.052.289.164.121.112.209.187.283.199-.022.034-.09.103-.205.198zm-1.232-.69c-.045-.062-.084-.095-.103-.095-.02 0-.053.041-.092.127-.027.085-.074.13-.131.132.051.044.098.073.137.116.045.045.086.064.123.064.021 0 .039-.01.064-.012l.002-.332zm-.162.657c-.043.041-.059.08-.059.113 0 .021.008.035.018.066l.052.079c.02.026.037.052.053.078a.166.166 0 0 1 .016.077l.24-.082-.32-.331zm.48.164v.084l.076-.084h-.076zM44.046 39.488l-.248-.002c-.103 0-.221-.006-.354-.008-.134-.011-.252-.011-.356-.016-.104-.002-.188-.002-.262-.002-.08 0-.17 0-.246.002-.076.005-.16.005-.226.016-.118-.07-.185-.109-.192-.123a.33.33 0 0 1-.106-.197.17.17 0 0 1-.021-.084c0-.165.082-.266.241-.313a.58.58 0 0 0 .317.086c.098 0 .232-.023.406-.072.182-.049.313-.078.416-.09-.011-.031-.011-.069-.017-.117v-.137-.154c.006-.061.006-.135.017-.233 0-.088.006-.174.008-.243v-.175c0-.392-.055-.713-.164-.979a1.474 1.474 0 0 1-.396.063.668.668 0 0 1-.587-.296v-.054c0-.105.042-.185.118-.215a.207.207 0 0 1 .105-.033c.047-.002.108-.008.182-.01a.53.53 0 0 0 .281-.078l.084-.01c.104 0 .217.018.345.043.123.03.261.074.407.135.367.145.639.222.82.222-.037.073-.09.108-.162.108a.589.589 0 0 1-.105-.014.71.71 0 0 0-.113-.015c-.092 0-.168.05-.223.151v1.967a.45.45 0 0 0 .394.197c.034 0 .075 0 .124-.011l.182-.019c.139-.027.241-.041.314-.041.084 0 .146.009.201.021l.228.482c-.389.168-.859.248-1.412.248zm.127-4.6v.085c0 .025 0 .062.003.102v.154c0 .028 0 .047-.003.07a.752.752 0 0 1-.074.253c-.307.108-.529.148-.661.148h-.021c-.205-.203-.309-.405-.309-.587 0-.148.078-.297.232-.428.027-.007.051-.007.08-.007h.074c.256 0 .484.054.678.164v.046zm.967.255a.174.174 0 0 1-.061.092c-.135 0-.207-.021-.225-.071L45 35c.051.056.105.08.152.08.003.016-.003.037-.012.063zm.05 2.989c-.035 0-.072.021-.099.065-.03.033-.049.061-.063.072a.433.433 0 0 0-.026.027l.153.157c-.049.053-.098.077-.141.077H45v-.033a.993.993 0 0 0-.041-.248 1.406 1.406 0 0 1-.044-.3c0-.026 0-.046.002-.068.001-.021.005-.034.005-.062h.23v.182c0 .063.021.109.076.141-.004-.01-.019-.01-.038-.01zm-.266-.773c0-.017-.004-.025-.004-.039 0-.035.013-.06.038-.086a.149.149 0 0 1 .093-.033c.052 0 .085.023.104.074v.164c-.134 0-.209-.039-.231-.08zm.252-.483l-.097.085c-.098-.045-.148-.139-.148-.257 0-.06.022-.101.071-.138.013 0 .022-.008.041-.008.03 0 .065.021.097.063.016.012.023.026.033.032.003.017.012.024.023.031a.253.253 0 0 1 .033.049c.004.014.008.021.008.031 0 .039-.022.075-.061.112zM48.739 38.527c0 .147-.064.281-.213.412-.213.188-.338.32-.371.377a1.292 1.292 0 0 1-.715.218 2.11 2.11 0 0 1-.715-.146c-.117-.04-.236-.071-.354-.126-.109-.042-.229-.08-.35-.128-.297-.315-.44-.729-.44-1.245 0-.408.09-.867.276-1.377.082-.082.162-.171.242-.238.082-.092.16-.17.238-.25.213-.199.418-.291.607-.291.025 0 .047.008.076.008.018.004.045.004.063.007.027-.003.061-.003.087-.007.029 0 .054-.008.091-.008.526 0 1.016.342 1.457 1.033.07.25.104.424.104.523a.762.762 0 0 1-.183.492c-.082.022-.178.052-.276.064a2.55 2.55 0 0 1-.335.016h-.614a.62.62 0 0 1-.349.098c-.026 0-.051-.004-.086-.004-.039-.005-.076-.005-.114-.012-.038-.004-.076-.014-.109-.014-.032 0-.059-.007-.077-.007-.22 0-.359.124-.412.364.045.042.092.088.137.128.043.038.084.062.131.062.018 0 .039-.011.064-.015-.055.051-.08.103-.08.147v.021c.041.044.082.082.127.122.045.041.09.064.137.064.018 0 .041-.01.064-.023a.198.198 0 0 1 .096-.02c.045 0 .104.014.205.054a.812.812 0 0 0 .205.048c.098 0 .168-.053.227-.158a.404.404 0 0 0 .139.021c.119 0 .246-.08.385-.241.145-.155.258-.239.35-.239.074 0 .166.038.27.122a.905.905 0 0 1 .015.148zm-.647-1.443a.363.363 0 0 0-.096-.223l-.166-.178c-.224-.117-.431-.182-.634-.182-.129 0-.303.034-.521.096v.254c-.018.062-.102.086-.243.086v.252c.021-.035.047-.043.084-.043.01 0 .026.002.051.008a.335.335 0 0 1 .078.035c.023.019.053.024.069.035a.16.16 0 0 0 .052.014.081.081 0 0 0 .075-.049h.025c.038 0 .087.026.142.082.088-.056.199-.07.338-.07h.094c.035 0 .063.007.098.011.094.005.188.017.271.017a.842.842 0 0 0 .26-.037.333.333 0 0 0 .023-.108zM51.947 38.886a.688.688 0 0 1-.359.433c-.172 0-.264.002-.275.002a.27.27 0 0 0-.217.16l-.983-.088v-.009c0-.116-.055-.166-.172-.166h-.072c-.088 0-.145-.024-.17-.083-.053.059-.105.165-.166.346a.454.454 0 0 1-.18.045c-.092 0-.164-.076-.205-.226-.049-.181-.107-.292-.189-.334a.385.385 0 0 0 .173-.334c0-.037 0-.065-.005-.082a.3.3 0 0 1-.178-.29c0-.109.031-.22.093-.314a.35.35 0 0 1 .248-.084c.104 0 .187.029.243.084a.662.662 0 0 0 .254.42c.027.021.072.06.137.1.068.035.153.092.258.152.172.098.285.188.343.27a.78.78 0 0 0 .23.038c.148 0 .303-.067.491-.205.135-.11.233-.198.312-.251.071-.051.106-.086.116-.091-.187-.26-.479-.433-.868-.521l-1.014-.166c-.382-.084-.655-.25-.833-.519a.571.571 0 0 0 .1-.338.869.869 0 0 0-.1-.422c.311-.459.732-.685 1.283-.685.242 0 .473.059.69.17a.502.502 0 0 0 .146-.033c.047-.004.096-.014.137-.02a1.288 1.288 0 0 1 .293-.037c.129 0 .234.03.33.09.111.267.17.588.17.971v.107c0 .033-.004.076-.008.115a.38.38 0 0 1-.342.18l-.07-.009a1.692 1.692 0 0 0-.094-.219 2.775 2.775 0 0 0-.182-.233l-.381-.397h-.025a.325.325 0 0 1-.092-.013c-.039-.006-.078-.023-.119-.032a.641.641 0 0 0-.229-.056c-.016 0-.039 0-.053.002-.018 0-.037.008-.057.013l-.162.167-.166-.167c-.098.009-.18.082-.252.198-.086.192-.144.291-.154.313.186.215.451.362.798.423l.926.086c.037.096.111.146.215.163.015.007.107.013.277.013.041.151.086.312.121.463.049.195.121.33.211.392-.055.065-.129.238-.223.508zm-1.015-.509h.084l.08.078-.164-.078z"/></g><g fill="#FFF"><path d="M59.059 39.605a.958.958 0 0 1-.391-.086c-.105-.095-.16-.238-.16-.42 0-.139.023-.244.076-.345.063-.037.094-.08.094-.124 0-.037-.045-.093-.133-.168-.078-.072-.115-.133-.115-.189v-.017h.002c0-.002-.055-.007-.18-.007-.074 0-.119.021-.148.087l.162.34c-.082-.126-.186-.185-.313-.185-.029 0-.064 0-.09.015l-.092.084c.11.033.158.122.158.237V38.911l-.019.122c-.003.037-.01.062-.01.087 0 .077.017.124.035.142-.074.18-.252.262-.508.262h-.068c-.032 0-.049 0-.069-.004a.85.85 0 0 1-.129-.192.86.86 0 0 1-.041-.251l.065-.063-.045-.346c-.002-.035-.006-.056-.006-.082 0-.033 0-.058-.01-.077h-.082v-.25h.016c.041 0 .099-.033.146-.087-.004-.021-.008-.048-.018-.084l-.047-.136a.676.676 0 0 1-.054-.203c0-.09.07-.184.201-.255l-.246-.255c.117 0 .174-.076.174-.229a.693.693 0 0 0-.012-.128l-.004-.104c0-.021 0-.032.004-.041a.256.256 0 0 0-.111-.025c-.157 0-.286.128-.375.369a.394.394 0 0 1 .138.313.508.508 0 0 1-.105.317.548.548 0 0 1-.275.208h-.021c-.041 0-.084.025-.14.085.033.11.125.222.271.335a.525.525 0 0 1 .215.34.521.521 0 0 1-.174-.093c-.076-.058-.139-.086-.174-.086-.051 0-.094.032-.139.093l.244.758c-.031.114-.117.176-.273.176h-.039c-.018 0-.037 0-.063-.006h-.091c-.129 0-.213.029-.266.088l-.274-.182c-.107-.07-.158-.163-.158-.259 0-.048.01-.104.022-.154.235-.017.356-.106.356-.284 0-.021 0-.051-.006-.082-.006-.039-.012-.086-.021-.134a1.12 1.12 0 0 1-.022-.247c0-.07.004-.134.022-.184a3.278 3.278 0 0 0 0-1.516l-.408-.167v-.006a.29.29 0 0 1 .052-.138.262.262 0 0 0 .047-.126.14.14 0 0 0-.017-.068.57.57 0 0 1 .42-.166c.037 0 .074.002.129.008.06.004.123.011.188.033.136.021.244.041.318.041a.583.583 0 0 0 .408-.17c.16.119.367.182.602.182.121 0 .3-.012.541-.053.238-.039.424-.054.535-.054.385 0 .662.163.842.517a.302.302 0 0 1 .101-.023c.076 0 .121.061.131.18.021.147.05.235.095.26v.02a.46.46 0 0 1-.035.126c-.021.05-.039.088-.039.11 0 .039.027.074.074.086-.056.025-.088.105-.088.25-.019-.049-.101-.082-.236-.082l-.166.168c.051.078.154.144.316.208.118.047.174.146.174.302a.236.236 0 0 0-.095.178c0 .021.005.045.013.079.018.05.035.093.047.13.008.043.02.094.035.139v.023c0 .088-.056.162-.17.204a.369.369 0 0 0 .202.257c.091.045.16.083.203.108a.76.76 0 0 1 .091.058c-.414.283-.742.424-.994.424zm-2.498-2.199h-.026c-.043 0-.074.033-.104.064a.25.25 0 0 0-.039.145l.006.047h.164v-.256zm1.457-.5h-.021c-.041 0-.078.027-.134.082h.154v-.082zm0 1.012h-.08v.164h.08v-.164zm.306-.816c0 .055.01.127.043.219a.816.816 0 0 1 .039.238.352.352 0 0 1-.141.28c.059.052.11.079.149.079h.015a.44.44 0 0 1 .077-.203.442.442 0 0 0 .076-.213c0-.063-.054-.126-.153-.177a.976.976 0 0 1 .11-.197.447.447 0 0 0 .063-.208.25.25 0 0 0-.021-.104c-.169.067-.257.157-.257.286zm1.08.901h-.082l.082.079v-.079zm0 .505l-.082-.079.082.249v-.17zM63.333 38.527c0 .147-.07.281-.213.412-.215.188-.338.32-.377.377a1.25 1.25 0 0 1-.708.218c-.209 0-.439-.048-.719-.146-.115-.04-.23-.071-.346-.126-.113-.042-.23-.08-.349-.128-.3-.315-.442-.729-.442-1.245 0-.408.086-.867.274-1.377.078-.082.162-.171.231-.238.082-.092.17-.17.244-.25.217-.199.42-.291.615-.291.02 0 .049.008.063.008.027.004.052.004.068.007.033-.003.063-.003.088-.007.033 0 .057-.008.084-.008.533 0 1.028.342 1.466 1.033.07.25.104.424.104.523 0 .178-.06.345-.185.492-.075.022-.168.052-.278.064a2.47 2.47 0 0 1-.332.016h-.616a.592.592 0 0 1-.348.098c-.022 0-.054-.004-.087-.004-.034-.005-.073-.005-.108-.012-.036-.004-.077-.014-.106-.014-.041 0-.063-.007-.08-.007-.221 0-.363.124-.412.364.039.042.084.088.131.128.047.038.09.062.135.062.018 0 .037-.011.057-.015-.047.051-.076.103-.076.147v.021c.039.044.086.082.125.122.048.041.095.064.14.064.019 0 .045-.01.063-.023.029-.014.062-.02.101-.02s.108.014.201.054a.807.807 0 0 0 .206.048c.101 0 .173-.053.228-.158a.425.425 0 0 0 .142.021c.109 0 .239-.08.384-.241.145-.155.258-.239.35-.239.078 0 .168.038.268.122a.659.659 0 0 1 .014.148zm-.654-1.443a.38.38 0 0 0-.088-.223l-.172-.178a1.34 1.34 0 0 0-.628-.182c-.131 0-.305.034-.518.096v.254c-.023.062-.105.086-.244.086v.252c.018-.035.045-.043.078-.043.014 0 .031.002.059.008.018.008.047.019.07.035.022.018.051.024.08.035.014.01.035.014.049.014a.067.067 0 0 0 .066-.049h.032c.035 0 .082.026.138.082a.63.63 0 0 1 .336-.07h.098c.029 0 .064.007.094.011.102.005.189.017.273.017a.822.822 0 0 0 .259-.037.375.375 0 0 0 .018-.108zM66.708 38.527c0 .147-.076.281-.223.412-.211.188-.336.32-.371.377a1.293 1.293 0 0 1-.709.218 2.13 2.13 0 0 1-.717-.146c-.115-.04-.23-.071-.351-.126-.114-.042-.233-.08-.349-.128-.303-.315-.448-.729-.448-1.245 0-.408.092-.867.28-1.377.087-.082.16-.171.242-.238.082-.092.158-.17.238-.25.213-.199.416-.291.611-.291.018 0 .043.008.064.008.026.004.049.004.065.007.035-.003.06-.003.095-.007.021 0 .057-.008.079-.008.537 0 1.027.342 1.466 1.033.065.25.104.424.104.523a.764.764 0 0 1-.184.492c-.078.022-.172.052-.273.064a2.663 2.663 0 0 1-.336.016h-.621a.594.594 0 0 1-.346.098c-.021 0-.049-.004-.088-.004-.031-.005-.07-.005-.105-.012-.035-.004-.076-.014-.111-.014s-.063-.007-.076-.007c-.225 0-.36.124-.416.364l.133.128c.05.038.095.062.136.062.019 0 .039-.011.062-.015-.05.051-.078.103-.078.147v.021l.127.122c.049.041.094.064.137.064.018 0 .039-.01.063-.023a.24.24 0 0 1 .103-.02c.041 0 .106.014.194.054a.807.807 0 0 0 .213.048c.093 0 .168-.053.228-.158a.423.423 0 0 0 .146.021c.106 0 .24-.08.381-.241.146-.155.262-.239.35-.239.076 0 .16.038.266.122.009.053.019.103.019.148zm-.66-1.443a.38.38 0 0 0-.088-.223l-.174-.178a1.311 1.311 0 0 0-.633-.182c-.125 0-.297.034-.514.096v.254c-.019.062-.103.086-.244.086v.252c.022-.035.045-.043.08-.043a.29.29 0 0 1 .059.008.746.746 0 0 1 .074.035c.026.019.049.024.069.035.023.01.041.014.056.014.029 0 .051-.014.069-.049h.031c.035 0 .08.026.131.082.095-.056.199-.07.343-.07h.098c.027 0 .063.007.098.011.098.005.186.017.27.017a.793.793 0 0 0 .258-.037.408.408 0 0 0 .017-.108zM70.272 38.316c-.094.074-.138.162-.138.234 0 .014.005.04.015.064l.078.082c.053-.053.094-.082.133-.082h.027c0 .016.008.051.008.087 0 .13-.119.25-.351.354-.271.121-.416.252-.459.377a.278.278 0 0 1-.215.086h-.054c-.018 0-.034-.008-.053-.012l-.328-.08c-.08 0-.147.033-.221.092a1.875 1.875 0 0 1-.434-.365c-.145-.166-.227-.336-.227-.487 0-.046.01-.093.026-.136v-.084a.386.386 0 0 0-.164-.33 1.33 1.33 0 0 0 .177-.658c0-.146-.039-.313-.093-.49.049-.02.08-.1.08-.246-.09-.111-.233-.175-.451-.175-.022 0-.06.005-.094.005-.041 0-.084.004-.134.006a.769.769 0 0 1-.133.014c-.035.005-.074.005-.088.005-.182 0-.279-.073-.279-.218 0-.082.021-.184.066-.297.088-.111.238-.164.455-.164h.035l.068.002h.102c.217 0 .361-.053.451-.166a.542.542 0 0 1-.053-.262c0-.041 0-.092.012-.134a3.27 3.27 0 0 0 .014-.164c.01-.021.01-.044.01-.069.013-.024.013-.049.013-.067a.512.512 0 0 0-.158-.375c.123-.132.258-.202.397-.202.146 0 .275.07.398.202a.41.41 0 0 0-.076.258v.06c.006.02.01.039.01.059.054.232.076.357.076.365a.389.389 0 0 1-.086.258.556.556 0 0 0 .178.173.52.52 0 0 0 .293.075l.515-.047a.56.56 0 0 1 .228.037c.053.015.102.05.145.08.102.068.152.22.152.416a.638.638 0 0 1-.156.131.41.41 0 0 1-.256.072l-.549-.058c-.017-.004-.041-.015-.076-.015-.111 0-.191.029-.244.093a.252.252 0 0 0-.084.196c0 .029 0 .049.006.07 0 .029.004.053.008.082-.053.042-.08.09-.08.139 0 .045.027.104.08.184.049.08.076.128.076.169.043-.009.064-.009.088-.009.119 0 .227.104.309.308.09.214.16.313.209.313.063 0 .15-.096.271-.281a.288.288 0 0 1 .145-.036c.094 0 .183.052.289.164.119.112.211.187.283.199-.02.034-.086.103-.192.198zm-1.236-.69c-.047-.062-.084-.095-.102-.095-.025 0-.058.041-.095.127-.028.085-.073.13-.123.132.046.044.089.073.13.116.045.045.088.064.129.064.014 0 .03-.01.061-.012v-.332zm-.162.657c-.041.041-.059.08-.059.113 0 .021.004.035.018.066.014.029.035.049.049.079a.513.513 0 0 1 .053.078c.01.028.019.055.019.077l.235-.082-.315-.331zm.477.164v.084l.08-.084h-.08z"/></g></svg>