<?xml version="1.0" encoding="utf-8"?>
<!-- Generator: Adobe Illustrator 26.2.1, SVG Export Plug-In . SVG Version: 6.00 Build 0)  -->
<svg version="1.1" id="a" xmlns="http://www.w3.org/2000/svg" xmlns:xlink="http://www.w3.org/1999/xlink" x="0px" y="0px"
	 viewBox="0 0 80 80" style="enable-background:new 0 0 80 80;" xml:space="preserve">
<path d="M54,43.9c-0.2-0.1-0.2-0.8-0.2-0.8c-0.4-3.2-1.2-6.5-2.4-9.6c-0.1-0.2-0.1-0.3-0.1-0.4c0-0.2,0.1-0.3,0.5-0.5
	c1.6-0.8,2.9-1.7,4-2.7c0.2-0.2,0.3-0.2,0.3-0.2l0,0c0,0,0.2,0.1,0.3,0.3c1.5,2.6,2.6,5.4,3.3,8.4c0.1,0.3,0.1,0.6,0.1,0.8
	c0,0.4-0.1,0.7-0.5,1.1c-1,1-2.7,2.4-4.6,3.5C54.7,43.7,54.2,44,54,43.9 M52.5,47.5c0,0,0-0.6-0.2-0.7c-0.2-0.1-0.6,0.1-0.6,0.1
	c-3.2,1.1-6.7,1.7-10.3,1.8c-0.7,0-0.7,0.2-0.7,0.8c0,3.2-0.1,6.3-0.2,9c0,0,0,0.3,0.1,0.4c0.1,0.1,0.4,0.1,0.4,0.1
	c3.6-0.2,7.1-1,10.2-2.3c0.5-0.2,0.5-0.5,0.7-1C52.7,52.2,52.5,47.5,52.5,47.5 M51.1,31c1.4-0.8,2.8-1.7,3.6-2.5
	c0.2-0.2,0.3-0.3,0.3-0.5s-0.1-0.4-0.3-0.7c-1.9-2.7-4.2-4.8-6.7-6.4c-0.7,0.5-1.8,0.9-3,1.2c2.1,2.5,3.9,5.4,5.3,8.5
	c0.2,0.3,0.3,0.5,0.4,0.5C50.7,31.2,50.9,31.1,51.1,31 M48.6,32.1c0.2-0.1,0.3-0.1,0.4-0.3c0.1-0.2-0.1-0.5-0.1-0.5
	c-1.4-3.4-3.1-6.6-4.9-9c-1,0.2-2.9,0.3-3.6,0.3c0.1,3.5,0.2,6.9,0.2,10.3c0,0.3,0,0.5,0.1,0.5c0.1,0.1,0.2,0.1,0.4,0.1
	C43.4,33.5,46.7,32.8,48.6,32.1 M51,58.2L51,58.2c-0.1-0.1-0.3,0-0.5,0c-4,1.3-7.4,1.6-9.7,1.6c-0.3,0-0.4,0.1-0.4,0.5l-0.2,2.9
	c0,0,4.5,0.1,9.1-1.8c0.6-0.8,1.2-1.8,1.6-2.9C51,58.5,51,58.4,51,58.2 M60.3,41.9C60.3,41.8,60.2,41.9,60.3,41.9
	c-1.1,1.1-3.1,2.5-5.4,3.7c-0.7,0.4-0.8,0.7-0.8,1.3c0,3.7-0.4,6.5-1.2,8.9c0,0-0.1,0.2,0.1,0.1c0.2-0.1,3.5-1.7,5.8-4
	c0.8-0.8,1.4-1.9,1.5-3.1C60.8,44.7,60.3,41.9,60.3,41.9 M61.4,37.2c1.5-2.6,1.5-4.8,1.5-4.8c0-0.1,0-0.3,0-0.3
	c-0.7-3-2.3-5.9-4.7-8.5c0,0.3,0.1,0.5,0.1,0.8c0,0.9-0.2,1.9-0.6,2.8c-0.2,0.4-0.2,0.6-0.2,0.8c0,0.2,0.1,0.3,0.2,0.5
	C57.7,28.5,60.1,31.8,61.4,37.2 M26.8,44.7c0.2-3.7,1.2-7.6,2.7-11.3c0-0.1,0-0.1,0-0.2c0-0.1-0.1-0.2-0.3-0.3c-2.3-1-4.1-2.4-5.3-4
	c0,0-0.1-0.1,0-0.2c0.1-0.1,0.1,0,0.1,0c1.3,1.3,3.3,2.4,5.5,3.2c0.1,0,0.2,0,0.2,0c0.1,0,0.2-0.1,0.3-0.4c1.5-3.5,3.5-6.8,5.7-9.5
	c-1.9-0.5-3.8-1.5-4.3-2.6c0,0-0.1-0.1,0-0.2c0.1,0,0.2,0.1,0.2,0.1c2.1,2.3,8.2,2.1,8.2,2.1c2.5,0,7.8-0.9,7.8-3
	c0-1.9-2.8-2.9-7.9-3c-15.4,0-23.6,13.3-23.6,23.9c0,12.8,10.9,23.9,23.4,23.9c0-0.2-0.2-3-0.2-3c0-0.3-0.1-0.4-0.5-0.5
	c0,0-5.5-0.4-7.3-1.3c-0.1,0,0-0.1,0.1-0.1c0,0,3.7,0.6,7.2,0.6c0,0,0.4,0,0.4-0.4c0-0.4-0.2-9.1-0.2-9.1c0-0.7-0.1-0.8-0.8-0.8
	c-3.8-0.2-7.5-1-10.7-2.3c-0.1,0-0.1,0-0.2,0c-0.1,0-0.1,0.2-0.1,0.2c-0.3,4,0.2,7.9,0.2,7.9c0,0.1,0,0.1-0.1,0.1
	c-0.1,0-0.1-0.1-0.1-0.1c-0.6-2.1-0.9-4.5-0.9-7c0-0.2,0-1.2,0-1.2c0-0.3-0.1-0.4-0.4-0.6c-1.5-0.8-2.9-1.7-4.1-2.7
	c0,0-0.1-0.1,0-0.2c0.1,0,0.1,0,0.1,0c1.3,0.8,2.7,1.5,4.2,2.1h0.2C26.8,45,26.8,44.9,26.8,44.7 M56.3,25.9c0.4-1.1,0.5-2.5,0-3.6
	c-0.4-1-1.8-2-1.8-2c-2-1.6-4.3-2.6-5.4-3c0.2,0.3,0.3,0.7,0.3,1c0,0.6-0.3,1.2-0.8,1.9c2.7,1.6,4.9,3.4,6.9,5.7
	c0,0,0.3,0.4,0.5,0.4C56.2,26.2,56.3,25.9,56.3,25.9 M62.1,43.5c0,1.6-0.2,3.2-0.5,4.8c1.3-2.3,2.4-5.6,2.4-9.5
	c0-1.1-0.1-2.2-0.3-3.3c-0.2,1.1-0.6,2.3-1.3,3.3c-0.4,0.7-0.6,1.2-0.5,1.7C62.1,42.1,62.1,43.5,62.1,43.5 M51.8,58.5
	c-0.4,0.9-0.9,1.7-1.5,2.5c2.8-1.4,6.1-4.2,8.3-7c-1.7,1.4-3.6,2.5-5.8,3.5C52.3,57.6,52,58.1,51.8,58.5 M39.3,35.7
	c0-0.5-0.3-0.8-0.7-0.8c-2.8-0.1-5.5-0.6-7.9-1.5c-0.1,0-0.2-0.1-0.3-0.1c-0.1,0-0.1,0-0.2,0.2c-2.2,5.5-2.7,11.5-2.7,11.5
	c0,0.3,0,0.3,0.2,0.4c0,0,4.7,1.8,10.7,1.8c0,0,0.4,0,0.5-0.1c0.2-0.2,0.2-0.3,0.2-0.8C39.2,43.5,39.3,35.7,39.3,35.7 M30.9,31.9
	c-0.1,0.3-0.1,0.4-0.1,0.4c0,0.1,0.1,0.1,0.1,0.1c1.8,0.6,5.2,1.2,7.7,1.2c0.3,0,0.4,0,0.5-0.1s0.2-0.3,0.2-0.6
	c0.1-3.3,0.2-6.8,0.4-10.2c-1,0-2.3-0.2-3.2-0.4C34.3,25.1,32.4,28.3,30.9,31.9 M41.2,47.2c1.7-0.1,5.9-0.4,10.3-2.1
	c0.6-0.2,0.7-0.5,0.7-0.9c0-0.1,0-0.2,0-0.4c-0.4-3.3-1.2-6.6-2.3-9.9c-0.2-0.4-0.2-0.5-0.4-0.5c-0.1,0-0.2,0-0.4,0.1
	c-2.4,0.8-5,1.2-7.8,1.3c-0.5,0-0.7,0.4-0.7,0.8c0,1.7,0,4.4,0,8c0,0.9,0,2.1,0,3c0,0,0,0.3,0.1,0.4C40.8,47.2,40.9,47.3,41.2,47.2
	 M4.7,55.7c1.8,4.8,6.3,5.2,9.4,8.2c0.6,0.6,1.1,1.1,1.8,1.4l0,0c-0.7-0.7-1.5-1.6-2-2.6c-1.8-2.9-1.1-7-2.5-10.2
	c1.2,1.7,2.3,3.5,3,5.4c1.1,3.2,1.5,6.8,4,9.2c-2.7-1.1-5.9-0.8-8.3-2.8C7.6,62.4,5.2,59.2,4.7,55.7 M30,69.6c0.4,0,0.7-0.1,0.7-0.1
	c-2.4-0.5-4.3-1-6.4-2.6c-2.7-2.2-4.7-4.5-7.6-6.3c0.4,0.2,2.1,3.7,3.5,5.7c1,1.4,2.6,2.3,3.9,2.6c1.2,0.3,1.4,0.4,1.4,0.4
	s-0.2,0.1-0.6,0c0,0-3.9-0.8-6-0.8c-8.4,0-10.6-3.2-10.6-3.2c2.5,4.5,7.6,6.2,11,6.2C24.1,71.4,27.7,69.6,30,69.6 M61,71.4
	c3.4,0,8.5-1.7,11-6.2c0,0-2.2,3.2-10.6,3.2c-2.1,0-6,0.8-6,0.8c-0.4,0.1-0.6,0-0.6,0s0.3-0.1,1.4-0.4c1.4-0.3,3-1.2,3.9-2.6
	c1.4-2.1,3.1-5.5,3.5-5.7c-2.9,1.8-5,4.1-7.6,6.3c-2,1.7-4,2.1-6.4,2.6c0,0,0.3,0.1,0.7,0.1C52.5,69.6,56.1,71.4,61,71.4 M8.6,57.9
	c0.8,0.7,2.5,2.3,2.8,2.7c0,0-0.2-0.6-0.4-1.4c-0.2-0.8-0.5-2.7-1.3-4.4c-0.6-1.3-3.2-5.6-3.7-7.9C6.1,46.9,4.3,54.3,8.6,57.9
	 M61.8,67.1c2.7-1.1,5.9-0.8,8.3-2.8c2.6-2,5-5.1,5.5-8.7c-1.8,4.8-6.3,5.2-9.4,8.2c-0.6,0.6-1.1,1.1-1.8,1.4l0,0
	c0.7-0.7,1.5-1.6,2-2.6c1.8-2.9,1.1-7,2.5-10.2c-1.2,1.7-2.3,3.5-3,5.4C64.7,61.2,64.3,64.7,61.8,67.1 M55.1,72.5
	c-4.2-1.7-8.6-3.9-13.6-2.8c-0.6,0.1-1,0.2-1.5,0.2s-1-0.1-1.5-0.2c-5.1-1-9.4,1.1-13.6,2.8c-3.1,1.1-7.2,1-10-0.8
	c1.4,1.6,3.2,2.6,5.1,3.3c3.5,1.3,7.7,0.4,10.6-1.5c2.5-1.3,4.6-3.9,7.9-2.9c-3.3,1.5-6.4,3.5-9.1,6.1l1.7,1.3c0,0,3.2-4.3,9-7
	c5.8,2.6,9,7,9,7l1.7-1.3c-2.8-2.6-5.8-4.6-9.1-6.1c3.3-1,5.4,1.6,7.9,2.9c2.9,1.9,7.1,2.8,10.6,1.5c1.9-0.7,3.7-1.7,5.1-3.3
	C62.3,73.4,58.2,73.6,55.1,72.5 M71.6,58c4.3-3.7,2.5-11,2.5-11c-0.5,2.3-3.1,6.6-3.7,7.9c-0.8,1.7-1.1,3.6-1.3,4.4
	c-0.2,0.8-0.4,1.4-0.4,1.4C69,60.2,70.8,58.7,71.6,58 M3.4,37.1c1.3,0.1,2.5,0.2,3.8,0.3c1,0.1,1.5-0.3,1.6-1.3c0-0.5,0-0.8-0.2-1.1
	c-0.2-0.4-0.6-0.6-1.3-0.6c-1.2-0.1-2.5-0.3-3.7-0.4c-0.1,0.3-0.3,0.5-0.4,0.8c-0.1,0-0.2,0-0.3,0c0.1-0.8,0.2-1.6,0.3-2.4
	c0.1,0,0.2,0,0.3,0c0.1,0.3,0.2,0.6,0.2,0.9c1.2,0.1,2.3,0.3,3.5,0.4c0.9,0.1,1.4,0.4,1.7,1c0.3,0.5,0.4,1.1,0.3,1.8
	c-0.1,1.5-0.9,2.3-2.2,2.2c-1.3-0.1-2.6-0.2-3.8-0.3c-0.1,0.3-0.3,0.5-0.4,0.8c-0.1,0-0.2,0-0.3,0c0.1-1,0.2-1.9,0.3-2.9
	c0.1,0,0.2,0,0.3,0C3.2,36.6,3.3,36.8,3.4,37.1 M5.4,29.6c1.4,0.5,2.8,0.9,4.1,1.3c0.2-0.2,0.4-0.4,0.5-0.6c0.1,0,0.2,0.1,0.3,0.1
	c-0.2,0.7-0.5,1.4-0.7,2.1c-0.1,0-0.2,0-0.3-0.1c0-0.3,0-0.6-0.1-0.9C7.7,31,6.1,30.5,4.4,30c-0.2,0.2-0.4,0.5-0.6,0.7
	c-0.1,0-0.2,0-0.3-0.1C3.8,30,4,29.3,4.2,28.7c1.7-0.6,3.4-1.2,5.1-1.8c-1.1-0.4-2.3-0.8-3.5-1.2c-0.2,0.2-0.4,0.4-0.6,0.6
	c-0.1,0-0.2-0.1-0.3-0.1c0.3-0.7,0.5-1.4,0.8-2.1c0.1,0,0.2,0.1,0.3,0.1c0,0.3,0,0.6,0,0.9c1.8,0.7,3.6,1.3,5.5,2
	c-0.1,0.2-0.1,0.3-0.2,0.5C9.4,28.2,7.4,28.9,5.4,29.6 M14.4,18.5l1.4,1c-0.3,0.9-0.6,1.4-0.9,1.9c-1.2,1.6-2.8,2-4.4,0.8
	c-1.6-1.1-2.2-2.8-0.8-4.8C10,17,10.4,16.5,11,16l0.1-0.1l1.3,0.9l-0.3,0.4l-1.3-0.3c-0.2,0.1-0.3,0.2-0.4,0.4
	c-1.2,1.5-0.8,2.9,0.7,4c1.3,0.9,2.7,0.7,3.6-0.5c0.2-0.2,0.2-0.4,0.2-0.4l-1.2-0.9l-0.7,0.5l-0.2-0.1l1.6-2.2l0.2,0.1L14.4,18.5
	L14.4,18.5z M17,17.8l-3.6-3.7l-0.8,0.3l-0.2-0.2l2-2l0.2,0.2l-0.3,0.8l3.7,3.7l1.1-1.1l-0.4-1.2l0.3-0.3l1,1.3c0,0-1.6,1.5-3.2,3.1
	l-0.2-0.2C16.6,18.6,17,17.8,17,17.8z M18.8,12.7C17.6,11,17.9,9.2,19.6,8c1.6-1,3.2-0.6,4.2,1c1,1.7,0.8,3.6-0.9,4.6
	C21.5,14.6,19.8,14.2,18.8,12.7 M19.7,11.8c1,1.4,2.2,1.9,3.1,1.3c0.8-0.5,0.9-1.9,0-3.3c-0.8-1.4-2-2-3-1.3
	C18.6,9.2,18.7,10.5,19.7,11.8 M26.7,10.8l-2-4.8h-0.9l-0.1-0.3l2.9-1.2c0.7-0.3,1.1-0.3,1.6-0.1c0.4,0.1,0.7,0.4,0.8,0.8
	c0.3,0.8-0.1,1.6-1.1,2.1c1.3-0.4,2.1-0.2,2.5,0.7c0.2,0.5,0.1,1-0.2,1.4c-0.3,0.4-0.7,0.7-1.5,1l-2.5,1.1l-0.1-0.3L26.7,10.8
	L26.7,10.8z M26.7,7.6l0.4-0.2c0.7-0.3,1-0.9,0.7-1.7c-0.3-0.7-0.8-1-1.6-0.7l-0.5,0.3L26.7,7.6L26.7,7.6z M27.9,10.4l0.3-0.2
	c0.5-0.2,0.7-0.3,0.9-0.7c0.2-0.3,0.2-0.7,0-1c-0.3-0.8-0.9-1-1.8-0.7L26.8,8L27.9,10.4L27.9,10.4z M32.8,6.7l-0.4,1.9l0.8,0.2
	l0,0.3l-2.1,0.5l0-0.3l0.6-0.4l1.4-6.3l0.5-0.1l3.3,5.4l0.8,0.2l0,0.3l-2.7,0.4l0-0.3L35.7,8l-0.9-1.7L32.8,6.7L32.8,6.7z M32.9,6.2
	l1.6-0.3l-1.1-2L32.9,6.2L32.9,6.2z M39.1,7.8l0-5.1l-0.8-0.3V2.1c1.5,0,2.8,0,2.8,0v0.3l-0.8,0.3l-0.1,5.3l1.5,0l0.6-1.1h0.4
	l-0.2,1.6c0,0-2.4-0.1-4.3,0V8.1L39.1,7.8z M49.7,9.4l0.8-1.1L51,8.4l-0.5,1.5h-0.2c-0.9,0-1.4-0.1-1.9-0.2
	c-1.9-0.5-2.7-1.9-2.2-3.8c0.4-2,1.8-2.9,4.2-2.4c0.6,0.1,1.1,0.4,1.8,0.8l-0.4,1.5l-0.4-0.1l-0.1-1.4c0,0-0.2-0.1-0.5-0.2
	c-2-0.5-3,0.5-3.4,2c-0.4,1.6,0.3,2.8,1.7,3.2C49.4,9.3,49.5,9.4,49.7,9.4 M61.6,14.5l4.3-2l1.4,1.4l-0.2,0.2l-0.8-0.3l-3.6,3.7
	l0.4,0.8L63,18.5c-0.9-1-1.9-1.9-1.9-1.9l0.2-0.2l0.8,0.3l2.9-3.1l-4.8,2.2L60,15.7l1.4-5.1l-2.6,3.3l0.4,0.8L59,14.8l-1.8-1.3
	l0.2-0.2l0.8,0.3l3.3-4l-0.4-0.8l0.2-0.2l1.7,1.2L61.6,14.5L61.6,14.5z M66.9,19.1l-1.6,1.2l0.2,0.8l-0.2,0.2
	c-0.8-1.1-1.7-2.2-1.7-2.2l0.2-0.2l0.7,0.4l4-3.2l-0.2-0.8l0.2-0.2l1.7,2.1c0.6,0.8,0.7,1.2,0.7,1.7c0,0.5-0.2,1-0.7,1.3
	c-0.9,0.7-2.1,0.3-3-0.8L66.9,19.1L66.9,19.1z M67.4,19.1c0.3,0.4,0.5,0.6,0.8,0.7c0.4,0.1,0.9,0,1.3-0.3c0.4-0.3,0.6-0.6,0.6-0.9
	c0-0.3,0-0.6-0.3-1l-0.4-0.5l-2.2,1.7L67.4,19.1L67.4,19.1z M69.5,23.5l-1.9,0.1l0,0.8l-0.3,0.1c-0.5-0.9-1.1-1.9-1.1-1.9l0.2-0.1
	l0.6,0.5l6.4-0.4l0.2,0.5l-4.3,4.6l0,0.8l-0.2,0.1c-0.5-1.3-1-2.5-1-2.5l0.2-0.1l0.6,0.5l1.3-1.4L69.5,23.5L69.5,23.5z M69.9,23.4
	l0.7,1.5l1.6-1.6L69.9,23.4z M70.9,32.7l1.4,0.1l0.1,0.4l-1.5,0.3l-0.1-0.1c-0.4-0.8-0.6-1.2-0.8-1.8c-0.5-1.9,0.3-3.2,2.2-3.9
	c2-0.7,3.6,0.4,4.1,2.4c0.2,0.6,0.2,1.3,0.2,2L75,32.7l-0.1-0.4l1.1-0.8c0-0.2,0-0.4-0.1-0.6c-0.5-1.8-1.8-2.4-3.4-1.9
	c-1.6,0.5-2.3,1.6-1.9,3.1C70.7,32.4,70.7,32.5,70.9,32.7L70.9,32.7L70.9,32.7z M76.8,37.2l-5.2,0.4l-0.3,1.1h-0.3
	c-0.1-1.7-0.3-3.3-0.3-3.3h0.3l0.4,1l5.2-0.4l-0.1-1.3l-1.3-0.4l0-0.4l1.8-0.1c0,0,0.4,2.8,0.4,5.6l-1.8,0.1l0-0.4l1.3-0.6
	C76.9,38.5,76.8,37.2,76.8,37.2z M52.7,7.7c0.9-1.9,2.6-2.6,4.5-1.6c1.7,0.9,2.1,2.5,1.2,4.1c-0.9,1.7-2.7,2.5-4.4,1.6
	C52.4,11,51.9,9.4,52.7,7.7 M54,8c-0.7,1.6-0.5,2.9,0.4,3.3c0.9,0.5,2.1-0.2,2.9-1.6C58,8.3,58,7,56.9,6.4C55.7,5.8,54.7,6.5,54,8"
	/>
</svg>
