<?xml version="1.0" encoding="utf-8"?>
<!-- Generator: Adobe Illustrator 26.2.1, SVG Export Plug-In . SVG Version: 6.00 Build 0)  -->
<svg version="1.1" id="a" xmlns="http://www.w3.org/2000/svg" xmlns:xlink="http://www.w3.org/1999/xlink" x="0px" y="0px"
	 viewBox="0 0 120 80" style="enable-background:new 0 0 120 80;" xml:space="preserve">
<path d="M1.5,24.4v-0.8h18c0,0.6,0,1.2,0,1.7c0,1.4,0,2.7,0.1,4.1c0,0.2,0,0.3-0.2,0.3c-0.3,0.1-0.5,0.1-0.8,0.2
	c-0.1-0.3-0.2-0.6-0.3-0.8c-0.3-0.7-0.6-1.3-1-1.9c-0.9-1.4-2.2-2.1-3.9-2.1c-1.2,0-2.3,0-3.5,0c0,0-0.1,0-0.1,0
	c-0.2,2.9-0.2,5.8-0.2,8.7c0.8,0,1.5,0,2.3,0c0.3,0,0.5,0,0.8-0.1c0.8-0.2,1.2-0.7,1.5-1.4c0.2-0.4,0.3-0.9,0.4-1.3
	c0-0.1,0.1-0.2,0.3-0.2c0.2,0,0.4,0,0.7,0v7.3c-0.3,0-0.5,0-0.8,0c-0.1,0-0.1-0.1-0.1-0.2c-0.2-0.5-0.3-0.9-0.5-1.4
	C13.8,35.5,13,35,12,35c-0.8,0-1.5,0-2.3,0c0,0,0,0.1,0,0.2c0.1,2,0.1,4.1,0.2,6.1c0,0.3,0.1,0.6,0.1,0.9c0.3,1.3,0.9,1.8,2.2,1.9
	c0.3,0,0.6,0.1,0.9,0.1V45H1.6v-0.8c0.2,0,0.4-0.1,0.6-0.1c1.4-0.1,2-0.7,2.2-2c0.2-1.2,0.2-2.3,0.3-3.5c0.1-1.9,0.1-3.7,0.1-5.6
	c0-1.9-0.1-3.9-0.2-5.8c0-0.4-0.1-0.7-0.2-1.1c-0.3-1-0.9-1.5-1.9-1.6C2.2,24.5,1.9,24.5,1.5,24.4L1.5,24.4z"/>
<path d="M79.4,39.8c0.2,0.4,0.3,0.8,0.5,1.2c0.4,0.9,0.9,1.8,1.8,2.4c1.1,0.8,2.3,1,3.6,0.4c1.3-0.6,1.8-2.8,0.2-3.8
	c-0.4-0.2-0.8-0.5-1.2-0.6c-0.9-0.4-1.8-0.7-2.6-1.1c-1-0.4-1.8-1-2.2-2c-0.9-1.7-0.6-4.2,1.6-5.8c1-0.7,2.1-1,3.3-1.1
	c1.7-0.1,3.4,0,5,0.6c0.4,0.2,0.4,0.2,0.5,0.6c0,1.1,0.1,2.1,0.1,3.2c0,0.1,0,0.2,0,0.3l-0.8,0.2c-0.2-0.4-0.3-0.8-0.5-1.2
	c-0.4-0.9-0.9-1.7-1.7-2.2c-0.7-0.5-1.6-0.6-2.4-0.4c-0.8,0.2-1.3,0.7-1.5,1.5c-0.2,0.8-0.1,1.5,0.5,2.1c0.6,0.6,1.3,0.9,2,1.2
	c0.9,0.4,1.8,0.8,2.7,1.2c0.9,0.5,1.7,1.1,2.1,2.1c0.6,1.8,0.3,4.6-2.2,6c-1.2,0.6-2.5,0.9-3.8,0.9c-1.8,0-3.6-0.3-5.4-0.8
	c-0.2-0.1-0.3-0.2-0.3-0.4c0-1.3-0.1-2.7-0.1-4c0-0.2,0-0.2,0.2-0.3C79,40,79.2,39.9,79.4,39.8L79.4,39.8z"/>
<path d="M44.8,33.9c-0.7-0.5-1.5-0.7-2.3-0.8c-0.7-0.1-1.4,0-2.1,0.4c-0.3,0.2-0.5,0.4-0.5,0.8c0,2,0,4,0,5.9c0,0.9,0.1,1.8,0.2,2.7
	c0.1,0.8,0.6,1.1,1.4,1.2c0.4,0,0.7,0.1,1.1,0.1V45h-9.5c0-0.2,0-0.5,0-0.7c0-0.1,0.1-0.1,0.2-0.1c0.2,0,0.3,0,0.5-0.1
	c0.7-0.1,1.2-0.4,1.3-1.1c0.1-0.5,0.2-1,0.2-1.5c0.1-2.7,0.2-5.5,0-8.2c0-0.2-0.1-0.4-0.1-0.7c-0.2-0.9-0.6-1.3-1.5-1.4
	c-0.2,0-0.3,0-0.5-0.1v-0.6l6.8-1.3v3.4c0.3-0.5,0.6-1,1-1.5c0.8-1,1.8-1.7,3.2-1.8c0.8-0.1,1.7,0.1,2.3,0.5L44.8,33.9L44.8,33.9z"
	/>
<path d="M77.1,51.9l-1,0.5c-0.4-0.5-0.9-0.8-1.5-0.9c-1-0.2-1.8,0-2.6,0.7c-1.1,1.1-0.7,2.8,0.7,3.5c1.1,0.5,2.5,0.3,3.4-0.5
	c0.1-0.1,0.1-0.5,0.2-0.7h-1.8v-0.7h2.8v3.1h-1.1v-0.7c-0.4,0.2-0.8,0.4-1.2,0.6c-1.6,0.4-3,0.1-4.2-1.1c-1.2-1.2-1-2.9,0.2-4
	c0.6-0.6,1.4-0.9,2.2-1c0.9-0.1,1.8,0,2.6,0.3C76.4,51.2,76.8,51.5,77.1,51.9L77.1,51.9z"/>
<path d="M112.6,36.5c0.3-0.9,0.6-1.7,0.8-2.5c0.1-0.2,0-0.3-0.1-0.4c-0.7-0.5-1.4-1-2.1-1.6c0.1,0,0.2,0,0.3,0c0.8,0,1.6,0,2.4,0
	c0.2,0,0.3-0.1,0.3-0.2c0.3-0.8,0.5-1.7,0.8-2.6c0.2,0.5,0.3,0.9,0.4,1.3c0.1,0.4,0.3,0.8,0.4,1.2c0.1,0.2,0.1,0.2,0.3,0.2
	c0.8,0,1.6,0,2.3,0c0.1,0,0.2,0,0.3,0c-0.1,0.1-0.2,0.2-0.3,0.2c-0.6,0.5-1.3,0.9-1.9,1.4c-0.2,0.1-0.2,0.2-0.1,0.4
	c0.3,0.8,0.5,1.7,0.8,2.5l-2.4-1.7L112.6,36.5L112.6,36.5z"/>
<path d="M103.6,32c-0.7,0.5-1.4,1-2.1,1.5c-0.2,0.1-0.2,0.2-0.1,0.4c0.3,0.8,0.5,1.5,0.7,2.3c0,0.1,0,0.1,0.1,0.3l-2.4-1.7l-2.4,1.7
	c0.2-0.5,0.3-0.9,0.4-1.3c0.1-0.4,0.3-0.9,0.4-1.3c0.1-0.2,0-0.2-0.1-0.3c-0.7-0.5-1.3-0.9-1.9-1.4c-0.1,0-0.1-0.1-0.3-0.2h2.3
	c0.4,0,0.7-0.2,0.8-0.6c0.2-0.7,0.5-1.5,0.7-2.2c0.3,0.8,0.5,1.5,0.7,2.2c0.2,0.6,0.2,0.6,0.8,0.6C102,32,102.8,32,103.6,32
	C103.5,32,103.5,32,103.6,32L103.6,32z"/>
<path d="M108.3,40.9h2.2c0.7,0,0.7,0,0.9-0.7c0.2-0.7,0.4-1.4,0.7-2l0.5,1.6c0.1,0.3,0.2,0.6,0.3,1c0,0.2,0.1,0.2,0.3,0.2
	c0.8,0,1.6,0,2.4,0c0.1,0,0.2,0,0.3,0c-0.4,0.3-0.8,0.6-1.2,0.8c-0.3,0.3-0.7,0.5-1,0.8c-0.2,0.1-0.2,0.2-0.1,0.4
	c0.3,0.7,0.5,1.5,0.7,2.2c0,0.1,0.1,0.2,0.1,0.3l-2.4-1.7l-2.3,1.7l0,0c0.2-0.5,0.3-1.1,0.5-1.6c0.1-0.3,0.2-0.6,0.3-0.9
	c0.1-0.2,0-0.2-0.1-0.3c-0.7-0.5-1.3-0.9-1.9-1.4C108.5,41.1,108.4,41,108.3,40.9L108.3,40.9z"/>
<path d="M105.1,45.4l-2.4-1.7l-2.4,1.7c0-0.2,0.1-0.2,0.1-0.3c0.2-0.7,0.5-1.5,0.7-2.2c0.1-0.2,0-0.3-0.1-0.4
	c-0.6-0.4-1.2-0.9-1.9-1.4c-0.1-0.1-0.2-0.1-0.3-0.3h1c0.6,0,1.1,0,1.7,0c0.2,0,0.3-0.1,0.4-0.3c0.2-0.8,0.5-1.5,0.7-2.3
	c0-0.1,0-0.1,0.1-0.3c0.2,0.5,0.3,0.9,0.4,1.3c0.1,0.4,0.3,0.8,0.4,1.3c0,0.2,0.1,0.2,0.3,0.2c0.9,0,1.8,0,2.7,0
	c-0.1,0.1-0.2,0.1-0.2,0.2c-0.7,0.5-1.3,0.9-1.9,1.4c-0.1,0.1-0.2,0.2-0.1,0.4c0.3,0.8,0.5,1.5,0.7,2.2
	C105,45.2,105.1,45.3,105.1,45.4L105.1,45.4z"/>
<path d="M105.1,30.9c0.2-0.7,0.4-1.4,0.7-2c0.1-0.4,0-0.8-0.4-1.1c-0.6-0.4-1.2-0.8-1.7-1.3h0.3c0.8,0,1.5,0,2.3,0
	c0.2,0,0.3-0.1,0.3-0.2c0.3-0.8,0.5-1.7,0.8-2.6c0.1,0.1,0.1,0.2,0.1,0.3c0.2,0.7,0.5,1.5,0.7,2.2c0.1,0.2,0.2,0.3,0.4,0.3
	c0.9,0,1.7,0,2.6,0c-0.1,0.1-0.2,0.1-0.2,0.2c-0.6,0.5-1.3,0.9-1.9,1.4c-0.2,0.1-0.2,0.2-0.2,0.5c0.3,0.8,0.5,1.5,0.8,2.3
	c0,0.1,0,0.1,0.1,0.2c-0.2-0.2-0.4-0.3-0.6-0.4c-0.5-0.4-1-0.7-1.6-1.1c-0.2-0.1-0.3-0.1-0.4,0C106.5,29.9,105.8,30.4,105.1,30.9
	L105.1,30.9L105.1,30.9z"/>
<path d="M118.9,55.9v0.9h-5.6v-6.2h5.5v0.8h-4.2v1.8h3.6V54h-3.7v1.9L118.9,55.9L118.9,55.9z"/>
<path d="M47.7,51.5v1.8h3.7V54h-3.7v1.9H52v0.9h-5.6v-6.2h5.5v0.8C51.9,51.5,47.7,51.5,47.7,51.5z"/>
<path d="M82.4,50.6h1.3c0,0.1,0,0.2,0,0.3c0,1,0,2,0,2.9c0,1.5,1.1,2.2,2.5,2.1c1.1-0.1,1.8-0.6,2-1.6c0-0.2,0.1-0.4,0.1-0.7
	c0-0.9,0-1.9,0-2.8v-0.3h1.3c0,0,0,0.1,0,0.1c0,1.1,0,2.1,0,3.2c-0.1,1.6-1,2.6-2.5,2.8c-0.8,0.1-1.6,0.1-2.4-0.1
	c-1.3-0.4-2.1-1.3-2.1-2.7c0-1.1,0-2.1,0-3.2C82.4,50.7,82.4,50.7,82.4,50.6L82.4,50.6z"/>
<path d="M72.9,14c-0.4,1.5-0.9,3-1.3,4.5c-0.1,0.2-0.1,0.3-0.4,0.3c-0.1,0-0.2,0-0.3,0c-0.1,0-0.2-0.1-0.2-0.2
	c-0.5-1.9-0.9-3.9-1.4-5.8c0,0,0,0,0-0.1h0.8l1.1,4.7l1.3-4.7h0.7l1.3,4.8l1.1-4.8h0.8c-0.2,0.9-0.4,1.8-0.7,2.7c-0.2,1-0.5,2-0.7,3
	c-0.1,0.2-0.1,0.3-0.4,0.3c0,0-0.1,0-0.1,0c-0.3,0.1-0.4-0.1-0.5-0.4C73.8,17,73.4,15.5,72.9,14C73,14.1,73,14.1,72.9,14L72.9,14z"
	/>
<path d="M37.8,55.5c0.1-0.1,0.1-0.2,0.1-0.3c0.7-1.5,1.5-3,2.2-4.4c0.1-0.2,0.2-0.2,0.4-0.2c0.3,0,0.7,0,1.1,0
	c-0.1,0.1-0.1,0.2-0.1,0.3c-1,1.9-2,3.8-3,5.7c-0.1,0.2-0.2,0.2-0.4,0.2c-0.7,0.1-1-0.2-1.3-0.8c-0.9-1.7-1.8-3.4-2.7-5.2
	c0-0.1-0.1-0.2-0.1-0.3c0.5,0,0.9,0,1.3,0c0.1,0,0.2,0.1,0.2,0.2c0.7,1.5,1.5,2.9,2.2,4.4C37.7,55.3,37.8,55.4,37.8,55.5L37.8,55.5z
	"/>
<path d="M36.6,12.7h0.8v6c-0.2,0-0.5,0-0.7,0c-0.1,0-0.2-0.1-0.2-0.2c-0.9-1.4-1.8-2.7-2.7-4.1c-0.1-0.1-0.1-0.2-0.2-0.2v4.5h-0.8
	v-6c0.2,0,0.5,0,0.7,0c0.1,0,0.2,0.1,0.2,0.2c0.9,1.4,1.8,2.8,2.8,4.2c0,0.1,0.1,0.1,0.1,0.2C36.6,17.3,36.6,12.7,36.6,12.7z"/>
<path d="M8.8,18.7C8.8,18.7,8.8,18.8,8.8,18.7c-0.6,0.1-0.9,0-1.2-0.5c-0.8-1.3-1.6-2.5-2.4-3.8c-0.1-0.1-0.1-0.2-0.2-0.2v4.5H4.2
	v-6c0.2,0,0.5,0,0.7,0c0.1,0,0.2,0.1,0.2,0.2C6,14.3,6.9,15.6,7.8,17c0.1,0.1,0.1,0.2,0.2,0.2v-4.5h0.8L8.8,18.7L8.8,18.7z"/>
<path d="M4.3,51.5H1.5v-0.8h6.8v0.8H5.6v5.3H4.3C4.3,56.8,4.3,51.5,4.3,51.5z"/>
<path d="M89.3,18.8h-0.8V16h-3v2.7h-0.8v-6h0.8v2.6h3v-2.6h0.8L89.3,18.8L89.3,18.8z"/>
<path d="M74,64.3v-0.2h44.9l0,0.2H74z"/>
<path d="M46.4,64.1v0.2H1.5v-0.2H46.4z"/>
<path d="M58.5,55.9h4.4v0.9h-5.7v-6.2h1.3L58.5,55.9L58.5,55.9z"/>
<path d="M58.6,18.8h-0.8V16h-3v2.8h-0.8v-6h0.8v2.6h3v-2.6h0.8V18.8L58.6,18.8z"/>
<path d="M52.7,66.4h2.7v0.8h-4c0-0.3-0.1-0.6,0.2-0.9c0.7-0.7,1.3-1.4,2-2.2c0.3-0.3,0.6-0.7,0.6-1.2c0-0.5-0.3-0.8-0.7-0.9
	c-0.5-0.1-1,0.2-1.1,0.7c0,0.1-0.1,0.3-0.1,0.4h-1c-0.1-0.5,0.2-1.2,0.8-1.6c0.8-0.5,1.6-0.5,2.4-0.1c0.6,0.3,0.9,1,0.7,1.7
	c-0.2,0.7-0.6,1.2-1.1,1.8C53.6,65.4,53.2,65.9,52.7,66.4L52.7,66.4z"/>
<path d="M48.5,17h0.8c0.3,1,1.3,1.5,2.3,1c0.3-0.2,0.5-0.4,0.5-0.8s-0.1-0.7-0.5-0.8c-0.3-0.2-0.7-0.3-1-0.4
	c-0.4-0.2-0.9-0.3-1.3-0.6c-0.9-0.6-0.9-1.8,0-2.4c1-0.8,2.7-0.5,3.3,0.5c0.2,0.3,0.3,0.6,0.3,0.9h-0.8c0-0.1,0-0.2-0.1-0.3
	c-0.1-0.2-0.1-0.3-0.2-0.5c-0.4-0.5-1.6-0.6-2.1-0.1c-0.4,0.4-0.3,1,0.1,1.3c0.3,0.2,0.6,0.3,0.9,0.4c0.4,0.2,0.8,0.3,1.1,0.4
	c0.7,0.4,1,1,0.9,1.7c-0.1,0.6-0.6,1.1-1.3,1.3c-1,0.2-1.9,0.1-2.6-0.6C48.6,17.8,48.5,17.4,48.5,17L48.5,17z"/>
<path d="M38.8,18.7v-6h3.8v0.7h-3v1.9h2.6V16h-2.6v2.1h3v0.7L38.8,18.7L38.8,18.7z"/>
<path d="M96.3,56.8H95v-6.1h1.3V56.8z"/>
<path d="M79.1,12.7h4.7v0.7h-1.9v5.4H81v-5.4h-1.9L79.1,12.7L79.1,12.7z"/>
<path d="M29.1,13.4h-1.9v-0.6h4.7v0.6h-1.9v5.4h-0.8L29.1,13.4L29.1,13.4z"/>
<path d="M62.9,62.4l-1.5,0.5c0-0.3,0-0.5,0-0.7c0-0.1,0.1-0.1,0.1-0.2c0.7-0.3,1.5-0.5,2.2-0.8c0,0,0.1,0,0.2,0v6h-1
	C62.9,67.2,62.9,62.4,62.9,62.4z"/>
<path d="M77.4,12.7h0.8v6h-0.8V12.7z"/>
<path d="M60.1,12.7h0.8v6h-0.8V12.7z"/>
<path d="M2,12.7h0.8v6H2V12.7z"/>
<path d="M62.1,36.1c-0.1-1.4-0.4-2.7-1.2-3.9c-1.2-1.8-2.8-2.8-5-2.8c-1.2,0-2.3,0.3-3.4,0.8c-0.1,0.1-0.2,0.1-0.4,0.2
	c0-2.5,0.1-4.9,0.1-7.3c-2.3,0.4-4.5,0.9-6.8,1.3V25c0.2,0,0.3,0,0.5,0.1c0.9,0.1,1.3,0.4,1.5,1.3c0.1,0.8,0.2,1.6,0.2,2.4
	c0,1.3,0.1,2.6,0.1,3.9c0,1.9,0,3.8,0,5.7c0,2.1-0.1,4.2-0.1,6.3c0,0,0.1,0,0.2,0c1.1,0.2,2.3,0.4,3.4,0.6c1.5,0.2,3,0.2,4.4-0.1
	c2.7-0.5,4.7-1.9,5.7-4.5C62,39.3,62.2,37.7,62.1,36.1L62.1,36.1z M56.5,41.6c-0.2,0.6-0.6,1.1-0.9,1.6c-0.7,0.9-1.6,1.3-2.7,1.1
	c-0.5-0.1-0.5-0.1-0.6-0.6c0-2.2-0.1-4.4-0.1-5.9c0-2.4,0-4.3,0-6.1c0-0.2,0.1-0.3,0.3-0.4c0.6-0.2,1.2-0.2,1.7-0.1
	c1.2,0.2,1.9,1,2.3,2c0.5,1.1,0.7,2.2,0.8,3.4C57.3,38.3,57.1,40,56.5,41.6L56.5,41.6z"/>
<path d="M32.6,34c-0.6-1.7-1.7-3.1-3.3-3.9c-1.2-0.6-2.5-0.9-3.9-0.9c-0.6,0.1-1.3,0.1-1.9,0.2c-2.4,0.5-4.2,1.8-5.2,3.9
	c-1.3,2.6-1.2,5.3-0.1,7.9c0.8,1.9,2.2,3.2,4.2,3.8c1.3,0.4,2.7,0.5,4.1,0.3c2.8-0.4,4.8-1.9,5.9-4.5C33.3,38.6,33.3,36.3,32.6,34
	L32.6,34z M27.8,41.9c-0.2,0.6-0.4,1.1-0.7,1.6c-0.8,1.3-2.4,1.3-3.4,0.1c-0.6-0.7-0.9-1.6-1.1-2.5c-0.4-1.7-0.4-3.5-0.3-5.2
	c0.1-1.1,0.2-2.2,0.5-3.2c0.2-0.7,0.4-1.3,0.9-1.8c0.8-0.9,2.1-0.9,2.9,0c0.5,0.5,0.8,1.2,1.1,1.9c0.5,1.5,0.6,3.1,0.6,4.7
	C28.2,39,28.2,40.4,27.8,41.9z"/>
<path d="M77.6,36.6c0-0.1,0-0.1,0-0.2c0-1.1-0.2-2.1-0.5-3.1c-0.6-1.8-1.8-3.1-3.6-3.7c-1.1-0.4-2.2-0.4-3.3-0.3
	c-2.4,0.3-4.3,1.4-5.6,3.5c-1.3,2.1-1.6,4.3-1.1,6.6c0.5,2.3,1.7,4.1,3.8,5.1c1.8,0.9,3.7,1.1,5.6,0.7c1.6-0.3,2.9-1,4-2.2
	c0.6-0.6,0.5-0.4,0-1.1c-0.8,0.6-1.6,1-2.6,1.1c-1.2,0.1-2.4,0-3.5-0.6c-1.3-0.7-2.1-1.8-2.5-3.2c-0.3-0.9-0.4-1.8-0.3-2.7
	L77.6,36.6L77.6,36.6z M68.3,33.8c0.1-0.8,0.4-1.7,0.9-2.4c0.2-0.3,0.5-0.6,0.8-0.9c0.7-0.6,1.6-0.4,2.1,0.4
	c0.4,0.5,0.6,1.2,0.6,1.8c0.1,0.8,0.1,1.6,0.2,2.4c0,0.1,0,0.2-0.2,0.3c-1.5,0-3,0.1-4.5,0.1c0,0,0,0-0.1,0
	C68.2,35,68.2,34.4,68.3,33.8L68.3,33.8z"/>
<path d="M108,51.7c-0.7-0.7-1.6-1-2.6-1c-0.9,0-1.9,0-2.8,0c-0.2,0-0.4,0-0.7,0v6.2c0,0,0.1,0,0.1,0c1.2,0,2.3,0,3.4,0
	c0.8,0,1.5-0.3,2.2-0.7C109.1,55,109.3,52.9,108,51.7z M107.1,54.9c-0.4,0.6-1.1,0.9-1.8,1c-0.7,0.1-1.4,0-2.1,0v-4.4
	c0,0,0.1,0,0.2,0c0.8,0,1.6,0,2.4,0.1C107.7,52,107.8,53.9,107.1,54.9L107.1,54.9z"/>
<path d="M18.2,55.6c-0.3-0.4-0.6-0.8-1-1.1c0.3-0.2,0.6-0.3,0.8-0.4c0.9-0.7,1-1.8,0.3-2.6c-0.5-0.5-1.1-0.8-1.7-0.8
	c-1.3,0-2.5,0-3.8,0c0,0,0,0-0.1,0v6.1H14v-2.2c0.6,0,1.1,0,1.7,0c0.2,0,0.3,0.1,0.4,0.2c0.5,0.6,1,1.2,1.5,1.8
	c0.1,0.1,0.1,0.2,0.2,0.2c0.5,0,0.9,0,1.4,0C18.8,56.4,18.5,56,18.2,55.6L18.2,55.6z M16.4,53.8c-0.8,0-1.6,0-2.4,0v-2.3
	c0.2,0,0.4,0,0.6,0c0.5,0,1.1,0,1.6,0c0.5,0,0.9,0.3,1.2,0.7c0.2,0.4,0.1,0.8-0.2,1.1C17,53.6,16.8,53.7,16.4,53.8L16.4,53.8z"/>
<path d="M30.8,56.5c-0.9-1.7-1.9-3.4-2.7-5.2c-0.3-0.6-0.6-0.8-1.2-0.7c-0.2,0-0.3,0.1-0.4,0.2c-1,1.9-2,3.8-3.1,5.7
	c0,0.1-0.1,0.2-0.1,0.3c0.4,0,0.8,0,1.1,0c0.2,0,0.3,0,0.3-0.2c0.2-0.4,0.4-0.9,0.7-1.3c0.1-0.1,0.2-0.2,0.3-0.2c0.9,0,1.8,0,2.7,0
	c0.2,0,0.3,0.1,0.3,0.2c0.2,0.4,0.5,0.9,0.7,1.3c0,0.1,0.2,0.2,0.2,0.2c0.4,0,0.8,0,1.2,0C30.9,56.7,30.9,56.6,30.8,56.5L30.8,56.5z
	 M25.8,54.4c0.4-0.9,0.9-1.8,1.4-2.7c0.5,0.9,0.9,1.8,1.3,2.7H25.8z"/>
<path d="M60.3,63.4c0-0.4-0.1-0.7-0.2-1.1c-0.3-0.8-0.9-1.2-1.8-1.2s-1.5,0.4-1.8,1.2c-0.2,0.6-0.2,1.2-0.3,1.6
	c0.1,0.7,0.1,1.2,0.2,1.7c0.1,0.6,0.4,1.1,0.9,1.4c1.2,0.6,2.4,0,2.8-1.2C60.4,65.1,60.3,64.3,60.3,63.4L60.3,63.4z M59.2,65.7
	c-0.1,0.6-0.5,0.8-1.1,0.7c-0.3-0.1-0.5-0.3-0.6-0.6c-0.3-1.1-0.3-2.2,0-3.4c0.1-0.4,0.4-0.6,0.8-0.6c0.4,0,0.7,0.2,0.8,0.6
	c0.1,0.3,0.1,0.6,0.2,0.9c0,0.3,0,0.5,0,0.8h0C59.3,64.7,59.3,65.2,59.2,65.7L59.2,65.7z"/>
<path d="M46.6,16.2c0,0,0.1-0.1,0.1-0.1c0.8-0.4,1.1-1.1,1-2c-0.1-0.8-0.6-1.3-1.5-1.4c-0.8-0.1-1.7,0-2.5,0c0,0,0,0,0,0v6h0.8v-2.4
	c0.4,0,0.8,0,1.2,0c0.2,0,0.3,0,0.3,0.2c0.4,0.7,0.7,1.4,1.1,2c0,0.1,0.1,0.2,0.2,0.2c0.3,0,0.5,0,0.8,0
	C47.6,17.9,47.1,17,46.6,16.2L46.6,16.2z M46.1,15.6c-0.5,0.1-1.1,0.1-1.7,0.1v-2.3c0.6,0,1.2-0.1,1.8,0.1c0.5,0.1,0.7,0.6,0.7,1.1
	C46.9,15.1,46.6,15.5,46.1,15.6L46.1,15.6z"/>
<path d="M25.7,16.2l0.2-0.1c0.8-0.4,1.1-1,0.9-1.9c-0.1-0.7-0.6-1.2-1.4-1.4c-0.5-0.1-0.9-0.1-1.4-0.1c-0.4,0-0.9,0-1.3,0v6h0.8
	v-2.4c0.4,0,0.8,0,1.2,0c0.2,0,0.3,0.1,0.4,0.2c0.4,0.7,0.7,1.4,1.1,2c0,0.1,0.1,0.2,0.2,0.2c0.3,0,0.5,0,0.8,0
	C26.7,17.9,26.2,17,25.7,16.2L25.7,16.2z M23.6,15.6c0,0,0-0.1,0-0.2c0-0.7,0-1.4,0-2.1c0.6,0,1.2-0.1,1.8,0.1
	c0.5,0.2,0.7,0.6,0.7,1.2c0,0.5-0.4,0.9-0.9,0.9C24.6,15.7,24.1,15.6,23.6,15.6L23.6,15.6z"/>
<path d="M68.8,62.3c-0.6-1.5-2.5-1.4-3.2-0.6c-0.5,0.6-0.6,1.3-0.4,2.1c0.3,1.3,1.6,1.8,2.7,1c0,0,0.1,0,0.1,0c0,1-0.6,1.5-2,1.6
	v0.8c1,0.1,2.1-0.4,2.6-1.2c0.4-0.6,0.4-1.3,0.5-2C69.1,63.4,69.1,62.8,68.8,62.3z M67.3,64.4c-0.4,0.1-0.8-0.1-1-0.6
	c-0.2-0.5-0.2-0.9,0.1-1.4c0.1-0.3,0.4-0.5,0.7-0.5s0.6,0.2,0.8,0.5s0.2,0.7,0.3,1C68.1,64,67.8,64.3,67.3,64.4L67.3,64.4z"/>
<path d="M15.2,12.8c-0.9-0.1-1.8,0-2.8,0v6h0.8v-2.3c0.1,0,0.2,0,0.3,0c0.5,0,0.9,0,1.4,0c0.7-0.1,1.4-0.3,1.7-1.1
	C17,14.3,16.6,12.9,15.2,12.8L15.2,12.8z M14.9,15.7c-0.6,0-1.1,0-1.7,0v-2.3c0,0,0,0,0,0c0.6,0,1.1,0,1.7,0c0.6,0,1,0.5,1,1.2
	C15.9,15.2,15.6,15.6,14.9,15.7L14.9,15.7z"/>
<path d="M19.6,12.7c-0.2,0-0.3,0-0.4,0c-0.3,0-0.4,0.1-0.4,0.3c-0.7,1.8-1.4,3.7-2.1,5.5c0,0.1-0.1,0.2-0.1,0.3c0.2,0,0.4,0,0.6,0
	c0.2,0,0.3,0,0.3-0.2c0.1-0.4,0.3-0.8,0.4-1.2c0.1-0.2,0.1-0.2,0.3-0.2c0.7,0,1.4,0,2.1,0c0.2,0,0.2,0,0.3,0.2
	c0.1,0.4,0.3,0.8,0.4,1.2c0,0.1,0.1,0.2,0.2,0.2c0.2,0,0.4,0,0.7,0C21.2,16.7,20.4,14.7,19.6,12.7L19.6,12.7z M18.2,16.5
	c0.3-0.9,0.7-1.8,1-2.8c0.4,1,0.7,1.9,1,2.8C20.3,16.5,18.2,16.5,18.2,16.5z"/>
<path d="M65.3,12.8c-0.2,0-0.4-0.1-0.6-0.1c-0.7,0-1.4,0-2.1,0c-0.1,0-0.1,0-0.2,0v6h0.8v-2.3c0.1,0,0.2,0,0.3,0c0.5,0,0.9,0,1.4,0
	c1.1-0.1,1.7-0.7,1.8-1.7C66.8,13.8,66.2,13,65.3,12.8L65.3,12.8z M64.9,15.7c-0.6,0-1.1,0-1.7,0v-2.3c0,0,0,0,0,0
	c0.6,0,1.1,0,1.7,0c0.6,0.1,1,0.5,1,1.2C65.9,15.2,65.5,15.6,64.9,15.7L64.9,15.7z"/>
</svg>
