<?xml version="1.0" encoding="UTF-8"?><svg id="a" xmlns="http://www.w3.org/2000/svg" viewBox="0 0 381 151"><g><polygon points="273.97 80.44 271.14 80.44 265.67 87.87 260.32 80.44 257.47 80.44 264.2 89.78 257.01 99.62 259.89 99.62 265.66 91.69 271.41 99.62 274.32 99.62 267.18 89.78 273.97 80.44"/><path d="M289.97,96.63h0c-.39,.32-.83,.6-1.3,.83-.67,.32-1.41,.48-2.18,.48-1.06,0-2.02-.21-2.85-.61-.84-.41-1.55-.97-2.13-1.66-.58-.7-1.03-1.53-1.34-2.46-.31-.95-.47-1.98-.47-3.06s.16-2.11,.47-3.06c.31-.94,.76-1.77,1.34-2.46,.58-.69,1.29-1.25,2.13-1.65,1.35-.66,3.21-.82,4.8-.32,.54,.17,1.04,.42,1.48,.73l.54,.38,1.28-1.94-.53-.36c-.55-.36-1.18-.67-1.77-.88-.84-.3-1.83-.45-2.95-.45-1.42,0-2.72,.26-3.86,.78-1.14,.52-2.12,1.25-2.9,2.16-.78,.9-1.38,1.98-1.79,3.2-.4,1.2-.61,2.51-.61,3.88s.2,2.68,.61,3.88c.41,1.22,1.01,2.3,1.79,3.2,.79,.91,1.76,1.64,2.9,2.16,1.14,.52,2.44,.78,3.86,.78,1.07,0,2.09-.2,3.04-.6,.66-.28,1.27-.64,1.83-1.09l.47-.37-1.32-1.92-.54,.45Z"/><path d="M303.28,80.44l-7.71,19.19h2.56l2.28-5.74h7.71l2.26,5.74h2.55l-7.58-19.19h-2.07Zm-2.02,11.22l3.07-7.79,2.95,7.79h-6.02Z"/><polygon points="339.45 90.79 349.73 90.79 349.73 88.56 339.45 88.56 339.45 82.67 350.39 82.67 350.39 80.44 337.07 80.44 337.07 99.62 350.51 99.62 350.51 97.4 339.45 97.4 339.45 90.79"/><polygon points="356 80.44 356 82.67 362.3 82.67 362.3 99.62 364.68 99.62 364.68 82.67 371 82.67 371 80.44 356 80.44"/><path d="M329.38,90.21h0c1.11-.98,1.67-2.36,1.67-4.12,0-1.17-.2-2.15-.6-2.9-.4-.75-.91-1.34-1.52-1.76-.6-.41-1.25-.68-1.95-.82-.65-.13-1.25-.19-1.79-.19h-8.27v19.2h2.38v-7.98h4.01l5.76,8,2.91-.03-5.83-8.07c1.32-.18,2.41-.63,3.22-1.35Zm-2.62-1.1c-.48,.21-1.08,.31-1.79,.31h-5.66v-6.76h5.81c.79,0,1.42,.12,1.87,.36,.45,.25,.81,.54,1.05,.88,.25,.36,.42,.73,.5,1.1,.09,.42,.14,.77,.14,1.06,0,.4-.07,.81-.2,1.21-.12,.38-.32,.74-.6,1.06-.27,.31-.65,.57-1.11,.77Z"/></g><g><path d="M148.13,25.62c-1.76,3.52-.72,10.07-.55,10.97-1.33-1.22-2.49-2.26-3.42-3.11-.07-.09-.11-.18-.14-.27,0-.09,0-.19,0-.3,.14-1.36-.32-2.54-1.53-3.28-.74-.45-1.54-.8-2.33-1.16-1.05-.48-1.86-1.24-2.54-2.15-.09-.13-.21-.24-.31-.36l-.18,.07c.04,.22,.07,.45,.13,.67,.23,.87,.51,1.72,.7,2.59,.25,1.19,.46,2.39,1.29,3.34,.86,.98,1.83,1.72,3.23,1.39,.06-.01,.11,0,.17,0,3.89,3.96,10.71,11.49,17.55,18.83-1.06-.14-2.21-.28-3.26-.42,0,0-.32-.05-.7-.07-.22-.04-.45-.09-.61-.17-.05-.03-.09-.07-.12-.11-.82-1.18-2.01-1.37-3.31-1.23-1.26,.13-2.22,.88-3.21,1.59-.73,.52-1.51,.96-2.26,1.44-.19,.12-.37,.27-.55,.4l.09,.17c.16-.02,.32-.03,.47-.05,1.12-.21,2.23-.23,3.33,.13,.83,.27,1.65,.55,2.5,.72,1.4,.28,2.54-.29,3.35-1.38,.07-.09,.13-.16,.2-.23,.23-.08,.45-.23,1.05-.18,.72,.15,2.36,.49,3.23,.69,.47,.11,.93,.23,1.36,.37,8.12,8.73,16.35,17.52,18.5,20.7,.15-.1,.29-.19,.56-.38,.56-.39,1-1.62-.24-2.12-.15-.06-.47-.14-.73-.14,0-.21,.02-.34,.05-.51,.24-1.25,.98-2.25,1.7-3.25,.15-.21,.3-.28,.6-.19,.24,.07,.4,0,.56-.1,.41-.24,.56-.63,.45-1.09-.11-.47,.03-.79,.44-1.02,.43-.24,.86-.46,1.28-.72,.33-.2,.53-.12,.77,.17,.33,.39,.69,.8,1.13,1.07,.62,.38,1.2,.07,1.29-.65,.06-.49,.01-1,.01-1.56,.4-.08,.87-.18,1.41-.29,0,.93-.05,1.74,.02,2.54,.05,.49,.22,1,.46,1.43,.24,.45,.63,.71,1.03,.71v0c.4,0,.78-.27,1.03-.71,.24-.44,.41-.94,.46-1.43,.07-.8,.02-1.61,.02-2.54,.54,.11,1.02,.21,1.41,.29,0,.56-.05,1.07,.01,1.56,.09,.72,.67,1.03,1.29,.65,.43-.27,.79-.67,1.13-1.07,.24-.29,.44-.37,.77-.17,.42,.25,.85,.48,1.28,.72,.41,.23,.55,.55,.44,1.02-.11,.45,.04,.85,.45,1.09,.16,.09,.32,.17,.56,.1,.3-.09,.45-.01,.6,.19,.72,1,1.46,2,1.7,3.25,.03,.17,.04,.3,.05,.51-.25,0-.58,.08-.73,.14-1.24,.51-.8,1.73-.24,2.12,.27,.19,.41,.28,.56,.38,2.14-3.19,10.38-11.97,18.5-20.7,.44-.14,.89-.26,1.36-.37,.79-.19,2.21-.49,3.01-.65,.77-.11,1.04-.05,1.28,.14,.06,.06,.13,.14,.2,.23,.81,1.1,1.95,1.66,3.35,1.38,.85-.17,1.67-.45,2.5-.72,1.1-.35,2.21-.34,3.33-.13,.15,.03,.31,.04,.47,.05,.19,.02,.27-.02,.09-.17-.18-.14-.36-.28-.55-.4-.75-.48-1.54-.92-2.26-1.44-.99-.71-1.95-1.46-3.21-1.59-1.3-.14-2.49,.05-3.31,1.23-.03,.04-.08,.14-.31,.19-.11,.03-.41,.07-.69,.11-.25,.02-.43,.05-.43,.05-1.05,.14-2.2,.28-3.26,.42,6.73-7.22,13.43-14.62,17.36-18.63,.16-.13,.29-.21,.36-.2,1.4,.33,2.37-.41,3.23-1.39,.84-.95,1.04-2.15,1.29-3.34,.18-.87,.47-1.73,.7-2.59,.06-.22,.09-.45,.13-.67,0-.07,.03-.16-.04-.18s-.1,.07-.13,.11c-.1,.12-.22,.23-.31,.36-.68,.91-1.49,1.67-2.54,2.15-.79,.36-1.59,.71-2.33,1.16-1.22,.74-1.68,1.92-1.53,3.28,.01,.11,.01,.21,0,.3-.01,.13-.09,.22-.22,.35l-.09,.08c-.11,.1-.25,.22-.43,.39-.82,.74-1.78,1.61-2.84,2.58,.16-.9,1.2-7.45-.55-10.97,.03,.07-1.65-3.36-5.23-5.78-.18-.13-.63-.47-.72-.78-.04-.16-.1-.3-.27-.51-.5-.59-.96-.72-1.67-.79-.51-.05-1.02,0-1.53-.04-.38-.02-.77-.09-1.15-.15-.09-.01-.18-.03-.27-.04-.07,0-.08,.03-.03,.08,.05,.06,.1,.11,.16,.17,.3,.31,.64,.6,.91,.94,.45,.58,.94,1.08,1.56,1.45,.54,.32,1.08,.35,1.63,.1,.04-.02,.1-.05,.16-.09,.08-.05,.24-.08,.73,.29,3.61,2.84,7.9,7,4.43,17.38-.19,.56-.51,.91-.72,1.12-1.29,1.25-2.74,2.57-4.23,3.98-.08,0,.02-.96,.03-1.31,.05-2.5-.26-4.98-.85-7.42-.11-.45-.23-.77-.56-1.48,0,0-.04-.07-.1-.18-.3-.6-.12-.81-.12-.81,.76-1.08,.63-2.18,.13-3.29-.36-.8-.97-1.4-1.7-1.86-1.19-.75-2.39-1.46-3.13-2.72-.03-.04-.12-.1-.18-.08-.06,.02-.07,.11-.07,.15,.06,1.14,.1,2.28,.18,3.41,.13,1.81,.8,3.37,2.28,4.51,.1,.08,.22,.14,.34,.19,.11,.06,.31,.13,.4,.17,.47,.27,.77,.8,.92,1.17,.89,2.52,1.44,4.85,1.18,7.56-.11,1.16-.23,1.88-.53,2.9-.08,.27-.21,.83-.43,1.03-5.9,5.58-12.6,11.81-17.72,16.61-.05,0-.1-.02-.14-.03-.64-.63-2.16-2.17-4.17-4.27l-.77,1.02c2.01,2.09,3.43,3.54,3.63,3.75,.21,.22,.31,.38,.36,.57-1.6,1.5-3.01,2.83-4.14,3.92-.04,.03-.07,.06-.11,.1-.3,.3-.77,.67-1.26,.99,.03-.18,.08-.42,.11-.57,.26-1.54,.21-4.07-.08-5.45-.06-.3-.35-.37-.65-.32-.64,.11-1.16,.27-1.72,.5-1.38,.57-3.56,1.56-3.78,1.63-.22-.84-.42-1.68-.63-2.73h0c-.12-.61-.22-1.24-.29-1.86-.25-2.2-.54-4.4-.7-6.6-.07-.99-.1-2.02,.04-2.73,.42-2.14,.93-3.06,2.06-4.9,.44-.72,.77-1.18,1.46-1.91,5.41-5.66,17.76-19.04,24.1-25.47h0s1.43-1.38,1.48-1.36c1.4,.31,2.58-.79,3.45-1.76,.84-.95,1.04-2.15,1.29-3.34,.18-.87,.46-1.73,.7-2.59,.06-.22,.09-.45,.13-.67-.02-.1-.07-.11-.18-.07-.1,.12-.22,.23-.31,.36-.68,.91-1.49,1.67-2.54,2.15-.79,.36-1.59,.71-2.33,1.16-1.22,.74-1.83,1.87-1.69,3.23,.01,.11-.04,.29-.25,.43-.01,0-.02,.02-.03,.03-.46,.35-.85,.75-.98,.85-1.36,1.39-3.47,3.45-5.94,5.84,1.04-5.71-1.76-9.58-3.51-11.34-3.78-3.74-9.67-2.94-9.67-2.94-2.81,.33-4.56,1.49-5.65,2.62-.21,.16-.52,.34-.76,.34-.17,0-.32,.01-.56,.13-.7,.32-.95,.74-1.2,1.41-.18,.48-.28,.98-.44,1.46-.12,.36-.29,.71-.44,1.07-.04,.08-.07,.16-.11,.25-.02,.07,0,.08,.07,.05,.07-.04,.14-.07,.2-.11,.38-.21,.74-.46,1.15-.63,.68-.28,1.29-.63,1.81-1.12,.46-.44,.62-.95,.53-1.55,0-.04-.03-.11-.05-.18-.03-.11-.01-.3,.75-.83,.07-.05,.12-.09,.15-.13,.8-.53,1.57-.86,2.47-1.12,5.08-1.43,8.03,.79,9.17,1.5,6.58,5.35,4.31,12.73,1.58,15.47-6.39,6.14-13.57,13.02-16.82,16.47-.07,.08-.15,.15-.24,.22-.17,.09-.64,.18-.72-1.64-.02-.49-.03-1.21-.02-1.93,.35-.03,.72-.09,1.07-.2,2.04-.66,2.71-1.53,2.71-1.53h0c.82-.78,1.37-1.78,1.7-2.94,.31-1.09,.59-2.2,.88-3.3,.01-.04,.01-.13-.04-.16-.05-.03-.16,0-.19,.04-.98,1.09-2.3,1.54-3.62,2.03-.81,.3-1.53,.77-2.05,1.48-.35,.48-.61,.98-.73,1.51h0v.02c-.02,.09-.04,.18-.05,.27l-.24,1.31-.24-1.31c-.01-.09-.02-.18-.04-.27v-.02h0c-.12-.52-.38-1.02-.73-1.5-.52-.71-1.23-1.18-2.05-1.48-1.31-.49-2.64-.94-3.62-2.03-.03-.04-.14-.08-.19-.04-.05,.04-.05,.12-.04,.16,.29,1.1,.56,2.21,.88,3.3,.33,1.16,.88,2.16,1.7,2.94h0s.67,.87,2.71,1.53c.35,.11,.71,.17,1.07,.2,0,.72,0,1.44-.02,1.93-.08,1.82-.55,1.73-.72,1.64-.08-.07-.16-.14-.24-.22-3.25-3.45-10.43-10.33-16.82-16.47-2.73-2.74-5-10.12,1.58-15.47,1.14-.71,4.09-2.92,9.17-1.5,1.15,.33,2.08,.77,3.14,1.61,.3,.27,.31,.4,.29,.48-.02,.07-.04,.14-.05,.18-.09,.6,.07,1.11,.53,1.55,.51,.49,1.13,.84,1.81,1.12,.4,.17,.77,.42,1.15,.63,.07,.04,.14,.07,.2,.11,.06,.03,.08,.02,.07-.05-.04-.08-.08-.16-.11-.25-.15-.36-.32-.71-.44-1.07-.16-.48-.26-.98-.44-1.46-.25-.67-.51-1.08-1.2-1.41-.24-.11-.39-.13-.56-.13-.42,0-1.02-.55-1.02-.55h0c-1.1-1.07-2.8-2.11-5.44-2.42,0,0-5.89-.8-9.67,2.94-1.74,1.76-4.54,5.64-3.51,11.34-2.47-2.39-4.58-4.45-5.94-5.84-.14-.1-.52-.51-.98-.85-.01,0-.02-.02-.03-.03-.21-.14-.26-.32-.25-.43,.14-1.36-.47-2.49-1.69-3.23-.74-.45-1.54-.8-2.33-1.16-1.05-.48-1.86-1.24-2.54-2.15-.09-.13-.21-.24-.31-.36-.11-.04-.16-.03-.18,.07,.04,.22,.07,.45,.13,.67,.23,.87,.51,1.72,.7,2.59,.25,1.19,.46,2.39,1.29,3.34,.86,.98,2.05,2.08,3.45,1.76,.05-.01,1.48,1.37,1.48,1.37h0c6.34,6.42,18.69,19.8,24.1,25.46,.69,.72,1.02,1.19,1.46,1.91,1.13,1.84,1.64,2.76,2.06,4.9,.14,.71,.11,1.74,.04,2.73-.16,2.2-.44,4.4-.7,6.6-.07,.62-.17,1.25-.3,1.86h0c-.21,1.05-.41,1.88-.63,2.73-.23-.07-2.4-1.06-3.78-1.63-.56-.23-1.08-.39-1.72-.5-.3-.05-.58,.01-.65,.32-.28,1.38-.33,3.91-.08,5.45,.02,.15,.08,.39,.11,.57-.49-.32-.96-.69-1.26-.99-.04-.04-.08-.07-.11-.1-1.14-1.09-2.54-2.42-4.14-3.92,.05-.19,.15-.35,.36-.57,.2-.21,2.93-3.01,4.94-5.11l-.88-.91c-2.02,2.1-4.74,4.89-5.38,5.52-.04,.01-.09,.02-.14,.03-5.12-4.8-11.82-11.03-17.72-16.61-.22-.2-.35-.76-.43-1.03-.3-1.02-.42-1.75-.53-2.9-.27-2.77,.31-5.13,1.23-7.71,.17-.35,.46-.79,.87-1.02,.09-.04,.3-.12,.4-.17,.12-.06,.24-.11,.34-.19,1.47-1.13,2.14-2.69,2.28-4.51,.08-1.14,.13-2.27,.18-3.41,0-.04,0-.13-.07-.15-.07-.02-.16,.04-.18,.08-.73,1.26-1.94,1.98-3.13,2.72-.73,.46-1.34,1.07-1.7,1.86-.5,1.11-.63,2.22,.13,3.29,.12,.16,.12,.38-.11,.8h0c-.06,.12-.1,.19-.1,.19-.32,.71-.45,1.02-.56,1.48-.59,2.44-.9,4.92-.85,7.42,0,.34,.11,1.3,.03,1.31-1.48-1.41-2.95-2.75-4.24-3.99-.21-.21-.53-.56-.72-1.12-3.48-10.38,.82-14.54,4.43-17.38,.49-.36,.65-.34,.73-.29,.06,.04,.12,.08,.16,.09,.55,.25,1.09,.22,1.63-.1,.61-.36,1.11-.87,1.56-1.45,.27-.34,.6-.63,.91-.94,.05-.05,.11-.11,.16-.17,.05-.05,.04-.07-.03-.08-.09,.01-.18,.03-.27,.04-.38,.05-.76,.12-1.15,.15-.51,.03-1.02,0-1.53,.04-.71,.06-1.18,.2-1.67,.79-.17,.2-.23,.34-.27,.51-.09,.31-.53,.65-.72,.78-3.58,2.42-5.27,5.85-5.23,5.78Zm51.18,37.31c.06,.01,.03,.12,.02,.29-.08,.7-.13,1.14-.23,1.95-.59-.32-1.07-.58-1.61-.87,.44-.69,1.09-1.07,1.82-1.38Zm-16.53,0c.72,.3,1.37,.68,1.82,1.38-.54,.29-1.02,.55-1.61,.87-.1-.81-.14-1.25-.23-1.95-.01-.18-.04-.28,.02-.29Z"/><path d="M199.81,78.87c.35-.74,.79-1.58,1.2-2.3-.18-.13-.37-.25-.55-.38-.36-.24-.69-.56-1.09-.69-.78-.26-1.44,.39-1.26,1.21,.2,.89,1.39,1.98,1.69,2.16Z"/><path d="M210.78,110.57c2.37,.42,5.11,1.14,7.57,.89,9.72-5.27,16.78-13.4,20-18.49,.08-.12,.21-.24,.18-.4-.02-.1-.05-.12-.73-.62-.45-.33-1.6-.94-1.85-1.05-.51-.23-1.19-.26-1.79-.21-.48,.04-.84,.17-1.22,.41-.21,.14-.85,.76-.87,1.46,0,.33,.07,1.28,.76,1.32,.28,.02-.11-.2-.05-.52,.09-.43,.27-.69,.48-.85,.38-.3,.77-.39,1.22-.26,.64,.18,.9,.69,.97,1.14,.15,.98-.39,1.97-.96,2.48-1.23,1.1-2.97,.85-3.81,.13-1-.85-2.08-1.32-3.49-1.13-.98,.13-1.58,.4-2.16,.96-.87,.83-1.14,2.46-.94,3.65,.1,.57,.56,.75,.51,.6-.16-.5-.05-1.01,.19-1.37,.46-.69,1.34-.87,2.02-.5,.71,.39,.85,1.03,.8,1.58-.1,1.11-.71,2.31-1.84,3.02-1.22,.76-3,.53-3.9-.26-.68-.6-1.16-1.16-1.71-1.77-.79-.86-1.39-1.58-2.69-2.18-1.27-.59-3.06-.47-4.22,.19-1.37,.78-1.99,1.7-2.45,3.16-.15,.49-.03,1.04,.08,1.58,.07,.32,.46,1.15,.6,1.06,.09-.06,.04-.37,.05-.55,.23-2.61,2.74-3.5,4.3-3,1.15,.37,2.02,1.21,2.31,2.35,.28,1.09-.01,2.24-.69,3.15-1.42,1.91-4.13,3.62-6.68,4.04Z"/><path d="M194.47,74.1c.76,.4,1.4,.39,2.07,.18,1.08-.33,1.77-1.07,2.32-1.99,.31-.52,.63-1.04,.96-1.55,.22-.33,.12-.59-.18-.77-1.87-1.12-3.84-1.45-5.75-.26-.49,.3-.85,.9-1.03,1.34-.56,1.45-.7,2.89-.06,4.33,.76,1.69,.97,2.04,1.58,2.46,.24,.16,.3,.31,.37,.56,.17,.42,.54,.01,.7-.36,.09-.27,.08-.55,.02-.72-.36-.91-.63-.98-1.24-1.37-.44-.29-.41-.94-.38-1.27,.02-.22,.29-.72,.59-.57Zm1.66-2.25c.38,.01,.61,.25,.61,.61,0,.35-.2,.62-.59,.62-.43,0-.63-.36-.61-.66,.04-.38,.23-.58,.6-.57Z"/><path d="M182.72,75.51c-.39,.13-.73,.45-1.09,.69-.19,.12-.37,.25-.55,.38,.41,.72,.85,1.56,1.2,2.3,.31-.18,1.5-1.27,1.69-2.16,.18-.82-.47-1.47-1.26-1.21Z"/><path d="M149.25,93.88c.69-.04,.77-.99,.76-1.32-.02-.7-.66-1.32-.87-1.46-.38-.25-.74-.37-1.22-.41-.6-.05-1.27-.02-1.79,.21-.25,.11-1.4,.73-1.85,1.05-.68,.5-.71,.52-.73,.62-.03,.15,.1,.28,.18,.4,3.22,5.09,10.28,13.22,20,18.49,2.46,.25,5.2-.47,7.57-.89-2.55-.42-5.26-2.13-6.68-4.04-.68-.91-.97-2.06-.69-3.15,.3-1.15,1.16-1.98,2.31-2.35,1.56-.5,4.07,.39,4.3,3,.02,.18-.04,.5,.05,.55,.14,.09,.53-.74,.6-1.06,.11-.55,.23-1.1,.08-1.58-.46-1.46-1.08-2.38-2.45-3.16-1.16-.65-2.95-.78-4.22-.19-1.29,.61-1.9,1.32-2.69,2.18-.55,.61-1.03,1.17-1.71,1.77-.89,.79-2.68,1.02-3.9,.26-1.14-.71-1.75-1.91-1.84-3.02-.05-.55,.09-1.19,.8-1.58,.67-.37,1.55-.19,2.02,.5,.24,.36,.35,.87,.19,1.37-.05,.16,.41-.03,.51-.6,.2-1.19-.07-2.83-.94-3.65-.58-.56-1.18-.83-2.16-.96-1.41-.19-2.5,.28-3.49,1.13-.84,.72-2.58,.98-3.81-.13-.57-.51-1.11-1.51-.96-2.48,.07-.45,.34-.96,.97-1.14,.45-.12,.84-.04,1.22,.26,.21,.16,.39,.42,.48,.85,.07,.33-.32,.54-.05,.52Z"/><path d="M187.83,75.94c-.61,.4-.87,.46-1.24,1.37-.07,.17-.07,.45,.02,.72,.16,.38,.53,.78,.7,.36,.08-.25,.14-.4,.37-.56,.61-.42,.82-.77,1.58-2.46,.64-1.43,.51-2.88-.06-4.33-.17-.44-.54-1.04-1.03-1.34-1.91-1.19-3.88-.86-5.75,.26-.3,.18-.4,.44-.18,.77,.33,.51,.65,1.03,.96,1.55,.55,.93,1.24,1.67,2.32,1.99,.68,.21,1.32,.22,2.07-.18,.3-.15,.57,.35,.59,.57,.03,.33,.06,.98-.38,1.27Zm-1.89-2.86c-.4,0-.59-.26-.59-.62,0-.36,.23-.6,.61-.61,.36-.01,.56,.19,.6,.57,.02,.3-.18,.66-.61,.66Z"/><path d="M210.7,73.14c-.04-.38-.3-.88-.71-.97-.24-.05-.47,0-.71,0-.06,0-.12,0-.18,.02-.23,.06-.46,.13-.7,.19-.46,.12-.88,.31-1.28,.57-.32,.2-.59,.46-.84,.73-.1,.11-.21,.21-.29,.33-.13,.2-.26,.4-.37,.61-.13,.25,.08,.82,.29,1,.05,.04,.11,.06,.17,.08,.31,.13,.61,.26,.92,.39,.22,.08,.48,.22,.71,.23,.1,0,.2-.03,.25-.11,.05-.08,.07-.2,.11-.29,.1-.24-.01-.4-.18-.48-.22-.11-.41-.26-.62-.39-.2-.13-.3-.2-.12-.35,.22-.19,.32-.35,.54-.53,.12-.1,.25-.2,.39-.27,.38-.18,.51-.24,.92-.34,.1-.03,.2-.03,.3-.02,.14,.03,.22,.13,.21,.27,0,.06,0,.11-.01,.17-.01,.14-.01,.28-.03,.42-.02,.12,.08,.3,.18,.4,.07,.07,.25,.08,.34,.08,.22,.01,.38-.04,.43-.26,.06-.3,.14-.6,.2-.9,.04-.16,.06-.33,.09-.5h-.01s0-.06,0-.09Z"/><path d="M213.59,76.79c-.06,0-.11-.02-.17-.02-.14-.02-.28-.03-.41-.06-.12-.03-.3,.06-.41,.15-.08,.06-.09,.24-.11,.34-.03,.22,0,.38,.22,.44,.29,.08,.59,.18,.88,.27,.16,.05,.32,.08,.49,.12h0s.06,0,.09,0c.38,0,.9-.24,1.02-.63,.07-.23,.04-.47,.05-.7,0-.06,0-.12,0-.18-.04-.24-.1-.47-.14-.71-.09-.47-.25-.9-.47-1.32-.18-.33-.42-.62-.67-.9-.1-.11-.19-.23-.31-.32-.19-.15-.38-.29-.58-.41-.24-.15-.83,.02-1.02,.22-.04,.04-.07,.11-.09,.16-.15,.3-.31,.59-.45,.89-.1,.21-.26,.46-.29,.69-.01,.1,.01,.2,.09,.25,.07,.05,.19,.09,.28,.13,.23,.12,.4,.02,.49-.14,.12-.21,.29-.39,.44-.59,.15-.19,.22-.29,.36-.1,.17,.23,.32,.34,.49,.58,.09,.13,.18,.27,.24,.41,.15,.39,.2,.53,.27,.95,.02,.1,.02,.2,0,.3-.04,.14-.14,.21-.28,.19Z"/><path d="M206.41,78.12c.06,0,.11,0,.17,.01,.14,.01,.28,.02,.42,.04,.12,.02,.3-.08,.4-.17,.08-.07,.08-.25,.09-.34,.01-.22-.03-.38-.25-.43-.3-.07-.59-.15-.89-.22-.16-.04-.33-.06-.49-.09h0s-.06,0-.09,.01c-.38,.03-.88,.29-.98,.69-.06,.24-.02,.47-.01,.71,0,.06,0,.12,.02,.18,.06,.23,.12,.47,.18,.7,.11,.46,.3,.89,.54,1.29,.2,.32,.45,.6,.72,.86,.11,.1,.21,.22,.32,.3,.19,.14,.4,.26,.61,.38,.24,.14,.82-.06,1.01-.27,.04-.04,.06-.11,.09-.17,.2-.45,.69-1.13,.55-1.64-.06-.22-.3-.2-.35-.39-.41-.08-.63,.54-.83,.83-.13,.2-.2,.3-.35,.12-.18-.22-.34-.32-.52-.55-.1-.13-.19-.25-.26-.4-.18-.38-.23-.52-.33-.93-.02-.1-.03-.2-.01-.3,.03-.14,.13-.22,.27-.21Z"/><path d="M210.12,75.65c-.2-.01-.42,0-.61,.05-.25,.07-.48,.2-.65,.4-.14,.17-.27,.35-.4,.54-.28,.43-.32,.9-.17,1.38,.1,.31,.26,.6,.51,.82,.33,.29,.7,.49,1.2,.5,.36,0,.72-.14,1.04-.37,.25-.18,.4-.45,.55-.72,.13-.25,.19-.52,.2-.8,0-.16-.05-.32-.09-.49-.04-.18-.09-.36-.22-.5-.04-.04-.08-.1-.12-.14-.1-.11-.18-.24-.29-.34-.27-.24-.6-.31-.95-.34Zm.97,1.89c0,.08-.02,.15-.04,.23-.09,.36-.3,.61-.64,.75-.11,.05-.23,.08-.34,.12v-.02c-.35,0-.65-.13-.85-.41-.2-.27-.3-.57-.25-.91,0-.02,0-.05,.02-.07,.12-.2,.23-.4,.36-.58,.1-.13,.26-.19,.43-.2,.1,0,.21-.02,.31-.02,.31,0,.54,.15,.73,.37,.08,.1,.15,.21,.21,.32,.07,.13,.06,.27,.05,.41Z"/><path d="M228.42,67.7c0,.63,.44,1.04,1.19,1.05,.68,.02,1.44-.61,1.44-1.19,0-.64-.46-1.19-1.01-1.21-.92-.03-1.61,.55-1.62,1.34Zm.73-.21s.03-.1,.06-.14c.02-.03,.05-.06,.08-.08,.14-.12,.24-.19,.37-.17,.06,0,.24,.02,.32,.07,.14,.08,.28,.25,.29,.44,.03,.45-.66,.74-.99,.46-.11-.1-.18-.25-.17-.4,0-.06,.02-.12,.04-.18Z"/><path d="M198.74,23.81c-1.19-.03-2.2-.76-3.07-1.56-.51-.47-.92-1.06-1.39-1.58-.13-.14-.36-.27-.51-.3-.2-.03-.36,.37-.33,.51,.19,.9,.31,1.84,.69,2.66,.66,1.41,1.82,2.39,3.21,3.1,1.61,.82,3.27,1.37,5.09,.95,1.82-.41,4.61-1.26,5.69-3.08,1.04-1.74,1.79-3.52,1.87-5.59,.1-2.71-.71-4.95-2.9-6.62-1.55-1.18-3.3-1.76-5.97-1.81-1.8-.09-3.69,1.19-5.39,2.86-.12,.12-.21,.37-.15,.53,.08,.22,.4,.25,.64,.19,.67-.15,1.38-.31,2.04-.25,1.42,.12,2.85,.21,4.1,1.08,.95,.66,1.52,1.5,1.78,2.61,.31,1.34-.21,2.48-.7,3.66-.85,2.02-2.75,2.67-4.68,2.63Z"/><path d="M180.65,22.98c1.05-.12,2.22-.19,2.84-1.18,.46-.74,.79-1.62,.94-2.48,.19-1.04,.34-2.18-.66-3.01-.3-.25-.56-.58-.89-.77-.66-.39-1.3-.94-2.11-.87-1.52,.13-2.8,.79-3.79,1.96-.15,.18-.3,.43-.29,.64,.05,.85,.64,1.11,.78,1.95,.11,.66,.61,1.03,1.23,1.08,.75,.06,1.29,.29,2.04,.24,.53-.03,.96-.26,1.08-.86,.15-.71-.06-1.37-.62-1.67-.37-.2-.74-.2-1.16-.23-.5-.04-.78-.02-.74,.74,0,.15,.06,.48,.06,.63,0,.5-.62-.06-.66-.15-.21-.47-.39-.95-.14-1.48,.5-1.05,1.59-1.14,2.68-.76,1.41,.48,1.86,1.25,1.61,2.73-.16,.91-.57,1.56-1.5,1.91-1.06,.4-2.06,.12-3.09,0-1.13-.14-1.56-.85-1.71-1.86-.03-.2-.08-.41-.16-.6-.06-.14-.28-.55-.43-.35-.15,.21-.08,.49-.03,.72,.16,.75,.33,1.5,.56,2.23,.08,.25,.31,.51,.54,.63,1.12,.61,2.33,.96,3.62,.81Z"/><path d="M180.27,27.23c.99-.02,2.27-.23,2.92-.49,.82-.32,.79-.67,.73-.77-.42-.7-.85-1.4-1.35-2.04-.09-.11-.41-.07-.67-.01-.59,.06-1.74,.06-1.98,.15-.21,.08-.25,.35-.27,.58-.05,.52-.13,1.03-.23,1.55-.15,.87-.05,.99,.85,1.03Z"/><path d="M176.49,26.48c.83,.36,.97,.3,1.21-.55,.15-.51,.3-1,.48-1.49,.08-.22,.17-.47,.02-.63-.18-.2-1.21-.7-1.71-1.01-.21-.16-.48-.34-.61-.28-.73,.35-1.43,.79-2.12,1.23-.09,.06-.27,.36,.32,1.01,.47,.52,1.52,1.27,2.4,1.73Z"/><path d="M172.3,21.71c.3,.85,.44,.91,1.23,.52,.47-.23,.94-.62,1.43-.81,.22-.09,.46-.19,.48-.42,.02-.26-.31-1.36-.41-1.94-.02-.26-.07-.58-.2-.64-.76-.3-1.71-.53-2.49-.79-.37-.12-.46,.05-.54,.93-.06,.69,.25,2.2,.51,3.15Z"/><path d="M173.79,12.8c-.53,.47-1.27,1.55-1.69,2.44-.32,.84-.24,.99,.72,1.25,.58,.16,1.14,.31,1.7,.51,.25,.09,.53,.18,.7,.02,.2-.18,.38-.59,.68-1.1,.16-.35,.8-.87,.66-1.11-.44-.76-1.13-1.61-1.69-2.32-.07-.09-.42-.28-1.09,.32Z"/><path d="M186.32,25.16c.53-.51,1.29-1.65,1.74-2.59,.35-.89,.28-1.03-.62-1.26-.54-.14-1.07-.28-1.59-.46-.23-.08-.5-.16-.67,0-.2,.19-.69,1.3-1.01,1.84-.16,.22-.35,.52-.28,.65,.4,.76,.89,1.48,1.38,2.19,.07,.09,.39,.28,1.05-.37Z"/><path d="M189.02,18.87c-.06-1.11-.35-2.54-.66-3.25-.39-.91-.78-.86-.89-.79-.77,.5-1.54,1.01-2.24,1.59-.12,.1-.06,.46,0,.75,.1,.66,.13,1.94,.25,2.22,.1,.23,.4,.26,.66,.28,.59,.03,1.16,.11,1.75,.19,.98,.14,1.11,.02,1.12-.99Z"/><path d="M184.26,15.45c.22,.08,.43-.1,.6-.27,.39-.38,.95-.65,1.38-1,.71-.58,.71-.74,.03-1.38-.79-.65-2.07-1.58-2.75-1.82-.86-.3-1.06-.29-1.1,.11-.09,.84-.28,1.84-.32,2.68,0,.15,.28,.33,.51,.46,.5,.35,1.4,1.13,1.66,1.22Z"/><path d="M179.12,14.01c.59-.07,1.03-.06,1.28-.17,.21-.09,.25-.39,.27-.65,.05-.59,.14-1.16,.24-1.76,.16-.98,.06-1.12-.84-1.17-.99,.02-2.27,.25-2.92,.53-.82,.36-.79,.76-.74,.86,.42,.8,.91,1.77,1.42,2.49,.17,.23,.9-.14,1.29-.14Z"/><path d="M217.15,41.53c-.02-1.03-.73-1.71-1.76-1.68-.59,.02-1.56,.78-1.44,1.44,.02,1.07,.69,1.8,1.6,1.78,.92-.03,1.61-.69,1.59-1.54Zm-2.13-.2c.07-.24,.3-.32,.53-.38,.32-.08,.68,.34,.6,.72-.04,.2-.26,.46-.44,.52-.33,.09-.84-.36-.69-.86Z"/><path d="M210.08,45.1c-1.01-.08-1.59,.66-1.66,1.45-.07,.94,.63,1.65,1.63,1.71,.76,.04,1.49-.59,1.51-1.38,.03-1.02-.6-1.7-1.49-1.78Zm-.12,2.22c-.32-.05-.64-.32-.57-.67,.04-.21,.33-.5,.53-.52,.18-.03,.47-.09,.69,.44,.11,.35-.21,.82-.66,.75Z"/><path d="M216.89,45.32c.5-.25,1-.55,1.41-.93,.88-.81,1.19-1.84,1.01-3.03-.18-1.17-.81-2.03-1.78-2.65-2.17-1.38-1.69-1.11-2.62-2.21-.74-.89-2.1-2-3.14-2.46-.78-.35-1.72-.52-2.6-.48-.95,.04-2.49,.7-2.78,1.26,.11,.07,2.53-.4,6.29,3.55,.39,.41,.22,1-.12,1.04-2.9-2.87-6.17-4.16-6.14-3.52,.03,.65,1.37,.14,4.92,4.41,.31,.37,.48,.85,.66,1.3,.14,.36,.05,.74-.31,.93-.37,.2-.72,.13-1.05-.18-.81-.77-1.4-1.69-1.96-2.64-.22-.37-.48-.69-.97-.68-.58,.02-.81,.38-.54,.87,.24,.44,.51,.87,.76,1.31,.32,.55,.66,1.09,.96,1.66,.07,.13,.11,.39-.02,.49-.13,.1-.33-.05-.43-.14-.22-.2-.41-.43-.57-.68-.4-.59-.77-1.2-1.15-1.81-.34-.53-.44-.55-.95-.22-.25,.16-.49,.34-.72,.53-.45,.37-.46,.65-.08,1.09,.6,.66,1.2,1.32,1.79,1.99,.18,.21,.32,.47,.08,.72-.17,.18-.44-.03-.6-.16-.56-.44-1.1-.91-1.65-1.36-.17-.14-.36-.22-.46,.05-.14,.4,0,1.61,.45,1.87,.53,.31,1.03,.65,1.53,1,.14,.1,.31,.29,.31,.44,0,.12-.23,.27-.38,.35-.73,.4-3.02,1.65-3.72,2.09-.67,.42-.75,.91-.38,1.61,.15,.28,.28,.56,.42,.84,.2,.39,.31,.4,.62,.09,.61-.61,2.74-2.14,3.37-2.72,.16-.15,.49-.39,.63-.27,.14,.12-.07,.49-.2,.65-1.06,1.23-8.11,7.05-8.6,7.68-.1,.13,.28,.99,.76,1.5,.48,.51,1.25,.79,1.46,.75,.14-.02,6.04-7.51,7.54-8.99,.05-.05,.38-.26,.53-.1,.14,.15,.07,.25,.02,.35-.09,.17-2.2,3.08-2.85,3.84-.09,.1-.15,.34-.09,.43,.33,.53,.67,1.05,1.05,1.54,.18,.24,.43,.25,.57-.11,.1-.26,.21-.53,.36-.76,.6-.94,1.68-3.04,2.35-3.93,.4-.53,.92-.48,1.37,0,.1,.11,1.26,1.3,1.81,1.68,.51,.35,1.28,.63,1.59,.31,.31-.32-.54-.92-.88-1.25-.57-.54-1.13-1.1-1.67-1.66-.22-.23-.18-.5,.04-.72,.24-.24,.4,0,.56,.15,.72,.65,1.4,1.33,2.15,1.94,.97,.79,.89,.98,1.94-.13,.3-.31,.27-.56-.05-.82-.71-.59-1.42-1.18-2.11-1.79-.32-.28-.63-.59-.89-.93-.08-.11-.07-.4,.04-.51,.13-.13,.33-.09,.46-.03,.25,.12,.48,.3,.68,.49,.64,.6,1.25,1.23,1.9,1.82,.14,.13,.44,.26,.57,.2,.15-.07,.27-.36,.28-.55,0-.19-.1-.43-.23-.58-.25-.29-.55-.54-.82-.82-.5-.51-1.05-.98-1.47-1.55-.19-.25-.17-.71-.1-1.05,.02-.11,.84,.1,1.83-.38Zm-4.56,2.81c-.97,1.33-2.74,1.64-3.99,.6-.7-.58-.92-1.44-.88-2.27,.02-1.27,.95-2.23,2.15-2.28,1.69-.08,2.79,.71,3.13,2.22,.14,.64-.04,1.21-.41,1.72Zm.55-6.76c-.02-1.28,1.26-2.53,2.56-2.56,1.54-.04,2.86,1.64,2.85,2.84,0,1.34-1.32,2.6-2.74,2.57-1.52-.03-2.64-1.49-2.67-2.85Z"/><path d="M163.62,34.59c-1.12-.04-1.89,.71-1.93,1.83-.03,.95,.75,1.7,1.77,1.72,.99,.02,1.74-.82,1.76-1.98,.11-.68-.91-1.55-1.61-1.58Zm-.32,2.56c-.37-.08-.64-.07-.67-.57,.02-.65,.38-.78,.86-.74,.37,.03,.52,.27,.52,.62,0,.38-.31,.78-.71,.7Z"/><path d="M169.45,43.79c1.1-.03,1.87-.82,1.83-1.86-.03-.92-.87-1.72-1.81-1.64-.94,.08-1.69,.79-1.67,1.95,.02,.87,.79,1.57,1.64,1.55Zm.13-2.34c.24,.04,.54,.27,.57,.52,.06,.45-.23,.7-.57,.69-.23,0-.76-.04-.77-.61,.02-.59,.59-.62,.76-.59Z"/><path d="M168.24,32.36c.51,.22,.98,.51,1.49,.74,.14,.07,.42,.12,.49,.07,.07-.05,.05-.31-.02-.4-.58-.81-1.16-1.61-2.11-2.03-1.46-.65-2.85-.33-4.11,.45-1.11,.69-2.13,1.55-3.15,2.39-.71,.59-1.18,1.35-1.41,2.27-.52,2.12,.26,3.37,1.77,4.27,.94,.56,2.04,.69,2.38,.7,.34,0,.51,.14,.53,.54,.02,.56-.23,.94-.59,1.3-.72,.71-1.43,1.41-2.15,2.12-.29,.28-.3,.93,0,1.17,.38,.3,.6-.06,.83-.26,.33-.3,.62-.64,.95-.94,.57-.52,1.15-1.03,1.75-1.51,.11-.08,.33-.15,.5,.02,.12,.12,.12,.41,.05,.57-.11,.23-.31,.43-.51,.6-.72,.63-1.45,1.24-2.19,1.85-1.13,.94-1.11,1.26,.12,2.11,.25,.18,.45,.21,.7-.02,1.01-.91,2.04-1.82,3.07-2.71,.13-.11,.36-.34,.57-.12,.43,.43-.06,.92-.18,1.03-.72,.68-1.45,1.34-2.17,2.02-.21,.2-.74,.56-.51,.79,.23,.23,1.3,.12,1.94-.24,.74-.42,1.27-1.03,1.78-1.69,.5-.65,1.04-.7,1.59-.17,1.76,1.69,3.52,3.38,5.28,5.08,1.19,1.15,2.39,2.28,3.81,3.14,.13,.08,.33,.17,.44,.05,.09-.11-.05-.31-.15-.42-2.1-2.26-4.21-4.51-6.3-6.78-.54-.58-1.03-1.21-1.5-1.84-.1-.14-.22-.41-.01-.62,.18-.13,.38,0,.53,.08,.18,.1,.33,.27,.47,.43,1.13,1.27,2.24,2.55,3.37,3.82,.51,.58,9.21,9.66,9.66,9.93,.15,.09,.45,.05,.59-.07,.09-.08,.21-.42,.12-.58-.08-.13-.18-.28-.29-.4-.53-.55-9.53-10.72-11.03-12.44-.55-.63-1.15-1.3-1.69-1.94-.09-.11-.19-.39-.05-.53,.17-.16,.44-.09,.57,0,.36,.25,.72,.54,1.01,.87,2.16,2.47,4.31,4.95,6.47,7.43,.14,.16,.42,.3,.57,.21,.21-.16,.1-.37-.02-.61-.04-.08-.09-.18-.14-.26-.46-.64-.91-1.3-1.4-1.92-1.58-1.99-3.18-3.97-4.77-5.95-.51-.63-1.01-1.26-1.52-1.89-.21-.26-.13-.44,.14-.6,.34-.2,.67-.42,1.02-.61,.87-.46,1.18-1.2,1.11-2.14-.01-.18,.04-.87-.65-.32-.63,.5-1.24,1.04-1.87,1.54-.1,.08-.35,.21-.55,0-.18-.19,.11-.69,.24-.83,.63-.72,1.28-1.42,1.92-2.13,.36-.4,.36-.71-.04-1.06-.34-.29-.71-.53-1.08-.79-.29-.2-.52-.14-.7,.16-.25,.41-.48,.83-.75,1.22-.41,.59-.84,1.18-1.29,1.74-.08,.1-.26,.25-.43,.13s-.11-.36-.05-.49c.13-.32,.33-.61,.5-.91,.48-.84,.98-1.68,1.44-2.54,.07-.14,.08-.42-.01-.52-.35-.41-.99-.39-1.36,.03-.17,.19-.29,.44-.44,.65-.7,.92-1.37,1.85-2.11,2.73-.45,.53-1.17,.31-1.4-.35-.19-.53,.02-.98,.29-1.4,.41-.63,.85-1.25,1.29-1.89,.04-.05,.07-.15,.02-.22-.05-.07-.16-.09-.27-.12-.61-.19-1.12,.04-1.63,.35-.18,.1-.6,.13-.72,0-.12-.14-.06-.51,.05-.69,.26-.44,1.27-.97,1.88-.71Zm.42,7.1c.99-.18,1.93-.28,2.77,.42,.58,.48,.88,1.16,.9,1.69-.01,1.32-.29,2.36-1.38,2.98-.89,.51-1.83,.55-2.73,.09-.44-.22-.85-.57-1.18-.95-1.29-1.46-.1-3.93,1.62-4.24Zm-2.47-2.21c-.44,.97-1.05,1.77-2.19,2.04-1.69,.4-3.55-1.02-3.54-3.03,0-.93,.76-2.11,1.84-2.59,1.05-.47,1.87-.29,2.76,.23,.85,.5,1.69,2.12,1.13,3.36Z"/><path d="M173.83,76.75s.56-.17,1.09-.06c.14,.05,.38,.14,.8,.42,0,0,.44,.3,.5-.44,0,0,.01-.58-.14-1.28,0,0-.26-1.61-2.07-1.59,0,0-1.15,.17-1.15,.17,0,0-.81,.15-.46,.6,0,0,.39,.37,.68,.81,0,0,.24,.45,.2,.92,0,.19,.04,.54,.55,.44Z"/><path d="M160.19,69.6c-.34-.28-.92-.19-1.17,.17-.13,.19-.18,.43-.21,.67-.05,.35-.07,.72,.11,1.02,.26,.45,.84,.57,1.35,.63,.49,.06,1.01,.08,1.45-.13,.41-.2,.71-.59,.88-1.02,.17-.43,.22-.89,.26-1.35,.05-.71,.04-1.43-.19-2.1-.33-.94-1.1-1.53-2.07-1.7-.28-.05-.57-.07-.85-.03-.3,.04-.53,.24-.81,.31-.61,.14-.44-.94-.25-1.31,.26-.52,.33-.67,.91-.79,.16-.04,.33-.05,.48-.13,.24-.12,.39-.41,.36-.68s-.25-.51-.52-.56c-.27-.06-.72,.09-1.05,.24-.29,.13-.86,.46-1.17,.4-.19-.03-.31-.13-.34-.38-.03-.22,.09-.54,.27-.84,.22-.37,.4-.34,.6-.72,.2-.38,.21-.94-.16-1.17-.37-.24-.71-.08-.99,.26-.28,.34-.29,.38-.6,.69-.31,.31-.89,.44-1.16,.09-.23-.35,.29-1.01,.41-1.58,.04-.17,.1-.63,.01-.78-.11-.18-.4-.27-.65-.29-.31-.03-.66-.05-.9,.15-.24,.2-.29,.92-.33,1.28-.02,.27-.06,.56-.26,.74-.27,.24-.71,.14-1-.08-.25-.19-.33-.27-.43-.57-.13-.39-.11-.55-.21-.94-.1-.39-.4-.8-.8-.79-.39,0-.7,.29-.72,.68-.01,.25,.12,.62,.21,.79,.12,.24,.22,.51,.19,.78-.05,.44-.51,.76-.96,.75-.07,0-.15-.01-.22-.03-.36-.08-.68-.32-.9-.62-.26-.35-.26-.54-.4-.74-.25-.36-.85-.47-1.16-.16-.2,.2-.21,.53-.12,.79,.1,.26,.29,.48,.48,.69,.17,.19,.04,.03,.22,.22,.26,.29,.54,.61,.56,1,.02,.28-.1,.55-.22,.8-.16,.34-.39,.74-.77,.75-.26,0-.47-.18-.66-.35-.9-.83-1.59-1.85-2.86-.88-.24,.18-.44,.44-.49,.74-.05,.3,.06,.63,.32,.79,.13,.08,.27,.1,.42,.13,.67,.13,.75,.06,1.43,.18,.17,.03,.34,.07,.48,.17,.14,.1,.24,.28,.18,.44-.05,.15-.22,.24-.38,.27-.43,.1-.88-.03-1.32-.04-.71,0-1.4,.35-1.86,.89-.45,.54-.68,1.27-.65,1.98,.01,.31,.11,.68,.41,.77,.27,.08,.54-.12,.68-.36,.14-.24,.2-.52,.33-.76,.24-.44,.71-.72,1.2-.83,.49-.12,1-.09,1.5-.07l1.5,.07c.22,.01,.45,.02,.66-.07,.53-.22,.66-.93,.79-1.42,.17-.64,.51-1.28,.92-1.8,.31-.39,.64-.71,1.16-.97,.5-.25,1.69-.25,2.15-.21,.41,.04,1.31,.26,1.59,.41,.42,.23,.91,.63,1.16,1.03,.44,.71,.68,1.49,.72,2.33,.02,.48-.1,.97-.03,1.45s.4,.99,.89,.99c.11,0,.22-.03,.31-.09,.17-.12,.21-.34,.28-.54,.19-.56,.7-1.04,1.29-1.04,.42,0,.81,.24,1.09,.56,.28,.32,.46,.7,.64,1.08,.14,.3,.28,.62,.23,.94-.04,.24-.18,.45-.36,.62-.16,.15-.38,.29-.59,.23-.2-.05-.33-.25-.36-.46-.03-.2,.28-.42,.07-.61Z"/><path d="M154.22,67.12c0-.72-.47-1.3-1.06-1.3s-1.27,.62-1.27,1.33,.68,1.26,1.27,1.26,1.06-.58,1.06-1.3Zm-1.61-.02c0-.29,.23-.53,.51-.53s.51,.24,.51,.53-.23,.53-.51,.53-.51-.24-.51-.53Z"/><path d="M147.38,70.54c0-.42-.31-.76-.69-.76s-.69,.34-.69,.76,.31,.75,.69,.75,.69-.34,.69-.75Zm-.98,.01c0-.17,.13-.3,.3-.3s.3,.13,.3,.3-.13,.3-.3,.3-.3-.13-.3-.3Z"/><path d="M182.48,53.35c-.17,.17-.18,.18-.45,.45l.82,.94c.24-.18,.34-.32,.44-.45,0,0,.06-.09,.16-.23,.17-.21,.38-.44,.54-.44,.2-.01,.36,.12,.71,0,.41-.15,.7-1.06,.79-1.33,.19-.6,.36-1.21,.52-1.82,.04-.13,.07-.61-.06-.67-.18-.13-.45,.13-.55,.22-.37,.34-.77,.63-1.27,.77-.16,.04-.32,.12-.47,.2-.49,.25-.76,.78-.71,1.34,0,.06,.01,.18,.06,.31-.05,.16-.18,.35-.31,.51-.13,.12-.22,.2-.22,.2Z"/><path d="M198.43,50.99c-.15-.08-.3-.16-.47-.2-.5-.14-.9-.43-1.27-.77-.1-.09-.38-.35-.55-.22-.13,.06-.09,.54-.06,.67,.16,.61,.33,1.22,.52,1.82,.09,.27,.38,1.19,.79,1.33,.34,.12,.51,0,.71,0,.16,0,.38,.22,.55,.44,.09,.14,.16,.23,.16,.23,.1,.14,.13,.2,.37,.38l.98-.78c-.27-.27-.37-.37-.54-.54,0,0-.09-.08-.22-.2-.13-.16-.26-.35-.31-.51,.04-.13,.05-.25,.06-.31,.05-.56-.22-1.09-.71-1.34Z"/><path d="M230.51,7.53c2.13,.25,11.99,1.18,12,1.17,1.57,.15,1.7,1.7,1.7,1.7l1.13,12.81s0,.23,.12,.23c.12,0,.13-.24,.13-.24,0,0,.02-14.36,0-14.38,0-1.52-1.53-1.53-1.53-1.53h-13.51s-.15,0-.16,.1c-.01,.11,.11,.13,.12,.13Z"/><path d="M225.46,115.93c.39,.39,1.14,.46,1.14,.46h17.36c1.65,0,1.62-1.62,1.62-1.62v-13.86c0-.85-.63-1.32-.63-1.32l-5.3-5.3c-.46-.08-.4,.42-.4,.42,0,0,4,4.79,4.03,4.77,1.05,1.43,.9,2.92,.9,2.92v10.9c0,1.66-1.71,1.71-1.71,1.71,0,0-14.43,.43-14.43,.4-1.66,0-2.94-1.02-2.94-1.02l-2.91-2.6c-.58-.14-.46,.41-.46,.41l3.73,3.73Z"/><path d="M136.64,23.45c.12,0,.12-.23,.12-.23l1.13-12.81s-.01-1.55,1.7-1.7c.02,0,9.87-.92,12-1.17,.01,0,.14-.02,.12-.13-.01-.1-.16-.1-.16-.1h-13.51s-1.53,.01-1.53,1.53c-.02,.02,0,14.38,0,14.38,0,0,.01,.23,.13,.24Z"/><path d="M142.83,94.71s.06-.5-.4-.42l-5.3,5.3s-.63,.46-.63,1.32v13.86s-.02,1.62,1.62,1.62h17.36s.75-.07,1.14-.46l3.73-3.73s.12-.55-.46-.41l-2.92,2.6s-1.29,1.02-2.94,1.02c0,.02-14.43-.4-14.43-.4,0,0-1.71-.1-1.71-1.71v-10.9s-.15-1.48,.9-2.92c.02,.02,4.03-4.77,4.03-4.77Z"/><path d="M206.55,110.55c-3.77-1.8-4.66-3.89-5.39-5.58-.23-.7-1.22-3.53,.13-6.82,.78-1.94,1.87-2.89,2.02-3.03,.01,0,.09-.08,.21-.2l-5.03-5.27,.72-.7,5.22,5.15-.91,.82s1.99,1.83,2.91,2.91c-.03,.16-.13,.29-.07,.58,.08,.38,.85,.74,1.08,.85,.5,.24,1.02,.45,1.54,.66,.11,.05,.48,.14,.59,.03,.11-.12-.06-.41-.13-.51-.26-.37-.47-.75-.53-1.2-.02-.15-.07-.29-.12-.43-.17-.46-.6-.76-1.1-.77-.04,0-.12,0-.21,0-1.06-1.01-3.02-2.9-3.04-2.93,.04-.04,.09-.07,.13-.11,.62-.42,1.28-.85,2.57-1.31,2.76-.95,5.47-1.69,7.91-1.94,1.16-.12,3.96-.34,5.19-.34,7.41,.07,10.86,.11,15.01-2.34,5.66-3.33,11.03-11.18,11.93-18.9,.39-3.35,.86-7.6,.21-12.83,.08,.08-.8-9.02-3.99-16.17h0v-.02c-.09-.17-.17-.34-.25-.51-.07-.19-.13-.37-.11-.47,.08-.17,.12-.27,.11-.6-.02-.77-.31-1.17-.82-1.66-.37-.35-.79-.64-1.17-.98-.29-.26-.54-.55-.81-.83-.06-.06-.12-.13-.18-.2-.07-.07-.09-.07-.07,.04,0,.08,.01,.15,.02,.23,.05,.43,.13,.87,.13,1.3,0,.73,.07,1.44,.32,2.1,.23,.59,.63,.94,1.22,1.09,.05,.01,.13,.02,.21,.03,.06,0,.12,.11,.18,.25,.02,.06,.06,.17,.13,.34v.03h.01c.71,1.97,3.64,10.69,3.48,20.91-.42-.83-1.31-2.91-1.62-3.6-1.18-2.54-2.87-4.73-4.86-6.59,0,0-.23-.19-.53-.4h-.01s-.08-.06-.12-.09c-.17-.13-.45-.39-.39-.7,.07-.4,.25-.92,.04-1.3-.57-1.03-1.26-1.39-2.37-1.74-.79-.25-1.63-.37-2.43-.6-.6-.17-1.19-.41-1.78-.62-.14-.05-.28-.1-.41-.16-.13-.05-.15-.03-.08,.1,.06,.1,.12,.2,.19,.3,.37,.56,.79,1.09,1.09,1.69,.5,1,1.09,1.91,1.93,2.65,.75,.66,1.59,.89,2.57,.72,.09-.01,.22-.06,.38-.1,.07,0,.33-.08,.98,.44,.08,.06,.13,.1,.13,.1,2.97,2.66,3.88,4.71,5.07,8.84,.64,2.22,.71,4.48,.38,6.78-.27,1.88-.71,3.7-1.31,5.5-1.05,3.16-3.42,6.76-5.13,8.2-.71,.6-2.17,1.42-3.51,2.09-2.3,1.16-4.21,.11-5.34-.95-.62-.58-1.58-1.5-2.69-2.59-.24-.4-.97-1.81-.06-3.08,.8-1.1,1.59-1.94,3.13-1.06,1.44,.82,2.93,1.56,4.4,2.32,.36,.19,.59,.17,.83-.18,.1-.14,.3-.75,.04-.86-.75-.3-1.53-.63-2.08-1.23-.22-.24-.39-.52-.56-.81-.23-.4-.45-.85-.34-1.29,.01-.05,.03-.11,.06-.15,.1-.13,.31-.11,.44,0,.13,.1,.2,.25,.27,.4,.19,.34,.45,.63,.7,.92,.25,.29,.52,.58,.85,.78,.42,.24,.91,.4,1.34,.61,.35,.17,.91,.21,1.28,.14,1.46-.29,2.02-1.9,1-2.99-.38-.4-1.01-.57-1.52-.85-.34-.19-.71-.35-1-.6-.57-.5-.83-1.18-.92-1.91-.09-.74-.17-1.48-.25-2.22-.06-.56-.35-1.43,.31-1.74,.34-.16,.7-.06,.84-.03,.13,.04,.25,.1,.37,.17,.74,.42,1.45,.89,2.11,1.43,.59,.47,.42,.35,1.02,.81,.53,.41,1.03-.47,1.16-.67,.25-.37,1.61-2.39,1.78-2.65,.16-.25,.36-.77-.03-1.05-.31-.22-.68-.09-.78,.04-.36,.45-1.19,1.41-1.47,1.76-.18,.23-.5,.61-.84,.36-.4-.3,.02-.82,.16-1.04,.57-.88,.92-1.35,1.49-2.23,.07-.11,.14-.22,.17-.35,.14-.72-.94-1.4-1.37-.77-.36,.53-.46,.71-.86,1.21-.35,.44-.61,.93-.95,1.38-.08,.11-.22,.47-.67,.22-.27-.15-.15-.41-.09-.55,.31-.72,.58-1.12,.92-1.82,.19-.4,.69-.91,.1-1.29-.3-.2-.61-.03-.83,.27-.52,.72-.76,.92-1.22,1.68-.88,1.45-.98,1.93-1.81,1.53-.24-.12-.81-.46-1.07-.66-.42-.32-.41-.8-.21-1.19,.31-.62,.73-1.18,1.06-1.79,.32-.58,.41-.73,.63-1.35,.08-.22,.09-.62-.15-.75-.24-.13-.51-.2-.76-.04-.11,.07-.34,.37-.43,.5-.32,.47-.91,1.55-1.12,1.74-.24,.21-.47,.13-.74-.05-.25-.16-.18-.34-.12-.5,.03-.09,.55-1.07,1.04-1.95,.26-.46,.17-.78-.23-1.06-.42-.29-.94-.12-1.16,.27-.63,1.09-.49,1.28-1.06,2.39-.19,.36-.38,.24-.66,.14-.35-.13-.36-.4-.27-.63,.15-.37,.33-.79,.48-1.21,.19-.54,.31-.96-.11-1.09-.42-.13-.54-.12-.83,.35-.44,.71-1.03,1.94-1.21,2.26-.18,.32-.67,1.07-.05,1.3,.84,.32,2.16,.72,2.86,1.29,.31,.25,.61,.6,.61,1,0,.09-.02,.19-.09,.24-.08,.06-.2,.05-.3,.02-.83-.21-1.54-.81-2.42-.85-2.08-.09-3.94,.55-5.53,1.9-.54,.46-.49,.63,.18,.91,.37,.15,.75,.31,1.21,.51-.2,.21-.31,.34-.43,.45-.38,.36-.77,.7-1.13,1.09-.4,.44-.34,.57,.23,.77,.47,.16,.93,.33,1.44,.52-.15,.19-.21,.3-.3,.39-.91,.87-1.83,1.73-2.75,2.59-.4,.37-.88,.62-1.35,.43-.31-.31-.6-.58-.83-.82-.13-.14-.31-.37-.37-.62-.02-.2,.01-.43,.02-.64,.05-1.25-.56-2.77-2.79-3.15-.82-.14-1.62-.38-2.42-.62-.36-.11-.68-.34-1.08-.56,.71,1.1,1.08,2.25,1.28,3.47,.08,.46,.27,.92,.47,1.34,.46,.97,1.31,1.31,2.32,1.41,.14,.01,.45,.05,.69,.11,0,0,.22,.07,.8,.56,2.48,2.44,5.63,5.55,8.31,8.22,.26,.25,.52,.5,.75,.75,.16,.16,.3,.32,.46,.46,.53,.49,.68,1.05,.47,1.59-.24,.65-.73,.95-1.4,1.14-1.88,.54-4.81-.31-6.76-.68-1.32-.17-2.83-.27-4.56-.21-.08-.14-.16-.28-.24-.43-.2-.37-.37-.76-.55-1.14h0s.09-.07,.14-.1c.32-.2,.59-.46,.84-.73,.1-.11,.21-.21,.29-.33,.13-.2,.26-.4,.37-.61,.13-.25-.08-.82-.29-1-.05-.04-.11-.06-.17-.08-.31-.13-.61-.26-.92-.38-.22-.08-.48-.22-.71-.23-.1,0-.2,.03-.25,.11-.05,.08-.07,.2-.11,.29-.1,.24,.01,.4,.18,.48,.22,.11,.41,.26,.62,.39,.2,.13,.3,.2,.12,.35-.22,.19-.32,.35-.54,.53-.12,.1-.25,.2-.39,.27-.38,.18-.51,.24-.92,.34-.1,.03-.2,.03-.3,.02-.14-.03-.22-.13-.21-.27,0-.06,0-.11,.01-.17,.01-.14,.01-.28,.03-.42,.02-.12-.08-.3-.18-.4-.07-.07-.25-.08-.34-.08-.22-.01-.38,.04-.43,.26-.06,.3-.14,.6-.2,.9-.04,.16-.06,.33-.09,.5h0s0,.06,0,.09c.04,.38,.3,.88,.71,.97,.24,.05,.47,0,.71,0,.06,0,.12,0,.18-.02,.23-.06,.46-.13,.7-.19,.08-.02,.15-.05,.23-.07,.2,.41,.42,.82,.65,1.22-1.16,.09-2.42,.25-3.79,.51-2.35,.46-3.94,.39-6.23,.12-2.67-.31-3.16-.94-3.7-3.14-.07-.37-.12-.66-.16-.94-.07-.42-.27-.78-.63-1-.5-.31-.85-.09-1.06,.41,0,0-.19,.51,.08,1.68,.18,.78,.56,1.93,.41,2.31-.57,1.49-1.72,2.11-2.28,2.27-.66,.18-1.66,.19-2.38,.1-.43-.05-1.03-.23-1.28-.66-.14-.25-.25-.86-.25-1.15,.02-.89,.21-1.42,.9-1.8,.35-.19,.81-.29,.99-.67,.21-.44,.06-.76-.33-1.06-.39-.3-.84-.37-1.33-.26-.23,.05-.37,.24-.61,.24-.24,0-.38-.19-.61-.24-.5-.11-.94-.03-1.33,.26-.39,.29-.54,.61-.33,1.06,.18,.38,.64,.48,.99,.67,.69,.38,.88,.91,.9,1.8,0,.29-.1,.9-.25,1.15-.25,.43-.85,.61-1.28,.66-.73,.09-1.72,.09-2.38-.1-.56-.15-1.71-.78-2.28-2.27-.15-.38,.23-1.53,.41-2.31,.27-1.17,.08-1.68,.08-1.68-.21-.5-.56-.72-1.06-.41-.36,.22-.55,.57-.63,1-.05,.27-.09,.57-.16,.94-.54,2.21-1.03,2.83-3.7,3.14-2.29,.27-3.88,.33-6.23-.12-1.54-.3-2.95-.47-4.23-.54,.25-.37,.44-.65,.53-.78,.38-.53,1.18-.23,1.47-.64,.4,.09,.71,.1,.7,.09,.45-.08,.46,.37,.47,.36,.05,.23,.19,.5,.19,.52,.6,.99,1.13,.4,1.13,.4,.53-.47,.35-1.09,.35-1.1-.12-.22-.07-.38-.07-.38,.04-.21,.3-.02,.29,0,1.03,.78,1.89,.57,1.88,.57,.97-.16,1.52-.92,1.53-.94,.28-.29-.11-.33-.11-.33-.16-.01-.37-.18-.37-.18-.25-.28-.27-.6-.28-.6,.03-.93-.36-1.61-.37-1.61-.68-1.37-1.9-1.5-1.89-1.51-.79-.18-1.59,.37-1.58,.36h0s-.05,.03-.11,.03c-.02,0-.04,0-.06,0h-.02v-.02h-.02v-.02h-.02s-.01-.04-.02-.06c0-.06,0-.12,0-.12h0s.32-.91-.06-1.63c0,0-.44-1.14-1.94-1.44,0,0-.76-.2-1.65,.06,0-.02-.32,.06-.65-.12,0,0-.22-.16-.27-.31,0,0-.14-.37-.35-.02-.01,.02-.61,.74-.51,1.72,0,0,.01,.88,1.03,1.67,0,0,.27,.19,.07,.29,0,0-.14,.1-.38,.03,0,0-.65,0-.97,.62,0,0-.43,.67,.68,.99,.02,0,.32,.07,.55,.05,0,.02,.44-.09,.47,.36,0,0,.07,.32,.28,.71-.54,.75,.3,.85-.44,1.77-.3,.37-.58,.75-.86,1.14-1.42-.01-2.68,.08-3.8,.23-1.95,.38-4.88,1.22-6.76,.68-.67-.19-1.15-.49-1.4-1.14-.2-.55-.06-1.1,.47-1.59,.16-.14,.31-.31,.46-.46,.23-.25,.49-.5,.75-.75,2.68-2.67,5.83-5.78,8.31-8.22,.58-.5,.8-.56,.8-.56,.25-.06,.55-.1,.69-.11,1.01-.1,1.87-.44,2.32-1.41,.2-.43,.4-.88,.47-1.34,.2-1.22,.56-2.37,1.28-3.47-.41,.21-.73,.45-1.08,.56-.8,.24-1.6,.48-2.42,.62-2.23,.39-2.84,1.9-2.79,3.15,0,.21,.04,.43,.02,.64-.05,.24-.19,.44-.32,.58l-.03,.02c-.89,.87-2.42,2.37-4.08,4.01-.36,.21-.64,.24-.8,.16-.29-.14-.56-.39-.73-.68-.74-1.19-1.28-2.68-1.46-4.06-.02-.14-.03-.28-.1-.4-.05-.09-.12-.17-.19-.24-.43-.41-1.09-.67-1.23-1.25-.04-.16-.03-.34-.04-.51-.02-.62-.2-1.23-.38-1.83-.14-.48-.3-.98-.63-1.35-.67-.76-1.86-.79-2.84-.52-.59,.17-1.19,.44-1.54,.95-.3,.43-.39,.98-.39,1.5,0,.31,.02,.63-.06,.93-.18,.66-.92,1.12-1.59,.98-.28-.06-.54-.21-.81-.31-.92-.37-2.02-.24-2.83,.33-.14,.1-.28,.22-.35,.37-.06,.13-.2,.4-.22,.54-.1,.65-.08,.92,.12,1.75,.07,.3,.24,.59,.44,.83,.2,.24,.56,.37,.82,.2,.79-.49-.59-1.3-.3-2.32,.22-.76,1.55-1.78,2.07-.81,.1,.18,.18,.29,.26,.49,.08,.19,.15,.42,.35,.46,.23,.05,.36-.1,.53-.26,.66-.6,1.48-.72,2.35-.9,.11-.02,.23-.05,.32-.12,.17-.13,.19-.38,.17-.59-.05-.71-.35-1.42-.22-2.12,.02-.13,.06-.27,.14-.38,.12-.17,.42-.37,.61-.45,.52-.21,.97-.32,1.52-.22,.66,.11,1.19,.66,1.4,1.29,.21,.63,.14,1.33-.04,1.97-.06,.21-.13,.45,0,.63,.05,.07,.11,.12,.18,.17,.62,.45,1.27,.92,1.59,1.62,.2,.43,.24,.92,.27,1.39,.04,.7,.06,1.49-.16,2.17-.13,.39-.35,1.26-1.01,2.18,0,0-1.51,1.95-4.05,2.17,0,0-1.19,.17-2.32-.11,0,0-.51-.28,.34-.73,0,0,4.3-2.26,3.96-5.54,0,0-.28-2.77-2.49-1.13-.33,.24-.66,.47-.99,.71-.49,.35-.89,.62-1.4,.94-.28,.17-.84,.52-1.03,.64-.58,.37-.79,.35-1.48,.23-.45-.08-1.09-.18-1.09,.47v.96s-.06,.85,.85,.62c0,0,1.43-.23,3.79-1.75l1.7-1.41s1.05-1.17,1.02,.34c.04,2.15-2.15,3.95-4.14,4.21-.29,.04-.58,.05-.85,.15-.67,.23-.78,.78-.27,1.24,0,0,1.7,1.38,4.13,1.41,0,0,1.3,.06,2.37-.57,.3-.21,.73-.22,1.07-.13,.37,.09,.61,.27,.86,.39-.92,.9-1.71,1.66-2.25,2.16-1.13,1.05-3.04,2.11-5.34,.95-1.34-.67-2.79-1.49-3.51-2.09-1.71-1.44-4.08-5.04-5.13-8.2-.6-1.8-1.04-3.62-1.31-5.5-.33-2.3-.25-4.56,.38-6.78,1.18-4.13,2.1-6.18,5.07-8.84,0,0,.11-.08,.25-.2,.55-.45,.8-.36,.83-.35,.16,.04,.32,.09,.41,.11,.98,.17,1.83-.06,2.57-.72,.84-.75,1.43-1.65,1.93-2.65,.3-.6,.72-1.13,1.09-1.69,.06-.1,.12-.2,.19-.3l-.08-.1c-.14,.05-.27,.11-.41,.16-.59,.21-1.18,.45-1.78,.62-.8,.22-1.63,.35-2.43,.6-1.11,.34-1.8,.71-2.37,1.74-.21,.38-.02,.92,.06,1.3,.01,.25-.07,.43-.17,.55-.46,.28-.91,.64-.91,.64-1.99,1.86-3.68,4.05-4.86,6.59-.32,.68-1.2,2.76-1.63,3.6-.18-11.62,3.63-21.32,3.63-21.32h0c.07-.02,.14-.03,.17-.04,.59-.15,.99-.5,1.22-1.09,.25-.67,.33-1.37,.32-2.1,0-.44,.08-.87,.13-1.3,0-.08,.01-.15,.02-.23l-.07-.04c-.06,.07-.12,.14-.18,.2-.27,.28-.52,.57-.81,.83-.38,.34-.8,.63-1.17,.98-.52,.49-.8,.89-.82,1.66-.01,.34,.06,.48,.16,.69,.02,.08,.02,.17,0,.26-3.36,7.22-4.28,16.71-4.2,16.63-.65,5.22-.18,9.47,.21,12.83,.9,7.72,6.27,15.57,11.93,18.9,4.15,2.44,7.59,2.4,15.01,2.34,1.23,0,4.03,.22,5.19,.34,2.44,.25,5.16,.99,7.91,1.94,1.29,.45,1.95,.89,2.57,1.31,.04,.03,.09,.07,.13,.11-.02,.02-1.98,1.91-3.04,2.93-.09-.01-.17,0-.21,0-.5,.01-.93,.31-1.1,.77-.05,.14-.1,.29-.12,.43-.06,.45-.27,.84-.53,1.2-.07,.1-.21,.43-.13,.51s.48,.02,.59-.03c.52-.21,1.03-.42,1.54-.66,.23-.11,1-.47,1.08-.85,.06-.29-.04-.42-.07-.58,.92-1.08,2.91-2.91,2.91-2.91l-.91-.82,5.15-5.08,.72,.7-4.96,5.19c.12,.11,.2,.19,.21,.2,.15,.15,1.25,1.09,2.02,3.03,1.35,3.29,.36,6.12,.13,6.82-.73,1.7-1.62,3.78-5.39,5.58,.01,0-3.11,1.02-4.82,1.44-1.33,.33-2.75,.71-4.13,.93,7.39,3.6,15.74,5.55,24.46,5.55s17.07-1.94,24.46-5.55c-1.38-.22-2.81-.61-4.13-.93-1.72-.42-4.84-1.44-4.82-1.44Zm29.02-37.72c.6-.01,1.22,.59,1.23,1.18,0,.5-.37,.92-.85,.93-.63,.02-1.33-.64-1.32-1.25,0-.45,.45-.86,.94-.86Zm-6.47-1.29s-.02,.07-.03,.1c0,.02-.01,.04-.02,.06-.02,.03-.04,.05-.07,.07-.19,.12-.44,.11-.67,.09-.3-.03-2.57-.34-2.3-1.03,.1-.26,.58-.62,.79-.56,.56,.15,1.11,.3,1.64,.53,.16,.07,.47,.16,.6,.25,.17,.11,.11,.3,.06,.48Zm1.71-5.99c.92,.29,1.2,1.07,1.13,2.1-.04,1.88-1.35,2.47-3,2.1-1.3-.29-2.02-1.53-1.74-2.43,.28-.91,.92-1.54,1.75-1.79,.57-.17,1.27-.17,1.86,.02Zm-8.27-.89c1.01-1.78,6.22-1.91,7.42-.15-2.47,.93-4.93,.83-7.42,.15Zm-.23,2.62c.53-.73,.96-1.45,1.85-1.68,.1,.43-.44,1.76-.82,1.86-.31,.08-.68-.04-1.04-.18Zm-2.58,5.5c1.01-.73,1.98-1.45,2.98-2.14,.13-.09,.42-.12,.56,0,.14,.15-.06,.36-.15,.5-.51,.76-.98,1.51-1.78,2.08-.77,.55-.88,.49-1.6-.45Zm1.74,1.75c1.05-.78,1.86-1.86,3.02-2.52,.11-.07,.24,0,.24,.15-.05,.17-.12,.37-.22,.5-.58,.74-1.16,1.5-1.81,2.19-.55,.58-.76,.51-1.23-.32Zm2.06,2.33c-.21-.21-.43-.42-.64-.63-.05-.11-.07-.3-.01-.34,.55-.49,1.12-.95,1.73-1.46,.1-.08,.15-.02,.18,0,.7,.74-.59,1.76-1.25,2.43Zm1.29-7.14c-.2-.1-.41-.47-.38-.68,.08-.55,.27-1.08,.47-1.61,.05-.13,.2-.27,.42-.28,.14,0,.24,.21,.27,.35,.08,.38,.12,.78,.19,1.29,.02,.26-.01,.59-.18,.83-.12,.16-.57,.2-.78,.1Zm-54.46,9.27s1.43-.54,1.43-.54c0,0,.21-.09,.38-.04,.09,.15,.06,.38,.06,.38,0,0-.14,1.51-.15,1.52-.1,.9-.5,.99-.49,.98-.84,.1-1.97-.81-2.04-1.57,0,0-.02-.4,.82-.73Zm-12.81-3.33c.47-.36,1.37,.07,1.59,.62-.21,.21-.42,.41-.63,.62-.26-.03-.53-.06-.79-.1h-.08c-.08-.02-.16-.03-.23-.08-.12-.08-.17-.23-.17-.38,0-.26,.1-.53,.31-.68Zm-2.1,2.62c-.04-.84,1.27-.38,1.68-.02-.27,.26-.53,.52-.79,.77h0c-.18-.04-.35-.12-.51-.23-.18-.12-.36-.3-.37-.51Zm35.59,7.95s0-.17,0-.45c0,.28,0,.45,0,.45,.7,.61,2.62,.76,3.56,.91-.8,.92-2.18,1.46-3.56,1.46s-2.76-.53-3.56-1.46c.94-.14,2.85-.29,3.56-.91Zm1.99,11.73c.02,.63-.17,1.46-.73,1.84-.13,.09-.18,0-.3-.05-.11-.05-.22-.09-.34-.11-.18-.03-.42-.04-.6-.04-.19,0-.34,0-.53,.02-.1,.01-.19,.03-.28,.08-.05,.03-.1,.07-.16,.1-.11,.04-.25,0-.34-.09-.38-.38-.63-.99-.63-1.74,0-1.17,.72-2.33,1.24-2.79,.57-.51,.84-.52,1.4,0,.75,.69,1.24,1.79,1.27,2.8Zm-8.9,8.08c-.06,.1-.13,.19-.2,.29-.19,.24-.38,.47-.57,.71-.1,.12-.2,.24-.34,.31-.14,.07-.32,.08-.44-.02-.14-.12-.13-.34-.11-.52,.02-.15,.05-.31,.09-.46,.38-1.61,1.1-3.27,2.34-4.4,.33-.3,1.38-.8,1.74-.3,.24,.33-.02,.94-.13,1.27-.13,.38-.27,.64-.55,.92-.1,.1-.22,.17-.34,.24-.11,.06-.21,.12-.31,.2-.16,.14-.26,.35-.44,.48-.05,.04-.1,.06-.14,.1-.14,.13-.3,.39-.36,.57-.07,.2-.11,.42-.22,.61Zm2.18,6.14c-.07,.14-.11,.31-.15,.48-.04,.19-.06,.38-.09,.55-.07,.44-.19,1.27-.77,.73-.31-.29-.49-.92-.63-1.32-.19-.56-.13-1.09,.07-1.66,.11-.31,.31-.47,.56-.67,.27-.21,.53-.44,.81-.63,.09,.22,.19,.46,.27,.69,.14,.36,.34,.74,.35,1.04,0,.3-.31,.54-.43,.79Zm9.35-3.61c-.04,.57-.14,1.13-.25,1.68-.43,2.09-.88,2.79-1.47,3.15-.1,.06-1.02,.55-1.14,.61-.51,.25-1.23,.6-1.61,.72-.06,.43-.12,.91-.14,1.01-.06,.25-.32,.36-.5,.15-.07-.08-.13-.18-.19-.29-.06-.1-.09-.23-.14-.35-.12-.3-.21-.63-.28-.97-.03-.15-.13-.33-.1-.68,.02-.16,.8-.37,.87-.39,.37-.1,.72-.23,1.08-.34,1.12-.34,1.92-1.06,2.09-2.75,.15-1.54,.47-3.04,.03-4.62-.39-1.39-1.12-2.01-2.15-2.26-1.67-.39-2.92,.32-3.47,2.43-.43,1.64,.05,3.67,1.23,4.43,.6,.38,1.09,.47,1.55,.01,.4-.4,.46-1.88,.43-2.07,0-.06-.03-.13-.07-.17-.07-.07-.53-.06-.61,0-.08,.06-.12,.15-.14,.25-.02,.1-.02,.19-.03,.29-.04,.4-.14,.52-.51,.52-.1,0-.24,0-.42-.18-.42-.42-.52-1-.44-1.52,.09-.62,.14-.66,.37-1.2,.35-.83,1.29-1.31,2.09-1.09,.67,.19,.93,.84,.96,1.63,.05,1.12,.02,1.97-.06,3.08-.07,.93-.44,1.55-1.1,1.94-.72,.43-1.19,.57-1.96,.59-.34,0-.9-.17-1.18-.45-1.41-1.41-2.02-2.72-2.15-4.99-.07-1.22,.42-2.4,.87-3.38,.23-.5,.75-1.05,1.04-1.5,.95-1.49,2.29-1.31,3.51-1.22,1.55,.12,1.96,.98,2.71,1.68,1.07,1,1.19,2.68,1.32,4.26,.06,.67,.02,1.33-.03,2.01Zm2.5,3.38c-.03,.41-.05,1.06-.28,1.41-.42,.64-.71-.15-.88-.57-.06-.16-.13-.34-.21-.52-.07-.16-.15-.32-.25-.45-.17-.23-.53-.4-.58-.69-.06-.29,.08-.8,.1-1.1,.02-.24,.05-.47,.08-.71,.3,.12,.59,.31,.89,.46,.29,.14,.51,.27,.68,.55,.32,.52,.49,1.03,.44,1.61Zm1.67-4.89c-.11,.11-.3,.11-.44,.05-.14-.06-.25-.18-.36-.29-.21-.22-.41-.45-.61-.68-.08-.09-.16-.18-.22-.27-.12-.18-.17-.4-.25-.6-.07-.17-.25-.43-.39-.55-.05-.04-.1-.06-.15-.09-.18-.12-.29-.33-.46-.46-.1-.08-.21-.13-.32-.19-.12-.06-.25-.13-.35-.22-.3-.26-.45-.52-.6-.89-.13-.32-.42-.93-.2-1.26,.33-.52,1.41-.08,1.75,.21,1.3,1.07,2.11,2.69,2.57,4.27,.04,.15,.08,.3,.11,.45,.04,.18,.06,.4-.08,.53Z"/></g><g><polygon points="22.67 88.71 13.21 88.71 13.21 80.53 11 80.53 11 99.75 13.21 99.75 13.21 90.86 22.67 90.86 22.67 99.75 24.88 99.75 24.88 80.53 22.67 80.53 22.67 88.71"/><path d="M49.68,83.07c-.72-.91-1.63-1.64-2.68-2.17-2.11-1.05-5.09-1.05-7.21,0-1.06,.52-1.97,1.25-2.7,2.17-.72,.9-1.28,1.98-1.65,3.2-.37,1.21-.56,2.51-.56,3.88s.19,2.67,.56,3.88c.38,1.22,.93,2.29,1.65,3.2,.73,.92,1.64,1.65,2.7,2.17,1.07,.53,2.28,.8,3.61,.8s2.54-.27,3.6-.8c1.05-.52,1.96-1.25,2.68-2.17,.72-.9,1.28-1.98,1.66-3.2,.37-1.21,.56-2.51,.56-3.88s-.19-2.67-.56-3.88c-.38-1.22-.94-2.3-1.66-3.2Zm-6.29-.82c.99,0,1.87,.21,2.63,.61,.77,.41,1.43,.97,1.97,1.67,.54,.7,.96,1.55,1.25,2.5,.29,.97,.44,2.02,.44,3.11s-.15,2.14-.44,3.11c-.29,.95-.71,1.79-1.25,2.5-.54,.7-1.2,1.26-1.97,1.67-1.52,.81-3.73,.81-5.26,0-.77-.41-1.44-.97-1.98-1.67-.54-.71-.97-1.55-1.26-2.5-.29-.96-.44-2.01-.44-3.11s.15-2.15,.44-3.11c.29-.95,.71-1.79,1.26-2.5,.54-.7,1.2-1.26,1.98-1.67,.76-.41,1.65-.61,2.64-.61Z"/><polygon points="61.84 82.68 67.69 82.68 67.69 99.75 69.91 99.75 69.91 82.68 75.79 82.68 75.79 80.53 61.84 80.53 61.84 82.68"/><polygon points="90.21 90.86 99.78 90.86 99.78 88.71 90.21 88.71 90.21 82.68 100.39 82.68 100.39 80.53 88 80.53 88 99.75 100.5 99.75 100.5 97.61 90.21 97.61 90.21 90.86"/><polygon points="116.07 97.61 116.07 80.53 113.85 80.53 113.85 99.75 125.52 99.75 125.52 97.61 116.07 97.61"/></g><g><polygon points="145.76 140.41 139.08 124.5 136.5 124.5 136.5 143.72 138.8 143.72 138.8 129.31 144.81 143.72 146.71 143.72 152.64 129.33 152.64 143.72 154.94 143.72 154.94 124.5 152.36 124.5 145.76 140.41"/><polygon points="194.05 124.5 191.32 124.5 185.8 132.02 180.39 124.5 177.63 124.5 184.38 133.86 177.17 143.72 179.95 143.72 185.79 135.7 191.6 143.72 194.4 143.72 187.26 133.86 194.05 124.5"/><rect x="198.52" y="124.5" width="2.3" height="19.22"/><path d="M220.48,136.38c-.07,.66-.22,1.31-.5,1.92-.32,.72-.74,1.36-1.26,1.9-.52,.54-1.14,.99-1.84,1.31-1.63,.77-3.66,.58-5.1-.14-.85-.42-1.57-.98-2.16-1.68-.59-.71-1.05-1.55-1.36-2.49-.31-.96-.48-2.01-.48-3.1s.16-2.14,.48-3.1c.31-.95,.77-1.79,1.35-2.49,.59-.7,1.31-1.26,2.16-1.68,1.38-.68,3.28-.83,4.87-.32,.62,.2,1.18,.49,1.68,.87,.49,.37,.91,.83,1.24,1.37,.32,.51,.53,1.1,.63,1.75h2.31v-.03c0-.08,0-.13-.12-.64-.08-.35-.21-.75-.4-1.21-.2-.47-.47-.97-.83-1.48-.37-.53-.85-1.03-1.43-1.49-.58-.45-1.29-.83-2.12-1.12-.84-.3-1.83-.45-2.96-.45-1.42,0-2.73,.26-3.87,.79-1.14,.52-2.12,1.25-2.91,2.16-.78,.9-1.38,1.98-1.79,3.2-.41,1.21-.61,2.52-.61,3.89s.2,2.68,.61,3.89c.41,1.22,1.01,2.3,1.79,3.21,.79,.91,1.77,1.64,2.9,2.16,1.15,.52,2.45,.79,3.87,.79,1.06,0,2.08-.2,3.04-.6,.94-.4,1.78-.96,2.5-1.68,.71-.71,1.3-1.56,1.76-2.53,.43-.9,.69-1.9,.81-2.96h-2.3Z"/><path d="M245.24,130.22c-.41-1.23-1.02-2.3-1.79-3.2-.78-.91-1.76-1.64-2.89-2.16-2.27-1.05-5.44-1.05-7.73,0-1.14,.52-2.12,1.25-2.9,2.16-.78,.9-1.38,1.98-1.79,3.21-.41,1.21-.61,2.52-.61,3.89s.2,2.68,.61,3.89c.41,1.23,1.02,2.3,1.79,3.2,.79,.92,1.77,1.64,2.91,2.16,1.14,.52,2.45,.79,3.87,.79s2.72-.26,3.86-.79c1.13-.52,2.11-1.25,2.89-2.16,.78-.9,1.38-1.98,1.79-3.21,.41-1.21,.61-2.52,.61-3.89s-.2-2.68-.61-3.89Zm-1.69,3.89c0,1.09-.16,2.14-.48,3.1-.31,.95-.77,1.79-1.36,2.49-.58,.7-1.3,1.26-2.14,1.68-1.67,.82-4.1,.82-5.78,0-.85-.42-1.57-.98-2.15-1.68-.59-.71-1.05-1.54-1.36-2.49-.31-.96-.48-2.01-.48-3.1s.16-2.14,.48-3.1c.31-.95,.77-1.79,1.36-2.49,.58-.7,1.31-1.26,2.15-1.68,.84-.41,1.82-.62,2.9-.62s2.05,.21,2.88,.62c.84,.42,1.56,.98,2.15,1.68,.59,.7,1.04,1.54,1.36,2.49,.31,.96,.48,2.01,.48,3.1Z"/><polygon points="162.53 134.83 172.89 134.83 172.89 132.68 162.53 132.68 162.53 128.79 160.24 128.79 160.24 143.72 173.67 143.72 173.67 141.57 162.53 141.57 162.53 134.83"/><rect x="160.24" y="124.5" width="13.31" height="2.15"/></g></svg>