<?xml version="1.0" encoding="utf-8"?>
<!-- Generator: Adobe Illustrator 23.1.0, SVG Export Plug-In . SVG Version: 6.00 Build 0)  -->
<svg version="1.1" id="Ebene_1" xmlns="http://www.w3.org/2000/svg" xmlns:xlink="http://www.w3.org/1999/xlink" x="0px" y="0px"
	 width="144px" height="75px" viewBox="0 0 144 75" style="enable-background:new 0 0 144 75;" xml:space="preserve">
<style type="text/css">
	.st0{clip-path:url(#SVGID_2_);fill:#FFFFFF;}
	.st1{clip-path:url(#SVGID_4_);fill:#FFFFFF;}
	.st2{clip-path:url(#SVGID_6_);fill:#FFFFFF;}
	.st3{clip-path:url(#SVGID_8_);fill:#FFFFFF;}
	.st4{clip-path:url(#SVGID_10_);fill:#FFFFFF;}
</style>
<g>
	<g>
		<defs>
			<rect id="SVGID_1_" width="144" height="75"/>
		</defs>
		<clipPath id="SVGID_2_">
			<use xlink:href="#SVGID_1_"  style="overflow:visible;"/>
		</clipPath>
		<path class="st0" d="M23.6,52.2c3.1,9.6,1.3,13.3-1.2,18.3c-0.7,1.4-1.4,2.9-2.1,4.5c1-0.8,2-1.6,3.1-2.4c3.1-2.2,6.3-4.5,7-9.3
			c0.7-5.7,2.2-12.2,2.6-13.6L23.6,52.2z"/>
	</g>
	<g>
		<defs>
			<rect id="SVGID_3_" width="144" height="75"/>
		</defs>
		<clipPath id="SVGID_4_">
			<use xlink:href="#SVGID_3_"  style="overflow:visible;"/>
		</clipPath>
		<path class="st1" d="M4.4,0c23.7,27.2,19.1,41.7,16,46.7l-0.1,0.1c0,0,0,0-20.4,9.7l40.3-10.9c-0.5-1.2-2.5-2.3-5.2-2.3
			c-0.5,0-1.1,0-1.5,0.1c-1.8-0.1-2.4-5.2-3.2-13.3c-0.1-1.5-0.3-3-0.4-4.4C29.3,17.3,15.2,4.5,4.4,0"/>
	</g>
	<g>
		<defs>
			<rect id="SVGID_5_" width="144" height="75"/>
		</defs>
		<clipPath id="SVGID_6_">
			<use xlink:href="#SVGID_5_"  style="overflow:visible;"/>
		</clipPath>
		<path class="st2" d="M105.4,47.8h-6.6v0.8h5.4l-5.5,7.7v0.8h6.8v-0.8h-5.6l5.5-7.7V47.8z M97,47.8h-1v9.4h1V47.8z M89.3,52.7h4.5
			v-0.8h-4.5v-3.2h4.9v-0.8h-5.8v9.4h6v-0.8h-5.1C89.3,56.4,89.3,52.7,89.3,52.7z M75.2,47.8h-1.1l2.8,9.4h1.2l2.3-8l0,0l2.3,8h1.2
			l2.8-9.4h-1.1l-2.3,8l0,0l-2.3-8h-1.2l-2.3,8l0,0L75.2,47.8z M65.7,57.2h1v-4.4h5.1v4.4h1v-9.4h-1v4h-5.1v-4.1h-1V57.2z
			 M63.3,55.2c-0.6,1-1.7,1.4-2.8,1.4c-2.4,0-3.9-1.9-3.9-4.1c0-2.2,1.5-4.1,3.9-4.1c1.2,0,2.1,0.6,2.5,1.3l0.8-0.6
			c-0.6-1-2-1.5-3.4-1.5c-2.8,0-4.9,2.1-4.9,5s2,5,4.9,5c1.7,0,2.9-0.8,3.5-1.8L63.3,55.2z M54.1,48.7c-0.4-0.6-1.4-1.2-2.6-1.2
			c-1.4,0-3,0.7-3,2.5c0,1.7,1.3,2.2,2.5,2.6c1.2,0.4,2.3,0.7,2.3,2c0,1.2-1.2,1.8-2.1,1.8s-1.7-0.5-2.1-1.2l-1,0.7
			c0.6,1,1.8,1.4,3,1.4c1.5,0,3.1-0.8,3.1-2.8c0-1.9-1.5-2.3-2.8-2.8c-1.1-0.3-2-0.6-2-1.8c0-1.2,1.1-1.8,2-1.8c0.8,0,1.6,0.4,1.9,1
			L54.1,48.7z"/>
	</g>
	<g>
		<defs>
			<rect id="SVGID_7_" width="144" height="75"/>
		</defs>
		<clipPath id="SVGID_8_">
			<use xlink:href="#SVGID_7_"  style="overflow:visible;"/>
		</clipPath>
		<path class="st3" d="M89,42.1l-4.4-5.3l4.2-4.5h-3l-3.5,4l0,0v-4H80V42h2.3v-4.5l0,0l3.6,4.5H89V42.1z M77.4,42.1v-9.7h-2.3
			l0.1,6.3l0,0l-3.9-6.3h-2.6v9.7h2.2l-0.1-6.3l0,0l3.9,6.3H77.4z M63.2,38.3h-2.4l1.3-3.4L63.2,38.3z M67.3,42.1l-4-9.7h-2.3
			l-4.1,9.7h2.5l0.7-1.9h3.8l0.7,1.9H67.3z M53.7,39c0,1-1,1.2-1.7,1.2h-1.3V38H52C53.1,38,53.7,38.2,53.7,39 M53.4,35.1
			c0,0.7-0.5,1.1-1.4,1.1h-1.3v-2h1.2C52.9,34.2,53.4,34.5,53.4,35.1 M56.1,39.2c0-1.3-0.8-2.1-2-2.3l0,0c1-0.3,1.6-1.1,1.6-2.1
			c0-2-1.8-2.5-3.3-2.5h-3.9V42h3.9C54.3,42.1,56.1,41.4,56.1,39.2"/>
	</g>
	<g>
		<defs>
			<rect id="SVGID_9_" width="144" height="75"/>
		</defs>
		<clipPath id="SVGID_10_">
			<use xlink:href="#SVGID_9_"  style="overflow:visible;"/>
		</clipPath>
		<path class="st4" d="M144,26.7v-2h-4.5v-2h4v-1.9h-4v-1.8h4.3v-2h-6.6v9.7H144z M135.8,16.9h-2.6l-2.2,7h-0.1l-2.2-7H126l3.7,9.7
			h2.3L135.8,16.9z M124.6,16.9h-2.3v9.7h2.3V16.9z M120.8,18.9v-2h-7.9v2h2.8v7.7h2.3v-7.7C117.9,18.9,120.8,18.9,120.8,18.9z
			 M109.4,22.8h-2.4l1.3-3.4L109.4,22.8z M113.4,26.7l-4-9.7h-2.3l-4.1,9.7h2.5l0.7-1.9h3.8l0.7,1.9H113.4z M101.7,26.7v-9.7h-2.3
			l0.1,6.3l0,0l-3.9-6.3h-2.6v9.7h2.3l-0.1-6.3l0,0l3.9,6.3H101.7z M88.2,19.9c0,1-1,1.2-1.7,1.2h-1.2v-2.3h1.4
			C87.4,18.8,88.2,19,88.2,19.9 M91.2,26.7l-2.5-4.2c1.3-0.4,2-1.4,2-2.6c0-2.2-1.9-3-3.7-3h-3.7v9.7h2.3v-3.9h0.8l2.1,3.9h2.6V26.7
			z M81,26.7v-2h-4.5v-2h4v-1.9h-4v-1.8h4.3v-2h-6.6v9.7H81z M72.8,18.9v-2h-7.9v2h2.8v7.7h2.3v-7.7C69.9,18.9,72.8,18.9,72.8,18.9z
			 M65.3,26.7v-2h-3.8v-7.7h-2.3v9.7H65.3z M53.7,22.8h-2.4l1.3-3.4L53.7,22.8z M57.8,26.7l-4.1-9.7h-2.3l-4.1,9.7h2.5l0.7-1.9h3.8
			l0.7,1.9H57.8z"/>
	</g>
</g>
</svg>
