<?xml version="1.0" encoding="utf-8"?>
<!-- Generator: Adobe Illustrator 21.1.0, SVG Export Plug-In . SVG Version: 6.00 Build 0)  -->
<svg version="1.1"
	 id="svg2" xmlns:cc="http://creativecommons.org/ns#" xmlns:dc="http://purl.org/dc/elements/1.1/" xmlns:rdf="http://www.w3.org/1999/02/22-rdf-syntax-ns#" xmlns:svg="http://www.w3.org/2000/svg"
	 xmlns="http://www.w3.org/2000/svg" xmlns:xlink="http://www.w3.org/1999/xlink" x="0px" y="0px" width="162.5px" height="59.8px"
	 viewBox="0 0 162.5 59.8" style="enable-background:new 0 0 162.5 59.8;" xml:space="preserve">
<style type="text/css">
	.st0{fill:#FFFFFF;}
</style>
<g id="g10" transform="matrix(1.3333333,0,0,-1.3333333,0,59.813333)">
	<g id="g12" transform="scale(0.1)">
		<path id="path14" class="st0" d="M99,1.1H81.6v20.8l1.7,38.4L62.2,1.1H50.5l-21,59.2l1.7-38.4V1.1H13.8v80.4h14.7h8l19.9-57.4
			l19.9,57.4H99V1.1"/>
		<path id="path16" class="st0" d="M148.6,38.1c-0.1,3.2-1,5.8-2.7,7.7c-1.7,1.9-4.3,2.8-7.6,2.8c-3.2,0-5.6-1.1-7.4-3.2
			c-1.8-2.1-3-5-3.5-8.7h21.3V38.1z M165,25.6h-37.8c0.6-3.7,2.2-6.7,4.6-8.9c2.5-2.2,5.6-3.3,9.5-3.3c2.9,0,5.5,0.5,8,1.6
			c2.5,1.1,4.5,2.7,6.3,4.9l8-9.2c-2.1-3-5.2-5.6-9.2-7.6c-4-2.1-8.8-3.1-14.2-3.1c-6.1,0-11.4,1.3-15.9,3.9
			c-4.5,2.6-8,6.1-10.4,10.5c-2.4,4.4-3.6,9.3-3.6,14.6v2.1c0,6,1.1,11.3,3.4,15.9c2.2,4.7,5.5,8.3,9.7,11c4.2,2.6,9.2,3.9,15,3.9
			c5.6,0,10.4-1.2,14.4-3.6c4-2.4,7-5.8,9.1-10.2c2.1-4.4,3.1-9.6,3.1-15.5L165,25.6"/>
		<path id="path18" class="st0" d="M176.8,1.1v59.7h16.7V1.1H176.8z M191.8,82.5c1.7-1.6,2.6-3.7,2.6-6.2c0-2.5-0.9-4.6-2.6-6.2
			c-1.7-1.6-4-2.4-6.8-2.4c-2.8,0-5,0.8-6.7,2.4c-1.7,1.6-2.6,3.7-2.6,6.2c0,2.5,0.9,4.6,2.6,6.2c1.7,1.6,3.9,2.4,6.7,2.4
			C187.9,84.9,190.1,84.1,191.8,82.5"/>
		<path id="path20" class="st0" d="M254.2,56.6c3.3-3.6,4.9-9.5,4.9-17.6V1.1h-16.7v37.9c0,3.5-0.8,6-2.3,7.4
			c-1.5,1.4-3.8,2.1-7,2.1c-2.2,0-4.1-0.5-5.7-1.4c-1.6-0.9-2.9-2.2-3.9-3.9V1.1h-16.7v59.7h15.6l0.6-6.9c2.1,2.6,4.6,4.6,7.5,6
			c2.9,1.4,6.1,2.1,9.7,2.1C246.3,62,250.9,60.2,254.2,56.6"/>
		<path id="path22" class="st0" d="M309.1,38.1c-0.1,3.2-1,5.8-2.7,7.7c-1.7,1.9-4.3,2.8-7.6,2.8c-3.2,0-5.6-1.1-7.4-3.2
			c-1.8-2.1-3-5-3.5-8.7h21.3L309.1,38.1z M325.5,25.6h-37.8c0.6-3.7,2.2-6.7,4.6-8.9c2.5-2.2,5.6-3.3,9.5-3.3c2.9,0,5.5,0.5,8,1.6
			c2.4,1.1,4.5,2.7,6.3,4.9l8-9.2c-2.1-3-5.2-5.6-9.2-7.6c-4-2.1-8.8-3.1-14.2-3.1c-6.1,0-11.4,1.3-15.9,3.9
			c-4.5,2.6-8,6.1-10.4,10.5c-2.4,4.4-3.6,9.3-3.6,14.6v2.1c0,6,1.1,11.3,3.4,15.9c2.2,4.7,5.5,8.3,9.7,11c4.2,2.6,9.2,3.9,15,3.9
			c5.6,0,10.4-1.2,14.4-3.6c4-2.4,7-5.8,9.1-10.2c2.1-4.4,3.1-9.6,3.1-15.5L325.5,25.6"/>
		<path id="path24" class="st0" d="M407.8,17.8c2,1.8,3,4.2,3,7.2c0,7.2-3.8,10.8-11.3,10.8H385V15.1h13.7
			C402.8,15.1,405.8,16,407.8,17.8z M385,67.5V48h11c4.4,0,7.6,0.8,9.7,2.4c2.1,1.6,3.2,4,3.2,7.1c0,3.5-1,6.1-3.1,7.6
			c-2,1.6-5.3,2.4-9.9,2.4H385z M424.9,35.9c2.2-3.2,3.3-6.9,3.3-11c0-7.8-2.5-13.7-7.5-17.7c-5-4-12.3-6-21.8-6h-24.5h-6.6v80.4
			h28.4c9.7,0,17.1-1.8,22.4-5.5c5.2-3.7,7.9-9.2,7.9-16.6c0-3.8-0.9-7.2-2.8-10.2c-1.9-3-4.8-5.3-8.6-6.8
			C419.4,41.3,422.7,39.1,424.9,35.9"/>
		<path id="path26" class="st0" d="M468.2,14.3c1.8,1,3.2,2.3,4,3.8v10h-6.4c-3.9,0-6.7-0.8-8.6-2.5c-1.9-1.7-2.8-3.8-2.8-6.5
			c0-1.9,0.7-3.4,2-4.6c1.3-1.2,3.1-1.8,5.4-1.8C464.2,12.7,466.4,13.2,468.2,14.3z M489.5,7.7c0.4-2.1,1-4,1.8-5.6V1.1h-16.7
			c-0.7,1.4-1.3,3.2-1.6,5.4c-3.8-4.3-8.8-6.5-15-6.5c-3.8,0-7.2,0.8-10.3,2.3c-3.1,1.5-5.5,3.7-7.3,6.4c-1.8,2.7-2.7,5.8-2.7,9.2
			c0,6.3,2.3,11.1,7,14.5c4.7,3.4,11.6,5.1,20.6,5.1h6.8V41c0,2.8-0.7,4.9-2.1,6.4c-1.4,1.5-3.5,2.3-6.3,2.3c-2.5,0-4.5-0.6-5.9-1.8
			c-1.4-1.2-2.1-2.9-2.1-5.1h-16.7c0,3.6,1.1,6.8,3.2,9.7c2.1,2.9,5.1,5.2,9,6.9c3.9,1.7,8.4,2.5,13.4,2.5c4.7,0,8.9-0.8,12.5-2.4
			c3.6-1.6,6.5-4,8.6-7.1c2.1-3.2,3.1-7,3.1-11.6v-25C488.9,12.5,489.1,9.8,489.5,7.7"/>
		<path id="path28" class="st0" d="M549.8,56.6c3.3-3.6,4.9-9.5,4.9-17.6V1.1H538v37.9c0,3.5-0.8,6-2.3,7.4c-1.5,1.4-3.8,2.1-7,2.1
			c-2.2,0-4.1-0.5-5.7-1.4c-1.6-0.9-2.9-2.2-3.9-3.9V1.1h-16.7v59.7h15.6l0.6-6.9c2.1,2.6,4.6,4.6,7.5,6c2.9,1.4,6.1,2.1,9.7,2.1
			C541.9,62,546.5,60.2,549.8,56.6"/>
		<path id="path30" class="st0" d="M590.6,24.7l-5.6-5.6V1.1h-16.7V86H585V39.6l2.8,3.6l15,17.7h20l-21.4-24.8l23.1-34.9h-19.1
			L590.6,24.7"/>
		<path id="path32" class="st0" d="M684.2,71.6c-1.5-1.3-2.3-3.2-2.3-5.7v-5.1h11.8V48.7h-11.8V1.1h-16.7v47.6h-8.8v12.1h8.8V66
			c0,4.5,0.9,8.3,2.7,11.5c1.8,3.2,4.3,5.6,7.7,7.2c3.3,1.6,7.3,2.5,11.8,2.5c2.7,0,5.5-0.4,8.3-1.1l-0.1-12.9
			c-1.3,0.3-2.9,0.5-4.8,0.5C688,73.6,685.8,73,684.2,71.6"/>
		<path id="path34" class="st0" d="M751.4,81.6c1.5-1.4,2.2-3.1,2.2-5.1c0-2-0.8-3.7-2.2-5.1c-1.5-1.4-3.4-2-5.6-2s-4.1,0.7-5.6,2
			c-1.5,1.4-2.2,3.1-2.2,5.1c0,2,0.7,3.7,2.2,5.1c1.5,1.4,3.4,2,5.6,2C748,83.6,749.9,82.9,751.4,81.6z M722.4,82.7
			c1.2-0.6,2.1-1.5,2.8-2.6c0.7-1.1,1-2.3,1-3.6c0-1.3-0.3-2.5-1-3.6c-0.7-1.1-1.6-1.9-2.8-2.6c-1.2-0.6-2.5-0.9-4-0.9
			c-1.5,0-2.8,0.3-4,0.9c-1.2,0.6-2.1,1.5-2.8,2.6c-0.7,1.1-1,2.3-1,3.6c0,2,0.7,3.7,2.2,5.1c1.5,1.4,3.3,2.1,5.5,2.1
			C719.9,83.7,721.2,83.4,722.4,82.7z M758.2,60.9V1.1h-15.6l-0.4,6.2C740.3,5,738,3.2,735.3,2c-2.7-1.3-5.8-1.9-9.3-1.9
			c-6.2,0-11.1,1.8-14.6,5.4c-3.5,3.6-5.3,9.2-5.3,16.8v38.6h16.6V22.1c0-2.9,0.7-5.1,2.2-6.5c1.5-1.4,3.5-2.1,6-2.1
			c5.1,0,8.7,1.8,10.7,5.4v42H758.2"/>
		<path id="path36" class="st0" d="M803,61.8c1-0.1,1.7-0.3,2.3-0.5l-0.2-16.1c-2.1,0.3-4.1,0.4-5.9,0.4c-6,0-9.8-2-11.6-5.9V1.1
			h-16.7v59.7h15.7l0.5-7.2c1.5,2.7,3.3,4.7,5.6,6.2c2.3,1.4,4.8,2.2,7.6,2.2C801.2,62,802.1,61.9,803,61.8"/>
		<path id="path38" class="st0" d="M814.7,43.3c0,3.4,1,6.5,2.9,9.3c1.9,2.8,4.7,5.1,8.4,6.8c3.6,1.7,7.9,2.5,12.8,2.5
			c5.1,0,9.6-0.8,13.4-2.5c3.8-1.6,6.8-3.9,8.8-6.8c2.1-2.9,3.1-6.3,3.1-10h-16.7c0,2.4-0.7,4.3-2.1,5.6c-1.4,1.3-3.6,2-6.6,2
			c-2.4,0-4.4-0.6-5.8-1.7c-1.5-1.1-2.2-2.6-2.2-4.4c0-1.7,0.8-3.1,2.5-4.2c1.6-1.1,4.4-2,8.4-2.7c4.7-0.9,8.7-2,12-3.4
			c3.3-1.4,5.9-3.4,7.8-5.9c1.9-2.5,2.9-5.7,2.9-9.6c0-3.5-1-6.6-3.1-9.4c-2.1-2.8-5-5-8.9-6.5c-3.8-1.6-8.3-2.4-13.4-2.4
			c-5.4,0-10,1-13.9,2.9c-3.9,2-6.9,4.5-8.9,7.6c-2,3.1-3.1,6.3-3.1,9.7h15.7c0.1-2.9,1.1-5,3.1-6.4c2-1.4,4.5-2.1,7.5-2.1
			c2.8,0,5,0.5,6.5,1.6c1.5,1.1,2.3,2.5,2.3,4.4c0,1.1-0.3,2.1-1,2.9c-0.7,0.8-1.9,1.5-3.6,2.2c-1.8,0.7-4.2,1.4-7.4,2.1
			C821.8,28.1,814.7,34.2,814.7,43.3"/>
		<path id="path40" class="st0" d="M958.5,15.1v-14h-52.1v80.4h17.3V15.1H958.5"/>
		<path id="path42" class="st0" d="M1002.8,38.1c-0.1,3.2-1,5.8-2.7,7.7c-1.7,1.9-4.3,2.8-7.6,2.8c-3.2,0-5.6-1.1-7.4-3.2
			c-1.8-2.1-2.9-5-3.5-8.7h21.2V38.1z M1019.1,25.6h-37.8c0.6-3.7,2.2-6.7,4.6-8.9c2.5-2.2,5.6-3.3,9.5-3.3c2.9,0,5.5,0.5,8,1.6
			c2.5,1.1,4.5,2.7,6.3,4.9l8-9.2c-2.1-3-5.2-5.6-9.2-7.6c-4-2.1-8.8-3.1-14.2-3.1c-6.1,0-11.4,1.3-15.9,3.9
			c-4.5,2.6-8,6.1-10.4,10.5c-2.4,4.4-3.6,9.3-3.6,14.6v2.1c0,6,1.1,11.3,3.4,15.9c2.2,4.7,5.5,8.3,9.7,11c4.2,2.6,9.2,3.9,15,3.9
			c5.6,0,10.5-1.2,14.4-3.6c4-2.4,7-5.8,9.1-10.2c2.1-4.4,3.1-9.6,3.1-15.5V25.6"/>
		<path id="path44" class="st0" d="M1067.7,31.7c0,5.2-0.8,9.3-2.4,12.3c-1.6,3-4.4,4.5-8.5,4.5c-4.9,0-8.2-1.9-10-5.9V19.4
			c1.8-3.9,5.1-5.9,10.1-5.9c4.1,0,6.9,1.5,8.4,4.4c1.6,2.9,2.3,7.1,2.3,12.6L1067.7,31.7z M1073.9,58.1c3.5-2.6,6.1-6.1,7.8-10.7
			c1.7-4.6,2.6-9.8,2.6-15.8v-1.2c0-6.1-0.9-11.4-2.6-16c-1.7-4.6-4.3-8.1-7.8-10.7c-3.5-2.5-7.8-3.8-12.9-3.8
			c-6.4,0-11.4,2.5-15.2,7.5l-0.8-6.3h-15v84.8h16.7V55.7c3.6,4.2,8.3,6.3,14.2,6.3C1066.1,62,1070.4,60.7,1073.9,58.1"/>
		<path id="path46" class="st0" d="M1132.7,38.1c-0.1,3.2-1,5.8-2.7,7.7c-1.7,1.9-4.3,2.8-7.6,2.8c-3.2,0-5.6-1.1-7.4-3.2
			c-1.8-2.1-3-5-3.5-8.7h21.3V38.1z M1149,25.6h-37.8c0.6-3.7,2.2-6.7,4.6-8.9c2.5-2.2,5.6-3.3,9.5-3.3c2.9,0,5.5,0.5,8,1.6
			c2.4,1.1,4.5,2.7,6.3,4.9l8-9.2c-2.1-3-5.2-5.6-9.2-7.6c-4-2.1-8.8-3.1-14.2-3.1c-6.1,0-11.4,1.3-15.9,3.9
			c-4.5,2.6-8,6.1-10.4,10.5c-2.4,4.4-3.6,9.3-3.6,14.6v2.1c0,6,1.1,11.3,3.4,15.9c2.2,4.7,5.5,8.3,9.7,11c4.2,2.6,9.2,3.9,15,3.9
			c5.6,0,10.4-1.2,14.4-3.6c4-2.4,7-5.8,9.1-10.2c2.1-4.4,3.1-9.6,3.1-15.5V25.6"/>
		<path id="path48" class="st0" d="M1206.9,56.6c3.3-3.6,4.9-9.5,4.9-17.6V1.1h-16.7v37.9c0,3.5-0.8,6-2.3,7.4
			c-1.5,1.4-3.8,2.1-7,2.1c-2.2,0-4.1-0.5-5.7-1.4c-1.6-0.9-2.9-2.2-3.9-3.9V1.1h-16.7v59.7h15.6l0.6-6.9c2.1,2.6,4.6,4.6,7.5,6
			c2.9,1.4,6.1,2.1,9.7,2.1C1199,62,1203.6,60.2,1206.9,56.6"/>
		<path id="path50" class="st0" d="M1004.7,447.6c14.3,3.8,28.4-3.3,32.2-17.6c3.8-14.4-4.8-27.5-19.1-31.4
			c-14.2-3.8-28.3,3.2-32.1,17.6C981.8,430.5,990.5,443.8,1004.7,447.6"/>
		<path id="path52" class="st0" d="M110.7,302.4h5.8v1.5c0,26.7-10.6,36.5-34.4,36.5c-8.4,0-24.9-2.2-24.9-12.4v-9.9H14.3v19.7
			c0,34.7,49,38.4,68.3,38.4c62.1,0,80.4-32.5,80.4-74.2v-69.4c0-5.1,2.9-8,8-8h14.6v-39.1H144c-17.2,0-23.8,9.5-23.8,20.5
			c0,4.7,0.4,8,0.4,8h-0.7c0,0-14.3-32.9-56.3-32.9C30.3,181.1,0,201.9,0,239.2C0,297.6,80.4,302.4,110.7,302.4 M74.9,217.2
			c24.9,0,42.4,26.3,42.4,49v4.4h-8c-24.1,0-62.5-3.3-62.5-29.2C46.8,228.9,55.9,217.2,74.9,217.2"/>
		<path id="path54" class="st0" d="M430.4,324.3c0,5.5-2.9,8-8,8h-14.6v39.5h42.4c16.4,0,24.8-7,24.8-22.7v-11
			c0-6.9-0.7-11.7-0.7-11.7h0.7c8.4,26.7,30.7,47.9,59.2,47.9c4,0,8.4-0.7,8.4-0.7V328c0,0-4.7,0.7-11.3,0.7
			c-19.7,0-42.4-11.3-50.8-39.1c-2.6-9.1-4-19.4-4-30.3v-73.8h-46L430.4,324.3"/>
		<path id="path56" class="st0" d="M655.3,376.2c53.4,0,82.6-39.1,82.6-88.4c0-5.5-1.1-17.2-1.1-17.2H608.1
			c3.7-32.9,27.8-50.1,55.9-50.1c30,0,52.3,20.8,52.3,20.8l19.4-32.2c0,0-28.5-28.1-74.9-28.1c-61.8,0-100.1,44.6-100.1,97.6
			C560.6,336,599.4,376.2,655.3,376.2 M690.4,302.7c-0.7,22.3-16.1,37.6-35.1,37.6c-23.8,0-40.6-14.2-45.7-37.6H690.4"/>
		<path id="path58" class="st0" d="M310.9,337c30,0,52.3-20.8,52.3-20.8l19.4,32.2c0,0-28.5,28.1-74.9,28.1
			c-61.8,0-100.1-44.6-100.1-97.6v-0.3c0-53,38.4-97.6,100.1-97.6c46.4,0,74.9,28.1,74.9,28.1l-19.4,32.2c0,0-22.3-20.8-52.3-20.8
			c-28.1,0-52.3,17.2-55.9,50.1c-0.3,2.9-0.5,5.8-0.6,8.5v-0.6c0.1,2.7,0.3,5.6,0.6,8.5C258.6,319.8,282.7,337,310.9,337"/>
		<path id="path60" class="st0" d="M930.2,325.8l-53.4-140.3h-55.2l-53.4,140.3l-17,46.1h29.4c15.4,0,22.7-4.8,27.4-17.5l35.1-97.9
			c4-11,6.9-26.7,6.9-26.7h0.7c0,0,2.9,15.7,6.6,26.7l35.1,97.9c4.8,12.8,12.4,17.5,27.4,17.5h27.6L930.2,325.8"/>
		<path id="path62" class="st0" d="M1037.4,185.4h-21.6c-17.2,0-24.5,7.3-24.5,24.9v114c0,5.5-2.9,8-8,8h-14.6v39.5h44.2
			c17.2,0,24.5-7.7,24.5-24.9V185.4"/>
		<path id="path64" class="st0" d="M1091.7,244.6c0,0,23.8-27.4,55.6-27.4c14.3,0,25.2,5.8,25.2,18.3c0,26.3-98.3,25.9-98.3,86.3
			c0,37.3,33.6,54.4,72.4,54.4c25.2,0,65.4-8.4,65.4-38.7v-19.4H1171v9.1c0,8.8-13.2,13.2-23.4,13.2c-16.4,0-27.8-5.9-27.8-16.8
			c0-29.2,99.1-23.4,99.1-85.5c0-35.1-31.1-57-71.6-57c-51.2,0-77.5,33.3-77.5,33.3L1091.7,244.6"/>
	</g>
</g>
</svg>
