<?xml version="1.0" encoding="utf-8"?>
<!-- Generator: Adobe Illustrator 23.0.6, SVG Export Plug-In . SVG Version: 6.00 Build 0)  -->
<svg version="1.1" id="Calque_1" xmlns="http://www.w3.org/2000/svg" xmlns:xlink="http://www.w3.org/1999/xlink" x="0px" y="0px"
	 width="310.3px" height="90.4px" viewBox="0 0 310.3 90.4" style="enable-background:new 0 0 310.3 90.4;" xml:space="preserve">
<style type="text/css">
	.st0{fill:#FFFFFF;}
</style>
<g>
	<g>
		<g>
			<path class="st0" d="M130.5,71.7h7.3c7.2,0,16-1.8,16-10.8c0-10.1-8.2-11.7-16-11.7h-7.3V71.7z M130.5,37.8h6.3
				c6.6,0,14.7-1.4,14.7-9.4c0-9-7.9-9.7-15-9.7h-6V37.8z M115,6.5h27.1c10,0,25,2.9,25,19.9c0,9.2-6.2,15.7-15.4,17.3v0.2
				c10.5,1,17.8,8.1,17.8,17.7c0,19.5-17.5,22.4-27.3,22.4H115V6.5z"/>
			<path class="st0" d="M235.9,82.8c-5.7,1.3-11.8,2.4-17.7,2.4c-25.1,0-42.5-12.5-42.5-38.7c0-26.5,16.2-41.4,42.5-41.4
				c5.1,0,11.9,1,17.5,3.2l-1.1,13.1c-5.9-3.3-11.2-4.1-16.8-4.1c-16,0-26,12.2-26,28.1c0,15.8,9.8,27.6,26.3,27.6
				c6.1,0,13.3-1.3,17-3.2L235.9,82.8z"/>
			<polygon class="st0" points="246.5,6.5 265.6,6.5 295.2,64.4 295.4,64.4 295.4,6.5 310.3,6.5 310.3,84 291.3,84 261.6,26 
				261.4,26 261.4,84 246.5,84 			"/>
		</g>
	</g>
	<g>
		<g>
			<path class="st0" d="M84,84H6.5V6.5H84V84z M0,90.4h90.4V0H0V90.4z"/>
		</g>
		<polygon class="st0" points="60,77.5 77.9,77.5 58.2,45.4 78.1,12.9 60.3,12.9 40.1,45.4 		"/>
		<polygon class="st0" points="34.4,77.5 52.3,77.5 32.5,45.4 52.5,12.9 34.6,12.9 14.4,45.4 		"/>
	</g>
</g>
</svg>
