<?xml version="1.0" encoding="utf-8"?>
<!-- Generator: Adobe Illustrator 23.0.6, SVG Export Plug-In . SVG Version: 6.00 Build 0)  -->
<svg version="1.1" id="Livello_4" xmlns="http://www.w3.org/2000/svg" xmlns:xlink="http://www.w3.org/1999/xlink" x="0px" y="0px"
	 width="317.2px" height="68.6px" viewBox="0 0 317.2 68.6" style="enable-background:new 0 0 317.2 68.6;" xml:space="preserve">
<style type="text/css">
	.st0{fill:#FFFFFF;}
</style>
<g>
	<g>
		<g>
			<polygon class="st0" points="0,0 0,67.5 0.2,67.5 35.2,23 42.7,33 67.7,0 			"/>
		</g>
	</g>
	<g>
		<g>
			<polygon class="st0" points="20.8,67.5 71.8,67.5 71.8,0.3 			"/>
		</g>
	</g>
</g>
<g>
	<path class="st0" d="M88.2,17.5V1.2h2.4c1.1,0,2,0.1,2.6,0.3c0.7,0.2,1.2,0.5,1.7,0.9c0.5,0.4,0.8,0.9,1.1,1.5
		c0.3,0.6,0.4,1.3,0.4,1.9c0,1.2-0.4,2.2-1.3,3c0.9,0.3,1.5,0.8,2,1.6c0.5,0.7,0.8,1.6,0.8,2.6c0,1.3-0.5,2.3-1.3,3.2
		c-0.5,0.5-1.2,0.9-1.8,1.1c-0.7,0.2-1.7,0.3-2.8,0.3H88.2z M90.7,8.2h0.8c0.9,0,1.6-0.2,2-0.6c0.4-0.4,0.6-1,0.6-1.8
		c0-0.8-0.2-1.3-0.7-1.7c-0.4-0.4-1.1-0.6-1.9-0.6h-0.9V8.2z M90.7,15.2h1.5c1.1,0,1.9-0.2,2.4-0.7c0.5-0.5,0.8-1.1,0.8-1.8
		c0-0.7-0.3-1.3-0.8-1.8c-0.5-0.5-1.4-0.7-2.8-0.7h-1.2V15.2z"/>
	<path class="st0" d="M109.7,13.6h-7l-1.8,3.9h-2.6l8.1-17.3l7.8,17.3h-2.7L109.7,13.6z M108.7,11.2l-2.4-5.5l-2.5,5.5H108.7z"/>
	<path class="st0" d="M115.5,17.5V0.1l11.9,12.4V1.2h2.4v17.3L118,6.1v11.4H115.5z"/>
	<path class="st0" d="M145.3,2.1V5c-1.4-1.2-2.9-1.8-4.4-1.8c-1.7,0-3.1,0.6-4.2,1.8c-1.2,1.2-1.7,2.7-1.7,4.4
		c0,1.7,0.6,3.1,1.7,4.3c1.2,1.2,2.6,1.8,4.2,1.8c0.9,0,1.6-0.1,2.2-0.4c0.3-0.1,0.7-0.3,1-0.6c0.4-0.2,0.7-0.5,1.1-0.9v3
		c-1.4,0.8-2.9,1.2-4.4,1.2c-2.3,0-4.3-0.8-6-2.4c-1.6-1.6-2.4-3.6-2.4-5.9c0-2.1,0.7-3.9,2.1-5.5c1.7-2,3.9-3,6.5-3
		C142.5,0.9,143.9,1.3,145.3,2.1z"/>
	<path class="st0" d="M157.8,13.6h-7l-1.8,3.9h-2.6l8.1-17.3l7.8,17.3h-2.7L157.8,13.6z M156.8,11.2l-2.4-5.5l-2.5,5.5H156.8z"/>
	<path class="st0" d="M169.7,17.5V1.2h3.4c1.6,0,2.9,0.2,3.9,0.5c1,0.3,1.9,0.9,2.8,1.6c1.7,1.5,2.5,3.5,2.5,6
		c0,2.5-0.9,4.5-2.6,6.1c-0.9,0.8-1.8,1.3-2.8,1.6c-0.9,0.3-2.2,0.5-3.8,0.5H169.7z M172.1,15.2h1.1c1.1,0,2-0.1,2.8-0.3
		c0.7-0.2,1.4-0.6,2-1.2c1.2-1.1,1.8-2.5,1.8-4.3c0-1.8-0.6-3.2-1.8-4.3c-1.1-1-2.7-1.5-4.8-1.5h-1.1V15.2z"/>
	<path class="st0" d="M193.7,3.5h-6.5v3.9h6.3v2.3h-6.3v5.4h6.5v2.3h-9V1.2h9V3.5z"/>
	<path class="st0" d="M198.8,1.2v14h4.8v2.3h-7.2V1.2H198.8z"/>
	<path class="st0" d="M220.5,3.6l-2,1.2c-0.4-0.6-0.7-1.1-1.1-1.3c-0.3-0.2-0.8-0.3-1.4-0.3c-0.7,0-1.2,0.2-1.7,0.6
		c-0.4,0.4-0.7,0.9-0.7,1.4c0,0.8,0.6,1.4,1.8,1.9l1.6,0.7c1.3,0.5,2.3,1.2,2.9,2c0.6,0.8,0.9,1.7,0.9,2.8c0,1.5-0.5,2.7-1.5,3.7
		c-1,1-2.3,1.5-3.7,1.5c-1.4,0-2.6-0.4-3.5-1.3c-0.9-0.8-1.5-2-1.7-3.5l2.5-0.5c0.1,1,0.3,1.6,0.6,2c0.5,0.7,1.2,1.1,2.2,1.1
		c0.8,0,1.4-0.3,1.9-0.8c0.5-0.5,0.8-1.2,0.8-1.9c0-0.3,0-0.6-0.1-0.9c-0.1-0.3-0.2-0.5-0.4-0.7c-0.2-0.2-0.4-0.4-0.7-0.6
		c-0.3-0.2-0.6-0.4-1.1-0.6l-1.6-0.7c-2.2-0.9-3.4-2.3-3.4-4.1c0-1.2,0.5-2.2,1.4-3.1c0.9-0.8,2.1-1.2,3.5-1.2
		C218,0.9,219.5,1.8,220.5,3.6z"/>
	<path class="st0" d="M232.3,3.5h-6.5v3.9h6.3v2.3h-6.3v5.4h6.5v2.3h-9V1.2h9V3.5z"/>
	<path class="st0" d="M234.4,17.5L237.8,0l5.6,12.7L249.2,0l3.1,17.5h-2.5l-1.6-9.8l-4.8,10.6l-4.7-10.6l-1.8,9.8H234.4z"/>
	<path class="st0" d="M257.5,10.9v6.6h-2.4V1.2h2.8c1.4,0,2.4,0.1,3.1,0.3c0.7,0.2,1.3,0.6,1.9,1.1c0.9,0.9,1.4,2.1,1.4,3.5
		c0,1.5-0.5,2.7-1.5,3.5c-1,0.9-2.3,1.3-4,1.3H257.5z M257.5,8.6h0.9c2.3,0,3.4-0.9,3.4-2.6c0-1.7-1.2-2.5-3.5-2.5h-0.8V8.6z"/>
	<path class="st0" d="M268.6,1.2v16.3h-2.4V1.2H268.6z"/>
	<path class="st0" d="M271.1,9.3c0-2.3,0.8-4.3,2.5-5.9c1.7-1.6,3.7-2.5,6-2.5c2.3,0,4.3,0.8,6,2.5c1.7,1.7,2.5,3.7,2.5,6
		c0,2.3-0.8,4.3-2.5,6c-1.7,1.6-3.7,2.5-6.1,2.5c-2.1,0-4-0.7-5.7-2.2C272,14,271.1,11.9,271.1,9.3z M273.5,9.3
		c0,1.8,0.6,3.3,1.8,4.4c1.2,1.2,2.6,1.7,4.2,1.7c1.7,0,3.2-0.6,4.3-1.8c1.2-1.2,1.8-2.6,1.8-4.3c0-1.7-0.6-3.2-1.7-4.3
		c-1.2-1.2-2.6-1.8-4.3-1.8c-1.7,0-3.1,0.6-4.3,1.8C274.1,6.2,273.5,7.6,273.5,9.3z"/>
	<path class="st0" d="M290.6,17.5V0.1l11.9,12.4V1.2h2.4v17.3L293,6.1v11.4H290.6z"/>
	<path class="st0" d="M317.2,3.5h-6.5v3.9h6.3v2.3h-6.3v5.4h6.5v2.3h-9V1.2h9V3.5z"/>
	<path class="st0" d="M97.4,28.7l-2,1.2c-0.4-0.6-0.7-1.1-1.1-1.3c-0.4-0.2-0.8-0.3-1.4-0.3c-0.7,0-1.2,0.2-1.7,0.6
		c-0.5,0.4-0.7,0.9-0.7,1.4c0,0.8,0.6,1.4,1.8,1.9l1.6,0.7c1.3,0.5,2.3,1.2,2.9,2c0.6,0.8,0.9,1.7,0.9,2.8c0,1.5-0.5,2.7-1.5,3.7
		c-1,1-2.3,1.5-3.7,1.5c-1.4,0-2.6-0.4-3.5-1.3c-0.9-0.8-1.5-2-1.7-3.5l2.5-0.5c0.1,1,0.3,1.6,0.6,2c0.5,0.7,1.2,1.1,2.2,1.1
		c0.8,0,1.4-0.3,1.9-0.8c0.5-0.5,0.8-1.2,0.8-1.9c0-0.3,0-0.6-0.1-0.9c-0.1-0.3-0.2-0.5-0.4-0.7c-0.2-0.2-0.4-0.4-0.7-0.6
		c-0.3-0.2-0.7-0.4-1.1-0.6l-1.6-0.7c-2.2-0.9-3.4-2.3-3.4-4.1c0-1.2,0.5-2.2,1.4-3.1c0.9-0.8,2.1-1.2,3.5-1.2
		C94.9,25.9,96.4,26.8,97.4,28.7z"/>
	<path class="st0" d="M102.7,26.3v16.3h-2.4V26.3H102.7z"/>
	<path class="st0" d="M105.5,42.5l3.4-17.5l5.6,12.7l5.8-12.7l3.1,17.5h-2.5l-1.6-9.8l-4.8,10.6l-4.7-10.6l-1.8,9.8H105.5z"/>
	<path class="st0" d="M128.7,35.9v6.6h-2.4V26.3h2.8c1.4,0,2.4,0.1,3.1,0.3c0.7,0.2,1.3,0.6,1.9,1.1c0.9,0.9,1.4,2.1,1.4,3.5
		c0,1.5-0.5,2.7-1.5,3.5c-1,0.9-2.3,1.3-4,1.3H128.7z M128.7,33.7h0.9c2.3,0,3.4-0.9,3.4-2.6c0-1.7-1.2-2.5-3.5-2.5h-0.8V33.7z"/>
	<path class="st0" d="M139.8,26.3v14h4.8v2.3h-7.2V26.3H139.8z"/>
	<path class="st0" d="M144.9,34.3c0-2.3,0.8-4.3,2.5-5.9c1.7-1.6,3.7-2.5,6-2.5c2.3,0,4.3,0.8,6,2.5c1.7,1.7,2.5,3.7,2.5,6
		c0,2.3-0.8,4.3-2.5,6c-1.7,1.6-3.7,2.5-6.1,2.5c-2.1,0-4-0.7-5.7-2.2C145.8,39,144.9,36.9,144.9,34.3z M147.3,34.4
		c0,1.8,0.6,3.3,1.8,4.4c1.2,1.2,2.6,1.7,4.2,1.7c1.7,0,3.2-0.6,4.3-1.8c1.2-1.2,1.8-2.6,1.8-4.3c0-1.7-0.6-3.2-1.7-4.3
		c-1.2-1.2-2.6-1.8-4.3-1.8c-1.7,0-3.1,0.6-4.3,1.8C147.9,31.2,147.3,32.6,147.3,34.4z"/>
	<path class="st0" d="M164.4,42.5V25.2l11.9,12.4V26.3h2.4v17.3l-11.9-12.4v11.4H164.4z"/>
	<path class="st0" d="M188.4,42.5V26.3h2.4c1.1,0,2,0.1,2.6,0.3c0.7,0.2,1.2,0.5,1.7,0.9c0.5,0.4,0.8,0.9,1.1,1.5
		c0.3,0.6,0.4,1.3,0.4,1.9c0,1.2-0.4,2.2-1.3,3c0.9,0.3,1.6,0.8,2.1,1.6c0.5,0.7,0.8,1.6,0.8,2.6c0,1.3-0.5,2.3-1.3,3.2
		c-0.5,0.5-1.1,0.9-1.8,1.1c-0.7,0.2-1.7,0.3-2.8,0.3H188.4z M190.8,33.3h0.8c0.9,0,1.6-0.2,2-0.6c0.4-0.4,0.6-1,0.6-1.8
		c0-0.8-0.2-1.3-0.7-1.7c-0.4-0.4-1.1-0.6-1.9-0.6h-0.9V33.3z M190.8,40.2h1.5c1.1,0,1.9-0.2,2.4-0.7c0.5-0.5,0.8-1.1,0.8-1.8
		c0-0.7-0.3-1.3-0.8-1.8c-0.5-0.5-1.4-0.7-2.8-0.7h-1.2V40.2z"/>
	<path class="st0" d="M210,38.6h-7l-1.8,3.9h-2.6l8.1-17.3l7.8,17.3h-2.7L210,38.6z M209,36.3l-2.4-5.5l-2.5,5.5H209z"/>
	<path class="st0" d="M216,42.5V25.2l11.9,12.4V26.3h2.4v17.3l-11.9-12.4v11.4H216z"/>
	<path class="st0" d="M236.3,32.8l6.3-6.5h3.3l-7.4,7.4l7.4,8.9h-3.3l-5.9-7.2l-0.5,0.5v6.7h-2.4V26.3h2.4V32.8z"/>
	<path class="st0" d="M88.2,67.6V51.3h2.4c1.1,0,2,0.1,2.6,0.3c0.7,0.2,1.2,0.5,1.7,0.9c0.5,0.4,0.8,0.9,1.1,1.5
		c0.3,0.6,0.4,1.3,0.4,1.9c0,1.2-0.4,2.2-1.3,3c0.9,0.3,1.5,0.8,2,1.6c0.5,0.7,0.8,1.6,0.8,2.6c0,1.3-0.5,2.3-1.3,3.2
		c-0.5,0.5-1.2,0.9-1.8,1.1c-0.7,0.2-1.7,0.3-2.8,0.3H88.2z M90.7,58.3h0.8c0.9,0,1.6-0.2,2-0.6c0.4-0.4,0.6-1,0.6-1.8
		c0-0.8-0.2-1.3-0.7-1.7c-0.4-0.4-1.1-0.6-1.9-0.6h-0.9V58.3z M90.7,65.3h1.5c1.1,0,1.9-0.2,2.4-0.7c0.5-0.5,0.8-1.1,0.8-1.8
		c0-0.7-0.3-1.3-0.8-1.8c-0.5-0.5-1.4-0.7-2.8-0.7h-1.2V65.3z"/>
	<path class="st0" d="M110,63.6h-7l-1.8,3.9h-2.6l8.1-17.3l7.8,17.3h-2.7L110,63.6z M109,61.3l-2.4-5.5l-2.5,5.5H109z"/>
	<path class="st0" d="M116.2,67.6V50.2L128,62.6V51.3h2.4v17.3l-11.9-12.4v11.4H116.2z"/>
	<path class="st0" d="M150.6,67.9h-3.1l-1.3-1.3c-1.4,0.9-2.9,1.3-4.5,1.3c-2.2,0-4.1-0.7-5.7-2.2c-1.8-1.6-2.7-3.7-2.7-6.2
		c0-2.5,0.9-4.5,2.6-6.1c1.7-1.6,3.6-2.4,5.9-2.4c2.1,0,3.9,0.7,5.6,2.1c2,1.7,3,3.9,3,6.5c0,2.1-0.8,4-2.3,5.6L150.6,67.9z
		 M143.9,61.1l2.4,2.3c1-1.1,1.6-2.4,1.6-4c0-1.7-0.6-3.2-1.7-4.4c-1.2-1.2-2.6-1.8-4.3-1.8c-1.7,0-3.2,0.6-4.3,1.8
		c-1.1,1.2-1.7,2.6-1.7,4.4c0,1.7,0.6,3.2,1.8,4.3c1.2,1.1,2.6,1.7,4.2,1.7c1.1,0,2-0.2,2.9-0.7l-3.8-3.7H143.9z"/>
	<path class="st0" d="M155.5,51.3v9.8c0,1.4,0.2,2.4,0.7,3.1c0.7,0.9,1.6,1.4,2.9,1.4c1.2,0,2.2-0.5,2.9-1.4
		c0.5-0.6,0.7-1.6,0.7-3.1v-9.8h2.4v10.5c0,1.7-0.5,3.1-1.6,4.2c-1.2,1.2-2.7,1.9-4.4,1.9c-1.7,0-3.2-0.6-4.4-1.9
		c-1.1-1.1-1.6-2.5-1.6-4.2V51.3H155.5z"/>
	<path class="st0" d="M177.7,53.6h-6.5v3.9h6.3v2.3h-6.3v5.4h6.5v2.3h-9V51.3h9V53.6z"/>
	<path class="st0" d="M187,67.6V51.3h3.4c1.6,0,2.9,0.2,3.9,0.5c1,0.3,1.9,0.9,2.8,1.6c1.7,1.5,2.5,3.5,2.5,6c0,2.5-0.9,4.5-2.6,6.1
		c-0.9,0.8-1.8,1.3-2.8,1.6c-0.9,0.3-2.2,0.5-3.8,0.5H187z M189.4,65.3h1.1c1.1,0,2-0.1,2.8-0.3c0.7-0.2,1.4-0.6,2-1.2
		c1.2-1.1,1.8-2.5,1.8-4.3c0-1.8-0.6-3.2-1.8-4.3c-1.1-1-2.7-1.5-4.8-1.5h-1.1V65.3z"/>
	<path class="st0" d="M204.8,51.3v9.8c0,1.4,0.2,2.4,0.7,3.1c0.7,0.9,1.6,1.4,2.9,1.4c1.2,0,2.2-0.5,2.9-1.4
		c0.5-0.6,0.7-1.6,0.7-3.1v-9.8h2.4v10.5c0,1.7-0.5,3.1-1.6,4.2c-1.2,1.2-2.7,1.9-4.4,1.9c-1.7,0-3.2-0.6-4.4-1.9
		c-1.1-1.1-1.6-2.5-1.6-4.2V51.3H204.8z"/>
	<path class="st0" d="M233.5,53.7l-2,1.2c-0.4-0.6-0.7-1.1-1.1-1.3c-0.4-0.2-0.8-0.3-1.4-0.3c-0.7,0-1.2,0.2-1.7,0.6
		c-0.4,0.4-0.7,0.9-0.7,1.4c0,0.8,0.6,1.4,1.8,1.9l1.6,0.7c1.3,0.5,2.3,1.2,2.9,2c0.6,0.8,0.9,1.7,0.9,2.8c0,1.5-0.5,2.7-1.5,3.7
		c-1,1-2.3,1.5-3.7,1.5c-1.4,0-2.6-0.4-3.5-1.3c-0.9-0.8-1.5-2-1.7-3.5l2.5-0.5c0.1,1,0.3,1.6,0.6,2c0.5,0.7,1.2,1.1,2.2,1.1
		c0.8,0,1.4-0.3,1.9-0.8c0.5-0.5,0.8-1.2,0.8-1.9c0-0.3,0-0.6-0.1-0.9c-0.1-0.3-0.2-0.5-0.4-0.7c-0.2-0.2-0.4-0.4-0.7-0.6
		c-0.3-0.2-0.6-0.4-1.1-0.6l-1.6-0.7c-2.2-0.9-3.4-2.3-3.4-4.1c0-1.2,0.5-2.2,1.4-3.1c0.9-0.8,2.1-1.2,3.5-1.2
		C231,51,232.5,51.9,233.5,53.7z"/>
	<path class="st0" d="M239.1,51.3v16.3h-2.4V51.3H239.1z"/>
	<path class="st0" d="M242.1,67.6l3.4-17.5l5.6,12.7l5.8-12.7l3.1,17.5h-2.5l-1.6-9.8l-4.8,10.6l-4.7-10.6l-1.8,9.8H242.1z"/>
	<path class="st0" d="M265.6,61v6.6h-2.4V51.3h2.8c1.4,0,2.4,0.1,3.1,0.3c0.7,0.2,1.3,0.6,1.9,1.1c0.9,0.9,1.4,2.1,1.4,3.5
		c0,1.5-0.5,2.7-1.5,3.5c-1,0.9-2.3,1.3-4,1.3H265.6z M265.6,58.7h0.9c2.2,0,3.4-0.9,3.4-2.6c0-1.7-1.2-2.5-3.5-2.5h-0.8V58.7z"/>
	<path class="st0" d="M276.9,51.3v14h4.8v2.3h-7.2V51.3H276.9z"/>
	<path class="st0" d="M282.3,59.4c0-2.3,0.8-4.3,2.5-5.9c1.7-1.6,3.7-2.5,6-2.5c2.3,0,4.3,0.8,6,2.5c1.7,1.7,2.5,3.7,2.5,6
		c0,2.3-0.8,4.3-2.5,6c-1.7,1.6-3.7,2.5-6.1,2.5c-2.1,0-4-0.7-5.7-2.2C283.2,64.1,282.3,62,282.3,59.4z M284.7,59.4
		c0,1.8,0.6,3.3,1.8,4.4c1.2,1.2,2.6,1.7,4.2,1.7c1.7,0,3.2-0.6,4.3-1.8c1.2-1.2,1.8-2.6,1.8-4.3c0-1.7-0.6-3.2-1.7-4.3
		c-1.2-1.2-2.6-1.8-4.3-1.8c-1.7,0-3.1,0.6-4.3,1.8C285.3,56.2,284.7,57.7,284.7,59.4z"/>
	<path class="st0" d="M302.1,67.6V50.2L314,62.6V51.3h2.4v17.3l-11.9-12.4v11.4H302.1z"/>
</g>
</svg>
