<?xml version="1.0" encoding="utf-8"?>
<!-- Generator: Adobe Illustrator 23.1.0, SVG Export Plug-In . SVG Version: 6.00 Build 0)  -->
<svg version="1.1" id="Ebene_01" xmlns="http://www.w3.org/2000/svg" xmlns:xlink="http://www.w3.org/1999/xlink" x="0px" y="0px"
	 width="300px" height="61.6px" viewBox="0 0 300 61.6" style="enable-background:new 0 0 300 61.6;" xml:space="preserve">
<style type="text/css">
	.st0{fill:#FFFFFF;}
</style>
<path class="st0" d="M215.5,23.8c-0.2-0.4-0.4-0.6-0.4-0.8c0-0.2,0.2-0.4,0.4-0.8c0.2-0.4,0.6-0.6,0.8-1.1c0.4-0.4,0.6-0.6,1.1-0.8
	c0.4-0.2,0.6-0.4,0.8-0.4s0.4,0.2,0.8,0.4c0.4,0.2,0.6,0.6,1.1,0.8c0.4,0.4,0.6,0.6,1.1,1.1c0.2,0.4,0.4,0.6,0.4,0.8
	s-0.2,0.4-0.4,0.6c-0.2,0.4-0.6,0.6-0.8,1.1c-0.4,0.4-0.6,0.6-1.1,1.1c-0.4,0.2-0.6,0.4-0.8,0.4s-0.4-0.2-0.8-0.4
	c-0.4-0.2-0.6-0.6-1.1-1.1C216.2,24.8,216,24.3,215.5,23.8z M122.9,49l0.2,1.7c-0.2,0.2-0.6,0.4-1.1,0.6c-0.4,0.2-0.8,0.4-1.5,0.6
	c-0.4,0.2-1.1,0.4-1.5,0.4c-0.4,0.2-1.1,0.2-1.3,0.2c-0.6,0-1.3,0-1.7-0.2c-0.4-0.2-0.8-0.4-1.1-0.6c-0.2-0.2-0.4-0.6-0.4-1.1
	c0-0.4-0.2-0.8-0.2-1.3c-0.2,0.2-0.6,0.6-1.1,1.1c-0.4,0.4-1.1,0.8-1.7,1.1c-0.6,0.4-1.3,0.6-2.2,1.1c-0.8,0.2-1.7,0.4-2.6,0.4
	c-1.5,0-2.8-0.4-3.9-1.3c-1.1-0.8-1.5-2.2-1.5-3.9c0-1.1,0.2-2.2,0.6-3.1c0.4-0.9,1.1-1.5,1.7-2.2s1.5-1.1,2.6-1.3
	c0.8-0.4,2-0.6,2.8-0.6c0.6,0,1.1-0.2,1.7-0.2c0.4,0,1.1-0.2,1.5-0.2c0.4,0,0.8,0,1.1-0.2c0.2,0,0.4,0,0.6,0v-3.3
	c0-1.3-0.4-2.4-1.1-2.8c-0.6-0.4-2.2-0.6-3.9-0.6c-0.6,0-1.5,0-2.6,0.2c-1.1,0.2-2,0.4-2.8,0.6l-0.8-3.1c1.3-0.4,2.4-0.8,3.7-1.1
	c1.3-0.2,2.4-0.2,3.7-0.2c0.8,0,1.7,0,2.6,0c1.1,0,2,0.2,2.8,0.6c0.8,0.4,1.5,1.1,2.2,1.7c0.6,0.8,0.8,2,0.8,3.5v5.4l0.2,7.8h4.4V49
	z M114.1,42.3c0,0-0.2,0-0.4,0c-0.2,0-0.6,0-1.1,0.2c-0.4,0-0.8,0.2-1.3,0.2c-0.4,0-0.8,0.2-1.3,0.2c-1.3,0.2-2.4,0.6-3.1,1.3
	c-0.6,0.6-1.1,1.3-1.1,2.4c0,0.6,0.2,1.1,0.6,1.5c0.4,0.4,1.1,0.6,2.2,0.6c0.4,0,1.1,0,1.7-0.2c0.6-0.2,1.1-0.4,1.7-0.4
	c0.4-0.2,1.1-0.4,1.3-0.6c0.4-0.2,0.6-0.2,0.6-0.2L114.1,42.3z M97,40.6c0.4,0.8,0.6,2,0.6,3.3c0,1.3-0.2,2.4-0.6,3.5
	c-0.4,1.1-1.1,2-2,2.6c-0.8,0.6-2,1.3-3.5,1.7c-1.3,0.4-3.1,0.6-5,0.6H72.7c0-0.6-0.2-1.3-0.2-2.2l2.4-0.6c0.4-0.2,0.8-0.4,1.3-0.8
	c0.4-0.4,0.4-0.8,0.4-1.5v-6.1V28c0-0.4-0.2-0.8-0.4-1.1c-0.2-0.2-0.6-0.6-0.8-0.6l-2.6-0.8c0-0.2,0-0.6,0-0.8c0-0.2,0-0.6,0.2-0.8
	h12.1c3.3,0,5.9,0.6,7.6,1.7c1.7,1.1,2.6,3.1,2.6,5.4c0,0.8-0.2,1.5-0.4,2.2c-0.2,0.6-0.6,1.3-1.1,1.7c-0.4,0.4-0.8,0.8-1.5,1.3
	c-0.6,0.4-1.1,0.6-1.7,0.8l0,0l0,0c0.6,0,1.3,0.2,2,0.4c0.8,0.2,1.5,0.6,2.2,1.1C96,39,96.6,39.8,97,40.6z M81.6,36.1h3.5
	c1.1,0,2-0.2,2.8-0.4c0.6-0.2,1.3-0.6,1.7-1.1c0.4-0.5,0.6-0.8,0.8-1.5c0.2-0.6,0.2-1.3,0.2-2c0-1.1-0.2-1.7-0.4-2.4
	c-0.2-0.6-0.6-1.1-1.3-1.5c-0.4-0.4-1.1-0.6-2-0.6c-0.6-0.2-1.5-0.2-2.4-0.2h-2.8v9.8H81.6z M92.7,44.3c0-2-0.6-3.5-2-4.1
	c-1.3-0.6-3.5-1.1-6.1-1.1h-2.8v2.2l0.2,8.2h4.1c1.1,0,2,0,2.8-0.2c0.8-0.2,1.5-0.4,2.2-0.8s1.1-0.8,1.3-1.5
	C92.5,46,92.7,45.1,92.7,44.3z M207.5,46.2c-0.2,0.4-0.6,0.8-1.1,1.3c-0.4,0.4-0.8,0.6-1.3,1.1c-0.4,0.2-1.1,0.4-1.7,0.4l-6.5,0.2
	v-8V28c0-0.6,0-0.8,0.2-1.3c0.2-0.2,0.6-0.4,1.1-0.6l2-0.4c0-0.2,0-0.6,0-1.1s0-0.6,0-1.1h-11.5c0,0.2,0,0.6-0.2,1.1
	c0,0.4,0,0.6,0,0.8l2.2,0.8c0.4,0.2,0.8,0.4,1.1,0.8c0.3,0.4,0.4,1.1,0.4,1.5v12.6v6.1c0,0.6-0.2,1.1-0.4,1.5
	c-0.2,0.4-0.6,0.6-1.1,0.8l-2.4,0.6c0,0.2,0,0.6,0,1.1c0,0.4,0,0.6,0.2,1.1h21.1l1.1-7.4l-2.2-0.4C208.2,45.1,207.9,45.6,207.5,46.2
	z M250.3,49.3c0,0,0-0.2,0-0.6l-0.2-7.4v-4.1c0-1.1,0-2.2-0.2-3.1c-0.2-0.8-0.4-1.7-0.8-2.4c-0.4-0.6-1.1-1.1-2.2-1.5
	c-0.8-0.4-2.2-0.6-3.9-0.6c-0.8,0-1.7,0-2.6,0.2c-0.8,0.2-1.5,0.4-2.2,0.6s-1.3,0.6-1.7,0.8c-0.4,0.4-0.8,0.6-1.3,0.8v-1.2
	c0-0.4-0.2-0.8-0.4-1.1c-0.2-0.2-0.6-0.2-1.1-0.2s-0.8,0-1.5,0c-0.6,0-1.1,0-1.7,0.2c-0.6,0-1.1,0.2-1.7,0.2c-0.6,0-1.1,0.2-1.5,0.2
	v2.2h3.7v8.9l-0.2,6.1c0,0.4,0,0.8-0.2,1.3c-0.2,0.4-0.4,0.6-0.8,0.8l-2,0.8c0,0.2,0,0.6,0,1.1c0,0.4,0,0.6,0.2,1.1h11.1
	c0-0.2,0.2-0.6,0.2-1.1c0-0.4,0-0.8,0-1.1l-3.1-0.6c-0.2,0-0.4-0.2-0.4-0.4c0-0.2,0-0.4,0-0.8l-0.2-7v-6.5c0.2-0.2,0.6-0.2,1.1-0.4
	c0.4-0.2,1.1-0.4,1.5-0.4c0.6-0.2,1.1-0.2,1.7-0.4c0.6,0,1.3-0.2,1.7-0.2c0.8,0,1.7,0,2.2,0.2c0.4,0.2,0.8,0.4,1.3,0.8
	c0.2,0.4,0.4,0.8,0.4,1.5c0,0.7,0,1.3,0,2.2v3.1v6.3c0,0.4,0,0.6-0.2,1.1c-0.2,0.4-0.4,0.6-0.8,0.8l-1.3,0.6c0,0.4,0,0.6,0,1.1
	c0,0.4,0,0.6,0.2,1.1h10.2c0-0.2,0.2-0.6,0.2-1.1c0-0.4,0-0.8,0-1.1l-3.1-0.6C250.5,49.5,250.3,49.5,250.3,49.3z M267.6,49.3
	c-1.3,0-2.2-0.2-2.8-0.6c-0.6-0.4-0.8-1.3-0.8-2.6l-0.2-4.7v-8h7.4v-3.1h-7.4v-4.5H263l-7,5.9v1.7h3.3v12.8c0,1.3,0.2,2.4,0.4,3.3
	c0.2,0.8,0.6,1.5,1.3,2c0.7,0.4,1.3,0.8,2.2,1.1c0.8,0.2,2,0.2,3.3,0.2c1.1,0,2.2-0.2,3.5-0.4c1.1-0.2,2-0.6,2.6-1.1l-0.6-2.8
	C270,49,269,49.3,267.6,49.3z M297.8,49.5c-0.2,0-0.4-0.2-0.4-0.2c0-0.2-0.2-0.4-0.2-0.6l-0.2-7.2v-4.1c0-1.1,0-2.2-0.2-3.1
	c-0.2-0.9-0.4-1.7-0.8-2.4c-0.4-0.6-1.1-1.1-2.2-1.5c-0.8-0.4-2.2-0.6-3.9-0.6c-0.8,0-1.7,0-2.6,0.2c-0.8,0.2-1.5,0.4-2.2,0.6
	c-0.6,0.2-1.3,0.6-1.7,0.8c-0.4,0.4-1.1,0.6-1.3,0.8v-9.7c0-0.4-0.2-0.8-0.4-1.1c-0.2-0.2-0.6-0.4-1.3-0.4c-0.4,0-0.8,0-1.5,0
	c-0.7,0-1.1,0.2-1.7,0.2s-1.1,0.2-1.7,0.2c-0.6,0.2-1.1,0.2-1.5,0.4V24h3.7v17.2v5.9c0,0.6-0.2,1.1-0.4,1.5s-0.4,0.6-0.8,0.8l-2,0.8
	c0,0.4,0,0.6,0,1.1c0,0.2,0,0.6,0.2,1.1h11.3c0-0.2,0-0.6,0.2-1.1c0-0.4,0-0.8,0-1.1l-3.3-0.6c-0.2,0-0.4-0.2-0.6-0.4
	c0-0.2-0.2-0.6-0.2-1.1l-0.2-6.7v-6.5c0.2-0.2,0.6-0.2,1.1-0.4c0.4-0.2,1.1-0.4,1.5-0.4c0.6-0.2,1.3-0.2,1.7-0.4
	c0.6,0,1.3-0.2,2-0.2c0.8,0,1.7,0,2.2,0.2c0.6,0.2,0.8,0.4,1.3,0.8c0.2,0.4,0.4,0.8,0.4,1.5c0,0.7,0,1.3,0,2.2v3.1v6.1
	c0,0.6,0,1.1-0.2,1.3c-0.2,0.4-0.4,0.6-0.8,0.6l-1.7,0.8c0,0.2,0,0.6,0,1.1c0,0.4,0,0.6,0.2,1.1h10.4c0-0.2,0.2-0.6,0.2-1.1
	c0-0.4,0-0.8,0-1.3L297.8,49.5z M175.2,49.3c-0.4-0.4-1.1-0.8-1.5-1.3c-0.4-0.4-1.1-1.1-1.5-1.7l-5.2-6.7l8.4-7.8V30h-8.2
	c0,0.2-0.2,0.6-0.2,0.8c0,0.4,0,0.6,0,0.6l1.5,0.6c0.2,0,0.4,0.2,0.4,0.4c0.2,0.2,0.2,0.4,0.2,0.6c0,0.4-0.2,0.6-0.6,1.1l-6.5,6.3
	l6.1,8c1.3,1.7,2.6,2.8,4.1,3.5c1.5,0.6,3.3,0.8,5,0.8l0.4-2.4c-0.4-0.2-0.6-0.2-1.1-0.6C176,49.9,175.6,49.7,175.2,49.3z M148,49.3
	c0,0,0-0.2,0-0.6l-0.2-7.4v-4.1c0-1.1,0-2.2-0.2-3.1c-0.2-0.8-0.4-1.7-0.8-2.4c-0.4-0.6-1.1-1.1-2.2-1.5c-0.8-0.4-2.2-0.6-3.9-0.6
	c-0.8,0-1.7,0-2.6,0.2c-0.8,0.2-1.5,0.4-2.2,0.6s-1.3,0.6-1.7,0.8c-0.4,0.4-0.8,0.6-1.3,0.8v-1.2c0-0.4-0.2-0.8-0.4-1.1
	c-0.2-0.2-0.6-0.2-1.1-0.2s-0.8,0-1.5,0c-0.7,0-1.1,0-1.7,0.2c-0.6,0-1.1,0.2-1.7,0.2c-0.6,0-1.1,0.2-1.5,0.2v2.2h3.7v8.9l-0.2,6.1
	c0,0.4,0,0.8-0.2,1.3c-0.2,0.4-0.4,0.6-0.8,0.8l-2,0.8c0,0.2,0,0.6,0,1.1c0,0.4,0,0.6,0.2,1.1h11.1c0-0.2,0.2-0.6,0.2-1.1
	c0-0.4,0-0.8,0-1.1l-3.1-0.6c-0.2,0-0.4-0.2-0.4-0.4c0-0.2,0-0.4,0-0.8l-0.2-7.2v-6.5c0.2-0.2,0.6-0.2,1.1-0.4
	c0.4-0.2,1.1-0.4,1.5-0.4c0.6-0.2,1.1-0.2,1.7-0.4c0.6,0,1.3-0.2,1.7-0.2c0.8,0,1.7,0,2.2,0.2s0.8,0.4,1.3,0.8
	c0.2,0.4,0.4,0.8,0.4,1.5c0,0.7,0,1.3,0,2.2v3.3v6.3c0,0.4,0,0.6-0.2,1.1c-0.2,0.4-0.4,0.6-0.8,0.8l-1.1,0.6c0,0.4,0,0.6,0,1.1
	c0,0.4,0,0.6,0.2,1.1h10.2c0-0.2,0.2-0.6,0.2-1.1c0-0.4,0-0.8,0-1.1l-3.1-0.6C148.3,49.5,148,49.5,148,49.3z M221,49
	c-0.2-0.2-0.2-0.4-0.2-0.8v-7v-9.8c0-0.6-0.2-1.1-0.4-1.3c-0.2-0.2-0.6-0.2-1.3-0.2c-0.4,0-0.8,0-1.5,0c-0.6,0-1.1,0.2-1.7,0.2
	s-1.1,0.2-1.7,0.2s-1.1,0.2-1.5,0.2v2.4h3.9v8.2v6.1c0,0.4-0.2,0.8-0.4,1.3c-0.2,0.4-0.4,0.6-0.8,0.8l-2.6,0.8c0,0.4,0,0.6,0,1.1
	c0,0.4,0,0.6,0.2,0.8h11.9c0-0.2,0.2-0.6,0.2-1.1c0-0.4,0-0.8,0-1.1l-3.3-0.6C221.4,49.5,221.2,49.3,221,49z M162.3,48.6
	c-0.2-0.4-0.2-0.8-0.2-1.3v-6.7V23.2c0-1.1-0.6-1.7-1.7-1.7c-0.4,0-0.8,0-1.5,0c-0.7,0-1.1,0.2-1.7,0.2s-1.1,0.2-1.7,0.2
	c-0.6,0-1.1,0.2-1.5,0.2v2.2h3.9v17l-0.2,5.9c0,0.4,0,0.8-0.2,1.5c-0.2,0.4-0.6,0.8-1.1,0.8l-2.1,0.9c0,0.4,0,0.6,0,1.1
	c0,0.2,0,0.6,0.2,1.1h10.2c0-0.2,0.2-0.6,0.2-0.8c0-0.4,0-0.6,0-1.1l-1.3-0.8C162.8,49.3,162.5,49,162.3,48.6z M52.3,42.9h9.3v9.3
	h-9.3v9.3h-9.3v-9.3H9.3V18.5H0V9.3h9.3V0h9.3v9.3h33.9L52.3,42.9z M42.9,42.9V18.5H18.5V43h24.5V42.9z M21.5,21.5V40H40V21.5
	C40,21.5,21.5,21.5,21.5,21.5z"/>
</svg>
