<?xml version="1.0" encoding="utf-8"?>
<!-- Generator: Adobe Illustrator 23.1.0, SVG Export Plug-In . SVG Version: 6.00 Build 0)  -->
<svg version="1.1" id="_x30_3_copia" xmlns="http://www.w3.org/2000/svg" xmlns:xlink="http://www.w3.org/1999/xlink" x="0px"
	 y="0px" width="687.4px" height="94.7px" viewBox="0 0 687.4 94.7" style="enable-background:new 0 0 687.4 94.7;"
	 xml:space="preserve">
<style type="text/css">
	.st0{fill:#FFFFFF;}
</style>
<path class="st0" d="M159.6,75.2h-15V52.7h13.7c6.4,0,13.9,2.2,13.9,10.3C172.3,71.1,167.5,75.2,159.6,75.2 M156.8,19.6
	c4.4,0,10.9,1.2,10.9,9c0,10.4-7.6,9.7-12.7,9.7h-10.4V19.6H156.8z M177.1,43c5.6-2.4,9.8-8.2,9.8-18c0-18.9-18-20-25.3-19.9
	c-0.6,0-36,0-36,0v84.6h34.7v0c17.6,0,31.5-6.4,31.5-24.7C191.8,50.8,183.6,45.1,177.1,43"/>
<path class="st0" d="M233,53.4c-3.5,0-9,0-9,0V19.6h10.9c3.2,0,13.8,1.8,13.8,15.5C248.6,48.8,241.9,53.4,233,53.4 M234.1,5.1H205
	v84.6h19V67.5c0,0,7.1,0.2,12,0c14.6-0.4,31.2-8,31.2-32.4C267.2,5.6,241,5.1,234.1,5.1"/>
<path class="st0" d="M331.3,49.1c-4.5-5.4-12.4-8.5-18.2-10.2c-5-1.5-10.5-2.8-12.8-3.8c-6.1-2.7-8-6.9-6.7-11.1
	c1-3.4,4.6-6.2,10.8-6.5c9.8-0.4,16,6.9,16,6.9l11.9-10.6c0,0-8.7-11.9-31.8-10.8c-10,0.5-17.8,5.4-21.6,11
	c-6.5,9.6-5.2,22.6,3.1,30.1c4.8,4.4,9.8,6.1,15.9,7.7c2.5,0.7,5.3,1.4,8.5,2.5c9.3,3.1,12.5,7.2,11,14.2c-1,4.5-5.6,8.2-13.7,8.2
	c-11.4,0-17.5-7-19.9-10.1l-12.1,9.8c3.2,4.3,7.3,8.3,12.8,11.1c5.3,2.7,11.8,4.6,19.6,4.6c17.3,0,32.7-7.8,32.7-27.4
	C336.6,58,334.5,53,331.3,49.1"/>
<path class="st0" d="M362,47.5c0-15.8,5.3-31.9,14.9-45.7L373,0c-8,10.6-16.4,26.6-16.4,47.5c0,20.9,8.2,36.8,16.1,47.3l3.7-1.7
	C367.3,79.9,362,63.6,362,47.5"/>
<g>
	<path class="st0" d="M410.4,44.2c-7.7-6.6-14.9-12.9-14.9-22.1c0-7.1,4-11.2,10.9-11.2c5.4,0,9.1,3,11.7,9.6
		c1.2-0.6,4.8-2.3,5.8-2.9c-3.6-8.8-9.1-13-17.3-13c-11,0-18,7-18,17.9c0,11.4,8.6,19,17,26.4C413,55.6,420,61.8,420,70.2
		c0,7.9-4.6,12.6-12.4,12.6c-7.5,0-12.1-4.5-15-14.5c-1.3,0.6-4.9,2.4-5.9,2.9c3.8,12.2,10.2,17.7,20.8,17.7
		c11.6,0,19.4-7.7,19.4-19.1C426.9,58.5,418.5,51.3,410.4,44.2"/>
	<path class="st0" d="M459.3,82.7c-11.8,0-13.4-11.1-13.4-21.9V6H439v56.2c0,18.3,6.2,26.4,20.2,26.4c13.7,0,19.9-8.2,19.9-26.6V6
		h-6.6v55C472.5,72.3,470.9,82.7,459.3,82.7"/>
	<rect x="498.8" y="6" class="st0" width="7" height="81.6"/>
	<path class="st0" d="M543.6,44.2c-7.7-6.6-14.9-12.9-14.9-22.1c0-7.1,4-11.2,10.9-11.2c5.4,0,9,3,11.6,9.5c1.2-0.6,4.8-2.3,5.8-2.9
		c-3.6-8.7-9.1-12.8-17.2-12.8c-11,0-18.1,7-18.1,17.9c0,11.4,8.6,19,17,26.4c7.4,6.5,14.5,12.7,14.5,21.1c0,7.9-4.6,12.6-12.4,12.6
		c-7.3,0-11.9-4.3-14.8-13.7c-1.3,0.6-4.9,2.4-5.9,2.9c3.8,11.6,10.2,16.9,20.5,16.9c11.6,0,19.4-7.7,19.4-19.1
		C560.1,58.5,551.7,51.3,543.6,44.2"/>
	<path class="st0" d="M592,44.2c-7.7-6.6-14.9-12.9-14.9-22.1c0-7.1,4-11.2,10.9-11.2c5.5,0,9.1,3,11.7,9.7c1.2-0.6,4.8-2.4,5.8-2.9
		c-3.6-8.9-9.1-13.1-17.3-13.1c-11,0-18,7-18,17.9c0,11.4,8.6,19,17,26.4c7.4,6.5,14.5,12.7,14.5,21.1c0,7.9-4.6,12.6-12.4,12.6
		c-7.4,0-12.1-4.4-14.9-14.2c-1.3,0.6-4.9,2.4-5.9,2.9c3.8,12,10.2,17.4,20.7,17.4c11.6,0,19.4-7.7,19.4-19.1
		C608.6,58.5,600.1,51.3,592,44.2"/>
	<polygon class="st0" points="628.4,46.8 650.1,46.8 650.1,40.9 628.4,40.9 628.4,12.1 653.6,12.1 653.6,6 621.4,6 621.4,87.6 
		655.1,87.6 655.1,81.6 628.4,81.6 	"/>
</g>
<path class="st0" d="M682.1,47.5c0-15.8-5.3-31.9-14.9-45.7L671,0c8,10.6,16.4,26.6,16.4,47.5c0,20.9-8.2,36.8-16.1,47.3l-3.7-1.7
	C676.8,79.9,682.1,63.6,682.1,47.5"/>
<path class="st0" d="M3,56.2c0.2-4.9,2.3-9.5,5.8-13c1.4-1.4,3-2.5,4.7-3.5l0.1-0.1l8.8,47H3L3,56.2z M3,8.1h10.7l5,26.7l-0.1,0
	c-4.5,0.8-8.6,3-11.9,6.2c-1.3,1.3-2.5,2.8-3.5,4.4L3,45.8V8.1z M33.8,8.1l6.5,34.5L40,42.3c-4.3-5-10.6-7.8-17.1-7.8l-1.1,0
	L16.8,8.1H33.8z M81.6,8.1v36.2l-0.2-0.4c-1.9-3.2-4.6-5.9-7.8-7.8L73.5,36c0,0,2.8-5.6,2.9-5.8c-0.3-0.2-1.3-0.7-1.3-0.7
	c-4-2-8.5-2.8-12.9-2.3l-0.1,0l0-0.1c-3.8-7.7-11.8-12.7-20.3-12.7c-1.1,0-2.2,0.1-3.4,0.3l-0.1,0l-1.2-6.7H81.6z M81.6,86.6H25.6
	l-1.3-6.9l0.1,0c5.1-0.4,10-2.5,13.8-6c3.5-3.3,6-7.6,6.9-12.4l0.1-0.3l0.2,0.3c1.9,3.2,4.6,5.9,7.8,7.8l0.1,0.1
	c0,0-2.8,5.6-2.9,5.8c0.3,0.2,1.4,0.7,1.4,0.7c5.4,2.7,11.5,3.2,17.3,1.4c5.2-1.7,9.7-5.3,12.5-10l0.2-0.4V86.6z M58.8,27.9
	c-6.2,1.7-11.4,5.9-14.2,11.6c-0.4,0.8-0.8,1.7-1.1,2.6l-0.1,0.4l-4.6-24.7l0.1,0c1-0.1,2-0.2,2.9-0.2c7.2,0,13.8,3.9,17.2,10.2
	l0.1,0.1L58.8,27.9z M81.5,55.5c0,3.1-0.7,6.1-2.1,8.9c-2.2,4.4-6,7.8-10.7,9.5c-4.6,1.7-9.7,1.6-14.2-0.2l-0.1,0l17.8-34.9l0.1,0.1
	C78,42.3,81.5,48.8,81.5,55.5 M54.6,66.5l-0.1-0.1c-5.7-3.6-9.3-10-9.3-16.7c0-3.1,0.7-6.1,2.1-8.9c2.2-4.4,6-7.8,10.7-9.5
	c4.6-1.7,9.7-1.6,14.2,0.2l0.1,0L54.6,66.5z M23.8,76.7l-7.2-38.2l0.1,0c2-0.7,4.1-1,6.2-1c10.8,0,19.6,8.8,19.6,19.6
	c0,5.1-2,10-5.6,13.7c-3.5,3.6-8.1,5.7-13.1,5.9L23.8,76.7z M0,89.7h84.6V5.1H0V89.7z"/>
<g>
</g>
<g>
</g>
<g>
</g>
<g>
</g>
<g>
</g>
<g>
</g>
<g>
</g>
<g>
</g>
<g>
</g>
<g>
</g>
<g>
</g>
<g>
</g>
</svg>
