<?xml version="1.0" encoding="utf-8"?>
<!-- Generator: Adobe Illustrator 23.1.0, SVG Export Plug-In . SVG Version: 6.00 Build 0)  -->
<svg version="1.1" id="Vontobel" xmlns="http://www.w3.org/2000/svg" xmlns:xlink="http://www.w3.org/1999/xlink" x="0px" y="0px"
	 width="300px" height="51.3px" viewBox="0 0 300 51.3" style="enable-background:new 0 0 300 51.3;" xml:space="preserve">
<style type="text/css">
	.st0{fill:#FFFFFF;}
</style>
<title>Vontobel_RGB_white_90px</title>
<path class="st0" d="M224.3,41.7c-5.3,0-9.3-4.3-9.3-9.3c0-0.3,0-0.3,0-0.7c-0.3-5.3,3.7-9.7,9-10c0.3,0,0.3,0,0.7,0
	c5.3,0,9.7,4.3,9.7,9.7v0.3c0.3,5.3-4,9.7-9.3,10C224.7,41.7,224.3,41.7,224.3,41.7 M226,12.7c-4,0-8,1.7-10.7,4.7V0h-9.7v50h9.7v-4
	c2.7,3.3,6.7,5,11,5c10,0,17.7-8.3,17.7-19.3S236,12.7,226,12.7 M154.7,22.3h-11v13.3c0,4.7,2.3,6.3,5.3,6.3c2.3-0.3,4.7-1,6.7-2.3
	l3.7,7.7c-3.7,2.7-7.7,4-12,3.7c-10,0-13.7-6.3-13.7-16V2.7h9.7v10.7h11L154.7,22.3z M300,50h-9.7V0h9.7V50z M258,28.3h16
	c-0.3-4.3-4.3-7.7-8.7-7.3C261.3,21.3,258.3,24.3,258,28.3 M284,31.7c0,1,0,2.3-0.3,3.3H258c0.7,4.7,4.7,8,9.3,7.7
	c3.3,0,6.7-1.3,9.3-3.3l5.7,6.3c-4.3,3.7-10,5.7-15.7,5.3c-10,0.7-18.3-7-19-17c0-0.7,0-1.3,0-2c0-11.3,7.7-19.3,18.3-19.3
	S284,20.3,284,31.7 M170.7,31.7c-0.3,5.3,3.7,10,9,10.3c5.3,0.3,10-3.7,10.3-9c0-0.3,0-0.7,0-1c0.3-5.3-3.7-10-9-10.3
	c-5.3-0.3-10,3.7-10.3,9C170.7,31,170.7,31.3,170.7,31.7 M200,31.7c0,11-8.7,19.7-19.7,19.7s-19.7-8.7-19.7-19.7S169.3,12,180.3,12
	S200,21,200,31.7 M126,26.7V50h-9.7V30c0-5.3-2.7-8-7-8c-4,0-7.7,3-7.7,7.3c0,0.3,0,0.7,0,1v20h-10V13.7h9.7V18
	c2.3-3.3,6.3-5.3,10.7-5.3c7.3-0.3,14,5.3,14.3,13C126,26,126,26.3,126,26.7 M57,31.7c-0.3,5.3,3.7,10,9,10.3c5.3,0.3,10-3.7,10.3-9
	c0-0.3,0-0.7,0-1c0.3-5.3-3.7-10-9-10.3c-5.3-0.3-10,3.7-10.3,9C57,31,57,31.3,57,31.7 M86.3,31.7c0,10.3-8.3,19-18.7,19.3
	c-0.3,0-0.7,0-1,0C56.3,51.3,47.3,43.3,47,33c0-0.3,0-0.7,0-1c0-10.3,8.3-19,18.7-19.3c0.3,0,0.7,0,1,0C77,12.3,86,20.3,86.3,31
	C86.3,31,86.3,31.3,86.3,31.7 M32,50H18.7L0,0h11.3l14.3,39.7L39.7,0h11L32,50z"/>
</svg>
