<?xml version="1.0" encoding="utf-8"?>
<!-- Generator: Adobe Illustrator 23.0.6, SVG Export Plug-In . SVG Version: 6.00 Build 0)  -->
<svg version="1.1" id="Calque_1" xmlns="http://www.w3.org/2000/svg" xmlns:xlink="http://www.w3.org/1999/xlink" x="0px" y="0px"
	 width="502.2px" height="161.8px" viewBox="0 0 502.2 161.8" style="enable-background:new 0 0 502.2 161.8;" xml:space="preserve"
	>
<style type="text/css">
	.st0{fill:#FFFFFF;}
</style>
<g>
	<path class="st0" d="M68,144.4c-33.3,0-56.3-11.5-56.3-28.2c0-6.8,3.5-14.4,9.9-21.1c2.6-2.7,4.7-4.6,10-8.7
		c-5.5,8.6-7,12.1-7,17.3c0,17.8,22.1,28.7,58.4,28.7c23.4,0,44.8-3.6,68-11.5c2.4-0.8,5.9-2.1,10.6-3.8V0.2H0v161.6h161.6v-38
		c-18.7,8.7-26.4,11.3-44.3,15.1C100.2,142.5,83.7,144.4,68,144.4z M0,77.9v-4.7c14.6-16.5,21-22.3,35-31.8
		c26.8-18.2,54.7-27.7,81.2-27.7c21.7,0,34.9,9.3,34.9,24.6c0,7-2.4,14.7-6.6,21c-1.8,2.7-4.1,5.8-6.8,9.2C141,60.8,142,57,142,52.3
		c0-15.2-13.3-24.6-34.8-24.6c-22.3,0-46.1,7.1-70.3,20.9C22.1,57.1,15.4,62.4,0,77.9z"/>
	<polygon class="st0" points="268.5,62.8 268.5,58.4 242.7,58.4 242.7,102.6 269.6,102.6 269.6,98.2 248,98.2 248,82.2 264.5,82.2 
		264.5,77.8 248,77.8 248,62.8 	"/>
	<rect x="271.3" y="0.7" class="st0" width="5.4" height="44.2"/>
	<path class="st0" d="M337.8,41.1c-8.9,0-11-4.5-11.7-9.7h-5.2c0.8,7.5,5.1,14,16.9,14c8.8,0,15.3-5.6,15.3-13.1
		c0-8.4-5.2-11.3-15-12.9c-9-1.4-10.6-3.6-10.6-7.9c0-4.1,3.2-7.2,9.2-7.2c6.1,0,9.3,2.3,10.4,7.9h4.8c-0.9-7.9-6.4-12.2-15.2-12.2
		c-8.4,0-14.2,5.2-14.2,12c0,7.9,5.5,10.8,14.8,12.2c8.4,1.4,10.7,3.5,10.7,8.5C347.9,37.8,343.5,41.1,337.8,41.1z"/>
	<polygon class="st0" points="388,40.5 366.5,40.5 366.5,24.5 382.9,24.5 382.9,20.1 366.5,20.1 366.5,5.1 386.9,5.1 386.9,0.7 
		361.1,0.7 361.1,44.9 388,44.9 	"/>
	<path class="st0" d="M301.2,41.1c-8.9,0-11-4.5-11.7-9.7h-5.2c0.8,7.5,5.1,14,16.9,14c8.8,0,15.3-5.6,15.3-13.1
		c0-8.4-5.2-11.3-15-12.9c-9-1.4-10.6-3.6-10.6-7.9c0-4.1,3.2-7.2,9.2-7.2c6.1,0,9.3,2.3,10.4,7.9h4.8c-0.9-7.9-6.4-12.2-15.2-12.2
		c-8.4,0-14.2,5.2-14.2,12c0,7.9,5.5,10.8,14.8,12.2c8.4,1.4,10.7,3.5,10.7,8.5C311.3,37.8,306.9,41.1,301.2,41.1z"/>
	<path class="st0" d="M377.3,71v-0.2c0-8.8-7-12.3-15.5-12.3h-13.3v44.2h5.4V83.4h6.8l13.2,19.2h6L366.3,83
		C372.4,81.9,377.3,78.3,377.3,71z M371.9,71c0,5.4-3.4,8.2-9.7,8.2h-8.3V62.7h8.3c6,0,9.7,2,9.7,8V71z"/>
	<path class="st0" d="M309.8,102.6l4.3-12.7h18.3l4.3,12.7h5.3l-15-44.2h-7l-15.2,44.2H309.8z M323.2,62.9l7.7,22.8h-15.3
		L323.2,62.9z"/>
	<polygon class="st0" points="480.7,98.2 480.7,82.2 497.1,82.2 497.1,77.8 480.7,77.8 480.7,62.8 501.1,62.8 501.1,58.4 
		475.3,58.4 475.3,102.6 502.2,102.6 502.2,98.2 	"/>
	<path class="st0" d="M199.2,58.4h-11.7v44.2h11.6c15.5,0,22.5-9.7,22.5-22v-0.6C221.6,67.8,214.5,58.4,199.2,58.4z M216.1,80.6
		c0,10.8-5.7,17.6-17.1,17.6h-6.1V62.7h6c12.2,0,17.1,7.2,17.1,17.4V80.6z"/>
	<polygon class="st0" points="255.8,155.2 242.7,116.1 237.3,116.1 252.4,160.4 258.8,160.4 274.1,116.1 269,116.1 	"/>
	<rect x="280.6" y="116.1" class="st0" width="5.4" height="44.2"/>
	<path class="st0" d="M379.4,116.1l-15.2,44.2h5.1l4.3-12.7h18.3l4.3,12.7h5.3l-15-44.2H379.4z M375,143.4l7.7-22.8l7.7,22.8H375z"
		/>
	<path class="st0" d="M259.1,44.9h5.3l-15-44.2h-7.1l-15.2,44.2h5.1l4.3-12.7h18.3L259.1,44.9z M238,27.9l7.7-22.8l7.7,22.8H238z"/>
	<path class="st0" d="M304.5,71.6v-0.2c0-9.2-7-12.9-15.5-12.9h-12.6v44.2h5.4v-18h7.2C297.4,84.6,304.5,81,304.5,71.6z M299.1,71.6
		c0,5.7-3.4,8.8-9.7,8.8h-7.5V62.7h7.5c6,0,9.7,2.3,9.7,8.6V71.6z"/>
	<polygon class="st0" points="460.2,95 438.7,58.4 431.7,58.4 431.7,102.6 436.9,102.6 436.9,64.7 459.2,102.6 465.4,102.6 
		465.4,58.4 460.2,58.4 	"/>
	<polygon class="st0" points="301.6,139.9 318,139.9 318,135.6 301.6,135.6 301.6,120.5 322,120.5 322,116.1 296.2,116.1 
		296.2,160.4 323.1,160.4 323.1,156 301.6,156 	"/>
	<polygon class="st0" points="225.5,70.8 228.6,72.5 235.9,60 231,57.7 	"/>
	<path class="st0" d="M216.3,128.7v-0.2c0-8.9-7-12.3-15.5-12.3h-13.3v44.2h5.4v-19.2h6.8l13.2,19.2h6l-13.6-19.6
		C211.4,139.6,216.3,136,216.3,128.7z M192.9,136.9v-16.4h8.3c6,0,9.7,2,9.7,8v0.2c0,5.4-3.4,8.2-9.7,8.2H192.9z"/>
	<path class="st0" d="M358.7,128.7v-0.2c0-8.9-7-12.3-15.5-12.3H330v44.2h5.4v-19.2h6.8l13.2,19.2h6l-13.6-19.6
		C353.8,139.6,358.7,136,358.7,128.7z M335.3,136.9v-16.4h8.3c6,0,9.7,2,9.7,8v0.2c0,5.4-3.4,8.2-9.7,8.2H335.3z"/>
	<path class="st0" d="M405.7,84.8h12.9c-0.2,7.9-4.3,14.1-13.9,14.1c-10.4,0-15.8-7.2-15.8-18.1v-0.5c0-10.8,5.8-18.3,16-18.3
		c6.4,0,11.3,2.7,12.5,9.8h5.4c-1.4-10-9.2-14-18-14c-12.7,0-21.4,9.7-21.4,22.6v0.5c0,12.9,7.8,22.4,21.4,22.4
		c11.3,0,19.2-6.8,19.2-19.6v-3.3h-18.2V84.8z"/>
	<path class="st0" d="M206.2,41.1c-9.5,0-15.2-6.8-15.2-18.1v-0.5c0-11.1,6.1-18.3,15.3-18.3c7.6,0,11.4,3.5,12.6,10.2h5.3
		C223.2,4.9,215.4,0,206.2,0c-12,0-20.8,9.5-20.8,22.6v0.5c0,13.6,7.9,22.4,20.7,22.4c9.9,0,17-5,18.5-15.2h-5
		C218.4,37.4,213.4,41.1,206.2,41.1z"/>
	<rect x="225.5" y="116.1" class="st0" width="5.4" height="44.2"/>
</g>
</svg>
