<?xml version="1.0" encoding="utf-8"?>
<!-- Generator: Adobe Illustrator 23.1.0, SVG Export Plug-In . SVG Version: 6.00 Build 0)  -->
<svg version="1.1" id="Ebene_1" xmlns="http://www.w3.org/2000/svg" xmlns:xlink="http://www.w3.org/1999/xlink" x="0px" y="0px"
	 width="182px" height="75px" viewBox="0 0 182 75" style="enable-background:new 0 0 182 75;" xml:space="preserve">
<style type="text/css">
	.st0{fill:#FFFFFF;}
</style>
<g>
	<g>
		<path class="st0" d="M89.9,45.8h12.4l-8.4-10L89.9,45.8z M120.5,45.8L105,5.1l-13.1,8.3c-0.1,0-0.1,0.1-0.3,0.1
			c0,0-0.1,0.1-0.1,0.3c0,0.1-0.1,0.1-0.1,0.3s0,0.3,0,0.3V15c0,0.1,0,0.1,0,0.3c0,0,0,0.1,0.1,0.1l0.1,0.1c0.1,0,0.1,0.1,0.3,0.1
			l9.5,1.6l-6.1,15.2l11,13.3H120.5L120.5,45.8z M113,0c3,0,6,0.6,8.6,1.8c2.6,1.1,5,2.8,7,4.8s3.6,4.4,4.8,7s1.8,5.5,1.8,8.6v0.4
			c0,0.1,0,0.1,0,0.3c0,0,0,0.1,0,0.3s0,0.1,0,0.3c0,0.3-0.1,0.4-0.2,0.6c-0.1,0.1-0.3,0.3-0.4,0.4c-0.1,0.1-0.4,0.3-0.5,0.3
			c-0.2,0-0.4,0.1-0.6,0c-0.2,0-0.4-0.1-0.6-0.1c-0.1-0.1-0.4-0.3-0.5-0.4c-0.1-0.1-0.3-0.4-0.3-0.5c0-0.3-0.1-0.4,0-0.6
			c0-0.1,0-0.1,0-0.3v-0.1v-0.1v-0.1c0-2.6-0.5-5.1-1.5-7.5c-1-2.3-2.4-4.4-4.1-6.1c-1.8-1.8-3.8-3.1-6.1-4.1
			c-2.3-1-4.8-1.5-7.4-1.5c-0.5,0-0.9,0-1.4,0c-0.5,0-0.9,0.1-1.3,0.1c-0.5,0.1-0.9,0.1-1.3,0.3c-0.4,0.1-0.9,0.1-1.3,0.3l1.3,3.2
			c0.4-0.1,0.6-0.1,1-0.2c0.4-0.1,0.6-0.1,1-0.1c0.4,0,0.6-0.1,1-0.1c0.4,0,0.6,0,1,0c2.1,0,4.3,0.5,6.1,1.3s3.5,1.9,5,3.4
			c1.4,1.4,2.5,3.1,3.4,5c0.8,1.9,1.3,3.9,1.3,6.1c0,0.3-0.1,0.5-0.2,0.6c-0.1,0.3-0.3,0.4-0.4,0.5c-0.1,0.1-0.4,0.3-0.5,0.3
			s-0.4,0-0.6,0c-0.2,0-0.4-0.1-0.6-0.1c-0.1-0.1-0.4-0.3-0.5-0.4c-0.1-0.1-0.3-0.4-0.3-0.5c-0.1-0.1-0.1-0.4,0-0.6
			c0-1.7-0.4-3.4-1-4.9c-0.6-1.5-1.5-2.9-2.8-3.9c-1.1-1.1-2.5-2-4-2.6s-3.1-1-4.9-1c-0.3,0-0.5,0-0.8,0s-0.5,0-0.8,0
			c-0.2,0-0.5,0-0.7,0.1c-0.3,0-0.5,0.1-0.8,0.1l14.9,39H85.4l3.4-8.5L75,23.8c-0.1-0.1-0.3-0.4-0.3-0.5s-0.1-0.4,0-0.6
			c0-0.3,0.1-0.4,0.1-0.5c0.1-0.1,0.3-0.4,0.4-0.5c0.1-0.1,0.4-0.3,0.5-0.3c0.3,0,0.4-0.1,0.6,0c0.1,0,0.4,0,0.5,0.1
			c0.1,0.1,0.4,0.3,0.5,0.4l12.8,15.3l1.6-4.1L80.6,19.8c-0.1-0.1-0.3-0.4-0.3-0.5c0-0.3-0.1-0.4,0-0.6c0-0.3,0.1-0.4,0.1-0.6
			c0.1-0.1,0.3-0.4,0.4-0.5c0.1-0.1,0.4-0.3,0.5-0.3c0.1-0.1,0.4-0.1,0.5-0.1c0.3,0,0.4,0.1,0.5,0.1c0.1,0.1,0.4,0.3,0.5,0.4
			L93,29.8l4.1-10.1l-7.9-1.4c-0.1,0-0.9-0.1-0.9-0.1s0-0.8,0-1v-3.5c0-0.3,0-0.5,0.1-0.8s0.1-0.5,0.2-0.8c0.1-0.3,0.3-0.4,0.5-0.6
			c0.1-0.3,0.4-0.4,0.6-0.5L105,1.5c0.6-0.3,1.3-0.5,1.9-0.6c0.6-0.3,1.3-0.4,2-0.5c0.6-0.1,1.4-0.3,2-0.3C111.5,0,112.3,0,113,0"/>
		<path class="st0" d="M6.3,32.5c1.6,0,2.8-0.3,2.8-2.1s-1.1-2.1-2.8-2.1H3.6v4.3H6.3z M6.3,25.5c1.5,0,2.3-0.6,2.3-1.9
			s-0.7-1.9-2.3-1.9H3.6v3.8H6.3L6.3,25.5z M0.1,35.1v-16h6c2.9-0.1,5.8,1,5.8,4.1c0,1.8-1.3,3-2.8,3.5l0,0c2,0.4,3.5,1.9,3.5,4.1
			c0,3.1-4,4.3-6.4,4.1H0.1V35.1z"/>
	</g>
	<path class="st0" d="M23.6,29.1l-2.3-6.8l0,0L19,29.1H23.6z M13.8,35.1l5.8-16h4.1l5.5,16h-3.5l-1.1-3.4h-6.4l-1.3,3.4H13.8z"/>
	<polygon class="st0" points="40.4,35.1 34.1,21.9 34,21.9 34,35.1 30.9,35.1 30.9,19.1 36,19.1 42,31.8 42.1,31.6 42.1,19.1 
		45.3,19.1 45.3,35.1 	"/>
	<polygon class="st0" points="51.5,26 51.5,26 56.9,19.1 60.9,19.1 55,26.3 61.4,35.1 57.1,35.1 51.5,27 51.5,27 51.5,35.1 
		48.1,35.1 48.1,19.1 51.5,19.1 	"/>
	<polygon class="st0" points="151,19.1 161.8,19.1 161.8,21.8 154.4,21.8 154.4,25.5 161.3,25.5 161.3,28.3 154.4,28.3 154.4,32.5 
		162,32.5 162,35.1 151,35.1 	"/>
	<polygon class="st0" points="167.4,26 167.5,26 172.8,19.1 176.8,19.1 170.9,26.3 177.3,35.1 173,35.1 167.5,27 167.4,27 
		167.4,35.1 164,35.1 164,19.1 167.4,19.1 	"/>
	<rect x="178.6" y="19.1" class="st0" width="3.4" height="16"/>
	<rect y="66.4" class="st0" width="1.3" height="8.5"/>
	<g>
		<path class="st0" d="M6,68.6h1.1v1l0,0c0.4-0.8,1.1-1.1,2-1.1c1.6,0,2.4,1,2.4,2.6v3.6h-1.1v-3.3c0-1.5-0.4-2.1-1.3-2.3
			c-1.3,0-1.9,1-1.9,2.5v2.9H6V68.6z"/>
		<path class="st0" d="M19.5,69.6h-1.6V73c0,0.8,0.4,1.1,1,1.1c0.4,0,0.6-0.1,0.8-0.3v1C19.4,75,19,75,18.6,75
			c-1.1,0-1.9-0.5-1.9-1.8v-3.6h-1.4v-0.9h1.4v-1.4l1.1-0.4v1.8h1.6V69.6L19.5,69.6z"/>
		<path class="st0" d="M27.6,71.1c0-1-0.5-1.8-1.5-1.8c-1.1,0-1.6,0.9-1.6,1.8H27.6z M28.4,74.6c-0.4,0.1-0.9,0.4-2,0.4
			c-2.2,0-3.3-1.4-3.3-3.4c0-1.9,1.1-3.1,2.9-3.1c2,0,2.8,1.5,2.8,3.5h-4.4c0,1.3,1,2,2,2c0.8,0,1.6-0.4,1.9-0.6
			C28.4,73.5,28.4,74.6,28.4,74.6z"/>
		<path class="st0" d="M33.1,68.6h1.1v1l0,0c0.3-0.6,1-1.1,1.6-1.1c0.4,0,0.5,0,0.8,0.1v1c-0.3-0.1-0.4-0.1-0.6-0.1
			c-1,0-1.6,1-1.6,2.5v2.8h-1.1C33.1,74.9,33.1,68.6,33.1,68.6z"/>
	</g>
	<rect x="40.8" y="65.8" class="st0" width="1.1" height="9.1"/>
	<g>
		<path class="st0" d="M50.4,71.9c-0.3,0-0.5,0-0.8,0c-0.6,0-2.1,0.1-2.1,1.1c0,0.6,0.6,1,1.1,1c1.1,0,1.8-0.8,1.8-1.6
			C50.4,72.5,50.4,71.9,50.4,71.9z M47,69.1c0.6-0.4,1.3-0.6,2-0.6c1.8,0,2.5,0.9,2.5,2.5v2.5c0,0.8,0,1,0,1.3h-1.1V74l0,0
			c-0.3,0.4-0.9,1-1.9,1c-1.4,0-2.2-0.6-2.2-1.9c0-1.5,1.8-2,2.9-2c0.5,0,0.8,0,1.3,0c0-1.1-0.4-1.6-1.5-1.6c-0.6,0-1.4,0.3-1.8,0.6
			L47,69.1z"/>
	</g>
	<polygon class="st0" points="56.3,65.8 56.3,74.9 57.4,74.9 57.4,71.6 60.1,74.9 61.8,74.9 58.5,71.4 61.4,68.6 59.9,68.6 
		57.4,71.1 57.4,65.8 	"/>
	<g>
		<path class="st0" d="M69.8,71.1c0-1-0.5-1.8-1.5-1.8c-1.1,0-1.6,0.9-1.6,1.8H69.8z M70.5,74.6c-0.5,0.1-1,0.4-2,0.4
			c-2.3,0-3.3-1.4-3.3-3.4c0-1.9,1.1-3.1,2.9-3.1c2,0,2.8,1.5,2.8,3.5h-4.4c0,1.3,1,2,2,2c0.8,0,1.6-0.4,1.9-0.6v1.3H70.5z"/>
		<path class="st0" d="M75.3,68.6h1.1v1l0,0c0.4-0.8,1.1-1.1,2-1.1c1.6,0,2.4,1,2.4,2.6v3.6h-1.1v-3.3c0-1.5-0.4-2.1-1.3-2.3
			c-1.3,0-1.9,1-1.9,2.5v2.9h-1.1C75.3,74.9,75.3,68.6,75.3,68.6z"/>
	</g>
	<polygon class="st0" points="93.9,66.4 91.9,68.1 92.5,68.9 93.8,67.8 93.8,74.9 95,74.9 95,66.4 	"/>
	<g>
		<path class="st0" d="M103.6,70c1-0.8,1.1-1.1,1.1-1.6c0-0.8-0.9-1.1-1.4-1.1c-0.5,0-1.4,0.4-1.4,1.3C101.9,69,102.5,69.4,103.6,70
			 M103.1,70.9c-0.8,0.5-1.4,0.8-1.4,1.8c0,0.9,0.9,1.5,1.8,1.5c0.8,0,1.5-0.5,1.5-1.4C105,71.5,104.1,71.3,103.1,70.9 M100.5,72.6
			c0-1.1,0.8-1.9,1.8-2.3l0,0c-1.3-0.4-1.6-1.3-1.6-2.1c0-1.1,1-2,2.8-2c1.6,0,2.6,1,2.6,1.9c0,1-0.4,1.6-1.5,2.1
			c1,0.4,1.8,1.1,1.8,2.3c0,1.8-1.4,2.4-2.9,2.4C102,75,100.5,74.3,100.5,72.6"/>
		<path class="st0" d="M115.3,67.4h-3.5l-0.1,2.3c0.3,0,0.6-0.1,1.1-0.1c1.5,0,2.7,1.1,2.7,2.6c0,1.9-1.5,2.9-3.3,2.9
			c-0.9,0-1.5-0.1-1.9-0.3v-1.1c0.5,0.3,1,0.4,1.8,0.4c1,0,2-0.6,2-1.6c0-1.3-0.9-1.8-2-1.8c-0.8,0-1.1,0.1-1.6,0.4l0.1-4.5h4.6
			L115.3,67.4L115.3,67.4z"/>
		<path class="st0" d="M119.6,73.5c0.4-0.4,1-0.9,1.5-1.4c0.9-0.9,2.4-2.3,2.4-3.6c0-0.8-0.7-1.4-1.6-1.4c-0.8,0-1.5,0.3-2,0.5
			l-0.1-1c0.8-0.3,1.5-0.5,2.3-0.5c1.5,0,2.7,0.9,2.7,2.4c0,1.4-1.5,2.9-2.5,3.9c-0.5,0.5-1.1,1-1.5,1.4h4v1h-5.4
			C119.6,74.9,119.6,73.5,119.6,73.5z"/>
	</g>
</g>
</svg>
