<?xml version="1.0" encoding="utf-8"?>
<!-- Generator: Adobe Illustrator 23.1.0, SVG Export Plug-In . SVG Version: 6.00 Build 0)  -->
<svg version="1.1" id="Ebene_2" xmlns="http://www.w3.org/2000/svg" xmlns:xlink="http://www.w3.org/1999/xlink" x="0px" y="0px"
	 width="472.2px" height="159.7px" viewBox="0 0 472.2 159.7" style="enable-background:new 0 0 472.2 159.7;" xml:space="preserve"
	>
<style type="text/css">
	.st0{fill:#FFFFFF;}
</style>
<g>
	<path class="st0" d="M122.8,0c0,0.8-0.5,5.7-1.5,12.7c0,0.3-0.1,0.6-0.1,1c0,0,0,0.1,0,0.1h0c-2,14.5-19.5,64.5-74.3,92.9
		c-1.6,0.8-3.2,1.6-4.9,2.4c-1.1,0.5-2.2,1-3.4,1.6c-1.1,0.5-2.3,1-3.4,1.5c-0.6,0.2-1.2,0.5-1.8,0.7c-1.8,0.7-3.6,1.4-5.4,2.1
		c-8.6,3.2-17.9,5.8-27.9,7.8c34.2-11.6,78.4-57,82-115.2C82.2,4,82.2,1.6,81.9,0L122.8,0z"/>
	<path class="st0" d="M160.6,13.7c0,10.2,0,36.4-29.1,72C83.5,144.6,0,122.9,0,122.9c116.1-2.4,119.2-92.1,121.1-109
		c0,0,0-0.1,0-0.1H160.6z"/>
	<g>
		<g>
			<path class="st0" d="M269.1,104.5l-0.7,18.5H197c0.7-16.9,1.1-35.9,1.1-57.1c0-20.4-0.4-37.7-1.1-52.1h68.1l-0.9,18.4
				c-16.8-0.9-32-1.3-45.6-1.3c0.6,7.8,0.8,17,0.8,27.5c11.7,0,24.2-0.3,37.5-0.9v17.5c-13.1-0.6-25.6-0.8-37.5-0.8
				c0,11.4,0.2,22,0.7,31.9C235.4,105.9,251.8,105.5,269.1,104.5z"/>
			<path class="st0" d="M371.6,123h-27.4c0-2.6-4.7-11.4-14.2-26.6c-10.1-16.2-17.2-24.3-21.4-24.3h-2.5c0,12.8,0.3,29.7,0.9,50.9
				h-23.7c0.7-16.9,1.1-35.9,1.1-57.1c0-20.4-0.4-37.7-1.1-52.1H307c-0.6,15.5-0.9,30-0.9,43.6h1.8c2.5,0,8.7-6.9,18.6-20.6
				c9.7-13.4,14.5-21,14.5-23h25c0,1.8-5.1,8.8-15.4,20.9c-10.6,12.5-18.3,20.4-23.2,23.8v1.3c5.7,3,14.7,14,26.9,33.1
				C365.9,110.6,371.6,120.7,371.6,123z"/>
			<path class="st0" d="M472.2,123h-24.8c-6.5-19.8-11.5-32-14.9-36.7c-3.5-4.6-9.1-7-16.8-7c-3.2,0-6.3,0-9.3,0.1
				c0,14.4,0.3,28.9,0.8,43.5h-23.3c0.7-16.9,1.1-35.9,1.1-57.1c0-20.4-0.4-37.7-1.1-52.1h14.5c1.7,0,5.2-0.1,10.5-0.3
				c5.3-0.2,10.3-0.3,14.8-0.3c25.7,0,38.5,8.8,38.5,26.3c0,13.9-7.3,23.6-22,29.1v1.3c5.6,1.6,10.6,6,14.9,13.2
				C459.3,90.4,465,103.7,472.2,123z M440.8,45.8c0-11.1-7.2-16.7-21.5-16.7c-5.3,0-9.9,0.4-13.9,1.2c0.6,8.7,0.9,20,0.9,33.9
				c3.1,0.1,5.7,0.2,7.8,0.2C431.9,64.3,440.8,58.1,440.8,45.8z"/>
		</g>
	</g>
	<path class="st0" d="M121.1,13.7C121.1,13.8,121.1,13.8,121.1,13.7L121.1,13.7c-2,14.6-19.5,64.5-74.3,93
		C101.6,78.2,119.1,28.2,121.1,13.7L121.1,13.7z"/>
	<g>
		<path class="st0" d="M207.1,143.6c-0.8-1.2-2-1.8-3.6-1.8c-2,0-4,1-4,3.4c0,5.1,9.6,2.4,9.6,9.1c0,3.4-3.2,5.4-6.2,5.4
			c-2.3,0-4.5-0.8-5.9-2.8l1.7-1.2c0.8,1.4,2.3,2.3,4.3,2.3c1.9,0,4-1.2,4-3.4c0-5.3-9.6-2.4-9.6-9.2c0-3.6,3-5.3,6.1-5.3
			c2.1,0,3.8,0.6,5.3,2.3L207.1,143.6z"/>
		<path class="st0" d="M213.5,153.6c0.2,2.5,2.1,4.4,4.6,4.4c1.9,0,3.3-1,4-2.1l1.4,1.1c-1.5,1.9-3.3,2.6-5.3,2.6
			c-3.7,0-6.4-2.8-6.4-6.5c0-3.7,2.7-6.5,6.2-6.5c3.8,0,5.9,2.8,5.9,6.2v0.8H213.5z M221.9,152.1c0-2.4-1.5-4-4-4
			c-2.3,0-4.3,1.9-4.3,4H221.9z"/>
		<path class="st0" d="M228.9,143.4c-0.6,0-1.3-0.5-1.3-1.3c0-0.7,0.6-1.3,1.3-1.3c0.6,0,1.3,0.5,1.3,1.3
			C230.2,142.9,229.5,143.4,228.9,143.4z M229.8,159.3H228v-12.4h1.7V159.3z"/>
		<path class="st0" d="M241,148.5h-3.6v7.3c0,1.8,0.7,2.2,1.8,2.2c0.6,0,1.3-0.2,1.8-0.5l0.1,1.6c-0.6,0.3-1.5,0.4-2.4,0.4
			c-1.3,0-3.1-0.6-3.1-3.3v-7.8h-2.6v-1.6h2.6v-3.5h1.7v3.5h3.6V148.5z"/>
		<path class="st0" d="M259.4,159.3h-1.9v-16.4l-3.4,3l-1.2-1.4l4.8-3.9h1.7V159.3z"/>
		<path class="st0" d="M268.4,149.3c-1.6-0.6-2.8-2.3-2.8-4.2c0-3,2.4-4.9,5.2-4.9c2.8,0,5.2,1.9,5.2,4.9c0,1.9-1.2,3.6-2.8,4.2v0.1
			c2.1,0.6,3.5,2.5,3.5,4.9c0,3.3-2.8,5.3-5.9,5.3c-3.2,0-5.9-2.1-5.9-5.3C264.9,151.8,266.3,149.9,268.4,149.3L268.4,149.3z
			 M270.8,150.2c-2.4,0-4,1.6-4,3.8c0,2.2,1.6,3.8,4,3.8c2.4,0,4-1.6,4-3.8C274.8,151.8,273.2,150.2,270.8,150.2z M270.8,142
			c-1.9,0-3.3,1.4-3.3,3.3c0,1.9,1.5,3.3,3.3,3.3c1.9,0,3.3-1.4,3.3-3.3C274.1,143.3,272.7,142,270.8,142z"/>
		<path class="st0" d="M283.7,148.6h1c2.2,0,4.1-1,4.1-3.4c0-2-1.3-3.2-3.5-3.2c-1.6,0-2.8,0.7-3.6,2.1l-1.7-0.8c1.1-2,2.9-3,5.2-3
			c2.9,0,5.4,1.7,5.4,4.9c0,2-1.5,3.7-3.2,4.3l0.1,0.1c2.1,0.5,3.6,2.4,3.6,4.8c0,3.5-2.7,5.4-6,5.4c-2.8,0-4.9-1.1-5.9-3.8l2-0.6
			c0.6,1.8,1.8,2.6,4,2.6c2.1,0,3.9-1.5,3.9-3.7c0-2.8-2.3-3.8-4.8-3.8h-0.8V148.6z"/>
		<path class="st0" d="M305.5,142.3h-7.7l-0.1,5.6c0.8-0.3,1.7-0.5,2.5-0.5c3.5,0,5.9,2.6,5.9,6c0,3.6-2.7,6.1-6.3,6.1
			c-2.4,0-4.4-1.2-5.4-3.3l1.9-0.8c0.7,1.5,2,2.4,3.7,2.4c2.4,0,4.2-1.9,4.2-4.2c0-2.6-1.9-4.4-4.6-4.4c-1.4,0-2.7,0.4-3.9,1
			l0.2-9.7h9.6V142.3z"/>
	</g>
</g>
<g>
</g>
<g>
</g>
<g>
</g>
<g>
</g>
<g>
</g>
<g>
</g>
</svg>
