<?xml version="1.0" encoding="utf-8"?>
<!-- Generator: Adobe Illustrator 26.0.2, SVG Export Plug-In . SVG Version: 6.00 Build 0)  -->
<svg version="1.1" id="Ebene_1" xmlns="http://www.w3.org/2000/svg" xmlns:xlink="http://www.w3.org/1999/xlink" x="0px" y="0px"
	 width="279.21px" height="43.09px" viewBox="0 0 279.21 43.09" style="enable-background:new 0 0 279.21 43.09;"
	 xml:space="preserve">
<path d="M23.72,0.99v15.75H11.25V0.99H0.3V42.1h10.95V26.17h12.47V42.1h10.95V0.99H23.72z M53.01,42.8
	c9.55,0,15.29-4.86,15.29-12.94c0-5.68-2.58-9.14-8.84-11.77l-5.56-2.34c-2.69-1.17-3.51-1.99-3.51-3.51c0-1.82,1.82-3.05,4.63-3.05
	c4.39,0,7.97,2.17,9.08,2.17c0.57,0.04,1.08-0.33,1.23-0.88l2.46-7.03c-4.02-2.08-8.48-3.17-13-3.16c-9.14,0-15.11,4.86-15.11,12.06
	c0,5.62,2.52,9.31,8.2,11.83l6.56,2.93c2.17,0.94,3.05,1.93,3.05,3.4c0,2.23-1.64,3.34-4.86,3.34c-5.04,0-9.37-2.28-10.31-2.28
	c-0.62-0.01-1.17,0.4-1.35,1l-1.99,7.32C43.4,41.75,48.18,42.74,53.01,42.8z M73.74,42.1h26.35v-7.91c0-1.05-0.47-1.52-1.52-1.52
	H84.69V0.99H73.74L73.74,42.1L73.74,42.1z M119.42,42.8c11.42,0,17.12-5.99,17.1-17.98V0.99h-10.95v22.84c0,6.74-1.7,9.31-6.15,9.31
	s-6.15-2.58-6.15-9.31V0.99h-10.95v23.84C102.32,36.83,108.02,42.82,119.42,42.8L119.42,42.8z"/>
<path d="M147.69,42.1h9.6c0.4,0,0.67-0.16,0.67-0.64v-1.63c0.03-0.32-0.2-0.61-0.52-0.65c-0.05-0.01-0.1,0-0.15,0h-6.85v-14.9
	c0-0.53-0.19-0.72-0.7-0.72h-2.17c-0.43,0-0.64,0.24-0.64,0.7v17.09C146.94,41.94,147.21,42.1,147.69,42.1L147.69,42.1z
	 M164.38,42.42c1.58-0.04,3.11-0.62,4.31-1.66l0.03,0.8c0.03,0.37,0.21,0.53,0.64,0.53h1.79c0.48,0,0.67-0.21,0.67-0.7V29.56
	c0-0.43-0.21-0.61-0.7-0.61h-1.93c-0.45,0-0.67,0.19-0.67,0.61v8.69c-0.88,0.78-1.98,1.26-3.16,1.36c-1.39,0-2.01-0.78-2.01-2.62
	v-7.43c0-0.43-0.19-0.61-0.67-0.61h-1.9c-0.48,0-0.72,0.21-0.72,0.61v8C160.07,40.74,161.54,42.42,164.38,42.42L164.38,42.42z
	 M183.87,39.69h-5.78l5.88-8.53c0.19-0.25,0.28-0.57,0.27-0.88V29.5c0-0.29-0.11-0.56-0.62-0.56h-8.58c-0.35,0-0.51,0.21-0.51,0.56
	v1.15c0,0.56,0.11,0.7,0.62,0.7h4.95l-5.78,8.5c-0.2,0.26-0.3,0.58-0.27,0.91v0.7c-0.04,0.31,0.17,0.6,0.48,0.64
	c0.05,0.01,0.11,0.01,0.16,0h9.2c0.26,0.03,0.48-0.16,0.51-0.42c0-0.03,0-0.06,0-0.09v-1.44C184.41,39.8,184.19,39.69,183.87,39.69z
	 M192.24,42.42c1.57,0.02,3.12-0.27,4.57-0.86c0.31-0.1,0.49-0.43,0.4-0.74c-0.01-0.02-0.01-0.04-0.02-0.06l-0.37-1.39
	c-0.08-0.32-0.29-0.4-0.7-0.24c-1.05,0.44-2.18,0.67-3.32,0.67c-2.04,0.08-3.76-1.49-3.88-3.53h7.94c0.7,0,0.88-0.16,0.88-0.8v-0.4
	c0-3.98-2.11-6.44-5.56-6.44c-4.01,0-6.71,2.75-6.71,6.85C185.48,39.77,188.04,42.42,192.24,42.42L192.24,42.42z M188.98,34.13
	c0.06-1.64,1.38-2.95,3.02-3c1.39-0.01,2.52,1.11,2.52,2.5c0,0.07,0,0.13-0.01,0.2v0.29H188.98z M200.93,42.1h1.98
	c0.43,0,0.64-0.21,0.64-0.67v-8.61c0.64-0.78,1.59-1.25,2.59-1.28c0.21,0,0.45,0.03,0.75,0.05c0.32,0.05,0.48-0.05,0.53-0.4
	l0.24-1.93c0.04-0.16,0-0.33-0.11-0.45c-0.27-0.15-0.58-0.21-0.88-0.19c-1.34,0.03-2.58,0.73-3.29,1.87l-0.03-0.96
	c0-0.43-0.21-0.59-0.67-0.59h-1.74c-0.48,0-0.7,0.19-0.7,0.69v11.79c-0.05,0.32,0.17,0.62,0.48,0.67
	C200.81,42.11,200.87,42.11,200.93,42.1L200.93,42.1z M210.19,42.1h1.98c0.48,0,0.67-0.21,0.67-0.67v-8.66
	c0.89-0.77,2.01-1.24,3.18-1.34c1.42,0,2.06,0.8,2.06,2.59v7.38c0,0.48,0.21,0.7,0.67,0.7h1.98c0.45,0,0.64-0.21,0.64-0.7v-7.94
	c0-3.18-1.47-4.84-4.31-4.84c-1.61,0.03-3.16,0.61-4.39,1.66l-0.03-0.78c-0.03-0.4-0.24-0.56-0.67-0.56h-1.76
	c-0.32-0.05-0.62,0.17-0.67,0.48c-0.01,0.06-0.01,0.12,0,0.18v11.85c-0.03,0.32,0.21,0.61,0.53,0.64
	C210.12,42.1,210.15,42.1,210.19,42.1L210.19,42.1z"/>
<path d="M147.69,19.52h2.09c0.45,0,0.67-0.19,0.67-0.67v-7.49h7.59v7.49c0,0.48,0.21,0.67,0.72,0.67h2.14
	c0.45,0,0.64-0.19,0.64-0.67V1.65c0-0.51-0.21-0.67-0.64-0.67h-2.14c-0.45,0-0.72,0.19-0.72,0.67v6.82h-7.59V1.65
	c0-0.51-0.24-0.67-0.67-0.67h-2.09c-0.43,0-0.75,0.19-0.75,0.67v17.2C146.94,19.33,147.18,19.52,147.69,19.52z M170.53,19.84
	c3.98,0,6.61-2.75,6.61-6.93c0-4.33-2.38-6.87-6.45-6.87c-4.01,0-6.63,2.7-6.63,6.85C164.06,17.25,166.46,19.84,170.53,19.84
	L170.53,19.84z M170.56,17.27c-2.01,0-3.1-1.58-3.1-4.44c0-2.67,1.18-4.23,3.21-4.23c1.98,0,3.08,1.52,3.08,4.31
	C173.74,15.67,172.56,17.27,170.56,17.27L170.56,17.27z M185.61,19.84c1.35,0.03,2.7-0.24,3.93-0.8c0.4-0.19,0.45-0.35,0.32-0.8
	l-0.37-1.34c-0.08-0.24-0.27-0.32-0.59-0.21c-0.89,0.41-1.86,0.62-2.83,0.62c-2.22,0-3.53-1.63-3.53-4.41c0-2.7,1.36-4.28,3.66-4.28
	c0.9-0.01,1.79,0.19,2.59,0.59c0.32,0.19,0.53,0.11,0.62-0.24l0.35-1.44c0.08-0.43,0.03-0.59-0.27-0.72
	c-1.15-0.5-2.39-0.75-3.64-0.75c-4.12,0-6.71,2.73-6.71,7.01S181.52,19.84,185.61,19.84L185.61,19.84z M192.86,19.52h2.09
	c0.37,0,0.59-0.21,0.59-0.67v-8.66c0.92-0.78,2.06-1.25,3.26-1.34c1.63,0,2.03,1.12,2.03,2.59v7.41c0,0.48,0.21,0.67,0.7,0.67h1.9
	c0.48,0,0.7-0.19,0.7-0.67v-7.97c0-2.94-1.26-4.84-4.31-4.84c-1.56,0.03-3.06,0.58-4.28,1.55V1.6c0-0.48-0.24-0.62-0.67-0.62h-1.9
	c-0.43,0-0.72,0.16-0.72,0.62v17.28c-0.05,0.3,0.16,0.59,0.47,0.64C192.76,19.52,192.81,19.52,192.86,19.52L192.86,19.52z
	 M210.94,19.84c3.21,0,5.32-1.66,5.32-4.2c-0.02-1.59-1.05-2.99-2.57-3.48l-2.46-0.99c-0.94-0.37-1.28-0.75-1.28-1.39
	c0-0.75,0.67-1.26,1.66-1.26c1.02-0.03,2.03,0.19,2.94,0.64c0.17,0.14,0.42,0.11,0.56-0.07c0.04-0.05,0.07-0.11,0.08-0.18l0.48-1.44
	c0.11-0.37,0.05-0.51-0.29-0.67c-1.24-0.53-2.58-0.8-3.93-0.8c-2.86,0-4.87,1.58-4.87,3.82c0.01,1.69,1.13,3.18,2.75,3.66l2.14,0.8
	c1.2,0.45,1.63,0.88,1.63,1.6c0,0.88-0.8,1.44-2.09,1.44c-1.17-0.04-2.32-0.34-3.37-0.86c-0.32-0.13-0.53-0.05-0.64,0.27l-0.48,1.5
	c-0.11,0.23,0,0.51,0.23,0.62c0.02,0.01,0.04,0.02,0.06,0.02C208.1,19.52,209.51,19.84,210.94,19.84L210.94,19.84z M224.41,19.84
	c1.35,0.03,2.7-0.24,3.93-0.8c0.4-0.19,0.45-0.35,0.32-0.8l-0.37-1.34c-0.08-0.24-0.27-0.32-0.59-0.21
	c-0.89,0.41-1.86,0.62-2.83,0.62c-2.22,0-3.53-1.63-3.53-4.41c0-2.7,1.36-4.28,3.66-4.28c0.9-0.01,1.79,0.19,2.59,0.59
	c0.32,0.19,0.53,0.11,0.62-0.24l0.35-1.44c0.08-0.43,0.03-0.59-0.27-0.72c-1.15-0.5-2.39-0.75-3.64-0.75
	c-4.12,0-6.71,2.73-6.71,7.01S220.32,19.84,224.41,19.84L224.41,19.84z M231.66,19.52h2.09c0.37,0,0.59-0.21,0.59-0.67v-8.66
	c0.92-0.78,2.06-1.25,3.26-1.34c1.63,0,2.03,1.12,2.03,2.59v7.41c0,0.48,0.21,0.67,0.69,0.67h1.9c0.48,0,0.7-0.19,0.7-0.67v-7.97
	c0-2.94-1.26-4.84-4.31-4.84c-1.56,0.03-3.06,0.58-4.28,1.55V1.6c0-0.48-0.24-0.62-0.67-0.62h-1.9c-0.43,0-0.72,0.16-0.72,0.62
	v17.28c-0.05,0.31,0.16,0.59,0.47,0.64C231.56,19.52,231.61,19.52,231.66,19.52L231.66,19.52z M250.17,19.84
	c1.58-0.04,3.11-0.62,4.31-1.66l0.03,0.8c0.03,0.37,0.21,0.53,0.64,0.53h1.79c0.48,0,0.67-0.21,0.67-0.7V6.98
	c0-0.43-0.21-0.61-0.7-0.61h-1.93c-0.45,0-0.67,0.19-0.67,0.61v8.69c-0.88,0.78-1.98,1.26-3.16,1.36c-1.39,0-2.01-0.78-2.01-2.62
	V6.98c0-0.43-0.19-0.61-0.67-0.61h-1.9c-0.48,0-0.72,0.21-0.72,0.61v8C245.86,18.15,247.33,19.84,250.17,19.84L250.17,19.84z
	 M261.43,19.52h2.09c0.37,0,0.59-0.21,0.59-0.67V1.6c0-0.48-0.24-0.62-0.67-0.62h-1.9c-0.43,0-0.72,0.16-0.72,0.62v17.28
	c-0.05,0.31,0.16,0.59,0.47,0.64C261.33,19.52,261.38,19.52,261.43,19.52L261.43,19.52z M273.41,19.84
	c1.57,0.02,3.12-0.27,4.57-0.86c0.31-0.1,0.49-0.43,0.4-0.74c-0.01-0.02-0.01-0.04-0.02-0.06l-0.37-1.39
	c-0.08-0.32-0.29-0.4-0.7-0.24c-1.05,0.44-2.18,0.67-3.32,0.67c-2.04,0.08-3.76-1.49-3.88-3.53h7.94c0.7,0,0.88-0.16,0.88-0.8v-0.4
	c0-3.98-2.11-6.44-5.56-6.44c-4.01,0-6.71,2.75-6.71,6.85C266.64,17.19,269.21,19.84,273.41,19.84L273.41,19.84z M270.14,11.55
	c0.06-1.64,1.38-2.95,3.02-3c1.39-0.01,2.52,1.11,2.52,2.5c0,0.07,0,0.13-0.01,0.2v0.29H270.14z"/>
</svg>
