<?xml version="1.0" encoding="utf-8"?>
<!-- Generator: Adobe Illustrator 23.1.0, SVG Export Plug-In . SVG Version: 6.00 Build 0)  -->
<svg version="1.1" id="Ebene_1" xmlns="http://www.w3.org/2000/svg" xmlns:xlink="http://www.w3.org/1999/xlink" x="0px" y="0px"
	 width="324.803px" height="61.919px" viewBox="0 0 324.803 61.919" enable-background="new 0 0 324.803 61.919"
	 xml:space="preserve">
<path fill="#FFFFFF" d="M135.574,57.731l-0.007-0.106l-0.236-3.814l-0.007-0.119h1.301l-0.25,4.039H135.574 M118.947,58.352h0.789
	l-0.771-2.362l-0.786,2.362H118.947z M109.762,58.352h0.771l-0.754-2.361l-0.804,2.361H109.762z M118.838,54.3l0.177-0.531
	l0.026-0.077h0.653l0.026,0.077l2.472,7.434h0.896v0.558h-3.292v-0.558h0.863l-0.714-2.194h-1.982l-0.749,2.194h0.998v0.558h-2.525
	v-0.558h0.876L118.838,54.3z M109.656,54.3l0.177-0.531l0.026-0.077h0.653l0.025,0.077l2.472,7.434h0.877v0.558h-3.272v-0.558h0.843
	l-0.714-2.194h-1.981l-0.731,2.194h0.979v0.558h-2.525v-0.558h0.877L109.656,54.3z M85.519,61.899c-0.508,0-0.971-0.097-1.392-0.293
	c-0.42-0.196-0.797-0.491-1.132-0.887c-0.342-0.403-0.6-0.848-0.772-1.333c-0.171-0.484-0.257-1.008-0.257-1.571
	c0-1.145,0.342-2.132,1.026-2.978c0.001-0.001,0.002-0.001,0.002-0.002l-0.002,0.002c0.001-0.001,0.002-0.001,0.002-0.002
	c0.331-0.431,0.699-0.754,1.097-0.97c0.407-0.221,0.846-0.33,1.31-0.33c0.356,0,0.697,0.056,1.028,0.165
	c0.306,0.101,0.603,0.249,0.894,0.439l0.288-0.4l0.034-0.047h0.503v2.387h-0.531l-0.023-0.081c-0.086-0.306-0.191-0.574-0.32-0.808
	c-0.127-0.23-0.277-0.428-0.456-0.596h0.001c-0.167-0.158-0.354-0.279-0.556-0.36c-0.199-0.08-0.415-0.121-0.646-0.121
	c-0.354,0-0.661,0.074-0.924,0.22c-0.263,0.145-0.485,0.363-0.671,0.651c-0.179,0.303-0.308,0.679-0.391,1.131
	c-0.085,0.459-0.124,0.998-0.124,1.622c0,0.657,0.039,1.218,0.112,1.682c0.074,0.468,0.185,0.84,0.328,1.117l-0.001-0.002
	c0.147,0.266,0.344,0.468,0.589,0.602c0.246,0.135,0.542,0.205,0.886,0.205c0.271,0,0.504-0.037,0.7-0.111
	c0.192-0.072,0.349-0.18,0.474-0.323c0.126-0.143,0.222-0.33,0.286-0.556c0.065-0.233,0.099-0.509,0.099-0.825v-0.262h-0.944v-0.558
	h3.075v0.558h-0.649v0.262c0,0.322-0.073,0.625-0.222,0.907c-0.147,0.28-0.369,0.538-0.665,0.773
	c-0.293,0.232-0.612,0.405-0.953,0.52C86.276,61.842,85.907,61.899,85.519,61.899z M129.145,61.722
	c-0.16,0.019-0.322,0.039-0.505,0.039h-3.435v-0.558h0.924V54.25h-0.924v-0.558h2.944c0.182,0,0.357,0.005,0.521,0.018
	c0,0,0,0,0.001,0h-0.001c0,0,0,0,0.001,0c0.166,0.012,0.328,0.032,0.482,0.063h-0.003c0.432,0.07,0.815,0.181,1.156,0.337
	c0.344,0.158,0.645,0.362,0.909,0.617l0.001,0.001c0.346,0.346,0.611,0.768,0.789,1.271c0.176,0.498,0.267,1.076,0.267,1.738
	c0,0.587-0.084,1.121-0.248,1.601c-0.167,0.491-0.417,0.925-0.743,1.303l-0.003,0.003c-0.285,0.306-0.608,0.551-0.966,0.732
	C129.958,61.555,129.568,61.671,129.145,61.722C129.145,61.722,129.145,61.722,129.145,61.722z M100.763,61.203v-6.972h-0.34
	c-0.262,0-0.485,0.037-0.673,0.108c-0.185,0.07-0.339,0.174-0.464,0.308c-0.116,0.125-0.216,0.307-0.299,0.541
	c-0.087,0.245-0.155,0.544-0.203,0.893l-0.014,0.096h-0.554l0.011-0.121l0.098-1.14l0.098-1.121l0.009-0.103h6.066l0.009,0.103
	l0.098,1.121l0.109,1.261h-0.577l-0.011-0.099c-0.038-0.344-0.1-0.641-0.183-0.884c-0.081-0.236-0.181-0.421-0.299-0.547
	c-0.126-0.135-0.286-0.239-0.477-0.309c-0.193-0.07-0.419-0.107-0.679-0.107h-0.321v6.972h1.062v0.558h-3.528v-0.558H100.763z
	 M95.294,55.804l-0.015-0.095c-0.037-0.232-0.107-0.441-0.212-0.632c-0.104-0.19-0.244-0.362-0.421-0.521
	c-0.166-0.147-0.346-0.258-0.54-0.332c-0.193-0.074-0.402-0.111-0.624-0.111c-0.211,0-0.404,0.032-0.577,0.092
	c-0.175,0.062-0.332,0.154-0.47,0.274l-0.003,0.002c-0.143,0.116-0.25,0.249-0.322,0.395c-0.072,0.148-0.108,0.31-0.108,0.481
	c0,0.148,0.034,0.282,0.103,0.402v0.001c0.07,0.122,0.177,0.233,0.319,0.331c0.001,0,0.001,0.001,0.001,0.001l-0.001-0.001
	c0.001,0,0.001,0,0.001,0.001c0.149,0.102,0.352,0.201,0.609,0.296c0.262,0.096,0.577,0.189,0.946,0.276l0.003,0.001
	c0.378,0.1,0.709,0.224,0.989,0.371c0.289,0.152,0.528,0.328,0.715,0.525l0.002,0.002c0.187,0.208,0.327,0.442,0.42,0.707
	c0.093,0.263,0.14,0.555,0.14,0.882c0,0.406-0.062,0.777-0.181,1.108c-0.12,0.334-0.301,0.629-0.539,0.877
	c-0.247,0.258-0.526,0.449-0.843,0.575c-0.315,0.126-0.668,0.187-1.066,0.187c-0.289,0-0.582-0.056-0.883-0.17
	c-0.278-0.104-0.564-0.259-0.858-0.462l-0.332,0.449l-0.034,0.045h-0.502v-2.347h0.537l0.019,0.09
	c0.057,0.276,0.148,0.529,0.275,0.755c0.123,0.218,0.281,0.412,0.474,0.578l0.002,0.002c0.187,0.168,0.387,0.293,0.602,0.377
	c0.215,0.083,0.448,0.125,0.7,0.125c0.239,0,0.46-0.042,0.662-0.121c0.204-0.08,0.391-0.201,0.559-0.36
	c0.165-0.156,0.29-0.331,0.372-0.522c0.082-0.192,0.123-0.404,0.123-0.635c0-0.172-0.031-0.33-0.094-0.47
	c-0.061-0.139-0.155-0.263-0.279-0.369l0.002,0.002c-0.14-0.112-0.323-0.215-0.55-0.311c-0.233-0.098-0.513-0.191-0.841-0.277
	c-0.001-0.001-0.002-0.001-0.002-0.001l0.002,0.001c-0.001-0.001-0.002-0.001-0.002-0.001c-0.409-0.1-0.769-0.225-1.075-0.371
	c-0.314-0.15-0.577-0.325-0.783-0.521l-0.002-0.001c-0.199-0.199-0.35-0.425-0.452-0.677c-0.1-0.248-0.151-0.522-0.151-0.819
	c0-0.347,0.057-0.665,0.167-0.948v-0.001c0.112-0.285,0.278-0.536,0.497-0.744l-0.002,0.002c0.217-0.217,0.466-0.383,0.751-0.495
	c0.284-0.11,0.603-0.167,0.96-0.167c0.487,0,1.026,0.183,1.583,0.547l0.232-0.341l0.034-0.049h0.525v2.112H95.294z M92.29,54.309
	l0.001-0.001l-0.003,0.002C92.289,54.309,92.289,54.309,92.29,54.309z M143.96,55.804l-0.015-0.095
	c-0.037-0.232-0.107-0.442-0.212-0.632c-0.104-0.19-0.244-0.362-0.421-0.521h0.001c-0.167-0.147-0.347-0.258-0.541-0.332
	c-0.193-0.074-0.401-0.111-0.624-0.111c-0.211,0-0.404,0.032-0.577,0.092c-0.175,0.062-0.332,0.154-0.47,0.274l-0.003,0.002
	c-0.143,0.116-0.25,0.249-0.322,0.395c-0.072,0.148-0.109,0.31-0.109,0.481c0,0.148,0.035,0.282,0.104,0.402
	c0.07,0.123,0.177,0.234,0.319,0.332c0.001,0,0.001,0.001,0.001,0.001l-0.001-0.001c0.001,0,0.001,0,0.001,0.001
	c0.149,0.102,0.353,0.201,0.609,0.296c0.261,0.097,0.577,0.189,0.946,0.276l0.003,0.001c0.379,0.1,0.709,0.224,0.989,0.371
	c0.289,0.152,0.528,0.328,0.715,0.525l0.002,0.002c0.186,0.208,0.327,0.442,0.42,0.707c0.093,0.263,0.14,0.555,0.14,0.882
	c0,0.406-0.061,0.777-0.181,1.108c-0.12,0.334-0.301,0.629-0.539,0.877c-0.248,0.258-0.531,0.449-0.85,0.575
	c-0.319,0.126-0.672,0.187-1.059,0.187c-0.289,0-0.582-0.056-0.883-0.17c-0.278-0.104-0.564-0.258-0.858-0.462l-0.332,0.449
	l-0.034,0.045h-0.503v-2.347h0.538l0.019,0.09c0.057,0.276,0.148,0.529,0.275,0.755c0.123,0.218,0.281,0.412,0.474,0.578
	l0.002,0.002c0.187,0.168,0.387,0.293,0.602,0.377c0.215,0.083,0.448,0.125,0.7,0.125c0.239,0,0.46-0.042,0.661-0.121
	c0.205-0.08,0.392-0.201,0.56-0.36c0.166-0.156,0.29-0.331,0.372-0.522c0.082-0.192,0.123-0.404,0.123-0.635
	c0-0.34-0.124-0.626-0.373-0.839l0.002,0.002c-0.14-0.112-0.323-0.215-0.55-0.311c-0.233-0.098-0.513-0.191-0.841-0.277
	c-0.001-0.001-0.002-0.001-0.002-0.001l0.002,0.001c-0.001-0.001-0.002-0.001-0.002-0.001c-0.409-0.1-0.769-0.224-1.075-0.371
	c-0.314-0.15-0.577-0.325-0.783-0.521l-0.002-0.001c-0.199-0.199-0.35-0.425-0.452-0.677c-0.1-0.248-0.151-0.522-0.151-0.819
	c0-0.353,0.054-0.676,0.165-0.963c0.109-0.279,0.273-0.523,0.497-0.728c0.001-0.001,0.003-0.003,0.004-0.003l-0.004,0.003
	c0.001-0.001,0.003-0.002,0.004-0.003c0.216-0.216,0.464-0.381,0.747-0.492c0.284-0.11,0.603-0.167,0.96-0.167
	c0.486,0,1.026,0.182,1.583,0.547l0.232-0.341l0.033-0.049h0.506v2.112H143.96z M140.956,54.309l0.001-0.001l-0.003,0.002
	C140.955,54.309,140.955,54.309,140.956,54.309z M129.116,54.308l-0.011-0.002c-0.069-0.017-0.142-0.026-0.218-0.031
	c-0.081-0.004-0.162-0.005-0.247-0.005h-1.087v6.914h0.91c0.113,0,0.23-0.006,0.344-0.016c0.111-0.009,0.214-0.023,0.303-0.041
	h0.003c0.273-0.048,0.508-0.128,0.7-0.239c0.187-0.109,0.336-0.249,0.443-0.419c0.159-0.252,0.277-0.622,0.356-1.108
	c0.08-0.494,0.118-1.108,0.118-1.84c0-0.599-0.043-1.11-0.126-1.533c-0.083-0.423-0.206-0.757-0.366-1.002
	c-0.12-0.185-0.275-0.338-0.465-0.453C129.589,54.421,129.37,54.345,129.116,54.308z M129.159,54.089l-0.004-0.001
	C129.156,54.089,129.158,54.089,129.159,54.089z"/>
<path fill="#FFFFFF" d="M259.97,58.372h0.771l-0.753-2.341l-0.786,2.341H259.97 M299.375,58.372h0.789l-0.77-2.345l-0.787,2.345
	H299.375z M291.407,54.329l-0.021-0.004c-0.03-0.007-0.068-0.011-0.107-0.013h-0.001c-0.044-0.002-0.085-0.002-0.122-0.002h-0.851
	v3.079h0.851c0.073,0,0.165-0.001,0.229-0.016l0.022-0.004c0.178-0.009,0.333-0.043,0.462-0.096l0.001-0.001
	c0.134-0.054,0.242-0.129,0.322-0.217c0.001-0.001,0.001-0.002,0.002-0.003l-0.002,0.003c0,0,0.001-0.002,0.002-0.003
	c0.097-0.115,0.173-0.274,0.225-0.472c0.053-0.202,0.08-0.447,0.08-0.731s-0.027-0.53-0.081-0.73
	c-0.051-0.195-0.127-0.347-0.223-0.452l-0.005-0.005c-0.078-0.097-0.185-0.176-0.316-0.232
	C291.743,54.373,291.586,54.338,291.407,54.329z M228.616,54.328l-0.015-0.003c-0.03-0.007-0.068-0.011-0.107-0.013h-0.001
	c-0.044-0.002-0.086-0.002-0.122-0.002h-0.891v3.393h0.635c0.193,0,0.348,0,0.498-0.019l-0.004,0.001
	c0.176-0.028,0.329-0.074,0.459-0.136c0.127-0.06,0.235-0.136,0.325-0.226c0.124-0.124,0.218-0.294,0.281-0.508
	c0.066-0.223,0.099-0.494,0.099-0.808c0-0.307-0.029-0.576-0.086-0.798c-0.054-0.212-0.135-0.383-0.241-0.506l-0.001-0.001
	c-0.086-0.104-0.2-0.187-0.334-0.249C228.969,54.389,228.802,54.347,228.616,54.328z M291.403,61.184
	c0.213-0.019,0.398-0.06,0.552-0.121c0.155-0.06,0.282-0.141,0.381-0.24l0.003-0.003c0.122-0.113,0.211-0.273,0.268-0.475
	c0.061-0.209,0.089-0.465,0.089-0.76c0-0.596-0.126-1.003-0.378-1.256c-0.097-0.088-0.222-0.159-0.372-0.215
	c-0.155-0.058-0.336-0.099-0.541-0.127c-0.072-0.001-0.136-0.006-0.202-0.01c-0.073-0.005-0.15-0.01-0.224-0.01h-0.674v3.217
	H291.403z M237.083,54.31h-1.244v2.909c0.094,0.006,0.19,0.008,0.285,0.01c0.135,0.002,0.272,0.002,0.409,0.002
	c0.192,0,0.365-0.019,0.538-0.038h0.001c0.186-0.019,0.35-0.056,0.49-0.109c0.138-0.052,0.256-0.12,0.355-0.201l0.001-0.001
	c0.131-0.105,0.234-0.252,0.302-0.435c0.071-0.188,0.108-0.415,0.108-0.677c0-0.261-0.027-0.485-0.079-0.671
	c-0.052-0.187-0.129-0.338-0.228-0.456l-0.004-0.003c-0.083-0.109-0.201-0.189-0.349-0.243
	C237.507,54.338,237.31,54.31,237.083,54.31z M317.466,61.203h0.565v0.558h-3.272v-0.558h0.924V54.31h-0.924v-0.559h3.272v0.559
	h-0.924v2.972l0.277-0.29l0.002-0.002l2.461-2.68h-0.802v-0.559h2.702v0.559h-1.066l-2.556,2.764l3.25,4.129h0.706v0.558h-3.095
	v-0.558h0.636l-2.245-2.987l-0.27-0.364v3.351H317.466z M243.558,61.203V54.31h-0.944v-0.559h3.292v0.559h-0.944v6.893h0.944v0.558
	h-3.292v-0.558H243.558z M228.636,58.262l0.004-0.001c-0.164,0.02-0.345,0.02-0.525,0.02c-0.134,0-0.265-0.005-0.392-0.01h-0.001
	c-0.082-0.003-0.164-0.006-0.242-0.007v2.939h0.924v0.558h-3.271v-0.558h0.943V54.31h-0.943v-0.559h3.499
	c0.391,0.02,0.739,0.076,1.049,0.167c0.311,0.092,0.583,0.22,0.818,0.384c0.268,0.186,0.466,0.412,0.597,0.675
	c0.134,0.269,0.199,0.575,0.199,0.911c0,0.371-0.073,0.707-0.216,1.002c-0.142,0.297-0.356,0.552-0.636,0.759
	c-0.236,0.175-0.502,0.313-0.802,0.415C229.341,58.166,229.007,58.232,228.636,58.262z M291.423,61.742
	c-0.053,0.01-0.104,0.015-0.156,0.017c-0.051,0.002-0.108,0.002-0.169,0.002h-3.141v-0.558h0.944V54.31h-0.944v-0.559h3.573
	c0.386,0,0.732,0.046,1.035,0.138c0.306,0.093,0.57,0.233,0.788,0.42l-0.002-0.001c0.23,0.188,0.398,0.414,0.509,0.674
	c0.109,0.258,0.161,0.548,0.161,0.867c0,0.332-0.068,0.63-0.207,0.893c-0.139,0.262-0.348,0.487-0.629,0.675l-0.002,0.002
	c-0.112,0.071-0.236,0.138-0.372,0.197c-0.033,0.014-0.067,0.028-0.102,0.041c0.066,0.024,0.129,0.049,0.19,0.075
	c0.165,0.071,0.319,0.153,0.462,0.245c0.289,0.186,0.509,0.416,0.655,0.685c0.148,0.271,0.222,0.579,0.222,0.923
	c0,0.343-0.074,0.646-0.218,0.913c-0.144,0.266-0.357,0.496-0.637,0.692l-0.002,0.002c-0.25,0.167-0.548,0.302-0.887,0.396
	C292.172,61.678,291.813,61.732,291.423,61.742z M274.391,61.761v-0.558h0.924V54.31h-0.924v-0.559h5.934l0.207,1.988l0.013,0.124
	h-0.569l-0.019-0.09c-0.055-0.267-0.133-0.499-0.226-0.691c-0.096-0.199-0.208-0.355-0.329-0.467
	c-0.125-0.107-0.278-0.187-0.461-0.241c-0.187-0.056-0.408-0.084-0.663-0.084h-1.559v3.157h0.497c0.154,0,0.289-0.022,0.401-0.066
	c0.105-0.042,0.193-0.104,0.258-0.186l0.005-0.005c0.069-0.078,0.132-0.197,0.182-0.349c0.049-0.151,0.085-0.335,0.103-0.549
	l0.009-0.103h0.55v3.095h-0.55l-0.009-0.103c-0.018-0.23-0.052-0.425-0.099-0.581c-0.044-0.148-0.1-0.262-0.167-0.337l-0.004-0.004
	c-0.066-0.082-0.154-0.145-0.262-0.187c-0.114-0.044-0.253-0.066-0.417-0.066h-0.497v3.197h1.814c0.458,0,0.786-0.126,1.039-0.377
	c0.001-0.001,0.002-0.002,0.002-0.003l-0.002,0.003c0.001-0.001,0.002-0.002,0.002-0.003c0.121-0.13,0.233-0.309,0.333-0.535
	c0.101-0.228,0.191-0.504,0.267-0.827l0.02-0.086h0.546l-0.011,0.122l-0.197,2.162l-0.009,0.102H274.391z M268.452,61.203V54.29
	h-0.34c-0.256,0-0.482,0.033-0.674,0.102c-0.179,0.065-0.328,0.162-0.44,0.292l-0.003,0.003c-0.127,0.135-0.232,0.32-0.316,0.553
	c-0.085,0.241-0.148,0.532-0.186,0.877l-0.011,0.1h-0.557l0.011-0.122l0.098-1.121l0.098-1.121l0.009-0.102h6.007l0.009,0.102
	l0.197,2.242l0.01,0.122h-0.557l-0.011-0.1c-0.038-0.34-0.099-0.629-0.181-0.868c-0.081-0.238-0.183-0.425-0.302-0.563
	c-0.124-0.133-0.276-0.232-0.46-0.297c-0.189-0.067-0.413-0.099-0.676-0.099h-0.321v6.913h1.042v0.558h-3.488v-0.558H268.452z
	 M306.981,61.203h0.943v0.558h-2.426v-0.558h0.924V54.31h-0.924v-0.559h2.457l0.033,0.055l3.075,5.174v-4.67h-0.944v-0.559h2.426
	v0.559h-0.924v7.589h-0.431l-0.033-0.055l-4.176-7.023V61.203z M248.643,54.31h-0.877v-0.559h3.193v0.559h-0.842l1.694,5.156
	l1.731-5.156h-0.979v-0.559h2.486v0.559h-0.858l-2.55,7.513l-0.026,0.076h-0.416l-0.025-0.076L248.643,54.31z M237.083,53.751h0.006
	c0.399,0.02,0.761,0.07,1.083,0.151c0.326,0.082,0.611,0.194,0.855,0.336l0.005,0.003c0.271,0.178,0.475,0.382,0.611,0.618
	c0.138,0.239,0.207,0.508,0.207,0.813c0,0.344-0.074,0.647-0.223,0.915c-0.149,0.266-0.373,0.496-0.673,0.693l-0.005,0.002
	c-0.173,0.102-0.362,0.189-0.564,0.263c-0.089,0.032-0.182,0.063-0.278,0.09c0.017,0.007,0.034,0.014,0.05,0.02
	c0.139,0.061,0.267,0.13,0.383,0.203v0.001c0.26,0.166,0.459,0.366,0.598,0.596c0.14,0.232,0.219,0.495,0.24,0.788l-0.001-0.002
	l0.059,0.629h0.001c0.028,0.322,0.061,0.58,0.094,0.779c0.037,0.218,0.076,0.372,0.114,0.467c0.029,0.074,0.073,0.125,0.127,0.157
	c0.058,0.033,0.132,0.048,0.221,0.048c0.132,0,0.245,0,0.332-0.017l0.004-0.001c0.05-0.008,0.092-0.021,0.126-0.035
	c0.033-0.013,0.062-0.03,0.086-0.046l0.122-0.081l0.047,0.139l0.078,0.236l0.018,0.055l-0.035,0.047
	c-0.04,0.053-0.101,0.098-0.178,0.134c-0.07,0.034-0.158,0.062-0.256,0.084l0.003-0.001c-0.104,0.032-0.209,0.053-0.322,0.066
	c-0.11,0.013-0.228,0.018-0.359,0.018c-0.217,0-0.421-0.041-0.607-0.118c-0.191-0.08-0.364-0.198-0.514-0.347
	c-0.155-0.155-0.274-0.331-0.361-0.525c-0.088-0.197-0.142-0.414-0.163-0.646l-0.001-0.004l-0.058-1.02c0-0.001,0-0.002,0-0.002
	v0.002v-0.002c-0.019-0.256-0.062-0.476-0.129-0.661c-0.065-0.181-0.155-0.33-0.271-0.446c-0.063-0.063-0.141-0.122-0.228-0.172
	c-0.084-0.048-0.176-0.088-0.273-0.114c-0.081-0.017-0.164-0.032-0.25-0.04c-0.086-0.01-0.175-0.014-0.271-0.014h-0.694v3.393h0.924
	v0.558h-3.272v-0.558h0.924V54.31h-0.924v-0.559H237.083z M237.713,57.992 M259.864,54.359l0.177-0.531l0.025-0.077h0.654
	l0.025,0.077l2.452,7.375h0.877v0.558h-3.252v-0.558h0.842l-0.713-2.174h-1.962l-0.731,2.174h0.979v0.558h-2.505v-0.558h0.857
	L259.864,54.359z M299.269,54.359l0.177-0.531l0.025-0.077h0.654l0.025,0.077l2.452,7.375h0.877v0.558h-3.252v-0.558h0.842
	l-0.713-2.174h-1.962l-0.731,2.174h0.979v0.558h-2.505v-0.558h0.876L299.269,54.359z"/>
<path fill="#FFFFFF" d="M31.487,25.82l-2.757,8.376h5.758L31.487,25.82 M53.943,25.82l-2.757,8.376h5.758L53.943,25.82z M0,31.994
	h1.856l0.034,0.571c0,0.001,0,0.001,0,0.001v-0.001v0.001c0.104,1.64,0.394,3.092,0.859,4.362c0.462,1.265,1.1,2.356,1.903,3.279
	v0.001c0.793,0.913,1.704,1.598,2.729,2.053c1.026,0.456,2.172,0.684,3.435,0.684c0.991,0,1.896-0.154,2.713-0.46
	c0.816-0.306,1.55-0.766,2.197-1.378h-0.001c0.645-0.61,1.129-1.293,1.45-2.048c0.321-0.757,0.482-1.591,0.482-2.502
	c0-0.383-0.036-0.745-0.108-1.089c-0.072-0.346-0.181-0.677-0.327-0.996c-0.145-0.317-0.328-0.616-0.542-0.897
	c-0.22-0.289-0.475-0.557-0.758-0.803c-0.436-0.379-1.203-0.754-2.316-1.123c-1.132-0.376-2.613-0.742-4.457-1.099H9.148h0.001
	H9.148c-0.157-0.029-0.257-0.049-0.33-0.064c-0.037-0.007-0.072-0.014-0.103-0.02l-0.003-0.001c-0.026-0.006-0.048-0.01-0.063-0.014
	c-0.035-0.007-0.068-0.015-0.088-0.018l-0.006-0.001c-1.491-0.291-2.782-0.687-3.865-1.188c-1.09-0.503-1.972-1.112-2.638-1.827
	c-0.671-0.72-1.168-1.594-1.497-2.607c-0.334-1.028-0.496-2.198-0.496-3.493c0-1.464,0.202-2.793,0.611-3.977
	c0.406-1.177,1.016-2.209,1.835-3.085c0.826-0.885,1.797-1.547,2.901-1.989c1.111-0.443,2.355-0.664,3.719-0.664
	c0.868,0,1.739,0.118,2.609,0.349c0.875,0.233,1.747,0.581,2.612,1.04c0.577,0.305,1.046,0.55,1.413,0.74
	c0.471,0.243,0.8,0.41,0.974,0.495c0.042-0.007,0.078-0.021,0.109-0.039l0.001-0.001c0.049-0.027,0.094-0.07,0.138-0.126
	c0.052-0.067,0.099-0.163,0.133-0.289c0.032-0.118,0.051-0.264,0.051-0.437v-0.867h1.872v10.307h-1.801l-0.024-0.197l-0.041-0.338
	l0.001,0.001c-0.182-1.439-0.494-2.704-0.939-3.797c-0.441-1.084-1.013-1.998-1.714-2.744c-0.695-0.74-1.488-1.297-2.383-1.667
	c-0.897-0.372-1.9-0.558-3.011-0.558c-0.967,0-1.81,0.122-2.536,0.366c-0.716,0.24-1.321,0.6-1.819,1.076H4.769
	c-0.493,0.472-0.87,1.051-1.122,1.741c-0.25,0.687-0.379,1.486-0.379,2.399c0,0.526,0.044,1.005,0.132,1.437l0.001,0.001
	c0.087,0.431,0.219,0.818,0.391,1.157c0.166,0.328,0.384,0.636,0.658,0.922c0.278,0.289,0.612,0.557,1.006,0.801
	c0.206,0.127,0.577,0.262,1.12,0.402c0.545,0.139,1.247,0.28,2.115,0.419c0.893,0.142,1.685,0.276,2.372,0.401
	c0.696,0.127,1.278,0.244,1.741,0.353c1.42,0.333,2.657,0.757,3.698,1.281c1.051,0.528,1.908,1.159,2.56,1.902
	c0.647,0.739,1.134,1.61,1.459,2.616c0.322,1.002,0.484,2.137,0.484,3.411c0,1.592-0.228,3.039-0.689,4.331v-0.001
	c-0.46,1.29-1.151,2.427-2.075,3.403c-0.928,0.981-2.005,1.717-3.227,2.209c-1.219,0.49-2.58,0.736-4.08,0.736
	c-0.873,0-1.779-0.11-2.714-0.325c-0.928-0.212-1.886-0.53-2.87-0.944v0.001c-0.917-0.384-1.607-0.666-2.085-0.852
	c-0.481-0.188-0.773-0.291-0.887-0.316c-0.036,0.002-0.07,0.011-0.102,0.032c-0.05,0.033-0.104,0.091-0.162,0.185
	C2.046,42.73,1.988,42.87,1.946,43.04c-0.04,0.166-0.066,0.364-0.074,0.597v0.001l-0.014,0.373l-0.007,0.216H0V31.994z
	 M98.494,42.454v-23.14H95.8v-1.755h20.016l0.547,7.176l0.018,0.241h-1.812l-0.046-0.562c-0.085-1.032-0.263-1.872-0.52-2.535
	c-0.262-0.676-0.607-1.171-1.021-1.5c-0.431-0.342-1.073-0.61-1.95-0.792c-0.86-0.179-1.944-0.273-3.275-0.273h-4.186v10.458h0.568
	c1.067,0,1.924-0.072,2.59-0.202c0.684-0.133,1.159-0.326,1.447-0.563h-0.001c0.28-0.231,0.507-0.586,0.663-1.086
	c0.151-0.485,0.235-1.107,0.235-1.883v-0.749h1.753v10.739h-1.753v-0.926c0-0.792-0.08-1.408-0.226-1.877
	c-0.138-0.446-0.334-0.756-0.574-0.955h0.001c-0.253-0.208-0.717-0.381-1.423-0.502c-0.68-0.118-1.576-0.183-2.712-0.183h-0.568
	v10.869h4.304c1.602,0,2.929-0.121,3.994-0.349c1.084-0.232,1.895-0.575,2.45-1.013c0.542-0.429,0.958-1.026,1.24-1.807
	c0.288-0.797,0.437-1.787,0.437-2.983v-0.73h1.773v8.655H95.8v-1.773H98.494z M72.306,40.116c0,0.549,0.042,0.962,0.11,1.265v0.001
	c0.072,0.322,0.167,0.506,0.264,0.588l0.001,0.001c0.129,0.11,0.385,0.212,0.796,0.298c0.398,0.084,0.935,0.148,1.632,0.185h0.002
	l0.366,0.021l0.211,0.013v1.739H56.887v-1.773h3.043l-2.368-6.504h-6.948l-1.773,5.703c-0.015,0.048-0.03,0.1-0.043,0.154v0.001
	c-0.014,0.054-0.028,0.117-0.043,0.185c-0.008,0.041-0.014,0.072-0.017,0.096v0.001c-0.005,0.033-0.007,0.05-0.007,0.053
	c0,0.003-0.015-0.011-0.008-0.003h-0.001c0.015,0.018,0.057,0.041,0.149,0.072l0.001,0.001c0.134,0.048,0.4,0.094,0.803,0.136
	c0.39,0.04,0.914,0.076,1.578,0.105h0.001l0.37,0.018l0.214,0.01v1.745H34.431v-1.773h3.043l-2.368-6.504h-6.948l-1.773,5.702
	l-0.001,0.001c-0.008,0.029-0.018,0.07-0.031,0.124l-0.001,0.002c-0.002,0.008-0.004,0.018-0.006,0.028
	c-0.008,0.035-0.018,0.077-0.025,0.107v-0.002c-0.01,0.042-0.021,0.083-0.031,0.12v0.002c-0.015,0.052-0.015,0.087-0.015,0.107
	c0,0.006-0.017-0.009-0.009,0V42.14c0.014,0.017,0.057,0.04,0.15,0.073c0.135,0.048,0.398,0.095,0.803,0.137
	c0.387,0.04,0.909,0.075,1.578,0.104h0.001l0.37,0.018l0.214,0.01v1.745h-7.87v-1.773h1.104c0.515,0,0.951-0.135,1.305-0.422
	c0.357-0.289,0.643-0.737,0.855-1.363v-0.004l0.012-0.07l6.253-19.212l1.336-4.099h1.285l0.054,0.149l8.993,25.021h2.363
	c0.522,0,0.963-0.138,1.321-0.434c0.367-0.303,0.657-0.777,0.871-1.441l-0.003,0.007l0.008-0.028l0.015-0.038l0.008-0.016
	l0.004-0.009l6.201-19.112l1.286-3.944l0.05-0.155h1.286l0.053,0.149l8.991,25.051h2.502l0.342-0.028
	c0.569-0.047,1.002-0.114,1.32-0.194c0.33-0.083,0.531-0.175,0.631-0.27c0.083-0.078,0.162-0.263,0.224-0.593
	c0.059-0.315,0.095-0.747,0.095-1.322V19.314h-2.832v-1.755h8.198l0.067,0.093l12.599,17.285V21.671c0-0.552-0.042-0.97-0.11-1.277
	c-0.072-0.328-0.167-0.516-0.263-0.598c-0.122-0.103-0.386-0.208-0.817-0.297h-0.001c-0.401-0.083-0.939-0.15-1.632-0.185
	l-0.368-0.02l-0.213-0.011v-1.724h8.225v1.706l-0.205,0.017l-0.356,0.03c-0.547,0.045-0.968,0.114-1.282,0.196
	c-0.336,0.089-0.544,0.188-0.65,0.288l0.001-0.002c-0.086,0.082-0.172,0.274-0.238,0.613c-0.062,0.314-0.101,0.741-0.101,1.303
	v22.694h-1.353l-0.068-0.092L72.306,21.691V40.116z M127.345,40.116c0,0.546,0.042,0.959,0.11,1.262
	c0.074,0.325,0.171,0.512,0.271,0.599c0.119,0.105,0.375,0.206,0.792,0.292c0.398,0.083,0.936,0.148,1.63,0.185h0.002l0.365,0.021
	l0.212,0.013v1.739h-8.243v-1.724l0.206-0.018l0.356-0.029c0.56-0.047,0.988-0.114,1.304-0.194h-0.001
	c0.326-0.083,0.527-0.175,0.627-0.27v0.001c0.086-0.082,0.172-0.274,0.238-0.612c0.062-0.315,0.101-0.742,0.101-1.304V19.314h-2.831
	v-1.755h8.197l0.068,0.093l12.618,17.286V21.671c0-0.552-0.042-0.97-0.11-1.277c-0.072-0.328-0.167-0.516-0.263-0.598
	c-0.121-0.103-0.386-0.208-0.817-0.297h-0.001c-0.401-0.083-0.939-0.15-1.632-0.185l-0.367-0.02l-0.213-0.011v-1.724h8.224v1.706
	l-0.205,0.017l-0.356,0.03c-0.547,0.045-0.968,0.114-1.281,0.196c-0.336,0.089-0.545,0.188-0.651,0.288l0.001-0.002
	c-0.086,0.082-0.172,0.274-0.238,0.613c-0.062,0.314-0.101,0.741-0.101,1.303v22.694h-1.354l-0.067-0.092l-16.591-22.624V40.116z
	 M48.364,41.7L48.364,41.7L48.364,41.7z"/>
<path fill-rule="evenodd" clip-rule="evenodd" fill="#FFFFFF" d="M199.446,44.061h-10.305v-1.774h2.458V19.265h-2.458v-1.774h9.302
	c0.179,0,0.35,0.006,0.511,0.012c0.172,0.008,0.321,0.017,0.463,0.026h-0.007c0.019,0,0.032,0,0.041,0.001
	c0.009,0,0.014,0.001,0.017,0.001h0.013c1.065,0.062,2.026,0.229,2.881,0.503c0.864,0.275,1.62,0.66,2.271,1.154v0.001
	c0.766,0.584,1.335,1.292,1.715,2.115c0.383,0.833,0.571,1.781,0.571,2.835c0,0.906-0.154,1.738-0.465,2.492
	c-0.31,0.754-0.775,1.429-1.396,2.022c-0.383,0.365-0.809,0.68-1.275,0.945c-0.276,0.156-0.566,0.296-0.868,0.417
	c0.429,0.151,0.832,0.325,1.208,0.524c0.563,0.299,1.065,0.652,1.501,1.06h-0.001c0.667,0.621,1.154,1.348,1.474,2.173
	c0.319,0.82,0.472,1.734,0.472,2.737c0,1.099-0.188,2.108-0.562,3.018c-0.374,0.91-0.933,1.72-1.676,2.42
	c-0.751,0.709-1.61,1.238-2.577,1.59c-0.963,0.35-2.032,0.524-3.21,0.524H199.446 M199.417,17.529c0.002,0,0.004,0,0.007,0H199.417z
	 M199.451,17.53c0.001,0,0.003,0,0.004,0H199.451z M199.273,31.157h-0.001c-0.411-0.124-0.856-0.217-1.335-0.277
	c-0.48-0.061-1.004-0.091-1.576-0.091c-0.003,0-0.013,0.001-0.031,0.001h-0.003c-0.002,0-0.032,0.003-0.066,0.005
	c-0.035,0.002-0.078,0.006-0.143,0.009c-0.003,0-0.007,0-0.011,0.001v11.482h0.805c0.453,0,0.874-0.023,1.264-0.068
	c0.405-0.047,0.777-0.116,1.117-0.205c0.455-0.119,0.857-0.274,1.21-0.465c0.348-0.188,0.65-0.413,0.912-0.675
	c0.452-0.452,0.803-1.048,1.039-1.798c0.232-0.74,0.354-1.632,0.354-2.685c0-0.967-0.137-1.795-0.405-2.497
	c-0.265-0.693-0.66-1.265-1.179-1.727h0.001c-0.245-0.217-0.528-0.408-0.851-0.575C200.048,31.423,199.681,31.278,199.273,31.157z
	 M199.262,19.588L199.262,19.588c-0.295-0.093-0.613-0.165-0.949-0.212c-0.334-0.047-0.691-0.072-1.067-0.072h-1.139v9.847h0.785
	c0.474,0,0.915-0.02,1.319-0.059c0.394-0.04,0.761-0.099,1.095-0.179l-0.001,0.001c0.417-0.101,0.786-0.225,1.111-0.372v0.001
	c0.314-0.143,0.587-0.312,0.823-0.508c0.409-0.342,0.726-0.79,0.941-1.359c0.219-0.58,0.333-1.29,0.333-2.144
	c0-0.826-0.117-1.559-0.347-2.198c-0.229-0.637-0.573-1.183-1.026-1.637c-0.258-0.258-0.542-0.476-0.852-0.657
	C199.975,19.856,199.633,19.706,199.262,19.588z M203.479,57.803c-1.318-0.039-2.381-1.337-3.541-1.337
	c-2.439-0.059-5.329-2.162-6.45-2.498c-1.022-0.335-1.966,1.534-2.988,1.81c-2.753,0.767-7.138,2.615-7.334-0.865
	c-0.158-2.222-0.512-4.937-0.158-7.886c0.669-5.781,1.927-11.974,3.107-17.776c1.18-5.899,2.241-11.954,3.323-17.873
	c0.531-2.852,1.062-6.095,2.202-8.867c0.688-1.653,2.89-2.893,3.264-1.063c0.256,1.297,1.141,0.177,1.593-0.04
	c2.713-1.415,4.542-2.162,6.962-0.295c0.924,0.71,0.511,1.75,2.025,0.197c1.652-1.692,3.48-0.747,4.857-0.178
	c1.435,0.572,2.32,0.651,3.775-0.451c1.828-1.376,2.635,1.142,2.733,2.261c0.197,1.887-0.61,4.365-1.101,6.351
	c-1.77,7.139-4.188,14.453-5.486,21.393c-0.59,3.088-1.475,6.725-1.396,7.473c0.256,2.517,0.059,4.365-0.688,6.685
	c-0.708,2.222-1.77,3.541-1.318,5.743c0.237,1.14,0.138,2.536-0.098,3.951C206.487,56.23,205.307,57.882,203.479,57.803z"/>
<path fill-rule="evenodd" clip-rule="evenodd" fill="#FFFFFF" d="M178.94,53.576c-1.239-0.335-3.323,0-3.618-0.866
	c-0.255-0.747-0.668-1.12-1.693-0.589c-1.219,0.629-1.985-0.197-2.536-1.122c-0.885-1.474-1.435-2.162-3.46-1.277
	c-1.888,0.845-1.908,0.393-2.852-0.118c-1.415-0.728-2.045-1.416-3.185-0.57c-0.59,0.432-0.884,0.354-1.396-0.237
	c-0.924-1.061-0.708-0.845-2.969,0.217c-1.239,0.57-1.455,0.57-2.163-0.275c0.315-3.894,0.688-8.042,1.18-11.935
	c0.708-5.488,2.005-11.269,3.126-16.814c0.905-4.443,1.81-9.988,2.851-14.667c2.281,0.589,2.655,0.373,5.152-2.065
	c0.983-0.944,2.517-1.573,3.106-0.492c0.984,1.809,1.475,0.06,3.107-0.983c1.791-1.101,2.912-1.12,4.21-0.138
	c1.2,0.885,2.517,0.827,4.129-0.019c2.359-1.278,4.719-2.694,5.879-0.413c0.806,1.553,0.904,3.854,0.511,5.919
	c-0.57,1.592-2.34,8.258-1.691,9.713c-1.632,6.449-2.851,13.055-3.873,19.447c-0.806,5.23-1.554,10.677-1.77,15.888
	C180.965,52.789,179.491,53.733,178.94,53.576 M162.163,34.041l1.797-0.273l0.015,0.224L164,34.365
	c0.088,1.326,0.325,2.5,0.703,3.526c0.377,1.022,0.895,1.902,1.548,2.644c0.648,0.737,1.381,1.291,2.204,1.66
	c0.823,0.369,1.742,0.555,2.763,0.555c0.804,0,1.534-0.124,2.19-0.369c0.655-0.244,1.241-0.611,1.758-1.098
	c0.526-0.495,0.915-1.042,1.171-1.643c0.256-0.601,0.382-1.263,0.382-1.989c0-0.304-0.028-0.592-0.086-0.866
	c-0.058-0.275-0.145-0.539-0.263-0.795c-0.114-0.249-0.259-0.484-0.432-0.707c-0.175-0.224-0.379-0.437-0.612-0.64
	c-0.345-0.3-0.973-0.606-1.897-0.91c-0.919-0.303-2.122-0.601-3.618-0.89c-0.041-0.007-0.109-0.02-0.171-0.03h0.001
	c-0.074-0.013-0.116-0.02-0.138-0.024c-0.039-0.006,0.091,0.016-0.081-0.012c-0.04-0.007-0.068-0.012-0.084-0.015h0.001
	c-1.239-0.24-2.316-0.563-3.225-0.974c-0.919-0.417-1.665-0.925-2.229-1.529v-0.001c-0.564-0.607-0.983-1.341-1.262-2.188
	c-0.28-0.854-0.418-1.822-0.418-2.889c0-1.214,0.171-2.318,0.517-3.305c0.344-0.984,0.862-1.848,1.554-2.586
	c0.69-0.736,1.503-1.282,2.425-1.644c0.935-0.368,1.982-0.548,3.129-0.548c0.73,0,1.458,0.096,2.186,0.289
	c0.726,0.191,1.451,0.478,2.176,0.86c0.512,0.27,0.943,0.494,1.291,0.674c0.285,0.147,0.485,0.251,0.605,0.309
	c0.007-0.002,0.013-0.007,0.02-0.01h-0.001c0.025-0.015,0.05-0.039,0.073-0.069v0.002c0.038-0.048,0.069-0.109,0.092-0.186
	c0.025-0.084,0.039-0.189,0.039-0.317v-0.863h1.838v8.723h-1.764l-0.025-0.213l-0.043-0.349c0-0.001,0-0.001,0-0.001v0.001v-0.001
	c-0.147-1.161-0.402-2.18-0.763-3.058c-0.362-0.881-0.829-1.621-1.396-2.221c-0.558-0.591-1.193-1.038-1.909-1.335
	c-0.719-0.298-1.523-0.45-2.419-0.45c-0.785,0-1.464,0.102-2.045,0.3c-0.573,0.195-1.054,0.485-1.451,0.86c0,0-0.001,0-0.001,0.001
	l0.001-0.001c0,0-0.001,0-0.001,0.001c-0.387,0.368-0.685,0.825-0.886,1.371c-0.198,0.541-0.302,1.173-0.302,1.898
	c0,0.424,0.037,0.806,0.107,1.146c0.071,0.345,0.177,0.652,0.314,0.919v0.001c0.135,0.265,0.307,0.507,0.521,0.728
	c0.218,0.225,0.479,0.43,0.789,0.618l-0.001-0.001c0.163,0.097,0.461,0.205,0.9,0.318c1.226,0.316,2.522,0.476,3.767,0.697
	c0.53,0.094,0.984,0.182,1.353,0.266h0.001c1.186,0.275,2.215,0.634,3.081,1.073c0.874,0.443,1.587,0.97,2.131,1.579
	c0.547,0.613,0.956,1.343,1.227,2.184c0.272,0.84,0.407,1.79,0.407,2.843c0,1.311-0.185,2.504-0.563,3.574
	c-0.381,1.078-0.957,2.027-1.737,2.846v-0.001c-0.779,0.82-1.682,1.433-2.703,1.841c-1.023,0.408-2.164,0.612-3.419,0.612
	c-0.732,0-1.489-0.089-2.269-0.264c-0.777-0.175-1.574-0.436-2.392-0.782c-0.685-0.29-1.219-0.506-1.612-0.658
	c-0.416-0.16-0.677-0.25-0.792-0.279c0,0,0,0.001-0.001,0.001h-0.001c-0.022,0.015-0.05,0.046-0.085,0.101
	c-0.05,0.079-0.092,0.182-0.124,0.308c-0.032,0.128-0.054,0.28-0.063,0.456l-0.018,0.381l-0.011,0.229h-1.789V34.041z"/>
<path fill="#FFFFFF" d="M276.982,40.116c0,0.549,0.042,0.962,0.11,1.265c0.072,0.323,0.167,0.507,0.265,0.589l0.001,0.001
	c0.128,0.11,0.384,0.212,0.795,0.298c0.398,0.084,0.935,0.148,1.632,0.185h0.002l0.366,0.021l0.211,0.013v1.739h-18.803v-1.773
	h3.043l-2.368-6.504h-6.948l-1.773,5.703c-0.014,0.046-0.029,0.098-0.043,0.155c-0.014,0.054-0.028,0.117-0.043,0.185v0.001
	c-0.01,0.048-0.015,0.077-0.018,0.097l0.001-0.003c-0.005,0.033-0.007,0.051-0.007,0.055c0,0.003-0.015-0.011-0.008-0.003v0.001
	c0.014,0.017,0.056,0.04,0.148,0.071l0.002,0.001c0.133,0.048,0.399,0.094,0.802,0.136c0.39,0.04,0.914,0.076,1.578,0.105h0.001
	l0.37,0.018l0.214,0.01v1.745h-7.869v-1.773h1.103c0.522,0,0.963-0.138,1.321-0.434c0.367-0.303,0.658-0.777,0.871-1.441
	l-0.003,0.007l0.008-0.028l0.015-0.038l0.011-0.023l-0.002,0.004l0.003-0.006l6.201-19.112l1.336-4.099h1.285l0.054,0.149
	l8.993,25.052h2.495l0.349-0.029h0.001c0.572-0.047,1.006-0.114,1.324-0.193c0.325-0.081,0.523-0.171,0.62-0.264
	c0,0,0-0.001,0.001-0.001l-0.001,0.001c0,0,0-0.001,0.001-0.001c0.081-0.08,0.163-0.273,0.227-0.612
	c0.059-0.315,0.097-0.745,0.097-1.309V19.314h-2.832v-1.755h8.198l0.067,0.093l12.619,17.286V21.671c0-0.552-0.043-0.97-0.111-1.277
	c-0.072-0.328-0.166-0.516-0.263-0.598c-0.121-0.103-0.386-0.207-0.817-0.297c-0.401-0.083-0.94-0.15-1.632-0.185l-0.368-0.02
	l-0.213-0.011v-1.724h8.225v1.706l-0.206,0.017l-0.356,0.03c-0.546,0.045-0.968,0.114-1.281,0.196
	c-0.336,0.089-0.545,0.189-0.65,0.288v-0.002c-0.085,0.082-0.171,0.274-0.238,0.613c-0.061,0.314-0.1,0.741-0.1,1.303v22.694h-1.354
	l-0.068-0.092l-16.591-22.624V40.116 M307.34,32.122v10.332h2.734v1.773h-10.76v-1.773h2.91v-23.14h-2.91v-1.755h10.76v1.755h-2.734
	v9.712l7.809-7.672c0.241-0.237,0.452-0.458,0.633-0.663h-0.001c0.181-0.206,0.333-0.396,0.456-0.57h-0.001
	c0.115-0.164,0.19-0.29,0.237-0.385l-0.001,0.001c0.025-0.051,0.041-0.091,0.051-0.122c-0.069-0.038-0.248-0.1-0.606-0.169
	c-0.339-0.065-0.814-0.113-1.461-0.113c-0.077,0-0.147-0.002-0.208-0.004c-0.084-0.004-0.123-0.007-0.165-0.01
	c-0.046-0.002-0.065-0.004-0.08-0.004c-0.019-0.001-0.033-0.001-0.038-0.001h-0.612v-1.755h10.329v1.755h-0.848
	c-0.466,0-0.914,0.044-1.339,0.13c-0.431,0.087-0.841,0.217-1.225,0.387c-0.382,0.169-0.855,0.464-1.424,0.895
	c-0.558,0.424-1.207,0.976-1.949,1.667l-6.503,6.063l11.355,13.998h3.054v1.773h-11.568v-1.773h2.459L307.34,32.122z
	 M236.334,44.227h-14.198v-1.891h3.441V14.123h-3.441v-1.872h12.783c0.253,0,0.5,0.004,0.739,0.01
	c0.248,0.007,0.484,0.017,0.709,0.029c1.459,0.078,2.777,0.278,3.952,0.603c1.18,0.326,2.214,0.78,3.099,1.368
	c1.04,0.689,1.827,1.534,2.353,2.525c0.526,0.988,0.791,2.121,0.791,3.391c0,1.09-0.216,2.085-0.641,2.984
	c-0.429,0.906-1.07,1.713-1.918,2.421c-0.556,0.465-1.177,0.86-1.859,1.186c-0.447,0.214-0.921,0.399-1.421,0.555
	c0.676,0.191,1.307,0.419,1.891,0.685c0.816,0.371,1.541,0.816,2.171,1.334c0.89,0.73,1.561,1.585,2.009,2.563
	c0.448,0.975,0.673,2.069,0.673,3.276c0,1.329-0.262,2.549-0.78,3.646c-0.518,1.096-1.292,2.067-2.317,2.903
	c-1.029,0.839-2.205,1.464-3.527,1.879c-1.318,0.414-2.782,0.618-4.391,0.618H236.334z M236.181,28.574
	c-0.59-0.155-1.236-0.273-1.936-0.352c-0.697-0.078-1.449-0.118-2.254-0.118c-0.011,0-0.029,0.001-0.055,0.002h-0.001
	c-0.013,0-0.049,0.003-0.089,0.004c-0.049,0.003-0.112,0.007-0.195,0.009c-0.072,0.003-0.155,0.005-0.248,0.005v14.212h1.374
	c0.655,0,1.264-0.029,1.831-0.085c0.568-0.057,1.099-0.142,1.595-0.253c0.66-0.149,1.241-0.343,1.751-0.582
	c0.505-0.237,0.943-0.522,1.321-0.855c0.644-0.566,1.14-1.296,1.477-2.204c0.34-0.918,0.518-2.019,0.518-3.314
	c0-1.168-0.192-2.173-0.572-3.029c-0.377-0.849-0.94-1.555-1.687-2.13c-0.367-0.282-0.786-0.534-1.256-0.752
	C237.282,28.913,236.757,28.727,236.181,28.574z M236.176,14.533c-0.432-0.117-0.89-0.205-1.378-0.264
	c-0.489-0.058-1.01-0.087-1.569-0.087h-1.826v12.2c0.062,0.003,0.121,0.006,0.175,0.006h1.16c0.665,0,1.287-0.028,1.871-0.079
	c0.582-0.052,1.116-0.127,1.61-0.224c0.597-0.117,1.132-0.268,1.6-0.451c0.465-0.182,0.868-0.397,1.205-0.642h0.001
	c0.602-0.438,1.059-1.004,1.364-1.712c0.31-0.718,0.467-1.584,0.467-2.612c0-1.024-0.165-1.929-0.495-2.719
	c-0.328-0.784-0.821-1.46-1.476-2.03c-0.358-0.312-0.763-0.583-1.212-0.814C237.219,14.873,236.719,14.682,236.176,14.533z
	 M258.617,25.82l-2.757,8.376h5.758L258.617,25.82z"/>
</svg>
