<?xml version="1.0" encoding="utf-8"?>
<!-- Generator: Adobe Illustrator 26.3.1, SVG Export Plug-In . SVG Version: 6.00 Build 0)  -->
<svg version="1.1" id="Ebene_1" xmlns="http://www.w3.org/2000/svg" xmlns:xlink="http://www.w3.org/1999/xlink" x="0px" y="0px"
	 width="170.1px" height="42.5px" viewBox="0 0 170.1 42.5" style="enable-background:new 0 0 170.1 42.5;" xml:space="preserve">
<style type="text/css">
	.st0{fill:#FFFFFF;}
</style>
<g>
	<path class="st0" d="M3.8,13.1c-3.3,0-3.9-1.9-3.7-4.1h2.6c0,1.2,0.1,2.2,1.5,2.2c0.9,0,1.3-0.6,1.3-1.4c0-2.3-5.3-2.4-5.3-6.2
		c0-2,0.9-3.6,4.2-3.6C6.9,0,8.2,1.2,8,3.8H5.4c0-0.9-0.2-1.9-1.2-1.9c-0.9,0-1.4,0.5-1.4,1.3c0,2.4,5.3,2.2,5.3,6.2
		C8.2,12.7,5.8,13.1,3.8,13.1z"/>
	<path class="st0" d="M10.2,0.2H15c2.4,0,3.4,1.5,3.4,3.8c0,1.4-0.4,3.7-3.5,3.7h-2v5.1h-2.6V0.2z M12.8,5.8h1.5
		c0.8,0,1.3-0.9,1.3-1.7c0-1-0.3-1.9-1.5-1.9h-1.3V5.8z"/>
	<path class="st0" d="M18.2,12.8l3.5-12.6h3.5l3.4,12.6h-2.8L25.1,10h-3.6l-0.7,2.8H18.2z M23.3,2.6L23.3,2.6L22,8.1h2.5L23.3,2.6z"
		/>
	<path class="st0" d="M32.5,12.8h-2.6V0.2h4.9c1.8,0,3,1.2,3,3.3c0,1.6-0.6,2.8-2.3,3.1v0c0.6,0.1,2.3,0.2,2.3,2.5
		c0,0.8,0.1,3.2,0.3,3.7h-2.6c-0.4-0.8-0.3-1.6-0.3-2.5c0-1.5,0.1-2.8-1.9-2.8h-0.7V12.8z M32.5,5.7h1.2c1,0,1.3-1,1.3-1.9
		c0-1.2-0.5-1.7-1.3-1.7h-1.2V5.7z"/>
	<path class="st0" d="M44.1,7.2V9h-4.3V7.2H44.1z"/>
	<path class="st0" d="M57.6,0.2v9c0,1.9-1.1,3.9-4.3,3.9c-2.9,0-4.3-1.5-4.3-3.9v-9h2.6V9c0,1.6,0.7,2.2,1.6,2.2
		c1.2,0,1.7-0.8,1.7-2.2V0.2H57.6z"/>
	<path class="st0" d="M60.3,12.8V0.2h3.6L67.2,9h0V0.2h2.5v12.6h-3.5l-3.4-9.2h0v9.2H60.3z"/>
	<path class="st0" d="M72.8,0.2h4.4c3.5,0,4.1,2.3,4.1,6.2c0,1.9,0.3,6.4-4.2,6.4h-4.3V0.2z M75.4,10.9h1.3c1.6,0,1.9-1.2,1.9-4.4
		c0-2.3,0-4.4-1.8-4.4h-1.4V10.9z"/>
	<path class="st0" d="M87.8,12.8V0.2h2.6v10.5h4v2.1H87.8z"/>
	<path class="st0" d="M96,12.8V0.2h6.9v1.9h-4.3v3.1h3.9v1.9h-3.9v3.7h4.4v1.9H96z"/>
	<path class="st0" d="M105.2,12.8V0.2h2.6v12.6H105.2z"/>
	<path class="st0" d="M116.6,5.3V0.2h2.6v12.6h-2.6V7.2h-3v5.6h-2.6V0.2h2.6v5.1H116.6z"/>
	<path class="st0" d="M128,0.2h2.9l-3.5,5.7l3.5,7h-3l-3-6.5h0v6.5h-2.6V0.2h2.6v5.4h0L128,0.2z"/>
	<path class="st0" d="M131.6,12.8l3.5-12.6h3.5l3.4,12.6h-2.8l-0.7-2.8h-3.6l-0.7,2.8H131.6z M136.7,2.6L136.7,2.6l-1.2,5.5h2.5
		L136.7,2.6z"/>
	<path class="st0" d="M146.4,13.1c-3.3,0-3.9-1.9-3.7-4.1h2.6c0,1.2,0.1,2.2,1.5,2.2c0.9,0,1.3-0.6,1.3-1.4c0-2.3-5.3-2.4-5.3-6.2
		c0-2,0.9-3.6,4.2-3.6c2.6,0,3.9,1.2,3.7,3.8h-2.6c0-0.9-0.2-1.9-1.2-1.9c-0.9,0-1.4,0.5-1.4,1.3c0,2.4,5.3,2.2,5.3,6.2
		C150.8,12.7,148.4,13.1,146.4,13.1z"/>
	<path class="st0" d="M156.3,13.1c-3.3,0-3.9-1.9-3.7-4.1h2.6c0,1.2,0.1,2.2,1.5,2.2c0.9,0,1.3-0.6,1.3-1.4c0-2.3-5.3-2.4-5.3-6.2
		c0-2,0.9-3.6,4.2-3.6c2.6,0,3.9,1.2,3.7,3.8h-2.6c0-0.9-0.2-1.9-1.2-1.9c-0.9,0-1.4,0.5-1.4,1.3c0,2.4,5.3,2.2,5.3,6.2
		C160.7,12.7,158.3,13.1,156.3,13.1z"/>
	<path class="st0" d="M163,12.8V0.2h6.9v1.9h-4.3v3.1h3.9v1.9h-3.9v3.7h4.4v1.9H163z"/>
	<path class="st0" d="M35.6,30.8V18.2h6.6v1.9h-3.9v3.2h3.7v1.9h-3.7v5.5H35.6z"/>
	<path class="st0" d="M46.4,30.8h-2.6V18.2h4.9c1.8,0,3,1.2,3,3.3c0,1.6-0.6,2.8-2.3,3.1v0c0.6,0.1,2.3,0.2,2.3,2.5
		c0,0.8,0.1,3.2,0.3,3.7h-2.6c-0.4-0.8-0.3-1.6-0.3-2.5c0-1.5,0.1-2.8-1.9-2.8h-0.7V30.8z M46.4,23.7h1.2c1,0,1.3-1,1.3-1.9
		c0-1.2-0.5-1.7-1.3-1.7h-1.2V23.7z"/>
	<path class="st0" d="M62.6,18.2v9c0,1.9-1.1,3.9-4.3,3.9c-2.9,0-4.3-1.5-4.3-3.9v-9h2.6V27c0,1.6,0.7,2.2,1.6,2.2
		c1.2,0,1.7-0.8,1.7-2.2v-8.8H62.6z"/>
	<path class="st0" d="M72.7,18.2v2.1h-2.9v10.5h-2.6V20.3h-2.9v-2.1H72.7z"/>
	<path class="st0" d="M74.4,30.8V18.2H77v12.6H74.4z"/>
	<path class="st0" d="M85.5,22.1c0-1.2-0.2-2.2-1.6-2.2c-1.6,0-1.6,2.2-1.6,4.7c0,4,0.4,4.7,1.9,4.7c0.4,0,0.9-0.1,1.3-0.2v-2.8H84
		v-1.9h4.1v6.4c-0.7,0.1-2.5,0.4-3.6,0.4c-4.4,0-5-1.8-5-6.6c0-3.2,0.2-6.4,4.5-6.4c2.6,0,4.2,1.5,4,4.1H85.5z"/>
	<path class="st0" d="M90.5,30.8V18.2h6.9v1.9h-4.3v3.1h3.9v1.9h-3.9v3.7h4.4v1.9H90.5z"/>
	<path class="st0" d="M99.7,30.8V18.2h3.6l3.4,8.8h0v-8.8h2.5v12.6h-3.5l-3.4-9.2h0v9.2H99.7z"/>
	<path class="st0" d="M114.4,30.8l3.5-12.6h3.5l3.4,12.6H122l-0.7-2.8h-3.6l-0.7,2.8H114.4z M119.5,20.6L119.5,20.6l-1.2,5.5h2.5
		L119.5,20.6z"/>
	<path class="st0" d="M131.6,22.1c0-1.2-0.2-2.2-1.6-2.2c-1.6,0-1.6,2.2-1.6,4.7c0,4,0.4,4.7,1.9,4.7c0.4,0,0.9-0.1,1.3-0.2v-2.8
		h-1.4v-1.9h4.1v6.4c-0.7,0.1-2.5,0.4-3.6,0.4c-4.4,0-5-1.8-5-6.6c0-3.2,0.2-6.4,4.5-6.4c2.6,0,4.2,1.5,4,4.1H131.6z"/>
</g>
<g>
	<path class="st0" d="M50,36.3c-0.3,0-0.9,0-1.3,0c-0.4,0-0.9,0-1.3,0l-0.1,0.6c0.1,0,0.3,0,0.3,0c0.2,0,0.3,0.1,0.3,0.2
		c0,0.1,0,0.3-0.1,0.5c-0.2,0.8-0.4,1.9-0.8,3.5c-0.1,0.3-0.1,0.5-0.2,0.6c-0.1,0.1-0.2,0.1-0.4,0.1c-0.1,0-0.2,0-0.3,0l-0.1,0.6
		c0.3,0,0.8,0,1.2,0c0.4,0,1.1,0,1.4,0l0.1-0.6c-0.1,0-0.3,0-0.4,0c-0.3,0-0.3-0.1-0.3-0.2c0-0.1,0-0.3,0.1-0.5
		c0.3-1.2,0.5-2.4,0.8-3.5c0.1-0.3,0.1-0.4,0.2-0.5c0.1-0.1,0.2-0.1,0.4-0.1c0.1,0,0.1,0,0.3,0L50,36.3z"/>
	<path class="st0" d="M53.8,41.6c-0.1,0-0.2-0.1-0.2-0.2c0-0.1,0.1-0.4,0.2-0.8c0.4-1.2,0.5-1.7,0.5-2c0-0.3-0.2-0.5-0.6-0.5
		c-0.7,0-1.5,0.6-2.1,1.3c0.5-2.1,0.8-3.1,0.9-3.5l-0.1-0.1c-0.5,0.1-1.4,0.1-1.8,0.1l-0.1,0.6c0.1,0,0.2,0,0.3,0
		c0.3,0,0.4,0.1,0.4,0.3c0,0.2-0.1,0.7-0.4,2c-0.5,2.2-0.8,3.1-1,3.8l1.1-0.1c0.1-0.4,0.2-0.9,0.4-1.5c0.3-1.1,1.2-1.9,1.7-1.9
		c0.2,0,0.2,0.1,0.2,0.3c0,0.3-0.2,0.9-0.5,1.8c-0.1,0.4-0.2,0.7-0.2,1c0,0.3,0.2,0.5,0.6,0.5c0.4,0,1-0.2,1.6-0.7l-0.3-0.5
		C54.2,41.5,54,41.6,53.8,41.6z"/>
	<path class="st0" d="M58.6,38c-0.6,0-1.2,0.6-1.6,1.4c0.2-0.7,0.3-1,0.3-1.3L57.2,38c-0.5,0.1-1.2,0.2-1.7,0.2l-0.1,0.5
		c0.1,0,0.2,0,0.3,0c0.2,0,0.4,0.1,0.4,0.3c0,0.2-0.1,0.8-0.2,1.2c-0.2,0.8-0.4,1.5-0.6,2.2l1.1-0.1c0.1-0.4,0.2-0.9,0.4-1.6
		c0.2-0.8,0.6-1.3,1-1.6c0.2-0.2,0.3-0.2,0.4-0.2c0.1,0,0.1,0,0.2,0.1c0.1,0.1,0.2,0.1,0.3,0.1c0.2,0,0.5-0.2,0.5-0.6
		C59.1,38.2,59,38,58.6,38z"/>
	<path class="st0" d="M61.7,38c-0.7,0-1.4,0.4-2,1c-0.5,0.6-0.8,1.5-0.8,2.2c0,0.8,0.3,1.3,1.3,1.3c0.8,0,1.6-0.4,2.2-1l-0.3-0.4
		c-0.5,0.3-0.9,0.6-1.4,0.6c-0.4,0-0.6-0.3-0.6-0.7c0-0.1,0-0.3,0-0.5c1.1-0.2,1.9-0.5,2.3-0.9c0.2-0.2,0.4-0.5,0.4-0.8
		C62.9,38.3,62.5,38,61.7,38z M60.3,40.1c0.2-0.8,0.7-1.5,1.3-1.5c0.3,0,0.4,0.2,0.4,0.4C61.9,39.4,61.3,39.7,60.3,40.1z"/>
	<path class="st0" d="M70.6,37.5c0-0.8-0.7-1.2-1.8-1.2c-0.3,0-1.2,0-1.5,0c-0.4,0-0.9,0-1.3,0l-0.1,0.6c0.1,0,0.3,0,0.4,0
		c0.2,0,0.3,0.1,0.3,0.2c0,0.1,0,0.2-0.1,0.4c-0.3,1.2-0.5,2.4-0.8,3.6c-0.1,0.3-0.1,0.5-0.2,0.5c-0.1,0.1-0.2,0.1-0.4,0.1
		c-0.1,0-0.1,0-0.2,0l-0.1,0.6c0.3,0,0.8,0,1.2,0c0.4,0,1.1,0,1.5,0c1.5,0,2.9-0.5,2.9-2c0-0.6-0.5-1.2-1.4-1.3
		C69.9,39,70.6,38.5,70.6,37.5z M69.1,40.5c0,0.9-0.7,1.3-1.5,1.3c-0.4,0-0.6,0-0.7-0.1c-0.1-0.1-0.1-0.1-0.1-0.3
		c0-0.1,0.1-0.6,0.3-1.6c0-0.1,0-0.2,0.1-0.2c0.1-0.1,0.3-0.1,0.6-0.1C68.5,39.5,69.1,39.8,69.1,40.5z M67.8,38.9
		c-0.2,0-0.4,0-0.5-0.1c0,0,0-0.1,0-0.1c0-0.1,0-0.1,0-0.3c0.3-1,0.3-1.3,0.4-1.4c0.1-0.1,0.2-0.1,0.6-0.1c0.7,0,1.1,0.3,1.1,0.8
		C69.5,38.5,68.7,38.9,67.8,38.9z"/>
	<path class="st0" d="M75.2,41.6c-0.1,0-0.2-0.1-0.2-0.2c0-0.3,0.1-0.6,0.3-1.5c0.2-0.8,0.4-1.4,0.6-2L75,37.9l-0.1,0.2
		c-0.2-0.1-0.6-0.1-0.9-0.1c-0.7,0-1.3,0.3-1.8,0.9c-0.7,0.7-1.1,1.7-1.1,2.6c0,0.5,0.2,0.9,0.9,0.9c0.5,0,1.3-0.3,2.2-1.5
		c-0.1,0.4-0.2,0.7-0.2,1c0,0.3,0.2,0.5,0.6,0.5c0.4,0,1.1-0.3,1.6-0.7l-0.2-0.5C75.6,41.5,75.3,41.6,75.2,41.6z M74.4,39.4
		c-0.1,0.2-0.2,0.5-0.4,0.8c-0.6,0.9-1.2,1.4-1.6,1.4c-0.2,0-0.3-0.1-0.3-0.4c0-0.5,0.3-1.2,0.7-1.9c0.3-0.5,0.7-0.7,1.1-0.7
		c0.4,0,0.6,0.1,0.6,0.3C74.5,39.1,74.5,39.2,74.4,39.4z"/>
	<path class="st0" d="M80.6,41.6c-0.1,0-0.2-0.1-0.2-0.2c0-0.1,0.1-0.4,0.2-0.8c0.4-1.2,0.5-1.7,0.5-2c0-0.3-0.2-0.5-0.6-0.5
		c-0.8,0-1.6,0.6-2.2,1.4c0.2-0.7,0.3-1,0.4-1.3L78.6,38c-0.5,0.1-1.3,0.2-1.7,0.2l-0.1,0.5c0.1,0,0.2,0,0.3,0
		c0.2,0,0.4,0.1,0.4,0.3c0,0.2-0.1,0.8-0.2,1.2c-0.2,0.8-0.4,1.5-0.6,2.2l1.1-0.1c0.1-0.4,0.2-0.9,0.4-1.5c0.3-1.1,1.3-1.9,1.7-1.9
		c0.2,0,0.2,0.1,0.2,0.3c0,0.3-0.2,0.9-0.5,1.8c-0.1,0.4-0.2,0.7-0.2,1c0,0.3,0.1,0.5,0.6,0.5c0.4,0,1-0.2,1.6-0.7l-0.3-0.5
		C81,41.5,80.8,41.6,80.6,41.6z"/>
	<path class="st0" d="M85.8,41.6c-0.2,0-0.4-0.1-0.6-0.5c-0.2-0.4-0.4-1-0.6-1.5c0.2-0.2,0.4-0.5,0.6-0.6c0.2-0.1,0.3-0.2,0.4-0.2
		c0,0,0.1,0,0.2,0.1C85.9,39,86,39,86.1,39c0.3,0,0.5-0.2,0.5-0.5c0-0.3-0.2-0.5-0.6-0.5c-0.2,0-0.6,0.1-1,0.4
		c-0.6,0.5-1.1,1.1-1.5,1.6c0.5-1.8,0.9-3.5,1.1-4.2l-0.1-0.1c-0.5,0.1-1.4,0.1-1.8,0.1l-0.1,0.6c0.1,0,0.2,0,0.3,0
		c0.3,0,0.4,0.1,0.4,0.3c0,0.2-0.1,0.7-0.5,2.3c-0.4,1.8-0.7,2.8-0.9,3.4l1.1-0.1c0-0.3,0.1-0.5,0.2-0.8c0.1-0.3,0.2-0.5,0.2-0.6
		c0.1-0.1,0.2-0.4,0.4-0.5c0.2,0.7,0.4,1.2,0.7,1.7c0.1,0.2,0.3,0.4,0.6,0.4c0.5,0,1-0.3,1.5-0.7l-0.3-0.5
		C86.1,41.5,85.9,41.6,85.8,41.6z"/>
	<path class="st0" d="M91.1,38c-1.2,0-1.8,0.6-1.8,1.3c0,0.4,0.1,0.7,0.6,1l0.6,0.4c0.4,0.3,0.5,0.5,0.5,0.7c0,0.2-0.2,0.5-0.7,0.5
		c-0.4,0-0.5-0.2-0.6-0.4c-0.1-0.3-0.2-0.5-0.5-0.5c-0.2,0-0.5,0.1-0.5,0.5c0,0.4,0.5,0.9,1.5,0.9c1.3,0,1.9-0.7,1.9-1.3
		c0-0.5-0.2-0.7-0.8-1.1l-0.5-0.4c-0.4-0.3-0.5-0.5-0.5-0.7c0-0.3,0.2-0.5,0.6-0.5c0.2,0,0.4,0.1,0.5,0.3c0.1,0.2,0.2,0.3,0.5,0.3
		c0.3,0,0.5-0.2,0.5-0.5C92.4,38.3,91.9,38,91.1,38z"/>
	<path class="st0" d="M95.6,38c-0.7,0-1.4,0.4-2,1c-0.5,0.6-0.8,1.5-0.8,2.2c0,0.8,0.3,1.3,1.3,1.3c0.8,0,1.6-0.4,2.2-1L96,41.1
		c-0.5,0.3-0.9,0.6-1.4,0.6c-0.4,0-0.6-0.3-0.6-0.7c0-0.1,0-0.3,0-0.5c1.1-0.2,1.9-0.5,2.3-0.9c0.2-0.2,0.4-0.5,0.4-0.8
		C96.7,38.3,96.3,38,95.6,38z M94.1,40.1c0.2-0.8,0.7-1.5,1.3-1.5c0.3,0,0.4,0.2,0.4,0.4C95.8,39.4,95.2,39.7,94.1,40.1z"/>
	<path class="st0" d="M98.9,37.2c0.4,0,0.7-0.3,0.7-0.7c0-0.3-0.2-0.6-0.6-0.6c-0.4,0-0.7,0.2-0.7,0.7C98.3,37,98.5,37.2,98.9,37.2z
		"/>
	<path class="st0" d="M98.7,41.6c-0.1,0-0.2-0.1-0.2-0.2c0-0.2,0.1-0.5,0.3-1.2c0.2-0.8,0.4-1.4,0.6-2.1L99.2,38
		c-0.5,0.1-1.4,0.2-1.8,0.2l-0.1,0.5c0.1,0,0.2,0,0.3,0c0.2,0,0.4,0.1,0.4,0.3c0,0.2-0.1,0.6-0.3,1.2c-0.2,0.7-0.4,1.3-0.4,1.7
		c0,0.3,0.1,0.5,0.6,0.5c0.4,0,1-0.2,1.6-0.7l-0.3-0.5C99,41.5,98.9,41.6,98.7,41.6z"/>
	<path class="st0" d="M102.5,37h-0.6c-0.1,0.3-0.2,0.4-0.4,0.8c-0.2,0.3-0.4,0.4-0.9,0.4l-0.1,0.5c0.2,0,0.5,0,0.7,0
		c-0.2,0.9-0.4,1.7-0.5,2.3c-0.1,0.3-0.1,0.6-0.1,0.8c0,0.3,0.1,0.6,0.7,0.6c0.5,0,1.1-0.3,1.6-0.7l-0.3-0.5
		c-0.2,0.2-0.5,0.3-0.7,0.3c-0.1,0-0.2-0.1-0.2-0.2c0-0.2,0.1-0.6,0.2-1c0.1-0.5,0.2-1.1,0.4-1.7c0.3,0,0.5,0,0.8,0l0.2-0.6
		c-0.2,0-0.5,0-0.9,0L102.5,37z"/>
	<path class="st0" d="M108.3,36.6l-0.1-0.1c-0.4,0.2-1.6,0.5-2.2,0.6l0.1,0.6c0.2-0.1,0.4-0.1,0.5-0.1c0.2,0,0.3,0.1,0.3,0.2
		c0,0.1,0,0.2-0.1,0.4c-0.2,1-0.4,2-0.7,2.9c-0.1,0.3-0.1,0.4-0.2,0.5c-0.1,0.1-0.2,0.1-0.5,0.1c-0.1,0-0.2,0-0.3,0l-0.1,0.6
		c0.4,0,0.8,0,1.4,0c0.6,0,1.3,0,1.6,0l0.1-0.6c-0.2,0-0.4,0-0.5,0c-0.3,0-0.4-0.1-0.4-0.2c0-0.1,0-0.2,0.1-0.4
		C107.6,39.7,108,37.8,108.3,36.6z"/>
	<path class="st0" d="M112,36.5c-1.3,0-2,0.7-2,1.6c0,0.4,0.1,0.9,0.6,1.3c-1,0.3-1.6,0.9-1.6,1.7c0,0.8,0.6,1.4,1.9,1.4
		c1.4,0,2.2-0.8,2.2-1.8c0-0.5-0.3-1-0.9-1.4c0.8-0.3,1.3-0.7,1.3-1.5C113.6,37.1,113.1,36.5,112,36.5z M111,41.9
		c-0.7,0-1-0.4-1-0.9c0-0.5,0.4-0.9,1.1-1.2c0.8,0.5,1.1,0.8,1.1,1.2C112.1,41.5,111.7,41.9,111,41.9z M111.8,39
		c-0.6-0.3-0.8-0.7-0.8-1c0-0.6,0.4-0.8,0.9-0.8c0.5,0,0.8,0.3,0.8,0.7C112.8,38.4,112.4,38.7,111.8,39z"/>
	<path class="st0" d="M118.6,37.8c0-0.6-0.4-1.2-1.6-1.2c-1.3,0-1.8,0.6-1.8,1.1c0,0.3,0.2,0.4,0.4,0.4c0.4,0,0.5-0.2,0.6-0.5
		c0.1-0.3,0.3-0.5,0.7-0.5c0.5,0,0.7,0.3,0.7,0.7c0,0.8-0.6,1.2-1.4,1.2c-0.1,0-0.2,0-0.3,0l-0.1,0.7c0.1,0,0.3,0,0.4,0
		c0.7,0,1.2,0.4,1.2,1c0,0.9-0.6,1.2-1.3,1.2c-0.5,0-0.8-0.2-0.8-0.6c0-0.2-0.2-0.4-0.5-0.4c-0.2,0-0.6,0.1-0.6,0.6
		c0,0.4,0.4,1,1.8,1c1.4,0,2.5-0.7,2.5-1.9c0-0.6-0.5-1.2-1.3-1.2C117.9,39.2,118.6,38.8,118.6,37.8z"/>
	<path class="st0" d="M122.2,36.8c-0.7,0-1.6,0-2.2,0c-0.1,0.5-0.4,1.3-0.5,1.6l0.6,0.1c0.2-0.4,0.3-0.6,0.4-0.7
		c0.2-0.1,0.4-0.2,1.3-0.2h1c-1,1.3-1.9,2.7-2.7,4.2c-0.1,0.1-0.2,0.3-0.2,0.4c0,0.2,0.2,0.4,0.4,0.4c0.3,0,0.4-0.1,0.6-0.4
		c0.9-1.8,2-3.5,3.1-5.1l-0.1-0.2C123.5,36.7,122.7,36.8,122.2,36.8z"/>
	<rect x="0" y="39.6" class="st0" width="43.1" height="0.8"/>
	<rect x="126.9" y="39.6" class="st0" width="43.1" height="0.8"/>
</g>
<g>
</g>
<g>
</g>
<g>
</g>
<g>
</g>
<g>
</g>
<g>
</g>
</svg>
