<?xml version="1.0" encoding="utf-8"?>
<!-- Generator: Adobe Illustrator 21.1.0, SVG Export Plug-In . SVG Version: 6.00 Build 0)  -->
<svg version="1.1" id="Ebene_1" xmlns="http://www.w3.org/2000/svg" xmlns:xlink="http://www.w3.org/1999/xlink" x="0px" y="0px"
	 width="126.1px" height="56.7px" viewBox="0 0 126.1 56.7" style="enable-background:new 0 0 126.1 56.7;" xml:space="preserve">
<style type="text/css">
	.st0{fill:#FFFFFF;}
</style>
<path class="st0" d="M111.3,30.4c0,0-0.6-0.7-0.6-1.5c0-1,0.7-1.4,1.4-1.4h1.9c0.7,0,1.2-0.2,1.6-0.6c0.4-0.4,0.6-0.9,0.6-1.6
	c0-0.7-0.2-1.2-0.6-1.6c-0.4-0.4-1-0.5-1.6-0.5h-5.4c0,0-1.7-0.1-1.7-1.9c0-1.8,1.7-1.9,1.7-1.9h5.4c2,0,3.6,0.5,4.7,1.4
	c1.2,1,1.7,2.5,1.7,4.5c0,1.4-0.5,2.5-1.4,3.4c-0.8,0.8-1.9,1.3-3.2,1.5l8,9.4c1.5-3.4,2.3-7.2,2.3-11.2C126.1,12.7,113.4,0,97.8,0
	c-8.9,0-16.8,4.1-22,10.5l4.7,21.2l3.2-10.8c0.3-1,1.1-1.6,2.1-1.6c1,0,1.8,0.6,2.1,1.6l3.2,10.8l2.1-10.5c0.3-1.3,1-1.9,2.1-1.9
	c1.2,0,1.9,0.9,1.9,1.8c0,0.4,0,0.5-0.1,0.9l-3.2,13.9c-0.2,1-1.1,2.1-2.6,2.1C90,38,89,37.2,88.6,36l-2.9-9.6L82.9,36
	c-0.3,1.2-1.4,1.9-2.6,1.9c-1.6,0-2.4-1.1-2.6-2.1l-4.8-21c-2.2,4-3.4,8.6-3.4,13.4c0,15.7,12.7,28.3,28.3,28.3
	c10.2,0,19.2-5.4,24.2-13.5L111.3,30.4z M104.6,35.9c0,1.3-0.8,2.1-2,2.1c-1.2,0-2-0.8-2-2.1V21.4c0-1.3,0.8-2.1,2-2.1
	c1.2,0,2,0.8,2,2.1V35.9z"/>
<g>
	<g>
		<path class="st0" d="M0,5.4h5.5c2.2,0,3.7,0.7,3.7,2.9c0,1.1-0.6,1.9-1.6,2.4c1.4,0.4,2.1,1.5,2.1,3c0,2.4-2,3.4-4.1,3.4H0V5.4z
			 M2.6,10.2h2.6c0.9,0,1.6-0.4,1.6-1.4c0-1.1-0.8-1.3-1.8-1.3H2.6V10.2z M2.6,15.1h2.7c1,0,1.9-0.3,1.9-1.5c0-1.2-0.7-1.7-1.8-1.7
			H2.6V15.1z"/>
		<path class="st0" d="M11.3,11.2c0.1-2.2,2.1-2.8,3.9-2.8c1.7,0,3.7,0.4,3.7,2.4v4.4c0,0.8,0.1,1.5,0.3,1.9h-2.3
			c-0.1-0.3-0.1-0.5-0.2-0.8c-0.7,0.8-1.8,1-2.8,1c-1.6,0-2.9-0.8-2.9-2.5c0-1.9,1.4-2.4,2.9-2.6c1.4-0.2,2.7-0.2,2.7-1.1
			c0-1-0.7-1.1-1.5-1.1c-0.9,0-1.4,0.4-1.5,1.3H11.3z M16.6,13c-0.4,0.3-1.2,0.4-1.9,0.5c-0.7,0.1-1.4,0.4-1.4,1.2
			c0,0.9,0.7,1.1,1.4,1.1c1.8,0,1.9-1.4,1.9-1.9V13z"/>
		<path class="st0" d="M20.9,8.7h2.2v1.2h0c0.6-0.9,1.6-1.4,2.6-1.4c2.5,0,3.1,1.4,3.1,3.5v5.2h-2.3v-4.8c0-1.4-0.4-2.1-1.5-2.1
			c-1.3,0-1.8,0.7-1.8,2.4v4.4h-2.3V8.7z"/>
		<polygon class="st0" points="30.7,5.4 33,5.4 33,11.7 36,8.7 38.7,8.7 35.5,11.8 39,17.1 36.2,17.1 33.9,13.3 33,14.2 33,17.1 
			30.7,17.1 		"/>
	</g>
	<g>
		<path class="st0" d="M0,39.6h5.5c2.2,0,3.7,0.7,3.7,2.9c0,1.1-0.6,1.9-1.6,2.4c1.4,0.4,2.1,1.5,2.1,3c0,2.4-2,3.4-4.1,3.4H0V39.6z
			 M2.6,44.3h2.6c0.9,0,1.6-0.4,1.6-1.4c0-1.1-0.8-1.3-1.8-1.3H2.6V44.3z M2.6,49.3h2.7c1,0,1.9-0.3,1.9-1.5c0-1.2-0.7-1.7-1.8-1.7
			H2.6V49.3z"/>
		<path class="st0" d="M11.3,45.4c0.1-2.2,2.1-2.8,4-2.8c1.7,0,3.7,0.4,3.7,2.4v4.4c0,0.8,0.1,1.5,0.3,1.9h-2.3
			c-0.1-0.3-0.1-0.5-0.2-0.8c-0.7,0.8-1.8,1-2.8,1c-1.6,0-2.9-0.8-2.9-2.5c0-1.9,1.4-2.4,2.9-2.6c1.4-0.2,2.7-0.2,2.7-1.1
			c0-1-0.7-1.1-1.5-1.1c-0.9,0-1.4,0.4-1.5,1.3H11.3z M16.6,47.1c-0.4,0.3-1.2,0.4-1.9,0.5c-0.7,0.1-1.4,0.4-1.4,1.2
			c0,0.9,0.7,1.1,1.4,1.1c1.8,0,1.9-1.4,1.9-1.9V47.1z"/>
		<path class="st0" d="M20.9,42.8h2.2V44h0c0.6-0.9,1.6-1.4,2.6-1.4c2.5,0,3.1,1.4,3.1,3.5v5.2h-2.3v-4.8c0-1.4-0.4-2.1-1.5-2.1
			c-1.3,0-1.8,0.7-1.8,2.4v4.4h-2.3V42.8z"/>
		<path class="st0" d="M36.3,45.8c-0.1-0.9-0.7-1.5-1.7-1.5c-1.5,0-2,1.5-2,2.7c0,1.2,0.5,2.7,1.9,2.7c1.1,0,1.7-0.7,1.8-1.7h2.2
			c-0.3,2.2-1.8,3.5-4,3.5c-2.5,0-4.2-1.8-4.2-4.3c0-2.6,1.6-4.6,4.3-4.6c2,0,3.8,1,4,3.2H36.3z"/>
		<path class="st0" d="M40.1,45.4c0.1-2.2,2.1-2.8,4-2.8c1.7,0,3.7,0.4,3.7,2.4v4.4c0,0.8,0.1,1.5,0.3,1.9h-2.3
			c-0.1-0.3-0.1-0.5-0.2-0.8c-0.7,0.8-1.8,1-2.8,1c-1.6,0-2.9-0.8-2.9-2.5c0-1.9,1.4-2.4,2.9-2.6c1.4-0.2,2.7-0.2,2.7-1.1
			c0-1-0.7-1.1-1.5-1.1c-0.9,0-1.4,0.4-1.5,1.3H40.1z M45.4,47.1c-0.4,0.3-1.2,0.4-1.9,0.5c-0.7,0.1-1.4,0.4-1.4,1.2
			c0,0.9,0.7,1.1,1.4,1.1c1.8,0,1.9-1.4,1.9-1.9V47.1z"/>
	</g>
	<g>
		<path class="st0" d="M11.3,28.3c0.1-2.2,2.1-2.8,3.9-2.8c1.7,0,3.7,0.4,3.7,2.4v4.4c0,0.8,0.1,1.5,0.3,1.9h-2.3
			c-0.1-0.3-0.1-0.5-0.2-0.8c-0.7,0.8-1.8,1-2.8,1c-1.6,0-2.9-0.8-2.9-2.5c0-1.9,1.4-2.4,2.9-2.6c1.4-0.2,2.7-0.2,2.7-1.1
			c0-1-0.7-1.1-1.5-1.1c-0.9,0-1.4,0.4-1.5,1.3H11.3z M16.6,30c-0.4,0.3-1.2,0.4-1.9,0.5c-0.7,0.1-1.4,0.4-1.4,1.2
			c0,0.9,0.7,1.1,1.4,1.1c1.8,0,1.9-1.4,1.9-1.9V30z"/>
		<path class="st0" d="M20.9,25.7h2.2v1.2h0c0.6-0.9,1.6-1.4,2.6-1.4c2.5,0,3.1,1.4,3.1,3.5v5.2h-2.3v-4.8c0-1.4-0.4-2.1-1.5-2.1
			c-1.3,0-1.8,0.7-1.8,2.4v4.4h-2.3V25.7z"/>
		<path class="st0" d="M0,22.5h5.5c2.2,0,3.7,0.7,3.7,2.9c0,1.1-0.6,1.9-1.6,2.4c1.4,0.4,2.1,1.5,2.1,3c0,2.4-2,3.4-4.1,3.4H0V22.5z
			 M2.6,27.2h2.6c0.9,0,1.6-0.4,1.6-1.4c0-1.1-0.8-1.3-1.8-1.3H2.6V27.2z M2.6,32.2h2.7c1,0,1.9-0.3,1.9-1.5c0-1.2-0.7-1.7-1.8-1.7
			H2.6V32.2z"/>
		<path class="st0" d="M38.9,37.1h-2.3v-4h0c-0.5,0.9-1.6,1.3-2.7,1.3c-1.5,0-3.6-1.1-3.6-4.4c0-2.3,1.2-4.5,3.8-4.5
			c1,0,2,0.4,2.6,1.3h0v-1.1h2.2V37.1z M34.6,32.6c1.5,0,2-1.3,2-2.7c0-1.3-0.5-2.7-2-2.7c-1.5,0-2,1.3-2,2.7
			C32.6,31.3,33.1,32.6,34.6,32.6"/>
		<path class="st0" d="M48.8,34.2h-2.2V33h0c-0.6,0.9-1.6,1.4-2.6,1.4c-2.5,0-3.1-1.4-3.1-3.5v-5.2h2.3v4.8c0,1.4,0.4,2.1,1.5,2.1
			c1.3,0,1.8-0.7,1.8-2.4v-4.4h2.3V34.2z"/>
		<path class="st0" d="M52.6,30.5c0.1,1.5,0.8,2.1,2.1,2.1c0.9,0,1.7-0.6,1.8-1.1h2c-0.7,2-2,2.8-3.9,2.8c-2.6,0-4.3-1.8-4.3-4.4
			c0-2.5,1.7-4.5,4.3-4.5c2.9,0,4.2,2.4,4.1,5H52.6z M56.4,29c-0.2-1.2-0.7-1.8-1.8-1.8c-1.5,0-1.9,1.1-1.9,1.8H56.4z"/>
	</g>
</g>
<g>
</g>
<g>
</g>
<g>
</g>
<g>
</g>
<g>
</g>
<g>
</g>
</svg>
