<svg width="132" height="54" viewBox="0 0 132 54" fill="none" xmlns="http://www.w3.org/2000/svg">
<path d="M91.5737 1.14209H77.2422V53.5534H91.5737V1.14209Z" fill="white"/>
<path d="M48.9663 1.14209H30.6494V53.5534H45.7397C64.3415 53.5534 76.0131 44.9616 76.0131 27.3003C76.0131 11.3565 65.4802 1.14209 48.9663 1.14209ZM45.1726 41.5164V13.258C46.3112 13.258 47.165 13.1635 47.8298 13.1635C55.801 13.1635 61.6854 17.7458 61.6854 27.0058C61.6876 37.793 54.4746 41.5164 45.1726 41.5164Z" fill="white"/>
<path d="M120.328 0.17334C105.048 0.17334 92.8057 11.8204 92.8057 27.1909C92.8057 42.5614 104.858 53.8268 120.043 53.8268C125.455 53.8268 129.155 52.6797 132.001 50.4843V36.6426C127.73 39.3145 124.789 40.4599 120.801 40.4599C113.115 40.4599 107.136 34.8289 107.136 26.522C107.136 18.4068 113.21 12.4881 120.801 12.4881C124.977 12.4881 128.014 13.9212 132.001 16.4037V2.56029C128.3 1.03269 124.978 0.17334 120.328 0.17334Z" fill="white"/>
<path d="M0 53.5534H14.3299L14.4249 33.5057H28.3759V21.382H14.5204L14.4249 13.2663H29.4196V1.14209H0V53.5534Z" fill="white"/>
</svg>
