<?xml version="1.0" encoding="utf-8"?>
<!-- Generator: Adobe Illustrator 25.0.1, SVG Export Plug-In . SVG Version: 6.00 Build 0)  -->
<svg version="1.1" id="Layer_1" xmlns="http://www.w3.org/2000/svg" xmlns:xlink="http://www.w3.org/1999/xlink" x="0px" y="0px"
	 viewBox="0 0 140.2 32" style="enable-background:new 0 0 140.2 32;" xml:space="preserve">
<style type="text/css">
	.st0{fill-rule:evenodd;clip-rule:evenodd;fill:#FFFFFF;}
</style>
<g>
	<path class="st0" d="M3.2,6.2h3.5v19.6H3.2V6.2z M29.7,18.9L16.5,6.2v19.6h2.9V13.1l13.3,13.3V6.2h-2.9V18.9z M50.5,14.8L47,13.7
		c-1.2-0.6-2.3-1.2-2.3-2.3c0-1.7,1.7-2.3,3.5-2.3c2.3,0,4,1.2,5.8,2.3v-4c-1.7-1.2-3.5-1.7-5.8-1.7c-3.5,0-6.3,1.7-6.3,5.2
		s1.7,4.6,4.6,5.8l2.9,1.2c1.7,0.6,2.9,1.2,2.9,2.9s-1.7,2.3-4,2.3c-2.9,0-4.6-0.6-6.3-2.3v3.5c1.2,1.2,3.5,1.7,5.8,1.7
		c4,0,6.9-1.7,6.9-5.8C55.1,17.7,53.4,16,50.5,14.8z M62.6,6.2h3.5v19.6h-3.5V6.2z M83.4,6.2h-7.5v19.6h7.5c5.8,0,9.2-4,9.2-9.8
		S89.1,6.2,83.4,6.2z M83.4,22.9h-4V9.1h4c4,0,6.3,2.9,6.3,6.9S87.4,22.9,83.4,22.9z M100.7,25.8h12.1v-2.9h-8.7v-5.8h7.5v-3.5h-7.5
		V9.1h8.7V6.2h-12.1V25.8z M129.5,17.7c2.9-0.6,4.6-2.3,4.6-5.8c0-4-2.9-5.8-6.9-5.8h-6.9v19.6h3.5v-8.1h2.3l6.9,8.1h4L129.5,17.7
		L129.5,17.7z M123.8,14.8V9.1h3.5c2.3,0,3.5,1.2,3.5,2.9s-1.2,2.9-3.5,2.9H123.8L123.8,14.8z"/>
</g>
</svg>
