<svg width="47" height="32" viewBox="0 0 47 32" fill="none" xmlns="http://www.w3.org/2000/svg">
<g clip-path="url(#clip0)">
<path fill-rule="evenodd" clip-rule="evenodd" d="M23.4269 0.0632324H0.234131V7.78183H7.91173V23.7014H15.7493V7.78183H23.4269V0.0632324ZM31.1045 0.0632324H46.6196V7.78183H31.1045V0.0632324ZM31.1045 15.5726V7.78183H23.4269V23.7014H46.6196V15.584L31.1045 15.5726Z" fill="white"/>
<path fill-rule="evenodd" clip-rule="evenodd" d="M3.43313 26.9175V31.7416H2.15353V26.9175H0.234131V25.9527H5.03263V26.9175H3.43313ZM8.62671 29.812H5.96562C6.00785 30.4552 6.45715 30.7501 6.88101 30.7501C7.20315 30.7501 7.47411 30.6782 7.64382 30.4817L8.47428 31.2039C8.11839 31.6638 7.47411 31.94 6.88101 31.94C5.60125 31.94 4.78759 31.0344 4.78759 29.62C4.78759 28.2481 5.64348 27.2881 6.77097 27.2881C7.95764 27.2881 8.64382 28.2512 8.64382 29.5294C8.64382 29.7007 8.63535 29.812 8.62671 29.812ZM6.71163 28.3676C6.28776 28.3676 6.02512 28.5255 5.98273 29.1687H7.50834C7.47443 28.5255 7.23706 28.3676 6.71163 28.3676ZM11.4321 31.9526C10.2708 31.9526 9.34728 30.9982 9.34728 29.6264C9.34728 28.2546 10.2457 27.2917 11.4829 27.2917C12.3305 27.2917 12.8729 27.7093 13.2459 28.2803L12.4748 29.0641C12.212 28.6891 11.9324 28.4249 11.4578 28.4249C10.8983 28.4249 10.534 28.8935 10.534 29.6261C10.534 30.3421 10.8983 30.8194 11.4578 30.8194C11.9153 30.8194 12.2035 30.615 12.5089 30.2485L13.2545 30.9556C12.822 31.5351 12.3134 31.9526 11.4321 31.9526ZM16.709 31.7416V29.4389C16.709 28.6383 16.5566 28.3996 16.0733 28.3996C15.5901 28.3996 15.4294 28.6384 15.4294 29.4138V31.7419H14.1498V26.2358L15.4294 25.6475V27.6844C15.4294 27.4713 15.942 27.2925 16.4081 27.2925C17.5439 27.2925 17.9886 28.0762 17.9886 29.3373V31.7419L16.709 31.7416Z" fill="white"/>
<path fill-rule="evenodd" clip-rule="evenodd" d="M22.6616 27.6326C22.4497 27.2238 22.1107 26.985 21.577 26.985C20.687 26.985 20.1787 27.7691 20.1787 28.8766C20.1787 29.9501 20.6957 30.7681 21.5855 30.7681C22.1199 30.7681 22.4334 30.5382 22.7467 30.0099L23.7469 30.6062C23.3403 31.4498 22.6279 31.9524 21.5519 31.9524C20.0008 31.9524 18.9581 30.7591 18.9581 28.8762C18.9581 27.0614 20.0428 25.8004 21.5938 25.8004C22.7128 25.8004 23.3908 26.3457 23.7633 27.1207L22.6616 27.6326ZM27.018 28.7573C26.8315 28.5866 26.6428 28.4675 26.3801 28.4675C25.9228 28.4675 25.6663 28.664 25.6663 29.4387V31.7415H24.3867V27.2389H25.6663V27.6839C25.9862 27.4708 26.1263 27.292 26.5417 27.292C26.9228 27.292 27.1906 27.4451 27.343 27.6072L27.018 28.7573ZM30.7847 31.7016V31.5607C30.4648 31.7736 30.272 31.9526 29.8059 31.9526C28.67 31.9526 28.2255 31.1685 28.2255 29.9078V27.2391H29.1852V29.8052C29.1852 30.6062 29.4976 30.8448 29.9809 30.8448C30.4633 30.8448 30.7847 30.6059 30.7847 29.8305V27.2389H32.0643V31.7415H30.7345L30.7847 31.7016ZM35.4232 31.7416V29.4389C35.4232 28.6383 35.3508 28.3996 34.8674 28.3996C34.385 28.3996 34.3036 28.6384 34.3036 29.4138V31.7419H33.024V27.2394H34.3036V27.6844C34.3036 27.4713 34.7362 27.2925 35.2023 27.2925C36.3383 27.2925 36.7028 28.0762 36.7028 29.3373V31.7419L35.4232 31.7416ZM39.7982 31.9526C38.6369 31.9526 37.7136 30.9982 37.7136 29.6264C37.7136 28.2546 38.612 27.2917 39.8492 27.2917C40.6971 27.2917 41.2393 27.7093 41.612 28.2803L40.8414 29.0641C40.5783 28.6891 40.299 28.4249 39.8246 28.4249C39.2647 28.4249 38.9002 28.8935 38.9002 29.6261C38.9002 30.3421 39.2647 30.8194 39.8246 30.8194C40.2815 30.8194 40.5703 30.615 40.8754 30.2485L41.6211 30.9556C41.1878 31.5351 40.6797 31.9526 39.7982 31.9526ZM45.0202 31.859V29.4389C45.0202 28.6383 44.8678 28.3996 44.3844 28.3996C43.902 28.3996 43.7406 28.6384 43.7406 29.4138V31.7419H42.461V26.2358L43.7406 25.6475V27.6844C43.7406 27.4713 44.2533 27.2925 44.7194 27.2925C45.8553 27.2925 46.2998 28.0762 46.2998 29.3373V31.7419H45.0503L45.0202 31.859Z" fill="white"/>
</g>
<defs>
<clipPath id="clip0">
<rect width="46.5455" height="32" fill="white" transform="translate(0.154175)"/>
</clipPath>
</defs>
</svg>
