<svg width="77" height="32" viewBox="0 0 77 32" fill="none" xmlns="http://www.w3.org/2000/svg">
<g clip-path="url(#clip0)">
<path fill-rule="evenodd" clip-rule="evenodd" d="M18.8816 25.946C17.5492 25.7521 16.3838 25.1879 15.4939 24.3062C14.7516 23.5707 14.2702 22.762 13.9155 21.6538C13.3615 19.9236 13.3614 17.6991 13.9149 16.0042C14.4515 14.3617 15.6595 12.9319 17.1379 12.1896C19.1853 11.1616 22.067 11.2261 23.9633 12.3425C25.6699 13.3472 26.7036 15.1325 26.9913 17.5716C27.0791 18.3163 27.0221 19.8893 26.8838 20.5386C26.3177 23.1962 24.6691 25.0527 22.2537 25.7523C21.9934 25.8277 21.5898 25.916 21.3569 25.9483C20.8638 26.017 19.3588 26.0155 18.8816 25.946ZM19.6804 24.9598C20.0442 25.1248 20.7098 25.1157 21.0861 24.9403C22.1241 24.4569 22.6806 23.0657 22.8621 20.5008C23.115 16.9264 22.529 13.943 21.368 12.8939C20.8452 12.4215 20.0322 12.2668 19.4455 12.5282C18.5896 12.9096 18.0399 14.0384 17.7797 15.9492C17.5944 17.3099 17.6136 20.0868 17.817 21.3355C18.1377 23.3053 18.7778 24.5503 19.6804 24.9598ZM42.4815 25.9454C41.9363 25.8901 40.2705 25.6128 39.6886 25.4804L39.286 25.3889L39.3174 23.2386C39.393 18.0614 39.4025 15.2352 39.3535 12.4866C39.3056 9.79415 39.2916 9.50951 39.1878 9.1112C39.0562 8.60653 38.8664 8.25456 38.6381 8.09192C38.5494 8.02877 38.3084 7.93924 38.1025 7.89296C37.4184 7.73923 37.4555 7.76386 37.4373 7.45167C37.4268 7.27184 37.4462 7.15301 37.4922 7.11657C37.5539 7.06765 43.1658 5.99699 43.3445 6.00001C43.3959 6.00089 43.4032 6.71859 43.3768 9.18897C43.3582 10.9423 43.3557 12.3768 43.3715 12.3768C43.3872 12.3768 43.5923 12.2879 43.8272 12.1794C44.5352 11.8522 45.1878 11.7102 46.1356 11.6772C46.7666 11.6552 47.059 11.669 47.3827 11.7359C49.4996 12.174 51.0661 13.907 51.6135 16.4164C51.7563 17.071 51.8094 18.698 51.7147 19.5129C51.6338 20.2074 51.4032 21.1433 51.1633 21.7505C50.2579 24.0422 48.3155 25.5372 45.7386 25.9257C45.145 26.0152 43.2811 26.0264 42.4815 25.9454ZM43.6259 24.9781C44.1218 25.0306 44.6788 25.0123 44.9386 24.9351C45.3415 24.8154 45.8566 24.4492 46.1669 24.0623C46.8067 23.2637 47.2664 22.0278 47.519 20.4264C47.64 19.6594 47.6563 17.5042 47.5458 16.8836C47.2067 14.9786 46.5537 13.8146 45.5596 13.3434C45.0646 13.1088 44.3664 13.0797 43.7178 13.2667L43.2782 13.3935L43.2284 15.1248C43.1657 17.3076 43.2677 24.7685 43.3618 24.8821C43.396 24.9232 43.5148 24.9664 43.6259 24.9781ZM60.7233 25.8125C60.0421 25.923 59.0248 25.9136 58.3345 25.7904C55.6103 25.3041 53.7142 23.4057 53.0734 20.5229C52.9726 20.0691 52.9548 19.816 52.9548 18.8348C52.9548 17.8464 52.9722 17.6017 53.0763 17.131C53.4215 15.5692 53.9871 14.458 54.9405 13.4689C56.1362 12.2282 57.6819 11.6073 59.5744 11.6073C60.3733 11.6073 60.9793 11.7057 61.62 11.9396C63.2295 12.5271 64.3584 13.9878 64.7859 16.0362C64.8923 16.5455 65.0109 17.5173 65.0109 17.8787V18.0378L60.9858 18.0387C58.7588 18.0391 56.9265 18.0612 56.8842 18.0879C56.8221 18.1273 56.8151 18.259 56.8472 18.7879C56.9236 20.0473 57.1799 21.0273 57.6522 21.8664C57.9983 22.4811 58.6908 23.1646 59.2686 23.4618C60.1397 23.9098 61.0823 24.0806 62.1042 23.9757C62.9791 23.886 63.3524 23.7597 64.0972 23.3022C64.5648 23.0149 64.5569 23.0146 64.7401 23.3299C64.8087 23.4482 64.645 23.6738 64.1514 24.1413C63.2503 24.9948 61.9965 25.606 60.7233 25.8125ZM56.8589 17.1164C56.8888 17.165 59.3523 17.1326 60.4995 17.0687L61.071 17.0368L61.0377 16.177C60.9703 14.4352 60.6303 13.2585 60.0359 12.7105C59.8145 12.5064 59.517 12.3777 59.2649 12.377C59.2023 12.3769 59.018 12.4163 58.8553 12.4646C58.6189 12.5348 58.4867 12.6259 58.1968 12.918C57.6578 13.4611 57.2662 14.3431 57.0216 15.5645C56.92 16.0713 56.8175 17.0495 56.8589 17.1164ZM71.8796 25.8174C71.2356 25.9153 69.9289 25.9119 69.0771 25.8102C67.9799 25.6791 66.3983 25.3036 66.154 25.1163C66.0722 25.0535 66.0574 24.8279 66.023 23.1098L65.9842 21.174L66.1393 21.115C66.4772 20.9865 66.4924 20.9977 66.7147 21.5392C67.5668 23.615 68.6133 24.5983 70.1 24.72C71.1941 24.8094 72.0293 24.3717 72.4469 23.4902C72.6067 23.1528 72.6212 23.0758 72.6212 22.5723C72.6211 22.0496 72.6118 22.0055 72.4308 21.6713C72.3036 21.4363 72.1329 21.2303 71.9157 21.0496C71.5462 20.7419 70.5711 20.2548 69.6266 19.906C68.4263 19.4627 67.7216 19.0487 67.1796 18.4685C66.5497 17.7942 66.2648 17.0224 66.26 15.9768C66.2565 15.2405 66.3608 14.7695 66.6623 14.1585C67.2297 13.0089 68.3155 12.1823 69.7801 11.7848C70.2843 11.648 70.384 11.64 71.6048 11.6386C72.6275 11.6375 73.0104 11.6582 73.4456 11.7383C74.0239 11.8448 74.9021 12.0837 75.2386 12.2262L75.4379 12.3106L75.4786 14.0226C75.5011 14.9642 75.5025 15.7516 75.4817 15.7723C75.4609 15.7931 75.3451 15.8393 75.2243 15.8749C75.0324 15.9316 75.0006 15.9283 74.9729 15.8484C74.7949 15.3337 74.4294 14.4995 74.2516 14.2024C73.6929 13.2686 73.0742 12.7636 72.2515 12.5696C71.5708 12.409 70.986 12.4841 70.5195 12.7921C69.9622 13.16 69.6702 13.7499 69.6643 14.5203C69.6605 15.031 69.7554 15.3254 70.0474 15.7083C70.4009 16.1719 71.264 16.688 72.7039 17.2969C74.6426 18.1167 75.4253 18.6973 75.8882 19.6592C76.2189 20.3462 76.3079 21.3735 76.117 22.2974C75.7216 24.2106 74.2142 25.4628 71.8796 25.8174ZM9.84124 25.2104H9.84129V25.5128H0.00527562V24.9173L0.281233 24.8582C0.433004 24.8256 0.726986 24.7709 0.934476 24.7367C1.68839 24.612 2.14491 24.2006 2.39015 23.4242C2.68831 22.4803 2.74733 21.5073 2.79002 16.8288C2.83036 12.4011 2.74315 10.0357 2.50088 8.98682C2.34493 8.31166 2.09727 7.88307 1.69454 7.59127C1.42886 7.3988 1.18703 7.32685 0.527244 7.24435L0.0326951 7.18252L0.0163754 6.83923L0 6.49594H15.3247L15.3564 7.33411C15.3738 7.79507 15.4004 8.98011 15.4154 9.96745L15.4427 11.7626L15.0539 11.8807C14.8401 11.9457 14.6596 11.9912 14.6529 11.9818C14.646 11.9724 14.5724 11.7668 14.4892 11.525C14.406 11.2831 14.2178 10.8315 14.0708 10.5213C13.417 9.14071 12.6346 8.34524 11.5471 7.95567L11.0776 7.78749L9.05996 7.77062L7.04237 7.7538L7.01506 7.88054C6.94258 8.2168 6.79724 15.4532 6.86103 15.549C6.89549 15.6008 7.17002 15.6035 8.08482 15.5612C8.73351 15.5311 9.37543 15.4809 9.51143 15.4495C10.0649 15.3218 10.5001 14.9289 10.8091 14.2781C11.0064 13.8625 11.2149 13.2035 11.2149 12.9953C11.2149 12.8794 11.2382 12.8714 11.572 12.8714H11.9292V19.2522L11.5938 19.2359L11.2583 19.2195L11.1306 18.7133C10.8409 17.565 10.2622 16.8263 9.51148 16.6465C9.24003 16.5816 6.91675 16.489 6.86466 16.5411C6.80724 16.5986 6.89576 20.3149 6.98473 21.5799C7.1099 23.3595 7.43246 24.1947 8.13021 24.5462C8.32633 24.645 9.54638 24.9081 9.80827 24.9081C9.8264 24.9081 9.84124 25.0441 9.84124 25.2104ZM35.1732 24.9175V25.5127H27.0898L27.1064 25.2241L27.123 24.9356L27.611 24.8403C27.8793 24.7879 28.1761 24.7004 28.2704 24.6458C28.5248 24.4986 28.7775 24.0843 28.8754 23.6542C29.0667 22.8129 29.1327 16.6507 28.9674 15.07C28.8406 13.8576 28.5403 13.4429 27.6899 13.3061C27.0714 13.2066 27.0956 13.2186 27.0956 13.0111C27.0956 12.9076 27.1176 12.8094 27.1444 12.7928C27.2093 12.7527 27.5877 12.673 30.3102 12.1265C31.5794 11.8717 32.6776 11.6492 32.7505 11.632L32.8829 11.6008L32.8453 13.1155C32.8152 14.3258 32.8217 14.6301 32.8777 14.6297C32.9162 14.6294 33.0662 14.4125 33.211 14.1475C34.0833 12.5517 35.2945 11.6448 36.6592 11.5656C37.1694 11.5361 37.565 11.5986 38.0211 11.7812C38.2342 11.8665 38.3072 11.9223 38.2893 11.9864C38.25 12.1277 36.9831 15.4764 36.9603 15.4991C36.949 15.5105 36.7586 15.4309 36.5372 15.3223C35.7659 14.9439 34.7797 14.8049 34.0082 14.9658C33.6282 15.045 33.0909 15.3004 32.9191 15.4834L32.7828 15.6284V18.7706C32.7828 22.7964 32.8642 23.79 33.238 24.3284C33.496 24.6999 33.7651 24.7986 34.7473 24.8815L35.1732 24.9175Z" fill="white"/>
</g>
<defs>
<clipPath id="clip0">
<rect width="76.2162" height="20" fill="white" transform="translate(0 6)"/>
</clipPath>
</defs>
</svg>
