<?xml version="1.0" encoding="utf-8"?>
<!-- Generator: Adobe Illustrator 25.0.1, SVG Export Plug-In . SVG Version: 6.00 Build 0)  -->
<svg version="1.1" id="Layer_1" xmlns="http://www.w3.org/2000/svg" xmlns:xlink="http://www.w3.org/1999/xlink" x="0px" y="0px"
	 viewBox="0 0 137 31" style="enable-background:new 0 0 137 31;" xml:space="preserve">
<style type="text/css">
	.st0{fill:#FFFFFF;}
</style>
<g>
	<path class="st0" d="M12.3,17c0.2-0.1,0.4-0.3,0.4-0.6c-0.1-0.3-0.3-0.4-0.6-0.4c-0.2,0-0.4,0.3-0.4,0.5c0,0,0,0,0,0
		C11.8,16.9,12,17,12.3,17 M21.8,15c0.2-0.1,0.4-0.3,0.4-0.6c-0.1-0.3-0.3-0.4-0.6-0.4c-0.2,0-0.4,0.3-0.4,0.5c0,0,0,0,0,0
		C21.3,14.9,21.6,15,21.8,15 M13.4,19.1c0.3-0.2,0.3-0.6,0.1-0.9c-0.2-0.3-0.6-0.3-0.9-0.1c-0.3,0.2-0.3,0.6-0.1,0.9c0,0,0,0,0,0
		C12.7,19.2,13.2,19.3,13.4,19.1 M21.2,13c0.3-0.2,0.3-0.6,0.1-0.9c-0.2-0.3-0.6-0.3-0.9-0.1c-0.3,0.2-0.3,0.6-0.1,0.9c0,0,0,0,0,0
		C20.5,13.1,21,13.2,21.2,13 M16,20.6c0.2-0.4,0-0.9-0.5-1.1c0,0,0,0,0,0c-0.5-0.2-1,0-1.2,0.5c-0.2,0.4,0.1,1,0.5,1.1
		C15.3,21.3,15.8,21,16,20.6 M19.5,11.1c0.2-0.4-0.1-1-0.5-1.1c0,0,0,0,0,0c-0.5-0.2-1,0.1-1.2,0.5c-0.2,0.4,0.1,1,0.5,1.1
		C18.9,11.8,19.4,11.6,19.5,11.1 M21.1,16.6c-0.1,0.4,0.1,0.7,0.5,0.8c0.3,0.1,0.7-0.1,0.8-0.5c0.1-0.3-0.1-0.7-0.5-0.8c0,0,0,0,0,0
		C21.6,16.1,21.2,16.3,21.1,16.6C21.1,16.6,21.1,16.6,21.1,16.6 M19.8,18.4c-0.4,0.4-0.4,1,0,1.4c0.4,0.4,1,0.4,1.3,0
		c0.4-0.4,0.4-1,0-1.4C20.8,18.1,20.2,18.1,19.8,18.4 M17.8,19.5c-0.5,0.1-0.9,0.7-0.7,1.2c0.1,0.5,0.7,0.9,1.2,0.8
		c0.5-0.1,0.9-0.7,0.8-1.2C18.9,19.7,18.4,19.4,17.8,19.5 M11.5,14.1c-0.1,0.4,0.1,0.7,0.5,0.8c0.3,0.1,0.7-0.1,0.8-0.5
		s-0.1-0.7-0.5-0.8C12,13.5,11.6,13.7,11.5,14.1 M12.7,11.3c-0.4,0.4-0.4,1,0,1.3c0.4,0.4,1,0.4,1.4,0c0,0,0,0,0,0
		c0.4-0.4,0.4-1,0-1.4C13.7,10.9,13.1,10.9,12.7,11.3 M15.6,9.6c-0.5,0.1-0.9,0.6-0.8,1.2c0.1,0.5,0.7,0.9,1.2,0.8
		c0.5-0.1,0.9-0.6,0.8-1.2C16.7,9.8,16.2,9.5,15.6,9.6 M22,21.6c0.3,0.3,0.7,0.3,1,0c0.3-0.2,0.3-0.7,0-0.9c0,0,0,0,0,0
		c-0.3-0.3-0.7-0.3-1,0c0,0,0,0,0,0C21.8,20.9,21.7,21.4,22,21.6 M10.8,10.4c0.3,0.3,0.7,0.3,1,0c0.3-0.3,0.3-0.7,0-1
		c-0.3-0.3-0.7-0.3-1,0C10.6,9.6,10.6,10.1,10.8,10.4 M24,19.2c0.4,0.2,0.8,0,0.9-0.4c0.1-0.4,0-0.8-0.4-0.9c-0.3-0.2-0.7,0-0.9,0.3
		c0,0,0,0,0,0C23.5,18.6,23.6,19,24,19.2C24,19.2,24,19.2,24,19.2 M25,16.5c0.5,0,0.8-0.4,0.8-0.8c0,0,0,0,0,0
		c0-0.5-0.4-0.8-0.8-0.8c0,0,0,0,0,0c-0.5,0-0.8,0.4-0.9,0.8C24.1,16.1,24.5,16.4,25,16.5 M24.9,13.5c0.5-0.2,0.8-0.8,0.6-1.4
		c0,0,0,0,0,0c-0.2-0.5-0.8-0.8-1.4-0.6c-0.6,0.2-0.8,0.8-0.6,1.4C23.8,13.5,24.4,13.7,24.9,13.5 M9.3,13.1c0.4,0.1,0.8,0,0.9-0.4
		c0.1-0.4,0-0.8-0.4-0.9c-0.4-0.1-0.8,0-0.9,0.4c0,0,0,0,0,0C8.8,12.5,9,12.9,9.3,13.1 M8.8,16.2c0.5,0,0.8-0.4,0.8-0.8
		c0-0.5-0.4-0.8-0.8-0.8c-0.5,0-0.8,0.3-0.9,0.8c0,0,0,0,0,0C8,15.8,8.4,16.2,8.8,16.2C8.8,16.2,8.8,16.2,8.8,16.2 M9.7,19.5
		c0.6-0.2,0.8-0.8,0.6-1.4c0,0,0,0,0,0c-0.2-0.5-0.8-0.8-1.3-0.6c0,0,0,0,0,0c-0.5,0.2-0.8,0.8-0.6,1.4c0,0,0,0,0,0
		C8.5,19.4,9.1,19.7,9.7,19.5 M19.6,22.2c-0.4,0.2-0.6,0.6-0.4,1c0,0,0,0,0,0c0.2,0.4,0.6,0.6,1,0.4c0.4-0.2,0.6-0.6,0.4-1
		c0,0,0,0,0,0C20.5,22.2,20.1,22,19.6,22.2C19.7,22.1,19.7,22.1,19.6,22.2 M16.9,22.5c-0.6,0-1,0.5-1,1c0,0.6,0.5,1,1,1
		c0.6,0,1-0.5,1-1C17.9,23,17.5,22.6,16.9,22.5 M14.3,22c-0.6-0.2-1.3,0.1-1.5,0.6c-0.2,0.6,0.1,1.3,0.7,1.5c0.6,0.2,1.2,0,1.5-0.6
		c0,0,0,0,0,0C15.2,22.9,14.9,22.3,14.3,22 M12,20.4c-0.5-0.5-1.3-0.5-1.8,0c0,0,0,0,0,0c-0.5,0.5-0.5,1.3,0,1.8c0,0,0,0,0,0
		c0.5,0.5,1.3,0.5,1.8,0C12.5,21.7,12.5,20.9,12,20.4C12,20.4,12,20.4,12,20.4 M13.6,7.4c-0.4,0.2-0.6,0.6-0.4,1
		c0.2,0.4,0.6,0.6,1,0.4c0.4-0.2,0.6-0.6,0.4-1C14.4,7.5,14,7.3,13.6,7.4C13.6,7.4,13.6,7.4,13.6,7.4 M16.9,6.4c-0.6,0-1,0.5-1,1
		c0,0.5,0.4,1,1,1c0.5,0,1-0.4,1-1c0,0,0,0,0,0C18,6.9,17.5,6.4,16.9,6.4 M20.4,6.8c-0.6-0.2-1.3,0-1.5,0.6C18.7,8,19,8.7,19.5,9
		c0.6,0.2,1.3,0,1.5-0.6c0,0,0,0,0,0C21.3,7.7,21,7.1,20.4,6.8C20.4,6.8,20.4,6.8,20.4,6.8 M23.6,8.8c-0.5-0.5-1.3-0.5-1.8,0
		c-0.5,0.5-0.5,1.3,0,1.8c0.5,0.5,1.3,0.5,1.8,0c0,0,0,0,0,0C24.1,10.1,24.1,9.3,23.6,8.8 M23.8,24.5c0.2,0.3,0.6,0.3,0.9,0.1
		c0,0,0,0,0,0c0.3-0.2,0.3-0.6,0.1-0.8c0,0,0,0,0,0c-0.2-0.3-0.6-0.3-0.9-0.1C23.6,23.8,23.6,24.2,23.8,24.5L23.8,24.5 M25.6,22.8
		c0.3,0.2,0.7,0.2,1-0.1c0,0,0,0,0,0c0.2-0.3,0.2-0.7-0.1-1c-0.3-0.2-0.8-0.2-1,0.1C25.2,22.1,25.3,22.6,25.6,22.8L25.6,22.8
		 M27.2,20.5c0.4,0.2,0.9,0,1.1-0.4c0,0,0,0,0,0c0.2-0.4,0-0.9-0.5-1.1c0,0,0,0,0,0c-0.4-0.2-0.9,0-1.1,0.5c0,0,0,0,0,0
		C26.6,19.9,26.8,20.3,27.2,20.5 M28.3,17.6c0.5,0.1,0.9-0.3,1-0.8s-0.3-0.9-0.8-1l0,0c-0.5-0.1-0.9,0.3-1,0.8
		C27.5,17.1,27.8,17.5,28.3,17.6 M28.5,14.5c0.6-0.1,1-0.7,0.9-1.3c-0.1-0.6-0.7-1-1.3-0.9c-0.6,0.1-1,0.7-0.9,1.3
		C27.4,14.2,28,14.6,28.5,14.5C28.5,14.5,28.5,14.5,28.5,14.5 M9.1,7.3C9.4,7.5,9.8,7.6,10,7.4c0.3-0.2,0.3-0.6,0.1-0.9
		C9.9,6.2,9.5,6.2,9.2,6.4C9,6.6,8.9,7,9.1,7.3 M7.4,9.3c0.3,0.2,0.8,0.2,1-0.2c0.2-0.3,0.2-0.7-0.1-1c0,0,0,0,0,0
		C7.9,7.9,7.5,8,7.3,8.3c0,0,0,0,0,0C7,8.6,7.1,9.1,7.4,9.3C7.4,9.3,7.4,9.3,7.4,9.3 M6,12c0.4,0.2,0.9,0,1.1-0.5
		c0.2-0.4,0-0.9-0.5-1.1c-0.4-0.2-0.9,0-1.1,0.5C5.4,11.3,5.6,11.8,6,12 M5.3,15.2c0.5,0.1,0.9-0.3,1-0.8c0-0.5-0.3-0.9-0.8-1
		c-0.5,0-0.9,0.3-1,0.8C4.5,14.7,4.9,15.1,5.3,15.2C5.3,15.1,5.3,15.1,5.3,15.2 M5.7,18.6c0.6-0.1,1-0.7,0.9-1.2
		c-0.1-0.6-0.6-1-1.2-0.9c0,0,0,0,0,0c-0.6,0.1-1,0.7-0.9,1.2C4.6,18.3,5.1,18.7,5.7,18.6 M22.1,24.9c-0.3,0.1-0.3,0.5-0.2,0.7
		c0.1,0.3,0.5,0.3,0.7,0.2l0,0c0.2-0.2,0.3-0.5,0.2-0.7C22.6,24.9,22.3,24.8,22.1,24.9 M20,25.7c-0.3,0.1-0.5,0.4-0.4,0.8
		c0.1,0.3,0.4,0.5,0.8,0.4c0.3-0.1,0.5-0.4,0.4-0.8C20.7,25.8,20.3,25.6,20,25.7 M17.6,26.1c-0.4,0-0.7,0.3-0.7,0.7c0,0,0,0,0,0
		c0,0.4,0.4,0.7,0.8,0.6c0.4,0,0.6-0.4,0.6-0.7C18.3,26.4,18,26.1,17.6,26.1 M14.9,25.8c-0.5-0.1-1,0.2-1.1,0.7
		c-0.1,0.5,0.2,1,0.7,1.1c0.5,0.1,1-0.2,1.1-0.7c0,0,0,0,0,0C15.7,26.4,15.4,25.9,14.9,25.8 M12.2,24.8c-0.5-0.3-1.2,0-1.4,0.5
		c-0.3,0.5-0.1,1.2,0.5,1.4c0.5,0.3,1.2,0,1.5-0.5C12.9,25.7,12.7,25.1,12.2,24.8 M9.9,23c-0.5-0.5-1.3-0.4-1.8,0.1
		c-0.5,0.5-0.4,1.3,0.1,1.8c0.5,0.5,1.3,0.5,1.8-0.1C10.4,24.3,10.4,23.5,9.9,23C9.9,23,9.9,23,9.9,23 M8,20.4
		c-0.4-0.7-1.2-0.9-1.9-0.5c-0.7,0.4-0.9,1.2-0.5,1.9c0.4,0.7,1.2,0.9,1.9,0.6C8.1,21.8,8.3,21,8,20.4 M11.3,5.1
		C11,5.3,11,5.6,11.1,5.8C11.2,6,11.5,6.1,11.8,6C12,5.9,12.1,5.6,12,5.3C11.8,5.1,11.5,5,11.3,5.1 M13.5,4.1
		c-0.3,0.1-0.5,0.4-0.4,0.8c0.1,0.3,0.4,0.5,0.8,0.4c0.3-0.1,0.5-0.4,0.4-0.8C14.2,4.2,13.8,4,13.5,4.1C13.5,4.1,13.5,4.1,13.5,4.1
		 M16.2,3.5c-0.4,0-0.7,0.4-0.7,0.7c0,0.4,0.4,0.7,0.8,0.7c0.4,0,0.7-0.4,0.7-0.8c0,0,0,0,0,0C16.9,3.7,16.5,3.4,16.2,3.5 M19.3,3.4
		c-0.5-0.1-1,0.2-1.1,0.7c0,0,0,0,0,0c-0.1,0.5,0.2,1,0.7,1.1c0.5,0.1,1-0.2,1.1-0.7C20.1,3.9,19.8,3.5,19.3,3.4 M22.5,4.1
		c-0.5-0.3-1.2,0-1.4,0.5c0,0,0,0,0,0c-0.3,0.5,0,1.2,0.5,1.4s1.2,0,1.4-0.5l0,0C23.3,5.1,23.1,4.4,22.5,4.1
		C22.5,4.1,22.5,4.1,22.5,4.1 M25.7,6.1c-0.5-0.5-1.3-0.5-1.8,0c0,0,0,0,0,0c-0.5,0.5-0.4,1.3,0.1,1.8c0.5,0.5,1.3,0.4,1.8-0.1
		C26.3,7.4,26.2,6.6,25.7,6.1L25.7,6.1 M28.3,9.3c-0.4-0.7-1.2-0.9-1.9-0.6c-0.7,0.4-0.9,1.2-0.5,1.9c0.4,0.7,1.2,0.9,1.9,0.6
		C28.4,10.8,28.6,10,28.3,9.3 M19.2,30.1c0.1,0.4,0.5,0.7,0.9,0.6s0.7-0.5,0.6-0.9c-0.1-0.4-0.5-0.7-0.9-0.6
		C19.4,29.3,19.1,29.7,19.2,30.1 M22.3,29.3c0.2,0.5,0.8,0.7,1.2,0.5c0.5-0.2,0.7-0.8,0.4-1.2c-0.2-0.5-0.8-0.7-1.2-0.4c0,0,0,0,0,0
		C22.3,28.3,22.1,28.9,22.3,29.3 M25.6,27.8c0.4,0.5,1.1,0.6,1.6,0.1c0.5-0.4,0.6-1.1,0.2-1.6c0,0,0,0,0,0c-0.4-0.5-1.1-0.5-1.6-0.2
		c0,0,0,0,0,0C25.3,26.6,25.2,27.3,25.6,27.8 M28.6,25.1c0.6,0.4,1.4,0.3,1.8-0.3c0.4-0.6,0.3-1.4-0.3-1.8s-1.4-0.3-1.8,0.3l0,0
		C27.9,23.9,28,24.7,28.6,25.1 M30.9,21.7c0.8,0.3,1.7-0.2,2-1c0.3-0.8-0.2-1.7-1-2c-0.8-0.3-1.7,0.2-2,1c0,0,0,0,0,0
		C29.6,20.6,30.1,21.5,30.9,21.7C30.9,21.7,30.9,21.7,30.9,21.7 M13.1,1.2c0.1,0.4,0.5,0.7,0.9,0.6c0,0,0,0,0,0
		c0.4-0.1,0.7-0.5,0.6-0.9c0,0,0,0,0,0c-0.1-0.4-0.5-0.7-1-0.6C13.3,0.4,13.1,0.8,13.1,1.2 M9.8,2.4c0.2,0.5,0.8,0.7,1.2,0.4
		c0,0,0,0,0,0c0.5-0.2,0.7-0.8,0.5-1.2c0,0,0,0,0,0c-0.2-0.5-0.8-0.7-1.2-0.5C9.8,1.4,9.6,1.9,9.8,2.4 M6.5,4.6
		c0.4,0.5,1.1,0.6,1.6,0.1c0.5-0.4,0.6-1.1,0.2-1.6c0,0,0,0,0,0C7.9,2.7,7.2,2.6,6.7,3c0,0,0,0,0,0C6.2,3.4,6.1,4.2,6.5,4.6
		C6.5,4.6,6.5,4.6,6.5,4.6 M3.7,8c0.6,0.4,1.4,0.3,1.8-0.3C6,7,5.8,6.2,5.2,5.8C4.6,5.4,3.8,5.6,3.4,6.1C3,6.7,3.1,7.6,3.7,8
		 M2,12.2c0.8,0.3,1.7-0.2,2-1c0.3-0.8-0.2-1.7-1-2l0,0c-0.8-0.3-1.7,0.2-2,1C0.8,11,1.2,11.9,2,12.2 M16.9,29.6
		c-0.4,0-0.7,0.3-0.7,0.7c0,0.4,0.3,0.6,0.7,0.7c0.4,0,0.7-0.3,0.7-0.7C17.6,29.9,17.3,29.6,16.9,29.6 M14.1,29.2
		c-0.4-0.1-0.8,0.2-0.9,0.6c-0.1,0.4,0.2,0.8,0.6,0.9c0.4,0.1,0.8-0.2,0.9-0.6C14.8,29.7,14.5,29.3,14.1,29.2 M11.1,28.1
		c-0.5-0.2-1,0-1.2,0.4c0,0,0,0,0,0c-0.2,0.5,0,1,0.4,1.2c0.4,0.2,1,0.1,1.2-0.4C11.8,29,11.6,28.4,11.1,28.1
		C11.1,28.1,11.1,28.1,11.1,28.1 M8.1,26.2c-0.5-0.4-1.2-0.3-1.6,0.1c-0.4,0.5-0.3,1.2,0.1,1.6c0,0,0,0,0,0c0.5,0.4,1.2,0.3,1.6-0.1
		c0,0,0,0,0,0C8.7,27.3,8.6,26.6,8.1,26.2 M5.6,23.3c-0.4-0.6-1.2-0.7-1.8-0.3c-0.6,0.4-0.8,1.2-0.3,1.8c0.4,0.6,1.2,0.7,1.8,0.3
		C5.8,24.7,6,23.9,5.6,23.3C5.6,23.3,5.6,23.3,5.6,23.3 M4,19.8c-0.3-0.8-1.1-1.3-2-1c-0.8,0.3-1.3,1.1-1,2c0.3,0.8,1.1,1.3,2,1
		c0,0,0,0,0,0C3.8,21.5,4.2,20.6,4,19.8 M3.6,15.5c0-1-0.9-1.8-1.9-1.7c-0.9,0-1.7,0.8-1.7,1.7c0,1,0.8,1.8,1.8,1.8
		C2.8,17.3,3.6,16.5,3.6,15.5C3.6,15.5,3.6,15.5,3.6,15.5 M16.9,0c-0.4,0-0.7,0.3-0.7,0.7c0,0,0,0,0,0c0,0.4,0.3,0.7,0.7,0.7
		c0.4,0,0.7-0.3,0.7-0.7S17.3,0,16.9,0C16.9,0,16.9,0,16.9,0 M20.1,0.2c-0.4-0.1-0.8,0.2-0.9,0.6s0.2,0.8,0.6,0.9
		c0.4,0.1,0.8-0.2,0.9-0.6c0,0,0,0,0,0C20.8,0.8,20.6,0.3,20.1,0.2C20.1,0.2,20.1,0.2,20.1,0.2 M23.6,1.2c-0.5-0.2-1,0-1.2,0.4
		c-0.2,0.5,0,1,0.4,1.2c0.5,0.2,1,0,1.2-0.4c0,0,0,0,0,0C24.2,1.9,24,1.4,23.6,1.2C23.6,1.2,23.6,1.2,23.6,1.2 M27.2,3
		c-0.5-0.4-1.2-0.3-1.6,0.1c0,0,0,0,0,0c-0.4,0.5-0.3,1.2,0.1,1.6c0,0,0,0,0,0c0.5,0.4,1.2,0.3,1.6-0.1c0,0,0,0,0,0
		C27.7,4.2,27.7,3.4,27.2,3 M30.5,6.1c-0.4-0.6-1.2-0.7-1.8-0.3c-0.6,0.4-0.7,1.2-0.3,1.8c0.4,0.6,1.2,0.7,1.8,0.3
		C30.7,7.6,30.9,6.7,30.5,6.1 M32.8,10.2c-0.3-0.8-1.2-1.2-2-1c-0.8,0.3-1.2,1.1-1,1.9c0.3,0.8,1.1,1.2,2,1
		C32.7,11.9,33.1,11,32.8,10.2 M33.9,15.5c0-1-0.8-1.8-1.8-1.8c-1,0-1.8,0.8-1.8,1.8c0,1,0.8,1.8,1.8,1.8
		C33.1,17.3,33.9,16.5,33.9,15.5"/>
	<path class="st0" d="M100.7,18.8c0,1.7,0.1,1.8,1.6,1.8h5.1c0.2,0,0.4,0.2,0.4,0.4v1.3c0,0.3-0.1,0.4-0.4,0.4
		c-0.7,0.1-2,0.3-4.4,0.3c-3.4,0-5.2,0-5.2-4.2v-6.4c0-4.2,1.8-4.2,5.2-4.2c2.4,0,3.7,0.2,4.4,0.3c0.3,0,0.4,0.1,0.4,0.4v1.3
		c0,0.2-0.2,0.4-0.4,0.4h-5.1c-1.5,0-1.6,0-1.6,1.7v1.9h6.5c0.2,0,0.4,0.2,0.4,0.4v1.5c0,0.2-0.2,0.4-0.4,0.4h-6.5
		C100.7,16.5,100.7,18.8,100.7,18.8z M130.7,22.9c-1.8,0-3.6-0.3-4.6-0.5c-0.2,0-0.4-0.2-0.4-0.4v-1.5c0-0.2,0.2-0.4,0.4-0.4h0
		c0.8,0.1,2.7,0.4,4.6,0.4c1.8,0,2.4-0.6,2.4-1.8c0-1.5-3.6-2.4-5.4-3.1c-1.8-0.7-2.4-2.1-2.4-3.6c0-2.2,1.8-3.9,5.6-3.9
		c1.9,0,3.7,0.4,4.4,0.5c0.2,0,0.4,0.2,0.4,0.4v1.5c0,0.2-0.1,0.4-0.3,0.4h0c-1.3-0.1-2.7-0.4-4.5-0.4c-1.5,0-2.6,0.5-2.6,1.4
		c0,0.7,0.8,1.3,1.7,1.6c0.9,0.4,2.1,0.8,3.4,1.4c1.7,0.7,2.8,1.7,2.8,3.7C136,20.7,134.8,22.9,130.7,22.9L130.7,22.9z M119.9,12.8
		c0-1.5-1.2-2.2-3.2-2.2c-0.4,0-2.3,0-2.6,0.1v4.4c0.3,0,2.3,0.1,2.6,0.1c2.1,0,3.2-0.4,3.2-2.2C119.9,12.9,119.9,12.8,119.9,12.8z
		 M122.9,22.8h-2.5c-0.2,0-0.3-0.2-0.4-0.4l-2.9-4.9h-0.5c-0.5,0-2.2-0.1-2.6-0.1v5c0,0.2-0.2,0.4-0.4,0.4h-2
		c-0.2,0-0.4-0.2-0.4-0.4V9c0-0.4,0.2-0.6,0.6-0.6c1.1-0.2,3.3-0.3,4.8-0.3c3.1,0,6,1.1,6,4.6v0.2c0,2.2-1.1,3.3-2.7,4l3.2,5.4
		c0,0.1,0,0.1,0,0.2C123.2,22.7,123.1,22.8,122.9,22.8z M95.4,10.7h-4v11.7c0,0.2-0.2,0.4-0.4,0.4h-2c-0.2,0-0.4-0.2-0.4-0.4V10.7
		h-4.1c-0.2,0-0.4-0.1-0.4-0.4V8.6c0-0.2,0.2-0.4,0.4-0.4h10.9c0.2,0,0.4,0.2,0.4,0.4v1.7C95.8,10.5,95.6,10.7,95.4,10.7z M76,22.9
		c-3.3,0-6.1-1.4-6.1-5.8V8.6c0-0.2,0.2-0.4,0.4-0.4h2c0.2,0,0.4,0.2,0.4,0.4v8.6c0,2.3,1.1,3.4,3.3,3.4c2.2,0,3.3-1.1,3.3-3.4V8.6
		c0-0.2,0.2-0.4,0.4-0.4h2c0.2,0,0.4,0.2,0.4,0.4v8.6C82.1,21.5,79.3,22.9,76,22.9L76,22.9z M59.7,18.8c0,1.7,0.1,1.8,1.6,1.8h5.1
		c0.2,0,0.4,0.2,0.4,0.4v1.3c0,0.3-0.1,0.4-0.4,0.4c-0.6,0.1-2,0.3-4.4,0.3c-3.4,0-5.2,0-5.2-4.2v-6.4c0-4.2,1.8-4.2,5.2-4.2
		c2.4,0,3.7,0.2,4.4,0.3c0.3,0,0.4,0,0.4,0.3v1.3c0,0.2-0.2,0.4-0.4,0.4h-5.1c-1.5,0-1.6,0-1.6,1.7v1.7h6.5c0.2,0,0.4,0.2,0.4,0.4
		v1.6c0,0.2-0.2,0.4-0.4,0.4h-6.5C59.7,16.5,59.7,18.8,59.7,18.8z M51,12.8c0-1.5-1.2-2.2-3.2-2.2c-0.4,0-2.3,0-2.6,0.1v4.4
		c0.3,0,2.3,0.1,2.6,0.1c2.1,0,3.2-0.4,3.2-2.2V12.8L51,12.8z M54.1,22.8h-2.5c-0.2,0-0.3-0.2-0.4-0.4l-2.9-4.9h-0.4
		c-0.5,0-2.2-0.1-2.6-0.1v5c0,0.2-0.2,0.4-0.4,0.4h-2c-0.2,0-0.4-0.2-0.4-0.4V9c0-0.4,0.2-0.6,0.6-0.6c1.1-0.2,3.3-0.3,4.8-0.3
		c3.1,0,6,1.1,6,4.6v0.2c0,2.2-1.1,3.3-2.7,4l3.2,5.4c0,0.1,0,0.1,0,0.2C54.3,22.7,54.2,22.8,54.1,22.8L54.1,22.8z"/>
</g>
</svg>
