<svg width="167" height="52" viewBox="0 0 167 52" fill="none" xmlns="http://www.w3.org/2000/svg">
<path d="M58.8271 51.1159L67.2846 1.02026H80.807L72.3495 51.1159H58.8271Z" fill="white"/>
<path d="M121.393 2.24832C117.509 0.82914 113.407 0.117526 109.277 0.146609C95.9158 0.146609 86.47 6.94119 86.4225 16.682C86.3465 23.8796 93.141 27.8911 98.2724 30.2903C103.404 32.6896 105.304 34.3114 105.276 36.4995C105.276 39.8584 101.076 41.3939 97.1891 41.3939C92.8003 41.5245 88.4413 40.6244 84.4555 38.7644L82.7165 37.9678L80.8159 49.1866C83.9803 50.5781 89.815 51.7969 95.8777 51.8545C110.132 51.8545 119.321 45.1367 119.426 34.7433C119.483 29.0427 115.871 24.705 108.079 21.1253C103.328 18.8125 100.477 17.2866 100.477 14.9162C100.477 12.8337 102.929 10.6072 108.222 10.6072C111.691 10.5297 115.137 11.1834 118.342 12.5266L119.549 13.1024L121.383 2.24832" fill="white"/>
<path d="M156.063 1.052H145.61C142.379 1.052 139.908 1.94451 138.53 5.20744L118.451 51.1188H132.648C132.648 51.1188 134.967 44.948 135.499 43.5949H152.813C153.222 45.3511 154.457 51.0996 154.457 51.0996H167.001L156.063 1.052ZM139.386 33.3454C140.507 30.4664 144.774 19.3436 144.774 19.3436C144.774 19.3436 145.886 16.4646 146.57 14.5452L147.52 18.8638L150.646 33.3262L139.386 33.3454Z" fill="white"/>
<path d="M47.491 1.052L34.2537 35.2168L32.8378 28.2783C30.3766 20.2457 22.6794 11.6085 14.127 7.26117L26.2334 51.0708H40.5255L61.8117 1.052H47.491Z" fill="white"/>
<path d="M21.9703 1.05133H0.171049L0 2.09738C16.9814 6.21443 28.1851 16.2336 32.8414 28.2776L28.0901 5.24516C27.2728 2.0686 24.8972 1.1281 21.9608 1.01294" fill="white"/>
</svg>
