<?xml version="1.0" encoding="UTF-8"?> <!-- Generator: Adobe Illustrator 23.0.3, SVG Export Plug-In . SVG Version: 6.00 Build 0) --> <svg xmlns="http://www.w3.org/2000/svg" xmlns:xlink="http://www.w3.org/1999/xlink" version="1.1" id="Layer_1" x="0px" y="0px" viewBox="0 0 126 79" style="enable-background:new 0 0 126 79;" xml:space="preserve"> <style type="text/css"> .st0{fill:#F9F9F9;} .st1{fill:#EC1C2E;} .st2{fill:#0084C4;} .st3{fill:#FFFFFF;} .st4{fill:none;stroke:#FFFFFF;stroke-width:0.215;} </style> <path class="st0" d="M121,79H5c-2.8,0-5-2.3-5-5V5c0-2.8,2.3-5,5-5h116c2.8,0,5,2.3,5,5v69C126,76.8,123.8,79,121,79z"></path> <g> <g> <polygon class="st1" points="78.1,62.4 79.3,62.3 80.5,62.2 81.6,62.1 82.7,61.9 83.8,61.6 84.9,61.3 85.9,61 86.9,60.6 87.9,60.1 88.9,59.6 89.8,59.1 90.8,58.5 91.6,57.9 92.5,57.2 93.3,56.5 94.1,55.7 94.8,55 95.5,54.1 96.2,53.3 96.9,52.4 97.4,51.5 98,50.5 98.5,49.6 98.9,48.6 99.3,47.5 99.7,46.5 100,45.4 100.2,44.3 100.4,43.2 100.6,42.1 100.7,41 100.7,39.8 100.7,38.6 100.6,37.5 100.4,36.4 100.2,35.3 100,34.2 99.7,33.1 99.3,32.1 98.9,31.1 98.5,30.1 98,29.1 97.4,28.2 96.9,27.2 96.2,26.4 95.5,25.5 94.8,24.7 94.1,23.9 93.3,23.2 92.5,22.5 91.6,21.8 90.8,21.2 89.8,20.6 88.9,20 87.9,19.5 86.9,19.1 85.9,18.7 84.9,18.3 83.8,18 82.7,17.8 81.6,17.6 80.5,17.4 79.3,17.4 78.1,17.3 77,17.4 75.8,17.4 74.7,17.6 73.6,17.8 72.5,18 71.4,18.3 70.4,18.7 69.4,19.1 68.4,19.5 67.4,20 66.5,20.6 65.6,21.2 64.7,21.8 63.8,22.5 63,23.2 62.2,23.9 61.5,24.7 60.8,25.5 60.1,26.4 59.5,27.2 58.9,28.2 58.4,29.1 57.9,30.1 57.4,31.1 57,32.1 56.6,33.1 56.4,34.2 56.1,35.3 55.9,36.4 55.8,37.5 55.7,38.6 55.6,39.8 55.7,41 55.8,42.1 55.9,43.2 56.1,44.3 56.4,45.4 56.6,46.5 57,47.5 57.4,48.6 57.9,49.6 58.4,50.5 58.9,51.5 59.5,52.4 60.1,53.3 60.8,54.1 61.5,55 62.2,55.7 63,56.5 63.8,57.2 64.7,57.9 65.6,58.5 66.5,59.1 67.4,59.6 68.4,60.1 69.4,60.6 70.4,61 71.4,61.3 72.5,61.6 73.6,61.9 74.7,62.1 75.8,62.2 77,62.3 "></polygon> <polygon class="st2" points="48.3,62.4 49.5,62.3 50.6,62.2 51.7,62.1 52.8,61.9 53.9,61.6 55,61.3 56,61 57.1,60.6 58.1,60.1 59,59.6 60,59.1 60.9,58.5 61.8,57.9 62.6,57.2 63.4,56.5 64.2,55.7 65,55 65.7,54.1 66.3,53.3 67,52.4 67.5,51.5 68.1,50.5 68.6,49.6 69,48.6 69.4,47.5 69.8,46.5 70.1,45.4 70.3,44.3 70.5,43.2 70.7,42.1 70.8,41 70.8,39.8 70.8,38.6 70.7,37.5 70.5,36.4 70.3,35.3 70.1,34.2 69.8,33.1 69.4,32.1 69,31.1 68.6,30.1 68.1,29.1 67.5,28.2 67,27.2 66.3,26.4 65.7,25.5 65,24.7 64.2,23.9 63.4,23.2 62.6,22.5 61.8,21.8 60.9,21.2 60,20.6 59,20 58.1,19.5 57.1,19.1 56,18.7 55,18.3 53.9,18 52.8,17.8 51.7,17.6 50.6,17.4 49.5,17.4 48.3,17.3 47.1,17.4 46,17.4 44.9,17.6 43.7,17.8 42.7,18 41.6,18.3 40.5,18.7 39.5,19.1 38.5,19.5 37.5,20 36.6,20.6 35.7,21.2 34.8,21.8 33.9,22.5 33.1,23.2 32.3,23.9 31.6,24.7 30.9,25.5 30.2,26.4 29.6,27.2 29,28.2 28.5,29.1 28,30.1 27.5,31.1 27.1,32.1 26.8,33.1 26.5,34.2 26.2,35.3 26,36.4 25.9,37.5 25.8,38.6 25.7,39.8 25.8,41 25.9,42.1 26,43.2 26.2,44.3 26.5,45.4 26.8,46.5 27.1,47.5 27.5,48.6 28,49.6 28.5,50.5 29,51.5 29.6,52.4 30.2,53.3 30.9,54.1 31.6,55 32.3,55.7 33.1,56.5 33.9,57.2 34.8,57.9 35.7,58.5 36.6,59.1 37.5,59.6 38.5,60.1 39.5,60.6 40.5,61 41.6,61.3 42.7,61.6 43.7,61.9 44.9,62.1 46,62.2 47.1,62.3 "></polygon> <polygon class="st1" points="60.4,25.9 71.9,25.9 71.9,24.6 61.5,24.6 "></polygon> <polygon class="st1" points="58.7,28.6 71.9,28.6 71.9,27.3 59.5,27.3 "></polygon> <polygon class="st1" points="57.3,31.3 71.9,31.3 71.9,30 57.9,30 "></polygon> <polygon class="st1" points="56.4,33.9 71.9,33.9 71.9,32.7 56.8,32.7 "></polygon> <polygon class="st1" points="55.9,36.6 71.9,36.6 71.9,35.3 56.1,35.3 "></polygon> <polygon class="st1" points="55.8,41.8 71.9,41.8 71.9,40.5 55.6,40.5 "></polygon> <polygon class="st1" points="56.1,44.6 71.9,44.6 71.9,43.3 55.9,43.3 "></polygon> <polygon class="st1" points="56.9,46.9 71.9,46.9 71.9,45.6 56.5,45.6 "></polygon> <polygon class="st1" points="58,49.7 71.9,49.7 71.9,48.4 57.4,48.4 "></polygon> <polygon class="st1" points="59.6,52.5 71.9,52.5 71.9,51.2 58.8,51.2 "></polygon> <polygon class="st1" points="61.7,55.2 71.7,55.2 71.7,53.9 60.6,53.9 "></polygon> <g> <g> <polygon class="st1" points="97,53.6 97.1,53.4 97.2,53.2 97.3,53.1 97.5,52.9 97.7,52.8 97.9,52.8 98.1,52.7 98.3,52.8 98.5,52.8 98.7,52.9 98.8,53.1 99,53.2 99.1,53.4 99.2,53.6 98.9,53.6 98.9,53.5 98.8,53.3 98.7,53.2 98.6,53.1 98.4,53 98.2,53 98.1,52.9 97.9,53 97.7,53 97.6,53.1 97.4,53.2 97.3,53.3 97.3,53.5 97.2,53.6 "></polygon> <polygon class="st1" points="97.7,53.6 97.7,53.4 98.1,53.4 98.2,53.4 98.3,53.4 98.4,53.4 98.4,53.4 98.5,53.5 98.5,53.5 98.5,53.6 98.5,53.6 98.3,53.6 98.3,53.6 98.3,53.6 98.3,53.6 98.3,53.5 98.3,53.5 98.2,53.5 98.2,53.5 98.2,53.5 98.1,53.5 97.9,53.5 97.9,53.6 "></polygon> <polygon class="st1" points="97,53.8 97,53.6 97,53.6 97.2,53.6 97.2,53.7 97.2,53.8 "></polygon> <polygon class="st1" points="97.7,53.8 97.7,53.6 97.9,53.6 97.9,53.8 98.1,53.8 98.1,53.8 98.2,53.8 98.2,53.8 98.3,53.8 98.3,53.7 98.3,53.7 98.3,53.7 98.3,53.6 98.5,53.6 98.5,53.6 98.5,53.7 98.5,53.7 98.5,53.8 98.5,53.8 "></polygon> <polygon class="st1" points="98.9,53.8 98.9,53.7 98.9,53.6 99.2,53.6 99.2,53.6 99.2,53.8 "></polygon> <polygon class="st1" points="97,53.8 97,53.8 97,54.1 97.1,54.3 97.2,54.5 97.3,54.6 97.5,54.7 97.7,54.8 97.9,54.9 98.1,54.9 98.3,54.9 98.5,54.8 98.7,54.7 98.8,54.6 99,54.5 99.1,54.3 99.2,54.1 99.2,53.8 99.2,53.8 98.9,53.8 98.9,53.8 98.9,54 98.9,54.2 98.8,54.4 98.7,54.5 98.6,54.6 98.4,54.7 98.2,54.8 98.1,54.8 97.9,54.8 97.7,54.7 97.6,54.6 97.4,54.5 97.3,54.4 97.3,54.2 97.2,54 97.2,53.8 97.2,53.8 "></polygon> <polygon class="st1" points="97.7,53.8 97.7,54.3 97.9,54.3 97.9,53.9 98.1,53.9 98.3,54.3 98.5,54.3 98.2,53.9 98.3,53.9 98.4,53.9 98.4,53.9 98.4,53.8 98.5,53.8 "></polygon> </g> </g> <polygon class="st3" points="73.3,37.9 73.1,37.9 73,37.9 72.8,37.9 72.7,37.8 72.6,37.8 72.4,37.8 72.3,37.8 72.2,37.8 72,37.7 71.8,37.7 71.7,37.7 71.5,37.7 71.2,37.7 71,37.7 70.7,37.7 70.4,37.7 70.2,37.8 70,37.8 69.8,37.9 69.7,37.9 69.5,38 69.4,38.1 69.3,38.2 69.2,38.3 69.1,38.4 69.1,38.6 69,38.7 69,38.8 69.1,39 69.1,39.1 69.2,39.2 69.3,39.4 69.5,39.6 69.8,39.7 70.1,39.9 70.4,40 70.7,40.1 71.1,40.2 71.4,40.3 71.8,40.5 72.1,40.7 72.4,40.9 72.7,41.1 72.9,41.5 73,41.9 73.2,42.3 73.2,42.9 73.2,43.6 73.1,44.1 72.9,44.5 72.8,44.9 72.6,45.3 72.3,45.6 72,45.8 71.7,46.1 71.4,46.3 71.1,46.4 70.7,46.6 70.3,46.7 70,46.8 69.6,46.8 69.3,46.9 68.9,46.9 68.6,46.9 68.1,46.9 67.7,46.9 67.3,46.9 67,46.9 66.7,46.8 66.4,46.8 66.1,46.8 65.9,46.8 65.7,46.7 65.5,46.7 65.3,46.7 65.1,46.6 64.9,46.6 64.7,46.5 64.5,46.5 64.4,46.4 64.8,44.1 64.9,44.1 65,44.1 65.2,44.2 65.4,44.2 65.6,44.2 65.8,44.3 66,44.3 66.3,44.4 66.5,44.4 66.8,44.5 67.1,44.5 67.4,44.5 67.7,44.5 68,44.5 68.3,44.5 68.7,44.5 69,44.5 69.2,44.4 69.4,44.3 69.5,44.1 69.6,44 69.7,43.8 69.8,43.7 69.8,43.5 69.9,43.3 69.9,43.2 69.8,43 69.8,42.9 69.7,42.8 69.6,42.7 69.4,42.6 69.3,42.5 69.2,42.4 69,42.3 68.8,42.3 68.6,42.2 68.4,42.1 68.2,42 68,42 67.8,41.9 67.6,41.8 67.4,41.7 67.2,41.6 67,41.5 66.8,41.3 66.6,41.2 66.4,41 66.3,40.9 66.1,40.7 66,40.5 65.9,40.2 65.8,40 65.7,39.7 65.7,39.4 65.7,39.1 65.7,38.7 65.7,38.5 65.8,38.3 65.8,38.1 65.9,37.9 65.9,37.7 65.9,37.6 66,37.4 66.1,37.2 66.2,37.1 66.2,36.9 66.3,36.8 66.4,36.6 66.6,36.5 66.7,36.4 66.8,36.2 66.9,36.1 67.1,36 67.2,35.9 67.4,35.8 67.6,35.8 67.8,35.7 68,35.6 68.2,35.5 68.4,35.5 68.6,35.4 68.9,35.4 69.1,35.4 69.4,35.3 69.7,35.3 70,35.3 70.3,35.3 70.6,35.3 71,35.3 71.4,35.3 71.7,35.3 72,35.3 72.2,35.3 72.5,35.3 72.7,35.4 72.9,35.4 73,35.4 73.2,35.4 73.3,35.4 73.4,35.5 73.5,35.5 73.6,35.5 73.7,35.5 73.8,35.5 "></polygon> <g> <g> <polyline class="st4" points="73.3,37.9 73.3,37.9 73.1,37.9 73,37.9 72.8,37.9 72.7,37.8 72.6,37.8 72.4,37.8 72.3,37.8 72.2,37.8 72,37.7 71.8,37.7 71.7,37.7 71.5,37.7 71.2,37.7 71,37.7 70.7,37.7 70.4,37.7 70.4,37.7 70.2,37.8 70,37.8 69.8,37.9 69.7,37.9 69.5,38 69.4,38.1 69.3,38.2 69.2,38.3 69.1,38.4 69.1,38.6 69,38.7 69,38.8 69.1,39 69.1,39.1 69.2,39.2 69.3,39.4 69.3,39.4 69.5,39.6 69.8,39.7 70.1,39.9 70.4,40 70.7,40.1 71.1,40.2 71.4,40.3 71.8,40.5 72.1,40.7 72.4,40.9 72.7,41.1 72.9,41.5 73,41.9 73.2,42.3 73.2,42.9 73.2,43.6 73.2,43.6 73.1,44.1 72.9,44.5 72.8,44.9 72.6,45.3 72.3,45.6 72,45.8 71.7,46.1 71.4,46.3 71.1,46.4 70.7,46.6 70.3,46.7 70,46.8 69.6,46.8 69.3,46.9 68.9,46.9 68.6,46.9 68.6,46.9 68.1,46.9 67.7,46.9 67.3,46.9 67,46.9 66.7,46.8 66.4,46.8 66.1,46.8 65.9,46.8 65.7,46.7 65.5,46.7 65.3,46.7 65.1,46.6 64.9,46.6 64.7,46.5 64.5,46.5 64.4,46.4 64.8,44.1 64.8,44.1 64.9,44.1 65,44.1 65.2,44.2 65.4,44.2 65.6,44.2 65.8,44.3 66,44.3 66.3,44.4 66.5,44.4 66.8,44.5 67.1,44.5 67.4,44.5 67.7,44.5 68,44.5 68.3,44.5 68.7,44.5 68.7,44.5 69,44.5 69.2,44.4 69.4,44.3 69.5,44.1 69.6,44 69.7,43.8 69.8,43.7 69.8,43.5 69.8,43.5 69.9,43.3 69.9,43.2 69.8,43 69.8,42.9 69.7,42.8 69.6,42.7 69.4,42.6 69.3,42.5 69.2,42.4 69,42.3 68.8,42.3 68.6,42.2 68.4,42.1 68.2,42 68,42 67.8,41.9 67.6,41.8 67.4,41.7 67.2,41.6 67,41.5 66.8,41.3 66.6,41.2 66.4,41 66.3,40.9 66.1,40.7 66,40.5 65.9,40.2 65.8,40 65.7,39.7 65.7,39.4 65.7,39.1 65.7,38.7 65.7,38.7 65.7,38.5 65.8,38.3 65.8,38.1 65.9,37.9 65.9,37.7 65.9,37.6 66,37.4 66.1,37.2 66.2,37.1 66.2,36.9 66.3,36.8 66.4,36.6 66.6,36.5 66.7,36.4 66.8,36.2 66.9,36.1 67.1,36 67.2,35.9 67.4,35.8 67.6,35.8 67.8,35.7 68,35.6 68.2,35.5 68.4,35.5 68.6,35.4 68.9,35.4 69.1,35.4 69.4,35.3 69.7,35.3 70,35.3 70.3,35.3 70.6,35.3 70.6,35.3 71,35.3 71.4,35.3 71.7,35.3 72,35.3 72.2,35.3 72.5,35.3 72.7,35.4 72.9,35.4 73,35.4 73.2,35.4 73.3,35.4 73.4,35.5 73.5,35.5 73.6,35.5 73.7,35.5 73.8,35.5 73.3,37.9 "></polyline> </g> </g> <polygon class="st3" points="75.7,33 78.7,33 78.2,35.5 80.1,35.5 79.6,37.9 77.8,37.9 76.8,43.8 76.8,43.9 76.8,44 76.8,44.1 76.8,44.2 76.9,44.3 76.9,44.3 77,44.4 77,44.4 77.1,44.5 77.2,44.5 77.3,44.5 77.4,44.6 77.6,44.6 77.7,44.6 77.8,44.6 77.9,44.6 78.2,44.6 78.4,44.6 78.6,44.6 78.7,44.5 78.8,44.5 78.9,44.4 79,44.4 79,44.4 78.7,46.4 78.6,46.5 78.6,46.5 78.5,46.5 78.4,46.6 78.3,46.6 78.2,46.6 78.1,46.7 78,46.7 77.9,46.7 77.8,46.7 77.7,46.8 77.6,46.8 77.4,46.8 77.3,46.8 77.1,46.9 76.9,46.9 76.1,46.9 75.7,46.9 75.3,46.8 75,46.7 74.7,46.7 74.5,46.6 74.3,46.5 74.1,46.3 73.9,46.2 73.8,46 73.8,45.9 73.7,45.7 73.7,45.5 73.7,45.3 73.7,45 73.7,44.8 73.7,44.5 "></polygon> <g> <g> <polyline class="st4" points="75.7,33 78.7,33 78.2,35.5 80.1,35.5 79.6,37.9 77.8,37.9 76.8,43.8 76.8,43.8 76.8,43.9 76.8,44 76.8,44.1 76.8,44.2 76.9,44.3 76.9,44.3 77,44.4 77,44.4 77.1,44.5 77.2,44.5 77.3,44.5 77.4,44.6 77.6,44.6 77.7,44.6 77.8,44.6 77.9,44.6 77.9,44.6 78.2,44.6 78.4,44.6 78.6,44.6 78.7,44.5 78.8,44.5 78.9,44.4 79,44.4 79,44.4 78.7,46.4 78.7,46.4 78.6,46.5 78.6,46.5 78.5,46.5 78.4,46.6 78.3,46.6 78.2,46.6 78.1,46.7 78,46.7 77.9,46.7 77.8,46.7 77.7,46.8 77.6,46.8 77.4,46.8 77.3,46.8 77.1,46.9 76.9,46.9 76.1,46.9 76.1,46.9 75.7,46.9 75.3,46.8 75,46.7 74.7,46.7 74.5,46.6 74.3,46.5 74.1,46.3 73.9,46.2 73.8,46 73.8,45.9 73.7,45.7 73.7,45.5 73.7,45.3 73.7,45 73.7,44.8 73.7,44.5 75.7,33 "></polyline> </g> </g> <polygon class="st3" points="57.6,41.9 57.6,42.1 57.6,42.3 57.6,42.5 57.6,42.7 57.7,42.9 57.8,43.1 57.9,43.3 58,43.5 58.2,43.6 58.3,43.8 58.5,44 58.7,44.1 58.9,44.2 59.1,44.3 59.3,44.4 59.5,44.4 59.8,44.5 60.1,44.5 60.3,44.6 60.6,44.6 60.9,44.6 61.2,44.6 61.5,44.6 61.7,44.5 62,44.5 62.3,44.4 62.6,44.4 62.9,44.3 63.2,44.2 63.5,44 63.8,43.9 64.1,43.7 63.7,46.3 63.5,46.4 63.3,46.5 63.2,46.5 63,46.6 62.8,46.7 62.7,46.7 62.5,46.7 62.3,46.8 62.1,46.8 61.9,46.8 61.7,46.9 61.5,46.9 61.2,46.9 60.9,46.9 60.6,46.9 60.2,46.9 60,46.9 59.7,46.9 59.4,46.9 59.2,46.8 58.9,46.8 58.6,46.7 58.4,46.7 58.1,46.6 57.8,46.5 57.6,46.5 57.3,46.4 57.1,46.3 56.8,46.1 56.6,46 56.4,45.8 56.1,45.7 55.9,45.5 55.7,45.3 55.5,45.1 55.4,44.9 55.2,44.6 55.1,44.4 54.9,44.1 54.8,43.8 54.7,43.5 54.6,43.2 54.6,42.8 54.5,42.5 54.5,42.1 54.5,41.7 54.5,41.3 54.5,40.8 54.6,40.7 54.6,40.5 54.6,40.3 54.7,40.1 54.7,39.9 54.7,39.7 54.8,39.5 54.9,39.3 54.9,39 55,38.8 55.1,38.6 55.2,38.4 55.3,38.1 55.5,37.9 55.6,37.7 55.7,37.5 55.9,37.2 56.1,37 56.3,36.8 56.5,36.6 56.7,36.4 57,36.3 57.2,36.1 57.5,35.9 57.8,35.8 58.1,35.7 58.5,35.6 58.8,35.5 59.2,35.4 59.6,35.4 60,35.3 60.4,35.3 60.7,35.3 60.9,35.3 61.1,35.3 61.3,35.4 61.5,35.4 61.7,35.4 61.9,35.5 62.2,35.5 62.4,35.6 62.6,35.7 62.8,35.8 63,35.9 63.2,36 63.4,36.1 63.6,36.3 63.7,36.4 63.9,36.6 64,36.8 64.2,37 64.3,37.2 64.4,37.4 64.5,37.7 64.6,38 64.7,38.3 64.8,38.6 64.8,38.9 64.8,39.2 64.8,39.6 64.8,40 64.7,40.4 64.7,40.9 64.6,41.3 64.5,42 56.8,42 57.2,39.9 61.9,39.9 61.9,39.6 61.9,39.4 61.9,39.1 61.8,38.9 61.8,38.7 61.7,38.5 61.6,38.4 61.5,38.2 61.3,38.1 61.2,38 61.1,37.9 60.9,37.8 60.7,37.7 60.6,37.7 60.4,37.7 60.2,37.7 60,37.7 59.8,37.7 59.6,37.7 59.4,37.8 59.2,37.9 59.1,38 58.9,38.1 58.8,38.2 58.6,38.4 58.5,38.5 58.4,38.7 58.3,38.9 58.2,39.1 58.2,39.3 58.1,39.5 58,39.7 "></polygon> <g> <g> <polyline class="st4" points="57.6,41.9 57.6,41.9 57.6,42.1 57.6,42.3 57.6,42.5 57.6,42.7 57.7,42.9 57.8,43.1 57.9,43.3 58,43.5 58.2,43.6 58.3,43.8 58.5,44 58.7,44.1 58.9,44.2 59.1,44.3 59.3,44.4 59.5,44.4 59.5,44.4 59.8,44.5 60.1,44.5 60.3,44.6 60.6,44.6 60.9,44.6 61.2,44.6 61.5,44.6 61.7,44.5 62,44.5 62.3,44.4 62.6,44.4 62.9,44.3 63.2,44.2 63.5,44 63.8,43.9 64.1,43.7 63.7,46.3 63.7,46.3 63.5,46.4 63.3,46.5 63.2,46.5 63,46.6 62.8,46.7 62.7,46.7 62.5,46.7 62.3,46.8 62.1,46.8 61.9,46.8 61.7,46.9 61.5,46.9 61.2,46.9 60.9,46.9 60.6,46.9 60.2,46.9 60.2,46.9 60,46.9 59.7,46.9 59.4,46.9 59.2,46.8 58.9,46.8 58.6,46.7 58.4,46.7 58.1,46.6 57.8,46.5 57.6,46.5 57.3,46.4 57.1,46.3 56.8,46.1 56.6,46 56.4,45.8 56.1,45.7 55.9,45.5 55.7,45.3 55.5,45.1 55.4,44.9 55.2,44.6 55.1,44.4 54.9,44.1 54.8,43.8 54.7,43.5 54.6,43.2 54.6,42.8 54.5,42.5 54.5,42.1 54.5,41.7 54.5,41.3 54.5,40.8 54.5,40.8 54.6,40.7 54.6,40.5 54.6,40.3 54.7,40.1 54.7,39.9 54.7,39.7 54.8,39.5 54.9,39.3 54.9,39 55,38.8 55.1,38.6 55.2,38.4 55.3,38.1 55.5,37.9 55.6,37.7 55.7,37.5 55.9,37.2 56.1,37 56.3,36.8 56.5,36.6 56.7,36.4 57,36.3 57.2,36.1 57.5,35.9 57.8,35.8 58.1,35.7 58.5,35.6 58.8,35.5 59.2,35.4 59.6,35.4 60,35.3 60.4,35.3 60.4,35.3 60.7,35.3 60.9,35.3 61.1,35.3 61.3,35.4 61.5,35.4 61.7,35.4 61.9,35.5 62.2,35.5 62.4,35.6 62.6,35.7 62.8,35.8 63,35.9 63.2,36 63.4,36.1 63.6,36.3 63.7,36.4 63.9,36.6 64,36.8 64.2,37 64.3,37.2 64.4,37.4 64.5,37.7 64.6,38 64.7,38.3 64.8,38.6 64.8,38.9 64.8,39.2 64.8,39.6 64.8,40 64.7,40.4 64.7,40.9 64.6,41.3 64.5,42 56.8,42 57.2,39.9 61.9,39.9 61.9,39.9 61.9,39.6 61.9,39.4 61.9,39.1 61.8,38.9 61.8,38.7 61.7,38.5 61.6,38.4 61.5,38.2 61.3,38.1 61.2,38 61.1,37.9 60.9,37.8 60.7,37.7 60.6,37.7 60.4,37.7 60.2,37.7 60.2,37.7 60,37.7 59.8,37.7 59.6,37.7 59.4,37.8 59.2,37.9 59.1,38 58.9,38.1 58.8,38.2 58.6,38.4 58.5,38.5 58.4,38.7 58.3,38.9 58.2,39.1 58.2,39.3 58.1,39.5 58,39.7 57.6,41.9 "></polyline> </g> </g> <polygon class="st3" points="53.5,44.5 53.1,46.9 50.4,46.9 50.5,46.7 50.5,46.4 50.5,46.2 50.5,46.1 50.6,45.9 50.6,45.8 50.6,45.7 50.7,45.6 50.5,45.8 50.3,45.9 50.1,46.1 49.9,46.3 49.7,46.4 49.4,46.5 49.1,46.6 48.8,46.8 48.5,46.9 48.2,46.9 47.9,47 47.6,47 47.3,47.1 47,47.1 46.7,47 46.4,47 46,46.9 45.7,46.8 45.4,46.7 45.1,46.5 44.9,46.3 44.7,46.1 44.5,45.9 44.3,45.7 44.2,45.5 44.1,45.3 44,45 44,44.8 43.9,44.5 43.9,44.3 43.9,44.1 43.9,43.8 43.9,43.4 44,43 44.1,42.6 44.2,42.3 44.4,42 44.6,41.7 44.8,41.4 45,41.1 45.3,40.8 45.6,40.6 45.9,40.4 46.2,40.3 46.6,40.1 46.9,40 47.3,39.9 47.6,39.8 47.7,39.8 47.7,39.8 47.8,39.8 47.9,39.8 48,39.8 48.2,39.8 48.3,39.8 48.5,39.7 48.7,39.7 48.9,39.7 49.1,39.7 49.2,39.7 49.4,39.7 49.6,39.7 49.7,39.6 49.8,39.6 49.9,39.6 50.1,39.6 50.2,39.6 50.3,39.7 50.5,39.7 50.6,39.7 50.7,39.7 50.8,39.7 50.9,39.7 51,39.7 51.1,39.7 51.2,39.7 51.2,39.7 51.3,39.7 51.3,39.7 51.3,39.7 51.3,39.6 51.4,39.4 51.4,39.2 51.4,39 51.4,38.9 51.4,38.8 51.3,38.7 51.3,38.6 51.2,38.4 51.2,38.4 51.1,38.3 51,38.2 50.9,38.1 50.8,38 50.7,38 50.6,37.9 50.5,37.9 50.3,37.9 50.2,37.8 50.1,37.8 49.8,37.8 49.5,37.8 49.1,37.8 48.8,37.9 48.4,37.9 48.1,37.9 47.8,37.9 47.4,38 47.1,38 46.8,38.1 46.5,38.1 46.3,38.2 46,38.2 45.9,38.3 45.7,38.4 45.6,38.4 46.4,35.9 46.6,35.8 46.8,35.7 47,35.6 47.3,35.6 47.6,35.5 47.8,35.5 48.1,35.4 48.4,35.4 48.7,35.4 49,35.4 49.3,35.4 49.6,35.4 50,35.4 50.3,35.4 50.7,35.4 51,35.4 51.3,35.4 51.7,35.5 52,35.5 52.3,35.6 52.7,35.8 53,35.9 53.3,36.1 53.6,36.3 53.9,36.5 54.1,36.8 54.3,37.1 54.5,37.4 54.6,37.8 54.7,38.1 54.7,38.5 54.6,39 "></polygon> <g> <g> <polyline class="st4" points="53.5,44.5 53.1,46.9 50.4,46.9 50.4,46.9 50.5,46.7 50.5,46.4 50.5,46.2 50.5,46.1 50.6,45.9 50.6,45.8 50.6,45.7 50.7,45.6 50.7,45.6 50.5,45.8 50.3,45.9 50.1,46.1 49.9,46.3 49.7,46.4 49.4,46.5 49.1,46.6 48.8,46.8 48.5,46.9 48.2,46.9 47.9,47 47.6,47 47.3,47.1 47,47.1 46.7,47 46.4,47 46.4,47 46,46.9 45.7,46.8 45.4,46.7 45.1,46.5 44.9,46.3 44.7,46.1 44.5,45.9 44.3,45.7 44.2,45.5 44.1,45.3 44,45 44,44.8 43.9,44.5 43.9,44.3 43.9,44.1 43.9,43.8 43.9,43.8 43.9,43.4 44,43 44.1,42.6 44.2,42.3 44.4,42 44.6,41.7 44.8,41.4 45,41.1 45.3,40.8 45.6,40.6 45.9,40.4 46.2,40.3 46.6,40.1 46.9,40 47.3,39.9 47.6,39.8 47.6,39.8 47.7,39.8 47.7,39.8 47.8,39.8 47.9,39.8 48,39.8 48.2,39.8 48.3,39.8 48.5,39.7 48.7,39.7 48.9,39.7 49.1,39.7 49.2,39.7 49.4,39.7 49.6,39.7 49.7,39.6 49.8,39.6 49.8,39.6 49.9,39.6 50.1,39.6 50.2,39.6 50.3,39.7 50.5,39.7 50.6,39.7 50.7,39.7 50.8,39.7 50.9,39.7 51,39.7 51.1,39.7 51.2,39.7 51.2,39.7 51.3,39.7 51.3,39.7 51.3,39.7 51.3,39.7 51.3,39.6 51.4,39.4 51.4,39.2 51.4,39 51.4,39 51.4,38.9 51.4,38.8 51.3,38.7 51.3,38.6 51.2,38.4 51.2,38.4 51.1,38.3 51,38.2 50.9,38.1 50.8,38 50.7,38 50.6,37.9 50.5,37.9 50.3,37.9 50.2,37.8 50.1,37.8 50.1,37.8 49.8,37.8 49.5,37.8 49.1,37.8 48.8,37.9 48.4,37.9 48.1,37.9 47.8,37.9 47.4,38 47.1,38 46.8,38.1 46.5,38.1 46.3,38.2 46,38.2 45.9,38.3 45.7,38.4 45.6,38.4 46.4,35.9 46.4,35.9 46.6,35.8 46.8,35.7 47,35.6 47.3,35.6 47.6,35.5 47.8,35.5 48.1,35.4 48.4,35.4 48.7,35.4 49,35.4 49.3,35.4 49.6,35.4 50,35.4 50.3,35.4 50.7,35.4 51,35.4 51,35.4 51.3,35.4 51.7,35.5 52,35.5 52.3,35.6 52.7,35.8 53,35.9 53.3,36.1 53.6,36.3 53.9,36.5 54.1,36.8 54.3,37.1 54.5,37.4 54.6,37.8 54.7,38.1 54.7,38.5 54.6,39 53.5,44.5 "></polyline> </g> </g> <polygon class="st2" points="51,41.7 51,41.7 50.9,41.6 50.8,41.6 50.7,41.6 50.6,41.6 50.5,41.6 50.3,41.6 50.2,41.6 50,41.6 49.8,41.6 49.6,41.6 49.5,41.6 49.3,41.7 49.2,41.7 49,41.7 48.9,41.8 48.8,41.8 48.7,41.8 48.6,41.9 48.5,41.9 48.4,42 48.3,42 48.1,42.1 48,42.2 47.8,42.3 47.7,42.4 47.6,42.5 47.5,42.7 47.4,42.8 47.3,43 47.2,43.1 47.2,43.3 47.2,43.7 47.2,43.9 47.3,44.2 47.4,44.3 47.6,44.4 47.8,44.5 48,44.6 48.1,44.6 48.5,44.6 48.8,44.5 49,44.5 49.3,44.4 49.5,44.3 49.7,44.2 49.9,44.1 50,44 50.2,43.9 50.3,43.8 50.4,43.7 50.5,43.5 50.6,43.4 50.6,43.3 50.7,43.2 50.7,43.1 50.7,42.9 50.8,42.7 50.8,42.6 50.8,42.4 50.9,42.2 50.9,42 50.9,41.9 "></polygon> <polygon class="st3" points="31.2,46.9 28.3,46.9 30.7,33 35.8,33 36.3,41.2 39.7,33 44.9,33 42.5,46.9 39.6,46.9 41.4,36.4 41.3,36.4 37,46.9 33.7,46.9 33.7,46.4 33.6,45.3 33.5,43.6 33.4,41.8 33.3,39.9 33.2,38.2 33.2,37 33.1,36.4 33.1,36.4 33.1,36.4 33.1,36.4 33,36.4 33,36.4 33,36.4 33,36.4 33,36.4 "></polygon> <g> <g> <polyline class="st4" points="31.2,46.9 28.3,46.9 30.7,33 35.8,33 36.3,41.2 39.7,33 44.9,33 42.5,46.9 39.6,46.9 41.4,36.4 41.3,36.4 37,46.9 33.7,46.9 33.7,46.9 33.7,46.4 33.6,45.3 33.5,43.6 33.4,41.8 33.3,39.9 33.2,38.2 33.2,37 33.1,36.4 33.1,36.4 33.1,36.4 33.1,36.4 33.1,36.4 33,36.4 33,36.4 33,36.4 33,36.4 33,36.4 31.2,46.9 "></polyline> </g> </g> <polygon class="st3" points="79.5,46.9 82.5,46.9 82.5,46.9 83.6,40.9 83.6,40.6 83.7,40.4 83.7,40.2 83.8,40 83.9,39.7 84,39.5 84.1,39.3 84.2,39.2 84.4,39 84.6,38.9 84.8,38.7 85.1,38.6 85.4,38.5 85.7,38.4 86.1,38.4 86.5,38.4 86.5,38.4 86.6,38.4 86.6,38.4 86.7,38.4 86.7,38.4 86.8,38.4 86.8,38.4 86.8,38.4 86.8,38.4 86.9,38.2 86.9,38 87,37.8 87,37.5 87.1,37.2 87.2,36.9 87.3,36.6 87.4,36.4 87.5,36.2 87.6,36 87.7,35.9 87.8,35.7 87.9,35.6 87.9,35.5 87.9,35.5 87.9,35.5 87.9,35.4 87.8,35.4 87.8,35.4 87.7,35.4 87.6,35.4 87.5,35.4 87.4,35.4 87.1,35.4 86.8,35.4 86.5,35.5 86.3,35.6 86.1,35.7 85.8,35.8 85.6,35.9 85.5,36 85.3,36.1 85.1,36.3 84.9,36.5 84.8,36.6 84.6,36.8 84.5,37 84.3,37.2 84.2,37.4 84.5,35.5 81.5,35.5 79.5,46.9 "></polygon> <g> <g> <polyline class="st4" points="79.5,46.9 82.5,46.9 82.5,46.9 83.6,40.9 83.6,40.9 83.6,40.6 83.7,40.4 83.7,40.2 83.8,40 83.9,39.7 84,39.5 84.1,39.3 84.2,39.2 84.4,39 84.6,38.9 84.8,38.7 85.1,38.6 85.4,38.5 85.7,38.4 86.1,38.4 86.5,38.4 86.5,38.4 86.5,38.4 86.6,38.4 86.6,38.4 86.7,38.4 86.7,38.4 86.8,38.4 86.8,38.4 86.8,38.4 86.8,38.4 86.8,38.4 86.9,38.2 86.9,38 87,37.8 87,37.5 87.1,37.2 87.2,36.9 87.3,36.6 87.3,36.6 87.4,36.4 87.5,36.2 87.6,36 87.7,35.9 87.8,35.7 87.9,35.6 87.9,35.5 87.9,35.5 87.9,35.5 87.9,35.5 87.9,35.4 87.8,35.4 87.8,35.4 87.7,35.4 87.6,35.4 87.5,35.4 87.4,35.4 87.4,35.4 87.1,35.4 86.8,35.4 86.5,35.5 86.3,35.6 86.1,35.7 85.8,35.8 85.6,35.9 85.5,36 85.3,36.1 85.1,36.3 84.9,36.5 84.8,36.6 84.6,36.8 84.5,37 84.3,37.2 84.2,37.4 84.5,35.5 81.5,35.5 79.5,46.9 79.5,46.9 "></polyline> </g> </g> <polygon class="st3" points="92.5,35.4 92.9,35.4 93.2,35.4 93.5,35.4 93.8,35.5 94.1,35.5 94.4,35.6 94.7,35.7 95,35.8 95.2,35.9 95.5,36 95.7,36.2 95.9,36.3 96.2,36.4 96.4,36.6 96.6,36.8 96.7,37 96.9,37.2 97.1,37.4 97.2,37.6 97.4,37.8 97.5,38 97.6,38.3 97.7,38.5 97.8,38.8 97.9,39 98,39.3 98,39.6 98.1,39.9 98.1,40.2 98.1,40.5 98.1,40.8 98.1,41.1 98.1,41.5 98,41.8 98,42.2 97.9,42.5 97.9,42.8 97.8,43.2 97.7,43.5 97.5,43.7 97.4,44 97.3,44.3 97.1,44.5 97,44.8 96.8,45 96.6,45.2 96.4,45.4 96.2,45.6 96,45.8 95.8,46 95.6,46.1 95.3,46.3 95.1,46.4 94.8,46.5 94.6,46.6 94.3,46.7 94.1,46.8 93.8,46.9 93.5,46.9 93.2,47 92.9,47 92.6,47.1 92.3,47.1 92,47.1 91.7,47.1 91.4,47.1 91.1,47 90.8,47 90.5,46.9 90.3,46.9 90,46.8 89.7,46.7 89.5,46.6 89.2,46.5 89,46.4 88.8,46.2 88.6,46.1 88.3,45.9 88.1,45.8 87.9,45.6 87.8,45.4 87.6,45.2 87.4,45 87.3,44.8 87.1,44.6 87,44.3 86.9,44.1 86.8,43.8 86.7,43.5 86.6,43.2 86.6,43 86.5,42.6 86.5,42.3 86.5,42 86.4,41.7 86.5,41.3 86.5,41 86.5,40.6 86.6,40.3 86.6,40 86.7,39.7 86.8,39.4 86.9,39.1 87,38.8 87.1,38.5 87.2,38.3 87.4,38 87.6,37.8 87.7,37.5 87.9,37.3 88.1,37.1 88.3,36.9 88.5,36.7 88.7,36.6 88.9,36.4 89.1,36.3 89.4,36.1 89.6,36 89.9,35.9 90.2,35.8 90.4,35.7 90.7,35.6 91,35.5 91.3,35.5 91.6,35.4 91.9,35.4 92.2,35.4 "></polygon> <g> <g> <polyline class="st4" points="92.5,35.4 92.5,35.4 92.9,35.4 93.2,35.4 93.5,35.4 93.8,35.5 94.1,35.5 94.4,35.6 94.7,35.7 95,35.8 95.2,35.9 95.5,36 95.7,36.2 95.9,36.3 96.2,36.4 96.4,36.6 96.6,36.8 96.7,37 96.9,37.2 97.1,37.4 97.2,37.6 97.4,37.8 97.5,38 97.6,38.3 97.7,38.5 97.8,38.8 97.9,39 98,39.3 98,39.6 98.1,39.9 98.1,40.2 98.1,40.5 98.1,40.8 98.1,41.1 98.1,41.1 98.1,41.5 98,41.8 98,42.2 97.9,42.5 97.9,42.8 97.8,43.2 97.7,43.5 97.5,43.7 97.4,44 97.3,44.3 97.1,44.5 97,44.8 96.8,45 96.6,45.2 96.4,45.4 96.2,45.6 96,45.8 95.8,46 95.6,46.1 95.3,46.3 95.1,46.4 94.8,46.5 94.6,46.6 94.3,46.7 94.1,46.8 93.8,46.9 93.5,46.9 93.2,47 92.9,47 92.6,47.1 92.3,47.1 92,47.1 92,47.1 91.7,47.1 91.4,47.1 91.1,47 90.8,47 90.5,46.9 90.3,46.9 90,46.8 89.7,46.7 89.5,46.6 89.2,46.5 89,46.4 88.8,46.2 88.6,46.1 88.3,45.9 88.1,45.8 87.9,45.6 87.8,45.4 87.6,45.2 87.4,45 87.3,44.8 87.1,44.6 87,44.3 86.9,44.1 86.8,43.8 86.7,43.5 86.6,43.2 86.6,43 86.5,42.6 86.5,42.3 86.5,42 86.4,41.7 86.5,41.3 86.5,41.3 86.5,41 86.5,40.6 86.6,40.3 86.6,40 86.7,39.7 86.8,39.4 86.9,39.1 87,38.8 87.1,38.5 87.2,38.3 87.4,38 87.6,37.8 87.7,37.5 87.9,37.3 88.1,37.1 88.3,36.9 88.5,36.7 88.7,36.6 88.9,36.4 89.1,36.3 89.4,36.1 89.6,36 89.9,35.9 90.2,35.8 90.4,35.7 90.7,35.6 91,35.5 91.3,35.5 91.6,35.4 91.9,35.4 92.2,35.4 92.5,35.4 "></polyline> </g> </g> <polygon class="st3" points="97,46.3 97.8,46.3 97.8,46.4 97.5,46.4 97.5,47.1 97.3,47.1 97.3,46.4 97,46.4 "></polygon> <g> <g> <polyline class="st4" points="97,46.3 97.8,46.3 97.8,46.4 97.5,46.4 97.5,47.1 97.3,47.1 97.3,46.4 97,46.4 97,46.3 "></polyline> </g> </g> <polygon class="st3" points="98,46.3 98.2,46.3 98.5,47 98.5,47 98.8,46.3 99.1,46.3 99.1,47.1 98.9,47.1 98.9,46.5 98.9,46.5 98.6,47.1 98.4,47.1 98.1,46.5 98.1,46.5 98.1,47.1 98,47.1 "></polygon> <g> <g> <polyline class="st4" points="98,46.3 98.2,46.3 98.5,47 98.5,47 98.8,46.3 99.1,46.3 99.1,47.1 98.9,47.1 98.9,46.5 98.9,46.5 98.6,47.1 98.4,47.1 98.1,46.5 98.1,46.5 98.1,47.1 98,47.1 98,46.3 "></polyline> </g> </g> <polygon class="st1" points="90.2,40.8 90.1,41.2 90.1,41.6 90.1,42 90.1,42.3 90.2,42.6 90.3,42.8 90.3,43.1 90.4,43.3 90.6,43.5 90.7,43.6 90.9,43.8 91,43.9 91.2,44 91.4,44 91.6,44 91.9,44.1 92.1,44.1 92.4,44 92.6,44 92.8,43.9 93,43.8 93.2,43.7 93.4,43.5 93.6,43.3 93.7,43.1 93.9,42.9 94,42.6 94.1,42.3 94.3,42 94.4,41.7 94.4,41.3 94.5,40.9 94.5,40.5 94.6,40.2 94.6,39.9 94.5,39.7 94.5,39.4 94.4,39.2 94.4,38.9 94.3,38.7 94.1,38.5 94,38.4 93.8,38.2 93.7,38.1 93.5,38 93.3,37.9 93.1,37.9 92.8,37.9 92.5,37.9 92.2,38 92,38.1 91.7,38.2 91.5,38.3 91.3,38.5 91.1,38.7 90.9,38.9 90.8,39.1 90.7,39.3 90.5,39.6 90.4,39.8 90.4,40.1 90.3,40.3 90.2,40.6 "></polygon> </g> </g> </svg> 