<?xml version="1.0" encoding="UTF-8"?> <!-- Generator: Adobe Illustrator 23.0.3, SVG Export Plug-In . SVG Version: 6.00 Build 0) --> <svg xmlns="http://www.w3.org/2000/svg" xmlns:xlink="http://www.w3.org/1999/xlink" version="1.1" id="Layer_1" x="0px" y="0px" viewBox="0 0 126 79" style="enable-background:new 0 0 126 79;" xml:space="preserve"> <style type="text/css"> .st0{fill:#F9F9F9;} .st1{fill-rule:evenodd;clip-rule:evenodd;fill:#FBB231;} .st2{fill-rule:evenodd;clip-rule:evenodd;fill:#EC1C2E;} .st3{fill-rule:evenodd;clip-rule:evenodd;fill:#FFFFFF;} .st4{fill:none;stroke:#FFFFFF;stroke-width:0.216;stroke-miterlimit:2.6131;} </style> <path class="st0" d="M121,79H5c-2.8,0-5-2.3-5-5V5c0-2.8,2.3-5,5-5h116c2.8,0,5,2.3,5,5v69C126,76.8,123.8,79,121,79z"></path> <g> <g> <polygon class="st1" points="78.4,62.3 79.5,62.3 80.7,62.2 81.8,62.1 82.9,61.9 84,61.6 85.1,61.3 86.1,61 87.2,60.6 88.2,60.1 89.1,59.6 90.1,59.1 91,58.5 91.9,57.9 92.7,57.2 93.5,56.5 94.3,55.7 95.1,55 95.8,54.1 96.4,53.3 97.1,52.4 97.7,51.5 98.2,50.5 98.7,49.6 99.2,48.6 99.6,47.5 99.9,46.5 100.2,45.4 100.5,44.3 100.7,43.2 100.8,42.1 100.9,41 100.9,39.8 100.9,38.6 100.8,37.5 100.7,36.4 100.5,35.3 100.2,34.2 99.9,33.1 99.6,32.1 99.2,31.1 98.7,30.1 98.2,29.1 97.7,28.2 97.1,27.3 96.4,26.4 95.8,25.5 95.1,24.7 94.3,23.9 93.5,23.2 92.7,22.5 91.9,21.8 91,21.2 90.1,20.6 89.1,20.1 88.2,19.6 87.2,19.1 86.1,18.7 85.1,18.3 84,18 82.9,17.8 81.8,17.6 80.7,17.5 79.5,17.4 78.4,17.3 77.2,17.4 76.1,17.5 75,17.6 73.8,17.8 72.8,18 71.7,18.3 70.7,18.7 69.6,19.1 68.6,19.6 67.7,20.1 66.7,20.6 65.8,21.2 64.9,21.8 64.1,22.5 63.3,23.2 62.5,23.9 61.7,24.7 61,25.5 60.4,26.4 59.8,27.3 59.2,28.2 58.6,29.1 58.1,30.1 57.7,31.1 57.3,32.1 56.9,33.1 56.6,34.2 56.4,35.3 56.2,36.4 56,37.5 55.9,38.6 55.9,39.8 55.9,41 56,42.1 56.2,43.2 56.4,44.3 56.6,45.4 56.9,46.5 57.3,47.5 57.7,48.6 58.1,49.6 58.6,50.5 59.2,51.5 59.8,52.4 60.4,53.3 61,54.1 61.7,55 62.5,55.7 63.3,56.5 64.1,57.2 64.9,57.9 65.8,58.5 66.7,59.1 67.7,59.6 68.6,60.1 69.6,60.6 70.7,61 71.7,61.3 72.8,61.6 73.8,61.9 75,62.1 76.1,62.2 77.2,62.3 78.4,62.3 78.4,62.3 "></polygon> <polygon class="st2" points="48.3,62.3 49.4,62.3 50.6,62.2 51.7,62.1 52.8,61.9 53.9,61.6 55,61.3 56,61 57,60.6 58,60.1 59,59.6 59.9,59.1 60.8,58.5 61.7,57.9 62.6,57.2 63.4,56.5 64.2,55.7 64.9,55 65.6,54.1 66.3,53.3 66.9,52.4 67.5,51.5 68,50.5 68.5,49.6 69,48.6 69.4,47.5 69.7,46.5 70,45.4 70.3,44.3 70.5,43.2 70.6,42.1 70.7,41 70.7,39.8 70.7,38.6 70.6,37.5 70.5,36.4 70.3,35.3 70,34.2 69.7,33.1 69.4,32.1 69,31.1 68.5,30.1 68,29.1 67.5,28.2 66.9,27.3 66.3,26.4 65.6,25.5 64.9,24.7 64.2,23.9 63.4,23.2 62.6,22.5 61.7,21.8 60.8,21.2 59.9,20.6 59,20.1 58,19.6 57,19.1 56,18.7 55,18.3 53.9,18 52.8,17.8 51.7,17.6 50.6,17.5 49.4,17.4 48.3,17.3 47.1,17.4 46,17.5 44.8,17.6 43.7,17.8 42.6,18 41.6,18.3 40.5,18.7 39.5,19.1 38.5,19.6 37.5,20.1 36.6,20.6 35.7,21.2 34.8,21.8 33.9,22.5 33.1,23.2 32.3,23.9 31.6,24.7 30.9,25.5 30.2,26.4 29.6,27.3 29,28.2 28.4,29.1 28,30.1 27.5,31.1 27.1,32.1 26.7,33.1 26.4,34.2 26.2,35.3 26,36.4 25.8,37.5 25.8,38.6 25.7,39.8 25.8,41 25.8,42.1 26,43.2 26.2,44.3 26.4,45.4 26.7,46.5 27.1,47.5 27.5,48.6 28,49.6 28.4,50.5 29,51.5 29.6,52.4 30.2,53.3 30.9,54.1 31.6,55 32.3,55.7 33.1,56.5 33.9,57.2 34.8,57.9 35.7,58.5 36.6,59.1 37.5,59.6 38.5,60.1 39.5,60.6 40.5,61 41.6,61.3 42.6,61.6 43.7,61.9 44.8,62.1 46,62.2 47.1,62.3 48.3,62.3 48.3,62.3 "></polygon> <polygon class="st1" points="60.7,26 72.6,26 72.6,24.7 61.7,24.7 60.7,26 60.7,26 "></polygon> <polygon class="st1" points="58.9,28.7 72.6,28.7 72.6,27.5 59.6,27.5 58.9,28.7 58.9,28.7 "></polygon> <polygon class="st1" points="57.6,31.4 72.6,31.4 72.6,30.2 58.1,30.2 57.6,31.4 57.6,31.4 "></polygon> <polygon class="st1" points="56.6,34.1 72.6,34.1 72.6,32.9 57,32.9 56.6,34.1 56.6,34.1 "></polygon> <polygon class="st1" points="57.2,47.2 72.7,47.2 72.7,46 56.8,46 57.2,47.2 57.2,47.2 "></polygon> <polygon class="st1" points="58.3,50 72.7,50 72.7,48.7 57.8,48.7 58.3,50 58.3,50 "></polygon> <polygon class="st1" points="59.9,52.7 72.7,52.7 72.7,51.4 59.2,51.4 59.9,52.7 59.9,52.7 "></polygon> <polygon class="st1" points="62.2,55.4 72.7,55.4 72.7,54.2 61.1,54.2 62.2,55.4 62.2,55.4 "></polygon> <polygon class="st1" points="56.1,36.8 72.6,36.8 72.6,35.6 56.3,35.6 56.1,36.8 56.1,36.8 "></polygon> <polygon class="st1" points="66.2,44.5 72.5,44.5 72.5,43.3 66.4,43.3 66.2,44.5 66.2,44.5 "></polygon> <polygon class="st1" points="66.7,41.8 72.5,41.8 72.5,40.6 66.9,40.6 66.7,41.8 66.7,41.8 "></polygon> <polygon class="st1" points="55.7,40.6 57.3,40.6 57.3,41.8 55.8,41.8 55.7,40.6 55.7,40.6 "></polygon> <polygon class="st3" points="52.6,39.1 52.5,39.1 52.4,39.1 52.3,39.1 52.2,39.1 52.1,39 52,39 51.9,39 51.8,39 51.7,39 51.6,39 51.5,39 51.3,39 51.2,39 51,39 50.8,39 50.6,39 50.4,39 50.3,39 50.1,39.1 50,39.1 49.9,39.2 49.8,39.3 49.7,39.3 49.7,39.4 49.6,39.5 49.6,39.6 49.6,39.7 49.6,39.7 49.6,39.8 49.6,39.9 49.7,40 49.8,40.1 49.9,40.3 50.1,40.4 50.3,40.5 50.5,40.6 50.8,40.7 51,40.7 51.3,40.8 51.5,40.9 51.8,41.1 52,41.2 52.2,41.4 52.3,41.6 52.4,41.9 52.5,42.3 52.5,42.7 52.5,43.2 52.5,43.5 52.4,43.8 52.3,44.1 52.1,44.4 51.9,44.6 51.7,44.8 51.5,44.9 51.3,45.1 51,45.2 50.8,45.3 50.5,45.4 50.3,45.4 50,45.5 49.8,45.5 49.5,45.5 49.3,45.5 48.9,45.5 48.6,45.5 48.4,45.5 48.1,45.5 47.9,45.5 47.7,45.5 47.5,45.5 47.3,45.5 47.2,45.4 47,45.4 46.9,45.4 46.8,45.3 46.6,45.3 46.5,45.3 46.4,45.2 46.3,45.2 46.6,43.5 46.7,43.5 46.7,43.5 46.9,43.6 47,43.6 47.1,43.6 47.3,43.7 47.4,43.7 47.6,43.7 47.8,43.8 48,43.8 48.2,43.8 48.4,43.8 48.6,43.8 48.9,43.9 49.1,43.9 49.3,43.8 49.5,43.8 49.7,43.7 49.8,43.7 49.9,43.5 50,43.4 50.1,43.3 50.1,43.2 50.2,43.1 50.2,42.9 50.1,42.7 50,42.5 49.8,42.4 49.6,42.3 49.3,42.2 49,42.1 48.7,41.9 48.4,41.8 48.1,41.6 47.8,41.4 47.6,41.2 47.4,40.9 47.3,40.6 47.2,40.2 47.2,39.7 47.2,39.4 47.3,39.1 47.4,38.8 47.5,38.6 47.6,38.4 47.7,38.2 47.9,38 48.1,37.8 48.3,37.7 48.5,37.6 48.8,37.4 49.1,37.4 49.5,37.3 49.8,37.2 50.2,37.2 50.7,37.2 51,37.2 51.2,37.2 51.5,37.2 51.7,37.2 51.9,37.2 52,37.3 52.2,37.3 52.3,37.3 52.5,37.3 52.6,37.3 52.7,37.3 52.7,37.4 52.8,37.4 52.9,37.4 53,37.4 53,37.4 52.6,39.1 52.6,39.1 "></polygon> <polyline class="st4" points="52.6,39.1 52.6,39.1 52.5,39.1 52.4,39.1 52.3,39.1 52.2,39.1 52.1,39 52,39 51.9,39 51.8,39 51.7,39 51.6,39 51.5,39 51.3,39 51.2,39 51,39 50.8,39 50.6,39 50.6,39 50.4,39 50.3,39 50.1,39.1 50,39.1 49.9,39.2 49.8,39.3 49.7,39.3 49.7,39.4 49.6,39.5 49.6,39.6 49.6,39.7 49.6,39.7 49.6,39.8 49.6,39.9 49.7,40 49.8,40.1 49.8,40.1 49.9,40.3 50.1,40.4 50.3,40.5 50.5,40.6 50.8,40.7 51,40.7 51.3,40.8 51.5,40.9 51.8,41.1 52,41.2 52.2,41.4 52.3,41.6 52.4,41.9 52.5,42.3 52.5,42.7 52.5,43.2 52.5,43.2 52.5,43.5 52.4,43.8 52.3,44.1 52.1,44.4 51.9,44.6 51.7,44.8 51.5,44.9 51.3,45.1 51,45.2 50.8,45.3 50.5,45.4 50.3,45.4 50,45.5 49.8,45.5 49.5,45.5 49.3,45.5 49.3,45.5 48.9,45.5 48.6,45.5 48.4,45.5 48.1,45.5 47.9,45.5 47.7,45.5 47.5,45.5 47.3,45.5 47.2,45.4 47,45.4 46.9,45.4 46.8,45.3 46.6,45.3 46.5,45.3 46.4,45.2 46.3,45.2 46.6,43.5 46.6,43.5 46.7,43.5 46.7,43.5 46.9,43.6 47,43.6 47.1,43.6 47.3,43.7 47.4,43.7 47.6,43.7 47.8,43.8 48,43.8 48.2,43.8 48.4,43.8 48.6,43.8 48.9,43.9 49.1,43.9 49.3,43.8 49.3,43.8 49.5,43.8 49.7,43.7 49.8,43.7 49.9,43.5 50,43.4 50.1,43.3 50.1,43.2 50.2,43.1 50.2,43.1 50.2,42.9 50.1,42.7 50,42.5 49.8,42.4 49.6,42.3 49.3,42.2 49,42.1 48.7,41.9 48.4,41.8 48.1,41.6 47.8,41.4 47.6,41.2 47.4,40.9 47.3,40.6 47.2,40.2 47.2,39.7 47.2,39.7 47.2,39.4 47.3,39.1 47.4,38.8 47.5,38.6 47.6,38.4 47.7,38.2 47.9,38 48.1,37.8 48.3,37.7 48.5,37.6 48.8,37.4 49.1,37.4 49.5,37.3 49.8,37.2 50.2,37.2 50.7,37.2 50.7,37.2 51,37.2 51.2,37.2 51.5,37.2 51.7,37.2 51.9,37.2 52,37.3 52.2,37.3 52.3,37.3 52.5,37.3 52.6,37.3 52.7,37.3 52.7,37.4 52.8,37.4 52.9,37.4 53,37.4 53,37.4 52.6,39.1 "></polyline> <polygon class="st3" points="54.4,35.5 56.5,35.5 56.2,37.4 57.5,37.4 57.2,39.1 55.9,39 55.2,43.3 55.1,43.4 55.2,43.6 55.3,43.7 55.4,43.7 55.5,43.8 55.6,43.8 55.8,43.9 56,43.9 56.2,43.9 56.3,43.9 56.5,43.8 56.6,43.8 56.7,43.8 56.7,43.8 56.8,43.7 56.8,43.7 56.5,45.1 56.5,45.2 56.4,45.2 56.4,45.2 56.3,45.3 56.3,45.3 56.2,45.3 56.1,45.3 56.1,45.4 56,45.4 55.9,45.4 55.8,45.4 55.7,45.4 55.6,45.4 55.5,45.5 55.4,45.5 55.3,45.5 54.7,45.5 54.4,45.5 54.1,45.4 53.9,45.4 53.7,45.3 53.5,45.3 53.4,45.2 53.2,45.1 53.1,45 53.1,44.9 53,44.8 53,44.6 52.9,44.5 52.9,44.3 52.9,44.2 53,44 53,43.8 54.4,35.5 54.4,35.5 "></polygon> <polyline class="st4" points="54.4,35.5 56.5,35.5 56.2,37.4 57.5,37.4 57.2,39.1 55.9,39 55.2,43.3 55.2,43.3 55.1,43.4 55.2,43.6 55.3,43.7 55.4,43.7 55.5,43.8 55.6,43.8 55.8,43.9 56,43.9 56,43.9 56.2,43.9 56.3,43.9 56.5,43.8 56.6,43.8 56.7,43.8 56.7,43.8 56.8,43.7 56.8,43.7 56.5,45.1 56.5,45.1 56.5,45.2 56.4,45.2 56.4,45.2 56.3,45.3 56.3,45.3 56.2,45.3 56.1,45.3 56.1,45.4 56,45.4 55.9,45.4 55.8,45.4 55.7,45.4 55.6,45.4 55.5,45.5 55.4,45.5 55.3,45.5 54.7,45.5 54.7,45.5 54.4,45.5 54.1,45.4 53.9,45.4 53.7,45.3 53.5,45.3 53.4,45.2 53.2,45.1 53.1,45 53.1,44.9 53,44.8 53,44.6 52.9,44.5 52.9,44.3 52.9,44.2 53,44 53,43.8 54.4,35.5 "></polyline> <polyline class="st4" points="59.2,41.9 59.2,41.9 59.1,42.1 59.1,42.2 59.2,42.3 59.2,42.5 59.2,42.6 59.3,42.8 59.4,42.9 59.5,43 59.6,43.2 59.7,43.3 59.8,43.4 59.9,43.5 60.1,43.6 60.2,43.6 60.4,43.7 60.5,43.7 60.5,43.7 60.7,43.8 60.9,43.8 61.1,43.8 61.3,43.8 61.5,43.8 61.7,43.8 61.9,43.8 62.1,43.8 62.3,43.8 62.5,43.7 62.8,43.7 63,43.6 63.2,43.5 63.4,43.4 63.6,43.3 63.8,43.2 63.5,45.1 63.5,45.1 63.4,45.1 63.3,45.2 63.2,45.2 63,45.3 62.9,45.3 62.8,45.4 62.7,45.4 62.6,45.4 62.4,45.4 62.3,45.4 62.1,45.5 61.9,45.5 61.7,45.5 61.5,45.5 61.3,45.5 61,45.5 61,45.5 60.7,45.5 60.3,45.4 59.9,45.4 59.5,45.3 59.2,45.2 58.8,45 58.5,44.9 58.1,44.6 57.8,44.4 57.6,44.1 57.4,43.7 57.2,43.3 57.1,42.9 57,42.4 57,41.8 57,41.2 57,41.2 57,40.9 57.1,40.6 57.1,40.4 57.2,40 57.3,39.7 57.5,39.4 57.6,39 57.8,38.7 58.1,38.4 58.4,38.1 58.7,37.9 59.1,37.6 59.5,37.5 60,37.3 60.6,37.2 61.2,37.2 61.2,37.2 61.5,37.2 61.8,37.2 62.1,37.3 62.4,37.4 62.7,37.5 63,37.6 63.3,37.8 63.5,38 63.8,38.3 64,38.6 64.1,38.9 64.2,39.3 64.3,39.8 64.3,40.3 64.2,40.9 64.1,41.5 64.1,42 58.6,42 58.9,40.5 62.2,40.5 62.2,40.5 62.2,40.3 62.2,40.1 62.2,39.9 62.2,39.8 62.1,39.6 62.1,39.5 62,39.4 61.9,39.3 61.8,39.2 61.7,39.1 61.6,39.1 61.5,39 61.4,39 61.3,38.9 61.1,38.9 61,38.9 61,38.9 60.9,38.9 60.7,38.9 60.6,38.9 60.5,39 60.3,39.1 60.2,39.1 60.1,39.2 60,39.3 59.9,39.4 59.8,39.5 59.7,39.6 59.7,39.8 59.6,39.9 59.5,40.1 59.5,40.2 59.5,40.4 59.2,41.9 "></polyline> <polygon class="st3" points="77.3,37.8 77.2,37.8 77.1,37.7 77,37.7 76.9,37.6 76.7,37.6 76.6,37.5 76.5,37.5 76.3,37.4 76.2,37.4 76.1,37.4 75.9,37.3 75.7,37.3 75.6,37.3 75.4,37.3 75.2,37.3 75,37.3 74.8,37.3 74.6,37.3 74.4,37.3 74.2,37.4 74,37.4 73.8,37.5 73.6,37.6 73.4,37.7 73.2,37.9 73,38.1 72.8,38.3 72.6,38.6 72.4,39 72.3,39.3 72.1,39.8 72,40.3 72,40.5 71.9,40.8 71.9,41.1 71.9,41.3 71.9,41.6 72,41.8 72.1,42 72.1,42.3 72.3,42.5 72.4,42.7 72.6,42.8 72.7,43 72.9,43.1 73.2,43.3 73.4,43.4 73.7,43.4 73.8,43.4 73.9,43.5 74.1,43.5 74.2,43.5 74.4,43.5 74.6,43.5 74.8,43.5 74.9,43.5 75.1,43.5 75.3,43.4 75.5,43.4 75.7,43.3 75.9,43.2 76.1,43.1 76.2,43 76.4,42.9 76.1,44.9 76,45 76,45 75.9,45.1 75.8,45.1 75.7,45.2 75.6,45.2 75.5,45.3 75.4,45.3 75.2,45.4 75,45.4 74.8,45.4 74.5,45.5 74.2,45.5 73.9,45.5 73.5,45.5 73.1,45.5 72.7,45.4 72.4,45.3 72,45.2 71.7,45.1 71.3,44.9 71,44.7 70.7,44.4 70.4,44.1 70.2,43.8 70,43.4 69.8,42.9 69.7,42.5 69.6,42 69.5,41.4 69.5,40.8 69.6,40.2 69.7,39.9 69.8,39.6 69.8,39.3 69.9,39 70,38.8 70.1,38.5 70.2,38.2 70.3,38 70.4,37.8 70.5,37.5 70.7,37.3 70.8,37.1 70.9,37 71.1,36.8 71.2,36.6 71.4,36.4 71.6,36.3 71.7,36.1 71.9,36 72.1,35.9 72.3,35.8 72.5,35.7 72.7,35.6 73,35.5 73.2,35.4 73.4,35.4 73.7,35.3 73.9,35.3 74.2,35.2 74.5,35.2 74.7,35.2 75,35.2 75.3,35.2 75.5,35.2 75.7,35.2 76,35.3 76.2,35.3 76.4,35.3 76.6,35.4 76.7,35.4 76.9,35.5 77.1,35.5 77.2,35.6 77.3,35.6 77.4,35.6 77.5,35.7 77.6,35.7 77.7,35.7 77.3,37.8 77.3,37.8 "></polygon> <polyline class="st4" points="77.3,37.8 77.3,37.8 77.2,37.8 77.1,37.7 77,37.7 76.9,37.6 76.7,37.6 76.6,37.5 76.5,37.5 76.3,37.4 76.2,37.4 76.1,37.4 75.9,37.3 75.7,37.3 75.6,37.3 75.4,37.3 75.2,37.3 75,37.3 75,37.3 74.8,37.3 74.6,37.3 74.4,37.3 74.2,37.4 74,37.4 73.8,37.5 73.6,37.6 73.4,37.7 73.2,37.9 73,38.1 72.8,38.3 72.6,38.6 72.4,39 72.3,39.3 72.1,39.8 72,40.3 72,40.3 72,40.5 71.9,40.8 71.9,41.1 71.9,41.3 71.9,41.6 72,41.8 72.1,42 72.1,42.3 72.3,42.5 72.4,42.7 72.6,42.8 72.7,43 72.9,43.1 73.2,43.3 73.4,43.4 73.7,43.4 73.7,43.4 73.8,43.4 73.9,43.5 74.1,43.5 74.2,43.5 74.4,43.5 74.6,43.5 74.8,43.5 74.9,43.5 75.1,43.5 75.3,43.4 75.5,43.4 75.7,43.3 75.9,43.2 76.1,43.1 76.2,43 76.4,42.9 76.1,44.9 76.1,44.9 76,45 76,45 75.9,45.1 75.8,45.1 75.7,45.2 75.6,45.2 75.5,45.3 75.4,45.3 75.2,45.4 75,45.4 74.8,45.4 74.5,45.5 74.2,45.5 73.9,45.5 73.5,45.5 73.1,45.5 73.1,45.5 72.7,45.4 72.4,45.3 72,45.2 71.7,45.1 71.3,44.9 71,44.7 70.7,44.4 70.4,44.1 70.2,43.8 70,43.4 69.8,42.9 69.7,42.5 69.6,42 69.5,41.4 69.5,40.8 69.6,40.2 69.6,40.2 69.7,39.9 69.8,39.6 69.8,39.3 69.9,39 70,38.8 70.1,38.5 70.2,38.2 70.3,38 70.4,37.8 70.5,37.5 70.7,37.3 70.8,37.1 70.9,37 71.1,36.8 71.2,36.6 71.4,36.4 71.6,36.3 71.7,36.1 71.9,36 72.1,35.9 72.3,35.8 72.5,35.7 72.7,35.6 73,35.5 73.2,35.4 73.4,35.4 73.7,35.3 73.9,35.3 74.2,35.2 74.5,35.2 74.7,35.2 75,35.2 75,35.2 75.3,35.2 75.5,35.2 75.7,35.2 76,35.3 76.2,35.3 76.4,35.3 76.6,35.4 76.7,35.4 76.9,35.5 77.1,35.5 77.2,35.6 77.3,35.6 77.4,35.6 77.5,35.7 77.6,35.7 77.7,35.7 77.3,37.8 "></polyline> <polygon class="st3" points="96,45.5 93.9,45.5 94,44.6 94,44.6 93.9,44.7 93.8,44.9 93.6,45 93.5,45.1 93.4,45.2 93.2,45.3 93.1,45.3 92.9,45.4 92.8,45.5 92.7,45.5 92.5,45.5 92.4,45.6 92.2,45.6 92.1,45.6 91.9,45.6 91.8,45.6 91.4,45.6 91,45.5 90.7,45.4 90.4,45.2 90.1,45 89.8,44.7 89.6,44.4 89.4,44.1 89.3,43.8 89.2,43.4 89.1,43 89,42.7 89,42.3 89,41.9 89.1,41.5 89.1,41.1 89.2,40.6 89.4,40.2 89.5,39.8 89.7,39.5 89.9,39.1 90.1,38.8 90.4,38.6 90.6,38.3 90.9,38.1 91.2,37.9 91.5,37.7 91.8,37.6 92.1,37.5 92.4,37.4 92.7,37.4 93,37.4 93.2,37.4 93.4,37.4 93.6,37.4 93.8,37.5 94,37.5 94.1,37.6 94.3,37.7 94.4,37.8 94.5,37.9 94.6,38 94.7,38.1 94.8,38.2 94.9,38.3 95,38.4 95,38.5 95.1,38.5 95.1,38.5 95.6,35.6 97.7,35.6 96,45.5 96,45.5 "></polygon> <polyline class="st4" points="96,45.5 93.9,45.5 94,44.6 94,44.6 94,44.6 93.9,44.7 93.8,44.9 93.6,45 93.5,45.1 93.4,45.2 93.2,45.3 93.1,45.3 92.9,45.4 92.8,45.5 92.7,45.5 92.5,45.5 92.4,45.6 92.2,45.6 92.1,45.6 91.9,45.6 91.8,45.6 91.8,45.6 91.4,45.6 91,45.5 90.7,45.4 90.4,45.2 90.1,45 89.8,44.7 89.6,44.4 89.4,44.1 89.3,43.8 89.2,43.4 89.1,43 89,42.7 89,42.3 89,41.9 89.1,41.5 89.1,41.1 89.1,41.1 89.2,40.6 89.4,40.2 89.5,39.8 89.7,39.5 89.9,39.1 90.1,38.8 90.4,38.6 90.6,38.3 90.9,38.1 91.2,37.9 91.5,37.7 91.8,37.6 92.1,37.5 92.4,37.4 92.7,37.4 93,37.4 93,37.4 93.2,37.4 93.4,37.4 93.6,37.4 93.8,37.5 94,37.5 94.1,37.6 94.3,37.7 94.4,37.8 94.5,37.9 94.6,38 94.7,38.1 94.8,38.2 94.9,38.3 95,38.4 95,38.5 95.1,38.5 95.1,38.5 95.6,35.6 97.7,35.6 96,45.5 "></polyline> <polygon class="st1" points="92.5,43.7 92.7,43.6 92.9,43.6 93.1,43.5 93.3,43.5 93.4,43.4 93.6,43.3 93.7,43.1 93.9,43 94,42.8 94.1,42.7 94.2,42.5 94.3,42.3 94.4,42.1 94.4,41.9 94.5,41.7 94.5,41.5 94.5,41.3 94.6,41.1 94.6,40.9 94.6,40.7 94.5,40.5 94.5,40.3 94.5,40.1 94.4,39.9 94.3,39.8 94.2,39.6 94.1,39.5 94,39.4 93.9,39.3 93.7,39.2 93.6,39.2 93.4,39.2 93.2,39.2 93,39.2 92.9,39.3 92.7,39.4 92.5,39.5 92.4,39.6 92.3,39.7 92.1,39.9 92,40 91.9,40.2 91.8,40.4 91.7,40.6 91.7,40.8 91.6,41 91.5,41.2 91.5,41.4 91.5,41.8 91.5,42.1 91.5,42.5 91.6,42.9 91.8,43.2 92,43.4 92.2,43.6 92.5,43.7 92.5,43.7 "></polygon> <polygon class="st3" points="45.9,43.8 45.6,45.5 43.7,45.5 43.7,45.2 43.8,44.9 43.8,44.7 43.8,44.6 43.7,44.7 43.6,44.8 43.5,44.9 43.3,45 43.1,45.1 42.9,45.2 42.7,45.3 42.5,45.4 42.3,45.5 42.1,45.5 41.9,45.6 41.6,45.6 41.4,45.6 41.2,45.6 41,45.6 40.8,45.6 40.5,45.5 40.3,45.4 40.1,45.3 39.9,45.2 39.7,45.1 39.6,45 39.4,44.8 39.3,44.7 39.2,44.5 39.2,44.3 39.1,44.2 39.1,44 39,43.8 39,43.6 39,43.5 39,43.3 39,43 39.1,42.7 39.1,42.5 39.2,42.2 39.4,42 39.5,41.7 39.7,41.5 39.8,41.3 40,41.2 40.2,41 40.5,40.9 40.7,40.7 40.9,40.6 41.2,40.6 41.4,40.5 41.7,40.4 41.7,40.4 41.8,40.4 41.8,40.4 41.9,40.4 42,40.4 42.1,40.4 42.2,40.4 42.3,40.4 42.5,40.4 42.6,40.3 42.7,40.3 42.8,40.3 43,40.3 43.1,40.3 43.2,40.3 43.3,40.3 43.4,40.3 43.6,40.3 43.8,40.3 44,40.3 44.1,40.3 44.2,40.3 44.3,40.3 44.3,40.3 44.3,40.3 44.4,40.1 44.4,40 44.4,39.8 44.4,39.7 44.3,39.5 44.2,39.4 44.1,39.3 44,39.2 43.8,39.1 43.6,39.1 43.4,39 43.2,39 43,39 42.7,39 42.5,39 42.3,39 42,39.1 41.8,39.1 41.5,39.1 41.3,39.2 41.1,39.2 40.9,39.2 40.7,39.3 40.5,39.3 40.4,39.4 40.3,39.4 40.2,39.5 40.8,37.6 40.9,37.6 41.1,37.5 41.3,37.4 41.5,37.4 41.6,37.4 41.8,37.3 42,37.3 42.2,37.3 42.4,37.3 42.7,37.3 42.9,37.3 43.1,37.3 43.4,37.3 43.6,37.3 43.9,37.3 44.2,37.3 44.4,37.3 44.6,37.3 44.8,37.4 45.1,37.5 45.3,37.5 45.5,37.6 45.8,37.8 46,37.9 46.2,38.1 46.3,38.3 46.5,38.5 46.6,38.7 46.7,38.9 46.7,39.2 46.7,39.5 46.7,39.8 45.9,43.8 45.9,43.8 "></polygon> <polyline class="st4" points="45.9,43.8 45.6,45.5 43.7,45.5 43.7,45.5 43.7,45.2 43.8,44.9 43.8,44.7 43.8,44.6 43.8,44.6 43.7,44.7 43.6,44.8 43.5,44.9 43.3,45 43.1,45.1 42.9,45.2 42.7,45.3 42.5,45.4 42.3,45.5 42.1,45.5 41.9,45.6 41.6,45.6 41.4,45.6 41.2,45.6 41,45.6 40.8,45.6 40.8,45.6 40.5,45.5 40.3,45.4 40.1,45.3 39.9,45.2 39.7,45.1 39.6,45 39.4,44.8 39.3,44.7 39.2,44.5 39.2,44.3 39.1,44.2 39.1,44 39,43.8 39,43.6 39,43.5 39,43.3 39,43.3 39,43 39.1,42.7 39.1,42.5 39.2,42.2 39.4,42 39.5,41.7 39.7,41.5 39.8,41.3 40,41.2 40.2,41 40.5,40.9 40.7,40.7 40.9,40.6 41.2,40.6 41.4,40.5 41.7,40.4 41.7,40.4 41.7,40.4 41.8,40.4 41.8,40.4 41.9,40.4 42,40.4 42.1,40.4 42.2,40.4 42.3,40.4 42.5,40.4 42.6,40.3 42.7,40.3 42.8,40.3 43,40.3 43.1,40.3 43.2,40.3 43.3,40.3 43.3,40.3 43.4,40.3 43.6,40.3 43.8,40.3 44,40.3 44.1,40.3 44.2,40.3 44.3,40.3 44.3,40.3 44.3,40.3 44.3,40.3 44.4,40.1 44.4,40 44.4,39.8 44.4,39.8 44.4,39.7 44.3,39.5 44.2,39.4 44.1,39.3 44,39.2 43.8,39.1 43.6,39.1 43.4,39 43.4,39 43.2,39 43,39 42.7,39 42.5,39 42.3,39 42,39.1 41.8,39.1 41.5,39.1 41.3,39.2 41.1,39.2 40.9,39.2 40.7,39.3 40.5,39.3 40.4,39.4 40.3,39.4 40.2,39.5 40.8,37.6 40.8,37.6 40.9,37.6 41.1,37.5 41.3,37.4 41.5,37.4 41.6,37.4 41.8,37.3 42,37.3 42.2,37.3 42.4,37.3 42.7,37.3 42.9,37.3 43.1,37.3 43.4,37.3 43.6,37.3 43.9,37.3 44.2,37.3 44.2,37.3 44.4,37.3 44.6,37.3 44.8,37.4 45.1,37.5 45.3,37.5 45.5,37.6 45.8,37.8 46,37.9 46.2,38.1 46.3,38.3 46.5,38.5 46.6,38.7 46.7,38.9 46.7,39.2 46.7,39.5 46.7,39.8 45.9,43.8 "></polyline> <polygon class="st2" points="44.1,41.8 44.1,41.8 44,41.7 44,41.7 43.9,41.7 43.8,41.7 43.7,41.7 43.6,41.7 43.5,41.7 43.4,41.7 43.3,41.7 43.1,41.7 43,41.7 42.9,41.8 42.8,41.8 42.7,41.8 42.6,41.8 42.6,41.8 42.5,41.9 42.4,41.9 42.3,41.9 42.2,42 42.1,42 42,42.1 41.9,42.1 41.8,42.2 41.7,42.3 41.6,42.4 41.6,42.5 41.5,42.6 41.4,42.7 41.4,42.8 41.4,42.9 41.4,43.2 41.4,43.4 41.5,43.5 41.6,43.7 41.7,43.7 41.8,43.8 41.9,43.8 42.1,43.8 42.3,43.8 42.5,43.8 42.7,43.7 42.9,43.7 43,43.6 43.2,43.6 43.3,43.5 43.4,43.4 43.5,43.3 43.6,43.3 43.7,43.2 43.7,43.1 43.8,43 43.8,42.9 43.9,42.8 43.9,42.7 43.9,42.5 44,42.3 44,42 44.1,41.8 44.1,41.8 "></polygon> <polygon class="st3" points="29.9,45.5 27.9,45.5 29.6,35.5 33.2,35.5 33.5,41.4 36,35.5 39.8,35.5 38,45.5 35.9,45.5 37.2,38 37.2,38 34.1,45.5 31.7,45.5 31.7,45.2 31.7,44.4 31.6,43.2 31.5,41.8 31.4,40.5 31.4,39.3 31.3,38.4 31.3,38 31.3,38 31.2,38 31.2,38 31.2,38 29.9,45.5 29.9,45.5 "></polygon> <polyline class="st4" points="29.9,45.5 27.9,45.5 29.6,35.5 33.2,35.5 33.5,41.4 36,35.5 39.8,35.5 38,45.5 35.9,45.5 37.2,38 37.2,38 34.1,45.5 31.7,45.5 31.7,45.5 31.7,45.2 31.7,44.4 31.6,43.2 31.5,41.8 31.4,40.5 31.4,39.3 31.3,38.4 31.3,38 31.3,38 31.3,38 31.2,38 31.2,38 31.2,38 29.9,45.5 "></polyline> <polygon class="st3" points="83.6,43.8 83.3,45.5 81.4,45.5 81.4,45.2 81.4,44.9 81.4,44.7 81.4,44.6 81.3,44.7 81.2,44.8 81.1,44.9 80.9,45.1 80.7,45.1 80.6,45.2 80.4,45.3 80.2,45.4 80,45.5 79.8,45.5 79.6,45.6 79.3,45.6 79.1,45.6 78.9,45.6 78.7,45.6 78.5,45.6 78.2,45.5 78,45.4 77.8,45.3 77.6,45.2 77.4,45.1 77.3,45 77.1,44.8 77,44.7 76.9,44.5 76.9,44.3 76.8,44.2 76.8,44 76.7,43.8 76.7,43.6 76.7,43.5 76.7,43.3 76.7,43 76.8,42.7 76.8,42.5 76.9,42.2 77,42 77.2,41.7 77.3,41.5 77.5,41.3 77.7,41.2 77.9,41 78.1,40.9 78.4,40.7 78.6,40.6 78.9,40.6 79.1,40.5 79.4,40.4 79.4,40.4 79.4,40.4 79.5,40.4 79.6,40.4 79.7,40.4 79.8,40.4 79.9,40.4 80,40.4 80.1,40.4 80.3,40.3 80.4,40.3 80.5,40.3 80.6,40.3 80.7,40.3 80.9,40.3 80.9,40.3 81.1,40.3 81.3,40.3 81.5,40.3 81.6,40.3 81.8,40.3 81.9,40.3 82,40.3 82,40.3 82,40.3 82,40.1 82.1,40 82.1,39.8 82.1,39.7 82,39.5 81.9,39.4 81.8,39.3 81.6,39.2 81.5,39.1 81.3,39.1 81.1,39 80.9,39 80.7,39 80.5,39 80.2,39 80,39 79.7,39.1 79.5,39.1 79.2,39.1 79,39.2 78.8,39.2 78.6,39.2 78.4,39.3 78.3,39.3 78.1,39.4 78,39.4 77.9,39.5 78.5,37.6 78.6,37.6 78.8,37.5 79,37.4 79.2,37.4 79.3,37.4 79.5,37.3 79.7,37.3 79.9,37.3 80.1,37.3 80.4,37.3 80.6,37.3 80.8,37.3 81.1,37.3 81.3,37.3 81.6,37.3 81.8,37.3 82,37.3 82.3,37.3 82.5,37.4 82.7,37.5 83,37.5 83.2,37.6 83.4,37.8 83.6,37.9 83.8,38.1 84,38.3 84.2,38.5 84.3,38.7 84.4,38.9 84.4,39.2 84.4,39.5 84.4,39.8 83.6,43.8 83.6,43.8 "></polygon> <polygon class="st3" points="83.3,45.5 83.3,45.5 83.6,43.8 83.5,43.8 83.2,45.5 83.3,45.4 83.3,45.5 83.3,45.5 83.3,45.5 83.3,45.5 83.3,45.5 "></polygon> <polygon class="st3" points="81.3,45.5 81.4,45.5 83.3,45.5 83.3,45.4 81.4,45.4 81.4,45.5 81.3,45.5 81.3,45.5 81.4,45.5 81.3,45.5 81.3,45.5 "></polygon> <polygon class="st3" points="81.4,44.6 81.4,44.6 81.3,44.7 81.3,44.9 81.3,45.2 81.3,45.5 81.4,45.5 81.4,45.2 81.4,44.9 81.4,44.7 81.4,44.6 81.4,44.6 81.4,44.6 81.4,44.6 "></polygon> <polygon class="st3" points="78.5,45.6 78.5,45.6 78.7,45.6 78.9,45.7 79.1,45.7 79.3,45.6 79.6,45.6 79.8,45.6 80,45.5 80.2,45.5 80.4,45.4 80.6,45.3 80.8,45.2 80.9,45.1 81.1,45 81.2,44.9 81.3,44.8 81.4,44.6 81.4,44.6 81.3,44.7 81.2,44.8 81,44.9 80.9,45 80.7,45.1 80.5,45.2 80.4,45.3 80.2,45.4 80,45.4 79.8,45.5 79.5,45.5 79.3,45.6 79.1,45.6 78.9,45.6 78.7,45.6 78.5,45.5 78.5,45.5 78.5,45.6 78.5,45.6 "></polygon> <polygon class="st3" points="76.7,43.3 76.7,43.3 76.7,43.5 76.7,43.6 76.7,43.8 76.7,44 76.8,44.2 76.8,44.3 76.9,44.5 77,44.7 77.1,44.8 77.2,45 77.4,45.1 77.5,45.2 77.7,45.4 78,45.5 78.2,45.5 78.5,45.6 78.5,45.5 78.2,45.5 78,45.4 77.8,45.3 77.6,45.2 77.4,45.1 77.3,44.9 77.2,44.8 77.1,44.6 77,44.5 76.9,44.3 76.9,44.2 76.8,44 76.8,43.8 76.8,43.6 76.7,43.5 76.8,43.3 76.8,43.3 76.7,43.3 76.7,43.3 "></polygon> <polygon class="st3" points="79.4,40.4 79.4,40.4 79.1,40.4 78.9,40.5 78.6,40.6 78.4,40.7 78.1,40.8 77.9,41 77.7,41.1 77.5,41.3 77.3,41.5 77.2,41.7 77,41.9 76.9,42.2 76.8,42.5 76.7,42.7 76.7,43 76.7,43.3 76.8,43.3 76.8,43 76.8,42.7 76.9,42.5 77,42.2 77.1,42 77.2,41.8 77.4,41.6 77.6,41.4 77.8,41.2 78,41 78.2,40.9 78.4,40.8 78.6,40.7 78.9,40.6 79.1,40.5 79.4,40.5 79.4,40.5 79.4,40.4 79.4,40.4 "></polygon> <polygon class="st3" points="80.9,40.2 80.9,40.2 80.9,40.2 80.7,40.3 80.6,40.3 80.5,40.3 80.4,40.3 80.3,40.3 80.1,40.3 80,40.3 79.9,40.3 79.8,40.4 79.7,40.4 79.6,40.4 79.5,40.4 79.4,40.4 79.4,40.4 79.4,40.4 79.4,40.5 79.4,40.5 79.4,40.5 79.5,40.5 79.6,40.5 79.7,40.5 79.8,40.4 79.9,40.4 80,40.4 80.1,40.4 80.3,40.4 80.4,40.4 80.5,40.4 80.6,40.4 80.7,40.3 80.9,40.3 80.9,40.3 80.9,40.3 80.9,40.2 80.9,40.2 "></polygon> <polygon class="st3" points="82,40.3 82,40.3 82,40.3 81.9,40.3 81.8,40.3 81.6,40.3 81.5,40.3 81.3,40.3 81.1,40.2 80.9,40.2 80.9,40.3 81.1,40.3 81.3,40.3 81.5,40.4 81.6,40.4 81.8,40.4 81.9,40.4 82,40.4 82,40.4 82.1,40.3 82,40.4 82,40.4 82.1,40.3 82,40.3 82,40.3 "></polygon> <polygon class="st3" points="82,39.8 82,39.8 82,40 82,40.1 82,40.3 82,40.3 82.1,40.3 82.1,40.3 82.1,40.1 82.1,40 82.1,39.8 82.1,39.8 82,39.8 82,39.8 "></polygon> <polygon class="st3" points="81.1,39.1 81.1,39.1 81.3,39.1 81.5,39.1 81.6,39.2 81.8,39.3 81.9,39.4 81.9,39.5 82,39.7 82,39.8 82.1,39.8 82.1,39.7 82,39.5 81.9,39.3 81.8,39.2 81.7,39.1 81.5,39.1 81.3,39 81.1,39 81.1,39 81.1,39.1 81.1,39.1 "></polygon> <polygon class="st3" points="77.9,39.4 78,39.5 78,39.5 78.1,39.4 78.3,39.4 78.4,39.3 78.6,39.3 78.8,39.2 79,39.2 79.2,39.2 79.5,39.1 79.7,39.1 80,39.1 80.2,39.1 80.5,39.1 80.7,39.1 80.9,39.1 81.1,39.1 81.1,39 80.9,39 80.7,39 80.5,39 80.2,39 80,39 79.7,39 79.5,39 79.2,39.1 79,39.1 78.8,39.1 78.6,39.2 78.4,39.2 78.2,39.3 78.1,39.3 78,39.4 77.9,39.4 78,39.5 77.9,39.4 77.9,39.4 "></polygon> <polygon class="st3" points="78.4,37.6 78.4,37.6 77.9,39.4 78,39.5 78.5,37.6 78.5,37.7 78.4,37.6 78.4,37.6 78.4,37.6 78.4,37.6 78.4,37.6 "></polygon> <polygon class="st3" points="81.8,37.2 81.8,37.2 81.6,37.2 81.3,37.2 81.1,37.2 80.8,37.2 80.6,37.2 80.4,37.2 80.1,37.2 79.9,37.2 79.7,37.3 79.5,37.3 79.3,37.3 79.1,37.4 79,37.4 78.8,37.5 78.6,37.5 78.4,37.6 78.5,37.7 78.6,37.6 78.8,37.5 79,37.5 79.2,37.5 79.4,37.4 79.5,37.4 79.7,37.4 79.9,37.3 80.1,37.3 80.4,37.3 80.6,37.3 80.8,37.3 81.1,37.3 81.3,37.3 81.6,37.3 81.8,37.3 81.8,37.3 81.8,37.2 81.8,37.2 "></polygon> <polygon class="st3" points="84.4,39.8 84.4,39.8 84.5,39.5 84.5,39.2 84.4,38.9 84.3,38.7 84.2,38.5 84,38.2 83.9,38.1 83.7,37.9 83.5,37.7 83.2,37.6 83,37.5 82.8,37.4 82.5,37.3 82.3,37.3 82,37.2 81.8,37.2 81.8,37.3 82,37.3 82.3,37.4 82.5,37.4 82.7,37.5 83,37.6 83.2,37.7 83.4,37.8 83.6,38 83.8,38.1 84,38.3 84.1,38.5 84.2,38.7 84.3,39 84.4,39.2 84.4,39.5 84.3,39.8 84.3,39.8 84.4,39.8 84.4,39.8 "></polygon> <polygon class="st3" points="83.6,43.8 83.6,43.8 84.4,39.8 84.3,39.8 83.5,43.8 83.5,43.8 83.6,43.8 83.6,43.8 "></polygon> <polygon class="st1" points="81.7,41.8 81.7,41.8 81.7,41.7 81.6,41.7 81.6,41.7 81.5,41.7 81.4,41.7 81.3,41.7 81.2,41.7 81,41.7 80.9,41.7 80.8,41.7 80.7,41.7 80.6,41.8 80.5,41.8 80.4,41.8 80.3,41.8 80.2,41.8 80.2,41.9 80.1,41.9 80,41.9 79.9,42 79.8,42 79.7,42.1 79.6,42.1 79.5,42.2 79.4,42.3 79.3,42.4 79.3,42.5 79.2,42.6 79.1,42.7 79.1,42.8 79.1,42.9 79.1,43.2 79.1,43.4 79.2,43.5 79.3,43.7 79.4,43.7 79.5,43.8 79.6,43.8 79.8,43.8 80,43.8 80.2,43.8 80.4,43.7 80.6,43.7 80.7,43.6 80.9,43.6 81,43.5 81.1,43.4 81.2,43.3 81.3,43.2 81.4,43.1 81.5,43 81.5,42.9 81.6,42.8 81.6,42.7 81.6,42.7 81.7,42.4 81.7,42.2 81.7,42 81.7,41.8 81.7,41.8 "></polygon> <polygon class="st3" points="97.4,44.5 97.4,44.3 97.5,44.1 97.6,43.9 97.7,43.7 97.9,43.6 98,43.5 98.2,43.4 98.4,43.4 98.7,43.4 98.9,43.5 99,43.6 99.2,43.7 99.3,43.9 99.4,44.1 99.5,44.3 99.5,44.5 99.3,44.5 99.3,44.3 99.2,44.1 99.1,44 99.1,43.9 98.9,43.8 98.8,43.7 98.6,43.6 98.4,43.6 98.3,43.6 98.1,43.7 98,43.8 97.8,43.9 97.7,44 97.7,44.1 97.6,44.3 97.6,44.5 97.4,44.5 97.4,44.5 "></polygon> <polygon class="st3" points="98.1,44.5 98.1,44 98.5,44 98.6,44 98.7,44 98.7,44 98.8,44.1 98.8,44.1 98.8,44.2 98.9,44.2 98.9,44.3 98.9,44.3 98.8,44.4 98.8,44.4 98.8,44.5 98.5,44.5 98.5,44.4 98.6,44.4 98.6,44.4 98.6,44.4 98.7,44.4 98.7,44.4 98.7,44.3 98.7,44.3 98.7,44.2 98.7,44.2 98.7,44.2 98.6,44.2 98.6,44.2 98.6,44.2 98.5,44.2 98.5,44.2 98.3,44.2 98.3,44.5 98.1,44.5 98.1,44.5 "></polygon> <polygon class="st3" points="97.4,44.5 97.4,44.5 97.4,44.7 97.5,44.9 97.6,45.1 97.7,45.3 97.9,45.4 98,45.5 98.2,45.5 98.4,45.6 98.7,45.5 98.9,45.5 99,45.4 99.2,45.3 99.3,45.1 99.4,44.9 99.5,44.7 99.5,44.5 99.5,44.5 99.3,44.5 99.3,44.5 99.3,44.7 99.2,44.8 99.1,45 99.1,45.1 98.9,45.2 98.8,45.3 98.6,45.4 98.4,45.4 98.3,45.4 98.1,45.3 98,45.2 97.8,45.1 97.7,45 97.7,44.8 97.6,44.7 97.6,44.5 97.6,44.5 97.4,44.5 97.4,44.5 "></polygon> <polygon class="st3" points="98.1,44.5 98.1,44.9 98.3,44.9 98.3,44.5 98.4,44.5 98.7,44.9 98.8,44.9 98.6,44.5 98.6,44.5 98.7,44.5 98.7,44.5 98.8,44.5 98.8,44.5 98.5,44.5 98.4,44.5 98.3,44.5 98.3,44.5 98.1,44.5 98.1,44.5 "></polygon> <path class="st4" d="M97.4,44.5L97.4,44.5l0-0.2l0.1-0.2l0.1-0.2l0.1-0.2l0.2-0.1l0.2-0.1l0.2-0.1l0.2,0l0,0l0.2,0l0.2,0.1 l0.2,0.1l0.2,0.1l0.1,0.2l0.1,0.2l0.1,0.2l0,0.2l0,0l0,0.2l-0.1,0.2l-0.1,0.2l-0.1,0.2L99,45.4l-0.2,0.1l-0.2,0.1l-0.2,0l0,0 l-0.2,0L98,45.5l-0.2-0.1l-0.2-0.1l-0.1-0.2l-0.1-0.2l-0.1-0.2L97.4,44.5 M98.3,44.9h-0.2V44h0.4l0,0l0.1,0l0.1,0l0.1,0l0.1,0l0,0 l0,0l0,0.1l0,0.1l0,0l0,0.1l0,0.1l0,0l0,0l0,0l0,0l-0.1,0h-0.1l0.2,0.4h-0.2l-0.2-0.4h-0.2V44.9 M98.4,44.5L98.4,44.5L98.4,44.5 l0.1,0l0,0l0,0l0,0l0,0l0,0v-0.1l0,0l0,0l0,0l0,0l0,0l0,0l0,0h0h0h-0.2v0.3H98.4 M98.4,45.4L98.4,45.4l0.2,0l0.2-0.1l0.1-0.1 l0.1-0.1l0.1-0.1l0.1-0.1l0-0.2l0-0.2l0,0l0-0.2l0-0.2L99.1,44l-0.1-0.1l-0.1-0.1l-0.1-0.1l-0.2-0.1l-0.2,0l0,0l-0.2,0l-0.2,0.1 L98,43.8l-0.1,0.1L97.7,44l-0.1,0.2l0,0.2l0,0.2l0,0l0,0.2l0,0.2l0.1,0.1l0.1,0.1l0.1,0.1l0.1,0.1l0.2,0.1L98.4,45.4"></path> <polygon class="st3" points="84.2,45.5 86.3,45.5 86.3,45.5 87.1,41.2 87.1,41 87.1,40.8 87.2,40.7 87.2,40.5 87.3,40.3 87.4,40.2 87.5,40 87.6,39.9 87.8,39.8 87.9,39.6 88.1,39.5 88.3,39.4 88.5,39.3 88.8,39.3 89,39.2 89.3,39.2 89.4,39.2 89.5,39.2 89.5,39.2 89.5,39.2 89.8,37.3 89.6,37.3 89.4,37.3 89.2,37.4 89.1,37.4 88.9,37.5 88.7,37.5 88.6,37.6 88.4,37.7 88.3,37.8 88.2,37.9 88,38.1 87.9,38.2 87.8,38.3 87.7,38.4 87.6,38.6 87.5,38.7 87.7,37.4 85.6,37.4 84.2,45.5 84.2,45.5 84.2,45.5 "></polygon> <polyline class="st4" points="84.2,45.5 86.3,45.5 86.3,45.5 87.1,41.2 87.1,41.2 87.1,41 87.1,40.8 87.2,40.7 87.2,40.5 87.3,40.3 87.4,40.2 87.5,40 87.6,39.9 87.8,39.8 87.9,39.6 88.1,39.5 88.3,39.4 88.5,39.3 88.8,39.3 89,39.2 89.3,39.2 89.3,39.2 89.4,39.2 89.5,39.2 89.5,39.2 89.5,39.2 89.8,37.3 89.8,37.3 89.6,37.3 89.4,37.3 89.2,37.4 89.1,37.4 88.9,37.5 88.7,37.5 88.6,37.6 88.4,37.7 88.3,37.8 88.2,37.9 88,38.1 87.9,38.2 87.8,38.3 87.7,38.4 87.6,38.6 87.5,38.7 87.7,37.4 85.6,37.4 84.2,45.5 84.2,45.5 "></polyline> <polygon class="st3" points="64,45.5 66.2,45.5 66.2,45.5 67,41.2 67,41 67,40.8 67.1,40.7 67.1,40.5 67.2,40.4 67.3,40.2 67.3,40.1 67.4,40 67.6,39.9 67.7,39.7 67.9,39.7 68.1,39.6 68.3,39.5 68.5,39.4 68.8,39.4 69.1,39.4 69.1,39.4 69.1,39.4 69.2,39.4 69.2,39.4 69.2,39.4 69.3,39.4 69.3,39.4 69.3,39.4 69.3,39.4 69.3,39.3 69.3,39.2 69.4,39 69.4,38.8 69.5,38.6 69.6,38.4 69.6,38.2 69.7,38 69.8,37.9 69.8,37.7 69.9,37.6 70,37.5 70,37.4 70.1,37.3 70.1,37.3 70.1,37.3 70.1,37.3 70,37.3 70,37.3 69.9,37.3 69.8,37.3 69.8,37.3 69.7,37.3 69.5,37.3 69.3,37.3 69.1,37.4 68.9,37.4 68.7,37.5 68.6,37.5 68.4,37.6 68.3,37.7 68.2,37.8 68,37.9 67.9,38 67.8,38.2 67.7,38.3 67.6,38.4 67.5,38.6 67.4,38.7 67.6,37.4 65.5,37.4 64,45.5 64,45.5 64,45.5 "></polygon> <polyline class="st4" points="64,45.5 66.2,45.5 66.2,45.5 67,41.2 67,41.2 67,41 67,40.8 67.1,40.7 67.1,40.5 67.2,40.4 67.3,40.2 67.3,40.1 67.4,40 67.6,39.9 67.7,39.7 67.9,39.7 68.1,39.6 68.3,39.5 68.5,39.4 68.8,39.4 69.1,39.4 69.1,39.4 69.1,39.4 69.1,39.4 69.2,39.4 69.2,39.4 69.2,39.4 69.3,39.4 69.3,39.4 69.3,39.4 69.3,39.4 69.3,39.4 69.3,39.3 69.3,39.2 69.4,39 69.4,38.8 69.5,38.6 69.6,38.4 69.6,38.2 69.6,38.2 69.7,38 69.8,37.9 69.8,37.7 69.9,37.6 70,37.5 70,37.4 70.1,37.3 70.1,37.3 70.1,37.3 70.1,37.3 70.1,37.3 70,37.3 70,37.3 69.9,37.3 69.8,37.3 69.8,37.3 69.7,37.3 69.7,37.3 69.5,37.3 69.3,37.3 69.1,37.4 68.9,37.4 68.7,37.5 68.6,37.5 68.4,37.6 68.3,37.7 68.2,37.8 68,37.9 67.9,38 67.8,38.2 67.7,38.3 67.6,38.4 67.5,38.6 67.4,38.7 67.6,37.4 65.5,37.4 64,45.5 64,45.5 "></polyline> <polygon class="st1" points="97.4,53.5 97.4,53.4 97.5,53.2 97.6,53.1 97.7,52.9 97.9,52.8 98,52.7 98.2,52.7 98.4,52.6 98.7,52.7 98.9,52.7 99,52.8 99.2,52.9 99.3,53.1 99.4,53.2 99.5,53.4 99.5,53.5 99.3,53.5 99.2,53.3 99.1,53.2 99.1,53 98.9,52.9 98.8,52.9 98.6,52.8 98.4,52.8 98.3,52.8 98.1,52.9 98,52.9 97.8,53 97.7,53.2 97.7,53.3 97.6,53.5 97.4,53.5 97.4,53.5 "></polygon> <polygon class="st1" points="98.1,53.5 98.1,53.2 98.5,53.2 98.6,53.2 98.7,53.2 98.7,53.2 98.8,53.3 98.8,53.3 98.8,53.4 98.9,53.4 98.9,53.5 98.7,53.5 98.7,53.4 98.7,53.4 98.7,53.4 98.7,53.4 98.6,53.3 98.6,53.3 98.6,53.3 98.5,53.3 98.5,53.3 98.3,53.3 98.3,53.5 98.1,53.5 98.1,53.5 "></polygon> <polygon class="st1" points="97.4,53.6 97.4,53.5 97.6,53.5 97.6,53.5 97.6,53.6 97.4,53.6 97.4,53.6 "></polygon> <polygon class="st1" points="98.1,53.6 98.1,53.5 98.3,53.5 98.3,53.6 98.4,53.6 98.5,53.6 98.6,53.6 98.6,53.6 98.6,53.6 98.7,53.6 98.7,53.5 98.7,53.5 98.7,53.5 98.9,53.5 98.9,53.5 98.9,53.5 98.8,53.6 98.8,53.6 98.8,53.6 98.1,53.6 98.1,53.6 "></polygon> <polygon class="st1" points="99.3,53.6 99.3,53.5 99.3,53.5 99.5,53.5 99.5,53.6 99.3,53.6 99.3,53.6 "></polygon> <polygon class="st1" points="97.4,53.6 97.4,53.7 97.4,53.9 97.5,54.1 97.6,54.3 97.7,54.4 97.9,54.6 98,54.7 98.2,54.7 98.4,54.7 98.7,54.7 98.9,54.7 99,54.6 99.2,54.4 99.3,54.3 99.4,54.1 99.5,53.9 99.5,53.7 99.5,53.6 99.3,53.6 99.3,53.7 99.3,53.8 99.2,54 99.1,54.2 99.1,54.3 98.9,54.4 98.8,54.5 98.6,54.5 98.4,54.5 98.3,54.5 98.1,54.5 98,54.4 97.8,54.3 97.7,54.2 97.7,54 97.6,53.8 97.6,53.7 97.6,53.6 97.4,53.6 97.4,53.6 "></polygon> <polygon class="st1" points="98.1,53.6 98.1,54.1 98.3,54.1 98.3,53.7 98.4,53.7 98.7,54.1 98.8,54.1 98.6,53.7 98.6,53.7 98.7,53.7 98.7,53.7 98.8,53.6 98.8,53.6 98.1,53.6 98.1,53.6 "></polygon> <path class="st3" d="M64.3,39.8l-0.1-0.5l-0.1-0.4L64,38.6l-0.2-0.3L63.5,38l-0.3-0.2L63,37.6l-0.3-0.1l-0.3-0.1l-0.3-0.1 l-0.3-0.1l-0.3,0l-0.3,0l-0.6,0L60,37.3l-0.5,0.1l-0.4,0.2l-0.4,0.2l-0.3,0.3l-0.3,0.3l-0.2,0.3L57.6,39l-0.2,0.3l-0.1,0.3 L57.2,40l-0.1,0.3l-0.1,0.3l0,0.3l0,0.2l0,0.6l0,0.6l0.1,0.5l0.1,0.4l0.2,0.4l0.2,0.3l0.3,0.3l0.3,0.3l0.3,0.2l0.3,0.2l0.4,0.1 l0.4,0.1l0.4,0.1l0.4,0.1l0.4,0l0.4,0h0.3l0.2,0h0.2l0.2,0l0.2,0l0.2,0l0.2,0l0.1,0l0.1,0l0.1,0l0.1,0l0.1,0l0.1,0l0.1,0l0.1-0.1 l0.1-0.1l0.3-1.9l-0.2,0.1l-0.2,0.1l-0.2,0.1L63,43.6l-0.2,0.1l-0.2,0l-0.2,0l-0.2,0l-0.2,0l-0.2,0h-0.2l-0.2,0l-0.2,0l-0.2,0 l-0.2,0l-0.2,0l-0.2,0l-0.2-0.1l-0.2-0.1l-0.1-0.1l-0.1-0.1l-0.1-0.1l-0.1-0.1L59.5,43l-0.1-0.1l-0.1-0.1l-0.1-0.1l-0.1-0.1l0-0.1 l0-0.1l0-0.1l0-0.1h4.9l0-0.5l0.1-0.6l0.1-0.6L64.3,39.8z M62.2,40.5h-2.8l0,0l0,0l0-0.1l0-0.2l0-0.2l0.1-0.2l0.1-0.1l0.1-0.1 l0.1-0.1l0.1-0.1l0.1-0.1l0.1-0.1l0.1-0.1l0.1-0.1l0.1-0.1l0.1,0l0.1,0l0.1,0l0.1,0l0.1,0l0.1,0l0.1,0l0.1,0l0.1,0.1l0.1,0.1 l0.1,0.1l0.1,0.1l0.1,0.1l0.1,0.1l0.1,0.1l0.1,0.1l0,0.2l0,0.2l0,0.2L62.2,40.5z"></path> </g> </g> </svg> 