<?xml version="1.0" encoding="utf-8"?>
<!-- Generator: Adobe Illustrator 16.0.0, SVG Export Plug-In . SVG Version: 6.00 Build 0)  -->
<!DOCTYPE svg PUBLIC "-//W3C//DTD SVG 1.1//EN" "http://www.w3.org/Graphics/SVG/1.1/DTD/svg11.dtd">
<svg version="1.1" id="Livello_1" xmlns="http://www.w3.org/2000/svg" xmlns:xlink="http://www.w3.org/1999/xlink" x="0px" y="0px"
	 width="169.437px" height="67px" viewBox="0 0 169.437 67" enable-background="new 0 0 169.437 67" xml:space="preserve">
<g>
	<path d="M63.368,18.356c4.126,0,7.392,2.158,9.177,5.607h5.605c-2.155-6.407-7.7-10.596-14.782-10.596
		c-8.749,0-15.892,7.515-15.892,16.694c0,9.179,7.144,16.571,15.892,16.571c7.083,0,12.689-4.188,14.782-10.595h-5.605
		c-1.722,3.448-4.991,5.605-9.177,5.605c-5.853,0-10.658-5.176-10.658-11.582C52.71,23.655,57.515,18.356,63.368,18.356"/>
	<path d="M12.508,18.827v-4.988H5.173V8.022H0v5.817v4.988v16.116c0,8.069,5.113,12.447,12.508,11.583V41.72
		c-3.945,0.245-7.334-1.171-7.334-6.777V18.827H12.508z"/>
	<path d="M94.292,13.819c-3.047,0-5.842,1.034-8.08,2.762V0.339h-5.179v26.599c0,0.049-0.006,0.094-0.006,0.143l0.006,19.093
		l5.179,0.009v-0.009V26.847c0-4.439,3.598-8.036,8.036-8.036c4.439,0,8.038,3.597,8.038,8.036v19.326h5.238V27.021v-0.292
		C107.524,19.563,101.496,13.819,94.292,13.819"/>
	<path d="M152.465,28.087V12.308h-8.646v15.5c-0.129-1.458-0.448-2.858-0.923-4.187c-0.02-0.056-0.041-0.108-0.059-0.162
		c-0.129-0.349-0.262-0.693-0.414-1.036c-0.116-0.27-0.245-0.543-0.385-0.813c-0.015-0.037-0.038-0.066-0.056-0.103
		c-0.113-0.228-0.247-0.453-0.374-0.675c-0.086-0.148-0.171-0.288-0.262-0.433c-0.229-0.369-0.473-0.729-0.726-1.08
		c-0.111-0.147-0.217-0.293-0.326-0.432c-0.152-0.197-0.306-0.395-0.464-0.584c-0.263-0.305-0.52-0.587-0.78-0.852
		c-0.068-0.075-0.144-0.153-0.217-0.229c-1.898-1.897-3.577-2.707-3.577-2.707v0.009c-2.48-1.403-5.339-2.218-8.391-2.218
		c-9.405,0-17.033,7.628-17.033,17.036c0,9.408,7.628,17.035,17.033,17.035c3.052,0,5.91-0.813,8.391-2.221v1.879h25.786h0.005
		V29.344h-0.013c0-4.637,3.762-8.4,8.4-8.4v-8.636C160.455,12.308,153.114,19.269,152.465,28.087"/>
	<path d="M29.443,41.771c-3.646,0-7.175-1.795-9.214-5.009l19.64-8.303l4.791-2.028c-0.163-0.925-0.516-1.944-0.857-2.78
		c-0.059-0.148-0.123-0.29-0.185-0.436c-0.16-0.375-0.307-0.69-0.418-0.922c-0.039-0.073-0.074-0.146-0.106-0.221
		c-0.056-0.104-0.089-0.169-0.089-0.169l-0.006,0.005c-2.896-5.488-8.315-8.589-13.864-8.589c-8.845,0-16.021,7.544-16.021,16.763
		c0,1.449,0.193,2.841,0.521,4.172l-0.019,0.009c0.038,0.131,0.08,0.277,0.125,0.435c0.207,0.75,0.46,1.48,0.76,2.183
		c0.258,0.627,0.571,1.279,0.948,1.899l0.021-0.007c2.833,4.796,7.971,7.946,13.974,7.946c7.365,0,12.681-3.834,15.154-10.639
		h-5.442C37.116,39.794,33.959,41.771,29.443,41.771 M18.556,32.184c-0.121-0.68-0.185-1.361-0.185-2.162
		c0-7.301,5.694-11.752,10.763-11.752c3.587,0,7.113,2.163,9.092,5.628c0,0,0.004,0.007,0.007,0.012l-19.678,8.277V32.184z"/>
	<path d="M1.821,61.155v5.675H1.049v-5.675h-1.076v-0.648h1.076v-0.576c0-0.27,0.021-0.517,0.062-0.747
		c0.041-0.227,0.118-0.426,0.23-0.588c0.114-0.163,0.275-0.289,0.475-0.377c0.198-0.092,0.455-0.138,0.763-0.138
		c0.117,0,0.222,0.005,0.321,0.014c0.096,0.009,0.206,0.021,0.329,0.036v0.662c-0.104-0.019-0.203-0.032-0.294-0.042
		c-0.088-0.015-0.178-0.021-0.268-0.021c-0.212,0-0.375,0.033-0.492,0.1c-0.115,0.065-0.197,0.15-0.25,0.263
		c-0.053,0.109-0.086,0.24-0.09,0.384c-0.009,0.148-0.014,0.307-0.014,0.48v0.55H3.07v0.648H1.821z"/>
	<path d="M10.663,66.83v-1.144h-0.023c-0.204,0.426-0.5,0.751-0.888,0.975C9.363,66.888,8.934,67,8.459,67
		c-0.4,0-0.741-0.058-1.022-0.165c-0.283-0.111-0.511-0.27-0.687-0.471c-0.177-0.207-0.303-0.457-0.385-0.748
		c-0.081-0.297-0.124-0.629-0.124-1.007v-4.103h0.772v4.115c0.017,0.572,0.148,1.006,0.399,1.297
		c0.247,0.295,0.678,0.445,1.292,0.445c0.334,0,0.621-0.075,0.858-0.215c0.237-0.145,0.432-0.335,0.587-0.57
		c0.155-0.242,0.269-0.511,0.342-0.816c0.074-0.307,0.109-0.617,0.109-0.938v-3.318h0.772v6.323H10.663z"/>
	<path d="M16.041,60.507v1.089h0.024c0.147-0.384,0.407-0.689,0.783-0.922c0.375-0.233,0.79-0.351,1.238-0.351
		c0.44,0,0.811,0.057,1.108,0.171c0.299,0.116,0.535,0.275,0.717,0.483c0.179,0.21,0.306,0.467,0.38,0.769
		c0.072,0.3,0.109,0.637,0.109,1.013v4.071h-0.771v-3.946c0-0.27-0.024-0.521-0.074-0.754c-0.047-0.232-0.133-0.436-0.256-0.606
		c-0.122-0.172-0.288-0.308-0.496-0.402c-0.209-0.1-0.468-0.148-0.779-0.148c-0.31,0-0.585,0.054-0.824,0.166
		c-0.241,0.11-0.447,0.261-0.615,0.452c-0.167,0.192-0.298,0.422-0.391,0.687c-0.095,0.264-0.147,0.552-0.153,0.86v3.692H15.27
		v-6.323H16.041z"/>
	<path d="M28.176,61.377c-0.285-0.271-0.684-0.404-1.198-0.404c-0.366,0-0.69,0.078-0.967,0.231
		c-0.279,0.158-0.511,0.36-0.694,0.613c-0.182,0.255-0.323,0.542-0.416,0.865c-0.094,0.322-0.141,0.649-0.141,0.982
		c0,0.335,0.047,0.664,0.141,0.988c0.093,0.32,0.233,0.61,0.416,0.864c0.183,0.253,0.415,0.458,0.694,0.612
		c0.276,0.154,0.601,0.234,0.967,0.234c0.237,0,0.46-0.048,0.673-0.137c0.211-0.088,0.4-0.215,0.563-0.374
		c0.163-0.159,0.298-0.351,0.406-0.569c0.105-0.221,0.171-0.463,0.195-0.723h0.771c-0.105,0.765-0.387,1.363-0.843,1.794
		C28.285,66.783,27.697,67,26.978,67c-0.483,0-0.908-0.09-1.279-0.265c-0.374-0.175-0.686-0.414-0.938-0.717
		c-0.254-0.301-0.444-0.655-0.576-1.06c-0.129-0.403-0.195-0.838-0.195-1.294s0.066-0.887,0.195-1.289
		c0.132-0.407,0.322-0.762,0.576-1.061c0.252-0.303,0.564-0.543,0.938-0.723c0.371-0.179,0.795-0.27,1.279-0.27
		c0.678,0,1.25,0.179,1.721,0.541c0.47,0.356,0.75,0.9,0.839,1.625h-0.772C28.662,62.017,28.464,61.647,28.176,61.377"/>
	<path d="M35.625,60.507v0.648h-1.286v4.263c0,0.254,0.034,0.45,0.103,0.595c0.071,0.144,0.243,0.221,0.521,0.238
		c0.22,0,0.44-0.013,0.662-0.036v0.649c-0.115,0-0.229,0.006-0.343,0.012c-0.114,0.01-0.231,0.014-0.344,0.014
		c-0.516,0-0.874-0.103-1.078-0.302c-0.204-0.2-0.301-0.569-0.294-1.107v-4.325h-1.102v-0.648h1.102v-1.898h0.772v1.898H35.625z"/>
	<path d="M39.974,59.318H39.2v-1.235h0.774V59.318z M39.974,66.83H39.2v-6.323h0.774V66.83z"/>
	<path d="M47.854,60.591c0.372,0.182,0.685,0.426,0.937,0.725c0.255,0.299,0.446,0.653,0.578,1.061
		c0.13,0.403,0.195,0.833,0.195,1.289s-0.065,0.887-0.195,1.294c-0.132,0.404-0.322,0.755-0.578,1.06
		c-0.252,0.303-0.565,0.542-0.937,0.717C47.482,66.91,47.057,67,46.573,67c-0.479,0-0.906-0.09-1.279-0.265
		c-0.372-0.175-0.683-0.414-0.936-0.717c-0.254-0.305-0.445-0.655-0.577-1.06c-0.13-0.407-0.195-0.838-0.195-1.294
		s0.065-0.886,0.195-1.289c0.132-0.407,0.323-0.762,0.577-1.061c0.253-0.299,0.564-0.543,0.936-0.725
		c0.373-0.177,0.8-0.268,1.279-0.268C47.057,60.323,47.482,60.414,47.854,60.591 M45.607,61.204
		c-0.278,0.158-0.508,0.36-0.691,0.613c-0.186,0.255-0.323,0.542-0.418,0.865c-0.093,0.322-0.14,0.649-0.14,0.982
		c0,0.335,0.047,0.664,0.14,0.988c0.095,0.32,0.232,0.61,0.418,0.864c0.184,0.253,0.413,0.458,0.691,0.612
		c0.276,0.154,0.6,0.234,0.966,0.234c0.369,0,0.691-0.08,0.969-0.234c0.277-0.154,0.508-0.359,0.692-0.612
		c0.183-0.254,0.322-0.544,0.417-0.864c0.092-0.324,0.14-0.653,0.14-0.988c0-0.333-0.047-0.66-0.14-0.982
		c-0.095-0.323-0.234-0.61-0.417-0.865c-0.184-0.253-0.415-0.455-0.692-0.613c-0.278-0.153-0.6-0.231-0.969-0.231
		C46.207,60.973,45.883,61.051,45.607,61.204"/>
	<path d="M53.924,60.507v1.089h0.024c0.147-0.384,0.408-0.689,0.783-0.922c0.377-0.233,0.788-0.351,1.238-0.351
		c0.44,0,0.812,0.057,1.108,0.171c0.299,0.116,0.538,0.275,0.718,0.483c0.176,0.21,0.306,0.467,0.377,0.769
		c0.074,0.3,0.111,0.637,0.111,1.013v4.071h-0.771v-3.946c0-0.27-0.025-0.521-0.074-0.754c-0.047-0.232-0.135-0.436-0.256-0.606
		c-0.124-0.172-0.288-0.308-0.499-0.402c-0.206-0.1-0.467-0.148-0.775-0.148c-0.31,0-0.586,0.054-0.827,0.166
		c-0.24,0.11-0.446,0.261-0.612,0.452c-0.168,0.192-0.297,0.422-0.392,0.687c-0.094,0.264-0.145,0.552-0.153,0.86v3.692h-0.771
		v-6.323H53.924z"/>
	<polygon points="68.228,60.507 69.845,65.922 69.869,65.922 71.412,60.507 72.283,60.507 73.826,65.922 73.85,65.922 
		75.466,60.507 76.286,60.507 74.255,66.83 73.41,66.83 71.852,61.512 71.829,61.512 70.286,66.83 69.442,66.83 67.409,60.507 	"/>
	<path d="M80.354,59.318h-0.771v-1.235h0.771V59.318z M80.354,66.83h-0.771v-6.323h0.771V66.83z"/>
	<path d="M86.796,60.507v0.648h-1.288v4.263c0,0.254,0.034,0.45,0.106,0.595c0.07,0.144,0.242,0.221,0.52,0.238
		c0.221,0,0.439-0.013,0.662-0.036v0.649c-0.114,0-0.229,0.006-0.343,0.012c-0.114,0.01-0.229,0.014-0.343,0.014
		c-0.516,0-0.874-0.103-1.077-0.302c-0.205-0.2-0.305-0.569-0.294-1.107v-4.325h-1.1v-0.648h1.1v-1.898h0.77v1.898H86.796z"/>
	<path d="M91.12,58.083v3.513h0.024c0.148-0.384,0.408-0.689,0.784-0.922c0.376-0.233,0.784-0.351,1.235-0.351
		c0.442,0,0.812,0.057,1.109,0.171c0.297,0.116,0.536,0.275,0.717,0.483c0.181,0.21,0.307,0.467,0.38,0.769
		c0.07,0.3,0.109,0.637,0.109,1.013v4.071h-0.771v-3.946c0-0.27-0.026-0.521-0.074-0.751c-0.048-0.235-0.135-0.438-0.257-0.609
		c-0.12-0.172-0.288-0.308-0.497-0.402c-0.205-0.1-0.464-0.148-0.777-0.148c-0.311,0-0.585,0.054-0.823,0.165
		c-0.244,0.111-0.446,0.262-0.615,0.453c-0.164,0.192-0.298,0.422-0.389,0.687c-0.098,0.264-0.146,0.552-0.155,0.86v3.692h-0.771
		v-8.747H91.12z"/>
	<path d="M105.809,64.739c0.079,0.297,0.202,0.564,0.373,0.803c0.172,0.236,0.387,0.434,0.65,0.587
		c0.261,0.155,0.573,0.235,0.941,0.235c0.569,0,1.006-0.15,1.324-0.445c0.317-0.291,0.541-0.684,0.664-1.176h0.771
		c-0.167,0.719-0.466,1.275-0.9,1.667c-0.438,0.391-1.06,0.59-1.858,0.59c-0.496,0-0.927-0.09-1.289-0.265
		c-0.364-0.175-0.659-0.416-0.892-0.724c-0.225-0.308-0.396-0.661-0.506-1.065c-0.107-0.404-0.164-0.831-0.164-1.281
		c0-0.413,0.057-0.821,0.164-1.223c0.109-0.402,0.281-0.758,0.506-1.072c0.232-0.313,0.527-0.566,0.892-0.758
		c0.362-0.19,0.793-0.289,1.289-0.289c0.509,0,0.94,0.104,1.3,0.305c0.359,0.205,0.65,0.474,0.874,0.804
		c0.225,0.33,0.389,0.711,0.484,1.14c0.101,0.43,0.14,0.861,0.123,1.305h-4.862C105.693,64.151,105.734,64.44,105.809,64.739
		 M109.632,62.38c-0.093-0.269-0.226-0.509-0.396-0.716c-0.175-0.21-0.38-0.374-0.628-0.505c-0.245-0.123-0.519-0.187-0.834-0.187
		c-0.316,0-0.598,0.063-0.842,0.187c-0.247,0.131-0.456,0.295-0.626,0.505c-0.173,0.207-0.31,0.451-0.411,0.723
		c-0.098,0.274-0.172,0.556-0.202,0.84h4.094C109.775,62.933,109.724,62.652,109.632,62.38"/>
	<path d="M114.758,60.507v1.065h0.037c0.202-0.394,0.469-0.697,0.803-0.918c0.329-0.22,0.75-0.331,1.264-0.331
		c0.416,0,0.797,0.104,1.134,0.305c0.342,0.205,0.567,0.515,0.682,0.93c0.187-0.415,0.466-0.725,0.834-0.93
		c0.366-0.201,0.755-0.305,1.172-0.305c1.398,0,2.095,0.739,2.095,2.216v4.291h-0.77v-4.252c0-0.524-0.11-0.922-0.331-1.194
		c-0.22-0.274-0.609-0.411-1.163-0.411c-0.337,0-0.612,0.063-0.834,0.187c-0.221,0.131-0.396,0.297-0.523,0.511
		c-0.131,0.212-0.224,0.455-0.279,0.729c-0.052,0.271-0.078,0.558-0.078,0.853v3.578h-0.774v-4.291c0-0.213-0.021-0.414-0.064-0.606
		c-0.044-0.19-0.118-0.357-0.223-0.501c-0.099-0.142-0.239-0.255-0.41-0.338c-0.171-0.081-0.377-0.121-0.622-0.121
		c-0.328,0-0.612,0.059-0.853,0.175c-0.237,0.121-0.434,0.284-0.589,0.492c-0.151,0.209-0.259,0.453-0.334,0.736
		c-0.072,0.28-0.111,0.591-0.111,0.923v3.531h-0.773v-6.323H114.758z"/>
	<path d="M130.651,60.591c0.368,0.182,0.685,0.426,0.933,0.725c0.255,0.299,0.447,0.653,0.578,1.061
		c0.13,0.403,0.195,0.833,0.195,1.289s-0.065,0.887-0.195,1.294c-0.131,0.404-0.323,0.755-0.578,1.06
		c-0.248,0.303-0.564,0.542-0.933,0.717c-0.373,0.175-0.797,0.265-1.28,0.265s-0.906-0.09-1.28-0.265s-0.686-0.414-0.938-0.717
		c-0.253-0.305-0.443-0.655-0.578-1.06c-0.127-0.407-0.191-0.838-0.191-1.294s0.064-0.886,0.191-1.289
		c0.135-0.407,0.325-0.762,0.578-1.061c0.252-0.299,0.563-0.543,0.938-0.725c0.374-0.177,0.797-0.268,1.28-0.268
		S130.278,60.414,130.651,60.591 M128.401,61.204c-0.276,0.158-0.505,0.36-0.689,0.613c-0.188,0.255-0.327,0.542-0.417,0.865
		c-0.096,0.322-0.142,0.649-0.142,0.982c0,0.335,0.046,0.664,0.142,0.988c0.09,0.32,0.229,0.61,0.417,0.864
		c0.185,0.253,0.413,0.458,0.689,0.612s0.601,0.234,0.97,0.234c0.367,0,0.688-0.08,0.969-0.234c0.273-0.154,0.505-0.359,0.688-0.612
		c0.186-0.254,0.324-0.544,0.417-0.864c0.096-0.324,0.14-0.653,0.14-0.988c0-0.333-0.044-0.66-0.14-0.982
		c-0.093-0.323-0.231-0.61-0.417-0.865c-0.183-0.253-0.414-0.455-0.688-0.613c-0.281-0.153-0.602-0.231-0.969-0.231
		C129.001,60.973,128.677,61.051,128.401,61.204"/>
	<path d="M138.47,60.507v0.648h-1.288v4.263c0,0.254,0.039,0.45,0.104,0.595c0.069,0.144,0.245,0.221,0.521,0.238
		c0.221,0,0.441-0.013,0.663-0.036v0.649c-0.113,0-0.231,0.006-0.342,0.012c-0.114,0.01-0.231,0.014-0.348,0.014
		c-0.513,0-0.872-0.103-1.076-0.302c-0.204-0.2-0.304-0.569-0.293-1.107v-4.325h-1.102v-0.648h1.102v-1.898h0.771v1.898H138.47z"/>
	<path d="M142.819,59.318h-0.773v-1.235h0.773V59.318z M142.819,66.83h-0.773v-6.323h0.773V66.83z"/>
	<path d="M150.7,60.591c0.369,0.182,0.684,0.426,0.933,0.725c0.255,0.299,0.45,0.653,0.58,1.061
		c0.129,0.403,0.194,0.833,0.194,1.289s-0.065,0.887-0.194,1.294c-0.13,0.404-0.325,0.755-0.58,1.06
		c-0.249,0.303-0.563,0.542-0.933,0.717c-0.374,0.175-0.797,0.265-1.28,0.265c-0.482,0-0.905-0.09-1.28-0.265
		c-0.373-0.175-0.685-0.414-0.938-0.717c-0.251-0.305-0.443-0.655-0.574-1.06c-0.13-0.407-0.193-0.838-0.193-1.294
		s0.063-0.886,0.193-1.289c0.131-0.407,0.323-0.762,0.574-1.061c0.254-0.299,0.565-0.543,0.938-0.725
		c0.375-0.177,0.798-0.268,1.28-0.268C149.903,60.323,150.326,60.414,150.7,60.591 M148.451,61.204
		c-0.276,0.158-0.505,0.36-0.691,0.613c-0.185,0.255-0.324,0.542-0.418,0.865c-0.092,0.322-0.141,0.649-0.141,0.982
		c0,0.335,0.049,0.664,0.141,0.988c0.094,0.32,0.233,0.61,0.418,0.864c0.187,0.253,0.415,0.458,0.691,0.612s0.601,0.234,0.969,0.234
		c0.365,0,0.688-0.08,0.969-0.234c0.274-0.154,0.506-0.359,0.688-0.612c0.185-0.254,0.325-0.544,0.417-0.864
		c0.097-0.324,0.14-0.653,0.14-0.988c0-0.333-0.043-0.66-0.14-0.982c-0.092-0.323-0.232-0.61-0.417-0.865
		c-0.182-0.253-0.413-0.455-0.688-0.613c-0.281-0.153-0.604-0.231-0.969-0.231C149.051,60.973,148.727,61.051,148.451,61.204"/>
	<path d="M156.767,60.507v1.089h0.025c0.146-0.384,0.409-0.689,0.784-0.922c0.374-0.233,0.789-0.351,1.237-0.351
		c0.439,0,0.809,0.057,1.106,0.171c0.299,0.116,0.537,0.275,0.721,0.483c0.176,0.21,0.305,0.467,0.376,0.769
		c0.074,0.3,0.109,0.637,0.109,1.013v4.071h-0.771v-3.946c0-0.27-0.021-0.521-0.071-0.754c-0.051-0.232-0.138-0.436-0.261-0.606
		c-0.119-0.172-0.286-0.308-0.494-0.402c-0.207-0.1-0.467-0.148-0.778-0.148c-0.31,0-0.585,0.054-0.824,0.166
		c-0.241,0.11-0.449,0.261-0.612,0.452c-0.167,0.192-0.301,0.422-0.394,0.687c-0.093,0.264-0.145,0.552-0.153,0.86v3.692h-0.771
		v-6.323H156.767z"/>
</g>
</svg>
