<?xml version="1.0" encoding="UTF-8"?> <!-- Generator: Adobe Illustrator 23.0.3, SVG Export Plug-In . SVG Version: 6.00 Build 0) --> <svg xmlns="http://www.w3.org/2000/svg" xmlns:xlink="http://www.w3.org/1999/xlink" version="1.1" id="Layer_1" x="0px" y="0px" viewBox="0 0 126 79" style="enable-background:new 0 0 126 79;" xml:space="preserve"> <style type="text/css"> .st0{fill:#F9F9F9;} .st1{fill:#0066B2;} .st2{fill:#F9A533;} </style> <path class="st0" d="M121,79H5c-2.8,0-5-2.3-5-5V5c0-2.8,2.3-5,5-5h116c2.8,0,5,2.3,5,5v69C126,76.8,123.8,79,121,79z"></path> <g> <g> <g> <polygon class="st1" points="58,51.6 51.9,51.6 55.7,28.1 61.9,28.1 "></polygon> <path class="st1" d="M46.7,28.1l-5.8,16.2l-0.7-3.5v0l-2.1-10.6c0,0-0.2-2.1-2.9-2.1h-9.7l-0.1,0.4c0,0,3,0.6,6.4,2.7l5.3,20.4 h6.4l9.7-23.5H46.7z"></path> <path class="st1" d="M94.9,51.6h5.6l-4.9-23.5h-4.9c-2.3,0-2.8,1.8-2.8,1.8l-9.1,21.8h6.4l1.3-3.5h7.8L94.9,51.6z M88.2,43.3 l3.2-8.8l1.8,8.8H88.2z"></path> <path class="st1" d="M79.3,33.7l0.9-5.1c0,0-2.7-1-5.5-1c-3,0-10.3,1.3-10.3,7.8c0,6.1,8.5,6.2,8.5,9.3c0,3.2-7.6,2.6-10.1,0.6 l-0.9,5.3c0,0,2.7,1.3,6.9,1.3c4.2,0,10.5-2.2,10.5-8.1c0-6.1-8.6-6.7-8.6-9.3C70.7,32,76.6,32.3,79.3,33.7z"></path> </g> <path class="st2" d="M40.2,40.8l-2.1-10.6c0,0-0.2-2.1-2.9-2.1h-9.7l-0.1,0.4c0,0,4.6,1,9.1,4.6C38.8,36.5,40.2,40.8,40.2,40.8z"></path> </g> </g> </svg> 