<svg xmlns="http://www.w3.org/2000/svg" xmlns:xlink="http://www.w3.org/1999/xlink" width="50" height="24" viewBox="0 0 50 24">
    <defs>
        <path id="a" d="M27.54 8.795h-1.856a.494.494 0 0 0-.269.077.441.441 0 0 0-.17.18l-2.589 4-1.123-3.847a.5.5 0 0 0-.195-.308.508.508 0 0 0-.293-.102h-1.856c-.097 0-.179.051-.244.154a.353.353 0 0 0-.049.307l2.051 6.36-1.953 2.871c-.065.103-.065.214 0 .334.065.12.163.179.293.179h1.856a.521.521 0 0 0 .244-.051.567.567 0 0 0 .195-.205l6.25-9.436c.065-.103.065-.214 0-.334a.315.315 0 0 0-.293-.18zm-12.5 3.795c-.099.58-.343 1.042-.733 1.384-.391.342-.847.513-1.368.513a1.72 1.72 0 0 1-.756-.154 1.398 1.398 0 0 1-.513-.41c-.13-.17-.22-.376-.269-.615a2.13 2.13 0 0 1-.024-.718c.098-.581.342-1.043.732-1.385.391-.342.847-.513 1.368-.513.26 0 .496.043.708.129.211.085.382.213.512.384.163.171.269.376.318.616.048.239.057.495.024.769zm2.587-3.795h-1.856c-.097 0-.17.026-.22.077a.593.593 0 0 0-.121.23l-.05.513-.146-.205c-.195-.307-.496-.521-.903-.64a4.564 4.564 0 0 0-1.294-.18c-1.042 0-1.953.376-2.734 1.128-.782.752-1.254 1.692-1.416 2.82a4.4 4.4 0 0 0 .024 1.667 3 3 0 0 0 .66 1.36c.292.341.634.589 1.025.743.39.154.83.23 1.318.23.814 0 1.449-.188 1.904-.564l.684-.564-.098.564c0 .103.033.197.098.282a.296.296 0 0 0 .244.129h1.66c.13 0 .244-.052.342-.154a.77.77 0 0 0 .195-.36l1.026-6.666a.455.455 0 0 0-.098-.282.296.296 0 0 0-.244-.128zm-11.182.051c-.097.718-.374 1.137-.83 1.257a5.75 5.75 0 0 1-1.465.18h-.586l.391-2.719a1.36 1.36 0 0 1 .122-.205c.049-.068.122-.103.22-.103h.244c.358 0 .692.026 1.001.077.31.052.545.18.708.385a.819.819 0 0 1 .195.436c.033.188.033.419 0 .692zM6.005 5H2.1a.458.458 0 0 0-.342.154.77.77 0 0 0-.196.359L0 15.974c0 .103.033.197.098.282a.296.296 0 0 0 .244.129h1.855c.13 0 .244-.052.342-.154a.77.77 0 0 0 .195-.36l.391-2.82a.621.621 0 0 1 .195-.333.503.503 0 0 1 .342-.128h1.22c1.303 0 2.32-.325 3.053-.975.732-.65 1.196-1.624 1.391-2.923.098-.547.106-1.042.025-1.487a2.37 2.37 0 0 0-.513-1.128 2.883 2.883 0 0 0-1.148-.795C7.218 5.094 6.657 5 6.006 5zm41.554.308l-1.612 10.666c0 .103.033.197.098.282a.296.296 0 0 0 .244.129H47.9c.13 0 .245-.052.342-.154a.77.77 0 0 0 .196-.36L50 5.412a.455.455 0 0 0-.098-.283.296.296 0 0 0-.244-.128H47.9a.382.382 0 0 0-.244.077c-.065.051-.097.128-.097.23zm-4.786 7.282c-.097.58-.341 1.042-.732 1.384-.39.342-.846.513-1.367.513-.26 0-.497-.051-.708-.154a1.935 1.935 0 0 1-.562-.41c-.13-.17-.22-.376-.268-.615a2.13 2.13 0 0 1-.025-.718c.098-.581.342-1.043.733-1.385.39-.342.846-.513 1.367-.513.26 0 .496.043.708.129.212.085.382.213.513.384.162.171.268.376.317.616.049.239.057.495.024.769zm2.588-3.795h-1.855c-.098 0-.171.026-.22.077a.593.593 0 0 0-.122.23l-.049.513-.146-.205c-.196-.307-.497-.521-.904-.64a4.564 4.564 0 0 0-1.294-.18c-1.041 0-1.953.376-2.734 1.128-.781.752-1.253 1.692-1.416 2.82a4.083 4.083 0 0 0 .049 1.667c.13.53.342.983.635 1.36.293.341.634.589 1.025.743.39.154.83.23 1.318.23.847 0 1.49-.188 1.93-.564l.658-.564-.097.564c0 .103.032.197.097.282a.296.296 0 0 0 .244.129h1.66c.13 0 .245-.052.342-.154a.77.77 0 0 0 .196-.36l1.025-6.666a.455.455 0 0 0-.098-.282.296.296 0 0 0-.244-.128zm-11.181.051c-.098.718-.375 1.137-.83 1.257a5.75 5.75 0 0 1-1.465.18h-.586l.39-2.719a1.36 1.36 0 0 1 .123-.205c.048-.068.122-.103.22-.103h.243c.358 0 .692.026 1.001.077.31.052.546.18.708.385a.819.819 0 0 1 .196.436c.032.188.032.419 0 .692zM33.74 5h-3.906a.458.458 0 0 0-.342.154.77.77 0 0 0-.195.359l-1.563 10.461c0 .103.033.197.098.282a.296.296 0 0 0 .244.129h2.002c.065 0 .138-.035.22-.103a.321.321 0 0 0 .122-.256l.44-2.975a.621.621 0 0 1 .195-.333.503.503 0 0 1 .341-.128h1.27c1.27 0 2.27-.325 3.003-.975.732-.65 1.196-1.624 1.392-2.923.097-.547.105-1.042.024-1.487a2.37 2.37 0 0 0-.513-1.128c-.26-.342-.635-.607-1.123-.795C34.961 5.094 34.391 5 33.74 5z"/>
    </defs>
    <g fill="none" fill-rule="evenodd">
        <path d="M0 0h50v24H0z"/>
        <mask id="b" fill="#fff">
            <use xlink:href="#a"/>
        </mask>
        <g fill="#3C3C3C" mask="url(#b)">
            <path d="M0 0h50v24H0z"/>
        </g>
    </g>
</svg>
