<svg width="39" height="24" viewBox="0 0 39 24" fill="none" xmlns="http://www.w3.org/2000/svg">
<path d="M14.6055 6.21158L9.74255 17.8177H6.56881L4.17603 8.55619C4.02982 7.98509 3.90424 7.77695 3.46216 7.53612C2.73624 7.14564 1.54931 6.77752 0.5 6.54874L0.572248 6.2047H5.67947C6.01213 6.20607 6.3334 6.32596 6.58562 6.54287C6.83784 6.75978 7.00448 7.05948 7.05562 7.38819L8.31995 14.1055L11.4541 6.21158H14.6055ZM27.0424 14.0298C27.0545 10.9662 22.8056 10.7976 22.8349 9.42833C22.8435 9.01204 23.2408 8.56823 24.1078 8.45642C25.1231 8.35826 26.146 8.53658 27.0682 8.97248L27.5963 6.51606C26.6986 6.17865 25.748 6.0039 24.789 6C21.8303 6 19.7334 7.57741 19.7144 9.83773C19.6955 11.5046 21.2058 12.4404 22.3463 12.996C23.5161 13.5636 23.91 13.9283 23.9048 14.4375C23.9048 15.2167 22.9708 15.5591 22.1089 15.5728C20.5986 15.5969 19.7231 15.1651 19.0247 14.84L18.4759 17.3825C19.1778 17.7058 20.4731 17.9862 21.8165 18C24.9696 18 27.0338 16.4415 27.0442 14.0298H27.0424ZM34.8796 17.8142H37.656L35.2322 6.21158H32.6674C32.3939 6.21041 32.1262 6.29079 31.8986 6.44246C31.6709 6.59412 31.4936 6.81019 31.3893 7.06307L26.8876 17.8177H30.039L30.6651 16.0854H34.5166L34.8796 17.8142ZM31.5287 13.7064L33.1095 9.34748L34.0195 13.7064H31.5287ZM18.906 6.21158L16.4151 17.8177H13.4117L15.8956 6.21158H18.906Z" fill="#3C3C3C"/>
</svg>
