<svg xmlns="http://www.w3.org/2000/svg" width="76.978" height="40.466" viewBox="0 0 76.978 40.466"><defs><style>.a{fill:#00965e;}.b{fill:#ff8c00;}</style></defs><path class="a" d="M84.513,56.117H79.1a.422.422,0,0,1-.42-.422V50.279a7.939,7.939,0,0,1,7.939-7.939h5.418a.422.422,0,0,1,.418.422v5.415a7.939,7.939,0,0,1-7.94,7.94" transform="translate(-64.436 -34.675)"/><path class="a" d="M13.781,26.048v5.413a.424.424,0,0,1-.425.416H7.942A7.941,7.941,0,0,1,0,23.937V18.525A.425.425,0,0,1,.422,18.1H5.837a7.945,7.945,0,0,1,7.944,7.946" transform="translate(0 -14.823)"/><path class="a" d="M73.483,96.756v6.972h-.578V96.756a.29.29,0,1,1,.578,0" transform="translate(-59.706 -78.984)"/><path class="b" d="M78.66,12.733V8.19A7.942,7.942,0,0,1,86.6.25h4.738a.425.425,0,0,1,.422.424v6.68H86.6a8.423,8.423,0,0,0-7.939,5.379" transform="translate(-64.42 -0.205)"/><path class="a" d="M220.666,4.823C218.354,2.1,216.032,0,212.326,0a9.2,9.2,0,0,0-7.91,4.2c-1.685,2.524-1.966,5.4-1.966,8.33s.284,5.811,1.964,8.328a9.2,9.2,0,0,0,7.91,4.2c3.708,0,6.119-2.077,8.395-4.816,0,0-2.265-2.2-3.909-.219a5.817,5.817,0,0,1-4.486,1.991c-5.563,0-6.793-4.941-6.793-9.488s1.229-9.483,6.794-9.483a6.063,6.063,0,0,1,4.81,2.321c1.687,1.465,3.532-.543,3.532-.543" transform="translate(-165.799)"/><path class="a" d="M317.434,16.019h-7.8l3.885-9.943Zm7.214,10.006L315.091,1.6a3.916,3.916,0,0,0-3.132.932,5.75,5.75,0,0,0-1.141,2.029l-8.4,21.468h3.327l2.732-7.071h10.078l1.776,4.367a7.492,7.492,0,0,0,1.157,2,4.515,4.515,0,0,0,3.157.7" transform="translate(-247.67 -1.281)"/><path class="a" d="M316.417,186.266l-.259.543a1.294,1.294,0,0,0-.645-.181,1.18,1.18,0,0,0-1.18,1.146v2.591c0,.349-.181.556-.393.556h-.261v-4.74h.654v.264a1.409,1.409,0,0,1,1.18-.445,1.488,1.488,0,0,1,.905.266" transform="translate(-256.892 -152.327)"/><path class="a" d="M333.482,191.195c0,.324-.2.558-.362.558h-.31V187h.67Z" transform="translate(-272.559 -153.146)"/><path class="a" d="M132.566,175.54l-1.139,1.441h-.807l.829-1.441Z" transform="translate(-106.973 -143.76)"/><path class="a" d="M127.7,189.573h-3.049a1.5,1.5,0,0,0,.194.7,1.184,1.184,0,0,0,1,.444,1.267,1.267,0,0,0,1.021-.462l.806.6a2.319,2.319,0,0,1-1.81.827,2.177,2.177,0,0,1-1.85-.874,3.6,3.6,0,0,1,0-3.206,2.012,2.012,0,0,1,1.758-.856,1.877,1.877,0,0,1,1.642.864,3.547,3.547,0,0,1,.3,1.964m-1.028-.972a1.476,1.476,0,0,0-.118-.473.893.893,0,0,0-.806-.411.98.98,0,0,0-1.075.883Z" transform="translate(-101.248 -152.936)"/><path class="a" d="M181.152,175.876a.6.6,0,1,1-.175-.422.6.6,0,0,1,.175.422" transform="translate(-147.372 -143.547)"/><path class="a" d="M194.475,177.639h-.668v3.523a.88.88,0,0,0,.011.217.118.118,0,0,0,.119.071h.429v.987h-.429a1.048,1.048,0,0,1-.916-.485,1.457,1.457,0,0,1-.181-.789v-3.523h-.59v-.905h.59V175.57h.961v1.164h.668Z" transform="translate(-157.445 -143.785)"/><path class="a" d="M213.588,188.934a3.161,3.161,0,0,1-.344,1.618,2.232,2.232,0,0,1-3.527,0,3.883,3.883,0,0,1,0-3.212,2.221,2.221,0,0,1,3.527,0,3.109,3.109,0,0,1,.344,1.593m-1.014.016a2.232,2.232,0,0,0-.194-1.1,1,1,0,0,0-.905-.4.977.977,0,0,0-.893.4,2.427,2.427,0,0,0-.2,1.1,2.18,2.18,0,0,0,.2,1.086,1.192,1.192,0,0,0,1.8,0,2.445,2.445,0,0,0,.194-1.086" transform="translate(-171.466 -152.712)"/><path class="a" d="M290.361,191.47c0,1.135-1.18,1.767-2.183,1.767-.847,0-1.9-.284-1.9-1.314a1.674,1.674,0,0,1,.085-.529l.588.2a.714.714,0,0,0-.062.3c0,.648.784.757,1.285.757.643,0,1.562-.42,1.562-1.159a.6.6,0,0,0-.639-.543c-.543,0-1.034.255-1.571.255-.463,0-.905-.19-.905-.724a1.221,1.221,0,0,1,.543-.88,1.685,1.685,0,0,1,1.034-3.054,1.868,1.868,0,0,1,1.211.386.362.362,0,0,0,.246-.317h.637a.95.95,0,0,1-.505.815,1.992,1.992,0,0,1,.139.784,1.512,1.512,0,0,1-1.729,1.653,2.929,2.929,0,0,1-.521-.058.828.828,0,0,0-.451.637c0,.15.147.219.277.219.543,0,1.046-.284,1.6-.284a1.153,1.153,0,0,1,1.267,1.086m-1.086-3.246c0-.724-.362-1.045-1.072-1.045s-1.086.319-1.086,1.045a.976.976,0,0,0,1.1,1.086.957.957,0,0,0,1.061-1.086" transform="translate(-234.452 -152.771)"/><path class="a" d="M334.189,175.56,333.254,177h-.645l.835-1.441Z" transform="translate(-272.395 -143.777)"/><path class="a" d="M345.741,190.673a1.988,1.988,0,0,1-1.642.793c-1.448,0-2.129-1.1-2.129-2.442s.69-2.444,2.129-2.444a1.933,1.933,0,0,1,1.642.807l-.46.433a1.439,1.439,0,0,0-1.182-.625c-1.11,0-1.448.869-1.448,1.828s.329,1.832,1.448,1.832a1.44,1.44,0,0,0,1.182-.619Z" transform="translate(-280.06 -152.802)"/><path class="a" d="M371.369,189.04c0,1.356-.471,2.444-2.006,2.444s-2.013-1.086-2.013-2.437.48-2.468,2.013-2.468,2.006,1.108,2.006,2.46m-.663.051c0-.976-.19-1.821-1.352-1.821s-1.343.845-1.343,1.821.2,1.8,1.345,1.8,1.352-.836,1.352-1.8" transform="translate(-300.846 -152.802)"/><path class="a" d="M395.306,182.383a.983.983,0,0,1-1.086-1.121v-5.7h.668v5.667c0,.328.04.509.42.509Z" transform="translate(-322.851 -143.777)"/><path class="a" d="M77.919,176.71a1.106,1.106,0,0,1-.248.156.672.672,0,0,1-.76-.087,1.6,1.6,0,0,0-1.267-.623c-1.459,0-1.8,1.282-1.8,2.545s.34,2.544,1.8,2.544a1.522,1.522,0,0,0,1.184-.523.67.67,0,0,1,.806-.2,1.39,1.39,0,0,1,.281.161,1.536,1.536,0,0,1,.181.152l-.051.06a3.053,3.053,0,0,1-2.393,1.36,2.641,2.641,0,0,1-2.265-1.2,5.261,5.261,0,0,1,0-4.707,2.638,2.638,0,0,1,2.265-1.2,3.046,3.046,0,0,1,2.379,1.365l.049.063s-.087.091-.145.138" transform="translate(-59.645 -143.439)"/><path class="a" d="M108.571,186.85l-.442.74a1.422,1.422,0,0,0-.572-.181c-.822,0-.876,1.019-.876,1.059v2.276a.6.6,0,0,1-.6.655h-.42v-4.754h1.021v.389a1.466,1.466,0,0,1,1-.465,1.307,1.307,0,0,1,.889.281" transform="translate(-86.531 -152.791)"/><path class="a" d="M181.466,191.017a.7.7,0,0,1-.6.735h-.415V187h1.016Z" transform="translate(-147.782 -153.146)"/><path class="a" d="M251.545,179.421h2.25l-1.132-2.869Zm2.513.672h-2.775l-.8,2.06H249.7l2.353-6.025a1.961,1.961,0,0,1,.319-.576.657.657,0,0,1,.574-.261l2.681,6.861a.869.869,0,0,1-.724-.2,2.99,2.99,0,0,1-.326-.559Z" transform="translate(-204.495 -143.556)"/><path class="a" d="M408.834,191.318h-.288c-.143,0-.306-.17-.362-.422a1.753,1.753,0,0,1-1.334.5,1.507,1.507,0,0,1-1.59-1.436,1.467,1.467,0,0,1,1.59-1.437h.827a.7.7,0,0,0,.5-.165v-.5c0-.527-.543-.74-1-.74a1.081,1.081,0,0,0-1.141.74l-.6-.226a1.651,1.651,0,0,1,1.76-1.164,1.484,1.484,0,0,1,1.629,1.39Zm-.65-1.561v-.724c-.089,0-.331.011-.471.011l-.826.036a1.009,1.009,0,0,0-1.019.86.854.854,0,0,0,.882.827c.527,0,1.4-.132,1.434-.963Z" transform="translate(-331.892 -152.712)"/><path class="a" d="M155.176,182.377h-.416a.61.61,0,0,1-.527-.393l-.024-.024a1.349,1.349,0,0,1-.994.505,1.939,1.939,0,0,1-1.7-.905,3.31,3.31,0,0,1-.322-1.6,3.2,3.2,0,0,1,.322-1.6,1.9,1.9,0,0,1,1.7-.905,2.172,2.172,0,0,1,.941.21v-2.1h1.017v6.807Zm-1.017-3.1a1.369,1.369,0,0,0-.114-.436.921.921,0,0,0-.827-.411.905.905,0,0,0-.827.411,2.315,2.315,0,0,0-.181,1.1,2.208,2.208,0,0,0,.181,1.1,1.03,1.03,0,0,0,1.655,0,1.335,1.335,0,0,0,.114-.427Z" transform="translate(-123.819 -143.785)"/></svg>