<?xml version="1.0" encoding="utf-8"?>
<!-- Generator: Adobe Illustrator 25.2.0, SVG Export Plug-In . SVG Version: 6.00 Build 0)  -->
<svg version="1.1" id="Layer_1" xmlns="http://www.w3.org/2000/svg" xmlns:xlink="http://www.w3.org/1999/xlink" x="0px" y="0px"
	 viewBox="0 0 20 20" style="enable-background:new 0 0 20 20;" xml:space="preserve">
<style type="text/css">
	.st0{fill:#0076DD;}
	.st1{fill:#FFFFFF;}
</style>
<g>
	<circle class="st0" cx="10" cy="10" r="10"/>
</g>
<g>
	<path class="st1" d="M10,4.4c-1,0-1.3,0.8-1.3,1.7c0,0.4,0.1,0.7,0.1,1H6.9C6.4,6.9,6.2,6.5,6.2,6c0-1.4,1.5-2.3,3.8-2.3
		c2.4,0,3.8,1.1,3.8,2.9c0,1.5-0.9,2.4-2.4,3.3c-1,0.6-1.4,1-1.4,1.9v0.2H9.6c-0.8-0.3-1.3-1-1.3-1.9c0-0.8,0.4-1.5,1.3-2.2
		c0.9-0.7,1.6-1.2,1.6-2.2C11.2,5,10.8,4.4,10,4.4z M9.8,12.9c0.9,0,1.7,0.8,1.7,1.7c0,0.9-0.7,1.7-1.7,1.7c-0.9,0-1.6-0.8-1.6-1.7
		C8.2,13.6,8.9,12.9,9.8,12.9z"/>
</g>
</svg>
