<svg
            width="360"
            height="119"
            viewBox="0 0 360 119"
            fill="none"
            xmlns="http://www.w3.org/2000/svg"
          >
            <path
              d="M58.2718 21.66L52.9505 38.0693H47.9808L44.8396 28.0831L41.5577 38.0693H36.588L31.2667 21.66H36.0489L39.3542 32.1385L42.8236 21.66H47.09L50.3953 32.2323L53.8412 21.66H58.2718ZM73.1092 34.4827V38.0693H59.9348V21.66H72.8044V25.2466H64.5294V28.0128H71.8199V31.4822H64.5294V34.4827H73.1092ZM90.688 38.3975C88.9689 38.3975 87.4218 38.0381 86.0465 37.3192C84.6869 36.5847 83.6164 35.5689 82.835 34.2718C82.0536 32.9746 81.6629 31.5056 81.6629 29.8647C81.6629 28.2238 82.0536 26.7547 82.835 25.4576C83.6164 24.1605 84.6869 23.1525 86.0465 22.4336C87.4218 21.6991 88.9689 21.3318 90.688 21.3318C92.1883 21.3318 93.5401 21.5975 94.7434 22.1289C95.9468 22.6602 96.947 23.426 97.744 24.4262L94.7903 27.0985C93.7276 25.8171 92.4383 25.1763 90.9224 25.1763C90.0316 25.1763 89.2346 25.3717 88.5313 25.7624C87.8437 26.1531 87.3046 26.7078 86.9139 27.4267C86.5388 28.13 86.3513 28.9426 86.3513 29.8647C86.3513 30.7867 86.5388 31.6072 86.9139 32.3261C87.3046 33.0293 87.8437 33.5763 88.5313 33.967C89.2346 34.3577 90.0316 34.5531 90.9224 34.5531C92.4383 34.5531 93.7276 33.9123 94.7903 32.6308L97.744 35.3032C96.947 36.3034 95.9468 37.0691 94.7434 37.6005C93.5401 38.1318 92.1883 38.3975 90.688 38.3975ZM107.745 38.3975C106.01 38.3975 104.448 38.0303 103.057 37.2958C101.681 36.5612 100.595 35.5454 99.7983 34.2483C99.0169 32.9512 98.6262 31.49 98.6262 29.8647C98.6262 28.2394 99.0169 26.7782 99.7983 25.4811C100.595 24.1839 101.681 23.1681 103.057 22.4336C104.448 21.6991 106.01 21.3318 107.745 21.3318C109.48 21.3318 111.035 21.6991 112.41 22.4336C113.801 23.1681 114.887 24.1839 115.668 25.4811C116.465 26.7782 116.864 28.2394 116.864 29.8647C116.864 31.49 116.465 32.9512 115.668 34.2483C114.887 35.5454 113.801 36.5612 112.41 37.2958C111.035 38.0303 109.48 38.3975 107.745 38.3975ZM107.745 34.5531C108.573 34.5531 109.323 34.3577 109.995 33.967C110.667 33.5763 111.199 33.0293 111.59 32.3261C111.98 31.6072 112.176 30.7867 112.176 29.8647C112.176 28.9426 111.98 28.13 111.59 27.4267C111.199 26.7078 110.667 26.1531 109.995 25.7624C109.323 25.3717 108.573 25.1763 107.745 25.1763C106.917 25.1763 106.167 25.3717 105.495 25.7624C104.823 26.1531 104.291 26.7078 103.901 27.4267C103.51 28.13 103.315 28.9426 103.315 29.8647C103.315 30.7867 103.51 31.6072 103.901 32.3261C104.291 33.0293 104.823 33.5763 105.495 33.967C106.167 34.3577 106.917 34.5531 107.745 34.5531ZM134.907 21.66V38.0693H131.086L123.843 29.3255V38.0693H119.295V21.66H123.116L130.36 30.4038V21.66H134.907ZM153.793 21.66V38.0693H149.972L142.729 29.3255V38.0693H138.181V21.66H142.002L149.246 30.4038V21.66H153.793ZM170.242 34.4827V38.0693H157.067V21.66H169.937V25.2466H161.662V28.0128H168.952V31.4822H161.662V34.4827H170.242ZM180.976 38.3975C179.257 38.3975 177.71 38.0381 176.334 37.3192C174.975 36.5847 173.904 35.5689 173.123 34.2718C172.341 32.9746 171.951 31.5056 171.951 29.8647C171.951 28.2238 172.341 26.7547 173.123 25.4576C173.904 24.1605 174.975 23.1525 176.334 22.4336C177.71 21.6991 179.257 21.3318 180.976 21.3318C182.476 21.3318 183.828 21.5975 185.031 22.1289C186.235 22.6602 187.235 23.426 188.032 24.4262L185.078 27.0985C184.015 25.8171 182.726 25.1763 181.21 25.1763C180.319 25.1763 179.522 25.3717 178.819 25.7624C178.132 26.1531 177.592 26.7078 177.202 27.4267C176.827 28.13 176.639 28.9426 176.639 29.8647C176.639 30.7867 176.827 31.6072 177.202 32.3261C177.592 33.0293 178.132 33.5763 178.819 33.967C179.522 34.3577 180.319 34.5531 181.21 34.5531C182.726 34.5531 184.015 33.9123 185.078 32.6308L188.032 35.3032C187.235 36.3034 186.235 37.0691 185.031 37.6005C183.828 38.1318 182.476 38.3975 180.976 38.3975ZM193.457 25.3404H188.417V21.66H203.115V25.3404H198.098V38.0693H193.457V25.3404ZM226.481 38.0693L226.434 29.3724L222.215 36.4518H220.152L215.956 29.6068V38.0693H211.666V21.66H215.487L221.254 31.1305L226.88 21.66H230.701L230.748 38.0693H226.481ZM234.032 21.66H238.673V38.0693H234.032V21.66ZM241.976 21.66H246.617V34.389H254.447V38.0693H241.976V21.66ZM256.283 21.66H260.925V34.389H268.754V38.0693H256.283V21.66ZM270.591 21.66H275.233V38.0693H270.591V21.66ZM286.81 38.3975C285.075 38.3975 283.512 38.0303 282.121 37.2958C280.746 36.5612 279.66 35.5454 278.863 34.2483C278.082 32.9512 277.691 31.49 277.691 29.8647C277.691 28.2394 278.082 26.7782 278.863 25.4811C279.66 24.1839 280.746 23.1681 282.121 22.4336C283.512 21.6991 285.075 21.3318 286.81 21.3318C288.544 21.3318 290.099 21.6991 291.475 22.4336C292.866 23.1681 293.952 24.1839 294.733 25.4811C295.53 26.7782 295.929 28.2394 295.929 29.8647C295.929 31.49 295.53 32.9512 294.733 34.2483C293.952 35.5454 292.866 36.5612 291.475 37.2958C290.099 38.0303 288.544 38.3975 286.81 38.3975ZM286.81 34.5531C287.638 34.5531 288.388 34.3577 289.06 33.967C289.732 33.5763 290.264 33.0293 290.654 32.3261C291.045 31.6072 291.24 30.7867 291.24 29.8647C291.24 28.9426 291.045 28.13 290.654 27.4267C290.264 26.7078 289.732 26.1531 289.06 25.7624C288.388 25.3717 287.638 25.1763 286.81 25.1763C285.981 25.1763 285.231 25.3717 284.559 25.7624C283.887 26.1531 283.356 26.7078 282.965 27.4267C282.575 28.13 282.379 28.9426 282.379 29.8647C282.379 30.7867 282.575 31.6072 282.965 32.3261C283.356 33.0293 283.887 33.5763 284.559 33.967C285.231 34.3577 285.981 34.5531 286.81 34.5531ZM313.972 21.66V38.0693H310.151L302.907 29.3255V38.0693H298.36V21.66H302.181L309.424 30.4038V21.66H313.972ZM323.013 38.3975C321.684 38.3975 320.395 38.2334 319.145 37.9052C317.894 37.5771 316.879 37.1395 316.097 36.5925L317.621 33.17C318.355 33.6545 319.207 34.0451 320.176 34.3421C321.145 34.639 322.098 34.7875 323.036 34.7875C324.818 34.7875 325.708 34.3421 325.708 33.4513C325.708 32.9825 325.451 32.6386 324.935 32.4198C324.435 32.1854 323.622 31.9432 322.497 31.6931C321.262 31.4275 320.231 31.1462 319.403 30.8492C318.574 30.5367 317.863 30.0444 317.269 29.3724C316.675 28.7004 316.379 27.794 316.379 26.6531C316.379 25.653 316.652 24.7544 317.199 23.9573C317.746 23.1447 318.559 22.5039 319.637 22.0351C320.731 21.5663 322.067 21.3318 323.646 21.3318C324.724 21.3318 325.787 21.4569 326.834 21.7069C327.881 21.9413 328.803 22.293 329.6 22.7618L328.17 26.2078C326.607 25.3638 325.091 24.9419 323.622 24.9419C322.7 24.9419 322.028 25.0825 321.606 25.3638C321.184 25.6295 320.973 25.9811 320.973 26.4187C320.973 26.8563 321.223 27.1845 321.723 27.4033C322.223 27.6221 323.028 27.8487 324.138 28.0831C325.388 28.3488 326.419 28.6379 327.232 28.9505C328.06 29.2474 328.771 29.7318 329.365 30.4038C329.975 31.0602 330.28 31.9588 330.28 33.0997C330.28 34.0842 330.006 34.975 329.459 35.772C328.912 36.5691 328.092 37.2098 326.998 37.6943C325.904 38.1631 324.575 38.3975 323.013 38.3975ZM32.6808 68.3975C30.9461 68.3975 29.3833 68.0303 27.9924 67.2958C26.6171 66.5612 25.531 65.5454 24.734 64.2483C23.9526 62.9512 23.5619 61.49 23.5619 59.8647C23.5619 58.2394 23.9526 56.7782 24.734 55.4811C25.531 54.1839 26.6171 53.1681 27.9924 52.4336C29.3833 51.6991 30.9461 51.3318 32.6808 51.3318C34.4155 51.3318 35.9704 51.6991 37.3457 52.4336C38.7366 53.1681 39.8227 54.1839 40.6041 55.4811C41.4011 56.7782 41.7996 58.2394 41.7996 59.8647C41.7996 61.49 41.4011 62.9512 40.6041 64.2483C39.8227 65.5454 38.7366 66.5612 37.3457 67.2958C35.9704 68.0303 34.4155 68.3975 32.6808 68.3975ZM32.6808 64.5531C33.509 64.5531 34.2592 64.3577 34.9312 63.967C35.6032 63.5763 36.1345 63.0293 36.5252 62.3261C36.9159 61.6072 37.1113 60.7867 37.1113 59.8647C37.1113 58.9426 36.9159 58.13 36.5252 57.4267C36.1345 56.7078 35.6032 56.1531 34.9312 55.7624C34.2592 55.3717 33.509 55.1763 32.6808 55.1763C31.8525 55.1763 31.1023 55.3717 30.4303 55.7624C29.7583 56.1531 29.227 56.7078 28.8363 57.4267C28.4456 58.13 28.2502 58.9426 28.2502 59.8647C28.2502 60.7867 28.4456 61.6072 28.8363 62.3261C29.227 63.0293 29.7583 63.5763 30.4303 63.967C31.1023 64.3577 31.8525 64.5531 32.6808 64.5531ZM48.8721 55.2466V58.8567H56.1157V62.4433H48.8721V68.0693H44.2306V51.66H57.1002V55.2466H48.8721ZM73.5943 51.66C75.079 51.66 76.3683 51.9101 77.4622 52.4102C78.5562 52.8946 79.4001 53.5979 79.9939 54.5199C80.5878 55.4264 80.8847 56.4969 80.8847 57.7315C80.8847 58.9661 80.5878 60.0366 79.9939 60.943C79.4001 61.8494 78.5562 62.5527 77.4622 63.0528C76.3683 63.5372 75.079 63.7795 73.5943 63.7795H70.7344V68.0693H66.0929V51.66H73.5943ZM73.313 60.1225C74.2663 60.1225 74.9852 59.9194 75.4697 59.5131C75.9541 59.0911 76.1964 58.4972 76.1964 57.7315C76.1964 56.9657 75.9541 56.3718 75.4697 55.9499C74.9852 55.5279 74.2663 55.317 73.313 55.317H70.7344V60.1225H73.313ZM96.3221 64.4827V68.0693H83.1478V51.66H96.0174V55.2466H87.7424V58.0128H95.0328V61.4822H87.7424V64.4827H96.3221ZM107.15 68.3975C105.415 68.3975 103.852 68.0303 102.461 67.2958C101.086 66.5612 100 65.5454 99.2031 64.2483C98.4217 62.9512 98.031 61.49 98.031 59.8647C98.031 58.2394 98.4217 56.7782 99.2031 55.4811C100 54.1839 101.086 53.1681 102.461 52.4336C103.852 51.6991 105.415 51.3318 107.15 51.3318C108.885 51.3318 110.44 51.6991 111.815 52.4336C113.206 53.1681 114.292 54.1839 115.073 55.4811C115.87 56.7782 116.269 58.2394 116.269 59.8647C116.269 61.49 115.87 62.9512 115.073 64.2483C114.292 65.5454 113.206 66.5612 111.815 67.2958C110.44 68.0303 108.885 68.3975 107.15 68.3975ZM107.15 64.5531C107.978 64.5531 108.728 64.3577 109.4 63.967C110.072 63.5763 110.604 63.0293 110.994 62.3261C111.385 61.6072 111.58 60.7867 111.58 59.8647C111.58 58.9426 111.385 58.13 110.994 57.4267C110.604 56.7078 110.072 56.1531 109.4 55.7624C108.728 55.3717 107.978 55.1763 107.15 55.1763C106.322 55.1763 105.571 55.3717 104.899 55.7624C104.227 56.1531 103.696 56.7078 103.305 57.4267C102.915 58.13 102.719 58.9426 102.719 59.8647C102.719 60.7867 102.915 61.6072 103.305 62.3261C103.696 63.0293 104.227 63.5763 104.899 63.967C105.571 64.3577 106.322 64.5531 107.15 64.5531ZM126.201 51.66C127.686 51.66 128.975 51.9101 130.069 52.4102C131.163 52.8946 132.007 53.5979 132.601 54.5199C133.195 55.4264 133.492 56.4969 133.492 57.7315C133.492 58.9661 133.195 60.0366 132.601 60.943C132.007 61.8494 131.163 62.5527 130.069 63.0528C128.975 63.5372 127.686 63.7795 126.201 63.7795H123.341V68.0693H118.7V51.66H126.201ZM125.92 60.1225C126.873 60.1225 127.592 59.9194 128.076 59.5131C128.561 59.0911 128.803 58.4972 128.803 57.7315C128.803 56.9657 128.561 56.3718 128.076 55.9499C127.592 55.5279 126.873 55.317 125.92 55.317H123.341V60.1225H125.92ZM135.755 51.66H140.396V64.389H148.226V68.0693H135.755V51.66ZM163.237 64.4827V68.0693H150.062V51.66H162.932V55.2466H154.657V58.0128H161.947V61.4822H154.657V64.4827H163.237ZM198.374 51.66L193.052 68.0693H188.083L184.941 58.0831L181.659 68.0693H176.69L171.368 51.66H176.151L179.456 62.1385L182.925 51.66H187.192L190.497 62.2323L193.943 51.66H198.374ZM208.083 68.3975C206.348 68.3975 204.785 68.0303 203.394 67.2958C202.019 66.5612 200.933 65.5454 200.136 64.2483C199.354 62.9512 198.964 61.49 198.964 59.8647C198.964 58.2394 199.354 56.7782 200.136 55.4811C200.933 54.1839 202.019 53.1681 203.394 52.4336C204.785 51.6991 206.348 51.3318 208.083 51.3318C209.817 51.3318 211.372 51.6991 212.748 52.4336C214.138 53.1681 215.225 54.1839 216.006 55.4811C216.803 56.7782 217.202 58.2394 217.202 59.8647C217.202 61.49 216.803 62.9512 216.006 64.2483C215.225 65.5454 214.138 66.5612 212.748 67.2958C211.372 68.0303 209.817 68.3975 208.083 68.3975ZM208.083 64.5531C208.911 64.5531 209.661 64.3577 210.333 63.967C211.005 63.5763 211.536 63.0293 211.927 62.3261C212.318 61.6072 212.513 60.7867 212.513 59.8647C212.513 58.9426 212.318 58.13 211.927 57.4267C211.536 56.7078 211.005 56.1531 210.333 55.7624C209.661 55.3717 208.911 55.1763 208.083 55.1763C207.254 55.1763 206.504 55.3717 205.832 55.7624C205.16 56.1531 204.629 56.7078 204.238 57.4267C203.847 58.13 203.652 58.9426 203.652 59.8647C203.652 60.7867 203.847 61.6072 204.238 62.3261C204.629 63.0293 205.16 63.5763 205.832 63.967C206.504 64.3577 207.254 64.5531 208.083 64.5531ZM226.806 63.7091H224.274V68.0693H219.633V51.66H227.134C228.619 51.66 229.908 51.9101 231.002 52.4102C232.096 52.8946 232.94 53.5979 233.534 54.5199C234.127 55.4264 234.424 56.4969 234.424 57.7315C234.424 58.9192 234.143 59.9585 233.58 60.8492C233.033 61.7244 232.244 62.412 231.213 62.9121L234.753 68.0693H229.783L226.806 63.7091ZM229.736 57.7315C229.736 56.9657 229.494 56.3718 229.009 55.9499C228.525 55.5279 227.806 55.317 226.853 55.317H224.274V60.1225H226.853C227.806 60.1225 228.525 59.9194 229.009 59.5131C229.494 59.0911 229.736 58.4972 229.736 57.7315ZM236.985 51.66H241.626V64.389H249.456V68.0693H236.985V51.66ZM251.293 51.66H259.052C260.849 51.66 262.443 51.996 263.834 52.668C265.225 53.34 266.303 54.2933 267.069 55.5279C267.835 56.7625 268.218 58.2081 268.218 59.8647C268.218 61.5212 267.835 62.9668 267.069 64.2014C266.303 65.436 265.225 66.3893 263.834 67.0613C262.443 67.7333 260.849 68.0693 259.052 68.0693H251.293V51.66ZM258.864 64.3655C260.271 64.3655 261.396 63.967 262.24 63.17C263.1 62.373 263.529 61.2712 263.529 59.8647C263.529 58.4582 263.1 57.3564 262.24 56.5594C261.396 55.7624 260.271 55.3638 258.864 55.3638H255.934V64.3655H258.864ZM295.827 51.66L290.505 68.0693H285.536L282.394 58.0831L279.113 68.0693H274.143L268.822 51.66H273.604L276.909 62.1385L280.378 51.66H284.645L287.95 62.2323L291.396 51.66H295.827ZM297.49 51.66H302.131V68.0693H297.49V51.66ZM305.433 51.66H313.193C314.99 51.66 316.584 51.996 317.975 52.668C319.366 53.34 320.444 54.2933 321.21 55.5279C321.976 56.7625 322.358 58.2081 322.358 59.8647C322.358 61.5212 321.976 62.9668 321.21 64.2014C320.444 65.436 319.366 66.3893 317.975 67.0613C316.584 67.7333 314.99 68.0693 313.193 68.0693H305.433V51.66ZM313.005 64.3655C314.412 64.3655 315.537 63.967 316.381 63.17C317.24 62.373 317.67 61.2712 317.67 59.8647C317.67 58.4582 317.24 57.3564 316.381 56.5594C315.537 55.7624 314.412 55.3638 313.005 55.3638H310.075V64.3655H313.005ZM337.975 64.4827V68.0693H324.8V51.66H337.67V55.2466H329.395V58.0128H336.685V61.4822H329.395V64.4827H337.975ZM66.0094 81.66L60.6881 98.0693H55.7184L52.5772 88.0831L49.2954 98.0693H44.3257L39.0044 81.66H43.7865L47.0918 92.1385L50.5612 81.66H54.8276L58.1329 92.2323L61.5789 81.66H66.0094ZM67.6725 81.66H72.314V98.0693H67.6725V81.66ZM79.109 85.3404H74.069V81.66H88.7671V85.3404H83.7505V98.0693H79.109V85.3404ZM106.109 81.66V98.0693H101.467V91.6697H95.1378V98.0693H90.4963V81.66H95.1378V87.8252H101.467V81.66H106.109ZM119.697 85.3404H114.657V81.66H129.355V85.3404H124.339V98.0693H119.697V85.3404ZM146.697 81.66V98.0693H142.055V91.6697H135.726V98.0693H131.085V81.66H135.726V87.8252H142.055V81.66H146.697ZM163.145 94.4827V98.0693H149.971V81.66H162.84V85.2466H154.565V88.0128H161.856V91.4822H154.565V94.4827H163.145ZM165.721 81.66H170.362V98.0693H165.721V81.66ZM180.838 93.7091H178.306V98.0693H173.665V81.66H181.166C182.651 81.66 183.94 81.9101 185.034 82.4102C186.128 82.8946 186.972 83.5979 187.566 84.5199C188.159 85.4264 188.456 86.4969 188.456 87.7315C188.456 88.9192 188.175 89.9585 187.612 90.8492C187.065 91.7244 186.276 92.412 185.245 92.9121L188.785 98.0693H183.815L180.838 93.7091ZM183.768 87.7315C183.768 86.9657 183.526 86.3718 183.041 85.9499C182.557 85.5279 181.838 85.317 180.885 85.317H178.306V90.1225H180.885C181.838 90.1225 182.557 89.9194 183.041 89.5131C183.526 89.0911 183.768 88.4972 183.768 87.7315ZM205.34 81.66C206.825 81.66 208.114 81.9101 209.208 82.4102C210.302 82.8946 211.146 83.5979 211.74 84.5199C212.334 85.4264 212.631 86.4969 212.631 87.7315C212.631 88.9661 212.334 90.0366 211.74 90.943C211.146 91.8494 210.302 92.5527 209.208 93.0528C208.114 93.5372 206.825 93.7795 205.34 93.7795H202.48V98.0693H197.839V81.66H205.34ZM205.059 90.1225C206.012 90.1225 206.731 89.9194 207.216 89.5131C207.7 89.0911 207.942 88.4972 207.942 87.7315C207.942 86.9657 207.7 86.3718 207.216 85.9499C206.731 85.5279 206.012 85.317 205.059 85.317H202.48V90.1225H205.059ZM225.064 94.8812H218.125L216.836 98.0693H212.101L219.344 81.66H223.915L231.182 98.0693H226.353L225.064 94.8812ZM223.704 91.4587L221.595 86.2078L219.485 91.4587H223.704ZM238.265 98.3975C236.936 98.3975 235.647 98.2334 234.397 97.9052C233.147 97.5771 232.131 97.1395 231.349 96.5925L232.873 93.17C233.608 93.6545 234.459 94.0451 235.428 94.3421C236.397 94.639 237.351 94.7875 238.288 94.7875C240.07 94.7875 240.961 94.3421 240.961 93.4513C240.961 92.9825 240.703 92.6386 240.187 92.4198C239.687 92.1854 238.874 91.9432 237.749 91.6931C236.514 91.4275 235.483 91.1462 234.655 90.8492C233.826 90.5367 233.115 90.0444 232.522 89.3724C231.928 88.7004 231.631 87.794 231.631 86.6531C231.631 85.653 231.904 84.7544 232.451 83.9573C232.998 83.1447 233.811 82.5039 234.889 82.0351C235.983 81.5663 237.319 81.3318 238.898 81.3318C239.976 81.3318 241.039 81.4569 242.086 81.7069C243.133 81.9413 244.055 82.293 244.852 82.7618L243.422 86.2078C241.859 85.3638 240.343 84.9419 238.874 84.9419C237.952 84.9419 237.28 85.0825 236.858 85.3638C236.436 85.6295 236.225 85.9811 236.225 86.4187C236.225 86.8563 236.475 87.1845 236.975 87.4033C237.476 87.6221 238.28 87.8487 239.39 88.0831C240.64 88.3488 241.672 88.6379 242.484 88.9505C243.313 89.2474 244.024 89.7318 244.618 90.4038C245.227 91.0602 245.532 91.9588 245.532 93.0997C245.532 94.0842 245.258 94.975 244.711 95.772C244.164 96.5691 243.344 97.2098 242.25 97.6943C241.156 98.1631 239.828 98.3975 238.265 98.3975ZM253.442 98.3975C252.114 98.3975 250.825 98.2334 249.575 97.9052C248.324 97.5771 247.309 97.1395 246.527 96.5925L248.051 93.17C248.785 93.6545 249.637 94.0451 250.606 94.3421C251.575 94.639 252.528 94.7875 253.466 94.7875C255.247 94.7875 256.138 94.3421 256.138 93.4513C256.138 92.9825 255.88 92.6386 255.365 92.4198C254.865 92.1854 254.052 91.9432 252.927 91.6931C251.692 91.4275 250.661 91.1462 249.832 90.8492C249.004 90.5367 248.293 90.0444 247.699 89.3724C247.105 88.7004 246.808 87.794 246.808 86.6531C246.808 85.653 247.082 84.7544 247.629 83.9573C248.176 83.1447 248.989 82.5039 250.067 82.0351C251.161 81.5663 252.497 81.3318 254.075 81.3318C255.154 81.3318 256.216 81.4569 257.263 81.7069C258.311 81.9413 259.233 82.293 260.03 82.7618L258.6 86.2078C257.037 85.3638 255.521 84.9419 254.052 84.9419C253.13 84.9419 252.458 85.0825 252.036 85.3638C251.614 85.6295 251.403 85.9811 251.403 86.4187C251.403 86.8563 251.653 87.1845 252.153 87.4033C252.653 87.6221 253.458 87.8487 254.568 88.0831C255.818 88.3488 256.849 88.6379 257.662 88.9505C258.49 89.2474 259.201 89.7318 259.795 90.4038C260.405 91.0602 260.709 91.9588 260.709 93.0997C260.709 94.0842 260.436 94.975 259.889 95.772C259.342 96.5691 258.522 97.2098 257.428 97.6943C256.334 98.1631 255.005 98.3975 253.442 98.3975ZM262.853 81.66H267.495V98.0693H262.853V81.66ZM279.072 98.3975C277.337 98.3975 275.775 98.0303 274.384 97.2958C273.008 96.5612 271.922 95.5454 271.125 94.2483C270.344 92.9512 269.953 91.49 269.953 89.8647C269.953 88.2394 270.344 86.7782 271.125 85.4811C271.922 84.1839 273.008 83.1681 274.384 82.4336C275.775 81.6991 277.337 81.3318 279.072 81.3318C280.807 81.3318 282.362 81.6991 283.737 82.4336C285.128 83.1681 286.214 84.1839 286.995 85.4811C287.792 86.7782 288.191 88.2394 288.191 89.8647C288.191 91.49 287.792 92.9512 286.995 94.2483C286.214 95.5454 285.128 96.5612 283.737 97.2958C282.362 98.0303 280.807 98.3975 279.072 98.3975ZM279.072 94.5531C279.9 94.5531 280.651 94.3577 281.323 93.967C281.995 93.5763 282.526 93.0293 282.917 92.3261C283.307 91.6072 283.503 90.7867 283.503 89.8647C283.503 88.9426 283.307 88.13 282.917 87.4267C282.526 86.7078 281.995 86.1531 281.323 85.7624C280.651 85.3717 279.9 85.1763 279.072 85.1763C278.244 85.1763 277.494 85.3717 276.822 85.7624C276.15 86.1531 275.618 86.7078 275.228 87.4267C274.837 88.13 274.642 88.9426 274.642 89.8647C274.642 90.7867 274.837 91.6072 275.228 92.3261C275.618 93.0293 276.15 93.5763 276.822 93.967C277.494 94.3577 278.244 94.5531 279.072 94.5531ZM306.234 81.66V98.0693H302.413L295.17 89.3255V98.0693H290.622V81.66H294.443L301.687 90.4038V81.66H306.234ZM315.275 98.3975C313.947 98.3975 312.657 98.2334 311.407 97.9052C310.157 97.5771 309.141 97.1395 308.36 96.5925L309.883 93.17C310.618 93.6545 311.47 94.0451 312.438 94.3421C313.407 94.639 314.361 94.7875 315.298 94.7875C317.08 94.7875 317.971 94.3421 317.971 93.4513C317.971 92.9825 317.713 92.6386 317.197 92.4198C316.697 92.1854 315.884 91.9432 314.759 91.6931C313.525 91.4275 312.493 91.1462 311.665 90.8492C310.837 90.5367 310.126 90.0444 309.532 89.3724C308.938 88.7004 308.641 87.794 308.641 86.6531C308.641 85.653 308.914 84.7544 309.461 83.9573C310.008 83.1447 310.821 82.5039 311.899 82.0351C312.993 81.5663 314.329 81.3318 315.908 81.3318C316.986 81.3318 318.049 81.4569 319.096 81.7069C320.143 81.9413 321.065 82.293 321.862 82.7618L320.432 86.2078C318.869 85.3638 317.353 84.9419 315.884 84.9419C314.962 84.9419 314.29 85.0825 313.868 85.3638C313.446 85.6295 313.235 85.9811 313.235 86.4187C313.235 86.8563 313.486 87.1845 313.986 87.4033C314.486 87.6221 315.291 87.8487 316.4 88.0831C317.65 88.3488 318.682 88.6379 319.494 88.9505C320.323 89.2474 321.034 89.7318 321.628 90.4038C322.237 91.0602 322.542 91.9588 322.542 93.0997C322.542 94.0842 322.268 94.975 321.721 95.772C321.174 96.5691 320.354 97.2098 319.26 97.6943C318.166 98.1631 316.838 98.3975 315.275 98.3975Z"
              fill="white"
            />
            <path
              d="M348.294 12.2929V0H343.256V17.5346H343.36V17.5814H360V12.2929H348.294Z"
              fill="#948A85"
            />
            <path
              d="M348.292 105.739H360V100.465H343.3V100.574H343.256V118.046H348.292V105.739Z"
              fill="#948A85"
            />
            <path
              d="M12.307 12.2929V0H17.5814V17.5346H17.4725V17.5814H0V12.2929H12.307Z"
              fill="#948A85"
            />
            <path
              d="M11.6972 105.739H0V100.465H16.6848V100.574H16.7442V118.046H11.6972V105.739Z"
              fill="#948A85"
            />
          </svg>