<?xml version="1.0" encoding="utf-8"?>
<!-- Generator: Adobe Illustrator 26.2.1, SVG Export Plug-In . SVG Version: 6.00 Build 0)  -->
<svg version="1.1" id="a" xmlns="http://www.w3.org/2000/svg" xmlns:xlink="http://www.w3.org/1999/xlink" x="0px" y="0px"
	 viewBox="0 0 80 80" style="enable-background:new 0 0 80 80;" xml:space="preserve">
<style type="text/css">
	.st0{opacity:0.8;}
	.st1{opacity:0.7;enable-background:new    ;}
	.st2{opacity:0.3;enable-background:new    ;}
</style>
<g class="st0">
	<path class="st1" d="M43,23.2c2.1-0.3,3.4-2.9,2.9-5.8c-0.5-2.9-2.5-5-4.6-4.6c-2.1,0.3-3.4,2.9-2.9,5.8
		C38.9,21.5,40.9,23.6,43,23.2z M60.4,23.3c-0.1,0-0.3,0-0.4,0l-0.4,0c-4.1,0.3-8.2,0.9-12.1,2.1c0.4,0.3,0.7,0.8,0.7,1.3
		c0,0.5-0.1,1-0.5,1.4c-0.2,0.2-0.5,0.4-0.7,0.5l-0.3,0.1l-1.3,0.4c-1.2,0.4-2.5,0.8-3.7,1.2c0.1,0.4-0.1,0.8-0.4,1l-0.4,0.3
		c-0.1,0.1-0.2,0.1-0.3,0.2h-0.2L39,32.5c-0.6,0.2-1.2,0.6-1.8,0.9c1.9-0.9,3.8-1.7,5.8-2.5c-2.2,1.5-4.3,3.3-6.2,5.2
		c0.7,0.1,1.4,0.6,1.6,1.4c0.1,0.2,0.1,0.4,0.1,0.6c0,0.2-0.1,0.5-0.2,0.7l-0.2,0.5c-0.1,0.3-0.4,0.6-0.7,0.8l-1.5,1
		c-0.6,0.4-1.2,0.8-1.8,1.2c-0.6,0.4-1.2,0.9-1.8,1.3l0,0c0.5,0.9,1.7,1.2,2.6,0.6l0.6-0.4c1.8-1.1,3.7-1.9,5.7-2.7
		c-3,2.7-5.7,5.8-7.5,9.4l-0.1,0.4c0,0.1,0,0.2-0.1,0.2c-0.2,0.9,0.3,1.8,1.1,2.1c-1.6,1.4-3.1,2.8-4.3,4.5c-0.6,0.8-0.5,2,0.4,2.6
		c0.8,0.6,2,0.5,2.6-0.4c2.3-3.1,5.6-5.4,8.6-7.8l1.1-0.9c0.5-0.5,0.7-1.2,0.5-1.9c-0.3-1-1.3-1.6-2.3-1.3l-0.4,0.1
		c-0.5,0-0.9,0.1-1.3,0.2c2.8-3.7,6.5-6.7,10.4-9.1l1.5-1c0.3-0.2,0.5-0.5,0.7-0.8l0.2-0.5c0.2-0.4,0.2-0.9,0.1-1.3
		c-0.3-1-1.3-1.6-2.3-1.3l-0.5,0.1c-2.7,0.7-5.5,1.5-8.2,2.4c5.1-4.5,11.3-7.7,17.8-9.6l1.6-0.5c0.3-0.1,0.7-0.3,0.9-0.6
		c0.3-0.3,0.4-0.8,0.4-1.3C62,24.1,61.3,23.4,60.4,23.3L60.4,23.3z"/>
	<path class="st2" d="M20.8,24.6c2.1-0.3,4.1-2.1,4.1-2.1l0.2-0.3c0.7,2.5,2.5,4.1,4.4,3.8c2.1-0.3,3.4-2.9,2.9-5.8
		c-0.3-2.1-1.5-3.8-2.9-4.4l0.2-0.3c0,0-1.2-1.4-3.9,0s-2.9,4.6-4.6,6.7c-1.7,2.1-5.5,2.1-5.5,2.1S18.7,24.9,20.8,24.6z M47.5,25.4
		c-0.4-0.3-0.8-0.5-1.3-0.4l-0.4,0c-5.4,0.3-10.8,1.3-15.8,3.3c-5.7,2.3-11.7,4.3-16.6,8c-0.8,0.7-0.9,1.9-0.2,2.6
		c0.7,0.8,1.9,0.9,2.7,0.2c1.1-1.1,2.6-1.7,4-2.4c3.1-1.6,6.2-2.9,9.4-4.2c-4,2.7-7.5,6.1-10.3,10.1l-0.4,0.5
		c-0.3,0.6-0.3,1.3,0,1.9c0.5,0.9,1.7,1.2,2.6,0.6l0.6-0.3c1.8-1.1,3.7-1.9,5.7-2.7c-3,2.7-5.7,5.8-7.5,9.4l-0.1,0.4
		c0,0.1,0,0.2-0.1,0.2c-0.2,0.9,0.3,1.8,1.1,2.1c-1.6,1.4-3.1,2.8-4.3,4.5c-0.6,0.8-0.5,2,0.4,2.6c0.8,0.6,2,0.5,2.6-0.4
		c2.3-3.1,5.6-5.4,8.5-7.8l1.1-0.9c0.5-0.5,0.7-1.2,0.6-1.9c-0.3-1-1.3-1.6-2.3-1.3L26.9,50c-0.5,0-0.9,0.1-1.3,0.2
		c1.9-2.5,4.3-4.7,6.8-6.7c0.6-0.5,1.2-0.9,1.8-1.3c0.6-0.4,1.2-0.8,1.8-1.2l1.5-1c0.3-0.2,0.5-0.5,0.7-0.8l0.2-0.5
		c0.1-0.2,0.1-0.4,0.2-0.7c0-0.2,0-0.4-0.1-0.6c-0.2-0.8-0.9-1.3-1.6-1.4c-0.2,0-0.5,0-0.7,0.1l-0.5,0.2c-1,0.2-1.9,0.5-2.9,0.8
		l0.5-0.5c0,0,0,0,0,0c1.3-1.2,2.5-2.4,4-3.3c0.6-0.3,1.2-0.7,1.8-0.9l1.3-0.6h0.2c0.1-0.1,0.2-0.1,0.3-0.2l0.4-0.3
		c0.3-0.2,0.5-0.6,0.4-1c1.2-0.5,2.4-0.9,3.7-1.2l1.3-0.5l0.3-0.1c0.3-0.1,0.5-0.3,0.7-0.5c0.3-0.4,0.5-0.9,0.5-1.4
		C48.1,26.3,47.8,25.8,47.5,25.4L47.5,25.4z"/>
	<path d="M32,68.1c-2.7,0-5.2-0.3-7.7-0.9c4.7,2.8,10.2,4.5,16.1,4.5c17.3,0,31.4-14,31.4-31.4c0-14.7-10.1-27-23.6-30.4
		c5.3,3.2,9.6,7.9,12.2,13.5c0.9,0.1,1.6,0.8,1.6,1.7c0,0.5-0.1,0.9-0.4,1.3c1.1,3.2,1.7,6.7,1.7,10.3C63.4,54,49.3,68.1,32,68.1z
		 M7.6,53.2l-2.3,0.9l0,0l2.1-1.6L7,51.7l-2.6,0.1l0,0L6.8,51l-0.3-0.8l-3,1.1l0.5,1.2l2.3-0.1l0,0l-1.8,1.4l0.5,1.3l3-1.1L7.6,53.2
		z M4.8,50.2c1-0.2,1.5-0.9,1.2-2S5,46.8,4,47c-1,0.2-1.5,0.9-1.2,2S3.8,50.4,4.8,50.2z M3.4,48.9c-0.1-0.5,0.3-0.8,0.8-0.9
		c0.5-0.1,1.1,0,1.2,0.5c0.1,0.5-0.3,0.8-0.8,0.9C4,49.5,3.5,49.4,3.4,48.9z M5.3,45.1c-0.2-1.1-0.7-1.9-1.9-1.7
		c-1.2,0.2-1.5,1-1.3,2.1l0.2,1.2l3.2-0.5L5.3,45.1z M2.8,45.8l0-0.3c-0.1-0.6,0.2-1.1,0.8-1.1c0.6-0.1,1,0.2,1.1,0.9l0,0.3
		L2.8,45.8L2.8,45.8z M4.9,40.5l-0.6,0L4.4,42l-0.7,0l-0.1-1.3l-0.6,0L3,42.1l-0.7,0l-0.1-1.4l-0.6,0l0.1,2.3l3.3-0.2L4.9,40.5
		L4.9,40.5z M4.9,37.9H4.3v1.3H1.6V40l3.3,0L4.9,37.9L4.9,37.9z M3.3,37.5c1,0.1,1.7-0.4,1.8-1.5s-0.5-1.7-1.5-1.8
		c-1-0.1-1.7,0.4-1.8,1.5C1.7,36.8,2.3,37.4,3.3,37.5z M3.5,35.2c0.5,0,1,0.3,1,0.8c0,0.5-0.6,0.7-1.1,0.6c-0.6-0.1-1-0.3-1-0.8
		C2.5,35.3,3,35.1,3.5,35.2z M5.8,31.6c0.2-1.1,0-2-1.2-2.3c-1.2-0.3-1.7,0.4-2,1.5L2.4,32l3.2,0.7L5.8,31.6L5.8,31.6z M5.2,31.4
		l-0.1,0.3l-1.9-0.5L3.3,31c0.1-0.6,0.5-0.9,1.2-0.7C5.1,30.4,5.3,30.8,5.2,31.4z M7.1,27.1L6.5,27L6,28.4l-0.7-0.2l0.4-1.3
		l-0.6-0.2L4.8,28l-0.6-0.2l0.5-1.4L4,26.2l-0.7,2.2l3.1,1L7.1,27.1L7.1,27.1z M8.7,23.4l-0.6-0.3l-0.6,1.3l-0.7-0.3l0.6-1.2
		l-0.6-0.3l-0.6,1.2l-0.6-0.3l0.6-1.3L5.7,22l-0.9,2.1l2.9,1.4L8.7,23.4L8.7,23.4z M7.4,22.3c0.9,0.5,1.7,0.3,2.3-0.6v0l0.8-0.2
		l0.5-0.9l-1,0.3c0.1-0.6-0.3-1.1-0.9-1.5c-0.9-0.5-1.7-0.3-2.3,0.6C6.2,21,6.5,21.8,7.4,22.3z M7.3,20.4c0.3-0.5,0.8-0.4,1.3-0.1
		c0.5,0.3,0.8,0.7,0.5,1.2c-0.3,0.5-0.8,0.4-1.3,0.1C7.3,21.3,7,20.8,7.3,20.4z M11.5,18.9c0.5-0.7,0.5-1.4-0.2-1.9l-1.6-1.2
		l-0.5,0.7l1.5,1.1c0.3,0.2,0.6,0.5,0.3,0.9c-0.2,0.4-0.6,0.2-1,0l-1.5-1.1l-0.5,0.7l1.6,1.2C10.3,19.9,11,19.6,11.5,18.9L11.5,18.9
		z M13.1,16.6l-2.5-2.1l-0.5,0.7l2.5,2.1L13.1,16.6z M14.3,15.3c0.7-0.8,1-1.7,0.1-2.5c-0.9-0.9-1.7-0.5-2.5,0.3L11.1,14l2.4,2.2
		L14.3,15.3z M12.4,13.5c0.4-0.5,0.9-0.5,1.4-0.1c0.5,0.5,0.5,0.9,0,1.4l-0.2,0.2l-1.4-1.3C12.1,13.8,12.4,13.5,12.4,13.5z
		 M16.3,13.3l-0.3-0.7l0.9-0.8l0.6,0.4l0.7-0.6l-3.1-1.6l-0.8,0.7l1.2,3.3L16.3,13.3L16.3,13.3z M15.3,10.7l1.1,0.7L15.8,12
		L15.3,10.7L15.3,10.7z M19.5,10.7c0.9-0.6,1.3-1.5,0.6-2.5c-0.7-1-1.6-0.9-2.5-0.2l-1,0.7l1.9,2.7L19.5,10.7L19.5,10.7z M18,8.6
		c0.5-0.4,1-0.3,1.4,0.2c0.4,0.5,0.3,1-0.3,1.4l-0.3,0.2l-1.1-1.6C17.7,8.8,18,8.6,18,8.6z M23.6,8.2c1-0.5,1.5-1.3,1-2.3
		c-0.6-1.1-1.4-1.1-2.4-0.6l-1.1,0.5l1.5,2.9L23.6,8.2L23.6,8.2z M22.4,5.8c0.6-0.3,1.1-0.2,1.3,0.4s0.1,1-0.5,1.3L23,7.7L22.1,6
		C22.1,6,22.4,5.8,22.4,5.8z M27.8,6.3l-0.2-0.6l-1.4,0.5L26,5.6l1.3-0.5L27,4.5L25.8,5l-0.2-0.6l1.3-0.5l-0.2-0.6l-2.1,0.9l1.2,3
		C25.7,7.2,27.8,6.3,27.8,6.3z M31.2,5.3c0.3-0.1,0.7-0.2,1.2-0.5L32,3.1l-1.3,0.3l0.2,0.6l0.5-0.1l0.2,0.6c0,0-0.2,0.1-0.3,0.1
		C30.6,4.9,30,4.6,29.9,4c-0.2-0.7,0.3-1.2,1-1.3c0.2-0.1,0.5-0.1,0.8,0l-0.1-0.7c-0.3,0-0.8,0.1-1,0.1c-1.2,0.3-1.9,1-1.6,2.1
		C29.3,5.4,30.4,5.6,31.2,5.3L31.2,5.3z M35.2,4.5l-0.1-0.6l-1.5,0.2l-0.1-0.7l1.3-0.2l-0.1-0.6l-1.3,0.2l-0.1-0.7l1.4-0.2l-0.1-0.6
		l-2.3,0.4l0.5,3.2L35.2,4.5L35.2,4.5z M36.4,4.4l-0.2-2.2h0l1.3,2.1l1.1-0.1L38.4,1L37.6,1l0.2,2.2l0,0l-1.3-2.1l-1.1,0.1l0.2,3.3
		L36.4,4.4L36.4,4.4z M41.4,3.7H40V2.9h1.4V2.3H40V1.6h1.4V1.1l-2.3,0l-0.1,3.3l2.3,0L41.4,3.7L41.4,3.7z M42.8,3.1H43
		c0.3,0.1,0.4,0.2,0.5,0.8l0.1,0.6l0.9,0.1l-0.2-0.9C44.2,3.3,44.2,3,44,3l0,0c0.4-0.1,0.7-0.3,0.7-0.7c0.1-0.5-0.4-0.9-0.9-0.9
		l-1.5-0.2l-0.3,3.2l0.9,0.1L42.8,3.1L42.8,3.1z M43,1.8h0.2c0.3,0.1,0.6,0.1,0.6,0.5c0,0.4-0.4,0.3-0.7,0.3h-0.2L43,1.8L43,1.8z
		 M46.3,5c1,0.2,1.7-0.3,1.9-1.3S48,1.9,47,1.7C45.9,1.5,45.2,2,45,3S45.2,4.8,46.3,5z M45.9,3.2c0.1-0.5,0.4-1,0.9-0.9
		c0.5,0.1,0.6,0.6,0.5,1.2c-0.1,0.5-0.4,1-0.9,0.9C45.9,4.2,45.8,3.7,45.9,3.2z M50.6,5.2c0.4,0.1,0.9-0.1,1-0.5
		c0.1-0.4-0.1-0.9-0.5-1c-0.4-0.1-0.9,0.1-1,0.5S50.2,5.1,50.6,5.2L50.6,5.2z M54.7,5L54.7,5l-0.4,2.6l0.7,0.3L56.9,6l0,0l-1.1,2.2
		l0.8,0.4L58,5.7l-1.2-0.6l-1.6,1.6l0,0l0.3-2.2L54.3,4l-1.4,2.9l0.8,0.4L54.7,5L54.7,5z M58.9,10.2l0.3-0.5L58,8.9l0.4-0.6l1.1,0.7
		l0.3-0.5l-1.1-0.7L59,7.1l1.2,0.7l0.3-0.5l-1.9-1.2l-1.7,2.8C56.9,8.9,58.9,10.2,58.9,10.2z M60.1,9c-0.7,1-0.2,1.9,0.5,2.5
		c0.2,0.2,0.6,0.4,1.1,0.6l1.1-1.4l-1.1-0.8l-0.4,0.5l0.4,0.3l-0.4,0.5c-0.1,0-0.2-0.1-0.3-0.1c-0.5-0.4-0.7-0.9-0.3-1.5
		C61.3,8.9,62,9,62.5,9.5c0.2,0.1,0.4,0.3,0.5,0.7l0.5-0.5C63.3,9.3,63,9,62.8,8.9C61.8,8.2,60.9,8,60.1,9z M63.2,12.5l-0.6-0.5
		l-0.5,0.6l0.6,0.5L63.2,12.5z M63.8,11.8l0.5-0.6l-0.6-0.5l-0.5,0.6L63.8,11.8z M63.4,12.9L63,13.3l1.7,1.6l0.4-0.5l-0.9-0.9h0.3
		c0.4,0,1.3,0.1,1.8-0.4c0.5-0.5,0.3-1.1-0.2-1.5c-0.1-0.1-0.4-0.3-0.8-0.5l-0.5,0.5c0.2,0.1,0.6,0.2,0.8,0.4c0.2,0.2,0.2,0.4,0,0.6
		C65.3,13,64.3,12.9,63.4,12.9L63.4,12.9z M65.8,16.2c0.7,0.8,1.5,0.4,2.1-0.2c0.6-0.6,1.1-1.3,0.4-2.1s-1.5-0.4-2.1,0.2
		C65.5,14.7,65,15.4,65.8,16.2z M66.7,14.7c0.4-0.3,0.8-0.7,1.1-0.4c0.3,0.3-0.1,0.7-0.5,1s-0.8,0.7-1.1,0.4
		C65.9,15.5,66.3,15.1,66.7,14.7z M67.5,18.3c0.7,0.9,1.4,0.5,2.1,0c0.7-0.5,1.2-1.2,0.6-2c-0.6-0.9-1.4-0.5-2.1,0
		C67.4,16.8,66.8,17.4,67.5,18.3z M68.6,16.9c0.4-0.3,0.9-0.7,1.1-0.3c0.2,0.3-0.2,0.7-0.6,1s-0.9,0.7-1.1,0.3
		C67.7,17.6,68.2,17.2,68.6,16.9z M71.2,19.4c-0.2,0.1-0.5-0.1-0.6-0.2c-0.1-0.1-0.1-0.2-0.2-0.3l-0.5,0.3c0.1,0.1,0.1,0.2,0.2,0.3
		c0.1,0.2,0.3,0.5,0,0.7c-0.3,0.2-0.6-0.1-0.7-0.3c-0.2-0.3-0.3-0.5-0.3-0.7l-0.6,0.3c0.1,0.2,0.2,0.5,0.4,0.9
		c0.3,0.5,0.9,1.1,1.6,0.6c0.3-0.2,0.4-0.6,0.3-0.9l0,0c0.3,0.2,0.6,0.3,0.9,0.1c0.6-0.4,0.4-1.1,0-1.6c-0.2-0.3-0.4-0.5-0.6-0.7
		l-0.5,0.4c0.2,0.1,0.4,0.3,0.5,0.6C71.3,19,71.4,19.3,71.2,19.4L71.2,19.4z M71.8,23.4c0.2,0.4,0.7,0.5,1.1,0.3
		c0.4-0.2,0.5-0.7,0.3-1.1s-0.7-0.5-1.1-0.3C71.7,22.5,71.6,23,71.8,23.4z M72.5,27l2.3-0.9l0,0l-2.1,1.6l0.3,0.7l2.6-0.1l0,0
		l-2.4,0.8l0.3,0.8l3.1-1.1l-0.5-1.2l-2.3,0.1l0,0l1.8-1.4l-0.5-1.3l-3.1,1.1C72.2,26.2,72.5,27,72.5,27z M75.3,30
		c-1,0.2-1.5,0.9-1.3,2c0.2,1,1,1.4,2,1.2c1-0.2,1.5-0.9,1.2-2C77.1,30.2,76.3,29.8,75.3,30z M76.7,31.3c0.1,0.5-0.3,0.8-0.8,0.9
		c-0.5,0.1-1.1,0-1.2-0.5c-0.1-0.5,0.3-0.8,0.8-0.9C76,30.7,76.5,30.8,76.7,31.3z M74.7,35.1c0.2,1.1,0.7,1.9,1.9,1.7
		c1.2-0.2,1.5-1,1.3-2.1l-0.2-1.2l-3.2,0.5C74.5,33.9,74.7,35.1,74.7,35.1z M77.2,34.4l0,0.3c0.1,0.6-0.2,1.1-0.8,1.1
		c-0.7,0.1-1-0.2-1.1-0.9l0-0.3L77.2,34.4L77.2,34.4z M75.1,39.7l0.6,0l-0.1-1.5l0.7,0l0.1,1.3l0.6,0L77,38.1l0.7,0l0.1,1.4l0.6,0
		l-0.1-2.3L75,37.3L75.1,39.7L75.1,39.7z M75.1,40.1l0,2.2h0.7V41l2.6,0v-0.9C78.4,40.2,75.1,40.1,75.1,40.1z M76.7,42.6
		c-1-0.1-1.7,0.4-1.8,1.5s0.5,1.7,1.5,1.8c1,0.1,1.7-0.4,1.8-1.5C78.3,43.4,77.8,42.8,76.7,42.6z M76.5,45c-0.5-0.1-1-0.3-0.9-0.8
		c0.1-0.5,0.6-0.7,1.1-0.6c0.6,0.1,1,0.3,0.9,0.8C77.5,44.9,77,45.1,76.5,45z M74.2,48.6c-0.3,1.1,0,2,1.2,2.3
		c1.2,0.3,1.7-0.4,2-1.5l0.3-1.2l-3.2-0.7L74.2,48.6L74.2,48.6z M74.8,48.7l0.1-0.3l1.9,0.5l-0.1,0.3c-0.1,0.6-0.6,0.9-1.2,0.7
		C74.9,49.8,74.7,49.4,74.8,48.7z M72.9,53l0.6,0.2l0.5-1.4l0.7,0.2l-0.4,1.3l0.6,0.2l0.4-1.3l0.6,0.2l-0.5,1.4L76,54l0.7-2.2
		l-3.1-1L72.9,53L72.9,53z M71.3,56.8l0.5,0.3l0.6-1.3l0.7,0.3l-0.6,1.2l0.5,0.3l0.6-1.2l0.6,0.3l-0.6,1.3l0.5,0.3l0.9-2.1l-2.9-1.4
		L71.3,56.8L71.3,56.8z M72.6,57.8c-0.9-0.5-1.7-0.3-2.3,0.6v0l-0.8,0.2L69,59.5l1-0.3c-0.1,0.6,0.3,1.1,0.9,1.5
		c0.9,0.5,1.7,0.3,2.3-0.6C73.7,59.2,73.5,58.4,72.6,57.8L72.6,57.8z M72.6,59.8c-0.3,0.5-0.8,0.4-1.3,0.1c-0.5-0.3-0.8-0.7-0.5-1.2
		c0.3-0.5,0.8-0.4,1.3-0.1C72.6,58.9,72.9,59.3,72.6,59.8z M68.5,61.3c-0.5,0.7-0.5,1.4,0.2,1.9l1.6,1.2l0.5-0.7l-1.5-1.1
		C69,62.3,68.8,62,69,61.6c0.3-0.4,0.6-0.2,1,0l1.5,1.1L72,62l-1.6-1.2C69.6,60.3,69,60.6,68.5,61.3L68.5,61.3z M66.8,63.5l2.5,2.1
		l0.5-0.7l-2.5-2.1L66.8,63.5z M65.7,64.8c-0.7,0.8-1,1.7-0.1,2.5c0.9,0.9,1.7,0.5,2.5-0.3l0.8-0.9l-2.4-2.2L65.7,64.8L65.7,64.8z
		 M67.5,66.6c-0.4,0.5-0.9,0.5-1.4,0.1s-0.5-0.9,0-1.4l0.2-0.2l1.4,1.3L67.5,66.6z M63.6,66.9l0.3,0.7L63,68.3L62.3,68l-0.7,0.6
		l3.1,1.6l0.8-0.7l-1.2-3.3L63.6,66.9z M64.6,69.4l-1.1-0.7l0.6-0.5L64.6,69.4L64.6,69.4z M60.4,69.4c-0.9,0.6-1.3,1.4-0.6,2.4
		c0.7,1,1.6,0.9,2.5,0.2l1-0.7l-1.9-2.7L60.4,69.4L60.4,69.4z M61.9,71.5c-0.5,0.4-1,0.3-1.4-0.2c-0.4-0.5-0.3-1,0.3-1.4l0.3-0.2
		l1.1,1.6L61.9,71.5z M56.3,71.9c-1,0.5-1.5,1.2-1,2.3c0.6,1.1,1.4,1.1,2.4,0.6l1.1-0.5l-1.5-2.9L56.3,71.9z M57.4,74.3
		c-0.6,0.3-1.1,0.2-1.3-0.4s-0.1-1,0.5-1.3l0.3-0.1l0.9,1.7C57.8,74.1,57.4,74.3,57.4,74.3z M52,73.8l0.2,0.6l1.4-0.5l0.3,0.7
		L52.6,75l0.2,0.6l1.3-0.5l0.2,0.6l-1.3,0.5l0.2,0.6l2.1-0.9l-1.2-3L52,73.8L52,73.8z M48.7,74.7c-0.3,0.1-0.7,0.2-1.2,0.5l0.5,1.7
		l1.3-0.3L49.1,76l-0.5,0.1l-0.2-0.6c0,0,0.2-0.1,0.3-0.1c0.6-0.2,1.1,0.1,1.3,0.7c0.2,0.7-0.3,1.2-1,1.3c-0.2,0-0.5,0.1-0.8,0
		l0.1,0.7c0.3,0,0.8,0,1-0.1c1.2-0.3,1.9-0.9,1.6-2.1C50.6,74.7,49.5,74.5,48.7,74.7L48.7,74.7z M44.7,75.5l0.1,0.6l1.5-0.2l0.1,0.7
		L45,76.9l0.1,0.6l1.3-0.2l0.1,0.7l-1.4,0.2l0.1,0.6l2.3-0.4L47,75.2L44.7,75.5L44.7,75.5z M43.5,75.6l0.2,2.2l0,0l-1.3-2.1
		l-1.1,0.1l0.2,3.3l0.8-0.1l-0.2-2.2l0,0l1.2,2.1l1.1-0.1l-0.2-3.3L43.5,75.6L43.5,75.6z M38.4,76.3l1.5,0v0.7l-1.4,0v0.6l1.3,0v0.7
		l-1.4,0v0.6l2.3,0.1l0.1-3.3l-2.3-0.1L38.4,76.3L38.4,76.3z M37,76.9h-0.2c-0.3-0.1-0.4-0.2-0.5-0.8l-0.1-0.6l-0.9-0.1l0.2,0.9
		c0.1,0.4,0.1,0.7,0.4,0.8l0,0c-0.4,0.1-0.7,0.3-0.7,0.7c-0.1,0.5,0.4,0.9,0.9,0.9l1.5,0.2l0.4-3.2l-0.9-0.1L37,76.9L37,76.9z
		 M36.9,78.2h-0.2c-0.3-0.1-0.6-0.1-0.6-0.5c0-0.4,0.4-0.3,0.7-0.3H37L36.9,78.2L36.9,78.2z M33.6,75c-1-0.2-1.7,0.3-1.9,1.3
		c-0.2,1,0.2,1.8,1.3,2c1.1,0.2,1.7-0.3,1.9-1.3C35,76,34.6,75.2,33.6,75z M34,76.8c-0.1,0.5-0.4,1-0.9,0.9
		c-0.5-0.1-0.6-0.6-0.5-1.2c0.1-0.5,0.4-1,0.9-0.9C34,75.7,34.1,76.3,34,76.8z M29.2,74.7c-0.4-0.1-0.9,0.1-1,0.5
		c-0.2,0.4,0.1,0.9,0.5,1c0.4,0.1,0.9-0.1,1-0.5C29.9,75.3,29.7,74.9,29.2,74.7z M25.1,74.9L25.1,74.9l0.4-2.6L24.8,72l-1.9,1.9l0,0
		l1.1-2.3l-0.8-0.4l-1.4,2.9l1.2,0.6l1.6-1.6l0,0l-0.3,2.3l1.2,0.6L27,73l-0.8-0.4L25.1,74.9L25.1,74.9z M20.9,69.7l-0.3,0.5
		l1.3,0.8l-0.4,0.6l-1.2-0.7L20,71.4l1.2,0.7l-0.4,0.6L19.5,72l-0.3,0.5l1.9,1.2l1.7-2.8L20.9,69.7L20.9,69.7z M19.7,70.8
		c0.7-1,0.2-1.9-0.5-2.5c-0.2-0.2-0.6-0.4-1.1-0.7L17,69.2L18,70l0.4-0.5L18,69.2l0.4-0.5c0.1,0,0.2,0.1,0.3,0.1
		c0.5,0.4,0.6,1,0.2,1.5c-0.5,0.6-1.1,0.5-1.7,0.1c-0.2-0.1-0.4-0.4-0.5-0.7l-0.5,0.5c0.2,0.3,0.5,0.6,0.7,0.7
		C17.9,71.7,18.9,71.8,19.7,70.8L19.7,70.8z M16,68l-0.5,0.6l0.6,0.5l0.5-0.6L16,68z M16.6,67.3l0.6,0.5l0.5-0.6l-0.6-0.5L16.6,67.3
		z M16.4,66.9l0.5-0.5l-1.7-1.7l-0.4,0.5l0.9,0.9h-0.3c-0.4,0-1.4-0.1-1.8,0.4c-0.5,0.5-0.3,1.1,0.2,1.6c0.1,0.1,0.4,0.3,0.8,0.5
		l0.5-0.5c-0.2-0.1-0.6-0.2-0.8-0.5c-0.2-0.2-0.2-0.4,0-0.6C14.5,66.8,15.5,66.9,16.4,66.9L16.4,66.9z M14,63.6
		c-0.7-0.8-1.5-0.4-2.1,0.2s-1.2,1.3-0.4,2.1c0.7,0.8,1.5,0.4,2.1-0.2C14.2,65.1,14.8,64.4,14,63.6z M13.1,65
		c-0.4,0.3-0.9,0.7-1.1,0.4c-0.3-0.3,0.2-0.7,0.5-1.1s0.9-0.7,1.1-0.4C13.9,64.3,13.4,64.7,13.1,65z M12.3,61.4
		c-0.7-0.9-1.4-0.5-2.1,0c-0.7,0.5-1.2,1.2-0.6,2c0.7,0.9,1.4,0.5,2.1,0C12.4,63,13,62.3,12.3,61.4z M11.2,62.8
		c-0.4,0.3-0.9,0.6-1.1,0.3c-0.2-0.3,0.2-0.7,0.6-1c0.4-0.3,0.9-0.6,1.1-0.3C12,62.1,11.6,62.5,11.2,62.8z M8.6,60.3
		c0.2-0.1,0.5,0.1,0.6,0.3c0.1,0.1,0.1,0.2,0.2,0.3l0.5-0.3c-0.1-0.1-0.1-0.2-0.2-0.3c-0.1-0.2-0.3-0.5,0-0.7
		c0.3-0.2,0.6,0.1,0.7,0.3c0.2,0.3,0.3,0.5,0.3,0.8l0.6-0.3c-0.1-0.2-0.2-0.6-0.4-0.9c-0.3-0.5-0.9-1.1-1.6-0.7
		C8.9,59,8.8,59.3,9,59.7l0,0c-0.3-0.2-0.6-0.3-0.9-0.1C7.4,60,7.6,60.6,8,61.1c0.2,0.3,0.4,0.5,0.6,0.7l0.5-0.4
		c-0.2-0.1-0.4-0.3-0.5-0.6C8.5,60.7,8.3,60.4,8.6,60.3L8.6,60.3z M8.1,56.2c-0.2-0.4-0.7-0.6-1.1-0.4c-0.4,0.2-0.6,0.7-0.4,1.1
		s0.7,0.6,1.1,0.4C8.1,57.1,8.2,56.6,8.1,56.2L8.1,56.2z"/>
</g>
</svg>
