<?xml version="1.0" encoding="utf-8"?>
<!-- Generator: Adobe Illustrator 26.2.1, SVG Export Plug-In . SVG Version: 6.00 Build 0)  -->
<svg version="1.1" id="a" xmlns="http://www.w3.org/2000/svg" xmlns:xlink="http://www.w3.org/1999/xlink" x="0px" y="0px"
	 viewBox="0 0 80 80" style="enable-background:new 0 0 80 80;" xml:space="preserve">
<style type="text/css">
	.st0{fill:#B2B2B2;}
	.st1{clip-path:url(#SVGID_00000005261946455235491040000001637957153853723531_);}
	.st2{fill:#FFFFFF;}
	.st3{fill:#828282;}
</style>
<g>
	<path class="st0" d="M79.2,40c0,21.7-17.5,39.2-39.2,39.2S0.8,61.7,0.8,40S18.4,0.8,40,0.8S79.2,18.3,79.2,40"/>
	<rect x="40" y="53.1" width="26.1" height="26.1"/>
	<g>
		<defs>
			<rect id="SVGID_1_" x="40" y="53.1" width="26.1" height="26.1"/>
		</defs>
		<clipPath id="SVGID_00000077304454988259297750000000835547097321214893_">
			<use xlink:href="#SVGID_1_"  style="overflow:visible;"/>
		</clipPath>
		<g style="clip-path:url(#SVGID_00000077304454988259297750000000835547097321214893_);">
			<path class="st2" d="M43.8,61.4c0.1,0,0.3,0,0.5,0s0.3,0,0.5,0v0.1h-0.1c-0.1,0-0.2,0-0.2,0.1c0,0,0,0.1,0.1,0.2l0.6,1.6l0,0
				l0.7-2.1H46l0.7,2.1l0,0l0.5-1.5c0-0.1,0.1-0.2,0.1-0.3c0-0.1-0.1-0.1-0.2-0.1h-0.1v-0.1c0.1,0,0.3,0,0.4,0c0.1,0,0.3,0,0.4,0
				v0.1h-0.1c-0.2,0-0.2,0-0.3,0.2l-0.8,2.3h-0.1L45.9,62l0,0l-0.7,2.1h-0.1l-0.9-2.3c-0.1-0.2-0.2-0.3-0.3-0.3h-0.1L43.8,61.4
				L43.8,61.4z"/>
			<path class="st2" d="M49.2,61.4c0.8,0,1.5,0.6,1.5,1.3c0,0.7-0.5,1.3-1.5,1.3c-0.9,0-1.5-0.6-1.5-1.3
				C47.7,61.9,48.4,61.4,49.2,61.4 M49.2,61.5c-0.6,0-1.1,0.3-1.1,1.2c0,0.6,0.4,1.2,1.1,1.2c0.7,0,1.1-0.5,1.1-1.2
				C50.3,62.1,49.9,61.5,49.2,61.5"/>
			<path class="st2" d="M50.8,63.9L50.8,63.9c0.3,0,0.3-0.1,0.3-0.3v-1.8c0-0.2-0.1-0.3-0.3-0.3h-0.1v-0.1c0.1,0,0.3,0,0.5,0
				c0.3,0,0.5,0,0.6,0c0.7,0,0.8,0.5,0.8,0.7c0,0.5-0.4,0.6-0.6,0.7l0.5,0.8c0.2,0.3,0.3,0.3,0.6,0.4V64c-0.1,0-0.1,0-0.2,0
				c-0.3,0-0.5,0-0.7-0.4L52,63c-0.1-0.1-0.1-0.1-0.4-0.1v0.7c0,0.3,0.1,0.4,0.2,0.4h0.1V64c-0.2,0-0.3,0-0.5,0c-0.2,0-0.4,0-0.5,0
				L50.8,63.9L50.8,63.9z M51.5,62.7c0,0,0.2,0,0.3,0c0.4,0,0.7-0.1,0.7-0.5c0-0.2-0.1-0.6-0.7-0.6c-0.1,0-0.2,0-0.2,0V62.7z"/>
			<path class="st2" d="M53.5,63.9L53.5,63.9c0.3,0,0.3-0.1,0.3-0.3v-1.8c0-0.2-0.1-0.3-0.3-0.3h-0.1v-0.1c0.1,0,0.3,0,0.5,0
				s0.3,0,0.5,0v0.1h-0.1c-0.2,0-0.3,0.1-0.3,0.3v1.7c0,0.3,0.1,0.4,0.5,0.4c0.7,0,0.7-0.1,0.8-0.5h0.1l0,0.7c-0.3,0-0.8,0-1.2,0
				c-0.5,0-0.9,0-1,0L53.5,63.9L53.5,63.9z"/>
			<path class="st2" d="M55.8,63.9L55.8,63.9c0.3,0,0.3-0.1,0.3-0.3v-1.8c0-0.2-0.1-0.3-0.3-0.3h-0.1v-0.1c0.1,0,0.3,0,0.5,0
				c0.3,0,0.6,0,1,0c1.1,0,1.5,0.8,1.5,1.3c0,0.5-0.4,1.3-1.6,1.3c-0.2,0-0.5,0-0.8,0c-0.2,0-0.4,0-0.5,0L55.8,63.9L55.8,63.9z
				 M56.5,63.5c0,0.3,0.1,0.3,0.6,0.3c0.7,0,1.3-0.3,1.3-1.1c0-0.5-0.4-1.2-1.4-1.2c-0.2,0-0.3,0-0.5,0L56.5,63.5L56.5,63.5z"/>
			<path class="st2" d="M44.6,67.2L44.6,67.2c0.3,0,0.3,0,0.3-0.3v-2h-0.5c-0.4,0-0.5,0.2-0.5,0.5h-0.1v-0.7c0.1,0,0.8,0,1.3,0
				c0.5,0,1.1,0,1.3,0v0.7h-0.1c0-0.3-0.1-0.5-0.5-0.5h-0.4v2c0,0.3,0,0.3,0.3,0.3h0.1v0.1c-0.1,0-0.3,0-0.5,0s-0.4,0-0.5,0
				L44.6,67.2L44.6,67.2z"/>
			<path class="st2" d="M46.6,67.2L46.6,67.2c0.3,0,0.3-0.1,0.3-0.3v-1.8c0-0.2-0.1-0.3-0.3-0.3h-0.1v-0.1c0.1,0,0.3,0,0.5,0
				c0.3,0,0.5,0,0.6,0c0.7,0,0.8,0.5,0.8,0.7c0,0.5-0.4,0.6-0.6,0.7l0.5,0.8c0.2,0.3,0.3,0.3,0.6,0.3v0.1c0,0-0.2,0-0.3,0
				c-0.3,0-0.5,0-0.7-0.3l-0.5-0.7c-0.1-0.1-0.1-0.1-0.4-0.1v0.7c0,0.3,0.1,0.4,0.2,0.4h0.1v0.1c-0.2,0-0.3,0-0.5,0
				c-0.2,0-0.4,0-0.5,0L46.6,67.2L46.6,67.2z M47.3,66c0,0,0.2,0,0.3,0c0.4,0,0.7-0.1,0.7-0.5c0-0.2-0.1-0.6-0.7-0.6
				c-0.1,0-0.2,0-0.2,0V66L47.3,66z"/>
			<path class="st2" d="M48.9,67.2L48.9,67.2c0.3,0,0.3-0.1,0.5-0.4l0.9-2.2h0.1l1,2.2c0.1,0.2,0.2,0.4,0.4,0.4h0.1v0.1
				c-0.1,0-0.3,0-0.5,0c-0.2,0-0.4,0-0.5,0v-0.1h0.1c0.1,0,0.2,0,0.2-0.1c0-0.1,0-0.1-0.1-0.2l-0.3-0.7h-0.9l-0.2,0.6
				c0,0.1-0.1,0.2-0.1,0.3c0,0.1,0,0.1,0.2,0.1h0.1v0.1c-0.1,0-0.3,0-0.5,0c-0.1,0-0.3,0-0.4,0L48.9,67.2L48.9,67.2z M50.2,65.1
				l-0.4,1h0.8L50.2,65.1z"/>
			<path class="st2" d="M51.1,64.7c0.2,0,0.4,0,0.5,0c0.2,0,0.4,0,0.5,0v0.1h-0.1c-0.2,0-0.2,0.1-0.2,0.1s0,0.1,0.1,0.3l0.7,1.7
				l0.8-1.7c0-0.1,0.1-0.2,0.1-0.3c0-0.1-0.1-0.1-0.2-0.1h-0.1v-0.1c0.1,0,0.3,0,0.4,0s0.3,0,0.4,0v0.1h-0.1c-0.1,0-0.2,0-0.4,0.3
				l-1,2.2h-0.2l-1-2.2c-0.1-0.2-0.2-0.3-0.4-0.3h-0.1L51.1,64.7L51.1,64.7z"/>
			<path class="st2" d="M54.3,67.2L54.3,67.2c0.3,0,0.3-0.1,0.3-0.3v-1.8c0-0.2-0.1-0.3-0.3-0.3h-0.1v-0.1c0.1,0,0.6,0,1,0
				c0.5,0,0.7,0,0.9,0c0,0.2,0,0.4,0,0.6h-0.1c0-0.3-0.1-0.5-0.8-0.5H55v1h0.3c0.5,0,0.5-0.1,0.5-0.3h0.1c0,0.1,0,0.2,0,0.4
				c0,0.1,0,0.3,0,0.3h-0.1c0-0.2,0-0.3-0.5-0.3H55V67c0,0.2,0.1,0.3,0.3,0.3h0.1c0.7,0,0.9-0.1,0.9-0.5h0.1c0,0.2-0.1,0.4-0.1,0.7
				c-0.2,0-0.7,0-1.1,0c-0.5,0-0.9,0-1,0L54.3,67.2L54.3,67.2z"/>
			<path class="st2" d="M56.6,67.2L56.6,67.2c0.3,0,0.3-0.1,0.3-0.3v-1.8c0-0.2-0.1-0.3-0.3-0.3h-0.1v-0.1c0.1,0,0.3,0,0.5,0
				s0.3,0,0.5,0v0.1h-0.1c-0.2,0-0.3,0.1-0.3,0.3v1.7c0,0.3,0.1,0.4,0.5,0.4c0.7,0,0.7-0.1,0.8-0.5h0.1l0,0.7c-0.3,0-0.8,0-1.2,0
				c-0.5,0-0.9,0-1,0L56.6,67.2L56.6,67.2z"/>
			<path class="st2" d="M61.1,66c0.1,0,0.2,0,0.4,0c0.2,0,0.4,0,0.5,0v0.1c-0.3,0-0.3,0-0.3,0.3c0,0.1-0.1,0.3-0.1,0.5
				c0.3,0.4,0.4,0.4,0.8,0.4v0.1c-0.1,0-0.2,0-0.3,0c-0.2,0-0.3,0-0.4,0l-0.2-0.2c-0.1,0.1-0.4,0.3-0.8,0.3c-0.5,0-0.8-0.3-0.8-0.7
				c0-0.3,0.2-0.5,0.6-0.7c-0.2-0.2-0.4-0.4-0.4-0.6c0-0.4,0.4-0.7,0.7-0.7c0.3,0,0.6,0.2,0.6,0.5c0,0.3-0.2,0.4-0.7,0.7l0.9,0.8
				c0.1-0.1,0.1-0.3,0.1-0.4c0-0.2-0.1-0.2-0.3-0.2L61.1,66L61.1,66z M60.2,66.1c-0.3,0.2-0.3,0.3-0.3,0.5c0,0.3,0.3,0.6,0.7,0.6
				c0.2,0,0.5-0.1,0.5-0.2L60.2,66.1L60.2,66.1z M60.4,64.8c-0.2,0-0.4,0.2-0.4,0.4c0,0.2,0.4,0.5,0.4,0.6c0.2-0.2,0.4-0.3,0.4-0.5
				C60.8,65.1,60.7,64.8,60.4,64.8"/>
			<path class="st2" d="M44.6,70.6L44.6,70.6c0.3,0,0.3,0,0.3-0.3v-2h-0.5c-0.4,0-0.5,0.2-0.5,0.5h-0.1v-0.7c0.1,0,0.8,0,1.3,0
				c0.5,0,1.1,0,1.3,0v0.7h-0.1c0-0.3-0.1-0.5-0.5-0.5h-0.4v2c0,0.3,0,0.3,0.3,0.3h0.1v0.1c-0.1,0-0.3,0-0.5,0s-0.4,0-0.5,0
				L44.6,70.6L44.6,70.6z"/>
			<path class="st2" d="M47.9,68c0.8,0,1.5,0.6,1.5,1.3c0,0.7-0.5,1.3-1.5,1.3c-0.9,0-1.5-0.6-1.5-1.3C46.4,68.6,47.1,68,47.9,68
				 M47.9,68.2c-0.6,0-1.1,0.3-1.1,1.2c0,0.6,0.4,1.2,1.1,1.2c0.7,0,1.1-0.5,1.1-1.2C49.1,68.8,48.7,68.2,47.9,68.2"/>
			<path class="st2" d="M50.5,68.2L50.5,68.2c-0.2,0-0.3,0.1-0.3,0.4c0,0.4,0,0.8,0,1.2c0,0.3,0.1,0.4,0.2,0.6
				c0.1,0.2,0.3,0.3,0.7,0.3c0.4,0,0.7-0.2,0.8-0.3c0.1-0.2,0.2-0.4,0.2-0.7v-0.4c0-0.5,0-0.9-0.1-1c0-0.1-0.1-0.1-0.2-0.1h-0.1
				v-0.1c0.1,0,0.3,0,0.4,0s0.3,0,0.4,0v0.1h-0.1c-0.1,0-0.2,0.1-0.2,0.4v0.9c0,0.4-0.1,0.7-0.3,0.9c-0.2,0.2-0.5,0.3-0.8,0.3
				c-0.3,0-0.5-0.1-0.8-0.2c-0.3-0.2-0.4-0.5-0.4-0.9v-1.2c0-0.2-0.1-0.3-0.3-0.3h-0.1v-0.1c0.2,0,0.3,0,0.5,0s0.3,0,0.5,0
				L50.5,68.2L50.5,68.2z"/>
			<path class="st2" d="M52.6,70.6L52.6,70.6c0.3,0,0.3-0.1,0.3-0.3v-1.8c0-0.2-0.1-0.3-0.3-0.3h-0.1v-0.1c0.1,0,0.3,0,0.5,0
				c0.3,0,0.5,0,0.6,0c0.7,0,0.8,0.5,0.8,0.7c0,0.5-0.4,0.6-0.6,0.7l0.5,0.8c0.2,0.3,0.3,0.3,0.6,0.4v0.1c-0.1,0-0.1,0-0.2,0
				c-0.3,0-0.5,0-0.7-0.4l-0.5-0.7c-0.1-0.1-0.1-0.1-0.4-0.1v0.7c0,0.3,0.1,0.4,0.2,0.4h0.1v0.1c-0.2,0-0.3,0-0.5,0
				c-0.2,0-0.4,0-0.5,0L52.6,70.6L52.6,70.6z M53.3,69.3c0,0,0.2,0,0.3,0c0.4,0,0.7-0.1,0.7-0.5c0-0.2-0.1-0.6-0.7-0.6
				c-0.1,0-0.2,0-0.2,0V69.3L53.3,69.3z"/>
			<path class="st2" d="M55.3,70.6L55.3,70.6c0.3,0,0.3-0.1,0.3-0.3v-1.8c0-0.2-0.1-0.3-0.3-0.3h-0.1v-0.1c0.1,0,0.3,0,0.5,0
				c0.2,0,0.3,0,0.5,0v0.1h-0.1c-0.2,0-0.3,0.1-0.3,0.3v1.8c0,0.2,0.1,0.3,0.3,0.3h0.1v0.1c-0.2,0-0.3,0-0.5,0c-0.2,0-0.4,0-0.5,0
				V70.6z"/>
			<path class="st2" d="M58.3,68.7h-0.1c0-0.1,0-0.6-0.6-0.6c-0.3,0-0.5,0.2-0.5,0.4c0,0.2,0.1,0.4,0.4,0.5l0.4,0.2
				c0.3,0.1,0.6,0.3,0.6,0.7c0,0.5-0.3,0.8-1,0.8c-0.1,0-0.4,0-0.7-0.1v-0.6h0.1c0,0.3,0.3,0.6,0.7,0.6s0.6-0.2,0.6-0.5
				c0-0.3-0.3-0.4-0.5-0.5l-0.4-0.2c-0.3-0.1-0.5-0.3-0.5-0.6c0-0.4,0.3-0.7,0.9-0.7c0.2,0,0.5,0.1,0.8,0.1V68.7L58.3,68.7z"/>
			<path class="st2" d="M58.6,70.6L58.6,70.6c0.3,0,0.3-0.1,0.3-0.5c0-0.5,0-1,0-1.5c0-0.2-0.1-0.3-0.3-0.3h-0.1v-0.1
				c0.1,0,0.2,0,0.3,0c0.1,0,0.3,0,0.3,0l1.1,2.1l1-2.1c0.1,0,0.2,0,0.4,0c0.1,0,0.2,0,0.4,0v0.1h-0.1c-0.2,0-0.3,0-0.3,0.3
				c0,0.2,0,1.1,0,1.7c0,0.4,0,0.4,0.3,0.4h0.1v0.1c-0.1,0-0.3,0-0.5,0c-0.2,0-0.4,0-0.5,0v-0.1h0.1c0.2,0,0.3-0.1,0.3-0.4v-1.9l0,0
				l-1.1,2.4h-0.1l-1.1-2.2l0,0v1.5c0,0.4,0,0.5,0.3,0.5h0.1v0.1c-0.1,0-0.2,0-0.4,0c-0.2,0-0.3,0-0.4,0L58.6,70.6L58.6,70.6z"/>
			<path class="st2" d="M46.6,72.1L46.6,72.1c-0.2-0.2-0.3-0.5-1.1-0.5c-0.8,0-1.1,0.7-1.1,1.2c0,0.9,0.7,1.2,1.1,1.2
				c0.6,0,0.9-0.3,1.1-0.5h0v0.3c-0.1,0.1-0.5,0.4-1.1,0.4c-0.9,0-1.5-0.5-1.5-1.3s0.5-1.4,1.5-1.4c0.4,0,0.8,0.1,0.9,0.2
				c0.1,0,0.1,0,0.2,0.1L46.6,72.1L46.6,72.1z"/>
			<path class="st2" d="M48.3,71.4c0.8,0,1.5,0.6,1.5,1.3c0,0.7-0.5,1.3-1.5,1.3c-0.9,0-1.5-0.6-1.5-1.3
				C46.8,71.9,47.5,71.4,48.3,71.4 M48.3,71.5c-0.6,0-1.1,0.3-1.1,1.2c0,0.6,0.4,1.2,1.1,1.2c0.7,0,1.1-0.5,1.1-1.2
				C49.4,72.2,49,71.5,48.3,71.5"/>
			<path class="st2" d="M50.9,71.5L50.9,71.5c-0.2,0-0.3,0.1-0.3,0.4c0,0.4,0,0.8,0,1.2c0,0.3,0.1,0.4,0.2,0.6
				c0.1,0.2,0.3,0.3,0.7,0.3c0.4,0,0.7-0.2,0.8-0.3c0.1-0.2,0.2-0.4,0.2-0.7v-0.4c0-0.5,0-0.9-0.1-1c0-0.1-0.1-0.1-0.2-0.1h-0.1
				v-0.1c0.1,0,0.3,0,0.4,0c0.1,0,0.3,0,0.4,0v0.1h-0.1c-0.1,0-0.2,0.1-0.2,0.4v0.9c0,0.4-0.1,0.7-0.3,0.9c-0.2,0.2-0.5,0.3-0.8,0.3
				c-0.3,0-0.5-0.1-0.8-0.2c-0.3-0.2-0.4-0.5-0.4-0.9v-1.2c0-0.2-0.1-0.3-0.3-0.3h-0.1v-0.1c0.2,0,0.3,0,0.5,0c0.2,0,0.3,0,0.5,0
				C50.9,71.4,50.9,71.5,50.9,71.5z"/>
			<path class="st2" d="M52.9,73.9L52.9,73.9c0.3,0,0.3-0.1,0.3-0.5c0-0.5,0-1.2,0-1.6c0-0.3-0.1-0.3-0.3-0.3h-0.1v-0.1
				c0.1,0,0.2,0,0.3,0c0.1,0,0.2,0,0.3,0l1.9,2.1l0,0l0-1.5c0-0.4-0.1-0.5-0.3-0.5h0v-0.1c0.1,0,0.3,0,0.4,0c0.1,0,0.3,0,0.4,0v0.1
				h-0.1c-0.1,0-0.2,0-0.2,0.4L55.6,74h-0.1l-2-2.2l0,0c0,0.6,0,1.1,0,1.7c0,0.3,0.1,0.4,0.3,0.4h0.1V74c-0.1,0-0.3,0-0.4,0
				C53.2,74,53.1,74,52.9,73.9L52.9,73.9L52.9,73.9z"/>
			<path class="st2" d="M58.5,72.1L58.5,72.1c-0.2-0.2-0.3-0.5-1.1-0.5c-0.8,0-1.1,0.7-1.1,1.2c0,0.9,0.7,1.2,1.1,1.2
				c0.6,0,0.9-0.3,1.1-0.5h0v0.3c-0.1,0.1-0.5,0.4-1.1,0.4c-0.9,0-1.5-0.5-1.5-1.3s0.5-1.4,1.5-1.4c0.4,0,0.8,0.1,0.9,0.2
				c0.1,0,0.2,0,0.2,0.1L58.5,72.1L58.5,72.1z"/>
			<path class="st2" d="M58.8,73.9L58.8,73.9c0.3,0,0.3-0.1,0.3-0.3v-1.8c0-0.2-0.1-0.3-0.3-0.3h-0.1v-0.1c0.1,0,0.3,0,0.5,0
				c0.2,0,0.3,0,0.5,0v0.1h-0.1c-0.2,0-0.3,0.1-0.3,0.3v1.8c0,0.2,0.1,0.3,0.3,0.3h0.1V74c-0.2,0-0.3,0-0.5,0c-0.2,0-0.4,0-0.5,0
				V73.9z"/>
			<path class="st2" d="M60.2,73.9L60.2,73.9c0.3,0,0.3-0.1,0.3-0.3v-1.8c0-0.2-0.1-0.3-0.3-0.3h-0.1v-0.1c0.1,0,0.3,0,0.5,0
				c0.2,0,0.3,0,0.5,0v0.1h-0.1c-0.2,0-0.3,0.1-0.3,0.3v1.7c0,0.3,0.1,0.4,0.5,0.4c0.7,0,0.7-0.1,0.8-0.5h0.1l0,0.7
				c-0.3,0-0.8,0-1.2,0c-0.5,0-0.9,0-1,0L60.2,73.9L60.2,73.9z"/>
			<path class="st2" d="M62.1,59.9c0.1-0.2,0.1-0.4,0.1-0.7c0-0.3-0.1-0.5-0.2-0.8c-0.1-0.3-0.4-0.7-0.7-0.9
				c-0.3-0.2-0.7-0.3-1.1-0.3c-0.3,0-0.5,0-0.7,0.1c0,0-0.1,0-0.1,0v0.6c0.1-0.1,0.2-0.1,0.3-0.2c0.2-0.1,0.3-0.1,0.5-0.1
				c0.2,0,0.4,0,0.5,0.1c0.3,0.1,0.5,0.3,0.6,0.5c0.2,0.2,0.2,0.5,0.2,0.8c0,0.2,0,0.3-0.1,0.5c-0.1,0.2-0.1,0.3-0.2,0.4l0,0
				L59.5,63v1l2.4-3.5C61.9,60.3,62.1,60.1,62.1,59.9"/>
			<path class="st3" d="M61.4,59.3c0,0.6-0.5,1.1-1.1,1.1c-0.6,0-1.1-0.5-1.1-1.1c0-0.6,0.5-1.1,1.1-1.1
				C60.9,58.1,61.4,58.6,61.4,59.3"/>
		</g>
	</g>
	<path d="M17.6,40.6h-2.5v3.5c0,0.8,0.4,1.2,1.3,1.2c0.4,0,0.6,0,0.8-0.1l-0.3,2.3c-0.3,0.1-0.8,0.2-1.4,0.2c-2.1,0-3.4-1.1-3.4-3
		v-4.1h-1.6V38h1.6v-2l3.1-1.1V38h3.1L17.6,40.6L17.6,40.6z"/>
	<path d="M26.5,41.3c-0.2-0.1-0.6-0.2-0.9-0.2c-1,0-1.9,0.5-1.9,2v4.4h-3.1v-9.5h3v2.1h0c0.3-1.5,1.4-2.3,2.7-2.3
		c0.3,0,0.7,0,0.9,0.1L26.5,41.3L26.5,41.3z"/>
	<path d="M35.3,48c-0.6-0.1-1.2-0.6-1.5-1.3c-0.4,0.8-1.3,1.2-2.5,1.2c-1.7,0-3.2-1.2-3.2-3.1c0-1.7,1.4-2.9,3.3-3.1l1.9-0.2v-0.3
		c0-0.6-0.5-0.9-1.5-0.9c-0.9,0-2,0.3-2.6,0.7l-0.5-2.3c0.8-0.5,2.1-0.8,3.3-0.8c2.5,0,4.3,1.2,4.3,3.4v3.1c0,1.1,0.4,1.7,1.2,2
		L35.3,48L35.3,48z M33.3,43.4l-1.2,0.1c-0.8,0.1-1.2,0.6-1.2,1.2c0,0.5,0.4,0.9,1,0.9c0.7,0,1.3-0.6,1.3-1.4V43.4z"/>
	<path d="M43,47.6h-2.3l-3.6-9.6h3l1.3,3.6c0.2,0.5,0.4,1.2,0.5,1.9h0c0.1-0.6,0.4-1.3,0.5-1.9l1.3-3.6h2.9L43,47.6L43,47.6z"/>
	<path d="M56.3,42.3l-1.4,1.4h-4.7c0.1,0.8,1.2,1.6,2.8,1.6c1,0,2-0.3,2.6-0.7l-0.3,2.6c-0.7,0.4-1.8,0.6-3,0.6
		c-2.9,0-5.2-2-5.2-5.1c0-3.1,2.2-5,4.9-5c2.7,0,4.3,1.8,4.3,3.8C56.3,41.8,56.3,42.1,56.3,42.3 M52.1,40.1c-0.9,0-1.6,0.7-1.9,1.5
		h3.2c0,0,0-0.1,0-0.2C53.5,40.8,52.9,40.1,52.1,40.1"/>
	<path d="M61.3,47.9c-2-0.1-3.3-1.1-3.3-3.4V32.6h3v11.5c0,0.8,0.4,1.2,1.3,1.3L61.3,47.9L61.3,47.9z"/>
	<path d="M66.8,47.8c-1.3,0-2.2-0.3-3-0.7l-0.3-2.7c0.8,0.6,1.9,1,3,1c0.6,0,0.9-0.3,0.9-0.7c0-0.4-0.3-0.6-0.9-0.7
		c-1.8-0.5-2.9-1.4-2.9-3.1c0-1.9,1.5-3.1,3.6-3.1c1.2,0,2.3,0.3,2.8,0.6l-0.5,2.3c-0.5-0.2-1.2-0.5-2-0.5c-0.5,0-0.8,0.2-0.8,0.6
		c0,0.4,0.2,0.5,0.8,0.7c2.1,0.6,3,1.6,3,3.2S69.4,47.8,66.8,47.8"/>
	<path d="M32.6,55.7c-0.5,0-0.9-0.2-1.2-0.3v-4.1h0.4V53c0,0,0.5-0.3,0.8-0.3c0.8,0,1.4,0.6,1.4,1.5S33.5,55.7,32.6,55.7 M32.6,53.2
		c-0.4,0-0.6,0.2-0.8,0.3v1.6c0,0,0.4,0.2,0.7,0.2c0.7,0,1.1-0.4,1.1-1.1C33.6,53.6,33.2,53.1,32.6,53.2"/>
	<path d="M35.9,55.4c-0.4,1-0.9,1.5-1.4,1.7l-0.3-0.3c0.5-0.2,0.9-0.6,1.2-1.3l-1.1-2.6h0.5l0.6,1.4c0.1,0.2,0.2,0.4,0.3,0.7l0,0
		c0.1-0.2,0.2-0.5,0.3-0.7l0.6-1.4h0.4L35.9,55.4z"/>
	<path d="M24.3,31.9c-1.5,0-3-0.4-3.7-0.9l-0.3-3c1.1,0.8,2.5,1.3,3.9,1.3c1.2,0,1.9-0.5,1.9-1.3c0-0.8-0.5-1.2-1.7-1.5
		c-2.6-0.7-3.8-2.2-3.8-4.2c0-2.2,1.6-4,4.5-4c1.5,0,2.8,0.4,3.4,0.8l-0.6,2.6c-0.5-0.3-1.6-0.7-2.5-0.7c-1.1,0-1.6,0.5-1.6,1.2
		s0.6,1,1.6,1.3c2.6,0.7,4.1,2,4.1,4.4C29.2,30.3,27.6,31.9,24.3,31.9"/>
	<path d="M37.9,32.2c-0.6-0.1-1.2-0.6-1.5-1.3c-0.4,0.8-1.3,1.2-2.5,1.2c-1.7,0-3.2-1.2-3.2-3.1c0-1.7,1.4-2.9,3.3-3.1l1.9-0.2v-0.3
		c0-0.6-0.5-0.9-1.5-0.9c-0.9,0-2,0.3-2.6,0.7l-0.5-2.3c0.8-0.5,2.1-0.8,3.3-0.8c2.5,0,4.3,1.2,4.3,3.4v3.1c0,1.1,0.4,1.7,1.2,2
		L37.9,32.2L37.9,32.2z M36,27.6l-1.2,0.1c-0.8,0.1-1.2,0.6-1.2,1.2c0,0.5,0.4,0.9,1,0.9c0.7,0,1.3-0.6,1.3-1.4V27.6z"/>
	<path d="M48.1,19.6c-0.4-0.1-0.9-0.2-1.2-0.2c-1.1,0-1.7,0.7-1.7,2v0.9h2.7l-0.6,2.5h-2.1v7h-3v-7h-1.4v-2.5h1.4v-1.1
		c0-2.9,1.9-4.3,4.3-4.3c0.9,0,1.8,0.1,2.2,0.3L48.1,19.6L48.1,19.6z"/>
	<path d="M57.4,26.5l-1.4,1.4h-4.7c0.1,0.8,1.2,1.6,2.8,1.6c1,0,2-0.3,2.6-0.7l-0.3,2.6c-0.7,0.4-1.8,0.6-3,0.6
		c-2.9,0-5.2-2-5.2-5.1s2.2-5,4.9-5s4.3,1.8,4.3,3.8C57.5,26,57.5,26.3,57.4,26.5 M53.3,24.3c-0.9,0-1.6,0.7-1.8,1.5h3.2
		c0,0,0-0.1,0-0.2C54.7,25,54.1,24.3,53.3,24.3"/>
</g>
</svg>
