<?xml version="1.0" encoding="utf-8"?>
<!-- Generator: Adobe Illustrator 26.2.1, SVG Export Plug-In . SVG Version: 6.00 Build 0)  -->
<svg version="1.1" id="a" xmlns="http://www.w3.org/2000/svg" xmlns:xlink="http://www.w3.org/1999/xlink" x="0px" y="0px"
	 viewBox="0 0 80 80" style="enable-background:new 0 0 80 80;" xml:space="preserve">
<style type="text/css">
	.st0{fill:#474747;}
	.st1{fill:#3D3D3D;}
	.st2{fill:#828282;}
	.st3{fill:#A3A3A3;}
	.st4{fill:#B8B8B8;}
	.st5{clip-path:url(#SVGID_00000071550442273392055440000011763833718701933485_);}
	.st6{fill:url(#SVGID_00000050658286575965907070000001276148408823193482_);}
</style>
<g id="b">
	<g>
		<g>
			<path d="M11.9,78.8v-0.9H8.7V75h3.1v-0.9H8.7v-2.7h3.2v-0.9H7.5v8.4L11.9,78.8L11.9,78.8L11.9,78.8z M19.3,78.8l-2.5-6.5h-1.3
				l-2.5,6.5H14l0.5-1.3h2.9l0.5,1.3H19.3L19.3,78.8z M17.2,76.7h-2.3l0.8-2.1c0.1-0.3,0.3-0.7,0.3-1.1l0,0c0.1,0.3,0.2,0.7,0.3,1.1
				L17.2,76.7L17.2,76.7z M25.5,78.8l-1.7-2.3c-0.2-0.3-0.4-0.5-0.5-0.7c1.1-0.1,1.9-0.7,1.9-1.9s-0.9-1.7-2.4-1.7
				c-0.8,0-1.5,0-1.9,0.1v6.5h1.1V76H22l2.1,2.8L25.5,78.8L25.5,78.8z M23.9,74.1c0,0.7-0.5,1.1-1.3,1.1h-0.7v-2.1
				c0.2,0,0.4-0.1,0.7-0.1C23.3,73.1,23.9,73.5,23.9,74.1 M30.9,73.3v-0.9H26v0.9h1.9v5.5H29v-5.5H30.9L30.9,73.3z M37.9,78.8v-6.5
				h-1.1V75h-3.3v-2.7h-1.1v6.5h1.1V76h3.3v2.9H37.9z M45.8,78.5l-0.1-1c-0.5,0.3-1.3,0.4-1.9,0.4c-2,0-2.9-1.2-2.9-3.3
				c0-1.9,0.8-3.3,2.7-3.3c0.7,0,1.3,0.1,1.9,0.3l0.1-1.1c-0.6-0.1-1.3-0.3-1.9-0.3c-2.9,0-4.1,1.9-4.1,4.5c0,2.4,1.1,4.1,3.9,4.1
				C44.3,78.9,45.1,78.8,45.8,78.5 M53.1,78.9v-6.5H52V75h-3.3v-2.7h-1.1v6.5h1.1V76H52v2.9H53.1z M59.2,78.9v-0.9h-2.5v-2H59v-0.9
				h-2.4v-1.9h2.5v-0.9h-3.7v6.5H59.2z M65.5,78.6l-0.1-1c-0.4,0.2-0.9,0.3-1.5,0.3c-1.4,0-2.2-0.8-2.2-2.3c0-1.3,0.7-2.4,2.1-2.4
				c0.5,0,0.9,0.1,1.5,0.3l0.1-1c-0.5-0.1-1-0.2-1.5-0.2c-2.4,0-3.5,1.6-3.5,3.5c0,2,1.1,3.2,3.2,3.2C64.4,78.9,65,78.8,65.5,78.6
				 M72.6,78.9l-2.9-3.4l2.8-3.1h-1.4l-2.6,3v-3h-1.1v6.5h1.1v-3.1l2.6,3.1H72.6L72.6,78.9z"/>
			<path class="st0" d="M68.6,33.8c0,0,0.1,4.4-3,7c-3.2,2.6-8.8,2.7-8.8,2.7s-0.9-3.7,3-7.7C63.6,31.7,68.6,33.8,68.6,33.8"/>
			<path class="st1" d="M66.9,29.2c2-3.7,1.7-5.8,1.7-5.8s-4.2-1.3-8.1,1.2c-3.9,2.5-3.5,7.6-3.5,7.6S64.8,32.9,66.9,29.2"/>
			<path class="st0" d="M69.6,26.9c2-3.7,1.7-5.8,1.7-5.8s-4.2-1.3-8.1,1.2c-3.9,2.5-3.5,7.6-3.5,7.6S67.6,30.6,69.6,26.9"/>
			<path class="st2" d="M54.5,33.8c-1.9,3.6-0.2,9.7-0.2,9.7s4,0.4,7.2-4.2c3.2-4.6-0.8-11.6-0.8-11.6S56.4,30.3,54.5,33.8"/>
			<path class="st1" d="M46.6,28.5C45.7,33.8,49,40.3,49,40.3s3.5-0.9,5.6-6.3c2.1-5.4-0.2-10.6-0.2-10.6S47.4,23.2,46.6,28.5"/>
			<path class="st1" d="M16.3,40c2.8,1.1,7.3,0.5,7.3,0.5s-2.4-2.1-5.6-2.8c-2.3-0.5-5.7,0.2-5.7,0.2S13.5,38.9,16.3,40"/>
			<path class="st3" d="M27.2,3c-2.1,2.1-1.1,8.2-1.1,8.2s3.5-0.1,5.8-3.1c2.3-3,0.9-5.2,0.9-5.2S29.3,0.9,27.2,3"/>
			<path class="st1" d="M52.6,56.9c2.4-2.5,2-6.7,2-6.7s-2.1,0.4-5.4,2.3c-3.3,1.9-3.3,6.3-3.3,6.3S50.3,59.4,52.6,56.9"/>
			<path class="st4" d="M37.7,1.8c-1.7,1-1.1,6.4-1.1,6.4s4.7,1,5.1-2.3c0.3-3.3-0.3-4.2-0.3-4.2S39.4,0.8,37.7,1.8"/>
			<path class="st1" d="M41.2,57.5c0,0,0.1-1.1-1.2-2.9c-1.3-1.7-4.2-2-4.2-2s0.5,3.9,1.7,5C38.6,58.9,41.2,57.5,41.2,57.5"/>
			<path class="st0" d="M22.9,5c0,0-2.8,0.1-2.4,3.4c0.4,3.9,4.8,4.6,4.8,4.6s1.6-2.2,1.4-4.9C26.6,5.4,22.9,5,22.9,5"/>
			<path class="st2" d="M22.3,10.4c0,0-3.3,0.9-3.8,3.1c-0.5,2.3,2.9,4.2,2.9,4.2s2.3-1.5,2.6-4C24.4,11.2,22.3,10.4,22.3,10.4"/>
			<path class="st1" d="M55.4,49.6c2.5-0.1,3.8-1.6,3.8-1.6s0.5-3.7-3.7-3.5c-2.9,0.1-5,2.3-5,2.3S52.9,49.6,55.4,49.6"/>
			<path class="st4" d="M55.9,4.4c0,0,2.5,2.1,2.5,3.9S56.6,11,56.6,11s-3.2-1.9-3.1-4.5C53.7,3.8,55.9,4.4,55.9,4.4"/>
			<path class="st1" d="M22.8,56.7c0,0-1.7-0.6-1.9-2.5c-0.1-1.9,1.2-4.2,1.2-4.2s4.3,3.5,4,4.9C25.8,56.4,22.8,56.7,22.8,56.7"/>
			<path class="st4" d="M58.8,8.2c0,0-1.5,0.9-2.5,3.1c-0.9,2.2,0.4,7.7,0.4,7.7s3.8-2.9,4.7-6.8C62.4,8.2,58.8,8.2,58.8,8.2"/>
			<path class="st4" d="M43,24.8c0,0,0.1-7.2,6.1-8.6c6-1.4,11.4,1.3,11.4,1.3s0.1,4.5-7.2,6.4C45.9,25.8,43,24.8,43,24.8"/>
		</g>
		<polygon class="st3" points="38.3,17.9 38.3,24.6 44.8,16.1 44.1,12.1 		"/>
		<g>
			<path class="st3" d="M48,10.9c0,0-1.3,2.8,0.5,4.2c1.7,1.5,8.9,0.5,8.9,0.5s0.1-3.4-3.1-4.4C51.1,10.3,48,10.9,48,10.9"/>
			<path class="st1" d="M30.7,48.4c0,0,1.1-2.8-2.3-4.6c-3.4-1.7-6.1-0.4-6.1-0.4s0.7,2.9,3.1,4.4C27.8,49.4,30.7,48.4,30.7,48.4"/>
			<path class="st0" d="M27.1,13.4c0,0-0.7,4.2,5.2,6.9c5.9,2.7,11.1,1.3,11.1,1.3s0.2-6.9-4.9-9.1C33.4,10.3,27.1,13.4,27.1,13.4"
				/>
			<path class="st1" d="M49.3,47.5c0,0,1.9-6-4.8-8c-6.8-2-11.4-0.1-11.4-0.1s0.3,7.7,4.9,9.1C42.4,49.8,49.4,47.5,49.3,47.5"/>
			<path class="st3" d="M34.7,4.8c0,0,3.3,2.9,4.6,5.8s-0.5,9.8-0.5,9.8s-4-2.9-5.4-6.7C32,9.9,34.7,4.8,34.7,4.8"/>
			<path class="st2" d="M42.3,55.3c0,0-3.3-2.2-4.6-5.8c-1.4-3.6,0.5-9.8,0.5-9.8s6.8,3.3,7.2,7.6C45.7,51.7,42.3,55.3,42.3,55.3"/>
			<path class="st0" d="M15.8,17.9c-0.9-2.7,1.1-3.6,1.1-3.6s3.7-0.4,4.2,1.5c0.6,1.9-0.3,5.3-0.3,5.3S16.6,20.6,15.8,17.9"/>
		</g>
		<g>
			<defs>
				<path id="SVGID_1_" d="M57.2,47.6c0.9,2.5,4.2,1.5,4.2,1.5s1.3-1.1,1.1-3.4c-0.3-3.3-4.2-4.7-4.2-4.7S56.4,45.1,57.2,47.6"/>
			</defs>
			<clipPath id="SVGID_00000162312057444019867240000001506018509790685097_">
				<use xlink:href="#SVGID_1_"  style="overflow:visible;"/>
			</clipPath>
			<g style="clip-path:url(#SVGID_00000162312057444019867240000001506018509790685097_);">
				
					<radialGradient id="SVGID_00000010293540450568829860000011036794451759896208_" cx="-522.3196" cy="596.7161" r="1.4792" gradientTransform="matrix(37.13 0 0 57.12 19448.7109 -34091.4102)" gradientUnits="userSpaceOnUse">
					<stop  offset="0" style="stop-color:#FFFFFF"/>
					<stop  offset="0.16" style="stop-color:#CCCCCC"/>
					<stop  offset="0.33" style="stop-color:#A1A1A1"/>
					<stop  offset="0.45" style="stop-color:#878787"/>
					<stop  offset="0.5" style="stop-color:#828282"/>
					<stop  offset="0.61" style="stop-color:#6B6B6B"/>
					<stop  offset="0.76" style="stop-color:#525252"/>
					<stop  offset="0.9" style="stop-color:#424242"/>
					<stop  offset="1" style="stop-color:#3D3D3D"/>
				</radialGradient>
				
					<rect x="56.4" y="41" style="fill:url(#SVGID_00000010293540450568829860000011036794451759896208_);" width="6.4" height="9.1"/>
			</g>
		</g>
		<g>
			<path class="st1" d="M70.9,41.1c0,0,0.1,1.7-2.9,2.4c-3,0.7-6.1-3.8-6.1-3.8s2.3-1.6,5.1-0.9C69.8,39.4,70.9,41.1,70.9,41.1"/>
			<path class="st2" d="M23.8,28.5c0,0,1.1-0.7,4.2,0c3.1,0.7,5.3,2.2,5.3,2.2S30.8,32,27.5,31C24.2,30,23.8,28.5,23.8,28.5"/>
			<path class="st0" d="M59.2,31.5c0,0-1.5,0.9-4.4,0.7c-2.9-0.1-5.1-2.9-5.1-2.9s2.9-1.3,5.4-0.3C57.6,30,59.2,31.5,59.2,31.5"/>
			<path class="st1" d="M53.5,31.5c0,0-3.5,0.4-6.9,0c-3.4-0.4-3.3-2.2-3.3-2.2s5.8-1.1,8.2,0C53.8,30.3,53.5,31.5,53.5,31.5"/>
			<path class="st0" d="M42.5,28.3c2.2-0.3,4.5,0,4.5,0s1.1,1.6-1.1,2.4c-3.5,1.3-5.4-0.6-5.4-0.6S40.3,28.7,42.5,28.3"/>
			<path class="st0" d="M45.9,34.6c3.9,1.1,5.2-0.7,5.2-0.7s0.1-1.9-3.7-3c-3.1-0.9-7.4,0.7-7.4,0.7S42,33.6,45.9,34.6"/>
			<path class="st1" d="M24.7,37.4c-1.9-0.5-2.8,0-2.8,0s-1.8,1.1,0.2,2.3c2,1.1,6.6,0,6.6,0S26.6,37.9,24.7,37.4"/>
			<path class="st0" d="M26.4,34c0,0,6.8,1.2,10.4,0.3s3.9-2.3,3.9-2.3s-1.5-1.1-6.1-0.6C30,31.7,26.4,34,26.4,34"/>
			<path class="st0" d="M50.7,25.5c0,0-2.6-0.3-5.6,0c-3.1,0.3-5,2.1-5,2.1s6.4,1.1,8.2,0C50.1,26.5,50.7,25.5,50.7,25.5"/>
			<path class="st0" d="M25.9,20.6c0,0-1.1,4.2,0.5,6c1.6,1.9,5.7,1.5,5.7,1.5s0-2.2-0.9-4.6C30.4,21.1,25.9,20.6,25.9,20.6"/>
			<path class="st2" d="M52.9,40.5c0,0,1.2-5.4,0-7.6c-1.2-2.1-6.2,0-6.2,0s0.3,3.9,1.4,5.6C49,40.3,52.9,40.6,52.9,40.5"/>
			<path class="st1" d="M28.8,50.6c0,0-0.2,2.3,2.1,4s4.1,0.7,4.1,0.7s1.7-2.3-1-4.2C31.4,49.1,28.8,50.6,28.8,50.6"/>
			<path class="st1" d="M50.3,10.5c0,0,0.2-3.5-1.4-4.2c-1.6-0.8-4.8-0.5-4.8-0.5s-2.9,2.9,0,4.4C47,11.9,50.3,10.5,50.3,10.5"/>
			<path class="st1" d="M29.4,59.2c0,0,0.7,1.6,5.9,2.2c5.2,0.7,6.1-0.2,6.1-0.2s-1.7-1.3-5.6-2C31.8,58.4,29.4,59.2,29.4,59.2"/>
			<path class="st4" d="M54.8,4.6c0,0-2-2.1-4-2.9c-2.1-0.8-4,0.2-4,0.2s1.7,2.3,3.9,2.7C52.7,5,54.8,4.6,54.8,4.6"/>
			<path class="st0" d="M58.5,29.5c3-2.5,1.4-6.7,1.4-6.7s-5.2-1.1-7.4,0.5c-2.2,1.5-1.9,7-1.9,7S55.5,32,58.5,29.5"/>
			<path class="st0" d="M19.2,23.9c-2.8,1.9-1.9,5.6-1.9,5.6s3.1-0.4,5.2-2.3c2.2-2,1-4.8,1-4.8S22,22,19.2,23.9"/>
			<path class="st0" d="M60.5,36c1.7-3.7,0.9-4.4,0.9-4.4s-3.7-1-5.2,1.1c-1.6,2.1-1,6.1-1,6.1S58.8,39.7,60.5,36"/>
			<path class="st1" d="M8.4,32.3c0,0-1.1,2.7,0,4.6c1.1,1.9,3.5,1.7,3.5,1.7s0.7-4.4,0-6.2C11.1,30.5,8.4,32.3,8.4,32.3"/>
			<path class="st2" d="M48.1,21c-2.1,1.5-1.5,5.4-1.5,5.4s3.1,1.7,6.1-0.4s0.5-6.8,0.5-6.8S50.1,19.5,48.1,21"/>
			<path class="st0" d="M30.6,39.6c2.1-2.1,1.6-4.9,1.6-4.9s-1.9-1.2-4.6,0.9c-2.8,2.1-2.1,6.3-2.1,6.3S28.5,41.7,30.6,39.6"/>
			<path class="st0" d="M43.7,35.4c0,0-0.6,4.5,2.7,7.4c2.1,1.9,5.1,1.1,5.1,1.1s3.7-4.8,0-7.2C47.8,34.4,43.7,35.4,43.7,35.4"/>
			<path class="st2" d="M35.3,25.3c0,0,0.7-5-1.8-7c-2.5-2.1-8.8-2.7-8.8-2.7s0.2,6.4,2.5,8.7C29.6,26.7,35.3,25.3,35.3,25.3"/>
			<path class="st3" d="M69.2,33.9c-1.6,2.1,0,6.2,0,6.2s1.6-0.9,2.2-2.9c0.7-2.1-0.3-4.4-0.3-4.4S70.8,31.8,69.2,33.9"/>
			<path class="st0" d="M9.9,24.6c0.9-2.1-0.3-3.7-0.3-3.7s-0.7-0.5-1.3,0.9c-0.6,1.5,0,4.6,0,4.6S9.1,26.2,9.9,24.6"/>
			<path class="st1" d="M12.8,24.8c-0.7,1.9-0.7,4-0.7,4s2.7-0.4,4.2-1.5s0.1-5.1,0.1-5.1S13.5,22.9,12.8,24.8"/>
			<path class="st0" d="M71.5,36.3c0,0,1.7-1.1,0-4.6c-1.7-3.4-6.8-2.8-6.8-2.8s0.8,4.7,2.3,6C68.5,36.2,71.5,36.3,71.5,36.3"/>
			<path class="st3" d="M61.9,14.5c0.3-1.9-1.1-3.7-1.1-3.7s-1.9,0.1-3.6,2c-1.7,1.9-0.5,8-0.5,8S61.6,16.3,61.9,14.5"/>
			<path class="st2" d="M18.8,46.6c3.3-0.4,4.2-4.8,4.2-4.8s-4.2-1.7-6.2-1.1c-3.3,0.8-3.3,4-3.3,4S15.6,46.9,18.8,46.6"/>
			<path class="st3" d="M45.4,3.2c0,0-1.9,2.3,0,3.8s8.5,0.9,8.5,0.9s-1.7-3.7-3.3-4.4C48.9,2.7,45.4,3.2,45.4,3.2"/>
			<path class="st1" d="M33.3,57.9c0,0,1.9-2.5,0-3.8c-1.9-1.3-8.5-0.9-8.5-0.9s1.3,3.3,3.3,4.4C30.2,58.8,33.3,57.9,33.3,57.9"/>
			<path class="st3" d="M44.4,5.6c-0.9,2.5-5.6,7.9-5.6,7.9s-0.3-1.6,0.2-5.2c0.5-3.7,5.2-7,5.2-7S45.4,3.1,44.4,5.6"/>
			<path class="st4" d="M48.8,9c-0.7,3-3.8,5.5-3.8,5.5s-0.8-2.9,0.2-5.2C46.3,6.9,48.8,5,48.8,5S49.5,6,48.8,9"/>
			<path class="st2" d="M46.4,23.7c-1.7,2.3-6.9,2.2-6.9,2.2s-2.3-6-0.1-8.6c2.3-2.5,6.7-1.2,6.7-1.2S48.1,21.4,46.4,23.7"/>
			<path class="st3" d="M35.5,30.1c0,0,3.5,0,5.3-1.7c1.9-1.7,0.5-5.2,0.5-5.2s-3.3-0.7-5,1.3C34.8,26.5,35.6,30.1,35.5,30.1"/>
			<path class="st0" d="M39.1,31.5c0,0-1.4,6.6,0.9,8.2c2.3,1.5,4.7,1.3,4.7,1.3s1.7-4.4,0.3-6.9C43.4,31.6,39.1,31.5,39.1,31.5"/>
			<path class="st2" d="M60.8,23.9c4.8,2.5,6,0.2,6,0.2s0-3.1-1.2-5.3c-1.2-2.2-7.7-2.9-7.7-2.9S56,21.4,60.8,23.9"/>
			<path class="st2" d="M67.7,37.7c0,0,0.5-2.3-1.3-4.8c-1.9-2.5-7.3-2.8-7.3-2.8s0.2,6.6,3.5,8.2C65.8,39.7,67.7,37.7,67.7,37.7"/>
			<path class="st1" d="M8.9,25c-0.7,2.3-0.4,4.6-0.4,4.6s1.6-0.2,2.6-1.7c1-1.5,0.8-4.6,0.8-4.6S9.7,22.7,8.9,25"/>
			<path class="st2" d="M71.3,34.5c1.2-1.5,0.4-4.6,0.4-4.6s-1.6-0.5-3.1,1.5c-1.4,2-0.4,4.9-0.4,4.9S70.1,36.1,71.3,34.5"/>
			<path class="st1" d="M15.3,15.3c-0.8,2.1-3.7,4.2-3.7,4.2s-1.3-0.9-0.1-3.3c1.1-2.3,4-4.6,4-4.6S16.1,13.2,15.3,15.3"/>
			<path class="st2" d="M63.4,45.9c0.6-2.1,3.7-4.2,3.7-4.2s0.8,0.8,0.1,3.3c-0.7,2.5-4,4.6-4,4.6S62.7,48,63.4,45.9"/>
			<path class="st2" d="M31.4,4.2c-2.3-0.5-3.1-2.5-3.1-2.5s2.5-1.1,5.6-0.5c3.1,0.6,2.5,2.7,2.5,2.7S33.8,4.7,31.4,4.2"/>
			<path class="st1" d="M46.4,58.7c2.5,0.5,3.1,1.8,3.1,1.8s-3.4,0.8-5.6,0.5c-2.2-0.3-2.4-2.1-2.4-2.1S44,58.3,46.4,58.7"/>
			<path class="st0" d="M63.7,11.9c0,0,0.9,1.9,2.3,3.2c1.5,1.3,3.9,2.3,3.9,2.3s-1.1-2.2-2.3-3.3C66.7,12.8,63.7,11.9,63.7,11.9"/>
			<path class="st1" d="M13.5,45.1c0.4-2.1-1-3.5-1-3.5s-2.5,1.4-2.5,3.2c-0.1,1.8,1.6,2.7,1.6,2.7S13.3,46.7,13.5,45.1"/>
			<path class="st0" d="M9.6,35.4c-1.6-1.4-2-1.5-2-1.5s-0.4,3.7,0,5.2c0.4,1.5,3.3,1.1,3.3,1.1S11.2,36.8,9.6,35.4"/>
			<path class="st2" d="M67.4,28.1c1.4,2.7,3.4,1.6,3.4,1.6s1.9-5.6,0.1-7c-1.7-1.4-3.3-1.1-3.3-1.1S66,25.3,67.4,28.1"/>
			<path class="st3" d="M67,23.2c0,0-0.7,1.3-0.3,2.6c0.5,2.2,1.7,2.7,1.7,2.7s1.3-0.9,0.6-3.5C68.6,23.8,67,23.2,67,23.2"/>
			<path class="st1" d="M15.6,37.1c1.1-1.5,0-6.2,0-6.2s-3.7-0.7-4.4,1.3c-0.7,1.9,0,4.6,0,4.6S14.5,38.6,15.6,37.1"/>
			<path class="st1" d="M19.3,48.7c0,0,0.9,4.3,2.9,5.1s4.2-0.2,4.2-0.2s0.1-3.2-1.9-4.2C22.6,48.3,19.3,48.7,19.3,48.7"/>
			<path class="st3" d="M59.2,11.2c0,0-0.6-4.5-2.9-5.1c-2.3-0.5-4.2,0.3-4.2,0.3s-0.7,3.3,1.9,4.2C56.5,11.7,59.2,11.2,59.2,11.2"
				/>
			<path class="st1" d="M14,50.4c0,0,1.7,2,3,3.1c1.3,1.1,3.3,1.2,3.3,1.2s-0.7-2.7-2.7-3.6C15.6,50.2,14,50.4,14,50.4"/>
			<path class="st2" d="M65.9,12.8c0,0-2.2-3.1-3.3-4.2c-1.1-1.2-2.6-1.7-2.6-1.7s0.5,2.7,1.7,3.9C62.8,12,65.9,12.8,65.9,12.8"/>
			<path class="st2" d="M36.1,4.8c0,0-3.7-0.5-6.5,0.7c-2.9,1.3-2.6,5.9-2.6,5.9s3.5,1.3,7.2-0.8C38,8.6,36.1,4.8,36.1,4.8"/>
			<path class="st1" d="M42.6,56.3c0,0,4,2.6,6.9-0.1c2.9-2.7,4.2-7,4.2-7s-6.9-2.1-10.5,0.7C39.6,52.6,42.6,56.3,42.6,56.3"/>
			<path class="st1" d="M20.3,32.3c-2.1,2.8-1.5,6-1.5,6s3.1,0,6.1-2.9s2.7-4.6,2.7-4.6S22.4,29.5,20.3,32.3"/>
			<path class="st0" d="M56.9,56c3.3-0.3,5.3-2.4,5.3-2.4s-3.1-4.8-6.8-4.6c-3.8,0.3-6.8,2.2-6.8,2.2S53.6,56.3,56.9,56"/>
			<path class="st2" d="M49.1,40.4c0,0-0.7,0.5-4.9-2.1c-4.2-2.6-1.9-7.9-1.9-7.9s5.5,0.7,6.6,3.1C50,35.9,49.1,40.4,49.1,40.4"/>
			<path class="st3" d="M63.1,16.7c-3.5,1.2-4.5,4.4-4.5,4.4s1.4,1.4,5.5-0.1s4.3-3.4,4.3-3.4S66.7,15.5,63.1,16.7"/>
		</g>
	</g>
</g>
</svg>
