<?xml version="1.0" encoding="utf-8"?>
<!-- Generator: Adobe Illustrator 26.2.1, SVG Export Plug-In . SVG Version: 6.00 Build 0)  -->
<svg version="1.1" id="Capa_1" xmlns="http://www.w3.org/2000/svg" xmlns:xlink="http://www.w3.org/1999/xlink" x="0px" y="0px"
	 viewBox="0 0 221 28.5" style="enable-background:new 0 0 221 28.5;" xml:space="preserve">
<style type="text/css">
	.st0{fill:#777777;}
</style>
<g id="Grupo_493" transform="translate(-193.911 -441.207)">
	<g id="Grupo_492" transform="translate(193.911 441.207)">
		<path id="Trazado_1453" class="st0" d="M29.6,10.1c-5.1,0-9.2,4.1-9.2,9.2c0,5.1,4.1,9.2,9.2,9.2s9.2-4.1,9.2-9.2l0,0
			C38.8,14.2,34.7,10.1,29.6,10.1z M29.6,25.1c-3.2,0-5.8-2.6-5.8-5.8c0-3.2,2.6-5.8,5.8-5.8c3.2,0,5.8,2.6,5.8,5.8
			C35.4,22.5,32.8,25.1,29.6,25.1L29.6,25.1z"/>
		<path id="Trazado_1454" class="st0" d="M60.4,10.1c-5.1,0-9.2,4.1-9.2,9.2c0,5.1,4.1,9.2,9.2,9.2c1.8,0,3.6-0.5,5.2-1.6l-1.9-2.8
			c-2.6,1.8-6.2,1.1-8-1.6c-0.3-0.5-0.6-1-0.7-1.5h14.7v-1.7C69.6,14.2,65.5,10.1,60.4,10.1z M54.9,17.6c0.9-3,4.2-4.8,7.2-3.8
			c1.8,0.6,3.2,2,3.8,3.8H54.9z"/>
		<path id="Trazado_1455" class="st0" d="M153,13.5c1.2,0,2.3,0.3,3.2,1l1.9-2.8c-4.2-2.8-10-1.7-12.8,2.5c-2.8,4.2-1.7,10,2.5,12.8
			c3.1,2.1,7.2,2.1,10.3,0l-1.9-2.8c-2.6,1.8-6.2,1.1-8-1.6s-1.1-6.2,1.6-8C150.7,13.8,151.9,13.5,153,13.5L153,13.5z"/>
		<path id="Trazado_1456" class="st0" d="M86.1,10.1c-5.1,0-9.2,4.1-9.2,9.2c0,5.1,4.1,9.2,9.2,9.2c1.8,0,3.6-0.5,5.2-1.6l-1.9-2.8
			c-2.6,1.8-6.2,1.1-8-1.6c-0.3-0.5-0.6-1-0.7-1.5h14.7v-1.7C95.4,14.2,91.2,10.1,86.1,10.1z M80.6,17.6c0.9-3,4.2-4.8,7.2-3.8
			c1.8,0.6,3.2,2,3.8,3.8H80.6z"/>
		<path id="Trazado_1457" class="st0" d="M200.2,10.1c-5.1,0-9.2,4.1-9.2,9.2c0,5.1,4.1,9.2,9.2,9.2c1.8,0,3.6-0.5,5.2-1.6l-1.9-2.8
			c-2.6,1.8-6.2,1.1-8-1.6c-0.3-0.5-0.6-1-0.7-1.5h14.7v-1.7C209.4,14.2,205.3,10.1,200.2,10.1z M194.7,17.6c0.9-3,4.2-4.8,7.2-3.8
			c1.8,0.6,3.2,2,3.8,3.8H194.7z"/>
		<path id="Trazado_1458" class="st0" d="M9.2,10.1c-2.1,0-4.1,0.7-5.8,2V0H0v28.5h3.4v-9.2c0-3.2,2.6-5.8,5.8-5.8
			c3.2,0,5.8,2.6,5.8,5.8v9.2h3.4v-9.2C18.4,14.2,14.3,10.1,9.2,10.1z"/>
		<rect id="Rectángulo_77" x="71.5" class="st0" width="3.4" height="28.5"/>
		<path id="Trazado_1459" class="st0" d="M46.8,0h-3.4v10.1h-4.1v3.4h4.1v15h3.4v-15h4.1v-3.4h-4.1V0z"/>
		<path id="Trazado_1460" class="st0" d="M221,10.1h-4.1V0h-3.4v10.1h-4.1v3.4h4.1v15h3.4v-15h4.1L221,10.1z"/>
		<path id="Trazado_1461" class="st0" d="M108.6,17.6h-5.8c-1.1,0-2-0.9-2.1-2c0-1.1,0.9-2,2-2.1c0,0,0,0,0,0h10v-3.4h-10
			c-3,0-5.5,2.4-5.5,5.5c0,3,2.4,5.5,5.5,5.5h5.8c1.1,0,2,0.9,2,2.1c0,1.1-0.9,2-2,2h-10v3.4h10c3,0,5.5-2.4,5.5-5.5
			C114.1,20,111.6,17.6,108.6,17.6L108.6,17.6z"/>
		<path id="Trazado_1462" class="st0" d="M143.8,10.1h-4.5l-5.4,6.5l-5.4-6.5H124l7.7,9.2l-7.7,9.2h4.5l5.4-6.5l5.4,6.5h4.5
			l-7.7-9.2L143.8,10.1z"/>
		<path id="Trazado_1463" class="st0" d="M174.9,12.1c-4-3.2-9.8-2.6-13,1.4c-3.2,4-2.6,9.8,1.4,13c3.4,2.7,8.2,2.7,11.6,0v2h3.4
			V10.1h-3.4V12.1z M169.1,25.1c-3.2,0-5.8-2.6-5.8-5.8c0-3.2,2.6-5.8,5.8-5.8c3.2,0,5.8,2.6,5.8,5.8l0,0
			C174.9,22.5,172.3,25.1,169.1,25.1L169.1,25.1z"/>
		<path id="Trazado_1464" class="st0" d="M191,10.1c-2.1,0-4.1,0.7-5.8,2v-2h-3.4v18.4h3.4v-9.2c0-3.2,2.6-5.8,5.8-5.8V10.1z"/>
	</g>
</g>
</svg>
