<svg xmlns="http://www.w3.org/2000/svg" width="52.02" height="89.019" viewBox="0 0 52.02 89.019">
  <g id="Grupo_124" data-name="Grupo 124" transform="translate(-76.929 -88.033)">
    <g id="Grupo_122" data-name="Grupo 122" transform="translate(76.929 146.243)">
      <g id="Grupo_118" data-name="Grupo 118">
        <g id="Grupo_117" data-name="Grupo 117">
          <path id="Trazado_1151" data-name="Trazado 1151" d="M76.929,680.612h.539v2.546H80.7v-2.546h.538v5.777H80.7v-2.742H77.468v2.742h-.539Z" transform="translate(-76.929 -680.465)" fill="#777"/>
          <path id="Trazado_1152" data-name="Trazado 1152" d="M200.389,682.155a3.266,3.266,0,0,1,.22-1.216,2.894,2.894,0,0,1,.612-.959,2.776,2.776,0,0,1,.942-.632,3.328,3.328,0,0,1,2.423,0,2.776,2.776,0,0,1,.942.632,2.892,2.892,0,0,1,.612.959,3.476,3.476,0,0,1,0,2.436,2.882,2.882,0,0,1-.612.963,2.727,2.727,0,0,1-.942.628,3.384,3.384,0,0,1-2.423,0,2.727,2.727,0,0,1-.942-.628,2.883,2.883,0,0,1-.612-.963A3.3,3.3,0,0,1,200.389,682.155Zm.539,0a2.88,2.88,0,0,0,.171,1,2.383,2.383,0,0,0,.49.808,2.264,2.264,0,0,0,.771.539,2.734,2.734,0,0,0,2.032,0,2.266,2.266,0,0,0,.771-.539,2.383,2.383,0,0,0,.49-.808,3.024,3.024,0,0,0,0-2.007,2.382,2.382,0,0,0-.49-.808,2.266,2.266,0,0,0-.771-.539,2.734,2.734,0,0,0-2.032,0,2.264,2.264,0,0,0-.771.539,2.382,2.382,0,0,0-.49.808A2.879,2.879,0,0,0,200.928,682.155Z" transform="translate(-188.231 -679.12)" fill="#777"/>
          <path id="Trazado_1153" data-name="Trazado 1153" d="M335.685,681.1H333.71v-.49H338.2v.49h-1.975v5.288h-.539Z" transform="translate(-308.422 -680.465)" fill="#777"/>
          <path id="Trazado_1154" data-name="Trazado 1154" d="M455.762,680.612H459.3v.49H456.3v2.056h2.807v.49H456.3V685.9h3.125v.49h-3.664Z" transform="translate(-418.455 -680.465)" fill="#777"/>
          <path id="Trazado_1155" data-name="Trazado 1155" d="M572.344,680.612h.539V685.9h2.693v.49h-3.231Z" transform="translate(-523.556 -680.465)" fill="#777"/>
        </g>
      </g>
      <g id="Grupo_120" data-name="Grupo 120" transform="translate(0 8.551)">
        <g id="Grupo_119" data-name="Grupo 119">
          <path id="Trazado_1156" data-name="Trazado 1156" d="M80.829,771.815l2.491-3.56h1.132l-3.019,4.227,3.271,4.68h-1.2l-2.717-4.038-2.73,4.038H76.929l3.258-4.68-3.007-4.227H78.4Z" transform="translate(-76.929 -768.028)" fill="#777"/>
          <path id="Trazado_1157" data-name="Trazado 1157" d="M180.293,773.679a3.46,3.46,0,0,1-.56.642,3.538,3.538,0,0,1-.761.522,4.34,4.34,0,0,1-.925.346,4.267,4.267,0,0,1-1.05.126,4.765,4.765,0,0,1-1.843-.352,4.42,4.42,0,0,1-2.447-2.453,5.163,5.163,0,0,1,0-3.749,4.42,4.42,0,0,1,2.447-2.453,4.766,4.766,0,0,1,1.843-.352,4.505,4.505,0,0,1,1.661.327,3.351,3.351,0,0,1,1.422,1.082l-.793.591a2.175,2.175,0,0,0-.377-.428,2.76,2.76,0,0,0-.547-.378,3.425,3.425,0,0,0-.661-.264,2.559,2.559,0,0,0-.7-.1,3.613,3.613,0,0,0-1.535.315,3.486,3.486,0,0,0-1.151.843,3.709,3.709,0,0,0-.723,1.227,4.394,4.394,0,0,0,0,2.931,3.708,3.708,0,0,0,.723,1.227,3.483,3.483,0,0,0,1.151.843,3.61,3.61,0,0,0,1.535.315,3.887,3.887,0,0,0,.7-.063,2.9,2.9,0,0,0,.679-.214A2.572,2.572,0,0,0,179,773.8a3.049,3.049,0,0,0,.547-.648Z" transform="translate(-162.957 -765.955)" fill="#777"/>
          <path id="Trazado_1158" data-name="Trazado 1158" d="M266.794,777.162h-1.057l3.875-8.907h.881l3.875,8.907H273.31l-.981-2.34h-4.554Zm1.321-3.17h3.862l-1.925-4.68Z" transform="translate(-247.143 -768.028)" fill="#777"/>
          <path id="Trazado_1159" data-name="Trazado 1159" d="M376.121,777.162h-.906v-8.907h2.743a3.493,3.493,0,0,1,2.145.591,2.093,2.093,0,0,1,.786,1.786,2.225,2.225,0,0,1-.585,1.566,2.512,2.512,0,0,1-1.692.736l2.566,4.227h-1.107l-2.441-4.139h-1.51Zm0-4.969h1.61a3.621,3.621,0,0,0,1.025-.126,1.9,1.9,0,0,0,.673-.333,1.217,1.217,0,0,0,.365-.491,1.627,1.627,0,0,0,.113-.61,1.593,1.593,0,0,0-.113-.6,1.265,1.265,0,0,0-.365-.5,1.779,1.779,0,0,0-.673-.333,3.806,3.806,0,0,0-1.025-.12h-1.61Z" transform="translate(-345.84 -768.028)" fill="#777"/>
          <path id="Trazado_1160" data-name="Trazado 1160" d="M461.454,776.332h4.768v.83h-5.674v-8.907h5.523v.83h-4.617v3.032h4.315v.83h-4.315Z" transform="translate(-422.769 -768.028)" fill="#777"/>
          <path id="Trazado_1161" data-name="Trazado 1161" d="M539.294,777.162h-.906v-8.077h-2.982v-.83h6.869v.83h-2.982Z" transform="translate(-490.256 -768.028)" fill="#777"/>
        </g>
      </g>
      <g id="Grupo_121" data-name="Grupo 121" transform="translate(3.955 20.368)">
        <path id="Trazado_1162" data-name="Trazado 1162" d="M129.85,896.371c-.04-.017-.058-.072-.074-.112a.438.438,0,0,0-.256-.246.562.562,0,0,1-.316-.736q.07-.279.141-.558c.106-.418.216-.851.314-1.279.071-.308.131-.626.188-.933.023-.124.047-.248.071-.373a.143.143,0,0,0-.024-.111.1.1,0,0,0-.072-.04.678.678,0,0,1-.085-.013.631.631,0,0,0-.127-.016c-.169,0-.355.111-.641.382-.019,0-.051-.034-.052-.05a.159.159,0,0,0-.008-.151.176.176,0,0,0-.147-.059l-.06,0-.033,0a.562.562,0,0,0-.1-.008,7.137,7.137,0,0,0-.727.076c-.14.019-.289.04-.439.062a.738.738,0,0,0-.189.066.649.649,0,0,1-.153.056.431.431,0,0,1-.064,0,1.085,1.085,0,0,1-.122-.009,1.151,1.151,0,0,0-.133-.01.509.509,0,0,0-.078.006l-.383.059c-.212.032-.467.068-.563.068h-.035a.265.265,0,0,0-.11.031.311.311,0,0,1-.044.018c-.026.008-.053.018-.08.028a.374.374,0,0,1-.114.032l-.015,0a.814.814,0,0,0-.223-.031,1.477,1.477,0,0,0-.567.149l-.03.012a.131.131,0,0,0-.08.107l-.049.444a.13.13,0,0,0,.027.092,1.986,1.986,0,0,1,.067.912.737.737,0,0,1-.292.529c-.066-.006-.139-.011-.213-.016-.2-.013-.4-.027-.6-.058a.537.537,0,0,1-.461-.606,2.5,2.5,0,0,0-.084-.853.128.128,0,0,0-.094-.078l-.048-.01c-.065-.014-.132-.028-.2-.038l-.019,0a.564.564,0,0,0-.088-.009.173.173,0,0,0-.092.022l-.049.031a.349.349,0,0,1-.194.078.272.272,0,0,1-.057-.006.222.222,0,0,0-.044,0,.52.52,0,0,0-.216.069.8.8,0,0,1-.118.05.76.76,0,0,1-.214.036h-.074a2.72,2.72,0,0,0-.86.15.874.874,0,0,1-.228.032.8.8,0,0,0-.341.07l-.059-.037a.127.127,0,0,0-.156.017l-.1.094-.058-.1a.128.128,0,0,0-.163-.05l-.027.012a.333.333,0,0,0-.148.1c-.246.349-.487.71-.721,1.059l-.052.078a.708.708,0,0,0-.067.141l-.008.02a.247.247,0,0,0-.013.055.154.154,0,0,1,0,.025l-.01.013a.418.418,0,0,1-.056.065h-.005a.473.473,0,0,0-.324.177c-.076.074-.142.138-.228.138a.228.228,0,0,1-.08-.016.354.354,0,0,0-.1-.016l-.034-.021a.328.328,0,0,0-.316-.132c-.024,0-.049,0-.074,0a.877.877,0,0,1,.17-.6.481.481,0,0,0,.128-.271,1.3,1.3,0,0,1,.195-.554c.031-.058.062-.116.089-.174a2.806,2.806,0,0,1,.481-.779,1.673,1.673,0,0,0,.262-.413,1.468,1.468,0,0,1,.254-.4.125.125,0,0,0,.04-.1.266.266,0,0,1,.054-.127.441.441,0,0,0,.076-.184.545.545,0,0,1,.245-.378.135.135,0,0,0,.045-.13c-.038-.193.074-.288.215-.408.032-.027.064-.054.094-.083a.135.135,0,0,0,.044-.1.447.447,0,0,0-.007-.074c-.013-.084-.011-.1.047-.125s.065-.073.078-.12a.305.305,0,0,1,.016-.05c.012-.024.024-.05.035-.075a.538.538,0,0,1,.1-.163,1.347,1.347,0,0,0,.369-.77.191.191,0,0,1,.019-.064,3.252,3.252,0,0,0,.267-.409,2.53,2.53,0,0,1,.325-.471.517.517,0,0,0,.133-.252,1.575,1.575,0,0,1,.294-.609c.117-.171.224-.349.338-.536l.139-.227h.026a.127.127,0,0,0,.1-.049.132.132,0,0,0,.025-.113l-.02-.083.254-.118.09.049.277.146a.394.394,0,0,0,.18.056.256.256,0,0,0,.209-.124c.063-.087.146-.092.276-.093a.758.758,0,0,0,.2-.018.6.6,0,0,1,.159-.019,1.7,1.7,0,0,1,.282.032,2.221,2.221,0,0,0,.253.033.551.551,0,0,1,.188.061c.084.039.167.083.255.129l.079.041-.013.111a.132.132,0,0,0,.026.1l0,.006a.3.3,0,0,0,.077.077c.221.138.237.373.253.621.01.156.014.314.018.48,0,.069,0,.14.005.214l-.05.037a.131.131,0,0,0-.05.125l.018.11c.019.124.039.252.065.381a1.558,1.558,0,0,1-.021.429l0,.036a.778.778,0,0,0,.037.288c.01.042.021.086.031.134l-.192.35a.134.134,0,0,0,0,.133.364.364,0,0,1-.038.514.133.133,0,0,0-.034.1l.025.33a.13.13,0,0,0,.128.121l.021,0c.26-.044.59-.094,1.174-.178l.744-.107a2.559,2.559,0,0,0,.356-.084,2.562,2.562,0,0,1,.35-.083.755.755,0,0,1,.1-.006c.043,0,.088,0,.133,0s.094,0,.138,0a.876.876,0,0,0,.122-.007l.305-.044a.7.7,0,0,1,.1-.006c.041,0,.084,0,.126,0s.087,0,.129,0a.776.776,0,0,0,.111-.007c.408-.059.77-.137,1.061-.2.171-.037.319-.069.44-.089a.13.13,0,0,0,.106-.1q.024-.122.048-.248c.046-.241.094-.491.153-.737.014-.058.022-.118.03-.176a.684.684,0,0,1,.109-.345.118.118,0,0,0,.026-.073,1.659,1.659,0,0,1,.2-.682,3.034,3.034,0,0,0,.144-.355.137.137,0,0,0,0-.071l-.146-.61a.161.161,0,0,1,.106-.194l.231-.067a3.491,3.491,0,0,0,1.005-.406.438.438,0,0,0,.172.032,1.16,1.16,0,0,0,.305-.056,1.123,1.123,0,0,1,.29-.054.428.428,0,0,1,.191.043.131.131,0,0,0,.057.013.127.127,0,0,0,.079-.027,1.429,1.429,0,0,1,.907-.217l.187-.005a2.933,2.933,0,0,0,.49-.076l.112-.024a1.417,1.417,0,0,1,.286-.026c.127,0,.258.012.385.023l.03,0,.049.005a.957.957,0,0,0,.107.008.386.386,0,0,0,.151-.029.561.561,0,0,1,.216-.044,1.158,1.158,0,0,1,.574.226l.013.008a.454.454,0,0,0,.13.228.3.3,0,0,1,.108.222.5.5,0,0,0,.093.261c.016.027.032.055.046.084l-.011.025a.373.373,0,0,0-.042.171,2.757,2.757,0,0,0,.082.563.412.412,0,0,1-.013.275.75.75,0,0,0,.01.425,1.449,1.449,0,0,1,.032.177l.007.079a2.423,2.423,0,0,1-.028.908,2.466,2.466,0,0,0,.018,1.17l0,.021c.018.086.021.112-.022.152s-.029.1-.018.155l0,.012a.226.226,0,0,1-.008.158.093.093,0,0,1-.069.036,6.014,6.014,0,0,1-.712.089c-.1.006-.242.014-.279.188a.226.226,0,0,0,.037.18.328.328,0,0,0,.23.123l.055.006a.7.7,0,0,1,.122.019c.057.016.084.048.082.1a.132.132,0,0,0,.072.124l.086.041a1.259,1.259,0,0,1,.242.135c.254.2.5.41.723.612a.3.3,0,0,1,.059.1l.006.014a.128.128,0,0,0,.09.072,1.243,1.243,0,0,1,.872.5.129.129,0,0,0,.056.048c.047.02.1.039.145.059a.965.965,0,0,1,.559.4.13.13,0,0,0,.1.067c.1.01.217.107.589.473l-.014.049a.135.135,0,0,0,.054.148l.156.106a.726.726,0,0,1-.217.458.485.485,0,0,1-.342.15.543.543,0,0,1-.1-.01,4.939,4.939,0,0,1-1.823-.679,3.072,3.072,0,0,0-.269-.15c-.069-.036-.14-.072-.207-.112l-.162-.1c-.245-.145-.5-.295-.735-.458-.135-.092-.265-.2-.391-.3-.1-.083-.206-.169-.314-.248-.17-.125-.348-.243-.519-.357l-.22-.148a.236.236,0,0,0-.03-.017l-.012-.006a1.9,1.9,0,0,0-.931-.586c-.094-.036-.192-.073-.284-.113a.575.575,0,0,1-.392-.39.132.132,0,0,0-.077-.09c-.031-.013-.062-.027-.092-.041a.721.721,0,0,0-.293-.089h-.023a.473.473,0,0,1-.136-.028.589.589,0,0,0-.178-.035.345.345,0,0,0-.139.029.185.185,0,0,1-.074.013.876.876,0,0,1-.134-.015,1.01,1.01,0,0,0-.162-.017l-.048,0a1.453,1.453,0,0,0-.31.081l-.089.03a.129.129,0,0,0-.073.06l-.19.333a.134.134,0,0,0-.014.1l.006.022a.27.27,0,0,1,.013.139.872.872,0,0,0-.073.473,1.684,1.684,0,0,1,0,.188,1.157,1.157,0,0,1-.127.5.521.521,0,0,0-.049.446.238.238,0,0,1-.006.085l0,.029-.107.056a.133.133,0,0,0-.069.119.9.9,0,0,1-.018.149.541.541,0,0,0,.024.363.557.557,0,0,0-.026.55l-.413.786a.437.437,0,0,1-.337.231A1.124,1.124,0,0,1,129.85,896.371Zm-6.583-8.565a.125.125,0,0,0-.028,0l-.051.012c-.081.018-.158.035-.233.058a2.5,2.5,0,0,0-.364.136.74.74,0,0,0-.278.2,2.69,2.69,0,0,0-.352.569,5.532,5.532,0,0,1-.4.742,6.864,6.864,0,0,0-.344.614c-.137.289-.3.571-.464.843-.083.141-.169.287-.251.433-.073.131-.141.264-.221.419l-.067.131a.132.132,0,0,0,0,.13.128.128,0,0,0,.109.062l.026,0c.266-.054.53-.1.786-.148a13.518,13.518,0,0,0,1.766-.4.132.132,0,0,0,.082-.077,3.041,3.041,0,0,0,.162-.854,2.732,2.732,0,0,1,.144-.772.123.123,0,0,0,.008-.034l.016-.172c.013-.143.027-.286.042-.428,0-.041.011-.082.017-.123a1.734,1.734,0,0,0,.023-.205c.009-.276.011-.558.012-.821a1.3,1.3,0,0,0-.013-.164l0-.034A.13.13,0,0,0,123.267,887.806Zm11.994-.654c-.134,0-.244,0-.347.012-.4.033-.813.084-1.266.158-.349.057-.693.124-1.057.194l-.443.086a.131.131,0,0,0-.1.114c-.006.052-.012.1-.018.152-.018.143-.034.277-.039.414a1.263,1.263,0,0,0,.033.282.7.7,0,0,1,0,.4.137.137,0,0,0,.008.117.408.408,0,0,1-.015.356,1.347,1.347,0,0,0-.047.158,2.16,2.16,0,0,0-.034.369c0,.037,0,.074,0,.113a.134.134,0,0,0,.036.1.127.127,0,0,0,.092.04h.009l.648-.043c1.014-.067,1.972-.129,2.95-.256a.13.13,0,0,0,.112-.125c.014-.33.039-.661.063-.98.037-.5.076-1.007.073-1.522a.131.131,0,0,0-.129-.13l-.242,0C135.445,887.154,135.352,887.152,135.261,887.152Z" transform="translate(-117.085 -885.942)" fill="#777"/>
        <path id="Trazado_1163" data-name="Trazado 1163" d="M441.585,898.51a6.79,6.79,0,0,1-1.595-.148,1.882,1.882,0,0,1-.559-.253,2.471,2.471,0,0,1-.782-.709,1.752,1.752,0,0,1-.286-.827c-.01-.154-.007-.312-.005-.478,0-.059,0-.119,0-.182a.13.13,0,0,0-.121-.132l-.05,0c-.072,0-.138-.009-.2-.016l-.156-.015a11.378,11.378,0,0,1-1.571-.209l-.113-.065a5.148,5.148,0,0,1-.52-.323.382.382,0,0,1-.114-.512.132.132,0,0,0-.007-.111l-.092-.168c.039-.078.255-.16.578-.16a1.935,1.935,0,0,1,.415.045.124.124,0,0,0,.027,0,.131.131,0,0,0,.089-.036s.045-.037.255-.037a9.045,9.045,0,0,1,1.369.166l.037.006c.075.013.152.03.233.048l.072.016.026,0a.13.13,0,0,0,.121-.085l.075-.2c.082-.222.161-.435.242-.648l.02-.054a.627.627,0,0,1,.078-.169,2.578,2.578,0,0,0,.315-.608,3.748,3.748,0,0,1,.18-.4q.075-.135.148-.271a7.878,7.878,0,0,1,.758-1.214.645.645,0,0,0,.08-.14l.02-.041a.438.438,0,0,0,.022-.056.177.177,0,0,1,.022-.05c.161-.188.344-.4.533-.6l.051-.055a2.6,2.6,0,0,1,.354-.339,2.1,2.1,0,0,1,.975-.445,2.408,2.408,0,0,1,.263-.015,1.98,1.98,0,0,1,.916.217l.03.016c.1.052.183.093.222.195a.307.307,0,0,0,.106.125.788.788,0,0,1,.271.7,4.241,4.241,0,0,1-.288,1.648,3.951,3.951,0,0,1-1.126,1.629c-.093.078-.182.164-.268.248a3.6,3.6,0,0,1-.345.308c-.054.041-.108.082-.162.124a2.558,2.558,0,0,1-.793.474,1.406,1.406,0,0,0-.46.267,1.37,1.37,0,0,1-.635.285.129.129,0,0,0-.1.1l-.166.751a.135.135,0,0,0,.016.1l.07.114-.114.149.012.034a.112.112,0,0,0,.033.068l.031.028a.54.54,0,0,0,.347.183h0a.377.377,0,0,0,.175-.047.044.044,0,0,1,.014,0,.077.077,0,0,1,.026,0,1.039,1.039,0,0,0,.37.069,1.386,1.386,0,0,0,.655-.187.4.4,0,0,0,.265.1.578.578,0,0,0,.328-.122l.114.079a.125.125,0,0,0,.071.022l.021,0,.332-.055a.131.131,0,0,0,.1-.078.329.329,0,0,1,.256-.217h.011l.048,0a1.037,1.037,0,0,0,.374-.09.936.936,0,0,1,.324-.081.131.131,0,0,0,.119-.078c.065-.149.127-.235.249-.235h.029a.134.134,0,0,0,.1-.042.383.383,0,0,1,.153-.08.42.42,0,0,0,.223-.14l.1.036a.125.125,0,0,0,.037.006.13.13,0,0,0,.11-.062l.106-.171a.76.76,0,0,0,.484-.246,1.685,1.685,0,0,1,.154-.125.059.059,0,0,1,.031,0,.581.581,0,0,1,.063.005l.041,0h.008a.128.128,0,0,0,.105-.056,1.787,1.787,0,0,1,1.061-.661l.009,0a.156.156,0,0,1,.04.014c.557.369.614.611.287,1.233a3.524,3.524,0,0,1-.985,1.115,9.258,9.258,0,0,1-.935.644,1.863,1.863,0,0,1-.28.132,1.625,1.625,0,0,0-.355.179.769.769,0,0,1-.226.1.846.846,0,0,0-.277.129.653.653,0,0,1-.239.093.909.909,0,0,0-.255.092,1.9,1.9,0,0,1-.639.208,2.709,2.709,0,0,0-.5.134,1.928,1.928,0,0,1-.746.1h-.329Zm1.14-8.261H442.7c-.454.059-.512.188-.581.43-.015.051-.031.109-.055.172a.14.14,0,0,1-.048.065.386.386,0,0,0-.258.289c-.009.024-.018.048-.028.071s-.02.052-.029.08a.28.28,0,0,1-.056.116.855.855,0,0,0-.237.328.814.814,0,0,1-.17.257.135.135,0,0,0-.043.074,2.781,2.781,0,0,1-.272.68c-.043.086-.088.174-.129.265a.14.14,0,0,0,.072.187l.2.084a.133.133,0,0,0,.052.01.135.135,0,0,0,.115-.064c.016-.025.031-.051.046-.077a.523.523,0,0,1,.158-.2,1.636,1.636,0,0,0,.43-.376c.056-.062.115-.127.176-.185.225-.213.422-.41.6-.6a.732.732,0,0,0,.176-.3c.025-.106.041-.215.057-.32a2.432,2.432,0,0,1,.085-.415.428.428,0,0,0-.089-.495A.2.2,0,0,0,442.724,890.249Z" transform="translate(-404.062 -888.719)" fill="#777"/>
        <path id="Trazado_1164" data-name="Trazado 1164" d="M340.956,896.037a.893.893,0,0,1-.546-.156.614.614,0,0,1-.274-.458,11.183,11.183,0,0,1-.053-1.783l.006-.245a5,5,0,0,1,.06-.593c.019-.132.038-.268.05-.4,0-.051.012-.1.019-.151a1.4,1.4,0,0,0,.019-.376.4.4,0,0,1,.031-.162.533.533,0,0,0,.029-.317.346.346,0,0,1,.044-.177.814.814,0,0,0,.056-.169c.035-.2.064-.41.091-.611.012-.089.024-.177.037-.266.024-.164.106-.727.106-.727a.132.132,0,0,0-.073-.139l-.051-.024a.747.747,0,0,0-.222-.081c-.334-.047-.675-.086-1-.123-.2-.023-.409-.046-.613-.071h-.01c-.048,0-.1,0-.145,0a.9.9,0,0,0-.526.133l-.568-.344a.838.838,0,0,1,.031-.129c.038-.128.089-.3-.1-.414l.035-.194.02-.114.4-.23a.128.128,0,0,0,.062-.078.072.072,0,0,1,.028-.013.151.151,0,0,0,.091-.059,1.026,1.026,0,0,0,.149-.028c.027-.007.059-.015.114-.026a.514.514,0,0,0,.2-.105.415.415,0,0,1,.141-.079l.033.039a.127.127,0,0,0,.166.01l.168-.129.018.034.047.071.031,0,.027,0h.034l.024-.029a.6.6,0,0,1,.414-.2,1.327,1.327,0,0,0,.258-.07.623.623,0,0,1,.247-.057.533.533,0,0,1,.11.012.254.254,0,0,0,.052.005.584.584,0,0,0,.187-.043.71.71,0,0,1,.121-.034c.06-.009.12-.016.181-.023a1.861,1.861,0,0,0,.593-.138.132.132,0,0,0,.066-.068c.019-.046.037-.093.055-.141.089-.236.173-.46.457-.528a.61.61,0,0,0,.4.153.663.663,0,0,0,.2-.033v.018a.783.783,0,0,0,.061.157.484.484,0,0,0,.429.292l.044,0c.074-.007.148-.015.222-.023l.191-.02c.022,0,.046-.006.07-.01a.508.508,0,0,1,.081-.01.052.052,0,0,1,.026,0,.5.5,0,0,0,.282.075c.052,0,.1-.005.153-.01s.094-.009.14-.009h.055a.178.178,0,0,0,.135-.043.27.27,0,0,1,.218-.1,1.055,1.055,0,0,1,.169.02l.091.014a1.262,1.262,0,0,0,.167.01,3.05,3.05,0,0,0,.414-.037c.086-.012.384-.059.729-.114.587-.093,1.317-.209,1.46-.224a2.116,2.116,0,0,1,.223-.01l.17,0,.173,0h.068a.973.973,0,0,0,.3-.038.564.564,0,0,1,.185-.035.4.4,0,0,1,.192.05.133.133,0,0,0,.063.016.125.125,0,0,0,.09-.037l.026-.027a.268.268,0,0,1,.049-.045c.253-.033.524-.06.8-.081l.05,0a.425.425,0,0,1,.368.187.47.47,0,0,0,.131.112l.029.019a2.858,2.858,0,0,1-.131,1.119l-.043.038c-.05.045-.108.1-.167.142l-.013.01a.342.342,0,0,1-.123.074c-.283.05-.577.1-.9.14s-.671.089-1.006.131l-.489.063c-.254.013-1.01.094-1.677.164-.5.053-.964.1-1.151.117-.151.012-.3.034-.451.056-.121.018-.247.037-.37.049-.183.018-.371.029-.552.04l-.332.021c-.109.008-.219.019-.322.03l-.1.01a.126.126,0,0,0-.094.057.6.6,0,0,0-.079.313.531.531,0,0,1-.044.223.969.969,0,0,0-.081.371,1.042,1.042,0,0,1-.053.3.627.627,0,0,0-.021.342.687.687,0,0,1,.009.183,8.045,8.045,0,0,0-.039,1.227v.012a6.151,6.151,0,0,1-.062,1.822c-.042.259-.065.524-.087.781-.02.231-.04.47-.075.7l-.021.045a.817.817,0,0,0-.11.654.5.5,0,0,1-.091.43c-.074.01-.149.023-.223.036-.187.032-.364.062-.544.074C341.05,896.035,341,896.037,340.956,896.037Z" transform="translate(-315.658 -885.942)" fill="#777"/>
      </g>
    </g>
    <g id="Grupo_123" data-name="Grupo 123" transform="translate(76.929 88.033)">
      <path id="Trazado_1165" data-name="Trazado 1165" d="M205.593,104.682l2.182,1.838a.331.331,0,0,0,.144-.4,7.344,7.344,0,0,1,.341-3.462.42.42,0,0,0-.184-.584.892.892,0,0,1-.331-1.136.945.945,0,0,1,.969-.579.958.958,0,0,1,.857.786.9.9,0,0,1-.542,1.018.617.617,0,0,0-.372.528,11.64,11.64,0,0,0,.182,3.989,2.151,2.151,0,0,0,.9,1.513c1.666,1.332,3.3,2.7,4.954,4.05a4.649,4.649,0,0,0,1.3.769,1.25,1.25,0,0,0,1.279-.188c1.34-.99,2.638-2.031,3.917-3.1.7-.583,1.4-1.168,2.1-1.745a1.275,1.275,0,0,0,.531-.749,17.9,17.9,0,0,0,.418-3.477c-.012-.259-.06-.517-.08-.776-.03-.387-.091-.712-.531-.895a.857.857,0,0,1-.393-1.046.96.96,0,0,1,1.8-.116.88.88,0,0,1-.26,1.091.536.536,0,0,0-.227.744,6.663,6.663,0,0,1,.324,3.191.849.849,0,0,0,.024.5c.1.073.177.022.248-.038.626-.528,1.247-1.064,1.88-1.584.182-.149.107-.288.055-.45a1.475,1.475,0,0,1,.4-1.642,1.522,1.522,0,0,1,2.4,1.79,1.464,1.464,0,0,1-1.8.775.6.6,0,0,0-.741.193c-1.919,1.945-3.9,3.829-5.762,5.832a11.117,11.117,0,0,0-3.032,6.774,20.939,20.939,0,0,0,.747,7.1.9.9,0,0,0,1.244.71,13.227,13.227,0,0,1,1.3-.375.446.446,0,0,1,.146.4c.036.91.061,1.82.109,2.73a.755.755,0,0,1-.336.736,4.479,4.479,0,0,0-.36.3,5.032,5.032,0,0,0-1.728,4.021c-.009.832-.005,1.666.057,2.5.015.2,0,.409,0,.673a2.855,2.855,0,0,1-.634-.512,29.455,29.455,0,0,0-2.263-2.092c-.52-.4-.532-.385-1.017.035-.827.715-1.63,1.456-2.4,2.23a.8.8,0,0,1-.362.261.954.954,0,0,1-.052-.453c-.022-1.366.031-2.733-.048-4.1a2.45,2.45,0,0,0-.8-1.722,1.539,1.539,0,0,1-.508-.932c-.207-1.27-.427-2.537-.64-3.806a1.937,1.937,0,0,1,0-.273c.386.117.744.218,1.1.332a.848.848,0,0,0,1.144-.368,4.122,4.122,0,0,0,.567-1.443,22.752,22.752,0,0,0,.35-5.861c-.018-2.48-1.217-4.446-2.593-6.35a27.286,27.286,0,0,0-2.937-3.179c-1.075-1.078-2.161-2.146-3.233-3.227a.505.505,0,0,0-.613-.159,1.468,1.468,0,0,1-1.8-.616,1.554,1.554,0,0,1,.2-1.876,1.523,1.523,0,0,1,1.9-.207,1.5,1.5,0,0,1,.621,1.8C205.676,104.465,205.642,104.549,205.593,104.682Z" transform="translate(-190.362 -99.139)" fill="#777"/>
      <path id="Trazado_1166" data-name="Trazado 1166" d="M227.558,448.407a.611.611,0,0,1,.382.187c1.079.866,2.015,1.883,3.018,2.829a.557.557,0,0,1,.179.453c-.008.247-.012.5,0,.742.028.443.128.548.567.577.35.024.7.019,1.054.028.427.011.467.028.508.459.036.374.021.753.025,1.13.005.566.112.672.692.677.338,0,.677-.008,1.015.006.413.017.558.165.571.581.012.39,0,.781.01,1.171.016.438.161.573.6.582.338.006.677-.009,1.015.008.388.019.539.172.554.561s0,.807.012,1.21.161.554.58.561c.4.007.807-.008,1.211.006.457.016.592.167.617.625a1.479,1.479,0,0,1-.907,1.571,25.905,25.905,0,0,1-22.858.058,1.547,1.547,0,0,1-1.011-1.666c.036-.423.172-.579.606-.591.39-.011.781,0,1.172,0,.479,0,.62-.145.631-.633.007-.3,0-.6,0-.9,0-.688.123-.806.827-.808.26,0,.521.006.781,0,.418-.014.555-.15.569-.574.011-.325,0-.651,0-.976,0-.654.127-.783.767-.787.325,0,.651.007.976,0,.392-.012.543-.156.557-.547.013-.364,0-.729,0-1.093,0-.536.155-.679.688-.716.353-.025.7.019,1.053.013.21,0,.31-.085.306-.3s.034-.47.017-.7a1.183,1.183,0,0,1,.353-.949C225.623,450.209,226.647,449.345,227.558,448.407Zm-.421,9.165c0,.176,0,.35-.237.37s-.32-.126-.339-.332c-.015-.168-.031-.336-.041-.5-.046-.764-.085-1.529-.138-2.293a.457.457,0,0,0-.41-.489c-.373-.048-.553.12-.563.552a37.477,37.477,0,0,0,.138,3.976,7.473,7.473,0,0,0,.265,1.492,2.215,2.215,0,0,0,2.88,1.176,1.143,1.143,0,0,0,.511-1.557,1.748,1.748,0,0,0-1.827-.564.385.385,0,0,0-.236.508c.052.22.217.275.419.252.168-.019.334-.058.5-.063.336-.01.538.129.559.36a.569.569,0,0,1-.466.55,1.478,1.478,0,0,1-1.287-.3,1.248,1.248,0,0,1-.473-1.286c.123-.492.528-.663,1-.745a2.6,2.6,0,0,1,1.523.193,1.631,1.631,0,0,1,.906,2.281,2.319,2.319,0,0,1-3.512.806,3.33,3.33,0,0,1-1.262-2.043c-.128-.546-.161-1.106-.24-1.659a1.371,1.371,0,0,0-.06-.3.429.429,0,0,0-.5-.277c-.242.03-.309.189-.316.41a7.829,7.829,0,0,0,.47,2.749,3.212,3.212,0,0,0,3.922,2.366,2.6,2.6,0,0,0,2.2-2.006,16.673,16.673,0,0,0,.433-2.846c.062-.673.074-1.35.1-2.026.014-.413-.067-.5-.381-.541-.365-.048-.4.2-.434.455-.023.154-.033.31-.05.465l-.151,1.435c-.018.168-.1.264-.28.251a.258.258,0,0,1-.272-.27,2.938,2.938,0,0,1,.009-.312c.041-.558.091-1.115.126-1.673.025-.4.051-.805.042-1.207a.437.437,0,0,0-.462-.436.476.476,0,0,0-.49.456c-.027.337-.043.675-.052,1.013-.015.52-.021,1.041-.03,1.561,0,.186-.041.333-.278.336s-.289-.131-.3-.321c-.006-.117-.016-.233-.016-.35,0-.82,0-1.64,0-2.459a2.454,2.454,0,0,0-.043-.5.417.417,0,0,0-.463-.334.432.432,0,0,0-.467.335,1.664,1.664,0,0,0-.03.348C227.028,455.05,227.136,457.052,227.137,457.572Z" transform="translate(-201.754 -412.918)" fill="#777"/>
      <path id="Trazado_1167" data-name="Trazado 1167" d="M450.85,197.423a5.927,5.927,0,0,0-2.3-.8,3.722,3.722,0,0,1-.728-.132,1.292,1.292,0,0,0-1.343.4,25.61,25.61,0,0,0-2.241,2.6c-.923,1.193-1.811,2.411-2.755,3.589a1.99,1.99,0,0,0,.013,2.473c.429.635.926,1.223,1.371,1.849a3.623,3.623,0,0,0,1.391,1.158,27.5,27.5,0,0,0,2.54,1.2,28.853,28.853,0,0,0,3.119.858,3.271,3.271,0,0,0,1.662-.334c.185-.051.121-.236.136-.37a1.2,1.2,0,0,1,1.4-1.074,1.211,1.211,0,0,1,.941,1.5,1.176,1.176,0,0,1-1.841.641.672.672,0,0,0-.81-.095c-.177.08-.363.141-.545.21-.255.1-.272.246-.105.445a2.641,2.641,0,0,1,.305.4.575.575,0,0,0,.568.315,1.44,1.44,0,0,1,1.439,1.362,1.477,1.477,0,1,1-2.581-.863,2.415,2.415,0,0,1,.316-.257,2.35,2.35,0,0,0-1.524-1.247,13.347,13.347,0,0,0-1.615-.271,10.012,10.012,0,0,1-2.52-.661c-.151-.056-.306-.165-.531,0a2.933,2.933,0,0,0,.585,1.051c.638.7,1.295,1.389,1.936,2.09a.582.582,0,0,0,.564.162.959.959,0,0,1,1.049.873.991.991,0,0,1-.861,1.036.973.973,0,0,1-1.061-.82,1.238,1.238,0,0,1,.174-.734.769.769,0,0,0-.281-.382q-3.13-3.136-6.264-6.269a2.7,2.7,0,0,0-1.906-.861.352.352,0,0,1-.249-.068,3.439,3.439,0,0,1,.044-1.169c.065-.7.146-1.4.218-2.1a.533.533,0,0,1,.215-.437,19.386,19.386,0,0,0,2.834-2.559c1.386-1.374,2.752-2.769,4.138-4.144a2.833,2.833,0,0,0,.966-1.973,5.535,5.535,0,0,1,.8-2.584.779.779,0,0,0,.157-.393c-.062-.14-.2-.2-.305-.3a1.515,1.515,0,0,1,1.428-2.571,1.542,1.542,0,0,1,1.118,1.518,1.465,1.465,0,0,1-1.19,1.406.748.748,0,0,0-.588.479,8.837,8.837,0,0,0-.727,3.523.5.5,0,0,0,.41.571c.377.1.752.2,1.131.284a7.787,7.787,0,0,1,2.151.982,1.582,1.582,0,0,1,1.3-.655,1.515,1.515,0,1,1-.383,2.991C451.255,199.09,450.864,198.483,450.85,197.423Z" transform="translate(-402.675 -178.263)" fill="#777"/>
      <path id="Trazado_1168" data-name="Trazado 1168" d="M86.584,197.492a1.517,1.517,0,0,1-2.942.734,1.484,1.484,0,0,1,.527-1.6,1.37,1.37,0,0,1,1.569-.137.616.616,0,0,1,.2.119c.313.362.616.276.98.05a9.569,9.569,0,0,1,2.628-.946c.454-.123.525-.22.5-.688a8.779,8.779,0,0,0-.725-3.446.688.688,0,0,0-.531-.444,1.459,1.459,0,0,1-1.237-1.4,1.512,1.512,0,1,1,2.5,1.072c-.085.078-.175.152-.278.241a3.643,3.643,0,0,0,.389.843,5,5,0,0,1,.6,2.24,2.5,2.5,0,0,0,.77,1.7c1.257,1.246,2.5,2.5,3.755,3.755q1.582,1.585,3.163,3.172a.79.79,0,0,1,.253.671,24.943,24.943,0,0,1-.632,2.974.3.3,0,0,1-.105.157,27.041,27.041,0,0,0-2.989,2.848c-1.383,1.34-2.731,2.717-4.092,4.079a2.294,2.294,0,0,0-.425.477c.035.089.077.182.11.278a.963.963,0,0,1-.336,1.147.924.924,0,0,1-1.125-.026.939.939,0,0,1-.326-1.111.915.915,0,0,1,1.023-.595.559.559,0,0,0,.522-.187c.621-.666,1.257-1.319,1.869-1.993a3.587,3.587,0,0,0,.653-1.1.273.273,0,0,0-.387-.085,15.735,15.735,0,0,1-4.018.92,2.343,2.343,0,0,0-1.641,1.105c.1.124.214.249.315.382a1.364,1.364,0,0,1-.012,1.73,1.39,1.39,0,0,1-1.689.39,1.406,1.406,0,0,1-.808-1.467,1.367,1.367,0,0,1,1.26-1.191c.541-.007.662-.434.916-.732.111-.13-.014-.236-.151-.288l-1.051-.4a1.623,1.623,0,0,1-1.17.488,1.195,1.195,0,0,1-.156-2.345,1.125,1.125,0,0,1,1.334.613.633.633,0,0,1,.09.256c-.023.493.314.59.691.723a2.811,2.811,0,0,0,1.868.008c.643-.205,1.3-.358,1.959-.526a6.5,6.5,0,0,0,1.3-.533c.663-.333,1.328-.662,1.991-1a2.506,2.506,0,0,0,.9-.733c.492-.655,1-1.3,1.489-1.957a2.491,2.491,0,0,0,.508-1.449,1.551,1.551,0,0,0-.316-1.063c-1.659-2.052-3.153-4.236-4.961-6.171a1.554,1.554,0,0,0-1.632-.52,11.1,11.1,0,0,0-2.641.79A.471.471,0,0,0,86.584,197.492Z" transform="translate(-82.719 -178.285)" fill="#777"/>
      <path id="Trazado_1169" data-name="Trazado 1169" d="M193.277,249.5a8.68,8.68,0,0,1,4.277-1.02.42.42,0,0,0-.465-.512,6.05,6.05,0,0,0-4.065,1.017.162.162,0,0,1-.176.031,2.865,2.865,0,0,1,.7-1.6,3.636,3.636,0,0,1,2.518-1.163,11.3,11.3,0,0,1,1.859.043,5.806,5.806,0,0,0,1.528-.251,2.169,2.169,0,0,1,2.655,2.152,2.567,2.567,0,0,1-.7,1.77,1.057,1.057,0,0,0-.113.159.821.821,0,0,0,.82.492c.508.006,1.015,0,1.523,0a.7.7,0,0,1,.377.071.352.352,0,0,1,.215.378c-.033.187-.2.2-.334.2-.481.011-.963.009-1.445.011a1.7,1.7,0,0,0-.539.068c-.144.047-.29.094-.27.275s.175.243.344.246a11.091,11.091,0,0,0,1.287-.031c.349-.036.7-.067,1.047-.1a.3.3,0,0,1,.331.2.666.666,0,0,1-.6.972c-.61.044-1.22.078-1.832.084-.175,0-.4-.025-.4.244,0,.246.192.325.4.326.546,0,1.093-.005,1.64,0a.812.812,0,0,1,.577.1c.009.234-.16.329-.334.416a2.848,2.848,0,0,1-1.182.206c-.312.014-.625,0-.937.017a.465.465,0,0,0-.473.547c.3,2.146.5,4.3.848,6.443a2.19,2.19,0,0,0,.121.369c.126.357.069.43-.292.373-1.056-.167-1.066-.166-1.149-1.264-.138-1.815-.292-3.628-.477-5.439-.016-.161.025-.407-.192-.411-.256,0-.2.252-.206.423-.013,1.327.122,2.647.217,3.968.055.777.117,1.554.168,2.331.059.894.1,1.79.169,2.683a.448.448,0,0,1-.407.549,2.766,2.766,0,0,1-.459.078c-.835.021-1.046-.222-1-1.051.166-2.725.338-5.451.446-8.179a2.924,2.924,0,0,0-.033-.543c-.016-.11-.046-.249-.2-.241-.139.007-.144.133-.156.234-.048.413-.1.825-.134,1.239-.09,1.035-.172,2.071-.261,3.107a.645.645,0,0,1-.127.442,2.2,2.2,0,0,1-1.051-.386.5.5,0,0,1-.174-.526c.244-1.3.479-2.606.73-3.907.107-.555.117-.576-.393-.792a5.256,5.256,0,0,1-1.681-1.112.557.557,0,0,1-.239-.449c.62.1,1.119.546,1.75.554.015-.273-.18-.29-.325-.352-.67-.285-1.346-.555-2.009-.855-.4-.183-.522-.4-.471-.714.053-.331.122-.386.438-.279.651.221,1.295.467,1.947.685.416.139.42.125.692-.029,0-.21-.167-.237-.308-.29-.706-.262-1.414-.519-2.121-.78-.206-.076-.451-.13-.377-.442a.532.532,0,0,1,.622-.34c.536.109,1.037.331,1.559.484a2.917,2.917,0,0,0,.953.177.541.541,0,0,0,.573-.43c.069-.307-.139-.443-.375-.556a2.386,2.386,0,0,0-.968-.269,10.393,10.393,0,0,0-3.367.205C193.666,249.6,193.511,249.726,193.277,249.5Zm6.4-2.97a1.518,1.518,0,0,0-1.627,1.586,1.609,1.609,0,0,0,1.716,1.624,1.592,1.592,0,0,0,1.615-1.685A1.53,1.53,0,0,0,199.681,246.526Zm-.14,7.845a1.6,1.6,0,0,0,1.642-1.694,1.448,1.448,0,0,0-1.537-1.544,1.819,1.819,0,0,0-1.766,1.6A1.718,1.718,0,0,0,199.541,254.371Z" transform="translate(-181.432 -230.442)" fill="#777"/>
      <path id="Trazado_1170" data-name="Trazado 1170" d="M376.526,249.264c-.232-.185-.244-.491-.359-.742a.977.977,0,0,0-1-.656.707.707,0,0,0-.224.056c-.217.1-.236.282-.033.41a2.7,2.7,0,0,0,.426.188.741.741,0,0,1,.5.514,2.988,2.988,0,0,1-1,.3,2.638,2.638,0,0,0-.655.242.612.612,0,0,0-.291.663c.107.287.341.33.608.283.625-.112,1.249-.229,1.875-.338a1.82,1.82,0,0,1,.426-.029.388.388,0,0,1,.384.328c.047.228-.094.34-.281.4-.568.184-1.139.361-1.709.541-.146.046-.3.077-.366.24.052.193.183.155.315.146a7.624,7.624,0,0,0,1.46-.4c.217-.058.449-.205.647.032a1.333,1.333,0,0,1,.1,1.05.583.583,0,0,1-.412.193q-.654.107-1.307.217a.4.4,0,0,0-.114.023c-.148.076-.429.047-.373.3.047.21.266.2.459.154.214-.053.431-.09.647-.139.112-.025.223-.078.344.035a.76.76,0,0,1-.282.393,3.654,3.654,0,0,1-1.431.771.4.4,0,0,0-.349.435q-.147,2.238-.31,4.474c-.043.583-.1,1.165-.171,1.746a.567.567,0,0,1-.246.483c-.185-.116-.134-.274-.131-.407q.059-2.32.13-4.64a5.343,5.343,0,0,0-.043-1.167c-.033-.176-.03-.414-.273-.4-.211.016-.2.243-.2.409q-.044,1.482-.079,2.965-.082,3.667-.159,7.335c0,.1-.017.207-.029.311-.018.159-.1.289-.265.28s-.233-.151-.24-.307c-.018-.389-.056-.779-.067-1.167-.087-3-.147-6.007-.061-9.012a5.075,5.075,0,0,0-.036-.544c-.009-.112-.046-.211-.176-.218a.215.215,0,0,0-.243.2,7.358,7.358,0,0,0-.082.775q-.066,2.576-.014,5.152a1.054,1.054,0,0,1-.1.7,1.488,1.488,0,0,1-.29-.891c-.11-.94-.187-1.885-.252-2.83-.071-1.036-.109-2.075-.173-3.112-.032-.518-.241-.674-.771-.618a6.861,6.861,0,0,1-.737.071,1.531,1.531,0,0,1-1.438-.662c.108-.175.261-.134.4-.135.508,0,1.015,0,1.523,0a1.538,1.538,0,0,0,.349-.028c.153-.037.313-.09.29-.3s-.182-.2-.323-.207c-.65-.024-1.3-.041-1.95-.059a.667.667,0,0,1-.584-.95.366.366,0,0,1,.366-.176c.637,0,1.275-.026,1.91.036a1.092,1.092,0,0,0,.5-.053.265.265,0,0,0,.2-.258c-.01-.139-.128-.19-.249-.2a3.726,3.726,0,0,0-.428-.026c-.534,0-1.067,0-1.6,0-.144,0-.306,0-.329-.191a.374.374,0,0,1,.209-.387.843.843,0,0,1,.416-.084,12.241,12.241,0,0,0,1.557-.072,1.332,1.332,0,0,0,.376-.09c.4-.178.452-.415.158-.749a2.675,2.675,0,0,1-.685-1.461,2.116,2.116,0,0,1,1.6-2.311,4.446,4.446,0,0,1,1.474-.065,7.149,7.149,0,0,1,1.917.291A2.246,2.246,0,0,1,376.7,249.1.2.2,0,0,1,376.526,249.264Zm-2.3-1.149a1.6,1.6,0,0,0-1.66-1.64,1.645,1.645,0,0,0-1.654,1.625,1.572,1.572,0,0,0,1.56,1.648A1.62,1.62,0,0,0,374.225,248.115Zm.31,4.682c.082-.856-.99-1.66-1.752-1.65a1.5,1.5,0,0,0-1.516,1.541,1.647,1.647,0,0,0,1.595,1.679A1.7,1.7,0,0,0,374.535,252.8Z" transform="translate(-339.065 -230.445)" fill="#777"/>
      <path id="Trazado_1171" data-name="Trazado 1171" d="M451.312,491.559a1.5,1.5,0,0,1,1.184-2.07,2.2,2.2,0,0,1,1.962.642c.294.294.566.61.858.907a1.093,1.093,0,0,0,1.311.305,1.591,1.591,0,0,0,.956-1.246.662.662,0,0,0-.4-.654.518.518,0,0,0-.62.2.514.514,0,0,1-.225.2,1.3,1.3,0,0,1,.266-1.437,1.287,1.287,0,0,1,1.474-.273,2.98,2.98,0,0,1,.639.442.921.921,0,0,0,1.248.041,3.014,3.014,0,0,0,.626-.524.57.57,0,0,0,.011-.835c-.234-.209-.509-.177-.789.1-.092.09-.183.182-.274.274a.7.7,0,0,1,.2-.934.987.987,0,0,1,.808-.212,8.6,8.6,0,0,0,1.973.207c.034,0,.068.029.1.042.091.17-.029.285-.105.392a35.206,35.206,0,0,1-3.409,4.255,26.309,26.309,0,0,1-5.355,4.265c-.481.289-.689.178-.721-.379-.011-.195-.016-.39-.028-.585a.42.42,0,0,0-.454-.43,1.72,1.72,0,0,1-.714-.061c-.042-.225.135-.247.247-.314.323-.194.66-.366.975-.572a2.012,2.012,0,0,0,.782-.949,1.232,1.232,0,0,0-.733-1.627,1.1,1.1,0,0,0-1.593.558C451.457,491.388,451.444,491.516,451.312,491.559Z" transform="translate(-414.331 -447.227)" fill="#777"/>
      <path id="Trazado_1172" data-name="Trazado 1172" d="M115.479,486.817c.06-.022.11-.06.153-.053a5.119,5.119,0,0,0,1.847-.2.934.934,0,0,1,1.134,1.163c-.175-.022-.226-.188-.328-.288-.278-.272-.558-.316-.793-.114a.563.563,0,0,0-.023.835,2.412,2.412,0,0,0,1.043.729.737.737,0,0,0,.7-.141c.226-.153.437-.33.671-.469a1.216,1.216,0,0,1,1.515.142,1.246,1.246,0,0,1,.352,1.472c-.139-.006-.182-.135-.258-.214a.516.516,0,0,0-.6-.161.584.584,0,0,0-.382.544,1.484,1.484,0,0,0,.844,1.311,1.055,1.055,0,0,0,1.269-.14,9.749,9.749,0,0,0,.915-.959,2.251,2.251,0,0,1,2.013-.717,1.507,1.507,0,0,1,1.212,2.077c-.15-.063-.172-.215-.236-.329a1.082,1.082,0,0,0-1.546-.514,1.267,1.267,0,0,0-.757,1.6,2.173,2.173,0,0,0,.926,1.074c.282.185.584.341.877.51.088.05.2.073.225.228-.1.193-.306.114-.471.119-.63.018-.643.025-.7.654-.014.155-.025.311-.042.466-.046.434-.258.552-.633.329q-1.006-.6-1.955-1.289a26.539,26.539,0,0,1-6.864-7.339A.427.427,0,0,1,115.479,486.817Z" transform="translate(-111.679 -447.3)" fill="#777"/>
      <path id="Trazado_1173" data-name="Trazado 1173" d="M119.443,331.2c.479,1.119-.088,1.759-1.015,2.26a4.807,4.807,0,0,1,.512.321.53.53,0,0,1,.21.587c-.076.248-.285.275-.5.273-.039,0-.078,0-.117,0-.638-.023-.824.1-1.041.715a.9.9,0,0,1-1.421.515c-.546-.317-.731-.3-1.147.151-.189.2-.391.381-.674.226s-.28-.43-.195-.719c.035-.117.117-.237.067-.372-.161-.1-.309-.007-.458.017a1.486,1.486,0,0,1-1.581-.683.5.5,0,0,1-.095-.456c.479.031.6-.358.754-.722a1.948,1.948,0,0,1,1-1.046,1.479,1.479,0,0,1,1.554.115,1.015,1.015,0,0,0,.344.205c.1-.07.1-.2.129-.3a1.635,1.635,0,0,1,1.918-1.3,2.374,2.374,0,0,1,.706.216C118.867,331.435,118.932,331.434,119.443,331.2Zm-3.512,1.944c-.064.057-.109.077-.12.109a6.163,6.163,0,0,0-.261,1.41c-.025.251.128.407.4.435a1.4,1.4,0,0,0,1.165-.431.379.379,0,0,0,.027-.588A5.7,5.7,0,0,0,115.931,333.145Z" transform="translate(-108.512 -307.044)" fill="#777"/>
      <path id="Trazado_1174" data-name="Trazado 1174" d="M483.961,503.567c.165-.126.257.036.359.112q.858.643,1.706,1.3a1.272,1.272,0,0,0,.908.286c1.917-.158,3.835-.312,5.75-.484.772-.069,1.063-.363,1.126-1.134.126-1.528.229-3.058.34-4.588.028-.389.047-.778.081-1.166a1.433,1.433,0,0,0-.4-1.1c-.407-.472-.8-.956-1.2-1.435-.089-.107-.21-.205-.131-.379.158-.12.256-.006.358.1.533.533,1.069,1.065,1.6,1.6a1.177,1.177,0,0,1,.347.921c-.039.857-.075,1.714-.12,2.571-.07,1.311-.158,2.62-.219,3.931-.043.93-.409,1.309-1.339,1.359-2.038.108-4.076.214-6.113.342a1.793,1.793,0,0,1-1.549-.55c-.451-.486-.934-.942-1.4-1.412C484,503.764,483.893,503.7,483.961,503.567Z" transform="translate(-443.857 -454.856)" fill="#777"/>
      <path id="Trazado_1175" data-name="Trazado 1175" d="M99.082,503.652c.063.171-.055.239-.133.317-.484.491-.976.975-1.459,1.467a1.545,1.545,0,0,1-1.271.465c-2.129-.127-4.259-.236-6.389-.352a1.149,1.149,0,0,1-1.24-1.248c-.124-2.142-.2-4.286-.368-6.425a1.389,1.389,0,0,1,.376-1.114c.527-.54,1.066-1.068,1.6-1.6a.291.291,0,0,1,.316-.111c.12.187-.019.308-.125.435-.407.49-.808.986-1.225,1.467a1.449,1.449,0,0,0-.358,1.115c.144,1.906.281,3.812.423,5.717a1.053,1.053,0,0,0,1.051,1.092c1.929.174,3.86.328,5.791.488a1.4,1.4,0,0,0,1.011-.331c.542-.425,1.094-.839,1.644-1.254C98.823,503.7,98.91,503.584,99.082,503.652Z" transform="translate(-87.105 -454.953)" fill="#777"/>
      <path id="Trazado_1176" data-name="Trazado 1176" d="M98.8,101.256c-.167.039-.251-.083-.35-.154q-.65-.466-1.29-.946a.936.936,0,0,0-.649-.219l-5.289.405c-.441.034-.882.065-1.322.1-.533.041-.688.2-.709.723-.087,2.118-.171,4.236-.27,6.353a1.257,1.257,0,0,0,.359.949c.736.824,1.459,1.659,2.184,2.493.076.088.226.161.122.325-.165.03-.227-.11-.312-.195-.8-.8-1.6-1.6-2.406-2.4a1.282,1.282,0,0,1-.421-1.1c.128-1.8.187-3.609.286-5.413.026-.48.056-.96.073-1.441.022-.625.192-.815.813-.855,1.687-.107,3.376-.195,5.064-.29.675-.038,1.351-.07,2.026-.113a.9.9,0,0,1,.751.242c.431.434.865.863,1.3,1.3A.179.179,0,0,1,98.8,101.256Z" transform="translate(-87.308 -98.351)" fill="#777"/>
      <path id="Trazado_1177" data-name="Trazado 1177" d="M495.73,111.255a3.223,3.223,0,0,1,.611-.777c.578-.687,1.173-1.359,1.778-2.022a1.2,1.2,0,0,0,.345-.914c-.08-1.7-.147-3.406-.217-5.108-.017-.416-.015-.833-.04-1.248-.031-.525-.2-.69-.719-.73q-3.268-.248-6.537-.5a1.031,1.031,0,0,0-.731.209c-.436.329-.88.648-1.323.968-.089.064-.162.18-.306.13-.1-.119,0-.188.07-.257.421-.426.845-.848,1.267-1.273a.916.916,0,0,1,.755-.238q2.027.113,4.054.222c1,.055,2,.1,3,.169.654.043.788.187.823.833.128,2.337.25,4.675.387,7.012a1.088,1.088,0,0,1-.351.9c-.818.8-1.621,1.618-2.435,2.425C496.059,111.166,495.978,111.331,495.73,111.255Z" transform="translate(-448.013 -98.367)" fill="#777"/>
      <path id="Trazado_1178" data-name="Trazado 1178" d="M319.863,140.933a3.933,3.933,0,0,1,.589.513,1.251,1.251,0,0,0,1.639.106,1.53,1.53,0,0,0,.389-1.762,1.431,1.431,0,0,0-1.26-.649c-.256-.02-.515,0-.846,0a1.794,1.794,0,0,1,1.5-.848,2.185,2.185,0,0,1,2.066,1.089,2.535,2.535,0,0,1-.741,3.046,2.29,2.29,0,0,1-2.977-.353A1.3,1.3,0,0,1,319.863,140.933Z" transform="translate(-295.923 -133.34)" fill="#777"/>
      <path id="Trazado_1179" data-name="Trazado 1179" d="M445.731,206.763a.622.622,0,0,0-.379.7.757.757,0,0,0,.647.64,1.62,1.62,0,0,0,1.276-.362,1.269,1.269,0,0,0-.311-1.888,1.519,1.519,0,0,0-.671-.183c-.221-.006-.441.046-.657.049a1.11,1.11,0,0,0-1.254,1.094.322.322,0,0,1-.2.295c-.116-.19-.016-.372.02-.548.233-1.141.434-1.333,1.583-1.529a3.23,3.23,0,0,1,1.459.137,1.065,1.065,0,0,1,.639.537,3.9,3.9,0,0,1,.453,1.481,1.135,1.135,0,0,1-.411,1.08c-.151.122-.29.262-.45.37a2.088,2.088,0,0,1-2.864-.613.554.554,0,0,1,.021-.624,2.341,2.341,0,0,0,.285-.637.543.543,0,0,1,.462-.421c.305-.062.613-.112.922-.15a.606.606,0,0,1,.712.506.669.669,0,0,1-.5.769c-.076.018-.154.024-.231.037-.41.069-.484,0-.469-.417C445.812,206.985,445.858,206.879,445.731,206.763Z" transform="translate(-407.964 -193.477)" fill="#777"/>
      <path id="Trazado_1180" data-name="Trazado 1180" d="M199.815,211.408a2.818,2.818,0,0,1-1.643.872c-.126.027-.255.041-.382.063-.5.087-.7-.035-.841-.533a.921.921,0,0,0-1.543-.514.628.628,0,0,0-.231.514.172.172,0,0,0,.125.177.141.141,0,0,0,.179-.106.185.185,0,0,1,.015-.036c.263-.433.508-.561.79-.411a.882.882,0,0,1,.328,1.03.953.953,0,0,1-1.518.364,1.422,1.422,0,0,1-.16-1.9,1.268,1.268,0,0,1,1.894-.127,2.8,2.8,0,0,0,2.613.621A.764.764,0,0,1,199.815,211.408Z" transform="translate(-183.05 -198.38)" fill="#777"/>
      <path id="Trazado_1181" data-name="Trazado 1181" d="M540.495,326.149a1.386,1.386,0,0,0-.491-1.086c-.156.007-.2.129-.27.216a.455.455,0,0,1-.647.133c-.233-.142-.2-.34-.108-.542.121-.258.242-.519.384-.766a.693.693,0,0,1,1.009-.21,2.87,2.87,0,0,1,1.236,2.583.732.732,0,0,1-.881.7c-.241-.043-.473-.138-.711-.2a.4.4,0,0,1-.336-.518c.063-.279.27-.359.531-.34C540.287,326.122,540.362,326.133,540.495,326.149Z" transform="translate(-493.413 -300.547)" fill="#777"/>
      <path id="Trazado_1182" data-name="Trazado 1182" d="M506.215,322.5a2.029,2.029,0,0,1-1.486-.447.629.629,0,0,1-.13-.817,2.64,2.64,0,0,1,1.339-1.2,3,3,0,0,1,1.166-.28.738.738,0,0,1,.762.8,4.832,4.832,0,0,1-.142.764.4.4,0,0,1-.5.356c-.273-.034-.368-.21-.367-.463a.394.394,0,0,0-.062-.293,1.354,1.354,0,0,0-1.047.61c.425.213.7.494.458.983Z" transform="translate(-462.4 -296.936)" fill="#777"/>
      <path id="Trazado_1183" data-name="Trazado 1183" d="M529.528,360.554a1.322,1.322,0,0,0,1.049-.6c-.058-.16-.193-.2-.3-.264a.375.375,0,0,1-.162-.529.355.355,0,0,1,.5-.221,9.15,9.15,0,0,1,.9.362.659.659,0,0,1,.254.932,2.954,2.954,0,0,1-2.518,1.447.76.76,0,0,1-.754-.916c.034-.191.1-.376.127-.567a.412.412,0,0,1,.5-.41c.274.027.4.185.413.51C529.541,360.365,529.534,360.429,529.528,360.554Z" transform="translate(-484.019 -332.233)" fill="#777"/>
      <path id="Trazado_1184" data-name="Trazado 1184" d="M500.6,350.129a1.562,1.562,0,0,0,.533,1.01c.177-.049.2-.214.294-.312.129-.135.277-.278.47-.176a.491.491,0,0,1,.3.5,2.268,2.268,0,0,1-.456,1.019.674.674,0,0,1-.85.133,2.851,2.851,0,0,1-1.417-2.487.716.716,0,0,1,.851-.772,6.521,6.521,0,0,1,.759.161c.235.052.3.212.293.434a.416.416,0,0,1-.377.423C500.878,350.1,500.742,350,500.6,350.129Z" transform="translate(-457.861 -323.34)" fill="#777"/>
      <path id="Trazado_1185" data-name="Trazado 1185" d="M367.1,140.633c-.055-.212.084-.4.33-.555s.445-.314.674-.461c.26-.167.455-.137.569.138a5.3,5.3,0,0,1,.424,1.922c.008.354-.143.464-.491.428s-.719-.1-1.079-.138a.326.326,0,0,1-.328-.318C367.163,141.339,367.136,141.03,367.1,140.633Z" transform="translate(-338.511 -134.444)" fill="#777"/>
      <path id="Trazado_1186" data-name="Trazado 1186" d="M520.672,341.787a1.178,1.178,0,0,0,.2-.184,1.052,1.052,0,0,1,1.238-.413,1.159,1.159,0,0,1,.854,1.047,1.2,1.2,0,0,1-.6,1.221,1.1,1.1,0,0,1-1.367-.123,1.209,1.209,0,0,1-.383-1.3c.027-.086.047-.174.07-.261Zm1.6.612a.492.492,0,0,0-.482-.5.516.516,0,0,0-.029,1.028A.513.513,0,0,0,522.269,342.4Z" transform="translate(-476.869 -316.214)" fill="#777"/>
      <path id="Trazado_1187" data-name="Trazado 1187" d="M131.707,319.588a.344.344,0,0,1-.2.264,1.639,1.639,0,0,0-.764.844.276.276,0,0,1-.41.166,1.819,1.819,0,0,0-1.246-.15.208.208,0,0,1-.28-.229,1.964,1.964,0,0,1,1.118-1.515,1.071,1.071,0,0,1,.788,0c.256.1.5.214.741.333A.426.426,0,0,1,131.707,319.588Z" transform="translate(-123.699 -296.161)" fill="#777"/>
      <path id="Trazado_1188" data-name="Trazado 1188" d="M298.085,128.551c-.365-.114-.79-.231-1.2-.38-.215-.077-.225-.28-.142-.46a4.419,4.419,0,0,1,.872-1.324c.329-.325.545-.293.829.081.047.062.087.129.132.192.609.872.606.927-.065,1.736A.373.373,0,0,1,298.085,128.551Z" transform="translate(-275.049 -122.408)" fill="#777"/>
      <path id="Trazado_1189" data-name="Trazado 1189" d="M321.779,116.81a.413.413,0,0,1-.448-.243c-.168-.308-.346-.611-.524-.914a.319.319,0,0,1,.133-.494,3.322,3.322,0,0,1,1.889-.347c.227.02.3.2.275.4-.042.373-.1.745-.158,1.116a.4.4,0,0,1-.358.358C322.319,116.731,322.049,116.77,321.779,116.81Z" transform="translate(-296.732 -112.16)" fill="#777"/>
      <path id="Trazado_1190" data-name="Trazado 1190" d="M350.826,118.933c.046-.373.1-.745.138-1.118.026-.229.163-.279.357-.234a1.876,1.876,0,0,1,.658.328c.348.25.707.486,1.042.751.3.237.3.374,0,.62-.259.216-.54.4-.812.606a.284.284,0,0,1-.359.038c-.3-.221-.607-.445-.9-.679A.334.334,0,0,1,350.826,118.933Z" transform="translate(-323.849 -114.657)" fill="#777"/>
      <path id="Trazado_1191" data-name="Trazado 1191" d="M363,171.655a.244.244,0,0,1-.017.09,4.161,4.161,0,0,1-1.109,1.569c-.292.21-.37.186-.555-.105a2.1,2.1,0,0,0-.23-.36c-.406-.413-.306-.8-.025-1.244.454-.723.309-.725,1.172-.476.187.054.375.105.558.168A.3.3,0,0,1,363,171.655Z" transform="translate(-332.863 -162.811)" fill="#777"/>
      <path id="Trazado_1192" data-name="Trazado 1192" d="M295.457,154.823c-.006-.614.139-.719.657-.547a.169.169,0,0,0,.037.012c.8.071,1.122.555,1.189,1.306.024.264.013.452-.249.579s-.521.295-.791.423c-.287.136-.427.088-.5-.206C295.661,155.849,295.559,155.3,295.457,154.823Z" transform="translate(-273.937 -147.685)" fill="#777"/>
      <path id="Trazado_1193" data-name="Trazado 1193" d="M337.255,187.612a1.267,1.267,0,0,1,1.308,1.021.25.25,0,0,1-.137.325,3.944,3.944,0,0,1-1.976.327c-.167-.011-.218-.136-.2-.278.035-.348.075-.7.127-1.041a.359.359,0,0,1,.374-.328C336.917,187.632,337.086,187.621,337.255,187.612Z" transform="translate(-310.707 -177.805)" fill="#777"/>
      <path id="Trazado_1194" data-name="Trazado 1194" d="M307.5,182.579a.628.628,0,0,1-.147-.044,4.6,4.6,0,0,1-1.317-.951c-.281-.307-.256-.418.078-.637.922-.6,1-.6,1.91.052a.363.363,0,0,1,.17.432c-.1.321-.206.64-.317.957C307.825,182.544,307.7,182.6,307.5,182.579Z" transform="translate(-283.302 -171.397)" fill="#777"/>
      <path id="Trazado_1195" data-name="Trazado 1195" d="M586.98,363.875a.923.923,0,0,1,.931.939.948.948,0,0,1-.937.943.936.936,0,0,1-.946-.969A.914.914,0,0,1,586.98,363.875Z" transform="translate(-535.892 -336.711)" fill="#777"/>
      <path id="Trazado_1196" data-name="Trazado 1196" d="M78.837,366.392a.914.914,0,1,1,.034-1.828.9.9,0,0,1,.912.945A.92.92,0,0,1,78.837,366.392Z" transform="translate(-77.821 -337.332)" fill="#777"/>
      <path id="Trazado_1197" data-name="Trazado 1197" d="M163.319,154.472a.921.921,0,0,1-.944.927.918.918,0,1,1,.944-.927Z" transform="translate(-153.137 -147.109)" fill="#777"/>
      <path id="Trazado_1198" data-name="Trazado 1198" d="M497.426,155.4a.915.915,0,0,1-.946-.88.924.924,0,0,1,.912-.956.9.9,0,0,1,.945.916A.92.92,0,0,1,497.426,155.4Z" transform="translate(-455.162 -147.111)" fill="#777"/>
      <path id="Trazado_1199" data-name="Trazado 1199" d="M194.47,486.966a.433.433,0,0,1-.149-.073c-.231-.244-.461-.489-.676-.747-.1-.122-.022-.237.072-.342.659-.736,1.012-.711,1.558.115a.337.337,0,0,1,.085.287A2.7,2.7,0,0,1,194.47,486.966Z" transform="translate(-182.108 -446.154)" fill="#777"/>
      <path id="Trazado_1200" data-name="Trazado 1200" d="M195.388,463.855a.308.308,0,0,1-.11.25q-.289.259-.591.5a.274.274,0,0,1-.413-.028l-.08-.085c-.829-.892-.747-.634.1-1.439.114-.109.243-.159.38-.044a5.594,5.594,0,0,1,.675.746A.335.335,0,0,1,195.388,463.855Z" transform="translate(-182.122 -426.025)" fill="#777"/>
      <path id="Trazado_1201" data-name="Trazado 1201" d="M470.257,480.724a1.287,1.287,0,0,1,.167.089,1.245,1.245,0,0,1,.14.134c.72.723.694.929-.17,1.468a.269.269,0,0,1-.38-.028c-.055-.055-.107-.113-.16-.169-.631-.665-.569-1.019.252-1.434C470.152,480.76,470.2,480.746,470.257,480.724Z" transform="translate(-430.777 -442.052)" fill="#777"/>
      <path id="Trazado_1202" data-name="Trazado 1202" d="M217.026,485.7a.289.289,0,0,1-.116.247c-.184.164-.372.325-.559.486a.286.286,0,0,1-.445-.02c-.177-.19-.358-.377-.531-.571a.3.3,0,0,1,.019-.474c.04-.034.074-.074.116-.1.227-.162.408-.521.691-.438.358.105.545.494.791.775A.265.265,0,0,1,217.026,485.7Z" transform="translate(-201.642 -445.737)" fill="#777"/>
      <path id="Trazado_1203" data-name="Trazado 1203" d="M217.046,464.048a.517.517,0,0,1-.212.316c-.671.651-.715.649-1.322-.058-.311-.362-.309-.4.037-.724.665-.616.665-.616,1.244.084C216.89,463.784,217.026,463.878,217.046,464.048Z" transform="translate(-201.659 -426.19)" fill="#777"/>
      <path id="Trazado_1204" data-name="Trazado 1204" d="M469.705,460.977a.333.333,0,0,1-.231-.1,1.931,1.931,0,0,1-.178-.206c-.156-.215-.511-.359-.437-.648.083-.328.438-.494.693-.71a.239.239,0,0,1,.352.014c.217.225.43.453.636.686a.225.225,0,0,1-.005.319,4.911,4.911,0,0,1-.706.61A.31.31,0,0,1,469.705,460.977Z" transform="translate(-430.253 -422.683)" fill="#777"/>
      <path id="Trazado_1205" data-name="Trazado 1205" d="M448.153,482.608c-.23-.241-.447-.465-.658-.692a.356.356,0,0,1-.1-.164c-.074-.476.4-.544.619-.806.144-.176.348-.15.506.031s.345.389.513.587a.254.254,0,0,1-.007.383A3.082,3.082,0,0,1,448.153,482.608Z" transform="translate(-410.903 -442.144)" fill="#777"/>
      <path id="Trazado_1206" data-name="Trazado 1206" d="M447.971,459.247a.269.269,0,0,1,.219.09c.194.208.391.414.575.631s.082.4-.123.513c-.283.154-.419.7-.876.392a3.415,3.415,0,0,1-.578-.626.246.246,0,0,1-.017-.353c.223-.215.465-.41.7-.61A.288.288,0,0,1,447.971,459.247Z" transform="translate(-410.649 -422.69)" fill="#777"/>
      <path id="Trazado_1207" data-name="Trazado 1207" d="M290.878,92.72a.666.666,0,0,1-.66.713.681.681,0,0,1-.69-.69.693.693,0,0,1,.669-.717A.662.662,0,0,1,290.878,92.72Z" transform="translate(-268.591 -91.633)" fill="#777"/>
      <path id="Trazado_1208" data-name="Trazado 1208" d="M77.626,325.835a.676.676,0,0,1,.712.66.7.7,0,0,1-.706.637.676.676,0,0,1-.7-.631A.653.653,0,0,1,77.626,325.835Z" transform="translate(-76.929 -302.416)" fill="#777"/>
      <path id="Trazado_1209" data-name="Trazado 1209" d="M334.108,88.706a.678.678,0,0,1-.734.643.668.668,0,0,1-.675-.662.7.7,0,0,1,.692-.655A.709.709,0,0,1,334.108,88.706Z" transform="translate(-307.51 -88.033)" fill="#777"/>
      <path id="Trazado_1210" data-name="Trazado 1210" d="M379.8,93.481a.677.677,0,0,1-.7-.638.721.721,0,0,1,.721-.671.685.685,0,0,1,.69.656A.656.656,0,0,1,379.8,93.481Z" transform="translate(-349.345 -91.764)" fill="#777"/>
      <path id="Trazado_1211" data-name="Trazado 1211" d="M588.5,325.682a.685.685,0,0,1,.717.663.674.674,0,0,1-.725.65.657.657,0,1,1,.008-1.313Z" transform="translate(-537.501 -302.279)" fill="#777"/>
      <path id="Trazado_1212" data-name="Trazado 1212" d="M209.717,479.33c-.484-.436-.48-.5.037-.836.189.079.377.213.382.423S209.926,479.242,209.717,479.33Z" transform="translate(-196.318 -440.042)" fill="#777"/>
      <path id="Trazado_1213" data-name="Trazado 1213" d="M462.433,475.111a.8.8,0,0,1,.429-.4,1.285,1.285,0,0,1,.414.389C463,475.637,462.8,475.642,462.433,475.111Z" transform="translate(-424.469 -436.628)" fill="#777"/>
      <path id="Trazado_1214" data-name="Trazado 1214" d="M253.206,258.432a.9.9,0,0,1-.912.946.928.928,0,0,1-.977-.886.946.946,0,1,1,1.889-.06Zm-.513.137a.407.407,0,0,0-.367-.455.324.324,0,0,0-.389.33.375.375,0,0,0,.387.395C252.531,258.842,252.668,258.75,252.693,258.569Z" transform="translate(-234.143 -240.78)" fill="#777"/>
      <path id="Trazado_1215" data-name="Trazado 1215" d="M251.739,306.858a.977.977,0,0,1-.916-.976,1,1,0,0,1,.952-.905,1.036,1.036,0,0,1,.965.944A1,1,0,0,1,251.739,306.858Zm-.308-.947c0,.261.122.408.346.406a.375.375,0,0,0,.422-.361.393.393,0,0,0-.419-.4A.36.36,0,0,0,251.43,305.911Z" transform="translate(-233.698 -283.612)" fill="#777"/>
      <path id="Trazado_1216" data-name="Trazado 1216" d="M410.607,258.6a.987.987,0,0,1-.978.923,1.034,1.034,0,0,1-.964-.993,1.051,1.051,0,0,1,1.036-.966A1.007,1.007,0,0,1,410.607,258.6Zm-1.037.326a.431.431,0,0,0,.387-.357c.032-.182-.2-.412-.4-.4s-.383.1-.407.34C409.131,258.685,409.371,258.92,409.57,258.928Z" transform="translate(-375.996 -240.871)" fill="#777"/>
      <path id="Trazado_1217" data-name="Trazado 1217" d="M411.918,306.787a.948.948,0,0,1-.964-.922,1.044,1.044,0,0,1,.989-.969.946.946,0,1,1-.026,1.891Zm.34-.923a.392.392,0,0,0-.377-.386.312.312,0,0,0-.338.342.428.428,0,0,0,.415.384A.342.342,0,0,0,412.258,305.864Z" transform="translate(-378.06 -283.54)" fill="#777"/>
    </g>
  </g>
</svg>
