<?xml version="1.0" encoding="iso-8859-1"?>
<!-- Generator: Adobe Illustrator 19.0.0, SVG Export Plug-In . SVG Version: 6.00 Build 0)  -->
<svg version="1.1" id="Layer_1" xmlns="http://www.w3.org/2000/svg" xmlns:xlink="http://www.w3.org/1999/xlink" x="0px" y="0px"
	 viewBox="0 0 512 512" style="enable-background:new 0 0 512 512;" xml:space="preserve">
<g>
	<g>
		<path fill="#1A9096" d="M501.801,451.4h-2.951V196.306c0-23.075-18.772-41.846-41.846-41.846H320.54c1.134-3.134,1.755-6.513,1.755-10.034
			c0-3.583-0.642-7.018-1.813-10.199h4.873c4.058,0,7.732-2.406,9.352-6.129l37.737-86.693c1.373-3.154,1.064-6.784-0.821-9.662
			c-1.886-2.875-5.092-4.609-8.531-4.609h-175.28L171.93,11.253c-1.912-1.912-4.507-2.987-7.212-2.987h-29.578
			c-5.633,0-10.199,4.567-10.199,10.199c0,5.632,4.566,10.199,10.199,10.199h25.353l9.833,9.835v85.528
			c0,5.632,4.566,10.199,10.199,10.199h3.853c-1.172,3.181-1.813,6.616-1.813,10.199c0,3.521,0.621,6.899,1.755,10.034H54.996
			c-23.075,0-41.846,18.772-41.846,41.846V451.4h-2.951C4.566,451.4,0,455.968,0,461.6v31.936c0,5.632,4.566,10.199,10.199,10.199
			h491.602c5.632,0,10.199-4.567,10.199-10.199V461.6C512,455.968,507.433,451.4,501.801,451.4z M190.725,105.668h114.231
			c5.632,0,10.199-4.567,10.199-10.199s-4.567-10.199-10.199-10.199H190.725V77.11h114.231c5.632,0,10.199-4.567,10.199-10.199
			c0-5.632-4.567-10.199-10.199-10.199H190.725v-9.179h156.803l-28.858,66.295H190.725V105.668z M301.896,144.425
			c0,5.062-4.117,9.179-9.179,9.179c-5.062,0-9.179-4.117-9.179-9.179s4.117-9.179,9.179-9.179
			C297.779,135.246,301.896,139.363,301.896,144.425z M264.895,154.459h-24.929c1.134-3.134,1.755-6.513,1.755-10.034
			c0-3.582-0.642-7.018-1.813-10.199h25.045c-1.172,3.181-1.813,6.616-1.813,10.199
			C263.139,147.946,263.761,151.324,264.895,154.459z M221.323,144.425c0,5.062-4.118,9.179-9.179,9.179s-9.179-4.117-9.179-9.179
			s4.118-9.179,9.179-9.179S221.323,139.364,221.323,144.425z M33.548,196.306c0-11.827,9.622-21.448,21.448-21.448h402.008
			c11.827,0,21.448,9.622,21.448,21.448v52.152H33.548V196.306z M33.548,268.855h444.904v182.544H349.833V310.157
			c0-5.632-4.567-10.199-10.199-10.199H172.367c-5.633,0-10.199,4.567-10.199,10.199V451.4H33.548V268.855z M329.434,320.356V451.4
			h-64.255V320.356H329.434z M244.781,320.356V451.4h-62.215V320.356H244.781z M491.602,483.336H20.398v-11.537h471.203V483.336z"/>
	</g>
</g>
<g>
	<g>
		<path fill="#1A9096" d="M455.271,187.261H354.117c-5.632,0-10.199,4.567-10.199,10.199c0,5.632,4.567,10.199,10.199,10.199h101.154
			c5.632,0,10.199-4.567,10.199-10.199C465.47,191.829,460.903,187.261,455.271,187.261z"/>
	</g>
</g>
<g>
	<g>
		<path fill="#1A9096" d="M322.761,187.261h-8.093c-5.632,0-10.199,4.567-10.199,10.199c0,5.632,4.567,10.199,10.199,10.199h8.093
			c5.632,0,10.199-4.567,10.199-10.199C332.96,191.829,328.393,187.261,322.761,187.261z"/>
	</g>
</g>
</svg>
