<svg width="159" height="66" viewBox="0 0 159 66" fill="none" xmlns="http://www.w3.org/2000/svg">
<rect width="158.4" height="66" rx="13.2812" fill="#282B33"/>
<path d="M73.6184 32.2139H75.532C76.2761 32.2139 76.8919 32.0854 77.3791 31.8285C77.8752 31.5716 78.2429 31.2172 78.4821 30.7654C78.7213 30.3136 78.8408 29.7953 78.8408 29.2106C78.8408 28.5993 78.7301 28.0767 78.5086 27.6426C78.296 27.1996 77.9682 26.8585 77.5253 26.6193C77.0912 26.3801 76.5375 26.2606 75.8642 26.2606C75.2972 26.2606 74.7834 26.3757 74.3227 26.6061C73.8709 26.8275 73.5121 27.1465 73.2463 27.5628C72.9806 27.9704 72.8477 28.4576 72.8477 29.0246H69.6318C69.6318 27.9969 69.902 27.0844 70.4424 26.2871C70.9828 25.4898 71.7182 24.8652 72.6484 24.4134C73.5874 23.9528 74.6416 23.7224 75.811 23.7224C77.0602 23.7224 78.1498 23.9306 79.08 24.347C80.0191 24.7545 80.75 25.3658 81.2727 26.1808C81.7954 26.9959 82.0567 28.0058 82.0567 29.2106C82.0567 29.7599 81.9282 30.318 81.6713 30.885C81.4144 31.452 81.0335 31.9702 80.5285 32.4398C80.0235 32.9004 79.3945 33.2769 78.6415 33.5693C77.8885 33.8528 77.0159 33.9945 76.0237 33.9945H73.6184V32.2139ZM73.6184 34.7121V32.958H76.0237C77.1576 32.958 78.1233 33.0909 78.9206 33.3567C79.7268 33.6224 80.3823 33.9901 80.8873 34.4596C81.3923 34.9203 81.7599 35.4474 81.9903 36.041C82.2294 36.6345 82.349 37.2635 82.349 37.928C82.349 38.8316 82.1852 39.6378 81.8574 40.3465C81.5384 41.0464 81.0822 41.6399 80.4886 42.1272C79.8951 42.6144 79.1996 42.9821 78.4023 43.2301C77.6139 43.4782 76.7545 43.6022 75.8243 43.6022C74.9916 43.6022 74.1943 43.487 73.4324 43.2567C72.6705 43.0264 71.9884 42.6853 71.3859 42.2335C70.7835 41.7728 70.3051 41.2014 69.9508 40.5192C69.6053 39.8282 69.4325 39.0309 69.4325 38.1273H72.6351C72.6351 38.7031 72.768 39.2125 73.0337 39.6555C73.3084 40.0896 73.6893 40.4306 74.1765 40.6787C74.6727 40.9268 75.2396 41.0508 75.8775 41.0508C76.5508 41.0508 77.131 40.9312 77.6183 40.692C78.1055 40.4528 78.4776 40.0984 78.7345 39.6289C79.0003 39.1594 79.1332 38.5924 79.1332 37.928C79.1332 37.1749 78.987 36.5637 78.6947 36.0941C78.4023 35.6246 77.9859 35.2791 77.4455 35.0576C76.9051 34.8273 76.2673 34.7121 75.532 34.7121H73.6184ZM86.0982 41.7418C86.0982 41.2457 86.2665 40.8293 86.6032 40.4927C86.9398 40.1472 87.3961 39.9744 87.9719 39.9744C88.5566 39.9744 89.0128 40.1472 89.3406 40.4927C89.6773 40.8293 89.8456 41.2457 89.8456 41.7418C89.8456 42.2379 89.6773 42.6543 89.3406 42.9909C89.0128 43.3276 88.5566 43.4959 87.9719 43.4959C87.3961 43.4959 86.9398 43.3276 86.6032 42.9909C86.2665 42.6543 86.0982 42.2379 86.0982 41.7418ZM103.481 23.8686H103.88V26.4865H103.654C102.511 26.4865 101.524 26.6636 100.691 27.018C99.867 27.3724 99.1893 27.8596 98.6577 28.4798C98.1262 29.0999 97.7275 29.8263 97.4617 30.6591C97.2048 31.483 97.0764 32.36 97.0764 33.2902V36.3333C97.0764 37.1041 97.1605 37.7862 97.3289 38.3798C97.4972 38.9645 97.732 39.4561 98.0332 39.8548C98.3432 40.2446 98.6976 40.5414 99.0962 40.7451C99.4949 40.9489 99.9246 41.0508 100.385 41.0508C100.864 41.0508 101.298 40.9533 101.688 40.7584C102.077 40.5547 102.41 40.2756 102.684 39.9213C102.959 39.5669 103.167 39.1461 103.309 38.6588C103.45 38.1716 103.521 37.64 103.521 37.0642C103.521 36.5149 103.45 36.0011 103.309 35.5227C103.176 35.0355 102.977 34.6102 102.711 34.247C102.445 33.8749 102.113 33.587 101.714 33.3833C101.324 33.1706 100.872 33.0643 100.359 33.0643C99.7208 33.0643 99.1405 33.2149 98.6179 33.5161C98.104 33.8173 97.6877 34.2116 97.3687 34.6988C97.0587 35.1772 96.8903 35.6866 96.8638 36.227L95.6412 35.8284C95.7121 35.0045 95.8937 34.2647 96.186 33.6092C96.4872 32.9536 96.8815 32.3955 97.3687 31.9348C97.856 31.4741 98.4185 31.1242 99.0564 30.885C99.7031 30.6369 100.412 30.5129 101.183 30.5129C102.122 30.5129 102.937 30.6901 103.628 31.0445C104.319 31.3988 104.89 31.8816 105.342 32.4929C105.803 33.0953 106.144 33.7863 106.365 34.5659C106.595 35.3367 106.711 36.1429 106.711 36.9845C106.711 37.9147 106.569 38.7829 106.285 39.589C106.002 40.3864 105.586 41.0862 105.036 41.6886C104.496 42.2911 103.836 42.7606 103.056 43.0972C102.286 43.4339 101.408 43.6022 100.425 43.6022C99.3886 43.6022 98.4628 43.4029 97.6478 43.0042C96.8416 42.6056 96.155 42.0563 95.5881 41.3564C95.0299 40.6566 94.6047 39.8504 94.3123 38.9379C94.02 38.0254 93.8738 37.0598 93.8738 36.041V34.7121C93.8738 33.2415 94.0599 31.8551 94.4319 30.5528C94.804 29.2416 95.3754 28.0855 96.1462 27.0844C96.9258 26.0834 97.9224 25.2993 99.1361 24.7324C100.35 24.1565 101.798 23.8686 103.481 23.8686ZM122.38 38.0608C122.38 39.2657 122.101 40.28 121.542 41.1039C120.984 41.9278 120.222 42.5524 119.257 42.9776C118.3 43.394 117.219 43.6022 116.014 43.6022C114.81 43.6022 113.724 43.394 112.759 42.9776C111.793 42.5524 111.031 41.9278 110.473 41.1039C109.915 40.28 109.636 39.2657 109.636 38.0608C109.636 37.2635 109.791 36.5415 110.101 35.8948C110.411 35.2392 110.85 34.6767 111.417 34.2071C111.992 33.7288 112.666 33.3611 113.436 33.1042C114.216 32.8473 115.067 32.7188 115.988 32.7188C117.21 32.7188 118.305 32.9447 119.27 33.3965C120.236 33.8484 120.993 34.4729 121.542 35.2702C122.101 36.0676 122.38 36.9978 122.38 38.0608ZM119.164 37.9014C119.164 37.2547 119.031 36.6877 118.765 36.2004C118.499 35.7132 118.127 35.3367 117.649 35.0709C117.171 34.8051 116.617 34.6722 115.988 34.6722C115.35 34.6722 114.796 34.8051 114.327 35.0709C113.857 35.3367 113.49 35.7132 113.224 36.2004C112.967 36.6877 112.838 37.2547 112.838 37.9014C112.838 38.557 112.967 39.1239 113.224 39.6023C113.481 40.0719 113.848 40.4306 114.327 40.6787C114.805 40.9268 115.368 41.0508 116.014 41.0508C116.661 41.0508 117.219 40.9268 117.689 40.6787C118.158 40.4306 118.522 40.0719 118.778 39.6023C119.035 39.1239 119.164 38.557 119.164 37.9014ZM121.941 29.0777C121.941 30.0434 121.684 30.9027 121.17 31.6557C120.665 32.4088 119.966 33.0023 119.071 33.4364C118.176 33.8616 117.157 34.0743 116.014 34.0743C114.863 34.0743 113.835 33.8616 112.931 33.4364C112.037 33.0023 111.332 32.4088 110.819 31.6557C110.314 30.9027 110.061 30.0434 110.061 29.0777C110.061 27.9261 110.314 26.956 110.819 26.1675C111.332 25.3702 112.037 24.7634 112.931 24.347C113.826 23.9306 114.849 23.7224 116.001 23.7224C117.153 23.7224 118.176 23.9306 119.071 24.347C119.966 24.7634 120.665 25.3702 121.17 26.1675C121.684 26.956 121.941 27.9261 121.941 29.0777ZM118.739 29.184C118.739 28.6082 118.623 28.1032 118.393 27.6691C118.172 27.2262 117.857 26.8807 117.45 26.6326C117.042 26.3846 116.559 26.2606 116.001 26.2606C115.443 26.2606 114.96 26.3801 114.553 26.6193C114.145 26.8585 113.831 27.1952 113.609 27.6293C113.388 28.0634 113.277 28.5816 113.277 29.184C113.277 29.7776 113.388 30.2959 113.609 30.7388C113.831 31.1729 114.145 31.514 114.553 31.762C114.969 32.0101 115.456 32.1341 116.014 32.1341C116.573 32.1341 117.055 32.0101 117.463 31.762C117.87 31.514 118.185 31.1729 118.406 30.7388C118.628 30.2959 118.739 29.7776 118.739 29.184ZM129.066 22.9251V43.3364H125.85V22.9251H129.066ZM137.996 28.9581L131.737 35.8948L128.308 39.403L127.471 36.6921L130.062 33.4896L134.129 28.9581H137.996ZM134.82 43.3364L130.155 36.5858L132.175 34.34L138.527 43.3364H134.82Z" fill="white"/>
<g clip-path="url(#clip0_1131_4033)">
<path d="M49.0197 32.6606L34.1149 41.6049L19.2101 32.6606C18.8868 32.4666 18.4997 32.409 18.1339 32.5005C17.7681 32.5919 17.4537 32.8249 17.2597 33.1482C17.0657 33.4715 17.0081 33.8586 17.0996 34.2243C17.191 34.5901 17.424 34.9046 17.7473 35.0985L33.3842 44.4807C33.6053 44.6135 33.8584 44.6837 34.1163 44.6837C34.3742 44.6837 34.6273 44.6135 34.8484 44.4807L50.4853 35.0985C50.8086 34.9046 51.0416 34.5901 51.1331 34.2243C51.2245 33.8586 51.1669 33.4715 50.9729 33.1482C50.7789 32.8249 50.4645 32.5919 50.0987 32.5005C49.733 32.409 49.3459 32.4666 49.0226 32.6606H49.0197Z" fill="#757575"/>
<path d="M49.0197 39.1484L34.1149 48.0913L19.2101 39.1484C19.05 39.0523 18.8726 38.9888 18.6879 38.9613C18.5033 38.9338 18.315 38.943 18.1339 38.9882C17.9528 39.0335 17.7824 39.114 17.6324 39.2252C17.4824 39.3363 17.3558 39.4759 17.2597 39.636C17.1637 39.7961 17.1001 39.9735 17.0726 40.1581C17.0451 40.3428 17.0543 40.531 17.0996 40.7121C17.191 41.0779 17.424 41.3923 17.7473 41.5863L33.3842 50.9685C33.6053 51.1013 33.8584 51.1715 34.1163 51.1715C34.3742 51.1715 34.6273 51.1013 34.8484 50.9685L50.4853 41.5863C50.8086 41.3923 51.0416 41.0779 51.1331 40.7121C51.2245 40.3464 51.1669 39.9593 50.9729 39.636C50.7789 39.3127 50.4645 39.0797 50.0987 38.9882C49.733 38.8968 49.3459 38.9544 49.0226 39.1484H49.0197Z" fill="#757575"/>
<path d="M34.1151 38.053C33.3483 38.0526 32.5961 37.8437 31.9388 37.4488L17.7461 28.9324C17.5359 28.806 17.362 28.6274 17.2413 28.4139C17.1206 28.2005 17.0571 27.9594 17.0571 27.7141C17.0571 27.4689 17.1206 27.2278 17.2413 27.0143C17.362 26.8009 17.5359 26.6223 17.7461 26.4959L31.9388 17.9794C32.596 17.5846 33.3484 17.376 34.1151 17.376C34.8819 17.376 35.6342 17.5846 36.2915 17.9794L50.4841 26.4959C50.6943 26.6223 50.8682 26.8009 50.989 27.0143C51.1097 27.2278 51.1731 27.4689 51.1731 27.7141C51.1731 27.9594 51.1097 28.2005 50.989 28.4139C50.8682 28.6274 50.6943 28.806 50.4841 28.9324L36.2915 37.4488C35.6342 37.8437 34.8819 38.0526 34.1151 38.053ZM21.2417 27.7141L33.4044 35.0109C33.6192 35.1394 33.8648 35.2073 34.1151 35.2073C34.3655 35.2073 34.6111 35.1394 34.8259 35.0109L46.9886 27.7141L34.8259 20.4174C34.6111 20.2889 34.3655 20.221 34.1151 20.221C33.8648 20.221 33.6192 20.2889 33.4044 20.4174L21.2417 27.7141Z" fill="#757575"/>
</g>
<defs>
<clipPath id="clip0_1131_4033">
<rect width="34.1169" height="34.1169" fill="white" transform="translate(17.0591 17.0591)"/>
</clipPath>
</defs>
</svg>
