<svg width="86" height="36" viewBox="0 0 86 36" fill="none" xmlns="http://www.w3.org/2000/svg">
<rect width="85.2663" height="35.5276" rx="7.14925" fill="#282B33"/>
<path d="M39.6284 17.1922H40.6585C41.059 17.1922 41.3905 17.123 41.6528 16.9847C41.9198 16.8465 42.1177 16.6557 42.2465 16.4125C42.3752 16.1693 42.4396 15.8903 42.4396 15.5756C42.4396 15.2465 42.38 14.9652 42.2608 14.7315C42.1463 14.493 41.9699 14.3094 41.7314 14.1807C41.4978 14.0519 41.1997 13.9875 40.8373 13.9875C40.5321 13.9875 40.2555 14.0495 40.0075 14.1735C39.7643 14.2928 39.5712 14.4644 39.4281 14.6886C39.285 14.9079 39.2135 15.1702 39.2135 15.4754H37.4824C37.4824 14.9222 37.6279 14.431 37.9188 14.0019C38.2097 13.5727 38.6055 13.2365 39.1062 12.9932C39.6117 12.7453 40.1792 12.6213 40.8087 12.6213C41.4811 12.6213 42.0676 12.7333 42.5684 12.9575C43.0739 13.1768 43.4673 13.5059 43.7486 13.9446C44.03 14.3834 44.1707 14.927 44.1707 15.5756C44.1707 15.8712 44.1015 16.1717 43.9632 16.4769C43.8249 16.7821 43.6199 17.0611 43.3481 17.3138C43.0762 17.5618 42.7377 17.7645 42.3323 17.9218C41.927 18.0744 41.4572 18.1507 40.9231 18.1507H39.6284V17.1922ZM39.6284 18.537V17.5928H40.9231C41.5335 17.5928 42.0533 17.6643 42.4825 17.8074C42.9165 17.9504 43.2694 18.1483 43.5412 18.4011C43.813 18.6491 44.0109 18.9328 44.1349 19.2523C44.2637 19.5718 44.3281 19.9104 44.3281 20.2681C44.3281 20.7545 44.2398 21.1885 44.0634 21.57C43.8917 21.9467 43.6461 22.2662 43.3266 22.5285C43.0071 22.7908 42.6327 22.9887 42.2035 23.1222C41.7791 23.2557 41.3165 23.3225 40.8158 23.3225C40.3676 23.3225 39.9384 23.2605 39.5282 23.1365C39.1181 23.0125 38.7509 22.8289 38.4266 22.5857C38.1024 22.3377 37.8448 22.0302 37.6541 21.663C37.4681 21.291 37.3751 20.8618 37.3751 20.3754H39.099C39.099 20.6854 39.1706 20.9596 39.3136 21.198C39.4615 21.4317 39.6665 21.6153 39.9288 21.7488C40.1959 21.8823 40.5011 21.9491 40.8444 21.9491C41.2069 21.9491 41.5192 21.8847 41.7815 21.756C42.0438 21.6272 42.2441 21.4364 42.3824 21.1837C42.5254 20.9309 42.597 20.6257 42.597 20.2681C42.597 19.8627 42.5183 19.5337 42.3609 19.2809C42.2035 19.0282 41.9794 18.8422 41.6885 18.723C41.3976 18.599 41.0543 18.537 40.6585 18.537H39.6284ZM46.3462 22.3211C46.3462 22.054 46.4368 21.8299 46.618 21.6487C46.7993 21.4627 47.0449 21.3697 47.3548 21.3697C47.6696 21.3697 47.9152 21.4627 48.0916 21.6487C48.2728 21.8299 48.3634 22.054 48.3634 22.3211C48.3634 22.5881 48.2728 22.8122 48.0916 22.9935C47.9152 23.1747 47.6696 23.2653 47.3548 23.2653C47.0449 23.2653 46.7993 23.1747 46.618 22.9935C46.4368 22.8122 46.3462 22.5881 46.3462 22.3211ZM55.7036 12.7H55.9182V14.1092H55.7966C55.1814 14.1092 54.6497 14.2045 54.2014 14.3953C53.7579 14.586 53.3931 14.8483 53.107 15.1821C52.8208 15.516 52.6062 15.907 52.4632 16.3553C52.3249 16.7988 52.2557 17.2709 52.2557 17.7716V19.4097C52.2557 19.8246 52.301 20.1918 52.3917 20.5113C52.4823 20.826 52.6086 21.0907 52.7708 21.3053C52.9377 21.5151 53.1284 21.6749 53.343 21.7846C53.5576 21.8942 53.7889 21.9491 54.0369 21.9491C54.2944 21.9491 54.5281 21.8966 54.7379 21.7917C54.9477 21.682 55.1266 21.5318 55.2744 21.3411C55.4222 21.1503 55.5343 20.9238 55.6106 20.6615C55.6869 20.3992 55.7251 20.1131 55.7251 19.8031C55.7251 19.5075 55.6869 19.2309 55.6106 18.9733C55.5391 18.7111 55.4318 18.4822 55.2887 18.2866C55.1456 18.0863 54.9668 17.9314 54.7522 17.8217C54.5424 17.7072 54.2992 17.65 54.0226 17.65C53.6792 17.65 53.3669 17.7311 53.0855 17.8932C52.8089 18.0553 52.5848 18.2676 52.4131 18.5298C52.2462 18.7874 52.1556 19.0616 52.1413 19.3525L51.4832 19.1379C51.5213 18.6944 51.6191 18.2962 51.7765 17.9433C51.9386 17.5904 52.1508 17.29 52.4131 17.042C52.6754 16.794 52.9782 16.6056 53.3216 16.4769C53.6697 16.3433 54.0512 16.2766 54.4661 16.2766C54.9716 16.2766 55.4103 16.372 55.7823 16.5627C56.1542 16.7535 56.4618 17.0134 56.705 17.3424C56.953 17.6667 57.1366 18.0387 57.2558 18.4583C57.3798 18.8732 57.4418 19.3072 57.4418 19.7602C57.4418 20.2609 57.3655 20.7283 57.2129 21.1622C57.0603 21.5914 56.8362 21.9682 56.5405 22.2924C56.2496 22.6167 55.8943 22.8695 55.4747 23.0507C55.0598 23.2319 54.5877 23.3225 54.0584 23.3225C53.5004 23.3225 53.0021 23.2152 52.5633 23.0006C52.1294 22.786 51.7598 22.4903 51.4546 22.1136C51.1541 21.7369 50.9252 21.3029 50.7679 20.8117C50.6105 20.3205 50.5318 19.8007 50.5318 19.2523V18.537C50.5318 17.7454 50.632 16.9991 50.8322 16.298C51.0325 15.5923 51.3401 14.9699 51.755 14.431C52.1747 13.8922 52.7112 13.4701 53.3645 13.1649C54.0178 12.855 54.7975 12.7 55.7036 12.7ZM65.8764 20.3396C65.8764 20.9882 65.7262 21.5342 65.4258 21.9777C65.1253 22.4212 64.7152 22.7574 64.1954 22.9863C63.6804 23.2104 63.0986 23.3225 62.45 23.3225C61.8015 23.3225 61.2173 23.2104 60.6975 22.9863C60.1777 22.7574 59.7676 22.4212 59.4671 21.9777C59.1667 21.5342 59.0165 20.9882 59.0165 20.3396C59.0165 19.9104 59.0999 19.5218 59.2669 19.1736C59.4338 18.8207 59.6698 18.5179 59.975 18.2652C60.285 18.0077 60.6474 17.8098 61.0623 17.6715C61.482 17.5332 61.9398 17.464 62.4357 17.464C63.0938 17.464 63.6828 17.5856 64.2026 17.8288C64.7224 18.072 65.1301 18.4082 65.4258 18.8374C65.7262 19.2666 65.8764 19.7674 65.8764 20.3396ZM64.1454 20.2538C64.1454 19.9057 64.0738 19.6004 63.9308 19.3382C63.7877 19.0759 63.5874 18.8732 63.3299 18.7301C63.0724 18.5871 62.7743 18.5155 62.4357 18.5155C62.0924 18.5155 61.7943 18.5871 61.5416 18.7301C61.2888 18.8732 61.0909 19.0759 60.9479 19.3382C60.8096 19.6004 60.7404 19.9057 60.7404 20.2538C60.7404 20.6067 60.8096 20.9119 60.9479 21.1694C61.0862 21.4221 61.2841 21.6153 61.5416 21.7488C61.7991 21.8823 62.1019 21.9491 62.45 21.9491C62.7982 21.9491 63.0986 21.8823 63.3513 21.7488C63.6041 21.6153 63.7996 21.4221 63.9379 21.1694C64.0762 20.9119 64.1454 20.6067 64.1454 20.2538ZM65.6404 15.504C65.6404 16.0238 65.5021 16.4864 65.2255 16.8918C64.9537 17.2971 64.5769 17.6166 64.0953 17.8503C63.6136 18.0792 63.0652 18.1936 62.45 18.1936C61.8301 18.1936 61.2769 18.0792 60.7905 17.8503C60.3088 17.6166 59.9297 17.2971 59.6531 16.8918C59.3813 16.4864 59.2454 16.0238 59.2454 15.504C59.2454 14.8841 59.3813 14.3619 59.6531 13.9375C59.9297 13.5083 60.3088 13.1816 60.7905 12.9575C61.2721 12.7333 61.8229 12.6213 62.4429 12.6213C63.0628 12.6213 63.6136 12.7333 64.0953 12.9575C64.5769 13.1816 64.9537 13.5083 65.2255 13.9375C65.5021 14.3619 65.6404 14.8841 65.6404 15.504ZM63.9165 15.5613C63.9165 15.2513 63.8545 14.9795 63.7305 14.7458C63.6112 14.5073 63.442 14.3214 63.2226 14.1878C63.0032 14.0543 62.7433 13.9875 62.4429 13.9875C62.1425 13.9875 61.8826 14.0519 61.6632 14.1807C61.4438 14.3094 61.2745 14.4907 61.1553 14.7243C61.0361 14.958 60.9765 15.237 60.9765 15.5613C60.9765 15.8808 61.0361 16.1597 61.1553 16.3982C61.2745 16.6319 61.4438 16.8155 61.6632 16.949C61.8873 17.0825 62.1496 17.1493 62.45 17.1493C62.7505 17.1493 63.0104 17.0825 63.2297 16.949C63.4491 16.8155 63.6184 16.6319 63.7376 16.3982C63.8568 16.1597 63.9165 15.8808 63.9165 15.5613ZM69.4755 12.1921V23.1794H67.7444V12.1921H69.4755ZM74.2824 15.4397L70.9133 19.1736L69.0677 21.0621L68.6171 19.6028L70.012 17.8789L72.2008 15.4397H74.2824ZM72.5728 23.1794L70.062 19.5456L71.1493 18.3367L74.5686 23.1794H72.5728Z" fill="white"/>
<g clip-path="url(#clip0_1209_2102)">
<path d="M26.3871 17.5807L18.3638 22.3954L10.3406 17.5807C10.1666 17.4763 9.95822 17.4453 9.76133 17.4945C9.56444 17.5438 9.39517 17.6692 9.29075 17.8432C9.18634 18.0172 9.15533 18.2256 9.20455 18.4225C9.25377 18.6194 9.37919 18.7886 9.55322 18.8931L17.9705 23.9435C18.0895 24.015 18.2258 24.0527 18.3646 24.0527C18.5035 24.0527 18.6397 24.015 18.7587 23.9435L27.176 18.8931C27.35 18.7886 27.4755 18.6194 27.5247 18.4225C27.5739 18.2256 27.5429 18.0172 27.4385 17.8432C27.3341 17.6692 27.1648 17.5438 26.9679 17.4945C26.771 17.4453 26.5626 17.4763 26.3886 17.5807H26.3871Z" fill="#757575"/>
<path d="M26.3871 21.0732L18.3638 25.8871L10.3406 21.0732C10.2544 21.0215 10.1589 20.9872 10.0595 20.9724C9.96015 20.9577 9.85882 20.9626 9.76133 20.987C9.66384 21.0113 9.5721 21.0547 9.49136 21.1145C9.41062 21.1743 9.34245 21.2495 9.29075 21.3356C9.23905 21.4218 9.20483 21.5173 9.19004 21.6167C9.17525 21.7161 9.18018 21.8174 9.20455 21.9149C9.25377 22.1118 9.37919 22.2811 9.55322 22.3855L17.9705 27.4359C18.0895 27.5074 18.2258 27.5452 18.3646 27.5452C18.5035 27.5452 18.6397 27.5074 18.7587 27.4359L27.176 22.3855C27.35 22.2811 27.4755 22.1118 27.5247 21.9149C27.5739 21.718 27.5429 21.5097 27.4385 21.3356C27.3341 21.1616 27.1648 21.0362 26.9679 20.987C26.771 20.9377 26.5626 20.9687 26.3886 21.0732H26.3871Z" fill="#757575"/>
<path d="M18.3638 20.4834C17.951 20.4832 17.546 20.3708 17.1922 20.1582L9.55237 15.5738C9.43923 15.5058 9.34562 15.4096 9.28063 15.2947C9.21564 15.1798 9.18149 15.05 9.18149 14.918C9.18149 14.786 9.21564 14.6562 9.28063 14.5413C9.34562 14.4264 9.43923 14.3303 9.55237 14.2622L17.1922 9.67787C17.546 9.46532 17.951 9.35303 18.3638 9.35303C18.7765 9.35303 19.1815 9.46532 19.5353 9.67787L27.1752 14.2622C27.2883 14.3303 27.3819 14.4264 27.4469 14.5413C27.5119 14.6562 27.546 14.786 27.546 14.918C27.546 15.05 27.5119 15.1798 27.4469 15.2947C27.3819 15.4096 27.2883 15.5058 27.1752 15.5738L19.5353 20.1582C19.1815 20.3708 18.7765 20.4832 18.3638 20.4834ZM11.434 14.918L17.9812 18.8459C18.0968 18.915 18.229 18.9516 18.3638 18.9516C18.4985 18.9516 18.6307 18.915 18.7464 18.8459L25.2935 14.918L18.7464 10.9902C18.6307 10.921 18.4985 10.8845 18.3638 10.8845C18.229 10.8845 18.0968 10.921 17.9812 10.9902L11.434 14.918Z" fill="#757575"/>
</g>
<defs>
<clipPath id="clip0_1209_2102">
<rect width="18.365" height="18.365" fill="white" transform="translate(9.18286 9.18286)"/>
</clipPath>
</defs>
</svg>
