<?xml version="1.0" encoding="UTF-8"?>
<svg width="89px" height="24px" viewBox="0 0 89 24" version="1.1" xmlns="http://www.w3.org/2000/svg" xmlns:xlink="http://www.w3.org/1999/xlink">
    <!-- Generator: Sketch 53.2 (72643) - https://sketchapp.com -->
    <title>Group 18</title>
    <desc>Created with Sketch.</desc>
    <defs>
        <polygon id="path-1" points="0 0.143243956 12.2314431 0.143243956 12.2314431 18.1998593 0 18.1998593"></polygon>
        <polygon id="path-3" points="0 23.9120879 88.9134722 23.9120879 88.9134722 0.142593407 0 0.142593407"></polygon>
    </defs>
    <g id="VERSION-1" stroke="none" stroke-width="1" fill="none" fill-rule="evenodd">
        <g id="--Dashboard-Copy-3" transform="translate(-127.000000, -275.000000)">
            <g id="Group-18" transform="translate(127.000000, 275.000000)">
                <polygon id="Fill-1" fill="#343540" points="69.2222222 19.6923077 89 19.6923077 89 0 69.2222222 0"></polygon>
                <g id="Group-17">
                    <g id="Group-4" transform="translate(0.000000, 0.351648)">
                        <mask id="mask-2" fill="white">
                            <use xlink:href="#path-1"></use>
                        </mask>
                        <g id="Clip-3"></g>
                        <path d="M6.06854623,8.88944176 C3.99046687,8.88944176 2.73916925,10.5117714 2.73916925,12.2751121 C2.73916925,14.0384527 3.99046687,15.6606066 6.06854623,15.6606066 C8.14644901,15.6606066 9.39792321,14.0384527 9.39792321,12.2751121 C9.39792321,10.5117714 8.14644901,8.88944176 6.06854623,8.88944176 L6.06854623,8.88944176 Z M-5.29761905e-05,0.143243956 L2.83346687,0.143243956 L2.83346687,8.06640879 L2.90427837,8.06640879 C3.49478631,7.33761758 4.62794702,6.35036484 6.7531752,6.35036484 C9.98825456,6.35036484 12.2314431,8.93656264 12.2314431,12.2751121 C12.2314431,15.6138374 10.1298776,18.1998593 6.63503829,18.1998593 C5.05316925,18.1998593 3.56542123,17.5886945 2.73916925,16.2250022 L2.69184385,16.2250022 L2.69184385,17.9174857 L-5.29761905e-05,17.9174857 L-5.29761905e-05,0.143243956 Z" id="Fill-2" fill="#343540" mask="url(#mask-2)"></path>
                    </g>
                    <path d="M19.361844,16.0122022 C21.4397468,16.0122022 22.691221,14.3900484 22.691221,12.6268835 C22.691221,10.863367 21.4397468,9.24103736 19.361844,9.24103736 C17.2835881,9.24103736 16.0322905,10.863367 16.0322905,12.6268835 C16.0322905,14.3900484 17.2835881,16.0122022 19.361844,16.0122022 M19.361844,6.70196044 C22.7856952,6.70196044 25.5247409,9.07646593 25.5247409,12.6268835 C25.5247409,16.1769495 22.7856952,18.5514549 19.361844,18.5514549 C15.9378163,18.5514549 13.1987706,16.1769495 13.1987706,12.6268835 C13.1987706,9.07646593 15.9378163,6.70196044 19.361844,6.70196044" id="Fill-5" fill="#343540"></path>
                    <path d="M25.2427663,6.98412308 L28.3598853,6.98412308 L31.5239766,14.813222 L31.5711254,14.813222 L34.4048218,6.98412308 L37.3564786,6.98412308 L31.996171,20.6910242 C31.1697425,22.8067165 30.1780282,23.9119473 27.6749032,23.9119473 C26.9429488,23.9119473 26.2108179,23.8177055 25.5025262,23.6301011 L25.8567603,21.0903209 C26.3056452,21.255244 26.8013258,21.3728703 27.2970063,21.3728703 C28.6902802,21.3728703 29.068177,20.879156 29.5403714,19.7034198 L30.083554,18.3636396 L25.2427663,6.98412308 Z" id="Fill-7" fill="#343540"></path>
                    <path d="M48.3352643,18.2691516 L45.6433675,18.2691516 L45.6433675,16.4590418 L45.5958655,16.4590418 C45.0765222,17.5873055 44.0139964,18.5513495 42.1248655,18.5513495 C39.0790877,18.5513495 37.992546,16.4119209 37.992546,14.1079209 L37.992546,6.98405275 L40.8262425,6.98405275 L40.8262425,12.6974593 C40.8262425,13.9433495 40.9205401,16.0122725 42.9041452,16.0122725 C44.7697901,16.0122725 45.5012147,14.6485802 45.5012147,13.1440527 L45.5012147,6.98405275 L48.3352643,6.98405275 L48.3352643,18.2691516 Z" id="Fill-9" fill="#343540"></path>
                    <path d="M50.2473692,6.98412308 L52.9394427,6.98412308 L52.9394427,8.74728791 L52.9865915,8.74728791 C53.482272,7.68935385 54.5686371,6.70192527 56.4575915,6.70192527 C58.2049228,6.70192527 59.4094248,7.3835956 59.999403,8.79440879 C60.8261847,7.36021099 62.0305101,6.70192527 63.7303395,6.70192527 C66.7529843,6.70192527 67.8153335,8.84135385 67.8153335,11.545178 L67.8153335,18.269222 L64.9821669,18.269222 L64.9821669,11.8743209 C64.9821669,10.4636835 64.5567681,9.2410022 62.8802482,9.2410022 C61.1094308,9.2410022 60.4482879,10.6987604 60.4482879,12.1565187 L60.4482879,18.269222 L57.6149446,18.269222 L57.6149446,11.545178 C57.6149446,10.1579253 57.0480994,9.2410022 55.6784883,9.2410022 C53.8128435,9.2410022 53.0808891,10.6046945 53.0808891,12.1093978 L53.0808891,18.269222 L50.2473692,18.269222 L50.2473692,6.98412308 Z" id="Fill-11" fill="#343540"></path>
                    <mask id="mask-4" fill="white">
                        <use xlink:href="#path-3"></use>
                    </mask>
                    <g id="Clip-14"></g>
                    <path d="M74.4034702,18.2691868 L77.2366369,18.2691868 L77.2366369,6.98408791 L74.4034702,6.98408791 L74.4034702,18.2691868 Z M75.7965675,1.45881319 C76.835254,1.45881319 77.6378433,2.18778022 77.6378433,3.15164835 C77.6378433,4.11569231 76.835254,4.84448352 75.7965675,4.84448352 C74.7573512,4.84448352 74.0019107,4.04518681 74.0019107,3.15164835 C74.0019107,2.25828571 74.7573512,1.45881319 75.7965675,1.45881319 L75.7965675,1.45881319 Z" id="Fill-13" fill="#FEFEFE" mask="url(#mask-4)"></path>
                    <path d="M76.8115206,9.38213626 L76.8115206,6.98407033 L79.1493599,6.98407033 L79.1493599,3.71585055 L81.9828798,3.71585055 L81.9828798,6.98407033 L85.0999988,6.98407033 L85.0999988,9.38213626 L81.9828798,9.38213626 L81.9828798,14.3196308 C81.9828798,15.4478945 82.3134512,16.1534769 83.565102,16.1534769 C84.060606,16.1534769 84.7457647,16.0592352 85.0999988,15.8005978 L85.0999988,18.1752791 C84.5096675,18.4573011 83.5181298,18.551367 82.8564571,18.551367 C79.8578282,18.551367 79.1493599,17.2112352 79.1493599,14.5547077 L79.1493599,9.38213626 L76.8115206,9.38213626 Z" id="Fill-15" fill="#FEFEFE" mask="url(#mask-4)"></path>
                    <path d="M78.2730101,3.52877363 C78.2730101,4.8151033 77.2254942,5.85809231 75.9335815,5.85809231 C74.6416688,5.85809231 73.5939764,4.8151033 73.5939764,3.52877363 C73.5939764,2.24244396 74.6416688,1.19927912 75.9335815,1.19927912 C77.2254942,1.19927912 78.2730101,2.24244396 78.2730101,3.52877363" id="Fill-16" fill="#F58534" mask="url(#mask-4)"></path>
                </g>
            </g>
        </g>
    </g>
</svg>