<svg width="140" height="50" viewBox="0 0 140 50" fill="none" xmlns="http://www.w3.org/2000/svg">
<path d="M17.509 22.7965C18.7451 23.029 19.6159 23.5531 20.1252 24.3615C20.6344 25.1735 20.889 26.4505 20.889 28.1927C20.889 31.6548 19.8484 34.4857 17.7673 36.6929C15.6861 38.8964 13.0256 40 9.78582 40C8.50909 40 7.26925 39.7712 6.06631 39.3098C4.86338 38.8484 3.8302 38.2062 2.96674 37.3831C1.97782 36.4751 1.23613 35.5192 0.741668 34.5079C0.24721 33.4966 0 32.4631 0 31.4075C0 30.2264 0.254589 29.3147 0.763807 28.6688C1.27302 28.0229 2.07376 27.5837 3.17338 27.3511C2.96674 26.8713 2.81546 26.4653 2.71952 26.1368C2.62358 25.8083 2.5756 25.5536 2.5756 25.3728C2.5756 24.7564 2.90031 24.1216 3.55343 23.4756C4.20656 22.8297 4.8191 22.5086 5.39843 22.5086C5.64566 22.5086 5.90767 22.5529 6.18072 22.6415C6.45378 22.7301 6.7711 22.8777 7.12903 23.0844C6.07 20.091 5.30249 17.7805 4.82279 16.1528C4.34309 14.5251 4.10326 13.403 4.10326 12.783C4.10326 11.9304 4.25086 11.2808 4.6789 10.7714C5.19919 10.1476 5.98514 10 6.74159 10C8.26924 10 8.81536 11.3103 11.4537 18.6553C11.8079 19.6407 12.0589 20.4048 12.236 20.9437C12.3873 20.5192 12.6013 19.9139 12.8743 19.1314C14.8522 13.4178 15.6972 10.561 17.9813 10.561C18.6824 10.561 19.2396 10.7972 19.6602 11.2734C20.0772 11.7458 20.2875 12.3843 20.2875 13.1779C20.2875 13.7832 20.0588 14.8868 19.5975 16.4961C19.1399 18.0979 18.4425 20.1981 17.509 22.7965ZM2.7601 31.2008C2.95198 31.4333 3.22135 31.7766 3.56452 32.2306C4.47225 33.4818 5.30988 34.1056 6.07739 34.1056C6.33938 34.1056 6.57186 34.0244 6.7785 33.8583C6.98514 33.6922 7.08845 33.5224 7.08845 33.3415C7.08845 33.1348 6.95192 32.7916 6.67517 32.3118C6.39842 31.8319 6.02204 31.2894 5.54234 30.6841C4.99253 29.9828 4.53499 29.4734 4.17337 29.1486C3.80806 28.8275 3.51653 28.6651 3.29882 28.6651C2.81913 28.6651 2.37634 28.9235 1.97044 29.4365C1.56454 29.9532 1.36158 30.5586 1.36158 31.2598C1.36158 31.8246 1.50181 32.452 1.78225 33.1459C2.06269 33.8398 2.47228 34.5374 3.00732 35.2387C3.81912 36.3238 4.82279 37.158 6.02573 37.7411C7.22866 38.3243 8.55705 38.6159 10.0109 38.6159C12.6898 38.6159 14.9297 37.6157 16.7378 35.6189C18.5422 33.622 19.4462 31.1159 19.4462 28.1078C19.4462 27.1887 19.3761 26.4579 19.2396 25.9117C19.103 25.3691 18.8743 24.9742 18.5606 24.7269C17.996 24.2618 16.9038 23.841 15.2765 23.4683C13.6492 23.0992 11.9482 22.9109 10.177 22.9109C9.6825 22.9109 9.33196 22.9921 9.12533 23.1582C8.91869 23.3243 8.81536 23.6048 8.81536 24.0034C8.81536 24.9373 9.33564 25.6127 10.3799 26.0335C11.4242 26.4542 13.1142 26.6609 15.4463 26.6609H16.2913C16.4831 26.6609 16.6381 26.7347 16.7562 26.8787C16.8743 27.0226 16.9518 27.2404 16.9924 27.5283C16.7599 27.7498 16.2765 28.0007 15.5496 28.2812C14.8227 28.5618 14.2655 28.8423 13.8817 29.1154C13.0589 29.7207 12.3947 30.4368 11.8928 31.2672C11.391 32.0977 11.14 32.8839 11.14 33.6257C11.14 34.0797 11.2471 34.626 11.4611 35.2645C11.6751 35.903 11.7821 36.298 11.7821 36.4493V36.5933L11.7415 36.7778C11.1364 36.7372 10.6603 36.3829 10.3098 35.7185C9.95925 35.0541 9.78582 34.1646 9.78582 33.05V32.8654C9.67512 32.9614 9.56812 33.0315 9.4648 33.0721C9.36148 33.1127 9.24709 33.1348 9.12533 33.1348C8.99987 33.1348 8.88547 33.1238 8.77477 33.1053C8.66407 33.0832 8.5423 33.0536 8.40577 33.013C8.44636 33.1644 8.47957 33.312 8.49802 33.456C8.52016 33.5999 8.52755 33.7143 8.52755 33.7955C8.52755 34.3049 8.32829 34.7404 7.92977 35.1021C7.53126 35.4675 7.05892 35.6484 6.50912 35.6484C5.64566 35.6484 4.76377 35.2276 3.87079 34.3824C2.97781 33.5372 2.53132 32.7104 2.53132 31.8984C2.53132 31.747 2.54978 31.6142 2.58299 31.4961C2.61989 31.3816 2.67523 31.282 2.7601 31.2008ZM8.93713 31.6954C9.1696 31.6954 9.38361 31.5883 9.57549 31.3743C9.76737 31.1602 9.86332 30.9313 9.86332 30.6841C9.86332 30.422 9.67512 29.8167 9.29505 28.8607C8.91867 27.9048 8.44637 26.9673 7.8855 26.0482C7.47222 25.3617 7.06999 24.8413 6.67148 24.4943C6.27296 24.1437 5.89658 23.9702 5.53865 23.9702C5.25083 23.9702 4.92981 24.1511 4.57926 24.5165C4.22871 24.8819 4.05529 25.2215 4.05529 25.5352C4.05529 25.8637 4.22871 26.3583 4.57187 27.0189C4.91504 27.6796 5.37629 28.3772 5.95192 29.1191C6.55708 29.9311 7.12534 30.5623 7.66039 31.0162C8.19913 31.4702 8.62348 31.6954 8.93713 31.6954ZM10.9592 21.7446L8.73419 15.315C8.15855 13.6799 7.71206 12.6132 7.39472 12.1112C7.07738 11.6092 6.73422 11.3583 6.36522 11.3583C6.0774 11.3583 5.84493 11.469 5.66412 11.6868C5.487 11.9082 5.39476 12.2035 5.39476 12.5726C5.39476 13.2037 5.63459 14.3036 6.11428 15.8686C6.59398 17.4336 7.31724 19.4894 8.27663 22.0288C8.35781 21.8775 8.47587 21.7704 8.62716 21.7077C8.77845 21.6449 8.98511 21.6154 9.24341 21.6154C9.32459 21.6154 9.49062 21.6228 9.73785 21.6375C9.98877 21.656 10.3947 21.6892 10.9592 21.7446ZM13.2839 27.986C12.6935 27.9601 12.1327 27.8974 11.605 27.8014C11.0773 27.7055 10.5718 27.5689 10.0921 27.388C10.3098 27.8273 10.5054 28.2665 10.6788 28.7057C10.8522 29.1449 10.9924 29.5768 11.0995 30.0049C11.4279 29.5915 11.7747 29.2188 12.14 28.8829C12.5053 28.547 12.8854 28.248 13.2839 27.986ZM16.0256 22.4459C16.9444 19.9471 17.6639 17.8839 18.1768 16.2561C18.6934 14.6284 18.9481 13.6282 18.9481 13.2591C18.9481 12.8605 18.8632 12.5504 18.6898 12.3327C18.5163 12.1149 18.2802 12.0042 17.9776 12.0042C17.5938 12.0042 17.2027 12.3253 16.8042 12.9638C16.4057 13.6024 15.9666 14.6284 15.4869 16.0458L13.4278 21.9993L16.0256 22.4459Z" fill="white"/>
<path d="M40.4233 15.1406L48.342 34.5587H44.2424L42.3014 29.7494H34.0433L32.1651 34.5587H28.2832L36.1429 15.1406H40.4233ZM35.213 26.7929H41.128L38.2019 19.5181H38.0801L35.213 26.7929Z" fill="white"/>
<path d="M53.0948 34.5584H49.3975V20.9646H53.0948V23.1829C53.7738 21.6401 55.497 20.5918 57.5339 20.5918C61.1685 20.5918 62.4969 23.0574 62.4969 26.0803V34.5584H58.7995V26.8221C58.7995 24.7257 57.9693 23.5224 56.1501 23.5224C54.2719 23.5224 53.0985 25.0025 53.0985 27.2835V34.5584H53.0948Z" fill="white"/>
<path d="M70.6072 29.8416C69.4965 29.8416 68.4817 29.6866 67.6183 29.347C67.2788 29.5611 67.0648 29.9006 67.0648 30.3325C67.0648 30.9489 67.467 31.3512 68.4817 31.3512H73.906C76.9244 31.3512 78.4668 32.9863 78.4668 35.175C78.4668 38.567 74.5222 39.9843 70.3009 39.9843C66.5408 39.9843 63.3379 39.0283 63.3379 36.5C63.3379 35.1122 64.4486 34.1268 66.05 33.9127C64.8176 33.5104 64.1718 32.5249 64.1718 31.4176C64.1718 30.1848 65.0353 29.2584 66.36 28.738C65.1903 27.937 64.4818 26.7338 64.4818 25.2537C64.4818 22.3563 67.039 20.5994 70.6146 20.5994C72.2787 20.5994 73.8175 21.0313 74.9281 21.8027C75.6994 20.7249 77.0536 19.8613 78.5332 19.8613V22.8214C77.7952 22.8214 76.8986 22.9432 76.1901 23.1905C76.5591 23.7774 76.7768 24.486 76.7768 25.2537C76.7694 28.0884 74.1828 29.8416 70.6072 29.8416ZM70.3009 37.7328C73.013 37.7328 74.9835 37.1164 74.9835 35.7914C74.9835 34.8982 74.2455 34.5586 73.013 34.5586H68.4817C67.4965 34.5586 66.6958 34.9609 66.6958 35.9464C66.6958 37.1792 68.1127 37.7328 70.3009 37.7328ZM70.6404 22.8472C69.2529 22.8472 68.2972 23.6777 68.2972 25.25C68.2972 26.8224 69.2529 27.6528 70.6404 27.6528C72.0573 27.6528 73.013 26.8224 73.013 25.25C73.013 23.6777 72.0573 22.8472 70.6404 22.8472Z" fill="white"/>
<path d="M92.5229 30.1223C91.8144 33.1415 89.4712 34.9316 85.9916 34.9316C81.7997 34.9316 78.7812 32.2483 78.7812 27.9668C78.7812 23.6816 81.833 20.5996 85.8993 20.5996C90.3384 20.5996 92.6188 23.6816 92.6188 27.3799V28.705H82.4197C82.5414 30.7091 84.1134 32.1265 86.117 32.1265C87.9362 32.1265 89.0137 31.3551 89.5376 29.8159L92.5229 30.1223ZM89.01 26.3907C88.8882 24.8184 87.9325 23.3088 85.8661 23.3088C83.8329 23.3088 82.8145 24.6966 82.475 26.3907H89.01Z" fill="white"/>
<path d="M97.7696 15.1406V34.5587H94.0723V15.1406H97.7696Z" fill="white"/>
<path d="M103.935 15.1406V31.355H111.245V34.5624H100.083V15.1406H103.935Z" fill="white"/>
<path d="M112.112 15.1406H115.902V18.7467H112.112V15.1406ZM115.872 20.965V34.5587H112.175V20.965H115.872Z" fill="white"/>
<path d="M120.272 29.9377C120.486 31.5728 121.722 32.4033 123.6 32.4033C124.955 32.4033 126.065 31.9419 126.065 30.9564C126.065 30.03 125.449 29.6314 124.095 29.4136L121.936 29.0445C119.04 28.5832 117.438 27.5017 117.438 24.9771C117.438 22.3861 119.626 20.5996 123.076 20.5996C126.837 20.5996 129.087 22.2938 129.331 25.3167L126.279 25.4385C126.032 23.8993 124.984 23.1279 123.043 23.1279C121.718 23.1279 120.855 23.7148 120.855 24.6375C120.855 25.3757 121.349 25.8076 122.335 25.9626L124.921 26.3944C127.789 26.8558 129.482 28.059 129.482 30.6169C129.482 33.3925 127.08 34.9316 123.567 34.9316C120.025 34.9316 117.313 33.3888 117.065 30.0632L120.272 29.9377Z" fill="white"/>
<path d="M131.47 23.5572H129.529V21.3685L130.452 21.2135C131.776 20.9994 132.145 20.3202 132.455 19.0543L132.887 17.2051H135.138V20.9662H138.835V23.5535H135.138V30.2747C135.138 31.4448 135.662 31.9689 136.773 31.9689C137.511 31.9689 138.282 31.6921 139.083 31.323V33.759C138.097 34.4972 136.987 34.929 135.323 34.929C133.227 34.929 131.47 34.0063 131.47 31.1052V23.5572Z" fill="white"/>
</svg>
