<svg width="122" height="50" viewBox="0 0 122 50" fill="none" xmlns="http://www.w3.org/2000/svg">
<g>
<path d="M48.0191 17.7109V20.5649H40.3271V23.6834H47.4087V26.5578H40.3271V32.5557H36.6287V17.7109H48.0191Z" fill="white"/>
<path d="M51.0409 17.6934H54.2357V20.2116H51.0409V17.6934ZM51.0409 21.5597H54.2357V32.5534H51.0409V21.5597Z" fill="white"/>
<path d="M56.525 21.5766H59.9335C61.2817 26.4553 61.5106 27.4524 61.8667 29.5484C62.3093 27.1116 62.3754 26.8419 63.0266 24.2525L63.6981 21.5664H67.0201L63.459 32.5397H60.081L56.525 21.5766Z" fill="white"/>
<path d="M79.2803 29.7538C78.9055 30.353 78.4596 30.9047 77.9525 31.397C76.8175 32.4189 75.3386 32.9748 73.8115 32.9537C70.5505 32.9537 68.2612 30.8527 68.2612 27.2763C68.2612 24.6258 69.5636 21.2173 73.8929 21.2173C74.6247 21.195 75.3533 21.3235 76.0333 21.5948C76.7133 21.8661 77.3303 22.2744 77.8457 22.7944C79.2803 24.3206 79.3719 26.4776 79.4024 27.7138H71.568C71.568 29.0823 72.3209 30.4457 74.0811 30.4457C75.8413 30.4457 76.4569 29.2858 76.8588 28.5125L79.2803 29.7538ZM76.0601 25.684C76.0336 25.112 75.819 24.5648 75.4496 24.1273C75.022 23.7291 74.4567 23.5121 73.8725 23.5219C73.5649 23.5199 73.2603 23.5823 72.9782 23.7049C72.6961 23.8276 72.4428 24.0078 72.2344 24.2341C71.8847 24.6461 71.6589 25.1488 71.5833 25.684H76.0601Z" fill="white"/>
<path d="M82.6076 18.4062H85.8279V21.8351H87.9493V23.809H85.8075V28.7742C85.8075 29.4457 85.8075 30.0307 86.6469 30.0307L87.8068 29.99V32.5083C87.2442 32.6097 86.6743 32.6659 86.1026 32.6761C84.9834 32.6761 83.7675 32.6151 83.0502 31.6027C82.6076 30.9515 82.5873 30.1732 82.5873 29.1252V23.7886H80.9899V21.8097H82.5873L82.6076 18.4062Z" fill="white"/>
<path d="M93.7691 22.7117C94.6509 21.9396 95.7723 21.4958 96.9437 21.4551V24.3243L95.8753 24.4922C94.3186 24.7618 93.8404 25.0009 93.8404 26.3847V32.5505H90.6201V21.5568H93.7742L93.7691 22.7117Z" fill="white"/>
<path d="M99.2839 24.6991C99.2775 24.2312 99.3787 23.7681 99.5799 23.3455C99.781 22.923 100.077 22.5524 100.444 22.2623C101.461 21.4687 102.753 21.3008 104.041 21.3008C105.328 21.3008 108.655 21.6111 108.655 24.4498V30.8039C108.655 31.9841 108.716 32.152 108.97 32.5285H105.816V31.511C104.977 32.1215 104.071 32.8184 102.458 32.8184C99.9452 32.8184 98.8667 31.0073 98.8667 29.4608C98.8667 27.6955 100.276 26.6882 101.176 26.3118C102.59 25.8581 104.038 25.5179 105.506 25.2943V24.7042C105.465 24.1955 105.424 23.356 104.249 23.356C102.82 23.356 102.626 24.2412 102.545 24.6431L99.2839 24.6991ZM103.384 28.0058C102.84 28.2144 101.995 28.5146 101.995 29.3692C102.013 29.6796 102.151 29.9708 102.382 30.1794C102.612 30.388 102.916 30.4972 103.227 30.4834C103.624 30.4711 104.01 30.3477 104.341 30.1272C105.409 29.4557 105.455 28.4484 105.48 27.3089L103.384 28.0058Z" fill="white"/>
<path d="M115.594 22.5653C115.892 22.2009 116.267 21.9072 116.692 21.7055C117.324 21.4403 118.001 21.2987 118.687 21.2883C119.365 21.2718 120.038 21.422 120.645 21.7259C121.8 22.3363 122.095 23.3233 122.095 25.0275V32.5516H118.88V26.3706C118.935 25.8201 118.885 25.2641 118.732 24.7325C118.605 24.4616 118.398 24.236 118.139 24.086C117.88 23.936 117.581 23.8687 117.283 23.893C115.578 23.893 115.578 25.2615 115.578 26.6249V32.5516H112.353V21.5987H115.614L115.594 22.5653Z" fill="white"/>
<path d="M16.8848 25.017H20.2984C20.4333 25.017 20.5627 24.9634 20.6581 24.868C20.7535 24.7726 20.8071 24.6432 20.8071 24.5083C20.8069 24.4385 20.793 24.3693 20.7664 24.3048L14.8957 8.32558C14.8594 8.23156 14.7961 8.15043 14.7137 8.09247C14.6312 8.0345 14.5335 8.00232 14.4327 8H11.009C10.8741 8 10.7447 8.05359 10.6493 8.149C10.5538 8.2444 10.5002 8.37381 10.5002 8.50873C10.5003 8.56772 10.5106 8.62625 10.5308 8.6817L16.4066 24.7016C16.4454 24.7961 16.5118 24.8768 16.5971 24.933C16.6824 24.9893 16.7826 25.0185 16.8848 25.017V25.017Z" fill="white"/>
<path d="M16.2794 41.9961H19.693C19.8279 41.9961 19.9573 41.9425 20.0527 41.847C20.1481 41.7516 20.2017 41.6223 20.2017 41.4873C20.2016 41.4283 20.1913 41.3698 20.1712 41.3143L8.06848 8.33339C8.0319 8.23858 7.9678 8.15691 7.88438 8.09888C7.80096 8.04085 7.70206 8.00913 7.60045 8.00781H4.19196C4.05703 8.00781 3.92764 8.0614 3.83224 8.15681C3.73683 8.25221 3.68323 8.38162 3.68323 8.51654C3.6833 8.57553 3.69362 8.63406 3.71375 8.68951L15.8165 41.6756C15.8535 41.7686 15.9172 41.8487 15.9995 41.9057C16.0819 41.9627 16.1792 41.9941 16.2794 41.9961Z" fill="white"/>
<path d="M9.55397 41.9982H12.9624C13.0906 41.9986 13.2142 41.9507 13.3085 41.8639C13.4028 41.7771 13.4609 41.6579 13.4712 41.5302C13.471 41.4629 13.4607 41.396 13.4406 41.3318L7.54957 25.3373C7.51332 25.2433 7.44997 25.1622 7.36755 25.1042C7.28514 25.0462 7.18734 25.014 7.08661 25.0117H3.65777C3.52821 25.0195 3.40652 25.0765 3.31762 25.1711C3.22872 25.2657 3.17933 25.3907 3.17957 25.5204C3.17941 25.5762 3.18976 25.6314 3.21009 25.6832L9.07576 41.6828C9.11458 41.7773 9.18093 41.858 9.26622 41.9142C9.35152 41.9705 9.4518 41.9997 9.55397 41.9982Z" fill="white"/>
<path d="M17.2969 8.6946L20.0491 16.178C20.0854 16.272 20.1487 16.3532 20.2311 16.4111C20.3135 16.4691 20.4113 16.5013 20.5121 16.5036H23.9104C24.0453 16.5036 24.1747 16.45 24.2701 16.3546C24.3655 16.2592 24.4191 16.1298 24.4191 15.9949C24.419 15.9359 24.4087 15.8773 24.3886 15.8219L21.6364 8.33339C21.6001 8.23938 21.5368 8.15825 21.4544 8.10028C21.3719 8.04232 21.2742 8.01014 21.1734 8.00781H17.7598C17.6249 8.00781 17.4955 8.0614 17.4001 8.15681C17.3047 8.25221 17.2511 8.38162 17.2511 8.51654C17.2554 8.57818 17.2709 8.63852 17.2969 8.6946V8.6946Z" fill="white"/>
<path d="M3.26095 41.9993H6.66944C6.80437 41.9993 6.93376 41.9457 7.02916 41.8503C7.12457 41.7549 7.17817 41.6255 7.17817 41.4906C7.1781 41.4316 7.16778 41.3731 7.14765 41.3176L4.38016 33.8138C4.34358 33.719 4.27948 33.6374 4.19606 33.5794C4.11264 33.5213 4.01374 33.4896 3.91213 33.4883H0.50873C0.373806 33.4883 0.244416 33.5419 0.149011 33.6373C0.0536056 33.7327 0 33.8621 0 33.997C0.000186156 34.0576 0.0105016 34.1178 0.0305226 34.1751L2.78274 41.6788C2.82075 41.7743 2.88682 41.856 2.97218 41.9132C3.05754 41.9704 3.15819 42.0004 3.26095 41.9993V41.9993Z" fill="white"/>
</g>
</svg>
