<svg width="120" height="50" viewBox="0 0 120 50" fill="none" xmlns="http://www.w3.org/2000/svg">
<path d="M22.3929 18.0477C21.6011 13.9883 18.8818 11.0448 13.976 11.0001H13.7618C8.16393 11.0349 4.01034 13.8438 1.80869 18.0477C0.592399 20.4212 -0.0280018 23.0554 0.000970033 25.7227C0.000970033 31.1166 2.98921 34.513 6.81912 35.4644C7.56199 35.6485 8.32492 35.7405 9.09018 35.7381C9.92835 35.7478 10.7645 35.6553 11.5805 35.4644C13.0897 35.1239 14.4394 34.2829 15.4104 33.0786V35.2202C15.4077 35.2518 15.4077 35.2833 15.4104 35.3151C15.4488 35.4006 15.5313 35.4581 15.6247 35.4645H18.9367C18.9768 35.4598 19.0158 35.4483 19.0513 35.4293C19.1067 35.3944 19.1461 35.3387 19.1609 35.2751L21.4468 23.5808C21.4493 23.5596 21.4493 23.538 21.4468 23.5162C21.4468 23.3784 21.3355 23.2671 21.1979 23.2671H12.8855C12.7698 23.2633 12.6666 23.3397 12.6364 23.4515L12.009 26.6188V26.664C12.0036 26.6966 12.0036 26.7308 12.009 26.7636C12.0475 26.855 12.1385 26.9144 12.2381 26.9128H16.4316C15.5301 29.4031 13.4434 31.5798 10.1063 31.5798C6.76956 31.5798 4.66767 29.174 4.66767 25.0653C4.62342 22.5251 5.45341 20.0476 7.01864 18.0477C8.4736 16.2125 10.6883 15.1449 13.0298 15.1488C15.3557 15.1488 16.7105 16.2097 17.6169 18.0477C17.851 18.53 18.049 19.0297 18.2095 19.5417C18.2476 19.6346 18.338 19.6954 18.4385 19.6959H18.5084L22.2687 18.6998C22.2939 18.6955 22.3178 18.6847 22.3384 18.6701C22.4131 18.6244 22.4585 18.5432 22.458 18.4561V18.4164C22.458 18.2966 22.4131 18.1721 22.3882 18.0525L22.3929 18.0477ZM31.602 11.2492C31.602 11.1114 31.4903 11 31.353 11H27.5379C27.4165 11.0011 27.3135 11.0896 27.294 11.2091L25.9691 18.0476L22.6572 35.1601V35.2151C22.6497 35.2462 22.6497 35.2787 22.6572 35.3101C22.6954 35.4024 22.7856 35.4637 22.8863 35.4643H26.6963C26.8108 35.4675 26.9122 35.3906 26.9404 35.2798L30.2722 18.0477L31.582 11.289V11.2492H31.602ZM43.5152 18.0477C42.7746 17.8609 42.013 17.7693 41.2492 17.7732C40.3353 17.7627 39.423 17.854 38.5298 18.0477C36.8588 18.4479 35.3349 19.3113 34.1321 20.538C32.0601 22.5301 31.1438 25.1001 31.1438 28.3821C31.1438 31.7889 33.1109 34.5974 36.4778 35.4644C37.2204 35.6506 37.9834 35.7429 38.7489 35.7381C39.681 35.7556 40.6118 35.6632 41.5229 35.4644C43.1923 35.0643 44.7151 34.2011 45.9155 32.9741C47.9876 30.9819 48.9038 28.4173 48.9038 25.1347C48.9038 21.7226 46.9115 18.909 43.5698 18.0477H43.5152ZM42.9872 30.2098C42.0954 31.4268 40.6604 32.1261 39.1523 32.0776C37.1151 32.0776 35.7655 30.419 35.7655 27.7244C35.7655 25.8568 36.1789 24.4075 37.0453 23.302C37.9428 22.0943 39.3767 21.4046 40.8804 21.4591C42.9173 21.4591 44.2671 23.1176 44.2671 25.8121C44.2671 27.6799 43.8487 29.1292 42.9871 30.2348L42.9872 30.2098ZM63.183 20.5522C62.6007 19.4172 61.2855 18.4908 59.7616 18.062C59.1402 17.8807 58.4961 17.7888 57.8489 17.7882C57.103 17.7821 56.3595 17.8745 55.6376 18.062C53.2884 18.5728 51.6523 20.7059 51.7678 23.1077C51.7678 25.4235 53.2917 26.7731 55.3289 27.739C57.3658 28.7054 58.3171 29.2935 58.3171 30.2944C58.3171 31.5395 57.2762 32.0922 56.1058 32.0922C54.4574 32.0922 53.2817 31.0959 52.7889 29.3781C52.7516 29.2773 52.6568 29.2104 52.5498 29.2088C52.5185 29.2039 52.4866 29.2039 52.4553 29.2088L49.2474 30.5435C49.1546 30.5814 49.0938 30.6717 49.0935 30.7725V30.8118C49.6349 33.0482 51.3347 34.8224 53.546 35.4587C54.2187 35.6455 54.9142 35.7373 55.6126 35.733C56.436 35.7396 57.2569 35.6472 58.0582 35.4587C60.6979 34.8065 62.4553 32.9684 62.4553 29.6864C62.4553 27.271 60.6578 26.096 58.8648 25.2642C57.6895 24.7108 55.8766 24.1933 55.8766 22.983C55.8671 22.13 56.5506 21.4316 57.4032 21.4218C57.4589 21.4207 57.5148 21.4236 57.5702 21.4285C58.5772 21.429 59.5211 21.9198 60.1 22.7437C60.1476 22.8061 60.2211 22.8425 60.2992 22.843C60.3449 22.842 60.3891 22.83 60.4291 22.8087L63.1133 20.8762C63.2083 20.8062 63.2364 20.6753 63.1783 20.5727L63.183 20.5522ZM73.9958 18.0477C73.374 17.8665 72.7303 17.7742 72.0829 17.7732C71.3358 17.7675 70.5907 17.8599 69.8671 18.0477C67.5194 18.5604 65.8858 20.6928 66.0023 23.0923C66.0023 25.4085 67.4965 26.7585 69.5629 27.7244C71.5303 28.656 72.5513 29.2785 72.5513 30.2793C72.5513 31.5244 71.5159 32.0775 70.3397 32.0775C68.6916 32.0775 67.5108 31.0813 67.0177 29.3528C66.9829 29.2577 66.8915 29.1932 66.7893 29.1932C66.7561 29.1865 66.7221 29.1865 66.6888 29.1932L63.4868 30.5235C63.395 30.562 63.3359 30.6528 63.3376 30.7526C63.335 30.769 63.335 30.7858 63.3376 30.8021C63.8815 33.0337 65.5778 34.8025 67.7854 35.4393C68.4597 35.625 69.157 35.7168 69.8574 35.713C70.6783 35.7204 71.4979 35.6278 72.2974 35.4393C74.9369 34.7867 76.7 32.949 76.7 29.667C76.7 27.2511 74.902 26.0756 73.1039 25.2438C71.9284 24.6914 70.116 24.1734 70.116 22.9625C70.1062 22.1104 70.7903 21.4111 71.642 21.4019C71.6979 21.4013 71.7539 21.4034 71.8093 21.4093C72.8134 21.4097 73.7551 21.898 74.3339 22.7185C74.3806 22.7855 74.4571 22.8244 74.5387 22.8234C74.5838 22.8216 74.628 22.8098 74.668 22.7886L77.3825 20.8561C77.4359 20.8054 77.4667 20.7354 77.4672 20.6621C77.4672 20.6242 77.4585 20.5862 77.442 20.552C76.8597 19.4121 75.545 18.4851 74.0205 18.0618L73.9958 18.0477ZM85.1616 18.0477H81.3664C81.2567 18.0491 81.1602 18.1216 81.1273 18.2266L77.8406 35.1603C77.8376 35.1789 77.8376 35.1974 77.8406 35.2153C77.8354 35.2469 77.8354 35.2784 77.8406 35.3103C77.8796 35.4021 77.97 35.4624 78.0695 35.4645H81.8647C81.9099 35.4629 81.954 35.4511 81.994 35.4293C82.0493 35.3961 82.089 35.3423 82.1039 35.28L85.4008 18.3161C85.3982 18.1798 85.2883 18.0701 85.1519 18.0669L85.1616 18.0477ZM98.6037 18.0477C97.8838 17.8599 97.1418 17.7675 96.3977 17.7732C95.5598 17.7719 94.7243 17.8638 93.9075 18.0477C89.2646 19.1079 85.996 23.2712 86.0678 28.0333C86.0678 32.0179 88.2005 34.6476 91.3229 35.4643C92.0433 35.6508 92.7847 35.7428 93.5289 35.7379C94.3985 35.7462 95.2652 35.6543 96.1134 35.4643C98.5395 34.9013 100.307 33.4721 101.951 31.0862C102.02 30.9692 101.982 30.8188 101.866 30.7478L98.8783 29.1986C98.8468 29.1828 98.8131 29.1743 98.7782 29.1737C98.7043 29.1759 98.635 29.2105 98.5894 29.2682C97.3395 31.0665 95.9098 32.0776 93.9327 32.0776C91.6518 32.0776 90.4064 30.4887 90.4064 28.6905V28.1381H102.728C102.773 28.1365 102.817 28.1245 102.858 28.103C102.909 28.0708 102.948 28.0213 102.967 27.9638C103.252 26.9163 103.397 25.8364 103.4 24.7509C103.4 21.534 101.756 18.8842 98.6242 18.0477H98.6037ZM91.2129 24.7508C91.9432 22.81 93.7719 21.5008 95.845 21.4341C98.0212 21.4341 99.0223 22.5748 99.1619 24.7508H91.2129ZM117.326 21.9571C117.362 21.9776 117.403 21.9879 117.445 21.9873C117.491 21.9884 117.535 21.9756 117.575 21.9521C117.619 21.9234 117.654 21.8816 117.674 21.8326L118.944 18.4708C118.949 18.4376 118.949 18.4041 118.944 18.3711C118.942 18.2715 118.882 18.1814 118.79 18.1419L118.556 18.0573C117.982 17.8546 117.376 17.7617 116.768 17.7835C116.136 17.7807 115.508 17.873 114.905 18.0573C113.468 18.5311 112.212 19.4376 111.309 20.6521L111.762 18.3662C111.801 18.2401 111.73 18.106 111.603 18.0675C111.578 18.0599 111.551 18.0565 111.523 18.0573H107.713C107.593 18.0578 107.491 18.144 107.469 18.2618L104.177 35.1952C104.175 35.2083 104.175 35.2219 104.177 35.2352C104.17 35.2663 104.17 35.2984 104.177 35.3295C104.215 35.4229 104.306 35.4837 104.406 35.4842H108.261C108.306 35.4828 108.351 35.4705 108.391 35.4493C108.446 35.4142 108.486 35.3587 108.5 35.2946L109.675 29.3182C110.712 23.8396 113.66 21.6483 115.826 21.6483C116.344 21.6382 116.855 21.7509 117.32 21.9773L117.326 21.9571ZM84.0261 11.2689C82.6705 11.2689 81.5712 12.3683 81.5712 13.7247C81.5712 15.0807 82.6704 16.1799 84.0261 16.1799C85.3822 16.1799 86.4814 15.0808 86.4814 13.7247C86.5097 12.396 85.4552 11.2966 84.1267 11.2689C84.0933 11.2684 84.0599 11.2684 84.0261 11.2689ZM117.55 30.8918C116.188 30.8977 115.089 32.0061 115.095 33.3675C115.098 34.2248 115.547 35.0192 116.28 35.4644C117.066 35.9092 118.028 35.9092 118.814 35.4644C119.978 34.757 120.348 33.2404 119.641 32.0772C119.197 31.3461 118.405 30.8976 117.55 30.8918Z" fill="white"/>
</svg>
