<svg width="126" height="50" viewBox="0 0 126 50" fill="none" xmlns="http://www.w3.org/2000/svg">
<g>
<path d="M9.15453 33.5129H12.71V23.9104C12.71 21.2788 11.2822 19.6551 8.31467 19.6551C6.10302 19.6551 4.42329 20.7189 3.55543 21.7548V14.8399H0V33.5129H3.55543V24.4143C4.17133 23.6025 5.26316 22.8186 6.63494 22.8186C8.17469 22.8186 9.15453 23.4065 9.15453 25.2822V33.5129ZM18.0025 18.2553C18.5668 18.2553 19.108 18.0312 19.507 17.6321C19.906 17.2331 20.1302 16.692 20.1302 16.1277C20.1302 15.5634 19.906 15.0222 19.507 14.6232C19.108 14.2242 18.5668 14 18.0025 14C16.8547 14 15.8749 14.9518 15.8749 16.1277C15.8749 17.3035 16.8547 18.2553 18.0025 18.2553ZM16.2388 33.5129H19.7942V19.991H16.2388V33.5129ZM23.0403 36.9843C24.748 38.4681 26.5398 39 28.8634 39C32.1948 39 36.1702 37.7402 36.1702 32.589V19.991H32.5868V21.7268C31.495 20.355 30.0392 19.6551 28.4155 19.6551C25 19.6551 22.4524 22.1187 22.4524 26.542C22.4524 31.0493 25.028 33.4289 28.4155 33.4289C30.0672 33.4289 31.523 32.645 32.5868 31.3012V32.673C32.5868 35.3326 30.5711 36.0885 28.8634 36.0885C27.1557 36.0885 25.7279 35.6125 24.6361 34.4087L23.0403 36.9843V36.9843ZM32.5868 28.7256C31.9989 29.5935 30.7111 30.2654 29.5353 30.2654C27.5196 30.2654 26.1198 28.8656 26.1198 26.542C26.1198 24.2184 27.5196 22.8186 29.5353 22.8186C30.7111 22.8186 31.9989 23.4625 32.5868 24.3583V28.7256V28.7256ZM48.8522 33.5129H52.4076V23.9104C52.4076 21.2788 50.9798 19.6551 48.0123 19.6551C45.8007 19.6551 44.1209 20.7189 43.2531 21.7548V14.8399H39.6976V33.5129H43.2531V24.4143C43.869 23.6025 44.9608 22.8186 46.3326 22.8186C47.8723 22.8186 48.8522 23.4065 48.8522 25.2822V33.5129ZM60.4703 33.8488C61.9541 33.8488 62.9059 33.4569 63.4379 32.981L62.682 30.2934C62.486 30.4894 61.9821 30.6853 61.4502 30.6853C60.6663 30.6853 60.2184 30.0414 60.2184 29.2016V23.0985H62.9619V19.991H60.2184V16.2956H56.6349V19.991H54.3953V23.0985H56.6349V30.1534C56.6349 32.561 57.9787 33.8488 60.4703 33.8488V33.8488ZM71.6671 33.8488C76.1464 33.8488 78.834 30.6013 78.834 26.738C78.834 22.9026 76.1464 19.6551 71.6671 19.6551C67.2158 19.6551 64.5283 22.9026 64.5283 26.738C64.5283 30.6013 67.2158 33.8488 71.6671 33.8488ZM71.6671 30.6853C69.4555 30.6853 68.2237 28.8656 68.2237 26.738C68.2237 24.6383 69.4555 22.8186 71.6671 22.8186C73.8788 22.8186 75.1386 24.6383 75.1386 26.738C75.1386 28.8656 73.8788 30.6853 71.6671 30.6853ZM90.5977 33.5129H94.1531V19.991H90.5977V29.1456C89.9818 29.9295 88.89 30.6853 87.5182 30.6853C86.0064 30.6853 85.0266 30.0694 85.0266 28.1937V19.991H81.4712V29.5935C81.4712 32.2251 82.8709 33.8488 85.8385 33.8488C88.0501 33.8488 89.6738 32.841 90.5977 31.8051V33.5129ZM96.8155 26.738C96.8155 30.9093 99.811 33.8488 103.982 33.8488C106.754 33.8488 108.434 32.645 109.329 31.3852L107.006 29.2296C106.362 30.1254 105.382 30.6853 104.15 30.6853C101.995 30.6853 100.483 29.0896 100.483 26.738C100.483 24.3863 101.995 22.8186 104.15 22.8186C105.382 22.8186 106.362 23.3225 107.006 24.2744L109.329 22.0907C108.434 20.8589 106.754 19.6551 103.982 19.6551C99.811 19.6551 96.8155 22.5946 96.8155 26.738ZM120.808 33.5129H124.363V23.9104C124.363 21.2788 122.935 19.6551 119.968 19.6551C117.756 19.6551 116.076 20.7189 115.209 21.7548V14.8399H111.653V33.5129H115.209V24.4143C115.824 23.6025 116.916 22.8186 118.288 22.8186C119.828 22.8186 120.808 23.4065 120.808 25.2822V33.5129Z" fill="white"/>
</g>
</svg>
