<svg width="112" height="50" viewBox="0 0 112 50" fill="none" xmlns="http://www.w3.org/2000/svg">
<path d="M111.299 36.6609C110.759 36.9733 110.028 37.0436 109.393 36.9195C108.259 36.6982 107.612 35.852 107.612 34.4059C107.612 32.9515 107.941 29.0477 107.941 26.9995C107.941 24.6183 106.706 23.1743 104.573 23.1743C103.962 23.1743 103.594 23.2963 103.398 23.406C103.309 23.4556 103.278 23.5673 103.329 23.6542C103.526 23.977 103.996 24.9162 103.996 26.4699C103.996 26.863 104.01 27.856 103.946 28.7125C103.503 34.6769 102.239 36.8947 100.332 36.8947C99.4483 36.8947 98.8939 36.5244 98.4636 35.7734C98.147 35.2231 97.965 34.2487 97.9505 32.9184C97.9339 31.5054 98.0001 31.0254 98.0208 27.1299C98.0208 27.1299 98.0415 23.5011 98.0581 20.2572C100.272 20.5386 102.212 20.7331 103.58 20.7331C106.435 20.7331 107.902 19.2042 107.902 17.485C107.902 16.0575 106.995 14.9859 105.274 14.9859C103.689 14.9859 102.847 16.1361 102.835 17.2719C102.831 17.636 102.924 18.0084 103.12 18.3229C101.616 18.2774 99.9035 18.0353 98.0705 17.6919C98.0767 16.3761 98.0829 15.4162 98.0829 15.2817C98.0829 12.9005 96.7733 11.6923 94.7748 11.6923C93.9266 11.6923 93.548 11.9302 93.4425 12.0357C93.4508 12.0461 93.4591 12.0564 93.4673 12.0688C93.697 12.3709 94.1728 13.0019 94.1728 14.7686C94.1728 14.8638 94.1645 15.71 94.1501 16.8809C89.5469 15.8713 84.6231 14.7045 80.5289 14.7045C75.5886 14.7045 74.2501 16.3699 73.857 17.7953C73.6542 18.5318 73.6004 19.2911 73.7039 19.6448C73.7225 19.709 73.7949 19.7359 73.8508 19.7007C74.3618 19.3842 76.5154 18.327 81.1082 18.327C84.3521 18.327 89.4228 19.0635 94.117 19.7214C94.0859 22.386 94.0528 25.15 94.0528 25.2596C94.0528 28.3277 93.6722 32.575 92.9191 34.4928C92.2612 36.1685 91.293 36.8657 90.2048 36.8657C88.9449 36.8657 88.3367 35.9534 88.287 33.9156C88.2498 32.3722 88.2994 30.5931 88.2994 29.7345C88.2994 28.3443 87.7615 27.6388 86.2182 27.6388C85.4713 27.6388 84.71 27.9057 84.4121 28.0712C84.3521 28.1043 84.3169 28.1684 84.3211 28.2367C84.4018 29.6642 84.2301 31.9585 83.6135 33.9797C83.1625 35.4569 82.2833 36.7147 81.0275 36.7147C79.6786 36.7147 78.5346 34.9666 78.5346 31.4165C78.5346 25.5182 80.6924 23.2218 83.2101 23.2218C85.0286 23.2218 85.8727 24.6762 86.3754 25.8513C86.4003 25.9092 86.4644 25.9423 86.5265 25.9258C87.354 25.6962 88.3863 25.0817 88.3863 23.9087C88.3863 22.1998 86.2823 20.7206 83.2432 20.7206C77.7877 20.7206 74.608 25.0941 74.608 31.6833C74.608 32.4571 74.6659 33.175 74.7714 33.837C73.7494 35.7175 72.6529 36.8388 71.3909 36.8388C70.4786 36.8388 69.8621 36.0754 69.8621 34.5962C69.8621 32.4033 70.5903 28.3629 70.5903 25.3817C70.5903 22.5412 69.2063 21.1468 66.8975 21.1468C65.9706 21.1468 65.1969 21.2109 64.3797 21.2503C64.419 20.7248 64.4397 20.2179 64.4397 19.7379C64.4397 18.4077 64.2059 17.2988 63.8232 16.6078C63.2977 15.6562 62.3605 15.0066 60.8979 15.0066C58.5001 15.0066 56.9216 16.6161 56.9216 19.0159C56.9216 21.5689 58.947 23.4246 61.4316 23.5735C60.331 29.2587 57.2298 36.8678 52.0185 36.8678C49.8814 36.8678 48.3608 35.6886 47.8415 32.9205C49.0228 32.7302 50.7979 32.3598 52.3081 31.6875C55.3783 30.322 56.7726 28.0981 56.7726 25.8493C56.7726 22.9488 54.5569 20.9875 51.3378 20.9875C46.6871 20.9875 43.4701 25.4541 43.4701 30.8558C43.4701 31.5902 43.528 32.2812 43.6397 32.9267C42.7915 34.8983 41.5813 36.843 40.1496 36.843C39.6552 36.843 39.1297 36.6464 38.8008 36.0548C38.5194 35.55 38.4305 34.8093 38.4305 33.6404C38.4305 31.2427 38.4698 26.865 38.4698 26.865C38.478 25.2907 38.4967 21.9681 38.5111 19.1566C40.5096 19.5973 42.5764 19.9366 44.6555 19.9366C49.0476 19.9366 50.2476 18.3436 50.6406 16.9181C50.8434 16.1816 50.7627 15.412 50.6593 15.0562C50.6406 14.9921 50.5641 14.961 50.5124 15.0003C49.7614 15.561 48.1622 16.4506 43.9666 16.4506C41.9537 16.4506 40.1703 16.3078 38.5277 16.1092C38.5318 15.1762 38.536 14.5493 38.536 14.4583C38.536 12.0771 37.2264 10.8689 35.2279 10.8689C34.3797 10.8689 33.999 11.1068 33.8935 11.2123C33.9018 11.2227 33.908 11.2309 33.9163 11.2434C34.1459 11.5454 34.6238 12.1764 34.6238 13.9452C34.6238 14.0073 34.6176 14.6197 34.6073 15.5403C32.4971 15.2093 30.5234 14.9135 28.4277 14.9135C25.5727 14.9135 24.1059 16.4382 24.1059 18.4573C24.1059 19.8848 25.0121 20.9565 26.7333 20.9565C28.318 20.9565 29.1601 19.8062 29.1725 18.6704C29.1787 18.0932 28.947 17.4974 28.438 17.1416C30.2752 17.154 32.3523 17.634 34.5783 18.1925C34.539 21.6475 34.4893 25.9465 34.4893 25.9465C34.4893 29.7428 33.9308 32.4778 33.1653 34.1287C32.3316 35.9306 31.3013 36.8885 30.2834 36.8885C29.3711 36.8885 28.7153 36.2472 28.7153 34.801C28.7153 32.3681 29.1414 29.3394 29.1414 26.9643C29.1414 24.1735 27.5857 23.1681 25.5872 23.1681C25.041 23.1681 24.6893 23.2674 24.4783 23.3646C24.4499 23.3777 24.4248 23.397 24.4048 23.4212C24.3848 23.4453 24.3706 23.4736 24.363 23.504C24.3555 23.5344 24.3548 23.5661 24.3612 23.5967C24.3675 23.6274 24.3807 23.6562 24.3997 23.6811C24.6583 24.0266 25.1672 24.939 25.1672 26.7844C25.1672 29.3973 24.7266 32.4136 24.7266 34.8776C24.7266 37.8464 26.7126 39.7186 29.4497 39.7C31.4109 39.6855 33.3039 38.7959 34.8679 35.9596C35.352 38.1546 36.8561 39.7 39.3594 39.7C41.9268 39.7 43.528 38.1215 44.7011 35.9389C46.1554 38.4567 48.7373 39.7352 51.5799 39.7352C56.1168 39.7352 58.9511 36.8513 60.9889 32.8688C62.6047 29.7097 63.606 26.4575 64.0901 23.588H64.7852C66.1899 23.588 66.6864 24.3204 66.6864 26.0417C66.6864 28.5346 65.77 31.3958 65.77 34.4949C65.77 38.0532 67.816 39.7497 70.4041 39.7497C72.5743 39.7497 74.3121 38.6118 75.6775 36.6837C76.7264 38.6739 78.4394 39.6876 80.3303 39.6876C82.3888 39.6876 84.2859 38.5829 85.4341 35.37C85.5582 36.2534 85.8272 36.9588 86.1996 37.5774C87.0871 39.0566 88.5022 39.6876 89.8345 39.6876C91.5102 39.6876 93.6018 38.9863 94.8638 35.5624C95.5258 38.0987 97.1085 39.698 99.7007 39.698C101.587 39.698 103.011 38.7835 104.078 36.9444C104.294 37.5588 104.575 38.0015 104.85 38.347C105.595 39.2801 106.797 39.698 108.079 39.698C109.739 39.698 111.241 38.8415 111.634 36.9671C111.698 36.6816 111.536 36.5244 111.299 36.6609ZM51.2034 23.377C52.4902 23.377 53.0012 24.4259 53.0012 25.5741C53.0012 27.6326 51.8985 29.2711 49.7242 30.1462C49.0518 30.4172 48.2594 30.5248 47.6471 30.5662V30.562C47.6471 26.2878 49.1842 23.377 51.2034 23.377ZM59.6628 18.9042C59.6628 18.0167 60.1303 17.4995 60.722 17.4995C61.5102 17.4995 62.0212 18.4801 61.8392 20.7372C61.8268 20.882 61.8123 21.031 61.7978 21.182C60.5979 20.9523 59.6628 20.2241 59.6628 18.9042ZM22.3764 33.8639C21.5509 34.8135 19.929 35.7941 17.1671 35.7941C14.6886 35.7941 12.4233 35.0328 10.2386 34.3273C10.3193 33.8494 10.3607 33.3632 10.3607 32.875C10.3607 27.8084 7.87394 24.2604 7.87394 18.3167C7.87394 14.7893 9.95518 12.3481 12.7439 12.3481C15.6031 12.3481 17.194 14.7624 17.194 18.3208C17.194 20.7082 16.4947 23.5756 14.7383 26.0251C14.5955 26.2237 14.699 26.4265 14.9431 26.3954C19.3538 25.841 21.5985 22.2123 21.5985 18.3208C21.5985 13.5749 17.9677 10 13.0998 10C7.60706 10 3.52321 14.1045 3.52321 19.6842C3.52321 25.0796 6.22302 29.0021 6.73816 33.357C6.05338 33.2267 5.37066 33.1481 4.68381 33.1481C1.77505 33.1481 0 34.7866 0 36.7954C0 38.5704 1.43163 40 4.13971 40C6.68023 40 8.48424 38.6035 9.47521 36.6754C12.2081 37.9932 15.3052 39.8242 18.5635 39.8242C21.0668 39.8242 22.6722 38.5477 22.9432 36.2554C23.055 35.312 22.9288 34.288 22.8315 33.9011C22.7715 33.6549 22.5233 33.6942 22.3764 33.8639ZM4.12316 37.6333C2.35225 37.6333 2.30467 35.3493 5.24033 35.3493C5.71823 35.3493 6.21681 35.4341 6.73609 35.5748C6.47748 36.7706 5.6272 37.6333 4.12316 37.6333Z" fill="white"/>
</svg>
    