<svg width="100" height="50" viewBox="0 0 100 50" fill="none" xmlns="http://www.w3.org/2000/svg">
<path d="M38.1207 35.9695V14.0234H42.1499V35.9695H38.1207Z" fill="white"/>
<path d="M76.7666 21.0589H80.6143V22.8784C81.432 21.4235 83.3415 20.6348 84.977 20.6348C87.0078 20.6348 88.6433 21.5142 89.4005 23.1203C90.5813 21.3008 92.1581 20.6348 94.1273 20.6348C96.884 20.6348 99.5197 22.3021 99.5197 26.3028V35.9727H95.6116V27.1219C95.6116 25.515 94.8232 24.303 92.975 24.303C91.2477 24.303 90.2174 25.6368 90.2174 27.2438V35.9736H86.2194V27.1219C86.2194 25.515 85.4015 24.303 83.5828 24.303C81.8253 24.303 80.7949 25.6066 80.7949 27.2438V35.9736H76.7666V21.0589Z" fill="white"/>
<path d="M51.2558 36.4063C46.7167 36.4063 43.4297 33.0396 43.4297 28.5177C43.4297 24.0679 46.7061 20.6211 51.2558 20.6211C55.8277 20.6211 59.0819 24.0999 59.0819 28.5177C59.0819 33.0067 55.7931 36.4063 51.2558 36.4063ZM51.2558 24.2715C48.9147 24.2715 47.0103 26.1762 47.0103 28.5187C47.0103 30.8609 48.9147 32.7657 51.2558 32.7657C53.597 32.7657 55.5004 30.8609 55.5004 28.5187C55.5004 26.1762 53.597 24.2715 51.2558 24.2715Z" fill="white"/>
<path d="M67.6887 36.4063C63.1495 36.4063 59.8625 33.0396 59.8625 28.5177C59.8625 24.0679 63.1389 20.6211 67.6887 20.6211C72.2606 20.6211 75.5148 24.0999 75.5148 28.5177C75.5148 33.0067 72.2242 36.4063 67.6887 36.4063ZM67.6887 24.2208C65.3208 24.2208 63.3943 26.1487 63.3943 28.5168C63.3943 30.885 65.3208 32.8129 67.6887 32.8129C70.0564 32.8129 71.9831 30.885 71.9831 28.5168C71.9821 26.1487 70.0556 24.2208 67.6887 24.2208Z" fill="white"/>
<path d="M30 23.3319H21.2276L28.8249 18.9455L27.1565 16.0549L19.5592 20.4412L23.9445 12.8445L21.0538 11.1751L16.6685 18.7718V10H13.3315V18.7726L8.94445 11.1751L6.05473 12.8436L10.4409 20.4404L2.84355 16.0549L1.17502 18.9447L8.77239 23.331H0V26.6682H8.77155L1.17502 31.0545L2.84355 33.9451L10.4401 29.5596L6.05389 37.1563L8.94445 38.8249L13.3306 31.2274V40H16.6677V31.2282L21.0531 38.8249L23.9435 37.1563L19.5574 29.5588L27.1548 33.9451L28.8233 31.0545L21.2268 26.669H29.9983V23.3319H30ZM15 29.5386C12.4838 29.5386 10.4443 27.4991 10.4443 24.9828C10.4443 22.4665 12.4838 20.4269 15 20.4269C17.5162 20.4269 19.5557 22.4665 19.5557 24.9828C19.5557 27.4991 17.5162 29.5386 15 29.5386Z" fill="white"/>
</svg>
