<svg width="90" height="50" viewBox="0 0 90 50" fill="none" xmlns="http://www.w3.org/2000/svg">
<path d="M85.9666 18.5249V18.525V18.5249ZM89.2853 34.7363H85.9669V18.784L80.9521 27.4714C80.3692 28.49 79.3204 29.0981 78.1468 29.0981H78.1467C76.9731 29.0981 75.9245 28.4899 75.3416 27.4714L70.3269 18.7093V34.7363H67.0084V18.5351C67.0084 17.0487 67.9736 15.7933 69.41 15.4114C70.8467 15.0295 72.3076 15.6395 73.046 16.9295L78.1469 25.9172L83.2478 16.9295C83.986 15.6394 85.447 15.0293 86.8838 15.4114C88.3202 15.7933 89.2853 17.0487 89.2853 18.5351V34.7363Z" fill="white"/>
<path d="M14.3315 34.7422C13.1957 34.7422 12.1397 34.1445 11.5483 33.1099L3.3183 18.7125V34.739H0V18.5381C0 17.0513 0.965383 15.7959 2.40234 15.4142C3.83943 15.0325 5.30044 15.6432 6.0383 16.9339L14.2683 31.3314V15.3017H17.5866V31.5059C17.5866 32.9926 16.6211 34.248 15.1842 34.6297C14.8991 34.7056 14.6128 34.7422 14.3315 34.7422Z" fill="white"/>
<path d="M30.9669 18.2922C27.2951 18.2922 24.4188 21.2386 24.4188 25C24.4188 26.844 25.0963 28.5462 26.3266 29.793C27.545 31.0278 29.1929 31.7078 30.9669 31.7078C32.7311 31.7078 34.3719 31.028 35.5874 29.7935C36.816 28.5453 37.4926 26.8429 37.4926 25C37.4926 21.2386 34.6262 18.2922 30.9669 18.2922ZM30.9669 35C28.2882 35 25.7714 33.9618 23.88 32.0765C21.9869 30.1898 20.9443 27.6766 20.9443 25C20.9443 19.4859 25.4404 15 30.9669 15C36.481 15 40.9671 19.4859 40.9671 25C40.9671 30.514 36.481 35 30.9669 35Z" fill="white"/>
<path d="M53.646 18.2922C49.9741 18.2922 47.0978 21.2386 47.0978 25C47.0978 26.844 47.7754 28.5462 49.0056 29.793C50.224 31.0278 51.872 31.7078 53.646 31.7078C55.4101 31.7078 57.051 31.028 58.2664 29.7935C59.495 28.5453 60.1716 26.8429 60.1716 25C60.1716 21.2386 57.3052 18.2922 53.646 18.2922ZM53.646 35C50.9673 35 48.4505 33.9618 46.5591 32.0765C44.6659 30.1898 43.6234 27.6766 43.6234 25C43.6234 19.4859 48.1195 15 53.646 15C59.1601 15 63.6461 19.4859 63.6461 25C63.6461 30.514 59.1601 35 53.646 35Z" fill="white"/>
</svg>
