<svg width="24" height="50" viewBox="0 0 24 50" fill="none" xmlns="http://www.w3.org/2000/svg">
<path d="M22.8841 8.17466C22.8218 8.23715 22.759 8.31534 22.6966 8.37784L20.1008 10.9736C20.0696 11.0049 20.0539 11.0206 20.038 11.0361C19.9757 11.1143 19.9757 11.1925 20.0539 11.302C20.7106 12.4122 21.1171 13.6006 21.2581 14.8673C21.5395 17.463 20.8824 19.793 19.2564 21.8414C17.8647 23.5927 16.0508 24.6874 13.877 25.1722C12.8763 25.3912 11.8599 25.4066 10.8435 25.2973C9.17025 25.1251 7.66896 24.5154 6.32418 23.5147C4.38514 22.0761 3.18104 20.1684 2.68066 17.7914C2.49303 16.9156 2.46178 16.0244 2.53997 15.1488C2.7276 13.1003 3.50949 11.2863 4.90121 9.73831C6.23043 8.25271 7.85672 7.28319 9.78008 6.84544C10.734 6.62642 11.6877 6.54823 12.6731 6.64198C14.0804 6.76711 15.3939 7.17375 16.6135 7.87732C16.7699 7.9712 16.8324 7.90857 16.9264 7.81482L19.5065 5.23457C19.569 5.17207 19.6317 5.09375 19.7097 5C20.7714 6.06272 21.818 7.11071 22.8823 8.1737L22.8841 8.17466ZM17.0174 16.1482C17.0956 13.1302 14.7187 10.941 12.0447 10.8628C9.02684 10.7845 6.77503 13.2866 6.77503 15.9918C6.77503 18.7596 9.10502 21.1522 11.9039 21.1053C14.6562 21.1366 16.9541 18.8687 17.0169 16.1478L17.0174 16.1482ZM20.9765 37.0406C20.992 39.5738 20.9765 42.1225 20.9765 44.656V45H16.4417V44.6874C16.4417 42.0289 16.4573 39.3705 16.4417 36.7123C16.4417 35.3206 15.9569 34.1008 14.9406 33.1313C14.2681 32.4902 13.455 32.115 12.5168 31.9898C11.2971 31.8178 10.1867 32.115 9.20177 32.8499C8.21656 33.6006 7.63798 34.617 7.45035 35.8209C7.35661 36.3996 7.34092 36.994 7.34092 37.588C7.32536 39.9493 7.34092 42.2948 7.34092 44.656V44.9843H2.83745V44.6874C2.83745 41.8255 2.80606 38.9483 2.853 36.0867C2.88425 34.5701 3.36908 33.1313 4.16653 31.8178C5.49562 29.6286 7.38772 28.2213 9.87409 27.6426C10.659 27.4677 11.463 27.3942 12.2666 27.4237C14.753 27.5332 16.8795 28.5183 18.5684 30.3791C19.7725 31.7238 20.5387 33.2874 20.8045 35.0859C20.9123 35.7409 20.9751 36.3972 20.9751 37.0386" fill="white"/>
</svg>
