<svg width="148" height="50" viewBox="0 0 148 50" fill="none" xmlns="http://www.w3.org/2000/svg">
<g>
<path fill-rule="evenodd" clip-rule="evenodd" d="M20.5 45C31.5451 45 40.5 36.0451 40.5 25C40.5 13.9549 31.5474 5 20.5 5C9.45492 5 0.5 13.9549 0.5 25C0.5 36.0451 9.45492 45 20.5 45ZM33.5578 27.1844V28.4728C33.5578 28.5467 33.5126 28.6125 33.4468 28.6412C33.0441 28.8138 31.6653 29.4467 31.092 30.244C30.7731 30.6879 30.4706 31.1734 30.1666 31.6613C29.076 33.4114 27.9665 35.192 26.0125 35.192H15.5884C11.8939 35.192 8.90002 32.1879 8.90002 28.481V28.3618C8.90002 28.2632 8.98014 28.183 9.07878 28.183H14.8898C15.0049 28.183 15.0891 28.2899 15.0789 28.4029C15.0377 28.781 15.1076 29.1673 15.2864 29.5186C15.6316 30.2194 16.3467 30.657 17.1193 30.657H19.996V28.4111H17.1521C17.0063 28.4111 16.92 28.2426 17.0042 28.1234C17.0213 28.0972 17.0397 28.0704 17.0589 28.0422L17.059 28.0422L17.0591 28.042C17.0745 28.0194 17.0905 27.996 17.1069 27.9714C17.3761 27.5892 17.7604 26.9954 18.1426 26.3193C18.4035 25.8632 18.6563 25.3762 18.8597 24.8871C18.8974 24.8061 18.9282 24.7232 18.9584 24.6419L18.9584 24.6419L18.9665 24.62C18.981 24.5793 18.9956 24.5393 19.01 24.4998L19.0101 24.4994C19.051 24.3875 19.0903 24.2798 19.1207 24.172C19.1542 24.0714 19.1823 23.9667 19.2093 23.8657L19.2275 23.798C19.3241 23.383 19.3652 22.9432 19.3652 22.4871C19.3652 22.3083 19.357 22.1213 19.3405 21.9426C19.3323 21.7474 19.3077 21.5521 19.283 21.3569C19.2665 21.1843 19.2357 21.0138 19.2029 20.835C19.1618 20.574 19.1042 20.3152 19.0385 20.0542L19.0159 19.9556C19.0012 19.9023 18.9872 19.8499 18.9734 19.7977C18.9406 19.6745 18.9083 19.553 18.8679 19.4275C18.7056 18.8665 18.5186 18.3199 18.3213 17.8083C18.2494 17.6049 18.1672 17.4097 18.085 17.2145L18.085 17.2145L18.085 17.2144C17.9898 16.9836 17.8933 16.7692 17.8015 16.5653L17.8014 16.5652C17.7764 16.5096 17.7517 16.4548 17.7275 16.4007C17.67 16.2856 17.6207 16.1808 17.5713 16.074C17.5159 15.9528 17.4583 15.8315 17.4008 15.7165C17.3847 15.6818 17.3676 15.648 17.3508 15.6149L17.3507 15.6148L17.3507 15.6148C17.3248 15.5635 17.2995 15.5136 17.2795 15.4637L16.9282 14.8144C16.8789 14.726 16.9611 14.6212 17.0576 14.648L19.2563 15.2438H19.2625C19.2649 15.2438 19.2666 15.2446 19.268 15.2451C19.269 15.2456 19.2698 15.2459 19.2707 15.2459L19.5604 15.326L19.8789 15.4165L19.996 15.4493V14.1425C19.996 13.5116 20.5015 13 21.1262 13C21.4385 13 21.7221 13.1274 21.9255 13.3349C22.1289 13.5425 22.2563 13.826 22.2563 14.1425V16.0822L22.4906 16.148C22.5091 16.1542 22.5275 16.1624 22.544 16.1747C22.5663 16.1914 22.5924 16.2113 22.622 16.2338L22.622 16.2339C22.6688 16.2695 22.7244 16.3119 22.7885 16.3596C22.8218 16.3862 22.8561 16.4152 22.8922 16.4457L22.8922 16.4458C22.9453 16.4906 23.0023 16.5388 23.0659 16.5877C23.2775 16.7582 23.5303 16.9781 23.8077 17.2309C23.8817 17.2946 23.9536 17.3603 24.0193 17.4261C24.3769 17.759 24.7776 18.1494 25.1598 18.5809C25.2666 18.7021 25.3714 18.8254 25.4783 18.9548C25.5161 19.0014 25.5547 19.0477 25.5932 19.0938L25.5932 19.0939L25.5932 19.0939C25.6633 19.178 25.7331 19.2617 25.7967 19.3453C25.8206 19.3771 25.8448 19.4091 25.8691 19.4413L25.8692 19.4414L25.8692 19.4414C25.9771 19.5841 26.0883 19.7311 26.1872 19.8836C26.2122 19.9221 26.2388 19.9609 26.2654 19.9998C26.3 20.0503 26.3346 20.1009 26.3659 20.1508C26.5221 20.387 26.6598 20.6316 26.7913 20.8761C26.8468 20.9891 26.9043 21.1124 26.9536 21.2336C27.0995 21.5604 27.2146 21.8932 27.2885 22.2261C27.3111 22.298 27.3276 22.3761 27.3358 22.446V22.4624C27.3605 22.561 27.3687 22.6658 27.3769 22.7727C27.4098 23.1138 27.3933 23.4549 27.3194 23.798C27.2885 23.944 27.2475 24.0816 27.1981 24.2275L27.1816 24.2745L27.1816 24.2745C27.1376 24.3997 27.0924 24.5285 27.0358 24.6508C26.9125 24.9364 26.7666 25.222 26.594 25.4892C26.5385 25.5878 26.4728 25.6926 26.407 25.7912C26.3719 25.8424 26.3363 25.892 26.3015 25.9407L26.3014 25.9408C26.2649 25.9918 26.229 26.0418 26.1954 26.0912C26.105 26.2145 26.0084 26.344 25.9098 26.459C25.8214 26.5803 25.731 26.7015 25.6324 26.8084C25.4947 26.9707 25.3632 27.1248 25.2255 27.2728C25.1433 27.3693 25.055 27.468 24.9645 27.5563C24.8888 27.6409 24.8115 27.7179 24.7392 27.7899L24.7036 27.8255C24.5659 27.9632 24.4509 28.07 24.3543 28.1584L24.1283 28.3659C24.0954 28.3947 24.0522 28.4111 24.007 28.4111H22.2563V30.657H24.4591C24.9522 30.657 25.4207 30.4824 25.7988 30.1618L25.809 30.1529C25.9558 30.0249 26.5096 29.5419 27.1611 28.8221C27.1837 28.7974 27.2125 28.7789 27.2454 28.7707L33.3297 27.0118C33.4427 26.9789 33.5578 27.0652 33.5578 27.1844ZM10.3672 25.6735L10.4535 25.5379L15.6563 17.3988C15.7323 17.2796 15.9111 17.292 15.9686 17.4214C16.8378 19.3694 17.5878 21.792 17.2364 23.3002C17.0864 23.9208 16.6755 24.7612 16.2131 25.5379C16.1536 25.651 16.0878 25.7619 16.0179 25.8687C15.985 25.9181 15.9296 25.9468 15.87 25.9468H10.5192C10.3754 25.9468 10.2912 25.7907 10.3672 25.6735Z" fill="white"/>
<path fill-rule="evenodd" clip-rule="evenodd" d="M58.1712 32.7375C56.7687 32.7375 55.4796 32.4232 54.3037 31.7946C53.1421 31.166 52.2142 30.2915 51.52 29.171C50.84 28.0368 50.5 26.7659 50.5 25.3585C50.5 23.951 50.84 22.687 51.52 21.5665C52.2142 20.446 53.1421 19.5714 54.3037 18.9429C55.4796 18.3143 56.7687 18 58.1712 18C59.5737 18 60.8558 18.3143 62.0175 18.9429C63.1933 19.5714 64.1141 20.446 64.78 21.5665C65.46 22.687 65.8 23.951 65.8 25.3585C65.8 26.7659 65.46 28.0368 64.78 29.171C64.0999 30.2915 63.1791 31.166 62.0175 31.7946C60.8558 32.4232 59.5737 32.7375 58.1712 32.7375ZM58.1712 29.5399C59.3612 29.5399 60.3104 29.1573 61.0187 28.3921C61.7412 27.6268 62.1025 26.6156 62.1025 25.3585C62.1025 24.0877 61.7412 23.0765 61.0187 22.3249C60.3104 21.5597 59.3612 21.1771 58.1712 21.1771C56.9671 21.1771 56.0037 21.5529 55.2812 22.3044C54.5729 23.056 54.2187 24.074 54.2187 25.3585C54.2187 26.6293 54.5729 27.6473 55.2812 28.4126C56.0037 29.1641 56.9671 29.5399 58.1712 29.5399ZM71.4551 22.7797C71.8093 22.2468 72.298 21.8164 72.9213 21.4884C73.5446 21.1604 74.2742 20.9965 75.1101 20.9965C76.0876 20.9965 76.973 21.2356 77.7663 21.7139C78.5596 22.1921 79.183 22.8754 79.6363 23.7636C80.1038 24.6518 80.3376 25.6835 80.3376 26.8587C80.3376 28.0338 80.1038 29.0724 79.6363 29.9742C79.183 30.8625 78.5596 31.5525 77.7663 32.0445C76.973 32.5227 76.0876 32.7618 75.1101 32.7618C74.2884 32.7618 73.5588 32.5979 72.9213 32.2699C72.298 31.942 71.8093 31.5184 71.4551 30.9991V36.0004H67.8213V21.1604H71.4551V22.7797ZM76.64 26.8587C76.64 25.9841 76.3851 25.3009 75.8751 24.809C75.3792 24.3033 74.763 24.0506 74.0263 24.0506C73.3038 24.0506 72.6876 24.3033 72.1776 24.809C71.6818 25.3145 71.4338 26.0046 71.4338 26.8791C71.4338 27.7537 71.6818 28.4438 72.1776 28.9494C72.6876 29.455 73.3038 29.7078 74.0263 29.7078C74.7488 29.7078 75.3651 29.455 75.8751 28.9494C76.3851 28.4301 76.64 27.7332 76.64 26.8587ZM93.3578 27.7196C93.4003 27.3642 93.4214 27.0227 93.4214 26.6947C93.4214 25.5468 93.1667 24.5425 92.6565 23.6816C92.1607 22.8207 91.4666 22.158 90.5739 21.6934C89.6815 21.2288 88.6616 20.9965 87.5142 20.9965C86.3382 20.9965 85.2969 21.2356 84.3902 21.7139C83.4836 22.1921 82.7752 22.8754 82.2654 23.7636C81.7696 24.6518 81.5216 25.6903 81.5216 26.8791C81.5216 28.068 81.7767 29.1065 82.2865 29.9947C82.7966 30.8829 83.505 31.5662 84.4117 32.0445C85.3183 32.5227 86.3525 32.7618 87.5142 32.7618C88.4773 32.7618 89.3486 32.591 90.1277 32.2494C90.9068 31.9078 91.5516 31.4364 92.0614 30.8351C92.5858 30.2339 92.947 29.5575 93.1452 28.8059H89.2779C88.9235 29.5438 88.2933 29.9127 87.3867 29.9127C86.7773 29.9127 86.2603 29.7283 85.8352 29.3593C85.4244 28.9767 85.1908 28.4301 85.134 27.7196H93.3578ZM89.0653 24.3375C89.4904 24.6928 89.7029 25.1711 89.7029 25.7723H85.1554C85.2544 25.1437 85.5094 24.6586 85.9203 24.317C86.3454 23.9754 86.8623 23.8046 87.4717 23.8046C88.109 23.8046 88.6402 23.9822 89.0653 24.3375ZM102.564 21.0399C103.952 21.0399 105.057 21.4772 105.879 22.3517C106.714 23.2126 107.132 24.4014 107.132 25.9182V32.6003H103.52V26.3897C103.52 25.6244 103.314 25.03 102.904 24.6064C102.493 24.1828 101.94 23.971 101.246 23.971C100.552 23.971 99.9996 24.1828 99.5887 24.6064C99.1779 25.03 98.9725 25.6244 98.9725 26.3897V32.6003H95.3388V21.1629H98.9725V22.6797C99.3408 22.1741 99.8367 21.7778 100.46 21.4908C101.083 21.1902 101.784 21.0399 102.564 21.0399ZM112.122 32.225C112.987 32.5667 113.964 32.7375 115.055 32.7375C116.174 32.7375 117.145 32.5393 117.966 32.1431C118.788 31.7468 119.411 31.2139 119.836 30.5443C120.276 29.8747 120.495 29.13 120.495 28.3101C120.495 27.4492 120.276 26.7455 119.836 26.1989C119.397 25.6523 118.873 25.2355 118.264 24.9485C117.669 24.6616 116.89 24.361 115.926 24.0467C114.963 23.746 114.255 23.4659 113.801 23.2063C113.348 22.9467 113.121 22.5845 113.121 22.1199C113.121 21.6963 113.256 21.3752 113.525 21.1566C113.794 20.9243 114.148 20.8081 114.587 20.8081C115.097 20.8081 115.515 20.9448 115.841 21.2181C116.167 21.4777 116.344 21.8398 116.372 22.3044H120.304C120.233 20.9516 119.695 19.8994 118.689 19.1478C117.683 18.3826 116.358 18 114.715 18C113.1 18 111.79 18.3826 110.784 19.1478C109.778 19.8994 109.275 20.9448 109.275 22.2839C109.275 23.1858 109.495 23.9169 109.934 24.4771C110.373 25.0374 110.897 25.461 111.506 25.7479C112.115 26.0349 112.902 26.3218 113.865 26.6088C114.531 26.8001 115.041 26.9709 115.395 27.1213C115.763 27.2716 116.068 27.4628 116.309 27.6952C116.564 27.9275 116.691 28.2212 116.691 28.5766C116.691 29.0002 116.535 29.335 116.224 29.5809C115.912 29.8132 115.487 29.9294 114.949 29.9294C114.424 29.9294 114 29.7927 113.674 29.5194C113.348 29.2325 113.157 28.8225 113.1 28.2896H109.232C109.261 29.2325 109.53 30.0387 110.04 30.7082C110.564 31.3778 111.258 31.8834 112.122 32.225ZM133.908 26.6947C133.908 27.0227 133.887 27.3642 133.844 27.7196H125.621C125.677 28.4301 125.911 28.9767 126.322 29.3593C126.747 29.7283 127.264 29.9127 127.873 29.9127C128.78 29.9127 129.41 29.5438 129.764 28.8059H133.632C133.433 29.5575 133.072 30.2339 132.548 30.8351C132.038 31.4364 131.394 31.9078 130.614 32.2494C129.835 32.591 128.964 32.7618 128.001 32.7618C126.839 32.7618 125.805 32.5227 124.898 32.0445C123.992 31.5662 123.283 30.8829 122.773 29.9947C122.263 29.1065 122.008 28.068 122.008 26.8791C122.008 25.6903 122.256 24.6518 122.752 23.7636C123.262 22.8754 123.97 22.1921 124.877 21.7139C125.783 21.2356 126.825 20.9965 128.001 20.9965C129.148 20.9965 130.168 21.2288 131.061 21.6934C131.953 22.158 132.647 22.8207 133.143 23.6816C133.653 24.5425 133.908 25.5468 133.908 26.6947ZM130.189 25.7723C130.189 25.1711 129.977 24.6928 129.552 24.3375C129.127 23.9822 128.596 23.8046 127.958 23.8046C127.349 23.8046 126.832 23.9754 126.407 24.317C125.996 24.6586 125.741 25.1437 125.642 25.7723H130.189ZM135.783 23.7636C135.33 24.6518 135.103 25.6835 135.103 26.8587C135.103 28.0338 135.33 29.0724 135.783 29.9742C136.25 30.8625 136.881 31.5525 137.674 32.0445C138.468 32.5227 139.346 32.7618 140.309 32.7618C141.145 32.7618 141.875 32.5979 142.498 32.2699C143.136 31.942 143.632 31.5115 143.986 30.9786V32.5979H147.619V21.1604H143.986V22.7797C143.645 22.2468 143.157 21.8164 142.519 21.4884C141.896 21.1604 141.166 20.9965 140.331 20.9965C139.353 20.9965 138.468 21.2356 137.674 21.7139C136.881 22.1921 136.25 22.8754 135.783 23.7636ZM143.221 24.809C143.73 25.3145 143.986 26.0046 143.986 26.8791C143.986 27.7537 143.73 28.4438 143.221 28.9494C142.725 29.455 142.115 29.7078 141.393 29.7078C140.67 29.7078 140.054 29.455 139.544 28.9494C139.049 28.4301 138.801 27.7332 138.801 26.8587C138.801 25.9841 139.049 25.3009 139.544 24.809C140.054 24.3033 140.67 24.0506 141.393 24.0506C142.115 24.0506 142.725 24.3033 143.221 24.809Z" fill="white"/>
</g>
</svg>
