<svg width="51" height="50" viewBox="0 0 51 50" fill="none" xmlns="http://www.w3.org/2000/svg">
<path fill-rule="evenodd" clip-rule="evenodd" d="M39.8281 23.4572C40.4981 23.4523 41.1676 23.4531 41.8369 23.4538H41.8376H41.8377H41.8378H41.8379H41.838C42.5625 23.4546 43.2867 23.4554 44.011 23.4491L44.0311 10.8783C45.5536 10.7573 47.0743 10.6242 48.5929 10.473L47.9458 7C43.9462 7.47799 39.943 7.8269 35.9236 8.04875L35.2741 11.4148C36.7927 11.3503 38.3113 11.2716 39.8281 11.1788V23.4572ZM27.209 23.4636L28.1468 20.7329C29.7542 20.7269 31.3596 20.7147 32.9649 20.6986L33.9108 23.4475C34.5881 23.4446 35.2693 23.4492 35.9503 23.4539H35.9506H35.9509H35.9512H35.9515H35.9517H35.952H35.9522H35.9524H35.9527H35.9529C36.6763 23.4588 37.3996 23.4638 38.118 23.4596L32.5515 8.20445C31.89 8.23067 29.2016 8.30125 28.5683 8.31739L24.3653 20.1742C22.6429 20.1722 21.0315 20.1621 19.2748 20.146V17.0784L22.413 17.1147V14.3497L19.2748 14.3033V11.3588C22.6873 11.4374 24.2624 11.4213 24.2604 11.4213L23.6191 8.13587C23.6191 8.13587 19.537 8.06932 15.0799 7.88176V23.4435C15.9632 23.4475 20.376 23.4616 23.1976 23.4677V23.4697H23.199C23.7128 23.4697 24.2004 23.4697 24.6819 23.4717H25.0571C25.7609 23.4636 26.4587 23.4636 27.209 23.4636ZM32.013 17.9255C31.0431 17.9396 30.0708 17.9517 29.0988 17.9598L30.561 13.7043L32.013 17.9255ZM12.8732 11.2876C11.0056 10.1885 6.95791 9.6782 6.95791 11.572C6.95791 12.3883 7.99785 12.8897 9.26657 13.5014C11.2514 14.4583 13.7961 15.6852 13.7949 18.8103C13.7949 21.4403 11.893 23.8806 8.14783 23.8806C4.74948 23.8806 3.03923 22.2914 3.03923 22.2914V18.0298C5.36259 20.2302 9.93473 21.7125 9.93473 19.0463C9.93473 18.2603 8.89782 17.7266 7.6282 17.0732C5.62375 16.0416 3.03923 14.7114 3.03923 11.6184C3.03923 8.78476 5.67117 7.0019 8.6863 7.0019C10.8181 7.0019 12.605 7.40929 13.0467 7.54644L12.8732 11.2876ZM50.6786 42.9999L45.1544 33.5915L50.0411 26.0547H45.326L41.0441 32.7707C41.0522 31.6502 41.0482 30.5292 41.0442 29.408V29.4077V29.4075V29.4072C41.0402 28.2926 41.0362 27.1776 41.0441 26.0627C39.6326 26.0587 38.2712 26.0567 36.8573 26.0547V41.7393C36.8573 41.7393 39.6224 41.9088 41.0441 42.0198V34.7713L45.1766 42.3645C47.24 42.5763 49.1135 42.7941 50.6786 42.9999ZM22.4109 35.0279C22.4109 35.0279 20.3255 35.0501 19.2829 35.0662V38.16C21.1666 38.1196 23.0523 38.0973 24.938 38.0973C24.7922 38.8388 24.6464 39.5819 24.5006 40.325L24.2906 41.395C22.4553 41.401 17.0522 41.524 15.0879 41.6512V26.0813H23.615L24.2624 29.3243C24.2624 29.3243 22.2072 29.3082 19.2829 29.3062V32.2608C20.3255 32.2507 22.4109 32.2346 22.4109 32.2346V35.0279ZM30.1817 35.0339C31.1519 35.048 32.1239 35.0642 33.0941 35.0864V32.2971C32.1239 32.281 31.1537 32.2709 30.1817 32.2608V29.3284L35.1875 29.3606L34.5422 26.0853C34.5422 26.0853 28.8385 26.0813 25.9868 26.0813V41.3971C28.891 41.3989 32.0573 41.4919 35.1713 41.6512L35.8469 38.3296C34.2053 38.2711 31.6763 38.1882 30.1838 38.1558C30.1817 37.1133 30.1817 36.0726 30.1817 35.0339ZM9.53751 35.2989L6.9923 35.4239L7.63766 32.4935L13.1375 32.3704V41.7567C13.1375 41.7567 11.6572 41.8233 8.36373 42.132C3.68674 42.5715 0 39.8286 0 34.4357C0 28.0283 4.69111 26.0034 8.92239 26.0034C10.7537 26.0034 11.8326 26.0377 12.4417 26.0679L13.1335 29.7062C13.1335 29.7062 11.9093 29.4501 9.60207 29.4501C6.98423 29.4501 4.14253 30.3254 4.14253 33.8367C4.14253 37.6203 5.71565 38.8887 9.53955 38.5419L9.53751 35.2989Z" fill="white"/>
</svg>
