<svg xmlns="http://www.w3.org/2000/svg" width="26.793" height="26.793" viewBox="0 0 26.793 26.793">
    <defs>
        <style>
            .cls-2{fill:#fff}
        </style>
    </defs>
    <g id="Group_1059" transform="translate(-10658.049 -2067.347)">
        <circle id="Ellipse_72" cx="13.397" cy="13.397" r="13.397" fill="#081f3b" transform="translate(10658.049 2067.347)"/>
        <g id="Group_1058">
            <path id="Path_1938" d="M10674.547 2082.331l-.4-.49-.905-1.116-1.2 1.473 3.913 4.822a.855.855 0 0 0 .664.372.962.962 0 0 0 .621-.215 1.012 1.012 0 0 0 .355-.594.847.847 0 0 0-.212-.727z" class="cls-2"/>
            <path id="Path_1939" d="M10677.6 2074.894a1.025 1.025 0 0 0-.353-.582.894.894 0 0 0-.294-.167.91.91 0 0 0-.332-.048.872.872 0 0 0-.341.094.951.951 0 0 0-.317.259l-3.917 4.808 1.2 1.467 4.146-5.11a.818.818 0 0 0 .212-.721" class="cls-2"/>
            <path id="Path_1940" fill="#e34" d="M10670.843 2079.258l-3.913-4.808a.963.963 0 0 0-.318-.259.863.863 0 0 0-.342-.094.9.9 0 0 0-.333.048.981.981 0 0 0-.3.167 1.017 1.017 0 0 0-.349.582.822.822 0 0 0 .209.721l4.15 5.11-.908 1.116-.4.491-2.839 3.524a.842.842 0 0 0-.21.727 1.014 1.014 0 0 0 .353.595.983.983 0 0 0 .623.214.856.856 0 0 0 .663-.372l3.912-4.822 1.2-1.473z"/>
        </g>
    </g>
</svg>
