<svg xmlns="http://www.w3.org/2000/svg" width="85.183" height="20.428" viewBox="0 0 85.183 20.428">
    <defs>
        <style>
            .cls-1{fill:#e18609}.cls-2{fill:#2e313a}
        </style>
    </defs>
    <g id="Group_989" transform="translate(-1475.547 -6094.59)">
        <g id="Group_988">
            <path id="Path_2659" d="M1517.507 6104.817c0-3.245.005-6.49-.007-9.735 0-.328.075-.432.418-.429 1.909.018 3.817.008 5.726.011a4.749 4.749 0 0 1 1.47.223 2.651 2.651 0 0 1 1.942 2.516 55.394 55.394 0 0 1 0 6.558 2.741 2.741 0 0 1-1.553 2.468c-.219.106-.192.238-.147.413q.678 2.643 1.352 5.288c.217.846.429 1.693.651 2.538.062.238.031.344-.256.337-.778-.017-1.556-.011-2.334 0-.2 0-.29-.058-.342-.271-.619-2.534-1.256-5.063-1.873-7.6-.065-.268-.172-.363-.441-.346a6.4 6.4 0 0 1-.948 0c-.342-.029-.457.072-.454.437.017 2.419.01 4.837.008 7.256 0 .579.052.518-.537.519-.754 0-1.508-.016-2.261.008-.329.011-.426-.077-.424-.416.016-3.261.011-6.518.01-9.775zm3.215-3.981c0 1.094.009 2.188-.006 3.282 0 .277.08.358.35.349.51-.017 1.021.006 1.532 0 .9-.018 1.307-.392 1.319-1.29q.033-2.407-.007-4.814c-.012-.785-.4-1.131-1.2-1.145-.547-.009-1.095.008-1.642-.007-.264-.008-.356.068-.352.348.016 1.089.006 2.183.006 3.277z" class="cls-1"/>
            <path id="Path_2660" d="M1505.483 6109.458c0 .814.012 1.628 0 2.442a2.934 2.934 0 0 1-2.795 3.028 19.129 19.129 0 0 1-3.856-.015 3.049 3.049 0 0 1-2.834-2.961c-.042-.6-.017-1.215-.03-1.822-.005-.194.047-.288.265-.284q1.33.03 2.662.033c.194 0 .252.075.248.259-.007.377-.008.754 0 1.13a1 1 0 0 0 .948 1.131 3.831 3.831 0 0 0 1.52-.018.786.786 0 0 0 .661-.766c.091-1.335.049-2.672.045-4.008a.768.768 0 0 0-.462-.65c-.7-.426-1.444-.748-2.169-1.118-.8-.409-1.6-.808-2.41-1.207a2.128 2.128 0 0 1-1.24-2.062c0-1.6.011-3.209.037-4.812a3.7 3.7 0 0 1 .172-1 2.653 2.653 0 0 1 2.15-1.952 13.179 13.179 0 0 1 4.642-.016 2.884 2.884 0 0 1 2.565 3.016c.021.558-.006 1.118.008 1.677.005.23-.083.29-.3.287q-1.33-.02-2.662-.015c-.2 0-.252-.069-.247-.254.012-.377.007-.754.006-1.131a.984.984 0 0 0-.962-1.142 3.84 3.84 0 0 0-1.377.027.926.926 0 0 0-.8.948c-.034 1.2-.043 2.406-.05 3.61a.928.928 0 0 0 .53.849c1.091.616 2.253 1.085 3.368 1.648.423.214.834.45 1.258.66a1.956 1.956 0 0 1 1.16 1.937c-.012.851 0 1.7 0 2.553z" class="cls-1"/>
            <path id="Path_2661" d="M1540.022 6104.856c0-3.246.005-6.491-.008-9.737 0-.364.087-.467.465-.465q4.377.027 8.755 0c.31 0 .43.062.414.4-.028.595-.025 1.192 0 1.787.012.314-.1.381-.4.379-1.86-.012-3.721 0-5.581-.012-.323 0-.438.07-.435.418q.027 2.535 0 5.069c0 .358.11.445.454.438 1.07-.022 2.14 0 3.21-.012.247 0 .346.057.339.322q-.024.965 0 1.932c.006.257-.086.334-.337.331-1.094-.011-2.189 0-3.283-.012-.285 0-.377.076-.375.37q.015 3.063-.006 6.126c0 .3.16.264.343.264 1.873 0 3.746.011 5.618-.012.388 0 .471.115.454.472-.028.594-.014 1.191 0 1.787 0 .214-.059.3-.288.3q-4.524-.007-9.047 0c-.338 0-.29-.205-.29-.409v-8.424z" class="cls-1"/>
            <path id="Path_2662" d="M1528.826 6104.819c0-3.246.005-6.492-.007-9.739 0-.329.078-.426.419-.425q4.4.021 8.793 0c.364 0 .448.1.432.447-.029.582-.023 1.167 0 1.75.01.284-.069.372-.361.37-1.885-.012-3.77 0-5.655-.015-.347 0-.419.1-.416.427q.023 2.553 0 5.106c0 .335.1.4.411.4 1.094-.019 2.189 0 3.283-.011.252 0 .341.068.334.327q-.024.948 0 1.9c.008.276-.089.356-.355.354-1.106-.01-2.213 0-3.32-.008-.268 0-.352.065-.351.344q.018 3.029 0 6.055c0 .289.079.369.365.367 1.885-.011 3.77 0 5.655-.015.35 0 .423.106.411.427-.024.619-.014 1.24 0 1.86 0 .2-.059.271-.269.27q-4.542-.009-9.084 0c-.316 0-.28-.173-.28-.371l-.005-9.82z" class="cls-1"/>
            <path id="Path_2663" d="M1490.254 6107.155a3.93 3.93 0 0 0-.3.961q-.855 3.2-1.683 6.4c-.063.245-.161.3-.391.3-.706-.012-1.411-.015-2.116 0-.276.007-.353-.04-.27-.335.723-2.554 1.43-5.112 2.142-7.669a9.8 9.8 0 0 1 .32-1.118 3.222 3.222 0 0 0-.028-2.248c-.842-2.848-1.636-5.71-2.448-8.566-.019-.069-.031-.141-.054-.245h2.74c.223 0 .208.152.242.289q.867 3.44 1.737 6.877c.02.08.048.158.1.341l.778-3.094c.344-1.377.69-2.752 1.027-4.131.051-.207.134-.29.362-.285.717.017 1.435.019 2.152 0 .283-.007.338.045.26.331-.844 3.112-1.673 6.228-2.512 9.341a1.131 1.131 0 0 0-.006.6c.82 3.195 1.631 6.392 2.457 9.585.07.271.027.331-.247.325-.754-.016-1.508-.014-2.262 0-.237 0-.329-.065-.381-.309-.516-2.4-1.048-4.786-1.575-7.179-.007-.037-.02-.08-.044-.171z" class="cls-2"/>
            <path id="Path_2664" d="M1475.553 6104.721c0-3.222 0-6.444-.006-9.667 0-.312.051-.425.4-.422q3.759.026 7.517 0a.347.347 0 0 1 .411.319c.155.623.321 1.245.516 1.857.094.3.036.365-.273.363-1.666-.014-3.333 0-5-.014-.323 0-.43.071-.426.415.019 1.714.014 3.429 0 5.143 0 .251.058.332.319.328 1.107-.014 2.214 0 3.32-.011.24 0 .338.036.326.314-.026.656-.02 1.313 0 1.969.007.247-.079.3-.308.3-1.07-.011-2.14.009-3.21-.013-.343-.007-.45.069-.448.433.017 2.809.005 5.617.018 8.426 0 .294-.08.366-.362.359-.815-.018-1.63-.019-2.445 0-.289.007-.358-.078-.357-.362.012-3.244.008-6.49.008-9.737z" class="cls-2"/>
            <path id="Path_2665" d="M1509.731 6106.092c0-2.82-.006-5.639.009-8.458 0-.348-.109-.436-.434-.429-.8.018-1.6-.009-2.406.013-.314.008-.39-.1-.379-.393.021-.607.015-1.215 0-1.823-.006-.241.052-.348.321-.347q4.5.011 9.007 0c.219 0 .3.068.3.292-.011.656-.013 1.313 0 1.969.005.248-.095.313-.32.311-.8-.007-1.6.016-2.406-.01-.36-.012-.475.078-.474.457q.02 8.094.01 16.187c0 .292-.008.583 0 .875 0 .178-.045.267-.243.265-.912-.007-1.824-.01-2.735 0-.262 0-.253-.161-.253-.339v-2.917z" class="cls-1"/>
            <path id="Path_2666" d="M1554.3 6106.1c0-2.832-.005-5.664.008-8.5 0-.327-.086-.408-.408-.4-.826.026-1.653 0-2.48.014-.258 0-.333-.081-.326-.335.016-.619.015-1.24 0-1.859-.005-.255.052-.367.34-.366q4.486.013 8.972 0c.261 0 .329.088.322.336-.015.62-.02 1.24 0 1.859.011.3-.1.368-.375.363-.766-.015-1.532 0-2.3 0-.537 0-.538 0-.538.523v16.736c0 .526 0 .527-.53.527-.778 0-1.557-.015-2.334 0-.3.007-.363-.093-.363-.374.012-2.839.012-5.683.012-8.524z" class="cls-1"/>
            <path id="Path_2667" fill="#fefefd" d="M1520.722 6100.836c0-1.094.01-2.188-.007-3.282 0-.28.088-.356.352-.348.547.015 1.095 0 1.642.007.8.014 1.19.36 1.2 1.145q.036 2.406.007 4.814c-.012.9-.423 1.272-1.319 1.29-.511.011-1.022-.012-1.532 0-.27.009-.354-.072-.35-.349.015-1.094.006-2.188.006-3.282z"/>
        </g>
    </g>
</svg>
