<svg xmlns="http://www.w3.org/2000/svg" width="104.742" height="94.874">
    <defs>
        <style>
            .cls-3{fill:#081f3b}.cls-4{fill:#e34}
        </style>
    </defs>
    <g id="Group_1696" data-name="Group 1696" transform="translate(-1762.089 -1359.345)">
        <g id="Group_1692" data-name="Group 1692">
            <path id="Path_4180" data-name="Path 4180" d="M1865.9 1425.381c-6.459-20.083-.489-37.221-3.6-46.9s-15.213-28.215-59.736-13.9-42.264 43.761-38.838 54.407c16.026 49.849 113.614 41.962 102.174 6.392zm0 0" style="fill:#eff4fa"/>
        </g>
        <path id="Path_4181" data-name="Path 4181" d="M1850.4 1438.385a4.575 4.575 0 1 1 5.081-4.007 4.581 4.581 0 0 1-5.081 4.007zm.716-6.057a1.525 1.525 0 1 0 1.336 1.693 1.527 1.527 0 0 0-1.336-1.693zm0 0" style="fill:#a4aec0"/>
        <g id="Group_1695" data-name="Group 1695">
            <g id="Group_1694" data-name="Group 1694">
                <g id="Group_1693" data-name="Group 1693">
                    <path id="Path_4182" data-name="Path 4182" class="cls-3" d="M1843.433 1401.8a23.452 23.452 0 0 0-8.856-9.572l1.31-3.981 1.149.378a2.14 2.14 0 0 0 .678.109 2.184 2.184 0 0 0 2.067-1.495l1.032-3.134a2.176 2.176 0 0 0-1.386-2.745l-4.206-1.384a.878.878 0 1 0-.549 1.668l4.206 1.384a.425.425 0 0 1 .267.528l-1.033 3.135a.415.415 0 0 1-.209.24.421.421 0 0 1-.319.026l-12.328-4.06a.421.421 0 0 1-.263-.527l1.032-3.135a.421.421 0 0 1 .527-.266l4.372 1.44a.878.878 0 1 0 .55-1.668l-4.373-1.441a2.18 2.18 0 0 0-2.744 1.386l-1.033 3.135a2.177 2.177 0 0 0 1.383 2.745l1.149.378-1.312 3.978a23.4 23.4 0 0 0-5.409.124.878.878 0 1 0 .241 1.739 21.847 21.847 0 0 1 23.732 28.476 21.84 21.84 0 1 1-27.56-27.585.878.878 0 0 0-.551-1.668 23.745 23.745 0 0 0-4.3 1.911h-7.036a.878.878 0 0 0 0 1.756h4.38a23.378 23.378 0 0 0-7.8 10.539h-6.141a.878.878 0 1 0 0 1.756h5.565a23.418 23.418 0 0 0-.559 10.536h-9.381a.878.878 0 1 0 0 1.757h9.762a23.849 23.849 0 0 0 5.863 10.539h-7.894a.878.878 0 1 0 0 1.756h9.778a23.606 23.606 0 0 0 36.194-28.758zm-17.118-12.641 1.21-3.666 6.694 2.2-1.208 3.667a23.916 23.916 0 0 0-6.7-2.206zm0 0"/>
                </g>
                <path id="Path_4183" data-name="Path 4183" class="cls-4" d="M1786.891 1393.677h10.921a.878.878 0 0 0 0-1.757h-10.921a.878.878 0 0 0 0 1.757zm0 0"/>
                <path id="Path_4184" data-name="Path 4184" class="cls-4" d="M1790.4 1398.068a.878.878 0 0 0 0 1.757h8.255a.878.878 0 1 0 0-1.757zm0 0"/>
                <path id="Path_4185" data-name="Path 4185" class="cls-4" d="M1793.947 1411.239a.878.878 0 0 0-.878-.878h-6.178a.878.878 0 1 0 0 1.756h6.178a.878.878 0 0 0 .878-.878zm0 0"/>
                <path id="Path_4186" data-name="Path 4186" class="cls-4" d="M1797.459 1423.534a.878.878 0 0 0-.878-.878h-4.3a.878.878 0 0 0 0 1.757h4.3a.879.879 0 0 0 .878-.879zm0 0"/>
                <path id="Path_4187" data-name="Path 4187" class="cls-3" d="M1804.712 1406.619a18.585 18.585 0 0 0 35.3 11.627l.008-.023.006-.023a18.612 18.612 0 0 0-17.414-24.361 18.415 18.415 0 0 0-5.606.791 18.8 18.8 0 0 0-3.016 1.209 18.474 18.474 0 0 0-9.282 10.78zm33.9 10.2-12.448-4.1a3.8 3.8 0 0 0-1.8-3.562l4.089-12.416a16.857 16.857 0 0 1 10.155 20.077zm-15.314-2.6a2.045 2.045 0 1 1-.283-3.769 2.044 2.044 0 0 1 1.3 2.581 2.03 2.03 0 0 1-1.021 1.186zm-.949-18.631a16.782 16.782 0 0 1 4.439.6l-4.089 12.416a3.775 3.775 0 0 0-2.035.394 3.814 3.814 0 0 0-.609.383l-5.859-5.341a.878.878 0 1 0-1.183 1.3l5.936 5.41a3.837 3.837 0 0 0-.184.454 3.8 3.8 0 0 0 2.422 4.8 3.836 3.836 0 0 0 .767.165l.3 2.555a.88.88 0 0 0 .872.777c.034 0 .068 0 .1-.006a.878.878 0 0 0 .77-.974l-.3-2.563a3.965 3.965 0 0 0 .391-.171 3.767 3.767 0 0 0 1.526-1.4l12.451 4.1a16.688 16.688 0 0 1-7.325 8.536l-.98-1.943a.879.879 0 0 0-1.569.791l.982 1.946a16.685 16.685 0 0 1-11.23.845l.684-2.075a.878.878 0 0 0-1.668-.55l-.685 2.076a16.771 16.771 0 0 1-8.521-7.356l1.937-.977a.878.878 0 1 0-.791-1.568l-1.934.975a16.76 16.76 0 0 1-.827-11.215l2.045.675a.878.878 0 0 0 .55-1.668l-2.042-.674a16.7 16.7 0 0 1 7.341-8.5l.962 1.9a.878.878 0 1 0 1.568-.792l-.961-1.9a16.7 16.7 0 0 1 6.747-1.429zm0 0"/>
            </g>
        </g>
    </g>
</svg>
