<svg xmlns="http://www.w3.org/2000/svg" width="116.385" height="21.426" viewBox="0 0 116.385 21.426">
    <defs>
        <style>
            .cls-1{fill:#fefefe}
        </style>
    </defs>
    <g id="Group_975" transform="translate(-501.069 -6094.092)">
        <g id="Group_974">
            <path id="Path_2405" d="M501.076 6102.761c0 2.8 0 5.6-.007 8.4 0 .245.073.28.291.277 2.922-.041 5.845.054 8.767-.051a9.791 9.791 0 0 0 1.9-.216 4.444 4.444 0 0 0 3.111-2.425 5.5 5.5 0 0 0 .417-3.75 3.9 3.9 0 0 0-2.3-2.815c-.132-.06-.359-.05-.363-.214 0-.078.227-.169.358-.242a2.945 2.945 0 0 0 1.291-1.367 4.545 4.545 0 0 0 .226-2.86 3.813 3.813 0 0 0-1.257-2.187 5.368 5.368 0 0 0-3.494-1.205c-2.891-.032-5.783-.006-8.674-.017-.248 0-.276.077-.275.292q.016 4.191.009 8.38zm47.869 2.464c0 1.991 0 3.981-.005 5.972 0 .2.043.246.243.244q1.969-.015 3.94 0c.218 0 .272-.049.271-.27q-.013-3.328 0-6.659a3.135 3.135 0 0 1 .353-1.4 1.459 1.459 0 0 1 2.311-.345 2.1 2.1 0 0 1 .444 1.412c.017 2.343.01 4.686 0 7.029 0 .182.038.233.227.232q1.917-.013 3.834 0c.22 0 .286-.06.285-.283-.009-1.638-.013-3.277 0-4.915a15.335 15.335 0 0 1 .05-2.258 1.732 1.732 0 0 1 1.324-1.623 1.555 1.555 0 0 1 1.352.5 2.725 2.725 0 0 1 .383 1.493c.019 2.281.011 4.563 0 6.844 0 .193.04.247.241.245q1.917-.015 3.835 0c.209 0 .273-.057.27-.269-.039-2.664.059-5.329-.051-7.994a7.324 7.324 0 0 0-.164-1.3 4.432 4.432 0 0 0-.917-1.942 3.649 3.649 0 0 0-2.682-1.228 4.936 4.936 0 0 0-1.072.044 4.262 4.262 0 0 0-1.586.525 4.047 4.047 0 0 0-1.413 1.443.155.155 0 0 1-.138.1c-.106 0-.057-.087-.083-.132a3.818 3.818 0 0 0-1.1-1.32 3.619 3.619 0 0 0-1.627-.619 4.631 4.631 0 0 0-2.187.223 3.9 3.9 0 0 0-2.055 1.828c-.032.054-.052.126-.116.117-.091-.011-.049-.1-.049-.151 0-.493-.01-.986 0-1.479.005-.174-.045-.217-.217-.216-1.225.008-2.45.01-3.675 0-.2 0-.244.048-.243.244.02 1.962.017 3.935.017 5.908zm64.319-4.805a1.746 1.746 0 0 1-.156-.177 2.909 2.909 0 0 0-.774-.843 4.117 4.117 0 0 0-3.482-.631 4.367 4.367 0 0 0-2.881 2.363 8.024 8.024 0 0 0-.86 4.508 6.4 6.4 0 0 0 .847 2.863 4.671 4.671 0 0 0 1.795 1.739 4.862 4.862 0 0 0 2.531.566 3.776 3.776 0 0 0 1.621-.419 3.738 3.738 0 0 0 1.049-.835c.044-.048.087-.142.159-.116.1.034.043.138.042.208a8.505 8.505 0 0 1-.047 1.334 1.617 1.617 0 0 1-.993 1.362 2.38 2.38 0 0 1-1.495.074 1.418 1.418 0 0 1-1.068-.862c-.053-.138-.15-.118-.251-.118h-3.754c-.2 0-.251.063-.216.236a4.389 4.389 0 0 0 1.1 2.213 4.682 4.682 0 0 0 1.54 1.046 7.139 7.139 0 0 0 2.615.571 10.337 10.337 0 0 0 1.759-.035 11.758 11.758 0 0 0 1.409-.267 4.659 4.659 0 0 0 2.107-1.155 5.269 5.269 0 0 0 1.566-3.848c.052-3.663.017-7.328.021-10.991 0-.148-.038-.191-.188-.19q-1.9.009-3.808 0c-.147 0-.194.036-.19.188.009.381.002.768.002 1.216zm-39.565 9.4l.044-.014c.057.09.112.181.169.27a3.651 3.651 0 0 0 2.048 1.555 4.754 4.754 0 0 0 2.359.073 4.491 4.491 0 0 0 3.215-2.405 8.639 8.639 0 0 0 .886-3.762 9.4 9.4 0 0 0-.2-2.351 6.177 6.177 0 0 0-1.693-3.352 4.333 4.333 0 0 0-2.872-1.191 4.673 4.673 0 0 0-1.215.109 4.027 4.027 0 0 0-2.4 1.475c-.03.038-.066.1-.121.084s-.068-.092-.064-.156 0-.106 0-.159c0-1.876 0-3.752.005-5.628 0-.208-.032-.28-.263-.278-1.261.014-2.521.011-3.782 0-.184 0-.26.024-.25.236.019.448.006.9.006 1.347v15.512c0 .18.018.255.234.252 1.234-.013 2.468-.01 3.7 0 .173 0 .2-.055.2-.209-.012-.466-.005-.936-.005-1.406zm21.66-2.245h-4.023a.215.215 0 0 0-.232.145 1.838 1.838 0 0 1-.321.521 2.1 2.1 0 0 1-2.459.227 2.512 2.512 0 0 1-1.043-1.756c-.074-.331.067-.3.283-.3 2.565 0 5.13 0 7.695.007.215 0 .319-.025.291-.276-.038-.337-.022-.677-.046-1.018a9.238 9.238 0 0 0-.49-2.4 6 6 0 0 0-1.975-2.805 5.931 5.931 0 0 0-3.5-1.215 7.115 7.115 0 0 0-1.811.149 5.735 5.735 0 0 0-3.476 2.126 6.894 6.894 0 0 0-1.351 4.038 8.324 8.324 0 0 0 .1 1.4 6.7 6.7 0 0 0 .577 1.974 5.757 5.757 0 0 0 2.246 2.5 6.416 6.416 0 0 0 2.95.91 8.175 8.175 0 0 0 2.785-.259 5.2 5.2 0 0 0 2.418-1.382 5.262 5.262 0 0 0 1.382-2.584zm-73.493-2.286a6.858 6.858 0 0 0 .15 1.685 6.115 6.115 0 0 0 1.546 3.008 5.708 5.708 0 0 0 1.807 1.247 6.7 6.7 0 0 0 2.349.567 7.86 7.86 0 0 0 2.181-.146 5.808 5.808 0 0 0 3.238-1.825 6.069 6.069 0 0 0 1.234-2.243 7.827 7.827 0 0 0 .284-3.3 6.514 6.514 0 0 0-.9-2.712 5.559 5.559 0 0 0-2.055-2 7.142 7.142 0 0 0-4.269-.775 6.755 6.755 0 0 0-2.5.748 5.376 5.376 0 0 0-2.264 2.262 6.7 6.7 0 0 0-.801 3.486zm19.813 6.517a6.77 6.77 0 0 0 2.169-.319 5.647 5.647 0 0 0 3.483-2.962 7.1 7.1 0 0 0 .693-3.254 7.568 7.568 0 0 0-.553-2.933 5.476 5.476 0 0 0-2.553-2.846 7.078 7.078 0 0 0-4.107-.7 6.623 6.623 0 0 0-2.639.809 5.4 5.4 0 0 0-2.177 2.254 7.248 7.248 0 0 0-.758 4.088 7.908 7.908 0 0 0 .531 2.255 5.525 5.525 0 0 0 2.5 2.808 6.646 6.646 0 0 0 3.411.802zm-25.211-9.04q0 4.215-.005 8.43c0 .2.047.245.244.243q1.983-.015 3.967 0c.2 0 .242-.048.242-.244q-.009-8.429 0-16.86c0-.2-.046-.245-.243-.243q-1.969.015-3.94 0c-.221 0-.271.053-.27.271q.012 4.203.005 8.405zm79.87 2.461c0 1.99 0 3.98-.005 5.97 0 .2.05.243.245.242q1.929-.015 3.859 0c.2 0 .244-.047.243-.244q-.013-2.389 0-4.781a7.507 7.507 0 0 1 .153-1.492 2.836 2.836 0 0 1 .8-1.539 3.311 3.311 0 0 1 2.995-.694c.225.04.226-.023.226-.192 0-1.127-.006-2.255 0-3.382 0-.159-.043-.235-.2-.263a3.438 3.438 0 0 0-2.518.476 4.311 4.311 0 0 0-1.471 1.664c-.036.066-.049.206-.158.175s-.043-.153-.044-.232c-.005-.537-.01-1.074 0-1.611 0-.191-.027-.267-.249-.265q-1.824.02-3.648 0c-.208 0-.238.062-.237.249.012 1.975.009 3.948.009 5.921z" class="cls-1"/>
            <path id="Path_2406" d="M501.076 6102.761v-8.377c0-.215.027-.293.275-.292 2.891.011 5.783-.015 8.674.017a5.368 5.368 0 0 1 3.494 1.205 3.813 3.813 0 0 1 1.257 2.187 4.545 4.545 0 0 1-.226 2.86 2.945 2.945 0 0 1-1.291 1.367c-.131.073-.361.164-.358.242 0 .164.231.154.363.214a3.9 3.9 0 0 1 2.3 2.815 5.5 5.5 0 0 1-.417 3.75 4.444 4.444 0 0 1-3.111 2.425 9.791 9.791 0 0 1-1.9.216c-2.922.1-5.845.01-8.767.051-.218 0-.292-.032-.291-.277.002-2.801-.002-5.602-.002-8.403zm6.673 1.328h-1.744c-.113 0-.172.009-.172.151q.01 1.625 0 3.248c0 .117.035.15.15.146 1.1-.035 2.193.049 3.29-.049a1.689 1.689 0 0 0 1.656-1.444 1.644 1.644 0 0 0-1.622-2.051c-.518.002-1.038-.001-1.558-.001zm-.283-6.237c-.494 0-.987.006-1.481 0-.158 0-.208.031-.206.2.01.853.012 1.708 0 2.562 0 .191.072.206.226.205.829-.006 1.657 0 2.485-.006a5.007 5.007 0 0 0 .661.017 1.539 1.539 0 0 0 .975-2.307 1.435 1.435 0 0 0-1.26-.663c-.466-.025-.933-.008-1.4-.008z"/>
            <path id="Path_2407" d="M548.945 6105.225c0-1.973 0-3.946-.005-5.919 0-.2.044-.245.243-.244 1.225.011 2.45.009 3.675 0 .172 0 .222.042.217.216-.012.493-.006.986 0 1.479 0 .053-.042.14.049.151.064.009.084-.063.116-.117a3.9 3.9 0 0 1 2.055-1.828 4.631 4.631 0 0 1 2.187-.223 3.619 3.619 0 0 1 1.627.619 3.818 3.818 0 0 1 1.1 1.32c.026.045-.023.134.083.132a.155.155 0 0 0 .138-.1 4.047 4.047 0 0 1 1.413-1.443 4.262 4.262 0 0 1 1.586-.525 4.936 4.936 0 0 1 1.072-.044 3.649 3.649 0 0 1 2.682 1.228 4.432 4.432 0 0 1 .917 1.942 7.324 7.324 0 0 1 .164 1.3c.11 2.665.012 5.33.051 7.994 0 .212-.061.271-.27.269q-1.917-.012-3.835 0c-.2 0-.241-.052-.241-.245.008-2.281.016-4.563 0-6.844a2.725 2.725 0 0 0-.383-1.493 1.555 1.555 0 0 0-1.352-.5 1.732 1.732 0 0 0-1.324 1.623 15.335 15.335 0 0 0-.05 2.258c-.012 1.638-.008 3.277 0 4.915 0 .223-.065.284-.285.283q-1.917-.015-3.834 0c-.189 0-.228-.05-.227-.232.006-2.343.013-4.686 0-7.029a2.1 2.1 0 0 0-.444-1.412 1.459 1.459 0 0 0-2.311.345 3.135 3.135 0 0 0-.353 1.4q-.016 3.33 0 6.659c0 .221-.053.272-.271.27q-1.971-.018-3.94 0c-.2 0-.244-.048-.243-.244-.004-1.98-.007-3.97-.007-5.961z"/>
            <path id="Path_2408" d="M613.264 6100.42c0-.448.007-.835 0-1.221 0-.152.043-.188.19-.188q1.9.009 3.808 0c.15 0 .188.042.188.19 0 3.663.031 7.328-.021 10.991a5.269 5.269 0 0 1-1.566 3.848 4.659 4.659 0 0 1-2.107 1.155 11.758 11.758 0 0 1-1.409.267 10.337 10.337 0 0 1-1.759.035 7.139 7.139 0 0 1-2.615-.571 4.682 4.682 0 0 1-1.54-1.046 4.389 4.389 0 0 1-1.1-2.213c-.035-.173.02-.238.216-.236 1.251.01 2.5 0 3.754 0 .1 0 .2-.02.251.118a1.418 1.418 0 0 0 1.068.862 2.38 2.38 0 0 0 1.495-.074 1.617 1.617 0 0 0 .993-1.362 8.505 8.505 0 0 0 .047-1.334c0-.07.054-.174-.042-.208-.072-.026-.115.068-.159.116a3.738 3.738 0 0 1-1.049.835 3.776 3.776 0 0 1-1.621.419 4.862 4.862 0 0 1-2.531-.566 4.671 4.671 0 0 1-1.795-1.739 6.4 6.4 0 0 1-.847-2.863 8.024 8.024 0 0 1 .86-4.508 4.367 4.367 0 0 1 2.881-2.363 4.117 4.117 0 0 1 3.482.631 2.909 2.909 0 0 1 .774.843 1.746 1.746 0 0 0 .154.182zm.058 4.246a3.393 3.393 0 0 0-.271-1.411 1.839 1.839 0 0 0-2.005-1.236 1.788 1.788 0 0 0-1.373 1.142 3.978 3.978 0 0 0-.278 2.114 3.454 3.454 0 0 0 .559 1.618 1.684 1.684 0 0 0 2.787-.017 3.631 3.631 0 0 0 .581-2.21z"/>
            <path id="Path_2409" d="M573.7 6109.822c0 .47-.006.94 0 1.41 0 .154-.024.21-.2.209-1.234-.009-2.468-.012-3.7 0-.216 0-.234-.072-.234-.252q.008-7.756 0-15.512c0-.449.013-.9-.006-1.347-.01-.212.066-.237.25-.236 1.261.008 2.521.011 3.782 0 .231 0 .264.07.263.278-.008 1.876-.005 3.752-.005 5.628v.159c0 .053 0 .134.064.156s.091-.046.121-.084a4.027 4.027 0 0 1 2.4-1.475 4.673 4.673 0 0 1 1.215-.109 4.333 4.333 0 0 1 2.872 1.191 6.177 6.177 0 0 1 1.693 3.352 9.4 9.4 0 0 1 .2 2.351 8.639 8.639 0 0 1-.886 3.762 4.491 4.491 0 0 1-3.215 2.405 4.754 4.754 0 0 1-2.359-.073 3.651 3.651 0 0 1-2.048-1.555c-.057-.089-.112-.18-.169-.27zm4.232-4.671c-.02-.3 0-.6-.044-.912a3.9 3.9 0 0 0-.623-1.7 1.765 1.765 0 0 0-2.564-.216 3.537 3.537 0 0 0-.942 2.426 5.021 5.021 0 0 0 .1 1.555 2.887 2.887 0 0 0 .962 1.746 1.752 1.752 0 0 0 2.739-.755 4.885 4.885 0 0 0 .371-2.144z"/>
            <path id="Path_2410" d="M595.359 6107.577a5.262 5.262 0 0 1-1.38 2.58 5.2 5.2 0 0 1-2.418 1.382 8.175 8.175 0 0 1-2.785.259 6.416 6.416 0 0 1-2.95-.91 5.757 5.757 0 0 1-2.246-2.5 6.7 6.7 0 0 1-.577-1.974 8.324 8.324 0 0 1-.1-1.4 6.894 6.894 0 0 1 1.351-4.038 5.735 5.735 0 0 1 3.476-2.126 7.115 7.115 0 0 1 1.811-.149 5.931 5.931 0 0 1 3.5 1.215 6 6 0 0 1 1.975 2.805 9.238 9.238 0 0 1 .49 2.4c.024.341.008.681.046 1.018.028.251-.076.277-.291.276-2.565-.007-5.13 0-7.695-.007-.216 0-.357-.032-.283.3a2.512 2.512 0 0 0 1.043 1.756 2.1 2.1 0 0 0 2.459-.227 1.838 1.838 0 0 0 .321-.521.215.215 0 0 1 .232-.145c1.338.009 2.677.006 4.021.006zm-6.154-3.647h1.48c.166 0 .376.05.486-.031.137-.1 0-.3-.022-.461a2.032 2.032 0 0 0-.526-1.167 1.805 1.805 0 0 0-1.722-.568 1.631 1.631 0 0 0-1.183.723 3.644 3.644 0 0 0-.441 1.21c-.075.345.085.3.29.3.546-.008 1.092-.006 1.638-.006z"/>
            <path id="Path_2411" d="M521.866 6105.291a6.7 6.7 0 0 1 .795-3.485 5.376 5.376 0 0 1 2.264-2.262 6.755 6.755 0 0 1 2.5-.748 7.142 7.142 0 0 1 4.269.775 5.559 5.559 0 0 1 2.055 2 6.514 6.514 0 0 1 .9 2.712 7.827 7.827 0 0 1-.284 3.3 6.069 6.069 0 0 1-1.234 2.243 5.808 5.808 0 0 1-3.238 1.825 7.86 7.86 0 0 1-2.181.146 6.7 6.7 0 0 1-2.349-.567 5.708 5.708 0 0 1-1.807-1.247 6.115 6.115 0 0 1-1.546-3.008 6.858 6.858 0 0 1-.144-1.684zm8.358.122a9.111 9.111 0 0 0-.052-1.185 3.527 3.527 0 0 0-.746-1.923 1.565 1.565 0 0 0-1.547-.508 1.818 1.818 0 0 0-1.4 1.486 6.805 6.805 0 0 0-.234 2.584 5.6 5.6 0 0 0 .436 1.936 1.619 1.619 0 0 0 1.494 1.037 1.774 1.774 0 0 0 1.674-1.217 5.23 5.23 0 0 0 .375-2.21z"/>
            <path id="Path_2412" d="M541.679 6111.808a6.646 6.646 0 0 1-3.407-.8 5.525 5.525 0 0 1-2.5-2.808 7.908 7.908 0 0 1-.531-2.255 7.248 7.248 0 0 1 .758-4.088 5.4 5.4 0 0 1 2.177-2.254 6.623 6.623 0 0 1 2.639-.809 7.078 7.078 0 0 1 4.107.7 5.476 5.476 0 0 1 2.553 2.846 7.568 7.568 0 0 1 .553 2.933 7.1 7.1 0 0 1-.693 3.254 5.647 5.647 0 0 1-3.483 2.962 6.77 6.77 0 0 1-2.173.319zm1.929-6.513a6.272 6.272 0 0 0-.379-2.284 1.892 1.892 0 0 0-.98-1.1 1.658 1.658 0 0 0-2.026.552 4.4 4.4 0 0 0-.631 2.289 8.169 8.169 0 0 0 .035 1.44 4.588 4.588 0 0 0 .525 1.827 1.534 1.534 0 0 0 1.33.823 1.844 1.844 0 0 0 1.753-1.3 6.76 6.76 0 0 0 .373-2.247z"/>
            <path id="Path_2413" d="M516.468 6102.768q0-4.2-.005-8.4c0-.218.049-.273.27-.271q1.97.018 3.94 0c.2 0 .244.045.243.243q-.009 8.43 0 16.86c0 .2-.043.246-.242.244q-1.984-.015-3.967 0c-.2 0-.244-.045-.244-.243q.012-4.218.005-8.433z"/>
            <path id="Path_2414" d="M596.338 6105.229v-5.918c0-.187.029-.251.237-.249q1.824.018 3.648 0c.222 0 .253.074.249.265-.012.537-.007 1.074 0 1.611 0 .079-.059.2.044.232s.122-.109.158-.175a4.311 4.311 0 0 1 1.471-1.664 3.438 3.438 0 0 1 2.518-.476c.158.028.2.1.2.263-.008 1.127-.006 2.255 0 3.382 0 .169 0 .232-.226.192a3.311 3.311 0 0 0-2.995.694 2.836 2.836 0 0 0-.8 1.539 7.507 7.507 0 0 0-.153 1.492q-.015 2.391 0 4.781c0 .2-.044.246-.243.244q-1.929-.015-3.859 0c-.2 0-.246-.042-.245-.242-.001-1.991-.004-3.981-.004-5.971z"/>
            <path id="Path_2415" d="M507.749 6104.089h1.559a1.644 1.644 0 0 1 1.622 2.051 1.689 1.689 0 0 1-1.656 1.444c-1.1.1-2.194.014-3.29.049-.115 0-.15-.029-.15-.146q.007-1.625 0-3.248c0-.142.059-.152.172-.151.581.003 1.162.001 1.743.001z" class="cls-1"/>
            <path id="Path_2416" d="M507.466 6097.852c.467 0 .934-.017 1.4 0a1.435 1.435 0 0 1 1.26.663 1.539 1.539 0 0 1-.975 2.307 5.007 5.007 0 0 1-.661-.017c-.828.007-1.656 0-2.485.006-.154 0-.229-.014-.226-.205.012-.854.01-1.709 0-2.562 0-.169.048-.2.206-.2.494.014.987.008 1.481.008z" class="cls-1"/>
            <path id="Path_2417" d="M613.322 6104.666a3.631 3.631 0 0 1-.581 2.21 1.684 1.684 0 0 1-2.787.017 3.454 3.454 0 0 1-.559-1.618 3.978 3.978 0 0 1 .278-2.114 1.788 1.788 0 0 1 1.373-1.142 1.839 1.839 0 0 1 2.005 1.236 3.393 3.393 0 0 1 .271 1.411z" class="cls-1"/>
            <path id="Path_2418" d="M577.931 6105.151a4.885 4.885 0 0 1-.37 2.139 1.752 1.752 0 0 1-2.739.755 2.887 2.887 0 0 1-.962-1.746 5.021 5.021 0 0 1-.1-1.555 3.537 3.537 0 0 1 .942-2.426 1.765 1.765 0 0 1 2.564.216 3.9 3.9 0 0 1 .623 1.7c.042.312.022.614.042.917z" class="cls-1"/>
            <path id="Path_2419" d="M589.205 6103.93h-1.638c-.205 0-.365.049-.29-.3a3.644 3.644 0 0 1 .441-1.21 1.631 1.631 0 0 1 1.183-.723 1.805 1.805 0 0 1 1.722.568 2.032 2.032 0 0 1 .526 1.167c.019.156.159.36.022.461-.11.081-.32.03-.486.031-.493.008-.985.006-1.48.006z" class="cls-1"/>
            <path id="Path_2420" d="M530.224 6105.413a5.23 5.23 0 0 1-.379 2.21 1.774 1.774 0 0 1-1.674 1.217 1.619 1.619 0 0 1-1.494-1.037 5.6 5.6 0 0 1-.436-1.936 6.805 6.805 0 0 1 .234-2.584 1.818 1.818 0 0 1 1.4-1.486 1.565 1.565 0 0 1 1.547.508 3.527 3.527 0 0 1 .746 1.923 9.111 9.111 0 0 1 .056 1.185z" class="cls-1"/>
            <path id="Path_2421" d="M543.608 6105.295a6.76 6.76 0 0 1-.373 2.241 1.844 1.844 0 0 1-1.753 1.3 1.534 1.534 0 0 1-1.33-.823 4.588 4.588 0 0 1-.525-1.827 8.169 8.169 0 0 1-.035-1.44 4.4 4.4 0 0 1 .631-2.289 1.658 1.658 0 0 1 2.026-.552 1.892 1.892 0 0 1 .98 1.1 6.272 6.272 0 0 1 .379 2.29z" class="cls-1"/>
        </g>
    </g>
</svg>
