<svg xmlns="http://www.w3.org/2000/svg" width="105.397" height="96.541" viewBox="0 0 105.397 96.541">
    <defs>
        <style>
            .cls-3{fill:#081f3b}
        </style>
    </defs>
    <g id="Group_4138" transform="translate(-887.049 -673.211)">
        <g id="Group_753" transform="translate(-5452.07 -4538.932)">
            <g id="Group_750">
                <path id="Path_1284" fill="#eff4fa" d="M6339.745 5239.092c5.319 20.872-1.842 37.96.719 48.019s13.729 29.708 60 17.92 45.821-41.935 43-53c-13.2-51.806-113.139-49.906-103.718-12.939zm0 0"/>
            </g>
            <path id="Path_1285" fill="#a4aec0" d="M6427.323 5254.173a4.671 4.671 0 1 1 2.832 5.969 4.677 4.677 0 0 1-2.832-5.969zm5.867 2.091a1.557 1.557 0 1 0-1.99.945 1.56 1.56 0 0 0 1.99-.945zm0 0"/>
            <g id="Group_752">
                <g id="Group_751">
                    <path id="Path_1286" d="M6397.028 5228.228v2.344h9.79a6.648 6.648 0 0 1 6.641 6.64v.26a6.641 6.641 0 0 1-13.173.912h3.412v-2.344h-5.859v1.172a8.994 8.994 0 0 0 8.984 8.985c.115 0 .232 0 .349-.008a9.013 9.013 0 0 0 8.628-8.629c0-.116.007-.232.007-.348a8.994 8.994 0 0 0-8.984-8.984zm0 0" class="cls-3"/>
                    <path id="Path_1287" d="M6367.094 5246.189c.117 0 .234.007.349.007a8.994 8.994 0 0 0 8.984-8.984v-1.172h-5.859v2.344h3.412a6.652 6.652 0 0 1-6.537 5.469c-.086 0-.172 0-.259-.006a6.661 6.661 0 0 1-6.376-6.375v-.26a6.646 6.646 0 0 1 6.64-6.64h27.242v-2.344h-27.242a8.994 8.994 0 0 0-8.984 8.984c0 .116 0 .231.007.348a9.015 9.015 0 0 0 8.628 8.629zm0 0" class="cls-3"/>
                    <path id="Path_1288" fill="#e34" d="M6425.021 5281.352v-7.673l-13.657-1.743-.3 2.325 11.611 1.482v5.609h-22.109v2.343h24.14v2.344h-58.2v2.344h60.546v-7.031zm0 0"/>
                    <path id="Path_1289" d="M6349.553 5283.695h48.671v-2.343h-9.924v-2.452a6.641 6.641 0 0 1 6.627-6.641 6.808 6.808 0 0 1 .855.054l12.958 1.655.3-2.326-.423-.053v-23.124h-2.344v22.824l-3.281-.419v-18.655a4.3 4.3 0 0 0-8.594 0v17.716a8.894 8.894 0 0 0-2.969.7v-18.413a4.3 4.3 0 1 0-8.593 0v18.413a8.888 8.888 0 0 0-2.969-.7v-17.716a4.3 4.3 0 1 0-8.593 0v18.655l-3.282.419v-22.824h-2.344v23.123l-16.406 2.094v7.673h-2.031v7.031h16.953v-2.344h-14.609zm47.187-31.483a1.953 1.953 0 1 1 3.906 0v18.356l-3.906-.5zm-11.562 0a1.952 1.952 0 1 1 3.9 0v19.876a1.99 1.99 0 1 1-3.9 0zm-11.563 0a1.953 1.953 0 1 1 3.906 0v17.858l-3.906.5zm-22.031 23.531l26.893-3.433a6.814 6.814 0 0 1 .855-.054 6.641 6.641 0 0 1 6.627 6.641v2.455h-34.375zm0 0" class="cls-3"/>
                    <path id="Rectangle_202" d="M0 0H2.344V2.344H0z" class="cls-3" transform="translate(6390.646 5236.04)"/>
                    <path id="Rectangle_203" d="M0 0H2.344V2.344H0z" class="cls-3" transform="translate(6381.271 5236.04)"/>
                    <path id="Rectangle_204" d="M0 0H2.343V2.344H0z" class="cls-3" transform="translate(6385.959 5236.04)"/>
                    <path id="Rectangle_205" d="M0 0H2.344V2.344H0z" class="cls-3" transform="translate(6406.349 5236.04)"/>
                    <path id="Rectangle_206" d="M0 0H2.344V2.344H0z" class="cls-3" transform="translate(6365.568 5236.04)"/>
                </g>
            </g>
        </g>
    </g>
</svg>
