<svg xmlns="http://www.w3.org/2000/svg" width="112.592" height="16.638" viewBox="0 0 112.592 16.638">
    <defs>
        <style>
            .cls-1{fill:#fefefe}.cls-2{fill:#292526}.cls-5{fill:#f26f21}
        </style>
    </defs>
    <g id="Group_979" transform="translate(-769.454 -6096.486)">
        <g id="Group_978">
            <path id="Path_2436" d="M781.976 6112.055h.025l-.009-.023c-.164-.38-.325-.762-.491-1.141q-1.8-4.11-3.591-8.22a4.6 4.6 0 0 0-.716-1.247 2.784 2.784 0 0 0-2.254-1.036 3.1 3.1 0 0 0-2.741 4.5 3.6 3.6 0 0 0 1.248 1.327q3.422 2.338 6.838 4.684.845.582 1.691 1.156zm55.518-4.385c-.047-.057-.075-.09-.1-.124l-6.523-8.507a.2.2 0 0 0-.178-.086h-7.277c-.108 0-.136.025-.136.135v13.552c0 .1.022.13.127.13q2.451-.006 4.9 0c.106 0 .135-.021.135-.132q-.006-4.274 0-8.545a.209.209 0 0 1 .013-.122l.087.113 6.4 8.6a.2.2 0 0 0 .177.087h7.4c.114 0 .131-.034.131-.138q-.006-2.5 0-5v-8.568c0-.085-.016-.115-.11-.115q-2.473.006-4.946 0c-.086 0-.1.023-.1.106v4.951 3.663zm20.808-2.242a1.9 1.9 0 0 0 .291-.048 3.342 3.342 0 0 0 2.529-2.823 2.266 2.266 0 0 0-.78-2.023 4.732 4.732 0 0 0-1.618-.9 12.56 12.56 0 0 0-4.146-.672c-3.357-.013-6.715 0-10.072-.007-.12 0-.139.034-.139.143v13.541c0 .111.029.133.136.133h10.231a16.32 16.32 0 0 0 2.582-.185 7.437 7.437 0 0 0 2.435-.766 3.5 3.5 0 0 0 1.476-1.438 3.753 3.753 0 0 0 .4-1.867 2.545 2.545 0 0 0-.63-1.643 3.991 3.991 0 0 0-1.465-1.034 6.646 6.646 0 0 0-1.232-.411zm-39.393-1.8h2.762c.106 0 .122-.032.115-.126a3.153 3.153 0 0 0-.423-1.357 5.247 5.247 0 0 0-2.085-1.97 10.747 10.747 0 0 0-3.356-1.14 20.572 20.572 0 0 0-3.4-.318 17.139 17.139 0 0 0-3.335.231 10.639 10.639 0 0 0-3.819 1.4 7.512 7.512 0 0 0-3.023 3.429 5.012 5.012 0 0 0-.443 2.686 6.669 6.669 0 0 0 1.816 3.772 8.1 8.1 0 0 0 2.826 1.912 13.154 13.154 0 0 0 4.244.928 20.673 20.673 0 0 0 2.815-.019 16.183 16.183 0 0 0 2.835-.437 9.992 9.992 0 0 0 3.148-1.334 5.568 5.568 0 0 0 1.808-1.851 2.861 2.861 0 0 0 .388-1.146c.01-.1-.007-.14-.125-.14-1.83.005-3.66 0-5.49 0a.277.277 0 0 1-.045 0c-.058-.007-.085.012-.1.075a1.693 1.693 0 0 1-.161.433 2.677 2.677 0 0 1-1.663 1.318 5.45 5.45 0 0 1-2.4.183 3.462 3.462 0 0 1-2.545-1.507 4.6 4.6 0 0 1-.447-4.561 3.483 3.483 0 0 1 2.507-2.118 5.922 5.922 0 0 1 2.192-.077 3.967 3.967 0 0 1 1.509.476 2.061 2.061 0 0 1 1 1.161.111.111 0 0 0 .131.094c.923.005 1.844.006 2.764.006zm60.258 0h2.762c.108 0 .121-.034.114-.126a3.3 3.3 0 0 0-.528-1.532 5.376 5.376 0 0 0-1.972-1.79 10.773 10.773 0 0 0-3.367-1.145 19.533 19.533 0 0 0-2.832-.3 17.911 17.911 0 0 0-4.122.257 10.634 10.634 0 0 0-3.442 1.264 7.641 7.641 0 0 0-3.036 3.216 5.753 5.753 0 0 0-.6 2.047 5.167 5.167 0 0 0 .25 2.017 7.04 7.04 0 0 0 3.177 3.98 11.219 11.219 0 0 0 4.681 1.489 18.236 18.236 0 0 0 2.519.1 18.725 18.725 0 0 0 3.214-.327 10.891 10.891 0 0 0 3.608-1.332 5.954 5.954 0 0 0 1.91-1.767 3.1 3.1 0 0 0 .537-1.363c.02-.167.022-.167-.145-.167h-5.365c-.207 0-.207 0-.273.2l-.014.043a2.514 2.514 0 0 1-1.6 1.52 5.231 5.231 0 0 1-3.149.13 3.369 3.369 0 0 1-2.108-1.578 4.631 4.631 0 0 1-.292-4.437 3.487 3.487 0 0 1 2.395-2.033 5.838 5.838 0 0 1 2.257-.1 3.983 3.983 0 0 1 1.532.48 2.068 2.068 0 0 1 1 1.16.111.111 0 0 0 .13.095l2.759.002zm-97.129 7.318l.021-.006.222-1.565.4-2.795.42-2.963.4-2.795a6.3 6.3 0 0 0 .1-1.539 3.054 3.054 0 0 0-.7-1.72 3.093 3.093 0 0 0-3.689-.731 3.049 3.049 0 0 0-1.623 1.972 3.212 3.212 0 0 0 .2 2.13l3.823 9.006c.139.339.288.674.426 1.009zm3.82.021l.053-.115.8-1.9q1.7-4.029 3.391-8.058a3.138 3.138 0 0 0 .254-1.754 3.084 3.084 0 0 0-1.775-2.37 2.958 2.958 0 0 0-2.66.051 2.748 2.748 0 0 0-1.146 1 3.306 3.306 0 0 0-.526 1.9c0 .095.019.129.123.127.271-.006.543 0 .814.007a.519.519 0 0 1 .325.113c.054.043.072.086-.007.126q-.2.1-.391.2a1.105 1.105 0 0 0-.556.64 1.867 1.867 0 0 0-.065.849c.118.827.246 1.653.369 2.479l.462 3.115q.211 1.424.425 2.847c.033.244.07.481.11.746zm.084 1.045l.023.016c.04-.027.081-.053.121-.081l7.226-4.98a17.916 17.916 0 0 0 1.513-1.07 2.975 2.975 0 0 0 1.05-3.22 3.074 3.074 0 0 0-2.956-2.267 2.79 2.79 0 0 0-1.951.731 4.094 4.094 0 0 0-.993 1.479q-1.885 4.392-3.773 8.782l-.26.613zm-3.508 1.083l-.62-.433-5.834-4.066c-.575-.4-1.142-.814-1.732-1.193a3.117 3.117 0 0 0-2.1-.512 2.97 2.97 0 0 0-2.527 2.08 2.937 2.937 0 0 0-.046 1.815 3.121 3.121 0 0 0 3.052 2.331h9.673a.212.212 0 0 0 .134-.017zm3.046.021h9.97a2.842 2.842 0 0 0 .91-.149 3.091 3.091 0 0 0 2.015-2.845 3.045 3.045 0 0 0-1-2.4 2.918 2.918 0 0 0-1.832-.815 3.067 3.067 0 0 0-2.019.6q-3.749 2.61-7.492 5.226c-.178.123-.352.246-.552.386z" class="cls-1"/>
            <path id="Path_2437" d="M837.494 6107.67v-3.66-4.951c0-.083.018-.107.1-.106h4.946c.094 0 .11.03.11.115v13.568c0 .1-.017.138-.131.138q-3.7-.006-7.4 0a.2.2 0 0 1-.177-.087l-6.4-8.6-.087-.113a.209.209 0 0 0-.013.122v8.545c0 .111-.029.132-.135.132q-2.451-.006-4.9 0c-.1 0-.128-.029-.127-.13v-13.552c0-.11.028-.135.136-.135q3.639.006 7.277 0a.2.2 0 0 1 .178.086q3.26 4.254 6.523 8.507l.1.121z" class="cls-2"/>
            <path id="Path_2438" d="M858.3 6105.428a6.646 6.646 0 0 1 1.233.4 3.991 3.991 0 0 1 1.465 1.034 2.545 2.545 0 0 1 .63 1.643 3.753 3.753 0 0 1-.4 1.867 3.5 3.5 0 0 1-1.476 1.438 7.437 7.437 0 0 1-2.435.766 16.32 16.32 0 0 1-2.582.185h-10.231c-.107 0-.136-.022-.136-.133q.006-6.771 0-13.541c0-.109.019-.144.139-.143 3.357 0 6.715-.006 10.072.007a12.56 12.56 0 0 1 4.146.672 4.732 4.732 0 0 1 1.618.9 2.266 2.266 0 0 1 .78 2.023 3.342 3.342 0 0 1-2.529 2.823 1.9 1.9 0 0 1-.294.059zm-6.333 1.533v-.008h-2.15c-.057 0-.1-.011-.1.082.005.791 0 1.582 0 2.373 0 .063.017.082.081.081h.611c1.24-.014 2.479.031 3.718-.023a1.885 1.885 0 0 0 1.036-.344 1.051 1.051 0 0 0 .046-1.774 1.778 1.778 0 0 0-1.1-.381c-.715-.014-1.427-.006-2.14-.006zm-.1-5.318h-2c-.083 0-.107.017-.107.1.005.618 0 1.235 0 1.853 0 .084.015.115.108.114h3.939a1.584 1.584 0 0 0 .959-.281.917.917 0 0 0 .38-.949 1.042 1.042 0 0 0-.586-.679 1.627 1.627 0 0 0-.756-.157c-.646-.003-1.291-.001-1.936-.001z" class="cls-2"/>
            <path id="Path_2439" d="M818.909 6103.631h-2.761a.111.111 0 0 1-.131-.094 2.061 2.061 0 0 0-1-1.161 3.967 3.967 0 0 0-1.509-.476 5.922 5.922 0 0 0-2.192.077 3.483 3.483 0 0 0-2.507 2.118 4.6 4.6 0 0 0 .447 4.561 3.462 3.462 0 0 0 2.545 1.507 5.45 5.45 0 0 0 2.4-.183 2.677 2.677 0 0 0 1.663-1.318 1.693 1.693 0 0 0 .161-.433c.012-.063.039-.082.1-.075a.277.277 0 0 0 .045 0h5.49c.118 0 .135.039.125.14a2.861 2.861 0 0 1-.388 1.146 5.568 5.568 0 0 1-1.808 1.851 9.992 9.992 0 0 1-3.148 1.334 16.183 16.183 0 0 1-2.835.437 20.673 20.673 0 0 1-2.815.019 13.154 13.154 0 0 1-4.244-.928 8.1 8.1 0 0 1-2.826-1.912 6.669 6.669 0 0 1-1.816-3.772 5.012 5.012 0 0 1 .443-2.686 7.512 7.512 0 0 1 3.023-3.429 10.639 10.639 0 0 1 3.819-1.4 17.139 17.139 0 0 1 3.335-.231 20.572 20.572 0 0 1 3.4.318 10.747 10.747 0 0 1 3.356 1.14 5.247 5.247 0 0 1 2.085 1.97 3.153 3.153 0 0 1 .423 1.357c.007.094-.009.126-.115.126-.924-.005-1.844-.003-2.765-.003z" class="cls-2"/>
            <path id="Path_2440" d="M879.167 6103.631h-2.761a.111.111 0 0 1-.13-.095 2.068 2.068 0 0 0-1-1.16 3.983 3.983 0 0 0-1.532-.48 5.838 5.838 0 0 0-2.257.1 3.487 3.487 0 0 0-2.395 2.033 4.631 4.631 0 0 0 .292 4.437 3.369 3.369 0 0 0 2.108 1.578 5.231 5.231 0 0 0 3.149-.13 2.514 2.514 0 0 0 1.6-1.52l.014-.043c.066-.2.066-.2.273-.2h5.365c.167 0 .165 0 .145.167a3.1 3.1 0 0 1-.537 1.363 5.954 5.954 0 0 1-1.91 1.767 10.891 10.891 0 0 1-3.608 1.332 18.725 18.725 0 0 1-3.214.327 18.236 18.236 0 0 1-2.519-.1 11.219 11.219 0 0 1-4.681-1.489 7.04 7.04 0 0 1-3.177-3.98 5.167 5.167 0 0 1-.25-2.017 5.753 5.753 0 0 1 .6-2.047 7.641 7.641 0 0 1 3.036-3.216 10.634 10.634 0 0 1 3.442-1.264 17.911 17.911 0 0 1 4.122-.257 19.533 19.533 0 0 1 2.832.3 10.773 10.773 0 0 1 3.367 1.145 5.376 5.376 0 0 1 1.972 1.79 3.3 3.3 0 0 1 .528 1.532c.007.092-.006.127-.114.126-.919-.001-1.839.001-2.76.001z" class="cls-2"/>
            <path id="Path_2441" fill="#c7234a" d="M782.038 6110.949c-.143-.335-.287-.67-.429-1.006q-1.913-4.5-3.823-9.006a3.212 3.212 0 0 1-.2-2.13 3.049 3.049 0 0 1 1.623-1.972 3.093 3.093 0 0 1 3.689.731 3.054 3.054 0 0 1 .7 1.72 6.3 6.3 0 0 1-.1 1.539l-.4 2.795-.42 2.963-.4 2.795-.222 1.565z"/>
            <path id="Path_2442" fill="#6460aa" d="M785.858 6110.97c-.04-.265-.077-.5-.112-.74l-.425-2.847q-.232-1.556-.462-3.115c-.123-.826-.251-1.652-.369-2.479a1.867 1.867 0 0 1 .065-.849 1.105 1.105 0 0 1 .556-.64q.193-.1.391-.2c.079-.04.061-.083.007-.126a.519.519 0 0 0-.325-.113c-.271-.007-.543-.013-.814-.007-.1 0-.122-.032-.123-.127a3.306 3.306 0 0 1 .526-1.9 2.748 2.748 0 0 1 1.146-1 2.958 2.958 0 0 1 2.66-.051 3.084 3.084 0 0 1 1.775 2.37 3.138 3.138 0 0 1-.254 1.754q-1.7 4.028-3.391 8.058l-.8 1.9c-.009.027-.025.056-.051.112z"/>
            <path id="Path_2443" d="M781.976 6112.055l-1.691-1.152-6.838-4.684a3.6 3.6 0 0 1-1.248-1.327 3.1 3.1 0 0 1 2.741-4.5 2.784 2.784 0 0 1 2.254 1.036 4.6 4.6 0 0 1 .716 1.247q1.791 4.112 3.591 8.22c.166.379.327.761.491 1.141z" class="cls-5"/>
            <path id="Path_2444" fill="#0189cf" d="M785.942 6112.015c.087-.2.173-.407.26-.61l3.773-8.782a4.094 4.094 0 0 1 .993-1.479 2.79 2.79 0 0 1 1.951-.731 3.074 3.074 0 0 1 2.956 2.267 2.975 2.975 0 0 1-1.05 3.22 17.916 17.916 0 0 1-1.513 1.07q-3.61 2.492-7.226 4.98c-.04.028-.081.054-.121.081z"/>
            <path id="Path_2445" fill="#fcb714" d="M782.434 6113.1a.212.212 0 0 1-.131.022h-9.676a3.121 3.121 0 0 1-3.052-2.331 2.937 2.937 0 0 1 .046-1.815 2.97 2.97 0 0 1 2.527-2.08 3.117 3.117 0 0 1 2.1.512c.59.379 1.157.792 1.732 1.193l5.834 4.066z"/>
            <path id="Path_2446" fill="#22b24c" d="M785.48 6113.119c.2-.14.374-.263.549-.384l7.492-5.226a3.067 3.067 0 0 1 2.019-.6 2.918 2.918 0 0 1 1.832.815 3.045 3.045 0 0 1 1 2.4 3.091 3.091 0 0 1-2.015 2.845 2.842 2.842 0 0 1-.91.149h-9.9z"/>
            <path id="Path_2447" d="M781.992 6112.037l.009.023h-.025z" class="cls-5"/>
            <path id="Path_2448" d="M851.969 6106.961c.713 0 1.425-.008 2.138 0a1.778 1.778 0 0 1 1.1.381 1.051 1.051 0 0 1-.046 1.774 1.885 1.885 0 0 1-1.036.344c-1.239.054-2.478.009-3.718.023h-.611c-.064 0-.081-.018-.081-.081v-2.373c0-.093.046-.082.1-.082h2.15z" class="cls-1"/>
            <path id="Path_2449" d="M851.868 6101.643h1.935a1.627 1.627 0 0 1 .756.157 1.042 1.042 0 0 1 .586.679.917.917 0 0 1-.38.949 1.584 1.584 0 0 1-.959.281h-3.939c-.093 0-.109-.03-.108-.114v-1.853c0-.087.024-.1.107-.1.666.002 1.334.001 2.002.001z" class="cls-1"/>
        </g>
    </g>
</svg>
