<?xml version="1.0" encoding="UTF-8"?> <svg xmlns="http://www.w3.org/2000/svg" width="410.713" height="48.28" viewBox="0 0 410.713 48.28"><defs><style> .cls-1{fill:#081f3b} </style></defs><g id="Group_93" transform="translate(-1148.63 -1083.542)"><g id="Group_79"><path id="Path_289" d="M1178.662 1100.582c-.359 4.8-.73 9.594-1.062 14.393-.043.62-.295.764-.843.746-2.051-.068-1.99.388-1.767-1.83.423-4.2.756-8.4 1.131-12.606.127-1.424.286-2.845.4-4.269.033-.426.159-.663.618-.619.069.006.139 0 .209 0 .977.012 2.129-.292 2.882.124.78.433.689 1.728.95 2.65 1.1 3.887 2.157 7.784 3.248 11.737.514-1.84 1.019-3.656 1.528-5.471.772-2.751 1.566-5.495 2.306-8.254a.91.91 0 0 1 1.1-.8c.905.051 1.933-.244 2.693.093.941.418.45 1.626.533 2.451.523 5.167.925 10.346 1.34 15.525.032.4.343 1.042-.239 1.188a4.561 4.561 0 0 1-2.276-.029c-.214-.057-.166-.357-.182-.562l-.856-11.16c-.1-1.287-.173-2.574-.263-3.927l-3.087 10.649c-.416 1.439-.885 2.865-1.222 4.323-.177.763-.616.846-1.215.775-.618-.074-1.386.339-1.67-.723-1.267-4.744-2.59-9.472-3.893-14.208-.114-.266-.309-.495-.3-.7a.48.48 0 0 1-.057.5" class="cls-1"></path><path id="Path_290" d="M1258.067 1107.265c0 1.571.009 3.143 0 4.713a8.171 8.171 0 0 0 .275 1.855c.087.4.694.71.4 1.079a3.31 3.31 0 0 1-1.466 1.137c-.6.184-.933-.491-1.124-.977-.268-.68-.457-.772-1.035-.232a5.186 5.186 0 0 1-4.6 1.187 3.483 3.483 0 0 1-3.128-3.607c-.038-3.281.018-6.564-.032-9.844-.013-.853.527-.849 1.051-.944 1.546-.28 1.548-.271 1.548 1.3 0 2.758-.016 5.516.006 8.274.015 1.857.55 2.62 1.93 2.89a3.376 3.376 0 0 0 3.59-2.875c.021-2.687.058-5.377-.021-8.063-.031-1.052.268-1.48 1.333-1.582 1.279-.124 1.272-.206 1.272 1.086v4.608" class="cls-1"></path><path id="Path_291" d="M1300.278 1101.117a8.435 8.435 0 0 1 3.558.746c.395.177.986.335.493.924-.35.417-.117 1.6-1.315 1.026a6.164 6.164 0 0 0-2.919-.719 2.188 2.188 0 0 0-2.3 1.865c-.126 1 .5 1.728 1.8 2.061.877.224 1.776.371 2.641.631a3.717 3.717 0 0 1 3.006 3.22 4.2 4.2 0 0 1-2.362 4.506c-2.748 1.347-5.451.8-8.031-.523-.858-.439.051-.994.168-1.483.11-.46.363-.695.907-.385a9.686 9.686 0 0 0 3.147 1.083 3.925 3.925 0 0 0 1.857-.117 2.035 2.035 0 0 0 1.56-1.993 1.864 1.864 0 0 0-1.42-1.96 22.592 22.592 0 0 0-2.434-.589c-2.61-.545-3.841-1.961-3.677-4.255a4.409 4.409 0 0 1 4.272-3.986c.347-.029.7-.035 1.045-.052" class="cls-1"></path><path id="Path_292" d="M1212.352 1097.555c-.065 1.175-.106 2.251-.191 3.324-.048.607.194.8.779.766.662-.04 1.327-.018 1.991 0 .217.005.506-.093.555.291a1.707 1.707 0 0 1-1.388 1.59c-1.931.045-1.931.045-1.931 2.011 0 2.2-.005 4.4 0 6.6.006 1.706.7 2.313 2.354 1.986.486-.095.759-.184.858.447.083.532.319 1.015-.442 1.243a6.128 6.128 0 0 1-3.1.181c-1.635-.358-2.345-1.359-2.362-3.327-.022-2.689-.027-5.379.008-8.068.01-.755-.1-1.22-1-1.082-.794.121-.68-.466-.689-.949-.009-.5-.068-1.047.71-.928.8.123 1.1-.216.97-.987a.627.627 0 0 1 0-.106c.114-2.569.172-2.631 2.882-2.991" class="cls-1"></path><path id="Path_293" d="M1277.984 1097.566c-.069 1.036-.072 1.979-.21 2.9-.152 1.017.268 1.3 1.19 1.175a2.685 2.685 0 0 1 .938.008c.4.093 1.078-.379 1.165.382a1.417 1.417 0 0 1-1.34 1.491c-1.959.05-1.959.05-1.959 1.977 0 2.2-.01 4.393 0 6.59.01 1.745.706 2.362 2.426 2.025.576-.113.736.011.83.513.091.487.272.956-.433 1.163a5.788 5.788 0 0 1-3.493.095 2.512 2.512 0 0 1-1.909-2.339c-.253-2.959-.081-5.921-.1-8.882-.007-.783-.074-1.289-1.043-1.152-.818.116-.635-.525-.647-.979s-.1-1.008.628-.888c1.014.167 1.136-.427 1.169-1.207.107-2.551.118-2.551 2.79-2.873" class="cls-1"></path><path id="Path_294" d="M1154.949 1096.767a2.753 2.753 0 0 1 2.318.989c1.712 1.974 3.387 3.979 5.107 5.946.389.445.027.6-.192.831-.233.245-.458.584-.849.181-1-1.026-2.044-2.007-2.984-3.083a21.354 21.354 0 0 0-1.956-2.032 2.122 2.122 0 0 0-3.238.147c-.612.618-1.169 1.292-1.764 1.927-.5.538-.257.975.083 1.485.154.229.757.479.2.921-.435.343-.829.467-1.257-.009-.279-.312-.608-.578-.9-.882a1.443 1.443 0 0 1-.108-2.147c1.1-1.2 2.261-2.361 3.433-3.5a2.692 2.692 0 0 1 2.106-.775" class="cls-1"></path><path id="Path_295" d="M1161.862 1115.856a2.886 2.886 0 0 1-2.3-1c-1.585-1.846-3.065-3.78-4.716-5.573-.315-.343-.808-.756-.127-1.291.342-.268.552-.329.87 0 1.377 1.431 2.847 2.783 4.136 4.289 1.164 1.359 3.1 2.017 4.328.088a4.681 4.681 0 0 1 .95-.968c.787-.668 1.082-1.358.215-2.182a.439.439 0 0 1-.02-.722c.258-.222.534-.507.91-.208a7.3 7.3 0 0 1 1.185 1.014 1.515 1.515 0 0 1 .037 2.3c-1.334 1.361-2.438 2.959-4.15 3.919a2.282 2.282 0 0 1-1.318.337" class="cls-1"></path><path id="Path_296" d="M1168.136 1102.387a3.491 3.491 0 0 1-1.311 2.466c-1.881 1.556-3.781 3.092-5.642 4.673-.46.391-.691.2-1.046-.11-.469-.407-.175-.642.118-.905 1.377-1.236 2.572-2.662 4.031-3.814a4.649 4.649 0 0 0 1.265-1.382 2.008 2.008 0 0 0-.364-2.662c-.648-.634-1.338-1.225-1.992-1.852-.614-.587-1.14-.282-1.669.124-.263.2-.491.552-.859.112-.315-.375-.413-.713-.02-1.091a10.311 10.311 0 0 1 1.121-1.094 1.457 1.457 0 0 1 2 .069c1.044.978 2.1 1.939 3.145 2.922a3.89 3.89 0 0 1 1.221 2.544" class="cls-1"></path><path id="Path_297" d="M1148.63 1110.422v-1.068a3.615 3.615 0 0 1 1.325-1.953c1.858-1.527 3.727-3.04 5.554-4.6.454-.389.678-.242 1.029.085.42.391.221.614-.1.92-1.453 1.4-2.9 2.82-4.4 4.177-1.778 1.605-1.712 2.728.119 4.3a6.145 6.145 0 0 1 .938.831 1.291 1.291 0 0 0 2.195.182c.29-.275.518-.307.758.042.195.283.467.531.093.893-.351.338-.628.754-.992 1.073a1.5 1.5 0 0 1-2.377-.037c-.9-.821-1.8-1.654-2.7-2.477a4.473 4.473 0 0 1-1.454-2.364" class="cls-1"></path><path id="Path_298" d="M1246.47 1117.1c-2.123.213-3.6-1.193-5.436-2.055a8.7 8.7 0 0 0 3.071-3.782 13.977 13.977 0 0 0-.18-10.692c-1.328-3.119-3.977-4.566-7.591-4.409a6.979 6.979 0 0 0-6.442 4.978 14.935 14.935 0 0 0-.361 8.645 7.526 7.526 0 0 0 7.027 6.252 9.4 9.4 0 0 1 1.227.213c2.162.551 3.836 2.062 5.82 2.965h2.305c.634-.366.736-1.054.984-1.647.164-.392-.09-.5-.424-.468m-9.185-3.189a4.274 4.274 0 0 1-4.312-2.875 16.031 16.031 0 0 1-.258-9.475 4.454 4.454 0 0 1 8.6-.012 8.059 8.059 0 0 1 .358 1.416 18.793 18.793 0 0 1 .254 3.207 13.784 13.784 0 0 1-.641 4.767 4.159 4.159 0 0 1-4 2.972" class="cls-1"></path><path id="Path_299" d="M1227.451 1114.418c-1.058-.955-.941-2.209-.951-3.4-.016-1.986.119-3.972.117-5.959a3.441 3.441 0 0 0-3.459-3.688 10.015 10.015 0 0 0-5.758 1.151c-1.15.619-1.114.567-.468 1.694.393.682.711.755 1.354.312a6.353 6.353 0 0 1 2.919-1.054c1.972-.221 2.7.382 2.852 2.333.068.878-.091 1.3-1.146 1.256a8.094 8.094 0 0 0-5.536 1.494c-1.552 1.212-1.724 2.9-1.4 4.65a3.434 3.434 0 0 0 2.953 2.759 5.532 5.532 0 0 0 5.461-1.534c.232.359.4.669.614.939.876 1.09 1.289 1.09 2.081-.034.188-.266.782-.539.363-.917m-4.775-.8a2.505 2.505 0 0 1-3.546-.373 2.847 2.847 0 0 1 .836-3.8 6.393 6.393 0 0 1 3.44-.666c.4 0 .537.237.526.614-.013.453 0 .906 0 1.664a2.413 2.413 0 0 1-1.253 2.561" class="cls-1"></path><path id="Path_300" d="M1271.906 1104.6a5.969 5.969 0 0 0-10.538-.221 10.227 10.227 0 0 0-.773 6.414 6.053 6.053 0 0 0 9.845 3.994c1.852-1.514 2.266-3.668 2.324-5.923a9.306 9.306 0 0 0-.858-4.264m-2.572 7.49a2.856 2.856 0 0 1-2.727 2.063 2.74 2.74 0 0 1-2.734-2.164 12.055 12.055 0 0 1-.094-6.595 2.851 2.851 0 0 1 5.447-.188 9.529 9.529 0 0 1 .546 3.774 7.9 7.9 0 0 1-.438 3.11" class="cls-1"></path><path id="Path_301" d="M1199.314 1109.332c1.22.02 2.442.007 3.662.006 1.186 0 2.374-.036 3.558.013.686.03.851-.265.788-.864-.08-.763-.106-1.53-.2-2.29a5.159 5.159 0 0 0-3.851-4.7c-2.41-.508-4.579-.073-6.153 2.052-1.422 1.921-1.547 4.093-1.347 6.37.551 6.274 6.589 7.388 10.5 4.853.6-.386.713-.682.281-1.3-.4-.574-.6-.817-1.327-.3-2.372 1.68-6.521.989-6.564-3.109-.005-.587.118-.737.656-.728m1.051-5.755a2.69 2.69 0 0 1 3.633 1.237 6.061 6.061 0 0 1 .492 1.9c.086.526-.1.7-.592.7-.8-.009-1.6 0-2.4 0h-2.086c-.309 0-.607.029-.688-.43a3.889 3.889 0 0 1 1.64-3.406" class="cls-1"></path><path id="Path_302" d="M1285.525 1109.324c1.148.054 2.3.014 3.454.014h1.256c3.348 0 3.339 0 2.853-3.375-.528-3.676-3.685-5.45-7.326-4.337a5.577 5.577 0 0 0-3.85 4.8c-.441 2.614-.347 5.189 1.324 7.4 1.9 2.512 5.763 2.917 8.846 1.087.766-.454.91-.827.385-1.617-.462-.694-.764-.384-1.222-.1-3.1 1.9-6.389.4-6.555-2.96-.033-.667.11-.943.835-.909m-.811-2.366a3.53 3.53 0 0 1 2.2-3.548 2.4 2.4 0 0 1 2.581.675 4.117 4.117 0 0 1 1.037 2.981c0 .408-.368.343-.635.346-.732.009-1.464 0-2.2 0h-2.3c-.32 0-.609-.014-.686-.454" class="cls-1"></path></g><g id="Group_80"><path id="Path_303" d="M1353.77 1131.822a49.031 49.031 0 0 1-8.7-.736c-.984-.173-1.963-.353-2.93-.6a37.517 37.517 0 0 1-3.594-1.109 26.2 26.2 0 0 1-3.505-1.509 22.314 22.314 0 0 1-7.709-6.364 14.845 14.845 0 0 1-2.782-6.867 16.094 16.094 0 0 1 1.047-8.022 24.374 24.374 0 0 1 4.3-7.012 39.441 39.441 0 0 1 10.164-8.305 55.477 55.477 0 0 1 13.679-5.671 60.781 60.781 0 0 1 7.485-1.532c1.49-.209 2.987-.353 4.49-.446a55.229 55.229 0 0 1 5.94-.043 42.049 42.049 0 0 1 12.153 2.25 33.118 33.118 0 0 1 3.331 1.387 25.845 25.845 0 0 1 3.209 1.809 22.315 22.315 0 0 1 2.924 2.314 16.649 16.649 0 0 1 3.721 5.021 14.644 14.644 0 0 1 1.41 5.788 17.517 17.517 0 0 1-2.371 9.18 28.9 28.9 0 0 1-5.952 7.381 46.737 46.737 0 0 1-13.418 8.41 59.038 59.038 0 0 1-11.572 3.544 58.407 58.407 0 0 1-5.83.864 47.067 47.067 0 0 1-5.035.251c-.15 0-.3.014-.447.021m3.295-4.75c1.017-.014 2.033-.013 3.051-.065 1.491-.076 2.977-.193 4.457-.369a61.922 61.922 0 0 0 7.2-1.285 50.373 50.373 0 0 0 12.6-4.762 30.842 30.842 0 0 0 7.238-5.356 17.733 17.733 0 0 0 3.627-5.171 11.614 11.614 0 0 0 1.011-3.795 11.052 11.052 0 0 0-1.867-7.145 17.547 17.547 0 0 0-5.219-5.01 32.5 32.5 0 0 0-8.942-3.936 51.115 51.115 0 0 0-12.153-1.855 60.122 60.122 0 0 0-6.67.117c-2.1.154-4.183.4-6.256.744a55.607 55.607 0 0 0-12.826 3.708 36.938 36.938 0 0 0-9.411 5.674 20.492 20.492 0 0 0-4.638 5.412 12.316 12.316 0 0 0-1.694 5.262 11.052 11.052 0 0 0 1.98 7.156 17.38 17.38 0 0 0 4.661 4.55 29.752 29.752 0 0 0 7.092 3.51 47.612 47.612 0 0 0 11.841 2.429 46.925 46.925 0 0 0 4.918.187m13.793.79a1.5 1.5 0 0 0-3-.077 1.535 1.535 0 0 0 1.469 1.544 1.505 1.505 0 0 0 1.535-1.467m22.625-34.684a1.508 1.508 0 0 0-1.525 1.481 1.542 1.542 0 0 0 1.5 1.523 1.5 1.5 0 0 0 1.508-1.495 1.479 1.479 0 0 0-1.48-1.509m-41.285-5.718a1.5 1.5 0 0 0 1.511 1.487 1.5 1.5 0 1 0-.038-3.006 1.483 1.483 0 0 0-1.473 1.519m-24.108 33.13a1.491 1.491 0 0 0 1.492 1.5 1.5 1.5 0 1 0 0-3.006 1.489 1.489 0 0 0-1.492 1.5" class="cls-1"></path><path id="Path_304" d="M1352.651 1111.907a.854.854 0 0 0-.057.445v3.907c0 .331 0 .334-.336.337-.379 0-.759-.006-1.14 0-.174 0-.238-.056-.235-.233.009-.489 0-.977 0-1.466v-5.495-.286c-.005-.126.061-.161.175-.16.421 0 .841.009 1.262 0 .208-.006.274.15.369.274q1.594 2.088 3.184 4.175c.086.113.179.221.334.411v-.489-4.031c0-.331 0-.333.327-.336h1.18c.16 0 .223.059.208.215-.006.067 0 .135 0 .2v6.8c0 .068-.005.136 0 .2.012.152-.044.223-.206.22-.435-.006-.869-.012-1.3 0-.2.007-.286-.12-.385-.249q-.848-1.119-1.7-2.237l-1.68-2.208" class="cls-1"></path><path id="Path_305" d="M1375.979 1104.151v-4.191c0-.6 0-.6.594-.6h.936c.14 0 .2.055.186.193-.006.082 0 .163 0 .245v7.036a.134.134 0 0 1-.15.148h-1.464c-.163 0-.215-.151-.295-.253q-1.134-1.487-2.265-2.978c-.287-.378-.573-.756-.863-1.132a.885.885 0 0 0-.269-.282 1.13 1.13 0 0 0-.041.446v3.864c0 .333 0 .335-.327.338s-.624 0-.935 0c-.505 0-.446.019-.446-.43v-4.922c0-.664.007-1.329 0-1.993 0-.205.049-.294.27-.284a9.828 9.828 0 0 0 1.016 0 .561.561 0 0 1 .538.265q1.591 2.109 3.2 4.2a.8.8 0 0 0 .319.322" class="cls-1"></path><path id="Path_306" d="M1365.831 1108.994a.585.585 0 0 1 .283-.033q1.525 0 3.051.013a4.77 4.77 0 0 1 1.2.172 1.978 1.978 0 0 1 1.572 1.712 3.709 3.709 0 0 1-.053 1.531 2.02 2.02 0 0 1-1.076 1.36c-.061.03-.12.062-.178.1-.011.005-.015.021-.047.069l1.82 2.582c-.043.138-.138.1-.21.1-.516 0-1.031-.01-1.546.007a.479.479 0 0 1-.459-.255c-.433-.64-.889-1.265-1.316-1.909a.519.519 0 0 0-.531-.272 4.006 4.006 0 0 1-.61 0c-.181-.01-.231.065-.229.237.007.611 0 1.221 0 1.831 0 .356 0 .358-.35.36h-.977c-.428 0-.382 0-.382-.369v-3.213-3.622a.975.975 0 0 1 .029-.4m1.68 2.563v.935c0 .11.031.182.156.181a12.087 12.087 0 0 0 1.744-.052.871.871 0 0 0 .6-.31 1.4 1.4 0 0 0 .154-1.319c-.131-.412-.51-.509-.881-.531-.526-.032-1.055-.017-1.583-.027-.136 0-.194.047-.19.189.006.312 0 .623 0 .934" class="cls-1"></path><path id="Path_307" d="M1347.874 1104.279c.637.9 1.251 1.772 1.913 2.71a12 12 0 0 0-1.364.01 1.069 1.069 0 0 1-1.179-.614c-.323-.561-.735-1.072-1.1-1.611a.4.4 0 0 0-.4-.215c-.216.015-.433 0-.65 0-.277.007-.281.01-.283.305v1.79c0 .325-.005.328-.337.33-.38 0-.76-.005-1.139 0-.173 0-.24-.058-.235-.236.01-.408 0-.814 0-1.221v-5.727-.284c0-.094.059-.142.152-.145h.122c1.057 0 2.116 0 3.174.009a4.362 4.362 0 0 1 1.279.215 1.909 1.909 0 0 1 1.4 1.541 3.847 3.847 0 0 1 0 1.534 2.035 2.035 0 0 1-1.172 1.516c-.047.023-.092.051-.179.1m-2.017-3.451h-.851c-.134 0-.195.049-.194.191.005.609.007 1.219 0 1.829 0 .192.093.223.251.219.446-.007.894-.007 1.341-.012a1.722 1.722 0 0 0 .2-.016.974.974 0 0 0 .955-1.055 2.026 2.026 0 0 0-.027-.4.786.786 0 0 0-.624-.668 4.483 4.483 0 0 0-1.052-.083" class="cls-1"></path><path id="Path_308" d="M1360.957 1099.364a11.348 11.348 0 0 1 1.974.092 3.352 3.352 0 0 1 2.825 2.376 4.524 4.524 0 0 1-.006 2.645 3.312 3.312 0 0 1-2.721 2.385 6.1 6.1 0 0 1-1.172.121c-.855.012-1.71 0-2.563.009-.2 0-.29-.044-.289-.269.007-2.36 0-4.72.006-7.08 0-.273.008-.276.305-.278h1.641m-.239 3.787v2.114c0 .12.021.215.174.212a7.983 7.983 0 0 0 1.74-.092 1.95 1.95 0 0 0 1.555-1.805 4.606 4.606 0 0 0 0-.77 1.979 1.979 0 0 0-1.706-1.891 9.889 9.889 0 0 0-1.5-.082c-.226-.01-.273.082-.271.283.008.677 0 1.354 0 2.031" class="cls-1"></path><path id="Path_309" d="M1346.008 1110.474c0 .473.01.893-.005 1.311-.008.217.07.276.278.273.8-.009 1.6-.008 2.4 0 .227 0 .516-.1.669.046.171.161.056.46.062.7.005.215.093.485-.039.632-.153.17-.436.064-.662.066-.787.009-1.573 0-2.36 0-.376 0-.344-.013-.344.36 0 .325.01.651 0 .976-.009.2.071.251.261.249 1.057-.007 2.115-.005 3.173 0 .554 0 .479-.06.484.466 0 .272-.008.544 0 .814.008.181-.069.244-.239.231-.067-.005-.135 0-.2 0h-4.76a1.481 1.481 0 0 0-.163 0c-.185.02-.289-.038-.263-.245a.714.714 0 0 0 0-.122v-6.957a.575.575 0 0 1 .03-.281.81.81 0 0 1 .36-.031h4.719c.433 0 .378-.044.383.4v.732c0 .433.042.38-.4.381h-2.93z" class="cls-1"></path><path id="Path_310" d="M1372.7 1116.6c.1-.244.183-.427.262-.61.961-2.227 1.927-4.452 2.877-6.683a.466.466 0 0 1 .539-.349 5.121 5.121 0 0 0 .894 0 .465.465 0 0 1 .539.346c.571 1.361 1.165 2.714 1.751 4.069q.63 1.456 1.256 2.91a.608.608 0 0 1 .083.315h-1.651c-.142 0-.168-.115-.21-.214-.166-.385-.341-.768-.495-1.158a.375.375 0 0 0-.414-.288q-1.3.025-2.6 0a.38.38 0 0 0-.417.286c-.156.389-.337.769-.491 1.16a.3.3 0 0 1-.334.219c-.5-.009-1 0-1.584 0m5.07-3.156l-.937-2.191-.95 2.191z" class="cls-1"></path><path id="Path_311" d="M1358.483 1106.986h-1.711c-.143 0-.163-.123-.206-.22-.173-.4-.353-.791-.512-1.193a.327.327 0 0 0-.359-.244c-.895.011-1.79.009-2.685 0a.306.306 0 0 0-.336.216c-.166.416-.358.82-.527 1.233a.279.279 0 0 1-.3.213c-.514-.008-1.029 0-1.525 0-.094-.1-.017-.174.011-.241l3.055-7.087c.092-.215.2-.319.444-.3a7.682 7.682 0 0 0 1.017 0 .417.417 0 0 1 .477.31c.594 1.41 1.209 2.811 1.817 4.215l1.336 3.1m-5.063-3.159h1.879l-.936-2.182-.943 2.182" class="cls-1"></path><path id="Path_312" d="M1384.677 1101.539a3.389 3.389 0 0 0-1.311-.719 2.3 2.3 0 0 0-2.87 2.433 2.241 2.241 0 0 0 .916 1.865 2.569 2.569 0 0 0 2.558.151c.148-.055.153-.168.152-.3v-1.587c0-.28.005-.284.293-.287h1.221c.159 0 .21.059.209.215-.006.773-.007 1.547 0 2.32a.494.494 0 0 1-.194.38 3.718 3.718 0 0 1-2.053 1 4.863 4.863 0 0 1-1.9-.042 3.777 3.777 0 0 1-2.959-3.7 3.847 3.847 0 0 1 2.768-3.908 4.148 4.148 0 0 1 3.811.7c.248.189.247.2.076.447-.23.335-.463.667-.719 1.033" class="cls-1"></path><path id="Path_313" d="M1343.449 1115.208a3.935 3.935 0 0 1-3.2 1.468 3.7 3.7 0 0 1-3.617-2.363 3.921 3.921 0 0 1 2.838-5.442 4 4 0 0 1 3.808 1.127c.211.212.21.216.007.448-.276.314-.554.627-.85.962-.114-.113-.2-.206-.3-.3a2.492 2.492 0 0 0-3.363-.073 2.444 2.444 0 0 0 .623 3.855 2.49 2.49 0 0 0 2.646-.487c.1-.091.179-.2.264-.3l1.14 1.1" class="cls-1"></path><path id="Path_314" d="M1362.713 1113.507v2.807c0 .275-.007.278-.3.281q-.55.006-1.1 0c-.3 0-.305-.006-.305-.322v-4.231-1.3c0-.289-.006-.294-.285-.3-.529 0-1.058-.009-1.587 0-.2 0-.3-.045-.288-.268.014-.325.014-.651 0-.976-.01-.208.08-.249.265-.246.582.009 1.165 0 1.748 0h3.662c.426 0 .366.006.369.381 0 .284-.01.569 0 .853.01.2-.076.255-.263.251-.53-.009-1.059 0-1.588 0-.322 0-.326.005-.326.338v2.726" class="cls-1"></path><path id="Path_315" d="M1340.02 1103.9v2.728c0 .4.027.365-.381.365-.353 0-.706-.009-1.058 0-.218.008-.276-.078-.274-.285.01-.869 0-1.737 0-2.606v-2.971c0-.288-.006-.292-.286-.294-.53 0-1.059-.011-1.587 0-.214.006-.287-.064-.278-.277.015-.325.013-.651 0-.976-.007-.185.073-.235.239-.224.135.009.271 0 .407 0h5.047c.337 0 .338 0 .341.322 0 .3-.01.6 0 .9.008.195-.062.259-.256.255-.53-.011-1.059-.005-1.588 0-.327 0-.332.005-.333.333v2.727" class="cls-1"></path><path id="Path_316" d="M1381.289 1108.981h1.661a1.414 1.414 0 0 1 .029.462v5.129c0 .094.008.189 0 .284-.018.188.078.233.245.225s.352 0 .528 0h2.157c.315 0 .318.005.321.3v1.017c0 .138-.056.2-.191.2h-4.477c-.292 0-.3-.007-.3-.286v-7.163a1.254 1.254 0 0 1 .023-.166" class="cls-1"></path><path id="Path_317" d="M1367.232 1099.365h1.551c.13 0 .162.066.159.178V1106.785c0 .128-.038.2-.184.2h-1.343c-.13 0-.206-.046-.2-.188v-.2-6.876c0-.106.009-.213.015-.355" class="cls-1"></path><path id="Path_318" d="M1388 1110.261a5.275 5.275 0 0 0 .491-.995.411.411 0 0 1 .489-.3 3.97 3.97 0 0 0 .425 0v2.3c0 .25-.179.182-.314.19s-.269.016-.26-.2c.015-.362.005-.725.005-1.084-.17-.009-.183.1-.223.181-.13.251-.245.513-.381.762a.262.262 0 0 1-.473 0c-.183-.31-.293-.659-.5-.954-.135.028-.106.122-.107.192-.005.271 0 .542-.006.812 0 .1.065.238-.082.279a.674.674 0 0 1-.4-.009c-.078-.026-.072-.1-.072-.171v-2.112c0-.141.055-.2.19-.188a.183.183 0 0 0 .04 0c.524-.031.519-.029.752.449a5.48 5.48 0 0 0 .425.84" class="cls-1"></path><path id="Path_319" d="M1384.246 1108.99h1.939l.018.217c.019.184-.043.262-.247.264-.458.005-.457.017-.458.479v1.259c0 .251-.018.258-.288.258s-.269 0-.272-.271c0-.487-.012-.975 0-1.462.006-.218-.074-.3-.28-.269a.184.184 0 0 1-.041 0c-.422-.011-.422-.011-.374-.475" class="cls-1"></path></g><g id="Group_81"><path id="Path_320" d="M1433.657 1106.292h-4.557c.322-.385.55-.66.78-.933q2.233-2.652 4.466-5.3c.089-.106.186-.207.268-.317.244-.327.6-.228.9-.185.376.053.21.409.21.629q.014 10.642.007 21.288c0 .848 0 .848.867.761a17.346 17.346 0 0 0 .847-34.357c-.522-.092-1.053-.136-1.58-.2a2.112 2.112 0 0 0-.614-.041c-.219-.015-.483.07-.579-.231a.486.486 0 0 1 .231-.645 20.212 20.212 0 0 1 15.874 7.339c5.147 6.06 6.5 13.053 3.866 20.537-2.656 7.535-8.176 12.027-15.993 13.686a4.835 4.835 0 0 0-1.514.308h-1.387a5.688 5.688 0 0 0-1.579-.064c-.333 0-.463-.122-.433-.447.015-.161 0-.324 0-.486v-20.591a1.3 1.3 0 0 0-.074-.745" class="cls-1"></path><path id="Path_321" d="M1434.9 1086.756c-.241.536-.172.869.522.811a.493.493 0 0 1 .44.1 17.908 17.908 0 0 0-7.473 1.129 17.4 17.4 0 0 0 3.438 33.387c.786.127.972.367.938 1.107-.082 1.774.055 3.554-.071 5.33h-1.11c-.119-.269-.391-.211-.6-.25a21.01 21.01 0 0 1 .74-41.385 14.989 14.989 0 0 1 3.172-.234" class="cls-1"></path><path id="Path_322" d="M1433.657 1106.292c.267.217.146.517.147.777.006 6.878.015 13.756-.01 20.634 0 .655.2.839.818.8.37-.023.782-.156 1.132.123h-2.081c.008-2.143.022-4.285.024-6.429q.006-7.538 0-15.075c0-.277-.018-.552-.029-.829" class="cls-1"></path><path id="Path_323" d="M1514.434 1113.064h-4.784c-.184 0-.37.007-.554-.007-1.656-.11-2.225-1.149-1.425-2.616a8.554 8.554 0 0 1 .527-.812l9.984-14.233c.093-.133.186-.265.277-.4.182-.265.432-.531.268-.876s-.54-.3-.857-.3q-2.875-.006-5.753 0c-1.34 0-2.681-.018-4.02.01-.463.011-.641-.088-.636-.6 0-.478.167-.562.6-.56 3.351.017 6.7.008 10.052.011.71 0 1.43.055 1.8.783a1.923 1.923 0 0 1-.339 2.071q-5.231 7.455-10.457 14.917c-.239.342-.678.676-.431 1.152.237.456.745.272 1.138.274 3.19.012 6.379 0 9.567.012.383 0 .863-.219.873.563.011.826-.5.6-.905.6-1.641.013-3.282.005-4.922.005" class="cls-1"></path><path id="Path_324" d="M1480.972 1101.1a5.606 5.606 0 0 1 5.621-1.872 5.146 5.146 0 0 1 4.178 5.039c.138 2.791.048 5.592.07 8.39 0 .574-.4.353-.68.4-.389.061-.519-.1-.516-.5.015-2.357.011-4.717.005-7.075a7.839 7.839 0 0 0-.209-2.062c-.61-2.243-2.45-3.4-4.95-3.106a3.98 3.98 0 0 0-3.509 4.075c-.036 2.657-.022 5.317 0 7.976 0 .51-.082.721-.666.716-.562 0-.626-.211-.624-.689q.024-6.207 0-12.415c0-.49.081-.687.631-.67.491.014.735.094.658.643a9.446 9.446 0 0 0-.008 1.153" class="cls-1"></path><path id="Path_325" d="M1537.894 1101.7a5.881 5.881 0 0 1 4.074-2.439 6.52 6.52 0 0 1 1.924.164c.582.1.249.595.3.909.062.38-.233.3-.461.275a1.8 1.8 0 0 1-.276-.029c-2.533-.7-4.6 1.231-5.21 3.5a11.113 11.113 0 0 0-.349 2.879c-.009 1.849-.02 3.7.008 5.547.007.482-.167.582-.6.565-.382-.015-.633-.005-.63-.532q.031-6.378 0-12.759c0-.536.292-.462.612-.46s.655-.087.616.457c-.046.638-.01 1.282-.01 1.924" class="cls-1"></path><path id="Path_326" d="M1513.313 1119.994c0-.945.01-1.891.008-2.836 0-.276 0-.485.384-.484s.383.213.383.485c-.005 1.637 0 3.276-.006 4.914 0 .187.09.46-.22.49-.262.026-.546.092-.733-.226-.86-1.47-1.883-2.841-2.621-4.384-.35.024-.165.251-.156.412.007 1.243.013 2.488.025 3.731 0 .269.019.492-.375.49-.414 0-.35-.264-.35-.51 0-1.589-.009-3.179.009-4.768 0-.208-.19-.552.21-.614a.743.743 0 0 1 .875.352c.779 1.33 1.6 2.632 2.411 3.944.1.084.192.12.193-.065a3.122 3.122 0 0 0-.037-.931" class="cls-1"></path><path id="Path_327" d="M1491.07 1118.506l.017 3.533c0 .276.06.559-.392.545-.423-.012-.334-.292-.334-.527-.005-1.593-.008-3.188.006-4.781 0-.2-.162-.518.181-.572.3-.046.62-.118.845.262.822 1.389 1.777 2.7 2.505 4.142.362-.38.137-.822.13-1.24 0-.9.005-1.8 0-2.7 0-.263-.032-.495.37-.495.379 0 .4.191.4.475-.006 1.637 0 3.275-.007 4.913 0 .188.092.464-.21.5-.26.03-.547.1-.735-.22-.863-1.466-1.885-2.839-2.623-4.381-.41.082-.137.353-.151.545" class="cls-1"></path><path id="Path_328" d="M1522.106 1122.668a2.705 2.705 0 0 1-2.822-1.637 3.284 3.284 0 0 1 .576-3.558 3.376 3.376 0 0 1 3.345-.752c.183.072.317.136.24.4s-.171.36-.434.262a2.293 2.293 0 0 0-.4-.1 2.2 2.2 0 0 0-2.665 1.624 2.328 2.328 0 0 0 1.393 3 2.966 2.966 0 0 0 1.639-.014c.212-.059.393-.138.455.2.05.262-.014.38-.271.445a4.189 4.189 0 0 1-1.055.144" class="cls-1"></path><path id="Path_329" d="M1476.444 1119.63c0-.807.024-1.616-.01-2.422-.018-.44.137-.551.553-.533.737.032 1.476.013 2.214.007.246 0 .455-.013.451.342s-.218.343-.46.335c-.208-.006-.416 0-.623 0-1.432 0-1.551.153-1.342 1.6.043.3.189.32.414.318.485 0 .969.007 1.454 0 .267-.007.364.1.358.364s-.177.275-.37.274c-.484 0-.969.016-1.453 0-.3-.012-.407.1-.4.4.015.6 0 1.2.007 1.8 0 .273.008.488-.38.483-.356-.005-.423-.161-.419-.467.013-.83.005-1.661.005-2.491" class="cls-1"></path><path id="Path_330" d="M1544.108 1119.6c0-.807.01-1.614 0-2.421-.007-.323.03-.509.436-.506s.379.213.377.483c0 1.338.04 2.677-.019 4.012-.031.67.207.828.81.768.457-.047.922 0 1.382-.011.225 0 .337.068.333.315 0 .224-.061.343-.31.341-.9-.007-1.8 0-2.7 0-.364 0-.305-.266-.306-.488v-2.491" class="cls-1"></path><path id="Path_331" d="M1484.588 1119.678c0-.786-.008-1.57 0-2.355.005-.286-.155-.664.417-.653.528.01.379.355.38.617.009 1.571.005 3.141.005 4.711 0 .294.08.6-.419.592-.516-.013-.379-.357-.384-.627-.01-.761 0-1.523 0-2.285" class="cls-1"></path><path id="Path_332" d="M1528.474 1119.607c0-.806.005-1.612 0-2.419 0-.3 0-.522.424-.519.405 0 .369.225.368.486v4.908c0 .29.031.537-.406.527-.453-.009-.382-.3-.383-.564v-2.419" class="cls-1"></path><path id="Path_333" d="M1494.028 1119.868a5.576 5.576 0 0 1 .122 1.283c.009.084 0 .206-.116.175-.06-.016-.091-.142-.136-.218.234-.394-.02-.838.13-1.24" class="cls-1"></path><path id="Path_334" d="M1513.354 1119.86c.046.428.044.979.093 1.438-.246-.023-.285-.162-.3-.32.259-.3.056-.8.207-1.118" class="cls-1"></path><path id="Path_335" d="M1491.07 1118.506a.655.655 0 0 1-.091-.627c.121-.283.193-.055.242.082-.231.131-.044.38-.151.545" class="cls-1"></path><path id="Path_336" d="M1510.352 1118.365a.571.571 0 0 1-.11-.437c0-.086.014-.2.128-.169.06.017.093.127.138.194-.218.074-.069.288-.156.412" class="cls-1"></path><path id="Path_337" d="M1559.229 1104.754c-.716-4.537-5.238-6.737-9.517-5.155-3.231 1.2-4.919 4.858-4.024 8.539a6.7 6.7 0 0 0 7.348 5.167 6.512 6.512 0 0 0 6.154-5.346c.028-.109.018-.232.153-.281v-.555a2.482 2.482 0 0 1 0-1.8v-.416c-.039-.05-.1-.1-.114-.15m-6.839 7.4c-3.412-.017-5.661-2.41-5.636-6 .025-3.548 2.285-5.888 5.683-5.884s5.657 2.39 5.64 5.991c-.016 3.51-2.33 5.907-5.687 5.891" class="cls-1"></path><path id="Path_338" d="M1531.574 1099.765a6.871 6.871 0 0 0-7.556.887c-2.506 2.079-2.977 4.885-2.139 7.869a6.244 6.244 0 0 0 5.907 4.742 8.336 8.336 0 0 0 6.388-1.665c.173-.144.514-.322.122-.558-.277-.166-.371-.838-.889-.41a7.311 7.311 0 0 1-3.546 1.445c-3.609.624-6.536-1.44-6.991-4.894-.06-.453-.009-.645.532-.635 1.894.036 3.788.013 5.683.013 1.871 0 3.742-.028 5.612.017.607.014.75-.213.731-.743a6.342 6.342 0 0 0-3.854-6.068m2.022 5.662c-1.708-.024-3.415-.01-5.124-.01s-3.416-.016-5.123.01c-.47.008-.535-.149-.462-.564a5.7 5.7 0 0 1 11.186.012c.075.434-.028.559-.477.552" class="cls-1"></path><path id="Path_339" d="M1500.7 1099.252a6.9 6.9 0 0 0-7.947 3.937 8.235 8.235 0 0 0-.536 3.872 6.576 6.576 0 0 0 5.217 6.052 9.932 9.932 0 0 0 5.389-.36 5.835 5.835 0 0 0 2.019-1.184c.17-.15.425-.332.09-.521-.282-.162-.369-.844-.893-.406a6.719 6.719 0 0 1-2.735 1.274c-4.024 1.029-7.2-.91-7.8-4.738-.077-.486.008-.641.529-.632 1.894.029 3.789.011 5.682.011 1.848 0 3.7-.032 5.543.017.66.017.82-.194.809-.814a6.63 6.63 0 0 0-5.367-6.508m3.3 6.173h-4.924c-1.687 0-3.375-.017-5.062.01-.491.008-.566-.128-.477-.594a5.7 5.7 0 0 1 11.115-.268c.191.851.191.852-.652.852" class="cls-1"></path><path id="Path_340" d="M1474.018 1099.517a7.161 7.161 0 0 0-8.066 2.2 7.882 7.882 0 0 0-.356 8.5 6.963 6.963 0 0 0 7.5 2.948c3.222-.679 5.242-3.292 5.3-6.848a6.789 6.789 0 0 0-4.371-6.8m-1.226 12.53a5.532 5.532 0 0 1-6.971-5.427 7.42 7.42 0 0 1 .365-2.8c.928-2.579 3.333-3.9 6.358-3.488a5.391 5.391 0 0 1 4.535 5.055c.022.277 0 .555 0 .833.026 3.03-1.619 5.25-4.29 5.827" class="cls-1"></path><path id="Path_341" d="M1502.837 1117.126a.661.661 0 0 0-1.261.015c-.536 1.642-1.106 3.272-1.654 4.91-.054.164-.281.416.045.5.242.066.567.124.681-.263a7.621 7.621 0 0 0 .272-.855c.1-.589.416-.745 1-.724 1.289.048 1.315.007 1.706 1.254.163.517.4.743 1.034.537-.613-1.8-1.228-3.587-1.82-5.377m-1.493 2.972c.273-.848.535-1.659.836-2.6.3.928.574 1.74.856 2.6z" class="cls-1"></path><path id="Path_342" d="M1539.018 1122.13c-.575-1.7-1.17-3.4-1.73-5.108-.123-.376-.371-.32-.645-.342a.462.462 0 0 0-.554.368c-.6 1.812-1.218 3.621-1.841 5.462.576.17.874.036.979-.5a7.054 7.054 0 0 1 .322-.984c.052-.147.091-.305.314-.3a5.961 5.961 0 0 1 1.778.085c.269.1.332.76.486 1.168.049.129.086.264.14.391.139.33.439.217.662.186.309-.042.138-.279.089-.427m-1.982-2c-1.255.031-1.253.046-.852-1.153.152-.455.3-.914.477-1.46.258.756.484 1.453.736 2.142.139.379.017.461-.361.471" class="cls-1"></path></g></g></svg> 