<svg xmlns="http://www.w3.org/2000/svg" width="91.187" height="33.75" viewBox="0 0 91.187 33.75">
    <defs>
        <style>
            .cls-1{fill:#fdfcfe}.cls-2{fill:#6207d2}.cls-3{fill:#a571e5}
        </style>
    </defs>
    <g id="Group_985" transform="translate(-1213.971 -6087.929)">
        <g id="Group_984">
            <path id="Path_2585" d="M1289.563 6095.969a.318.318 0 0 0-.3-.278l-.011-.01c-.054-.188-.207-.251-.373-.3l-.025-.015a1.57 1.57 0 0 0-.787-.567 4.036 4.036 0 0 0-1.871-.659l-.186-.026a2.073 2.073 0 0 0-1.316-.359 8.365 8.365 0 0 0-3.935.86 7.21 7.21 0 0 0-2.866 2.508 7.5 7.5 0 0 0-1.059 2.541 7.17 7.17 0 0 0-.048 3.023 6.834 6.834 0 0 0 1.133 2.765 3.8 3.8 0 0 0 1.626 1.544l.01.009a.174.174 0 0 0 .2.186.387.387 0 0 0 .085.044 1.63 1.63 0 0 0 .764.532 5 5 0 0 0 2.2.692l.194.031a5.4 5.4 0 0 0 2.56-.014l.263-.026c.445.136.815-.138 1.187-.273a4.48 4.48 0 0 0 2.067-1.216l.11-.055a.38.38 0 0 0 .289-.265l.252-.279c.247.02.265-.192.346-.34l.105-.126a4.451 4.451 0 0 0 1.254-2.156c.151-.473.462-.943.272-1.488l.019-.262a2.093 2.093 0 0 0-.005-1.5l-.021-.261a1.462 1.462 0 0 0-.287-1.245l-.024-.158a4.577 4.577 0 0 0-1.507-2.54l-.017-.018a.309.309 0 0 0-.284-.285zm-3.61 24.38l.023.023a2.435 2.435 0 0 0 1.536.915l.16.024a3.746 3.746 0 0 0 2.951-.036.519.519 0 0 0 .344-.512c0-.635.009-1.27 0-1.905 0-.353-.217-.461-.5-.3a1.986 1.986 0 0 1-1.81.039 1.417 1.417 0 0 1-.632-1.823 1.662 1.662 0 0 1 2.385-.624c.461.247.687.087.694-.429q.01-.852 0-1.7a.752.752 0 0 0-.528-.742 3.924 3.924 0 0 0-2.251-.243 3.172 3.172 0 0 0-2.359 1.285l-.1.134a.194.194 0 0 0-.191.184l-.065.1c-.086.077-.2.137-.255.233a4.339 4.339 0 0 0-.6 3.072 3.049 3.049 0 0 0 .865 1.915l.063.1a.341.341 0 0 0 .27.29zm-33.424-10.388a2.839 2.839 0 0 0-2.711.014l-.279.071a1.019 1.019 0 0 0-.6.385l-.111.108a.3.3 0 0 0-.29.305l-.107.106a1.311 1.311 0 0 0-.462 1.015l-.022.164a.889.889 0 0 0-.218.682.628.628 0 0 1-.213.57c-.744.04-.743.04-.745.789 0 .414-.007.829-.011 1.243-.043.326.18.358.406.338.458-.04.566.183.561.6-.019 1.453-.011 2.906-.011 4.359 0 .55.119.674.677.681.635.008 1.27-.014 1.905.007.406.013.558-.13.55-.55-.023-1.236-.009-2.472-.01-3.708 0-1.264 0-1.264 1.287-1.272a.445.445 0 0 1 .051 0c.445.076.623-.2.648-.563a11.908 11.908 0 0 0 0-1.452c-.019-.38-.193-.617-.637-.573a8.57 8.57 0 0 1-1 .006c-.143 0-.328.061-.41-.1a.474.474 0 0 1 .12-.509 1.232 1.232 0 0 1 1.349-.416c.419.091.591-.074.539-.495a4.638 4.638 0 0 1 .006-1.295c.031-.194.037-.371-.2-.447a.5.5 0 0 0-.062-.063zm42.915 9.192c-.092-.209-.322-.217-.479-.329-.172-.122-.437-.228-.376-.47s.338-.151.526-.152q2.08-.008 4.161 0c.45 0 .685-.2.685-.66a4.771 4.771 0 0 0-.6-2.518 3.963 3.963 0 0 0-3.421-2.025 5.049 5.049 0 0 0-1.944.323 4.261 4.261 0 0 0-2.355 2.206 5.165 5.165 0 0 0-.293 2.2 3.664 3.664 0 0 0 1.095 2.624 3.96 3.96 0 0 0 2.184 1.166 5.771 5.771 0 0 0 3.089-.192 3.644 3.644 0 0 0 1.588-1.241c.406-.479.326-.8-.249-1.018-.093-.035-.177-.119-.27-.126-.507-.04-.9-.521-1.455-.368h-.243a3.463 3.463 0 0 0-1.125.59zm1.621-18.351c.8 0 1.607-.023 2.409.009a.709.709 0 0 0 .738-.478c.353-.823.67-1.662 1.01-2.491.453-1.106.916-2.207 1.372-3.311s.918-2.241 1.384-3.359c.352-.843.7-1.687 1.08-2.518.2-.435.114-.611-.376-.612-1.606 0-3.213.011-4.819-.01a.733.733 0 0 0-.739.481c-.25.561-.456 1.142-.688 1.711-.437 1.077-.873 2.154-1.321 3.226-.46 1.1-.952 2.191-1.4 3.3-.471 1.169-.931 2.342-1.464 3.485-.174.371-.065.565.353.568.821.004 1.641-.003 2.461-.003zm-20.972 16.478c0 1.188.008 2.375-.005 3.562 0 .343.111.481.465.468.568-.022 1.137-.016 1.706 0 .772.016.889-.119.836-.887a23.722 23.722 0 0 1 .026-3.655.951.951 0 0 1 .683-.89.893.893 0 0 1 1.027.439 1.155 1.155 0 0 1 .194.759c0 1.237.007 2.475-.012 3.712-.006.39.128.537.522.527.652-.016 1.3 0 1.956.017.39.007.565-.141.558-.565-.022-1.405-.016-2.81-.009-4.214a6.484 6.484 0 0 0-.184-1.431 2.7 2.7 0 0 0-4.409-1.338c-.186.193-.35.158-.4-.075-.077-.368-.32-.372-.6-.369-.6.006-1.206.023-1.807 0-.412-.02-.563.117-.554.539.021 1.127.006 2.264.007 3.401zm-24.347-22.014v-.6-6.022c0-.711 0-.712-.727-.713h-3.764c-.615 0-.756.146-.756.776v18.867c0 .619.225.849.832.85h3.714c.641 0 .714-.075.714-.727 0-2.274.008-4.549-.007-6.824a3.639 3.639 0 0 1 .394-1.475c.282-.645 1.064-.831 1.927-.608a1.507 1.507 0 0 1 .861 1.382q.006 3.738 0 7.477c0 .639.132.774.753.775h3.815c.664 0 .772-.114.772-.8 0-2.609-.025-5.218.009-7.827a7.508 7.508 0 0 0-.914-3.842 4.486 4.486 0 0 0-3.3-2.161 4.2 4.2 0 0 0-2.194.179 5.412 5.412 0 0 0-2.129 1.293zm-29.279 6.693a14.149 14.149 0 0 0-.7-1.941c-.287-.911-.713-1.764-1.017-2.669-.244-.726-.6-1.419-.824-2.155-.308-1.018-.436-1.141-1.495-1.141h-3.864c-.552 0-.731.321-.5.808a27.125 27.125 0 0 1 1.116 2.489c.482 1.349 1.141 2.62 1.637 3.962.318.861.765 1.674 1.112 2.525.478 1.174.983 2.336 1.481 3.5a1.7 1.7 0 0 1 .131 1.669c-.659 1.247-1.115 2.6-1.663 3.907-.191.454-.141.564.354.566 1.506.008 3.011 0 4.516 0a.546.546 0 0 0 .579-.371c.36-.869.755-1.723 1.115-2.592.353-.854.671-1.722 1.022-2.577.248-.6.529-1.2.787-1.8.233-.543.425-1.1.679-1.639.3-.633.538-1.295.807-1.943.34-.821.687-1.639 1.025-2.461.351-.856.691-1.718 1.043-2.574.39-.949.8-1.888 1.176-2.843.169-.432.024-.624-.457-.628-1.439-.012-2.877-.008-4.316 0-.211 0-.455.012-.558.253-.324.754-.644 1.51-.953 2.27-.272.67-.53 1.345-.791 2.019-.249.642-.456 1.3-.751 1.922a4.06 4.06 0 0 1-.691 1.444zm31.057 15.392c0 1.137.011 2.275-.006 3.412-.005.39.14.543.527.533.652-.016 1.305-.01 1.957 0 .383 0 .535-.165.534-.549-.009-2.275-.013-4.55 0-6.825 0-.421-.175-.57-.567-.566-.619.007-1.238.015-1.857 0-.462-.013-.6.19-.595.638.023 1.115.007 2.236.007 3.357zm-8.214-16.11v-1.6-4.918c0-.358-.081-.654-.5-.657-1.405-.011-2.811-.008-4.216 0-.341 0-.429.27-.459.532-.013.1.175.246 0 .341-.148.081-.257-.038-.382-.144a4.72 4.72 0 0 0-2.718-1.018 5.189 5.189 0 0 0-2.063.224 7.061 7.061 0 0 0-5.005 5.313 8.39 8.39 0 0 0 .164 4.426 8.172 8.172 0 0 0 1.6 2.852 6.627 6.627 0 0 0 4.389 2.213 5.121 5.121 0 0 0 3.589-1.011c.193-.136.4-.317.446.081.057.455.316.57.722.567 1.222-.01 2.443 0 3.664 0 .621 0 .767-.147.767-.766q.004-3.224.002-6.435zm30.871-.272a8.08 8.08 0 0 0-1.388-4.1 7.646 7.646 0 0 0-5.208-3.037 7.827 7.827 0 0 0-4.534.776 6.835 6.835 0 0 0-3.872 4.719 7.482 7.482 0 0 0 6.961 9.419 7.975 7.975 0 0 0 1.934-.168 6.8 6.8 0 0 0 3.279-1.432 7.466 7.466 0 0 0 2.828-6.177zm-.96 16.4v-1.705-1.705c0-.549-.162-.72-.708-.727-.635-.008-1.27 0-1.906 0a.664.664 0 0 0-.62.238c-.139.188-.275.119-.468.015a2.587 2.587 0 0 0-1.134-.45 4.684 4.684 0 0 0-2.092.251 4.471 4.471 0 0 0-2.318 3.21c-.039.448-.011.9-.012 1.353a4.014 4.014 0 0 0 1.122 2.643 3.609 3.609 0 0 0 1.6 1.017 3.371 3.371 0 0 0 1.986.055c.52-.118.978-.749 1.582-.18.046.044.162.016.245.016.7 0 1.405-.009 2.107 0 .441.009.634-.16.626-.622-.023-1.138-.009-2.278-.01-3.412zm-14.54-3.6c-.273-.464-.284-.474-.791-.477-.668 0-1.337.01-2.006 0-.333-.007-.49.107-.489.46q.01 3.585 0 7.17c0 .337.122.485.472.476.635-.017 1.271 0 1.906 0 .7 0 .8-.1.8-.817 0-1.287.02-2.574 0-3.86-.007-.425.268-.577.555-.745a.624.624 0 0 1 .736.126 1.008 1.008 0 0 1 .459.889c-.016 1.286 0 2.573-.014 3.86-.005.411.138.57.554.554.651-.024 1.3 0 1.956-.007.583-.005.673-.1.673-.664 0-1.019.016-2.039-.005-3.058a8.415 8.415 0 0 0-.254-2.763 2.858 2.858 0 0 0-2.381-1.892 2.6 2.6 0 0 0-2.171.747zm34.873-5.205a3.331 3.331 0 0 0 3.478-3.406 3.275 3.275 0 0 0-3.371-3.372 3.5 3.5 0 0 0-3.449 3.489c-.041 1.714 1.63 3.516 3.342 3.288z" class="cls-1"/>
            <path id="Path_2586" d="M1290.18 6105.9l-.105.126c-.308-.083-.274.182-.346.34l-.252.279c-.256-.085-.333.024-.289.265l-.11.055a.162.162 0 0 0-.224-.025 5.9 5.9 0 0 1-2.678 1.223c-.164.027-.329.08-.352.291l-.263.025a6.726 6.726 0 0 0-1.809-.078c-.248-.011-.524-.113-.751.093l-.194-.031c-.061-.3-.333-.322-.542-.347a4.813 4.813 0 0 1-2.015-.813c-.136-.087-.254-.151-.407-.064a.387.387 0 0 1-.085-.044c.033-.169-.029-.237-.2-.186l-.009-.009c-.13-.46-.615-.57-.885-.9a7.486 7.486 0 0 1-1.678-3.835 7.042 7.042 0 0 1 .913-4.685 6.838 6.838 0 0 1 5.5-3.4 17.011 17.011 0 0 1 2.141.016c.157 0 .336.078.47-.078l.186.026c.044.253.263.28.449.32a5.282 5.282 0 0 1 1.8.825c.132.087.248.163.405.081l.025.015c-.055.323.133.344.373.3l.01.011c-.031.232.06.333.3.277l.017.018c-.049.238.046.332.284.284l.016.018c-.059.1-.012.188.052.271a12.172 12.172 0 0 1 .907 1.341c.179.3.062.812.549.928l.024.158a1.228 1.228 0 0 0 .287 1.245l.02.261a3.012 3.012 0 0 0 .006 1.5l-.019.262c-.229.087-.234.292-.263.488a6.818 6.818 0 0 1-.669 2.013c-.184.38-.604.648-.589 1.14zm-3.1-4.617a2.822 2.822 0 0 0-2.782-2.827 2.768 2.768 0 0 0-2.76 2.82 2.735 2.735 0 0 0 2.731 2.8 2.8 2.8 0 0 0 2.813-2.797z" class="cls-2"/>
            <path id="Path_2587" d="M1297.065 6100.8c-.82 0-1.64.005-2.46 0-.418 0-.527-.2-.353-.568.533-1.143.993-2.316 1.464-3.485.447-1.107.939-2.2 1.4-3.3.448-1.072.884-2.149 1.321-3.226.232-.569.438-1.15.688-1.711a.733.733 0 0 1 .739-.481c1.606.021 3.213.007 4.819.01.49 0 .574.177.376.612-.379.831-.728 1.675-1.08 2.518-.466 1.118-.922 2.24-1.384 3.359s-.919 2.205-1.372 3.311c-.34.829-.657 1.668-1.01 2.491a.709.709 0 0 1-.738.478c-.803-.029-1.607-.008-2.41-.008z" class="cls-2"/>
            <path id="Path_2588" d="M1276.093 6117.28c0-1.137.014-2.274-.008-3.411-.009-.422.142-.559.554-.539.6.028 1.2.011 1.807 0 .282 0 .525 0 .6.369.049.233.213.268.4.075a2.7 2.7 0 0 1 4.409 1.338 6.484 6.484 0 0 1 .184 1.431c-.007 1.4-.013 2.809.009 4.214.007.424-.168.572-.558.565-.652-.012-1.3-.033-1.956-.017-.394.01-.528-.137-.522-.527.019-1.237.01-2.475.012-3.712a1.155 1.155 0 0 0-.194-.759.893.893 0 0 0-1.027-.439.951.951 0 0 0-.683.89 23.722 23.722 0 0 0-.026 3.655c.053.768-.064.9-.836.887-.569-.011-1.138-.017-1.706 0-.354.013-.469-.125-.465-.468.013-1.177.006-2.364.006-3.552z" class="cls-2"/>
            <path id="Path_2589" d="M1297.087 6118.57h.243a3.848 3.848 0 0 0 1.54.642c.394.122.535.3.326.586a3.531 3.531 0 0 1-2.139 1.432 9.009 9.009 0 0 1-2.1.078 3 3 0 0 1-1.546-.505 4.056 4.056 0 0 1-1.551-5.086c.93-2.288 3.264-2.862 5.344-2.2a3.63 3.63 0 0 1 2.454 3.562c.011.829.011.829-.8.829h-4.063c-.245 0-.544-.02-.539.354.006.431.716.954 1.185.891l.518.007c.573.174.819-.268 1.128-.59zm-1.425-2.151h.9c.131 0 .286.022.336-.141a.415.415 0 0 0-.1-.412 1.58 1.58 0 0 0-2.263-.012.425.425 0 0 0-.1.416c.052.147.2.152.338.152z" class="cls-2"/>
            <path id="Path_2590" d="M1248.426 6110.95l.107-.1c.219.013.318-.086.29-.306l.111-.108c.294.017.569 0 .6-.385l.279-.071a.688.688 0 0 0 .661 0 2.409 2.409 0 0 1 1.546-.042c.17.041.326.188.5.027a.427.427 0 0 1 .059.061 5.006 5.006 0 0 0-.075 1.587c0 .358-.052.5-.477.426a1.229 1.229 0 0 0-1.486.853c-.142.4-.04.571.38.587.384.015.77.018 1.153 0 .3-.014.428.084.414.4-.018.417-.018.836 0 1.253.015.322-.136.4-.423.389-.367-.015-.735-.014-1.1 0a.514.514 0 0 0-.562.518c.021 1.517-.091 3.037.059 4.552.037.37-.076.577-.488.561a10.087 10.087 0 0 0-1.3 0c-.5.047-.672-.1-.657-.628.039-1.3.013-2.606.014-3.909 0-.972 0-.971-.942-1.112-.115-.017-.226-.055-.338-.083 0-.414.01-.829.011-1.243 0-.749 0-.749.745-.788a.3.3 0 0 0 .5-.243 1.5 1.5 0 0 0-.069-1.01l.022-.164a1.267 1.267 0 0 0 .466-1.022z" class="cls-2"/>
            <path id="Path_2591" d="M1285.608 6114.741l.065-.1c.167.045.243 0 .191-.184l.1-.134c.155.092.248-.018.348-.1a4.617 4.617 0 0 1 1.466-.758 4.8 4.8 0 0 1 2.468-.038c.239.039.473.163.481.438.019.687.006 1.375.006 2.1a2.378 2.378 0 0 0-1.527-.266 1.562 1.562 0 0 0-1.662 1.391c-.152.694.528 1.854 1.183 1.894a2.924 2.924 0 0 0 1.927-.239c.033.043.068.067.069.092.008.451.014.9.015 1.351 0 .911-.126 1.022-1.035 1.064a9.823 9.823 0 0 0-2.036.066l-.16-.025c-.115-.484-.654-.349-.937-.622-.121-.117-.282-.457-.6-.292l-.023-.023c.059-.241-.046-.327-.277-.293l-.063-.1c.015-.061.063-.146.039-.179a3.382 3.382 0 0 1-.623-1.886 4.959 4.959 0 0 1 .3-2.373c.112-.235.443-.441.285-.784z" class="cls-2"/>
            <path id="Path_2592" d="M1251.746 6095.266a5.412 5.412 0 0 1 2.132-1.29 4.2 4.2 0 0 1 2.194-.179 4.486 4.486 0 0 1 3.3 2.161 7.508 7.508 0 0 1 .914 3.842c-.034 2.609-.009 5.218-.009 7.827 0 .683-.108.8-.772.8h-3.815c-.621 0-.753-.136-.753-.775v-7.477a1.507 1.507 0 0 0-.861-1.382c-.863-.223-1.645-.037-1.927.608a3.639 3.639 0 0 0-.394 1.475c.015 2.275.008 4.55.007 6.824 0 .652-.073.726-.714.727h-3.714c-.607 0-.832-.231-.832-.85v-18.867c0-.63.141-.775.756-.776h3.764c.727 0 .728 0 .727.713v6.022zm-4.9 2.908c0 3.127.007 6.255-.009 9.382 0 .416.115.543.534.534 1.22-.026 2.442-.022 3.663 0 .4.007.553-.078.549-.519-.024-2.274-.011-4.549-.014-6.823a2.811 2.811 0 0 1 .295-1.4 1.82 1.82 0 0 1 1.509-1 1.552 1.552 0 0 1 1.45.717 2.874 2.874 0 0 1 .464 1.7c.015 2.275.009 4.549 0 6.823 0 .311.033.5.423.5 1.271-.019 2.543-.015 3.814 0 .32 0 .394-.131.392-.421-.013-3.11-.009-6.221-.031-9.331a4.651 4.651 0 0 0-.786-2.33c-1.388-2.327-5.091-2.429-6.711-.98-.195.175-.373.579-.714.424-.371-.169-.1-.546-.107-.819q-.031-2.934 0-5.87c.005-.45-.166-.513-.565-.5-1.17.032-2.341.046-3.511.011-.644-.02-.644-.071-.644.573l.002 9.329z" class="cls-3"/>
            <path id="Path_2593" d="M1222.467 6101.959a4.06 4.06 0 0 0 .694-1.436c.3-.619.5-1.28.751-1.922.261-.674.519-1.349.791-2.019.309-.76.629-1.516.953-2.27.1-.241.347-.252.558-.253 1.439-.009 2.877-.013 4.316 0 .481 0 .626.2.457.628-.374.955-.786 1.894-1.176 2.843-.352.856-.692 1.718-1.043 2.574-.338.822-.685 1.64-1.025 2.461-.269.648-.507 1.31-.807 1.943-.254.537-.446 1.1-.679 1.639-.258.6-.539 1.194-.787 1.8-.351.855-.669 1.723-1.022 2.577-.36.869-.755 1.723-1.115 2.592a.546.546 0 0 1-.579.371h-4.516c-.495 0-.545-.112-.354-.566.548-1.306 1-2.66 1.663-3.907a1.7 1.7 0 0 0-.131-1.669c-.5-1.165-1-2.327-1.481-3.5-.347-.851-.794-1.664-1.112-2.525-.5-1.342-1.155-2.613-1.637-3.962a27.125 27.125 0 0 0-1.116-2.489c-.232-.487-.053-.807.5-.808h3.864c1.059 0 1.187.123 1.495 1.141.222.736.58 1.429.824 2.155.3.9.73 1.758 1.017 2.669a14.149 14.149 0 0 1 .697 1.933zm-8.2-7.468c.334.776.642 1.488.946 2.2.469 1.1.934 2.21 1.405 3.313.262.616.531 1.229.8 1.843.226.519.483 1.037.66 1.564.212.63.508 1.226.748 1.836a25.052 25.052 0 0 0 1.067 2.456c.1.187.284.449.2.692-.183.5-.416.99-.627 1.483-.244.568-.525 1.122-.717 1.706a6.45 6.45 0 0 1-.526 1.191.474.474 0 0 0-.078.373c.049.173.209.137.337.138h4.116a.458.458 0 0 0 .456-.25c.154-.325.29-.659.424-.993a17.546 17.546 0 0 1 .711-1.772 15.977 15.977 0 0 0 .76-1.78c.332-.863.7-1.717 1.053-2.567.448-1.07.864-2.156 1.359-3.21.452-.963.8-1.979 1.221-2.961.707-1.634 1.335-3.3 2.022-4.945.118-.281.046-.322-.2-.322h-4.317c-.133 0-.267 0-.32.17-.158.52-.413 1.011-.575 1.519-.2.649-.482 1.271-.721 1.9q-.571 1.507-1.178 3.007a4.51 4.51 0 0 0-.312.933.435.435 0 0 1-.407.386c-.287.017-.3-.225-.354-.406s-.125-.339-.195-.506c-.364-.865-.7-1.744-1.039-2.618-.261-.668-.525-1.335-.779-2.006s-.521-1.334-.73-2.016c-.08-.261-.185-.366-.439-.365z" class="cls-3"/>
            <path id="Path_2594" d="M1253.524 6117.351c0-1.121.016-2.242-.008-3.362-.01-.448.133-.651.595-.638.619.018 1.238.01 1.857 0 .392 0 .569.145.567.566-.014 2.275-.01 4.55 0 6.825 0 .384-.151.554-.534.549-.652-.008-1.305-.014-1.957 0-.387.01-.532-.143-.527-.533.017-1.137.006-2.275.006-3.412z" class="cls-2"/>
            <path id="Path_2595" d="M1245.31 6101.241v6.423c0 .619-.146.765-.767.766-1.221 0-2.442-.007-3.664 0-.406 0-.665-.112-.722-.567-.05-.4-.253-.217-.446-.081a5.121 5.121 0 0 1-3.589 1.011 6.627 6.627 0 0 1-4.389-2.213 8.172 8.172 0 0 1-1.6-2.852 8.39 8.39 0 0 1-.164-4.426 7.061 7.061 0 0 1 5.005-5.313 5.189 5.189 0 0 1 2.063-.224 4.72 4.72 0 0 1 2.718 1.018c.125.106.234.225.382.144.171-.1-.017-.236 0-.341.03-.262.118-.531.459-.532 1.405 0 2.811-.007 4.216 0 .423 0 .5.3.5.657-.006 1.639 0 3.278 0 4.918zm-.362.047v-6.068c0-.8 0-.8-.827-.8-1 0-2.007.018-3.01-.008-.468-.012-.767.03-.694.629.046.375-.186.48-.5.266-.22-.148-.393-.369-.62-.5a5.522 5.522 0 0 0-5.265-.2 6.911 6.911 0 0 0-3.952 5.764 7.886 7.886 0 0 0 .19 2.77 7.087 7.087 0 0 0 1.562 3.178 5.906 5.906 0 0 0 4.29 2.128 4.688 4.688 0 0 0 3.736-1.159c.117-.111.26-.254.438-.169s.155.291.133.45c-.062.432.128.533.534.525q1.73-.036 3.461 0c.415.009.541-.114.537-.534-.023-2.093-.012-4.182-.013-6.272z" class="cls-3"/>
            <path id="Path_2596" d="M1276.181 6100.969a7.466 7.466 0 0 1-2.828 6.175 6.8 6.8 0 0 1-3.279 1.432 7.975 7.975 0 0 1-1.934.168 7.482 7.482 0 0 1-6.961-9.419 6.835 6.835 0 0 1 3.872-4.719 7.827 7.827 0 0 1 4.534-.776 7.646 7.646 0 0 1 5.208 3.037 8.08 8.08 0 0 1 1.388 4.1zm-7.416-6.856a7.459 7.459 0 0 0-2.658.362 9.58 9.58 0 0 0-2.205 1.114 5.713 5.713 0 0 0-1.613 1.852 8.408 8.408 0 0 0-1.063 3.324 6.185 6.185 0 0 0 .247 2.268 7.8 7.8 0 0 0 .838 2.087 6.167 6.167 0 0 0 2.714 2.446 6.693 6.693 0 0 0 2.962.818 9.063 9.063 0 0 0 2.72-.254 7.075 7.075 0 0 0 2.277-1.089 7.393 7.393 0 0 0 2.932-5.926 9.189 9.189 0 0 0-.5-2.383 6.5 6.5 0 0 0-2.864-3.566 5.894 5.894 0 0 0-3.787-1.053z" class="cls-3"/>
            <path id="Path_2597" d="M1275.222 6117.366c0 1.137-.014 2.274.007 3.41.008.462-.185.631-.626.622-.7-.014-1.405 0-2.107 0-.083 0-.2.028-.245-.016-.6-.569-1.062.062-1.582.18a3.371 3.371 0 0 1-1.986-.055 3.609 3.609 0 0 1-1.6-1.017 4.014 4.014 0 0 1-1.122-2.643c0-.451-.027-.9.012-1.353a4.471 4.471 0 0 1 2.318-3.21 4.684 4.684 0 0 1 2.092-.251 2.587 2.587 0 0 1 1.134.45c.193.1.329.173.468-.015a.664.664 0 0 1 .62-.238c.636.008 1.271 0 1.906 0 .546.007.706.178.708.727v1.705l.003 1.704zm-.429-.066c0-1.136-.005-2.273 0-3.409 0-.286-.071-.43-.392-.42-.6.019-1.2.01-1.806 0-.213 0-.327.045-.369.289-.059.347-.313.4-.549.184a2.671 2.671 0 0 0-1.391-.6 3.409 3.409 0 0 0-3.849 2.356 4.674 4.674 0 0 0 .243 3.772 2.871 2.871 0 0 0 2.047 1.718 3.231 3.231 0 0 0 3-.583c.264-.256.5-.231.509.2.009.305.168.348.42.343.552-.011 1.1-.024 1.655 0 .377.019.495-.117.489-.486-.018-1.124-.006-2.244-.007-3.364z" class="cls-3"/>
            <path id="Path_2598" d="M1260.681 6113.768a2.6 2.6 0 0 1 2.174-.756 2.858 2.858 0 0 1 2.381 1.892 8.415 8.415 0 0 1 .254 2.763c.021 1.019.007 2.039.005 3.058 0 .568-.09.659-.673.664-.652 0-1.305-.017-1.956.007-.416.016-.559-.143-.554-.554.018-1.287 0-2.574.014-3.86a1.008 1.008 0 0 0-.459-.889.624.624 0 0 0-.736-.126c-.287.168-.562.32-.555.745.02 1.286 0 2.573 0 3.86 0 .719-.1.817-.8.817-.635 0-1.271-.012-1.906 0-.35.009-.473-.139-.472-.476q.009-3.585 0-7.17c0-.353.156-.467.489-.46.669.013 1.338 0 2.006 0 .507.011.515.017.788.485zm-3.095 3.6c0 1.136.007 2.272-.005 3.408 0 .32.1.449.433.435a14.062 14.062 0 0 1 1.6 0c.469.034.612-.136.6-.595-.025-1.219-.039-2.441.007-3.659a1.2 1.2 0 0 1 .715-1.207 1.15 1.15 0 0 1 1.316.35 1.49 1.49 0 0 1 .263.988c0 1.187.005 2.373-.006 3.559 0 .374.135.564.525.558.551-.009 1.1-.014 1.654 0 .326.009.45-.125.449-.442-.009-1.654.009-3.309-.019-4.963a2.327 2.327 0 0 0-1.508-2.27 2.483 2.483 0 0 0-2.844.545c-.1.113-.248.253-.44.171a.356.356 0 0 1-.191-.379c.024-.363-.18-.4-.471-.391-.5.015-1 .017-1.5 0-.417-.015-.6.126-.588.579.024 1.106.011 2.209.01 3.312z" class="cls-3"/>
            <path id="Path_2599" d="M1295.444 6119.153c-.469.063-1.179-.46-1.185-.891-.005-.374.294-.353.539-.354 1.354-.006 2.709 0 4.063 0 .81 0 .81 0 .8-.829a3.63 3.63 0 0 0-2.454-3.562c-2.08-.661-4.414-.087-5.344 2.2a4.056 4.056 0 0 0 1.551 5.086 3 3 0 0 0 1.546.505 9.009 9.009 0 0 0 2.1-.078 3.531 3.531 0 0 0 2.139-1.432c.209-.284.068-.464-.326-.586a3.848 3.848 0 0 1-1.54-.642c.553-.153.948.328 1.455.368.093.007.177.091.27.126.575.22.655.539.249 1.018a3.644 3.644 0 0 1-1.588 1.241 5.771 5.771 0 0 1-3.089.192 3.96 3.96 0 0 1-2.184-1.166 3.664 3.664 0 0 1-1.095-2.624 5.165 5.165 0 0 1 .293-2.2 4.261 4.261 0 0 1 2.355-2.206 5.049 5.049 0 0 1 1.944-.323 3.963 3.963 0 0 1 3.421 2.025 4.771 4.771 0 0 1 .6 2.518c0 .46-.235.662-.685.66q-2.08-.006-4.161 0c-.188 0-.463-.094-.526.152s.2.348.376.47c.154.115.384.123.476.332z" class="cls-3"/>
            <path id="Path_2600" d="M1246.755 6115.413c.112.028.223.066.338.083.942.141.942.14.942 1.112 0 1.3.025 2.607-.014 3.909-.015.528.161.675.657.628a10.087 10.087 0 0 1 1.3 0c.412.016.525-.191.488-.561-.15-1.515-.038-3.035-.059-4.552a.514.514 0 0 1 .562-.518c.368-.012.736-.013 1.1 0 .287.012.438-.067.423-.389-.019-.417-.019-.836 0-1.253.014-.312-.116-.41-.414-.4-.383.019-.769.016-1.153 0-.42-.016-.522-.185-.38-.587a1.229 1.229 0 0 1 1.486-.853c.425.074.472-.068.477-.426a5.006 5.006 0 0 1 .075-1.587c.233.076.227.253.2.447a4.638 4.638 0 0 0-.006 1.295c.052.421-.12.586-.539.495a1.232 1.232 0 0 0-1.349.416.474.474 0 0 0-.12.509c.082.163.267.1.41.1a8.57 8.57 0 0 0 1-.006c.444-.044.618.193.637.573a11.908 11.908 0 0 1 0 1.452c-.025.367-.2.639-.648.563a.445.445 0 0 0-.051 0c-1.287.008-1.287.008-1.287 1.272 0 1.236-.013 2.472.01 3.708.008.42-.144.563-.55.55-.635-.021-1.27 0-1.905-.007-.558-.007-.677-.131-.677-.681 0-1.453-.008-2.906.011-4.359.005-.417-.1-.64-.561-.6-.223.025-.446-.007-.403-.333z" class="cls-3"/>
            <path id="Path_2601" d="M1295.554 6108.563c-1.712.228-3.383-1.574-3.342-3.289a3.5 3.5 0 0 1 3.449-3.489 3.275 3.275 0 0 1 3.371 3.372 3.331 3.331 0 0 1-3.478 3.406zm3.13-3.386a2.951 2.951 0 0 0-2.993-3.073 3.17 3.17 0 0 0-3.221 3.165 2.952 2.952 0 0 0 3.083 3.066 3.025 3.025 0 0 0 3.131-3.158z" class="cls-3"/>
            <path id="Path_2602" d="M1287.672 6121.311a9.823 9.823 0 0 1 2.036-.066c.909-.042 1.038-.153 1.035-1.064 0-.45-.007-.9-.015-1.351 0-.025-.036-.049-.069-.092a2.924 2.924 0 0 1-1.927.239c-.655-.04-1.335-1.2-1.183-1.894a1.562 1.562 0 0 1 1.662-1.391 2.378 2.378 0 0 1 1.527.266c0-.725.013-1.413-.006-2.1-.008-.275-.242-.4-.481-.438a4.8 4.8 0 0 0-2.468.038 4.617 4.617 0 0 0-1.466.758c-.1.087-.193.2-.348.1a3.172 3.172 0 0 1 2.359-1.285 3.924 3.924 0 0 1 2.251.243.752.752 0 0 1 .528.742q.01.852 0 1.7c-.007.516-.233.676-.694.429a1.662 1.662 0 0 0-2.385.624 1.417 1.417 0 0 0 .632 1.823 1.986 1.986 0 0 0 1.81-.039c.282-.165.495-.057.5.3.007.635 0 1.27 0 1.905a.519.519 0 0 1-.344.512 3.746 3.746 0 0 1-2.954.041z" class="cls-3"/>
            <path id="Path_2603" d="M1286.013 6094.114c-.134.156-.313.083-.47.078a17.011 17.011 0 0 0-2.141-.016 6.838 6.838 0 0 0-5.5 3.4 7.042 7.042 0 0 0-.913 4.685 7.486 7.486 0 0 0 1.678 3.835c.27.331.755.441.885.9a3.8 3.8 0 0 1-1.627-1.544 6.834 6.834 0 0 1-1.133-2.765 7.17 7.17 0 0 1 .048-3.023 7.5 7.5 0 0 1 1.059-2.541 7.21 7.21 0 0 1 2.866-2.508 8.365 8.365 0 0 1 3.935-.86 2.073 2.073 0 0 1 1.313.359z" class="cls-3"/>
            <path id="Path_2604" d="M1285.608 6114.741c.158.343-.173.549-.281.782a4.959 4.959 0 0 0-.3 2.373 3.382 3.382 0 0 0 .623 1.886c.024.033-.024.118-.039.179a3.049 3.049 0 0 1-.865-1.915 4.339 4.339 0 0 1 .6-3.072c.06-.096.176-.156.262-.233z" class="cls-3"/>
            <path id="Path_2605" d="M1290.18 6105.9c-.015-.488.4-.756.594-1.143a6.818 6.818 0 0 0 .669-2.013c.029-.2.034-.4.263-.488.19.545-.121 1.015-.272 1.488a4.451 4.451 0 0 1-1.254 2.156z" class="cls-3"/>
            <path id="Path_2606" d="M1285.824 6108.45c.023-.211.188-.264.352-.291a5.9 5.9 0 0 0 2.678-1.223.162.162 0 0 1 .224.025 4.48 4.48 0 0 1-2.067 1.216c-.372.135-.742.409-1.187.273z" class="cls-3"/>
            <path id="Path_2607" d="M1279.843 6107.235c.153-.087.271-.023.407.064a4.813 4.813 0 0 0 2.015.813c.209.025.481.046.542.347a5 5 0 0 1-2.2-.692 1.63 1.63 0 0 1-.764-.532z" class="cls-3"/>
            <path id="Path_2608" d="M1288.857 6095.366c-.157.082-.273.006-.405-.081a5.282 5.282 0 0 0-1.8-.825c-.186-.04-.4-.067-.449-.32a4.036 4.036 0 0 1 1.871.659 1.57 1.57 0 0 1 .783.567z" class="cls-3"/>
            <path id="Path_2609" d="M1291.388 6098.829c-.487-.116-.37-.624-.549-.928a12.172 12.172 0 0 0-.907-1.341c-.064-.083-.111-.166-.052-.271a4.573 4.573 0 0 1 1.508 2.54z" class="cls-3"/>
            <path id="Path_2610" d="M1252.529 6109.961c-.178.161-.334.014-.5-.027a2.409 2.409 0 0 0-1.546.042.688.688 0 0 1-.661 0 2.839 2.839 0 0 1 2.707-.015z" class="cls-3"/>
            <path id="Path_2611" d="M1283 6108.49c.227-.206.5-.1.751-.093a6.726 6.726 0 0 1 1.809.078 5.385 5.385 0 0 1-2.56.015z" class="cls-3"/>
            <path id="Path_2612" d="M1285.976 6120.372c.317-.165.478.175.6.292.283.273.822.138.937.622a2.429 2.429 0 0 1-1.537-.914z" class="cls-3"/>
            <path id="Path_2613" d="M1247.942 6112.129a1.5 1.5 0 0 1 .069 1.01.3.3 0 0 1-.5.243.631.631 0 0 0 .213-.571.889.889 0 0 1 .218-.682z" class="cls-3"/>
            <path id="Path_2614" d="M1291.7 6100.232a1.228 1.228 0 0 1-.287-1.245 1.462 1.462 0 0 1 .287 1.245z" class="cls-3"/>
            <path id="Path_2615" d="M1291.725 6101.99a3.012 3.012 0 0 1-.006-1.5 2.088 2.088 0 0 1 .006 1.5z" class="cls-3"/>
            <path id="Path_2616" d="M1297.087 6118.57c-.309.322-.555.764-1.125.59a3.463 3.463 0 0 1 1.125-.59z" class="cls-3"/>
            <path id="Path_2617" d="M1248.426 6110.95a1.267 1.267 0 0 1-.462 1.015 1.311 1.311 0 0 1 .462-1.015z" class="cls-3"/>
            <path id="Path_2618" d="M1249.539 6110.046c-.036.388-.311.4-.6.385a1.019 1.019 0 0 1 .6-.385z" class="cls-3"/>
            <path id="Path_2619" d="M1289.255 6095.681c-.24.044-.428.023-.373-.3.166.049.318.112.373.3z" class="cls-3"/>
            <path id="Path_2620" d="M1289.729 6106.362c.072-.158.038-.423.346-.34-.081.148-.099.36-.346.34z" class="cls-3"/>
            <path id="Path_2621" d="M1248.823 6110.539c.028.22-.071.319-.29.306a.3.3 0 0 1 .29-.306z" class="cls-3"/>
            <path id="Path_2622" d="M1289.188 6106.906c-.044-.241.033-.35.289-.265a.38.38 0 0 1-.289.265z" class="cls-3"/>
            <path id="Path_2623" d="M1289.864 6096.271c-.238.048-.333-.046-.284-.284a.307.307 0 0 1 .284.284z" class="cls-3"/>
            <path id="Path_2624" d="M1289.563 6095.969c-.238.056-.329-.045-.3-.277a.316.316 0 0 1 .3.277z" class="cls-3"/>
            <path id="Path_2625" d="M1285.676 6120.056c.231-.034.336.052.277.293a.341.341 0 0 1-.277-.293z" class="cls-3"/>
            <path id="Path_2626" d="M1279.558 6107c.171-.051.233.017.2.186a.174.174 0 0 1-.2-.186z" class="cls-3"/>
            <path id="Path_2627" d="M1285.864 6114.455c.052.18-.024.229-.191.184a.194.194 0 0 1 .191-.184z" class="cls-3"/>
            <path id="Path_2628" d="M1287.082 6101.279a2.8 2.8 0 0 1-2.811 2.8 2.735 2.735 0 0 1-2.731-2.8 2.768 2.768 0 0 1 2.76-2.82 2.822 2.822 0 0 1 2.782 2.82z" class="cls-1"/>
            <path id="Path_2629" d="M1295.662 6116.419h-.9c-.136 0-.286 0-.338-.152a.425.425 0 0 1 .1-.416 1.58 1.58 0 0 1 2.263.012.415.415 0 0 1 .1.412c-.05.163-.205.141-.336.141h-.9z" class="cls-1"/>
            <path id="Path_2630" d="M1246.849 6098.174v-9.332c0-.644 0-.593.644-.573 1.17.035 2.341.021 3.511-.011.4-.011.57.052.565.5q-.033 2.936 0 5.87c0 .273-.264.65.107.819.341.155.519-.249.714-.424 1.62-1.449 5.323-1.347 6.711.98a4.651 4.651 0 0 1 .786 2.33c.022 3.11.018 6.221.031 9.331 0 .29-.072.424-.392.421-1.271-.014-2.543-.018-3.814 0-.39.006-.424-.184-.423-.5.009-2.274.015-4.548 0-6.823a2.874 2.874 0 0 0-.464-1.7 1.552 1.552 0 0 0-1.45-.717 1.82 1.82 0 0 0-1.509 1 2.811 2.811 0 0 0-.295 1.4c0 2.274-.01 4.549.014 6.823 0 .441-.153.526-.549.519-1.221-.021-2.443-.025-3.663 0-.419.009-.536-.118-.534-.534.017-3.124.01-6.253.01-9.379z" class="cls-2"/>
            <path id="Path_2631" d="M1214.269 6094.491h4.769c.254 0 .359.1.439.365.209.682.477 1.347.73 2.016s.518 1.338.779 2.006c.342.874.675 1.753 1.039 2.618.07.167.14.332.195.506s.067.423.354.406a.435.435 0 0 0 .407-.386 4.51 4.51 0 0 1 .312-.933q.606-1.5 1.178-3.007c.239-.629.516-1.251.721-1.9.162-.508.417-1 .575-1.519.053-.174.187-.17.32-.17h4.317c.242 0 .314.041.2.322-.687 1.643-1.315 3.311-2.022 4.945-.425.982-.769 2-1.221 2.961-.495 1.054-.911 2.14-1.359 3.21-.355.85-.721 1.7-1.053 2.567a15.977 15.977 0 0 1-.76 1.78 17.546 17.546 0 0 0-.711 1.772c-.134.334-.27.668-.424.993a.458.458 0 0 1-.456.25h-4.116c-.128 0-.288.035-.337-.138a.474.474 0 0 1 .078-.373 6.45 6.45 0 0 0 .526-1.191c.192-.584.473-1.138.717-1.706.211-.493.444-.979.627-1.483.088-.243-.1-.5-.2-.692a25.052 25.052 0 0 1-1.067-2.456c-.24-.61-.536-1.206-.748-1.836-.177-.527-.434-1.045-.66-1.564-.267-.614-.536-1.227-.8-1.843-.471-1.1-.936-2.209-1.405-3.313-.302-.719-.613-1.431-.944-2.207z" class="cls-2"/>
            <path id="Path_2632" d="M1244.949 6101.288c0 2.09-.011 4.179.009 6.269 0 .42-.122.543-.537.534q-1.73-.037-3.461 0c-.406.008-.6-.093-.534-.525.022-.159.049-.363-.133-.45s-.321.058-.438.169a4.688 4.688 0 0 1-3.736 1.159 5.906 5.906 0 0 1-4.29-2.128 7.087 7.087 0 0 1-1.562-3.178 7.886 7.886 0 0 1-.19-2.77 6.911 6.911 0 0 1 3.952-5.764 5.522 5.522 0 0 1 5.265.2c.227.132.4.353.62.5.317.214.549.109.5-.266-.073-.6.226-.641.694-.629 1 .026 2.006.008 3.01.008.828 0 .828 0 .827.8l.004 6.071zm-7.319-2.865a2.855 2.855 0 0 0-.113 5.709 2.877 2.877 0 0 0 2.9-2.813 2.81 2.81 0 0 0-2.787-2.896z" class="cls-2"/>
            <path id="Path_2633" d="M1268.765 6094.113a5.894 5.894 0 0 1 3.783 1.053 6.5 6.5 0 0 1 2.864 3.566 9.189 9.189 0 0 1 .5 2.383 7.393 7.393 0 0 1-2.932 5.926 7.075 7.075 0 0 1-2.277 1.089 9.063 9.063 0 0 1-2.72.254 6.693 6.693 0 0 1-2.962-.818 6.167 6.167 0 0 1-2.714-2.446 7.8 7.8 0 0 1-.838-2.087 6.185 6.185 0 0 1-.247-2.268 8.408 8.408 0 0 1 1.063-3.324 5.713 5.713 0 0 1 1.613-1.852 9.58 9.58 0 0 1 2.205-1.114 7.459 7.459 0 0 1 2.662-.362zm-3.117 7.151a2.962 2.962 0 0 0 2.88 2.993 3.048 3.048 0 0 0 2.983-2.955 2.933 2.933 0 1 0-5.863-.038z" class="cls-2"/>
            <path id="Path_2634" d="M1274.794 6117.3c0 1.12-.012 2.24.007 3.36.006.369-.112.5-.489.486-.55-.027-1.1-.014-1.655 0-.252 0-.411-.038-.42-.343-.012-.427-.245-.452-.509-.2a3.231 3.231 0 0 1-3 .583 2.871 2.871 0 0 1-2.047-1.718 4.674 4.674 0 0 1-.243-3.772 3.409 3.409 0 0 1 3.849-2.356 2.671 2.671 0 0 1 1.391.6c.236.211.49.163.549-.184.042-.244.156-.291.369-.289.6.008 1.2.017 1.806 0 .321-.01.4.134.392.42-.006 1.14-.001 2.277 0 3.413zm-4.231 1.584a1.607 1.607 0 0 0 1.622-1.552 1.644 1.644 0 0 0-1.564-1.573 1.621 1.621 0 0 0-1.64 1.586 1.6 1.6 0 0 0 1.582 1.539z" class="cls-2"/>
            <path id="Path_2635" d="M1257.586 6117.367c0-1.1.019-2.206-.008-3.308-.011-.453.171-.594.588-.579.5.017 1 .015 1.5 0 .291-.009.495.028.471.391a.356.356 0 0 0 .191.379c.192.082.337-.058.44-.171a2.483 2.483 0 0 1 2.844-.545 2.327 2.327 0 0 1 1.508 2.27c.028 1.654.01 3.309.019 4.963 0 .317-.123.451-.449.442-.551-.016-1.1-.011-1.654 0-.39.006-.529-.184-.525-.558.011-1.186.008-2.372.006-3.559a1.49 1.49 0 0 0-.263-.988 1.15 1.15 0 0 0-1.316-.35 1.2 1.2 0 0 0-.715 1.207c-.046 1.218-.032 2.44-.007 3.659.01.459-.133.629-.6.595a14.062 14.062 0 0 0-1.6 0c-.333.014-.436-.115-.433-.435.01-1.141.003-2.28.003-3.413z" class="cls-2"/>
            <path id="Path_2636" d="M1298.684 6105.177a3.025 3.025 0 0 1-3.131 3.158 2.952 2.952 0 0 1-3.083-3.066 3.17 3.17 0 0 1 3.221-3.165 2.951 2.951 0 0 1 2.993 3.073z" class="cls-2"/>
            <path id="Path_2637" d="M1237.63 6098.423a2.81 2.81 0 0 1 2.787 2.9 2.849 2.849 0 1 1-5.7-.1 2.825 2.825 0 0 1 2.913-2.8z" class="cls-1"/>
            <path id="Path_2638" d="M1265.648 6101.264a2.933 2.933 0 1 1 5.863.038 3.048 3.048 0 0 1-2.983 2.955 2.962 2.962 0 0 1-2.88-2.993zm2.905 2.608a2.622 2.622 0 0 0 2.658-2.613 2.688 2.688 0 0 0-2.644-2.647 2.65 2.65 0 0 0-2.694 2.7 2.545 2.545 0 0 0 2.68 2.56z" class="cls-3"/>
            <path id="Path_2639" d="M1270.563 6118.884a1.6 1.6 0 0 1-1.582-1.539 1.621 1.621 0 0 1 1.64-1.586 1.644 1.644 0 0 1 1.564 1.573 1.607 1.607 0 0 1-1.622 1.552z" class="cls-1"/>
            <path id="Path_2640" d="M1268.553 6103.872a2.545 2.545 0 0 1-2.68-2.563 2.65 2.65 0 0 1 2.694-2.7 2.688 2.688 0 0 1 2.644 2.647 2.622 2.622 0 0 1-2.658 2.616z" class="cls-1"/>
        </g>
    </g>
</svg>
