<svg xmlns="http://www.w3.org/2000/svg" width="149.08" height="35.689" viewBox="0 0 149.08 35.689">
    <defs>
        <style>
            .cls-1{fill:#686868}.cls-3{fill:#fe8205}.cls-4{fill:#fe8707}.cls-5{fill:#fe8e09}.cls-6{fill:#fefefd}
        </style>
    </defs>
    <g id="Group_981" transform="translate(-904.266 -6086.96)">
        <g id="Group_980">
            <path id="Path_2450" d="M951.276 6104.891c0-1.743.005-3.486 0-5.229 0-.382.083-.671.522-.716a17.852 17.852 0 0 1 6.1.028 3.6 3.6 0 0 1 2.747 4.825 2.937 2.937 0 0 1-1.655 1.919c-.415.191-.4.355-.191.691.749 1.236 1.476 2.485 2.2 3.733.3.518.238.532-.341.627a2.292 2.292 0 0 1-2.81-1.549 23.568 23.568 0 0 0-1.46-2.514.606.606 0 0 0-.61-.358 14 14 0 0 1-1.607-.032c-.408-.036-.555.068-.543.5.029 1.108-.006 2.218.017 3.327.009.468-.167.649-.631.615a6.591 6.591 0 0 0-1.071 0c-.541.048-.68-.2-.674-.7.02-1.721.007-3.444.007-5.167zm3.982-.436a11.161 11.161 0 0 0 1.721-.085c1.046-.221 1.432-.639 1.463-1.628a1.6 1.6 0 0 0-1.347-1.87 13.677 13.677 0 0 0-3.2-.106c-.27 0-.255.188-.255.369 0 .555-.018 1.111.005 1.664.022.526-.236 1.2.117 1.537.32.31.984.073 1.496.119z" class="cls-1"/>
            <path id="Path_2451" d="M1008.281 6104.855v-5.175c0-.373.064-.683.509-.73a18.123 18.123 0 0 1 6.105.019c2.825.664 3.217 2.957 2.744 4.83a2.768 2.768 0 0 1-1.6 1.889c-.462.21-.434.4-.208.776.743 1.218 1.462 2.45 2.182 3.682.3.519.238.526-.351.623a2.285 2.285 0 0 1-2.807-1.559 26.246 26.246 0 0 0-1.4-2.415.758.758 0 0 0-.8-.45 11.471 11.471 0 0 1-1.549-.031c-.384-.034-.471.106-.465.463.02 1.11-.009 2.221.015 3.33.011.489-.159.668-.657.655-2-.052-1.691.295-1.711-1.684-.019-1.407-.007-2.815-.007-4.223zm3.8-.421c.629 0 1.065.006 1.5 0a2.377 2.377 0 0 0 .41-.067c1.024-.2 1.418-.631 1.454-1.57a1.609 1.609 0 0 0-1.352-1.923 13.621 13.621 0 0 0-3.2-.1c-.272 0-.246.2-.247.375 0 .555-.006 1.11 0 1.664.007.513-.166 1.186.092 1.5.302.353 1.007.076 1.342.121z" class="cls-1"/>
            <path id="Path_2452" d="M984.157 6102.961c0 1.129.021 2.259 0 3.388a4.229 4.229 0 0 1-4.183 4.5 8.232 8.232 0 0 1-2.432-.108 4.083 4.083 0 0 1-3.45-4.286c-.073-2.356-.02-4.716-.027-7.074 0-.371.147-.541.534-.532 2.234.052 1.791-.341 1.821 1.725.027 1.863 0 3.726.011 5.588a2.7 2.7 0 0 0 4.139 2.5 2.312 2.312 0 0 0 1.222-2.278c.022-2.239.009-4.478.011-6.718 0-.813 0-.821.834-.812 1.763.021 1.507-.258 1.525 1.492.009.872 0 1.744 0 2.616z" class="cls-1"/>
            <path id="Path_2453" d="M963.317 6104.829c.06-1.269-.065-2.518.09-3.763a2.234 2.234 0 0 1 2.378-2.3 27.372 27.372 0 0 1 5.114.127c.7.089.75.248.69 1.315-.033.587-.419.52-.8.521-1.43 0-2.86.017-4.29.007-.585 0-.831.264-.82.83s.022 1.111-.011 1.664c-.023.394.154.453.492.45 1.469-.013 2.939-.007 4.409-.005.78 0 .816.04.82.8a2.826 2.826 0 0 0 0 .356c.076.576-.181.77-.748.761-1.489-.025-2.979 0-4.468-.017-.386 0-.526.1-.507.5.031.633 0 1.268.014 1.9.015.749.156.893.924.9 1.43.011 2.86.021 4.29 0 .525-.009.734.19.685.7a1.281 1.281 0 0 0 0 .3c.084.568-.16.815-.733.867a25 25 0 0 1-5.407.05 2.11 2.11 0 0 1-2.026-2.111c-.167-1.3-.036-2.589-.096-3.852z" class="cls-1"/>
            <path id="Path_2454" d="M997.287 6104.776a35.384 35.384 0 0 1 0-3.568 2.288 2.288 0 0 1 2.433-2.445 27.29 27.29 0 0 1 5.059.131c.25.033.636-.031.68.34a2.245 2.245 0 0 1-.077 1.34c-.115.218-.389.153-.6.154-1.431 0-2.862 0-4.293.013-.743.007-.9.17-.916.922-.014.515.016 1.032-.013 1.546-.02.366.1.477.471.473 1.471-.018 2.942-.008 4.412-.007.826 0 .836.012.837.824a2.841 2.841 0 0 0 0 .357c.072.542-.154.741-.7.731-1.471-.026-2.942.006-4.413-.017-.442-.007-.646.082-.608.579.047.631.013 1.268.02 1.9a.723.723 0 0 0 .842.822c1.451-.016 2.9.016 4.353-.008.544-.01.742.179.733.724-.018 1.076 0 1.056-1.068 1.167a32.2 32.2 0 0 1-4.526.1c-1.762-.068-2.537-.824-2.614-2.573-.054-1.165-.012-2.336-.012-3.505z" class="cls-1"/>
            <path id="Path_2455" d="M1024.15 6110.881a17.556 17.556 0 0 1-3.368-.378.521.521 0 0 1-.5-.6c.039-1.362-.223-1.4 1.285-1.2a16.772 16.772 0 0 0 3.389.151 1.384 1.384 0 0 0 1.25-.672 1.188 1.188 0 0 0-.348-1.637 7.09 7.09 0 0 0-2.015-1c-.65-.245-1.313-.454-1.954-.717a2.923 2.923 0 0 1-1.951-2.966 2.841 2.841 0 0 1 2.02-2.724 8.629 8.629 0 0 1 3.883-.353c.71.059 1.411.217 2.117.323.378.056.523.252.533.643.035 1.361.05 1.347-1.319 1.174a18.054 18.054 0 0 0-3.09-.172 2.738 2.738 0 0 0-1.2.3.917.917 0 0 0-.218 1.6 3.069 3.069 0 0 0 1.014.609c1 .394 2 .772 2.984 1.188a2.989 2.989 0 0 1 2.13 3.316 3.212 3.212 0 0 1-2.577 2.9 6.978 6.978 0 0 1-2.065.215z" class="cls-1"/>
            <path id="Path_2456" fill="#666" d="M991.829 6105.769c0 1.447-.016 2.894.008 4.341.008.492-.156.693-.653.649a5.561 5.561 0 0 0-1.012 0c-.539.053-.68-.188-.677-.691.017-2.855-.006-5.709.021-8.564.006-.554-.106-.775-.708-.734-.811.055-1.629 0-2.443.02-.418.011-.558-.147-.549-.557.033-1.633-.182-1.37 1.333-1.378 2.563-.013 5.127.008 7.69-.013.514 0 .705.142.686.673-.051 1.451.2 1.252-1.265 1.268-.655.006-1.312.019-1.966-.007-.368-.014-.477.108-.473.472.018 1.507.008 3.014.008 4.521z"/>
            <path id="Path_2457" d="M1053.346 6098.9c-1.361 3.879-2.711 7.7-4.038 11.537-.147.424-.442.312-.717.317s-.568.093-.712-.322c-1.287-3.722-2.6-7.437-3.891-11.156-.044-.128-.241-.4.084-.4s.754-.253.941.316c.493 1.5 1.024 3 1.538 4.494l1.81 5.28c.057.164.129.323.24.6.106-.26.183-.422.24-.59q1.6-4.661 3.194-9.324c.292-.859.291-.859 1.311-.752z" class="cls-1"/>
            <path id="Path_2458" d="M1038.8 6105.283c0 1.664-.013 3.329.009 4.993.006.4-.119.5-.5.489-.349-.014-.58 0-.576-.484.022-3.309 0-6.619.023-9.928 0-.5-.126-.65-.627-.626-.872.04-1.747 0-2.621.016-.324 0-.51-.029-.5-.437.007-.366.107-.465.473-.463q3.785.024 7.568 0c.35 0 .483.07.485.453s-.161.453-.5.447c-.914-.017-1.828.012-2.741-.015-.393-.011-.506.112-.5.5.021 1.686.007 3.372.007 5.055z" class="cls-1"/>
            <path id="Path_2459" d="M942.315 6104.811a1.846 1.846 0 0 1-1.909 1.9 1.908 1.908 0 0 1 .013-3.816 1.842 1.842 0 0 1 1.896 1.916z" class="cls-3"/>
            <path id="Path_2460" d="M906.163 6102.9a1.908 1.908 0 1 1 .01 3.816 1.908 1.908 0 0 1-.01-3.816z" class="cls-3"/>
            <path id="Path_2461" d="M908.54 6100.372a1.775 1.775 0 0 1-3.549.049 1.775 1.775 0 1 1 3.549-.049z" class="cls-3"/>
            <path id="Path_2462" d="M908.54 6109.208a1.775 1.775 0 1 1-1.809-1.752 1.808 1.808 0 0 1 1.809 1.752z" class="cls-3"/>
            <path id="Path_2463" d="M941.606 6109.2a1.76 1.76 0 1 1-3.519.016 1.76 1.76 0 0 1 3.519-.016z" class="cls-3"/>
            <path id="Path_2464" d="M941.606 6100.362a1.762 1.762 0 0 1-1.75 1.791 1.783 1.783 0 0 1-1.769-1.779 1.762 1.762 0 0 1 1.728-1.752 1.743 1.743 0 0 1 1.791 1.74z" class="cls-3"/>
            <path id="Path_2465" d="M908.524 6094.68a1.594 1.594 0 0 1 1.565 1.615 1.638 1.638 0 0 1-1.626 1.575 1.606 1.606 0 0 1-1.578-1.666 1.561 1.561 0 0 1 1.639-1.524z" class="cls-3"/>
            <path id="Path_2466" d="M908.5 6114.93a1.564 1.564 0 0 1-1.612-1.553 1.6 1.6 0 0 1 1.6-1.638 1.639 1.639 0 0 1 1.6 1.6 1.6 1.6 0 0 1-1.588 1.591z" class="cls-3"/>
            <path id="Path_2467" d="M936.536 6096.2a1.587 1.587 0 0 1 1.711-1.517 1.561 1.561 0 0 1 1.475 1.681 1.6 1.6 0 0 1-3.186-.164z" class="cls-3"/>
            <path id="Path_2468" d="M939.728 6113.357a1.6 1.6 0 0 1-3.193 0 1.6 1.6 0 1 1 3.193 0z" class="cls-3"/>
            <path id="Path_2469" d="M937.074 6099.513a1.466 1.466 0 0 1-1.5 1.5 1.486 1.486 0 0 1-1.495-1.507 1.5 1.5 0 0 1 1.474-1.477 1.489 1.489 0 0 1 1.521 1.484z" class="cls-3"/>
            <path id="Path_2470" d="M911.042 6108.6a1.455 1.455 0 0 1 1.473 1.515 1.477 1.477 0 0 1-1.469 1.468 1.517 1.517 0 0 1-1.523-1.494 1.5 1.5 0 0 1 1.519-1.489z" class="cls-3"/>
            <path id="Path_2471" d="M933.813 6097.9a1.371 1.371 0 1 1-.032-2.742 1.371 1.371 0 0 1 .032 2.742z" class="cls-3"/>
            <path id="Path_2472" d="M914.184 6113.065a1.344 1.344 0 0 1-1.326 1.381 1.373 1.373 0 0 1-1.427-1.354 1.389 1.389 0 0 1 1.4-1.387 1.354 1.354 0 0 1 1.353 1.36z" class="cls-3"/>
            <path id="Path_2473" d="M937.909 6102.868a1.374 1.374 0 0 1-2.748.006 1.374 1.374 0 1 1 2.748-.006z" class="cls-3"/>
            <path id="Path_2474" d="M910.084 6105.376a1.332 1.332 0 0 1 1.357 1.344 1.368 1.368 0 0 1-1.377 1.4 1.42 1.42 0 0 1-1.376-1.364 1.368 1.368 0 0 1 1.396-1.38z" class="cls-3"/>
            <path id="Path_2475" d="M935.439 6094a1.269 1.269 0 1 1-.048-2.536 1.268 1.268 0 1 1 .048 2.536z" class="cls-4"/>
            <path id="Path_2476" d="M935.387 6118.149a1.267 1.267 0 1 1 .055-2.534 1.267 1.267 0 1 1-.055 2.534z" class="cls-4"/>
            <path id="Path_2477" d="M911.2 6115.616a1.267 1.267 0 1 1 0 2.533 1.267 1.267 0 1 1 0-2.533z" class="cls-4"/>
            <path id="Path_2478" d="M911.186 6094a1.269 1.269 0 1 1 .028-2.537 1.261 1.261 0 0 1 1.274 1.28 1.276 1.276 0 0 1-1.302 1.257z" class="cls-4"/>
            <path id="Path_2479" d="M932.537 6094.127a1.254 1.254 0 0 1-1.264 1.236 1.268 1.268 0 0 1-1.237-1.27 1.248 1.248 0 0 1 1.271-1.226 1.232 1.232 0 0 1 1.23 1.26z" class="cls-4"/>
            <path id="Path_2480" d="M916.565 6115.5a1.222 1.222 0 0 1-1.238 1.248 1.253 1.253 0 0 1-1.263-1.236 1.28 1.28 0 0 1 1.251-1.26 1.255 1.255 0 0 1 1.25 1.248z" class="cls-4"/>
            <path id="Path_2481" d="M908.787 6103.26a1.241 1.241 0 0 1 1.237-1.255 1.276 1.276 0 0 1 1.264 1.245 1.263 1.263 0 0 1-1.254 1.251 1.227 1.227 0 0 1-1.247-1.241z" class="cls-4"/>
            <path id="Path_2482" d="M916.361 6113.392a1.21 1.21 0 0 1-1.241-1.233 1.233 1.233 0 0 1 1.2-1.227 1.26 1.26 0 0 1 1.283 1.216 1.237 1.237 0 0 1-1.242 1.244z" class="cls-3"/>
            <path id="Path_2483" d="M936.571 6105.112a1.244 1.244 0 1 1-1.236 1.256 1.241 1.241 0 0 1 1.236-1.256z" class="cls-3"/>
            <path id="Path_2484" d="M931.486 6097.436a1.206 1.206 0 0 1-1.236 1.234 1.23 1.23 0 0 1-1.222-1.259 1.213 1.213 0 0 1 1.218-1.194 1.182 1.182 0 0 1 1.24 1.219z" class="cls-3"/>
            <path id="Path_2485" d="M918.964 6115.032a1.1 1.1 0 0 1-1.071-1.118 1.077 1.077 0 0 1 1.094-1.025 1.044 1.044 0 0 1 1.057 1.107 1.061 1.061 0 0 1-1.08 1.036z" class="cls-4"/>
            <path id="Path_2486" d="M932.188 6101a1.073 1.073 0 0 1-1.066-1.051 1.1 1.1 0 0 1 1.1-1.089 1.062 1.062 0 0 1 1.048 1.122 1.031 1.031 0 0 1-1.082 1.018z" class="cls-3"/>
            <path id="Path_2487" d="M915.48 6109.641a1.073 1.073 0 1 1-1.065-1.038 1.043 1.043 0 0 1 1.065 1.038z" class="cls-3"/>
            <path id="Path_2488" d="M928.716 6095.656a1.073 1.073 0 0 1-2.146-.006 1.073 1.073 0 1 1 2.146.006z" class="cls-3"/>
            <path id="Path_2489" d="M914.715 6088.964a1.059 1.059 0 0 1 1.1 1.018 1.084 1.084 0 0 1-1.041 1.087 1.054 1.054 0 0 1-1.085-1.03 1.03 1.03 0 0 1 1.026-1.075z" class="cls-5"/>
            <path id="Path_2490" d="M915.814 6119.619a1.056 1.056 0 0 1-1.09 1.026 1.024 1.024 0 0 1-1.036-1.065 1.066 1.066 0 0 1 1.077-1.045 1.1 1.1 0 0 1 1.049 1.084z" class="cls-5"/>
            <path id="Path_2491" d="M931.867 6120.646a1.031 1.031 0 0 1-1.055-1.048 1.079 1.079 0 0 1 1.059-1.065 1.059 1.059 0 0 1 1.045 1.069 1.009 1.009 0 0 1-1.049 1.044z" class="cls-5"/>
            <path id="Path_2492" d="M932.916 6089.991a1.045 1.045 0 0 1-1.028 1.079 1.063 1.063 0 0 1-1.074-1.042 1.031 1.031 0 0 1 1.037-1.064 1.01 1.01 0 0 1 1.065 1.027z" class="cls-5"/>
            <path id="Path_2493" d="M909.877 6099.87a1.007 1.007 0 1 1 2.014.018 1.007 1.007 0 0 1-2.014-.018z" class="cls-4"/>
            <path id="Path_2494" d="M936.724 6109.749a.994.994 0 0 1-.982.989 1.031 1.031 0 0 1-1.02-1.027 1.016 1.016 0 0 1 1-.981.977.977 0 0 1 1.002 1.019z" class="cls-5"/>
            <path id="Path_2495" d="M919.382 6117.207a1.026 1.026 0 0 1-1.046 1 .991.991 0 0 1-.957-1.009.959.959 0 0 1 .97-.982 1 1 0 0 1 1.033.991z" class="cls-4"/>
            <path id="Path_2496" d="M928.255 6093.4a.961.961 0 0 1-1-.947 1 1 0 0 1 .981-1.045 1.008 1.008 0 0 1 1.009 1.022.976.976 0 0 1-.99.97z" class="cls-4"/>
            <path id="Path_2497" d="M924.569 6095.731a.994.994 0 0 1-.938-.973.95.95 0 0 1 1.016-.935.932.932 0 0 1 .9.986.963.963 0 0 1-.978.922z" class="cls-4"/>
            <path id="Path_2498" d="M921.141 6111.121a1 1 0 0 1 1 .969.95.95 0 0 1-.945.945.922.922 0 0 1-.982-.894.96.96 0 0 1 .927-1.02z" class="cls-3"/>
            <path id="Path_2499" d="M925.428 6096.573a.946.946 0 0 1 1 .952.993.993 0 0 1-.939.965.968.968 0 0 1-.99-.967.936.936 0 0 1 .929-.95z" class="cls-3"/>
            <path id="Path_2500" d="M922.984 6114.843a.95.95 0 0 1-.951.941.929.929 0 0 1-.958-.983.952.952 0 0 1 .968-.924.986.986 0 0 1 .941.966z" class="cls-4"/>
            <path id="Path_2501" d="M934.219 6102.931a.916.916 0 0 1-.943.934.947.947 0 0 1-.966-.925.984.984 0 0 1 .988-.979.945.945 0 0 1 .921.97z" class="cls-4"/>
            <path id="Path_2502" d="M913.346 6105.742a.919.919 0 0 1 .946.934.953.953 0 0 1-.984.97.976.976 0 0 1-.925-.979.938.938 0 0 1 .963-.925z" class="cls-4"/>
            <path id="Path_2503" d="M918.985 6111.917a.847.847 0 0 1-.8-.857.824.824 0 0 1 .833-.821.854.854 0 0 1 .846.879.876.876 0 0 1-.879.799z" class="cls-4"/>
            <path id="Path_2504" d="M928.453 6098.508a.851.851 0 0 1-.8.861.809.809 0 0 1-.87-.773.845.845 0 0 1 .814-.9.876.876 0 0 1 .856.812z" class="cls-4"/>
            <path id="Path_2505" d="M923.508 6113.238a.877.877 0 0 1-.828-.846.842.842 0 0 1 .9-.822.827.827 0 0 1 .791.861.856.856 0 0 1-.863.807z" class="cls-4"/>
            <path id="Path_2506" d="M923.1 6096.374a.865.865 0 0 1 .836.833.839.839 0 0 1-.881.833.794.794 0 0 1-.79-.847.838.838 0 0 1 .835-.819z" class="cls-3"/>
            <path id="Path_2507" d="M919.7 6088.277a.827.827 0 0 1-1.652.055.846.846 0 0 1 .8-.859.837.837 0 0 1 .852.804z" class="cls-5"/>
            <path id="Path_2508" d="M934.014 6113.6a.822.822 0 0 1-.8-.851.814.814 0 0 1 .84-.807.829.829 0 0 1-.039 1.658z" class="cls-5"/>
            <path id="Path_2509" d="M919.7 6121.305a.827.827 0 1 1-1.653 0 .827.827 0 0 1 1.653 0z" class="cls-5"/>
            <path id="Path_2510" d="M925.7 6091.571a.86.86 0 0 1-.845.819.832.832 0 0 1-.8-.845.784.784 0 0 1 .83-.8.824.824 0 0 1 .815.826z" class="cls-5"/>
            <path id="Path_2511" d="M927.721 6122.133a.831.831 0 0 1-.8-.85.791.791 0 0 1 .841-.793.824.824 0 0 1 .816.833.858.858 0 0 1-.857.81z" class="cls-5"/>
            <path id="Path_2512" d="M927.725 6089.119a.789.789 0 0 1-.8-.829.831.831 0 0 1 .836-.815.868.868 0 0 1 .822.847.826.826 0 0 1-.858.797z" class="cls-5"/>
            <path id="Path_2513" d="M913.417 6096.836a.85.85 0 0 1-.833.83.809.809 0 0 1-.818-.826.82.82 0 0 1 .816-.832.855.855 0 0 1 .835.828z" class="cls-5"/>
            <path id="Path_2514" d="M922.589 6118.064a.831.831 0 0 1-.845.8.785.785 0 0 1-.8-.827.823.823 0 0 1 .827-.819.856.856 0 0 1 .818.846z" class="cls-5"/>
            <path id="Path_2515" d="M924.07 6121.979a.718.718 0 0 1-.75.669.767.767 0 1 1-.027-1.533.777.777 0 0 1 .777.864z" class="cls-5"/>
            <path id="Path_2516" d="M924.078 6087.74a.752.752 0 0 1-.759.753.766.766 0 1 1 .034-1.53.74.74 0 0 1 .725.777z" class="cls-5"/>
            <path id="Path_2517" d="M925.2 6115.5a.759.759 0 1 1 0-1.518.759.759 0 1 1 0 1.518z" class="cls-5"/>
            <path id="Path_2518" d="M913.235 6102.769a.724.724 0 0 1 .763.747.712.712 0 0 1-.745.756.752.752 0 0 1-.018-1.5z" class="cls-5"/>
            <path id="Path_2519" d="M922.167 6094.941a.708.708 0 0 1-.741.675.753.753 0 0 1-.006-1.505.753.753 0 0 1 .747.83z" class="cls-5"/>
            <path id="Path_2520" d="M934.119 6106.085a.7.7 0 0 1-.725.74.742.742 0 0 1-.048-1.482.711.711 0 0 1 .773.742z" class="cls-5"/>
            <path id="Path_2521" d="M921.428 6099.907a.744.744 0 0 1-.742.764.736.736 0 0 1-.762-.745.7.7 0 0 1 .711-.729.735.735 0 0 1 .793.71z" class="cls-4"/>
            <path id="Path_2522" d="M925.962 6108.93a.725.725 0 0 1 .724.771.686.686 0 0 1-.727.7.731.731 0 0 1-.764-.735.744.744 0 0 1 .767-.736z" class="cls-3"/>
            <path id="Path_2523" d="M921.495 6097.636a.711.711 0 0 1-.736.751.731.731 0 0 1-.042-1.461.715.715 0 0 1 .778.71z" class="cls-4"/>
            <path id="Path_2524" d="M926.6 6111.963a.707.707 0 0 1-.76.723.68.68 0 0 1-.71-.768.671.671 0 0 1 .723-.695.715.715 0 0 1 .747.74z" class="cls-4"/>
            <path id="Path_2525" d="M930.077 6100.182a.69.69 0 0 1-.728.715.728.728 0 0 1-.059-1.455.727.727 0 0 1 .787.74z" class="cls-4"/>
            <path id="Path_2526" d="M917.257 6108.7a.7.7 0 0 1 .757.742.658.658 0 0 1-.689.723.669.669 0 0 1-.774-.7.693.693 0 0 1 .706-.765z" class="cls-4"/>
            <path id="Path_2527" d="M924.282 6110.9a.617.617 0 0 1-.623-.7.6.6 0 0 1 .664-.609.655.655 0 1 1-.041 1.309z" class="cls-4"/>
            <path id="Path_2528" d="M919.33 6101.632a.623.623 0 0 1-.692-.6.657.657 0 1 1 .692.6z" class="cls-4"/>
            <path id="Path_2529" d="M927.34 6107.956a.644.644 0 0 1 .644.65.609.609 0 0 1-.672.664.6.6 0 0 1-.631-.695c.019-.408.289-.575.659-.619z" class="cls-4"/>
            <path id="Path_2530" d="M922.282 6098.7a.625.625 0 0 1 .687.657.65.65 0 1 1-.687-.657z" class="cls-4"/>
            <path id="Path_2531" d="M925.886 6118.03a.6.6 0 0 1-.661.6.635.635 0 1 1 .037-1.269.611.611 0 0 1 .624.669z" class="cls-5"/>
            <path id="Path_2532" d="M921.393 6090.977a.6.6 0 0 1 .622.642.641.641 0 1 1-1.282-.043.6.6 0 0 1 .66-.599z" class="cls-5"/>
            <path id="Path_2533" d="M914.381 6094.335a.639.639 0 1 1 .639.645.6.6 0 0 1-.639-.645z" class="cls-5"/>
            <path id="Path_2534" d="M931.544 6115.9a.587.587 0 0 1-.575-.667.582.582 0 0 1 .662-.6.588.588 0 0 1 .608.665.615.615 0 0 1-.695.602z" class="cls-5"/>
            <path id="Path_2535" d="M928.181 6114.3a.605.605 0 0 1-.605-.607.563.563 0 0 1 .582-.615.57.57 0 0 1 .633.621.605.605 0 0 1-.61.601z" class="cls-5"/>
            <path id="Path_2536" d="M933.1 6109.111c-.047.35-.217.6-.593.616a.558.558 0 0 1-.634-.558.57.57 0 0 1 .6-.651c.375-.008.571.237.627.593z" class="cls-5"/>
            <path id="Path_2537" d="M914.756 6100.474a.6.6 0 0 1-.595.611.562.562 0 0 1-.625-.622.549.549 0 0 1 .606-.579.6.6 0 0 1 .614.59z" class="cls-5"/>
            <path id="Path_2538" d="M919.052 6095.934a.592.592 0 0 1-.611.593.546.546 0 0 1-.6-.579.559.559 0 0 1 .621-.624.6.6 0 0 1 .59.61z" class="cls-5"/>
            <path id="Path_2539" d="M929.2 6117.028a.573.573 0 0 1-.584.616.548.548 0 0 1-.61-.576.541.541 0 0 1 .575-.6.564.564 0 0 1 .619.56z" class="cls-5"/>
            <path id="Path_2540" d="M918.05 6093.155a.574.574 0 0 1-.635-.574.554.554 0 0 1 .576-.614.54.54 0 0 1 .611.569.555.555 0 0 1-.552.619z" class="cls-5"/>
            <path id="Path_2541" d="M918.65 6098.205c.41.059.624.278.594.644a.578.578 0 1 1-1.151-.107.556.556 0 0 1 .557-.537z" class="cls-5"/>
            <path id="Path_2542" d="M928.55 6110.817c-.054.359-.243.6-.624.575a.577.577 0 0 1 .064-1.152c.356.009.51.25.56.577z" class="cls-5"/>
            <path id="Path_2543" d="M916.151 6107.938a.543.543 0 0 1-.576-.6.519.519 0 0 1 .556-.561.54.54 0 0 1 .593.593.55.55 0 0 1-.573.568z" class="cls-5"/>
            <path id="Path_2544" d="M931.077 6102.258c-.057.374-.265.6-.638.577a.576.576 0 1 1 .078-1.15c.361.015.512.254.56.573z" class="cls-5"/>
            <path id="Path_2545" d="M918.286 6103c-.355-.075-.585-.261-.549-.65a.528.528 0 0 1 .6-.523.535.535 0 0 1 .56.571c.003.372-.245.568-.611.602z" class="cls-5"/>
            <path id="Path_2546" d="M928.37 6107.786c-.373-.026-.6-.18-.631-.538a.579.579 0 1 1 1.152-.111.578.578 0 0 1-.521.649z" class="cls-5"/>
            <path id="Path_2547" d="M924.046 6098.731a.559.559 0 0 1 .584.568.55.55 0 0 1-.6.6.532.532 0 0 1-.565-.564.56.56 0 0 1 .581-.604z" class="cls-5"/>
            <path id="Path_2548" d="M922.584 6110.879c-.391-.052-.6-.258-.586-.634a.528.528 0 0 1 .584-.542.541.541 0 0 1 .568.62.567.567 0 0 1-.566.556z" class="cls-4"/>
            <path id="Path_2549" d="M917.82 6103.55c.3.046.521.2.5.532a.474.474 0 0 1-.542.486.467.467 0 0 1-.481-.49c-.003-.319.203-.492.523-.528z" class="cls-5"/>
            <path id="Path_2550" d="M920.906 6109.278c.325.041.519.209.515.505a.472.472 0 0 1-.534.506.464.464 0 0 1-.488-.492.5.5 0 0 1 .507-.519z" class="cls-5"/>
            <path id="Path_2551" d="M929.319 6105.51a.478.478 0 0 1-.472.525.5.5 0 1 1-.076-1 .479.479 0 0 1 .548.475z" class="cls-5"/>
            <path id="Path_2552" d="M926.221 6099.806a.473.473 0 0 1-.479.5.5.5 0 1 1-.066-.988.483.483 0 0 1 .545.488z" class="cls-5"/>
            <path id="Path_2553" d="M930.059 6109.089a.469.469 0 1 1-.439-.468.438.438 0 0 1 .439.468z" class="cls-5"/>
            <path id="Path_2554" d="M930.918 6104.106a.469.469 0 0 1 .465.51.425.425 0 0 1-.465.437.43.43 0 0 1-.472-.433.476.476 0 0 1 .472-.514z" class="cls-5"/>
            <path id="Path_2555" d="M915.677 6105.5c-.283-.068-.473-.219-.438-.534a.42.42 0 0 1 .488-.406.432.432 0 0 1 .443.515.472.472 0 0 1-.493.425z" class="cls-5"/>
            <path id="Path_2556" d="M917.512 6100.511c-.063.318-.228.5-.534.472a.43.43 0 0 1-.42-.483.439.439 0 0 1 .516-.447.478.478 0 0 1 .438.458z" class="cls-5"/>
            <path id="Path_2557" d="M916.382 6097.843c-.026.267-.156.458-.436.469a.444.444 0 1 1-.045-.886c.288-.02.426.156.481.417z" class="cls-5"/>
            <path id="Path_2558" d="M931.138 6111.725c-.015.262-.135.445-.422.457a.4.4 0 0 1-.462-.418.408.408 0 0 1 .416-.469.42.42 0 0 1 .468.43z" class="cls-5"/>
            <path id="Path_2559" d="M927.581 6100.788c-.025.254-.148.44-.434.441a.407.407 0 0 1-.446-.437.4.4 0 0 1 .4-.423c.281-.022.437.131.48.419z" class="cls-5"/>
            <path id="Path_2560" d="M917.866 6105.367a.432.432 0 1 1-.062.861.4.4 0 0 1-.392-.431.413.413 0 0 1 .454-.43z" class="cls-5"/>
            <path id="Path_2561" d="M919.908 6108.78c-.009.269-.131.427-.391.443a.423.423 0 1 1-.076-.843.4.4 0 0 1 .467.4z" class="cls-5"/>
            <path id="Path_2562" d="M929.2 6103.87a.407.407 0 0 1-.512.351.379.379 0 0 1-.336-.471.391.391 0 0 1 .5-.366.406.406 0 0 1 .348.486z" class="cls-5"/>
            <path id="Path_2563" d="M928.563 6102.169c-.033.211-.143.366-.373.364a.333.333 0 0 1-.351-.378.316.316 0 0 1 .327-.336c.234-.008.349.132.397.35z" class="cls-5"/>
            <path id="Path_2564" d="M918.381 6107.067c.254.009.4.131.41.353a.332.332 0 0 1-.364.366.322.322 0 0 1-.352-.316.349.349 0 0 1 .306-.403z" class="cls-5"/>
            <path id="Path_2565" d="M916 6102.313a.334.334 0 0 1 .349.333.316.316 0 0 1-.3.367.322.322 0 0 1-.379-.353.334.334 0 0 1 .33-.347z" class="cls-5"/>
            <path id="Path_2566" d="M930.673 6107.3c-.238 0-.375-.1-.4-.3a.347.347 0 1 1 .686-.107.359.359 0 0 1-.286.407z" class="cls-5"/>
            <path id="Path_2567" d="M955.257 6104.455c-.511-.046-1.175.191-1.5-.119-.353-.339-.095-1.011-.117-1.537-.023-.553-.005-1.109-.005-1.664 0-.181-.015-.373.255-.369a13.677 13.677 0 0 1 3.2.106 1.6 1.6 0 0 1 1.347 1.87c-.031.989-.417 1.407-1.463 1.628a11.168 11.168 0 0 1-1.717.085z" class="cls-6"/>
            <path id="Path_2568" d="M1012.08 6104.434c-.335-.045-1.04.232-1.343-.132-.258-.31-.085-.983-.092-1.5-.007-.554 0-1.109 0-1.664 0-.177-.025-.38.247-.375a13.621 13.621 0 0 1 3.2.1 1.609 1.609 0 0 1 1.352 1.923c-.036.939-.43 1.366-1.454 1.57a2.377 2.377 0 0 1-.41.067c-.435.017-.871.011-1.5.011z" class="cls-6"/>
        </g>
    </g>
</svg>
