<?xml version="1.0" encoding="UTF-8"?> <svg xmlns="http://www.w3.org/2000/svg" width="16.656" height="16.656" viewBox="0 0 16.656 16.656"><path data-name="Path 548" d="M1134.361 1224.261a5.781 5.781 0 1 0-.472 8.6l.547.547a3.616 3.616 0 0 1 .692.959 1.748 1.748 0 0 0 .229.348l3.467 4.143.008.01a1.035 1.035 0 0 0 1.519.051l.491-.491a1.036 1.036 0 0 0-.051-1.519l-.01-.008-4.143-3.467a1.749 1.749 0 0 0-.348-.229 3.614 3.614 0 0 1-.959-.692l-.547-.547a5.781 5.781 0 0 0-.423-7.705zm-7.271 7.271a4.5 4.5 0 1 1 6.367 0 4.5 4.5 0 0 1-6.367 0z" transform="translate(-1124.493 -1222.568)" style="fill:#021f3d"></path></svg> 