<?xml version="1.0" encoding="UTF-8"?> <svg xmlns="http://www.w3.org/2000/svg" viewBox="0 0 174.68 37.32"><defs><style>.cls-1{fill:#060606;}.cls-2{fill:#f01313;}</style></defs><g id="Layer_2" data-name="Layer 2"><g id="Layer_1-2" data-name="Layer 1"><path class="cls-1" d="M118.49,37.32V31.48c0-.39,0-.78,0-1.18s0-.3.3-.31h0a1.84,1.84,0,0,1,.75.05c.19.11,0,.44.12.67.13,0,.15-.09.2-.15a2.14,2.14,0,0,1,3.32.24,3.19,3.19,0,0,1,.47,2.15,3,3,0,0,1-.36,1.2,2.27,2.27,0,0,1-2.56,1.11,1.59,1.59,0,0,1-.73-.4c-.05,0-.07-.14-.22-.11v2.57Zm1.32-4.67c0,.17,0,.33,0,.5a1.22,1.22,0,0,0,2.36.36,2.39,2.39,0,0,0,0-1.82,1.18,1.18,0,0,0-1.2-.77,1.27,1.27,0,0,0-1.09.94A2.61,2.61,0,0,0,119.81,32.65Z"></path><path class="cls-2" d="M105.8,18.7a13.78,13.78,0,0,0,1.08-1.9c2-4.19,4.13-8.29,6.08-12.49a8.32,8.32,0,0,0,.75-2.39c0-.28.05-.29.33-.27.9.06,1.81.07,2.71.07.65,0,1.3-.06,2-.07.13,0,.29-.06.35.13a.68.68,0,0,1,0,.56c-.06.1-.18.07-.28.08a9,9,0,0,0-1.35.2A1.49,1.49,0,0,0,116.21,4a7.6,7.6,0,0,0-.09,1.07c0,1.79,0,3.59,0,5.38.08,3.08.21,6.16.32,9.23,0,.32,0,.64.07,1a1.33,1.33,0,0,0,1.15,1.28,8.65,8.65,0,0,0,1.14.13c.27,0,.34.11.32.4s-.11.46-.38.43c-1.49-.16-3-.11-4.47-.13-.89,0-1.78.06-2.67.12-.15,0-.31.06-.4-.12a.78.78,0,0,1,0-.6c0-.09.14-.09.23-.09l1.14-.13a1.18,1.18,0,0,0,1.15-1.19c0-.33.05-.66.05-1q0-6.69-.1-13.4a.5.5,0,0,0,0-.31.72.72,0,0,0-.25.32,22.19,22.19,0,0,0-1.28,2.47c-1.39,3.08-2.94,6.09-4.51,9.09-.79,1.52-1.46,3.1-2.16,4.67,0,.1-.09.21-.14.31a.33.33,0,0,1-.33.21.35.35,0,0,1-.35-.26,37.8,37.8,0,0,0-2.12-4.89c-1.28-2.77-2.59-5.53-3.88-8.29-.52-1.13-1-2.29-1.5-3.43a.78.78,0,0,0-.24-.36c0,.25,0,.45,0,.66-.15,3.44-.38,6.88-.45,10.33,0,1,0,1.94,0,2.9a5.66,5.66,0,0,0,.2,1.36,1,1,0,0,0,.83.79,10.42,10.42,0,0,0,1.37.14.41.41,0,0,1,.38.58.3.3,0,0,1-.36.25,37.61,37.61,0,0,0-4-.13,23.16,23.16,0,0,0-2.36.12c-.3,0-.39,0-.43-.34s0-.43.31-.48a6.63,6.63,0,0,0,1.38-.28,1.32,1.32,0,0,0,.85-.91,9.27,9.27,0,0,0,.27-1.66q.28-3.37.5-6.77c.16-2.42.24-4.83.35-7.25a5.76,5.76,0,0,0-.07-1.37,1.26,1.26,0,0,0-.95-1.07,7.7,7.7,0,0,0-1.41-.3.29.29,0,0,1-.3-.35c0-.26.13-.42.33-.43l.57,0a30.32,30.32,0,0,0,3.93,0H98c.38,0,.34,0,.34.31a6.42,6.42,0,0,0,.46,2.16,50.81,50.81,0,0,0,2.34,5.09c1.49,2.91,2.9,5.86,4.33,8.8C105.54,18.22,105.66,18.43,105.8,18.7Z"></path><path class="cls-2" d="M145.72,17.19c0,1,0,2.26,0,3.5a.45.45,0,0,0,0,.11A1,1,0,0,0,146.83,22l.65.09c.24,0,.33.17.3.43s-.17.41-.41.38a36.44,36.44,0,0,0-4.31-.11c-.4,0-.81.07-1.22.11-.26,0-.38-.08-.42-.36s.06-.41.31-.46.58-.08.87-.17a.9.9,0,0,0,.67-.74,2.76,2.76,0,0,0,.06-.57c0-2.13,0-4.25,0-6.38a3.22,3.22,0,0,0-.25-1.26,2.27,2.27,0,0,0-1.49-1.42,4,4,0,0,0-3.12.22,2.16,2.16,0,0,0-1.26,1.94,5.43,5.43,0,0,0,0,.57c0,2,0,3.92,0,5.88a5,5,0,0,0,.07,1,.89.89,0,0,0,.71.76c.26.06.52.09.79.15s.34.21.29.5-.16.35-.42.32a32.61,32.61,0,0,0-4.31-.1,10.22,10.22,0,0,0-1.1.1c-.3,0-.36,0-.4-.36s0-.41.28-.46.53-.07.79-.12a.88.88,0,0,0,.79-.85,7.37,7.37,0,0,0,.09-1.33q0-3.23,0-6.45c0-.16,0-.33,0-.5a1.08,1.08,0,0,0-.43-.89,4.29,4.29,0,0,0-.55-.4.36.36,0,0,1-.22-.37.34.34,0,0,1,.27-.32c.59-.21,1.15-.49,1.72-.74a8.32,8.32,0,0,0,1.17-.65c.1-.07.2-.16.34-.07a.34.34,0,0,1,.15.36c0,.39,0,.79,0,1.18a1.23,1.23,0,0,0,0,.27.23.23,0,0,0,.35.17l.26-.16a10.46,10.46,0,0,1,3.08-1.3,5.05,5.05,0,0,1,2.05,0,3.24,3.24,0,0,1,2.58,2.47,4.86,4.86,0,0,1,.18,1.47Z"></path><path class="cls-2" d="M0,13c.47,0,.93.07,1.4.1a55.58,55.58,0,0,0,7.74.18,12.21,12.21,0,0,0,2.75-.43,4.71,4.71,0,0,0,3.52-4.55,7.23,7.23,0,0,0-.25-2.45,4.19,4.19,0,0,0-3.33-3,9.78,9.78,0,0,0-2.59-.14c-.42,0-.58.18-.66.6a1.87,1.87,0,0,0,0,.34c0,2.89,0,5.77,0,8.66,0,.32,0,.32-.31.33-.64,0-1.29,0-1.94,0-.33,0-.33,0-.33-.34V7a25.17,25.17,0,0,0-.12-3,1.17,1.17,0,0,0-1-1.14A7.5,7.5,0,0,0,3.58,2.7c-.38,0-.44-.31-.39-.56a.4.4,0,0,1,.38-.32l1-.08c2.16-.12,4.33-.14,6.49-.07a10.78,10.78,0,0,1,3.8.73,5.55,5.55,0,0,1,3.43,4.48,5.67,5.67,0,0,1-.23,2.68A4.52,4.52,0,0,1,16.3,12a11.31,11.31,0,0,1-5.46,2,24.74,24.74,0,0,1-3.55.14,30.06,30.06,0,0,1-4.62-.57L.09,13S0,13,0,13Z"></path><path class="cls-2" d="M44.22,16.3v3.86a4.74,4.74,0,0,0,.09,1,.83.83,0,0,0,.74.75c.43.08.86.08,1.29.14s.36.11.34.38-.14.47-.43.44a45.44,45.44,0,0,0-4.81-.12c-.42,0-.84.07-1.25.11a.37.37,0,0,1-.45-.38.36.36,0,0,1,.34-.44c.3,0,.61-.07.91-.14a.85.85,0,0,0,.72-.73,5.26,5.26,0,0,0,.12-1.37c-.06-1,0-2,0-2.94,0-1.23,0-2.47,0-3.7,0-.34,0-.69,0-1s-.14-.6-.58-.59h-1c-.17,0-.29,0-.34-.23a.35.35,0,0,1,.18-.44c.38-.2.77-.41,1.16-.58a.79.79,0,0,0,.51-.8,16,16,0,0,1,.82-4.95,7.45,7.45,0,0,1,2.14-3.16A5.62,5.62,0,0,1,48,0a4.82,4.82,0,0,1,2.29.24,2.31,2.31,0,0,1,1.17.82,1.19,1.19,0,0,1,.17,1.19,1.16,1.16,0,0,1-2,.33,6.42,6.42,0,0,0-1-.9,2.34,2.34,0,0,0-3.2.35,3.08,3.08,0,0,0-.64,1.16,14.83,14.83,0,0,0-.61,3.91c0,.84,0,1.68,0,2.52a1.77,1.77,0,0,0,0,.23c0,.25.09.31.33.32h3.56c.35,0,.44.1.45.45a1.55,1.55,0,0,1-.08.53.5.5,0,0,1-.49.36H44.72c-.39,0-.5.09-.5.5V16.3Z"></path><path class="cls-2" d="M125.69,23.21A6.63,6.63,0,0,1,121,21.38a6.23,6.23,0,0,1-1.81-3.94,7.77,7.77,0,0,1,.14-2.5,6.42,6.42,0,0,1,5.19-5,6.68,6.68,0,0,1,3.35.12,5.88,5.88,0,0,1,4.05,3.73,7.23,7.23,0,0,1-.17,5.75,6,6,0,0,1-4.94,3.61A10,10,0,0,1,125.69,23.21Zm4-6.38A7.75,7.75,0,0,0,129.5,15a6.74,6.74,0,0,0-1.62-3.31,3.23,3.23,0,0,0-4.74.23,5.23,5.23,0,0,0-.93,1.78,9.22,9.22,0,0,0-.09,4.75,6.61,6.61,0,0,0,1,2.35,3.39,3.39,0,0,0,3.37,1.43,2.69,2.69,0,0,0,1.9-1.08,5.23,5.23,0,0,0,.71-1.26A7.63,7.63,0,0,0,129.65,16.83Z"></path><path class="cls-2" d="M167.53,19.62a1.12,1.12,0,0,0,.27-.41c1.06-2.17,2-4.4,2.85-6.66a5.11,5.11,0,0,0,.23-.76.46.46,0,0,0-.29-.59,4.84,4.84,0,0,0-.93-.22l-.34-.06a.36.36,0,0,1-.31-.46c0-.25.13-.35.41-.33.87,0,1.73.08,2.6.08s1.47,0,2.21-.08a.38.38,0,0,1,.44.49c0,.17-.12.28-.3.29a2.72,2.72,0,0,0-2.1,1.54c-.58,1-1.07,2-1.57,3.05-2.19,4.4-4.2,8.87-6.28,13.32a6.94,6.94,0,0,1-.59,1.07,1.9,1.9,0,0,1-2.21.68,1.19,1.19,0,0,1-.85-1.22,1.25,1.25,0,0,1,1-1.28,3.38,3.38,0,0,1,.84,0,1.25,1.25,0,0,0,1.2-.66,24.09,24.09,0,0,0,1.65-3.09,4.17,4.17,0,0,0,.13-3.34c-.9-2.38-1.78-4.78-2.66-7.18a17.43,17.43,0,0,0-.68-1.74,1.65,1.65,0,0,0-1.12-.91l-.81-.19c-.23-.06-.28-.16-.25-.43s.12-.36.35-.36a.91.91,0,0,1,.23,0c1.2.09,2.41,0,3.62.07.53,0,1-.07,1.57-.08.34,0,.44.07.46.4s-.05.32-.27.39l-.56.13-.37.08c-.39.12-.43.18-.38.57a1.87,1.87,0,0,0,.09.41c.78,2.36,1.53,4.72,2.46,7A1.46,1.46,0,0,0,167.53,19.62Z"></path><path class="cls-2" d="M54.39,14.6c-.76,0-2,0-3.21,0-.42,0-.6.13-.6.55A7.44,7.44,0,0,0,51.49,19a4.59,4.59,0,0,0,3.78,2.38,4.7,4.7,0,0,0,1.06,0,3.46,3.46,0,0,0,2.09-1.1c.1-.11.19-.24.29-.35a.38.38,0,0,1,.48-.05.39.39,0,0,1,.13.47l0,.06a5.09,5.09,0,0,1-2.17,2.09,6.08,6.08,0,0,1-5.92-.16,5.08,5.08,0,0,1-2.45-3.27,7.85,7.85,0,0,1,.75-6.23,6,6,0,0,1,5.62-3.1,4.39,4.39,0,0,1,3.6,1.85,3.17,3.17,0,0,1,.58,2.53.43.43,0,0,1-.43.4c-.34,0-.69.05-1,.05Zm-1-1v0c.65,0,1.3,0,2,0,.35,0,.71-.06,1.06-.09a.51.51,0,0,0,.48-.47,1.74,1.74,0,0,0-.6-1.71,2.46,2.46,0,0,0-1-.47,3.94,3.94,0,0,0-4.2,2,2.14,2.14,0,0,0-.18.54c0,.17,0,.24.2.25H53.4Z"></path><path class="cls-2" d="M154.51,14.6c-1,0-2.23,0-3.47,0-.44,0-.6.1-.61.49a6.74,6.74,0,0,0,1.07,4.17,4.7,4.7,0,0,0,3.7,2.14,3.62,3.62,0,0,0,2.17-.37,3.9,3.9,0,0,0,1.11-1,.37.37,0,0,1,.49-.15.36.36,0,0,1,.16.58,5.61,5.61,0,0,1-2.7,2.32,6.23,6.23,0,0,1-6.14-.94,6,6,0,0,1-1.76-3,7.63,7.63,0,0,1,.85-6A6,6,0,0,1,155,9.76a4.26,4.26,0,0,1,2.93,1.12,3.94,3.94,0,0,1,1.27,2.21,3.05,3.05,0,0,1,0,.8.64.64,0,0,1-.68.67c-.47,0-.94,0-1.41,0Zm-1.24-1v0h.95l.95,0a11.5,11.5,0,0,0,1.18-.12.44.44,0,0,0,.38-.37,1.7,1.7,0,0,0-.62-1.8,2.81,2.81,0,0,0-1.53-.54,3.91,3.91,0,0,0-3.49,1.88,1.74,1.74,0,0,0-.26.55c-.11.39-.06.45.34.45Z"></path><path class="cls-2" d="M24.19,14.6c-1.24,0-2.47,0-3.71,0-.43,0-.57.13-.58.56a7.64,7.64,0,0,0,.59,3.24,4.71,4.71,0,0,0,4.13,3A3.46,3.46,0,0,0,28,20a.34.34,0,0,1,.39-.15.4.4,0,0,1,.29.27.27.27,0,0,1-.05.28,5.35,5.35,0,0,1-1.95,2,6.2,6.2,0,0,1-5.56.29,5,5,0,0,1-2.57-2.4,7.08,7.08,0,0,1-.78-3.35,7.49,7.49,0,0,1,1.6-4.86,6,6,0,0,1,5.08-2.32,4.48,4.48,0,0,1,3.49,1.7,3.28,3.28,0,0,1,.71,2.46c-.06.54-.09.59-.66.64-.88.07-1.76,0-2.63,0Zm-1.52-1c1,0,1.91,0,2.86-.13.54-.06.65-.17.66-.72a1.51,1.51,0,0,0,0-.3,1.48,1.48,0,0,0-.63-1.21,3,3,0,0,0-1.45-.52,3.83,3.83,0,0,0-3,1.13,2.85,2.85,0,0,0-.87,1.28c-.12.41-.09.47.33.47Z"></path><path class="cls-2" d="M68.11,9.73a7.3,7.3,0,0,1,2.49.48.84.84,0,0,1,.51.43,1.73,1.73,0,0,1,0,1.68c-.26.48-.64.53-1,.12a5.23,5.23,0,0,0-1.19-1,4,4,0,0,0-4.88.6,4.7,4.7,0,0,0-1.31,2.45,5.87,5.87,0,0,0,.86,4.73,4.75,4.75,0,0,0,4.51,2.18,3.72,3.72,0,0,0,3-1.67c.17-.24.27-.27.46-.16s.31.32.19.57a4.68,4.68,0,0,1-1.45,1.79,6.31,6.31,0,0,1-6.84.57,5.28,5.28,0,0,1-2.87-3.63A7.4,7.4,0,0,1,60.9,14a6.66,6.66,0,0,1,4.56-3.91A9.86,9.86,0,0,1,68.11,9.73Z"></path><path class="cls-2" d="M74.48,16.34c0-1.27,0-2.54,0-3.82a4.61,4.61,0,0,0,0-.53c0-.35-.18-.46-.53-.46s-.49,0-.73,0-.41-.09-.43-.31a.37.37,0,0,1,.31-.44,8,8,0,0,0,1.08-.46,3.19,3.19,0,0,0,1.24-1.06,10.11,10.11,0,0,0,.73-1.11c.1-.19.22-.22.49-.15a.32.32,0,0,1,.29.34c0,.39,0,.79,0,1.18,0,.05,0,.1,0,.15,0,.47.07.52.55.52,1.08,0,2.16,0,3.24,0,.4,0,.55.15.56.55a1.34,1.34,0,0,1,0,.34c-.06.37-.15.45-.53.45l-3.36,0c-.32,0-.43.08-.48.41a2.69,2.69,0,0,0,0,.57v5.61a9.72,9.72,0,0,0,.2,2,2.12,2.12,0,0,0,2.55,1.67,2.34,2.34,0,0,0,1-.43c.3-.2.37-.21.49-.06s.17.37-.05.6A4.25,4.25,0,0,1,79.14,23a5,5,0,0,1-2.86,0,2.38,2.38,0,0,1-1.64-1.66,3.74,3.74,0,0,1-.17-1.25V16.34Z"></path><path class="cls-2" d="M33.78,11.6c.15,0,.22-.12.32-.19a16.76,16.76,0,0,1,1.53-1.13A3.72,3.72,0,0,1,37,9.76a1.66,1.66,0,0,1,1.13.22,1.23,1.23,0,0,1,.49,1.69,1.34,1.34,0,0,1-1.52.8,2.84,2.84,0,0,1-.57-.3,2.7,2.7,0,0,0-1-.4,1.28,1.28,0,0,0-1.35.64,2.83,2.83,0,0,0-.37,1.27c0,.61-.07,1.22-.07,1.83,0,1.43,0,2.85,0,4.28,0,.35,0,.71,0,1.06a1,1,0,0,0,.94,1.06c.4.07.8.09,1.21.13s.38.11.35.41-.12.44-.4.41c-1.31-.13-2.62-.13-3.93-.13a16.9,16.9,0,0,0-2.13.12c-.26,0-.35-.06-.4-.38s0-.39.28-.44.53-.06.79-.13a1,1,0,0,0,.81-.9,6.09,6.09,0,0,0,0-.95q0-3.06,0-6.11c0-.32,0-.64,0-1a1.26,1.26,0,0,0-.74-1.26,1.64,1.64,0,0,1-.33-.26.36.36,0,0,1,.11-.65c.83-.37,1.65-.74,2.45-1.15.19-.1.38-.22.57-.31s.27,0,.31.14a1.13,1.13,0,0,1,0,.26v1.42C33.7,11.32,33.67,11.47,33.78,11.6Z"></path><path class="cls-2" d="M6,14.87A14.37,14.37,0,0,0,8.39,15c.14,0,.18.05.18.18v.23c0,1,0,2.06,0,3.09a11.25,11.25,0,0,0,.12,2,1.51,1.51,0,0,0,1.41,1.38c.41.06.81.09,1.22.14s.39.15.37.44-.14.41-.44.39c-1.89-.16-3.79-.13-5.68-.12-.61,0-1.22.07-1.83.11-.14,0-.29.07-.38-.09a.65.65,0,0,1,0-.59c0-.11.14-.13.25-.14l.91-.13a1.37,1.37,0,0,0,.29-.07,1.42,1.42,0,0,0,1.09-1.31c.1-.9.13-1.8.14-2.7V15.26A.87.87,0,0,1,6,14.87Z"></path><path class="cls-1" d="M102,34.46a2,2,0,0,1-1.17.82,1.74,1.74,0,0,1-2.22-1.36,3.55,3.55,0,0,1-.09-.72V30.26c0-.26,0-.26.28-.27h.68c.34,0,.36-.07.36.34V32.7a3.82,3.82,0,0,0,.06.68.9.9,0,0,0,1,.88,1.1,1.1,0,0,0,1-1,5.42,5.42,0,0,0,0-.57V30.29c0-.29,0-.29.3-.3s.56,0,.84,0,.21.06.2.2a2.43,2.43,0,0,0,0,.27c0,1.49,0,3,0,4.46,0,.29,0,.29-.29.29h-.68c-.13,0-.18,0-.19-.18A1.61,1.61,0,0,0,102,34.46Z"></path><path class="cls-1" d="M126.59,33a1.17,1.17,0,0,0,.79,1.18,2.6,2.6,0,0,0,1.24.13,5.17,5.17,0,0,0,1-.2c0,.17.09.33.12.49.09.42.09.42-.32.54a4.49,4.49,0,0,1-2,.14,2.33,2.33,0,0,1-2.05-2.1,3.21,3.21,0,0,1,.29-1.93A2.46,2.46,0,0,1,128.72,30a1.85,1.85,0,0,1,1.05.95,3.27,3.27,0,0,1,.32,1.66c0,.32,0,.32-.37.32H127A1,1,0,0,0,126.59,33Zm2.22-1a1.06,1.06,0,0,0-1-1.26A1.18,1.18,0,0,0,126.61,32Z"></path><path class="cls-1" d="M142.11,33a1.24,1.24,0,0,0,1,1.29,3.62,3.62,0,0,0,1.73-.08c.26-.06.26-.07.32.18.16.68.16.69-.54.85a4.46,4.46,0,0,1-1.82.06,2.34,2.34,0,0,1-2-2,3.13,3.13,0,0,1,.4-2.24,2.47,2.47,0,0,1,3.08-1,2,2,0,0,1,1.08,1.22,3.47,3.47,0,0,1,.19,1.39c0,.29,0,.29-.31.29h-3.19Zm2.24-.94c0-.81-.42-1.26-1.08-1.25A1.21,1.21,0,0,0,142.12,32Z"></path><path class="cls-1" d="M139.85,28.61a4.34,4.34,0,0,0-.52-.07.81.81,0,0,0-.79.55,1.1,1.1,0,0,0-.06.26c-.13.6-.1.64.5.64s.61,0,.61.6a.75.75,0,0,0,0,.15c0,.21-.07.26-.26.25s-.41,0-.61,0-.27,0-.27.28v3c0,.24,0,.48,0,.72s-.06.22-.22.22h-.88c-.16,0-.22,0-.22-.22,0-.42,0-.84,0-1.26,0-.83,0-1.65,0-2.48,0-.27,0-.27-.27-.28h-.23c-.14,0-.21,0-.2-.19a2.43,2.43,0,0,0,0-.27c0-.17-.06-.36,0-.48s.31-.05.47-.05.2-.06.2-.2a2.53,2.53,0,0,1,.1-.87,1.86,1.86,0,0,1,2.06-1.43c.83.08.69,0,.61.72A.89.89,0,0,1,139.85,28.61Z"></path><path class="cls-1" d="M105.4,34a3.71,3.71,0,0,0,1.18.35,2,2,0,0,0,.49,0,.55.55,0,0,0,.21-1,2.51,2.51,0,0,0-.58-.26,3.53,3.53,0,0,1-.82-.42,1.41,1.41,0,0,1-.09-2.24,1.74,1.74,0,0,1,.88-.43,3.21,3.21,0,0,1,1.76.14c.16.06.22.13.15.31a4.59,4.59,0,0,1-.22.69,2.85,2.85,0,0,0-1.07-.26,1,1,0,0,0-.44.08.5.5,0,0,0-.1.85,2.1,2.1,0,0,0,.58.29,3.57,3.57,0,0,1,.86.41A1.49,1.49,0,0,1,108,35a3,3,0,0,1-1.78.27,3.31,3.31,0,0,1-.92-.25c-.13-.06-.21-.12-.15-.29S105.33,34.29,105.4,34Z"></path><path class="cls-1" d="M152.88,31a3.73,3.73,0,0,1,0-.81c0-.13,0-.17.18-.18s.43.1.54-.06,0-.35,0-.53c0-.37,0-.37.37-.47l.9-.26a7.87,7.87,0,0,1,0,1.08c0,.18,0,.26.24.25s.53,0,.8,0,.24,0,.23.21,0,.41,0,.61-.06.18-.19.18h-.88c-.14,0-.2.05-.2.2,0,.76,0,1.53,0,2.29a1.35,1.35,0,0,0,.06.34.56.56,0,0,0,.55.44,1.38,1.38,0,0,0,.56-.06,6.63,6.63,0,0,1,0,.88.18.18,0,0,1-.16.18,2.53,2.53,0,0,1-1.39,0,1.32,1.32,0,0,1-.89-1.1,4.25,4.25,0,0,1-.07-.8c0-.68,0-1.37,0-2.06,0-.29,0-.29-.28-.3Z"></path><path class="cls-1" d="M112.31,28.67c0,.4,0,.76,0,1.11,0,.17.06.22.22.22h1a4.16,4.16,0,0,1,0,.78c0,.16,0,.22-.22.22h-.84c-.14,0-.2.05-.2.2,0,.76,0,1.53,0,2.29s.3.84.91.78c.28,0,.28,0,.29.25s0,.36,0,.54,0,.18-.17.21a2.9,2.9,0,0,1-1.21,0,1.33,1.33,0,0,1-1-1.08,4.26,4.26,0,0,1-.08-.8c0-.72,0-1.45,0-2.17,0-.2-.06-.26-.26-.26-.5,0-.5,0-.5-.5s0-.47.49-.49c.26,0,.26,0,.26-.27v0c0-.21-.08-.48.06-.63s.37-.14.56-.2Z"></path><path class="cls-1" d="M151.16,34.09a5.83,5.83,0,0,1,.19.81c0,.12,0,.18-.15.22a3.44,3.44,0,0,1-2.67-.09,2.32,2.32,0,0,1-1.29-1.87,3,3,0,0,1,.09-1.4,2.58,2.58,0,0,1,2.26-1.84,3.54,3.54,0,0,1,1.55.11c.18.06.27.13.19.32,0,0,0,0,0,0-.07.22,0,.51-.19.64s-.4-.07-.61-.1a1.63,1.63,0,0,0-1.72.71,2,2,0,0,0,.09,2.06,1.46,1.46,0,0,0,1.08.57A2.6,2.6,0,0,0,151.16,34.09Z"></path><path class="cls-1" d="M92.93,34.12A2.91,2.91,0,0,0,94,34.2a.91.91,0,0,0,.78-.64,3.1,3.1,0,0,0,.14-1.05v-4.2c0-.33,0-.32.3-.31h.84c.13,0,.19.06.18.19a1.2,1.2,0,0,0,0,.19c0,1.42,0,2.85,0,4.27a5.5,5.5,0,0,1-.08.91,1.94,1.94,0,0,1-1.72,1.73,3.88,3.88,0,0,1-1.48,0c-.17,0-.25-.11-.2-.32S92.84,34.4,92.93,34.12Z"></path><path class="cls-1" d="M133.29,35.21h-1.13c-.11,0-.15-.05-.15-.16a2.43,2.43,0,0,0,0-.27V31.35c0-.33,0-.67,0-1s0-.37.36-.36.57-.12.73.06.07.46.08.7c0,0,0,.07,0,.14s.15-.2.22-.3a1.46,1.46,0,0,1,1.34-.71c.11,0,.21,0,.2.16v1.07h-.4a1.14,1.14,0,0,0-1.13.9,2.47,2.47,0,0,0-.08.6c0,.73,0,1.45,0,2.18A1.23,1.23,0,0,1,133.29,35.21Z"></path></g></g></svg> 