<?xml version="1.0" encoding="UTF-8"?> <svg xmlns="http://www.w3.org/2000/svg" viewBox="0 0 65.93 58.51"><defs><style>.cls-1{fill:#b1213e;}.cls-2{fill:#cc313c;}.cls-3{fill:#c82d3e;}.cls-4{fill:#d2353d;}.cls-5{fill:#a71b40;}.cls-6{fill:#ab1e40;}.cls-7{fill:#b82540;}.cls-8{fill:#bc283e;}.cls-9{fill:#c62d3f;}.cls-10{fill:#d8363b;}.cls-11{fill:#5d5d5f;}.cls-12{fill:#dd393b;}.cls-13{fill:#616163;}.cls-14{fill:#c32b3f;}.cls-15{fill:#e43d3b;}</style></defs><g id="Layer_2" data-name="Layer 2"><g id="Layer_1-2" data-name="Layer 1"><g id="C2V0uF.tif"><path class="cls-1" d="M0,31.16H.09c.47.07,1,.11,1.42.2.72.14,1.45,0,2.16.12,1.35.2,2.71.26,4.06.35,1.12.07,2.24.17,3.36.25a36.1,36.1,0,0,1,3.87.34c.19,0,.43,0,.54-.2a1.22,1.22,0,0,1,.17.15,26,26,0,0,0,5.46,6.28c-.1.21-.3.15-.47.16a11.11,11.11,0,0,1-1.82-.1c-.91-.05-1.82-.13-2.73-.2-1.55-.12-3.09-.26-4.64-.37-1-.08-2.05-.13-3.07-.21-1.47-.11-2.93-.25-4.4-.38L.51,37.28A22.75,22.75,0,0,1,.1,34.55c0-.1,0-.23-.1-.29v-.39a4.74,4.74,0,0,0,0-2.12Z"></path><path class="cls-2" d="M34.26,26.42a38,38,0,0,1-3.17,3A5,5,0,0,1,31,28V0H33.3c.19.2.47.06.68.19v26C34,26.38,34.1,26.43,34.26,26.42Z"></path><path class="cls-3" d="M31,0V28a5,5,0,0,0,.11,1.49,33.47,33.47,0,0,1-2.79,2.39c-.29-.15-.32-.41-.32-.7V27.94c0-.25,0-.49-.22-.66a22.64,22.64,0,0,0,1.21-4,11.16,11.16,0,0,0-.48-5.92c.31-.14.18-.43.14-.63a4.44,4.44,0,0,1-.07-1V1.92c0-.3,0-.61,0-.92s0-.34-.29-.32c0-.13.19-.21.19-.36A13.75,13.75,0,0,0,30,0Z"></path><path class="cls-4" d="M0,31.75a4.74,4.74,0,0,1,0,2.12Z"></path><path class="cls-5" d="M46,45.53c-1.16,1.28-2.42,2.45-3.66,3.65a67.73,67.73,0,0,1-5.4,4.91C30.53,59,23.57,59.8,16.2,56.51A28.34,28.34,0,0,1,5.69,48.42,23.42,23.42,0,0,1,1.92,42c.88,0,1.76.16,2.63.17a38.88,38.88,0,0,0,4,.23.38.38,0,0,1,.15,0,18.19,18.19,0,0,0,3.53.33,22.91,22.91,0,0,0,3.79.24.17.17,0,0,1,.1,0,28.25,28.25,0,0,0,4.11.34,18.09,18.09,0,0,0,3.45.23.36.36,0,0,1,.14,0,20.41,20.41,0,0,0,3.49.32c1.43.15,2.87.27,4.31.32a1.7,1.7,0,0,0,1-.12q1.52.16,3,.18c.14.32.27.3.39,0h.29c.13.43.51.47.85.45,1.35-.1,2.68.32,4,.2h.09c1.4.25,2.82.26,4.24.37C45.79,45.31,46,45.28,46,45.53Z"></path><path class="cls-6" d="M32.69,44.1a1.7,1.7,0,0,1-1,.12c-1.44,0-2.88-.17-4.31-.32a20.41,20.41,0,0,1-3.49-.32.36.36,0,0,0-.14,0,18.09,18.09,0,0,1-3.45-.23A28.25,28.25,0,0,1,16.15,43a.17.17,0,0,0-.1,0,22.91,22.91,0,0,1-3.79-.24,18.19,18.19,0,0,1-3.53-.33.38.38,0,0,0-.15,0,38.88,38.88,0,0,1-4-.23c-.87,0-1.75-.21-2.63-.17A20.38,20.38,0,0,1,.51,37.28L4,37.55c1.47.13,2.93.27,4.4.38,1,.08,2,.13,3.07.21,1.55.11,3.09.25,4.64.37.91.07,1.82.15,2.73.2a11.11,11.11,0,0,0,1.82.1c.17,0,.37,0,.47-.16.75.55,1.48,1.12,2.26,1.63a23.29,23.29,0,0,0,3,1.69A18.61,18.61,0,0,0,28.71,43a23.31,23.31,0,0,0,3.75,1A2,2,0,0,1,32.69,44.1Z"></path><path class="cls-7" d="M15.5,32.22c-.11.25-.35.23-.54.2a36.1,36.1,0,0,0-3.87-.34C10,32,8.85,31.9,7.73,31.83c-1.35-.09-2.71-.15-4.06-.35-.71-.1-1.44,0-2.16-.12-.47-.09-.95-.13-1.42-.2a21.12,21.12,0,0,1,1.34-5.71,4.6,4.6,0,0,0,2,.37c1.32,0,2.61.35,3.93.22h.09c1.21.39,2.49,0,3.71.35a7.45,7.45,0,0,0,1.83,0,28.17,28.17,0,0,0,1.64,4.13A14.76,14.76,0,0,1,15.5,32.22Z"></path><path class="cls-4" d="M34.26,26.42c-.16,0-.28,0-.28-.24V.19A9.52,9.52,0,0,1,36.21.6V22.77a5.82,5.82,0,0,0,.1,1.44A25.18,25.18,0,0,1,34.26,26.42Z"></path><path class="cls-8" d="M13,26.42a7.45,7.45,0,0,1-1.83,0c-1.22-.32-2.5,0-3.71-.35H7.35c-1.32.13-2.61-.24-3.93-.22a4.6,4.6,0,0,1-2-.37,21.4,21.4,0,0,1,1.8-4A8.92,8.92,0,0,1,4.06,20a1.17,1.17,0,0,0,1,.49c.81.07,1.62,0,2.44.16s1.9,0,2.86.21a3.46,3.46,0,0,0,2-.17,13.79,13.79,0,0,0,0,3.08A22,22,0,0,0,13,26.42Z"></path><path class="cls-9" d="M12.38,20.71a3.46,3.46,0,0,1-2,.17c-1-.19-1.93,0-2.86-.21s-1.63-.09-2.44-.16a1.17,1.17,0,0,1-1-.49,38.3,38.3,0,0,1,3.87-5.35c.44-.52.88-1,1.36-1.5a.42.42,0,0,0,.52.47,12.48,12.48,0,0,1,1.62,0c.52,0,1,.18,1.56.17a7.78,7.78,0,0,1,2.4.28c0,.25-.38.33-.23.63h0c-.15,0-.2.08-.22.2a10.57,10.57,0,0,0-2.32,4.57c0,.11-.07.21-.1.32s-.28.06-.28.24.12.14.23.16Z"></path><path class="cls-10" d="M36.31,24.21a5.82,5.82,0,0,1-.1-1.44V.6a9.13,9.13,0,0,1,2.34.9,2.72,2.72,0,0,0-.12.9V20.28c0,.21,0,.41,0,.62s.07.31.28.3A25.75,25.75,0,0,1,36.31,24.21Z"></path><path class="cls-11" d="M54.64,54.29c1.28,0,2.46,0,3.65,0,.36,0,.48-.08.46-.45,0-.58,0-1.16,0-1.74,0-.23,0-.35-.31-.35q-2.25,0-4.5,0c-.23,0-.31.06-.31.3q0,2.25,0,4.5c0,.35.2.29.41.29h6.28c-.35.54-.66,1-1,1.46-.1.15-.24.13-.38.13H53.89c-.39,0-.6-.29-.9-.42a1.49,1.49,0,0,1-.93-1.67c.07-1.58,0-3.16,0-4.74a.74.74,0,0,1,.32-.64,3.35,3.35,0,0,1,2.53-.82,25.86,25.86,0,0,0,3,0,2.71,2.71,0,0,1,1.48.45,1.5,1.5,0,0,1,.88,1.65,16.44,16.44,0,0,0,0,2.22A.66.66,0,0,1,60,55a4.25,4.25,0,0,1-2.91.85,2,2,0,0,1-2.3-1.29C54.79,54.52,54.74,54.46,54.64,54.29Z"></path><path class="cls-12" d="M38.71,21.2c-.21,0-.29-.09-.28-.3s0-.41,0-.62V2.4a2.72,2.72,0,0,1,.12-.9A7.56,7.56,0,0,1,41,3.28a1,1,0,0,0-.21.77V16.76c0,.26,0,.53.31.61a15.91,15.91,0,0,1-2.17,3.51A3.37,3.37,0,0,0,38.71,21.2Z"></path><path class="cls-8" d="M26.51,14.72a10.57,10.57,0,0,0-3.66-1.86q0-3.11,0-6.21c0-.23.08-.51-.29-.55l.2-.29c.06,0,.13-.09.19-.15l3.32-3.21c.13-.13.24-.31.46-.32V14C26.72,14.26,26.76,14.53,26.51,14.72Z"></path><path class="cls-13" d="M44.4,58.47,42.94,57a.49.49,0,0,1-.12-.4c0-1.53,0-3.06,0-4.59,0-.44.33-.68.49-1a1.37,1.37,0,0,1,1.52-.85c1.59.07,3.19,0,4.78,0a.73.73,0,0,1,.64.32,3.66,3.66,0,0,1,.84,2.76c-.07,1.25,0,2.51,0,3.77a.57.57,0,0,1-.28.56c-.41.25-.8.53-1.21.79-.15-.17-.08-.36-.08-.52,0-1.89,0-3.78,0-5.66,0-.34-.09-.43-.43-.43-1.4,0-2.81,0-4.21,0-.37,0-.49.09-.48.48,0,1.87,0,3.74,0,5.61Z"></path><path class="cls-14" d="M26.51,14.72c.25-.19.21-.46.21-.71V2.13A6.89,6.89,0,0,1,28.27.68c.24,0,.3.11.29.32s0,.62,0,.92V15.73a4.44,4.44,0,0,0,.07,1c0,.2.17.49-.14.63A6.58,6.58,0,0,0,26.51,14.72Z"></path><path class="cls-13" d="M62.89,46.06c0,1.27,0,2.45,0,3.62,0,.41.12.58.51.49a2,2,0,0,1,2.44,1.36c0,.06,0,.11.1.24-.9,0-1.74,0-2.59,0-.34,0-.47.07-.46.45,0,1.38,0,2.77,0,4.16,0,.36.08.51.47.49.66,0,1.31,0,2.1,0a17.46,17.46,0,0,1-1.51,1.49,1.36,1.36,0,0,1-1.2,0l-.08,0c-1.37-.84-1.37-.84-1.37-2.44,0-2.77,0-5.54,0-8.32a.67.67,0,0,1,.35-.67C62,46.65,62.41,46.38,62.89,46.06Z"></path><path class="cls-15" d="M41.07,17.37c-.35-.08-.32-.35-.31-.61V4.05A1,1,0,0,1,41,3.28a7.37,7.37,0,0,1,2.1,4.3A15.82,15.82,0,0,1,41.07,17.37Z"></path><path class="cls-6" d="M46,45.53c0-.25-.21-.22-.39-.24-1.42-.11-2.84-.12-4.24-.37h-.09c-1.35.12-2.68-.3-4-.2-.34,0-.72,0-.85-.45a22.17,22.17,0,0,0,8-2.18c.14-.07.29-.12.44-.18a1.75,1.75,0,0,0,.87.21c.86,0,1.72.11,2.58.2a.57.57,0,0,1,.53.28C47.92,43.63,47,44.57,46,45.53Z"></path><path class="cls-7" d="M22.55,6.1c.37,0,.29.32.29.55q0,3.11,0,6.21a11.21,11.21,0,0,0-2.71-.18c0-1.32,0-2.65,0-4,0-.06,0-.14.06-.18Z"></path><path class="cls-1" d="M48.79,42.59a.57.57,0,0,0-.53-.28c-.86-.09-1.72-.16-2.58-.2a1.75,1.75,0,0,1-.87-.21c2.69-1.34,5.19-3,7.73-4.58.24-.15.5-.29.75-.43l.08.11A52.15,52.15,0,0,1,48.79,42.59Z"></path><path class="cls-1" d="M20.13,8.71v4a11.14,11.14,0,0,0-3.59,1.22c-.47.26-.93.57-1.39.86-.15-.3.27-.38.23-.63a1.3,1.3,0,0,0,.4-.41c.41-.53.82-1.07,1.26-1.58C18,11.05,18.91,10,19.84,8.9Z"></path><path class="cls-14" d="M27.76,27.28c.24.17.22.41.22.66v3.22c0,.29,0,.55.32.7a14.33,14.33,0,0,1-1.93,1.54c-.25,0-.34-.1-.33-.35,0-.42,0-.83,0-1.25s.12-.7-.09-1C26.63,29.66,27.17,28.46,27.76,27.28Z"></path><path class="cls-8" d="M25.94,30.78c.21.32.07.68.09,1s0,.83,0,1.25c0,.25.08.36.33.35a39.45,39.45,0,0,1-5,3.57A55.12,55.12,0,0,0,25.94,30.78Z"></path><path class="cls-8" d="M12.45,20.24c-.11,0-.23,0-.23-.16s.13-.23.28-.24Z"></path><path class="cls-6" d="M36.11,44.27c-.12.31-.25.33-.39,0A.65.65,0,0,1,36.11,44.27Z"></path><path class="cls-1" d="M14.92,15c0-.12.07-.22.22-.2Z"></path><path class="cls-1" d="M53.41,36.84s.09,0,.1,0,0,.06-.06.07Z"></path><path class="cls-1" d="M53.45,36.88l-.08.12-.08-.11.12,0Z"></path><path class="cls-2" d="M19.84,8.9C18.91,10,18,11.05,17.05,12.14c-.44.51-.85,1-1.26,1.58a1.3,1.3,0,0,1-.4.41,7.78,7.78,0,0,0-2.4-.28c-.53,0-1-.15-1.56-.17a12.48,12.48,0,0,0-1.62,0,.42.42,0,0,1-.52-.47A47.27,47.27,0,0,1,15.1,7.75c0,.29.08.57.45.57a17.26,17.26,0,0,1,2.59.18C18.72,8.6,19.36,8.41,19.84,8.9Z"></path><path class="cls-10" d="M28.27.68a6.89,6.89,0,0,0-1.55,1.45c-.22,0-.33.19-.46.32L22.94,5.66c-.06.06-.13.1-.19.15a14.07,14.07,0,0,0-3.48-.38c-.39,0-.53-.1-.39-.48a33.16,33.16,0,0,1,5.49-3.22A16,16,0,0,1,28.46.32C28.46.47,28.31.55,28.27.68Z"></path><path class="cls-4" d="M18.88,5c-.14.38,0,.49.39.48a14.07,14.07,0,0,1,3.48.38l-.2.29L20.19,8.53s0,.12-.06.18l-.29.19c-.48-.49-1.12-.3-1.7-.4a17.26,17.26,0,0,0-2.59-.18c-.37,0-.42-.28-.45-.57A35.85,35.85,0,0,1,18.88,5Z"></path></g></g></g></svg> 