<?xml version="1.0" encoding="UTF-8"?> <svg xmlns="http://www.w3.org/2000/svg" viewBox="0 0 110.42 37.68"><defs><style>.cls-1{fill:#862165;}</style></defs><g id="Layer_2" data-name="Layer 2"><g id="Layer_1-2" data-name="Layer 1"><path class="cls-1" d="M.65,32.17c0-1.26,0-2.52,0-3.78,0-.27,0-.33.31-.23A27.93,27.93,0,0,0,11.54,30a8.11,8.11,0,0,0,3.72-.84,2.67,2.67,0,0,0,1.52-2.94,2.25,2.25,0,0,0-1.43-1.76,6.29,6.29,0,0,0-2.1-.43,21,21,0,0,1-6.68-1.42A10,10,0,0,1,.78,17.18,10.49,10.49,0,0,1,4.88,4.35a14.47,14.47,0,0,1,5.86-2,32.58,32.58,0,0,1,7-.09A30.92,30.92,0,0,1,26,3.93a.34.34,0,0,1,.27.38q0,3.71,0,7.41c0,.23,0,.31-.28.2a30.66,30.66,0,0,0-8.57-2.21,13.41,13.41,0,0,0-4.85.16,4.11,4.11,0,0,0-1.13.45,2.47,2.47,0,0,0-1.21,2.76,2.44,2.44,0,0,0,1.87,1.79,9.73,9.73,0,0,0,2.28.33,19.38,19.38,0,0,1,7.43,1.93,10.42,10.42,0,0,1,4.74,4.54,10.45,10.45,0,0,1-1.68,11.67A13.31,13.31,0,0,1,18.34,37a25.86,25.86,0,0,1-7.59.61A54.46,54.46,0,0,1,5,37.16c-1.4-.21-2.78-.48-4.16-.82C.65,36.28.65,36.16.65,36,.66,34.72.65,33.45.65,32.17Z"></path><path class="cls-1" d="M54.82,37.29H43.92c-.34,0-.47-.07-.55-.42a35.73,35.73,0,0,0-3.21-8.59c-.2-.37-.43-.73-.65-1.1L39.38,27v.42q0,4.75,0,9.51c0,.27-.06.35-.35.35H30.2c-.24,0-.32,0-.32-.31q0-16.38,0-32.75c0-.24.07-.32.31-.37q4.45-.86,8.9-1.76c.34-.07.29.12.29.32v18a17.51,17.51,0,0,0,1.22-1.55,31.91,31.91,0,0,0,3.91-7.13.34.34,0,0,1,.38-.27H55.14c.25,0,.32,0,.23.3a41.31,41.31,0,0,1-6.31,11.89.57.57,0,0,0-.07.73,85.82,85.82,0,0,1,4.9,10,23.1,23.1,0,0,1,.9,2.7S54.81,37.21,54.82,37.29Z"></path><path class="cls-1" d="M97,19.66v17.2c0,.43,0,.43-.45.43H88.16c-.27,0-.37,0-.37-.34q0-16.47,0-32.93c0-.25.06-.35.32-.39,2.59-.45,5.18-.92,7.76-1.38l.89-.16c.16,0,.24,0,.22.19a1.77,1.77,0,0,0,0,.23Z"></path><path class="cls-1" d="M110.41,19.7q0,8.61,0,17.23c0,.29-.06.37-.36.37h-8.51c-.27,0-.34-.07-.34-.33q0-16.48,0-33c0-.24.09-.32.31-.36l7.77-1.38c.28,0,.57-.09.85-.15s.28,0,.28.22c0,.59,0,1.18,0,1.77Z"></path><path class="cls-1" d="M56.75,29.37c0-2.39,0-4.77,0-7.16A12.08,12.08,0,0,1,58,16.74a9.25,9.25,0,0,1,5-4.37,19.58,19.58,0,0,1,8.06-1.2c.91,0,.91.06.91,1,0,2.12,0,4.24,0,6.36,0,.27-.09.34-.34.35a11.15,11.15,0,0,0-2.5.34,3.73,3.73,0,0,0-3,3.31A15.76,15.76,0,0,0,66,24.86q0,6,0,12.07c0,.32-.09.37-.39.37H57.08c-.3,0-.35-.09-.35-.35q0-3.8,0-7.58Z"></path><path class="cls-1" d="M83.92,24.42q0,6.25,0,12.52c0,.3-.09.36-.37.36H75c-.24,0-.32,0-.32-.31q0-12.57,0-25.13c0-.28.07-.34.34-.34,2.82,0,5.65,0,8.48,0,.3,0,.39.06.39.38Q83.92,18.16,83.92,24.42Z"></path><path class="cls-1" d="M79.32,9.05a4.53,4.53,0,1,1,4.53-4.53A4.52,4.52,0,0,1,79.32,9.05Z"></path></g></g></svg> 