<?xml version="1.0" encoding="UTF-8"?> <svg xmlns="http://www.w3.org/2000/svg" viewBox="0 0 149.93 45.82"><defs><style>.cls-1{fill:#ff8103;}.cls-2{fill:#fff;}</style></defs><g id="Layer_2" data-name="Layer 2"><g id="Layer_1-2" data-name="Layer 1"><path class="cls-1" d="M70.75,33.32a31.44,31.44,0,0,1-6.54.78,12.62,12.62,0,0,1-4.65-.71,5.77,5.77,0,0,1-2.74-2.3,10.21,10.21,0,0,1-1.37-3.69,31.67,31.67,0,0,1-.37-5.34q0-6.75,1.9-9.39T64,10a29.48,29.48,0,0,1,6.81.93l-.13,3.76A39.19,39.19,0,0,0,65,14.19a6.31,6.31,0,0,0-3.2.6,3.72,3.72,0,0,0-1.42,2.27,24.31,24.31,0,0,0-.46,5.72q0,4,.94,5.59c.62,1,1.88,1.56,3.76,1.56a40.42,40.42,0,0,0,6-.48Z"></path><path class="cls-1" d="M74.17,33.69V16.58h4.55V18.4a17.64,17.64,0,0,1,5.48-2.23v4.62c-1.85.39-3.44.79-4.76,1.2l-.68.24V33.69Z"></path><path class="cls-1" d="M85.33,16.58h4.51L93,29.79h.78l3.12-13.21h4.52l-6,24.3H90.87l1.88-7.19H89.54Z"></path><path class="cls-1" d="M104,40.88V16.58h4.55v.93a7.86,7.86,0,0,1,3.9-1.34,6.1,6.1,0,0,1,5.1,2.07c1.1,1.38,1.64,3.73,1.64,7s-.6,5.6-1.81,6.89-3.19,1.93-6,1.93a15.1,15.1,0,0,1-2.43-.2l-.41-.07v7.05Zm7.56-20.6a7,7,0,0,0-2.56.51l-.41.17v9a18.82,18.82,0,0,0,2.49.2A3,3,0,0,0,113.81,29a7.82,7.82,0,0,0,.74-4Q114.55,20.28,111.57,20.28Z"></path><path class="cls-1" d="M132.1,20.48h-4.21v7A11.91,11.91,0,0,0,128,29a1.2,1.2,0,0,0,.37.74,1.42,1.42,0,0,0,1,.31l2.6-.07.21,3.66a17.52,17.52,0,0,1-3.49.51c-2.06,0-3.46-.46-4.21-1.38s-1.13-2.63-1.13-5.12V20.48h-2v-3.9h2V11.83h4.58v4.75h4.21Z"></path><path class="cls-1" d="M136,18.52q1.81-2.36,6.06-2.35t6.06,2.35a10.53,10.53,0,0,1,1.81,6.58q0,9-7.87,9t-7.87-9A10.53,10.53,0,0,1,136,18.52ZM139.55,29a2.63,2.63,0,0,0,2.51,1.23A2.65,2.65,0,0,0,144.58,29a8.22,8.22,0,0,0,.7-3.87,8,8,0,0,0-.7-3.83,2.67,2.67,0,0,0-2.52-1.2,2.65,2.65,0,0,0-2.51,1.2,7.87,7.87,0,0,0-.71,3.83A8.08,8.08,0,0,0,139.55,29Z"></path><path class="cls-1" d="M22.91,45.82A22.91,22.91,0,1,1,45.82,22.91,22.93,22.93,0,0,1,22.91,45.82Zm0-42.76A19.85,19.85,0,1,0,42.76,22.91,19.88,19.88,0,0,0,22.91,3.06Z"></path><circle class="cls-1" cx="22.91" cy="22.91" r="15.86"></circle><path class="cls-2" d="M31.48,16.9c-.45-.31-.9-.59-1.33-.85l0,0,.48-1.12A1.17,1.17,0,1,0,28.43,14L28,15h0a10.73,10.73,0,0,0-2.55-.75l.62-1.45a1,1,0,0,0-.51-1.25l-.39-.17a1,1,0,0,0-1.25.5l-1.09,2.56a3,3,0,0,0-.42.16,2.81,2.81,0,0,0-.38.2,10.8,10.8,0,0,0-3.52,4.57l-1.74-.75a1.22,1.22,0,0,0-.9,0,1.17,1.17,0,0,0,0,2.16l1.72.74a22.67,22.67,0,0,0-1.09,3.22,8.22,8.22,0,0,0-.15,3.1,6,6,0,0,0,.15.64c0,.15.13.27.18.41L15.5,31.59A1,1,0,0,0,16,32.84l.39.17a1,1,0,0,0,1.25-.5l.67-1.57a11.08,11.08,0,0,0,2.3,1.31h0l-.46,1.08a1.17,1.17,0,1,0,2.15.92l.51-1.2.05,0c.47.14,1,.27,1.47.39a2,2,0,0,0,.42.05,1.9,1.9,0,0,0,1.75-1.19l0,0a1.91,1.91,0,0,0-.05-1.5,1.89,1.89,0,0,0-1.13-1l-1-.34c-.6-.21-1.17-.43-1.7-.65l-.42-.2A2.33,2.33,0,0,1,20.77,27a3,3,0,0,1,0-.73,12.26,12.26,0,0,1,1-3.16,17.92,17.92,0,0,1,1.93-3.68h0l.06-.07A2.22,2.22,0,0,1,25,18.41a3.11,3.11,0,0,1,1.44.23l.7.26c.42.19.89.41,1.37.67.29.14.59.31.94.51a1.91,1.91,0,0,0,1.5.16,1.88,1.88,0,0,0,1.13-1v0a.08.08,0,0,1,0,0A1.89,1.89,0,0,0,31.48,16.9Z"></path></g></g></svg> 