<?xml version="1.0" encoding="UTF-8"?> <svg xmlns="http://www.w3.org/2000/svg" viewBox="0 0 104.14 62.29"><defs><style>.cls-1{fill:#fefefd;}.cls-2{fill:#cb0000;}.cls-3{fill:#fe9800;}.cls-4{fill:#fdfcfc;}.cls-5{fill:#050466;}.cls-6{fill:#fdfdfd;}</style></defs><g id="Layer_2" data-name="Layer 2"><g id="Layer_1-2" data-name="Layer 1"><path class="cls-1" d="M52.11,54.26a2.83,2.83,0,0,0,.25.24,30.76,30.76,0,0,0,23.13,7.68,28.93,28.93,0,0,0,12.69-3.87C98,52.55,103.31,44,104.08,32.63a29.51,29.51,0,0,0-1.85-12.19A31.24,31.24,0,0,0,65.58.88,30.83,30.83,0,0,0,52.07,8L52,8a31.19,31.19,0,0,0-28.6-7A30.3,30.3,0,0,0,7.53,10.89a30.27,30.27,0,0,0-7,25.73,30,30,0,0,0,12.3,19.66A30.44,30.44,0,0,0,35.68,62a30.14,30.14,0,0,0,14.66-6.28C50.94,55.21,51.52,54.73,52.11,54.26Z"></path><path class="cls-2" d="M52.11,54.26c-.59.47-1.17,1-1.77,1.42A30.14,30.14,0,0,1,35.68,62a30.44,30.44,0,0,1-22.87-5.68A30,30,0,0,1,.51,36.62a30.27,30.27,0,0,1,7-25.73A30.3,30.3,0,0,1,23.36,1,31.19,31.19,0,0,1,52,8l.11.07c0,.2-.15.28-.26.38q-1,.88-1.92,1.86c-.28.3-.54.62-.87,1h5.74a.71.71,0,0,1,.63.29,31.61,31.61,0,0,1,1.88,2.59c.08.13.27.25.18.41s-.27,0-.41,0c-3.19,0-6.39,0-9.58,0a1.3,1.3,0,0,0-1.4.79c-.4.83-.89,1.6-1.27,2.49H58.91a.59.59,0,0,1,.65.42c.33.8.68,1.59,1,2.41.18.52.18.52-.38.52H43.88c-.34,0-.5.09-.58.42-.2.78-.43,1.55-.62,2.33-.13.54-.24.51.4.51H61.41a.2.2,0,0,1,.24.19,11.42,11.42,0,0,1,.26,1.64C60.42,26,59.64,27,58.82,28A8.59,8.59,0,0,1,59,26.73c0-.26,0-.33-.28-.32-.64,0-1.29,0-1.93,0-.81,0-.81,0-1,.81a1.66,1.66,0,0,1-.06.21c-.69,0-.68,0-.79.73-.22,1.35-.45,2.7-.67,4.06q-.61,3.84-1.24,7.69c0,.27,0,.39.32.38.7,0,1.4,0,2.1,0,1,0,1,0,1.1-1a.71.71,0,0,1,.25,0c.39.06.49-.12.54-.48.18-1.28.39-2.57.61-3.85a16.69,16.69,0,0,1,.76-3.27,3.46,3.46,0,0,1,.52-.32c.9-.36,1.23-.12,1.14.78a9.14,9.14,0,0,0,1.16,6c-.23.8-.47,1.59-.68,2.4-.09.34-.23.45-.6.45-3.92,0-7.85,0-11.77,0H44c-.5,0-.51,0-.33.49.29.76.62,1.51.9,2.28a.74.74,0,0,0,.84.55q6.73,0,13.49,0c.54,0,.54,0,.29.51-.4.82-.85,1.63-1.31,2.43a.74.74,0,0,1-.73.41c-3.34,0-6.68,0-10,0-.12,0-.29-.06-.36.07s.07.24.14.34c.54.85,1.15,1.66,1.77,2.46a.78.78,0,0,0,.66.32c1.82,0,3.64,0,5.45,0,.15,0,.32-.07.46.09a28.31,28.31,0,0,1-2.7,2.88A1.37,1.37,0,0,0,52.11,54.26ZM44.6,29h0a4.51,4.51,0,0,0-1.13,1.63,9.64,9.64,0,0,0-.8,5.65,2.67,2.67,0,0,1-1.12.09.83.83,0,0,1-.82-1c0-.37.11-.75.17-1.12.2-1.19.41-2.38.61-3.57h.17c1.09,0,1.09,0,1.18-1.05.18-.11.52.15.58-.22.13-.89.24-1.79.36-2.69,0-.19,0-.26-.22-.25-.37,0-.74,0-1.1,0s-.3-.08-.25-.3c.08-.42.14-.84.23-1.25s0-.42-.32-.4c-.64,0-1.28,0-1.93,0-1,0-1,0-1.2.93l0,.07c-.64,0-.66,0-.76.58-.31,1.77-.61,3.54-.92,5.3-.17,1-.35,2-.52,3a3.71,3.71,0,0,0-2.51-2.84,5.1,5.1,0,0,1-1-.54.77.77,0,0,1-.38-.73,7.85,7.85,0,0,1,2.27,0c.89.06.89,0,1.05-.8l0-.17a.54.54,0,0,1,.22,0c.37.09.53-.05.57-.44.07-.72.18-1.45.3-2.17,0-.26,0-.32-.28-.36a15.57,15.57,0,0,0-3.41-.16,4.36,4.36,0,0,0-3.85,2.17c-.19,0-.26.17-.37.28a4.52,4.52,0,0,0-.72,1.24l0-.31a3.47,3.47,0,0,0-3.16-3.32,11.28,11.28,0,0,0-4.55.32c-.6.15-1,.39-1,1.07-.28.13-.7,0-.77.51-.11.7-.22,1.41-.36,2.11-.08.4,0,.43.38.33a10.45,10.45,0,0,1,4.16-.38c.52.07,1,.22,1.11.82a13.09,13.09,0,0,0-1.66.06,5.92,5.92,0,0,0-3.53,1.45c-.26.25-.48.53-.73.8a2.45,2.45,0,0,0-.47.44,7.45,7.45,0,0,0-.83,1.45,31.25,31.25,0,0,1,.48-3.2q.66-4.07,1.35-8.13c.06-.31,0-.43-.36-.42-1.23,0-2.46,0-3.68,0a2.8,2.8,0,0,0-1.09,0c-.29.14-.23.63-.41.93-.66,0-.66,0-.87.61l-2.07,6.21c0-.13,0-.26,0-.39,0-2.31-.08-4.63-.1-6.94,0-.4-.12-.48-.49-.47-1.1,0-2.2,0-3.3,0s-1.06,0-1.26,1a2.54,2.54,0,0,1-.39,0c-.31,0-.41.07-.47.39-.45,2.82-.93,5.63-1.4,8.44-.37,2.17-.74,4.35-1.12,6.52,0,.34,0,.48.39.46.61,0,1.23,0,1.85,0,1,0,1,0,1.18-1a1.55,1.55,0,0,1,.21,0c.39.08.52-.11.58-.48.13-.92.29-1.84.45-2.76.22-1.28.45-2.55.68-3.83,0,1.3.08,2.6.11,3.9s.07,2.53.09,3.8c0,.31.09.42.4.4s.61,0,.92,0c1,0,1,0,1.33-1,.42.07.6-.14.72-.54.19-.64.44-1.26.67-1.89.68-1.87,1.35-3.73,2-5.59-.17,1.68-.51,3.34-.76,5-.17,1.19-.37,2.37-.57,3.55-.05.34,0,.5.41.48.62,0,1.25,0,1.88,0,1,0,1,0,1.22-1a.81.81,0,0,1,.22,0c.43.09.52-.15.57-.52.11-.75.25-1.5.37-2.25.17.21.08.45.09.68.08,1.8,1,3,2.55,3.27a4.15,4.15,0,0,0,3.59-1c.1-.09.16-.25.36-.25,0,.24,0,.48,0,.7s.08.36.34.35c.55,0,1.09,0,1.63,0,1,0,1,0,1.09-1h.65a1.09,1.09,0,0,1,0,.26c-.19.51.11.62.52.68a18.42,18.42,0,0,0,3.71.24,5.43,5.43,0,0,0,2.64-.68,2.28,2.28,0,0,0,1.13-1.16A4.25,4.25,0,0,0,36.4,37.3c0,.33,0,.67,0,1a2.3,2.3,0,0,0,2,2.18,6.17,6.17,0,0,0,2.34-.2c.75-.18.75-.19.81-1a1.17,1.17,0,0,1,.24-.09c.41,0,.57-.26.61-.67.06-.62.19-1.23.29-1.84,0,.12.1.24.14.36a4.59,4.59,0,0,0,3.52,3.21,11.33,11.33,0,0,0,4.78-.08c.61-.12,1-.39,1-1.05.17-.12.48,0,.53-.31.2-1,.37-2,.57-3.07l-.46.17a8.09,8.09,0,0,1-4,.56,2.17,2.17,0,0,1-2-1.57h5c1,0,1,0,1.15-1,.19-.12.55.16.62-.23a12.8,12.8,0,0,0,.35-3.6,4.28,4.28,0,0,0-3.45-4A5.06,5.06,0,0,0,45.37,28c-.23.27-.45.55-.68.83C44.64,28.86,44.59,28.89,44.6,29Z"></path><path class="cls-3" d="M61.91,26.31a11.42,11.42,0,0,0-.26-1.64.2.2,0,0,0-.24-.19H43.08c-.64,0-.53,0-.4-.51.19-.78.42-1.55.62-2.33.08-.33.24-.42.58-.42H60.14c.56,0,.56,0,.38-.52-.28-.82-.63-1.61-1-2.41a.59.59,0,0,0-.65-.42H44.79c.38-.89.87-1.66,1.27-2.49a1.3,1.3,0,0,1,1.4-.79c3.19,0,6.39,0,9.58,0,.14,0,.34.07.41,0s-.1-.28-.18-.41a31.61,31.61,0,0,0-1.88-2.59.71.71,0,0,0-.63-.29H49c.33-.38.59-.7.87-1q.91-1,1.92-1.86c.11-.1.28-.18.26-.38A31,31,0,0,1,76.48.21a31.15,31.15,0,0,1,25.75,20.23,29.51,29.51,0,0,1,1.85,12.19C103.31,44,98,52.55,88.18,58.31a28.93,28.93,0,0,1-12.69,3.87A30.76,30.76,0,0,1,52.36,54.5a2.83,2.83,0,0,1-.25-.24,1.37,1.37,0,0,1,.41-.45,28.31,28.31,0,0,0,2.7-2.88c-.14-.16-.31-.09-.46-.09-1.81,0-3.63,0-5.45,0a.78.78,0,0,1-.66-.32c-.62-.8-1.23-1.61-1.77-2.46-.07-.1-.21-.21-.14-.34s.24-.07.36-.07c3.34,0,6.68,0,10,0a.74.74,0,0,0,.73-.41c.46-.8.91-1.61,1.31-2.43.25-.5.25-.51-.29-.51q-6.75,0-13.49,0a.74.74,0,0,1-.84-.55c-.28-.77-.61-1.52-.9-2.28C43.46,41,43.47,41,44,41H48.5c3.92,0,7.85,0,11.77,0,.37,0,.51-.11.6-.45.21-.81.45-1.6.68-2.4a5.63,5.63,0,0,0,3.66,2.27,8.79,8.79,0,0,0,3.35-.17c.84-.17.84-.17,1-1,.49-.06.89-.22.86-.82a3.11,3.11,0,0,0,1.48,1.71,4.14,4.14,0,0,0,4.53-.83l.29-.14c0,.24,0,.49,0,.74s.08.32.32.31h1.57c1,0,1,0,1.16-1H81c0,.2,0,.4-.1.6s0,.46.36.44c.66,0,1.31,0,2,0,.33,0,.76.14,1-.06s.14-.6.19-.92c.12,0,.24,0,.35,0,.33.06.42-.11.46-.4.23-1.5.46-3,.73-4.48a8.64,8.64,0,0,1,.6-2.44c.43-.26.77-.74,1.37-.63-.12.56-.27,1.09-.35,1.63a8.87,8.87,0,0,0,.38,5,3.77,3.77,0,0,0,4.31,2.45,4.37,4.37,0,0,0,2.32-1.27,4.52,4.52,0,0,1-.09.68c-.11.39,0,.48.41.46.6,0,1.2,0,1.8,0,1,0,1,0,1.12-1a1.8,1.8,0,0,1,.4,0c.26,0,.34-.08.38-.33q1.2-7.54,2.42-15.07c.06-.32,0-.36-.32-.36-.68,0-1.35,0-2,0-.92,0-.91,0-1.08.9,0,0,0,.05,0,.08h-.3c-.36-.05-.53.05-.57.46-.06.77-.2,1.52-.31,2.29-.18-.13-.35-.26-.54-.38a3.6,3.6,0,0,0-3.42-.36A6.34,6.34,0,0,0,90,28.24c-.18,0-.27.15-.39.26a7.52,7.52,0,0,0-.93,1.1,9.25,9.25,0,0,1,.94-3c.16-.34,0-.39-.26-.4a2.57,2.57,0,0,0-2.08,1c-.24.26-.44.55-.71.89.08-.52.11-1,.22-1.38s0-.39-.34-.38c-.54,0-1.08,0-1.62,0-.35,0-.79-.15-1,.06s-.17.62-.24.95c-.68,0-.67,0-.8.65s-.15,1.19-.32,1.76a2.66,2.66,0,0,1-.07-.39,3.43,3.43,0,0,0-3.1-3.22,11,11,0,0,0-4.81.38c-.44.12-.73.32-.74.8l-1.22.34c-.12,0-.24.08-.27.25-.14.88-.29,1.75-.44,2.67l.46-.12a10.87,10.87,0,0,1,4.17-.37c.5.07.94.23,1.08.8a7.23,7.23,0,0,0-4.73,1.68c-.21-.07-.37.08-.52.17a3.63,3.63,0,0,0-2,2.81h0c-.07,0-.06,0-.08.07a6.35,6.35,0,0,1-1.49.49A3.07,3.07,0,0,1,65,33.87a7.11,7.11,0,0,1,0-3.08,5.54,5.54,0,0,1,1.1-2.63s.12,0,.07-.09h0a10.52,10.52,0,0,0,1.05-.43,5,5,0,0,1,3.81.63c.22.12.3.13.33-.14s.1-.69.16-1a2.81,2.81,0,0,1,.39.19c.2.13.28.07.31-.15l.45-2.94c0-.14.05-.28-.15-.35a9.46,9.46,0,0,0-4.67-.65,8.44,8.44,0,0,0-3.35,1.52s-.14,0-.09.11h0c-.14-.09-.21,0-.3.09a5.3,5.3,0,0,0-1.4,1.18c-.22.26-.43.41-.76.24Zm38.07,12a1,1,0,0,0,1,1,1,1,0,0,0,1-1,1,1,0,0,0-1-1A1,1,0,0,0,100,38.32Z"></path><path class="cls-4" d="M7.39,32.18c-.23,1.28-.46,2.55-.68,3.83-.16.92-.32,1.84-.45,2.76-.06.37-.19.56-.58.48a1.55,1.55,0,0,0-.21,0c-.71,0-1.41,0-2.11,0-.31,0-.4-.07-.34-.38.17-.92.32-1.84.47-2.77q1-5.81,1.94-11.63c.2-1,.2-1,1.26-1s2.2,0,3.3,0c.37,0,.49.07.49.47,0,2.31.06,4.63.1,6.94,0,.13,0,.26,0,.39V32.9a12.74,12.74,0,0,0,.7-1.79c.75-2.22,1.49-4.45,2.24-6.68.18-.3.12-.79.41-.93a2.8,2.8,0,0,1,1.09,0c1.22,0,2.45,0,3.68,0,.36,0,.42.11.36.42Q18.4,27.93,17.74,32a31.25,31.25,0,0,0-.48,3.2A5.6,5.6,0,0,0,17,36.48c-.12.75-.26,1.5-.37,2.25-.05.37-.14.61-.57.52a.81.81,0,0,0-.22,0c-.75,0-1.49,0-2.24,0-.37,0-.46-.06-.4-.44.47-2.86.92-5.71,1.37-8.57.11-.74.23-1.47.34-2.21-.11,0-.14,0-.15.07l-1.1,3.14c-.68,1.86-1.35,3.72-2,5.59-.23.63-.48,1.25-.67,1.89-.12.4-.3.61-.72.54s-.91,0-1.36,0-.42,0-.43-.39c-.07-3.64-.16-7.28-.25-10.92a.88.88,0,0,1,0-.16H8.09Z"></path><path class="cls-4" d="M20,27.61c0-.68.39-.92,1-1.07a11.28,11.28,0,0,1,4.55-.32,3.47,3.47,0,0,1,3.16,3.32l0,.31-.2,1.79c-.07.42-.15.83-.21,1.25l-.57,4.25c-.09.13-.06.28-.09.42a8.84,8.84,0,0,1-.32,1.69h-.65a16.26,16.26,0,0,0-1.71,0c-.47,0-.53-.15-.45-.54a4.42,4.42,0,0,0,.07-.74,4.45,4.45,0,0,1-2.9,1.5,3.11,3.11,0,0,1-3.5-2.12A5.47,5.47,0,0,1,18,35.22a8.41,8.41,0,0,1,.57-1.91c.25-.27.47-.55.73-.8a5.92,5.92,0,0,1,3.53-1.45A13.09,13.09,0,0,1,24.48,31l.47.06c.3.06.37-.08.4-.35.1-1.06-.21-1.45-1.26-1.57-.21,0-.41,0-.62,0a11,11,0,0,0-3.83.56Zm3.53,8.81h0a3.26,3.26,0,0,0,1.35-2.7c0-.22-.14-.22-.28-.23a4.39,4.39,0,0,0-2.35.33,1.26,1.26,0,0,0-.83.93h0c-.09,0-.07,0-.07.09-.31.9.07,1.73.85,1.85a1.74,1.74,0,0,0,1.26-.22Z"></path><path class="cls-4" d="M46.82,34.94a2.17,2.17,0,0,0,2,1.57,8.09,8.09,0,0,0,4-.56l.46-.17c-.2,1.06-.37,2.07-.57,3.07-.05.26-.36.19-.53.31a12,12,0,0,1-4.27.25,4.75,4.75,0,0,1-4.25-3.89,9.23,9.23,0,0,1,.83-6.17c.07-.12.2-.23.15-.39h0c.1,0,.1-.06.09-.14.23-.28.45-.56.68-.83a5.06,5.06,0,0,1,5.09-1.83,4.28,4.28,0,0,1,3.45,4,12.8,12.8,0,0,1-.35,3.6c-.07.39-.43.11-.62.23l-5.34,0C46.62,33.92,46.61,33.93,46.82,34.94Zm.67-4.76c-.07,0-.07,0-.08.08a2.3,2.3,0,0,0-.28.77c-.05.19,0,.27.2.27l2.54,0,.65,0c.16,0,.25,0,.26-.21,0-.83-.11-1.76-1.05-2a1.87,1.87,0,0,0-2.25,1.09Z"></path><path class="cls-4" d="M32.88,30.26a.77.77,0,0,0,.38.73,5.1,5.1,0,0,0,1,.54,3.71,3.71,0,0,1,2.51,2.84,6.35,6.35,0,0,1-.37,2.93,4.25,4.25,0,0,1-1.13,1.29,5,5,0,0,1-1.43.63,12.56,12.56,0,0,1-3.62.15,10.2,10.2,0,0,1-1.82-.24c-.24-.06-.36-.14-.29-.45s.14-.91.2-1.38c.05-.28.11-.57.14-.86s.14-.34.39-.23a1.31,1.31,0,0,0,.34.09,7.37,7.37,0,0,0,3.46.19,1.08,1.08,0,0,0,.58-.3,1,1,0,0,0-.14-1.48,20.58,20.58,0,0,0-1.94-1.1,3.41,3.41,0,0,1-1.78-3.1,5.43,5.43,0,0,1,.42-2.18,4.36,4.36,0,0,1,3.85-2.17,15.57,15.57,0,0,1,3.41.16c.24,0,.32.1.28.36-.12.72-.23,1.45-.3,2.17,0,.39-.2.53-.57.44a.54.54,0,0,0-.22,0,6.84,6.84,0,0,0-2.63,0A.83.83,0,0,0,32.88,30.26Z"></path><path class="cls-4" d="M41.51,30.62c-.2,1.19-.41,2.38-.61,3.57-.06.37-.14.75-.17,1.12a.83.83,0,0,0,.82,1,2.67,2.67,0,0,0,1.12-.09c.18.14,0,.32.08.48-.1.61-.23,1.22-.29,1.84,0,.41-.2.63-.61.67a1.17,1.17,0,0,0-.24.09,10.44,10.44,0,0,1-2,.18,2.28,2.28,0,0,1-2.24-1.81,3.8,3.8,0,0,1-.1-1.26c.25-2.34.67-4.65,1.05-7l.66-4,0-.07c.22-.93.22-.93,1.2-.93.65,0,1.29,0,1.93,0,.35,0,.38.11.32.4s-.15.83-.23,1.25c0,.22,0,.31.25.3s.73,0,1.1,0c.19,0,.25.06.22.25-.12.9-.23,1.8-.36,2.69-.06.37-.4.11-.58.22l-1,0c-.16,0-.24.05-.26.22S41.54,30.34,41.51,30.62Z"></path><path class="cls-4" d="M61.91,26.31v0a14.16,14.16,0,0,0-1.14,3.55c0,.23-.14.24-.32.2a1.16,1.16,0,0,0-1.24.54,2.78,2.78,0,0,0-.49,1.06A16.69,16.69,0,0,0,58,35c-.22,1.28-.43,2.57-.61,3.85,0,.36-.15.54-.54.48a.71.71,0,0,0-.25,0c-.78,0-1.55,0-2.33,0-.31,0-.37-.09-.32-.38q.6-3.63,1.18-7.27c.22-1.4.43-2.8.65-4.2a1.66,1.66,0,0,0,.06-.21c.16-.81.16-.81,1-.81.64,0,1.29,0,1.93,0,.25,0,.33.06.28.32A8.59,8.59,0,0,0,58.82,28C59.64,27,60.42,26,61.91,26.31Z"></path><path class="cls-5" d="M58.73,31.68a2.78,2.78,0,0,1,.49-1.06,1.16,1.16,0,0,1,1.24-.54c.18,0,.28,0,.32-.2a14.16,14.16,0,0,1,1.14-3.55c.33.17.54,0,.76-.24a5.3,5.3,0,0,1,1.4-1.18c.09-.05.16-.18.3-.09a13.23,13.23,0,0,0-1.31,1.58,11.35,11.35,0,0,0-1.3,9.1,5.1,5.1,0,0,0,4,3.88,9,9,0,0,0,3.7-.12c-.11.84-.11.84-1,1a8.79,8.79,0,0,1-3.35.17,5.63,5.63,0,0,1-3.66-2.27,9.14,9.14,0,0,1-1.16-6c.09-.9-.24-1.14-1.14-.78A3.46,3.46,0,0,0,58.73,31.68Z"></path><path class="cls-5" d="M42.75,36.72c-.06-.16.1-.34-.08-.48a9.64,9.64,0,0,1,.8-5.65A4.51,4.51,0,0,1,44.6,29c0,.16-.08.27-.15.39a9.23,9.23,0,0,0-.83,6.17,4.75,4.75,0,0,0,4.25,3.89,12,12,0,0,0,4.27-.25c0,.66-.34.93-1,1.05a11.33,11.33,0,0,1-4.78.08,4.59,4.59,0,0,1-3.52-3.21C42.85,37,42.8,36.84,42.75,36.72Z"></path><path class="cls-5" d="M5.43,24.47q-1,5.82-1.94,11.63C3.34,37,3.19,38,3,38.87c-.06.31,0,.39.34.38.7,0,1.4,0,2.11,0-.16,1-.16,1-1.18,1-.62,0-1.24,0-1.85,0-.38,0-.44-.12-.39-.46.38-2.17.75-4.35,1.12-6.52.47-2.81,1-5.62,1.4-8.44.06-.32.16-.44.47-.39A2.54,2.54,0,0,0,5.43,24.47Z"></path><path class="cls-5" d="M39,25.48l-.66,4c-.38,2.32-.8,4.63-1.05,7a3.8,3.8,0,0,0,.1,1.26A2.28,2.28,0,0,0,39.6,39.5a10.44,10.44,0,0,0,2-.18c-.06.77-.06.78-.81,1a6.17,6.17,0,0,1-2.34.2,2.3,2.3,0,0,1-2-2.18c0-.33,0-.67,0-1a6.35,6.35,0,0,0,.37-2.93c.17-1,.35-2,.52-3,.31-1.76.61-3.53.92-5.3C38.31,25.46,38.33,25.46,39,25.48Z"></path><path class="cls-5" d="M18.56,33.31A8.41,8.41,0,0,0,18,35.22a5.47,5.47,0,0,0,.17,2.13,3.11,3.11,0,0,0,3.5,2.12,4.45,4.45,0,0,0,2.9-1.5,4.42,4.42,0,0,1-.07.74c-.08.39,0,.57.45.54a16.26,16.26,0,0,1,1.71,0c-.12,1-.12,1-1.09,1-.54,0-1.08,0-1.63,0-.26,0-.37-.07-.34-.35s0-.46,0-.7c-.2,0-.26.16-.36.25a4.15,4.15,0,0,1-3.59,1c-1.57-.26-2.47-1.47-2.55-3.27,0-.23.08-.47-.09-.68a5.6,5.6,0,0,1,.26-1.28,7.45,7.45,0,0,1,.83-1.45A2.45,2.45,0,0,1,18.56,33.31Z"></path><path class="cls-5" d="M55.75,27.43c-.22,1.4-.43,2.8-.65,4.2q-.59,3.65-1.18,7.27c-.05.29,0,.38.32.38.78,0,1.55,0,2.33,0-.11,1-.11,1-1.1,1-.7,0-1.4,0-2.1,0-.32,0-.36-.11-.32-.38q.63-3.85,1.24-7.69c.22-1.36.45-2.71.67-4.06C55.07,27.44,55.06,27.44,55.75,27.43Z"></path><path class="cls-5" d="M7.39,32.18l.7-4.4h.09a.88.88,0,0,0,0,.16c.09,3.64.18,7.28.25,10.92,0,.34.12.41.43.39s.91,0,1.36,0c-.3,1-.3,1-1.33,1-.31,0-.62,0-.92,0s-.4-.09-.4-.4c0-1.27-.06-2.53-.09-3.8S7.43,33.48,7.39,32.18Z"></path><path class="cls-5" d="M13.66,31.24l1.1-3.14s0-.06.15-.07c-.11.74-.23,1.47-.34,2.21-.45,2.86-.9,5.71-1.37,8.57-.06.38,0,.46.4.44.75,0,1.49,0,2.24,0-.19,1-.19,1-1.22,1-.63,0-1.26,0-1.88,0-.41,0-.46-.14-.41-.48.2-1.18.4-2.36.57-3.55C13.15,34.58,13.49,32.92,13.66,31.24Z"></path><path class="cls-5" d="M29.78,28.33a5.43,5.43,0,0,0-.42,2.18,3.41,3.41,0,0,0,1.78,3.1,20.58,20.58,0,0,1,1.94,1.1,1,1,0,0,1,.14,1.48,1.08,1.08,0,0,1-.58.3,1,1,0,0,0-.57-.88l-1.72-1a3.42,3.42,0,0,1-1.86-3l.2-1.79a4.52,4.52,0,0,1,.72-1.24C29.52,28.5,29.59,28.34,29.78,28.33Z"></path><path class="cls-5" d="M28.31,37.3c-.06.47-.1.93-.2,1.38s.05.39.29.45a10.2,10.2,0,0,0,1.82.24,12.56,12.56,0,0,0,3.62-.15,5,5,0,0,0,1.43-.63,2.28,2.28,0,0,1-1.13,1.16,5.43,5.43,0,0,1-2.64.68,18.42,18.42,0,0,1-3.71-.24c-.41-.06-.71-.17-.52-.68a1.09,1.09,0,0,0,0-.26,8.84,8.84,0,0,0,.32-1.69c0-.14,0-.29.09-.42Z"></path><path class="cls-5" d="M20,27.61l-.32,2.07a11,11,0,0,1,3.83-.56c.21,0,.41,0,.62,0,1.05.12,1.36.51,1.26,1.57,0,.27-.1.41-.4.35L24.48,31c-.12-.6-.59-.75-1.11-.82a10.45,10.45,0,0,0-4.16.38c-.38.1-.46.07-.38-.33.14-.7.25-1.41.36-2.11C19.26,27.64,19.68,27.74,20,27.61Z"></path><path class="cls-5" d="M46.82,34.94c-.21-1-.2-1,.78-1l5.34,0c-.16,1-.16,1-1.15,1Z"></path><path class="cls-5" d="M13.55,24.43c-.75,2.23-1.49,4.46-2.24,6.68a12.74,12.74,0,0,1-.7,1.79V31.25L12.68,25C12.89,24.41,12.89,24.41,13.55,24.43Z"></path><path class="cls-5" d="M32.88,30.26a.83.83,0,0,1,.72-1,6.84,6.84,0,0,1,2.63,0l0,.17c-.16.85-.16.86-1.05.8A7.85,7.85,0,0,0,32.88,30.26Z"></path><path class="cls-5" d="M41.51,30.62c0-.28.07-.57.1-.85s.1-.23.26-.22l1,0c-.09,1.06-.09,1.06-1.18,1.05Z"></path><path class="cls-5" d="M44.69,28.82c0,.08,0,.14-.09.14S44.64,28.86,44.69,28.82Z"></path><path class="cls-6" d="M90,28.24a6.34,6.34,0,0,1,2.36-1.77,3.6,3.6,0,0,1,3.42.36c.19.12.36.25.54.38l.68.61.5-3.35s0,0,0-.08c.17-.9.16-.9,1.08-.9.67,0,1.34,0,2,0,.27,0,.38,0,.32.36q-1.22,7.53-2.42,15.07c0,.25-.12.36-.38.33a1.8,1.8,0,0,0-.4,0l-1.66,0c-.82,0-.82,0-.74-.79v-.31l-.2.17c-2.37,2.05-5.42,1.33-6.47-1.61a9,9,0,0,1,1.11-8.08C89.91,28.49,90.06,28.41,90,28.24Zm2.55,2.29c-.08,0-.08.08-.09.14A5.49,5.49,0,0,0,92,34.93a1.65,1.65,0,0,0,2.76.86l.09-.07h0a1.41,1.41,0,0,0,.48-.49A5.59,5.59,0,0,0,96,30.58a1.48,1.48,0,0,0-1.27-1.18,2,2,0,0,0-2.12,1.13Z"></path><path class="cls-6" d="M72.82,32.66A7.23,7.23,0,0,1,77.55,31l1.23.08c.12,0,.24.05.31-.13a1.21,1.21,0,0,0-.87-1.73,5.72,5.72,0,0,0-.92-.08,11.27,11.27,0,0,0-3.88.56l.35-2.27c0-.48.3-.68.74-.8a11,11,0,0,1,4.81-.38,3.43,3.43,0,0,1,3.1,3.22,2.66,2.66,0,0,0,.07.39L82,33.65c-.24,1.74-.49,3.49-.75,5.24,0,.13,0,.35-.2.36H79.72c-.41,0-.82,0-1.23,0-.18,0-.26-.05-.23-.25s0-.61.07-1a4.6,4.6,0,0,1-1.66,1.2l-.29.14-.91.14A3,3,0,0,1,72,37.41a4.89,4.89,0,0,1,.72-4.49C72.75,32.84,72.84,32.78,72.82,32.66Zm2.45,1.82c-.06,0-.07,0-.07.08a1.53,1.53,0,0,0,0,1.61,1.1,1.1,0,0,0,1.2.51,1.36,1.36,0,0,0,.94-.28,3.43,3.43,0,0,0,1.29-2.68c0-.19-.1-.2-.24-.22a4,4,0,0,0-1.57.06,1.87,1.87,0,0,0-1.54.93Z"></path><path class="cls-6" d="M69.51,39.26a9,9,0,0,1-3.7.12,5.1,5.1,0,0,1-4-3.88,11.35,11.35,0,0,1,1.3-9.1,13.23,13.23,0,0,1,1.31-1.58h0c.07,0,.12,0,.09-.11a8.44,8.44,0,0,1,3.35-1.52,9.46,9.46,0,0,1,4.67.65c.2.07.17.21.15.35l-.45,2.94c0,.22-.11.28-.31.15a2.81,2.81,0,0,0-.39-.19,4.87,4.87,0,0,0-1.81-.58,3.63,3.63,0,0,0-3.54,1.56h0c-.06,0-.08,0-.07.09A5.54,5.54,0,0,0,65,30.79a7.11,7.11,0,0,0,0,3.08,3.07,3.07,0,0,0,3.82,2.32,6.35,6.35,0,0,0,1.49-.49l.08-.07h0l.47-.12-.45,2.92C70.4,39,70,39.2,69.51,39.26Z"></path><path class="cls-6" d="M86.53,32a8.64,8.64,0,0,0-.6,2.44c-.27,1.49-.5,3-.73,4.48,0,.29-.13.46-.46.4-.11,0-.23,0-.35,0-.74,0-1.49,0-2.23,0-.37,0-.43-.11-.38-.44.32-1.89.62-3.77.92-5.66s.61-3.83.91-5.75c.07-.33,0-.77.24-.95s.67-.06,1-.06c.54,0,1.08,0,1.62,0,.3,0,.43,0,.34.38s-.14.86-.22,1.38c.27-.34.47-.63.71-.89a2.57,2.57,0,0,1,2.08-1c.3,0,.42.06.26.4a9.25,9.25,0,0,0-.94,3c-.15.14.06.51-.34.49A1.84,1.84,0,0,0,86.53,32Z"></path><path class="cls-5" d="M86.53,32a1.84,1.84,0,0,1,1.85-1.87c.4,0,.19-.35.34-.49a7.52,7.52,0,0,1,.93-1.1c.12-.11.21-.25.39-.26,0,.17-.13.25-.2.37a9,9,0,0,0-1.11,8.08c1,2.94,4.1,3.66,6.47,1.61l.2-.17v.31c-.08.79-.08.79.74.79l1.66,0c-.1,1-.1,1-1.12,1-.6,0-1.2,0-1.8,0-.36,0-.52-.07-.41-.46a4.52,4.52,0,0,0,.09-.68,4.37,4.37,0,0,1-2.32,1.27,3.77,3.77,0,0,1-4.31-2.45,8.87,8.87,0,0,1-.38-5c.08-.54.23-1.07.35-1.63C87.3,31.22,87,31.7,86.53,32Z"></path><path class="cls-5" d="M70.37,38.44l.45-2.92-.47.12a3.63,3.63,0,0,1,2-2.81c.15-.09.31-.24.52-.17,0,.12-.07.18-.13.26A4.89,4.89,0,0,0,72,37.41a3,3,0,0,0,3.5,2.05l.91-.14a4.14,4.14,0,0,1-4.53.83A3.11,3.11,0,0,1,70.37,38.44Z"></path><path class="cls-5" d="M83.61,27.43c-.3,1.92-.6,3.83-.91,5.75s-.6,3.77-.92,5.66c0,.33,0,.45.38.44.74,0,1.49,0,2.23,0,0,.32,0,.74-.19.92s-.64.06-1,.06c-.66,0-1.31,0-2,0-.38,0-.43-.12-.36-.44s.07-.4.1-.6c.25,0,.18-.23.2-.36.26-1.75.51-3.5.75-5.24l.54-3.81c.17-.57.2-1.17.32-1.76S82.93,27.42,83.61,27.43Z"></path><path class="cls-5" d="M73.77,27.41l-.35,2.27a11.27,11.27,0,0,1,3.88-.56,5.72,5.72,0,0,1,.92.08,1.21,1.21,0,0,1,.87,1.73c-.07.18-.19.14-.31.13L77.55,31c-.14-.57-.58-.73-1.08-.8a10.87,10.87,0,0,0-4.17.37l-.46.12c.15-.92.3-1.79.44-2.67,0-.17.15-.21.27-.25Z"></path><path class="cls-5" d="M66.13,28.08a3.63,3.63,0,0,1,3.54-1.56,4.87,4.87,0,0,1,1.81.58c-.06.35-.13.69-.16,1s-.11.26-.33.14a5,5,0,0,0-3.81-.63A10.52,10.52,0,0,1,66.13,28.08Z"></path><path class="cls-5" d="M76.67,39.18A4.6,4.6,0,0,0,78.33,38c0,.4,0,.71-.07,1s0,.25.23.25c.41,0,.82,0,1.23,0-.14,1-.14,1-1.16,1H77c-.24,0-.34-.06-.32-.31S76.67,39.42,76.67,39.18Z"></path><path class="cls-5" d="M97.54,24.47,97,27.82l-.68-.61c.11-.77.25-1.52.31-2.29,0-.41.21-.51.57-.46Z"></path><path class="cls-4" d="M100,38.32a1,1,0,0,1,1-1,1,1,0,0,1,1,1,1,1,0,0,1-1,1A1,1,0,0,1,100,38.32Zm.46-.64a.79.79,0,0,0,0,1.25.83.83,0,1,0,0-1.25Z"></path><path class="cls-5" d="M70.36,35.63l-.08.07S70.29,35.6,70.36,35.63Z"></path><path class="cls-5" d="M66.06,28.16c0-.06,0-.09.07-.09S66.1,28.15,66.06,28.16Z"></path><path class="cls-5" d="M64.46,24.72c0,.08,0,.11-.09.11S64.42,24.75,64.46,24.72Z"></path><path class="cls-2" d="M28.31,37.3l-.6-.16.57-4.25c.06-.42.14-.83.21-1.25a3.42,3.42,0,0,0,1.86,3l1.72,1a1,1,0,0,1,.57.88,7.37,7.37,0,0,1-3.46-.19,1.31,1.31,0,0,1-.34-.09c-.25-.11-.36-.05-.39.23S28.36,37,28.31,37.3Z"></path><path class="cls-2" d="M23.42,36.46a1.74,1.74,0,0,1-1.26.22c-.78-.12-1.16-1-.85-1.85,0,0,.08,0,.07-.09h0a8.22,8.22,0,0,1,2-.28c.37,0,.44.13.43.46a12.64,12.64,0,0,1-.29,1.49h0Z"></path><path class="cls-5" d="M23.48,36.42a12.64,12.64,0,0,0,.29-1.49c0-.33-.06-.45-.43-.46a8.22,8.22,0,0,0-2,.28,1.26,1.26,0,0,1,.83-.93,4.39,4.39,0,0,1,2.35-.33c.14,0,.3,0,.28.23A3.26,3.26,0,0,1,23.48,36.42Z"></path><path class="cls-5" d="M21.38,34.74c0,.06,0,.08-.07.09S21.29,34.72,21.38,34.74Z"></path><path class="cls-5" d="M23.42,36.46l.07,0Z"></path><path class="cls-5" d="M47.48,30.18a1.87,1.87,0,0,1,2.25-1.09c.94.24,1.1,1.17,1.05,2,0,.18-.1.22-.26.21l-.65,0A1.41,1.41,0,0,0,48.42,30,7.69,7.69,0,0,0,47.48,30.18Z"></path><path class="cls-2" d="M47.48,30.18a7.69,7.69,0,0,1,.94-.16,1.41,1.41,0,0,1,1.45,1.25l-2.54,0c-.22,0-.25-.08-.2-.27a2.3,2.3,0,0,1,.28-.77l.08-.08Z"></path><path class="cls-5" d="M47.49,30.18l-.08.08C47.42,30.21,47.42,30.16,47.49,30.18Z"></path><path class="cls-3" d="M94.71,35.79A1.65,1.65,0,0,1,92,34.93a5.49,5.49,0,0,1,.55-4.26s.16,0,.09-.14h0c.08.12.16,0,.22,0a1.66,1.66,0,0,1,2.38,1.3,5.85,5.85,0,0,1,.09,2,11.91,11.91,0,0,1-.49,1.89h0C94.73,35.7,94.73,35.75,94.71,35.79Z"></path><path class="cls-5" d="M94.79,35.72a11.91,11.91,0,0,0,.49-1.89,5.85,5.85,0,0,0-.09-2,1.66,1.66,0,0,0-2.38-1.3c-.06,0-.14.12-.22,0a2,2,0,0,1,2.12-1.13A1.48,1.48,0,0,1,96,30.58a5.59,5.59,0,0,1-.71,4.65A1.41,1.41,0,0,1,94.79,35.72Z"></path><path class="cls-5" d="M92.59,30.53c.07.11,0,.1-.09.14S92.51,30.54,92.59,30.53Z"></path><path class="cls-5" d="M94.71,35.79s0-.09.09-.07Z"></path><path class="cls-5" d="M75.27,34.49a1.87,1.87,0,0,1,1.54-.93,4,4,0,0,1,1.57-.06c.14,0,.26,0,.24.22a3.43,3.43,0,0,1-1.29,2.68,1.36,1.36,0,0,1-.94.28,5.31,5.31,0,0,0,.46-1.8c0-.29-.06-.42-.38-.4S75.67,34.49,75.27,34.49Z"></path><path class="cls-3" d="M75.27,34.49c.4,0,.8,0,1.2,0s.4.11.38.4a5.31,5.31,0,0,1-.46,1.8,1.1,1.1,0,0,1-1.2-.51,1.53,1.53,0,0,1,0-1.61s.11,0,.07-.08Z"></path><path class="cls-5" d="M75.27,34.48c0,.09,0,.07-.07.08S75.21,34.47,75.27,34.48Z"></path><path class="cls-3" d="M100.44,37.68a.82.82,0,0,1,1.17.07.83.83,0,0,1-1.16,1.18l.09-.08c.14,0,.17-.07.18-.19s0-.22.12-.24.18.08.24.17.1.27.32.24c-.09-.25-.35-.44-.05-.71.12-.12-.07-.3-.24-.33a5.42,5.42,0,0,0-.57,0Z"></path><path class="cls-3" d="M100.45,38.93a.79.79,0,0,1,0-1.25l.1.1v1.07Z"></path><path class="cls-4" d="M100.54,38.85V37.78a5.42,5.42,0,0,1,.57,0c.17,0,.36.21.24.33-.3.27,0,.46.05.71-.22,0-.24-.14-.32-.24s-.12-.18-.24-.17-.11.15-.12.24S100.68,38.87,100.54,38.85Zm.64-.76a.18.18,0,0,0-.21-.17c-.11,0-.25,0-.26.15s.06.18.19.18S101.13,38.23,101.18,38.09Z"></path><path class="cls-3" d="M101.18,38.09c-.05.14-.16.16-.28.16s-.19-.06-.19-.18.15-.15.26-.15A.18.18,0,0,1,101.18,38.09Z"></path></g></g></svg> 