<?xml version="1.0" encoding="UTF-8"?> <svg xmlns="http://www.w3.org/2000/svg" viewBox="0 0 176.01 28.67"><defs><style>.cls-1{fill:#83ba3b;}.cls-2{fill:#86bb3f;}</style></defs><g id="Layer_2" data-name="Layer 2"><g id="Layer_1-2" data-name="Layer 1"><path class="cls-1" d="M57.75,28.67q2-11.08,4.08-22.1a.6.6,0,0,0-.29,0H56.91c-.31,0-.31,0-.36.32q-.49,2.63-1,5.25c-.34,1.83-.67,3.66-1,5.49-.44,2.38-.87,4.76-1.31,7.14-.23,1.22-.46,2.45-.68,3.67,0,.26,0,.26-.31.27H19.19c-.49,0-.37.06-.52-.39Q17.31,24.35,16,20.42c-.6-1.73-1.2-3.47-1.79-5.2-.49-1.41-1-2.81-1.45-4.21,0-.06-.05-.11-.09-.21a6.66,6.66,0,0,0-.21,1c-.36,2-.7,3.93-1.05,5.9s-.75,4.19-1.12,6.29c-.26,1.47-.51,2.94-.77,4.41-.05.28-.05.29-.33.29H.26a.48.48,0,0,0-.12,0c-.13,0-.16-.06-.13-.18.13-.68.26-1.35.38-2l1-5.22c.23-1.26.47-2.51.7-3.77l.84-4.55L3.67,8.7c.26-1.42.52-2.84.79-4.25S4.93,1.9,5.17.62c0-.13.06-.26.07-.39S5.35,0,5.51,0h9.31c.32,0,.33,0,.44.29.6,1.66,1.21,3.31,1.81,5l2.43,6.65,1.92,5.26c0,.06,0,.14.14.17l.21-1.14c.3-1.65.61-3.3.91-5l.84-4.62c.26-1.39.52-2.79.77-4.19.14-.72.27-1.43.4-2.15,0-.29,0-.29.35-.29H80.89a1.43,1.43,0,0,1,.41,0c-.14.8-.28,1.6-.43,2.4-.22,1.24-.45,2.47-.67,3.71,0,0,0,.06,0,.09-.05.28-.05.28-.36.28H71.44c-.39,0-.33-.08-.41.35-.28,1.44-.53,2.88-.8,4.32,0,0,0,.1,0,.15s0,.18.14.17h8.13c.4,0,.39,0,.32.4L78,16.51l-.09.49c0,.12-.07.18-.2.18H69.32c-.14,0-.2.05-.23.19-.18,1-.37,2.06-.56,3.09l-.3,1.66a.76.76,0,0,0,.36,0H81.94a5.23,5.23,0,0,1,.56,0c.15,0,.2-.05.22-.19L83,20.52,83.83,16q.48-2.64,1-5.28l1-5.49c.28-1.51.55-3,.83-4.53,0-.2,0-.47.17-.6s.38,0,.57,0h8.87a4.71,4.71,0,0,1-.12.78q-.65,3.5-1.3,7L93.5,15l-1,5.31c0,.18-.05.37-.09.55s0,.16.11.16h6c.32,0,.32,0,.37-.31.28-1.5.55-3,.83-4.49l.72-3.86c.28-1.51.55-3,.83-4.55s.61-3.28.91-4.92c.17-.89.34-1.78.49-2.67,0-.16.1-.21.24-.2h9.32c-.09.46-.16.89-.24,1.32-.26,1.42-.53,2.83-.79,4.25-.4,2.09-.79,4.19-1.18,6.28-.43,2.33-.87,4.66-1.3,7l-.36,2c0,.18,0,.19.17.19h6.12c.29,0,.29,0,.35-.29.24-1.27.47-2.55.71-3.82s.47-2.6.71-3.89c.3-1.64.61-3.28.91-4.92L118.68.82l.12-.64c0-.1.06-.17.18-.16h17.66a1.11,1.11,0,0,1,.36,0c-.11.59-.21,1.17-.32,1.76-.26,1.41-.52,2.81-.77,4.22-.09.5-.09.5-.6.5h-8.17c-.26,0-.26,0-.31.27L126,11.32a1.59,1.59,0,0,0,0,.17h8.63a5.72,5.72,0,0,1-.14.89c-.26,1.49-.53,3-.81,4.46a.8.8,0,0,0,0,.15c0,.16-.09.19-.23.19H125.2c-.28,0-.29,0-.34.27l-.81,4.43a2.42,2.42,0,0,0,0,.25.78.78,0,0,0,.34,0H138a.75.75,0,0,1,.15,0c.14,0,.2,0,.22-.18.18-1,.37-2,.56-3,.24-1.28.47-2.57.71-3.85s.51-2.75.76-4.13c.23-1.2.45-2.41.67-3.61.3-1.65.6-3.3.91-4.95L142.39.3c.06-.27.06-.27.33-.27h11a25.38,25.38,0,0,1,4.68.42,13.12,13.12,0,0,1,3.66,1.21,7.12,7.12,0,0,1,3.13,3A7.29,7.29,0,0,1,166,7.23,10,10,0,0,1,166,9a9,9,0,0,1-1.41,4.65,7.83,7.83,0,0,1-4,3,16,16,0,0,1-2.06.55h-.06c-.28.06-.28.06-.18.31l.33.87,3,8c.29.76.57,1.52.86,2.3a.69.69,0,0,1-.28,0h-8.84c-.31,0-.31,0-.4-.31Q151.39,23,149.8,17.61c-.27-.91-.55-1.82-.83-2.75a3.3,3.3,0,0,0-.2.84c-.32,1.75-.63,3.5-1,5.25s-.6,3.28-.91,4.92l-.45,2.52c0,.27,0,.27-.33.28H57.75ZM47.17,6.56a1.3,1.3,0,0,0-.39,0H33c-.15,0-.2,0-.22.19-.07.46-.16.91-.24,1.37-.17,1-.34,2-.52,3-.07.37-.08.37.31.37h8.41c.08,0,.14,0,.12.14a1.13,1.13,0,0,1,0,.18c-.17,1-.35,2-.53,2.94-.13.72-.25,1.44-.39,2.16-.05.28,0,.28-.33.29H31c-.11,0-.16,0-.18.16-.07.4-.14.8-.22,1.21-.21,1.15-.43,2.31-.64,3.46,0,0,0,.1.06.15H44c.26,0,.26,0,.31-.27s.1-.56.16-.85c.27-1.49.54-3,.82-4.49.24-1.31.49-2.63.73-3.94l.78-4.25Zm102,6.87a.24.24,0,0,0,.19.05c.79,0,1.57,0,2.36,0a7.33,7.33,0,0,0,2.57-.49,3.58,3.58,0,0,0,2.17-2.15,4.25,4.25,0,0,0,.19-2.34A2.83,2.83,0,0,0,155,6.38,5.06,5.06,0,0,0,153.71,6a18.85,18.85,0,0,0-2.91-.14c-.16,0-.21.07-.24.21-.12.71-.25,1.42-.38,2.13-.2,1.05-.4,2.1-.59,3.15Z"></path><path class="cls-2" d="M171.76,28.67a4.22,4.22,0,1,1,4.25-4A4.24,4.24,0,0,1,171.76,28.67Zm0-.75a3.47,3.47,0,1,0-3.45-3.48A3.48,3.48,0,0,0,171.75,27.92Z"></path><path class="cls-2" d="M172.6,24.65a8.27,8.27,0,0,1,1.62,1.93,1.4,1.4,0,0,1-.69.08c-.12,0-.16-.11-.22-.19-.3-.4-.58-.81-.88-1.2a1.16,1.16,0,0,0-1.24-.49c-.14,0-.32,0-.41.07s0,.25,0,.39c0,.44,0,.88.06,1.32,0,.24,0,.25-.23.24s-.26.1-.36,0,0-.22,0-.33a2.37,2.37,0,0,1,0-.46c0-.85-.08-1.7-.13-2.56,0-.33,0-.67-.05-1,0-.12,0-.17.16-.17.77,0,1.54-.09,2.31-.09a1.14,1.14,0,0,1,1.17.84,1.19,1.19,0,0,1-.81,1.54Zm-1.94-1.33c0,.26.07.51.06.77s.07.16.19.15c.43,0,.87,0,1.3-.07a1.08,1.08,0,0,0,.49-.15.68.68,0,0,0-.1-1.23,1.29,1.29,0,0,0-.58-.07,11.46,11.46,0,0,1-1.17.06c-.13,0-.2,0-.19.17S170.66,23.2,170.66,23.32Z"></path></g></g></svg> 