<?xml version="1.0" encoding="UTF-8"?> <svg xmlns="http://www.w3.org/2000/svg" viewBox="0 0 101.38 32.67"><defs><style>.cls-1{fill:#0356a3;}.cls-2{fill:#fda604;}</style></defs><g id="Layer_2" data-name="Layer 2"><g id="Layer_1-2" data-name="Layer 1"><path class="cls-1" d="M97.7,32.15h-.34c-3.32,0-3.36,0-4-3.33-.21-1.05-.62-1.41-1.71-1.38-2.65.09-5.31.07-8,0A1.51,1.51,0,0,0,82,28.63c-1.3,3.54-1.33,3.56-5,3.51-1.53,0-3.07.28-4.58-.21.54-1.38,1-2.77,1.62-4.14q5-11.91,10-23.8C85.17,1.16,86.12.53,89.23.52a33.77,33.77,0,0,0,3.63,0c1.61-.2,2.25.35,2.57,2,1.87,9.35,3.86,18.68,5.84,28,.26,1.2.16,1.88-1.32,1.68A16.88,16.88,0,0,0,97.7,32.15ZM84.81,21c1.18,0,2.1,0,3,0,1.24-.06,2.92.55,3.6-.29.49-.6-.28-2.25-.52-3.42-.54-2.6-1.1-5.19-1.73-8.15Z"></path><path class="cls-1" d="M66.43,0a23.27,23.27,0,0,1,6.14.86c1,.26,1.29.72,1.08,1.71A41,41,0,0,0,73,6.83c-.12,1.1-.52,1.18-1.45.79a13.42,13.42,0,0,0-7.28-.89,4.79,4.79,0,0,0-1.92.71c-1.49,1-1.65,2.43-.29,3.57a19.65,19.65,0,0,0,2.77,1.75c1.19.69,2.47,1.25,3.61,2,5.52,3.69,5.64,11,.28,15C65.58,32,62,32.68,58.24,32.67a25.62,25.62,0,0,1-8-1.26c-.73-.24-1.06-.53-.92-1.33.3-1.76.55-3.53.81-5.29.15-1,.69-.63,1.22-.39a16.79,16.79,0,0,0,7.69,1.71c.29,0,.58,0,.86,0,2.24-.22,3.83-1.22,4.07-2.63.35-2.07-1.25-2.79-2.63-3.6-1.58-.94-3.28-1.69-4.79-2.73C51.44,13.57,51.21,7.42,56,3.35,58.48,1.18,62.11,0,66.43,0Z"></path><path class="cls-1" d="M19.51,16.23l1.31,5.86c1.38-3.67,2.66-7,3.92-10.41s2.49-6.54,3.63-9.85a1.71,1.71,0,0,1,2-1.34c2.3.08,4.61,0,7.17,0l-3.27,8c-3,7.44-6.11,14.87-9.11,22.33a1.66,1.66,0,0,1-1.87,1.26,52.42,52.42,0,0,0-5.88,0c-1.27.09-1.65-.44-1.94-1.55C13.42,22.71,11.3,14.83,9.2,7,9,6.3,8.77,5.67,8.55,5c.79-.15,1.27.43,1.82.79a28.51,28.51,0,0,1,8.88,10l0,0A.43.43,0,0,0,19.51,16.23Z"></path><path class="cls-1" d="M45.3.52c1.08.12,2.94-.59,3.55.28s-.22,2.5-.43,3.8c-1.4,8.74-2.83,17.48-4.19,26.23-.16,1-.5,1.38-1.52,1.34-1.9-.06-3.81-.05-5.71,0-.89,0-1.24-.17-1.08-1.16q2.44-14.73,4.81-29.45C40.85.79,41.14.45,42,.5,43,.56,44,.52,45.3.52Z"></path><path class="cls-2" d="M19.25,15.77a28.51,28.51,0,0,0-8.88-10c-.55-.36-1-.94-1.82-.79-1.27-1.63-3.27-2-5-2.74C2.39,1.79,1.18,1.46,0,1.06.29.31.82.53,1.24.52,5.1.51,9,.5,12.82.52c2.88,0,3.84.89,4.4,3.76.62,3.21,1.29,6.42,1.93,9.63A3.78,3.78,0,0,1,19.25,15.77Z"></path><path class="cls-2" d="M19.51,16.23a.43.43,0,0,1-.28-.49C19.64,15.72,19.54,16,19.51,16.23Z"></path></g></g></svg> 