<svg xmlns="http://www.w3.org/2000/svg" viewBox="0 0 53.97 85.77"><defs><style>.cls-1{fill:#ffaf44;}.cls-2{fill:#fff;}</style></defs><g id="Layer_2" data-name="Layer 2"><g id="Layer_1-2" data-name="Layer 1"><path class="cls-1" d="M27,8.06A34.68,34.68,0,0,1,48.9,15.82L54,9.56a42.87,42.87,0,0,0-54,0l5.07,6.26A34.7,34.7,0,0,1,27,8.06Z"/><path class="cls-1" d="M27,77.71A34.66,34.66,0,0,1,5.07,69.94L0,76.21a42.87,42.87,0,0,0,54,0L48.9,69.94A34.63,34.63,0,0,1,27,77.71Z"/><path class="cls-2" d="M27,26.32A16.52,16.52,0,0,1,37.38,30l5.08-6.25a24.54,24.54,0,0,0-30.94,0L16.6,30A16.38,16.38,0,0,1,27,26.32Z"/><path class="cls-2" d="M27,59.33a16.5,16.5,0,0,1-12.76-27H4.77A24.56,24.56,0,0,0,42.43,61.93l-5.07-6.27A16.4,16.4,0,0,1,27,59.33Z"/></g></g></svg>