<svg xmlns="http://www.w3.org/2000/svg" viewBox="0 0 191.15 191.18"><defs><style>.cls-1{fill:#e5e5e5;}</style></defs><g id="Layer_2" data-name="Layer 2"><g id="Layer_1-2" data-name="Layer 1"><path class="cls-1" d="M61.7,155.67c6.16.29,11.8-3.55,17.1-8.22,7.33-6.44,15.79-8.18,24.92-5s14.7,9.79,16.51,19.35a24.88,24.88,0,0,1-12.73,26.32c-9.7,5.13-21.59,3.61-29.16-4-4.25-4.25-9-7.39-15.08-8.08-8.13-.92-14.76,1.91-20.52,7.6C35.12,191.16,26,193.06,16,189.32-.89,183-5.45,161.07,7.4,148.37c6.83-6.75,9.24-14.67,7-23.94-1.1-4.49-3.8-8.06-7-11.31A24.82,24.82,0,0,1,5.24,80.27c1.26-1.64,2.88-3,4.23-4.58C17.8,65.92,17.1,52.5,7.81,43.16.12,35.42-2,25.2,2,15.35,8.55-.75,30-5.27,42.31,7c9.6,9.6,24.07,11.19,36.15-.15C85.31.43,93.5-1.37,102.58,1A23.84,23.84,0,0,1,113.4,7.48a24.11,24.11,0,0,0,14.24,7.14,23.63,23.63,0,0,0,18-5.08c1.32-1,2.58-2.1,3.82-3.21A25.05,25.05,0,0,1,190.2,31.92a24.91,24.91,0,0,1-23.92,18.17,24.28,24.28,0,0,1-18-7.4C137.85,32.2,124,32.17,113.47,42.55c-10.29,10.17-25.54,10.15-35.81,0-7.42-7.38-17.09-9.62-25.9-6-9.63,3.94-16.48,13.65-16.47,23.65a23.69,23.69,0,0,0,6.32,16.17c3.76,4.22,7.06,8.65,8,14.41,1.45,8.55-.65,16-6.72,22.29-8,8.28-10,19.09-4.8,28.66C42.88,150.41,50,155.71,61.7,155.67Z"/><path class="cls-1" d="M166.08,157.65a9,9,0,1,1-9,8.92A9.26,9.26,0,0,1,166.08,157.65Z"/><path class="cls-1" d="M104.53,98.15a9,9,0,0,1-9,8.85,9.25,9.25,0,0,1-8.91-9,9.09,9.09,0,0,1,9.15-8.94A9,9,0,0,1,104.53,98.15Z"/><path class="cls-1" d="M175,97.51a9,9,0,0,1-17.94,0,9,9,0,0,1,17.94,0Z"/></g></g></svg>