<svg xmlns="http://www.w3.org/2000/svg" viewBox="0 0 1200 314"><defs><style>.cls-1{fill:#e5e5e5;}</style></defs><g id="Layer_2" data-name="Layer 2"><g id="Layer_1-2" data-name="Layer 1"><path class="cls-1" d="M682,0c.12,12.47.38,24.94.34,37.42-.07,19.49-.35,39-.51,58.47a41.64,41.64,0,0,0,.65,4.82c3.47-1.52,6.35-3,9.38-4.08,32.1-11.51,62.72-11.53,89.82,12.42,13.74,12.13,22.64,27.58,27.21,45.14,8.86,34.08,7.3,67.81-7.71,99.87-15.5,33.11-43,51.16-78.44,57.55-5.69,1-11.59.91-17.38,1.4-2.46.22-4.91.65-7.36,1h-8c-4.78-.4-9.6-.54-14.34-1.23-17.73-2.6-35.43-5.41-53.15-8-3.24-.49-3.33-2.57-3.31-5.07q.18-20.24.26-40.48c.25-54,.62-107.94.62-161.91,0-14.46-1-28.93-1.8-43.38-.15-2.77-1.18-5.5-1.83-8.24-2.34-9.81-8.37-15.58-18.47-17-1.31-.18-2.57-.76-3.88-.9-3.61-.38-3.91-2.8-4-5.72s.88-4.38,4.07-5C622.1,11.92,650,6.56,677.85,1.22A18.13,18.13,0,0,0,681,0Zm-.12,204h.94q0,39.48,0,79a30.65,30.65,0,0,0,.89,8.9c.55,1.75,2.49,4,4.15,4.32,15.57,3.14,28.09-2,37.74-14.54,8.28-10.75,13.07-23.12,16.56-36,5.89-21.77,7-43.92,5.17-66.32-1.29-16-5.06-31.19-13.23-45-10.62-18-26.69-24.1-46.88-18.55-4.17,1.15-5.47,3.15-5.45,7.31C682,150,681.88,177,681.88,204Z"/><path class="cls-1" d="M0,6c11.82,0,23.64.11,35.46.11q101,.09,202,0c5.12,0,6.42,1.44,6.49,6.41.33,24.82.83,49.64,1.73,74.45.27,7.31-5.43,5.85-9,7.33s-6.18.3-7.78-3.71c-3.33-8.33-6.73-16.68-10.8-24.66-7-13.81-16.7-25.19-31.15-31.94-8.69-4.06-17.94-4.9-27.25-5.13-13.66-.32-27.33.05-41-.26-4.27-.09-5.6,1.73-5.76,5.42-.32,7.32-.84,14.64-1,22-.48,29.15-.75,58.31-1.32,87.47-.09,4.49,1.47,5.92,5.76,5.62,10.46-.72,21-.85,31.39-1.91a24.17,24.17,0,0,0,19.36-13.46c3.78-7.3,6.16-15.33,9-23.09,1.07-2.89,11.17-5.71,13.12-3.38a5.52,5.52,0,0,1,.71,3.29c0,31.33,0,62.66.06,94,0,3.17-1,4.68-4.35,4.29a26,26,0,0,0-5-.07c-2.91.23-3.86-1.18-4.67-3.88A150.31,150.31,0,0,0,169,184.74c-4.87-10.48-13.32-16.38-25.1-16.91-9.65-.44-19.3-.75-28.94-1.22-2.89-.14-4.35.66-4.2,3.85,1.36,30.09,2.57,60.19,4.08,90.27.2,4.08,1.62,8.14,2.83,12.1C121,284,127.77,291.3,140.05,292.5c4.28.41,8.47,1.61,12.73,2.3,5.49.89,4.8,5.08,4.8,8.84,0,4-2.71,4.17-5.84,4.17-48.49-.05-97,0-145.49-.15-2.09,0-4.17-1.74-6.25-2.66v-7c4-1.58,8-3.79,12.14-4.62,17-3.39,24-9.48,27.09-26.66A221.1,221.1,0,0,0,43,231.58c.7-41.13,1.13-82.28.8-123.41A526,526,0,0,0,40.06,51C37.81,31.79,29.21,23.51,10.9,21.09,4.73,20.27-.28,19.81.4,11.9c0-.28-.26-.6-.4-.9Z"/><path class="cls-1" d="M314,314c-6.09-.67-12.24-1-18.25-2.06-38.2-6.81-63.06-29.22-74.72-65.85-9.86-31-10.33-62.5,1.36-93,14.87-38.75,43.59-60.89,85.15-65.93a120.69,120.69,0,0,1,50.29,4.25c25.05,7.65,43.92,23.21,54.77,47,17.51,38.38,18.7,77.73,1.58,116.46-14.64,33.11-41.48,51.5-76.85,57.65-5.37.93-10.88,1-16.33,1.47ZM280.64,197.78c-.49,18.48.23,37.55,5.09,56.24,3.38,13,7.4,25.64,16.93,35.62,10.66,11.17,26.07,11.72,36.73.65a57.84,57.84,0,0,0,10.78-16.51c5.69-12.9,7.39-26.79,8.29-40.78,1.78-27.78,2.31-55.53-3.25-83-3.08-15.16-8.17-29.49-19.79-40.57-11-10.46-27.71-10-37,1.94a69.61,69.61,0,0,0-10.53,20.13C280.75,152.76,280.23,174.91,280.64,197.78Z"/><path class="cls-1" d="M931,314c-6-.9-12.2-1.37-18.14-2.77-41.2-9.68-67.42-35.62-77.36-76.19C825.69,195,830.64,156.45,856.91,123c17-21.63,40.1-32.69,67.31-35.83,16.53-1.9,32.64-.76,48,5.59,24.1,10,38.27,29,45,53.38,3.41,12.21,4.55,25.1,6.16,37.76.82,6.47,0,6.79-6.31,6.8l-115,.15c-6.52,0-6.55,0-6.48,6.58.16,14.27,2.47,28.19,8.18,41.3,9.65,22.2,25.77,37.14,50.16,41.15,20.19,3.32,39.46.3,56.7-11.69,2.08-1.45,4.26-2.88,6.48,0,2,2.61,3.9,5.17,1.32,8.46-1.13,1.43-2.21,2.93-3.46,4.26-12.48,13.22-27.14,23.08-44.81,27.83-7.32,2-15,2.86-22.43,4.26-1.62.3-3.21.69-4.82,1Zm-4-140.65c0-.36,0-.71,0-1.07,9.15,0,18.31-.16,27.46.07,4.2.1,5.18-1.77,4.78-5.45-1.1-10.25-1.66-20.57-3.26-30.74-1.47-9.36-4-18.58-9.92-26.35-6.24-8.15-15.81-10.15-24.26-4.36A38.53,38.53,0,0,0,911.4,116c-10.54,16.22-13.62,34.76-15.62,53.55-.35,3.26,1.41,3.86,4.21,3.83C909,173.29,918,173.35,927,173.35Z"/><path class="cls-1" d="M1200,245c-.61,3.92-1,7.89-1.87,11.74-6.81,28.77-26.1,45.14-53.61,52.75a106.29,106.29,0,0,1-22.08,3.22c-25.25,1.48-50.18-.5-74.51-8-10.46-3.23-10.42-3.11-10.6-14-.27-16.32-.57-32.65-1.09-49-.12-3.89,1.11-5.91,5-6.46,3.5-.5,5.8-.4,7.82,3.7,5.69,11.6,11.21,23.52,18.71,33.93,11.62,16.11,28.39,22.27,48,18.26,13-2.66,21.53-11.11,24.07-24.38,2.39-12.45-.48-23.82-12-30.4-11.77-6.74-24.32-12.19-36.75-17.73-11.71-5.23-23.65-9.88-33.11-19-24-23.17-23.79-63.19.44-88.69,13.49-14.2,30.47-21.13,49.46-23.54,24.15-3.06,47.78.16,71,7,8.75,2.58,8.64,2.75,8.81,11.71.29,14.66.45,29.32,1.12,44,.22,4.72-2.55,5.53-5.78,6.47-3.64,1.07-5.33-.76-6.77-4-4.08-9.08-7.78-18.45-13-26.9-8.94-14.62-22.11-22.72-39.84-22.08-12.34.44-23.34,10.41-25.79,22.54-2.91,14.43,2,25.49,14.08,32.91,9.88,6.07,20.58,10.81,30.87,16.23,12,6.33,24.58,11.92,35.91,19.35,12.24,8,18.84,20.34,20.4,35.1A16.22,16.22,0,0,0,1200,233Z"/><path class="cls-1" d="M518.91,87.42v44.07c1.76-2.89,3.05-4.89,4.22-6.94,8.18-14.33,18.67-26.3,33.9-33.5,13.64-6.45,27.58-6.47,41.76-2.07,4.51,1.4,6,3.84,4.18,8.61C596.6,114,590.44,130.51,584.35,147c-1.3,3.54-2.94,3.82-6.35,2.56-8.21-3-16.48-6.16-25-8-9.91-2.18-19.42.63-28.42,5.07a11.14,11.14,0,0,0-6.67,10.78c.15,30.14.21,60.28.65,90.42a222.93,222.93,0,0,0,2.22,27.3c1.64,11.84,6.35,16.43,18,18.59,5,.93,10.16,1.38,15.6,2.1v11.58c-1.61.14-3,.38-4.49.38q-58.72,0-117.44-.1c-2.36,0-6,1.68-6.3-3.23-.52-7.36-.16-8.28,5.13-9.48a70.79,70.79,0,0,0,9.64-2.42c9.57-3.67,12.79-11.85,13.26-21.05,1-19.28,1.86-38.58,2-57.88.15-22.47-.51-45-1-67.42a63.15,63.15,0,0,0-1.35-11.37c-2.57-12.76-6.91-16.58-20.69-19.18-2.89-.54-7,.4-7.14-4.89-.1-4,.88-5.9,5.18-6.74,27.53-5.36,55-11.05,82.51-16.55A26.32,26.32,0,0,1,518.91,87.42Z"/></g></g></svg>