<svg xmlns="http://www.w3.org/2000/svg" viewBox="0 0 174.78 65.02"><defs><style>.cls-1{fill:#e5e5e5;}</style></defs><g id="Layer_2" data-name="Layer 2"><g id="Layer_1-2" data-name="Layer 1"><path class="cls-1" d="M71.78,14.4c1-.7,1.58-1.15,2.2-1.57,3.13-2.14,6.42-1.88,9.59-.31a7.64,7.64,0,0,1,3.8,4.94,17.22,17.22,0,0,1,.75,5.06c-.06,4.79,0,9.59,0,14.38,0,.24,0,.47,0,.71,0,1-.07,1-1,1s-1.78,0-2.67,0c-1.42,0-2.84,0-4.26,0-1.27,0-1.3,0-1.3-1.29,0-3.49,0-7,0-10.47a25.81,25.81,0,0,0-.31-4.22,3.12,3.12,0,0,0-3-2.79,3.49,3.49,0,0,0-3.39,2.61,12.64,12.64,0,0,0-.36,2.8c0,3.85,0,7.7,0,11.54a5.1,5.1,0,0,1,0,1.24.9.9,0,0,1-.57.54,5.59,5.59,0,0,1-1.23,0c-2.08,0-4.15,0-6.22,0-1.14,0-1.14,0-1.18-1.23,0-.24,0-.48,0-.71V2.28c0-2.36-.08-2.28,2.2-2.28,2,0,4,0,6,0,.93,0,1,.09,1,1.05,0,3.67,0,7.34,0,11Z"/><path class="cls-1" d="M50,36.61a24.73,24.73,0,0,1-2.6,1.69,11.11,11.11,0,0,1-7.58.62A11.66,11.66,0,0,1,34.69,36a12.66,12.66,0,0,1-3.84-6.24A15.24,15.24,0,0,1,33.3,16.17a11.61,11.61,0,0,1,8.55-4.76,10.18,10.18,0,0,1,7.32,2.07c.22.17.43.37.65.56.13-.15.25-.23.26-.31.18-1.69.18-1.7,1.84-1.7h5.67c1.78,0,1.72,0,1.71,1.78s0,3.79,0,5.68V36.35c0,.41,0,.83,0,1.24-.07.86-.21,1-1.08,1.07-2.42,0-4.85,0-7.27,0-.49,0-.78-.19-.8-.72S50.08,37.15,50,36.61Zm-5.11-5.72a5.51,5.51,0,0,0,5.51-5.51,5.67,5.67,0,0,0-5.68-5.59,5.6,5.6,0,0,0-5.61,5.64A5.52,5.52,0,0,0,44.93,30.89Z"/><path class="cls-1" d="M16.05,27.56c.59-1.48,1.06-2.62,1.51-3.76,1.37-3.52,2.76-7,4.11-10.57A1.53,1.53,0,0,1,23.33,12c2.54.06,5.08,0,7.63,0a7.4,7.4,0,0,1,1,.14c-.41,1-.76,2-1.14,2.86-1.85,4.48-3.69,9-5.56,13.42-1.1,2.61-2.26,5.19-3.35,7.8-1.38,3.32-2.72,6.66-4.09,10a9.31,9.31,0,0,0-.4,1c-.29,1.11-1,1.41-2.11,1.38-2.31-.07-4.62,0-6.92,0-.35,0-.7-.05-1.11-.08a3.9,3.9,0,0,1,.53-1.89c.86-2,1.72-4,2.61-6a3.5,3.5,0,0,0,.07-3.17C8.18,32.33,6.06,27.14,3.88,22Q2,17.56.17,13.15c-.35-.83-.19-1.1.7-1.11,2.66,0,5.33,0,8,0a1.06,1.06,0,0,1,1.17.81Q12,18,14,23.06A19.75,19.75,0,0,0,16.05,27.56Z"/><path class="cls-1" d="M134.75,11.31c5,.24,9.22,1.95,12,6.29A13.85,13.85,0,0,1,149,26.33a13.41,13.41,0,0,1-11.82,12.78,15,15,0,0,1-6.47-.39,13,13,0,0,1-8.91-7.65c-2-4.47-1.47-8.74.68-12.93A12.21,12.21,0,0,1,126.27,14,14.85,14.85,0,0,1,134.75,11.31Zm.15,8.55a5.49,5.49,0,1,0,5.4,5.46A5.52,5.52,0,0,0,134.9,19.86Z"/><path class="cls-1" d="M90.26,23.75a12.83,12.83,0,0,1,3.85-8.18,14,14,0,0,1,8.1-4,15,15,0,0,1,9.56,1.67,12.71,12.71,0,0,1,6.61,9.14A14.32,14.32,0,0,1,115.89,34,12,12,0,0,1,111,37.9a14.74,14.74,0,0,1-10.52.89C94,37,90.3,31.75,90.26,23.75Zm19.58,1.59a5.37,5.37,0,1,0-10.73-.06c0,3.42,2,5.46,5.53,5.56A5.22,5.22,0,0,0,109.84,25.34Z"/><path class="cls-1" d="M154,24c1.4-3.44,2.73-6.78,4.1-10.1,1.66-4,3.35-8.06,5-12.08a3.85,3.85,0,0,1,.52-1.12,1.94,1.94,0,0,1,1.14-.68c3.24,0,6.49,0,9.74.06,0,0,.09.06.23.17-.72,1.82-1.43,3.68-2.19,5.52-2.37,5.73-4.77,11.45-7.11,17.19a1.52,1.52,0,0,1-1.66,1.16c-2.95,0-5.91,0-8.87,0C154.67,24.13,154.39,24.07,154,24Z"/><path class="cls-1" d="M108.61,52.4c.32-1.59.32-1.61,2-1.6,2.69,0,2.31-.34,2.33,2.38,0,3.38,0,6.75,0,10.13,0,1.27,0,1.27-1.28,1.3-.3,0-.59,0-.89,0-1.88,0-1.88,0-2.12-1.69A23,23,0,0,1,106,64.64a4.13,4.13,0,0,1-4.22-.5,6.72,6.72,0,0,1-3-4.64,8.51,8.51,0,0,1,1-6.12,6,6,0,0,1,2.54-2.4,4.51,4.51,0,0,1,5.28.71l.8.68S108.55,52.39,108.61,52.4ZM103,57.86h0v.7a2.57,2.57,0,0,0,1.62,2.34,2.48,2.48,0,0,0,2.79-.46,3.55,3.55,0,0,0,1.22-3.65,3.18,3.18,0,0,0-3-2.48,2.91,2.91,0,0,0-2.62,3C103,57.51,103,57.68,103,57.86Z"/><path class="cls-1" d="M87.21,52c1-.43,1.89-.93,2.88-1.28a4,4,0,0,1,5,2.23,7.24,7.24,0,0,1,.75,2.88c.11,2.61.06,5.22,0,7.82,0,1,0,1-1,1-.77,0-1.54,0-2.31,0-.6,0-.85-.25-.85-.85,0-1.89,0-3.79,0-5.68a9.59,9.59,0,0,0,0-1.78,3.7,3.7,0,0,0-.64-1.6,2,2,0,0,0-3.1,0,3.56,3.56,0,0,0-.93,2.6c0,2,0,4,0,6,0,1.25,0,1.29-1.29,1.27-3.42,0-2.83.5-2.86-2.73s0-6.51,0-9.77c0-1.27,0-1.27,1.28-1.3h1.43C86.8,50.82,86.8,50.82,87.21,52Z"/><path class="cls-1" d="M120.94,52c1-.46,1.9-.93,2.83-1.28a4,4,0,0,1,5.08,2.11,7,7,0,0,1,.78,2.88c.11,2.66,0,5.33.06,8,0,.69-.26.95-.94.93-4-.09-3.16.63-3.25-3.06,0-1.54,0-3.08,0-4.62a5.08,5.08,0,0,0-.18-1.4A2.15,2.15,0,0,0,123.54,54a2,2,0,0,0-2,.89,3.79,3.79,0,0,0-.76,2.5q0,3,0,6c0,1.16,0,1.17-1.19,1.2-.77,0-1.54,0-2.31,0a.58.58,0,0,1-.64-.67c0-.29,0-.59,0-.88V52.37c0-.29,0-.59,0-.88a.58.58,0,0,1,.64-.67c.77,0,1.54,0,2.31,0C120.58,50.82,120.58,50.83,120.94,52Z"/><path class="cls-1" d="M158.49,61.28c-2,4.33-9,4.85-11.79,1.34a8.16,8.16,0,0,1-.47-9,6.87,6.87,0,0,1,7.88-2.84,7,7,0,0,1,4.77,6.58c0,1.12,0,1.18-1.21,1.19-2.42,0-4.85,0-7.28,0-1.14,0-1.36.37-.94,1.4a2.81,2.81,0,0,0,4.25,1.35,4.8,4.8,0,0,0,.92-.83.77.77,0,0,1,.94-.2C156.5,60.63,157.45,60.93,158.49,61.28ZM152,55.73v0c.59,0,1.19,0,1.77,0,.84,0,1-.35.61-1.15a2.37,2.37,0,0,0-2.45-1.37,2.84,2.84,0,0,0-2.58,1.84c0,.17.22.61.36.62C150.47,55.76,151.24,55.73,152,55.73Z"/><path class="cls-1" d="M156.43,39.05c-4.08-.21-5.8-2.69-6-5.91s3.09-6.66,6.2-6.45c3.6.25,6,2.58,6.11,6.13A6.15,6.15,0,0,1,156.43,39.05Z"/><path class="cls-1" d="M72.08,47.38l-.58-.23c-1.65-.63-2.82.08-3,1.81,0,.12,0,.24,0,.35,0,1.44,0,1.47,1.47,1.49,2.33,0,2.06-.25,2.08,2.1,0,.29,0,.59,0,.88,0,.58-.19.91-.81.87-.18,0-.36,0-.54,0-2.42,0-2.19-.25-2.2,2.17,0,2.25,0,4.5,0,6.75,0,1,0,1-1,1-.77,0-1.54,0-2.31,0-.61,0-.84-.28-.83-.87,0-1.42,0-2.84,0-4.26,0-1.13,0-2.25,0-3.38,0-.62.13-1.22-.76-1.56-.62-.23-.52-3.37.11-3.67a1.1,1.1,0,0,0,.66-1.09c.08-1,.18-2,.31-3,.45-3.44,4.46-4.53,6.88-3.32a1.14,1.14,0,0,1,.49.84C72.12,45.3,72.08,46.3,72.08,47.38Z"/><path class="cls-1" d="M143.25,60.43c0,.75,0,1.39,0,2,0,1.59-.15,1.65-1.71,2.17-4.73,1.58-9.92-3.09-8.76-8.33a8.38,8.38,0,0,1,1.44-3.39,6.91,6.91,0,0,1,8.67-1.59,1.79,1.79,0,0,1,.59,1,2.57,2.57,0,0,1,0,.88c0,2,0,1.92-1.88,1.41a5.24,5.24,0,0,0-2.25-.19c-1.69.31-2.49,1.89-2.22,4.07a2.78,2.78,0,0,0,3,2.61A23.44,23.44,0,0,0,143.25,60.43Z"/><path class="cls-1" d="M74.63,57.74c0-2,0-3.9,0-5.85,0-1,0-1.06,1.13-1.08.7,0,1.41,0,2.12,0a.62.62,0,0,1,.67.66c0,.24,0,.47,0,.71q0,5.58,0,11.16c0,1.23,0,1.27-1.32,1.26-3.09,0-2.56.44-2.61-2.61C74.61,60.57,74.63,59.16,74.63,57.74Z"/><path class="cls-1" d="M76.62,48.25a2.46,2.46,0,0,1-.12-4.91,2.46,2.46,0,1,1,.12,4.91Z"/></g></g></svg>