<?xml version="1.0" encoding="utf-8"?>
<!-- Generator: Adobe Illustrator 23.1.0, SVG Export Plug-In . SVG Version: 6.00 Build 0)  -->
<svg version="1.1" id="Ebene_1" xmlns="http://www.w3.org/2000/svg" xmlns:xlink="http://www.w3.org/1999/xlink" x="0px" y="0px"
	 width="690px" height="309.7px" viewBox="0 0 690 309.7" style="enable-background:new 0 0 690 309.7;" xml:space="preserve">
<style type="text/css">
	.st0{fill-rule:evenodd;clip-rule:evenodd;fill:#FFFFFF;}
	.st1{fill:none;stroke:#FFFFFF;stroke-width:1.6782;stroke-miterlimit:3.8636;}
</style>
<path class="st0" d="M649.5,108.4c-3.8,0-4.7-9.9-3.6-16.8c3.6-23.5,3.7-61.5,3.7-61.5s0.2,37.3,3.8,61.5
	C654.4,98.5,653.3,108.4,649.5,108.4z"/>
<path class="st0" d="M649.6,134.2c11.8-0.4,18.2-76.6,18.2-76.6s-9.1,65.3-18.3,65c-9.1,0.3-18.3-65-18.3-65
	S637.9,133.8,649.6,134.2z"/>
<path class="st0" d="M649.7,145.8c-12.4,0-30.4-74-30.4-74s16,85.6,30.3,85.2C664,157.4,679,76.5,679,76.5S662.1,145.8,649.7,145.8z
	"/>
<path class="st0" d="M649.8,181.5c19.1,0,36.9-80.5,36.9-80.5s-22.1,67.9-36.9,67.9c-12.8,0-32.3-55.1-37.4-69.7l-0.2,3.2
	C616.4,119.6,633.3,181.5,649.8,181.5z"/>
<path class="st0" d="M587.7,95.2c-4.6,0-5.7-12-4.4-20.5c4.4-28.6,4.5-74.8,4.5-74.8s0.3,45.4,4.6,74.8
	C593.6,83.2,592.3,95.2,587.7,95.2z"/>
<path class="st0" d="M587.9,126.6c14.3-0.5,22.2-93.1,22.2-93.1s-11.1,79.4-22.2,79c-11.1,0.4-22.2-79-22.2-79
	S573.5,126.1,587.9,126.6z"/>
<path class="st0" d="M587.9,140.7c-15.1,0-31.9-68.9-31.9-68.9s14.5,83,31.9,82.5c17.4,0.5,31.4-82.5,31.4-82.5
	S603,140.7,587.9,140.7z"/>
<path class="st0" d="M587.9,248.4l0.4,0l1.5,0c0,0-0.2-14.1,2.8-35.5c0-0.2,0.1-0.5,0.1-0.7c19.3-7.2,36.2-58.2,42.7-80.5
	c-0.3-1.3-0.2-0.9-0.5-2c-8.2,19.8-29.9,68-47,67.9c-17.6,0-40.2-50.5-48-69.3c-0.4,0.4,0.9-1.4-0.5,1.2
	c6.1,20.9,23.8,75.2,43.8,82.6c0,0.2,0.1,0.5,0.1,0.7c3,21.4,2.8,35.5,2.8,35.5l1.5,0L587.9,248.4z"/>
<path class="st0" d="M588,184.2c16.5,0,32.2-49.3,39.9-77.9c-0.2-0.5-0.4-0.7-1-1.3c-9,24.2-26.2,63.9-38.9,63.9
	c-13,0-30.7-41.6-39.5-65.5c-0.4,0.3-0.4,0.3-0.9,1C555.1,132.6,571.1,184.2,588,184.2z"/>
<path class="st0" d="M525.7,108.4c-3.8,0-4.7-9.9-3.7-16.8c3.6-23.5,3.7-61.5,3.7-61.5s0.2,37.3,3.8,61.5
	C530.5,98.5,529.5,108.4,525.7,108.4z"/>
<path class="st0" d="M525.8,134.2c11.8-0.4,18.2-76.6,18.2-76.6s-9.1,65.3-18.3,65c-9.1,0.3-18.3-65-18.3-65S514,133.8,525.8,134.2z
	"/>
<path class="st0" d="M525.8,145.8c-12.4,0-29.4-69.4-29.4-69.4s15,80.9,29.4,80.5c14.3,0.4,30.1-85.2,30.1-85.2
	S538.2,145.8,525.8,145.8z"/>
<path class="st0" d="M525.9,181.5c16.3,0,32.6-60.4,37.1-78.5l-0.3-3.3c-5.3,15.4-24.3,69.1-36.9,69.1c-14.8,0-36.9-67.9-36.9-67.9
	S506.8,181.5,525.9,181.5z"/>
<path class="st0" d="M612.9,145.4c5.7,18.6,18.1,53.7,33,59.2c0,0.2,0.1,0.4,0.1,0.6c2.5,17.6,2.3,28,2.3,28l1.3,0h0.1h0.3l1.3,0
	c0,0-0.1-10.5,2.3-28c0-0.2,0.1-0.4,0.1-0.6c20.4-7.6,36.3-70.8,36.3-70.8s-22.5,59-40.3,58.9c-13,0-28.5-31-35.9-48L612.9,145.4z"
	/>
<path class="st0" d="M562.4,143.5c-7.2,16.6-23.2,49.2-36.5,49.2c-17.8,0.1-40.3-58.9-40.3-58.9s16,63.2,36.3,70.8
	c0,0.2,0.1,0.4,0.1,0.6c2.5,17.6,2.3,28,2.3,28l1.3,0h0.1h0.3l1.3,0c0,0-0.1-10.5,2.3-28c0-0.2,0.1-0.4,0.1-0.6
	c15.1-5.6,27.7-41.5,33.3-60L562.4,143.5z"/>
<line class="st1" x1="482.6" y1="295.8" x2="683.6" y2="295.8"/>
<path class="st0" d="M100.9,163.7l-25.3-62.9l-21.9,62.9H100.9z M166.7,231.9h-58.2v-5h3.7c3.4,0,6.1-1.3,8.1-3.8
	c2-2.5,2.4-5.2,1.2-7.9l-16.2-40.5H49.8l-11.5,33.1c-0.5,1.7-1,3-1,5c0,6.3,3.2,10.9,9.6,13.1c2.6,0.6,5,1,7.1,1v5H2.4v-5H3
	c7.6,0,11.4-1.7,16.7-6.2c4.5-3.8,6.8-8.7,8.3-12.7L72.6,78.7h15.7l51.6,129.4c2.9,6,4.7,9.1,9.7,12.9c5.4,4.1,8.6,5.7,16.3,5.9h0.8
	V231.9z"/>
<path class="st0" d="M294.2,200l-8.3,31.9H175.1v-5h0.9c6,0,9.9-1.6,13.5-5.9c3.7-4.3,4-8.3,4-12.2V97.5c0-3.8-1.3-6.6-4.2-9.5
	c-3.7-3.7-8.9-4.1-12.8-4.1h-0.7v-5.2h108.1v26.9h-5.4c0-4.6-1.6-8.5-4.9-11.7c-3.3-3.2-7.3-4.8-12-4.8h-47.9v59.3h42.2
	c4.7,0,8.8-1.6,12-4.8c3.3-3.3,4.9-7.2,4.9-11.7h5.2v43.4h-5.2c0-4.6-1.7-8.5-5.2-11.7c-3.3-3.3-7.2-5-11.8-5h-42.2v45
	c0,4.5,1.3,8.4,4.8,12.1c3.9,4.2,8.2,5.8,13.6,5.8h29.2c6.2,0,12-2.3,17.4-6.9c5.6-4.8,9.1-10.1,10.6-16L294.2,200z"/>
<path class="st0" d="M468.4,231.9h-75.9v-5h4.8c5.4,0,8.1-1.5,9.9-4.5c1.8-3.2,1.5-6.1-1-8.8l-52.3-57.7v52.9c0,4,0.9,8.4,4.1,12.2
	c3.8,4.3,6.8,5.9,13.5,5.9h0.8v5h-57v-5h0.8c6.3,0,9.6-1.5,13.4-5.8c3.4-3.8,4.2-8.4,4.2-12.3V97.5c0-3.7-1.3-6.6-4.2-9.5
	c-3.6-3.7-8.8-4.1-12.6-4.1h-0.9v-5.2h55.5v5.2h-1c-3.8,0-8.9,0.4-12.5,4.1c-2.9,2.9-4.2,5.7-4.2,9.5V149l54.3-51
	c3.3-3.2,4.2-6.4,2.7-9.8c-1.3-2.9-4.4-4.3-9.3-4.3h-5.4v-5.2h65.3v5.2h-6.9c-11.8,0-23.7,5.9-35.9,17.6l-0.2,0.2l-45.9,43.6
	l57.5,61.7c12.3,13.2,23.8,19.8,34.6,19.8h3.7V231.9z"/>
<path class="st0" d="M229.7,301.3c0-1.9-0.8-3.4-2.5-4.5c-1.5-1-3.2-1.5-5.2-1.5h-4v8.4c0,0.9,0.3,1.7,1,2.4c0.7,0.7,1.6,1,2.7,1
	c2.1,0,3.9-0.4,5.4-1.4C228.8,304.6,229.7,303.1,229.7,301.3z M227,287.8c0-1.6-0.7-3-2-4.1c-1.3-1.1-2.7-1.6-4.4-1.6H218v11.2h2.6
	c1.6,0,3-0.5,4.3-1.5C226.4,290.6,227.1,289.3,227,287.8z M233.8,301.3c0,2.3-1,4.2-2.9,5.7c-1.8,1.4-3.9,2.1-6.2,2.1h-14.2v-0.9
	h1.3c0.7,0,1.3-0.4,1.8-1.2c0.5-0.8,0.8-1.5,0.8-2.2v-21c0-0.7-0.2-1.3-0.7-1.8c-0.4-0.5-1-0.8-1.7-0.8h-1.2v-0.9
	c2.5,0,6.4,0,11.6,0c2.2,0,4.1,0.6,5.8,1.9c1.9,1.4,2.8,3.1,3,5.2c0.1,1.4-0.3,2.7-1.2,3.9c-0.8,1.1-1.9,1.9-3.2,2.5
	c1.9,0.4,3.5,1.3,4.9,2.6C233.1,297.7,233.8,299.4,233.8,301.3z"/>
<path class="st0" d="M258.6,296.2l-4.6-11.9l-4,11.9H258.6z M270.6,309.1H260v-0.9h0.7c0.6,0,1.1-0.2,1.5-0.7c0.4-0.5,0.4-1,0.2-1.5
	l-3-7.6h-10.2l-2.1,6.2c-0.1,0.3-0.2,0.6-0.2,0.9c0,1.2,0.6,2.1,1.8,2.5c0.5,0.1,0.9,0.2,1.3,0.2v0.9h-9.4v-0.9h0.7
	c0.8,0,1.6-0.4,2.4-1.3c0.8-0.8,1.3-1.5,1.6-2.3l8.2-24.4h2.9l9.4,24.4c0.3,0.8,0.9,1.5,1.8,2.3c0.9,0.8,1.7,1.2,2.5,1.2h0.7V309.1z
	"/>
<path class="st0" d="M310.3,281.2h-1.4c-0.7,0-1.4,0.4-1.9,1.2c-0.6,0.7-0.9,1.5-0.9,2.2v24.5h-1.4l-21.4-23.4v19.1
	c0,0.7,0.3,1.5,0.8,2.2c0.6,0.8,1.2,1.2,1.9,1.2h1.7v0.9h-10v-0.9h1.1c0.7,0,1.3-0.4,1.9-1.2c0.5-0.7,0.8-1.5,0.8-2.2v-21
	c-1.7-1.7-3.7-2.5-5.8-2.5v-1h8.3l20.4,22.2v-17.8c0-0.7-0.3-1.5-0.9-2.2c-0.5-0.7-1.2-1.1-1.9-1.1h-1.6v-1h10.3V281.2z"/>
<path class="st0" d="M346.6,309.1h-13.9v-0.9h1.1c0.7,0,1.3-0.3,1.6-0.9c0.3-0.6,0.3-1.2-0.2-1.7l-9.6-10.9v10
	c0,0.7,0.3,1.5,0.8,2.2c0.6,0.8,1.2,1.2,1.9,1.2h0.7v0.9h-10.4v-0.9h0.7c0.7,0,1.4-0.4,1.9-1.2c0.5-0.7,0.8-1.5,0.8-2.2v-21
	c0-0.7-0.3-1.3-0.8-1.8c-0.5-0.5-1.1-0.8-1.8-0.8h-0.7v-1h10.2v1h-0.7c-0.7,0-1.3,0.3-1.8,0.8c-0.5,0.5-0.8,1.1-0.8,1.8v9.7l9.9-9.6
	c0.6-0.6,0.8-1.2,0.5-1.8c-0.2-0.5-0.8-0.8-1.7-0.8h-1v-1h12v1h-1.3c-2.2,0-4.3,1.1-6.6,3.3l0,0l-8.4,8.2l10.5,11.6
	c2.3,2.5,4.4,3.7,6.3,3.7h0.7V309.1z"/>
<path class="st0" d="M380.8,309.1h-10.3v-0.9h0.7c0.7,0,1.3-0.4,1.9-1.2c0.5-0.7,0.8-1.5,0.8-2.2v-20.8c0-1.1-0.5-1.7-1.6-1.7
	c-0.1,0-0.3,0-0.5,0.1l-1,0.3l-0.2-0.9l6.8-1.8v24.8c0,0.7,0.3,1.5,0.8,2.2c0.6,0.8,1.2,1.2,1.9,1.2h0.7V309.1z"/>
<path class="st0" d="M403.7,300.5c-0.7-2.1-2.5-3.8-5.5-5.4c-2.9,1.2-4.3,3.2-4.3,5.9c0,0.6,0.1,1.3,0.3,1.9
	c0.4,1.2,1.1,2.4,2.1,3.4c1.1,1.2,2.3,1.8,3.6,1.8c0.3,0,0.7,0,1-0.1c2.2-0.6,3.2-2.4,3.2-5.3C404,302,403.9,301.2,403.7,300.5z
	 M403.4,286.1c-0.3-1.1-0.8-2.2-1.7-3.2c-1-1.2-2-1.7-3.1-1.7c-0.3,0-0.6,0-0.8,0.1c-1.8,0.5-2.7,2.2-2.7,5.1c0,1.6,0.4,3,1.2,4
	c0.7,1,1.9,1.8,3.5,2.7c0.2-0.1,0.3-0.1,0.5-0.2c2.3-1.2,3.4-3,3.4-5.4C403.5,287.1,403.5,286.6,403.4,286.1z M408,301.7
	c0,2.3-0.9,4.2-2.7,5.7c-1.8,1.5-3.8,2.2-6.2,2.2c-2.3,0-4.4-0.7-6.1-2.2c-1.8-1.5-2.7-3.4-2.7-5.7c0-1.7,0.6-3.2,1.9-4.5
	c0.9-0.9,2.4-1.9,4.3-2.9c-3.4-1.7-5-4.1-5-7.1c0-2.1,0.8-3.8,2.2-5.3c1.5-1.5,3.3-2.2,5.4-2.2c2.1,0,3.9,0.7,5.4,2.2
	c1.5,1.4,2.3,3.2,2.3,5.3c0,2.9-1.7,5.2-5,6.8C405.9,296,408,298.6,408,301.7z"/>
<path class="st0" d="M453.8,305c0.3-0.8,0.5-1.7,0.5-2.7c0-2.7-1-4.8-2.9-6.4c-0.9-0.7-1.8-1-2.8-1c-1.7,0-2.9,0.9-3.7,2.8
	c-0.3,0.8-0.5,1.7-0.5,2.7c0,2.7,1,4.8,2.9,6.4c0.9,0.7,1.8,1,2.8,1C451.9,307.8,453.1,306.9,453.8,305z M459.1,280.9
	c-0.3,0-0.9,0.1-1.6,0.1c-3,0.4-5.7,2-7.9,4.6c-2,2.4-3.4,5.2-4.2,8.4c1.3-0.6,2.6-0.9,4.1-0.9c2.5,0,4.5,0.8,6.3,2.4
	c1.7,1.6,2.6,3.6,2.6,5.9c0,2.3-0.9,4.2-2.6,5.8c-1.7,1.6-3.8,2.4-6.3,2.4c-2.5,0-4.6-1-6.3-2.9c-1.5-1.8-2.3-4.1-2.4-6.7
	c-0.2-5.4,1.4-10,4.6-13.7c3.2-3.7,7.8-6,13.7-6.7V280.9z"/>
<path class="st0" d="M433.4,304.5l-0.8-0.1c-0.2,0.5-0.3,0.9-0.6,1.3c-0.3,0.3-0.7,0.5-1.2,0.5h-10.7l7.3-8.4
	c0.6-0.7,1.2-1.5,1.8-2.2c0.6-0.8,1.1-1.7,1.6-2.5c0.4-0.9,0.8-1.8,1.1-2.7c0.3-0.9,0.4-1.9,0.4-2.9c0-1.1-0.2-2.2-0.6-3.1
	c-0.4-0.9-0.9-1.7-1.6-2.3c-0.7-0.6-1.4-1.1-2.3-1.5c-0.9-0.4-2.1-0.6-3-0.6c-0.9-0.1-1.9,0.1-2.8,0.4c-0.9,0.3-1.8,0.7-2.5,1.4
	c-0.6,0.4-1.1,1.1-1.5,1.8c-0.4,0.8-0.8,1.5-1.1,2.1l0.2,0.3c0.7-0.6,1.2-1.1,1.6-1.5c0.5-0.4,0.9-0.8,1.3-1
	c0.4-0.3,0.9-0.4,1.5-0.6c0.9-0.2,1.4-0.3,2.3-0.1c1.4,0.2,2.4,0.5,3.4,1.6c1,1,1.5,2.4,1.5,4c0,0.8-0.1,1.6-0.4,2.4
	c-0.2,0.8-0.6,1.7-1,2.5c-0.4,0.8-0.8,1.6-1.3,2.4c-0.5,0.8-1,1.4-1.4,1.9l-8.6,10v1.6h16.4L433.4,304.5z"/>
<line class="st1" x1="0" y1="295.8" x2="189.3" y2="295.8"/>
<g>
</g>
<g>
</g>
<g>
</g>
<g>
</g>
<g>
</g>
<g>
</g>
<g>
</g>
<g>
</g>
<g>
</g>
<g>
</g>
<g>
</g>
<g>
</g>
</svg>
