<?xml version="1.0" encoding="utf-8"?>
<!-- Generator: Adobe Illustrator 23.1.0, SVG Export Plug-In . SVG Version: 6.00 Build 0)  -->
<svg version="1.1" id="Ebene_1" xmlns="http://www.w3.org/2000/svg" xmlns:xlink="http://www.w3.org/1999/xlink" x="0px" y="0px"
	 width="300.8px" height="60.5px" viewBox="0 0 300.8 60.5" style="enable-background:new 0 0 300.8 60.5;" xml:space="preserve">
<style type="text/css">
	.st0{fill:#FFFFFF;}
	.st1{fill-rule:evenodd;clip-rule:evenodd;fill:#FFFFFF;}
	.st2{fill:none;stroke:#FFFFFF;stroke-width:1.6018;stroke-miterlimit:3.8637;}
	.st3{fill:#FFFFFF;stroke:#FFFFFF;stroke-width:1.079;stroke-miterlimit:3.8637;}
</style>
<polygon class="st0" points="79.6,60 84.1,60 84.1,48.3 84.2,48.3 92.5,60 98.4,60 88.7,46.6 98.1,34.6 92.5,34.6 84.1,45.5 
	84.1,34.6 79.6,34.6 "/>
<path class="st1" d="M102.7,46.4c1.5-1.2,3.3-2.1,5.2-2.1c2.6,0,3.8,1,3.8,4h-2.4c-1.8,0-4,0.1-5.6,1.1c-1.7,0.9-2.9,2.6-2.9,5.3
	c0,3.5,2.9,5.6,5.8,5.6c1.9,0,4.1-1.2,5.2-3.2h0.1c0,0.6,0,1.8,0.2,2.8h3.9c-0.1-1.5-0.1-2.8-0.2-4.1c0-1.3-0.1-2.8-0.1-4.6v-2.4
	c0-5.5-2.1-8-7.3-8c-1.8,0-4.1,0.5-5.8,1.5V46.4L102.7,46.4z M104.8,54.6c0-2.9,2.9-3.2,4.9-3.2h1.9c0,1.5-0.2,2.8-0.9,3.9
	c-0.7,1-1.7,1.7-3,1.7C106.1,56.8,104.8,56.1,104.8,54.6L104.8,54.6z"/>
<path class="st0" d="M120.6,60h4.4v-9.2c0-2.4,0.7-6.2,3.9-6.2c2.8,0,2.8,3,2.8,5.3V60h4.4V48.1c0-4.3-1.7-7.4-5.7-7.4
	c-2.3,0-4.1,0.9-5.5,2.9h-0.1V41h-4.1V60H120.6z"/>
<path class="st0" d="M142.8,54.3c0,3.6,1.9,6.1,5.3,6.1c1.3,0,2.3-0.1,3.3-0.5l-0.1-3.9c-0.5,0.4-1.2,0.5-1.9,0.5
	c-1.7,0-2.1-1.5-2.1-3v-8.7h3.9v-3.5h-3.9v-5.2l-4.4,1.6v3.8h-3.3V45h3.3v9.5h-0.1V54.3z"/>
<path class="st1" d="M153.7,50.7c0,5.3,3.3,9.7,8.8,9.7c5.6,0,8.8-4.3,8.8-9.7c0-6.2-3.8-9.9-8.8-9.9
	C157.5,40.7,153.7,44.5,153.7,50.7L153.7,50.7z M158.2,50.2c0-2.8,1.3-5.6,4.3-5.6s4.3,2.7,4.3,5.6c0,3.2-0.9,6.4-4.3,6.4
	C159,56.6,158.2,53.2,158.2,50.2L158.2,50.2z"/>
<path class="st0" d="M175.4,60h4.4v-9.2c0-2.4,0.7-6.2,3.9-6.2c2.8,0,2.8,3,2.8,5.3V60h4.4V48.1c0-4.3-1.7-7.4-5.7-7.4
	c-2.3,0-4.1,0.9-5.5,2.9h-0.1V41h-4.1L175.4,60L175.4,60z"/>
<path class="st1" d="M197,46.4c1.5-1.2,3.3-2.1,5.2-2.1c2.6,0,3.8,1,3.8,4h-2.4c-1.8,0-4,0.1-5.6,1.1c-1.7,0.9-2.9,2.6-2.9,5.3
	c0,3.5,2.9,5.6,5.8,5.6c1.9,0,4.1-1.2,5.2-3.2h0.1c0,0.6,0,1.8,0.2,2.8h3.9c-0.1-1.5-0.1-2.8-0.2-4.1c0-1.3-0.1-2.8-0.1-4.6v-2.4
	c0-5.5-2.1-8-7.3-8c-1.8,0-4.1,0.5-5.8,1.5V46.4L197,46.4z M199.2,54.6c0-2.9,2.9-3.2,4.9-3.2h1.9c0,1.5-0.2,2.8-1,3.9
	c-0.7,1-1.7,1.7-3,1.7C200.4,56.8,199.2,56.1,199.2,54.6L199.2,54.6z"/>
<polygon class="st0" points="215.1,60 219.5,60 219.5,32.7 215.1,32.7 "/>
<path class="st1" d="M229.1,50.6c0-2.6,1.1-6,3.9-6c2.8,0,3.6,3.4,3.6,6s-0.9,6.1-3.6,6.1C230.1,56.6,229.1,53.2,229.1,50.6
	L229.1,50.6z M224.6,60h4.3v-2.3h0.1c1.2,1.9,3.3,2.7,5.1,2.7c5.1,0,7.1-4.7,7.1-9.9s-1.9-9.8-7.1-9.8c-2.3,0-3.8,1.1-5,2.8h-0.1
	V32.4h-4.4L224.6,60L224.6,60z"/>
<path class="st1" d="M246.3,46.4c1.5-1.2,3.3-2.1,5.2-2.1c2.6,0,3.8,1,3.8,4h-2.4c-1.8,0-4,0.1-5.6,1.1c-1.7,0.9-2.9,2.6-2.9,5.3
	c0,3.5,2.9,5.6,5.8,5.6c1.9,0,4.1-1.2,5.2-3.2h0.1c0,0.6,0,1.8,0.2,2.8h3.9c-0.1-1.5-0.1-2.8-0.2-4.1c0-1.3-0.1-2.8-0.1-4.6v-2.4
	c0-5.5-2.1-8-7.3-8c-1.8,0-4.1,0.5-5.8,1.5V46.4L246.3,46.4z M248.5,54.6c0-2.9,2.9-3.2,4.9-3.2h1.9c0,1.5-0.2,2.8-1,3.9
	c-0.7,1-1.7,1.7-3,1.7C249.7,56.8,248.5,56.1,248.5,54.6L248.5,54.6z"/>
<path class="st0" d="M264.3,60h4.4v-9.2c0-2.4,0.7-6.2,3.9-6.2c2.8,0,2.8,3,2.8,5.3V60h4.4V48.1c0-4.3-1.7-7.4-5.7-7.4
	c-2.3,0-4.1,0.9-5.5,2.9h-0.1V41h-4.1V60H264.3z"/>
<polygon class="st0" points="285.1,60 289.5,60 289.5,50.9 289.5,50.9 295.2,60 300.8,60 293.6,49.6 299.9,41.2 294.8,41.2 
	289.5,48.7 289.5,48.7 289.5,32.7 285.1,32.7 "/>
<path class="st1" d="M91.6,13.9h-5.3L89,5.4l0,0L91.6,13.9L91.6,13.9z M79.7,21.9h3.8l1.6-4.6h7.5l1.6,4.6h4L91,1.5h-4.1L79.7,21.9
	L79.7,21.9z"/>
<path class="st1" d="M101.8,11c1.2-1,2.7-1.6,4.1-1.6c2.1,0,3,0.9,3,3.2H107c-1.5,0-3.2,0.1-4.5,0.9c-1.3,0.7-2.3,2.1-2.3,4.3
	c0,2.8,2.3,4.4,4.7,4.4c1.6,0,3.3-1,4.1-2.6l0,0c0,0.5,0,1.5,0.1,2.2h3.2c-0.1-1.2-0.1-2.2-0.1-3.3c0-1.1,0-2.2,0-3.8v-1.9
	c0-4.4-1.7-6.3-5.8-6.3c-1.5,0-3.3,0.5-4.6,1.1L101.8,11L101.8,11z M103.6,17.5c0-2.3,2.3-2.6,3.9-2.6h1.5c0,1.2-0.1,2.2-0.7,3
	c-0.6,0.9-1.3,1.3-2.4,1.3C104.6,19.3,103.6,18.8,103.6,17.5L103.6,17.5z"/>
<path class="st0" d="M116.6,21.9h3.5v-5.5c0-2.2,0-6.1,2.8-6.1c0.6,0,1.2,0.1,1.6,0.4v-4c-0.4-0.1-0.7-0.1-1.1-0.1
	c-2.1,0-3.5,2.3-3.6,3.8l0,0V6.9h-3v15H116.6z"/>
<path class="st1" d="M133.2,18.8c-1.9,0-2.9-2.4-2.9-4.5c0-2.3,0.7-4.7,3.2-4.7c2.1,0,2.9,2.1,2.9,4.6
	C136.3,16.6,135.4,18.8,133.2,18.8L133.2,18.8z M136.5,6.9V9l0,0c-1-1.7-2.3-2.4-4.1-2.4c-4,0-5.7,4.1-5.7,7.9c0,4,1.5,7.6,5.5,7.6
	c1.9,0,3.5-1.1,4.1-2.4l0,0c0,2.6-0.1,5.8-4,5.8c-1.1,0-2.8-0.6-3.9-1.3l-0.2,3.3c1.7,0.7,3.3,1,4.6,1c5.6,0,7.1-3.8,7.1-8V6.9
	H136.5L136.5,6.9z"/>
<path class="st1" d="M145,11c1.2-1,2.7-1.6,4.1-1.6c2.1,0,3,0.9,3,3.2h-1.9c-1.5,0-3.2,0.1-4.5,0.9c-1.3,0.7-2.3,2.1-2.3,4.3
	c0,2.8,2.3,4.4,4.7,4.4c1.6,0,3.3-1,4.1-2.6l0,0c0,0.5,0,1.5,0.1,2.2h3c-0.1-1.2-0.1-2.2-0.1-3.3c0-1.1,0-2.2,0-3.8v-1.9
	c0-4.4-1.7-6.3-5.8-6.3c-1.5,0-3.3,0.5-4.6,1.1L145,11L145,11z M146.8,17.5c0-2.3,2.3-2.6,3.9-2.6h1.5c0,1.2-0.1,2.2-0.7,3
	c-0.5,0.9-1.3,1.3-2.4,1.3C147.8,19.3,146.8,18.8,146.8,17.5L146.8,17.5z"/>
<path class="st0" d="M172,6.9h-3.5v7.4c0,1.9-0.6,5-3,5c-2.2,0-2.3-2.4-2.3-4.3V6.9h-3.5v9.5c0,3.4,1.3,5.8,4.5,5.8
	c1.8,0,3.3-1,4.4-2.4l0,0v2.1h3.3v-15H172z"/>
<path class="st1" d="M176.5,21.9h3.5v-15h-3.5V21.9L176.5,21.9z M176.5,4.1h3.5V0.5h-3.5V4.1L176.5,4.1z"/>
<path class="st0" d="M192.9,7.1c-1.1-0.2-2.2-0.6-3.8-0.6c-2.8,0-5.2,1.5-5.2,4.6c0,5.3,6.1,3.4,6.1,6.3c0,1.5-1.5,1.8-2.3,1.8
	c-1.2,0-2.3-0.4-3.4-1l-0.2,3.2c1.2,0.4,2.7,0.6,4,0.6c2.8,0,5.6-1.3,5.6-4.9c0-5.3-6.1-3.9-6.1-6.2c0-1.2,1.1-1.7,2.1-1.7
	c1.2,0,2.1,0.2,3.2,0.6L192.9,7.1L192.9,7.1z"/>
<path class="st0" d="M206.1,7c-1-0.4-1.9-0.5-3.4-0.5c-4.1,0-6.4,3.4-6.4,7.9c0,4.5,2.2,8,6.7,8c1.5,0,2.4-0.1,3.5-0.5l-0.1-3.2
	c-0.6,0.2-1.7,0.7-2.7,0.7c-2.4,0-3.6-2.1-3.6-4.9s1.3-4.7,3.5-4.7c1.1,0,1.7,0.2,2.3,0.6L206.1,7L206.1,7z"/>
<path class="st0" d="M209.4,21.9h3.5v-7.4c0-1.9,0.6-5,3-5c2.2,0,2.3,2.4,2.3,4.3v8h3.5v-9.5c0-3.4-1.3-5.8-4.5-5.8
	c-1.8,0-3.3,1-4.3,2.4l0,0V0h-3.5V21.9L209.4,21.9z"/>
<path class="st1" d="M228.7,12.9c0.1-1.9,1.1-3.5,3-3.5s2.7,1.6,2.8,3.5H228.7L228.7,12.9z M237,17.8c-1.3,0.9-2.8,1.5-4.5,1.5
	c-2.2,0-3.6-1.3-3.8-3.8h9.3c0-5.2-1.5-9.1-6.3-9.1c-4.1,0-6.2,3.5-6.2,8c0,4.9,2.6,7.9,7.1,7.9c1.8,0,3.3-0.4,4.6-1.2V17.8
	L237,17.8z"/>
<polygon class="st2" points="0.8,2.4 57.3,2.4 57.3,59 0.8,59 "/>
<polygon class="st3" points="52.6,6.7 26.1,6.7 11.3,30.7 26.1,54.8 52.6,54.8 37.8,30.7 "/>
</svg>
