<?xml version="1.0" encoding="utf-8"?>
<!-- Generator: Adobe Illustrator 23.1.0, SVG Export Plug-In . SVG Version: 6.00 Build 0)  -->
<svg version="1.1" xmlns="http://www.w3.org/2000/svg" xmlns:xlink="http://www.w3.org/1999/xlink" x="0px" y="0px" width="328.2px"
	 height="114px" viewBox="0 0 328.2 114" style="enable-background:new 0 0 328.2 114;" xml:space="preserve">
<style type="text/css">
	.st0{fill:#FFFFFF;}
</style>
<path class="st0" d="M14.2,97.3H6.5l3.9-9.1L14.2,97.3z M15.2,99.7l2.7,6.4h2.8L10.4,82.4L0,106.1h2.8l2.7-6.4H15.2z"/>
<path class="st0" d="M26,106.1h-2.4V81.4H26V106.1z"/>
<path class="st0" d="M37.7,93.8c3,0,4.7,2.3,4.7,5.1c0,2.8-1.6,5.3-4.7,5.3c-3,0-4.6-2.6-4.6-5.4C33.1,96.3,34.9,93.8,37.7,93.8z
	 M33.2,92h-2.4v22h2.4v-9.9h0.1c1.1,1.5,2.9,2.4,4.8,2.4c4.2,0,6.8-3.4,6.8-7.4c0-3.9-2.6-7.5-6.8-7.5c-2,0-3.7,0.8-4.9,2.4h-0.1V92
	z"/>
<path class="st0" d="M51.2,81.4v12.3l0.1,0.1c1-1.4,2.3-2.1,4-2.1c3.9,0,4.8,2.8,4.8,6.1v8.4h-2.4v-8c0-2.3-0.2-4.3-3-4.3
	c-3.3,0-3.5,3.1-3.5,5.6v6.7h-2.4V81.4H51.2z"/>
<path class="st0" d="M71,93.8c3,0,4.7,2.3,4.7,5.1c0,2.8-1.6,5.3-4.7,5.3c-3,0-4.6-2.6-4.6-5.4C66.4,96.3,68.2,93.8,71,93.8z
	 M78.1,92h-2.4v2h-0.1c-1.2-1.5-2.9-2.4-4.8-2.4c-4.2,0-6.8,3.5-6.8,7.5c0,3.9,2.6,7.4,6.8,7.4c2,0,3.6-0.8,4.9-2.3h0.1v2h2.4V92z"
	/>
<path class="st0" d="M95.6,81.4h0.9c3.7,0,7,0.4,7,5c0,4.3-3.5,4.9-7,4.9h-0.9V81.4z M95.6,94h0.8l8.3,12.1h3.8l-8.8-12.3
	c4.2-0.4,6.9-3.4,6.9-7.6c0-6.2-4.9-7.6-10.1-7.6h-4v27.5h3.1V94z"/>
<path class="st0" d="M130.3,89.8V78.6h3.1v27.5h-3.1V92.6h-14.1v13.5h-3.1V78.6h3.1v11.2H130.3z"/>
<path class="st0" d="M139.7,78.6h14.3v2.8h-11.2v8.2h10.9v2.8h-10.9v10.8h11.2v2.8h-14.3V78.6z"/>
<path class="st0" d="M163,106.1h-3.1V78.6h3.1V106.1z"/>
<path class="st0" d="M169.4,77.4l21.5,22.5V78.6h3.1v28.8l-21.5-22.4v21.2h-3.1V77.4z"/>
<path class="st0" d="M207.6,106.1h-3.1V81.4h-6.6v-2.8h16.4v2.8h-6.7V106.1z"/>
<path class="st0" d="M230.2,95.4h-9.3l4.7-11L230.2,95.4z M231.4,98.3l3.2,7.8h3.4l-12.4-28.8L213,106.1h3.4l3.3-7.8H231.4z"/>
<path class="st0" d="M244.8,103.3h7.6v2.8h-10.7V78.6h3.1V103.3z"/>
<path class="st0" d="M267.2,95.6h2.2c2.8,0,6.1,0.5,6.1,4c0,3.5-3,4.1-5.8,4.1h-2.5V95.6z M264.7,106.1h5.2c4.5,0,8.1-1.8,8.1-6.3
	c0-2.7-1.6-5.1-4.3-5.8c1.5-1,2.2-2.6,2.2-4.4c0-4.6-3.5-6.1-7.6-6.1h-3.7V106.1z M267.2,85.8h1c3.1,0,5.3,0.4,5.3,3.8
	c0,3.5-2.4,3.8-5.3,3.8h-1V85.8z"/>
<path class="st0" d="M288.1,93.8c3,0,4.7,2.3,4.7,5.1c0,2.8-1.6,5.3-4.7,5.3c-3,0-4.6-2.6-4.6-5.4C283.5,96.3,285.3,93.8,288.1,93.8
	z M295.1,92h-2.4v2h-0.1c-1.2-1.5-2.9-2.4-4.8-2.4c-4.2,0-6.8,3.5-6.8,7.5c0,3.9,2.6,7.4,6.8,7.4c2,0,3.6-0.8,4.9-2.3h0.1v2h2.4V92z
	"/>
<path class="st0" d="M302.5,93.7L302.5,93.7c1.1-1.4,2.3-2.1,4.1-2.1c3.9,0,4.8,2.8,4.8,6.1v8.4H309v-8c0-2.3-0.2-4.3-3-4.3
	c-3.3,0-3.5,3.1-3.5,5.6v6.7h-2.4V92h2.4V93.7z"/>
<path class="st0" d="M318.8,97.2l5.1-5.2h3.2l-6,6l7.2,8.1h-3.2l-5.7-6.4l-0.6,0.6v5.8h-2.4V81.4h2.4V97.2z"/>
<g>
	<polygon class="st0" points="129.6,63.9 163.7,0 174.3,19.2 148,68.6 9.3,68.6 11.7,63.9 	"/>
	<polygon class="st0" points="181,68.5 165.6,40.4 175.7,21.5 199,63.6 316.8,63.6 319.3,68.5 	"/>
</g>
</svg>
