<?xml version="1.0" encoding="utf-8"?>
<!-- Generator: Adobe Illustrator 21.1.0, SVG Export Plug-In . SVG Version: 6.00 Build 0)  -->
<svg version="1.1" id="Ebene_1" xmlns="http://www.w3.org/2000/svg" xmlns:xlink="http://www.w3.org/1999/xlink" x="0px" y="0px"
	 width="476px" height="54px" viewBox="0 0 476 54" style="enable-background:new 0 0 476 54;" xml:space="preserve">
<style type="text/css">
	.st0{fill:#FFFFFF;}
</style>
<g>
	<g>
		<polygon class="st0" points="341.1,1.4 321.6,52.5 308.4,52.5 288.8,1.4 303.7,1.4 315.7,35.4 327.9,1.4 		"/>
		<path class="st0" d="M375.4,18.6c-0.3-2.5-1.3-4.7-3.2-6.3c-1.9-1.8-4-2.6-6.4-2.6c-3.1,0-5.6,1.2-7.5,3.6
			c-1.8,2.4-2.7,5.7-2.7,9.8c0,0.6,0.1,1,0.1,1.3L375.4,18.6z M356.9,32.9c1,3,2.8,5.4,5.4,7.2c2.7,1.8,5.8,2.7,9.3,2.7
			c6,0,11.8-1.8,17.4-5.3l-3.5,13.6l-2,0.6c-4.7,1.5-9.3,2.2-13.8,2.2c-8.1,0-14.7-2.5-19.8-7.5c-5-5-7.6-11.6-7.6-19.7
			c0-7.7,2.3-14.1,6.9-19.1c4.7-5.1,10.4-7.6,17.5-7.6c7.6,0,13.6,2.9,18.1,8.6c2.4,3.2,4.4,7.8,5.9,14.2L356.9,32.9z"/>
		<path class="st0" d="M428.2,1c-1-0.2-2.1-0.3-3.3-0.3c-6.1,0-10.9,2.6-14.2,8.5V1.4h-13v51.1h13.4V30.1c0-5.4,0.7-9.2,1.9-11.5
			c2.1-3.6,5.6-6,10.3-6c1.2,0,2.6,0.2,3.8,0.4L428.2,1z"/>
		<path class="st0" d="M42.1,27.3c-1.9-1.7-4.6-2.8-8.1-3.4c2.2-0.8,4-2,5.3-3.6c1.8-2.1,2.8-4.8,2.8-8c0-1.8-0.3-3.4-0.9-4.9
			c-0.6-1.5-1.4-2.7-2.6-3.5c-0.6-0.5-1.3-0.9-2-1.2c-0.7-0.3-1.5-0.6-2.5-0.8c-0.9-0.2-2-0.4-3.2-0.4c-1.2-0.1-2.5-0.1-4.1-0.1H0
			v3.4l6.1,0.2l0,44L0,49.2v3.4h6.1h19.8c3,0,5.8-0.4,8.2-1.1c2.4-0.7,4.5-1.8,6.2-3.1c1.7-1.4,3.1-3.1,4-5.1c0.9-2,1.3-4.2,1.3-6.7
			C45.6,32.5,44.5,29.4,42.1,27.3z M15.7,4.9H23c3.2,0,5.6,0.6,7.1,1.8c1.4,1.2,2.2,3,2.2,5.6c0,3.5-1.1,6.2-3.3,8
			c-2.2,1.8-5.5,2.8-9.8,2.8h-3.3V4.9z M31.5,45.6C29.2,47.9,26,49,22,49h-6.3V27.1h8c3.9,0,6.8,0.7,8.5,2.2c1.7,1.5,2.6,3.8,2.6,7
			C34.9,40.3,33.7,43.4,31.5,45.6z"/>
		<path class="st0" d="M220.4,49l-23.9-29.8l9.4-7.7c1.6-1.2,3.2-2.4,4.8-3.4c1.6-1,3.2-1.7,5.1-2.3c1.1-0.3,2.3-0.6,3.1-0.8
			c0.9-0.2,2.5-0.3,2.5-0.3V1.4h-18.6l0,3.4c1.9,0,2.3,0.1,2.8,0.2c0.5,0.1,0.8,0.6,0.4,1.1c-0.2,0.3-0.5,0.5-0.7,0.8
			c-0.3,0.3-0.6,0.5-0.9,0.8c-0.3,0.2-0.5,0.4-0.7,0.6L185,23.4V4.9l6.2-0.2V1.4H169v3.4l6.1,0.2V49l-5.5,0.2v3.4H185l6.2,0l0-3.4
			L185,49V28.6l3.9-3.4L207.3,49l-4.2,0.2v3.4h23.2v-3.4L220.4,49z"/>
		<path class="st0" d="M98.7,49L81.5,1.4H65.1v3.4l5.2,0.2L55.7,41.3c-0.6,1.5-1.2,2.8-1.8,3.8c-0.6,1-1.2,1.9-1.9,2.5
			c-0.7,0.6-1.5,1-2.4,1.3c-0.9,0.3-2.7,0.3-2.7,0.3v3.4h18.9v-3.4h-0.6c-1.5,0-2,0-2.9-0.2c-0.8-0.2-1.7-0.4-2.2-1
			c-0.7-0.7-0.9-1.6-0.9-2.9c0-0.5,0.1-1.1,0.2-1.5c0.1-0.4,0.3-1.1,0.6-1.7l3.3-8.2h19L88,49l-4.7,0.1l0,3.4h6h14.1v-3.4L98.7,49z
			 M64.9,29.7l8.6-21l7.6,21H64.9z"/>
		<path class="st0" d="M145.4,1.4v3.4h1.3c2.5,0,4.2,0.6,5,1.9c0.9,1.3,1.3,3.5,1.3,6.4v24.9l-0.6-0.8l-28-35.7H109v3.4l5.6,0.2
			v35.9c0,1.7-0.1,3.1-0.3,4.2c-0.2,1-0.6,1.8-1.1,2.4c-0.5,0.6-1.2,1-2.1,1.3c-0.9,0.3-3.6,0.5-3.6,0.5v3.4H128v-3.4
			c0,0-1.9,0-2.9,0c-0.9,0-1.4-0.1-2.2-0.3c-0.8-0.2-1.5-0.4-2.1-0.8c-0.6-0.3-1-0.8-1.4-1.5c-0.6-1.2-0.9-3-0.9-5.4V10.2l0.6,0.9
			l32.3,41.4h5.7V13.4V12c0-1.5,0.1-2.7,0.3-3.6c0.2-0.9,0.5-1.6,0.9-2.1c0.4-0.5,1-0.8,1.7-1.1c0.8-0.2,1.8-0.4,3-0.5l0.7,0V1.4
			H145.4z"/>
	</g>
	<path class="st0" d="M474.9,45.9V20.3c0-5.1-0.5-9-1.3-11.4c-0.9-2.5-2.6-4.4-5-5.8c-3.5-2-8.8-2.9-16.2-2.9
		c-4.8,0-11.1,0.2-16.1,1.2l-1,11.6c4.5-2.7,9.7-3.1,15.2-3.1c5.4,0,8.8,1.3,10.1,3.8c0.7,1.5,1.1,3.5,1.1,6.3l0,0.3
		c-0.2,0-0.6,0-0.7,0.1c-21.4,0.5-32,6.7-32,18.7c0,4.6,1.6,8.1,4.7,10.8c3.2,2.7,7.4,4,12.7,4c6.3,0,11.6-2.1,16-6.4
		c0,1.5,0.2,3.3,0.5,4.9l13.3,0C475.2,50.8,474.9,48.7,474.9,45.9z M461.6,39.5c-2.7,3.4-6.3,4.9-10.8,4.9c-5.1,0-7.7-2.3-7.7-6.9
		c0-6.3,5.5-9.3,16.7-9.3h1.9V39.5z"/>
	<path class="st0" d="M285.3,45.9V20.3c0-5.1-0.5-9-1.3-11.4c-0.9-2.5-2.6-4.4-5-5.8c-3.5-2-8.8-2.9-16.2-2.9
		c-4.8,0-11.1,0.2-16.1,1.2l-1,11.6c4.5-2.7,9.7-3.1,15.2-3.1c5.4,0,8.8,1.3,10.1,3.8c0.7,1.5,1.1,3.5,1.1,6.3l0,0.3
		c-0.2,0-0.6,0-0.7,0.1c-21.4,0.5-32,6.7-32,18.7c0,4.6,1.6,8.1,4.7,10.8c3.2,2.7,7.4,4,12.7,4c6.3,0,11.6-2.1,16-6.4
		c0,1.5,0.2,3.3,0.5,4.9l13.3,0C285.6,50.8,285.3,48.7,285.3,45.9z M272,39.5c-2.7,3.4-6.3,4.9-10.8,4.9c-5.1,0-7.7-2.3-7.7-6.9
		c0-6.3,5.5-9.3,16.7-9.3h1.9V39.5z"/>
</g>
<g>
</g>
<g>
</g>
<g>
</g>
<g>
</g>
<g>
</g>
<g>
</g>
</svg>
