<?xml version="1.0" encoding="utf-8"?>
<!-- Generator: Adobe Illustrator 23.1.0, SVG Export Plug-In . SVG Version: 6.00 Build 0)  -->
<svg version="1.1" id="Calque_1" xmlns="http://www.w3.org/2000/svg" xmlns:xlink="http://www.w3.org/1999/xlink" x="0px" y="0px"
	 width="300px" height="47px" viewBox="0 0 300 47" style="enable-background:new 0 0 300 47;" xml:space="preserve">
<style type="text/css">
	.st0{fill:#FFFFFF;}
</style>
<g>
	<g>
		<rect y="1" class="st0" width="46" height="1.8"/>
		<rect y="45.2" class="st0" width="46" height="1.8"/>
		<polygon class="st0" points="20.5,4.9 41.7,4.9 30.1,24 41.7,43 20.5,43 8.8,24 		"/>
	</g>
	<path class="st0" d="M59.2,1h4.1c1.6,0,3.9,0.5,3.9,3.4c0,1.6-0.9,2.7-2.3,3l0,0c1.6,0.1,2.7,1.4,2.7,3c0,3.4-2.7,3.7-4.1,3.7h-4.1
		V1H59.2z M61.5,12h1.2c1.2,0,2.5-0.3,2.5-1.8c0-1.7-1.3-1.9-2.5-1.9h-1.2V12z M61.5,6.3h0.9c1,0,2.2-0.3,2.2-1.6
		c0-1.6-1.2-1.7-2.3-1.7h-0.9v3.2H61.5z"/>
	<path class="st0" d="M69.8,4.9c0.9-0.4,2.1-0.8,3.1-0.8c2.7,0,3.7,1.2,3.7,4.1v1.3c0,1,0,1.7,0,2.5c0,0.8,0,1.4,0.1,2.2h-2.1
		c-0.1-0.5-0.1-1.2-0.1-1.4l0,0c-0.5,1-1.7,1.7-2.7,1.7c-1.6,0-3.1-1-3.1-2.8c0-1.4,0.6-2.3,1.6-2.7c0.9-0.5,1.9-0.5,3-0.5h1.3
		c0-1.6-0.6-2.1-1.9-2.1c-0.9,0-1.9,0.4-2.7,1L69.8,4.9z M72.4,12.5c0.6,0,1.3-0.4,1.6-0.9c0.4-0.5,0.5-1.3,0.5-1.9h-1
		c-1,0-2.6,0.1-2.6,1.7C70.9,12.1,71.6,12.5,72.4,12.5z"/>
	<path class="st0" d="M78.8,4.4H81v1.3l0,0c0.8-1.2,1.7-1.6,2.8-1.6c2.1,0,3,1.7,3,3.7V14h-2.3V8.8c0-1.2,0-2.8-1.4-2.8
		c-1.7,0-2.1,1.9-2.1,3.2V14h-2.2V4.4z"/>
	<path class="st0" d="M95,13L95,13c-0.8,1-1.7,1.3-2.6,1.3c-2.7,0-3.7-2.5-3.7-5.2s1-5,3.7-5c1.3,0,2.1,0.6,2.7,1.6l0,0V4.4h2.2
		v13.7H95C95,18.1,95,13,95,13z M91,9.3c0,1.3,0.4,3.1,1.9,3.1S95,10.6,95,9.3s-0.5-3.1-2.1-3.1C91.3,6.2,91,8,91,9.3z"/>
	<path class="st0" d="M107.5,14.1h-2.2v-1.3l0,0c-0.6,0.9-1.7,1.6-2.8,1.6c-2.1,0-3-1.7-3-3.7V4.4h2.3v5.2c0,1.2,0,2.8,1.4,2.8
		c1.7,0,2.1-1.9,2.1-3.2V4.4h2.3v9.7H107.5z"/>
	<path class="st0" d="M116.9,13.6c-0.8,0.5-1.8,0.8-3,0.8c-2.8,0-4.5-1.8-4.5-5c0-2.8,1.3-5.2,4-5.2c3.2,0,4.1,2.5,4.1,5.8h-6.1
		c0.1,1.6,1,2.5,2.5,2.5c1.2,0,2.1-0.5,2.8-1v2.2H116.9z M115.4,8.3c-0.1-1.2-0.5-2.3-1.8-2.3s-1.9,1-2.1,2.3
		C111.5,8.3,115.4,8.3,115.4,8.3z"/>
	<path class="st0" d="M132.9,14c-0.9,0.3-1.8,0.4-2.7,0.4c-3.9,0-6.5-2.1-6.5-6.6s2.5-7,6.5-7c0.8,0,1.8,0.1,2.7,0.5l-0.1,2.2
		c-0.9-0.5-1.7-0.6-2.6-0.6c-2.5,0-4,2.1-4,4.8s1.6,4.7,4,4.7c0.9,0,2.1-0.3,2.6-0.5L132.9,14z"/>
	<path class="st0" d="M134.9,4.9c0.9-0.4,2.1-0.8,3.1-0.8c2.7,0,3.7,1.2,3.7,4.1v1.3c0,1,0,1.7,0,2.5c0,0.8,0,1.4,0.1,2.2h-2.1
		c-0.1-0.5-0.1-1.2-0.1-1.4l0,0c-0.5,1-1.7,1.7-2.7,1.7c-1.6,0-3.1-1-3.1-2.8c0-1.4,0.6-2.3,1.6-2.7c0.9-0.5,1.9-0.5,3-0.5h1.3
		c0-1.6-0.6-2.1-1.9-2.1c-0.9,0-1.9,0.4-2.7,1L134.9,4.9z M137.5,12.5c0.6,0,1.3-0.4,1.6-0.9c0.4-0.5,0.5-1.3,0.5-1.9h-1
		c-1,0-2.6,0.1-2.6,1.7C136,12.1,136.7,12.5,137.5,12.5z"/>
	<path class="st0" d="M143.9,4.4h2.2v1.3l0,0c0.8-1.2,1.7-1.6,2.8-1.6c2.1,0,3,1.7,3,3.7V14h-2.3V8.8c0-1.2,0-2.8-1.4-2.8
		c-1.7,0-2.1,1.9-2.1,3.2V14h-2.3V4.4H143.9z"/>
	<path class="st0" d="M155,6.3h-1.7V4.4h1.7V2.5l2.3-0.8v2.7h2.1v1.8h-2.1v4.5c0,0.8,0.3,1.6,1,1.6c0.4,0,0.8-0.1,1-0.3l0.1,1.9
		c-0.5,0.1-1,0.3-1.7,0.3c-1.8,0-2.7-1.2-2.7-3.1V6.3H155z"/>
	<path class="st0" d="M164.9,4.3c2.6,0,4.7,1.9,4.7,5.2c0,2.8-1.7,5-4.7,5c-2.8,0-4.5-2.2-4.5-5C160.3,6.2,162.3,4.3,164.9,4.3z
		 M164.9,12.4c1.8,0,2.2-1.7,2.2-3.4c0-1.4-0.8-2.8-2.2-2.8c-1.4,0-2.2,1.4-2.2,2.8C162.7,10.6,163.2,12.4,164.9,12.4z"/>
	<path class="st0" d="M171.2,4.4h2.2v1.3l0,0c0.8-1.2,1.7-1.6,2.8-1.6c2.1,0,3,1.7,3,3.7V14H177V8.8c0-1.2,0-2.8-1.4-2.8
		c-1.7,0-2.1,1.9-2.1,3.2V14h-2.3L171.2,4.4L171.2,4.4z"/>
	<path class="st0" d="M182,4.9c0.9-0.4,2.1-0.8,3.1-0.8c2.7,0,3.7,1.2,3.7,4.1v1.3c0,1,0,1.7,0,2.5c0,0.8,0,1.4,0.1,2.2h-1.9
		c-0.1-0.5-0.1-1.2-0.1-1.4l0,0c-0.5,1-1.7,1.7-2.7,1.7c-1.6,0-3.1-1-3.1-2.8c0-1.4,0.6-2.3,1.6-2.7c0.9-0.5,1.9-0.5,3-0.5h1.3
		c0-1.6-0.6-2.1-1.9-2.1c-1,0-1.9,0.4-2.7,1L182,4.9z M184.6,12.5c0.6,0,1.3-0.4,1.6-0.9c0.4-0.5,0.5-1.3,0.5-1.9h-1
		c-1,0-2.6,0.1-2.6,1.7C183.2,12.1,183.9,12.5,184.6,12.5z"/>
	<path class="st0" d="M191.1,0h2.3v14.1h-2.3V0z"/>
	<path class="st0" d="M202.8,13.6c-0.8,0.5-1.8,0.8-3,0.8c-2.8,0-4.5-1.8-4.5-5c0-2.8,1.3-5.2,4-5.2c3.2,0,4.1,2.5,4.1,5.8h-6.1
		c0.1,1.6,1,2.5,2.5,2.5c1.2,0,2.1-0.5,3-1V13.6z M201.3,8.3c0-1.2-0.5-2.3-1.8-2.3s-1.9,1-2.1,2.3C197.4,8.3,201.3,8.3,201.3,8.3z"
		/>
	<path class="st0" d="M215.8,13L215.8,13c-0.8,0.9-1.7,1.3-2.7,1.3c-2.7,0-3.6-2.5-3.6-5.2s1-5,3.6-5c1.2,0,1.9,0.4,2.6,1.3l0,0V0
		h2.3v14.1h-2.2V13z M213.6,12.4c1.6,0,2.1-1.8,2.1-3.1c0-1.4-0.5-3.1-2.1-3.1c-1.4,0-1.9,1.8-1.9,3.1
		C211.8,10.6,212.1,12.4,213.6,12.4z"/>
	<path class="st0" d="M227.3,13.6c-0.8,0.5-1.8,0.8-3,0.8c-2.8,0-4.5-1.8-4.5-5c0-2.8,1.3-5.2,4-5.2c3.2,0,4.1,2.5,4.1,5.8h-6.1
		c0.1,1.6,1,2.5,2.5,2.5c1.2,0,2.1-0.5,3-1V13.6z M225.7,8.3c-0.1-1.2-0.5-2.3-1.8-2.3c-1.3,0-1.9,1-2.1,2.3
		C221.8,8.3,225.7,8.3,225.7,8.3z"/>
	<path class="st0" d="M234.6,1h6.6v2.1H237v3.2h4v2.1h-4v5.8h-2.3V1z"/>
	<path class="st0" d="M243,4.4h2.1v2.2l0,0c0.1-0.9,1-2.5,2.5-2.5c0.3,0,0.5,0,0.6,0.1v2.6c-0.3-0.1-0.6-0.3-1-0.3
		c-1.8,0-1.8,2.6-1.8,4v3.6H243V4.4z"/>
	<path class="st0" d="M108.5,24.3h2.1v2.2l0,0c0.1-0.9,1-2.5,2.5-2.5c0.3,0,0.5,0,0.6,0.1v2.6c-0.3-0.1-0.6-0.3-1-0.3
		c-1.8,0-1.8,2.6-1.8,4v3.6h-2.3V24.3z"/>
	<path class="st0" d="M249.6,4.4h2.3v9.7h-2.3V4.4z M249.6,0.3h2.3v2.5h-2.3V0.3z"/>
	<path class="st0" d="M254.3,0h2.3v5.7l0,0c0.6-0.9,1.4-1.4,2.6-1.4c2.7,0,3.6,2.3,3.6,5s-1,5.2-3.6,5.2c-1,0-2.1-0.4-2.7-1.4l0,0
		v1.2h-2.2V0z M258.5,12.4c1.6,0,1.9-1.8,1.9-3.1s-0.4-3.1-1.9-3.1c-1.4,0-2.1,1.7-2.1,3.1C256.6,10.6,257.1,12.4,258.5,12.4z"/>
	<path class="st0" d="M268.6,4.3c2.6,0,4.7,1.9,4.7,5.2c0,2.8-1.7,5-4.7,5c-2.8,0-4.5-2.2-4.5-5C264.1,6.2,266,4.3,268.6,4.3z
		 M268.6,12.4c1.8,0,2.2-1.7,2.2-3.4c0-1.6-0.8-2.8-2.2-2.8c-1.4,0-2.2,1.4-2.2,2.8C266.4,10.6,266.9,12.4,268.6,12.4z"/>
	<path class="st0" d="M283.1,14.1h-2.2v-1.3l0,0c-0.6,0.9-1.7,1.6-2.8,1.6c-2.1,0-3-1.7-3-3.7V4.4h2.3v5.2c0,1.2,0,2.8,1.4,2.8
		c1.7,0,2.1-1.9,2.1-3.2V4.4h2.3v9.7H283.1z"/>
	<path class="st0" d="M285.5,4.4h2.1v2.2l0,0c0.1-0.9,1-2.5,2.5-2.5c0.3,0,0.5,0,0.6,0.1v2.6c-0.3-0.1-0.6-0.3-1-0.3
		c-1.8,0-1.8,2.6-1.8,4v3.6h-2.3V4.4z"/>
	<path class="st0" d="M300,4.4v8.8c0,2.6-0.9,5.2-4.7,5.2c-0.9,0-1.9-0.1-3-0.6l0.1-2.2c0.6,0.4,1.8,0.9,2.6,0.9
		c2.5,0,2.6-2.1,2.6-3.7l0,0c-0.4,0.8-1.4,1.6-2.7,1.6c-2.6,0-3.6-2.3-3.6-4.9c0-2.3,1-5,3.7-5c1.2,0,2.1,0.4,2.7,1.6l0,0V4.5h2.2
		V4.4z M297.8,9.2c0-1.7-0.5-3-1.9-3c-1.6,0-2.1,1.6-2.1,3.1c0,1.3,0.6,3,1.9,3C297.2,12.1,297.8,10.9,297.8,9.2z"/>
	<path class="st0" d="M146.4,20.7h2.3v5.7l4.3-5.7h2.8l-4.8,6.2l5,7H153l-4.1-6.1l0,0v6.1h-2.3V20.7H146.4z"/>
	<path class="st0" d="M157.9,24.7c0.9-0.4,2.1-0.8,3-0.8c2.7,0,3.7,1.2,3.7,4.1v1.3c0,1,0,1.7,0,2.5c0,0.8,0,1.4,0.1,2.2h-1.9
		c-0.1-0.5-0.1-1.2-0.1-1.4l0,0c-0.5,1-1.7,1.7-2.7,1.7c-1.6,0-3.1-1-3.1-2.8c0-1.4,0.6-2.3,1.6-2.7c0.9-0.5,1.9-0.5,3-0.5h1.3
		c0-1.6-0.6-2.1-1.9-2.1c-0.9,0-1.9,0.4-2.7,1L157.9,24.7z M160.6,32.2c0.6,0,1.3-0.4,1.6-0.9c0.4-0.5,0.5-1.3,0.5-1.9h-1
		c-1,0-2.6,0.1-2.6,1.7C159.2,31.9,159.7,32.2,160.6,32.2z"/>
	<path class="st0" d="M166.9,24.2h2.2v1.3l0,0c0.8-1.2,1.7-1.6,2.8-1.6c2.1,0,3,1.6,3,3.7v6.1h-2.3v-5.2c0-1.2,0-2.8-1.4-2.8
		c-1.7,0-1.9,1.9-1.9,3.2v4.8h-2.3L166.9,24.2L166.9,24.2z"/>
	<path class="st0" d="M178,26h-1.7v-1.8h1.7v-1.9l2.3-0.8v2.7h2.1V26h-2.1v4.5c0,0.8,0.3,1.6,1,1.6c0.4,0,0.8-0.1,1-0.3l0.1,1.9
		c-0.5,0.1-1,0.3-1.7,0.3c-1.8,0-2.7-1.2-2.7-3.1V26H178z"/>
	<path class="st0" d="M187.9,23.9c2.6,0,4.5,1.9,4.5,5.2c0,2.8-1.7,5-4.5,5c-2.8,0-4.5-2.2-4.5-5C183.3,25.8,185.3,23.9,187.9,23.9z
		 M187.9,32c1.8,0,2.2-1.7,2.2-3.4c0-1.4-0.8-2.8-2.2-2.8s-2.2,1.4-2.2,2.8C185.7,30.4,186.2,32,187.9,32z"/>
	<path class="st0" d="M194.2,24.2h2.2v1.3l0,0c0.8-1.2,1.7-1.6,2.8-1.6c2.1,0,3,1.7,3,3.7v6.1h-2.3v-5.2c0-1.2,0-2.8-1.4-2.8
		c-1.7,0-2.1,1.9-2.1,3.2v4.8h-2.3v-9.6H194.2z"/>
	<path class="st0" d="M205,24.7c0.9-0.4,2.1-0.8,3-0.8c2.7,0,3.7,1.2,3.7,4.1v1.3c0,1,0,1.7,0,2.5c0,0.8,0,1.4,0.1,2.2h-1.9
		c-0.1-0.5-0.1-1.2-0.1-1.4l0,0c-0.5,1-1.7,1.7-2.7,1.7c-1.6,0-3-1-3-2.8c0-1.4,0.6-2.3,1.4-2.7c0.9-0.5,1.9-0.5,3-0.5h1.3
		c0-1.6-0.6-2.1-1.9-2.1c-0.9,0-1.9,0.4-2.7,1L205,24.7z M207.6,32.2c0.6,0,1.3-0.4,1.6-0.9c0.4-0.5,0.5-1.3,0.5-1.9h-1
		c-1,0-2.5,0.1-2.5,1.7C206.2,31.9,206.8,32.2,207.6,32.2z"/>
	<path class="st0" d="M214.1,19.8h2.3v14.1h-2.3V19.8z"/>
	<path class="st0" d="M218.7,19.8h2.2v5.7l0,0c0.6-0.9,1.4-1.4,2.6-1.4c2.7,0,3.6,2.3,3.6,5s-1,5-3.6,5c-0.9,0-2.1-0.4-2.7-1.4l0,0
		v1.2h-2.2V19.8H218.7z M223,32c1.4,0,1.9-1.8,1.9-3.1c0-1.3-0.4-3.1-1.8-3.1c-1.4,0-2.1,1.7-2.1,3.1C221.1,30.4,221.6,32,223,32z"
		/>
	<path class="st0" d="M229.5,24.7c0.9-0.4,2.1-0.8,3-0.8c2.6,0,3.7,1.2,3.7,4.1v1.3c0,1,0,1.7,0,2.5c0,0.8,0,1.4,0.1,2.2h-1.9
		c-0.1-0.5-0.1-1.2-0.1-1.4l0,0c-0.5,1-1.7,1.7-2.7,1.7c-1.6,0-3-1-3-2.8c0-1.4,0.6-2.3,1.4-2.7c0.9-0.5,1.9-0.5,3-0.5h1.3
		c0-1.6-0.6-2.1-1.9-2.1c-0.9,0-1.9,0.4-2.7,1L229.5,24.7z M232.2,32.2c0.6,0,1.3-0.4,1.6-0.9c0.4-0.5,0.5-1.3,0.5-1.9h-1
		c-1,0-2.5,0.1-2.5,1.7C230.7,31.9,231.3,32.2,232.2,32.2z"/>
	<path class="st0" d="M238.5,24.2h2.2v1.3l0,0c0.8-1.2,1.7-1.6,2.8-1.6c2.1,0,3,1.6,3,3.7v6.1h-2.3v-5.2c0-1.2,0-2.8-1.4-2.8
		c-1.7,0-1.9,1.9-1.9,3.2v4.8h-2.3L238.5,24.2L238.5,24.2z"/>
	<path class="st0" d="M249,19.8h2.2V28l0,0l2.7-3.9h2.7l-3.2,4.3l3.6,5.3h-2.8l-2.8-4.7l0,0v4.7h-2.2v-14H249z"/>
	<path class="st0" d="M59.2,20.7h6.6v2.1h-4.3V26h4V28h-4v5.8h-2.3V20.7z"/>
	<path class="st0" d="M67.4,24.2h2.1v2.2l0,0c0.1-0.9,1-2.5,2.3-2.5c0.3,0,0.5,0,0.6,0.1v2.6c-0.3-0.1-0.6-0.3-1-0.3
		c-1.8,0-1.8,2.6-1.8,4V34h-2.3v-9.8H67.4z"/>
	<path class="st0" d="M80.7,33.3c-0.8,0.5-1.8,0.8-3,0.8c-2.8,0-4.5-1.8-4.5-5c0-2.8,1.3-5.2,4-5.2c3.2,0,4.1,2.5,4.1,5.8h-6.1
		c0.1,1.6,1,2.5,2.5,2.5c1.2,0,2.1-0.4,2.8-1v2.2H80.7z M79.2,28c-0.1-1.2-0.5-2.3-1.8-2.3c-1.3,0-1.9,1-2.1,2.3H79.2z"/>
	<path class="st0" d="M83.2,24.2h2.3v9.7h-2.3V24.2z M83.2,20h2.3v2.5h-2.3V20z"/>
	<path class="st0" d="M87.9,19.8h2.3v5.7l0,0c0.6-0.9,1.4-1.4,2.6-1.4c2.7,0,3.6,2.3,3.6,5s-1,5-3.6,5c-0.9,0-2.1-0.4-2.7-1.4l0,0
		v1.2h-2.2V19.8z M92.1,32c1.6,0,1.9-1.8,1.9-3.1c0-1.3-0.4-3.1-1.9-3.1c-1.4,0-2.1,1.7-2.1,3.1C90.1,30.4,90.6,32,92.1,32z"/>
	<path class="st0" d="M106.2,33.9H104v-1.3l0,0c-0.6,0.9-1.7,1.6-2.8,1.6c-2.1,0-3-1.7-3-3.7v-6.1h2.3v5.2c0,1.2,0,2.8,1.4,2.8
		c1.7,0,1.9-1.9,1.9-3.2v-4.8h2.3C106.2,24.3,106.2,33.9,106.2,33.9z"/>
	<path class="st0" d="M123.1,24.2v8.8c0,2.6-0.9,5.2-4.7,5.2c-0.9,0-1.9-0.1-3-0.6l0.1-2.2c0.6,0.4,1.8,0.9,2.6,0.9
		c2.5,0,2.6-2.1,2.6-3.7l0,0c-0.4,0.8-1.4,1.6-2.7,1.6c-2.6,0-3.6-2.3-3.6-4.9c0-2.3,1-5,3.7-5c1.2,0,2.1,0.4,2.7,1.6l0,0v-1.3h2.2
		V24.2z M120.9,28.9c0-1.7-0.5-3-1.9-3c-1.6,0-2.1,1.6-2.1,3.1c0,1.3,0.6,3,1.9,3C120.3,31.9,120.9,30.5,120.9,28.9z"/>
	<path class="st0" d="M132.4,33.3c-0.8,0.5-1.8,0.8-3,0.8c-2.8,0-4.5-1.8-4.5-5c0-2.8,1.3-5.2,4-5.2c3.2,0,4.1,2.5,4.1,5.8H127
		c0.1,1.6,1,2.5,2.5,2.5c1.2,0,2.1-0.4,2.8-1v2.2H132.4z M131,28c-0.1-1.2-0.5-2.3-1.8-2.3c-1.3,0-1.9,1-2.1,2.3H131z"/>
	<path class="st0" d="M135,24.2h2.1v2.2l0,0c0.1-0.9,1-2.5,2.3-2.5c0.3,0,0.5,0,0.6,0.1v2.6c-0.3-0.1-0.6-0.3-1-0.3
		c-1.8,0-1.8,2.6-1.8,4V34h-2.3v-9.8H135z"/>
</g>
</svg>
