<?xml version="1.0" encoding="utf-8"?>
<!-- Generator: Adobe Illustrator 23.1.0, SVG Export Plug-In . SVG Version: 6.00 Build 0)  -->
<svg version="1.1" id="Ebene_1" xmlns="http://www.w3.org/2000/svg" xmlns:xlink="http://www.w3.org/1999/xlink" x="0px" y="0px"
	 width="235.2px" height="75px" viewBox="0 0 235.2 75" style="enable-background:new 0 0 235.2 75;" xml:space="preserve">
<style type="text/css">
	.st0{fill:#FFFFFF;stroke:#FFFFFF;stroke-width:0.179;}
	.st1{display:none;fill:#E63027;stroke:#E63027;stroke-width:0.179;}
	.st2{fill:#FFFFFF;}
</style>
<g>
	<path class="st0" d="M0.1,1.2V74h72.7V1.2H0.1z M69.9,71.1H2.8V3.9h67.1C69.9,3.9,69.9,71.1,69.9,71.1z"/>
	<rect x="2.8" y="3.9" class="st1" width="67.1" height="67.1"/>
	<polygon class="st2" points="32.6,7.5 14.2,37.5 32.4,67.5 66,67.5 47.5,37.5 66.2,7.5 	"/>
	<g>
		<path class="st2" d="M97.3,1.2H120c8.5,0,21.1,2.7,21.1,18.6c0,8.7-5.2,14.7-13.1,16.2v0.2c8.9,1,14.9,7.7,14.9,16.6
			c0,18.2-14.7,20.9-23,20.9H97.3V1.2z M110.3,30.7h5.4c5.6,0,12.4-1.5,12.4-8.9c0-8.5-6.6-9.1-12.6-9.1h-5v18H110.3z M110.3,62.4
			h6.2c6,0,13.5-1.7,13.5-10.2c0-9.5-6.8-11-13.5-11h-6.2V62.4z"/>
		<path class="st2" d="M199.8,72.7C195,74,189.9,75,184.9,75c-21.1,0-35.8-11.6-35.8-36.3c0-24.9,13.7-38.7,35.8-38.7
			c4.4,0,9.9,1,14.7,3.1l-0.8,12.2c-5-3.1-9.5-3.9-14.1-3.9c-13.5,0-22,11.4-22,26.3c0,14.7,8.3,25.9,22.2,25.9
			c5.2,0,11.2-1.2,14.3-3.1L199.8,72.7z"/>
		<path class="st2" d="M207.5,61.1c1.9,0.8,3.7,1.2,6.2,1.2c8.5,0,8.5-7.7,8.5-12.8V1.2h13.1v55.3c0,7.7-4.6,18.4-17.8,18.4
			c-3.5,0-6.4-0.4-9.9-1.5V61.1z"/>
	</g>
</g>
</svg>
