<?xml version="1.0" encoding="utf-8"?>
<!-- Generator: Adobe Illustrator 26.1.0, SVG Export Plug-In . SVG Version: 6.00 Build 0)  -->
<svg version="1.1" id="Ebene_1" xmlns="http://www.w3.org/2000/svg" xmlns:xlink="http://www.w3.org/1999/xlink" x="0px" y="0px"
	 width="223.8px" height="31px" viewBox="0 0 223.8 31" style="enable-background:new 0 0 223.8 31;" xml:space="preserve">
<style type="text/css">
	.st0{clip-path:url(#SVGID_00000167375903506271473130000018043891201627100575_);}
	.st1{fill:#BBBBBB;}
	.st2{clip-path:url(#SVGID_00000042702218522347680000000010817295453446371976_);}
	.st3{fill:#FFFFFF;}
	.st4{clip-path:url(#SVGID_00000089553731189454209150000014512595932202360472_);}
	.st5{clip-path:url(#SVGID_00000118367718887754100970000010316933521593641354_);}
	.st6{clip-path:url(#SVGID_00000000902525903133157370000002074565950722798498_);}
	.st7{clip-path:url(#SVGID_00000044890370013322071850000009296219235854562964_);}
	.st8{clip-path:url(#SVGID_00000149360306086543464040000001611061862933094022_);}
	.st9{clip-path:url(#SVGID_00000111174788772024476570000010026397625909366940_);}
	.st10{clip-path:url(#SVGID_00000169547311999346540490000008131430625337171086_);}
	.st11{clip-path:url(#SVGID_00000085934751365557350330000000176570906608864649_);}
	.st12{clip-path:url(#SVGID_00000000915394844228319100000001267883880388476850_);}
	.st13{clip-path:url(#SVGID_00000011002368635986969920000009418075298432169347_);}
</style>
<g id="Ebene_2_00000086675108181561455130000013286882931285679272_">
	<g id="Ebene_1-2">
		<g>
			<defs>
				<path id="SVGID_1_" d="M6.1,24.9h18.8V6.1H6.1V24.9z M0,31h31V0H0V31z"/>
			</defs>
			<clipPath id="SVGID_00000136390226418104511320000018233914325247589567_">
				<use xlink:href="#SVGID_1_"  style="overflow:visible;"/>
			</clipPath>
			<g style="clip-path:url(#SVGID_00000136390226418104511320000018233914325247589567_);">
				<path class="st1" d="M-1-1h33v33H-1V-1z"/>
			</g>
		</g>
		<g>
			<defs>
				<polygon id="SVGID_00000080206044229786130600000017306522105580752828_" points="12.8,7 24,7 18.3,15.5 24,24 12.8,24 7,15.5 
									"/>
			</defs>
			<clipPath id="SVGID_00000172422244655151264590000002149119622227999386_">
				<use xlink:href="#SVGID_00000080206044229786130600000017306522105580752828_"  style="overflow:visible;"/>
			</clipPath>
			<g style="clip-path:url(#SVGID_00000172422244655151264590000002149119622227999386_);">
				<path class="st3" d="M6,6h19v19H6V6z"/>
			</g>
		</g>
		<g>
			<defs>
				<rect id="SVGID_00000070813451744411542010000011596526360088540308_" x="135.1" width="0.7" height="31"/>
			</defs>
			<clipPath id="SVGID_00000090995675591294890150000016106954864970993815_">
				<use xlink:href="#SVGID_00000070813451744411542010000011596526360088540308_"  style="overflow:visible;"/>
			</clipPath>
			<g style="clip-path:url(#SVGID_00000090995675591294890150000016106954864970993815_);">
				<path class="st3" d="M134.1-1h2.7v33h-2.7V-1z"/>
			</g>
		</g>
		<g>
			<defs>
				<path id="SVGID_00000144296209594749441270000006502485498874928287_" d="M46.1,7.6h5.8c2.1-0.3,4,1.2,4.3,3.3c0,0,0,0,0,0
					c0,0.2,0,0.4,0,0.6c0.1,1.7-1.2,3.3-2.9,3.6c1.9,0.1,3.4,1.8,3.3,3.7v0.2c0,4-3.9,4.3-4.8,4.3h-5.6V7.6z M49.6,13.9h0.9
					c1,0.2,2-0.6,2.2-1.6c0,0,0,0,0,0c0-0.1,0-0.2,0-0.3c0-1-0.8-1.9-1.9-1.9h-1.2L49.6,13.9z M49.6,20.6h1c1.1,0.2,2.1-0.5,2.4-1.5
					c0,0,0-0.1,0-0.1c0-0.1,0-0.2,0-0.4c0.1-1-0.6-1.9-1.6-2.1c0,0,0,0,0,0c-0.1,0-0.3,0-0.4,0h-1.4L49.6,20.6z"/>
			</defs>
			<clipPath id="SVGID_00000033342966137387905460000008407755830627132071_">
				<use xlink:href="#SVGID_00000144296209594749441270000006502485498874928287_"  style="overflow:visible;"/>
			</clipPath>
			<g style="clip-path:url(#SVGID_00000033342966137387905460000008407755830627132071_);">
				<path class="st3" d="M45.1,6.3h12.6v17.9H45.1V6.3z"/>
			</g>
		</g>
		<g>
			<defs>
				<polygon id="SVGID_00000067927365831876252960000017855200561397188284_" points="67.2,7.6 76.3,7.6 76.3,10.3 70.8,10.3 
					70.8,13.8 76,13.8 76,16.5 70.8,16.5 70.8,20.5 76.6,20.5 76.6,23.2 67.2,23.2 				"/>
			</defs>
			<clipPath id="SVGID_00000166664716444301406080000009186140410237856680_">
				<use xlink:href="#SVGID_00000067927365831876252960000017855200561397188284_"  style="overflow:visible;"/>
			</clipPath>
			<g style="clip-path:url(#SVGID_00000166664716444301406080000009186140410237856680_);">
				<path class="st3" d="M66.2,6.6h11.3v17.7H66.2V6.6z"/>
			</g>
		</g>
		<g>
			<defs>
				<polygon id="SVGID_00000116931875569228074330000001192541890693625006_" points="88,7.6 91.7,7.6 91.7,14 95.5,7.6 99.7,7.6 
					94.8,14.9 100.1,23.2 95.7,23.2 91.8,16 91.8,23.2 88,23.2 88,7.6 				"/>
			</defs>
			<clipPath id="SVGID_00000160164811616709860350000013445728996122549148_">
				<use xlink:href="#SVGID_00000116931875569228074330000001192541890693625006_"  style="overflow:visible;"/>
			</clipPath>
			<g style="clip-path:url(#SVGID_00000160164811616709860350000013445728996122549148_);">
				<path class="st3" d="M87,6.6h14.1v17.7H87V6.6z"/>
			</g>
		</g>
		<g>
			<defs>
				<path id="SVGID_00000000934907340801586270000005993647385134111878_" d="M109.3,7.6h5.8c2.1-0.3,4,1.2,4.3,3.3c0,0,0,0,0,0
					c0,0.2,0,0.4,0,0.6c0.1,1.8-1.2,3.3-2.9,3.6c1.9,0.2,3.3,1.8,3.2,3.7c0,0,0,0,0,0c0,4-3.9,4.3-4.8,4.3h-5.6L109.3,7.6z
					 M112.8,13.9h0.9c1,0.2,2-0.5,2.2-1.6c0,0,0,0,0,0V12c0-1-0.8-1.9-1.9-1.9h-1.2V13.9z M112.8,20.6h1c1.1,0.2,2.1-0.5,2.3-1.6
					c0,0,0,0,0,0c0-0.1,0-0.2,0-0.4c0.1-1-0.6-1.9-1.6-2.1c0,0,0,0,0,0c-0.1,0-0.2,0-0.4,0h-1.4L112.8,20.6z"/>
			</defs>
			<clipPath id="SVGID_00000122718980486463627110000016889963252011684752_">
				<use xlink:href="#SVGID_00000000934907340801586270000005993647385134111878_"  style="overflow:visible;"/>
			</clipPath>
			<g style="clip-path:url(#SVGID_00000122718980486463627110000016889963252011684752_);">
				<path class="st3" d="M108.3,6.3h12.6v17.9h-12.6V6.3z"/>
			</g>
		</g>
		<g>
			<defs>
				<path id="SVGID_00000070834627450760407940000012237613560701840825_" d="M151.3,7.6h5.8c2.1-0.3,4,1.2,4.3,3.3
					c0,0.2,0,0.4,0,0.6c0.1,1.8-1.2,3.3-2.9,3.6c1.9,0.2,3.3,1.9,3.1,3.8c0,4-3.9,4.3-4.9,4.3h-5.6V7.6H151.3z M154.8,13.9h0.9
					c1,0.2,2-0.5,2.2-1.6c0,0,0,0,0,0V12c0-1-0.9-1.9-1.9-1.9h-1.2L154.8,13.9z M154.8,20.6h1c1.1,0.2,2.1-0.5,2.3-1.6c0,0,0,0,0,0
					c0-0.1,0-0.2,0-0.4c0.1-1-0.6-1.9-1.6-2.1c0,0,0,0,0,0c-0.1,0-0.3,0-0.4,0h-1.4L154.8,20.6L154.8,20.6z"/>
			</defs>
			<clipPath id="SVGID_00000078733670287652314460000008116579540242961805_">
				<use xlink:href="#SVGID_00000070834627450760407940000012237613560701840825_"  style="overflow:visible;"/>
			</clipPath>
			<g style="clip-path:url(#SVGID_00000078733670287652314460000008116579540242961805_);">
				<path class="st3" d="M150.2,6.3h12.7v17.9h-12.7V6.3z"/>
			</g>
		</g>
		<g>
			<defs>
				<path id="SVGID_00000050652892577675823840000006282549269917149879_" d="M181.6,11.1c-1-0.6-2.1-0.9-3.2-0.9
					c-2.5,0-4.1,2-4.1,5.2s1.8,5.1,4.1,5.1c1.1,0,2.2-0.3,3.2-0.8l0.1,3.3c-1.3,0.4-2.6,0.6-3.9,0.6c-4.3,0-7.3-3.2-7.3-8.2
					c0-5.8,3.9-8,7.1-8c1.4-0.1,2.8,0.2,4.1,0.8L181.6,11.1z"/>
			</defs>
			<clipPath id="SVGID_00000133491729690644845000000006640796684649784193_">
				<use xlink:href="#SVGID_00000050652892577675823840000006282549269917149879_"  style="overflow:visible;"/>
			</clipPath>
			<g style="clip-path:url(#SVGID_00000133491729690644845000000006640796684649784193_);">
				<path class="st3" d="M169.6,6.3h13.2v18.3h-13.2V6.3z"/>
			</g>
		</g>
		<g>
			<defs>
				<path id="SVGID_00000002351037121658882900000001235759004948192935_" d="M193,7.6h5.8c2.1-0.3,4,1.2,4.3,3.3c0,0,0,0,0,0
					c0,0.2,0,0.4,0,0.6c0.1,1.8-1.2,3.3-2.9,3.6c1.9,0.2,3.3,1.8,3.2,3.7c0,0,0,0,0,0c0,4-3.9,4.3-4.9,4.3h-5.6V7.6H193z
					 M196.5,13.9h0.9c1,0.2,2-0.5,2.2-1.6c0,0,0,0,0,0V12c0-1-0.8-1.9-1.9-1.9c0,0,0,0,0,0h-1.2L196.5,13.9z M196.5,20.6h1
					c1.1,0.2,2.1-0.5,2.3-1.6c0,0,0,0,0,0c0-0.1,0-0.2,0-0.4c0.1-1-0.6-1.9-1.6-2.1c0,0,0,0,0,0c-0.1,0-0.2,0-0.4,0h-1.4L196.5,20.6
					z"/>
			</defs>
			<clipPath id="SVGID_00000120536418354645386980000017661518777595675311_">
				<use xlink:href="#SVGID_00000002351037121658882900000001235759004948192935_"  style="overflow:visible;"/>
			</clipPath>
			<g style="clip-path:url(#SVGID_00000120536418354645386980000017661518777595675311_);">
				<path class="st3" d="M191.9,6.3h12.6v17.9h-12.6V6.3z"/>
			</g>
		</g>
		<g>
			<defs>
				<polygon id="SVGID_00000149368886613067868470000002027897832502121346_" points="214.4,7.6 223.5,7.6 223.5,10.3 218,10.3 
					218,13.8 223.2,13.8 223.2,16.5 218,16.5 218,20.5 223.8,20.5 223.8,23.2 214.4,23.2 				"/>
			</defs>
			<clipPath id="SVGID_00000119825271852595517100000002447212777181818795_">
				<use xlink:href="#SVGID_00000149368886613067868470000002027897832502121346_"  style="overflow:visible;"/>
			</clipPath>
			<g style="clip-path:url(#SVGID_00000119825271852595517100000002447212777181818795_);">
				<g>
					<defs>
						<rect id="SVGID_00000043451531976163635590000008364005384623259567_" x="214.4" y="7.6" width="9.3" height="15.7"/>
					</defs>
					<clipPath id="SVGID_00000102534544572449285160000011549193499717097397_">
						<use xlink:href="#SVGID_00000043451531976163635590000008364005384623259567_"  style="overflow:visible;"/>
					</clipPath>
					<g style="clip-path:url(#SVGID_00000102534544572449285160000011549193499717097397_);">
						<path class="st3" d="M213.4,6.6h11.3v17.7h-11.3V6.6z"/>
					</g>
				</g>
			</g>
		</g>
	</g>
</g>
</svg>
