<?xml version="1.0" encoding="utf-8"?>
<!-- Generator: Adobe Illustrator 23.0.6, SVG Export Plug-In . SVG Version: 6.00 Build 0)  -->
<svg version="1.1" id="Livello_1" xmlns="http://www.w3.org/2000/svg" xmlns:xlink="http://www.w3.org/1999/xlink" x="0px" y="0px"
	 width="369.7px" height="51.8px" viewBox="0 0 369.7 51.8" style="enable-background:new 0 0 369.7 51.8;" xml:space="preserve">
<style type="text/css">
	.st0{fill:#FFFFFF;}
</style>
<path class="st0" d="M87.8,2.6l-4.5,21.1h6.4c2.2,0,4.2,0.1,5.8-1.9c2.4-3,3.6-11.8,3.6-14.2c0-5-3.6-5-6.8-5H87.8z M82.9,25.9
	l-4.9,23h7.1c3.9,0,5.8,0,7.4-2.1c1.9-2.6,3.8-13.8,3.8-16.8c0-0.8,0-2.1-1.3-3.1c-1-0.8-1.8-0.8-5.6-0.9H82.9z M94.2,24.4
	c0.7,0.1,1.4,0.1,2.1,0.3c6.4,1,11.3,5.3,11.3,11.9c0,5.8-4,12.1-11.7,13.5c-2.6,0.6-5.7,0.6-10.2,0.6H61l0.4-1.9h4.8L76,2.6h-6.3
	l0.4-2h20.7c3.3,0,6.3,0,9,0.5c6.4,1.2,10.1,5.2,10.1,10.6v0.1c-0.1,8.8-8.3,11.3-13.4,12.2L94.2,24.4z"/>
<path class="st0" d="M130.6,29.1c0-4.5-2.7-6.7-4.3-6.7c-2.5,0-3.9,3.3-4.8,5.5c-3.2,7.9-4.7,16.3-4.7,18.7c0,1,0,2.9,2.1,2.9
	c0.9,0,6.9-1.5,10.2-12.6C129.9,34.3,130.6,31.7,130.6,29.1 M141.5,21.2l-5.4,25.3c-0.2,1-0.2,1.4-0.2,1.6c0,0.3,0.1,0.6,0.6,0.6
	c1.6,0,6.6-2.8,8.4-7.3l1.7,0.6c-1.7,3.9-7.2,9.6-13,9.6c-1.7,0-3.2-0.6-4.1-1.4c-1.9-1.6-1.9-3.5-2-4.9c-1.9,2.4-4.8,6.3-9.7,6.3
	c-5.5,0-9.5-5.3-9.5-11.9c0-11.1,9.7-19.3,16.6-19.3c1.4,0,2.7,0.4,3.8,1.1c1.8,1.1,2.5,2.3,3.1,3.8l0.9-4H141.5z"/>
<path class="st0" d="M148.8,23.1h-4.6l0.4-1.8h4.5c2.4-0.1,3.6-0.1,9.4-0.9l-1.8,8.4c0.6-1.1,1.4-2.5,3.3-4.3c2.5-2.5,5.8-4,9.4-4
	c0.4,0,1.5,0,2.6,0.4c3.4,1.1,3.4,3.5,3.4,4.4c0,1.3-0.3,2.6-0.6,4.4l-3.3,15.7c-0.4,2-0.4,2.2-0.4,2.4c0,0.6,0.2,1,0.9,1
	c2.1,0,5.1-5.7,6.1-7.7l1.6,0.8c-2.4,4.8-5.3,9.9-10.7,9.9c-3.5,0-6.3-2.1-6.3-6.3c0-1.7,0.4-3.4,0.7-5.4l2.7-12.6
	c0.5-2.3,0.6-2.6,0.6-3.2c0-0.5-0.2-0.8-1-0.8c-1.9,0-8.4,3.8-11.2,15.3l-2.6,12.2h-9.2L148.8,23.1z"/>
<path class="st0" d="M205.3,42.6c-3.1,5.1-8.4,9-15.1,9c-2.3,0-4.3-0.3-5.9-0.8c-3.4-1.1-7.7-4.1-7.7-10.6c0-9.4,8-19.7,19.6-19.7
	c4.8,0,9.4,2.1,9.4,6.7c0,3.3-2.6,4.2-4.4,4.2c-2.8,0-4.2-2.1-4.2-4.4c0-0.7,0.2-1.3,0.4-1.9c0.2-0.6,0.3-1.1,0.3-1.4
	c0-0.7-0.5-1.3-2.6-1.3c-2.9,0-4.1,2.1-5.1,4.8c-2.8,7.2-4.3,17.4-4.3,19.1c0,1.1,0,3.6,5.1,3.6c6,0,10.6-4.7,12.9-8L205.3,42.6z"/>
<path class="st0" d="M225.5,29.1c0-4.5-2.7-6.7-4.3-6.7c-2.5,0-3.9,3.3-4.8,5.5c-3.2,7.9-4.7,16.3-4.7,18.7c0,1,0,2.9,2.1,2.9
	c0.9,0,6.9-1.5,10.2-12.6C224.7,34.3,225.5,31.7,225.5,29.1 M236.4,21.2L231,46.5c-0.2,1-0.2,1.4-0.2,1.6c0,0.3,0.1,0.6,0.6,0.6
	c1.6,0,6.2-2.6,8.1-7.1l1.7,0.6c-1.7,3.9-6.8,9.4-12.6,9.4c-1.7,0-3.2-0.6-4.1-1.4c-1.8-1.6-1.9-3.5-2-4.9c-1.8,2.4-4.8,6.3-9.7,6.3
	c-5.5,0-9.5-5.3-9.5-11.9c0-11.1,9.7-19.3,16.6-19.3c1.4,0,2.7,0.4,3.8,1.1c1.8,1.1,2.5,2.3,3.1,3.8l0.9-4H236.4z"/>
<path class="st0" d="M266.6,14.1c-0.5-2.4-1-4.9-2.9-7.5C260.9,3,257.1,2,254.5,2c-5.8,0-9.2,3.9-9.2,8.5c0,2.3,1.1,4.4,3,5.7
	c1.4,1.1,5.4,2.3,9.4,3.4c4.3,1.3,8.9,2.7,11.4,5.2c1.8,1.7,4,5.2,4,10.6c0,3.9-1.3,7.9-3.9,10.9c-3.7,4.3-8,5.4-12.6,5.4
	c-6.2,0-9.5-2.2-12.6-4.2l-2.4,3.2h-2V37h2c0.8,2.3,1.7,5.1,4.1,7.7c2.8,3,6.7,4.8,10.6,4.8c6.2,0,10.4-4.2,10.4-9.4
	c0-6-5-7.6-9.2-8.9l-3.1-0.9c-7.9-2.4-15.1-4.6-15.1-14.4c0-4.3,1.1-8.2,4.4-11.5C247,1,250.6,0,254.7,0c4.9,0,7.6,1.8,10.1,3.3
	l2.4-2.6h1.6v13.4H266.6z"/>
<path class="st0" d="M284.4,21.3h6.1v1.8h-6.1v20.4c0,1.7,0.1,4.3,2.5,4.3c2.1,0,3.2-2.3,4.1-5.1l2,0.4c-1,3.4-2.7,8.4-10,8.4
	c-7.1,0-7.2-5.2-7.2-8.3l0.1-20.1h-5.1V22c3.2-1.5,7.5-3.7,11.6-12.5h2V21.3z"/>
<path class="st0" d="M308.1,35.2c-3.7,0.2-9.9,0.6-9.9,6.8c0,3.5,2.3,5.4,4.8,5.4c1.2,0,2.3-0.5,3.1-1.1c2-1.7,2-3.9,2-5.7V35.2z
	 M316.5,43.8c0,1.6,0.1,3.7,1.8,3.7c0.8,0,3.4-2.3,4-2.7l0.4,2.2c-1.3,1.3-4.6,4.5-8,4.5c-4,0-5.6-3-6.5-4.9
	c-1.4,1.6-4.4,4.9-9.9,4.9c-7.3,0-8.3-4.9-8.3-7.1c0-2.2,1-5.1,4.1-7.4c3.9-2.9,9.7-3.4,14.1-3.8v-5.6c0-3-0.2-5.3-4.9-5.3
	c-3.2,0-4.2,1.4-4.2,2c0,0.3,0.1,0.5,0.2,0.8c0.2,0.6,0.6,1,0.8,1.5c0.2,0.4,0.4,0.9,0.4,1.4c0,2.1-1.6,3.9-4,3.9
	c-2.3,0-3.9-1.6-3.9-3.9c0-4.5,5.5-7.7,12.3-7.7c2.5,0,5,0.4,7,1.3c4.8,2,4.7,5.5,4.7,8V43.8z"/>
<path class="st0" d="M330.8,21.3h6.1v1.8h-6.1v20.4c0,1.7,0.1,4.3,2.5,4.3c2.1,0,4.4-2.2,5.2-5l2,0.4c-1,3.4-3.8,8.3-11.1,8.3
	c-7.1,0-7.2-5.2-7.2-8.3l0.1-20.1h-5.1V22c3.2-1.5,7.5-3.7,11.6-12.5h2V21.3z"/>
<path class="st0" d="M359.2,26.1c-1.1-2.5-3.2-3.9-6.1-3.9c-6.9,0-7.1,7.3-7.1,13.5c0,8.4,0.7,9.9,1.3,10.8c0.8,1.7,2.7,3.5,5.9,3.5
	c7,0,7-7.7,6.9-14.6C360,28,359.6,27,359.2,26.1 M368.9,41.9c-1,2.7-5.2,9.6-15.4,9.6c-11.4,0-17.1-7.7-17.1-15.6
	c0-10.9,9.7-15.4,16.9-15.4c6.4,0,15.8,3.8,16.5,14.9C369.8,37.6,369.6,39.9,368.9,41.9"/>
<path class="st0" d="M0,50.8h50.3V0.6H0V50.8z M50.2,50.7H0.1v-50h50.1V50.7z"/>
<path class="st0" d="M0.1,50.7h50.1v-50H0.1V50.7z M2,2.6h46.3v46.2H2V2.6z"/>
<polygon class="st0" points="22.5,5 9.7,25.7 22.4,46.3 45.6,46.3 32.9,25.7 45.6,5 "/>
</svg>
