<?xml version="1.0" encoding="utf-8"?>
<!-- Generator: Adobe Illustrator 21.1.0, SVG Export Plug-In . SVG Version: 6.00 Build 0)  -->
<svg version="1.1" id="Ebene_1" xmlns="http://www.w3.org/2000/svg" xmlns:xlink="http://www.w3.org/1999/xlink" x="0px" y="0px"
	 width="235.1px" height="139.4px" viewBox="0 0 235.1 139.4" style="enable-background:new 0 0 235.1 139.4;" xml:space="preserve"
	>
<style type="text/css">
	.st0{fill:#FFFFFF;}
</style>
<g id="Fibo">
</g>
<g id="Ebene_1_1_">
	<path class="st0" d="M134,19.6H96.7c-0.3,7.2,0,13.1,0,20.4l37.2,0.3v19.5l-37.2,0.2c-0.2,7.2-0.1,15-0.1,21.6l37.2,0.2
		c0,0,0.2,20.6,0,20.5H73.3V0.3H134V19.6z"/>
	<path class="st0" d="M233.5,0.1L193.4,48l41.7,54.3h-29.1c0,0-36.5-48.4-36.6-48.4v48.4h-24V0.1c7.9-0.2,16.3-0.1,24,0v45.3h0.1
		L206,0.1C215.2,0.1,224.2-0.1,233.5,0.1"/>
	<path class="st0" d="M60.7,19.4H23.5c-0.3,7.2,0,13.1,0,20.4L60.7,40v19.5l-37.2,0.2c-0.2,7.2-0.1,15-0.1,21.6l37.2,0.2
		c0,0,0.2,20.8,0,20.7H0.1V0.1h60.6V19.4z"/>
	<g>
		<path class="st0" d="M79.9,128.3h-3.2v2.8H80c1.2,0,2-0.4,2-1.4v0C82,128.9,81.3,128.3,79.9,128.3z"/>
		<polygon class="st0" points="103.6,128.3 107,128.3 105.3,124.1 		"/>
		<path class="st0" d="M81.3,124.7L81.3,124.7c0-0.9-0.7-1.3-1.8-1.3h-2.8v2.7h2.6C80.5,126,81.3,125.6,81.3,124.7z"/>
		<path class="st0" d="M0,115.3v24.1h235.1v-24.1H0z M84.7,130.1c0,2.3-1.9,3.5-4.7,3.5h-6v-12.7h5.9c1.4,0,2.6,0.4,3.3,1.1
			c0.6,0.6,0.9,1.3,0.9,2.2v0c0,1.4-0.8,2.2-1.7,2.7C83.8,127.5,84.7,128.3,84.7,130.1C84.7,130,84.7,130.1,84.7,130.1z
			 M109.1,133.6l-1.2-2.8h-5.4l-1.2,2.8h-2.8l5.4-12.8h2.6l5.4,12.8H109.1z M138,133.6h-2.4l-6.1-8.1v8.1h-2.8v-12.7h2.6l5.9,7.8
			v-7.8h2.8L138,133.6L138,133.6z M161.9,133.6l-3.9-5.4l-1.5,1.5v3.9h-2.8v-12.7h2.8v5.5l5.1-5.5h3.4l-5.2,5.4l5.4,7.3L161.9,133.6
			L161.9,133.6z"/>
	</g>
</g>
</svg>
