<?xml version="1.0" encoding="utf-8"?>
<!-- Generator: Adobe Illustrator 23.1.0, SVG Export Plug-In . SVG Version: 6.00 Build 0)  -->
<svg version="1.1" id="Ebene_1" xmlns="http://www.w3.org/2000/svg" xmlns:xlink="http://www.w3.org/1999/xlink" x="0px" y="0px"
	 width="300px" height="60.5px" viewBox="0 0 300 60.5" style="enable-background:new 0 0 300 60.5;" xml:space="preserve">
<style type="text/css">
	.st0{fill:#FFFFFF;}
	.st1{fill-rule:evenodd;clip-rule:evenodd;fill:#FFFFFF;}
</style>
<g>
	<g>
		<path class="st0" d="M0,2v58h58V2H0L0,2z M55.8,57.8H2.3V4.3h53.5V57.8L55.8,57.8z"/>
		<polygon class="st0" points="26,7 52.7,7 38,31 52.7,55.1 26,55.1 11.2,31 		"/>
	</g>
	<g>
		<path class="st0" d="M93.9,2.1c-1.6-0.5-3.5-0.9-5.7-0.9c-6.6,0-10.6,4.1-10.6,11.5s4.4,10.8,10.6,10.8c2,0,4.2-0.5,6.2-1.1V10.7
			h-7.8v3.4h4.1v5.6c-0.6,0.2-1.5,0.3-2.6,0.3c-4.1,0-6.6-3.3-6.6-7.7s2.5-7.8,7.1-7.8c1.5,0,3.5,0.4,5,1.1L93.9,2.1L93.9,2.1z"/>
		<path class="st0" d="M98.3,23.1h3.7v-5.8c0-2.3,0-6.4,3.1-6.4c0.7,0,1.3,0.1,1.6,0.3V7c-0.4-0.1-0.8-0.1-1.1-0.1
			c-2.3,0-3.8,2.5-3.9,4h-0.1V7.3h-3.3V23.1L98.3,23.1z"/>
		<path class="st1" d="M109.7,11.7c1.2-1,2.9-1.7,4.4-1.7c2.1,0,3.2,0.8,3.2,3.4h-2c-1.5,0-3.4,0.1-4.8,0.9
			c-1.4,0.8-2.5,2.1-2.5,4.5c0,3.1,2.5,4.7,5,4.7c1.7,0,3.6-1,4.4-2.8h0.1c0,0.5,0,1.5,0.2,2.4h3.3c-0.1-1.2-0.1-2.4-0.2-3.6
			c0-1.1-0.1-2.4-0.1-4v-2c0-4.7-1.8-6.7-6.1-6.7c-1.5,0-3.5,0.5-5,1.2L109.7,11.7L109.7,11.7z M111.6,18.5c0-2.5,2.5-2.8,4.1-2.8
			h1.6c0,1.2-0.2,2.4-0.8,3.3c-0.6,0.8-1.4,1.4-2.6,1.4C112.6,20.5,111.6,19.9,111.6,18.5L111.6,18.5z"/>
		<path class="st0" d="M137.5,7.3h-3.7V15c0,2-0.6,5.3-3.3,5.3c-2.4,0-2.5-2.7-2.5-4.6V7.3h-3.7v10c0,3.6,1.4,6.2,4.8,6.2
			c1.9,0,3.6-1,4.7-2.6h0.1v2.1h3.5V7.3L137.5,7.3z"/>
		<path class="st1" d="M145,15.1c0-2.3,0.9-5,3.4-5c2.5,0,3.1,3,3.1,5c0,2.1-0.7,5.1-3.2,5.1C145.9,20.3,145,17.4,145,15.1L145,15.1
			z M141.4,23.1h3.6v-1.9h0.1c1.1,1.7,2.8,2.4,4.4,2.4c4.4,0,6-4,6-8.4s-1.6-8.3-6-8.3c-1.9,0-3.3,0.9-4.3,2.4H145V0h-3.7V23.1
			L141.4,23.1z"/>
		<path class="st1" d="M166.1,0.8v3.6h3.2V0.8H166.1L166.1,0.8z M163.6,4.3V0.8h-3.2v3.6h3.2V4.3z M171.4,7.3h-3.7V15
			c0,2-0.6,5.3-3.3,5.3c-2.4,0-2.5-2.7-2.5-4.6V7.3h-3.7v10c0,3.6,1.4,6.2,4.8,6.2c1.9,0,3.6-1,4.7-2.6h0.1v2.1h3.5V7.3L171.4,7.3z"
			/>
		<path class="st0" d="M175.2,23.1h3.7v-7.8c0-2,0.6-5.3,3.3-5.3c2.4,0,2.5,2.7,2.5,4.6v8.5h3.7v-10c0-3.6-1.4-6.2-4.8-6.2
			c-1.9,0-3.5,0.7-4.7,2.6h-0.1V7.3h-3.5V23.1L175.2,23.1z"/>
		<path class="st1" d="M195.2,15.1c0-2.1,0.7-5,3.1-5c2.4,0,3.4,2.9,3.4,5c0,2.3-0.8,5.1-3.3,5.1C195.8,20.3,195.2,17.3,195.2,15.1
			L195.2,15.1z M201.7,23.1h3.6V0h-3.7v9.1h-0.1c-1.1-1.5-2.5-2.3-4.3-2.3c-4.4,0-6,3.9-6,8.3c0,4.3,1.6,8.4,6,8.4
			c1.7,0,3.3-0.6,4.4-2.1h0.1V23.1L201.7,23.1z"/>
		<path class="st0" d="M209.1,23.1h3.7v-7.8c0-2,0.6-5.3,3.3-5.3c2.4,0,2.5,2.7,2.5,4.6v8.5h3.7v-10c0-3.6-1.4-6.2-4.8-6.2
			c-1.9,0-3.5,0.7-4.7,2.6h-0.1V7.3h-3.5V23.1L209.1,23.1z"/>
		<path class="st1" d="M228.8,13.6c0.2-2.1,1.2-3.7,3.3-3.7c2,0,2.9,1.7,3.1,3.7L228.8,13.6L228.8,13.6z M237.6,18.8
			c-1.4,0.8-3,1.6-4.7,1.6c-2.4,0-3.9-1.4-4.1-4h9.9c0-5.5-1.5-9.6-6.8-9.6c-4.4,0-6.7,3.8-6.7,8.4c0,5.2,2.8,8.2,7.5,8.2
			c2,0,3.6-0.4,4.9-1.2v-3.4H237.6z"/>
		<path class="st0" d="M241.6,23.1h3.7v-5.8c0-2.3,0-6.4,3.1-6.4c0.7,0,1.3,0.1,1.6,0.3V7c-0.4-0.1-0.8-0.1-1.1-0.1
			c-2.3,0-3.8,2.5-3.9,4h-0.1V7.3h-3.3V23.1L241.6,23.1z"/>
		<polygon class="st0" points="79.1,60 83.8,60 83.8,47.8 83.9,47.8 92.4,60 98.6,60 88.5,46.2 98.3,33.8 92.4,33.8 83.8,45 
			83.8,33.8 79.1,33.8 		"/>
		<path class="st1" d="M102.3,46c1.5-1.3,3.5-2.1,5.4-2.1c2.7,0,3.9,1,3.9,4.2h-2.5c-1.9,0-4.1,0.2-5.8,1.1c-1.7,0.9-3,2.7-3,5.5
			c0,3.7,3,5.7,6.1,5.7c2,0,4.3-1.2,5.4-3.4h0.1c0,0.6,0,1.8,0.2,2.9h4c-0.1-1.5-0.2-2.9-0.2-4.3c0-1.4-0.1-2.9-0.1-4.8v-2.5
			c0-5.7-2.1-8.2-7.5-8.2c-1.9,0-4.3,0.6-6,1.4L102.3,46L102.3,46z M104.5,54.4c0-3,3-3.4,5-3.4h1.9c0,1.5-0.2,2.9-0.9,4
			c-0.7,1-1.8,1.7-3.2,1.7C105.7,56.8,104.5,56.1,104.5,54.4L104.5,54.4z"/>
		<path class="st0" d="M120.2,60h4.5v-9.5c0-2.5,0.7-6.4,4-6.4c2.9,0,3,3.2,3,5.5v10.3h4.5V47.8c0-4.4-1.8-7.6-5.9-7.6
			c-2.4,0-4.3,0.8-5.7,3.1h-0.1v-2.7h-4.3V60H120.2z"/>
		<path class="st0" d="M142.3,54.1c0,3.9,1.9,6.2,5.5,6.2c1.3,0,2.4-0.1,3.4-0.4l-0.1-4c-0.5,0.3-1.2,0.5-2,0.5
			c-1.7,0-2.1-1.5-2.1-3.2v-9h4v-3.7h-4v-5.5l-4.5,1.6v3.9H139v3.7h3.4v9.8H142.3z"/>
		<path class="st1" d="M152.8,50.5c0,5.5,3.4,10,9.1,10c5.8,0,9.1-4.4,9.1-10c0-6.3-4-10.2-9.1-10.2S152.8,44,152.8,50.5L152.8,50.5
			z M157.6,49.8c0-2.9,1.4-5.7,4.4-5.7c3,0,4.4,2.8,4.4,5.7c0,3.3-0.9,6.7-4.4,6.7S157.6,53,157.6,49.8L157.6,49.8z"/>
		<path class="st0" d="M174.6,60h4.5v-9.5c0-2.5,0.7-6.4,4-6.4c2.9,0,3,3.2,3,5.5v10.3h4.5V47.8c0-4.4-1.8-7.6-5.9-7.6
			c-2.4,0-4.3,0.8-5.7,3.1h-0.1v-2.7h-4.3V60H174.6z"/>
		<path class="st1" d="M196.2,46c1.5-1.3,3.5-2.1,5.4-2.1c2.7,0,3.9,1,3.9,4.2h-2.5c-1.9,0-4.1,0.2-5.8,1.1c-1.7,0.9-3,2.7-3,5.5
			c0,3.7,3,5.7,6.1,5.7c2,0,4.3-1.2,5.4-3.4h0.1c0,0.6,0,1.8,0.2,2.9h4c-0.1-1.5-0.2-2.9-0.2-4.3c0-1.4-0.1-2.9-0.1-4.8v-2.5
			c0-5.7-2.1-8.2-7.5-8.2c-1.9,0-4.3,0.6-6,1.4L196.2,46L196.2,46z M198.6,54.4c0-3,3-3.4,5-3.4h1.9c0,1.5-0.2,2.9-0.9,4
			c-0.7,1-1.8,1.7-3.2,1.7C199.8,56.8,198.6,56.1,198.6,54.4L198.6,54.4z"/>
		<polygon class="st0" points="214.2,60 218.8,60 218.8,31.8 214.2,31.8 		"/>
		<path class="st1" d="M228.1,50.3c0-2.7,1.1-6.1,4.1-6.1s3.8,3.6,3.8,6.1c0,2.7-0.8,6.2-3.8,6.2C229.1,56.5,228.1,53,228.1,50.3
			L228.1,50.3z M223.5,60h4.4v-2.4h0.1c1.3,2,3.4,2.9,5.3,2.9c5.3,0,7.3-4.9,7.3-10.2s-1.9-10-7.3-10c-2.4,0-4,1.1-5.2,3H228V31.8
			h-4.5V60L223.5,60z"/>
		<path class="st1" d="M245.1,46c1.5-1.3,3.5-2.1,5.4-2.1c2.7,0,3.9,1,3.9,4.2H252c-1.9,0-4.1,0.2-5.8,1.1c-1.7,0.9-3,2.7-3,5.5
			c0,3.7,3,5.7,6.1,5.7c2,0,4.3-1.2,5.4-3.4h0.1c0,0.6,0,1.8,0.2,2.9h4c-0.1-1.5-0.2-2.9-0.2-4.3c0-1.4-0.1-2.9-0.1-4.8v-2.5
			c0-5.7-2.1-8.2-7.5-8.2c-1.9,0-4.3,0.6-6,1.4L245.1,46L245.1,46z M247.5,54.4c0-3,3-3.4,5-3.4h1.9c0,1.5-0.2,2.9-0.9,4
			c-0.7,1-1.8,1.7-3.2,1.7C248.7,56.8,247.5,56.1,247.5,54.4L247.5,54.4z"/>
		<path class="st0" d="M263.1,60h4.5v-9.5c0-2.5,0.7-6.4,4-6.4c2.9,0,3,3.2,3,5.5v10.3h4.5V47.8c0-4.4-1.8-7.6-5.9-7.6
			c-2.4,0-4.3,0.8-5.7,3.1h-0.1v-2.7h-4.2V60L263.1,60z"/>
		<polygon class="st0" points="283.8,60 288.4,60 288.4,50.6 288.4,50.6 294.3,60 300,60 292.7,49.3 299.2,40.6 293.9,40.6 
			288.4,48.4 288.4,48.4 288.4,31.8 283.8,31.8 		"/>
	</g>
</g>
</svg>
