<?xml version="1.0" encoding="utf-8"?>
<!-- Generator: Adobe Illustrator 23.1.0, SVG Export Plug-In . SVG Version: 6.00 Build 0)  -->
<svg version="1.1" id="Ebene_1" xmlns="http://www.w3.org/2000/svg" xmlns:xlink="http://www.w3.org/1999/xlink" x="0px" y="0px"
	 width="638.875px" height="135.372px" viewBox="0 0 638.875 135.372" enable-background="new 0 0 638.875 135.372"
	 xml:space="preserve">
<g>
	<path fill="#FFFFFF" stroke="#FFFFFF" stroke-width="2.2" d="M288.465,1.116c17.775,1.248,37.84,7.992,57.818,25.344
		c15.227,13.869,23.328,26.889,24.551,47.521c-0.148,5.185-3.201,10.795-7.92,10.295l-9.502-0.791c-2.102-0.238-0.121,1.334,0,2.375
		c3.756,8,24.156,36.357,29.303,46.729c1.082,2.09-2.108,1.637-2.379,0.791c-2.26-2.314-3.996-7.111-6.336-6.334
		c-1.135,0.957,1.67,4.006,0.793,6.334c-1.654,4.096-6.988-7.24-9.504-7.127c-1.715-0.42,0.863,3.633-0.791,4.752
		c-1.83,0.689-1.83-1.988-3.963-2.377c-0.258,0.389-0.111,5.236-3.164,1.586c-4.689-8.576-31.164-47.135-30.889-55.443
		c0.395-6.85,1.389-11.726,19.006-6.334c2.522,0.631,5.748-2.139,2.377-7.129c-13.256-19.226-24.617-29.141-46.729-36.432
		c-6.885-2.197-11.103-2.625-18.215-3.959c-3.012-0.266-3.809-2.074-1.586-3.961c1.267-0.84,6.965,0.572,6.338-0.789
		c-0.619-1.232-3.859-0.723-5.543-1.586c-0.842-0.82-0.631-3.334,0-3.963c1.035-1.662,3.42-1.396,4.752-2.373
		c0.816-0.904-1.68-1.443-2.375-2.377C281.355,3.147,285.891,0.886,288.465,1.116L288.465,1.116L288.465,1.116z"/>
	<path fill="#FFFFFF" stroke="#FFFFFF" stroke-width="0.7484" stroke-miterlimit="3.8637" d="M288.465,1.116
		c17.775,1.248,37.84,7.992,57.818,25.344c15.227,13.869,23.328,26.889,24.551,47.521c-0.148,5.185-3.201,10.795-7.92,10.295
		l-9.502-0.791c-2.102-0.238-0.121,1.334,0,2.375c3.756,8,24.156,36.357,29.303,46.729c1.082,2.09-2.108,1.637-2.379,0.791
		c-2.26-2.314-3.996-7.111-6.336-6.334c-1.135,0.957,1.67,4.006,0.793,6.334c-1.654,4.096-6.988-7.24-9.504-7.127
		c-1.715-0.42,0.863,3.633-0.791,4.752c-1.83,0.689-1.83-1.988-3.963-2.377c-0.258,0.389-0.111,5.236-3.164,1.586
		c-4.689-8.576-31.164-47.135-30.889-55.443c0.395-6.85,1.389-11.726,19.006-6.334c2.522,0.631,5.748-2.139,2.377-7.129
		c-13.256-19.226-24.617-29.141-46.729-36.432c-6.885-2.197-11.103-2.625-18.215-3.959c-3.012-0.266-3.809-2.074-1.586-3.961
		c1.267-0.84,6.965,0.572,6.338-0.789c-0.619-1.232-3.859-0.723-5.543-1.586c-0.842-0.82-0.631-3.334,0-3.963
		c1.035-1.662,3.42-1.396,4.752-2.373c0.816-0.904-1.68-1.443-2.375-2.377C281.355,3.147,285.891,0.886,288.465,1.116L288.465,1.116
		L288.465,1.116z"/>
</g>
<path fill="#FFFFFF" d="M303.514,32.798l1.584,84.742c-0.043,2.408,1.432,4.604,3.166,4.752c3.154,0.83,0.941-5.717,2.379-4.752
	c1.381,0.219,1.912,2.82,3.17,2.377c2.482-1.607,1.541-4.139,2.373-3.961c1.656-0.334,3.525,4.064,6.336,3.961
	c0.502-0.447,1.094-1.158,0.793-2.377l-0.793-74.447c-0.125-2.949-4.176-10.061-7.129-7.922c-0.834,0.891-0.236,4.381-1.58,3.963
	c-2.363-1.697-2.435-9.729-7.924-8.715C304.5,31.077,303.256,32.216,303.514,32.798L303.514,32.798L303.514,32.798z"/>
<path fill="#FFFFFF" stroke="#FFFFFF" stroke-width="0.7484" stroke-miterlimit="3.8637" d="M303.514,32.798l1.584,84.742
	c-0.043,2.408,1.432,4.604,3.166,4.752c3.154,0.83,0.941-5.717,2.379-4.752c1.381,0.219,1.912,2.82,3.17,2.377
	c2.482-1.607,1.541-4.139,2.373-3.961c1.656-0.334,3.525,4.064,6.336,3.961c0.502-0.447,1.094-1.158,0.793-2.377l-0.793-74.447
	c-0.125-2.949-4.176-10.061-7.129-7.922c-0.834,0.891-0.236,4.381-1.58,3.963c-2.363-1.697-2.435-9.729-7.924-8.715
	C304.5,31.077,303.256,32.216,303.514,32.798L303.514,32.798L303.514,32.798z"/>
<g>
	<path fill="#FFFFFF" d="M31.223,91.384v14.328c-4.111,1.211-7.549,1.742-10.646,1.742C9.297,107.454,0,100.677,0,89.591
		c0-10.26,8.475-17.184,19.943-17.184c2.229,0,6.246,0.631,8.668,1.693l-2.518,6.004c-1.646-0.484-4.649-0.631-5.617-0.631
		c-4.838,0-9.826,3.148-9.826,10.506c0,7.213,5.375,10.408,8.859,10.408c0.34,0,0.873-0.051,1.5-0.244v-8.76H31.223z"/>
	<path fill="#FFFFFF" d="M37.754,72.987h15.102c7.988,0,12.297,3.486,12.297,9.053c0,5.18-2.566,8.23-5.711,9.779l7.502,14.521
		l-10.939,1.113l-5.375-13.408h-2.66v12.828H37.754V72.987z M47.969,87.655h2.904c2.709,0,4.064-2.322,4.064-4.164
		c0-3.338-2.082-4.16-4.26-4.16h-2.709V87.655z"/>
</g>
<g>
	<path fill="#FFFFFF" d="M71.527,106.874V72.987h15.055c6.729,0,11.184,2.76,11.184,7.699c0,5.274-4.504,6.824-6.633,7.791v0.098
		c3.92,0.193,8.811,3.244,8.811,7.938c0,6.197-4.891,10.361-14.475,10.361H71.527z M81.742,86.446h1.791
		c3.727,0,5.035-2.131,5.035-4.357c0-2.855-2.469-3.631-3.969-3.631h-2.857V86.446z M81.742,101.403h1.936
		c3.582,0,5.859-1.791,5.859-5.084c0-2.66-1.359-4.404-4.891-4.404h-2.904V101.403z"/>
</g>
<g>
	<path fill="#FFFFFF" d="M149.98,91.384v13.795c-3.291,1.162-7.406,2.275-11.713,2.275c-12.053,0-18.25-8.326-18.25-17.619
		c0-8.568,6.68-17.428,18.877-17.428c4.939,0,8.813,1.598,10.846,3.293l-1.938,2.807c-2.033-1.404-5.131-2.711-8.859-2.711
		c-8.811,0-13.748,6.004-13.748,13.941c0,8.568,5.857,14.328,13.219,14.328c2.852,0,4.984-0.291,6.873-1.209V91.384H149.98z"/>
</g>
<g>
	<path fill="#FFFFFF" d="M157.836,106.874V71.296h4.354v35.578H157.836z"/>
	<path fill="#FFFFFF" d="M181.455,104.259c-1.695,1.695-3.824,3.195-6.053,3.195c-4.066,0-6.873-2.906-6.873-7.453
		c0-4.213,3.582-6.875,8.615-8.375l5.857-1.842c-0.193-2.951-2.467-4.84-4.838-4.84c-2.811,0-4.6,1.162-6.342,2.615l-1.693-2.18
		c2.418-2.322,4.887-3.291,8.275-3.291c3.631,0,8.955,1.162,8.955,8.229v10.65c0,1.838,0.242,4.164,1.064,5.906h-4.742
		c-0.58-1.018-0.68-2.566-0.68-4.115L181.455,104.259z M178.84,93.901c-3.824,1.16-5.809,3.002-5.809,6.049
		c0,2.52,1.742,4.115,3.486,4.115c3.098,0,7.066-3.824,6.484-11.377L178.84,93.901z"/>
	<path fill="#FFFFFF" d="M199.459,85.671l1.74-1.84c1.018-1.016,2.617-1.742,3.631-1.742c1.066,0,2.664,0.773,4.018,2.371
		l-1.982,2.809c-1.066-0.533-2.129-1.016-3.244-1.016c-2.227,0-4.068,2.225-4.068,7.6v13.021h-4.354V82.669h4.26V85.671z"/>
	<path fill="#FFFFFF" d="M217.17,85.671c2.277-2.42,5.764-3.582,8.281-3.582c5.564,0,8.568,3.098,8.568,9.197v15.588h-4.357V92.206
		c0-4.551-1.938-6.922-5.857-6.922c-3.438,0-6.584,2.371-6.584,7.018v14.572h-4.355V82.669h4.305V85.671z"/>
	<path fill="#FFFFFF" d="M244.855,95.061c-0.047,4.842,3.391,9.293,8.182,9.293c2.225,0,4.938-0.822,6.629-2.078l1.26,2.371
		c-2.516,1.789-5.518,2.807-8.035,2.807c-7.549,0-12.535-4.648-12.535-13.166c0-8.375,6-12.199,11.469-12.199
		c7.361,0,9.828,6.633,9.344,12.973H244.855z M257.201,92.157c0-3.775-1.6-6.971-5.424-6.971c-4.646,0-6.486,3.871-6.629,6.971
		H257.201z"/>
	<path fill="#FFFFFF" d="M271.621,85.671l1.742-1.84c1.016-1.016,2.615-1.742,3.631-1.742c1.063,0,2.662,0.773,4.017,2.371
		l-1.982,2.809c-1.066-0.533-2.133-1.016-3.244-1.016c-2.227,0-4.068,2.225-4.068,7.6v13.021h-4.354V82.669h4.258V85.671z"/>
	<path fill="#FFFFFF" d="M376.16,95.061c-0.049,4.842,3.389,9.293,8.18,9.293c2.228,0,4.938-0.822,6.633-2.078l1.26,2.371
		c-2.516,1.789-5.52,2.807-8.035,2.807c-7.553,0-12.539-4.648-12.539-13.166c0-8.375,6.004-12.199,11.473-12.199
		c7.359,0,9.828,6.633,9.344,12.973H376.16z M388.504,92.157c0-3.775-1.598-6.971-5.422-6.971c-4.645,0-6.484,3.871-6.631,6.971
		H388.504z"/>
	<path fill="#FFFFFF" d="M420.4,106.001c0,9.246-5.76,12.975-12.293,12.975c-3.584,0-7.166-0.68-9.975-2.422l1.211-2.855
		c2.953,1.695,5.664,2.18,8.664,2.18c4.986,0,8.035-3.195,8.035-9.537v-3.291h-0.094c-1.695,2.371-4.264,4.404-8.086,4.404
		c-6.68,0-10.842-5.229-10.842-12.973c0-6.293,4.647-12.393,11.566-12.393c2.904,0,6.002,1.453,7.361,3.922h0.094v-3.342h4.357
		V106.001z M416.043,93.997c0-4.549-2.467-8.811-7.211-8.811c-5.035,0-7.115,3.971-7.115,9.102c0,5.18,2.227,10.066,6.824,10.066
		C413.816,104.354,416.043,99.37,416.043,93.997z"/>
	<path fill="#FFFFFF" d="M427.705,74.683c0-1.211,1.016-2.564,2.758-2.564c1.744,0,2.76,1.354,2.76,2.564
		c0,1.307-0.629,2.953-2.76,2.953C428.334,77.636,427.705,75.989,427.705,74.683z M432.643,82.669v24.205h-4.357V82.669H432.643z"/>
	<path fill="#FFFFFF" d="M438.982,94.481c0-7.842,5.807-12.393,11.908-12.393c6.098,0,11.957,4.551,11.957,12.393
		c0,7.502-4.795,12.973-11.957,12.973C443.775,107.454,438.982,101.983,438.982,94.481z M443.676,94.481
		c0,4.551,1.551,9.873,7.215,9.873c5.711,0,7.26-5.322,7.26-9.873c0-4.357-1.791-9.295-7.26-9.295
		C445.469,85.186,443.676,90.124,443.676,94.481z"/>
	<path fill="#FFFFFF" d="M473.492,85.671c2.275-2.42,5.76-3.582,8.275-3.582c5.568,0,8.568,3.098,8.568,9.197v15.588h-4.355V92.206
		c0-4.551-1.938-6.922-5.857-6.922c-3.436,0-6.584,2.371-6.584,7.018v14.572h-4.357V82.669h4.31V85.671z"/>
	<path fill="#FFFFFF" d="M509.6,104.259c-1.693,1.695-3.824,3.195-6.051,3.195c-4.066,0-6.875-2.906-6.875-7.453
		c0-4.213,3.584-6.875,8.617-8.375l5.858-1.842c-0.193-2.951-2.469-4.84-4.842-4.84c-2.807,0-4.598,1.162-6.342,2.615l-1.693-2.18
		c2.42-2.322,4.889-3.291,8.279-3.291c3.629,0,8.955,1.162,8.955,8.229v10.65c0,1.838,0.242,4.164,1.064,5.906h-4.744
		c-0.582-1.018-0.678-2.566-0.678-4.115L509.6,104.259z M506.984,93.901c-3.824,1.16-5.807,3.002-5.807,6.049
		c0,2.52,1.742,4.115,3.484,4.115c3.098,0,7.066-3.824,6.486-11.377L506.984,93.901z"/>
	<path fill="#FFFFFF" d="M523.342,106.874V71.296h4.357v35.578H523.342z"/>
	<path fill="#FFFFFF" d="M535.586,71.296h4.357v15.15h0.098c1.791-2.904,5.227-4.357,7.938-4.357c9.44,0,10.99,8.471,10.99,11.957
		c0,7.357-4.358,13.408-11.473,13.408c-3.051,0-5.664-1.453-7.455-3.775h-0.098v3.195h-4.357V71.296z M554.271,94.095
		c0-4.406-2.227-8.908-6.728-8.908c-4.938,0-7.6,3.824-7.6,10.068c0,4.648,2.129,9.1,7.553,9.1
		C552.723,104.354,554.271,98.499,554.271,94.095z"/>
	<path fill="#FFFFFF" d="M576.582,104.259c-1.691,1.695-3.824,3.195-6.049,3.195c-4.066,0-6.875-2.906-6.875-7.453
		c0-4.213,3.584-6.875,8.617-8.375l5.857-1.842c-0.193-2.951-2.469-4.84-4.842-4.84c-2.807,0-4.598,1.162-6.342,2.615l-1.693-2.18
		c2.42-2.322,4.889-3.291,8.279-3.291c3.627,0,8.953,1.162,8.953,8.229v10.65c0,1.838,0.244,4.164,1.066,5.906h-4.744
		c-0.582-1.018-0.678-2.566-0.678-4.115L576.582,104.259z M573.969,93.901c-3.824,1.16-5.809,3.002-5.809,6.049
		c0,2.52,1.744,4.115,3.486,4.115c3.098,0,7.066-3.824,6.486-11.377L573.969,93.901z"/>
	<path fill="#FFFFFF" d="M594.637,85.671c2.275-2.42,5.76-3.582,8.275-3.582c5.568,0,8.568,3.098,8.568,9.197v15.588h-4.355V92.206
		c0-4.551-1.938-6.922-5.859-6.922c-3.435,0-6.582,2.371-6.582,7.018v14.572h-4.357V82.669h4.31V85.671z"/>
	<path fill="#FFFFFF" d="M619.463,71.296h4.357v21.152h0.727l9.488-10.262l3.244,1.838l-8.619,9.004l10.215,12.346l-4.309,1.982
		l-10.648-13.697h-0.098v13.215h-4.357V71.296z"/>
</g>
</svg>
