<?xml version="1.0" encoding="utf-8"?>
<!-- Generator: Adobe Illustrator 23.1.0, SVG Export Plug-In . SVG Version: 6.00 Build 0)  -->
<svg version="1.1" id="Ebene_1" xmlns="http://www.w3.org/2000/svg" xmlns:xlink="http://www.w3.org/1999/xlink" x="0px" y="0px"
	 width="300px" height="63.4px" viewBox="0 0 300 63.4" style="enable-background:new 0 0 300 63.4;" xml:space="preserve">
<style type="text/css">
	.st0{fill:#FFFFFF;}
</style>
<g>
	<g>
		<g>
			<g>
				<path class="st0" d="M0,34l5.6-5.6l-5.4-5.4l4.4-4.4l4,4l1.3-1.3l-4.1-4l4.4-4.4l10,10l-4.4,4.4l-4.3-4.3l-1.3,1.3l4.3,4.3
					l-10,10L0,34L0,34z"/>
			</g>
			<g>
				<path class="st0" d="M22.4,20.5c-0.1,0.1-1.1,1.1-1.1,1.1l0,0l-0.1,0.1l-10-10l0,0h0.3l0.7-0.7c0.6-0.6,2.1-2,3.8-2l0,0
					c0.7,0,1.3,0.3,2,0.9l0,0l0.1,0.1c0.7,0.7,0.9,1.4,0.9,2.1l0,0c0,0.1,0,0.3,0,0.6l0,0c0,0.4-0.1,0.9-0.3,1l0,0
					c0,0.1-0.1,0.4-0.1,0.6l0,0v0.1l0,0c0,0,0,0,0.1,0l0,0c0,0,0.1,0,0.3-0.1l0,0c0.1,0,0.7-0.3,1.6-0.3l0,0c0.7,0,1.6,0.1,2.3,0.9
					l0,0c0,0,0,0,0.1,0.1l0,0c0.7,0.7,1,1.6,1,2.3l0,0C23.9,18.9,22.6,20.4,22.4,20.5L22.4,20.5"/>
			</g>
		</g>
		<g>
			<g>
				<path class="st0" d="M27.6,17.7l4.3-4.3l-1.3-1.3l-4.3,4.3l-10-10L20.8,2l5.6,5.6l5.4-5.4l4.4,4.4l-4,4l1.3,1.3l4-4l4.4,4.4
					l-10,10L27.6,17.7L27.6,17.7z"/>
			</g>
			<g>
				<path class="st0" d="M34.5,24.5c-0.1-0.1-1.1-1.1-1.1-1.1l0,0l-0.1-0.1l10-10l0.1,0.1l0.7,0.7c0.6,0.6,1.9,2.1,2,3.8l0,0
					c0,0.7-0.3,1.3-0.7,2l0,0l-0.1,0.1c-0.7,0.7-1.4,0.9-2.1,0.9l0,0c-0.1,0-0.3,0-0.6,0l0,0c-0.4,0-0.9-0.1-1-0.3l0,0
					c-0.1,0-0.4-0.1-0.6-0.1l0,0h-0.1l0,0c0,0,0,0,0,0.1l0,0c0,0,0,0.1,0.1,0.3l0,0c0,0.1,0.3,0.7,0.3,1.6l0,0
					c0,0.7-0.1,1.6-0.9,2.3l0,0c0,0,0,0.1-0.1,0.1l0,0c-0.7,0.7-1.6,1-2.3,1l0,0C36,25.9,34.7,24.6,34.5,24.5L34.5,24.5"/>
			</g>
		</g>
		<g>
			<g>
				<path class="st0" d="M26.5,40.6l10,10L32,55l-5.6-5.6l0,0l-5.4,5.4l-4.4-4.4l4-4l-1.3-1.3l-4,4L11,44.7l10-10l4.4,4.4l-4.3,4.3
					l1.3,1.3L26.5,40.6z"/>
			</g>
			<g>
				<path class="st0" d="M18.5,32.6c0.1,0.1,1.1,1.1,1.1,1.1l0,0l0.1,0.1l-10,10l-0.1-0.1l0,0L9,43c-0.6-0.6-1.9-2.1-1.9-3.8l0,0
					c0-0.7,0.3-1.3,0.9-2l0,0V37c0.7-0.7,1.4-0.9,2.1-0.9l0,0c0.1,0,0.3,0,0.4,0l0,0c0.4,0,0.9,0.1,1,0.3l0,0c0.1,0,0.4,0.1,0.6,0.1
					l0,0h0.1l0,0c0,0,0,0,0-0.1l0,0c0,0,0-0.1-0.1-0.3l0,0c0-0.1-0.3-0.7-0.3-1.6l0,0c0-0.7,0.1-1.6,0.9-2.3l0,0l0.1-0.1l0,0
					c0.7-0.7,1.6-1,2.3-1l0,0C16.9,31.2,18.2,32.5,18.5,32.6L18.5,32.6"/>
			</g>
		</g>
		<g>
			<g>
				<path class="st0" d="M53,23.1l-5.6,5.6l5.4,5.4l-4.4,4.4l-4-4l-1.1,1.1l4,4L42.9,44l-10-10l0,0l4.4-4.4l4.3,4.3l1.3-1.3
					l-4.3-4.3l10-10L53,23.1z"/>
			</g>
			<g>
				<path class="st0" d="M35.2,47.1L35,47c-0.7-0.7-0.9-1.4-0.9-2.1l0,0c0-0.1,0-0.3,0-0.6l0,0c0-0.4,0.1-0.9,0.3-1l0,0
					c0-0.1,0.1-0.4,0.1-0.6l0,0v-0.1l0,0c0,0,0,0-0.1,0l0,0c0,0-0.1,0-0.3,0.1l0,0c-0.1,0-0.7,0.3-1.6,0.3l0,0
					c-0.7,0-1.6-0.1-2.3-0.9l0,0c0,0-0.1,0-0.1-0.1l0,0c-0.7-0.7-1-1.6-1-2.3l0,0c0-1.7,1.3-3,1.6-3.3l0,0c0.1-0.1,1.1-1.1,1.1-1.1
					l0,0l0.1-0.1l10,10l-0.1,0.1L41.1,46c-0.6,0.6-2.1,1.9-3.8,2l0,0C36.4,48,35.7,47.7,35.2,47.1L35.2,47.1z"/>
			</g>
		</g>
	</g>
	<path class="st0" d="M65.6,0h2.6v9.4h12.2V0H83v22.8h-2.6V11.7H68.2v11.1h-2.6C65.6,22.8,65.6,0,65.6,0z"/>
	<path class="st0" d="M94.5,20.2L100,8h2.6l-7.3,15.7c-1.1,2.4-2.3,6-5.6,6c-0.9,0-1.7-0.1-2.6-0.4v-2.6c0.6,0.6,1.3,0.9,2,0.9
		c1.3,0,2.1-0.7,4.1-4.8L86.7,8.1h2.4L94.5,20.2z"/>
	<path class="st0" d="M105.6,8.1h2.3v2.1l0,0c1.3-1.9,3.1-2.7,5.3-2.7c4.3,0,6.4,3.7,6.4,8s-2.1,8-6.4,8c-2.4,0-4-1-5.3-2.7l0,0
		v10.1h-2.3V8.1z M112.6,21.6c3.3,0,4.7-2.8,4.7-6.3s-1.4-6.3-4.7-6.3s-4.7,2.8-4.7,6.3C107.9,18.8,109.3,21.6,112.6,21.6z"/>
	<path class="st0" d="M123.2,15.4c0-5.3,3.6-8,7.7-8c4.1,0,7.7,2.7,7.7,8s-3.6,8-7.7,8C126.7,23.4,123.2,20.8,123.2,15.4z
		 M136.3,15.4c0-3.8-2-6.3-5.4-6.3c-3.3,0-5.4,2.4-5.4,6.3s2,6.3,5.4,6.3C134.1,21.6,136.3,19.2,136.3,15.4z"/>
	<path class="st0" d="M143.4,3.1h2.3V8h3.6v1.7h-3.6v9.4c0,1.3,0.3,2.3,1.4,2.3c0.6,0,1.6-0.3,2.3-0.7v2.1c-0.9,0.3-1.6,0.6-2.6,0.6
		c-2.4,0-3.4-1.3-3.4-4V9.8h-2.1V8.1h2.1C143.4,8.1,143.4,3.1,143.4,3.1z"/>
	<path class="st0" d="M163.7,22.8V12.5c0-1.9-1-3.4-3-3.4c-2.4,0-4.7,1.9-4.7,5.7v8h-2.3V0h2.3v10.5l0,0c1.1-2,2.7-3.1,5-3.1
		c3,0,4.8,2.1,4.8,5.4v10H163.7z"/>
	<path class="st0" d="M172.3,15.8c0,3.4,1.9,5.8,5.1,5.8c2.4,0,3.8-0.9,4.7-2.8h2.4c-0.9,3.3-3.7,4.6-6.8,4.6c-4.6,0-7.5-2.4-7.5-8
		c0-4.4,2.1-8,7.5-8c5.3,0,7,3.7,7.1,8.4C184.8,15.8,172.3,15.8,172.3,15.8z M182.1,14.1c-0.3-3.3-1.6-4.8-4.6-4.8
		c-3.1,0-5,2.3-5.3,4.8H182.1z"/>
	<path class="st0" d="M188.7,0h2.3v15l7.5-6.8h3.3l-6,5.3l6.5,9.4h-2.8l-5.4-8l-3.1,2.8v5.1h-2.3L188.7,0L188.7,0z"/>
	<path class="st0" d="M205.3,12.1c0.7-3.8,3.1-4.7,6.7-4.7c4.1,0,5.7,1.7,5.7,5.7v6.8c0,1,0.1,2.1,0.7,3H216
		c-0.3-0.6-0.4-1.4-0.6-2.3c-1.4,1.9-3.1,2.8-5.4,2.8c-2.7,0-5.3-1.4-5.3-4.4c0-7.8,10.7-3.1,10.7-7.4c0-1.7-2.1-2.4-3.7-2.4
		c-2,0-3.7,0.7-4,2.8H205.3z M215.4,14.1c-1.4,0.9-3.4,1.3-5.7,1.7c-1.4,0.3-2.7,1.3-2.7,2.8c0,2,1.6,3.1,3.4,3.1c2.7,0,5-2.1,5-4.6
		V14.1z"/>
	<path class="st0" d="M222.7,8.1h2.3v3.1l0,0c1.4-2.7,3.6-3.7,6.5-3.7v2c-4.4,0-6.5,2.1-6.5,6.1v7.1h-2.3V8.1z"/>
	<path class="st0" d="M234.6,0h2.3v10.1l0,0c1.3-1.7,2.8-2.7,5.3-2.7c4.3,0,6.4,3.7,6.4,8s-2.1,8-6.4,8c-2.1,0-3.8-1-5.3-2.7l0,0
		v2.1h-2.3V0z M241.6,21.6c3.3,0,4.7-2.8,4.7-6.3s-1.4-6.3-4.7-6.3c-3.3,0-4.7,2.8-4.7,6.3S238.3,21.6,241.6,21.6z"/>
	<path class="st0" d="M252.6,12.1c0.7-3.8,3.1-4.7,6.7-4.7c4.1,0,5.7,1.7,5.7,5.7v6.8c0,1,0.1,2.1,0.7,3h-2.4
		c-0.3-0.6-0.4-1.4-0.6-2.3c-1.4,1.9-3.1,2.8-5.4,2.8c-2.7,0-5.3-1.4-5.3-4.4c0-7.8,10.7-3.1,10.7-7.4c0-1.7-2.1-2.4-3.7-2.4
		c-2,0-3.7,0.7-4,2.8H252.6z M262.7,14.1c-1.4,0.9-3.6,1.3-5.7,1.7c-1.4,0.3-2.7,1.3-2.7,2.8c0,2,1.6,3.1,3.4,3.1c2.7,0,5-2.1,5-4.6
		V14.1z"/>
	<path class="st0" d="M279.5,22.8V12.5c0-1.9-1-3.4-3-3.4c-2.4,0-4.7,1.9-4.7,5.7v8h-2.3V8.1h2.3v2.6l0,0c1.1-2,2.7-3.1,5-3.1
		c3,0,4.8,2.1,4.8,5.4v10h-2.1V22.8z"/>
	<path class="st0" d="M286.3,0h2.3v15l7.5-6.8h3.3l-6,5.3l6.5,9.4h-2.8l-5.4-8l-3.1,2.8v5.1h-2.3L286.3,0L286.3,0z"/>
	<path class="st0" d="M65.6,34.5h2.4v20.1h11.7v2.3H65.6V34.5z"/>
	<path class="st0" d="M84.3,50c0,3.3,1.9,5.7,5,5.7c2.4,0,3.8-0.7,4.6-2.7h2.3c-0.9,3.1-3.6,4.4-6.7,4.4C85,57.4,82,55,82,49.5
		c0-4.3,2.1-7.7,7.4-7.7c5.1,0,6.8,3.6,7,8.1C96.4,50,84.3,50,84.3,50z M94,48.3c-0.3-3.1-1.6-4.8-4.6-4.8c-3.1,0-5,2.3-5.1,4.8H94z
		"/>
	<path class="st0" d="M110.1,56.8v-10c0-1.7-1-3.3-3-3.3c-2.4,0-4.6,1.9-4.6,5.6v7.7h-2.3V42.3h2.3v2.4l0,0c1-1.9,2.6-3,4.8-3
		c2.8,0,4.8,2.1,4.8,5.3v9.7h-2.1V56.8z"/>
	<path class="st0" d="M116.3,42.3h11.4v2.1L118.6,55h9.1v1.9h-11.8v-2.1l9.1-10.5h-8.7V42.3z"/>
	<path class="st0" d="M131.3,34.5h2.3v10l0,0c1.3-1.7,2.7-2.6,5.1-2.6c4.1,0,6.3,3.6,6.3,7.8s-2.1,7.8-6.3,7.8c-2,0-3.8-0.9-5.1-2.7
		l0,0V57h-2.3V34.5z M138.1,55.7c3.3,0,4.6-2.8,4.6-6.1s-1.3-6.1-4.6-6.1s-4.6,2.8-4.6,6.1S134.8,55.7,138.1,55.7z"/>
	<path class="st0" d="M150.5,42.3v10c0,1.7,1,3.3,3,3.3c2.4,0,4.6-1.9,4.6-5.6v-7.7h2.3v14.4H158v-2.4l0,0c-1,1.9-2.6,3-4.8,3
		c-2.8,0-4.8-2.1-4.8-5.3v-9.7C148.4,42.3,150.5,42.3,150.5,42.3z"/>
	<path class="st0" d="M164.6,42.3h2.3v3.1l0,0c1.3-2.6,3.6-3.7,6.4-3.7v1.9c-4.3,0-6.4,2-6.4,6v7.1h-2.3V42.3z"/>
	<path class="st0" d="M188.5,42.3V56c0,4.1-1.6,7.4-7.1,7.4c-3.7,0-5.7-2.4-5.7-4.4l0,0h2.1c0.3,2.1,2,2.8,3.8,2.8
		c2.7,0,4.7-1.9,4.7-5.1v-1.9l0,0c-1.3,1.7-3,2.6-5.1,2.6c-4.1,0-6.3-3.6-6.3-7.8s2.1-7.8,6.3-7.8c2.4,0,3.8,0.9,5.1,2.6l0,0v-2
		C186.4,42.3,188.5,42.3,188.5,42.3z M181.5,55.7c3.3,0,4.6-2.8,4.6-6.1s-1.3-6.1-4.6-6.1c-3.3,0-4.6,2.8-4.6,6.1
		S178.4,55.7,181.5,55.7z"/>
</g>
</svg>
