<?xml version="1.0" encoding="utf-8"?>
<!-- Generator: Adobe Illustrator 23.1.0, SVG Export Plug-In . SVG Version: 6.00 Build 0)  -->
<svg version="1.1" id="Ebene_01" xmlns="http://www.w3.org/2000/svg" xmlns:xlink="http://www.w3.org/1999/xlink" x="0px" y="0px"
	 width="300px" height="68.1px" viewBox="0 0 300 68.1" style="enable-background:new 0 0 300 68.1;" xml:space="preserve">
<style type="text/css">
	.st0{fill:#FFFFFF;}
</style>
<g>
	<g>
		<g>
			<path class="st0" d="M221,57.1c0,0.2,0,0.4,0,0.4h-5.1c0-0.2,0-0.2,0-0.4c0-0.2,0-0.2,0-0.4v-0.2l1.2-0.4c0.2,0,0.2-0.2,0.4-0.2
				c0.2-0.2,0.2-0.2,0.2-0.4v-1.9v-2.6h-1.9v-0.9l3.5-0.5v3.9v2.1c0,0.2,0,0.4,0.2,0.4c0,0,0.2,0.2,0.4,0.2l1.4,0.4
				C221,56.8,221,57,221,57.1z"/>
			<path class="st0" d="M228.6,54.9c0,0.4-0.2,0.9-0.4,1.2c-0.2,0.4-0.4,0.7-0.7,0.9c-0.4,0.2-0.7,0.5-1.1,0.5
				c-0.4,0.2-0.9,0.2-1.4,0.2c-0.5,0-0.9,0-1.2-0.2c-0.4-0.2-0.7-0.4-1.1-0.5c-0.4-0.2-0.5-0.5-0.7-0.9s-0.2-0.7-0.2-1.1
				c0-0.5,0.2-1.1,0.5-1.4c0.4-0.4,0.7-0.7,1.2-1.1c-0.4-0.4-0.7-0.5-1.1-0.9c-0.4-0.4-0.4-0.9-0.4-1.2c0-0.4,0-0.5,0.2-0.9
				c0.2-0.4,0.4-0.5,0.5-0.9c0.2-0.2,0.5-0.5,0.9-0.7c0.4-0.2,0.7-0.2,1.2-0.2c0.9,0,1.6,0.2,2.1,0.5c0.5,0.4,0.9,0.9,0.9,1.6
				c0,0.4,0,0.5-0.2,0.9c0,0.2-0.2,0.5-0.4,0.7c-0.2,0.2-0.4,0.4-0.5,0.5c-0.2,0.2-0.5,0.4-0.7,0.4c0.2,0.2,0.5,0.4,0.7,0.4
				c0.2,0.2,0.5,0.4,0.7,0.5c0.2,0.2,0.4,0.4,0.5,0.7C228.6,54.1,228.6,54.5,228.6,54.9z M227,55.2c0-0.2,0-0.4-0.2-0.5
				s-0.4-0.4-0.5-0.5s-0.5-0.4-0.9-0.5c-0.4-0.2-0.7-0.4-0.9-0.5c-0.2,0.4-0.5,0.5-0.7,0.9c-0.2,0.4-0.2,0.7-0.2,1.1
				c0,0.2,0,0.4,0.2,0.7c0,0.2,0.2,0.4,0.4,0.5s0.4,0.4,0.5,0.4c0.2,0.2,0.5,0.2,0.7,0.2c0.5,0,1.1-0.2,1.2-0.4
				C226.8,56.1,227,55.6,227,55.2z M226.8,50.1c0-0.2,0-0.4,0-0.5c0-0.2-0.2-0.4-0.2-0.5c-0.2-0.2-0.4-0.4-0.5-0.4
				c-0.2-0.2-0.5-0.2-0.7-0.2c-0.5,0-0.9,0.2-1.1,0.4c-0.2,0.4-0.4,0.5-0.4,1.1c0,0.2,0,0.5,0.2,0.7s0.4,0.4,0.5,0.5
				c0.2,0.2,0.4,0.4,0.7,0.4c0.2,0.2,0.5,0.2,0.7,0.4c0.4-0.2,0.5-0.5,0.7-0.9C226.8,51,226.8,50.6,226.8,50.1z"/>
			<path class="st0" d="M236.5,54.1c0,0.5,0,0.9-0.2,1.4c-0.2,0.4-0.4,0.9-0.7,1.1c-0.4,0.4-0.7,0.5-1.1,0.7
				c-0.4,0.2-0.9,0.4-1.2,0.4c-0.7,0-1.2-0.2-1.8-0.4c-0.5-0.2-0.7-0.5-1.1-0.9c-0.2-0.4-0.4-0.9-0.5-1.4s-0.2-1.1-0.2-1.8
				s0.2-1.4,0.4-1.9c0.2-0.7,0.5-1.2,0.9-1.8c0.4-0.5,0.9-1.1,1.4-1.4c0.5-0.4,1.2-0.5,1.9-0.5c0.2,0,0.5,0,0.7,0
				c0.2,0,0.5,0,0.7,0.2l-0.4,1.2c-0.2,0-0.4-0.2-0.5-0.2s-0.4,0-0.5,0c-0.7,0-1.2,0.2-1.6,0.4c-0.4,0.4-0.7,0.7-0.9,1.1
				c-0.2,0.4-0.4,0.9-0.4,1.4s0,1.1,0,1.6c0,0.4,0,0.7,0,1.1s0.2,0.7,0.4,1.1c0.2,0.4,0.4,0.5,0.5,0.9c0.2,0.2,0.5,0.4,1.1,0.4
				c0.4,0,0.5,0,0.7-0.2c0.2-0.2,0.4-0.4,0.5-0.5c0.2-0.2,0.2-0.4,0.2-0.7c0-0.2,0-0.5,0-0.7c0-0.5-0.2-1.1-0.4-1.4
				c-0.4-0.4-0.7-0.5-1.2-0.5c-0.2,0-0.2,0-0.4,0c-0.2,0-0.4,0-0.4,0l-0.2-0.9c0.2,0,0.5-0.2,0.7-0.2c0.2,0,0.5,0,0.7,0
				c0.9,0,1.6,0.2,1.9,0.7C236.2,52.6,236.5,53.3,236.5,54.1z"/>
			<path class="st0" d="M243,57.1c0,0.2,0,0.4,0,0.4h-5.1c0-0.2,0-0.2,0-0.4c0-0.2,0-0.2,0-0.4v-0.2l1.2-0.4c0.2,0,0.2-0.2,0.4-0.2
				c0.2-0.2,0.2-0.2,0.2-0.4v-1.9v-2.6h-1.9v-0.9l3.5-0.5v3.9v2.1c0,0.2,0,0.4,0.2,0.4c0,0,0.2,0.2,0.4,0.2l1.4,0.4
				C243,56.8,243,57,243,57.1z"/>
		</g>
		<path class="st0" d="M73,42.5H60.1c0-0.4,0-0.7,0-1.1v-0.4l1.4-0.4c0.4,0,0.5-0.2,0.7-0.5c0.2-0.2,0.4-0.5,0.4-0.9v-3.7v-7.4
			c0-0.4,0-0.7-0.2-0.9c-0.2-0.4-0.4-0.5-0.7-0.5l-1.4-0.5c0-0.2,0-0.4,0-0.5c0-0.2,0-0.4,0-0.5h7.1c0,0.4,0,0.5,0,0.9v0.2v0.2h-1.1
			c-0.4,0-0.5,0.2-0.7,0.4c-0.2,0.2-0.2,0.4-0.2,0.7v7.9l0.2,4.9l3.9-0.2c0.4,0,0.7-0.2,1.1-0.4c0.4-0.2,0.7-0.4,0.9-0.7
			c0.2-0.2,0.5-0.5,0.7-0.9c0.2-0.4,0.4-0.5,0.4-0.9l1.2,0.2L73,42.5z"/>
		<path class="st0" d="M82.5,41.8c0,0.4,0,0.5-0.2,0.7h-7.2c0-0.2,0-0.4,0-0.5s0-0.4,0-0.7l1.6-0.5c0.2,0,0.4-0.2,0.5-0.5
			c0.2-0.2,0.2-0.5,0.2-0.7v-3.7v-4.9H75v-1.4c0.4,0,0.5-0.2,0.9-0.2c0.4,0,0.7-0.2,1.1-0.2c0.4,0,0.7-0.2,1.1-0.2s0.7,0,0.9,0
			c0.4,0,0.7,0,0.9,0.2c0.2,0.2,0.2,0.4,0.2,0.7v6V40c0,0.2,0,0.5,0.2,0.5c0,0.2,0.2,0.2,0.4,0.2l1.9,0.4
			C82.5,41.3,82.5,41.4,82.5,41.8z M80.8,24.9c0,0.2,0,0.4-0.2,0.5c-0.2,0.2-0.4,0.5-0.5,0.7c-0.2,0.2-0.5,0.4-0.7,0.5
			c-0.2,0.2-0.4,0.2-0.5,0.2c-0.2,0-0.4,0-0.5-0.2c-0.2-0.2-0.5-0.4-0.7-0.5c-0.2-0.2-0.4-0.5-0.5-0.7c-0.2-0.2-0.2-0.4-0.2-0.5
			c0-0.2,0-0.4,0.2-0.5c0.2-0.2,0.4-0.5,0.5-0.7c0.2-0.2,0.5-0.4,0.7-0.5c0.2-0.2,0.4-0.2,0.5-0.2c0.2,0,0.4,0,0.5,0.2
			c0.2,0.2,0.5,0.4,0.7,0.5c0.2,0.2,0.4,0.5,0.5,0.7C80.6,24.5,80.8,24.7,80.8,24.9z"/>
		<path class="st0" d="M86.9,36c0,1.1,0.2,1.8,0.5,2.3c0.2,0.5,0.5,1.1,0.9,1.4c0.4,0.4,0.9,0.5,1.4,0.7c0.5,0.2,1.1,0.2,1.8,0.2
			c0.5,0,1.1,0,1.8-0.2c0.7,0,1.2-0.2,1.9-0.4l0.5,1.6c-0.2,0.2-0.5,0.4-0.9,0.5c-0.7,0-1.1,0.2-1.4,0.2c-0.4,0.2-0.9,0.2-1.2,0.2
			s-0.9,0-1.2,0c-1.1,0-1.9-0.2-2.8-0.4c-0.9-0.2-1.6-0.5-2.1-1.1c-0.5-0.5-1.1-1.2-1.4-2.1c-0.4-0.9-0.5-1.9-0.5-3.4
			c0-1.1,0.2-1.9,0.5-2.8c0.4-0.9,0.7-1.6,1.2-2.3s1.2-1.2,1.9-1.6c0.7-0.4,1.6-0.5,2.6-0.5c1.1,0,1.8,0.2,2.5,0.5
			c0.7,0.4,1.2,0.7,1.6,1.2c0.4,0.5,0.7,1.2,0.9,1.9c0.2,0.7,0.4,1.6,0.4,2.6v0.9h-8.8V36z M92.2,31.4c-0.4-0.7-1.1-1.1-1.9-1.1
			s-1.8,0.4-2.3,1.1s-0.9,1.8-1.1,3h5.8C92.8,33.2,92.6,32.1,92.2,31.4z"/>
		<path class="st0" d="M109,30.5c0,0.5-0.2,1.1-0.4,1.4c-0.2,0.4-0.5,0.5-0.9,0.9c-0.2-0.2-0.4-0.4-0.5-0.7
			c-0.2-0.2-0.5-0.5-0.7-0.7c-0.4-0.2-0.5-0.4-0.9-0.5c-0.4-0.2-0.5-0.2-0.9-0.2c-1.2,0-2.1,0.4-2.6,1.2c-0.5,0.7-0.9,2.1-0.9,3.9
			c0,0.7,0,1.4,0.2,1.9c0.2,0.5,0.4,1.1,0.7,1.6c0.4,0.4,0.7,0.7,1.4,1.1c0.5,0.2,1.2,0.4,2.1,0.4c0.5,0,1.1,0,1.8-0.2
			c0.5,0,1.1-0.2,1.4-0.4l0.5,1.6c-0.4,0.2-1.1,0.5-1.8,0.7c-0.7,0.2-1.6,0.4-2.6,0.4c-1.2,0-2.3-0.2-3-0.4
			c-0.9-0.2-1.4-0.7-1.9-1.2c-0.5-0.5-0.9-1.2-1.1-2.3c-0.2-0.9-0.4-1.9-0.4-3.2c0-0.9,0.2-1.8,0.5-2.5c0.4-0.9,0.7-1.6,1.2-2.3
			c0.5-0.7,1.2-1.2,2.1-1.6c0.9-0.4,1.8-0.5,2.8-0.5c0.4,0,0.9,0,1.2,0c0.5,0,0.9,0.2,1.4,0.2c0.4,0.2,0.9,0.4,1.1,0.5
			C108.8,29.8,109,30.2,109,30.5z"/>
		<path class="st0" d="M126.6,41.8c0,0.4,0,0.5-0.2,0.7h-6.3c0-0.2,0-0.4,0-0.5s0-0.4,0-0.5v-0.2l1.1-0.5c0.2-0.2,0.4-0.4,0.5-0.5
			c0.2-0.4,0.2-0.5,0.2-0.7v-3.7v-1.9c0-0.5,0-0.9,0-1.4c0-0.4-0.2-0.7-0.4-0.9c-0.2-0.2-0.4-0.4-0.7-0.5c-0.4-0.2-0.7-0.2-1.4-0.2
			c-0.4,0-0.7,0-1.1,0.2c-0.4,0-0.7,0.2-1.1,0.2c-0.4,0.2-0.7,0.2-1.1,0.4c-0.4,0.2-0.5,0.2-0.7,0.4v3.9v4.1c0,0.4,0,0.5,0,0.5
			c0,0.2,0.2,0.2,0.4,0.4l1.9,0.4c0,0.2,0,0.4,0,0.7c0,0.2,0,0.5-0.2,0.7h-6.9c0-0.4,0-0.7,0-0.9v-0.4l1.2-0.5
			c0.5-0.2,0.7-0.7,0.7-1.4v-3.7V25.4h-2.3V24c0.4,0,0.5-0.2,0.9-0.2c0.4,0,0.7-0.2,1.1-0.2c0.4,0,0.7-0.2,1.1-0.2
			c0.4,0,0.7,0,0.9,0c0.4,0,0.7,0,0.7,0.2c0.2,0.2,0.2,0.4,0.2,0.7v6c0.2-0.2,0.5-0.4,0.9-0.5c0.4-0.2,0.7-0.4,1.1-0.5
			c0.4-0.2,0.9-0.4,1.4-0.4c0.5-0.2,1.1-0.2,1.6-0.2c1.1,0,1.8,0.2,2.3,0.4s1.1,0.5,1.2,0.9c0.4,0.4,0.5,0.9,0.5,1.4
			c0,0.5,0.2,1.2,0.2,1.8v2.5V40c0,0.2,0,0.4,0.2,0.4c0,0,0.2,0.2,0.4,0.2l1.8,0.4C126.6,41.3,126.6,41.6,126.6,41.8z"/>
		<path class="st0" d="M137.2,42.3c-0.2,0-0.5,0.2-0.7,0.2c-0.4,0-0.5,0.2-0.9,0.2s-0.5,0-0.7,0c-0.9,0-1.6,0-2.1-0.2
			c-0.5,0-1.1-0.2-1.6-0.5c-0.4-0.2-0.7-0.7-0.9-1.2s-0.4-1.2-0.4-2.1v-0.2v-7.8H128v-1.1l4.2-3.5h0.5v2.8h4.6v1.9h-4.6v4.8v3
			c0,0.4,0,0.7,0.2,1.1c0,0.2,0.2,0.4,0.4,0.5c0.2,0.2,0.4,0.2,0.7,0.2s0.7,0,1.1,0c0.5,0,0.9,0,1.2,0c0.4,0,0.7,0,1.1-0.2l0.4,1.8
			C137.7,42.2,137.6,42.2,137.2,42.3z"/>
		<path class="st0" d="M142.3,36c0,1.1,0.2,1.8,0.5,2.3c0.2,0.5,0.5,1.1,0.9,1.4c0.4,0.4,0.9,0.5,1.4,0.7c0.5,0.2,1.1,0.2,1.8,0.2
			c0.5,0,1.1,0,1.8-0.2c0.7,0,1.2-0.2,1.9-0.4l0.5,1.6c-0.2,0.2-0.5,0.4-0.9,0.5c-0.4,0.2-0.7,0.2-1.2,0.4c-0.4,0.2-0.9,0.2-1.2,0.2
			c-0.4,0-0.9,0-1.2,0c-1.1,0-1.9-0.2-2.8-0.4s-1.6-0.5-2.1-1.1c-0.5-0.5-1.1-1.2-1.4-2.1c-0.4-0.9-0.5-1.9-0.5-3.4
			c0-1.1,0.2-1.9,0.5-2.8c0.4-0.9,0.7-1.6,1.2-2.3s1.2-1.2,1.9-1.6c0.7-0.4,1.6-0.5,2.6-0.5s1.8,0.2,2.5,0.5
			c0.7,0.4,1.2,0.7,1.6,1.2c0.4,0.5,0.7,1.2,0.9,1.9c0.2,0.7,0.4,1.6,0.4,2.6v0.9h-9V36z M147.6,31.4c-0.4-0.7-1.1-1.1-1.9-1.1
			s-1.8,0.4-2.3,1.1c-0.5,0.7-0.9,1.8-1.1,3h5.8C148.3,33.2,148.1,32.1,147.6,31.4z"/>
		<path class="st0" d="M169.5,41.8c0,0.2,0,0.5-0.2,0.7h-6.2c0-0.2,0-0.4,0-0.5s0-0.4,0-0.5s0-0.4,0-0.4l0.7-0.5
			c0.2-0.2,0.4-0.4,0.5-0.5c0.2-0.2,0.2-0.5,0.2-0.7v-3.9v-1.9c0-0.5,0-0.9,0-1.4c0-0.4-0.2-0.7-0.4-0.9c-0.2-0.2-0.4-0.4-0.7-0.5
			c-0.4-0.2-0.7-0.2-1.4-0.2c-0.4,0-0.7,0-1.1,0.2c-0.4,0-0.7,0.2-1.1,0.2c-0.4,0.2-0.7,0.2-0.9,0.4c-0.4,0.2-0.5,0.2-0.7,0.4v3.9
			v4.2v0.2c0,0.2,0,0.4,0,0.4c0,0.2,0.2,0.2,0.4,0.2l1.9,0.4c0,0.2,0,0.4,0,0.7c0,0.2,0,0.5-0.2,0.7h-6.7c0-0.2,0-0.4,0-0.5
			c0-0.2,0-0.4,0-0.5l1.2-0.5c0.2-0.2,0.4-0.4,0.5-0.5c0.2-0.2,0.2-0.5,0.2-0.7v-3.7v-4.9h-2.3v-1.4c0.4,0,0.5-0.2,0.9-0.2
			s0.7-0.2,1.1-0.2s0.7-0.2,1.1-0.2c0.4,0,0.7,0,0.9,0c0.4,0,0.5,0,0.7,0.2c0.2,0.2,0.2,0.4,0.2,0.7v0.7c0.2-0.2,0.5-0.4,0.9-0.5
			c0.4-0.2,0.7-0.4,1.1-0.5c0.4-0.2,0.9-0.4,1.2-0.4c0.5-0.2,1.1-0.2,1.6-0.2c1.1,0,1.8,0.2,2.3,0.4c0.5,0.2,1.1,0.5,1.2,0.9
			c0.4,0.4,0.5,0.9,0.5,1.4c0,0.5,0.2,1.2,0.2,1.8v2.5v4.6c0,0.2,0,0.4,0,0.4s0.2,0.2,0.4,0.2l1.9,0.4
			C169.5,41.3,169.5,41.6,169.5,41.8z"/>
		<path class="st0" d="M181.7,38.6c0,0.9-0.2,1.4-0.5,1.9c-0.4,0.5-0.7,0.9-1.2,1.2c-0.5,0.4-1.1,0.5-1.8,0.7
			c-0.7,0.2-1.2,0.2-1.9,0.2c-1.1,0-1.8-0.2-2.6-0.4c-0.7-0.2-1.4-0.4-2.1-0.7l0.2-3.7h1.2c0,0.9,0.4,1.6,1.1,2.1
			c0.5,0.5,1.4,0.9,2.3,0.9c0.7,0,1.4-0.2,1.8-0.4c0.5-0.4,0.7-0.7,0.7-1.4c0-0.4-0.2-0.7-0.5-0.9c-0.4-0.2-0.7-0.5-1.2-0.7
			c-0.5-0.2-1.1-0.5-1.6-0.7c-0.5-0.2-1.1-0.5-1.6-0.9c-0.5-0.4-0.9-0.9-1.2-1.4c-0.4-0.5-0.5-1.2-0.5-1.9s0.2-1.2,0.4-1.8
			c0.2-0.5,0.7-0.9,1.1-1.2c0.5-0.4,1.1-0.5,1.6-0.7c0.5-0.2,1.2-0.2,1.9-0.2c0.7,0,1.4,0,2.1,0.2s1.4,0.4,2.1,0.7l-0.5,3.4
			l-1.1-0.2c-0.2-0.7-0.5-1.2-1.1-1.8c-0.5-0.5-1.2-0.7-2.1-0.7c-0.7,0-1.2,0.2-1.6,0.5c-0.4,0.4-0.5,0.7-0.5,1.2
			c0,0.4,0.2,0.7,0.5,0.9c0.4,0.2,0.9,0.5,1.4,0.7c0.5,0.2,1.1,0.5,1.8,0.7c0.5,0.2,1.2,0.5,1.8,0.9c0.5,0.4,0.9,0.7,1.4,1.2
			C181.5,37.2,181.7,37.9,181.7,38.6z"/>
		<path class="st0" d="M192.8,42.3c-0.2,0-0.5,0.2-0.7,0.2c-0.4,0-0.5,0.2-0.9,0.2c-0.4,0-0.5,0-0.7,0c-0.9,0-1.6,0-2.1-0.2
			c-0.5,0-1.1-0.2-1.6-0.5c-0.4-0.2-0.7-0.7-0.9-1.2c-0.2-0.5-0.4-1.2-0.4-2.1v-0.2v-7.8h-1.9v-1.1l4.2-3.5h0.5v2.8h4.6v1.9h-4.6
			v4.8v3c0,0.4,0,0.7,0.2,1.1c0,0.2,0.2,0.4,0.4,0.5c0.2,0.2,0.4,0.2,0.7,0.2s0.7,0,1.1,0c0.5,0,0.9,0,1.2,0c0.4,0,0.7,0,1.1-0.2
			l0.4,1.8C193.1,42.2,192.9,42.2,192.8,42.3z"/>
		<path class="st0" d="M197.5,36c0,1.1,0.2,1.8,0.5,2.3c0.2,0.5,0.5,1.1,0.9,1.4c0.4,0.4,0.9,0.5,1.4,0.7c0.5,0.2,1.1,0.2,1.8,0.2
			c0.5,0,1.1,0,1.8-0.2c0.7,0,1.2-0.2,1.9-0.4l0.5,1.6c-0.4,0.2-0.5,0.4-0.9,0.5c-0.4,0.2-0.7,0.2-1.2,0.4c-0.4,0.2-0.9,0.2-1.2,0.2
			c-0.4,0-0.9,0-1.2,0c-1.1,0-1.9-0.2-2.8-0.4s-1.6-0.5-2.1-1.1c-0.5-0.5-1.1-1.2-1.4-2.1c-0.4-0.9-0.5-1.9-0.5-3.4
			c0-1.1,0.2-1.9,0.5-2.8c0.4-0.9,0.7-1.6,1.2-2.3c0.5-0.7,1.2-1.2,1.9-1.6c0.7-0.4,1.6-0.5,2.6-0.5s1.8,0.2,2.5,0.5
			c0.7,0.4,1.2,0.7,1.6,1.2c0.4,0.5,0.7,1.2,0.9,1.9c0.2,0.7,0.4,1.6,0.4,2.6v0.9h-9V36z M202.8,31.4c-0.4-0.7-1.1-1.1-1.9-1.1
			c-0.9,0-1.8,0.4-2.3,1.1c-0.5,0.7-0.9,1.8-1.1,3h5.8C203.4,33.2,203.2,32.1,202.8,31.4z"/>
		<path class="st0" d="M215.9,41.8c0,0.4,0,0.5-0.2,0.7h-7.2c0-0.2,0-0.4,0-0.5s0-0.4,0-0.7l1.6-0.5c0.2,0,0.4-0.2,0.5-0.5
			c0.2-0.2,0.2-0.5,0.2-0.7v-3.7v-4.9h-2.5v-1.4c0.4,0,0.5-0.2,0.9-0.2c0.4,0,0.7-0.2,1.1-0.2s0.7-0.2,1.1-0.2s0.7,0,0.9,0
			c0.4,0,0.7,0,0.9,0.2c0.2,0.2,0.2,0.4,0.2,0.7v6V40c0,0.2,0,0.5,0.2,0.5c0,0.2,0.2,0.2,0.4,0.2l1.9,0.4
			C215.9,41.3,215.9,41.4,215.9,41.8z M214.1,24.9c0,0.2,0,0.4-0.2,0.5c-0.2,0.2-0.4,0.5-0.5,0.7c-0.2,0.2-0.5,0.4-0.7,0.5
			c-0.2,0.2-0.4,0.2-0.5,0.2c-0.2,0-0.4,0-0.5-0.2c-0.2-0.2-0.5-0.4-0.7-0.5c-0.2-0.2-0.4-0.5-0.5-0.7c-0.2-0.2-0.2-0.4-0.2-0.5
			c0-0.2,0-0.4,0.2-0.5c0.2-0.2,0.4-0.5,0.5-0.7c0.2-0.2,0.5-0.4,0.7-0.5c0.2-0.2,0.4-0.2,0.5-0.2c0.2,0,0.4,0,0.5,0.2
			c0.2,0.2,0.5,0.4,0.7,0.5c0.2,0.2,0.4,0.5,0.5,0.7C213.9,24.5,214.1,24.7,214.1,24.9z"/>
		<path class="st0" d="M233.7,41.8c0,0.2,0,0.5-0.2,0.7h-6.2c0-0.2,0-0.4,0-0.5s0-0.4,0-0.5s0-0.4,0-0.4l0.7-0.5
			c0.2-0.2,0.4-0.4,0.5-0.5c0.2-0.2,0.2-0.5,0.2-0.7v-3.9v-1.9c0-0.5,0-0.9,0-1.4c0-0.4-0.2-0.7-0.4-0.9c-0.2-0.2-0.4-0.4-0.7-0.5
			c-0.4-0.2-0.7-0.2-1.4-0.2c-0.4,0-0.7,0-1.1,0.2c-0.4,0-0.7,0.2-1.1,0.2c-0.4,0.2-0.7,0.2-0.9,0.4c-0.4,0.2-0.5,0.2-0.7,0.4v3.9
			v4.2v0.2c0,0.2,0,0.4,0,0.4c0,0.2,0.2,0.2,0.4,0.2l1.9,0.4c0,0.2,0,0.4,0,0.7c0,0.2,0,0.5-0.2,0.7H218c0-0.2,0-0.4,0-0.5
			c0-0.2,0-0.4,0-0.5l1.2-0.5c0.2-0.2,0.4-0.4,0.5-0.5c0.2-0.2,0.2-0.5,0.2-0.7v-3.7v-4.9h-2.3v-1.4c0.4,0,0.5-0.2,0.9-0.2
			c0.4,0,0.7-0.2,1.1-0.2c0.4,0,0.7-0.2,1.1-0.2c0.4,0,0.7,0,0.9,0c0.4,0,0.5,0,0.7,0.2c0.2,0.2,0.2,0.4,0.2,0.7v0.7
			c0.2-0.2,0.5-0.4,0.9-0.5c0.4-0.2,0.7-0.4,1.1-0.5c0.4-0.2,0.9-0.4,1.2-0.4c0.5-0.2,1.1-0.2,1.6-0.2c1.1,0,1.8,0.2,2.3,0.4
			c0.5,0.2,1.1,0.5,1.2,0.9c0.4,0.4,0.5,0.9,0.5,1.4c0,0.5,0.2,1.2,0.2,1.8v2.5v4.6c0,0.2,0,0.4,0,0.4s0.2,0.2,0.4,0.2l1.9,0.4
			C233.7,41.3,233.7,41.6,233.7,41.8z"/>
		<path class="st0" d="M243.2,41.8c0,0.4,0,0.5-0.2,0.7h-7.2c0-0.2,0-0.4,0-0.5s0-0.4,0-0.7l1.6-0.5c0.2,0,0.4-0.2,0.5-0.5
			c0.2-0.2,0.2-0.5,0.2-0.7v-3.7v-4.9h-2.5v-1.4c0.4,0,0.5-0.2,0.9-0.2c0.4,0,0.7-0.2,1.1-0.2c0.4,0,0.7-0.2,1.1-0.2
			c0.4,0,0.7,0,0.9,0c0.4,0,0.7,0,0.9,0.2c0.2,0.2,0.2,0.4,0.2,0.7v6V40c0,0.2,0,0.5,0.2,0.5c0,0.2,0.2,0.2,0.4,0.2l1.9,0.4
			C243.4,41.3,243.4,41.4,243.2,41.8z M241.4,24.9c0,0.2,0,0.4-0.2,0.5c-0.2,0.2-0.4,0.5-0.5,0.7s-0.5,0.4-0.7,0.5
			c-0.2,0.2-0.4,0.2-0.5,0.2c-0.2,0-0.4,0-0.5-0.2c-0.2-0.2-0.5-0.4-0.7-0.5c-0.2-0.2-0.4-0.5-0.5-0.7c-0.2-0.2-0.2-0.4-0.2-0.5
			c0-0.2,0-0.4,0.2-0.5c0.2-0.2,0.4-0.5,0.5-0.7c0.2-0.2,0.5-0.4,0.7-0.5c0.2-0.2,0.4-0.2,0.5-0.2c0.2,0,0.4,0,0.5,0.2
			c0.2,0.2,0.5,0.4,0.7,0.5c0.2,0.2,0.4,0.5,0.5,0.7C241.4,24.5,241.4,24.7,241.4,24.9z"/>
		<path class="st0" d="M255.4,38.6c0,0.9-0.2,1.4-0.5,1.9c-0.4,0.5-0.7,0.9-1.2,1.2c-0.5,0.4-1.1,0.5-1.8,0.7
			c-0.7,0.2-1.2,0.2-1.9,0.2c-1.1,0-1.8-0.2-2.6-0.4c-0.7-0.2-1.4-0.4-2.1-0.7l0.2-3.7h1.2c0,0.9,0.4,1.6,1.1,2.1
			c0.5,0.5,1.4,0.9,2.3,0.9c0.7,0,1.4-0.2,1.8-0.4c0.5-0.4,0.7-0.7,0.7-1.4c0-0.4-0.2-0.7-0.5-0.9c-0.4-0.2-0.7-0.5-1.2-0.7
			c-0.5-0.2-1.1-0.5-1.6-0.7c-0.5-0.2-1.1-0.5-1.6-0.9c-0.5-0.4-0.9-0.9-1.2-1.4c-0.4-0.5-0.5-1.2-0.5-1.9s0.2-1.2,0.4-1.8
			c0.4-0.5,0.7-0.9,1.1-1.2c0.5-0.4,1.1-0.5,1.6-0.7c0.5-0.2,1.2-0.2,1.9-0.2c0.7,0,1.4,0,2.1,0.2c0.7,0.2,1.4,0.4,2.1,0.7l-0.5,3.4
			l-1.1-0.2c-0.2-0.7-0.5-1.2-1.1-1.8c-0.5-0.5-1.2-0.7-2.1-0.7c-0.7,0-1.2,0.2-1.6,0.5c-0.4,0.4-0.5,0.7-0.5,1.2
			c0,0.4,0.2,0.7,0.5,0.9c0.4,0.2,0.9,0.5,1.4,0.7c0.5,0.2,1.1,0.5,1.8,0.7c0.5,0.2,1.2,0.5,1.8,0.9c0.5,0.4,0.9,0.7,1.2,1.2
			C255.2,37.2,255.4,37.9,255.4,38.6z"/>
		<path class="st0" d="M268.8,30.5c0,0.5-0.2,1.1-0.4,1.4c-0.2,0.4-0.5,0.5-0.9,0.9c-0.2-0.2-0.4-0.4-0.5-0.7
			c-0.2-0.2-0.5-0.5-0.7-0.7c-0.4-0.2-0.5-0.4-0.9-0.5c-0.4-0.2-0.5-0.2-0.9-0.2c-1.2,0-2.1,0.4-2.6,1.2c-0.5,0.7-0.9,2.1-0.9,3.9
			c0,0.7,0,1.4,0.2,1.9c0.2,0.5,0.4,1.1,0.7,1.6c0.4,0.4,0.7,0.7,1.4,1.1c0.5,0.2,1.2,0.4,2.1,0.4c0.5,0,1.1,0,1.8-0.2
			c0.5,0,1.1-0.2,1.4-0.4l0.5,1.6c-0.4,0.2-1.1,0.5-1.8,0.7c-0.7,0.2-1.6,0.4-2.6,0.4c-1.2,0-2.3-0.2-3-0.4
			c-0.7-0.2-1.4-0.7-1.9-1.2c-0.5-0.5-0.9-1.2-1.1-2.3c-0.2-0.9-0.4-1.9-0.4-3.2c0-0.9,0.2-1.8,0.5-2.5c0.4-0.9,0.7-1.6,1.4-2.3
			c0.5-0.7,1.2-1.2,2.1-1.6c0.9-0.4,1.8-0.5,2.8-0.5c0.4,0,0.9,0,1.2,0c0.5,0,0.9,0.2,1.4,0.2c0.4,0.2,0.9,0.4,1.1,0.5
			C268.6,29.8,268.8,30.2,268.8,30.5z"/>
		<path class="st0" d="M286.2,41.8c0,0.4,0,0.5-0.2,0.7h-6.3c0-0.2,0-0.4,0-0.5s0-0.4,0-0.5v-0.2l1.1-0.5c0.2-0.2,0.4-0.4,0.5-0.5
			c0.2-0.4,0.2-0.5,0.2-0.7v-3.7v-1.9c0-0.5,0-0.9,0-1.4c0-0.4-0.2-0.7-0.4-0.9c-0.2-0.2-0.4-0.4-0.7-0.5c-0.4-0.2-0.7-0.2-1.4-0.2
			c-0.4,0-0.7,0-1.1,0.2c-0.4,0-0.7,0.2-1.1,0.2c-0.4,0.2-0.7,0.2-1.1,0.4c-0.4,0.2-0.5,0.2-0.7,0.4v3.9v4.1c0,0.4,0,0.5,0,0.5
			c0,0.2,0.2,0.2,0.4,0.4l1.9,0.4c0,0.2,0,0.4,0,0.7c0,0.2,0,0.5-0.2,0.7h-6.9c0-0.4,0-0.7,0-0.9v-0.4l1.2-0.5
			c0.5-0.2,0.7-0.7,0.7-1.4v-3.7V25.4H270V24c0.4,0,0.5-0.2,0.9-0.2s0.7-0.2,1.1-0.2s0.7-0.2,1.1-0.2c0.4,0,0.7,0,0.9,0
			c0.4,0,0.5,0,0.7,0.2c0.2,0.2,0.2,0.4,0.2,0.7v6c0.2-0.2,0.5-0.4,0.9-0.5c0.4-0.2,0.7-0.4,1.1-0.5c0.4-0.2,0.9-0.4,1.4-0.4
			c0.5-0.2,1.1-0.2,1.6-0.2c1.1,0,1.8,0.2,2.3,0.4s1.1,0.5,1.2,0.9c0.4,0.4,0.5,0.9,0.5,1.4c0,0.5,0.2,1.2,0.2,1.8v2.5V40
			c0,0.2,0,0.4,0.2,0.4c0,0,0.2,0.2,0.4,0.2l1.8,0.4C286.4,41.3,286.4,41.6,286.2,41.8z"/>
		<path class="st0" d="M291,36c0,1.1,0.2,1.8,0.5,2.3c0.2,0.5,0.5,1.1,0.9,1.4c0.4,0.4,0.9,0.5,1.4,0.7c0.5,0.2,1.1,0.2,1.8,0.2
			c0.5,0,1.1,0,1.8-0.2c0.7,0,1.2-0.2,1.9-0.4l0.5,1.6c-0.4,0.2-0.5,0.4-0.9,0.5c-0.4,0.2-0.7,0.2-1.2,0.4c-0.4,0.2-0.9,0.2-1.2,0.2
			s-0.9,0-1.2,0c-1.1,0-1.9-0.2-2.8-0.4s-1.6-0.5-2.1-1.1c-0.5-0.5-1.1-1.2-1.4-2.1c-0.4-0.9-0.5-1.9-0.5-3.4c0-1.1,0.2-1.9,0.5-2.8
			c0.4-0.9,0.7-1.6,1.2-2.3s1.2-1.2,1.9-1.6c0.7-0.4,1.6-0.5,2.6-0.5c1.1,0,1.8,0.2,2.5,0.5c0.7,0.4,1.2,0.7,1.6,1.2
			s0.7,1.2,0.9,1.9c0.2,0.7,0.4,1.6,0.4,2.6v0.9h-9V36z M296.3,31.4c-0.4-0.7-1.1-1.1-1.9-1.1s-1.8,0.4-2.3,1.1
			c-0.5,0.7-0.9,1.8-1.1,3h5.8C297,33.2,296.8,32.1,296.3,31.4z"/>
		<g>
			<path class="st0" d="M73,67.5H60.1c0-0.4,0-0.7,0-1.1v-0.4l1.4-0.4c0.4,0,0.5-0.2,0.7-0.5c0.2-0.2,0.4-0.5,0.4-0.9v-3.7v-7.6
				c0-0.4,0-0.7-0.2-0.9c-0.2-0.4-0.4-0.5-0.7-0.5l-1.4-0.5c0-0.2,0-0.4,0-0.5c0-0.2,0-0.4,0-0.5h7.1c0,0.4,0,0.5,0,0.9v0.2v0.2
				l-1.2,0.4c-0.4,0-0.5,0.2-0.7,0.4c-0.2,0.2-0.2,0.4-0.2,0.7v8.1l0.2,4.9l3.9-0.2c0.4,0,0.7-0.2,1.1-0.4c0.4-0.2,0.7-0.4,0.9-0.7
				c0.2-0.2,0.5-0.5,0.7-0.9s0.4-0.5,0.4-0.9l1.2,0.2L73,67.5z"/>
			<path class="st0" d="M87.7,66.8c-0.4,0.2-0.5,0.4-0.9,0.4c-0.4,0.2-0.7,0.2-0.9,0.4c-0.4,0-0.5,0.2-0.9,0.2c-0.5,0-0.9,0-1.1-0.2
				c-0.2-0.2-0.5-0.2-0.5-0.5c-0.2-0.2-0.2-0.4-0.4-0.7c0-0.2,0-0.5-0.2-0.9c-0.2,0.2-0.4,0.4-0.7,0.5c-0.4,0.2-0.5,0.5-1.1,0.7
				c-0.4,0.2-0.9,0.4-1.2,0.5c-0.5,0.2-1.1,0.2-1.6,0.2c-1.1,0-1.8-0.2-2.5-0.7c-0.7-0.5-0.9-1.2-0.9-2.3c0-0.7,0.2-1.2,0.4-1.8
				c0.4-0.5,0.7-0.9,1.1-1.2c0.5-0.4,1.1-0.5,1.6-0.9c0.5-0.2,1.2-0.4,1.8-0.5c0.4,0,0.7-0.2,1.1-0.2c0.4,0,0.7,0,0.9-0.2
				c0.4,0,0.5,0,0.7,0s0.4,0,0.4,0v-1.9c0-0.9-0.2-1.4-0.7-1.8c-0.5-0.4-1.2-0.5-2.5-0.5c-0.5,0-1.1,0-1.6,0.2
				c-0.5,0.2-1.2,0.2-1.8,0.4l-0.4-1.4c0.7-0.4,1.4-0.5,2.3-0.5c0.7-0.2,1.6-0.2,2.3-0.2c0.5,0,1.1,0,1.6,0c0.5,0,1.2,0.2,1.8,0.4
				c0.5,0.2,0.9,0.5,1.2,1.1c0.4,0.5,0.5,1.2,0.5,2.1v3.4l0.2,4.8h2.5l0.2,1.1C88.2,66.7,87.8,66.7,87.7,66.8z M82.9,61.4
				c0,0-0.2,0-0.4,0s-0.4,0-0.7,0c-0.2,0-0.5,0-0.9,0.2c-0.4,0-0.5,0.2-0.9,0.2c-0.7,0.2-1.4,0.5-1.8,0.9C78,63,77.6,63.5,77.6,64
				c0,0.4,0.2,0.7,0.4,1.1c0.2,0.4,0.7,0.4,1.2,0.4c0.4,0,0.7,0,1.1-0.2c0.4-0.2,0.7-0.2,1.1-0.4c0.4-0.2,0.5-0.2,0.9-0.4
				c0.2-0.2,0.4-0.2,0.4-0.2v-3H82.9z"/>
			<path class="st0" d="M105.8,66.8c0,0.2,0,0.5-0.2,0.5h-6.2c0-0.2,0-0.4,0-0.5c0-0.2,0-0.4,0-0.5s0-0.4,0-0.4l0.7-0.5
				c0.2-0.2,0.4-0.4,0.5-0.5c0.2-0.2,0.2-0.5,0.2-0.7v-3.9v-1.9c0-0.5,0-0.9,0-1.4c0-0.4-0.2-0.7-0.4-0.9s-0.4-0.4-0.7-0.5
				c-0.4-0.2-0.7-0.2-1.4-0.2c-0.4,0-0.7,0-1.1,0.2c-0.4,0-0.7,0.2-1.1,0.2c-0.5,0.5-0.7,0.7-1.1,0.7c-0.4,0.2-0.5,0.2-0.7,0.4v3.9
				v4.2v0.2c0,0.2,0,0.4,0,0.4c0,0.2,0.2,0.2,0.4,0.2l1.9,0.4c0,0.2,0,0.4,0,0.7c0,0.2,0,0.5-0.2,0.7h-6.7c0-0.2,0-0.4,0-0.5
				s0-0.4,0-0.5l1.2-0.5c0.2-0.2,0.4-0.4,0.5-0.5c0.2-0.4,0.2-0.5,0.2-0.7v-3.7v-4.9h-2.3v-1.4c0.4,0,0.5-0.2,0.9-0.2
				c0.4,0,0.7-0.2,1.1-0.2s0.7-0.2,1.1-0.2c0.4,0,0.7,0,0.9,0c0.4,0,0.5,0,0.7,0.2s0.2,0.4,0.2,0.7v0.7c0.2-0.2,0.5-0.4,0.9-0.5
				c0.4-0.2,0.7-0.4,1.1-0.5c0.4-0.2,0.9-0.4,1.2-0.4c0.5-0.2,1.1-0.2,1.6-0.2c1.1,0,1.8,0.2,2.3,0.4c0.5,0.2,1.1,0.5,1.2,0.9
				c0.4,0.4,0.5,0.9,0.5,1.4c0,0.5,0.2,1.2,0.2,1.8v2.5v4.6c0,0.2,0,0.4,0,0.4s0.2,0.2,0.4,0.2l1.8,0.4
				C105.8,66.3,105.8,66.7,105.8,66.8z"/>
			<path class="st0" d="M120.3,67.4c-0.7,0.4-1.4,0.4-2.3,0.4c-0.4,0-0.5,0-0.7-0.2c-0.2-0.2-0.4-0.4-0.4-0.5
				c-0.2-0.2-0.2-0.5-0.2-0.7c0-0.2,0-0.5,0-0.7c-0.2,0.2-0.4,0.4-0.7,0.7c-0.2,0.2-0.5,0.5-0.9,0.7c-0.4,0.2-0.7,0.4-1.1,0.5
				c-0.4,0.2-0.7,0.2-1.2,0.2c-0.7,0-1.2,0-1.9-0.2c-0.7-0.2-1.2-0.5-1.8-0.9c-0.5-0.5-0.9-1.1-1.2-1.9c-0.4-0.9-0.5-1.9-0.5-3.2
				c0-1.1,0.2-2.1,0.5-3c0.4-0.9,0.9-1.6,1.4-2.3c0.5-0.7,1.2-1.1,2.1-1.4c0.9-0.4,1.6-0.5,2.6-0.5c0.5,0,1.1,0,1.4,0
				c0.4,0,0.7,0,1.1,0.2V51h-2.5v-1.4c0.4,0,0.5-0.2,0.9-0.2s0.7-0.2,1.1-0.2s0.7-0.2,1.1-0.2s0.7,0,0.9,0c0.4,0,0.7,0,0.9,0.2
				c0.2,0.2,0.2,0.4,0.2,0.9V61l0.2,4.8h2.5l0.2,1.1C121.5,66.8,121,67,120.3,67.4z M116.8,55.9c-0.4,0-0.7-0.2-1.1-0.2
				s-0.9-0.2-1.4-0.2c-0.7,0-1.4,0.2-1.8,0.4c-0.5,0.4-0.9,0.7-1.1,1.2c-0.4,0.5-0.5,1.1-0.5,1.8c-0.2,0.7-0.2,1.4-0.2,2.3
				c0,0.7,0,1.4,0.2,1.9c0.2,0.5,0.4,0.9,0.7,1.2c0.4,0.4,0.7,0.5,1.1,0.7c0.2,0.2,0.7,0.2,1.2,0.2c0.7,0,1.2-0.2,1.6-0.4
				c0.4-0.2,0.9-0.4,1.1-0.5l0.2-3.7V55.9z"/>
			<path class="st0" d="M126.5,60.8c0,1.1,0.2,1.8,0.5,2.3c0.2,0.5,0.5,1.1,0.9,1.4c0.4,0.4,0.9,0.5,1.4,0.7
				c0.5,0.2,1.1,0.2,1.8,0.2c0.5,0,1.1,0,1.8-0.2c0.7,0,1.2-0.2,1.9-0.4l0.5,1.6c-0.2,0.2-0.5,0.4-0.9,0.5c-0.4,0.2-0.7,0.2-1.2,0.4
				c-0.4,0.2-0.9,0.2-1.2,0.2c-0.4,0-0.9,0-1.2,0c-1.1,0-1.9-0.2-2.8-0.4c-0.9-0.2-1.6-0.5-2.1-1.1c-0.5-0.5-1.1-1.2-1.4-2.1
				c-0.4-0.9-0.5-1.9-0.5-3.4c0-1.1,0.2-1.9,0.5-2.8c0.4-0.9,0.7-1.6,1.2-2.3c0.5-0.7,1.2-1.2,1.9-1.6c0.7-0.4,1.6-0.5,2.6-0.5
				c1.1,0,1.8,0.2,2.5,0.5s1.2,0.7,1.6,1.2c0.4,0.5,0.7,1.2,0.9,1.9c0.2,0.7,0.4,1.6,0.4,2.6v0.9h-9V60.8z M131.7,56.4
				c-0.4-0.7-1.1-1.1-1.9-1.1s-1.8,0.4-2.3,1.1c-0.5,0.7-0.9,1.8-1.1,3h5.8C132.3,58,132.1,57.1,131.7,56.4z"/>
			<path class="st0" d="M147.6,63.7c0,0.9-0.2,1.4-0.5,1.9s-0.7,0.9-1.2,1.2c-0.5,0.4-1.1,0.5-1.8,0.7c-0.7,0.2-1.2,0.2-1.9,0.2
				c-1.1,0-1.8-0.2-2.6-0.4c-0.7-0.2-1.4-0.4-2.1-0.7l0.2-3.7h1.2c0,0.9,0.4,1.6,1.1,2.1c0.5,0.5,1.4,0.9,2.3,0.9
				c0.7,0,1.4-0.2,1.9-0.4c0.5-0.4,0.7-0.7,0.7-1.4c0-0.4-0.2-0.7-0.5-0.9c-0.4-0.2-0.7-0.5-1.2-0.7c-0.5-0.2-1.1-0.5-1.6-0.7
				c-0.5-0.2-1.1-0.5-1.6-0.9c-0.5-0.4-0.9-0.9-1.2-1.4c-0.4-0.5-0.5-1.2-0.5-1.9c0-0.7,0.2-1.2,0.4-1.8c0.2-0.5,0.7-0.9,1.1-1.2
				c0.5-0.4,1.1-0.5,1.6-0.7c0.5-0.2,1.2-0.2,1.9-0.2c0.7,0,1.4,0,2.1,0.2c0.7,0.2,1.4,0.4,2.1,0.7l-0.5,3.4l-1.1-0.2
				c-0.2-0.7-0.5-1.2-1.1-1.8s-1.2-0.7-2.1-0.7c-0.7,0-1.2,0.2-1.6,0.5s-0.5,0.7-0.5,1.2c0,0.4,0.2,0.7,0.5,0.9
				c0.4,0.4,0.7,0.5,1.2,0.7c0.5,0.2,1.1,0.5,1.8,0.7c0.5,0.2,1.2,0.5,1.8,0.9c0.5,0.4,0.9,0.7,1.4,1.2
				C147.4,62.3,147.6,63,147.6,63.7z"/>
			<path class="st0" d="M163.5,60.5c0,1.1-0.2,1.9-0.5,3c-0.4,0.9-0.9,1.6-1.4,2.3c-0.5,0.7-1.4,1.1-2.1,1.6
				c-0.9,0.4-1.8,0.5-2.8,0.5c-0.7,0-1.4,0-1.9,0s-1.1-0.2-1.4-0.2c-0.4,0-0.7-0.2-1.1-0.2c-0.4,0-0.5-0.2-0.7-0.2l0.2-6.3V51h-2.5
				v-1.4c0.5-0.2,1.2-0.2,1.9-0.4c0.7-0.2,1.4-0.2,2.1-0.2c0.4,0,0.7,0,0.9,0.2c0.2,0.2,0.2,0.4,0.2,0.9V61l0.2,4.8
				c0.4,0,0.5,0,0.9,0.2c0.4,0,0.7,0,1.4,0c0.7,0,1.2-0.2,1.8-0.4c0.5-0.2,0.9-0.7,1.2-1.1c0.4-0.5,0.5-1.1,0.7-1.6
				c0.2-0.7,0.2-1.2,0.2-1.9c0-0.7,0-1.4-0.2-1.9c-0.2-0.5-0.4-1.1-0.5-1.6c-0.2-0.4-0.5-0.7-1.1-1.1c-0.4-0.2-1.1-0.4-1.6-0.4
				c-0.4,0-0.7,0-1.1,0s-0.5,0-0.9,0.2l-0.4-1.6c0.2-0.2,0.4-0.2,0.5-0.4c0.2-0.2,0.5-0.2,0.7-0.2c0.4,0,0.5-0.2,0.9-0.2
				c0.4,0,0.5,0,0.7,0c0.9,0,1.8,0.2,2.5,0.4c0.7,0.2,1.2,0.5,1.8,1.1c0.5,0.5,0.9,1.2,1.1,1.9C163.3,58,163.5,59.1,163.5,60.5z"/>
			<path class="st0" d="M178.1,66.8c-0.4,0.2-0.5,0.4-0.9,0.4c-0.4,0.2-0.7,0.2-0.9,0.4c-0.4,0-0.5,0.2-0.9,0.2
				c-0.5,0-0.9,0-1.1-0.2c-0.2-0.2-0.5-0.2-0.5-0.5c-0.2-0.2-0.2-0.4-0.4-0.7c0-0.2,0-0.5-0.2-0.9c-0.2,0.2-0.4,0.4-0.7,0.5
				c-0.4,0.2-0.5,0.5-1.1,0.7c-0.4,0.2-0.9,0.4-1.2,0.5c-0.5,0.2-1.1,0.2-1.6,0.2c-1.1,0-1.8-0.2-2.5-0.7c-0.7-0.5-0.9-1.2-0.9-2.3
				c0-0.7,0.2-1.2,0.4-1.8c0.4-0.5,0.7-0.9,1.1-1.2c0.5-0.4,1.1-0.5,1.6-0.9c0.5-0.2,1.2-0.4,1.8-0.5c0.4,0,0.7-0.2,1.1-0.2
				c0.4,0,0.7,0,0.9-0.2c0.4,0,0.5,0,0.7,0c0.2,0,0.4,0,0.4,0v-1.9c0-0.9-0.2-1.4-0.7-1.8c-0.5-0.4-1.2-0.5-2.5-0.5
				c-0.5,0-1.1,0-1.6,0.2c-0.5,0.2-1.2,0.2-1.8,0.4l-0.5-1.9c0.7-0.4,1.4-0.5,2.3-0.5c0.7-0.2,1.6-0.2,2.3-0.2c0.5,0,1.1,0,1.6,0
				s1.2,0.2,1.8,0.4c0.5,0.2,0.9,0.5,1.2,1.1c0.4,0.5,0.5,1.2,0.5,2.1v3.4l0.2,4.8h2.5l0.2,1.1C178.7,66.7,178.5,66.7,178.1,66.8z
				 M173.4,61.4c0,0-0.2,0-0.4,0c-0.2,0-0.4,0-0.7,0c-0.2,0-0.5,0-0.9,0.2c0,0.2-0.4,0.2-0.5,0.2c-0.7,0.2-1.4,0.5-1.8,0.9
				c-0.4,0.4-0.7,0.9-0.7,1.4c0,0.4,0.2,0.7,0.4,1.1c0.2,0.4,0.7,0.4,1.2,0.4c0.4,0,0.7,0,1.1-0.2c0.4-0.2,0.7-0.2,1.1-0.4
				c0.4-0.2,0.5-0.2,0.9-0.4c0.2-0.2,0.4-0.2,0.4-0.2L173.4,61.4L173.4,61.4z"/>
			<path class="st0" d="M196.3,66.8c0,0.2,0,0.5-0.2,0.5h-6.2c0-0.2,0-0.4,0-0.5c0-0.2,0-0.4,0-0.5s0-0.4,0-0.4l0.7-0.5
				c0.2-0.2,0.4-0.4,0.5-0.5c0.2-0.2,0.2-0.5,0.2-0.7v-3.9v-1.9c0-0.5,0-0.9,0-1.4c0-0.4-0.2-0.7-0.4-0.9c-0.2-0.2-0.4-0.4-0.7-0.5
				c-0.4-0.2-0.7-0.2-1.4-0.2c-0.4,0-0.7,0-1.1,0.2c-0.4,0-0.7,0.2-1.1,0.2c-0.4,0.2-0.7,0.2-0.9,0.4c-0.4,0.2-0.5,0.2-0.7,0.4v3.9
				v4.2v0.2c0,0.2,0,0.4,0,0.4c0,0.2,0.2,0.2,0.4,0.2l1.9,0.4c0,0.2,0,0.4,0,0.7c0,0.2,0,0.5-0.2,0.7h-6.9c0-0.2,0-0.4,0-0.5
				c0-0.2,0-0.4,0-0.5l1.2-0.5c0.2-0.2,0.4-0.4,0.5-0.5c0.2-0.4,0.2-0.5,0.2-0.7v-3.7v-4.9h-2.3v-1.4c0.4,0,0.5-0.2,0.9-0.2
				c0.4,0,0.7-0.2,1.1-0.2c0.4,0,0.7-0.2,1.1-0.2c0.4,0,0.7,0,0.9,0c0.4,0,0.5,0,0.7,0.2c0.2,0.2,0.2,0.4,0.2,0.7v0.7
				c0.2-0.2,0.5-0.4,0.9-0.5c0.4-0.2,0.7-0.4,1.1-0.5c0.4-0.2,0.9-0.4,1.2-0.4c0.5-0.2,1.1-0.2,1.6-0.2c1.1,0,1.8,0.2,2.3,0.4
				c0.5,0.2,1.1,0.5,1.2,0.9c0.4,0.4,0.5,0.9,0.5,1.4c0,0.5,0.2,1.2,0.2,1.8v2.5v4.6c0,0.2,0,0.4,0,0.4s0.2,0.2,0.4,0.2l1.8,0.4
				C196.5,66.3,196.5,66.7,196.3,66.8z"/>
			<path class="st0" d="M204.6,66.8c0,0.2,0,0.4-0.2,0.5h-6.3c0-0.2,0-0.4,0-0.5c0-0.2,0-0.4,0-0.5l1.4-0.5c0.4-0.2,0.5-0.4,0.5-0.5
				c0.2-0.4,0.2-0.5,0.2-0.9v-3.7V50.4h-2.3V49c0.4,0,0.5-0.2,0.9-0.2c0.4,0,0.7-0.2,1.1-0.2c0.4,0,0.7-0.2,1.1-0.2
				c0.4,0,0.7,0,0.9,0c0.4,0,0.5,0,0.7,0.2s0.4,0.4,0.4,0.7v11.1v3.7c0,0.4,0,0.5,0.2,0.9c0,0.2,0.2,0.5,0.5,0.5l0.9,0.5
				C204.6,66.5,204.6,66.7,204.6,66.8z M212.3,68.1c-0.4,0-0.9,0-1.4-0.2c-0.5,0-1.1-0.2-1.4-0.4c-0.5-0.2-1.1-0.5-1.4-0.9
				c-0.5-0.4-0.9-0.7-1.2-1.2l-3.7-4.9l4.1-3.7c0.2-0.2,0.4-0.4,0.4-0.7c0-0.2,0-0.4-0.2-0.4c0-0.2-0.2-0.2-0.4-0.2l-1.1-0.4v-0.4
				c0-0.2,0-0.4,0-0.5h5.1v1.1l-5.3,4.8l3.2,4.1c0.4,0.4,0.5,0.7,0.9,1.1c0.4,0.4,0.7,0.5,0.9,0.9c0.4,0.2,0.5,0.4,0.9,0.5
				c0.4,0.2,0.5,0.4,0.7,0.4L212.3,68.1z"/>
		</g>
	</g>
	<g>
		<polygon class="st0" points="49.9,34.9 15,34.9 15,0 7.6,0 7.6,42.5 49.9,42.5 		"/>
		<polygon class="st0" points="42.5,7.6 0,7.6 0,15 34.9,15 34.9,49.9 42.5,49.9 		"/>
		<rect x="17.5" y="17.5" class="st0" width="15" height="15"/>
		<g>
			<rect x="7.6" y="7.6" class="st0" width="7.6" height="7.6"/>
			<rect x="34.9" y="34.9" class="st0" width="7.6" height="7.6"/>
		</g>
	</g>
</g>
</svg>
