<?xml version="1.0" encoding="utf-8"?>
<!-- Generator: Adobe Illustrator 23.1.0, SVG Export Plug-In . SVG Version: 6.00 Build 0)  -->
<svg version="1.1" id="Ebene_1" xmlns="http://www.w3.org/2000/svg" xmlns:xlink="http://www.w3.org/1999/xlink" x="0px" y="0px"
	 width="341.341px" height="58.64px" viewBox="0 0 341.341 58.64" enable-background="new 0 0 341.341 58.64" xml:space="preserve">
<g>
	<g>
		<g>
			<path fill="#FFFFFF" d="M5.376,1.73v21.767h9.361l-0.94,4.361H0V1.73H5.376z"/>
			<path fill="#FFFFFF" d="M24.879,8.158v19.699h-5.038V8.948L24.879,8.158z M25.48,3.309c0,1.729-1.391,3.12-3.12,3.12
				c-1.692,0-3.083-1.391-3.083-3.12s1.428-3.12,3.158-3.12C24.127,0.189,25.48,1.579,25.48,3.309z"/>
			<g>
				<path fill="#FFFFFF" d="M46.988,25.714c-2.218,1.804-4.549,2.67-7.255,2.67c-5.526,0-9.098-3.91-9.098-9.963
					c0-3.458,0.715-5.752,2.406-7.631c1.579-1.767,3.496-2.594,6.053-2.594c2.218,0,4.323,0.752,5.564,2.03
					c1.767,1.805,2.556,4.398,2.556,8.421c0,0.414,0,0.827,0,1.166H36.086v0.15c0,2.97,1.467,4.662,4.061,4.662
					c1.729,0,3.346-0.639,4.887-1.917L46.988,25.714z M41.988,16.128v-0.226c0-1.429-0.15-2.181-0.601-2.894
					c-0.489-0.752-1.203-1.128-2.218-1.128c-1.917,0-3.008,1.504-3.008,4.173v0.075H41.988z"/>
				<path fill="#FFFFFF" d="M56.905,8.12c0.451,0.79,0.714,1.617,0.714,2.406C58.371,10,59.01,9.549,59.837,9.098
					c1.016-0.526,2.331-0.827,3.459-0.827c2.143,0,4.022,1.128,4.624,2.782c0.263,0.714,0.376,1.541,0.376,2.744v14.061h-4.962
					V15.338c0-2.18-0.375-2.82-1.692-2.82c-1.015,0-2.331,0.677-3.496,1.729v13.609h-5.038V13.91c0-1.654-0.225-3.233-0.677-4.512
					L56.905,8.12z"/>
				<path fill="#FFFFFF" d="M80.213,0c0.226,1.053,0.338,2.857,0.338,4.699v3.835c0,0.602-0.075,1.391-0.075,1.616
					c1.316-1.24,3.496-2.067,5.451-2.067c2.443,0,4.398,1.053,5,2.744c0.376,1.09,0.489,1.729,0.489,3.571v13.459h-4.925V14.925
					c0-1.917-0.526-2.631-1.955-2.631c-1.241,0-2.857,0.752-3.985,1.767v13.797h-5.113V5.602c0-1.805-0.15-3.609-0.376-4.398
					L80.213,0z"/>
			</g>
			<path fill="#FFFFFF" d="M100.79,9.323c1.88-0.789,3.496-1.128,5.263-1.128c3.233,0,5.451,1.203,6.203,3.346
				c0.263,0.79,0.376,1.391,0.338,3.458l-0.113,6.466c0,0.113,0,0.226,0,0.338c0,2.067,0.338,2.857,1.804,3.947l-2.669,3.083
				c-1.166-0.489-2.218-1.354-2.707-2.331c-0.376,0.376-0.789,0.752-1.165,1.015c-0.94,0.677-2.293,1.053-3.872,1.053
				c-4.286,0-6.617-2.18-6.617-6.015c0-4.512,3.121-6.617,9.248-6.617c0.376,0,0.714,0,1.128,0.038v-0.79
				c0-2.143-0.414-2.857-2.256-2.857c-1.617,0-3.496,0.789-5.564,2.181l-2.143-3.609C98.685,10.263,99.437,9.887,100.79,9.323z
				 M107.332,19.437c-3.497,0-4.699,0.639-4.699,2.932c0,1.504,0.94,2.519,2.218,2.519c0.939,0,1.879-0.489,2.631-1.316l0.075-4.135
				H107.332z"/>
			<path fill="#FFFFFF" d="M123.459,8.158c0.451,0.789,0.715,1.654,0.79,2.744c0.714-0.977,1.917-2.03,2.857-2.443
				c0.414-0.188,1.09-0.301,1.654-0.301c0.752,0,1.091,0.075,1.88,0.413l-1.391,4.437c-0.489-0.264-0.902-0.376-1.466-0.376
				c-1.128,0-2.143,0.526-3.083,1.616v13.609h-5.038V15c0-2.594-0.301-4.549-0.714-5.639L123.459,8.158z"/>
			<path fill="#FFFFFF" d="M150.125,20.827c0,4.737,0.376,6.278,0.714,7.03h-4.511c-0.15-0.301-0.226-0.602-0.301-1.128
				c-1.241,1.09-2.707,1.616-4.436,1.616c-4.887,0-7.97-3.797-7.97-9.774c0-6.015,3.346-10.15,8.233-10.15
				c1.391,0,2.481,0.339,3.421,1.091c-0.075-0.414-0.15-1.729-0.15-2.857V0.038l5,0.789V20.827z M142.456,12.443
				c-2.256,0-3.233,1.88-3.233,6.166c0,4.135,0.865,5.488,3.496,5.488c0.94,0,1.993-0.639,2.481-1.24v-9.173
				C144.261,12.857,143.358,12.443,142.456,12.443z"/>
			<path fill="#FFFFFF" d="M166.628,12.067h-3.233v9.662c0,2.443,0.451,3.083,2.181,3.083c0.451,0,0.902-0.113,1.804-0.376
				l0.639,3.007c-1.466,0.602-2.782,0.865-4.098,0.865c-2.557,0-4.587-1.128-5.188-2.819c-0.301-0.827-0.338-1.203-0.338-2.97
				V12.067h-1.917V8.609h1.917c0-1.88,0-3.121,0.188-4.549l5.113-1.278c-0.188,1.767-0.301,3.872-0.301,5.827h4.511L166.628,12.067z
				"/>
			<path fill="#FFFFFF" d="M196.221,17.836v0.177c0,2.24-0.301,4.008-0.962,5.482l4.48,4.362h-5.592l-1.263-1.238
				c-0.451,0.383-1.203,0.825-1.804,1.061c-0.992,0.383-2.345,0.589-3.938,0.589c-4.811,0-7.547-2.033-7.547-5.57
				c0-2.299,1.232-3.95,3.758-5.1c-1.083-0.825-1.624-1.385-1.955-2.093c-0.27-0.56-0.48-1.562-0.48-2.328
				c0-2.918,2.465-4.952,6.013-4.952c3.578,0,6.104,1.916,6.104,4.657c0,1.091-0.391,2.122-1.022,2.83
				c-0.601,0.648-1.292,1.09-2.646,1.828l-0.27,0.147l3.487,3.242c0.241-0.914,0.271-1.179,0.271-2.889v-0.206H196.221z
				 M188.825,12.942c0-1.149-0.782-1.975-1.864-1.975c-1.143,0-1.924,0.767-1.924,1.916c0,0.855,0.301,1.326,1.563,2.594
				c0.06,0.059,0.15,0.148,0.241,0.236C188.134,15.065,188.825,14.092,188.825,12.942z M183.895,22.463
				c0,1.857,1.232,2.918,3.367,2.918c1.443,0,2.495-0.324,3.157-1.002l-4.901-4.628C184.436,20.4,183.895,21.284,183.895,22.463z"/>
			<path fill="#FFFFFF" d="M218.787,1.73c4.437,0,5.79,0.451,7.256,1.278c2.443,1.353,3.76,3.759,3.76,6.767
				c0,3.458-1.654,6.241-4.512,7.594c-1.203,0.564-2.331,0.865-5.226,0.865h-2.895v9.625h-5.264V1.73H218.787z M217.171,13.947
				h2.744c2.143,0,2.781-0.263,3.496-1.353c0.451-0.714,0.639-1.466,0.639-2.707c0-2.444-1.315-3.91-3.533-3.91h-3.346V13.947z"/>
			<path fill="#FFFFFF" d="M236.773,9.323c1.879-0.79,3.496-1.128,5.263-1.128c3.233,0,5.451,1.203,6.203,3.346
				c0.263,0.79,0.376,1.391,0.338,3.458l-0.112,6.466c0,0.113,0,0.226,0,0.339c0,2.067,0.338,2.857,1.805,3.947l-2.67,3.083
				c-1.165-0.489-2.218-1.354-2.706-2.331c-0.376,0.376-0.79,0.752-1.166,1.015c-0.939,0.677-2.293,1.053-3.872,1.053
				c-4.286,0-6.616-2.18-6.616-6.015c0-4.512,3.12-6.617,9.248-6.617c0.376,0,0.714,0,1.128,0.038v-0.79
				c0-2.143-0.414-2.857-2.256-2.857c-1.616,0-3.496,0.789-5.564,2.18l-2.143-3.609C234.668,10.263,235.419,9.887,236.773,9.323z
				 M243.314,19.436c-3.496,0-4.699,0.639-4.699,2.932c0,1.504,0.939,2.519,2.218,2.519c0.941,0,1.88-0.489,2.632-1.316l0.075-4.135
				H243.314z"/>
			<path fill="#FFFFFF" d="M259.442,8.158c0.451,0.79,0.714,1.654,0.789,2.745c0.714-0.977,1.917-2.03,2.857-2.443
				c0.413-0.188,1.09-0.301,1.654-0.301c0.751,0,1.09,0.075,1.88,0.414l-1.392,4.437c-0.488-0.264-0.902-0.376-1.466-0.376
				c-1.128,0-2.143,0.526-3.083,1.616v13.609h-5.038V15c0-2.594-0.3-4.549-0.714-5.639L259.442,8.158z"/>
			<g>
				<path fill="#FFFFFF" d="M280.259,12.067h-3.232v9.662c0,2.443,0.451,3.083,2.181,3.083c0.45,0,0.901-0.113,1.804-0.376
					l0.64,3.007c-1.466,0.602-2.782,0.865-4.098,0.865c-2.557,0-4.587-1.128-5.189-2.82c-0.3-0.827-0.338-1.203-0.338-2.97V12.067
					h-1.918V8.609h1.918c0-1.88,0-3.121,0.188-4.549l5.113-1.278c-0.189,1.767-0.301,3.872-0.301,5.827h4.511L280.259,12.067z"/>
				<path fill="#FFFFFF" d="M290.673,8.12c0.45,0.79,0.714,1.617,0.714,2.406c0.752-0.526,1.391-0.977,2.218-1.429
					c1.015-0.526,2.331-0.827,3.459-0.827c2.143,0,4.022,1.128,4.624,2.782c0.263,0.714,0.376,1.541,0.376,2.744v14.06h-4.962
					V15.338c0-2.18-0.376-2.819-1.692-2.819c-1.015,0-2.331,0.677-3.496,1.729v13.609h-5.038V13.91c0-1.654-0.226-3.233-0.677-4.512
					L290.673,8.12z"/>
				<path fill="#FFFFFF" d="M324.282,25.714c-2.219,1.805-4.55,2.67-7.256,2.67c-5.527,0-9.099-3.91-9.099-9.963
					c0-3.458,0.715-5.752,2.407-7.631c1.578-1.767,3.496-2.594,6.052-2.594c2.218,0,4.324,0.752,5.563,2.03
					c1.768,1.805,2.557,4.398,2.557,8.421c0,0.414,0,0.827,0,1.166h-11.128v0.15c0,2.97,1.467,4.662,4.061,4.662
					c1.729,0,3.347-0.639,4.888-1.917L324.282,25.714z M319.282,16.128v-0.226c0-1.429-0.15-2.181-0.602-2.894
					c-0.489-0.752-1.203-1.128-2.219-1.128c-1.917,0-3.008,1.504-3.008,4.173v0.075H319.282z"/>
				<path fill="#FFFFFF" d="M334.161,8.158c0.45,0.79,0.714,1.654,0.789,2.745c0.714-0.977,1.917-2.03,2.857-2.443
					c0.414-0.188,1.091-0.301,1.654-0.301c0.753,0,1.091,0.075,1.88,0.414l-1.391,4.437c-0.489-0.264-0.902-0.376-1.467-0.376
					c-1.127,0-2.142,0.526-3.082,1.616v13.609h-5.037V15c0-2.594-0.301-4.549-0.715-5.639L334.161,8.158z"/>
			</g>
			<g>
				<path fill="#FFFFFF" d="M91.569,43.056h4.241c1.651,0,2.522,0.179,3.348,0.714c1.295,0.849,1.964,2.122,1.964,3.662
					c0,1.563-0.38,2.724-1.384,3.639c-1.027,0.916-2.143,1.205-3.706,1.205h-2.678v6.095h-1.786V43.056z M93.355,44.596v6.185h2.567
					c1.295,0,1.875-0.245,2.389-0.826c0.536-0.603,0.781-1.295,0.781-2.165c0-1.139-0.267-1.898-0.892-2.434
					c-0.625-0.536-1.451-0.76-2.902-0.76H93.355z"/>
				<path fill="#FFFFFF" d="M107.284,43.056h3.572c2.098,0,3.125,0.379,3.862,0.983c0.692,0.558,1.518,1.585,1.518,3.215
					c0,2.523-1.629,4.197-4.063,4.197h-0.223c0.714,0.581,1.228,1.295,1.54,1.719c0.647,0.871,3.527,5.202,3.527,5.202h-2.299
					c-0.446-1.005-1.875-3.349-3.906-5.939c-0.603-0.759-0.938-0.96-1.697-0.982v6.921h-1.831V43.056z M109.137,44.596v5.716h1.63
					c1.361,0,2.188-0.246,2.768-0.781c0.513-0.469,0.781-1.295,0.781-2.3c0-1.005-0.625-1.965-1.496-2.322
					c-0.491-0.201-1.094-0.313-1.92-0.313H109.137z"/>
				<path fill="#FFFFFF" d="M123.577,43.056h1.786v15.316h-1.786V43.056z"/>
				<path fill="#FFFFFF" d="M131.211,43.056h1.986l3.237,9.824c0.447,1.339,0.826,2.969,0.893,3.416
					c0.089-0.38,0.402-1.541,0.938-3.193l3.281-10.047h1.875l-5.246,15.316h-1.808L131.211,43.056z"/>
				<path fill="#FFFFFF" d="M154.848,43.056l5.067,15.316h-2.076l-1.451-4.711h-5.715l-1.473,4.711h-1.852l5.112-15.316H154.848z
					 M155.92,52.165l-2.344-7.502l-2.411,7.502H155.92z"/>
				<path fill="#FFFFFF" d="M164.087,43.056h10.134l-0.112,1.54h-4.151v13.776h-1.764V44.596h-4.107V43.056z"/>
				<path fill="#FFFFFF" d="M180.225,43.056h2.21c3.036,0,3.772,0.066,4.554,0.335c1.563,0.536,2.612,1.942,2.612,3.505
					c0,1.585-1.005,2.791-2.746,3.349c0.937,0.179,1.496,0.402,2.009,0.804c1.004,0.759,1.384,2.009,1.384,3.126
					c0,1.674-0.893,3.17-2.388,3.75c-0.826,0.313-1.406,0.447-3.684,0.447h-3.951V43.056z M181.988,44.596v5.046h2.656
					c1.652,0,2.232-0.29,2.679-1.317c0.157-0.357,0.246-0.759,0.246-1.184c0-1.206-0.692-2.143-1.741-2.411
					c-0.424-0.112-0.893-0.134-1.674-0.134H181.988z M181.988,51.16v5.715h3.259c2.254,0,3.081-1.027,3.081-2.857
					c0-1.34-0.759-2.479-1.853-2.702c-0.425-0.089-1.027-0.156-1.786-0.156H181.988z"/>
				<path fill="#FFFFFF" d="M202.681,43.056l5.067,15.316h-2.076l-1.451-4.711h-5.714l-1.473,4.711h-1.853l5.111-15.316H202.681z
					 M203.752,52.165l-2.344-7.502l-2.411,7.502H203.752z"/>
				<path fill="#FFFFFF" d="M213.46,43.056h2.12l5.09,9.779c0.804,1.519,1.429,3.215,1.429,3.215s-0.179-2.456-0.201-4.667
					l-0.066-8.328h1.808v15.316h-1.92l-4.911-9.378c-0.981-1.853-1.741-3.684-1.741-3.684s0.179,2.188,0.201,4.175l0.09,8.886
					h-1.897V43.056z"/>
				<path fill="#FFFFFF" d="M231.116,43.056h1.853v15.316h-1.853V43.056z M238.951,43.056h2.344l-6.161,7.189l6.116,8.127h-2.344
					l-5.849-8.104L238.951,43.056z"/>
				<path fill="#FFFFFF" d="M255.499,43.056h8.727v1.563l-6.361,10.739c-0.514,0.871-0.938,1.474-0.938,1.474
					s0.625-0.022,1.316-0.022h6.072l-0.469,1.563h-9.086v-1.407l6.541-10.918c0.58-0.96,0.982-1.473,0.982-1.473
					s-0.647,0.022-1.585,0.022h-5.715L255.499,43.056z"/>
				<path fill="#FFFFFF" d="M273.243,39.796c0.647,0,1.16,0.514,1.16,1.139c0,0.647-0.49,1.184-1.138,1.184
					c-0.647,0-1.161-0.536-1.161-1.184C272.104,40.31,272.618,39.796,273.243,39.796z M277.864,39.796
					c0.625,0,1.16,0.514,1.16,1.139c0,0.647-0.514,1.184-1.139,1.184c-0.647,0-1.183-0.536-1.183-1.184
					C276.703,40.31,277.216,39.796,277.864,39.796z M270.609,43.056h1.808v10.315c0,0.759,0.067,1.741,0.269,2.21
					c0.29,0.669,1.115,1.496,2.991,1.496c1.272,0,2.231-0.335,2.701-0.96c0.513-0.692,0.579-1.362,0.579-2.389V43.056h1.809v10.895
					c0,1.854-0.246,2.724-1.161,3.505c-0.938,0.804-2.165,1.184-4.018,1.184c-2.366,0-3.705-0.692-4.531-2.21
					c-0.402-0.737-0.446-1.719-0.446-2.389V43.056z"/>
				<path fill="#FFFFFF" d="M288.354,43.056h3.571c2.099,0,3.126,0.379,3.862,0.983c0.692,0.558,1.519,1.585,1.519,3.215
					c0,2.523-1.63,4.197-4.063,4.197h-0.224c0.714,0.581,1.228,1.295,1.54,1.719c0.647,0.871,3.526,5.202,3.526,5.202h-2.299
					c-0.446-1.005-1.875-3.349-3.906-5.939c-0.602-0.759-0.938-0.96-1.696-0.982v6.921h-1.831V43.056z M290.207,44.596v5.716h1.629
					c1.362,0,2.188-0.246,2.768-0.781c0.515-0.469,0.782-1.295,0.782-2.3c0-1.005-0.625-1.965-1.496-2.322
					c-0.491-0.201-1.094-0.313-1.92-0.313H290.207z"/>
				<path fill="#FFFFFF" d="M304.647,43.056h1.785v15.316h-1.785V43.056z"/>
				<path fill="#FFFFFF" d="M323.464,44.104l-0.982,1.184c-0.915-0.67-1.786-0.96-2.902-0.96c-1.763,0-3.035,0.915-3.772,2.635
					c-0.445,1.027-0.647,2.255-0.647,4.063c0,1.474,0.135,2.345,0.492,3.237c0.78,1.92,2.365,2.858,4.106,2.858
					c1.139,0,2.009-0.291,2.991-0.983l0.982,1.228c-1.228,0.804-2.745,1.25-4.263,1.25c-1.652,0-3.282-0.692-4.465-2.032
					c-1.295-1.474-1.83-3.55-1.83-5.827c0-4.555,2.723-7.904,6.429-7.904C321.075,42.854,322.415,43.301,323.464,44.104z"/>
				<path fill="#FFFFFF" d="M329.957,43.056h1.786v6.407h6.451v-6.407h1.829v15.316h-1.829v-7.412h-6.451v7.412h-1.786V43.056z"/>
			</g>
		</g>
	</g>
</g>
</svg>
