<?xml version="1.0" encoding="utf-8"?>
<!-- Generator: Adobe Illustrator 23.1.0, SVG Export Plug-In . SVG Version: 6.00 Build 0)  -->
<svg version="1.1" id="Calque_1" xmlns="http://www.w3.org/2000/svg" xmlns:xlink="http://www.w3.org/1999/xlink" x="0px" y="0px"
	 width="194.5px" height="176.6px" viewBox="0 0 194.5 176.6" style="enable-background:new 0 0 194.5 176.6;" xml:space="preserve"
	>
<style type="text/css">
	.st0{fill:#FFFFFF;}
	.st1{clip-path:url(#SVGID_2_);}
	.st2{clip-path:url(#SVGID_4_);fill:#FFFFFF;}
</style>
<g>
	<path class="st0" d="M37,8.3c0,5.8-4.6,8.1-11,8.1h-2.6v8.2c0,0.4,0.3,0.8,1,0.8l2.9,0.1v1.2H16.9v-1.2l2.1-0.1c0.8,0,1-0.2,1-0.8
		V2.9c0-0.6-0.3-0.8-1-0.8l-2.1-0.1V0.7c0,0,7.3-0.1,9-0.1C32.4,0.6,37,2.5,37,8.3z M23.3,2.3v12.4h3.2c4.3,0,6.9-2,6.9-6.3
		c0-4.3-2.6-6.1-6.9-6.1H23.3z"/>
	<path class="st0" d="M44.8,11v13.6c0,0.7,0.3,0.8,1,0.8l1.5,0.1v1.2h-8.1v-1.2l1.5-0.1c0.7-0.1,1-0.1,1-0.8V9.7
		c0-0.6-0.2-0.8-1-0.9l-1.5-0.2V7.5h5.7L44.8,11z M41.7,0h3.1v4.3h-3.1V0z"/>
	<path class="st0" d="M64.1,9.3c1,1,1.5,2.5,1.5,4.4c0,3.8-2.7,6.8-7.4,6.8c-0.6,0-1.3-0.1-1.9-0.2C55.2,20.5,54,20.9,54,22
		c0,0.9,0.7,1.4,3.2,1.6l4.6,0.3c5.1,0.3,6.6,2,6.6,4.2c0,2.9-2.8,5.9-10,5.9c-5.1,0-8.5-1.9-8.5-4.5c0-1.9,2.2-3,4.6-3.4
		c-2.6-0.6-3.3-1.9-3.3-3.1c0-1.5,1.5-2.4,3.8-3c-2.4-0.9-4.2-3-4.2-6c0-4.7,3.7-6.8,7.7-6.8c1.2,0,2.4,0.2,3.5,0.6l7.5-0.3v1.8
		H64.1z M55.6,26.2c-1.7,0.5-3.2,1.4-3.2,2.8c0,2,2,3.1,6.3,3.1c4,0,7-1.1,7-3.2c0-1.5-1-2.1-4.3-2.3l-4.6-0.3L55.6,26.2z
		 M62.7,13.7c0-3.1-1.7-4.9-4.2-4.9c-2.7,0-4.5,1.5-4.5,5.1c0,3.3,2.3,4.9,4.5,4.9C60.9,18.8,62.7,17,62.7,13.7z"/>
	<path class="st0" d="M84.3,23.4L84.3,23.4c-1.2,2.4-3.1,3.9-6.2,3.9c-4.4,0-5.3-3.5-5.3-6.5V9.7c0-0.6-0.2-0.8-1-0.9l-1.5-0.2V7.5
		h5.7l0,3.6v9c0,3.4,0.9,5.2,3.6,5.2c1.8,0,4.8-1.3,4.8-6.3V9.7c0-0.6-0.2-0.8-1-0.9l-1.5-0.2V7.5h5.7l0,3.6v13.5
		c0,0.6,0.3,0.7,1,0.8l1.5,0.1v1.2L84.3,27L84.3,23.4z"/>
	<path class="st0" d="M107.3,20.8h3.1c-0.7,4.3-4.5,6.5-8.4,6.5c-6.1,0-9.1-4.7-9.1-10.1c0-5.9,3.7-10.1,9.1-10.1
		c4.2,0,8.7,2.9,8.7,10.2H96.2c0.1,4.7,1.7,8.2,6,8.2C105.1,25.5,107,23.8,107.3,20.8z M96.3,15.6h11.1c-0.1-4.8-2.5-6.8-5.4-6.8
		C99,8.8,96.6,11.1,96.3,15.6z"/>
	<path class="st0" d="M125.6,9.3h-5.9v12.5c0,2.5,0.7,2.9,2.7,2.9h3v2.1h-3.8c-3.8,0-5-0.8-5-4.8V9.3h-3.5V7.5h3.5V1.3h3.1v6.2h5.9
		V9.3z"/>
	<path class="st0" d="M20.2,49.6c0,7.7,3.6,11.7,8.5,11.7c3.9,0,8.1-1.8,8.1-8v-1.7h-5.4V50H40v12.8h-1.9L37.3,59
		c-1.4,2.3-4.2,4.3-8.8,4.3c-7.6,0-12-5.6-12-13.6c0-8.2,4.9-13.5,12.4-13.5c5.7,0,10.3,3.1,11.2,8.5h-3.4c-0.6-4.4-3.5-6.7-7.7-6.7
		C24.1,37.9,20.2,41.7,20.2,49.6z"/>
	<path class="st0" d="M57.5,49.4c0-3.5-1.5-4.6-4.3-4.6c-3.4,0-4.2,2.1-4.5,4.3h-3.1c0.3-3.6,3.4-6,7.7-6c5,0,7.5,1.8,7.4,6.4
		c0,2.5-0.1,4.1-0.1,6.2c0,1.9,0,2.9,0.1,4.8c0,0.6,0.2,0.7,0.9,0.8l1.5,0.1v1.2L58,63l-0.1-3.6h-0.1c-1.1,2.2-3.1,4-6.7,4
		c-3.4,0-6.1-2.1-6.1-5.3c0-4.6,5.4-5.7,12.5-6.5V49.4z M57.6,53.1c-5,0.5-9.2,1.1-9.2,4.8c0,1.9,1.4,3.5,3.9,3.5
		c3,0,5.3-2.1,5.3-7.1V53.1z"/>
	<path class="st0" d="M71.7,36l0,3.6v21.1c0,0.7,0.3,0.8,1,0.8l1.5,0.1v1.2h-8.1v-1.2l1.5-0.1c0.8-0.1,1-0.1,1-0.8V38.2
		c0-0.6-0.3-0.7-1-0.8l-1.5-0.1V36H71.7z"/>
	<path class="st0" d="M83.4,36l0,3.6v21.1c0,0.7,0.3,0.8,1,0.8l1.5,0.1v1.2h-8.1v-1.2l1.5-0.1c0.8-0.1,1-0.1,1-0.8V38.2
		c0-0.6-0.3-0.7-1-0.8l-1.5-0.1V36H83.4z"/>
	<path class="st0" d="M102.1,49.4c0-3.5-1.5-4.6-4.3-4.6c-3.4,0-4.2,2.1-4.5,4.3h-3.1c0.3-3.6,3.4-6,7.7-6c5,0,7.5,1.8,7.4,6.4
		c0,2.5-0.1,4.1-0.1,6.2c0,1.9,0,2.9,0.1,4.8c0,0.6,0.2,0.7,0.9,0.8l1.5,0.1v1.2l-5.2,0.3l-0.1-3.6h-0.1c-1.1,2.2-3.1,4-6.7,4
		c-3.4,0-6.1-2.1-6.1-5.3c0-4.6,5.4-5.7,12.5-6.5V49.4z M102.2,53.1c-5,0.5-9.2,1.1-9.2,4.8c0,1.9,1.4,3.5,3.9,3.5
		c3,0,5.3-2.1,5.3-7.1V53.1z"/>
	<path class="st0" d="M128.8,60.7c0,0.7,0.3,0.8,1,0.8l1.5,0.1v1.2h-8.1v-1.2l1.5-0.1c0.7-0.1,1-0.1,1-0.8V50.4
		c0-3.4-1.1-5.2-3.9-5.2c-1.8,0-5,1.3-5,6.4v9.1c0,0.7,0.3,0.8,1,0.8l1.5,0.1v1.2h-8.1v-1.2l1.5-0.1c0.7-0.1,1-0.1,1-0.8V45.7
		c0-0.6-0.2-0.8-1-0.9l-1.5-0.2v-1.2h5.6l0,3.5h0.1c1.2-2.3,3.3-3.9,6.4-3.9c4.5,0,5.6,3.5,5.6,6.5V60.7z"/>
	<path class="st0" d="M151.3,36l0,3.6v20.9c0,0.6,0.3,0.7,1,0.8l1.5,0.1v1.2l-5.3,0.3l-0.1-3.7h-0.1c-1.2,2.3-3.1,4-6.3,4
		c-4.5,0-7.9-4.1-7.9-10.1c0-6.1,3.8-10.1,8.4-10.1c2.8,0,4.7,1.8,5.6,3.5h0.1c-0.1-2.1-0.1-2.8-0.1-3v-5.4c0-0.6-0.3-0.7-1-0.8
		l-1.9-0.2V36H151.3z M143.1,45.1c-3.1,0-5.6,2.9-5.6,8.1c0,5.3,2.5,8.2,5.5,8.2c2.6,0,5.5-2.2,5.5-8.2
		C148.4,47.1,146,45.1,143.1,45.1z"/>
	<path class="st0" d="M191.4,61.7l-2.1,1.9l-4.5-5c-2.7,3.3-5.7,4.7-8.8,4.7c-4.7,0-8.7-2.7-8.7-7.7c0-4.3,3.9-6.9,7.6-8.1l-0.1-0.1
		c-1.9-2.2-3.6-4.3-3.6-6.7c0-2.9,2.7-4.9,7.2-4.9c3.3,0,6.4,1.4,6.4,4.4c0,3.6-3.2,5.5-6.3,7l7,7.9c1-1.4,2-3.2,3-5.1
		c0.9-1.8,0.9-2.4-0.4-2.5l-2.1-0.1v-1.2h8.6v1.2l-1.5,0.1c-1.3,0.1-1.9,1.3-2.7,2.7c-0.7,1.3-2.4,4.1-3.8,6.2L191.4,61.7z
		 M176.3,61.4c2.3,0,5-0.9,7.3-4l-8.1-9c-3.1,1.2-5,3.4-5,6.8C170.6,58.5,172.8,61.4,176.3,61.4z M178.1,37c-2.1,0-4,1-4,3.3
		c0,1.6,1.2,3.3,3.5,5.9l0.1,0.1c3.3-1.6,4.4-3.5,4.4-5.8C182,38,180.2,37,178.1,37z"/>
	<path class="st0" d="M17.2,81.9c-0.3-0.8-0.4-1.1-1.3-1.2l-1-0.1v-1.2h8v1.2l-1.3,0.1c-0.8,0.1-1.2,0.2-0.9,1l4.3,13l4.2-11.5
		c0.5-1.4,0.9-2.4-0.8-2.5l-0.9-0.1v-1.2h6.8v1.2l-0.9,0.1c-1.1,0.1-1.4,0.5-1.9,1.8l-6.3,16.3h-1.7L17.2,81.9z"/>
	<path class="st0" d="M44.6,99.3c-5.2,0-9-4-9-10.1s3.9-10.1,9-10.1c5.2,0,9,4,9,10.1S49.8,99.3,44.6,99.3z M44.6,97.5
		c3.2,0,5.7-2.6,5.7-8.3c0-5.7-2.5-8.3-5.7-8.3s-5.7,2.6-5.7,8.3C38.9,94.9,41.3,97.5,44.6,97.5z"/>
	<path class="st0" d="M70.3,95.4L70.3,95.4c-1.2,2.4-3.1,3.9-6.2,3.9c-4.4,0-5.3-3.5-5.3-6.5V81.7c0-0.6-0.2-0.8-1-0.9l-1.5-0.2
		v-1.2h5.7l0,3.6v9c0,3.4,0.9,5.2,3.6,5.2c1.8,0,4.8-1.3,4.8-6.3v-9.2c0-0.6-0.2-0.8-1-0.9l-1.5-0.2v-1.2h5.7l0,3.6v13.5
		c0,0.6,0.3,0.7,1,0.8l1.5,0.1v1.2L70.4,99L70.3,95.4z"/>
	<path class="st0" d="M87.4,97.5c2.8,0,5-1.4,5-3.3c0-2.1-1.7-3.1-4.9-3.8l-2.3-0.5c-3.2-0.6-5.5-2.5-5.5-5.4c0-3.2,2.8-5.4,7.3-5.4
		c4,0,7.3,1.8,7.8,5.5h-3.1c-0.3-2.6-2.4-3.8-5-3.8c-2.2,0-4.3,1.2-4.3,3.2c0,1.7,1.4,2.7,3.8,3.2l2.1,0.4c3.7,0.8,6.9,2.2,6.9,5.7
		c0,3.8-3.4,6-7.8,6c-5.6,0-8.1-3-8.4-6.5h3.2C82.4,95.9,84.4,97.5,87.4,97.5z"/>
	<path class="st0" d="M98.7,94.5h4.3v4.3h-4.3V94.5z"/>
</g>
<g>
	<g>
		<defs>
			<rect id="SVGID_1_" y="119.5" width="80.7" height="57"/>
		</defs>
		<use xlink:href="#SVGID_1_"  style="overflow:visible;fill:#FFFFFF;"/>
		<clipPath id="SVGID_2_">
			<use xlink:href="#SVGID_1_"  style="overflow:visible;"/>
		</clipPath>
		<g class="st1">
			<defs>
				<rect id="SVGID_3_" y="119.5" width="80.7" height="57"/>
			</defs>
			<use xlink:href="#SVGID_3_"  style="overflow:visible;fill:#FFFFFF;"/>
			<clipPath id="SVGID_4_">
				<use xlink:href="#SVGID_3_"  style="overflow:visible;"/>
			</clipPath>
			<path class="st2" d="M46.8,153.1c0.6-0.6,1.2-0.5,2.9,1c2,1.7,5.2,3.6,8.2,2.8c2.1-0.6,2.5-2.6,1.7-3.8c-1.4-1.9-3.1-3.4-3.1-4.1
				c0.1-1.4,1.4-1.8,4.6-2.6c1.6-0.4,4.9-1.6,4.2-3.5c-1-2.7-8.6-1.4-9.5-1.2c-1,0.2-1.5,0.3-1.8-0.2c-0.3-0.5-0.1-1.4,0.3-3.2
				c0.3-1.6-0.8-4.4-4-3.3c-2.4,0.8-4,3.2-5.5,6.9c-0.7,2.5-1.7,3.3-2.7,3.3c-1,0-1.3-1.5-0.9-3.1c0.3-1.6-0.8-4.3-4-3.3
				c-2.4,0.8-3.8,3.8-4.8,7.4c-1.2,4.1-2.2,6-4.8,7.5c-3.2,2.2-9.6,3.8-12.4,4.8c0.2,0.4,1,0.9,1.1,1.1c8.8-3.2,15.9-7.4,25-11.4
				c9.1-4,18.6-4.9,19.4-4.9c-8.9,2.2-14.7,4.4-18.6,5.9c-5.7,2.3-11.9,5.4-17,8.8c3-1.6,4.2-2.5,7.2-2.6c3,0,4.4,0.4,7.4,3.3
				c3,2.9,6.8,3.4,8.5,2.3c1.4-1,1.8-2.5,0.1-4.4C46.5,154.7,46.2,153.7,46.8,153.1"/>
		</g>
	</g>
</g>
<g>
</g>
<g>
</g>
<g>
</g>
<g>
</g>
<g>
</g>
<g>
</g>
</svg>
