<?xml version="1.0" encoding="utf-8"?>
<!-- Generator: Adobe Illustrator 23.0.6, SVG Export Plug-In . SVG Version: 6.00 Build 0)  -->
<svg version="1.1" id="Ebene_1" xmlns="http://www.w3.org/2000/svg" xmlns:xlink="http://www.w3.org/1999/xlink" x="0px" y="0px"
	 width="566.9px" height="114.9px" viewBox="0 0 566.9 114.9" style="enable-background:new 0 0 566.9 114.9;" xml:space="preserve"
	>
<style type="text/css">
	.st0{fill-rule:evenodd;clip-rule:evenodd;fill:#FFFFFF;}
	.st1{fill:#FFFFFF;}
</style>
<g>
	<path class="st0" d="M331,114h8.6V96c0-4.7,1.3-12.2,7.6-12.2c5.5,0,5.6,6.1,5.6,10.6V114h8.6V90.8c0-8.3-3.4-14.4-11.2-14.4
		c-4.5,0-8.2,1.6-10.9,5.9h-0.1v-5H331V114L331,114z"/>
	<path class="st0" d="M372,87.4c2.9-2.4,6.6-4,10.2-4c5.1,0,7.5,2,7.5,7.9h-4.8c-3.6,0-7.8,0.4-11.1,2.1c-3.3,1.8-5.7,5-5.7,10.5
		c0,7,5.7,10.9,11.6,10.9c3.9,0,8.2-2.3,10.2-6.4h0.1c0.1,1.1,0.1,3.6,0.4,5.5h7.6c-0.2-2.9-0.3-5.4-0.4-8.2
		c-0.1-2.7-0.1-5.5-0.1-9.2v-4.7c0-10.8-4.2-15.5-14.3-15.5c-3.7,0-8.2,1.1-11.5,2.8L372,87.4L372,87.4z M376.3,103.4
		c0-5.6,5.7-6.4,9.6-6.4h3.7c0,2.9-0.4,5.5-1.8,7.6c-1.3,2-3.4,3.3-6,3.3C378.7,107.9,376.3,106.5,376.3,103.4L376.3,103.4z"/>
	<polygon class="st0" points="406.1,114 414.7,114 414.7,60.5 406.1,60.5 406.1,114 	"/>
	<path class="st0" d="M430.9,95.5c0-5.1,2.2-11.7,7.7-11.7c5.6,0,7.1,6.8,7.1,11.7c0,5.1-1.6,11.9-7.3,11.9
		C432.8,107.4,430.9,100.7,430.9,95.5L430.9,95.5z M422.2,114h8.3v-4.5h0.1c2.5,3.9,6.5,5.4,10.2,5.4c10.1,0,13.9-9.3,13.9-19.3
		c0-10.1-3.7-19.1-13.9-19.1c-4.5,0-7.5,2.1-9.9,5.6h-0.1V60.5h-8.6V114L422.2,114z"/>
	<path class="st0" d="M463.2,87.4c2.9-2.4,6.6-4,10.2-4c5.1,0,7.5,2,7.5,7.9h-4.8c-3.6,0-7.8,0.4-11.1,2.1c-3.3,1.8-5.7,5-5.7,10.5
		c0,7,5.7,10.9,11.6,10.9c3.9,0,8.2-2.3,10.2-6.4h0.1c0.1,1.1,0.1,3.6,0.4,5.5h7.6c-0.2-2.9-0.3-5.4-0.4-8.2
		c-0.1-2.7-0.1-5.5-0.1-9.2v-4.7c0-10.8-4.2-15.5-14.3-15.5c-3.7,0-8.2,1.1-11.5,2.8L463.2,87.4L463.2,87.4z M467.6,103.4
		c0-5.6,5.7-6.4,9.6-6.4h3.7c0,2.9-0.4,5.5-1.8,7.6c-1.3,2-3.4,3.3-6,3.3C470,107.9,467.6,106.5,467.6,103.4L467.6,103.4z"/>
	<path class="st0" d="M497.4,114h8.6V96c0-4.7,1.3-12.2,7.6-12.2c5.5,0,5.6,6.1,5.6,10.6V114h8.6V90.8c0-8.3-3.4-14.4-11.2-14.4
		c-4.5,0-8.2,1.6-10.9,5.9h-0.1v-5h-8.2V114L497.4,114z"/>
	<polygon class="st0" points="536.2,113.8 544.8,113.8 544.8,96 545,96 556,113.8 566.9,113.8 553.1,93.5 565.4,77.1 555.2,77.1 
		545,91.8 544.8,91.8 544.8,60.3 536.2,60.3 536.2,113.8 	"/>
	<path class="st0" d="M383.3,14.1h-6.9v14.4c0,3.8-1.1,9.8-6.1,9.8c-4.4,0-4.5-4.9-4.5-8.5V14.1H359v18.6c0,6.6,2.7,11.5,9,11.5
		c3.6,0,6.6-1.8,8.7-4.7h0.1v4h6.5V14.1L383.3,14.1z"/>
	<path class="st0" d="M406.6,14.5c-2.2-0.5-4.3-1.1-7.5-1.1c-5.4,0-10.4,2.8-10.4,9.1c0,10.6,12,6.7,12,12.5c0,2.9-2.8,3.6-4.5,3.6
		c-2.4,0-4.6-0.7-6.8-1.9L389,43c2.5,0.7,5.2,1.3,7.8,1.3c5.6,0,11.1-2.7,11.1-9.6c0-10.6-12-7.7-12-12.3c0-2.5,2.2-3.3,4.1-3.3
		c2.5,0,4.1,0.5,6.2,1.3L406.6,14.5L406.6,14.5z"/>
	<path class="st0" d="M418.1,26c0.3-3.9,2.3-6.9,6.1-6.9c3.9,0,5.4,3.2,5.6,6.9H418.1L418.1,26z M434.5,35.7c-2.6,1.6-5.5,3-8.8,3
		c-4.3,0-7.3-2.7-7.6-7.4h18.3c0-10.3-2.8-17.8-12.6-17.8c-8.2,0-12.3,7-12.3,15.5c0,9.7,5.1,15.3,13.8,15.3c3.7,0,6.6-0.8,9.1-2.3
		V35.7L434.5,35.7z"/>
	<path class="st0" d="M442,43.6h6.9V32.8c0-4.2,0-12,5.6-12c1.2,0,2.5,0.2,3.1,0.6v-7.7c-0.7-0.2-1.4-0.2-2.1-0.2
		c-4.1,0-6.9,4.6-7.3,7.4h-0.1v-6.7H442V43.6L442,43.6z"/>
	<polygon class="st1" points="100,13.3 49.3,13.3 21.2,58.8 49.3,104.5 100,104.5 71.9,58.8 100,13.3 	"/>
	<path class="st0" d="M0,4h110v109.7H0V4L0,4z M4.3,8.1h101.5v101.3H4.3V8.1L4.3,8.1z"/>
	<polygon class="st0" points="149.8,114 158.8,114 158.8,90.9 158.9,90.9 175,114 186.8,114 167.6,87.7 186,64.2 175,64.2 
		158.8,85.6 158.8,64.2 149.8,64.2 149.8,114 	"/>
	<path class="st0" d="M193.6,87.4c2.9-2.4,6.6-4,10.2-4c5.1,0,7.5,2,7.5,7.9h-4.8c-3.6,0-7.8,0.4-11.1,2.1c-3.3,1.8-5.7,5-5.7,10.5
		c0,7,5.7,10.9,11.6,10.9c3.9,0,8.2-2.3,10.2-6.4h0.1c0.1,1.1,0.1,3.6,0.4,5.5h7.6c-0.2-2.9-0.3-5.4-0.4-8.2
		c-0.1-2.7-0.1-5.5-0.1-9.2v-4.7c0-10.8-4.2-15.5-14.3-15.5c-3.7,0-8.2,1.1-11.5,2.8L193.6,87.4L193.6,87.4z M198,103.4
		c0-5.6,5.7-6.4,9.6-6.4h3.7c0,2.9-0.4,5.5-1.8,7.6c-1.4,2-3.4,3.3-6,3.3C200.3,107.9,198,106.5,198,103.4L198,103.4z"/>
	<path class="st0" d="M228.9,113.7h8.6v-18c0-4.7,1.4-12.2,7.6-12.2c5.5,0,5.6,6.1,5.6,10.6v19.6h8.6V90.5c0-8.3-3.4-14.4-11.2-14.4
		c-4.5,0-8.2,1.6-10.9,5.9H237v-5h-8.2V113.7L228.9,113.7z"/>
	<path class="st0" d="M269.6,102.9c0,7.3,3.7,11.9,10.5,11.9c2.6,0,4.6-0.3,6.4-0.9l-0.3-7.6c-0.9,0.6-2.4,1-3.9,1
		c-3.3,0-4-2.9-4-6.1V84.2h7.6v-7h-7.6V66.8l-8.6,3.1v7.4h-6.4v7h6.4V102.9L269.6,102.9z"/>
	<path class="st0" d="M289.6,95.9c0,10.6,6.4,19,17.3,19c11,0,17.3-8.4,17.3-19c0-12.1-7.5-19.5-17.3-19.5
		C297.2,76.4,289.6,83.7,289.6,95.9L289.6,95.9z M298.6,94.7c0-5.5,2.7-10.9,8.3-10.9c5.7,0,8.4,5.3,8.4,10.9
		c0,6.1-1.7,12.7-8.4,12.7C300.4,107.4,298.6,100.8,298.6,94.7L298.6,94.7z"/>
	<path class="st0" d="M169,4.4c-2.6-1-5.5-1.4-8.6-1.4c-6.3,0-12.6,3.3-12.6,12.2c0,13.2,15.7,10.1,15.7,17.7c0,3.6-3.7,5.1-6.4,5.1
		c-2.8,0-5.7-1-8.1-2.5l-0.7,7.2c3.5,1,5.3,1.5,9.2,1.5c7.3,0,13.5-3.3,13.5-12.1c0-13.4-15.7-10.5-15.7-17.4c0-4.3,3.2-5.5,5.7-5.5
		c2.5,0,5,0.6,7.3,1.7L169,4.4L169,4.4z"/>
	<path class="st0" d="M194.8,14.4c-1.9-0.6-3.9-1-6.7-1c-8.3,0-12.8,6.7-12.8,15.3c0,9,4.4,15.5,13.1,15.5c2.8,0,4.9-0.3,6.9-1
		l-0.3-6.3c-1.2,0.6-3.3,1.4-5.3,1.4c-4.8,0-7.2-4.2-7.2-9.6c0-5.5,2.7-9.3,7-9.3c2.1,0,3.4,0.5,4.7,1.1L194.8,14.4L194.8,14.4z"/>
	<path class="st0" d="M200.7,43.6h6.9V29.2c0-3.8,1.1-9.8,6.1-9.8c4.4,0,4.5,4.9,4.5,8.5v15.7h6.9V25c0-6.6-2.7-11.5-9-11.5
		c-3.6,0-6.6,1.8-8.3,4.7h-0.1V0.7h-6.9V43.6L200.7,43.6z"/>
	<path class="st0" d="M232.7,22.2c2.3-1.9,5.2-3.2,8.2-3.2c4.1,0,6,1.6,6,6.3H243c-2.9,0-6.3,0.3-8.9,1.7c-2.6,1.4-4.5,4-4.5,8.4
		c0,5.6,4.6,8.7,9.3,8.7c3.1,0,6.6-1.8,8.2-5.1h0.1c0.1,0.9,0.1,2.9,0.3,4.4h6.1c-0.2-2.3-0.3-4.3-0.3-6.6c-0.1-2.2-0.1-4.4-0.1-7.4
		v-3.8c0-8.7-3.3-12.4-11.4-12.4c-2.9,0-6.5,0.9-9.2,2.2L232.7,22.2L232.7,22.2z M236.2,35c0-4.5,4.6-5.1,7.7-5.1h3
		c0,2.3-0.3,4.4-1.4,6.1c-1.1,1.6-2.7,2.6-4.8,2.6C238.1,38.6,236.2,37.6,236.2,35L236.2,35z"/>
	<path class="st0" d="M261,43.6h6.9V19.7h6v-5.6h-6v-3.7c0-2.3,0.7-4.5,3-4.5c1.5,0,2.4,0.6,3,1l0.6-6.3c-1.3-0.3-3.3-0.6-5-0.6
		C264,0,261,4.1,261,10v4.1h-5.1v5.6h5.1V43.6L261,43.6z"/>
	<path class="st0" d="M281.4,43.6h6.9V19.7h6v-5.6h-6v-3.7c0-2.3,0.7-4.5,3-4.5c1.5,0,2.4,0.6,3,1l0.6-6.3c-1.3-0.3-3.3-0.6-5-0.6
		c-5.5,0-8.4,4.1-8.4,10v4.1h-5.1v5.6h5.1V43.6L281.4,43.6z"/>
	<path class="st0" d="M298.9,43.6h6.9V29.2c0-3.8,1.1-9.8,6.1-9.8c4.4,0,4.5,4.9,4.5,8.5v15.7h6.9V25c0-6.6-2.7-11.5-9-11.5
		c-3.6,0-6.6,1.8-8.3,4.7h-0.1V0.7h-6.9V43.6L298.9,43.6z"/>
	<path class="st0" d="M331.7,22.2c2.3-1.9,5.3-3.2,8.2-3.2c4.1,0,6,1.6,6,6.3h-3.8c-2.9,0-6.3,0.3-8.9,1.7c-2.6,1.4-4.5,4-4.5,8.4
		c0,5.6,4.6,8.7,9.3,8.7c3.1,0,6.6-1.8,8.2-5.1h0.1c0.1,0.9,0.1,2.9,0.3,4.4h6.1c-0.2-2.3-0.3-4.3-0.3-6.6c-0.1-2.2-0.1-4.4-0.1-7.4
		v-3.8c0-8.7-3.3-12.4-11.4-12.4c-2.9,0-6.5,0.9-9.2,2.2L331.7,22.2L331.7,22.2z M335.2,35c0-4.5,4.6-5.1,7.7-5.1h3
		c0,2.3-0.3,4.4-1.4,6.1c-1.1,1.6-2.7,2.6-4.8,2.6C337.1,38.6,335.2,37.6,335.2,35L335.2,35z"/>
</g>
</svg>
