<?xml version="1.0" encoding="utf-8"?>
<!-- Generator: Adobe Illustrator 23.1.0, SVG Export Plug-In . SVG Version: 6.00 Build 0)  -->
<svg version="1.1" id="Ebene_1" xmlns="http://www.w3.org/2000/svg" xmlns:xlink="http://www.w3.org/1999/xlink" x="0px" y="0px"
	 width="77px" height="92.2px" viewBox="0 0 77 92.2" style="enable-background:new 0 0 77 92.2;" xml:space="preserve">
<style type="text/css">
	.st0{fill:#FFFFFF;}
</style>
<g>
	<g>
		<path class="st0" d="M0,84.5h1.3v1.1h0c0.5-0.8,1.3-1.3,2.4-1.3c0.5,0,0.9,0.1,1.3,0.3c0.4,0.2,0.7,0.6,0.9,1.1
			c0.3-0.5,0.7-0.9,1.1-1.2c0.5-0.2,0.9-0.3,1.2-0.3c1,0,1.6,0.3,2,0.8c0.4,0.5,0.6,1.2,0.6,2.1v4.9H9.5v-4.5c0-0.2,0-0.5,0-0.7
			c0-0.2-0.1-0.5-0.2-0.7c-0.1-0.2-0.2-0.4-0.4-0.5c-0.2-0.1-0.4-0.2-0.7-0.2c-0.7,0-1.2,0.3-1.5,0.9c-0.3,0.6-0.5,1.2-0.5,2v3.8
			H4.8v-4.5c0-0.2,0-0.5,0-0.7c0-0.2-0.1-0.5-0.2-0.7c-0.1-0.2-0.2-0.4-0.4-0.5c-0.2-0.1-0.4-0.2-0.7-0.2c-0.7,0-1.2,0.3-1.5,0.9
			c-0.3,0.6-0.5,1.2-0.5,2v3.8H0V84.5z"/>
		<path class="st0" d="M18.6,91.7c-0.3,0.1-0.6,0.2-0.9,0.3c-0.4,0.1-0.8,0.2-1.4,0.2c-1.3,0-2.3-0.4-2.9-1.1
			c-0.6-0.7-0.9-1.7-0.9-3c0-1.1,0.3-2.1,0.9-2.8c0.6-0.7,1.4-1,2.5-1.1c1.2,0,2.1,0.4,2.5,1.2c0.3,0.4,0.4,0.8,0.5,1.3
			c0.1,0.5,0.1,1.1,0.1,1.7H14c0,0.8,0.3,1.4,0.7,1.8c0.5,0.5,1,0.7,1.7,0.7c0.5,0,0.9-0.1,1.4-0.3c0.4-0.2,0.7-0.3,0.9-0.5V91.7z
			 M17.8,87.5c0-0.6-0.2-1.1-0.5-1.5c-0.3-0.4-0.8-0.6-1.4-0.6c-0.7,0-1.1,0.2-1.4,0.7C14.2,86.5,14,87,14,87.5H17.8z"/>
		<path class="st0" d="M22.5,82.8H21v-1.6h1.5V82.8z M21.1,84.5h1.3v7.6h-1.3V84.5z"/>
		<path class="st0" d="M24.7,84.5H26v1.2h0c0.2-0.4,0.5-0.8,1-1c0.4-0.2,0.9-0.4,1.4-0.4c1.9,0,2.8,1.1,2.7,3.3v4.5h-1.3v-3.9
			c0-1.8-0.5-2.6-1.6-2.7c-0.8,0-1.3,0.3-1.7,0.9c-0.4,0.6-0.5,1.3-0.5,2.3v3.5h-1.3V84.5z"/>
		<path class="st0" d="M39,91.7c-0.3,0.1-0.6,0.2-0.9,0.3c-0.4,0.1-0.8,0.2-1.4,0.2c-1.3,0-2.3-0.4-2.9-1.1c-0.6-0.7-0.9-1.7-0.9-3
			c0-1.1,0.3-2.1,0.9-2.8c0.6-0.7,1.4-1,2.5-1.1c1.2,0,2.1,0.4,2.5,1.2c0.3,0.4,0.4,0.8,0.5,1.3c0.1,0.5,0.1,1.1,0.1,1.7h-5.2
			c0,0.8,0.3,1.4,0.7,1.8c0.5,0.5,1,0.7,1.7,0.7c0.5,0,0.9-0.1,1.4-0.3c0.4-0.2,0.7-0.3,0.9-0.5V91.7z M38.2,87.5
			c0-0.6-0.2-1.1-0.5-1.5c-0.3-0.4-0.8-0.6-1.4-0.6c-0.7,0-1.1,0.2-1.4,0.7c-0.3,0.4-0.5,0.9-0.5,1.4H38.2z"/>
		<path class="st0" d="M45.1,81.7h2.7c1.1,0,1.9,0.2,2.5,0.6c0.6,0.4,1,1.1,1,2c0,1.4-0.7,2.2-2.1,2.5v0c0.7,0.1,1.3,0.3,1.7,0.7
			c0.4,0.4,0.6,1,0.6,1.8c0,0.5-0.1,1-0.3,1.3c-0.2,0.4-0.5,0.7-0.8,0.9c-0.7,0.4-1.6,0.6-2.7,0.6h-2.7V81.7z M46.6,86.1h0.8
			c0.4,0,0.7,0,1-0.1c0.3,0,0.6-0.1,0.8-0.2c0.2-0.1,0.4-0.3,0.5-0.5c0.1-0.2,0.2-0.5,0.2-0.9c0-0.3-0.1-0.6-0.2-0.8
			c-0.1-0.2-0.3-0.4-0.4-0.5c-0.4-0.2-0.8-0.3-1.2-0.3h-1.5V86.1z M46.6,90.8h1.1c0.7,0,1.3-0.1,1.7-0.3c0.2-0.1,0.4-0.3,0.5-0.5
			c0.1-0.2,0.2-0.5,0.2-0.8c0-0.4-0.1-0.7-0.2-1c-0.2-0.2-0.4-0.4-0.6-0.6c-0.2-0.1-0.5-0.2-0.8-0.3c-0.3,0-0.6,0-0.9,0h-0.9V90.8z"
			/>
		<path class="st0" d="M54.2,85c0.7-0.5,1.5-0.7,2.4-0.7c2,0,3,1.1,3,3.1v3.1c0,0.8,0,1.3,0.1,1.5h-1.3v-1h0
			c-0.2,0.2-0.4,0.5-0.8,0.7c-0.4,0.3-0.9,0.4-1.5,0.4c-0.8,0-1.4-0.2-1.9-0.6c-0.5-0.4-0.8-1-0.8-1.8c0-0.5,0.1-0.9,0.3-1.2
			c0.2-0.3,0.5-0.6,0.9-0.8c0.7-0.4,1.5-0.5,2.2-0.5c0.5,0,1,0,1.4,0c0-0.7-0.1-1.2-0.4-1.5c-0.3-0.3-0.8-0.5-1.4-0.5
			c-0.8,0-1.5,0.3-2.1,0.8L54.2,85z M58.2,88.4c-0.3,0-0.6,0-0.9,0c-0.2,0-0.4,0-0.7,0c-0.3,0-0.6,0.1-0.9,0.2
			c-0.3,0.1-0.5,0.2-0.7,0.4c-0.2,0.2-0.3,0.5-0.3,0.8c0,0.4,0.2,0.7,0.5,0.9c0.3,0.2,0.6,0.3,0.9,0.3c0.7,0,1.2-0.2,1.5-0.6
			c0.3-0.4,0.5-0.8,0.5-1.4V88.4z"/>
		<path class="st0" d="M61.7,84.5H63v1.2h0c0.2-0.4,0.5-0.8,1-1c0.4-0.2,0.9-0.4,1.4-0.4c1.9,0,2.8,1.1,2.7,3.3v4.5h-1.3v-3.9
			c0-1.8-0.5-2.6-1.6-2.7c-0.8,0-1.3,0.3-1.7,0.9c-0.4,0.6-0.5,1.3-0.5,2.3v3.5h-1.3V84.5z"/>
		<path class="st0" d="M70.4,80.9h1.3v6.6l3-3.1h1.8l-3.4,3.4l3.8,4.2h-1.9l-3.3-3.9v3.9h-1.3V80.9z"/>
	</g>
	<g>
		<path class="st0" d="M60.7,50.2c-1-0.3-2.2-0.5-3.6-0.5h-1.8v5.7h1.8c0.3,0,0.6,0,0.9-0.1c0.3,0,0.6,0,0.9,0
			c0.6,0,1.2-0.2,1.6-0.3c0.5-0.2,0.9-0.5,1.2-0.9c0.3-0.4,0.5-1,0.5-1.6C62.2,51.3,61.7,50.5,60.7,50.2z"/>
		<path class="st0" d="M0,0v76.4h76.4V0H0z M21.9,68.8c-2.2,1.2-4.7,1.8-7.6,1.8c-2.5,0-5-0.4-7.5-1.1l0.6-5.6
			c1.8,1.1,4.1,1.6,7,1.7c1.1,0,2.1-0.1,2.9-0.5c0.8-0.3,1.3-1,1.3-2c0-0.6-0.2-1.1-0.5-1.5c-0.3-0.4-0.8-0.7-1.4-0.9
			c-0.6-0.2-1.2-0.5-1.9-0.7c-0.7-0.2-1.4-0.5-2.2-0.7c-0.7-0.2-1.4-0.6-2.1-0.9c-0.7-0.4-1.4-0.8-1.9-1.3c-1.3-1-1.9-2.7-1.9-4.9
			c0-1.5,0.3-2.8,1-3.8c0.7-1,1.5-1.8,2.6-2.4c1.1-0.6,2.2-1,3.5-1.2c1.3-0.2,2.5-0.3,3.8-0.3c2.5,0,4.7,0.3,6.4,0.9l-0.4,5.2
			c-1.8-0.8-3.7-1.2-5.7-1.2c-0.4,0-0.9,0-1.4,0c-0.5,0-1,0.1-1.5,0.3c-1.1,0.3-1.6,1-1.7,2c0,0.5,0.2,0.9,0.5,1.2
			c0.3,0.3,0.8,0.6,1.4,0.8c0.6,0.2,1.2,0.4,1.9,0.6c0.7,0.2,1.4,0.5,2.1,0.7c0.8,0.2,1.5,0.5,2.2,0.9c0.7,0.4,1.3,0.8,1.9,1.3
			c0.6,0.5,1,1.2,1.4,2c0.3,0.8,0.5,1.8,0.5,2.9C25.2,65.4,24.1,67.6,21.9,68.8z M46.1,70.2H29.5V44.9H36v20.3h10.1V70.2z
			 M62.7,70.2l-1.4-4.6c-0.6-2.1-1.2-3.6-1.9-4.4c-0.7-0.7-1.6-1.1-2.7-1h-1.4v10h-6.5V44.9h11.7c2.2,0,4.1,0.5,5.6,1.6
			c1.5,1,2.3,2.6,2.3,4.8c0,3.4-1.6,5.6-4.7,6.4v0.1c0.5,0.1,0.9,0.4,1.3,0.6c0.3,0.3,0.6,0.7,0.8,1.2c0.2,0.5,0.5,1,0.7,1.6
			c0.2,0.6,0.5,1.3,0.7,2.1l2.4,6.9H62.7z"/>
	</g>
</g>
</svg>
