<?xml version="1.0" encoding="utf-8"?>
<!-- Generator: Adobe Illustrator 23.1.0, SVG Export Plug-In . SVG Version: 6.00 Build 0)  -->
<svg version="1.1" id="Ebene_1" xmlns:sketch="http://www.bohemiancoding.com/sketch/ns"
	 xmlns="http://www.w3.org/2000/svg" xmlns:xlink="http://www.w3.org/1999/xlink" x="0px" y="0px" width="207.2px" height="75px"
	 viewBox="0 0 207.2 75" style="enable-background:new 0 0 207.2 75;" xml:space="preserve">
<style type="text/css">
	.st0{fill:#FFFFFF;}
</style>
<title>ubs_semibold_rgb_44_68x184</title>
<desc>Created with Sketch.</desc>
<path id="Shape" sketch:type="MSShapeGroup" class="st0" d="M121.1,45c0,15.5-8.5,17.3-17,17.3c-14.6,0.1-17.7-7.4-17.7-18V14.2H81
	v-2.9h20.4v2.9h-5.7v29.2c0,10.3,2.6,15.4,10.1,15.4c7.6,0,11.3-3.7,11.3-14.5V14.2h-5.4v-2.9h14.5v2.9h-4.9V45H121.1z M135,59V14.2
	h-5.3v-2.9h22.6c9.6,0,14.4,5.4,14.4,11.8c0,6.8-6.2,10.6-11.6,11.7c10.7,1,13.6,7.8,13.6,12.9c0,10.2-8.7,14.1-17.3,14.1h-21.9V59
	H135L135,59z M157.5,23.8c0-4.7-2.4-9.4-7.8-9.4h-5.7v19.4h5.2C154.7,33.7,157.5,28.9,157.5,23.8L157.5,23.8z M159.3,47.8
	c0-6.8-2.9-11.3-9.6-11.3H144V59h4.6C155.7,59,159.3,54.8,159.3,47.8L159.3,47.8z M191.1,13.6c-5.3,0-8.7,3.2-8.7,8.6
	c0,4.9,5.4,7.4,10.6,9.1c3.1,1,7,2.5,9.8,5.2c3,2.8,4.6,6.5,4.5,11.3c-0.2,8.8-6.3,14.7-17.2,14.8c-4.1,0-10.5-0.9-14.2-3.2
	l-0.5-13.2h3.2c0.2,9,4.5,13.6,11.8,13.6c5.9,0,9.2-3.9,9.2-10c0-5.2-4.2-7.4-10.8-9.5c-2.1-0.7-6.3-2.3-9.3-5.2
	c-2.6-2.6-3.9-6-3.9-9.4c0-10.3,7.4-14.7,16.4-14.7c3.7,0,9.1,1.3,12.2,3.1l0.3,11.5h-3.2C200.5,17.2,197,13.6,191.1,13.6
	L191.1,13.6z"/>
<path id="Shape_1_" sketch:type="MSShapeGroup" class="st0" d="M55.8,21.6l-1.4,1.1l1.4,4.6L51.6,25l-1.4,1.1l4.7,2.5l-5.1,4
	l-1.4-1.8l1.8-1.4l-1.4-1.6l-1.8,1.4l-1.4-1.7l1.8-1.4l-1.4-1.7L37,32.2l8.7,7l1.6-2c1.1,0.1,2,0.9,2.4,2l-1.6,2l0.9,0.8
	c2.2-2,5.1-3.2,7.9-3.2c6.2,0,10.9,5.1,10.9,11.1c0,2.1-0.6,4.2-1.6,6l1.6,1.3c-0.1,1.1-1.1,2.5-2.3,2.8L64,58.6
	c-2.2,2.1-5.1,3.2-8,3.2C49.7,61.8,45,57,45,50.7c0-2.1,0.6-4.1,1.5-5.9L45.6,44L44,46.1c-1.1-0.1-2.1-0.9-2.4-2.1l1.6-1.8l-7.5-6.2
	v9.9l2.5,0.1c0.3,0.3,0.6,0.9,0.6,1.5c0,0.6-0.2,1.1-0.5,1.6h-2.5v1.1c5.4,0.9,9.9,5.5,9.9,11c0,5.7-4.4,10.3-9.9,11.3v2
	C35.3,74.8,34.7,75,34,75s-1.4-0.2-2.1-0.6v-2c-5.5-0.9-9.8-5.5-9.8-11.3c0-5.5,4.2-10.1,9.8-10.9V49h-2.5c-0.3-0.5-0.5-1-0.5-1.6
	s0.1-1.1,0.5-1.6h2.5v-9.8l-7.5,6.2l1.6,1.8c-0.3,1.1-1.4,2-2.5,2.1l-1.6-2.1L21,44.9c1,1.7,1.6,3.8,1.6,5.9
	c0,6.2-4.8,11.1-10.9,11.1c-2.9,0-5.9-1.1-7.9-3.2L2.2,60c-0.8-0.3-2-1.6-2.2-2.9l1.6-1.3c-0.9-1.8-1.6-4-1.6-6
	c0-6.1,4.8-11.1,10.9-11.1c3,0,5.9,1.3,8,3.2l0.9-0.7l-1.6-2.1c0.3-1,1.4-1.8,2.5-2l1.6,2l8.7-7l-9.2-7.7l-1.4,1.8l1.8,1.4L21,29.4
	L19.2,28l-1.4,1.6l1.7,1.4l-1.4,1.8l-4.9-4l4.6-2.5l-1.4-1.1l-4.2,2.3l1.4-4.6l-1.4-1.1l-1.6,5.1l-5.1-4L7.1,21l1.7,1.4l1.4-1.6
	l-1.8-1.6l1.4-1.6l1.8,1.4l1.3-1.6L9,14.2c0.3-1.3,1.1-2.3,2.4-3.1L32.2,28V16.7h-2.1v2.2H28v-2.2h-2.2v2.2h-2.2v-6.3l4.9,2.1v-1.8
	L24,10.9l4.6-1.8V7.6l-4.9,2V3.1h2.2v2.3H28V3.1h2.1v2.3h2.1V0.3c0.6-0.2,1.3-0.3,2-0.3c0.6,0,1.3,0.1,1.8,0.3v27.9l20.8-16.9
	c1.1,0.8,2,1.8,2.4,3.1l-4,3.1l1.4,1.6l1.8-1.4l1.4,1.6L57.9,21l1.4,1.6l1.8-1.4l1.4,1.6l-5.1,4L55.8,21.6L55.8,21.6z M13.4,52.3
	c0,1.8,1.4,2.9,2.9,3.1l-2.6,2c-1.8-0.7-3.4-2.9-3.4-4.7c0-0.6,0.1-0.9,0.3-1.4c-0.2,0-0.3,0.1-0.6,0.1c-2.4,0-4.4-2.3-4.8-4.6
	l2.6-2.1c-0.1,0.3-0.1,0.6-0.1,0.8c0,1.5,1.4,2.9,2.9,2.9c1.6,0,3.1-1.4,3.1-2.9c0-2-1.5-3.2-3.3-3.2c-3.7,0-7.2,3.6-7.2,8.2
	c0,1.4,0.3,2.6,0.9,3.8l1.6-1.5c1.1,0.6,2.1,1.6,2.3,2.9l-1.6,1.3c1.6,1.4,3.6,2,5.5,2c4.2,0,7.6-3.3,7.6-6.3c0-1.7-1.1-3.2-3-3.2
	C14.8,49.3,13.4,50.5,13.4,52.3L13.4,52.3z M35.6,58.7c0,1.6,1.4,3,2.9,3c1.1,0,1.6-0.5,2.4-1.1v3.3c-0.8,0.5-1.6,0.7-2.5,0.7
	c-1.8,0-3.3-0.6-4.2-2.1c-1,1.6-2.5,2.1-4.4,2.1c-0.8,0-1.7-0.2-2.5-0.7v-3.3c0.8,0.8,1.4,1.1,2.4,1.1c1.6,0,2.9-1.4,2.9-3
	c0-1.6-1-3-2.8-3c-3.1,0-4.4,2.9-4.4,5.6c0,4,2.9,7.4,6.8,8v-2.1C32.7,67,33.4,67,34,67c0.7,0,1.4,0.1,2,0.3v2.1
	c3.6-0.6,6.8-4.2,6.8-8c0-2.8-1.1-5.6-4.4-5.6C36.8,55.7,35.6,57.1,35.6,58.7L35.6,58.7z M54.3,45.3c0,1.5,1.6,2.9,3.1,2.9
	c1.5,0,2.9-1.4,2.9-2.9c0-0.2-0.1-0.5-0.1-0.8l2.6,2.1c-0.5,2.5-2.6,4.8-5.3,4.5c0.1,0.5,0.2,0.8,0.2,1.4c0,1.8-1.6,4-3.4,4.7
	L51.7,55c1.6-0.1,3-1.3,3-3.1c0-1.7-1.5-3-3.1-3c-1.7,0-3,1.5-3,3.3c0,2.2,2.6,6.3,7.7,6.3c2.1,0,4-0.6,5.5-2l-1.6-1.3
	c0.3-1.3,1.1-2.4,2.3-2.9l1.6,1.3c0.6-1.1,0.9-2.4,0.9-3.8c0-3.6-2.8-8.2-7.2-8.2C55.9,42,54.3,43.3,54.3,45.3L54.3,45.3z"/>
</svg>
