<?xml version="1.0" encoding="utf-8"?>
<!-- Generator: Adobe Illustrator 23.0.6, SVG Export Plug-In . SVG Version: 6.00 Build 0)  -->
<svg version="1.1" xmlns="http://www.w3.org/2000/svg" xmlns:xlink="http://www.w3.org/1999/xlink" x="0px" y="0px" width="283.5px"
	 height="74.6px" viewBox="0 0 283.5 74.6" style="enable-background:new 0 0 283.5 74.6;" xml:space="preserve">
<style type="text/css">
	.st0{fill:#FFFFFF;}
</style>
<g id="Logo">
	<path class="st0" d="M254.9,9.1h13.6v13.7H282v11.3h-13.5v18.7c0,7.5,3,9.2,8.5,9.2c3.6,0,6.4-1.1,6.4-1.1v11.2
		c0,0-2.2,1.8-8.4,1.8c-17,0-20.2-8.5-20.2-18V9.1z M200.1,73h13.7V46c0-7.1,3.2-12.5,10.3-12.5c6,0,9,3.8,9,11.7V73h13.6V42.6
		c0-12.7-5.2-21.3-18.3-21.3c-6.3,0-11.8,2.4-15.1,7.7v-6.1h-13.4V73z M168.1,21.3c-6.2,0-13,1.2-18.1,3.2v11.3
		c5-2.2,10.8-3.4,16.1-3.4c8.5,0,13,3.3,13,11c-3.5-1.1-7.8-1.5-11.3-1.5c-10.9,0-21.3,5.7-21.3,16.9c0,10.3,7.5,15.8,17.6,15.8
		c6.7,0,11.8-2.2,15.2-6.4l0.4,4.9l12.2,0V44C191.9,29,183,21.3,168.1,21.3z M168.4,64.2c-5.5,0.4-8.8-1.9-9-6
		c-0.2-4.6,4.4-6.7,9.4-7.1c6.6-0.4,10,1.9,10.1,5.2C179.1,60.5,175.9,63.9,168.4,64.2z M125.1,7.9c0,4.6,3.3,7.9,8,7.9
		c4.7,0,8.3-3.3,8.3-7.9c0-4.5-3.5-7.9-8.3-7.9C128.3,0,125.1,3.3,125.1,7.9 M126.3,73h13.9V22.9h-13.9V73z M104.1,73h13.7V1.3
		h-13.7L104.1,73z M72.4,21.3c-4.1,0-8.8,0.7-12.2,1.7L56,35.4c5-2.2,9.6-3,14.4-3c8.5,0,13,3.3,13,11c-3.5-1.1-7.8-1.5-11.3-1.5
		c-11,0-21.3,5.7-21.3,16.9c0,10.3,7.5,15.8,17.6,15.8c6.7,0,11.8-2.2,15.2-6.4l0.4,4.9h12.2V44C96.1,29,87.2,21.3,72.4,21.3z
		 M72.6,64.2c-5.5,0.4-8.8-1.9-9-6c-0.2-4.6,4.4-6.7,9.4-7.1c6.6-0.4,10,1.9,10.1,5.2C83.3,60.5,80.2,63.9,72.6,64.2z M19.3,73h14.2
		L53,22.9H38.7L26.8,58.6L15.2,22.9H0L19.3,73z"/>
</g>
<g id="Hilfslinien">
</g>
</svg>
