<svg xmlns="http://www.w3.org/2000/svg" viewBox="0 0 245.28 66.5"><defs><style>.cls-1{fill:#0091b2;stroke:#0091b2;stroke-miterlimit:10}.cls-2{fill:#010102}.cls-3{fill:#010105}</style></defs><title>Asset 3</title><g id="Layer_2" data-name="Layer 2"><g id="_1330" data-name="1330"><path d="M108.86 58.39a3.15 3.15 0 0 1 .83 2.36 4.07 4.07 0 0 1-.73 2.49 2.63 2.63 0 0 1-2.26 1 2.55 2.55 0 0 1-2-.87 3.45 3.45 0 0 1-.75-2.34 3.74 3.74 0 0 1 .79-2.5 2.65 2.65 0 0 1 2.13-.93 2.8 2.8 0 0 1 1.99.79zm-.65 4.15a4 4 0 0 0 .38-1.75 3.15 3.15 0 0 0-.28-1.42 1.55 1.55 0 0 0-1.51-.86 1.48 1.48 0 0 0-1.38.73A3.43 3.43 0 0 0 105 61a3 3 0 0 0 .43 1.66 1.52 1.52 0 0 0 1.37.66 1.43 1.43 0 0 0 1.41-.78zM111.55 55.87a1.61 1.61 0 0 1 1.42-.54h.44v1H113q-.48 0-.58.25a4.85 4.85 0 0 0-.09 1.26h1v.83h-1V64h-1v-5.37h-.87v-.83h.87v-1a1.87 1.87 0 0 1 .22-.93zM118.11 55.45h3.83a2.6 2.6 0 0 1 1.83.64 2.34 2.34 0 0 1 .7 1.81 2.63 2.63 0 0 1-.62 1.75 2.35 2.35 0 0 1-1.91.74h-2.67V64h-1.16zm4.5 1.18a2.49 2.49 0 0 0-1-.18h-2.29v3h2.29a2.18 2.18 0 0 0 1.26-.33 1.32 1.32 0 0 0 .48-1.17 1.29 1.29 0 0 0-.74-1.32zM129.25 60.23a.57.57 0 0 0 .48-.3.93.93 0 0 0 .07-.4.86.86 0 0 0-.38-.78 2 2 0 0 0-1.09-.24 1.38 1.38 0 0 0-1.16.44 1.47 1.47 0 0 0-.25.73h-1a1.81 1.81 0 0 1 .75-1.61 3.06 3.06 0 0 1 1.67-.45 3.39 3.39 0 0 1 1.79.42 1.42 1.42 0 0 1 .68 1.31v3.6a.46.46 0 0 0 .07.26.32.32 0 0 0 .28.1h.35V64l-.37.09h-.35a.86.86 0 0 1-.79-.38 1.48 1.48 0 0 1-.18-.58 2.67 2.67 0 0 1-.92.73 2.85 2.85 0 0 1-1.32.31 2 2 0 0 1-1.42-.53 1.75 1.75 0 0 1-.55-1.32 1.7 1.7 0 0 1 .54-1.34 2.58 2.58 0 0 1 1.42-.59zM127 63.07a1.23 1.23 0 0 0 .79.26 2.4 2.4 0 0 0 1.07-.26 1.44 1.44 0 0 0 .87-1.39v-.84a1.79 1.79 0 0 1-.49.2 4.18 4.18 0 0 1-.59.12l-.63.08a2.46 2.46 0 0 0-.86.24.93.93 0 0 0-.49.87.86.86 0 0 0 .33.72zM132.65 57.77h1v1.08a2.38 2.38 0 0 1 .6-.77 1.56 1.56 0 0 1 1.1-.45H135.69v1.11h-.34a1.5 1.5 0 0 0-1.22.51 1.78 1.78 0 0 0-.43 1.17V64h-1zM136.66 55.45h1v5l2.69-2.65h1.34l-2.4 2.32 2.54 3.88h-1.34l-2-3.18-.86.83V64h-1zM146.41 55.45h3.89a3.82 3.82 0 0 1 1.59.29 2 2 0 0 1 1.18 2 2.11 2.11 0 0 1-1.21 2 1.75 1.75 0 0 1 .75.54 1.93 1.93 0 0 1 .28 1.08v1.15a3.52 3.52 0 0 0 .08.73.72.72 0 0 0 .37.52V64H152a1.07 1.07 0 0 1-.09-.29 5.45 5.45 0 0 1-.06-.68l-.07-1.43a1.21 1.21 0 0 0-.61-1.12 2.44 2.44 0 0 0-1-.16h-2.56V64h-1.16zm3.77 3.92a2.14 2.14 0 0 0 1.25-.33 1.35 1.35 0 0 0 .46-1.18 1.27 1.27 0 0 0-.65-1.25 2.06 2.06 0 0 0-.92-.17h-2.75v2.93zM158.18 60.23a.57.57 0 0 0 .48-.3.93.93 0 0 0 .07-.4.86.86 0 0 0-.38-.78 2 2 0 0 0-1.09-.24 1.38 1.38 0 0 0-1.16.44 1.47 1.47 0 0 0-.25.73h-1a1.81 1.81 0 0 1 .75-1.61 3.06 3.06 0 0 1 1.67-.45 3.39 3.39 0 0 1 1.79.42 1.42 1.42 0 0 1 .68 1.31v3.6a.46.46 0 0 0 .07.26.32.32 0 0 0 .28.1h.35V64l-.37.09h-.35a.86.86 0 0 1-.79-.38 1.48 1.48 0 0 1-.18-.58 2.67 2.67 0 0 1-.92.73 2.85 2.85 0 0 1-1.32.31 2 2 0 0 1-1.42-.53 1.75 1.75 0 0 1-.55-1.32 1.7 1.7 0 0 1 .54-1.34 2.58 2.58 0 0 1 1.42-.59zM156 63.07a1.23 1.23 0 0 0 .79.26 2.4 2.4 0 0 0 1.07-.26 1.44 1.44 0 0 0 .87-1.39v-.84a1.79 1.79 0 0 1-.49.2 4.18 4.18 0 0 1-.59.12l-.63.08a2.46 2.46 0 0 0-.86.24.93.93 0 0 0-.49.87.86.86 0 0 0 .33.72zM161.47 57.8h1v.83a2.55 2.55 0 0 1 .69-.66 2.22 2.22 0 0 1 1.25-.35 2.35 2.35 0 0 1 1.81.81 3.32 3.32 0 0 1 .74 2.32 3.56 3.56 0 0 1-1.07 2.91 2.42 2.42 0 0 1-1.58.55 2.15 2.15 0 0 1-1.19-.31 2.73 2.73 0 0 1-.63-.6v3.2h-1zm3.95 4.89a2.92 2.92 0 0 0 .49-1.84 3.42 3.42 0 0 0-.22-1.28 1.59 1.59 0 0 0-3 .06 4.3 4.3 0 0 0-.22 1.48 3.12 3.12 0 0 0 .22 1.23 1.59 1.59 0 0 0 2.72.35zM168.28 55.45h1.07v1.19h-1.07zm0 2.35h1.07V64h-1.07zM174.44 58a2.81 2.81 0 0 1 .63.61v-3.19h1V64h-.94v-.87a2.27 2.27 0 0 1-.86.83 2.47 2.47 0 0 1-1.14.26 2.31 2.31 0 0 1-1.8-.88 3.44 3.44 0 0 1-.76-2.33 4 4 0 0 1 .69-2.36 2.27 2.27 0 0 1 2-1 2.21 2.21 0 0 1 1.18.35zm-2.34 4.68a1.48 1.48 0 0 0 1.36.68 1.43 1.43 0 0 0 1.19-.63 3 3 0 0 0 .47-1.8 2.67 2.67 0 0 0-.48-1.75 1.5 1.5 0 0 0-1.19-.57 1.57 1.57 0 0 0-1.28.61 2.79 2.79 0 0 0-.49 1.78 3.11 3.11 0 0 0 .42 1.64zM178.35 62.05a1.5 1.5 0 0 0 .27.8 1.7 1.7 0 0 0 1.4.51 2.1 2.1 0 0 0 1-.25.84.84 0 0 0 .45-.78.67.67 0 0 0-.36-.61 4.36 4.36 0 0 0-.91-.3l-.85-.21a4.17 4.17 0 0 1-1.2-.44 1.32 1.32 0 0 1-.69-1.18 1.79 1.79 0 0 1 .65-1.43 2.6 2.6 0 0 1 1.74-.55 2.43 2.43 0 0 1 2.06.83 1.78 1.78 0 0 1 .38 1.13h-1a1.19 1.19 0 0 0-.26-.64 1.67 1.67 0 0 0-1.28-.41 1.56 1.56 0 0 0-.92.23.7.7 0 0 0-.31.6.73.73 0 0 0 .48.65 2.49 2.49 0 0 0 .7.26l.71.17a5.53 5.53 0 0 1 1.54.53 1.4 1.4 0 0 1 .61 1.26 1.92 1.92 0 0 1-.64 1.44 2.75 2.75 0 0 1-2 .61 2.63 2.63 0 0 1-2-.63 2.37 2.37 0 0 1-.63-1.56zM184 65.24a.74.74 0 0 0 .57-.57 1.61 1.61 0 0 0 .09-.51v-.07a.41.41 0 0 0 0-.07H184v-1.28h1.25v1.18a2.55 2.55 0 0 1-.28 1.22 1.27 1.27 0 0 1-1 .65zM190.69 55.45h1.66l2.46 7.24 2.44-7.24h1.65V64h-1.1v-5-.87-1.3L195.38 64h-1.15l-2.47-7.22V64h-1.11zM200.61 55.45h1.07v1.19h-1.07zm0 2.35h1.07V64h-1.07zM203.34 57.77h1v.89a2.8 2.8 0 0 1 .94-.79 2.5 2.5 0 0 1 1.1-.24 1.82 1.82 0 0 1 1.79.93 3.29 3.29 0 0 1 .26 1.45v4h-1.07v-3.93a2.13 2.13 0 0 0-.17-.92 1 1 0 0 0-1-.58 2.07 2.07 0 0 0-.61.08 1.57 1.57 0 0 0-.76.51 1.55 1.55 0 0 0-.34.64 4.29 4.29 0 0 0-.08.94V64h-1zM210.06 57.77h1v.89a2.8 2.8 0 0 1 .94-.79 2.5 2.5 0 0 1 1.1-.24 1.82 1.82 0 0 1 1.79.93 3.29 3.29 0 0 1 .26 1.45v4h-1.07v-3.93a2.13 2.13 0 0 0-.17-.92 1 1 0 0 0-1-.58 2.07 2.07 0 0 0-.61.08 1.57 1.57 0 0 0-.76.51 1.55 1.55 0 0 0-.34.64 4.29 4.29 0 0 0-.08.94V64h-1zM220.64 57.94a2.36 2.36 0 0 1 .94.81 2.79 2.79 0 0 1 .42 1.1 7.23 7.23 0 0 1 .09 1.38h-4.54a2.69 2.69 0 0 0 .45 1.53 1.48 1.48 0 0 0 1.29.58 1.66 1.66 0 0 0 1.3-.54 1.86 1.86 0 0 0 .39-.73h1a2.17 2.17 0 0 1-.27.77 2.75 2.75 0 0 1-.51.69 2.42 2.42 0 0 1-1.17.63 3.55 3.55 0 0 1-.85.09 2.6 2.6 0 0 1-2-.85 3.31 3.31 0 0 1-.8-2.37 3.6 3.6 0 0 1 .81-2.44 2.67 2.67 0 0 1 2.12-.94 2.82 2.82 0 0 1 1.33.29zm.38 2.45a2.74 2.74 0 0 0-.29-1.09 1.51 1.51 0 0 0-1.43-.76 1.58 1.58 0 0 0-1.2.52 2 2 0 0 0-.51 1.33zM224.13 62.05a1.5 1.5 0 0 0 .27.8 1.7 1.7 0 0 0 1.4.51 2.1 2.1 0 0 0 1-.25.84.84 0 0 0 .45-.78.67.67 0 0 0-.36-.61 4.36 4.36 0 0 0-.91-.3l-.85-.21a4.17 4.17 0 0 1-1.2-.44 1.32 1.32 0 0 1-.69-1.18 1.79 1.79 0 0 1 .65-1.43 2.6 2.6 0 0 1 1.74-.55 2.43 2.43 0 0 1 2.06.83 1.78 1.78 0 0 1 .38 1.13h-1a1.19 1.19 0 0 0-.26-.64 1.67 1.67 0 0 0-1.28-.41 1.56 1.56 0 0 0-.92.23.7.7 0 0 0-.31.6.73.73 0 0 0 .41.65 2.49 2.49 0 0 0 .7.26l.71.17a5.53 5.53 0 0 1 1.54.53 1.4 1.4 0 0 1 .61 1.26 1.92 1.92 0 0 1-.64 1.44 2.75 2.75 0 0 1-2 .61 2.63 2.63 0 0 1-2-.63 2.37 2.37 0 0 1-.63-1.56zM234.08 58.39a3.15 3.15 0 0 1 .83 2.36 4.07 4.07 0 0 1-.73 2.49 2.63 2.63 0 0 1-2.26 1 2.55 2.55 0 0 1-2-.87 3.45 3.45 0 0 1-.75-2.34 3.74 3.74 0 0 1 .79-2.5 2.65 2.65 0 0 1 2.13-.93 2.8 2.8 0 0 1 1.99.79zm-.65 4.15a4 4 0 0 0 .38-1.75 3.15 3.15 0 0 0-.28-1.42 1.55 1.55 0 0 0-1.51-.86 1.48 1.48 0 0 0-1.38.73 3.43 3.43 0 0 0-.43 1.77 3 3 0 0 0 .43 1.66 1.52 1.52 0 0 0 1.37.66 1.43 1.43 0 0 0 1.41-.79zM236.48 56h1.06v1.74h1v.86h-1v4.1a.44.44 0 0 0 .22.44.94.94 0 0 0 .41.06h.36v.8a2.32 2.32 0 0 1-.38.08h-.42a1.14 1.14 0 0 1-1-.38 1.67 1.67 0 0 1-.26-1v-4.07h-.84v-.86h.84zM243 60.23a.57.57 0 0 0 .48-.3.93.93 0 0 0 .07-.4.86.86 0 0 0-.38-.78 2 2 0 0 0-1.09-.24 1.38 1.38 0 0 0-1.16.44 1.47 1.47 0 0 0-.25.73h-1a1.81 1.81 0 0 1 .75-1.61 3.06 3.06 0 0 1 1.67-.45 3.39 3.39 0 0 1 1.79.42 1.42 1.42 0 0 1 .68 1.31v3.6a.46.46 0 0 0 .07.26.32.32 0 0 0 .28.1h.35V64l-.37.09h-.35a.86.86 0 0 1-.79-.38 1.48 1.48 0 0 1-.18-.58 2.67 2.67 0 0 1-.92.73 2.85 2.85 0 0 1-1.32.31 2 2 0 0 1-1.42-.53 1.75 1.75 0 0 1-.55-1.32 1.7 1.7 0 0 1 .54-1.34 2.58 2.58 0 0 1 1.42-.59zm-2.21 2.83a1.23 1.23 0 0 0 .79.26 2.4 2.4 0 0 0 1.07-.26 1.44 1.44 0 0 0 .87-1.39v-.84a1.79 1.79 0 0 1-.49.2 4.18 4.18 0 0 1-.59.12l-.63.08a2.46 2.46 0 0 0-.86.24.93.93 0 0 0-.49.87.86.86 0 0 0 .35.73z"/><path class="cls-1" d="M55.12 48.67C-4.55 67.42-24.15-.77 41.49 7.75 27.85 12 21.88 41 55.12 48.67zM96.89 22.24S86.66-7.59 37.22 2.64c0 0 22.16 6 28.13 20.46z"/><path class="cls-1" d="M50.86 54.63s16.55-5.12 16.2-23.87l29.84-.85c1.7 1.7-9.16 26.43-45.07 24.72z"/><path class="cls-2" d="M120.1 23.16l6.18 2.61s-2.65 8.77-12.36 7.91C105 32.9 102 27.78 102 21.38v-.81c0-7.28 3.84-11.54 11.91-12.31 9.71-.93 11.48 7 11.48 7l-5.49 1.84s-.85-3.41-5.54-3c-3.8.35-4.69 3-5.11 6.82-.24 2.16.43 6.39 5.11 6.82s5.74-4.58 5.74-4.58z"/><path class="cls-3" d="M129.71 9.88h5.97v4.26h-5.97zM129.71 16.7h5.97v17.05h-5.97zM155.29 9.88h5.97v4.26h-5.97zM155.29 16.7h5.97v17.05h-5.97zM147.19 10.31v6h4.26v4.26h-4.26v7.67s0 .85 1.7.85h2.56v3.41a.83.83 0 0 1-.85.85h-5.11a3.34 3.34 0 0 1-3.41-3.41v-9.4h-2.56v-4.27h2.56v-2.55zM134.25 37.31v3.2h2.28v2.28h-2.28v4.11s0 .46.91.46h1.37v1.83a.45.45 0 0 1-.46.46h-2.74a1.79 1.79 0 0 1-1.83-1.83v-5h-1.37v-2.31h1.37v-1.37zM139.09 38.01h2.98v2.13h-2.98zM139.09 41.42h2.98v8.52h-2.98zM165.94 16.27h14.49v4.27l-7.67 7.67v.85h7.67v4.26h-15.34v-4.26l8.52-8.52h-7.67v-4.27zM201.74 25.65v-4.26a7.46 7.46 0 0 0-6.82-5.11h-5.11c-4.26 0-6 5.11-6 5.11v5.11c0 5.11 5.11 6.82 5.11 6.82h7.67c3.41 0 5.11-4.26 5.11-4.26h-6l-.85.85c-5.11.85-5.11-3.41-5.11-3.41v-.85zm-9.38-6c4.26 0 3.41 3.41 3.41 3.41h-6s-.77-3.38 2.6-3.38zM217.09 33.32V23.09c0-3.41-5.11-.85-5.11-.85v11.08h-6V17.13h6v1.7s3.41-2.56 6-2.56c4.26 0 5.11 3.41 5.11 4.26v12.79zM163.79 49.52v-5c0-2-2.94-.49-2.94-.49v5.52h-3.43v-8.49h3.43v1a7.55 7.55 0 0 1 3.43-1.47 2.7 2.7 0 0 1 2.94 2.41v6.5zM226.87 49.52v-5c0-2-2.94-.49-2.94-.49v5.52h-3.43v-8.49h3.43v1a7.55 7.55 0 0 1 3.43-1.47A2.7 2.7 0 0 1 230.3 43v6.5zM235.84 22.24c-3.41 0-3.41-1.7-3.41-1.7l.85-.85h3.41l.85.85h6s0-4.26-5.11-4.26h-6s-3.41 0-5.11 4.26v1.7a5 5 0 0 0 5.11 3.41h.85s5.11 0 5.11 2.56v.85a2.64 2.64 0 0 1-1.7.85h-.85c-3.41 0-3.41-1.7-3.41-1.7l-5.11.85v.85s.85 3.41 4.26 3.41h7.67c2.56 0 9.38-6 .85-10.23zM103.71 49.52h3.41v-5.97h.86l4.26 5.97h3.41V37.59h-3.41v5.96h-.85l-4.27-5.96h-3.41v11.93zM125.88 41h-4.26s-2.56 0-2.56 1.7l2.56.85.85-.85a1.21 1.21 0 0 1 1.7 1.7c-.85.85-6 0-6 2.56 0 3.41 3.41 2.56 3.41 2.56h.85l2.56-.85.85.85h1.7V42.7s-.81-1.7-1.66-1.7zm-1.7 6l-.85.85h-1.7V47l1.7-.85H125zM177 41h-4.26s-2.56 0-2.56 1.7l2.56.85.85-.85a1.21 1.21 0 0 1 1.7 1.7c-.85.85-6 0-6 2.56 0 3.41 3.41 2.56 3.41 2.56h.85l2.56-.85.85.85h1.7V42.7S177.88 41 177 41zm-1.7 6l-.85.85h-1.7V47l1.7-.85h1.7zM216.24 41H212s-2.56 0-2.56 1.7l2.56.85.85-.85a1.21 1.21 0 0 1 1.7 1.7c-.85.85-6 0-6 2.56 0 3.41 3.41 2.56 3.41 2.56h.85l2.56-.85.85.85h1.7V42.7s-.83-1.7-1.68-1.7zm-1.7 6l-.85.85H212V47l1.7-.85h1.7zM151.45 41h-2.56c-1.7 0-3.41 2.56-3.41 2.56V47s1.7 2.56 3.41 2.56h2.56c1.7 0 3.41-2.56 3.41-2.56v-3.45s-1.7-2.55-3.41-2.55zm0 6v.09c-.85 1.61-2.56 0-2.56 0v-3.5s1.7-1.7 2.56 0zM180.86 38.01h3.41v11.93h-3.41zM205.15 43.55v-.85c2.56-3.41-.85-5.11-.85-5.11h-8.52v11.93h9.38s4.26-2.52-.01-5.97zM202.6 47h-3.41v-1.7h3.41l.85.85zm-.85-5.11h-2.56v-1.7h2.56l.85.85zM233.28 37.59h3.41v5.96h.86L240.1 41h4.27l-3.41 3.41 3.41 5.11h-4.27l-1.7-3.41h-1.71v3.41h-3.41V37.59z"/></g></g></svg>