<?xml version="1.0" encoding="utf-8"?>
<!-- Generator: Adobe Illustrator 22.1.0, SVG Export Plug-In . SVG Version: 6.00 Build 0)  -->
<svg version="1.1" id="Layer_1" xmlns="http://www.w3.org/2000/svg" xmlns:xlink="http://www.w3.org/1999/xlink" x="0px" y="0px"
	 viewBox="0 0 42 42" style="enable-background:new 0 0 42 42;" xml:space="preserve">
<style type="text/css">
	.st0{fill:#737373;}
</style>
<title>icon_creditScores</title>
<path class="st0" d="M31.6,13c0.8,1.2,1.4,2.5,1.8,3.9l-13.6,14l-0.7,0.8l-1-1L7.4,20.8l2.7-2.9l8.8,8.1L31.6,13z M41.1,9l-4.4,4.5
	c-0.5-1.3-1.2-2.5-2-3.6l3.6-3.7L41.1,9z M19.4,5.9c-2.7,0-5.3,0.7-7.6,2.1c-7.2,4.2-9.6,13.4-5.4,20.6c1.3,2.2,3.2,4.1,5.4,5.4
	c2.3,1.3,5,2,7.6,2c2.7,0,5.3-0.7,7.6-2c2.2-1.3,4.1-3.2,5.4-5.4c1.4-2.3,2.1-4.9,2.1-7.6c0-2.7-0.7-5.3-2.1-7.6
	C31.1,11.2,29.2,9.3,27,8C24.7,6.6,22,5.9,19.4,5.9z M19.4,39.5c-3.3,0-6.5-0.8-9.4-2.5c-2.8-1.6-5-3.9-6.6-6.6
	C0,24.6,0,17.4,3.4,11.7C5,8.9,7.2,6.7,10,5.1c2.8-1.7,6.1-2.5,9.3-2.5c3.3,0,6.5,0.9,9.3,2.5c2.8,1.6,5,3.9,6.6,6.6
	c3.4,5.7,3.4,12.9,0,18.6c-1.6,2.7-3.9,5-6.6,6.6C25.9,38.6,22.6,39.5,19.4,39.5z"/>
</svg>
