<svg xmlns="http://www.w3.org/2000/svg" xmlns:xlink="http://www.w3.org/1999/xlink" width="197.352" height="37.798" viewBox="0 0 197.352 37.798"><defs><clipPath id="a"><path d="M0-214.99H11.828c12.887,0,16.676,8.844,16.676,17.99,0,10.208-5.205,18.09-16.776,18.09H0Zm2.223,34.16h9.7c6.726,0,14.351-3.689,14.351-16.17,0-14.754-9.449-16.07-14.806-16.07H2.227Z" transform="translate(0 214.99)" fill="none"/></clipPath><clipPath id="b"><path d="M-82,4.454H119.44V-242H-82Z" transform="translate(82 242)" fill="none"/></clipPath><clipPath id="c"><path d="M195.425-214.99h11.824c12.887,0,16.676,8.844,16.676,17.99,0,10.208-5.205,18.09-16.777,18.09H195.42Zm2.223,34.16h9.7c6.726,0,14.351-3.689,14.351-16.17,0-14.754-9.449-16.069-14.806-16.069h-9.248Z" transform="translate(-195.42 214.99)" fill="none"/></clipPath><clipPath id="e"><path d="M408.606-208.826c-.253-6.166-4.9-9.253-11.572-9.253-4.093,0-9.9,1.725-9.9,7.68,0,5.812,6.166,6.771,12.28,8.035,6.166,1.262,12.33,2.83,12.33,10,0,7.48-7.174,10.158-12.683,10.158-8.439,0-15.312-3.487-15.21-12.785h2.223c-.455,7.883,5.864,10.865,12.987,10.865,4.346,0,10.46-1.971,10.46-8.237,0-6.114-6.166-7.175-12.33-8.439-6.116-1.262-12.28-2.728-12.28-9.6,0-6.923,6.417-9.6,12.128-9.6,7.53,0,13.442,3.234,13.8,11.169Z" transform="translate(-383.844 220)" fill="none" clip-rule="evenodd"/></clipPath></defs><g transform="translate(-41.015 -129.101)"><path d="M4.881,0H4.026V-11.339H.083v-.8H8.824v.8H4.881Zm6.1,0h-.822V-9.023h.822Zm-.938-11.53q0-.8.523-.8a.464.464,0,0,1,.4.208,1.019,1.019,0,0,1,.145.589,1.043,1.043,0,0,1-.145.589.459.459,0,0,1-.4.216Q10.046-10.725,10.046-11.53ZM14.573,0h-.822V-12.916h.822Zm6.411.166a3.932,3.932,0,0,1-3.067-1.212,4.871,4.871,0,0,1-1.1-3.4A5.293,5.293,0,0,1,17.879-7.9a3.507,3.507,0,0,1,2.864-1.3,3.092,3.092,0,0,1,2.515,1.112,4.593,4.593,0,0,1,.921,3.021V-4.4h-6.5a4.269,4.269,0,0,0,.867,2.839,3.053,3.053,0,0,0,2.436.979A7.557,7.557,0,0,0,22.34-.689a8.248,8.248,0,0,0,1.482-.465v.747a6.609,6.609,0,0,1-1.411.452A7.832,7.832,0,0,1,20.983.166Zm-.241-8.633a2.7,2.7,0,0,0-2.092.859,4.052,4.052,0,0,0-.921,2.478h5.578a3.934,3.934,0,0,0-.681-2.453A2.245,2.245,0,0,0,20.742-8.467ZM30.085-3.08A3.136,3.136,0,0,1,30.7-5.03a7.111,7.111,0,0,1,2.279-1.7l-.623-.681a4.615,4.615,0,0,1-.813-1.154,2.736,2.736,0,0,1-.266-1.179,2.382,2.382,0,0,1,.793-1.884,3.108,3.108,0,0,1,2.129-.7,2.944,2.944,0,0,1,2.038.672,2.367,2.367,0,0,1,.751,1.859A2.5,2.5,0,0,1,36.4-8.2a7.772,7.772,0,0,1-2.1,1.615l3.752,3.793a6.658,6.658,0,0,0,.863-1.3,9.026,9.026,0,0,0,.623-1.668h.8A9.124,9.124,0,0,1,38.6-2.225L40.81,0H39.689l-1.6-1.635A7.182,7.182,0,0,1,36.726-.544a5.2,5.2,0,0,1-1.307.527A6.5,6.5,0,0,1,33.8.166a4.04,4.04,0,0,1-2.727-.855A2.987,2.987,0,0,1,30.085-3.08Zm3.777,2.5a5.1,5.1,0,0,0,1.947-.361,5.376,5.376,0,0,0,1.739-1.216L33.538-6.184a10.008,10.008,0,0,0-1.631,1.017,2.664,2.664,0,0,0-.73.909,2.687,2.687,0,0,0-.228,1.146,2.336,2.336,0,0,0,.772,1.859A3.154,3.154,0,0,0,33.862-.581Zm-1.7-9.181a2.321,2.321,0,0,0,.332,1.212,7.746,7.746,0,0,0,1.262,1.444,6.341,6.341,0,0,0,1.834-1.32,2.123,2.123,0,0,0,.515-1.4,1.661,1.661,0,0,0-.515-1.266,1.949,1.949,0,0,0-1.395-.486,2.168,2.168,0,0,0-1.49.481A1.692,1.692,0,0,0,32.161-9.762ZM53.507-3.129A2.913,2.913,0,0,1,52.39-.722a4.63,4.63,0,0,1-2.968.888,9.3,9.3,0,0,1-3.412-.49V-1.17a8.632,8.632,0,0,0,3.345.556,3.748,3.748,0,0,0,2.37-.685A2.172,2.172,0,0,0,52.6-3.1a2.074,2.074,0,0,0-.291-1.141,2.65,2.65,0,0,0-.946-.826,11.669,11.669,0,0,0-1.926-.805A6.592,6.592,0,0,1,46.87-7.251a2.747,2.747,0,0,1-.71-1.98,2.721,2.721,0,0,1,1.067-2.22,4.236,4.236,0,0,1,2.743-.859,8.03,8.03,0,0,1,3.212.647l-.307.73a7.493,7.493,0,0,0-2.889-.631,3.387,3.387,0,0,0-2.142.623,2.034,2.034,0,0,0-.8,1.693,2.218,2.218,0,0,0,.245,1.1,2.251,2.251,0,0,0,.8.776A10.967,10.967,0,0,0,50-6.541a10.292,10.292,0,0,1,2.133.95,3.049,3.049,0,0,1,1.042,1.046A2.855,2.855,0,0,1,53.507-3.129ZM57.991-.564A6.164,6.164,0,0,0,59.353-.7v.664a4.355,4.355,0,0,1-1.378.2,2.244,2.244,0,0,1-1.764-.639,2.967,2.967,0,0,1-.569-2.009V-8.309H54.306v-.481l1.336-.374.415-2.042h.423v2.183h2.648v.714H56.481V-2.6a2.606,2.606,0,0,0,.365,1.536A1.326,1.326,0,0,0,57.991-.564ZM68.511-4.524A5.111,5.111,0,0,1,67.44-1.075,3.7,3.7,0,0,1,64.485.166a3.827,3.827,0,0,1-2.092-.573A3.664,3.664,0,0,1,61.007-2.05a5.978,5.978,0,0,1-.481-2.474A5.078,5.078,0,0,1,61.6-7.965,3.689,3.689,0,0,1,64.535-9.2a3.62,3.62,0,0,1,2.918,1.249A5.131,5.131,0,0,1,68.511-4.524Zm-7.122,0a4.592,4.592,0,0,0,.818,2.9A2.769,2.769,0,0,0,64.518-.581,2.769,2.769,0,0,0,66.83-1.623a4.592,4.592,0,0,0,.818-2.9,4.52,4.52,0,0,0-.826-2.9A2.806,2.806,0,0,0,64.5-8.45a2.764,2.764,0,0,0-2.3,1.025A4.582,4.582,0,0,0,61.389-4.524ZM77.046,0V-5.852a2.854,2.854,0,0,0-.573-1.98A2.312,2.312,0,0,0,74.7-8.45a3.075,3.075,0,0,0-2.37.818,3.854,3.854,0,0,0-.751,2.652V0h-.822V-9.023h.7l.158,1.237h.05A3.391,3.391,0,0,1,74.788-9.2q3.071,0,3.071,3.3V0Zm7.124.166A3.932,3.932,0,0,1,81.1-1.046a4.871,4.871,0,0,1-1.1-3.4A5.293,5.293,0,0,1,81.066-7.9,3.507,3.507,0,0,1,83.93-9.2a3.092,3.092,0,0,1,2.515,1.112,4.593,4.593,0,0,1,.921,3.021V-4.4h-6.5a4.269,4.269,0,0,0,.867,2.839,3.053,3.053,0,0,0,2.436.979,7.557,7.557,0,0,0,1.357-.108,8.248,8.248,0,0,0,1.482-.465v.747A6.609,6.609,0,0,1,85.6.046,7.832,7.832,0,0,1,84.171.166ZM83.93-8.467a2.7,2.7,0,0,0-2.092.859,4.052,4.052,0,0,0-.921,2.478h5.578a3.934,3.934,0,0,0-.681-2.453A2.245,2.245,0,0,0,83.93-8.467Z" transform="translate(151 154)" fill="#262626"/><g transform="translate(41.015 349.101)"><g transform="translate(0 -219.136)" clip-path="url(#a)"><g transform="translate(-14.142 -4.658)" clip-path="url(#b)"><path d="M-5-219.99H25.228v37.8H-5Z" transform="translate(18.28 223.786)" fill="#c95e37"/></g></g><g transform="translate(33.703 -219.136)" clip-path="url(#c)"><g transform="translate(-47.845 -4.658)" clip-path="url(#b)"><path d="M190.42-219.99h30.23v37.8H190.42Z" transform="translate(-143.437 223.786)" fill="#c95e37"/></g></g><g transform="translate(66.2 -220)" clip-path="url(#e)"><g transform="translate(-80.342 -3.794)" clip-path="url(#b)"><path d="M378.844-225h29.619v39.522H378.844Z" transform="translate(-299.364 227.932)" fill="#c95e37"/></g></g></g></g></svg>