<svg xmlns="http://www.w3.org/2000/svg" viewBox="0 0 332.48 227.59"><defs><style>.cls-1{fill:#f5f7fa;}</style></defs><g id="Layer_2" data-name="Layer 2"><g id="Layer_1-2" data-name="Layer 1"><path class="cls-1" d="M23.83,39.59c0-.43,0-.78,0-1.12a19.46,19.46,0,0,1-1.7,1.7,13.55,13.55,0,0,0-2-2.55,14.07,14.07,0,0,0,4.43-5.54,9,9,0,0,0,.58-1.66l3.26.6c-.16.32-.18.36-.5,1.06l-.42.92H37.88a15.07,15.07,0,0,0,2.46-.14v3a16.74,16.74,0,0,0-2.46-.14H33.49v2.62h3.43a23.92,23.92,0,0,0,2.5-.09v2.85A23.4,23.4,0,0,0,37,41H33.49v3.4h5.06a20.49,20.49,0,0,0,2.6-.14v3.06a21.42,21.42,0,0,0-2.6-.14H33.49V49.6a16.35,16.35,0,0,0,.14,2.62H30.3a19.67,19.67,0,0,0,.13-2.67V47.18H23a21.78,21.78,0,0,0-2.62.14V44.26A21.54,21.54,0,0,0,23,44.4h.87Zm2.07-3.88A24.59,24.59,0,0,1,24,38.28c.46,0,.85,0,1.42,0h5.06V35.71Zm4.53,8.69V41H26.78v3.4Z"/><path class="cls-1" d="M43.48,39.3a11.37,11.37,0,0,0,1.88.11h2a13.56,13.56,0,0,0,1.77-.09A22.1,22.1,0,0,0,49,41.87V47c1,1.47,2.34,1.88,5.81,1.88a80.3,80.3,0,0,0,10.4-.46,16.09,16.09,0,0,0-.78,3.2c-2.19.09-4.93.14-8.9.14-4.74,0-6.3-.46-7.94-2.32a22.63,22.63,0,0,1-2.59,2c-.35.26-.44.32-.65.49L43,48.84a14.9,14.9,0,0,0,3.06-2V42.15H45a8.51,8.51,0,0,0-1.49.11Zm2.14-8.51A26.28,26.28,0,0,1,49.75,35L47.5,37.25a23.44,23.44,0,0,0-4.07-4.37Zm5.68,3.79a9.9,9.9,0,0,0-1.73.09V32.08a20.37,20.37,0,0,0,2.67.13h3.22a8.76,8.76,0,0,0-.16-1.54h3a13.64,13.64,0,0,0-.14,1.54h3.52a21.89,21.89,0,0,0,2.69-.13v2.59a17.91,17.91,0,0,0-2.3-.09H58.19v.92h3.45c.88,0,1.27,0,2-.07a14.31,14.31,0,0,0-.09,1.84V42a13.06,13.06,0,0,0,.09,1.75c-.62-.05-1.17-.07-1.93-.07H58.19v.92h4c.8,0,1.93-.05,2.3-.09v2.55C64.15,47,63,47,62.22,47h-4c0,.11,0,.21,0,.27a5.34,5.34,0,0,0,.11,1.15h-3A8.24,8.24,0,0,0,55.43,47H52.08c-.85,0-1.75,0-2.35.07V44.54a20.81,20.81,0,0,0,2.28.09h3.45v-.92H52.31c-.69,0-1.36,0-2,.07A13.19,13.19,0,0,0,50.42,42V37.09a12,12,0,0,0-.09-1.66c.62,0,1.15.07,2,.07h3.17v-.92Zm1.79,3v1.08h2.37V37.55Zm0,3v1.1h2.37v-1.1Zm5.1-1.93h2.58V37.55H58.19Zm0,3h2.58v-1.1H58.19Z"/><path class="cls-1" d="M70.68,44a30.42,30.42,0,0,1-.85,7.15L67.74,50a22.79,22.79,0,0,0,.8-6.3Zm-2.85-3.66a6.32,6.32,0,0,0,1.06.07l.82,0c.12-.14.12-.14.33-.42s.2-.27.66-.89a26.66,26.66,0,0,0-2.92-3.48l1.31-2.41.76.83a15.82,15.82,0,0,0,1.52-3.48l2.6.95c-.16.25-.23.39-.51.92a37.33,37.33,0,0,1-2,3.47l.71.9a20.37,20.37,0,0,0,2-3.75l2.23,1.19V32.33a20.42,20.42,0,0,0,2.66.14h1.93A9.31,9.31,0,0,0,81,30.72h3.1a7.19,7.19,0,0,0-.13,1.75h2.5a19.63,19.63,0,0,0,2.62-.14V35a15.85,15.85,0,0,0-2.55-.12H83.93v1.33H86a16.85,16.85,0,0,0,2.39-.11v2.62A15.72,15.72,0,0,0,86,38.61H79.3a16.27,16.27,0,0,0-2.39.11V36.1a17.15,17.15,0,0,0,2.42.11h1.74V34.88h-2a17.11,17.11,0,0,0-2.62.12v-.58a15.21,15.21,0,0,0-1,1.54c-.71,1.13-2.21,3.27-3,4.32,1,0,1.19-.07,2-.13A16.92,16.92,0,0,0,74,38.44l1.84-.62a31.72,31.72,0,0,1,1.15,3.94V41.3a15.4,15.4,0,0,0-.07-1.71,16.68,16.68,0,0,0,2,.07h8A16.19,16.19,0,0,0,89,39.57a12.15,12.15,0,0,0-.09,1.7v1.36A13.73,13.73,0,0,0,89,44.4H86.16V42H79.49v.9H82c0,.41,0,.41-.11,1.75a8.19,8.19,0,0,1-1.57,4.82,8.93,8.93,0,0,1-3.54,2.58A7.47,7.47,0,0,0,75,49.6a9.89,9.89,0,0,0,2.16-1c1.36-.92,1.89-2.07,2-4.19H76.87a15.14,15.14,0,0,0,.07-1.59l-1.68.58-.16-.88c-.51.07-.72.1-1.25.14v7.11A14.12,14.12,0,0,0,74,52.22H71.12a15,15,0,0,0,.14-2.46V42.84l-.88,0c-.41,0-.73.07-.85.07a10.21,10.21,0,0,0-1.42.14Zm8.3,3.31c.18,1.08.23,1.57.32,2.48.19,1.75.19,1.75.23,2.35L74.8,49a39.28,39.28,0,0,0-.49-4.94Zm9.47-.71a10.12,10.12,0,0,0-.11,1.49V48.7c0,.34.09.41.55.41a1.07,1.07,0,0,0,.74-.2A9.17,9.17,0,0,0,87.05,46a8.17,8.17,0,0,0,2.46.92c-.32,4.51-.57,4.83-3.86,4.83-2.25,0-2.87-.44-2.87-2V44.42a6.88,6.88,0,0,0-.12-1.49Z"/><path class="cls-1" d="M14.14,34.42c-4.86.17-7.75,2.75-8.62,6.13a6.26,6.26,0,0,1,4.27-1.74c4.2,0,6,2.67,6,5.88,0,3.43-1.85,7-7,7-3.84,0-7.11-2.4-7.11-8.16,0-7.44,4.4-11.78,11.74-12.11ZM5.31,44c0,2.35,1.11,4.6,3.53,4.6,2.14,0,3.32-1.54,3.32-3.74A2.86,2.86,0,0,0,9,41.66a4.08,4.08,0,0,0-3.66,2Z"/><path class="cls-1" d="M5.64,8.71A33.81,33.81,0,0,0,13.56,6a8.2,8.2,0,0,0,2.11-1.32L17.93,7.9a7.37,7.37,0,0,0-.82.38A43.43,43.43,0,0,1,5.64,12.07V15c0,1.92,0,2.16.38,2.49S7.68,18,9.77,18a43.86,43.86,0,0,0,4.61-.27,17.55,17.55,0,0,0,4-.74l.15,3.79c-.51,0-.89.05-2.43.19-2.13.22-5,.36-6.82.36-3.19,0-4.82-.29-5.85-1s-1.35-1.87-1.35-4.9V4.92a22,22,0,0,0-.14-3H5.79a17.12,17.12,0,0,0-.15,3ZM16.8,1.25a13.07,13.07,0,0,1,2,3.21l-2.09,1a14.75,14.75,0,0,0-2-3.28ZM19.56,0a14.25,14.25,0,0,1,2,3.12l-2,1a15.88,15.88,0,0,0-2-3.21Z"/><path class="cls-1" d="M27.94,6.65a28.36,28.36,0,0,1,2.37,5.88l-3.21,1a25.38,25.38,0,0,0-2.16-6Zm13.89.29a9.82,9.82,0,0,0-.36,1.34,22.06,22.06,0,0,1-3.14,8c-1.71,2.44-3.84,4.15-7.63,6.07a10.52,10.52,0,0,0-2.28-2.86,16.94,16.94,0,0,0,4.22-2.21A13.47,13.47,0,0,0,38,8.91a13.17,13.17,0,0,0,.44-2.77ZM33.14,5.67a23.37,23.37,0,0,1,2.33,5.68l-3.14,1a28.86,28.86,0,0,0-2.16-5.83Z"/><path class="cls-1" d="M49.51,22a24.54,24.54,0,0,0,.15-3.38V4.42a20.76,20.76,0,0,0-.15-3.22h3.91a21.26,21.26,0,0,0-.14,3.22V8.06a58.36,58.36,0,0,1,10.92,5l-2,3.45a52.77,52.77,0,0,0-8-4.37,8.76,8.76,0,0,1-.91-.43v6.91A31.42,31.42,0,0,0,53.42,22Z"/><path class="cls-1" d="M72.1,19.9c-1.78,0-2.38,0-3.65.12V16.27a21.24,21.24,0,0,0,3.72.2H82.3V6.55H72.5a35.66,35.66,0,0,0-3.72.12V3a23,23,0,0,0,3.77.19H83.09c1.3,0,2.35,0,3-.07C86,4.66,86,4.66,86,5.69v12.1a23.31,23.31,0,0,0,.12,3.55H82.3V19.9Z"/><path class="cls-1" d="M111.34,3.31a7,7,0,0,0-.91.87,40.81,40.81,0,0,1-5.62,4.89v9.46a29,29,0,0,0,.12,3.55h-4a23.63,23.63,0,0,0,.14-3.48V11.31A41,41,0,0,1,92.9,15,11.68,11.68,0,0,0,91,11.76a35.35,35.35,0,0,0,12.65-6.24,19,19,0,0,0,4.44-4.44Z"/><path class="cls-1" d="M119,2.59a33.2,33.2,0,0,1,6.38,4.66L123,10.39a25.63,25.63,0,0,0-6.31-5Zm-2.26,14.88a22.88,22.88,0,0,0,7.16-1.75A14.86,14.86,0,0,0,131,9.84a20.87,20.87,0,0,0,2.43-4.78,13.18,13.18,0,0,0,3.05,2.79c-2.38,5.14-5.21,8.3-9.39,10.51a30.7,30.7,0,0,1-7,2.5l-1.06.21a8.41,8.41,0,0,0-1.2.34Z"/><path class="cls-1" d="M150,20.19a19,19,0,0,0,.12,2.66h-3.26a23,23,0,0,0,.14-2.64v-2c-1.87.58-4.13,1.2-5,1.37s-1.32.34-1.68.46l-.77-3.22c.55-.05.79-.07,1.7-.22V4c-.69,0-.89.05-1.44.1V1a16.47,16.47,0,0,0,2.28.15h7.2a16.87,16.87,0,0,0,2.31-.12V2.45c.6,0,1,0,1.6,0h6.15a20.05,20.05,0,0,0,2-.12c-.05.38-.1.88-.15,1.58a28.56,28.56,0,0,1-3.24,11.57,13.89,13.89,0,0,0,4.37,3.91,14.73,14.73,0,0,0-1.75,3.22,19.2,19.2,0,0,1-4.47-4.25,19.09,19.09,0,0,1-4.65,4.37,19,19,0,0,0-1.47-3.1Zm-5.73-14H147V4h-2.73Zm0,4.65H147V8.74h-2.73Zm0,5.19c1.17-.24,1.53-.31,2.73-.63v-2h-2.73Zm5.73,3.5a13.63,13.63,0,0,0,1.85-1.32,15.52,15.52,0,0,0,2.4-2.49C152.79,13.32,152,11,151,6.53L153.7,5.4h-.63a13.48,13.48,0,0,0-2.32.12V4c-.53,0-.53,0-.8,0Zm3.8-14.16c.09.46.09.46.36,1.63A22.67,22.67,0,0,0,156,12.55a24.5,24.5,0,0,0,1.92-7.15Z"/><path class="cls-1" d="M175,11.76a14,14,0,0,0,1.9-.09,10.69,10.69,0,0,0-.09,1.27,34.32,34.32,0,0,1-.82,6.38,3.59,3.59,0,0,1-2.35,2.79,9.59,9.59,0,0,1-2.67.28c-.93,0-2.28,0-3.67-.14a12.87,12.87,0,0,0-.74-3.24,28.26,28.26,0,0,0,4.49.41c.95,0,1.39-.15,1.6-.58a12.91,12.91,0,0,0,.79-4.34h-6.6c-.69,0-1.22,0-1.77.07a41.7,41.7,0,0,0,1.13-8.07,17.05,17.05,0,0,0,1.77.08h5.5V4.1h-5.52a22.12,22.12,0,0,0-2.62.15V1.13a22.56,22.56,0,0,0,2.67.14h6.29a23.25,23.25,0,0,0,2.44-.09c0,.6-.07,1.2-.07,2V7.44a16.63,16.63,0,0,0,.07,1.94c-.55,0-1.34-.07-2.18-.07h-5.38c-.12.87-.21,1.47-.41,2.45Zm9.63-11a18.52,18.52,0,0,0-.14,2.84v16a23,23,0,0,0,.14,3.19h-3.55a23.65,23.65,0,0,0,.17-3.21v-16a18.09,18.09,0,0,0-.17-2.84Z"/><path class="cls-1" d="M189.84,7.73a17.32,17.32,0,0,0,2.57.12h16.87a16.54,16.54,0,0,0,2.55-.12v2.42A16.15,16.15,0,0,0,209.4,10h-17a18.42,18.42,0,0,0-2.54.12Zm4.66,9c-.92,0-1.49,0-2.19.07a12.86,12.86,0,0,0,.1-1.94V12.48a12.74,12.74,0,0,0-.1-1.82,17.65,17.65,0,0,0,2.28.09h12.48a18.69,18.69,0,0,0,2.26-.09,12.35,12.35,0,0,0-.1,1.8v2.42a12.74,12.74,0,0,0,.1,1.92c-.72-.05-1.32-.07-2.18-.07H202.3v.74h5.85a13.12,13.12,0,0,0,2-.09v2.06a17.87,17.87,0,0,0-2.16-.09H202.3v.74H209a22.21,22.21,0,0,0,2.88-.12v2.42a26.31,26.31,0,0,0-2.88-.12H192.7a26,26,0,0,0-2.86.12V20a22,22,0,0,0,2.86.12h6.55v-.74h-5.5a17.36,17.36,0,0,0-2.16.09V17.38a13,13,0,0,0,2,.09h5.67v-.74Zm-.22-9.67c-1.27,0-1.85,0-2.47.07a15.12,15.12,0,0,0,.09-2V2.93a15.57,15.57,0,0,0-.09-2,25.81,25.81,0,0,0,2.61.09h12.8a25.37,25.37,0,0,0,2.59-.09,14.49,14.49,0,0,0-.1,2V5.11a15.29,15.29,0,0,0,.1,2c-.62,0-1.2-.07-2.47-.07Zm.58-1.52h11.83V4.87H194.86Zm0-2.06h11.83V2.76H194.88Zm.43,8.88v.75h3.94v-.75Zm0,2.11v.72h3.94v-.72Zm7-1.36h4v-.75h-4Zm0,2.08h4v-.72h-4Z"/><path class="cls-1" d="M.12,208.62c0-1,0-1.72-.07-2.49a13.11,13.11,0,0,0,1.8.1H5.59a12.15,12.15,0,0,0,1.87-.1c0,.69,0,1.08,0,1.87v15.05c0,.86,0,1.22.07,1.92H4.73v-1.18H2.86v2.26H0a23.27,23.27,0,0,0,.12-3Zm2.76,4.95H4.73v-4.51H2.88Zm0,7.39H4.73v-4.73H2.88ZM18.46,207a17.27,17.27,0,0,0,2.73-.14v2.9a17.64,17.64,0,0,0-1.89-.1,15.86,15.86,0,0,1-.91,2.77h.86a18.12,18.12,0,0,0,2.47-.12v3a18.28,18.28,0,0,0-2.66-.12H10.58c-1.05,0-2,.05-2.68.12v-3c.76.07,1.56.12,2.37.12h.29a13.54,13.54,0,0,0-.77-2.77c-.67,0-1,.05-1.46.1v-2.88A19.24,19.24,0,0,0,11,207h1.85v-.31a10.63,10.63,0,0,0-.1-1.61h3.32A8.16,8.16,0,0,0,16,206.7V207ZM8.9,218.44a17.12,17.12,0,0,0-.09-2.09,15.83,15.83,0,0,0,2.21.1h7.13a15.1,15.1,0,0,0,2.25-.1,16.29,16.29,0,0,0-.09,2.16v6.05a20.28,20.28,0,0,0,.12,2.86h-3.1v-1h-5.5v1h-3a21.7,21.7,0,0,0,.11-2.83Zm2.93,1.8h5.5V218.9h-5.5Zm0,3.65h5.5v-1.34h-5.5Zm3.63-11.42a14.89,14.89,0,0,0,.84-2.77H12.67a13.11,13.11,0,0,1,.79,2.77Z"/><path class="cls-1" d="M27.82,216.79a23,23,0,0,0-2.93.14v-3a24.17,24.17,0,0,0,3,.14H44.11a24.39,24.39,0,0,0,3-.14v3a23.43,23.43,0,0,0-3-.14H33.48c-.24.57-.38.93-.6,1.41H42a20.26,20.26,0,0,0,2.37-.09c0,.28,0,.4-.16,1.44-.32,3.26-.77,5.28-1.37,6.19A3,3,0,0,1,41.19,227a10.43,10.43,0,0,1-3.22.29c-1.37,0-2.11,0-3.39-.12-.16-.24-.16-.29-.21-.94a6.79,6.79,0,0,0-.7-2.08c1.78.19,3.44.28,4.39.28,1.18,0,1.69-.12,1.95-.5a7.54,7.54,0,0,0,.74-3.07H31.56c-.38.65-.5.86-1.06,1.73l-3.4-.63a24.67,24.67,0,0,0,3-5.13Zm0-9a15.21,15.21,0,0,0-.1-2.06c.75.07,1.56.09,2.74.09h11a25.75,25.75,0,0,0,2.74-.09,17,17,0,0,0-.1,2.06v3.07a17.24,17.24,0,0,0,.1,2.12c-.77,0-1.15-.08-2.47-.08H30.19c-1.27,0-1.68,0-2.45.08a16.36,16.36,0,0,0,.1-2.12Zm3.07.67v2H41v-2Z"/><path class="cls-1" d="M60.05,208.94A14.07,14.07,0,0,1,57.6,211a6.79,6.79,0,0,0-2-1.85,10,10,0,0,0,4-4.27l3,.46-.79,1.27h6.72a11.56,11.56,0,0,0,1.87-.1l1.66,1.3a8.84,8.84,0,0,0-.53.79,15.68,15.68,0,0,1-2.23,2.81,22.35,22.35,0,0,0-2.64-1.06,8.5,8.5,0,0,0,1.56-1.41H65.14a4,4,0,0,0,2.16,2.45,11.85,11.85,0,0,0,5.28,1.12,11.31,11.31,0,0,0-1.11,2.76c-.88-.14-1.17-.19-1.92-.36,0,.84,0,1.13,0,1.76v4.48a19.43,19.43,0,0,0,.1,2.6c-.58-.05-1.37-.08-2.48-.08H66.1a17.63,17.63,0,0,0,6.43,1.4,13.06,13.06,0,0,0-1.78,2.49,19.22,19.22,0,0,1-8-2.83l1.68-1.06H57.87l1.8,1.06c-2.72,1.66-4,2.11-7.83,2.86a8.35,8.35,0,0,0-1.73-2.4,17,17,0,0,0,6.19-1.52h-.93c-1.15,0-1.85,0-2.5.08.05-.48.1-1.4.1-2.4v-4.88a21.09,21.09,0,0,0-.1-2.42c.51,0,1.27,0,2.43,0H57a9.22,9.22,0,0,0-1-1.49c-1.18.58-1.9.89-3.72,1.66-.46.19-.63.26-1,.45l-1-2.9A25.34,25.34,0,0,0,56,209.73l.84,2.45c3.26-.58,4.63-1.44,5.16-3.24Zm-5.43.84a18.14,18.14,0,0,0-3.91-2.43l1.83-2.13a25.29,25.29,0,0,1,4,2.23Zm1.35,7H66.51V216H56Zm0,2.45H66.51v-.82H56Zm0,2.42H66.51v-.79H56Zm11-7.51a7.41,7.41,0,0,1-3.39-2.81,6.47,6.47,0,0,1-3.91,2.81Z"/><path class="cls-1" d="M82.13,220.39c-.34.45-.53.72-1.06,1.34A14.68,14.68,0,0,0,79.7,220a17.52,17.52,0,0,1-2.32,7.53,14.47,14.47,0,0,0-2.28-2.92,11.69,11.69,0,0,0,1.32-3.34,34.85,34.85,0,0,0,.64-7.58c0-1.06,0-1.8-.09-2.67a24.25,24.25,0,0,0,2.71.12h2.38a10,10,0,0,0-.72-1.77h-2a20.79,20.79,0,0,0-2.49.09v-2.93a18.48,18.48,0,0,0,2.73.15h5.64a7.44,7.44,0,0,0-.12-1.56h3.48a7.7,7.7,0,0,0-.14,1.56h5.66a19.93,19.93,0,0,0,2.81-.15v2.93a23.36,23.36,0,0,0-2.59-.09H92.74c-.53,1.1-.58,1.22-.89,1.77h3a18.08,18.08,0,0,0,2.62-.12v2.88a20.94,20.94,0,0,0-2.62-.12H80a41.1,41.1,0,0,1-.17,4.83,13.16,13.16,0,0,0,2.47-4.73l2.79.81c-.22.48-.22.48-.43,1H87a7.13,7.13,0,0,0-.12-1.44h3.19a8.87,8.87,0,0,0-.1,1.44h4.16a12.56,12.56,0,0,0,2.25-.12v2.86a20.46,20.46,0,0,0-2.28-.07H90v1.48h3.48a15.57,15.57,0,0,0,2.14-.09v2.76a18.6,18.6,0,0,0-2.14-.07H90V224h5.12a17.9,17.9,0,0,0,2.28-.12v3c-.75-.07-1.47-.12-2.36-.12H81.82a20,20,0,0,0-2.36.12v-2.95a20.25,20.25,0,0,0,2.28.09H87v-1.6H84.34c-.87,0-1.47,0-2.21.07Zm1.32-2a16.43,16.43,0,0,1-.91,1.44c.45,0,.91,0,1.77,0H87v-1.48Zm5.13-7.23a10.87,10.87,0,0,0,.8-1.77H84.7a18.14,18.14,0,0,1,.69,1.77Z"/><path class="cls-1" d="M107.4,206.44a33.89,33.89,0,0,0-1.58,7.3,45.47,45.47,0,0,0-.32,4.63c0,.48,0,1.42,0,1.8.53-1.3.7-1.73,1.08-2.5l2,.82a19,19,0,0,0-2.16,7.32c0,.1,0,.34,0,.77l-3.43.17c0-.32,0-.46-.1-1a48.74,48.74,0,0,1-.65-7.88,43.23,43.23,0,0,1,.46-6.45c.09-.72.09-.72.57-3.31a12.25,12.25,0,0,0,.29-2Zm1.27,4.06a21.27,21.27,0,0,0,4.49.36c.67,0,1.11,0,1.92,0,0-1.77,0-1.77,0-3.38a6.25,6.25,0,0,0-.1-1.25h3.55a28.25,28.25,0,0,0-.16,4.39,19.74,19.74,0,0,0,3.88-.79l.12,3.27a5.36,5.36,0,0,0-.93.14,27.08,27.08,0,0,1-3,.48c0,1.94,0,2.47.24,5.54a19.76,19.76,0,0,1,3.67,2.09l.7.46-1.32,3.45a14.64,14.64,0,0,0-3.1-2.47,2.29,2.29,0,0,1,0,.41c0,2.11-1.92,3.46-5,3.46-3.32,0-5.33-1.59-5.33-4.18s2.09-4.3,5.25-4.3a6.92,6.92,0,0,1,1.73.2c0-.82-.07-1.9-.14-4.44-.7,0-1.1,0-1.63,0-.87,0-3-.07-4-.14a5.87,5.87,0,0,0-.69,0,.37.37,0,0,0-.15,0Zm4.92,10.58c-1.27,0-2.11.53-2.11,1.35s.72,1.24,1.9,1.24c1.39,0,2-.52,2-1.72a2.73,2.73,0,0,0,0-.51A4.43,4.43,0,0,0,113.59,221.08Z"/><path class="cls-1" d="M131.64,213.35a33.36,33.36,0,0,0,7.92-2.71,8.2,8.2,0,0,0,2.11-1.32l2.26,3.22a7.37,7.37,0,0,0-.82.38,43.43,43.43,0,0,1-11.47,3.79v2.91c0,1.92,0,2.16.38,2.49s1.66.56,3.75.56a43.86,43.86,0,0,0,4.61-.27,17.55,17.55,0,0,0,4-.74l.15,3.79c-.51,0-.89.05-2.43.19-2.13.22-5,.36-6.82.36-3.19,0-4.82-.29-5.85-1s-1.35-1.87-1.35-4.9V209.56a22,22,0,0,0-.14-3h3.87a17.25,17.25,0,0,0-.15,3Zm11.16-7.46a13.13,13.13,0,0,1,2,3.22l-2.09,1a14.57,14.57,0,0,0-2-3.29Zm2.76-1.25a14.25,14.25,0,0,1,2,3.12l-2,1a15.88,15.88,0,0,0-2-3.21Z"/><path class="cls-1" d="M154,211.29a27.8,27.8,0,0,1,2.38,5.88l-3.22,1a24.53,24.53,0,0,0-2.16-6Zm13.9.29a8.49,8.49,0,0,0-.36,1.34,22.24,22.24,0,0,1-3.14,8c-1.71,2.44-3.84,4.15-7.64,6.07a10.33,10.33,0,0,0-2.28-2.86,16.84,16.84,0,0,0,4.23-2.21,13.47,13.47,0,0,0,5.35-8.32,12.45,12.45,0,0,0,.43-2.76Zm-8.69-1.27a23.78,23.78,0,0,1,2.33,5.68l-3.14,1a28.86,28.86,0,0,0-2.16-5.83Z"/><path class="cls-1" d="M175.61,226.65a24.87,24.87,0,0,0,.14-3.38V209.06a21.1,21.1,0,0,0-.14-3.22h3.91a21.34,21.34,0,0,0-.14,3.22v3.65a57.94,57.94,0,0,1,10.92,5l-2,3.45a53.25,53.25,0,0,0-8-4.37,7.88,7.88,0,0,1-.91-.43v6.91a28.94,28.94,0,0,0,.14,3.34Z"/><path class="cls-1" d="M214,209.11a3.52,3.52,0,0,0-.46,1.2c-1.12,4.46-2.54,7.46-4.84,10.12s-4.92,4.47-9.05,6.32a10.87,10.87,0,0,0-2.55-3.44,19.29,19.29,0,0,0,5.16-2.37,16,16,0,0,0,7.16-10H198.91a28.36,28.36,0,0,0-3.72.14V207.4a25,25,0,0,0,3.77.17h11a6.25,6.25,0,0,0,2.19-.26Z"/><path class="cls-1" d="M219.48,212.18a21.74,21.74,0,0,0,3.62.17h11.57a6.27,6.27,0,0,0,2.33-.24l1.61,1.77a7.33,7.33,0,0,0-.67,1.51,17.81,17.81,0,0,1-5.45,8.21,22.86,22.86,0,0,1-6.55,3.46,10.61,10.61,0,0,0-2.26-3.34,16.15,16.15,0,0,0,6.5-3,11.82,11.82,0,0,0,3.8-5.21H223.06a29.85,29.85,0,0,0-3.58.12Zm2-5.91a18.17,18.17,0,0,0,3.31.19h7.87a14.57,14.57,0,0,0,3.27-.19v3.48a23.55,23.55,0,0,0-3.22-.12h-8c-1.54,0-2.5.05-3.24.12Z"/><path class="cls-1" d="M262.44,208a8.67,8.67,0,0,0-.91.87,40.23,40.23,0,0,1-5.62,4.89v9.46a31.22,31.22,0,0,0,.12,3.55h-4a23.21,23.21,0,0,0,.15-3.48V216a41.5,41.5,0,0,1-8.21,3.72,12,12,0,0,0-1.95-3.27,35.35,35.35,0,0,0,12.65-6.24,18.84,18.84,0,0,0,4.44-4.44Z"/><path class="cls-1" d="M287.67,209.94a5.7,5.7,0,0,0-.6,1.42,19.11,19.11,0,0,1-3,5.14,20.7,20.7,0,0,1-2.9,2.85,10.81,10.81,0,0,0-2.93-2.2c2.62-1.85,3.79-3.15,4.75-5.28l-7.68,1.29,1.83,9.84a21.36,21.36,0,0,0,.79,3.36L274,227a24.13,24.13,0,0,0-.45-3.38l-1.8-9.89-1.83.31a22.87,22.87,0,0,0-3.26.68l-.6-3.56a19.88,19.88,0,0,0,3.43-.38l1.68-.26-.29-1.61a20,20,0,0,0-.65-3l3.8-.57a17.52,17.52,0,0,0,.43,3l.29,1.55,9.36-1.53a3.73,3.73,0,0,0,1.41-.43Z"/><path class="cls-1" d="M290.63,214.22a24.84,24.84,0,0,0,3.95.19h10.94a24.66,24.66,0,0,0,4-.17v3.94c-.86-.07-2.29-.12-4-.12H294.58c-1.87,0-3.11.05-3.95.14Z"/><path class="cls-1" d="M332,172l.51.53-5.68,5.71,5.68,5.69-.51.52-5.68-5.63-5.67,5.63-.53-.52,5.69-5.69-5.69-5.71.53-.53,5.67,5.68Zm-9,6.23a1.22,1.22,0,0,1-1.22,1.23,1.24,1.24,0,0,1-1.23-1.23,1.23,1.23,0,0,1,2.45,0Zm4.57,4.67a1.24,1.24,0,0,1-1.21,1.23,1.23,1.23,0,0,1-.11-2.46,0,0,0,0,1,0,0h0l0,0A1.21,1.21,0,0,1,327.5,182.89Zm0-9.3a1.21,1.21,0,0,1-1.22,1.23,1.24,1.24,0,0,1-1.23-1.23,1.22,1.22,0,0,1,1.23-1.21A1.21,1.21,0,0,1,327.52,173.59Zm4.56,4.64a1.22,1.22,0,1,1-1.21-1.21A1.21,1.21,0,0,1,332.08,178.23Z"/><path class="cls-1" d="M275.5,43.54,238.14,59.8v-35L286.72,0h23.42V184.32H275.5Z"/><path class="cls-1" d="M.65,67.61H25.23L74,129.85c4.48,5.74,8.43,10.94,11.83,16.14h.36c-.18-6.09-.36-14-.36-19.55V67.61h24.58V185.82H88L37.24,121.06c-4.3-5.74-8.07-10.94-12.19-16.32h-.36c.54,4.3.54,11.66.54,17.58v63.5H.65Z"/><path class="cls-1" d="M128.5,143.13c0-25.65,17.57-44.31,43.58-44.31,25.83,0,43.41,18.66,43.41,44.31s-17.58,44.48-43.41,44.48S128.5,168.78,128.5,143.13Zm62.24,0c0-14.35-5.92-24.94-18.66-24.94s-18.83,10.59-18.83,24.94,6.1,25.11,18.83,25.11S190.74,157.47,190.74,143.13Z"/><path class="cls-1" d="M226.49,174a13.19,13.19,0,1,1,13.27,13.63A13.32,13.32,0,0,1,226.49,174Z"/></g></g></svg>