<svg width="65" height="65" viewBox="0 0 65 65" fill="none" xmlns="http://www.w3.org/2000/svg">
<path fill-rule="evenodd" clip-rule="evenodd" d="M32.0827 65H0.431667L0.399667 64.462C0.360667 63.734 -0.586333 46.548 0.579667 40.976C0.895741 39.4725 1.68647 38.1103 2.83531 37.0902C3.98415 36.0701 5.43032 35.446 6.96067 35.31H7.01067H33.8507L33.9137 35.325C34.0957 35.368 38.3807 36.465 39.6227 45.498C39.6997 46.061 39.9817 47.198 40.2437 48.185L44.4577 35.311H56.4207L55.7387 36.221C55.7237 36.241 54.1977 38.278 51.6087 41.958C50.6207 43.36 49.8207 46 48.9727 48.785C47.4797 53.702 45.9357 58.785 42.7797 59.437C41.8642 59.6961 40.9046 59.761 39.9626 59.6273C39.0206 59.4937 38.117 59.1645 37.3097 58.661C35.1327 57.176 33.4357 53.912 32.0827 48.537V65ZM1.50667 63.862H30.9477V43.032L32.0747 42.932C33.4997 51.163 35.4247 56 37.9487 57.722C38.6273 58.1467 39.3894 58.4201 40.1832 58.5237C40.977 58.6272 41.7838 58.5584 42.5487 58.322C45.0487 57.807 46.5487 52.838 47.8847 48.455C48.7597 45.574 49.5847 42.855 50.6787 41.299C52.2787 39.031 53.4687 37.384 54.1567 36.443H45.2807L40.1587 52.091L39.6497 50.309C39.6097 50.169 38.6627 46.845 38.4977 45.65C37.4347 37.911 34.1517 36.589 33.7067 36.444H7.03667C5.75361 36.5634 4.54246 37.0904 3.58051 37.9478C2.61855 38.8053 1.95629 39.9481 1.69067 41.209C0.667667 46.1 1.35367 60.856 1.50667 63.862ZM49.8867 44.98L42.1807 44.561L42.2427 43.426L49.9487 43.845L49.8867 44.98ZM52.1577 41.08L43.8257 40.515L43.8997 39.383L52.2317 39.949L52.1577 41.08ZM8.29967 64.815H7.16167V46.208H8.29967V64.815ZM19.9507 51.456L10.3997 35.977L11.3657 35.377L19.9487 49.283L28.2997 35.579L29.2687 36.172L19.9507 51.456ZM23.8877 43.144L19.8197 37.244L15.8487 42.677L14.9327 42.006L19.8457 35.283L24.8217 42.5L23.8877 43.144ZM19.3037 50.244L19.2647 36.83H20.3997L20.4377 50.248L19.3037 50.244ZM19.0857 30.553C18.1637 30.561 17.2461 30.424 16.3667 30.147C11.6347 28.603 10.6147 22.58 10.5737 22.324V22.304C10.2003 18.4588 10.3998 14.5796 11.1657 10.793C7.89967 7.676 8.56267 6.352 8.85067 6.015L9.02067 5.815H21.6127C23.4663 6.03949 25.2047 6.83324 26.5884 8.0869C27.972 9.34057 28.9329 10.9925 29.3387 12.815C29.9387 15.288 29.8237 18.906 28.9967 23.875C28.7616 24.9187 28.3035 25.8991 27.654 26.7492C27.0045 27.5993 26.1789 28.2989 25.2337 28.8C23.3785 29.9249 21.2551 30.5304 19.0857 30.553ZM11.6957 22.153C11.7387 22.399 12.7227 27.765 16.7177 29.068C18.0538 29.4087 19.4452 29.4748 20.8077 29.2626C22.1702 29.0503 23.4755 28.564 24.6447 27.833C25.4478 27.4157 26.152 26.8308 26.7094 26.1177C27.2669 25.4046 27.6646 24.5801 27.8757 23.7C28.6757 18.885 28.7947 15.415 28.2347 13.094C27.8841 11.5038 27.0507 10.0607 25.8485 8.9623C24.6463 7.86392 23.134 7.16388 21.5187 6.958H9.75867C9.83167 7.391 10.2387 8.394 12.1707 10.186L12.4107 10.408L12.3387 10.728C11.5638 14.483 11.3485 18.332 11.6997 22.15L11.6957 22.153ZM28.6127 16.71C28.5607 16.567 27.2877 13.221 22.3277 12.11C18.8434 11.4164 15.2676 11.3112 11.7487 11.799L11.5667 10.676C15.228 10.1567 18.9512 10.2662 22.5757 11C28.1757 12.258 29.6227 16.164 29.6817 16.329L28.6127 16.71ZM15.6907 19.392H14.5557V17.753H15.6907V19.391V19.392ZM24.6707 19.258H23.5367V17.62H24.6717V19.258H24.6707ZM20.8627 22.334H18.8777V17.62H20.8637V22.334H20.8627ZM15.4227 35.678H14.2887V28.587H15.4237V35.679L15.4227 35.678ZM24.9227 35.678H23.7867V28.587H24.9217V35.679L24.9227 35.678ZM43.1837 32.791L43.0747 25.008H38.2677C36.9855 25.0056 35.7566 24.4947 34.8507 23.5873C33.9448 22.6799 33.4359 21.4502 33.4357 20.168V4.838C33.4365 3.55616 33.9456 2.32697 34.8514 1.42001C35.7573 0.513055 36.9858 0.00238284 38.2677 0L60.1677 0C61.4495 0.00238284 62.6781 0.513055 63.5839 1.42001C64.4897 2.32697 64.9989 3.55616 64.9997 4.838V20.169C64.9994 21.4512 64.4905 22.6809 63.5846 23.5883C62.6787 24.4957 61.4498 25.0066 60.1677 25.009H52.5517L43.1837 32.791ZM38.2677 1.136C37.2864 1.136 36.3453 1.52582 35.6514 2.2197C34.9575 2.91359 34.5677 3.8547 34.5677 4.836V20.169C34.5677 21.1503 34.9575 22.0914 35.6514 22.7853C36.3453 23.4792 37.2864 23.869 38.2677 23.869H44.1937L44.2847 30.4L52.1427 23.873H60.1677C61.149 23.873 62.0901 23.4832 62.784 22.7893C63.4778 22.0954 63.8677 21.1543 63.8677 20.173V4.838C63.8677 3.8567 63.4778 2.91559 62.784 2.2217C62.0901 1.52782 61.149 1.138 60.1677 1.138H38.2677V1.136ZM47.4077 19.989V17.97C46.2265 17.956 45.0683 17.6411 44.0427 17.055L44.5997 15.1C45.5814 15.6833 46.6988 15.9995 47.8407 16.017C49.1497 16.017 50.0407 15.371 50.0407 14.373C50.0407 13.437 49.3137 12.833 47.7767 12.273C45.5957 11.483 44.1837 10.485 44.1837 8.549C44.1837 6.761 45.4297 5.387 47.5277 5.013V2.969H49.2277V4.9C50.2227 4.91123 51.2026 5.14602 52.0947 5.587L51.5407 7.5C50.6682 7.04491 49.6997 6.80492 48.7157 6.8C47.2617 6.8 46.7427 7.55 46.7427 8.257C46.7427 9.11 47.4907 9.589 49.2567 10.296C51.5827 11.171 52.6217 12.296 52.6217 14.145C52.6018 15.088 52.231 15.9898 51.5817 16.674C50.9325 17.3582 50.0514 17.7758 49.1107 17.845V19.988H47.4107L47.4077 19.989Z" fill="url(#paint0_linear_320_322)"/>
<defs>
<linearGradient id="paint0_linear_320_322" x1="7.04594e-07" y1="33" x2="54" y2="51" gradientUnits="userSpaceOnUse">
<stop stop-color="#FC9715"/>
<stop offset="0.34375" stop-color="#F0A288"/>
<stop offset="1" stop-color="#E45B2D"/>
</linearGradient>
</defs>
</svg>
