<svg width="49" height="65" viewBox="0 0 49 65" fill="none" xmlns="http://www.w3.org/2000/svg">
<path fill-rule="evenodd" clip-rule="evenodd" d="M23.72 33.541C24.2626 33.3178 24.8465 33.2126 25.4329 33.2324C26.0193 33.2522 26.5948 33.3966 27.1211 33.6559C27.6474 33.9153 28.1125 34.2837 28.4854 34.7366C28.8584 35.1896 29.1307 35.7167 29.2842 36.283C29.4377 36.8493 29.469 37.4418 29.3759 38.0211C29.2828 38.6004 29.0675 39.1533 28.7443 39.643C28.4211 40.1326 27.9973 40.5479 27.5012 40.8612C27.0051 41.1745 26.448 41.3786 25.867 41.46C24.884 41.5657 23.8956 41.3173 23.0794 40.7594C22.2631 40.2016 21.6726 39.371 21.4139 38.4168C21.1552 37.4626 21.2453 36.4475 21.668 35.5538C22.0907 34.6601 22.8183 33.9464 23.72 33.541V33.541ZM24.02 34.7411C23.5662 34.9987 23.1886 35.3718 22.9255 35.8224C22.6623 36.273 22.523 36.7852 22.5215 37.307C22.5201 37.8288 22.6567 38.3417 22.9174 38.7938C23.178 39.2458 23.5536 39.6209 24.006 39.8811C24.4354 40.1097 24.9155 40.2264 25.402 40.2204C25.8884 40.2143 26.3655 40.0858 26.7891 39.8465C27.2128 39.6073 27.5692 39.2652 27.8256 38.8517C28.082 38.4383 28.23 37.9668 28.256 37.481C28.276 36.9728 28.1634 36.4681 27.9292 36.0166C27.6949 35.5651 27.3472 35.1823 26.9202 34.906C26.4932 34.6296 26.0016 34.4692 25.4938 34.4404C24.986 34.4117 24.4794 34.5156 24.024 34.7421L24.02 34.7411ZM16.373 41.2001C16.9155 40.9775 17.4992 40.8728 18.0852 40.893C18.6713 40.9132 19.2464 41.0579 19.7722 41.3174C20.2981 41.5768 20.7628 41.9452 21.1354 42.398C21.5081 42.8508 21.7801 43.3777 21.9336 43.9437C22.087 44.5097 22.1183 45.1018 22.0253 45.6808C21.9324 46.2598 21.7174 46.8124 21.3946 47.302C21.0717 47.7915 20.6485 48.2068 20.1529 48.5203C19.6573 48.8337 19.1006 49.0382 18.52 49.12C17.5366 49.2264 16.5475 48.9784 15.7306 48.4206C14.9137 47.8627 14.3228 47.0317 14.064 46.077C13.8051 45.1223 13.8955 44.1066 14.3188 43.2126C14.7421 42.3186 15.4705 41.6049 16.373 41.2001ZM16.673 42.4001C16.2192 42.6577 15.8416 43.0308 15.5785 43.4814C15.3153 43.932 15.176 44.4442 15.1745 44.966C15.1731 45.4878 15.3097 46.0007 15.5704 46.4528C15.831 46.9048 16.2066 47.2799 16.659 47.5401C17.0886 47.767 17.5684 47.8824 18.0543 47.8756C18.5401 47.8688 19.0165 47.74 19.4396 47.5011C19.8627 47.2621 20.219 46.9207 20.4758 46.5082C20.7325 46.0956 20.8815 45.6252 20.909 45.14C20.9291 44.6319 20.8166 44.1272 20.5825 43.6757C20.3484 43.2242 20.0008 42.8414 19.5739 42.5649C19.147 42.2884 18.6555 42.1279 18.1478 42.099C17.64 42.0701 17.1335 42.1738 16.678 42.4001H16.673ZM29.657 42.66C30.1995 42.4369 30.7834 42.3318 31.3697 42.3516C31.956 42.3715 32.5314 42.5158 33.0576 42.7752C33.5838 43.0345 34.0488 43.4028 34.4218 43.8557C34.7947 44.3085 35.067 44.8356 35.2206 45.4018C35.3741 45.968 35.4055 46.5603 35.3125 47.1396C35.2195 47.7188 35.0044 48.2716 34.6813 48.7613C34.3583 49.251 33.9347 49.6664 33.4388 49.9798C32.9429 50.2932 32.3859 50.4974 31.805 50.579C30.8219 50.6844 29.8334 50.4357 29.0173 49.8776C28.2012 49.3195 27.6109 48.4885 27.3525 47.5342C27.0942 46.5798 27.1847 45.5646 27.6078 44.671C28.031 43.7773 28.759 43.064 29.661 42.659L29.657 42.66ZM29.957 43.8601C29.504 44.1188 29.1274 44.4927 28.8653 44.9438C28.6032 45.3949 28.465 45.9072 28.4646 46.4289C28.4642 46.9506 28.6016 47.4631 28.863 47.9146C29.1243 48.3662 29.5004 48.7406 29.953 49C30.3824 49.2287 30.8625 49.3454 31.349 49.3394C31.8354 49.3333 32.3125 49.2048 32.7361 48.9655C33.1598 48.7263 33.5162 48.3842 33.7726 47.9707C34.029 47.5573 34.177 47.0858 34.203 46.6C34.2233 46.0911 34.1107 45.5857 33.8763 45.1336C33.6418 44.6814 33.2936 44.2982 32.8659 44.0216C32.4383 43.7451 31.9459 43.5847 31.4374 43.5564C30.9289 43.528 30.4217 43.6327 29.966 43.8601H29.957ZM45.446 33.3441C45.6663 32.7606 46.0654 32.2618 46.5862 31.9187C47.107 31.5757 47.723 31.4061 48.346 31.434L48.323 31.963C48.214 32.124 47.995 32.4501 47.882 32.6161C47.5 32.8691 47.109 33.108 46.708 33.343C45.589 36.463 45.571 39.821 44.833 43.034C44.424 44.2211 44.956 45.45 44.678 46.647C43.9468 49.8731 42.7174 52.9656 41.034 55.813C40.715 55.56 39.934 55.5241 40.074 54.9621C41.7837 52.1198 42.9632 48.9907 43.555 45.7271C43.6156 45.5465 43.6174 45.3513 43.5601 45.1696C43.5028 44.988 43.3893 44.8292 43.236 44.7161C43.0827 44.6031 42.8975 44.5415 42.707 44.5405C42.5165 44.5394 42.3306 44.5987 42.176 44.71C40.976 46.675 40.224 48.888 39.109 50.898C36.388 52.168 33.481 53.2981 31.324 55.4911C30.6404 56.1171 30.1544 56.9291 29.9256 57.8274C29.6968 58.7257 29.7352 59.6712 30.036 60.548C30.4555 61.9847 30.5548 63.4959 30.327 64.975L29.144 64.939C29.644 61.994 27.615 58.869 29.321 56.112C31.35 53.03 34.74 51.189 38.098 49.932C39.377 48.207 39.859 45.9521 41.074 44.1571C41.3762 43.8116 41.7641 43.5519 42.1986 43.4041C42.633 43.2563 43.0988 43.2256 43.549 43.315C44.313 40.015 44.313 36.5461 45.446 33.3441ZM48.326 31.963L48.804 31.737C49.0498 35.9321 49.0408 40.1381 48.777 44.3321C48.158 47.2961 47.367 50.232 46.484 53.132C44.4633 57.0823 41.048 60.1417 36.9 61.717C36.918 62.775 36.932 63.843 36.945 64.907C36.517 64.92 36.094 64.934 35.667 64.957C35.699 63.567 35.699 62.1831 35.681 60.7971C39.7252 59.4941 43.1218 56.7007 45.181 52.9841C46.1 50.5501 46.623 47.984 47.315 45.479C48.084 41.241 47.856 36.901 47.884 32.618C48 32.45 48.216 32.124 48.326 31.963ZM17.218 0.0860489C17.969 0.0500489 18.718 0.0450489 19.475 0.0770489C20.385 0.634049 21.422 1.64105 22.575 1.07105C23.588 0.460049 24.584 -0.221951 25.831 0.0650489C26.9 1.07705 28.631 1.76505 29.885 0.649049C30.7 -0.234951 31.919 0.120049 32.961 0.0860489C31.0849 2.37079 29.8047 5.08514 29.235 7.98605C33.23 11.486 36.988 15.624 38.635 20.81C40.546 26.627 38.248 33.6491 33.035 36.8931C32.853 36.6631 32.484 36.2031 32.303 35.9691C34.082 34.7628 35.5467 33.1485 36.575 31.261C37.5506 29.3061 38.0516 27.1486 38.0373 24.9637C38.0231 22.7789 37.494 20.6282 36.493 18.6861C34.4709 14.971 31.7552 11.6782 28.493 8.98605C26.254 8.62305 23.92 8.96805 21.645 8.81605C17.828 12.101 14.261 16.0221 12.591 20.8911C11.7873 23.2496 11.6773 25.7893 12.2742 28.2085C12.871 30.6278 14.1495 32.8249 15.958 34.5391C16.658 35.4591 19.058 35.9341 17.646 37.3391C14.648 35.549 12.4068 32.7258 11.3436 29.3999C10.2804 26.0739 10.4683 22.4742 11.872 19.2771C13.9227 14.8823 16.9455 11.0111 20.712 7.95605C20.3664 5.04073 19.1486 2.29769 17.218 0.0860489V0.0860489ZM23.1 2.21805C22.1193 2.35889 21.1236 2.35889 20.143 2.21805C21.094 3.88698 21.7121 5.72462 21.963 7.62905C24.02 7.60605 26.076 7.67605 28.133 7.57905C28.4426 5.68905 29.0655 3.86398 29.976 2.17905C28.561 2.39105 26.982 2.54705 25.786 1.58505C24.848 0.823049 23.938 1.82605 23.1 2.21805ZM0.177974 32.28C0.841974 30.83 2.96297 31.7651 3.46797 32.9151C4.81497 36.2281 4.65097 39.915 5.54697 43.347C6.07877 43.2219 6.63717 43.2786 7.13296 43.5081C7.62874 43.7375 8.0333 44.1266 8.28197 44.613C9.13697 46.38 9.97497 48.16 10.825 49.932C13.7194 50.8324 16.3634 52.3966 18.546 54.5C19.3554 55.2489 19.945 56.2045 20.2513 57.2637C20.5576 58.323 20.5689 59.4458 20.284 60.5111C19.9568 61.9798 19.8177 63.4842 19.87 64.988C19.57 64.969 18.978 64.938 18.678 64.919C18.5529 63.426 18.6745 61.9226 19.038 60.4691C19.3067 59.6811 19.3602 58.8358 19.193 58.0203C19.0258 57.2048 18.644 56.4487 18.087 55.8301C15.935 53.3541 12.787 52.1761 9.88697 50.8791C8.98399 48.7394 7.95313 46.6559 6.79997 44.64L5.67597 44.732C5.19397 46.719 6.28597 48.694 6.84497 50.572C7.31397 52.247 8.55097 53.66 8.93297 55.32C8.71497 55.45 8.28697 55.7121 8.06897 55.8451C6.27687 52.8567 5.00893 49.5838 4.31997 46.168C4.1902 45.5583 4.28203 44.9222 4.57897 44.3741C3.62397 41.0421 3.66897 37.499 2.70397 34.174C2.62448 33.8206 2.44122 33.499 2.1777 33.2505C1.91419 33.0019 1.58243 32.8378 1.22497 32.779C1.11425 36.5818 1.21741 40.3878 1.53397 44.1791C2.03897 46.7421 2.83997 49.237 3.46797 51.773C5.02897 56.19 9.05497 59.365 13.387 60.764C13.4003 62.172 13.4003 63.5817 13.387 64.993C12.95 64.933 12.514 64.887 12.077 64.851C12.104 63.801 12.127 62.7511 12.154 61.7071C7.46297 59.7511 2.99997 55.988 1.95397 50.746C1.25397 47.888 0.153974 45.072 0.188974 42.091C-0.0466482 38.8251 -0.0503241 35.5465 0.177974 32.28V32.28ZM24.32 27.9361V26.508C23.4905 26.4976 22.6778 26.2738 21.96 25.858L22.353 24.4741C23.0405 24.886 23.8245 25.1095 24.626 25.122C24.8047 25.1547 24.9883 25.15 25.1651 25.1081C25.342 25.0662 25.5082 24.9881 25.6533 24.8787C25.7984 24.7693 25.9192 24.631 26.0082 24.4726C26.0971 24.3141 26.1522 24.1389 26.17 23.958C26.17 23.295 25.66 22.868 24.582 22.47C23.052 21.91 22.062 21.203 22.062 19.833C22.0722 19.1987 22.3181 18.5908 22.7517 18.1276C23.1853 17.6644 23.7757 17.3791 24.408 17.327V15.884H25.6V17.254C26.2982 17.2622 26.9855 17.4287 27.61 17.741L27.22 19.1C26.6095 18.7764 25.9299 18.6048 25.239 18.6C25.0791 18.5642 24.9133 18.5634 24.753 18.5975C24.5928 18.6317 24.4418 18.7 24.3104 18.7979C24.1789 18.8958 24.0702 19.0209 23.9916 19.1647C23.913 19.3085 23.8664 19.4676 23.855 19.6311C23.855 20.2311 24.379 20.5741 25.618 21.0751C27.25 21.6941 27.978 22.4901 27.978 23.8011C27.9672 24.4661 27.709 25.1033 27.2538 25.5882C26.7986 26.0732 26.179 26.3712 25.516 26.424V27.942H24.321L24.32 27.9361ZM25.152 39.16V38.7261C24.8997 38.7225 24.6527 38.6535 24.435 38.5261L24.555 38.105C24.7638 38.2312 25.0021 38.3001 25.246 38.305C25.3003 38.3148 25.356 38.3133 25.4097 38.3005C25.4634 38.2877 25.5139 38.2639 25.5579 38.2307C25.602 38.1974 25.6387 38.1554 25.6657 38.1073C25.6927 38.0592 25.7095 38.006 25.715 37.951C25.6944 37.8335 25.6362 37.7259 25.549 37.6443C25.4619 37.5628 25.3506 37.5118 25.232 37.4991C25.0334 37.4702 24.8501 37.3758 24.7113 37.2308C24.5725 37.0859 24.4862 36.8987 24.466 36.6991C24.4691 36.5063 24.5438 36.3216 24.6756 36.1809C24.8074 36.0403 24.9868 35.9537 25.179 35.938V35.5H25.542V35.916C25.7542 35.9184 25.9632 35.969 26.153 36.064L26.034 36.475C25.849 36.3772 25.6432 36.3251 25.434 36.3231C25.3854 36.3123 25.335 36.3121 25.2864 36.3226C25.2377 36.3331 25.1918 36.3539 25.152 36.3837C25.1121 36.4136 25.0791 36.4516 25.0553 36.4953C25.0315 36.539 25.0174 36.5874 25.014 36.6371C25.014 36.8201 25.173 36.9231 25.549 37.0751C25.7454 37.1098 25.9238 37.2111 26.0543 37.3619C26.1849 37.5126 26.2596 37.7037 26.266 37.903C26.2636 38.1057 26.1856 38.3001 26.0472 38.4481C25.9087 38.5962 25.72 38.6871 25.518 38.703V39.1641H25.152V39.16ZM17.806 46.82V46.385C17.5538 46.3811 17.3068 46.3123 17.089 46.1851L17.208 45.765C17.4168 45.8912 17.6551 45.9602 17.899 45.965C17.9532 45.9748 18.0089 45.9733 18.0625 45.9606C18.1161 45.9478 18.1666 45.9241 18.2106 45.891C18.2546 45.8579 18.2913 45.816 18.3184 45.768C18.3455 45.72 18.3624 45.6669 18.368 45.612C18.3478 45.4944 18.2898 45.3866 18.2029 45.3048C18.1159 45.2231 18.0046 45.1719 17.886 45.159C17.6874 45.1302 17.5041 45.0358 17.3653 44.8908C17.2266 44.7459 17.1402 44.5587 17.12 44.3591C17.1231 44.1663 17.1978 43.9816 17.3296 43.8409C17.4614 43.7003 17.6408 43.6137 17.833 43.598V43.1571H18.2V43.5741C18.4122 43.5761 18.6211 43.6264 18.811 43.7211L18.691 44.133C18.506 44.0351 18.3003 43.983 18.091 43.981C18.0424 43.9701 17.992 43.9698 17.9433 43.9802C17.8946 43.9905 17.8486 44.0112 17.8087 44.041C17.7687 44.0707 17.7356 44.1087 17.7117 44.1524C17.6877 44.196 17.6735 44.2444 17.67 44.294C17.67 44.477 17.829 44.5801 18.206 44.7331C18.4024 44.7678 18.5808 44.8691 18.7113 45.0199C18.8419 45.1706 18.9166 45.3617 18.923 45.5611C18.9208 45.7638 18.8429 45.9583 18.7044 46.1064C18.566 46.2545 18.3771 46.3453 18.175 46.361V46.82H17.806ZM31.144 48.28V47.8451C30.8918 47.841 30.6448 47.7722 30.427 47.6451L30.547 47.224C30.7556 47.3505 30.994 47.4195 31.238 47.424C31.2924 47.4338 31.3482 47.4323 31.4019 47.4194C31.4557 47.4065 31.5062 47.3827 31.5503 47.3493C31.5943 47.316 31.631 47.2738 31.658 47.2256C31.6849 47.1774 31.7016 47.1241 31.707 47.069C31.6865 46.9515 31.6284 46.8439 31.5415 46.7622C31.4546 46.6805 31.3435 46.6292 31.225 46.6161C31.0264 46.5872 30.8431 46.4928 30.7043 46.3478C30.5655 46.2029 30.4792 46.0157 30.459 45.8161C30.4623 45.6234 30.5371 45.4388 30.6688 45.2982C30.8006 45.1575 30.9799 45.0709 31.172 45.055V44.6171H31.535V45.0331C31.7472 45.0358 31.956 45.0864 32.146 45.181L32.027 45.593C31.842 45.4951 31.6363 45.443 31.427 45.4411C31.3783 45.4301 31.3278 45.4298 31.2791 45.4402C31.2303 45.4506 31.1843 45.4715 31.1443 45.5013C31.1043 45.5311 31.0713 45.5692 31.0474 45.613C31.0235 45.6568 31.0094 45.7053 31.006 45.7551C31.006 45.9381 31.165 46.0411 31.542 46.1931C31.7384 46.2277 31.917 46.3289 32.0476 46.4797C32.1781 46.6305 32.2528 46.8217 32.259 47.021C32.2562 47.2236 32.1779 47.4177 32.0396 47.5657C31.9013 47.7136 31.7128 47.8046 31.511 47.821V48.2821H31.144V48.28Z" fill="white"/>
</svg>
