<svg width="162" height="48" viewBox="0 0 162 48" fill="none" xmlns="http://www.w3.org/2000/svg">
<path d="M149.099 0.000156H12.908C12.4115 0.000156 11.921 0.000156 11.4259 0.002556C11.0115 0.004956 10.6003 0.011928 10.1819 0.017796C9.2728 0.0272782 8.36589 0.0981676 7.46899 0.229848C6.57336 0.364395 5.70578 0.618055 4.8956 0.982248C4.08641 1.34952 3.34704 1.82676 2.70429 2.39664C2.05817 2.96492 1.51958 3.62178 1.10923 4.34195C0.697744 5.06069 0.412419 5.83088 0.263109 6.62593C0.112379 7.41998 0.0312704 8.22318 0.0205099 9.02834C0.00794675 9.39626 0.00662003 9.7654 0 10.1334V37.8705C0.00662003 38.2431 0.00794675 38.604 0.0205099 38.9768C0.0312737 39.7819 0.112383 40.585 0.263109 41.379C0.412007 42.1746 0.697348 42.9452 1.10923 43.6642C1.51939 44.3821 2.05806 45.0362 2.70429 45.6014C3.3446 46.1738 4.08445 46.6513 4.8956 47.0158C5.70577 47.381 6.57326 47.6362 7.46899 47.7728C8.36604 47.9034 9.27286 47.9743 10.1819 47.9849C10.6003 47.9931 11.0115 47.9978 11.4259 47.9978C11.921 48.0002 12.4115 48.0002 12.908 48.0002H149.099C149.586 48.0002 150.08 48.0002 150.567 47.9978C150.979 47.9978 151.402 47.9931 151.815 47.9849C152.722 47.9749 153.627 47.904 154.522 47.7728C155.421 47.6352 156.292 47.3801 157.106 47.0158C157.916 46.6511 158.655 46.1736 159.295 45.6014C159.94 45.034 160.48 44.3803 160.895 43.6642C161.304 42.9447 161.586 42.1741 161.733 41.379C161.884 40.5849 161.968 39.7819 161.984 38.9768C161.989 38.604 161.989 38.2431 161.989 37.8705C162 37.4345 162 37.001 162 36.5579V11.4435C162 11.0041 162 10.5681 161.989 10.1334C161.989 9.7654 161.989 9.39626 161.984 9.02829C161.968 8.22307 161.884 7.42004 161.733 6.62589C161.586 5.8313 161.303 5.06116 160.895 4.3419C160.059 2.89839 158.734 1.72339 157.106 0.98214C156.292 0.618837 155.421 0.365245 154.522 0.22974C153.627 0.0974794 152.722 0.0265653 151.815 0.017628C151.402 0.011772 150.979 0.00474 150.567 0.0024C150.08 0 149.586 0 149.099 0V0.000156Z" fill="#A6A6A6"/>
<path d="M11.4362 46.9483C11.0237 46.9483 10.6212 46.9437 10.212 46.9355C9.36422 46.9257 8.51843 46.8603 7.68156 46.7398C6.90122 46.6206 6.14529 46.3991 5.43868 46.0823C4.73856 45.7682 4.09999 45.3563 3.54744 44.8624C2.98689 44.3743 2.5202 43.8082 2.16588 43.1866C1.80765 42.5609 1.55974 41.8902 1.43077 41.1979C1.2915 40.4541 1.21615 39.7019 1.20537 38.9479C1.19678 38.6949 1.18555 37.8522 1.18555 37.8522V10.1315C1.18555 10.1315 1.19751 9.30186 1.20543 9.0581C1.21576 8.30532 1.29067 7.55432 1.42953 6.81162C1.55873 6.11744 1.80684 5.44484 2.16526 4.8171C2.51828 4.19587 2.98237 3.62937 3.53954 3.13956C4.09609 2.64509 4.7367 2.23106 5.43802 1.91259C6.143 1.59685 6.89751 1.37682 7.67627 1.25986C8.51588 1.13814 9.36461 1.07234 10.2153 1.06299L11.4369 1.04834H150.564L151.8 1.06358C152.643 1.07246 153.484 1.13768 154.316 1.25869C155.103 1.37711 155.865 1.59868 156.578 1.91611C157.983 2.55792 159.126 3.57334 159.847 4.82002C160.2 5.44343 160.444 6.11055 160.572 6.79873C160.712 7.54753 160.791 8.30443 160.807 9.06338C160.811 9.40322 160.811 9.76826 160.811 10.1315C160.822 10.5815 160.822 11.0099 160.822 11.4417V36.5561C160.822 36.9921 160.822 37.4175 160.811 37.8463C160.811 38.2366 160.811 38.5941 160.806 38.962C160.79 39.7074 160.713 40.4508 160.575 41.1862C160.448 41.8835 160.202 42.5594 159.843 43.1902C159.487 43.8051 159.023 44.3663 158.469 44.853C157.916 45.3496 157.276 45.7639 156.574 46.08C155.863 46.3992 155.102 46.6216 154.316 46.7398C153.479 46.8609 152.633 46.9264 151.785 46.9355C151.389 46.9437 150.974 46.9483 150.571 46.9483L149.103 46.9507L11.4362 46.9483Z" fill="black"/>
<path d="M29.981 24.3676C29.994 23.366 30.2624 22.384 30.7611 21.5128C31.2599 20.6417 31.9729 19.9098 32.8337 19.3852C32.2868 18.611 31.5654 17.9738 30.7267 17.5244C29.888 17.0749 28.9552 16.8255 28.0022 16.7959C25.9695 16.5844 23.9988 18.0017 22.9629 18.0017C21.907 18.0017 20.3121 16.8169 18.5947 16.852C17.4838 16.8875 16.4012 17.2078 15.4523 17.7814C14.5034 18.3551 13.7206 19.1627 13.1801 20.1254C10.8389 24.1435 12.5852 30.0488 14.8279 33.2967C15.9499 34.8871 17.2613 36.6637 18.9771 36.6007C20.6562 36.5316 21.2833 35.5393 23.3101 35.5393C25.3181 35.5393 25.9064 36.6007 27.6571 36.5606C29.4589 36.5316 30.594 34.9631 31.6767 33.3576C32.4829 32.2244 33.1032 30.9719 33.5148 29.6466C32.468 29.2078 31.5748 28.4731 30.9464 27.5344C30.3179 26.5956 29.9822 25.4943 29.981 24.3676V24.3676Z" fill="white"/>
<path d="M26.6801 14.6575C27.6624 13.4884 28.1464 11.9858 28.0292 10.4688C26.5284 10.625 25.142 11.3361 24.1463 12.4603C23.6595 13.0095 23.2867 13.6484 23.0491 14.3405C22.8116 15.0327 22.714 15.7644 22.7618 16.494C23.5125 16.5016 24.2552 16.3403 24.9339 16.0222C25.6126 15.7041 26.2097 15.2375 26.6801 14.6575Z" fill="white"/>
<path d="M51.4263 35.116H46.5952L45.435 38.512H43.3887L47.9647 25.9478H50.0907L54.6667 38.512H52.5855L51.4263 35.116ZM47.0955 33.5489H50.925L49.0372 28.0375H48.9844L47.0955 33.5489Z" fill="white"/>
<path d="M64.5385 33.9262C64.5385 36.7728 63.0015 38.6017 60.6821 38.6017C60.0946 38.6322 59.5102 38.498 58.9961 38.2146C58.4819 37.9312 58.0586 37.5099 57.7747 36.9991H57.7308V41.5363H55.834V29.3456H57.67V30.8692H57.7049C58.0018 30.3608 58.4323 29.9417 58.9504 29.6566C59.4685 29.3714 60.0549 29.2308 60.6472 29.2497C62.9925 29.2497 64.5385 31.0875 64.5385 33.9262ZM62.5889 33.9262C62.5889 32.0717 61.622 30.8524 60.1469 30.8524C58.6976 30.8524 57.7228 32.0973 57.7228 33.9262C57.7228 35.7719 58.6976 37.008 60.1469 37.008C61.622 37.008 62.5889 35.7976 62.5889 33.9262Z" fill="white"/>
<path d="M74.7318 33.9267C74.7318 36.7733 73.1949 38.6022 70.8755 38.6022C70.2879 38.6327 69.7036 38.4985 69.1894 38.2151C68.6752 37.9316 68.2519 37.5104 67.968 36.9996H67.9241V41.5367H66.0273V29.3461H67.8633V30.8696H67.8982C68.1952 30.3613 68.6256 29.9422 69.1437 29.657C69.6618 29.3719 70.2482 29.2313 70.8406 29.2502C73.1859 29.2502 74.7318 31.088 74.7318 33.9267ZM72.7822 33.9267C72.7822 32.0721 71.8154 30.8529 70.3402 30.8529C68.891 30.8529 67.9162 32.0978 67.9162 33.9267C67.9162 35.7724 68.891 37.0085 70.3402 37.0085C71.8154 37.0085 72.7822 35.7981 72.7822 33.9267H72.7822Z" fill="white"/>
<path d="M81.4397 35.0083C81.5803 36.2543 82.8013 37.0724 84.4698 37.0724C86.0685 37.0724 87.2188 36.2542 87.2188 35.1308C87.2188 34.1556 86.525 33.5717 84.8824 33.1715L83.2398 32.7792C80.9125 32.222 79.832 31.143 79.832 29.3922C79.832 27.2244 81.7377 25.7354 84.4439 25.7354C87.122 25.7354 88.958 27.2244 89.0198 29.3922H87.1051C86.9905 28.1383 85.9449 27.3815 84.4169 27.3815C82.8889 27.3815 81.8434 28.1472 81.8434 29.2617C81.8434 30.15 82.5112 30.6727 84.1448 31.0728L85.5412 31.4127C88.1417 32.0223 89.2222 33.0579 89.2222 34.8956C89.2222 37.2462 87.3333 38.7184 84.3292 38.7184C81.5184 38.7184 79.6206 37.2808 79.498 35.0083L81.4397 35.0083Z" fill="white"/>
<path d="M93.3294 27.1792V29.347H95.0866V30.836H93.3294V35.886C93.3294 36.6705 93.6813 37.0361 94.4537 37.0361C94.6623 37.0325 94.8706 37.018 95.0777 36.9926V38.4727C94.7304 38.537 94.3774 38.5662 94.0241 38.5596C92.1533 38.5596 91.4237 37.8631 91.4237 36.0865V30.836H90.0801V29.347H91.4236V27.1792H93.3294Z" fill="white"/>
<path d="M96.1016 33.9281C96.1016 31.046 97.8139 29.2349 100.484 29.2349C103.163 29.2349 104.868 31.0459 104.868 33.9281C104.868 36.8182 103.172 38.6214 100.484 38.6214C97.797 38.6214 96.1016 36.8182 96.1016 33.9281ZM102.935 33.9281C102.935 31.951 102.021 30.7841 100.484 30.7841C98.9472 30.7841 98.0342 31.9599 98.0342 33.9281C98.0342 35.9132 98.9472 37.0712 100.484 37.0712C102.021 37.0712 102.935 35.9132 102.935 33.9281H102.935Z" fill="white"/>
<path d="M106.416 29.346H108.225V30.9051H108.269C108.391 30.4182 108.679 29.9878 109.084 29.6864C109.489 29.3851 109.986 29.231 110.492 29.2501C110.71 29.2494 110.928 29.2729 111.142 29.3203V31.079C110.866 30.9954 110.578 30.9571 110.289 30.9654C110.014 30.9543 109.739 31.0025 109.484 31.1066C109.229 31.2107 109 31.3682 108.812 31.5685C108.624 31.7687 108.482 32.0068 108.396 32.2665C108.31 32.5262 108.282 32.8013 108.313 33.0729V38.5063H106.416L106.416 29.346Z" fill="white"/>
<path d="M119.884 35.8173C119.629 37.4802 117.996 38.6214 115.906 38.6214C113.217 38.6214 111.549 36.836 111.549 33.9716C111.549 31.0983 113.226 29.2349 115.826 29.2349C118.382 29.2349 119.99 30.9758 119.99 33.7533V34.3975H113.464V34.5111C113.433 34.8482 113.476 35.1878 113.588 35.5074C113.701 35.827 113.881 36.1191 114.116 36.3645C114.351 36.6099 114.636 36.803 114.952 36.9307C115.268 37.0585 115.608 37.1182 115.949 37.1057C116.398 37.1474 116.847 37.0445 117.232 36.8123C117.616 36.5802 117.915 36.2312 118.083 35.8173L119.884 35.8173ZM113.473 33.0834H118.092C118.109 32.7802 118.063 32.4769 117.956 32.1924C117.849 31.9079 117.684 31.6483 117.472 31.43C117.259 31.2117 117.003 31.0393 116.719 30.9238C116.436 30.8082 116.132 30.7519 115.826 30.7585C115.517 30.7566 115.211 30.8155 114.925 30.9315C114.639 31.0476 114.379 31.2187 114.16 31.4348C113.942 31.651 113.768 31.908 113.65 32.1909C113.532 32.4738 113.472 32.7772 113.473 33.0834V33.0834Z" fill="white"/>
<path d="M50.2292 17.6712H46.6655V11.0062H45.2617V18.8574H50.2292V17.6712Z" fill="white"/>
<path d="M53.6118 14.0204C54.3898 14.0204 54.9121 14.5917 54.9393 15.4079H52.2461C52.3005 14.6026 52.8501 14.0204 53.6118 14.0204ZM54.9448 17.1326C54.7979 17.6114 54.3191 17.927 53.6879 17.927C52.8011 17.927 52.2352 17.3067 52.2352 16.3818V16.3002H56.2669V15.8594C56.2669 14.1075 55.244 12.9704 53.6063 12.9704C51.9414 12.9704 50.8859 14.1728 50.8859 15.9955C50.8859 17.8345 51.9305 18.9716 53.6607 18.9716C55.0264 18.9716 56.0384 18.2208 56.2125 17.1326H54.9448Z" fill="white"/>
<path d="M57.6527 11.7407V13.0901H56.8257V14.1347H57.6527V17.323C57.6527 18.4438 58.1423 18.8846 59.3883 18.8846C59.6767 18.8846 59.9433 18.8628 60.0902 18.8301V17.7964C60.0031 17.8127 59.829 17.8236 59.7039 17.8236C59.2251 17.8236 59.0074 17.606 59.0074 17.1326V14.1347H60.0956V13.0901H59.0074V11.7407H57.6527Z" fill="white"/>
<path d="M63.5979 18.9716C65.29 18.9716 66.389 17.8454 66.389 15.9737C66.389 14.1075 65.2791 12.9704 63.5979 12.9704C61.9166 12.9704 60.8067 14.1129 60.8067 15.9737C60.8067 17.8454 61.9058 18.9716 63.5979 18.9716ZM63.5979 17.8998C62.7382 17.8998 62.1832 17.2033 62.1832 15.9737C62.1832 14.7495 62.7437 14.0476 63.5979 14.0476C64.4575 14.0476 65.0125 14.7495 65.0125 15.9737C65.0125 17.2033 64.4575 17.8998 63.5979 17.8998ZM62.5206 12.2522C62.9069 12.2522 63.2061 11.9529 63.2061 11.5884C63.2061 11.2184 62.9069 10.9192 62.5206 10.9192C62.1397 10.9192 61.8405 11.2184 61.8405 11.5884C61.8405 11.9529 62.1397 12.2522 62.5206 12.2522ZM64.6697 12.2522C65.056 12.2522 65.3553 11.9529 65.3553 11.5884C65.3553 11.2184 65.056 10.9192 64.6697 10.9192C64.2889 10.9192 63.9896 11.2184 63.9896 11.5884C63.9896 11.9529 64.2889 12.2522 64.6697 12.2522Z" fill="white"/>
<path d="M67.432 18.8574H68.7868V11.0062H67.432V18.8574Z" fill="white"/>
<path d="M70.45 11.7407V13.0901H69.623V14.1347H70.45V17.323C70.45 18.4438 70.9397 18.8846 72.1857 18.8846C72.474 18.8846 72.7406 18.8628 72.8875 18.8301V17.7964C72.8005 17.8127 72.6264 17.8236 72.5012 17.8236C72.0224 17.8236 71.8048 17.606 71.8048 17.1326V14.1347H72.893V13.0901H71.8048V11.7407H70.45Z" fill="white"/>
<path d="M73.9904 18.8574H75.3451V15.5439C75.3451 14.6951 75.8403 14.1293 76.6564 14.1293C77.4399 14.1293 77.8425 14.6135 77.8425 15.4187V18.8574H79.1973V15.1413C79.1973 13.8191 78.4519 12.9812 77.1787 12.9812C76.3027 12.9812 75.6662 13.3784 75.356 14.0803H75.3288V11.0062H73.9904V18.8574Z" fill="white"/>
<path d="M82.9063 14.0204C83.6843 14.0204 84.2066 14.5917 84.2338 15.4079H81.5406C81.595 14.6026 82.1445 14.0204 82.9063 14.0204ZM84.2393 17.1326C84.0924 17.6114 83.6136 17.927 82.9824 17.927C82.0956 17.927 81.5297 17.3067 81.5297 16.3818V16.3002H85.5614V15.8594C85.5614 14.1075 84.5385 12.9704 82.9008 12.9704C81.2359 12.9704 80.1804 14.1728 80.1804 15.9955C80.1804 17.8345 81.225 18.9716 82.9552 18.9716C84.3209 18.9716 85.3329 18.2208 85.507 17.1326H84.2393Z" fill="white"/>
<path d="M86.9472 11.7407V13.0901H86.1202V14.1347H86.9472V17.323C86.9472 18.4438 87.4368 18.8846 88.6828 18.8846C88.9712 18.8846 89.2378 18.8628 89.3847 18.8301V17.7964C89.2976 17.8127 89.1235 17.8236 88.9984 17.8236C88.5196 17.8236 88.3019 17.606 88.3019 17.1326V14.1347H89.3901V13.0901H88.3019V11.7407H86.9472Z" fill="white"/>
<path d="M92.8924 18.9716C94.5845 18.9716 95.6835 17.8454 95.6835 15.9737C95.6835 14.1075 94.5736 12.9704 92.8924 12.9704C91.2111 12.9704 90.1012 14.1129 90.1012 15.9737C90.1012 17.8454 91.2003 18.9716 92.8924 18.9716ZM92.8924 17.8998C92.0327 17.8998 91.4777 17.2033 91.4777 15.9737C91.4777 14.7495 92.0381 14.0476 92.8924 14.0476C93.752 14.0476 94.307 14.7495 94.307 15.9737C94.307 17.2033 93.752 17.8998 92.8924 17.8998ZM93.3276 12.2685H94.3233L95.5856 10.5981H94.3723L93.3276 12.2685ZM91.4179 12.2685H92.419L93.6813 10.5981H92.4625L91.4179 12.2685Z" fill="white"/>
<path d="M101.159 17.927C100.572 17.927 100.18 17.6277 100.18 17.1544C100.18 16.6973 100.555 16.4035 101.208 16.36L102.541 16.2784V16.7191C102.541 17.4155 101.926 17.927 101.159 17.927ZM100.751 18.9498C101.491 18.9498 102.215 18.5635 102.547 17.9378H102.574V18.8574H103.88V14.8855C103.88 13.7266 102.949 12.9704 101.518 12.9704C100.049 12.9704 99.1297 13.743 99.0699 14.8202H100.327C100.414 14.3414 100.822 14.0313 101.464 14.0313C102.133 14.0313 102.541 14.3795 102.541 14.9835V15.397L101.018 15.484C99.6139 15.5711 98.825 16.1859 98.825 17.2088C98.825 18.248 99.6357 18.9498 100.751 18.9498Z" fill="white"/>
<path d="M104.95 18.8574H109.547V17.8018H106.631V17.7746L109.498 13.9824V13.0901H104.977V14.1456H107.937V14.1673L104.95 18.0358V18.8574Z" fill="white"/>
<path d="M127.573 34.9932V33.3207H122.623V34.9932H127.573Z" fill="white"/>
<path d="M133.898 38.6996C135.917 38.6996 137.191 37.1327 137.191 34.5788C137.191 32.025 135.91 30.4505 133.898 30.4505C132.768 30.4505 131.857 31.023 131.405 31.9572H131.36V27.7008H129.484V38.5716H131.322V37.208H131.36C131.827 38.1346 132.723 38.6996 133.898 38.6996ZM133.318 31.9948C134.516 31.9948 135.269 32.9968 135.269 34.5788C135.269 36.1684 134.524 37.1628 133.318 37.1628C132.158 37.1628 131.352 36.1458 131.352 34.5788C131.352 33.0269 132.158 31.9948 133.318 31.9948Z" fill="white"/>
<path d="M142.13 38.7298C144.473 38.7298 145.995 37.1703 145.995 34.5788C145.995 31.9948 144.458 30.4203 142.13 30.4203C139.802 30.4203 138.266 32.0024 138.266 34.5788C138.266 37.1703 139.787 38.7298 142.13 38.7298ZM142.13 37.2457C140.94 37.2457 140.171 36.2814 140.171 34.5788C140.171 32.8838 140.947 31.912 142.13 31.912C143.32 31.912 144.089 32.8838 144.089 34.5788C144.089 36.2814 143.32 37.2457 142.13 37.2457ZM142.891 29.4485L144.79 27.1357H142.997L141.362 29.4485H142.891Z" fill="white"/>
<path d="M147.439 38.5716H149.315V27.7008H147.439V38.5716Z" fill="white"/>
</svg>
