<svg width="56" height="56" viewBox="0 0 56 56" fill="none" xmlns="http://www.w3.org/2000/svg">
<g clip-path="url(#clip0_510_328)">
<path d="M28.875 39.375C29.358 39.375 29.75 39.767 29.75 40.25H31.5C31.5 38.8027 30.3222 37.625 28.875 37.625V35.875H27.125V37.625H24.5V40.25C24.5 41.6972 25.6777 42.875 27.125 42.875H28.875C29.358 42.875 29.75 43.267 29.75 43.75V44.625H27.125C26.642 44.625 26.25 44.233 26.25 43.75H24.5C24.5 45.1973 25.6777 46.375 27.125 46.375V48.125H28.875V46.375H31.5V43.75C31.5 42.3028 30.3222 41.125 28.875 41.125H27.125C26.642 41.125 26.25 40.733 26.25 40.25V39.375H28.875Z" fill="white"/>
<path d="M49.875 51.625V32.375H6.125V51.625H49.875ZM7.875 45.5788C10.0686 45.9489 11.8003 47.6814 12.1712 49.875H7.875V45.5788ZM43.8288 49.875C44.1989 47.6814 45.9314 45.9497 48.125 45.5788V49.875H43.8288ZM48.125 38.4212C45.9314 38.0511 44.1997 36.3186 43.8288 34.125H48.125V38.4212ZM42.0604 34.125C42.4567 37.2855 44.9645 39.7924 48.125 40.1896V43.8112C44.9645 44.2076 42.4576 46.7154 42.0604 49.8759H33.516C35.9966 48.132 37.625 45.255 37.625 42C37.625 38.745 35.9966 35.868 33.5169 34.125H42.0604ZM28 49.875C23.6574 49.875 20.125 46.3426 20.125 42C20.125 37.6574 23.6574 34.125 28 34.125C32.3426 34.125 35.875 37.6574 35.875 42C35.875 46.3426 32.3426 49.875 28 49.875ZM18.375 42C18.375 45.255 20.0034 48.132 22.4831 49.875H13.9388C13.5424 46.7145 11.0346 44.2076 7.87412 43.8104V40.1888C11.0346 39.7924 13.5415 37.2846 13.9388 34.1241H22.4831C20.0034 35.868 18.375 38.745 18.375 42ZM12.1712 34.125C11.8011 36.3186 10.0686 38.0503 7.875 38.4212V34.125H12.1712Z" fill="white"/>
<path d="M55.125 25.375H53.375V23.625C53.375 19.0741 50.4604 15.2014 46.403 13.748C47.971 12.6376 49 10.8132 49 8.75C49 5.37337 46.2516 2.625 42.875 2.625C39.4984 2.625 36.75 5.37337 36.75 8.75C36.75 10.8106 37.7764 12.6341 39.3426 13.7445C38.1386 14.1741 37.0195 14.8199 36.0334 15.6712C34.8696 14.7262 33.516 14.0105 32.0399 13.5826C33.8275 12.3121 35 10.2296 35 7.875C35 4.01538 31.8596 0.875 28 0.875C24.1404 0.875 21 4.01538 21 7.875C21 10.2296 22.1725 12.3121 23.961 13.5817C22.4849 14.0105 21.1304 14.7254 19.9666 15.6712C18.9805 14.8199 17.8614 14.1741 16.6574 13.7445C18.2236 12.6341 19.25 10.8106 19.25 8.75C19.25 5.37337 16.5016 2.625 13.125 2.625C9.74837 2.625 7 5.37337 7 8.75C7 10.8132 8.029 12.6376 9.597 13.748C5.53963 15.2014 2.625 19.0741 2.625 23.625V25.375H0.875V30.625H2.625V55.125H53.375V30.625H55.125V25.375ZM51.625 23.625V25.375H49V20.125H47.25V25.375H40.25V24.5C40.25 21.5688 39.1256 18.9018 37.2986 16.8822C38.3337 16.023 39.5404 15.4306 40.8336 15.1226L40.2141 21.3246L42.875 23.9872L45.5368 21.3255L44.9173 15.1252C48.7585 16.0492 51.625 19.5046 51.625 23.625ZM34.125 20.125V25.375H30.065L33.0452 15.8384C36.267 17.3959 38.5 20.6876 38.5 24.5V25.375H35.875V20.125H34.125ZM20.125 20.125V25.375H17.5V24.5C17.5 20.6876 19.733 17.3967 22.9548 15.8384L25.935 25.375H21.875V20.125H20.125ZM24.5954 15.2233C25.0215 15.1069 25.4572 15.0176 25.9044 14.9607L25.5071 18.1396L24.5954 15.2233ZM27.7681 25.375L26.7671 22.1707L27.678 14.875H28.3211L29.2329 22.1707L28.2319 25.375H27.7681ZM30.4929 18.1396L30.0956 14.9616C30.5428 15.0185 30.9785 15.1077 31.4037 15.2241L30.4929 18.1396ZM42.875 14.875C42.9625 14.875 43.0474 14.8855 43.1349 14.8881L43.7132 20.6745L42.875 21.5128L42.0368 20.6745L42.6151 14.8881C42.7017 14.8855 42.7875 14.875 42.875 14.875ZM38.5 8.75C38.5 6.33763 40.4626 4.375 42.875 4.375C45.2874 4.375 47.25 6.33763 47.25 8.75C47.25 11.1624 45.2874 13.125 42.875 13.125C40.4626 13.125 38.5 11.1624 38.5 8.75ZM22.75 7.875C22.75 4.97962 25.1046 2.625 28 2.625C30.8954 2.625 33.25 4.97962 33.25 7.875C33.25 10.7704 30.8954 13.125 28 13.125C25.1046 13.125 22.75 10.7704 22.75 7.875ZM13.125 14.875C13.7139 14.875 14.2931 14.9327 14.8575 15.0456C14.77 15.9294 14.0315 16.625 13.125 16.625C12.2194 16.625 11.4809 15.9311 11.3925 15.0491C11.9525 14.9354 12.5317 14.875 13.125 14.875ZM8.75 8.75C8.75 6.33763 10.7126 4.375 13.125 4.375C15.5374 4.375 17.5 6.33763 17.5 8.75C17.5 11.1624 15.5374 13.125 13.125 13.125C10.7126 13.125 8.75 11.1624 8.75 8.75ZM4.375 23.625C4.375 20.0174 6.57125 16.9129 9.69588 15.5767C10.0214 17.1719 11.4354 18.375 13.125 18.375C14.8164 18.375 16.2295 17.1701 16.5541 15.5732C17.3232 15.9014 18.0469 16.3389 18.7014 16.8822C16.8744 18.9018 15.75 21.5688 15.75 24.5V25.375H8.75V20.125H7V25.375H4.375V23.625ZM51.625 53.375H4.375V30.625H51.625V53.375ZM53.375 28.875H2.625V27.125H53.375V28.875Z" fill="white"/>
</g>
<defs>
<clipPath id="clip0_510_328">
<rect width="56" height="56" fill="white"/>
</clipPath>
</defs>
</svg>
