<svg width="47" height="47" viewBox="0 0 47 47" fill="none" xmlns="http://www.w3.org/2000/svg">
<g clip-path="url(#clip0_510_294)">
<path d="M2.35 47H44.65C45.2733 47 45.871 46.7524 46.3117 46.3117C46.7524 45.871 47 45.2733 47 44.65V32.1167C47 31.4934 46.7524 30.8957 46.3117 30.455C45.871 30.0143 45.2733 29.7667 44.65 29.7667H41.5167V28.9833C41.5167 28.1523 41.1866 27.3553 40.5989 26.7677C40.0113 26.1801 39.2143 25.85 38.3833 25.85H33.6833C32.8523 25.85 32.0553 26.1801 31.4677 26.7677C30.8801 27.3553 30.55 28.1523 30.55 28.9833V29.7667H27.4167C27.0002 29.7691 26.5919 29.8832 26.2346 30.0972L23.5 29.1995V28.9175C24.0483 28.5721 24.5599 28.2172 25.0173 27.8937C25.2656 27.7198 25.5006 27.5538 25.7223 27.4049C26.4698 26.8973 27.1065 26.2433 27.594 25.4826C28.0815 24.7219 28.4097 23.8702 28.5588 22.9791L28.8768 21.0764C29.573 20.9215 30.1957 20.534 30.6423 19.9778C31.0888 19.4216 31.3326 18.7299 31.3333 18.0167V12.5333C31.3333 9.20929 30.0129 6.02138 27.6624 3.67093C25.312 1.32047 22.124 0 18.8 0C15.476 0 12.2881 1.32047 9.9376 3.67093C7.58714 6.02138 6.26667 9.20929 6.26667 12.5333V18.0167C6.26753 18.7301 6.5115 19.422 6.95834 19.9782C7.40519 20.5344 8.02824 20.9218 8.72477 21.0764L9.0428 22.9783C9.19169 23.8696 9.51983 24.7214 10.0074 25.4823C10.4949 26.2432 11.1317 26.8972 11.8793 27.4049C12.0994 27.5538 12.3344 27.7183 12.5843 27.8937C13.0425 28.2172 13.554 28.5721 14.1024 28.9175V29.1995L6.90665 31.5605C2.4534 33.0246 0 37.3948 0 43.8667V44.65C0 45.2733 0.247589 45.871 0.688299 46.3117C1.12901 46.7524 1.72674 47 2.35 47ZM44.65 45.4333H27.4167C27.2089 45.4333 27.0097 45.3508 26.8628 45.2039C26.7159 45.057 26.6333 44.8578 26.6333 44.65V38.2392C26.8842 38.332 27.1492 38.3807 27.4167 38.3833H32.9V39.1667C32.9 39.7899 33.1476 40.3877 33.5883 40.8284C34.029 41.2691 34.6267 41.5167 35.25 41.5167H36.8167C37.4399 41.5167 38.0377 41.2691 38.4784 40.8284C38.9191 40.3877 39.1667 39.7899 39.1667 39.1667V38.3833H44.65C44.9175 38.3807 45.1825 38.332 45.4333 38.2392V44.65C45.4333 44.8578 45.3508 45.057 45.2039 45.2039C45.057 45.3508 44.8578 45.4333 44.65 45.4333ZM34.4667 38.3833H37.6V39.1667C37.6 39.3744 37.5175 39.5737 37.3706 39.7206C37.2237 39.8675 37.0244 39.95 36.8167 39.95H35.25C35.0422 39.95 34.843 39.8675 34.6961 39.7206C34.5492 39.5737 34.4667 39.3744 34.4667 39.1667V38.3833ZM32.1167 28.9833C32.1167 28.5678 32.2817 28.1693 32.5755 27.8755C32.8693 27.5817 33.2678 27.4167 33.6833 27.4167H38.3833C38.7988 27.4167 39.1973 27.5817 39.4911 27.8755C39.7849 28.1693 39.95 28.5678 39.95 28.9833V29.7667H32.1167V28.9833ZM26.6333 32.1167C26.6333 31.9089 26.7159 31.7097 26.8628 31.5628C27.0097 31.4159 27.2089 31.3333 27.4167 31.3333H44.65C44.8578 31.3333 45.057 31.4159 45.2039 31.5628C45.3508 31.7097 45.4333 31.9089 45.4333 32.1167V36.0333C45.4333 36.2411 45.3508 36.4403 45.2039 36.5872C45.057 36.7341 44.8578 36.8167 44.65 36.8167H27.4167C27.2089 36.8167 27.0097 36.7341 26.8628 36.5872C26.7159 36.4403 26.6333 36.2411 26.6333 36.0333V32.1167ZM18.8 1.56667C21.7076 1.56978 24.4952 2.72619 26.5512 4.78216C28.6071 6.83814 29.7636 9.62575 29.7667 12.5333V15.3134C29.5061 15.1583 29.2243 15.0421 28.9301 14.9687C28.8539 14.2125 28.5386 13.5002 28.0299 12.9354C27.5212 12.3706 26.8457 11.9828 26.1014 11.8283C23.9101 11.5518 21.7979 10.8322 19.8935 9.71333C19.5667 9.50534 19.1874 9.39486 18.8 9.39486C18.4126 9.39486 18.0333 9.50534 17.7065 9.71333C15.802 10.8326 13.6895 11.5522 11.4978 11.8283C10.7542 11.9828 10.0791 12.3702 9.57063 12.9344C9.06214 13.4985 8.74664 14.21 8.66993 14.9656C8.37573 15.039 8.09387 15.1551 7.83333 15.3103V12.5333C7.83644 9.62575 8.99286 6.83814 11.0488 4.78216C13.1048 2.72619 15.8924 1.56978 18.8 1.56667ZM12.7558 26.1062C12.1842 25.7179 11.6974 25.2176 11.3248 24.6357C10.9523 24.0537 10.7017 23.4022 10.5883 22.7206L10.1724 20.2374C10.1418 20.0547 10.0474 19.8886 9.906 19.7689C9.76459 19.6491 9.58531 19.5834 9.4 19.5833C8.98449 19.5833 8.58601 19.4183 8.2922 19.1245C7.99839 18.8307 7.83333 18.4322 7.83333 18.0167C7.83333 17.6012 7.99839 17.2027 8.2922 16.9089C8.58601 16.6151 8.98449 16.45 9.4 16.45C9.60775 16.45 9.807 16.3675 9.9539 16.2206C10.1008 16.0737 10.1833 15.8744 10.1833 15.6667C10.1376 15.1674 10.2653 14.6677 10.545 14.2517C10.8246 13.8356 11.2391 13.5286 11.7187 13.3825C14.1284 13.076 16.4501 12.2806 18.5415 11.045C18.6181 10.9937 18.7082 10.9663 18.8004 10.9663C18.8926 10.9663 18.9827 10.9937 19.0593 11.045C21.1503 12.28 23.4715 13.0751 25.8806 13.3817C26.3604 13.5277 26.7752 13.8347 27.055 14.251C27.3348 14.6672 27.4625 15.1672 27.4167 15.6667C27.4167 15.8744 27.4992 16.0737 27.6461 16.2206C27.793 16.3675 27.9922 16.45 28.2 16.45C28.6155 16.45 29.014 16.6151 29.3078 16.9089C29.6016 17.2027 29.7667 17.6012 29.7667 18.0167C29.7667 18.4322 29.6016 18.8307 29.3078 19.1245C29.014 19.4183 28.6155 19.5833 28.2 19.5833C28.0147 19.5834 27.8354 19.6491 27.694 19.7689C27.5526 19.8886 27.4582 20.0547 27.4276 20.2374L27.0117 22.7214C26.8982 23.4028 26.6476 24.0542 26.275 24.636C25.9025 25.2178 25.4157 25.718 24.8442 26.1062C24.6163 26.2628 24.3742 26.432 24.1149 26.6138C22.6172 27.6689 20.7536 28.9833 18.8 28.9833C16.8464 28.9833 14.9828 27.6689 13.4851 26.6138C13.2282 26.432 12.9838 26.2605 12.7558 26.1062ZM21.9333 29.7769C21.9333 30.6079 21.6032 31.4048 21.0156 31.9925C20.428 32.5801 19.631 32.9102 18.8 32.9102C17.969 32.9102 17.172 32.5801 16.5844 31.9925C15.9968 31.4048 15.6667 30.6079 15.6667 29.7769C16.6422 30.26 17.7117 30.5239 18.8 30.55C19.8883 30.5239 20.9578 30.26 21.9333 29.7769ZM1.56667 43.8667C1.56667 38.1264 3.63702 34.2849 7.39545 33.0488L14.2206 30.8085C14.4558 31.8473 15.0372 32.7752 15.8694 33.44C16.7015 34.1048 17.7349 34.4669 18.8 34.4669C19.8651 34.4669 20.8985 34.1048 21.7306 33.44C22.5628 32.7752 23.1442 31.8473 23.3794 30.8085L25.1897 31.4031C25.1115 31.633 25.07 31.8738 25.0667 32.1167V44.65C25.0693 44.9175 25.118 45.1825 25.2108 45.4333H2.35C2.14225 45.4333 1.943 45.3508 1.7961 45.2039C1.6492 45.057 1.56667 44.8578 1.56667 44.65V43.8667Z" fill="white"/>
</g>
<defs>
<clipPath id="clip0_510_294">
<rect width="47" height="47" fill="white"/>
</clipPath>
</defs>
</svg>
