<svg width="52" height="52" viewBox="0 0 52 52" fill="none" xmlns="http://www.w3.org/2000/svg">
<g clip-path="url(#clip0_510_313)">
<path d="M51.9948 12.229C51.9284 10.7415 50.6612 9.58556 49.1765 9.65158C48.8495 9.66732 48.5597 9.46338 48.4633 9.1589C48.0891 7.97691 47.3125 6.75562 46.277 5.72009C45.2412 4.68446 44.02 3.90791 42.8382 3.53376C42.5337 3.43737 42.3311 3.14396 42.3455 2.82048C42.3777 2.0999 42.1273 1.40998 41.6405 0.877592C40.6829 -0.214307 38.8758 -0.293526 37.8249 0.707271C37.2926 1.19406 36.9817 1.85899 36.9496 2.57968C36.9488 3.01122 36.7802 5.20842 36.8749 5.5909L30.2103 12.2555L30.0615 11.7002C29.9554 11.3037 29.5478 11.0681 29.1512 11.1746C28.7547 11.2808 28.5194 11.6884 28.6257 12.0849L28.8146 12.7899L28.1097 12.601C27.713 12.4943 27.3055 12.7299 27.1994 13.1265C27.0931 13.5231 27.3284 13.9307 27.725 14.0368L28.2803 14.1856L22.3513 20.1146C21.4205 21.0455 20.7071 22.1973 20.2886 23.4457L17.924 30.4965C17.8194 30.8086 17.6409 31.0968 17.4079 31.3298L9.48038 39.2572C8.88248 39.8441 9.08073 40.7594 9.70879 41.2377L6.7062 44.2396L6.56868 44.1021C6.04716 43.5807 5.1984 43.5804 4.67647 44.1022L3.08509 45.6937C2.67742 45.593 2.22851 45.7004 1.91052 46.0182L0.362197 47.5665C-0.120732 48.0495 -0.120732 48.8354 0.362197 49.3184L2.67843 51.6346C3.13942 52.1155 3.96939 52.1153 4.43059 51.6348L5.97891 50.0863C6.2966 49.7685 6.40374 49.3197 6.3032 48.9121L7.89478 47.3206C8.41641 46.799 8.41641 45.95 7.89478 45.4284L7.75727 45.2909L10.7595 42.2888L10.9878 42.5171C11.4707 43 12.2567 42.9999 12.7398 42.5171L20.6672 34.5896C20.9001 34.3567 21.1883 34.1782 21.5006 34.0734L28.5513 31.7089C29.5758 31.3653 30.5353 30.8228 31.3611 30.1248C31.5186 31.9247 31.5301 34.0014 31.5171 35.8161C31.5171 36.7852 30.9081 37.6665 30.0018 38.0091L21.381 41.2693C21.0495 41.3946 20.752 41.5813 20.499 41.8131C20.006 41.8351 19.5271 41.9972 19.1213 42.2887C18.6312 42.7073 18.0007 42.8787 17.3639 42.8229L15.9491 42.3369C15.5803 42.2104 15.1836 42.2071 14.8321 42.328C13.7098 42.7139 12.9557 43.7702 12.9557 44.9562C12.9557 45.8129 13.3451 46.58 13.956 47.0908C13.6537 47.469 13.4722 47.9481 13.4722 48.4689C13.4722 49.6879 14.464 50.6798 15.6831 50.6798H27.2354C28.1228 50.6798 29.0206 50.6394 29.9042 50.5595C32.0458 50.4168 36.4246 49.7847 38.5165 50.0956L43.2605 50.6126C44.4361 50.7408 45.5958 50.5597 46.6147 50.0889C48.8876 49.0388 50.3563 46.7432 50.3563 44.2401C50.3563 43.3839 50.1907 42.5521 49.8637 41.7675C48.7459 39.0848 48.1742 36.1325 48.1644 32.9925C48.1209 31.1617 48.5439 29.1385 48.922 27.3468C49.0032 26.9445 48.7429 26.5524 48.3405 26.4711C47.9382 26.3899 47.5461 26.6502 47.4649 27.0526L47.3032 27.8531L43.6287 28.2787L32.4902 24.8174L32.3397 22.6042C32.3161 22.258 32.4335 21.9278 32.6703 21.6743C32.9072 21.4208 33.2287 21.2813 33.5756 21.2813H47.1163C47.8761 21.2621 48.4998 22.0245 48.3307 22.7654L48.1158 23.8298C48.0345 24.2321 48.2948 24.6242 48.6972 24.7055C49.0997 24.7869 49.4916 24.5264 49.5729 24.124L49.7878 23.0597C50.1602 21.4297 48.7876 19.7524 47.1163 19.7947H41.7341L46.4069 15.1218C46.8751 15.22 49.1736 15.0343 49.4174 15.0478C50.869 15.013 52.0897 13.6779 51.9948 12.229ZM3.55461 50.4083L1.58867 48.4425L2.7866 47.2446L4.75244 49.2105L3.55461 50.4083ZM5.37867 47.7343L4.26281 46.6184L5.62273 45.2585L6.7386 46.3743L5.37867 47.7343ZM30.8314 28.5947C30.0621 29.364 29.1103 29.9534 28.0788 30.2994L21.028 32.6639C20.4989 32.8414 20.0108 33.1438 19.6161 33.5383L11.8639 41.2905L10.7064 40.133L18.4588 32.3808C18.8535 31.986 19.1558 31.4977 19.3331 30.9688L21.6975 23.9182C22.0436 22.8866 22.6329 21.9349 23.4022 21.1657L37.572 6.99602C37.5906 7.01593 38.6215 8.04862 38.6215 8.04862L32.4619 14.2082C31.9083 14.2608 31.3691 14.4985 30.9461 14.9216C30.5232 15.3446 30.2855 15.8837 30.2329 16.4372L24.4534 22.2167C23.846 22.8242 23.3805 23.5759 23.1071 24.3908L21.4382 29.3668C21.1734 30.073 21.9273 30.8246 22.6303 30.5586L27.606 28.8899C28.421 28.6165 29.1726 28.151 29.7802 27.5435L31.0961 26.2276L31.23 28.196L30.8314 28.5947ZM34.4174 19.7945L31.9974 17.3745C31.6109 16.9879 31.6109 16.3592 31.9974 15.9726C32.3837 15.5862 33.0127 15.586 33.3992 15.9726L36.0243 18.5978C36.346 18.9194 36.4032 19.4121 36.1812 19.7944H34.4174V19.7945ZM37.3485 17.8729C37.2678 17.7584 37.1776 17.6487 37.0755 17.5466L34.4503 14.9215C34.3482 14.8193 34.2389 14.7286 34.1246 14.648L39.6728 9.09989L42.8971 12.3242L37.3485 17.8729ZM46.9989 29.3848C46.7827 30.5751 46.6741 31.7881 46.6779 32.997C46.6835 34.7671 46.8596 36.4822 47.2004 38.1307L33.0035 33.7188C33.0024 32.821 32.9714 31.9128 32.9116 31.0166L46.9989 29.3848ZM30.2586 49.0349L25.4271 41.3285L25.9826 41.1185L34.8543 48.6203L30.2586 49.0349ZM27.5733 40.5168L29.2212 39.8937L30.0278 42.5924L27.5733 40.5168ZM15.3156 43.7337C15.9317 43.8018 16.9291 44.3123 17.7094 44.3123C18.3839 44.3123 19.0315 44.1231 19.5984 43.7656C19.5974 43.7952 19.595 46.2515 19.595 46.2515H15.7376C15.0235 46.2515 14.4424 45.6704 14.4424 44.9562C14.4424 44.4046 14.7934 43.9134 15.3156 43.7337ZM15.6832 49.1931C15.2838 49.1931 14.9589 48.8682 14.9589 48.4688C14.9589 48.0693 15.2838 47.7443 15.6832 47.7443H20.2216C20.6868 47.7873 21.0924 47.4823 21.0817 46.9883V43.8542C21.0817 43.3265 21.4134 42.8465 21.9071 42.6597L24.0087 41.865L28.5825 49.1601C28.4037 49.2212 16.3177 49.1836 15.6832 49.1931ZM45.9913 48.7392C45.8061 48.8247 45.614 48.8969 45.417 48.9569L39.4252 40.6205C39.1856 40.2869 38.7207 40.2112 38.3878 40.4508C38.0544 40.6904 37.9784 41.1548 38.2181 41.4882L43.7313 49.1586C43.6284 49.1534 43.5251 49.1461 43.4216 49.1347L38.6777 48.6177C38.1331 48.5583 37.5847 48.5256 37.0359 48.5181L32.1043 44.3481L30.6148 39.3648C32.0476 38.782 33.004 37.3682 33.004 35.816V35.2757L33.9686 35.5754L36.4533 39.0324C36.6943 39.3681 37.161 39.4402 37.4907 39.2021C37.824 38.9625 37.9001 38.4981 37.6604 38.1647L36.3258 36.3078L47.6134 39.8155C47.8588 40.678 48.1507 41.5203 48.4918 42.3391C49.5265 44.7224 48.367 47.6844 45.9913 48.7392ZM39.9796 28.7013L32.8109 29.5317L32.5984 26.4076L39.9796 28.7013ZM31.5842 20.6593C31.0707 21.209 30.8056 21.9546 30.8566 22.705L30.9624 24.2591L28.729 26.4925C28.2833 26.9383 27.7315 27.28 27.1335 27.4807L23.196 28.8012L24.5165 24.8637C24.7171 24.2657 25.0587 23.7139 25.5047 23.2682L30.6728 18.1001C30.7534 18.2144 30.844 18.3237 30.9462 18.4259L32.5267 20.0064C32.1729 20.154 31.8499 20.3749 31.5842 20.6593ZM39.6468 19.7794C39.6419 19.7843 39.6377 19.7896 39.6331 19.7946H37.7511C37.7686 19.7088 37.7803 19.6223 37.7885 19.5354L43.9484 13.3756C43.9484 13.3756 44.9809 14.4064 45.0008 14.4252L39.6468 19.7794ZM50.5098 12.2955C50.5522 12.9469 50.0038 13.5468 49.3511 13.5625L46.9055 13.6718C46.5653 13.6873 46.2331 13.5577 45.9927 13.3173L38.6796 6.00416C38.4392 5.76387 38.3101 5.43135 38.3251 5.09183L38.4344 2.64579C38.4439 1.59676 39.8641 1.08214 40.5433 1.88072C40.7622 2.12011 40.8748 2.43028 40.8603 2.75416C40.8161 3.74856 41.4447 4.65176 42.3895 4.95096C43.3482 5.25443 44.3555 5.90097 45.2258 6.77126C46.096 7.64135 46.7424 8.64865 47.046 9.6075C47.3452 10.5523 48.245 11.1823 49.2428 11.1366C49.9095 11.1081 50.4799 11.6267 50.5098 12.2955Z" fill="white"/>
</g>
<defs>
<clipPath id="clip0_510_313">
<rect width="52" height="52" fill="white"/>
</clipPath>
</defs>
</svg>
