<svg width="45" height="45" viewBox="0 0 45 45" fill="none" xmlns="http://www.w3.org/2000/svg">
<g clip-path="url(#clip0_510_305)">
<path d="M43.9773 39.8866H42.9546V34.773C42.9546 34.2082 42.4967 33.7503 41.9318 33.7503H31.7046C31.1398 33.7503 30.6818 34.2082 30.6818 34.773V39.8866H28.6364V30.6821C28.6364 30.1172 28.1785 29.6593 27.6137 29.6593H17.3863C16.8215 29.6593 16.3636 30.1172 16.3636 30.6821V39.8866H14.3182V24.5457C14.3182 23.9809 13.8602 23.5229 13.2954 23.5229H3.06818C2.50335 23.5229 2.04542 23.9809 2.04542 24.5457V39.8866H1.02276C0.457926 39.8866 0 40.3446 0 40.9094C0 41.4742 0.457926 41.9321 1.02276 41.9321H43.9773C44.5422 41.9321 45.0001 41.4742 45.0001 40.9094C45 40.3446 44.5422 39.8866 43.9773 39.8866ZM4.09094 39.8866V25.5685H12.2727V39.8866H4.09094ZM18.4091 39.8866V31.7048H26.5909V39.8866H18.4091ZM32.7273 39.8866V35.7957H40.9091V39.8866H32.7273Z" fill="white"/>
<path d="M31.7046 14.3184C31.1398 14.3184 30.6819 14.7763 30.6819 15.3412C30.6819 15.906 31.1398 16.3639 31.7046 16.3639H32.7274C32.7274 16.9288 33.1853 17.3867 33.7502 17.3867C34.315 17.3867 34.7729 16.9288 34.7729 16.3639H35.7957C36.3605 16.3639 36.8184 15.906 36.8184 15.3412V12.273C36.8184 11.7081 36.3605 11.2502 35.7957 11.2502H32.7275V10.2275H35.7957C36.3605 10.2275 36.8184 9.76953 36.8184 9.2047C36.8184 8.63987 36.3605 8.18194 35.7957 8.18194H34.7729C34.7729 7.61711 34.315 7.15918 33.7502 7.15918C33.1853 7.15918 32.7274 7.61711 32.7274 8.18194H31.7046C31.1398 8.18204 30.6819 8.63996 30.6819 9.2048V12.273C30.6819 12.8378 31.1398 13.2957 31.7046 13.2957H34.7728V14.3185H31.7046V14.3184Z" fill="white"/>
<path d="M33.75 21.4775C38.8335 21.4775 42.9545 17.3564 42.9545 12.2729C42.9545 7.18941 38.8335 3.06836 33.75 3.06836C28.6665 3.06836 24.5454 7.18941 24.5454 12.2729C24.5454 17.3564 28.6665 21.4775 33.75 21.4775ZM33.75 5.11378C37.7038 5.11378 40.9091 8.31898 40.9091 12.2729C40.9091 16.2268 37.7038 19.432 33.75 19.432C29.7961 19.432 26.5908 16.2267 26.5908 12.2729C26.5908 8.31908 29.7961 5.11378 33.75 5.11378Z" fill="white"/>
<path d="M38.9864 28.5444L37.2273 29.8637C36.7757 30.2031 36.6847 30.8441 37.024 31.2957C37.3628 31.7467 38.0029 31.8382 38.4545 31.5L42.5455 28.4318C42.9974 28.0929 43.0889 27.4519 42.75 27.0001C42.6919 26.9225 42.6229 26.8536 42.5455 26.7955L38.4545 23.7274C38.0026 23.3884 37.3616 23.48 37.0227 23.9319C36.6838 24.3838 36.7754 25.0248 37.2273 25.3637L38.7204 26.4886C19.6467 25.2921 9.31704 13.5512 3.94772 3.61024C3.6481 3.13141 3.01701 2.98615 2.53818 3.28577C2.10518 3.55673 1.93854 4.10556 2.14766 4.57154C7.81363 15.0546 18.7262 27.4399 38.9864 28.5444Z" fill="white"/>
</g>
<defs>
<clipPath id="clip0_510_305">
<rect width="45" height="45" fill="white"/>
</clipPath>
</defs>
</svg>
