<svg width="53" height="53" viewBox="0 0 53 53" fill="none" xmlns="http://www.w3.org/2000/svg">
<g clip-path="url(#clip0_510_297)">
<path d="M19.3065 19.062L25.1251 22.5487C25.8201 22.9657 26.7095 22.8561 27.2831 22.2838L30.085 19.4924C30.4705 19.1085 30.6574 18.5677 30.5911 18.0273C30.5243 17.4873 30.2121 17.0079 29.7449 16.7293L23.9189 13.251C23.2244 12.8352 22.3361 12.9444 21.763 13.5164L18.9663 16.2997C18.5808 16.6835 18.3944 17.2239 18.4607 17.7635C18.5274 18.3035 18.8393 18.7825 19.3065 19.0612V19.062ZM23.0125 14.7683L28.8445 18.2376L26.0389 21.0298L20.2202 17.5508L23.0125 14.7683Z" fill="white"/>
<path d="M1.20702 40.8642L12.5713 48.23C12.998 48.5006 13.4935 48.6426 13.9983 48.6402C14.0445 48.6402 14.0869 48.6402 14.1383 48.6349H14.2063C14.7556 48.6062 15.2806 48.3999 15.7021 48.0464L28.0331 37.8095C32.341 34.8008 37.3033 34.8344 40.7132 35.3857C44.5037 36.018 48.3379 34.5383 50.7204 31.5232C53.7597 27.5523 53.7597 22.0366 50.7204 18.0657C50.4579 17.7352 50.1739 17.4217 49.8705 17.1281L49.8616 17.1184L49.8556 17.1103L49.8467 17.105C48.9819 16.2487 47.9722 15.5522 46.8643 15.0482L46.2459 14.6267C47.7821 12.8287 48.1571 10.3115 47.2122 8.14344C46.2669 5.97575 44.1672 4.53778 41.8041 4.43989C39.4414 4.342 37.2301 5.6016 36.1088 7.68393L35.6218 7.35063C35.5866 7.32717 35.5498 7.30573 35.5114 7.28713C31.297 4.28375 25.5293 4.76672 21.8726 8.42861L0.264951 29.4502C0.257265 29.4583 0.254434 29.47 0.247557 29.4777C0.176771 29.5525 0.119737 29.6391 0.0796921 29.7341C0.0687707 29.758 0.057445 29.7782 0.049355 29.8021C0.0178045 29.8927 0.00122021 29.9878 6.71936e-06 30.084V38.6383C-0.00201575 39.5375 0.452636 40.3756 1.20702 40.8642ZM2.1685 39.3813C1.91812 39.2183 1.76724 38.9396 1.76724 38.6411V31.7833L13.2545 39.817V46.5708L2.1685 39.3813ZM49.3447 30.4161C47.3566 32.9309 44.1587 34.1662 40.9959 33.6407C35.6485 32.7695 30.8156 33.7095 26.9632 36.4046L15.0217 46.3099V39.7207L36.1739 18.4111C36.197 18.3881 36.2229 18.3678 36.2455 18.3448C36.4223 18.168 36.6132 18.0046 36.805 17.8473C36.8935 17.7732 36.987 17.7008 37.08 17.6309C37.2026 17.5374 37.3292 17.4541 37.4554 17.3659C37.7369 17.1722 38.0294 16.9954 38.3311 16.8356H38.3356C40.0907 15.9332 42.0949 15.6359 44.0365 15.9898L44.1967 16.0202C44.3585 16.0529 44.5191 16.0909 44.6801 16.1322C44.7824 16.1597 44.8851 16.1905 44.9875 16.2208C45.1121 16.2588 45.2374 16.2948 45.3612 16.3389C45.5635 16.4097 45.7637 16.4886 45.9623 16.5751C45.9902 16.5881 46.0205 16.597 46.0505 16.6103C47.0043 17.0342 47.8727 17.6284 48.613 18.3642L48.621 18.3731C48.6271 18.38 48.634 18.3865 48.6413 18.3925C48.8937 18.6356 49.1299 18.8953 49.3483 19.1691C51.889 22.4884 51.8873 27.0989 49.3447 30.4161ZM40.6472 10.644C40.6472 10.1562 41.0428 9.76061 41.5307 9.76061C42.0189 9.76061 42.4145 10.1562 42.4145 10.644C42.4056 11.0732 42.086 11.4324 41.6605 11.4906L40.6885 10.8224C40.6675 10.765 40.6537 10.7051 40.6472 10.644ZM41.5307 6.22573C43.2813 6.22614 44.8665 7.26002 45.5728 8.86182C46.279 10.4636 45.9728 12.3312 44.7921 13.6235L43.3076 12.6103C44.121 11.8745 44.3977 10.7136 44.0029 9.69023C43.6085 8.66686 42.6244 7.99216 41.5274 7.99297C40.4308 7.99378 39.4479 8.67009 39.0547 9.69427L37.5711 8.68061C38.3157 7.17468 39.8508 6.2229 41.5307 6.22573ZM23.1112 9.68901C26.1955 6.59544 31.0773 6.21966 34.5984 8.80519C34.6458 8.83917 34.6959 8.8691 34.7489 8.89337L39.3351 12.0262L39.3411 12.0322C39.3707 12.0598 39.4026 12.0848 39.4366 12.1075L40.9474 13.1414C40.9684 13.1559 40.9907 13.1693 41.0137 13.181L42.3065 14.0644C41.216 14.0758 40.1335 14.2545 39.0972 14.5947C39.0725 14.6008 39.0487 14.6073 39.024 14.6149C38.5164 14.7925 38.0229 15.0081 37.548 15.2601C37.5068 15.2811 37.4659 15.305 37.4246 15.3273C37.1067 15.4971 36.7981 15.6832 36.4992 15.8851C36.3378 15.9927 36.1784 16.1031 36.0231 16.2196C35.9126 16.3037 35.8038 16.3887 35.6962 16.4768C35.4576 16.6722 35.2242 16.8773 35.0017 17.0953C34.9766 17.1192 34.9495 17.1398 34.9257 17.1637L14.0356 38.2026L2.26558 29.9716L23.1112 9.68901Z" fill="white"/>
<path d="M36.0647 22.251C35.7197 21.9059 35.1603 21.9059 34.8152 22.251L33.9314 23.1344C33.586 23.4794 33.5852 24.0388 33.9302 24.3843C34.2748 24.7301 34.8346 24.7305 35.1801 24.3859L36.0635 23.5021C36.2302 23.3366 36.3236 23.1113 36.3236 22.8767C36.324 22.6421 36.2306 22.4168 36.0647 22.251Z" fill="white"/>
<path d="M37.7374 29.5396C37.2144 29.5396 36.695 29.5565 36.1797 29.5901C35.6914 29.6059 35.3088 30.0148 35.325 30.5027C35.3411 30.9909 35.7497 31.3735 36.2379 31.3573H36.297C36.7735 31.3246 37.254 31.3096 37.7374 31.3096C38.2252 31.3096 38.6208 30.914 38.6208 30.4258C38.6208 29.938 38.2252 29.5424 37.7374 29.5424V29.5396Z" fill="white"/>
<path d="M47.5544 19.7959L47.1725 19.423C46.6256 18.921 46.0003 18.5116 45.3216 18.2107C42.645 17.0098 39.5053 17.5817 37.4246 19.6495C37.0889 19.9957 37.0929 20.5467 37.4335 20.8881C37.7737 21.2294 38.325 21.2351 38.6721 20.9006C40.235 19.3502 42.5912 18.9222 44.5995 19.8234C45.0967 20.0427 45.5545 20.3412 45.9558 20.7072L46.3004 21.0446C46.3987 21.1453 46.4922 21.2541 46.586 21.3698C48.0867 23.2887 48.0867 25.9835 46.586 27.9024C45.377 29.4031 43.4593 30.1441 41.5553 29.8464C41.2438 29.7958 40.9287 29.9156 40.7289 30.1603C40.5295 30.405 40.4757 30.7375 40.5878 31.0328C40.6998 31.3281 40.9607 31.5412 41.2726 31.5918C41.6528 31.6512 42.0367 31.6808 42.4213 31.68C45.1278 31.6856 47.5985 30.1417 48.7796 27.7066C49.9607 25.272 49.644 22.3758 47.9645 20.2538C47.8355 20.0993 47.7065 19.9533 47.5544 19.7959Z" fill="white"/>
<path d="M11.0727 40.6143L4.88756 36.7623C4.61898 36.5957 4.28203 36.5851 4.00374 36.734C3.72504 36.8829 3.54747 37.1692 3.53695 37.4851C3.52684 37.8007 3.68581 38.098 3.95439 38.2646L10.1399 42.1166C10.2791 42.2044 10.4405 42.2509 10.6055 42.2509C10.9999 42.2509 11.3469 41.9896 11.4553 41.6102C11.5641 41.2308 11.408 40.8255 11.0727 40.6167V40.6143Z" fill="white"/>
</g>
<defs>
<clipPath id="clip0_510_297">
<rect width="53" height="53" fill="white"/>
</clipPath>
</defs>
</svg>
