<svg width="225" height="51" xmlns="http://www.w3.org/2000/svg" xmlns:xlink="http://www.w3.org/1999/xlink">
    <defs>
        <path id="a" d="M0 0h25.454v21.267H0z"/>
        <path id="c" d="M0 0h22.863v50.385H0z"/>
        <path id="e" d="M0 0h22.863v50.385H0z"/>
    </defs>
    <g fill="none" fill-rule="evenodd">
        <path d="M64.511 13.246c-1.712 0-2.611-.112-3.743-.287V17.1c1.132-.176 2.031-.287 3.743-.287H70.2v18.7c0 1.726-.11 2.632-.284 3.773h4.69c-.175-1.14-.285-2.047-.285-3.773v-18.7h5.688c1.712 0 2.612.111 3.744.287v-4.141c-1.132.175-2.032.287-3.744.287H64.511zM124.601 35.718v-5.614h5.732c1.712 0 2.612.11 3.745.286V26.25c-1.133.175-2.033.286-3.745.286h-5.732v-4.942h10.332c1.712 0 2.611.112 3.744.287V17.74c-1.133.176-2.032.287-3.744.287h-14.737c.174 1.14.285 2.047.285 3.773v13.714c0 1.726-.11 2.632-.285 3.773h15.086c1.712 0 2.612.11 3.742.286V35.432c-1.13.175-2.03.286-3.742.286h-10.68zM112.18 18.026h-4.69c.175 1.14.285 2.047.285 3.773v4.649H93.613v-4.65c0-1.725.11-2.631.284-3.772h-4.69c.175 1.14.285 2.047.285 3.773v13.714c0 1.726-.11 2.632-.285 3.773H93.897c-.174-1.14-.284-2.047-.284-3.773v-5.38h14.162v5.38c0 1.726-.11 2.632-.285 3.773H112.18c-.174-1.14-.284-2.047-.284-3.773V21.8c0-1.726.11-2.632.284-3.773M180.008 35.718v-5.614h5.734c1.71 0 2.612.11 3.742.286V26.25c-1.13.175-2.032.286-3.742.286h-5.734v-4.942h10.333c1.712 0 2.612.112 3.742.287V17.74c-1.13.176-2.03.287-3.742.287H175.603c.175 1.14.285 2.047.285 3.773v13.714c0 1.726-.11 2.632-.285 3.773h15.085c1.712 0 2.612.11 3.744.286V35.432c-1.132.175-2.032.286-3.744.286h-10.68z" fill="#D0B787"/>
        <g transform="translate(199.432 18.02)">
            <mask id="b" fill="#fff">
                <use xlink:href="#a"/>
            </mask>
            <path d="M25.445.007h-5.432L20.004 0h-.313c-.54.912-1.03 1.671-2.048 2.927l.031-.027-4.944 6.114-4.944-6.087C6.77 1.675 6.28.916 5.743.007H0C.85.78 1.504 1.413 2.585 2.75l8.084 10.006v4.737c0 1.726-.11 2.632-.284 3.773h4.689c-.173-1.14-.285-2.047-.285-3.773v-4.737l8.08-9.999C23.95 1.42 24.603.788 25.454.014l-.009-.007z" fill="#D0B787" mask="url(#b)"/>
        </g>
        <path d="m168.316 36.624-9.897-11.528 11.419-11.85h-5.508c-.584.82-1.063 1.521-2.124 2.628l-10.436 10.83v-10.54c0-1.726.11-1.778.284-2.918h-4.691c.175 1.14.284 1.192.284 2.918v19.35c0 1.725-.11 2.631-.284 3.772h4.691c-.175-1.14-.284-2.047-.284-3.773v-3.517l4.017-4.17 7.42 8.639c1.027 1.199 1.535 1.94 2.088 2.82h5.684c-.872-.746-1.544-1.359-2.663-2.66" fill="#D0B787"/>
        <g transform="translate(26.476 .423)">
            <mask id="d" fill="#fff">
                <use xlink:href="#c"/>
            </mask>
            <path d="M22.863 25.192c0-11.59-7.874-21.323-18.524-24.077l.057.01C1.37.395.002 0 .002 0L0 4.05c10.787.924 19.257 10.034 19.257 21.142 0 11.109-8.47 20.218-19.257 21.142v4.05s1.37-.394 4.394-1.124l-.05.009C14.99 46.513 22.862 36.78 22.862 25.192" fill="#D0B787" mask="url(#d)"/>
        </g>
        <g transform="translate(0 .423)">
            <mask id="f" fill="#fff">
                <use xlink:href="#e"/>
            </mask>
            <path d="M0 25.192C0 13.602 7.873 3.87 18.523 1.115l-.056.01C21.492.395 22.861 0 22.861 0l.002 4.05C12.076 4.974 3.606 14.084 3.606 25.192c0 11.109 8.47 20.218 19.257 21.142l-.001 4.05s-1.369-.394-4.393-1.124l.05.009C7.871 46.513 0 36.78 0 25.192" fill="#D0B787" mask="url(#f)"/>
        </g>
        <path d="M19.503 36.12c.441-1.163.763-2.094 1.152-3.913l1.924-8.984a5.159 5.159 0 0 1-2.054-1.677 5.18 5.18 0 0 1-.995-3.055c0-2.863 2.303-5.185 5.144-5.185 2.842 0 5.145 2.322 5.145 5.185a5.18 5.18 0 0 1-.994 3.055 5.164 5.164 0 0 1-2.056 1.677l1.924 8.984c.39 1.819.711 2.75 1.153 3.912H19.503zM33.5 38.215c-.41-1.08-.73-1.982-1.119-3.797l-2.094-9.777a8.35 8.35 0 0 0 2.687-6.155c0-4.607-3.72-8.354-8.29-8.354-4.572 0-8.291 3.747-8.291 8.354 0 2.348.967 4.559 2.67 6.14l-2.097 9.792c-.39 1.814-.709 2.718-1.119 3.797l-.406 1.07h18.465l-.406-1.07z" fill="#F0EFDD"/>
    </g>
</svg>
