<?xml version="1.0" encoding="UTF-8"?>
<svg width="225px" height="50px" viewBox="0 0 225 50" version="1.1" xmlns="http://www.w3.org/2000/svg" xmlns:xlink="http://www.w3.org/1999/xlink">
    <title>logo - the key</title>
    <defs>
        <polygon id="path-1" points="0 0 25.4540602 0 25.4540602 21.1043847 0 21.1043847"></polygon>
        <polygon id="path-3" points="0 0 22.8625865 0 22.8625865 50 0 50"></polygon>
        <polygon id="path-5" points="0 0 22.8625865 0 22.8625865 50 0 50"></polygon>
    </defs>
    <g id="Symbols" stroke="none" stroke-width="1" fill="none" fill-rule="evenodd">
        <g id="Module/Header-HCA-Copy-2" transform="translate(-100.000000, -55.000000)">
            <g id="Group" transform="translate(100.000000, 55.000000)">
                <path d="M64.5110711,12.7246449 C62.7991527,12.7246449 61.8996076,12.6141894 60.7677936,12.4401297 L60.7677936,12.7246449 L60.7677936,13.3993038 L60.7677936,15.5899574 L60.7677936,16.2649001 L60.7677936,16.5494154 C61.8996076,16.3750717 62.7991527,16.2649001 64.5110711,16.2649001 L70.1993878,16.2649001 L70.1993878,34.8222774 C70.1993878,36.5347637 70.0892162,37.4343088 69.9148726,38.5661228 L70.1993878,38.5661228 L70.8737627,38.5661228 L73.6450886,38.5661228 L74.3203153,38.5661228 L74.6048305,38.5661228 C74.4302029,37.4343088 74.3203153,36.5347637 74.3203153,34.8222774 L74.3203153,16.2649001 L80.0080641,16.2649001 C81.7202665,16.2649001 82.6198116,16.3750717 83.7519095,16.5494154 L83.7519095,16.2649001 L83.7519095,15.5899574 L83.7519095,13.3993038 L83.7519095,12.7246449 L83.7519095,12.4401297 C82.6198116,12.6141894 81.7202665,12.7246449 80.0080641,12.7246449 L64.5110711,12.7246449 Z" id="Fill-1" fill="#D0B787"></path>
                <path d="M124.601423,35.025754 L124.601423,29.4538557 L130.333184,29.4538557 C132.045386,29.4538557 132.944931,29.5640273 134.077597,29.7383709 L134.077597,29.4538557 L134.077597,28.7789129 L134.077597,26.5879754 L134.077597,25.9130326 L134.077597,25.6288013 C132.944931,25.8028611 132.045386,25.9130326 130.333184,25.9130326 L124.601423,25.9130326 L124.601423,21.0086945 L134.932563,21.0086945 C136.644765,21.0086945 137.54431,21.1194339 138.676976,21.2934936 L138.676976,21.0086945 L138.676976,20.3340356 L138.676976,18.143666 L138.676976,17.4690071 L138.676976,17.183924 C137.54431,17.3579837 136.644765,17.4690071 134.932563,17.4690071 L121.154871,17.4690071 L120.481064,17.4690071 L120.19598,17.4690071 C120.370324,18.6002533 120.481064,19.5003663 120.481064,21.2122847 L120.481064,34.8224477 C120.481064,36.5346501 120.370324,37.4341952 120.19598,38.5660092 L120.481064,38.5660092 L121.154871,38.5660092 L135.281534,38.5660092 C136.993736,38.5660092 137.893565,38.6761808 139.023676,38.8505245 L139.023676,38.5660092 L139.023676,37.8910664 L139.023676,35.7004129 L139.023676,35.025754 L139.023676,34.7415228 C137.893565,34.9152985 136.993736,35.025754 135.281534,35.025754 L124.601423,35.025754 Z" id="Fill-3" fill="#D0B787"></path>
                <path d="M112.180176,17.4687232 L111.895661,17.4687232 L111.220718,17.4687232 L108.449676,17.4687232 L107.774733,17.4687232 L107.489934,17.4687232 C107.664562,18.6005372 107.774733,19.5003663 107.774733,21.2122847 L107.774733,25.8261447 L93.6131445,25.8261447 L93.6131445,21.2122847 C93.6131445,19.5003663 93.7233161,18.6005372 93.8970918,17.4687232 L93.6131445,17.4687232 L92.9382017,17.4687232 L90.1665919,17.4687232 L89.492217,17.4687232 L89.2074178,17.4687232 C89.3817615,18.6005372 89.492217,19.5003663 89.492217,21.2122847 L89.492217,34.8224477 C89.492217,36.5346501 89.3817615,37.4341952 89.2074178,38.5660092 L89.492217,38.5660092 L90.1665919,38.5660092 L92.9382017,38.5660092 L93.6131445,38.5660092 L93.8970918,38.5660092 C93.7233161,37.4341952 93.6131445,36.5346501 93.6131445,34.8224477 L93.6131445,29.4825344 L107.774733,29.4825344 L107.774733,34.8224477 C107.774733,36.5346501 107.664562,37.4341952 107.489934,38.5660092 L107.774733,38.5660092 L108.449676,38.5660092 L111.220718,38.5660092 L111.895661,38.5660092 L112.180176,38.5660092 C112.005832,37.4341952 111.895661,36.5346501 111.895661,34.8224477 L111.895661,21.2122847 C111.895661,19.5003663 112.005832,18.6005372 112.180176,17.4687232" id="Fill-5" fill="#D0B787"></path>
                <path d="M180.007865,35.025754 L180.007865,29.4538557 L185.741898,29.4538557 C187.451828,29.4538557 188.353645,29.5640273 189.484039,29.7383709 L189.484039,29.4538557 L189.484039,28.7789129 L189.484039,26.5879754 L189.484039,25.9130326 L189.484039,25.6288013 C188.353645,25.8028611 187.451828,25.9130326 185.741898,25.9130326 L180.007865,25.9130326 L180.007865,21.0086945 L190.341276,21.0086945 C192.053195,21.0086945 192.953024,21.1194339 194.083418,21.2934936 L194.083418,21.0086945 L194.083418,20.3340356 L194.083418,18.143666 L194.083418,17.4690071 L194.083418,17.183924 C192.953024,17.3579837 192.053195,17.4690071 190.341276,17.4690071 L176.5633,17.4690071 L175.887506,17.4690071 L175.603274,17.4690071 C175.777902,18.6002533 175.887506,19.5003663 175.887506,21.2122847 L175.887506,34.8224477 C175.887506,36.5346501 175.777902,37.4341952 175.603274,38.5660092 L175.887506,38.5660092 L176.5633,38.5660092 L190.687976,38.5660092 C192.400178,38.5660092 193.300007,38.6761808 194.432389,38.8505245 L194.432389,38.5660092 L194.432389,37.8910664 L194.432389,35.7004129 L194.432389,35.025754 L194.432389,34.7415228 C193.300007,34.9152985 192.400178,35.025754 190.687976,35.025754 L180.007865,35.025754 Z" id="Fill-7" fill="#D0B787"></path>
                <g id="Group-11" transform="translate(199.432219, 17.461681)">
                    <mask id="mask-2" fill="white">
                        <use xlink:href="#path-1"></use>
                    </mask>
                    <g id="Clip-10"></g>
                    <path d="M25.4450874,0.00681473573 L25.091573,0.00681473573 L24.3774455,0.00681473573 L20.0131752,0.00681473573 L20.0043728,0 L19.6908949,0 C19.151679,0.904940116 18.661302,1.65853631 17.6430669,2.90421321 L17.6743011,2.87780611 L12.7304942,8.94490854 L7.78640347,2.90421321 C6.77043995,1.66194368 6.28034687,0.908915378 5.74311854,0.00681473573 L5.41629517,0.00681473573 L1.07899982,0.00681473573 L0.367143887,0.00681473573 L0,0.00681473573 C0.850706177,0.774608295 1.50406897,1.40241582 2.58505642,2.73043745 L10.6690367,12.6597914 L10.6690367,17.3605393 C10.6690367,19.0730256 10.559433,19.9725707 10.3848054,21.1043847 L10.6690367,21.1043847 L11.3428437,21.1043847 L14.1158732,21.1043847 L14.7893963,21.1043847 L15.0736275,21.1043847 C14.9012715,19.9725707 14.7893963,19.0730256 14.7893963,17.3605393 L14.7893963,12.6597914 L22.8691173,2.73696824 C23.9501048,1.40894661 24.6034676,0.781139083 25.4541737,0.0136294715 L25.4450874,0.00681473573 Z" id="Fill-9" fill="#D0B787" mask="url(#mask-2)"></path>
                </g>
                <path d="M168.31605,35.924788 L158.419066,24.4848344 L169.838008,12.7245881 L164.73945,12.7245881 L164.329998,12.7245881 C163.745918,13.5389491 163.266899,14.2349039 162.206072,15.3329282 L151.769588,26.0803344 L151.769588,15.6208508 C151.769588,13.9083645 151.879476,13.8566861 152.054103,12.7245881 L151.769588,12.7245881 L151.093793,12.7245881 L148.323036,12.7245881 L147.647241,12.7245881 L147.36301,12.7245881 C147.537637,13.8566861 147.647241,13.9083645 147.647241,15.6208508 L147.647241,34.8222206 C147.647241,36.5347069 147.537637,37.434252 147.36301,38.566066 L147.647241,38.566066 L148.323036,38.566066 L151.093793,38.566066 L151.769588,38.566066 L152.054103,38.566066 C151.879476,37.434252 151.769588,36.5347069 151.769588,34.8222206 L151.769588,31.3316562 L155.787159,27.1934079 L163.206418,35.7666294 C164.23374,36.9566526 164.741722,37.6917922 165.294567,38.566066 L165.628205,38.566066 L170.601258,38.566066 L170.979476,38.566066 C170.106622,37.8252475 169.435087,37.2170323 168.31605,35.924788" id="Fill-12" fill="#D0B787"></path>
                <g id="Group-16" transform="translate(26.476412, 0.000000)">
                    <mask id="mask-4" fill="white">
                        <use xlink:href="#path-3"></use>
                    </mask>
                    <g id="Clip-15"></g>
                    <path d="M22.8625865,24.9999432 C22.8625865,13.4975211 14.9892952,3.83962087 4.33928298,1.10691185 L4.39550455,1.11599816 C1.37061372,0.391364594 0.00198763125,-0.000198763125 0.00198763125,-0.000198763125 L0,4.01935953 C10.7865909,4.93622543 19.2567395,13.9762563 19.2567395,24.9999432 C19.2567395,36.0236301 10.7865909,45.063661 0,45.9805269 L0.000567894644,50.0000852 C0.000567894644,50.0000852 1.36919399,49.6085218 4.39380086,48.8838883 L4.34325824,48.8924067 C14.9912828,46.15771 22.8625865,36.5006616 22.8625865,24.9999432" id="Fill-14" fill="#D0B787" mask="url(#mask-4)"></path>
                </g>
                <g id="Group-19">
                    <mask id="mask-6" fill="white">
                        <use xlink:href="#path-5"></use>
                    </mask>
                    <g id="Clip-18"></g>
                    <path d="M0,24.9999432 C0,13.4975211 7.87329135,3.83962087 18.5233036,1.10691185 L18.467082,1.11599816 C21.4919728,0.391364594 22.8605989,-0.000198763125 22.8605989,-0.000198763125 L22.8625865,4.01935953 C12.0759957,4.93622543 3.60584704,13.9762563 3.60584704,24.9999432 C3.60584704,36.0236301 12.0759957,45.063661 22.8625865,45.9805269 L22.8620186,50.0000852 C22.8620186,50.0000852 21.4933925,49.6085218 18.4687857,48.8838883 L18.5193283,48.8924067 C7.87130372,46.15771 0,36.5006616 0,24.9999432" id="Fill-17" fill="#D0B787" mask="url(#mask-6)"></path>
                </g>
                <path d="M19.5029218,35.4237914 C19.9444599,34.2698295 20.2656043,33.3464328 20.655464,31.5416636 L22.5794911,22.6260016 C21.7566117,22.2588577 21.0507187,21.6810249 20.5245643,20.9620703 C19.9018678,20.1113641 19.5296129,19.0653022 19.5296129,17.9300808 C19.5296129,15.0889039 21.8329935,12.7849553 24.6744544,12.7849553 C27.5161992,12.7849553 29.8192959,15.0889039 29.8192959,17.9300808 C29.8192959,19.0653022 29.4473249,20.1113641 28.8246285,20.9620703 C28.2979062,21.6810249 27.5922971,22.2588577 26.7694177,22.6260016 L28.6934448,31.5416636 C29.0835884,33.3464328 29.4044489,34.2698295 29.845987,35.4237914 L19.5029218,35.4237914 Z M33.500673,37.5039895 C33.0912209,36.4335081 32.7712123,35.5373703 32.3824884,33.7368603 L30.288093,24.0340964 C32.001715,22.4635838 32.9750865,20.2641278 32.9750865,17.9261055 C32.9750865,13.3545537 29.2559444,9.63541164 24.6843926,9.63541164 C20.1131246,9.63541164 16.3936986,13.3545537 16.3936986,17.9261055 C16.3936986,20.2561773 17.3608232,22.4502382 19.0639393,24.019899 L16.9667043,33.7368603 C16.5776965,35.5365185 16.2579718,36.4335081 15.8482358,37.5039895 L15.4419072,38.5665203 L33.9072855,38.5665203 L33.500673,37.5039895 Z" id="Fill-20" fill="#E0D9CA"></path>
            </g>
        </g>
    </g>
</svg>