<?xml version="1.0" encoding="utf-8"?>
<svg viewBox="0 0 266 42" xmlns="http://www.w3.org/2000/svg">
  <g id="Catálogo" stroke="none" stroke-width="1" fill="none" fill-rule="evenodd">
    <g id="Desktop-HD" transform="translate(-203.000000, -3131.000000)">
      <g id="Group-2" transform="translate(203.000000, 3131.000000)">
        <g id="Mastercard-" transform="matrix(1, 0, 0, 1, 37.428738, 0.149857)">
          <path d="M57.0040626,0.5 L2.99593743,0.5 C2.30561812,0.5 1.68207695,0.779601449 1.23097809,1.2318663 C0.778845706,1.68516733 0.5,2.31172004 0.5,3.00368123 L0.5,38.9963188 C0.5,39.6862857 0.780133978,40.3127196 1.23273985,40.7664953 C1.68416402,41.2190863 2.30740327,41.5 2.99593743,41.5 L57.0040626,41.5 C57.6943819,41.5 58.3179231,41.2203986 58.7690219,40.7681337 C59.2211543,40.3148327 59.5,39.68828 59.5,38.9963188 L59.5,3.00368123 C59.5,2.31371426 59.219866,1.68728043 58.7672601,1.23350467 C58.315836,0.780913686 57.6925967,0.5 57.0040626,0.5 Z" id="Rectangle-Copy-4" stroke="#E6E7E8" fill="#FFFFFF"/>
          <g id="mc_symbol" transform="translate(12.000000, 9.600000)">
            <g id="Group" opacity="0" fill="#FFFFFF">
              <rect id="Rectangle" x="0" y="0" width="35.8336364" height="23.9724138"/>
            </g>
            <rect id="Rectangle" fill="#FF5F00" x="13.1918182" y="4.17655172" width="9.45272727" height="15.6165517"/>
            <path d="M14.1654545,11.9862069 C14.1630811,8.93931075 15.5458933,6.06051826 17.9154545,4.17931034 C13.8899428,0.979324629 8.10914654,1.44543022 4.63565397,5.25006064 C1.1621614,9.05469105 1.1621614,14.9204814 4.63565397,18.7251118 C8.10914654,22.5297422 13.8899428,22.9958478 17.9154545,19.7958621 C15.5451392,17.9140568 14.1622425,15.0340711 14.1654545,11.9862069 Z" id="Path" fill="#EB001B"/>
            <path d="M32.9514545,18.7726646 L32.9514545,17.9290282 L33.1514545,17.9290282 L33.1514545,17.7544828 L32.6754545,17.7544828 L32.6754545,17.9290282 L32.8634545,17.9290282 L32.8634545,18.7726646 L32.9514545,18.7726646 Z M33.8754545,18.7726646 L33.8754545,17.7544828 L33.7314545,17.7544828 L33.5634545,18.4817555 L33.3954545,17.7544828 L33.2514545,17.7544828 L33.2514545,18.7726646 L33.3554545,18.7726646 L33.3554545,18.0017555 L33.5114545,18.6635737 L33.6194545,18.6635737 L33.7754545,18.0017555 L33.7754545,18.7726646 L33.8754545,18.7726646 Z" id="Shape" fill="#F79E1B" fill-rule="nonzero"/>
            <path d="M33.8018182,11.9862069 C33.8018182,15.7885187 31.6552966,19.257007 28.2741151,20.9185914 C24.8929336,22.5801758 20.8706154,22.1431434 17.9154545,19.7931034 C20.2839819,17.9102984 21.6668982,15.0318887 21.6668982,11.9848276 C21.6668982,8.93776648 20.2839819,6.05935674 17.9154545,4.17655172 C20.8706154,1.82651177 24.8929336,1.38947933 28.2741151,3.05106376 C31.6552966,4.71264818 33.8018182,8.18113645 33.8018182,11.9834483 L33.8018182,11.9862069 Z" id="Path" fill="#F79E1B"/>
          </g>
        </g>
        <g id="American-Express-" transform="matrix(1, 0, 0, 1, 176.028168, 0)">
          <path d="M0,3.00368123 C0,1.34479389 1.33730974,0 2.99593743,0 L57.0040626,0 C58.6586731,0 60,1.34984627 60,3.00368123 L60,38.9963188 C60,40.6552061 58.6626903,42 57.0040626,42 L2.99593743,42 C1.34132688,42 0,40.6501537 0,38.9963188 L0,3.00368123 Z" id="Rectangle-Copy-4" fill="#016FD0"/>
          <g id="American_Express_logo_(2018)" transform="translate(0.000000, 10.800000)">
            <path d="M11.6550988,21.4112373 L11.6550988,12.176285 L21.5844563,12.176285 L22.6497689,13.5438958 L23.7503084,12.176285 L59.7914251,12.176285 L59.7914251,20.7743469 C59.7914251,20.7743469 58.8488862,21.4020029 57.7587964,21.4112373 L37.8020862,21.4112373 L36.600988,19.9554811 L36.600988,21.4112373 L32.6650808,21.4112373 L32.6650808,18.9262172 C32.6650808,18.9262172 32.1274299,19.2730968 30.9650653,19.2730968 L29.6253784,19.2730968 L29.6253784,21.4112373 L23.6660826,21.4112373 L22.6022922,20.0142958 L21.5221683,21.4112373 L11.6550988,21.4112373 Z" id="path3082" fill="#FFFFFF"/>
            <path d="M0.0598802395,5.21595479 L2.29898952,0.0753199017 L6.17129521,0.0753199017 L7.44201557,2.95489533 L7.44201557,0.0753199017 L12.2556485,0.0753199017 L13.012109,2.15659165 L13.7454719,0.0753199017 L35.3536934,0.0753199017 L35.3536934,1.12164324 C35.3536934,1.12164324 36.4896186,0.0753199017 38.3564395,0.0753199017 L45.3675168,0.0994496314 L46.6163006,2.94133857 L46.6163006,0.0753199017 L50.6445994,0.0753199017 L51.753306,1.70775627 L51.753306,0.0753199017 L55.8185617,0.0753199017 L55.8185617,9.31026634 L51.753306,9.31026634 L50.6907958,7.67254054 L50.6907958,9.31026634 L44.7723317,9.31026634 L44.1771467,7.85451007 L42.5860641,7.85451007 L42.0005665,9.31026634 L37.9868707,9.31026634 C36.3805299,9.31026634 35.3536934,8.28530713 35.3536934,8.28530713 L35.3536934,9.31026634 L29.302006,9.31026634 L28.1009072,7.85451007 L28.1009072,9.31026634 L5.59763653,9.31026634 L5.00286168,7.85451007 L3.41685269,7.85451007 L2.82628144,9.31026634 L0.0598802395,9.31026634 L0.0598802395,5.21595479 Z" id="path3080" fill="#FFFFFF"/>
            <path d="M3.0914988,1.21379263 L0.0714292814,8.12862899 L2.03765036,8.12862899 L2.59489072,6.74396462 L5.83439162,6.74396462 L6.38874491,8.12862899 L8.39827485,8.12862899 L5.38109222,1.21379263 L3.0914988,1.21379263 Z M4.20886647,2.82308403 L5.19630838,5.2427145 L3.21853772,5.2427145 L4.20886647,2.82308403 L4.20886647,2.82308403 Z" id="path3046" fill="#016FD0" fill-rule="nonzero"/>
            <polygon id="path3048" fill="#016FD0" points="8.60615689 8.12746732 8.60615689 1.21262506 11.4002665 1.22284423 13.0254156 5.68109484 14.6116491 1.21262506 17.3834144 1.21262506 17.3834144 8.12746732 15.6279629 8.12746732 15.6279629 3.03232039 13.7671473 8.12746732 12.2276126 8.12746732 10.3616084 3.03232039 10.3616084 8.12746732"/>
            <polygon id="path3050" fill="#016FD0" points="18.5845126 8.12746732 18.5845126 1.21262506 24.3128281 1.21262506 24.3128281 2.75936904 20.3584425 2.75936904 20.3584425 3.94216806 24.2204359 3.94216806 24.2204359 5.39792432 20.3584425 5.39792432 20.3584425 6.6262172 24.3128281 6.6262172 24.3128281 8.12746732"/>
            <path d="M25.3291419,1.21379263 L25.3291419,8.12862899 L27.0845934,8.12862899 L27.0845934,5.67204324 L27.8237305,5.67204324 L29.9285401,8.12862899 L32.0737713,8.12862899 L29.7639665,5.58106143 C30.7119246,5.502286 31.6897659,4.70106339 31.6897659,3.45713808 C31.6897659,2.00201278 30.5299892,1.21379263 29.2355988,1.21379263 L25.3291419,1.21379263 L25.3291419,1.21379263 Z M27.0845934,2.76053071 L29.0912359,2.76053071 C29.5726018,2.76053071 29.9227659,3.13133366 29.9227659,3.48840885 C29.9227659,3.94779951 29.4690695,4.21628698 29.1172216,4.21628698 L27.0845934,4.21628698 L27.0845934,2.76053071 L27.0845934,2.76053071 Z" id="path3052" fill="#016FD0" fill-rule="nonzero"/>
            <polygon id="path3054" fill="#016FD0" points="34.1987916 8.12746732 32.4063832 8.12746732 32.4063832 1.21262506 34.1987916 1.21262506"/>
            <path d="M38.4488317,8.12746732 L38.0619395,8.12746732 C36.1899802,8.12746732 35.0534192,6.6751312 35.0534192,4.69848059 C35.0534192,2.67299853 36.1772551,1.21262506 38.541224,1.21262506 L40.4814599,1.21262506 L40.4814599,2.85035086 L38.470288,2.85035086 C37.5106473,2.85035086 36.8319683,3.58784668 36.8319683,4.71554005 C36.8319683,6.05468108 37.6080084,6.61711843 38.7260084,6.61711843 L39.1879689,6.61711843 L38.4488317,8.12746732 Z" id="path3056" fill="#016FD0"/>
            <path d="M42.2686707,1.21379263 L39.2486018,8.12862899 L41.2148228,8.12862899 L41.7720629,6.74396462 L45.0115641,6.74396462 L45.5659168,8.12862899 L47.5754467,8.12862899 L44.5582647,1.21379263 L42.2686707,1.21379263 Z M43.3860389,2.82308403 L44.3734802,5.2427145 L42.3957102,5.2427145 L43.3860389,2.82308403 Z" id="path3058" fill="#016FD0" fill-rule="nonzero"/>
            <polygon id="path3060" fill="#016FD0" points="47.7804419 8.12746732 47.7804419 1.21262506 50.0122904 1.21262506 52.862012 5.55714988 52.862012 1.21262506 54.6174635 1.21262506 54.6174635 8.12746732 52.4577964 8.12746732 49.5358934 3.66921671 49.5358934 8.12746732"/>
            <polygon id="path3062" fill="#016FD0" points="12.8561976 20.2284383 12.8561976 13.3135961 18.5845126 13.3135961 18.5845126 14.86034 14.6301275 14.86034 14.6301275 16.0431391 18.4921204 16.0431391 18.4921204 17.4988953 14.6301275 17.4988953 14.6301275 18.7271882 18.5845126 18.7271882 18.5845126 20.2284383"/>
            <polygon id="path3064" fill="#016FD0" points="40.9249419 20.2284383 40.9249419 13.3135961 46.6532575 13.3135961 46.6532575 14.86034 42.6988719 14.86034 42.6988719 16.0431391 46.5423868 16.0431391 46.5423868 17.4988953 42.6988719 17.4988953 42.6988719 18.7271882 46.6532575 18.7271882 46.6532575 20.2284383"/>
            <polygon id="path3066" fill="#016FD0" points="18.8068311 20.2284383 21.5959204 16.8136629 18.7404246 13.3135961 20.9520623 13.3135961 22.6526557 15.4773229 24.359024 13.3135961 26.4840443 13.3135961 23.6660826 16.7710172 26.460306 20.2284383 24.249018 20.2284383 22.5977982 18.0988187 20.9867096 20.2284383"/>
            <path d="M26.6688287,13.3147636 L26.6688287,20.2296 L28.470476,20.2296 L28.470476,18.0459656 L30.3183198,18.0459656 C31.8818569,18.0459656 33.0669868,17.2291165 33.0669868,15.6405582 C33.0669868,14.3246034 32.1374832,13.3147636 30.5464132,13.3147636 L26.6688287,13.3147636 L26.6688287,13.3147636 Z M28.470476,14.8785612 L30.4164862,14.8785612 C30.9216036,14.8785612 31.2826629,15.1834319 31.2826629,15.6746771 C31.2826629,16.136173 30.9234263,16.4707931 30.410712,16.4707931 L28.470476,16.4707931 L28.470476,14.8785612 Z" id="path3068" fill="#016FD0" fill-rule="nonzero"/>
            <path d="M33.8292228,13.3135961 L33.8292228,20.2284383 L35.5846743,20.2284383 L35.5846743,17.7718467 L36.3238114,17.7718467 L38.428621,20.2284383 L40.5738521,20.2284383 L38.2640473,17.6808649 C39.2120048,17.6020776 40.1898467,16.8008668 40.1898467,15.5569356 C40.1898467,14.1018162 39.0300701,13.3135961 37.7356796,13.3135961 L33.8292228,13.3135961 L33.8292228,13.3135961 Z M35.5846743,14.86034 L37.5913168,14.86034 C38.0726826,14.86034 38.4228461,15.2311371 38.4228461,15.5882123 C38.4228461,16.0476088 37.9691497,16.3160904 37.6173018,16.3160904 L35.5846743,16.3160904 L35.5846743,14.86034 L35.5846743,14.86034 Z" id="path3072" fill="#016FD0" fill-rule="nonzero"/>
            <path d="M47.4663084,20.2284383 L47.4663084,18.7271882 L50.9795216,18.7271882 C51.4993509,18.7271882 51.7244335,18.4505572 51.7244335,18.1471607 C51.7244335,17.8564717 51.5000605,17.5625867 50.9795216,17.5625867 L49.3919407,17.5625867 C48.0119581,17.5625867 47.2434126,16.7346221 47.2434126,15.4915459 C47.2434126,14.3828108 47.9472138,13.3135961 49.9978545,13.3135961 L53.4163653,13.3135961 L52.6772275,14.8694329 L49.7206778,14.8694329 C49.1555156,14.8694329 48.9815401,15.1614781 48.9815401,15.4403676 C48.9815401,15.7270231 49.1965317,16.0431391 49.6282856,16.0431391 L51.2913449,16.0431391 C52.8296856,16.0431391 53.4972084,16.9024452 53.4972084,18.0277445 C53.4972084,19.2375509 52.7533689,20.2284383 51.2076,20.2284383 L47.4663084,20.2284383 Z" id="path3074" fill="#016FD0"/>
            <path d="M53.9092204,20.2284383 L53.9092204,18.7271882 L57.4224311,18.7271882 C57.9422635,18.7271882 58.1673473,18.4505572 58.1673473,18.1471607 C58.1673473,17.8564717 57.9429701,17.5625867 57.4224311,17.5625867 L55.8348527,17.5625867 C54.4548701,17.5625867 53.686324,16.7346221 53.686324,15.4915459 C53.686324,14.3828108 54.3901251,13.3135961 56.4407659,13.3135961 L59.8592754,13.3135961 L59.1201377,14.8694329 L56.1635892,14.8694329 C55.5984275,14.8694329 55.4244521,15.1614781 55.4244521,15.4403676 C55.4244521,15.7270231 55.6394431,16.0431391 56.071197,16.0431391 L57.7342575,16.0431391 C59.2725988,16.0431391 59.9401198,16.9024452 59.9401198,18.0277445 C59.9401198,19.2375509 59.1962814,20.2284383 57.650509,20.2284383 L53.9092204,20.2284383 Z" id="path3076" fill="#016FD0"/>
          </g>
        </g>
        <g id="Pay-Pal-"/>
        <g id="Visa-" transform="matrix(1, 0, 0, 1, 106.079994, 0)">
          <path d="M57.0040626,0.5 L2.99593743,0.5 C2.30561812,0.5 1.68207695,0.779601449 1.23097809,1.2318663 C0.778845706,1.68516733 0.5,2.31172004 0.5,3.00368123 L0.5,38.9963188 C0.5,39.6862857 0.780133978,40.3127196 1.23273985,40.7664953 C1.68416402,41.2190863 2.30740327,41.5 2.99593743,41.5 L57.0040626,41.5 C57.6943819,41.5 58.3179231,41.2203986 58.7690219,40.7681337 C59.2211543,40.3148327 59.5,39.68828 59.5,38.9963188 L59.5,3.00368123 C59.5,2.31371426 59.219866,1.68728043 58.7672601,1.23350467 C58.315836,0.780913686 57.6925967,0.5 57.0040626,0.5 Z" id="Rectangle-Copy-4" stroke="#E6E7E8" fill="#FFFFFF"/>
          <g id="Visa_Inc._logo" transform="translate(10.800000, 14.400000)" fill="#0742A6">
            <polygon id="polygon9" points="17.1201096 12.9586209 13.9343845 12.9586209 15.9269652 0.388340697 19.112516 0.388340697"/>
            <path d="M28.6686459,0.69564818 C28.040281,0.44130636 27.0436422,0.160481708 25.8113012,0.160481708 C22.6652954,0.160481708 20.4499039,1.87209019 20.4363157,4.31917487 C20.4101847,6.12462855 22.0224713,7.12742139 23.2283327,7.72941702 C24.4608479,8.3445652 24.8798159,8.74607335 24.8798159,9.29439237 C24.867273,10.1365109 23.883874,10.5246887 22.9666737,10.5246887 C21.6947877,10.5246887 21.0132896,10.3245567 19.9776285,9.85604168 L19.5581378,9.65519873 L19.1123418,12.4769533 C19.859516,12.8242516 21.2361005,13.1324478 22.6652954,13.1459558 C26.0079811,13.1459558 28.184176,11.4608301 28.2099587,8.8530711 C28.2226758,7.42210954 27.3713257,6.32564924 25.5358798,5.42967641 C24.4216513,4.85451908 23.7392821,4.46669668 23.7392821,3.87820907 C23.7523477,3.34322034 24.3164302,2.79525679 25.5742054,2.79525679 C26.6098665,2.76841849 27.3708031,3.02240484 27.9472544,3.27656892 L28.2353929,3.4100495 L28.6686459,0.69564818 L28.6686459,0.69564818 L28.6686459,0.69564818 Z" id="path11"/>
            <path d="M32.9027492,8.50541729 C33.1651051,7.78327137 34.1746352,4.98835513 34.1746352,4.98835513 C34.1613954,5.01519344 34.4364684,4.25287893 34.5937774,3.78489709 L34.8164141,4.8680271 C34.8164141,4.8680271 35.4196932,7.87693883 35.550697,8.50541729 C35.0528131,8.50541729 33.5319852,8.50541729 32.9027492,8.50541729 L32.9027492,8.50541729 Z M36.8351258,0.388340697 L34.3709666,0.388340697 C33.6110752,0.388340697 33.033753,0.615488738 32.7058952,1.43130213 L27.9739081,12.9584431 L31.3165937,12.9584431 C31.3165937,12.9584431 31.8669139,11.4069758 31.9852005,11.07283 C32.3519064,11.07283 35.6036559,11.07283 36.0754087,11.07283 C36.1668675,11.5141513 36.4555286,12.9584431 36.4555286,12.9584431 L39.405203,12.9584431 L36.8351258,0.388340697 L36.8351258,0.388340697 L36.8351258,0.388340697 Z" id="path13" fill-rule="nonzero"/>
            <path d="M11.2735455,0.388340697 L8.15367069,8.96006885 L7.81274742,7.22162206 C7.23594775,5.21568091 5.42698133,3.03626833 3.40826958,1.9526051 L6.26596267,12.9452906 L9.63477936,12.9452906 L14.6421879,0.388340697 L11.2735455,0.388340697 L11.2735455,0.388340697 L11.2735455,0.388340697 Z" id="path15"/>
            <path d="M5.2566068,0.388340697 L0.131085824,0.388340697 L0.0786494899,0.642327044 C4.07687639,1.68546621 6.72482415,4.19991326 7.81274742,7.22215528 L6.69851888,1.44498788 C6.51507881,0.642149307 5.95134467,0.414823528 5.2566068,0.388340697 L5.2566068,0.388340697 Z" id="path17"/>
          </g>
        </g>
      </g>
    </g>
  </g>
</svg>