<?xml version="1.0" encoding="UTF-8"?><svg id="Calque_1" xmlns="http://www.w3.org/2000/svg" xmlns:xlink="http://www.w3.org/1999/xlink" viewBox="0 0 512 395"><defs><clipPath id="clippath"><polygon points="259.41 23.86 259.41 23.86 303.69 28.65 319.59 69.76 274.22 69.77 259.41 23.86" style="clip-rule:evenodd; fill:none;"/></clipPath><clipPath id="clippath-1"><path d="M163.81,74.69l22.68,16.38h-25.93l3.25-16.38ZM251.9,.9h0s-22.21,68.87-22.21,68.87l-64.89-.03,6.94-35L251.9,.9Z" style="fill:none;"/></clipPath><clipPath id="clippath-2"><path d="M251.95,138.48h0s.01,0,.01,0v33.72l-27.92-13.32,27.91-20.41Zm-77.07-47.41h11.61l29.43,21.25-12.12,36.92-32.58-15.54,3.66-42.62Z" style="fill:none;"/></clipPath><clipPath id="clippath-3"><path d="M251.95,138.48l37.98,27.76-37.98,15.15v-42.91Zm81.78-59.19l-15.66,75.72-14.21,5.67-15.88-48.36,45.75-33.03Z" style="fill:none;"/></clipPath><clipPath id="clippath-4"><path d="M111.05,306.47h8.7l-26.51,60.68h-8.66l8.78-20.06-18.05-40.62h8.66l13.74,30.78,13.34-30.78Zm-53.32-1.09c6.75,0,11.51,3.13,14.03,9.25,1.17,2.85,1.74,6.98,1.74,12.45v24.52h-8.22v-24.52c0-3.48-.15-5.89-.44-7.19-.5-2.39-1.59-4.11-3.26-5.23-1.37-.9-3-1.35-4.94-1.35-2.43,0-4.61,.71-6.58,2.14-1.98,1.41-3.42,3.29-4.34,5.65-.92,2.39-1.4,6.59-1.4,12.54v17.96h-8.06v-23.07c0-3.91-.13-6.56-.37-7.89-.49-2.75-1.61-4.69-3.36-5.9-1.36-.94-2.99-1.41-4.92-1.41-2.35,0-4.51,.71-6.49,2.13-1.91,1.39-3.32,3.21-4.25,5.49-.99,2.39-1.5,6.18-1.5,11.33v19.32H7.31v-45.13H15.37v4.94c3.74-4,8.18-6.04,13.26-6.04,4.72,0,8.55,1.63,11.39,4.87,.85,.99,1.62,2.22,2.3,3.71,3.84-5.68,9.01-8.57,15.42-8.57Zm401.35-82.9c-3.94-1.83-8.07-2.75-12.41-2.75-7.15,0-13.27,2.29-18.4,6.88-3.41,3.04-6.08,7.52-8,13.47h53.27c-2.49-8.41-7.3-14.25-14.46-17.6Zm-32.6,47.88c5.17,5.7,11.73,8.54,19.77,8.54s14.4-2.36,19.81-7.1c2.45-2.14,5.15-5.65,8.08-10.54l.64-1.07,10.52,5.53-.59,1.16c-5.28,10.32-12.65,17.32-22.07,20.95-4.6,1.79-9.78,2.68-15.54,2.68-11.79,0-21.61-3.92-29.39-11.74-7.72-7.82-11.59-17.66-11.59-29.44,0-9.96,3.07-18.87,9.18-26.66,7.77-9.94,18.23-14.94,31.24-14.94s24.14,5.11,32.15,15.29c5.7,7.25,8.6,16.22,8.69,26.87v1.33s-68.49,0-68.49,0c.42,7.64,2.95,14.02,7.6,19.17Zm-27.89-3.6c0,6.8-2.36,12.49-7.06,17-4.69,4.49-10.48,6.74-17.31,6.74-9.79,0-17.68-3.78-23.53-11.3l-.67-.86,7.87-8.94,.99,1.12c4.77,5.39,9.73,8.03,14.92,8.03,3.38,0,6.35-1.08,8.97-3.27,2.6-2.18,3.87-4.85,3.87-8.1s-1.51-6.16-4.64-8.73c-1.58-1.32-4.84-3.24-9.71-5.73-5.78-2.96-10.04-5.92-12.77-8.89-3.78-4.07-5.68-8.97-5.68-14.63,0-6.29,2.13-11.47,6.37-15.46,4.27-4.02,9.57-6.03,15.83-6.03,7.39,0,14.75,3.58,22.08,10.67l.95,.91-8.14,8.41-.95-.92c-5.01-4.87-9.82-7.26-14.43-7.26-2.72,0-5.1,.89-7.2,2.69-2.05,1.76-3.05,3.9-3.05,6.5,0,4.41,4.54,9.13,13.86,13.97,6.1,3.14,10.55,6.16,13.38,9.08,4.02,4.17,6.05,9.19,6.05,15Zm-65.55-17.24c0-8.07-2.74-14.99-8.27-20.82-5.45-5.85-12.13-8.76-20.13-8.76s-14.71,2.91-20.2,8.76c-5.47,5.83-8.19,12.75-8.19,20.82,0,5.2,1.23,10.05,3.69,14.57,2.55,4.65,6,8.21,10.36,10.7,4.38,2.5,9.15,3.75,14.34,3.75,11.11,0,19.24-4.72,24.57-14.25,2.55-4.57,3.83-9.49,3.83-14.77Zm12.58-.21c0,11.55-3.94,21.35-11.81,29.3-7.87,7.91-17.62,11.88-29.18,11.88s-21.33-3.97-29.25-11.88c-7.86-7.91-11.81-17.7-11.81-29.3,0-10.88,3.62-20.35,10.85-28.35,7.96-8.83,18.06-13.26,30.2-13.26s22.17,4.41,30.13,13.19c7.23,8,10.85,17.49,10.85,28.42Zm-102.9,.21c0-8.07-2.74-14.99-8.27-20.82-5.45-5.85-12.13-8.76-20.13-8.76s-14.71,2.91-20.2,8.76c-5.47,5.83-8.19,12.75-8.19,20.82,0,5.2,1.23,10.05,3.69,14.57,2.55,4.65,6,8.21,10.36,10.7,4.38,2.5,9.15,3.75,14.34,3.75,11.11,0,19.24-4.72,24.57-14.25,2.55-4.57,3.83-9.49,3.83-14.77Zm12.58-.21c0,11.55-3.94,21.35-11.81,29.3-7.86,7.91-17.62,11.88-29.18,11.88s-21.33-3.97-29.25-11.88c-7.86-7.91-11.81-17.7-11.81-29.3,0-10.88,3.62-20.35,10.85-28.35,7.96-8.83,18.06-13.26,30.2-13.26s22.17,4.41,30.13,13.19c7.23,8,10.85,17.49,10.85,28.42Zm-122.82-41.6c5.81,0,11.05,1.5,15.69,4.47,4.72,2.95,8.19,7.03,10.39,12.22,2.24,5.15,3.33,12.99,3.33,23.58v40.55h-12.44v-37.68c0-8.68-.35-14.47-1.01-17.28-2.29-9.55-8.16-14.2-17.92-14.2-5.62,0-10.65,1.85-15.14,5.58-4.46,3.7-7.39,8.32-8.82,13.89-.9,3.5-1.36,10.34-1.36,20.41v29.27h-12.44v-108.29h12.44v40.7c7.67-8.8,16.78-13.23,27.28-13.23Zm-52.5,64.96c-7.92,11.87-20.23,17.82-36.77,17.82-11.95,0-22.1-3.76-30.39-11.27-8.55-7.77-12.83-17.63-12.83-29.49,0-7.66,1.91-14.76,5.72-21.27,3.86-6.51,9.15-11.6,15.85-15.27,6.69-3.66,14.17-5.49,22.43-5.49,10.65,0,19.78,2.87,27.35,8.6,3.41,2.58,6.3,5.86,8.67,9.83l.66,1.11-9.9,6.15-.72-.96c-6.48-8.59-15.27-12.86-26.49-12.86-8.69,0-15.99,2.73-21.95,8.2-6.08,5.63-9.11,12.69-9.11,21.25,0,5.37,1.36,10.4,4.09,15.1,2.73,4.65,6.44,8.27,11.13,10.86,4.71,2.6,10,3.9,15.9,3.9,10.81,0,19.59-4.28,26.44-12.89l.75-.94,9.89,6.5-.73,1.1Z" style="clip-rule:evenodd; fill:none;"/></clipPath><clipPath id="clippath-5"><path d="M512,304.14c0,1.95-.48,3.74-1.44,5.41-.96,1.66-2.28,2.98-3.96,3.95-1.67,.97-3.47,1.45-5.38,1.45s-3.71-.48-5.39-1.45c-1.68-.96-3-2.28-3.97-3.95-.97-1.67-1.45-3.46-1.45-5.36s.48-3.73,1.45-5.41c.97-1.69,2.29-3.01,3.96-3.97,1.67-.97,3.47-1.44,5.4-1.44s3.72,.48,5.38,1.43c1.66,.96,2.98,2.28,3.95,3.97,.97,1.69,1.45,3.48,1.45,5.38Zm-1.5,.01c0-1.65-.42-3.2-1.25-4.65-.84-1.45-1.97-2.6-3.4-3.43-1.43-.83-2.97-1.25-4.61-1.25s-3.22,.42-4.67,1.25c-1.45,.84-2.59,1.98-3.42,3.43-.83,1.45-1.24,3.01-1.24,4.68s.41,3.21,1.24,4.65c.83,1.44,1.97,2.57,3.43,3.4,1.46,.84,3.01,1.25,4.66,1.25s3.17-.42,4.61-1.25c1.44-.84,2.57-1.98,3.4-3.41s1.24-2.99,1.24-4.66Zm-13.77-6.3h5.17c1.21,0,2.08,.12,2.61,.36,.53,.25,.96,.64,1.29,1.19,.34,.55,.51,1.19,.51,1.93,0,.63-.12,1.18-.36,1.64-.19,.34-.58,.71-1.2,1.11,.57,.28,.94,.59,1.13,.96,.19,.36,.29,.98,.29,1.86v1.4c0,.66,.15,1.21,.44,1.65l.21,.33h-2.2c-.14-.51-.25-1.13-.3-1.83l-.1-1.53c-.04-.56-.12-.95-.27-1.18-.14-.23-.34-.4-.6-.5-.26-.1-.78-.15-1.55-.15h-3.11v5.19h-1.96v-12.43Zm1.96,1.78v3.68h3.05c.92,0,1.55-.1,1.88-.31,.49-.3,.73-.82,.73-1.54,0-.63-.18-1.1-.52-1.39-.35-.29-1-.44-1.97-.44h-3.17Zm-19.57,6.83h8.7l-26.51,60.68h-8.66l8.78-20.06-18.05-40.62h8.66l13.74,30.78,13.34-30.78Zm-54.72-1.09c3.35,0,6.38,.86,9.06,2.58,2.73,1.71,4.75,4.09,6.02,7.12,1.28,2.96,1.91,7.39,1.91,13.34v23.19h-8.06v-21.59c0-4.69-.2-7.88-.59-9.5-1.21-5.06-4.25-7.47-9.43-7.47-3,0-5.67,.98-8.07,2.98-2.39,1.98-3.96,4.45-4.72,7.44-.49,1.92-.74,5.69-.74,11.24v16.9h-8.1v-45.13h8.1v5.35c4.13-4.28,9.02-6.44,14.62-6.44Zm-38.35,23.89c0-4.53-1.47-8.31-4.44-11.4-2.93-3.07-6.59-4.59-11.08-4.59-6.04,0-10.45,2.59-13.43,7.89-1.43,2.51-2.13,5.15-2.13,7.94s.71,5.45,2.13,7.98c1.43,2.51,3.32,4.47,5.69,5.88,2.4,1.39,4.96,2.09,7.7,2.09s5.38-.7,7.87-2.1c2.47-1.39,4.36-3.26,5.67-5.63,1.34-2.38,2.02-5.06,2.02-8.06Zm-.35-22.8h8.02v45.13h-8.02v-5.26c-4.42,4.23-9.69,6.36-15.76,6.36-6.51,0-12.03-2.36-16.5-7.05-4.4-4.6-6.62-10.2-6.62-16.73s2.26-12.03,6.75-16.62c4.52-4.6,10.05-6.92,16.53-6.92s11.42,2.21,15.6,6.57v-5.48Zm-53,14.69c-1.39-2.5-3.28-4.42-5.69-5.79-2.38-1.39-4.96-2.09-7.77-2.09-4.49,0-8.17,1.52-11.12,4.59-2.94,3.08-4.4,6.86-4.4,11.4,0,6.3,2.55,10.81,7.73,13.7,2.49,1.4,5.1,2.1,7.87,2.1s5.36-.72,7.76-2.15c2.33-1.42,4.19-3.37,5.59-5.89,1.43-2.51,2.13-5.14,2.13-7.91s-.7-5.44-2.1-7.95Zm-13.03-15.78c6.47,0,12,2.32,16.49,6.92,4.51,4.6,6.78,10.16,6.78,16.62s-2.21,12.13-6.61,16.73c-4.47,4.69-10,7.05-16.5,7.05-6.05,0-11.3-2.13-15.72-6.36v11.18h-8.06v-51.04h8.06v5.5c4.21-4.38,9.42-6.6,15.56-6.6Zm-46.56,0c6.75,0,11.51,3.13,14.03,9.25,1.17,2.85,1.74,6.98,1.74,12.45v24.52h-8.22v-24.52c0-3.48-.15-5.89-.44-7.19-.5-2.39-1.59-4.11-3.26-5.23-1.37-.9-3-1.35-4.94-1.35-2.43,0-4.61,.71-6.58,2.14-1.98,1.41-3.42,3.29-4.34,5.65-.92,2.39-1.4,6.59-1.4,12.54v17.96h-8.06v-23.07c0-3.91-.13-6.56-.37-7.89-.49-2.75-1.61-4.69-3.36-5.9-1.36-.94-2.99-1.41-4.92-1.41-2.35,0-4.51,.71-6.49,2.13-1.91,1.39-3.32,3.21-4.25,5.49-.99,2.39-1.5,6.18-1.5,11.33v19.32h-8.06v-45.13h8.06v4.94c3.74-4,8.18-6.04,13.26-6.04,4.72,0,8.55,1.63,11.39,4.87,.85,.99,1.62,2.22,2.3,3.71,3.84-5.68,9.01-8.57,15.42-8.57Zm-68.74,12.68c-2.93-3.14-6.5-4.7-10.8-4.7s-7.88,1.56-10.84,4.7c-2.95,3.14-4.41,6.86-4.41,11.21,0,2.8,.66,5.41,1.99,7.84,1.37,2.5,3.22,4.4,5.55,5.74,2.35,1.34,4.91,2.01,7.71,2.01,5.99,0,10.32-2.52,13.19-7.65,1.37-2.46,2.06-5.1,2.06-7.95,0-4.35-1.47-8.06-4.45-11.21Zm5.88,27.84c-4.5,4.52-10.08,6.79-16.68,6.79s-12.19-2.27-16.72-6.79c-4.49-4.52-6.75-10.13-6.75-16.75,0-6.21,2.07-11.63,6.2-16.19,4.55-5.04,10.34-7.58,17.27-7.58s12.68,2.52,17.23,7.54c4.13,4.57,6.2,10,6.2,16.23,0,6.59-2.26,12.2-6.75,16.75Zm-44.41-3.4c-4.53,6.79-11.57,10.19-20.98,10.19-6.81,0-12.61-2.15-17.33-6.44-4.89-4.44-7.35-10.1-7.35-16.87,0-4.37,1.09-8.43,3.27-12.15,2.2-3.72,5.23-6.63,9.06-8.73,3.82-2.09,8.09-3.13,12.78-3.13,6.06,0,11.28,1.64,15.6,4.92,1.96,1.48,3.62,3.37,4.98,5.65l.66,1.11-6.46,4.01-.72-.96c-3.5-4.64-8.23-6.94-14.3-6.94-4.7,0-8.63,1.47-11.84,4.41-3.27,3.03-4.89,6.81-4.89,11.42,0,2.89,.73,5.59,2.2,8.12,1.47,2.5,3.46,4.45,5.99,5.84,2.54,1.4,5.39,2.1,8.58,2.1,5.85,0,10.57-2.3,14.29-6.96l.75-.94,6.45,4.24-.73,1.1Z" style="fill:none;"/></clipPath></defs><g style="clip-path:url(#clippath);"><rect x="255.7" y="20.16" width="67.59" height="53.32" style="fill:#f03f1e;"/></g><g><g style="clip-path:url(#clippath-1);"><rect x="156.86" y="-2.8" width="98.74" height="97.57" style="fill:#2a4f92;"/></g><g style="clip-path:url(#clippath-2);"><rect x="167.52" y="87.36" width="88.14" height="88.55" style="fill:#ee1796;"/></g><g style="clip-path:url(#clippath-3);"><rect x="248.25" y="75.58" width="89.19" height="109.51" style="fill:#3ba63c;"/></g><g style="clip-path:url(#clippath-4);"><rect x="-3.7" y="176.53" width="494.79" height="194.32" style="fill:#2a4f92;"/></g><g style="clip-path:url(#clippath-5);"><rect x="116.47" y="289.66" width="399.23" height="81.19" style="fill:#1599d9;"/></g><g><path d="M126.76,384.9h-14.29l-2.58,5.57h-3.17l11.31-24.53h3.17l11.31,24.53h-3.17l-2.58-5.57Zm-1.19-2.64l-5.93-12.89-5.97,12.89h11.91Z" style="fill:#2a4f92;"/><path d="M134.71,372.01h3.14l6.42,15.32,6.31-15.32h3.13l-8.1,18.46h-2.69l-8.21-18.46Z" style="fill:#2a4f92;"/><path d="M157.07,366.87c0-.93,.82-1.75,1.87-1.75s1.83,.82,1.83,1.75-.82,1.79-1.83,1.79-1.87-.82-1.87-1.79Zm.45,5.14h2.8v18.46h-2.8v-18.46Z" style="fill:#2a4f92;"/><path d="M164.8,388.15l1.46-1.96c2.2,1.54,4.4,2.32,6.53,2.32,2.54,0,4.25-1.14,4.25-2.89,0-2-2.24-2.64-4.85-3.36-4.67-1.29-6.46-2.61-6.46-5.25,0-3.36,2.91-5.43,6.76-5.43,2.39,0,4.85,.79,6.9,2.07l-1.34,2.07c-1.94-1.18-3.84-1.75-5.56-1.75-2.17,0-3.96,.93-3.96,2.71,0,1.61,1.42,2.11,5,3.21,3.1,.93,6.31,1.93,6.31,5.43s-3.06,5.57-7.05,5.57c-2.69,0-5.67-.96-7.99-2.75Z" style="fill:#2a4f92;"/><path d="M194.25,381.22c0-5.25,4.59-9.64,10-9.64,2.61,0,5.04,1.04,6.87,2.71l-1.94,1.82c-1.27-1.32-3.02-2.14-4.93-2.14-3.84,0-7.05,3.32-7.05,7.25s3.21,7.28,7.05,7.28c1.94,0,3.73-.86,5.04-2.25l1.94,1.82c-1.83,1.75-4.29,2.82-6.98,2.82-5.41,0-10-4.43-10-9.68Z" style="fill:#2a4f92;"/><path d="M230.3,386.29l1.72,1.75c-1.68,1.75-5.08,2.86-7.76,2.86-5.15,0-9.78-4.04-9.78-9.71s4.33-9.61,9.52-9.61c5.82,0,9.14,4.21,9.14,10.68h-15.79c.41,3.61,3.06,6.25,6.87,6.25,2.28,0,4.89-.96,6.08-2.21Zm-12.91-6.43h12.99c-.37-3.32-2.43-5.89-6.27-5.89-3.43,0-6.2,2.32-6.72,5.89Z" style="fill:#2a4f92;"/><path d="M248.26,371.58v2.39c-4.37,0-7.46,2.57-7.46,6.18v10.32h-2.8v-18.46h2.8v3.61c1.16-2.46,3.92-4.04,7.46-4.04Z" style="fill:#2a4f92;"/><path d="M261.99,389.72c-1.01,.75-2.28,1.18-3.58,1.18-2.76,0-4.7-1.96-4.7-4.71v-11.78h-3.02v-2.39h3.02v-5.07h2.8v5.07h4.74v2.39h-4.74v11.78c0,1.36,.97,2.32,2.09,2.32,.86,0,1.6-.32,2.02-.75l1.38,1.96Z" style="fill:#2a4f92;"/><path d="M265.47,366.87c0-.93,.82-1.75,1.87-1.75s1.83,.82,1.83,1.75-.82,1.79-1.83,1.79-1.87-.82-1.87-1.79Zm.45,5.14h2.8v18.46h-2.8v-18.46Z" style="fill:#2a4f92;"/><path d="M278.72,372.01h4.74v2.39h-4.74v16.07h-2.8v-16.07h-3.02v-2.39h3.02v-2.54c0-2.75,1.94-4.71,4.7-4.71,1.31,0,2.58,.43,3.58,1.18l-1.38,1.96c-.41-.43-1.16-.75-2.02-.75-1.12,0-2.09,.96-2.09,2.32v2.54Z" style="fill:#2a4f92;"/><path d="M286.97,366.87c0-.93,.82-1.75,1.87-1.75s1.83,.82,1.83,1.75-.82,1.79-1.83,1.79-1.87-.82-1.87-1.79Zm.45,5.14h2.8v18.46h-2.8v-18.46Z" style="fill:#2a4f92;"/><path d="M310.63,386.29l1.72,1.75c-1.68,1.75-5.08,2.86-7.76,2.86-5.15,0-9.78-4.04-9.78-9.71s4.33-9.61,9.52-9.61c5.82,0,9.14,4.21,9.14,10.68h-15.79c.41,3.61,3.06,6.25,6.87,6.25,2.28,0,4.89-.96,6.08-2.21Zm-12.91-6.43h12.99c-.37-3.32-2.43-5.89-6.27-5.89-3.43,0-6.2,2.32-6.72,5.89Zm5.79-9.96h-2.16l4.52-5.14,2.95,.64-5.3,4.5Z" style="fill:#2a4f92;"/><path d="M316.9,388.15l1.46-1.96c2.2,1.54,4.4,2.32,6.53,2.32,2.54,0,4.25-1.14,4.25-2.89,0-2-2.24-2.64-4.85-3.36-4.67-1.29-6.46-2.61-6.46-5.25,0-3.36,2.91-5.43,6.76-5.43,2.39,0,4.85,.79,6.9,2.07l-1.34,2.07c-1.94-1.18-3.84-1.75-5.56-1.75-2.17,0-3.96,.93-3.96,2.71,0,1.61,1.42,2.11,5,3.21,3.1,.93,6.31,1.93,6.31,5.43s-3.06,5.57-7.05,5.57c-2.69,0-5.67-.96-7.99-2.75Z" style="fill:#2a4f92;"/><path d="M348.63,363.94h2.24v29.17h-2.24v-29.17Z" style="fill:#2a4f92;"/><path d="M373.83,370.69v4.89h12.88v4.75h-12.88v5.39h14.22v4.75h-19.74v-24.53h19.74v4.75h-14.22Z" style="fill:#2a4f92;"/><path d="M390.55,386.83l3.17-3.61c2.43,2,5.19,3.21,8.43,3.21,2.76,0,4.18-1.21,4.18-2.75,0-1.75-1.49-2.29-5.41-3.14-5.41-1.18-9.26-2.64-9.26-7.39s3.88-7.64,9.48-7.64c4.18,0,7.43,1.25,10.04,3.39l-2.87,3.79c-2.28-1.75-4.85-2.71-7.32-2.71s-3.77,1.18-3.77,2.64c0,1.79,1.53,2.36,5.49,3.21,5.52,1.18,9.18,2.75,9.18,7.28s-3.7,7.78-9.96,7.78c-4.44,0-8.4-1.43-11.38-4.07Z" style="fill:#2a4f92;"/><path d="M427.61,376.69h11.35v10.1c-2.58,2.57-6.53,4.11-10.38,4.11-7.43,0-13.73-5.82-13.73-12.71s6.31-12.68,13.73-12.68c3.84,0,7.8,1.54,10.38,4.11l-3.99,3.43c-1.53-1.68-4.03-2.75-6.38-2.75-4.37,0-8.06,3.64-8.06,7.89s3.7,7.93,8.06,7.93c1.75,0,3.55-.57,5-1.57v-3.75h-5.97v-4.11Z" style="fill:#2a4f92;"/></g></g></svg>