<svg id="Calque_1" data-name="Calque 1" xmlns="http://www.w3.org/2000/svg" viewBox="0 0 300 300"><defs><style>.cls-1{fill:#fff;}</style></defs><path class="cls-1" d="M74.23,106.21V130.6H71.61V119.49H58V130.6H55.39V106.21H58v10.65h13.6V106.21Z"/><path class="cls-1" d="M93.54,119.42V130.6H91v-2.87a7.16,7.16,0,0,1-6.11,3.3c-3.66,0-6.35-2.24-6.35-5.86s3.09-6.11,6.82-6.11a18.13,18.13,0,0,1,5.64,1v-.67c0-2.49-.94-5.33-4.7-5.33a11.2,11.2,0,0,0-5.07,1.67l-1-2.16a13.41,13.41,0,0,1,6.25-1.78C91.22,111.82,93.54,115,93.54,119.42ZM91,124.85v-2.8a18.47,18.47,0,0,0-5.24-.75c-2.58,0-4.77,1.56-4.77,3.76s1.88,3.63,4.34,3.63C87.63,128.69,90.35,127.44,91,124.85Z"/><path class="cls-1" d="M115.74,121.41c0,5.64-3.43,9.62-8,9.62a7,7,0,0,1-6.31-3.87v9.55H98.91V112.25h2.52v3.44a7,7,0,0,1,6.31-3.87C112.31,111.82,115.74,115.8,115.74,121.41Zm-2.66,0c0-4.23-2.41-7.21-5.81-7.21s-5.84,3-5.84,7.21,2.42,7.24,5.84,7.24S113.08,125.63,113.08,121.41Z"/><path class="cls-1" d="M137.16,121.41c0,5.64-3.43,9.62-8,9.62a7,7,0,0,1-6.32-3.87v9.55h-2.52V112.25h2.52v3.44a7,7,0,0,1,6.32-3.87C133.73,111.82,137.16,115.8,137.16,121.41Zm-2.65,0c0-4.23-2.42-7.21-5.81-7.21s-5.85,3-5.85,7.21,2.42,7.24,5.85,7.24S134.51,125.63,134.51,121.41Z"/><path class="cls-1" d="M141.35,136.39l.61-2.27a4.35,4.35,0,0,0,2,.46,2.58,2.58,0,0,0,2.52-1.63l1-2.28L140,112.25h2.78l6.08,15.26,5.75-15.26h2.72l-7.93,20.41c-1.21,3.13-2.89,4.3-5.27,4.33A6.35,6.35,0,0,1,141.35,136.39Z"/><path class="cls-1" d="M161.54,106.21h2.61V130.6h-2.61Z"/><path class="cls-1" d="M184.14,118.92V130.6h-2.52V119.28c0-3-1.78-5.08-4.33-5.08-2.93,0-5.38,2.16-5.38,4.72V130.6h-2.52V112.25h2.52v2.94a6.53,6.53,0,0,1,5.71-3.37C181.45,111.82,184.14,114.77,184.14,118.92Z"/><path class="cls-1" d="M205.33,105.78V130.6h-2.52v-3.44a7,7,0,0,1-6.32,3.87c-4.56,0-8-4-8-9.62s3.43-9.59,8-9.59a7,7,0,0,1,6.32,3.87v-9.91Zm-2.52,15.63c0-4.23-2.42-7.21-5.85-7.21s-5.81,3-5.81,7.21,2.42,7.24,5.81,7.24S202.81,125.63,202.81,121.41Z"/><path class="cls-1" d="M224,126.45l1.55,1.74a10.07,10.07,0,0,1-7,2.84c-4.63,0-8.8-4-8.8-9.66,0-5.47,3.9-9.55,8.57-9.55,5.23,0,8.22,4.19,8.22,10.62h-14.2c.37,3.58,2.75,6.21,6.18,6.21A7.9,7.9,0,0,0,224,126.45Zm-11.62-6.39H224c-.34-3.3-2.18-5.86-5.64-5.86C215.3,114.2,212.81,116.51,212.34,120.06Z"/><path class="cls-1" d="M242.56,130.6l-5.2-7.31-5.24,7.31h-3l6.72-9.37-6.45-9h3l5,6.92,4.94-6.92h2.95l-6.41,9,6.68,9.37Z"/><path class="cls-1" d="M249,113.1a8.29,8.29,0,0,1,.6-3.15,8.06,8.06,0,0,1,1.65-2.55,7.78,7.78,0,0,1,2.43-1.72,7.23,7.23,0,0,1,5.95,0,7.78,7.78,0,0,1,2.43,1.72,8.14,8.14,0,0,1,2.25,5.7,8.1,8.1,0,0,1-.6,3.12,8.31,8.31,0,0,1-1.65,2.54,7.75,7.75,0,0,1-2.43,1.71,7.45,7.45,0,0,1-5.95,0,7.75,7.75,0,0,1-2.43-1.71A8.09,8.09,0,0,1,249,113.1Zm1.21,0a7,7,0,0,0,.5,2.62,7.27,7.27,0,0,0,1.38,2.19,6.13,6.13,0,0,0,2.05,1.47,6.23,6.23,0,0,0,5,0,6.13,6.13,0,0,0,2.05-1.47,7.27,7.27,0,0,0,1.38-2.19,7,7,0,0,0,.5-2.62,7.16,7.16,0,0,0-.5-2.67,6.89,6.89,0,0,0-1.38-2.16,6.39,6.39,0,0,0-2.05-1.46,6.23,6.23,0,0,0-5,0,6.39,6.39,0,0,0-2.05,1.46,6.89,6.89,0,0,0-1.38,2.16A7.16,7.16,0,0,0,250.22,113.1Zm3.46-4.58h3a4.57,4.57,0,0,1,1.17.14,3,3,0,0,1,1,.46,2.29,2.29,0,0,1,.72.82,2.56,2.56,0,0,1,.27,1.24,2.36,2.36,0,0,1-.54,1.61,2.62,2.62,0,0,1-1.44.84l2.31,4h-1.88l-2-3.8h-1.11v3.8h-1.54Zm2.78,4a3.25,3.25,0,0,0,1.28-.26,1.07,1.07,0,0,0,.6-1.09,1,1,0,0,0-.55-1,2.75,2.75,0,0,0-1.16-.25h-1.41v2.59Z"/><path class="cls-1" d="M44.92,150.7H32.79v-8H65.43v8H53.3v33.19H44.92Z"/><path class="cls-1" d="M89.12,152.19v7.37c-6.12,0-10,3.72-10,9.53v14.8H70.81v-31h8.28v5.76A10.87,10.87,0,0,1,89.12,152.19Z"/><path class="cls-1" d="M119.83,165.38v18.51h-8v-3.11a11.37,11.37,0,0,1-8.62,3.83c-6.23,0-11-4-11-9.89,0-6.11,5.39-10.3,12.19-10.3a20.1,20.1,0,0,1,7.48,1.56v-.6c0-3.3-1.93-6.18-6.74-6.18a16.06,16.06,0,0,0-7.6,2.22l-2.78-5.81A25.77,25.77,0,0,1,107,152.19C114.62,152.19,119.83,157.29,119.83,165.38Zm-8,8.74v-2.87a17.6,17.6,0,0,0-6.29-1.14c-3,0-5.39,1.86-5.39,4.37s2.1,4.08,4.94,4.08C108.27,178.56,111.27,177,111.84,174.12Z"/><path class="cls-1" d="M126.4,143.86a4.49,4.49,0,1,1,4.53,4.8A4.65,4.65,0,0,1,126.4,143.86Zm.34,9H135v31h-8.27Z"/><path class="cls-1" d="M170,164.18v19.71h-8V166c0-3.84-2.26-6.48-5.55-6.48a6,6,0,0,0-6.12,6l-.06-.18v18.51H142v-31h8.27v3.9a10.28,10.28,0,0,1,8.84-4.62C165.5,152.19,170,157.17,170,164.18Z"/><path class="cls-1" d="M197.57,174.12l5.27,5.7c-2.6,2.87-7.65,4.79-12,4.79-8.73,0-15.53-6.77-15.53-16.3,0-9.35,6.52-16.12,15.07-16.12,9.18,0,14.57,7.37,14.57,19.06H183.86c1,3.35,3.51,5.63,7,5.63A10.27,10.27,0,0,0,197.57,174.12ZM184,165h13.09a6.18,6.18,0,0,0-6.29-5A7.12,7.12,0,0,0,184,165Z"/><path class="cls-1" d="M231.18,174.12l5.27,5.7c-2.61,2.87-7.65,4.79-12,4.79-8.73,0-15.53-6.77-15.53-16.3,0-9.35,6.52-16.12,15.08-16.12,9.18,0,14.56,7.37,14.56,19.06H217.46c1,3.35,3.52,5.63,7,5.63A10.29,10.29,0,0,0,231.18,174.12ZM217.58,165h13.09a6.19,6.19,0,0,0-6.29-5A7.1,7.1,0,0,0,217.58,165Z"/><path class="cls-1" d="M242,179.94l3.57-6.05a16.11,16.11,0,0,0,9.8,3.47c2.21,0,3.8-1,3.8-2.34,0-1.91-2.16-2.51-5.16-3.35-6-1.56-10.65-3.3-10.71-9.41-.06-5.87,4.53-10.07,11.45-10.07A20.51,20.51,0,0,1,266.31,156L263,162.26a15.92,15.92,0,0,0-8.21-2.76c-2,0-3.46.78-3.46,1.86,0,1.68,1.19,2.16,5.16,3.3,5,1.38,10.65,3.17,10.65,9.94,0,6.12-4.7,10-11.9,10A20.92,20.92,0,0,1,242,179.94Z"/></svg>