<svg id="Calque_1" data-name="Calque 1" xmlns="http://www.w3.org/2000/svg" viewBox="0 0 300 300"><defs><style>.cls-1{fill:#fff;}</style></defs><path class="cls-1" d="M80.15,109.23v22.48H77.74V121.47H65.2v10.24H62.79V109.23H65.2v9.82H77.74v-9.82Z"/><path class="cls-1" d="M98,121.4v10.31H95.63v-2.65A6.59,6.59,0,0,1,90,132.11c-3.38,0-5.86-2.06-5.86-5.4s2.85-5.63,6.29-5.63a16.53,16.53,0,0,1,5.2,1v-.63c0-2.29-.87-4.91-4.33-4.91A10.42,10.42,0,0,0,86.62,118l-.93-2a12.41,12.41,0,0,1,5.76-1.64C95.82,114.4,98,117.31,98,121.4Zm-2.32,5v-2.58a17.12,17.12,0,0,0-4.83-.69c-2.38,0-4.4,1.44-4.4,3.47s1.74,3.34,4,3.34C92.5,130,95,128.8,95.63,126.41Z"/><path class="cls-1" d="M118.41,123.24c0,5.2-3.15,8.87-7.36,8.87a6.43,6.43,0,0,1-5.82-3.57v8.8H102.9V114.79h2.33V118a6.43,6.43,0,0,1,5.82-3.57C115.26,114.4,118.41,118.07,118.41,123.24Zm-2.44,0c0-3.9-2.23-6.65-5.36-6.65s-5.38,2.75-5.38,6.65,2.22,6.67,5.38,6.67S116,127.13,116,123.24Z"/><path class="cls-1" d="M138.16,123.24c0,5.2-3.15,8.87-7.37,8.87a6.45,6.45,0,0,1-5.82-3.57v8.8h-2.32V114.79H125V118a6.45,6.45,0,0,1,5.82-3.57C135,114.4,138.16,118.07,138.16,123.24Zm-2.44,0c0-3.9-2.23-6.65-5.36-6.65s-5.39,2.75-5.39,6.65,2.23,6.67,5.39,6.67S135.72,127.13,135.72,123.24Z"/><path class="cls-1" d="M142,137.05l.56-2.1a3.93,3.93,0,0,0,1.89.43,2.37,2.37,0,0,0,2.32-1.51l.93-2.09-7-17h2.57l5.6,14.08,5.3-14.08h2.51l-7.31,18.82c-1.12,2.88-2.66,4-4.86,4A5.81,5.81,0,0,1,142,137.05Z"/><path class="cls-1" d="M160.63,109.23h2.42v22.48h-2.42Z"/><path class="cls-1" d="M181.47,121v10.76h-2.32V121.27c0-2.75-1.64-4.68-4-4.68-2.69,0-5,2-5,4.36v10.76h-2.32V114.79h2.32v2.72a6,6,0,0,1,5.26-3.11C179,114.4,181.47,117.12,181.47,121Z"/><path class="cls-1" d="M201,108.84v22.87h-2.32v-3.17a6.44,6.44,0,0,1-5.82,3.57c-4.21,0-7.37-3.67-7.37-8.87s3.16-8.84,7.37-8.84a6.44,6.44,0,0,1,5.82,3.57v-9.13Zm-2.32,14.4c0-3.9-2.23-6.65-5.39-6.65s-5.35,2.75-5.35,6.65,2.23,6.67,5.35,6.67S198.68,127.13,198.68,123.24Z"/><path class="cls-1" d="M218.18,127.89l1.42,1.6a9.29,9.29,0,0,1-6.43,2.62c-4.28,0-8.12-3.7-8.12-8.91,0-5,3.59-8.8,7.9-8.8,4.83,0,7.58,3.86,7.58,9.79H207.44c.34,3.3,2.54,5.72,5.69,5.72A7.32,7.32,0,0,0,218.18,127.89ZM207.47,122h10.77c-.31-3-2-5.4-5.2-5.4C210.19,116.59,207.9,118.72,207.47,122Z"/><path class="cls-1" d="M235.33,131.71l-4.8-6.74-4.83,6.74H223l6.19-8.64-5.95-8.28H226l4.58,6.39,4.55-6.39h2.73l-5.92,8.28,6.16,8.64Z"/><path class="cls-1" d="M241.27,115.58a7.38,7.38,0,0,1,4.32-6.85,6.66,6.66,0,0,1,5.48,0,7.6,7.6,0,0,1,2.24,1.59,7.42,7.42,0,0,1,1.52,2.36,7.58,7.58,0,0,1-1.52,8.12,7.2,7.2,0,0,1-2.24,1.57,6.87,6.87,0,0,1-5.48,0,7.12,7.12,0,0,1-2.25-1.57,7.72,7.72,0,0,1-1.51-2.34A7.5,7.5,0,0,1,241.27,115.58Zm1.11,0a6.4,6.4,0,0,0,.47,2.42,6.54,6.54,0,0,0,1.27,2,5.82,5.82,0,0,0,1.89,1.36,5.74,5.74,0,0,0,4.64,0,5.92,5.92,0,0,0,1.89-1.36,6.54,6.54,0,0,0,1.27-2,6.39,6.39,0,0,0,.46-2.42,6.48,6.48,0,0,0-.46-2.46,6.38,6.38,0,0,0-1.27-2,6.19,6.19,0,0,0-1.89-1.34,5.74,5.74,0,0,0-4.64,0,6.07,6.07,0,0,0-1.89,1.34,6.38,6.38,0,0,0-1.27,2A6.49,6.49,0,0,0,242.38,115.58Zm3.19-4.23h2.79a4.84,4.84,0,0,1,1.08.13,2.83,2.83,0,0,1,.95.43,2.16,2.16,0,0,1,.66.75,2.36,2.36,0,0,1,.25,1.15,2.2,2.2,0,0,1-.5,1.49,2.43,2.43,0,0,1-1.33.77l2.14,3.66h-1.73l-1.86-3.5h-1v3.5h-1.43Zm2.57,3.67a2.78,2.78,0,0,0,1.18-.25,1,1,0,0,0,.56-1,.9.9,0,0,0-.51-.92,2.64,2.64,0,0,0-1.07-.23H247V115Z"/><path class="cls-1" d="M7,161.84c0-10.66,8.78-19.61,19.07-19.61A18.73,18.73,0,0,1,40,148.58l-5.59,5.3a11,11,0,0,0-8.35-4.25c-6,0-11.13,5.63-11.13,12.21s5.12,12.26,11.13,12.26a11,11,0,0,0,8.35-4.25l5.59,5.3a18.91,18.91,0,0,1-13.94,6.35C15.78,181.5,7,172.5,7,161.84Z"/><path class="cls-1" d="M68.48,163.77v17.07H61.12V178a10.45,10.45,0,0,1-7.94,3.53c-5.75,0-10.19-3.64-10.19-9.11,0-5.64,5-9.5,11.23-9.5a18.54,18.54,0,0,1,6.9,1.43v-.55c0-3-1.78-5.69-6.22-5.69a14.82,14.82,0,0,0-7,2l-2.56-5.35a23.72,23.72,0,0,1,11.29-3.15C63.68,151.62,68.48,156.31,68.48,163.77Zm-7.36,8.06v-2.65a16.35,16.35,0,0,0-5.8-1.05c-2.77,0-5,1.72-5,4s1.93,3.75,4.54,3.75C57.83,175.92,60.6,174.49,61.12,171.83Z"/><path class="cls-1" d="M100.56,162.67v18.17H93.19V164.38c0-3.54-2.09-6-5.12-6a5.52,5.52,0,0,0-5.64,5.53l-.05-.17v17.07H74.75V152.28h7.63v3.59a9.45,9.45,0,0,1,8.15-4.25C96.38,151.62,100.56,156.2,100.56,162.67Z"/><path class="cls-1" d="M134.77,142.23v38.61h-7.63v-4.09a10.89,10.89,0,0,1-9.08,4.75c-7.21,0-12.43-6.19-12.43-15s5.22-14.91,12.43-14.91a10.89,10.89,0,0,1,9.08,4.75V142.23Zm-7.63,24.3c0-4.75-2.87-8.12-6.89-8.12-4.23,0-7.21,3.37-7.21,8.12s3,8.18,7.21,8.18C124.27,174.71,127.14,171.34,127.14,166.53Z"/><path class="cls-1" d="M141.09,143.94a4.14,4.14,0,1,1,4.18,4.42A4.3,4.3,0,0,1,141.09,143.94Zm.32,8.34H149v28.56h-7.62Z"/><path class="cls-1" d="M183.45,142.23v38.61h-7.62v-4.09a10.91,10.91,0,0,1-9.09,4.75c-7.21,0-12.43-6.19-12.43-15s5.22-14.91,12.43-14.91a10.91,10.91,0,0,1,9.09,4.75V142.23Zm-7.62,24.3c0-4.75-2.87-8.12-6.9-8.12-4.23,0-7.2,3.37-7.2,8.12s3,8.18,7.2,8.18C173,174.71,175.83,171.34,175.83,166.53Z"/><path class="cls-1" d="M214.07,163.77v17.07H206.7V178a10.44,10.44,0,0,1-7.94,3.53c-5.74,0-10.18-3.64-10.18-9.11,0-5.64,5-9.5,11.23-9.5a18.53,18.53,0,0,1,6.89,1.43v-.55c0-3-1.78-5.69-6.21-5.69a14.79,14.79,0,0,0-7,2l-2.56-5.35a23.65,23.65,0,0,1,11.28-3.15C209.26,151.62,214.07,156.31,214.07,163.77Zm-7.37,8.06v-2.65a16.31,16.31,0,0,0-5.8-1.05c-2.77,0-5,1.72-5,4s1.93,3.75,4.55,3.75C203.41,175.92,206.18,174.49,206.7,171.83Z"/><path class="cls-1" d="M236.53,179a9.54,9.54,0,0,1-6.22,2.48c-4.75,0-8.09-3.59-8.09-8.73v-14h-3.71v-6.52h3.71v-7.84h7.31v7.84h5.85v6.52h-5.85v12.7c0,1.88,1.15,3.21,2.56,3.21a3.81,3.81,0,0,0,2.61-.94Z"/><path class="cls-1" d="M260.24,171.83l4.86,5.25c-2.4,2.65-7.05,4.42-11,4.42-8,0-14.31-6.24-14.31-15,0-8.62,6-14.86,13.89-14.86,8.46,0,13.42,6.79,13.42,17.56H247.6c.89,3.1,3.24,5.2,6.43,5.2A9.44,9.44,0,0,0,260.24,171.83Zm-12.53-8.45h12.06a5.7,5.7,0,0,0-5.79-4.64A6.55,6.55,0,0,0,247.71,163.38Z"/><path class="cls-1" d="M270.22,177.19l3.29-5.58a14.8,14.8,0,0,0,9,3.21c2,0,3.5-.89,3.5-2.16,0-1.76-2-2.32-4.76-3.09-5.53-1.44-9.81-3-9.87-8.67-.05-5.42,4.18-9.28,10.55-9.28a18.91,18.91,0,0,1,10.66,3.53l-3.08,5.75a14.75,14.75,0,0,0-7.58-2.54c-1.88,0-3.18.71-3.18,1.71,0,1.55,1.09,2,4.75,3,4.65,1.27,9.82,2.92,9.82,9.17,0,5.63-4.34,9.22-11,9.22A19.29,19.29,0,0,1,270.22,177.19Z"/></svg>