<svg id="Calque_1" data-name="Calque 1" xmlns="http://www.w3.org/2000/svg" viewBox="0 0 300 300"><defs><style>.cls-1{fill:#fff;}</style></defs><path class="cls-1" d="M69,110.79V135H66.4V124H52.89v11h-2.6V110.79h2.6v10.58H66.4V110.79Z"/><path class="cls-1" d="M88.18,123.91V135h-2.5v-2.86a7.12,7.12,0,0,1-6.07,3.28c-3.64,0-6.31-2.22-6.31-5.82s3.07-6.06,6.77-6.06a17.93,17.93,0,0,1,5.61,1v-.67c0-2.47-.94-5.29-4.67-5.29a11.07,11.07,0,0,0-5,1.66l-1-2.15a13.33,13.33,0,0,1,6.2-1.77C85.88,116.36,88.18,119.5,88.18,123.91Zm-2.5,5.4v-2.79a18.62,18.62,0,0,0-5.21-.74c-2.57,0-4.73,1.55-4.73,3.74s1.86,3.59,4.3,3.59C82.31,133.11,85,131.88,85.68,129.31Z"/><path class="cls-1" d="M110.22,125.89c0,5.6-3.4,9.55-7.93,9.55A7,7,0,0,1,96,131.6v9.48h-2.5V116.79H96v3.42a7,7,0,0,1,6.28-3.85C106.82,116.36,110.22,120.31,110.22,125.89Zm-2.63,0c0-4.2-2.4-7.16-5.77-7.16s-5.81,3-5.81,7.16,2.41,7.19,5.81,7.19S107.59,130.08,107.59,125.89Z"/><path class="cls-1" d="M131.5,125.89c0,5.6-3.4,9.55-7.94,9.55a6.93,6.93,0,0,1-6.27-3.84v9.48h-2.5V116.79h2.5v3.42a6.94,6.94,0,0,1,6.27-3.85C128.1,116.36,131.5,120.31,131.5,125.89Zm-2.63,0c0-4.2-2.4-7.16-5.77-7.16s-5.81,3-5.81,7.16,2.4,7.19,5.81,7.19S128.87,130.08,128.87,125.89Z"/><path class="cls-1" d="M135.67,140.77l.6-2.26a4.3,4.3,0,0,0,2,.46,2.55,2.55,0,0,0,2.5-1.62l1-2.26-7.51-18.3h2.77l6,15.16,5.7-15.16h2.7l-7.87,20.27c-1.2,3.11-2.87,4.27-5.24,4.31A6.36,6.36,0,0,1,135.67,140.77Z"/><path class="cls-1" d="M155.71,110.79h2.6V135h-2.6Z"/><path class="cls-1" d="M178.16,123.42V135h-2.5V123.77c0-3-1.77-5-4.31-5-2.9,0-5.33,2.15-5.33,4.69V135h-2.5V116.79H166v2.92a6.46,6.46,0,0,1,5.67-3.35C175.49,116.36,178.16,119.29,178.16,123.42Z"/><path class="cls-1" d="M199.2,110.37V135h-2.5V131.6a6.93,6.93,0,0,1-6.27,3.84c-4.54,0-7.94-3.95-7.94-9.55s3.4-9.53,7.94-9.53a6.94,6.94,0,0,1,6.27,3.85v-9.84Zm-2.5,15.52c0-4.2-2.4-7.16-5.8-7.16s-5.77,3-5.77,7.16,2.4,7.19,5.77,7.19S196.7,130.08,196.7,125.89Z"/><path class="cls-1" d="M217.71,130.89l1.54,1.73a10,10,0,0,1-6.94,2.82c-4.6,0-8.74-4-8.74-9.59,0-5.43,3.87-9.49,8.51-9.49,5.2,0,8.17,4.17,8.17,10.55H206.14c.37,3.56,2.73,6.17,6.14,6.17A7.82,7.82,0,0,0,217.71,130.89Zm-11.54-6.34h11.61c-.33-3.28-2.17-5.82-5.6-5.82C209.11,118.73,206.64,121,206.17,124.55Z"/><path class="cls-1" d="M236.19,135,231,127.75l-5.2,7.27h-2.94l6.67-9.31-6.4-8.92h2.93l4.94,6.87,4.9-6.87h2.94l-6.37,8.92,6.63,9.31Z"/><path class="cls-1" d="M242.59,117.63a8.19,8.19,0,0,1,2.23-5.66,7.82,7.82,0,0,1,2.42-1.71,7.14,7.14,0,0,1,5.91,0,7.78,7.78,0,0,1,2.41,1.71,8,8,0,0,1,1.64,2.54,8.18,8.18,0,0,1,.6,3.12,8,8,0,0,1-.6,3.1,8.06,8.06,0,0,1-1.64,2.53,7.72,7.72,0,0,1-2.41,1.69,7.35,7.35,0,0,1-5.91,0,7.76,7.76,0,0,1-2.42-1.69,8.21,8.21,0,0,1-1.63-2.53A8,8,0,0,1,242.59,117.63Zm1.2,0a7,7,0,0,0,1.87,4.78,6.27,6.27,0,0,0,2,1.46,6.18,6.18,0,0,0,5,0,6.37,6.37,0,0,0,2-1.46,7.15,7.15,0,0,0,1.37-2.17,6.93,6.93,0,0,0,.5-2.61,7,7,0,0,0-1.87-4.8,6.47,6.47,0,0,0-2-1.44,6.18,6.18,0,0,0-5,0,6.36,6.36,0,0,0-2,1.44,6.8,6.8,0,0,0-1.37,2.16A7,7,0,0,0,243.79,117.63Zm3.44-4.55h3a4.91,4.91,0,0,1,1.16.14,3.16,3.16,0,0,1,1,.46,2.34,2.34,0,0,1,.72.81,2.56,2.56,0,0,1,.27,1.24,2.33,2.33,0,0,1-.54,1.6,2.6,2.6,0,0,1-1.43.83l2.3,4h-1.87l-2-3.77h-1.1v3.77h-1.53Zm2.76,4a3.21,3.21,0,0,0,1.27-.26,1.06,1.06,0,0,0,.6-1.08,1,1,0,0,0-.55-1,2.86,2.86,0,0,0-1.15-.24h-1.4V117Z"/><path class="cls-1" d="M68.38,186h-17l-2.45,6.35H39.76L55.33,152h9.16l15.56,40.37H70.83Zm-2.83-7.34-5.67-14.75-5.67,14.75Z"/><path class="cls-1" d="M101.39,190.39A10.13,10.13,0,0,1,94.78,193c-5.06,0-8.62-3.81-8.62-9.28V168.88H82.22V162h3.94v-8.34h7.78V162h6.23v6.93H93.94V182.4c0,2,1.23,3.41,2.73,3.41a4,4,0,0,0,2.77-1Z"/><path class="cls-1" d="M104,152h8.89L120,179.05,128.39,152h8.9l8.44,27.09L152.79,152h8.89l-11.56,40.37H141.9l-9-27.74-9,27.74h-8.28Z"/><path class="cls-1" d="M161.84,177.11A15.67,15.67,0,1,1,177.57,193,16,16,0,0,1,161.84,177.11Zm23.62,0c0-4.7-3.61-8.64-7.89-8.64s-7.95,3.94-7.95,8.64,3.61,8.7,7.95,8.7S185.46,181.81,185.46,177.11Z"/><path class="cls-1" d="M216.63,161.24v7.23c-6,0-9.83,3.65-9.83,9.35v14.51h-8.12V162h8.12v5.64A10.65,10.65,0,0,1,216.63,161.24Z"/><path class="cls-1" d="M238.08,175.41l11.06,16.92H239.8l-7.11-11.4-3.45,3.94v7.46h-8.11V151.26h8.11v23.79L239.91,162h9.34Z"/></svg>