<?xml version="1.0" encoding="UTF-8"?><svg id="Calque_1" xmlns="http://www.w3.org/2000/svg" xmlns:xlink="http://www.w3.org/1999/xlink" viewBox="0 0 512 153"><defs><clipPath id="clippath"><path d="M126.05061,60.89953l-11.3982,55.17251-10.34455,4.1339-11.55984-35.23995,33.30258-24.06646ZM71.9511,20.51322v.00046l32.23097,3.49281,11.5778,29.9498-33.02723,.01147-10.78155-33.45454Zm-5.46565-16.72729v.00122l-16.16939,50.18184-47.23905-.01915,5.05256-25.50436L66.48545,3.78593Zm445.51455,86.67377c0,1.41773-.35056,2.72806-1.05175,3.94172-.69756,1.21008-1.65984,2.16956-2.87975,2.87842-1.21625,.70886-2.52553,1.05971-3.91716,1.05971-1.39516,0-2.70086-.35085-3.92075-1.05614-1.22341-.70171-2.18213-1.66476-2.88684-2.87842-.70472-1.21366-1.05534-2.52041-1.05534-3.90591,0-1.40341,.35063-2.71732,1.05534-3.9453,.70472-1.23157,1.66344-2.19462,2.87974-2.89273,1.21626-.70528,2.52561-1.05257,3.92786-1.05257,1.39875,0,2.7045,.34729,3.91363,1.0454,1.20909,.69811,2.16781,1.66118,2.87616,2.88916,.70472,1.22798,1.05887,2.53473,1.05887,3.91666Zm-1.09106,.01074c0-1.20292-.30409-2.33066-.90866-3.39038-.60816-1.05972-1.43094-1.89389-2.47194-2.50254-1.03741-.60503-2.16069-.90931-3.3555-.90931-1.20913,0-2.34316,.30428-3.39844,.90931-1.05894,.60864-1.88528,1.44282-2.48981,2.50254-.60456,1.05971-.90506,2.19461-.90506,3.40828,0,1.21008,.3005,2.33782,.90506,3.3868,.60453,1.04898,1.43447,1.87599,2.49337,2.48103,1.06247,.60863,2.19288,.91293,3.39488,.91293,1.19122,0,2.31091-.30789,3.3555-.91293,1.04814-.6122,1.87094-1.44279,2.47553-2.48818,.60456-1.0454,.90506-2.17672,.90506-3.39754Zm-10.02722-4.58973h3.76687c.88003,0,1.51322,.08593,1.90316,.26494,.38637,.179,.70113,.46541,.94081,.86638,.24684,.40098,.36847,.86639,.36847,1.40341,0,.46184-.08944,.85923-.26109,1.19218-.13594,.24703-.42575,.51554-.87294,.80911,.41141,.20407,.68328,.4332,.82281,.70171,.1395,.26135,.2075,.71244,.2075,1.35687v1.02034c0,.47973,.11091,.88071,.32194,1.20292l.15028,.23987h-1.59909c-.10372-.37234-.17888-.82343-.21819-1.33539l-.07153-1.11342c-.02862-.40814-.08947-.69454-.19678-.86281-.10019-.16826-.24681-.28999-.44-.36159-.18959-.07518-.56525-.11098-1.13044-.11098h-2.26444v3.7842h-1.42734v-9.05773Zm1.42734,1.29959v2.68151h2.22153c.6725,0,1.13038-.0716,1.37009-.22554,.35416-.22197,.52941-.5943,.52941-1.12416,0-.46184-.12875-.79837-.37919-1.0096-.254-.21481-.72975-.32221-1.43094-.32221h-2.31091Zm-14.24466,4.97848h6.32997l-19.29406,44.21189h-6.30053l6.39013-14.6174-13.1395-29.5945h6.30422l10.00197,22.42845,9.70781-22.42845Zm-39.83525-.79696c2.43719,0,4.64581,.63005,6.59375,1.88189,1.98887,1.24404,3.456,2.98306,4.38103,5.18446,.93491,2.15604,1.38744,5.38504,1.38744,9.71718v16.8974h-5.86881v-15.73044c0-3.41922-.14819-5.74498-.42869-6.92062-.88284-3.68715-3.09578-5.44109-6.86106-5.44109-2.18206,0-4.12728,.71725-5.8725,2.16988-1.74091,1.44605-2.88137,3.24459-3.43731,5.41777-.35384,1.39892-.5395,4.14822-.5395,8.18951v12.31499h-5.89719v-32.88397h5.89719v3.89838c3.00816-3.11642,6.56944-4.69534,10.64566-4.69534Zm-27.91316,17.4097c0-3.30415-1.07284-6.05382-3.23359-8.3042-2.12969-2.23618-4.79794-3.34593-8.06609-3.34593-4.39322,0-7.61022,1.89027-9.77494,5.74763-1.03753,1.83029-1.55325,3.75475-1.55325,5.78867,0,2.03494,.51625,3.9702,1.55325,5.81713,1.03747,1.83017,2.41775,3.25531,4.14091,4.28312,1.75053,1.0161,3.61353,1.52143,5.60556,1.52143,2.01456,0,3.91953-.50722,5.72991-1.52748,1.80041-1.01459,3.17034-2.37695,4.12975-4.10523,.97847-1.73114,1.4685-3.68407,1.4685-5.87513Zm-.25594-16.61274h5.84031v32.88397h-5.84031v-3.83591c-3.21684,3.07891-7.05384,4.63284-11.47034,4.63284-4.73619,0-8.75997-1.72002-12.01069-5.13397-3.20578-3.34869-4.81659-7.42917-4.81659-12.19036,0-4.70878,1.64266-8.76313,4.91012-12.11341,3.28975-3.35254,7.31859-5.04013,12.03088-5.04013,4.51031,0,8.31231,1.60738,11.35662,4.78983v-3.99287Zm-38.57966,10.70426c-1.01531-1.82197-2.3885-3.22234-4.14112-4.22221-1.72944-1.01398-3.60984-1.51931-5.65881-1.51931-3.26922,0-5.94822,1.11062-8.09453,3.34594-2.14062,2.24764-3.20522,4.99846-3.20522,8.3042,0,4.59169,1.85559,7.87389,5.62672,9.98036,1.81044,1.02026,3.71541,1.52748,5.72991,1.52748,2.02553,0,3.90287-.5219,5.64525-1.56812,1.69584-1.03231,3.04937-2.45679,4.07281-4.29334,1.03772-1.83061,1.55322-3.74565,1.55322-5.76021,0-2.03649-.50756-3.96317-1.52822-5.79477Zm-9.48706-11.50122c4.71313,0,8.73337,1.68825,12.00241,5.04013,3.2855,3.34823,4.93856,7.4034,4.93856,12.11341,0,4.76118-1.61078,8.84166-4.81475,12.1885-3.25259,3.41581-7.27631,5.13583-12.0125,5.13583-4.40044,0-8.22784-1.55384-11.44194-4.63218v7.99517h-5.86878v-37.04389h5.86878v4.00859c3.06509-3.19247,6.85703-4.80555,11.32822-4.80555Zm-33.89459,0c4.91662,0,8.3775,2.28091,10.21394,6.74143,.85294,2.07304,1.26663,5.0894,1.26663,9.07439v17.86511h-5.98256v-17.86511c0-2.53354-.11034-4.29095-.32056-5.23786-.3675-1.7386-1.15913-2.99162-2.37528-3.80843-.99419-.65247-2.18603-.9815-3.59853-.9815-1.76972,0-3.35494,.51475-4.78997,1.55763-1.43959,1.02911-2.48992,2.39645-3.16056,4.11742-.66813,1.74195-1.01709,4.80272-1.01709,9.1344v13.08346h-5.86881v-16.81199c0-2.84743-.09278-4.77906-.26956-5.75217-.356-2.00186-1.17325-3.41689-2.44412-4.30238-.99109-.68293-2.17584-1.02637-3.58056-1.02637-1.71272,0-3.28106,.51476-4.72588,1.55243-1.39025,1.0134-2.4165,2.34005-3.09175,4.00361-.71972,1.73916-1.09319,4.50118-1.09319,8.25723v14.07964h-5.86881v-32.88397h5.86881v3.60082c2.72378-2.91634,5.95247-4.39778,9.65022-4.39778,3.4344,0,6.22075,1.18461,8.28925,3.54754,.62078,.71794,1.17759,1.61786,1.67463,2.69973,2.79575-4.1387,6.55956-6.24727,11.22378-6.24727Zm-50.03838,9.23964c-2.13194-2.29098-4.7315-3.42325-7.85947-3.42325-3.12903,0-5.73931,1.13318-7.89037,3.42592-2.146,2.28855-3.21028,4.99491-3.21028,8.16729,0,2.04127,.48147,3.94238,1.44634,5.71557,.99681,1.82019,2.3409,3.20877,4.04341,4.18238,1.71228,.97922,3.57709,1.46758,5.61091,1.46758,4.35675,0,7.51512-1.8345,9.60128-5.57149,1.00072-1.79214,1.49941-3.71833,1.49941-5.79405,0-3.17078-1.07256-5.87601-3.24122-8.16997Zm4.28112,20.2876c-3.27212,3.29483-7.33777,4.95062-12.14059,4.95062-4.802,0-8.87619-1.65517-12.169-4.95062-3.27097-3.29358-4.91419-7.37965-4.91419-12.20291,0-4.52512,1.50962-8.47335,4.51241-11.79906,3.31122-3.67529,7.52337-5.52526,12.57078-5.52526,5.02762,0,9.22953,1.83978,12.54166,5.49602,3.00369,3.32671,4.51313,7.2845,4.51313,11.8283,0,4.80378-1.64288,8.88884-4.9142,12.20291Zm-32.32654-2.47791c-3.29591,4.94769-8.42502,7.42853-15.27286,7.42853-4.95442,0-9.17575-1.56543-12.61762-4.68955-3.55708-3.23806-5.34717-7.35754-5.34717-12.29323,0-3.18641,.7938-6.14289,2.38055-8.85654,1.6047-2.71006,3.80686-4.83345,6.59281-6.35789,2.7795-1.52091,5.88595-2.28065,9.30427-2.28065,4.4117,0,8.20844,1.19304,11.35687,3.58134,1.42752,1.08166,2.63758,2.4555,3.62839,4.11492l.48283,.80856-4.69966,2.92368-.527-.69956c-2.54709-3.38104-5.9882-5.05475-10.41203-5.05475-3.4238,0-6.28234,1.07059-8.62039,3.21696-2.38122,2.20785-3.56097,4.95985-3.56097,8.31934,0,2.10729,.53331,4.07589,1.60319,5.91899,1.06961,1.82504,2.51795,3.23959,4.35794,4.25676,1.84561,1.02026,3.92334,1.5313,6.24866,1.5313,4.25712,0,7.69786-1.67782,10.39892-5.07457l.54481-.68511,4.69309,3.08887-.53463,.80261Zm-39.87841-26.25237h6.33002l-19.29411,44.21189h-6.30047l6.39006-14.6174-13.1395-29.5945h6.3042l10.00203,22.42845,9.70777-22.42845Zm-38.81139-.79696c4.91664,0,8.3775,2.28091,10.21394,6.74143,.85294,2.07304,1.26664,5.0894,1.26664,9.07439v17.86511h-5.98262v-17.86511c0-2.53354-.11033-4.29095-.3205-5.23786-.36752-1.73861-1.15913-2.99162-2.37522-3.80843-.99427-.65247-2.18609-.9815-3.59859-.9815-1.76973,0-3.35489,.51475-4.78992,1.55763-1.43964,1.02911-2.48995,2.39645-3.16062,4.11742-.66811,1.74195-1.01708,4.80272-1.01708,9.1344v13.08346h-5.86881v-16.81199c0-2.84743-.09277-4.77906-.26956-5.75217-.35594-2.00186-1.17325-3.41688-2.44414-4.30238-.99108-.68292-2.17584-1.02637-3.58056-1.02637-1.71264,0-3.28105,.51476-4.72586,1.55243-1.39019,1.0134-2.41648,2.34005-3.09177,4.0036-.71972,1.73916-1.09317,4.50119-1.09317,8.25724v14.07964h-5.86875v-32.88397h5.86875v3.60082c2.72378-2.91634,5.95252-4.39778,9.65022-4.39778,3.43441,0,6.22075,1.18461,8.28928,3.54754,.62081,.71794,1.17756,1.61786,1.67461,2.69973,2.79572-4.13869,6.55953-6.24726,11.22375-6.24726ZM473.47916,30.95352c-2.86613-1.33638-5.87391-2.00345-9.033-2.00345-5.20791,0-9.65606,1.66733-13.39075,5.01494-2.48038,2.21639-4.42628,5.4827-5.824,9.81345h38.77387c-1.81341-6.1312-5.31397-10.38454-10.52612-12.82494Zm-23.72934,34.88865c3.76131,4.15366,8.53591,6.21998,14.39028,6.21998,5.69016,0,10.48128-1.72293,14.41919-5.17534,1.78253-1.55689,3.74897-4.12022,5.87837-7.68312l.46522-.77845,7.66061,4.02826-.43155,.84414c-3.84445,7.52015-9.20656,12.62259-16.06416,15.26215-3.34669,1.30448-7.12006,1.95436-11.31556,1.95436-8.58237,0-15.73191-2.85501-21.39294-8.55562-5.62228-5.69703-8.43853-12.86651-8.43853-21.45244,0-7.25949,2.23119-13.74741,6.68191-19.42907,5.65869-7.24602,13.267-10.88532,22.74147-10.88532,9.74528,0,17.57381,3.72321,23.40278,11.1382,4.14981,5.27929,6.25675,11.81599,6.32666,19.57597l.00869,.96722h-49.86291c.30291,5.56815,2.14631,10.21276,5.53047,13.96909Zm-20.30012-2.62374c0,4.95488-1.71947,9.10295-5.14156,12.38349-3.41197,3.27091-7.62925,4.91223-12.59972,4.91223-7.12862,0-12.86675-2.75502-17.13091-8.23163l-.48766-.62633,5.73066-6.51725,.71925,.81402c3.46988,3.92689,7.08212,5.85391,10.86259,5.85391,2.46169,0,4.62494-.78869,6.52637-2.37962,1.89381-1.58961,2.8205-3.53418,2.8205-5.90249,0-2.38602-1.10272-4.48737-3.37937-6.36006-1.15372-.9622-3.52097-2.36365-7.06747-4.17177-4.20759-2.15767-7.30553-4.31216-9.29512-6.4811-2.74969-2.96914-4.13234-6.53768-4.13234-10.6581,0-4.58081,1.54963-8.35763,4.63725-11.26595,3.10619-2.92787,6.96406-4.39608,11.52259-4.39608,5.37694,0,10.73747,2.6113,16.07194,7.77441l.68875,.66658-5.9255,6.12787-.68838-.67046c-3.64456-3.54975-7.14475-5.29321-10.50394-5.29321-1.98047,0-3.71459,.64891-5.24194,1.96352-1.49069,1.28297-2.21744,2.83934-2.21744,4.73595,0,3.21285,3.30728,6.64996,10.09197,10.17554,4.43794,2.29012,7.68119,4.48891,9.73903,6.61939,2.927,3.0378,4.40044,6.69696,4.40044,10.92716Zm-47.71566-12.5591c0-5.88176-1.99803-10.92147-6.01772-15.17333-3.96791-4.26398-8.83237-6.38274-14.65416-6.38274-5.82278,0-10.70553,2.11968-14.70763,6.38541-3.98204,4.24648-5.96422,9.28727-5.96422,15.17066,0,3.78834,.89528,7.32355,2.68784,10.61791,1.85459,3.38652,4.36503,5.97995,7.54238,7.79699,3.18709,1.82262,6.66209,2.7327,10.44162,2.7327,8.08897,0,14.00881-3.43849,17.88584-10.38341,1.8585-3.32836,2.78603-6.91129,2.78603-10.76419Zm9.15959-.15324c0,8.41841-2.86931,15.55333-8.59362,21.35245-5.72522,5.76481-12.82325,8.65561-21.23784,8.65561-8.41375,0-15.52791-2.89014-21.28881-8.65561-5.72391-5.76358-8.59366-12.89948-8.59366-21.35245,0-7.92888,2.63831-14.82905,7.8985-20.6549,5.79425-6.43144,13.14422-9.65949,21.98397-9.65949,8.80497,0,16.13709,3.21034,21.93228,9.60768,5.26109,5.82681,7.89919,12.74409,7.89919,20.70671Zm-74.90575,.15324c0-5.88176-1.99803-10.92147-6.01775-15.17333-3.96794-4.26398-8.83241-6.38274-14.65409-6.38274-5.82287,0-10.70556,2.11968-14.70769,6.38541-3.982,4.24648-5.96422,9.28727-5.96422,15.17066,0,3.78834,.89528,7.32355,2.68778,10.61791,1.85469,3.38652,4.36513,5.97995,7.54244,7.79699,3.18709,1.82262,6.66209,2.7327,10.44169,2.7327,8.08894,0,14.00878-3.43849,17.88578-10.38341,1.8585-3.32836,2.78606-6.91129,2.78606-10.76419Zm9.15962-.15324c0,8.41841-2.86933,15.55333-8.59371,21.35245-5.72519,5.76481-12.82319,8.65561-21.23775,8.65561-8.41381,0-15.52794-2.89014-21.28888-8.65561-5.72394-5.76358-8.59366-12.89948-8.59366-21.35245,0-7.92888,2.63828-14.82905,7.89847-20.6549,5.79431-6.43144,13.14428-9.65949,21.98406-9.65949,8.80491,0,16.137,3.21034,21.93228,9.60768,5.26106,5.82681,7.89918,12.74409,7.89918,20.70671Zm-89.40508-30.31439c4.22805,0,8.04695,1.08943,11.42452,3.25995,3.4323,2.14687,5.96009,5.12517,7.56394,8.90619,1.62728,3.75266,2.4258,9.46852,2.4258,17.17821v29.5486h-9.05753v-27.45539c0-6.32489-.25202-10.54469-.73888-12.59105-1.66537-6.95537-5.94006-10.34343-13.04622-10.34343-4.09328,0-7.75414,1.34979-11.01936,4.06748-3.24578,2.69614-5.37948,6.06105-6.41767,10.11963-.65417,2.5532-.99025,7.53158-.99025,14.8738v21.32895h-9.05759V.17868h9.05759V29.83414c5.58039-6.4105,12.21438-9.64245,19.85566-9.64245Zm-38.21819,47.33645c-5.76394,8.6527-14.72302,12.98601-26.7628,12.98601-8.7017,0-16.09094-2.74017-22.12122-8.21381-6.22075-5.66287-9.34267-12.84726-9.34267-21.48793,0-5.58111,1.38823-10.75159,4.16384-15.49845,2.80863-4.74327,6.65866-8.45563,11.53648-11.12468,4.87133-2.66558,10.31787-3.99759,16.32472-3.99759,7.75255,0,14.40106,2.08916,19.9123,6.2697,2.48094,1.87991,4.58639,4.27038,6.31464,7.16477l.48277,.80855-7.20527,4.48251-.52706-.69959c-4.71414-6.25766-11.11239-9.3697-19.2835-9.3697-6.32828,0-11.63977,1.98933-15.97942,5.97315-4.42788,4.10552-6.63097,9.24467-6.63097,15.48078,0,3.91465,.99231,7.57759,2.9802,11.00211,1.98764,3.39138,4.685,6.02588,8.10517,7.91659,3.42573,1.89379,7.2793,2.8416,11.57606,2.8416,7.86887,0,14.2593-3.11619,19.24781-9.38957l.54483-.68516,7.19877,4.7381-.53469,.80261Zm-178.64897,1.95671l21.42549,15.48114-8.82404,26.90027-23.71827-11.32328,2.66396-31.05813H0l2.36462-11.93431,16.51063,11.93431Zm47.64615,34.54498l27.64538,20.22612-27.64538,11.04169v-6.69497l-20.318-9.7028,20.318-14.87003-.0017-.00014,.0017,.00135v-.00121Z" style="clip-rule:evenodd; fill:#fff;"/></clipPath></defs><g><path d="M126.05061,60.89953l-11.3982,55.17251-10.34455,4.1339-11.55984-35.23995,33.30258-24.06646ZM71.9511,20.51322v.00046l32.23097,3.49281,11.5778,29.9498-33.02723,.01147-10.78155-33.45454Zm-5.46565-16.72729v.00122l-16.16939,50.18184-47.23905-.01915,5.05256-25.50436L66.48545,3.78593Zm445.51455,86.67377c0,1.41773-.35056,2.72806-1.05175,3.94172-.69756,1.21008-1.65984,2.16956-2.87975,2.87842-1.21625,.70886-2.52553,1.05971-3.91716,1.05971-1.39516,0-2.70086-.35085-3.92075-1.05614-1.22341-.70171-2.18213-1.66476-2.88684-2.87842-.70472-1.21366-1.05534-2.52041-1.05534-3.90591,0-1.40341,.35063-2.71732,1.05534-3.9453,.70472-1.23157,1.66344-2.19462,2.87974-2.89273,1.21626-.70528,2.52561-1.05257,3.92786-1.05257,1.39875,0,2.7045,.34729,3.91363,1.0454,1.20909,.69811,2.16781,1.66118,2.87616,2.88916,.70472,1.22798,1.05887,2.53473,1.05887,3.91666Zm-1.09106,.01074c0-1.20292-.30409-2.33066-.90866-3.39038-.60816-1.05972-1.43094-1.89389-2.47194-2.50254-1.03741-.60503-2.16069-.90931-3.3555-.90931-1.20913,0-2.34316,.30428-3.39844,.90931-1.05894,.60864-1.88528,1.44282-2.48981,2.50254-.60456,1.05971-.90506,2.19461-.90506,3.40828,0,1.21008,.3005,2.33782,.90506,3.3868,.60453,1.04898,1.43447,1.87599,2.49337,2.48103,1.06247,.60863,2.19288,.91293,3.39488,.91293,1.19122,0,2.31091-.30789,3.3555-.91293,1.04814-.6122,1.87094-1.44279,2.47553-2.48818,.60456-1.0454,.90506-2.17672,.90506-3.39754Zm-10.02722-4.58973h3.76687c.88003,0,1.51322,.08593,1.90316,.26494,.38637,.179,.70113,.46541,.94081,.86638,.24684,.40098,.36847,.86639,.36847,1.40341,0,.46184-.08944,.85923-.26109,1.19218-.13594,.24703-.42575,.51554-.87294,.80911,.41141,.20407,.68328,.4332,.82281,.70171,.1395,.26135,.2075,.71244,.2075,1.35687v1.02034c0,.47973,.11091,.88071,.32194,1.20292l.15028,.23987h-1.59909c-.10372-.37234-.17888-.82343-.21819-1.33539l-.07153-1.11342c-.02862-.40814-.08947-.69454-.19678-.86281-.10019-.16826-.24681-.28999-.44-.36159-.18959-.07518-.56525-.11098-1.13044-.11098h-2.26444v3.7842h-1.42734v-9.05773Zm1.42734,1.29959v2.68151h2.22153c.6725,0,1.13038-.0716,1.37009-.22554,.35416-.22197,.52941-.5943,.52941-1.12416,0-.46184-.12875-.79837-.37919-1.0096-.254-.21481-.72975-.32221-1.43094-.32221h-2.31091Zm-14.24466,4.97848h6.32997l-19.29406,44.21189h-6.30053l6.39013-14.6174-13.1395-29.5945h6.30422l10.00197,22.42845,9.70781-22.42845Zm-39.83525-.79696c2.43719,0,4.64581,.63005,6.59375,1.88189,1.98887,1.24404,3.456,2.98306,4.38103,5.18446,.93491,2.15604,1.38744,5.38504,1.38744,9.71718v16.8974h-5.86881v-15.73044c0-3.41922-.14819-5.74498-.42869-6.92062-.88284-3.68715-3.09578-5.44109-6.86106-5.44109-2.18206,0-4.12728,.71725-5.8725,2.16988-1.74091,1.44605-2.88137,3.24459-3.43731,5.41777-.35384,1.39892-.5395,4.14822-.5395,8.18951v12.31499h-5.89719v-32.88397h5.89719v3.89838c3.00816-3.11642,6.56944-4.69534,10.64566-4.69534Zm-27.91316,17.4097c0-3.30415-1.07284-6.05382-3.23359-8.3042-2.12969-2.23618-4.79794-3.34593-8.06609-3.34593-4.39322,0-7.61022,1.89027-9.77494,5.74763-1.03753,1.83029-1.55325,3.75475-1.55325,5.78867,0,2.03494,.51625,3.9702,1.55325,5.81713,1.03747,1.83017,2.41775,3.25531,4.14091,4.28312,1.75053,1.0161,3.61353,1.52143,5.60556,1.52143,2.01456,0,3.91953-.50722,5.72991-1.52748,1.80041-1.01459,3.17034-2.37695,4.12975-4.10523,.97847-1.73114,1.4685-3.68407,1.4685-5.87513Zm-.25594-16.61274h5.84031v32.88397h-5.84031v-3.83591c-3.21684,3.07891-7.05384,4.63284-11.47034,4.63284-4.73619,0-8.75997-1.72002-12.01069-5.13397-3.20578-3.34869-4.81659-7.42917-4.81659-12.19036,0-4.70878,1.64266-8.76313,4.91012-12.11341,3.28975-3.35254,7.31859-5.04013,12.03088-5.04013,4.51031,0,8.31231,1.60738,11.35662,4.78983v-3.99287Zm-38.57966,10.70426c-1.01531-1.82197-2.3885-3.22234-4.14112-4.22221-1.72944-1.01398-3.60984-1.51931-5.65881-1.51931-3.26922,0-5.94822,1.11062-8.09453,3.34594-2.14062,2.24764-3.20522,4.99846-3.20522,8.3042,0,4.59169,1.85559,7.87389,5.62672,9.98036,1.81044,1.02026,3.71541,1.52748,5.72991,1.52748,2.02553,0,3.90287-.5219,5.64525-1.56812,1.69584-1.03231,3.04937-2.45679,4.07281-4.29334,1.03772-1.83061,1.55322-3.74565,1.55322-5.76021,0-2.03649-.50756-3.96317-1.52822-5.79477Zm-9.48706-11.50122c4.71313,0,8.73337,1.68825,12.00241,5.04013,3.2855,3.34823,4.93856,7.4034,4.93856,12.11341,0,4.76118-1.61078,8.84166-4.81475,12.1885-3.25259,3.41581-7.27631,5.13583-12.0125,5.13583-4.40044,0-8.22784-1.55384-11.44194-4.63218v7.99517h-5.86878v-37.04389h5.86878v4.00859c3.06509-3.19247,6.85703-4.80555,11.32822-4.80555Zm-33.89459,0c4.91662,0,8.3775,2.28091,10.21394,6.74143,.85294,2.07304,1.26663,5.0894,1.26663,9.07439v17.86511h-5.98256v-17.86511c0-2.53354-.11034-4.29095-.32056-5.23786-.3675-1.7386-1.15913-2.99162-2.37528-3.80843-.99419-.65247-2.18603-.9815-3.59853-.9815-1.76972,0-3.35494,.51475-4.78997,1.55763-1.43959,1.02911-2.48992,2.39645-3.16056,4.11742-.66813,1.74195-1.01709,4.80272-1.01709,9.1344v13.08346h-5.86881v-16.81199c0-2.84743-.09278-4.77906-.26956-5.75217-.356-2.00186-1.17325-3.41689-2.44412-4.30238-.99109-.68293-2.17584-1.02637-3.58056-1.02637-1.71272,0-3.28106,.51476-4.72588,1.55243-1.39025,1.0134-2.4165,2.34005-3.09175,4.00361-.71972,1.73916-1.09319,4.50118-1.09319,8.25723v14.07964h-5.86881v-32.88397h5.86881v3.60082c2.72378-2.91634,5.95247-4.39778,9.65022-4.39778,3.4344,0,6.22075,1.18461,8.28925,3.54754,.62078,.71794,1.17759,1.61786,1.67463,2.69973,2.79575-4.1387,6.55956-6.24727,11.22378-6.24727Zm-50.03838,9.23964c-2.13194-2.29098-4.7315-3.42325-7.85947-3.42325-3.12903,0-5.73931,1.13318-7.89037,3.42592-2.146,2.28855-3.21028,4.99491-3.21028,8.16729,0,2.04127,.48147,3.94238,1.44634,5.71557,.99681,1.82019,2.3409,3.20877,4.04341,4.18238,1.71228,.97922,3.57709,1.46758,5.61091,1.46758,4.35675,0,7.51512-1.8345,9.60128-5.57149,1.00072-1.79214,1.49941-3.71833,1.49941-5.79405,0-3.17078-1.07256-5.87601-3.24122-8.16997Zm4.28112,20.2876c-3.27212,3.29483-7.33777,4.95062-12.14059,4.95062-4.802,0-8.87619-1.65517-12.169-4.95062-3.27097-3.29358-4.91419-7.37965-4.91419-12.20291,0-4.52512,1.50962-8.47335,4.51241-11.79906,3.31122-3.67529,7.52337-5.52526,12.57078-5.52526,5.02762,0,9.22953,1.83978,12.54166,5.49602,3.00369,3.32671,4.51313,7.2845,4.51313,11.8283,0,4.80378-1.64288,8.88884-4.9142,12.20291Zm-32.32654-2.47791c-3.29591,4.94769-8.42502,7.42853-15.27286,7.42853-4.95442,0-9.17575-1.56543-12.61762-4.68955-3.55708-3.23806-5.34717-7.35754-5.34717-12.29323,0-3.18641,.7938-6.14289,2.38055-8.85654,1.6047-2.71006,3.80686-4.83345,6.59281-6.35789,2.7795-1.52091,5.88595-2.28065,9.30427-2.28065,4.4117,0,8.20844,1.19304,11.35687,3.58134,1.42752,1.08166,2.63758,2.4555,3.62839,4.11492l.48283,.80856-4.69966,2.92368-.527-.69956c-2.54709-3.38104-5.9882-5.05475-10.41203-5.05475-3.4238,0-6.28234,1.07059-8.62039,3.21696-2.38122,2.20785-3.56097,4.95985-3.56097,8.31934,0,2.10729,.53331,4.07589,1.60319,5.91899,1.06961,1.82504,2.51795,3.23959,4.35794,4.25676,1.84561,1.02026,3.92334,1.5313,6.24866,1.5313,4.25712,0,7.69786-1.67782,10.39892-5.07457l.54481-.68511,4.69309,3.08887-.53463,.80261Zm-39.87841-26.25237h6.33002l-19.29411,44.21189h-6.30047l6.39006-14.6174-13.1395-29.5945h6.3042l10.00203,22.42845,9.70777-22.42845Zm-38.81139-.79696c4.91664,0,8.3775,2.28091,10.21394,6.74143,.85294,2.07304,1.26664,5.0894,1.26664,9.07439v17.86511h-5.98262v-17.86511c0-2.53354-.11033-4.29095-.3205-5.23786-.36752-1.73861-1.15913-2.99162-2.37522-3.80843-.99427-.65247-2.18609-.9815-3.59859-.9815-1.76973,0-3.35489,.51475-4.78992,1.55763-1.43964,1.02911-2.48995,2.39645-3.16062,4.11742-.66811,1.74195-1.01708,4.80272-1.01708,9.1344v13.08346h-5.86881v-16.81199c0-2.84743-.09277-4.77906-.26956-5.75217-.35594-2.00186-1.17325-3.41688-2.44414-4.30238-.99108-.68292-2.17584-1.02637-3.58056-1.02637-1.71264,0-3.28105,.51476-4.72586,1.55243-1.39019,1.0134-2.41648,2.34005-3.09177,4.0036-.71972,1.73916-1.09317,4.50119-1.09317,8.25724v14.07964h-5.86875v-32.88397h5.86875v3.60082c2.72378-2.91634,5.95252-4.39778,9.65022-4.39778,3.43441,0,6.22075,1.18461,8.28928,3.54754,.62081,.71794,1.17756,1.61786,1.67461,2.69973,2.79572-4.13869,6.55953-6.24726,11.22375-6.24726ZM473.47916,30.95352c-2.86613-1.33638-5.87391-2.00345-9.033-2.00345-5.20791,0-9.65606,1.66733-13.39075,5.01494-2.48038,2.21639-4.42628,5.4827-5.824,9.81345h38.77387c-1.81341-6.1312-5.31397-10.38454-10.52612-12.82494Zm-23.72934,34.88865c3.76131,4.15366,8.53591,6.21998,14.39028,6.21998,5.69016,0,10.48128-1.72293,14.41919-5.17534,1.78253-1.55689,3.74897-4.12022,5.87837-7.68312l.46522-.77845,7.66061,4.02826-.43155,.84414c-3.84445,7.52015-9.20656,12.62259-16.06416,15.26215-3.34669,1.30448-7.12006,1.95436-11.31556,1.95436-8.58237,0-15.73191-2.85501-21.39294-8.55562-5.62228-5.69703-8.43853-12.86651-8.43853-21.45244,0-7.25949,2.23119-13.74741,6.68191-19.42907,5.65869-7.24602,13.267-10.88532,22.74147-10.88532,9.74528,0,17.57381,3.72321,23.40278,11.1382,4.14981,5.27929,6.25675,11.81599,6.32666,19.57597l.00869,.96722h-49.86291c.30291,5.56815,2.14631,10.21276,5.53047,13.96909Zm-20.30012-2.62374c0,4.95488-1.71947,9.10295-5.14156,12.38349-3.41197,3.27091-7.62925,4.91223-12.59972,4.91223-7.12862,0-12.86675-2.75502-17.13091-8.23163l-.48766-.62633,5.73066-6.51725,.71925,.81402c3.46988,3.92689,7.08212,5.85391,10.86259,5.85391,2.46169,0,4.62494-.78869,6.52637-2.37962,1.89381-1.58961,2.8205-3.53418,2.8205-5.90249,0-2.38602-1.10272-4.48737-3.37937-6.36006-1.15372-.9622-3.52097-2.36365-7.06747-4.17177-4.20759-2.15767-7.30553-4.31216-9.29512-6.4811-2.74969-2.96914-4.13234-6.53768-4.13234-10.6581,0-4.58081,1.54963-8.35763,4.63725-11.26595,3.10619-2.92787,6.96406-4.39608,11.52259-4.39608,5.37694,0,10.73747,2.6113,16.07194,7.77441l.68875,.66658-5.9255,6.12787-.68838-.67046c-3.64456-3.54975-7.14475-5.29321-10.50394-5.29321-1.98047,0-3.71459,.64891-5.24194,1.96352-1.49069,1.28297-2.21744,2.83934-2.21744,4.73595,0,3.21285,3.30728,6.64996,10.09197,10.17554,4.43794,2.29012,7.68119,4.48891,9.73903,6.61939,2.927,3.0378,4.40044,6.69696,4.40044,10.92716Zm-47.71566-12.5591c0-5.88176-1.99803-10.92147-6.01772-15.17333-3.96791-4.26398-8.83237-6.38274-14.65416-6.38274-5.82278,0-10.70553,2.11968-14.70763,6.38541-3.98204,4.24648-5.96422,9.28727-5.96422,15.17066,0,3.78834,.89528,7.32355,2.68784,10.61791,1.85459,3.38652,4.36503,5.97995,7.54238,7.79699,3.18709,1.82262,6.66209,2.7327,10.44162,2.7327,8.08897,0,14.00881-3.43849,17.88584-10.38341,1.8585-3.32836,2.78603-6.91129,2.78603-10.76419Zm9.15959-.15324c0,8.41841-2.86931,15.55333-8.59362,21.35245-5.72522,5.76481-12.82325,8.65561-21.23784,8.65561-8.41375,0-15.52791-2.89014-21.28881-8.65561-5.72391-5.76358-8.59366-12.89948-8.59366-21.35245,0-7.92888,2.63831-14.82905,7.8985-20.6549,5.79425-6.43144,13.14422-9.65949,21.98397-9.65949,8.80497,0,16.13709,3.21034,21.93228,9.60768,5.26109,5.82681,7.89919,12.74409,7.89919,20.70671Zm-74.90575,.15324c0-5.88176-1.99803-10.92147-6.01775-15.17333-3.96794-4.26398-8.83241-6.38274-14.65409-6.38274-5.82287,0-10.70556,2.11968-14.70769,6.38541-3.982,4.24648-5.96422,9.28727-5.96422,15.17066,0,3.78834,.89528,7.32355,2.68778,10.61791,1.85469,3.38652,4.36513,5.97995,7.54244,7.79699,3.18709,1.82262,6.66209,2.7327,10.44169,2.7327,8.08894,0,14.00878-3.43849,17.88578-10.38341,1.8585-3.32836,2.78606-6.91129,2.78606-10.76419Zm9.15962-.15324c0,8.41841-2.86933,15.55333-8.59371,21.35245-5.72519,5.76481-12.82319,8.65561-21.23775,8.65561-8.41381,0-15.52794-2.89014-21.28888-8.65561-5.72394-5.76358-8.59366-12.89948-8.59366-21.35245,0-7.92888,2.63828-14.82905,7.89847-20.6549,5.79431-6.43144,13.14428-9.65949,21.98406-9.65949,8.80491,0,16.137,3.21034,21.93228,9.60768,5.26106,5.82681,7.89918,12.74409,7.89918,20.70671Zm-89.40508-30.31439c4.22805,0,8.04695,1.08943,11.42452,3.25995,3.4323,2.14687,5.96009,5.12517,7.56394,8.90619,1.62728,3.75266,2.4258,9.46852,2.4258,17.17821v29.5486h-9.05753v-27.45539c0-6.32489-.25202-10.54469-.73888-12.59105-1.66537-6.95537-5.94006-10.34343-13.04622-10.34343-4.09328,0-7.75414,1.34979-11.01936,4.06748-3.24578,2.69614-5.37948,6.06105-6.41767,10.11963-.65417,2.5532-.99025,7.53158-.99025,14.8738v21.32895h-9.05759V.17868h9.05759V29.83414c5.58039-6.4105,12.21438-9.64245,19.85566-9.64245Zm-38.21819,47.33645c-5.76394,8.6527-14.72302,12.98601-26.7628,12.98601-8.7017,0-16.09094-2.74017-22.12122-8.21381-6.22075-5.66287-9.34267-12.84726-9.34267-21.48793,0-5.58111,1.38823-10.75159,4.16384-15.49845,2.80863-4.74327,6.65866-8.45563,11.53648-11.12468,4.87133-2.66558,10.31787-3.99759,16.32472-3.99759,7.75255,0,14.40106,2.08916,19.9123,6.2697,2.48094,1.87991,4.58639,4.27038,6.31464,7.16477l.48277,.80855-7.20527,4.48251-.52706-.69959c-4.71414-6.25766-11.11239-9.3697-19.2835-9.3697-6.32828,0-11.63977,1.98933-15.97942,5.97315-4.42788,4.10552-6.63097,9.24467-6.63097,15.48078,0,3.91465,.99231,7.57759,2.9802,11.00211,1.98764,3.39138,4.685,6.02588,8.10517,7.91659,3.42573,1.89379,7.2793,2.8416,11.57606,2.8416,7.86887,0,14.2593-3.11619,19.24781-9.38957l.54483-.68516,7.19877,4.7381-.53469,.80261Zm-178.64897,1.95671l21.42549,15.48114-8.82404,26.90027-23.71827-11.32328,2.66396-31.05813H0l2.36462-11.93431,16.51063,11.93431Zm47.64615,34.54498l27.64538,20.22612-27.64538,11.04169v-6.69497l-20.318-9.7028,20.318-14.87003-.0017-.00014,.0017,.00135v-.00121Z" style="fill:#fff; fill-rule:evenodd;"/><g style="clip-path:url(#clippath);"><rect x="-2.56" y="-2.38132" width="517.12" height="141.312" style="fill:#fff;"/></g></g><g><path d="M230.31127,146.80794h-10.4666l-1.88564,4.07848h-2.32288l8.28037-17.9612h2.32288l8.28037,17.9612h-2.32288l-1.88564-4.07848Zm-.87449-1.93489l-4.34517-9.43771-4.37245,9.43771h8.71762Z" style="fill:#fff;"/><path d="M236.12999,137.3697h2.2956l4.70032,11.21582,4.61848-11.21582h2.2956l-5.93022,13.51672h-1.96773l-6.01205-13.51672Z" style="fill:#fff;"/><path d="M252.49741,133.60479c0-.67957,.60118-1.28075,1.36656-1.28075,.73783,0,1.33901,.60118,1.33901,1.28075,0,.70605-.60118,1.30723-1.33901,1.30723-.76538,0-1.36656-.60118-1.36656-1.30723Zm.32787,3.76491h2.04983v13.51672h-2.04983v-13.51672Z" style="fill:#fff;"/><path d="M258.15325,149.18723l1.06623-1.43806c1.61232,1.12397,3.22465,1.69919,4.78242,1.69919,1.85809,0,3.11501-.83635,3.11501-2.11763,0-1.46402-1.63934-1.93436-3.55252-2.45768-3.41586-.94123-4.72786-1.90841-4.72786-3.84278,0-2.45768,2.13193-3.97413,4.94661-3.97413,1.74898,0,3.55252,.57522,5.05573,1.51645l-.98413,1.51645c-1.42111-.86284-2.81468-1.28128-4.07159-1.28128-1.58531,0-2.89678,.67957-2.89678,1.9868,0,1.1764,1.03816,1.54241,3.66163,2.35334,2.26859,.67957,4.61875,1.41158,4.61875,3.97361,0,2.48364-2.24105,4.07848-5.16484,4.07848-1.96773,0-4.15422-.70552-5.84865-2.01276Z" style="fill:#fff;"/><path d="M279.71305,144.11509c0-3.84331,3.3613-7.05895,7.32379-7.05895,1.91265,0,3.68917,.75796,5.02818,1.9868l-1.42111,1.33372c-.92905-.96771-2.2135-1.56889-3.60707-1.56889-2.81468,0-5.16484,2.4312-5.16484,5.30732,0,2.90208,2.35016,5.33327,5.16484,5.33327,1.42111,0,2.73258-.62713,3.68917-1.64675l1.42111,1.33319c-1.33901,1.28128-3.14255,2.06519-5.11028,2.06519-3.96248,0-7.32379-3.2416-7.32379-7.0849Z" style="fill:#fff;"/><path d="M306.10982,147.82756l1.25744,1.28128c-1.2299,1.28075-3.71671,2.09115-5.68445,2.09115-3.77127,0-7.15959-2.95398-7.15959-7.11086,0-4.02657,3.17009-7.03299,6.96837-7.03299,4.26334,0,6.69559,3.08481,6.69559,7.81691h-11.56011c.30085,2.64095,2.24105,4.57531,5.02871,4.57531,1.66688,0,3.57953-.70552,4.45402-1.6208Zm-9.45519-4.70614h9.51027c-.27331-2.4312-1.77652-4.31365-4.5912-4.31365-2.51436,0-4.53665,1.69919-4.91907,4.31365Z" style="fill:#fff;"/><path d="M319.25312,137.05614v1.75163c-3.19763,0-5.46569,1.88246-5.46569,4.52288v7.55578h-2.0493v-13.51672h2.0493v2.64095c.84695-1.80407,2.86924-2.95451,5.46569-2.95451Z" style="fill:#fff;"/><path d="M329.3079,150.33715c-.73783,.54927-1.66688,.86284-2.62347,.86284-2.02176,0-3.44287-1.43753-3.44287-3.45082v-8.62784h-2.2135v-1.75163h2.2135v-3.71248h2.0493v3.71248h3.47095v1.75163h-3.47095v8.62784c0,.99367,.71082,1.69919,1.53022,1.69919,.62872,0,1.17534-.23517,1.47567-.54874l1.01115,1.43753Z" style="fill:#fff;"/><path d="M331.84821,133.60479c0-.67957,.60118-1.28075,1.36656-1.28075,.73783,0,1.33901,.60118,1.33901,1.28075,0,.70605-.60118,1.30723-1.33901,1.30723-.76538,0-1.36656-.60118-1.36656-1.30723Zm.3284,3.76491h2.0493v13.51672h-2.0493v-13.51672Z" style="fill:#fff;"/><path d="M341.5497,137.3697h3.47042v1.75163h-3.47042v11.76509h-2.04983v-11.76509h-2.2135v-1.75163h2.2135v-1.85597c0-2.01329,1.42111-3.45135,3.4434-3.45135,.95659,0,1.88564,.3141,2.62347,.86284l-1.01115,1.43806c-.30085-.31357-.84748-.54927-1.47567-.54927-.81993,0-1.53022,.70605-1.53022,1.69972v1.85597Z" style="fill:#fff;"/><path d="M347.58744,133.60479c0-.67957,.60118-1.28075,1.36656-1.28075,.73783,0,1.33901,.60118,1.33901,1.28075,0,.70605-.60118,1.30723-1.33901,1.30723-.76538,0-1.36656-.60118-1.36656-1.30723Zm.3284,3.76491h2.0493v13.51672h-2.0493v-13.51672Z" style="fill:#fff;"/><path d="M364.9125,147.82756l1.25744,1.28128c-1.2299,1.28075-3.71671,2.09115-5.68445,2.09115-3.77127,0-7.15959-2.95398-7.15959-7.11086,0-4.02657,3.16956-7.03299,6.96837-7.03299,4.26334,0,6.69506,3.08481,6.69506,7.81691h-11.55958c.30085,2.64095,2.24105,4.57531,5.02818,4.57531,1.66741,0,3.58006-.70552,4.45455-1.6208Zm-9.45519-4.70614h9.50974c-.27331-2.4312-1.77599-4.31365-4.59067-4.31365-2.51436,0-4.53665,1.69919-4.91907,4.31365Zm4.23579-7.29412h-1.58531l3.30675-3.76491,2.15895,.47088-3.88038,3.29403Z" style="fill:#fff;"/><path d="M369.50212,149.18723l1.0657-1.43806c1.61232,1.12397,3.22465,1.69919,4.78242,1.69919,1.85809,0,3.11501-.83635,3.11501-2.11763,0-1.46402-1.63934-1.93436-3.55252-2.45768-3.41586-.94123-4.72733-1.90841-4.72733-3.84278,0-2.45768,2.1314-3.97413,4.94608-3.97413,1.74898,0,3.55252,.57522,5.05573,1.51645l-.9836,1.51645c-1.42111-.86284-2.81521-1.28128-4.07212-1.28128-1.58478,0-2.89678,.67957-2.89678,1.9868,0,1.1764,1.03869,1.54241,3.66216,2.35334,2.26806,.67957,4.61822,1.41158,4.61822,3.97361,0,2.48364-2.24105,4.07848-5.16484,4.07848-1.96773,0-4.15369-.70552-5.84812-2.01276Z" style="fill:#fff;"/><path d="M392.7288,131.4612h1.63934v21.36011h-1.63934v-21.36011Z" style="fill:#fff;"/><path d="M411.17306,136.40252v3.58165h9.42818v3.4773h-9.42818v3.94765h10.41178v3.4773h-14.45636v-17.9612h14.45636v3.4773h-10.41178Z" style="fill:#fff;"/><path d="M423.41433,148.21952l2.32262-2.64042c1.77652,1.46402,3.79881,2.35281,6.17598,2.35281,2.02229,0,3.06098-.88879,3.06098-2.01276,0-1.28128-1.09324-1.67324-3.96248-2.3009-3.96248-.86284-6.77769-1.93489-6.77769-5.41167,0-3.32052,2.84222-5.59493,6.94136-5.59493,3.06098,0,5.43815,.91474,7.35133,2.48364l-2.10439,2.77125c-1.66688-1.28128-3.55252-1.9868-5.35605-1.9868-1.72144,0-2.76012,.86284-2.76012,1.93436,0,1.30723,1.12026,1.72567,4.01704,2.35334,4.04458,.86284,6.72261,2.01276,6.72261,5.33327,0,3.42486-2.70504,5.69928-7.29624,5.69928-3.25219,0-6.14897-1.04557-8.33493-2.98047Z" style="fill:#fff;"/><path d="M450.54894,140.79457h8.30792v7.399c-1.88564,1.88246-4.78242,3.00642-7.5971,3.00642-5.43815,0-10.0569-4.26122-10.0569-9.30741,0-5.04566,4.61875-9.28093,10.0569-9.28093,2.81468,0,5.71146,1.12397,7.5971,3.00642l-2.92432,2.51012c-1.12026-1.22884-2.95134-2.01329-4.67277-2.01329-3.19763,0-5.90267,2.6669-5.90267,5.77767,0,3.13725,2.70504,5.80415,5.90267,5.80415,1.28446,0,2.59593-.41844,3.66163-1.15045v-2.74476h-4.37245v-3.00695Z" style="fill:#fff;"/></g></svg>