<svg width="106" height="32" viewBox="0 0 106 32" fill="none" xmlns="http://www.w3.org/2000/svg">
<g clip-path="url(#clip0_774_1293)">
<mask id="mask0_774_1293" style="mask-type:luminance" maskUnits="userSpaceOnUse" x="0" y="0" width="15" height="15">
<path d="M1.29677 12.0585L4.69177 14.537H0.810547L1.29677 12.0585ZM14.4816 0.892822V0.893077L11.1568 11.3147L1.44326 11.3107L2.48219 6.01405L14.4816 0.892822Z" fill="white"/>
</mask>
<g mask="url(#mask0_774_1293)">
<path d="M15.0111 0.358032H0.28125V15.0719H15.0111V0.358032Z" fill="#2A4F92"/>
</g>
<mask id="mask1_774_1293" style="mask-type:luminance" maskUnits="userSpaceOnUse" x="15" y="4" width="10" height="8">
<path d="M15.6055 4.3667V4.3668L22.233 5.09219L24.6136 11.3121L17.8224 11.3145L15.6055 4.3667Z" fill="white"/>
</mask>
<g mask="url(#mask1_774_1293)">
<path d="M25.1432 3.83191H15.0762V11.8493H25.1432V3.83191Z" fill="#F03F1E"/>
</g>
<mask id="mask2_774_1293" style="mask-type:luminance" maskUnits="userSpaceOnUse" x="2" y="14" width="13" height="13">
<path d="M14.4884 21.7112L14.4881 21.7112L14.4896 21.7124V26.815L10.3105 24.7994L14.4884 21.7112ZM2.95305 14.537H4.69117L9.09679 17.7521L7.28234 23.3386L2.40527 20.9871L2.95305 14.537Z" fill="white"/>
</mask>
<g mask="url(#mask2_774_1293)">
<path d="M15.0192 14.0022H1.87598V27.3499H15.0192V14.0022Z" fill="#EE1796"/>
</g>
<mask id="mask3_774_1293" style="mask-type:luminance" maskUnits="userSpaceOnUse" x="14" y="12" width="13" height="17">
<path d="M14.4883 21.7112L20.1729 25.9117L14.4883 28.2048V21.7112ZM26.729 12.754L24.3852 24.2121L22.2581 25.0706L19.8811 17.7521L26.729 12.754Z" fill="white"/>
</mask>
<g mask="url(#mask3_774_1293)">
<path d="M27.2585 12.2192H13.959V28.7397H27.2585V12.2192Z" fill="#3BA63C"/>
</g>
<path fill-rule="evenodd" clip-rule="evenodd" d="M46.0561 19.2957H47.3562L43.3935 28.46H42.0995L43.4119 25.4301L40.7133 19.2957H42.008L44.0623 23.9447L46.0561 19.2957ZM38.0849 19.1305C39.0947 19.1305 39.8055 19.6033 40.1827 20.5278C40.3578 20.9575 40.4428 21.5828 40.4428 22.4088V26.1119H39.2141V22.4088C39.2141 21.8836 39.1914 21.5194 39.1482 21.3231C39.0728 20.9627 38.9102 20.703 38.6604 20.5337C38.4562 20.3984 38.2114 20.3302 37.9213 20.3302C37.5579 20.3302 37.2323 20.4369 36.9376 20.6531C36.6419 20.8664 36.4262 21.1498 36.2884 21.5065C36.1512 21.8676 36.0795 22.5021 36.0795 23.3999V26.1119H34.8742V22.6271C34.8742 22.0369 34.8551 21.6365 34.8188 21.4348C34.7457 21.0198 34.5778 20.7265 34.3168 20.543C34.1133 20.4014 33.8699 20.3302 33.5814 20.3302C33.2297 20.3302 32.9076 20.4369 32.6108 20.652C32.3253 20.8621 32.1145 21.1371 31.9758 21.4819C31.828 21.8424 31.7513 22.4149 31.7513 23.1935V26.1119H30.546V19.2957H31.7513V20.042C32.3107 19.4375 32.9739 19.1305 33.7333 19.1305C34.4387 19.1305 35.0109 19.376 35.4358 19.8658C35.5633 20.0146 35.6776 20.2012 35.7797 20.4254C36.3539 19.5675 37.1269 19.1305 38.0849 19.1305ZM98.0883 6.60892C97.4997 6.33191 96.8819 6.19364 96.2331 6.19364C95.1635 6.19364 94.2499 6.53925 93.4829 7.23315C92.9734 7.69256 92.5738 8.36961 92.2867 9.2673H100.25C99.8778 7.99642 99.1588 7.11476 98.0883 6.60892ZM93.2147 13.8407C93.9872 14.7017 94.9679 15.13 96.1702 15.13C97.3389 15.13 98.3229 14.7729 99.1317 14.0572C99.4978 13.7345 99.9017 13.2032 100.339 12.4647L100.435 12.3033L102.008 13.1383L101.919 13.3133C101.13 14.8721 100.028 15.9297 98.62 16.4768C97.9327 16.7472 97.1577 16.8819 96.296 16.8819C94.5333 16.8819 93.0649 16.2901 91.9022 15.1085C90.7475 13.9276 90.1691 12.4415 90.1691 10.6618C90.1691 9.15705 90.6273 7.81223 91.5414 6.63452C92.7036 5.13255 94.2663 4.37819 96.2122 4.37819C98.2137 4.37819 99.8215 5.14995 101.019 6.68693C101.871 7.78124 102.304 9.13618 102.318 10.7447L102.32 10.9452H92.0789C92.1411 12.0993 92.5197 13.0621 93.2147 13.8407ZM89.0454 13.2968C89.0454 14.3239 88.6923 15.1837 87.9895 15.8637C87.2887 16.5417 86.4225 16.8819 85.4017 16.8819C83.9376 16.8819 82.7591 16.3109 81.8833 15.1757L81.7831 15.0458L82.9601 13.6949L83.1078 13.8637C83.8205 14.6776 84.5624 15.0771 85.3388 15.0771C85.8444 15.0771 86.2887 14.9136 86.6792 14.5838C87.0682 14.2543 87.2585 13.8513 87.2585 13.3603C87.2585 12.8658 87.032 12.4302 86.5644 12.042C86.3275 11.8426 85.8413 11.5521 85.1129 11.1773C84.2487 10.73 83.6125 10.2835 83.2038 9.83388C82.6391 9.21843 82.3551 8.47873 82.3551 7.62464C82.3551 6.67511 82.6734 5.89225 83.3075 5.28941C83.9455 4.68252 84.7378 4.37819 85.6741 4.37819C86.7784 4.37819 87.8794 4.91947 88.975 5.98968L89.1165 6.12785L87.8995 7.39805L87.7581 7.25907C87.0095 6.52327 86.2907 6.16188 85.6007 6.16188C85.194 6.16188 84.8378 6.2964 84.5241 6.56888C84.218 6.83482 84.0687 7.15744 84.0687 7.55056C84.0687 8.21652 84.748 8.92898 86.1414 9.65977C87.0529 10.1345 87.719 10.5902 88.1417 11.0318C88.7428 11.6615 89.0454 12.42 89.0454 13.2968ZM79.2455 10.6936C79.2455 9.47439 78.8351 8.42976 78.0095 7.54842C77.1946 6.66457 76.1955 6.22538 74.9998 6.22538C73.8039 6.22538 72.8011 6.66476 71.9791 7.54898C71.1613 8.42918 70.7542 9.47405 70.7542 10.6936C70.7542 11.4788 70.938 12.2116 71.3062 12.8945C71.6871 13.5964 72.2027 14.134 72.8553 14.5106C73.5098 14.8884 74.2236 15.0771 74.9998 15.0771C76.6611 15.0771 77.877 14.3644 78.6733 12.9248C79.055 12.2349 79.2455 11.4922 79.2455 10.6936ZM81.1267 10.6618C81.1267 12.4068 80.5374 13.8857 79.3617 15.0878C78.1858 16.2827 76.728 16.8819 74.9998 16.8819C73.2718 16.8819 71.8106 16.2829 70.6274 15.0878C69.4519 13.8931 68.8625 12.4139 68.8625 10.6618C68.8625 9.01829 69.4043 7.58801 70.4847 6.38042C71.6747 5.0473 73.1843 4.37819 74.9998 4.37819C76.8082 4.37819 78.3141 5.04362 79.5043 6.36968C80.5849 7.57748 81.1267 9.0113 81.1267 10.6618ZM65.7423 10.6936C65.7423 9.47439 65.3319 8.42976 64.5064 7.54842C63.6914 6.66457 62.6923 6.22538 61.4967 6.22538C60.3007 6.22538 59.2979 6.66476 58.476 7.54898C57.6581 8.42918 57.251 9.47405 57.251 10.6936C57.251 11.4788 57.4349 12.2116 57.803 12.8945C58.184 13.5964 58.6996 14.134 59.3521 14.5106C60.0067 14.8884 60.7204 15.0771 61.4967 15.0771C63.158 15.0771 64.3738 14.3644 65.1701 12.9248C65.5518 12.2349 65.7423 11.4922 65.7423 10.6936ZM67.6235 10.6618C67.6235 12.4068 67.0342 13.8857 65.8585 15.0878C64.6827 16.2827 63.2249 16.8819 61.4967 16.8819C59.7686 16.8819 58.3075 16.2829 57.1243 15.0878C55.9487 13.8931 55.3593 12.4139 55.3593 10.6618C55.3593 9.01829 55.9012 7.58801 56.9815 6.38042C58.1716 5.0473 59.6811 4.37819 61.4967 4.37819C63.305 4.37819 64.8109 5.04362 66.0012 6.36968C67.0817 7.57748 67.6235 9.0113 67.6235 10.6618ZM49.2613 4.37818C50.1296 4.37818 50.914 4.604 51.6077 5.05392C52.3126 5.49892 52.8318 6.11628 53.1612 6.9C53.4954 7.67787 53.6594 8.86265 53.6594 10.4607V16.5856H51.7991V10.8946C51.7991 9.58359 51.7474 8.7089 51.6474 8.28473C51.3053 6.843 50.4274 6.14072 48.9679 6.14072C48.1272 6.14072 47.3753 6.42051 46.7047 6.98384C46.0381 7.5427 45.5999 8.24018 45.3866 9.08146C45.2523 9.61068 45.1832 10.6426 45.1832 12.1645V16.5856H43.323V0.229858H45.1832V6.37688C46.3294 5.04811 47.6919 4.37818 49.2613 4.37818ZM41.4119 14.1902C40.2281 15.9837 38.388 16.8819 35.9153 16.8819C34.1281 16.8819 32.6105 16.3139 31.372 15.1794C30.0943 14.0055 29.4531 12.5164 29.4531 10.7253C29.4531 9.56844 29.7382 8.4967 30.3083 7.51275C30.8852 6.52956 31.6759 5.76007 32.6777 5.20681C33.6782 4.65429 34.7968 4.37818 36.0305 4.37818C37.6228 4.37818 38.9883 4.81123 40.1202 5.67778C40.6297 6.06745 41.0621 6.56295 41.4171 7.16291L41.5162 7.33051L40.0364 8.25965L39.9282 8.11464C38.96 6.81754 37.6459 6.17247 35.9677 6.17247C34.6679 6.17247 33.577 6.58482 32.6858 7.41059C31.7763 8.26159 31.3239 9.32684 31.3239 10.6195C31.3239 11.4309 31.5277 12.1902 31.9359 12.9C32.3442 13.603 32.8982 14.1491 33.6006 14.541C34.3042 14.9335 35.0957 15.13 35.9781 15.13C37.5943 15.13 38.9067 14.4841 39.9313 13.1837L40.0432 13.0417L41.5217 14.0238L41.4119 14.1902Z" fill="white"/>
<mask id="mask4_774_1293" style="mask-type:luminance" maskUnits="userSpaceOnUse" x="29" y="0" width="74" height="29">
<path d="M46.0561 19.2957H47.3562L43.3935 28.46H42.0995L43.4119 25.4301L40.7133 19.2957H42.008L44.0623 23.9447L46.0561 19.2957ZM38.0849 19.1305C39.0947 19.1305 39.8055 19.6033 40.1827 20.5278C40.3578 20.9575 40.4428 21.5828 40.4428 22.4088V26.1119H39.2141V22.4088C39.2141 21.8836 39.1914 21.5194 39.1482 21.3231C39.0728 20.9627 38.9102 20.703 38.6604 20.5337C38.4562 20.3984 38.2114 20.3302 37.9213 20.3302C37.5579 20.3302 37.2323 20.4369 36.9376 20.6531C36.6419 20.8664 36.4262 21.1498 36.2884 21.5065C36.1512 21.8676 36.0795 22.5021 36.0795 23.3999V26.1119H34.8742V22.6271C34.8742 22.0369 34.8551 21.6365 34.8188 21.4348C34.7457 21.0198 34.5778 20.7265 34.3168 20.543C34.1133 20.4014 33.8699 20.3302 33.5814 20.3302C33.2297 20.3302 32.9076 20.4369 32.6108 20.652C32.3253 20.8621 32.1145 21.1371 31.9758 21.4819C31.828 21.8424 31.7513 22.4149 31.7513 23.1935V26.1119H30.546V19.2957H31.7513V20.042C32.3107 19.4375 32.9739 19.1305 33.7333 19.1305C34.4387 19.1305 35.0109 19.376 35.4358 19.8658C35.5633 20.0146 35.6776 20.2012 35.7797 20.4254C36.3539 19.5675 37.1269 19.1305 38.0849 19.1305ZM98.0883 6.60892C97.4997 6.33191 96.8819 6.19364 96.2331 6.19364C95.1635 6.19364 94.2499 6.53925 93.4829 7.23315C92.9734 7.69256 92.5738 8.36961 92.2867 9.2673H100.25C99.8778 7.99642 99.1588 7.11476 98.0883 6.60892ZM93.2147 13.8407C93.9872 14.7017 94.9679 15.13 96.1702 15.13C97.3389 15.13 98.3229 14.7729 99.1317 14.0572C99.4978 13.7345 99.9017 13.2032 100.339 12.4647L100.435 12.3033L102.008 13.1383L101.919 13.3133C101.13 14.8721 100.028 15.9297 98.62 16.4768C97.9327 16.7472 97.1577 16.8819 96.296 16.8819C94.5333 16.8819 93.0649 16.2901 91.9022 15.1085C90.7475 13.9276 90.1691 12.4415 90.1691 10.6618C90.1691 9.15705 90.6273 7.81223 91.5414 6.63452C92.7036 5.13255 94.2663 4.37819 96.2122 4.37819C98.2137 4.37819 99.8215 5.14995 101.019 6.68693C101.871 7.78124 102.304 9.13618 102.318 10.7447L102.32 10.9452H92.0789C92.1411 12.0993 92.5197 13.0621 93.2147 13.8407ZM89.0454 13.2968C89.0454 14.3239 88.6923 15.1837 87.9895 15.8637C87.2887 16.5417 86.4225 16.8819 85.4017 16.8819C83.9376 16.8819 82.7591 16.3109 81.8833 15.1757L81.7831 15.0458L82.9601 13.6949L83.1078 13.8637C83.8205 14.6776 84.5624 15.0771 85.3388 15.0771C85.8444 15.0771 86.2887 14.9136 86.6792 14.5838C87.0682 14.2543 87.2585 13.8513 87.2585 13.3603C87.2585 12.8658 87.032 12.4302 86.5644 12.042C86.3275 11.8426 85.8413 11.5521 85.1129 11.1773C84.2487 10.73 83.6125 10.2835 83.2038 9.83388C82.6391 9.21843 82.3551 8.47873 82.3551 7.62464C82.3551 6.67511 82.6734 5.89225 83.3075 5.28941C83.9455 4.68252 84.7378 4.37819 85.6741 4.37819C86.7784 4.37819 87.8794 4.91947 88.975 5.98968L89.1165 6.12785L87.8995 7.39805L87.7581 7.25907C87.0095 6.52327 86.2907 6.16188 85.6007 6.16188C85.194 6.16188 84.8378 6.2964 84.5241 6.56888C84.218 6.83482 84.0687 7.15744 84.0687 7.55056C84.0687 8.21652 84.748 8.92898 86.1414 9.65977C87.0529 10.1345 87.719 10.5902 88.1417 11.0318C88.7428 11.6615 89.0454 12.42 89.0454 13.2968ZM79.2455 10.6936C79.2455 9.47439 78.8351 8.42976 78.0095 7.54842C77.1946 6.66457 76.1955 6.22538 74.9998 6.22538C73.8039 6.22538 72.8011 6.66476 71.9791 7.54898C71.1613 8.42918 70.7542 9.47405 70.7542 10.6936C70.7542 11.4788 70.938 12.2116 71.3062 12.8945C71.6871 13.5964 72.2027 14.134 72.8553 14.5106C73.5098 14.8884 74.2236 15.0771 74.9998 15.0771C76.6611 15.0771 77.877 14.3644 78.6733 12.9248C79.055 12.2349 79.2455 11.4922 79.2455 10.6936ZM81.1267 10.6618C81.1267 12.4068 80.5374 13.8857 79.3617 15.0878C78.1858 16.2827 76.728 16.8819 74.9998 16.8819C73.2718 16.8819 71.8106 16.2829 70.6274 15.0878C69.4519 13.8931 68.8625 12.4139 68.8625 10.6618C68.8625 9.01829 69.4043 7.58801 70.4847 6.38042C71.6747 5.0473 73.1843 4.37819 74.9998 4.37819C76.8082 4.37819 78.3141 5.04362 79.5043 6.36968C80.5849 7.57748 81.1267 9.0113 81.1267 10.6618ZM65.7423 10.6936C65.7423 9.47439 65.3319 8.42976 64.5064 7.54842C63.6914 6.66457 62.6923 6.22538 61.4967 6.22538C60.3007 6.22538 59.2979 6.66476 58.476 7.54898C57.6581 8.42918 57.251 9.47405 57.251 10.6936C57.251 11.4788 57.4349 12.2116 57.803 12.8945C58.184 13.5964 58.6996 14.134 59.3521 14.5106C60.0067 14.8884 60.7204 15.0771 61.4967 15.0771C63.158 15.0771 64.3738 14.3644 65.1701 12.9248C65.5518 12.2349 65.7423 11.4922 65.7423 10.6936ZM67.6235 10.6618C67.6235 12.4068 67.0342 13.8857 65.8585 15.0878C64.6827 16.2827 63.2249 16.8819 61.4967 16.8819C59.7686 16.8819 58.3075 16.2829 57.1243 15.0878C55.9487 13.8931 55.3593 12.4139 55.3593 10.6618C55.3593 9.01829 55.9012 7.58801 56.9815 6.38042C58.1716 5.0473 59.6811 4.37819 61.4967 4.37819C63.305 4.37819 64.8109 5.04362 66.0012 6.36968C67.0817 7.57748 67.6235 9.0113 67.6235 10.6618ZM49.2613 4.37818C50.1296 4.37818 50.914 4.604 51.6077 5.05392C52.3126 5.49892 52.8318 6.11628 53.1612 6.9C53.4954 7.67787 53.6594 8.86265 53.6594 10.4607V16.5856H51.7991V10.8946C51.7991 9.58359 51.7474 8.7089 51.6474 8.28473C51.3053 6.843 50.4274 6.14072 48.9679 6.14072C48.1272 6.14072 47.3753 6.42051 46.7047 6.98384C46.0381 7.5427 45.5999 8.24018 45.3866 9.08146C45.2523 9.61068 45.1832 10.6426 45.1832 12.1645V16.5856H43.323V0.229858H45.1832V6.37688C46.3294 5.04811 47.6919 4.37818 49.2613 4.37818ZM41.4119 14.1902C40.2281 15.9837 38.388 16.8819 35.9153 16.8819C34.1281 16.8819 32.6105 16.3139 31.372 15.1794C30.0943 14.0055 29.4531 12.5164 29.4531 10.7253C29.4531 9.56844 29.7382 8.4967 30.3083 7.51275C30.8852 6.52956 31.6759 5.76007 32.6777 5.20681C33.6782 4.65429 34.7968 4.37818 36.0305 4.37818C37.6228 4.37818 38.9883 4.81123 40.1202 5.67778C40.6297 6.06745 41.0621 6.56295 41.4171 7.16291L41.5162 7.33051L40.0364 8.25965L39.9282 8.11464C38.96 6.81754 37.6459 6.17247 35.9677 6.17247C34.6679 6.17247 33.577 6.58482 32.6858 7.41059C31.7763 8.26159 31.3239 9.32684 31.3239 10.6195C31.3239 11.4309 31.5277 12.1902 31.9359 12.9C32.3442 13.603 32.8982 14.1491 33.6006 14.541C34.3042 14.9335 35.0957 15.13 35.9781 15.13C37.5943 15.13 38.9067 14.4841 39.9313 13.1837L40.0432 13.0417L41.5217 14.0238L41.4119 14.1902Z" fill="white"/>
</mask>
<g mask="url(#mask4_774_1293)">
<path d="M102.874 -0.329712H28.8994V29.0195H102.874V-0.329712Z" fill="white"/>
</g>
<path d="M106 18.9434C106 19.2373 105.928 19.5089 105.784 19.7605C105.641 20.0113 105.443 20.2102 105.192 20.3571C104.943 20.5041 104.674 20.5768 104.388 20.5768C104.101 20.5768 103.833 20.5041 103.583 20.3579C103.331 20.2124 103.134 20.0128 102.99 19.7612C102.845 19.5097 102.773 19.2388 102.773 18.9516C102.773 18.6607 102.845 18.3884 102.99 18.1338C103.134 17.8785 103.331 17.6789 103.581 17.5342C103.831 17.388 104.1 17.316 104.388 17.316C104.675 17.316 104.943 17.388 105.192 17.5327C105.44 17.6774 105.637 17.8771 105.782 18.1316C105.927 18.3861 106 18.657 106 18.9434ZM105.776 18.9457C105.776 18.6963 105.713 18.4626 105.589 18.2429C105.464 18.0232 105.295 17.8503 105.081 17.7242C104.868 17.5988 104.638 17.5357 104.392 17.5357C104.144 17.5357 103.911 17.5988 103.694 17.7242C103.477 17.8503 103.307 18.0232 103.183 18.2429C103.059 18.4626 102.997 18.6978 102.997 18.9494C102.997 19.2002 103.059 19.434 103.183 19.6514C103.307 19.8688 103.478 20.0403 103.695 20.1657C103.913 20.2918 104.145 20.3549 104.392 20.3549C104.637 20.3549 104.867 20.2911 105.081 20.1657C105.297 20.0388 105.466 19.8666 105.59 19.6499C105.714 19.4332 105.776 19.1987 105.776 18.9457ZM103.716 17.9943H104.49C104.671 17.9943 104.801 18.0121 104.881 18.0492C104.96 18.0863 105.025 18.1457 105.074 18.2288C105.125 18.3119 105.15 18.4084 105.15 18.5197C105.15 18.6154 105.131 18.6978 105.096 18.7668C105.068 18.818 105.009 18.8737 104.917 18.9345C105.001 18.9768 105.057 19.0243 105.086 19.08C105.114 19.1342 105.128 19.2277 105.128 19.3612V19.5727C105.128 19.6722 105.151 19.7553 105.195 19.8221L105.225 19.8718H104.897C104.876 19.7946 104.86 19.7011 104.852 19.595L104.837 19.3642C104.832 19.2796 104.819 19.2203 104.797 19.1854C104.776 19.1505 104.746 19.1253 104.707 19.1104C104.668 19.0948 104.591 19.0874 104.475 19.0874H104.009V19.8718H103.716L103.716 17.9943ZM104.009 18.2637V18.8195H104.466C104.604 18.8195 104.698 18.8047 104.747 18.7728C104.82 18.7268 104.856 18.6496 104.856 18.5398C104.856 18.444 104.829 18.3743 104.778 18.3305C104.726 18.286 104.628 18.2637 104.484 18.2637H104.009ZM101.084 19.2956H102.384L98.4212 28.46H97.1272L98.4396 25.43L95.741 19.2956H97.0358L99.09 23.9447L101.084 19.2956ZM92.9024 19.1304C93.4029 19.1304 93.8565 19.261 94.2566 19.5205C94.6651 19.7784 94.9664 20.1389 95.1564 20.5952C95.3484 21.0421 95.4413 21.7114 95.4413 22.6094V26.1119H94.236V22.8513C94.236 22.1425 94.2056 21.6604 94.1479 21.4167C93.9666 20.6525 93.5121 20.2889 92.7388 20.2889C92.2906 20.2889 91.8911 20.4376 91.5327 20.7387C91.1751 21.0384 90.9409 21.4112 90.8267 21.8617C90.754 22.1516 90.7159 22.7215 90.7159 23.5592V26.1119H89.5047V19.2956H90.7159V20.1037C91.3338 19.4577 92.0652 19.1304 92.9024 19.1304ZM87.1695 22.7392C87.1695 22.0543 86.9491 21.4843 86.5054 21.0179C86.0679 20.5543 85.5199 20.3243 84.8487 20.3243C83.9464 20.3243 83.2857 20.7161 82.8411 21.5157C82.628 21.8951 82.5221 22.294 82.5221 22.7156C82.5221 23.1374 82.6281 23.5385 82.8411 23.9213C83.0542 24.3007 83.3377 24.5961 83.6916 24.8092C84.0511 25.0198 84.4337 25.1245 84.8429 25.1245C85.2566 25.1245 85.6479 25.0194 86.0197 24.8079C86.3895 24.5976 86.6708 24.3152 86.8679 23.957C87.0688 23.5981 87.1695 23.1933 87.1695 22.7392ZM87.1169 19.2956H88.3164V26.1119H87.1169V25.3168C86.4562 25.955 85.6682 26.2771 84.7611 26.2771C83.7883 26.2771 82.9619 25.9205 82.2943 25.2129C81.6359 24.5188 81.3051 23.673 81.3051 22.6861C81.3051 21.71 81.6424 20.8696 82.3135 20.1752C82.9892 19.4803 83.8166 19.1304 84.7844 19.1304C85.7108 19.1304 86.4917 19.4636 87.1169 20.1233V19.2956ZM79.1933 21.5144C78.9848 21.1368 78.7027 20.8465 78.3428 20.6393C77.9876 20.4291 77.6014 20.3243 77.1806 20.3243C76.5091 20.3243 75.9589 20.5545 75.5181 21.0179C75.0784 21.4838 74.8598 22.054 74.8598 22.7392C74.8598 23.691 75.2409 24.3713 76.0154 24.8079C76.3873 25.0194 76.7785 25.1246 77.1922 25.1246C77.6082 25.1246 77.9938 25.0164 78.3517 24.7995C78.7 24.5855 78.978 24.2903 79.1882 23.9096C79.4013 23.5301 79.5072 23.1332 79.5072 22.7156C79.5072 22.2935 79.4029 21.8941 79.1933 21.5144ZM77.2448 19.1304C78.2128 19.1304 79.0385 19.4804 79.7099 20.1752C80.3847 20.8692 80.7242 21.7098 80.7242 22.6861C80.7242 23.673 80.3934 24.5188 79.7353 25.2125C79.0673 25.9206 78.2409 26.2771 77.2682 26.2771C76.3644 26.2771 75.5783 25.955 74.9182 25.3169V26.8555H73.7129V19.2956H74.9182V20.1265C75.5477 19.4648 76.3265 19.1304 77.2448 19.1304ZM70.2834 19.1304C71.2932 19.1304 72.004 19.6032 72.3812 20.5278C72.5564 20.9575 72.6413 21.5828 72.6413 22.4088V26.1119H71.4126V22.4088C71.4126 21.8836 71.39 21.5193 71.3468 21.3231C71.2713 20.9627 71.1087 20.703 70.859 20.5336C70.6548 20.3984 70.41 20.3302 70.1199 20.3302C69.7564 20.3302 69.4308 20.4369 69.1361 20.6531C68.8404 20.8664 68.6247 21.1498 68.487 21.5065C68.3498 21.8676 68.2781 22.502 68.2781 23.3999V26.1119H67.0727V22.6271C67.0727 22.0369 67.0537 21.6365 67.0174 21.4348C66.9443 21.0198 66.7764 20.7265 66.5154 20.5429C66.3118 20.4014 66.0685 20.3302 65.78 20.3302C65.4283 20.3302 65.1061 20.4369 64.8094 20.652C64.5239 20.862 64.3131 21.137 64.1744 21.4819C64.0266 21.8424 63.9499 22.4149 63.9499 23.1934V26.1119H62.7445V19.2956H63.9499V20.042C64.5093 19.4375 65.1724 19.1304 65.9319 19.1304C66.6372 19.1304 67.2095 19.376 67.6343 19.8658C67.7618 20.0146 67.8762 20.2011 67.9783 20.4254C68.5525 19.5675 69.3255 19.1304 70.2834 19.1304ZM60.0064 21.0457C59.5685 20.5708 59.0346 20.3361 58.3922 20.3361C57.7496 20.3361 57.2135 20.571 56.7717 21.0462C56.3309 21.5206 56.1123 22.0816 56.1123 22.7391C56.1123 23.1623 56.2112 23.5563 56.4094 23.9239C56.6141 24.3012 56.8902 24.589 57.2398 24.7908C57.5915 24.9938 57.9745 25.095 58.3922 25.095C59.287 25.095 59.9357 24.7147 60.3642 23.9401C60.5697 23.5687 60.6721 23.1694 60.6721 22.7391C60.6721 22.0819 60.4518 21.5211 60.0064 21.0457ZM60.8857 25.2509C60.2136 25.9339 59.3786 26.2771 58.3922 26.2771C57.406 26.2771 56.5692 25.934 55.8929 25.2509C55.2211 24.5682 54.8836 23.7212 54.8836 22.7215C54.8836 21.7835 55.1937 20.9651 55.8104 20.2757C56.4905 19.5139 57.3556 19.1304 58.3922 19.1304C59.4248 19.1304 60.2878 19.5118 60.9681 20.2697C61.585 20.9592 61.895 21.7796 61.895 22.7215C61.895 23.7172 61.5576 24.564 60.8857 25.2509ZM54.2464 24.7373C53.5695 25.7628 52.516 26.2771 51.1096 26.2771C50.092 26.2771 49.225 25.9526 48.5181 25.305C47.7876 24.6338 47.4199 23.7799 47.4199 22.7569C47.4199 22.0964 47.5829 21.4835 47.9088 20.9211C48.2384 20.3593 48.6907 19.9192 49.2629 19.6032C49.8337 19.2879 50.4718 19.1304 51.1738 19.1304C52.0799 19.1304 52.8597 19.3777 53.5063 19.8728C53.7995 20.097 54.048 20.3818 54.2515 20.7257L54.3507 20.8933L53.3855 21.4994L53.2772 21.3544C52.7541 20.6535 52.0474 20.3066 51.1388 20.3066C50.4356 20.3066 49.8485 20.5285 49.3683 20.9734C48.8792 21.4311 48.6369 22.0015 48.6369 22.6979C48.6369 23.1347 48.7465 23.5427 48.9662 23.9248C49.1859 24.3031 49.4834 24.5963 49.8613 24.8071C50.2403 25.0186 50.667 25.1245 51.1446 25.1245C52.019 25.1245 52.7256 24.7767 53.2804 24.0727L53.3923 23.9307L54.3562 24.5709L54.2464 24.7373Z" fill="white"/>
<path d="M49.3756 30.5842H47.3323L46.9642 31.3885H46.5107L48.1272 27.8463H48.5807L50.1971 31.3885H49.7437L49.3756 30.5842ZM49.2049 30.2026L48.3566 28.3413L47.503 30.2026H49.2049Z" fill="white"/>
<path d="M50.5117 28.7229H50.9599L51.8774 30.9348L52.779 28.7229H53.2272L52.0695 31.3886H51.6854L50.5117 28.7229Z" fill="white"/>
<path d="M53.707 27.9804C53.707 27.8463 53.8244 27.7278 53.9738 27.7278C54.1178 27.7278 54.2352 27.8463 54.2352 27.9804C54.2352 28.1196 54.1178 28.2382 53.9738 28.2382C53.8244 28.2382 53.707 28.1196 53.707 27.9804ZM53.771 28.7229H54.1712V31.3886H53.771V28.7229Z" fill="white"/>
<path d="M54.8105 31.0534L55.0187 30.7698C55.3334 30.9915 55.6482 31.1049 55.9523 31.1049C56.315 31.1049 56.5604 30.94 56.5604 30.6873C56.5604 30.3986 56.2404 30.3058 55.8669 30.2026C55.2001 30.017 54.9439 29.8263 54.9439 29.4448C54.9439 28.9601 55.3601 28.661 55.9096 28.661C56.251 28.661 56.6031 28.7745 56.8966 28.9601L56.7044 29.2591C56.427 29.089 56.155 29.0065 55.9096 29.0065C55.6001 29.0065 55.3441 29.1405 55.3441 29.3983C55.3441 29.6303 55.5468 29.7025 56.0589 29.8624C56.5018 29.9964 56.9606 30.1408 56.9606 30.646C56.9606 31.1359 56.5231 31.4504 55.9523 31.4504C55.5682 31.4504 55.1413 31.3112 54.8105 31.0534Z" fill="white"/>
<path d="M59.0195 30.0531C59.0195 29.2952 59.6757 28.661 60.4493 28.661C60.8226 28.661 61.1694 28.8105 61.4308 29.0528L61.1534 29.3159C60.9721 29.125 60.7213 29.0065 60.4493 29.0065C59.8998 29.0065 59.441 29.4859 59.441 30.0531C59.441 30.6255 59.8998 31.1049 60.4493 31.1049C60.7267 31.1049 60.9827 30.9813 61.1694 30.7802L61.4469 31.0431C61.1855 31.2958 60.8334 31.4504 60.4493 31.4504C59.6757 31.4504 59.0195 30.8111 59.0195 30.0531Z" fill="white"/>
<path d="M64.173 30.7853L64.4185 31.038C64.1784 31.2906 63.6929 31.4504 63.3088 31.4504C62.5726 31.4504 61.9111 30.8678 61.9111 30.048C61.9111 29.2539 62.53 28.661 63.2715 28.661C64.1037 28.661 64.5786 29.2694 64.5786 30.2026H62.3218C62.3806 30.7235 62.7593 31.1049 63.3035 31.1049C63.6289 31.1049 64.0023 30.9658 64.173 30.7853ZM62.3272 29.8572H64.1838C64.1304 29.3777 63.837 29.0065 63.2875 29.0065C62.7967 29.0065 62.4019 29.3416 62.3272 29.8572Z" fill="white"/>
<path d="M66.7385 28.661V29.0065C66.1143 29.0065 65.6715 29.3777 65.6715 29.8984V31.3885H65.2715V28.7229H65.6715V29.2437C65.8369 28.8879 66.2317 28.661 66.7385 28.661Z" fill="white"/>
<path d="M68.7013 31.2802C68.5573 31.3886 68.3759 31.4504 68.1892 31.4504C67.7945 31.4504 67.5171 31.1669 67.5171 30.7699V29.0683H67.085V28.7229H67.5171V27.9907H67.9171V28.7229H68.5947V29.0683H67.9171V30.7699C67.9171 30.9658 68.0559 31.105 68.2159 31.105C68.3386 31.105 68.4453 31.0586 68.5039 30.9967L68.7013 31.2802Z" fill="white"/>
<path d="M69.1973 27.9804C69.1973 27.8463 69.3146 27.7278 69.464 27.7278C69.6081 27.7278 69.7254 27.8463 69.7254 27.9804C69.7254 28.1196 69.6081 28.2382 69.464 28.2382C69.3146 28.2382 69.1973 28.1196 69.1973 27.9804ZM69.2614 28.7229H69.6614V31.3886H69.2614V28.7229Z" fill="white"/>
<path d="M71.0911 28.7228H71.7685V29.0683H71.0911V31.3885H70.6909V29.0683H70.2588V28.7228H70.6909V28.3568C70.6909 27.9598 70.9683 27.6761 71.3631 27.6761C71.5499 27.6761 71.7312 27.7381 71.8753 27.8463L71.6779 28.1299C71.6191 28.0681 71.5124 28.0216 71.3898 28.0216C71.2297 28.0216 71.0911 28.1608 71.0911 28.3568V28.7228Z" fill="white"/>
<path d="M72.2695 27.9804C72.2695 27.8463 72.3869 27.7278 72.5363 27.7278C72.6803 27.7278 72.7977 27.8463 72.7977 27.9804C72.7977 28.1196 72.6803 28.2382 72.5363 28.2382C72.3869 28.2382 72.2695 28.1196 72.2695 27.9804ZM72.3336 28.7229H72.7337V31.3886H72.3336V28.7229Z" fill="white"/>
<path d="M75.6515 30.7853L75.897 31.038C75.6569 31.2905 75.1715 31.4504 74.7873 31.4504C74.0511 31.4504 73.3896 30.8678 73.3896 30.048C73.3896 29.2539 74.0084 28.661 74.75 28.661C75.5823 28.661 76.057 29.2694 76.057 30.2026H73.8004C73.8591 30.7234 74.2378 31.1049 74.7819 31.1049C75.1074 31.1049 75.4808 30.9658 75.6515 30.7853ZM73.8057 29.8572H75.6622C75.6088 29.3777 75.3155 29.0064 74.766 29.0064C74.2752 29.0064 73.8804 29.3415 73.8057 29.8572ZM74.6326 28.4186H74.3232L74.9687 27.6761L75.3901 27.769L74.6326 28.4186Z" fill="white"/>
<path d="M76.5479 31.0534L76.7559 30.7698C77.0706 30.9915 77.3854 31.1049 77.6895 31.1049C78.0522 31.1049 78.2976 30.94 78.2976 30.6873C78.2976 30.3986 77.9776 30.3058 77.6041 30.2026C76.9373 30.017 76.6812 29.8263 76.6812 29.4448C76.6812 28.9601 77.0973 28.661 77.6468 28.661C77.9882 28.661 78.3403 28.7745 78.6338 28.9601L78.4417 29.2591C78.1643 29.089 77.8922 29.0065 77.6468 29.0065C77.3374 29.0065 77.0813 29.1405 77.0813 29.3983C77.0813 29.6303 77.2841 29.7025 77.7962 29.8624C78.239 29.9964 78.6978 30.1408 78.6978 30.646C78.6978 31.1359 78.2603 31.4504 77.6895 31.4504C77.3054 31.4504 76.8786 31.3112 76.5479 31.0534Z" fill="white"/>
<path d="M81.082 27.5576H81.4021V31.7701H81.082V27.5576Z" fill="white"/>
<path d="M84.6831 28.5321V29.2384H86.5237V29.9242H84.6831V30.7028H86.7157V31.3885H83.8936V27.8463H86.7157V28.5321H84.6831Z" fill="white"/>
<path d="M87.0723 30.8626L87.5257 30.3419C87.8725 30.6306 88.2673 30.8059 88.7313 30.8059C89.1261 30.8059 89.3289 30.6306 89.3289 30.409C89.3289 30.1563 89.1155 30.079 88.5553 29.9552C87.7818 29.785 87.2322 29.5736 87.2322 28.8879C87.2322 28.2331 87.7871 27.7845 88.5873 27.7845C89.1849 27.7845 89.6489 27.9649 90.0224 28.2744L89.6116 28.8209C89.2862 28.5682 88.9181 28.4291 88.566 28.4291C88.2299 28.4291 88.0272 28.5992 88.0272 28.8105C88.0272 29.0684 88.2459 29.1509 88.8114 29.2747C89.6009 29.4448 90.1237 29.6716 90.1237 30.3265C90.1237 31.0019 89.5957 31.4504 88.6994 31.4504C88.0645 31.4504 87.499 31.2442 87.0723 30.8626Z" fill="white"/>
<path d="M92.3694 29.3983H93.9913V30.8575C93.6232 31.2288 93.0577 31.4504 92.5082 31.4504C91.4466 31.4504 90.5449 30.6101 90.5449 29.6149C90.5449 28.6198 91.4466 27.7845 92.5082 27.7845C93.0577 27.7845 93.6232 28.0062 93.9913 28.3775L93.4204 28.8725C93.2017 28.6301 92.8442 28.4754 92.5082 28.4754C91.884 28.4754 91.3559 29.0014 91.3559 29.6149C91.3559 30.2336 91.884 30.7595 92.5082 30.7595C92.7589 30.7595 93.015 30.677 93.223 30.5327V29.9913H92.3694L92.3694 29.3983Z" fill="white"/>
<path d="M4.48182 14.5614L8.94826 17.8184L7.11221 23.4686L5.5069 28.4086L10.189 24.9512L14.3857 21.8522H14.4485L20.1911 26.0927L23.3274 28.4086L22.2987 25.2428L19.8861 17.8184L26.8303 12.7557L28.8365 11.2931L24.7019 11.2939L17.798 11.2953L15.5476 4.25253L14.4448 0.800916L14.4204 0.724243L14.4128 0.727422L11.0387 11.2953L1.19648 11.2933L0 11.2931L1.04685 12.0564L4.48182 14.5614Z" fill="white"/>
</g>
<defs>
<clipPath id="clip0_774_1293">
<rect width="106" height="32" fill="white"/>
</clipPath>
</defs>
</svg>
