<?xml version="1.0" encoding="utf-8"?>
<!-- Generator: Adobe Illustrator 26.3.1, SVG Export Plug-In . SVG Version: 6.00 Build 0)  -->
<svg version="1.1" id="Ebene_1" xmlns="http://www.w3.org/2000/svg" xmlns:xlink="http://www.w3.org/1999/xlink" x="0px" y="0px"
	 width="228px" height="30px" viewBox="0 0 228 30" style="enable-background:new 0 0 228 30;" xml:space="preserve">
<style type="text/css">
	.st0{display:none;}
	.st1{display:inline;fill:#00414B;}
	.st2{fill:#FFFFFF;}
	.st3{fill:none;}
	.st4{clip-path:url(#SVGID_00000057826786412442022520000009648921775184398269_);}
	.st5{fill:#FFE900;}
	.st6{fill:#FFA100;}
	.st7{fill:#EF3340;}
	.st8{fill:#00B140;}
	.st9{fill:#0072CE;}
	.st10{fill:#940F7D;}
</style>
<g id="HG" class="st0">
	<rect x="0.2" y="0.1" class="st1" width="228.1" height="30.1"/>
</g>
<g id="Schutzraum">
</g>
<path class="st2" d="M8,24.7c2.5,0,4.5-0.9,5.9-2.6l-2.2-2.2c-0.9,1-2.1,1.5-3.5,1.5c-2.6,0-4.3-2.1-4.3-5c0-2.8,1.8-5,4.2-5
	c1.3,0,2.4,0.5,3.3,1.4l2.3-2.4C12.4,8.9,10.4,8,8.1,8C3.6,7.9,0,11.7,0,16.4C0,21.3,3.6,24.7,8,24.7L8,24.7L8,24.7L8,24.7z"/>
<path class="st3" d="M8,24.7c2.5,0,4.5-0.9,5.9-2.6l-2.2-2.2c-0.9,1-2.1,1.5-3.5,1.5c-2.6,0-4.3-2.1-4.3-5c0-2.8,1.8-5,4.2-5
	c1.3,0,2.4,0.5,3.3,1.4l2.3-2.4C12.4,8.9,10.4,8,8.1,8C3.6,7.9,0,11.7,0,16.4C0,21.3,3.6,24.7,8,24.7L8,24.7L8,24.7L8,24.7z"/>
<path class="st2" d="M23.5,21.4c-2.8,0-4.6-2.2-4.6-5.1c0-2.7,1.7-5.1,4.6-5.1c2.8,0,4.6,2.2,4.6,5.1C28.1,19.1,26.4,21.4,23.5,21.4
	L23.5,21.4L23.5,21.4L23.5,21.4z M23.5,24.7c4.8,0,8.5-3.8,8.5-8.5s-3.4-8.3-8.3-8.3c-4.8,0-8.5,3.8-8.5,8.5
	C15.1,21.1,18.6,24.7,23.5,24.7L23.5,24.7L23.5,24.7L23.5,24.7z"/>
<path class="st3" d="M23.5,21.4c-2.8,0-4.6-2.2-4.6-5.1c0-2.7,1.7-5.1,4.6-5.1c2.8,0,4.6,2.2,4.6,5.1C28.1,19.1,26.4,21.4,23.5,21.4
	L23.5,21.4L23.5,21.4L23.5,21.4z M23.5,24.7c4.8,0,8.5-3.8,8.5-8.5s-3.4-8.3-8.3-8.3c-4.8,0-8.5,3.8-8.5,8.5
	C15.1,21.1,18.6,24.7,23.5,24.7L23.5,24.7L23.5,24.7L23.5,24.7z"/>
<path class="st2" d="M45.4,24.4l2.7-8.9c0.5-1.5,0.8-3.3,0.8-3.3H49c0,0,0,1.8,0.2,3.5l0.7,8.7h3.6L52,8.2h-4.7l-2.5,8
	c-0.4,1.3-0.8,3-0.8,3s-0.4-1.7-0.8-3l-2.5-8h-4.8l-1.6,16.2h3.4l0.7-8.7c0.2-1.7,0.2-3.5,0.2-3.5h0.1c0,0,0.4,1.8,0.9,3.4l2.7,8.8
	L45.4,24.4L45.4,24.4z"/>
<path class="st3" d="M45.4,24.4l2.7-8.9c0.5-1.5,0.8-3.3,0.8-3.3H49c0,0,0,1.8,0.2,3.5l0.7,8.7h3.6L52,8.2h-4.7l-2.5,8
	c-0.4,1.3-0.8,3-0.8,3s-0.4-1.7-0.8-3l-2.5-8h-4.8l-1.6,16.2h3.4l0.7-8.7c0.2-1.7,0.2-3.5,0.2-3.5h0.1c0,0,0.4,1.8,0.9,3.4l2.7,8.8
	L45.4,24.4L45.4,24.4z"/>
<path class="st2" d="M68,24.4l2.7-8.9c0.5-1.5,0.9-3.3,0.9-3.3h0.1c0,0,0,1.8,0.2,3.5l0.7,8.7h3.6L74.5,8.2h-4.7l-2.5,8
	c-0.4,1.3-0.8,3-0.8,3s-0.4-1.7-0.9-3l-2.5-8h-4.8l-1.6,16.2h3.4l0.7-8.7C61,14,61,12.2,61,12.2h0.1c0,0,0.4,1.8,0.9,3.4l2.7,8.8
	L68,24.4L68,24.4z"/>
<path class="st3" d="M68,24.4l2.7-8.9c0.5-1.5,0.9-3.3,0.9-3.3h0.1c0,0,0,1.8,0.2,3.5l0.7,8.7h3.6L74.5,8.2h-4.7l-2.5,8
	c-0.4,1.3-0.8,3-0.8,3s-0.4-1.7-0.9-3l-2.5-8h-4.8l-1.6,16.2h3.4l0.7-8.7C61,14,61,12.2,61,12.2h0.1c0,0,0.4,1.8,0.9,3.4l2.7,8.8
	L68,24.4L68,24.4z"/>
<polygon class="st2" points="80,24.4 90.5,24.4 90.5,21.3 83.5,21.3 83.5,17.8 89.5,17.8 89.5,14.7 83.5,14.7 83.5,11.3 90.4,11.3 
	90.4,8.2 80,8.2 "/>
<polygon class="st3" points="80,24.4 90.5,24.4 90.5,21.3 83.5,21.3 83.5,17.8 89.5,17.8 89.5,14.7 83.5,14.7 83.5,11.3 90.4,11.3 
	90.4,8.2 80,8.2 "/>
<path class="st2" d="M102.6,13.4c0,1.5-1,2.2-3,2.2h-1.5v-4.3h1.5C101.6,11.3,102.6,11.8,102.6,13.4L102.6,13.4L102.6,13.4
	L102.6,13.4z M107,24.4l-4-6.5c2.1-0.8,3.3-2.4,3.3-4.5c0-3.3-1.9-5.2-6.7-5.2h-4.9v16.2h3.5v-5.9h1.1l3.5,5.9L107,24.4L107,24.4z"
	/>
<path class="st3" d="M102.6,13.4c0,1.5-1,2.2-3,2.2h-1.5v-4.3h1.5C101.6,11.3,102.6,11.8,102.6,13.4L102.6,13.4L102.6,13.4
	L102.6,13.4z M107,24.4l-4-6.5c2.1-0.8,3.3-2.4,3.3-4.5c0-3.3-1.9-5.2-6.7-5.2h-4.9v16.2h3.5v-5.9h1.1l3.5,5.9L107,24.4L107,24.4z"
	/>
<polygon class="st2" points="109.1,24.4 120.3,24.4 120.3,21.3 113.5,21.3 120.2,10.9 120.2,8.2 109.2,8.2 109.2,11.3 115.8,11.3 
	109.1,21.7 "/>
<polygon class="st3" points="109.1,24.4 120.3,24.4 120.3,21.3 113.5,21.3 120.2,10.9 120.2,8.2 109.2,8.2 109.2,11.3 115.8,11.3 
	109.1,21.7 "/>
<path class="st2" d="M127.5,17.7h2.6c1.6,0,2.6,0.5,2.6,1.8c0,1.2-0.8,1.9-2.6,1.9h-2.6L127.5,17.7L127.5,17.7z M127.5,11.3h2
	c1.1,0,2.2,0.4,2.2,1.7s-1,1.8-2.1,1.8h-2.2v-3.5H127.5z M124,24.4h6.2c2.9,0,6.1-1.3,6.1-4.7c0-2.1-1.3-3.5-3.5-3.8l0,0
	c1.7-0.5,2.7-1.8,2.7-3.6c0-3.5-3.1-4.2-5.9-4.2H124V24.4L124,24.4z"/>
<path class="st3" d="M127.5,17.7h2.6c1.6,0,2.6,0.5,2.6,1.8c0,1.2-0.8,1.9-2.6,1.9h-2.6L127.5,17.7L127.5,17.7z M127.5,11.3h2
	c1.1,0,2.2,0.4,2.2,1.7s-1,1.8-2.1,1.8h-2.2v-3.5H127.5z M124,24.4h6.2c2.9,0,6.1-1.3,6.1-4.7c0-2.1-1.3-3.5-3.5-3.8l0,0
	c1.7-0.5,2.7-1.8,2.7-3.6c0-3.5-3.1-4.2-5.9-4.2H124V24.4L124,24.4z"/>
<path class="st2" d="M141,24.4l1.1-3.3h6.3l1.1,3.3h3.8l-5.8-16.2h-4.4l-5.8,16.2H141L141,24.4z M147.4,18.1h-4.2l1.4-4.3
	c0.4-1.2,0.7-2.3,0.7-2.3s0.3,1.1,0.7,2.3L147.4,18.1L147.4,18.1z"/>
<path class="st3" d="M141,24.4l1.1-3.3h6.3l1.1,3.3h3.8l-5.8-16.2h-4.4l-5.8,16.2H141L141,24.4z M147.4,18.1h-4.2l1.4-4.3
	c0.4-1.2,0.7-2.3,0.7-2.3s0.3,1.1,0.7,2.3L147.4,18.1L147.4,18.1z"/>
<path class="st2" d="M155.5,24.4h3.3v-7.7c0-1.5-0.1-2.9-0.1-2.9s0.8,1.3,1.6,2.6l5.5,8.1h3.1V8.2h-3.3v7.3c0,1.5,0.1,2.9,0.1,2.9
	s-0.8-1.3-1.6-2.6l-5.2-7.7h-3.4L155.5,24.4L155.5,24.4z"/>
<path class="st3" d="M155.5,24.4h3.3v-7.7c0-1.5-0.1-2.9-0.1-2.9s0.8,1.3,1.6,2.6l5.5,8.1h3.1V8.2h-3.3v7.3c0,1.5,0.1,2.9,0.1,2.9
	s-0.8-1.3-1.6-2.6l-5.2-7.7h-3.4L155.5,24.4L155.5,24.4z"/>
<polygon class="st2" points="172.8,8.2 172.8,24.4 176.4,24.4 176.4,16.8 181.5,24.4 185.9,24.4 179.9,15.7 185.3,8.2 181.2,8.2 
	176.4,15.5 176.4,8.2 "/>
<polygon class="st3" points="172.8,8.2 172.8,24.4 176.4,24.4 176.4,16.8 181.5,24.4 185.9,24.4 179.9,15.7 185.3,8.2 181.2,8.2 
	176.4,15.5 176.4,8.2 "/>
<g>
	<g>
		<defs>
			<path id="SVGID_1_" d="M228,16l-9.2-16l0,0H218l0,0c-0.5,0-1.4,0.1-2.3,0.5c-1,0.4-2,1.2-2.8,2.2c-0.1,0.1-0.7,0.8-1.2,1.4
				c0.3,0.4,0.5,0.8,0.7,1.1c1.4,2.4,6.6,11.5,8,13.8c0.3,0.6,0.9,1.6,1.3,2.7l0,0c0.1,0.3,0.6,1.6,0.7,2.2c0.1,0.5,0.2,0.9,0.3,1.4
				L228,16L228,16L228,16z M220.3,29.3l-0.4,0.7l0,0h-9.2h-9.2l0,0l-5.4-9.3c0.4,0.2,0.8,0.3,1.3,0.5c0.6,0.2,1.9,0.4,2.3,0.5l0,0
				c1.2,0.2,2.3,0.2,3,0.2c2.7,0,13.3,0,16,0c0.3,0,0.8,0,1.3,0c0.2,0.7,0.6,1.6,0.6,1.7c0.4,1.2,0.6,2.4,0.5,3.5
				C220.9,28.1,220.5,28.9,220.3,29.3L220.3,29.3L220.3,29.3z M210.7,2.7c0.2-0.3,1.1-1.3,1.6-1.8c0.4-0.4,0.7-0.7,1.1-0.9h-10.7
				l0,0l-8.9,15.5l-0.3,0.5l0,0l0.4,0.7l0,0c0.3,0.5,0.8,1.1,1.6,1.7c0.9,0.7,2,1.1,3.3,1.4c0.1,0,1.1,0.2,1.8,0.3
				c0.2-0.4,0.4-0.8,0.6-1.1c1.4-2.4,6.6-11.5,8-13.8C209.3,4.5,209.9,3.6,210.7,2.7L210.7,2.7L210.7,2.7z"/>
		</defs>
		<clipPath id="SVGID_00000071550583163318366460000002179739273035674291_">
			<use xlink:href="#SVGID_1_"  style="overflow:visible;"/>
		</clipPath>
		<g style="clip-path:url(#SVGID_00000071550583163318366460000002179739273035674291_);">
			<rect x="190.1" y="11.4" transform="matrix(0.51 -0.8602 0.8602 0.51 90.039 186.2973)" class="st5" width="36.8" height="5.5"/>
			<rect x="185.7" y="8.7" transform="matrix(0.51 -0.8602 0.8602 0.51 90.1779 181.1247)" class="st6" width="36.8" height="5.5"/>
			<rect x="181.1" y="6" transform="matrix(0.51 -0.8602 0.8602 0.51 90.2177 175.9503)" class="st7" width="36.8" height="5.5"/>
			
				<rect x="194.6" y="13.9" transform="matrix(0.51 -0.8602 0.8602 0.51 90.0008 191.3725)" class="st8" width="36.8" height="5.5"/>
			<rect x="199" y="16.6" transform="matrix(0.51 -0.8602 0.8602 0.51 89.8619 196.5451)" class="st9" width="36.8" height="5.5"/>
			
				<rect x="203.6" y="19.3" transform="matrix(0.51 -0.8602 0.8602 0.51 89.822 201.7194)" class="st10" width="36.8" height="5.5"/>
		</g>
	</g>
	<g>
		<defs>
			<path id="SVGID_00000164476307839057053720000012318457693210555268_" d="M228,16l-9.2-16l0,0H218l0,0c-0.5,0-1.4,0.1-2.3,0.5
				c-1,0.4-2,1.2-2.8,2.2c-0.1,0.1-0.7,0.8-1.2,1.4c0.3,0.4,0.5,0.8,0.7,1.1c1.4,2.4,6.6,11.5,8,13.8c0.3,0.6,0.9,1.6,1.3,2.7l0,0
				c0.1,0.3,0.6,1.6,0.7,2.2c0.1,0.5,0.2,0.9,0.3,1.4L228,16L228,16L228,16z M220.3,29.3l-0.4,0.7l0,0h-9.2h-9.2l0,0l-5.4-9.3
				c0.4,0.2,0.8,0.3,1.3,0.5c0.6,0.2,1.9,0.4,2.3,0.5l0,0c1.2,0.2,2.3,0.2,3,0.2c2.7,0,13.3,0,16,0c0.3,0,0.8,0,1.3,0
				c0.2,0.7,0.6,1.6,0.6,1.7c0.4,1.2,0.6,2.4,0.5,3.5C220.9,28.1,220.5,28.9,220.3,29.3L220.3,29.3L220.3,29.3z M210.7,2.7
				c0.2-0.3,1.1-1.3,1.6-1.8c0.4-0.4,0.7-0.7,1.1-0.9h-10.7l0,0l-8.9,15.5l-0.3,0.5l0,0l0.4,0.7l0,0c0.3,0.5,0.8,1.1,1.6,1.7
				c0.9,0.7,2,1.1,3.3,1.4c0.1,0,1.1,0.2,1.8,0.3c0.2-0.4,0.4-0.8,0.6-1.1c1.4-2.4,6.6-11.5,8-13.8C209.3,4.5,209.9,3.6,210.7,2.7
				L210.7,2.7L210.7,2.7z"/>
		</defs>
		<clipPath id="SVGID_00000140698279633366346470000017466180136803034501_">
			<use xlink:href="#SVGID_00000164476307839057053720000012318457693210555268_"  style="overflow:visible;"/>
		</clipPath>
	</g>
</g>
</svg>
