<svg xmlns="http://www.w3.org/2000/svg" xmlns:xlink="http://www.w3.org/1999/xlink" width="400" height="400" viewBox="0 0 400 400">
  <defs>
    <linearGradient id="linear-gradient" x1="0.5" y1="1" x2="0.5" gradientUnits="objectBoundingBox">
      <stop offset="0" stop-color="#020459"/>
      <stop offset="1" stop-color="#073bf5"/>
    </linearGradient>
    <clipPath id="clip-Pastille-lyon">
      <rect width="400" height="400"/>
    </clipPath>
  </defs>
  <g id="Pastille-lyon" clip-path="url(#clip-Pastille-lyon)">
    <rect width="400" height="400" fill="#fff"/>
    <rect id="Rectangle_35" data-name="Rectangle 35" width="400" height="400" rx="200" fill="url(#linear-gradient)"/>
    <g id="Groupe_29" data-name="Groupe 29" transform="translate(71.477 87.695)">
      <path id="Tracé_514" data-name="Tracé 514" d="M102.063,37.683A5.6,5.6,0,0,0,97.549,35.6a5.222,5.222,0,0,0-3.82,1.389C69.769,56.782,52.755,85.6,44.421,120.327L28.1,77.963H15.6l24.654,61.809a244.187,244.187,0,0,0-2.083,32.293,5.9,5.9,0,0,0,11.806,0c0-54.864,18.4-99.311,51.044-126.743,2.778-1.389,3.125-4.861,1.042-7.639Z" transform="translate(21.207 46.349)" fill="#ed8c23"/>
      <g id="Groupe_16" data-name="Groupe 16" transform="translate(0)">
        <path id="Tracé_515" data-name="Tracé 515" d="M49.794,81.8H33.126V64.433H50.836c6.6,0,10.07,3.125,10.07,8.334C60.558,80.059,55.7,81.8,49.794,81.8M32.779,33.876H48.058c5.9,0,9.723,1.736,9.723,6.25,0,5.9-3.82,7.639-9.723,7.639H32.779ZM221.678,12l-13.2,54.169h-.347L195.288,12H87.3V66.169a23.11,23.11,0,0,0-14.237-13.2C80,49.155,84.518,44.293,84.518,34.918S79.309,12,55.35,12H5v91.671H57.086c13.2,0,25.7-6.25,30.21-18.4v18.4h28.126V68.6h25.7V47.766h-25.7V33.876h39.585v69.8h26.737V44.988h.347l15.973,58.684H218.9l15.973-58.684h.347v58.684h26.737V12Z" transform="translate(-5 -12)" fill="#fff"/>
        <path id="Tracé_516" data-name="Tracé 516" d="M19.353,47.9v70.143h23.96v11.806H7.2V47.9Z" transform="translate(0.439 76.759)" fill="#fff"/>
        <path id="Tracé_517" data-name="Tracé 517" d="M30.1,89.516C30.1,78.057,34.267,68.334,42.948,60a41.158,41.158,0,0,1,30.21-12.5c11.806,0,21.529,4.167,29.863,12.5s12.848,18.4,12.848,29.863a39.973,39.973,0,0,1-12.848,29.863c-8.681,8.334-18.4,12.5-30.557,12.5-10.764,0-19.793-3.82-28.474-11.112-9.375-7.987-13.89-18.751-13.89-31.6Zm12.5,0c0,9.028,3.125,16.668,9.028,22.223,6.25,5.9,13.2,8.681,20.834,8.681a28.547,28.547,0,0,0,21.529-9.028,31.928,31.928,0,0,0,9.028-21.876c0-8.681-2.778-16.32-8.681-21.876s-13.2-9.028-21.529-9.028A29.091,29.091,0,0,0,51.282,67.64c-5.9,5.9-8.681,13.2-8.681,21.876Z" transform="translate(57.057 75.77)" fill="#fff"/>
        <path id="Tracé_518" data-name="Tracé 518" d="M56.1,133.457V46.3l59.378,62.156v-56.6h12.5v86.81l-59.725-62.5v57.295Z" transform="translate(121.34 72.803)" fill="#fff"/>
      </g>
    </g>
  </g>
</svg>
