<svg xmlns="http://www.w3.org/2000/svg" width="24.194" height="19.999" viewBox="0 0 24.194 19.999">
  <path id="Tracé_478" data-name="Tracé 478" d="M23.216.843A3.537,3.537,0,0,0,20.877,0H3.316A3.53,3.53,0,0,0,.979.843,2.754,2.754,0,0,0,0,2.931V13.413A2.754,2.754,0,0,0,.979,15.5a3.53,3.53,0,0,0,2.337.842H20.877a3.537,3.537,0,0,0,2.339-.842,2.757,2.757,0,0,0,.978-2.088V2.931A2.757,2.757,0,0,0,23.216.843M22.3,2.931V13.425a1.315,1.315,0,0,1-1.422,1.2H3.3a1.316,1.316,0,0,1-1.41-1.214V2.92a1.317,1.317,0,0,1,1.422-1.2H20.889A1.315,1.315,0,0,1,22.3,2.931m-3.275,16.21a.859.859,0,0,1-.858.859H5.977a.859.859,0,1,1,0-1.718h12.19a.859.859,0,0,1,.858.859M16.169,7.417l-6.1-3.663-.017-.009a.963.963,0,0,0-.832,0l-.028.016a.891.891,0,0,0-.416.756v7.315a.929.929,0,0,0,.416.756.779.779,0,0,0,.445.1.756.756,0,0,0,.436-.13L16.16,8.9l.009-.006a.843.843,0,0,0,.387-.708.833.833,0,0,0-.387-.773m-2.115.756-3.563,2.146v-4.3Z" transform="translate(0 -0.001)" fill="#fff"/>
</svg>
