<?xml version="1.0" encoding="UTF-8"?>
<!-- Generator: Adobe Illustrator 19.2.1, SVG Export Plug-In . SVG Version: 6.00 Build 0)  -->
<svg xmlns="http://www.w3.org/2000/svg" xmlns:xlink="http://www.w3.org/1999/xlink" version="1.1" id="Layer_1" x="0px" y="0px" width="800px" height="299.1px" viewBox="0 0 800 299.1" style="enable-background:new 0 0 800 299.1;" xml:space="preserve">
<style type="text/css">
	.st0{fill:#FFFFFF;}
	.st1{fill:#1A171B;}
	.st2{fill:#E2231A;}
</style>
<g>
	<g>
		<path class="st0" d="M795.6,239.7c0,30.4-22.3,55.1-49.7,55.1H54.1c-27.5,0-49.7-24.7-49.7-55.1V59.4C4.4,29,26.6,4.4,54.1,4.4    h691.8c27.5,0,49.7,24.7,49.7,55.1V239.7z"></path>
		<path class="st1" d="M745.9,299.1H54.1C24.3,299.1,0,272.4,0,239.7V59.4C0,26.7,24.3,0,54.1,0h691.8C775.7,0,800,26.7,800,59.4    v180.2C800,272.4,775.7,299.1,745.9,299.1z M54.1,8.7c-25,0-45.4,22.7-45.4,50.7v180.2c0,28,20.4,50.7,45.4,50.7h691.8    c25,0,45.4-22.7,45.4-50.7V59.4c0-28-20.4-50.7-45.4-50.7H54.1z"></path>
	</g>
	<g>
		<g>
			<path class="st2" d="M118.5,91.1v12.2h8v12.3h-8v41.6c0,5.1,0.3,8,1,8.5c0.7,0.6,3.4,0.9,8.2,0.9v12.5h-11.9     c-6.7,0-11.5-0.2-14.4-0.7c-2.9-0.4-5.4-1.5-7.6-3.1c-2.2-1.6-3.6-3.5-4.1-5.6c-0.5-2.1-0.8-7-0.8-14.7v-39.5h-6.4v-12.3h6.4     V91.1H118.5z"></path>
			<path class="st2" d="M199.9,141.7h-38.3v16.8c0,3.5,0.3,5.8,0.9,6.8c0.6,1,1.9,1.5,3.7,1.5c2.2,0,3.7-0.7,4.5-2     c0.8-1.3,1.1-4,1.1-7.8v-10.2h28v5.7c0,4.8-0.4,8.5-1.1,11.1c-0.8,2.6-2.5,5.3-5.3,8.3c-2.8,2.9-6.3,5.1-10.6,6.6     c-4.3,1.5-9.6,2.2-16.1,2.2c-6.2,0-11.8-0.7-16.5-2.2c-4.8-1.4-8.5-3.4-11.2-5.9c-2.7-2.5-4.5-5.3-5.5-8.3c-1-3-1.5-7.4-1.5-13.2     v-22.7c0-6.8,1.1-12.1,3.4-16.1c2.3-3.9,6-6.9,11.3-9c5.2-2.1,11.2-3.1,18-3.1c8.3,0,15.1,1.3,20.5,3.8c5.4,2.5,9.2,5.9,11.3,10     c2.2,4.2,3.3,10,3.3,17.5V141.7z M170.3,129v-5.7c0-4-0.3-6.6-0.8-7.8c-0.5-1.2-1.6-1.8-3.3-1.8c-2.1,0-3.3,0.5-3.8,1.5     c-0.5,1-0.7,3.7-0.7,8v5.7H170.3z"></path>
			<path class="st2" d="M239.2,101.4l-1.2,10.2c4.3-7.3,10.5-11.2,18.7-11.6v27.3c-5.4,0-9.4,0.6-11.9,1.8c-2.5,1.2-4.1,2.8-4.7,4.9     c-0.6,2.1-0.9,6.9-0.9,14.4v30.7h-29.6v-77.7H239.2z"></path>
			<path class="st2" d="M350.9,84.3v94.8h-30.8v-39.8h-9.2v39.8H280V84.3h30.8v33.9h9.2V84.3H350.9z"></path>
			<path class="st2" d="M430,101.4v77.7H400l0.5-6.5c-2.1,2.6-4.6,4.6-7.6,5.9c-3,1.3-6.5,2-10.3,2c-4.4,0-8.1-0.6-11-1.9     c-2.9-1.2-5.1-2.9-6.5-5c-1.4-2.1-2.3-4.2-2.6-6.5c-0.3-2.2-0.5-6.7-0.5-13.4v-52.4h29.6v52.9c0,6,0.2,9.6,0.7,10.8     c0.5,1.1,1.7,1.7,3.8,1.7c2.2,0,3.5-0.6,3.9-1.8c0.4-1.2,0.6-4.9,0.6-11.3v-52.3H430z"></path>
			<path class="st2" d="M508.3,101.4v77.7h-30.1l0.5-6.5c-2.1,2.6-4.6,4.6-7.6,5.9c-3,1.3-6.5,2-10.4,2c-4.4,0-8.1-0.6-11-1.9     c-2.9-1.2-5.1-2.9-6.5-5c-1.4-2.1-2.3-4.2-2.6-6.5c-0.3-2.2-0.5-6.7-0.5-13.4v-52.4h29.6v52.9c0,6,0.2,9.6,0.7,10.8     c0.5,1.1,1.7,1.7,3.8,1.7c2.2,0,3.5-0.6,3.9-1.8c0.4-1.2,0.6-4.9,0.6-11.3v-52.3H508.3z"></path>
			<path class="st2" d="M548.5,101.4l-1.2,10.2c4.3-7.3,10.5-11.2,18.7-11.6v27.3c-5.4,0-9.4,0.6-11.9,1.8c-2.5,1.2-4.1,2.8-4.7,4.9     c-0.6,2.1-0.9,6.9-0.9,14.4v30.7h-29.6v-77.7H548.5z"></path>
			<path class="st2" d="M602.6,101.4l-0.5,7.2c2.1-2.9,4.8-5,7.9-6.4c3.1-1.4,6.7-2.1,10.7-2.1c5.1,0,9.2,1,12.4,2.9     c3.2,1.9,5.3,4.3,6.2,7.2c0.9,2.9,1.4,7.8,1.4,14.5v54.4h-29.6v-53.8c0-5.3-0.2-8.6-0.7-9.8c-0.4-1.2-1.7-1.8-3.7-1.8     c-2.1,0-3.4,0.7-4,2c-0.5,1.3-0.8,4.9-0.8,10.8v52.5h-29.6v-77.7H602.6z"></path>
			<path class="st2" d="M717.9,141.7h-38.3v16.8c0,3.5,0.3,5.8,0.9,6.8c0.6,1,1.9,1.5,3.7,1.5c2.2,0,3.7-0.7,4.5-2     c0.8-1.3,1.1-4,1.1-7.8v-10.2h28v5.7c0,4.8-0.4,8.5-1.1,11.1c-0.8,2.6-2.5,5.3-5.3,8.3c-2.8,2.9-6.3,5.1-10.6,6.6     c-4.3,1.5-9.6,2.2-16.1,2.2c-6.2,0-11.8-0.7-16.5-2.2c-4.8-1.4-8.5-3.4-11.2-5.9c-2.7-2.5-4.5-5.3-5.5-8.3c-1-3-1.5-7.4-1.5-13.2     v-22.7c0-6.8,1.1-12.1,3.4-16.1c2.3-3.9,6-6.9,11.3-9c5.2-2.1,11.2-3.1,18-3.1c8.3,0,15.1,1.3,20.5,3.8c5.4,2.5,9.2,5.9,11.3,10     c2.2,4.2,3.3,10,3.3,17.5V141.7z M688.2,129v-5.7c0-4-0.3-6.6-0.8-7.8c-0.5-1.2-1.6-1.8-3.3-1.8c-2.1,0-3.3,0.5-3.8,1.5     c-0.5,1-0.7,3.7-0.7,8v5.7H688.2z"></path>
		</g>
		<g>
			<path class="st1" d="M95.1,190.4h6.1v13.2h12.2v-13.2h6.1v29.8h-6.1V207h-12.2v13.2h-6.1V190.4z"></path>
			<path class="st1" d="M151.1,198.5c0-5.7,4.1-8.5,12.2-8.5c8.1,0,12.2,2.8,12.2,8.5v13.6c0,5.7-4.1,8.5-12.2,8.5     c-8.1,0-12.2-2.8-12.2-8.5V198.5z M157.2,213c0,2.8,2,4.3,6.1,4.3c4.1,0,6.1-1.4,6.1-4.3v-15.3c0-2.8-2-4.3-6.1-4.3     c-4.1,0-6.1,1.4-6.1,4.3V213z"></path>
			<path class="st1" d="M207.1,190.4h6.1v26.4h12.2v3.4h-18.3V190.4z"></path>
			<path class="st1" d="M257.1,190.4h6.1v26.4h12.2v3.4h-18.3V190.4z"></path>
			<path class="st1" d="M312.6,214.5l-1.6,5.7h-6.1l8.2-29.8h9.1l8.2,29.8h-6.1l-1.6-5.7H312.6z M321.8,210.8l-4.1-15.1l-4.2,15.1     H321.8z"></path>
			<path class="st1" d="M366.1,220.2H360v-29.8h6.1l12.2,19.2v-19.2h6.1v29.8h-6.1l-12.2-19.2V220.2z"></path>
			<path class="st1" d="M428.2,190.4c8.1,0,12.2,2.8,12.2,8.5v12.8c0,5.7-4.1,8.5-12.2,8.5H416v-29.8H428.2z M422.1,216.8h6.1     c4.1,0,6.1-1.4,6.1-4.3v-14.5c0-2.8-2-4.3-6.1-4.3h-6.1V216.8z"></path>
			<path class="st1" d="M485.3,216l-7.2-13.4v17.7H472v-29.8h6.1l9.1,18.5l9.1-18.5h6.1v29.8h-6.1v-17.7l-7.2,13.4H485.3z"></path>
			<path class="st1" d="M539.6,214.5l-1.6,5.7h-6.1l8.2-29.8h9.1l8.2,29.8h-6.1l-1.6-5.7H539.6z M548.9,210.8l-4.1-15.1l-4.2,15.1     H548.9z"></path>
			<path class="st1" d="M593.1,207v13.2h-6.1v-29.8h12.2c8.1,0,12.2,2.6,12.2,7.7v2.3c0,2-1.3,3.7-3.8,4.9c2.5,1.2,3.8,2.9,3.8,4.9     v6.8c0,1.1,0.3,2.2,0.9,3.2h-6.1c-0.6-1-0.9-2.1-0.9-3.2v-6.8c0-2.1-2-3.2-6.1-3.2H593.1z M599.2,203.6c4.1,0,6.1-1.1,6.1-3.2     v-2.3c0-2.8-2-4.3-6.1-4.3h-6.1v9.8H599.2z"></path>
			<path class="st1" d="M649.1,220.2H643v-29.8h6.1v13l12.2-13h6.7l-12.8,13.4l12.8,16.4h-6.7l-10-13.2l-2.2,2.6V220.2z"></path>
			<path class="st1" d="M699,190.4h24.3v3.4h-9.1v26.4h-6.1v-26.4H699V190.4z"></path>
		</g>
	</g>
</g>
</svg>
