<svg width="225" height="41" viewBox="0 0 225 41" fill="none" xmlns="http://www.w3.org/2000/svg">
<g clip-path="url(#clip0_3341_98033)">
<path d="M141.632 29.6837V39.885H129.512L125.094 35.5266V25.2137H126.869H127.448L127.364 24.6405L126.375 17.9605L126.092 16.0503L125.412 17.8576L120.889 29.8813C119.544 33.4481 117.736 36.0826 115.469 37.8261C113.208 39.5653 110.455 40.4462 107.164 40.4462C102.841 40.4462 99.4268 38.7965 95.9633 35.3798L94.1756 33.6163L94.0063 33.4493L93.7699 33.4752C92.836 33.5778 91.8967 33.6258 90.9569 33.6192H90.9534C88.028 33.6192 85.8058 33.2184 83.8268 32.3457C81.8444 31.4716 80.0695 30.108 78.0597 28.1253L75.5137 25.6136L75.0326 25.1391L74.7195 25.7378C73.4548 28.1557 71.528 30.1764 69.1568 31.5699C66.7855 32.9634 64.0651 33.6736 61.3045 33.6193L61.3045 33.6192H61.2947C58.8575 33.6192 56.8116 33.2031 54.8843 32.3095C52.9517 31.4135 51.1125 30.0253 49.1052 28.0451L49.1053 28.045L49.0975 28.0377L47.4859 26.5146L46.6425 25.7176V26.878V33.0581H36.229L32.5559 29.4346L31.7048 28.5949V29.7905V33.0581H21.2777L17.6047 29.4346L16.7535 28.5949V29.7905V33.0581H4.91801L0.5 28.6997V2.06074H11.1573L12.1895 3.07901L12.4729 3.35857L12.8088 3.14504C14.4079 2.12865 16.2575 1.55967 18.1598 1.49947C20.3345 1.4596 22.4404 2.24635 24.0416 3.69503L24.3387 3.96385L24.6658 3.73245C26.6846 2.30434 29.1013 1.52434 31.5868 1.49959V1.49971L31.5976 1.49936C33.1422 1.45053 34.6785 1.73986 36.0958 2.34636C37.5132 2.95284 38.7762 3.86128 39.7943 5.00594L39.8055 5.01852L39.8176 5.03033L42.9866 8.14322L43.4174 8.56643L43.7528 8.06417C45.1373 5.99063 47.0356 4.29903 49.2688 3.15001C51.502 2.00098 53.9959 1.43274 56.5144 1.49944L56.5144 1.49961H56.5276C60.864 1.49961 64.6013 3.01335 68.4327 6.7931L71.2225 9.54527L71.7333 10.0492L72.0292 9.39551C73.1256 6.97328 74.9298 4.9275 77.2122 3.52052C79.4947 2.11349 82.1514 1.40953 84.8425 1.49934L84.8549 1.49975L84.8674 1.49955C86.8637 1.4668 88.8443 1.85011 90.6798 2.62421C92.5152 3.3983 94.1639 4.54564 95.5182 5.99081L96.345 5.45762L94.9384 2.06074H107.527L112.053 6.56446L112.65 7.15866L112.885 6.34987L114.135 2.06074H137.648L142.051 6.36697L142.051 11.7945L142.052 11.8079C142.065 12.2923 142.035 12.7769 141.962 13.2563L141.962 13.2616L139.93 27.7706L139.895 28.0245L140.08 28.2015L141.632 29.6837Z" fill="white" stroke="white"/>
<path d="M126.734 33.7454H135.211V26.865H126.734V33.7454ZM56.5278 20.3853C55.8489 20.3818 55.178 20.2404 54.557 19.9698C53.9359 19.6992 53.378 19.3054 52.9181 18.8128C52.4581 18.3202 52.1059 17.7394 51.8835 17.1066C51.6611 16.4738 51.5732 15.8026 51.6253 15.1348C51.5747 14.4713 51.6642 13.8046 51.8881 13.177C52.1121 12.5493 52.4657 11.9743 52.9264 11.4884C53.3872 11.0024 53.9452 10.6161 54.5651 10.3538C55.185 10.0915 55.8533 9.95892 56.5278 9.96449C57.1988 9.97064 57.8615 10.1111 58.4758 10.3774C59.0901 10.6437 59.6433 11.0303 60.1016 11.5137C60.56 11.9972 60.9141 12.5674 61.1425 13.1898C61.3709 13.8123 61.4688 14.474 61.4303 15.1348C61.4824 15.8026 61.3945 16.4738 61.172 17.1066C60.9496 17.7394 60.5974 18.3202 60.1375 18.8128C59.6775 19.3054 59.1196 19.6992 58.4986 19.9698C57.8775 20.2404 57.2067 20.3818 56.5278 20.3853ZM80.81 13.0373C81.2298 10.5256 82.8414 9.13617 84.8728 9.13617C87.1345 9.13617 88.5971 10.6191 89.0305 13.0373H80.81ZM128.657 23.9792H133.315L135.645 7.67993V3.67191H126.26V7.67993L128.657 23.9792ZM104.28 34.3065C110.171 34.3065 113.34 31.3673 115.791 24.7674L123.714 3.67191H115.412L111.214 17.2992L106.216 3.67191H97.3593L106.988 26.531C106.552 26.9081 106.042 27.1938 105.491 27.3706C104.939 27.5475 104.356 27.6118 103.779 27.5597C102.049 27.4669 100.359 27.0114 98.8219 26.2237L96.1134 31.5677C98.5533 33.2056 101.412 34.1316 104.361 34.2397L104.28 34.3065ZM86.2136 27.3459C90.0421 27.4304 93.8109 26.3987 97.0478 24.38L94.0819 19.2097C92.0077 20.3484 89.6837 20.972 87.3105 21.0266C84.7239 21.0266 81.758 19.9044 80.9454 17.4461H97.0343C97.1251 16.8133 97.1704 16.1748 97.1697 15.5356C97.1697 8.69529 93.0256 2.97719 84.8593 2.97719C83.2249 2.90905 81.5939 3.17665 80.0698 3.76302C78.5457 4.3494 77.1617 5.24176 76.0056 6.38353C74.8495 7.5253 73.9465 8.89158 73.3538 10.3957C72.761 11.8999 72.4916 13.5092 72.5624 15.1215C72.5624 22.376 77.5056 27.3459 86.1865 27.3459H86.2136ZM56.5278 27.3459C63.8409 27.3459 69.6372 22.0954 69.6372 15.1215C69.6372 8.14753 63.8409 2.97719 56.5278 2.97719C49.2147 2.97719 43.4183 8.14753 43.4183 15.1215C43.4183 22.0954 49.2282 27.3459 56.5278 27.3459ZM2.16699 26.865H10.3739V14.2531C10.3739 11.6879 11.8365 10.3519 13.8138 10.3519C15.791 10.3519 17.1182 11.6879 17.1182 14.36V26.9718H25.3116V14.2531C25.3116 11.7013 26.8284 10.2451 28.8057 10.2451C30.7829 10.2451 32.0559 11.5811 32.0559 14.2531V26.865H40.2629V12.0754C40.2629 6.15688 36.7688 3.04399 31.5819 3.04399C30.1766 3.02854 28.7857 3.32558 27.5126 3.91306C26.2395 4.50053 25.117 5.36334 24.2282 6.43744C23.5036 5.33254 22.4954 4.43656 21.3061 3.84054C20.1167 3.24451 18.7887 2.96969 17.4568 3.04399C15.9897 3.0642 14.5501 3.44041 13.2653 4.13941C11.9804 4.83841 10.8897 5.83871 10.0895 7.052V3.67191H2.16699V26.865Z" fill="#006C68"/>
<path d="M171.845 11.4743V7.68003C171.845 5.90837 172.558 4.20928 173.828 2.95653C175.098 1.70379 176.82 1 178.616 1L182.679 1C182.772 1 182.862 1.0366 182.928 1.10174C182.994 1.16688 183.031 1.25524 183.031 1.34736V6.97194H178.67C177.21 6.94894 175.778 7.36827 174.567 8.17337C173.356 8.97847 172.425 10.1306 171.899 11.4743" fill="#006C68"/>
<path d="M151.151 33.5584V1.56104" stroke="white" stroke-width="0.25" stroke-miterlimit="10"/>
<path d="M176.788 18.9156H172.197C172.15 18.9156 172.105 18.9066 172.062 18.8891C172.019 18.8717 171.98 18.8461 171.948 18.8138C171.915 18.7816 171.889 18.7433 171.871 18.7011C171.854 18.659 171.845 18.6138 171.845 18.5682V14.0392C171.845 12.2675 172.558 10.5684 173.828 9.31567C175.098 8.06292 176.82 7.35913 178.616 7.35913H183.207C183.3 7.35913 183.39 7.39573 183.456 7.46087C183.522 7.52601 183.559 7.61437 183.559 7.70649V12.289C183.559 14.0606 182.846 15.7597 181.576 17.0125C180.306 18.2652 178.584 18.969 176.788 18.969" fill="white"/>
<path d="M171.452 10.352V14.8811C171.452 14.9732 171.415 15.0615 171.349 15.1267C171.283 15.1918 171.193 15.2284 171.1 15.2284H166.576C164.78 15.2284 163.058 14.5246 161.788 13.2719C160.518 12.0191 159.805 10.32 159.805 8.54839V4.09949C159.805 4.00382 159.843 3.91207 159.912 3.84442C159.981 3.77677 160.074 3.73877 160.171 3.73877H164.748C165.637 3.73877 166.518 3.91155 167.339 4.24726C168.161 4.58296 168.907 5.07501 169.536 5.6953C170.165 6.3156 170.664 7.052 171.004 7.86246C171.344 8.67292 171.519 9.54156 171.519 10.4188" fill="white"/>
<path d="M206.27 5.0079C204.307 2.72333 202.343 0.999881 199.201 0.999881C197.861 0.961136 196.534 1.2642 195.348 1.87976C194.161 2.49532 193.156 3.40252 192.43 4.51358C191.172 6.61339 190.591 9.041 190.764 11.4742C190.591 13.9073 191.172 16.3349 192.43 18.4348C193.156 19.5458 194.161 20.453 195.348 21.0686C196.534 21.6841 197.861 21.9872 199.201 21.9484C202.343 21.9484 204.388 20.2116 206.311 17.9404C206.311 17.9404 204.388 16.0967 203.006 17.7534C202.533 18.2864 201.947 18.7109 201.29 18.9971C200.632 19.2832 199.919 19.4242 199.201 19.41C194.488 19.41 193.445 15.2818 193.445 11.4875C193.445 7.69327 194.488 3.55165 199.201 3.55165C199.984 3.54945 200.757 3.72408 201.462 4.06217C202.166 4.40027 202.782 4.89285 203.264 5.50222C204.686 6.71798 206.257 5.04798 206.257 5.04798" fill="white"/>
<path d="M218.892 13.3179H212.283L215.574 5.00796L218.892 13.3179ZM225 21.6813L216.901 1.26715C216.42 1.19211 215.928 1.22265 215.459 1.35657C214.991 1.4905 214.559 1.72453 214.193 2.04203C213.761 2.53863 213.434 3.11554 213.231 3.73876L206.121 21.6813H208.938L211.268 15.7762H219.8L221.303 19.4235C221.542 20.0276 221.876 20.5911 222.291 21.0935C223.087 21.6198 224.054 21.8298 225 21.6813Z" fill="white"/>
<path d="M210.211 29.3632L209.995 29.8308C209.845 29.7403 209.673 29.6899 209.498 29.6843C209.322 29.6788 209.148 29.7183 208.992 29.7991C208.836 29.8799 208.705 29.9992 208.61 30.1452C208.515 30.2913 208.46 30.4592 208.451 30.6324V32.7967C208.451 33.0907 208.302 33.2643 208.112 33.2643H207.895V29.2563H208.451V29.4834C208.576 29.3474 208.732 29.2425 208.906 29.1775C209.08 29.1125 209.268 29.0891 209.453 29.1094C209.722 29.0977 209.989 29.1727 210.211 29.3231" fill="white"/>
<path d="M211.402 32.7968C211.402 33.0773 211.227 33.2644 211.091 33.2644H210.834V29.2563H211.402V32.7968Z" fill="white"/>
<path d="M181.46 27.5598L180.498 28.7622H179.821L180.512 27.5598H181.46Z" fill="white"/>
<path d="M182.191 31.6211H179.605C179.616 31.8279 179.677 32.0291 179.781 32.209C179.881 32.3314 180.009 32.4282 180.156 32.491C180.302 32.5538 180.461 32.5808 180.62 32.5697C180.784 32.5741 180.946 32.5429 181.096 32.4782C181.246 32.4136 181.379 32.3171 181.487 32.1956L182.164 32.6899C181.976 32.9122 181.739 33.09 181.472 33.2103C181.205 33.3305 180.914 33.3901 180.62 33.3846C180.319 33.3994 180.019 33.3399 179.747 33.2116C179.475 33.0833 179.24 32.8903 179.063 32.6498C178.849 32.2361 178.737 31.7783 178.737 31.3138C178.737 30.8494 178.849 30.3915 179.063 29.9778C179.228 29.7425 179.452 29.5527 179.713 29.4264C179.973 29.3002 180.263 29.2416 180.553 29.2564C180.822 29.2544 181.087 29.3195 181.324 29.4457C181.56 29.5718 181.761 29.7548 181.907 29.9778C182.156 30.4883 182.245 31.0603 182.164 31.6211H182.191ZM181.297 30.8061C181.292 30.6721 181.26 30.5404 181.203 30.4187C181.129 30.3059 181.026 30.2143 180.905 30.1533C180.783 30.0923 180.648 30.064 180.512 30.0713C180.293 30.0526 180.076 30.119 179.906 30.2563C179.737 30.3936 179.628 30.591 179.605 30.8061H181.297Z" fill="white"/>
<path d="M188.406 28.0272C188.406 28.1276 188.376 28.2258 188.32 28.3093C188.263 28.3928 188.183 28.4578 188.089 28.4963C187.995 28.5347 187.892 28.5447 187.792 28.5251C187.692 28.5056 187.601 28.4572 187.529 28.3862C187.457 28.3152 187.408 28.2247 187.388 28.1263C187.368 28.0278 187.378 27.9257 187.417 27.8329C187.456 27.7402 187.522 27.6609 187.607 27.6051C187.691 27.5493 187.791 27.5195 187.892 27.5195C188.029 27.5195 188.159 27.573 188.256 27.6682C188.352 27.7634 188.406 27.8926 188.406 28.0272Z" fill="white"/>
<path d="M191.157 29.2964H190.588V32.2356C190.58 32.2977 190.58 32.3605 190.588 32.4226C190.602 32.4308 190.618 32.4351 190.635 32.4351C190.652 32.4351 190.668 32.4308 190.683 32.4226H191.048V33.2509H190.683C190.53 33.256 190.378 33.2218 190.243 33.1515C190.107 33.0812 189.993 32.9773 189.911 32.8501C189.803 32.644 189.752 32.4138 189.762 32.1821V29.2429H189.261V28.4814H189.762V27.5061H190.574V28.4814H191.143L191.157 29.2964Z" fill="white"/>
<path d="M195.463 31.2738C195.491 31.7362 195.393 32.1975 195.179 32.6098C195.002 32.8345 194.775 33.0164 194.515 33.1415C194.256 33.2667 193.971 33.3317 193.682 33.3317C193.394 33.3317 193.109 33.2667 192.849 33.1415C192.59 33.0164 192.363 32.8345 192.186 32.6098C191.97 32.1979 191.872 31.7363 191.901 31.2738C191.877 30.8116 191.975 30.3513 192.186 29.9377C192.363 29.713 192.59 29.5311 192.849 29.406C193.109 29.2809 193.394 29.2158 193.682 29.2158C193.971 29.2158 194.256 29.2809 194.515 29.406C194.775 29.5311 195.002 29.713 195.179 29.9377C195.389 30.3513 195.487 30.8116 195.463 31.2738ZM194.61 31.2738C194.635 30.9579 194.579 30.641 194.447 30.3519C194.351 30.2461 194.233 30.1614 194.101 30.1035C193.969 30.0456 193.827 30.0156 193.682 30.0156C193.538 30.0156 193.395 30.0456 193.263 30.1035C193.132 30.1614 193.014 30.2461 192.917 30.3519C192.787 30.6415 192.732 30.958 192.755 31.2738C192.733 31.5851 192.789 31.8971 192.917 32.1822C193.011 32.292 193.128 32.3801 193.261 32.4406C193.393 32.5011 193.537 32.5324 193.682 32.5324C193.828 32.5324 193.972 32.5011 194.104 32.4406C194.236 32.3801 194.353 32.292 194.447 32.1822C194.575 31.8967 194.631 31.5851 194.61 31.2738Z" fill="white"/>
<path d="M207.205 33.3446C207.205 34.2932 206.203 34.8276 205.349 34.8276C204.496 34.8276 203.751 34.5871 203.751 33.7187C203.749 33.569 203.772 33.42 203.819 33.2778L204.32 33.4515C204.301 33.5305 204.301 33.6129 204.32 33.692C204.32 34.2397 204.984 34.3332 205.404 34.3332C205.823 34.3332 206.758 33.9859 206.758 33.358C206.744 33.2291 206.68 33.1107 206.578 33.0282C206.477 32.9458 206.347 32.9059 206.216 32.9171C205.769 32.9171 205.336 33.1308 204.862 33.1308C204.388 33.1308 204.09 32.9705 204.09 32.5296C204.105 32.3808 204.155 32.2373 204.234 32.11C204.314 31.9827 204.422 31.875 204.55 31.7948C204.297 31.6208 204.109 31.3704 204.013 31.0814C203.917 30.7923 203.918 30.4803 204.018 30.1924C204.117 29.9044 204.309 29.6561 204.563 29.4849C204.818 29.3137 205.123 29.2288 205.431 29.2431C205.797 29.2263 206.158 29.3401 206.446 29.5637C206.504 29.5439 206.556 29.5083 206.594 29.461C206.632 29.4137 206.656 29.3567 206.663 29.2965H207.205C207.198 29.4374 207.155 29.5742 207.079 29.6936C207.003 29.813 206.897 29.911 206.771 29.9779C206.86 30.1848 206.901 30.4082 206.893 30.6325C206.908 30.821 206.879 31.0103 206.809 31.1862C206.739 31.3622 206.629 31.5203 206.489 31.6487C206.348 31.7771 206.18 31.8726 205.997 31.928C205.814 31.9834 205.62 31.9972 205.431 31.9685C205.282 31.9823 205.132 31.9823 204.984 31.9685C204.88 32.0192 204.791 32.0947 204.725 32.188C204.659 32.2814 204.617 32.3897 204.605 32.5029C204.605 32.6232 204.726 32.6766 204.835 32.6766C205.295 32.6766 205.729 32.4495 206.189 32.4495C206.32 32.4347 206.452 32.4465 206.578 32.4842C206.704 32.5218 206.82 32.5846 206.921 32.6684C207.021 32.7523 207.103 32.8556 207.161 32.9719C207.219 33.0882 207.252 33.2151 207.259 33.3446H207.205ZM206.338 30.6726C206.338 30.0714 206.027 29.8042 205.431 29.8042C204.835 29.8042 204.51 30.0714 204.51 30.6726C204.497 30.795 204.512 30.9186 204.554 31.0346C204.596 31.1505 204.663 31.2558 204.751 31.3428C204.839 31.4298 204.946 31.4963 205.064 31.5375C205.181 31.5788 205.307 31.5936 205.431 31.5811C205.555 31.5967 205.681 31.5839 205.799 31.5435C205.917 31.5032 206.025 31.4365 206.112 31.3485C206.2 31.2606 206.266 31.1539 206.305 31.0366C206.345 30.9194 206.356 30.7948 206.338 30.6726Z" fill="white"/>
<path d="M212.134 27.573L211.349 28.7754H210.794L211.511 27.573H212.134Z" fill="white"/>
<path d="M215.425 32.6501C215.269 32.8591 215.065 33.0285 214.829 33.1447C214.594 33.2608 214.334 33.3202 214.071 33.3181C213.81 33.3185 213.552 33.2638 213.314 33.1577C213.077 33.0515 212.865 32.8964 212.693 32.7028C212.521 32.5092 212.393 32.2815 212.318 32.035C212.242 31.7886 212.221 31.5291 212.256 31.274C212.221 31.0189 212.242 30.7594 212.318 30.513C212.393 30.2665 212.521 30.0388 212.693 29.8452C212.865 29.6516 213.077 29.4965 213.314 29.3904C213.552 29.2842 213.81 29.2295 214.071 29.2299C214.336 29.226 214.598 29.286 214.834 29.4048C215.07 29.5235 215.273 29.6974 215.425 29.9113L215.046 30.272C214.933 30.1124 214.784 29.9818 214.609 29.8912C214.435 29.8005 214.241 29.7524 214.044 29.751C213.096 29.751 212.825 30.4724 212.825 31.274C212.825 32.0756 213.096 32.8104 214.044 32.8104C214.241 32.809 214.435 32.7609 214.609 32.6702C214.784 32.5796 214.933 32.449 215.046 32.2894L215.425 32.6501Z" fill="white"/>
<path d="M219.529 31.2872C219.529 32.4228 219.136 33.3313 217.836 33.3313C216.536 33.3313 216.129 32.4228 216.129 31.3005C216.129 30.1783 216.536 29.2297 217.836 29.2297C219.136 29.2297 219.529 30.1649 219.529 31.2872ZM218.973 31.2872C218.973 30.4722 218.811 29.7641 217.822 29.7641C216.834 29.7641 216.685 30.4722 216.685 31.2872C216.685 32.1021 216.861 32.7969 217.822 32.7969C218.784 32.7969 218.973 32.0888 218.973 31.2872Z" fill="white"/>
<path d="M221.166 33.2646C221.039 33.2806 220.91 33.2672 220.789 33.2255C220.668 33.1838 220.559 33.1148 220.47 33.024C220.38 32.9333 220.314 32.8233 220.275 32.7027C220.236 32.5821 220.227 32.4543 220.247 32.3294V27.5598H220.815V32.3026C220.815 32.5832 220.815 32.7302 221.166 32.7302V33.2646Z" fill="white"/>
<path d="M175.257 28.8154C175.195 28.8641 175.127 28.9046 175.054 28.9356C174.951 28.9899 174.835 29.0125 174.719 29.0006C174.603 28.9887 174.493 28.9428 174.404 28.8688C174.278 28.7071 174.116 28.5761 173.93 28.4858C173.745 28.3955 173.541 28.3482 173.334 28.3478C172.088 28.3478 171.804 29.4166 171.804 30.472C171.804 31.5274 172.088 32.5962 173.334 32.5962C173.522 32.5975 173.708 32.5601 173.881 32.4865C174.053 32.4129 174.209 32.3047 174.336 32.1687C174.412 32.0675 174.52 31.9951 174.644 31.9634C174.767 31.9318 174.898 31.943 175.014 31.995L175.257 32.1286L175.406 32.2622C175.183 32.5936 174.884 32.8689 174.534 33.0661C174.183 33.2633 173.791 33.3769 173.388 33.3978C173.008 33.405 172.632 33.3168 172.296 33.1415C171.96 32.9663 171.674 32.7097 171.465 32.3958C171.111 31.7981 170.946 31.1095 170.991 30.4186C170.945 29.7317 171.11 29.047 171.465 28.4546C171.672 28.139 171.957 27.881 172.294 27.7055C172.631 27.5301 173.008 27.443 173.388 27.4526C173.79 27.4725 174.18 27.5858 174.529 27.7831C174.877 27.9805 175.173 28.2564 175.393 28.5882L175.257 28.7085" fill="white"/>
<path d="M178.453 29.4703L178.074 30.0848C177.929 30.0028 177.767 29.9526 177.6 29.9379C176.896 29.9379 176.855 30.7795 176.855 30.8196V32.7168C176.861 32.7867 176.852 32.8571 176.828 32.9234C176.805 32.9897 176.768 33.0505 176.72 33.1019C176.671 33.1534 176.613 33.1944 176.548 33.2224C176.482 33.2504 176.412 33.2647 176.341 33.2645H176.056V29.2565H176.923V29.5771C177.143 29.3474 177.443 29.2088 177.763 29.1897C178.037 29.1746 178.307 29.2603 178.521 29.4302" fill="white"/>
<path d="M188.325 32.6498C188.333 32.7973 188.285 32.9424 188.19 33.0563C188.094 33.1701 187.959 33.2444 187.811 33.2644H187.459V29.2563H188.325V32.6498Z" fill="white"/>
<path d="M199.648 30.98H201.557L200.596 28.5752L199.648 30.98ZM201.774 31.5411H199.418L198.741 33.2646H198.077L200.081 28.2278C200.143 28.0535 200.235 27.8909 200.352 27.7469C200.406 27.6703 200.48 27.6091 200.565 27.5692C200.651 27.5294 200.745 27.5123 200.84 27.5198L203.101 33.2646C202.993 33.2826 202.882 33.2764 202.776 33.2463C202.671 33.2163 202.574 33.1631 202.492 33.0909C202.378 32.9472 202.282 32.7902 202.207 32.6233L201.774 31.5411Z" fill="white"/>
<path d="M224.973 33.2647H224.729C224.607 33.2647 224.472 33.1311 224.431 32.9173C224.283 33.0595 224.107 33.1697 223.913 33.241C223.72 33.3123 223.513 33.3431 223.307 33.3315C223.139 33.3423 222.97 33.32 222.81 33.266C222.651 33.2119 222.504 33.127 222.378 33.0164C222.252 32.9058 222.149 32.7715 222.076 32.6215C222.004 32.4715 221.961 32.3086 221.953 32.1424C221.956 31.9739 221.994 31.8077 222.065 31.6544C222.136 31.501 222.238 31.3637 222.365 31.2509C222.492 31.1381 222.641 31.0523 222.803 30.9988C222.965 30.9454 223.137 30.9253 223.307 30.94H223.998C224.156 30.9471 224.311 30.8946 224.431 30.7931V30.3923C224.431 29.9514 223.957 29.7777 223.578 29.7777C223.369 29.7547 223.158 29.8032 222.98 29.915C222.803 30.0269 222.67 30.1953 222.603 30.3923L222.102 30.2052C222.188 29.8919 222.386 29.6201 222.66 29.4406C222.935 29.2611 223.266 29.1862 223.592 29.2299C223.758 29.2172 223.926 29.2373 224.084 29.2891C224.243 29.3408 224.389 29.4232 224.515 29.5313C224.641 29.6395 224.744 29.7713 224.818 29.9191C224.892 30.0669 224.936 30.2278 224.946 30.3923L224.973 33.2647ZM224.431 31.9287V31.3141H224.025H223.334C223.125 31.3087 222.922 31.3792 222.762 31.5122C222.602 31.6452 222.497 31.8314 222.468 32.0355C222.475 32.2246 222.557 32.4033 222.696 32.5332C222.835 32.6631 223.021 32.7339 223.212 32.7303C223.659 32.7303 224.404 32.6234 224.431 31.9153V31.9287Z" fill="white"/>
<path d="M186.349 33.251H185.997C185.897 33.2439 185.802 33.2086 185.723 33.1493C185.644 33.09 185.584 33.0094 185.55 32.917C185.446 33.042 185.316 33.1436 185.169 33.2151C185.021 33.2865 184.861 33.3261 184.697 33.3312C184.41 33.3416 184.126 33.2765 183.874 33.1426C183.622 33.0088 183.41 32.811 183.261 32.5697C183.06 32.1534 182.967 31.6943 182.99 31.2336C182.962 30.7727 183.055 30.3124 183.261 29.8976C183.41 29.6563 183.622 29.4585 183.874 29.3247C184.126 29.1908 184.41 29.1257 184.697 29.1361C184.973 29.1368 185.245 29.196 185.496 29.3098V27.573H186.362V33.2644L186.349 33.251ZM185.536 30.6592C185.531 30.5337 185.498 30.4108 185.441 30.2984C185.365 30.1845 185.26 30.0924 185.137 30.0314C185.013 29.9704 184.875 29.9427 184.737 29.9511C184.601 29.9451 184.466 29.974 184.345 30.0348C184.224 30.0957 184.121 30.1866 184.047 30.2984C183.917 30.588 183.861 30.9045 183.884 31.2203C183.85 31.5365 183.907 31.8557 184.047 32.1421C184.121 32.254 184.224 32.3448 184.345 32.4057C184.466 32.4666 184.601 32.4955 184.737 32.4895C184.876 32.5007 185.014 32.4743 185.139 32.413C185.263 32.3518 185.368 32.2581 185.441 32.1421C185.506 32.0136 185.539 31.8715 185.536 31.728V30.6592Z" fill="white"/>
<path d="M171.451 15.8562V21.6812H170.964V15.8562C170.964 15.7924 170.989 15.7313 171.035 15.6862C171.081 15.6411 171.143 15.6157 171.207 15.6157C171.272 15.6157 171.334 15.6411 171.379 15.6862C171.425 15.7313 171.451 15.7924 171.451 15.8562Z" fill="white"/>
</g>
<defs>
<clipPath id="clip0_3341_98033">
<rect width="225" height="41" fill="white"/>
</clipPath>
</defs>
</svg>
