<?xml version="1.0" encoding="utf-8"?>
<!-- Generator: Adobe Illustrator 22.1.0, SVG Export Plug-In . SVG Version: 6.00 Build 0)  -->
<svg version="1.1" id="Layer_1" xmlns="http://www.w3.org/2000/svg" xmlns:xlink="http://www.w3.org/1999/xlink" x="0px" y="0px"
	 viewBox="0 0 94.1 117.1" style="enable-background:new 0 0 94.1 117.1;" xml:space="preserve">
<style type="text/css">
	.st0{fill:#FFFFFF;}
	.st1{fill:#DF1E26;}
</style>
<polygon class="st0" points="-687.8,77.6 -751.8,77.6 -767.9,90.3 -741.7,90.3 -741.7,134.6 -725.5,134.6 -725.5,90.3 -703.9,90.3 
	"/>
<path class="st0" d="M-583.7,110.3l5.9-0.1c5.9,0,19.3-0.7,19.3-16c0-15.7-14.9-16.6-21.5-16.6h-37.3l-16.1,12.9l0,44.2h16.4
	l-0.1-24.3h12.6l24.1,24.3h22.2L-583.7,110.3z M-588,100.1h-29.1l0-9.8h36.2c3.2,0,5.7,0.7,6.4,4.4c1,5.8-5.4,5.5-6.8,5.5
	L-588,100.1L-588,100.1z"/>
<path class="st1" d="M-166.5,99.9l-36.8,0c-2.7-0.2-4.8-2.2-4.8-5.1c0-3.6,3.1-5,4.9-5h39.1l16.2-13h-58.6
	c-8.8,0-17.1,7.9-17.1,17.6c0,13.8,12.4,18.1,17.4,18.1h36.4c3.9,0,4.9,3.2,4.9,4.4c0,2.7-2.1,4.6-4.4,4.6h-52.6v12.3h54.8
	c12.7,0,17.1-11.1,17.1-16.1C-149.8,107.9-156.9,99.9-166.5,99.9z"/>
<polygon class="st0" points="-681,90.3 -681.1,100.1 -640.4,100.1 -640.4,111.7 -681.1,111.7 -681.1,121.9 -640.4,121.9 
	-640.4,134.6 -697.3,134.6 -697.3,100.1 -697.2,90.3 -697.3,90.3 -681.3,77.6 -624.2,77.6 -640.1,90.3 "/>
<polygon class="st0" points="-538,90.3 -538.1,100.1 -497.4,100.1 -497.4,111.7 -538.1,111.7 -538.1,121.9 -497.4,121.9 
	-497.4,134.6 -554.3,134.6 -554.3,100.1 -554.2,90.3 -554.3,90.3 -538.3,77.6 -481.2,77.6 -497.1,90.3 "/>
<path class="st0" d="M-414.3,90.1c-1-2.5-2.6-4.8-4.8-6.9c-3.9-3.8-9.3-5.6-16.1-5.6h-41.2l-15.9,12.7h0l0,23.7l0,0l0,20.7h57.1
	c6.7,0,12.1-1.9,16.1-5.8c4-3.8,6-8.2,6-13.1l0-19.4C-413.1,94.2-413.5,92.1-414.3,90.1z M-429.4,113.2c0,2.6-1,4.6-2.8,6.2
	c-1.8,1.5-4.2,2.3-7.1,2.4H-476l0-7.8l0,0l0-1.2l0-12.7h0l0-9.8l36.6,0c0.2,0,0.4,0,0.5,0c2.7,0.1,4.9,0.7,6.6,2.2
	c1.8,1.5,2.8,3.6,2.8,6.2L-429.4,113.2z"/>
<path class="st1" d="M-228.4,107.5c-1.4-1.4-2.9-2.4-4.7-3.1c0.5-0.6,0.9-1,1.2-1.1c3.1-3,4.7-6.6,4.7-10.8c0-4.1-1.5-7.7-4.7-10.7
	c-3.2-3-7.2-4.5-12.2-4.5h-39.5L-299.6,90h0l0,12.8h0l0,31.5h58.6c5.2,0,9.4-1.6,12.6-4.7c3.3-3.2,4.9-6.9,4.9-11.2
	C-223.5,114.2-225.1,110.6-228.4,107.5z M-250.1,90c4.8,0,6,3.3,6,4.7c0,1.5-0.6,2.8-1.7,3.9c-1.2,1.1-2.6,1.1-4.4,1.1h-33.1l0-9.8
	H-250.1z M-241.8,120.5c-1.2,1.1-2.7,1.6-4.5,1.7h-37.1l0-11.2h37.2c1.8,0,3.2,0.5,4.4,1.6c1.2,1.1,1.7,2.4,1.7,3.9
	C-240.1,118-240.6,119.3-241.8,120.5z"/>
<path class="st0" d="M-801.7,77.6h-16.2h0v0l-35.6,33.5v23.5h0.1l35.5-33.1l0,20.9c-1.2,0-7.8,0-7.8,0l-13.1,12.2c0,0,33.6,0,37.1,0
	l0-22.2h0L-801.7,77.6L-801.7,77.6z"/>
<path class="st1" d="M-303.9,77.6h-16.2h0v0l-35.6,33.5v23.5h0.1l35.5-33.1l0,20.9c-1.2,0-7.8,0-7.8,0l-13.1,12.2c0,0,33.6,0,37.1,0
	l0-22.2h0L-303.9,77.6L-303.9,77.6z"/>
<polygon class="st0" points="-780.7,122.4 -780.7,77.6 -796.9,90.4 -796.9,134.6 -783.9,134.6 -783.9,134.6 -750.1,134.6 
	-750.1,122.4 "/>
<polygon class="st1" points="-391.2,122.4 -391.2,77.6 -407.4,90.4 -407.4,134.6 -394.4,134.6 -394.4,134.6 -360.6,134.6 
	-360.6,122.4 "/>
<polygon class="st1" points="7.3,49.1 0,65.9 28.6,98.2 "/>
<polygon class="st1" points="86.8,49.1 94.1,65.9 65.5,98.2 "/>
<polygon points="54.6,41.3 39.4,41.3 2.8,0 9.7,41.2 19.1,60.2 29.9,60.2 24.4,70.9 47,116.9 47,117.1 47,117 47.1,117.1 
	47.1,116.9 69.7,70.9 64.1,60.2 75,60.2 84.3,41.2 91.2,0 "/>
</svg>
