<?xml version="1.0" encoding="UTF-8"?>
<svg width="16px" height="16px" viewBox="0 0 16 16" version="1.1" xmlns="http://www.w3.org/2000/svg" xmlns:xlink="http://www.w3.org/1999/xlink">
    <title>Path</title>
    <g id="Produtos" stroke="none" stroke-width="1" fill="none" fill-rule="evenodd">
        <g id="Modal-formas-de-pagamento" transform="translate(-783.000000, -39.000000)" fill="#009933" fill-rule="nonzero">
            <g id="Group" transform="translate(783.000000, 37.000000)">
                <path d="M9.41502158,9.99983323 L15.7068229,3.70803194 C16.0977257,3.31746263 16.0977257,2.68374643 15.7068229,2.29317713 C15.31592,1.90227429 14.6828709,1.90227429 14.2919681,2.29317713 L8.00016677,8.58497842 L1.70803194,2.29317713 C1.3171291,1.90227429 0.684079965,1.90227429 0.293177128,2.29317713 C-0.0977257093,2.68374643 -0.0977257093,3.31746263 0.293177128,3.70803194 L6.58531196,9.99983323 L0.293177128,16.2916345 C-0.0977257093,16.6822038 -0.0977257093,17.31592 0.293177128,17.7064893 C0.488628546,17.9016072 0.744783307,17.9993329 1.00060453,17.9993329 C1.25642576,17.9993329 1.51258052,17.9016072 1.70803194,17.7061558 L8.00016677,11.4143545 L14.2919681,17.7061558 C14.4874195,17.9016072 14.7435742,17.9993329 14.9993955,17.9993329 C15.2552167,17.9993329 15.5113715,17.9016072 15.7068229,17.7061558 C16.0977257,17.3155865 16.0977257,16.6818703 15.7068229,16.291301 L9.41502158,9.99983323 Z" id="Path"></path>
            </g>
        </g>
    </g>
</svg>