<svg width="24" height="16" viewBox="0 0 24 16" fill="none" xmlns="http://www.w3.org/2000/svg">
<path fill-rule="evenodd" clip-rule="evenodd" d="M2.49511 0H21.4581C22.8334 0 23.9532 1.11981 23.9532 2.49516V13.4737C23.9532 14.849 22.8334 15.9688 21.4581 15.9688H2.49511C1.11981 15.9688 0 14.849 0 13.4737V2.49516C0 1.11981 1.11981 0 2.49511 0ZM21.4581 14.9708C22.2835 14.9708 22.9552 14.2991 22.9552 13.4737H22.9551V2.49517C22.9551 1.66977 22.2835 0.998093 21.4581 0.998093H2.49512C1.66972 0.998093 0.998043 1.66977 0.998043 2.49517V13.4737C0.998043 14.2991 1.66972 14.9708 2.49512 14.9708H21.4581Z" fill="white"/>
<path fill-rule="evenodd" clip-rule="evenodd" d="M4.49708 5H5.49511C6.32052 5 6.99219 5.67172 6.99219 6.49708V7.49511C6.99219 8.32052 6.32052 8.99219 5.49511 8.99219H4.49708C3.67167 8.99219 3 8.32052 3 7.49511V6.49708C3 5.67167 3.67167 5 4.49708 5ZM5.49509 7.99416C5.77056 7.99416 5.99414 7.77058 5.99414 7.49512V6.49708C5.99414 6.22162 5.77056 5.99804 5.49509 5.99804H4.49706C4.2216 5.99804 3.99802 6.22162 3.99802 6.49708V7.49512C3.99802 7.77058 4.2216 7.99416 4.49706 7.99416H5.49509Z" fill="white"/>
<path fill-rule="evenodd" clip-rule="evenodd" d="M19.0723 10.7967V11.7112C19.0001 12.6678 18.3727 12.7834 17.4322 12.8373V15.0001H23.7373V12.8412C22.7968 12.7834 22.1667 12.6717 22.0944 11.7112V10.7993L19.0723 10.7967Z" fill="white"/>
<path fill-rule="evenodd" clip-rule="evenodd" d="M8.66501 6.8559H23.835C23.9261 6.8559 24 6.91481 24 6.98629V6.98822C24 7.05969 23.9261 7.11861 23.835 7.11861H8.66501C8.57392 7.11861 8.5 7.05969 8.5 6.98822V6.98629C8.5 6.91385 8.57392 6.8559 8.66501 6.8559Z" fill="white"/>
<path fill-rule="evenodd" clip-rule="evenodd" d="M8.66501 7.64404H23.835C23.9261 7.64404 24 7.70296 24 7.77443V7.77636C24 7.84784 23.9261 7.90675 23.835 7.90675H8.66501C8.57392 7.90675 8.5 7.8488 8.5 7.77636V7.77443C8.5 7.70296 8.57392 7.64404 8.66501 7.64404Z" fill="white"/>
<path fill-rule="evenodd" clip-rule="evenodd" d="M8.66501 8.43219H23.835C23.9261 8.43219 24 8.49111 24 8.56258V8.56451C24 8.63598 23.9261 8.6949 23.835 8.6949H8.66501C8.57392 8.6949 8.5 8.63598 8.5 8.56451V8.56258C8.5 8.49014 8.57392 8.43219 8.66501 8.43219Z" fill="white"/>
<path fill-rule="evenodd" clip-rule="evenodd" d="M8.66501 9.22034H23.835C23.9261 9.22034 24 9.27925 24 9.35073V9.35266C24 9.42413 23.9261 9.48305 23.835 9.48305H8.66501C8.57392 9.48305 8.5 9.42413 8.5 9.35266V9.35073C8.5 9.27925 8.57392 9.22034 8.66501 9.22034Z" fill="white"/>
<path fill-rule="evenodd" clip-rule="evenodd" d="M8.66501 10.0085H23.835C23.9261 10.0085 24 10.0674 24 10.1389V10.1408C24 10.2123 23.9261 10.2712 23.835 10.2712H8.66501C8.57392 10.2712 8.5 10.2132 8.5 10.1408V10.1389C8.5 10.0674 8.57392 10.0085 8.66501 10.0085Z" fill="white"/>
<path fill-rule="evenodd" clip-rule="evenodd" d="M8.7627 15H15.0304L15.0225 12.8386C14.5791 12.8386 14.2888 12.8044 14.0935 12.6382C13.889 12.4721 13.8969 12.2716 14.1186 11.9406L19.1934 4.49927V6.96522H22.161V0.813538H18.5785L11.2869 11.454C10.5282 12.5683 10.2722 12.865 8.7627 12.8386V15Z" fill="white"/>
</svg>
