<svg width="20" height="20" viewBox="0 0 20 20" fill="none" xmlns="http://www.w3.org/2000/svg">
<g clip-path="url(#clip0)">
<path d="M10 5.22223H0.800758C0.703479 5.2221 0.607938 5.19644 0.523691 5.1478C0.439444 5.09916 0.369446 5.02925 0.320698 4.94507C0.271951 4.86088 0.246162 4.76537 0.245912 4.66809C0.245663 4.57082 0.270961 4.47518 0.319277 4.39074L2.53076 0.518521C2.57931 0.433669 2.6494 0.363132 2.73394 0.314034C2.81848 0.264936 2.91448 0.239016 3.01224 0.238892H10C10.1474 0.238892 10.2887 0.297423 10.3929 0.40161C10.497 0.505797 10.5556 0.647105 10.5556 0.794447C10.5556 0.94179 10.497 1.0831 10.3929 1.18728C10.2887 1.29147 10.1474 1.35 10 1.35H3.33557L1.75817 4.11111H10C10.1474 4.11111 10.2887 4.16965 10.3929 4.27383C10.497 4.37802 10.5556 4.51933 10.5556 4.66667C10.5556 4.81401 10.497 4.95532 10.3929 5.05951C10.2887 5.16369 10.1474 5.22223 10 5.22223Z" fill="white"/>
<path d="M19.1993 5.22222H9.99999C9.85265 5.22222 9.71134 5.16369 9.60716 5.05951C9.50297 4.95532 9.44444 4.81401 9.44444 4.66667C9.44444 4.51933 9.50297 4.37802 9.60716 4.27383C9.71134 4.16964 9.85265 4.11111 9.99999 4.11111H18.2418L16.6644 1.35H9.99999C9.85265 1.35 9.71134 1.29147 9.60716 1.18728C9.50297 1.0831 9.44444 0.94179 9.44444 0.794447C9.44444 0.647105 9.50297 0.505797 9.60716 0.40161C9.71134 0.297423 9.85265 0.238892 9.99999 0.238892H16.9867C17.0844 0.239016 17.1804 0.264936 17.265 0.314034C17.3495 0.363132 17.4196 0.433669 17.4681 0.518521L19.6815 4.39037C19.7298 4.47481 19.7551 4.57044 19.7548 4.66772C19.7546 4.765 19.7288 4.86051 19.6801 4.94469C19.6313 5.02888 19.5613 5.09879 19.4771 5.14743C19.3928 5.19606 19.2973 5.22173 19.2 5.22185L19.1993 5.22222ZM3.10073 9.35815C2.34366 9.35727 1.61785 9.05613 1.08253 8.5208C0.547196 7.98547 0.24606 7.25966 0.245178 6.50259V4.66667C0.245178 4.51933 0.30371 4.37802 0.407897 4.27383C0.512083 4.16964 0.653391 4.11111 0.800734 4.11111C0.948076 4.11111 1.08938 4.16964 1.19357 4.27383C1.29776 4.37802 1.35629 4.51933 1.35629 4.66667V6.50296C1.35292 6.73416 1.39555 6.96372 1.48169 7.1783C1.56784 7.39288 1.69578 7.58819 1.85809 7.75287C2.02039 7.91756 2.21381 8.04833 2.42711 8.1376C2.64041 8.22686 2.86933 8.27283 3.10055 8.27283C3.33177 8.27283 3.56069 8.22686 3.77398 8.1376C3.98728 8.04833 4.18071 7.91756 4.34301 7.75287C4.50531 7.58819 4.63326 7.39288 4.7194 7.1783C4.80555 6.96372 4.84818 6.73416 4.84481 6.50296V4.66667C4.84481 4.51933 4.90334 4.37802 5.00753 4.27383C5.11171 4.16964 5.25302 4.11111 5.40036 4.11111C5.54771 4.11111 5.68901 4.16964 5.7932 4.27383C5.89739 4.37802 5.95592 4.51933 5.95592 4.66667V6.50296C5.95504 7.25994 5.65394 7.98565 5.11868 8.52091C4.58342 9.05617 3.8577 9.35727 3.10073 9.35815Z" fill="white"/>
<path d="M7.70034 9.35818C6.94327 9.3573 6.21746 9.05617 5.68214 8.52084C5.14681 7.98551 4.84567 7.2597 4.84479 6.50263V4.6667C4.84479 4.51936 4.90332 4.37805 5.00751 4.27386C5.11169 4.16968 5.253 4.11115 5.40034 4.11115C5.54769 4.11115 5.68899 4.16968 5.79318 4.27386C5.89737 4.37805 5.9559 4.51936 5.9559 4.6667V6.503C5.95253 6.7342 5.99516 6.96376 6.0813 7.17833C6.16745 7.39291 6.29539 7.58822 6.4577 7.7529C6.62 7.91759 6.81342 8.04837 7.02672 8.13763C7.24002 8.22689 7.46894 8.27286 7.70016 8.27286C7.93138 8.27286 8.1603 8.22689 8.3736 8.13763C8.58689 8.04837 8.78032 7.91759 8.94262 7.7529C9.10493 7.58822 9.23287 7.39291 9.31902 7.17833C9.40516 6.96376 9.44779 6.7342 9.44442 6.503V4.6667C9.44442 4.51936 9.50295 4.37805 9.60714 4.27386C9.71132 4.16968 9.85263 4.11115 9.99997 4.11115C10.1473 4.11115 10.2886 4.16968 10.3928 4.27386C10.497 4.37805 10.5555 4.51936 10.5555 4.6667V6.503C10.5546 7.25997 10.2536 7.98568 9.71829 8.52094C9.18303 9.0562 8.45732 9.3573 7.70034 9.35818Z" fill="white"/>
<path d="M12.2996 9.35818C11.5426 9.3573 10.8168 9.05615 10.2816 8.52081C9.7463 7.98547 9.44524 7.25966 9.44446 6.50263V4.6667C9.44446 4.51936 9.50299 4.37805 9.60718 4.27386C9.71136 4.16968 9.85267 4.11115 10 4.11115C10.1474 4.11115 10.2887 4.16968 10.3929 4.27386C10.497 4.37805 10.5556 4.51936 10.5556 4.6667V6.503C10.5522 6.7342 10.5948 6.96376 10.681 7.17833C10.7671 7.39291 10.8951 7.58822 11.0574 7.7529C11.2197 7.91759 11.4131 8.04837 11.6264 8.13763C11.8397 8.22689 12.0686 8.27286 12.2998 8.27286C12.531 8.27286 12.76 8.22689 12.9733 8.13763C13.1866 8.04837 13.38 7.91759 13.5423 7.7529C13.7046 7.58822 13.8325 7.39291 13.9187 7.17833C14.0048 6.96376 14.0475 6.7342 14.0441 6.503V4.6667C14.0441 4.51936 14.1026 4.37805 14.2068 4.27386C14.311 4.16968 14.4523 4.11115 14.5996 4.11115C14.747 4.11115 14.8883 4.16968 14.9925 4.27386C15.0967 4.37805 15.1552 4.51936 15.1552 4.6667V6.503C15.1542 7.26 14.853 7.98572 14.3177 8.52097C13.7824 9.05622 13.0566 9.3573 12.2996 9.35818Z" fill="white"/>
<path d="M16.8993 9.35818C16.1422 9.3573 15.4164 9.05615 14.8812 8.52081C14.3459 7.98547 14.0449 7.25966 14.0441 6.50263V4.6667C14.0441 4.51936 14.1026 4.37805 14.2068 4.27386C14.311 4.16968 14.4523 4.11115 14.5996 4.11115C14.747 4.11115 14.8883 4.16968 14.9925 4.27386C15.0966 4.37805 15.1552 4.51936 15.1552 4.6667V6.503C15.1518 6.7342 15.1944 6.96376 15.2806 7.17833C15.3667 7.39291 15.4947 7.58822 15.657 7.7529C15.8193 7.91759 16.0127 8.04837 16.226 8.13763C16.4393 8.22689 16.6682 8.27286 16.8994 8.27286C17.1307 8.27286 17.3596 8.22689 17.5729 8.13763C17.7862 8.04837 17.9796 7.91759 18.1419 7.7529C18.3042 7.58822 18.4321 7.39291 18.5183 7.17833C18.6044 6.96376 18.6471 6.7342 18.6437 6.503V4.6667C18.6437 4.51936 18.7022 4.37805 18.8064 4.27386C18.9106 4.16968 19.0519 4.11115 19.1993 4.11115C19.3466 4.11115 19.4879 4.16968 19.5921 4.27386C19.6963 4.37805 19.7548 4.51936 19.7548 4.6667V6.503C19.7538 7.26 19.4526 7.98572 18.9173 8.52097C18.382 9.05622 17.6563 9.3573 16.8993 9.35818Z" fill="white"/>
<path d="M14.5993 5.22224C14.4799 5.2222 14.3637 5.18371 14.2679 5.11247C14.1721 5.04122 14.1018 4.94101 14.0674 4.82668L12.903 0.954462C12.8605 0.813357 12.8758 0.661154 12.9455 0.531337C13.0153 0.401521 13.1337 0.304723 13.2748 0.26224C13.4159 0.219756 13.5681 0.235066 13.6979 0.304802C13.8278 0.374537 13.9246 0.492986 13.967 0.634091L15.1315 4.50631C15.1739 4.64717 15.1588 4.79912 15.0893 4.92882C15.0199 5.05852 14.9019 5.15538 14.7611 5.19816C14.7087 5.21427 14.6541 5.22239 14.5993 5.22224ZM5.40074 5.22224C5.3464 5.22236 5.29235 5.21437 5.24037 5.19853C5.09961 5.15575 4.98157 5.05889 4.91214 4.92919C4.8427 4.79949 4.82755 4.64754 4.87 4.50668L6.03296 0.634091C6.07545 0.492986 6.17224 0.374537 6.30206 0.304802C6.36634 0.270272 6.43679 0.248741 6.50939 0.241438C6.58199 0.234135 6.65532 0.241204 6.72519 0.26224C6.79505 0.283275 6.86009 0.317867 6.91659 0.364039C6.97309 0.410211 7.01995 0.467059 7.05448 0.531337C7.08901 0.595616 7.11054 0.666067 7.11784 0.738667C7.12514 0.811266 7.11807 0.884593 7.09704 0.954462L5.93259 4.82631C5.89828 4.94071 5.82801 5.041 5.73221 5.11232C5.63641 5.18363 5.52017 5.22218 5.40074 5.22224ZM10 5.22224C9.85266 5.22224 9.71135 5.16371 9.60716 5.05952C9.50298 4.95533 9.44445 4.81403 9.44445 4.66668V0.794462C9.44445 0.647119 9.50298 0.505811 9.60716 0.401625C9.71135 0.297438 9.85266 0.238906 10 0.238906C10.1473 0.238906 10.2887 0.297438 10.3928 0.401625C10.497 0.505811 10.5556 0.647119 10.5556 0.794462V4.66668C10.5556 4.81403 10.497 4.95533 10.3928 5.05952C10.2887 5.16371 10.1473 5.22224 10 5.22224ZM10 19.0204H1.73482C1.58747 19.0204 1.44617 18.9619 1.34198 18.8577C1.23779 18.7535 1.17926 18.6122 1.17926 18.4648V8.35002C1.17926 8.20267 1.23779 8.06137 1.34198 7.95718C1.44617 7.85299 1.58747 7.79446 1.73482 7.79446C1.88216 7.79446 2.02347 7.85299 2.12765 7.95718C2.23184 8.06137 2.29037 8.20267 2.29037 8.35002V17.9093H10C10.1473 17.9093 10.2887 17.9678 10.3928 18.072C10.497 18.1762 10.5556 18.3175 10.5556 18.4648C10.5556 18.6122 10.497 18.7535 10.3928 18.8577C10.2887 18.9619 10.1473 19.0204 10 19.0204Z" fill="white"/>
<path d="M18.2652 19.0204H10C9.85267 19.0204 9.71136 18.9618 9.60718 18.8576C9.50299 18.7535 9.44446 18.6121 9.44446 18.4648C9.44446 18.3175 9.50299 18.1762 9.60718 18.072C9.71136 17.9678 9.85267 17.9092 10 17.9092H17.7096V8.34999C17.7096 8.20265 17.7682 8.06134 17.8724 7.95715C17.9765 7.85297 18.1179 7.79443 18.2652 7.79443C18.4125 7.79443 18.5538 7.85297 18.658 7.95715C18.7622 8.06134 18.8208 8.20265 18.8208 8.34999V18.4648C18.8208 18.6121 18.7622 18.7535 18.658 18.8576C18.5538 18.9618 18.4125 19.0204 18.2652 19.0204Z" fill="white"/>
<path d="M14.4004 18.8815C14.253 18.8815 14.1117 18.8229 14.0075 18.7187C13.9033 18.6146 13.8448 18.4732 13.8448 18.3259V12.45H6.15518V18.2859C6.15518 18.4332 6.09665 18.5746 5.99246 18.6787C5.88827 18.7829 5.74697 18.8415 5.59962 18.8415C5.45228 18.8415 5.31097 18.7829 5.20679 18.6787C5.1026 18.5746 5.04407 18.4332 5.04407 18.2859V11.8944C5.04407 11.7471 5.1026 11.6058 5.20679 11.5016C5.31097 11.3974 5.45228 11.3389 5.59962 11.3389H14.4004C14.5477 11.3389 14.689 11.3974 14.7932 11.5016C14.8974 11.6058 14.9559 11.7471 14.9559 11.8944V18.3259C14.9559 18.4732 14.8974 18.6146 14.7932 18.7187C14.689 18.8229 14.5477 18.8815 14.4004 18.8815Z" fill="white"/>
</g>
<defs>
<clipPath id="clip0">
<rect width="20" height="19.2593" fill="white"/>
</clipPath>
</defs>
</svg>
