<svg width="25" height="24" viewBox="0 0 25 24" fill="none" xmlns="http://www.w3.org/2000/svg">
<path d="M13.9 8C13.9 8.33137 14.1686 8.6 14.5 8.6C14.8314 8.6 15.1 8.33137 15.1 8H13.9ZM12.5 4V3.4V4ZM5.5 4V3.4V4ZM3.5 6H2.9H3.5ZM3.5 18H2.9H3.5ZM15.1 16C15.1 15.6686 14.8314 15.4 14.5 15.4C14.1686 15.4 13.9 15.6686 13.9 16H15.1ZM7.5 11.4C7.16863 11.4 6.9 11.6686 6.9 12C6.9 12.3314 7.16863 12.6 7.5 12.6V11.4ZM21.5 12L21.9243 12.4243C22.1586 12.1899 22.1586 11.8101 21.9243 11.5757L21.5 12ZM18.9243 8.57574C18.6899 8.34142 18.3101 8.34142 18.0757 8.57574C17.8414 8.81005 17.8414 9.18995 18.0757 9.42426L18.9243 8.57574ZM18.0757 14.5757C17.8414 14.8101 17.8414 15.1899 18.0757 15.4243C18.3101 15.6586 18.6899 15.6586 18.9243 15.4243L18.0757 14.5757ZM15.1 8V6H13.9V8H15.1ZM15.1 6C15.1 5.31044 14.8261 4.64912 14.3385 4.16152L13.4899 5.01005C13.7525 5.2726 13.9 5.6287 13.9 6H15.1ZM14.3385 4.16152C13.8509 3.67393 13.1896 3.4 12.5 3.4V4.6C12.8713 4.6 13.2274 4.7475 13.4899 5.01005L14.3385 4.16152ZM12.5 3.4H5.5V4.6H12.5V3.4ZM5.5 3.4C4.81044 3.4 4.14912 3.67393 3.66152 4.16152L4.51005 5.01005C4.7726 4.7475 5.1287 4.6 5.5 4.6V3.4ZM3.66152 4.16152C3.17393 4.64912 2.9 5.31044 2.9 6H4.1C4.1 5.6287 4.2475 5.2726 4.51005 5.01005L3.66152 4.16152ZM2.9 6V18H4.1V6H2.9ZM2.9 18C2.9 18.6896 3.17393 19.3509 3.66152 19.8385L4.51005 18.9899C4.2475 18.7274 4.1 18.3713 4.1 18H2.9ZM3.66152 19.8385C4.14912 20.3261 4.81044 20.6 5.5 20.6V19.4C5.1287 19.4 4.7726 19.2525 4.51005 18.9899L3.66152 19.8385ZM5.5 20.6H12.5V19.4H5.5V20.6ZM12.5 20.6C13.1896 20.6 13.8509 20.3261 14.3385 19.8385L13.4899 18.9899C13.2274 19.2525 12.8713 19.4 12.5 19.4V20.6ZM14.3385 19.8385C14.8261 19.3509 15.1 18.6896 15.1 18H13.9C13.9 18.3713 13.7525 18.7274 13.4899 18.9899L14.3385 19.8385ZM15.1 18V16H13.9V18H15.1ZM7.5 12.6H21.5V11.4H7.5V12.6ZM21.9243 11.5757L18.9243 8.57574L18.0757 9.42426L21.0757 12.4243L21.9243 11.5757ZM18.9243 15.4243L21.9243 12.4243L21.0757 11.5757L18.0757 14.5757L18.9243 15.4243Z" fill="white"/>
</svg>
