<?xml version="1.0" encoding="UTF-8" standalone="no"?>
<!-- Created with Inkscape (http://www.inkscape.org/) -->

<svg
   xmlns:dc="http://purl.org/dc/elements/1.1/"
   xmlns:cc="http://creativecommons.org/ns#"
   xmlns:rdf="http://www.w3.org/1999/02/22-rdf-syntax-ns#"
   xmlns:svg="http://www.w3.org/2000/svg"
   xmlns="http://www.w3.org/2000/svg"
   xmlns:sodipodi="http://sodipodi.sourceforge.net/DTD/sodipodi-0.dtd"
   xmlns:inkscape="http://www.inkscape.org/namespaces/inkscape"
   width="47.625mm"
   height="20.897858mm"
   viewBox="0 0 47.625 20.897858"
   version="1.1"
   id="svg8"
   inkscape:version="0.92.3 (2405546, 2018-03-11)"
   sodipodi:docname="no-photo.svg">
  <defs
     id="defs2" />
  <sodipodi:namedview
     id="base"
     pagecolor="#ffffff"
     bordercolor="#666666"
     borderopacity="1.0"
     inkscape:pageopacity="0.0"
     inkscape:pageshadow="2"
     inkscape:zoom="1.2181641"
     inkscape:cx="244.20507"
     inkscape:cy="-11.408055"
     inkscape:document-units="mm"
     inkscape:current-layer="layer1"
     showgrid="false"
     inkscape:window-width="1920"
     inkscape:window-height="1052"
     inkscape:window-x="1920"
     inkscape:window-y="0"
     inkscape:window-maximized="1" />
  <metadata
     id="metadata5">
    <rdf:RDF>
      <cc:Work
         rdf:about="">
        <dc:format>image/svg+xml</dc:format>
        <dc:type
           rdf:resource="http://purl.org/dc/dcmitype/StillImage" />
        <dc:title></dc:title>
      </cc:Work>
    </rdf:RDF>
  </metadata>
  <g
     inkscape:label="Camada 1"
     inkscape:groupmode="layer"
     id="layer1"
     transform="translate(-47.603298,-98.853281)">
    <g
       id="g834"
       transform="matrix(0.03373271,0,0,0.03373271,63.812108,98.853281)"
       style="fill:#666666">
      <path
         id="path815"
         d="m 390.345,116.833 c 5.502,5.502 5.502,14.422 0,19.924 -5.502,5.502 -14.422,5.502 -19.924,0 -5.502,-5.502 -5.502,-14.422 0,-19.924 5.502,-5.502 14.422,-5.502 19.924,0"
         inkscape:connector-curvature="0"
         style="fill:#666666" />
      <path
         id="path817"
         d="M 408.559,56.354 H 335.71 C 329.89,39.954 314.22,28.178 295.853,28.178 H 154.971 c -18.102,0 -33.492,11.491 -39.506,27.523 l 22.668,22.668 c 1.603,-2.287 2.75,-4.919 2.75,-7.926 0,-7.773 6.315,-14.088 14.088,-14.088 h 140.882 c 7.773,0 14.088,6.315 14.088,14.088 0,7.787 6.301,14.088 14.088,14.088 h 84.529 c 7.773,0 14.088,6.315 14.088,14.088 v 253.588 c 0,3.003 -1.151,5.634 -2.755,7.921 l 20.082,20.082 c 6.669,-7.474 10.85,-17.22 10.85,-28.003 V 98.618 c 0,-23.306 -18.958,-42.264 -42.264,-42.264 z"
         inkscape:connector-curvature="0"
         style="fill:#666666" />
      <path
         id="path819"
         d="m 329.161,269.397 c 5.756,-13.524 8.956,-28.385 8.956,-43.985 0,-62.145 -50.561,-112.706 -112.706,-112.706 -15.6,0 -30.46,3.2 -43.985,8.956 l 22.371,22.371 c 6.941,-1.849 14.097,-3.151 21.614,-3.151 46.612,0 84.529,37.917 84.529,84.529 0,7.517 -1.302,14.673 -3.151,21.614 0.001,0.001 22.372,22.372 22.372,22.372 z"
         inkscape:connector-curvature="0"
         style="fill:#666666" />
      <path
         id="path821"
         d="M 0,19.923 36.966,56.889 C 16.181,59.527 0,77.127 0,98.619 v 253.588 c 0,23.306 18.959,42.265 42.265,42.265 H 374.55 l 56.353,56.353 19.922,-19.922 L 19.922,0 Z m 42.265,346.373 c -7.773,0 -14.088,-6.315 -14.088,-14.088 V 98.619 c 0,-7.773 6.315,-14.088 14.088,-14.088 h 22.343 l 72.397,72.397 c -14.876,19.038 -24.298,42.507 -24.298,68.486 0,62.145 50.561,112.706 112.706,112.706 25.982,0 49.51,-9.357 68.558,-24.226 l 52.403,52.403 z M 157.003,176.927 273.974,293.898 c -13.772,9.882 -30.35,16.045 -48.562,16.045 -46.612,0 -84.529,-37.917 -84.529,-84.529 -0.001,-18.208 6.235,-34.722 16.12,-48.487 z"
         inkscape:connector-curvature="0"
         style="fill:#666666" />
    </g>
    <text
       xml:space="preserve"
       style="font-style:normal;font-weight:normal;font-size:4.41861439px;line-height:1.25;font-family:sans-serif;letter-spacing:0px;word-spacing:0px;fill:#666666;fill-opacity:1;stroke:none;stroke-width:0.1104655"
       x="47.223297"
       y="119.68486"
       id="text838"><tspan
         sodipodi:role="line"
         id="tspan836"
         x="47.223297"
         y="119.68486"
         style="font-style:normal;font-variant:normal;font-weight:normal;font-stretch:normal;font-family:Ubuntu;-inkscape-font-specification:Ubuntu;fill:#666666;stroke-width:0.1104655">PRODUTO <tspan
   style="font-style:normal;font-variant:normal;font-weight:300;font-stretch:normal;font-family:Ubuntu;-inkscape-font-specification:'Ubuntu Light';fill:#666666;stroke-width:0.1104655"
   id="tspan840">SEM IMAGEM</tspan></tspan></text>
  </g>
</svg>
