<?xml version="1.0" encoding="utf-8"?>
<!-- Generator: Adobe Illustrator 17.0.0, SVG Export Plug-In . SVG Version: 6.00 Build 0)  -->
<!DOCTYPE svg PUBLIC "-//W3C//DTD SVG 1.1//EN" "http://www.w3.org/Graphics/SVG/1.1/DTD/svg11.dtd">
<svg version="1.1" id="Camada_1" xmlns="http://www.w3.org/2000/svg" xmlns:xlink="http://www.w3.org/1999/xlink" x="0px" y="0px"
	 width="24px" height="22px" viewBox="0 0 24 22" enable-background="new 0 0 24 22" xml:space="preserve">
<title>sale (3)</title>
<g id="Symbols">
	<g id="Header-v3" transform="translate(-1042.000000, -160.000000)">
		<g id="Group-16" transform="translate(335.000000, 160.000000)">
			<g id="sale-_x28_3_x29_" transform="translate(707.000000, 0.000000)">
				<path id="Shape" fill="#939393" d="M22.406,3.725h-0.938l0.001-1.678c0.001-1.126-0.915-2.043-2.042-2.044L12.305,0
					c0,0-0.001,0-0.001,0c-0.405,0-0.787,0.158-1.073,0.445L0.598,11.077C0.212,11.463,0,11.976,0,12.521s0.212,1.059,0.598,1.444
					l6.9,6.9c0.398,0.398,0.921,0.597,1.444,0.597c0.523,0,1.046-0.199,1.445-0.597l6.694-6.694c0.183-0.183,0.183-0.48,0-0.663
					c-0.183-0.183-0.48-0.183-0.663,0l-6.694,6.694c-0.431,0.431-1.132,0.431-1.563,0l-6.9-6.9
					c-0.209-0.209-0.324-0.486-0.324-0.781s0.115-0.573,0.324-0.781L11.894,1.108c0.11-0.11,0.255-0.17,0.411-0.17h0l7.122,0.004
					c0.609,0,1.105,0.496,1.105,1.106l-0.002,3.928h-2.111c-0.182,0-0.346-0.074-0.465-0.194c0.196-0.084,0.38-0.205,0.54-0.365
					c0.674-0.674,0.674-1.77,0-2.444c-0.674-0.674-1.77-0.674-2.444,0c-0.674,0.674-0.674,1.77,0,2.444
					c0.25,0.25,0.558,0.407,0.881,0.471c0.229,0.599,0.81,1.026,1.489,1.026h2.111L20.527,9.16c0,0.155-0.06,0.301-0.17,0.41
					l-1.287,1.287c-0.183,0.183-0.183,0.48,0,0.663c0.183,0.183,0.48,0.183,0.663,0l1.287-1.287
					c0.286-0.287,0.444-0.667,0.445-1.073l0.001-2.248h0.94C23.285,6.913,24,6.198,24,5.319C24,4.44,23.285,3.725,22.406,3.725
					L22.406,3.725z M16.711,3.635c0.154-0.154,0.357-0.231,0.559-0.231c0.202,0,0.405,0.077,0.559,0.231
					c0.049,0.049,0.089,0.103,0.122,0.16c-0.515,0.158-0.919,0.569-1.067,1.088c-0.062-0.035-0.121-0.078-0.174-0.13
					C16.403,4.445,16.403,3.943,16.711,3.635z M22.406,5.975h-0.94l0.001-1.313h0.939c0.362,0,0.656,0.294,0.656,0.656
					S22.768,5.975,22.406,5.975z"/>
				<path id="Path" fill="#939393" d="M7.566,11.827c0.058,0.207,0.246,0.343,0.451,0.343c0.042,0,0.084-0.005,0.126-0.017
					l4.812-1.339c0.249-0.069,0.395-0.328,0.326-0.577c-0.069-0.249-0.328-0.395-0.577-0.326l-4.812,1.339
					C7.643,11.319,7.497,11.577,7.566,11.827L7.566,11.827z"/>
				<path id="Shape_1_" fill="#939393" d="M9.684,12.445c-0.261,0.261-0.405,0.608-0.405,0.977c0,0.369,0.144,0.716,0.405,0.977
					c0.27,0.269,0.623,0.404,0.977,0.404s0.708-0.135,0.977-0.404c0.539-0.539,0.539-1.416,0-1.955S10.223,11.906,9.684,12.445z
					 M10.976,13.737c-0.173,0.173-0.455,0.173-0.629,0c-0.084-0.084-0.13-0.196-0.13-0.314c0-0.119,0.046-0.23,0.13-0.314
					c0.087-0.087,0.201-0.13,0.314-0.13c0.114,0,0.228,0.043,0.314,0.13C11.149,13.282,11.149,13.564,10.976,13.737z"/>
				<path id="Shape_2_" fill="#939393" d="M11.871,9.654c0.539-0.539,0.539-1.416,0-1.955c-0.261-0.261-0.608-0.405-0.977-0.405
					S10.178,7.439,9.917,7.7c-0.539,0.539-0.539,1.416,0,1.955c0.27,0.269,0.623,0.404,0.977,0.404S11.602,9.924,11.871,9.654z
					 M10.579,8.363c0.084-0.084,0.196-0.13,0.314-0.13c0.119,0,0.231,0.046,0.314,0.13c0.173,0.173,0.173,0.455,0,0.629
					c-0.173,0.173-0.455,0.173-0.629,0C10.406,8.818,10.406,8.536,10.579,8.363z"/>
				<path id="Path_1_" fill="#939393" d="M4.662,10.858c-0.183-0.183-0.48-0.183-0.663,0L2.667,12.19
					c-0.088,0.088-0.137,0.207-0.137,0.331s0.049,0.244,0.137,0.331l5.944,5.944c0.091,0.091,0.211,0.137,0.331,0.137
					s0.24-0.046,0.331-0.137l8.887-8.887c0.183-0.183,0.183-0.48,0-0.663l-5.944-5.944c-0.088-0.088-0.207-0.137-0.331-0.137
					s-0.244,0.049-0.331,0.137L6.651,8.206c-0.183,0.183-0.183,0.48,0,0.663c0.183,0.183,0.48,0.183,0.663,0l4.572-4.572
					l5.281,5.281l-8.224,8.224l-5.281-5.281l1-1C4.845,11.338,4.845,11.041,4.662,10.858z"/>
				<path id="Path_2_" fill="#939393" d="M18.076,12.046c-0.123,0-0.244,0.05-0.331,0.137s-0.137,0.208-0.137,0.331
					s0.05,0.244,0.137,0.331s0.208,0.137,0.331,0.137c0.123,0,0.244-0.05,0.331-0.137c0.087-0.087,0.137-0.208,0.137-0.331
					s-0.05-0.244-0.137-0.331C18.32,12.096,18.199,12.046,18.076,12.046z"/>
				<path id="Path_3_" fill="#939393" d="M5.988,10.195c0.088-0.087,0.138-0.208,0.138-0.331c0-0.123-0.05-0.244-0.138-0.331
					C5.901,9.445,5.78,9.395,5.656,9.395c-0.123,0-0.244,0.05-0.331,0.137C5.238,9.619,5.188,9.74,5.188,9.864
					c0,0.124,0.05,0.244,0.137,0.331c0.088,0.088,0.208,0.137,0.331,0.137C5.78,10.332,5.901,10.283,5.988,10.195z"/>
			</g>
		</g>
	</g>
</g>
</svg>
