<?xml version="1.0" encoding="UTF-8" standalone="no"?>
<!-- Created with Inkscape (http://www.inkscape.org/) -->

<svg
   xmlns:dc="http://purl.org/dc/elements/1.1/"
   xmlns:cc="http://creativecommons.org/ns#"
   xmlns:rdf="http://www.w3.org/1999/02/22-rdf-syntax-ns#"
   xmlns:svg="http://www.w3.org/2000/svg"
   xmlns="http://www.w3.org/2000/svg"
   xmlns:sodipodi="http://sodipodi.sourceforge.net/DTD/sodipodi-0.dtd"
   xmlns:inkscape="http://www.inkscape.org/namespaces/inkscape"
   width="6.3499827mm"
   height="6.3499846mm"
   viewBox="0 0 6.3499827 6.3499846"
   version="1.1"
   id="svg8"
   inkscape:version="0.92.3 (2405546, 2018-03-11)"
   sodipodi:docname="search-gray.svg">
  <defs
     id="defs2" />
  <sodipodi:namedview
     id="base"
     pagecolor="#ffffff"
     bordercolor="#666666"
     borderopacity="1.0"
     inkscape:pageopacity="0.0"
     inkscape:pageshadow="2"
     inkscape:zoom="1.2181641"
     inkscape:cx="38.728947"
     inkscape:cy="59.335527"
     inkscape:document-units="mm"
     inkscape:current-layer="layer1"
     showgrid="false"
     inkscape:window-width="1920"
     inkscape:window-height="1052"
     inkscape:window-x="1920"
     inkscape:window-y="0"
     inkscape:window-maximized="1" />
  <metadata
     id="metadata5">
    <rdf:RDF>
      <cc:Work
         rdf:about="">
        <dc:format>image/svg+xml</dc:format>
        <dc:type
           rdf:resource="http://purl.org/dc/dcmitype/StillImage" />
        <dc:title></dc:title>
      </cc:Work>
    </rdf:RDF>
  </metadata>
  <g
     inkscape:label="Camada 1"
     inkscape:groupmode="layer"
     id="layer1"
     transform="translate(-43.173601,-158.18254)">
    <g
       id="Symbols"
       transform="matrix(0.26458333,0,0,0.26458333,43.173601,158.18254)"
       style="fill:#939393;fill-opacity:1;fill-rule:evenodd;stroke:none;stroke-width:1">
      <g
         transform="translate(-1123,-84)"
         id="Header-v3"
         style="fill:#939393;fill-opacity:1;fill-rule:nonzero">
        <g
           transform="translate(551,72)"
           id="Group-2"
           style="fill:#939393;fill-opacity:1">
          <g
             transform="translate(560)"
             id="Shape"
             style="fill:#939393;fill-opacity:1">
            <path
               id="path856"
               d="M 35.853469,34.439437 28.881656,27.467625 C 30.204,25.835109 30.999984,23.759672 30.999984,21.500016 30.999984,16.261734 26.73825,12 21.499969,12 16.261687,12 12,16.261734 12,21.500016 c 0,5.238281 4.261734,9.500015 9.500016,9.500015 2.259656,0 4.335093,-0.796031 5.967609,-2.118328 l 6.971812,6.971813 c 0.195329,0.195234 0.511829,0.195234 0.707157,0 l 0.706922,-0.706969 c 0.195234,-0.195281 0.195234,-0.511875 -4.7e-5,-0.70711 z M 21.500016,29.000016 c -4.135735,0 -7.5,-3.364266 -7.5,-7.5 0,-4.135735 3.364265,-7.5 7.5,-7.5 4.135734,0 7.5,3.364265 7.5,7.5 0,4.135734 -3.364266,7.5 -7.5,7.5 z"
               inkscape:connector-curvature="0"
               style="fill:#939393;fill-opacity:1" />
          </g>
        </g>
      </g>
    </g>
  </g>
</svg>
