<svg xmlns="http://www.w3.org/2000/svg" width="20" height="20" viewBox="0 950 20 20"><path fill="#ededed" d="M0 970l1.38-5C.483 963.448 0 961.724 0 959.93c0-5.448 4.483-9.93 9.966-9.93S20 954.483 20 959.93 15.448 970 9.966 970c-1.724 0-3.38-.552-4.862-1.38L0 970z"/><path fill="#55cd6c" d="M5.38 966.828l.31.172c1.276.793 2.76 1.276 4.3 1.276 4.517 0 8.276-3.76 8.276-8.345s-3.76-8.207-8.3-8.207-8.24 3.655-8.24 8.207a8.35 8.35 0 0 0 1.276 4.448l.207.3-.793 2.897 2.964-.758z"/><path fill="#fefefe" d="M7.3 955.3l-.655-.034c-.207 0-.414.07-.552.207-.3.276-.828.793-.966 1.483-.24 1.034.138 2.276 1.034 3.517s2.62 3.24 5.655 4.103c.966.276 1.724.103 2.345-.276.483-.3.793-.793.897-1.3l.103-.483c.034-.138-.034-.3-.172-.38l-2.172-1a.33.33 0 0 0-.414.103l-.862 1.103c-.07.07-.172.103-.276.07-.586-.207-2.552-1.035-3.62-3.103-.034-.103-.034-.207.034-.276l.828-.93c.07-.103.103-.24.07-.345l-1-2.24c-.033-.103-.137-.207-.275-.207"/></svg>