<?xml version="1.0" encoding="utf-8"?>
<!-- Generator: Adobe Illustrator 16.0.0, SVG Export Plug-In . SVG Version: 6.00 Build 0)  -->
<!DOCTYPE svg PUBLIC "-//W3C//DTD SVG 1.1//EN" "http://www.w3.org/Graphics/SVG/1.1/DTD/svg11.dtd">
<svg version="1.1" id="Layer_1" xmlns="http://www.w3.org/2000/svg" xmlns:xlink="http://www.w3.org/1999/xlink" x="0px" y="0px"
	 width="360px" height="360px" viewBox="0 0 360 360" enable-background="new 0 0 360 360" xml:space="preserve">
<ellipse fill="#B41E8E" cx="180" cy="155.259" rx="69.4" ry="70.776"/>
<path fill="#B41E8E" d="M180,6.5C84.178,6.5,6.5,84.178,6.5,180S84.178,353.5,180,353.5S353.5,275.822,353.5,180
	S275.822,6.5,180,6.5z M286.486,286.054C263.763,263.981,224.563,249.4,180,249.4c-44.562,0-83.762,14.582-106.487,36.654
	c-27.1-27.212-43.88-64.707-43.88-106.054C29.633,97.086,97.086,29.633,180,29.633c82.913,0,150.367,67.453,150.367,150.367
	C330.367,221.347,313.587,258.842,286.486,286.054z"/>
</svg>
