<?xml version="1.0" encoding="utf-8"?>
<!-- Generator: Adobe Illustrator 23.1.0, SVG Export Plug-In . SVG Version: 6.00 Build 0)  -->
<svg version="1.1" id="Ebene_1" xmlns="http://www.w3.org/2000/svg" xmlns:xlink="http://www.w3.org/1999/xlink" x="0px" y="0px"
	 width="300px" height="61.4px" viewBox="0 0 300 61.4" style="enable-background:new 0 0 300 61.4;" xml:space="preserve">
<style type="text/css">
	.st0{fill:#FFFFFF;}
</style>
<path class="st0" d="M0,61.4V2h59v59H0V61.4z M56.8,59V4.4H2.4V59H56.8z"/>
<polygon class="st0" points="11.4,31.6 26.4,56 53.6,56 38.8,31.6 53.8,7.2 26.4,7.2 "/>
<path class="st0" d="M92,1.6l7.8,21.6h-4.2l-1.7-4.8h-7.9l-1.6,4.8h-4.2l7.8-21.6C87.8,1.6,92,1.6,92,1.6z M86.8,14.8h5.6l-1.4-5
	c-0.2-0.6-0.4-1.4-0.6-2s-0.4-1.4-0.6-2.4c-0.2,0.8-0.4,1.4-0.6,2.4c-0.2,0.6-0.4,1.2-0.6,2L86.8,14.8z"/>
<path class="st0" d="M105.4,30h-3.8v-5.4v-13c0-1.4,0-2.8-0.2-4.2h3.6v2.6c0.2-0.2,0.4-0.6,0.6-0.8c1-1.2,2.6-1.8,4.2-1.8
	c2.4,0,3.6,1.2,4.2,2c0.8,1,1.6,3,1.6,6c0,0.6,0,2.4-0.4,4c-1.2,4.2-4.2,4.6-5.6,4.6c-0.6,0-2,0-3.4-1.2c-0.4-0.4-0.6-0.6-0.8-1.2
	C105.4,21.5,105.4,30,105.4,30z M107,11.2c-1.6,1.2-1.6,4-1.6,4.4c0,1.6,0.4,3.6,1.8,4.4c0.4,0.2,1,0.4,1.4,0.4c0.6,0,1-0.2,1.2-0.2
	c2-1,2-4.4,2-4.8c0-0.4,0-3.2-1.6-4.2c-0.2-0.4-0.8-0.6-1.4-0.6C108.4,10.4,107.7,10.6,107,11.2z"/>
<path class="st0" d="M122.4,30h-3.8v-5.4v-13c0-1.4,0-2.8-0.2-4.2h3.6v2.6c0.2-0.2,0.4-0.6,0.6-0.8c1-1.2,2.6-1.8,4.2-1.8
	c2.4,0,3.6,1.2,4.2,2c0.8,1,1.6,3,1.6,6c0,0.6,0,2.4-0.4,4c-1.2,4.2-4.2,4.6-5.6,4.6c-0.6,0-2,0-3.4-1.2c-0.4-0.4-0.6-0.6-0.8-1.2
	C122.4,21.5,122.4,30,122.4,30z M124,11.2c-1.6,1.2-1.6,4-1.6,4.4c0,1.6,0.4,3.6,1.8,4.4c0.4,0.2,1,0.4,1.4,0.4c0.6,0,1-0.2,1.2-0.2
	c2-1,2-4.4,2-4.8c0-0.4,0-3.2-1.6-4.2c-0.4-0.4-0.8-0.6-1.6-0.6C125.1,10.4,124.4,10.6,124,11.2z"/>
<path class="st0" d="M138.3,16.8c0.2,0.8,0.4,1.2,0.6,1.6c0.4,0.8,1.6,2,3.8,2c1.6,0,3-0.6,3.6-1c0.2-0.2,0.6-0.4,0.8-0.6v3.6
	c-0.8,0.4-2.8,1.2-5.2,1.2c-0.8,0-3.4,0-5.2-2c-0.8-1-2-2.8-2-6c0-0.8,0-3.2,1.2-5.2c0.6-1.2,2.4-3.4,5.8-3.4c0.6,0,2,0,3.6,1
	c2.6,1.8,2.8,5.2,3,6.2c0,0.8,0,1.6,0,2.6H138.3z M144.6,13.8c0-0.6,0-1-0.2-1.4c-0.4-1.4-1.4-2.6-3-2.6c-0.6,0-1.2,0.2-1.6,0.4
	c-1.2,1-1.4,3.2-1.4,3.6H144.6z"/>
<path class="st0" d="M160.5,23.2v-7.6c0-1.6,0-4-1.2-4.8c-0.4-0.2-0.8-0.4-1.4-0.4c-0.4,0-1.6,0.2-2.6,1.4c-0.6,1.2-0.8,2.6-0.8,4
	v7.6h-3.8V11.2c0-1.2,0-2.6-0.2-3.8h3.6v2.6c0.2-0.4,0.6-1,1.6-1.8c0.6-0.4,1.4-0.8,3.2-0.8c0.2,0,1,0,1.6,0.2
	c1.4,0.4,2.6,1.6,3,3.4c0.2,1.2,0.2,3.4,0.4,4.6v8.2h-3.4L160.5,23.2L160.5,23.2z"/>
<path class="st0" d="M178.1,10.6l-7.2,9.4c0.8,0,1.8,0,2.8,0h4.8v3.2h-12v-3.2l7.4-9.6h-7V7.4h11.2L178.1,10.6L178.1,10.6z"/>
<path class="st0" d="M183.8,16.8c0.2,0.8,0.4,1.2,0.6,1.6c0.4,0.8,1.6,2,3.8,2c1.6,0,3-0.6,3.6-1c0.2-0.2,0.6-0.4,0.8-0.6v3.6
	c-0.8,0.4-2.8,1.2-5.2,1.2c-0.8,0-3.4,0-5.2-2c-0.8-1-2-2.8-2-6c0-0.8,0-3.2,1.2-5.2c0.6-1.2,2.4-3.4,5.8-3.4c0.6,0,2,0,3.6,1
	c2.6,1.8,2.8,5.2,3,6.2c0,0.8,0,1.6,0,2.6H183.8z M190.2,13.8c0-0.6,0-1-0.2-1.4c-0.4-1.4-1.4-2.6-3-2.6c-0.6,0-1.2,0.2-1.6,0.4
	c-1.4,1-1.6,3-1.6,3.4L190.2,13.8z"/>
<path class="st0" d="M199.9,0v23.2h-3.8V0H199.9z"/>
<path class="st0" d="M207,0v23.2h-3.8V0H207z"/>
<path class="st0" d="M213.3,16.8c0.2,0.8,0.4,1.2,0.6,1.6c0.4,0.8,1.6,2,3.8,2c1.6,0,3-0.6,3.6-1c0.2-0.2,0.6-0.4,0.8-0.6v3.6
	c-0.8,0.4-2.8,1.2-5.2,1.2c-0.8,0-3.4,0-5.2-2c-0.8-1-2-2.8-2-6c0-0.8,0-3.2,1.2-5.2c0.6-1.2,2.4-3.4,5.8-3.4c0.6,0,2,0,3.6,1
	c2.6,1.8,2.8,5.2,3,6.2c0,0.8,0,1.6,0,2.6H213.3z M219.8,13.8c0-0.6,0-1-0.2-1.4c-0.4-1.4-1.4-2.6-3-2.6c-0.6,0-1.2,0.2-1.6,0.4
	c-1.4,1-1.6,3-1.6,3.4L219.8,13.8z"/>
<path class="st0" d="M234.2,11.2c-0.4,0-0.6-0.2-1.2-0.2c-0.6,0-2,0.2-3,1.8c-0.4,1-0.6,2.4-0.6,4.8v5.6h-3.8V11.6
	c0-1.4,0-2.8,0-4.2h3.6v3.8c0.2-0.6,0.2-1,0.4-1.2c1-2.4,2.8-2.8,3.6-2.8c0.2,0,0.4,0,1,0.2V11.2L234.2,11.2z"/>
<path class="st0" d="M85,45.8l1-1.4c0.6-0.6,1-1.4,1.6-2l6-8h6l-7.6,9.2l-2.6,3.2l10.4,14.4h-6.4l-6.8-9.6c-0.4-0.6-1-1.4-1.4-2
	l-0.6-1.2v12.8H80V34.2h4.8v11.7H85z"/>
<path class="st0" d="M112.6,61v-3c-0.2,0.4-0.4,0.6-0.4,0.8c-0.6,1-2.4,2.4-5.2,2.4c-0.8,0-4-0.2-5.4-3c-0.2-0.4-0.8-1.6-0.8-3.2
	c0-1.6,0.6-2.8,0.8-3.4c1.8-3,5.4-3.4,8.2-3.4c0.8,0,1.6,0,2.8,0c0,0,0-1.4-0.2-2c-0.4-1-1.4-2.4-3.6-2.4s-4,1-4.6,1.4
	c-0.2,0.2-0.4,0.2-0.8,0.8l-0.4-4.2c2.4-0.8,3.8-1.2,6-1.2c0.4,0,1.4,0,2.8,0.2c3,0.8,4.2,2.8,4.6,4c0.4,1.2,0.4,2.4,0.4,4.8v4.6
	c0,1.8,0,4,0,5.8c0,0.2,0,0.4,0,0.6C116.5,61,112.6,61,112.6,61z M106.4,52.8c-0.6,0.4-0.8,0.8-1,1c0,0.2-0.2,0.6-0.2,1.2
	c0,0.4,0,0.8,0.2,1c0.6,1.4,2,1.4,2.6,1.4c0.6,0,2.4-0.2,3.4-1.8c0.8-1.2,0.8-2.6,1-4C110.6,52,107.9,51.8,106.4,52.8z"/>
<path class="st0" d="M132.8,61v-9.6c0-2.4,0-4.8-1.6-6c-0.2-0.2-0.8-0.4-1.6-0.4c-0.6,0-2,0.2-3.2,1.8c-0.8,1.4-1,3.2-1,4.8v9.2
	h-4.6V45.6c0-1.6,0-3.2-0.2-4.8h4.4V44c0.4-0.6,0.8-1.4,2-2.4c0.8-0.4,1.8-1,4-1c0.2,0,1.2,0,2,0.2c1.8,0.6,3.4,2,3.8,4.2
	c0.4,1.4,0.4,4,0.4,5.6v10.2h-4.4V61z"/>
<path class="st0" d="M147.3,41h4.2v4h-4.2v8.4c0,0.8,0,3.6,2.8,3.6c0.4,0,0.8,0,1.6-0.2v4c-1,0.2-1.8,0.6-3.2,0.6
	c-0.4,0-3,0-4.4-1.6c-1.6-1.8-1.4-4.8-1.4-7.2V45h-3.6v-4h3.6v-4l4.4-1.6V41H147.3z"/>
<path class="st0" d="M166.4,41.4c3.6,1.6,5.2,5.4,5.2,9.6c0,0.6,0,2.6-0.6,4.2c-0.8,2.4-3.2,6-8.6,6c-1,0-3.8,0-6-2.4
	c-1.2-1-3.4-3.6-3.4-8c0-1.4,0.2-3,0.6-4.4c1.4-4,4.8-6,8.6-6C162.8,40.6,164.7,40.8,166.4,41.4z M160.1,45.2
	c-1,0.8-2.4,2.6-2.4,5.6c0,0.6,0,4.2,2,5.8c0.6,0.6,1.4,0.8,2.4,0.8c2,0,4.4-1.6,4.4-6.4c0-1.4-0.2-3-0.8-4.4c-0.4-0.6-1.4-2-3.4-2
	C161.2,44.6,160.3,45,160.1,45.2z"/>
<path class="st0" d="M186.7,61v-9.6c0-2.4,0-4.8-1.6-6c-0.2-0.2-0.8-0.4-1.6-0.4c-0.6,0-2,0.2-3.2,1.8c-0.8,1.4-1,3.2-1,4.8v9.2
	h-4.6V45.6c0-1.6,0-3.2-0.2-4.8h4.4V44c0.4-0.6,0.8-1.4,2-2.4c0.8-0.4,1.8-1,4-1c0.2,0,1.2,0,2,0.2c1.8,0.6,3.4,2,3.8,4.2
	c0.4,1.4,0.4,4,0.4,5.6v10.2h-4.4V61z"/>
<path class="st0" d="M205.6,61v-3c-0.2,0.6-0.2,0.6-0.4,1c-0.6,1-2.4,2.4-5.2,2.4c-0.8,0-4-0.2-5.4-3c-0.2-0.4-0.8-1.6-0.8-3.2
	c0-1.6,0.6-2.8,0.8-3.4c1.8-3,5.4-3.4,8.2-3.4c0.8,0,1.8,0,2.8,0c0,0,0-1.4-0.2-2c-0.4-1-1.4-2.4-3.6-2.4c-2,0-4,1-4.6,1.4
	c-0.2,0.2-0.4,0.2-0.8,0.8L196,42c2.4-0.8,3.8-1.2,6-1.2c0.4,0,1.4,0,2.8,0.2c3,0.8,4.2,2.8,4.6,4c0.4,1.2,0.4,2.4,0.4,4.8v4.6
	c0,1.8,0,4,0,5.8c0,0.2,0,0.4,0,0.6C209.8,61,205.6,61,205.6,61z M199.7,52.8c-0.6,0.4-0.8,0.8-1,1c0,0.2-0.2,0.6-0.2,1.2
	c0,0.4,0,0.8,0.2,1c0.6,1.4,2,1.4,2.6,1.4c0.6,0,2.4-0.2,3.4-1.8c0.8-1.2,0.8-2.6,1-4C203.6,52,201.2,51.8,199.7,52.8z"/>
<path class="st0" d="M218.3,32v29.2h-4.6V32H218.3z"/>
<path class="st0" d="M227.4,32v12.2c0.2-0.4,0.6-1,1.4-1.8c1.2-1,2.6-1.6,4.2-1.6c0.6,0,1.8,0,3.4,0.8c1.8,1,4.2,3.6,4.2,9
	c0,1.4-0.2,2.6-0.2,3c-0.4,2-1,4.2-2.6,5.6c-0.8,0.8-2.4,2-4.8,2s-4-1-4.6-2c-0.4-0.4-0.6-0.8-0.8-1.4v3.2h-4.4V32H227.4z
	 M229.6,45.6c-1,0.6-2,2.4-2,5.4c0,1.8,0.4,4.2,1.8,5.4c0.8,0.6,1.6,0.8,2,0.8s1.2,0,1.8-0.6c1-0.8,2-2.6,2-5.6c0-1.6-0.4-4-1.6-5.2
	c-0.6-0.6-1.4-0.8-2-0.8C231.3,45,230.5,45,229.6,45.6z"/>
<path class="st0" d="M254.4,61v-3c-0.2,0.4-0.4,0.6-0.4,0.8c-0.6,1-2.4,2.4-5.2,2.4c-0.8,0-4-0.2-5.4-3c-0.2-0.4-0.8-1.6-0.8-3.2
	c0-1.6,0.6-2.8,0.8-3.4c1.6-3,5.4-3.4,8.2-3.4c0.8,0,1.6,0,2.8,0c0,0,0-1.4-0.2-2c-0.4-1-1.4-2.4-3.6-2.4c-2,0-4,1-4.6,1.4
	c-0.2,0.2-0.4,0.2-0.8,0.8l-0.2-4.4c2.4-0.8,3.8-1.2,6-1.2c0.4,0,1.4,0,2.8,0.2c3,0.8,4.2,2.8,4.6,4c0.4,1.2,0.4,2.4,0.4,4.8v4.8
	c0,1.8,0,4,0,5.8c0,0.2,0,0.4,0,0.6C258.6,61,254.4,61,254.4,61z M248.5,52.8c-0.6,0.4-0.8,0.8-1,1c0,0.2-0.2,0.6-0.2,1.2
	c0,0.4,0,0.8,0.2,1c0.6,1.4,2,1.4,2.6,1.4c0.6,0,2.4-0.2,3.4-1.8c0.8-1.2,0.8-2.6,1-4C252.5,52,250,51.8,248.5,52.8z"/>
<path class="st0" d="M274.9,61v-9.6c0-2.4,0-4.8-1.6-6c-0.2-0.2-0.8-0.4-1.6-0.4c-0.6,0-2,0.2-3.2,1.8c-0.8,1.4-1,3.2-1,4.8v9.2
	h-4.6V45.6c0-1.6,0-3.2-0.2-4.8h4.4V44c0.4-0.6,0.8-1.4,2-2.4c0.8-0.4,1.8-1,4-1c0.2,0,1.2,0,2,0.2c1.8,0.6,3.4,2,3.8,4.2
	c0.4,1.4,0.4,4,0.4,5.6v10.2h-4.4V61z"/>
<path class="st0" d="M288.1,49.2c0.6-0.8,1-1.6,1.6-2.6l4-5.6h5.4l-6.8,8.8L300,61h-5.6l-4-6c-0.4-0.8-0.8-1.4-1.2-2.4
	c-0.2-0.4-0.6-1-0.8-1.6v9.8h-4.6V32h4.6v17.2H288.1z"/>
</svg>
