<?xml version="1.0" encoding="utf-8"?>
<!-- Generator: Adobe Illustrator 23.1.0, SVG Export Plug-In . SVG Version: 6.00 Build 0)  -->
<svg version="1.1" id="Ebene_1" xmlns="http://www.w3.org/2000/svg" xmlns:xlink="http://www.w3.org/1999/xlink" x="0px" y="0px"
	 width="1016.3px" height="554.9px" viewBox="0 0 1016.3 554.9" style="enable-background:new 0 0 1016.3 554.9;"
	 xml:space="preserve">
<style type="text/css">
	.st0{fill:#FFFFFF;}
</style>
<g>
	<path class="st0" d="M197.2,390.9H39.7C17.7,390.9,0,373.7,0,351.8V115.6C0,93,17.7,75.8,39.7,75.8h157.5
		c21.9,0,39.1,17.2,39.1,39.8v64.5l-75.2-9.5v-33.9H75.2v193.1h85.9V294l75.2-9.5v67.3C236.3,373.7,219.1,390.9,197.2,390.9"/>
	<path class="st0" d="M457.2,390.9H299.6c-21.9,0-39.7-17.2-39.7-39.1V236.5c0-21.3,18.4-36.7,39.7-36.7h122.6v-63H334v33.7l-74,9.5
		v-64.6c0-22.5,17.8-39.7,39.7-39.7h157.6c21.9,0,39,17.2,39,37.6v236.3C496.2,373.7,479.1,390.9,457.2,390.9 M422.2,260.8H334v69.1
		h88.2V260.8L422.2,260.8z"/>
	<path class="st0" d="M717.1,390.9H559.6c-21.9,0-39.7-17.2-39.7-39.1v-67.3l75.2,9.5v35.9H681v-69.1H559.6
		c-21.9,0-39.7-17.2-39.7-39V115.6c0-22.5,17.8-39.8,39.7-39.8h157.5c21.9,0,39.1,17.2,39.1,39.8v64.5l-75.2-9.5v-33.7h-85.9v62.9
		h122c21.9,0,39.1,17.2,39.1,39.7v112.3C756.2,373.7,739.1,390.9,717.1,390.9"/>
	<path class="st0" d="M1016.3,390.9V111.9c0-21.3-18.4-36.1-39.8-36.1H855.7V0h-75.8v390.9h75.8V136.7h84.7v254.2H1016.3
		L1016.3,390.9z"/>
</g>
<g>
	<path class="st0" d="M24.6,536.1c-5.4,0-11-0.5-16.6-1.5c-1.6-0.3-1.9-0.8-1.9-2.1v-63.1c0-0.9,0.6-1.7,1.6-1.7h4.6
		c0.9,0,1.7,0.7,1.7,1.7v16.8c3.4-0.6,7.7-0.9,10.6-0.9c13.1,0,19.7,7.9,19.7,22.1v6.5C44.3,527.3,38.2,536.1,24.6,536.1z
		 M36.4,507.3c0-9.7-2.9-15.2-11.7-15.2c-2.8,0-7.6,0.1-10.6,0.6v35.8c3.1,0.3,7.5,0.5,10.6,0.5c8.9,0,11.7-5.5,11.7-15.3V507.3z"/>
	<path class="st0" d="M87.7,535.4h-4.1c-1,0-1.8-0.8-1.8-1.8v-2c-4.3,2.5-8.8,4.4-13.9,4.4c-7.7,0-14.7-3.3-14.7-14.6v-1.1
		c0-9.7,5.7-14.6,21.7-14.6h6.7v-3.6c0-7.6-2.6-10.2-9.7-10.2c-5.9,0-10.2,0.4-13.8,0.7c-0.2,0-0.3,0-0.5,0c-0.8,0-1.6-0.3-1.6-1.4
		v-3.2c0-1,0.6-1.5,1.9-1.7c3.7-0.6,7.8-1.2,14-1.2c12.5,0,17.6,6.3,17.6,17v31.5C89.5,534.6,88.7,535.4,87.7,535.4z M81.5,511.4
		h-6.7c-10.9,0-13.8,2.4-13.8,8.8v1.1c0,6.5,3.1,8.2,8.3,8.2c4.1,0,7.8-1.3,12.2-3.6V511.4z"/>
	<path class="st0" d="M137.9,535.4h-4.3c-1,0-1.8-0.8-1.8-1.8v-29.7c0-9.1-3.1-11.9-9.9-11.9c-3.8,0-8,1.4-12.2,3.5v38.1
		c0,0.9-0.8,1.8-1.8,1.8h-4.4c-0.9,0-1.7-0.8-1.7-1.8v-46c0-1,0.7-1.8,1.7-1.8h4.5c1,0,1.7,0.8,1.7,1.8v1.7c5-2.8,9-4.1,14.3-4.1
		c10.8,0,15.7,6.8,15.7,18.8v29.7C139.7,534.6,138.9,535.4,137.9,535.4z"/>
	<path class="st0" d="M186.4,535.4H180c-1,0-1.4-0.3-2.1-1.2l-17.9-22.2v21.6c0,1-0.8,1.8-1.8,1.8h-4.3c-1,0-1.8-0.8-1.8-1.8v-64.2
		c0-1,0.8-1.8,1.8-1.8h4.3c1,0,1.8,0.8,1.8,1.8v37.5l18-20.3c0.5-0.6,0.9-0.8,1.8-0.8h6.3c0.9,0,1.4,0.5,1.4,1c0,0.4-0.2,0.7-0.5,1
		l-19.8,21.5l20,24.2c0.2,0.2,0.3,0.5,0.3,0.8C187.4,534.9,187.1,535.4,186.4,535.4z"/>
	<path class="st0" d="M204,477.9h-4.6c-1,0-1.8-0.8-1.8-1.8v-7.2c0-1,0.8-1.8,1.8-1.8h4.6c1,0,1.8,0.8,1.8,1.8v7.2
		C205.8,477.1,205,477.9,204,477.9z M203.9,535.4h-4.3c-1,0-1.8-0.8-1.8-1.8v-46c0-1,0.8-1.8,1.8-1.8h4.3c1,0,1.8,0.8,1.8,1.8v46
		C205.7,534.6,204.8,535.4,203.9,535.4z"/>
	<path class="st0" d="M255.2,535.4h-4.3c-1,0-1.8-0.8-1.8-1.8v-29.7c0-9.1-3.1-11.9-9.9-11.9c-3.8,0-8,1.4-12.2,3.5v38.1
		c0,0.9-0.8,1.8-1.8,1.8h-4.4c-0.9,0-1.7-0.8-1.7-1.8v-46c0-1,0.7-1.8,1.7-1.8h4.5c1,0,1.7,0.8,1.7,1.8v1.7c5-2.8,9-4.1,14.3-4.1
		c10.8,0,15.7,6.8,15.7,18.8v29.7C257,534.6,256.2,535.4,255.2,535.4z"/>
	<path class="st0" d="M308.7,491.9l-3.2,0.6c1.6,1.7,3.1,4.4,3.1,9.3v0.7c0,9.9-6.1,15.4-20,15.4c-4.8,0-7.8-0.7-10.5-1.8
		c-1.5,0.7-2.3,1.7-2.3,3.1c0,1.5,0.7,2.3,2.8,2.9l13.4,3.4c8.8,2.3,17.3,4.8,17.3,13.3v0.7c0,8.7-5.8,14-20.6,14
		c-14.3,0-20.7-5.5-20.7-14.3v-0.8c0-5.1,2.7-9.2,5.7-11.5l-0.6-0.3c-2.9-1.3-4.1-4.2-4.1-7v-0.1c0-2.4,1.2-5.1,3.7-6.5
		c-2.8-2.6-4.1-5.9-4.1-10.5v-0.7c0-8,4.5-16,20-16h19.8c1.1,0,2.1,0.9,2.1,2v2.3C310.3,491.3,309.7,491.7,308.7,491.9z
		 M301.4,538.8c0-3.5-2.9-5-11-7l-10.2-2.6c-2.6,2.3-4.4,4.5-4.4,9.2v0.8c0,5.1,3,8.2,13,8.2c10.3,0,12.6-2.9,12.6-7.8V538.8z
		 M300.6,501.8c0-5.4-2.4-9.7-12.2-9.7c-10.1,0-12.2,4.6-12.2,9.7v0.7c0,4,1.8,9.2,12.2,9.2c9.7,0,12.2-3.8,12.2-9.2V501.8z"/>
	<path class="st0" d="M360.4,536.1c-5.4,0-11-0.5-16.6-1.5c-1.6-0.3-1.9-0.8-1.9-2.1v-63.1c0-0.9,0.6-1.7,1.6-1.7h4.6
		c0.9,0,1.7,0.7,1.7,1.7v16.8c3.4-0.6,7.7-0.9,10.6-0.9c13.1,0,19.7,7.9,19.7,22.1v6.5C380.1,527.3,374,536.1,360.4,536.1z
		 M372.2,507.3c0-9.7-2.9-15.2-11.7-15.2c-2.8,0-7.6,0.1-10.6,0.6v35.8c3.1,0.3,7.5,0.5,10.6,0.5c8.9,0,11.7-5.5,11.7-15.3V507.3z"
		/>
	<path class="st0" d="M429.2,488l-14.9,52c-2.8,9.7-6.1,13.3-16.5,13.3c-2.5,0-5.7-0.4-7.6-0.8c-1.1-0.3-1.9-0.5-1.9-1.4v-3.3
		c0-1,0.7-1.4,1.7-1.4c0.1,0,0.2,0,0.3,0c2,0.2,6,0.5,8,0.5c5.1,0,7.4-1.4,8.9-7.7l0.9-3.7h-1.3c-2.7,0-5.1-0.6-6.7-6.2l-12-41.2
		c-0.1-0.2-0.1-0.5-0.1-0.6c0-0.9,0.5-1.5,1.6-1.5h5c0.7,0,1.4,0.7,1.5,1.4l10.6,39.1c0.5,1.8,1.1,2,1.7,2h1.4l11-41.2
		c0.2-0.7,0.9-1.4,1.7-1.4h5.1c0.9,0,1.4,0.6,1.4,1.5C429.3,487.5,429.3,487.8,429.2,488z"/>
	<path class="st0" d="M479.7,536.1c-5.4,0-11-0.5-16.6-1.5c-1.6-0.3-1.9-0.8-1.9-2.1v-63.1c0-0.9,0.6-1.7,1.6-1.7h4.6
		c0.9,0,1.7,0.7,1.7,1.7v16.8c3.4-0.6,7.7-0.9,10.6-0.9c13.1,0,19.7,7.9,19.7,22.1v6.5C499.3,527.3,493.2,536.1,479.7,536.1z
		 M491.4,507.3c0-9.7-2.9-15.2-11.7-15.2c-2.8,0-7.6,0.1-10.6,0.6v35.8c3.1,0.3,7.5,0.5,10.6,0.5c8.9,0,11.7-5.5,11.7-15.3V507.3z"
		/>
	<path class="st0" d="M542.7,535.4h-4.1c-1,0-1.8-0.8-1.8-1.8v-2c-4.3,2.5-8.8,4.4-13.9,4.4c-7.7,0-14.7-3.3-14.7-14.6v-1.1
		c0-9.7,5.7-14.6,21.7-14.6h6.7v-3.6c0-7.6-2.6-10.2-9.7-10.2c-5.9,0-10.2,0.4-13.8,0.7c-0.2,0-0.3,0-0.5,0c-0.8,0-1.6-0.3-1.6-1.4
		v-3.2c0-1,0.6-1.5,1.9-1.7c3.7-0.6,7.8-1.2,14-1.2c12.5,0,17.6,6.3,17.6,17v31.5C544.5,534.6,543.7,535.4,542.7,535.4z
		 M536.6,511.4h-6.7c-10.9,0-13.8,2.4-13.8,8.8v1.1c0,6.5,3.1,8.2,8.3,8.2c4.1,0,7.8-1.3,12.2-3.6V511.4z"/>
	<path class="st0" d="M593,535.4h-4.3c-1,0-1.8-0.8-1.8-1.8v-29.7c0-9.1-3.1-11.9-9.9-11.9c-3.8,0-8,1.4-12.2,3.5v38.1
		c0,0.9-0.8,1.8-1.8,1.8h-4.4c-0.9,0-1.7-0.8-1.7-1.8v-46c0-1,0.7-1.8,1.7-1.8h4.5c1,0,1.7,0.8,1.7,1.8v1.7c5-2.8,9-4.1,14.3-4.1
		c10.8,0,15.7,6.8,15.7,18.8v29.7C594.8,534.6,594,535.4,593,535.4z"/>
	<path class="st0" d="M641.5,535.4H635c-1,0-1.4-0.3-2.1-1.2L615,512.1v21.6c0,1-0.8,1.8-1.8,1.8h-4.3c-1,0-1.8-0.8-1.8-1.8v-64.2
		c0-1,0.8-1.8,1.8-1.8h4.3c1,0,1.8,0.8,1.8,1.8v37.5l18-20.3c0.5-0.6,0.9-0.8,1.8-0.8h6.3c0.9,0,1.4,0.5,1.4,1c0,0.4-0.2,0.7-0.5,1
		l-19.8,21.5l20,24.2c0.2,0.2,0.3,0.5,0.3,0.8C642.5,534.9,642.1,535.4,641.5,535.4z"/>
	<path class="st0" d="M705.1,535.4h-27.2c-3.9,0-5.5-2.4-5.5-5v-1.7c0-2.5,0.5-3.9,2.1-5.9l23.3-29c0.2-0.3,0.4-0.5,0.4-0.8
		c0-0.4-0.2-0.6-0.9-0.6h-21.9c-1,0-1.8-0.8-1.8-1.8v-3.1c0-1,0.8-1.8,1.8-1.8h26.5c3.7,0,5.1,1.7,5.1,4.4v2.2c0,1.9-0.6,3.2-2.1,5
		L681,527c-0.4,0.4-0.5,0.7-0.5,1c0,0.5,0.1,0.7,0.7,0.7h23.8c1,0,1.8,0.8,1.8,1.8v3.1C706.9,534.6,706.1,535.4,705.1,535.4z"/>
	<path class="st0" d="M778.9,488l-8.7,41.9c-1.2,5.7-2.2,6.2-7.6,6.2c-4.7,0-6-0.8-7.4-6.5l-7.8-30.7c-0.2-0.6-0.2-0.6-0.5-0.6
		s-0.3,0-0.5,0.6l-7.8,30.7c-1.4,5.2-2.7,6.5-7.4,6.5c-5.4,0-6.4-0.6-7.6-6.2l-8.7-41.9c0-0.1,0-0.3,0-0.4c0-0.9,0.7-1.8,1.7-1.8
		h4.9c0.8,0,1.4,0.7,1.5,1.4l7.5,41.1c0.2,1.1,0.5,1.1,0.7,1.1s0.5-0.3,0.7-1.1l8.8-34.6c0.5-2,1.7-2.7,3.6-2.7h5.1
		c1.9,0,3.1,0.7,3.6,2.7l8.8,34.6c0.2,0.8,0.5,1.1,0.7,1.1s0.5,0,0.7-1.1l7.5-41.1c0.1-0.7,0.7-1.4,1.5-1.4h4.9c1,0,1.7,0.9,1.7,1.8
		C778.9,487.7,778.9,487.9,778.9,488z"/>
	<path class="st0" d="M823.6,513.1h-30.2v1.3c0,10.7,4.2,14.7,12.5,14.7c5.2,0,11.9-0.4,16.1-1c0.2,0,0.3,0,0.5,0
		c0.7,0,1.4,0.4,1.4,1.3v3.1c0,1.2-0.4,1.8-1.8,2.1c-5.1,1-10.1,1.5-16.1,1.5c-10.4,0-20.5-4.9-20.5-21.6v-8.1
		c0-12.9,7.1-21.1,20-21.1c13.2,0,19.8,8.3,19.8,21.1v4.9C825.3,512.3,824.7,513.1,823.6,513.1z M817.3,506.3
		c0-10.2-3.9-14.2-11.8-14.2c-7.8,0-12.1,4.4-12.1,14.2v0.8h23.9V506.3z"/>
	<path class="st0" d="M843.5,477.9h-4.6c-1,0-1.8-0.8-1.8-1.8v-7.2c0-1,0.8-1.8,1.8-1.8h4.6c1,0,1.8,0.8,1.8,1.8v7.2
		C845.3,477.1,844.4,477.9,843.5,477.9z M843.3,535.4h-4.3c-1,0-1.8-0.8-1.8-1.8v-46c0-1,0.8-1.8,1.8-1.8h4.3c1,0,1.8,0.8,1.8,1.8
		v46C845.1,534.6,844.3,535.4,843.3,535.4z"/>
	<path class="st0" d="M876.9,536.1c-2.8,0-7-0.4-10.6-1v16.3c0,0.9-0.7,1.7-1.7,1.7h-4.6c-0.9,0-1.6-0.7-1.6-1.7v-62.1
		c0-1.2,0.3-1.7,1.9-2.1c4.8-1.2,11.1-2.1,16.6-2.1c13.4,0,19.7,8.7,19.7,22.3v6.5C896.6,528.1,890.1,536.1,876.9,536.1z
		 M888.6,507.5c0-9.5-2.8-15.6-11.7-15.6c-3.8,0-8,0.5-10.6,0.9v35.7c3,0.5,7.7,0.9,10.6,0.9c8.8,0,11.7-5.8,11.7-15.4V507.5z"/>
	<path class="st0" d="M914.4,535.4h-4.7c-0.9,0-1.6-0.8-1.6-1.8v-64.3c0-0.9,0.6-1.7,1.6-1.7h4.7c0.9,0,1.6,0.7,1.6,1.7v64.3
		C916.1,534.5,915.4,535.4,914.4,535.4z"/>
	<path class="st0" d="M965.5,535.4H961c-1,0-1.7-0.8-1.7-1.8v-1.7c-5,2.8-9,4.1-14.3,4.1c-10.8,0-15.7-6.8-15.7-18.8v-29.7
		c0-1,0.8-1.8,1.8-1.8h4.3c1,0,1.8,0.8,1.8,1.8v29.7c0,9.1,3.1,11.9,9.9,11.9c3.8,0,8-1.4,12.2-3.5v-38.1c0-0.9,0.8-1.8,1.8-1.8h4.4
		c0.9,0,1.7,0.8,1.7,1.8v46C967.2,534.6,966.5,535.4,965.5,535.4z"/>
	<path class="st0" d="M994,536.1c-3.3,0-9.8-0.3-14.3-1.4c-1.2-0.3-1.9-0.8-1.9-1.8v-3.2c0-0.8,0.7-1.4,1.6-1.4c0.2,0,0.3,0,0.4,0
		c4.3,0.5,10.9,1,14.2,1c5.9,0,8.9-1.5,8.9-6.4c0-2.7-1.6-4.4-6.8-7.5l-9.1-5.4c-5.5-3.3-9.2-7.2-9.2-12.9c0-9.4,7-12,16.3-12
		c5.1,0,9.8,0.5,14.1,1.2c1.2,0.2,1.7,0.8,1.7,1.8v3c0,1.1-0.6,1.5-1.5,1.5c-0.1,0-0.2,0-0.3,0c-3.2-0.3-8.9-0.7-14-0.7
		s-8.4,0.6-8.4,5.2c0,2.7,2.1,4.4,6.2,6.9l8.9,5.3c7.5,4.4,9.9,8.3,9.9,13.6C1010.9,532.2,1004.1,536.1,994,536.1z"/>
</g>
<g>
</g>
<g>
</g>
<g>
</g>
<g>
</g>
<g>
</g>
<g>
</g>
</svg>
