<?xml version="1.0" encoding="utf-8"?>
<!-- Generator: Adobe Illustrator 23.1.0, SVG Export Plug-In . SVG Version: 6.00 Build 0)  -->
<svg version="1.1" id="Ebene_1" xmlns="http://www.w3.org/2000/svg" xmlns:xlink="http://www.w3.org/1999/xlink" x="0px" y="0px"
	 width="592.1px" height="94.1px" viewBox="0 0 592.1 94.1" style="enable-background:new 0 0 592.1 94.1;" xml:space="preserve">
<style type="text/css">
	.st0{fill-rule:evenodd;clip-rule:evenodd;fill:#FFFFFF;}
	.st1{fill:#FFFFFF;}
</style>
<g>
	<path class="st0" d="M113.1,76.5h3.7c4.1,0,7.3,1.8,7.3,6.2c0,4.1-3.1,6.3-7.2,6.3h-3.8V76.5L113.1,76.5z M117.9,93.5
		c8.7,0,14-4.5,14-10.9c0-5.6-5.1-8.8-9.7-9v-0.1c2.6-0.7,7.4-3.1,7.4-9c0-5-4.4-7.9-10.6-7.9h-13.3v36.9H117.9L117.9,93.5z
		 M113.1,61.1h3.8c3.2,0,5.6,1.4,5.6,4.7c0,3.4-2.9,6.2-7.2,6.2h-2.3V61.1L113.1,61.1z"/>
	<path class="st0" d="M150.9,89.6c0,1.4,0.2,3,0.7,3.8h7.4c-0.8-1.8-1.1-4.3-1.1-6.4V76.3c0-8.2-6-9.8-10.8-9.8
		c-3.6,0-6.9,0.9-10.1,3.6l2.3,3.3c1.8-1.6,4-2.7,7-2.7c2.3,0,4.4,1.5,4.8,4l-6.2,1.8c-6.1,1.7-9.8,4.6-9.8,9.6c0,4.9,3.4,8,7.5,8
		c2.4,0,4.8-1.6,6.7-3.2L150.9,89.6L150.9,89.6z M151,78.2c0.5,7.8-3.1,11.2-5.9,11.2c-1.7,0-3.2-1.6-3.2-3.9c0-3,1.7-5,5.2-6.1
		L151,78.2L151,78.2z"/>
	<path class="st1" d="M170.1,67.1h-7v26.4h7V77.8c0-4.3,2.7-6.6,6.1-6.6c3.6,0,5.3,2.4,5.3,6.1v16.2h7v-17c0-6.6-3.3-10-9.4-10
		c-3.3,0-6.6,1.2-9,3.7V67.1L170.1,67.1z"/>
	<polygon class="st1" points="194.1,93.5 201.1,93.5 201.1,79.6 201.2,79.6 211.1,94 217.9,91.6 207.9,78.3 215.9,68.8 210.7,66.6 
		201.9,77.5 201.1,77.5 201.1,54.7 194.1,54.7 194.1,93.5 	"/>
	<path class="st0" d="M232.3,58.3h3c5.1,0,7.6,2,7.6,7.2c0,6.1-3.6,7.9-6.6,7.9h-4V58.3L232.3,58.3z M232.3,75h3.4c5,0,9,2.3,9,8.6
		c0,5.2-2.3,8.1-7,8.1c-4.4,0-5.3-1.3-5.3-6V75L232.3,75z M222.6,56.6v1.4c4.7,0.6,4.5,0.3,4.5,5.2v23.7c0,4.9,0.2,4.6-4.5,5.2v1.4
		h14.6c7.8,0,13.4-3.2,13.4-10.5c0-5.5-4.5-9.2-10.1-9.3v-0.1c4.2-1.2,7.6-4.5,7.6-8.9c0-6-4.4-8-12.5-8H222.6L222.6,56.6z"/>
	<path class="st1" d="M268.4,72.4c0.3,0.2,0.5,0.3,0.8,0.1l1.5-1c0.3-0.2,0.6-0.4,0.4-0.7l-1.5-2.7c-0.8-1.5-1.5-1.6-2-1.6
		c-0.9,0-1.6,0.7-2.9,2l-2.7,2.8v-4.7l-0.1-0.1c-2.4,1.5-6,2.1-8.8,2.2v1.4c2.5,0,4.2-0.2,4.2,2.2v14.6c0,4.7,0.3,4.6-4.2,5.2v1.4
		h14.1v-1.4c-2.8-0.3-4.7-0.4-5-1.5c-0.2-1.3-0.2-2-0.2-3.7v-8.2c0-3.8,0.4-7.4,2.5-7.4c0.8,0,1.4-0.1,2,0.2L268.4,72.4L268.4,72.4z
		"/>
	<path class="st0" d="M280.6,66.5c-2.4,1.5-6,2.1-8.9,2.2v1.4c2.6,0,4.2-0.2,4.2,2.2v14.6c0,4.7,0.3,4.6-4.2,5.2v1.4h13.2v-1.4
		c-4.5-0.6-4.2-0.5-4.2-5.2V66.6L280.6,66.5L280.6,66.5z M274.7,59.9c0,1.7,1.4,3.1,3.1,3.1c1.6,0,3.1-1.5,3.1-3.1s-1.4-3.1-3.1-3.1
		C276.1,56.9,274.7,58.3,274.7,59.9L274.7,59.9z"/>
	<path class="st0" d="M309,78.9v-1.5c0-6.6-3.8-11-9.8-11c-9,0-12.3,7.5-12.3,13.7c0,4,2,8.1,3.5,9.9c4.3,4.7,8.7,4,10,4h1.6
		l6.9-3.3l-0.8-1.6c-1.3,0.6-3,1.9-5.9,1.9c-7.5,0-10.3-6.2-10.3-12.2H309L309,78.9z M291.9,77.1c0-6.6,3.4-8.8,7-8.8
		c3,0,5.5,2.3,5.5,5.7c0,2.3-1.5,3.1-2.6,3.1H291.9L291.9,77.1z"/>
	<path class="st1" d="M320,80.5c0-5.4,1.1-11.2,7.8-11.2c5.6,0,5.8,4.6,5.8,8v9.7c0,4.7,0.3,4.6-4.2,5.2v1.4h13.2v-1.4
		c-4.5-0.6-4.2-0.5-4.2-5.2V75.8c0-5.5-1.3-9.3-7.7-9.3c-4.6,0-8.4,2-10.7,4.6v-4.5l-0.1-0.1c-2.4,1.5-6,2.1-8.9,2.2v1.4
		c2.6,0,4.2-0.2,4.2,2.2v14.6c0,4.7,0.3,4.6-4.2,5.2v1.4h13.2v-1.4c-4.5-0.6-4.2-0.5-4.2-5.2V80.5L320,80.5z"/>
	<path class="st1" d="M365,67.1h-18.4V74h1.4c0.1-2.7,1.2-4.8,4.6-4.8h7.8l-16.7,22.2l0.9,2.1h21.3v-6.9h-1.4
		c-0.1,2.6-0.9,4.8-5.1,4.8H349l16-21.7V67.1L365,67.1z"/>
	<path class="st0" d="M390.8,94.1c11.7,0,20-9.1,20-20.2c0-8.1-6.6-18-18.1-18c-11,0-19.8,8.4-19.8,19.8
		C372.8,85.9,380.7,94.1,390.8,94.1L390.8,94.1z M392.2,92.3c-6.8,0-13.3-6.5-13.3-19.3c0-7.2,3.7-15.2,12.7-15.2
		c6.4,0,13.2,5.1,13.2,17.7C404.7,82.6,402,92.3,392.2,92.3L392.2,92.3z"/>
	<path class="st0" d="M420.7,80.7c0-2.7,0.2-5.7,0.9-7.7c0.6-1.8,3.2-4.1,6-4.1c3.9,0,7.8,2.8,7.8,10.4c0,9.6-4.5,12.9-8.8,12.9
		c-1.9,0-4.2-0.3-4.9-1.3c-0.8-1-1-3.5-1-5V80.7L420.7,80.7z M416,93.5c3.3-0.8,6.2,0.6,10.9,0.6c7.3,0,13.8-6.6,13.8-14.9
		c0-9.5-4.9-12.8-11-12.8c-3.4,0-6.7,1.6-9,4.3v-16l-0.1-0.1c-2.3,0.8-5.7,1.5-8.8,1.6v1.4h2.2c1.4,0,2,0.9,2,2.3V93.5L416,93.5z"/>
	<path class="st0" d="M465.2,78.9v-1.5c0-6.6-3.8-11-9.8-11c-9,0-12.3,7.5-12.3,13.7c0,4,1.9,8.1,3.5,9.9c4.3,4.7,8.7,4,10,4h1.6
		l6.9-3.3l-0.8-1.6c-1.3,0.6-3,1.9-5.9,1.9c-7.5,0-10.3-6.2-10.3-12.2H465.2L465.2,78.9z M448.1,77.1c0-6.6,3.4-8.8,7-8.8
		c3,0,5.5,2.3,5.5,5.7c0,2.3-1.5,3.1-2.6,3.1H448.1L448.1,77.1z"/>
	<path class="st1" d="M482.5,72.4c0.3,0.2,0.5,0.3,0.8,0.1l1.5-1c0.3-0.2,0.6-0.4,0.4-0.7l-1.5-2.7c-0.8-1.5-1.5-1.6-2-1.6
		c-0.9,0-1.6,0.7-2.9,2l-2.7,2.8v-4.7l-0.1-0.1c-2.4,1.5-6,2.1-8.8,2.2v1.4c2.5,0,4.2-0.2,4.2,2.2v14.6c0,4.7,0.3,4.6-4.2,5.2v1.4
		h14.1v-1.4c-2.8-0.3-4.7-0.4-5-1.5c-0.2-1.3-0.2-2-0.2-3.7v-8.2c0-3.8,0.4-7.4,2.5-7.4c0.8,0,1.4-0.1,2,0.2L482.5,72.4L482.5,72.4z
		"/>
	<path class="st1" d="M494.7,54.7c-2.3,0.8-5.7,1.5-8.9,1.6v1.4h2.2c1.4,0,2,0.9,2,2.3v26.9c0,4.7,0.3,4.6-4.2,5.2v1.4h13.2v-1.4
		c-4.5-0.6-4.2-0.5-4.2-5.2v-6.4c0-5.4,1.1-11.2,7.8-11.2c5.6,0,5.8,4.6,5.8,8v9.7c0,4.7,0.3,4.6-4.2,5.2v1.4h13.2v-1.4
		c-4.5-0.6-4.2-0.5-4.2-5.2V75.8c0-5.5-1.3-9.3-7.7-9.3c-4.6,0-8.4,2-10.7,4.6V54.8L494.7,54.7L494.7,54.7z"/>
	<path class="st0" d="M534.3,82.1c0,7-3.3,8.8-6,8.8c-2.4,0-4.1-2-4.1-4.5c0-5.4,5.4-6.6,10.1-8.4V82.1L534.3,82.1z M543.1,91.7
		l-0.3-1.5c-3.5,1.4-3.7-0.9-3.7-3.6V75c0-5.7-2.7-8.5-8.9-8.5c-2.3,0-4.1,0.4-6.5,1.3c-0.6,0.2-1.2,0.6-1.5,1.6l-0.8,2.8
		c-0.1,0.4,0.1,0.6,0.4,0.7l1.8,0.4c0.3,0.1,0.5,0.1,0.7-0.2c1.3-1.9,2.4-4.8,5.6-4.8c3.3,0,4.5,3.1,4.5,7.6l-5.7,2.2
		c-6.2,2.4-9.1,4-9.1,9c0,3.8,2.9,6.9,6.4,6.9c1.6,0,3.1-0.6,4.3-1.4l4.1-2.7c0,1.6,0.4,3.2,1.2,4.2L543.1,91.7L543.1,91.7z"/>
	<path class="st1" d="M545.4,92.7c2,0.9,4.2,1.4,7.1,1.4c4.6,0,9.5-2.4,9.5-7.9c0-2.4-0.6-4.4-5.6-7.9c-3.8-2.7-6.5-4.1-6.5-6.6
		c0-2.1,1.8-3.4,4.1-3.4c3,0,4.6,2.5,4.7,4.3h1.4v-5.3c-2.4-0.8-4.5-0.9-6.2-0.9c-4.3,0-8.4,2.5-8.4,6.9c0,3.5,1.7,4.3,6,7.4
		c3.2,2.3,5.9,3.5,5.9,6.9c0,2.2-1.8,4.5-4.8,4.5s-5.8-1.8-5.7-5.5h-1.4V92.7L545.4,92.7z"/>
	<path class="st1" d="M573,54.7c-2.3,0.8-5.7,1.5-8.9,1.6v1.4h2.2c1.4,0,2,0.9,2,2.3v26.9c0,4.7,0.3,4.6-4.2,5.2v1.4h13.2v-1.4
		c-4.5-0.6-4.2-0.5-4.2-5.2V54.8L573,54.7L573,54.7z"/>
	<path class="st0" d="M587.7,66.5c-2.4,1.5-6,2.1-8.9,2.2v1.4c2.6,0,4.2-0.2,4.2,2.2v14.6c0,4.7,0.3,4.6-4.2,5.2v1.4h13.2v-1.4
		c-4.5-0.6-4.2-0.5-4.2-5.2V66.6L587.7,66.5L587.7,66.5z M581.8,59.9c0,1.7,1.4,3.1,3.1,3.1c1.6,0,3.1-1.5,3.1-3.1s-1.4-3.1-3.1-3.1
		C583.2,56.9,581.8,58.3,581.8,59.9L581.8,59.9z"/>
	<path class="st0" d="M5.1,60.2h4.3c4.2,0,6.5,1.8,6.5,5.1c0,4-3.8,7-8.3,7H5.1V60.2L5.1,60.2z M5.1,76h4.1c4.2,0,8.6,1.8,8.6,7
		c0,4.4-3.6,6.7-7.7,6.7h-5V76L5.1,76z"/>
	<g>
		<path class="st1" d="M71,57.7c-9,0-12.7,8-12.7,15.2c0,12.8,6.5,19.3,13.3,19.3c9.8,0,12.5-9.7,12.5-16.8
			C84.2,62.9,77.4,57.7,71,57.7z"/>
		<path class="st1" d="M42.8,65.4c0-5.2-2.5-7.2-7.6-7.2h-3v15.1h4C39.2,73.3,42.8,71.6,42.8,65.4z"/>
		<path class="st1" d="M35.6,75h-3.4v10.8c0,4.6,0.9,6,5.3,6c4.7,0,7-2.9,7-8.1C44.5,77.3,40.5,75,35.6,75z"/>
		<path class="st1" d="M0,0l0,56.5h11.4c5.5,0,9.6,2.7,9.6,7.5c0,6-4.7,8.9-7.5,9.5c4.9,0.2,9.8,3.2,9.8,9.2
			c0,5.5-4.2,9.7-10.5,10.5v0.2h25.3l-15.6,0v-1.4c4.7-0.6,4.5-0.3,4.5-5.2V63.1c0-4.9,0.2-4.6-4.5-5.2v-1.4h13c8.1,0,12.5,2,12.5,8
			c0,4.4-3.4,7.7-7.6,8.9c5.6,0.3,10.1,3.9,10.1,9.4c0,7.1-5.2,10.3-12.4,10.5h37.4l-10,0c-7.7-2.1-13.1-9.2-13.1-17.8
			c0-11.4,8.9-19.8,19.8-19.8c11.4,0,18.1,9.9,18.1,18c0,9.4-5.9,17.3-14.8,19.5h17.9V0H0z"/>
	</g>
</g>
</svg>
