<?xml version="1.0" encoding="utf-8"?>
<!-- Generator: Adobe Illustrator 23.0.6, SVG Export Plug-In . SVG Version: 6.00 Build 0)  -->
<svg version="1.1" id="Logo" xmlns="http://www.w3.org/2000/svg" xmlns:xlink="http://www.w3.org/1999/xlink" x="0px" y="0px"
	 width="718px" height="141.7px" viewBox="0 0 718 141.7" style="enable-background:new 0 0 718 141.7;" xml:space="preserve">
<style type="text/css">
	.st0{fill:#FFFFFF;}
</style>
<g>
	<g>
		<path class="st0" d="M21,70.3c3-0.8,5.3-3.8,5.3-7.4c0-6.9-5.6-9.4-13-9.4H0v34.6h14.2c7.9,0,13-3,13-9.9
			C27.2,74.3,24.3,71.3,21,70.3z M5.6,58.8h7.6c3.9,0,7.3,0.6,7.3,4.6c0,4.1-3.4,4.7-7.3,4.7H5.6V58.8z M14,82.9H5.6v-9.6H14
			c4.4,0,7.3,0.8,7.3,4.7C21.3,82.1,18.4,82.9,14,82.9z M413.6,3h-36.9v135.8h86.6V106h-49.7V3z M513.4,85.1h50.2V56.4h-50.2V35.6
			h61.3V3h-97.3v135.8h98.2v-32.7h-62.2V85.1z M101.4,88.8c3.4,0,5.8-1.4,7.4-3.5v12.7h5.2V64.5h-5.2v2.9c-1.6-2.1-4.1-3.5-7.4-3.5
			c-6.6,0-11.8,5.2-11.8,12.5C89.6,83.6,94.8,88.8,101.4,88.8z M102,68.7c4.3,0,7.1,3.3,7.1,7.6c0,4.3-2.9,7.6-7.1,7.6
			c-4.4,0-7.1-3.4-7.1-7.6C94.9,72.2,97.6,68.7,102,68.7z M101.9,119.3c2.3,0,4,0.9,5.7,2.4l3.3-3.5c-2.1-2.5-5.3-3.8-8.8-3.8
			c-7.5,0-12.5,5.4-12.5,12.5c0,7.1,4.9,12.5,12.5,12.5c3.5,0,6.7-1.3,8.8-3.8l-3.2-3.6c-1.5,1.4-3.5,2.5-5.8,2.5c-4,0-7-3.1-7-7.6
			C94.9,122.4,97.9,119.3,101.9,119.3z M310.4,35.4c9.8,0,18.6,4,25.1,10.4l25.1-25.1C347.7,7.9,329.9,0,310.4,0
			c-39.1,0-72.1,29.1-72.1,70.9c0,41.8,33,70.9,72.1,70.9c19.6,0,37.3-7.9,50.1-20.8l-25.1-25.1c-6.4,6.4-15.3,10.4-25.1,10.4
			c-19.6,0-35.4-15.9-35.4-35.4C274.9,51.3,290.8,35.4,310.4,35.4z M96.4,27.6h2.6l7.9,10h6.5l-10-12.5l9.9-11.1h-6.5l-7.8,9h-2.6V2
			h-5.2v35.6h5.2V27.6z M685.3,90.9c16.3-7.8,25.3-22.3,25.3-41.4v-0.4c0-13-4.2-24.1-12.1-32.1C689.2,7.9,675.3,3,658.4,3h-60.1
			v135.8h36V97.9H649l26.3,40.8H718L685.3,90.9z M674,51.9c0,11.5-7.8,17.7-20.7,17.7h-18.9V33.8h18.8c12.7,0,20.9,5.3,20.9,17.7
			V51.9z M21,120.9c3-0.8,5.3-3.8,5.3-7.4c0-6.9-5.6-9.4-13-9.4H0v34.6h14.2c7.9,0,13-3,13-9.9C27.2,124.9,24.3,121.9,21,120.9z
			 M5.6,109.4h7.6c3.9,0,7.3,0.6,7.3,4.6c0,4.1-3.4,4.7-7.3,4.7H5.6V109.4z M14,133.5H5.6v-9.6H14c4.4,0,7.3,0.8,7.3,4.7
			C21.3,132.7,18.4,133.5,14,133.5z M159.2,63.9c-7,0-11.8,5-11.8,12.5c0,7.5,5,12.5,12.1,12.5c3.6,0,6.8-0.9,9.7-3.3l-2.6-3.7
			c-2,1.6-4.5,2.5-6.8,2.5c-3.4,0-6.4-1.8-7-6h17.5c0-0.6,0.1-1.3,0.1-1.9C170.3,68.9,165.8,63.9,159.2,63.9z M152.8,74.3
			c0.5-3.5,2.6-5.8,6.3-5.8c3.3,0,5.4,2.2,6,5.8H152.8z M75,114.5c-2.4,0-5.4,0.7-7.3,3.5v-2.9h-5.1v23.7h5.2v-13.1
			c0-4.1,2.8-6.3,6.1-6.3c3.5,0,5.5,2.2,5.5,6.2v13.2h5.2v-14.9C84.6,118.3,80.7,114.5,75,114.5z M75,13.3c-2.4,0-5.4,0.7-7.3,3.5
			v-2.9h-5.1v23.7h5.2V24.5c0-4.1,2.8-6.3,6.1-6.3c3.5,0,5.5,2.2,5.5,6.2v13.2h5.2V22.7C84.6,17.2,80.7,13.3,75,13.3z M132.4,117.9
			c-1.6-2.1-4.1-3.5-7.4-3.5c-6.6,0-11.8,5.2-11.8,12.5c0,7.2,5.2,12.5,11.8,12.5c3.4,0,5.8-1.4,7.4-3.5v2.8h5.2v-23.7h-5.2V117.9z
			 M125.6,134.5c-4.4,0-7.1-3.4-7.1-7.6s2.7-7.6,7.1-7.6c4.3,0,7.1,3.3,7.1,7.6S129.9,134.5,125.6,134.5z M75,63.9
			c-2.4,0-5.4,0.7-7.3,3.5v-2.9h-5.1v23.7h5.2V75c0-4.1,2.8-6.3,6.1-6.3c3.5,0,5.5,2.2,5.5,6.2v13.2h5.2V73.3
			C84.6,67.8,80.7,63.9,75,63.9z M50.8,16.8c-1.6-2.1-4.1-3.5-7.4-3.5c-6.6,0-11.8,5.2-11.8,12.5c0,7.2,5.2,12.5,11.8,12.5
			c3.4,0,5.8-1.4,7.4-3.5v2.8h5.2V13.9h-5.2V16.8z M43.9,33.3c-4.4,0-7.1-3.4-7.1-7.6c0-4.2,2.7-7.6,7.1-7.6c4.3,0,7.1,3.3,7.1,7.6
			C51.1,30.1,48.2,33.3,43.9,33.3z M50.8,117.9c-1.6-2.1-4.1-3.5-7.4-3.5c-6.6,0-11.8,5.2-11.8,12.5c0,7.2,5.2,12.5,11.8,12.5
			c3.4,0,5.8-1.4,7.4-3.5v2.8h5.2v-23.7h-5.2V117.9z M43.9,134.5c-4.4,0-7.1-3.4-7.1-7.6s2.7-7.6,7.1-7.6c4.3,0,7.1,3.3,7.1,7.6
			S48.2,134.5,43.9,134.5z M50.8,67.4c-1.6-2.1-4.1-3.5-7.4-3.5c-6.6,0-11.8,5.2-11.8,12.5c0,7.2,5.2,12.5,11.8,12.5
			c3.4,0,5.8-1.4,7.4-3.5v2.8h5.2V64.5h-5.2V67.4z M43.9,83.9c-4.4,0-7.1-3.4-7.1-7.6c0-4.2,2.7-7.6,7.1-7.6c4.3,0,7.1,3.3,7.1,7.6
			C51.1,80.7,48.2,83.9,43.9,83.9z M21,19.8c3-0.8,5.3-3.8,5.3-7.4c0-6.9-5.6-9.4-13-9.4H0v34.6h14.2c7.9,0,13-3,13-9.9
			C27.2,23.7,24.3,20.7,21,19.8z M5.6,8.2h7.6c3.9,0,7.3,0.6,7.3,4.6c0,4.1-3.4,4.7-7.3,4.7H5.6V8.2z M14,32.3H5.6v-9.6H14
			c4.4,0,7.3,0.8,7.3,4.7C21.3,31.5,18.4,32.3,14,32.3z M137.3,77.7c0,4.6-2.5,6.3-5.8,6.3c-3.2,0-5.8-1.7-5.8-6.3V64.5h-5.2v13.6
			c0,7.5,5.4,10.7,11,10.7c5.5,0,11-3.1,11-10.7V64.5h-5.2V77.7z"/>
	</g>
</g>
</svg>
