<?xml version="1.0" encoding="utf-8"?>
<!-- Generator: Adobe Illustrator 23.1.0, SVG Export Plug-In . SVG Version: 6.00 Build 0)  -->
<svg version="1.1"
	 id="svg47" xmlns:cc="http://creativecommons.org/ns#" xmlns:dc="http://purl.org/dc/elements/1.1/" xmlns:rdf="http://www.w3.org/1999/02/22-rdf-syntax-ns#" xmlns:svg="http://www.w3.org/2000/svg"
	 xmlns="http://www.w3.org/2000/svg" xmlns:xlink="http://www.w3.org/1999/xlink" x="0px" y="0px" width="273.2px" height="75px"
	 viewBox="0 0 273.2 75" style="enable-background:new 0 0 273.2 75;" xml:space="preserve">
<style type="text/css">
	.st0{fill:#FFFFFF;}
</style>
<path id="path5" class="st0" d="M113.1,28.3c-1.4,1.6-3,2.4-5.2,2.4c-3.9,0-6.4-2.7-6.4-6.8c0-4.2,2.5-6.9,6.4-6.9
	c2.2,0,3.9,0.7,5,2.4l0.2,0.3l3.1-2.5l-0.2-0.3c-2-2.5-4.8-3.6-8.1-3.6c-6,0-10.7,4.7-10.7,10.7c0,5.9,4.8,10.7,10.7,10.7
	c3.5,0,6.1-1.1,8.3-3.8l0.2-0.2l-3-2.5L113.1,28.3z"/>
<path id="path7" class="st0" d="M123.4,21.9c0.7-3.2,3-5.2,6.3-5.2c3.4,0,5.7,1.9,6.1,5.2H123.4z M129.8,13.1
	c-5.9,0-10.7,4.7-10.7,10.7c0,6.1,4.8,10.7,11.1,10.7c3.6,0,6.6-1.1,8.6-3.5l0.2-0.3l-2.6-2.6l-0.3,0.3c-1,1.1-2.8,2.5-5.9,2.5
	c-3.8,0-6.1-2-6.8-5.5h16.7V25c0.1-3.6-0.9-6.8-3-8.9C135.2,14.1,132.6,13.1,129.8,13.1z"/>
<path id="path9" class="st0" d="M154.3,13.1c-2.2,0-4,1-5.2,2.8v-2.5h-4.2v20.7h4.2V23.3c0-3.9,1.7-6.1,4.7-6.1c1,0,1.8,0.2,2.5,0.7
	l0.3,0.3l1.7-3.8l-0.3-0.2C157,13.4,155.8,13.1,154.3,13.1z"/>
<path id="path11" class="st0" d="M163.8,21.9c0.7-3.2,3-5.2,6.3-5.2c3.4,0,5.7,1.9,6.1,5.2H163.8z M170,13.1
	c-5.9,0-10.7,4.7-10.7,10.7c0,6.1,4.8,10.7,11.1,10.7c3.6,0,6.6-1.1,8.6-3.5l0.2-0.3l-2.6-2.6l-0.3,0.3c-1,1.1-2.8,2.5-5.9,2.5
	c-3.8,0-6.1-2-6.8-5.5h16.7V25c0.1-3.6-0.9-6.8-3-8.9C175.5,14.1,173,13.1,170,13.1z"/>
<path id="path13" class="st0" d="M193,21.7c-3.4-1-4.3-1.5-4.3-3c0-1.3,1.1-2,3-2c1.6,0,3,0.7,4,2l0.2,0.3l3-2.4l-0.2-0.2
	c-1.6-2.3-4-3.4-7-3.4c-4.1,0-6.9,2.3-6.9,5.8c0,4.1,3.3,5.3,6.3,6.3h0.1c3.5,1,4.8,1.5,4.8,3.2c0,1.6-1.4,2.5-3.8,2.5
	c-2.4,0-4.1-1-5.3-3.1l-0.2-0.3l-3.4,1.9l0.2,0.3c1.6,3.1,4.8,4.8,8.9,4.8c4.8,0,7.6-2.4,7.6-6.2C199.9,24.1,196.6,22.6,193,21.7z"
	/>
<path id="path15" class="st0" d="M231.5,23.9c0,4-2.6,6.9-6.6,6.9c-4,0-6.6-3-6.6-6.9c0-4.1,2.7-7,6.6-7S231.5,19.8,231.5,23.9z
	 M224.9,13.1c-6.1,0-10.9,4.7-10.9,10.7c0,5.9,4.8,10.7,10.9,10.7s10.8-4.8,10.8-10.7C235.7,17.7,231,13.1,224.9,13.1z"/>
<path id="path17" class="st0" d="M119.8,46.6c-2.8,0-5.2,1.1-6.6,3.3l0.1-2.8H109v20.6h4.2V56.4c0-3.5,2.2-5.8,5.7-5.8
	c3,0,4.4,1.7,4.4,5.1v12h4.3V55.2C127.6,49.9,124.5,46.6,119.8,46.6z"/>
<path id="path19" class="st0" d="M142.2,58.6c-0.2,0.5-0.5,1.1-0.7,1.8c-0.2-0.7-0.5-1.2-0.7-1.8L135.5,47h-4.7l9.9,20.9h1.1
	l9.9-20.9h-4.4L142.2,58.6z"/>
<path id="path21" class="st0" d="M158,55.3c0.7-3.2,3-5.1,6.3-5.1c3.4,0,5.7,1.9,6.1,5.1H158z M164.2,46.6c-6,0-10.7,4.8-10.7,10.7
	c0,6.1,4.7,10.7,11.1,10.7c3.6,0,6.6-1.1,8.6-3.5l0.2-0.2l-2.7-2.6l-0.2,0.3c-1,1.1-2.8,2.5-5.9,2.5c-3.8,0-6.3-2-6.8-5.5h16.6
	l0.1-0.5c0.1-3.5-1-6.7-3.1-8.9C169.7,47.5,167,46.6,164.2,46.6z"/>
<path id="path23" class="st0" d="M188.4,55.2c-3.4-1-4.3-1.5-4.3-3c0-1.3,1.1-2,3-2c1.6,0,3,0.7,4,2l0.2,0.3l3-2.3L194,50
	c-1.6-2.2-4-3.4-7-3.4c-4.1,0-6.9,2.4-6.9,5.8c0,4.1,3.3,5.3,6.3,6.3h0.2c3.4,1.1,4.7,1.5,4.7,3.2c0,1.6-1.4,2.5-3.8,2.5
	c-2.4,0-4.1-1-5.3-3.1l-0.2-0.5l-3.3,1.9l0.2,0.3c1.6,3.1,4.8,4.8,8.9,4.8c4.8,0,7.6-2.4,7.6-6.3C195.2,57.6,191.9,56.1,188.4,55.2z
	"/>
<path id="path25" class="st0" d="M231.5,57.3c0,4.1-2.6,6.9-6.6,6.9c-4,0-6.6-2.8-6.6-6.9s2.7-6.9,6.6-6.9S231.5,53.2,231.5,57.3z
	 M224.9,46.6c-6.1,0-10.9,4.8-10.9,10.7S218.7,68,224.9,68s10.8-4.7,10.8-10.7S231,46.6,224.9,46.6z"/>
<path id="path27" class="st0" d="M250.6,46.6c-2.2,0-4,0.9-5.2,2.8v-2.5h-4.2v20.6h4.2V56.7c0-3.9,1.7-6.1,4.7-6.1
	c1,0,1.8,0.2,2.5,0.7l0.3,0.2l1.6-3.8l-0.2-0.2C253.2,46.9,252,46.6,250.6,46.6z"/>
<path id="path29" class="st0" d="M266.4,55.2c-3.5-1-4.3-1.5-4.3-3c0-1.3,1.1-2,3-2c1.6,0,3,0.7,3.9,2l0.2,0.3l3-2.3l-0.2-0.3
	c-1.6-2.2-4-3.4-6.9-3.4c-4.2,0-6.9,2.4-6.9,5.8c0,4.1,3.2,5.3,6.1,6.3h0.2c3.4,1.1,4.8,1.5,4.8,3.2c0,1.6-1.5,2.5-3.9,2.5
	s-4-1-5.2-3.1l-0.2-0.5l-3.3,1.9l0.2,0.3c1.6,3.1,4.8,4.8,8.9,4.8c4.8,0,7.6-2.4,7.6-6.3C273.2,57.6,269.9,56.1,266.4,55.2z"/>
<path id="path31" class="st0" d="M208.5,63.3c-0.6,0.6-1.1,1.1-2.5,1.1c-1,0-1.9-0.3-1.9-3V51.3h5.3v-3.5h-5.3v-6.6h-4v20.2
	c0,5.7,3.4,6.6,5.6,6.6c2.6,0,4-1,4.9-1.9l0.2-0.2l-2-2.8L208.5,63.3z"/>
<path id="path33" class="st0" d="M204.8,34.1h4.2V14.2h-4.2V34.1z"/>
<path id="path35" class="st0" d="M204.8,11.4h4.2c-0.9-2-2.4-3.9-4.2-5.2V11.4z"/>
<path id="path37" class="st0" d="M97.6,67.5h4.3V47.6h-4.3V67.5z"/>
<path id="path39" class="st0" d="M97.6,44.8h4.3c-1-2-2.5-3.9-4.3-5.2V44.8z"/>
<path id="path41" class="st0" d="M60,22.3h11.8C69.2,16.4,65.1,11.4,60,7.5C60,7.5,60,22.3,60,22.3z"/>
<path id="path43" class="st0" d="M74.2,29.8H60v37.8c9.1-6.9,15-17.8,15-30.1C75,34.8,74.8,32.3,74.2,29.8z"/>
<path id="path45" class="st0" d="M52.5,54.3c-4,3.5-9.3,5.7-15,5.7C25,60,15,49.9,15,37.5C15,25,25.1,15,37.5,15
	c5.7,0,11,2.2,15,5.7V3.1C48,1.1,42.8,0,37.5,0C16.8,0,0,16.8,0,37.5S16.8,75,37.5,75c5.2,0,10.3-1.1,15-3.1V54.3z"/>
</svg>
