<?xml version="1.0" encoding="utf-8"?>
<!-- Generator: Adobe Illustrator 21.1.0, SVG Export Plug-In . SVG Version: 6.00 Build 0)  -->
<svg version="1.1" id="Ebene_1_Kopie" xmlns="http://www.w3.org/2000/svg" xmlns:xlink="http://www.w3.org/1999/xlink" x="0px"
	 y="0px" width="283.5px" height="77.9px" viewBox="0 0 283.5 77.9" style="enable-background:new 0 0 283.5 77.9;"
	 xml:space="preserve">
<style type="text/css">
	.st0{fill:#FFFFFF;}
</style>
<g>
	<path class="st0" d="M77.8,77.9V0H0v77.8L77.8,77.9z M3.2,3.2c3.7,0,67.8,0,71.5,0c0,3.7,0,67.8,0,71.5H3.2V3.2z"/>
</g>
<polygon class="st0" points="69.2,9.9 40.1,9.9 22.3,38.9 40.1,68 69.2,68 51.4,38.9 "/>
<g id="_x31__4_">
	<path class="st0" d="M101.1,9.9h15.7c12.1,0,20.4,3.9,20.4,14.6c0,8-4.7,12-12,13.8v0.2c7.9,0.7,13.5,5.8,13.5,14
		c0,12.5-10.3,15.5-22.1,15.5h-15.5C101.1,68,101.1,9.9,101.1,9.9z M109.4,34.7h4.6c8.1,0,14.9-0.7,14.9-9.3c0-6.9-5.9-8.6-10.7-8.6
		h-8.8V34.7z M109.4,61.1h6.2c7.5,0,14.2-1.6,14.2-9.4c0-9-7.9-10.2-15.1-10.2h-5.3V61.1z"/>
	<path class="st0" d="M151.1,9.9h8.3v50.7h23.1v7.3h-31.4L151.1,9.9L151.1,9.9z"/>
	<path class="st0" d="M191.1,9.9h8.3v25.5l24.8-25.5h11.1L208,37.3l29.4,30.6h-12.1l-25.9-28.4v28.4h-8.3V9.9z"/>
	<path class="st0" d="M245.9,9.9h15.7c12.1,0,20.4,3.9,20.4,14.6c0,8-4.7,12-12,13.8v0.2c7.9,0.7,13.5,5.8,13.5,14
		c0,12.5-10.3,15.5-22.1,15.5h-15.5V9.9z M254.2,34.7h4.6c8.1,0,14.9-0.7,14.9-9.3c0-6.9-5.9-8.6-10.7-8.6h-8.7L254.2,34.7
		L254.2,34.7z M254.2,61.1h6.2c7.5,0,14.2-1.6,14.2-9.4c0-9-7.9-10.2-15.1-10.2h-5.4L254.2,61.1L254.2,61.1z"/>
</g>
</svg>
