<?xml version="1.0" encoding="utf-8"?>
<!-- Generator: Adobe Illustrator 23.1.0, SVG Export Plug-In . SVG Version: 6.00 Build 0)  -->
<svg version="1.1" id="Ebene_1" xmlns="http://www.w3.org/2000/svg" xmlns:xlink="http://www.w3.org/1999/xlink" x="0px" y="0px"
	 width="243.7px" height="75px" viewBox="0 0 243.7 75" style="enable-background:new 0 0 243.7 75;" xml:space="preserve">
<style type="text/css">
	.st0{fill:#FFFFFF;}
</style>
<polygon class="st0" points="210.6,12.5 219.9,1 215.5,26.8 "/>
<polygon class="st0" points="215.5,26.8 243.7,12.2 234.2,28.5 "/>
<polygon class="st0" points="243.7,12.2 219.9,1 234.6,0 "/>
<g>
	<path class="st0" d="M116.8,46.8l-14.4-15.5l12.2-12.1c0,0,0.2-0.2,0.2-0.4c0-0.2-0.2-0.6-0.6-0.6h-4.5c-0.2,0-0.6,0.2-1,0.4
		L95.2,32.4V5.2c0-0.4-0.4-0.7-0.7-0.7l-3,0.4c-0.6,0.2-0.6,0.4-0.6,0.7v40.9c0,0.6,0.4,0.7,0.7,0.7h2.9c0.6,0,0.7-0.4,0.7-0.7v-8.5
		l4-4l11.5,12.9c0.4,0.4,0.6,0.4,1,0.4h4.5C116.3,47.3,116.8,47.2,116.8,46.8C116.8,46.9,116.8,46.9,116.8,46.8z"/>
	<g>
		<path class="st0" d="M187.7,19.6c0-0.7-0.6-1.1-1.1-1.1h-6.4c-0.6,0-1.1,0.4-1.1,1.4v17.7c0,8.1,4.7,11,13.4,11
			c9.2,0,13.2-3.4,13.2-11v-18c0-0.7-0.6-1.1-1.1-1.1h-6.4c-0.6,0-1.1,0.4-1.1,1.4v18c0,2.6-1,4.7-4.7,4.7c-3.4,0-4.7-1.7-4.7-4.7
			L187.7,19.6z"/>
	</g>
	<path class="st0" d="M84,47.5h-2.6c-0.6,0-0.7-0.4-0.7-0.7V26.2c0-3.7-1.4-4.9-5.2-4.9c-5.1,0-10.4,1.7-10.4,1.7v23.7
		c0,0.6-0.2,0.7-0.7,0.7h-2.9c-0.6,0-0.7-0.4-0.7-0.7V23.6c0-2.2,0.2-3.2,2.9-4.1c2.9-1,8.5-1.9,12.1-1.9c6.6,0,9.6,2.1,9.6,8.1
		v21.1C84.9,47.3,84.5,47.5,84,47.5z"/>
	<path class="st0" d="M0.7,5.1C0.2,5.1,0,5.2,0,5.9v36.8C0,44.8,0.2,46,2.9,47c1.9,0.6,5.5,1.4,9.5,1.4c10,0,13-4.5,13-15.5
		c0-10.6-2.6-15.2-11.9-15.2c-3.4,0-7.7,1.1-9.1,1.5V5.5c0-0.4-0.2-0.6-0.6-0.6L0.7,5.1z M12.2,44.7c-4.7,0-7.9-1.1-7.9-1.1v-21
		c0,0,4.9-1.5,8.5-1.5c6.4,0,7.9,2.9,7.9,11.7C20.7,41.9,18.7,44.7,12.2,44.7z"/>
	<path class="st0" d="M31.4,22.6c0.2,0.4,0.4,0.4,0.6,0.4s0.2,0,0.4,0c2.2-0.6,6-1.7,10.4-1.7c2.5,0,4,0.2,5.1,0.7
		c1.9,0.7,2.1,2.2,2.1,4v2.7l-10.6,1.7c-5.5,1-9.6,1.4-9.6,8.7c0,9.1,7.9,9.2,12.9,9.2c3,0,5.6-0.4,7.1-0.7c3.7-1,4.7-1.7,4.7-5.6
		V25.8c0-2.6,0-5.2-2.9-6.7c-1.7-1-4.1-1.5-8.1-1.5c-5.1,0-9.9,1.1-11.7,1.7c-0.2,0-0.6,0.2-0.6,0.7L31.4,22.6z M49.8,43.6
		c-2.2,0.7-5.1,1.1-7.5,1.1c-3.6,0-8.1-0.4-8.1-5.9c0-4.1,2.2-4.5,4.7-4.9l11-1.9C49.8,32.1,49.8,43.6,49.8,43.6z"/>
	<path class="st0" d="M152.4,41.9c0.2-0.6,0.4-0.7,0.6-0.7s0.4,0,0.4,0c0.7,0.2,4.7,1.4,8.1,1.4c2.5,0,4.7-1,4.7-3.2
		c0-2.5-1.9-2.9-4.7-3.4c-3.7-0.6-9.6-1.5-9.6-9.1c-0.2-8.1,7-9.2,11.9-9.2c4.5,0,7.9,1,9.1,1.4c0.4,0.2,0.6,0.6,0.6,0.7l0,0
		l-0.6,3.7c0,0.4-0.4,0.6-0.7,0.6c-0.2,0-0.4,0-0.4,0c-0.6-0.2-3.7-1-6.6-1c-2.2,0-4.9,0.4-4.9,2.9c0,2.9,2.9,3,5.6,3.6
		c4,0.7,8.7,2.2,8.9,9.1c0,7.4-5.1,9.6-11.9,9.6c-4.9,0-9.2-1.1-10.2-1.5c-0.2-0.2-0.6-0.2-0.6-0.7L152.4,41.9z"/>
	<path class="st0" d="M121.4,5.2c-0.7,0.2-1,0.6-1,1.4v35.4c0,2.6,0.2,4,3.2,4.9c2.2,0.7,6,1.4,10.4,1.4c11.5,0,14-5.1,14-15.8
		c0-11-3.6-14.9-12.1-14.9c-2.9,0-5.6,0.7-7,1.1V5.2c0-0.7-0.6-1-1.1-1L121.4,5.2z M133.4,42.4c-2.2,0-4.4-0.4-4.4-0.4V24.3
		c0,0,2.6-0.7,5.1-0.7c4.1,0,5.2,1.4,5.2,9.2C139.4,41.1,138,42.4,133.4,42.4z"/>
</g>
<g>
	<path class="st0" d="M105.9,60.8c0,0.4-0.4,0.6-0.6,0.6h-0.7c-0.4,0-0.6-0.4-0.6-0.6V60c0-0.4,0.4-0.7,0.6-0.7h0.7
		c0.4,0,0.6,0.4,0.6,0.7V60.8z"/>
	<path class="st0" d="M158.5,60.8c0,0.4-0.4,0.6-0.6,0.6h-0.7c-0.4,0-0.6-0.4-0.6-0.6V60c0-0.4,0.4-0.7,0.6-0.7h0.7
		c0.4,0,0.6,0.4,0.6,0.7V60.8z"/>
	<path class="st0" d="M181.2,60.8c0,0.4-0.4,0.6-0.6,0.6h-0.7c-0.4,0-0.6-0.4-0.6-0.6V60c0-0.4,0.4-0.7,0.6-0.7h0.7
		c0.4,0,0.6,0.4,0.6,0.7V60.8z"/>
	<g>
		<path class="st0" d="M96.3,63c0.7,0,1.4,0.2,1.9,0.4s1,0.4,1.4,0.7c0.4,0.4,0.6,0.7,0.7,1.1c0.2,0.4,0.4,0.7,0.4,1.1
			c0,0.4,0.2,0.7,0.2,1.1c0,0.4,0,0.6,0,1v1h-7.5c0,0.6,0,1,0.2,1.5c0,0.6,0.2,1,0.6,1.4c0.2,0.4,0.6,0.6,1,1c0.4,0.2,1,0.4,1.5,0.4
			s1.4,0,1.9-0.2c0.6-0.2,1.1-0.4,1.7-0.6l0.4,1.1c-0.7,0.4-1.4,0.6-2.1,0.7c-1,0.1-1.6,0.1-2.4,0.1c-1,0-1.9-0.2-2.5-0.4
			c-0.6-0.4-1.1-0.7-1.5-1.1c-0.4-0.6-0.6-1.1-0.7-1.9c-0.2-0.7-0.2-1.5-0.2-2.2c0-0.4,0-0.7,0-1.1c0-0.4,0.2-0.7,0.2-1.4
			c0.2-0.4,0.4-1,0.6-1.4c0.2-0.4,0.6-0.7,1-1.1c0.4-0.4,0.7-0.6,1.4-0.7C95.1,63.1,95.8,63,96.3,63z M96.6,64.3
			c-0.6,0-1,0.2-1.4,0.4c-0.4,0.1-0.7,0.4-1,0.7s-0.4,0.7-0.6,1.1c0,0.5,0,1,0,1.4h5.6c0-0.6,0-1-0.2-1.5c0-0.4-0.2-0.7-0.4-1.1
			c-0.2-0.4-0.6-0.6-0.7-0.7C97.5,64.5,97,64.3,96.6,64.3z"/>
		<path class="st0" d="M104.1,74.5V63.4h1.9v11.1C105.9,74.5,104.1,74.5,104.1,74.5z"/>
		<path class="st0" d="M109.6,64.3c1-0.6,1.9-0.7,2.9-1c1.1-0.4,2.2-0.4,2.9-0.4c0.7,0,1.5,0.2,1.9,0.4c0.4,0.2,0.7,0.6,1,0.7
			c0.2,0.4,0.4,0.7,0.4,1.1c0,0.4,0,1,0,1.4v7.7h-1.9v-7.4c0-0.4,0-0.7,0-1.1c0-0.4-0.2-0.6-0.2-0.7c-0.2-0.2-0.4-0.4-0.6-0.6
			c-0.2-0.2-0.6-0.2-1.1-0.2c-0.6,0-1.1,0-1.7,0.2c-0.6,0.2-1.1,0.4-1.7,0.6v9.1h-1.9"/>
		<path class="st0" d="M126.2,63c0.7,0,1.4,0.2,1.9,0.4c0.6,0.2,1,0.4,1.4,0.7c0.4,0.4,0.6,0.7,0.7,1.1c0.2,0.4,0.4,0.7,0.4,1.1
			c0,0.4,0.2,0.7,0.2,1.1c0,0.4,0,0.6,0,1v1h-7.5c0,0.6,0,1,0.2,1.5c0,0.6,0.2,1,0.6,1.4c0.2,0.4,0.6,0.6,1,1c0.4,0.2,1,0.4,1.5,0.4
			s1.4,0,1.9-0.2c0.6-0.2,1.1-0.4,1.7-0.6l0.4,1.1c-0.7,0.4-1.4,0.6-2.1,0.7c-0.7,0.2-1.4,0.2-2.1,0.2c-1,0-1.9-0.2-2.5-0.4
			c-0.6-0.4-1.1-0.7-1.5-1.1c-0.4-0.6-0.6-1.1-0.7-1.9c-0.1-0.7-0.2-1.5-0.2-2.2c0-0.4,0-0.7,0-1.1c0-0.4,0.2-0.7,0.2-1.4
			c0.2-0.4,0.4-1,0.6-1.4s0.6-0.7,1-1.1c0.4-0.4,0.7-0.6,1.4-0.7C124.9,63.1,125.4,63,126.2,63z M126.2,64.3c-0.6,0-1,0.2-1.4,0.4
			c-0.4,0.1-0.7,0.4-1,0.7s-0.2,0.7-0.5,1.2c-0.2,0.4-0.2,1-0.2,1.4h5.6c0-0.6,0-1-0.2-1.5c0-0.4-0.2-0.7-0.4-1.1
			c-0.2-0.4-0.6-0.6-0.7-0.7C127.2,64.5,126.8,64.3,126.2,64.3z"/>
		<path class="st0" d="M152.2,63.4h1.9l-3.2,11.1h-2.1l-2.9-9.1l-2.6,9.1h-1.9l-3.2-11.1h1.9l2.5,9.2l2.6-9.2h1.9l3,9.2L152.2,63.4z
			"/>
		<path class="st0" d="M156.4,74.5V63.4h1.9v11.1C158.2,74.5,156.4,74.5,156.4,74.5z"/>
		<path class="st0" d="M166,63c0.7,0,1.4,0.2,1.9,0.4c0.6,0.2,1,0.4,1.4,0.7c0.4,0.4,0.6,0.7,0.7,1.1c0.2,0.4,0.4,0.7,0.4,1.1
			c0,0.4,0.2,0.7,0.2,1.1c0,0.4,0,0.6,0,1v1h-7.5c0,0.6,0,1,0.2,1.5c0,0.6,0.2,1,0.6,1.4c0.2,0.4,0.6,0.6,1,1c0.4,0.2,1,0.4,1.5,0.4
			c0.6,0,1.4,0,1.9-0.2c0.6-0.2,1.1-0.4,1.7-0.6l0.4,1.1c-0.7,0.4-1.4,0.6-2.1,0.7c-0.7,0.2-1.4,0.2-2.1,0.2c-1,0-1.9-0.2-2.5-0.4
			c-0.6-0.4-1.1-0.7-1.5-1.1c-0.4-0.6-0.6-1.1-0.7-1.9c-0.2-0.7-0.2-1.5-0.2-2.2c0-0.4,0-0.7,0-1.1c0-0.4,0.2-0.7,0.2-1.4
			c0.2-0.4,0.4-1,0.6-1.4c0.2-0.4,0.6-0.7,1-1.1c0.4-0.4,0.7-0.6,1.4-0.7C164.6,63.1,165.2,63,166,63z M166,64.3
			c-0.6,0-1,0.2-1.4,0.4c-0.4,0.1-0.7,0.4-1,0.7c-0.2,0.4-0.4,0.7-0.6,1.1c-0.2,0.4-0.2,1-0.2,1.4h5.6c0-0.6,0-1-0.2-1.5
			c0-0.4-0.2-0.7-0.4-1.1c-0.2-0.4-0.6-0.6-0.7-0.7C167,64.5,166.6,64.3,166,64.3z"/>
		<path class="st0" d="M179.3,74.5V63.4h1.9v11.1C181.2,74.5,179.3,74.5,179.3,74.5z"/>
		<path class="st0" d="M185.9,68.9c0,0.6,0,1.1,0.2,1.7c0.2,0.6,0.4,1,0.6,1.4c0.2,0.4,0.6,0.7,1,1c0.4,0.2,1,0.4,1.5,0.4
			c0.6,0,1.1,0,1.7-0.2s1.1-0.4,1.5-0.6l0.6,1.4c-0.6,0.2-1.1,0.6-1.7,0.7c-0.7,0.2-1.4,0.2-2.1,0.2c-1,0-1.7-0.2-2.5-0.4
			c-0.6-0.2-1.1-0.7-1.5-1.1c-0.4-0.6-0.7-1.1-0.7-1.7c-0.2-0.7-0.2-1.5-0.2-2.2c0-0.6,0-1.4,0.2-1.9c0.2-0.7,0.4-1.4,0.7-1.9
			c0.4-0.6,1-1.1,1.5-1.5c0.7-0.4,1.5-0.6,2.6-0.6c0.6,0,1,0,1.5,0.2c0.6,0,1.1,0.2,1.7,0.4l-0.4,1.4c-0.6-0.2-1-0.4-1.5-0.4
			c-0.4,0-0.7,0-1.1,0c-1.1,0-1.9,0.4-2.5,1.1C186.2,66.4,185.9,67.5,185.9,68.9z"/>
		<path class="st0" d="M196.9,64.3c0.7-0.4,1.5-0.7,2.2-1c0.7-0.2,1.4-0.4,1.9-0.4c0.7,0,1.4,0.2,1.7,0.4c0.4,0.2,0.7,0.6,1,0.7
			c0.2,0.4,0.4,0.7,0.4,1.1c0,0.4,0,1,0,1.4v7.7h-2v-7.4c0-0.4,0-0.7,0-1.1c0-0.4-0.2-0.6-0.2-0.7c-0.2-0.2-0.4-0.4-0.6-0.6
			c-0.2-0.2-0.6-0.2-1.1-0.2s-1.1,0.2-1.7,0.4c-0.6,0.2-1.1,0.6-1.7,0.7V74h-1.9V57.8h1.9C196.9,57.9,196.9,64.3,196.9,64.3z"/>
	</g>
</g>
</svg>
