<?xml version="1.0" encoding="utf-8"?>
<!-- Generator: Adobe Illustrator 23.1.0, SVG Export Plug-In . SVG Version: 6.00 Build 0)  -->
<svg version="1.1" id="Layer_1" xmlns="http://www.w3.org/2000/svg" xmlns:xlink="http://www.w3.org/1999/xlink" x="0px" y="0px"
	 width="300px" height="51.6px" viewBox="0 0 300 51.6" style="enable-background:new 0 0 300 51.6;" xml:space="preserve">
<style type="text/css">
	.st0{fill:#FFFFFF;}
</style>
<path class="st0" d="M58.4,48.1c0,2.3-1.4,3.3-4.2,3.3H20.9c-6.4,0-11-0.6-13.8-1.8C2.4,47.6,0,44.2,0,39.2V23.3
	C0,15.1,6.4,11,19.2,11h35.5c2.3,0,3.5,1.2,3.5,3.8s-1.2,3.8-3.5,3.8H19.8c-7.3,0-10.7,1.5-10.7,4.5v15.7c0,3.5,4.1,5.1,12.2,5.1H55
	C57.3,44,58.4,45.4,58.4,48.1"/>
<path class="st0" d="M109.5,38.9V23.3c0-3.2-3.6-4.8-11-4.8H83.8c-2.7,0-5.1,0.3-7.3,1.1c-3,0.9-4.5,2.4-4.5,4.4v14.8
	c0,2,1.5,3.3,4.7,4.2c2.1,0.6,4.5,0.9,7.3,0.9h14.7c2.4,0,4.5-0.3,6.7-1.1C108.1,42,109.5,40.7,109.5,38.9 M118.7,38.9
	c0,4.5-2.3,8-7,10.1c-3.3,1.7-7.6,2.4-13,2.4h-15c-5,0-9.4-0.8-13.5-2.4c-5-2.1-7.4-5.6-7.4-10V24.2c0-4.5,2.4-7.9,7.4-10.3
	c3.6-1.8,8-2.7,13.5-2.7h15c13.3,0,20,4.2,20,12.9V38.9z"/>
<path class="st0" d="M150,15.3c0,2.3-1.4,3.3-3.9,3.3c-0.3,0-0.9,0-1.7,0c-0.8,0-1.2,0-1.7,0c-7,0-10.3,1.7-10.3,5.1v24.5
	c0,1.7-0.6,2.7-1.8,3c-0.6,0-2,0.2-4.1,0.2c-2.1,0-3.2-1.1-3.2-3.3V23.6c0-5.3,2.7-8.8,8.2-10.7c3.3-1.2,8.3-1.8,15-1.8
	C148.8,11,150,12.6,150,15.3"/>
<path class="st0" d="M208.5,48.1c0,2.3-1.1,3.3-3.3,3.3c-2.3,0-3.5-0.2-3.9-0.3c-1.2-0.5-1.8-1.4-1.8-3V22.4c0-1.8-1.5-3-4.5-3.6
	c-0.6-0.2-1.4-0.2-2.4-0.3c-1.1,0-2.6,0-4.2,0h-15.4c-1.5,0-2.9,0-3.9,0.2c-1.1,0-2,0.2-2.6,0.3c-2.9,0.6-4.4,1.8-4.4,3.6v25.6
	c0,2.3-1.1,3.3-3.3,3.3s-3.5-0.2-3.9-0.3c-1.2-0.5-1.8-1.4-1.8-3V22.5c0-7.7,6.8-11.5,20.6-11.5h14.7c13.6,0,20.4,3.8,20.4,11.3
	V48.1z"/>
<path class="st0" d="M261.1,27.8v-5c0-3-6-4.5-18.3-4.5c-7.1,0-12.1,0.3-14.8,0.8c-3.8,0.8-5.6,2.1-5.6,4.1v4.7H261.1z M269.9,31.9
	c0,2.4-0.9,3.6-2.6,3.6h-44.6v0.3c0,3.8,2.3,6.2,6.8,7.4c1.1,0.2,2.4,0.5,4.4,0.5c1.8,0.2,27.2,0.2,30.1,0.2c2.3,0,3.3,1.4,3.3,4.1
	c0,2.3-1.1,3.3-3.3,3.3c-3,0-28.4,0-30.2-0.2c-2,0-3.3-0.2-4.4-0.3c-5-0.5-8.6-1.7-10.9-3.5c-3.3-2.6-5-5.6-5-9.1V23.4
	c0-4.7,2.6-8.2,7.7-10.3c3.5-1.7,8.2-2.4,13.9-2.4h16.8c4.7,0,8.6,0.8,11.6,2.3c4.2,2,6.4,5,6.4,8.9V31.9z"/>
<path class="st0" d="M300,15.3c0,2.3-1.4,3.3-3.9,3.3c-0.3,0-0.9,0-1.7,0c-0.8,0-1.2,0-1.7,0c-7,0-10.3,1.7-10.3,5.1v24.5
	c0,1.7-0.6,2.7-1.8,3c-0.5,0.2-1.8,0.3-3.9,0.3s-3.2-1.1-3.2-3.3V23.6c0-5.3,2.7-8.8,8.2-10.7c3.3-1.2,8.3-1.8,15-1.8
	C298.9,11,300,12.6,300,15.3"/>
<path class="st0" d="M265.2,8.5h-45.7c-2.4,0-4.2-2-4.2-4.2c0-2.4,2-4.2,4.2-4.2h45.7c2.4,0,4.2,2,4.2,4.2
	C269.5,6.7,267.5,8.5,265.2,8.5"/>
</svg>
