<?xml version="1.0" encoding="utf-8"?>
<!-- Generator: Adobe Illustrator 23.1.0, SVG Export Plug-In . SVG Version: 6.00 Build 0)  -->
<svg version="1.1" id="Layer_1" xmlns="http://www.w3.org/2000/svg" xmlns:xlink="http://www.w3.org/1999/xlink" x="0px" y="0px"
	 width="300px" height="66.7px" viewBox="0 0 300 66.7" style="enable-background:new 0 0 300 66.7;" xml:space="preserve">
<style type="text/css">
	.st0{fill:#FFFFFF;}
	.st1{fill:none;}
</style>
<path class="st0" d="M132.8,40.9H113v4.4l0.6-0.1v-0.1c0.1-0.6,1.3-1.9,2.8-1.9c0,0,4.2,0,4.4,0c0,0.2,0,23.1,0,23.1h4.3
	c0,0,0-22.9,0-23.1c0.2,0,4.6,0,4.6,0c1.5,0,2.4,0.8,2.6,1.6v0.1h0.6L132.8,40.9L132.8,40.9z"/>
<path class="st0" d="M4.6,39.3C4.6,39.3,4.6,39.4,4.6,39.3C4.6,39.4,4.6,39.3,4.6,39.3c-3,3-4.6,7.1-4.6,11.2
	c0,4.6,1.9,8.8,5.2,11.8c3.2,2.9,7.5,4.4,12.2,4.4c2.4,0,7.1-0.4,11.8-3.2l0.2-0.1l0.5-6.5L29,56.9l-0.2,0.3c-3.4,7-8.6,7-10.6,7
	c-8.9,0-12.9-7.4-12.9-14.3c0-6.7,4-13.3,13-13.3c2.8,0,7.7,0.8,10.4,6.9l0.1,0.3l0.8-0.2l-0.5-6.8l-0.2-0.1
	C24.8,34.8,21.4,34,18,34C12.4,34.1,7.8,35.9,4.6,39.3z"/>
<path class="st0" d="M34,40.9L34,40.9l-0.1,0.6H34c0.3,0.2,0.7,1.2,0.7,2.2v22.6H39c0,0,0-11.4,0-11.6c0.2,0,1.9,0,1.9,0
	c1.7,0.1,2.3,1.2,3.2,2.5l0.1,0.2l0.5,0.8c1,1.5,2.1,3.6,3.4,5.5c1,1.4,2.1,2.1,3.5,2.4c1.1,0.2,3.1,0.1,3.9-0.1l1-0.2l0.3-0.1
	l-1.3-0.4c-0.5-0.2-1.4-0.5-2.4-1.8c-0.6-0.7-1.8-2.5-3.5-5.2l-1.7-2.6l0,0c-0.4-0.6-1.2-1.7-2.4-2.3c2.4-0.7,4.8-3,4.8-6.1
	c0-1-0.2-2.6-1.8-4.1c-1.6-1.5-4.1-2.3-7.4-2.3h-7V40.9z M41.3,43.2c4.3,0.2,4.4,3.8,4.4,4.2c0,3.7-2.8,5-5.1,5c0,0-1.5,0-1.7,0
	c0-0.2,0-9,0-9.2C39.4,43.2,40.2,43.1,41.3,43.2z"/>
<path class="st0" d="M77.4,40.9h-0.1l0.1,0.6l0,0c0.3,0.2,0.7,1.1,0.7,1.9v23h7.3c4.8,0,8.8-1.5,11.4-4.3c2.2-2.3,3.5-5.6,3.5-8.8
	c0-2-0.6-5-2.5-7.4c-2.5-3.3-6.5-5-11.8-5H77.4z M82.4,43.3c0.2,0,2.2,0,2.2,0c0.6,0,2.1,0,3.2,0.2c7.1,1.1,7.9,7.1,7.9,9.6
	c0,2.1-0.4,5.1-2.1,7.4c-1.7,2.2-4.4,3.4-8.2,3.4c-0.8,0-1.9,0-3.2-0.1C82.4,63.7,82.4,43.5,82.4,43.3z"/>
<path class="st0" d="M109.2,40.9h-5v0.6h0.1c0.4,0.2,0.7,1.1,0.7,2.1v22.8h4.2L109.2,40.9L109.2,40.9z"/>
<path class="st0" d="M194.7,40.9h-5v0.5l0,0c0.4,0.2,0.7,1.1,0.7,2.1v22.8h4.2V40.9L194.7,40.9z"/>
<path class="st0" d="M71.9,40.9H57.7l0.1,0.6l0,0c0.4,0.2,0.7,1.1,0.7,2.2v22.6h14.2l1.1-4.6l-0.5-0.2l-0.2,0.3
	c-1.2,1.8-2.3,2.1-6.5,2.1c-1.5,0-2.9-0.1-3.8-0.2c0-0.2,0-10.2,0-10.4c0.2,0,7.2,0,7.2,0V51c0,0-7,0-7.2,0c0-0.2,0-7.7,0-7.9
	c0.2,0,5.8,0.1,5.8,0.1c1.3,0,2.8,1.3,2.9,2v0.1H72L71.9,40.9L71.9,40.9z"/>
<path class="st0" d="M253.9,40.9h-14.2v0.6h0.1c0.4,0.2,0.7,1.1,0.7,2.2v22.6h14.2l1.1-4.6l-0.6-0.2l-0.2,0.2
	c-1.2,1.8-2.3,2.1-6.5,2.1c-1.5,0-2.9-0.1-3.8-0.2c0-0.2,0-10.2,0-10.4c0.2,0,7.2,0,7.2,0v-2.3c0,0-7,0-7.2,0c0-0.2,0-7.7,0-7.9
	c0.2,0,5.8,0.1,5.8,0.1c1.6,0,2.9,1.3,2.9,2v0.1h0.6L253.9,40.9L253.9,40.9z"/>
<path class="st0" d="M145.2,36.1c-1.5,1.1-3.3,3.1-3.3,6.4v0.1c0,4.1,2.6,6.2,6.8,8.4l0,0c0.1,0.1,0.4,0.3,1.6,0.8
	c3.5,1.8,6,3.1,6,6.6c0,1.3-0.4,3-1.8,4.2c-1.1,1.1-2.5,1.6-4.3,1.6c-5.4-0.1-7.2-4.8-7.8-6.8l-0.1-0.3l-0.8,0.1l0.2,6.7l0.2,0.1
	c1.7,1,4.6,2.6,8.7,2.6c2.9,0,5.8-1.2,7.8-3.2c1.8-1.8,2.8-4,2.8-6.5c0-5.4-3.9-7.4-7.9-9.5l-0.7-0.4c-4.2-2.1-6.1-3.4-6.1-6
	c0-1.8,1.4-4.7,5-4.6c4.1,0,6.5,3.2,6.9,5.1l0.1,0.3l0.8-0.1l-0.3-5.7l-0.2-0.1c-2.4-1.7-5.5-1.9-6.8-1.9
	C149.4,34.1,147,34.8,145.2,36.1z"/>
<path class="st0" d="M201.6,47.3L201.6,47.3c0,3.5,2.1,5.3,5.5,7.1l1.3,0.6c2.8,1.4,4.4,2.2,4.4,4.8c0,0.4-0.1,2-1.3,3.2
	c-0.8,0.8-1.9,1.2-3.4,1.2c-4,0-5.5-3.2-6-5.1l-0.1-0.3l-0.8,0.1l0.2,5.4l0.2,0.1c1.4,0.7,3.6,2.1,6.9,2.1c2.3,0,4.7-1,6.2-2.5
	c1.4-1.4,2.1-3.2,2.1-5.2c0-4.4-3.1-6-6.4-7.8l-0.5-0.3c-3.5-1.8-4.8-2.5-4.8-4.6c0-1.4,1.1-3.4,3.8-3.4c3.4,0,4.9,2.5,5.2,3.8
	l0.1,0.3l0.8-0.1L215,42l-0.2-0.1c-1.9-1.3-4.3-1.5-5.3-1.5C205.6,40.6,201.6,42.9,201.6,47.3z"/>
<path class="st0" d="M220.7,47.3c0,3.5,2.1,5.3,5.5,7.1l1.3,0.6c2.8,1.4,4.4,2.2,4.4,4.8c0,0.4-0.1,2-1.3,3.2
	c-0.8,0.8-1.9,1.2-3.4,1.2c-4,0-5.5-3.2-6-5.1l-0.1-0.3l-0.8,0.1l0.2,5.4l0.2,0.1c1.4,0.7,3.6,2.1,6.9,2.1c2.3,0,4.7-1,6.2-2.5
	c1.4-1.4,2.1-3.2,2.1-5.2c0-4.4-3.1-6-6.4-7.8l-0.5-0.3c-3.5-1.8-4.8-2.5-4.8-4.6c0-0.8,0.4-1.8,1.1-2.3c0.6-0.6,1.7-1.1,2.9-1.1
	c3.4,0,4.9,2.5,5.2,3.8l0.1,0.3l0.8-0.1l-0.2-4.7l-0.2-0.1c-1.9-1.3-4.3-1.5-5.3-1.5C224.7,40.6,220.7,42.9,220.7,47.3z"/>
<path class="st0" d="M184.2,40.9h-3.4v0.5l0,0c0.2,0.1,0.7,0.5,0.7,2.1V58c0,2.8-1.1,6.1-5.9,6.1c-4.7,0-5.6-2.8-5.6-6.9V40.9h-5.3
	v0.5l0,0c0.3,0.2,1,0.8,1,2.2v13.6c0,8.5,5.5,9.4,9.7,9.4c2,0,8.7-0.6,8.7-8.6L184.2,40.9L184.2,40.9z"/>
<g>
	<path class="st0" d="M290.5,33.6c3,1,6.1,2.3,9.5,4.1C291.8,24.2,277.1,9.5,262.8,0c3.7,3.7,9.7,11.8,11.2,20.3
		C280,24.6,285.5,29,290.5,33.6z"/>
	<path class="st0" d="M290.5,33.6c-7-2.2-13-2.3-17.5-1.9c1.6-3.7,1.7-7.5,1.1-11.2C263.3,12.7,251.3,5.8,239.7,1
		c8.5,5.7,17.8,22.2,21.7,39.9c8.4-2.4,21.2-4.1,37.7,1.4C296.5,39.4,293.6,36.4,290.5,33.6z"/>
	<path class="st1" d="M274.1,20.3c0.6,3.8,0.5,7.6-1.1,11.3c4.4-0.4,10.4-0.3,17.5,1.9C285.5,29,280,24.6,274.1,20.3z"/>
</g>
</svg>
