<?xml version="1.0" encoding="utf-8"?>
<!-- Generator: Adobe Illustrator 26.1.0, SVG Export Plug-In . SVG Version: 6.00 Build 0)  -->
<svg version="1.1" id="Ebene_1" xmlns="http://www.w3.org/2000/svg" xmlns:xlink="http://www.w3.org/1999/xlink" x="0px" y="0px"
	 width="110.4px" height="60.9px" viewBox="0 0 110.4 60.9" style="enable-background:new 0 0 110.4 60.9;" xml:space="preserve">
<style type="text/css">
	.st0{fill:#FFFFFF;}
</style>
<g>
	<path class="st0" d="M66.2,28.7L66.2,28.7l0-5.9L62,23.3v0.5c1.4,0.1,1.8,0.4,1.8,2.1V38h0.6l1.6-1.3c0.6,0.6,1.4,1.6,3,1.6
		c3,0,4.2-2.5,4.2-5.4c0-2.8-0.8-5.9-4.1-5.9C67.3,26.9,66.6,27.9,66.2,28.7z M68.4,28.2c2,0,2.2,2.7,2.2,4.3c0,1.8-0.2,4.5-2.4,4.5
		c-1.9,0-2.1-2.9-2.1-4.1v-1C66.1,30.6,66.4,28.2,68.4,28.2z"/>
	<path class="st0" d="M75.4,35.6c0,1.4,1.3,2.7,3.1,2.7c1.8,0,2.6-1.1,3-1.6V38h2.3v-7.1c0-2.3-0.5-4-3.8-4c-3.3,0-4.1,1.6-4.4,3.2
		h2.8c0-1,0.1-2.4,1.6-2.4c1.5,0,1.5,1.6,1.5,3.1V32C80,32,75.4,32.3,75.4,35.6z M81.5,34.2c0,1.6-0.8,2.8-2.2,2.8
		c-0.9,0-1.4-0.7-1.4-1.8c0-2.2,2.7-2.3,3.6-2.3V34.2z"/>
	<path class="st0" d="M90,38v-5.7c0-1.7,1.3-3.8,2.9-3.8c1.6,0,1.6,1.6,1.6,3.5v6h2.3v-7.8c0-1.8-0.7-3.3-2.8-3.3
		c-2.3,0-3.5,2.2-3.9,3h0v-3l-4.2,0.7v0.5c1.5,0,1.9,0.4,1.9,2.1V38H90z"/>
	<path class="st0" d="M26.4,46.5L26.4,46.5c-0.4-0.6-1.3-1.6-3-1.6c-3.2,0-4.1,2.9-4.1,5.9c0,2.7,1.2,5.2,4.1,5.2
		c1.9,0,2.5-0.9,2.9-1.6h0v2.7c0,1.3,0,3.1-2.3,3.1c-1.9,0-2.2-1.5-2.2-2.5h-2.6c0,2.6,2,3.3,4.9,3.3c4.1,0,4.5-2.2,4.5-4.6v-9
		c0-1.5,1.1-1.6,1.8-1.6v-0.5h-4.2V46.5z M26.4,51.4c0,1.3-0.4,3.3-2.4,3.3c-1.9,0-2.1-2.6-2.1-4.2c0-1.7,0.2-4.3,2.3-4.3
		c1.4,0,2.2,1.5,2.2,2.9V51.4z"/>
	<path class="st0" d="M36.3,44.9c-3.3,0-4.1,1.6-4.4,3.2h2.8c0-1,0.1-2.4,1.6-2.4c1.5,0,1.5,1.6,1.5,3.1V50c-1.5,0-6.1,0.3-6.1,3.6
		c0,1.4,1.3,2.7,3.1,2.7c1.8,0,2.6-1.1,3-1.6V56h2.3v-7.1C40.1,46.6,39.6,44.9,36.3,44.9z M37.8,52.2c0,1.6-0.8,2.8-2.2,2.8
		c-0.9,0-1.4-0.7-1.4-1.8c0-2.2,2.7-2.3,3.6-2.3V52.2z"/>
	<path class="st0" d="M50.9,50v6h2.3v-7.8c0-1.8-0.7-3.3-2.8-3.3c-2.3,0-3.5,2.2-3.9,3h0v-3l-4.2,0.7v0.5c1.5,0,1.9,0.4,1.9,2.1V56
		h2.3v-5.7c0-1.7,1.3-3.8,2.9-3.8C50.9,46.5,50.9,48.1,50.9,50z"/>
	<path class="st0" d="M62.4,55.1c-0.3,0.1-0.6,0.1-0.9,0.1c-1.8,0-1.9-0.7-1.9-2.3v-6.8h2.7v-0.9h-2.7v-3.9l-2.3,2.1v1.8h-1.8v0.9
		h1.8v7.1c0,2.6,1.3,3,3.5,3c0.5,0,1-0.1,1.6-0.2V55.1z"/>
	<path class="st0" d="M67.9,48L67.9,48l0-3.1l-4.2,0.7v0.5c1.5,0,1.8,0.4,1.8,2.1V56h2.3v-5.6c0-1.6,0.7-3.5,3-3.5
		c0.4,0,0.8,0.2,1.2,0.3V45c-0.4-0.1-0.8-0.1-1.3-0.1C69,44.9,68.3,46.9,67.9,48z"/>
	<polygon class="st0" points="74.3,56 76.6,56 76.6,44.9 74.3,45.3 	"/>
	<path class="st0" d="M75.5,43.1c0.8,0,1.5-0.6,1.5-1.5c0-0.8-0.7-1.4-1.5-1.4c-0.8,0-1.5,0.7-1.5,1.4C74,42.4,74.7,43.1,75.5,43.1z
		"/>
	<path class="st0" d="M82.2,47.2c0-1,0.9-1.3,1.6-1.3c1.3,0,2.4,0.9,2.8,1.1v-1.7c-0.4-0.1-1.4-0.4-2.6-0.4c-2.7,0-3.9,1.4-3.9,3.1
		c0,3.2,5.1,3.3,5.1,5.6c0,0.8-0.5,1.6-2,1.6c-1.3,0-2.4-0.7-3.1-1.2v1.8c0.5,0.1,1.6,0.4,3,0.4c2.3,0,4.2-0.9,4.2-3.2
		C87.2,49.5,82.2,49.4,82.2,47.2z"/>
	<path class="st0" d="M93.6,45.7c1.4,0,1.7,1.4,1.7,2.4H98c0-1.9-1.7-3.2-4.3-3.2c-3.3,0-4.6,2.3-4.6,5.5c0,3.5,1.9,5.8,5.2,5.8
		c1.9,0,2.5-0.3,3.3-0.6v-1c-0.6,0.2-1.5,0.3-2.2,0.3c-2.1,0-3.7-1.9-3.7-5.3C91.7,47.4,92,45.7,93.6,45.7z"/>
	<path class="st0" d="M105.6,46.5c1.7,0,1.7,1.5,1.7,2.6V56h2.3v-7.2c0-1.6-0.2-3.9-2.9-3.9c-2.3,0-3.5,2-3.9,3h0v-7.2l-4.1,0.6v0.5
		c1.4,0.1,1.8,0.5,1.8,2.1V56h2.3v-5.5C102.9,48.3,104.2,46.5,105.6,46.5z"/>
	<path class="st0" d="M100.5,25.9V38h2.3v-5.5v-0.4v0h0l0.1,0.1l4.3,5.7h3.1l-5.3-6.6l4.3-4.2h-1.8l-4.6,4.5l-0.1,0.1v-0.1v-8.9
		l-4.1,0.6v0.5C100.1,23.9,100.5,24.3,100.5,25.9z"/>
	<path class="st0" d="M62.9,14.6c0.2-0.4,0.5-0.8,0.3-1c0,0-0.1-0.1-0.3-0.1c-0.1,0-0.2,0.1-0.2,0.1c-3,2.3-8.3,5.4-14.5,7.5
		c-0.6,0.2-3.1,1-4.4,1.3c-5.5,0.8-11.2,0.5-10.2-4.3c1.7-9,27.2-15.9,31.5-16.9c0.9-0.2,1.7-0.4,2.4-0.5c0.6-0.1,1-0.1,1-0.4
		C68.5,0.1,68,0,66.8,0C46.9,0.1,29,7.3,21.2,14.9C17,18.8,15,23,17.8,26.6c1.8,2.2,4.5,3.1,9.3,4c-1.1,0.8-1.5,1-2.7,1.7
		C16.1,36.4,9,38.5,4.3,39.6c-3.2,0.8-4.5,0.8-4.2,1.3c0.1,0.2,1.6,0.4,3,0.5c8.8,0.3,27.2-0.6,43.2-10.7C55,25.1,61,17.5,62.9,14.6
		z M2.1,40.6c0.3-0.1,3.7-0.8,6.8-1.7c5.1-1.5,11.8-4,19.3-8c0.6-0.4,2.6-1.5,2.7-2.1c0.1-0.3-0.7-0.2-1.6-0.2
		c-3.5,0.2-8.7-0.4-10.6-3.1c-0.4-0.5-0.7-1.1-0.9-1.7c-0.5-1.8,0.1-3.9,1.7-6.1c4.1-5.4,13.6-10.9,25.8-14.2
		c3.3-0.9,9.6-2.4,17.3-2.7c0.9,0,1.8-0.1,2.7-0.1c-6.9,1.1-19.5,3.9-31.1,11.3c-1.8,1.1-3.2,2.5-3.4,2.7v0
		c-2.4,2.4-3.3,4.9-2.4,6.8c2.3,5.1,14.3,1.9,14.8,1.7c0.1,0,3.2-0.8,5.3-1.5c5.2-1.8,9.8-4.2,13-6.4C54.9,21.9,33.9,39.7,2.1,40.6z
		"/>
</g>
<g>
</g>
<g>
</g>
<g>
</g>
<g>
</g>
<g>
</g>
<g>
</g>
</svg>
