<?xml version="1.0" encoding="utf-8"?>
<!-- Generator: Adobe Illustrator 23.0.6, SVG Export Plug-In . SVG Version: 6.00 Build 0)  -->
<svg version="1.1" id="Ebene_1" xmlns="http://www.w3.org/2000/svg" xmlns:xlink="http://www.w3.org/1999/xlink" x="0px" y="0px"
	 width="441.9px" height="88.4px" viewBox="0 0 441.9 88.4" style="enable-background:new 0 0 441.9 88.4;" xml:space="preserve">
<style type="text/css">
	.st0{fill:none;stroke:#FFFFFF;stroke-width:2.5;}
	.st1{fill:none;}
	.st2{fill:#FFFFFF;}
</style>
<g>
	<rect x="1.3" y="3" class="st0" width="86.8" height="84.1"/>
	<rect x="4.6" y="6.3" class="st1" width="80.2" height="77.6"/>
	<polygon class="st2" points="18,45.1 40,79.8 80.1,79.8 58,45.1 80.1,10.3 40.1,10.3 	"/>
	<path class="st2" d="M143,8.8C141.5,8,139.4,7,135.6,7c-1.5,0-2.6,0.2-3.2,0.4c-2.6,0.7-6.8,3.1-6.8,10.3c0,1.6,0.2,3.2,0.7,4.7
		c1.5,4.1,4.9,6.3,8.9,6.3c1.8,0,3.1-0.4,3.8-0.6v-7.6h-6v-4.8h11.3l0,16.2c-0.7,0.3-1.4,0.5-2.1,0.7c-1.2,0.3-4.1,1-7.6,1
		c-1.2,0-4.4,0-7.8-1.7c-0.6-0.3-2.2-1.2-3.6-2.7c-1.6-1.8-3.8-5.4-3.8-11.4c0-1.9,0.2-7.3,4.1-11.4C127.8,2,133.8,2,135.5,2
		c4,0,6.2,0.7,7.9,1.3L143,8.8z"/>
	<path class="st2" d="M154.7,0v33.2h-5.5V0H154.7z"/>
	<path class="st2" d="M172.4,33.2v-3.3c-0.3,0.6-0.4,0.7-0.6,1c-0.8,1.1-2.8,2.7-6.1,2.7c-0.9,0-4.6-0.2-6.5-3.4
		c-0.3-0.5-1-1.8-1-3.6c0-1.9,0.7-3.2,1-3.7c2.1-3.3,6.4-3.7,9.7-3.7c1.1,0,2.1,0,3.1,0.1c0,0,0-1.6-0.3-2.4
		c-0.4-1.3-1.6-2.6-4.3-2.6c-2.6,0-4.8,1.2-5.5,1.6c-0.3,0.2-0.5,0.3-1.1,0.9l-0.2-5.1c2.7-1,4.4-1.5,7.3-1.5c0.5,0,1.8,0,3.1,0.3
		c3.6,0.9,4.9,3,5.4,4.6c0.4,1.3,0.5,2.7,0.5,5.4v5.4c0,2.2,0,4.4,0.1,6.6c0,0.3,0,0.5,0,0.8H172.4z M165.3,23.9
		c-0.6,0.4-1,1-1.1,1.3c-0.1,0.2-0.4,0.7-0.4,1.4c0,0.4,0.1,0.9,0.3,1.3c0.7,1.7,2.5,1.8,3,1.8c0.7,0,2.6-0.3,3.9-2.1
		c1-1.4,1.1-2.9,1.2-4.6C170.2,22.8,167.2,22.6,165.3,23.9z"/>
	<path class="st2" d="M194.6,15.8c-0.5-0.1-0.8-0.3-1.8-0.3c-0.9,0-3.1,0.2-4.4,2.8c-0.8,1.6-0.9,3.4-0.8,7v8h-5.5V16.3
		c0-2,0-4-0.1-5.9h5.2v5.4c0.2-1,0.4-1.4,0.6-1.9c1.5-3.3,4.1-3.8,5.4-3.8c0.4,0,0.8,0,1.5,0.2V15.8z"/>
	<path class="st2" d="M212,33.2v-11c0-2.5,0-5.6-2-6.8c-0.3-0.2-1-0.5-2-0.5c-0.8,0-2.5,0.2-3.7,2.1c-1.1,1.7-1.1,3.7-1.2,5.6v10.6
		h-5.5V15.9c0-1.8-0.1-3.7-0.2-5.5h5.3l0,3.5c0.4-0.7,1.1-1.6,2.5-2.6c0.9-0.6,2.3-1.3,4.7-1.3c0.3,0,1.4,0,2.4,0.3
		c2.2,0.7,3.8,2.4,4.4,4.7c0.4,1.7,0.4,4.6,0.5,6.4v11.6H212z"/>
	<path class="st2" d="M226.2,23.9c0.3,1.3,0.5,1.9,0.8,2.4c0.7,1.3,2.3,2.9,5.6,2.9c2.5,0,4.4-1,5.2-1.4c0.4-0.3,0.9-0.6,1.4-0.9
		l0.1,5.1c-1.2,0.5-4,1.7-7.5,1.7c-1.3,0-5,0-7.8-3c-1.4-1.4-3.1-4-3.1-8.7c0-1.1,0.1-4.3,1.8-7.3c1-1.8,3.5-4.8,8.5-4.8
		c0.8,0,3.2,0,5.3,1.5c3.8,2.6,4.1,7.6,4.2,8.8c0,1.2,0,2.3,0,3.6H226.2z M235.6,19.7c0-0.8-0.1-1.3-0.3-2.1
		c-0.6-2.1-2.2-3.5-4.2-3.5c-0.8,0-1.7,0.2-2.4,0.7c-2.2,1.4-2.4,4.3-2.5,4.9L235.6,19.7z"/>
	<path class="st2" d="M256.9,15.8c-0.5-0.1-0.8-0.3-1.8-0.3c-0.9,0-3.1,0.2-4.4,2.8c-0.8,1.6-0.9,3.4-0.8,7v8h-5.5V16.3
		c0-2,0-4-0.1-5.9h5.2v5.4c0.2-1,0.4-1.4,0.6-1.9c1.5-3.3,4.1-3.8,5.4-3.8c0.4,0,0.8,0,1.5,0.2V15.8z"/>
	<path class="st2" d="M126.5,65.1L128,63c0.8-1,1.6-2,2.4-3l9-11.4h8.8l-11.1,13.3l-3.6,4.3L149,86.8h-9.4l-10-13.7
		c-0.8-1-1.5-1.9-2.1-2.9l-1.1-1.6v18.3h-7.1V48.6h7.1V65.1z"/>
	<path class="st2" d="M166.6,86.8v-4.2c-0.4,0.7-0.5,0.9-0.8,1.2c-1.1,1.4-3.5,3.4-7.6,3.4c-1.1,0-5.8-0.2-8.1-4.2
		c-0.4-0.6-1.2-2.3-1.2-4.5c0-2.3,0.9-3.9,1.3-4.7c2.6-4.1,8-4.7,12.1-4.7c1.3,0,2.6,0.1,3.9,0.1c0,0-0.1-2-0.4-3
		c-0.6-1.6-2-3.2-5.4-3.2c-3.2,0-5.9,1.5-6.8,2c-0.4,0.3-0.7,0.4-1.4,1.1l-0.2-6.4c3.4-1.2,5.5-1.9,9-1.9c0.7,0,2.2,0,3.9,0.4
		c4.4,1.1,6.1,3.8,6.7,5.7c0.6,1.7,0.6,3.4,0.7,6.8v6.7c0,2.8,0.1,5.5,0.2,8.3c0,0.3,0,0.6,0,1H166.6z M157.8,75.2
		c-0.8,0.5-1.2,1.2-1.4,1.6c-0.1,0.3-0.5,0.9-0.5,1.8c0,0.5,0.2,1.1,0.4,1.6c0.9,2.1,3.2,2.2,3.8,2.2c0.9,0,3.3-0.3,4.9-2.7
		c1.3-1.8,1.4-3.6,1.5-5.7C163.9,73.9,160.2,73.6,157.8,75.2z"/>
	<path class="st2" d="M196.6,86.8V73.1c0-3.1,0.1-6.9-2.5-8.5c-0.4-0.3-1.2-0.7-2.5-0.7c-1,0-3.1,0.3-4.6,2.6
		c-1.3,2.1-1.4,4.6-1.5,7v13.3h-6.9V65.3c-0.1-2.3-0.1-4.5-0.2-6.8h6.6l0.1,4.4c0.6-0.8,1.3-2,3.2-3.2c1.2-0.7,2.8-1.6,5.9-1.6
		c0.4,0,1.8,0.1,3,0.4c2.7,0.8,4.8,3,5.5,5.9c0.6,2.2,0.6,5.8,0.6,8v14.5H196.6z"/>
	<path class="st2" d="M217.9,58.4h6.2V64h-6.2v12c0,1.2-0.1,5.1,4,5.1c0.6,0,1.2-0.1,2.5-0.4l0.1,5.8c-1.7,0.4-2.8,0.8-4.5,0.8
		c-0.7,0-4.3-0.1-6.5-2.4c-2.3-2.5-2.3-6.8-2.2-10.1V64h-5.1v-5.5h5.1v-5.7l6.6-2.3V58.4z"/>
	<path class="st2" d="M245.7,59.1c5.2,2.4,7.7,7.7,7.7,13.6c0,1,0,3.5-1,6.1c-1.2,3.1-4.5,8.5-12.6,8.5c-1.6,0-5.4-0.1-8.9-3.2
		c-1.9-1.6-4.8-5-4.8-11.5c0-2.1,0.4-4.3,1.1-6.2c2.1-5.7,7.1-8.5,12.7-8.5C240.7,57.9,243.2,57.9,245.7,59.1z M236.5,64.4
		c-1.5,1.1-3.3,3.6-3.3,8.1c0,0.8,0.1,5.8,3.1,8.2c1.1,0.8,2.2,1.1,3.4,1.1c3.2,0,6.4-2.4,6.4-9.4c0-2.2-0.3-4.3-1.4-6.1
		c-0.6-1-2.1-3-5-3C238.2,63.3,237,64,236.5,64.4z"/>
	<path class="st2" d="M275.7,86.8V73.1c-0.1-3.1,0.1-6.9-2.5-8.5c-0.4-0.3-1.2-0.7-2.5-0.7c-1,0-3.1,0.3-4.6,2.6
		c-1.3,2.1-1.4,4.6-1.5,7v13.3h-6.9V65.3c0-2.3-0.1-4.5-0.2-6.8h6.6l0.1,4.4c0.6-0.8,1.3-2,3.2-3.2c1.2-0.7,2.8-1.6,5.9-1.6
		c0.4,0,1.8,0.1,3,0.4c2.7,0.8,4.8,3,5.5,5.9c0.6,2.2,0.6,5.8,0.6,8v14.5H275.7z"/>
	<path class="st2" d="M303.4,86.8v-4.2c-0.4,0.7-0.5,0.9-0.8,1.2c-1.1,1.4-3.5,3.4-7.6,3.4c-1.1,0-5.8-0.2-8.1-4.2
		c-0.4-0.6-1.2-2.3-1.2-4.5c0-2.3,0.9-3.9,1.3-4.7c2.6-4.1,8-4.7,12.1-4.7c1.3,0,2.6,0.1,3.9,0.1c0,0,0-2-0.4-3
		c-0.6-1.6-2-3.2-5.4-3.2c-3.2,0-5.9,1.5-6.8,2c-0.4,0.3-0.7,0.4-1.4,1.1l-0.2-6.4c3.4-1.2,5.5-1.9,9-1.9c0.7,0,2.2,0,3.9,0.4
		c4.4,1.1,6.1,3.8,6.7,5.7c0.6,1.7,0.6,3.4,0.7,6.8v6.7c0,2.8,0,5.5,0.2,8.3c0,0.3,0,0.6,0,1H303.4z M294.6,75.2
		c-0.8,0.5-1.2,1.2-1.4,1.6c-0.2,0.3-0.5,0.9-0.5,1.8c0,0.5,0.2,1.1,0.4,1.6c0.9,2.1,3.2,2.2,3.8,2.2c0.9,0,3.3-0.3,4.9-2.7
		c1.3-1.8,1.4-3.6,1.5-5.7C300.7,73.9,296.9,73.6,294.6,75.2z"/>
	<path class="st2" d="M322.2,45.5v41.3h-6.8V45.5H322.2z"/>
	<path class="st2" d="M335.3,45.5v17.4c0.4-0.7,0.8-1.5,2-2.5c1.8-1.6,3.8-2.4,6.1-2.4c0.9,0,2.8,0.1,4.8,1.2
		c2.7,1.5,6.1,5.2,6.1,12.7c0,1.9-0.3,3.6-0.4,4.3c-0.5,3.1-1.5,6-3.6,8.2c-1.2,1.2-3.3,2.9-7.2,2.9c-3.7,0-5.7-1.6-6.8-2.9
		c-0.6-0.6-1-1.3-1.4-2v4.4h-6.5V45.5H335.3z M338.6,64.9c-1.5,1-3.2,3.4-3.2,7.7c0,2.8,0.7,5.9,2.9,7.7c1.3,1,2.4,1.1,3.1,1.1
		c0.6,0,1.7-0.1,2.9-0.9c1.5-1.1,3.1-3.6,3.1-8.1c0-2.4-0.6-5.7-2.5-7.3c-0.9-0.8-2.1-1.2-3.2-1.2C341.1,63.9,339.8,64,338.6,64.9z"
		/>
	<path class="st2" d="M375.1,86.8v-4.2c-0.4,0.7-0.5,0.9-0.8,1.2c-1.1,1.4-3.5,3.4-7.6,3.4c-1.1,0-5.8-0.2-8.1-4.2
		c-0.4-0.6-1.2-2.3-1.2-4.5c0-2.3,0.9-3.9,1.3-4.7c2.6-4.1,8-4.7,12.1-4.7c1.3,0,2.6,0.1,3.9,0.1c0,0-0.1-2-0.4-3
		c-0.6-1.6-2-3.2-5.4-3.2c-3.2,0-5.9,1.5-6.8,2c-0.4,0.3-0.7,0.4-1.4,1.1l-0.2-6.4c3.4-1.2,5.5-1.9,9-1.9c0.7,0,2.2,0,3.9,0.4
		c4.4,1.1,6.1,3.8,6.7,5.7c0.6,1.7,0.6,3.4,0.7,6.8v6.7c0,2.8,0,5.5,0.2,8.3c0,0.3,0.1,0.6,0.1,1H375.1z M366.3,75.2
		c-0.8,0.5-1.2,1.2-1.4,1.6c-0.2,0.3-0.5,0.9-0.5,1.8c0,0.5,0.2,1.1,0.4,1.6c0.9,2.1,3.2,2.2,3.8,2.2c0.9,0,3.3-0.3,4.9-2.7
		c1.3-1.8,1.4-3.6,1.5-5.7C372.4,73.9,368.6,73.6,366.3,75.2z"/>
	<path class="st2" d="M405,86.8V73.1c0-3.1,0.1-6.9-2.5-8.5c-0.4-0.3-1.2-0.7-2.5-0.7c-1,0-3.1,0.3-4.6,2.6c-1.3,2.1-1.4,4.6-1.5,7
		v13.3h-6.9V65.3c-0.1-2.3-0.1-4.5-0.2-6.8h6.6l0,4.4c0.6-0.8,1.3-2,3.2-3.2c1.2-0.7,2.8-1.6,5.9-1.6c0.4,0,1.8,0.1,3,0.4
		c2.7,0.8,4.8,3,5.5,5.9c0.6,2.2,0.6,5.8,0.6,8v14.5H405z"/>
	<path class="st2" d="M424.4,69.9c0.8-1.2,1.6-2.4,2.4-3.5l5.9-8h7.9l-9.8,12.5l11.1,15.8h-8.4l-5.8-8.6c-0.7-1.1-1.3-2.1-1.9-3.2
		c-0.5-0.7-0.9-1.5-1.3-2.3v14.1h-6.8V45.5h6.8V69.9z"/>
</g>
</svg>
