<?xml version="1.0" encoding="utf-8"?>
<!-- Generator: Adobe Illustrator 23.1.0, SVG Export Plug-In . SVG Version: 6.00 Build 0)  -->
<svg version="1.1" id="JB_Logo" xmlns="http://www.w3.org/2000/svg" xmlns:xlink="http://www.w3.org/1999/xlink" x="0px" y="0px"
	 width="300px" height="59px" viewBox="0 0 300 59" style="enable-background:new 0 0 300 59;" xml:space="preserve">
<style type="text/css">
	.st0{fill:#FFFFFF;}
</style>
<title>JB_LA_RGB_Master_white</title>
<path class="st0" d="M51.9,44.5v-30H40.7v1.9H45V33c0.1,2.9-0.7,5.6-2.2,8c-1.5,2.2-3.9,3.6-6.7,3.5c-1.3,0.1-2.4-0.3-3.4-1.2
	c-1.4-1.4-1.6-3.8-1.6-5.7V14.5H20.7v1.9h3.5v21.5c0,3.2,0.7,5.4,2.2,7s4,2.3,7.4,2.3c5.1,0,9-2.3,11.1-6.6v5.8h11.5v-2h-4.5V44.5z"
	/>
<polygon class="st0" points="72.7,44.5 72.7,0 61.8,0 61.8,2 65.8,2 65.8,44.5 61.8,44.5 61.8,46.4 77.2,46.4 77.2,44.5 "/>
<polygon class="st0" points="93.7,44.5 93.7,14.5 82.8,14.5 82.8,16.5 86.8,16.5 86.8,44.5 82.8,44.5 82.8,46.4 98.3,46.4 
	98.3,44.5 "/>
<path class="st0" d="M134,44.5v-30h-11.2v1.9h4.2V33c0.1,2.9-0.7,5.6-2.2,8c-1.5,2.2-3.9,3.6-6.7,3.5c-1.3,0.1-2.4-0.3-3.4-1.2
	c-1.4-1.4-1.6-3.8-1.6-5.7V14.5h-10.4v1.9h3.5v21.5c0,3.2,0.7,5.4,2.2,7c1.5,1.6,4,2.3,7.4,2.3c5.1,0,9-2.3,11.1-6.6v5.8h11.5v-2
	H134V44.5z"/>
<path class="st0" d="M229.7,34c0,4-1,7-3.1,9c-2.4,2.4-6.2,3.5-12,3.5h-21.2v-2h4.4V2h-4.4V0h20.6c4.3,0,7.5,1,9.5,3
	c1.7,1.7,2.5,4.2,2.5,7.7c0,5.5-3.2,9-9.5,10.5C223.2,22,229.7,24.3,229.7,34z M218.9,24.4c-1.7-1.5-3.9-2.3-6.1-2.1h-7.1v22.2h6
	c8.7,0,9.9-5.6,9.9-11.1C221.6,29.2,220.7,26.2,218.9,24.4L218.9,24.4z M215.9,3.5c-1.2-1.2-2.9-1.7-4.4-1.6h-5.8v18h5.3
	c5.3,0,7.2-2.3,7.2-8.5C218.1,9,217.9,5.5,215.9,3.5L215.9,3.5z"/>
<path class="st0" d="M298.4,20.5c-1.9-0.4-3.8-0.5-5.8-0.2c-5.8,0.7-8.7,7-8.7,13.1v11.1h4.2v1.9h-15.3v-1.9h4.2V16.4h-4.5v-2H284
	v11c3.4-7.2,7.2-11.1,11.1-11c1.6,0,3.3,0.3,4.9,0.7L298.4,20.5z"/>
<path class="st0" d="M256.3,27.6v5.9c0,4.3-2,11.3-7.4,11.3c-1,0-1.8-0.3-2.4-1c-1.1-1.1-1.6-3.1-1.6-6.3c0-5.6,1.3-7,5-8
	L256.3,27.6z M263.9,43.8c-0.6-0.6-1-1.9-1-4V23.4c0-3.2-0.7-5.3-2.2-6.8c-1.9-1.9-5.1-2.8-9.7-2.8c-3.5,0-11.6,0.7-11.6,7.9
	c0,0.6,0.2,1.4,0.6,1.8c0.7,0.5,1.6,0.8,2.5,0.7c1,0.1,1.9-0.2,2.5-0.7c0.6-0.7,1-1.8,0.8-2.8c-0.1-1.4,0.3-2.8,1.2-3.9
	c0.8-0.8,2.1-1.2,4-1.2c1.3-0.1,2.4,0.3,3.4,1.2c1.3,1.3,1.5,3.8,1.5,6v2.5c-2.4,0.8-4.3,1.4-7,2l-3.9,0.8c-5.8,1.4-8.4,4.2-8.4,9.3
	c0,3.5,0.7,5.8,2.2,7.3s3.7,2.2,6.8,2.2c4.7,0,7.6-1.4,9.8-4.8c1.2,3.7,3.7,4,7.2,4h5.1v-1.9C265.8,44.5,264.7,44.5,263.9,43.8
	L263.9,43.8z"/>
<path class="st0" d="M164.7,23.1v-7.2c-3.9-1.3-6.2-2-9.5-2c-5.2,0-10.5,3.1-10.5,9.7c0,6,5.2,7.9,9.6,9.6c3.9,1.5,7.6,2.9,7.6,6.7
	c0,3.6-3.5,5.5-6.9,5.5c-4.9,0-8.1-3.1-8.9-8.6h-2.4v8.5c3.6,1.4,7.4,2,11.2,2c3.6,0.1,7.1-1.3,9.7-3.6c1.7-1.7,2.6-3.9,2.6-6.3
	c0-7.5-5.6-9.4-10.6-11.1c-3.8-1.3-7.1-2.4-7.1-5.8c-0.1-1.1,0.3-2.1,1.1-2.9c1.2-1,2.6-1.5,4.1-1.4c1.7-0.1,3.4,0.4,4.8,1.5
	c1.5,1.5,2.5,3.4,2.9,5.5L164.7,23.1z"/>
<circle class="st0" cx="90.2" cy="4.7" r="4"/>
<circle class="st0" cx="245.1" cy="4.7" r="4.1"/>
<circle class="st0" cx="258" cy="4.7" r="4.1"/>
<path class="st0" d="M0.7,0v1.9H5v44.6C4.8,52.4,4,56,1,56.9l-1,0.2V59c1.3,0,2.5,0,3.8-0.3c5.6-1.2,8.7-5.4,8.8-12V0H0.7z"/>
</svg>
