<?xml version="1.0" encoding="utf-8"?>
<!-- Generator: Adobe Illustrator 26.1.0, SVG Export Plug-In . SVG Version: 6.00 Build 0)  -->
<svg version="1.1" id="Ebene_1" xmlns="http://www.w3.org/2000/svg" xmlns:xlink="http://www.w3.org/1999/xlink" x="0px" y="0px"
	 width="505px" height="73.8px" viewBox="0 0 505 73.8" style="enable-background:new 0 0 505 73.8;" xml:space="preserve">
<style type="text/css">
	.st0{fill:#FFFFFF;}
</style>
<g id="Logo">
	<g>
		<path class="st0" d="M505,51.1h-15.4l-16.4-22.9v22.9h-13.1V2.9c0.1-1.2,1.1-1.9,2.3-1.9h10.7v21.3L489.9,1h14.5l-18.8,23.3
			L505,51.1z M437.8,32c-2.8-5.2-20.1-31-20.1-31H404v50.1h12.7V19.5l21,31.6h12.6V1h-12.5V32z M382.8,1l15.1,50.1h-13.4l-2.5-8.4
			h-17.3l-2.4,8.4h-13.4l15-48.4c0.2-0.8,0.8-1.7,2.5-1.7H382.8z M379.9,33l-6.1-22.4h-0.6L367.1,33H379.9z M346.3,37.3
			c0,10.2-8.4,13.9-19.9,13.9H306V3.3c0-1.3,1-2.2,2.3-2.2h18.3c9.3,0,17.6,2.9,17.6,12.4c0,6-2.4,10.2-7.5,11.6
			C342.1,26.1,346.3,30,346.3,37.3z M318,21.1h7c5.1,0,7.4-1.7,7.4-5.6c0-3.8-2.4-5.4-7.1-5.4H318V21.1z M334,36c0-4.2-2.5-6-7.8-6
			h-8.3v12h7.8C331,41.9,334,40.3,334,36z M57.2,61H0v12.8h57.1V61H57.2z M179.7,36.7l5.7,14.5h-13.5l-6-13.9
			c-1.2-2.8-2.1-4.2-4.6-4.2h-5.2v18h-12.6V3c0-1,1.1-2,2-2h17.8c9.7,0,17.9,2,17.9,14.5c0,5.6-3.1,11.3-8.9,12.5
			C175.2,28.9,178.1,32.7,179.7,36.7z M169.1,16.5c0-4.8-3-5.8-6.7-5.8h-6.3v12.6h6.3C166.2,23.2,169.1,21.2,169.1,16.5z M78,1H67
			v50.1h12.9V3C79.9,2,79,1,78,1z M131.8,22.3h-16.3v10.2h6.2v8.8c-1.7,0.3-3.9,0.3-5.6,0.3c-9.4,0-14.5-6-14.5-15.7
			c0-9.1,4.4-15.3,13.9-15.3c3.4,0,8.1,1.1,11.6,2.7l5.1-8.6C128.1,1.9,121.8,0,114.5,0C98.1,0,88.2,10.6,88.2,26
			c0,17.2,9.9,26.1,28.5,26.1c5.3,0,12.5-0.6,17.1-1.7V24.6C133.8,23.3,133.1,22.3,131.8,22.3z M237.3,26c0,14.5-8.7,26.1-24.1,26.1
			c-16.4,0-25.1-11.6-25.1-26.1c0-14.4,8.7-26,25.1-26C228.6,0.1,237.3,11.6,237.3,26z M223.8,26c0-10.5-4.7-15.3-10.5-15.3
			c-6.8,0-11.6,4.8-11.6,15.3c0,10.7,4.8,15.5,11.6,15.5C219,41.5,223.8,36.7,223.8,26z M265.4,19.8c-4.3-1.3-7.8-2.6-7.8-5.2
			c0-2.6,2.7-4.4,7.4-4.4c3.9,0,7.5,1.6,10.9,3.7l7-7.9c-3.2-3-9.4-5.9-17.4-5.9c-12.1,0-21.4,5.9-21.4,16.3
			c0,9.7,8.4,12.6,15.7,14.7c6,1.7,10.6,2.7,10.6,6.1c0,3.6-4.1,4.2-7.3,4.2c-5.7,0-11.9-3-15.1-4.9l-5.7,10.1
			c3.5,2.4,11.4,5.5,19.9,5.5c13.2,0,21.5-7.1,21.5-17.4C283.5,24.6,273,22.2,265.4,19.8z M29,29.3L17.2,1H0v50.1h12.8V22.2L25,51.1
			h6.9l12.4-28.9v28.9h12.8V1H41.3L29,29.3z"/>
	</g>
</g>
</svg>
