<?xml version="1.0" encoding="utf-8"?>
<!-- Generator: Adobe Illustrator 23.1.0, SVG Export Plug-In . SVG Version: 6.00 Build 0)  -->
<svg version="1.1" id="Ebene_1" xmlns="http://www.w3.org/2000/svg" xmlns:xlink="http://www.w3.org/1999/xlink" x="0px" y="0px"
	 width="300px" height="61.6px" viewBox="0 0 300 61.6" style="enable-background:new 0 0 300 61.6;" xml:space="preserve">
<style type="text/css">
	.st0{fill:#FFFFFF;}
</style>
<path class="st0" d="M0,61.3V2.1h59v59H0V61.3z M57,59V4.4H2.3V59C2.3,59,57,59,57,59z"/>
<polygon class="st0" points="11.5,31.7 26.4,56 53.8,56 38.6,31.7 53.8,7.4 26.4,7.4 "/>
<path class="st0" d="M93,2.1c3.9,1.8,5.5,6,5.5,10.3c0,1.1,0,5.1-2.5,8c-2.5,3-6,3.2-7.1,3.2s-4.1,0-6.4-2.5
	c-1.4-1.4-2.8-3.9-2.8-8.5c0-1.1,0-5.3,2.5-8.3c0.2-0.5,0.9-1.1,2.1-1.8c2.1-1.1,4.1-1.1,4.8-1.1C91,1.4,92.3,1.8,93,2.1z M86.8,5.3
	c-1.4,0.9-3.2,3.2-3.2,7.4c0,0.7,0,4.8,2.5,6.9c1.1,0.9,2.3,1.1,3,1.1c0.9,0,2.3-0.2,3.7-2.1c0.7-0.9,1.6-3,1.6-6c0-0.5,0-1.6-0.5-3
	c-0.2-1.1-1.4-4.6-5.1-4.6C88.2,4.6,87.5,4.8,86.8,5.3z"/>
<path class="st0" d="M104.7,0v9.9c0.2-0.5,0.5-0.9,1.1-1.4c0.9-0.9,2.1-1.4,3.2-1.4c0.5,0,1.6,0,2.5,0.7c1.4,0.9,3.2,3,3.2,7.1
	c0,1.1-0.2,2.1-0.2,2.5c-0.2,1.8-0.7,3.4-1.8,4.6c-0.7,0.7-1.8,1.6-3.9,1.6s-3.2-0.9-3.7-1.6c-0.2-0.2-0.5-0.7-0.7-1.1v2.5h-3.4V0
	H104.7z M106.6,11c-0.9,0.5-1.6,1.8-1.6,4.4c0,1.6,0.5,3.4,1.6,4.4c0.7,0.7,1.4,0.7,1.6,0.7c0.2,0,0.9,0,1.6-0.5
	c0.7-0.7,1.6-2.1,1.6-4.6c0-1.4-0.2-3.2-1.4-4.1c-0.5-0.5-1.1-0.7-1.8-0.7C108,10.3,107.3,10.6,106.6,11z"/>
<path class="st0" d="M120.1,7.4l2.3,8c0.5,1.6,0.7,3,0.9,4.6c0-0.9,0.2-1.6,0.5-2.5c0.2-1.1,0.5-2.1,0.7-3.2l1.8-6.9h4.4l2.1,7.8
	c0.2,0.9,0.5,1.8,0.7,2.8c0.2,0.7,0.2,1.4,0.5,1.8c0-0.7,0.2-1.4,0.2-2.1c0-0.5,0.2-1.1,0.5-1.6c0.2-0.7,0.2-1.1,0.5-1.8l1.8-7.1
	h3.7L136,23.2h-4.4l-2.1-7.6c-0.7-2.8-0.9-3.4-1.1-5.1c0,0.7-0.2,1.4-0.2,2.1c-0.2,0.7-0.5,1.6-0.5,2.3l-2.3,8.3h-4.4l-4.8-16.1h3.9
	V7.4z"/>
<path class="st0" d="M150.5,23.4v-2.3c-0.2,0.5-0.2,0.5-0.5,0.7c-0.7,0.7-1.8,1.8-4.1,1.8c-0.7,0-3.2-0.2-4.4-2.3
	c-0.2-0.5-0.7-1.4-0.7-2.5c0-1.4,0.5-2.3,0.7-2.5c1.4-2.3,4.4-2.5,6.7-2.5c0.7,0,1.4,0,2.1,0c0,0,0-1.1-0.2-1.6
	c-0.2-0.9-1.1-1.8-3-1.8s-3.2,0.9-3.7,1.1c-0.2,0.2-0.5,0.2-0.7,0.7V8.5c1.8-0.7,3-1.1,5.1-1.1c0.5,0,1.1,0,2.1,0.2
	c2.5,0.7,3.4,2.1,3.7,3.2c0.2,0.9,0.2,1.8,0.5,3.9v3.9c0,1.6,0,3.2,0,4.6c0,0.2,0,0.5,0,0.5h-3.4V23.4z M145.6,16.8
	c-0.5,0.2-0.7,0.7-0.7,0.9c0,0.2-0.2,0.5-0.2,0.9c0,0.2,0,0.7,0.2,0.9c0.5,1.1,1.6,1.4,2.1,1.4c0.5,0,1.8-0.2,2.8-1.6
	c0.5-0.9,0.7-2.1,0.7-3.2C149.1,16.1,147,15.8,145.6,16.8z"/>
<path class="st0" d="M160.8,0v23.4h-3.7V0H160.8z"/>
<path class="st0" d="M177.8,0v23.4h-3.4v-3.2c-0.2,0.5-0.2,0.9-0.7,1.4c-0.5,0.9-1.8,2.1-4.1,2.1c-0.5,0-1.6,0-2.5-0.7
	c-1.6-0.9-3.4-3-3.4-7.6c0-0.9,0-5.1,2.8-7.1c1.4-0.9,2.5-1.1,3.2-1.1s2.5,0.2,3.7,1.8c0.5,0.7,0.7,1.1,0.9,1.6V0H177.8z
	 M167.5,15.4c0,0.2,0,1.4,0.2,2.3c0.7,2.3,2.1,2.8,3,2.8c0.5,0,1.6-0.2,2.3-1.1c0.5-0.7,1.1-1.8,1.1-3.7c0-0.5,0-3-1.6-4.1
	c-0.2-0.2-0.9-0.7-1.8-0.7C169.1,10.3,167.5,11.7,167.5,15.4z"/>
<path class="st0" d="M190.9,23.4v-7.8c0-1.8,0-3.9-1.4-4.8c-0.2-0.2-0.7-0.5-1.4-0.5c-0.5,0-1.6,0.2-2.5,1.4
	c-0.7,1.1-0.7,2.5-0.7,3.9v7.6h-3.7V11.3c0-1.4,0-2.5,0-3.9h3.7v2.5c0.2-0.5,0.7-1.1,1.8-1.8c0.7-0.5,1.6-0.9,3.2-0.9
	c0.2,0,0.9,0,1.6,0.2c1.4,0.5,2.5,1.6,3,3.2c0.2,1.1,0.2,3.2,0.2,4.6v8.3H190.9z"/>
<path class="st0" d="M200.5,16.8c0.2,0.9,0.5,1.4,0.7,1.6c0.5,0.9,1.6,2.1,3.9,2.1c1.6,0,3-0.7,3.4-0.9c0.2-0.2,0.7-0.5,0.9-0.7v3.7
	c-0.9,0.2-2.8,1.1-5.1,1.1c-0.9,0-3.4,0-5.3-2.1c-0.9-0.9-2.1-2.8-2.1-6.2c0-0.7,0-3,1.1-5.1c0.7-1.1,2.3-3.4,5.7-3.4
	c0.7,0,2.1,0,3.7,1.1c2.5,1.8,2.8,5.3,2.8,6.2c0,0.9,0,1.6,0,2.5C210.4,16.8,200.5,16.8,200.5,16.8z M207,13.8c0-0.5,0-0.9-0.2-1.4
	c-0.5-1.6-1.4-2.5-3-2.5c-0.7,0-1.1,0.2-1.6,0.5c-1.4,1.1-1.6,3-1.6,3.4H207z"/>
<path class="st0" d="M221.4,11c-0.2,0-0.5-0.2-1.1-0.2s-2.1,0.2-3,2.1c-0.5,1.1-0.7,2.3-0.7,4.8v5.5h-3.7V11.5c0-1.4,0-2.8,0-4.1
	h3.4v3.9c0.2-0.7,0.2-0.9,0.5-1.4c0.9-2.3,2.8-2.8,3.7-2.8c0.2,0,0.5,0,0.9,0.2C221.4,7.4,221.4,11,221.4,11z"/>
<path class="st0" d="M85,45.7l0.9-1.4c0.5-0.7,1.1-1.4,1.6-2.1l6.2-8h6l-7.6,9.4l-2.5,3l10.6,14.5h-6.4l-6.9-9.6
	c-0.5-0.7-0.9-1.4-1.4-2.1L85,48.2v12.9h-4.8V34.2H85V45.7z"/>
<path class="st0" d="M112.3,61.1v-3c-0.2,0.5-0.2,0.7-0.5,0.9c-0.7,0.9-2.3,2.3-5.3,2.3c-0.7,0-3.9-0.2-5.5-3
	c-0.2-0.5-0.9-1.6-0.9-3.2c0-1.6,0.7-2.8,0.9-3.2c1.8-3,5.5-3.2,8.3-3.2c0.9,0,1.8,0,2.8,0c0,0,0-1.4-0.2-2.1
	c-0.5-1.1-1.4-2.3-3.7-2.3s-4.1,0.9-4.6,1.4c-0.2,0.2-0.5,0.2-0.9,0.7l-0.2-4.6c2.3-0.9,3.7-1.4,6.2-1.4c0.5,0,1.6,0,2.8,0.2
	c3,0.7,4.1,2.8,4.6,4.1c0.5,1.1,0.5,2.3,0.5,4.8v4.8c0,1.8,0,3.9,0,5.7c0,0.2,0,0.5,0,0.7h-4.1V61.1z M106.4,52.8
	c-0.5,0.5-0.9,0.9-0.9,1.1s-0.2,0.7-0.2,1.1c0,0.2,0,0.7,0.2,1.1c0.7,1.4,2.1,1.6,2.5,1.6c0.7,0,2.3-0.2,3.2-1.8
	c0.9-1.1,0.9-2.5,0.9-4.1C110.5,51.9,108,51.7,106.4,52.8z"/>
<path class="st0" d="M132.8,61.1v-9.6c0-2.3,0-4.8-1.6-6c-0.2-0.2-0.9-0.5-1.6-0.5c-0.7,0-2.1,0.2-3.2,1.8c-0.9,1.4-0.9,3.2-0.9,4.8
	v9.4h-4.6V45.9c0-1.6,0-3.2-0.2-4.8h4.6v3c0.5-0.5,0.9-1.4,2.1-2.3c0.7-0.5,1.8-1.1,3.9-1.1c0.2,0,1.1,0,2.1,0.2
	c1.8,0.5,3.2,2.1,3.7,4.1c0.5,1.6,0.5,4.1,0.5,5.7v10.1h-4.6V61.1z"/>
<path class="st0" d="M147.2,41.1h4.4V45h-4.1v8.5c0,0.9,0,3.7,2.8,3.7c0.5,0,0.9,0,1.6-0.2v4.1c-1.1,0.2-1.8,0.5-3,0.5
	c-0.5,0-3,0-4.4-1.6c-1.6-1.8-1.6-4.8-1.6-7.1v-7.6h-3.4v-3.9h3.4v-3.9l4.6-1.6v5.3H147.2z"/>
<path class="st0" d="M166.3,41.6c3.4,1.6,5.3,5.5,5.3,9.6c0,0.7,0,2.5-0.7,4.4c-0.7,2.3-3,6-8.5,6c-1.1,0-3.7,0-6.2-2.3
	c-1.4-1.1-3.2-3.4-3.2-8c0-1.4,0.2-3,0.7-4.4c1.4-4.1,4.8-6,8.7-6C162.9,40.7,164.5,40.7,166.3,41.6z M160.1,45.3
	c-0.9,0.7-2.3,2.5-2.3,5.7c0,0.5,0,4.1,2.1,5.7c0.7,0.5,1.4,0.7,2.3,0.7c2.1,0,4.4-1.6,4.4-6.7c0-1.6-0.2-3-0.9-4.4
	c-0.5-0.7-1.4-2.1-3.4-2.1C161.3,44.6,160.3,45,160.1,45.3z"/>
<path class="st0" d="M186.8,61.1v-9.6c0-2.3,0-4.8-1.6-6c-0.2-0.2-0.9-0.5-1.6-0.5c-0.7,0-2.1,0.2-3.2,1.8c-0.9,1.4-1.1,3.2-1.1,4.8
	v9.4h-4.6V45.9c0-1.6,0-3.2-0.2-4.8h4.6v3c0.5-0.5,0.9-1.4,2.1-2.3c0.7-0.5,1.8-1.1,3.9-1.1c0.2,0,1.1,0,2.1,0.2
	c1.8,0.5,3.2,2.1,3.7,4.1c0.5,1.6,0.5,4.1,0.5,5.7v10.1h-4.4V61.1z"/>
<path class="st0" d="M205.6,61.1v-3c-0.2,0.5-0.2,0.7-0.5,0.9c-0.7,0.9-2.3,2.3-5.3,2.3c-0.7,0-3.9-0.2-5.5-3
	c-0.2-0.5-0.9-1.6-0.9-3.2c0-1.6,0.7-2.8,0.9-3.2c1.8-3,5.5-3.2,8.3-3.2c0.9,0,1.8,0,2.8,0c0,0,0-1.4-0.2-2.1
	c-0.5-1.1-1.4-2.3-3.7-2.3s-4.1,0.9-4.6,1.4c-0.2,0.2-0.5,0.2-0.9,0.7l-0.2-4.6c2.3-0.9,3.7-1.4,6.2-1.4c0.5,0,1.6,0,2.8,0.2
	c3,0.7,4.1,2.8,4.6,4.1c0.5,1.1,0.5,2.3,0.5,4.8v4.8c0,1.8,0,3.9,0,5.7c0,0.2,0,0.5,0,0.7h-4.1V61.1z M199.6,52.8
	c-0.5,0.5-0.9,0.9-0.9,1.1s-0.2,0.7-0.2,1.1c0,0.2,0,0.7,0.2,1.1c0.7,1.4,2.1,1.6,2.5,1.6c0.7,0,2.3-0.2,3.2-1.8
	c0.9-1.1,0.9-2.5,0.9-4.1C203.8,51.9,201.2,51.7,199.6,52.8z"/>
<path class="st0" d="M218.5,31.9v29.2h-4.6V31.9H218.5z"/>
<path class="st0" d="M227.4,31.9v12.2c0.2-0.5,0.5-0.9,1.4-1.8c1.1-1.1,2.5-1.6,4.1-1.6c0.7,0,1.8,0,3.2,0.9c1.8,1.1,4.1,3.7,4.1,9
	c0,1.4-0.2,2.5-0.2,3c-0.2,2.1-0.9,4.1-2.5,5.7c-0.9,0.9-2.3,2.1-4.8,2.1s-3.9-1.1-4.6-2.1c-0.5-0.5-0.7-0.9-0.9-1.4v3h-4.4V31.9
	H227.4z M229.5,45.7c-0.9,0.7-2.1,2.3-2.1,5.5c0,2.1,0.5,4.1,2.1,5.5c0.9,0.7,1.6,0.7,2.1,0.7c0.5,0,1.1,0,1.8-0.7
	c0.9-0.7,2.1-2.5,2.1-5.7c0-1.6-0.5-3.9-1.6-5.1c-0.7-0.5-1.4-0.9-2.3-0.9C231.3,45,230.4,45,229.5,45.7z"/>
<path class="st0" d="M254.3,61.1v-3c-0.2,0.5-0.2,0.7-0.5,0.9c-0.7,0.9-2.3,2.3-5.3,2.3c-0.7,0-3.9-0.2-5.5-3
	c-0.2-0.5-0.9-1.6-0.9-3.2c0-1.6,0.7-2.8,0.9-3.2c1.8-3,5.5-3.2,8.3-3.2c0.9,0,1.8,0,2.8,0c0,0,0-1.4-0.2-2.1
	c-0.5-1.1-1.4-2.3-3.7-2.3s-4.1,0.9-4.6,1.4c-0.2,0.2-0.5,0.2-0.9,0.7l-0.2-4.6c2.3-0.9,3.7-1.4,6.2-1.4c0.5,0,1.6,0,2.8,0.2
	c3,0.7,4.1,2.8,4.6,4.1c0.5,1.1,0.5,2.3,0.5,4.8v4.8c0,1.8,0,3.9,0,5.7c0,0.2,0,0.5,0,0.7h-4.1V61.1z M248.3,52.8
	c-0.5,0.5-0.9,0.9-0.9,1.1s-0.2,0.7-0.2,1.1c0,0.2,0,0.7,0.2,1.1c0.7,1.4,2.1,1.6,2.5,1.6c0.7,0,2.3-0.2,3.2-1.8
	c0.9-1.1,0.9-2.5,0.9-4.1C252.5,51.9,249.9,51.7,248.3,52.8z"/>
<path class="st0" d="M274.7,61.1v-9.6c0-2.3,0-4.8-1.6-6c-0.2-0.2-0.9-0.5-1.6-0.5c-0.7,0-2.1,0.2-3.2,1.8c-0.9,1.4-0.9,3.2-0.9,4.8
	v9.4h-4.6V45.9c0-1.6,0-3.2-0.2-4.8h4.6v3c0.5-0.5,0.9-1.4,2.1-2.3c0.7-0.5,1.8-1.1,3.9-1.1c0.2,0,1.1,0,2.1,0.2
	c1.8,0.5,3.2,2.1,3.7,4.1c0.5,1.6,0.5,4.1,0.5,5.7v10.1h-4.6V61.1z"/>
<path class="st0" d="M288.1,49.2c0.5-0.9,1.1-1.6,1.6-2.5l4.1-5.5h5.3l-6.7,8.7l7.6,11.3h-5.7l-3.9-6c-0.5-0.7-0.9-1.4-1.4-2.3
	c-0.2-0.5-0.7-1.1-0.9-1.6v9.9h-4.6V31.9h4.6C288.1,31.9,288.1,49.2,288.1,49.2z"/>
</svg>
