<?xml version="1.0" encoding="utf-8"?>
<!-- Generator: Adobe Illustrator 23.1.0, SVG Export Plug-In . SVG Version: 6.00 Build 0)  -->
<svg version="1.1" id="Ebene_1" xmlns="http://www.w3.org/2000/svg" xmlns:xlink="http://www.w3.org/1999/xlink" x="0px" y="0px"
	 width="300px" height="50.4px" viewBox="0 0 300 50.4" style="enable-background:new 0 0 300 50.4;" xml:space="preserve">
<style type="text/css">
	.st0{fill:#FFFFFF;}
</style>
<g>
	<path class="st0" d="M283.8,15.8c0,0,3.4-15.6,3.4-15.8h-21.6l-4.5,20.7h5.6l3.4-15.6h10.5c0,0-3.2,15.6-3.4,15.6h16l-2.1,9.6
		h-15.8L272,45.1h-12l-1.1,5.3h17.7l3.2-14.7h15.8c0,0,4.3-19.9,4.3-20.1h-16.2V15.8z"/>
	<polygon class="st0" points="253.5,48.9 253.2,50.4 0,50.4 0.4,48.9 	"/>
	<polygon class="st0" points="254.7,42.5 254.5,44.2 1.3,44.2 1.7,42.5 	"/>
	<g>
		<path class="st0" d="M129,13c2.3,0,4.1-1.7,4.3-3.8s-1.5-3.8-3.6-3.8c-2.3,0-4.1,1.7-4.3,3.8C125.3,11.3,126.8,13,129,13z"/>
		<path class="st0" d="M256.2,36.3h-6l0.4-2.3c-2.1,0.6-4.3,1.3-6.8,1.3c-3.2,0-5.8-1.1-6-4.7h16c0.6-1.9,0.9-3.8,0.9-5.6
			c0-5.3-3.2-9.6-9.8-9.6c-8.5,0-13.9,7-13.9,14.9c0,2.6,0.6,4.5,1.7,6.2h-5.3L228,34c-1.5,0.4-3,1.1-4.9,1.1
			c-3.2,0-5.3-1.3-5.3-5.3c0-4.7,3-8.5,7.5-8.5c1.5,0,3.2,0.4,4.7,1.1l1.1-5.6c-1.9-0.6-4.1-1.1-6.4-1.1c-7.7,0-14.1,5.8-14.1,14.3
			c0,2.8,0.6,4.9,1.7,6.4h-6.4l2.3-10.5c1.5-7-1.7-10.7-6.8-10.7c-2.8,0-5.6,1.1-7.9,3.6l0.6-2.8h-6.4l-4.1,20.3h-4.3l2.1-10
			c0.2-1.1,0.4-2.1,0.4-3.2c0-4.1-2.3-7.7-10.2-7.7c-3.2,0-6.4,0.6-7.5,1.1l-1.1,5.6c1.5-0.4,4.7-1.3,7.3-1.3c3.6,0,4.9,1.1,4.9,3
			c0,0.4,0,0.6,0,1.1v0.4c-1.7-0.2-3.4-0.4-4.3-0.4c-6.8,0-12.4,2.6-12.4,9c0,0.9,0.2,1.7,0.4,2.3h-4.3l2.3-10.5
			c1.5-7-1.7-10.7-6.8-10.7c-2.8,0-5.6,1.1-7.9,3.6l0.6-2.8h-6.4l-4.9,20.5H127l4.5-20.5h-6.8L120,36.3h-14.3l1.9-9h10.5l1.3-6.2
			h-10.5l1.7-7.7h11.1l1.3-6.2h-18.4l-6,29h-3.8l0.4-1.9c-1.1,0.2-2.6,0.6-3.8,0.6c-1.9,0-3.4-0.6-3-3.2l2.3-10.7h7.5l1.1-5.3h-7.5
			l1.5-6.6L86,10.7l-4.5,20.5c-0.4,2.1-0.4,3.8,0.2,5.1h-4.7c0.6-1.1,1.1-2.3,1.1-4.1c0-7.5-9-6.2-9-9.6c0-1.5,1.5-2.1,3.6-2.1
			s5.3,0.9,6.2,1.1l1.1-5.6c-2.1-0.6-4.5-0.9-6.8-0.9c-6.8,0-10.9,3-10.9,7.9c0,7.3,9,6.2,9,9.4c0,1.9-2.3,2.3-4.3,2.3
			c-2.6,0-5.3-0.6-6.8-1.1L60,36.3h-4.3c1.9-2.1,3.4-5.1,3.8-8.3c1.3-7.3-2.8-12.8-10.5-12.8S36.3,20.7,35.2,28
			c-0.6,3.2,0,6.2,1.5,8.3H15.8l1.3-6.4h3c9.8,0,15.2-4.7,15.2-12.8c0-6-4.3-9.8-11.5-9.8h-8.8l-6.2,29H3L2.6,38h5.8l-0.4,1.9h7
			l0.4-1.9H38c1.7,1.7,4.5,2.8,7.7,2.8s6-1.1,8.3-2.8h5.8l-0.2,1.5c2.1,0.6,4.9,1.1,7.5,1.1c3.4,0,6.6-0.9,8.5-2.3h7
			c1.3,1.5,3.6,2.3,6.6,2.3c1.3,0,3.2-0.2,4.7-0.6l0.4-1.7h3.8l-0.4,1.9h7l0.4-1.9h14.3l-0.4,1.9h6.8l0.4-1.9h4.7l-0.4,1.9h6.8
			l0.4-1.9h8.8l-0.4,1.9h6.8l0.4-1.9h5.6c1.3,1.7,3.4,2.6,6,2.6c2.8,0,4.9-1.1,6.6-2.6h0.4l-0.4,1.9h6.2l0.4-1.9h4.3l-0.4,1.9h6.8
			l0.4-1.9h8.8l0.4,1.7h6.8l0.4-1.9h8.3c1.9,1.7,4.5,2.3,7.5,2.3c2.1,0,3.8-0.4,5.3-0.9l0.4-1.5h7.3c1.9,1.7,4.7,2.8,8.1,2.8
			c2.8,0,5.1-0.4,6.8-1.1L250,38h6L256.2,36.3z M244.7,20.3c2.3,0,3.8,1.5,3.8,4.1c0,0.4,0,0.9,0,1.3h-9.8
			C239.6,22.4,241.7,20.3,244.7,20.3z M170.4,29.3c0.6,0,2.1,0,3.6,0.2l-0.2,1.3c-0.9,2.8-3.2,4.7-6,4.7c-1.9,0-3-1.1-3-2.6
			C164.8,30.5,167,29.3,170.4,29.3z M42.5,28c1.1-4.9,3.4-7.3,6.2-7.3s4.9,2.1,3.8,7.3c-1.1,4.9-3.4,7.3-6.2,7.3
			C43.6,35,41.4,32.9,42.5,28z M20.7,13.2h2.8c3.2,0,4.7,1.3,4.7,4.3c0,3.8-2.6,6.4-7,6.4h-2.8L20.7,13.2z M138.6,36.3l1.9-8.5
			c1.1-4.9,3.4-6.6,6-6.6c3.2,0,3.6,2.3,3,5.1l-2.1,10H138.6z M190.5,36.3l1.9-8.5c1.1-4.9,3.4-6.6,6-6.6c3.2,0,3.6,2.3,3,5.1
			l-2.1,10H190.5z"/>
	</g>
</g>
</svg>
