<?xml version="1.0" encoding="utf-8"?>
<!-- Generator: Adobe Illustrator 23.1.0, SVG Export Plug-In . SVG Version: 6.00 Build 0)  -->
<svg version="1.1" id="Logo" xmlns="http://www.w3.org/2000/svg" xmlns:xlink="http://www.w3.org/1999/xlink" x="0px" y="0px"
	 width="300px" height="49.2px" viewBox="0 0 300 49.2" style="enable-background:new 0 0 300 49.2;" xml:space="preserve">
<style type="text/css">
	.st0{fill:#FFFFFF;}
</style>
<g>
	<path class="st0" d="M20.4,0.9c11.3,0,15.3,6.7,15.3,13.3c0,3.3-1.5,6.9-4.6,9.6c3.5,2.7,5.6,6.4,5.6,10c0,6.6-4.3,14.6-15.3,14.6
		H0V0.9H20.4z M9.9,9.5v10.3h10.7c3.9,0,5.2-2.5,5.2-5.3c0-3-1.8-5.1-6-5.1C19.9,9.5,9.9,9.5,9.9,9.5z M9.9,28.2v11.5H21
		c4,0,5.8-3.3,5.8-6c0-2.5-1.8-5.6-5.8-5.6C21,28.2,9.9,28.2,9.9,28.2z"/>
	<path class="st0" d="M69.2,37.7H52.4l-3.8,10.6H38.3L56.3,0.9h9l18,47.4H73.1L69.2,37.7z M55.5,28.8H66l-5.2-14.3L55.5,28.8z"/>
	<path class="st0" d="M124.6,48.3H115L97.8,19.6v28.7h-9.9V0.9h9.5l17.3,29v-29h9.9C124.6,0.9,124.6,48.3,124.6,48.3z"/>
	<path class="st0" d="M157.1,20.2l17.1,28.1h-11.6l-12.1-20.5l-6.8,8v12.5h-9.9V0.9h9.9v20.9l17.5-20.9h12.4L157.1,20.2z"/>
</g>
<g>
	<path class="st0" d="M206.8,13.7c-0.9-5.3-4.7-9.8-12.5-9.8c-6.7,0-11.6,3.6-11.6,8.7c0,5.9,4.4,7.1,12.9,9.3
		c1.5,0.4,3,0.8,4.6,1.3c7.2,2,11.7,4.8,11.8,12.6c0.1,8.2-7.8,13.5-17.6,13.5c-10.7,0-16.8-7.2-17.7-14.2h4.4
		c0.9,5.6,6.1,10.3,13.2,10.3c7.3,0,13.4-3.3,13.4-9.7c0-6.7-5.8-8.3-13.5-10.1c-1.6-0.4-3.3-0.8-5.1-1.3
		c-6.5-1.8-10.8-4.7-10.8-11.7c0-7.4,7.2-12.6,15.8-12.6c11.6,0,16,6.6,16.9,13.7L206.8,13.7L206.8,13.7z"/>
	<path class="st0" d="M224.1,44.4h26.2v3.9h-30.5V0.9h4.2C224.1,0.9,224.1,44.4,224.1,44.4z"/>
	<path class="st0" d="M300,48.3h-4.2V8.9h-0.1l-14.8,34.7h-4.1L261.9,8.9h-0.1v39.5h-4.2V0.9h5l16.3,38l16.2-38h5V48.3z"/>
</g>
</svg>
