<?xml version="1.0" encoding="utf-8"?>
<!-- Generator: Adobe Illustrator 23.1.0, SVG Export Plug-In . SVG Version: 6.00 Build 0)  -->
<svg version="1.1" id="Ebene_1" xmlns="http://www.w3.org/2000/svg" xmlns:xlink="http://www.w3.org/1999/xlink" x="0px" y="0px"
	 width="300px" height="37.4px" viewBox="0 0 300 37.4" style="enable-background:new 0 0 300 37.4;" xml:space="preserve">
<style type="text/css">
	.st0{fill:#FFFFFF;}
	.st1{fill-rule:evenodd;clip-rule:evenodd;fill:#FFFFFF;}
</style>
<g>
	<g>
		<g>
			<polygon class="st0" points="47.1,30.9 59.8,30.9 59.8,27.7 51,27.7 59.6,13.9 59.6,10.6 47.4,10.6 47.4,13.8 55.7,13.8 
				47.1,27.5 			"/>
			<path class="st0" d="M74.8,15.9h-3.5v7.4c0,1.9-0.5,4.9-3.2,4.9c-2.3,0-2.3-2.5-2.3-4.2v-8.1h-3.5v9.5c0,3.4,1.4,5.8,4.6,5.8
				c1.8,0,3.4-0.9,4.4-2.5l0,0v2.1h3.4v-15H74.8z"/>
			<path class="st1" d="M84.5,27.9c-1.9,0-3-2.5-3-4.6c0-2.3,0.7-4.8,3.2-4.8c2.1,0,3,2.1,3,4.6C87.7,25.7,86.6,27.9,84.5,27.9
				L84.5,27.9z M87.7,15.9V18l0,0c-0.9-1.8-2.3-2.5-4.1-2.5c-4.1,0-5.6,4.2-5.6,7.8c0,4.1,1.6,7.6,5.5,7.6c1.9,0,3.5-1.1,4.2-2.5
				l0,0c0,2.6-0.2,5.8-4.1,5.8c-1.1,0-2.8-0.7-3.9-1.2l-0.4,3.4c1.6,0.7,3.4,1.1,4.6,1.1c5.6,0,7.1-3.9,7.1-7.9V15.9H87.7L87.7,15.9
				z"/>
			<path class="st1" d="M97.4,21.9c0.2-1.9,1.2-3.5,3.2-3.5s2.8,1.6,2.8,3.5H97.4L97.4,21.9z M105.8,26.8c-1.2,0.9-2.8,1.6-4.4,1.6
				c-2.1,0-3.7-1.4-3.9-3.7h9.3c0-5.3-1.4-9-6.3-9c-4.2,0-6.2,3.5-6.2,7.9c0,4.9,2.6,7.8,7.1,7.8c1.9,0,3.4-0.4,4.6-1.2v-3.4H105.8z
				"/>
			<path class="st0" d="M109.9,30.9h3.5v-5.5c0-2.1,0-6.2,2.8-6.2c0.7,0,1.2,0.2,1.6,0.4v-3.9c-0.4-0.2-0.7-0.2-1.1-0.2
				c-2.1,0-3.5,2.3-3.7,3.7l0,0v-3.4h-3.2L109.9,30.9L109.9,30.9z"/>
			<polygon class="st0" points="126.1,30.9 129.8,30.9 129.8,21.5 130,21.5 136.5,30.9 141.3,30.9 133.5,20.1 140.9,10.6 
				136.5,10.6 129.8,19.2 129.8,10.6 126.1,10.6 			"/>
			<path class="st1" d="M144.3,19.9c1.2-1.1,2.6-1.6,4.2-1.6c2.1,0,3,0.9,3,3.2h-1.9c-1.4,0-3.2,0.2-4.6,0.9
				c-1.4,0.7-2.3,2.1-2.3,4.2c0,2.8,2.3,4.4,4.8,4.4c1.6,0,3.4-0.9,4.2-2.6l0,0c0,0.5,0,1.4,0.2,2.3h3.2c0-1.2-0.2-2.3-0.2-3.4
				c0-1.1,0-2.3,0-3.7v-1.9c0-4.4-1.8-6.3-5.8-6.3c-1.4,0-3.4,0.4-4.8,1.1V19.9L144.3,19.9z M146,26.5c0-2.3,2.3-2.6,3.9-2.6h1.6
				c0,1.2-0.2,2.3-0.7,3c-0.5,0.9-1.4,1.4-2.5,1.4C147.1,28.4,146,27.9,146,26.5L146,26.5z"/>
			<path class="st0" d="M158.4,30.9h3.5v-7.4c0-1.9,0.5-4.9,3-4.9c2.3,0,2.3,2.5,2.3,4.2v7.9h3.5v-9.5c0-3.4-1.4-5.8-4.6-5.8
				c-1.8,0-3.4,0.7-4.4,2.5l0,0v-1.9h-3.4V30.9L158.4,30.9z"/>
			<path class="st0" d="M175.8,26.3c0,3,1.6,4.9,4.2,4.9c1.1,0,1.9-0.2,2.6-0.4l-0.2-3c-0.4,0.2-0.9,0.4-1.6,0.4
				c-1.4,0-1.6-1.2-1.6-2.5v-7.1h3.2v-2.8h-3.2v-4.2l-3.5,1.2v3h-2.6v2.8h2.6V26.3L175.8,26.3z"/>
			<path class="st1" d="M184.1,23.5c0,4.2,2.6,7.8,7.1,7.8c4.4,0,7.1-3.4,7.1-7.8c0-4.9-3-7.9-7.1-7.9
				C187.3,15.5,184.1,18.5,184.1,23.5L184.1,23.5z M187.8,22.9c0-2.3,1.1-4.4,3.4-4.4s3.4,2.1,3.4,4.4c0,2.5-0.7,5.1-3.4,5.1
				C188.5,28.2,187.8,25.4,187.8,22.9L187.8,22.9z"/>
			<path class="st0" d="M201.2,30.9h3.5v-7.4c0-1.9,0.5-4.9,3-4.9c2.3,0,2.3,2.5,2.3,4.2v7.9h3.5v-9.5c0-3.4-1.4-5.8-4.6-5.8
				c-1.8,0-3.4,0.7-4.4,2.5l0,0v-1.9h-3.4V30.9L201.2,30.9z"/>
			<path class="st1" d="M218.2,19.9c1.2-1.1,2.6-1.6,4.2-1.6c2.1,0,3,0.9,3,3.2h-1.9c-1.4,0-3.2,0.2-4.6,0.9
				c-1.4,0.7-2.3,2.1-2.3,4.2c0,2.8,2.3,4.4,4.8,4.4c1.6,0,3.4-0.9,4.2-2.6l0,0c0,0.5,0,1.4,0.2,2.3h3c0-1.2-0.2-2.3-0.2-3.4
				c0-1.1,0-2.3,0-3.7v-1.9c0-4.4-1.8-6.3-5.8-6.3c-1.4,0-3.4,0.4-4.8,1.1L218.2,19.9L218.2,19.9z M219.9,26.5
				c0-2.3,2.3-2.6,3.9-2.6h1.6c0,1.2-0.2,2.3-0.7,3c-0.5,0.9-1.4,1.4-2.5,1.4C221,28.4,219.9,27.9,219.9,26.5L219.9,26.5z"/>
			<polygon class="st0" points="232.5,30.9 236,30.9 236,9 232.5,9 			"/>
			<path class="st1" d="M243.6,23.3c0-2.1,0.9-4.8,3.2-4.8c2.3,0,2.8,2.8,2.8,4.8c0,2.1-0.7,4.9-3,4.9
				C244.4,28.2,243.6,25.4,243.6,23.3L243.6,23.3z M240,30.9h3.4v-1.8l0,0c1.1,1.6,2.6,2.1,4.1,2.1c4.1,0,5.6-3.7,5.6-7.9
				c0-4.1-1.6-7.8-5.6-7.8c-1.8,0-3,0.9-4.1,2.3l0,0V9h-3.5v21.9H240z"/>
			<path class="st1" d="M257,19.9c1.2-1.1,2.6-1.6,4.2-1.6c2.1,0,3,0.9,3,3.2h-1.9c-1.4,0-3.2,0.2-4.6,0.9c-1.4,0.7-2.3,2.1-2.3,4.2
				c0,2.8,2.3,4.4,4.8,4.4c1.6,0,3.4-0.9,4.2-2.6l0,0c0,0.5,0,1.4,0.2,2.3h3c0-1.2-0.2-2.3-0.2-3.4c0-1.1,0-2.3,0-3.7v-1.9
				c0-4.4-1.8-6.3-5.8-6.3c-1.4,0-3.4,0.4-4.8,1.1L257,19.9L257,19.9z M258.9,26.5c0-2.3,2.3-2.6,3.9-2.6h1.6c0,1.2-0.2,2.3-0.7,3
				c-0.5,0.9-1.4,1.4-2.5,1.4C259.8,28.4,258.9,27.9,258.9,26.5L258.9,26.5z"/>
			<path class="st0" d="M271.1,30.9h3.5v-7.4c0-1.9,0.5-4.9,3.2-4.9c2.3,0,2.3,2.5,2.3,4.2v7.9h3.5v-9.5c0-3.4-1.4-5.8-4.6-5.8
				c-1.8,0-3.4,0.7-4.4,2.5l0,0v-1.9h-3.4v15H271.1z"/>
			<polygon class="st0" points="287.5,30.9 291,30.9 291,23.6 291,23.6 295.6,30.9 300,30.9 294.4,22.6 299.3,15.9 295.2,15.9 
				291,21.9 291,21.9 291,9 287.5,9 			"/>
			<path class="st0" d="M0,0v33.9h33.9V0H0z M32.5,32.5H1.2V1.2h31.2C32.5,1.2,32.5,32.5,32.5,32.5z"/>
			<polygon class="st0" points="6.5,16.9 15.2,30.9 30.7,30.9 22,16.9 30.7,3 15.2,3 			"/>
		</g>
	</g>
</g>
</svg>
