<?xml version="1.0" encoding="utf-8"?>
<!-- Generator: Adobe Illustrator 23.1.0, SVG Export Plug-In . SVG Version: 6.00 Build 0)  -->
<svg version="1.1" id="Ebene_1" xmlns="http://www.w3.org/2000/svg" xmlns:xlink="http://www.w3.org/1999/xlink" x="0px" y="0px"
	 width="300px" height="70.1px" viewBox="0 0 300 70.1" style="enable-background:new 0 0 300 70.1;" xml:space="preserve">
<style type="text/css">
	.st0{fill:#FFFFFF;}
</style>
<g>
	<path class="st0" d="M0,0v70.1h70.1V0H0z M67.2,67.2c-3.3,0-61.1,0-64.4,0c0-3.3,0-61.1,0-64.4c3.3,0,61.1,0,64.4,0
		C67.2,6.1,67.2,63.9,67.2,67.2z"/>
</g>
<polygon class="st0" points="62.2,8.9 35.9,8.9 19.9,35 35.9,61.2 62.2,61.2 46.3,35 "/>
<g>
	<path class="st0" d="M90.7,29.2l12.1-17.4H91.1v-3h15.6v3L94.5,29.3h12.3v3H90.7V29.2z"/>
	<path class="st0" d="M125.3,32.2h-3.1v-2.8h-0.1c-1,1.9-3.2,3.1-5.6,3.1c-4.4,0-6.4-2.8-6.4-7.3V15h3.2v8.8c0,4,0.8,5.9,3.6,6
		c3.6,0,5.2-2.9,5.2-7v-7.9h3.2V32.2z M113.5,9.2h3.2v3.4h-3.2V9.2z M119,9.2h3.2v3.4H119V9.2z"/>
	<path class="st0" d="M130,15.1h3v2.6h0.1c0.8-1.8,2.6-3.1,4.4-3.1c1,0,1.4,0.1,2.1,0.2v2.9c-0.5-0.2-1.2-0.3-1.7-0.3
		c-2.9,0-4.7,2.6-4.7,7v7.7h-3.2v-17H130z"/>
	<path class="st0" d="M153.2,18.1c-1.2-0.5-2.4-0.7-3.4-0.7c-3.5,0-5.5,3.2-5.5,6.4c0,3.1,1.6,6.4,5.7,6.4c1.1,0,2.4-0.3,3.4-1
		l0.2,2.9c-1.3,0.6-2.9,0.7-3.9,0.7c-5.2,0-8.7-4-8.7-8.9c0-5.2,3.5-8.9,8.7-8.9c1.3,0,2.9,0.3,3.8,0.6L153.2,18.1z"/>
	<path class="st0" d="M156.6,7.2h3.2v10.5h0.1c1.2-1.8,3.1-2.9,5.5-2.9c4.4,0,6.4,2.8,6.4,7.3v10.2h-3.2v-8.8c0-4-0.8-5.9-3.6-6.1
		c-3.6,0-5.2,2.9-5.2,7v7.9h-3.2L156.6,7.2L156.6,7.2z"/>
	<path class="st0" d="M189.4,31.5c-1.2,0.4-2.5,1.1-5.4,1.1c-6,0-8.8-3.7-8.8-9.2c0-5.1,3.2-8.7,8-8.7c5.7,0,7.5,4.1,7.5,9.6h-12.2
		c0,3.4,2.6,5.7,5.6,5.7c2.1,0,4.4-1.1,5.3-1.7v3.2H189.4z M187.4,22c0-2.6-1.6-4.8-4.2-4.8c-3.1,0-4.3,2.5-4.6,4.8H187.4z"/>
	<path class="st0" d="M194.2,15.1h3v2.6h0.1c0.8-1.8,2.6-3.1,4.4-3.1c1,0,1.4,0.1,2.1,0.2v2.9c-0.5-0.2-1.2-0.3-1.7-0.3
		c-2.9,0-4.7,2.6-4.7,7v7.7h-3.2v-17H194.2z"/>
	<path class="st0" d="M90.7,37.9h3.4v10.3l10-10.3h4.4l-10.9,11l11.9,12.3h-4.9L94.1,49.8v11.4h-3.4C90.7,61.2,90.7,37.9,90.7,37.9z
		"/>
	<path class="st0" d="M112.6,45.4c1.6-1,3.5-1.6,5.6-1.6c4.9,0,6.9,2.4,6.9,7.1V58c0,1.9,0.1,2.9,0.1,3.4h-3v-2.2h-0.1
		c-0.7,1.1-2.4,2.6-5.3,2.6c-3.7,0-6.2-1.6-6.2-5.3c0-4.2,4.7-5.6,7.9-5.6c1.3,0,2.1,0,3.4,0.1c0-3-1.1-4.4-4.2-4.4
		c-1.8,0-3.7,0.6-5,1.7L112.6,45.4z M122.1,53.1c-0.6,0-1.4-0.1-2-0.1c-1.7,0-5.9,0.3-5.9,3.3c0,1.8,1.7,2.8,3.2,2.8
		c3.1,0,4.8-1.9,4.8-4.4V53.1z"/>
	<path class="st0" d="M129.8,44.1h3.1v2.8h0.1c1-1.9,3.2-3.1,5.6-3.1c4.4,0,6.4,2.8,6.4,7.3v10.2h-3.2v-8.8c0-4-0.8-5.9-3.6-6.1
		c-3.6,0-5.2,2.9-5.2,7v7.9h-3.2V44.1z"/>
	<path class="st0" d="M158.5,46.7h-4.6V56c0,2,1.2,3.1,2.6,3.1c1,0,1.7-0.3,2.1-0.6v2.6c-0.7,0.2-1.7,0.4-2.6,0.4
		c-3.3,0-5.3-1.6-5.3-5v-10h-3.8V44h3.8v-3.8l3.2-1v5h4.6V46.7z"/>
	<path class="st0" d="M169.3,43.7c5.2,0,8.7,3.7,8.7,8.9c0,4.9-3.5,8.9-8.7,8.9s-8.7-4-8.7-8.9C160.6,47.5,164.1,43.7,169.3,43.7z
		 M169.3,59.1c3.7,0,5.3-3.4,5.3-6.4c0-3.3-2-6.4-5.3-6.4c-3.4,0-5.4,3.2-5.4,6.4C163.9,55.8,165.6,59.1,169.3,59.1z"/>
	<path class="st0" d="M181.4,44.1h3.1v2.8h0.1c1-1.9,3.2-3.1,5.6-3.1c4.4,0,6.4,2.8,6.4,7.3v10.2h-3.2v-8.8c0-4-0.8-5.9-3.6-6.1
		c-3.6,0-5.2,2.9-5.2,7v7.9h-3.2L181.4,44.1L181.4,44.1z"/>
	<path class="st0" d="M201.9,45.4c1.6-1,3.5-1.6,5.6-1.6c4.9,0,6.9,2.4,6.9,7.1V58c0,1.9,0.1,2.9,0.1,3.4h-3v-2.2h-0.1
		c-0.7,1.1-2.4,2.6-5.3,2.6c-3.7,0-6.2-1.6-6.2-5.3c0-4.2,4.7-5.6,7.9-5.6c1.3,0,2.1,0,3.4,0.1c0-3-1.1-4.4-4.2-4.4
		c-1.8,0-3.7,0.6-5,1.7L201.9,45.4z M211.2,53.1c-0.6,0-1.4-0.1-2-0.1c-1.7,0-5.9,0.3-5.9,3.3c0,1.8,1.7,2.8,3.2,2.8
		c3.1,0,4.8-1.9,4.8-4.4V53.1z"/>
	<path class="st0" d="M219.3,36.1h3.2v25.1h-3.2V36.1z"/>
	<path class="st0" d="M227.5,36.1h3.2v10.4h0.1c1-1.6,2.6-2.8,5.6-2.8c5,0,7.3,4,7.3,8.7s-2.2,9.2-7.3,9.2c-3.1,0-5-1.6-5.8-2.9
		h-0.1v2.4h-3V36.1z M235.7,46.3c-3.4,0-5.1,3.3-5.1,6.5c0,2.9,1.5,6.4,5,6.4c3.4,0,4.8-3.8,4.8-6.5
		C240.5,49.5,239.1,46.3,235.7,46.3z"/>
	<path class="st0" d="M248,45.4c1.6-1,3.5-1.6,5.6-1.6c4.9,0,6.9,2.4,6.9,7.1V58c0,1.9,0.1,2.9,0.1,3.4h-3v-2.2h-0.1
		c-0.7,1.1-2.4,2.6-5.3,2.6c-3.7,0-6.2-1.6-6.2-5.3c0-4.2,4.7-5.6,7.9-5.6c1.3,0,2.1,0,3.4,0.1c0-3-1.1-4.4-4.2-4.4
		c-1.8,0-3.7,0.6-5,1.7L248,45.4z M257.3,53.1c-0.6,0-1.4-0.1-2-0.1c-1.7,0-5.9,0.3-5.9,3.3c0,1.8,1.7,2.8,3.2,2.8
		c3.1,0,4.8-1.9,4.8-4.4V53.1z"/>
	<path class="st0" d="M265.1,44.1h3.1v2.8h0.1c1-1.9,3.2-3.1,5.6-3.1c4.4,0,6.4,2.8,6.4,7.3v10.2H277v-8.8c0-4-0.8-5.9-3.6-6.1
		c-3.6,0-5.2,2.9-5.2,7v7.9h-3.2V44.1z"/>
	<path class="st0" d="M284.8,36.1h3.2V51l6.9-6.9h4.2l-7.9,7.5l8.9,9.5h-4.6l-7.6-8.8v8.8h-3.2V36.1H284.8z"/>
</g>
</svg>
