<svg id="Layer_1" data-name="Layer 1" xmlns="http://www.w3.org/2000/svg" viewBox="0 0 252 252"><defs><style>.cls-1{fill:#a4ddf1;}.cls-1,.cls-2,.cls-3{fill-rule:evenodd;}.cls-2{fill:#ed1c24;}.cls-3,.cls-4{fill:#344da1;}</style></defs><title>Artboard 1</title><path class="cls-1" d="M74,173.27a236.39,236.39,0,0,1-41.7-.77,195.46,195.46,0,0,0,79.22-13.86c.89,2.14,2.56,4.11,3.41,5.94-7.61,2.48-15.24,4.93-23.88,6.38a30,30,0,0,0,5.83,6c10.54,8.87,25.63,15.12,45.55,14.2a68.45,68.45,0,0,0,15.4-2.64,27.59,27.59,0,0,0,4.51-1.42c1.78-.89,4-3.19,5.61-4.62,12.16-11.06,22.34-26.78,22.34-49.29,0-23.63-10.36-39.45-23.1-50.61-12.44-10.9-31.91-19.94-56-14.86a316.62,316.62,0,0,1,27.51,31.14,166.61,166.61,0,0,0,17.72-17.06c.59-.66,1.79-2.45,2.42-2.53s2.26,1,3,1.43a32,32,0,0,1,6.61,6.6,154.44,154.44,0,0,1-22.89,21.23c4.51,6.79,8.66,14,12.87,21a179.31,179.31,0,0,0,20.46-19.48c.57-.62,2.32-2.81,2.87-2.76s1.38,2.13,1.65,2.76a28,28,0,0,1,2,6.82,12.65,12.65,0,0,1,.33,4c-.17.69-1.73,1.92-2.53,2.64-6.16,5.53-13,11-19.48,16,1.47,4.57,3.76,8.71,5.84,13.64,1.35,3.22,2.5,7.2,3.75,10.9a16.79,16.79,0,0,1,1.2,3.63c.07,1.77-1.42,3.91-2.3,5.17a15.69,15.69,0,0,1-3.52,3.85c-11.45-44.34-31.78-79.78-58.21-109.14-3.48,1.37-7.86,1.63-11.23,3.19a15.24,15.24,0,0,0-3.08,2.42c-2.08,1.79-3.63,3.2-5.72,5.28-.73.74-2.42,2.21-2.53,2.87-.17,1,1.22,4.46,1.54,5.61a217.85,217.85,0,0,0,13.42,36.19c1.71,0,3.14-1.09,4.51-1.86,9.37-5.33,18-11.64,26.52-18,2,3.12,3.84,6.43,5.72,9.68-9.64,7.34-20.91,13-32.78,18.15a30.72,30.72,0,0,0,3.08,6.27,193.85,193.85,0,0,0,10.45,17.28c11.31-4.89,21.28-11.73,30.47-18.38,1.55,2.67,2.41,6,3.64,9-8.62,6.59-19.22,11.22-29.6,16.05a223.39,223.39,0,0,0,18.59,23.21,27.76,27.76,0,0,1,2.65,3.08A37.79,37.79,0,0,1,137,188a12,12,0,0,1-3-.22,11.62,11.62,0,0,1-2.2-2.64c-20.28-28.57-36.69-62.25-44.34-103a8.37,8.37,0,0,0-2,2c-9,11.28-15.26,26.82-13.86,48-3.85,1.24-8,2.24-11.78,3.51a60.68,60.68,0,0,1,5.39-31.35A66.52,66.52,0,0,1,80.86,82.62c6.45-6,14.52-10.27,22.78-14.64a64,64,0,0,1,29.16-8.14,67.09,67.09,0,0,1,36.75,8.69,61.46,61.46,0,0,1,22.78,22.34c1.4,2.45,3,4.65,4.18,7.15a64.51,64.51,0,0,1,5.94,27.61c0,14.1-3.7,26.2-9.68,35.43a72.14,72.14,0,0,1-30.26,26.19c-2.46,1.13-4.73,2.85-7.15,4.07-9.76,4.9-23.11,7.89-38,6.27C97.14,195.38,84.76,185.38,74,173.27Z"/><path class="cls-1" d="M99,133.66a157,157,0,0,1-25,6.49c-.59,2.33.46,4.68,1.21,6.71a70.11,70.11,0,0,0,8.8,16.72c-4.52,1.35-9.55,2.19-14.42,3.2a41,41,0,0,1-5.83-11.12,68.55,68.55,0,0,1-3.63-13.31c-6.63.41-12.3.77-19.26.77-1.94,0-5.34-.28-6.71-.1,5.92-.72,11.61-1.17,17.27-2.2,5.44-1,10.78-2,16-3.41A204.75,204.75,0,0,0,96.15,127C97.07,129.23,98.19,131.31,99,133.66Z"/><path class="cls-2" d="M114.93,120.86c2.73-2.28,6.83-4.55,8.35-4.55s3.95.15,5.62,1.67c0,0,7.44,6.75,8.42,7.29s3.72,1,4.63-.68,12.67-25,18.82-36.51,17.76-31.65,19.2-34a35.53,35.53,0,0,1,10.4-10.63A136.57,136.57,0,0,1,207,34.71c2.5-1.06,3.95-1.21,4.93-.53s-.61,2.5-1,3-11.08,16-16.09,24.59-22.54,38.63-32.41,59.58-10,21.56-10.55,22.16a38.48,38.48,0,0,1-8.8,5.16c-3.42,1.29-7.06,3.26-9.87,3.49s-4.33-1-6.83-2.73-15.12-10.77-17.46-16.93c-1.67-4.4-.53-5.24.46-6.53A68.56,68.56,0,0,1,114.93,120.86Z"/><path class="cls-3" d="M31.7,73c2.23,1.06,4.84,2,6.83,3.13-.9,1.5-2.25,1.84-3.34,2.6a14,14,0,0,0-4.33,4.58,9.78,9.78,0,0,0-.92,7.86c1.44,4.3,8,7.81,12.75,6.76,6.31-1.4,8-9.31,7-14.49-.13-.67-.73-1.44-.22-2.39,2.09.33,4.61,1.95,6.87,2.78a32,32,0,0,1-.92,8.12c-3.28,11.86-11.66,16.91-20.44,14.4C25,103.52,20,95.09,23.65,85A27.31,27.31,0,0,1,31.7,73Z"/><path class="cls-3" d="M15.8,138.67v-19.8h5.51v5.59H41.19c.23-1.63,0-3.76.1-5.59h5.39v19.91H41.29v-5.47c-6.41-.27-13.28,0-19.88-.12-.24,1.63,0,3.76-.1,5.59A51.82,51.82,0,0,1,15.8,138.67Z"/><path class="cls-3" d="M48.77,49.45l7.55-6.58c9.9,4.95,19.79,10.08,29.7,15-1.95,2-4.57,4-6.79,6-1.94-1.06-3.9-2-5.85-3.17L64,68.88c.57,2.1,1.48,4.2,2.25,6.31L59.56,81C55.91,70.48,52.26,60,48.77,49.45Zm13,13.9L68,57.92a115.74,115.74,0,0,0-10.31-5.46C59.17,56.09,60.43,59.72,61.8,63.35Z"/><path class="cls-3" d="M82.34,25.51l9.72-2.9c5.85,4.14,11.27,9,17.06,13.24L104.1,19l7.7-2.29,8.82,29.59-7.92,2.36c-6.82-5.05-13.25-10.76-20-16l6,20.16-7.82,2.33L82.21,25.88A.31.31,0,0,1,82.34,25.51Z"/><path class="cls-3" d="M135.16,14.72l10,1.55c3.5,6.26,6.31,13,9.74,19.28l2.68-17.36,7.94,1.23-4.71,30.52-4.14-.64c-1.23-.19-3-.11-4-.62-.51-.25-1.13-1.91-1.57-2.8-3.19-6.63-6.5-14.07-9.71-20.23l-3.21,20.8-7.94-1.23L134.88,15A.29.29,0,0,1,135.16,14.72Z"/><path class="cls-4" d="M54,205.94l-3-3.51,2.28-3.52L49.11,194l-3.85,1.69-2.91-3.43,19.3-8L65,188.18Zm1.38-10.22,4.05-6.24-6.81,3Z"/><path class="cls-4" d="M62,213.43A9.89,9.89,0,0,1,60,211a6.32,6.32,0,0,1-.54-5.61,11,11,0,0,1,4.65-5.36,6.8,6.8,0,0,1,2.94-.81,6.59,6.59,0,0,1,2.76.54,9.37,9.37,0,0,1,2.47,1.54,8.63,8.63,0,0,1,1.65,1.86,10.7,10.7,0,0,1,1,2l-2.67,3.11-.45-.38c0-.23,0-.5-.08-.81a5.28,5.28,0,0,0-.23-1,5.14,5.14,0,0,0-.47-1,4.11,4.11,0,0,0-.88-1,3,3,0,0,0-2.75-.75,5.5,5.5,0,0,0-2.85,1.93,5.08,5.08,0,0,0-1.44,3.1,3.19,3.19,0,0,0,1.25,2.55,4.53,4.53,0,0,0,1.21.77,4.25,4.25,0,0,0,1.11.31,5.18,5.18,0,0,0,.89,0l.8-.07.45.39-2.67,3.11a10.57,10.57,0,0,1-2.12-.7A8.49,8.49,0,0,1,62,213.43Z"/><path class="cls-4" d="M74.88,222.63a9.88,9.88,0,0,1-2.39-2.06,6.32,6.32,0,0,1-1.35-5.47,11,11,0,0,1,3.83-6,6.78,6.78,0,0,1,2.79-1.23,6.62,6.62,0,0,1,2.81.13,9.36,9.36,0,0,1,2.66,1.16,8.61,8.61,0,0,1,1.9,1.6,10.66,10.66,0,0,1,1.31,1.86l-2.19,3.47-.5-.32c-.05-.22-.12-.49-.2-.79a5.28,5.28,0,0,0-.38-1,5.12,5.12,0,0,0-.62-1,4.11,4.11,0,0,0-1-.87,3,3,0,0,0-2.83-.34,5.5,5.5,0,0,0-2.53,2.33,5.08,5.08,0,0,0-1,3.27,3.19,3.19,0,0,0,1.61,2.35,4.52,4.52,0,0,0,1.31.58,4.22,4.22,0,0,0,1.15.15,5.19,5.19,0,0,0,.89-.1l.78-.19.5.32L79.25,224a10.47,10.47,0,0,1-2.2-.38A8.45,8.45,0,0,1,74.88,222.63Z"/><path class="cls-4" d="M95.78,221l-.34-.15a3.36,3.36,0,0,0-.72-.5q-.52-.29-.88-.45a8.41,8.41,0,0,0-1.49-.52,8.16,8.16,0,0,0-1.53-.19l-4.1,9.18-3.83-1.71L89,212.95l3.83,1.71-.9,2a8.74,8.74,0,0,1,2.93-.67,4.71,4.71,0,0,1,1.9.36l.45.21.43.23Z"/><path class="cls-4" d="M109.68,228.95l-9.24-2.5a3.65,3.65,0,0,0,.42,2.91,4.69,4.69,0,0,0,2.81,1.73,6.33,6.33,0,0,0,2.62.14,7.74,7.74,0,0,0,2.2-.62l.45.12-1,3.73a14,14,0,0,1-2.83.22,12.26,12.26,0,0,1-2.76-.44,8.29,8.29,0,0,1-5.28-3.53,7.7,7.7,0,0,1-.51-6.13A8.4,8.4,0,0,1,100,219.4a7,7,0,0,1,5.81-.68,6,6,0,0,1,4.14,3,7.9,7.9,0,0,1,.16,5.56Zm-3.28-3.81a3.71,3.71,0,0,0,0-2.36,2.32,2.32,0,0,0-1.65-1.24,2.82,2.82,0,0,0-2.11.18,3.31,3.31,0,0,0-1.45,2Z"/><path class="cls-4" d="M125.62,237.28l-4.18-.37.14-1.56a9.07,9.07,0,0,1-2.15,1.31,4.71,4.71,0,0,1-2.2.29,4.39,4.39,0,0,1-3.6-2.44,10,10,0,0,1-.92-5.8,10.91,10.91,0,0,1,.78-3.33A8,8,0,0,1,115,223a5.49,5.49,0,0,1,2-1.38,5,5,0,0,1,2.29-.35,5.38,5.38,0,0,1,1.89.46,11.77,11.77,0,0,1,1.47.86l.57-6.36,4.18.37Zm-3.81-4.49.65-7.35a3.76,3.76,0,0,0-.9-.39,4.8,4.8,0,0,0-.88-.17,2.81,2.81,0,0,0-2.57,1A5.69,5.69,0,0,0,117,229a6,6,0,0,0,.37,3.25,2.36,2.36,0,0,0,2,1.18,3.3,3.3,0,0,0,1.22-.14A4.06,4.06,0,0,0,121.81,232.8Z"/><path class="cls-4" d="M134.85,219.93l-4.43.11-.09-3.65,4.43-.11Zm.31,17.14-4.19.1-.37-15,4.19-.1Z"/><path class="cls-4" d="M148.36,235.78a11,11,0,0,1-1.39.46,13,13,0,0,1-1.83.31,5.09,5.09,0,0,1-3.73-.74q-1.31-1-1.6-3.74l-.75-7-1.71.18L137,222l1.71-.18-.46-4.27,4.17-.45.46,4.27,3.88-.42.35,3.24-3.88.42.57,5.3q.08.79.16,1.37a3.2,3.2,0,0,0,.3,1,1.43,1.43,0,0,0,.65.68,2.16,2.16,0,0,0,1.22.14,3.1,3.1,0,0,0,.83-.25,3.16,3.16,0,0,0,.7-.37l.35,0Z"/><path class="cls-4" d="M163.32,225.92l-9.32,2.2a3.65,3.65,0,0,0,1.76,2.36,4.69,4.69,0,0,0,3.3.18,6.29,6.29,0,0,0,2.37-1.12,7.8,7.8,0,0,0,1.64-1.6l.45-.11.89,3.76a14,14,0,0,1-2.38,1.54,12.16,12.16,0,0,1-2.64.92,8.29,8.29,0,0,1-6.33-.59,7.69,7.69,0,0,1-3.36-5.15,8.39,8.39,0,0,1,.58-6.18,7,7,0,0,1,4.79-3.36,6,6,0,0,1,5.08.7,7.9,7.9,0,0,1,2.78,4.81Zm-4.7-1.79a3.71,3.71,0,0,0-1.15-2.06,2.33,2.33,0,0,0-2-.3,2.81,2.81,0,0,0-1.77,1.16,3.3,3.3,0,0,0-.32,2.45Z"/><path class="cls-4" d="M181.24,226l-3.88,1.6-.6-1.45a9.12,9.12,0,0,1-1.29,2.16,4.71,4.71,0,0,1-1.82,1.27,4.39,4.39,0,0,1-4.33-.5,10,10,0,0,1-3.49-4.71A11,11,0,0,1,165,221a8.1,8.1,0,0,1,.25-2.84A5.52,5.52,0,0,1,166.4,216a5.05,5.05,0,0,1,1.87-1.37,5.43,5.43,0,0,1,1.88-.47,12,12,0,0,1,1.7.09l-2.44-5.9,3.88-1.6Zm-5.46-2.22L173,216.94a3.65,3.65,0,0,0-1,.07,4.75,4.75,0,0,0-.86.26,2.8,2.8,0,0,0-1.83,2,5.69,5.69,0,0,0,.49,3.35,6,6,0,0,0,1.84,2.71,2.36,2.36,0,0,0,2.34.11,3.39,3.39,0,0,0,1-.69A4,4,0,0,0,175.78,223.75Z"/><path class="cls-4" d="M208,208.29l-4.34,3.29-8.16-3-1.65,1.25,4.41,5.81-3.54,2.68-12-15.85,6-4.53a15,15,0,0,1,2.22-1.43A5.25,5.25,0,0,1,193,196a4.88,4.88,0,0,1,2.28.44,5.55,5.55,0,0,1,2.07,1.78,6.57,6.57,0,0,1,1.46,3.4,7,7,0,0,1-.62,3.38Zm-13.89-6.79a2.84,2.84,0,0,0-1-.86,1.88,1.88,0,0,0-1.24-.12,3,3,0,0,0-1,.43q-.51.33-1.15.81l-1.29,1,3.24,4.27,1.09-.83a11.36,11.36,0,0,0,1.35-1.18,2.38,2.38,0,0,0,.63-1.17,2.6,2.6,0,0,0,0-1.14A3.46,3.46,0,0,0,194.07,201.49Z"/><path class="cls-4" d="M214.52,191.6l-6.54,7a3.66,3.66,0,0,0,2.77,1,4.7,4.7,0,0,0,2.85-1.68,6.28,6.28,0,0,0,1.35-2.25,7.77,7.77,0,0,0,.48-2.24l.32-.34,2.82,2.64a14,14,0,0,1-1.13,2.6,12.08,12.08,0,0,1-1.68,2.23,8.29,8.29,0,0,1-5.59,3,7.69,7.69,0,0,1-5.66-2.42,8.4,8.4,0,0,1-2.95-5.47,7,7,0,0,1,2.12-5.45,6,6,0,0,1,4.62-2.23,7.89,7.89,0,0,1,5,2.46Zm-4.9,1.12a3.7,3.7,0,0,0-2.1-1.08,2.32,2.32,0,0,0-1.87.88,2.81,2.81,0,0,0-.83,1.95,3.3,3.3,0,0,0,1.09,2.21Z"/><path class="cls-4" d="M227.95,180.44a10.5,10.5,0,0,1,2.71,2.36,5.3,5.3,0,0,1,1.11,2.45,5.68,5.68,0,0,1-.22,2.56,11.23,11.23,0,0,1-1.32,2.73,19,19,0,0,1-1.6,2.15,18.58,18.58,0,0,1-1.62,1.68l-3.16-2,.28-.43a11.71,11.71,0,0,0,1.54-1.23,7.87,7.87,0,0,0,1.31-1.5,6,6,0,0,0,.81-1.72,2.43,2.43,0,0,0,0-1.31,2.64,2.64,0,0,0-.64-1,6.88,6.88,0,0,0-1.26-1l-.24-.15a6.11,6.11,0,0,1,0,2,4.92,4.92,0,0,1-.76,1.94,5.05,5.05,0,0,1-3.88,2.53q-2.4.23-5.66-1.87a10.17,10.17,0,0,1-2.45-2.11,7.38,7.38,0,0,1-1.29-2.35,5.28,5.28,0,0,1-.21-2.37,5.38,5.38,0,0,1,.8-2.21,6.07,6.07,0,0,1,1.28-1.46,5.81,5.81,0,0,1,1.52-.89l-.48-.49,2.2-3.42Zm-4.8,1.9-5.72-3.68a3.69,3.69,0,0,0-.71.59,5.09,5.09,0,0,0-.59.74,2.9,2.9,0,0,0-.42,2.67,4.94,4.94,0,0,0,2.11,2.34,4.87,4.87,0,0,0,2.92,1,2.53,2.53,0,0,0,1.84-1.29,3.42,3.42,0,0,0,.47-1.16A4.39,4.39,0,0,0,223.15,182.34Z"/><path class="cls-4" d="M217,165.53l-1.25,4.25-3.5-1,1.25-4.25Zm16.42,4.94-1.18,4-14.4-4.22,1.18-4Z"/><path class="cls-4" d="M231.23,152.67a4.53,4.53,0,0,1,3.54,2.2,7.84,7.84,0,0,1,.89,5.09,12.47,12.47,0,0,1-.71,3.1,11,11,0,0,1-1.07,2.18l-3.93-.42,0-.38c.19-.19.4-.41.63-.66a7.07,7.07,0,0,0,.77-1.09,8.79,8.79,0,0,0,.68-1.41,6.83,6.83,0,0,0,.41-1.73,4.07,4.07,0,0,0-.12-1.85,1,1,0,0,0-.86-.69.91.91,0,0,0-.83.26,4.13,4.13,0,0,0-.61,1.27q-.17.45-.39,1.23a11.66,11.66,0,0,1-.49,1.4,5,5,0,0,1-1.93,2.45,4.51,4.51,0,0,1-2.89.56,4.44,4.44,0,0,1-3.39-2.15,7.57,7.57,0,0,1-.91-5,11.34,11.34,0,0,1,.64-2.76,10.24,10.24,0,0,1,.95-2l3.77.4,0,.36a8.08,8.08,0,0,0-1.41,2,6.64,6.64,0,0,0-.71,2.35,4,4,0,0,0,.14,1.73,1,1,0,0,0,.83.78,1,1,0,0,0,.84-.22,3.93,3.93,0,0,0,.71-1.41c.14-.41.29-.86.43-1.34s.31-1,.51-1.44a4.55,4.55,0,0,1,1.81-2.26A4.31,4.31,0,0,1,231.23,152.67Z"/><path class="cls-4" d="M235.73,140.61a10.66,10.66,0,0,1,.33,1.43,12.85,12.85,0,0,1,.14,1.85,5.09,5.09,0,0,1-1.09,3.64q-1.12,1.21-3.87,1.24l-7,.09,0,1.72-3.26,0,0-1.72-4.29.05-.05-4.2,4.29-.05,0-3.9,3.26,0,0,3.9,5.33-.06,1.38,0a3.2,3.2,0,0,0,1.05-.2,1.45,1.45,0,0,0,.74-.58,2.18,2.18,0,0,0,.26-1.2,3.13,3.13,0,0,0-.17-.85,3.24,3.24,0,0,0-.3-.73v-.35Z"/><path class="cls-4" d="M224.17,128.67l0,.37a3.34,3.34,0,0,0-.06.87q0,.59.06,1a8.29,8.29,0,0,0,.31,1.55,8.07,8.07,0,0,0,.62,1.41l10-1.12.47,4.17-14.91,1.67-.47-4.17,2.19-.25a8.67,8.67,0,0,1-2.07-2.18,4.7,4.7,0,0,1-.65-1.82c0-.15,0-.31,0-.5s0-.35,0-.49Z"/><path class="cls-4" d="M230.38,116.26l.89.64a5.94,5.94,0,0,1,.87.75,5.36,5.36,0,0,1,.77,1.12,6.38,6.38,0,0,1,.51,1.37,4.11,4.11,0,0,1-.52,3.34,4.71,4.71,0,0,1-3,2,5.08,5.08,0,0,1-2.76,0,4.45,4.45,0,0,1-2-1.35,9.23,9.23,0,0,1-1.54-2.58q-.67-1.6-1.24-3.37l-.08,0a1.78,1.78,0,0,0-1.45,1.28,5.66,5.66,0,0,0,.18,2.64,6.53,6.53,0,0,0,1,2q.7,1,1,1.47l.09.37-3.51.89q-.36-.59-1-2a16.59,16.59,0,0,1-1-2.83q-.88-3.46,0-5.31a4.76,4.76,0,0,1,3.45-2.51l9.9-2.51,1,4Zm-2.26.58-3,.77q.29.8.66,1.73a7.91,7.91,0,0,0,.69,1.37,2,2,0,0,0,.88.77,1.83,1.83,0,0,0,1.19,0,3.36,3.36,0,0,0,.72-.25,1.15,1.15,0,0,0,.46-.48,1.65,1.65,0,0,0,.22-.72,3.93,3.93,0,0,0-.16-1.16,3.07,3.07,0,0,0-.6-1.16A3.88,3.88,0,0,0,228.12,116.83Z"/><path class="cls-4" d="M215.37,101.91l.15.34a3.35,3.35,0,0,0,.21.85c.13.37.25.68.36.92a8.26,8.26,0,0,0,.77,1.38,8.08,8.08,0,0,0,1,1.15l9.15-4.17,1.74,3.82-13.66,6.22-1.74-3.82,2-.91a8.65,8.65,0,0,1-2.64-1.43,4.69,4.69,0,0,1-1.19-1.52c-.06-.13-.13-.29-.2-.46s-.12-.33-.17-.46Z"/></svg>