<?xml version="1.0" encoding="UTF-8"?>
<svg width="91px" height="44px" viewBox="0 0 91 44" version="1.1" xmlns="http://www.w3.org/2000/svg" xmlns:xlink="http://www.w3.org/1999/xlink">
    <!-- Generator: Sketch 47.1 (45422) - http://www.bohemiancoding.com/sketch -->
    <title>Moniker_logo_2012</title>
    <desc>Created with Sketch.</desc>
    <defs>
        <polygon id="path-1" points="0 10.4334028 0 20.7530556 35.9459028 20.7530556 35.9459028 0.11375 0 0.11375"></polygon>
        <polygon id="path-3" points="25.3959486 20.7530556 0.0482083333 20.7530556 0.0482083333 0.11375 25.3959486 0.11375"></polygon>
    </defs>
    <g id="Page-1" stroke="none" stroke-width="1" fill="none" fill-rule="evenodd">
        <g id="Desktop-HD" transform="translate(-640.000000, -315.000000)">
            <g id="Moniker_logo_2012" transform="translate(640.000000, 315.000000)">
                <path d="M7.59019444,5.69725 C11.1086806,9.47356944 17.5073889,7.17961111 17.5073889,7.17961111 C17.5073889,7.17961111 12.4939028,8.95970833 10.2501389,8.19415278 L10.5643056,8.54569444 C13.7633889,11.2883333 16.1723611,12.6694028 19.0426528,13.7070556 L19.9447083,13.9045833 C21.6932083,14.171625 23.3066528,13.3107361 24.4076806,12.5608889 C24.4076806,12.5608889 28.6982222,10.0296806 30.9206806,9.54633333 C32.2190556,9.26376389 33.618,8.90138889 33.618,8.90138889 L33.6860694,8.90391667 C33.6860694,8.90391667 27.1871528,10.2979861 22.8345,14.8763333 L23.4467639,15.0514722 C28.9123611,16.1322778 32.6993333,14.9388056 32.6993333,14.9388056 C35.9034722,11.4457778 39.0010833,11.05975 39.0010833,11.05975 C34.5043472,13.8105139 34.8177917,15.6864861 34.8177917,15.6864861 C39.2646944,9.85634722 45.5664444,14.8277639 45.5664444,14.8277639 C43.9537222,14.1467083 43.0587083,14.8548472 43.0587083,14.8548472 C46.4419583,14.2460139 48.8348611,18.1559444 48.8348611,18.1559444 C49.7609306,19.235125 49.2263056,19.8130833 49.8134722,18.9574306 C50.3040417,18.9438889 49.6598194,18.369 49.6598194,18.369 L46.3583611,14.6751944 C44.9948056,12.3315833 43.3916528,10.4510972 41.6718611,8.94381944 L41.6169722,9.23866667 C41.5494444,10.0264306 42.5890833,11.4748472 42.5890833,11.4748472 C40.3222083,9.64329167 40.5670417,8.03706944 40.5670417,8.03706944 C39.4521111,7.18123611 38.3016111,6.46280556 37.1446111,5.86751389 L36.8237639,5.70952778 C36.0029583,7.22583333 38.884625,9.80705556 38.884625,9.80705556 L37.9834722,9.40044444 C37.9834722,9.40044444 35.3498889,6.83565278 36.0464722,5.305625 L35.7546944,5.17327778 C35.7546944,5.17327778 34.3701944,4.63522222 33.6978056,4.40970833 L32.9335139,4.10818056 C33.5925417,7.11334722 36.41625,8.96043056 36.41625,8.96043056 L35.8482222,8.779875 C35.8482222,8.779875 33.102875,6.91654167 32.4916944,4.15331944 L32.4575694,4.021875 L31.9830694,3.89259722 C26.8587222,2.53409722 22.683375,3.02105556 22.683375,3.02105556 C22.29175,3.040375 21.90825,3.0615 21.5419028,3.08081944 L20.9123056,3.09833333 C22.7409722,6.20569444 26.9773472,7.18015278 26.9773472,7.18015278 C26.9773472,7.18015278 22.2354167,6.93333333 19.3355139,3.1655 L19.2161667,3.16622222 L18.6524722,3.18518056 C17.0128472,3.23790278 16.1503333,3.21425 16.1503333,3.21425 L13.8989861,3.06095833 L12.6565833,2.91669444 C13.846625,4.83166667 17.7204444,6.35555556 17.7204444,6.35555556 C17.7204444,6.35555556 14.5172083,5.77145833 11.7063194,2.894125 L11.3755417,2.87047222 C10.5469722,2.78579167 9.79658333,2.67836111 9.11823611,2.55919444 C9.11823611,2.55919444 9.87656944,4.249375 11.3266111,5.21733333 C11.3266111,5.21733333 9.53893056,4.26020833 8.68923611,2.561 L8.64211111,2.46873611 C4.19918056,1.587625 3.10013889,0.091 3.10013889,0.091 C4.20441667,1.69523611 5.04544444,3.445 6.44854167,4.43047222 C8.14377778,5.62448611 9.90347222,5.57952778 9.90347222,5.57952778 C9.90347222,5.57952778 8.19830556,5.82652778 6.81741667,4.85459722 C6.45901389,4.60091667 7.40259722,5.50026389 7.69852778,5.81136111" id="Fill-1" fill="#FFFFFF"></path>
                <g id="Group-5" transform="translate(0.000000, 22.388889)">
                    <mask id="mask-2" fill="white">
                        <use xlink:href="#path-1"></use>
                    </mask>
                    <g id="Clip-3"></g>
                    <polyline id="Fill-2" fill="#FFFFFF" mask="url(#mask-2)" points="9.59111111 18.7416667 1.41411111 0.11375 0 0.11375 0 20.4598333 1.16097222 20.4598333 1.16097222 2.43190278 9.08934722 20.4598333 10.0952222 20.4598333 18.0226944 2.43190278 18.0226944 20.4598333 19.1838472 20.4598333 19.1838472 0.11375 17.7690139 0.11375 9.59111111 18.7416667"></polyline>
                    <path d="M34.4238194,15.5622639 C34.1880139,16.3511111 33.8294306,17.0570833 33.3569167,17.6599583 C32.8901806,18.2595833 32.3026528,18.7416667 31.6199722,19.0975417 C30.9365694,19.4516111 30.1415833,19.6310833 29.2568611,19.6310833 C28.3511944,19.6310833 27.5473611,19.4516111 26.8668472,19.0975417 C26.1821806,18.7416667 25.5975417,18.2595833 25.1280972,17.6599583 C24.6563056,17.0570833 24.2977222,16.3511111 24.0606528,15.5622639 C23.8221389,14.76475 23.7004444,13.9206528 23.7004444,13.0512778 C23.7004444,12.1985139 23.8221389,11.3638056 24.0606528,10.5677361 C24.2977222,9.77852778 24.6563056,9.07327778 25.1280972,8.47166667 C25.5979028,7.869875 26.1829028,7.38038889 26.869375,7.01711111 C27.5500694,6.65473611 28.3528194,6.472375 29.2568611,6.472375 C30.1415833,6.472375 30.9360278,6.65473611 31.6150972,7.01711111 C32.3010278,7.38038889 32.8876528,7.869875 33.3569167,8.47166667 C33.8294306,9.07327778 34.1880139,9.77852778 34.4238194,10.5677361 C34.6643194,11.36525 34.7854722,12.1992361 34.7854722,13.0512778 C34.7854722,13.9190278 34.6643194,14.76475 34.4238194,15.5622639 Z M34.2351389,7.69058333 C33.6665694,6.98118056 32.9586111,6.40015278 32.1338333,5.96970833 C31.302375,5.53204167 30.3335139,5.31086111 29.2568611,5.31086111 C28.159625,5.31086111 27.1831806,5.53204167 26.3502778,5.96970833 C25.5247778,6.40015278 24.8184444,6.98118056 24.2509583,7.69058333 C23.6854583,8.40016667 23.2526667,9.22891667 22.96775,10.1560694 C22.683375,11.0745556 22.5400139,12.0495556 22.5400139,13.0512778 C22.5400139,14.0537222 22.683375,15.026375 22.96775,15.9470278 C23.2526667,16.8743611 23.6854583,17.7016667 24.2509583,18.409625 C24.8184444,19.1237222 25.5274861,19.6995139 26.3528056,20.122375 C27.1864306,20.5475833 28.1534861,20.7624444 29.2286944,20.7624444 C30.3235833,20.7624444 31.2993056,20.5475833 32.1302222,20.122375 C32.9586111,19.6995139 33.6665694,19.1237222 34.2351389,18.409625 C34.7999167,17.7009444 35.23325,16.8729167 35.5174444,15.9470278 C35.8021806,15.0285417 35.9459028,14.0551667 35.9459028,13.0512778 C35.9459028,12.0481111 35.8021806,11.0734722 35.5174444,10.1560694 C35.23325,9.22963889 34.7995556,8.40016667 34.2351389,7.69058333 L34.2351389,7.69058333 Z" id="Fill-4" fill="#FFFFFF" mask="url(#mask-2)"></path>
                </g>
                <path d="M48.3516944,29.0974306 C47.8697917,28.6368333 47.2947222,28.2834861 46.6412917,28.0502083 C45.9938194,27.8185556 45.2761111,27.69975 44.5064028,27.69975 C43.7756944,27.69975 43.1000556,27.8042917 42.4998889,28.0081389 C41.9004444,28.2096389 41.3609444,28.5021389 40.9023333,28.8751667 C40.4437222,29.2422361 40.0598611,29.6779167 39.755625,30.1663194 C39.7144583,30.2302361 39.6781667,30.294875 39.6406111,30.3611389 L39.6406111,28.0321528 L38.4807222,28.0321528 L38.4807222,42.8487222 L39.6406111,42.8487222 L39.6406111,34.4992917 C39.6406111,33.7420417 39.7487639,33.0111528 39.9596528,32.3230556 C40.1674722,31.6443472 40.4816389,31.0409306 40.8878889,30.5292361 C41.29125,30.0227778 41.8013194,29.614 42.4038333,29.3121111 C43.0034583,29.01275 43.7101528,28.8612639 44.5064028,28.8612639 C45.0769583,28.8612639 45.6280139,28.9459444 46.1395278,29.1106111 C46.6412917,29.2707639 47.0874444,29.527875 47.4664306,29.8745417 C47.8466806,30.2204861 48.1498333,30.6680833 48.3715556,31.2010833 C48.5932778,31.7432917 48.7075694,32.4178472 48.7075694,33.2005556 L48.7075694,42.8487222 L49.8685417,42.8487222 L49.8685417,33.1171389 C49.8685417,32.25625 49.7365556,31.477875 49.4745694,30.81 C49.2118611,30.1363472 48.8330556,29.5601944 48.3516944,29.0974306" id="Fill-6" fill="#FFFFFF"></path>
                <polygon id="Fill-7" fill="#FFFFFF" points="52.3017083 42.8487222 53.4630417 42.8487222 53.4630417 28.0321528 52.3017083 28.0321528"></polygon>
                <g id="Group-11" transform="translate(56.694444, 22.388889)">
                    <mask id="mask-4" fill="white">
                        <use xlink:href="#path-3"></use>
                    </mask>
                    <g id="Clip-9"></g>
                    <polyline id="Fill-8" fill="#FFFFFF" mask="url(#mask-4)" points="12.363 5.64326389 10.6099861 5.64326389 1.20918056 13.4524722 1.20918056 0.11375 0.0482083333 0.11375 0.0482083333 20.4598333 1.20918056 20.4598333 1.20918056 14.9350139 4.53663889 12.18425 11.0964028 20.4598333 12.6211944 20.4598333 5.42009722 11.4089444 12.363 5.64326389"></polyline>
                    <path d="M13.52325,12.3052222 C13.5972778,11.4719583 13.767,10.7116389 14.0331389,10.0379861 C14.3317778,9.28380556 14.7264722,8.63127778 15.2078333,8.09936111 C15.6817917,7.57358333 16.2411528,7.16534722 16.8716528,6.88927778 C17.5021528,6.61194444 18.1922361,6.472375 18.9184306,6.472375 C19.7883472,6.472375 20.5616667,6.63451389 21.2190694,6.95247222 C21.8753889,7.27205556 22.4304167,7.713875 22.8691667,8.26511111 C23.3135139,8.82230556 23.6524167,9.48079167 23.8808194,10.2245 C24.0832222,10.8831667 24.1971528,11.583 24.2226111,12.3052222 L13.52325,12.3052222 Z M23.9358889,7.75991667 C23.4005417,7.02397222 22.7054028,6.42651389 21.8679861,5.98252778 C21.0244306,5.53727778 20.0136806,5.31086111 18.8622778,5.31086111 C18.032625,5.31086111 17.2094722,5.48726389 16.4191806,5.83284722 C15.6285278,6.18168056 14.9250833,6.69536111 14.3247361,7.36088889 C13.7316111,8.022625 13.2482639,8.83891667 12.8864306,9.79279167 C12.5260417,10.7426944 12.3407917,11.8386667 12.3407917,13.0512778 C12.3407917,14.1243194 12.4650139,15.1410278 12.7096667,16.072875 C12.9575694,17.0173611 13.3459444,17.8527917 13.8652222,18.5533472 C14.3904583,19.2618472 15.0742222,19.8208472 15.9011667,20.2104861 C16.6847778,20.5786389 17.6294444,20.7638889 18.7079028,20.7638889 L18.8622778,20.7624444 C20.5511944,20.7624444 21.99275,20.2785556 23.1486667,19.326125 C24.3114444,18.3671944 25.0100139,17.0038194 25.2201806,15.273375 L25.2611667,14.9312222 L24.1041667,14.9312222 L24.0639028,15.1885139 C23.8385694,16.6714167 23.2573611,17.7924861 22.3368889,18.5212083 C21.4111806,19.2569722 20.2249306,19.6310833 18.8090139,19.6310833 C17.8470139,19.6310833 17.0274722,19.4646111 16.375125,19.1367222 C15.7209722,18.8108194 15.182375,18.3594306 14.7698056,17.7928472 C14.3512778,17.2185 14.0378333,16.5318472 13.8366944,15.7538333 C13.6557778,15.0478611 13.5454583,14.2806806 13.5106111,13.4670972 L25.3778056,13.4670972 L25.3884583,13.1736944 C25.4254722,12.1721528 25.3252639,11.1949861 25.0887361,10.2665694 C24.8498611,9.33183333 24.4609444,8.48809722 23.9358889,7.75991667 L23.9358889,7.75991667 Z" id="Fill-10" fill="#FFFFFF" mask="url(#mask-4)"></path>
                </g>
                <path d="M90.3902639,27.6972222 C89.6055694,27.6972222 88.8967083,27.7983333 88.2880556,27.9915278 C87.6212639,28.2036806 87.0360833,28.4996111 86.552375,28.8675833 C86.0618056,29.2409722 85.6622361,29.6842361 85.3673889,30.1850972 C85.33525,30.2423333 85.3018472,30.3002917 85.2711528,30.3580694 L85.2711528,28.0321528 L84.1094583,28.0321528 L84.1094583,42.8487222 L85.2711528,42.8487222 L85.2711528,34.4992917 C85.2711528,33.7586528 85.3773194,33.0257778 85.5896528,32.3207083 C85.7976528,31.6244861 86.1235556,31.0064444 86.5576111,30.4770556 C86.9853472,29.9550694 87.5376667,29.5369028 88.2019306,29.2346528 C88.8638472,28.9345694 89.6676806,28.8098056 90.5897778,28.8612639 L90.9099028,28.8789583 L90.9099028,27.7073333 L90.3902639,27.6972222" id="Fill-12" fill="#FFFFFF"></path>
                <path d="M54.5248889,23.5857917 C54.1605278,23.4433333 54.3939861,23.1181528 54.3939861,23.1181528 C54.4338889,23.0784306 54.3939861,23.0499028 54.3939861,23.0499028 C54.0465972,22.9240556 54.2825833,22.6221667 54.2825833,22.6221667 C54.2352778,22.6692917 54.132,22.6450972 54.132,22.6450972 C53.795625,22.6162083 53.8781389,22.3343611 53.8781389,22.3343611 C53.9666111,22.046375 54.2459306,21.9665694 54.2459306,21.9665694 C54.3284444,21.9526667 54.2459306,21.8981389 54.2459306,21.8981389 C54.1489722,21.8981389 54.0805417,21.9837222 54.0805417,21.9837222 C53.9436806,22.1204028 53.7726944,22.1375556 53.7726944,22.1375556 C53.5332778,22.1947917 53.6414306,21.7840278 53.6414306,21.7840278 C53.6414306,21.68725 53.8526806,21.3626111 53.8526806,21.3626111 L54.1204444,20.9327083 C54.2096389,20.8436944 54.1489722,20.7353611 54.1489722,20.7353611 C54.0294444,20.6784861 53.9835833,20.90075 53.9835833,20.90075 C53.8692917,21.3909583 53.5847361,21.5790972 53.5847361,21.5790972 C53.4764028,21.5790972 53.4764028,21.619 53.4764028,21.619 C53.4249444,21.8298889 53.2994583,21.71 53.2994583,21.71 C53.2994583,21.619 53.2196528,21.6301944 53.2196528,21.6301944 C52.9975694,21.6760556 52.9090972,21.5536389 52.9090972,21.5536389 L52.6498194,21.294 C52.5125972,21.237125 52.5680278,20.9327083 52.5680278,20.9327083 C52.5680278,20.7485417 52.4618611,20.8265417 52.4618611,20.8265417 C52.416,20.53025 52.2276806,20.7012361 52.2276806,20.7012361 C52,20.9290972 51.8887778,20.632625 51.8887778,20.632625 C51.7307917,20.4746389 51.7802639,20.1398889 51.7802639,20.1398889 C51.7548056,20.0003194 51.6690417,20.0286667 51.6690417,20.0286667 C51.5838194,20.0286667 51.6690417,20.2108472 51.6690417,20.2108472 L51.7833333,20.6026528 C52.0718611,21.3626111 51.6313056,21.6513194 51.6313056,21.6513194 C51.3270694,21.9551944 51.1938194,21.7999167 51.1938194,21.7999167 L51.1132917,21.7193889 C50.9785972,21.7060278 50.8653889,21.5447917 50.8653889,21.5447917 L50.5860694,21.1515417 C50.4150833,20.8949722 50.1872222,21.0831111 50.1872222,21.0831111 C49.9591806,21.294 50.3298611,21.5790972 50.3298611,21.5790972 C50.5692778,21.7726528 50.5692778,21.6814722 50.8030972,22.0922361 C51.0365556,22.5024583 50.529375,22.5481389 50.529375,22.5481389 C50.4094861,22.5652917 50.5064444,22.6221667 50.5064444,22.6221667 C50.6319306,22.6335417 50.6377083,22.8332361 50.6377083,22.8332361 C50.6489028,22.9812917 50.4493889,23.0784306 50.4493889,23.0784306 C50.3580278,23.0950417 50.3925139,23.1696111 50.3925139,23.1696111 C50.5237778,23.3747222 50.3809583,23.6312917 50.3809583,23.6312917 C50.1700694,23.9050139 49.3091806,23.8932778 49.3091806,23.8932778 C48.9843611,23.9162083 48.140625,23.7909028 48.140625,23.7909028 C47.9181806,23.785125 47.9355139,23.9104306 47.9355139,23.9104306 C47.8670833,24.1444306 48.2377639,24.2413889 48.2377639,24.2413889 C48.6822917,24.3435833 49.3091806,24.1272778 49.3091806,24.1272778 C49.9933056,24.0189444 50.0162361,24.0474722 50.0162361,24.0474722 C50.2097917,24.0586667 50.0505417,24.1955278 50.0505417,24.1955278 L49.7253611,24.3719306 C49.4975,24.4977778 49.2750556,24.4121944 49.2750556,24.4121944 C49.1840556,24.3719306 49.19525,24.4465 49.19525,24.4465 C49.4061389,24.6285 49.6914167,24.5089722 49.6914167,24.5089722 L50.0444028,24.3780694 C50.5860694,24.1444306 50.609,24.4405417 50.609,24.4405417 C50.6263333,24.5149306 50.5463472,24.6456528 50.5463472,24.6456528 C50.6319306,24.6745417 50.7117361,24.8395694 50.7117361,24.8395694 C50.8428194,25.0733889 50.6319306,25.3700417 50.6319306,25.3700417 C50.5208889,25.4814444 50.5064444,25.5980833 50.5064444,25.5980833 C50.5064444,25.7235694 50.2870694,25.8799306 50.2870694,25.8799306 C50.2126806,26.0310556 50.3610972,25.9539583 50.3610972,25.9539583 C50.3657917,25.9490833 50.37175,25.943125 50.3809583,25.9340972 C50.4376528,25.8768611 50.529375,25.7860417 50.529375,25.7860417 C50.7059583,25.7235694 50.7857639,25.6152361 50.7857639,25.6152361 C50.8827222,25.4666389 51.0307778,25.3554167 51.0307778,25.3554167 C51.2416667,25.21025 51.2046528,25.3554167 51.2046528,25.3554167 C51.1732361,25.5009444 51.2985417,25.4498472 51.2985417,25.4498472 C51.3330278,25.4151806 51.4128333,25.4095833 51.4128333,25.4095833 C51.4695278,25.5294722 51.5950139,25.4095833 51.5950139,25.4095833 C51.8059028,25.2783194 51.9656944,25.5408472 51.9656944,25.5408472 C52.0566944,25.7062361 52.2164861,25.6434028 52.2164861,25.6434028 C52.4219583,25.6434028 52.3419722,25.7687083 52.3419722,25.7687083 C52.2450139,25.9340972 52.4389306,25.9566667 52.4389306,25.9566667 C52.6099167,25.9566667 52.5187361,25.792 52.5187361,25.792 C52.4670972,25.660375 52.5662222,25.6551389 52.5662222,25.6551389 L52.7810833,25.6551389 C52.8950139,25.6551389 52.85475,25.7288056 52.85475,25.7288056 C52.8265833,25.8145694 52.9118056,25.8768611 52.9118056,25.8768611 C52.9916111,25.8997917 52.9802361,26.0025278 52.9802361,26.0025278 C52.9118056,26.2190139 53.0486667,26.27625 53.0486667,26.27625 C53.1344306,26.3334861 53.1059028,26.2190139 53.1059028,26.2190139 C52.9975694,26.1355972 53.145625,26.0137222 53.145625,26.0137222 C53.2369861,25.9227222 53.1226944,25.8317222 53.1226944,25.8317222 C52.9858333,25.6950417 53.3054167,25.5468056 53.3054167,25.5468056 C53.493375,25.5468056 53.447875,25.4039861 53.447875,25.4039861 C53.4904861,25.2526806 53.6587639,25.30125 53.6587639,25.30125 C53.8808472,25.3758194 53.9436806,25.1188889 53.9436806,25.1188889 C53.9436806,24.9594583 54.0346806,24.8285556 54.0346806,24.8285556 C54.1034722,24.7940694 54.1516806,24.8114028 54.1830972,24.8368611 C54.1282083,24.7417083 54.132,24.6344583 54.132,24.6344583 C54.132,24.3780694 54.5422222,24.4235694 54.5422222,24.4235694 C54.6451389,24.4235694 54.5819444,24.3838472 54.5819444,24.3838472 C54.2515278,24.2125 54.257125,24.0072083 54.257125,24.0072083 C54.257125,23.6997222 54.5248889,23.6767917 54.5248889,23.6767917 C54.5248889,23.6767917 54.8901528,23.7284306 54.5248889,23.5857917" id="Fill-14" fill="#FFFFFF"></path>
                <path d="M55.6710556,20.6784861 C55.4942917,20.7183889 55.0210556,21.22575 55.0210556,21.22575 C54.9300556,21.3169306 54.9300556,21.3626111 54.9300556,21.3626111 C54.98675,21.4424167 55.1006806,21.2768472 55.1006806,21.2768472 C55.209375,21.1174167 55.6138194,20.9745972 55.6138194,20.9745972 C55.8135139,20.9406528 55.8364444,20.7638889 55.8364444,20.7638889 C55.8306667,20.632625 55.6710556,20.6784861 55.6710556,20.6784861" id="Fill-15" fill="#FFFFFF"></path>
            </g>
        </g>
    </g>
</svg>