<svg xmlns="http://www.w3.org/2000/svg" viewBox="0 0 40 40"><path d="M14.856 12.098c-2.238-3.213-6.81-4.185-6.81-4.185 5.04 3.113 4.874 10.079 4.774 10.647-.101.57-.968 2.479-3.204-.837-2.237-3.314-5.973-3.583-5.973-3.583 6.575 6.496 4.104 10.114 4.104 10.114-4.004-5.292-7.27-2.283-7.27-2.283 3.422.61 5.22 3.751 5.19 7.126-.02 2.303.55 4.015.55 4.015 4.06 8.784 11.657 5.934 11.657 5.934-8.467-1.658-9.018-8.406-9.018-8.406 1.451 3.316 4.784 2.298 4.784 2.298-2.928-1.803-2.61-7.884-2.61-7.884 3.046 8.03 7.423 6.66 7.423 6.66-6.001-4.828-3.247-10.326-3.247-10.326.55 4.249 2.435 4.218 2.435 4.218.84-4.072-1.334-7.243-1.334-7.243 3.335 1.658 4.524 8.117 4.524 8.117-.174-4.015 3.361-5.412 3.361-5.412-1.623 2.822-1.072 8.873-1.072 8.873.694-3.317 4.117-6.487 4.117-6.487-.434.64-1.13 3.084-1.275 6.167-.144 3.085-2.465 5.034-2.465 5.034.317-.059 1.507-.7 2.377-2.037.87-1.34 3.219-1.454 3.219-1.454-1.255.182-2.204 3.082-3.423 4.886-1.216 1.803-4.724 2.939-4.724 2.939 12.262 0 12.813-6.139 14.235-10.676 1.419-4.539 4.462-6.081 4.462-6.081-4.433-2.415-8.058 2.938-8.058 2.938-.172-2.733 1.102-2.676 1.102-6.312 0-3.637-2.377-5.819-2.377-5.819.942 7.68-3.147 7.957-3.147 7.957 1.205-10.503-2.508-12.413-2.508-12.413 1.204 2.895.707 3.687.623 3.79-.082.104-1.079 1.29-1.142 2.624-.062 1.33-.666 2.165-1.195 2.12-.601-.02-.879-.428-.692-.935 1.204-3.034.435-5.164-1.058-8.263-1.492-3.102-.58-4.079-.06-5.266.383-.881.352-2.331.352-2.331-1.701 2.186-4.855 1.52-6.203 5.537-1.052 3.134.54 6.368.54 6.368s.182.351-.064.542c-.316.242-.9-.67-.9-.67" fill="#FFFFFE" fill-rule="evenodd"/></svg>