<?xml version="1.0" encoding="utf-8"?>
<!-- Generator: Adobe Illustrator 24.0.0, SVG Export Plug-In . SVG Version: 6.00 Build 0)  -->
<svg version="1.1" id="Layer_1" xmlns="http://www.w3.org/2000/svg" xmlns:xlink="http://www.w3.org/1999/xlink" x="0px" y="0px"
	 viewBox="0 0 223.8 59.6" style="enable-background:new 0 0 223.8 59.6;" xml:space="preserve">
<style type="text/css">
	.st0{fill:#FFFFFF;}
	.st1{clip-path:url(#SVGID_2_);fill:url(#SVGID_3_);}
	.st2{clip-path:url(#SVGID_5_);fill:url(#SVGID_6_);}
	.st3{clip-path:url(#SVGID_8_);fill:url(#SVGID_9_);}
	.st4{opacity:0.4;}
	.st5{clip-path:url(#SVGID_11_);fill:none;stroke:#FFFFFF;stroke-width:2.959;}
	.st6{clip-path:url(#SVGID_13_);fill:none;stroke:#FFFFFF;stroke-width:2.959;}
</style>
<g>
	<g>
		<path class="st0" d="M59.6,29.8c0,16.5-13.4,29.8-29.8,29.8S0,46.2,0,29.8S13.2,0,29.7,0S59.6,13.4,59.6,29.8"/>
	</g>
	<g>
		<g>
			<g>
				<g>
					<g>
						<defs>
							<path id="SVGID_1_" d="M29.7,0.8c-16.1,0-29,13-29,29s13,29,29.1,29s29.1-13,29.1-29S45.8,0.8,29.7,0.8"/>
						</defs>
						<clipPath id="SVGID_2_">
							<use xlink:href="#SVGID_1_"  style="overflow:visible;"/>
						</clipPath>
						
							<linearGradient id="SVGID_3_" gradientUnits="userSpaceOnUse" x1="-1087.2441" y1="184.0554" x2="-1085.3931" y2="184.0554" gradientTransform="matrix(31.3869 0 0 -31.3869 34125.9219 5806.7773)">
							<stop  offset="0" style="stop-color:#009FE3"/>
							<stop  offset="0.1048" style="stop-color:#009FE3"/>
							<stop  offset="0.3105" style="stop-color:#009CE1"/>
							<stop  offset="0.6345" style="stop-color:#0093D9"/>
							<stop  offset="1" style="stop-color:#0086CD"/>
						</linearGradient>
						<rect x="0.7" y="0.8" class="st1" width="58.1" height="58.1"/>
					</g>
				</g>
			</g>
		</g>
	</g>
	<g>
		<path class="st0" d="M30.4,51.5c0,0,11.3,0,11.3-12.1c0-6.1-4.6-10.4-7.2-15.5S29.6,9.4,29.6,9.4s-2.4,9.4-4.9,14.5
			s-7.2,9.4-7.2,15.5c0,12.1,11.3,12.1,11.3,12.1H30.4z"/>
	</g>
	<g>
		<path class="st0" d="M223.8,29.8c0,16.5-13.4,29.8-29.8,29.8s-29.9-13.3-29.9-29.8S177.5,0,194,0S223.8,13.4,223.8,29.8"/>
	</g>
	<g>
		<g>
			<g>
				<g>
					<g>
						<defs>
							<path id="SVGID_4_" d="M194,0.8c-16.1,0-29,13-29,29s13,29,29,29c16.1,0,29-13,29-29S210,0.8,194,0.8"/>
						</defs>
						<clipPath id="SVGID_5_">
							<use xlink:href="#SVGID_4_"  style="overflow:visible;"/>
						</clipPath>
						
							<linearGradient id="SVGID_6_" gradientUnits="userSpaceOnUse" x1="-1084.8389" y1="184.0552" x2="-1082.9878" y2="184.0552" gradientTransform="matrix(31.3866 0 0 -31.3866 34214.3047 5806.7158)">
							<stop  offset="0" style="stop-color:#6A971F"/>
							<stop  offset="0.1048" style="stop-color:#6A971F"/>
							<stop  offset="1" style="stop-color:#507517"/>
						</linearGradient>
						<rect x="164.9" y="0.8" class="st2" width="58.1" height="58.1"/>
					</g>
				</g>
			</g>
		</g>
	</g>
	<g>
		<path class="st0" d="M186.3,23.5c-0.7-0.2-1.4-0.3-2.1-0.3c-4.4,0-8.1,3.2-8.8,7.4c-2.4,0.5-4.2,2.6-4.2,5.2
			c0,2.9,2.4,5.3,5.3,5.3H210c4.6,0,8.3-3.7,8.3-8.3s-3.7-8.3-8.3-8.3c-0.2,0-0.4,0-0.6,0.1c-1.7-5-6.4-8.4-11.8-8.4
			C192.8,16.1,188.3,19,186.3,23.5"/>
	</g>
	<g>
		<path class="st0" d="M141.7,29.8c0,16.5-13.3,29.8-29.8,29.8S82.1,46.2,82.1,29.8S95.4,0,111.8,0C128.3,0,141.7,13.4,141.7,29.8"
			/>
	</g>
	<g>
		<g>
			<g>
				<g>
					<g>
						<defs>
							<path id="SVGID_7_" d="M111.9,0.8c-16.1,0-29.1,13-29.1,29c0,16.1,13,29,29.1,29s29-13,29-29S127.9,0.8,111.9,0.8"/>
						</defs>
						<clipPath id="SVGID_8_">
							<use xlink:href="#SVGID_7_"  style="overflow:visible;"/>
						</clipPath>
						
							<linearGradient id="SVGID_9_" gradientUnits="userSpaceOnUse" x1="-1086.0413" y1="184.056" x2="-1084.1902" y2="184.056" gradientTransform="matrix(31.3871 0 0 -31.3871 34170.4883 5806.835)">
							<stop  offset="0" style="stop-color:#DD7400"/>
							<stop  offset="0.1048" style="stop-color:#DD7400"/>
							<stop  offset="0.9949" style="stop-color:#EA5B0B"/>
							<stop  offset="1" style="stop-color:#EA5B0B"/>
						</linearGradient>
						<rect x="82.8" y="0.8" class="st3" width="58.1" height="58.1"/>
					</g>
				</g>
			</g>
		</g>
	</g>
	<g>
		<path class="st0" d="M107.7,23.3c-2.3-3.4-7.1-4.4-7.1-4.4c5.3,3.2,5.1,10.5,5,11.1s-1,2.6-3.4-0.9c-2.3-3.4-6.2-3.7-6.2-3.7
			c6.9,6.8,4.3,10.5,4.3,10.5c-4.2-5.5-7.6-2.4-7.6-2.4c3.6,0.6,5.4,3.9,5.4,7.4c0,2.4,0.6,4.2,0.6,4.2c4.2,9.1,12.2,6.2,12.2,6.2
			c-8.8-1.7-9.4-8.7-9.4-8.7c1.5,3.4,5,2.4,5,2.4c-3.1-1.9-2.7-8.2-2.7-8.2c3.2,8.4,7.7,6.9,7.7,6.9c-6.3-5-3.4-10.7-3.4-10.7
			c0.6,4.4,2.5,4.4,2.5,4.4c0.9-4.2-1.4-7.5-1.4-7.5c3.5,1.7,4.7,8.4,4.7,8.4c-0.2-4.2,3.5-5.6,3.5-5.6c-1.7,2.9-1.1,9.2-1.1,9.2
			c0.7-3.4,4.3-6.7,4.3-6.7c-0.4,0.7-1.2,3.2-1.3,6.4c-0.1,3.2-2.6,5.2-2.6,5.2c0.3-0.1,1.6-0.7,2.5-2.1c0.9-1.4,3.4-1.5,3.4-1.5
			c-1.3,0.2-2.3,3.2-3.6,5.1c-1.3,1.9-4.9,3.1-4.9,3.1c12.8,0,13.4-6.4,14.8-11.1c1.5-4.7,4.7-6.3,4.7-6.3c-4.6-2.5-8.4,3.1-8.4,3.1
			c-0.2-2.9,1.1-2.8,1.1-6.6s-2.5-6.1-2.5-6.1c1,8-3.3,8.3-3.3,8.3c1.3-10.9-2.6-12.9-2.6-12.9c1.3,3,0.7,3.8,0.6,3.9
			s-1.1,1.4-1.2,2.7c-0.1,1.4-0.7,2.3-1.2,2.2c-0.6,0-0.9-0.4-0.7-1c1.3-3.1,0.4-5.4-1.1-8.6s-0.6-4.2-0.1-5.5
			c0.4-0.9,0.4-2.4,0.4-2.4c-1.8,2.3-5.1,1.6-6.5,5.8c-1.1,3.3,0.6,6.6,0.6,6.6s0.2,0.4-0.1,0.6C108.3,24.3,107.7,23.3,107.7,23.3"
			/>
	</g>
</g>
<g>
	<g class="st4">
		<g>
			<g>
				<g>
					<g>
						<g>
							<defs>
								<rect id="SVGID_10_" x="57.7" y="25.3" width="26" height="9.2"/>
							</defs>
							<clipPath id="SVGID_11_">
								<use xlink:href="#SVGID_10_"  style="overflow:visible;"/>
							</clipPath>
							<line class="st5" x1="81.8" y1="29.9" x2="59.5" y2="29.9"/>
						</g>
					</g>
				</g>
			</g>
		</g>
	</g>
	<g class="st4">
		<g>
			<g>
				<g>
					<g>
						<g>
							<defs>
								<rect id="SVGID_12_" x="139.5" y="25.3" width="26" height="9.2"/>
							</defs>
							<clipPath id="SVGID_13_">
								<use xlink:href="#SVGID_12_"  style="overflow:visible;"/>
							</clipPath>
							<line class="st6" x1="163.6" y1="29.9" x2="141.3" y2="29.9"/>
						</g>
					</g>
				</g>
			</g>
		</g>
	</g>
</g>
</svg>
