<?xml version="1.0" encoding="utf-8"?>
<!-- Generator: Adobe Illustrator 25.2.3, SVG Export Plug-In . SVG Version: 6.00 Build 0)  -->
<svg version="1.1" id="Layer_1" xmlns="http://www.w3.org/2000/svg" xmlns:xlink="http://www.w3.org/1999/xlink" x="0px" y="0px"
	 viewBox="0 0 686 384.2" style="enable-background:new 0 0 686 384.2;" xml:space="preserve">
<style type="text/css">
	.st0{fill:#FFFFFF;}
	.st1{fill:#005640;}
</style>
<g>
	<g>
		<g>
			<rect x="45.6" y="105.5" class="st0" width="591.5" height="257.9"/>
		</g>
		<g>
			<path class="st1" d="M642.3,368.6H40.4V100.3h601.9V368.6z M50.8,358.2h581V110.8h-581V358.2z"/>
		</g>
	</g>
	<g>
		<line class="st0" x1="215.7" y1="107.4" x2="215.7" y2="330.4"/>
		<rect x="210.4" y="107.4" class="st1" width="10.5" height="223"/>
	</g>
	<g>
		<line class="st0" x1="466.2" y1="107.4" x2="466.2" y2="330.4"/>
		<rect x="461" y="107.4" class="st1" width="10.5" height="223"/>
	</g>
	<g>
		<g>
			<rect x="14.1" y="291.8" class="st0" width="654.4" height="44.6"/>
		</g>
		<g>
			<path class="st1" d="M673.8,341.6H8.9v-55.1h664.9V341.6z M19.4,331.1h643.9V297H19.4V331.1z"/>
		</g>
	</g>
	<g>
		<g>
			<path class="st0" d="M90.8,107.4c0,19.8-16,35.8-35.8,35.8s-35.8-16-35.8-35.8"/>
			<path class="st1" d="M55,148.4c-22.6,0-41-18.4-41-41h10.5c0,16.8,13.7,30.6,30.6,30.6s30.6-13.7,30.6-30.6H96
				C96,130,77.6,148.4,55,148.4z"/>
		</g>
		<g>
			<path class="st0" d="M162.4,107.4c0,19.8-16,35.8-35.8,35.8s-35.8-16-35.8-35.8"/>
			<path class="st1" d="M126.6,148.4c-22.6,0-41-18.4-41-41H96c0,16.8,13.7,30.6,30.6,30.6s30.6-13.7,30.6-30.6h10.5
				C167.6,130,149.2,148.4,126.6,148.4z"/>
		</g>
		<g>
			<path class="st0" d="M234,107.4c0,19.8-16,35.8-35.8,35.8s-35.8-16-35.8-35.8"/>
			<path class="st1" d="M198.2,148.4c-22.6,0-41-18.4-41-41h10.5c0,16.8,13.7,30.6,30.6,30.6s30.6-13.7,30.6-30.6h10.5
				C239.2,130,220.8,148.4,198.2,148.4z"/>
		</g>
		<g>
			<path class="st0" d="M305.5,107.4c0,19.8-16,35.8-35.8,35.8s-35.8-16-35.8-35.8"/>
			<path class="st1" d="M269.8,148.4c-22.6,0-41-18.4-41-41h10.5c0,16.8,13.7,30.6,30.6,30.6c16.8,0,30.6-13.7,30.6-30.6h10.5
				C310.8,130,292.4,148.4,269.8,148.4z"/>
		</g>
		<g>
			<path class="st0" d="M377.1,107.4c0,19.8-16,35.8-35.8,35.8c-19.8,0-35.8-16-35.8-35.8"/>
			<path class="st1" d="M341.3,148.4c-22.6,0-41-18.4-41-41h10.5c0,16.8,13.7,30.6,30.6,30.6c16.9,0,30.6-13.7,30.6-30.6h10.5
				C382.4,130,364,148.4,341.3,148.4z"/>
		</g>
		<g>
			<path class="st0" d="M448.7,107.4c0,19.8-16,35.8-35.8,35.8c-19.8,0-35.8-16-35.8-35.8"/>
			<path class="st1" d="M412.9,148.4c-22.6,0-41-18.4-41-41h10.5c0,16.8,13.7,30.6,30.6,30.6c16.8,0,30.5-13.7,30.5-30.6h10.5
				C453.9,130,435.5,148.4,412.9,148.4z"/>
		</g>
		<g>
			<path class="st0" d="M520.3,107.4c0,19.8-16,35.8-35.8,35.8s-35.8-16-35.8-35.8"/>
			<path class="st1" d="M484.5,148.4c-22.6,0-41-18.4-41-41h10.5c0,16.8,13.7,30.6,30.6,30.6s30.6-13.7,30.6-30.6h10.5
				C525.5,130,507.1,148.4,484.5,148.4z"/>
		</g>
		<g>
			<path class="st0" d="M591.9,107.4c0,19.8-16,35.8-35.8,35.8s-35.8-16-35.8-35.8"/>
			<path class="st1" d="M556.1,148.4c-22.6,0-41-18.4-41-41h10.5c0,16.8,13.7,30.6,30.5,30.6c16.9,0,30.6-13.7,30.6-30.6h10.5
				C597.1,130,578.7,148.4,556.1,148.4z"/>
		</g>
		<g>
			<path class="st0" d="M663.4,107.4c0,19.8-16,35.8-35.8,35.8s-35.8-16-35.8-35.8"/>
			<path class="st1" d="M627.7,148.4c-22.6,0-41-18.4-41-41h10.5c0,16.8,13.7,30.6,30.6,30.6c16.8,0,30.5-13.7,30.5-30.6h10.5
				C668.7,130,650.3,148.4,627.7,148.4z"/>
		</g>
	</g>
	<g>
		<polygon class="st0" points="624.4,26.9 58.3,26.9 15.8,107.4 666.9,107.4 		"/>
		<path class="st1" d="M675.5,112.6H7.1l48-91h572.4L675.5,112.6z M24.5,102.1h633.7l-37-70H61.5L24.5,102.1z"/>
	</g>
</g>
</svg>
