<?xml version="1.0" encoding="utf-8"?>
<!-- Generator: Adobe Illustrator 25.3.1, SVG Export Plug-In . SVG Version: 6.00 Build 0)  -->
<svg version="1.1" id="Layer_1" xmlns="http://www.w3.org/2000/svg" xmlns:xlink="http://www.w3.org/1999/xlink" x="0px" y="0px"
	 viewBox="0 0 541.65 448.7" style="enable-background:new 0 0 541.65 448.7;" xml:space="preserve">
<style type="text/css">
	.st0{fill:#FFFFFF;}
	.st1{fill:#005640;}
	.st2{fill-rule:evenodd;clip-rule:evenodd;fill:#005640;}
</style>
<g>
	<path class="st0" d="M290.44,357.19c-37.19-8.05-69.13-10.91-95.78-10.91c-26.96,0-48.49,2.93-64.49,6.39
		c-25.92,5.6-41.77,13.29-48.4,17l4.32-24.5c0.15-0.21,0.41-0.47,0.63-0.71c0.31-0.31,0.63-0.62,0.97-0.93
		c0.67-0.61,1.36-1.22,2.07-1.8c1.42-1.17,2.9-2.3,4.47-3.31c-1.82,0.44-3.62,1.04-5.4,1.7c-0.89,0.33-1.77,0.69-2.66,1.07
		c-0.38,0.17-0.76,0.34-1.15,0.53l-8.59-21.57c9.44-5.63,72.2-39.07,193.94-16.17c20.05,12.1,43.41,18.93,67.63,18.93
		c10.67,0,21.16-1.29,31.27-3.74c47.97,2.48,68.59-6.89,76.87-13.14l-6.78,27.35c-1.43,1.02-3.08,1.91-4.78,2.73
		c-1.84,0.88-3.76,1.68-5.69,2.44c2.07-0.16,4.14-0.36,6.22-0.66c1.7-0.26,3.41-0.58,5.15-1.09l12.07,17.12
		C447.74,359.16,417.79,384.75,290.44,357.19z"/>
	<g>
		<g>
			<g>
				<g>
					<g>
						<g>
							<path d="M104.24,326.09l0.27-0.09l11.9,13.05l-3.28,1.06l-1.52-1.78l-5.89,1.91l-0.18,2.32l-3.01,0.98L104.24,326.09z
								 M109.65,336.09l-1.7-1.98c-0.75-0.87-1.7-2.26-1.79-2.4c0,0.07,0.07,1.8-0.02,2.99l-0.21,2.61L109.65,336.09z"/>
						</g>
						<g>
							<path d="M122.31,330.05c-0.94-0.56-2.33-1.71-2.33-1.71s0.61,1.66,0.87,2.78l1.48,6.52l-2.99,0.68l-3.56-15.68l0.32-0.07
								l9.51,5.58c0.91,0.54,2.31,1.71,2.31,1.71s-0.6-1.71-0.85-2.79l-1.48-6.52l3-0.68l3.56,15.68l-0.32,0.07L122.31,330.05z"/>
						</g>
						<g>
							<path d="M139.99,326.62c-0.9-0.62-2.2-1.88-2.2-1.88s0.49,1.71,0.66,2.84l0.99,6.61l-3.04,0.45l-2.38-15.91l0.32-0.05
								l9.07,6.27c0.87,0.6,2.18,1.88,2.18,1.88s-0.48-1.75-0.64-2.85l-0.99-6.61l3.04-0.46l2.38,15.91l-0.33,0.05L139.99,326.62z"
								/>
						</g>
						<g>
							<path d="M152.49,316.38l3.27-0.33l1.61,15.86l-3.27,0.33L152.49,316.38z"/>
						</g>
						<g>
							<path d="M159.96,315.59l3.51-0.21l3.11,5.97c0.64,1.25,1.38,3.33,1.46,3.53c0.01-0.12,0.47-2.28,1-3.68l2.3-6.29l3.19-0.19
								l-6.01,16.48l-0.33,0.02L159.96,315.59z"/>
						</g>
						<g>
							<path d="M178.74,314.62l10.55-0.14l0.04,2.89l-7.26,0.09l0.05,3.66l6.4-0.08l0.04,2.81l-6.4,0.08l0.05,3.7l7.59-0.1
								l0.04,2.88l-10.87,0.14L178.74,314.62z"/>
						</g>
						<g>
							<path d="M194.77,314.52l5.9,0.17c3.26,0.09,5.88,1.69,5.78,5.42c-0.07,2.41-1.38,3.9-3.25,4.57l3.46,6.13l-3.75-0.11
								l-3.07-5.62l-2.09-0.06l-0.16,5.53l-3.28-0.09L194.77,314.52z M200.36,322.33c1.62,0.05,2.67-0.56,2.72-2.31
								c0.05-1.78-1.01-2.4-2.58-2.44l-2.53-0.07l-0.14,4.76L200.36,322.33z"/>
						</g>
						<g>
							<path d="M209.32,327.81l2.77-1.37c0.63,1.19,1.48,2.1,3.1,2.2c1.36,0.09,2.27-0.53,2.33-1.47c0.07-1.12-0.79-1.58-2.24-2.33
								l-0.79-0.4c-2.3-1.16-3.78-2.53-3.61-5.2c0.16-2.46,2.16-4.21,5.08-4.01c2.08,0.14,3.53,0.96,4.48,2.93l-2.66,1.47
								c-0.5-1.04-1.08-1.48-2.01-1.54c-0.96-0.06-1.61,0.5-1.66,1.3c-0.07,0.98,0.52,1.42,1.88,2.12l0.79,0.4
								c2.71,1.38,4.19,2.7,4.01,5.44c-0.19,2.95-2.62,4.41-5.73,4.2C212.02,331.35,210.15,329.77,209.32,327.81z"/>
						</g>
						<g>
							<path d="M231.45,316.56l0.28,0.03l5.66,16.73l-3.43-0.34l-0.67-2.23l-6.16-0.61l-1.1,2.06l-3.15-0.31L231.45,316.56z
								 M232.39,327.89l-0.76-2.5c-0.34-1.1-0.65-2.75-0.67-2.92c-0.03,0.07-0.66,1.68-1.22,2.73l-1.24,2.3L232.39,327.89z"/>
						</g>
						<g>
							<path d="M243.16,317.98l5.86,0.79c3.23,0.43,5.68,2.3,5.18,6c-0.32,2.39-1.78,3.73-3.71,4.21l2.79,6.46l-3.72-0.5l-2.46-5.92
								l-2.07-0.28l-0.74,5.48l-3.25-0.44L243.16,317.98z M247.9,326.33c1.6,0.21,2.71-0.27,2.95-2.02c0.24-1.77-0.75-2.49-2.31-2.7
								l-2.51-0.34l-0.64,4.72L247.9,326.33z"/>
						</g>
						<g>
							<path d="M261.66,330.88l-3.81-10.87l3.63,0.6l1.51,4.65c0.39,1.21,0.78,3.17,0.78,3.17s0.95-1.7,1.72-2.76l2.84-3.92
								l3.33,0.55l-6.7,8.89l-1,5.99l-3.26-0.54L261.66,330.88z"/>
						</g>
						<g>
							<path d="M315.5,333.57l-2.83-0.44l0.46-2.89l6.09,0.96l-2.48,15.75l-3.26-0.52L315.5,333.57z"/>
						</g>
						<g>
							<path d="M326.93,344.78c0.78-0.89,1.67-1.57,1.67-1.57c-0.42,0.13-1.15,0.13-1.52,0.08c-2.95-0.39-4.97-2.86-4.55-6.02
								c0.41-3.11,3.21-5.32,6.85-4.84c3.58,0.47,5.79,3.27,5.38,6.31c-0.2,1.51-1.02,2.87-2.13,4.14l-4.97,5.61l-3.6-0.48
								L326.93,344.78z M331.41,338.44c0.19-1.44-0.69-2.86-2.41-3.08c-1.79-0.24-2.93,0.91-3.12,2.35
								c-0.19,1.46,0.56,2.91,2.4,3.15C329.99,341.09,331.21,339.95,331.41,338.44z"/>
						</g>
						<g>
							<path d="M345.7,337.45l-7.63-0.75l0.29-2.92l12.41,1.22l-0.03,0.28l-8.99,14.85l-3.48-0.34L345.7,337.45z"/>
						</g>
						<g>
							<path d="M356.58,338.32l-2.86-0.19l0.19-2.92l6.15,0.4l-1.04,15.91l-3.3-0.21L356.58,338.32z"/>
						</g>
						<g>
							<path d="M364.2,344.7l5.39,0.2l-0.1,2.81l-5.39-0.2L364.2,344.7z"/>
						</g>
						<g>
							<path d="M372.07,351.82l6.56-6.84c1.69-1.76,2.2-2.84,2.2-3.89c0-1.13-0.68-2.09-2.13-2.09c-1.43,0-2.37,1.05-2.84,2.63
								l-3.33-0.66c0.66-2.88,2.79-4.99,6.19-4.99c3.37,0,5.46,2.13,5.46,5.09c0,1.76-0.82,3.33-2.67,5.27l-1.97,2.06
								c-0.45,0.45-1.13,0.91-1.13,0.91s0.73-0.09,1.31-0.09l4.36,0v2.88l-12.02,0V351.82z"/>
						</g>
						<g>
							<path d="M387.57,344.09c-0.35-5.66,2.97-8.38,6.5-8.6c3.54-0.21,7.15,2.08,7.5,7.75c0.35,5.66-2.97,8.38-6.5,8.6
								C391.53,352.05,387.92,349.75,387.57,344.09z M398.15,343.44c-0.22-3.63-1.84-5.17-3.9-5.05c-2.06,0.13-3.48,1.86-3.26,5.48
								c0.22,3.63,1.84,5.17,3.9,5.05C396.95,348.8,398.38,347.07,398.15,343.44z"/>
						</g>
						<g>
							<path d="M404.78,350.66l5.56-7.69c1.43-1.97,1.79-3.11,1.65-4.16c-0.15-1.12-0.96-1.97-2.4-1.77
								c-1.42,0.2-2.2,1.37-2.45,2.99l-3.39-0.19c0.25-2.95,2.07-5.33,5.44-5.8c3.34-0.46,5.7,1.36,6.11,4.29
								c0.24,1.74-0.35,3.41-1.92,5.59l-1.66,2.31c-0.38,0.5-0.99,1.06-0.99,1.06s0.71-0.19,1.29-0.27l4.32-0.6l0.4,2.86
								l-11.91,1.66L404.78,350.66z"/>
						</g>
						<g>
							<path d="M421.74,334.91l-2.78,0.67l-0.68-2.85l5.99-1.44l3.73,15.5l-3.21,0.77L421.74,334.91z"/>
						</g>
					</g>
				</g>
			</g>
		</g>
		<g>
			<path class="st1" d="M302.83,337.01c0.09-0.67-0.32-1.26-0.94-1.48c-0.01,0-0.02-0.01-0.03-0.02c-0.15-0.06-3.58-1.54-5.36-6.2
				c-0.27-0.72-1.08-1.08-1.8-0.8c-0.72,0.27-1.08,1.08-0.8,1.8c0.71,1.87,1.66,3.33,2.62,4.45l-24.24-3.24l23.43,5.42
				c-1.58,0.82-3.11,2.08-3.96,4.03c-0.31,0.71,0.02,1.53,0.72,1.83c0.18,0.08,0.37,0.12,0.55,0.12c0.54,0,1.05-0.31,1.28-0.84
				c1.55-3.57,7.03-3.84,7.08-3.84c0.07,0,0.13-0.04,0.2-0.05C302.22,338.12,302.75,337.66,302.83,337.01z"/>
		</g>
		<path class="st1" d="M442.99,334.22l8.37-33.77c0.22-0.9-0.25-1.81-1.1-2.16c-0.85-0.35-1.84-0.01-2.31,0.78
			c-0.14,0.25-11.18,17.33-66.96,16.69c49.51-16.91,87.2-62.35,87.2-120.16c0-74.18-61.26-126.35-130.18-126.35
			c-59.61,0-114.07,40.14-126.55,100.07c-12.17-6.55-26.66-10.22-42.93-10.22c-15.85,0-30.08,4.47-37.4,8.95v-59.46
			c0-0.84,0.68-1.52,1.52-1.52l84.72,0c1.13,0,2.2-0.49,2.95-1.33c10.34-11.68,20.11-22.12,36.9-31.65
			c0.75-0.43,0.45-1.57-0.41-1.57l-158.71,0c-0.84,0-1.52,0.68-1.52,1.52v137.2c0,1.42,0.86,2.69,2.18,3.21
			c1.17,0.46,2.48,0.25,3.46-0.53c12.21-9.75,30.42-19.45,55.34-19.45c33.33,0,50.41,17.48,50.41,45.53
			c0,27.24-18.7,45.94-47.97,45.94c-25.78,0-40.3-12.01-48.97-28.09c-0.59-1.09-1.92-1.53-3.02-0.96l-31.45,16.26
			c-1.08,0.56-1.54,1.87-1,2.96c5.35,10.92,13.74,21.16,25.11,29.27c0.01,0,0.01,0,0.02-0.01c-18.15,6.14-27.09,12.15-27.6,12.5
			c-0.72,0.49-1,1.41-0.68,2.22l9.93,24.93l-4.94,28.03c-0.13,0.74,0.19,1.48,0.82,1.88c0.31,0.2,0.66,0.3,1.01,0.3
			c0.37,0,0.73-0.11,1.05-0.32c0.66-0.45,67.78-44.73,209.37-14.08c143.88,31.14,165.76-4.41,166.62-5.93
			c0.35-0.62,0.31-1.4-0.1-1.98L442.99,334.22z M232.18,294.61c3.78-4.24,7.02-8.87,9.73-13.81c0.02,0.02,0.03,0.04,0.05,0.05
			c4.65-8.33,7.97-17.71,9.04-27.92c0.25-1.84,0.45-3.7,0.59-5.58c1.94,13.71-0.56,26.53-5.33,37.95
			c5.02,4.94,10.46,9.43,16.2,13.49c-10.53-1.79-20.57-3.15-30.14-4.16L232.18,294.61z M290.44,357.19
			c-37.19-8.05-69.13-10.91-95.78-10.91c-26.96,0-48.49,2.93-64.49,6.39c-25.92,5.6-41.77,13.29-48.4,17l4.32-24.5
			c0.15-0.21,0.41-0.47,0.63-0.71c0.31-0.31,0.63-0.62,0.97-0.93c0.67-0.61,1.36-1.22,2.07-1.8c1.42-1.17,2.9-2.3,4.47-3.31
			c-1.82,0.44-3.62,1.04-5.4,1.7c-0.89,0.33-1.77,0.69-2.66,1.07c-0.38,0.17-0.76,0.34-1.15,0.53l-8.59-21.57
			c9.44-5.63,72.2-39.07,193.94-16.17c20.05,12.1,43.41,18.93,67.63,18.93c10.67,0,21.16-1.29,31.27-3.74
			c47.97,2.48,68.59-6.89,76.87-13.14l-6.78,27.35c-1.43,1.02-3.08,1.91-4.78,2.73c-1.84,0.88-3.76,1.68-5.69,2.44
			c2.07-0.16,4.14-0.36,6.22-0.66c1.7-0.26,3.41-0.58,5.15-1.09l12.07,17.12C447.74,359.16,417.79,384.75,290.44,357.19z"/>
		<g>
			<g>
				<g>
					<path class="st0" d="M394.91,139.62l-36,94.42l-34.58-94.42c10.28-3.94,10.72-14.73,10.72-14.73
						c-25.63,1.89-33.21-9.15-34.41-11.24c-0.06-0.1-0.19-0.05-0.19,0.07c-0.27,7.67-3.28,14.1-8.06,17.89
						c-6.06,4.81-43.54,25.38-42.04,58.78c0.55,12.33,11.43,27.21,28.86,25.56c9.27-1.2,20.39-8.87,19.5-25.53
						c0,0-15.5,3.79-17.87-8.39c0,0-4.65-16.96,9.98-31.36l34.25,95.23c0,0-19.15,12.79-13.8,42.28c0,0,4.88-16.03,21.14-16.72
						c0,0,9.52-1.64,20.91,14.17c0,0,0.46-10.68,11.15-17.88c0,0,7.9-6.27,18.58-5.58c0,0-6.98-13.39-11.86-15.93l36.95-99.89
						c0,0,8.28-1.71,12.06-2.09c0,0-8.14-5.19-11.17-11.62l-2.83-7.89c0,0-2.24,5.2-16.97,5.96L394.91,139.62z"/>
				</g>
			</g>
		</g>
	</g>
</g>
</svg>
