<?xml version="1.0" encoding="utf-8"?>
<!-- Generator: Adobe Illustrator 25.2.1, SVG Export Plug-In . SVG Version: 6.00 Build 0)  -->
<svg version="1.1" id="Calque_1" xmlns="http://www.w3.org/2000/svg" xmlns:xlink="http://www.w3.org/1999/xlink" x="0px" y="0px"
	 viewBox="0 0 2834.7 268.5" style="enable-background:new 0 0 2834.7 268.5;" xml:space="preserve">
<style type="text/css">
	.st0{fill:#E4032E;}
	.st1{fill:#020203;}
	.st2{fill:none;stroke:#020203;stroke-width:5;stroke-miterlimit:10;}
</style>
<g>
	<g>
		<path class="st0" d="M0,5.8h72.6v199.1h111.1v57.6H0V5.8z"/>
		<path class="st0" d="M419.2,205.7v56.1H209V5.1h205.5v56.1H280.8v43.3h123v58.5h-123v42.7H419.2z"/>
		<path class="st0" d="M587.5,250.5c-20.8-11.4-37.1-27.2-49-47.5c-11.9-20.3-17.8-43.3-17.8-68.9c0-25.7,5.9-48.6,17.8-68.9
			c11.9-20.3,28.2-36.1,49-47.5c20.8-11.4,44.2-17.1,70.3-17.1c22.8,0,43.3,4.2,61.6,12.5c18.3,8.3,33.5,20.3,45.6,35.9l-45.3,52.2
			C704.8,82.6,682.2,66,661,66c-12.5,0-23.6,2.8-33.4,8.5c-9.8,5.7-17.4,13.7-22.7,24c-5.4,10.3-8.1,22.2-8.1,35.6
			c0,13.4,2.7,25.3,8.1,35.6c5.4,10.3,12.9,18.3,22.7,24c9.7,5.7,20.9,8.5,33.4,8.5c21.3,0,43.8-12.7,58.7-31.4l42.8,47
			c-12.1,15.6-24.8,29-43.1,37.3c-18.3,8.3-38.8,12.5-61.6,12.5C631.7,267.5,608.3,261.9,587.5,250.5z"/>
		<path class="st1" d="M2192.3,250.5c-20.8-11.4-37.1-27.2-49-47.5c-11.9-20.3-17.8-43.3-17.8-68.9c0-25.7,5.9-48.6,17.8-68.9
			c11.9-20.3,28.2-36.1,49-47.5c20.8-11.4,44.2-17.1,70.3-17.1c22.8,0,43.3,4.2,61.6,12.5c18.3,8.3,33.5,20.3,45.6,35.9l-45.3,52.2
			C2309.6,82.6,2287,66,2265.7,66c-12.5,0-23.6,2.8-33.4,8.5c-9.8,5.7-17.4,13.7-22.7,24c-5.4,10.3-8.1,22.2-8.1,35.6
			c0,13.4,2.7,25.3,8.1,35.6c5.4,10.3,12.9,18.3,22.7,24c9.7,5.7,20.9,8.5,33.4,8.5c21.3,0,43.8-12.7,58.7-31.4l42.8,47
			c-12.1,15.6-24.8,29-43.1,37.3c-18.3,8.3-38.8,12.5-61.6,12.5C2236.5,267.5,2213,261.9,2192.3,250.5z"/>
		<path class="st0" d="M954.9,219.3H855l-20.2,43.2h-77.4L869.4,7l76.6-1.2l109.7,256.6h-80.8L954.9,219.3z M936,167l-30.2-83.4
			l-33,83.4L936,167z"/>
		<path class="st1" d="M2029.8,219.3h-99.9l-20.2,43.2h-77.4L1944.3,7l76.6-1.2l109.7,256.6h-80.8L2029.8,219.3z M2010.9,167
			l-30.2-83.4l-33,83.4L2010.9,167z"/>
		<path class="st0" d="M1553.8,5.8v256.6H1478l-0.4-94.5l-94.3-0.5v95h-73.7V5.8l73.7,1.4v102.7l94.7,0.5V7.6L1553.8,5.8z"/>
		<path d="M1817.1,152.6c8.3,10.9,12.5,24,12.5,39.4c0,22.5-9,39.8-27.1,52.1c-18.1,12.2-44.2,18.3-78.5,18.3h-126V5.8h118.7
			c32.7,0,57.7,6,74.8,18.1c17.1,12.1,25.7,28.4,25.7,48.9c0,12.2-3,23.2-9,32.8c-6,9.7-14.5,17.3-25.5,22.9
			C1797.3,133.7,1808.8,141.7,1817.1,152.6z M1669.9,58.2v49.5h37.2c24.4,0,36.7-8.3,36.7-24.9c0-16.4-12.2-24.6-36.7-24.6H1669.9z
			 M1756.3,183.9c0-17.4-12.7-26-38.1-26h-48.3V210h48.3C1743.6,210,1756.3,201.3,1756.3,183.9z"/>
	</g>
	<path class="st2" d="M2610,133.9"/>
	<path class="st2" d="M2834.7,133.9"/>
	<path d="M2391.7,136.7l74.3,87v41.9h-74.3V136.7z M2466.1,0.6h-74.3v130.8l74.3-84.5V0.6z"/>
	<polygon class="st0" points="2795.9,97.5 2570.2,97.5 2651.9,1.9 2554.2,1.9 2437.7,134.4 2550.8,266.8 2651.9,266.8 2568.3,171.8 
		2795.9,171.8 	"/>
	<g>
		<path class="st0" d="M1053.2,224.5l28.3-55.3c23.3,16.3,58.3,39,94.3,39c22.7,0,27.1-7.8,26.4-20.8
			c-1.9-37.7-132.7-10-132.7-110.7C1069.6,32.9,1112,0,1179,0c41.9,0,66,9.4,104.4,31.4l-29.6,58.5c-27.7-17.6-65.8-29.8-80.9-29.8
			c-18.4,0-25.4,6.3-25.4,17.8c0,32.1,132.7,14.5,134.6,105c1.1,52.5-33.5,85.5-103.6,85.5C1125.7,268.5,1079.4,249.2,1053.2,224.5z
			"/>
	</g>
</g>
</svg>
