<svg aria-hidden="true" class="styled" width="64" height="64" xmlns="http://www.w3.org/2000/svg" fill="none"><path d="m46.071 38.929 3.364 3.364a5 5 0 0 1-7.071 7.071l-6.03-6.03" stroke="#010035" stroke-width="4"/><path d="M37.414 16.13 57.92 36.636a5 5 0 1 1-7.07 7.071C46.044 38.997 43.094 36.095 42 35" stroke="#010035" stroke-width="4"/><path d="M62 9H52L36.345 3.782a4 4 0 0 0-4.093.966l-17.95 17.95h0A3.13 3.13 0 0 0 16 28a13.248 13.248 0 0 0 10.67-2.899l10.744-8.971" stroke="#e2010b" stroke-width="4" stroke-linecap="square"/><path d="m34 41 6.95 6.95a5 5 0 1 1-7.071 7.07l-5.95-5.949-2-2" stroke="#010035" stroke-width="4"/><path d="m28.929 50.071 3.995 3.995a3.693 3.693 0 0 1-.46 5.612 5.435 5.435 0 0 1-6.783-.36L10 45H0M18 9H0" stroke="#010035" stroke-width="4"/></svg>