<svg aria-hidden="true" class="styled" width="64" height="64" xmlns="http://www.w3.org/2000/svg" fill="none"><path d="M16.618 41.019c-2.986.669-6.308 2.105-8.055 4.667-3.255 4.774-1.005 8.299.204 9.618 1.21 1.319 3.783 2.603 7.025 2.018 3.243-.586 5.15-2.564 7.003-6.114-.92 4.493 3.926 6.36 7.21 6.397 2.19.025 4.96-1.144 8.306-3.508.359 1.84 1.398 2.749 3.118 2.725 5.491-.077 11.748-.072 12.232-.072" stroke="#010035" stroke-width="4" stroke-linejoin="round"/><path stroke="#e2010b" stroke-width="4" d="m47.806 33.52-8.374 5.663"/><path stroke="#010035" stroke-width="4" d="m24.904 19.457.415.593 15.135 21.614 10.655 5.202-.825-12.085L28.666 3.908l-9.83 6.883 3.234 4.618"/></svg>