<svg xmlns="http://www.w3.org/2000/svg" xmlns:xlink="http://www.w3.org/1999/xlink" viewBox="0 0 541.38 329"><defs><style>.cls-1{fill:none;}.cls-2{fill:#e0e0e0;}.cls-3{fill:#ea3636;}.cls-4{clip-path:url(#clip-path);}.cls-5{fill:url(#linear-gradient);}</style><clipPath id="clip-path" transform="translate(0 51)"><path class="cls-1" d="M115,17A115,115,0,1,0,230,132,115,115,0,0,0,115,17Zm0,189a74,74,0,1,1,74-74A74,74,0,0,1,115,206Z"/></clipPath><linearGradient id="linear-gradient" x1="199.5" y1="48.91" x2="199.5" y2="277.87" gradientUnits="userSpaceOnUse"><stop offset="0" stop-color="#0f0404"/><stop offset="0.08" stop-color="#1c0707"/><stop offset="0.24" stop-color="#3f0f0f"/><stop offset="0.45" stop-color="#781c1c"/><stop offset="0.71" stop-color="#c62e2e"/><stop offset="0.82" stop-color="#ea3636"/></linearGradient></defs><g id="Layer_2" data-name="Layer 2"><g id="Layer_3" data-name="Layer 3"><path class="cls-2" d="M255.73,209H249l-1.31,5h-5.22l7.64-24.46h4.52L262.31,214H257Zm-5.66-4.12h4.57l-2.29-8.72Z" transform="translate(0 51)"/><path class="cls-2" d="M269.76,214h-4.94V189.5h4.94Z" transform="translate(0 51)"/><path class="cls-2" d="M273.9,214V189.5h6.47a8.92,8.92,0,0,1,6.83,2.72,10.69,10.69,0,0,1,2.6,7.46v4a10.72,10.72,0,0,1-2.55,7.57,9.09,9.09,0,0,1-7,2.74Zm4.94-20.34v16.24h1.48a4.14,4.14,0,0,0,3.48-1.3c.67-.87,1-2.37,1.06-4.49v-4.25c0-2.29-.32-3.88-1-4.78a3.85,3.85,0,0,0-3.26-1.42Z" transform="translate(0 51)"/><path class="cls-2" d="M298.5,214h-4.94V189.5h4.94Z" transform="translate(0 51)"/><path class="cls-2" d="M310.58,214V189.5H317a8.92,8.92,0,0,1,6.83,2.72,10.69,10.69,0,0,1,2.6,7.46v4a10.72,10.72,0,0,1-2.55,7.57,9.07,9.07,0,0,1-7,2.74Zm4.93-20.34v16.24H317a4.14,4.14,0,0,0,3.48-1.3,7.74,7.74,0,0,0,1.06-4.49v-4.25c0-2.29-.32-3.88-1-4.78a3.85,3.85,0,0,0-3.26-1.42Z" transform="translate(0 51)"/><path class="cls-2" d="M335.17,214h-4.94V189.5h4.94Z" transform="translate(0 51)"/><path class="cls-2" d="M356,211.19a9,9,0,0,1-3.5,2.33,12.86,12.86,0,0,1-4.55.78,8.34,8.34,0,0,1-6.55-2.61c-1.56-1.75-2.36-4.28-2.4-7.61v-4.4c0-3.37.73-6,2.21-7.78a7.8,7.8,0,0,1,6.44-2.73q4,0,6,2c1.35,1.31,2.14,3.37,2.35,6.17h-4.81a5.62,5.62,0,0,0-1-3.19,3.74,3.74,0,0,0-5.33.62,9.42,9.42,0,0,0-.94,4.65v4.43a9.2,9.2,0,0,0,1,4.87,3.65,3.65,0,0,0,3.29,1.52,4.33,4.33,0,0,0,2.37-.59l.43-.3v-4.49h-3.46v-3.73H356Z" transform="translate(0 51)"/><path class="cls-2" d="M364.6,214h-4.94V189.5h4.94Z" transform="translate(0 51)"/><path class="cls-2" d="M384.59,193.62h-6V214h-5V193.62h-5.95V189.5h16.95Z" transform="translate(0 51)"/><path class="cls-2" d="M397.09,209h-6.74L389,214h-5.22l7.64-24.46H396L403.67,214H398.4Zm-5.66-4.12H396l-2.29-8.72Z" transform="translate(0 51)"/><path class="cls-2" d="M410.9,209.86h8.66V214H406V189.5h4.94Z" transform="translate(0 51)"/><path class="cls-2" d="M447,211.19a9,9,0,0,1-3.5,2.33,12.86,12.86,0,0,1-4.55.78,8.34,8.34,0,0,1-6.55-2.61c-1.56-1.75-2.36-4.28-2.4-7.61v-4.4c0-3.37.73-6,2.21-7.78a7.8,7.8,0,0,1,6.44-2.73c2.65,0,4.66.65,6,2s2.14,3.37,2.35,6.17h-4.81a5.62,5.62,0,0,0-1-3.19,3.73,3.73,0,0,0-5.32.62,9.29,9.29,0,0,0-.95,4.65v4.43a9.2,9.2,0,0,0,1,4.87,3.65,3.65,0,0,0,3.29,1.52,4.33,4.33,0,0,0,2.37-.59l.43-.3v-4.49h-3.46v-3.73H447Z" transform="translate(0 51)"/><path class="cls-2" d="M455.41,209.86h8.67V214H450.47V189.5h4.94Z" transform="translate(0 51)"/><path class="cls-2" d="M483.08,203.93q0,4.92-2.33,7.65a9.05,9.05,0,0,1-12.92,0c-1.57-1.8-2.37-4.31-2.39-7.55v-4.18c0-3.36.78-6,2.34-7.87a8.83,8.83,0,0,1,12.91-.05q2.35,2.78,2.39,7.8Zm-5-4.1a10,10,0,0,0-.94-4.92,3.48,3.48,0,0,0-5.83-.06,9.64,9.64,0,0,0-1,4.73v4.35a9.07,9.07,0,0,0,1,4.73,3.22,3.22,0,0,0,3,1.52,3.16,3.16,0,0,0,2.88-1.49,9,9,0,0,0,.95-4.61Z" transform="translate(0 51)"/><path class="cls-2" d="M486.62,214V189.5h7.56a8.68,8.68,0,0,1,5.82,1.71,6.21,6.21,0,0,1,2,5,6,6,0,0,1-.82,3.2,4.83,4.83,0,0,1-2.25,2,4.27,4.27,0,0,1,2.54,1.89,6.5,6.5,0,0,1,.89,3.5,7,7,0,0,1-2,5.38,8.06,8.06,0,0,1-5.67,1.81Zm4.94-14.23h2.57q2.91,0,2.91-3a3.5,3.5,0,0,0-.67-2.39,2.89,2.89,0,0,0-2.19-.72h-2.62Zm0,3.6v6.53h3.16a2.49,2.49,0,0,0,2-.82,3.61,3.61,0,0,0,.68-2.34c0-2.19-.79-3.32-2.38-3.37Z" transform="translate(0 51)"/><path class="cls-2" d="M517.6,209h-6.74l-1.31,5h-5.22L512,189.5h4.52L524.18,214h-5.27Zm-5.66-4.12h4.57l-2.29-8.72Z" transform="translate(0 51)"/><path class="cls-2" d="M531.41,209.86h8.67V214H526.47V189.5h4.94Z" transform="translate(0 51)"/><path class="cls-2" d="M356,68.05c3.32,0,6.39,0,9.46,0,12.3.17,24.65-.31,36.87.71,18.21,1.52,30.28,10.92,35.06,29.23a76.68,76.68,0,0,1-.12,39.25c-3.31,12.61-10.78,21.93-23.3,26.18a59.73,59.73,0,0,1-17,3c-13,.44-26,.17-39,.18-.59,0-1.18-.1-2-.16Zm19.12,49.26h0c0,9.23,0,18.46,0,27.68,0,1.63.31,2.55,2.23,2.52,6.4-.08,12.82.18,19.22-.1,11.95-.51,19.51-6.76,22.52-18.35a47.91,47.91,0,0,0,.58-20.84c-2.29-12.5-8.58-18.86-21.15-20.39-6.82-.83-13.81-.27-20.72-.5-2.24-.08-2.69.8-2.67,2.82C375.14,99.2,375.1,108.26,375.1,117.31Z" transform="translate(0 51)"/><path class="cls-2" d="M541.17,81.17,528.36,95.1a37.64,37.64,0,0,0-23.82-7.71c-18.29.2-30.92,14.34-29.22,32.61.95,10.14,5,18.46,14.07,23.57,6.87,3.86,14.44,4.64,22.12,3.41a37.62,37.62,0,0,0,8.69-2.84,3.9,3.9,0,0,0,1.79-2.92c.2-4.52,0-9.06.11-13.58,0-1.79-.74-2.15-2.32-2.12-3.56.09-7.13,0-10.8,0V108h32.3v4.31c0,12.56-.09,25.12.1,37.68a6.71,6.71,0,0,1-3.19,6.1C527.73,163.78,516,167,503.08,166.5c-21.15-.78-38.56-13.51-44.78-33.71-7.15-23.19,1.66-47.6,24.29-59.46,7.65-4,15.94-5.34,24.55-5.11A53.19,53.19,0,0,1,541.17,81.17Z" transform="translate(0 51)"/><path class="cls-2" d="M340.17,166.59H327.24c-7.44,0-7.44,0-10.16-6.88-.78-2-1.73-3.92-2.33-6-.54-1.86-1.64-2.22-3.39-2.22-13.49.06-27,.09-40.49,0-2,0-2.86.75-3.48,2.51-1.29,3.61-2.71,7.19-4.21,10.72-.3.72-1.18,1.71-1.81,1.72-6.28.13-12.56.08-19.22.08,1.21-3.11,2.27-5.88,3.37-8.62q14.34-35.9,28.71-71.78c2.18-5.47,4.35-11,6.66-16.36a3,3,0,0,1,2.18-1.52c5.38-.13,10.76-.15,16.14,0A3.26,3.26,0,0,1,301.6,70c7.67,19.07,15.22,38.18,22.84,57.28,3.5,8.79,7.1,17.55,10.63,26.33C336.74,157.72,338.34,161.91,340.17,166.59Zm-33.36-34.36L292,94.34c-.58.48-.77.56-.83.69-4.71,11.7-9.39,23.4-14.13,35.08-.83,2,.29,2.13,1.79,2.13h28Z" transform="translate(0 51)"/><path class="cls-3" d="M115,17A115,115,0,1,0,230,132,115,115,0,0,0,115,17Zm0,189a74,74,0,1,1,74-74A74,74,0,0,1,115,206Z" transform="translate(0 51)"/><g class="cls-4"><rect class="cls-5" x="112" width="175" height="329"/></g><polygon class="cls-3" points="111 51 111 126.72 154.56 88.86 111 51"/></g></g></svg>