<?xml version="1.0" encoding="utf-8"?>
<!-- Generator: Adobe Illustrator 26.0.2, SVG Export Plug-In . SVG Version: 6.00 Build 0)  -->
<svg version="1.1" id="brand_img" xmlns="http://www.w3.org/2000/svg" xmlns:xlink="http://www.w3.org/1999/xlink" x="0px" y="0px"
	 viewBox="0 0 539 269" style="enable-background:new 0 0 539 269;" xml:space="preserve">
<style type="text/css">
	.st0{display:none;fill:#35D827;stroke:#000000;stroke-miterlimit:10;}
	.st1{fill:none;}
	.st2{fill:#FF3333;}
	.st3{fill:#FFFFFF;}
	.st4{display:none;fill:#FF3333;}
	.st5{display:none;fill:#FFFFFF;}
	.st6{display:none;}
	.st7{display:inline;fill:#FFFFFF;}
	.st8{fill:#262626;}
</style>
<rect class="st0" width="523.3" height="269"/>
<rect id="s-frame" y="-37" class="st1" width="612" height="306"/>
<g>
	<rect id="s-back" x="28.8" y="29.8" class="st2" width="207.2" height="207.2"/>
	<path id="s-fore" class="st3" d="M87.7,171.8c11.5,9.9,28.7,17.5,47.2,17.5c22.3,0,33.5-9.6,33.5-23.3c0-12.1-5.7-18.8-29.6-21.4
		l-16.3-1.6c-30-3.2-45.6-18.2-45.6-43c0-29,20.7-46.5,56.7-46.5c22.3,0,41.4,7.3,54.2,16.9l-14.7,18.8
		c-9.9-6.4-25.5-12.4-41.1-12.4c-19.1,0-29,8.6-29,21c0,12.1,7.3,18.5,30,20.7l15.9,1.6c30.9,2.9,45.9,18.5,45.9,43
		c0,30-21.7,50-61.5,50c-29.6,0-50.7-12.1-63.1-22.9L87.7,171.8z"/>
	<circle id="s-dot" class="st4" cx="291" cy="126.4" r="14"/>
	<path id="s-i-body" class="st5" d="M354.4,95v95.5h-22.2v21.4h25.3H378h23.3v-21.4h-20.1V81.7L354.4,95z"/>
	<path id="s-i-head" class="st5" d="M354.4,21.8V-5h26.8v26.8H354.4z"/>
	<path id="s-d" class="st5" d="M583.2-5h-26.8v71.7c-10.4-7.2-23.6-11.2-38.6-11.2H511c-29.6,0-52,15-60.2,41.1
		c-3.5,10.5-5.1,21-5.1,38.6c0,17.9,1.6,28.4,5.1,38.9c8.3,25.8,30.6,41.1,60.2,41.1h6.9c15,0,32.8-7.2,38.6-17.5v14h26.8L583.2-5
		L583.2-5z M552.2,166.5c-5.1,15.3-17.5,23.9-34.4,23.9H511c-16.9,0-29.3-8.6-34.4-23.9c-2.6-8.3-3.5-16.6-3.5-31.2
		c0-14.7,1-22.6,3.5-30.9c5.1-15.3,17.5-23.9,34.4-23.9h6.9c16.9,0,29.3,8.6,34.4,23.9c2.5,8.3,3.5,16.3,3.5,30.9
		S554.6,158.2,552.2,166.5z"/>
</g>
<g class="st6">
	<path class="st7" d="M319.5,234.4L319.5,234.4c-8.8,0-15.9-7.2-15.9-15.9V101.2c0-8.8,7.2-15.9,15.9-15.9l0,0
		c8.8,0,15.9,7.2,15.9,15.9v117.1C335.6,227.2,328.5,234.4,319.5,234.4z"/>
	<circle class="st7" cx="319.5" cy="47.6" r="15.9"/>
	<circle class="st7" cx="276" cy="221.3" r="14.7"/>
	<path class="st7" d="M496.3,145.3v-23.4v-19.4V91.3V46.2c0-8-6.5-14.5-14.5-14.5s-14.5,6.5-14.5,14.5v44.9h-47.8l0,0
		c-40.3,1.6-72.7,33.2-72.7,71.9c0,39.8,33.9,72,75.9,72c35.4,0,68.4-22.5,72.7-54.3C496.6,172.1,496.3,145.3,496.3,145.3z
		 M467.3,165.2L467.3,165.2c-0.2,23.9-20.2,43.2-44.9,43.2c-24.9,0-44.9-19.4-44.9-43.2c0-23.7,20.1-43.2,44.9-43.2
		c0.2,0,0.2,0,0.3,0h44.8v43.2H467.3z"/>
</g>
<g>
	<path class="st8" d="M481.5,89.6c0-0.7,0-1.3,0-1.9c0-11.4,0.3-22.8-0.1-34.2c-0.3-9.6,7.7-20.3,18.9-21.6
		c10.1-1.2,19.9,5.7,22.5,14.3c0.7,2.4,1.1,4.8,1.1,7.3c0,35.2,0.1,70.5,0,105.7c-0.1,18.1-6.1,34.2-17.6,48.2
		c-11.5,14-26,23.3-43.6,27.7c-8,2-16.2,2.3-24.4,1.6c-15.1-1.4-28.5-7.2-40.3-16.5c-15.4-12.1-25.6-27.8-29.2-47.1
		c-4.3-22.5,1.2-43,15.2-61.1c11-14.1,25.3-23.6,42.6-28.4c7.7-2.2,15.7-2.9,23.7-2.4c10.7,0.6,21,3.2,30.5,8.2
		C480.9,89.4,481.1,89.4,481.5,89.6z M445.6,194.9c17.7,0.5,35.6-15.5,35.8-35.4c0.2-20.9-16.2-35.5-33.8-36.4
		c-21-1.1-38,16.1-38.2,35.5C409.2,180.1,427.6,195.1,445.6,194.9z"/>
	<path class="st8" d="M310.4,158.8c0-19,0-38,0-57.1c0-10,8.4-19,18.4-20.5c12.1-1.8,20.6,7.2,22.7,16.6c0.5,2.1,0.7,4.3,0.7,6.5
		c0,37.3,0,74.6,0,112c0,10.7-7.1,19.1-18.4,20.5c-10.8,1.4-20.1-5.4-22.7-16c-0.5-1.9-0.7-3.8-0.7-5.8
		C310.4,196.3,310.4,177.6,310.4,158.8z"/>
	<path class="st8" d="M276.3,237c-12.8-0.1-21.6-9-21.5-21.9c0.1-10.6,9.5-20.1,21.3-20.2c11.9-0.1,20.8,10.8,20.5,21.7
		C296.3,227.5,287,237.1,276.3,237z"/>
	<path class="st8" d="M331.8,73.8c-12.7,0-21.4-8.8-21.4-21.6c0-10.8,9.6-20.4,21.4-20.5c11.7,0,20.5,10.4,20.4,21.1
		C352.2,64.2,342.3,74.3,331.8,73.8z"/>
</g>
</svg>
