<svg height="100" viewBox="0 0 100 100" width="100" xmlns="http://www.w3.org/2000/svg"><path d="m74 60v-54h-5c-.552 0-1-.448-1-1v-3h-12v3c0 .552-.448 1-1 1h-5v5 49h-2v-48h-22v17 1 30h-2v-30h-22v30h-2v-31c0-.552.448-1 1-1h23v-17c0-.552.448-1 1-1h23v-5c0-.552.448-1 1-1h5v-3c0-.552.448-1 1-1h14c.552 0 1 .448 1 1v3h5c.552 0 1 .448 1 1v55zm-69-28h6c.552 0 1 .448 1 1v6c0 .552-.448 1-1 1h-6c-.552 0-1-.448-1-1v-6c0-.552.448-1 1-1zm1 6h4v-4h-4zm9-6h6c.552 0 1 .448 1 1v6c0 .552-.448 1-1 1h-6c-.552 0-1-.448-1-1v-6c0-.552.448-1 1-1zm1 6h4v-4h-4zm13-24h6c.552 0 1 .448 1 1v6c0 .552-.448 1-1 1h-6c-.552 0-1-.448-1-1v-6c0-.552.448-1 1-1zm1 6h4v-4h-4zm-1 4h6c.552 0 1 .448 1 1v6c0 .552-.448 1-1 1h-6c-.552 0-1-.448-1-1v-6c0-.552.448-1 1-1zm1 6h4v-4h-4zm9-16h6c.552 0 1 .448 1 1v6c0 .552-.448 1-1 1h-6c-.552 0-1-.448-1-1v-6c0-.552.448-1 1-1zm1 6h4v-4h-4zm-1 4h6c.552 0 1 .448 1 1v6c0 .552-.448 1-1 1h-6c-.552 0-1-.448-1-1v-6c0-.552.448-1 1-1zm1 6h4v-4h-4zm17-20h10c.552 0 1 .448 1 1v5.999c0 .552-.448 1-1 1h-10c-.552 0-1-.448-1-1v-5.999c0-.552.448-1 1-1zm1 6h8v-4h-8zm-1 4h10c.552 0 1 .448 1 1v6c0 .552-.448 1-1 1h-10c-.552 0-1-.448-1-1v-6c0-.552.448-1 1-1zm1 6h8v-4h-8zm-1 20h10c.552 0 1 .448 1 1v13h-2v-12h-8v12h-2v-13c0-.552.448-1 1-1z" fill="#cccbcb" transform="translate(12 21)"/><path d="m0 0h100v2h-100z" fill="#fc0" transform="translate(0 79)"/></svg>