<svg height="98" viewBox="0 0 98 98" width="98" xmlns="http://www.w3.org/2000/svg"><path d="m73.99 64.005v-24h-20v24h-2v-24-2-6.852l-3.517-2.124c-.3-.181-.483-.506-.483-.856v-8.509l-3.49-1.963c-.315-.177-.51-.511-.51-.872v-8.824h-10v8.83c0 .361-.195.694-.51.872l-3.49 1.963v8.502c0 .35-.183.675-.483.856l-3.517 2.124v3.853 25 4h-2v-4-24h-22v28h-2v-29c0-.552.448-1 1-1h23v-3.434c0-.351.185-.677.486-.857l3.514-2.107v-8.547c0-.345.178-.665.47-.848l3.53-2.207v-9c0-.552.448-1 1-1h5v-6h2v6h5c.552 0 1 .448 1 1v9l3.531 2.213c.292.183.469.503.469.847v8.541l3.517 2.125c.3.181.483.505.483.856v7.418h21c.552 0 1 .448 1 1v25zm-69-26h6c.552 0 1 .447 1 1v6c0 .552-.448 1-1 1h-6c-.552 0-1-.448-1-1v-6c0-.553.448-1 1-1zm1 6h4v-4h-4zm9-6h6c.552 0 1 .447 1 1v6c0 .552-.448 1-1 1h-6c-.552 0-1-.448-1-1v-6c0-.553.448-1 1-1zm1 6h4v-4h-4zm15-12h6c.552 0 1 .447 1 1v6c0 .552-.448 1-1 1h-6c-.552 0-1-.448-1-1v-6c0-.553.448-1 1-1zm1 6h4v-4h-4zm5-10c-.552 0-1-.448-1-1v-4c0-.553.448-1 1-1h4c.552 0 1 .447 1 1v4c0 .552-.448 1-1 1zm3-4h-2v2h2zm1 8h6c.552 0 1 .447 1 1v6c0 .552-.448 1-1 1h-6c-.552 0-1-.448-1-1v-6c0-.553.448-1 1-1zm1 6h4v-4h-4zm16 8.68c.137-.404.515-.678.942-.68h10.104c.433-.003.817.273.954.684l1.561 4c.216.647-.266 1.316-.948 1.316h-.613v12h-2v-12h-8v12h-2v-12h-.608c-.684 0-1.166-.671-.947-1.32zm11 3.32-1-2h-8l-1 2z" fill="#cccbcb" transform="translate(12 17)"/><path d="m0 0h100v2h-100z" fill="#fc0" transform="translate(0 79)"/></svg>