<svg xmlns="http://www.w3.org/2000/svg" viewBox="0 0 67 67">
    <defs>
        <linearGradient id="a" x1="-.012%" x2="100.049%" y1="49.991%" y2="49.991%">
            <stop offset="0%" stop-color="#00E094"/>
            <stop offset="100%" stop-color="#08BF7E"/>
        </linearGradient>
    </defs>
    <g fill="none" fill-rule="evenodd">
        <path fill="url(#a)" fill-rule="nonzero" d="M41.94 19.776a1.804 1.804 0 0 1-1.572-.924l-5.2-9.336a6.556 6.556 0 0 0-2.984 3.88 1.802 1.802 0 1 1-3.464-.996c.924-3.2 3.176-5.58 6.504-6.924a1.804 1.804 0 0 1 2.248.8l6.04 10.828a1.8 1.8 0 0 1-.712 2.44c-.262.15-.558.23-.86.232z"/>
        <path fill="#1A171B" fill-rule="nonzero" d="M25.096 61.552a1.812 1.812 0 0 1-1.112-.4l-10.4-8.16a1.796 1.796 0 0 1-.164-2.688l4.44-4.44a1.805 1.805 0 0 1 2.54 2.564l-3 3 6.452 5.068c.172-.8.376-1.72.62-2.64 1.24-4.668 2.628-6.756 4.64-6.98a20.104 20.104 0 0 1 3.176.068c3.4.22 8.54.56 12.056-1.96 4.684-3.352 6.54-7.5 5.852-13.056-.74-6 2.2-6.744 5.92-7.688l1.236-.32A26 26 0 0 1 54 20.94a4.184 4.184 0 0 0-3.016-1.368c-1.864-.056-3.232 1.516-6.4 5.376a166.773 166.773 0 0 1-3.524 4.2 1.8 1.8 0 0 1-2.772-.072 21.371 21.371 0 0 1-.532-.716c-1.664-2.264-5.552-7.56-13.396-8.808l-16.84-2.66A29.64 29.64 0 0 0 10 24.988c3.388 7.1 9.2 11.772 17.28 13.888a1.8 1.8 0 1 1-.912 3.484C14.904 39.356 9.34 32.024 6.692 26.4a31.494 31.494 0 0 1-3.004-11.6 1.805 1.805 0 0 1 2.08-1.816L24.92 16c8.132 1.28 12.596 6.128 14.876 9.084.728-.864 1.388-1.672 2-2.4 3.344-4.088 5.564-6.8 9.268-6.696a7.772 7.772 0 0 1 5.544 2.5A25.2 25.2 0 0 0 60.84 22l1.6 1.084a1.8 1.8 0 0 1-.4 3.2 50.28 50.28 0 0 1-5.012 1.484c-1.42.36-2.648.672-3.044 1.076-.396.404-.312 1.672-.184 2.684.844 6.8-1.624 12.336-7.332 16.424-4.564 3.268-10.476 2.88-14.4 2.624-.936-.064-1.824-.12-2.36-.096-.872.856-2.192 5.304-2.824 9.576a1.788 1.788 0 0 1-1.112 1.408 1.756 1.756 0 0 1-.676.088z"/>
        <path d="M0 0h66.896v66.896H0z"/>
    </g>
</svg>
