<svg xmlns="http://www.w3.org/2000/svg" viewBox="0 0 32 32">
    <g fill="none" fill-rule="evenodd" stroke="#FFF" stroke-width="2">
        <path d="M26.663 27.716l.004.284H5.333c0-4.99 3.428-9.181 8.058-10.345.7.539 1.612.864 2.609.864.997 0 1.91-.325 2.61-.862 4.541 1.14 7.926 5.194 8.053 10.059z"/>
        <path stroke-linecap="round" d="M19.488 15.016a6.667 6.667 0 1 0-7.018-.026"/>
        <path d="M13.62 9.333h5.089a.267.267 0 0 1 .265.292c-.185 1.955-1.122 2.933-2.81 2.933-1.687 0-2.623-.978-2.809-2.933a.267.267 0 0 1 .266-.292z"/>
    </g>
</svg>
