<?xml version="1.0" encoding="utf-8"?>
<!-- Generator: Adobe Illustrator 24.0.0, SVG Export Plug-In . SVG Version: 6.00 Build 0)  -->
<svg version="1.1" xmlns="http://www.w3.org/2000/svg" xmlns:xlink="http://www.w3.org/1999/xlink" x="0px" y="0px"
	 viewBox="0 0 226.5 54" enable-background="new 0 0 226.5 54" xml:space="preserve">
<g id="Слой_2">
</g>
<g id="Слой_1">
</g>
<g id="Слой_3">
	<g>
		<path fill="#0071BC" d="M56.543,35.38c0,0.445-0.28,0.717-0.84,0.816c-0.198,0.033-0.594,0.05-1.187,0.05
			c-3.032,0-5.579-0.972-7.639-2.918c-2.142-2.009-3.214-4.581-3.214-7.713c0-2.175,0.622-3.861,1.867-5.056
			c1.244-1.194,2.913-1.792,5.006-1.792h5.043c0.264,0,0.473,0.062,0.63,0.185c0.156,0.125,0.235,0.302,0.235,0.532
			c0,0.149-0.041,0.281-0.124,0.396c-0.148,0.214-0.395,0.32-0.741,0.32h-4.352c-1.962,0-3.395,0.421-4.301,1.261
			c-1.022,0.957-1.533,2.391-1.533,4.303c0,2.439,0.832,4.499,2.497,6.18c1.763,1.78,4.03,2.67,6.798,2.67h0.668
			c0.313,0,0.589,0.029,0.828,0.087S56.543,34.985,56.543,35.38z"/>
		<path fill="#0071BC" d="M63.713,24.119c0,0.26-0.091,0.445-0.272,0.559c-0.115,0.064-0.256,0.097-0.421,0.097
			c-1.072,0-1.87,0.166-2.398,0.497c-0.907,0.562-1.36,1.613-1.36,3.153v6.877c0,0.53-0.247,0.794-0.741,0.794
			c-0.494,0-0.742-0.264-0.742-0.793V24.232c0-0.527,0.248-0.791,0.742-0.791c0.494,0,0.741,0.263,0.741,0.79v0.767
			c0.313-0.494,0.701-0.866,1.162-1.112c0.545-0.298,1.252-0.445,2.126-0.445c0.362,0,0.646,0.039,0.853,0.12
			C63.61,23.642,63.713,23.828,63.713,24.119z"/>
		<path fill="#0071BC" d="M73.923,25.094c-0.247,1.991-0.923,4.262-2.027,6.814c-1.319,3.044-3.008,5.842-5.068,8.393
			c-0.115,0.131-0.223,0.234-0.321,0.308c-0.099,0.074-0.231,0.111-0.396,0.111c-0.494,0-0.741-0.214-0.741-0.642
			c0-0.147,0.028-0.279,0.087-0.395c0.057-0.115,0.144-0.246,0.259-0.395c0.198-0.263,0.453-0.6,0.767-1.012
			c0.412-0.56,0.84-1.185,1.285-1.876c-1.302-1.777-2.332-3.53-3.09-5.258c-0.758-1.728-1.252-3.489-1.483-5.284
			c-0.033-0.378-0.058-0.658-0.074-0.838s-0.024-0.361-0.024-0.544c0-0.296,0.037-0.542,0.111-0.74
			c0.074-0.197,0.268-0.296,0.581-0.296c0.231,0,0.421,0.073,0.569,0.222c0.148,0.149,0.223,0.371,0.223,0.668
			c0.165,1.747,0.445,3.246,0.841,4.499c0.659,2.093,1.738,4.162,3.238,6.205c1.269-2.093,2.217-4.136,2.843-6.13
			c0.396-1.253,0.733-2.793,1.014-4.623c0.049-0.248,0.099-0.421,0.148-0.519c0.131-0.214,0.337-0.32,0.618-0.32
			c0.247,0,0.424,0.087,0.532,0.258c0.107,0.173,0.16,0.416,0.16,0.729c0,0.115,0,0.222,0,0.32
			C73.939,24.912,73.923,25.028,73.923,25.094z"/>
		<path fill="#0071BC" d="M86.062,30.748c0,1.485-0.412,2.699-1.236,3.641c-0.989,1.139-2.464,1.709-4.425,1.709h-3.832v3.841
			c0,0.521-0.247,0.782-0.741,0.782s-0.742-0.263-0.742-0.79V24.23c0-0.527,0.248-0.79,0.742-0.79h1.558
			c2.324,0,4.326,0.652,6.007,1.956C85.172,26.783,86.062,28.568,86.062,30.748z M84.479,30.872c0-1.801-0.696-3.269-2.088-4.4
			c-1.394-1.132-3.218-1.697-5.476-1.697h-0.346v9.987h3.387c1.203,0,2.142-0.181,2.818-0.545
			C83.911,33.606,84.479,32.491,84.479,30.872z"/>
		<path fill="#0071BC" d="M93.553,35.43c0,0.264-0.115,0.453-0.346,0.568c-0.148,0.067-0.289,0.099-0.42,0.099h-1.756
			c-1.302,0-2.167-0.33-2.596-0.99c-0.362-0.545-0.544-1.405-0.544-2.578v-7.754h-0.989c-0.214,0-0.396-0.058-0.544-0.173
			c-0.149-0.115-0.223-0.281-0.223-0.495c0-0.279,0.095-0.462,0.284-0.544c0.189-0.082,0.374-0.123,0.557-0.123h0.914v-2.547
			c0-0.527,0.248-0.791,0.742-0.791c0.494,0,0.741,0.264,0.741,0.791v2.547h2.917c0.198,0,0.355,0.024,0.47,0.073
			c0.248,0.117,0.371,0.314,0.371,0.594c0,0.264-0.115,0.454-0.346,0.568c-0.149,0.067-0.289,0.1-0.421,0.1h-2.991v7.484
			c0,0.876,0.103,1.513,0.309,1.909c0.206,0.396,0.581,0.594,1.125,0.594h1.904c0.197,0,0.354,0.026,0.469,0.074
			C93.429,34.952,93.553,35.149,93.553,35.43z"/>
		<path fill="#0071BC" d="M105.073,29.768c0,1.765-0.437,3.223-1.31,4.376c-1.022,1.352-2.505,2.028-4.45,2.028
			c-1.912,0-3.387-0.676-4.425-2.028c-0.89-1.17-1.335-2.628-1.335-4.376c0-1.829,0.523-3.357,1.57-4.585
			c1.047-1.227,2.443-1.841,4.191-1.841c1.731,0,3.123,0.614,4.178,1.841C104.545,26.411,105.073,27.939,105.073,29.768z
			 M103.491,29.744c0-1.384-0.339-2.538-1.014-3.462c-0.759-1.037-1.814-1.557-3.165-1.557c-1.335,0-2.382,0.519-3.14,1.557
			c-0.693,0.94-1.039,2.095-1.039,3.462c0,1.533,0.363,2.757,1.088,3.671s1.755,1.373,3.09,1.373c1.318,0,2.344-0.459,3.078-1.373
			C103.124,32.5,103.491,31.276,103.491,29.744z"/>
	</g>
	<g>
		<path fill="#0071BC" d="M126.111,35.42c0,0.577-0.083,0.957-0.248,1.138c-0.214,0.248-0.676,0.371-1.384,0.371
			c-3.164,0-5.917-0.741-8.257-2.225c-2.934-1.862-4.401-4.532-4.401-8.011c0-2.933,0.939-4.985,2.818-6.154
			c1.154-0.726,2.604-1.089,4.352-1.089h5.982c0.264,0,0.474,0.062,0.631,0.185c0.156,0.125,0.235,0.302,0.235,0.532
			c0,0.149-0.042,0.281-0.124,0.396c-0.148,0.214-0.396,0.32-0.742,0.32h-5.982c-1.846,0-3.214,0.471-4.104,1.41
			c-0.89,0.94-1.335,2.357-1.335,4.253c0,2.818,1.12,5.035,3.362,6.65c2.011,1.451,4.532,2.177,7.565,2.177v-9.914h-4.598
			c-0.264,0-0.474-0.062-0.63-0.187c-0.156-0.123-0.235-0.299-0.235-0.53c0-0.149,0.041-0.281,0.124-0.396
			c0.148-0.214,0.396-0.32,0.741-0.32h5.439c0.346,0,0.577,0.164,0.693,0.494c0.065,0.197,0.099,0.512,0.099,0.94V35.42z"/>
		<path fill="#0071BC" d="M138.966,29.338c0,0.313-0.033,0.536-0.097,0.667c-0.134,0.264-0.371,0.396-0.717,0.396h-8.976
			c0,1.665,0.482,2.925,1.447,3.782c0.964,0.858,2.319,1.286,4.066,1.286c0.346,0,0.702,0,1.063,0
			c0.298-0.05,0.519-0.084,0.668-0.099l0.89-0.1c0.213-0.032,0.38-0.053,0.495-0.061c0.115-0.009,0.231-0.012,0.346-0.012
			c0.228,0,0.407,0.046,0.532,0.135c0.122,0.091,0.185,0.26,0.185,0.507c0,0.263-0.125,0.462-0.371,0.592
			c-0.149,0.084-0.374,0.141-0.668,0.173l-1.51,0.149c-0.592,0.065-1.252,0.099-1.978,0.099c-2.175,0-3.844-0.564-5.005-1.694
			c-1.162-1.129-1.743-2.673-1.743-4.636c0-1.944,0.564-3.515,1.694-4.709c1.129-1.195,2.591-1.792,4.388-1.792
			c1.665,0,2.982,0.551,3.957,1.656C138.522,26.685,138.966,27.904,138.966,29.338z M137.383,29.066c0-1.104-0.368-1.99-1.1-2.658
			c-0.732-0.667-1.628-1.001-2.682-1.001c-1.088,0-2.016,0.334-2.782,1.001c-0.766,0.668-1.265,1.546-1.495,2.634L137.383,29.066z"
			/>
		<path fill="#0071BC" d="M151.377,29.338c0,0.313-0.033,0.536-0.099,0.667c-0.132,0.264-0.371,0.396-0.717,0.396h-8.975
			c0,1.665,0.483,2.925,1.446,3.782c0.964,0.858,2.321,1.286,4.068,1.286c0.346,0,0.7,0,1.063,0c0.296-0.05,0.519-0.084,0.667-0.099
			l0.89-0.1c0.214-0.032,0.38-0.053,0.495-0.061c0.115-0.009,0.231-0.012,0.346-0.012c0.229,0,0.407,0.046,0.532,0.135
			c0.123,0.091,0.185,0.26,0.185,0.507c0,0.263-0.125,0.462-0.371,0.592c-0.149,0.084-0.372,0.141-0.668,0.173l-1.508,0.149
			c-0.592,0.065-1.253,0.099-1.978,0.099c-2.175,0-3.844-0.564-5.006-1.694c-1.162-1.129-1.742-2.673-1.742-4.636
			c0-1.944,0.563-3.515,1.692-4.709c1.13-1.195,2.593-1.792,4.39-1.792c1.663,0,2.982,0.551,3.955,1.656
			C150.932,26.685,151.377,27.904,151.377,29.338z M149.794,29.066c0-1.104-0.368-1.99-1.1-2.658
			c-0.734-0.667-1.628-1.001-2.682-1.001c-1.088,0-2.016,0.334-2.781,1.001c-0.767,0.668-1.265,1.546-1.496,2.634L149.794,29.066z"
			/>
		<path fill="#0071BC" d="M163.244,35.689c0,0.43-0.055,0.72-0.161,0.869c-0.108,0.147-0.293,0.222-0.556,0.222
			c-0.281,0-0.478-0.094-0.594-0.284c-0.115-0.191-0.173-0.401-0.173-0.633c0-2.149-0.747-3.844-2.242-5.084
			c-1.381-1.141-3.089-1.712-5.125-1.712v6.92c0,0.529-0.248,0.793-0.743,0.793c-0.494,0-0.741-0.263-0.741-0.791V20.242
			c0-0.529,0.248-0.793,0.741-0.793c0.495,0,0.743,0.264,0.743,0.791v7.491c1.829,0,3.313-0.354,4.449-1.063
			c0.775-0.477,1.467-1.186,2.078-2.126c0.099-0.147,0.164-0.238,0.197-0.272c0.115-0.099,0.263-0.147,0.445-0.147
			c0.412,0,0.618,0.214,0.618,0.642c0,0.395-0.194,0.857-0.582,1.384c-0.387,0.529-0.837,0.974-1.347,1.335
			c-0.609,0.43-1.309,0.743-2.101,0.94c1.533,0.462,2.777,1.331,3.732,2.603c0.907,1.206,1.361,2.512,1.361,3.917V35.689z"/>
	</g>
	<g>
		<path fill="#0071BC" d="M184.571,30.255c0,1.75-0.544,3.237-1.632,4.458c-1.236,1.402-2.925,2.104-5.068,2.104h-5.785
			c-0.264,0-0.475-0.061-0.631-0.185c-0.156-0.123-0.235-0.301-0.235-0.532c0-0.147,0.041-0.279,0.124-0.395
			c0.148-0.214,0.396-0.322,0.742-0.322h5.463c1.731,0,3.073-0.503,4.03-1.51c0.841-0.892,1.261-2.031,1.261-3.417
			c0-1.255-0.437-2.195-1.31-2.822c-0.56-0.396-1.418-0.702-2.571-0.917l-2.892-0.544c-1.649-0.314-2.736-0.627-3.263-0.942
			c-0.841-0.495-1.261-1.312-1.261-2.451c0-0.923,0.256-1.666,0.767-2.228c0.642-0.709,1.615-1.065,2.917-1.065h6.502
			c0.264,0,0.474,0.062,0.63,0.185c0.156,0.125,0.235,0.302,0.235,0.532c0,0.149-0.042,0.281-0.124,0.396
			c-0.148,0.214-0.396,0.32-0.742,0.32h-6.007c-0.676,0-1.17,0.067-1.483,0.199c-0.643,0.264-0.964,0.791-0.964,1.584
			c0,0.644,0.264,1.098,0.791,1.362c0.313,0.166,0.989,0.33,2.027,0.495l2.275,0.371c1.911,0.314,3.296,0.735,4.153,1.264
			C183.887,27.053,184.571,28.406,184.571,30.255z"/>
		<path fill="#0071BC" d="M191.938,36.15c0,0.264-0.115,0.453-0.346,0.568c-0.148,0.067-0.289,0.099-0.42,0.099h-1.756
			c-1.302,0-2.167-0.33-2.596-0.99c-0.362-0.545-0.544-1.405-0.544-2.578v-7.754h-0.989c-0.214,0-0.396-0.058-0.544-0.173
			c-0.149-0.115-0.223-0.281-0.223-0.495c0-0.279,0.095-0.462,0.284-0.544s0.374-0.123,0.557-0.123h0.914v-2.547
			c0-0.527,0.248-0.791,0.742-0.791c0.494,0,0.741,0.264,0.741,0.791v2.547h2.917c0.198,0,0.355,0.024,0.47,0.073
			c0.248,0.117,0.371,0.314,0.371,0.594c0,0.264-0.115,0.454-0.346,0.568c-0.149,0.067-0.289,0.1-0.421,0.1h-2.991v7.484
			c0,0.876,0.103,1.513,0.309,1.909c0.206,0.396,0.581,0.594,1.125,0.594h1.904c0.197,0,0.354,0.026,0.469,0.074
			C191.815,35.671,191.938,35.869,191.938,36.15z"/>
		<path fill="#0071BC" d="M203.458,30.487c0,1.765-0.434,3.223-1.309,4.376c-1.021,1.352-2.506,2.028-4.45,2.028
			c-1.911,0-3.387-0.676-4.424-2.028c-0.89-1.17-1.335-2.628-1.335-4.376c0-1.829,0.523-3.357,1.571-4.585
			c1.045-1.227,2.442-1.841,4.189-1.841c1.732,0,3.123,0.614,4.18,1.841C202.932,27.13,203.458,28.658,203.458,30.487z
			 M201.878,30.463c0-1.384-0.34-2.538-1.015-3.462c-0.759-1.037-1.814-1.557-3.165-1.557c-1.334,0-2.382,0.519-3.138,1.557
			c-0.693,0.94-1.039,2.095-1.039,3.462c0,1.533,0.361,2.757,1.088,3.671s1.756,1.373,3.089,1.373c1.318,0,2.345-0.459,3.077-1.373
			C201.51,33.22,201.878,31.995,201.878,30.463z"/>
		<path fill="#0071BC" d="M210.874,24.838c0,0.26-0.09,0.445-0.272,0.559c-0.115,0.064-0.255,0.097-0.419,0.097
			c-1.072,0-1.871,0.166-2.398,0.497c-0.907,0.562-1.359,1.613-1.359,3.153v6.877c0,0.53-0.248,0.794-0.743,0.794
			c-0.494,0-0.741-0.264-0.741-0.793V24.951c0-0.527,0.248-0.791,0.741-0.791c0.495,0,0.743,0.263,0.743,0.79v0.767
			c0.313-0.494,0.7-0.866,1.162-1.112c0.544-0.298,1.252-0.445,2.125-0.445c0.363,0,0.647,0.039,0.854,0.12
			C210.772,24.362,210.874,24.547,210.874,24.838z"/>
		<path fill="#0071BC" d="M222,29.375c0,0.313-0.033,0.536-0.099,0.667c-0.132,0.264-0.371,0.396-0.717,0.396h-8.975
			c0,1.665,0.483,2.925,1.446,3.782c0.964,0.858,2.321,1.286,4.068,1.286c0.346,0,0.7,0,1.063,0c0.296-0.05,0.519-0.084,0.667-0.099
			l0.89-0.1c0.214-0.032,0.38-0.053,0.495-0.061c0.115-0.009,0.231-0.012,0.346-0.012c0.229,0,0.407,0.046,0.532,0.135
			c0.123,0.091,0.185,0.26,0.185,0.507c0,0.263-0.125,0.462-0.371,0.592c-0.149,0.084-0.372,0.141-0.668,0.173l-1.508,0.149
			c-0.592,0.065-1.253,0.099-1.978,0.099c-2.175,0-3.844-0.564-5.006-1.694c-1.162-1.129-1.742-2.673-1.742-4.636
			c0-1.944,0.564-3.515,1.692-4.709c1.13-1.195,2.593-1.792,4.39-1.792c1.663,0,2.982,0.551,3.955,1.656
			C221.555,26.722,222,27.942,222,29.375z M220.417,29.104c0-1.104-0.368-1.99-1.1-2.658c-0.734-0.667-1.628-1.001-2.682-1.001
			c-1.088,0-2.016,0.334-2.781,1.001c-0.767,0.668-1.265,1.546-1.496,2.634L220.417,29.104z"/>
	</g>
	<path fill="#0071BC" d="M26.633,15.966c-1.422-0.914-2.874-1.447-4.397-1.74c-8.53-1.644-16.198,3.821-17.406,12.461
		c-0.352,2.515-0.001,5,1.02,7.361c0.164,0.38,0.289,0.532,0.731,0.267c1.794-1.076,3.608-2.12,5.432-3.143
		c0.442-0.248,0.514-0.483,0.398-0.979c-1.117-4.778,2.33-8.982,7.225-8.809c1.8,0.063,3.356,0.786,4.615,2.067
		c0.358,0.365,0.576,0.326,0.968,0.096c2.413-1.417,4.848-2.796,7.261-4.211c0.407-0.239,0.612-0.253,0.901,0.187
		c4.035,6.149,3.177,15.022-1.957,20.319c-3.824,3.946-8.482,5.665-13.921,5.181c-3.596-0.32-6.745-1.773-9.438-4.188
		c-0.09-0.081-0.174-0.171-0.254-0.262c-0.031-0.035-0.045-0.085-0.094-0.182c1.7-0.981,3.436-1.912,5.091-2.968
		c0.83-0.529,1.44-0.504,2.352-0.102c3.706,1.631,7.275,1.208,10.388-1.394c2.97-2.482,3.994-5.778,3.284-9.577
		c-0.099-0.529-0.029-0.773,0.44-1.033c1.404-0.778,1.392-0.799,1.738,0.775c1.414,6.419-3.182,13.125-9.696,14.147
		c-2.181,0.343-4.32,0.2-6.384-0.615c-0.411-0.162-0.727-0.141-1.088,0.088c-0.614,0.39-1.249,0.745-1.955,1.162
		c0.866,0.674,1.821,1.013,2.769,1.331c8.399,2.817,17.437-2.607,18.892-11.345c0.457-2.746,0.176-5.426-0.902-8.012
		c-0.169-0.405-0.286-0.585-0.761-0.3c-1.814,1.09-3.648,2.147-5.492,3.186c-0.401,0.226-0.444,0.435-0.339,0.868
		c1.095,4.518-1.945,8.671-6.564,8.893c-2,0.096-3.787-0.601-5.208-2.054c-0.365-0.373-0.615-0.38-1.046-0.126
		c-2.389,1.408-4.808,2.765-7.191,4.181c-0.513,0.305-0.717,0.192-1.006-0.269c-6.028-9.605-0.669-22.565,10.407-25.046
		c5.574-1.249,10.549,0.083,14.909,3.758c0.364,0.306,0.523,0.488-0.041,0.803c-1.785,0.994-3.544,2.035-5.294,3.091
		c-0.394,0.238-0.666,0.204-1.055-0.009c-6.061-3.326-13.567,0.485-14.474,7.357c-0.15,1.133-0.131,2.289,0.179,3.407
		c0.115,0.414,0.071,0.664-0.346,0.881c-1.679,0.873-1.499,1.332-1.881-0.909c-1.139-6.687,3.05-12.655,9.709-13.95
		c2.201-0.428,4.36-0.158,6.447,0.652c0.348,0.135,0.624,0.145,0.949-0.063C25.197,16.787,25.871,16.414,26.633,15.966z"/>
	<path fill="#FEFEFE" d="M14.539,28.401c0.006-2.649,2.074-4.702,4.731-4.698c2.631,0.004,4.691,2.097,4.679,4.753
		c-0.012,2.638-2.123,4.747-4.733,4.728C16.606,33.167,14.532,31.045,14.539,28.401z"/>
</g>
</svg>
