<svg xmlns="http://www.w3.org/2000/svg" xmlns:xlink="http://www.w3.org/1999/xlink" width="21" height="18" viewBox="0 0 21 18">
  <defs>
    <clipPath id="clip-path">
      <path id="Path_124" data-name="Path 124" d="M30.526-27.154a4.51,4.51,0,0,0,1.893-2.513,8.355,8.355,0,0,1-2.736,1.1A4.194,4.194,0,0,0,26.539-30a4.43,4.43,0,0,0-4.307,4.544,4.754,4.754,0,0,0,.11,1.035,12.033,12.033,0,0,1-8.88-4.748,4.724,4.724,0,0,0-.583,2.285A4.616,4.616,0,0,0,14.8-23.1a4.154,4.154,0,0,1-1.952-.568v.056A4.489,4.489,0,0,0,16.3-19.158a4.01,4.01,0,0,1-1.136.16,4.051,4.051,0,0,1-.81-.081,4.345,4.345,0,0,0,4.024,3.155,8.364,8.364,0,0,1-5.351,1.945A8.137,8.137,0,0,1,12-14.041,11.748,11.748,0,0,0,18.6-12c7.926,0,12.257-6.924,12.257-12.929,0-.2,0-.394-.011-.588A9.006,9.006,0,0,0,33-27.869,8.257,8.257,0,0,1,30.526-27.154Z" stroke="#707070" stroke-width="1" clip-rule="evenodd"/>
    </clipPath>
    <clipPath id="clip-path-2">
      <path id="Path_123" data-name="Path 123" d="M-100,500H564V-84H-100Z" stroke="#707070" stroke-width="1"/>
    </clipPath>
  </defs>
  <g id="Group_415" data-name="Group 415" transform="translate(-12 30)" clip-path="url(#clip-path)">
    <g id="Group_414" data-name="Group 414" clip-path="url(#clip-path-2)">
      <path id="Path_122" data-name="Path 122" d="M7-35H38V-7H7Z" stroke="#707070" stroke-width="1"/>
    </g>
  </g>
</svg>
