<svg height="98" viewBox="0 0 98 98" width="98" xmlns="http://www.w3.org/2000/svg"><path d="m79.584 39.427c-.242.358-.644.573-1.075.573h-2.505v15.999h-2v-15.999h-24v15.999h-2v-15.999h-2.7c-.429 0-.829-.213-1.072-.569-.245-.357-.295-.812-.137-1.215l3.761-9.39c.037-.095.092-.177.148-.259v-26.567h-22v19 1 33.999h-2v-33.999h-3c-.552 0-1-.448-1-1v-3.001h-14v3.001c0 .552-.448 1-1 1h-3v33.999h-2v-34.999c0-.553.448-1 1-1h3v-3.001c0-.552.448-1 1-1h16c.552 0 1 .448 1 1v3.001h2v-19c0-.553.448-1 1-1h24c.552 0 1 .447 1 1v27h24.656c.534 0 1.008.322 1.206.82l3.847 9.384c.163.405.114.862-.129 1.223zm-5.398-9.427h-24.182-.461l-3.215 7.999h31.147zm-67.182-6h12c.552 0 1 .447 1 1v3.999c0 .553-.448 1.001-1 1.001h-12c-.552 0-1-.448-1-1.001v-3.999c0-.553.448-1 1-1zm1 4h10v-2h-10zm-1 4h12c.552 0 1 .447 1 1v4c0 .552-.448.999-1 .999h-12c-.552 0-1-.447-1-.999v-4c0-.553.448-1 1-1zm1 3.999h10v-1.999h-10zm21-31.999h6c.552 0 1 .447 1 .999v6.001c0 .552-.448.999-1 .999h-6c-.552 0-1-.447-1-.999v-6.001c0-.552.448-.999 1-.999zm1 5.999h4v-3.999h-4zm-1 4h6c.552 0 1 .448 1 1.001v6c0 .552-.448 1-1 1h-6c-.552 0-1-.448-1-1v-6c0-.553.448-1.001 1-1.001zm1 6.001h4v-4.001h-4zm9-16h6c.552 0 1 .447 1 .999v6.001c0 .552-.448.999-1 .999h-6c-.552 0-1-.447-1-.999v-6.001c0-.552.448-.999 1-.999zm1 5.999h4v-3.999h-4zm-1 4h6c.552 0 1 .448 1 1.001v6c0 .552-.448 1-1 1h-6c-.552 0-1-.448-1-1v-6c0-.553.448-1.001 1-1.001zm1 6.001h4v-4.001h-4zm17.007 24h9.961s1.032 0 1.032.999v11h-2v-9.999h-8v9.999h-2s0-10.437 0-11.218 1.007-.781 1.007-.781z" fill="#cccbcb" transform="translate(12 23)"/><path d="m0 0h100v2h-100z" fill="#fc0" transform="translate(0 79)"/></svg>