<svg xmlns="http://www.w3.org/2000/svg" viewBox="0 0 53.98 53.98"><g id="Layer_2" data-name="Layer 2"><g id="Layer_1-2" data-name="Layer 1"><path class="cls-1" d="M41.28,9.64a3.17,3.17,0,1,0,3.16,3.16A3.15,3.15,0,0,0,41.28,9.64Z"/><path class="cls-1" d="M27.21,13.7a13.29,13.29,0,1,0,10.2,4.77A13.24,13.24,0,0,0,27.21,13.7Zm0,21.8a8.52,8.52,0,1,1,6.71-3.27A8.52,8.52,0,0,1,27.21,35.5Z"/><path class="cls-1" d="M37.76,54H16.21A16.23,16.23,0,0,1,0,37.77V16.21A16.24,16.24,0,0,1,16.21,0H37.76A16.23,16.23,0,0,1,54,16.21V37.77A16.25,16.25,0,0,1,37.76,54ZM16.21,5.08A11.13,11.13,0,0,0,5.08,16.21V37.77A11.13,11.13,0,0,0,16.21,48.9H37.76a11.13,11.13,0,0,0,9.59-5.48,11,11,0,0,0,1.55-5.65V16.21A11.14,11.14,0,0,0,37.76,5.08H16.21Z"/></g></g></svg>