<svg xmlns="http://www.w3.org/2000/svg" viewBox="0 0 54.4 55.52"><defs><style>.cls-1{fill:#fff;}</style></defs><g id="Layer_2" data-name="Layer 2"><g id="Layer_1-2" data-name="Layer 1"><path class="cls-1" d="M51.46,0H2.94A2.94,2.94,0,0,0,0,2.94V52.58a3,3,0,0,0,2.94,2.94H51.46a3,3,0,0,0,2.94-2.94V2.94A2.94,2.94,0,0,0,51.46,0ZM17.08,45.72H9.6v-24h7.48ZM13.34,18.41a4.33,4.33,0,1,1,4.33-4.33A4.33,4.33,0,0,1,13.34,18.41ZM45.05,45.72H37.59V34c0-2.79-.06-6.37-3.88-6.37s-4.48,3-4.48,6.16V45.72H21.76v-24h7.17V25H29A7.86,7.86,0,0,1,36.1,21.1c7.56,0,8.95,5,8.95,11.44Z"/></g></g></svg>