<svg xmlns="http://www.w3.org/2000/svg" viewBox="0 0 52.99 43.62"><g id="Layer_2" data-name="Layer 2"><g id="Layer_1-2" data-name="Layer 1"><path class="cls-1" d="M52.77,5.23a22.12,22.12,0,0,1-5.35,1.53c.86-.15,2.12-1.71,2.63-2.34a9.88,9.88,0,0,0,1.78-3.24c.05-.1.08-.21,0-.28a.33.33,0,0,0-.29,0,27.14,27.14,0,0,1-6.35,2.43.43.43,0,0,1-.44-.11,5,5,0,0,0-.55-.57A11.51,11.51,0,0,0,41.11.78,10.88,10.88,0,0,0,36.39,0a11.15,11.15,0,0,0-4.48,1.27,11.47,11.47,0,0,0-3.62,3,11.12,11.12,0,0,0-2.15,4.32A11.87,11.87,0,0,0,26,13.12c0,.26,0,.29-.22.26a43.08,43.08,0,0,1-9.74-2.54,31.12,31.12,0,0,1-9.9-6.3Q5,3.48,4,2.26c-.25-.29-.39-.29-.6,0A9.57,9.57,0,0,0,2.14,9.13a11.23,11.23,0,0,0,3.12,6.24A17.1,17.1,0,0,0,6.6,16.55a11.4,11.4,0,0,1-4.22-1.18c-.25-.16-.38-.07-.4.22a6.74,6.74,0,0,0,.07,1.25,11.25,11.25,0,0,0,1.93,5,10.72,10.72,0,0,0,5,4,6.14,6.14,0,0,0,1.4.43,12.29,12.29,0,0,1-4.13.13c-.3-.06-.42.09-.3.38a10.5,10.5,0,0,0,2.65,4.14,13.75,13.75,0,0,0,6,3.13c.39.07.78.07,1.18.16l-.07.07c-1,1.49-4.36,2.59-5.93,3.14a22.12,22.12,0,0,1-3.62.94,20.24,20.24,0,0,1-5.38.22c-.49-.07-.59-.07-.72,0s0,.2.14.32c.61.41,1.24.77,1.87,1.11a29.8,29.8,0,0,0,6,2.41A35,35,0,0,0,20,43.52a31,31,0,0,0,15.42-5.29,28.47,28.47,0,0,0,3.81-3.17,28.31,28.31,0,0,0,7.36-13.25,42.41,42.41,0,0,0,1.25-10.57c0-.35.4-.54.64-.72a21.07,21.07,0,0,0,4.24-4.4A1.34,1.34,0,0,0,53,5.27v0C53,5.09,53,5.13,52.77,5.23Z"/></g></g></svg>