<svg xmlns="http://www.w3.org/2000/svg" viewBox="0 0 54.1 52.91"><defs><style>.cls-1{fill:#fff;}</style></defs><g id="Layer_2" data-name="Layer 2"><g id="Layer_1-2" data-name="Layer 1"><path class="cls-1" d="M44.22,25.2H9.88A9.89,9.89,0,0,0,0,35.09V43a9.86,9.86,0,0,0,9.88,9.88H44.22A9.89,9.89,0,0,0,54.1,43V35.09a9.9,9.9,0,0,0-9.88-9.89ZM17.09,31.39H13.9V47.25H10.82V31.39H7.63v-2.7h9.46Zm9,15.86H23.38v-1.5A6.16,6.16,0,0,1,21.8,47a3.3,3.3,0,0,1-1.59.44,1.69,1.69,0,0,1-1.43-.61A3,3,0,0,1,18.3,45V33.55H21V44.06a1.18,1.18,0,0,0,.17.7.68.68,0,0,0,.56.22,1.61,1.61,0,0,0,.77-.29,3.68,3.68,0,0,0,.85-.74V33.55h2.73v13.7ZM36,44.42a3.41,3.41,0,0,1-.64,2.23,2.27,2.27,0,0,1-1.86.77,3.23,3.23,0,0,1-1.43-.3,3.33,3.33,0,0,1-1.17-.92v1H28.17V28.69h2.77v6a4,4,0,0,1,1.17-1,2.69,2.69,0,0,1,1.26-.33,2.35,2.35,0,0,1,2,.87A4.09,4.09,0,0,1,36,36.82v7.6Zm9.49-3.69H40.3v2.58a3.11,3.11,0,0,0,.26,1.5,1,1,0,0,0,.93.42,1.11,1.11,0,0,0,.95-.36,2.88,2.88,0,0,0,.28-1.56v-.62h2.81v.7a4.38,4.38,0,0,1-1,3.17,4.07,4.07,0,0,1-3.07,1.06,3.77,3.77,0,0,1-2.9-1.12,4.39,4.39,0,0,1-1.06-3.11V37.24a3.83,3.83,0,0,1,1.17-2.9,4.11,4.11,0,0,1,3-1.12,3.84,3.84,0,0,1,2.89,1,4.1,4.1,0,0,1,1,3v3.49Z"/><path class="cls-1" d="M41.52,35.61a1.08,1.08,0,0,0-.94.38,2,2,0,0,0-.28,1.23V38.6h2.42V37.22A2,2,0,0,0,42.43,36,1.05,1.05,0,0,0,41.52,35.61Z"/><path class="cls-1" d="M32.08,35.56a1.37,1.37,0,0,0-.58.14,1.75,1.75,0,0,0-.56.42v8.52a2,2,0,0,0,.65.49,1.49,1.49,0,0,0,.66.15A.92.92,0,0,0,33,45a1.58,1.58,0,0,0,.23-1V37a1.6,1.6,0,0,0-.29-1A1,1,0,0,0,32.08,35.56Z"/><polygon class="cls-1" points="14.38 20.45 17.84 20.45 17.84 11.96 21.88 0 18.36 0 16.21 8.17 15.99 8.17 13.74 0 10.25 0 14.38 12.35 14.38 20.45"/><path class="cls-1" d="M26.58,20.83a4.71,4.71,0,0,0,3.3-1.1,3.93,3.93,0,0,0,1.19-3V8.9a3.62,3.62,0,0,0-1.21-2.82A4.54,4.54,0,0,0,26.72,5a5,5,0,0,0-3.34,1,3.44,3.44,0,0,0-1.25,2.79v7.82a4,4,0,0,0,1.22,3.06A4.5,4.5,0,0,0,26.58,20.83ZM25.3,8.7a1,1,0,0,1,.35-.8,1.39,1.39,0,0,1,.92-.3,1.54,1.54,0,0,1,1,.3,1,1,0,0,1,.38.8v8.22a1.26,1.26,0,0,1-.37.95,1.41,1.41,0,0,1-1,.34,1.25,1.25,0,0,1-.94-.34,1.29,1.29,0,0,1-.33-.95V8.7Z"/><path class="cls-1" d="M35.73,20.67a3.83,3.83,0,0,0,1.78-.49,6.64,6.64,0,0,0,1.78-1.4v1.67h3.08V5.36H39.29V16.81a4.22,4.22,0,0,1-.95.81,1.73,1.73,0,0,1-.86.32.77.77,0,0,1-.63-.24,1.22,1.22,0,0,1-.2-.77V5.36H33.58V18a3.25,3.25,0,0,0,.53,2A2,2,0,0,0,35.73,20.67Z"/></g></g></svg>