<svg xmlns="http://www.w3.org/2000/svg" viewBox="0 0 151.41 151.41"><defs><style>.cls-1,.cls-2{fill:none;}.cls-1{stroke:#e7125a;stroke-linejoin:round;stroke-width:10px;}</style></defs><g id="Layer_2" data-name="Layer 2"><g id="Layer_1-2" data-name="Layer 1"><g id="Affiliate_Network" data-name="Affiliate Network"><circle class="cls-1" cx="75.7" cy="75.7" r="32.02"/><path class="cls-1" d="M87.2,72a11.5,11.5,0,1,1-11.5-11.5A11.5,11.5,0,0,1,87.2,72ZM57.8,103.67a17.91,17.91,0,1,1,35.81,0"/><line class="cls-1" x1="45.27" y1="75.7" x2="19.05" y2="75.7"/><line class="cls-1" x1="106.14" y1="75.7" x2="132.36" y2="75.7"/><path class="cls-2" d="M138.14,67.44a8.27,8.27,0,1,0,8.27,8.27,8.26,8.26,0,0,0-8.27-8.27"/><path class="cls-1" d="M138.14,67.44a8.27,8.27,0,1,0,8.27,8.27A8.26,8.26,0,0,0,138.14,67.44Z"/><path class="cls-2" d="M13.27,67.44a8.27,8.27,0,1,0,8.26,8.27,8.27,8.27,0,0,0-8.26-8.27"/><path class="cls-1" d="M13.27,67.44a8.27,8.27,0,1,0,8.26,8.27A8.27,8.27,0,0,0,13.27,67.44Z"/><line class="cls-1" x1="75.7" y1="106.14" x2="75.7" y2="132.36"/><line class="cls-1" x1="75.7" y1="45.27" x2="75.7" y2="19.05"/><path class="cls-2" d="M67.44,13.27A8.27,8.27,0,1,0,75.71,5a8.26,8.26,0,0,0-8.27,8.27"/><path class="cls-1" d="M67.44,13.27A8.27,8.27,0,1,0,75.71,5,8.26,8.26,0,0,0,67.44,13.27Z"/><path class="cls-2" d="M67.44,138.14a8.27,8.27,0,1,0,8.27-8.26,8.27,8.27,0,0,0-8.27,8.26"/><path class="cls-1" d="M67.44,138.14a8.27,8.27,0,1,0,8.27-8.26A8.27,8.27,0,0,0,67.44,138.14Z"/><line class="cls-1" x1="97.22" y1="97.23" x2="115.77" y2="115.77"/><line class="cls-1" x1="54.18" y1="54.18" x2="35.64" y2="35.64"/><path class="cls-2" d="M25.71,37.4a8.27,8.27,0,1,0,0-11.69,8.28,8.28,0,0,0,0,11.69"/><path class="cls-1" d="M25.71,37.4a8.27,8.27,0,1,0,0-11.69A8.28,8.28,0,0,0,25.71,37.4Z"/><path class="cls-2" d="M114,125.7A8.27,8.27,0,1,0,114,114a8.26,8.26,0,0,0,0,11.69"/><path class="cls-1" d="M114,125.7A8.27,8.27,0,1,0,114,114,8.26,8.26,0,0,0,114,125.7Z"/><line class="cls-1" x1="54.18" y1="97.23" x2="35.64" y2="115.77"/><line class="cls-1" x1="97.22" y1="54.18" x2="115.77" y2="35.64"/><path class="cls-2" d="M114,25.71a8.27,8.27,0,1,0,11.69,0,8.28,8.28,0,0,0-11.69,0"/><path class="cls-1" d="M114,25.71a8.27,8.27,0,1,0,11.69,0A8.28,8.28,0,0,0,114,25.71Z"/><path class="cls-2" d="M25.71,114a8.27,8.27,0,1,0,11.69,0,8.26,8.26,0,0,0-11.69,0"/><path class="cls-1" d="M25.71,114a8.27,8.27,0,1,0,11.69,0A8.26,8.26,0,0,0,25.71,114Z"/></g></g></g></svg>