<svg xmlns="http://www.w3.org/2000/svg" viewBox="0 0 140.55 140.57"><defs><style>.cls-1{fill:none;stroke:#009283;stroke-miterlimit:10;stroke-width:10px;}.cls-2{fill:#009283;}</style></defs><g id="Layer_2" data-name="Layer 2"><g id="Layer_1-2" data-name="Layer 1"><g id="Campaign_Services" data-name="Campaign Services"><line class="cls-1" x1="70.28" y1="140.57" x2="70.28" y2="87.99"/><line class="cls-1" x1="70.28" y1="9.79" x2="70.28"/><rect class="cls-1" x="5" y="9.79" width="130.55" height="78.2"/><line class="cls-1" x1="18.56" y1="68.77" x2="65.28" y2="68.77"/><line class="cls-1" x1="18.56" y1="48.89" x2="65.28" y2="48.89"/><line class="cls-1" x1="18.56" y1="29.01" x2="41.92" y2="29.01"/><path class="cls-2" d="M109.83,48.7A11.25,11.25,0,1,1,98.58,37.26,11.34,11.34,0,0,1,109.83,48.7m5.23-9.25a1.34,1.34,0,0,1,.12-1.66c1.2-1.58,2.31-3.21,3.37-4.7L114,28.56c-1.61,1.15-3.3,2.35-5,3.57a.91.91,0,0,1-1.07.09c-1.51-.7-3.07-1.28-4.59-1.95a1.26,1.26,0,0,1-.66-.72c-.4-2-.74-4-1.12-6.12H95.55c-.38,2.11-.72,4.12-1.12,6.12a1.26,1.26,0,0,1-.66.72c-1.52.67-3.08,1.25-4.59,1.95a.91.91,0,0,1-1.07-.09c-1.67-1.22-3.36-2.42-5-3.57l-4.53,4.53c1.06,1.49,2.17,3.12,3.37,4.7a1.34,1.34,0,0,1,.12,1.66,36.35,36.35,0,0,0-1.7,4.14c-.2.55-.4.83-1,.91-2.06.28-4.09.65-6.18,1v6.38c2,.31,3.91.65,5.87.92A1.44,1.44,0,0,1,80.46,54a32.72,32.72,0,0,0,1.76,4.2.93.93,0,0,1-.07,1.14c-1.21,1.65-2.38,3.33-3.5,4.9l4.54,4.55c1.51-1.07,3.17-2.24,4.82-3.45a1,1,0,0,1,1.29-.1c1.47.7,3,1.3,4.53,1.87a.82.82,0,0,1,.66.74c.33,2.13.69,4.25,1.05,6.41h6.08c.36-2.16.72-4.28,1-6.41.06-.44.25-.59.66-.74,1.53-.57,3.06-1.17,4.53-1.87a1,1,0,0,1,1.29.1c1.64,1.21,3.31,2.38,4.82,3.45l4.54-4.55c-1.12-1.57-2.29-3.25-3.5-4.9a.94.94,0,0,1-.08-1.14A31.42,31.42,0,0,0,116.7,54a1.44,1.44,0,0,1,1.4-1.17c2-.27,3.91-.61,5.87-.92V45.49c-2.09-.34-4.12-.71-6.18-1-.63-.08-.83-.36-1-.91a36.35,36.35,0,0,0-1.7-4.14"/></g></g></g></svg>