<svg id="Layer_1" data-name="Layer 1" xmlns="http://www.w3.org/2000/svg" xmlns:xlink="http://www.w3.org/1999/xlink" viewBox="0 0 113.41 80"><defs><style>.cls-1{fill:#a91f23;}.cls-2{fill:#ec2024;}.cls-3{fill:url(#radial-gradient);}.cls-4{fill:#231f20;}</style><radialGradient id="radial-gradient" cx="-276.49" cy="328.34" r="7.65" gradientTransform="matrix(3.37, 0, 0, -3.37, 969.31, 1160.09)" gradientUnits="userSpaceOnUse"><stop offset="0.49" stop-color="#de1f26"/><stop offset="0.74" stop-color="#e84b4f"/><stop offset="1" stop-color="#f27778"/></radialGradient></defs><path class="cls-1" d="M36.18,25.28l-5.31,6.39-7.42-3.54c-.17,0-.35-.17-.52,0q-.25,0,0,.51l1.72,8.17-7.43,3.54a.37.37,0,0,0-.34.34.38.38,0,0,0,.34.35l7.43,3.71-1.77,8.16v.52h.51l7.42-3.54L36,56.45c.17.17.34.34.52.17.17,0,.17-.17.34-.34l1.94-8h8.39a.64.64,0,0,0,.52-.17.63.63,0,0,0-.17-.52L42.35,41l5.36-6.56a.61.61,0,0,0,.18-.52c0-.17-.18-.17-.52-.17H45.26c-.17,0-.34,0-.34.17L37,42.29h-.17v-.17C37,42,41.32,36.64,43.6,34v-.17c0-.17,0-.17-.17-.17H40.75c-.17,0-.52.17-.52.34-1.25,1.43-7.65,8.17-7.82,8.17H32.3V42l6.56-8a.62.62,0,0,0,.17-.51s-1.77-8-1.77-8.16a.37.37,0,0,0-.34-.35c-.57.17-.74.17-.74.35Z"/><path class="cls-2" d="M22.19,41.55a12.34,12.34,0,0,1-5.31-1.09.17.17,0,0,0,.17-.17l7.42-3.54L22.7,28.59v-.52h.52l7.42,3.54L36,25.22a.53.53,0,0,1,.34-.17c0,.68.18,1.25.18,1.94A14.24,14.24,0,0,1,22.19,41.55ZM42.4,34.47c.18-.17.35-.52.52-.69H40.46c-.17,0-.34.17-.51.17,0,.35,0,.92.34,1.09.34.51,1.37.17,2.11-.57Zm2.46-.86c-.17,0-.34,0-.34.17l-.17.17a.89.89,0,0,0,.34.69c.51.51,1.6.17,2.11-.51.17-.18.17-.35.34-.52Z"/><path class="cls-3" d="M46.29,34.3H44.86a.92.92,0,0,0-.69.34c-2.68,2.86-7.08,7.42-7.25,7.42-.51.52-.91.17-.34-.34.17-.17,3.71-4.45,5.82-7.08,0-.17.18-.34,0-.34H40.29a.62.62,0,0,0-.51.17c-2.69,2.85-7.25,7.65-7.43,7.65-.51.51-.91.17-.34-.34.17-.17,4.06-5,6.05-7.65.18-.18.18-.35.18-.69L36.52,26.3c0-.17-.17-.34-.34,0l-4.8,5.83c-.17.17-.51.34-.68.17L24,28.93c-.17,0-.34,0-.34.17l1.6,7.42a.68.68,0,0,1-.35.69l-6.79,3.31c-.17,0-.17.34,0,.34l6.74,3.37c.17,0,.34.35.34.69l-1.77,7.31c0,.17,0,.34.34.17l6.91-3.2a1,1,0,0,1,.69.17L36,55.2c.17.17.34.17.34,0l1.77-7.26c0-.17.35-.34.52-.34H46c.17,0,.34-.17.17-.34l-4.62-6a.53.53,0,0,1,0-.69l4.79-5.82c.29-.23.12-.4-.05-.4Z"/><path class="cls-4" d="M56.22,35a6.06,6.06,0,0,1,4.63-1.94c3.37,0,5.31,1.94,5.31,5.82v9H62.1V39.61c0-2.12-.68-3.2-2.11-3.2-1.26,0-1.94.51-3.2,1.77v9.76h-4V36.07c-.17,0-1.26-.17-1.26-.17V33.61l4.46-.17a4,4,0,0,1,.28,1.6m35.29,1.37c-1.09,0-2.11.51-3.37,1.94v6.22a7.24,7.24,0,0,0,2.28.52c2.86,0,3.37-2.29,3.37-4.46.17-2.79-.51-4.22-2.28-4.22m-3.2-8.51v6.74A5.79,5.79,0,0,1,92.37,33c3.54,0,5.82,2.68,5.82,7.08,0,5.14-2.86,8.17-7.82,8.17a23.74,23.74,0,0,1-6.06-.92V30.53c-.17,0-1.42-.17-1.42-.17V28.07ZM69.35,34A18.3,18.3,0,0,1,74.66,33c4.06,0,6.23,1.77,6.23,5.14v7.25c.34,0,1.43.17,1.43.17v2.29l-4.46.17A6.12,6.12,0,0,1,77.69,47a6.32,6.32,0,0,1-4.28,1.6c-3.2,0-5.14-1.77-5.14-4.62,0-3.2,2.46-4.8,7.25-4.8H77v-.51c0-1.6-.34-2.29-2.68-2.29a10.09,10.09,0,0,0-4.06.92h-.34l-.69-3,.17-.29m2.8,9.77a1.71,1.71,0,0,0,1.94,1.77A4,4,0,0,0,77,44.23V42H75.52c-3-.17-3.37.85-3.37,1.77"/><path class="cls-1" d="M36.18,25.28l-5.31,6.39-7.42-3.54c-.17,0-.35-.17-.52,0q-.25,0,0,.51l1.72,8.17-7.43,3.54a.37.37,0,0,0-.34.34.38.38,0,0,0,.34.35l7.43,3.71-1.77,8.16v.52h.51l7.42-3.54L36,56.45c.17.17.34.34.52.17.17,0,.17-.17.34-.34l1.94-8h8.39a.64.64,0,0,0,.52-.17.63.63,0,0,0-.17-.52L42.35,41l5.36-6.56a.61.61,0,0,0,.18-.52c0-.17-.18-.17-.52-.17H45.26c-.17,0-.34,0-.34.17L37,42.29h-.17v-.17C37,42,41.32,36.64,43.6,34v-.17c0-.17,0-.17-.17-.17H40.75c-.17,0-.52.17-.52.34-1.25,1.43-7.65,8.17-7.82,8.17H32.3V42l6.56-8a.62.62,0,0,0,.17-.51s-1.77-8-1.77-8.16a.37.37,0,0,0-.34-.35c-.57.17-.74.17-.74.35Z"/><path class="cls-2" d="M22.19,41.55a12.34,12.34,0,0,1-5.31-1.09.17.17,0,0,0,.17-.17l7.42-3.54L22.7,28.59v-.52h.52l7.42,3.54L36,25.22a.53.53,0,0,1,.34-.17c0,.68.18,1.25.18,1.94A14.24,14.24,0,0,1,22.19,41.55ZM42.4,34.47c.18-.17.35-.52.52-.69H40.46c-.17,0-.34.17-.51.17,0,.35,0,.92.34,1.09.34.51,1.37.17,2.11-.57Zm2.46-.86c-.17,0-.34,0-.34.17l-.17.17a.89.89,0,0,0,.34.69c.51.51,1.6.17,2.11-.51.17-.18.17-.35.34-.52Z"/><path class="cls-3" d="M46.29,34.3H44.86a.92.92,0,0,0-.69.34c-2.68,2.86-7.08,7.42-7.25,7.42-.51.52-.91.17-.34-.34.17-.17,3.71-4.45,5.82-7.08,0-.17.18-.34,0-.34H40.29a.62.62,0,0,0-.51.17c-2.69,2.85-7.25,7.65-7.43,7.65-.51.51-.91.17-.34-.34.17-.17,4.06-5,6.05-7.65.18-.18.18-.35.18-.69L36.52,26.3c0-.17-.17-.34-.34,0l-4.8,5.83c-.17.17-.51.34-.68.17L24,28.93c-.17,0-.34,0-.34.17l1.6,7.42a.68.68,0,0,1-.35.69l-6.79,3.31c-.17,0-.17.34,0,.34l6.74,3.37c.17,0,.34.35.34.69l-1.77,7.31c0,.17,0,.34.34.17l6.91-3.2a1,1,0,0,1,.69.17L36,55.2c.17.17.34.17.34,0l1.77-7.26c0-.17.35-.34.52-.34H46c.17,0,.34-.17.17-.34l-4.62-6a.53.53,0,0,1,0-.69l4.79-5.82c.29-.23.12-.4-.05-.4Z"/><path class="cls-4" d="M56.22,35a6.06,6.06,0,0,1,4.63-1.94c3.37,0,5.31,1.94,5.31,5.82v9H62.1V39.61c0-2.12-.68-3.2-2.11-3.2-1.26,0-1.94.51-3.2,1.77v9.76h-4V36.07c-.17,0-1.26-.17-1.26-.17V33.61l4.46-.17a4,4,0,0,1,.28,1.6m35.29,1.37c-1.09,0-2.11.51-3.37,1.94v6.22a7.24,7.24,0,0,0,2.28.52c2.86,0,3.37-2.29,3.37-4.46.17-2.79-.51-4.22-2.28-4.22m-3.2-8.51v6.74A5.79,5.79,0,0,1,92.37,33c3.54,0,5.82,2.68,5.82,7.08,0,5.14-2.86,8.17-7.82,8.17a23.74,23.74,0,0,1-6.06-.92V30.53c-.17,0-1.42-.17-1.42-.17V28.07ZM69.35,34A18.3,18.3,0,0,1,74.66,33c4.06,0,6.23,1.77,6.23,5.14v7.25c.34,0,1.43.17,1.43.17v2.29l-4.46.17A6.12,6.12,0,0,1,77.69,47a6.32,6.32,0,0,1-4.28,1.6c-3.2,0-5.14-1.77-5.14-4.62,0-3.2,2.46-4.8,7.25-4.8H77v-.51c0-1.6-.34-2.29-2.68-2.29a10.09,10.09,0,0,0-4.06.92h-.34l-.69-3,.17-.29m2.8,9.77a1.71,1.71,0,0,0,1.94,1.77A4,4,0,0,0,77,44.23V42H75.52c-3-.17-3.37.85-3.37,1.77"/></svg>