<svg id="Layer_1" data-name="Layer 1" xmlns="http://www.w3.org/2000/svg" xmlns:xlink="http://www.w3.org/1999/xlink" viewBox="0 0 113.41 80"><defs><style>.cls-1{fill:none;}.cls-2{clip-path:url(#clip-path);}.cls-3{fill:#1428a0;}</style><clipPath id="clip-path"><rect class="cls-1" x="13.05" y="29.37" width="87.04" height="23.12"/></clipPath></defs><g id="g8"><g id="g10"><g class="cls-2"><g id="g12"><g id="g18"><path id="path20" class="cls-3" d="M90.49,40.23v1.58H91.6v1.56a2.63,2.63,0,0,1,0,.41,1.17,1.17,0,0,1-2.21,0,2.68,2.68,0,0,1,0-.41V38.44a2.64,2.64,0,0,1,0-.51,1.14,1.14,0,0,1,2.16,0,2.75,2.75,0,0,1,0,.41v.6h2.72v-.35s0-.37,0-.72c-.21-2-1.88-2.66-3.79-2.66s-3.55.65-3.79,2.66c0,.19,0,.52,0,.72v4.53c0,.2,0,.35,0,.72.18,2,1.89,2.66,3.79,2.66s3.62-.7,3.8-2.66c0-.37,0-.52,0-.72V40.23ZM71.75,35.5H69v8a1.76,1.76,0,0,1,0,.41,1,1,0,0,1-1,.79,1,1,0,0,1-1-.79,1.76,1.76,0,0,1,0-.41v-8H64.18v7.73c0,.2,0,.61,0,.72.19,2,1.78,2.67,3.76,2.67S71.54,46,71.73,44a4,4,0,0,0,0-.72Zm-25.07,0-1.36,8.43L44,35.5h-4.4l-.24,10.79H42l.07-10,1.86,10h2.74l1.85-10,.08,10h2.7L51.08,35.5Zm-16.3,0-2,10.79H31.3l1.51-10,1.47,10h2.89l-2-10.79Zm50.91,8.69L78.75,35.5h-4V46.18H77.4l-.16-9,2.73,9h3.84V35.5H81.14Zm-24.5-5.88a1.52,1.52,0,0,1,0-.56.88.88,0,0,1,1-.72.91.91,0,0,1,1,1v.66h2.66v-.75c0-2.33-2.09-2.69-3.6-2.69-1.9,0-3.45.62-3.73,2.37a3.69,3.69,0,0,0,0,1.44c.47,2.18,4.26,2.81,4.81,4.19a1.43,1.43,0,0,1,0,.79c-.08.36-.32.72-1,.72a1,1,0,0,1-1.07-1v-1H54v.82c0,2.39,1.86,3.11,3.88,3.11s3.51-.66,3.77-2.44a5.24,5.24,0,0,0,0-1.75c-.45-2.24-4.49-2.91-4.8-4.16m-35.09,0a1.38,1.38,0,0,1,0-.57.89.89,0,0,1,1-.72.92.92,0,0,1,1,1v.67h2.69v-.76c0-2.35-2.12-2.72-3.64-2.72-1.92,0-3.48.63-3.77,2.39A3.79,3.79,0,0,0,19,39c.47,2.2,4.3,2.84,4.86,4.24a1.34,1.34,0,0,1,0,.79.93.93,0,0,1-1.05.73,1,1,0,0,1-1.08-1v-1h-2.9v.83c0,2.41,1.9,3.14,3.92,3.14s3.56-.67,3.82-2.47a5.5,5.5,0,0,0,0-1.77c-.46-2.27-4.55-2.94-4.86-4.2"/></g></g></g></g></g></svg>