<svg id="Layer_1" data-name="Layer 1" xmlns="http://www.w3.org/2000/svg" viewBox="0 0 113.41 80"><defs><style>.cls-1{fill-rule:evenodd;}</style></defs><g id="layer1"><g id="g2402"><g id="g3035"><path id="path2405" d="M64.87,45.54,53.62,26l8.08-4.64,14,24.2H64.87"/><path id="path2407" d="M34.9,42.8,43,38.12l4.28,7.42H36.47L34.9,42.8"/><path id="path2409" d="M50.76,58h2.3V48.7h-2.3Z"/><path id="path2411" d="M79.59,58.23c-2.57,0-4.12-1.33-4.2-3.2h2.42c0,.58.37,1.44,1.94,1.47,1,0,1.53-.61,1.53-1.07-.06-.74-1-.8-2-1a8.74,8.74,0,0,1-2.43-.65,2.51,2.51,0,0,1-1.29-2.24c0-1.66,1.44-3,3.84-3s3.81,1.22,4,3H81.07c0-.49-.12-1.26-1.5-1.26-.93,0-1.55.19-1.6.83,0,1,1.93.89,3.44,1.29s2.36,1.26,2.36,2.52c0,2.31-1.87,3.2-4.18,3.2"/><path id="path2415" d="M44.38,34.49l8.08-4.66,9.06,15.71H53.06v2.3h-2.3V45.52l-6.38-11"/><path id="path2417" class="cls-1" d="M44.58,58.23a4.86,4.86,0,0,1-4.85-4.83,4.8,4.8,0,0,1,4.85-4.79,4.67,4.67,0,0,1,2.74.83v-3.9h2.3V58h-2.3v-.62a4.9,4.9,0,0,1-2.74.84ZM41.94,53.4a2.69,2.69,0,1,0,2.71-2.68,2.73,2.73,0,0,0-2.71,2.68"/><path id="path2419" class="cls-1" d="M61.59,45.54h2.26V58H61.59v-.62a4.91,4.91,0,0,1-2.78.84A4.86,4.86,0,0,1,54,53.4a4.8,4.8,0,0,1,4.82-4.79,4.75,4.75,0,0,1,2.78.83v-3.9ZM56.23,53.4a2.68,2.68,0,0,0,5.36,0,2.68,2.68,0,1,0-5.36,0"/><path id="path2421" class="cls-1" d="M69.45,58.23a4.86,4.86,0,0,1-4.82-4.83,4.8,4.8,0,0,1,4.82-4.79,4.65,4.65,0,0,1,2.74.83v-.75h2.3V58h-2.3v-.62a4.8,4.8,0,0,1-2.74.84ZM66.87,53.4a2.66,2.66,0,1,0,2.67-2.68,2.72,2.72,0,0,0-2.67,2.68"/><path id="path2423" class="cls-1" d="M31.27,53.4a2.7,2.7,0,0,0,5.39,0,2.7,2.7,0,0,0-5.39,0Zm2.62,4.83a4.86,4.86,0,0,1-4.83-4.83,4.88,4.88,0,0,1,7.6-4v-.75h2.27V58H36.66v-.62a4.9,4.9,0,0,1-2.77.84"/></g></g></g></svg>