<svg id="Layer_1" data-name="Layer 1" xmlns="http://www.w3.org/2000/svg" viewBox="0 0 113.41 80"><defs><style>.cls-1{fill:#fff;}.cls-2{fill:#db0011;}</style></defs><rect class="cls-1" x="22.68" y="27.55" width="24.87" height="24.87"/><polygon class="cls-2" points="59.99 40.02 47.55 27.55 47.55 52.45 59.99 40.02"/><polygon class="cls-2" points="35.12 40.02 47.55 27.55 22.68 27.55 35.12 40.02"/><polygon class="cls-2" points="10.22 40.02 22.68 52.45 22.68 27.55 10.22 40.02"/><polygon class="cls-2" points="35.12 40.02 22.68 52.45 47.55 52.45 35.12 40.02"/><path d="M70.9,40.75H66.4v4.44H64.14V34.78H66.4v4.27h4.5V34.78h2.26V45.19H70.9Z"/><path d="M78.6,45.4c-2.26,0-4.1-.91-4.13-3.4h2.26a1.69,1.69,0,0,0,1.9,1.79c.9,0,2-.47,2-1.49,0-.82-.7-1.06-1.88-1.41l-.76-.2c-1.63-.47-3.27-1.11-3.27-3,0-2.31,2.16-3.1,4.12-3.1s3.78.7,3.81,3H80.35a1.52,1.52,0,0,0-1.69-1.5c-.85,0-1.67.44-1.67,1.38,0,.76.7,1,2.16,1.46l.88.26c1.79.56,2.93,1.18,2.93,2.93C82.93,44.49,80.65,45.4,78.6,45.4Z"/><path d="M84.22,34.81h3.62a10,10,0,0,1,2,.11,2.57,2.57,0,0,1,2.23,2.52A2.34,2.34,0,0,1,90,39.78c1.4.26,2.46,1,2.46,2.52,0,2.37-2.34,2.89-4.16,2.89h-4.1Zm3.62,4.33c1,0,2-.21,2-1.41s-.93-1.37-1.87-1.37H86.41v2.78Zm.21,4.5c1,0,2.08-.23,2.08-1.52s-.88-1.52-2-1.52H86.38v3Z"/><path d="M98.35,45.4c-3.37,0-4.86-2.14-4.86-5.33s1.67-5.5,5-5.5c2.07,0,4.09.94,4.15,3.28h-2.34a1.67,1.67,0,0,0-1.81-1.58c-2,0-2.67,2.19-2.67,3.86s.62,3.6,2.58,3.6a1.8,1.8,0,0,0,1.93-1.61h2.34C102.42,44.52,100.51,45.4,98.35,45.4Z"/></svg>