<svg id="Layer_1" data-name="Layer 1" xmlns="http://www.w3.org/2000/svg" xmlns:xlink="http://www.w3.org/1999/xlink" viewBox="0 0 113.41 80"><defs><style>.cls-1{fill:none;}.cls-2{clip-path:url(#clip-path);}.cls-3{fill:url(#linear-gradient);}.cls-4{clip-path:url(#clip-path-2);}.cls-5{fill:url(#linear-gradient-2);}.cls-6{clip-path:url(#clip-path-3);}.cls-7{fill:url(#linear-gradient-3);}.cls-8{clip-path:url(#clip-path-4);}.cls-9{fill:url(#linear-gradient-4);}.cls-10{clip-path:url(#clip-path-5);}.cls-11{fill:url(#linear-gradient-5);}.cls-12{clip-path:url(#clip-path-6);}.cls-13{fill:url(#linear-gradient-6);}.cls-14{fill:#004e29;}.cls-15{fill:#175734;}</style><clipPath id="clip-path"><path class="cls-1" d="M62.94,40a8.37,8.37,0,0,1-2.09-.26,12.51,12.51,0,0,1-4.1,3.66,9.89,9.89,0,0,0,4.75,1.24c6.56,0,11-6.83,11.56-12.63a9.73,9.73,0,0,1-10.12,8Z"/></clipPath><linearGradient id="linear-gradient" x1="23.96" y1="-635.98" x2="24.12" y2="-635.98" gradientTransform="matrix(-64.4, -15.03, 15.03, -64.4, 11169.41, -40556.09)" gradientUnits="userSpaceOnUse"><stop offset="0" stop-color="#219b49"/><stop offset="0.12" stop-color="#219b4a"/><stop offset="1" stop-color="#a6d93d"/></linearGradient><clipPath id="clip-path-2"><path class="cls-1" d="M64.58,21.86a6.22,6.22,0,0,0-4.68,1.83c3.26.33,7.26,2.63,7.26,7.39a7.31,7.31,0,0,1-5.51,7.43,12.7,12.7,0,0,1-.81,1.25,7.6,7.6,0,0,0,2.1.26,9.75,9.75,0,0,0,10.12-8,11.18,11.18,0,0,0,0-1.15C73.12,24.36,68.14,21.86,64.58,21.86Z"/></clipPath><linearGradient id="linear-gradient-2" x1="22.58" y1="-635.99" x2="22.74" y2="-635.99" gradientTransform="matrix(0, 145.5, -145.5, 0, -92467.52, -3268.49)" gradientUnits="userSpaceOnUse"><stop offset="0" stop-color="#31ad45"/><stop offset="0.75" stop-color="#a6d93d"/><stop offset="1" stop-color="#a6d93d"/></linearGradient><clipPath id="clip-path-3"><path class="cls-1" d="M50.56,40a8.08,8.08,0,0,0,4.68-1.45,5.08,5.08,0,0,1-1.51.25,7.46,7.46,0,0,1-7.39-7.72c0-4.76,4-7.06,7.27-7.39a6.22,6.22,0,0,0-4.68-1.83c-3.57,0-8.54,2.5-8.54,9,0,.38,0,.76,0,1.15a9.73,9.73,0,0,0,10.12,8Z"/></clipPath><linearGradient id="linear-gradient-3" x1="22.58" y1="-636.66" x2="22.74" y2="-636.66" gradientTransform="translate(-92487.65 -3265.09) rotate(90) scale(145.34)" xlink:href="#linear-gradient-2"/><clipPath id="clip-path-4"><path class="cls-1" d="M53.79,38.92a2.56,2.56,0,0,0,1.45-.37,8,8,0,0,0,1.54-1.41,8.2,8.2,0,0,1-1.7-4.81,4.15,4.15,0,0,1,1.69-3.66,4.32,4.32,0,0,0-2.41-.83,4.14,4.14,0,0,0-3.91,3.39h0l-.06.34a11.89,11.89,0,0,0-.09,1.53,11.35,11.35,0,0,0,1.76,5.57A7.36,7.36,0,0,0,53.79,38.92Z"/></clipPath><linearGradient id="linear-gradient-4" x1="22.16" y1="-636.35" x2="22.32" y2="-636.35" gradientTransform="translate(-45505.96 -1558.88) rotate(90) scale(71.59)" gradientUnits="userSpaceOnUse"><stop offset="0" stop-color="#219b49"/><stop offset="0.19" stop-color="#219b49"/><stop offset="0.78" stop-color="#a6d93d"/><stop offset="1" stop-color="#a6d93d"/></linearGradient><clipPath id="clip-path-5"><path class="cls-1" d="M56.8,25.64c-4,0-5.84,2.91-6.35,5.59a4.09,4.09,0,0,1,3.68-3.35,4.14,4.14,0,0,1,2.64.8,4.52,4.52,0,0,1,1.77,3.81,7.4,7.4,0,0,1-1.76,4.65A8,8,0,0,1,50.56,40a9.73,9.73,0,0,1-10.12-8c.53,5.8,5,12.63,11.57,12.63,6.41,0,11.31-6.47,11.31-11.89,0-3.75-2.14-7.11-6.52-7.11Z"/></clipPath><linearGradient id="linear-gradient-5" x1="22.62" y1="-636.63" x2="22.78" y2="-636.63" gradientTransform="translate(127259.22 38650.09) rotate(-75.15) scale(208.69)" gradientUnits="userSpaceOnUse"><stop offset="0" stop-color="#219b49"/><stop offset="0.05" stop-color="#219b4a"/><stop offset="0.52" stop-color="#a6d93d"/><stop offset="1" stop-color="#a6d93d"/></linearGradient><clipPath id="clip-path-6"><path class="cls-1" d="M56.92,23.42a5.21,5.21,0,0,1-1.47-3.11A4.69,4.69,0,0,1,58,15.91c4.83-2.58,9,1.18,8.54,3.61a8.09,8.09,0,0,0-6.91.33,5.26,5.26,0,0,0-2.69,3.57Z"/></clipPath><linearGradient id="linear-gradient-6" x1="21.9" y1="-636.65" x2="22.06" y2="-636.65" gradientTransform="translate(37535.82 40701.2) rotate(-44.63) scale(86.83)" gradientUnits="userSpaceOnUse"><stop offset="0" stop-color="#55b83b"/><stop offset="1" stop-color="#a6d93d"/></linearGradient></defs><g class="cls-2"><path class="cls-3" d="M62.94,40a8.37,8.37,0,0,1-2.09-.26,12.51,12.51,0,0,1-4.1,3.66,9.89,9.89,0,0,0,4.75,1.24c6.56,0,11-6.83,11.56-12.63a9.73,9.73,0,0,1-10.12,8"/></g><g class="cls-4"><path class="cls-5" d="M64.58,21.86a6.22,6.22,0,0,0-4.68,1.83c3.26.33,7.26,2.63,7.26,7.39a7.31,7.31,0,0,1-5.51,7.43,12.7,12.7,0,0,1-.81,1.25,7.6,7.6,0,0,0,2.1.26,9.75,9.75,0,0,0,10.12-8,11.18,11.18,0,0,0,0-1.15c0-6.51-5-9-8.53-9"/></g><g class="cls-6"><path class="cls-7" d="M50.56,40a8.08,8.08,0,0,0,4.68-1.45,5.08,5.08,0,0,1-1.51.25,7.46,7.46,0,0,1-7.39-7.72c0-4.76,4-7.06,7.27-7.39a6.22,6.22,0,0,0-4.68-1.83c-3.57,0-8.54,2.5-8.54,9,0,.38,0,.76,0,1.15a9.73,9.73,0,0,0,10.12,8"/></g><g class="cls-8"><path class="cls-9" d="M53.79,38.92a2.56,2.56,0,0,0,1.45-.37,8,8,0,0,0,1.54-1.41,8.2,8.2,0,0,1-1.7-4.81,4.15,4.15,0,0,1,1.69-3.66,4.32,4.32,0,0,0-2.41-.83,4.14,4.14,0,0,0-3.91,3.39h0l-.06.34a11.89,11.89,0,0,0-.09,1.53,11.35,11.35,0,0,0,1.76,5.57,7.36,7.36,0,0,0,1.73.24"/></g><g class="cls-10"><path class="cls-11" d="M56.8,25.64c-4,0-5.84,2.91-6.35,5.59a4.09,4.09,0,0,1,3.68-3.35,4.14,4.14,0,0,1,2.64.8,4.52,4.52,0,0,1,1.77,3.81,7.4,7.4,0,0,1-1.76,4.65A8,8,0,0,1,50.56,40a9.73,9.73,0,0,1-10.12-8c.53,5.8,5,12.63,11.57,12.63,6.41,0,11.31-6.47,11.31-11.89,0-3.75-2.14-7.11-6.52-7.11"/></g><g class="cls-12"><path class="cls-13" d="M56.92,23.42a5.21,5.21,0,0,1-1.47-3.11A4.69,4.69,0,0,1,58,15.91c4.83-2.58,9,1.18,8.54,3.61a8.09,8.09,0,0,0-6.91.33,5.26,5.26,0,0,0-2.69,3.57"/></g><path class="cls-14" d="M51.61,56.55h.73V47.71h-.73Z"/><path class="cls-14" d="M46.18,53.42c0,1.52.8,2.65,1.93,2.65S50,54.94,50,53.41s-.78-2.68-1.91-2.68-1.94,1.11-1.94,2.69Zm4.63,0c0,2-1.08,3.28-2.69,3.28s-2.73-1.3-2.73-3.28,1.08-3.3,2.74-3.3,2.68,1.28,2.68,3.3"/><path class="cls-14" d="M61.48,53.42c0,1.52.8,2.65,1.93,2.65s1.92-1.13,1.92-2.66-.79-2.68-1.91-2.68-1.94,1.11-1.94,2.69Zm4.63,0c0,2-1.08,3.28-2.69,3.28s-2.73-1.3-2.73-3.28,1.08-3.3,2.74-3.3,2.68,1.28,2.68,3.3"/><path class="cls-14" d="M40.22,53.42c0,1.52.8,2.65,1.93,2.65s1.92-1.13,1.92-2.66-.78-2.68-1.91-2.68-1.94,1.11-1.94,2.69Zm4.63,0c0,2-1.08,3.28-2.69,3.28s-2.73-1.3-2.73-3.28,1.08-3.3,2.74-3.3,2.68,1.28,2.68,3.3"/><path class="cls-14" d="M74.06,50.27v.29a7.56,7.56,0,0,1,0,.83,2.19,2.19,0,0,1,2-1.22c1.39,0,1.89,1,2,2.34,0,.3,0,.8,0,1.1v2.93h-.73V53.62c0-.37,0-1,0-1.28-.09-1-.58-1.54-1.38-1.54a1.82,1.82,0,0,0-1.58,1.1,2.49,2.49,0,0,0-.2,1c0,.19,0,.58,0,.69v2.93h-.72V47.71h.72Z"/><path class="cls-14" d="M81.91,51a3.45,3.45,0,0,0-1.2-.23,1.07,1.07,0,0,0-1.23,1c0,1.3,2.94,1.15,2.94,3.15,0,1-.87,1.78-2.15,1.78a3.85,3.85,0,0,1-1.54-.31l0-.71a2.78,2.78,0,0,0,1.44.41,1.28,1.28,0,0,0,1.41-1.16c0-1.51-2.87-1.25-2.87-3.14,0-1,.77-1.62,2-1.6a3.1,3.1,0,0,1,1.24.22Z"/><path class="cls-14" d="M57.17,50.24s.87,3.57,1.06,4.4c.08.41.22,1,.22,1l.24-1c.23-.84,1.23-4.4,1.23-4.4h.77l-1.82,6.3H58s-1-4.16-1.07-4.67c-.06-.26-.14-.65-.14-.65s-.07.39-.13.65c-.11.51-1.07,4.67-1.07,4.67h-.85l-1.82-6.3h.77s1,3.56,1.23,4.4c.11.41.25,1,.25,1l.22-1c.18-.83,1.06-4.4,1.06-4.4Z"/><path class="cls-14" d="M35.55,49.29s1.17,4.29,1.37,5c.11.41.29,1.14.29,1.14s.15-.73.26-1.14c.18-.74,1.28-5,1.28-5h.75l-1.87,7.25h-.82S35.44,51.3,35.38,51s-.17-.79-.17-.79-.1.52-.16.79l-1.44,5.51h-.82l-1.87-7.26h.75l1.29,5c.1.42.26,1.15.26,1.15s.17-.73.28-1.15l1.37-5h.68"/><path class="cls-14" d="M66.88,56.55v-6.3h.62v1.44a2.23,2.23,0,0,1,2.24-1.44h.61V48.66l.71-.28v1.87h1.47v.64H71.06v3.83c0,.9.29,1.21.9,1.21a1.68,1.68,0,0,0,.62-.12l.08.62a2.76,2.76,0,0,1-.73.11,1.54,1.54,0,0,1-1.16-.37,2,2,0,0,1-.42-1.49V50.87a5,5,0,0,0-1.22.08,2.16,2.16,0,0,0-1.53,2.26v3.34Z"/><path class="cls-15" d="M76.61,62.79a.85.85,0,0,1-.39-.07A.39.39,0,0,1,76,62.4c0-.11,0-.22-.16-.25s-.07-.16-.07-.24,0-.11.12-.11.15-.08.19-.17a2.89,2.89,0,0,1,.59-.88,1,1,0,0,1,.34-.23.49.49,0,0,1,.54.15.39.39,0,0,1,.06.46,1.86,1.86,0,0,1-.86.87l0,0c-.08.06-.28,0-.21.22s.21.08.31.07a2.67,2.67,0,0,0,.86-.34c.11-.06.22-.12.32,0s.1.23,0,.31a2.47,2.47,0,0,1-1.31.5Zm-.12-1.12a1.42,1.42,0,0,0,.64-.64s.05-.1,0-.13-.1,0-.14.06a4.52,4.52,0,0,0-.5.71Z"/><path class="cls-15" d="M58.85,61.3l-.82.09a.24.24,0,0,0-.2.17L57,64.31s0,.1,0,.16-.11.24-.29.18a.27.27,0,0,1-.2-.37c.21-.83.5-1.64.75-2.46.1-.3.1-.3-.23-.3a.7.7,0,0,1-.6-.15.26.26,0,0,1-.08-.26c0-.08.12-.07.19-.08.26,0,.53,0,.79-.05s.19-.06.22-.18a9.33,9.33,0,0,1,.6-1.46,5.54,5.54,0,0,1,.57-.8.47.47,0,0,1,.51-.14.49.49,0,0,1,.4.4.86.86,0,0,1,0,.48c0,.09-.08.16-.18.14s-.12-.09-.12-.18a2.29,2.29,0,0,0,0-.25c0-.06,0-.14-.07-.16s-.08.06-.12.1a3.88,3.88,0,0,0-.86,1.61c-.1.33-.1.32.24.3a2.38,2.38,0,0,1,.92-.05s.08,0,.12-.06a.5.5,0,0,1,.72.07.19.19,0,0,0,.16.07c.19,0,.24,0,.21.2a1.88,1.88,0,0,1-.43,1,2.25,2.25,0,0,1-.57.54c-.2.14-.44.26-.66.12a.74.74,0,0,1-.28-.77,1.06,1.06,0,0,1,.19-.45.34.34,0,0,0,.07-.16Zm1.08,0c0-.06,0-.21-.12-.13a1.56,1.56,0,0,0-.8.91s0,.07,0,.1.06,0,.1,0a1.92,1.92,0,0,0,.76-.65A.4.4,0,0,0,59.93,61.32Z"/><path class="cls-15" d="M47.88,61.25a5.57,5.57,0,0,1,.88-.58.54.54,0,0,1,.28-.05.21.21,0,0,1,.2.17c0,.09,0,.15-.1.2l-.36.19A2.77,2.77,0,0,0,47.4,62.6c0,.14-.12.24-.28.23a.28.28,0,0,1-.26-.18.49.49,0,0,1,0-.29c.11-.31.23-.62.36-.94,0-.09,0-.13-.08-.13l-.93-.07c-.15,0-.21,0-.26.19-.21.72-.32,1.47-.48,2.19a5.31,5.31,0,0,1-.31,1c0,.09-.07.19-.18.2a.25.25,0,0,1-.24-.19.56.56,0,0,1-.1-.3.27.27,0,0,1,.11-.25,1,1,0,0,0,.25-.59c.16-.68.29-1.36.44-2,0-.13,0-.2-.13-.16s-.28.1-.42.13a.17.17,0,0,1-.25-.12c0-.12-.13-.26.1-.34a5.68,5.68,0,0,1,.71-.18.28.28,0,0,0,.24-.2,5.46,5.46,0,0,1,.73-1.42,1.66,1.66,0,0,1,.77-.64.82.82,0,0,1,.64.26.2.2,0,0,1,0,.13,1,1,0,0,1-.43.53c-.06,0-.1,0-.08-.06s0-.13,0-.2.09-.12,0-.17-.12,0-.17.06a2.27,2.27,0,0,0-.52.55,5.74,5.74,0,0,0-.5,1c-.07.14,0,.17.12.19a3.24,3.24,0,0,1,1,.16c.08,0,.09,0,.11-.07l.12-.4c0-.12.09-.19.22-.15s.26.1.24.26a1.84,1.84,0,0,1-.14.51c0,.06,0,.1,0,.16Z"/><path class="cls-15" d="M69.28,62.32a2.4,2.4,0,0,0,.82-.27.75.75,0,0,0,.4-.42,1.89,1.89,0,0,1,.75-.88.48.48,0,0,1,.71,0,.16.16,0,0,0,.19.07c.15,0,.2,0,.19.16a1.76,1.76,0,0,1-.4,1,2.3,2.3,0,0,1-.65.63c-.38.23-.59.19-.83-.19,0-.09-.09,0-.13,0a3.19,3.19,0,0,1-.84.33,1.26,1.26,0,0,1-.61,0,.45.45,0,0,1-.34-.41c0-.09,0-.15-.12-.17s-.1-.15-.1-.24a.12.12,0,0,1,.13-.13c.11,0,.14-.07.19-.16a2.84,2.84,0,0,1,.61-.92.6.6,0,0,1,.72-.16.44.44,0,0,1,.18.62,1.92,1.92,0,0,1-.84.83l-.12.06c-.08,0-.18,0-.16.17S69.08,62.33,69.28,62.32Zm-.16-.66a1.52,1.52,0,0,0,.61-.62s0-.1,0-.14-.09,0-.12,0a3.44,3.44,0,0,0-.5.7s0,0,0,0Zm2.61-.34s0-.21-.11-.13a1.6,1.6,0,0,0-.81.9s0,.09,0,.12.07,0,.1,0a2.05,2.05,0,0,0,.76-.64.52.52,0,0,0,0-.23Z"/><path class="cls-15" d="M53.45,61.3c.09,0,.11-.06.16-.1a3.47,3.47,0,0,1,.7-.63.36.36,0,0,1,.47,0c.19.16.22.22.15.47l-.28.94a.38.38,0,0,0,0,.22c.15-.16.29-.18.44,0a.18.18,0,0,1,0,.27.62.62,0,0,1-.63.28.58.58,0,0,1-.35-.57,3.34,3.34,0,0,1,.14-.7c0-.06.06-.11,0-.19a2.49,2.49,0,0,0-.56.51c-.27.29-.46.63-.71.92-.07.09-.12.23-.29.15a.39.39,0,0,1-.23-.46c.09-.33.23-.66.35-1,.34-.87.67-1.73,1-2.61,0-.13.11-.14.21-.07.3.19.33.19.2.53q-.4,1-.81,2.07Z"/><path class="cls-15" d="M64.27,61.61c-.21.24-.39.44-.58.63a2.34,2.34,0,0,1-.67.54.15.15,0,0,1-.2,0,.62.62,0,0,1-.22-.62,1.53,1.53,0,0,1,.42-.78,3.58,3.58,0,0,1,.94-.71.37.37,0,0,1,.16,0c.2,0,.28-.09.34-.26.15-.42.3-.84.47-1.26,0-.06,0-.19.14-.15s.31,0,.32.23a.66.66,0,0,1-.06.31,14.74,14.74,0,0,0-.53,1.75,6.85,6.85,0,0,0-.1.91.37.37,0,0,0,0,.23.33.33,0,0,1,0,.26.22.22,0,0,1-.27.17c-.14,0-.23-.07-.24-.22s0-.6,0-1Zm-1.09.47,0,0,1-1.07A2.45,2.45,0,0,0,63.18,62.08Z"/><path class="cls-15" d="M73.24,62.61c-.48,0-.47,0-.57.35l-.45,1.54c0,.13,0,.26-.23.23a.34.34,0,0,1-.28-.36c.05-.24.11-.47.18-.72.13-.51.26-1,.4-1.55a14.36,14.36,0,0,1,.62-1.39c0-.09.1-.13.17-.05a.16.16,0,0,0,.22,0,.82.82,0,0,1,1.15.63.71.71,0,0,1-.2.64A1.53,1.53,0,0,1,73.24,62.61ZM74,61.24c0-.15,0-.18-.19-.16a1.12,1.12,0,0,0-.85,1c0,.09,0,.07.09,0a1.61,1.61,0,0,0,.9-.7.26.26,0,0,0,0-.21Z"/><path class="cls-15" d="M67.24,60.51a1.6,1.6,0,0,1,.93.42.56.56,0,0,1,0,.8,2.34,2.34,0,0,1-1,.75.64.64,0,0,0-.46.48c-.11.42-.22.85-.31,1.26,0,.1,0,.19-.15.22s-.16-.06-.22-.12a.43.43,0,0,1-.12-.43c.1-.38.17-.76.26-1.14a.28.28,0,0,0-.07-.31c-.1-.09-.08-.16,0-.18s.17-.11.2-.23a7.36,7.36,0,0,1,.34-1.22.53.53,0,0,1,.56-.3ZM67,61.94a1.23,1.23,0,0,0,.75-.55c.14-.19.12-.26-.1-.34a.56.56,0,0,0-.33-.06c-.09,0-.06.16-.09.24a2.68,2.68,0,0,0-.23.71v0Z"/><path class="cls-15" d="M49.7,62.79a1.21,1.21,0,0,1-.38-.06.4.4,0,0,1-.28-.34c0-.1,0-.21-.16-.24s-.08-.14-.08-.23.07-.12.14-.12.13-.06.17-.15a2.87,2.87,0,0,1,.59-.9,1.21,1.21,0,0,1,.31-.21.5.5,0,0,1,.57.13.41.41,0,0,1,.05.49,1.9,1.9,0,0,1-.88.87c-.1,0-.3,0-.23.22s.22.07.33.06a2.54,2.54,0,0,0,.84-.33c.11-.06.22-.12.32,0s.09.23,0,.31A2.35,2.35,0,0,1,49.7,62.79Zm-.11-1.12a1.54,1.54,0,0,0,.65-.64c0-.05,0-.09,0-.12s-.09,0-.12,0a3.35,3.35,0,0,0-.52.73Z"/><path class="cls-15" d="M60.59,62a2.44,2.44,0,0,1,.61-1.15.92.92,0,0,1,.22-.18c.18-.11.37-.23.58-.11a.75.75,0,0,1,.47.75,2,2,0,0,1-.72,1.34.61.61,0,0,1-.72.09.76.76,0,0,1-.44-.74Zm.48.21c0,.17.06.18.18.13l.13-.07A2.12,2.12,0,0,0,62,61.17.13.13,0,0,0,62,61s-.09,0-.14,0a1.87,1.87,0,0,0-.77,1.15Z"/><path class="cls-15" d="M51.66,62.63a2.37,2.37,0,0,0-.19-.67,2.06,2.06,0,0,1-.12-1,.77.77,0,0,1,.19-.37c.12-.12.26-.22.38-.34a.39.39,0,0,1,.49,0,.27.27,0,0,1,0,.43,1.19,1.19,0,0,0-.51.46.45.45,0,0,0,0,.32,9.41,9.41,0,0,1,.25.91,1.25,1.25,0,0,1-.28,1.15.59.59,0,0,1-1-.2.31.31,0,0,1,.06-.33c.09-.11.21-.06.31-.07s.08.09.06.16,0,.12,0,.16.12,0,.17,0A.74.74,0,0,0,51.66,62.63Z"/><path class="cls-15" d="M75.15,62.82a.44.44,0,0,1-.48-.47,1.81,1.81,0,0,1,.11-.6c.22-.7.46-1.4.69-2.11,0-.15.08-.29.13-.44s0-.25.2-.21.27.09.28.27a1.36,1.36,0,0,1-.11.53c-.25.74-.52,1.47-.73,2.22,0,.06,0,.12,0,.18s0,.13.11.12.24-.09.28.07a.33.33,0,0,1-.18.38.48.48,0,0,1-.25.06Z"/><path class="cls-15" d="M43.23,62a.16.16,0,0,0-.22-.08,1.66,1.66,0,0,0-.27.13,1.81,1.81,0,0,1-.78.26c-.09,0-.22,0-.25-.1s.11-.14.18-.17a1.91,1.91,0,0,0,1-.89.44.44,0,0,0-.21-.62.45.45,0,0,0-.5,0,1.47,1.47,0,0,0-.58.63,1.21,1.21,0,0,1-.51.54c-.21.13-.4.29-.64.41a2.78,2.78,0,0,1,.13-.55,3.51,3.51,0,0,0,.18-.69c0-.13,0-.26-.12-.31a.61.61,0,0,0-.56,0,1.62,1.62,0,0,0-.47.47c0,.05-.06.12-.14.09a.77.77,0,0,1,.07-.16c.22-.52.41-1,.63-1.55a.63.63,0,0,1,.63-.48c.33,0,.38-.14.38-.49A.73.73,0,0,0,41,58a.37.37,0,0,0-.64,0,3.15,3.15,0,0,0-.22.33.32.32,0,0,1-.32.2h-1a.32.32,0,0,1-.28-.11c-.12-.13-.35-.14-.39,0s-.17.15-.3.15a12.62,12.62,0,0,0-2,.24,2.22,2.22,0,0,0-1.43.83.69.69,0,0,0,.19,1c.08.05.12,0,.18,0s.06-.07,0-.14a.39.39,0,0,1,.1-.55,2.35,2.35,0,0,1,1.15-.59,9.87,9.87,0,0,1,1.72-.22c.15,0,.17,0,.13.17-.16.43-.33.87-.47,1.31-.19.66-.43,1.29-.67,1.92-.11.28-.08.36.16.53s.23.07.32-.08a2,2,0,0,0,.17-.48c.1-.39.28-.75.38-1.14.21-.71.45-1.42.66-2.12,0-.09.05-.17.17-.17h1.25l-.19.38c-.37.83-.65,1.68-1,2.54a2.47,2.47,0,0,0-.11.36.35.35,0,0,0,.24.4.23.23,0,0,0,.3-.13c.14-.3.38-.54.55-.83a2,2,0,0,1,.48-.55,8,8,0,0,0-.26,1,.46.46,0,0,0,.2.51c.17.12.32.05.48,0a4,4,0,0,0,.71-.43c.1.4.13.47.4.53a2.09,2.09,0,0,0,1.63-.48c.07,0,.06-.15,0-.24Zm-.95-1.07s.07-.08.13,0,0,.09,0,.14a1.56,1.56,0,0,1-.6.62,0,0,0,0,1,0,0A3.73,3.73,0,0,1,42.28,60.94Zm-.51.71a0,0,0,0,1,0,0h0Zm-1.2-3.21c0-.06.09-.06.1,0a.09.09,0,0,1,0,.12.14.14,0,0,1-.11,0A.55.55,0,0,1,40.57,58.44Z"/></svg>