<svg id="Layer_1" data-name="Layer 1" xmlns="http://www.w3.org/2000/svg" viewBox="0 0 113.41 80"><path d="M74.8,33.79c6.52-2.87,10.77-7.17,11-11.95,0,0-1.72-1.32-7.27-3.36a40.2,40.2,0,0,0-8.59-2.21V26.91a7.32,7.32,0,0,1-1.84,4.65,51.55,51.55,0,0,0-12-1.39h0a51.51,51.51,0,0,0-12,1.39,7.28,7.28,0,0,1-1.85-4.65l0-10.64a40.35,40.35,0,0,0-8.6,2.21c-5.55,2-7.27,3.36-7.27,3.36.23,4.78,4.49,9.08,11,12-6.52,2.87-10.77,7.17-11,11.94,0,0,1.72,1.33,7.27,3.37a40.65,40.65,0,0,0,8.6,2.2l0-10.63A7.3,7.3,0,0,1,44,36a51.55,51.55,0,0,0,12,1.39h0A51.66,51.66,0,0,0,68.12,36,7.3,7.3,0,0,1,70,40.67l0,10.63a40.65,40.65,0,0,0,8.6-2.2c5.55-2,7.27-3.37,7.27-3.37-.23-4.77-4.49-9.08-11-11.94M56.07,36.18H56a17.5,17.5,0,0,1-9.31-2.39A17.42,17.42,0,0,1,56,31.4h.24a17.41,17.41,0,0,1,9.31,2.39,17.5,17.5,0,0,1-9.31,2.39"/><path d="M17.82,63.09a1.73,1.73,0,0,1-1.91-2v-2.6c0-.15,0-.36.33-.36h1c.31,0,.29.22.29.36v2.6c0,.18,0,.67.72.67h1.62a.62.62,0,0,0,.7-.67v-2.6c0-.14,0-.36.3-.36h1c.35,0,.32.22.32.36v2.6a1.72,1.72,0,0,1-1.91,2"/><path d="M26.76,62.78c-.65-.89-1.6-2-2.56-3.19v3.15c0,.14,0,.35-.29.35H23c-.33,0-.29-.21-.29-.35V58.52c0-.14,0-.36.29-.36h1.76c.49,0,1.2,1,1.66,1.66.36.5,1,1.26,1.46,1.82V58.52c0-.14,0-.36.31-.36h1c.32,0,.3.22.3.36v4.57H27.67a1,1,0,0,1-.91-.31"/><path d="M34.19,61.79c.79,0,.73-.76.73-1.1,0-1.17-.32-1.21-.85-1.21H31.59v2.31Zm-4.12,1.3V58.17h4.35a1.81,1.81,0,0,1,2,1.84c0,1.91.21,3.08-2,3.08H32.11l-.51-1v1"/><path d="M38.18,58.2h4c.34,0,.29.22.29.63s.05.6-.29.6H39c-.09,0-.37,0-.37.25s-.06.42.26.42h2.8s.4.78.45.91.06.22-.19.22h-2.9l-.45-.87v1.29c0,.3.27.24.35.24h3.29c.32,0,.3.23.3.6s0,.62-.3.62H38.09c-.35,0-1-.1-1-1.18V59.21a1,1,0,0,1,1.11-1"/><path d="M47.06,59.46h-2c-.32,0-.31.12-.31.22v.88h2c1,0,1-.25,1-.5,0-.51,0-.6-.72-.6m-3.5-1.3H48c.59,0,1.44,0,1.44,1.59,0,1-.22,1.09-.69,1.41.79.13.69,1.14.69,1.67,0,.27-.1.26-.18.26H47.93c-.27,0-.21-.42-.21-.65,0-.6-.34-.58-.47-.58H45.36c-.18-.31-.54-1-.54-1v2c0,.17-.17.2-.24.2H43.29c.07,0-.13,0-.13-.16V58.59a.39.39,0,0,1,.4-.43"/><path d="M56.43,59.56,55.62,61l.07.07H57.2l.08-.07c-.05-.11-.71-1.35-.77-1.49h-.08M57,58.2c.32,0,.63.14,1,.8.24.47,1.83,3.35,2.16,4v.16H58.42l-.48-.86h-2l-.44-1c-.12.2-.79,1.47-1,1.85H52.8V63c.34-.64,2.66-4.81,2.66-4.81"/><path d="M64.43,59.46h-2c-.33,0-.31.12-.31.22v.88h2c1,0,1-.25,1-.5,0-.51,0-.6-.72-.6m-3.49-1.3h4.39c.59,0,1.44,0,1.44,1.59,0,1-.22,1.09-.69,1.41.79.13.69,1.14.69,1.67,0,.27-.1.26-.18.26H65.3c-.27,0-.2-.42-.2-.65,0-.6-.34-.58-.47-.58H62.74c-.19-.31-.54-1-.54-1v2c0,.17-.18.2-.24.2h-1.3c.08,0-.13,0-.13-.16V58.59a.4.4,0,0,1,.41-.43"/><path d="M70.61,63.09c-.33-.61-1.24-2.31-1.85-3.42v3.07c0,.14,0,.35-.29.35h-.89c-.34,0-.31-.21-.31-.35V58.52c0-.14,0-.36.31-.36h1.53c.23,0,.55,0,.92.68s.86,1.81,1.26,2.45c.41-.64,1-1.86,1.28-2.45s.68-.68.93-.68H75c.31,0,.28.22.28.36v4.22c0,.14,0,.35-.28.35h-.9c-.32,0-.3-.21-.3-.35V59.67c-.62,1.11-1.52,2.81-1.86,3.42"/><path d="M80.21,61.83c.74,0,.71-.76.71-1.27s.1-1.17-.86-1.17H78.44c-1,0-.84.71-.84,1.17s0,1.27.69,1.27ZM77.28,63.1c-1.45,0-1.39-1.56-1.39-2.57s-.1-2.38,1.72-2.39h3.23c1.83,0,1.71,1.47,1.71,2.39s.08,2.57-1.4,2.57"/><path d="M85,63.09a1.72,1.72,0,0,1-1.9-2v-2.6c0-.15,0-.36.32-.36h1c.32,0,.3.22.3.36v2.6c0,.18,0,.67.71.67H87a.61.61,0,0,0,.7-.67v-2.6c0-.14,0-.36.3-.36h1c.35,0,.32.22.32.36v2.6a1.72,1.72,0,0,1-1.91,2"/><path d="M93.82,59.46H91.87c-.33,0-.31.12-.31.22v.88h2c1,0,1-.25,1-.5,0-.51,0-.6-.72-.6m-3.49-1.3h4.39c.59,0,1.44,0,1.44,1.59,0,1-.22,1.09-.69,1.41.79.13.69,1.14.69,1.67,0,.27-.1.26-.18.26H94.69c-.26,0-.2-.42-.2-.65,0-.6-.34-.58-.47-.58H92.13c-.19-.31-.54-1-.54-1v2c0,.17-.18.2-.24.2H90.06c.07,0-.14,0-.14-.16V58.59a.4.4,0,0,1,.41-.43"/></svg>