<svg id="Layer_1" data-name="Layer 1" xmlns="http://www.w3.org/2000/svg" viewBox="0 0 113.41 80"><defs><style>.cls-1{fill:#eb151c;fill-opacity:0.89;}.cls-2{fill:#1a1a1a;}</style></defs><g id="g3022"><path id="path2235" class="cls-1" d="M12.17,42.18V35.62l.17.35a3.77,3.77,0,0,0,.94,1.25,6.4,6.4,0,0,0,1.45,1.12l1,.62a4.86,4.86,0,0,1,2.4,3,2.91,2.91,0,0,1,.12.93,4.68,4.68,0,0,1-.11,1.31c0,.09,0,.1.08.1a10.56,10.56,0,0,1,5.05,1.87,14.29,14.29,0,0,1,2,1.63c.33.32.38.35.4.29.07-.22-.31-.85-.82-1.37a12.92,12.92,0,0,0-3.6-2.45,4.43,4.43,0,0,1-1.59-1,1.05,1.05,0,0,1-.36-.72.62.62,0,0,1,.26-.56.74.74,0,0,1,1,0l.12.11-.13.06a1,1,0,0,1-.48,0l-.35,0v.07c0,.21.66.31,1.07.17a4.84,4.84,0,0,0,1.54-1,2.64,2.64,0,0,1,.34-.28,2.73,2.73,0,0,1,.6-.1,2.66,2.66,0,0,0,.67-.13c.14-.08.23-.18.19-.24a5.14,5.14,0,0,0-.75-.49,9.74,9.74,0,0,0-1.45-.54l-.56-.14s.06.27.14.37a1.13,1.13,0,0,0,.59.32c.07,0,.13,0,.13,0a1.54,1.54,0,0,1-.23.32,1.23,1.23,0,0,1-.6.31l-.12,0L21,40.57a8.73,8.73,0,0,0-2.59-2.34,12.61,12.61,0,0,0-2.54-1.16,16.79,16.79,0,0,1-2.06-.84A2.8,2.8,0,0,1,12.4,35c-.23-.46-.23-.48-.22-3.44V29l1.5,1.38c.82.76,1.52,1.39,1.55,1.4s.77.69,1.66,1.51L21,37c1.39,1.28,2.63,2.43,2.75,2.56s2.4,2.23,5,4.65l4.85,4.46s-1.63,0-10.73,0H12.17V42.18Z"/><path id="path4204" class="cls-2" d="M36.81,47.11a3.22,3.22,0,0,1-1.52-.72c-.22-.2-.44-.26-1.24-.32a4.88,4.88,0,0,1-3.09-1,2.64,2.64,0,0,1-.45-3.21,8.44,8.44,0,0,1,3.86-3.6,9.7,9.7,0,0,1,4.35-1.06c2.27-.11,3.53.18,4.3,1s.75,2.34-.4,4a8.58,8.58,0,0,1-3.45,2.8l-.86.43.23.24c.19.19.4.24,1.18.29l1,.05-.65.51A3.15,3.15,0,0,1,36.81,47.11Zm-.43-3.34a8.51,8.51,0,0,0,2.72-3.18c.43-.83.42-1.11-.06-1.31-1.15-.48-2.5.21-3.93,2C34,42.74,33.8,43.62,34.64,44A3.47,3.47,0,0,0,36.38,43.77Zm55.62,2a10.5,10.5,0,0,1-2.13-.48c-.88-.32-1.36-.58-1.25-.67l1.06-.88,1-.84.47.2a11.89,11.89,0,0,0,3.77.58c1.37-.19,1.13-.5-1-1.21-1.83-.62-2.5-1.1-2.73-1.92a2.16,2.16,0,0,1,1.13-2.41,10.6,10.6,0,0,1,6.42-.93c.72.12,1.56.3,1.88.39.66.2.65.3-.07,1s-1.1.68-3.12.65c-1.49,0-1.77,0-1.89.14s0,.41,1.3.81c2.81.88,3.59,1.61,3.19,3a3.74,3.74,0,0,1-2.65,2.27,11.58,11.58,0,0,1-5.41.37ZM42.28,44.39c.79-.76,2.2-2.18,3.15-3.16,2.3-2.37,3.3-3.09,5-3.61A8.29,8.29,0,0,1,54,37.27a10.52,10.52,0,0,1,1.25.16s-.33,1.62-.78,3.57-.89,3.8-1,4.13l-.14.6-2,0-2,0,.15-.57a4.74,4.74,0,0,0,.16-.72c0-.1-.45-.13-1.88-.13H46l-.7.71-.7.71H40.85l1.43-1.4ZM50.64,41a6.88,6.88,0,0,0,.24-1.28,10.46,10.46,0,0,0-2.77,2.4,3.55,3.55,0,0,0,1.12.09h1.11Zm5.28,1.68c1.94-3.34,2.5-4.09,3.5-4.69a5.06,5.06,0,0,1,2.38-.69h.5l.91,2.07c.51,1.14.95,2.08,1,2.08A12,12,0,0,0,65,40.08a18.29,18.29,0,0,1,1-1.67,3.71,3.71,0,0,1,2-1,4.86,4.86,0,0,1,2.11,0c0,.05-1.11,2-2.43,4.25l-2.39,4.16H62l-.91-2c-.49-1.11-.91-2-.93-2s-.56.91-1.2,2l-1.16,2H54.1Zm13.8,3.08s.74-1.34,1.64-2.9,1.66-2.91,1.69-3-.2-.16-1.69-.16a5.53,5.53,0,0,1-1.75-.11,3,3,0,0,1,.37-.69,3.43,3.43,0,0,1,2.17-1.46c.75-.15,9.73-.21,9.73,0a4.79,4.79,0,0,1-.88,1.3,4.49,4.49,0,0,1-2.67.91,8.2,8.2,0,0,0-1.19.14s-.82,1.39-1.76,3l-1.71,3-2,0a16.21,16.21,0,0,1-2,0Zm9.22-3.3c1.87-1.85,3.7-3.57,4.07-3.82a8.61,8.61,0,0,1,3.34-1.29,6.88,6.88,0,0,1,2.3-.06c.72.07,1.32.13,1.33.15s-.42,1.9-1,4.2l-1,4.18H86.09c-1.8,0-1.94,0-1.88-.19s.08-.34.12-.52.1-.42.12-.52-.09-.19-1.88-.19H80.63l-.7.71-.7.71H75.54l3.4-3.36Zm6.19-.66a18.5,18.5,0,0,0,.51-2.18,7.38,7.38,0,0,0-2,1.6l-1,1H85l.1-.41Z"/></g></svg>