<svg id="Layer_1" data-name="Layer 1" xmlns="http://www.w3.org/2000/svg" viewBox="0 0 113.41 80"><defs><style>.cls-1{fill:#ea1d25;}</style></defs><g id="g8"><path id="path6" class="cls-1" d="M20.34,38.17a3.93,3.93,0,0,0-.54-1.79L17,31.45a4.38,4.38,0,0,1-.46-1.2l-.12.21a3.91,3.91,0,0,0,0,3.94l2.28,3.93a4,4,0,0,1,0,3.94l-.13.21a4,4,0,0,0-.45-1.2L16,37.67,14.7,35.35a4.38,4.38,0,0,1-.46-1.2l-.12.2a3.91,3.91,0,0,0,0,3.94h0l2.28,3.94a4,4,0,0,1,0,3.94l-.13.21a4.12,4.12,0,0,0-.45-1.21L13,40.24a4.41,4.41,0,0,1-.54-2.16c-3,.79-5.14,2.49-5.14,4.44,0,2.74,4.06,4.93,9.08,4.93s9.08-2.19,9.08-4.93C25.48,40.65,23.41,39,20.34,38.17Zm8.58,8.41a5.55,5.55,0,0,1,.33-1.74,7.72,7.72,0,0,0,3.11.67c1.57,0,2.49-.5,2.49-1.54s-.67-1.45-2.24-2.15l-.87-.34c-1.62-.7-2.7-1.61-2.7-3.4s1.37-3.19,4.11-3.19a9.48,9.48,0,0,1,3.11.5,6.32,6.32,0,0,1-.34,1.7,9,9,0,0,0-2.81-.5c-1.5,0-2.16.58-2.16,1.49s.66,1.41,1.87,1.91l.91.37c2.15.92,3.07,1.91,3.07,3.57,0,2-1.5,3.32-4.4,3.32A8,8,0,0,1,28.92,46.58Zm17-8.16V47H44.22l-.09-1a2.62,2.62,0,0,1-2.4,1.24c-2.24,0-3.77-1.65-3.77-4.52s1.61-4.72,4.76-4.72A10.55,10.55,0,0,1,46,38.42ZM44.09,45V39.66a7,7,0,0,0-1.37-.08c-1.94,0-2.86,1.2-2.86,3.11,0,1.74.71,3,2.37,3A3.27,3.27,0,0,0,44.09,45Zm11.48-3.77V47H53.71V41.57c0-1.37-.46-2-2.32-2a10,10,0,0,0-1.49.12V47H48V38.42a16.42,16.42,0,0,1,3.4-.5C54.58,38,55.57,39.16,55.57,41.24Zm5.23,4.35a3.69,3.69,0,0,0,1.45-.25c0,.5-.13,1.08-.21,1.57a4.19,4.19,0,0,1-1.57.29c-1.83,0-3-.82-3-2.9v-9A5.79,5.79,0,0,1,59.35,35v3.23h3c0,.58-.08,1.12-.16,1.62H59.35v4.18C59.35,45.13,59.89,45.59,60.8,45.59Zm10.07-7.17V47H69.13l-.08-1a2.64,2.64,0,0,1-2.41,1.24c-2.23,0-3.77-1.65-3.77-4.52s1.62-4.72,4.77-4.72a10.68,10.68,0,0,1,3.23.5ZM69,45V39.66a7,7,0,0,0-1.37-.08c-1.95,0-2.86,1.2-2.86,3.11,0,1.74.7,3,2.36,3A3.18,3.18,0,0,0,69,45Zm11.52-3.77V47H78.58V41.57c0-1.37-.45-2-2.32-2a10.26,10.26,0,0,0-1.49.12V47H72.9V38.42a16.51,16.51,0,0,1,3.4-.5c3.15,0,4.19,1.24,4.19,3.32ZM90,35V47H88.24l-.08-1.08a2.61,2.61,0,0,1-2.45,1.28c-2.24,0-3.77-1.65-3.77-4.52s1.62-4.72,4.77-4.72a8,8,0,0,1,1.41.12V35.22A7.17,7.17,0,0,1,90,35ZM88.12,45V39.74a9.55,9.55,0,0,0-1.49-.16c-1.87,0-2.74,1.16-2.74,3.11,0,1.74.7,3,2.36,3A3.39,3.39,0,0,0,88.12,45Zm11.32-1.7h-6c.25,1.53,1.12,2.24,2.82,2.24a6.65,6.65,0,0,0,3-.67c-.08.5-.17,1.16-.29,1.7a6.67,6.67,0,0,1-2.78.54c-3.15,0-4.64-1.74-4.64-4.64,0-2.53,1.16-4.56,4.14-4.56a3.56,3.56,0,0,1,3.86,3.9,8.82,8.82,0,0,1-.08,1.49Zm-6-1.58h4.23c0-1.41-.74-2.24-2-2.24S93.55,40.28,93.42,41.73ZM106,38a8.66,8.66,0,0,1-.17,1.62c-.46,0-.87-.08-1.41-.08s-.91,0-1.37.08V47h-1.86V38.42a10.72,10.72,0,0,1,3.19-.5C105,38,105.61,38,106,38Z"/></g></svg>