<svg id="Layer_1" data-name="Layer 1" xmlns="http://www.w3.org/2000/svg" viewBox="0 0 113.41 80"><defs><style>.cls-1,.cls-3{fill:#047bc1;}.cls-2{fill:#fcaf17;}.cls-3{fill-rule:evenodd;}</style></defs><g id="Layer_2" data-name="Layer 2"><g id="Layer_1-2" data-name="Layer 1-2"><path class="cls-1" d="M48.62,36.05a3.1,3.1,0,0,0-2.36,1.1v-.71H43.9V48h2.62v-4a3.28,3.28,0,0,0,2.1.76,4.32,4.32,0,0,0,0-8.63m4.19,4.32a4.27,4.27,0,0,0-4.19-4.32m-.26,6.23a1.92,1.92,0,0,1-.17-3.83,1.93,1.93,0,0,1,2,1.84v.08a1.86,1.86,0,0,1-1.83,1.91h0"/><path class="cls-2" d="M57.14,43.13a1.58,1.58,0,1,1-1.58-1.57h0a1.56,1.56,0,0,1,1.58,1.56h0"/><path class="cls-3" d="M40.74,35.34a1.47,1.47,0,1,1,1.47-1.48h0a1.46,1.46,0,0,1-1.46,1.47h0"/><rect class="cls-1" x="39.44" y="36.44" width="2.62" height="7.87"/><polygon class="cls-3" points="23.97 32.77 23.97 34.97 27.38 34.97 27.38 44.31 30 44.31 30 34.97 33.41 34.97 33.41 32.77 23.97 32.77"/><path class="cls-1" d="M62.65,42.29a1.92,1.92,0,1,1,0-3.83A1.79,1.79,0,0,1,64,39l1.73-1.73a4.31,4.31,0,1,0,0,6.12L64,41.7a1.84,1.84,0,0,1-1.32.59"/><path class="cls-3" d="M85.59,36a2.66,2.66,0,0,0-2.44,1.29A2.65,2.65,0,0,0,80.8,36a2.56,2.56,0,0,0-2.29,1.29v-.89H76.15v7.87h2.62V39.4a1.15,1.15,0,1,1,2.3-.15.38.38,0,0,1,0,.15v4.91h2.47V39.4a1.16,1.16,0,1,1,2.31-.15v5.06h2.62v-5.4A2.67,2.67,0,0,0,85.59,36"/><path class="cls-1" d="M70.51,36.05a4.31,4.31,0,1,0,4.31,4.31,4.31,4.31,0,0,0-4.31-4.31m0,6.23a1.92,1.92,0,1,1-.16-3.83,1.9,1.9,0,0,1,2,1.83v.08a1.87,1.87,0,0,1-1.83,1.92"/><path class="cls-1" d="M37.6,36.4a2.81,2.81,0,0,0-2.35,1.27V36.44H32.88v7.87h2.64V41a2.11,2.11,0,0,1,2-2.2h.18a2.85,2.85,0,0,1,.41,0V36.48a4.53,4.53,0,0,0-.53,0"/></g></g></svg>