<svg id="Layer_1" data-name="Layer 1" xmlns="http://www.w3.org/2000/svg" viewBox="0 0 113.41 80"><defs><style>.cls-1{fill:#fcca12;}.cls-2{fill:#59c247;}.cls-3{fill:#176fc1;}</style></defs><g id="layer1"><g id="g8694"><path id="path8540" class="cls-1" d="M66.24,39.71,63.91,15.77,61.55,40.11c1.53-.17,3.09-.3,4.69-.4"/><path id="path8544" class="cls-2" d="M71.92,39.53V15.77h-8l2.33,23.94c1.85-.11,3.75-.17,5.68-.18"/><path id="path8548" class="cls-3" d="M61.55,40.11l2.36-24.34H43v28.9a65,65,0,0,1,18.58-4.56"/><path id="path8552" class="cls-3" d="M54.36,50.94c.29.06,1.33.36,1.33,1.09V63.8h3.5V50.52H54.36v.42"/><path id="path8556" class="cls-3" d="M26.85,50.52v.42c.42.09,1.34.35,1,1.18L22.6,63.8h2.75L27,60.16h5.78L34.2,63.8h3.63L32.65,50.52Zm.88,8,2.34-5.22,2.06,5.22h-4.4"/><path id="path8560" class="cls-3" d="M80.5,50.52v.42c.42.09,1.34.35,1,1.18L76.25,63.8H79l1.63-3.64h5.78l1.43,3.64h3.63L86.3,50.52Zm.88,8,2.35-5.22,2,5.22H81.38"/><path id="path8564" class="cls-3" d="M71.19,63.8l5.54-13.28H74.11l-4.06,9.74-3.86-9.74H61.27v.42A1.84,1.84,0,0,1,62.77,52L67.44,63.8h3.75"/><path id="path8568" class="cls-3" d="M46.94,63.8l5.53-13.28H49.85l-4.06,9.74-3.86-9.74H37v.42A1.84,1.84,0,0,1,38.51,52L43.18,63.8h3.76"/></g></g></svg>