<svg id="Layer_1" data-name="Layer 1" xmlns="http://www.w3.org/2000/svg" viewBox="0 0 113.41 80"><defs><style>.cls-1{fill:#231f20;}.cls-2{fill:#fefefe;}.cls-3{fill:#9e242e;}.cls-4{fill:#ff912e;}.cls-5{fill:#f41cb2;}.cls-6{fill:#f25511;}</style></defs><path class="cls-1" d="M92.9,38a6.05,6.05,0,0,1,3.89-.28,1.83,1.83,0,0,1,1.13,1.77c0,1.54,0,3.05,0,4.58H96.59c0-.24-.11-.48-.15-.72a3.13,3.13,0,0,1-3,.72A1.92,1.92,0,0,1,93,40.94c.91-.83,2.22-.85,3.35-1.11-.08-.39-.13-.89-.59-1a4.93,4.93,0,0,0-2.72.39L92.9,38m1.45,3.54a.84.84,0,0,0,.12,1.39c.66.26,1.33-.2,1.84-.57v-1.5a4,4,0,0,0-2,.68"/><path class="cls-1" d="M58.51,34.9a20.56,20.56,0,0,1,2.22,0c.88,2.24,1.44,4.58,2.38,6.78.78-2.25,1.5-4.51,2.27-6.76q1.11,0,2.22,0c.22,3,.54,6.11.67,9.16h-1.7c-.21-2.18-.3-4.38-.52-6.56-.89,2.15-1.5,4.38-2.29,6.56-.54,0-1.07,0-1.61,0-.78-2.18-1.39-4.39-2.29-6.52-.19,2.18-.28,4.36-.48,6.52H57.85c.12-3.06.44-6.09.66-9.14"/><path class="cls-1" d="M83.84,35.58a12,12,0,0,1,1.55-.22c0,.74,0,1.48,0,2.22l1.3,0,.22,1.28-1.5,0c0,1.11-.07,2.24,0,3.37.16.53.87.38,1.29.48A10.83,10.83,0,0,1,87,44.08a3.77,3.77,0,0,1-2.46-.28,1.73,1.73,0,0,1-.65-1.46c0-1.12,0-2.27,0-3.4-.29,0-.59,0-.88-.09,0-.41,0-.81,0-1.22l.87-.07c0-.67,0-1.31,0-2"/><path class="cls-1" d="M69.23,37.74a13.42,13.42,0,0,1,1.66-.2c.5,1.48.94,3,1.46,4.43.54-1.42.94-2.9,1.4-4.34.54,0,1.08-.05,1.59,0-.59,2-1.36,3.85-2,5.79A6.57,6.57,0,0,1,72,46a2.56,2.56,0,0,1-2.22.42c-.07-.42-.15-.85-.2-1.27A5.91,5.91,0,0,0,70.71,45a1.06,1.06,0,0,0,.7-1.29c-.7-2-1.5-4-2.18-6"/><path class="cls-1" d="M76.4,37.59l1.34,0c.06.28.12.56.19.83a3.2,3.2,0,0,1,2.46-1,1.6,1.6,0,0,1,1.47,1.57c0,1.65,0,3.31,0,5-.51,0-1,0-1.53,0-.15-1.49,0-3-.07-4.51-.08-.61-.84-.77-1.32-.53s-1,.48-.94,1c0,1.33,0,2.67,0,4-.53,0-1.07,0-1.62,0V37.59"/><path class="cls-1" d="M88.15,37.59h1.36c.06.37.11.74.19,1.13a3.34,3.34,0,0,1,2-1.27A7.44,7.44,0,0,1,92,39a2.94,2.94,0,0,0-2.2,1.38c-.07,1.2,0,2.4,0,3.62h-1.6c0-2.13,0-4.27,0-6.42"/><path class="cls-2" d="M23,29a6.66,6.66,0,0,1,2.82-2.31c1.35-.35,2.48.7,3.33,1.61a39.32,39.32,0,0,1,5.32,8.49,43.32,43.32,0,0,1,2.86-5.22,17.41,17.41,0,0,1,3.48-4.25,2.34,2.34,0,0,1,2.42-.58,10.35,10.35,0,0,1,2.9,2.66,41.78,41.78,0,0,1,4.4,7.39,39.14,39.14,0,0,1,3.49,10.44c.16,1.68.31,3.59-.7,5a3.67,3.67,0,0,1-3.61,1.33,6.53,6.53,0,0,1-2.92-2.13A26,26,0,0,1,43,43.88c-.15-.47-.31-.93-.48-1.39-.11.46-.24.92-.39,1.39a26.42,26.42,0,0,1-3.93,7.65,6.66,6.66,0,0,1-2.83,2,4.54,4.54,0,0,1-4.18-1.66C29.13,49.7,28,46.85,27,44.1a17.2,17.2,0,0,1-.55-1.72c-.17.59-.37,1.16-.58,1.74a25.6,25.6,0,0,1-3.67,7.24,5.36,5.36,0,0,1-3.62,2.25,3.33,3.33,0,0,1-3.26-2,9.74,9.74,0,0,1-.2-5.56,41.76,41.76,0,0,1,3.62-10A39.77,39.77,0,0,1,23,29m.79.77a40.63,40.63,0,0,0-4.29,7.1,37.89,37.89,0,0,0-3.47,10,9.55,9.55,0,0,0-.11,3,3.08,3.08,0,0,0,1.35,2.42A2.45,2.45,0,0,0,19.93,52a10.45,10.45,0,0,0,3-3.75,42.13,42.13,0,0,0,3.53-10,43.4,43.4,0,0,0,3.68,10.21,9.78,9.78,0,0,0,2.53,3.24,2.71,2.71,0,0,0,2.09.77A3.91,3.91,0,0,0,37,51.3a14.86,14.86,0,0,0,2.46-3.69,44.62,44.62,0,0,0,3.16-9.15,40,40,0,0,0,4.17,11,7.1,7.1,0,0,0,3,3,2.22,2.22,0,0,0,2.68-.84A5.9,5.9,0,0,0,53,48a22.11,22.11,0,0,0-1.33-5.66,50.28,50.28,0,0,0-4.86-10.14,18.17,18.17,0,0,0-3.16-4c-.46-.41-1.12-.78-1.7-.39a10.09,10.09,0,0,0-2.64,2.77,46.59,46.59,0,0,0-4.71,8.63c0,.06-.11.13-.15.18a8.69,8.69,0,0,0-.37-1,47.3,47.3,0,0,0-4.62-8.13A10.12,10.12,0,0,0,27.36,28a1.28,1.28,0,0,0-1.29-.26,6.37,6.37,0,0,0-2.24,2"/><path class="cls-3" d="M23.83,29.72a6.82,6.82,0,0,1,2.2-2,1.28,1.28,0,0,1,1.29.26,11.15,11.15,0,0,1,2.15,2.29,47.16,47.16,0,0,1,4.61,8.13,8.69,8.69,0,0,1,.37,1,65,65,0,0,0-5.39-8.51A6.43,6.43,0,0,0,26.88,29a1.57,1.57,0,0,0-1.46.36A19.55,19.55,0,0,0,21.69,34a48.39,48.39,0,0,0-5.62,12.92,37.89,37.89,0,0,1,3.47-10,39.91,39.91,0,0,1,4.29-7.1"/><path class="cls-3" d="M42,27.8c.57-.4,1.25,0,1.7.39a18.3,18.3,0,0,1,3.15,4,50.08,50.08,0,0,1,4.86,10.15A22.36,22.36,0,0,1,53,48a22.66,22.66,0,0,0-1-4A46.4,46.4,0,0,0,47.2,33.9,24.19,24.19,0,0,0,44.3,30a4,4,0,0,0-1.53-1.11c-.48-.15-.91.18-1.29.42a14,14,0,0,0-2.59,2.9,59.47,59.47,0,0,0-3.66,6,5.07,5.07,0,0,1-.65.92,46.53,46.53,0,0,1,4.71-8.63A11.08,11.08,0,0,1,42,27.8"/><path class="cls-4" d="M25.44,29.32A1.54,1.54,0,0,1,26.9,29a6.29,6.29,0,0,1,2.18,1.9,65.84,65.84,0,0,1,5.39,8.52c-1.07,3-2.33,6.06-2.4,9.31a7.17,7.17,0,0,0,.61,3,9.74,9.74,0,0,1-2.53-3.23,43.64,43.64,0,0,1-3.68-10.22,31.17,31.17,0,0,1-1-9"/><path class="cls-5" d="M41.49,29.37c.39-.24.82-.57,1.3-.42a4,4,0,0,1,1.53,1.11,24.49,24.49,0,0,1,2.9,3.86A46.38,46.38,0,0,1,52,44a21,21,0,0,1,1,4,5.69,5.69,0,0,1-.61,3.56,2.21,2.21,0,0,1-2.67.84,7.24,7.24,0,0,1-3-3,40,40,0,0,1-4.17-11,32.85,32.85,0,0,1-1-9.09"/><path class="cls-5" d="M21.71,33.94a19.16,19.16,0,0,1,3.73-4.62,32.7,32.7,0,0,0,1,9,42.36,42.36,0,0,1-3.53,10A10.36,10.36,0,0,1,20,52a2.47,2.47,0,0,1-2.62.24A3.16,3.16,0,0,1,16,49.83a9.63,9.63,0,0,1,.11-3,47.48,47.48,0,0,1,5.62-12.91"/><path class="cls-6" d="M38.89,32.27a14.58,14.58,0,0,1,2.59-2.9,32.4,32.4,0,0,0,1.05,9.09,46.28,46.28,0,0,1-3.16,9.15,15,15,0,0,1-2.46,3.69,3.68,3.68,0,0,1-2.2,1.22,2.75,2.75,0,0,1-2.09-.77,7.17,7.17,0,0,1-.6-3c.07-3.25,1.33-6.3,2.4-9.32,0,0,.11-.12.14-.18a4.93,4.93,0,0,0,.65-.92,60.24,60.24,0,0,1,3.68-6"/></svg>