<svg id="Layer_1" data-name="Layer 1" xmlns="http://www.w3.org/2000/svg" viewBox="0 0 113.41 80"><defs><style>.cls-1{fill:#141423;}</style></defs><path class="cls-1" d="M39.63,43.75h2.5c.14,1.32.81,1.78,2.34,1.78s2.07-.46,2.07-1.26-.46-1.11-2-1.38l-1.2-.21c-2.26-.38-3.44-1.38-3.44-3.17,0-2,1.55-3.17,4.36-3.17,3.23,0,4.55,1.4,4.63,3.56H46.42c-.06-1.34-.89-1.73-2.21-1.73s-1.83.47-1.83,1.22.61,1.08,1.74,1.28l1.33.21c2.52.44,3.64,1.38,3.64,3.19,0,2.12-1.73,3.3-4.66,3.3s-4.64-1.08-4.8-3.62Z"/><path class="cls-1" d="M66.05,36.59,62.59,47.08H59.91l-1.33-4.31c-.31-1-.61-2.1-.89-3.14-.29,1-.57,2.1-.88,3.14l-1.3,4.31H52.83L49.37,36.59h2.75l1.18,3.92c.36,1.2.71,2.44,1,3.64.31-1.22.63-2.44,1-3.66l1.16-3.91h2.44l1.16,3.91c.36,1.22.69,2.45,1,3.67.32-1.21.67-2.45,1-3.65l1.18-3.92Z"/><path class="cls-1" d="M67,36.59h2.57V47.08H67Zm0-3.77h2.53v2.4H67.06Z"/><path class="cls-1" d="M75.08,38.54v5.68c0,.69.34.91,1.2.91h.87v1.95c-.47,0-.93.08-1.34.08-2.22,0-3.28-.75-3.28-2.68V38.54H70.91V36.59h1.62V33.54h2.55v3.05h2.07v1.95Z"/><path class="cls-1" d="M78,41.84c0-3.36,2.06-5.49,5.19-5.49,2.75,0,4.58,1.56,4.88,4H85.49a2.19,2.19,0,0,0-2.32-1.89c-1.53,0-2.56,1.06-2.56,3.36s1.08,3.35,2.56,3.35a2.23,2.23,0,0,0,2.36-2h2.56a4.6,4.6,0,0,1-4.92,4.15c-3.11,0-5.19-2.14-5.19-5.49Z"/><path class="cls-1" d="M98.93,40.13v6.95H96.37V40.55a1.75,1.75,0,0,0-2-2,2.36,2.36,0,0,0-2.34,2.64v5.88H89.5V32.6h2.56V38a3.84,3.84,0,0,1,3.19-1.65,3.42,3.42,0,0,1,3.68,3.79Z"/><path class="cls-1" d="M14.21,29.16V50.53H35.58V29.16ZM31,41.63c0,3.76-2.34,5.76-6.06,5.76s-6.06-2-6.06-5.76v-9h2.74v9c0,2.28,1.24,3.36,3.32,3.36s3.31-1.08,3.31-3.36v-9H31Z"/></svg>