<?xml version="1.0" encoding="UTF-8"?><svg id="GoCompare_Primary_Linear_RGB" xmlns="http://www.w3.org/2000/svg" viewBox="0 0 1105 116.19"><defs><style>.cls-1{fill:#1f3b19;}</style></defs><path class="cls-1" d="M387.65,72.39c-1.26,0-2.2,.47-2.98,.94-5.81,3.93-13.03,6.12-21.2,6.12-11.93,0-23.08-6.59-23.08-20.72,0-15.7,10.05-21.98,20.88-21.98,8.79,0,16.64,2.04,22.77,6.12,.78,.47,1.73,.94,2.98,.94,1.57,0,2.98-1.26,2.98-3.45V17.12c0-3.3-.94-4.08-3.93-6.44-7.69-5.97-20.57-10.68-36.43-10.68-40.98,0-66.1,22.92-66.1,60.29,0,34.54,24.96,55.89,65.79,55.89,16.33,0,29.05-4.55,37.37-10.52,2.98-2.04,3.92-2.98,3.92-6.44v-23.39c.02-2.18-1.4-3.44-2.97-3.44Z"/><path class="cls-1" d="M461.76,.01c-39.41,0-65.79,22.45-65.79,58.09s26.38,58.09,65.79,58.09,65.79-22.45,65.79-58.09C527.54,22.46,501.17,.01,461.76,.01Zm0,77.88c-10.99,0-17.43-8.16-17.43-19.78s6.44-19.78,17.43-19.78,17.43,8.16,17.43,19.78c-.01,11.61-6.44,19.78-17.43,19.78Z"/><ellipse class="cls-1" cx="273.04" cy="101.75" rx="14.92" ry="13.5"/><path class="cls-1" d="M125.3,55.44h-47.42c-1.88,0-3.45,1.57-3.45,3.45,0,1.26,.63,2.04,1.41,2.83l9.58,9.89c-4.71,4.4-9.89,6.28-16.33,6.28-12.87,0-20.72-7.85-20.72-20.41s7.07-19.78,19.78-19.78c6.75,0,13.03,2.04,18.21,7.22l.94,.94c2.67,2.67,4.08,2.98,6.28,2.04l27.01-12.56c2.51-1.1,3.45-2.2,3.45-3.93,0-1.1-.47-2.04-1.26-3.45C112.89,10.22,94.05,.01,67.36,.01,27.48,.01,0,22.78,0,58.57s24.96,57.62,62.96,57.62c17.9,0,34.7-5.34,49.14-17.11l10.21,10.68c.94,.94,2.04,1.41,2.98,1.41,1.88,0,3.45-1.57,3.45-3.45V58.89c.01-1.88-1.56-3.45-3.44-3.45Z"/><path class="cls-1" d="M198.3,.01C158.89,.01,132.51,22.46,132.51,58.1s26.38,58.09,65.79,58.09,65.79-22.45,65.79-58.09c0-35.64-26.38-58.09-65.79-58.09Zm0,77.88c-10.99,0-17.43-8.16-17.43-19.78s6.44-19.78,17.43-19.78,17.43,8.16,17.43,19.78-6.44,19.78-17.43,19.78Z"/><path class="cls-1" d="M991.49,66.43c8.95-6.75,13.5-16.49,13.5-26.22,0-21.98-19-37.05-43.33-37.05h-54.48c-1.88,0-3.45,1.57-3.45,3.45V109.61c0,1.88,1.57,3.45,3.45,3.45h39.25c1.88,0,3.46-1.57,3.46-3.45v-29.52l13.5,29.52c1.1,2.35,2.2,3.45,5.18,3.45h41.45c2.2,0,3.61-1.57,3.61-3.45,0-.63-.15-1.26-.47-1.88l-21.67-41.3Zm-38.78-11.15h-2.83v-22.61h2.83c5.65,0,12.09,3.14,12.09,11.46s-6.44,11.15-12.09,11.15Z"/><path class="cls-1" d="M667.28,3.15h-33.76c-3.61,0-4.71,.94-6.28,3.45l-23.86,38.31-23.86-38.31c-1.57-2.51-2.67-3.45-6.28-3.45h-33.76c-1.88,0-3.45,1.57-3.45,3.45V109.6c0,1.88,1.57,3.45,3.45,3.45h36.9c1.88,0,3.45-1.57,3.45-3.45v-36.9l20.57,35.01c.63,1.1,1.73,1.88,2.98,1.88s2.36-.79,2.98-1.88l20.57-35.01v36.9c0,1.88,1.57,3.45,3.45,3.45h36.9c1.88,0,3.45-1.57,3.45-3.45V6.6c0-1.88-1.57-3.45-3.45-3.45Z"/><path class="cls-1" d="M1101.55,34.55c1.88,0,3.45-1.57,3.45-3.45V6.61c0-1.88-1.57-3.45-3.45-3.45h-79.13c-1.88,0-3.45,1.57-3.45,3.45V109.61c0,1.88,1.57,3.45,3.45,3.45h79.13c1.88,0,3.45-1.57,3.45-3.45v-24.49c0-1.88-1.57-3.45-3.45-3.45h-36.74v-10.21h28.1c1.88,0,3.45-1.57,3.45-3.45v-20.72c0-1.88-1.57-3.45-3.45-3.45h-28.1v-9.26h36.74v-.03Z"/><path class="cls-1" d="M784.56,43.35c0-23.24-18.53-40.19-43.49-40.19h-54.32c-1.88,0-3.45,1.57-3.45,3.45V109.61c0,1.88,1.57,3.45,3.45,3.45h39.25c1.88,0,3.45-1.57,3.45-3.45v-26.06h11.62c24.96-.01,43.49-16.97,43.49-40.2Zm-51.18,10.67h-3.93v-21.35h3.93c5.5,0,10.99,3.14,10.99,10.68s-5.5,10.67-10.99,10.67Z"/><path class="cls-1" d="M860.08,6.29c-.78-2.2-2.36-3.14-4.71-3.14h-40.82c-2.36,0-3.93,.94-4.71,3.14l-37.68,102.05c-.79,2.2,.47,4.71,3.3,4.71h38.94c2.36,0,3.77-.78,4.4-3.14l2.63-10.36h26.9l2.65,10.36c.63,2.36,2.04,3.14,4.4,3.14h38.62c2.83,0,4.08-2.51,3.3-4.71L860.08,6.29Zm-32.38,68.51l7.1-28,7.17,28h-14.27Z"/></svg>