<svg xmlns="http://www.w3.org/2000/svg" width="674.667" height="148" viewBox="0 0 4800 1055" xmlns:v="https://vecta.io/nano"><path d="M493.84 18.38c46.4-6.64 93.35-8.11 140.16-7.88h4166v451.05l-1.47 25.48c-6.34 99.65-28.94 199.58-76.41 288.01l-12.41 21.86-15.49 24.18-16.83 23.27-17.02 20.97-20.04 22.07-14.74 14.18c-7.29 7.43-15.54 13.79-23.23 20.77-7.84 6.49-16.05 12.5-24.05 18.77l-23.74 16.27-22.04 13.33c-75.32 43.18-160.66 66.7-246.65 75.82-37.13 4.11-74.51 5.17-111.84 4.97H2.75V659.97c-.01-27.66.08-55.34 1.9-82.95 4.5-77.84 18.78-155.57 47.11-228.39 4.06-11.19 9.3-21.89 13.89-32.86l13.69-27.54 14.05-24.8 15.65-24.33 16.92-23.31 17.53-21.38c9.42-10.2 18.45-20.81 28.77-30.13 35.87-35.12 77.67-63.91 122.39-86.56 62.32-31.13 130.26-50.18 199.19-59.34m92.32 37.72c-74.55 2.49-149.38 14.13-219.33 40.66-52.48 19.72-101.92 48.03-144.35 84.76-47.14 40.45-84.9 91.34-111.98 147.13-11.06 22.85-20.47 46.48-28.32 70.62-21.53 66.72-31.28 136.79-33.54 206.72-1.07 41.66-.5 83.34-.64 125.01l.02 170.74-.02 88.28c.07 6.48-.29 12.98.54 19.43l184.43-.11h3646.96l314.7.12-.4-1.14c11.44.41 22.9-.05 34.36.24l-.32-1.24c9.27.14 18.63.71 27.83-.77 1.52-.19 3.35.14 4.67-1.03 3.6-.1 7.24-.04 10.9-.03l-.44-1.17c3.74-.27 8.1 1.29 11.5-.81 2.28-.06 4.62-.04 6.99.05l-.42-1.22c3.47.19 7.02.29 10.52-.32 1.81-.69 3.78-.57 5.78-.59l-.36-1.11c4.16.79 8.19-.72 12.35-.89l-.37-1.12 6.39.27-.36-1.3 5.5.35-.46-1.28c3.88.85 7.52-.87 11.38-.84l-.45-1.22 5.4.32-.4-1.27c1.8-.17 4.37.91 5.75-.89a101.55 101.55 0 0 1 3.69.16l-.41-1.3 5.34.29-.37-1.26c1.75.06 3.85.53 5.48-.65 2.34-.27 4.54-1.31 7-1.21l-.46-1.2 4.4.35-.42-1.37 4.36.37-.35-1.26c1.46 0 3.35.47 4.52-.93l3 .2-.47-1.32 5.2.24-.18-1.36 2.95.45.25-1.46 3.05.5-.29-1.48 3.31.46-.32-1.46 3.36.48-.36-1.48 3.42.5-.44-1.43 4.16.33.06-1.4 2.48.33c.45-1.88 2.27-.91 3.68-.92l-.37-1.4 3.33.44-.34-1.21c1.77-.16 3.65-.56 5.42-1.12l-.4-1.15 3.36.51-.36-1.48 3.18.46-.09-1.33c1.56.54 2.69.17 3.41-1.12l1.85.49-.33-1.52 3.29.49-.31-1.47 2.99.43.27-1.44 2.92.45-.13-1.27c1.62.68 2.92-.6 3.6-1.93l2.95.27-.61-1.24c1.73-.18 3.63-.36 5.28-1.21l-.23-.88c1.91-.02 4.67 0 5.46-2.26l1.78.71-.2-1.87 2.46 1.02-.48-1.73 3.3.41-.32-1.57 2.22.63-.16-1.67 2.19.7-.21-1.7 2.18.73-.18-1.73 2.23.73-.25-1.73 2.23.76-.22-1.76 2.28.76-.29-1.74 2.24.75-.31-1.44c1.43-.08 3.01-.45 4.45-.97l-.35-1.36 2.21.8-.33-1.49c1.37.38 2.55.09 3.53-.85a87.43 87.43 0 0 1 2.91-1.18l-.42-.93c1.66-.69 3.51-.79 5.29-1.34l-.25-1.83 3.11.37-.21-1.35 1.25.39 1.94-1.2.23-1.4 1.87.77-.33-1.68 1.58.79-.49-1.64c1.77.73 2.86.39 3.26-1.02l1.15.35-.3-1.68 2.25.97-.32-1.78 2.16.59-.24-1.5 1.5.46-.38-1.63 1.76.61c.11-.29.34-.86.46-1.14a15.77 15.77 0 0 1 3.03-1.11l-.34-1.29 1.44.77-.38-1.77 2.33.59-.27-1.67 2.11.76-.2-1.39c1.83.37 2.56-.35 2.18-2.17l3.12.27-.29-2.28 3.23.41-.37-1.33 1.64.52-.44-1.39 3.29-1.03-.27-.9c1.01-.42 2.08-.8 3.21-1.14l-.31-1.25 1.63.75-.65-1.83 2.24.7-.22-1.22c1.59.04 2.38-.74 2.36-2.34l1.95.48-.24-1.31c1.9.46 2.62-.29 2.15-2.23l2.19.69-.36-1.28c1.99.06 3.73-1.05 5.38-2.13l.49.03c3.1-3.35 6.96-5.84 10.43-8.8 39.16-31.24 72.57-69.49 99.15-111.91 33.95-53.97 56.66-114.5 70.29-176.65 10.34-46.29 15.58-93.59 17.64-140.95.84-24.67.87-49.36.82-74.05V55.75H716.93c-43.59.13-87.19-.31-130.77.35zm1401.02 187.18c15.37-12.85 39.57-13.22 55.27-.74 14.13 10.88 20.92 29 21.47 46.42l.1 34.8 90.01-.02c15.85.07 32.36-.2 47.19 6.27 9.87 4.14 18.32 12.35 21.18 22.86 2.59 9.62 2.18 20.07-.77 29.57-3.21 10.11-11.28 18.18-20.95 22.27-16.24 7.13-34.37 6.12-51.68 6.17-28.33 0-56.67-.01-85 0v176.08c.37 9.56.41 19.24 2.69 28.6 2.11 8.89 5.97 17.68 12.61 24.13 6.81 6.95 16.12 10.88 25.52 12.83 19.19 4.14 38.85.89 58.17-.42 14.52-1.22 30.01-3.15 43.67 3.23 10.57 4.76 17.95 15.19 19.9 26.5 1.02 6.64 1.65 13.5.22 20.14-2 9.87-8.57 18.47-17.07 23.7-13.99 9.12-30.81 11.65-46.76 15.31-24.62 5.24-50.07 4.8-74.97 2.02-23.79-3.24-47.73-9.59-68-22.9-15.08-9.6-27.76-23-36.29-38.73-10.4-18.73-15.18-40.1-16.59-61.34-1.12-24.66-.39-49.34-.59-74.01l.05-253.03c-.13-18.32 6.01-37.83 20.62-49.71zM675.16 306.17c8.84-6.35 20.02-9.38 30.86-8.22 18.74 1.49 36.69 14.68 41.89 33.05l98.39 312.58c2.15 4.78 9.54 5.37 12.83 1.52 2.21-2.28 4.14-4.89 5.09-7.96l59.25-154.8c9.46-23.75 17.47-48.12 28.7-71.13 3.67-7.46 7.43-14.95 12.43-21.63 8.35-12.77 21.45-22.61 36.48-25.84 15.92-3.31 33.26-1.5 47.44 6.79 12.21 7.18 21.44 18.59 27.88 31.07 5.36 9.52 9.07 19.85 12.73 30.12l79.53 207.61c1.64 3.22 4.76 5.48 7.78 7.37 3.44 2.07 8.29.01 9.51-3.73l99.33-315.84c2.81-8.72 8.5-16.5 16.1-21.65 15.68-10.66 37.71-10.72 53.66-.55 16.03 10.99 24.62 31.97 20.21 51.01-1.87 7.4-4.38 14.62-6.6 21.92l-90.15 289.73c-4.79 16.85-13.22 32.79-25.51 45.38-26.11 27.35-67.41 38.33-103.83 28.69-18.84-4.9-36.1-15.23-49.7-29.1-10.93-11.36-19.51-24.95-25.27-39.61l-61.64-157.51-55.33 158.86c-6.89 17.24-17.85 32.89-31.95 45-19.25 16.69-44.69 26.2-70.21 25.71-28.33.25-57.03-10.71-76.5-31.58-11.3-12.06-19.35-26.96-24.08-42.74L662.17 374.1c-3.04-10.45-7.67-20.95-6.41-32.09.89-14.03 8.37-27.24 19.4-35.84zm933.99-4.43c26.85-3.32 54.06-2.61 80.93.15 42.15 4.68 84.3 17.24 119.25 41.84 31.15 21.67 55.1 53.19 68.27 88.72 8.75 22.85 13.37 47.15 15.05 71.52.97 12.66.75 25.37.75 38.06l-.01 126.97c-.16 12.73.85 25.69-2.45 38.14-2.58 9.04-6.18 18.11-12.77 25.02-6.43 7.13-15.55 11.69-25.1 12.63-10.01.84-20.6-.26-29.37-5.48-7.31-4.43-13.72-10.53-17.99-17.97-5.92-10.76-6.09-23.46-6.22-35.41-27.98 24.91-61.27 44.17-97.54 53.97-47.92 12.89-99.72 11.48-146.8-4.29-37.31-12.54-71.44-34.69-97.47-64.28-26.43-29.87-44.31-67.12-51.29-106.38-8.48-46.88-3.1-96.69 17.79-139.72 15.37-31.87 39.17-59.47 68.04-79.87 34.33-24.4 75.24-38.67 116.93-43.62m16.41 85.95c-37.53 3.78-74.87 20.25-99.18 49.73-13.96 16.38-23.11 36.51-27.24 57.57-4.35 24.82-3.64 50.99 5.02 74.84 12.15 34.55 40.84 61.95 74.58 75.4 22.14 9.27 46.31 13.06 70.24 12.82 21.71-.32 43.49-3.63 63.99-10.93 18.6-6.84 36.17-16.98 50.45-30.81 12.78-12.21 22.79-27.22 29.38-43.6 9.13-22.63 11.45-47.59 9.11-71.75-2.12-20.2-8.22-40.26-19.68-57.17-11.3-17-27.54-30.47-45.89-39.26-22.8-11.1-48.15-15.94-73.32-17.52-12.48-.47-25.03-.82-37.46.68zm1315.93-86.96c46.94-4.12 95.24 2.12 138.55 21.14 35.19 15.35 66.89 39.22 90.04 69.97 24.5 32.08 39.08 71.4 42.16 111.59 3.5 43.98-5.05 89.4-27.15 127.83-18.75 33.22-46.97 60.85-80.09 79.68-35.51 20.59-76.24 31.15-117.05 33.61-47.82 2.81-96.82-5.22-139.86-26.72-34.27-16.83-64.54-42.22-85.91-73.95-22.33-32.54-34.67-71.57-36.32-110.92-1.95-43.01 7.73-87 30.22-123.94 19.17-32.12 47.32-58.62 79.99-76.73 32.24-18.2 68.67-28.17 105.42-31.56m7.07 86.98c-23.76 2.51-47.21 9.71-67.54 22.41-15.61 9.6-29.25 22.47-39.43 37.74-11.83 17.18-18.64 37.49-21.04 58.14-2.65 25.15.62 51.21 11.16 74.32 7.98 17.72 20.25 33.5 35.53 45.52 15.21 12.14 33.15 20.67 51.89 25.78 25.62 6.84 52.66 8.16 78.89 4.29 17.78-2.8 35.33-8 51.19-16.62 18.48-9.56 34.58-23.64 46.57-40.63 25.97-36.99 29.66-87.09 13.56-128.81-7.28-18.23-18.88-34.75-33.75-47.59-13.77-11.99-30.14-20.78-47.38-26.65-25.57-8.34-52.95-10.71-79.65-7.9zm978.01-83.9c26.77-1.52 53.62-.62 80.43-.41 26.53.72 53.17.74 79.53 4.23 15.53 2.38 31.79 7.25 42.91 18.98 11.78 12.35 12.56 32.59 4.04 46.93-5.1 8.37-13.96 13.75-23.13 16.6-12.38 4-25.56 3.39-38.37 3.18l-88-3.25c-26.17-.22-52.57-.51-78.38 4.32-10.33 2.12-21.08 4.93-29.25 11.94-5.2 4.35-8.06 10.97-8.52 17.65-.72 8.37.42 17.51 5.9 24.23 6.46 8.01 16.37 12.11 25.9 15.28 20.55 6.48 42.01 9.4 63.3 12.41 41.56 5.12 83.38 11.68 122.75 26.46 18.18 7.17 36.01 16.17 50.53 29.46 13.7 12.09 23.33 28.5 27.59 46.24 4.93 21.42 3.97 44.03-1.59 65.24-5.25 19.37-16.47 37.08-31.89 49.95-4.4 3.68-9.12 6.94-13.46 10.66-15.15 11.81-33.18 19.3-51.58 24.32-26.53 6.82-53.97 9.42-81.29 9.76-52.04 0-104.41.89-155.96-7.28-11.79-2.61-24.26-3.18-35.23-8.61-9.1-4.5-16.38-12.52-19.74-22.11-2.68-7.63-3.4-15.89-2.5-23.9 1.17-10.3 6.63-20.34 15.53-25.91 8.76-5.93 19.38-8.57 29.85-9.14 8.18-1.1 15.96 2.29 23.98 3.35 27.13 4.83 54.61 7.45 82.12 9.04 27.62 1.32 55.37 1.92 82.97-.43 17.35-1.76 35.11-4.26 50.87-12.2 8.02-4.26 15.52-10.66 18.63-19.45 2.92-8.46 3.06-18.74-2.76-26.03-7.52-9.61-19.6-13.85-30.82-17.44-41.42-11.63-84.9-11.27-126.99-19.25-23.45-4.3-46.81-10.16-68.56-20.1-16.03-7.55-31.38-17.32-43.02-30.86-14.4-16.16-22.05-37.41-24.26-58.74-2.35-23.69-.1-48.33 9.6-70.27 7.96-17.71 20.93-33.01 36.86-44.08 29.77-20.67 66.42-28.25 102.01-30.77zm-462.02 3.98c47.14-3.95 95.86.58 139.78 19.02 8.85 4.3 17.98 8.15 26.18 13.66 33.62 19.56 60.01 51.26 72.91 87.97 7.63 20.96 10.93 43.32 10.98 65.57l-.01 173.95c-.31 12.38.87 24.88-1.3 37.14-2.17 13.01-8.2 25.87-18.86 34.02-17.37 13.52-44.74 12.65-60.7-2.72-11.73-11.46-16.18-28.39-16.51-44.36l-.02-165.09c.09-24.58.75-50.06-8.6-73.27-6.52-17.68-19.19-32.95-35.39-42.57-19.53-11.74-42.55-15.94-65.01-17.24-24.92-.99-50.52.38-74.1 9.18-18.33 6.72-34.73 19.11-45.18 35.7-13.6 21.07-17.97 46.6-18.96 71.26l-.01 166.98c-.14 12.06.74 24.33-2.32 36.14-2.83 12.77-10.11 24.96-21.4 31.93-18.46 11.62-45.66 8.89-59.98-8.1-10.5-12.36-13.89-29.12-13.8-44.95v-180c-.3-22.11.11-44.48 5.72-66.01 8.57-35.9 29.38-68.78 58.45-91.57 15.04-12.25 32.3-21.39 50.11-28.88 24.89-9.89 51.36-15.53 78.02-17.76zm-1023.16 2.95c30.18-1.48 60.42-.5 90.62-.16 17.19.4 34.4.86 51.57 2.17 16.96 1.56 34.65 3.31 49.73 11.93 9.66 5.43 17 15.14 18.46 26.26 2.84 14.6-3.06 30.9-15.73 39.09-11.25 8.02-25.39 10.88-39.02 10.36-47.02-.59-94.01-4.87-141.06-2.99-17.44.84-35.13 2.24-51.79 7.8-8.09 2.95-16.46 7.51-20.39 15.57-3.74 7.93-3.63 17.3-1.34 25.63 2.35 8.42 9.23 14.61 16.79 18.49 10.22 5.14 21.4 8.09 32.53 10.53 28.6 6.29 57.86 8.55 86.72 13.35 27.4 4.51 54.74 10.31 80.86 19.94 23.91 9 47.67 21.82 63.05 42.87 14.82 20.05 19.13 46.04 17.44 70.47-1.63 22.47-9.26 44.75-23.01 62.72-10.12 13.56-23.37 24.65-38.15 32.81-15.69 8.66-32.74 14.76-50.19 18.71-27.3 6.57-55.47 8.93-83.5 8.71-29.67.07-59.34.08-88.97-1.53-21.47-1.25-42.99-3.05-64.07-7.48-9.27-1.88-18.98-2.91-27.33-7.68-5.61-3.08-10.58-7.43-14.01-12.84-5.54-8.32-7.43-18.56-7.13-28.42.44-10.15 5.34-19.9 12.99-26.54 6.37-5.26 14-8.81 21.96-10.93 14.97-3.55 30.43-1.36 45.58-.38 38.07 3.38 75.98 8.31 113.98 12.24 24.53.02 49.4-.85 73.28-7 12.96-3.52 26.75-9.17 34.07-21.13 5.7-9.75 6.5-23.5-1.37-32.34-8.29-9.24-20.53-13.4-32.11-16.78-27.9-7.38-56.77-9.89-85.39-12.93-28.84-2.47-57.69-6.7-85.34-15.48-24.33-7.93-48.19-20.13-65.15-39.75-12.94-14.75-20.71-33.54-23.63-52.83-3.13-20.64-2.51-42.06 3.46-62.14 5-17.31 14.65-33.18 27.41-45.86 19.87-19.66 46.24-31.52 73.2-37.81 14.72-3.73 29.85-5.5 44.98-6.65z" fill="#fff"/><path d="M586.16 56.1l130.77-.35h4038.56v334.32l-.82 74.05c-2.06 47.36-7.3 94.66-17.64 140.95-13.63 62.15-36.34 122.68-70.29 176.65-26.58 42.42-59.99 80.67-99.15 111.91-3.47 2.96-7.33 5.45-10.43 8.8l-.49-.03c-10.86-1.12-21.77-.5-32.64-.65-1492.01 0-2984.01.01-4476.01-.01L48 731l.64-125.01c2.26-69.93 12.01-140 33.54-206.72 7.85-24.14 17.26-47.77 28.32-70.62 27.08-55.79 64.84-106.68 111.98-147.13 42.43-36.73 91.87-65.04 144.35-84.76 69.95-26.53 144.78-38.17 219.33-40.66m1401.02 187.18c-14.61 11.88-20.75 31.39-20.62 49.71l-.05 253.03c.2 24.67-.53 49.35.59 74.01 1.41 21.24 6.19 42.61 16.59 61.34 8.53 15.73 21.21 29.13 36.29 38.73 20.27 13.31 44.21 19.66 68 22.9 24.9 2.78 50.35 3.22 74.97-2.02 15.95-3.66 32.77-6.19 46.76-15.31 8.5-5.23 15.07-13.83 17.07-23.7 1.43-6.64.8-13.5-.22-20.14-1.95-11.31-9.33-21.74-19.9-26.5-13.66-6.38-29.15-4.45-43.67-3.23-19.32 1.31-38.98 4.56-58.17.42-9.4-1.95-18.71-5.88-25.52-12.83-6.64-6.45-10.5-15.24-12.61-24.13-2.28-9.36-2.32-19.04-2.69-28.6V410.88h85c17.31-.05 35.44.96 51.68-6.17 9.67-4.09 17.74-12.16 20.95-22.27 2.95-9.5 3.36-19.95.77-29.57-2.86-10.51-11.31-18.72-21.18-22.86-14.83-6.47-31.34-6.2-47.19-6.27-30.01.01-60.01-.02-90.01.02l-.1-34.8c-.55-17.42-7.34-35.54-21.47-46.42-15.7-12.48-39.9-12.11-55.27.74M675.16 306.17c-11.03 8.6-18.51 21.81-19.4 35.84-1.26 11.14 3.37 21.64 6.41 32.09l92.31 296.59c4.73 15.78 12.78 30.68 24.08 42.74 19.47 20.87 48.17 31.83 76.5 31.58 25.52.49 50.96-9.02 70.21-25.71 14.1-12.11 25.06-27.76 31.95-45l55.33-158.86 61.64 157.51c5.76 14.66 14.34 28.25 25.27 39.61 13.6 13.87 30.86 24.2 49.7 29.1 36.42 9.64 77.72-1.34 103.83-28.69 12.29-12.59 20.72-28.53 25.51-45.38l90.15-289.73c2.22-7.3 4.73-14.52 6.6-21.92 4.41-19.04-4.18-40.02-20.21-51.01-15.95-10.17-37.98-10.11-53.66.55-7.6 5.15-13.29 12.93-16.1 21.65l-99.33 315.84c-1.22 3.74-6.07 5.8-9.51 3.73-3.02-1.89-6.14-4.15-7.78-7.37l-79.53-207.61c-3.66-10.27-7.37-20.6-12.73-30.12-6.44-12.48-15.67-23.89-27.88-31.07-14.18-8.29-31.52-10.1-47.44-6.79-15.03 3.23-28.13 13.07-36.48 25.84-5 6.68-8.76 14.17-12.43 21.63-11.23 23.01-19.24 47.38-28.7 71.13l-59.25 154.8c-.95 3.07-2.88 5.68-5.09 7.96-3.29 3.85-10.68 3.26-12.83-1.52L747.91 331c-5.2-18.37-23.15-31.56-41.89-33.05-10.84-1.16-22.02 1.87-30.86 8.22m933.99-4.43c-41.69 4.95-82.6 19.22-116.93 43.62-28.87 20.4-52.67 48-68.04 79.87-20.89 43.03-26.27 92.84-17.79 139.72 6.98 39.26 24.86 76.51 51.29 106.38 26.03 29.59 60.16 51.74 97.47 64.28 47.08 15.77 98.88 17.18 146.8 4.29 36.27-9.8 69.56-29.06 97.54-53.97.13 11.95.3 24.65 6.22 35.41 4.27 7.44 10.68 13.54 17.99 17.97 8.77 5.22 19.36 6.32 29.37 5.48 9.55-.94 18.67-5.5 25.1-12.63 6.59-6.91 10.19-15.98 12.77-25.02 3.3-12.45 2.29-25.41 2.45-38.14l.01-126.97c0-12.69.22-25.4-.75-38.06-1.68-24.37-6.3-48.67-15.05-71.52-13.17-35.53-37.12-67.05-68.27-88.72-34.95-24.6-77.1-37.16-119.25-41.84-26.87-2.76-54.08-3.47-80.93-.15m1332.34-1.01c-36.75 3.39-73.18 13.36-105.42 31.56-32.67 18.11-60.82 44.61-79.99 76.73-22.49 36.94-32.17 80.93-30.22 123.94 1.65 39.35 13.99 78.38 36.32 110.92 21.37 31.73 51.64 57.12 85.91 73.95 43.04 21.5 92.04 29.53 139.86 26.72 40.81-2.46 81.54-13.02 117.05-33.61 33.12-18.83 61.34-46.46 80.09-79.68 22.1-38.43 30.65-83.85 27.15-127.83-3.08-40.19-17.66-79.51-42.16-111.59-23.15-30.75-54.85-54.62-90.04-69.97-43.31-19.02-91.61-25.26-138.55-21.14m985.08 3.08c-35.59 2.52-72.24 10.1-102.01 30.77-15.93 11.07-28.9 26.37-36.86 44.08-9.7 21.94-11.95 46.58-9.6 70.27 2.21 21.33 9.86 42.58 24.26 58.74 11.64 13.54 26.99 23.31 43.02 30.86 21.75 9.94 45.11 15.8 68.56 20.1 42.09 7.98 85.57 7.62 126.99 19.25 11.22 3.59 23.3 7.83 30.82 17.44 5.82 7.29 5.68 17.57 2.76 26.03-3.11 8.79-10.61 15.19-18.63 19.45-15.76 7.94-33.52 10.44-50.87 12.2-27.6 2.35-55.35 1.75-82.97.43-27.51-1.59-54.99-4.21-82.12-9.04-8.02-1.06-15.8-4.45-23.98-3.35-10.47.57-21.09 3.21-29.85 9.14-8.9 5.57-14.36 15.61-15.53 25.91-.9 8.01-.18 16.27 2.5 23.9 3.36 9.59 10.64 17.61 19.74 22.11 10.97 5.43 23.44 6 35.23 8.61 51.55 8.17 103.92 7.28 155.96 7.28 27.32-.34 54.76-2.94 81.29-9.76 18.4-5.02 36.43-12.51 51.58-24.32 4.34-3.72 9.06-6.98 13.46-10.66 15.42-12.87 26.64-30.58 31.89-49.95 5.56-21.21 6.52-43.82 1.59-65.24-4.26-17.74-13.89-34.15-27.59-46.24-14.52-13.29-32.35-22.29-50.53-29.46-39.37-14.78-81.19-21.34-122.75-26.46-21.29-3.01-42.75-5.93-63.3-12.41-9.53-3.17-19.44-7.27-25.9-15.28-5.48-6.72-6.62-15.86-5.9-24.23.46-6.68 3.32-13.3 8.52-17.65 8.17-7.01 18.92-9.82 29.25-11.94 25.81-4.83 52.21-4.54 78.38-4.32l88 3.25c12.81.21 25.99.82 38.37-3.18 9.17-2.85 18.03-8.23 23.13-16.6 8.52-14.34 7.74-34.58-4.04-46.93-11.12-11.73-27.38-16.6-42.91-18.98-26.36-3.49-53-3.51-79.53-4.23-26.81-.21-53.66-1.11-80.43.41m-462.02 3.98c-26.66 2.23-53.13 7.87-78.02 17.76-17.81 7.49-35.07 16.63-50.11 28.88-29.07 22.79-49.88 55.67-58.45 91.57-5.61 21.53-6.02 43.9-5.72 66.01v180c-.09 15.83 3.3 32.59 13.8 44.95 14.32 16.99 41.52 19.72 59.98 8.1 11.29-6.97 18.57-19.16 21.4-31.93 3.06-11.81 2.18-24.08 2.32-36.14l.01-166.98c.99-24.66 5.36-50.19 18.96-71.26 10.45-16.59 26.85-28.98 45.18-35.7 23.58-8.8 49.18-10.17 74.1-9.18 22.46 1.3 45.48 5.5 65.01 17.24 16.2 9.62 28.87 24.89 35.39 42.57 9.35 23.21 8.69 48.69 8.6 73.27l.02 165.09c.33 15.97 4.78 32.9 16.51 44.36 15.96 15.37 43.33 16.24 60.7 2.72 10.66-8.15 16.69-21.01 18.86-34.02 2.17-12.26.99-24.76 1.3-37.14l.01-173.95c-.05-22.25-3.35-44.61-10.98-65.57-12.9-36.71-39.29-68.41-72.91-87.97-8.2-5.51-17.33-9.36-26.18-13.66-43.92-18.44-92.64-22.97-139.78-19.02m-1023.16 2.95c-15.13 1.15-30.26 2.92-44.98 6.65-26.96 6.29-53.33 18.15-73.2 37.81-12.76 12.68-22.41 28.55-27.41 45.86-5.97 20.08-6.59 41.5-3.46 62.14 2.92 19.29 10.69 38.08 23.63 52.83 16.96 19.62 40.82 31.82 65.15 39.75 27.65 8.78 56.5 13.01 85.34 15.48 28.62 3.04 57.49 5.55 85.39 12.93 11.58 3.38 23.82 7.54 32.11 16.78 7.87 8.84 7.07 22.59 1.37 32.34-7.32 11.96-21.11 17.61-34.07 21.13-23.88 6.15-48.75 7.02-73.28 7L2364 649.2c-15.15-.98-30.61-3.17-45.58.38-7.96 2.12-15.59 5.67-21.96 10.93-7.65 6.64-12.55 16.39-12.99 26.54-.3 9.86 1.59 20.1 7.13 28.42 3.43 5.41 8.4 9.76 14.01 12.84 8.35 4.77 18.06 5.8 27.33 7.68 21.08 4.43 42.6 6.23 64.07 7.48 29.63 1.61 59.3 1.6 88.97 1.53 28.03.22 56.2-2.14 83.5-8.71 17.45-3.95 34.5-10.05 50.19-18.71 14.78-8.16 28.03-19.25 38.15-32.81 13.75-17.97 21.38-40.25 23.01-62.72 1.69-24.43-2.62-50.42-17.44-70.47-15.38-21.05-39.14-33.87-63.05-42.87-26.12-9.63-53.46-15.43-80.86-19.94-28.86-4.8-58.12-7.06-86.72-13.35-11.13-2.44-22.31-5.39-32.53-10.53-7.56-3.88-14.44-10.07-16.79-18.49-2.29-8.33-2.4-17.7 1.34-25.63 3.93-8.06 12.3-12.62 20.39-15.57 16.66-5.56 34.35-6.96 51.79-7.8 47.05-1.88 94.04 2.4 141.06 2.99 13.63.52 27.77-2.34 39.02-10.36 12.67-8.19 18.57-24.49 15.73-39.09-1.46-11.12-8.8-20.83-18.46-26.26-15.08-8.62-32.77-10.37-49.73-11.93-17.17-1.31-34.38-1.77-51.57-2.17-30.2-.34-60.44-1.32-90.62.16zm-815.83 76.95c12.43-1.5 24.98-1.15 37.46-.68 25.17 1.58 50.52 6.42 73.32 17.52 18.35 8.79 34.59 22.26 45.89 39.26 11.46 16.91 17.56 36.97 19.68 57.17 2.34 24.16.02 49.12-9.11 71.75-6.59 16.38-16.6 31.39-29.38 43.6-14.28 13.83-31.85 23.97-50.45 30.81-20.5 7.3-42.28 10.61-63.99 10.93-23.93.24-48.1-3.55-70.24-12.82-33.74-13.45-62.43-40.85-74.58-75.4-8.66-23.85-9.37-50.02-5.02-74.84 4.13-21.06 13.28-41.19 27.24-57.57 24.31-29.48 61.65-45.95 99.18-49.73zm1323 .02c26.7-2.81 54.08-.44 79.65 7.9 17.24 5.87 33.61 14.66 47.38 26.65 14.87 12.84 26.47 29.36 33.75 47.59 16.1 41.72 12.41 91.82-13.56 128.81-11.99 16.99-28.09 31.07-46.57 40.63-15.86 8.62-33.41 13.82-51.19 16.62-26.23 3.87-53.27 2.55-78.89-4.29-18.74-5.11-36.68-13.64-51.89-25.78-15.28-12.02-27.55-27.8-35.53-45.52-10.54-23.11-13.81-49.17-11.16-74.32 2.4-20.65 9.21-40.96 21.04-58.14 10.18-15.27 23.82-28.14 39.43-37.74 20.33-12.7 43.78-19.9 67.54-22.41z" fill="#00a0a0"/><path fill="#e42313" d="M48.02 901.74l4476.01.01c10.87.15 21.78-.47 32.64.65-1.65 1.08-3.39 2.19-5.38 2.13l.36 1.28-2.19-.69c.47 1.94-.25 2.69-2.15 2.23l.24 1.31-1.95-.48c.02 1.6-.77 2.38-2.36 2.34l.22 1.22-2.24-.7.65 1.83-1.63-.75.31 1.25c-1.13.34-2.2.72-3.21 1.14l.27.9-3.29 1.03.44 1.39-1.64-.52.37 1.33-3.23-.41.29 2.28-3.12-.27c.38 1.82-.35 2.54-2.18 2.17l.2 1.39-2.11-.76.27 1.67-2.33-.59.38 1.77-1.44-.77.34 1.29a15.77 15.77 0 0 0-3.03 1.11c-.12.28-.35.85-.46 1.14l-1.76-.61.38 1.63-1.5-.46.24 1.5-2.16-.59.32 1.78-2.25-.97.3 1.68-1.15-.35c-.4 1.41-1.49 1.75-3.26 1.02l.49 1.64-1.58-.79.33 1.68-1.87-.77-.23 1.4-1.94 1.2-1.25-.39.21 1.35-3.11-.37.25 1.83c-1.78.55-3.63.65-5.29 1.34l.42.93a87.43 87.43 0 0 0-2.91 1.18c-.98.94-2.16 1.23-3.53.85l.33 1.49-2.21-.8.35 1.36c-1.44.52-3.02.89-4.45.97l.31 1.44-2.24-.75.29 1.74-2.28-.76.22 1.76-2.23-.76.25 1.73-2.23-.73.18 1.73-2.18-.73.21 1.7-2.19-.7.16 1.67-2.22-.63.32 1.57-3.3-.41.48 1.73-2.46-1.02.2 1.87-1.78-.71c-.79 2.26-3.55 2.24-5.46 2.26l.23.88c-1.65.85-3.55 1.03-5.28 1.21l.61 1.24-2.95-.27c-.68 1.33-1.98 2.61-3.6 1.93l.13 1.27-2.92-.45-.27 1.44-2.99-.43.31 1.47-3.29-.49.33 1.52-1.85-.49c-.72 1.29-1.85 1.66-3.41 1.12l.09 1.33-3.18-.46.36 1.48-3.36-.51.4 1.15c-1.77.56-3.65.96-5.42 1.12l.34 1.21-3.33-.44.37 1.4c-1.41.01-3.23-.96-3.68.92l-2.48-.33c-.01.35-.04 1.05-.06 1.4l-4.16-.33.44 1.43-3.42-.5.36 1.48-3.36-.48.32 1.46-3.31-.46.29 1.48-3.05-.5-.25 1.46-2.95-.45.18 1.36-5.2-.24.47 1.32-3-.2c-1.17 1.4-3.06.93-4.52.93l.35 1.26-4.36-.37.42 1.37-4.4-.35.46 1.2c-2.46-.1-4.66.94-7 1.21-1.63 1.18-3.73.71-5.48.65l.37 1.26-5.34-.29.41 1.3a101.55 101.55 0 0 0-3.69-.16c-1.38 1.8-3.95.72-5.75.89l.4 1.27-5.4-.32.45 1.22c-3.86-.03-7.5 1.69-11.38.84l.46 1.28-5.5-.35.36 1.3-6.39-.27.37 1.12c-4.16.17-8.19 1.68-12.35.89l.36 1.11c-2 .02-3.97-.1-5.78.59-3.5.61-7.05.51-10.52.32l.42 1.22c-2.37-.09-4.71-.11-6.99-.05-3.4 2.1-7.76.54-11.5.81l.44 1.17c-3.66-.01-7.3-.07-10.9.03-1.32 1.17-3.15.84-4.67 1.03-9.2 1.48-18.56.91-27.83.77l.32 1.24c-11.46-.29-22.92.17-34.36-.24l.4 1.14-314.7-.12H232.97c-61.48.07-122.96-.14-184.43.11-.83-6.45-.47-12.95-.54-19.43l.02-88.28z"/></svg>