<svg id="Layer_1" data-name="Layer 1" xmlns="http://www.w3.org/2000/svg" viewBox="0 0 113.41 80"><defs><style>.cls-1{fill:#0d392e;}</style></defs><path class="cls-1" d="M54.61,15.39a15.55,15.55,0,1,1-6.67,2A15.56,15.56,0,0,1,54.61,15.39Zm.47,1.32a14.22,14.22,0,1,0,7.91,2,14.22,14.22,0,0,0-7.91-2Z"/><path class="cls-1" d="M51.65,19.21a13,13,0,0,1,4.71-.63,1,1,0,0,1,.49.09,13.76,13.76,0,0,1,4,5.24,15.07,15.07,0,0,1,1,7.48,19.67,19.67,0,0,1-1.31,5.39h1.24c.13-.32.24-.64.36-1a6.46,6.46,0,0,1,3.83,1.9,6.43,6.43,0,0,1-3.83,1.9c-.12-.31-.24-.62-.35-.93H50.41a1.09,1.09,0,0,0-.53.19l-1.26.65a1,1,0,0,1-.49.09H46.64a13.6,13.6,0,0,1-2.49-3.79h3.38a1.75,1.75,0,0,1,.72.07l1.68.74c.42.25.93.1,1.4.14a7.73,7.73,0,0,0-1-3.41A6.94,6.94,0,0,0,47.76,31a14.83,14.83,0,0,0-4.48-1.56,12.34,12.34,0,0,1,1.6-4.68,24.6,24.6,0,0,1,3.24,1,13,13,0,0,1,3.19,1.65l.32-.15a12.75,12.75,0,0,0-2.13-1.89A31.59,31.59,0,0,0,46,23.1a12.36,12.36,0,0,1,3.68-3,11.06,11.06,0,0,1,2.67,1.58,27.8,27.8,0,0,1,3.42,3.27l.4-.11A17.76,17.76,0,0,0,51.65,19.21ZM57.3,32.34a1.54,1.54,0,1,0,1.39.24A1.53,1.53,0,0,0,57.3,32.34Z"/><path class="cls-1" d="M23.09,53.79a2.25,2.25,0,0,1,1.52-.48v3.24a.49.49,0,0,0,.49.46h6.56a2.18,2.18,0,0,1,1.48.54A2,2,0,0,1,33.75,59v2a2.13,2.13,0,0,1-.83,1.66,2.17,2.17,0,0,1-1.33.42H22.08c.43-.69.87-1.38,1.29-2.08h7.57a.46.46,0,0,0,.52-.41.09.09,0,0,0,0,0V59.07H24.53a2.37,2.37,0,0,1-1.47-.45,1.89,1.89,0,0,1-.71-1.48V55.37A2.09,2.09,0,0,1,23.09,53.79Z"/><path class="cls-1" d="M25.58,53.31h8c-.41.67-.84,1.32-1.24,2-1.82,0-3.64,0-5.45,0Z"/><path class="cls-1" d="M36.25,53.32h2.32V57h3.25c1.27-1.24,2.54-2.49,3.82-3.72h3.2l-5.1,4.9,5,4.79H45.56l-3.91-3.77H38.59V63H36.27C36.26,59.77,36.25,56.55,36.25,53.32Z"/><path class="cls-1" d="M52.22,53.4a4.22,4.22,0,0,1,.94-.08h5.22a3.53,3.53,0,0,1,2.71,1.31,3.45,3.45,0,0,1,.73,2.12v2.88a3.4,3.4,0,0,1-1.27,2.61,3.66,3.66,0,0,1-2.23.76H53.49a7.18,7.18,0,0,1-1,0,3.42,3.42,0,0,1-3-3.4V56.68a3.42,3.42,0,0,1,1.15-2.49A3.48,3.48,0,0,1,52.22,53.4Zm.37,2.14a1.12,1.12,0,0,0-.81,1.08v3.13a1.12,1.12,0,0,0,1.12,1.08h5.49a1.12,1.12,0,0,0,1.12-1.07V56.57a1.12,1.12,0,0,0-1.12-1.07H53.3a2.72,2.72,0,0,0-.7,0Z"/><path class="cls-1" d="M64.42,53.32h8.41a3.61,3.61,0,0,1,1.92.53,3.42,3.42,0,0,1,1.6,2.76v2a6.47,6.47,0,0,1-.17,2,3.39,3.39,0,0,1-2.32,2.24,6.71,6.71,0,0,1-2,.14H64.42Zm2.32,2.17v5.33H72.9a1.12,1.12,0,0,0,1-.68,1.74,1.74,0,0,0,.09-.72V56.55a1.11,1.11,0,0,0-1.13-1.06Z"/><path class="cls-1" d="M82.72,53.32h3.19q2.73,4.83,5.45,9.68H88.72c-.33-.58-.65-1.16-1-1.74H83.12l-1.2-1.9-2,3.65H77.29ZM82,59.25H86.6l-2.32-4.13C83.51,56.49,82.75,57.87,82,59.25Z"/></svg>