<?xml version="1.0" encoding="utf-8"?>
<!-- Generator: Adobe Illustrator 13.0.0, SVG Export Plug-In . SVG Version: 6.00 Build 14948)  -->
<!DOCTYPE svg PUBLIC "-//W3C//DTD SVG 1.1//EN" "http://www.w3.org/Graphics/SVG/1.1/DTD/svg11.dtd">
<svg version="1.1" id="Layer_1" xmlns="http://www.w3.org/2000/svg" xmlns:xlink="http://www.w3.org/1999/xlink" x="0px" y="0px"
	 width="42px" height="42px" viewBox="0 0 42 42" enable-background="new 0 0 42 42" xml:space="preserve">
<circle fill="#FFFFFF" cx="21.008" cy="21.003" r="20.986"/>
<path fill="#039BE5" d="M16.926,28.352h-3.72v-11.16h3.72V28.352z M15.067,15.704c-1.029,0-1.861-0.834-1.861-1.861
	c0-1.026,0.833-1.859,1.861-1.859c1.025,0,1.859,0.834,1.859,1.859C16.926,14.87,16.092,15.704,15.067,15.704z M30.318,28.352
	h-3.576v-5.431c0-1.296-0.024-2.961-1.86-2.961c-1.861,0-2.147,1.411-2.147,2.868v5.524h-3.577V17.184h3.432v1.526h0.05
	c0.478-0.878,1.646-1.803,3.386-1.803c3.623,0,4.293,2.313,4.293,5.32V28.352z"/>
</svg>
