    <svg
      xmlns="http://www.w3.org/2000/svg"
      xmlnsXlink="http://www.w3.org/1999/xlink"
      preserveAspectRatio='xMinYMin slice'
      height="100%"
      width="100%"
      viewBox="0 0 71 19"
    >
      <g>
        <title>background</title>
        <rect
          x="-1"
          y="-1"
          width="71"
          height="19"
          id="canvas_background"
          fill="none"
        />
      </g>
      <g>
        <title>Layer 1</title>
        <g id="svg_1">
          <defs>
            <rect id="SVGID_1_" y="0" width="69" height="17.2" />
          </defs>
          <clipPath id="SVGID_2_">
            <use xlinkHref="#SVGID_1_" id="svg_2" />
          </clipPath>
          <path
            clipPath="url(#SVGID_2_)"
            fill="#080935"
            d="m68.6,12.1l0,0c0.1,0 0.1,0 0.1,0c0,0.1 0,0.1 -0.1,0l0,0l0,0zm-0.1,0.3l0,0l0.1,-0.1l0,0c0,0 0.1,0 0.1,0c0,0 0,0.1 0,0.1l0.1,0l0,0c0,0 0,0 0,-0.1c0,0 0,-0.1 -0.1,-0.1l0,0c0,0 0.1,0 0.1,-0.1c0,-0.1 -0.1,-0.1 -0.1,-0.1l-0.2,0l0,0.4zm0.1,0.1c-0.2,0 -0.3,-0.1 -0.3,-0.3c0,-0.2 0.1,-0.3 0.3,-0.3c0.2,0 0.3,0.1 0.3,0.3c0,0.2 -0.1,0.3 -0.3,0.3m0,0.1c0.2,0 0.3,-0.1 0.3,-0.3c0,-0.2 -0.2,-0.3 -0.3,-0.3c-0.2,0 -0.3,0.1 -0.3,0.3c0,0.1 0.1,0.3 0.3,0.3"
            id="svg_3"
          />
          <path
            clipPath="url(#SVGID_2_)"
            fill="#080935"
            d="m65.2,7.5c1.1,0 1.5,0.7 1.5,1.4l-3.1,0c0.1,-0.8 0.7,-1.4 1.6,-1.4m3,2.4c0,-0.1 0,-0.2 0,-0.3c0,-1.9 -1.1,-3.2 -3.1,-3.2c-1.9,0 -3.2,1.4 -3.2,3.1c0,1.7 1.3,3.1 3.2,3.1c1.2,0 2.3,-0.5 2.8,-1.3l-1,-0.8c-0.3,0.5 -1,0.8 -1.6,0.8c-1,0 -1.6,-0.6 -1.8,-1.4l4.7,0zm-11.8,2.1c0.9,0.4 1.6,0.6 2.7,0.6c1.6,0 2.5,-0.8 2.5,-1.9c0,-1.1 -0.8,-1.6 -2.3,-1.9c-0.9,-0.3 -1.3,-0.4 -1.3,-0.8c0,-0.3 0.3,-0.5 0.9,-0.5c0.6,0 1.3,0.2 2,0.4l0.5,-1.1c-0.7,-0.3 -1.5,-0.5 -2.5,-0.5c-1.5,0 -2.4,0.8 -2.4,1.9c0,1.2 1,1.6 2.3,1.9c1,0.2 1.3,0.4 1.3,0.7c0,0.3 -0.3,0.6 -1,0.6c-0.8,0 -1.4,-0.2 -2.2,-0.5l-0.5,1.1zm-2,0.4l1.6,0l0,-6l-1.6,0l0,6zm-3.2,-6.1c-0.7,0 -1.4,0.3 -2,0.8c-0.4,-0.5 -1.1,-0.8 -2.1,-0.8c-0.6,0 -1.2,0.2 -1.6,0.5l0,-0.4l-1.6,0l0,6.1l1.6,0l0,-4.4c0.3,-0.3 0.8,-0.5 1.4,-0.5c0.8,0 1.3,0.5 1.3,1.4l0,3.4l1.6,0l0,-3.3c0,-0.5 0,-0.8 -0.1,-0.9c0.3,-0.3 0.7,-0.5 1.2,-0.5c0.9,0 1.4,0.5 1.4,1.4l0,3.4l1.6,0l0,-3.4c0,-2 -0.8,-2.8 -2.7,-2.8m-9.4,6.1l1.6,0l0,-6l-1.6,0l0,6zm-0.5,-4.7l0,-1.3l-1.8,0l0,-3l-1.6,2.3l0,0.8l-0.5,0l0,1.3l0.5,0l0,3c0,1.3 0.8,1.9 1.9,1.9c0.9,0 1.4,-0.2 1.5,-0.2l0,-1.2c-0.2,0 -0.5,0.1 -0.7,0.1c-0.8,0 -1,-0.3 -1,-1.4l0,-2.3l1.7,0zm-7.4,3.4c-0.6,0 -1.2,-0.2 -1.5,-0.5l0,-2.4c0.4,-0.3 0.9,-0.5 1.5,-0.5c1.1,0 1.9,0.8 1.9,1.7c0,1 -0.8,1.7 -1.9,1.7m0.3,-4.8c-0.7,0 -1.3,0.2 -1.8,0.5l0,-0.4l-1.6,0l0,9.1l1.6,-2.2l0,-1.2c0.5,0.3 1.2,0.5 1.8,0.5c1.7,0 3.2,-1.3 3.2,-3.1c0,-2 -1.5,-3.2 -3.2,-3.2"
            id="svg_4"
          />
          <path
            clipPath="url(#SVGID_2_)"
            fill="#080935"
            d="m23.3,8.4c0,-1.4 1.2,-2.6 2.7,-2.6s2.7,1.2 2.7,2.6s-1.2,2.6 -2.7,2.6s-2.7,-1.1 -2.7,-2.6m-1.6,0c0,2.3 1.9,4.1 4.3,4.1c2.4,0 4.3,-1.8 4.3,-4.1s-1.9,-4.1 -4.3,-4.1c-2.3,0 -4.3,1.8 -4.3,4.1"
            id="svg_5"
          />
          <path
            clipPath="url(#SVGID_2_)"
            fill="#039BE5"
            d="m16.8,5.3l0.1,0.2l-1.2,0.5l-0.1,-0.2l1.2,-0.5zm-1.5,3.4c0,3.4 -2.9,6.2 -6.4,6.2c-3.5,0 -6.4,-2.8 -6.4,-6.2c0,-3.4 2.9,-6.2 6.4,-6.2c3.5,-0.1 6.4,2.7 6.4,6.2m-3.1,-7.8l-0.4,1.1l-0.2,-0.1l0.5,-1.1l0.1,0.1zm-6.1,1l-0.1,0.1l-0.5,-1.1l0.2,-0.1l0.4,1.1zm-4,9.5l-1.1,0.5l-0.1,-0.2l1.1,-0.5l0.1,0.2zm0,-5.6l-0.1,0.1l-1.1,-0.4l0.1,-0.2l1.1,0.5zm3.4,10.5l0.5,-1.1l0.2,0.1l-0.5,1.1l-0.2,-0.1zm6.1,-1.1l0.2,-0.1l0.5,1.1l-0.2,0.1l-0.5,-1.1zm4.1,-3.8l0.1,-0.2l1.1,0.4l-0.1,0.2l-1.1,-0.4zm2,-2.8c0,-4.7 -4,-8.6 -8.9,-8.6s-8.8,3.8 -8.8,8.6s4,8.6 8.9,8.6s8.8,-3.9 8.8,-8.6"
            id="svg_6"
          />
        </g>
      </g>
    </svg>