<?xml version="1.0" encoding="utf-8"?>
<!-- Generator: Adobe Illustrator 18.0.0, SVG Export Plug-In . SVG Version: 6.00 Build 0)  -->
<!DOCTYPE svg PUBLIC "-//W3C//DTD SVG 1.1//EN" "http://www.w3.org/Graphics/SVG/1.1/DTD/svg11.dtd">
<svg version="1.1" id="Layer_1" xmlns="http://www.w3.org/2000/svg" xmlns:xlink="http://www.w3.org/1999/xlink" x="0px" y="0px"
	 viewBox="0 0 43.3 42.9" enable-background="new 0 0 43.3 42.9" xml:space="preserve">
<g>
	<defs>
		<rect id="SVGID_1_" y="0" width="43.3" height="42.9"/>
	</defs>
	<clipPath id="SVGID_2_">
		<use xlink:href="#SVGID_1_"  overflow="visible"/>
	</clipPath>
	<path clip-path="url(#SVGID_2_)" fill="#039BE5" d="M41,13.2l0.2,0.4l-2.8,1.2l-0.2-0.4L41,13.2z M38.3,28.5l0.2-0.4l2.7,1.1
		L41,29.7L38.3,28.5z M36.6,21.5c0,8.1-6.7,14.8-14.9,14.8c-8.2,0-14.9-6.6-14.9-14.8S13.5,6.7,21.7,6.7
		C29.9,6.7,36.6,13.3,36.6,21.5 M29.9,2.3L28.8,5l-0.4-0.2l1.1-2.7L29.9,2.3z M15,4.9L14.6,5l-1.2-2.8l0.4-0.2L15,4.9z M13.4,40.7
		l1.1-2.7l0.4,0.2l-1.1,2.7L13.4,40.7z M28.3,38.1l0.4-0.2l1.2,2.8l-0.4,0.2L28.3,38.1z M5.1,28.5l-2.8,1.2l-0.2-0.4l2.8-1.2
		L5.1,28.5z M5,14.4l-0.2,0.4l-2.7-1.1l0.2-0.4L5,14.4z M43.3,21.5C43.3,9.6,33.6,0,21.7,0C9.7,0,0,9.6,0,21.5s9.7,21.5,21.7,21.5
		C33.6,42.9,43.3,33.3,43.3,21.5"/>
</g>
</svg>
