<svg xmlns="http://www.w3.org/2000/svg" viewBox="0 0 121.44 156.65"><defs><style>.cls-1,.cls-2{fill:none;}.cls-1{stroke:#84be3d;stroke-miterlimit:10;stroke-width:10px;}</style></defs><g id="Layer_2" data-name="Layer 2"><g id="Layer_1-2" data-name="Layer 1"><g id="Rewards"><path class="cls-1" d="M60.57,102.92,44.88,150.29a1.63,1.63,0,0,1-3.05.11l-7.4-17.61A1.63,1.63,0,0,0,32.1,132l-16.46,9.71a1.63,1.63,0,0,1-2.37-1.91L29,92.45"/><path class="cls-1" d="M91.75,92.19l17.49,46.74a1.63,1.63,0,0,1-2.3,2l-16.81-9.07a1.63,1.63,0,0,0-2.3.86L81.11,150.6a1.63,1.63,0,0,1-3,0L60.57,103.86"/><path class="cls-2" d="M60.62,86.51A30.34,30.34,0,1,0,30.37,56.1,30.33,30.33,0,0,0,60.62,86.51M76.9,5.1a1.64,1.64,0,0,1,1.92.62c2.89,4.27,5.73,8.41,8.5,12.61a3.93,3.93,0,0,0,2.56,1.78c5,1.26,10.05,2.64,15.09,3.89,1,.25,1.23.66,1.17,1.66q-.47,7.86-.75,15.75a3.21,3.21,0,0,0,.79,1.86c3.24,3.94,6.52,7.85,9.88,11.87a1.63,1.63,0,0,1,0,2.08c-1.4,1.7-2.81,3.39-4.21,5.08-1.84,2.22-3.71,4.41-5.52,6.65a4.24,4.24,0,0,0-.92,2.8q.3,7.65.73,15.28c.06.91-.32,1.15-1.05,1.33-5,1.29-10,2.56-14.95,3.92a5.34,5.34,0,0,0-3,2.08c-2.59,3.71-5.13,7.47-7.63,11.24a3.3,3.3,0,0,1-3.91,1.26q-6.57-2.49-13.21-4.83A5.83,5.83,0,0,0,59,102q-7.22,2.55-14.35,5.27a1.53,1.53,0,0,1-2.18-.75c-2.78-4.23-5.66-8.39-8.46-12.61a3.48,3.48,0,0,0-2.22-1.59c-5.08-1.28-10.14-2.63-15.21-4l-.09,0a1.64,1.64,0,0,1-1.2-1.66q.24-5.08.49-10.14c.09-1.91.24-3.82.26-5.73a2.61,2.61,0,0,0-.63-1.49c-3.34-4.06-6.72-8.09-10.08-12.12h0a1.63,1.63,0,0,1,0-2.06c3.29-3.95,6.55-7.88,9.84-11.77a3.34,3.34,0,0,0,.86-2.58c-.3-5.15-.49-10.31-.78-15.46-.05-.9.31-1.1,1.08-1.3,4.92-1.24,9.82-2.56,14.75-3.81a5.6,5.6,0,0,0,3.27-2.32c2.47-3.73,5-7.41,7.49-11.13a3.28,3.28,0,0,1,3.89-1.26c4.33,1.64,8.66,3.25,13,4.78a5.9,5.9,0,0,0,3.89,0c4.72-1.67,9.42-3.43,14.2-5.2"/><path class="cls-1" d="M60.62,86.51A30.34,30.34,0,1,0,30.37,56.1,30.33,30.33,0,0,0,60.62,86.51ZM76.9,5.1a1.64,1.64,0,0,1,1.92.62c2.89,4.27,5.73,8.41,8.5,12.61a3.93,3.93,0,0,0,2.56,1.78c5,1.26,10.05,2.64,15.09,3.89,1,.25,1.23.66,1.17,1.66q-.47,7.86-.75,15.75a3.21,3.21,0,0,0,.79,1.86c3.24,3.94,6.52,7.85,9.88,11.87a1.63,1.63,0,0,1,0,2.08c-1.4,1.7-2.81,3.39-4.21,5.08-1.84,2.22-3.71,4.41-5.52,6.65a4.24,4.24,0,0,0-.92,2.8q.3,7.65.73,15.28c.06.91-.32,1.15-1.05,1.33-5,1.29-10,2.56-14.95,3.92a5.34,5.34,0,0,0-3,2.08c-2.59,3.71-5.13,7.47-7.63,11.24a3.3,3.3,0,0,1-3.91,1.26q-6.57-2.49-13.21-4.83A5.83,5.83,0,0,0,59,102q-7.22,2.55-14.35,5.27a1.53,1.53,0,0,1-2.18-.75c-2.78-4.23-5.66-8.39-8.46-12.61a3.48,3.48,0,0,0-2.22-1.59c-5.08-1.28-10.14-2.63-15.21-4l-.09,0a1.64,1.64,0,0,1-1.2-1.66q.24-5.08.49-10.14c.09-1.91.24-3.82.26-5.73a2.61,2.61,0,0,0-.63-1.49c-3.34-4.06-6.72-8.09-10.08-12.12h0a1.63,1.63,0,0,1,0-2.06c3.29-3.95,6.55-7.88,9.84-11.77a3.34,3.34,0,0,0,.86-2.58c-.3-5.15-.49-10.31-.78-15.46-.05-.9.31-1.1,1.08-1.3,4.92-1.24,9.82-2.56,14.75-3.81a5.6,5.6,0,0,0,3.27-2.32c2.47-3.73,5-7.41,7.49-11.13a3.28,3.28,0,0,1,3.89-1.26c4.33,1.64,8.66,3.25,13,4.78a5.9,5.9,0,0,0,3.89,0C67.42,8.63,72.12,6.87,76.9,5.1Z"/><polyline class="cls-1" points="48.45 52.32 57.29 62.29 73.39 47.87"/></g></g></g></svg>