<?xml version="1.0" encoding="utf-8"?>
<!-- Generator: Adobe Illustrator 13.0.0, SVG Export Plug-In . SVG Version: 6.00 Build 14948)  -->
<!DOCTYPE svg PUBLIC "-//W3C//DTD SVG 1.1//EN" "http://www.w3.org/Graphics/SVG/1.1/DTD/svg11.dtd">
<svg version="1.1" id="Layer_1" xmlns="http://www.w3.org/2000/svg" xmlns:xlink="http://www.w3.org/1999/xlink" x="0px" y="0px"
	 width="42px" height="42px" viewBox="0 0 42 42" enable-background="new 0 0 42 42" xml:space="preserve">
<circle fill="#FFFFFF" cx="21.008" cy="21.003" r="20.986"/>
<path fill="#039BE5" d="M33.122,14.848c-0.836,0.371-1.734,0.622-2.68,0.734c0.965-0.577,1.703-1.491,2.051-2.58
	c-0.9,0.534-1.898,0.922-2.963,1.132c-0.85-0.906-2.063-1.473-3.404-1.473c-2.574,0-4.664,2.089-4.664,4.665
	c0,0.365,0.043,0.723,0.121,1.063c-3.875-0.194-7.312-2.052-9.614-4.875c-0.4,0.689-0.63,1.49-0.63,2.346
	c0,1.618,0.822,3.047,2.074,3.883c-0.765-0.025-1.484-0.234-2.113-0.584c0,0.021,0,0.039,0,0.059c0,2.261,1.607,4.146,3.742,4.574
	c-0.391,0.105-0.805,0.162-1.23,0.162c-0.299,0-0.592-0.029-0.877-0.082c0.594,1.853,2.316,3.201,4.357,3.239
	c-1.596,1.251-3.606,1.997-5.793,1.997c-0.376,0-0.748-0.021-1.113-0.065c2.064,1.323,4.516,2.095,7.15,2.095
	c8.58,0,13.269-7.106,13.269-13.271c0-0.202-0.002-0.403-0.012-0.603C31.706,16.603,32.497,15.782,33.122,14.848z"/>
</svg>
