<?xml version="1.0" encoding="utf-8"?>
<!-- Generator: Adobe Illustrator 13.0.0, SVG Export Plug-In . SVG Version: 6.00 Build 14948)  -->
<!DOCTYPE svg PUBLIC "-//W3C//DTD SVG 1.1//EN" "http://www.w3.org/Graphics/SVG/1.1/DTD/svg11.dtd">
<svg version="1.1" id="Layer_1" xmlns="http://www.w3.org/2000/svg" xmlns:xlink="http://www.w3.org/1999/xlink" x="0px" y="0px"
	 width="42px" height="42px" viewBox="0 0 42 42" enable-background="new 0 0 42 42" xml:space="preserve">
<circle fill="#FFFFFF" cx="21.008" cy="21.003" r="20.986"/>
<path fill="#039BE5" d="M30.892,16.243c-0.195-1.077-1.125-1.861-2.203-2.106c-1.615-0.342-4.603-0.587-7.835-0.587
	c-3.231,0-6.267,0.245-7.882,0.587c-1.077,0.245-2.009,0.979-2.204,2.106c-0.197,1.225-0.392,2.938-0.392,5.142
	c0,2.203,0.195,3.917,0.44,5.142c0.197,1.076,1.126,1.86,2.203,2.105c1.714,0.343,4.652,0.587,7.885,0.587
	c3.232,0,6.17-0.244,7.885-0.587c1.076-0.245,2.006-0.979,2.203-2.105c0.194-1.225,0.439-2.988,0.489-5.142
	C31.381,19.181,31.136,17.468,30.892,16.243z M18.21,24.813v-6.855l5.974,3.428L18.21,24.813z"/>
</svg>
