<?xml version="1.0" encoding="UTF-8"?>
<svg width="80px" height="80px" viewBox="0 0 80 80" version="1.1" xmlns="http://www.w3.org/2000/svg" xmlns:xlink="http://www.w3.org/1999/xlink">
    <!-- Generator: Sketch 58 (84663) - https://sketch.com -->
    <title>complete-icon</title>
    <desc>Created with Sketch.</desc>
    <g id="Page-1" stroke="none" stroke-width="1" fill="none" fill-rule="evenodd">
        <g id="pwebCR_m-6" transform="translate(-120.000000, -228.000000)" fill="#FFAA22">
            <g id="Group" transform="translate(8.000000, 156.000000)">
                <path d="M148.40625,75.28125 C139.239537,75.28125 131.427116,77.8853906 124.96875,83.09375 C118.510384,88.3021094 115.28125,94.6041297 115.28125,102 C115.28125,109.39587 118.406219,115.645808 124.65625,120.75 C125.38542,121.270836 125.541669,121.89583 125.125,122.625 L120.28125,133.71875 L134.65625,127.15625 C134.864584,127.052083 135.229164,127 135.75,127 C137.937511,127.72917 140.645817,128.197916 143.875,128.40625 L143.5625,131.84375 C139.395813,131.218747 136.687506,130.750002 135.4375,130.4375 L117.625,138.5625 L117.3125,138.5625 L117,138.71875 C116.583331,138.71875 116.166669,138.562502 115.75,138.25 C115.229164,137.624997 115.124998,137 115.4375,136.375 L121.6875,122.46875 C115.229134,116.947889 112,110.125041 112,102 C112,93.666625 115.541631,86.5833625 122.625,80.75 C129.708369,74.9166375 138.302033,72 148.40625,72 C158.614634,72 167.312464,74.9426789 174.5,80.828125 C181.687536,86.7135711 185.28125,93.7707922 185.28125,102 C185.28125,103.666675 185.229167,104.86458 185.125,105.59375 L181.6875,105.125 C181.895834,104.5 182,103.458341 182,102 C182,94.6041297 178.718783,88.3021094 172.15625,83.09375 C165.593717,77.8853906 157.67713,75.28125 148.40625,75.28125 Z M170.28125,108.71875 C176.322947,108.71875 181.453104,110.828104 185.671875,115.046875 C189.890646,119.265646 192,124.34372 192,130.28125 C192,136.322947 189.890646,141.453104 185.671875,145.671875 C181.453104,149.890646 176.322947,152 170.28125,152 C164.34372,152 159.265646,149.890646 155.046875,145.671875 C150.828104,141.453104 148.71875,136.322947 148.71875,130.28125 C148.71875,124.34372 150.828104,119.265646 155.046875,115.046875 C159.265646,110.828104 164.34372,108.71875 170.28125,108.71875 Z M170.28125,148.71875 C175.385442,148.71875 179.734357,146.921893 183.328125,143.328125 C186.921893,139.734357 188.71875,135.385442 188.71875,130.28125 C188.71875,125.281225 186.921893,120.984393 183.328125,117.390625 C179.734357,113.796857 175.385442,112 170.28125,112 C165.281225,112 160.984393,113.796857 157.390625,117.390625 C153.796857,120.984393 152,125.281225 152,130.28125 C152,135.385442 153.796857,139.734357 157.390625,143.328125 C160.984393,146.921893 165.281225,148.71875 170.28125,148.71875 Z M179.96875,123.71875 C180.69792,122.98958 181.479163,122.98958 182.3125,123.71875 C183.145837,124.343753 183.19792,125.124995 182.46875,126.0625 L168.5625,141.21875 L158.25,130.90625 C157.416663,130.17708 157.416663,129.395837 158.25,128.5625 C159.083337,127.729163 159.86458,127.729163 160.59375,128.5625 L168.40625,136.375 L179.96875,123.71875 Z" id="complete-icon"></path>
            </g>
        </g>
    </g>
</svg>