<svg id="Layer_1" data-name="Layer 1" xmlns="http://www.w3.org/2000/svg" viewBox="0 0 75 36"><defs><style>.cls-1{fill:none;}.cls-2{fill:#fff;}.cls-3{fill:#c00;}</style></defs><rect class="cls-1" width="75" height="36"/><polygon class="cls-2" points="3.64 10.71 18.23 10.71 18.23 25.3 3.64 25.3 3.64 10.71"/><path class="cls-3" d="M20.23,18h0a10.13,10.13,0,0,1,1.12-5c.31-.65,1-1.61,0-2.73A1.88,1.88,0,0,0,19,10a1.87,1.87,0,0,0-.32-2.37c-1.11-1-2.08-.32-2.73,0a10,10,0,0,1-5,1.12h0A10,10,0,0,1,6,7.58c-.66-.31-1.62-1-2.74,0A1.89,1.89,0,0,0,2.89,10a1.86,1.86,0,0,0-2.36.32C-.48,11.4.2,12.36.51,13a10.07,10.07,0,0,1,1.13,5h0A10.05,10.05,0,0,1,.51,23c-.31.65-1,1.61,0,2.73A1.86,1.86,0,0,0,2.89,26a1.89,1.89,0,0,0,.32,2.37c1.12,1,2.08.32,2.74,0a10,10,0,0,1,5-1.13h0a10.05,10.05,0,0,1,5,1.13c.65.31,1.62,1,2.73,0A1.87,1.87,0,0,0,19,26a1.88,1.88,0,0,0,2.37-.32c1-1.12.32-2.08,0-2.73a10.16,10.16,0,0,1-1.12-5Zm-2.48,6.84-5.29-4.45a2.59,2.59,0,0,0-1.53-.69,2.55,2.55,0,0,0-1.52.69l-5.3,4.45,0,0,4.45-5.29A2.58,2.58,0,0,0,9.24,18a2.58,2.58,0,0,0-.7-1.53L4.09,11.18l0,0,5.3,4.44a2.53,2.53,0,0,0,1.52.7,2.58,2.58,0,0,0,1.53-.7l5.29-4.44,0,0-4.44,5.29a2.58,2.58,0,0,0-.7,1.53,2.58,2.58,0,0,0,.7,1.53l4.44,5.29,0,0Z"/><path d="M73.55,8.33h.19l.06,3.47h-.21c-.34-1.41-1.7-2.74-4.42-2.88-3.21-.17-4.61,1.75-4.62,3.56,0,2.41,1.86,2.91,4.64,3.58,1.32.33,6.18,1,5.79,6.42-.28,3.82-3.57,5.63-8.23,5.49a22.33,22.33,0,0,1-4.65-.82c-.5-.14-.63,0-.84.4h-.21V23.81h.22a2.74,2.74,0,0,0,.82,1.68,5.89,5.89,0,0,0,4.25,1.56c2.54,0,4.63-1,4.91-3.87a3.18,3.18,0,0,0-1.71-3.31c-1.33-.62-5-1-6.84-2.61A4.69,4.69,0,0,1,60.91,13c.48-3.92,3.74-4.89,6.68-4.95a21.32,21.32,0,0,1,4.71.51,1.8,1.8,0,0,0,1,0,.7.7,0,0,0,.3-.23Zm-18.35,9c4.77,1.18,5.06,4.62,5,5.59-.22,4.31-3.87,4.8-5.34,4.8H43.6v-.22c.82-.11,1.43-.56,1.43-2l.07-14.84c0-1.61-.41-2.1-1.3-2.21l0-.2H52.3c1.56,0,6.26-.31,6.66,4,.32,3.46-3.48,4.91-3.76,5.06ZM56.45,23c.09-4.18-3-5.29-6.15-5.47-.07,0,0-.16,0-.17,1,0,5.13-.51,5-4.43S52.21,9,51.15,9c-.86,0-1,0-1.41,0C49.12,9,49,9,49,9.72c0,.08-.14,6.87-.21,11.65,0,2.59,0,4.59,0,4.59,0,.48-.05,1,1.12,1a17,17,0,0,0,3.86-.13c1-.21,2.7-.94,2.76-3.89ZM34,8.27A9.18,9.18,0,0,1,43.4,18c0,6-4.37,9.76-8.4,9.76H24.78v-.22c.58-.09,1.22-.45,1.33-.84.34-1.45.26-14.76.05-17a1.4,1.4,0,0,0-1.26-1.23l0-.21Zm1.85,18.2c1.81-.65,4.06-3.75,3.69-8.62s-2.16-8.43-6.95-8.78c0,0-.9-.06-1.66-.07s-1,0-1,.84c-.11,1.63-.14,14.32,0,16.15,0,.25,0,.86,1.09,1a11.06,11.06,0,0,0,4.92-.48Z"/></svg>