<?xml version="1.0" encoding="UTF-8"?>
<svg width="88px" height="28px" viewBox="0 0 88 28" version="1.1" xmlns="http://www.w3.org/2000/svg" xmlns:xlink="http://www.w3.org/1999/xlink">
    <!-- Generator: Sketch 53.2 (72643) - https://sketchapp.com -->
    <title>Group 44</title>
    <desc>Created with Sketch.</desc>
    <defs>
        <polygon id="path-1" points="0.0001 0.0002 87.808 0.0002 87.808 28 0.0001 28"></polygon>
        <polygon id="path-3" points="0 28 87.808 28 87.808 0 0 0"></polygon>
    </defs>
    <g id="Page-1" stroke="none" stroke-width="1" fill="none" fill-rule="evenodd">
        <g id="company-logo" transform="translate(-75.000000, -88.000000)">
            <g id="Group-44" transform="translate(75.000000, 88.000000)">
                <path d="M16.2428,27.8943 C11.4518,27.8943 7.3678,24.6403 6.2898,19.9793 L6.2718,19.8993 L5.4038,19.8553 C2.4358,19.7003 0.1048,17.2483 0.1048,14.2683 L0.1048,0.1123 L84.3058,0.1123 C86.1788,0.1123 87.6958,1.6363 87.6958,3.5153 L87.6958,24.4913 C87.6958,26.3703 86.1718,27.8943 84.3058,27.8943 L16.2428,27.8943 Z" id="Fill-1" fill="#FFFFFF"></path>
                <g id="Group-5">
                    <mask id="mask-2" fill="white">
                        <use xlink:href="#path-1"></use>
                    </mask>
                    <g id="Clip-4"></g>
                    <path d="M84.3131,0.0002 L0.0001,0.0002 L0.0001,14.2612 C0.0001,17.2972 2.3741,19.7992 5.3971,19.9602 L6.1851,19.9982 C7.2501,24.5782 11.3471,28.0002 16.2241,28.0002 L16.2361,28.0002 L16.2431,28.0002 L84.3061,28.0002 C86.2401,28.0002 87.8081,26.4322 87.8081,24.4842 L87.8081,3.5092 C87.8081,1.5742 86.2461,0.0002 84.3131,0.0002 M84.3131,0.2182 C86.1231,0.2182 87.5971,1.6922 87.5971,3.5092 L87.5971,24.4842 C87.5971,26.3012 86.1231,27.7822 84.3131,27.7822 L16.2731,27.7822 L16.2611,27.7762 L16.2241,27.7822 C11.5081,27.7822 7.4671,24.5592 6.3961,19.9482 L6.3581,19.7872 L6.1971,19.7802 L5.4101,19.7432 C2.4981,19.5932 0.2171,17.1862 0.2171,14.2612 L0.2171,0.2182 L84.3131,0.2182" id="Fill-3" fill="#FFFFFF" mask="url(#mask-2)"></path>
                </g>
                <path d="M2.9249,2.9367 L2.9249,14.2427 C2.9249,16.0407 4.3319,17.4907 6.0979,17.5837 C6.0049,12.7247 9.4379,8.3747 14.3459,7.5107 C14.9229,7.4047 15.5059,7.3547 16.0939,7.3547 C20.9529,7.3547 25.0859,10.8457 25.9289,15.6487 C26.0409,16.3027 26.0899,16.9487 26.0779,17.5837 C27.8439,17.4837 29.2379,16.0347 29.2379,14.2427 L29.2379,2.9367 L2.9249,2.9367 Z" id="Fill-6" fill="#8DC642"></path>
                <path d="M8.4284,17.3913 C8.4284,21.6213 11.8614,25.0573 16.0634,25.0573 C18.1084,25.0573 20.0354,24.2543 21.4794,22.7983 L19.9244,21.2433 C18.8954,22.2823 17.5254,22.8543 16.0694,22.8543 C13.0704,22.8543 10.6284,20.4033 10.6284,17.3913 C10.6284,14.3793 13.0634,11.9283 16.0694,11.9283 C19.0744,11.9283 21.5104,14.3793 21.5104,17.3913 L23.7044,17.3913 C23.7044,13.1663 20.2774,9.7253 16.0694,9.7253 C11.8614,9.7313 8.4284,13.1663 8.4284,17.3913 L8.4284,17.3913 Z M12.8774,17.3913 C12.8774,15.6053 14.3224,14.1553 16.1004,14.1553 C17.8794,14.1553 19.3164,15.6053 19.3164,17.3913 L12.8774,17.3913 Z" id="Fill-8" fill="#020202"></path>
                <path d="M75.612,7.7282 C75.475,7.8092 75.383,7.9582 75.383,8.1202 L75.388,12.0712 C75.388,12.2332 75.482,12.3822 75.618,12.4632 C75.76,12.5442 75.934,12.5442 76.077,12.4632 L77.775,11.4742 L79.479,10.4842 C79.622,10.4032 79.702,10.2542 79.702,10.0862 C79.702,9.9242 79.622,9.7752 79.479,9.6942 L76.07,7.7222 C75.922,7.6472 75.748,7.6472 75.612,7.7282" id="Fill-10" fill="#231F20"></path>
                <polygon id="Fill-12" fill="#020202" points="36.1852 7.7966 36.1852 13.9376 34.4992 13.9376 34.4992 7.7966 32.1632 7.7966 32.1632 6.2346 38.5212 6.2346 38.5212 7.7966"></polygon>
                <path d="M44.068,8.8669 C44.068,8.1389 43.56,7.7649 42.742,7.7649 L41.063,7.7649 L41.063,9.9809 L42.773,9.9809 C43.597,9.9809 44.068,9.5389 44.068,8.8909 L44.068,8.8669 Z M44.037,13.9379 L42.389,11.4739 L41.063,11.4739 L41.063,13.9379 L39.377,13.9379 L39.377,6.2349 L42.884,6.2349 C44.694,6.2349 45.779,7.1929 45.779,8.7799 L45.779,8.8049 C45.779,10.0489 45.109,10.8269 44.136,11.1879 L46.014,13.9379 L44.037,13.9379 Z" id="Fill-14" fill="#020202"></path>
                <path d="M50.278,14.0622 C48.215,14.0622 46.956,12.9052 46.956,10.6402 L46.956,6.2412 L48.641,6.2412 L48.641,10.5962 C48.641,11.8532 49.267,12.5002 50.297,12.5002 C51.325,12.5002 51.951,11.8722 51.951,10.6522 L51.951,6.2412 L53.6360281,6.2412 L53.636,10.5782 C53.643,12.9112 52.341,14.0622 50.278,14.0622" id="Fill-16" fill="#020202"></path>
                <path d="M57.8815,14.05 C56.7165,14.05 55.5455,13.645 54.6215,12.818 L55.6195,11.617 C56.3075,12.189 57.0325,12.55 57.9065,12.55 C58.5945,12.55 59.0165,12.277 59.0165,11.822 L59.0165,11.803 C59.0165,11.374 58.7555,11.156 57.4665,10.827 C55.9175,10.428 54.9255,9.999 54.9255,8.475 L54.9255,8.45 C54.9255,7.056 56.0405,6.129 57.6095,6.129 C58.7315,6.129 59.6795,6.484 60.4595,7.106 L59.5855,8.382 C58.9035,7.908 58.2355,7.622 57.5905,7.622 C56.9455,7.622 56.6055,7.915 56.6055,8.294 L56.6055,8.313 C56.6055,8.817 56.9335,8.985 58.2595,9.321 C59.8155,9.732 60.6895,10.292 60.6895,11.635 L60.6895,11.654 C60.6895,13.191 59.5295,14.05 57.8815,14.05" id="Fill-18" fill="#020202"></path>
                <polygon id="Fill-20" fill="#020202" points="64.9772 7.7966 64.9772 13.9376 63.2912 13.9376 63.2912 7.7966 60.9562 7.7966 60.9562 6.2346 67.3142 6.2346 67.3142 7.7966"></polygon>
                <path d="M69.7311,9.2712 C69.0491,9.2712 68.5961,9.7692 68.4601,10.5282 L70.9701,10.5282 C70.8771,9.7812 70.4371,9.2712 69.7311,9.2712 M72.5751,11.5732 L68.4851,11.5732 C68.6521,12.3322 69.1791,12.7242 69.9221,12.7242 C70.4801,12.7242 70.8891,12.5502 71.3481,12.1212 L72.3021,12.9672 C71.7511,13.6512 70.9631,14.0682 69.9041,14.0682 C68.1381,14.0682 66.8361,12.8242 66.8361,11.0202 L66.8361,10.9952 C66.8361,9.3142 68.0331,7.9272 69.7371,7.9272 C71.7021,7.9272 72.6001,9.4582 72.6001,11.1312 L72.6001,11.1502 C72.5931,11.3182 72.5871,11.4172 72.5751,11.5732" id="Fill-22" fill="#020202"></path>
                <path d="M34.507,20.7458 C34.192,20.7458 33.894,20.6918 33.628,20.5778 C33.362,20.4638 33.127,20.3138 32.928,20.1218 C32.731,19.9308 32.576,19.6958 32.465,19.4328 C32.353,19.1678 32.297,18.8868 32.297,18.5858 L32.297,18.5738 C32.297,18.2738 32.353,17.9918 32.465,17.7338 C32.576,17.4708 32.731,17.2418 32.928,17.0438 C33.127,16.8468 33.362,16.6898 33.634,16.5758 C33.907,16.4618 34.21,16.4018 34.538,16.4018 C34.736,16.4018 34.916,16.4198 35.083,16.4498 C35.244,16.4798 35.392,16.5278 35.535,16.5878 C35.671,16.6478 35.795,16.7138 35.912,16.7918 C36.03,16.8698 36.135,16.9598 36.24,17.0568 L35.752,17.6018 C35.578,17.4458 35.392,17.3198 35.2,17.2248 C35.008,17.1278 34.786,17.0798 34.538,17.0798 C34.334,17.0798 34.142,17.1218 33.963,17.1998 C33.783,17.2778 33.634,17.3868 33.51,17.5178 C33.381,17.6498 33.281,17.8118 33.214,17.9918 C33.145,18.1718 33.108,18.3638 33.108,18.5678 L33.108,18.5798 C33.108,18.7838 33.145,18.9758 33.214,19.1558 C33.281,19.3358 33.381,19.4978 33.51,19.6298 C33.64,19.7678 33.789,19.8758 33.963,19.9538 C34.136,20.0318 34.328,20.0738 34.538,20.0738 C34.804,20.0738 35.027,20.0258 35.219,19.9238 C35.411,19.8278 35.597,19.6898 35.782,19.5218 L36.272,20.0018 C36.16,20.1158 36.043,20.2248 35.925,20.3138 C35.801,20.4038 35.671,20.4818 35.528,20.5478 C35.386,20.6138 35.237,20.6618 35.07,20.6978 C34.903,20.7338 34.705,20.7458 34.507,20.7458" id="Fill-24" fill="#000000"></path>
                <path d="M39.2121,18.8679 C39.1991,18.7539 39.1751,18.6399 39.1311,18.5379 C39.0881,18.4359 39.0321,18.3469 38.9641,18.2739 C38.8961,18.2019 38.8101,18.1419 38.7161,18.0999 C38.6181,18.0579 38.5121,18.0339 38.3821,18.0339 C38.1531,18.0339 37.9621,18.1119 37.8131,18.2629 C37.6641,18.4179 37.5711,18.6159 37.5341,18.8679 L39.2121,18.8679 Z M38.4691,20.7459 C38.2341,20.7459 38.0111,20.7039 37.8131,20.6259 C37.6081,20.5479 37.4291,20.4339 37.2801,20.2899 C37.1321,20.1459 37.0081,19.9719 36.9271,19.7739 C36.8411,19.5699 36.7971,19.3479 36.7971,19.1019 L36.7971,19.0899 C36.7971,18.8619 36.8351,18.6459 36.9151,18.4479 C36.9961,18.2499 37.1011,18.0759 37.2431,17.9199 C37.3861,17.7639 37.5531,17.6499 37.7451,17.5659 C37.9371,17.4819 38.1531,17.4339 38.3891,17.4339 C38.6491,17.4339 38.8781,17.4819 39.0691,17.5719 C39.2681,17.6619 39.4281,17.7879 39.5591,17.9439 C39.6891,18.0999 39.7881,18.2799 39.8561,18.4899 C39.9241,18.6939 39.9551,18.9099 39.9551,19.1389 L39.9551,19.2399 C39.9551,19.2759 39.9481,19.3059 39.9421,19.3419 L37.5411,19.3419 C37.5841,19.5999 37.6891,19.8049 37.8561,19.9419 C38.0291,20.0799 38.2341,20.1459 38.4821,20.1459 C38.6671,20.1459 38.8281,20.1159 38.9641,20.0499 C39.1011,19.9839 39.2361,19.8939 39.3671,19.7679 L39.8061,20.1459 C39.6511,20.3259 39.4661,20.4709 39.2491,20.5779 C39.0261,20.6919 38.7661,20.7459 38.4691,20.7459 L38.4691,20.7459 Z" id="Fill-26" fill="#000000"></path>
                <path d="M40.7038,17.5056 L41.4588,17.5056 L41.4588,18.2206 C41.5638,17.9806 41.7068,17.7876 41.8988,17.6446 C42.0908,17.4996 42.3258,17.4346 42.6168,17.4456 L42.6168,18.2136 L42.5738,18.2136 C42.4068,18.2136 42.2578,18.2376 42.1208,18.2916 C41.9848,18.3466 41.8678,18.4236 41.7688,18.5266 C41.6698,18.6276 41.5958,18.7606 41.5398,18.9216 C41.4838,19.0776 41.4588,19.2646 41.4588,19.4746 L41.4588,20.6806 L40.7038,20.6806 L40.7038,17.5056 Z" id="Fill-28" fill="#000000"></path>
                <path d="M44.3688,20.7282 C44.2328,20.7282 44.1088,20.7092 43.9908,20.6802 C43.8728,20.6502 43.7738,20.5962 43.6878,20.5242 C43.6008,20.4522 43.5388,20.3562 43.4898,20.2362 C43.4468,20.1162 43.4218,19.9722 43.4218,19.7972 L43.4218,18.1292 L43.0068,18.1292 L43.0068,17.5052 L43.4218,17.5052 L43.4218,16.6362 L44.1768,16.6362 L44.1768,17.5052 L45.0558,17.5052 L45.0558,18.1292 L44.1768,18.1292 L44.1768,19.6842 C44.1768,19.8222 44.2138,19.9232 44.2818,19.9842 C44.3498,20.0432 44.4488,20.0742 44.5788,20.0742 C44.7398,20.0742 44.8948,20.0382 45.0438,19.9652 L45.0438,20.5602 C44.9508,20.6142 44.8458,20.6502 44.7398,20.6802 C44.6348,20.7092 44.5048,20.7282 44.3688,20.7282" id="Fill-30" fill="#000000"></path>
                <mask id="mask-4" fill="white">
                    <use xlink:href="#path-3"></use>
                </mask>
                <g id="Clip-33"></g>
                <path d="M45.857,20.674 L46.788,20.674 L46.788,17.506 L45.857,17.506 L45.857,20.674 Z M45.811,17.02 L46.811,17.02 L46.811,16.33 L45.811,16.33 L45.811,17.02 Z" id="Fill-32" fill="#000000" mask="url(#mask-4)"></path>
                <path d="M49.94,20.674 L50.695,20.674 L50.695,17.506 L49.94,17.506 L49.94,20.674 Z M49.903,17.02 L50.714,17.02 L50.714,16.33 L49.903,16.33 L49.903,17.02 Z M47.736,18.13 L47.322,18.13 L47.322,17.524 L47.736,17.524 L47.736,17.296 C47.736,16.942 47.823,16.684 48.003,16.51 C48.175,16.342 48.423,16.258 48.739,16.258 C48.869,16.258 48.987,16.264 49.08,16.282 C49.173,16.3 49.265,16.318 49.345,16.342 L49.345,16.954 C49.271,16.93 49.204,16.912 49.135,16.9 C49.067,16.888 48.993,16.876 48.913,16.876 C48.628,16.876 48.485,17.038 48.485,17.356 L48.485,17.53 L49.352,17.53 L49.352,18.13 L48.498,18.13 L48.498,20.674 L47.743,20.674 L47.743,18.13 L47.736,18.13 Z" id="Fill-34" fill="#000000" mask="url(#mask-4)"></path>
                <path d="M53.9079,18.8679 C53.8959,18.7539 53.8709,18.6399 53.8279,18.5379 C53.7839,18.4359 53.7279,18.3469 53.6609,18.2739 C53.5929,18.2019 53.5059,18.1419 53.4129,18.0999 C53.3139,18.0579 53.2089,18.0339 53.0789,18.0339 C52.8489,18.0339 52.6579,18.1119 52.5099,18.2629 C52.3599,18.4179 52.2669,18.6159 52.2299,18.8679 L53.9079,18.8679 Z M53.1659,20.7459 C52.9299,20.7459 52.7069,20.7039 52.5099,20.6259 C52.3039,20.5479 52.1259,20.4339 51.9759,20.2899 C51.8279,20.1459 51.7049,19.9719 51.6239,19.7739 C51.5369,19.5699 51.4939,19.3479 51.4939,19.1019 L51.4939,19.0899 C51.4939,18.8619 51.5309,18.6459 51.6109,18.4479 C51.6919,18.2499 51.7979,18.0759 51.9389,17.9199 C52.0819,17.7639 52.2489,17.6499 52.4409,17.5659 C52.6329,17.4819 52.8489,17.4339 53.0849,17.4339 C53.3449,17.4339 53.5739,17.4819 53.7649,17.5719 C53.9639,17.6619 54.1249,17.7879 54.2549,17.9439 C54.3849,18.0999 54.4839,18.2799 54.5529,18.4899 C54.6199,18.6939 54.6509,18.9099 54.6509,19.1389 L54.6509,19.2399 C54.6509,19.2759 54.6449,19.3059 54.6379,19.3419 L52.2369,19.3419 C52.2799,19.5999 52.3859,19.8049 52.5529,19.9419 C52.7249,20.0799 52.9299,20.1459 53.1779,20.1459 C53.3629,20.1459 53.5239,20.1159 53.6609,20.0499 C53.7969,19.9839 53.9329,19.8939 54.0629,19.7679 L54.5029,20.1459 C54.3469,20.3259 54.1619,20.4709 53.9449,20.5779 C53.7279,20.6919 53.4689,20.7459 53.1659,20.7459 L53.1659,20.7459 Z" id="Fill-35" fill="#000000" mask="url(#mask-4)"></path>
                <path d="M56.9352,20.1101 C57.0592,20.1101 57.1762,20.0861 57.2942,20.0381 C57.4122,19.9901 57.5112,19.9231 57.5972,19.8341 C57.6842,19.7441 57.7522,19.6361 57.8022,19.5101 C57.8512,19.3841 57.8762,19.2461 57.8762,19.0961 L57.8762,19.0841 C57.8762,18.9341 57.8512,18.7961 57.8022,18.6641 C57.7522,18.5381 57.6842,18.4301 57.5972,18.3461 C57.5112,18.2621 57.4122,18.1901 57.2942,18.1421 C57.1762,18.0941 57.0592,18.0701 56.9352,18.0701 C56.8052,18.0701 56.6872,18.0941 56.5762,18.1361 C56.4642,18.1841 56.3662,18.2501 56.2792,18.3341 C56.1922,18.4231 56.1242,18.5321 56.0752,18.6581 C56.0252,18.7841 56.0002,18.9221 56.0002,19.0841 L56.0002,19.0961 C56.0002,19.2461 56.0252,19.3841 56.0752,19.5101 C56.1242,19.6361 56.1922,19.7441 56.2792,19.8341 C56.3662,19.9231 56.4642,19.9901 56.5762,20.0381 C56.6872,20.0861 56.8052,20.1101 56.9352,20.1101 M56.7552,20.7401 C56.5642,20.7401 56.3722,20.7041 56.1922,20.6311 C56.0132,20.5601 55.8522,20.4521 55.7092,20.3141 C55.5672,20.1761 55.4562,20.0021 55.3692,19.7981 C55.2832,19.5941 55.2392,19.3601 55.2392,19.0961 L55.2392,19.0841 C55.2392,18.8201 55.2832,18.5861 55.3632,18.3811 C55.4502,18.1781 55.5612,18.0041 55.6972,17.8661 C55.8392,17.7281 56.0002,17.6201 56.1802,17.5471 C56.3602,17.4761 56.5512,17.4401 56.7442,17.4401 C57.0092,17.4401 57.2322,17.4941 57.4122,17.6081 C57.5912,17.7221 57.7402,17.8481 57.8582,17.9981 L57.8582,16.2941 L58.6192,16.2941 L58.6192,20.6731 L57.8642,20.6731 L57.8702,20.1461 C57.7522,20.3081 57.5972,20.4521 57.4172,20.5661 C57.2452,20.6801 57.0222,20.7401 56.7552,20.7401" id="Fill-36" fill="#000000" mask="url(#mask-4)"></path>
                <path d="M63.1442,18.6579 C63.4352,18.6579 63.6652,18.5859 63.8312,18.4479 C63.9982,18.3099 64.0852,18.1239 64.0852,17.9079 L64.0852,17.8959 C64.0852,17.6439 63.9982,17.4579 63.8312,17.3319 C63.6652,17.2059 63.4352,17.1399 63.1502,17.1399 L62.2652,17.1399 L62.2652,18.6579 L63.1442,18.6579 Z M61.4982,16.4739 L63.2062,16.4739 C63.4592,16.4739 63.6832,16.5109 63.8872,16.5759 C64.0912,16.6419 64.2642,16.7379 64.4072,16.8639 C64.5492,16.9899 64.6612,17.1349 64.7352,17.3079 C64.8092,17.4819 64.8532,17.6739 64.8532,17.8849 L64.8532,17.8959 C64.8532,18.1299 64.8092,18.3399 64.7162,18.5199 C64.6232,18.6999 64.4992,18.8449 64.3452,18.9699 C64.1902,19.0899 64.0042,19.1799 63.7942,19.2459 C63.5832,19.3059 63.3552,19.3359 63.1202,19.3359 L62.2592,19.3359 L62.2592,20.6859 L61.5032,20.6859 L61.5032,16.4739 L61.4982,16.4739 Z" id="Fill-37" fill="#000000" mask="url(#mask-4)"></path>
                <path d="M65.5465,17.5056 L66.3015,17.5056 L66.3015,18.2206 C66.4065,17.9806 66.5495,17.7876 66.7405,17.6446 C66.9335,17.4996 67.1675,17.4346 67.4585,17.4456 L67.4585,18.2136 L67.4155,18.2136 C67.2485,18.2136 67.1005,18.2376 66.9635,18.2916 C66.8275,18.3466 66.7095,18.4236 66.6105,18.5266 C66.5125,18.6276 66.4375,18.7606 66.3815,18.9216 C66.3255,19.0776 66.3015,19.2646 66.3015,19.4746 L66.3015,20.6806 L65.5465,20.6806 L65.5465,17.5056 Z" id="Fill-38" fill="#000000" mask="url(#mask-4)"></path>
                <path d="M68.161,20.674 L69.093,20.674 L69.093,17.506 L68.161,17.506 L68.161,20.674 Z M68.115,17.02 L69.115,17.02 L69.115,16.33 L68.115,16.33 L68.115,17.02 Z" id="Fill-39" fill="#000000" mask="url(#mask-4)"></path>
                <polygon id="Fill-40" fill="#000000" mask="url(#mask-4)" points="69.5641 17.5056 70.3691 17.5056 71.2481 19.8336 72.1321 17.5056 72.9181 17.5056 71.5821 20.6976 70.9071 20.6976"></polygon>
                <path d="M75.5748,19.3484 C75.4818,19.3124 75.3708,19.2824 75.2408,19.2574 C75.1098,19.2344 74.9738,19.2224 74.8258,19.2224 C74.5908,19.2224 74.4048,19.2644 74.2748,19.3544 C74.1448,19.4444 74.0768,19.5644 74.0768,19.7134 L74.0768,19.7264 C74.0768,19.8754 74.1378,19.9954 74.2568,20.0744 C74.3738,20.1524 74.5288,20.1944 74.7078,20.1944 C74.8318,20.1944 74.9428,20.1764 75.0488,20.1464 C75.1538,20.1164 75.2468,20.0684 75.3268,20.0074 C75.4078,19.9484 75.4698,19.8814 75.5068,19.7974 C75.5438,19.7134 75.5688,19.6234 75.5688,19.5224 L75.5688,19.3484 L75.5748,19.3484 Z M75.5558,20.6734 L75.5558,20.2844 C75.4448,20.4104 75.3028,20.5184 75.1298,20.6084 C74.9558,20.6984 74.7448,20.7404 74.4978,20.7404 C74.3428,20.7404 74.1938,20.7224 74.0528,20.6804 C73.9098,20.6384 73.7858,20.5774 73.6798,20.4944 C73.5748,20.4104 73.4888,20.3084 73.4268,20.1884 C73.3648,20.0684 73.3278,19.9234 73.3278,19.7624 L73.3278,19.7494 C73.3278,19.5764 73.3588,19.4194 73.4268,19.2874 C73.4948,19.1564 73.5818,19.0474 73.6988,18.9634 C73.8168,18.8794 73.9588,18.8144 74.1198,18.7724 C74.2808,18.7304 74.4608,18.7114 74.6458,18.7114 C74.8448,18.7114 75.0118,18.7244 75.1478,18.7474 C75.2838,18.7724 75.4198,18.8024 75.5508,18.8444 L75.5508,18.7844 C75.5508,18.5624 75.4818,18.3944 75.3458,18.2804 C75.2098,18.1654 75.0118,18.1064 74.7518,18.1064 C74.5658,18.1064 74.3978,18.1234 74.2568,18.1604 C74.1138,18.1964 73.9658,18.2444 73.8168,18.3044 L73.6118,17.7224 C73.7918,17.6444 73.9768,17.5774 74.1698,17.5304 C74.3608,17.4824 74.5908,17.4574 74.8568,17.4574 C75.3458,17.4574 75.7048,17.5724 75.9398,17.8064 C76.1758,18.0394 76.2928,18.3694 76.2928,18.7954 L76.2928,20.6734 L75.5558,20.6734 Z" id="Fill-41" fill="#000000" mask="url(#mask-4)"></path>
                <path d="M78.7067,20.7458 C78.4657,20.7458 78.2367,20.7038 78.0327,20.6138 C77.8277,20.5298 77.6477,20.4098 77.4937,20.2668 C77.3397,20.1158 77.2217,19.9418 77.1417,19.7438 C77.0547,19.5458 77.0117,19.3298 77.0117,19.1078 L77.0117,19.0968 C77.0117,18.8738 77.0547,18.6578 77.1417,18.4598 C77.2277,18.2558 77.3457,18.0818 77.4937,17.9328 C77.6477,17.7818 77.8277,17.6618 78.0327,17.5778 C78.2367,17.4938 78.4657,17.4458 78.7137,17.4458 C79.0227,17.4458 79.2767,17.4938 79.4807,17.5968 C79.6857,17.6978 79.8647,17.8298 80.0187,17.9918 L79.5557,18.4778 C79.4367,18.3638 79.3137,18.2678 79.1847,18.1898 C79.0537,18.1178 78.8937,18.0758 78.7067,18.0758 C78.5707,18.0758 78.4467,18.0998 78.3297,18.1598 C78.2117,18.2138 78.1127,18.2858 78.0327,18.3758 C77.9517,18.4658 77.8837,18.5738 77.8407,18.6998 C77.7907,18.8258 77.7667,18.9518 77.7667,19.0898 L77.7667,19.1018 C77.7667,19.2398 77.7907,19.3718 77.8407,19.4978 C77.8907,19.6238 77.9577,19.7318 78.0387,19.8218 C78.1257,19.9118 78.2297,19.9898 78.3487,20.0438 C78.4657,20.0988 78.6027,20.1218 78.7447,20.1218 C78.9237,20.1218 79.0787,20.0858 79.2087,20.0078 C79.3447,19.9358 79.4687,19.8398 79.5927,19.7258 L80.0447,20.1578 C79.8837,20.3318 79.6977,20.4758 79.4937,20.5898 C79.2887,20.6858 79.0287,20.7458 78.7067,20.7458" id="Fill-42" fill="#000000" mask="url(#mask-4)"></path>
                <path d="M81.3942,21.6521 C81.2392,21.6521 81.0962,21.6341 80.9792,21.6041 C80.8552,21.5681 80.7382,21.5261 80.6202,21.4651 L80.8732,20.9261 C80.9422,20.9621 81.0162,20.9921 81.0902,21.0161 C81.1652,21.0401 81.2392,21.0461 81.3132,21.0461 C81.4182,21.0461 81.5112,21.0221 81.5802,20.9681 C81.6482,20.9141 81.7152,20.8181 81.7782,20.6801 L80.4152,17.5121 L81.2142,17.5121 L82.1432,19.8641 L82.9912,17.5121 L83.7712,17.5121 L82.4712,20.7701 C82.4032,20.9321 82.3342,21.0701 82.2662,21.1841 C82.1992,21.2981 82.1182,21.3881 82.0322,21.4601 C81.9452,21.5321 81.8522,21.5801 81.7472,21.6101 C81.6482,21.6341 81.5302,21.6521 81.3942,21.6521" id="Fill-43" fill="#000000" mask="url(#mask-4)"></path>
            </g>
        </g>
    </g>
</svg>