<?xml version="1.0" encoding="UTF-8"?>
<svg id="uuid-af3ed44b-29a4-4a95-bbab-db97bc6044e3" data-name="Capa 1" xmlns="http://www.w3.org/2000/svg" width="70" height="70" viewBox="0 0 70 70">
  <g id="uuid-2a7b8bf6-6f28-4ffb-acf9-19ddf45b82dd" data-name="Capa 23">
    <g id="uuid-afdea739-ecd3-400f-a0db-4e1dab160236" data-name="donno3.tif">
      <g>
        <path d="m52.76,34.26c-.12,10.34-8.32,17.9-17.85,17.86-9.63-.05-17.66-7.68-17.72-17.84-.06-9.73,7.97-17.81,17.6-17.86,9.98-.05,17.9,7.99,17.97,17.85Zm-34.11-.76h8.09c.23-2.24.47-4.44.7-6.66,0,0-.07-.02-.13-.02-2.21,0-4.43,0-6.64,0-.13,0-.31.13-.37.24-.27.56-.52,1.14-.74,1.72-.58,1.5-.8,3.08-.91,4.71Zm32.61,0c.01-.07.02-.1.02-.13,0-.08,0-.16,0-.23-.17-2.05-.64-4.02-1.53-5.89-.15-.32-.32-.44-.67-.44-2.11.02-4.22,0-6.34,0-.1,0-.2.01-.23.01.24,2.23.47,4.44.71,6.68h8.06Zm-23.75,8.21c.01-.1.02-.12.02-.14-.43-2.06-.64-4.15-.68-6.25,0-.27-.09-.34-.35-.33-2.47,0-4.94,0-7.41,0-.46,0-.46,0-.42.47.17,2.07.68,4.04,1.57,5.92.12.25.26.34.53.34,2.11,0,4.23,0,6.34,0,.13,0,.26,0,.4,0Zm14.89-.03c.12.01.22.03.32.03,2.16,0,4.32,0,6.47,0,.25,0,.37-.09.48-.31.9-1.9,1.42-3.89,1.59-5.98.03-.43.04-.43-.39-.43-2.48,0-4.96,0-7.45,0-.29,0-.33.1-.35.37-.11,1.52-.24,3.05-.39,4.57-.06.58-.18,1.16-.28,1.77Zm-8.16-3.3c0-1.02-.01-2.03,0-3.05,0-.29-.09-.36-.36-.35-1.65.01-3.31,0-4.96,0-.64,0-.63,0-.62.63.06,1.95.29,3.87.66,5.78.05.26.15.32.4.32,1.51,0,3.02,0,4.53,0,.26,0,.37-.05.37-.35-.02-.99,0-1.99,0-2.98Zm7.37-4.88c0-.37.01-.71,0-1.04-.08-1.8-.3-3.58-.65-5.35-.05-.23-.13-.31-.37-.3-1.52.01-3.04.01-4.56,0-.27,0-.35.07-.35.34.01,2.01,0,4.02.01,6.04,0,.11.01.21.02.32h5.9Zm-13.32-.01h5.92v-6.63s-.06-.04-.08-.04c-1.63,0-3.26,0-4.9,0-.08,0-.21.12-.24.2-.08.3-.12.61-.18.92-.32,1.83-.5,3.67-.53,5.55Zm7.4,4.86h0c0,1.02,0,2.03,0,3.05,0,.23.06.32.3.31,1.53,0,3.07,0,4.6,0,.23,0,.35-.05.38-.3.06-.46.2-.92.24-1.38.15-1.56.28-3.11.43-4.67.03-.31-.06-.38-.35-.38-1.76.01-3.51.01-5.27,0-.25,0-.33.06-.33.32.01,1.02,0,2.03,0,3.05Zm-14.42,4.85c1.42,2.16,3.18,3.88,5.35,5.18,1.43.85,2.94,1.51,4.66,1.88-.33-.44-.62-.8-.88-1.17-1.18-1.68-1.87-3.57-2.41-5.52-.08-.29-.19-.39-.5-.39-1.96.01-3.91,0-5.87,0-.1,0-.19,0-.35.02Zm17.46,6.97s.03.05.04.08c2.44-.63,4.64-1.74,6.59-3.34,1.28-1.05,2.37-2.28,3.3-3.72-.19,0-.3,0-.41,0-1.82,0-3.65,0-5.47,0-.77,0-.76,0-.97.73-.5,1.8-1.17,3.54-2.22,5.11-.27.4-.57.76-.86,1.15Zm.09-31.84s-.04.05-.06.08c.18.22.37.44.54.67,1.3,1.8,2.09,3.83,2.64,5.96.07.28.18.32.42.32,2.02,0,4.05,0,6.07,0,.06,0,.12-.02.25-.04-2.47-3.54-5.63-6.01-9.84-6.98Zm-17.58,7c.19.01.33.03.47.03,1.89,0,3.78-.01,5.67,0,.37,0,.59-.06.63-.47.02-.21.11-.41.17-.61.67-2.08,1.46-4.1,2.91-5.79.03-.03.04-.07.1-.19-4.28,1.03-7.49,3.43-9.96,7.02Zm19.39,17.85h-.46c-1.36,0-2.73,0-4.09,0-.31,0-.39.08-.39.39,0,2.23,0,4.47,0,6.7,0,.1.02.2.04.34.81-.32,1.44-.81,1.98-1.42.8-.92,1.39-1.97,1.85-3.09.38-.93.71-1.89,1.09-2.91Zm-11.28.02c.3.85.56,1.66.86,2.46.5,1.3,1.14,2.52,2.07,3.57.53.58,1.12,1.07,1.92,1.34v-7.36h-4.86Zm11.22-17.87c-.48-1.58-.99-3.07-1.79-4.45-.46-.8-.98-1.54-1.69-2.14-.39-.33-.82-.6-1.39-.76,0,.16,0,.28,0,.39,0,2.21,0,4.42,0,6.63,0,.28.07.36.35.36,1.34-.01,2.68,0,4.02,0,.15,0,.31-.02.5-.03Zm-6.33-7.39c-.28.13-.49.2-.68.31-.9.5-1.52,1.26-2.07,2.1-.98,1.49-1.53,3.16-2.08,4.84-.01.04,0,.08.01.12.04.01.08.03.11.03,1.5,0,2.99,0,4.49.01.23,0,.24-.13.23-.31,0-2.19,0-4.38,0-6.57,0-.15,0-.31,0-.54Z"/>
        <path d="m53.51,19.12c0,1.21,0,2.41,0,3.62,0,.16,0,.31-.01.47-.05.34-.35.6-.7.6-.39,0-.67-.23-.72-.6-.02-.12-.02-.25-.02-.37,0-1.87-.01-3.73-.02-5.6,0-.52.25-.8.77-.81,1.95,0,3.89,0,5.84,0,.43,0,.8.33.8.7,0,.37-.35.74-.8.74-1.28-.01-2.55,0-3.83,0-.11,0-.21,0-.37.02.36.45.68.85,1,1.25,2.11,2.69,3.55,5.71,4.48,8.99.9,3.17,1.19,6.4.79,9.66-.86,7.1-3.99,13.01-9.59,17.52-3.14,2.53-6.72,4.22-10.67,5.09-2.59.57-5.2.71-7.84.49-2.63-.22-5.14-.89-7.58-1.89-.76-.31-1.51-.68-2.25-1.03-.32-.15-.49-.48-.45-.76.05-.29.33-.59.63-.61.17-.01.37.05.53.13,1.22.63,2.46,1.22,3.78,1.63,3.26,1.02,6.59,1.42,10,1.09,4.28-.42,8.21-1.8,11.72-4.31,2.28-1.63,4.26-3.59,5.87-5.89,2.24-3.18,3.71-6.67,4.25-10.55.91-6.62-.54-12.66-4.39-18.13-.36-.52-.76-1.01-1.14-1.51-.03.02-.06.04-.09.06Z"/>
        <path d="m16.44,50.95c0-.24,0-.47,0-.7,0-1.06,0-2.12,0-3.19,0-.48.31-.84.72-.85.46,0,.74.3.75.84,0,1.93,0,3.87.01,5.8,0,.43-.23.71-.66.74-.33.03-.67,0-1.01,0-1.66,0-3.31,0-4.97,0-.36,0-.6-.16-.72-.49-.11-.3-.02-.58.22-.75.17-.12.41-.18.62-.18,1.22-.01,2.44,0,3.66,0,.12,0,.24,0,.4,0-.04-.09-.05-.15-.08-.19-2.7-3.14-4.53-6.72-5.53-10.74-.78-3.14-.95-6.3-.56-9.51.26-2.15.82-4.22,1.62-6.24,1.74-4.38,4.4-8.09,8.14-10.99,3.1-2.4,6.57-4.06,10.4-4.91,2.9-.65,5.84-.77,8.8-.39,2.28.29,4.45.94,6.58,1.76.11.04.23.09.34.15.31.17.44.54.32.86-.13.33-.49.53-.84.41-.74-.26-1.46-.57-2.2-.8-2.92-.92-5.91-1.29-8.97-1.09-4.78.31-9.15,1.82-12.99,4.69-3.81,2.85-6.58,6.52-8.34,10.95-.9,2.28-1.37,4.64-1.55,7.07-.24,3.09.11,6.12,1.02,9.07.98,3.2,2.57,6.08,4.75,8.62.01.01.03.02.07.04Z"/>
        <path d="m18.65,33.51c.11-1.63.33-3.2.91-4.71.23-.58.47-1.16.74-1.72.06-.12.24-.24.37-.24,2.21-.01,4.43-.01,6.64,0,.06,0,.13.02.13.02-.23,2.22-.46,4.42-.7,6.66h-8.09Z" style="fill: #fff;"/>
        <path d="m51.27,33.52h-8.06c-.24-2.24-.47-4.45-.71-6.68.04,0,.14-.01.23-.01,2.11,0,4.22,0,6.34,0,.36,0,.52.12.67.44.89,1.87,1.36,3.84,1.53,5.89,0,.08,0,.16,0,.23,0,.03,0,.07-.02.13Z" style="fill: #fff;"/>
        <path d="m27.52,41.73c-.14,0-.27,0-.4,0-2.11,0-4.23,0-6.34,0-.27,0-.41-.09-.53-.34-.89-1.88-1.4-3.85-1.57-5.92-.04-.46-.04-.47.42-.47,2.47,0,4.94,0,7.41,0,.26,0,.34.06.35.33.04,2.1.25,4.19.68,6.25,0,.02,0,.04-.02.14Z" style="fill: #fff;"/>
        <path d="m42.41,41.7c.1-.6.23-1.18.28-1.77.15-1.52.28-3.05.39-4.57.02-.26.06-.37.35-.37,2.48,0,4.96,0,7.45,0,.43,0,.42,0,.39.43-.17,2.09-.69,4.09-1.59,5.98-.11.23-.23.31-.48.31-2.16,0-4.32,0-6.47,0-.1,0-.2-.02-.32-.03Z" style="fill: #fff;"/>
        <path d="m34.25,38.4c0,.99-.01,1.99,0,2.98,0,.3-.1.35-.37.35-1.51-.01-3.02,0-4.53,0-.24,0-.35-.06-.4-.32-.36-1.91-.6-3.84-.66-5.78-.02-.63-.02-.63.62-.63,1.65,0,3.31,0,4.96,0,.27,0,.37.07.36.35-.02,1.02,0,2.03,0,3.05Z" style="fill: #fff;"/>
        <path d="m41.62,33.52h-5.9c0-.11-.02-.21-.02-.32,0-2.01,0-4.02-.01-6.04,0-.27.08-.34.35-.34,1.52.01,3.04.01,4.56,0,.24,0,.33.07.37.3.34,1.77.56,3.55.65,5.35.02.33,0,.67,0,1.04Z" style="fill: #fff;"/>
        <path d="m28.3,33.51c.02-1.88.21-3.72.53-5.55.05-.31.1-.62.18-.92.02-.08.15-.2.24-.2,1.63,0,3.26,0,4.9,0,.02,0,.04.02.08.04v6.63h-5.92Z" style="fill: #fff;"/>
        <path d="m35.7,38.36c0-1.02,0-2.03,0-3.05,0-.26.08-.32.33-.32,1.76,0,3.51.01,5.27,0,.29,0,.38.06.35.38-.16,1.55-.28,3.11-.43,4.67-.05.46-.18.92-.24,1.38-.03.25-.15.3-.38.3-1.53,0-3.07,0-4.6,0-.24,0-.3-.08-.3-.31.01-1.02,0-2.03,0-3.05h0Z" style="fill: #fff;"/>
        <path d="m21.28,43.21c.16,0,.26-.02.35-.02,1.96,0,3.91,0,5.87,0,.3,0,.42.1.5.39.54,1.95,1.23,3.85,2.41,5.52.26.37.54.72.88,1.17-1.72-.37-3.23-1.03-4.66-1.88-2.17-1.3-3.94-3.02-5.35-5.18Z" style="fill: #fff;"/>
        <path d="m38.74,50.18c.29-.38.59-.75.86-1.15,1.05-1.56,1.72-3.3,2.22-5.11.2-.73.2-.73.97-.73,1.82,0,3.65,0,5.47,0,.11,0,.22,0,.41,0-.93,1.44-2.02,2.67-3.3,3.72-1.95,1.61-4.15,2.72-6.59,3.34-.01-.03-.03-.05-.04-.08Z" style="fill: #fff;"/>
        <path d="m38.83,18.34c4.21.98,7.37,3.44,9.84,6.98-.12.02-.18.04-.25.04-2.02,0-4.05,0-6.07,0-.24,0-.35-.04-.42-.32-.55-2.13-1.34-4.16-2.64-5.96-.17-.23-.36-.45-.54-.67.02-.03.04-.05.06-.08Z" style="fill: #fff;"/>
        <path d="m21.25,25.34c2.47-3.59,5.68-5.99,9.96-7.02-.06.12-.08.16-.1.19-1.46,1.69-2.25,3.7-2.91,5.79-.06.2-.15.4-.17.61-.04.4-.26.47-.63.47-1.89-.02-3.78,0-5.67,0-.14,0-.28-.02-.47-.03Z" style="fill: #fff;"/>
        <path d="m40.64,43.19c-.38,1.02-.71,1.98-1.09,2.91-.46,1.12-1.05,2.17-1.85,3.09-.53.61-1.16,1.1-1.98,1.42-.02-.14-.04-.24-.04-.34,0-2.23.01-4.47,0-6.7,0-.31.08-.4.39-.39,1.36.02,2.73,0,4.09,0h.46Z" style="fill: #fff;"/>
        <path d="m29.35,43.21h4.86v7.36c-.8-.27-1.4-.76-1.92-1.34-.94-1.04-1.57-2.27-2.07-3.57-.31-.8-.57-1.61-.86-2.46Z" style="fill: #fff;"/>
        <path d="m40.57,25.34c-.2.01-.35.03-.5.03-1.34,0-2.68,0-4.02,0-.28,0-.36-.08-.35-.36.01-2.21,0-4.42,0-6.63,0-.12,0-.23,0-.39.57.16,1,.43,1.39.76.71.6,1.23,1.35,1.69,2.14.8,1.38,1.31,2.87,1.79,4.45Z" style="fill: #fff;"/>
        <path d="m34.24,17.95c0,.24,0,.39,0,.54,0,2.19,0,4.38,0,6.57,0,.17,0,.31-.23.31-1.5,0-2.99,0-4.49-.01-.03,0-.06-.02-.11-.03,0-.04-.03-.09-.01-.12.55-1.67,1.1-3.35,2.08-4.84.55-.84,1.18-1.6,2.07-2.1.19-.11.4-.18.68-.31Z" style="fill: #fff;"/>
      </g>
    </g>
  </g>
</svg>