<?xml version="1.0" encoding="UTF-8"?>
<svg id="uuid-12cbde6a-fdaa-4d49-8635-97273b21e520" data-name="Capa 3" xmlns="http://www.w3.org/2000/svg" width="70" height="70" xmlns:xlink="http://www.w3.org/1999/xlink" viewBox="0 0 70 70">
  <defs>
    <mask id="uuid-29bf83ba-b18d-42c9-9b2b-767e9ec9be85" data-name="mask" x="5" y="5.02" width="60" height="41.96" maskUnits="userSpaceOnUse">
      <g id="uuid-67154830-b2b2-463d-b561-89ab71bb7923" data-name="mask-2">
        <polygon id="uuid-d8d10ac8-50a6-4c2e-805a-3f4d43ed953a" data-name="path-1" points="5 5.02 65 5.02 65 46.98 5 46.98 5 5.02" style="fill: #fff; fill-rule: evenodd;"/>
      </g>
    </mask>
    <mask id="uuid-2961574c-ef4e-4c31-a062-6347f76e70a5" data-name="mask-1" x="5" y="5.02" width="60" height="59.96" maskUnits="userSpaceOnUse">
      <g id="uuid-33d2a643-b150-493c-a86b-07bca1be6bd4" data-name="mask-4">
        <polygon id="uuid-3e2a58de-1f31-44bb-877c-956377d68eb1" data-name="path-3" points="5 64.98 65 64.98 65 5.02 5 5.02 5 64.98" style="fill: #fff; fill-rule: evenodd;"/>
      </g>
    </mask>
    <mask id="uuid-1c1ca676-3fb3-4855-839e-afd1240fd03b" data-name="mask-2" x="5" y="5.02" width="60" height="59.96" maskUnits="userSpaceOnUse">
      <g id="uuid-0e9672d6-6e1d-418f-b246-17c8464969d4" data-name="mask-4">
        <polygon id="uuid-32bd1f6d-8a0a-4b12-8306-0c7bbd82afbd" data-name="path-3" points="5 64.98 65 64.98 65 5.02 5 5.02 5 64.98" style="fill: #fff; fill-rule: evenodd;"/>
      </g>
    </mask>
    <mask id="uuid-876161d6-2668-414e-8aff-ef8055d047d2" data-name="mask-3" x="5" y="5.02" width="60" height="59.96" maskUnits="userSpaceOnUse">
      <g id="uuid-cd019d1c-1547-4236-ac02-739ca921e116" data-name="mask-4">
        <polygon id="uuid-3d417754-7da9-4af6-bfab-767bfd35bf07" data-name="path-3" points="5 64.98 65 64.98 65 5.02 5 5.02 5 64.98" style="fill: #fff; fill-rule: evenodd;"/>
      </g>
    </mask>
    <mask id="uuid-5d99c691-4fca-4bd3-838d-0265b152e273" data-name="mask-4" x="5" y="5.02" width="60" height="59.96" maskUnits="userSpaceOnUse">
      <g id="uuid-be15e497-5e4a-46a1-a5ff-e2809ff74a06" data-name="mask-4">
        <polygon id="uuid-b2383639-74ec-48f1-8524-17e0e1965c16" data-name="path-3" points="5 64.98 65 64.98 65 5.02 5 5.02 5 64.98" style="fill: #fff; fill-rule: evenodd;"/>
      </g>
    </mask>
    <mask id="uuid-3299ade8-db36-431a-859e-a8459b7b2d80" data-name="mask-5" x="5" y="5.02" width="60" height="59.96" maskUnits="userSpaceOnUse">
      <g id="uuid-4caefbbb-8ed7-451a-a986-f9e20a90fbca" data-name="mask-4">
        <polygon id="uuid-90d9aad3-4909-44bd-81e4-08428cbecb57" data-name="path-3" points="5 64.98 65 64.98 65 5.02 5 5.02 5 64.98" style="fill: #fff; fill-rule: evenodd;"/>
      </g>
    </mask>
    <mask id="uuid-b6dead86-c0eb-4f06-8c81-d4be82b8a84d" data-name="mask-6" x="5" y="5.02" width="60" height="59.96" maskUnits="userSpaceOnUse">
      <g id="uuid-b3b6658b-cb88-46fc-be7d-3d94442d39e8" data-name="mask-4">
        <polygon id="uuid-3919eacd-9a71-4458-94f2-9081a4eb2591" data-name="path-3" points="5 64.98 65 64.98 65 5.02 5 5.02 5 64.98" style="fill: #fff; fill-rule: evenodd;"/>
      </g>
    </mask>
    <mask id="uuid-84e75d75-5fbf-4b93-9f2f-225199522e8a" data-name="mask-7" x="5" y="5.02" width="60" height="59.96" maskUnits="userSpaceOnUse">
      <g id="uuid-c3c30236-e8ea-439a-9f20-dfabc3a0571b" data-name="mask-4">
        <polygon id="uuid-c500760a-6e2f-45ed-a285-38a259b05794" data-name="path-3" points="5 64.98 65 64.98 65 5.02 5 5.02 5 64.98" style="fill: #fff; fill-rule: evenodd;"/>
      </g>
    </mask>
    <mask id="uuid-b9538105-b19c-4546-9315-46789131db91" data-name="mask-8" x="5" y="5.02" width="60" height="59.96" maskUnits="userSpaceOnUse">
      <g id="uuid-53226af0-208f-4c70-a66c-b3239df81af2" data-name="mask-4">
        <polygon id="uuid-9b665735-463d-47fd-9d4f-53d613f2f9b1" data-name="path-3" points="5 64.98 65 64.98 65 5.02 5 5.02 5 64.98" style="fill: #fff; fill-rule: evenodd;"/>
      </g>
    </mask>
  </defs>
  <path id="uuid-130a71f4-7867-4ca7-b3a9-a4c13a7ad926" data-name="Fill-1" d="m61.56,41.6h-8.44v-.57c0-2.24-.05-4.5.01-6.74.05-1.51-.85-2.74-2.6-2.61-.8.05-1.59,0-2.39,0h-.99v-8.4c2.73,0,5.4-.05,8.07.03.81.05,1.6.27,2.32.64,2.63,1.3,3.95,3.49,4,6.42.03,1.2,0,6.26,0,8.8v2.43h0Zm-16.2-9.7c-.03,1.76-1.12,2.79-2.9,2.79h-11.59c-.68,0-1.32-.27-1.79-.74s-.74-1.12-.76-1.79c0-3.01.04-6.02-.03-9.02-.03-.39.04-.77.18-1.13.14-.37.35-.69.63-.95.27-.27.6-.48.97-.63.37-.14.74-.2,1.13-.18,3.76.04,7.5,0,11.25,0,1.8,0,2.9,1.02,2.92,2.82.03,2.95.03,5.89,0,8.84h-.03Z" style="fill: #fff; fill-rule: evenodd;"/>
  <path id="uuid-747c79cd-0644-4e29-9f51-6c5959ac3b1c" data-name="Fill-3" d="m58.26,49.96c-.57-.57-1.25-.56-1.83.03-1.62,1.54-3.04,3.27-4.24,5.15-.55.9-1.04,1.83-1.16,2.88-.4,3.63,2.61,6.89,6.34,6.96.63-.12,1.25-.2,1.88-.37,3.39-.98,5.8-5.15,3.68-8.82-1.29-2.14-2.86-4.09-4.66-5.83h-.01Z" style="fill-rule: evenodd;"/>
  <g style="mask: url(#uuid-29bf83ba-b18d-42c9-9b2b-767e9ec9be85);">
    <path id="uuid-330ecbf5-0c47-412f-97c1-91d9052e3740" data-name="Fill-5" d="m61.56,41.6h-8.44v-.57c0-2.24-.05-4.5.01-6.74.05-1.51-.85-2.74-2.6-2.61-.8.05-1.59,0-2.39,0h-.99v-8.4c2.73,0,5.4-.05,8.07.03.81.05,1.6.27,2.32.64,2.63,1.3,3.95,3.49,4,6.42.03,1.2,0,6.26,0,8.8v2.43h0Zm-16.2-9.7c-.03,1.76-1.12,2.79-2.9,2.79h-11.59c-.68,0-1.32-.27-1.79-.74-.47-.47-.74-1.12-.76-1.79,0-3.01.04-6.02-.03-9.02-.03-.39.04-.77.18-1.13.14-.37.35-.69.63-.95.27-.27.6-.48.97-.63.37-.14.74-.2,1.13-.18,3.76.04,7.5,0,11.25,0,1.8,0,2.9,1.02,2.92,2.82.03,2.95.03,5.89,0,8.84h-.03Zm19.57,10.93c-.12-.78-.83-1.11-1.63-1.25v-1.73c0-2.41,0-8.53-.03-10.05-.01-.61-.1-1.21-.27-1.8-.5-1.85-1.58-3.49-3.1-4.67-1.53-1.17-3.39-1.81-5.31-1.83-2.4-.03-4.81,0-7.21,0-.14.03-.29,0-.4-.08-.12-.08-.21-.2-.26-.33-.63-1.4-1.72-2.31-3.26-2.5-1.07-.09-2.15-.13-3.22-.09-.31,0-.44-.1-.43-.43,0-.81.01-1.62,0-2.43,0-.33.1-.46.43-.52.42-.08.81-.25,1.15-.52.33-.27.59-.63.73-1.02.04-.14.14-.27.27-.35.13-.08.29-.1.43-.09h5.2c1.12,0,2.26.04,3.38-.04.78-.08,1.51-.46,2.02-1.06s.76-1.38.7-2.16c-.05-.78-.42-1.5-.99-2.03-.57-.52-1.34-.81-2.13-.78-2.75-.01-5.5,0-8.25,0-.13.03-.27,0-.39-.08-.12-.08-.2-.18-.23-.31-.18-.5-.51-.91-.94-1.2-.43-.3-.94-.44-1.46-.43-1.92-.03-3.85-.01-5.76,0-.5-.01-.99.12-1.41.39-.42.27-.74.65-.94,1.12-.05.18-.18.33-.34.43-.16.09-.35.13-.53.1-2.7-.01-5.4-.01-8.11,0-.5,0-.98.1-1.42.33-.44.22-.82.55-1.11.95s-.47.86-.53,1.34-.01.98.14,1.45c.44,1.25,1.56,2.01,3.06,2.02h8.11c.14-.03.29,0,.4.09.12.08.21.2.25.34.16.4.42.76.74,1.03.34.27.73.46,1.16.53.31.07.39.21.39.51,0,.81-.01,1.63,0,2.44,0,.37-.13.46-.47.44-.78-.03-1.56-.01-2.35,0-1.92.03-3.31.9-4.13,2.63-.04.12-.12.22-.22.3-.1.07-.23.1-.37.09-1.9-.01-3.81-.01-5.72,0-.13.01-.27-.01-.39-.09-.12-.08-.21-.18-.26-.3-.22-.42-.55-.77-.95-1s-.87-.35-1.34-.34c-.47-.01-.93.1-1.33.34-.4.23-.73.57-.94.99-.07.14-.16.26-.3.33-.13.08-.29.1-.43.09H5.86c-.22,0-.43.1-.57.25-.16.16-.25.37-.26.57,0,.22.07.43.2.6.14.17.34.27.55.31.16.01.31.03.47.01h8.69v8.42H5.95c-.12,0-.25,0-.35.04-.12.04-.22.1-.31.18s-.16.18-.21.29c-.05.1-.08.23-.08.35s.03.23.08.35c.05.1.12.21.21.29s.2.14.3.2c.12.04.23.07.35.07h8.71c.26,0,.46,0,.6.31.21.43.53.81.94,1.06.4.25.89.38,1.37.37.48.01.97-.1,1.4-.35.42-.25.76-.63.97-1.06.04-.1.12-.2.22-.25.1-.05.21-.08.33-.07h5.82c.12-.01.25,0,.35.07s.18.16.22.27c.23.53.57,1.03.99,1.43.43.4.93.72,1.47.93.82.31,1.66.31,2.5.29,2.54,0,9.01.03,10.9,0,1.88-.03,3.19-.97,3.98-2.65.04-.12.12-.21.22-.27.1-.07.22-.09.35-.07h3.38c.6,0,.67.08.67.68v7.07c0,.13-.01.27-.03.39-1.28.3-1.73.87-1.73,2.15v1.36c0,.23.03.46.12.68.08.22.21.42.37.57.16.17.35.3.56.39s.44.14.68.14c4,.01,8.01,0,12,0,.78,0,1.53-.48,1.63-1.24.13-.94.12-1.89-.01-2.83l.04-.08Z" style="fill-rule: evenodd;"/>
  </g>
  <path id="uuid-88c57499-bda1-4ed0-8141-db4d891c99dd" data-name="Fill-8" d="m57.34,51.52c-1.75,1.85-3.43,3.65-4.39,5.99-.16.4-.23.85-.21,1.28.04.78.26,1.54.68,2.2.4.67.98,1.21,1.66,1.59.68.38,1.45.59,2.23.59s1.55-.2,2.23-.57c1.92-1.02,2.9-3.38,2.1-5.24-.97-2.27-2.61-4.03-4.32-5.83h.03Zm0,13.46c-3.74-.08-6.74-3.34-6.34-6.96.12-1.06.63-1.98,1.16-2.88,1.2-1.88,2.62-3.61,4.24-5.15.59-.59,1.25-.6,1.83-.03,1.8,1.73,3.36,3.69,4.66,5.83,2.14,3.66-.29,7.85-3.68,8.82-.61.17-1.25.25-1.88.37h.01Z" style="fill-rule: evenodd;"/>
  <g style="mask: url(#uuid-2961574c-ef4e-4c31-a062-6347f76e70a5);">
    <polygon id="uuid-1d3e8452-07cc-4b56-b355-44567b424479" data-name="Fill-10" points="20.34 31.65 26.49 31.65 26.49 23.29 20.34 23.29 20.34 31.65" style="fill: #fff; fill-rule: evenodd;"/>
  </g>
  <g style="mask: url(#uuid-1c1ca676-3fb3-4855-839e-afd1240fd03b);">
    <path id="uuid-640e8243-c996-471b-b105-73abc7641c4b" data-name="Fill-12" d="m36.79,13.42h-2.62c-.77,0-1.08-.31-1.08-1.08v-4.49c0-.76.31-1.07,1.08-1.07h5.33c.73,0,1.06.31,1.06,1.06v4.53c0,.72-.34,1.04-1.07,1.06h-2.7Z" style="fill: #fff; fill-rule: evenodd;"/>
  </g>
  <g style="mask: url(#uuid-876161d6-2668-414e-8aff-ef8055d047d2);">
    <path id="uuid-d1d20f57-65c1-4847-8885-6e3892a91233" data-name="Fill-13" d="m42.34,11.35v-2.3c0-.33.26-.25.46-.25h8.11c.94,0,1.46.53,1.46,1.3s-.57,1.26-1.43,1.28h-8.19c-.12,0-.22-.01-.39-.04h-.01Z" style="fill: #fff; fill-rule: evenodd;"/>
  </g>
  <g style="mask: url(#uuid-5d99c691-4fca-4bd3-838d-0265b152e273);">
    <path id="uuid-b6801587-9d31-4c3c-ac6f-19ec7deaecd8" data-name="Fill-14" d="m31.3,8.83v2.5c-.12.03-.25.04-.37.05h-8.2c-.82,0-1.33-.43-1.41-1.13-.04-.33.04-.64.23-.9.2-.26.47-.44.8-.5.14-.03.27-.04.42-.04h8.15c.1,0,.21,0,.38.03h0Z" style="fill: #fff; fill-rule: evenodd;"/>
  </g>
  <g style="mask: url(#uuid-3299ade8-db36-431a-859e-a8459b7b2d80);">
    <polygon id="uuid-e9307135-0bb8-427d-90fe-579cf6124449" data-name="Fill-15" points="51.39 45.09 63.27 45.09 63.27 43.41 51.39 43.41 51.39 45.09" style="fill: #fff; fill-rule: evenodd;"/>
  </g>
  <g style="mask: url(#uuid-b6dead86-c0eb-4f06-8c81-d4be82b8a84d);">
    <path id="uuid-f5be7232-3493-46d3-a2eb-397f5fb906af" data-name="Fill-16" d="m16.79,27.42v-5.01c0-.22.07-.44.21-.6.14-.17.34-.27.56-.3.21-.01.42.04.59.16s.3.3.35.5c.03.12.04.25.03.37v9.82c0,.63-.35,1.06-.87,1.07-.52,0-.89-.43-.89-1.1.01-1.64.01-3.27.01-4.92h.01Z" style="fill: #fff; fill-rule: evenodd;"/>
  </g>
  <g style="mask: url(#uuid-84e75d75-5fbf-4b93-9f2f-225199522e8a);">
    <path id="uuid-92811acb-c4e7-4a2f-bca4-2597c085dd15" data-name="Fill-17" d="m38.04,15.18v3.06c0,.08-.17.22-.26.22-.63.01-1.25.03-1.86,0-.07-.03-.13-.07-.18-.12-.05-.05-.08-.12-.09-.2-.03-.89-.03-1.77,0-2.66,0-.1.14-.31.22-.31.69-.01,1.41,0,2.18,0" style="fill: #fff; fill-rule: evenodd;"/>
  </g>
  <g style="mask: url(#uuid-b9538105-b19c-4546-9315-46789131db91);">
    <path id="uuid-72fde023-1803-4aa4-bcc4-b05798bb986c" data-name="Fill-18" d="m57.34,51.54c1.72,1.8,3.35,3.56,4.32,5.82.8,1.86-.18,4.23-2.1,5.24-.68.38-1.45.57-2.23.57s-1.55-.2-2.23-.59c-.68-.38-1.25-.93-1.67-1.59-.4-.67-.65-1.42-.68-2.19-.03-.43.05-.87.21-1.28.95-2.32,2.63-4.13,4.38-5.99" style="fill: #fff; fill-rule: evenodd;"/>
  </g>
</svg>