<?xml version="1.0" encoding="UTF-8"?>
<svg id="uuid-c9bb61ab-6776-4bff-ac26-6dd9274973b0" data-name="Niños" xmlns="http://www.w3.org/2000/svg" width="70" height="70" viewBox="0 0 70 70">
  <g>
    <path d="m39.2,14.19c.42-3.86,3.66-6.77,7.54-6.77,1.79,0,3.52.64,4.89,1.8l.32.27-12.79,5.12.04-.41Zm12.9,14.11c1.43,1.43,2.22,3.34,2.22,5.37v20.92h-15.17v-20.92c0-2.02.79-3.93,2.21-5.37,1.43-1.43,3.34-2.22,5.37-2.22s3.93.79,5.37,2.21Zm-5.37-5.71c-3.38,0-6.38-2.28-7.3-5.55l-.07-.26.26-.06c.06-.01.12-.03.18-.05l13.53-5.41.11.2c.58,1.09.88,2.31.88,3.54,0,4.18-3.4,7.58-7.58,7.58Z" style="fill: #fff;"/>
    <path d="m11.2,14.19c.41-3.86,3.65-6.77,7.54-6.77,1.79,0,3.52.64,4.89,1.8l.32.27-12.79,5.12.04-.41Zm.24,2.85l-.07-.26.26-.06c.06-.01.12-.03.18-.05l13.53-5.41.1.2c.58,1.09.88,2.31.88,3.54,0,4.18-3.4,7.58-7.58,7.58-3.38,0-6.39-2.28-7.3-5.55Zm-.29,37.55v-20.92c0-2.02.79-3.92,2.22-5.37,1.43-1.43,3.33-2.22,5.37-2.22s3.93.79,5.37,2.21c1.43,1.43,2.22,3.34,2.22,5.37v20.92h-15.17Z" style="fill: #fff;"/>
  </g>
  <g>
    <path d="m60.69,23.26l-4.69-4.69-.16-.08.07-.21c.38-1.07.58-2.17.58-3.28,0-5.38-4.37-9.75-9.75-9.75s-9.75,4.37-9.75,9.75c0,1.04.17,2.08.51,3.1l.06.19-.24.14c-.07.04-.13.07-.17.11l-4.72,4.72c-.42.42-.42,1.11,0,1.53.41.41,1.12.41,1.53,0l4.55-4.55.17.25c1.12,1.64,2.7,2.89,4.57,3.6l.61.23-.61.23c-1.3.49-2.45,1.24-3.42,2.21-1.83,1.85-2.85,4.3-2.85,6.9v23.08h4v6.92c0,.6.49,1.08,1.08,1.08s1.08-.49,1.08-1.08v-6.92h7.17v6.92c0,.6.49,1.08,1.08,1.08s1.08-.49,1.08-1.08v-6.92h4v-23.08c0-2.61-1.01-5.06-2.85-6.9-.97-.97-2.12-1.71-3.42-2.2l-.61-.23.61-.23c1.78-.68,3.31-1.86,4.42-3.41l.17-.24,4.35,4.35c.41.41,1.12.41,1.53,0,.21-.21.32-.48.32-.77s-.11-.56-.32-.77Zm-21.49-9.07c.42-3.86,3.66-6.77,7.54-6.77,1.79,0,3.52.64,4.89,1.8l.32.27-12.79,5.12.04-.41Zm12.9,14.11c1.43,1.43,2.22,3.34,2.22,5.37v20.92h-15.17v-20.92c0-2.02.79-3.93,2.21-5.37,1.43-1.43,3.34-2.22,5.37-2.22s3.93.79,5.37,2.21Zm-5.37-5.71c-3.38,0-6.38-2.28-7.3-5.55l-.07-.26.26-.06c.06-.01.12-.03.18-.05l13.53-5.41.11.2c.58,1.09.88,2.31.88,3.54,0,4.18-3.4,7.58-7.58,7.58Z"/>
    <path d="m23.41,64.75c.6,0,1.08-.49,1.08-1.08v-6.92h4v-23.08c0-2.61-1.01-5.06-2.85-6.9-.97-.97-2.12-1.71-3.41-2.2l-.61-.23.61-.23c3.75-1.44,6.27-5.1,6.27-9.1,0-5.38-4.37-9.75-9.75-9.75s-9.75,4.37-9.75,9.75c0,4,2.52,7.65,6.27,9.09l.61.23-.61.23c-1.3.49-2.45,1.24-3.42,2.21-1.84,1.85-2.85,4.3-2.85,6.9v23.08h4v6.92c0,.6.49,1.08,1.08,1.08s1.08-.49,1.08-1.08v-6.92h7.17v6.92c0,.6.49,1.08,1.08,1.08ZM11.2,14.19c.41-3.86,3.65-6.77,7.54-6.77,1.79,0,3.52.64,4.89,1.8l.32.27-12.79,5.12.04-.41Zm.24,2.85l-.07-.26.26-.06c.06-.01.12-.03.18-.05l13.53-5.41.1.2c.58,1.09.88,2.31.88,3.54,0,4.18-3.4,7.58-7.58,7.58-3.38,0-6.39-2.28-7.3-5.55Zm-.29,37.55v-20.92c0-2.02.79-3.92,2.22-5.37,1.43-1.43,3.33-2.22,5.37-2.22s3.93.79,5.37,2.21c1.43,1.43,2.22,3.34,2.22,5.37v20.92h-15.17Z"/>
  </g>
</svg>