<?xml version="1.0" encoding="UTF-8"?>
<svg id="uuid-2e2fd598-30e9-472d-a688-5cea74b34880" data-name="Capa 2" xmlns="http://www.w3.org/2000/svg" width="70" height="70" viewBox="0 0 70 70">
  <path d="m12.89,63.82c.01-5.44.02-10.88-.01-16.33,0-.49-.27-1.05-.56-1.46-1.58-2.16-3.23-4.28-4.79-6.45-.36-.5-.63-1.19-.63-1.81-.06-3.27-.03-6.53-.03-9.8.01-2.07.88-2.93,3-2.98.32-.01.63-.06,1.02-.1,0-2.37.06-4.67-.01-6.97-.15-4.64.44-4.93,2.05-4.89,1.72.03,2.13.41,2,4.83-.06,2.34,0,4.69,0,7.03,0,.36.05.7.08,1.02h1.93V9.27c0-1.37.65-2.22,1.75-2.34,1.32-.15,2.25.79,2.25,2.36v16.66h2.01v-13.85c.05-1.28.82-2.13,1.97-2.14,1.19-.03,2.04.85,2.04,2.2v16.77h2.01v-1.6c.01-3.1-.03-6.2.01-9.3.01-1.25.9-2.07,2.05-2.05,1.09.04,1.88.86,1.95,2.05.01.33,0,.67,0,1,0,6.11-.05,12.23.04,18.34.03,1.7-.22,3.23-1.33,4.53-3.2,3.79-4.37,8.13-3.74,13.02.14,1.05.03,2.14.03,3.25h-3.21c-1.88,0-2.82-.93-2.82-2.78v-6.2c1.9-.18,2.01-.29,2.01-2v-5.11c1.22,0,2.29-.05,3.37,0,1.17.05,1.7-.38,1.68-1.6-.05-2.29-.04-4.6,0-6.9.03-1.13-.45-1.56-1.58-1.56-4.32.03-8.63.03-12.95,0-1.13,0-1.61.42-1.59,1.56.04,2.29.05,4.6,0,6.9-.03,1.22.5,1.65,1.66,1.6,1.1-.04,2.22,0,3.37,0v4.85c0,1.32.67,2.1,2.01,2.32,0,2.48-.01,4.98,0,7.49.01,2.22,1.19,3.38,3.43,3.41,1.5.01,3,0,4.64,0v3.66h-15.11Zm7.91-17.75c.54.05,1.4-.28,1.06.95h-1.78c-.33-.81.04-1.01.72-.95Zm-.79-2.09v-1.84h1.87v1.84h-1.87Zm-4.99-4v-5.92h11.91v5.92h-11.91ZM45.15,6.97h17.97v2.86h-17.97v-2.86Zm9.89,40.02h-1.83v-1.9h1.83v1.9Zm4.06-5.88v1.86h-9.94v-1.86h9.94Zm1.91-8.12c-3.71.6-4.71,1.73-4.87,5.52-.01.12-.04.23-.09.53h-3.87c-.03-.51-.06-.91-.06-1.32-.08-2.69-1.7-4.43-4.4-4.7-1.82-.18-2.59-1.02-2.57-2.96h17.95c.1,1.65-.65,2.7-2.09,2.93Zm2.14-5.11h-17.98v-2.86c.6-.04,1.17-.06,1.83-.1v-1.91c-.58-.04-1.15-.08-1.82-.12v-1.96h3.87v-2h-3.91v-1.95c.61-.04,1.22-.09,1.88-.14v-1.87c-.6-.04-1.2-.08-1.87-.13v-2.86h17.99v15.88Z" style="fill: #fff; fill-rule: evenodd;"/>
  <path d="m65.15,7.04c0-1.34-.78-2.15-2.11-2.15-5.94-.03-11.9-.03-17.84,0-1.33.01-2.13.81-2.13,2.14-.03,7.88-.04,15.74.01,23.61.03,2.29,1.7,4.01,3.97,4.34,2.69.38,3.34,1.25,2.89,4.06h-1.2c-1.43.03-1.66.24-1.66,1.7v3.01c-.01.88.42,1.31,1.31,1.31h2.71v2c0,1.83.08,1.92,1.9,2.09l-.03.04c.05.17.1.24.1.32.01,2.27.01,4.52.01,6.79,0,1.75-.12,1.87-1.84,1.87h-19.98c-.4,0-.81-.04-1.29-.06,0-2.95-.04-5.78.03-8.62.01-.67.22-1.4.55-1.97,1.25-2.13,2.61-4.19,3.89-6.3.26-.41.52-.91.52-1.37.04-7.32.08-14.65,0-21.97-.04-2.74-2.54-4.42-5.2-3.68-.23.06-.46.13-.77.22-.12-1.83.32-3.73-1.11-5.19-1.43-1.46-3.12-1.54-4.92-.82-.09-.22-.15-.33-.19-.45-.73-2.1-2.43-3.27-4.37-2.98-2.11.29-3.47,1.93-3.51,4.23v2.14c-4.23-.88-6.03.6-6.03,4.89,0,1.97.04,3.94-.03,5.9-.01.37-.36.92-.68,1.05-2.27.91-3.32,2.36-3.32,4.79-.01,3.47-.04,6.95.03,10.42.01.61.26,1.32.61,1.82,1.47,2.07,3.1,4.06,4.55,6.16.46.67.81,1.58.81,2.37.08,5.02.04,10.05.04,15.07h0v1.32h19.12v-4.97h21.12c2.98,0,3.98-1,3.98-4v-6.98c1.93-.19,2.01-.27,2.01-2.09v-2.01h2.7c.87.01,1.32-.41,1.32-1.29v-3.39c.01-.96-.46-1.37-1.4-1.34h-1.55c-.18-3.07.26-3.61,3.1-4.08,2.2-.37,3.84-2.06,3.85-4.32.05-7.88.03-15.74.01-23.61ZM12.88,63.82c.01-5.44.02-10.88-.01-16.33,0-.49-.27-1.05-.56-1.46-1.58-2.16-3.23-4.28-4.79-6.45-.36-.5-.63-1.19-.63-1.81-.06-3.27-.03-6.53-.03-9.8.01-2.07.88-2.93,3-2.98.32-.01.63-.06,1.02-.1,0-2.37.06-4.67-.01-6.97-.15-4.64.44-4.93,2.05-4.89,1.72.03,2.13.41,2,4.83-.06,2.34,0,4.69,0,7.03,0,.36.05.7.08,1.02h1.93V9.27c0-1.37.65-2.22,1.75-2.34,1.32-.15,2.25.79,2.25,2.36v16.66h2.01v-13.85c.05-1.28.82-2.13,1.97-2.14,1.19-.03,2.04.85,2.04,2.2v16.77h2.01v-1.6c.01-3.1-.03-6.2.01-9.3.01-1.25.9-2.07,2.05-2.05,1.09.04,1.88.86,1.95,2.05.01.33,0,.67,0,1,0,6.11-.05,12.23.04,18.34.03,1.7-.22,3.23-1.33,4.53-3.2,3.79-4.37,8.13-3.74,13.02.14,1.05.03,2.14.03,3.25h-3.21c-1.88,0-2.82-.93-2.82-2.78v-6.2c1.9-.18,2.01-.29,2.01-2v-5.11c1.22,0,2.29-.05,3.37,0,1.17.05,1.7-.38,1.68-1.6-.05-2.29-.04-4.6,0-6.9.03-1.13-.45-1.56-1.58-1.56-4.32.03-8.63.03-12.95,0-1.13,0-1.61.42-1.59,1.56.04,2.29.05,4.6,0,6.9-.03,1.22.5,1.65,1.66,1.6,1.1-.04,2.22,0,3.37,0v4.85c0,1.32.67,2.1,2.01,2.32,0,2.48-.01,4.98,0,7.49.01,2.22,1.19,3.38,3.43,3.41,1.5.01,3,0,4.64,0v3.66h-15.11Zm7.91-17.75c.54.05,1.4-.28,1.06.95h-1.78c-.33-.81.04-1.01.72-.95Zm-.79-2.09v-1.84h1.87v1.84h-1.87Zm-4.99-4v-5.92h11.91v5.92h-11.91ZM45.13,6.97h17.97v2.86h-17.97v-2.86Zm9.89,40.02h-1.83v-1.9h1.83v1.9Zm4.06-5.88v1.86h-9.94v-1.86h9.94Zm1.91-8.12c-3.71.6-4.71,1.73-4.87,5.52-.01.12-.04.23-.09.53h-3.87c-.03-.51-.06-.91-.06-1.32-.08-2.69-1.7-4.43-4.4-4.7-1.82-.18-2.59-1.02-2.57-2.96h17.95c.1,1.65-.65,2.7-2.09,2.93Zm2.14-5.11h-17.98v-2.86c.6-.04,1.17-.06,1.83-.1v-1.91c-.58-.04-1.15-.08-1.82-.12v-1.96h3.87v-2h-3.91v-1.95c.61-.04,1.22-.09,1.88-.14v-1.87c-.6-.04-1.2-.08-1.87-.13v-2.86h17.99v15.88Z" style="fill-rule: evenodd;"/>
</svg>