<?xml version="1.0" encoding="UTF-8"?>
<svg id="uuid-7a26c4e4-fd08-4487-9227-83779cbfffff" data-name="Capa 1" xmlns="http://www.w3.org/2000/svg" width="70" height="70" viewBox="0 0 70 70">
  <g id="uuid-26b967fa-7f63-4ad1-bc92-ed071acbfbf4" data-name="ICONOS">
    <g id="uuid-ab09a118-b11b-4208-9d50-c93637b4d4a4" data-name="ICONOS-OUTLINE">
      <g id="uuid-d400172d-b041-46a2-b244-b3d470fc222e" data-name="Group-19">
        <path id="uuid-1a484c30-fa85-4331-822b-5d56741e8817" data-name="Fill-3" d="m47.88,19.39c.25.19.5.4.73.63.2.24.4.48.58.74.24-.3.36-.44.46-.59.64-.87.63-.98-.23-1.61-.06-.04-.14-.06-.21-.06s-.15,0-.21.04c-.36.28-.69.53-1.12.87h0Zm-28.8,35.1l-4.47-4.52-1.9,1.83,4.47,4.61,1.91-1.92h-.01Zm-10.34-3.53c-.15.09-.29.18-.43.29-.31.3-.6.62-.9.92-.49.5-.49.63,0,1.11l3.63,3.72c1.6,1.62,3.19,3.23,4.79,4.85.38.39.67.39,1.02,0,.35-.39.55-.55.83-.84.49-.5.49-.64,0-1.12-2.82-2.87-5.64-5.72-8.46-8.57-.14-.14-.3-.25-.46-.35h-.01Zm18.44,5.32c0-.57-.39-.92-.73-1.28l-8.81-8.92c-1.29-1.31-2.59-2.63-3.9-3.92-.13-.15-.29-.28-.48-.35-.18-.08-.38-.11-.58-.1-.2,0-.39.06-.57.16s-.33.24-.44.4c-.2.29-.29.64-.25.99s.21.67.48.89l11.16,11.31c.62.63,1.23,1.27,1.89,1.87.2.18.44.29.69.31.25.04.52,0,.75-.11.24-.11.43-.29.57-.52.14-.23.2-.49.19-.74v.03l.03-.03Zm-7.54-17.64c.98.59,1.89,1.03,2.68,1.61,1.08.79,2.12,1.65,3.15,2.54.13.08.24.18.33.31.09.13.14.28.16.43s0,.3-.04.45c-.05.15-.13.28-.24.39-.44.45-.93.41-1.52-.11l-.36-.35c-1.56-1.45-3.34-2.63-5.27-3.49-.09-.04-.18-.06-.28-.06s-.19.03-.28.06c-.55.48-1.06,1.01-1.56,1.48l10.53,10.68c.08-.06.19-.16.29-.26l14.93-15.12,7.62-7.69c.35-.3.6-.69.73-1.13.13-.44.13-.92,0-1.36-.59-2.1-1.7-4.02-3.22-5.58s-3.41-2.69-5.48-3.29c-.33-.13-.68-.16-1.03-.11s-.68.19-.96.4c-.9.74-1.73,1.63-2.64,2.49.39.21.67.36.94.5,1.85.98,3.53,2.24,5.01,3.72.11.09.2.19.28.31.06.13.11.26.13.4,0,.14,0,.28-.05.41-.05.14-.13.25-.23.35-.09.1-.21.19-.34.24-.13.05-.26.09-.4.09s-.28-.03-.4-.09c-.13-.05-.24-.14-.34-.24-.14-.11-.25-.23-.36-.34-1.56-1.46-3.33-2.65-5.25-3.54-.13-.09-.29-.13-.44-.1-.15.03-.29.1-.39.23-1.21,1.24-2.43,2.46-3.67,3.72-.1.1-.19.21-.26.34,1.13.7,2.25,1.33,3.27,2.07.92.69,1.8,1.43,2.63,2.24.1.09.19.19.24.31.06.13.09.25.09.39s-.03.26-.09.39c-.06.13-.14.23-.24.31-.18.18-.43.28-.68.28s-.5-.1-.68-.28c-.11-.1-.23-.2-.34-.3-1.6-1.52-3.43-2.75-5.42-3.67-.11-.08-.26-.1-.39-.08-.14.03-.26.1-.34.23-1.23,1.27-2.48,2.53-3.72,3.78-.08.09-.15.2-.24.33.68.34,1.33.72,1.97,1.13,1.32.98,2.61,2,3.9,3.03.1.06.18.15.24.24.06.1.11.2.13.31.03.11.03.23,0,.34-.03.11-.08.23-.14.31-.25.28-.59.46-.97.5-.23,0-.54-.23-.73-.41-1.38-1.33-2.95-2.45-4.65-3.34-1.28-.67-1.28-.65-2.3.38l-3.33,3.23h.01Zm1.11,17.29l-2.06,2.09c.14.15.3.34.48.52.26.24.48.53.63.84.15.33.23.68.23,1.03s-.08.7-.23,1.03c-.15.33-.36.62-.63.84-.34.34-.67.68-.99,1.01-.23.26-.5.46-.82.62-.31.14-.65.21-.99.21s-.68-.08-.99-.21c-.31-.14-.59-.35-.82-.62-2.88-2.89-5.73-5.79-8.58-8.7-1.18-1.21-1.17-2.56,0-3.8.36-.4.75-.78,1.17-1.14.21-.23.48-.4.77-.52.29-.11.59-.18.9-.18s.62.08.9.2c.29.13.54.31.75.54.23.19.44.41.82.74l1.99-2.24c-.9-.9-1.77-1.78-2.65-2.65-.64-.57-1.03-1.34-1.12-2.19-.09-.85.15-1.7.65-2.38.52-.68,1.26-1.13,2.09-1.28.83-.14,1.68.04,2.39.52l.4.28.53-.52c7.34-7.44,14.75-14.88,22.08-22.4,1.75-1.78,3.67-1.92,5.79-1.09.85.36,1.7.79,2.49,1.27.13.1.28.14.43.14s.3-.08.41-.19c.55-.46,1.14-.9,1.72-1.36.73-.58,1.04-.55,1.76.09.06.06.15.1.3.21.97-1.01,1.94-2,2.94-2.98,2.43-2.48,4.85-4.94,7.28-7.39.14-.19.35-.33.58-.38.23-.05.48,0,.68.1.19.09.35.24.44.43.09.19.1.41.05.62-.1.29-.26.54-.48.74-3.12,3.18-6.25,6.35-9.38,9.51-.24.23-.5.44-.73.63.57.93.54,1.81-.08,2.65-.29.41-.59.82-.93,1.21-.06.06-.13.14-.16.23-.04.09-.06.18-.06.26s0,.19.05.28c.04.09.09.16.15.24.8,1.19,1.34,2.54,1.61,3.95.15.74.11,1.5-.11,2.21-.23.72-.62,1.37-1.14,1.89l-18.15,18.42-4.51,4.57c-.08.09-.15.19-.23.28.29.36.52.79.64,1.24s.16.93.1,1.41c-.06.62-.31,1.21-.7,1.68-.39.48-.92.83-1.51,1.02-.59.23-1.23.28-1.85.13-.62-.14-1.18-.47-1.61-.93-.78-.74-1.53-1.56-2.3-2.32l-.36-.43h-.03Z" style="fill-rule: evenodd;"/>
        <path id="uuid-ea8bc648-fd69-4c65-a8f5-7d3dc7160935" data-name="Fill-5" d="m61.64,17.06h-.2c-.15.31-.33.63-.45.96-.33.85-.68,1.71-.93,2.6-.08.28-.05.58.06.84s.31.48.57.6c.24.18.53.26.82.26s.58-.09.82-.26c.24-.13.44-.34.55-.59.11-.25.14-.54.06-.82-.38-1.22-.87-2.4-1.31-3.59h.01Zm-.21,7.24c-.53.01-1.06-.1-1.53-.34-.48-.24-.89-.59-1.21-1.02s-.53-.94-.6-1.47c-.08-.53-.04-1.08.14-1.58.7-1.91,1.51-3.78,2.4-5.61.06-.18.18-.31.33-.43.15-.11.33-.16.5-.18.18,0,.36.04.52.13.15.09.29.23.36.39,1.07,1.83,1.91,3.81,2.49,5.86.14.52.15,1.06.04,1.57s-.34,1.01-.67,1.42-.75.74-1.23.96c-.48.21-1.01.31-1.53.29h0Z" style="fill-rule: evenodd;"/>
        <path id="uuid-b511c649-ddd1-4d0b-baca-a11969a12f80" data-name="Fill-7" d="m19.62,38.64l3.37-3.34c1.03-1.03,1.03-1.04,2.3-.38,1.7.88,3.25,2.01,4.65,3.34.2.19.52.45.73.41.38-.04.72-.23.97-.5.06-.1.11-.2.14-.31.03-.11.03-.23,0-.34-.03-.11-.06-.23-.13-.31-.06-.1-.15-.18-.24-.24-1.28-1.03-2.56-2.06-3.9-3.03-.64-.41-1.29-.79-1.97-1.13.1-.13.16-.24.24-.33,1.24-1.26,2.49-2.5,3.72-3.78.08-.11.2-.2.34-.23.14-.03.28,0,.39.08,1.99.92,3.82,2.16,5.42,3.67.11.1.23.21.34.3.18.18.43.28.68.28s.5-.1.68-.28c.1-.09.19-.19.24-.31.06-.13.09-.25.09-.39s-.03-.26-.09-.39c-.06-.13-.14-.23-.24-.31-.83-.79-1.71-1.55-2.63-2.24-1.03-.74-2.15-1.37-3.27-2.07l.26-.34c1.21-1.23,2.43-2.45,3.67-3.72.1-.13.24-.2.39-.23.15-.03.31.01.44.1,1.92.89,3.69,2.09,5.25,3.54.11.11.24.23.36.34.09.1.21.19.34.24.13.05.26.09.4.09s.28-.03.4-.09c.13-.05.24-.14.34-.24s.18-.23.23-.35c.05-.14.06-.28.05-.41,0-.14-.05-.28-.13-.4-.06-.13-.16-.23-.28-.31-1.48-1.48-3.17-2.74-5.01-3.72-.28-.14-.55-.3-.94-.5.9-.87,1.73-1.73,2.64-2.49.28-.21.6-.35.96-.4s.7,0,1.03.11c2.07.63,3.96,1.77,5.47,3.34,1.51,1.57,2.6,3.49,3.18,5.61.13.44.13.92,0,1.36-.13.44-.39.84-.73,1.13l-7.59,7.7-14.93,15.12c-.1.1-.21.2-.29.26l-10.53-10.68c.5-.48,1.01-1.01,1.56-1.48.09-.04.18-.06.28-.06s.19.03.28.06c1.94.87,3.71,2.04,5.27,3.49l.36.35c.59.53,1.08.57,1.52.11.11-.11.19-.24.24-.39s.06-.3.04-.45-.08-.3-.16-.43c-.09-.13-.2-.24-.33-.31-1.03-.88-2.07-1.75-3.15-2.54-.82-.55-1.71-1.01-2.69-1.6v.03Z" style="fill: #fff; fill-rule: evenodd;"/>
        <path id="uuid-db10adf0-488d-4254-9886-e0c210d9e96b" data-name="Fill-9" d="m27.16,56.28c0,.26-.06.53-.19.74-.14.23-.33.4-.57.52-.24.11-.49.15-.75.11-.25-.04-.5-.15-.69-.31-.64-.6-1.26-1.24-1.89-1.87l-11.16-11.31c-.26-.23-.44-.55-.48-.89-.04-.35.05-.7.25-.99.11-.16.26-.3.44-.4s.36-.15.57-.16c.2,0,.39.03.58.1.19.08.34.2.48.35,1.32,1.29,2.6,2.61,3.9,3.92l8.81,8.92c.34.35.75.7.73,1.27h-.03Z" style="fill: #fff; fill-rule: evenodd;"/>
        <path id="uuid-1b89e67c-0c5d-4e71-9216-79cc7bbe451a" data-name="Fill-11" d="m8.72,50.96c.18.09.33.2.48.31,2.83,2.85,5.66,5.72,8.46,8.57.46.48.46.63,0,1.12-.28.28-.58.54-.83.84s-.64.39-1.02,0c-1.58-1.62-3.18-3.24-4.79-4.85l-3.63-3.72c-.48-.48-.48-.62,0-1.11.3-.3.59-.62.9-.92.13-.1.28-.19.41-.26h.01Z" style="fill: #fff; fill-rule: evenodd;"/>
        <polygon id="uuid-aae13df9-e682-4bab-b820-20da8951c705" data-name="Fill-13" points="19.07 54.5 17.16 56.42 12.69 51.81 14.58 49.97 19.06 54.5 19.07 54.5" style="fill: #fff; fill-rule: evenodd;"/>
        <path id="uuid-fcaabf93-552e-4a2b-8693-ae98ddb08ef8" data-name="Fill-15" d="m47.88,19.38c.44-.34.73-.63,1.12-.85.06-.03.14-.04.21-.04s.15.03.21.06c.85.64.87.74.23,1.61-.11.15-.23.29-.46.59-.18-.26-.36-.52-.58-.74-.23-.23-.46-.44-.73-.64h0Z" style="fill: #fff; fill-rule: evenodd;"/>
        <path id="uuid-6d76a8e8-0c6d-484a-972a-076641e3e0d3" data-name="Fill-17" d="m61.64,17.06c.44,1.19.93,2.38,1.31,3.58.06.28.05.55-.06.82s-.3.46-.55.59c-.24.18-.53.26-.82.26s-.58-.09-.82-.26c-.25-.13-.45-.34-.57-.6-.11-.26-.14-.55-.06-.84.25-.88.6-1.73.93-2.6.13-.33.29-.64.45-.96h.2-.01Z" style="fill: #fff; fill-rule: evenodd;"/>
      </g>
    </g>
  </g>
</svg>