<?xml version="1.0" encoding="UTF-8"?>
<svg id="uuid-1a3e0541-2239-454f-8bc4-1020f75c9718" data-name="Educacion" xmlns="http://www.w3.org/2000/svg" width="70" height="70" viewBox="0 0 70 70">
  <g id="uuid-6609021c-48c5-4e10-83ea-1e422aa2e19a" data-name="rz5Pid.tif">
    <g>
      <path d="m54.6,5.77c-.32.03-.91.06-1.48.16-2.11.39-3.84,1.44-5.36,2.94-6.81,6.78-13.65,13.55-20.48,20.32-5.82,5.78-11.65,11.55-17.47,17.33-.31.31-.5.66-.6,1.08-.81,3.4-1.62,6.8-2.44,10.2-.39,1.62-.79,3.25-1.18,4.87-.27,1.11.34,1.75,1.44,1.5.64-.14,1.28-.29,1.92-.44,4.43-1.04,8.85-2.09,13.28-3.12.47-.11.86-.32,1.2-.66,4.37-4.35,8.76-8.69,13.13-13.03,8.39-8.33,16.78-16.65,25.16-24.99,2.33-2.32,3.17-5.2,2.57-8.39-.81-4.32-4.48-7.72-9.69-7.76Z" style="fill: #fff;"/>
      <path d="m54.6,5.77c5.21.04,8.88,3.44,9.69,7.76.6,3.19-.24,6.07-2.57,8.39-8.37,8.34-16.77,16.66-25.16,24.99-4.38,4.34-8.76,8.68-13.13,13.03-.34.34-.73.55-1.2.66-4.43,1.04-8.86,2.08-13.28,3.12-.64.15-1.28.3-1.92.44-1.1.25-1.71-.39-1.44-1.5.4-1.62.79-3.25,1.18-4.87.82-3.4,1.63-6.8,2.44-10.2.1-.42.29-.77.6-1.08,5.83-5.77,11.65-11.55,17.47-17.33,6.83-6.77,13.66-13.53,20.48-20.32,1.51-1.51,3.25-2.55,5.36-2.94.57-.11,1.17-.13,1.48-.16Zm-11.77,10.94c-9.89,9.81-19.72,19.57-29.6,29.37.19,0,.33.01.46,0,.86-.09,1.72-.18,2.57-.3.22-.03.46-.14.62-.29.87-.84,1.72-1.7,2.58-2.55,6.96-6.91,13.92-13.82,20.89-20.72.15-.15.33-.28.52-.38.42-.22.86-.11,1.2.27.31.35.36.8.1,1.19-.11.16-.24.3-.37.43-1.34,1.34-2.68,2.67-4.03,4-6.45,6.4-12.91,12.8-19.35,19.21-.18.18-.3.46-.34.71-.14.97-.23,1.95-.34,2.92-.06.57-.11,1.13-.17,1.72.09,0,.15,0,.21,0,1.38-.16,2.76-.34,4.14-.45.54-.04.92-.25,1.3-.63,7.71-7.67,15.43-15.32,23.15-22.98.12-.12.25-.23.39-.32.46-.3.94-.24,1.31.13.38.38.42.87.08,1.33-.13.17-.28.33-.43.48-7.78,7.72-15.56,15.43-23.34,23.15-.13.13-.23.34-.25.53-.09.67-.15,1.35-.22,2.03-.03.31-.08.62-.12.93.03.02.06.03.1.05,9.84-9.76,19.67-19.51,29.44-29.2-3.5-3.55-6.97-7.07-10.49-10.63Zm-26.92,31.27c-.08-.01-.11-.03-.14-.02-1.42.15-2.84.3-4.25.44-.26.03-.37.14-.43.38-.86,3.57-1.72,7.14-2.58,10.72-.02.07,0,.15,0,.3.19-.18.32-.31.46-.44.14-.13.27-.27.42-.39.45-.34,1-.3,1.4.11.35.35.37.93.04,1.34-.13.16-.28.29-.42.44-.12.12-.24.25-.36.37.02.03.03.05.05.08.44-.1.87-.2,1.31-.31,3.25-.77,6.5-1.54,9.75-2.3.24-.05.31-.16.33-.38.15-1.38.31-2.75.47-4.13,0-.08-.02-.16-.03-.24-.08,0-.14-.01-.2,0-1.64.17-3.29.33-4.93.53-1.02.12-1.54-.33-1.44-1.35.09-.94.21-1.88.32-2.81.08-.77.16-1.54.25-2.34Zm44.84-28.23c1.33-1.41,2-4.07,1.36-6.45-.72-2.66-3.18-5.12-6.32-5.4-1.97-.18-3.78.2-5.36,1.41,3.47,3.51,6.88,6.96,10.32,10.43Zm-1.42,1.53c-3.46-3.48-6.96-7-10.45-10.52-.54.53-1.05,1.03-1.5,1.46,3.49,3.54,6.97,7.06,10.47,10.61.56-.58,1.04-1.09,1.48-1.55Zm-3.02,3.06c-3.49-3.52-6.98-7.05-10.43-10.53-.53.51-1.03.99-1.57,1.5,3.52,3.49,7.05,6.97,10.59,10.47.51-.52.98-1,1.41-1.45Z"/>
      <path d="m42.83,16.72c3.52,3.56,6.99,7.08,10.49,10.63-9.76,9.69-19.6,19.44-29.44,29.2-.03-.02-.06-.03-.1-.05.04-.31.09-.62.12-.93.07-.68.13-1.36.22-2.03.03-.19.12-.4.25-.53,7.77-7.72,15.56-15.43,23.34-23.15.15-.15.31-.31.43-.48.33-.46.29-.95-.08-1.33-.37-.37-.84-.43-1.31-.13-.14.09-.27.2-.39.32-7.72,7.66-15.44,15.31-23.15,22.98-.38.38-.76.58-1.3.63-1.38.11-2.76.3-4.14.45-.06,0-.11,0-.21,0,.06-.59.11-1.16.17-1.72.11-.97.2-1.95.34-2.92.04-.25.16-.53.34-.71,6.44-6.41,12.9-12.81,19.35-19.21,1.34-1.33,2.69-2.67,4.03-4,.13-.13.27-.28.37-.43.26-.39.22-.84-.1-1.19-.33-.38-.78-.49-1.2-.27-.19.1-.36.23-.52.38-6.97,6.9-13.93,13.81-20.89,20.72-.86.85-1.71,1.71-2.58,2.55-.16.15-.4.26-.62.29-.85.12-1.71.2-2.57.3-.14.01-.28,0-.46,0,9.88-9.8,19.71-19.56,29.6-29.37Z" style="fill: #fff;"/>
      <path d="m15.91,47.99c-.08.8-.16,1.57-.25,2.34-.1.94-.22,1.87-.32,2.81-.1,1.02.42,1.48,1.44,1.35,1.64-.2,3.29-.36,4.93-.53.06,0,.12,0,.2,0,.01.08.04.16.03.24-.15,1.38-.32,2.75-.47,4.13-.02.22-.1.32-.33.38-3.25.76-6.5,1.53-9.75,2.3-.44.1-.87.2-1.31.31-.02-.03-.03-.05-.05-.08.12-.12.24-.25.36-.37.14-.15.3-.28.42-.44.33-.41.3-.99-.04-1.34-.39-.4-.95-.45-1.4-.11-.15.12-.28.26-.42.39-.14.13-.27.26-.46.44,0-.15-.01-.23,0-.3.86-3.57,1.72-7.14,2.58-10.72.06-.25.17-.36.43-.38,1.42-.14,2.84-.29,4.25-.44.03,0,.07.01.14.02Z" style="fill: #fff;"/>
      <path d="m60.75,19.76c-3.43-3.47-6.85-6.93-10.32-10.43,1.58-1.21,3.39-1.59,5.36-1.41,3.14.28,5.59,2.74,6.32,5.4.64,2.37-.03,5.04-1.36,6.45Z" style="fill: #fff;"/>
      <path d="m59.34,21.29c-.44.46-.92.97-1.48,1.55-3.5-3.55-6.98-7.07-10.47-10.61.45-.44.96-.93,1.5-1.46,3.49,3.52,6.99,7.04,10.45,10.52Z" style="fill: #fff;"/>
      <path d="m56.31,24.35c-.44.45-.9.92-1.41,1.45-3.54-3.5-7.06-6.99-10.59-10.47.53-.51,1.04-1,1.57-1.5,3.45,3.48,6.94,7.01,10.43,10.53Z" style="fill: #fff;"/>
    </g>
  </g>
</svg>