<?xml version="1.0" encoding="UTF-8"?>
<svg id="uuid-b84577e9-2c91-4c1b-a336-3e96f74333dd" data-name="Capa 1" xmlns="http://www.w3.org/2000/svg" width="70" height="70" viewBox="0 0 70 70">
  <g id="uuid-e36dd608-b27a-4bcb-884a-0ffbab6dc853" data-name="Emergencias">
    <g id="uuid-5b90b433-01f7-4bd1-9ad5-977b8067587c" data-name="ICONOS">
      <g id="uuid-f8500d49-4b05-4f3f-b3b1-05b89997d587" data-name="ICONOS-OUTLINE">
        <g id="uuid-ef0a6506-97ed-49df-954e-2b56599ca1e3" data-name="Group-15">
          <path id="uuid-ba976cb7-1ae5-4a2d-b11d-102c3504f8ce" data-name="Fill-3" d="m35.02,58.45c6.28,0,12.55,0,18.83,0,.73,0,1.46-.05,2.18-.17,2-.37,3.66-1.32,4.78-3.08.89-1.4,1.16-2.97,1.16-4.61,0-7.96,0-15.92,0-23.88,0-.56-.03-1.13-.11-1.69-.43-2.79-1.92-4.72-4.6-5.69-1.05-.38-2.13-.48-3.23-.49-2.78-.02-5.56-.02-8.34,0-.4,0-.53-.09-.53-.51.02-1.21-.01-2.43-.01-3.64,0-1.57-1.35-3.14-3.36-3.13-4.44.02-8.87,0-13.31.01-.38-.01-.76.02-1.13.09-1.53.36-2.48,1.6-2.5,3.23-.02,1.16-.02,2.31,0,3.47,0,.35-.09.46-.45.46-1.53-.02-3.06-.02-4.59,0-1.77.02-3.54-.04-5.3.11-2.17.18-3.97,1.16-5.22,3.02-.95,1.42-1.25,3.02-1.25,4.71,0,7.99,0,15.97,0,23.96,0,.55.03,1.1.11,1.64.44,2.81,1.95,4.74,4.63,5.71,1.08.39,2.19.48,3.32.48,6.31,0,12.61.01,18.92,0" style="fill: #fff; fill-rule: evenodd;"/>
          <path id="uuid-07373cbf-0137-4b78-961c-1bfac9091530" data-name="Fill-5" d="m34.97,18.81c2.51,0,5.03,0,7.54,0,.35,0,.46-.11.45-.45-.02-1.11,0-2.23-.01-3.34,0-.97-.33-1.29-1.3-1.29-4.42,0-8.85,0-13.27,0-1,0-1.32.31-1.32,1.31,0,1.09.02,2.17-.01,3.26-.01.4.09.53.51.52,2.48-.02,4.95-.01,7.42-.01h0Zm.03,37.39h18.87c.38,0,.76,0,1.14-.03,1.99-.21,3.62-1.01,4.32-3.03.28-.84.41-1.72.41-2.61.03-7.93.02-15.86.02-23.79,0-.32,0-.65-.04-.97-.18-1.77-.86-3.24-2.52-4.08-1-.5-2.08-.64-3.19-.64-12.66,0-25.33,0-37.99,0-.45,0-.9.02-1.34.08-1.84.27-3.34,1.09-3.97,2.95-.28.88-.43,1.81-.42,2.74-.03,7.87-.02,15.75-.02,23.62,0,.34,0,.68.04,1.02.17,1.77.83,3.25,2.49,4.1,1,.51,2.08.65,3.18.65,6.34,0,12.69-.01,19.04,0h0Zm.02,2.24h-18.91c-1.12,0-2.24-.09-3.32-.48-2.69-.97-4.2-2.91-4.63-5.71-.08-.54-.12-1.09-.11-1.64,0-7.99,0-15.97,0-23.96,0-1.68.3-3.29,1.25-4.71,1.25-1.86,3.05-2.83,5.22-3.02,1.76-.15,3.53-.09,5.3-.11,1.53-.01,3.06-.01,4.59,0,.36,0,.45-.11.45-.46-.02-1.16-.02-2.31,0-3.47.02-1.64.98-2.88,2.5-3.23.37-.07.75-.1,1.13-.09,4.44,0,8.87,0,13.31-.01,2.01,0,3.36,1.55,3.36,3.13,0,1.21.03,2.43.01,3.64,0,.42.13.51.53.51,2.78-.02,5.56-.02,8.34,0,1.09,0,2.18.11,3.23.49,2.67.98,4.16,2.91,4.6,5.69.08.56.12,1.12.11,1.69,0,7.96,0,15.92,0,23.88,0,1.64-.27,3.2-1.16,4.61-1.12,1.76-2.78,2.71-4.78,3.08-.72.12-1.45.18-2.18.17-6.28.01-12.56.01-18.83,0h0Z" style="fill-rule: evenodd;"/>
          <path id="uuid-f39cc764-23cf-41df-9ebb-70b118e4ae64" data-name="Fill-7" d="m39.92,43.26h.52c1.29,0,2.58,0,3.88,0,1.1,0,1.77-.65,1.78-1.76.02-2.12.02-4.23,0-6.35,0-1.11-.67-1.75-1.78-1.76-1.29,0-2.58,0-3.88,0h-.51v-.55c0-1.25,0-2.51,0-3.77,0-1.25-.66-1.91-1.9-1.91-2.01,0-4.02,0-6.02,0-1.27,0-1.92.65-1.93,1.93,0,1.26,0,2.51,0,3.77,0,.16-.02.33-.03.52h-.51c-1.26,0-2.53,0-3.79,0-1.19,0-1.83.63-1.84,1.82-.01,2.07-.01,4.15,0,6.22,0,1.19.65,1.83,1.83,1.83,1.28,0,2.55,0,3.83,0h.51v.55c0,1.28-.01,2.57,0,3.85.02,1.15.69,1.81,1.83,1.81,2.05,0,4.1,0,6.15,0,1.18,0,1.84-.68,1.85-1.87,0-1.24,0-2.48,0-3.72v-.62Zm-4.91,12.95H15.96c-1.11,0-2.19-.13-3.18-.65-1.65-.85-2.32-2.33-2.49-4.1-.03-.34-.04-.68-.04-1.02,0-7.87-.02-15.75.02-23.62,0-.93.14-1.85.42-2.74.63-1.86,2.13-2.67,3.97-2.95.44-.06.89-.09,1.34-.08,12.66,0,25.33,0,37.99,0,1.11,0,2.19.14,3.19.65,1.66.83,2.34,2.3,2.52,4.08.03.32.04.65.04.97,0,7.93.01,15.86-.02,23.79,0,.89-.13,1.77-.41,2.61-.69,2.02-2.33,2.82-4.32,3.03-.38.03-.76.04-1.14.03-6.29,0-12.57,0-18.87,0h0Z" style="fill: #fff; fill-rule: evenodd;"/>
          <path id="uuid-950c8987-6a0f-4aec-8bd8-99e5851a70ef" data-name="Fill-9" d="m34.98,18.81c-2.47,0-4.94-.01-7.41,0-.41,0-.52-.12-.51-.52.03-1.09,0-2.17.01-3.26,0-1,.32-1.31,1.32-1.31,4.42,0,8.85,0,13.27,0,.97,0,1.29.32,1.3,1.29.01,1.11,0,2.23.01,3.34,0,.35-.1.46-.45.46-2.51-.01-5.03,0-7.54,0" style="fill: #fff; fill-rule: evenodd;"/>
          <path id="uuid-82bfc113-0ee0-4292-9f3d-6c98c97183db" data-name="Fill-11" d="m26.16,41.02h4.72c1.02,0,1.43.41,1.44,1.43,0,1.44.01,2.88,0,4.32,0,.36.08.49.47.49,1.49-.02,2.98-.02,4.47,0,.38,0,.48-.12.47-.49-.02-1.45-.01-2.91,0-4.36,0-.97.42-1.39,1.39-1.39h4.3c.15,0,.3-.01.45-.02v-5.4h-4.7c-1.06,0-1.45-.4-1.45-1.46v-4.23c0-.16-.02-.33-.03-.52-1.68,0-3.3,0-4.93,0-.34,0-.43.11-.42.43.01,1.45,0,2.91,0,4.36,0,1.03-.41,1.44-1.43,1.44h-4.72v5.4Zm13.76,2.23v.62c0,1.24,0,2.48,0,3.73,0,1.2-.67,1.87-1.85,1.87-2.05,0-4.1,0-6.15,0-1.14,0-1.81-.66-1.83-1.81-.02-1.28,0-2.57,0-3.85v-.55h-4.34c-1.18,0-1.82-.64-1.83-1.83-.01-2.07-.01-4.15,0-6.22,0-1.19.65-1.81,1.84-1.82,1.26,0,2.53,0,3.79,0h.51c.01-.2.03-.36.03-.53v-3.77c0-1.28.65-1.92,1.93-1.93h6.02c1.23,0,1.89.66,1.9,1.91,0,1.25,0,2.51,0,3.77v.54h.51c1.29,0,2.58,0,3.88,0,1.09,0,1.77.65,1.78,1.76.02,2.11.02,4.23,0,6.35,0,1.11-.67,1.75-1.78,1.76-1.29,0-2.58,0-3.88,0h-.51Z" style="fill-rule: evenodd;"/>
          <path id="uuid-7f27dffd-c9d5-4ee5-8993-3f2d584378bd" data-name="Fill-13" d="m26.16,41.02v-5.4h4.72c1.02,0,1.43-.41,1.43-1.44,0-1.45.01-2.91,0-4.36,0-.33.08-.44.42-.43,1.63.02,3.25,0,4.93,0,.01.19.03.35.03.52v4.23c0,1.06.39,1.46,1.45,1.46h4.7v5.39c-.15,0-.3.02-.45.02h-4.3c-.97,0-1.39.42-1.39,1.39,0,1.45-.01,2.91,0,4.36,0,.36-.09.49-.47.49-1.49-.02-2.97-.02-4.47,0-.38,0-.47-.13-.47-.49.02-1.44,0-2.88,0-4.32,0-1.02-.42-1.43-1.44-1.43h-4.72,0Z" style="fill: #fff; fill-rule: evenodd;"/>
        </g>
      </g>
    </g>
  </g>
</svg>