<svg xmlns="http://www.w3.org/2000/svg" viewBox="0 0 96.93 109.96"><defs><style>.cls-1{fill:#fff;}.cls-2{fill:#939598;}.cls-3{fill:none;}.cls-4{fill:gray;}</style></defs><title>clipboardTopAsset 3</title><g id="Layer_2" data-name="Layer 2"><g id="Layer_1-2" data-name="Layer 1"><path class="cls-1" d="M90.17,39.59a107.69,107.69,0,0,1-4.72,20A83.26,83.26,0,0,1,70,87a73.87,73.87,0,0,1-8.49,8.39,67.33,67.33,0,0,1-7.5,5.48,54.5,54.5,0,0,1-5.56,3.06,53.75,53.75,0,0,1-5.08-2.78,66.55,66.55,0,0,1-7.49-5.36,74.6,74.6,0,0,1-8.56-8.32A82.94,82.94,0,0,1,11.63,60,107.66,107.66,0,0,1,6.8,39.85,137.51,137.51,0,0,1,5.51,19.17c2.8-.45,6.67-1.16,11.26-2.23,5.49-1.28,10.88-2.82,16-4.56A143,143,0,0,0,48.47,6.06a142.79,142.79,0,0,0,15.66,6.32c5.15,1.74,10.55,3.28,16,4.56,4.58,1.07,8.46,1.78,11.25,2.23A138.37,138.37,0,0,1,90.17,39.59Z"/><path class="cls-2" d="M96.81,14.45S71.87,11.81,48.47,0C25.06,11.81.12,14.45.12,14.45-2.82,91.59,48.47,110,48.47,110S99.75,91.59,96.81,14.45ZM90.17,39.66a107.69,107.69,0,0,1-4.72,20A83.26,83.26,0,0,1,70,87a73.87,73.87,0,0,1-8.49,8.39,67.33,67.33,0,0,1-7.5,5.48A54.5,54.5,0,0,1,48.46,104a53.75,53.75,0,0,1-5.08-2.78,66.55,66.55,0,0,1-7.49-5.36,74.6,74.6,0,0,1-8.56-8.32A82.94,82.94,0,0,1,11.63,60.1,107.66,107.66,0,0,1,6.8,39.92,137.51,137.51,0,0,1,5.51,19.24c2.8-.45,6.67-1.16,11.26-2.23,5.49-1.28,10.88-2.82,16-4.56A143,143,0,0,0,48.47,6.13a142.79,142.79,0,0,0,15.66,6.32c5.15,1.74,10.55,3.28,16,4.56,4.58,1.07,8.46,1.78,11.25,2.23A138.37,138.37,0,0,1,90.17,39.66Z"/><path class="cls-3" d="M45.37,34.33a23.14,23.14,0,0,1,6.85-1.14A1.46,1.46,0,0,1,52.89,36a1.33,1.33,0,0,1-.63.15,20.26,20.26,0,0,0-6,1,1.46,1.46,0,0,1-.91-2.78Z"/><path class="cls-3" d="M54.07,55.73a1.66,1.66,0,1,0-3,1.47l2.55,5.18a31,31,0,0,1,3.19,12.84l3.59.61A34.32,34.32,0,0,0,56.9,61.47Z"/><path class="cls-3" d="M35.28,25.15v0h0Z"/><path class="cls-3" d="M59.83,27.88a27.39,27.39,0,0,1,2.92.91"/><path class="cls-3" d="M0,0V110H96.93V0Z"/><path class="cls-3" d="M53.9,74.73A28.17,28.17,0,0,0,51,63.67l-2.55-5.18a4.58,4.58,0,1,1,8.21-4.05l2.83,5.74a37.28,37.28,0,0,1,3.84,16.14l3.32.56a40.62,40.62,0,0,0-4.19-18.16L59.66,53a7.89,7.89,0,0,0-14.15,7l2.55,5.19a24.91,24.91,0,0,1,2.53,10"/><path class="cls-4" d="M50.28,93h.93l-.16-2.76L50.28,93Z"/><path class="cls-4" d="M56.69,54.44a4.58,4.58,0,1,0-8.21,4.05L51,63.67A28.17,28.17,0,0,1,53.9,74.73l2.94.49a31,31,0,0,0-3.19-12.84L51.1,57.2a1.66,1.66,0,1,1,3-1.47l2.83,5.74a34.32,34.32,0,0,1,3.53,14.36l2.93.49a37.28,37.28,0,0,0-3.84-16.14Z"/><path class="cls-4" d="M62.28,51.68a10.81,10.81,0,0,0-19.39,9.56l2.55,5.19a21.87,21.87,0,0,1,2.19,8.1c.56.23.93.87.93,2.37l-.7,12.47,1.84-6.51a25.7,25.7,0,0,0,.72-3.76l-.12-2.2a4.07,4.07,0,0,1,.29-1.72,24.91,24.91,0,0,0-2.53-10L45.51,60a7.89,7.89,0,0,1,14.15-7l2.83,5.75a40.62,40.62,0,0,1,4.19,18.16l2.12.36S67,73,67,71.45c0-.81.69-1.74,1.81-2.83a43.94,43.94,0,0,0-3.74-11.2Z"/><path class="cls-4" d="M39.92,62.71A14.11,14.11,0,0,1,60,44.44c.08-.9.21-2,.38-3.12A16.94,16.94,0,0,0,39,46.25c0,.7-.15,1.15-.38,1.26a.75.75,0,0,1-.47,0A17,17,0,0,0,37.3,64l2.55,5.19a15.56,15.56,0,0,1,1.59,6.13l2.9-.49a18.68,18.68,0,0,0-1.87-6.94Z"/><path class="cls-4" d="M67.87,48.92a17.15,17.15,0,0,0-3.25-4.5,28.6,28.6,0,0,1-2.13,2,14,14,0,0,1,2.76,3.8L68.08,56a46.86,46.86,0,0,1,3.63,10.16l2.49-2.06a50.65,50.65,0,0,0-3.5-9.39Z"/><path class="cls-4" d="M41.44,37.65a1.46,1.46,0,0,0-2-.38c-.48.33-.93.68-1.38,1,.21,1.18.4,2.33.55,3.4a19.42,19.42,0,0,1,2.48-2A1.45,1.45,0,0,0,41.44,37.65Z"/><path class="cls-4" d="M31.71,66.76a1.46,1.46,0,0,0,2.62-1.29,20.31,20.31,0,0,1-1.41-14.23,20.8,20.8,0,0,1,2.49-5.66c-.67-.63-1.38-1.37-2.1-2.13a23.25,23.25,0,0,0-1.6,23.31Z"/><path class="cls-4" d="M34.93,70a1.46,1.46,0,0,0-.67,2,9.39,9.39,0,0,1,1,4.43l2.92-.49a12.43,12.43,0,0,0-1.27-5.23A1.45,1.45,0,0,0,34.93,70Z"/><path class="cls-4" d="M79.21,59a56.2,56.2,0,0,0-2.92-7.11l-2.83-5.74a23.18,23.18,0,0,0-4.67-6.39c-.57.68-1.23,1.44-1.92,2.22a20.3,20.3,0,0,1,4,5.46l2.83,5.74A53.46,53.46,0,0,1,76.44,60a1.46,1.46,0,0,0,1.39,1c.49-.42,1-.8,1.41-1.17A1.38,1.38,0,0,0,79.21,59Z"/><path class="cls-4" d="M57.07,35.07a1.45,1.45,0,0,0,1,1.8,21.21,21.21,0,0,1,2.82,1.06c.18-1,.36-2,.56-3a25.55,25.55,0,0,0-2.59-.9A1.46,1.46,0,0,0,57.07,35.07Z"/><path class="cls-4" d="M46.28,37.11a20.26,20.26,0,0,1,6-1,1.33,1.33,0,0,0,.63-.15,1.46,1.46,0,0,0-.67-2.77,23.14,23.14,0,0,0-6.85,1.14,1.46,1.46,0,0,0,.91,2.78Z"/><path class="cls-4" d="M38.08,30.77a1.46,1.46,0,1,0,1.43,2.54c.43-.24.87-.47,1.31-.69a26.5,26.5,0,0,1,21.31-.95c.22-1.05.43-2,.62-2.88a27.39,27.39,0,0,0-2.92-.91c-1.28.77-2.56,1.36-3.29,1.13-.41-.13-1-.88-1.64-2a29.38,29.38,0,0,0-12,1.55,1.49,1.49,0,0,1-.53.4,1.47,1.47,0,0,1-.6,0c-.73.3-1.47.61-2.19,1C39,30.24,38.55,30.5,38.08,30.77Z"/><path class="cls-4" d="M79.26,50.44a1.45,1.45,0,0,0,1.77.74c.14-.74.35-1.61.6-2.54l-2.58-5.23c-.14-.28-.29-.56-.44-.83a17.31,17.31,0,0,1-3,.61c.28.49.56,1,.82,1.51Z"/><path class="cls-4" d="M27.36,44.14a1.44,1.44,0,0,0,1.35,0,1.46,1.46,0,0,0,.63-.6A27.11,27.11,0,0,1,31,40.92c-.75-.86-1.42-1.67-1.94-2.3a29.83,29.83,0,0,0-2.32,3.53A1.46,1.46,0,0,0,27.36,44.14Z"/><path class="cls-4" d="M27.18,48.67a1.46,1.46,0,0,0-2.8-.85,29.48,29.48,0,0,0-.47,15.61c1.55,1.31,3,2.48,4.25,3.53A26.41,26.41,0,0,1,27.18,48.67Z"/><path class="cls-4" d="M31.38,73.62c-.52,1.73-1.32,3.62-1.32,3.62l1.79-.3A6.11,6.11,0,0,0,31.38,73.62Z"/><path class="cls-4" d="M46.71,22.65a1.46,1.46,0,0,0,1.64,1.26,32.67,32.67,0,0,1,4.74-.25c-.47-1-.93-2-1.36-2.9A36.53,36.53,0,0,0,48,21,1.45,1.45,0,0,0,46.71,22.65Z"/><path class="cls-4" d="M35.31,25.17h0c0,.14.3,1.28.68,3,.63-.37,1.26-.72,1.91-1.05C36.54,26.2,35.43,25.27,35.31,25.17Z"/><path class="cls-4" d="M21.75,45.26c.26-.73.56-1.44.87-2.14a26.44,26.44,0,0,1-2.89-.69c-.26.61-.5,1.22-.73,1.84a37.4,37.4,0,0,0-1.5,5.43,14.89,14.89,0,0,1,.53,3,2.1,2.1,0,0,1-1.14,1.91c-.05,1-.06,1.94,0,2.91.84.66,1.9,1.5,3.11,2.5A32.87,32.87,0,0,1,21.75,45.26Z"/><path class="cls-4" d="M49.62,15.85s-.08-.17-.19-.17-.19.17-.19.17-.28.69-.73,1.75c.59-.06,1.19-.11,1.78-.14Z"/><path class="cls-4" d="M14.86,40.92s.38,1.12.87,2.67c.25-.71.53-1.42.81-2.11Z"/></g></g></svg>