<?xml version="1.0" encoding="utf-8"?>
<!-- Generator: Adobe Illustrator 22.1.0, SVG Export Plug-In . SVG Version: 6.00 Build 0)  -->
<svg version="1.1" id="Layer_1" xmlns="http://www.w3.org/2000/svg" xmlns:xlink="http://www.w3.org/1999/xlink" x="0px" y="0px"
	 viewBox="0 0 42 42" style="enable-background:new 0 0 42 42;" xml:space="preserve">
<style type="text/css">
	.st0{fill:#737373;}
</style>
<title>icon_creditReports</title>
<path class="st0" d="M34.2,13.6H7.4v4.3h26.8V13.6z M34.2,20.8H7.4v4.3h26.8V20.8z M34.2,28H7.4v4.3h26.8V28z M40.6,1.6
	C40.3,1.2,39.8,1,39.4,1H2.7C2.2,1,1.8,1.2,1.5,1.6C1.2,1.9,1,2.3,1,2.8v36.4c0,0.5,0.1,0.9,0.4,1.2C1.7,40.8,2.2,41,2.7,41h36.7
	c0.5,0,0.9-0.2,1.2-0.6c0.3-0.3,0.5-0.8,0.4-1.2V2.8C41,2.4,40.9,1.9,40.6,1.6z M14.9,3.2c0.7,0,1.3,0.6,1.3,1.3s-0.6,1.3-1.3,1.3
	s-1.3-0.6-1.3-1.3S14.2,3.2,14.9,3.2z M9.9,3.2c0.7,0,1.3,0.6,1.3,1.3s-0.6,1.3-1.3,1.3S8.7,5.2,8.7,4.5S9.2,3.2,9.9,3.2z M3.6,4.5
	c0-0.7,0.6-1.3,1.3-1.3s1.3,0.6,1.3,1.3S5.5,5.7,4.8,5.7S3.6,5.2,3.6,4.5z M37.8,37.3H4.2V9.2h33.6V37.3z"/>
</svg>
