<?xml version="1.0" encoding="UTF-8"?>
<svg width="115px" height="60px" viewBox="0 0 115 60" version="1.1" xmlns="http://www.w3.org/2000/svg" xmlns:xlink="http://www.w3.org/1999/xlink">
    <!-- Generator: Sketch 52.6 (67491) - http://www.bohemiancoding.com/sketch -->
    <title>logo-alt</title>
    <desc>Created with Sketch.</desc>
    <g id="Page-1" stroke="none" stroke-width="1" fill="none" fill-rule="evenodd">
        <g id="Artboard" transform="translate(-39.000000, -334.000000)">
            <g id="logo-alt" transform="translate(39.000000, 334.000000)">
                <path d="M0.193418647,1.24014085 L14.6073126,1.24014085 C30.3162706,1.24014085 34.935192,12.0739437 34.935192,23.2774648 C34.935192,35.7823944 28.5902194,45.4373239 14.4853748,45.4373239 L0.189213894,45.4373239 L0.193418647,1.24014085 Z M2.90338208,43.0859155 L14.7313528,43.0859155 C22.9306216,43.0859155 32.2252285,38.5669014 32.2252285,23.2774648 C32.2252285,5.20352113 20.7063071,3.5915493 14.1763254,3.5915493 L2.90338208,3.5915493 L2.90338208,43.0859155 Z" id="Shape" fill="#C95E38" fill-rule="nonzero"></path>
                <path d="M41.2801645,1.24014085 L55.6940585,1.24014085 C71.4030165,1.24014085 76.0219378,12.0739437 76.0219378,23.2774648 C76.0219378,35.7823944 69.6769653,45.4373239 55.5700183,45.4373239 L41.2738574,45.4373239 L41.2801645,1.24014085 Z M43.990128,43.0859155 L55.8180987,43.0859155 C64.0173675,43.0859155 73.3119744,38.5669014 73.3119744,23.2774648 C73.3119744,5.20352113 61.793053,3.59366197 55.2630713,3.59366197 L43.990128,3.59366197 L43.990128,43.0859155 Z" id="Shape" fill="#C95E38" fill-rule="nonzero"></path>
                <path d="M111.072761,13.8697183 C110.763711,6.31690141 105.095704,2.53521127 96.9658135,2.53521127 C91.9768739,2.53521127 84.8918647,4.64788732 84.8918647,11.9429577 C84.8918647,19.0626761 92.4078611,20.2373239 99.8607861,21.7859155 C107.376782,23.3323944 114.890676,25.2528169 114.890676,34.0394366 C114.890676,43.2021127 106.14479,46.4830986 99.4297989,46.4830986 C89.1428702,46.4830986 80.7648995,42.2112676 80.8889397,30.821831 L83.5989031,30.821831 C83.0438757,40.4788732 90.7469835,44.1316901 99.4297989,44.1316901 C104.727788,44.1316901 112.180713,41.7169014 112.180713,34.0415493 C112.180713,26.5521127 104.664717,25.2528169 97.1508227,23.7042254 C89.6957952,22.1577465 82.1819013,20.3619718 82.1819013,11.9429577 C82.1819013,3.46267606 90.0048446,0.181690141 96.9658135,0.181690141 C106.14479,0.181690141 113.351737,4.14295775 113.784826,13.8633803 L111.072761,13.8697183 Z" id="Path" fill="#C95E38"></path>
                <path d="M1.27824497,49.2908451 L3.99451554,49.2908451 C6.93784278,49.2908451 7.80822669,51.3232394 7.80822669,53.4274648 C7.80822669,55.7746479 6.61828154,57.5852113 3.96928702,57.5852113 L1.27824497,57.5852113 L1.27824497,49.2908451 Z M1.78702011,57.1457746 L4.00502742,57.1457746 C5.54396709,57.1457746 7.28893967,56.3007042 7.28893967,53.4274648 C7.28893967,50.034507 5.12769653,49.7323944 3.90201097,49.7323944 L1.78702011,49.7323944 L1.78702011,57.1457746 Z" id="Shape" fill="#231F20" fill-rule="nonzero"></path>
                <path d="M9.08226691,54.6591549 C9.05914077,56.0640845 9.79917733,57.3422535 11.2666362,57.3422535 C12.3266057,57.3905272 13.2487144,56.6195597 13.3942413,55.5633803 L13.833638,55.5633803 C13.6023766,56.9577465 12.6773309,57.7246479 11.2666362,57.7246479 C9.53427788,57.7246479 8.61974406,56.3535211 8.6428702,54.7035211 C8.61974406,53.0640845 9.48382084,51.4732394 11.2666362,51.4732394 C13.1293419,51.4732394 13.961883,52.9521127 13.8798903,54.6570423 L9.08226691,54.6591549 Z M13.4404936,54.2746479 C13.4173675,53.0197183 12.6310786,51.8577465 11.2666362,51.8577465 C9.95054845,51.8577465 9.1642596,53.0894366 9.08226691,54.2746479 L13.4404936,54.2746479 Z" id="Shape" fill="#231F20" fill-rule="nonzero"></path>
                <path d="M15.1181901,55.5992958 C15.1875686,56.7042254 16.0095978,57.3422535 17.0839122,57.3422535 C17.8575868,57.3422535 18.9760512,57.1098592 18.9760512,56.0746479 C18.9760512,55.0394366 17.9585009,54.9126761 16.9409506,54.7035211 C15.9234004,54.4943662 14.8953382,54.2260563 14.8953382,53.0133803 C14.8953382,51.828169 16.0411335,51.4795775 17.0460695,51.4795775 C18.3074954,51.4795775 19.243053,52.0246479 19.243053,53.3809859 L18.7952468,53.3809859 C18.7826325,52.2992958 18.0320841,51.8577465 17.03766,51.8577465 C16.228245,51.8577465 15.3263254,52.1598592 15.3263254,53.0091549 C15.3263254,53.9619718 16.3438757,54.1119718 17.3025594,54.3211268 C18.4819927,54.5429577 19.404936,54.821831 19.404936,56.0767606 C19.404936,57.365493 18.1224863,57.7267606 17.0923218,57.7267606 C15.7404936,57.7267606 14.7229433,56.993662 14.6872029,55.5992958 L15.1181901,55.5992958 Z" id="Path" fill="#231F20"></path>
                <path d="M20.5759598,50.4929577 L20.5759598,49.2971831 L21.4715722,49.2971831 L21.4715722,50.4929577 L20.5759598,50.4929577 Z M20.5759598,57.5915493 L20.5759598,51.6147887 L21.4715722,51.6147887 L21.4715722,57.5852113 L20.5759598,57.5915493 Z" id="Shape" fill="#231F20" fill-rule="nonzero"></path>
                <path d="M27.3308958,51.6147887 L27.3308958,57.2725352 C27.3308958,57.7373239 27.3308958,59.9450704 24.763894,59.8626761 C23.4919561,59.8626761 22.5101463,59.3873239 22.4512797,58.0035211 L22.8906764,58.0035211 C22.9810786,59.0598592 23.8136197,59.4823944 24.7828154,59.4823944 C26.8641682,59.4823944 26.8999086,57.7732394 26.8999086,57.3697183 L26.8999086,56.0070423 L26.8767824,56.0070423 C26.5110476,56.8655028 25.654425,57.406565 24.7260512,57.365493 C22.9789762,57.365493 22.1590494,56.0767606 22.1590494,54.4077465 C22.1590494,52.8274648 23.0483547,51.4690141 24.7260512,51.4690141 C25.6510969,51.4690141 26.5530165,51.9570423 26.8767824,52.8507042 L26.8999086,52.8507042 L26.8999086,51.6084507 L27.3308958,51.6147887 Z M22.5900366,54.4140845 C22.5900366,55.8211268 23.3195612,56.9830986 24.7176417,56.9830986 C26.1619744,56.9830986 26.8788848,55.7619718 26.8788848,54.4140845 C26.8788848,53.0661972 26.1745887,51.8577465 24.7176417,51.8577465 C23.2606947,51.8577465 22.5879342,53.1485915 22.5879342,54.4140845 L22.5900366,54.4140845 Z" id="Shape" fill="#231F20" fill-rule="nonzero"></path>
                <path d="M28.6238574,51.6147887 L29.0632541,51.6147887 L29.0632541,52.8929577 L29.0863803,52.8929577 C29.3870201,51.9971831 30.2889397,51.4753521 31.2139854,51.4753521 C33.3058501,51.4753521 33.3289762,53.165493 33.3289762,53.8922535 L33.3289762,57.5852113 L32.8895795,57.5852113 L32.8895795,53.8098592 C32.8895795,53.1950704 32.8202011,51.8577465 31.2076782,51.8577465 C29.8789762,51.8577465 29.0695612,52.8929577 29.0695612,54.3570423 L29.0695612,57.5852113 L28.6301645,57.5852113 L28.6238574,51.6147887 Z" id="Path" fill="#231F20"></path>
                <path d="M42.4869287,56.3556338 C42.0060063,57.2023063 41.1108138,57.725448 40.1406764,57.7267606 C38.7636197,57.7267606 37.6893053,57.0169014 37.6893053,55.6140845 C37.6893053,54.2535211 38.8918647,53.615493 39.8400366,53.0112676 C39.3312614,52.3774648 38.7173675,51.7330986 38.7173675,50.8605634 C38.7173675,49.9880282 39.5961609,49.4323944 40.4518282,49.4323944 C41.3537477,49.4323944 42.1862888,49.9309859 42.1862888,50.8605634 C42.1862888,52.0457746 41.2843693,52.5338028 40.4749543,53.1274648 L42.4406764,55.5633803 C42.6146791,55.1232053 42.708673,54.6552267 42.7181901,54.1816901 L43.1575868,54.1816901 C43.1198631,54.7863052 42.9775762,55.3796888 42.7371115,55.9352113 L44.0784278,57.5957746 L43.4897623,57.5957746 L42.4869287,56.3556338 Z M40.071298,53.334507 C39.2156307,53.8922535 38.128702,54.4373239 38.128702,55.6119718 C38.128702,56.7042254 39.133638,57.3422535 40.1406764,57.3422535 C41.0245584,57.3181687 41.820056,56.7972149 42.1989031,55.9943662 L40.071298,53.334507 Z M41.7531993,50.8584507 C41.7531993,50.2246479 41.0951554,49.8126761 40.4581353,49.8126761 C39.8211152,49.8126761 39.1630713,50.2352113 39.1630713,50.8584507 C39.1630713,51.6612676 39.8568556,52.2422535 40.2268739,52.8 C40.8912249,52.3584507 41.7468921,51.8112676 41.7468921,50.8584507 L41.7531993,50.8584507 Z" id="Shape" fill="#231F20" fill-rule="nonzero"></path>
                <path d="M47.9909506,49.2908451 L50.6967093,49.2908451 C53.6400366,49.2908451 54.5125229,51.3232394 54.5125229,53.4274648 C54.5125229,55.7746479 53.3225777,57.5852113 50.6735832,57.5852113 L47.9909506,57.5852113 L47.9909506,49.2908451 Z M48.4997258,57.1457746 L50.7198355,57.1457746 C52.2587751,57.1457746 54.0037477,56.3007042 54.0037477,53.4274648 C54.0037477,50.034507 51.8425046,49.7323944 50.616819,49.7323944 L48.4997258,49.7323944 L48.4997258,57.1457746 Z" id="Shape" fill="#231F20" fill-rule="nonzero"></path>
                <path d="M55.7276965,50.4929577 L55.7276965,49.2971831 L56.6064899,49.2971831 L56.6064899,50.4929577 L55.7276965,50.4929577 Z M55.7276965,57.5915493 L55.7276965,51.6147887 L56.6064899,51.6147887 L56.6064899,57.5852113 L55.7276965,57.5915493 Z" id="Shape" fill="#231F20" fill-rule="nonzero"></path>
                <path d="M58.0045704,52.9394366 L58.0403108,52.9394366 C58.2715722,52.1598592 59.2428702,51.5323944 60.3171846,51.5788732 L60.3171846,52.0204225 C59.7106149,51.9547525 59.1070358,52.1683216 58.6752285,52.6014085 C58.2358318,53.0556338 58.0445155,53.4274648 58.0045704,54.3211268 L58.0045704,57.5852113 L57.5651737,57.5852113 L57.5651737,51.6147887 L58.0045704,51.6147887 L58.0045704,52.9394366 Z" id="Path" fill="#231F20"></path>
                <path d="M60.9542048,54.6591549 C60.9310786,56.0640845 61.6711152,57.3422535 63.138574,57.3422535 C64.1985435,57.3905272 65.1206523,56.6195597 65.2661792,55.5633803 L65.7055759,55.5633803 C65.4743144,56.9577465 64.5492687,57.7246479 63.138574,57.7246479 C61.4041133,57.7246479 60.4916819,56.3535211 60.514808,54.7035211 C60.4916819,53.0640845 61.3557587,51.4732394 63.138574,51.4732394 C65.0012797,51.4732394 65.8338208,52.9521127 65.7518282,54.6570423 L60.9542048,54.6591549 Z M65.3124314,54.2746479 C65.2893053,53.0197183 64.5030165,51.8577465 63.138574,51.8577465 C61.8203839,51.8577465 61.0467093,53.0894366 60.9542048,54.2746479 L65.3124314,54.2746479 Z" id="Shape" fill="#231F20" fill-rule="nonzero"></path>
                <path d="M71.2558501,53.4612676 C71.1738574,52.4049296 70.3181901,51.8577465 69.2438757,51.8577465 C67.7532907,51.8577465 66.9543876,53.1823944 66.9543876,54.5429577 C66.9543876,56.1570423 67.7070384,57.3422535 69.2438757,57.3422535 C70.3110844,57.3613187 71.2127506,56.5510002 71.3126143,55.4830986 L71.752011,55.4830986 C71.5564899,56.9133803 70.5284278,57.7267606 69.2438757,57.7267606 C67.313894,57.7267606 66.5107861,56.2035211 66.5107861,54.5429577 C66.5107861,52.8823944 67.4820841,51.4753521 69.2438757,51.4753521 C70.5284278,51.4753521 71.5670018,52.1091549 71.6952468,53.4612676 L71.2558501,53.4612676 Z" id="Path" fill="#231F20"></path>
                <path d="M74.9686472,51.9971831 L73.6735832,51.9971831 L73.6735832,56.1697183 C73.6735832,57.1330986 74.1234918,57.2260563 74.9560329,57.2028169 L74.9560329,57.5852113 C74.0541133,57.6443662 73.1879342,57.515493 73.2341865,56.1697183 L73.2341865,51.9971831 L72.1346435,51.9971831 L72.1346435,51.6147887 L73.2341865,51.6147887 L73.2341865,49.7556338 L73.6735832,49.7556338 L73.6735832,51.6147887 L74.9686472,51.6147887 L74.9686472,51.9971831 Z" id="Path" fill="#231F20"></path>
                <path d="M84.4608775,51.6612676 C84.402011,50.243662 83.3382084,49.5338028 81.811883,49.5338028 C80.8763254,49.5338028 79.5476234,49.9288732 79.5476234,51.3 C79.5476234,52.6373239 80.9583181,52.8570423 82.3563985,53.1485915 C83.754479,53.4401408 85.1777879,53.7992958 85.1777879,55.4492958 C85.1777879,57.1690141 83.5358318,57.7838028 82.2744059,57.7838028 C80.3444241,57.7838028 78.7718464,56.9830986 78.7949726,54.8450704 L79.3037477,54.8450704 C79.2007313,56.6577465 80.645064,57.3422535 82.2744059,57.3422535 C83.26883,57.3422535 84.6690128,56.8901408 84.6690128,55.4408451 C84.6690128,54.0338028 83.2583181,53.7908451 81.8476234,53.4992958 C80.4369287,53.2077465 79.0493601,52.8802817 79.0493601,51.3 C79.0493601,49.7197183 80.5210238,49.0943662 81.8223949,49.0943662 C83.5463437,49.0943662 84.8981718,49.8380282 84.9759598,51.6612676 L84.4608775,51.6612676 Z" id="Path" fill="#231F20"></path>
                <path d="M88.7202925,51.4753521 C90.4652651,51.4753521 91.4533821,52.9035211 91.4533821,54.6 C91.4533821,56.2964789 90.4715722,57.7267606 88.7202925,57.7267606 C86.9690128,57.7267606 85.9872029,56.2964789 85.9872029,54.6 C85.9872029,52.9035211 86.9816271,51.4753521 88.7202925,51.4753521 Z M88.7202925,57.3422535 C90.2108775,57.3422535 91.0076782,56.0302817 91.0076782,54.5957746 C91.0076782,53.1612676 90.2108775,51.8492958 88.7202925,51.8492958 C87.2297075,51.8492958 86.4308044,53.1633803 86.4308044,54.5957746 C86.4308044,56.028169 87.2360146,57.3422535 88.7202925,57.3422535 Z" id="Shape" fill="#231F20" fill-rule="nonzero"></path>
                <path d="M97.1907678,57.5852113 L96.7513711,57.5852113 L96.7513711,56.3176056 L96.728245,56.3176056 C96.4276051,57.2112676 95.5256856,57.7352113 94.6006399,57.7352113 C92.4982633,57.7352113 92.485649,56.0450704 92.485649,55.3183099 L92.485649,51.6147887 L92.9250457,51.6147887 L92.9250457,55.3901408 C92.9250457,56.0070423 92.9944241,57.3422535 94.606947,57.3422535 C95.935649,57.3422535 96.745064,56.3091549 96.745064,54.8450704 L96.745064,51.6147887 L97.1844607,51.6147887 L97.1907678,57.5852113 Z" id="Path" fill="#231F20"></path>
                <path d="M98.9273309,52.9394366 L98.9609689,52.9394366 C99.1922303,52.1598592 100.163528,51.5323944 101.237843,51.5788732 L101.237843,52.0204225 C100.631309,51.9550631 100.02786,52.1685862 99.5958867,52.6014085 C99.1585923,53.0556338 98.9651737,53.4274648 98.9273309,54.3211268 L98.9273309,57.5852113 L98.4879342,57.5852113 L98.4879342,51.6147887 L98.9273309,51.6147887 L98.9273309,52.9394366 Z" id="Path" fill="#231F20"></path>
                <path d="M106.170018,53.4612676 C106.088026,52.4049296 105.232358,51.8577465 104.158044,51.8577465 C102.667459,51.8577465 101.868556,53.1823944 101.868556,54.5429577 C101.868556,56.1570423 102.619104,57.3422535 104.158044,57.3422535 C105.225253,57.3613187 106.126919,56.5510002 106.226782,55.4830986 L106.666179,55.4830986 C106.470658,56.9133803 105.440494,57.7267606 104.158044,57.7267606 C102.228062,57.7267606 101.424954,56.2035211 101.424954,54.5429577 C101.424954,52.8823944 102.396252,51.4753521 104.158044,51.4753521 C105.440494,51.4753521 106.470658,52.1091549 106.609415,53.4612676 L106.170018,53.4612676 Z" id="Path" fill="#231F20"></path>
                <path d="M107.875046,54.6591549 C107.854022,56.0640845 108.591956,57.3422535 110.061517,57.3422535 C111.121487,57.3905272 112.043596,56.6195597 112.189122,55.5633803 L112.628519,55.5633803 C112.397258,56.9577465 111.472212,57.7246479 110.061517,57.7246479 C108.327057,57.7246479 107.414625,56.3535211 107.435649,54.7035211 C107.414625,53.0640845 108.2766,51.4732394 110.061517,51.4732394 C111.922121,51.4732394 112.754662,52.9521127 112.674771,54.6570423 L107.875046,54.6591549 Z M112.235375,54.2746479 C112.212249,53.0197183 111.42596,51.8577465 110.061517,51.8577465 C108.743327,51.8577465 107.959141,53.0894366 107.875046,54.2746479 L112.235375,54.2746479 Z" id="Shape" fill="#231F20" fill-rule="nonzero"></path>
            </g>
        </g>
    </g>
</svg>