<svg width="170" height="66" viewBox="0 0 170 66" fill="none" xmlns="http://www.w3.org/2000/svg">
<mask id="path-1-outside-1" maskUnits="userSpaceOnUse" x="65.5217" y="27.2891" width="105" height="22" fill="black">
<rect fill="white" x="65.5217" y="27.2891" width="105" height="22"/>
<path d="M66.5217 48.6779C66.596 47.2541 66.6517 45.8018 66.6889 44.3211C66.726 42.8403 66.7446 41.3121 66.7446 39.7364V37.6861C66.7446 36.1105 66.726 34.5823 66.6889 33.1015C66.6517 31.6208 66.596 30.1685 66.5217 28.7447C67.6546 28.6498 68.546 28.5833 69.1961 28.5453C69.8646 28.5074 70.4404 28.4884 70.9232 28.4884C71.7032 28.4884 72.5018 28.5453 73.319 28.6593C74.1547 28.7732 74.9069 28.9915 75.5754 29.3142C76.2626 29.6369 76.8197 30.0831 77.2469 30.6526C77.674 31.2031 77.8876 31.934 77.8876 32.8452C77.8876 34.1551 77.5812 35.1803 76.9683 35.9206C76.3555 36.661 75.5104 37.221 74.4333 37.6007C75.0461 37.7146 75.6312 37.9045 76.1883 38.1702C76.764 38.417 77.2655 38.7398 77.6926 39.1384C78.1383 39.5371 78.4912 40.0117 78.7512 40.5622C79.0298 41.1128 79.1691 41.7392 79.1691 42.4416C79.1691 43.7515 78.8905 44.8241 78.3333 45.6594C77.7948 46.4757 77.0798 47.1212 76.1883 47.5958C75.2969 48.0514 74.2847 48.3647 73.1518 48.5355C72.0375 48.7064 70.9139 48.7918 69.7811 48.7918L66.5217 48.6779ZM68.3325 39.7364C68.3325 41.2172 68.351 42.5935 68.3882 43.8654C68.4068 45.1184 68.4532 46.4093 68.5275 47.7382C68.8989 47.7761 69.2611 47.7951 69.6139 47.7951H70.7282C71.564 47.7951 72.3811 47.7382 73.1797 47.6243C73.9783 47.4914 74.684 47.2446 75.2969 46.8839C75.9283 46.5232 76.439 46.0106 76.829 45.3462C77.219 44.6628 77.414 43.761 77.414 42.641C77.414 41.9386 77.2562 41.3216 76.9405 40.79C76.6247 40.2395 76.2069 39.7839 75.6869 39.4232C75.1669 39.0435 74.5633 38.7682 73.8761 38.5974C73.2075 38.4075 72.5111 38.3126 71.7868 38.3126C71.6568 38.3126 71.5082 38.3221 71.3411 38.3411C71.1925 38.3411 70.9139 38.3601 70.5054 38.398L70.9232 37.5153C71.0161 37.5153 71.1089 37.5058 71.2018 37.4868C71.2947 37.4868 71.3782 37.4868 71.4525 37.4868C71.5454 37.4678 71.6382 37.4488 71.7311 37.4299C72.344 37.3349 72.9104 37.1926 73.4304 37.0027C73.969 36.8129 74.4333 36.5471 74.8233 36.2054C75.2133 35.8637 75.5197 35.446 75.7426 34.9524C75.9654 34.4399 76.0769 33.8229 76.0769 33.1015C76.0769 32.3611 75.9097 31.7536 75.5754 31.279C75.2412 30.8044 74.8047 30.4343 74.2661 30.1685C73.7461 29.8837 73.1425 29.6939 72.4554 29.599C71.7682 29.4851 71.0811 29.4281 70.3939 29.4281C69.7253 29.4281 69.1032 29.4566 68.5275 29.5135C68.4532 30.8424 68.3975 32.1713 68.3603 33.5002C68.3418 34.8101 68.3325 36.2054 68.3325 37.6861V39.7364Z"/>
<path d="M84.1403 39.7364C84.1403 41.3121 84.1589 42.8403 84.1961 44.3211C84.2332 45.8018 84.2889 47.2541 84.3632 48.6779L82.3296 48.7918C82.4039 47.368 82.4596 45.8967 82.4967 44.378C82.5339 42.8593 82.5525 41.3121 82.5525 39.7364V37.6861C82.5525 36.1105 82.5339 34.5823 82.4967 33.1015C82.4596 31.6208 82.4039 30.1685 82.3296 28.7447L84.3632 28.6308C84.2889 30.0546 84.2332 31.5258 84.1961 33.0446C84.1589 34.5633 84.1403 36.1105 84.1403 37.6861V39.7364Z"/>
<path d="M103.683 46.2859C103.683 45.7733 103.674 45.2038 103.655 44.5773C103.655 43.9699 103.646 43.3529 103.627 42.7264C103.609 42.0999 103.581 41.4924 103.544 40.9039C103.525 40.3154 103.506 39.8029 103.488 39.3662L105.382 39.2239C105.345 40.0591 105.317 40.9514 105.299 41.9006C105.28 42.8308 105.271 43.837 105.271 44.9191V46.5422C104.101 47.4344 102.903 48.0894 101.677 48.507C100.451 48.9247 99.0864 49.1335 97.5821 49.1335C96.2449 49.1335 94.9727 48.8867 93.7656 48.3931C92.577 47.8806 91.537 47.1782 90.6455 46.2859C89.7541 45.3747 89.0391 44.3116 88.5005 43.0966C87.9805 41.8626 87.7112 40.5148 87.6926 39.053C87.674 37.6861 87.9155 36.3573 88.4169 35.0664C88.9183 33.7754 89.6241 32.6269 90.5341 31.6208C91.4441 30.6146 92.5305 29.8078 93.7934 29.2003C95.0563 28.5928 96.4399 28.2891 97.9442 28.2891C99.3371 28.2891 100.656 28.5453 101.9 29.0579C103.163 29.5515 104.296 30.2824 105.299 31.2506L104.435 33.8704L103.794 33.6141C103.943 32.2662 103.46 31.2316 102.346 30.5102C100.971 29.6369 99.4299 29.2003 97.7213 29.2003C96.4956 29.2003 95.372 29.4471 94.3506 29.9407C93.3477 30.4343 92.4748 31.1082 91.732 31.9625C91.0077 32.8167 90.4412 33.8134 90.0326 34.9524C89.6426 36.0915 89.4569 37.316 89.4755 38.6259C89.4941 39.8218 89.7076 40.9989 90.1162 42.1569C90.5248 43.3149 91.082 44.34 91.7877 45.2323C92.512 46.1245 93.3756 46.8459 94.3784 47.3965C95.3813 47.947 96.4863 48.2223 97.6935 48.2223C98.8449 48.2223 99.8942 48.0609 100.841 47.7382C101.789 47.3965 102.736 46.9124 103.683 46.2859Z"/>
<path d="M118.933 39.7364C118.933 41.3121 118.952 42.8403 118.989 44.3211C119.026 45.8018 119.082 47.2541 119.156 48.6779L117.122 48.7918C117.197 47.368 117.252 45.8967 117.29 44.378C117.327 42.8593 117.345 41.3121 117.345 39.7364V36.8319C117.345 36.0535 117.336 35.3321 117.317 34.6677C117.317 33.9843 117.308 33.3198 117.29 32.6744C117.271 32.0289 117.243 31.3929 117.206 30.7665C117.187 30.121 117.16 29.4471 117.122 28.7447L119.156 28.6308C119.119 29.3332 119.082 30.0071 119.045 30.6526C119.026 31.298 119.007 31.953 118.989 32.6174C118.97 33.2629 118.952 33.9368 118.933 34.6392C118.933 35.3226 118.933 36.0535 118.933 36.8319V37.9709C119.583 37.3444 120.233 36.699 120.883 36.0345C121.552 35.3701 122.295 34.6107 123.112 33.7565C123.855 32.9781 124.616 32.1523 125.396 31.279C126.176 30.4058 126.91 29.561 127.597 28.7447L129.658 28.6308C129.268 29.0105 128.832 29.4376 128.349 29.9122C127.885 30.3678 127.402 30.8424 126.9 31.336C126.418 31.8106 125.944 32.2852 125.48 32.7598C125.015 33.2154 124.598 33.6426 124.226 34.0412C123.669 34.6297 123.093 35.2372 122.499 35.8637C121.923 36.4902 121.366 37.1261 120.827 37.7716C121.589 38.6638 122.397 39.594 123.251 40.5622C124.124 41.5114 124.95 42.3847 125.73 43.182C126.12 43.5807 126.557 44.0173 127.04 44.4919C127.523 44.9665 128.015 45.4506 128.516 45.9442C129.018 46.4378 129.51 46.9219 129.993 47.3965C130.494 47.8711 130.949 48.2982 131.358 48.6779L128.85 48.7918C128.089 47.8995 127.253 46.9693 126.343 46.0011C125.452 45.033 124.607 44.1312 123.808 43.2959C123.047 42.5176 122.239 41.7013 121.385 40.847C120.53 39.9737 119.713 39.1669 118.933 38.4265V39.7364Z"/>
<path d="M139.72 41.4165C139.72 42.062 139.72 42.6694 139.72 43.239C139.738 43.8085 139.757 44.378 139.775 44.9475C139.794 45.5171 139.813 46.1056 139.831 46.713C139.868 47.3205 139.905 47.9755 139.943 48.6779L137.937 48.7918C137.974 48.0894 138.002 47.4344 138.02 46.827C138.058 46.2005 138.076 45.593 138.076 45.0045C138.095 44.416 138.104 43.837 138.104 43.2674C138.123 42.6789 138.132 42.062 138.132 41.4165V40.1636L136.015 36.5186C135.235 35.1518 134.408 33.8039 133.535 32.475C132.681 31.1462 131.864 29.9027 131.084 28.7447L133.48 28.6308C134.13 29.8837 134.77 31.0797 135.402 32.2188C136.033 33.3578 136.739 34.6012 137.519 35.9491L139.246 38.9106L140.918 36.063C141.698 34.7151 142.422 33.4527 143.09 32.2757C143.759 31.0987 144.418 29.8837 145.068 28.6308L146.796 28.7447C146.015 29.9027 145.189 31.1556 144.316 32.5035C143.462 33.8324 142.645 35.1708 141.865 36.5186L139.72 40.1636V41.4165Z"/>
<path d="M150.792 39.7364C150.792 41.3121 150.81 42.8403 150.847 44.3211C150.885 45.8018 150.94 47.2541 151.015 48.6779L148.981 48.7918C149.055 47.368 149.111 45.8967 149.148 44.378C149.185 42.8593 149.204 41.3121 149.204 39.7364V37.6861C149.204 36.1105 149.185 34.5823 149.148 33.1015C149.111 31.6208 149.055 30.1685 148.981 28.7447L151.015 28.6308C150.94 30.0546 150.885 31.5258 150.847 33.0446C150.81 34.5633 150.792 36.1105 150.792 37.6861V39.7364Z"/>
<path d="M165.599 36.8603C166.081 35.5504 166.564 34.2405 167.047 32.9307C167.511 31.6018 167.985 30.1685 168.468 28.6308L170 28.7447C169.424 30.0356 168.849 31.4024 168.273 32.8452C167.697 34.269 167.14 35.7118 166.601 37.1736L165.32 40.6761C165.041 41.4165 164.781 42.1284 164.54 42.8118C164.298 43.4763 164.066 44.1312 163.843 44.7767C163.621 45.4221 163.398 46.0676 163.175 46.713C162.952 47.3395 162.729 47.9945 162.506 48.6779L160.946 48.7918C160.482 47.4249 160.018 46.0961 159.553 44.8051C159.089 43.4953 158.606 42.1474 158.105 40.7616L156.796 37.1736C156.275 35.7498 155.7 34.307 155.068 32.8452C154.437 31.3645 153.852 29.9976 153.313 28.7447L155.486 28.6308C155.913 29.9976 156.359 31.3455 156.823 32.6744C157.306 34.0032 157.817 35.3986 158.356 36.8603L159.693 40.4768C159.916 41.0843 160.12 41.6348 160.306 42.1284C160.491 42.603 160.668 43.0586 160.835 43.4953C161.021 43.9319 161.206 44.3685 161.392 44.8051C161.578 45.2418 161.782 45.7164 162.005 46.229C162.413 45.2987 162.803 44.3685 163.175 43.4383C163.546 42.4891 163.927 41.4735 164.317 40.3914L165.599 36.8603Z"/>
</mask>
<path d="M66.5217 48.6779C66.596 47.2541 66.6517 45.8018 66.6889 44.3211C66.726 42.8403 66.7446 41.3121 66.7446 39.7364V37.6861C66.7446 36.1105 66.726 34.5823 66.6889 33.1015C66.6517 31.6208 66.596 30.1685 66.5217 28.7447C67.6546 28.6498 68.546 28.5833 69.1961 28.5453C69.8646 28.5074 70.4404 28.4884 70.9232 28.4884C71.7032 28.4884 72.5018 28.5453 73.319 28.6593C74.1547 28.7732 74.9069 28.9915 75.5754 29.3142C76.2626 29.6369 76.8197 30.0831 77.2469 30.6526C77.674 31.2031 77.8876 31.934 77.8876 32.8452C77.8876 34.1551 77.5812 35.1803 76.9683 35.9206C76.3555 36.661 75.5104 37.221 74.4333 37.6007C75.0461 37.7146 75.6312 37.9045 76.1883 38.1702C76.764 38.417 77.2655 38.7398 77.6926 39.1384C78.1383 39.5371 78.4912 40.0117 78.7512 40.5622C79.0298 41.1128 79.1691 41.7392 79.1691 42.4416C79.1691 43.7515 78.8905 44.8241 78.3333 45.6594C77.7948 46.4757 77.0798 47.1212 76.1883 47.5958C75.2969 48.0514 74.2847 48.3647 73.1518 48.5355C72.0375 48.7064 70.9139 48.7918 69.7811 48.7918L66.5217 48.6779ZM68.3325 39.7364C68.3325 41.2172 68.351 42.5935 68.3882 43.8654C68.4068 45.1184 68.4532 46.4093 68.5275 47.7382C68.8989 47.7761 69.2611 47.7951 69.6139 47.7951H70.7282C71.564 47.7951 72.3811 47.7382 73.1797 47.6243C73.9783 47.4914 74.684 47.2446 75.2969 46.8839C75.9283 46.5232 76.439 46.0106 76.829 45.3462C77.219 44.6628 77.414 43.761 77.414 42.641C77.414 41.9386 77.2562 41.3216 76.9405 40.79C76.6247 40.2395 76.2069 39.7839 75.6869 39.4232C75.1669 39.0435 74.5633 38.7682 73.8761 38.5974C73.2075 38.4075 72.5111 38.3126 71.7868 38.3126C71.6568 38.3126 71.5082 38.3221 71.3411 38.3411C71.1925 38.3411 70.9139 38.3601 70.5054 38.398L70.9232 37.5153C71.0161 37.5153 71.1089 37.5058 71.2018 37.4868C71.2947 37.4868 71.3782 37.4868 71.4525 37.4868C71.5454 37.4678 71.6382 37.4488 71.7311 37.4299C72.344 37.3349 72.9104 37.1926 73.4304 37.0027C73.969 36.8129 74.4333 36.5471 74.8233 36.2054C75.2133 35.8637 75.5197 35.446 75.7426 34.9524C75.9654 34.4399 76.0769 33.8229 76.0769 33.1015C76.0769 32.3611 75.9097 31.7536 75.5754 31.279C75.2412 30.8044 74.8047 30.4343 74.2661 30.1685C73.7461 29.8837 73.1425 29.6939 72.4554 29.599C71.7682 29.4851 71.0811 29.4281 70.3939 29.4281C69.7253 29.4281 69.1032 29.4566 68.5275 29.5135C68.4532 30.8424 68.3975 32.1713 68.3603 33.5002C68.3418 34.8101 68.3325 36.2054 68.3325 37.6861V39.7364Z" fill="#222220"/>
<path d="M84.1403 39.7364C84.1403 41.3121 84.1589 42.8403 84.1961 44.3211C84.2332 45.8018 84.2889 47.2541 84.3632 48.6779L82.3296 48.7918C82.4039 47.368 82.4596 45.8967 82.4967 44.378C82.5339 42.8593 82.5525 41.3121 82.5525 39.7364V37.6861C82.5525 36.1105 82.5339 34.5823 82.4967 33.1015C82.4596 31.6208 82.4039 30.1685 82.3296 28.7447L84.3632 28.6308C84.2889 30.0546 84.2332 31.5258 84.1961 33.0446C84.1589 34.5633 84.1403 36.1105 84.1403 37.6861V39.7364Z" fill="#222220"/>
<path d="M103.683 46.2859C103.683 45.7733 103.674 45.2038 103.655 44.5773C103.655 43.9699 103.646 43.3529 103.627 42.7264C103.609 42.0999 103.581 41.4924 103.544 40.9039C103.525 40.3154 103.506 39.8029 103.488 39.3662L105.382 39.2239C105.345 40.0591 105.317 40.9514 105.299 41.9006C105.28 42.8308 105.271 43.837 105.271 44.9191V46.5422C104.101 47.4344 102.903 48.0894 101.677 48.507C100.451 48.9247 99.0864 49.1335 97.5821 49.1335C96.2449 49.1335 94.9727 48.8867 93.7656 48.3931C92.577 47.8806 91.537 47.1782 90.6455 46.2859C89.7541 45.3747 89.0391 44.3116 88.5005 43.0966C87.9805 41.8626 87.7112 40.5148 87.6926 39.053C87.674 37.6861 87.9155 36.3573 88.4169 35.0664C88.9183 33.7754 89.6241 32.6269 90.5341 31.6208C91.4441 30.6146 92.5305 29.8078 93.7934 29.2003C95.0563 28.5928 96.4399 28.2891 97.9442 28.2891C99.3371 28.2891 100.656 28.5453 101.9 29.0579C103.163 29.5515 104.296 30.2824 105.299 31.2506L104.435 33.8704L103.794 33.6141C103.943 32.2662 103.46 31.2316 102.346 30.5102C100.971 29.6369 99.4299 29.2003 97.7213 29.2003C96.4956 29.2003 95.372 29.4471 94.3506 29.9407C93.3477 30.4343 92.4748 31.1082 91.732 31.9625C91.0077 32.8167 90.4412 33.8134 90.0326 34.9524C89.6426 36.0915 89.4569 37.316 89.4755 38.6259C89.4941 39.8218 89.7076 40.9989 90.1162 42.1569C90.5248 43.3149 91.082 44.34 91.7877 45.2323C92.512 46.1245 93.3756 46.8459 94.3784 47.3965C95.3813 47.947 96.4863 48.2223 97.6935 48.2223C98.8449 48.2223 99.8942 48.0609 100.841 47.7382C101.789 47.3965 102.736 46.9124 103.683 46.2859Z" fill="#222220"/>
<path d="M118.933 39.7364C118.933 41.3121 118.952 42.8403 118.989 44.3211C119.026 45.8018 119.082 47.2541 119.156 48.6779L117.122 48.7918C117.197 47.368 117.252 45.8967 117.29 44.378C117.327 42.8593 117.345 41.3121 117.345 39.7364V36.8319C117.345 36.0535 117.336 35.3321 117.317 34.6677C117.317 33.9843 117.308 33.3198 117.29 32.6744C117.271 32.0289 117.243 31.3929 117.206 30.7665C117.187 30.121 117.16 29.4471 117.122 28.7447L119.156 28.6308C119.119 29.3332 119.082 30.0071 119.045 30.6526C119.026 31.298 119.007 31.953 118.989 32.6174C118.97 33.2629 118.952 33.9368 118.933 34.6392C118.933 35.3226 118.933 36.0535 118.933 36.8319V37.9709C119.583 37.3444 120.233 36.699 120.883 36.0345C121.552 35.3701 122.295 34.6107 123.112 33.7565C123.855 32.9781 124.616 32.1523 125.396 31.279C126.176 30.4058 126.91 29.561 127.597 28.7447L129.658 28.6308C129.268 29.0105 128.832 29.4376 128.349 29.9122C127.885 30.3678 127.402 30.8424 126.9 31.336C126.418 31.8106 125.944 32.2852 125.48 32.7598C125.015 33.2154 124.598 33.6426 124.226 34.0412C123.669 34.6297 123.093 35.2372 122.499 35.8637C121.923 36.4902 121.366 37.1261 120.827 37.7716C121.589 38.6638 122.397 39.594 123.251 40.5622C124.124 41.5114 124.95 42.3847 125.73 43.182C126.12 43.5807 126.557 44.0173 127.04 44.4919C127.523 44.9665 128.015 45.4506 128.516 45.9442C129.018 46.4378 129.51 46.9219 129.993 47.3965C130.494 47.8711 130.949 48.2982 131.358 48.6779L128.85 48.7918C128.089 47.8995 127.253 46.9693 126.343 46.0011C125.452 45.033 124.607 44.1312 123.808 43.2959C123.047 42.5176 122.239 41.7013 121.385 40.847C120.53 39.9737 119.713 39.1669 118.933 38.4265V39.7364Z" fill="#222220"/>
<path d="M139.72 41.4165C139.72 42.062 139.72 42.6694 139.72 43.239C139.738 43.8085 139.757 44.378 139.775 44.9475C139.794 45.5171 139.813 46.1056 139.831 46.713C139.868 47.3205 139.905 47.9755 139.943 48.6779L137.937 48.7918C137.974 48.0894 138.002 47.4344 138.02 46.827C138.058 46.2005 138.076 45.593 138.076 45.0045C138.095 44.416 138.104 43.837 138.104 43.2674C138.123 42.6789 138.132 42.062 138.132 41.4165V40.1636L136.015 36.5186C135.235 35.1518 134.408 33.8039 133.535 32.475C132.681 31.1462 131.864 29.9027 131.084 28.7447L133.48 28.6308C134.13 29.8837 134.77 31.0797 135.402 32.2188C136.033 33.3578 136.739 34.6012 137.519 35.9491L139.246 38.9106L140.918 36.063C141.698 34.7151 142.422 33.4527 143.09 32.2757C143.759 31.0987 144.418 29.8837 145.068 28.6308L146.796 28.7447C146.015 29.9027 145.189 31.1556 144.316 32.5035C143.462 33.8324 142.645 35.1708 141.865 36.5186L139.72 40.1636V41.4165Z" fill="#222220"/>
<path d="M150.792 39.7364C150.792 41.3121 150.81 42.8403 150.847 44.3211C150.885 45.8018 150.94 47.2541 151.015 48.6779L148.981 48.7918C149.055 47.368 149.111 45.8967 149.148 44.378C149.185 42.8593 149.204 41.3121 149.204 39.7364V37.6861C149.204 36.1105 149.185 34.5823 149.148 33.1015C149.111 31.6208 149.055 30.1685 148.981 28.7447L151.015 28.6308C150.94 30.0546 150.885 31.5258 150.847 33.0446C150.81 34.5633 150.792 36.1105 150.792 37.6861V39.7364Z" fill="#222220"/>
<path d="M165.599 36.8603C166.081 35.5504 166.564 34.2405 167.047 32.9307C167.511 31.6018 167.985 30.1685 168.468 28.6308L170 28.7447C169.424 30.0356 168.849 31.4024 168.273 32.8452C167.697 34.269 167.14 35.7118 166.601 37.1736L165.32 40.6761C165.041 41.4165 164.781 42.1284 164.54 42.8118C164.298 43.4763 164.066 44.1312 163.843 44.7767C163.621 45.4221 163.398 46.0676 163.175 46.713C162.952 47.3395 162.729 47.9945 162.506 48.6779L160.946 48.7918C160.482 47.4249 160.018 46.0961 159.553 44.8051C159.089 43.4953 158.606 42.1474 158.105 40.7616L156.796 37.1736C156.275 35.7498 155.7 34.307 155.068 32.8452C154.437 31.3645 153.852 29.9976 153.313 28.7447L155.486 28.6308C155.913 29.9976 156.359 31.3455 156.823 32.6744C157.306 34.0032 157.817 35.3986 158.356 36.8603L159.693 40.4768C159.916 41.0843 160.12 41.6348 160.306 42.1284C160.491 42.603 160.668 43.0586 160.835 43.4953C161.021 43.9319 161.206 44.3685 161.392 44.8051C161.578 45.2418 161.782 45.7164 162.005 46.229C162.413 45.2987 162.803 44.3685 163.175 43.4383C163.546 42.4891 163.927 41.4735 164.317 40.3914L165.599 36.8603Z" fill="#222220"/>
<path d="M66.5217 48.6779C66.596 47.2541 66.6517 45.8018 66.6889 44.3211C66.726 42.8403 66.7446 41.3121 66.7446 39.7364V37.6861C66.7446 36.1105 66.726 34.5823 66.6889 33.1015C66.6517 31.6208 66.596 30.1685 66.5217 28.7447C67.6546 28.6498 68.546 28.5833 69.1961 28.5453C69.8646 28.5074 70.4404 28.4884 70.9232 28.4884C71.7032 28.4884 72.5018 28.5453 73.319 28.6593C74.1547 28.7732 74.9069 28.9915 75.5754 29.3142C76.2626 29.6369 76.8197 30.0831 77.2469 30.6526C77.674 31.2031 77.8876 31.934 77.8876 32.8452C77.8876 34.1551 77.5812 35.1803 76.9683 35.9206C76.3555 36.661 75.5104 37.221 74.4333 37.6007C75.0461 37.7146 75.6312 37.9045 76.1883 38.1702C76.764 38.417 77.2655 38.7398 77.6926 39.1384C78.1383 39.5371 78.4912 40.0117 78.7512 40.5622C79.0298 41.1128 79.1691 41.7392 79.1691 42.4416C79.1691 43.7515 78.8905 44.8241 78.3333 45.6594C77.7948 46.4757 77.0798 47.1212 76.1883 47.5958C75.2969 48.0514 74.2847 48.3647 73.1518 48.5355C72.0375 48.7064 70.9139 48.7918 69.7811 48.7918L66.5217 48.6779ZM68.3325 39.7364C68.3325 41.2172 68.351 42.5935 68.3882 43.8654C68.4068 45.1184 68.4532 46.4093 68.5275 47.7382C68.8989 47.7761 69.2611 47.7951 69.6139 47.7951H70.7282C71.564 47.7951 72.3811 47.7382 73.1797 47.6243C73.9783 47.4914 74.684 47.2446 75.2969 46.8839C75.9283 46.5232 76.439 46.0106 76.829 45.3462C77.219 44.6628 77.414 43.761 77.414 42.641C77.414 41.9386 77.2562 41.3216 76.9405 40.79C76.6247 40.2395 76.2069 39.7839 75.6869 39.4232C75.1669 39.0435 74.5633 38.7682 73.8761 38.5974C73.2075 38.4075 72.5111 38.3126 71.7868 38.3126C71.6568 38.3126 71.5082 38.3221 71.3411 38.3411C71.1925 38.3411 70.9139 38.3601 70.5054 38.398L70.9232 37.5153C71.0161 37.5153 71.1089 37.5058 71.2018 37.4868C71.2947 37.4868 71.3782 37.4868 71.4525 37.4868C71.5454 37.4678 71.6382 37.4488 71.7311 37.4299C72.344 37.3349 72.9104 37.1926 73.4304 37.0027C73.969 36.8129 74.4333 36.5471 74.8233 36.2054C75.2133 35.8637 75.5197 35.446 75.7426 34.9524C75.9654 34.4399 76.0769 33.8229 76.0769 33.1015C76.0769 32.3611 75.9097 31.7536 75.5754 31.279C75.2412 30.8044 74.8047 30.4343 74.2661 30.1685C73.7461 29.8837 73.1425 29.6939 72.4554 29.599C71.7682 29.4851 71.0811 29.4281 70.3939 29.4281C69.7253 29.4281 69.1032 29.4566 68.5275 29.5135C68.4532 30.8424 68.3975 32.1713 68.3603 33.5002C68.3418 34.8101 68.3325 36.2054 68.3325 37.6861V39.7364Z" stroke="black" stroke-width="0.2" mask="url(#path-1-outside-1)"/>
<path d="M84.1403 39.7364C84.1403 41.3121 84.1589 42.8403 84.1961 44.3211C84.2332 45.8018 84.2889 47.2541 84.3632 48.6779L82.3296 48.7918C82.4039 47.368 82.4596 45.8967 82.4967 44.378C82.5339 42.8593 82.5525 41.3121 82.5525 39.7364V37.6861C82.5525 36.1105 82.5339 34.5823 82.4967 33.1015C82.4596 31.6208 82.4039 30.1685 82.3296 28.7447L84.3632 28.6308C84.2889 30.0546 84.2332 31.5258 84.1961 33.0446C84.1589 34.5633 84.1403 36.1105 84.1403 37.6861V39.7364Z" stroke="black" stroke-width="0.2" mask="url(#path-1-outside-1)"/>
<path d="M103.683 46.2859C103.683 45.7733 103.674 45.2038 103.655 44.5773C103.655 43.9699 103.646 43.3529 103.627 42.7264C103.609 42.0999 103.581 41.4924 103.544 40.9039C103.525 40.3154 103.506 39.8029 103.488 39.3662L105.382 39.2239C105.345 40.0591 105.317 40.9514 105.299 41.9006C105.28 42.8308 105.271 43.837 105.271 44.9191V46.5422C104.101 47.4344 102.903 48.0894 101.677 48.507C100.451 48.9247 99.0864 49.1335 97.5821 49.1335C96.2449 49.1335 94.9727 48.8867 93.7656 48.3931C92.577 47.8806 91.537 47.1782 90.6455 46.2859C89.7541 45.3747 89.0391 44.3116 88.5005 43.0966C87.9805 41.8626 87.7112 40.5148 87.6926 39.053C87.674 37.6861 87.9155 36.3573 88.4169 35.0664C88.9183 33.7754 89.6241 32.6269 90.5341 31.6208C91.4441 30.6146 92.5305 29.8078 93.7934 29.2003C95.0563 28.5928 96.4399 28.2891 97.9442 28.2891C99.3371 28.2891 100.656 28.5453 101.9 29.0579C103.163 29.5515 104.296 30.2824 105.299 31.2506L104.435 33.8704L103.794 33.6141C103.943 32.2662 103.46 31.2316 102.346 30.5102C100.971 29.6369 99.4299 29.2003 97.7213 29.2003C96.4956 29.2003 95.372 29.4471 94.3506 29.9407C93.3477 30.4343 92.4748 31.1082 91.732 31.9625C91.0077 32.8167 90.4412 33.8134 90.0326 34.9524C89.6426 36.0915 89.4569 37.316 89.4755 38.6259C89.4941 39.8218 89.7076 40.9989 90.1162 42.1569C90.5248 43.3149 91.082 44.34 91.7877 45.2323C92.512 46.1245 93.3756 46.8459 94.3784 47.3965C95.3813 47.947 96.4863 48.2223 97.6935 48.2223C98.8449 48.2223 99.8942 48.0609 100.841 47.7382C101.789 47.3965 102.736 46.9124 103.683 46.2859Z" stroke="black" stroke-width="0.2" mask="url(#path-1-outside-1)"/>
<path d="M118.933 39.7364C118.933 41.3121 118.952 42.8403 118.989 44.3211C119.026 45.8018 119.082 47.2541 119.156 48.6779L117.122 48.7918C117.197 47.368 117.252 45.8967 117.29 44.378C117.327 42.8593 117.345 41.3121 117.345 39.7364V36.8319C117.345 36.0535 117.336 35.3321 117.317 34.6677C117.317 33.9843 117.308 33.3198 117.29 32.6744C117.271 32.0289 117.243 31.3929 117.206 30.7665C117.187 30.121 117.16 29.4471 117.122 28.7447L119.156 28.6308C119.119 29.3332 119.082 30.0071 119.045 30.6526C119.026 31.298 119.007 31.953 118.989 32.6174C118.97 33.2629 118.952 33.9368 118.933 34.6392C118.933 35.3226 118.933 36.0535 118.933 36.8319V37.9709C119.583 37.3444 120.233 36.699 120.883 36.0345C121.552 35.3701 122.295 34.6107 123.112 33.7565C123.855 32.9781 124.616 32.1523 125.396 31.279C126.176 30.4058 126.91 29.561 127.597 28.7447L129.658 28.6308C129.268 29.0105 128.832 29.4376 128.349 29.9122C127.885 30.3678 127.402 30.8424 126.9 31.336C126.418 31.8106 125.944 32.2852 125.48 32.7598C125.015 33.2154 124.598 33.6426 124.226 34.0412C123.669 34.6297 123.093 35.2372 122.499 35.8637C121.923 36.4902 121.366 37.1261 120.827 37.7716C121.589 38.6638 122.397 39.594 123.251 40.5622C124.124 41.5114 124.95 42.3847 125.73 43.182C126.12 43.5807 126.557 44.0173 127.04 44.4919C127.523 44.9665 128.015 45.4506 128.516 45.9442C129.018 46.4378 129.51 46.9219 129.993 47.3965C130.494 47.8711 130.949 48.2982 131.358 48.6779L128.85 48.7918C128.089 47.8995 127.253 46.9693 126.343 46.0011C125.452 45.033 124.607 44.1312 123.808 43.2959C123.047 42.5176 122.239 41.7013 121.385 40.847C120.53 39.9737 119.713 39.1669 118.933 38.4265V39.7364Z" stroke="black" stroke-width="0.2" mask="url(#path-1-outside-1)"/>
<path d="M139.72 41.4165C139.72 42.062 139.72 42.6694 139.72 43.239C139.738 43.8085 139.757 44.378 139.775 44.9475C139.794 45.5171 139.813 46.1056 139.831 46.713C139.868 47.3205 139.905 47.9755 139.943 48.6779L137.937 48.7918C137.974 48.0894 138.002 47.4344 138.02 46.827C138.058 46.2005 138.076 45.593 138.076 45.0045C138.095 44.416 138.104 43.837 138.104 43.2674C138.123 42.6789 138.132 42.062 138.132 41.4165V40.1636L136.015 36.5186C135.235 35.1518 134.408 33.8039 133.535 32.475C132.681 31.1462 131.864 29.9027 131.084 28.7447L133.48 28.6308C134.13 29.8837 134.77 31.0797 135.402 32.2188C136.033 33.3578 136.739 34.6012 137.519 35.9491L139.246 38.9106L140.918 36.063C141.698 34.7151 142.422 33.4527 143.09 32.2757C143.759 31.0987 144.418 29.8837 145.068 28.6308L146.796 28.7447C146.015 29.9027 145.189 31.1556 144.316 32.5035C143.462 33.8324 142.645 35.1708 141.865 36.5186L139.72 40.1636V41.4165Z" stroke="black" stroke-width="0.2" mask="url(#path-1-outside-1)"/>
<path d="M150.792 39.7364C150.792 41.3121 150.81 42.8403 150.847 44.3211C150.885 45.8018 150.94 47.2541 151.015 48.6779L148.981 48.7918C149.055 47.368 149.111 45.8967 149.148 44.378C149.185 42.8593 149.204 41.3121 149.204 39.7364V37.6861C149.204 36.1105 149.185 34.5823 149.148 33.1015C149.111 31.6208 149.055 30.1685 148.981 28.7447L151.015 28.6308C150.94 30.0546 150.885 31.5258 150.847 33.0446C150.81 34.5633 150.792 36.1105 150.792 37.6861V39.7364Z" stroke="black" stroke-width="0.2" mask="url(#path-1-outside-1)"/>
<path d="M165.599 36.8603C166.081 35.5504 166.564 34.2405 167.047 32.9307C167.511 31.6018 167.985 30.1685 168.468 28.6308L170 28.7447C169.424 30.0356 168.849 31.4024 168.273 32.8452C167.697 34.269 167.14 35.7118 166.601 37.1736L165.32 40.6761C165.041 41.4165 164.781 42.1284 164.54 42.8118C164.298 43.4763 164.066 44.1312 163.843 44.7767C163.621 45.4221 163.398 46.0676 163.175 46.713C162.952 47.3395 162.729 47.9945 162.506 48.6779L160.946 48.7918C160.482 47.4249 160.018 46.0961 159.553 44.8051C159.089 43.4953 158.606 42.1474 158.105 40.7616L156.796 37.1736C156.275 35.7498 155.7 34.307 155.068 32.8452C154.437 31.3645 153.852 29.9976 153.313 28.7447L155.486 28.6308C155.913 29.9976 156.359 31.3455 156.823 32.6744C157.306 34.0032 157.817 35.3986 158.356 36.8603L159.693 40.4768C159.916 41.0843 160.12 41.6348 160.306 42.1284C160.491 42.603 160.668 43.0586 160.835 43.4953C161.021 43.9319 161.206 44.3685 161.392 44.8051C161.578 45.2418 161.782 45.7164 162.005 46.229C162.413 45.2987 162.803 44.3685 163.175 43.4383C163.546 42.4891 163.927 41.4735 164.317 40.3914L165.599 36.8603Z" stroke="black" stroke-width="0.2" mask="url(#path-1-outside-1)"/>
<path d="M28.772 16.9425C28.772 16.9425 26.7553 5.71344 23.1954 1.172C22.9264 0.834435 22.5898 0.556499 22.207 0.355942C21.8241 0.155384 21.4036 0.0366138 20.9721 0.00721687C20.5406 -0.0221801 20.1077 0.0384426 19.7011 0.185213C19.2944 0.331983 18.923 0.561674 18.6104 0.859615C18.3094 1.14344 18.0682 1.48421 17.9008 1.86201C17.7334 2.23982 17.6432 2.64709 17.6355 3.06002C17.6279 3.47296 17.7028 3.88328 17.856 4.26701C18.0092 4.65074 18.2376 5.0002 18.5279 5.29495C21.2552 8.05988 25.5459 13.0127 26.4443 17.5947L28.772 18.0716V16.9425Z" fill="#222220"/>
<path d="M43.3966 51.7497C51.2684 43.9035 51.2684 31.1824 43.3966 23.3362C35.5248 15.4901 22.7621 15.4901 14.8903 23.3362C7.01855 31.1824 7.01855 43.9035 14.8903 51.7497C22.7621 59.5959 35.5248 59.5959 43.3966 51.7497Z" fill="white"/>
<path d="M43.8822 47.3518L40.7266 52.1818L37.4036 55.2675C36.0426 55.6579 34.6332 55.8558 33.217 55.8553C29.8859 55.8499 26.647 54.7652 23.9884 52.7648C23.3361 52.2786 22.7204 51.7454 22.1462 51.1696C21.5552 50.6814 20.8409 50.3646 20.0814 50.2538C19.322 50.143 18.5466 50.2424 17.84 50.5412C18.3609 49.9856 18.7196 49.2986 18.8773 48.5545C19.035 47.8104 18.9857 47.0375 18.7347 46.3193C17.5545 43.8273 16.9461 41.1045 16.9536 38.3488C16.9536 38.0162 16.9643 37.6871 16.9811 37.3592C16.938 37.4045 16.895 37.451 16.8507 37.4951C17.1055 34.2473 13.0133 32.193 13.0133 32.193C13.0133 32.193 15.877 33.0276 18.0529 32.0094C18.7826 29.9793 19.877 28.0986 21.2826 26.4593L21.2156 26.4712C23.0159 23.6729 20.0194 18.9776 20.0194 18.9776C20.0194 18.9776 23.5876 23.0588 26.7587 22.2803C27.0961 22.1229 27.4394 21.975 27.7887 21.8427C29.9675 21.011 32.3091 20.6902 34.6322 20.905C36.9554 21.1198 39.1978 21.8645 41.186 23.0815C42.1251 23.6514 43.0044 24.3141 43.8104 25.0595C47.1418 28.138 49.3033 32.6437 49.4756 37.6978C49.4827 37.4713 49.4863 37.2436 49.4863 37.0134C49.4872 35.4788 49.3166 33.9488 48.9779 32.4517C51.228 29.6796 54.7196 27.7112 54.7196 27.7112C54.7196 27.7112 51.3033 28.9595 47.8296 28.9035C46.5275 25.8726 44.518 23.1956 41.9683 21.0951C40.8821 19.017 42.5353 15.6606 42.5353 15.6606C42.5353 15.6606 40.6369 18.3862 38.4527 18.7606C34.8137 16.8489 30.6862 16.0603 26.5959 16.4954C22.5057 16.9304 18.6381 18.5695 15.4859 21.2036C11.1461 21.1917 6.40559 17.6029 6.40559 17.6029C6.40559 17.6029 10.6198 21.9393 11.0899 26.2673C10.3087 27.5423 9.66938 28.8984 9.18314 30.3116C7.41637 30.5238 5.50247 29.9193 5.50247 29.9193C5.50247 29.9193 7.48216 30.891 8.59103 32.385C8.37292 33.3357 8.22302 34.3007 8.14246 35.2727C5.50247 38.1366 0 38.8329 0 38.8329C0 38.8329 5.72615 38.97 8.5982 41.6717C9.13706 43.996 10.0786 46.2087 11.3805 48.2103C12.9129 52.9294 8.06829 59.2855 8.06829 59.2855C8.06829 59.2855 13.2011 54.3148 17.8878 54.5676C20.7748 56.3516 24.0599 57.3957 27.4501 57.6068C28.6463 59.3165 28.4896 62.2102 28.4896 62.2102C28.4896 62.2102 29.3497 58.0992 31.7935 57.4315C33.8831 57.1276 35.9134 56.5047 37.8127 55.5846C42.4647 54.3697 48.5533 58.7382 48.5533 58.7382C48.5533 58.7382 42.0795 52.4322 43.8822 47.3518Z" fill="#222220"/>
<path d="M47.3828 42.3154L46.0754 44.7346L44.2727 47.2694C46.4737 45.3617 50.9295 47.3517 50.9295 47.3517C50.9295 47.3517 46.9833 45.196 47.3828 42.3154Z" fill="#222220"/>
<path d="M28.3585 45.2977C31.7232 45.2977 34.4507 42.2369 34.4507 38.4611C34.4507 34.6854 31.7232 31.6245 28.3585 31.6245C24.9939 31.6245 22.2664 34.6854 22.2664 38.4611C22.2664 42.2369 24.9939 45.2977 28.3585 45.2977Z" fill="#222220"/>
<path d="M23.0494 38.5816C24.5471 38.5816 25.7612 37.2193 25.7612 35.5388C25.7612 33.8584 24.5471 32.4961 23.0494 32.4961C21.5517 32.4961 20.3376 33.8584 20.3376 35.5388C20.3376 37.2193 21.5517 38.5816 23.0494 38.5816Z" fill="white"/>
<path d="M28.2902 42.0142C30.2523 42.0142 31.8429 40.4501 31.8429 38.5208C31.8429 36.5914 30.2523 35.0273 28.2902 35.0273C26.3281 35.0273 24.7375 36.5914 24.7375 38.5208C24.7375 40.4501 26.3281 42.0142 28.2902 42.0142Z" stroke="white" stroke-width="0.5" stroke-miterlimit="10"/>
<path d="M43.8633 24.7916C43.0579 24.0459 42.1791 23.3832 41.2401 22.8135C39.2519 21.5966 37.0095 20.8519 34.6863 20.6371C32.3632 20.4223 30.0216 20.7431 27.8428 21.5747C25.4089 22.5125 23.2393 24.0241 21.5197 25.9803C19.9589 27.7419 18.7647 29.795 18.0065 32.0204C17.5751 33.2825 17.2815 34.5872 17.1309 35.9121C17.0498 36.6322 17.0099 37.3563 17.0113 38.0809C17.0113 38.0809 29.466 30.4895 38.4494 30.4895C46.7689 30.4895 49.1935 36.9994 49.5057 37.9616C49.5177 37.7852 49.5249 37.6039 49.532 37.4287C49.3562 32.3757 47.1959 27.8701 43.8633 24.7916Z" fill="white"/>
<path d="M17 37.9294C17 37.9294 29.4547 30.3369 38.4369 30.3369C47.4191 30.3369 49.5303 38.5208 49.5303 38.5208" stroke="#222220" stroke-width="0.5" stroke-miterlimit="10"/>
<path d="M16.5959 37.5421C17.285 37.0556 17.9668 36.6061 18.663 36.159C19.3591 35.7119 20.0601 35.2815 20.7694 34.8594C21.4788 34.4373 22.1929 34.0248 22.9166 33.6313C23.6403 33.2379 24.3688 32.8504 25.1068 32.4808C26.5829 31.7439 28.0853 31.05 29.6296 30.4646C31.1716 29.8575 32.7591 29.372 34.3773 29.0124C35.1894 28.833 36.012 28.7048 36.8402 28.6285L37.4634 28.5832C37.6716 28.5688 37.8809 28.5736 38.0891 28.5688H38.4025C38.5065 28.5688 38.6118 28.5772 38.7159 28.582C38.924 28.5939 39.1333 28.5975 39.3415 28.6165C41.0131 28.7529 42.6296 29.2772 44.0616 30.1474C45.4651 31.0354 46.6578 32.2173 47.5569 33.6111C48.0099 34.2957 48.4033 35.0176 48.7327 35.7691C49.0681 36.5157 49.3347 37.2911 49.5294 38.0858C49.3081 37.3007 49.0158 36.5373 48.6562 35.8049C48.3044 35.0714 47.8902 34.3694 47.4181 33.7064C46.4791 32.3842 45.2901 31.2324 43.8894 30.4348C42.4849 29.6474 40.9152 29.1983 39.3056 29.1233C39.1058 29.1113 38.9049 29.1149 38.7075 29.1101C38.607 29.1101 38.5077 29.1101 38.4072 29.1101L38.107 29.1245C37.906 29.1376 37.7063 29.1388 37.5089 29.1602L36.9108 29.2234C36.1115 29.3261 35.3193 29.4778 34.5388 29.6777C32.9695 30.078 31.4341 30.6003 29.9466 31.2396C28.4526 31.8727 27.0016 32.6 25.5817 33.3726C24.87 33.7625 24.1642 34.1619 23.468 34.5792C22.7719 34.9965 22.0793 35.421 21.3974 35.8597C20.7156 36.2985 20.0386 36.7468 19.3711 37.207C18.7036 37.6673 18.0385 38.1406 17.407 38.6199L16.5959 37.5421Z" fill="#222220"/>
<path d="M38.4723 45.9331C29.4889 45.9331 17.0342 38.3418 17.0342 38.3418C17.0147 42.1181 18.1647 45.8084 20.3273 48.9091C21.3604 50.3825 22.6232 51.6818 24.0678 52.7578C26.4269 54.5411 29.2557 55.6017 32.2091 55.8102C35.1625 56.0187 38.113 55.3662 40.7008 53.9322C43.2288 52.1783 45.332 49.8838 46.8568 47.2163C48.3816 44.5487 49.2895 41.5754 49.5143 38.5135C49.1327 39.639 46.6506 45.9331 38.4723 45.9331Z" fill="white"/>
<path d="M49.5416 38.5205C49.5416 38.5205 47.4315 46.1118 38.4481 46.1118C29.4648 46.1118 17.0112 38.5205 17.0112 38.5205" stroke="#222220" stroke-width="0.5" stroke-miterlimit="10"/>
<path d="M17.4046 37.7969C18.0362 38.2738 18.7048 38.7507 19.3687 39.2097C20.0326 39.6688 20.712 40.1195 21.3951 40.557C22.0781 40.9946 22.7671 41.4238 23.4657 41.8376C24.1642 42.2513 24.8676 42.6591 25.5853 43.043C27.0112 43.8168 28.4645 44.5429 29.9562 45.1736C31.4405 45.8174 32.9731 46.3444 34.54 46.7498C35.3205 46.9497 36.1127 47.1014 36.912 47.2041L37.5101 47.2673C37.7111 47.2887 37.9108 47.2899 38.1082 47.3019L38.4084 47.3174C38.5089 47.3174 38.6082 47.3174 38.7087 47.3174C38.9096 47.3174 39.1106 47.3174 39.3068 47.3042C40.9164 47.2291 42.4861 46.78 43.8906 45.9927C45.2913 45.1963 46.4803 44.0433 47.4193 42.7222C47.8912 42.0592 48.3054 41.3571 48.6574 40.6238C49.0169 39.8913 49.3091 39.1279 49.5306 38.3429C49.3364 39.137 49.0706 39.912 48.7363 40.6584C48.4071 41.4096 48.0137 42.1312 47.5605 42.8152C46.6618 44.2096 45.469 45.392 44.0652 46.2801C42.6325 47.1518 41.0146 47.6766 39.3415 47.8122C39.1333 47.8312 38.924 47.836 38.7159 47.8479C38.6118 47.8479 38.5065 47.8598 38.4025 47.861H38.0891C37.8809 47.861 37.6716 47.861 37.4634 47.8467L36.8402 47.8014C36.0121 47.7239 35.1896 47.5957 34.3773 47.4175C32.7591 47.0579 31.1716 46.5724 29.6296 45.9653C28.0853 45.3691 26.5829 44.686 25.1068 43.9491C24.3688 43.5783 23.6379 43.1968 22.9166 42.7974C22.1953 42.3979 21.4812 41.9914 20.7694 41.5705C20.0577 41.1496 19.3579 40.7168 18.663 40.2709C17.968 39.825 17.285 39.3743 16.5959 38.8878L17.4046 37.7969Z" fill="#222220"/>
<path d="M54.7137 27.7079C54.7137 27.7079 51.2973 28.9563 47.8236 28.9002C47.2051 27.4626 46.4246 26.0998 45.497 24.8381L46.3607 23.4467L44.6418 23.7483C43.8296 22.7836 42.9312 21.8945 41.9575 21.0919C40.8714 19.0137 42.5245 15.6574 42.5245 15.6574C42.5245 15.6574 40.6261 18.383 38.4419 18.7574C37.1684 18.087 35.8282 17.5507 34.443 17.1573V12.4478L31.0363 16.4908C28.2574 16.184 25.4449 16.4425 22.7691 17.2506C20.0933 18.0587 17.6099 19.3995 15.4691 21.192C11.1293 21.1801 6.38884 17.5913 6.38884 17.5913C6.38884 17.5913 10.6198 21.9396 11.0899 26.2676C10.3087 27.5427 9.66938 28.8988 9.18314 30.3119C7.41637 30.5241 5.50247 29.9196 5.50247 29.9196C5.50247 29.9196 7.48216 30.8914 8.59102 32.3853C8.37292 33.3361 8.22302 34.3011 8.14245 35.273C5.50247 38.1369 0 38.8332 0 38.8332C0 38.8332 5.72615 38.9704 8.5982 41.6721C9.13706 43.9963 10.0786 46.209 11.3805 48.2106C12.9129 52.9297 8.06829 59.2859 8.06829 59.2859C8.06829 59.2859 13.2011 54.3152 17.8878 54.568C20.7748 56.352 24.0599 57.3961 27.4501 57.6071C28.6463 59.3169 28.4896 62.2106 28.4896 62.2106C28.4896 62.2106 29.3497 58.0995 31.7935 57.4318C33.8831 57.128 35.9134 56.505 37.8127 55.585L37.4036 55.2678C36.0426 55.6583 34.6332 55.8562 33.217 55.8556C29.8859 55.8502 26.647 54.7656 23.9884 52.7652C23.3361 52.279 22.7204 51.7458 22.1462 51.1699C21.5552 50.6818 20.8409 50.365 20.0814 50.2542C19.322 50.1434 18.5466 50.2428 17.84 50.5416C18.3609 49.9859 18.7196 49.2989 18.8773 48.5548C19.035 47.8107 18.9857 47.0378 18.7347 46.3197C17.6663 44.0657 17.0658 41.6199 16.9691 39.1289C16.9596 38.8702 17.3734 38.6019 17.3734 38.3408C17.3734 38.0082 16.9643 37.6863 16.9811 37.3584C16.938 37.4037 16.895 37.4502 16.8507 37.4943C17.1055 34.2477 13.0133 32.1933 13.0133 32.1933C13.0133 32.1933 15.877 33.028 18.0529 32.0097C18.7826 29.9796 19.877 28.0989 21.2826 26.4596L21.2156 26.4715C23.0159 23.6732 20.0194 18.978 20.0194 18.978C20.0194 18.978 23.5876 23.0592 26.7587 22.2806C27.0961 22.1232 27.4394 21.9754 27.7887 21.843C29.9675 21.0114 32.3091 20.6906 34.6322 20.9054C36.9554 21.1202 39.1978 21.8649 41.186 23.0818C42.1251 23.6517 43.0044 24.3144 43.8104 25.0598C47.1418 28.1384 49.3033 32.644 49.4755 37.6982C49.4827 37.4716 49.4863 37.2439 49.4863 37.0138C49.4872 35.4791 49.3166 33.9491 48.9779 32.4521C51.2256 29.6764 54.7137 27.7079 54.7137 27.7079Z" fill="#222220"/>
</svg>
