<svg width="40" height="40" viewBox="0 0 40 40" fill="none" xmlns="http://www.w3.org/2000/svg">
<path d="M17.8125 6.25L16.1875 8.75H7.5V31.25H14.75L14.3125 33.75H6.25L5 32.5V7.5L6.25 6.25H17.8125ZM25.6875 6.25H33.75L35 7.5V32.5L33.75 33.75H22.1875L23.8125 31.25H32.5V8.75H25.25L25.6875 6.25Z" fill="#FF6633"/>
<path d="M17.875 23.75H10.625L9.5625 21.8125L22.5625 1.8125L24.8125 2.75L22.125 16.25H29.375L30.4375 18.1875L17.4375 38.1875L15.1875 37.25L17.875 23.75Z" fill="#FF6633"/>
<path d="M9.3125 11.4375C9.79575 11.4375 10.1875 11.0458 10.1875 10.5625C10.1875 10.0793 9.79575 9.6875 9.3125 9.6875C8.82925 9.6875 8.4375 10.0793 8.4375 10.5625C8.4375 11.0458 8.82925 11.4375 9.3125 11.4375Z" fill="#FF6633"/>
<path d="M11.625 11.4375C12.1082 11.4375 12.5 11.0458 12.5 10.5625C12.5 10.0793 12.1082 9.6875 11.625 9.6875C11.1418 9.6875 10.75 10.0793 10.75 10.5625C10.75 11.0458 11.1418 11.4375 11.625 11.4375Z" fill="#FF6633"/>
<path d="M13.9375 11.4375C14.4207 11.4375 14.8125 11.0458 14.8125 10.5625C14.8125 10.0793 14.4207 9.6875 13.9375 9.6875C13.4543 9.6875 13.0625 10.0793 13.0625 10.5625C13.0625 11.0458 13.4543 11.4375 13.9375 11.4375Z" fill="#FF6633"/>
</svg>
