<svg width="48" height="48" viewBox="0 0 48 48" fill="none" xmlns="http://www.w3.org/2000/svg">
<path d="M27.6 8.09253C24.244 8.09079 20.9736 9.15146 18.2575 11.1225C15.5414 13.0936 13.5189 15.8739 12.48 19.065L12.375 19.395H15.3L15.3675 19.2375C16.4486 16.4941 18.4221 14.1947 20.9698 12.7099C23.5174 11.2251 26.4909 10.6415 29.4108 11.0532C32.3306 11.4648 35.0268 12.8477 37.0647 14.979C39.1026 17.1102 40.3635 19.8656 40.644 22.801C40.9245 25.7364 40.2084 28.6807 38.6111 31.1594C37.0138 33.638 34.6283 35.5066 31.8392 36.4638C29.0502 37.4211 26.02 37.4112 23.2372 36.4359C20.4545 35.4605 18.0812 33.5765 16.5 31.0875C16.425 30.975 16.3575 30.8625 16.29 30.7425L16.14 30.48H13.0725L13.2525 30.8475C13.5298 31.4438 13.8481 32.0202 14.205 32.5725C15.6934 34.8991 17.7618 36.798 20.2068 38.0825C22.6518 39.3669 25.3891 39.9927 28.1494 39.8982C30.9096 39.8037 33.5977 38.9922 35.9491 37.5435C38.3005 36.0948 40.2343 34.0588 41.56 31.6359C42.8858 29.2131 43.5579 26.4868 43.5102 23.7253C43.4625 20.9639 42.6966 18.2624 41.288 15.8868C39.8794 13.5111 37.8765 11.5431 35.4764 10.1765C33.0764 8.80988 30.3619 8.09166 27.6 8.09253Z" fill="#FF6633"/>
<path d="M28.3425 21.8174L22.77 16.2449L20.9175 18.0974L24.1575 21.3449H0L1.56 23.9624H27.45L28.3425 21.8174Z" fill="#FF6633"/>
<path d="M28.3049 33.6375L26.4524 31.785L29.6924 28.5375H4.27491L2.72241 25.9125H32.9849L33.8774 28.065L28.3049 33.6375Z" fill="#FF6633"/>
</svg>
