<svg width="48" height="48" viewBox="0 0 48 48" fill="none" xmlns="http://www.w3.org/2000/svg">
<path fill-rule="evenodd" clip-rule="evenodd" d="M7.9879 20.0048C7.66978 21.284 7.50094 22.6223 7.50094 24C7.50094 25.2758 7.64571 26.5177 7.91973 27.7102H12.8486C12.7138 26.5064 12.6436 25.2656 12.6436 24C12.6436 22.6343 12.7253 21.2975 12.8818 20.0048H7.9879ZM9.05275 17.0048H13.3955C13.9372 14.5857 14.7548 12.3901 15.7941 10.5381C16.0433 10.0942 16.3084 9.66515 16.5888 9.25438C13.2893 10.9162 10.624 13.6529 9.05275 17.0048ZM24.1524 4.50058C24.1017 4.50019 24.051 4.5 24.0002 4.5C13.2303 4.5 4.50024 13.2308 4.50024 24C4.50024 34.7692 13.2303 43.5 24.0002 43.5C24.051 43.5 24.1017 43.4998 24.1524 43.4994C24.1834 43.4998 24.2144 43.5 24.2455 43.5C24.375 43.5 24.5036 43.4966 24.6313 43.49C35.1091 43.1569 43.5002 34.5581 43.5002 24C43.5002 13.4419 35.1091 4.84314 24.6313 4.51002C24.5036 4.50337 24.375 4.5 24.2455 4.5C24.2144 4.5 24.1834 4.50019 24.1524 4.50058ZM22.4909 7.86953C21.0487 8.47794 19.6249 9.84317 18.4111 12.006C17.6175 13.4202 16.9563 15.1116 16.4796 17.0048H22.4909V7.86953ZM22.4909 20.0048H15.9066C15.7357 21.2806 15.6443 22.6182 15.6443 24C15.6443 25.2793 15.7227 26.5207 15.8699 27.7102H22.4909V20.0048ZM25.4916 27.7102V20.0048H32.5843C32.7552 21.2806 32.8467 22.6182 32.8467 24C32.8467 25.2793 32.7683 26.5207 32.621 27.7102H25.4916ZM22.4909 30.7102H16.4095C16.8907 32.7188 17.5779 34.5092 18.4111 35.994C19.6249 38.1568 21.0487 39.5221 22.4909 40.1305V30.7102ZM16.5888 38.7456C16.3084 38.3348 16.0433 37.9058 15.7941 37.4619C14.7142 35.5375 13.8735 33.242 13.3332 30.7102H8.92246C10.4741 34.1919 13.1963 37.037 16.5888 38.7456ZM32.1721 38.3373C35.2106 36.6016 37.6441 33.9277 39.078 30.7102H35.1578C34.6175 33.242 33.7768 35.5375 32.6968 37.4619C32.5291 37.7608 32.3541 38.0529 32.1721 38.3373ZM32.0814 30.7102H25.4916V40.3136C27.105 39.8317 28.7236 38.4108 30.0799 35.994C30.9131 34.5092 31.6003 32.7188 32.0814 30.7102ZM35.6424 27.7102H40.0808C40.3548 26.5177 40.4996 25.2758 40.4996 24C40.4996 22.6223 40.3307 21.284 40.0126 20.0048H35.6091C35.7657 21.2975 35.8474 22.6343 35.8474 24C35.8474 25.2656 35.7772 26.5064 35.6424 27.7102ZM35.0955 17.0048C34.5538 14.5857 33.7361 12.3901 32.6968 10.5381C32.5291 10.2392 32.3541 9.94707 32.1721 9.66269C35.1204 11.3469 37.4991 13.9144 38.9477 17.0048H35.0955ZM32.0114 17.0048H25.4916V7.68644C27.105 8.16832 28.7236 9.58919 30.0799 12.006C30.8735 13.4202 31.5346 15.1116 32.0114 17.0048Z" fill="#FF6633"/>
</svg>
