<svg width="209" height="37" viewBox="0 0 209 37" fill="none" xmlns="http://www.w3.org/2000/svg">
<path fill-rule="evenodd" clip-rule="evenodd" d="M16.4121 32.2349C12.7322 32.2349 9.89412 31.055 7.97678 28.7278C6.04036 26.3787 5.05848 22.8587 5.05848 18.2663C5.05848 13.737 6.04036 10.2493 7.97678 7.89966C9.89463 5.5725 12.7487 4.39254 16.4596 4.39254C20.1534 4.39254 22.9748 5.56373 24.8457 7.87336C26.7362 10.2083 27.6946 13.7048 27.6946 18.2663C27.6946 22.875 26.7321 26.3996 24.8341 28.7423C22.9552 31.0599 20.122 32.2349 16.4121 32.2349ZM16.4596 0C11.2332 0 7.13649 1.61506 4.28344 4.80082C1.44097 7.97369 0 12.4882 0 18.2188C0 23.9959 1.43684 28.5419 4.27055 31.7304C7.1156 34.9327 11.201 36.5565 16.4121 36.5565C21.5132 36.5565 25.5583 34.9046 28.4358 31.6464C31.3005 28.4023 32.7531 23.9007 32.7531 18.2663C32.7531 12.6161 31.3046 8.11451 28.4475 4.88567C25.5782 1.64369 21.5449 0 16.4596 0Z" fill="#6ABF4B"/>
<path fill-rule="evenodd" clip-rule="evenodd" d="M51.8326 8.77197C49.9916 8.77197 48.2948 9.14079 46.7899 9.86862C45.4951 10.4948 44.4333 11.3521 43.6255 12.4228L43.0537 9.24731H39.129V36.081H43.8545V22.0223C43.8545 18.7422 44.4627 16.3725 45.6623 14.9784C46.8466 13.6014 48.7626 12.9032 51.3573 12.9032C53.2947 12.9032 54.7261 13.3889 55.6116 14.3471C56.5052 15.314 56.9581 16.8246 56.9581 18.8368V36.081H61.6837V18.6942C61.6837 15.2714 60.8434 12.7333 59.186 11.1499C57.5333 9.57202 55.0594 8.77197 51.8326 8.77197Z" fill="#6ABF4B"/>
<path fill-rule="evenodd" clip-rule="evenodd" d="M79.3371 12.8555C81.2941 12.8555 82.7516 13.4593 83.7928 14.7012C84.7791 15.8778 85.306 17.5847 85.3612 19.7785H72.5676C72.8247 17.6677 73.5146 15.9851 74.6208 14.7731C75.7987 13.4828 77.3413 12.8555 79.3371 12.8555ZM79.3848 8.77197C75.7936 8.77197 72.8897 10.0664 70.7537 12.6201C68.6349 15.1528 67.5604 18.6039 67.5604 22.8781C67.5604 27.1303 68.7203 30.5077 71.0077 32.9166C73.2998 35.3318 76.4623 36.5566 80.4069 36.5566C82.1849 36.5566 83.7275 36.4217 84.9918 36.1558C86.2566 35.8899 87.6133 35.4463 89.0243 34.8368L89.2595 34.7355V30.37L88.7166 30.6024C86.0369 31.7488 83.2891 32.3301 80.5495 32.3301C78.0124 32.3301 76.0252 31.5724 74.643 30.078C73.3135 28.6412 72.5743 26.5193 72.4433 23.7669H90.3768V20.8813C90.3768 17.2816 89.3841 14.3354 87.4263 12.1243C85.4561 9.89983 82.7506 8.77197 79.3848 8.77197Z" fill="#6ABF4B"/>
<path fill-rule="evenodd" clip-rule="evenodd" d="M92.5688 4.91546H103.575V36.0808H108.396V4.91546H119.403V0.546387H92.5688V4.91546Z" fill="#6ABF4B"/>
<path fill-rule="evenodd" clip-rule="evenodd" d="M135.535 8.77197C133.831 8.77197 132.246 9.25814 130.824 10.2173C129.624 11.0267 128.563 12.1375 127.661 13.5264L127.26 9.24731H123.259V36.081H127.985V21.7133C127.985 19.2706 128.708 17.2058 130.135 15.5752C131.568 13.9372 133.241 13.1408 135.249 13.1408C136.041 13.1408 136.973 13.2579 138.018 13.4882L138.426 13.5785L139.089 9.14002L138.728 9.06522C137.786 8.8705 136.712 8.77197 135.535 8.77197Z" fill="#6ABF4B"/>
<path fill-rule="evenodd" clip-rule="evenodd" d="M160.7 23.33C160.7 26.5952 160.095 28.9659 158.902 30.3762C157.726 31.7674 155.814 32.4728 153.221 32.4728C151.284 32.4728 149.852 31.9869 148.967 31.029C148.073 30.0626 147.62 28.552 147.62 26.5392V9.24731H142.847V26.6816C142.847 30.0896 143.684 32.6157 145.333 34.1902C146.977 35.7604 149.463 36.5566 152.722 36.5566C154.609 36.5566 156.317 36.1999 157.798 35.4966C159.079 34.8884 160.132 34.0381 160.939 32.9641L161.448 36.081H165.426V9.24731H160.7V23.33Z" fill="#6ABF4B"/>
<path fill-rule="evenodd" clip-rule="evenodd" d="M182.454 20.5161C180.233 19.6874 178.716 19.0478 177.944 18.6155C177.206 18.2024 176.668 17.768 176.346 17.3242C176.036 16.8973 175.885 16.3892 175.885 15.7702C175.885 14.8768 176.291 14.1923 177.127 13.6772C178.011 13.132 179.366 12.8555 181.153 12.8555C183.216 12.8555 185.557 13.3897 188.113 14.4427L188.466 14.5882L190.179 10.6689L189.817 10.5147C187.102 9.35821 184.283 8.77197 181.439 8.77197C178.359 8.77197 175.892 9.41599 174.105 10.6862C172.277 11.9861 171.35 13.7845 171.35 16.0318C171.35 17.2844 171.62 18.3824 172.152 19.2946C172.68 20.1989 173.488 21.0144 174.556 21.7177C175.598 22.4043 177.364 23.2134 179.801 24.1215C182.302 25.0848 183.998 25.9238 184.841 26.6145C185.632 27.2639 186.017 28.0168 186.017 28.9161C186.017 30.1265 185.536 31.0006 184.544 31.5881C183.501 32.2069 181.968 32.5205 179.989 32.5205C178.695 32.5205 177.332 32.3405 175.936 31.9853C174.536 31.6296 173.207 31.136 171.987 30.5178L171.421 30.2315V34.754L171.619 34.8657C173.603 35.9876 176.386 36.5566 179.894 36.5566C183.228 36.5566 185.864 35.8674 187.73 34.5087C189.634 33.1219 190.6 31.1285 190.6 28.5834C190.6 26.761 190.016 25.2228 188.865 24.0119C187.727 22.8159 185.629 21.6721 182.454 20.5161Z" fill="#6ABF4B"/>
<path fill-rule="evenodd" clip-rule="evenodd" d="M208.501 32.0603C208.137 32.1666 207.633 32.271 207.004 32.3703C206.379 32.4699 205.72 32.5204 205.045 32.5204C203.85 32.5204 202.943 32.1514 202.269 31.3913C201.593 30.6292 201.25 29.5005 201.25 28.0366V13.0933H208.81V9.24727H201.25V3.20923H198.288L196.592 8.87742L192.792 10.5474V13.0933H196.525V28.2032C196.525 33.7461 199.199 36.5565 204.474 36.5565C205.155 36.5565 205.931 36.4869 206.783 36.3494C207.662 36.2068 208.315 36.0286 208.779 35.8047L209 35.6985V31.9151L208.501 32.0603Z" fill="#6ABF4B"/>
</svg>
