<svg width="100" height="32" viewBox="0 0 100 32" fill="none" xmlns="http://www.w3.org/2000/svg">
<path d="M14.0776 5.31201H19.3134V19.7364H25V23.9667H14.0776V5.31201Z" fill="#007DA4"/>
<path d="M37.1705 21.8516C37.1705 22.5797 37.3439 23.2732 37.656 23.932H32.9056C32.7322 23.4466 32.6629 22.9265 32.6629 22.441L32.6282 22.4063C32.0388 23.7933 30.7558 24.2787 29.2995 24.2787C26.5949 24.2787 25.4507 22.8571 25.4507 20.1179C25.4507 16.9972 26.907 16.1303 28.8141 15.6796L31.1719 15.1248C32.2121 14.8821 32.5935 14.57 32.5935 13.6685C32.5935 12.975 32.1775 12.5589 31.6227 12.5589C30.5478 12.5589 30.4091 13.3564 30.4091 14.1886H25.9708C25.9708 11.0332 27.6352 9.43823 31.6573 9.43823C36.269 9.43823 37.2052 11.3106 37.2052 13.4951V21.8516H37.1705ZM32.5935 17.1012C32.2815 17.3093 31.9001 17.4479 31.3453 17.656C30.5131 17.9681 30.3744 18.6269 30.3744 19.459C30.3744 20.2912 30.6865 20.8807 31.38 20.8807C32.3855 20.8807 32.5935 19.9792 32.5935 19.147V17.1012Z" fill="#007DA4"/>
<path d="M38.1067 5.31201H43.1691V11.484H43.2385C43.7239 10.2011 45.0068 9.4729 46.3591 9.4729C49.8959 9.4729 50.4507 12.6976 50.4507 16.6851C50.4507 20.0138 50.4507 24.3481 46.0471 24.3481C43.8626 24.3481 43.3425 23.0305 43.1344 22.3717H43.0998V24.0013H38.1067V5.31201ZM44.244 13.2177C43.2385 13.2177 43.0998 14.2233 43.0998 16.8585C43.0998 19.5284 43.2731 20.5339 44.244 20.5339C45.2496 20.5339 45.3882 19.5284 45.3882 16.8585C45.3882 14.2233 45.2149 13.2177 44.244 13.2177Z" fill="#007DA4"/>
<path d="M58.8766 10.6866C58.8766 9.88905 58.8766 8.39806 57.8017 8.39806C56.4494 8.39806 56.3801 9.33426 56.3801 14.6394C56.3801 20.0832 56.5188 20.8807 57.8017 20.8807C58.6339 20.8807 58.9806 20.0486 58.9806 17.7254V16.3038H64.0431V17.4827C64.0431 21.8516 62.3094 24.3481 57.7324 24.3481C51.0403 24.3481 51.0403 20.6033 51.0403 14.6741C51.0403 8.91817 51.0403 5 57.7324 5C63.2802 5 63.939 8.01665 63.939 10.8946V12.2122H58.8766V10.6866Z" fill="#007DA4"/>
<path d="M77.1843 16.8585C77.1843 20.846 76.5948 24.3134 71.0123 24.3134C65.4298 24.3134 64.8403 20.8807 64.8403 16.8585C64.8403 12.9056 65.4298 9.43823 71.0123 9.43823C76.5948 9.43823 77.1843 12.9056 77.1843 16.8585ZM71.0123 21.0194C71.9138 21.0194 72.1219 20.1525 72.1219 16.8585C72.1219 13.5644 71.9138 12.6976 71.0123 12.6976C70.1108 12.6976 69.9027 13.5644 69.9027 16.8585C69.9027 20.1525 70.1108 21.0194 71.0123 21.0194Z" fill="#007DA4"/>
<path d="M77.9819 9.81965H82.9057V11.9001H82.9403C83.4258 10.5478 84.57 9.43823 85.957 9.43823C86.5118 9.43823 86.6505 9.47291 86.8238 9.50758V14.1192C86.6505 14.0846 86.4424 14.0499 86.1997 14.0499C85.957 14.0152 85.7489 14.0152 85.2288 14.0152C83.4951 14.0152 83.079 14.9167 83.079 16.6158V23.932H77.9819V9.81965Z" fill="#007DA4"/>
<path d="M87.6213 9.81964H92.6144V11.4493H92.6838C92.8571 10.7558 93.3772 9.4729 95.5964 9.4729C100 9.4729 100 13.7725 100 17.1359C100 21.0887 99.4105 24.3481 95.9084 24.3481C94.5562 24.3481 93.2385 23.6199 92.7878 22.337H92.7531V27.6421H87.6907V9.81964H87.6213ZM93.7587 13.2177C92.7531 13.2177 92.6144 14.2233 92.6144 16.8932C92.6144 19.5284 92.7878 20.5339 93.7587 20.5339C94.7642 20.5339 94.9029 19.5284 94.9029 16.8932C94.9376 14.2233 94.7642 13.2177 93.7587 13.2177Z" fill="#007DA4"/>
<path d="M0 14.1885L2.63523 12.4202L0 10.4091V14.1885Z" fill="#007DA4"/>
<path d="M5.37451 27.6075H10.957V23.8627L5.37451 27.6075Z" fill="#007DA4"/>
<path d="M3.50195 16.8585L4.54218 17.6213H9.63927L8.59904 16.8585H3.50195Z" fill="#007DA4"/>
<path d="M1.49097 9.43826H7.07349L8.35644 8.60608H2.73923L1.49097 9.43826Z" fill="#007DA4"/>
<path d="M7.28164 21.1234L5.0625 22.6144H9.25806L7.28164 21.1234Z" fill="#007DA4"/>
<path d="M5.61719 18.4535L7.31622 19.7018L9.15394 18.4535H5.61719Z" fill="#007DA4"/>
<path d="M0 15.7142V24.6255L6.27601 20.3952L0 15.7142Z" fill="#007DA4"/>
<path d="M10.9571 5.27734H7.66306L6.41479 6.10952H10.9571V5.27734Z" fill="#007DA4"/>
<path d="M1.76831 10.2704L3.71006 11.7267L5.89453 10.2704H1.76831Z" fill="#007DA4"/>
<path d="M10.957 18.6615L8.28711 20.4299L10.957 22.441V18.6615Z" fill="#007DA4"/>
<path d="M4.71558 12.4548L10.9569 17.1358V8.25928L4.71558 12.4548Z" fill="#007DA4"/>
<path d="M5.54785 5.2782H0V9.023L5.54785 5.2782Z" fill="#007DA4"/>
<path d="M3.84861 23.4465L2.60034 24.2787H8.21754L9.46581 23.4465H3.84861Z" fill="#007DA4"/>
<path d="M1.38694 25.111L0.138672 25.9431H5.75587L7.00414 25.111H1.38694Z" fill="#007DA4"/>
<path d="M1.76831 14.4313H5.37442L3.67539 13.1483L1.76831 14.4313Z" fill="#007DA4"/>
<path d="M9.53517 7.77383L10.8181 6.94165H5.2009L3.95264 7.77383H9.53517Z" fill="#007DA4"/>
<path d="M0 26.7753V27.6074H3.32871L4.54231 26.7753H0Z" fill="#007DA4"/>
<path d="M1.38696 15.2634L2.42719 16.0263H7.4896L6.44938 15.2634H1.38696Z" fill="#007DA4"/>
</svg>
