<svg width="158" height="56" viewBox="0 0 158 56" fill="none" xmlns="http://www.w3.org/2000/svg">
<path d="M61.3005 0.283557C61.6405 0.151414 61.9805 0 62.3581 0H96.3232C96.8328 0.0376242 97.324 0.265204 97.7768 0.491866C98.3606 0.775526 98.886 1.1665 99.3257 1.64445C99.6545 1.96052 99.9343 2.32394 100.156 2.7227C101.837 5.61518 103.517 8.50122 105.197 11.3808C105.367 11.702 105.594 12.0049 105.707 12.3444C79.161 12.3637 93 12.3444 52.9366 12.3444C52.9517 12.2892 52.9579 12.2318 52.9549 12.1746C54.7494 9.11239 56.5045 6.04923 58.2797 2.98699C59.0156 1.8133 60.0357 0.811213 61.3005 0.283557Z" fill="#FDB314"/>
<path d="M104.48 15.4433H106.496C106.855 15.4433 107.214 15.4241 107.572 15.5002C107.628 15.6172 107.691 15.7306 107.761 15.8398C109.442 18.657 111.084 21.4926 112.764 24.3281C113.041 24.8069 113.281 25.3064 113.482 25.8221C113.539 26.0295 113.614 26.2378 113.671 26.4452C113.69 26.5369 113.708 26.6535 113.727 26.748C113.879 27.4665 113.841 28.2227 113.727 28.9596C113.69 29.1303 113.636 29.3 113.595 29.4707C113.539 29.6781 113.463 29.8864 113.387 30.0938C113.384 30.1402 113.371 30.1855 113.35 30.2269C113.258 30.4159 113.18 30.6049 113.104 30.794C112.727 31.5878 112.255 32.3246 111.839 33.1001C111.106 34.3288 110.404 35.5952 109.687 36.8239C108.953 38.0527 108.271 39.32 107.535 40.5295H105.213C104.949 40.5423 104.684 40.5359 104.42 40.5102V15.5947C104.425 15.5394 104.445 15.4866 104.48 15.4433Z" fill="#FDB314"/>
<path d="M51.2557 15.481C52.2941 15.4617 53.3334 15.481 54.3718 15.481C54.3901 15.9728 54.3333 16.4831 54.4094 16.9749C54.4277 18.8102 54.4094 20.6612 54.4277 22.4947V40.3212C54.4341 40.3498 54.4331 40.3795 54.425 40.4076C54.4169 40.4358 54.4018 40.4614 54.3811 40.4822C54.3605 40.5029 54.335 40.5181 54.3069 40.5264C54.2788 40.5347 54.2491 40.5357 54.2206 40.5295H51.4445C51.3953 40.5335 51.346 40.5232 51.3026 40.4998C51.2591 40.4763 51.2234 40.4407 51.1998 40.3973C49.519 37.4853 47.8323 34.5613 46.1399 31.6254C45.4791 30.4535 44.931 29.1477 45.0071 27.7712C44.9686 27.0371 45.1574 26.2965 45.403 25.6156C45.4598 25.4642 45.535 25.3321 45.5918 25.1807C45.9886 24.3493 46.4982 23.5738 46.951 22.7801C48.4054 20.3391 49.8397 17.9201 51.2557 15.481Z" fill="#FDB314"/>
<path d="M53.0878 43.611C59.8469 43.5917 66.6244 43.611 73.3835 43.611H105.707C105.707 43.6679 105.688 43.7239 105.688 43.7624C105.138 44.669 104.63 45.5977 104.102 46.5218C103.442 47.6753 102.781 48.8095 102.138 49.9438C101.666 50.7752 101.176 51.5882 100.722 52.4389L100.666 52.4775C100.446 52.9487 100.153 53.3823 99.7977 53.7622C99.6044 53.9842 99.3962 54.1927 99.1745 54.3862C99.1369 54.3862 99.0608 54.4055 99.0233 54.4055C99.0019 54.4465 98.9892 54.4915 98.9857 54.5376C98.4761 54.8781 97.9849 55.2369 97.3992 55.4452C97.0312 55.5926 96.6525 55.7119 96.2665 55.8021C96.1265 55.8182 95.9878 55.8436 95.8513 55.8783C95.1529 55.9343 94.4545 55.8967 93.7553 55.8967H63.5468C62.4525 55.9343 61.3756 55.5379 60.4509 54.9891C59.7228 54.5491 59.0929 53.9637 58.6005 53.2694C56.9582 50.4338 55.3534 47.5799 53.711 44.7241C53.503 44.3671 53.2574 44.0074 53.0878 43.611Z" fill="#FDB314"/>
<path d="M64.0005 15.1222C64.9122 14.9777 65.8381 14.9469 66.7573 15.0304C68.0404 15.1433 69.362 15.4461 70.4004 16.2399C70.8136 16.5603 71.1503 16.969 71.3857 17.4362C71.6212 17.9034 71.7495 18.4174 71.7614 18.9405V24.6879H67.1725V19.3939C67.1533 18.9598 67.0809 18.4303 66.6629 18.1844C66.2853 17.9954 65.8509 17.9761 65.4357 18.033C65.2821 18.0351 65.131 18.072 64.9935 18.1408C64.8561 18.2096 64.736 18.3086 64.6421 18.4303C64.3781 18.8084 64.3964 19.281 64.3781 19.7151V36.3477C64.3964 36.8203 64.3589 37.3498 64.6613 37.7471C64.9253 38.0683 65.3597 38.1252 65.7565 38.1436C66.1524 38.1436 66.6061 38.1059 66.8701 37.7847C67.1157 37.4819 67.1725 37.0506 67.1725 36.6689V31.1528C66.5685 31.1528 65.9636 31.1721 65.3395 31.1335V28.0887H71.755V37.2195C71.7277 38.0711 71.3922 38.8839 70.811 39.5063C70.0778 40.301 69.0357 40.7167 67.9973 40.925C66.9406 41.1516 65.8638 41.17 64.807 41.114C63.6743 41.0223 62.5222 40.7736 61.559 40.1688C60.8799 39.7522 60.3135 39.1282 60.0486 38.372C59.8415 37.8215 59.7847 37.2195 59.7847 36.6285V19.1874C59.8039 18.2798 60.0679 17.3521 60.6911 16.673C61.5086 15.7645 62.7733 15.3332 64.0005 15.1222Z" fill="#102E87"/>
<path d="M91.3953 15.2543C92.7986 14.9496 94.2474 14.9185 95.6625 15.1625C96.7623 15.3516 97.8713 15.7297 98.6869 16.5051C99.3853 17.1474 99.7629 18.0926 99.7867 19.0378V24.709H95.1905V19.47C95.1722 19.0727 95.1337 18.6377 94.8505 18.3358C94.5673 18.0523 94.1521 18.033 93.7938 18.0146C93.4162 18.033 93.0001 18.0523 92.7361 18.3542C92.4154 18.6946 92.4154 19.2048 92.3961 19.6591V36.3477C92.4154 36.8203 92.3961 37.3305 92.661 37.7242C92.8874 38.0646 93.3401 38.1215 93.7177 38.1399C94.1146 38.1399 94.5865 38.1215 94.8697 37.7994C95.1337 37.4975 95.1722 37.1002 95.1905 36.7221V31.1244H99.7785V37.1644C99.7592 38.0344 99.4385 38.908 98.8345 39.5274C98.2113 40.2083 97.3434 40.6047 96.4745 40.8507C95.2473 41.1911 93.9633 41.2287 92.6986 41.1342C91.377 41.0021 89.9793 40.6616 88.9602 39.7357C88.205 39.0741 87.8082 38.0527 87.7898 37.0506V19.0956C87.8082 18.1881 88.1289 17.2603 88.7906 16.6179C89.4698 15.8783 90.433 15.481 91.3953 15.2543Z" fill="#102E87"/>
<path d="M85.297 17.598C84.7471 16.7859 83.8435 16.2564 82.9187 15.9728C81.5587 15.5562 80.1427 15.481 78.7267 15.5002H74.026C73.9976 15.8398 73.9976 16.1811 74.026 16.5207C73.9885 16.9749 74.0444 17.4475 74.0068 17.8972C74.0636 18.5588 73.9692 19.2397 74.026 19.9013C74.026 20.6355 74.0068 21.3568 74.026 22.0936C74.026 22.6608 73.9885 23.2279 74.0068 23.795C74.026 24.8163 73.9692 25.8561 74.026 26.8765C73.9692 27.5381 74.026 28.219 74.026 28.8807C73.9692 29.4102 74.0444 29.9204 74.0068 30.4499C73.9885 31.0353 74.026 31.6217 74.0068 32.2265C74.0636 33.2093 73.9692 34.193 74.026 35.1758C74.0068 35.5163 74.0068 35.8375 74.0068 36.1779C74.0444 36.7827 73.9692 37.3874 74.026 37.9921C73.9885 38.4088 74.0444 38.8245 74.0068 39.2402C73.9885 39.7128 74.0068 40.1854 74.0068 40.6772C75.0076 40.6956 76.0231 40.7148 77.0312 40.6956C77.56 40.6956 78.1081 40.7148 78.636 40.6772V31.039C79.9191 31.0014 81.2232 31.1308 82.4852 30.8316C83.486 30.605 84.4676 30.0755 85.0908 29.2248C85.7699 28.3172 86.0156 27.1637 86.0348 26.0671V20.5281C86.0339 19.5269 85.8634 18.4533 85.297 17.598ZM81.4267 22.1735V26.6911C81.4084 26.9563 81.4084 27.2417 81.2196 27.4473C80.9923 27.7308 80.6339 27.8446 80.2756 27.9199C79.7257 28.0337 79.1611 27.996 78.614 27.996V18.5249C79.1639 18.5249 79.7138 18.4872 80.2371 18.6166C80.4134 18.6513 80.5804 18.7232 80.7268 18.8275C80.8733 18.9318 80.996 19.066 81.0867 19.2214C81.3515 19.6747 81.3891 20.2234 81.3891 20.7337C81.4459 21.2063 81.4267 21.6816 81.4267 22.1735Z" fill="#102E87"/>
<path d="M113.806 53.0491C113.634 52.5099 113.262 52.0568 112.768 51.7818C112.296 51.4983 111.711 51.4423 111.163 51.5368C110.673 51.6256 110.227 51.8786 109.898 52.2544C109.313 52.8968 109.181 53.8998 109.54 54.6936C109.697 55.0213 109.929 55.307 110.218 55.5271C110.507 55.7473 110.844 55.8956 111.201 55.96C112.089 56.1297 113.07 55.7516 113.562 54.9771C113.939 54.4256 114.012 53.6915 113.806 53.0491ZM112.712 55.2607C112.051 55.7516 111.069 55.714 110.465 55.1689C109.69 54.5266 109.615 53.2024 110.314 52.4848C110.524 52.2562 110.79 52.086 111.086 51.9908C111.382 51.8955 111.697 51.8784 112.002 51.9411C112.306 52.0038 112.589 52.1442 112.823 52.3486C113.057 52.553 113.235 52.8146 113.338 53.1079C113.405 53.3158 113.443 53.5319 113.452 53.7502C113.429 54.3339 113.187 54.9157 112.712 55.2561V55.2607Z" fill="#102E87"/>
<path d="M112.032 53.9328C112.202 53.8759 112.39 53.8411 112.504 53.6869C112.693 53.4786 112.693 53.1767 112.636 52.9115C112.561 52.6096 112.221 52.4582 111.938 52.4582H110.767V55.0478H111.163V53.9328H111.621C111.828 54.2917 112.055 54.6514 112.263 55.034H112.754C112.523 54.6697 112.278 54.3109 112.032 53.9328ZM111.163 53.5924V52.817C111.446 52.817 111.73 52.7793 112.013 52.8555C112.315 52.9473 112.315 53.4226 112.051 53.5355C111.767 53.63 111.466 53.5731 111.163 53.5924Z" fill="#102E87"/>
</svg>
