<svg width="48" height="48" viewBox="0 0 48 48" fill="none" xmlns="http://www.w3.org/2000/svg">
<g clip-path="url(#clip0_687_18247)">
<path d="M44.9025 22.6274C43.2254 21.2256 41.0865 20.4984 38.9025 20.5874C38.4627 17.4317 36.9939 14.5094 34.7241 12.2734C32.4542 10.0375 29.51 8.61298 26.3481 8.22073C23.1862 7.82848 19.9832 8.49043 17.2358 10.1039C14.4884 11.7175 12.3501 14.1924 11.1525 17.1449C8.5167 16.9755 5.91764 17.8329 3.9 19.5374C2.69492 20.5512 1.72269 21.813 1.04965 23.2368C0.376606 24.6605 0.0185819 26.2127 2.70428e-06 27.7874C-0.00200695 30.6134 1.11615 33.3251 3.10953 35.3283C5.10291 37.3315 7.809 38.463 10.635 38.4749H39.045C40.8872 38.4784 42.6862 37.9164 44.1988 36.865C45.7115 35.8135 46.8651 34.3231 47.5038 32.5952C48.1425 30.8672 48.2355 28.9848 47.7703 27.2023C47.3051 25.4198 46.3041 23.8229 44.9025 22.6274ZM39.045 35.4749H10.6425C8.61474 35.465 6.67318 34.6536 5.24143 33.2176C3.80968 31.7816 3.00394 29.8377 3 27.8099C3.01053 26.665 3.26869 25.536 3.75676 24.5003C4.24483 23.4646 4.95124 22.5468 5.8275 21.8099C7.1338 20.708 8.79106 20.1095 10.5 20.1224C10.9778 20.1229 11.4547 20.1656 11.925 20.2499L13.23 20.4824L13.6125 19.2149C14.4307 16.6423 16.1303 14.4409 18.412 12.9982C20.6936 11.5554 23.4112 10.9639 26.0861 11.3277C28.761 11.6915 31.2218 12.9874 33.0353 14.9871C34.8488 16.9869 35.8986 19.5623 36 22.2599L36.075 23.9999L37.77 23.7299C38.6698 23.5335 39.6021 23.5406 40.4988 23.7508C41.3954 23.961 42.2338 24.369 42.9525 24.9449C43.5996 25.5179 44.117 26.2224 44.4701 27.0114C44.8232 27.8003 45.0038 28.6556 45 29.5199C44.9882 31.0956 44.357 32.6035 43.2428 33.7177C42.1286 34.8319 40.6207 35.4631 39.045 35.4749Z" fill="#FF6633"/>
<path d="M24.825 18.1349H24.0225L19.2 25.3724V26.1749H23.175V30.9974H23.9775L28.8 23.7599V22.9574H24.825V18.1349Z" fill="#FF6633"/>
</g>
<defs>
<clipPath id="clip0_687_18247">
<rect width="48" height="48" fill="white"/>
</clipPath>
</defs>
</svg>
