<svg width="48" height="48" viewBox="0 0 48 48" fill="none" xmlns="http://www.w3.org/2000/svg">
<path d="M37.1701 20.7075H33.5926V14.115C33.5926 11.5709 32.5819 9.13098 30.783 7.33204C28.9841 5.5331 26.5442 4.52246 24.0001 4.52246C21.456 4.52246 19.0161 5.5331 17.2172 7.33204C15.4182 9.13098 14.4076 11.5709 14.4076 14.115V20.7075H10.8301L9.33008 22.2075V42L10.8301 43.5H37.1701L38.6701 42V22.2075L37.1701 20.7075ZM17.4076 14.115C17.4076 12.3665 18.1021 10.6897 19.3385 9.45336C20.5748 8.21703 22.2516 7.52246 24.0001 7.52246C25.7485 7.52246 27.4253 8.21703 28.6617 9.45336C29.898 10.6897 30.5926 12.3665 30.5926 14.115V20.7075H17.4076V14.115ZM35.6701 40.5H12.3301V23.7075H35.6701V40.5Z" fill="#FF6633"/>
<path d="M24.0001 26.85C23.3463 26.8485 22.7112 27.0683 22.1983 27.4737C21.6853 27.8792 21.3247 28.4463 21.1752 29.0827C21.0256 29.7192 21.0959 30.3876 21.3746 30.979C21.6533 31.5704 22.124 32.0501 22.7101 32.34L21.9601 37.05H26.0401L25.2901 32.34C25.8761 32.0501 26.3468 31.5704 26.6255 30.979C26.9042 30.3876 26.9745 29.7192 26.825 29.0827C26.6754 28.4463 26.3148 27.8792 25.8019 27.4737C25.289 27.0683 24.6539 26.8485 24.0001 26.85Z" fill="#FF6633"/>
</svg>
