<svg width="48" height="48" viewBox="0 0 48 48" fill="none" xmlns="http://www.w3.org/2000/svg">
<path d="M36.1274 10.2074L37.7399 7.67992C30.4574 2.99992 18.5399 2.99992 11.1749 7.67992L12.7499 10.2149C19.2524 6.11242 29.7224 6.11242 36.1274 10.2074Z" fill="#FF6633"/>
<path d="M24.3899 8.67742C20.6943 8.70925 17.0608 9.63105 13.797 11.3648C10.5332 13.0985 7.73523 15.5931 5.63989 18.6374L8.16739 20.2499C10.0056 17.6448 12.433 15.5105 15.252 14.0209C18.071 12.5312 21.2019 11.7283 24.3899 11.6774C33.3899 11.6774 39.1499 17.2724 40.9499 20.2274L43.4999 18.6749C41.4149 15.2174 34.7174 8.67742 24.3899 8.67742Z" fill="#FF6633"/>
<path d="M24.3974 13.3124C18.4649 13.3124 13.4699 15.8849 10.3424 20.5574C8.68065 23.123 7.66704 26.0539 7.38876 29.0979C7.11049 32.142 7.57588 35.2081 8.74489 38.0324L11.5199 36.8924C10.5343 34.5237 10.1387 31.951 10.3674 29.3956C10.596 26.8402 11.4419 24.3786 12.8324 22.2224C14.1042 20.3409 15.8318 18.8121 17.8541 17.7787C19.8764 16.7453 22.1275 16.2408 24.3974 16.3124C34.8299 16.3124 37.6424 24.8699 37.8449 28.1699C38.0774 32.0399 35.8649 32.4974 35.4449 32.5424L35.2049 32.5874C34.0976 32.8301 32.9396 32.6509 31.9574 32.0849C31.1099 31.4924 30.5849 30.4049 30.4049 28.8599C29.9174 24.6224 26.6549 22.8599 23.8799 23.0249C20.8274 23.2049 17.5424 25.6724 17.5424 30.6824C17.5424 37.9049 24.1724 43.7174 30.2924 44.9324L30.8924 41.9924C26.5649 41.1449 20.5424 36.7499 20.5424 30.6824C20.5424 27.5999 22.3049 26.1224 24.0524 26.0249C25.4249 25.9424 27.1424 26.7299 27.4274 29.2049C27.7124 31.6799 28.6724 33.4649 30.2774 34.5674C31.9274 35.5879 33.9085 35.9293 35.8049 35.5199C37.7549 35.3024 41.1749 33.4799 40.8374 28.0199C40.5899 23.9024 37.1474 13.3124 24.3974 13.3124Z" fill="#FF6633"/>
<path d="M16.0349 27.1199C17.2499 23.2499 20.0774 20.9474 23.6474 20.9474C32.0399 20.9474 32.6924 28.1774 32.6924 30.3899H35.6924C35.6924 24.6524 32.5424 17.9474 23.6474 17.9474C18.7649 17.9474 14.7524 21.1274 13.1474 26.1974C12.1788 29.4217 12.2566 32.8699 13.3695 36.0471C14.4825 39.2244 16.5735 41.9674 19.3424 43.8824L21.0299 41.3999C18.7998 39.8488 17.1163 37.6332 16.2194 35.069C15.3224 32.5048 15.2579 29.7229 16.0349 27.1199Z" fill="#FF6633"/>
<path d="M27.9374 35.3399C27.1163 34.5273 26.4751 33.5512 26.0552 32.475C25.6353 31.3988 25.4461 30.2464 25.4999 29.0924H22.4999C22.4516 30.6502 22.7258 32.2012 23.3053 33.648C23.8848 35.0948 24.7571 36.4062 25.8674 37.4999C28.4995 39.8335 31.9211 41.0778 35.4374 40.9799C35.7074 40.9799 35.9849 40.9799 36.2549 40.9799L36.1124 37.9799C32.8424 38.1299 29.8574 37.1699 27.9374 35.3399Z" fill="#FF6633"/>
</svg>
