<?xml version="1.0" encoding="UTF-8"?>
<svg width="13px" height="19px" viewBox="0 0 13 19" version="1.1" xmlns="http://www.w3.org/2000/svg" xmlns:xlink="http://www.w3.org/1999/xlink">
    <!-- Generator: Sketch 51 (57462) - http://www.bohemiancoding.com/sketch -->
    <title>Glyphs/Icons/Lock</title>
    <desc>Created with Sketch.</desc>
    <defs>
        <path d="M12.5,15.5 C13.0522847,15.5 13.5,15.0522847 13.5,14.5 C13.5,13.9477153 13.0522847,13.5 12.5,13.5 C11.9477153,13.5 11.5,13.9477153 11.5,14.5 C11.5,15.0522847 11.9477153,15.5 12.5,15.5 Z M12.5,16.5 C11.3954305,16.5 10.5,15.6045695 10.5,14.5 C10.5,13.3954305 11.3954305,12.5 12.5,12.5 C13.6045695,12.5 14.5,13.3954305 14.5,14.5 C14.5,15.6045695 13.6045695,16.5 12.5,16.5 Z M8.5,6.5 L9.5,6.5 L9.5,8.5 L8.5,8.5 L8.5,6.5 Z M15.5,6.5 L16.5,6.5 L16.5,8.5 L15.5,8.5 L15.5,6.5 Z M7,10.0027601 L7,18.9972399 C7,19.5528524 7.44762988,20 8.00276013,20 L16.9972399,20 C17.5528524,20 18,19.5523701 18,18.9972399 L18,10.0027601 C18,9.44714764 17.5523701,9 16.9972399,9 L8.00276013,9 C7.44714764,9 7,9.44762988 7,10.0027601 Z M6,10.0027601 C6,8.89666625 6.89354265,8 8.00276013,8 L16.9972399,8 C18.1033337,8 19,8.89354265 19,10.0027601 L19,18.9972399 C19,20.1033337 18.1064574,21 16.9972399,21 L8.00276013,21 C6.89666625,21 6,20.1064574 6,18.9972399 L6,10.0027601 Z M16.5,6.5 L15.5,6.5 C15.5,4.84314575 14.1568542,3.5 12.5,3.5 C10.8431458,3.5 9.5,4.84314575 9.5,6.5 L8.5,6.5 C8.5,4.290861 10.290861,2.5 12.5,2.5 C14.709139,2.5 16.5,4.290861 16.5,6.5 Z" id="path-1"></path>
    </defs>
    <g id="Page-1" stroke="none" stroke-width="1" fill="none" fill-rule="evenodd">
        <g id="Authentication/Log-In---Ideal-Layout" transform="translate(-765.000000, -19.000000)">
            <rect fill="#FFFFFF" x="0" y="0" width="1083" height="1452"></rect>
            <g id="Group-2" transform="translate(759.000000, 17.000000)">
                <g id="Glyphs/Icons/Lock">
                    <mask id="mask-2" fill="white">
                        <use xlink:href="#path-1"></use>
                    </mask>
                    <use id="lock" fill="#56565E" fill-rule="nonzero" xlink:href="#path-1"></use>
                </g>
            </g>
        </g>
    </g>
</svg>