<svg width="40" height="40" fill="none" xmlns="http://www.w3.org/2000/svg"><g clip-path="url(#clip0_6189_4486)"><ellipse cx="19.997" cy="19.996" rx="18.437" ry="18.433" fill="#fff"/><path fill-rule="evenodd" clip-rule="evenodd" d="M19.915 31.94c-2.695-1.305-4.913-3.015-6.6-5.086a17.02 17.02 0 01-3.123-5.959 18.747 18.747 0 01-.73-6.574c3.756-2.62 7.31-3.225 9.127-3.351h.026c.628-.05 1.066-.05 1.228-.05h.146c.162 0 .602.004 1.228.05h.036c1.816.128 5.368.736 9.12 3.351a18.652 18.652 0 01-.71 6.493 17.029 17.029 0 01-3.114 5.998c-1.69 2.09-3.922 3.813-6.634 5.129zm-.196-15.869a2.906 2.906 0 00-2.688 2.615v-.004a2.901 2.901 0 001.76 2.951v3.29c0 .22.18.4.4.4h1.482a.4.4 0 00.4-.4v-3.286a2.905 2.905 0 00-1.354-5.566z" fill="#fff"/><path fill-rule="evenodd" clip-rule="evenodd" d="M19.893 33.645c-7.04-3.278-12.05-10.238-11.93-18.426.007-.642.05-1.274.125-1.905v-.056a20.067 20.067 0 0123.744.022c.074.73.11 1.465.104 2.199-.066 8.146-5.101 15.028-12.043 18.166zM18.59 10.968c-1.817.126-5.371.732-9.127 3.351a18.747 18.747 0 00.73 6.577 17.019 17.019 0 003.124 5.956c1.686 2.072 3.903 3.781 6.6 5.087 2.711-1.316 4.943-3.04 6.633-5.129a17.03 17.03 0 003.114-5.998c.616-2.106.857-4.304.71-6.493-3.752-2.615-7.304-3.223-9.12-3.35h-.036c-.628-.05-1.066-.05-1.228-.05h-.146c-.162 0-.604.003-1.228.05h-.026z" fill="url(#paint0_linear_6189_4486)"/><path d="M7.962 15.219c0-.642.05-1.274.118-1.898v-.138c.02-.166.04-.332.064-.495.224-1.6.643-3.166 1.248-4.663a20.092 20.092 0 015.02-7.253l-.076.02-.186.068a20.041 20.041 0 00-8 33.602c.4.122.8.232 1.218.33 2.58.598 5.251.68 7.862.24a18.902 18.902 0 004.495-1.308l.08-.038.044-.02.048-.022C12.854 30.367 7.842 23.407 7.962 15.22z" fill="url(#paint1_linear_6189_4486)"/><path d="M25.72.849A20.078 20.078 0 0014.43.773a20.092 20.092 0 00-5.02 7.252 19.723 19.723 0 00-1.312 5.159v.082a20.067 20.067 0 0123.744.014l.13.1c.2.155.414.315.614.48a20.166 20.166 0 013.314 3.399c.138.181.272.365.4.55a19.906 19.906 0 013.14 6.862C41.93 14.346 35.902 3.879 25.72.849z" fill="url(#paint2_linear_6189_4486)"/><path d="M36.296 17.817l-.4-.55a20.16 20.16 0 00-3.314-3.4c-.2-.164-.4-.324-.614-.48l-.13-.1c.074.731.109 1.466.104 2.2-.066 8.146-5.101 15.028-12.043 18.166l-.048.022-.044.02-.08.038a18.904 18.904 0 01-4.495 1.307c-2.611.44-5.283.358-7.862-.24-.42-.098-.836-.2-1.246-.33a20.059 20.059 0 0033.318-9.783 19.908 19.908 0 00-3.146-6.87z" fill="url(#paint3_linear_6189_4486)"/><path d="M18.775 21.633v3.286c0 .22.18.4.4.4h1.482a.4.4 0 00.4-.4v-3.286a2.905 2.905 0 10-2.298 0h.016z" fill="url(#paint4_linear_6189_4486)"/><mask id="a" style="mask-type:alpha" maskUnits="userSpaceOnUse" x="6" y="13" width="34" height="28"><path d="M36.296 17.817l-.4-.55a20.16 20.16 0 00-3.314-3.4c-.2-.164-.4-.324-.614-.48l-.13-.1c.074.731.109 1.466.104 2.2-.066 8.146-5.101 15.028-12.043 18.166l-.048.022-.044.02-.08.038a18.904 18.904 0 01-4.495 1.307c-2.611.44-5.283.358-7.862-.24-.42-.098-.836-.2-1.246-.33a20.059 20.059 0 0033.318-9.783 19.908 19.908 0 00-3.146-6.87z" fill="#fff"/></mask><g mask="url(#a)"><ellipse opacity=".17" cx="12.603" cy="12.615" rx="12.603" ry="12.615" transform="rotate(-.362 -1049.944 -3069.313)" fill="url(#paint5_radial_6189_4486)"/><ellipse opacity=".2" cx="12.769" cy="12.783" rx="12.769" ry="12.783" transform="rotate(-.362 377.455 1740.336)" fill="url(#paint6_radial_6189_4486)"/><ellipse opacity=".38" cx="12.603" cy="12.615" rx="12.603" ry="12.615" transform="rotate(-.362 3817.825 -2311.165)" fill="url(#paint7_radial_6189_4486)"/><ellipse opacity=".05" cx="19.893" cy="12.736" rx="12.025" ry="8.57" fill="url(#paint8_radial_6189_4486)"/></g><path d="M20.006 38.598c10.273 0 18.593-8.32 18.593-18.594 0-10.273-8.32-18.593-18.593-18.593S1.412 9.73 1.412 20.004c0 10.257 8.321 18.594 18.594 18.594z" fill="#fff"/><path d="M7.973 15.22c-.112 8.193 4.896 15.153 11.937 18.434 6.945-3.137 11.969-10.017 12.049-18.162 0-.736-.032-1.472-.112-2.208A20.046 20.046 0 008.1 13.268v.064a14.77 14.77 0 00-.128 1.888zm1.504-.896c3.744-2.624 7.297-3.232 9.12-3.344h.033c.624-.048 1.072-.048 1.232-.048h.144c.16 0 .608 0 1.232.048h.016c1.824.128 5.36.736 9.12 3.344a18.964 18.964 0 01-.703 6.497 16.82 16.82 0 01-3.12 6c-1.68 2.096-3.92 3.808-6.625 5.137-2.688-1.313-4.912-3.009-6.593-5.089a17.004 17.004 0 01-3.12-5.952 18.395 18.395 0 01-.736-6.593z" fill="url(#paint9_linear_6189_4486)"/><path d="M7.973 15.22c.016-.64.048-1.28.112-1.905v-.064c0-.016 0-.048.016-.08.016-.16.032-.336.064-.496.224-1.6.64-3.168 1.248-4.656A20.343 20.343 0 0114.42.77l-.064.032-.208.064A19.993 19.993 0 00.548 15.38a20.016 20.016 0 005.6 19.09c.4.127.8.24 1.216.335a19.99 19.99 0 007.857.24 19.08 19.08 0 004.496-1.312l.08-.032.048-.016.048-.016C12.87 30.373 7.861 23.412 7.973 15.22z" fill="url(#paint10_linear_6189_4486)"/><path d="M25.734.85A20.098 20.098 0 0014.437.77a20.106 20.106 0 00-5.024 7.265 19.645 19.645 0 00-1.248 4.657c-.016.16-.048.336-.064.496 0 .032 0 .048-.016.08a20.07 20.07 0 0123.761.016l.128.096c.209.16.417.32.609.48a20.23 20.23 0 013.312 3.408c.144.176.272.368.4.544a19.82 19.82 0 013.136 6.865C41.944 14.356 35.911 3.875 25.734.85z" fill="url(#paint11_linear_6189_4486)"/><path d="M36.295 17.828c-.128-.192-.272-.368-.4-.544a20.23 20.23 0 00-3.312-3.408c-.208-.16-.4-.32-.608-.48l-.128-.112c.08.736.112 1.472.112 2.208-.064 8.145-5.105 15.025-12.05 18.161l-.047.017-.048.015-.08.032a19.082 19.082 0 01-4.497 1.313c-2.608.448-5.28.352-7.856-.24a18.028 18.028 0 01-1.248-.336 20.034 20.034 0 0019.473 4.72 20.09 20.09 0 0013.841-14.497 19.78 19.78 0 00-3.152-6.849z" fill="url(#paint12_linear_6189_4486)"/><path d="M18.79 21.636v3.28c0 .225.191.4.415.4h1.488c.224 0 .4-.175.4-.4v-3.28a2.91 2.91 0 001.697-3.248 2.912 2.912 0 00-2.849-2.32c-1.376 0-2.56.976-2.848 2.32-.288 1.344.432 2.704 1.696 3.248z" fill="url(#paint13_linear_6189_4486)"/><path opacity=".05" d="M19.909 21.317c6.64 0 12.017-3.84 12.017-8.577s-5.377-8.577-12.017-8.577S7.892 8.003 7.892 12.74c-.016 4.736 5.376 8.577 12.017 8.577z" fill="url(#paint14_radial_6189_4486)"/><path opacity=".17" d="M25.734.85c-1.6-.48-3.265-.752-4.945-.832a12.624 12.624 0 00-.944 9.377h.272a20.008 20.008 0 0111.713 3.889l.128.095c.208.16.416.32.608.48a20.226 20.226 0 013.312 3.409c.112.16.24.32.352.464 1.2-.432 2.32-1.056 3.345-1.824A20.029 20.029 0 0025.734.85z" fill="url(#paint15_radial_6189_4486)"/><path opacity=".2" d="M7.973 15.22c.016-.64.048-1.28.112-1.905v-.063c0-.017 0-.049.016-.08.016-.16.032-.337.064-.497a20.09 20.09 0 012.368-7.008 12.487 12.487 0 00-2.432-1.744 20.042 20.042 0 00-6.48 23.97c3.2.08 6.304-1.04 8.704-3.152a19.35 19.35 0 01-2.352-9.521z" fill="url(#paint16_radial_6189_4486)"/><path opacity=".38" d="M29.862 24.133a20.617 20.617 0 01-9.953 9.52l-.048.017-.048.016-.08.032a19.08 19.08 0 01-4.496 1.312c-.16.032-.32.048-.464.08a12.617 12.617 0 00.256 4.272 20.065 20.065 0 0022.658-10.048 12.661 12.661 0 00-7.825-5.2z" fill="url(#paint17_radial_6189_4486)"/><path d="M27.19 35.013H15.38v-.224c0-4.624 3.761-8.385 8.385-8.385h12.033a8.611 8.611 0 01-8.608 8.61z" fill="url(#paint18_linear_6189_4486)"/><path d="M20.261 28.837h1.712c.8 0 1.232.544 1.232 1.184 0 .64-.448 1.168-1.232 1.168h-.928v1.312h-.784v-3.664zm1.616.672h-.832v1.008h.832c.288 0 .56-.24.544-.528-.016-.288-.24-.48-.544-.48zm3.184 1.681h-.576v1.31h-.784v-3.664h1.712c.768 0 1.232.496 1.232 1.184 0 .656-.4.992-.8 1.088l.832 1.392h-.896l-.72-1.312zm.24-1.681h-.816v1.008h.816c.32 0 .544-.192.544-.512.016-.304-.224-.496-.544-.496zm3.313-.704c1.297-.192 2.289.64 2.289 1.872 0 1.104-.816 1.904-1.92 1.904-1.217 0-2.08-.96-1.889-2.24.096-.736.8-1.424 1.52-1.536zm.369.672c-.672 0-1.105.512-1.105 1.2s.433 1.2 1.105 1.2c.672 0 1.12-.528 1.12-1.2 0-.688-.448-1.2-1.12-1.2z" fill="#fff"/></g><defs><linearGradient id="paint0_linear_6189_4486" x1="7.96" y1="33.647" x2="31.938" y2="33.647" gradientUnits="userSpaceOnUse"><stop stop-color="#E6E6E6"/><stop offset=".16" stop-color="#F6F6F6"/><stop offset=".3" stop-color="#fff"/><stop offset=".7" stop-color="#fff"/><stop offset=".84" stop-color="#F6F6F6"/><stop offset="1" stop-color="#E6E6E6"/></linearGradient><linearGradient id="paint1_linear_6189_4486" x1="-2.154" y1="3.955" x2="6.457" y2="36.606" gradientUnits="userSpaceOnUse"><stop stop-color="#FF7800"/><stop offset=".6" stop-color="#FF7800"/><stop offset=".76" stop-color="#FC6F00"/><stop offset="1" stop-color="#F55A00"/></linearGradient><linearGradient id="paint2_linear_6189_4486" x1="6.508" y1="22.93" x2="38.559" y2="27.618" gradientUnits="userSpaceOnUse"><stop stop-color="#5E29DD"/><stop offset=".35" stop-color="#8050FF"/><stop offset="1" stop-color="#8050FF"/></linearGradient><linearGradient id="paint3_linear_6189_4486" x1="24.221" y1="9.108" x2="4.108" y2="35.358" gradientUnits="userSpaceOnUse"><stop stop-color="#F3AA0B"/><stop offset=".4" stop-color="#F1C80B"/><stop offset="1" stop-color="#F1C80B"/></linearGradient><linearGradient id="paint4_linear_6189_4486" x1="20.595" y1="27.378" x2="26.322" y2="21.176" gradientUnits="userSpaceOnUse"><stop stop-color="#2D364C"/><stop offset="1" stop-color="#4E5D85"/></linearGradient><linearGradient id="paint18_linear_6189_4486" x1="25.584" y1="35.288" x2="25.584" y2="26.176" gradientUnits="userSpaceOnUse"><stop offset="0" stop-color="#2F384F"/><stop offset="1" stop-color="#445274"/></linearGradient><linearGradient id="paint13_linear_6189_4486" x1="18.046" y1="24.492" x2="20.954" y2="16.502" gradientUnits="userSpaceOnUse"><stop stop-color="#2D364C"/><stop offset="1" stop-color="#4E5D85"/></linearGradient><linearGradient id="paint12_linear_6189_4486" x1="36.556" y1="20.566" x2="14.429" y2="39.133" gradientUnits="userSpaceOnUse"><stop stop-color="#F3AA0B"/><stop offset=".4" stop-color="#F1C80B"/><stop offset="1" stop-color="#F1C80B"/></linearGradient><linearGradient id="paint11_linear_6189_4486" x1="8.413" y1="10.444" x2="40.635" y2="13.263" gradientUnits="userSpaceOnUse"><stop stop-color="#5E29DD"/><stop offset=".35" stop-color="#8050FF"/><stop offset="1" stop-color="#8050FF"/></linearGradient><linearGradient id="paint9_linear_6189_4486" x1="7.975" y1="21.521" x2="31.949" y2="21.521" gradientUnits="userSpaceOnUse"><stop stop-color="#E6E6E6"/><stop offset=".16" stop-color="#F6F6F6"/><stop offset=".3" stop-color="#fff"/><stop offset=".7" stop-color="#fff"/><stop offset=".84" stop-color="#F6F6F6"/><stop offset="1" stop-color="#E6E6E6"/></linearGradient><linearGradient id="paint10_linear_6189_4486" x1="7.698" y1="1.497" x2="10.67" y2="35.458" gradientUnits="userSpaceOnUse"><stop stop-color="#FF7800"/><stop offset=".6" stop-color="#FF7800"/><stop offset=".76" stop-color="#FC6F00"/><stop offset="1" stop-color="#F55A00"/></linearGradient><radialGradient id="paint8_radial_6189_4486" cx="0" cy="0" r="1" gradientUnits="userSpaceOnUse" gradientTransform="matrix(11.993 0 0 8.54701 17.45 13.022)"><stop stop-color="#fff"/><stop offset="1" stop-color="#fff" stop-opacity=".01"/></radialGradient><radialGradient id="paint7_radial_6189_4486" cx="0" cy="0" r="1" gradientUnits="userSpaceOnUse" gradientTransform="matrix(12.49088 -2.01839 2.0202 12.50203 13.058 12.479)"><stop stop-color="#fff"/><stop offset="1" stop-color="#fff" stop-opacity=".01"/></radialGradient><radialGradient id="paint6_radial_6189_4486" cx="0" cy="0" r="1" gradientUnits="userSpaceOnUse" gradientTransform="rotate(.36 -2028.792 2038.942) scale(12.779 12.7929)"><stop stop-color="#fff"/><stop offset="1" stop-color="#fff" stop-opacity=".01"/></radialGradient><radialGradient id="paint14_radial_6189_4486" cx="0" cy="0" r="1" gradientUnits="userSpaceOnUse" gradientTransform="translate(13.655 12.918) scale(11.9935)"><stop stop-color="#fff"/><stop offset="1" stop-color="#fff" stop-opacity="0"/></radialGradient><radialGradient id="paint15_radial_6189_4486" cx="0" cy="0" r="1" gradientUnits="userSpaceOnUse" gradientTransform="matrix(12.36416 -2.44866 2.42718 12.25567 28.397 .438)"><stop stop-color="#fff"/><stop offset="1" stop-color="#fff" stop-opacity="0"/></radialGradient><radialGradient id="paint16_radial_6189_4486" cx="0" cy="0" r="1" gradientUnits="userSpaceOnUse" gradientTransform="matrix(12.7774 0 0 12.7775 1.934 6.829)"><stop stop-color="#fff"/><stop offset="1" stop-color="#fff" stop-opacity="0"/></radialGradient><radialGradient id="paint17_radial_6189_4486" cx="0" cy="0" r="1" gradientUnits="userSpaceOnUse" gradientTransform="rotate(-14.099 138.87 -77.105) scale(12.7482 12.3527)"><stop stop-color="#fff"/><stop offset="1" stop-color="#fff" stop-opacity="0"/></radialGradient><radialGradient id="paint5_radial_6189_4486" cx="0" cy="0" r="1" gradientUnits="userSpaceOnUse" gradientTransform="matrix(12.49088 -2.01839 2.0202 12.50203 13.119 12.4)"><stop stop-color="#fff"/><stop offset="1" stop-color="#fff" stop-opacity=".01"/></radialGradient><clipPath id="clip0_6189_4486"><path fill="#fff" d="M0 0h40v40H0z"/></clipPath></defs></svg>