<svg width="40" height="40" fill="none" xmlns="http://www.w3.org/2000/svg"><path d="M32.995 29.33c0-8.547-.755-23.925-12.745-24.08C8.65 5.1 6.15 20.578 6.962 29.268c.466.655.98 1.272 1.535 1.848C11.38 34.1 19.889 33.75 19.889 33.75s9.5.01 12.46-3.578c.223-.272.44-.552.646-.841z" fill="#FF7800"/><path d="M17.726 7.988a4.038 4.038 0 015.933 1.605l9.336 19.74A15.916 15.916 0 0036 20.113C36.062 11.276 28.948 4.063 20.11 4 11.273 3.938 4.06 11.052 4 19.889a15.914 15.914 0 002.961 9.38l.374-.082 6.093-1.344c.172-.039.263.193.112.283l-5.045 2.99A15.942 15.942 0 0019.89 36a15.964 15.964 0 0012.46-5.828L17.08 14.098a4.037 4.037 0 01.646-6.11zm2.865 18.144l-9.83.853a1.736 1.736 0 11.248-3.42l9.605 2.262c.17.041.152.29-.023.305zm-4.55-8.645l11.92 9.644c.136.11.013.326-.152.264L13.471 21.96a2.612 2.612 0 112.57-4.474z" fill="#fff"/></svg>