<svg width="40" height="40" fill="none" xmlns="http://www.w3.org/2000/svg"><path d="M29.804 27.61v6.733m-3.338-3.367h6.675m-23.87-3.444l-2.74 2.722m9.54-1.544l3.848-1.77a74.26 74.26 0 002.484-1.19m-6.333 2.96l2.276 5.271a.6.6 0 00.976.186l2.233-2.24a3 3 0 00.876-2.14l-.028-4.037m-6.333 2.96l-5.08-4.925m1.36 6.671l-1.147 1.121m2.874-14.066c-.42.804-.84 1.64-1.26 2.504m1.26-2.504l-1.26 2.504m1.26-2.504l-4.207.03a3 3 0 00-2.104.881L5.53 20.664a.6.6 0 00.199.98l5.26 2.141m3.088-6.274c1.562-3.249 3.464-6.71 6.72-8.493 3.39-1.857 7.512-2.668 11.371-2.25a.93.93 0 01.823.8c.51 3.808-.293 7.938-2.155 11.269-1.825 3.267-5.238 5.204-8.433 6.913m-9.585-5.735l-1.828 3.77m2.828-4.77l7.1 6.924m1.124-12.722c1.223-1.229 3.297-1.274 4.529-.031 1.215 1.224 1.227 3.239.031 4.478-1.213 1.216-3.301 1.23-4.529.032-1.2-1.21-1.186-3.241-.031-4.479z" stroke="#FFF" stroke-width="1.35" stroke-linecap="round" stroke-linejoin="round"/></svg>