<svg width="40" height="40" fill="none" xmlns="http://www.w3.org/2000/svg"><path d="M6.937 17.042a22.519 22.519 0 00.789 6.078c1.43 5.136 5.937 8.71 10.489 11.25 1.11.62 2.46.62 3.57 0 4.552-2.54 9.059-6.114 10.489-11.25a22.52 22.52 0 00.789-6.078c-.014-1.769-.01-3.538-.006-5.307a3.97 3.97 0 00-2.831-3.818c-2.84-.848-5.688-1.676-8.533-2.509a6.024 6.024 0 00-3.386 0c-2.845.833-5.692 1.661-8.533 2.51a3.97 3.97 0 00-2.831 3.817c.004 1.77.008 3.538-.006 5.307z" fill="#FFF" stroke="#FFF" stroke-width="1.35" stroke-linecap="round" stroke-linejoin="round"/><path d="M19.057 24.09a.675.675 0 00-.954-.955l.954.955zm-3.215-3.216l.477.478-.477-.478zm3.215-2.26a.675.675 0 00-.954-.955l.954.955zm1.886-3.795a.675.675 0 00.954.955l-.954-.955zm3.215 3.216l.477.477-.477-.477zm-3.215 2.26a.675.675 0 10.955.954l-.955-.954zm3.692.102a.675.675 0 00-.954.955l.954-.955zm-5.476 0a.675.675 0 10-.955.954l.955-.954zm-3.794-1.885a.675.675 0 00.954-.955l-.954.955zm3.215-3.216l.477-.477-.477.477zm2.26 3.215a.675.675 0 00.954-.955l-.954.955zm-2.737 4.624a1.261 1.261 0 01-1.784 0l-.954.955a2.611 2.611 0 003.692 0l-.954-.955zm-1.784 0a1.261 1.261 0 010-1.783l-.954-.955a2.611 2.611 0 000 3.693l.954-.955zm0-1.783l2.738-2.738-.954-.955-2.738 2.738.954.955zm5.578-5.578a1.261 1.261 0 011.784 0l.954-.955a2.611 2.611 0 00-3.692 0l.954.955zm1.784 0c.492.492.492 1.29 0 1.783l.954.955a2.611 2.611 0 000-3.693l-.954.955zm0 1.783l-2.738 2.738.955.954 2.737-2.737-.954-.955zm0 3.795c.492.492.492 1.29 0 1.783l.954.955a2.611 2.611 0 000-3.693l-.954.955zm0 1.783a1.261 1.261 0 01-1.784 0l-.954.955a2.611 2.611 0 003.692 0l-.954-.955zm-1.784 0l-2.738-2.738-.955.954 2.739 2.739.954-.955zm-5.578-5.578a1.261 1.261 0 010-1.783l-.954-.955a2.611 2.611 0 000 3.693l.954-.955zm0-1.783a1.261 1.261 0 011.784 0l.954-.955a2.611 2.611 0 00-3.692 0l.954.955zm1.784 0l2.737 2.737.954-.955-2.737-2.737-.954.955z" fill="#FF7800"/></svg>