<svg width="40" height="40" fill="none" xmlns="http://www.w3.org/2000/svg"><path d="M24.407 25.896a.917.917 0 00.906-1.053c-.25-1.626-.857-3.018-1.705-4.053-2.367 1.134-4.601 1.134-6.968 0-.848 1.035-1.456 2.427-1.705 4.053a.917.917 0 00.906 1.053h8.566zM20.123 11.75c1.778 0 3.22 1.457 3.22 3.25 0 1.797-1.442 3.251-3.22 3.251-1.778 0-3.218-1.454-3.218-3.25 0-1.794 1.44-3.251 3.218-3.251z" stroke="#FFF" stroke-width="1.35" stroke-linecap="round" stroke-linejoin="round"/><path clip-rule="evenodd" d="M7.726 23.12a22.519 22.519 0 01-.789-6.078c.014-1.769.01-3.538.006-5.307a3.97 3.97 0 012.831-3.818c2.84-.848 5.688-1.676 8.533-2.509a6.024 6.024 0 013.386 0c2.845.833 5.692 1.661 8.533 2.51a3.97 3.97 0 012.831 3.817c-.004 1.77-.008 3.538.006 5.307a22.52 22.52 0 01-.789 6.078c-1.43 5.136-5.937 8.71-10.489 11.25-1.11.62-2.46.62-3.57 0-4.552-2.54-9.059-6.114-10.489-11.25zm17.587 1.723a.917.917 0 01-.906 1.053H15.84a.917.917 0 01-.906-1.053c.249-1.626.857-3.018 1.705-4.053 2.367 1.134 4.6 1.134 6.968 0 .848 1.035 1.456 2.427 1.705 4.053zM23.343 15c0-1.794-1.442-3.251-3.22-3.251-1.778 0-3.218 1.457-3.218 3.25 0 1.797 1.44 3.251 3.218 3.251s3.22-1.454 3.22-3.25z" stroke="#FFF" stroke-width="1.35" stroke-linecap="round" stroke-linejoin="round"/></svg>