<svg width="40" height="40" fill="none" xmlns="http://www.w3.org/2000/svg"><path d="M26.674 35.485a.675.675 0 101.35 0h-1.35zm-14.678 0a.675.675 0 101.35 0h-1.35zM4.5 12.005a.675.675 0 100 1.35v-1.35zm0 14.66a.675.675 0 100 1.35v-1.35zm-.002-7.33a.675.675 0 00.004 1.35l-.004-1.35zm8.848-14.82a.675.675 0 10-1.35 0h1.35zm22.154 8.84a.675.675 0 100-1.35v1.35zm0 14.66a.675.675 0 100-1.35v1.35zm-7.475-23.5a.675.675 0 10-1.35 0h1.35zM11.702 20.467l.32-.593-1.049-.567.055 1.191.674-.03zm4.165 3.018a.675.675 0 00.641-1.188l-.641 1.188zm12.431-3.934l-.323.593 1.052.573-.055-1.197-.674.031zm-4.163-3.036a.675.675 0 10-.646 1.185l.646-1.185zm-3.46-12a.675.675 0 10-1.35 0h1.35zM35.5 20.675a.675.675 0 100-1.35v1.35zm-16.175 14.81a.675.675 0 101.35 0h-1.35zm-7.363-19.546a.675.675 0 001.2.617l-1.2-.617zm16.082 8.119a.675.675 0 10-1.203-.613l1.203.613zM7.296 19.324l-2.798.01.004 1.35 2.799-.01-.005-1.35zm4.085 1.737l4.486 2.424.641-1.188-4.485-2.424-.642 1.188zm17.24-2.103l-4.486-2.443-.646 1.185 4.486 2.444.646-1.186zM20 27.632c-4 0-7.442-3.204-7.624-7.195l-1.348.061c.215 4.733 4.272 8.484 8.972 8.484v-1.35zm0-15.266c3.998 0 7.443 3.228 7.624 7.215l1.349-.06c-.214-4.725-4.27-8.505-8.973-8.505v1.35zm-13.377-.921v1.235h1.35v-1.235h-1.35zm0 1.235V20h1.35v-7.32h-1.35zm.675-.675H4.5v1.35h2.798v-1.35zm-.675 7.994v7.34h1.35V20h-1.35zm0 7.34v1.214h1.35V27.34h-1.35zm.675-.675H4.5v1.35h2.798v-1.35zm4.132 6.696h1.24v-1.35h-1.24v1.35zm1.24 0H20v-1.35h-7.33v1.35zm-.674-.675v2.8h1.35v-2.8h-1.35zM20 33.36h7.35v-1.35H20v1.35zm7.35 0h1.22v-1.35h-1.22v1.35zm-.676-.675v2.8h1.35v-2.8h-1.35zm6.703-4.132V27.34h-1.35v1.214h1.35zm0-1.214V20h-1.35v7.34h1.35zm2.123-.675h-2.798v1.35H35.5v-1.35zM33.377 20v-7.32h-1.35V20h1.35zm0-7.32v-1.234h-1.35v1.235h1.35zm2.123-.674h-2.798v1.35H35.5v-1.35zm-6.93-5.367h-1.22v1.35h1.22v-1.35zm-1.22 0H20v1.35h7.35v-1.35zm-.675-2.123v2.798h1.35V4.515h-1.35zM20 6.638h-7.33v1.35H20v-1.35zm-7.33 0h-1.24v1.35h1.24v-1.35zm-.674-2.123v2.798h1.35V4.515h-1.35zm8.68 2.798V4.515h-1.35v2.798h1.35zm12.026 13.361H35.5v-1.35h-2.798v1.35zM19.325 32.685v2.8h1.35v-2.8h-1.35zM6.623 28.553a4.807 4.807 0 004.807 4.807v-1.35a3.457 3.457 0 01-3.457-3.457h-1.35zM28.57 33.36a4.807 4.807 0 004.807-4.807h-1.35a3.457 3.457 0 01-3.457 3.457v1.35zm4.807-21.915a4.807 4.807 0 00-4.807-4.807v1.35a3.457 3.457 0 013.457 3.457h1.35zm-25.404 0a3.457 3.457 0 013.457-3.457v-1.35a4.807 4.807 0 00-4.807 4.807h1.35zm5.19 5.11c1.287-2.508 3.978-4.189 6.837-4.189v-1.35c-3.373 0-6.523 1.971-8.038 4.923l1.2.617zm13.678 6.89c-1.28 2.515-3.97 4.187-6.841 4.187v1.35c3.382 0 6.534-1.96 8.044-4.924l-1.203-.613z" fill="#FFF"/></svg>