<svg width="40" height="40" fill="none" xmlns="http://www.w3.org/2000/svg"><path d="M18.453 27.007v1.875c0 2.867-1.626 4.875-4.687 4.875-4.23 0-4.656-2.749-4.656-6.187 2.56-2.096 6.468-1.747 9.343-.563zm0 0a4.492 4.492 0 003.062 0m0 0v1.875c0 2.828 1.653 4.875 4.72 4.875 4.23 0 4.655-2.749 4.655-6.187-2.57-2.107-6.486-1.735-9.375-.563zM29 13.757c.875.167 1.712.34 2.5.563 3.167.896 4.75 1.959 4.75 3.187 0 1.25-1.583 2.323-4.75 3.219-7.175 1.984-15.825 1.984-23 0-3.167-.896-4.75-1.969-4.75-3.219 0-1.229 1.583-2.291 4.75-3.187.798-.226 1.624-.396 2.5-.563m18 0a41.53 41.53 0 01.094 3.719M29 13.757c-.208-2.875-.729-4.958-1.562-6.25-.917-1.354-2.25-1.614-4-.781-2.787 1.326-4.088 1.311-6.875 0-1.771-.833-3.105-.573-4 .781-.833 1.292-1.355 3.375-1.563 6.25m0 0a41.63 41.63 0 00-.094 3.719" stroke="#FFF" stroke-width="1.35" stroke-linecap="round" stroke-linejoin="round"/></svg>