<svg id="Arubait" xmlns="http://www.w3.org/2000/svg" width="114.308" height="32" viewBox="0 0 114.308 32">
  <g id="aruba-it">
    <g id="outside">
      <path id="Fill-1" d="M7.959,53.286H9.075a6.992,6.992,0,0,1,.933.067,4.405,4.405,0,0,1,.506.523,8.224,8.224,0,0,1,.511,1.047,3.813,3.813,0,0,1,.342,1.268,3.873,3.873,0,0,1-.12,1.179,4.312,4.312,0,0,1-.541,1.19,3.375,3.375,0,0,1-.726.862,2.1,2.1,0,0,1-.708.366.86.86,0,0,1-.244.037.779.779,0,0,1-.183-.022,10.837,10.837,0,0,1-1.329-.4,2.285,2.285,0,0,1-.612-.309q-.351-.28-.7-.539c-.03-.359-.058-.935-.058-1.843A6.153,6.153,0,0,1,6.454,54.7a2.692,2.692,0,0,1,.809-1.066c.269-.122.5-.236.7-.347Zm6.366-7.406a3.088,3.088,0,0,0-2.692,1.579q-.3-.088-.634-.17a13.686,13.686,0,0,0-2.351-.413c-.123-.008-.251-.013-.377-.013a6.55,6.55,0,0,0-2.177.393c-.594.209-1.117.408-1.556.591a6.967,6.967,0,0,0-1.6.918,5.125,5.125,0,0,0-1.567,2.276q-.341.875-.632,1.6a8.787,8.787,0,0,0-.557,2.391c-.068.682-.121,1.329-.156,1.923a16.688,16.688,0,0,0,0,1.965,5.242,5.242,0,0,0,.85,2.641l.788,1.182a6.942,6.942,0,0,0,1.96,1.861,6.249,6.249,0,0,0,2.435,1.068c.406.068.973.154,1.681.255a11.888,11.888,0,0,0,1.673.136c.186,0,.367-.007.538-.02a5.968,5.968,0,0,0,2.342-.724q.223-.119.438-.253A2.889,2.889,0,0,0,14.942,66.1a2.835,2.835,0,0,0,2.791-2.457,11.39,11.39,0,0,0,.1-2.487c-.032-.925-.065-2.714-.1-5.32-.034-2.666-.085-4.506-.154-5.468a7.907,7.907,0,0,0-.5-2.643,3.009,3.009,0,0,0-2.752-1.85Z" transform="translate(0 -34.105)" fill="#e35205" fill-rule="evenodd"/>
      <path id="Fill-3" d="M71.263,48.072a2.9,2.9,0,0,0-1.456.4,3.334,3.334,0,0,0-1.631,2.565l-.042.41q-.01.1-.011.209V51.9c0,.029,0,.057,0,.086.311,7.461.513,11.95.552,12.529a3.213,3.213,0,0,0,1.69,2.909,2.846,2.846,0,0,0,1.283.307,2.913,2.913,0,0,0,2.229-1.074c.646-.777.816-1.746.764-4.327-.032-1.574-.049-3.265-.049-5.028,0-1.069,0-1.729-.013-2.175a2.643,2.643,0,0,1,.558-.587,1.53,1.53,0,0,1,.646-.265,2.956,2.956,0,0,1,.567-.065,1.044,1.044,0,0,1,.2.016.193.193,0,0,1,.117.053,7.76,7.76,0,0,0,1.174.928c.073.044.209.131.431.289a3.436,3.436,0,0,0,2.011.7,3.016,3.016,0,0,0,2.352-1.163,3.185,3.185,0,0,0,.659-2.462,3.28,3.28,0,0,0-1.567-2.319,6.643,6.643,0,0,1-.688-.52,6,6,0,0,0-2.3-1.2,10.876,10.876,0,0,0-2.223-.323c-.149-.008-.3-.011-.449-.011a9.249,9.249,0,0,0-2.238.278,6.383,6.383,0,0,0-.679.21,3.041,3.041,0,0,0-1.884-.61" transform="translate(-50.617 -35.733)" fill="#e35205" fill-rule="evenodd"/>
      <path id="Fill-5" d="M129.894,41.872a3.641,3.641,0,0,0-2.075.7l-.082.056a2.059,2.059,0,0,0-.677.781l-.045.09a23.3,23.3,0,0,0-1.9,4.58,23.783,23.783,0,0,0-.427,2.6,17.19,17.19,0,0,0-.111,2.521,5.838,5.838,0,0,0,1.029,3.053,7.09,7.09,0,0,0,1.951,2,12.021,12.021,0,0,0,1.78.974,5.94,5.94,0,0,0,2.4.527h1.812a9.449,9.449,0,0,0,2.257-.209,8.243,8.243,0,0,0,2.328-1.119,6.085,6.085,0,0,0,2.388-2.614,11.228,11.228,0,0,0,.758-2.349,14.067,14.067,0,0,0,.247-2.784,12.339,12.339,0,0,0-.878-4.148c-.726-1.969-1.409-3.189-2.749-3.6a3.474,3.474,0,0,0-1.017-.153,3.732,3.732,0,0,0-1.812.484,3,3,0,0,0-1.317,1.449,3.339,3.339,0,0,0,.114,2.732c.242.545.537,1.173.875,1.866a2.783,2.783,0,0,1,.245,1.221,8.53,8.53,0,0,1-.143,1.7,2.915,2.915,0,0,1-.212.7,2.714,2.714,0,0,1-.485.536,1.137,1.137,0,0,1-.49.261,3.959,3.959,0,0,1-1.032.15,2.933,2.933,0,0,1-.859-.129,1.841,1.841,0,0,1-.611-.319,1.509,1.509,0,0,1-.276-.265,4.627,4.627,0,0,1-.132-.9,4.987,4.987,0,0,1,.127-1.63,17.208,17.208,0,0,1,.691-2.082,8.628,8.628,0,0,1,.509-1.127,4.134,4.134,0,0,0,.778-1.871,3.472,3.472,0,0,0-.374-2.135,2.916,2.916,0,0,0-2.59-1.546" transform="translate(-92.558 -31.128)" fill="#e35205" fill-rule="evenodd"/>
      <path id="Fill-7" d="M197.188,19.235a6.993,6.993,0,0,1,.933-.067h1.116c.2.11.427.224.7.346a2.7,2.7,0,0,1,.81,1.065,6.15,6.15,0,0,1,.309,2.009c0,.9-.028,1.482-.058,1.841-.235.173-.469.353-.7.538a2.305,2.305,0,0,1-.613.31,10.88,10.88,0,0,1-1.329.4.786.786,0,0,1-.184.022.849.849,0,0,1-.241-.037,2.1,2.1,0,0,1-.709-.366,3.365,3.365,0,0,1-.726-.862,4.3,4.3,0,0,1-.541-1.189,3.844,3.844,0,0,1-.12-1.178,3.8,3.8,0,0,1,.342-1.267,8.1,8.1,0,0,1,.511-1.046,4.336,4.336,0,0,1,.506-.523M192.777,0a2.854,2.854,0,0,0-1.861.67,3.149,3.149,0,0,0-.992,2.405c-.087,1-.139,2.844-.163,5.8-.04,5.027-.1,6.789-.142,7.383-.069.961-.121,2.8-.154,5.463-.032,2.6-.065,4.385-.1,5.316a11.318,11.318,0,0,0,.1,2.484,2.834,2.834,0,0,0,2.791,2.455,2.889,2.889,0,0,0,2.208-1.033q.215.134.439.254a5.976,5.976,0,0,0,2.343.723c.169.013.349.02.535.02a11.912,11.912,0,0,0,1.673-.135c.731-.1,1.282-.188,1.685-.255a6.248,6.248,0,0,0,2.432-1.066,6.93,6.93,0,0,0,1.96-1.86l.789-1.182a5.245,5.245,0,0,0,.85-2.64,16.847,16.847,0,0,0,0-1.961c-.035-.591-.087-1.237-.156-1.922a8.8,8.8,0,0,0-.557-2.388q-.292-.729-.633-1.6a5.125,5.125,0,0,0-1.565-2.274,6.94,6.94,0,0,0-1.6-.918c-.434-.18-.957-.379-1.556-.59a6.563,6.563,0,0,0-2.181-.393c-.125,0-.25,0-.373.012a13.743,13.743,0,0,0-2.353.413q-.24.06-.465.122c.01-.863.026-1.939.049-3.278.089-5.122.159-6.035.179-6.193A3.237,3.237,0,0,0,194.151.3a3.462,3.462,0,0,0-1.374-.3" transform="translate(-140.692)" fill="#e35205" fill-rule="evenodd"/>
      <path id="Fill-9" d="M266.365,53.285h1.116a6.947,6.947,0,0,1,.933.067,4.389,4.389,0,0,1,.506.523,8.25,8.25,0,0,1,.51,1.047,3.8,3.8,0,0,1,.343,1.268,3.858,3.858,0,0,1-.12,1.178,4.306,4.306,0,0,1-.541,1.191,3.361,3.361,0,0,1-.726.862,2.1,2.1,0,0,1-.708.366.85.85,0,0,1-.243.037.8.8,0,0,1-.183-.022,10.917,10.917,0,0,1-1.33-.4,2.287,2.287,0,0,1-.613-.31c-.234-.186-.468-.366-.7-.538-.03-.358-.058-.934-.058-1.843a6.166,6.166,0,0,1,.309-2.012,2.7,2.7,0,0,1,.809-1.065c.269-.122.5-.236.7-.346m6.368-7.407a3.095,3.095,0,0,0-2.695,1.579q-.3-.087-.633-.17a13.688,13.688,0,0,0-2.352-.413c-.125-.008-.25-.013-.375-.013a6.553,6.553,0,0,0-2.181.393c-.6.21-1.119.409-1.556.591a6.978,6.978,0,0,0-1.6.918,5.132,5.132,0,0,0-1.566,2.275q-.341.877-.633,1.606a8.81,8.81,0,0,0-.557,2.39c-.069.691-.122,1.339-.156,1.925a16.549,16.549,0,0,0,0,1.963,5.234,5.234,0,0,0,.85,2.641l.788,1.182a6.932,6.932,0,0,0,1.96,1.862,6.256,6.256,0,0,0,2.433,1.067c.406.068.973.154,1.682.255a11.929,11.929,0,0,0,1.673.136c.186,0,.367-.007.538-.02a5.963,5.963,0,0,0,2.342-.724q.223-.119.438-.253a2.889,2.889,0,0,0,2.208,1.034,2.836,2.836,0,0,0,2.79-2.455,11.431,11.431,0,0,0,.1-2.488c-.032-.93-.064-2.671-.1-5.321s-.085-4.5-.154-5.467a7.914,7.914,0,0,0-.5-2.644,3.006,3.006,0,0,0-2.749-1.85" transform="translate(-192.002 -34.104)" fill="#e35205" fill-rule="evenodd"/>
      <path id="Fill-11" d="M330.414,94.491a2.058,2.058,0,0,0-.723.131l-.521.2a3.476,3.476,0,0,0-2.415,2.5,4.628,4.628,0,0,0-.082,1.662,3.183,3.183,0,0,0,2.122,2.5,4.2,4.2,0,0,0,1.621.342,3.556,3.556,0,0,0,1.127-.181,3.892,3.892,0,0,0,1.793-1.2,3.2,3.2,0,0,0,.642-2.846,3.535,3.535,0,0,0-1.393-2.038,5.365,5.365,0,0,0-.654-.4,2.055,2.055,0,0,0-1.517-.667" transform="translate(-242.687 -70.212)" fill="#e35205" fill-rule="evenodd"/>
      <path id="Fill-13" d="M356.147,19.26a4.008,4.008,0,0,0-2.157.617,3.774,3.774,0,0,0-1.493,1.7,5.22,5.22,0,0,0-.38,1.483,10,10,0,0,0-.064,1.106,3.946,3.946,0,0,0,.406,1.783,7.983,7.983,0,0,0,.5.855c.172.259.407.573.717.959l.062.078q.04.05.083.1a4.5,4.5,0,0,0-.089.911,5.228,5.228,0,0,0,.23,1.542c.5,6.216.781,9.658.814,10.051a3.28,3.28,0,0,0,1.619,2.708,3.14,3.14,0,0,0,1.573.434,2.89,2.89,0,0,0,1.487-.413,3.137,3.137,0,0,0,1.469-2.492c.034-.338.073-.722-.441-6.381-.443-4.873-.559-5.88-.61-6.213a3.742,3.742,0,0,0-.2-.747,5.983,5.983,0,0,0,1.057-3.641,5.426,5.426,0,0,0-.638-2.23,3.971,3.971,0,0,0-2.146-1.865,5.226,5.226,0,0,0-1.8-.344" transform="translate(-261.59 -14.332)" fill="#e35205" fill-rule="evenodd"/>
      <path id="Fill-15" d="M391.76,6.389a3.252,3.252,0,0,0-2.295.992c-.819.818-1.04,1.882-.986,4.74.019,1.008.046,2.031.081,3.059-2.867.251-3.164.424-3.61.682a3.037,3.037,0,0,0-1.6,2.654,2.752,2.752,0,0,0,.58,1.69,3.032,3.032,0,0,0,2.131,1.117,5.293,5.293,0,0,0,.6.029c.443,0,1.039-.036,1.849-.111.014,1,.033,2.293.056,3.837.07,4.733.054,6.305.028,6.79a5.039,5.039,0,0,0,.487,2.884,3,3,0,0,0,2.607,1.6,3.076,3.076,0,0,0,2.7-1.741c.5-.847.653-2.011.56-4.3-.064-1.565-.08-3.825-.047-6.72.012-1.116.022-2.022.03-2.732h.251a4,4,0,0,0,3.174-1.221,2.881,2.881,0,0,0,.12-3.843,3.318,3.318,0,0,0-2.672-1.151c-.061,0-.122,0-.185,0q-.3.012-.7.033c0-.21-.01-.444-.014-.7-.035-1.946-.09-3.255-.171-4.123a5.952,5.952,0,0,0-.333-1.595,2.782,2.782,0,0,0-2.183-1.838,3.1,3.1,0,0,0-.447-.033" transform="translate(-284.837 -4.746)" fill="#e35205" fill-rule="evenodd"/>
    </g>
    <g id="inside" transform="translate(2.058 2.058)">
      <path id="Fill-17" d="M2.451,51.968a8.2,8.2,0,0,0-.423,2.684,21.27,21.27,0,0,0,.1,2.321,1.23,1.23,0,0,0,.429.912c.333.233.671.487,1.006.754a4.3,4.3,0,0,0,1.176.63,13.024,13.024,0,0,0,1.58.479A2.862,2.862,0,0,0,7.8,59.705a4.149,4.149,0,0,0,1.4-.722A5.419,5.419,0,0,0,10.388,57.6a6.372,6.372,0,0,0,.791-1.766,5.933,5.933,0,0,0,.185-1.805,5.781,5.781,0,0,0-.511-1.986,7.993,7.993,0,0,0-.744-1.45,6.3,6.3,0,0,0-.789-.834,1.886,1.886,0,0,0-1.027-.495,9.112,9.112,0,0,0-1.276-.095H5.785a1.235,1.235,0,0,0-.674.132,6.679,6.679,0,0,1-1,.506,4.879,4.879,0,0,0-1.659,2.159M12.884,61.989a.928.928,0,0,1-.838-.608,6.307,6.307,0,0,1-.23-2.251L10.7,60.337a5.409,5.409,0,0,1-1.433,1.114,3.935,3.935,0,0,1-1.533.488,8.29,8.29,0,0,1-1.76-.1c-.691-.1-1.241-.182-1.636-.248a4.4,4.4,0,0,1-1.63-.75,4.928,4.928,0,0,1-1.389-1.29L.533,58.366a3.218,3.218,0,0,1-.508-1.621,14.677,14.677,0,0,1,0-1.722c.033-.563.083-1.182.149-1.84a6.76,6.76,0,0,1,.42-1.83q.3-.738.639-1.624a3.178,3.178,0,0,1,.911-1.4,4.906,4.906,0,0,1,1.124-.643c.4-.168.891-.353,1.45-.55a4.326,4.326,0,0,1,1.732-.268,11.9,11.9,0,0,1,1.991.356,9.812,9.812,0,0,1,1.952.67,3.661,3.661,0,0,1,.859.592c-.035-.3-.063-.572-.084-.8a2.5,2.5,0,0,1,.121-1.107,1.023,1.023,0,0,1,.856-.691.936.936,0,0,1,.992.62,6.6,6.6,0,0,1,.328,1.954c.066.922.116,2.721.149,5.347s.066,4.424.1,5.365a10.326,10.326,0,0,1-.057,2.012c-.14.7-.544.8-.773.8" transform="translate(0 -34.105)" fill="#fff" fill-rule="evenodd"/>
      <path id="Fill-19" d="M69.592,63.617a.8.8,0,0,1-.362-.089c-.332-.166-.515-.561-.558-1.207-.033-.494-.217-4.5-.549-12.476V49.6l.042-.41a1.275,1.275,0,0,1,.606-.988.863.863,0,0,1,.434-.125.832.832,0,0,1,.794.39,4.519,4.519,0,0,1,.234,1.231c.073-.075.161-.167.266-.281a3.506,3.506,0,0,1,1.768-1,7.13,7.13,0,0,1,2.085-.208,8.832,8.832,0,0,1,1.8.257,3.982,3.982,0,0,1,1.518.8,8.863,8.863,0,0,0,.91.681,1.224,1.224,0,0,1,.621.864,1.131,1.131,0,0,1-.229.888.937.937,0,0,1-.745.391,1.428,1.428,0,0,1-.816-.318c-.222-.158-.413-.286-.566-.378A6.274,6.274,0,0,1,76,50.7a2.239,2.239,0,0,0-1.1-.548,4.082,4.082,0,0,0-1.574.049,3.549,3.549,0,0,0-1.514.665A4.653,4.653,0,0,0,70.763,52c-.208.324-.293.477-.327.547.038.3.043.978.043,2.7,0,1.78.017,3.486.049,5.07.048,2.362-.122,2.77-.286,2.966a.848.848,0,0,1-.65.335" transform="translate(-50.617 -35.734)" fill="#fff" fill-rule="evenodd"/>
      <path id="Fill-21" d="M131.5,55.636h-1.812a3.893,3.893,0,0,1-1.573-.353,9.908,9.908,0,0,1-1.475-.808,5.053,5.053,0,0,1-1.377-1.426,3.813,3.813,0,0,1-.681-1.987,15.152,15.152,0,0,1,.1-2.214,21.7,21.7,0,0,1,.389-2.372,22.61,22.61,0,0,1,1.732-4.117l.045-.09.083-.057a1.624,1.624,0,0,1,.909-.339.862.862,0,0,1,.783.472,1.409,1.409,0,0,1,.142.877,2.119,2.119,0,0,1-.416.953,8.062,8.062,0,0,0-.743,1.555,19.343,19.343,0,0,0-.773,2.332,7.036,7.036,0,0,0-.186,2.3,4.5,4.5,0,0,0,.35,1.685,3.085,3.085,0,0,0,.835.938,3.884,3.884,0,0,0,1.29.673,5.316,5.316,0,0,0,3.018,0,3.183,3.183,0,0,0,1.354-.737,4.67,4.67,0,0,0,.866-1.008A4.591,4.591,0,0,0,134.8,50.6a10.386,10.386,0,0,0,.189-2.125,4.811,4.811,0,0,0-.454-2.124c-.328-.672-.612-1.277-.844-1.8-.442-.993.073-1.409.315-1.542a1.555,1.555,0,0,1,1.235-.167c.326.1.723.453,1.421,2.343a10.361,10.361,0,0,1,.751,3.437,12.025,12.025,0,0,1-.205,2.37,9.138,9.138,0,0,1-.618,1.917,4.078,4.078,0,0,1-1.612,1.721,6.647,6.647,0,0,1-1.727.862,7.708,7.708,0,0,1-1.757.147" transform="translate(-92.559 -31.128)" fill="#fff" fill-rule="evenodd"/>
      <path id="Fill-23" d="M196.065,15.054a9.09,9.09,0,0,0-1.277.095,1.887,1.887,0,0,0-1.028.494,6.3,6.3,0,0,0-.789.833,7.957,7.957,0,0,0-.743,1.449,5.739,5.739,0,0,0-.511,1.984,5.889,5.889,0,0,0,.185,1.8,6.342,6.342,0,0,0,.791,1.764,5.414,5.414,0,0,0,1.194,1.381,4.14,4.14,0,0,0,1.4.721,2.856,2.856,0,0,0,1.479.044,12.966,12.966,0,0,0,1.58-.479,4.321,4.321,0,0,0,1.176-.63c.334-.267.672-.52,1.006-.754a1.233,1.233,0,0,0,.43-.911,21.428,21.428,0,0,0,.1-2.319,8.183,8.183,0,0,0-.423-2.682,4.876,4.876,0,0,0-1.659-2.156,6.7,6.7,0,0,1-1-.506,1.234,1.234,0,0,0-.673-.132ZM190.2,27.86c-.229,0-.633-.1-.773-.8a10.227,10.227,0,0,1-.056-2.01c.032-.945.066-2.748.1-5.36s.083-4.419.149-5.342c.065-.906.114-3.433.147-7.512.051-6.334.222-6.479.421-6.646a.984.984,0,0,1,1.091-.059c.329.143.7.5.587,1.387-.064.511-.129,2.668-.194,6.412s-.082,5.97-.05,6.661a3.594,3.594,0,0,1,1.07-.806,9.834,9.834,0,0,1,1.952-.669,11.938,11.938,0,0,1,1.99-.355,4.348,4.348,0,0,1,1.732.268c.562.2,1.05.383,1.449.549a4.887,4.887,0,0,1,1.124.642,3.175,3.175,0,0,1,.912,1.4q.345.885.64,1.622a6.765,6.765,0,0,1,.42,1.829c.065.657.116,1.275.149,1.838a14.747,14.747,0,0,1,0,1.72,3.221,3.221,0,0,1-.508,1.62l-.789,1.182a4.934,4.934,0,0,1-1.389,1.289,4.4,4.4,0,0,1-1.63.749c-.386.065-.921.146-1.635.248a8.327,8.327,0,0,1-1.761.1,3.939,3.939,0,0,1-1.532-.487,5.412,5.412,0,0,1-1.433-1.113L191.267,25a6.3,6.3,0,0,1-.23,2.249.928.928,0,0,1-.838.607Z" transform="translate(-140.693 0)" fill="#fff" fill-rule="evenodd"/>
      <path id="Fill-25" d="M260.857,51.967a8.207,8.207,0,0,0-.422,2.684,21.365,21.365,0,0,0,.1,2.321,1.233,1.233,0,0,0,.43.912c.332.233.671.487,1.006.754a4.311,4.311,0,0,0,1.177.63,13.029,13.029,0,0,0,1.58.479A2.855,2.855,0,0,0,266.2,59.7a4.147,4.147,0,0,0,1.4-.722,5.414,5.414,0,0,0,1.194-1.382,6.353,6.353,0,0,0,.791-1.766,5.917,5.917,0,0,0,.185-1.805,5.768,5.768,0,0,0-.511-1.986,7.973,7.973,0,0,0-.744-1.451,6.348,6.348,0,0,0-.789-.834,1.886,1.886,0,0,0-1.028-.495,9.107,9.107,0,0,0-1.276-.095h-1.233a1.234,1.234,0,0,0-.673.132,6.716,6.716,0,0,1-1,.506,4.879,4.879,0,0,0-1.659,2.159ZM271.29,61.988a.928.928,0,0,1-.838-.608,6.3,6.3,0,0,1-.23-2.251l-1.113,1.206a5.414,5.414,0,0,1-1.433,1.114,3.937,3.937,0,0,1-1.532.488,8.3,8.3,0,0,1-1.761-.1c-.692-.1-1.242-.182-1.636-.248a4.4,4.4,0,0,1-1.63-.75,4.926,4.926,0,0,1-1.389-1.29l-.789-1.183a3.215,3.215,0,0,1-.508-1.621,14.57,14.57,0,0,1,0-1.722c.032-.557.083-1.176.149-1.839a6.762,6.762,0,0,1,.42-1.831q.3-.738.64-1.623a3.175,3.175,0,0,1,.912-1.4,4.9,4.9,0,0,1,1.124-.643c.4-.168.891-.353,1.45-.55a4.344,4.344,0,0,1,1.732-.268,11.9,11.9,0,0,1,1.991.356,9.835,9.835,0,0,1,1.952.67,3.661,3.661,0,0,1,.859.592c-.035-.3-.063-.57-.084-.8a2.5,2.5,0,0,1,.122-1.107,1.022,1.022,0,0,1,.856-.691.935.935,0,0,1,.992.62,6.61,6.61,0,0,1,.328,1.953c.066.929.116,2.727.149,5.347.033,2.663.066,4.418.1,5.365a10.351,10.351,0,0,1-.056,2.012c-.14.7-.544.8-.773.8Z" transform="translate(-192.002 -34.104)" fill="#fff" fill-rule="evenodd"/>
      <path id="Fill-27" d="M328.358,97.708a2.163,2.163,0,0,1-.831-.184c-.527-.219-.821-.52-.875-.893a2.6,2.6,0,0,1,.055-.927c.1-.435.465-.768,1.128-1.017l.521-.2v.279a2.048,2.048,0,0,1,.3.051,2.123,2.123,0,0,1,.673.356,1.48,1.48,0,0,1,.594.861,1.127,1.127,0,0,1-.226,1.031,1.869,1.869,0,0,1-.865.563,1.492,1.492,0,0,1-.475.075" transform="translate(-242.687 -70.212)" fill="#fff" fill-rule="evenodd"/>
      <path id="Fill-29" d="M354.207,22.86a.493.493,0,0,0,.444-.005h0a.988.988,0,0,0,.2-.325,1.119,1.119,0,0,0,.116-.6,1.607,1.607,0,0,0-.157-.536.431.431,0,0,0-.223-.216.574.574,0,0,0-.573-.014.338.338,0,0,0-.131.146.919.919,0,0,0-.059.3c-.008.15-.012.295-.012.436a.929.929,0,0,0,.032.268,1,1,0,0,0,.108.233,2.431,2.431,0,0,0,.256.323m.2,1.9a2.807,2.807,0,0,1-1.031-.225l-.094-.038-.063-.079c-.268-.335-.474-.61-.612-.816a5.925,5.925,0,0,1-.369-.633,1.912,1.912,0,0,1-.189-.863,7.928,7.928,0,0,1,.052-.881,3.169,3.169,0,0,1,.226-.9,1.706,1.706,0,0,1,.692-.767,2.34,2.34,0,0,1,2.16-.085,1.917,1.917,0,0,1,1.045.917,3.386,3.386,0,0,1,.392,1.39,3.531,3.531,0,0,1-.327,1.661,1.943,1.943,0,0,1-.957,1.143,2.633,2.633,0,0,1-.925.172m1.5,14.707a1.111,1.111,0,0,1-.554-.165,1.284,1.284,0,0,1-.587-1.091q-.049-.59-.833-10.3a3.153,3.153,0,0,1-.2-1.123,1.6,1.6,0,0,1,.282-1.03,1.086,1.086,0,0,1,.893-.391c.271,0,.744.126.874.968.067.44.262,2.431.595,6.088.445,4.895.466,5.763.443,5.99a1.145,1.145,0,0,1-.481.933.823.823,0,0,1-.428.119" transform="translate(-261.59 -14.333)" fill="#fff" fill-rule="evenodd"/>
      <path id="Fill-31" d="M389.628,32.236a.96.96,0,0,1-.827-.574,3.332,3.332,0,0,1-.212-1.741c.04-.753.032-3.085-.025-6.93-.048-3.245-.078-5.324-.085-5.97a7.258,7.258,0,0,0-1.6.056,16.189,16.189,0,0,1-2.647.147c-.8-.09-.884-.565-.884-.765a1,1,0,0,1,.574-.875c.156-.09.442-.256,4.71-.566-.073-1.676-.126-3.353-.156-4.991h0c-.049-2.594.173-3.036.384-3.247a1.126,1.126,0,0,1,.983-.38c.558.083.7.85.771,1.589.075.808.128,2.106.162,3.969.034,1.886.08,2.543.109,2.772a3.782,3.782,0,0,0,.911.015c.78-.049,1.4-.082,1.833-.1a1.407,1.407,0,0,1,1.2.409.841.841,0,0,1-.092,1.177,2.064,2.064,0,0,1-1.622.514c-.65,0-1.258.02-1.809.061a1.891,1.891,0,0,0-.481.08c0,.42-.018,1.878-.049,4.625-.033,2.931-.016,5.228.049,6.826.091,2.241-.1,2.869-.275,3.167-.186.314-.483.731-.924.731" transform="translate(-284.837 -4.746)" fill="#fff" fill-rule="evenodd"/>
    </g>
  </g>
</svg>
