<svg id="ceralacca_PEC" data-name="ceralacca PEC" xmlns="http://www.w3.org/2000/svg" width="32" height="30" viewBox="0 0 32 30">
  <path id="Tracciato_2180" data-name="Tracciato 2180" d="M28.405,15.571A12.844,12.844,0,1,1,15.561,2.634,12.891,12.891,0,0,1,28.405,15.571Z" fill="#e83d33" fill-rule="evenodd"/>
  <path id="Tracciato_2181" data-name="Tracciato 2181" d="M15.559,27.432A11.73,11.73,0,1,1,27.211,15.7,11.691,11.691,0,0,1,15.559,27.432Zm12.848-15.21a10.73,10.73,0,0,1-.065-2.35c.021-.849.287-3.095-1.1-4.57-1.6-1.7-2.531-2.131-4.6-1.893a3.906,3.906,0,0,1-3.372-.718c-1.809-1.1,0-2.879-3.437-2.676a5.968,5.968,0,0,0-3.372,1.371c-.93.7-1.582,1.551-1.945,1.827A8.867,8.867,0,0,0,7.2,4.78,21.8,21.8,0,0,0,4.025,8.566C3.171,9.553,1.259,9.7.394,11.634S.212,17,1.237,17.966a6.418,6.418,0,0,1,1.427,1.5c.216.457-.093.956.13,1.436.3.653,1.4,1.806,2.01,2.742s1.313,3.653,3.826,4.7a10.923,10.923,0,0,0,2.464.391c.605.066,1.89.62,2.658.784.822.174,1.448-.239,2.27-.2s1.256.819,2.27.653c1.988-.327,4.083-2.725,5.382-3.329.843-.392,1.47.761,2.464-.718.871-1.3,1.288-3.78,2.075-4.373a5.359,5.359,0,0,1,1.362-.457c.8-.283,2.225-.7,2.4-2.416C32.341,15.072,28.762,14.266,28.407,12.222Z" fill="#a01a19" fill-rule="evenodd"/>
  <path id="Tracciato_2182" data-name="Tracciato 2182" d="M16.8,12.488a4.433,4.433,0,0,0-.893-.189,3.332,3.332,0,0,0-.885.049,1.836,1.836,0,0,0-1.461,1.217,4.92,4.92,0,0,0-.126,2.644,5.543,5.543,0,0,0,.924,2.5,1.667,1.667,0,0,0,1.705.563,2.136,2.136,0,0,0,.959-.4,3.861,3.861,0,0,0,.752-.812Zm6.6-2.375a10.434,10.434,0,0,1,1.375,3.751,12.041,12.041,0,0,1,.111,3.223,10.14,10.14,0,0,1-.634,2.843l-5.552.986-.326-.831a7.525,7.525,0,0,1-1.09.883,4.513,4.513,0,0,1-1.635.548,3.5,3.5,0,0,1-3.157-.972,6.643,6.643,0,0,1-1.809-3.811,6.924,6.924,0,0,1-.04-2.426,5.782,5.782,0,0,1,.712-1.944A4.326,4.326,0,0,1,12.622,11a4.075,4.075,0,0,1,1.631-.7,2.947,2.947,0,0,1,1.331.043,3.377,3.377,0,0,1,.966.415l-.12-.686,2.546-.452,1.579,9.021,1.865-.332a8.454,8.454,0,0,0,.255-2,10.818,10.818,0,0,0-.151-2,9.66,9.66,0,0,0-1.089-3.186A6.526,6.526,0,0,0,19.6,9.038a5.965,5.965,0,0,0-2.43-1.028,7.824,7.824,0,0,0-2.789.017,6.61,6.61,0,0,0-2.551,1.023,7.2,7.2,0,0,0-3.11,4.577,8.239,8.239,0,0,0-.053,3.281,9.078,9.078,0,0,0,1.158,3.225,7.173,7.173,0,0,0,1.951,2.138,6.543,6.543,0,0,0,2.468,1.055,7.29,7.29,0,0,0,2.751.024,15.354,15.354,0,0,0,2.091-.548,14.961,14.961,0,0,0,2.031-.823l.375,2.145a20.348,20.348,0,0,1-1.968.714,18.862,18.862,0,0,1-2.184.514,9.877,9.877,0,0,1-3.836-.037,8.756,8.756,0,0,1-3.3-1.454,9.083,9.083,0,0,1-2.474-2.729,10.957,10.957,0,0,1-1.385-3.811A10.031,10.031,0,0,1,6.4,13.384,9.723,9.723,0,0,1,7.861,9.973a9.2,9.2,0,0,1,2.614-2.551,9.38,9.38,0,0,1,3.54-1.393,9.553,9.553,0,0,1,3.725.045,8.539,8.539,0,0,1,3.217,1.412A8.96,8.96,0,0,1,23.4,10.113Z" fill="#af1a19" fill-rule="evenodd"/>
</svg>
