<svg id="mostra_password" data-name="mostra password" xmlns="http://www.w3.org/2000/svg" width="16" height="16" viewBox="0 0 16 16">
  <path id="Tracciato_15" data-name="Tracciato 15" d="M0,0H16V16H0Z" fill="none"/>
  <path id="Tracciato_16" data-name="Tracciato 16" d="M3.079,9.973a.657.657,0,0,1,0-.623C4.339,7.02,6.668,5,9,5s4.658,2.02,5.918,4.351a.657.657,0,0,1,0,.623c-1.261,2.33-3.59,4.35-5.918,4.35S4.339,12.3,3.079,9.973Z" transform="translate(-0.996 -1.662)" fill="none" stroke="#666" stroke-linecap="round" stroke-linejoin="round" stroke-width="1.5"/>
  <path id="Tracciato_17" data-name="Tracciato 17" d="M12.419,9.587a2,2,0,1,1-2.833,0,2,2,0,0,1,2.833,0" transform="translate(-3.004 -3.004)" fill="none" stroke="#666" stroke-linecap="round" stroke-linejoin="round" stroke-width="1.429"/>
</svg>
