<svg xmlns="http://www.w3.org/2000/svg" width="18" height="18" viewBox="0 0 18 18">
  <path id="icons8-qr-code_1_" data-name="icons8-qr-code (1)" d="M13.2,11A2.2,2.2,0,0,0,11,13.2v3.512a2.2,2.2,0,0,0,2.2,2.2h3.512a2.2,2.2,0,0,0,2.2-2.2V13.2a2.2,2.2,0,0,0-2.2-2.2Zm10.1,0a2.2,2.2,0,0,0-2.2,2.2v3.512a2.2,2.2,0,0,0,2.2,2.2H26.8a2.2,2.2,0,0,0,2.2-2.2V13.2A2.2,2.2,0,0,0,26.8,11ZM13.2,12.756h3.512a.439.439,0,0,1,.439.439v3.512a.439.439,0,0,1-.439.439H13.2a.439.439,0,0,1-.439-.439V13.2A.439.439,0,0,1,13.2,12.756Zm10.1,0H26.8a.439.439,0,0,1,.439.439v3.512a.439.439,0,0,1-.439.439H23.293a.439.439,0,0,1-.439-.439V13.2A.439.439,0,0,1,23.293,12.756Zm-9.22,1.317v1.756h1.756V14.073Zm10.1,0v1.756h1.756V14.073ZM13.2,21.1a2.2,2.2,0,0,0-2.2,2.2V26.8A2.2,2.2,0,0,0,13.2,29h3.512a2.2,2.2,0,0,0,2.2-2.2V23.293a2.2,2.2,0,0,0-2.2-2.2Zm7.9,0v2.634h2.634V21.1Zm2.634,2.634v2.634h2.634V23.732Zm2.634,0H29V21.1H26.366Zm0,2.634V29H29V26.366Zm-2.634,0H21.1V29h2.634ZM13.2,22.854h3.512a.439.439,0,0,1,.439.439V26.8a.439.439,0,0,1-.439.439H13.2a.439.439,0,0,1-.439-.439V23.293A.439.439,0,0,1,13.2,22.854Zm.878,1.317v1.756h1.756V24.171Z" transform="translate(-11 -11)" fill="#666"/>
</svg>
