<svg id="nascondi_password" data-name="nascondi password" xmlns="http://www.w3.org/2000/svg" width="16" height="16" viewBox="0 0 16 16">
  <path id="Tracciato_8" data-name="Tracciato 8" d="M0,0H16V16H0Z" fill="none"/>
  <path id="Tracciato_9" data-name="Tracciato 9" d="M11.167,18.835A4.632,4.632,0,0,1,9.5,18.5" transform="translate(-3.166 -6.168)" fill="none" stroke="#666" stroke-linecap="round" stroke-linejoin="round" stroke-width="1.5"/>
  <path id="Tracciato_10" data-name="Tracciato 10" d="M17.926,12.468C16.663,14.8,14.332,16.826,12,16.826" transform="translate(-4.006 -4.158)" fill="none" stroke="#666" stroke-linecap="round" stroke-linejoin="round" stroke-width="1.5"/>
  <path id="Tracciato_11" data-name="Tracciato 11" d="M19.079,8.921a10.1,10.1,0,0,1,1.2,1.743.658.658,0,0,1,0,.624" transform="translate(-6.362 -2.974)" fill="none" stroke="#666" stroke-linecap="round" stroke-linejoin="round" stroke-width="1.5"/>
  <path id="Tracciato_12" data-name="Tracciato 12" d="M5,14.329,14.329,5" transform="translate(-1.664 -1.664)" fill="none" stroke="#666" stroke-linecap="round" stroke-linejoin="round" stroke-width="1.5"/>
  <path id="Tracciato_13" data-name="Tracciato 13" d="M9.466,12.437a2.1,2.1,0,0,1,2.972-2.972" transform="translate(-2.951 -2.951)" fill="none" stroke="#666" stroke-linecap="round" stroke-linejoin="round" stroke-width="1.5"/>
  <path id="Tracciato_14" data-name="Tracciato 14" d="M12.369,6.3A5.618,5.618,0,0,0,9,5C6.673,5,4.341,7.023,3.079,9.358a.658.658,0,0,0,0,.624,9.836,9.836,0,0,0,2.56,3.053" transform="translate(-0.999 -1.669)" fill="none" stroke="#666" stroke-linecap="round" stroke-linejoin="round" stroke-width="1.5"/>
</svg>
