<?xml version="1.0" encoding="UTF-8"?>
<svg width="54.8936992px" height="23.95px" viewBox="0 0 54.8936992 23.95" version="1.1" xmlns="http://www.w3.org/2000/svg" xmlns:xlink="http://www.w3.org/1999/xlink">
    <title>Group 5</title>
    <defs>
        <polygon id="path-1" points="0 0 17.23 0 17.23 23.8998 0 23.8998"></polygon>
    </defs>
    <g id="Page-1" stroke="none" stroke-width="1" fill="none" fill-rule="evenodd">
        <g id="header-mobile-2023-v1-copy" transform="translate(-250, -68)">
            <g id="Group-5" transform="translate(250, 68)">
                <g id="previdenza" transform="translate(25.845, 7.601)" fill="#FFFFFF" fill-rule="nonzero">
                    <polygon id="Path" points="0 9.399 1.924 9.399 1.924 0 0 0"></polygon>
                    <path d="M3.24842479,6.175 C3.24842479,8.476 4.73042479,9.633 6.60242479,9.633 C8.98142479,9.633 10.0474248,7.969 10.0474248,6.123 C10.0474248,4.29 9.02042479,2.678 6.64142479,2.678 C4.05442479,2.678 3.24842479,4.589 3.24842479,6.175 Z M5.22442479,6.188 C5.22442479,5.59 5.23742479,3.965 6.64142479,3.965 C7.91542479,3.965 8.08442479,5.174 8.08442479,6.045 C8.08442479,7.787 7.51242479,8.294 6.66742479,8.294 C5.71842479,8.294 5.22442479,7.657 5.22442479,6.188 Z" id="Shape"></path>
                    <path d="M15.8438496,2.86 L15.7788496,3.731 C15.5838496,3.445 15.1418496,2.795 13.9458496,2.795 C12.0608496,2.795 11.1378496,4.381 11.1378496,6.045 C11.1378496,7.631 12.0218496,9.269 13.9068496,9.269 C14.3748496,9.269 15.0638496,9.178 15.6748496,8.372 C15.6618496,9.373 15.6618496,9.607 15.5838496,9.932 C15.4538496,10.517 14.9598496,10.79 14.3878496,10.79 C13.3608496,10.79 13.2698496,10.075 13.2438496,9.88 L11.3978496,9.88 C11.5148496,11.869 13.3478496,11.986 14.2838496,11.986 C15.5448496,11.986 17.5598496,11.752 17.5598496,9.334 L17.5598496,4.485 C17.5598496,3.822 17.5988496,3.38 17.6508496,2.86 L15.8438496,2.86 Z M13.0618496,6.045 C13.0618496,4.641 13.6598496,4.082 14.3878496,4.082 C15.5578496,4.082 15.7008496,5.343 15.7008496,6.084 C15.7008496,6.37 15.7008496,7.956 14.3488496,7.956 C13.0618496,7.956 13.0618496,6.37 13.0618496,6.045 Z" id="Shape"></path>
                    <path d="M19.2352744,1.69 L21.2892744,1.69 L21.2892744,0.013 L19.2352744,0.013 L19.2352744,1.69 Z M19.3002744,9.399 L21.2242744,9.399 L21.2242744,2.821 L19.3002744,2.821 L19.3002744,9.399 Z" id="Shape"></path>
                    <path d="M22.8736992,9.399 L24.8106992,9.399 L24.8106992,5.551 C24.8106992,5.044 24.9276992,4.719 25.0446992,4.55 C25.2526992,4.238 25.6296992,4.043 26.0456992,4.043 C26.5396992,4.043 26.8386992,4.316 26.9816992,4.602 C27.0856992,4.81 27.0856992,5.044 27.0856992,5.317 L27.0856992,9.399 L29.0486992,9.399 L29.0486992,5.85 C29.0486992,4.628 29.0096992,4.29 28.8666992,3.887 C28.6976992,3.432 28.1516992,2.652 26.8646992,2.652 C25.4346992,2.652 24.9146992,3.497 24.7326992,3.796 L24.6806992,2.808 L22.8346992,2.808 C22.8736992,3.263 22.8736992,3.978 22.8736992,4.004 L22.8736992,9.399 Z" id="Path"></path>
                </g>
                <g id="Group-8">
                    <path d="M10,14.9996 C10,14.2996 9.4,13.6996 8.7,13.6996 C8,13.6996 7.4,14.2996 7.4,14.9996 C7.4,15.3996 7.5,15.6996 7.8,15.8996 L7.8,18.1996 L7.8,18.2996 C7.8,18.7996 8.2,19.0996 8.7,19.0996 C9.2,19.0996 9.6,18.6996 9.6,18.1996 L9.6,15.8996 C9.8,15.5996 10,15.2996 10,14.9996" id="Fill-1" fill="#FFFFFF"></path>
                    <polygon id="Fill-3" fill="#000714" points="17.2806 23.95 8.8836 23.95 8.8836 21.95 15.2806 21.95 15.2806 15.338 17.2806 15.338"></polygon>
                    <g id="Group-7">
                        <mask id="mask-2" fill="white">
                            <use xlink:href="#path-1"></use>
                        </mask>
                        <g id="Clip-6"></g>
                        <path d="M7.4,21.9998 L1.9,21.9998 L1.9,10.9998 L15.3,10.9998 L15.33,13.9498 L17.23,13.9498 L17.2,10.7998 C17.2,9.7998 16.5,9.0998 15.5,9.0998 L15.078,9.0998 L14.9,9.0998 L13,9.0998 L12.231,9.0998 L4.2,9.0998 L4.2,8.9998 L4.2,8.1438 L4.2,6.5998 L4.2,6.3998 C4.3,3.9998 6.3,1.7998 8.6,1.7998 C11,1.7998 13,3.9998 13,6.4998 L13,7.4918 L14.9,7.4918 L14.9,6.5998 L14.9,6.3998 C14.8,2.9998 12.1,-0.0002 8.6,-0.0002 C5.2,-0.0002 2.4,3.0998 2.4,6.5998 L2.4,9.0998 L1.7,9.0998 C0.8,9.0998 0,9.7998 0,10.7998 L0,22.1998 C0,23.0998 0.7,23.8998 1.7,23.8998 L7.4,23.8998 L7.4,21.9998 Z" id="Fill-5" fill="#FFFFFF" mask="url(#mask-2)"></path>
                    </g>
                </g>
            </g>
        </g>
    </g>
</svg>