<?xml version="1.0" encoding="utf-8"?>
<!-- Generator: Adobe Illustrator 27.7.0, SVG Export Plug-In . SVG Version: 6.00 Build 0)  -->
<svg version="1.1" id="Layer_1" xmlns="http://www.w3.org/2000/svg" xmlns:xlink="http://www.w3.org/1999/xlink" x="0px" y="0px"
	 width="87.6px" height="26.5px" viewBox="0 0 87.6 26.5" style="enable-background:new 0 0 87.6 26.5;" xml:space="preserve">
<style type="text/css">
	.st0{fill:#FFFFFF;}
	.st1{fill:#DF0025;}
</style>
<g id="Page-1">
	<g id="header-mobile-2023-v1-copy-5" transform="translate(-58.25, -66.25)">
		<g id="Group-5" transform="translate(58.25, 66.25)">
			<g id="previdenza-copy" transform="translate(27.296, 8.364)">
				<path id="Shape" class="st0" d="M6,9.4C5.9,8.8,5.8,8.3,5.8,7.7l0-2.6c0-0.3,0-1.1-0.5-1.6C4.7,2.7,3.6,2.6,3,2.6
					c-0.6,0-1.4,0.1-2,0.5C0.3,3.7,0.3,4.4,0.3,4.7h1.9c0-0.2,0-0.4,0.1-0.6C2.5,3.9,2.8,3.8,3,3.8c0.2,0,0.7,0.1,0.9,0.5
					C4,4.5,4,4.7,4,5.2c-0.6,0-1.8,0-2.6,0.4C0.2,6.1,0,7.1,0,7.6S0.2,8.6,0.6,9c0.3,0.2,0.7,0.5,1.6,0.5c0.4,0,1.2,0,2-1.1
					c0,0.2,0,0.5,0.1,0.9H6z M4,6.3C4,7,4,7.5,3.6,7.9C3.4,8.1,3.2,8.3,2.8,8.3c-0.6,0-0.9-0.5-0.9-0.9C1.9,6.6,2.8,6.2,4,6.3z"/>
				<path id="Shape_00000177448915300187735600000010556892014016986027_" class="st0" d="M7.4,2.8v9.1h2V8.6
					c0.2,0.2,0.6,0.8,1.8,0.8c1.9,0,2.9-1.7,2.9-3.5c0-2-1-3.3-2.7-3.3c-0.3,0-1.4,0-2,1.1L9.3,2.8H7.4z M10.7,8.2
					c-1.4,0-1.4-1.7-1.4-2.1c0-1.8,0.9-2.2,1.5-2.2c1.1,0,1.3,1.3,1.3,2.1C12.1,7.3,11.6,8.2,10.7,8.2z"/>
				<path id="Path" class="st0" d="M15.3,9.4h1.9V6.1c0-0.8,0.1-1.8,2.1-1.6V2.8c-1.6-0.1-2,0.7-2.2,1.3l0-1.3h-1.8
					c0,0.4,0.1,1.3,0.1,1.6V9.4z"/>
				<path id="Shape_00000180339393019323157230000015020988558416774022_" class="st0" d="M19.7,1.7h2.1V0h-2.1V1.7z M19.8,9.4h1.9
					V2.8h-1.9V9.4z"/>
				<path id="Path_00000029020626373638711500000017489282909092457901_" class="st0" d="M32.3,5.1c0-1.8-1.5-2.5-2.7-2.5
					c-0.9,0-3.1,0.4-3.1,3.4c0,1.1,0.3,1.9,0.8,2.6c0.6,0.7,1.4,0.9,2.2,0.9c0.8,0,1.4-0.2,1.9-0.6c0.8-0.6,0.8-1.4,0.8-1.9h-1.9
					c-0.1,1.2-0.7,1.3-0.9,1.3c-0.1,0-0.3,0-0.5-0.2c-0.4-0.5-0.5-1.7-0.5-2c0-0.7,0.1-2.1,1-2.1c0.7,0,0.8,1,0.8,1.2H32.3z"/>
				<path id="Shape_00000098933056707927126880000003196058953279516856_" class="st0" d="M33,6.2c0,2.3,1.5,3.5,3.4,3.5
					c2.4,0,3.4-1.7,3.4-3.5c0-1.8-1-3.4-3.4-3.4C33.8,2.7,33,4.6,33,6.2z M35,6.2C35,5.6,35,4,36.4,4c1.3,0,1.4,1.2,1.4,2.1
					c0,1.7-0.6,2.2-1.4,2.2C35.5,8.3,35,7.6,35,6.2z"/>
				<path id="Path_00000041988341923442757890000000141288477329128085_" class="st0" d="M41.2,9.4h1.9V5.5c0-0.5,0.1-0.8,0.2-1
					C43.6,4.2,44,4,44.4,4c0.5,0,0.8,0.3,0.9,0.6c0.1,0.2,0.1,0.4,0.1,0.7v4.1h2V5.8c0-1.2,0-1.6-0.2-2c-0.2-0.5-0.7-1.2-2-1.2
					c-1.4,0-2,0.8-2.1,1.1l-0.1-1h-1.8c0,0.5,0,1.2,0,1.2V9.4z"/>
				<path id="Path_00000082346157585981112100000015633208501225183651_" class="st0" d="M52.9,8c-0.2,0-0.4,0-0.7,0
					c-0.9,0-0.9-0.4-0.9-1v-3H53V2.9h-1.6v-2l-1.9,0.7v1.3h-1.3v1.3h1.3v3.6c0,0.5,0,1.8,1.9,1.8c0.3,0,0.9,0,1.5-0.2V8z"/>
				<path id="Shape_00000087371483080841429660000014885871712784520361_" class="st0" d="M53.5,6.2c0,2.3,1.5,3.5,3.4,3.5
					c2.4,0,3.4-1.7,3.4-3.5c0-1.8-1-3.4-3.4-3.4C54.3,2.7,53.5,4.6,53.5,6.2z M55.5,6.2c0-0.6,0-2.2,1.4-2.2c1.3,0,1.4,1.2,1.4,2.1
					c0,1.7-0.6,2.2-1.4,2.2C56,8.3,55.5,7.6,55.5,6.2z"/>
			</g>
			<g id="Group-15" transform="translate(0.75, 0.75)">
				<polygon id="Stroke-1" class="st0" points="13.5,20.9 19,20.9 19,19.4 13.5,19.4 				"/>
				<g id="Group-14">
					<path id="Stroke-2" class="st0" d="M16.3,14.6c3,0,5.5,2.5,5.5,5.6s-2.5,5.6-5.5,5.6c-3,0-5.5-2.5-5.5-5.6S13.2,14.6,16.3,14.6
						z M16.3,16.1c-2.2,0-4,1.8-4,4.1s1.8,4.1,4,4.1c2.2,0,4-1.8,4-4.1S18.5,16.1,16.3,16.1z"/>
					<path id="Stroke-4" class="st0" d="M9.1-0.8c3.2,0,5.8,2.7,5.8,5.9s-2.6,5.9-5.8,5.9S3.3,8.4,3.3,5.2S5.9-0.8,9.1-0.8z
						 M9.1,0.8c-2.4,0-4.3,2-4.3,4.4s1.9,4.4,4.3,4.4s4.3-2,4.3-4.4S11.5,0.8,9.1,0.8z"/>
					<polygon id="Stroke-6" class="st0" points="15.5,17.3 15.5,23 17,23 17,17.3 					"/>
					<polygon id="Stroke-8" class="st1" points="0.8,17.5 0.8,23.6 6.9,23.6 6.9,25.1 -0.7,25.1 -0.7,17.5 					"/>
					<polygon id="Stroke-10" class="st0" points="8.4,25.1 13.8,25.1 13.8,23.6 8.4,23.6 					"/>
					<path id="Stroke-12" class="st0" d="M15.8,12.1c1.9,0,3.4,1.5,3.4,3.4V16h-1.5v-0.5c0-1.1-0.8-1.9-1.9-1.9H2.6
						c-1,0-1.9,0.9-1.9,1.9v0.7h-1.5v-0.7c0-1.9,1.5-3.4,3.4-3.4H15.8z"/>
				</g>
			</g>
		</g>
	</g>
</g>
</svg>
