<?xml version="1.0" encoding="UTF-8"?>
<svg width="37px" height="37px" viewBox="0 0 37 37" version="1.1" xmlns="http://www.w3.org/2000/svg" xmlns:xlink="http://www.w3.org/1999/xlink">
    <!-- Generator: Sketch 48.1 (47250) - http://www.bohemiancoding.com/sketch -->
    <title>info copy 15</title>
    <desc>Created with Sketch.</desc>
    <defs>
        <polygon id="path-1" points="0 36.37285 36.3729821 36.37285 36.3729821 -0.000132142857 0 -0.000132142857"></polygon>
    </defs>
    <g id="Pagina-Tool---Assicurazione" stroke="none" stroke-width="1" fill="none" fill-rule="evenodd" transform="translate(-1108.000000, -552.000000)">
        <g id="info-copy-15" transform="translate(1108.000000, 552.000000)">
            <g id="Page-1">
                <path d="M18.186425,35.0514214 C27.4866393,35.0514214 35.0511571,27.4855821 35.0511571,18.1866893 C35.0511571,8.88581429 27.4866393,1.32129643 18.186425,1.32129643 C8.88753214,1.32129643 1.32169286,8.88581429 1.32169286,18.1866893 C1.32169286,27.4855821 8.88753214,35.0514214 18.186425,35.0514214 Z M18.186425,-0.000132142857 C28.2312643,-0.000132142857 36.3725857,8.14118929 36.3725857,18.1866893 C36.3725857,28.2302071 28.2312643,36.37285 18.186425,36.37285 C8.14290714,36.37285 0.000264285714,28.2302071 0.000264285714,18.1866893 C0.000264285714,8.14118929 8.14290714,-0.000132142857 18.186425,-0.000132142857 Z" id="Fill-1" fill="#343434"></path>
                <mask id="mask-2" fill="white">
                    <use xlink:href="#path-1"></use>
                </mask>
                <g id="Clip-4"></g>
                <polygon id="Fill-3" fill="#343434" mask="url(#mask-2)" points="16.872 29.3976893 19.5141964 29.3976893 19.5141964 13.5986893 16.872 13.5986893"></polygon>
                <path d="M18.186425,6.97753929 C17.0916214,6.97753929 16.2042821,7.86553929 16.2042821,8.95968214 C16.2042821,10.0551464 17.0916214,10.941825 18.186425,10.941825 C19.2812286,10.941825 20.1685679,10.0551464 20.1685679,8.95968214 C20.1685679,7.86553929 19.2812286,6.97753929 18.186425,6.97753929" id="Fill-5" fill="#343434" mask="url(#mask-2)"></path>
            </g>
        </g>
    </g>
</svg>