<?xml version="1.0" encoding="UTF-8" standalone="no"?>
<svg width="64px" height="54px" viewBox="0 0 64 54" version="1.1" xmlns="http://www.w3.org/2000/svg" xmlns:xlink="http://www.w3.org/1999/xlink">
    <!-- Generator: Sketch 46.2 (44496) - http://www.bohemiancoding.com/sketch -->
    <title>Page 1</title>
    <desc>Created with Sketch.</desc>
    <defs>
        <polygon id="path-1" points="66.8059219 47.2965842 66.8059219 0.00290815243 0.00033165496 0.00290815243 0.00033165496 47.2965842"></polygon>
    </defs>
    <g id="Page-1" stroke="none" stroke-width="1" fill="none" fill-rule="evenodd">
        <g id="homepage_prova8-2" transform="translate(-142.000000, -5021.000000)">
            <g id="contact" transform="translate(102.000000, 4730.000000)">
                <g id="contact__newsletter" transform="translate(0.000000, 247.000000)">
                    <g id="Page-1" transform="translate(73.297030, 72.896277) rotate(-7.000000) translate(-73.297030, -72.896277) translate(39.797030, 47.896277)">
                        <polygon id="Fill-1" fill="#E20714" points="47.1810356 45.6452078 34.2922606 40.605379 33.325818 43.0762085 48.6860858 49.0818165 54.6910305 33.7215487 52.2202011 32.7557695"></polygon>
                        <g id="Group-4" transform="translate(0.000000, 0.660391)">
                            <mask id="mask-2" fill="white">
                                <use xlink:href="#path-1"></use>
                            </mask>
                            <g id="Clip-3"></g>
                            <path d="M16.4590407,34.1351888 L54.6524259,9.87595506 L19.2349927,42.5525916 L16.4590407,34.1351888 Z M6.85497637,29.0190794 L50.4530108,9.40036185 L14.7317817,32.089541 L6.85497637,29.0190794 Z M66.698134,1.00816475 C66.3751021,0.181680587 65.3894235,-0.228244943 64.5722257,0.137238822 L0.00033165496,29.1941932 L13.8111075,34.5782798 L18.0052161,47.2965842 L26.1599483,39.7733231 L30.578919,41.4687432 L31.5294421,38.9912807 L28.3349415,37.7668106 L62.1624208,6.55741554 L53.4544882,29.529828 L55.9352673,30.4704015 L66.5787382,2.39116593 C66.8274795,1.97858716 66.8798809,1.473145 66.698134,1.00816475 L66.698134,1.00816475 Z" id="Fill-2" fill="#FFFFFF" mask="url(#mask-2)"></path>
                        </g>
                    </g>
                </g>
            </g>
        </g>
    </g>
</svg>