<?xml version="1.0" encoding="UTF-8"?>
<svg width="55px" height="55px" viewBox="0 0 55 55" version="1.1" xmlns="http://www.w3.org/2000/svg" xmlns:xlink="http://www.w3.org/1999/xlink">
    <!-- Generator: Sketch 47.1 (45422) - http://www.bohemiancoding.com/sketch -->
    <title>Page 1</title>
    <desc>Created with Sketch.</desc>
    <defs>
        <polygon id="path-1" points="0 55 54.745 55 54.745 0.404 0 0.404"></polygon>
    </defs>
    <g id="Page-1" stroke="none" stroke-width="1" fill="none" fill-rule="evenodd">
        <g id="menu-Epipoli" transform="translate(-101.000000, -185.000000)">
            <g id="Page-1" transform="translate(101.000000, 184.000000)">
                <polygon id="Fill-1" fill="#DF0514" points="0 55.596 54.744 55.596 54.744 1 0 1"></polygon>
                <g id="Group-61" transform="translate(0.000000, 0.596000)">
                    <path d="M22.9732,22.6428 C22.9732,22.6428 22.4352,22.5528 21.6262,22.1938 C16.8692,20.0388 13.5462,15.8458 13.6292,9.9258 L13.6292,4.4258 L14.4342,4.4258 C14.4342,5.0538 14.4462,11.1538 14.5352,11.7828 C14.8952,16.0008 18.2162,20.1298 22.2552,21.6558 C22.7922,21.8348 23.2422,22.0148 23.2422,22.0148 C23.4652,22.1078 23.5482,22.2658 23.4832,22.4338 C23.3592,22.7588 22.9732,22.6428 22.9732,22.6428 Z" id="Fill-2" fill="#FEFEFE"></path>
                    <path d="M15.1422,27.7034 L18.3062,23.5404 C18.3962,23.4504 18.5782,23.2664 18.8512,23.4554 C19.1212,23.6424 19.0472,23.8174 18.9342,23.9884 L16.1202,27.7134" id="Fill-4" fill="#FEFEFE"></path>
                    <path d="M20.5904,27.6956 L21.6264,25.0656 C21.6734,24.9386 21.8704,24.7766 22.1124,24.8796 C22.3684,24.9856 22.3964,25.1616 22.3444,25.3356 L21.4014,27.6946 L20.5904,27.6956 Z" id="Fill-6" fill="#FEFEFE"></path>
                    <path d="M27.5504,8.3713 L28.1784,8.3713 L28.1784,8.1923 L25.6654,8.1923 L25.6654,8.3713 L26.2044,8.3713 C26.2044,8.7303 26.4734,8.9103 26.8324,8.9103 C27.1924,8.9103 27.5504,8.7303 27.5504,8.3713" id="Fill-8" fill="#FEFEFE"></path>
                    <path d="M40.5923,27.7092 L37.4233,23.5402 C37.3343,23.4502 37.2003,23.2322 36.8843,23.4412 C36.6473,23.5982 36.7223,23.8182 36.7953,23.9892 L39.6153,27.7232 L40.5923,27.7092 Z" id="Fill-10" fill="#FEFEFE"></path>
                    <path d="M35.15,27.7239 L34.102,25.0669 C34.013,24.9109 33.919,24.8479 33.744,24.8869 C33.559,24.9279 33.324,25.0589 33.384,25.3349 L34.336,27.7119 L35.15,27.7239 Z" id="Fill-12" fill="#FEFEFE"></path>
                    <path d="M45.2447,25.5149 C46.3217,24.3479 47.3087,23.0019 48.1167,21.6549 L41.5647,18.7839 C41.3677,18.6729 41.3067,18.4459 41.4557,18.2189 C41.5647,18.0509 41.7447,17.9749 41.9237,18.0649 L48.4757,20.9369 C49.1937,19.5909 49.8217,18.1549 50.3607,16.6289 L43.1807,15.3729 C43.0447,15.3369 42.8697,15.2059 42.9427,14.8729 C43.0047,14.5879 43.2717,14.5589 43.3597,14.5649 L50.5397,15.9109 C50.9887,14.5649 51.2577,13.1289 51.3477,11.6029 L43.9877,11.6029 C43.8987,11.6029 43.5967,11.5369 43.5967,11.2309 C43.5967,11.0319 43.8087,10.8849 43.9877,10.8849 L51.4377,10.8849 L51.4377,9.3589 L51.4377,4.9219 L36.7177,4.9219 C35.7307,4.9219 34.9227,5.7299 34.9227,6.7169 L35.0127,13.5779 C35.0127,14.4749 34.0257,15.1929 33.3067,15.1929 L33.3067,14.2059 L34.2947,14.2059 L33.2177,11.5129 L34.2947,11.1539 L32.5897,8.8209 L33.3067,8.1919 L30.6147,6.7559 L31.1537,5.7689 C31.1537,5.7689 31.1537,5.8589 31.1537,5.7689 L25.9477,5.8589 C24.6337,5.9239 24.5117,6.2179 24.1527,6.8459 C24.0627,7.1159 23.9727,7.3849 23.8827,7.6539 C22.7167,7.7439 21.6397,7.9229 20.8317,8.9109 C20.2927,9.6279 20.1137,10.4359 20.2927,11.4239 C20.2927,11.5129 20.3827,11.6929 20.5627,11.6929 C20.7417,11.6929 20.8317,11.4239 20.8317,11.2439 C21.0107,10.5259 21.8187,10.1669 22.5367,9.9869 C23.0757,9.8979 23.7037,9.8979 24.1527,10.0769 C24.6907,10.4359 24.8707,10.8389 24.8707,11.1989 L22.6267,11.1989 C23.1647,11.6469 23.7037,12.4999 24.2417,13.0389 C23.8827,13.7569 23.5237,14.4749 23.2547,15.1929 L21.4597,15.1929 C20.4727,15.1929 19.5747,14.2959 19.5747,13.3079 L19.5747,6.7169 C19.5747,5.7299 18.7667,4.9219 17.7797,4.9219 L3.0597,4.9219 L3.0597,9.2689 L3.0597,10.7949 L10.5097,10.8849 C10.7927,10.8829 10.8637,11.0049 10.8677,11.2439 C10.8727,11.5489 10.6847,11.5959 10.5097,11.6029 L3.1497,11.6029 C3.2397,13.1289 3.5087,14.5649 3.9577,15.9109 L11.1377,14.5649 C11.3177,14.5649 11.5207,14.5609 11.5847,14.8879 C11.6537,15.2399 11.4917,15.3199 11.3177,15.3729 C11.2617,15.3899 4.1367,16.6289 4.1367,16.6289 C4.6757,18.1549 5.2137,19.5909 6.0217,20.9369 L12.5737,18.0649 C12.7537,17.9749 12.9557,18.0019 13.0837,18.2589 C13.2667,18.6249 13.0297,18.7279 12.9317,18.7839 L6.3807,21.6549 C7.1887,23.0019 8.1757,24.3479 9.2527,25.5149 L14.9077,21.0269 C14.9977,20.9369 15.2437,20.9139 15.3847,21.0939 C15.5797,21.3419 15.4457,21.5659 15.3567,21.6549 L9.7917,26.0529 C10.4197,26.7709 10.8867,27.1699 11.6697,27.7029 L1.1097,27.7029 L1.1097,1.4959 L53.6307,1.4959 L53.6307,27.7029 L42.8317,27.7029 C43.6397,27.1629 44.0777,26.7709 44.7057,26.0529 L39.1417,21.6549 C39.0007,21.4599 38.9657,21.2589 39.1377,21.0889 C39.3177,20.9109 39.5797,21.0169 39.5897,21.0269 L45.2447,25.5149 Z" id="Fill-14" fill="#FEFEFE"></path>
                    <path d="M41.2339,4.4255 C41.2339,5.0535 41.2219,11.1535 41.1309,11.7825 C40.7729,16.0005 37.4519,20.1305 33.4129,21.6555 C32.8739,21.8345 32.4259,22.0145 32.4259,22.0145 C32.2589,22.1235 32.1469,22.3165 32.2229,22.4785 C32.3509,22.7485 32.6949,22.6425 32.6949,22.6425 C32.6949,22.6425 33.2329,22.5525 34.0409,22.1935 C38.7969,20.0395 42.1219,15.8455 42.0389,9.9255 L42.0389,4.4255 L41.2339,4.4255 Z" id="Fill-16" fill="#FEFEFE"></path>
                    <mask id="mask-2" fill="white">
                        <use xlink:href="#path-1"></use>
                    </mask>
                    <g id="Clip-19"></g>
                    <polygon id="Fill-18" fill="#FEFEFE" mask="url(#mask-2)" points="27.006 46.76 27.913 46.76 27.913 45.751 27.006 45.751"></polygon>
                    <polygon id="Fill-20" fill="#FEFEFE" mask="url(#mask-2)" points="27.006 48.273 27.913 48.273 27.913 47.366 27.006 47.366"></polygon>
                    <path d="M27.5103,45.2463 C28.2163,45.2463 28.7213,44.6423 28.7213,43.9353 C28.7213,43.2283 28.2163,42.7253 27.5103,42.7253 C26.8043,42.7253 26.1983,43.2283 26.1983,43.9353 C26.1983,44.6423 26.8043,45.2463 27.5103,45.2463" id="Fill-21" fill="#FEFEFE" mask="url(#mask-2)"></path>
                    <path d="M28.9224,45.0452 C29.2264,44.7412 29.3264,44.3392 29.3264,43.9352 L29.3264,42.8242 L29.8304,42.8242 L29.8304,43.9352 C29.8304,45.1462 29.0244,45.6492 29.0244,45.6492 L30.9414,47.9712 C31.1434,48.2732 30.9414,48.5752 30.7384,48.5752 L29.8304,48.5752 L29.8304,50.4922 L29.3264,50.4922 L29.3264,48.5752 L28.7214,48.5752 C28.5194,48.5752 28.4184,48.3742 28.4184,48.2732 L28.4184,45.4472 C28.4184,45.4472 28.7214,45.2472 28.9224,45.0452" id="Fill-22" fill="#FEFEFE" mask="url(#mask-2)"></path>
                    <path d="M28.9224,48.9797 C28.9224,49.7867 28.3184,50.3917 27.5104,50.3917 C26.7024,50.3917 25.9964,49.7867 25.9964,48.9797 L28.9224,48.9797 Z" id="Fill-23" fill="#FEFEFE" mask="url(#mask-2)"></path>
                    <path d="M26.0132,45.0452 C25.7092,44.7412 25.6092,44.3392 25.6092,43.9352 L25.6092,42.8242 L25.1052,42.8242 L25.1052,43.9352 C25.1052,45.1462 25.9112,45.6492 25.9112,45.6492 L23.9942,47.9712 C23.7922,48.2732 23.9942,48.5752 24.1972,48.5752 L25.1052,48.5752 L25.1052,50.4922 L25.6092,50.4922 L25.6092,48.5752 L26.2142,48.5752 C26.4162,48.5752 26.5172,48.3742 26.5172,48.2732 L26.5172,45.4472 C26.5172,45.4472 26.2142,45.2472 26.0132,45.0452" id="Fill-24" fill="#FEFEFE" mask="url(#mask-2)"></path>
                    <polygon id="Fill-25" fill="#FEFEFE" mask="url(#mask-2)" points="39.778 42.963 40.686 42.963 40.686 41.954 39.778 41.954"></polygon>
                    <polygon id="Fill-26" fill="#FEFEFE" mask="url(#mask-2)" points="39.778 44.476 40.686 44.476 40.686 43.569 39.778 43.569"></polygon>
                    <path d="M40.2828,41.4495 C40.9888,41.4495 41.4938,40.8455 41.4938,40.1385 C41.4938,39.4315 40.9888,38.9285 40.2828,38.9285 C39.5768,38.9285 38.9708,39.4315 38.9708,40.1385 C38.9708,40.8455 39.5768,41.4495 40.2828,41.4495" id="Fill-27" fill="#FEFEFE" mask="url(#mask-2)"></path>
                    <path d="M41.6949,41.2483 C41.9989,40.9443 42.0989,40.5423 42.0989,40.1383 L42.0989,39.0273 L42.6029,39.0273 L42.6029,40.1383 C42.6029,41.3493 41.7969,41.8523 41.7969,41.8523 L43.7139,44.1743 C43.9159,44.4763 43.7139,44.7783 43.5109,44.7783 L42.6029,44.7783 L42.6029,46.6953 L42.0989,46.6953 L42.0989,44.7783 L41.4939,44.7783 C41.2929,44.7783 41.1909,44.5763 41.1909,44.4763 L41.1909,41.6513 C41.1909,41.6513 41.4939,41.4493 41.6949,41.2483" id="Fill-28" fill="#FEFEFE" mask="url(#mask-2)"></path>
                    <path d="M41.6949,45.1819 C41.6949,45.9899 41.0909,46.5939 40.2839,46.5939 C39.4759,46.5939 38.7689,45.9899 38.7689,45.1819 L41.6949,45.1819 Z" id="Fill-29" fill="#FEFEFE" mask="url(#mask-2)"></path>
                    <path d="M38.7857,41.2483 C38.4827,40.9443 38.3817,40.5423 38.3817,40.1383 L38.3817,39.0273 L37.8777,39.0273 L37.8777,40.1383 C37.8777,41.3493 38.6837,41.8523 38.6837,41.8523 L36.7667,44.1743 C36.5647,44.4763 36.7667,44.7783 36.9697,44.7783 L37.8777,44.7783 L37.8777,46.6953 L38.3817,46.6953 L38.3817,44.7783 L38.9877,44.7783 C39.1877,44.7783 39.2897,44.5763 39.2897,44.4763 L39.2897,41.6513 C39.2897,41.6513 38.9877,41.4493 38.7857,41.2483" id="Fill-30" fill="#FEFEFE" mask="url(#mask-2)"></path>
                    <polygon id="Fill-31" fill="#FEFEFE" mask="url(#mask-2)" points="46.103 35.149 47.011 35.149 47.011 34.14 46.103 34.14"></polygon>
                    <polygon id="Fill-32" fill="#FEFEFE" mask="url(#mask-2)" points="46.103 36.663 47.011 36.663 47.011 35.755 46.103 35.755"></polygon>
                    <path d="M46.608,33.636 C47.314,33.636 47.819,33.031 47.819,32.324 C47.819,31.617 47.314,31.114 46.608,31.114 C45.902,31.114 45.297,31.617 45.297,32.324 C45.297,33.031 45.902,33.636 46.608,33.636" id="Fill-33" fill="#FEFEFE" mask="url(#mask-2)"></path>
                    <path d="M48.0201,33.4338 C48.3241,33.1308 48.4241,32.7278 48.4241,32.3248 L48.4241,31.2138 L48.9281,31.2138 L48.9281,32.3248 C48.9281,33.5358 48.1221,34.0388 48.1221,34.0388 L50.0391,36.3608 C50.2411,36.6628 50.0391,36.9648 49.8361,36.9648 L48.9281,36.9648 L48.9281,38.8818 L48.4241,38.8818 L48.4241,36.9648 L47.8191,36.9648 C47.6181,36.9648 47.5161,36.7628 47.5161,36.6628 L47.5161,33.8368 C47.5161,33.8368 47.8191,33.6358 48.0201,33.4338" id="Fill-34" fill="#FEFEFE" mask="url(#mask-2)"></path>
                    <path d="M48.0201,37.3684 C48.0201,38.1764 47.4161,38.7804 46.6091,38.7804 C45.8011,38.7804 45.0941,38.1764 45.0941,37.3684 L48.0201,37.3684 Z" id="Fill-35" fill="#FEFEFE" mask="url(#mask-2)"></path>
                    <path d="M45.1109,33.4338 C44.8069,33.1308 44.7079,32.7278 44.7079,32.3248 L44.7079,31.2138 L44.2029,31.2138 L44.2029,32.3248 C44.2029,33.5358 45.0089,34.0388 45.0089,34.0388 L43.0919,36.3608 C42.8909,36.6628 43.0919,36.9648 43.2949,36.9648 L44.2029,36.9648 L44.2029,38.8818 L44.7079,38.8818 L44.7079,36.9648 L45.3129,36.9648 C45.5139,36.9648 45.6149,36.7628 45.6149,36.6628 L45.6149,33.8368 C45.6149,33.8368 45.3129,33.6358 45.1109,33.4338" id="Fill-36" fill="#FEFEFE" mask="url(#mask-2)"></path>
                    <polygon id="Fill-37" fill="#FEFEFE" mask="url(#mask-2)" points="33.484 35.149 34.392 35.149 34.392 34.14 33.484 34.14"></polygon>
                    <polygon id="Fill-38" fill="#FEFEFE" mask="url(#mask-2)" points="33.484 36.663 34.392 36.663 34.392 35.755 33.484 35.755"></polygon>
                    <path d="M33.9879,33.636 C34.6939,33.636 35.1999,33.031 35.1999,32.324 C35.1999,31.617 34.6939,31.114 33.9879,31.114 C33.2819,31.114 32.6769,31.617 32.6769,32.324 C32.6769,33.031 33.2819,33.636 33.9879,33.636" id="Fill-39" fill="#FEFEFE" mask="url(#mask-2)"></path>
                    <path d="M35.4009,33.4338 C35.7039,33.1308 35.8039,32.7278 35.8039,32.3248 L35.8039,31.2138 L36.3089,31.2138 L36.3089,32.3248 C36.3089,33.5358 35.5019,34.0388 35.5019,34.0388 L37.4189,36.3608 C37.6209,36.6628 37.4189,36.9648 37.2159,36.9648 L36.3089,36.9648 L36.3089,38.8818 L35.8039,38.8818 L35.8039,36.9648 L35.1989,36.9648 C34.9979,36.9648 34.8969,36.7628 34.8969,36.6628 L34.8969,33.8368 C34.8969,33.8368 35.1989,33.6358 35.4009,33.4338" id="Fill-40" fill="#FEFEFE" mask="url(#mask-2)"></path>
                    <path d="M35.4009,37.3684 C35.4009,38.1764 34.7959,38.7804 33.9889,38.7804 C33.1809,38.7804 32.4749,38.1764 32.4749,37.3684 L35.4009,37.3684 Z" id="Fill-41" fill="#FEFEFE" mask="url(#mask-2)"></path>
                    <path d="M32.4908,33.4338 C32.1878,33.1308 32.0868,32.7278 32.0868,32.3248 L32.0868,31.2138 L31.5828,31.2138 L31.5828,32.3248 C31.5828,33.5358 32.3898,34.0388 32.3898,34.0388 L30.4728,36.3608 C30.2708,36.6628 30.4728,36.9648 30.6758,36.9648 L31.5828,36.9648 L31.5828,38.8818 L32.0868,38.8818 L32.0868,36.9648 L32.6928,36.9648 C32.8938,36.9648 32.9948,36.7628 32.9948,36.6628 L32.9948,33.8368 C32.9948,33.8368 32.6928,33.6358 32.4908,33.4338" id="Fill-42" fill="#FEFEFE" mask="url(#mask-2)"></path>
                    <polygon id="Fill-43" fill="#FEFEFE" mask="url(#mask-2)" points="13.989 42.963 14.897 42.963 14.897 41.954 13.989 41.954"></polygon>
                    <polygon id="Fill-44" fill="#FEFEFE" mask="url(#mask-2)" points="13.989 44.476 14.897 44.476 14.897 43.569 13.989 43.569"></polygon>
                    <path d="M14.4937,41.4495 C15.1997,41.4495 15.7047,40.8455 15.7047,40.1385 C15.7047,39.4315 15.1997,38.9285 14.4937,38.9285 C13.7877,38.9285 13.1817,39.4315 13.1817,40.1385 C13.1817,40.8455 13.7877,41.4495 14.4937,41.4495" id="Fill-45" fill="#FEFEFE" mask="url(#mask-2)"></path>
                    <path d="M15.9058,41.2483 C16.2088,40.9443 16.3098,40.5423 16.3098,40.1383 L16.3098,39.0273 L16.8138,39.0273 L16.8138,40.1383 C16.8138,41.3493 16.0068,41.8523 16.0068,41.8523 L17.9238,44.1743 C18.1258,44.4763 17.9238,44.7783 17.7218,44.7783 L16.8138,44.7783 L16.8138,46.6953 L16.3098,46.6953 L16.3098,44.7783 L15.7038,44.7783 C15.5018,44.7783 15.4018,44.5763 15.4018,44.4763 L15.4018,41.6513 C15.4018,41.6513 15.7038,41.4493 15.9058,41.2483" id="Fill-46" fill="#FEFEFE" mask="url(#mask-2)"></path>
                    <path d="M15.9058,45.1819 C15.9058,45.9899 15.3008,46.5939 14.4938,46.5939 C13.6858,46.5939 12.9798,45.9899 12.9798,45.1819 L15.9058,45.1819 Z" id="Fill-47" fill="#FEFEFE" mask="url(#mask-2)"></path>
                    <path d="M12.9957,41.2483 C12.6927,40.9443 12.5927,40.5423 12.5927,40.1383 L12.5927,39.0273 L12.0887,39.0273 L12.0887,40.1383 C12.0887,41.3493 12.8947,41.8523 12.8947,41.8523 L10.9777,44.1743 C10.7757,44.4763 10.9777,44.7783 11.1807,44.7783 L12.0887,44.7783 L12.0887,46.6953 L12.5927,46.6953 L12.5927,44.7783 L13.1977,44.7783 C13.3997,44.7783 13.4997,44.5763 13.4997,44.4763 L13.4997,41.6513 C13.4997,41.6513 13.1977,41.4493 12.9957,41.2483" id="Fill-48" fill="#FEFEFE" mask="url(#mask-2)"></path>
                    <polygon id="Fill-49" fill="#FEFEFE" mask="url(#mask-2)" points="20.283 35.149 21.191 35.149 21.191 34.14 20.283 34.14"></polygon>
                    <polygon id="Fill-50" fill="#FEFEFE" mask="url(#mask-2)" points="20.283 36.663 21.191 36.663 21.191 35.755 20.283 35.755"></polygon>
                    <path d="M20.7877,33.636 C21.4937,33.636 21.9987,33.031 21.9987,32.324 C21.9987,31.617 21.4937,31.114 20.7877,31.114 C20.0817,31.114 19.4757,31.617 19.4757,32.324 C19.4757,33.031 20.0817,33.636 20.7877,33.636" id="Fill-51" fill="#FEFEFE" mask="url(#mask-2)"></path>
                    <path d="M22.2007,33.4338 C22.5037,33.1308 22.6037,32.7278 22.6037,32.3248 L22.6037,31.2138 L23.1077,31.2138 L23.1077,32.3248 C23.1077,33.5358 22.3017,34.0388 22.3017,34.0388 L24.2187,36.3608 C24.4197,36.6628 24.2187,36.9648 24.0157,36.9648 L23.1077,36.9648 L23.1077,38.8818 L22.6037,38.8818 L22.6037,36.9648 L21.9987,36.9648 C21.7967,36.9648 21.6967,36.7628 21.6967,36.6628 L21.6967,33.8368 C21.6967,33.8368 21.9987,33.6358 22.2007,33.4338" id="Fill-52" fill="#FEFEFE" mask="url(#mask-2)"></path>
                    <path d="M22.2007,37.3684 C22.2007,38.1764 21.5957,38.7804 20.7887,38.7804 C19.9797,38.7804 19.2737,38.1764 19.2737,37.3684 L22.2007,37.3684 Z" id="Fill-53" fill="#FEFEFE" mask="url(#mask-2)"></path>
                    <path d="M19.2906,33.4338 C18.9876,33.1308 18.8866,32.7278 18.8866,32.3248 L18.8866,31.2138 L18.3826,31.2138 L18.3826,32.3248 C18.3826,33.5358 19.1896,34.0388 19.1896,34.0388 L17.2726,36.3608 C17.0706,36.6628 17.2726,36.9648 17.4746,36.9648 L18.3826,36.9648 L18.3826,38.8818 L18.8866,38.8818 L18.8866,36.9648 L19.4926,36.9648 C19.6936,36.9648 19.7946,36.7628 19.7946,36.6628 L19.7946,33.8368 C19.7946,33.8368 19.4926,33.6358 19.2906,33.4338" id="Fill-54" fill="#FEFEFE" mask="url(#mask-2)"></path>
                    <polygon id="Fill-55" fill="#FEFEFE" mask="url(#mask-2)" points="7.725 35.149 8.633 35.149 8.633 34.14 7.725 34.14"></polygon>
                    <polygon id="Fill-56" fill="#FEFEFE" mask="url(#mask-2)" points="7.725 36.663 8.633 36.663 8.633 35.755 7.725 35.755"></polygon>
                    <path d="M8.2291,33.636 C8.9351,33.636 9.4401,33.031 9.4401,32.324 C9.4401,31.617 8.9351,31.114 8.2291,31.114 C7.5231,31.114 6.9171,31.617 6.9171,32.324 C6.9171,33.031 7.5231,33.636 8.2291,33.636" id="Fill-57" fill="#FEFEFE" mask="url(#mask-2)"></path>
                    <path d="M9.6422,33.4338 C9.9452,33.1308 10.0452,32.7278 10.0452,32.3248 L10.0452,31.2138 L10.5492,31.2138 L10.5492,32.3248 C10.5492,33.5358 9.7432,34.0388 9.7432,34.0388 L11.6602,36.3608 C11.8622,36.6628 11.6602,36.9648 11.4572,36.9648 L10.5492,36.9648 L10.5492,38.8818 L10.0452,38.8818 L10.0452,36.9648 L9.4402,36.9648 C9.2382,36.9648 9.1382,36.7628 9.1382,36.6628 L9.1382,33.8368 C9.1382,33.8368 9.4402,33.6358 9.6422,33.4338" id="Fill-58" fill="#FEFEFE" mask="url(#mask-2)"></path>
                    <path d="M9.6422,37.3684 C9.6422,38.1764 9.0372,38.7804 8.2302,38.7804 C7.4212,38.7804 6.7152,38.1764 6.7152,37.3684 L9.6422,37.3684 Z" id="Fill-59" fill="#FEFEFE" mask="url(#mask-2)"></path>
                    <path d="M6.732,33.4338 C6.429,33.1308 6.328,32.7278 6.328,32.3248 L6.328,31.2138 L5.824,31.2138 L5.824,32.3248 C5.824,33.5358 6.631,34.0388 6.631,34.0388 L4.714,36.3608 C4.512,36.6628 4.714,36.9648 4.916,36.9648 L5.824,36.9648 L5.824,38.8818 L6.328,38.8818 L6.328,36.9648 L6.934,36.9648 C7.136,36.9648 7.236,36.7628 7.236,36.6628 L7.236,33.8368 C7.236,33.8368 6.934,33.6358 6.732,33.4338" id="Fill-60" fill="#FEFEFE" mask="url(#mask-2)"></path>
                </g>
            </g>
        </g>
    </g>
</svg>