<svg xmlns="http://www.w3.org/2000/svg" width="1345.64" height="1330.7" viewBox="0 0 1345.64 1330.7"><g id="Layer_2" data-name="Layer 2"><g id="Layer_1-2" data-name="Layer 1"><path d="M1309.5,289.33A42.31,42.31,0,0,0,1277,274.07c-1.25,0-2.51.05-3.77.16l-40.51,3.62a163.9,163.9,0,0,0-38.6,8.21C1092,118.43,907.6,6.48,697,6.48,399.46,6.48,154.14,230,119.69,518.26a158.37,158.37,0,0,0-30.76,5.23,118.6,118.6,0,0,0-35.29,16.57A91.78,91.78,0,0,0,23,572.17,105.2,105.2,0,0,0,9.7,611.61a93.91,93.91,0,0,0,4.85,43.81c5.77,16.13,16.62,30.05,31.61,40.43A105,105,0,0,0,83.2,712a124.25,124.25,0,0,0,26.32,2.83c3,0,6.09-.11,9.21-.34,3.45-.26,6.91-.67,10.37-1.17q1.2,5.51,2.52,11a42.27,42.27,0,0,0,6.52,38c.45.6.91,1.18,1.39,1.75l-11.47,39.35a85,85,0,0,0-2.74,14.71,57.62,57.62,0,0,0,2.47,23.27,49.91,49.91,0,0,0,22,27.39A51,51,0,0,0,176,875.59c1.76,0,3.63-.07,5.6-.25a75,75,0,0,0,9-1.38,583.41,583.41,0,0,0,83,112.53,134.12,134.12,0,0,0,40.78,43.26,147.33,147.33,0,0,0,14.86,8.63A579.09,579.09,0,0,0,697,1169.48c321.15,0,581.5-260.35,581.5-581.5a585.89,585.89,0,0,0-7.41-92.85l46.64-167.35A42.32,42.32,0,0,0,1309.5,289.33Z"/><path d="M701.49,1189.85a596.07,596.07,0,0,1-375.18-133.22,157.89,157.89,0,0,1-14.92-8.77,147.16,147.16,0,0,1-44.1-46.28,597.69,597.69,0,0,1-79.23-106l-.77.07c-2.27.2-4.66.31-6.84.31a64.29,64.29,0,0,1-33-8.72,63.63,63.63,0,0,1-28-34.79,71,71,0,0,1-3.08-28.68,96.72,96.72,0,0,1,3.17-17l9.68-33.24A55.81,55.81,0,0,1,121.46,735,135.84,135.84,0,0,1,84.83,732a118.3,118.3,0,0,1-41.76-18.16c-17.3-12-30-28.2-36.68-47a107.13,107.13,0,0,1-5.53-50,118.34,118.34,0,0,1,15-44.46A104.86,104.86,0,0,1,50.72,535.8a131.69,131.69,0,0,1,39.1-18.3A166.83,166.83,0,0,1,112.21,513C152.59,219.77,404,0,701.49,0a594.52,594.52,0,0,1,503,277.12,178.26,178.26,0,0,1,31.45-5.69l40.52-3.63a55.84,55.84,0,0,1,47.83,19.88h0a55.78,55.78,0,0,1,10.85,50.65l-45.86,164.54a600.54,600.54,0,0,1,7.12,92C1296.41,923,1029.53,1189.85,701.49,1189.85ZM201.93,865.72l4.85,8.57a570.14,570.14,0,0,0,81,109.93l1,1.07.75,1.25a120.78,120.78,0,0,0,36.71,39,131.55,131.55,0,0,0,13.48,7.83l1.3.66,1.13.92A569.14,569.14,0,0,0,701.49,1163c313.23,0,568.07-254.84,568.07-568.08a574.85,574.85,0,0,0-7.24-90.72l-.47-2.9,47.44-170.18a28.92,28.92,0,0,0-30.42-36.57l-40.52,3.62a149.8,149.8,0,0,0-35.42,7.54l-10.22,3.52-5.62-9.24C1083,129,901.45,26.85,701.49,26.85c-287.47,0-529.93,214.93-564,499.94l-1.32,11-11,.8A144.94,144.94,0,0,0,97,543.38a105,105,0,0,0-31.28,14.7l-.41.27a78.28,78.28,0,0,0-26.16,27.46A91.71,91.71,0,0,0,27.5,620.23a80.74,80.74,0,0,0,4.17,37.61c4.82,13.48,14,25.21,26.61,33.92a91.55,91.55,0,0,0,32.24,14A109.22,109.22,0,0,0,122.23,708c2.77-.2,5.87-.55,9.45-1.06L144,705.19l2.67,12.18q1.19,5.37,2.46,10.71l.86,3.59-1.09,3.53a28.91,28.91,0,0,0,4.42,25.93c.32.41.63.81.95,1.2l4.61,5.49-13.47,46.24a70,70,0,0,0-2.26,12.15A44.61,44.61,0,0,0,145,844.15a36.74,36.74,0,0,0,16.12,20,37.74,37.74,0,0,0,19.3,5h0c1.4,0,2.87-.06,4.43-.2a58.65,58.65,0,0,0,7.36-1.14Z" fill="#fff"/><path d="M898,635.11c-6.65-18.81,28.81-59.4,5.1-83.13,26.35-16.63,61-23.91,96.39-24.55,7.62-.14,12.44-1,17.49-.29,14.85,2,29.41,6.2,43.47,11.33s27.23,10.17,39.5,15.11,23.39,8.85,33.34,11.75,18.23,2.75,24.81-.44a36.74,36.74,0,0,0,12.3-9.26,83.42,83.42,0,0,0,9.64-13.28,99.88,99.88,0,0,0,7-14.65q2.87-7.53,4.8-13.74l14.84-52.43a68.44,68.44,0,0,1-15.41,10.25,49.18,49.18,0,0,1-17,4.71q-10.21.9-18-2.66a31.31,31.31,0,0,1-12.86-10.92,45.42,45.42,0,0,1-7.06-17.47,64.22,64.22,0,0,1,.1-22.72,116.29,116.29,0,0,1,12.68-36.8A122.31,122.31,0,0,1,1173.08,355a124,124,0,0,1,32.8-22.09,117.84,117.84,0,0,1,39.53-10.45l40.5-3.62-59.15,212.2A143.1,143.1,0,0,1,1213.37,560a116.58,116.58,0,0,1-16.73,21.37A43.74,43.74,0,0,1,1173.47,594a82,82,0,0,1-33-.25,339.4,339.4,0,0,1-33.62-8.89q-17-5.4-34.47-10.41a137.89,137.89,0,0,0-35.61-5.34c-12.09-.22-25.38-.1-37,6.5C976.05,589.05,911.32,622.79,898,635.11Zm288.12-233.5q-4.83,17.47-2.06,26.63t9.28,10.53q6.51,1.37,14.12-4.81t12.4-20.1l20.25-71.37a53.88,53.88,0,0,0-33.81,18.81Q1193.12,376.86,1186.11,401.61Z" fill="#f37820"/><path d="M864.66,975.38a2.74,2.74,0,0,0-3.23-.28c-20.2,12.15-58.18,16.78-63.13,17.79a24.45,24.45,0,0,0-6,2.11c-1.72-2.17-3.55-4.25-5.44-6.28V940.16c0-4.13,3-7.42,5.92-10.37A19.89,19.89,0,0,0,778.44,896H778a15.55,15.55,0,0,0-3,.32A20,20,0,0,0,758.47,916a19.59,19.59,0,0,0,5.18,13.27c2.69,3,5.55,6.32,5.55,10.39v34a103.24,103.24,0,0,0-117.64.39V939.61c0-4.07,2.86-7.4,5.54-10.39A19.59,19.59,0,0,0,662.28,916a20,20,0,0,0-16.53-19.65,15.37,15.37,0,0,0-3-.32h-.46A19.9,19.9,0,0,0,628,929.79c2.88,3,5.91,6.24,5.91,10.37v49.3q-1.9,2.1-3.71,4.32a24.06,24.06,0,0,0-7.8-3.08c-4.95-1-42.93-5.64-63.14-17.78a2.73,2.73,0,0,0-3.23.27c-.59.5,6.13,19.32,18.77,35.36,10.45,13.23,21.94,22.79,34,28.46.18-.14.39-.24.57-.38a103.72,103.72,0,0,0-2.53,22.71v98.72l.25,0,.25.05.25,0,.24,0,.25,0,.25,0,.25,0,.25,0,.24,0,.25,0,.25,0,.16,0h.09l.25,0,.24,0,.25,0,.25,0,.25,0,.25,0,.24,0,.25,0,.25,0a538.65,538.65,0,0,0,61,7.11l.4,0,.4,0,.39,0,.28,0,.28,0,.28,0,.28,0h.29l.39,0h.27l.27,0,.27,0,.27,0h.27l.28,0H678l.27,0h1.08c8.66.41,17.36.64,26.13.64,12.3,0,24.5-.46,36.59-1.27l.26,0h.25l.26,0H743l.25,0,.26,0h.25l.25,0h.26l.26,0,.27,0,.28,0,.3,0h.29l.28,0,.28,0,.28,0,.28,0,.28,0,.28,0,.27,0q23.61-1.85,46.6-5.71h8.26v-1.42q3.4-.63,6.79-1.31l.15,0,.25,0,.25,0,.25-.05.24,0,.25,0,.25,0,.25,0,.25,0,.24-.05.25,0,.25,0,.25,0,.25,0,.24-.05.25,0,.25,0,.25,0,.25-.06.24-.05.25-.06.25,0v-96.65a104.39,104.39,0,0,0-2-20.52c11.78-5.7,23-15.12,33.26-28.1C858.53,994.69,865.26,975.87,864.66,975.38Z" fill="#fff"/><path d="M164.17,986.33l-62.24,42.18-3.19-4.71,29.78-20.19L104,967.42,74.21,987.61,71,982.9l62.25-42.19,3.19,4.72-28,19L133,1000.6l28-19Z"/><path d="M144.94,1023.94a38.78,38.78,0,1,1-3.62,54.73A38.57,38.57,0,0,1,144.94,1023.94ZM192.29,1078a33.09,33.09,0,1,0-46.85-2.94A32.95,32.95,0,0,0,192.29,1078Z"/><path d="M191.18,1106.38l5.6,1.21c-4.2,8.39-2.72,18.05,6.38,26.4,9.26,8.5,18.29,8,24.1,1.71,6.1-6.65,2.57-14.56-3.43-25-6.5-11.5-12.42-21.74-3.56-31.4,8.35-9.1,21-8.12,30.43.52,9.11,8.35,10.33,19.09,7.14,28l-5.38-1.28c2.52-6.88,2.46-15.39-5.46-22.65-7.68-7-16.64-7-22.31-.79-6.1,6.64-2.37,13.86,3.15,23.73,6.84,12.25,12.55,23.18,3.76,32.76-8.42,9.18-21.14,8.59-32.14-1.51C189.09,1128.52,186.52,1116.54,191.18,1106.38Z"/><path d="M312.67,1138.87l-18.75-14.39-42.5,55.39-4.6-3.53,42.5-55.39-18.75-14.39,3.27-4.26,42.1,32.3Z"/><path d="M326.26,1224.13l-2.87,4.54-36.57-23.18L327.07,1142l36.12,22.88-2.88,4.54L329,1149.56l-15.64,24.68,29,18.4-2.88,4.54-29-18.4-16,25.22Z"/><path d="M417.31,1234.93c-9.2,18.57-29.88,27.15-48.45,18l-25.32-12.53L376.91,1173l25.32,12.54C420.81,1194.7,426.51,1216.35,417.31,1234.93Zm-5-2.48c7.92-16,3.43-34.27-12.46-42.14l-20.21-10L351,1238.06l20.22,10C387.12,1255.94,404.39,1248.43,412.3,1232.45Z"/><path d="M511.59,1285.62a20.45,20.45,0,0,1-25.68,13.5l-31-9.62,22.32-71.81,28.62,8.89a19.79,19.79,0,0,1,13,24.75,18.34,18.34,0,0,1-14.11,12.82A19.71,19.71,0,0,1,511.59,1285.62Zm-5.43-1.69a15,15,0,0,0-9.66-18.86L471,1257.13l-9,28.92L487.5,1294A15,15,0,0,0,506.16,1283.93Zm-25.07-59.42L472.55,1252l23.18,7.2a14.4,14.4,0,0,0,8.55-27.49Z"/><path d="M555.5,1284.67,549.19,1315l-5.57-1.17,6.31-30.28-17.79-48.91,6.31,1.32,15.43,42.82L585,1245.62l6.31,1.32Z"/><path d="M697.83,1330.7l-5.69-.26,3-66.74-29.87,44.88-1,0-25.7-47.4-3,66.74-5.69-.25,3.4-75.11,7.08.32,24.82,45.63L694,1255.26l7.19.33Z"/><path d="M768.5,1307.54l-37.6,2.73-5.9,19.6-6,.43,23.69-77.1,6-.44,34.48,72.88-6,.44Zm-2.43-5.21-19.87-42.39-13.55,44.82Z"/><path d="M826.68,1287.25l-23.38,4.13,5.37,30.36-5.61,1-13.08-74,29.19-5.16a22.17,22.17,0,0,1,13.2,42l23.9,27.85-6.46,1.14Zm-24.31-1.16,23.59-4.17a16.81,16.81,0,0,0-5.85-33.1L796.52,1253Z"/><path d="M918.13,1296.59l-46.31-25.51,10,35.68-5.48,1.54-20.29-72.41,5.49-1.53,9.44,33.72,25.83-43.61,7.34-2-26.76,45.42,48.08,26.69Z"/><path d="M939.91,1210.93l5.42-2.61,46.82,52.44-10.43-70,6.1-2.93,48.27,51.74-11.88-69.26,5.42-2.61,13,77.21-6.19,3L988,1196l10.34,70.25-6.2,3Z"/><path d="M1045.91,1155.8l39.34,64.08-4.86,3-39.33-64.09Z"/><path d="M1137,1178.5l3.08,4.39-33.67,23.63L1063.19,1145l4.66-3.26,40.1,57.15Z"/><path d="M1183.63,1140.31l3.44,4.13-31.62,26.32-48.1-57.79,4.37-3.64,44.67,53.66Z"/><path d="M1152.83,1073.31l51.5,54.78-4.15,3.89-51.5-54.77Z"/><path d="M1238.23,1065.63l-25.57,27.7,9.09,18.34-4.08,4.42-35.43-72.47,4.09-4.42,75,29.62-4.08,4.42Zm-5.33-2.14-43.49-17.35,20.76,42Z"/><path d="M1314.75,997.51l-3.34,4.61-54.07-39.24,21,49.64-.57.78-53.72-4.61,54.07,39.24-3.34,4.6L1214,1008.37l4.16-5.73,51.76,4.38-20.21-47.85,4.22-5.82Z"/><path d="M1312.4,969.79l-.09-5.73c9.12,2.2,18.21-1.42,24.29-12.18,6.19-10.94,3.7-19.63-3.78-23.86-7.85-4.44-14.76.79-23.6,9-9.74,8.93-18.38,17-29.78,10.55-10.76-6.09-12.66-18.64-6.37-29.77,6.09-10.75,16.28-14.36,25.65-13.26l0,5.53c-7.27-.9-15.55,1.08-20.84,10.43-5.13,9.07-3,17.79,4.27,21.91,7.85,4.45,14-.82,22.41-8.42,10.39-9.43,19.75-17.46,31.07-11.06,10.84,6.14,13.13,18.67,5.78,31.66C1334.44,966.83,1323.35,972,1312.4,969.79Z"/><path d="M482,469.78q3.84-4.61,8.23-5.17a9.4,9.4,0,0,1,7.25,1.66,9,9,0,0,1,3.25,6.63q.39,4.41-3.77,9.39a247.54,247.54,0,0,1-22.24,23.28,197.6,197.6,0,0,1-25,19.62,149.35,149.35,0,0,1-26.78,14.1A96.74,96.74,0,0,1,395.49,546q-15.84,1.41-27.61-3.21a42.34,42.34,0,0,1-18.82-13.94,49.21,49.21,0,0,1-9.1-22.43q-2.06-13.12,1.52-28.71a96,96,0,0,1,11.88-30,119.76,119.76,0,0,1,20.43-25.61,112.1,112.1,0,0,1,25.34-18.23,72.08,72.08,0,0,1,26.95-8.26,62.76,62.76,0,0,1,16,.7,34.8,34.8,0,0,1,14.54,5.8,28.27,28.27,0,0,1,9.6,12.1q3.35,7.68,1.56,19.55a40.29,40.29,0,0,1-9.94,21.83,58.39,58.39,0,0,1-20.17,14.58,81.84,81.84,0,0,1-26.21,6.6,88.71,88.71,0,0,1-28.4-2.08q-1.62,13.64,4.12,24.29t16.24,12.93A36.93,36.93,0,0,0,421,512a77.49,77.49,0,0,0,19.9-7.63A127.65,127.65,0,0,0,461.83,490,156.58,156.58,0,0,0,482,469.78Zm-52.56-52.09A30.35,30.35,0,0,0,416.72,422a58.37,58.37,0,0,0-12.26,9.79A79.52,79.52,0,0,0,394,445.34a86,86,0,0,0-7.52,15.23A57.72,57.72,0,0,0,400.5,459a55.33,55.33,0,0,0,13.9-5.33,51.74,51.74,0,0,0,12.13-9.24A47,47,0,0,0,435.62,431q2.37-5.18.05-9.41C434.11,418.75,432.05,417.46,429.47,417.69Z" fill="#f37820"/><path d="M640.47,455.64q4.17-5,8.56-5.56a8.63,8.63,0,0,1,10.35,8.66q.21,4.42-4,9.4l-5.93,7.1-7.7,9.2-7.69,9.21q-3.69,4.41-5.94,7.09a107.75,107.75,0,0,1-20.69,18.71q-12.35,8.74-29.6,10.27-8.11.74-13-5A38.33,38.33,0,0,1,557.39,511a81,81,0,0,1-18.75,16.58A48.13,48.13,0,0,1,517,535.16a35.08,35.08,0,0,1-18-2.65,31.38,31.38,0,0,1-12.86-10.92,45.42,45.42,0,0,1-7.06-17.47,64.27,64.27,0,0,1,.1-22.73,116.38,116.38,0,0,1,12.68-36.8,123.24,123.24,0,0,1,56.68-53A117.72,117.72,0,0,1,588,381.17l40.85-3.64L599.08,481q-1.94,6.21-1.12,9.33c.54,2.08,1.66,3.35,3.36,3.78s3.72,0,6.1-1.25a26.73,26.73,0,0,0,7.4-6.52Zm-79.05,17,21-71.43a55.81,55.81,0,0,0-33.8,19q-13.19,15.38-19.84,40.1-4.86,17.11-2.26,26.46t8.61,10.95q6,1.59,13.31-4t12.16-18.83Z" fill="#f37820"/><path d="M694.44,376.29l29.46-11.86,25.41,2.35L719.5,470.23q-1.57,6.18-.77,9.3t3.18,3.8q2.37.68,6.1-1.26a25.5,25.5,0,0,0,7.58-6.53l25.65-30.68q4.17-5,8.56-5.56a8.51,8.51,0,0,1,7.09,1.86A9.36,9.36,0,0,1,779.8,448q.21,4.42-3.95,9.41l-5.93,7.09-7.7,9.21-7.69,9.2-5.94,7.1a110.06,110.06,0,0,1-20.51,18.69Q715.9,517.41,698.3,519a17.91,17.91,0,0,1-11.95-2.66,22.5,22.5,0,0,1-7.73-9.07,34.31,34.31,0,0,1-3.18-13.73,45.3,45.3,0,0,1,2.44-16.37l25.78-88.9-12.8,3.63q-2.85,12-6.22,21.85a187.89,187.89,0,0,1-11.74,27.49,133,133,0,0,1-17.53,26.23q-3.86,4.6-8.24,5.17a9.34,9.34,0,0,1-7.24-1.66,8.2,8.2,0,0,1-3.06-6.47q-.21-4.25,3.64-8.84a103.51,103.51,0,0,0,7.12-9.69q3.6-5.46,6.81-11.25t5.89-11.53c1.79-3.83,3.36-7.34,4.74-10.54.94-2.68,1.83-5.31,2.67-7.87s1.72-5.18,2.67-7.87a6.68,6.68,0,0,0-2-.18,2.16,2.16,0,0,1-1.65-.56q-8.38-2.44-11.34-13.72T656.6,358q4.13-13.5,12.86-21t17.11-5.07q8.38,2.44,11.34,13.72t-1.16,24.77Z" fill="#f37820"/><path d="M829.64,463.6q2.9-11.27,6.18-22.2l5.47-18.24,1-4.35.58-1.47a1,1,0,0,1,.29-.74l3.54-12q3.53-12-.81-15t-15.25,10.06a134.22,134.22,0,0,0-9,12.52q-5.14,7.91-10.64,18T800.39,452a202.37,202.37,0,0,0-8.7,23.85l-10.3,35.7-40.49,3.61q1-4.35,3.62-13.1t5.83-20.22q3.23-11.46,7-24.76t7.59-26.4q9-30.62,19.21-67L825,360l-9.47,33.14,8-10.29q10.26-12.27,20-18.82T868,356.19q9.51-.85,14.75,2.23a16.58,16.58,0,0,1,7.37,8.93,31.81,31.81,0,0,1,1.4,13.71,94.84,94.84,0,0,1-3.13,16.61l-15.94,56.08-.51,2.17-.29.74a36,36,0,0,0-1.41,10.06c.11,2.6.79,4.31,2.06,5.14s3.11.49,5.58-1,5.52-4.45,9.15-8.8q15.1-17.67,25.66-30.69,4.15-5,8.73-5.57t7.26,1.84a9.39,9.39,0,0,1,2.92,6.84q.21,4.43-4,9.4l-27.25,32.6A96.56,96.56,0,0,1,878,496.37a61.62,61.62,0,0,1-27.94,9.06q-9.51.85-14.75-2.23a16.63,16.63,0,0,1-7.38-9.1,32.56,32.56,0,0,1-1.41-13.9A94,94,0,0,1,829.64,463.6Z" fill="#f37820"/><path d="M988,424.62q4.17-5,8.74-5.57c3-.39,5.46.22,7.26,1.84a9.36,9.36,0,0,1,2.91,6.83q.23,4.42-3.95,9.41l-27.25,32.6a96.51,96.51,0,0,1-22.36,19.91,61.54,61.54,0,0,1-27.94,9.06q-9.51.85-14.75-2.23a16.59,16.59,0,0,1-7.38-9.1,32.67,32.67,0,0,1-1.42-13.89A96,96,0,0,1,905,456.87q1-4.35,2.92-11.08t4.33-15.12q2.44-8.37,5.17-17.67t5.48-18.06q6.3-20.79,13-44.82l40.49-3.61L946.6,450A36.41,36.41,0,0,0,945.19,460q.16,3.89,2.24,5.12t5.76-1q3.69-2.27,9.15-8.8Q977.45,437.63,988,424.62Z" fill="#f37820"/><path d="M988.47,305.72A24.43,24.43,0,0,1,982.82,324a25.1,25.1,0,1,1-3.14-35.21A24.46,24.46,0,0,1,988.47,305.72Z" fill="#f37820"/><path d="M1056.39,443.36q2.89-11.25,6.18-22.2l5.47-18.24,1-4.35.58-1.47a1,1,0,0,1,.29-.73l3.54-12q3.52-12-.81-15t-15.25,10.05a134.22,134.22,0,0,0-9,12.52q-5.14,7.91-10.64,18t-10.64,21.89a203,203,0,0,0-8.7,23.85l-10.3,35.7-40.49,3.61q1-4.35,3.62-13.1t5.83-20.21q3.23-11.47,7-24.76t7.59-26.41q9-30.61,19.21-67l40.85-3.65-9.47,33.14,8-10.29q10.26-12.27,20-18.82t24.49-7.86q9.51-.85,14.75,2.23a16.58,16.58,0,0,1,7.37,8.93,31.81,31.81,0,0,1,1.4,13.71,94.84,94.84,0,0,1-3.13,16.61l-15.94,56.08-.51,2.17-.29.74a36,36,0,0,0-1.41,10.06c.11,2.6.79,4.31,2.06,5.14s3.11.49,5.58-1,5.52-4.45,9.15-8.8q15.1-17.67,25.66-30.68,4.15-5,8.73-5.57t7.26,1.83a9.41,9.41,0,0,1,2.92,6.84q.21,4.43-4,9.4l-27.25,32.6a96.33,96.33,0,0,1-22.36,19.92,61.62,61.62,0,0,1-27.94,9.06q-9.51.85-14.75-2.23a16.63,16.63,0,0,1-7.38-9.1,32.56,32.56,0,0,1-1.41-13.9A94,94,0,0,1,1056.39,443.36Z" fill="#f37820"/><path d="M623.36,631.07a7.28,7.28,0,0,1,2.49,4M495.54,690.25c-17-1.68-62.85-13.71-78.6-17.86a425.19,425.19,0,0,1-45.87-14.9q-22.26-8.65-43.8-17.56T284.41,623a365.77,365.77,0,0,0-42.71-13.22,203.51,203.51,0,0,1-31.86,30.71,172.85,172.85,0,0,1-39,22.46q-11,4.18-22.75,7.53a117.86,117.86,0,0,1-23.58,4.24,81.67,81.67,0,0,1-23.39-1.64A62.76,62.76,0,0,1,79,663.34q-11.35-7.87-15.61-19.73a51.8,51.8,0,0,1-2.69-24.25,62.36,62.36,0,0,1,8-23.6,49.67,49.67,0,0,1,17.21-17.87,76.06,76.06,0,0,1,23.32-11.13,116.71,116.71,0,0,1,25.37-4,162.39,162.39,0,0,1,26.16.86q13.08,1.5,25.7,3.57,7.19,1.13,14.57,2.24c4.91.75,9.77,1.49,14.57,2.25a260.57,260.57,0,0,0,14.29-42.8q5.44-22.49,10.47-41.75,5.63-20.37,11.07-40.91t12-40.65q6.54-20.08,14.76-39.47a295.52,295.52,0,0,1,19.34-37.75,295.62,295.62,0,0,1,21.41-28.53,202.12,202.12,0,0,1,25.44-25.16,157.8,157.8,0,0,1,29.51-19.31A126.16,126.16,0,0,1,407.45,244a81.51,81.51,0,0,1,24.24-.75,61.86,61.86,0,0,1,20.43,6.17,56.68,56.68,0,0,1,15.79,11.9,58,58,0,0,1,10.69,16.43q10.86-1.67,21.37-3.15t20.67-3.08q43.53-5.31,86.68-10.93t85.8-13q29.67-5.48,58.68-12.51a542,542,0,0,0,57.55-17.38q17.55-6.18,34.1-13.51t34-15.28a6.88,6.88,0,0,1,5.28-.47,8.67,8.67,0,0,1,4.15,2.82,7.54,7.54,0,0,1,1.66,4.65,7.3,7.3,0,0,1-1.86,5,264.56,264.56,0,0,1-60.07,50.79,355.52,355.52,0,0,1-71.17,33.68,438,438,0,0,1-77.27,19,546.41,546.41,0,0,1-78.41,6.29,234.61,234.61,0,0,1-24.24.74l-29-.43q-15.28-.24-31.41,0t-31.27,1.55Q482,328.17,472.54,345a71.64,71.64,0,0,1-21.48,23.74,52.23,52.23,0,0,1-30.55,9.65q-16-.35-24.66-7.91a29.92,29.92,0,0,1-10.34-18.42q-1.68-10.86,2.93-22.8a50.06,50.06,0,0,1,15.19-20.7,84.67,84.67,0,0,1,23.05-16.08,161.68,161.68,0,0,1,26.12-9.6,31,31,0,0,0-18-11.17,42.2,42.2,0,0,0-21.61.51A80.7,80.7,0,0,0,393,281.1a105.74,105.74,0,0,0-17.43,13.45,123.62,123.62,0,0,0-14.66,16.74q-6.65,9.12-12.19,18.48A198.68,198.68,0,0,0,333.08,367q-5.91,19.34-10.17,39.24t-8.14,39.94a362.86,362.86,0,0,1-10,39.4q-7.19,23-16.51,45.66a318,318,0,0,1-22.34,44L259.64,584q43.32,8.19,79.95,17t73.28,15.82c24.43,4.68,72.4,12.91,99.16,15.73m-372.49-2.33q17.37-.13,30.48-6.45A75.83,75.83,0,0,0,192.84,607l-5-.26q-9.32-.94-19.61-1.09a115.81,115.81,0,0,0-20.11,1.44,73.81,73.81,0,0,0-18.66,5.57A47.92,47.92,0,0,0,113.79,624c-.66.53-1,.91-1,1.15q4.53,3.14,12.25,4.05A144.53,144.53,0,0,0,139.54,630.25ZM421.26,351a28.69,28.69,0,0,0,12.55-2.53,34.47,34.47,0,0,0,10.35-7.32,47.25,47.25,0,0,0,7.89-11,54.67,54.67,0,0,0,4.89-12.86,98.4,98.4,0,0,0-25.53,10.26,46.37,46.37,0,0,0-17.08,17.32c-1.2,2.47-.89,4,.95,4.71A27.7,27.7,0,0,0,421.26,351Z" fill="#f37820"/><path d="M665.72,614.08a7,7,0,0,1,2.34,3.85" fill="#f37820"/><path d="M686.85,767.56a6.29,6.29,0,0,1,5.75,1.77,9.64,9.64,0,0,1,2.37,6.33q.21,4.08-3,8.62L670.82,814a78.17,78.17,0,0,1-17.4,18.11,42.9,42.9,0,0,1-21.93,8q-7.75.71-11.93-2.19a15,15,0,0,1-5.77-8.48,37.47,37.47,0,0,1-1.13-12.83A99,99,0,0,1,615,801.4q.76-4,3.84-16.71t7.46-31.12q4.38-18.41,9.72-40.34t10.63-44.34c8.46-35,17.89-85.86,28.28-128.71l31.88-2.88L647.68,795.49a37.92,37.92,0,0,0-1,9.26c.11,2.39.72,4,1.81,4.75s2.6.47,4.53-.9,4.3-4.05,7.12-8l19.89-28C682.18,769.56,684.46,767.89,686.85,767.56Z" fill="#fff"/><path d="M739.35,767.22c2.15-3,4.43-4.71,6.82-5a6.29,6.29,0,0,1,5.74,1.78,9.59,9.59,0,0,1,2.38,6.33q.21,4.08-3,8.62l-21.14,29.74a78.2,78.2,0,0,1-17.41,18.11,42.83,42.83,0,0,1-21.92,8c-5,.45-8.87-.28-11.65-2.22a15.51,15.51,0,0,1-5.91-8.46A34.92,34.92,0,0,1,672,811.3,99,99,0,0,1,674.27,796q.76-4,2.18-10.18T679.69,772q1.84-7.69,3.88-16.23t4.14-16.58q4.74-19.1,9.79-41.15l31.87-2.89-22.37,95a38.52,38.52,0,0,0-1,9.26q.18,3.58,1.82,4.75t4.53-.91q2.89-2.06,7.12-8Q731.18,779.1,739.35,767.22Z" fill="#fff"/><path d="M843.58,757.78c2-2.8,4.13-4.35,6.43-4.67a6.7,6.7,0,0,1,5.73,1.61,8.61,8.61,0,0,1,2.5,6.16q.21,4.07-3,8.62-7.47,10.5-16,20.27a150.36,150.36,0,0,1-18.15,17.68,103.21,103.21,0,0,1-20.36,13.14,63.48,63.48,0,0,1-22.36,6.28,31.44,31.44,0,0,1-18.76-3.7,36.74,36.74,0,0,1-13.47-13.35,55.61,55.61,0,0,1-7-21,86.38,86.38,0,0,1,.59-26.58A98,98,0,0,1,748.53,735a103.85,103.85,0,0,1,15.16-23,84.25,84.25,0,0,1,19.1-16.3,48.18,48.18,0,0,1,20.87-7.29,40.74,40.74,0,0,1,13,1.28,20.27,20.27,0,0,1,12.23,8.88,19.09,19.09,0,0,1,3.53,13.1,30.15,30.15,0,0,1-4.15,13.15,25,25,0,0,1-8.85,9,10.26,10.26,0,0,1-10.59.31,6.37,6.37,0,0,1-3.73-5.89,33.8,33.8,0,0,1,.64-8.57c.59-2.88,1.15-5.44,1.7-7.68s.27-3.3-.84-3.2A22.92,22.92,0,0,0,795,713.57a50.7,50.7,0,0,0-10.63,10.95A74.62,74.62,0,0,0,776,739.35a67.06,67.06,0,0,0-4.69,16.46q-1.92,13.28,1.78,23.42A22,22,0,0,0,786.88,793q10.71,4.26,26.25-5T843.58,757.78Z" fill="#fff"/><path d="M828.3,830.85q.76-4,4.23-18.56T841,776.5q5-21.24,11.09-47t12.21-51.85q14.41-61.54,32.63-137l31.88-6.22L884,718.12c6.66-2.59,14.12-12,22.37-19.89s16.9-12.17,26-13a20.93,20.93,0,0,1,13.1,2.74,23.51,23.51,0,0,1,8.62,9,28.16,28.16,0,0,1,3.2,12.64,29.23,29.23,0,0,1-2.86,13.52A43.21,43.21,0,0,1,946.72,735a67.77,67.77,0,0,1-10,8.93A93.7,93.7,0,0,1,925.36,751q-6,3.16-11.91,6,6.31,2,8.78,6.07t5,13.63a128.78,128.78,0,0,0,3.47,12.46c.85,2.32,2.3,3.39,4.33,3.2a10.37,10.37,0,0,0,4.43-2q2.77-1.89,6.5-7.14l19.89-28c2.15-3,4.38-4.7,6.68-5a6.16,6.16,0,0,1,5.61,1.79,9.61,9.61,0,0,1,2.37,6.33q.21,4.08-3,8.62l-21.13,29.74a82.19,82.19,0,0,1-17,18.07,37.78,37.78,0,0,1-19.84,7.86A16.74,16.74,0,0,1,910,821a18.15,18.15,0,0,1-6.7-6.26,38.41,38.41,0,0,1-4.52-10.07A79,79,0,0,1,896.13,792q-2.11-14.55-6.07-19.75t-14.31-2.31q-1.77,5.4-3.66,10.81t-3.36,11.11l-.82,3.35L860.18,828Zm75.94-108.7a78.3,78.3,0,0,0-11.89,14.18,129.85,129.85,0,0,0-10.87,19.31q5.44-1.47,11.81-3.85A70.67,70.67,0,0,0,905.35,746a59.91,59.91,0,0,0,10.09-7.62,23.39,23.39,0,0,0,6.17-9.24q1.75-5.39.91-8.75c-.58-2.24-1.72-3.66-3.45-4.28s-3.91-.4-6.52.59A27.61,27.61,0,0,0,904.24,722.15Z" fill="#fff"/><path d="M1018.85,707.16a21.74,21.74,0,0,0,3.24,9.86q2.76,4.34,5.87,9.46a67.69,67.69,0,0,1,5.71,12.57q2.61,7.47,2.81,19.23a81.26,81.26,0,0,1-2.06,22.61,54.23,54.23,0,0,1-8.41,18.77,47.18,47.18,0,0,1-14.74,13.45q-8.91,5.22-21.38,6.35t-20.76-2.54a30.72,30.72,0,0,1-12.9-10.13,32.18,32.18,0,0,1-5.75-14.53,39.11,39.11,0,0,1,1-15.81q2.34-8.38,5.77-12.31t6.2-4.16q9.66-14,18.51-27.7t15-23.78a92.23,92.23,0,0,1-1.26-14.29,65.58,65.58,0,0,1,2.53-22,53.16,53.16,0,0,1,7.92-16.43,26.7,26.7,0,0,1,10.94-9,13.46,13.46,0,0,1,11.62.26q10.83,5.58,9.07,22.1T1018.85,707.16Zm-18.62,26.57q-6.84,11.1-15.15,24.62t-17,26.09a16.78,16.78,0,0,0,3.72,5.72,9.92,9.92,0,0,0,5.41,2.78,11.34,11.34,0,0,0,6.88-1.27,29.8,29.8,0,0,0,8.34-6.81q8.14-8.93,8.94-22.26A159.11,159.11,0,0,0,1000.23,733.73Z" fill="#fff"/><path d="M679.81,595.05l-6,37c2.86-.06,5.72-.11,8.57-.12l6.18-38C685.65,594.34,682.73,594.7,679.81,595.05Z" fill="none"/><path d="M592.39,654.85a25.51,25.51,0,0,0-4.49,7.76q-1.33,3.89.16,6.53t7.89,2.39a18.47,18.47,0,0,0,9.2-3.45,29.93,29.93,0,0,0,7.3-7.53,43.76,43.76,0,0,0,5.1-10.27,50.63,50.63,0,0,0,2.61-11.69,90.42,90.42,0,0,0-21.74,10.15A37.58,37.58,0,0,0,592.39,654.85Z" fill="none"/><path d="M676.3,595.48q-11.49,1.37-23.06,3.07t-22.54,4.31A59.49,59.49,0,0,0,610,582.19a75.77,75.77,0,0,0-27.28-10,74.88,74.88,0,0,0-28.69,1,61.17,61.17,0,0,0-25.2,12.1,76.81,76.81,0,0,0-21,26.42,122,122,0,0,0-10.71,33.83,160.86,160.86,0,0,0-1.76,37.15,202.48,202.48,0,0,0,17.38,69q7.61,16.67,15.64,33.28t15,33.52a166.06,166.06,0,0,1,9.94,33.63,101.4,101.4,0,0,1,.43,33.52q-2.57,16.77-13.43,33.14a55.58,55.58,0,0,1-27.47,21.15,85.1,85.1,0,0,1-35.63,4.7,95.52,95.52,0,0,1-35.52-9.88,68.7,68.7,0,0,1-26.92-23.27q-7.74-15-6.79-28t8-22a39.24,39.24,0,0,1,18.42-13,42.27,42.27,0,0,1,24.23-.89q12.84,3.1,18.88,8.12a31.38,31.38,0,0,1,8.8,11.15,78.29,78.29,0,0,1,4.47,12.69,37.69,37.69,0,0,0,5.84,12.4q6.41,9.24,14.27,9.68a15.85,15.85,0,0,0,13-4.94q5.11-5.37,5.66-15.08t-7.42-20.77a83.7,83.7,0,0,0-25.26-23.58,108.6,108.6,0,0,0-31.74-13A101.48,101.48,0,0,0,431.63,822a79.85,79.85,0,0,0-30.49,9.14,65.67,65.67,0,0,0-22.91,20.74q-9.17,13.27-10.53,32.71-.07,27.82,10.57,47.16A87.56,87.56,0,0,0,406,962.67a102.48,102.48,0,0,0,38.68,15.65,140,140,0,0,0,43.16,1.49A132.33,132.33,0,0,0,529,967.9a101.14,101.14,0,0,0,32.79-24.25,106.35,106.35,0,0,0,18.92-27.9,147.92,147.92,0,0,0,11-33.25A160.45,160.45,0,0,0,595,846.68a169.93,169.93,0,0,0-4.39-35.61,165.21,165.21,0,0,0-9.11-29q-5.84-13.87-12.59-27.18t-13.5-26.44a253.8,253.8,0,0,1-11.86-26.76,173.19,173.19,0,0,1-7.92-28.09,108.64,108.64,0,0,1-1.41-30.32q0-15.7,8.17-26.24a45.5,45.5,0,0,1,19.64-15,48.11,48.11,0,0,1,24.35-2.69,39.78,39.78,0,0,1,22.31,10.67A101.17,101.17,0,0,0,584.5,624a53.48,53.48,0,0,0-15.83,21.68q-5.16,12.87-3.87,24.35a30.84,30.84,0,0,0,9.53,19.37q8.24,7.9,24.35,6.77a37.51,37.51,0,0,0,17-7.26,53,53,0,0,0,13-14.44A75.56,75.56,0,0,0,637,655.37a72.86,72.86,0,0,0,2.91-20.89,247.4,247.4,0,0,1,26.77-2.26c2.38-.07,4.74-.09,7.11-.13l6-37Zm-58.75,54.8a43.76,43.76,0,0,1-5.1,10.27,29.93,29.93,0,0,1-7.3,7.53,18.47,18.47,0,0,1-9.2,3.45q-6.41.26-7.89-2.39t-.16-6.53a25.51,25.51,0,0,1,4.49-7.76,37.58,37.58,0,0,1,6-6.11,90.42,90.42,0,0,1,21.74-10.15A50.63,50.63,0,0,1,617.55,650.28Z" fill="#fff"/><path d="M693.2,596.06c-2.52.59-5.07,1.16-7.62,1.74l-1.76,33.14c2.89-.26,5.78-.51,8.67-.7q10.08-.69,19.82-1.57t18.3-2.46a262.72,262.72,0,0,0,42.91-9.6,215.16,215.16,0,0,0,41.05-17.69,186.64,186.64,0,0,0,36.73-27,164.34,164.34,0,0,0,29.57-37.66,5.87,5.87,0,0,0,.71-3.65,6.53,6.53,0,0,0-1.32-3.29,5.47,5.47,0,0,0-2.65-1.86,3.33,3.33,0,0,0-3.06.57l-19.31,13.22a271.06,271.06,0,0,1-34.79,19.09q-17.82,8.13-36.25,14.53t-37.32,11.45" fill="#fff"/><path d="M742.45,659.54a23.49,23.49,0,0,1-5.3,17.39,23.23,23.23,0,0,1-33.23,3A23.82,23.82,0,0,1,701,646.39a22.6,22.6,0,0,1,15.91-8.54,22.27,22.27,0,0,1,17.32,5.53A23.41,23.41,0,0,1,742.45,659.54Z" fill="#fff"/><path d="M220.13,711.1c1.31-4.47,2.55-8.61,3.69-12.44s2.17-7.15,3.07-10l2.63-9,19.59-1.75-8.83,30,24.14-4.73-4.67,16.9-23.69,2.12-25,85.53a17.31,17.31,0,0,0-.68,4.87,2.78,2.78,0,0,0,1.08,2.48c.66.4,1.59.24,2.79-.5a21,21,0,0,0,4.43-4.26q3.73-4.29,6.76-8t5.65-6.86a6.83,6.83,0,0,1,4.23-2.7,4.24,4.24,0,0,1,3.51.89,4.54,4.54,0,0,1,1.41,3.31,6.71,6.71,0,0,1-1.91,4.55l-13.19,15.78A46.76,46.76,0,0,1,214.32,827a29.75,29.75,0,0,1-13.52,4.38c-3.18.29-5.62-.07-7.31-1.06a7.69,7.69,0,0,1-3.48-4.42,17,17,0,0,1-.61-6.73,46.74,46.74,0,0,1,1.52-8L216.29,724l-22,2,5-13Z" fill="#fff"/><path d="M221.25,829.52q.5-2.12,2.73-9.78t5.45-18.86q3.19-11.21,7.15-24.77t7.86-27.33q9.3-32.43,21-72.3l19.6-1.75-27.56,95.38q1.23-1.65,2.16-2.76l1.55-1.86a48,48,0,0,1,9.66-9.11,24.84,24.84,0,0,1,11.86-3.8c3.07-.28,5.47.08,7.22,1.07a7.56,7.56,0,0,1,3.57,4.32,17.33,17.33,0,0,1,.67,6.64,40.39,40.39,0,0,1-1.43,8q-1.39,5.45-3.71,13.21T284.5,801.2a17.64,17.64,0,0,0-.68,4.87,3,3,0,0,0,1,2.49c.6.4,1.5.24,2.7-.5A21,21,0,0,0,292,803.8q7.31-8.55,12.41-14.85a6.83,6.83,0,0,1,4.23-2.7,4.24,4.24,0,0,1,3.51.89,4.59,4.59,0,0,1,1.42,3.31A6.77,6.77,0,0,1,311.6,795l-13.19,15.78a46.76,46.76,0,0,1-10.82,9.64,29.75,29.75,0,0,1-13.52,4.38q-4.6.42-7.14-1.08a8,8,0,0,1-3.57-4.4,15.59,15.59,0,0,1-.68-6.73,45.74,45.74,0,0,1,1.51-8l3.93-13.75L272.46,776q1.71-5.82-.39-7.26t-7.38,4.87a70.81,70.81,0,0,0-4.21,5.78c-1.66,2.5-3.36,5.34-5.07,8.53s-3.4,6.6-5,10.24a96.52,96.52,0,0,0-4.16,11.1l-.4,1.24-5,17.28Z" fill="#fff"/><path d="M382.58,782a6.7,6.7,0,0,1,4.14-2.69,4.18,4.18,0,0,1,5,4.19,6.76,6.76,0,0,1-1.91,4.55L387,791.45l-3.73,4.46-3.72,4.45-2.87,3.44a52.46,52.46,0,0,1-10,9.05,28.74,28.74,0,0,1-14.32,5,7,7,0,0,1-6.32-2.44,18.44,18.44,0,0,1-3.6-6.64,39.25,39.25,0,0,1-9.07,8,23.24,23.24,0,0,1-10.49,3.68,16.93,16.93,0,0,1-8.71-1.28,15.09,15.09,0,0,1-6.22-5.29,22,22,0,0,1-3.42-8.45,31.26,31.26,0,0,1,.05-11,56.23,56.23,0,0,1,6.14-17.81A59.64,59.64,0,0,1,338.08,751a56.79,56.79,0,0,1,19.12-5.06L377,744.17l-14.42,50.06a8.92,8.92,0,0,0-.55,4.52,2.31,2.31,0,0,0,1.63,1.83,4.14,4.14,0,0,0,2.95-.61,12.91,12.91,0,0,0,3.58-3.15Zm-38.26,8.22,10.14-34.57a27,27,0,0,0-16.35,9.19q-6.39,7.44-9.61,19.41-2.36,8.28-1.09,12.8t4.17,5.3q2.9.78,6.44-2c2.35-1.81,4.32-4.85,5.88-9.11Z" fill="#fff"/><path d="M408.08,694.33q2-6.71,3.7-12.44t3.06-10l2.63-9,19.59-1.75-8.83,30,24.14-4.73-4.67,16.91L424,705.44,399,791a17.26,17.26,0,0,0-.68,4.87,2.81,2.81,0,0,0,1.08,2.48q1,.6,2.79-.51a20.53,20.53,0,0,0,4.43-4.26q3.74-4.27,6.76-8t5.65-6.86a6.85,6.85,0,0,1,4.23-2.69,4.2,4.2,0,0,1,3.51.89,4.53,4.53,0,0,1,1.41,3.31,6.69,6.69,0,0,1-1.91,4.54l-13.19,15.78a46.53,46.53,0,0,1-10.82,9.64,29.88,29.88,0,0,1-13.52,4.39c-3.18.28-5.61-.07-7.31-1.07a7.64,7.64,0,0,1-3.48-4.41,16.86,16.86,0,0,1-.6-6.73,45.67,45.67,0,0,1,1.51-8l25.38-87.11-22,2,5-13Z" fill="#fff"/><rect x="753.94" y="1056.71" width="70.81" height="14.37" rx="0.73"/><rect x="597.29" y="1056.71" width="70.81" height="14.37" rx="0.73"/><rect x="753.94" y="1083.56" width="70.81" height="14.37" rx="0.73"/><rect x="597.29" y="1083.56" width="70.81" height="14.37" rx="0.73"/><rect x="753.94" y="1110.42" width="70.81" height="14.37" rx="0.73"/><rect x="597.29" y="1110.42" width="70.81" height="14.37" rx="0.73"/><rect x="753.94" y="1137.27" width="70.81" height="14.37" rx="0.73"/><rect x="597.29" y="1137.27" width="70.81" height="14.37" rx="0.73"/></g></g></svg>