<?xml version="1.0" encoding="utf-8"?>
<!-- Generator: Adobe Illustrator 24.0.1, SVG Export Plug-In . SVG Version: 6.00 Build 0)  -->
<svg version="1.1" id="Layer_1" xmlns:serif="http://www.serif.com/"
	 xmlns="http://www.w3.org/2000/svg" xmlns:xlink="http://www.w3.org/1999/xlink" x="0px" y="0px" viewBox="0 0 20 20"
	 style="enable-background:new 0 0 20 20;" xml:space="preserve">
<style type="text/css">
	.st0{fill-rule:evenodd;clip-rule:evenodd;}
</style>
<path class="st0" d="M10,2.2c4.3,0,7.8,3.5,7.8,7.8s-3.5,7.8-7.8,7.8S2.2,14.3,2.2,10S5.7,2.2,10,2.2z M14.7,7.7
	c-0.1-0.4-0.4-0.7-0.9-0.9C13,6.6,10,6.6,10,6.6s-3,0-3.8,0.2C5.8,6.9,5.4,7.2,5.3,7.7C5.1,8.4,5.1,10,5.1,10s0,1.6,0.2,2.3
	c0.1,0.4,0.4,0.7,0.9,0.9C7,13.4,10,13.4,10,13.4s3,0,3.8-0.2c0.4-0.1,0.7-0.4,0.9-0.9c0.2-0.8,0.2-2.3,0.2-2.3S14.9,8.4,14.7,7.7
	L14.7,7.7z M9,11.5V8.5l2.5,1.5L9,11.5L9,11.5z"/>
</svg>
