<?xml version="1.0" encoding="utf-8"?>
<!-- Generator: Adobe Illustrator 24.0.1, SVG Export Plug-In . SVG Version: 6.00 Build 0)  -->
<svg version="1.1" id="Layer_1" xmlns:serif="http://www.serif.com/"
	 xmlns="http://www.w3.org/2000/svg" xmlns:xlink="http://www.w3.org/1999/xlink" x="0px" y="0px" viewBox="0 0 20 20"
	 style="enable-background:new 0 0 20 20;" xml:space="preserve">
<style type="text/css">
	.st0{fill-rule:evenodd;clip-rule:evenodd;}
</style>
<path class="st0" d="M10,2.2c4.3,0,7.8,3.5,7.8,7.8s-3.5,7.8-7.8,7.8S2.2,14.3,2.2,10S5.7,2.2,10,2.2z M10,5.1c-1.3,0-1.5,0-2,0
	c-0.5,0-0.9,0.1-1.2,0.2C6.5,5.5,6.2,5.7,5.9,5.9C5.7,6.2,5.5,6.5,5.4,6.8C5.3,7.1,5.2,7.5,5.2,8c0,0.5,0,0.7,0,2s0,1.5,0,2
	c0,0.5,0.1,0.9,0.2,1.2c0.1,0.3,0.3,0.6,0.6,0.9c0.3,0.3,0.5,0.4,0.9,0.6c0.3,0.1,0.7,0.2,1.2,0.2c0.5,0,0.7,0,2,0s1.5,0,2,0
	c0.5,0,0.9-0.1,1.2-0.2c0.3-0.1,0.6-0.3,0.9-0.6c0.3-0.3,0.4-0.5,0.6-0.9c0.1-0.3,0.2-0.7,0.2-1.2c0-0.5,0-0.7,0-2s0-1.5,0-2
	c0-0.5-0.1-0.9-0.2-1.2c-0.1-0.3-0.3-0.6-0.6-0.9c-0.3-0.3-0.5-0.4-0.9-0.6c-0.3-0.1-0.7-0.2-1.2-0.2C11.5,5.1,11.3,5.1,10,5.1z
	 M10,6c1.3,0,1.5,0,2,0c0.5,0,0.7,0.1,0.9,0.2c0.2,0.1,0.4,0.2,0.6,0.4c0.2,0.2,0.3,0.3,0.4,0.6C13.9,7.3,13.9,7.6,14,8
	c0,0.5,0,0.7,0,2s0,1.5,0,2c0,0.5-0.1,0.7-0.2,0.9c-0.1,0.2-0.2,0.4-0.4,0.6c-0.2,0.2-0.3,0.3-0.6,0.4c-0.2,0.1-0.4,0.1-0.9,0.2
	c-0.5,0-0.7,0-2,0s-1.5,0-2,0c-0.5,0-0.7-0.1-0.9-0.2c-0.2-0.1-0.4-0.2-0.6-0.4c-0.2-0.2-0.3-0.3-0.4-0.6C6.1,12.7,6.1,12.4,6,12
	c0-0.5,0-0.7,0-2s0-1.5,0-2c0-0.5,0.1-0.7,0.2-0.9c0.1-0.2,0.2-0.4,0.4-0.6c0.2-0.2,0.3-0.3,0.6-0.4C7.3,6.1,7.6,6.1,8,6
	C8.5,6,8.7,6,10,6z M10,7.5c-1.4,0-2.5,1.1-2.5,2.5s1.1,2.5,2.5,2.5s2.5-1.1,2.5-2.5S11.4,7.5,10,7.5L10,7.5z M10,11.6
	c-0.9,0-1.6-0.7-1.6-1.6S9.1,8.4,10,8.4c0.9,0,1.6,0.7,1.6,1.6C11.6,10.9,10.9,11.6,10,11.6z M13.2,7.4c0,0.3-0.3,0.6-0.6,0.6
	S12,7.7,12,7.4s0.3-0.6,0.6-0.6C12.9,6.8,13.2,7.1,13.2,7.4z"/>
</svg>
