<?xml version="1.0" encoding="utf-8"?>
<!-- Generator: Adobe Illustrator 24.0.1, SVG Export Plug-In . SVG Version: 6.00 Build 0)  -->
<svg version="1.1" id="Layer_1" xmlns:serif="http://www.serif.com/"
	 xmlns="http://www.w3.org/2000/svg" xmlns:xlink="http://www.w3.org/1999/xlink" x="0px" y="0px" viewBox="0 0 20 20"
	 style="enable-background:new 0 0 20 20;" xml:space="preserve">
<style type="text/css">
	.st0{fill-rule:evenodd;clip-rule:evenodd;}
</style>
<path class="st0" d="M10,2.2c4.3,0,7.8,3.5,7.8,7.8s-3.5,7.8-7.8,7.8S2.2,14.3,2.2,10S5.7,2.2,10,2.2z M8.6,14.1
	c3.4,0,5.3-2.9,5.3-5.3c0-0.1,0-0.2,0-0.2c0.4-0.3,0.7-0.6,0.9-1c-0.3,0.1-0.7,0.2-1.1,0.3c0.4-0.2,0.7-0.6,0.8-1
	c-0.4,0.2-0.8,0.4-1.2,0.5c-0.3-0.4-0.8-0.6-1.4-0.6c-1,0-1.9,0.8-1.9,1.9c0,0.1,0,0.3,0.1,0.4c-1.6-0.1-2.9-0.8-3.9-2
	C6.2,7.3,6.1,7.7,6.1,8c0,0.6,0.3,1.2,0.8,1.6c-0.3,0-0.6-0.1-0.8-0.2v0c0,0.9,0.6,1.7,1.5,1.8c-0.2,0-0.3,0.1-0.5,0.1
	c-0.1,0-0.2,0-0.4,0C7,12,7.7,12.5,8.5,12.5c-0.6,0.5-1.4,0.8-2.3,0.8c-0.2,0-0.3,0-0.4,0C6.6,13.8,7.6,14.1,8.6,14.1L8.6,14.1z"/>
</svg>
