<svg xmlns="http://www.w3.org/2000/svg" viewBox="0 0 330 73" enable-background="new 0 0 330 73"><style type="text/css">.ti-logo-stacked{fill:#00558C;} .ti-logo-stacked2{fill:#81C341;}</style><path d="M83.1 13.7H77v-3.1h15.5v3.1h-6.1v16H83v-16zM112.4 10.5h8.5c2.4 0 4.3.7 5.5 1.9 1 1 1.6 2.5 1.6 4.1v.1c0 3.1-1.9 5-4.6 5.8l5.2 7.3h-4L120 23h-4.2v6.7h-3.4V10.5zm8.3 9.5c2.4 0 3.9-1.3 3.9-3.2v-.1c0-2.1-1.5-3.2-4-3.2h-4.9V20h5zM155.2 10.4h3.1l8.4 19.3h-3.6l-1.9-4.6h-9.1l-2 4.6h-3.4l8.5-19.3zm4.8 11.7l-3.3-7.7-3.3 7.7h6.6zM186.5 10.5h3.4v19.2h-3.4V10.5zM211.2 10.5h3.1l10.3 13.2V10.5h3.3v19.2H225l-10.6-13.6v13.6h-3.3V10.5zM249.2 10.5h3.4v19.2h-3.4V10.5zM273.9 10.5h3.1l10.3 13.2V10.5h3.3v19.2h-2.8l-10.6-13.6v13.6h-3.3V10.5zM310.9 20.2c0-5.4 4.1-10 9.9-10 3.3 0 5.4.9 7.4 2.6l-2.1 2.5c-1.5-1.3-2.9-2.1-5.4-2.1-3.5 0-6.2 3.1-6.2 6.8v.1c0 3.9 2.6 6.8 6.5 6.8 1.8 0 3.4-.6 4.6-1.5v-3.6h-4.9V19h8.2v8c-1.9 1.6-4.6 3-8 3-6.1 0-10-4.2-10-9.8z" class="ti-logo-stacked"/><path d="M78.9 43.4H81v19.2h-2.2V43.4zM102.3 43.4h2l12.1 15.4V43.4h2.1v19.2h-1.7l-12.4-15.7v15.7h-2.1V43.4zM139.5 43.4h6.6c6 0 10.2 4.1 10.2 9.5v.1c0 5.4-4.2 9.6-10.2 9.6h-6.6V43.4zm6.7 17.2c4.8 0 7.9-3.3 7.9-7.5V53c0-4.2-3.1-7.6-7.9-7.6h-4.5v15.2h4.5zM176.3 54.5V43.4h2.2v11c0 4.1 2.2 6.5 5.9 6.5 3.5 0 5.8-2.1 5.8-6.3V43.4h2.2v11c0 5.6-3.2 8.5-8 8.5-4.9 0-8.1-2.9-8.1-8.4zM211.7 59.8l1.3-1.6c2 1.8 3.9 2.7 6.6 2.7 2.6 0 4.3-1.4 4.3-3.3v-.1c0-1.8-1-2.8-5-3.6-4.4-1-6.4-2.4-6.4-5.5v-.1c0-3 2.7-5.2 6.3-5.2 2.8 0 4.8.8 6.7 2.4l-1.3 1.7c-1.8-1.4-3.6-2.1-5.5-2.1-2.5 0-4.1 1.4-4.1 3.1v.1c0 1.8 1 2.8 5.2 3.7 4.3.9 6.2 2.5 6.2 5.4v.1c0 3.3-2.7 5.4-6.5 5.4-3-.1-5.5-1.1-7.8-3.1zM250.8 45.4h-6.4v-2h15v2H253v17.2h-2.2V45.4zM279.1 43.4h8.2c2.4 0 4.2.7 5.4 1.9.9.9 1.5 2.3 1.5 3.8v.1c0 3.2-2.2 5-5.2 5.6l5.9 7.8h-2.7l-5.6-7.4h-5.5v7.4h-2.2V43.4zm8.1 9.8c2.9 0 4.9-1.5 4.9-3.9v-.1c0-2.4-1.8-3.8-4.9-3.8h-5.9v7.8h5.9zM319.8 55l-8-11.6h2.6L321 53l6.5-9.6h2.5l-8 11.5v7.6h-2.2V55z" class="ti-logo-stacked2"/><path d="M48.2 22.8c-1-1-2.8-.9-3.8.2-.5.5-.7 1.2-.7 1.9s.3 1.4.9 1.8c6.6 6 9.2 15.1 6.8 23.7-1.7 6-5.6 11.1-11.1 14.2-5.4 3.1-11.9 3.9-17.8 2.2C10.1 63.3 2.7 50.3 6.2 37.9c1.2-4.2 3.5-8 6.7-11 .5-.5.8-1.1.9-1.9 0-.7-.2-1.4-.7-1.9-1-1-2.7-1.1-3.8-.1-4 3.6-6.8 8.3-8.3 13.4-4.2 15.3 4.8 31.2 20.1 35.5 2.5.7 5.1 1.1 7.7 1.1 4.9 0 9.8-1.3 14.2-3.8 6.7-3.8 11.5-10 13.6-17.4 2.9-10.5-.3-21.6-8.4-29" class="ti-logo-stacked"/><path d="M6.5 16.9H23v17.7c0 1.4 1.2 2.6 2.6 2.6 1.4 0 2.6-1.2 2.6-2.6V11.7h-2.3c-.1 0-.1 0-.2 0H6.5c-1.4 0-2.5 1.2-2.5 2.6.1 1.4 1.2 2.6 2.5 2.6M31.9 11.7h-2.3v22.8c0 1.4 1.2 2.6 2.6 2.6 1.4 0 2.6-1.2 2.6-2.6V16.9h16.5c1.4 0 2.5-1.2 2.5-2.6 0-1.4-1.1-2.6-2.5-2.6H32.1c-.1 0-.1 0-.2 0M28.8 8.2c2.3 0 4.1-1.8 4.1-4.1S31.1 0 28.8 0s-4.1 1.8-4.1 4.1c.1 2.3 1.9 4.1 4.1 4.1" class="ti-logo-stacked2"/></svg>