<?xml version="1.0" encoding="UTF-8"?><svg id="Layer_1" xmlns="http://www.w3.org/2000/svg" viewBox="0 0 240.22 60.38"><path d="M3.33,50.88v-.77c1.2-.1,1.76-.44,2.03-2.2L10.75,15.63h3.37l4.56,34.47h1.67v.77H11.23v-.77h1.82l-.6-6.44H6.98l-.6,4.88c-.14,1.17,1.29,1.56,2.09,1.56v.77H3.33Zm8.94-8l-2.13-17.5h-.09l-2.92,17.5h5.14Z"/><path d="M25.7,15.63h6.44V50.1h1.44v.77h-5.79v-2.19h-.1c-.32,1.7-1.39,2.53-3.24,2.53-2.96,0-4.56-4.19-4.56-13.41s1.43-12.57,4.56-12.57c1.28-.07,2.46,.7,2.92,1.9h.09v-10.72h-1.76v-.78Zm-.91,32.62c0,1.36,.19,1.82,.98,1.82s1.7-.76,1.7-5.32v-14.45c0-1.08-.42-3.85-1.82-3.85-.69,0-.79,.63-.79,1.9l-.05,19.89Z"/><path d="M46.53,48.25c0,1.31,.23,1.46,.65,1.46s1.07-.68,1.2-3.26h.74c-.18,4.29-1.94,4.92-3.52,4.92s-3.1-.73-3.47-2.43h-.09c-.28,1.65-1.71,2.43-3.34,2.43-2.83,0-4.08-1.7-4.08-6.92,0-6.25,2.13-8.39,7.23-9.32v-4.96c0-3.51-.37-4.09-1.82-4.09-1.39,.02-2.65,.84-3.25,2.1,.45-.12,.92-.19,1.39-.19,1.19,.11,2.09,1.14,2.04,2.33,.09,1.37-.95,2.55-2.32,2.63h-.04c-1.7,.04-2.61-.95-2.61-2.83,0-2.49,2.09-4.88,5.98-4.88,1.76,0,5.28,.19,5.28,5.75l.03,17.26Zm-7.23-.76c0,1.08,0,2,1.25,2s1.3-1.6,1.3-3.36v-10.03c-2.09,.39-2.55,1.17-2.55,3.36v8.03Z"/><path d="M49.95,50.88v-.77h1.25V26.4h-1.25v-.78h5.84v2.3l.09,.05c.62-1.6,2.16-2.67,3.88-2.68,1.66-.09,3.1,1.13,3.29,2.78h.09c.53-1.62,2.01-2.73,3.71-2.78,2.96,0,3.75,2.68,3.75,5.61v19.22h1.2v.77h-6.62v-.77h.74V29.63c0-1.82-.23-2.49-.98-2.49s-1.71,1.37-1.71,3.65v19.32h.79v.77h-6.25v-.77h.78V29.63c0-1.82-.23-2.49-.97-2.49s-1.71,1.37-1.71,3.65v19.32h.83v.77h-6.76Z"/><path d="M97.72,33.05v.62c-1.45,.18-1.7,.45-1.82,2.46-.2,3.4-1.22,6.69-2.97,9.61,1.23,2.74,1.95,3.13,2.63,3.13s1.24-.85,1.61-4.02h.64c-.08,5.54-2.74,6.52-4.49,6.52-1.53,0-2.96-.77-3.78-2.05-1.37,1.23-3.13,1.96-4.97,2.05-4.37,0-6.49-4.11-6.49-8.26,0-4.65,1.74-7.29,5.22-10.03-.56-2.36-.88-4.78-.98-7.2,0-3.48,1.49-7.24,5.35-7.24,2.89,0,4.08,3.13,4.08,5.23-.08,2.86-1.64,5.46-4.12,6.88,1.49,4.73,2.84,9.52,4.8,14.08,1.59-2.59,2.5-5.54,2.63-8.58,0-1.7-.8-2.51-2.33-2.6v-.62l5.01,.02Zm-15.97,3.98c0,2.54,1.39,7.29,2.8,10.03,.81,1.48,1.4,2.37,2.84,2.37,.6-.09,1.17-.33,1.65-.69-2.35-4.78-4.24-9.78-5.63-14.92-1.1,.68-1.74,1.92-1.66,3.21Zm7.98-13.41c0-1.47-.3-4.24-2.16-4.24-1.28,0-1.49,1.7-1.49,2.63,.14,2.74,.58,5.45,1.31,8.09,1.92-1.65,2.34-4.07,2.34-6.48h0Z"/><path d="M102.72,50.88v-.77h1.76V16.41h-1.76v-.78h15.77v13.37h-.6c-1.58-9.71-2.41-12.58-5.32-12.58h-2.41v16.09c2.36-.45,3.52-2.01,3.85-8.49h.65v18.01h-.51c-.65-6.44-1.35-8.53-3.98-8.78v16.86h1.39c2.41,0,3.47-.58,4.77-5.95,.67-2.46,1.17-4.97,1.49-7.5h.69v14.23h-15.77Z"/><path d="M127.78,43.98h.1l2.32-15.5c.21-.99-.42-1.95-1.41-2.16-.1-.02-.21-.03-.31-.04v-.78h4.18v.78c-.91,.09-1.3,.83-1.63,2.94l-3.25,21.68h-3.25l-3.48-24.62h-1v-.78h6.88v.78h-1.23l2.09,17.7Z"/><path d="M137.08,38.3v9.35c0,2.06,.65,2.79,2.23,2.79,2.79,0,4.28-4.01,4.74-8.91h.79c-.33,5.87-1.72,9.84-6.46,9.84-3.58,0-6.24-3.37-6.24-12.76,0-6.51,.7-13.47,6.38-13.47,3.58,0,6.38,1.96,6.38,13.17h-7.83Zm3.12-.92v-8.24c0-2.54-.42-3.33-1.59-3.33s-1.53,.78-1.53,2.25v9.4l3.12-.08Z"/><path d="M144.36,49.42c.04-.81,.72-1.45,1.54-1.41,.81,.04,1.45,.72,1.41,1.54-.03,.79-.68,1.41-1.47,1.41-.82,0-1.48-.67-1.48-1.49v-.05Zm1.48,1.29c.71,.06,1.33-.47,1.38-1.18,.06-.71-.47-1.33-1.18-1.38-.71-.06-1.33,.47-1.38,1.18,0,.03,0,.06,0,.1-.04,.67,.47,1.24,1.14,1.28h.05Zm-.31-.39h-.26v-1.82h.65c.39,0,.59,.15,.59,.51,.02,.25-.16,.46-.41,.48h-.03l.47,.79h-.28l-.45-.77h-.26l-.04,.82Zm.31-.99c.21,0,.4,0,.4-.29s-.18-.26-.36-.26h-.31v.56h.27Z" style="fill:#010101;"/><path d="M151.73,17.65c1.42,.01,2.84,.16,4.24,.46,2.17,.45,4.17,1.49,5.78,3.01,1.59,1.72,2.47,3.98,2.43,6.33-.06,2.44-.6,4.85-1.6,7.08-1.05,2.26-2.4,4.37-4.01,6.26-.8,.82-2.81,3.33-3.31,3.88-.47,.6-.88,1.24-1.21,1.92-.2,.39-1.14,2.3-1.21,2.46s-1.04,2.19-1.32,2.54c-.59,1-1.3,1.92-2.12,2.74-.27,.21-.52,.44-.78,.63-.68,.5-1.47,.84-2.3,1-.71,.18-1.45,.25-2.18,.19-.6-.05-1.18-.25-1.68-.59-.65-.48-1.38-1.05-1.71-1.23-.77-.3-1.63-.3-2.41,0-.32,.08-.62,.2-.91,.36-.41,.22-.51,.28-.8,.46-.7,.48-1.51,.8-2.35,.91-.84,.1-1.7,.04-2.52-.18-.41-.12-.8-.3-1.16-.52-.68-.39-1.25-.94-1.67-1.6,.13-.11,.28-.21,.43-.29,0,0,.39,.47,.49,.56,.4,.34,.87,.6,1.38,.75,.62,.17,1.26,.25,1.9,.23,.56,0,1.12-.1,1.64-.31,.23-.09,1.1-.74,1.26-.82,.38-.28,.82-.48,1.28-.59,.6-.14,1.21-.2,1.82-.18,.31,0,.62,.06,.91,.18,.53,.23,1.03,.51,1.5,.85,.59,.4,1.26,.65,1.97,.75,1,.05,1.99-.09,2.94-.41,1.02-.4,1.88-1.14,2.44-2.09,.91-1.31,1.96-4.56,2.33-5.3,.47-1.2,1.17-2.29,2.07-3.21,1.53-1.69,2.9-3.52,4.08-5.47,1.33-2.36,2.22-4.94,2.63-7.61,.29-1.82,.35-3.68,.2-5.52-.15-1.62-.72-3.17-1.66-4.5-1.14-1.34-2.75-2.21-4.49-2.43-.77-.18-1.56-.24-2.35-.17l.05-.5Z" style="fill:#d12827;"/><path d="M157.84,5.14l.32,2.07s-2.47,.91-4.03,1.65c-2.29,1.17-4.44,2.62-6.38,4.3-1.69,1.54-3.18,3.29-4.42,5.22-.29,.42-.53,.88-.7,1.36l-.23-.06c.54-1.33,1.23-2.59,2.08-3.75,1.48-2.03,3.21-3.87,5.15-5.47,1.52-1.26,3.12-2.41,4.8-3.44,1.23-.73,3.41-1.88,3.41-1.88Z" style="fill:#d12827;"/><path d="M172.36,27.44c-.78-.03-1.53,.31-2.01,.91-.53,.72-.79,1.61-.74,2.51-.06,.9,.19,1.8,.71,2.53,.5,.61,1.26,.95,2.04,.91,.38,0,.75-.04,1.12-.12,.38-.08,.76-.18,1.13-.3v1.21c-.78,.28-1.6,.41-2.43,.4-1.15,.08-2.28-.37-3.07-1.21-.78-.98-1.16-2.22-1.08-3.46-.02-.86,.16-1.71,.52-2.49,.32-.69,.85-1.26,1.5-1.63,.71-.39,1.51-.59,2.32-.57,.89,0,1.78,.19,2.58,.58l-.54,1.24c-.32-.15-.64-.28-.98-.38-.35-.1-.72-.15-1.08-.14Z"/><path d="M179.43,35.5c-.93,.06-1.84-.27-2.52-.91-.64-.7-.96-1.63-.91-2.58-.06-.96,.25-1.9,.85-2.65,.57-.67,1.42-1.04,2.31-1,.81-.04,1.59,.26,2.16,.83,.56,.62,.84,1.44,.79,2.28v.79h-4.56c-.02,.56,.17,1.11,.54,1.54,.38,.37,.91,.57,1.44,.54,.38,0,.77-.04,1.14-.12,.38-.09,.74-.22,1.09-.39v1.19c-.34,.17-.71,.29-1.08,.36-.41,.08-.83,.13-1.25,.13Zm-.27-6.04c-.42-.02-.82,.15-1.11,.45-.31,.36-.49,.81-.51,1.29h3.14c.02-.46-.12-.92-.41-1.29-.28-.3-.69-.47-1.1-.45Z"/><path d="M185.24,35.37h-1.47v-9.69h1.47v9.69Z"/><path d="M190.34,35.5c-.93,.06-1.84-.27-2.52-.91-.64-.7-.97-1.63-.91-2.58-.06-.96,.25-1.9,.85-2.65,.57-.67,1.42-1.04,2.31-1,.81-.04,1.59,.26,2.16,.83,.56,.62,.84,1.44,.79,2.28v.79h-4.56c-.03,.57,.14,1.13,.5,1.57,.38,.37,.91,.57,1.44,.54,.38,0,.77-.04,1.14-.12,.39-.09,.77-.21,1.13-.38v1.19c-.34,.17-.71,.29-1.08,.36-.41,.07-.83,.1-1.25,.09Zm-.27-6.04c-.42-.02-.82,.15-1.11,.45-.31,.36-.49,.81-.51,1.29h3.14c.03-.47-.12-.93-.42-1.29-.28-.31-.68-.47-1.09-.45Z"/><path d="M198.2,28.35c.78-.04,1.53,.3,2.01,.91,.52,.77,.77,1.7,.72,2.63,.05,.94-.2,1.87-.73,2.64-.95,1.12-2.63,1.26-3.75,.3-.11-.09-.21-.19-.3-.3h-.1l-.27,.81h-1.09v-9.66h1.47v3.7h.06c.44-.66,1.19-1.05,1.99-1.03Zm-.37,1.19c-.48-.05-.96,.15-1.28,.52-.31,.53-.45,1.13-.4,1.74v.1c-.05,.63,.09,1.27,.39,1.82,.31,.39,.8,.61,1.3,.57,.48,.02,.93-.22,1.19-.62,.31-.56,.45-1.19,.4-1.82,0-1.51-.54-2.3-1.6-2.3h0Z"/><path d="M206.14,28.35c.24,0,.49,.02,.73,.06l-.15,1.36c-.21-.05-.43-.07-.65-.07-.53-.02-1.05,.19-1.42,.57-.37,.4-.57,.94-.55,1.49v3.65h-1.47v-6.93h1.15l.19,1.22h.07c.22-.4,.53-.73,.91-.98,.35-.24,.76-.36,1.18-.36Z"/><path d="M212.45,35.37l-.33-.96h0c-.26,.36-.61,.65-1,.86-.41,.17-.85,.25-1.29,.23-.58,.03-1.15-.16-1.59-.55-.4-.42-.6-.98-.57-1.55-.04-.64,.26-1.25,.78-1.61,.74-.41,1.57-.62,2.42-.59h1.19v-.36c.02-.36-.09-.71-.31-.98-.26-.24-.61-.36-.96-.33-.35,0-.69,.05-1.02,.15-.31,.1-.62,.23-.91,.36l-.47-1.05c.76-.4,1.6-.62,2.45-.64,.71-.05,1.41,.15,1.98,.57,.49,.47,.74,1.14,.67,1.82v4.62h-1.05Zm-2.15-.99c.47,.02,.92-.14,1.28-.45,.33-.33,.51-.78,.48-1.25v-.6h-.91c-.52-.02-1.04,.1-1.5,.35-.31,.2-.49,.55-.47,.91-.02,.27,.08,.53,.27,.71,.23,.22,.54,.34,.86,.33Z"/><path d="M218.12,34.31c.36,0,.72-.06,1.07-.16v1.1c-.2,.08-.41,.14-.62,.17-.26,.05-.53,.07-.8,.07-1.39,0-2.08-.73-2.08-2.2v-3.71h-.91v-.65l1.01-.54,.49-1.46h.91v1.53h1.97v1.11h-1.97v3.65c-.02,.29,.08,.57,.27,.78,.17,.18,.41,.28,.66,.29Z"/><path d="M220.48,26.65c-.01-.22,.06-.44,.21-.6,.17-.16,.39-.23,.62-.22,.41-.04,.77,.27,.81,.68,0,.05,0,.1,0,.14,.04,.4-.25,.76-.65,.8-.05,0-.11,0-.16,0-.23,0-.45-.07-.62-.21-.14-.16-.22-.38-.21-.59Zm1.55,8.72h-1.47v-6.89h1.47v6.89Z"/><path d="M230.19,35.37h-1.48v-4.23c.04-.42-.08-.85-.32-1.19-.26-.28-.64-.43-1.02-.39-.51-.04-1.02,.16-1.36,.55-.33,.55-.48,1.19-.43,1.82v3.45h-1.46v-6.89h1.14l.21,.91h.07c.22-.34,.54-.6,.91-.76,.4-.18,.84-.27,1.28-.26,1.65,0,2.48,.84,2.48,2.53l-.03,4.48Z"/><path d="M238.05,28.48v.78l-1.18,.21c.11,.17,.2,.35,.26,.54,.27,.84,.03,1.76-.63,2.35-.77,.52-1.71,.72-2.63,.56-.27,.13-.45,.39-.47,.69,0,.15,.08,.29,.22,.36,.26,.09,.54,.14,.82,.12h1.2c.62-.04,1.23,.13,1.73,.48,.41,.35,.63,.87,.59,1.4,.03,.74-.34,1.43-.97,1.82-.85,.47-1.82,.7-2.8,.64-.75,.05-1.49-.13-2.14-.5-.49-.3-.77-.85-.75-1.42,0-.39,.14-.78,.4-1.07,.31-.31,.7-.52,1.13-.6-.2-.08-.37-.22-.48-.4-.27-.37-.27-.87,0-1.24,.18-.21,.4-.39,.65-.53-.37-.15-.69-.41-.91-.75-.22-.37-.34-.79-.33-1.22-.04-.66,.22-1.29,.7-1.74,.58-.44,1.3-.66,2.02-.61,.2-.01,.41-.01,.61,0l.48,.08,2.45,.05Zm-5.42,7.97c0,.31,.16,.59,.43,.73,.37,.19,.78,.28,1.19,.26,.63,.04,1.26-.08,1.82-.35,.35-.17,.58-.52,.58-.91,.02-.26-.1-.5-.32-.64-.38-.16-.79-.22-1.19-.19h-1.14c-.36-.02-.71,.09-1,.29-.25,.19-.39,.5-.37,.81h0Zm.63-5.73c-.02,.36,.09,.72,.33,.99,.24,.24,.57,.36,.91,.36,.85,0,1.28-.46,1.28-1.36,.02-.37-.09-.74-.32-1.04-.25-.26-.6-.39-.96-.36-.34-.01-.67,.12-.91,.36-.24,.29-.36,.67-.33,1.05Z"/><path d="M170.93,45c.79-.04,1.57,.22,2.18,.73,.55,.51,.84,1.24,.8,1.99,.05,.86-.29,1.69-.91,2.28-.73,.59-1.66,.88-2.6,.82-.83,.04-1.65-.13-2.4-.49v-1.33c.36,.2,.75,.35,1.16,.45,.4,.1,.81,.15,1.22,.15,.54,.04,1.07-.12,1.5-.44,.36-.33,.55-.81,.52-1.3,0-1.08-.69-1.63-2.08-1.63-.24,0-.49,.02-.73,.06-.28,0-.54,.08-.75,.13l-.66-.38,.35-4.45h4.74v1.3h-3.45l-.21,2.25,.53-.08c.26-.04,.52-.06,.77-.05Z"/><path d="M181.3,46.14c.08,1.22-.18,2.45-.76,3.53-.52,.77-1.41,1.21-2.33,1.15-.93,.05-1.81-.41-2.31-1.19-.59-1.06-.86-2.27-.78-3.48-.09-1.23,.17-2.47,.76-3.56,.94-1.28,2.75-1.56,4.03-.61,.23,.17,.44,.38,.61,.61,.6,1.08,.87,2.32,.78,3.56Zm-4.7,0c-.05,.9,.08,1.81,.38,2.66,.2,.5,.7,.81,1.23,.79,.54,0,1.03-.31,1.23-.81,.31-.85,.44-1.75,.38-2.64,.05-.9-.08-1.8-.38-2.65-.2-.5-.69-.83-1.23-.82-.54-.02-1.03,.3-1.23,.8-.32,.85-.46,1.76-.41,2.67h.03Z"/><path d="M184.93,46.75h-2.48v-1.08h2.48v-2.58h1.12v2.58h2.49v1.11h-2.49v2.53h-1.12v-2.57Z"/><path d="M196.23,45.74l2.15-4.16h1.62l-3.04,5.58v3.53h-1.5v-3.48l-3.03-5.63h1.62l2.16,4.16Z"/><path d="M204.07,50.81c-.93,.06-1.84-.27-2.52-.91-.64-.7-.96-1.63-.91-2.58-.06-.96,.24-1.9,.84-2.65,.58-.66,1.43-1.01,2.31-.97,.81-.04,1.59,.26,2.16,.83,.56,.62,.84,1.44,.79,2.28v.79h-4.56c-.02,.56,.17,1.11,.54,1.54,.38,.37,.91,.57,1.44,.54,.38,0,.77-.04,1.14-.12,.39-.09,.77-.21,1.13-.38v1.19c-.34,.16-.71,.28-1.08,.36-.42,.07-.85,.1-1.28,.08Zm-.27-6.04c-.42-.02-.82,.14-1.11,.45-.31,.36-.49,.81-.5,1.29h3.13c.02-.46-.12-.92-.41-1.29-.28-.31-.68-.49-1.1-.46v.02Z"/><path d="M212.72,50.69l-.29-.91h-.05c-.26,.36-.61,.65-1,.86-.41,.17-.85,.24-1.29,.23-.6,.02-1.18-.21-1.6-.63-.4-.42-.6-.98-.57-1.55-.04-.64,.26-1.25,.79-1.61,.73-.41,1.57-.62,2.41-.59h1.19v-.36c.03-.36-.08-.71-.31-.98-.26-.24-.61-.36-.96-.33-.34,0-.69,.05-1.01,.15-.31,.1-.62,.22-.91,.36l-.47-1.05c.39-.2,.8-.35,1.23-.45,.41-.09,.83-.14,1.26-.15,.71-.05,1.41,.15,1.99,.57,.49,.47,.74,1.15,.67,1.82v4.61h-1.07Zm-2.18-.99c.47,.02,.93-.14,1.29-.45,.33-.33,.51-.78,.48-1.25v-.6h-.91c-.52-.02-1.04,.1-1.5,.34-.3,.21-.47,.55-.46,.91-.02,.27,.08,.53,.27,.71,.22,.22,.52,.34,.84,.34Z"/><path d="M219.31,43.68c.24,0,.49,.01,.73,.05l-.15,1.37c-.21-.05-.43-.07-.65-.07-.53-.02-1.05,.19-1.42,.57-.37,.4-.57,.94-.55,1.49v3.65h-1.5v-6.94h1.15l.19,1.22h.08c.22-.4,.53-.74,.91-.98,.36-.24,.78-.36,1.2-.36Z"/><path d="M225.95,48.73c.03,.61-.25,1.19-.74,1.55-.63,.4-1.37,.58-2.11,.54-.76,.03-1.51-.11-2.21-.42v-1.27c.7,.35,1.48,.54,2.26,.57,.91,0,1.35-.27,1.35-.82,0-.16-.04-.31-.15-.43-.14-.15-.31-.27-.49-.36-.3-.16-.6-.3-.91-.43-.6-.18-1.15-.49-1.61-.91-.29-.33-.44-.76-.42-1.19-.02-.55,.25-1.08,.72-1.38,.58-.35,1.25-.52,1.93-.48,.8,0,1.58,.16,2.31,.49l-.47,1.1c-.59-.27-1.23-.43-1.88-.46-.77,0-1.16,.22-1.16,.67,0,.22,.12,.42,.3,.55,.42,.25,.86,.46,1.32,.61,.43,.16,.85,.37,1.24,.61,.24,.16,.43,.38,.57,.63,.12,.27,.17,.56,.15,.85Z"/></svg>