<svg xmlns="http://www.w3.org/2000/svg" width="30" height="30" viewBox="0 0 30 30"><path data-name="Path 105770" d="M6.67 6.67H3.335v1.665h5v-5H6.67z" fill="#1d428a"/><path data-name="Path 105771" d="M15.841 6.67h-3.335v1.665h5v-5h-1.665z" fill="#1d428a"/><path data-name="Path 105772" d="M25.012 3.335V6.67h-3.335v1.665h5v-5z" fill="#1d428a"/><path data-name="Path 105773" d="M6.67 15.841H3.335v1.665h5v-5H6.67z" fill="#1d428a"/><path data-name="Path 105774" d="M15.841 15.841h-3.335v1.665h5v-5h-1.665z" fill="#1d428a"/><path data-name="Path 105775" d="M25.012 15.841h-3.335v1.665h5v-5h-1.665z" fill="#1d428a"/><path data-name="Path 105776" d="M6.67 25.012H3.335v1.665h5v-5H6.67z" fill="#1d428a"/><path data-name="Path 105777" d="M15.841 25.012h-3.335v1.665h5v-5h-1.665z" fill="#1d428a"/><path data-name="Path 105778" d="M25.012 25.012h-3.335v1.665h5v-5h-1.665z" fill="#1d428a"/></svg>