<svg xmlns="http://www.w3.org/2000/svg" width="24.993" height="24.993" viewBox="0 0 24.993 24.993"><g data-name="Apps &amp; Cloud Management" fill="#1d428a" stroke="#1d428a" stroke-width=".25"><path data-name="Path 60304" d="M19.979 21.074A11.382 11.382 0 013.92 5.014l-.7-.7a12.373 12.373 0 00.275 16.67q.17.179.346.353t.361.34a12.371 12.371 0 0016.48.1z"/><path data-name="Path 60305" d="M5.013 3.92a11.382 11.382 0 0116.06 16.06l.7.7a12.37 12.37 0 00-.1-16.479q-.165-.184-.339-.361t-.353-.347A12.372 12.372 0 004.312 3.22z"/><path data-name="Path 60306" d="M12.496 21.9a9.4 9.4 0 119.4-9.4 9.413 9.413 0 01-9.4 9.4zm0-17.815a8.413 8.413 0 108.413 8.415 8.422 8.422 0 00-8.413-8.416z"/></g></svg>