<svg xmlns="http://www.w3.org/2000/svg" width="21.795" height="24.739" viewBox="0 0 21.795 24.739"><g fill="#1d428a" stroke="#1d428a" stroke-width=".25"><path data-name="Path 105779" d="M1.115 12.821V2.078l-.99-.958v11.7a8.554 8.554 0 001.694 4.865 18.385 18.385 0 003.63 3.765 31.153 31.153 0 004.676 3.078v-1.13c-2.528-1.421-9.01-5.555-9.01-10.577zM20.681 2.078v10.743c0 5.018-6.485 9.156-9.01 10.576v1.132a31.152 31.152 0 004.676-3.078 18.386 18.386 0 003.63-3.766 8.554 8.554 0 001.694-4.865V1.12z"/><path data-name="Path 105780" d="M19.452 1.115l1.022-.99H1.321l1.022.99z"/><path data-name="Path 105781" d="M2.971 2.971v9.85c0 1.909 1.485 4.164 4.183 6.35a27.547 27.547 0 002.972 2.079c.187.114.363.218.524.312l.249.144.244-.143c.161-.094.337-.2.525-.312a27.7 27.7 0 002.894-2.016c2.747-2.207 4.26-4.484 4.26-6.413V2.971zm14.865 9.85c0 1.622-1.382 3.626-3.89 5.641a25.911 25.911 0 01-2.274 1.621 30.76 30.76 0 01-.774.477c-.235-.14-.5-.3-.773-.476a25.8 25.8 0 01-2.349-1.682 13.105 13.105 0 01-3.17-3.478l5.519-3.186.592-.342.015-.009.808-.466.016-.009.116-.067 6.165-3.559zm0-6.678L14.48 8.081l-2.809 1.622-.286.165-1.26.728-.118.068-.015.008-5.805 3.352a3.586 3.586 0 01-.227-1.2V3.961h13.876v2.183z"/></g></svg>