<svg xmlns="http://www.w3.org/2000/svg" width="26.831" height="26.587" viewBox="0 0 26.831 26.587"><g fill="#1d428a" stroke="#1d428a" stroke-width=".25"><path data-name="Path 45153" d="M1.259 3.944a1.3 1.3 0 001.249-.379l3.715 2.034v3.595a5.642 5.642 0 01.7-.518v-3.49L2.836 2.948a1.3 1.3 0 10-1.575 1z"/><path data-name="Path 45154" d="M11.647 2.7h.035l.2 5.009a7.04 7.04 0 01.66-.949l-.167-4.1a1.3 1.3 0 10-.732.039z"/><path data-name="Path 45155" d="M24.55 23.993a1.291 1.291 0 00-.552-.139l-.942-2.922c-.111.009-.222.02-.335.02h-.393l.989 3.069a1.3 1.3 0 101.233-.024z"/><path data-name="Path 45156" d="M14.251 23.089v-2.118h-.698v2.113a1.3 1.3 0 10.7 0z"/><path data-name="Path 45157" d="M4.729 20.999h-.391L2.147 23.19a1.29 1.29 0 00-.587-.146 1.313 1.313 0 101.1.616l2.665-2.661z"/><path data-name="Path 45158" d="M18.803 3.175h4.52a1.3 1.3 0 10-.036-.72v.022h-5.184v1.985a5.927 5.927 0 01.7.134z"/><path data-name="Path 45159" d="M22.645 20.253c2.186 0 4-2.061 4.057-4.629.064-2.525-1.571-4.614-3.684-4.816a6 6 0 00-5.593-5.694h-.142a5.811 5.811 0 00-5.317 3.881 4.826 4.826 0 00-1.985-.475H9.86a4.909 4.909 0 00-4.784 3.907 3.883 3.883 0 00-.961-.137h-.1a3.906 3.906 0 00-3.889 3.814 4.311 4.311 0 004.068 4.2h.458c2.587 0 14.891-.053 17.453-.053h.541zm-9.231-.674c-3.671.013-7.466.027-8.761.027h-.439a3.629 3.629 0 01-3.389-3.481 3.225 3.225 0 013.2-3.139h.082a3.188 3.188 0 01.788.112l.714.2.155-.724a4.236 4.236 0 014.1-3.355h.1a4.126 4.126 0 011.7.406l.682.331.274-.707a5.105 5.105 0 014.666-3.435h.125a5.315 5.315 0 014.914 5.06l.053.577.576.055c1.765.169 3.106 1.971 3.052 4.106-.047 2.175-1.554 3.946-3.359 3.946h-.541c-1.28-.005-5.049.008-8.692.021z"/></g></svg>