<svg xmlns="http://www.w3.org/2000/svg" width="28" height="18.441" viewBox="0 0 28 18.441"><path d="M3.574 7.673h-1.3A1.663 1.663 0 01.738 6.105a1.433 1.433 0 011.419-1.4H2.2a1.408 1.408 0 01.349.049l.755.209.159-.763a1.993 1.993 0 011.928-1.58h.047a1.931 1.931 0 01.8.189l.72.349.289-.747A2.48 2.48 0 019.5.738h.06a2.593 2.593 0 012.381 2.483l.017.193a5.341 5.341 0 01.65-.692A3.273 3.273 0 009.581 0H9.5a3.218 3.218 0 00-2.942 2.149 2.668 2.668 0 00-1.1-.263h-.066a2.719 2.719 0 00-2.65 2.163 2.15 2.15 0 00-.532-.076h-.053A2.163 2.163 0 000 6.088a2.387 2.387 0 002.254 2.323h.616a3.76 3.76 0 01.7-.739m22.699-2.449a2.82 2.82 0 00-2.627-2.674h-.067a2.729 2.729 0 00-2.5 1.823 2.264 2.264 0 00-.9-.22 5.666 5.666 0 01.367.811 1.453 1.453 0 01.206.073l.72.349.289-.747a1.992 1.992 0 011.809-1.352h.049a2.089 2.089 0 011.91 2l.055.609.609.058a1.378 1.378 0 011.063 1.511 1.361 1.361 0 01-1.168 1.452h-.254c-.391 0-1.268 0-2.312.006a4.793 4.793 0 01.112.737c1 0 1.823-.006 2.2-.006h.254a2.085 2.085 0 001.905-2.174 2.1 2.1 0 00-1.73-2.262m-8.399 7.28c-.084-.021-.252-.084-.5-.147a7.705 7.705 0 00-.525-.105 7.675 7.675 0 01-.4-1.092c.126-.189.315-.5.547-.945a11.283 11.283 0 01-.588-.567 3.932 3.932 0 00-.609-.525 2.748 2.748 0 00-.462.252 2.445 2.445 0 01-.483.231 2.026 2.026 0 00-.483-.252c-.273-.105-.441-.189-.5-.21a6.887 6.887 0 00-.294-1.05h-1.6c-.042.147-.084.315-.147.546-.084.294-.126.483-.147.546a6.6 6.6 0 00-1.03.4 5.68 5.68 0 00-.945-.546 14.1 14.1 0 00-1.156 1.2 7.194 7.194 0 01.546.9 5.478 5.478 0 00-.252.5 5.58 5.58 0 01-.231.525 1.662 1.662 0 00-.5.105 4.551 4.551 0 01-.483.147v1.639c.084.021.252.084.5.147.21.042.378.084.525.105a2.4 2.4 0 00.168.567 4.355 4.355 0 01.231.525 5.419 5.419 0 00-.5.945 11.449 11.449 0 001.156 1.092 2.749 2.749 0 00.462-.252 2.453 2.453 0 01.483-.231c.021.021.357.168.988.441a4.963 4.963 0 01.147.525 2.573 2.573 0 00.168.525h1.6a2.885 2.885 0 00.168-.546 2.263 2.263 0 01.189-.546 3.346 3.346 0 00.987-.4 7.309 7.309 0 00.945.546 16.172 16.172 0 001.134-1.2c-.063-.105-.168-.252-.273-.441-.147-.252-.231-.4-.273-.462a1.387 1.387 0 00.273-.5 3.558 3.558 0 01.231-.525 1.659 1.659 0 00.5-.105 4.57 4.57 0 01.483-.147h-.042zm-2.248 2.311a2.975 2.975 0 01-1.887 1.491 3.113 3.113 0 01-2.563-.21 2.839 2.839 0 01-1.327-1.471 3.647 3.647 0 01-.21-1.954 3.048 3.048 0 01.9-1.744 3.237 3.237 0 013.614-.546 3.213 3.213 0 011.87 2.6 3.407 3.407 0 01-.4 1.828" fill="#1d428a"/><path d="M20.143 6.499a4.519 4.519 0 00-4.21-4.287h-.107a4.375 4.375 0 00-4 2.921 3.631 3.631 0 00-1.494-.358h-.091a3.7 3.7 0 00-3.605 2.943 2.921 2.921 0 00-.723-.1h-.072a2.94 2.94 0 00-2.931 2.876 3.245 3.245 0 003.063 3.158h1.008v-.738h-.988a2.508 2.508 0 01-2.345-2.4 2.214 2.214 0 012.194-2.156h.057a2.2 2.2 0 01.541.076l.755.209.164-.765a2.976 2.976 0 012.88-2.358h.071a2.9 2.9 0 011.193.284l.721.349.289-.747a3.633 3.633 0 013.315-2.45h.089a3.79 3.79 0 013.493 3.616l.055.609.609.058a2.646 2.646 0 012.105 2.869 2.619 2.619 0 01-2.316 2.762h-1.335v.738h1.335a3.341 3.341 0 003.054-3.484 3.372 3.372 0 00-2.773-3.625" fill="#1d428a"/></svg>