<svg xmlns="http://www.w3.org/2000/svg" width="27.876" height="23.776" viewBox="0 0 27.876 23.776"><g transform="translate(.125 .125)" fill="#1d428a" stroke="#1d428a" stroke-width=".25"><path data-name="Path 45150" d="M17.373 22.482a12.94 12.94 0 00-1.989-.919l-.326-3.437h-.731l.375 3.957.213.08a23.97 23.97 0 011.525.635H9.256a25.024 25.024 0 011.521-.636l.2-.077.518-3.959h-.734l-.449 3.434a13.685 13.685 0 00-1.989.915.576.576 0 00-.224.649.564.564 0 00.54.4h8.405a.565.565 0 00.538-.4.575.575 0 00-.209-.642z"/><path data-name="Rectangle 11997" d="M2.753 13.716h16.336v.728H2.753z"/><path data-name="Path 45151" d="M.727 15.986V1.295a.564.564 0 01.558-.568h23.069a.677.677 0 01.67.681v8.741h.728V1.408A1.4 1.4 0 0024.352 0H1.283A1.291 1.291 0 00-.003 1.3v14.691a1.3 1.3 0 001.293 1.3h17.847v-.728H1.29a.571.571 0 01-.563-.577z"/><path data-name="Path 45152" d="M27.017 10.877h-6.463a.69.69 0 00-.687.693v10.046a.6.6 0 00.6.6h6.462a.7.7 0 00.7-.706V11.49a.612.612 0 00-.612-.613zm-.118 10.613h-6.3v-.829h6.3zm0-1.266h-6.3v-8.62h6.3z"/><circle data-name="Ellipse 1214" cx=".29" cy=".29" transform="translate(23.4 20.799)" r=".29"/></g></svg>