<svg xmlns="http://www.w3.org/2000/svg" width="27.004" height="20.987" viewBox="0 0 27.004 20.987"><g fill="#1d428a" stroke="#1d428a" stroke-width=".25"><path data-name="Path 45161" d="M13.265 14.581H5.851v-4.1h7.9v3l.719-1.472v-1.528h.742l.35-.719h-3.846v-4.1h7.9v3.081l.719-1.489V5.662h.767l.347-.719h-5.33v-4.1h7.9v4.1h-.331l.235.484.114.235h2.084v4.1h-.091l.81 1.659V.121H.125v15.178h12.952a5.946 5.946 0 01.188-.718zM24.742.844h1.382v4.1h-1.382zM10.997 9.763h-7.9v-4.1h7.9zM7.497.844h7.9v4.1h-7.9zm-6.653 0h5.934v4.1H.844zm0 4.819h1.531v4.1H.844zm4.289 8.919H.844v-4.1h4.289z"/><path data-name="Path 45162" d="M22.568 20.862h-4.962c-1.9 0-3.5-1.972-3.5-4.306a4.77 4.77 0 01.583-2.379c.33-.673 1.869-3.834 2.611-5.361a.359.359 0 01.322-.2h0a.359.359 0 01.322.2l1.391 2.819c.042.085.119.087.162 0l2.753-5.707a.359.359 0 01.323-.2h0a.359.359 0 01.323.2c1.025 2.113 2.868 5.908 3.276 6.725a5.832 5.832 0 01.705 2.934c0 2.905-1.933 5.275-4.309 5.275zM17.624 9.79c-.8 1.638-2 4.118-2.3 4.719a4.072 4.072 0 00-.5 2.041c0 1.95 1.273 3.593 2.779 3.593h4.965c1.98 0 3.59-2.048 3.59-4.564a5.137 5.137 0 00-.623-2.593c-.375-.751-1.912-3.912-2.962-6.077l-2.431 5.039a.793.793 0 01-1.453 0z"/><path data-name="Path 45163" d="M18.192 19.41a.357.357 0 01-.194-.057c-1.446-.932-1.084-2.979-.516-4.049a.359.359 0 01.3-.19.364.364 0 01.316.152c.221.315.986 1.218 1.58 1.229h.026c.969 0 1.557-1 2.16-3.677v-.048a.359.359 0 01.577-.275 4.98 4.98 0 01.624 6.556.36.36 0 01-.6-.395 4.379 4.379 0 00-.025-5.151c-.571 2.326-1.273 3.73-2.776 3.709a2.773 2.773 0 01-1.763-1.047c-.271.823-.377 2.025.489 2.583a.359.359 0 01-.195.661z"/></g></svg>