<svg xmlns="http://www.w3.org/2000/svg" width="117.087" height="17.748" viewBox="0 0 117.087 17.748"><path d="M50.019 16.529l-5.209-14.4a2.312 2.312 0 01-.129-.707A1.237 1.237 0 0145.968.193a1.371 1.371 0 011.286 1.029l4.308 12.407 4.309-12.471A1.3 1.3 0 0157.092.129h.129a1.388 1.388 0 011.35 1.029l4.311 12.471 4.37-12.471a1.252 1.252 0 011.222-.965 1.209 1.209 0 011.222 1.157c0 .193-.129.514-.129.707l-5.273 14.472a1.475 1.475 0 01-1.412 1.155h-.064a1.475 1.475 0 01-1.417-1.155l-4.244-12.22-4.308 12.282a1.425 1.425 0 01-1.415 1.157 1.621 1.621 0 01-1.415-1.219M87.701 1.543a1.286 1.286 0 012.572 0v2.958a7.021 7.021 0 015.852-4.18 1.25 1.25 0 011.286 1.286 1.264 1.264 0 01-1.157 1.286c-3.279.386-5.98 2.894-5.98 7.781v5.783a1.236 1.236 0 01-1.222 1.286 1.29 1.29 0 01-1.286-1.286V1.543m17.811 16.14c-4.63 0-8.359-3.537-8.359-8.81V8.81c0-4.887 3.408-8.81 8.038-8.81 4.951 0 7.781 4.115 7.781 8.552a1.151 1.151 0 01-1.157 1.157H99.79c.386 3.665 2.894 5.723 5.916 5.723a6.782 6.782 0 004.823-1.993 1.033 1.033 0 01.707-.322 1.084 1.084 0 011.093 1.093 1 1 0 01-.386.772 8.146 8.146 0 01-6.366 2.7m4.887-9.774c-.257-3.087-1.993-5.723-5.337-5.723-2.894 0-5.144 2.444-5.466 5.723zm-40.768 4.503v-.064c0-3.6 2.958-5.466 7.266-5.466a20.115 20.115 0 015.273.707v-.579c0-3.022-1.865-4.63-5.08-4.63a8.068 8.068 0 00-3.922.772 1.636 1.636 0 01-.45.129 1.186 1.186 0 01-1.157-1.093 1.189 1.189 0 01.707-1.093 11.566 11.566 0 015.079-.965 7.768 7.768 0 015.53 1.865 6.732 6.732 0 011.736 4.951v9.384a1.182 1.182 0 01-1.222 1.222 1.168 1.168 0 01-1.222-1.157V14.79a7.441 7.441 0 01-6.173 2.958c-3.151-.064-6.366-1.865-6.366-5.337m12.539-1.35V9.389a17.362 17.362 0 00-5.016-.707c-3.215 0-4.951 1.415-4.951 3.537v.064c0 2.122 1.993 3.408 4.308 3.408 3.087 0 5.659-1.929 5.659-4.63M4.557 1.415A2.323 2.323 0 001.406.257 2.291 2.291 0 00.249 3.408l5.338 11.51c.836 1.8 1.736 2.765 3.344 2.765 1.736 0 2.508-1.029 3.344-2.765 0 0 4.63-10.1 4.694-10.224a.663.663 0 01.643-.45.782.782 0 01.772.772v9.838c0 1.543.836 2.765 2.444 2.765a2.5 2.5 0 002.508-2.765V6.88a2.481 2.481 0 012.636-2.572 2.38 2.38 0 012.506 2.572v8.1c0 1.543.836 2.765 2.444 2.765a2.5 2.5 0 002.508-2.765v-8.1a2.481 2.481 0 012.636-2.572 2.38 2.38 0 012.508 2.572v8.1c0 1.543.836 2.765 2.444 2.765a2.5 2.5 0 002.508-2.765V5.723A5.755 5.755 0 0037.545 0a7.512 7.512 0 00-5.273 2.251A5.864 5.864 0 0027.128 0c-2.641 0-5.016 2.251-5.016 2.251A5.8 5.8 0 0017.675 0a5.479 5.479 0 00-5.4 3.665l-3.409 7.974L4.557 1.415m108.415.836a2.058 2.058 0 114.115-.064 2.031 2.031 0 01-2.058 2.058 1.978 1.978 0 01-2.057-1.994m3.73-.064a1.673 1.673 0 10-3.344 0 1.66 1.66 0 001.672 1.672 1.586 1.586 0 001.672-1.672" fill="#717074"/><path d="M114.258 1.415a.171.171 0 01.193-.193h.707a.786.786 0 01.579.193.584.584 0 01.193.45.517.517 0 01-.386.579l.322.386a.236.236 0 01.064.193.205.205 0 01-.193.193c-.129 0-.193-.064-.193-.129l-.45-.514h-.386v.449a.171.171 0 01-.193.193.205.205 0 01-.193-.193V1.415zm.9.707a.294.294 0 00.322-.257.3.3 0 00-.322-.322h-.45v.579z" fill="#717074"/></svg>