<svg xmlns="http://www.w3.org/2000/svg" width="31.33" height="18.013" viewBox="0 0 31.33 18.013"><path d="M20.19.943h.147a6.213 6.213 0 015.745 5.915l.062.676.675.064c2.063.2 3.63 2.3 3.568 4.8-.056 2.543-1.817 4.612-3.926 4.612h-.632c-1.5 0-5.9.016-10.16.031-4.293.015-8.731.031-10.247.031h-.514a4.243 4.243 0 01-3.962-4.069 3.77 3.77 0 013.735-3.669h.1a3.734 3.734 0 01.921.131l.836.232.182-.848a4.952 4.952 0 014.795-3.922h.11a4.826 4.826 0 011.987.474l.8.387.321-.828A5.968 5.968 0 0120.187.944m0-.818a6.8 6.8 0 00-6.217 4.538 5.65 5.65 0 00-2.322-.556h-.142a5.741 5.741 0 00-5.591 4.564 4.544 4.544 0 00-1.124-.16h-.112A4.568 4.568 0 00.125 12.98a5.041 5.041 0 004.757 4.906h.536c3.027 0 17.412-.062 20.407-.062h.632c2.557 0 4.678-2.41 4.743-5.412.075-2.952-1.837-5.4-4.308-5.631a7.02 7.02 0 00-6.54-6.658h-.166z" fill="#1d428a" stroke="#1d428a" stroke-width=".25"/></svg>