<svg xmlns="http://www.w3.org/2000/svg" width="25" height="20" fill="none" viewBox="0 0 25 20">
  <mask id="a" width="25" height="20" x="0" y="0" maskUnits="userSpaceOnUse">
    <path fill="#fff" fill-rule="evenodd" d="M0 19.648V0h24.177v19.648H0z" clip-rule="evenodd"/>
  </mask>
  <g mask="url(#a)">
    <path fill="#0077C5" fill-rule="evenodd" d="M24.177 2.326a9.916 9.916 0 01-2.849.781A4.977 4.977 0 0023.51.362a9.904 9.904 0 01-3.149 1.205 4.961 4.961 0 00-8.453 4.524A14.086 14.086 0 011.683.908a4.945 4.945 0 00-.672 2.494c0 1.721.876 3.239 2.207 4.128A4.928 4.928 0 01.97 6.91v.062a4.964 4.964 0 003.98 4.864 4.98 4.98 0 01-2.241.086 4.966 4.966 0 004.633 3.444 9.948 9.948 0 01-6.16 2.123c-.4 0-.796-.023-1.183-.07a14.033 14.033 0 007.603 2.23c9.124 0 14.114-7.559 14.114-14.114 0-.215-.005-.428-.014-.64.968-.7 1.81-1.575 2.474-2.57z" clip-rule="evenodd"/>
  </g>
</svg>
