<svg width="59" height="44" viewBox="0 0 59 44" fill="none" xmlns="http://www.w3.org/2000/svg">
<path d="M15.8074 41.683C15.7914 41.498 15.8141 41.3118 15.874 41.1361C15.9339 40.9604 16.0298 40.7991 16.1554 40.6623C16.2811 40.5256 16.4339 40.4164 16.6041 40.3417C16.7742 40.267 16.9581 40.2284 17.144 40.2284C17.3299 40.2284 17.5138 40.267 17.6839 40.3417C17.8541 40.4164 18.0069 40.5256 18.1325 40.6623C18.2582 40.7991 18.354 40.9604 18.414 41.1361C18.4739 41.3118 18.4965 41.498 18.4806 41.683C18.4965 41.8679 18.4739 42.0541 18.414 42.2298C18.354 42.4055 18.2582 42.5668 18.1325 42.7036C18.0069 42.8404 17.8541 42.9496 17.6839 43.0243C17.5138 43.099 17.3299 43.1375 17.144 43.1375C16.9581 43.1375 16.7742 43.099 16.6041 43.0243C16.4339 42.9496 16.2811 42.8404 16.1554 42.7036C16.0298 42.5668 15.9339 42.4055 15.874 42.2298C15.8141 42.0541 15.7914 41.8679 15.8074 41.683ZM19.4147 41.683V39.4705H18.4209V40.0261C18.2597 39.8155 18.0499 39.647 17.8094 39.5347C17.5689 39.4224 17.3049 39.3698 17.0396 39.3812C16.4531 39.4196 15.9031 39.6793 15.5013 40.1077C15.0994 40.5361 14.8759 41.101 14.8759 41.6879C14.8759 42.2748 15.0994 42.8398 15.5013 43.2681C15.9031 43.6965 16.4531 43.9562 17.0396 43.9947C17.3061 44.0161 17.5736 43.9679 17.8158 43.8549C18.058 43.7418 18.2666 43.5677 18.4209 43.3498V43.9054H19.4147V41.683ZM51.8302 41.683C51.8302 41.3277 51.9715 40.987 52.2231 40.7359C52.4747 40.4847 52.8159 40.3436 53.1717 40.3436C53.5275 40.3436 53.8688 40.4847 54.1203 40.7359C54.3719 40.987 54.5133 41.3277 54.5133 41.683C54.5133 42.0382 54.3719 42.3789 54.1203 42.6301C53.8688 42.8812 53.5275 43.0224 53.1717 43.0224C52.8159 43.0224 52.4747 42.8812 52.2231 42.6301C51.9715 42.3789 51.8302 42.0382 51.8302 41.683ZM55.3877 41.683V37.7144H54.394V40.0261C54.2333 39.8149 54.0236 39.6459 53.783 39.5335C53.5424 39.4212 53.2781 39.3689 53.0127 39.3812C52.4262 39.4196 51.8762 39.6793 51.4744 40.1077C51.0725 40.5361 50.8489 41.101 50.8489 41.6879C50.8489 42.2748 51.0725 42.8398 51.4744 43.2681C51.8762 43.6965 52.4262 43.9562 53.0127 43.9947C53.279 44.0142 53.5458 43.9651 53.7877 43.8522C54.0295 43.7393 54.2383 43.5663 54.394 43.3498V43.9054H55.3877V41.683ZM31.3295 40.2047C31.4718 40.202 31.6131 40.2274 31.7456 40.2793C31.878 40.3313 31.9989 40.4087 32.1013 40.5073C32.2037 40.6059 32.2857 40.7237 32.3425 40.8539C32.3994 40.9841 32.43 41.1242 32.4326 41.2663H30.1271C30.1548 40.9698 30.2945 40.6951 30.5179 40.4979C30.7412 40.3006 31.0315 40.1958 31.3295 40.2047ZM31.3295 39.3812C30.7429 39.4196 30.193 39.6793 29.7911 40.1077C29.3893 40.5361 29.1657 41.101 29.1657 41.6879C29.1657 42.2748 29.3893 42.8398 29.7911 43.2681C30.193 43.6965 30.7429 43.9562 31.3295 43.9947C31.984 44.0054 32.6223 43.7917 33.1381 43.3895L32.671 42.695C32.3018 42.9849 31.8488 43.1484 31.3792 43.1613C31.0684 43.1793 30.7622 43.0803 30.5211 42.8837C30.2801 42.6871 30.1217 42.4073 30.0774 42.0997H33.3567V41.7326C33.4029 41.441 33.3849 41.1428 33.3041 40.8589C33.2232 40.5749 33.0814 40.3119 32.8885 40.0882C32.6956 39.8644 32.4562 39.6853 32.187 39.5632C31.9178 39.4411 31.6252 39.379 31.3295 39.3812ZM42.9164 41.683C42.9004 41.498 42.9231 41.3118 42.983 41.1361C43.0429 40.9604 43.1388 40.7991 43.2644 40.6623C43.3901 40.5256 43.5429 40.4164 43.7131 40.3417C43.8832 40.267 44.0671 40.2284 44.253 40.2284C44.4389 40.2284 44.6227 40.267 44.7929 40.3417C44.9631 40.4164 45.1159 40.5256 45.2415 40.6623C45.3672 40.7991 45.463 40.9604 45.523 41.1361C45.5829 41.3118 45.6055 41.498 45.5896 41.683C45.6055 41.8679 45.5829 42.0541 45.523 42.2298C45.463 42.4055 45.3672 42.5668 45.2415 42.7036C45.1159 42.8404 44.9631 42.9496 44.7929 43.0243C44.6227 43.099 44.4389 43.1375 44.253 43.1375C44.0671 43.1375 43.8832 43.099 43.7131 43.0243C43.5429 42.9496 43.3901 42.8404 43.2644 42.7036C43.1388 42.5668 43.0429 42.4055 42.983 42.2298C42.9231 42.0541 42.9004 41.8679 42.9164 41.683ZM46.474 41.683V39.4705H45.4802V40.0261C45.319 39.8155 45.1092 39.647 44.8687 39.5347C44.6282 39.4224 44.3642 39.3698 44.099 39.3812C43.5124 39.4196 42.9624 39.6793 42.5606 40.1077C42.1588 40.5361 41.9352 41.101 41.9352 41.6879C41.9352 42.2748 42.1588 42.8398 42.5606 43.2681C42.9624 43.6965 43.5124 43.9562 44.099 43.9947C44.3656 44.0171 44.6334 43.9694 44.8758 43.8562C45.1181 43.7431 45.3266 43.5684 45.4802 43.3498V43.9054H46.474V41.683ZM37.5304 41.683C37.5173 41.9934 37.5697 42.3031 37.6839 42.5922C37.7982 42.8812 37.9719 43.1431 38.1939 43.3609C38.4158 43.5788 38.681 43.7477 38.9724 43.8569C39.2638 43.966 39.5749 44.013 39.8855 43.9947C40.4536 44.0261 41.0132 43.8458 41.4556 43.4887L40.9985 42.695C40.6729 42.9607 40.2663 43.1077 39.8458 43.1117C39.6614 43.1165 39.4782 43.0825 39.3079 43.0118C39.1376 42.9411 38.9841 42.8354 38.8575 42.7015C38.731 42.5676 38.6341 42.4086 38.5732 42.2348C38.5123 42.061 38.4888 41.8763 38.5043 41.6929C38.4949 41.5098 38.5225 41.3267 38.5853 41.1545C38.6482 40.9822 38.745 40.8243 38.8701 40.6902C38.9953 40.556 39.1461 40.4483 39.3137 40.3734C39.4813 40.2985 39.6622 40.258 39.8458 40.2543C40.2663 40.2582 40.6729 40.4052 40.9985 40.671L41.4556 39.8872C41.0132 39.5301 40.4536 39.3497 39.8855 39.3812C39.5738 39.3585 39.2607 39.4019 38.9669 39.5086C38.6731 39.6153 38.4053 39.7829 38.181 40.0003C37.9567 40.2177 37.781 40.48 37.6654 40.77C37.5499 41.06 37.4971 41.3711 37.5105 41.683H37.5304ZM49.9123 39.3812C49.6798 39.3751 49.45 39.4318 49.2471 39.5453C49.0442 39.6588 48.8758 39.8249 48.7596 40.0261V39.4705H47.7658V43.8955H48.7596V41.4151C48.7596 40.671 49.0776 40.2543 49.6837 40.2543C49.8848 40.2653 50.0845 40.2952 50.28 40.3436L50.5582 39.4209C50.3381 39.3863 50.1151 39.373 49.8924 39.3812H49.9123ZM24.115 39.8475C23.5771 39.5127 22.9495 39.35 22.3164 39.3812C21.2133 39.3812 20.468 39.9368 20.468 40.8099C20.468 41.683 21.0245 41.9608 21.9984 42.0997H22.4555C22.9623 42.1989 23.2405 42.3279 23.2405 42.5561C23.2405 42.7842 22.8729 43.1117 22.2468 43.1117C21.7163 43.1161 21.1981 42.9528 20.7661 42.6453L20.309 43.3895C20.8666 43.7633 21.5256 43.9573 22.1971 43.9451C23.489 43.9451 24.1846 43.3498 24.1846 42.5164C24.1846 41.683 23.5883 41.3159 22.6642 41.177H22.1971C21.7797 41.177 21.4618 41.0381 21.4618 40.7603C21.4618 40.4825 21.7798 40.2543 22.2866 40.2543C22.7715 40.2745 23.2462 40.3998 23.6778 40.6214L24.115 39.8475ZM36.5466 39.3812C36.3141 39.3751 36.0843 39.4318 35.8814 39.5453C35.6785 39.6588 35.5101 39.8249 35.3939 40.0261V39.4705H34.4001V43.8955H35.3939V41.4151C35.3939 40.671 35.7119 40.2543 36.318 40.2543C36.5192 40.2653 36.7188 40.2952 36.9143 40.3436L37.1925 39.4209C36.9789 39.3882 36.7627 39.3749 36.5466 39.3812ZM28.3284 39.4705H26.7484V38.141H25.7547V39.4705H24.91V40.3535H25.7845V42.3378C25.7845 43.3299 26.2019 43.955 27.3049 43.955C27.7268 43.9479 28.1402 43.8353 28.5073 43.6276L28.239 42.8041C27.9872 42.9558 27.6983 43.0347 27.4043 43.0323C26.9372 43.0323 26.7583 42.7545 26.7583 42.2981V40.3138H28.3284V39.4308V39.4705ZM13.9591 43.9054V41.1274C13.9773 40.8917 13.9439 40.6549 13.8612 40.4334C13.7785 40.2119 13.6484 40.0111 13.4801 39.8449C13.3117 39.6787 13.1091 39.5511 12.8864 39.471C12.6636 39.391 12.4261 39.3603 12.1902 39.3812C11.8837 39.3698 11.5792 39.4357 11.3048 39.5726C11.0304 39.7096 10.795 39.9133 10.6201 40.165C10.4749 39.9218 10.2679 39.7213 10.0201 39.5837C9.77236 39.446 9.49256 39.3762 9.20905 39.3812C8.95648 39.3696 8.70516 39.4228 8.47902 39.5357C8.25288 39.6486 8.05946 39.8174 7.91719 40.0261V39.4705H6.92346V43.8955H7.91719V41.4548C7.91719 40.671 8.32463 40.3039 8.97055 40.3039C9.61648 40.3039 9.96429 40.7107 9.96429 41.4548V43.8955H10.958V41.4548C10.9333 41.3058 10.9429 41.1531 10.9863 41.0085C11.0296 40.8638 11.1054 40.7309 11.2079 40.6199C11.3105 40.5089 11.4371 40.4227 11.578 40.3679C11.719 40.3132 11.8706 40.2913 12.0213 40.3039C12.6672 40.3039 13.015 40.7107 13.015 41.4548V43.8955H14.0783L13.9591 43.9054Z" fill="#ABABAB"/>
<path d="M23.7806 6.28564H38.2296V32.0271H23.7806V6.28564Z" fill="#ABABAB"/>
<path d="M24.6831 19.0018C24.6857 16.4888 25.2559 14.0092 26.3509 11.7493C27.4459 9.48934 29.0372 7.50802 31.0051 5.95431C28.564 4.02543 25.6313 2.82505 22.5423 2.49045C19.4534 2.15586 16.333 2.70057 13.538 4.06227C10.7431 5.42398 8.3864 7.5477 6.73756 10.1905C5.08872 12.8334 4.21429 15.8886 4.21429 19.0068C4.21429 22.125 5.08872 25.1802 6.73756 27.823C8.3864 30.4659 10.7431 32.5896 13.538 33.9513C16.333 35.313 19.4534 35.8577 22.5423 35.5231C25.6313 35.1885 28.564 33.9881 31.0051 32.0592C29.0331 30.507 27.4391 28.5246 26.3437 26.2623C25.2484 23.9999 24.6805 21.5171 24.6831 19.0018Z" fill="#B8BEC7"/>
<path d="M58.0969 18.994C58.1043 22.1131 57.2247 25.171 55.5592 27.8168C53.8936 30.4626 51.5096 32.589 48.6808 33.9519C45.852 35.3148 42.693 35.8589 39.5665 35.5219C36.44 35.1849 33.4726 33.9803 31.0051 32.0465C32.992 30.4902 34.5976 28.5078 35.7015 26.2481C36.8054 23.9883 37.3789 21.5099 37.3789 18.9989C37.3789 16.4879 36.8054 14.0095 35.7015 11.7498C34.5976 9.49003 32.992 7.50762 31.0051 5.95135C33.4722 4.02396 36.4366 2.8245 39.5591 2.49029C42.6815 2.15609 45.8357 2.70064 48.6606 4.06162C51.4855 5.4226 53.8669 7.54499 55.5322 10.1858C57.1975 12.8267 58.0794 15.8792 58.0769 18.994H58.0969Z" fill="#BEBEBE"/>
</svg>
