<svg width="244" height="149" viewBox="0 0 244 149" fill="none" xmlns="http://www.w3.org/2000/svg">
<path d="M49.125 4.5H10.875C7.35418 4.5 4.5 7.35418 4.5 10.875V49.125C4.5 52.6458 7.35418 55.5 10.875 55.5H49.125C52.6458 55.5 55.5 52.6458 55.5 49.125V10.875C55.5 7.35418 52.6458 4.5 49.125 4.5Z" fill="#3586D6"/>
<path fill-rule="evenodd" clip-rule="evenodd" d="M47.25 30.1154H39.25V23.7692C39.25 22.0177 40.6836 22.1827 42.45 22.1827H45.65V14.25H39.25C36.7039 14.25 34.2621 15.2529 32.4618 17.0381C30.6614 18.8233 29.65 21.2446 29.65 23.7692V30.1154H23.25V38.0481H29.65V55.5H39.25V38.0481H44.05L47.25 30.1154Z" fill="#FAFAFA"/>
<path d="M56.25 101.553C54.2751 102.416 52.1865 102.99 50.0484 103.257C52.3003 101.915 53.9846 99.7943 54.7833 97.2936C52.673 98.5468 50.3649 99.43 47.9583 99.9051C46.4816 98.3285 44.5664 97.233 42.4611 96.7606C40.3558 96.2882 38.1574 96.4608 36.1511 97.2559C34.1448 98.0511 32.4231 99.4321 31.2093 101.22C29.9955 103.008 29.3455 105.12 29.3438 107.283C29.3355 108.109 29.4191 108.935 29.5931 109.743C25.3112 109.534 21.1214 108.422 17.2979 106.478C13.4744 104.535 10.1034 101.804 7.40531 98.4645C6.0221 100.837 5.59416 103.65 6.20878 106.328C6.82341 109.006 8.4343 111.349 10.7128 112.877C9.01012 112.836 7.34235 112.384 5.85 111.562V111.68C5.85616 114.169 6.71714 116.58 8.28815 118.508C9.85917 120.435 12.0444 121.762 14.4764 122.264C13.5552 122.511 12.6048 122.632 11.6512 122.623C10.9674 122.636 10.2842 122.574 9.61359 122.439C10.3094 124.58 11.6501 126.452 13.4511 127.798C15.2521 129.144 17.4249 129.897 19.6706 129.954C15.8613 132.942 11.1626 134.563 6.32578 134.559C5.46484 134.564 4.60449 134.513 3.75 134.408C8.67188 137.586 14.4066 139.267 20.2612 139.249C24.2914 139.277 28.2869 138.502 32.0157 136.969C35.7445 135.437 39.1324 133.176 41.9825 130.32C44.8326 127.464 47.0881 124.068 48.6181 120.331C50.1481 116.594 50.922 112.589 50.895 108.549C50.895 108.072 50.8786 107.611 50.8556 107.154C52.9778 105.631 54.8057 103.733 56.25 101.553Z" fill="#03A9F4"/>
<mask id="mask0_1670_1309" style="mask-type:luminance" maskUnits="userSpaceOnUse" x="96" y="4" width="52" height="52">
<path d="M147.5 4.5H96.5V55.5H147.5V4.5Z" fill="white"/>
</mask>
<g mask="url(#mask0_1670_1309)">
<path fill-rule="evenodd" clip-rule="evenodd" d="M117.235 24.5815V22.5923C116.545 22.4945 115.849 22.4437 115.151 22.4404C106.625 22.4404 99.6875 29.3788 99.6875 37.9056C99.6875 43.1362 102.302 47.7664 106.289 50.5663C103.619 47.7107 102.135 43.9467 102.137 40.0373C102.137 31.6319 108.877 24.7777 117.235 24.5815Z" fill="#00F2EA" fill-opacity="0.5"/>
<path fill-rule="evenodd" clip-rule="evenodd" d="M117.6 47.0992C121.404 47.0992 124.508 44.0728 124.649 40.3012L124.662 6.63172H130.813C130.681 5.92872 130.615 5.21515 130.614 4.5H122.214L122.2 38.1706C122.059 41.9411 118.955 44.9664 115.151 44.9664C114.01 44.9668 112.885 44.6886 111.875 44.1558C112.527 45.0655 113.386 45.807 114.382 46.3188C115.377 46.8307 116.48 47.0982 117.6 47.0992ZM142.303 18.0601V16.1888C140.043 16.1909 137.83 15.5333 135.938 14.2965C137.597 16.2067 139.831 17.5272 142.304 18.0601" fill="#00F2EA" fill-opacity="0.5"/>
<path fill-rule="evenodd" clip-rule="evenodd" d="M135.939 14.2956C134.084 12.1737 133.063 9.45104 133.064 6.63306H130.813C131.105 8.19062 131.709 9.67282 132.59 10.9899C133.471 12.307 134.61 13.4316 135.939 14.2956ZM115.152 30.8423C113.28 30.8445 111.485 31.5893 110.161 32.9132C108.837 34.2371 108.092 36.0321 108.09 37.9044C108.091 39.1924 108.444 40.4556 109.111 41.5574C109.778 42.6591 110.734 43.5577 111.874 44.156C111.006 42.9583 110.538 41.5167 110.538 40.0374C110.54 38.1649 111.285 36.3695 112.609 35.0454C113.933 33.7212 115.728 32.9762 117.6 32.9741C118.328 32.9741 119.025 33.0944 119.684 33.3012V24.724C118.994 24.6263 118.297 24.5755 117.6 24.5722C117.478 24.5722 117.357 24.5792 117.236 24.5815V31.1695C116.562 30.9549 115.859 30.8447 115.152 30.8423Z" fill="#FF004F" fill-opacity="0.8"/>
<path fill-rule="evenodd" clip-rule="evenodd" d="M142.303 18.0603V24.5897C137.946 24.5897 133.91 23.1963 130.614 20.8309V37.9046C130.614 46.4313 123.678 53.3685 115.151 53.3685C111.856 53.3685 108.8 52.329 106.289 50.5652C107.733 52.1222 109.483 53.3643 111.429 54.2135C113.375 55.0627 115.476 55.5007 117.599 55.5002C126.126 55.5002 133.063 48.5631 133.063 40.0374V22.9638C136.469 25.4124 140.558 26.7275 144.752 26.7226V18.3196C143.911 18.3196 143.094 18.2284 142.303 18.0591" fill="#FF004F" fill-opacity="0.8"/>
<path fill-rule="evenodd" clip-rule="evenodd" d="M130.614 37.9044V20.8309C134.019 23.2798 138.109 24.5948 142.303 24.5897V18.0602C139.83 17.5268 137.597 16.2059 135.938 14.2956C134.61 13.4316 133.471 12.307 132.59 10.9899C131.709 9.67282 131.104 8.19062 130.813 6.63306H124.662L124.649 40.3025C124.507 44.073 121.404 47.0995 117.6 47.0995C116.48 47.0983 115.377 46.8307 114.382 46.3189C113.386 45.8071 112.527 45.0657 111.875 44.156C110.734 43.5579 109.778 42.6594 109.111 41.5576C108.444 40.4558 108.09 39.1926 108.089 37.9044C108.091 36.0321 108.836 34.2371 110.16 32.9132C111.484 31.5892 113.279 30.8445 115.151 30.8423C115.878 30.8423 116.575 30.9615 117.235 31.1695V24.5815C108.876 24.7778 102.137 31.632 102.137 40.0374C102.137 44.1022 103.716 47.8027 106.289 50.5662C108.883 52.3925 111.979 53.3712 115.151 53.3685C123.678 53.3685 130.614 46.4313 130.614 37.9044Z" fill="white"/>
</g>
<path fill-rule="evenodd" clip-rule="evenodd" d="M149.45 100.975C147.822 98.08 146.075 97.5475 142.46 97.345C138.845 97.1425 129.834 97 122 97C114.166 97 105.125 97.1013 101.533 97.3413C97.94 97.5813 96.1737 98.0913 94.535 100.971C92.8962 103.851 92 108.846 92 117.625V117.659C92 126.389 92.8625 131.406 94.5387 134.267C96.215 137.129 97.9475 137.688 101.536 137.931C105.125 138.175 114.166 138.25 122 138.25C129.834 138.25 138.875 138.126 142.456 137.92C146.037 137.714 147.819 137.151 149.446 134.256C151.145 131.395 151.996 126.381 151.996 117.647V117.625C152 108.846 151.145 103.866 149.45 100.975Z" fill="#F44336" fill-opacity="0.8"/>
<path fill-rule="evenodd" clip-rule="evenodd" d="M114.5 128.875V106.375L133.25 117.625L114.5 128.875Z" fill="#FAFAFA"/>
<path d="M238.514 25.1038H236.5V25H214V35H228.129C226.068 40.8213 220.529 45 214 45C205.716 45 199 38.2837 199 30C199 21.7162 205.716 15 214 15C217.824 15 221.303 16.4425 223.951 18.7987L231.022 11.7275C226.557 7.56625 220.585 5 214 5C200.194 5 189 16.1938 189 30C189 43.8063 200.194 55 214 55C227.806 55 239 43.8063 239 30C239 28.3237 238.827 26.6875 238.514 25.1038Z" fill="#FFC107" fill-opacity="0.8"/>
<path d="M191.883 18.3638L200.097 24.3875C202.319 18.885 207.702 15 214 15C217.824 15 221.303 16.4425 223.952 18.7987L231.023 11.7275C226.558 7.56625 220.585 5 214 5C204.398 5 196.07 10.4212 191.883 18.3638Z" fill="#FF3D00" fill-opacity="0.8"/>
<path d="M214 54.9999C220.458 54.9999 226.325 52.5286 230.762 48.5099L223.024 41.9624C220.514 43.8636 217.394 44.9999 214 44.9999C207.498 44.9999 201.977 40.8536 199.897 35.0674L191.744 41.3486C195.882 49.4449 204.284 54.9999 214 54.9999Z" fill="#4CAF50" fill-opacity="0.8"/>
<path d="M238.514 25.1038H236.5V25H214V35H228.129C227.139 37.7963 225.34 40.2075 223.02 41.9637L223.024 41.9613L230.761 48.5087C230.214 49.0062 239 42.5 239 30C239 28.3238 238.827 26.6875 238.514 25.1038Z" fill="#1976D2" fill-opacity="0.8"/>
<path d="M214.375 146C229.08 146 241 134.08 241 119.375C241 104.67 229.08 92.75 214.375 92.75C199.67 92.75 187.75 104.67 187.75 119.375C187.75 134.08 199.67 146 214.375 146Z" fill="#FF5700" fill-opacity="0.8"/>
<path fill-rule="evenodd" clip-rule="evenodd" d="M234.25 119.025C234.25 116.562 232.256 114.559 229.804 114.559C228.682 114.559 227.659 114.982 226.876 115.672C224.091 113.875 220.408 112.705 216.329 112.501L218.474 105.691L224.325 107.076C224.391 109.059 226.014 110.654 228.005 110.654C230.037 110.654 231.69 108.994 231.69 106.952C231.69 104.91 230.036 103.25 228.005 103.25C226.529 103.25 225.256 104.128 224.668 105.389L218.093 103.835C217.657 103.733 217.215 103.984 217.081 104.413L214.543 112.474C210.2 112.559 206.261 113.737 203.309 115.614C202.535 114.957 201.535 114.559 200.446 114.559C197.994 114.559 196 116.562 196 119.025C196 120.593 196.81 121.971 198.03 122.767C197.968 123.167 197.934 123.573 197.934 123.983C197.934 130.333 205.61 135.5 215.047 135.5C224.482 135.5 232.159 130.333 232.159 123.983C232.159 123.602 232.131 123.226 232.077 122.854C233.375 122.075 234.25 120.653 234.25 119.025ZM228.005 104.971C229.093 104.971 229.978 105.861 229.978 106.953C229.978 108.046 229.093 108.935 228.005 108.935C226.916 108.935 226.031 108.046 226.031 106.953C226.031 105.861 226.916 104.971 228.005 104.971ZM200.446 116.279C198.939 116.279 197.713 117.511 197.713 119.025C197.713 119.789 198.025 120.48 198.529 120.978C199.173 119.377 200.314 117.912 201.839 116.668C201.43 116.423 200.955 116.279 200.446 116.279ZM230.447 123.983C230.447 129.385 223.537 133.78 215.047 133.78C206.555 133.78 199.647 129.385 199.647 123.983C199.647 123.793 199.657 123.605 199.674 123.418C199.725 122.844 199.858 122.282 200.059 121.738C200.581 120.328 201.582 119.034 202.95 117.931C203.388 117.577 203.862 117.244 204.37 116.933C207.141 115.234 210.904 114.186 215.047 114.186C219.249 114.186 223.064 115.263 225.844 117.006C226.353 117.324 226.826 117.666 227.261 118.027C228.575 119.113 229.535 120.38 230.041 121.758C230.241 122.304 230.373 122.866 230.422 123.441C230.438 123.621 230.447 123.801 230.447 123.983ZM228.319 116.723C229.844 117.984 230.983 119.463 231.608 121.081C232.176 120.578 232.537 119.843 232.538 119.025C232.538 117.511 231.312 116.279 229.804 116.279C229.257 116.279 228.747 116.443 228.319 116.723Z" fill="white"/>
<path d="M211.75 121.645C211.75 120.207 210.584 119 209.145 119C207.706 119 206.5 120.207 206.5 121.645C206.5 123.082 207.707 124.25 209.145 124.25C210.584 124.248 211.75 123.082 211.75 121.645Z" fill="white"/>
<path d="M220.396 119C218.959 119 217.75 120.206 217.75 121.645C217.75 123.083 218.959 124.25 220.396 124.25C221.834 124.25 223 123.084 223 121.645C222.999 120.205 221.834 119 220.396 119Z" fill="white"/>
<path d="M219.974 128.221C218.964 129.075 217.263 129.489 214.771 129.489C214.763 129.489 214.756 129.491 214.749 129.491C214.741 129.491 214.735 129.489 214.728 129.489C212.235 129.489 210.533 129.075 209.524 128.221C209.176 127.926 208.61 127.926 208.262 128.221C207.913 128.517 207.913 128.995 208.262 129.289C209.622 130.44 211.737 131 214.728 131C214.735 131 214.742 130.998 214.749 130.998C214.756 130.998 214.763 131 214.771 131C217.761 131 219.876 130.44 221.238 129.29C221.587 128.994 221.587 128.517 221.239 128.222C220.889 127.927 220.324 127.927 219.974 128.221Z" fill="white"/>
</svg>
