<svg width="108" height="103" viewBox="0 0 108 103" fill="none" xmlns="http://www.w3.org/2000/svg">
<path d="M103 51.5C103 79.9427 79.9427 103 51.5 103C23.0573 103 0 79.9427 0 51.5C0 23.0573 23.0573 0 51.5 0C79.9427 0 103 23.0573 103 51.5Z" fill="#F8E197"/>
<g clip-path="url(#clip0_1581_659)">
<path d="M98.5875 71.7708C98.5115 71.6942 98.424 71.6304 98.3281 71.5819C98.9946 65.7158 97.4207 59.824 93.9299 55.1175C95.6504 51.1235 96.287 47.732 95.7329 45.2618C95.6022 44.5714 95.3331 43.9161 94.9423 43.3364C94.5515 42.7567 94.0472 42.2649 93.4607 41.8915C91.3672 40.5806 88.2717 40.7327 84.2584 42.3404C84.0105 42.445 83.8125 42.6439 83.7073 42.8944C83.602 43.1448 83.5977 43.4268 83.6954 43.6794C83.7932 43.9321 83.985 44.1352 84.2297 44.2452C84.4743 44.3551 84.7523 44.363 85.0035 44.2671C88.2872 42.948 90.9298 42.7368 92.3824 43.6573C92.7376 43.889 93.0414 44.1929 93.2748 44.5499C93.5081 44.9068 93.6661 45.3091 93.7387 45.7316C94.1362 47.5462 93.6756 50.1889 92.4478 53.31C88.7226 49.2009 83.6462 46.6102 78.1625 46.0197C72.6789 45.4292 67.1612 46.8791 62.6356 50.0998L62.4796 50.0397C54.8182 47.9081 49.2024 48.3261 47.4762 51.1568C47.1384 51.7522 46.9245 52.411 46.8479 53.0925C46.7713 53.774 46.8335 54.4635 47.0307 55.1183C47.6705 57.7843 49.911 61.0515 53.2973 64.5315C53.2489 64.8318 53.2016 65.1253 53.152 65.4324C52.5083 69.4103 52.9055 73.4851 54.3039 77.249C54.2273 77.3331 54.1651 77.4296 54.1199 77.5344C51.3133 84.4554 51.3614 89.3788 54.2671 91.3878C54.8807 91.8058 55.5795 92.0788 56.3121 92.1867C58.6797 92.5684 61.7536 91.5655 65.1172 89.622C69.2037 91.7723 73.8434 92.6113 78.4227 92.0281C83.0021 91.4448 87.3053 89.4668 90.7634 86.3556L91.3847 86.5258C92.3983 86.7732 93.3603 86.9704 94.2706 87.1171C99.3891 87.9424 102.795 87.1892 104.206 84.9028C105.952 81.9913 103.983 77.3394 98.5875 71.7708ZM79.0027 48.2292C83.9043 49.016 88.3553 51.5654 91.543 55.4119C90.6488 57.3036 89.6409 59.1382 88.5249 60.9053C88.3794 61.1381 88.3308 61.4196 88.3897 61.6878C88.4487 61.956 88.6105 62.189 88.8395 62.3355C89.0684 62.4819 89.3458 62.5299 89.6106 62.4689C89.8754 62.4078 90.1059 62.2428 90.2514 62.0099C91.2804 60.3646 92.1722 58.7858 92.9267 57.2735C95.6255 61.3446 96.8275 66.2525 96.3238 71.144C95.8201 76.0354 93.6424 80.601 90.1695 84.0471C85.9234 82.7996 81.7983 81.1666 77.8443 79.1679C79.7735 77.1752 81.6486 75.0477 83.4024 72.8586C84.05 72.0527 84.6873 71.2242 85.3156 70.3662C85.397 70.2575 85.4566 70.1336 85.491 70.0018C85.5253 69.87 85.5337 69.7327 85.5157 69.5978C85.4977 69.4629 85.4537 69.333 85.3862 69.2156C85.3186 69.0982 85.2288 68.9955 85.122 68.9135C85.0151 68.8314 84.8933 68.7716 84.7634 68.7374C84.6336 68.7032 84.4982 68.6953 84.3651 68.7141C84.2319 68.733 84.1037 68.7782 83.9876 68.8472C83.8714 68.9163 83.7698 69.0078 83.6884 69.1165C83.0812 69.9289 82.4539 70.738 81.8231 71.5256C79.9707 73.838 78.0013 76.0518 75.9231 78.1579C74.3662 77.342 72.7815 76.4563 71.1689 75.5007C65.5344 72.2323 60.2863 68.3252 55.5251 63.8543C56.8306 58.7625 59.9606 54.339 64.3027 51.4492C68.6448 48.5594 73.8866 47.4112 79.0027 48.2292ZM48.9923 54.5943C48.8651 54.2072 48.8163 53.7976 48.8488 53.3902C48.8813 52.9828 48.9944 52.5858 49.1814 52.223C50.1126 50.7276 53.9796 50.0276 60.6155 51.6717C57.4613 54.4811 55.1296 58.1155 53.8775 62.1742C51.2416 59.3474 49.505 56.7216 48.989 54.6148L48.9923 54.5943ZM70.1165 77.3197C71.533 78.1643 72.9595 78.9475 74.3769 79.7012C71.5178 82.5077 68.4004 85.03 65.0676 87.2332C61.5453 85.1321 58.7173 82.0215 56.9375 78.2906C55.1577 74.5597 54.5051 70.3744 55.0615 66.2584C59.684 70.4687 64.7296 74.1759 70.1165 77.3197ZM55.3892 89.6501C53.6017 88.4096 53.628 84.7796 55.3961 79.8059C57.1912 83.2912 59.8311 86.2538 63.0688 88.4165C59.8156 90.1887 57.0251 90.8031 55.387 89.6637L55.3892 89.6501ZM72.2901 89.8612C70.5167 89.5797 68.7879 89.0656 67.1471 88.3318C70.4287 86.0817 73.4992 83.5294 76.3194 80.7076C80.182 82.6859 84.1988 84.3406 88.3299 85.6551C86.0796 87.4344 83.494 88.7262 80.7344 89.4498C77.9747 90.1735 75.1002 90.3136 72.2901 89.8612ZM102.431 83.7974C101.374 85.5176 97.7067 85.8365 92.4424 84.6306C95.1512 81.6443 97.0378 77.9895 97.9118 74.0356C101.811 78.3126 103.543 81.995 102.431 83.7974Z" fill="#008A9C"/>
<path d="M59.0547 61.8884C61.6922 63.941 64.4763 65.8414 67.3882 67.5769C67.6184 67.6971 67.8884 67.7379 68.1433 67.691C68.3983 67.644 68.6191 67.5129 68.7612 67.3241C68.9032 67.1353 68.9557 66.903 68.9081 66.6743C68.8605 66.4456 68.7164 66.2376 68.5048 66.0924C65.6726 64.4054 62.9643 62.5581 60.3984 60.5629C60.1884 60.4064 59.9206 60.3254 59.6519 60.3372C59.3833 60.349 59.135 60.4526 58.9598 60.626C58.7847 60.7994 58.6965 61.029 58.7141 61.2658C58.7316 61.5027 58.8535 61.7282 59.0538 61.8943L59.0547 61.8884Z" fill="#008A9C"/>
<path d="M74.9483 70.7334C75.1864 70.9166 75.4909 71.0068 75.7949 70.9842C76.099 70.9616 76.378 70.8281 76.5707 70.6129C77.2851 69.8196 77.9876 69.0028 78.6737 68.1906C81.6631 64.6396 84.3461 60.8732 86.6988 56.925C86.8167 56.6805 86.8291 56.4014 86.7335 56.1438C86.638 55.8862 86.4415 55.6692 86.1837 55.5363C85.9258 55.4034 85.6257 55.3645 85.3436 55.4275C85.0614 55.4905 84.8183 55.6506 84.6629 55.8757C82.3694 59.7291 79.7533 63.4051 76.8378 66.8708C76.1692 67.6714 75.4777 68.4684 74.782 69.243C74.5946 69.4574 74.5071 69.7333 74.5382 70.0118C74.5692 70.2903 74.7164 70.5493 74.9483 70.7334Z" fill="#008A9C"/>
</g>
<defs>
<clipPath id="clip0_1581_659">
<rect width="64" height="64" fill="white" transform="translate(44 36)"/>
</clipPath>
</defs>
</svg>
