<svg width="70" height="22" viewBox="0 0 70 22" fill="none" xmlns="http://www.w3.org/2000/svg">
<path fill-rule="evenodd" clip-rule="evenodd" d="M50.8073 0.891054C49.686 0.461241 47.9292 0 45.7351 0C40.1432 0 36.2042 2.87756 36.1706 7.00142C36.1391 10.0499 38.9827 11.7504 41.1294 12.7653C43.3322 13.8052 44.0727 14.4684 44.0621 15.397C44.0482 16.8191 42.303 17.4688 40.6765 17.4688C38.4113 17.4688 37.208 17.1472 35.3494 16.3551L34.6201 16.018L33.8258 20.7672C35.1475 21.3594 37.5919 21.8726 40.1298 21.8991C46.0787 21.8991 49.9405 19.0546 49.9845 14.6508C50.0058 12.2373 48.4979 10.4007 45.233 8.88659C43.2549 7.90515 42.0435 7.25025 42.0563 6.25645C42.0563 5.37461 43.0817 4.43164 45.2972 4.43164C47.1479 4.40228 48.4884 4.81464 49.533 5.24445L50.04 5.48927L50.8073 0.891054Z" fill="#BBBFC5"/>
<path fill-rule="evenodd" clip-rule="evenodd" d="M65.3192 0.38916H60.9462C59.5916 0.38916 58.5778 0.766953 57.9829 2.14851L49.578 21.5912H55.5207C55.5207 21.5912 56.4923 18.977 56.7121 18.403C57.3615 18.403 63.1346 18.4121 63.9599 18.4121C64.1292 19.1548 64.6484 21.5912 64.6484 21.5912H69.8997L65.3192 0.38916ZM58.3408 14.0636C58.8088 12.8413 60.5955 8.13294 60.5955 8.13294C60.5621 8.18941 61.06 6.90463 61.3459 6.10808L61.7283 7.93722C61.7283 7.93722 62.812 13.0014 63.0385 14.0634L58.3408 14.0636Z" fill="#BBBFC5"/>
<path fill-rule="evenodd" clip-rule="evenodd" d="M24.6249 21.5842L28.1632 0.368652H33.8225L30.2818 21.5842H24.6249Z" fill="#BBBFC5"/>
<path fill-rule="evenodd" clip-rule="evenodd" d="M19.8784 0.384277L14.3378 14.8517L13.7475 11.9116C12.716 8.52244 9.5024 4.85039 5.9097 3.01203L10.9759 21.5661L16.9635 21.5591L25.8731 0.384277H19.8784Z" fill="#BBBFC5"/>
<path fill-rule="evenodd" clip-rule="evenodd" d="M9.19779 0.371094H0.0722275L0 0.812503C7.09959 2.5686 11.7973 6.81243 13.7474 11.9116L11.7631 2.1622C11.4205 0.818789 10.4269 0.417911 9.19779 0.371094Z" fill="#ABABAB"/>
</svg>
