<?xml version="1.0" encoding="UTF-8" standalone="no"?>
<!-- Generator: Adobe Illustrator 24.2.1, SVG Export Plug-In . SVG Version: 6.00 Build 0)  -->

<svg
   xmlns:dc="http://purl.org/dc/elements/1.1/"
   xmlns:cc="http://creativecommons.org/ns#"
   xmlns:rdf="http://www.w3.org/1999/02/22-rdf-syntax-ns#"
   xmlns:svg="http://www.w3.org/2000/svg"
   xmlns="http://www.w3.org/2000/svg"
   xmlns:sodipodi="http://sodipodi.sourceforge.net/DTD/sodipodi-0.dtd"
   xmlns:inkscape="http://www.inkscape.org/namespaces/inkscape"
   version="1.1"
   id="Icon"
   x="0px"
   y="0px"
   viewBox="0 0 496.67001 396.09"
   xml:space="preserve"
   sodipodi:docname="tastingtable-icon-white.svg"
   width="496.67001"
   height="396.09"
   inkscape:version="0.92.5 (2060ec1f9f, 2020-04-08)"><metadata
   id="metadata20"><rdf:RDF><cc:Work
       rdf:about=""><dc:format>image/svg+xml</dc:format><dc:type
         rdf:resource="http://purl.org/dc/dcmitype/StillImage" /><dc:title></dc:title></cc:Work></rdf:RDF></metadata><defs
   id="defs18" /><sodipodi:namedview
   pagecolor="#ffffff"
   bordercolor="#666666"
   borderopacity="1"
   objecttolerance="10"
   gridtolerance="10"
   guidetolerance="10"
   inkscape:pageopacity="0"
   inkscape:pageshadow="2"
   inkscape:window-width="640"
   inkscape:window-height="480"
   id="namedview16"
   showgrid="false"
   fit-margin-top="0"
   fit-margin-left="0"
   fit-margin-right="0"
   fit-margin-bottom="0"
   inkscape:zoom="0.56770346"
   inkscape:cx="246.76"
   inkscape:cy="197.815"
   inkscape:window-x="3270"
   inkscape:window-y="508"
   inkscape:window-maximized="0"
   inkscape:current-layer="Icon" />
<style
   type="text/css"
   id="style2">
	.st0{display:none;fill:#0B0A08;}
	.st1{display:none;}
	.st2{display:inline;fill:#2E2B24;}
	.st3{fill:#FFFFFF;}
</style>
<rect
   id="BG"
   y="-60.18"
   class="st0"
   width="512"
   height="512"
   x="-9.2399998"
   style="display:none;fill:#0b0a08" />
<g
   class="st1"
   id="g9"
   style="display:none"
   transform="translate(-9.24,-9.58)">
	<path
   class="st2"
   d="m 375.44,296.47 c -15.01,0 -27.21,12.2 -27.21,27.21 0,15.01 12.2,27.22 27.21,27.22 15.01,0 27.23,-12.21 27.23,-27.22 0.01,-15.01 -12.22,-27.21 -27.23,-27.21 z"
   id="path5"
   inkscape:connector-curvature="0"
   style="display:inline;fill:#2e2b24" />
	<path
   class="st2"
   d="M 355.26,132.35 H 333.89 C 330.44,95.16 330.44,81.58 291.98,81.58 h -41.46 v 234.69 c 0,8.56 4.7,13.26 13.26,13.26 h 44.45 V 350.9 H 156.46 v -21.37 h 44.45 c 8.56,0 13.26,-4.7 13.26,-13.26 V 81.58 h -41.46 c -38.5,0 -38.5,13.58 -41.91,50.77 H 109.43 V 60.2 h 245.83 z"
   id="path7"
   inkscape:connector-curvature="0"
   style="display:inline;fill:#2e2b24" />
</g>
<path
   class="st3"
   d="m 459.57,321.92 c -20.45,0 -37.1,16.63 -37.1,37.08 0,20.45 16.64,37.09 37.1,37.09 20.46,0 37.1,-16.64 37.1,-37.09 0,-20.45 -16.65,-37.08 -37.1,-37.08 z"
   id="path11"
   inkscape:connector-curvature="0"
   style="fill:#ffffff" />
<path
   class="st3"
   d="M 432.07,0 H 334.96 97.11 0 V 98.3 H 29.14 C 33.78,47.62 33.78,29.12 86.25,29.12 h 56.49 v 319.77 c 0,11.67 -6.4,18.07 -18.07,18.07 H 64.08 v 29.12 h 97.11 109.68 97.11 v -29.12 h -60.56 c -11.69,0 -18.07,-6.4 -18.07,-18.07 V 29.13 h 56.49 c 52.39,0 52.39,18.5 57.11,69.18 h 29.11 V 0 Z M 210.32,366.97 c -11.67,0 -18.07,-6.4 -18.07,-18.07 V 29.13 h 47.57 V 348.9 c 0,11.67 -6.4,18.07 -18.07,18.07 z"
   id="path13"
   inkscape:connector-curvature="0"
   style="fill:#ffffff" />
</svg>