<?xml version="1.0" encoding="UTF-8" standalone="no"?>
<!-- Generator: Adobe Illustrator 24.2.1, SVG Export Plug-In . SVG Version: 6.00 Build 0)  -->

<svg
   xmlns:dc="http://purl.org/dc/elements/1.1/"
   xmlns:cc="http://creativecommons.org/ns#"
   xmlns:rdf="http://www.w3.org/1999/02/22-rdf-syntax-ns#"
   xmlns:svg="http://www.w3.org/2000/svg"
   xmlns="http://www.w3.org/2000/svg"
   xmlns:sodipodi="http://sodipodi.sourceforge.net/DTD/sodipodi-0.dtd"
   xmlns:inkscape="http://www.inkscape.org/namespaces/inkscape"
   version="1.1"
   id="Icon"
   x="0px"
   y="0px"
   viewBox="0 0 365.54001 291.51999"
   xml:space="preserve"
   sodipodi:docname="tastingtable-icon.svg"
   width="365.54001"
   height="291.51999"
   inkscape:version="0.92.5 (2060ec1f9f, 2020-04-08)"><metadata
   id="metadata20"><rdf:RDF><cc:Work
       rdf:about=""><dc:format>image/svg+xml</dc:format><dc:type
         rdf:resource="http://purl.org/dc/dcmitype/StillImage" /><dc:title></dc:title></cc:Work></rdf:RDF></metadata><defs
   id="defs18" /><sodipodi:namedview
   pagecolor="#ffffff"
   bordercolor="#666666"
   borderopacity="1"
   objecttolerance="10"
   gridtolerance="10"
   guidetolerance="10"
   inkscape:pageopacity="0"
   inkscape:pageshadow="2"
   inkscape:window-width="640"
   inkscape:window-height="480"
   id="namedview16"
   showgrid="false"
   fit-margin-top="0"
   fit-margin-left="0"
   fit-margin-right="0"
   fit-margin-bottom="-0.2"
   inkscape:zoom="0.4609375"
   inkscape:cx="181.2"
   inkscape:cy="147.99001"
   inkscape:window-x="3187"
   inkscape:window-y="586"
   inkscape:window-maximized="0"
   inkscape:current-layer="Icon" />
<style
   type="text/css"
   id="style2">
	.st0{display:none;fill:#FFFFFF;}
	.st1{display:none;}
	.st2{display:inline;fill:#2E2B24;}
	.st3{fill:#0B0A09;}
</style>
<rect
   id="BG"
   class="st0"
   width="512"
   height="512"
   x="-74.800003"
   y="-112.47"
   style="display:none;fill:#ffffff" />
<g
   class="st1"
   id="g9"
   style="display:none"
   transform="translate(-74.8,-112.47)">
	<path
   class="st2"
   d="m 375.44,347.07 c -15.01,0 -27.21,12.2 -27.21,27.21 0,15.01 12.2,27.22 27.21,27.22 15.01,0 27.23,-12.21 27.23,-27.22 0.01,-15.01 -12.22,-27.21 -27.23,-27.21 z"
   id="path5"
   inkscape:connector-curvature="0"
   style="display:inline;fill:#2e2b24" />
	<path
   class="st2"
   d="m 355.26,182.95 h -21.37 c -3.45,-37.19 -3.45,-50.77 -41.91,-50.77 h -41.46 v 234.69 c 0,8.56 4.7,13.26 13.26,13.26 h 44.45 V 401.5 H 156.46 v -21.37 h 44.45 c 8.56,0 13.26,-4.7 13.26,-13.26 V 132.18 h -41.46 c -38.5,0 -38.5,13.58 -41.91,50.77 H 109.43 V 110.8 h 245.83 z"
   id="path7"
   inkscape:connector-curvature="0"
   style="display:inline;fill:#2e2b24" />
</g>
<path
   class="st3"
   d="m 338.24,236.93 c -15.05,0 -27.3,12.24 -27.3,27.29 0,15.05 12.25,27.3 27.3,27.3 15.05,0 27.3,-12.25 27.3,-27.3 0,-15.06 -12.25,-27.29 -27.3,-27.29 z"
   id="path11"
   inkscape:connector-curvature="0"
   style="fill:#0b0a09" />
<path
   class="st3"
   d="M 318,0 H 246.53 71.47 0 v 72.35 h 21.44 c 3.42,-37.3 3.42,-50.92 42.03,-50.92 h 41.57 v 235.35 c 0,8.59 -4.71,13.3 -13.3,13.3 H 47.15 v 21.43 h 71.47 80.72 71.47 v -21.43 h -44.57 c -8.6,0 -13.3,-4.71 -13.3,-13.3 V 21.44 h 41.57 c 38.56,0 38.56,13.62 42.03,50.92 h 21.43 V 0 Z M 154.79,270.08 c -8.59,0 -13.3,-4.71 -13.3,-13.3 V 21.44 h 35.01 v 235.35 c 0,8.59 -4.71,13.3 -13.3,13.3 h -8.41 z"
   id="path13"
   inkscape:connector-curvature="0"
   style="fill:#0b0a09" />
</svg>