<svg width="39" height="40" viewBox="0 0 39 40" fill="none" xmlns="http://www.w3.org/2000/svg">
<path fill-rule="evenodd" clip-rule="evenodd" d="M30.8955 6.2624C30.8955 6.45074 31.0503 6.60375 31.2409 6.60375C31.4315 6.60375 31.5863 6.45074 31.5863 6.2624V5.23833H32.6225C32.8131 5.23833 32.9679 5.08531 32.9679 4.89697C32.9679 4.70862 32.8131 4.55561 32.6225 4.55561H31.5863V3.53154C31.5863 3.3432 31.4315 3.19019 31.2409 3.19019C31.0503 3.19019 30.8955 3.3432 30.8955 3.53154V4.55561H29.8593C29.6687 4.55561 29.5139 4.70862 29.5139 4.89697C29.5139 5.08531 29.6687 5.23833 29.8593 5.23833H30.8955V6.2624Z" fill="#381451"/>
<path fill-rule="evenodd" clip-rule="evenodd" d="M34.6951 3.19013C34.6951 3.37848 34.8499 3.53149 35.0405 3.53149C35.231 3.53149 35.3859 3.37848 35.3859 3.19013V2.16606H36.422C36.6126 2.16606 36.7674 2.01305 36.7674 1.8247C36.7674 1.63636 36.6126 1.48335 36.422 1.48335H35.3859V0.459277C35.3859 0.27093 35.231 0.11792 35.0405 0.11792C34.8499 0.11792 34.6951 0.27093 34.6951 0.459277V1.48335H33.6589C33.4683 1.48335 33.3135 1.63636 33.3135 1.8247C33.3135 2.01305 33.4683 2.16606 33.6589 2.16606H34.6951V3.19013Z" fill="#381451"/>
<path fill-rule="evenodd" clip-rule="evenodd" d="M38.1488 20.5394V30.7801C38.1488 32.6649 36.6023 34.1936 34.6949 34.1936H32.6225C32.2413 34.1936 31.9317 34.4993 31.9317 34.8763V38.0072C31.9317 38.6156 31.1876 38.92 30.7525 38.4899L27.4173 35.1937C26.7693 34.5533 25.8913 34.1943 24.9749 34.1943H19.4974C17.5903 34.1943 16.0435 32.6655 16.0435 30.7807V20.54C16.0435 18.6549 17.5903 17.1265 19.4974 17.1265H34.6949C36.6023 17.1258 38.1488 18.6542 38.1488 20.5394Z" fill="white"/>
<path fill-rule="evenodd" clip-rule="evenodd" d="M30.5088 38.7317C30.7092 38.9297 30.9682 39.034 31.235 39.034C31.3689 39.034 31.5055 39.0073 31.6377 38.954C32.032 38.7923 32.2773 38.43 32.2773 38.0079V34.8771C32.2773 34.6887 32.4321 34.5357 32.6227 34.5357H34.695C36.7904 34.5357 38.4944 32.8513 38.4944 30.7808V20.5401C38.4944 18.4693 36.7904 16.7852 34.695 16.7852H19.4976C17.4023 16.7852 15.6982 18.4693 15.6982 20.5401V30.7808C15.6982 32.8513 17.4023 34.5357 19.4976 34.5357H24.975C25.8051 34.5357 26.586 34.8551 27.1729 35.4354L30.5088 38.7317ZM16.389 20.5394C16.389 18.8456 17.7838 17.4672 19.4976 17.4672V17.4665H34.6957C36.4095 17.4665 37.8043 18.845 37.8043 20.5387V30.7794C37.8043 32.4732 36.4095 33.8517 34.6957 33.8517H32.6233C32.052 33.8517 31.5872 34.311 31.5872 34.8757V38.0066C31.5872 38.2183 31.4236 38.3016 31.3736 38.322C31.3234 38.3433 31.148 38.3976 30.9972 38.2483L27.6613 34.9521C26.9442 34.2427 25.9896 33.8523 24.975 33.8523H19.4976C17.7838 33.8523 16.389 32.4739 16.389 30.7801V20.5394Z" fill="#381451"/>
<path fill-rule="evenodd" clip-rule="evenodd" d="M14.662 20.5394C14.662 17.9039 16.8319 15.7604 19.4976 15.7604H22.9516V7.56786C22.9516 5.68273 21.405 4.1543 19.4976 4.1543H4.30016C2.39305 4.1543 0.846191 5.68273 0.846191 7.56786V17.8086C0.846191 19.6934 2.39305 21.2221 4.30016 21.2221H6.37253C6.75402 21.2221 7.06333 21.5278 7.06333 21.9048V25.0357C7.06333 25.6441 7.80741 25.9485 8.24253 25.5184L11.5778 22.2222C12.2257 21.5818 13.1037 21.2228 14.0202 21.2228H14.662V20.5394Z" fill="white"/>
<path fill-rule="evenodd" clip-rule="evenodd" d="M7.76013 26.0623C7.62622 26.0623 7.48961 26.0356 7.35739 25.9816C6.96309 25.8206 6.71787 25.4576 6.71787 25.0355V21.9046C6.71787 21.7163 6.56305 21.5633 6.37247 21.5633H4.30009C2.20478 21.5633 0.500732 19.8788 0.500732 17.8084V7.56767C0.500732 5.49686 2.20478 3.81274 4.30009 3.81274H19.4975C21.5928 3.81274 23.2969 5.49686 23.2969 7.56767V15.7602C23.2969 15.9486 23.1421 16.1016 22.9515 16.1016C22.7609 16.1016 22.6061 15.9486 22.6061 15.7602V7.56767C22.6061 5.87389 21.2114 4.49546 19.4975 4.49546H4.30009C2.58627 4.49546 1.19153 5.87389 1.19153 7.56767V17.8084C1.19153 19.5021 2.58627 20.8806 4.30009 20.8806H6.37247C6.94386 20.8806 7.40866 21.3399 7.40866 21.9046V25.0355C7.40866 25.2472 7.57158 25.3305 7.62217 25.3509C7.67243 25.3722 7.84816 25.4259 7.9986 25.2772L11.3345 21.981C12.0523 21.2716 13.0055 20.8812 14.0211 20.8812H14.662C14.8526 20.8812 15.0074 21.0343 15.0074 21.2226C15.0074 21.4109 14.8526 21.564 14.662 21.564H14.0201C13.19 21.564 12.4095 21.8833 11.8222 22.4637L8.48634 25.7599C8.28598 25.9579 8.02761 26.0623 7.76013 26.0623Z" fill="#381451"/>
<path fill-rule="evenodd" clip-rule="evenodd" d="M8.44481 12.6882C8.44481 13.4422 7.8262 14.0536 7.06323 14.0536C6.30025 14.0536 5.68164 13.4422 5.68164 12.6882C5.68164 11.9341 6.30025 11.3228 7.06323 11.3228C7.8262 11.3228 8.44481 11.9341 8.44481 12.6882Z" fill="white"/>
<path fill-rule="evenodd" clip-rule="evenodd" d="M5.33618 12.6882C5.33618 13.629 6.1113 14.395 7.06316 14.395C8.01503 14.395 8.79015 13.629 8.79015 12.6882C8.79015 11.7475 8.01503 10.9814 7.06316 10.9814C6.1113 10.9814 5.33618 11.7475 5.33618 12.6882ZM6.02697 12.6882C6.02697 12.1235 6.49178 11.6642 7.06316 11.6642C7.63455 11.6642 8.09935 12.1235 8.09935 12.6882C8.09935 13.2526 7.63455 13.7123 7.06316 13.7123C6.49178 13.7123 6.02697 13.2526 6.02697 12.6882Z" fill="#381451"/>
<path fill-rule="evenodd" clip-rule="evenodd" d="M13.2805 12.6882C13.2805 13.4422 12.6619 14.0536 11.8989 14.0536C11.1359 14.0536 10.5173 13.4422 10.5173 12.6882C10.5173 11.9341 11.1359 11.3228 11.8989 11.3228C12.6619 11.3228 13.2805 11.9341 13.2805 12.6882Z" fill="white"/>
<path fill-rule="evenodd" clip-rule="evenodd" d="M10.1719 12.6882C10.1719 13.629 10.947 14.395 11.8989 14.395C12.8507 14.395 13.6258 13.629 13.6258 12.6882C13.6258 11.7475 12.8507 10.9814 11.8989 10.9814C10.947 10.9814 10.1719 11.7475 10.1719 12.6882ZM10.8627 12.6882C10.8627 12.1235 11.3275 11.6642 11.8989 11.6642C12.4702 11.6642 12.935 12.1235 12.935 12.6882C12.935 13.2526 12.4702 13.7123 11.8989 13.7123C11.3275 13.7123 10.8627 13.2526 10.8627 12.6882Z" fill="#381451"/>
<path fill-rule="evenodd" clip-rule="evenodd" d="M18.116 12.6882C18.116 13.4422 17.4973 14.0536 16.7344 14.0536C15.9714 14.0536 15.3528 13.4422 15.3528 12.6882C15.3528 11.9341 15.9714 11.3228 16.7344 11.3228C17.4973 11.3228 18.116 11.9341 18.116 12.6882Z" fill="white"/>
<path fill-rule="evenodd" clip-rule="evenodd" d="M15.0073 12.6882C15.0073 13.629 15.7824 14.395 16.7343 14.395C17.6862 14.395 18.4613 13.629 18.4613 12.6882C18.4613 11.7475 17.6862 10.9814 16.7343 10.9814C15.7824 10.9814 15.0073 11.7475 15.0073 12.6882ZM15.6981 12.6882C15.6981 12.1235 16.1629 11.6642 16.7343 11.6642C17.3057 11.6642 17.7705 12.1235 17.7705 12.6882C17.7705 13.2526 17.3057 13.7123 16.7343 13.7123C16.1629 13.7123 15.6981 13.2526 15.6981 12.6882Z" fill="#381451"/>
<path fill-rule="evenodd" clip-rule="evenodd" d="M23.6423 25.6596C23.6423 26.4137 23.0237 27.025 22.2607 27.025C21.4978 27.025 20.8792 26.4137 20.8792 25.6596C20.8792 24.9056 21.4978 24.2942 22.2607 24.2942C23.0237 24.2942 23.6423 24.9056 23.6423 25.6596Z" fill="white"/>
<path d="M22.2607 27.3664C21.3088 27.3664 20.5337 26.6004 20.5337 25.6597C20.5337 24.7189 21.3088 23.9529 22.2607 23.9529C23.2125 23.9529 23.9877 24.7189 23.9877 25.6597C23.9877 26.6004 23.2125 27.3664 22.2607 27.3664Z" fill="#E92070"/>
<path fill-rule="evenodd" clip-rule="evenodd" d="M28.4778 25.6596C28.4778 26.4137 27.8592 27.025 27.0962 27.025C26.3332 27.025 25.7146 26.4137 25.7146 25.6596C25.7146 24.9056 26.3332 24.2942 27.0962 24.2942C27.8592 24.2942 28.4778 24.9056 28.4778 25.6596Z" fill="white"/>
<path d="M27.0964 27.3664C26.1445 27.3664 25.3694 26.6004 25.3694 25.6597C25.3694 24.7189 26.1445 23.9529 27.0964 23.9529C28.0482 23.9529 28.8233 24.7189 28.8233 25.6597C28.8233 26.6004 28.0482 27.3664 27.0964 27.3664Z" fill="#E92070"/>
<path fill-rule="evenodd" clip-rule="evenodd" d="M33.3135 25.6596C33.3135 26.4137 32.6949 27.025 31.9319 27.025C31.1689 27.025 30.5503 26.4137 30.5503 25.6596C30.5503 24.9056 31.1689 24.2942 31.9319 24.2942C32.6949 24.2942 33.3135 24.9056 33.3135 25.6596Z" fill="white"/>
<path d="M31.9318 27.3664C30.98 27.3664 30.2048 26.6004 30.2048 25.6597C30.2048 24.7189 30.98 23.9529 31.9318 23.9529C32.8837 23.9529 33.6588 24.7189 33.6588 25.6597C33.6588 26.6004 32.8837 27.3664 31.9318 27.3664Z" fill="#E92070"/>
<path fill-rule="evenodd" clip-rule="evenodd" d="M34.3496 14.1136H26.7509C26.5603 14.1136 26.4055 13.9606 26.4055 13.7723C26.4055 13.5839 26.5603 13.4309 26.7509 13.4309H34.3496C34.5402 13.4309 34.695 13.5839 34.695 13.7723C34.695 13.9606 34.5402 14.1136 34.3496 14.1136Z" fill="#381451"/>
<path fill-rule="evenodd" clip-rule="evenodd" d="M37.1127 14.1136H35.7311C35.5406 14.1136 35.3857 13.9606 35.3857 13.7723C35.3857 13.5839 35.5406 13.4309 35.7311 13.4309H37.1127C37.3033 13.4309 37.4581 13.5839 37.4581 13.7723C37.4581 13.9606 37.3033 14.1136 37.1127 14.1136Z" fill="#381451"/>
<path fill-rule="evenodd" clip-rule="evenodd" d="M13.6258 34.535H6.02704C5.83646 34.535 5.68164 34.382 5.68164 34.1937C5.68164 34.0053 5.83646 33.8523 6.02704 33.8523H13.6258C13.8163 33.8523 13.9712 34.0053 13.9712 34.1937C13.9712 34.382 13.8163 34.535 13.6258 34.535Z" fill="#381451"/>
<path fill-rule="evenodd" clip-rule="evenodd" d="M4.64544 34.535H3.26385C3.07328 34.535 2.91846 34.382 2.91846 34.1937C2.91846 34.0053 3.07328 33.8523 3.26385 33.8523H4.64544C4.83601 33.8523 4.99084 34.0053 4.99084 34.1937C4.99084 34.382 4.83601 34.535 4.64544 34.535Z" fill="#381451"/>
<path fill-rule="evenodd" clip-rule="evenodd" d="M20.8789 9.95736C20.6884 9.95736 20.5336 9.80435 20.5336 9.61601V7.90922C20.5336 7.15617 19.9139 6.5438 19.152 6.5438H17.425C17.2344 6.5438 17.0796 6.39079 17.0796 6.20244C17.0796 6.01409 17.2344 5.86108 17.425 5.86108H19.152C20.2944 5.86108 21.2243 6.77981 21.2243 7.90922V9.61601C21.2243 9.80435 21.0695 9.95736 20.8789 9.95736Z" fill="#381451"/>
<path fill-rule="evenodd" clip-rule="evenodd" d="M36.0765 22.9288C35.8859 22.9288 35.7311 22.7758 35.7311 22.5874V20.8807C35.7311 20.1276 35.1114 19.5152 34.3495 19.5152H32.6225C32.4319 19.5152 32.2771 19.3622 32.2771 19.1739C32.2771 18.9855 32.4319 18.8325 32.6225 18.8325H34.3495C35.4919 18.8325 36.4219 19.7512 36.4219 20.8807V22.5874C36.4219 22.7758 36.267 22.9288 36.0765 22.9288Z" fill="#E92070"/>
</svg>
