<svg width="48" height="48" viewBox="0 0 48 48" fill="none" xmlns="http://www.w3.org/2000/svg">
<path fill-rule="evenodd" clip-rule="evenodd" d="M17.5652 8.69565H18.6957V7.56522C18.6957 6.61966 19.0713 5.71284 19.7399 5.04423C20.4085 4.37562 21.3153 4 22.2609 4L26.9565 4C27.9021 4 28.8089 4.37562 29.4775 5.04423C30.1461 5.71284 30.5217 6.61966 30.5217 7.56522V8.69565H31.6522C32.5977 8.69565 33.5046 9.07127 34.1732 9.73988C34.8418 10.4085 35.2174 11.3153 35.2174 12.2609L35.2174 40.4348C35.2174 41.3803 34.8418 42.2872 34.1732 42.9558C33.5046 43.6244 32.5977 44 31.6522 44H17.5652C16.6197 44 15.7128 43.6244 15.0442 42.9558C14.3756 42.2872 14 41.3803 14 40.4348L14 12.2609C14 11.3153 14.3756 10.4085 15.0442 9.73988C15.7128 9.07127 16.6197 8.69565 17.5652 8.69565ZM20.6957 10.6957V7.56522C20.6957 7.1501 20.8606 6.75198 21.1541 6.45844C21.4476 6.16491 21.8457 6 22.2609 6H26.9565C27.3716 6 27.7698 6.16491 28.0633 6.45844C28.3568 6.75198 28.5217 7.1501 28.5217 7.56522V10.6957H31.6522C32.0673 10.6957 32.4654 10.8606 32.759 11.1541C33.0525 11.4476 33.2174 11.8457 33.2174 12.2609L33.2174 40.4348C33.2174 40.8499 33.0525 41.248 32.759 41.5416C32.4654 41.8351 32.0673 42 31.6522 42H17.5652C17.1501 42 16.752 41.8351 16.4584 41.5416C16.1649 41.248 16 40.8499 16 40.4348V12.2609C16 11.8457 16.1649 11.4476 16.4584 11.1541C16.752 10.8606 17.1501 10.6957 17.5652 10.6957H20.6957Z" fill="url(#paint0_linear_1092_4958)"/>
<path fill-rule="evenodd" clip-rule="evenodd" d="M17.6522 16C17.6522 14.4933 18.7283 13 20.3665 13H28.9379C30.576 13 31.6522 14.4933 31.6522 16V38C31.6522 39.5067 30.576 41 28.9379 41H20.3665C18.7283 41 17.6522 39.5067 17.6522 38V16ZM20.3665 15C20.111 15 19.6522 15.2975 19.6522 16V22H29.6522V16C29.6522 15.2975 29.1933 15 28.9379 15H20.3665ZM29.6522 24H19.6522V30H29.6522V24ZM29.6522 32H19.6522V38C19.6522 38.7025 20.111 39 20.3665 39H28.9379C29.1933 39 29.6522 38.7025 29.6522 38V32Z" fill="url(#paint1_linear_1092_4958)"/>
<defs>
<linearGradient id="paint0_linear_1092_4958" x1="24.6087" y1="4" x2="24.6087" y2="44" gradientUnits="userSpaceOnUse">
<stop stop-color="#ED1E79"/>
<stop offset="1" stop-color="#451287"/>
</linearGradient>
<linearGradient id="paint1_linear_1092_4958" x1="24.6087" y1="4" x2="24.6087" y2="44" gradientUnits="userSpaceOnUse">
<stop stop-color="#ED1E79"/>
<stop offset="1" stop-color="#451287"/>
</linearGradient>
</defs>
</svg>
