<svg width="40" height="40" viewBox="0 0 40 40" fill="none" xmlns="http://www.w3.org/2000/svg">
<circle cx="20" cy="20" r="20" fill="#9E9E9E"/>
<path d="M34.5318 18.2754L32.9568 18.1067C32.338 18.0506 31.7754 17.6005 31.6067 16.9818C31.438 16.363 31.6628 15.6881 32.1694 15.3507L33.463 14.3945C33.7444 14.2258 33.8005 13.8318 33.6317 13.607L32.4503 11.5259C32.2816 11.2445 31.9441 11.1319 31.6628 11.301L30.2004 11.9759C29.5816 12.2008 28.9067 12.0885 28.5128 11.6385C28.0627 11.1884 27.9501 10.5136 28.1754 9.89482L28.8502 8.43242C28.9628 8.15109 28.8502 7.81365 28.6254 7.64494L26.4882 6.40663C26.2069 6.23791 25.8694 6.29402 25.7007 6.57535L24.7445 7.869C24.4071 8.37516 23.7322 8.60038 23.1135 8.48778C22.4947 8.31905 22.0446 7.81289 21.9886 7.13767L21.8198 5.56266C21.8198 5.22522 21.5385 5 21.2011 5H18.8385C18.5011 5 18.2198 5.22483 18.2198 5.56266L18.0511 7.13767C17.9949 7.75644 17.5449 8.31913 16.9262 8.48778C16.3074 8.65643 15.6325 8.43167 15.2951 7.869L14.3389 6.57535C14.1702 6.29402 13.7762 6.23791 13.5514 6.40663L11.4703 7.58808C11.1881 7.7568 11.0755 8.09424 11.1881 8.37557L11.863 9.83797C12.1444 10.4567 12.0317 11.1316 11.5817 11.5816C11.1316 12.0316 10.4568 12.1443 9.89408 11.9191L8.43167 11.2442C8.15034 11.1316 7.8129 11.2442 7.64419 11.469L6.46274 13.5502C6.29401 13.8315 6.35013 14.1689 6.63146 14.3377L7.92511 15.2939C8.43127 15.6313 8.65649 16.3062 8.48777 16.9249C8.31905 17.5437 7.81289 17.9938 7.13767 18.0498L5.56266 18.2185C5.22522 18.2185 5 18.4999 5 18.8373V21.1998C5 21.5373 5.22483 21.8186 5.56266 21.8186L7.13767 21.9873C7.75644 22.0434 8.31912 22.4935 8.48777 23.1122C8.6565 23.731 8.43167 24.4059 7.92511 24.7433L6.63146 25.6995C6.35013 25.8682 6.29401 26.2621 6.46274 26.5431L7.64419 28.6242C7.81291 28.9056 8.15035 29.0182 8.43167 28.8491L9.89408 28.1742C10.5129 27.8929 11.1877 28.0055 11.5817 28.4555C12.0317 28.9056 12.1444 29.5804 11.863 30.1431L11.1881 31.7192C11.0755 32.0006 11.1881 32.338 11.413 32.5067L13.4941 33.7442C13.7755 33.9129 14.1129 33.8003 14.2816 33.5755L15.2378 32.2818C15.5753 31.7757 16.2501 31.5505 16.8689 31.7192C17.4876 31.8879 17.9377 32.3941 17.9938 33.0693L18.1625 34.6443C18.1625 34.9817 18.4438 35.207 18.7813 35.207H21.1438C21.4812 35.207 21.7625 34.9821 21.7625 34.6443L21.9313 33.0693C21.9874 32.4505 22.4374 31.8878 23.0562 31.7192C23.6749 31.5505 24.3498 31.7753 24.6872 32.2818L25.6434 33.5755C25.8121 33.8568 26.2061 33.9129 26.4309 33.7442L28.5121 32.5067C28.7934 32.338 28.906 32.0006 28.7369 31.7192L28.062 30.2568C27.8372 29.6942 27.9494 28.9632 28.3995 28.5692C28.8495 28.1192 29.5244 28.0066 30.0871 28.2879L31.5495 28.9628C31.8308 29.0754 32.1682 29.0189 32.337 28.7379L33.5184 26.6568C33.6871 26.3755 33.631 26.038 33.3497 25.8132L32.056 24.857C31.5499 24.5195 31.3247 23.8447 31.4934 23.2259C31.6621 22.6072 32.1683 22.1571 32.8435 22.101L34.4185 21.9323C34.7559 21.9323 34.9811 21.651 34.9811 21.3135V18.951C35.0945 18.5567 34.8697 18.2754 34.5319 18.2754L34.5318 18.2754ZM20.0193 26.2068C16.588 26.2068 13.8315 23.4504 13.8315 20.0191C13.8315 16.5878 16.5879 13.8313 20.0193 13.8313C23.4506 13.8313 26.207 16.5877 26.207 20.0191C26.2066 23.4503 23.3941 26.2068 20.0193 26.2068Z" fill="white"/>
</svg>
