<svg width="49" height="49" viewBox="0 0 49 49" fill="none" xmlns="http://www.w3.org/2000/svg">
<path d="M22.7441 34.1583C22.7441 34.1583 21.1832 15.4268 21.1832 13.8658C21.1832 11.54 25.0856 6.06104 25.0856 6.06104C25.0856 6.06104 28.988 11.54 28.988 13.8658C28.988 16.9878 27.427 34.1583 27.427 34.1583M22.7441 34.1583H27.427M22.7441 34.1583L17.8271 39.1066C17.72 39.2164 17.5824 39.2915 17.4321 39.3221C17.2817 39.3528 17.1257 39.3375 16.9842 39.2783C16.8416 39.2197 16.7196 39.1203 16.6335 38.9925C16.5474 38.8647 16.501 38.7143 16.5003 38.5602V35.7349C16.4907 34.4004 16.7343 33.0762 17.2183 31.8325C18.4172 29.9254 19.7418 28.1003 21.1832 26.3691L22.0261 25.3389M27.427 34.1583L32.344 39.1378C32.4541 39.2456 32.5936 39.3185 32.745 39.3472C32.8964 39.3759 33.0529 39.3592 33.1947 39.2991C33.3366 39.239 33.4576 39.1383 33.5423 39.0095C33.627 38.8808 33.6717 38.7299 33.6708 38.5758V35.7349C33.6587 34.3966 33.3939 33.0726 32.8904 31.8325C31.7073 29.9301 30.4039 28.1052 28.988 26.3691L28.1919 25.3701M26.6465 38.0763C26.2819 39.4341 25.7579 40.744 25.0856 41.9787C24.4132 40.744 23.8892 39.4341 23.5246 38.0763C23.5246 37.6623 23.689 37.2653 23.9818 36.9726C24.2745 36.6798 24.6716 36.5154 25.0856 36.5154C25.4995 36.5154 25.8966 36.6798 26.1893 36.9726C26.4821 37.2653 26.6465 37.6623 26.6465 38.0763Z" stroke="url(#paint0_linear_58_12100)" stroke-linecap="round" stroke-linejoin="round"/>
<defs>
<linearGradient id="paint0_linear_58_12100" x1="25.0854" y1="6.06104" x2="25.0854" y2="41.9787" gradientUnits="userSpaceOnUse">
<stop stop-color="#ED1E79"/>
<stop offset="1" stop-color="#451287"/>
</linearGradient>
</defs>
</svg>
