<svg width="48" height="48" viewBox="0 0 48 48" fill="none" xmlns="http://www.w3.org/2000/svg">
<path fill-rule="evenodd" clip-rule="evenodd" d="M19.8663 14.0101C18.1583 14.0101 16.4671 14.3466 14.8893 15.0003C13.3114 15.6541 11.8778 16.6123 10.6704 17.8202C10.2799 18.2108 9.64676 18.2109 9.25616 17.8205C8.86556 17.43 8.86543 16.7969 9.25588 16.4063C10.6491 15.0125 12.3032 13.907 14.1237 13.1527C15.9443 12.3983 17.8956 12.0101 19.8663 12.0101C21.8369 12.0101 23.7882 12.3983 25.6088 13.1527C27.4293 13.907 29.0835 15.0125 30.4766 16.4063C30.8671 16.7969 30.867 17.43 30.4764 17.8205C30.0858 18.2109 29.4526 18.2108 29.0621 17.8202C27.8547 16.6123 26.4211 15.6541 24.8432 15.0003C23.2654 14.3466 21.5742 14.0101 19.8663 14.0101Z" fill="url(#paint0_linear_1086_4952)"/>
<path fill-rule="evenodd" clip-rule="evenodd" d="M11.9785 6.56868C14.4787 5.53304 17.1585 5 19.8647 5C22.5709 5 25.2507 5.53304 27.7509 6.56868C30.2512 7.60433 32.5229 9.12229 34.4365 11.0359C34.827 11.4264 34.827 12.0596 34.4365 12.4501C34.046 12.8406 33.4128 12.8406 33.0223 12.4501C31.2944 10.7222 29.2431 9.35157 26.9855 8.41644C24.728 7.48131 22.3083 7 19.8647 7C17.4211 7 15.0014 7.48131 12.7439 8.41644C10.4863 9.35157 8.43498 10.7222 6.70711 12.4501C6.31659 12.8406 5.68343 12.8406 5.2929 12.4501C4.90237 12.0596 4.90237 11.4264 5.29289 11.0359C7.20647 9.12229 9.47824 7.60433 11.9785 6.56868Z" fill="url(#paint1_linear_1086_4952)"/>
<path fill-rule="evenodd" clip-rule="evenodd" d="M14.1237 13.1527C15.9443 12.3983 17.8956 12.0101 19.8663 12.0101C21.8369 12.0101 23.7882 12.3983 25.6088 13.1527C27.4293 13.907 29.0835 15.0125 30.4766 16.4063C30.8671 16.7969 30.867 17.43 30.4764 17.8205C30.0858 18.2109 29.4526 18.2108 29.0621 17.8202C27.8547 16.6123 26.4211 15.6541 24.8432 15.0003C23.2654 14.3466 21.5742 14.0101 19.8663 14.0101C18.1583 14.0101 16.4671 14.3466 14.8893 15.0003C13.3114 15.6541 11.8778 16.6123 10.6704 17.8202C10.2799 18.2108 9.64676 18.2109 9.25616 17.8205C8.86556 17.43 8.86543 16.7969 9.25588 16.4063C10.6491 15.0125 12.3032 13.907 14.1237 13.1527Z" fill="url(#paint2_linear_1086_4952)"/>
<path fill-rule="evenodd" clip-rule="evenodd" d="M18.9575 19.0481C21.1277 18.8372 23.3038 19.387 25.1135 20.6033C25.5718 20.9114 25.6937 21.5327 25.3856 21.9911C25.0775 22.4495 24.4562 22.5713 23.9978 22.2632C22.573 21.3055 20.8596 20.8727 19.1509 21.0387C17.4421 21.2047 15.8441 21.9593 14.6303 23.1734C14.2398 23.5639 13.6066 23.564 13.2161 23.1735C12.8255 22.783 12.8255 22.1498 13.216 21.7593C14.7577 20.2173 16.7872 19.259 18.9575 19.0481Z" fill="url(#paint3_linear_1086_4952)"/>
<path fill-rule="evenodd" clip-rule="evenodd" d="M20.8644 26.9834C20.8775 27.5355 20.4405 27.9937 19.8883 28.0067C19.418 28.0179 18.9707 28.2125 18.6419 28.5491C18.3132 28.8857 18.1292 29.3375 18.1292 29.808C18.1292 30.2785 18.3132 30.7303 18.6419 31.0669C18.9707 31.4034 19.418 31.5981 19.8883 31.6092C20.4405 31.6223 20.8775 32.0804 20.8644 32.6326C20.8514 33.1847 20.3932 33.6217 19.8411 33.6087C18.8486 33.5852 17.9047 33.1745 17.2111 32.4643C16.5175 31.754 16.1292 30.8007 16.1292 29.808C16.1292 28.8153 16.5175 27.8619 17.2111 27.1517C17.9047 26.4415 18.8486 26.0308 19.8411 26.0073C20.3932 25.9942 20.8514 26.4313 20.8644 26.9834Z" fill="url(#paint4_linear_1086_4952)"/>
<path fill-rule="evenodd" clip-rule="evenodd" d="M25.2609 25.2612C27.2097 23.3124 29.8528 22.2176 32.6087 22.2176C35.3646 22.2176 38.0077 23.3124 39.9565 25.2612C41.9052 27.2099 43 29.853 43 32.6089C43 35.3649 41.9052 38.0079 39.9565 39.9567C38.0077 41.9054 35.3646 43.0002 32.6087 43.0002C29.8528 43.0002 27.2097 41.9054 25.2609 39.9567C23.3122 38.0079 22.2174 35.3649 22.2174 32.6089C22.2174 29.853 23.3122 27.2099 25.2609 25.2612ZM32.6087 24.2176C30.3832 24.2176 28.2488 25.1017 26.6752 26.6754C25.1015 28.249 24.2174 30.3834 24.2174 32.6089C24.2174 34.8344 25.1015 36.9688 26.6752 38.5425C28.2488 40.1161 30.3832 41.0002 32.6087 41.0002C34.8342 41.0002 36.9686 40.1161 38.5423 38.5425C40.1159 36.9688 41 34.8344 41 32.6089C41 30.3834 40.1159 28.249 38.5423 26.6754C36.9686 25.1017 34.8342 24.2176 32.6087 24.2176Z" fill="url(#paint5_linear_1086_4952)"/>
<path fill-rule="evenodd" clip-rule="evenodd" d="M32.6087 26.9133C33.161 26.9133 33.6087 27.361 33.6087 27.9133V37.3046C33.6087 37.8569 33.161 38.3046 32.6087 38.3046C32.0564 38.3046 31.6087 37.8569 31.6087 37.3046V27.9133C31.6087 27.361 32.0564 26.9133 32.6087 26.9133Z" fill="url(#paint6_linear_1086_4952)"/>
<path fill-rule="evenodd" clip-rule="evenodd" d="M33.3158 27.2062C33.7063 27.5967 33.7063 28.2299 33.3158 28.6204L29.7941 32.1421C29.4035 32.5327 28.7704 32.5327 28.3798 32.1421C27.9893 31.7516 27.9893 31.1184 28.3798 30.7279L31.9016 27.2062C32.2921 26.8157 32.9253 26.8157 33.3158 27.2062Z" fill="url(#paint7_linear_1086_4952)"/>
<path fill-rule="evenodd" clip-rule="evenodd" d="M31.9016 27.2062C32.2921 26.8157 32.9253 26.8157 33.3158 27.2062L36.8375 30.7279C37.2281 31.1184 37.2281 31.7516 36.8375 32.1421C36.447 32.5327 35.8139 32.5327 35.4233 32.1421L31.9016 28.6204C31.5111 28.2299 31.5111 27.5967 31.9016 27.2062Z" fill="url(#paint8_linear_1086_4952)"/>
<defs>
<linearGradient id="paint0_linear_1086_4952" x1="24" y1="5" x2="24" y2="43.0002" gradientUnits="userSpaceOnUse">
<stop stop-color="#ED1E79"/>
<stop offset="1" stop-color="#451287"/>
</linearGradient>
<linearGradient id="paint1_linear_1086_4952" x1="24" y1="5" x2="24" y2="43.0002" gradientUnits="userSpaceOnUse">
<stop stop-color="#ED1E79"/>
<stop offset="1" stop-color="#451287"/>
</linearGradient>
<linearGradient id="paint2_linear_1086_4952" x1="24" y1="5" x2="24" y2="43.0002" gradientUnits="userSpaceOnUse">
<stop stop-color="#ED1E79"/>
<stop offset="1" stop-color="#451287"/>
</linearGradient>
<linearGradient id="paint3_linear_1086_4952" x1="24" y1="5" x2="24" y2="43.0002" gradientUnits="userSpaceOnUse">
<stop stop-color="#ED1E79"/>
<stop offset="1" stop-color="#451287"/>
</linearGradient>
<linearGradient id="paint4_linear_1086_4952" x1="24" y1="5" x2="24" y2="43.0002" gradientUnits="userSpaceOnUse">
<stop stop-color="#ED1E79"/>
<stop offset="1" stop-color="#451287"/>
</linearGradient>
<linearGradient id="paint5_linear_1086_4952" x1="24" y1="5" x2="24" y2="43.0002" gradientUnits="userSpaceOnUse">
<stop stop-color="#ED1E79"/>
<stop offset="1" stop-color="#451287"/>
</linearGradient>
<linearGradient id="paint6_linear_1086_4952" x1="24" y1="5" x2="24" y2="43.0002" gradientUnits="userSpaceOnUse">
<stop stop-color="#ED1E79"/>
<stop offset="1" stop-color="#451287"/>
</linearGradient>
<linearGradient id="paint7_linear_1086_4952" x1="24" y1="5" x2="24" y2="43.0002" gradientUnits="userSpaceOnUse">
<stop stop-color="#ED1E79"/>
<stop offset="1" stop-color="#451287"/>
</linearGradient>
<linearGradient id="paint8_linear_1086_4952" x1="24" y1="5" x2="24" y2="43.0002" gradientUnits="userSpaceOnUse">
<stop stop-color="#ED1E79"/>
<stop offset="1" stop-color="#451287"/>
</linearGradient>
</defs>
</svg>
