<svg xmlns="http://www.w3.org/2000/svg" width="169" height="170" fill="none"><path d="M166.4 85.163c.364-45.232-36.01-82.194-81.242-82.558S2.963 38.616 2.6 83.848s36.01 82.195 81.243 82.558 82.194-36.01 82.557-81.243z" fill="#fff"/><path d="M84.5 169.007c-46.595 0-84.5-37.905-84.5-84.5S37.905 0 84.5 0 169 37.905 169 84.507s-37.905 84.508-84.5 84.508v-.008zm0-163.812c-43.73 0-79.305 35.575-79.305 79.313S40.77 163.82 84.5 163.82s79.305-35.575 79.305-79.313S128.23 5.195 84.5 5.195z" fill="#ff0080"/><path d="M74.541 77.755a4.96 4.96 0 0 1 1.61 2.219c5.454-4.786 11.703-7.888 18.656-9.261-1.106-3.725-3.005-6.731-5.736-8.994-4.809-3.985-10.923-5.484-18.344-4.504l-5.402.72.772-8.771 26.685-3.54.534-19.843-44.51 5.907-4.408 48.109 24.199-3.213c2.523-.334 4.504.059 5.944 1.18v-.007zm22.656 26.573l-.386 14.3 14.7-1.952c-2.396 5.996-7.116 9.454-14.151 10.389-5.477.728-9.677-.445-12.615-3.51-2.931-3.064-4.334-7.101-4.2-12.118 0-.185.022-.371.03-.549-6.055 4.564-12.549 5.826-15.353 6.167.482 7.844 3.287 14.233 8.415 19.175 5.907 5.692 13.587 7.911 23.041 6.656 8.876-1.179 16.17-5.09 21.892-11.739s8.704-14.745 8.964-24.273l.178-6.59-30.522 4.052.007-.008z" fill="#4d008c"/><path d="M44.398 114.784l3.362-.445 1.803-20.229-3.362.445-1.803 20.229zm10.99-21.438l-4.222.557-1.803 20.222 4.222-.557 1.803-20.221zm-10.255 1.35l-2.041.275-1.803 20.221 2.041-.267 1.803-20.229zm67.907-17.453c-4.623-2.1-9.758-2.775-15.405-2.026a35 35 0 0 0-7.732 1.922l-.156.059c-5.157 1.966-9.758 5.195-13.817 9.669-.03.03-.052.059-.082.089-2.649 2.842-5.209 4.133-7.235 4.638-.245.044-.482.089-.735.119l-10.879 1.425-1.803 20.221 9.499-1.202c2.397-.245 11.792-1.707 17.914-9.981l.111-.148c.846-1.15 6.56-8.623 13.231-10.33a23.8 23.8 0 0 1 1.432-.245c.319-.044.638-.074.95-.104.282-.007.557-.03.824-.052 2.234-.097 4.267.223 6.092.957 2.301.927 4.03 2.33 5.187 4.215l13.358-9.825c-2.531-4.163-6.107-7.302-10.731-9.402h-.022z" fill="#ff0080"/></svg>