<svg width="40" height="40" viewBox="0 0 40 40" fill="none" xmlns="http://www.w3.org/2000/svg">
<circle cx="20" cy="20" r="20" fill="#2B6AFF"/>
<g clip-path="url(#clip0_1572_15811)">
<path fill-rule="evenodd" clip-rule="evenodd" d="M28.9993 22.3418C28.5921 22.6061 28.1128 22.6391 27.7483 22.4277C27.2855 22.1591 27.0307 21.5309 27.0307 20.6544V18.0363C27.0307 16.7719 26.5445 15.8722 25.7314 15.6292C24.3541 15.2167 23.3175 16.9507 22.9277 17.6007L20.4977 21.6512V16.7006C20.4702 15.5612 20.1107 14.8797 19.4271 14.6743C18.9753 14.5384 18.2986 14.5932 17.6416 15.6268L12.1972 24.6139C11.4683 23.1914 11.0883 21.6075 11.0903 19.9998C11.0903 14.5856 15.3103 10.1825 20.4977 10.1825C25.6851 10.1825 29.9047 14.587 29.9047 19.9998C29.9047 20.0092 29.907 20.0172 29.9074 20.0257C29.9079 20.0342 29.9074 20.0437 29.9074 20.0531C29.9565 21.1014 29.6265 21.9354 29.0007 22.3418H28.9993ZM31.9949 20.0007V19.9738V19.9469C31.9651 13.3528 26.8195 8 20.4972 8C14.158 8 9 13.383 9 20.0002C9 26.6175 14.158 32 20.4977 32C23.4055 32.0005 26.2029 30.8553 28.3143 28.7999C28.5184 28.6015 28.6385 28.3287 28.6489 28.0401C28.6592 27.7516 28.5591 27.4704 28.3699 27.257C28.1855 27.0482 27.928 26.9231 27.654 26.9094C27.3799 26.8957 27.1118 26.9944 26.9086 27.1839L26.893 27.1985C25.1656 28.8804 22.8768 29.8176 20.4977 29.8171C17.7201 29.8171 15.2213 28.5531 13.4978 26.549L18.4074 18.4455V22.1818C18.4074 23.9753 19.0846 24.5568 19.652 24.7262C20.2195 24.8957 21.0886 24.78 22.0003 23.2584L24.7012 18.7575C24.788 18.6121 24.8674 18.4871 24.9404 18.3799V20.6558C24.9404 22.3337 25.5942 23.6765 26.7337 24.3373C27.7607 24.933 29.0521 24.8792 30.1044 24.1957C31.3793 23.366 32.0666 21.84 31.9949 20.0007Z" fill="white"/>
</g>
<defs>
<clipPath id="clip0_1572_15811">
<rect width="23" height="24" fill="white" transform="translate(9 8)"/>
</clipPath>
</defs>
</svg>
