<svg width="40" height="40" viewBox="0 0 40 40" fill="none" xmlns="http://www.w3.org/2000/svg">
<circle cx="20" cy="20" r="20" fill="#5865F2"/>
<g clip-path="url(#clip0_1572_15778)">
<path d="M27.921 12.5291C26.4641 11.8607 24.9019 11.3682 23.2685 11.0861C23.2387 11.0807 23.209 11.0943 23.1937 11.1215C22.9928 11.4788 22.7702 11.945 22.6144 12.3115C20.8575 12.0484 19.1097 12.0484 17.3889 12.3115C17.233 11.9369 17.0024 11.4788 16.8005 11.1215C16.7852 11.0952 16.7555 11.0816 16.7258 11.0861C15.0932 11.3673 13.531 11.8598 12.0733 12.5291C12.0606 12.5346 12.0498 12.5437 12.0427 12.5554C9.07942 16.9825 8.26766 21.3007 8.66588 25.5653C8.66769 25.5862 8.6794 25.6061 8.69562 25.6188C10.6507 27.0546 12.5445 27.9262 14.4031 28.5039C14.4329 28.513 14.4644 28.5021 14.4833 28.4776C14.923 27.8772 15.3149 27.2442 15.6509 26.5784C15.6708 26.5394 15.6518 26.4932 15.6113 26.4777C14.9896 26.2419 14.3977 25.9544 13.8283 25.6279C13.7833 25.6016 13.7797 25.5372 13.8211 25.5063C13.9409 25.4165 14.0608 25.3231 14.1752 25.2288C14.1959 25.2116 14.2247 25.2079 14.2491 25.2188C17.9898 26.9267 22.0396 26.9267 25.7361 25.2188C25.7605 25.207 25.7893 25.2107 25.8109 25.2279C25.9254 25.3222 26.0452 25.4165 26.1659 25.5063C26.2074 25.5372 26.2047 25.6016 26.1596 25.6279C25.5902 25.9607 24.9983 26.2419 24.3757 26.4768C24.3352 26.4922 24.3172 26.5394 24.337 26.5784C24.6802 27.2432 25.0722 27.8763 25.5037 28.4767C25.5217 28.5021 25.5542 28.513 25.5839 28.5039C27.4516 27.9262 29.3454 27.0546 31.3004 25.6188C31.3175 25.6061 31.3284 25.5871 31.3302 25.5662C31.8067 20.6358 30.5319 16.353 27.9507 12.5563C27.9444 12.5437 27.9336 12.5346 27.921 12.5291ZM16.2095 22.9686C15.0833 22.9686 14.1554 21.9346 14.1554 20.6648C14.1554 19.395 15.0653 18.3611 16.2095 18.3611C17.3627 18.3611 18.2817 19.4041 18.2637 20.6648C18.2637 21.9346 17.3537 22.9686 16.2095 22.9686ZM23.8045 22.9686C22.6783 22.9686 21.7504 21.9346 21.7504 20.6648C21.7504 19.395 22.6603 18.3611 23.8045 18.3611C24.9577 18.3611 25.8767 19.4041 25.8587 20.6648C25.8587 21.9346 24.9577 22.9686 23.8045 22.9686Z" fill="white"/>
</g>
<defs>
<clipPath id="clip0_1572_15778">
<rect width="22.8571" height="22.8571" fill="white" transform="translate(8.57143 8.57143)"/>
</clipPath>
</defs>
</svg>
