<svg width="24" height="24" viewBox="0 0 24 24" fill="none" xmlns="http://www.w3.org/2000/svg">
<path d="M9.02584 14.0069C9.1389 13.6723 9.02584 13.0015 8.82408 12.4208C8.53362 11.8626 6.60645 11.5055 6.18031 11.4604C6.1577 12.3549 6.65167 12.8004 7.16651 13.3811C7.68135 13.9618 8.89192 14.1855 9.02584 14.0069Z" fill="white"/>
<path d="M2.75098 12.2651C3.02058 18.5421 8.75694 20.5061 9.72054 20.6899C9.72054 20.6899 9.16047 17.5141 8.55517 15.9731C7.32198 14.3644 3.44498 12.5789 2.75098 12.2651Z" fill="white"/>
<path d="M19.6571 6.39366L19.3666 6.33472C19.3666 6.33472 17.5872 3.27858 12.2353 3.23698H12.124C6.77549 3.27858 4.99266 6.33472 4.99266 6.33472L4.70219 6.39366L2.48279 2.48291V8.50678L2.94023 9.72022C5.11963 9.66302 7.5895 10.9666 8.84009 11.5751C10.0576 12.6463 10.0315 14.0643 10.1185 15.1946C10.4872 15.6609 11.7483 15.7528 12.1292 15.7701H12.2405C12.6214 15.7528 13.8824 15.6609 14.2512 15.1946C14.3382 14.0643 14.3086 12.6463 15.5296 11.5751C16.7802 10.9666 19.2501 9.66822 21.4295 9.72022L21.8869 8.50678V2.48291L19.6571 6.39366Z" fill="white"/>
<path d="M17.2023 13.387C17.7241 12.8063 18.2094 12.3608 18.1885 11.4663C17.7624 11.5114 15.8352 11.8685 15.543 12.4267C15.3412 13.0074 15.2299 13.6783 15.3412 14.0128C15.4769 14.1862 16.6857 13.9625 17.2023 13.387Z" fill="white"/>
<path d="M15.8128 15.9731C15.2075 17.5141 14.6475 20.6899 14.6475 20.6899C15.6111 20.5061 21.3474 18.5421 21.617 12.2651C20.9213 12.5789 17.0443 14.3644 15.8128 15.9731Z" fill="white"/>
</svg>
