<svg width="40" height="40" viewBox="0 0 40 40" fill="none" xmlns="http://www.w3.org/2000/svg">
<circle cx="20" cy="20" r="20" fill="#1DA1F2"/>
<g clip-path="url(#clip0_1572_15824)">
<path d="M16.1881 29.7149C24.8135 29.7149 29.5312 22.5689 29.5312 16.3719C29.5312 16.1689 29.5312 15.9668 29.5175 15.7657C30.4353 15.1018 31.2275 14.2799 31.8571 13.3383C31.0013 13.7177 30.0934 13.9664 29.1636 14.0761C30.1427 13.4901 30.8754 12.5683 31.2254 11.4823C30.3048 12.0285 29.2977 12.4135 28.2475 12.6205C27.5405 11.8687 26.6053 11.3709 25.5868 11.204C24.5683 11.0372 23.5232 11.2107 22.6133 11.6977C21.7033 12.1847 20.9792 12.958 20.5531 13.898C20.1269 14.838 20.0224 15.8922 20.2558 16.8976C18.3913 16.804 16.5674 16.3195 14.9023 15.4754C13.2373 14.6313 11.7683 13.4465 10.5908 11.9979C9.99115 13.0303 9.80748 14.2524 10.0772 15.4155C10.347 16.5785 11.0498 17.595 12.0427 18.258C11.2964 18.2362 10.5663 18.0348 9.91427 17.6711V17.7305C9.91457 18.8132 10.2894 19.8625 10.9751 20.7004C11.6608 21.5382 12.6153 22.1131 13.6766 22.3275C12.9862 22.5158 12.2618 22.5434 11.5591 22.408C11.8589 23.3397 12.4423 24.1545 13.2278 24.7384C14.0134 25.3223 14.9617 25.6461 15.9403 25.6647C14.968 26.4289 13.8546 26.994 12.6637 27.3275C11.4728 27.661 10.2278 27.7565 8.99998 27.6084C11.1446 28.9846 13.6399 29.7146 16.1881 29.7113" fill="white"/>
</g>
<defs>
<clipPath id="clip0_1572_15824">
<rect width="22.8571" height="22.8571" fill="white" transform="translate(8.99998 9)"/>
</clipPath>
</defs>
</svg>
