<svg width="24" height="24" viewBox="0 0 24 24" fill="none" xmlns="http://www.w3.org/2000/svg">
<path fill-rule="evenodd" clip-rule="evenodd" d="M17.8943 4.26256C17.2109 3.57915 16.1028 3.57915 15.4194 4.26256L13.4675 6.21447L18.2551 6.21445M12.75 7.71447V11.2145H19.5C19.8749 11.2145 20.2202 11.0974 20.5043 10.8979C20.9568 10.58 21.25 10.0564 21.25 9.46446C21.25 8.49796 20.4665 7.71446 19.5 7.71446L12.75 7.71447ZM11.25 11.2145V7.71448L4.5 7.71446C3.5335 7.71446 2.75 8.49796 2.75 9.46446C2.75 10.0249 3.01265 10.5237 3.4246 10.8452L3.46273 10.8741C3.75302 11.0883 4.1108 11.2145 4.5 11.2145H11.25ZM3.72606 12.6216C3.97425 12.6823 4.2335 12.7145 4.5 12.7145H11.25L11.25 21.2145H10.5C9.3244 21.2145 8.48204 21.214 7.81769 21.1665C7.1608 21.1196 6.73463 21.0294 6.38514 20.8777C5.34904 20.4281 4.51518 19.5607 4.07806 18.4551C3.92859 18.0771 3.84122 17.619 3.79601 16.9246C3.75039 16.2242 3.75003 15.3375 3.75003 14.1073C3.75003 13.5088 3.73876 13.0926 3.72976 12.7601C3.72847 12.7123 3.72722 12.6662 3.72606 12.6216ZM2.22781 11.7881C2.2133 12.146 2.22184 12.4916 2.23226 12.9131C2.24055 13.2484 2.25003 13.6317 2.25003 14.1073V14.1347C2.25003 15.3321 2.25003 16.2673 2.29918 17.0221C2.3491 17.7887 2.45201 18.4221 2.68314 19.0067C3.26097 20.4681 4.37384 21.6401 5.78803 22.2537C6.3574 22.5008 6.97308 22.61 7.71075 22.6627C8.43482 22.7145 9.33066 22.7145 10.4709 22.7145H13.5291C14.6693 22.7145 15.5652 22.7145 16.2893 22.6627C17.0269 22.61 17.6426 22.5008 18.212 22.2537C19.6262 21.6401 20.739 20.4681 21.3169 19.0067C21.548 18.4221 21.6509 17.7887 21.7008 17.0221C21.75 16.2672 21.75 15.3317 21.75 14.134V14.0784C21.75 12.9903 21.75 12.4394 21.7126 11.845C22.3498 11.2523 22.75 10.4051 22.75 9.46446C22.75 7.77888 21.4668 6.393 19.824 6.23041C20.0663 5.17568 19.7769 4.02381 18.955 3.2019C17.6857 1.9327 15.628 1.9327 14.3588 3.2019L12.2374 5.32322C12.1867 5.374 12.1315 5.42994 12.0741 5.49067C12.0256 5.43379 11.9741 5.37792 11.9194 5.32324L9.79811 3.20192C8.52891 1.93271 6.47112 1.93271 5.20192 3.20192C4.38303 4.0208 4.09267 5.16725 4.33023 6.21882C2.61421 6.30713 1.25 7.72648 1.25 9.46446C1.25 10.3753 1.62536 11.1988 2.22781 11.7881ZM5.90175 6.21446C5.61448 5.57151 5.7351 4.79005 6.26258 4.26258C6.94599 3.57916 8.05403 3.57916 8.73745 4.26258L10.6893 6.21447L5.90175 6.21446ZM20.2427 12.629C20.004 12.6849 19.7553 12.7145 19.5 12.7145H12.75L12.75 21.2145H13.5C14.6756 21.2145 15.518 21.214 16.1823 21.1665C16.8392 21.1196 17.2654 21.0294 17.6149 20.8777C18.651 20.4281 19.4848 19.5607 19.9219 18.4551C20.0714 18.0771 20.1588 17.619 20.204 16.9246C20.2496 16.2242 20.25 15.3374 20.25 14.1073C20.25 13.4468 20.2499 12.9977 20.2427 12.629Z" fill="#03D5C0"/>
</svg>
