<svg width="24" height="24" viewBox="0 0 24 24" fill="none" xmlns="http://www.w3.org/2000/svg">
<path d="M6.75 10C7.04846 10 7.34441 10.1353 7.50214 10.3887L7.5232 10.4222C7.7858 10.8367 7.65275 11.4236 7.165 11.4773C7.02873 11.4923 6.89027 11.5 6.75 11.5C4.67893 11.5 3 9.82107 3 7.75C3 5.67893 4.67893 4 6.75 4C6.89027 4 7.02873 4.0077 7.165 4.0227C7.65275 4.0764 7.7858 4.66331 7.5232 5.07782L7.50214 5.11135C7.34441 5.36473 7.04846 5.5 6.75 5.5C5.50736 5.5 4.5 6.50736 4.5 7.75C4.5 8.99264 5.50736 10 6.75 10Z" fill="#03D5C0"/>
<path d="M3.92359 18C4.14439 18 4.34477 18.1275 4.45829 18.3169C4.73539 18.7792 4.43469 19.5 3.89569 19.5H3.75C1.67893 19.5 0 17.8211 0 15.75C0 13.6789 1.67893 12 3.75 12H3.89569C4.43468 12 4.73539 12.7208 4.45829 13.1831C4.34477 13.3725 4.14439 13.5 3.92359 13.5H3.75C2.50736 13.5 1.5 14.5074 1.5 15.75C1.5 16.9926 2.50736 18 3.75 18H3.92359Z" fill="#03D5C0"/>
<path d="M15.9768 10.4222C15.7142 10.8367 15.8473 11.4236 16.335 11.4773C16.4713 11.4923 16.6097 11.5 16.75 11.5C18.8211 11.5 20.5 9.82107 20.5 7.75C20.5 5.67893 18.8211 4 16.75 4C16.6097 4 16.4713 4.0077 16.335 4.0227C15.8473 4.0764 15.7142 4.66331 15.9768 5.07782L15.9979 5.11134C16.1556 5.36472 16.4515 5.5 16.75 5.5C17.9926 5.5 19 6.50736 19 7.75C19 8.99264 17.9926 10 16.75 10C16.4515 10 16.1556 10.1353 15.9979 10.3887L15.9768 10.4222Z" fill="#03D5C0"/>
<path d="M19.6043 19.5C19.0653 19.5 18.7646 18.7792 19.0417 18.3169C19.1552 18.1275 19.3556 18 19.5764 18H19.75C20.9926 18 22 16.9926 22 15.75C22 14.5074 20.9926 13.5 19.75 13.5H19.5764C19.3556 13.5 19.1552 13.3725 19.0417 13.1831C18.7646 12.7208 19.0653 12 19.6043 12H19.75C21.8211 12 23.5 13.6789 23.5 15.75C23.5 17.8211 21.8211 19.5 19.75 19.5H19.6043Z" fill="#03D5C0"/>
<path fill-rule="evenodd" clip-rule="evenodd" d="M11.75 4C9.67893 4 8 5.67893 8 7.75C8 9.82107 9.67893 11.5 11.75 11.5C13.8211 11.5 15.5 9.82107 15.5 7.75C15.5 5.67893 13.8211 4 11.75 4ZM9.5 7.75C9.5 6.50736 10.5074 5.5 11.75 5.5C12.9926 5.5 14 6.50736 14 7.75C14 8.99264 12.9926 10 11.75 10C10.5074 10 9.5 8.99264 9.5 7.75Z" fill="#03D5C0"/>
<path fill-rule="evenodd" clip-rule="evenodd" d="M8.75 13C6.67893 13 5 14.6789 5 16.75C5 18.8211 6.67893 20.5 8.75 20.5H14.75C16.8211 20.5 18.5 18.8211 18.5 16.75C18.5 14.6789 16.8211 13 14.75 13H8.75ZM6.5 16.75C6.5 15.5074 7.50736 14.5 8.75 14.5H14.75C15.9926 14.5 17 15.5074 17 16.75C17 17.9926 15.9926 19 14.75 19H8.75C7.50736 19 6.5 17.9926 6.5 16.75Z" fill="#03D5C0"/>
</svg>
