<svg width="24" height="24" viewBox="0 0 24 24" fill="none" xmlns="http://www.w3.org/2000/svg">
<path fill-rule="evenodd" clip-rule="evenodd" d="M12.0943 1.25C13.5579 1.25 15.1245 2.04253 15.6531 3.72928C15.9592 4.7058 17.1157 5.37291 18.3326 5.09514C20.0947 4.69292 21.639 5.47034 22.4123 6.69017C23.1949 7.92448 23.1777 9.6143 21.8565 10.8571C21.0615 11.6049 21.0615 12.7622 21.8565 13.51C23.1777 14.7527 23.1949 16.4426 22.4123 17.6769C21.639 18.8967 20.0947 19.6741 18.3326 19.2719C17.1157 18.9941 15.9592 19.6612 15.6531 20.6378C15.1245 22.3245 13.5579 23.117 12.0943 23.117C10.6307 23.117 9.0641 22.3245 8.53548 20.6378C8.22945 19.6612 7.07291 18.9941 5.85603 19.2719C4.09393 19.6741 2.54965 18.8967 1.77628 17.6769C0.993715 16.4426 1.01091 14.7527 2.33211 13.51C3.12713 12.7622 3.12713 11.6049 2.33211 10.8571C1.01091 9.6143 0.993716 7.92448 1.77628 6.69017C2.54965 5.47034 4.09393 4.69292 5.85603 5.09514C7.07291 5.37291 8.22945 4.7058 8.53548 3.72928C9.0641 2.04253 10.6307 1.25 12.0943 1.25ZM12.0943 2.75C11.1229 2.75 10.2545 3.25985 9.96684 4.17785C9.39709 5.99586 7.40086 6.98635 5.52222 6.55752C4.39903 6.30114 3.48724 6.79285 3.04312 7.49335C2.60818 8.17937 2.61206 9.06107 3.35984 9.76446C4.78456 11.1046 4.78455 13.2625 3.35984 14.6026C2.61206 15.306 2.60818 16.1877 3.04312 16.8737C3.48724 17.5742 4.39903 18.0659 5.52222 17.8095C7.40086 17.3807 9.39709 18.3712 9.96684 20.1892C10.2545 21.1072 11.1229 21.617 12.0943 21.617C13.0657 21.617 13.9341 21.1072 14.2218 20.1892C14.7915 18.3712 16.7878 17.3807 18.6664 17.8095C19.7896 18.0659 20.7014 17.5742 21.1455 16.8737C21.5804 16.1877 21.5766 15.306 20.8288 14.6026C19.4041 13.2625 19.4041 11.1046 20.8288 9.76446C21.5766 9.06107 21.5804 8.17937 21.1455 7.49335C20.7014 6.79285 19.7896 6.30114 18.6664 6.55752C16.7878 6.98635 14.7915 5.99586 14.2218 4.17785C13.9341 3.25985 13.0657 2.75 12.0943 2.75ZM16.6006 8.89831C16.9062 9.17794 16.9272 9.65235 16.6476 9.95793L13.1514 13.7785C12.8235 14.1368 12.5257 14.4624 12.2475 14.6911C11.9406 14.9435 11.5701 15.1536 11.0943 15.1536C10.6185 15.1536 10.248 14.9435 9.9411 14.6911C9.66289 14.4623 9.36507 14.1368 9.03721 13.7785L7.54101 12.1435C7.26138 11.8379 7.28241 11.3635 7.58798 11.0838C7.89356 10.8042 8.36797 10.8252 8.6476 11.1308L10.1112 12.7301C10.4824 13.1359 10.7081 13.3798 10.8938 13.5325C10.9793 13.6028 11.0314 13.6321 11.0592 13.6443C11.0802 13.6536 11.0877 13.6536 11.0942 13.6536C11.1006 13.6536 11.1084 13.6536 11.1294 13.6443C11.1572 13.6321 11.2093 13.6028 11.2948 13.5325C11.4805 13.3798 11.7062 13.1359 12.0775 12.7301L15.541 8.94528C15.8206 8.6397 16.2951 8.61867 16.6006 8.89831Z" fill="#03D5C0"/>
</svg>
