<?xml version="1.0" encoding="UTF-8"?>
<svg width="60px" height="55px" viewBox="0 0 60 55" version="1.1" xmlns="http://www.w3.org/2000/svg" xmlns:xlink="http://www.w3.org/1999/xlink">
    <!-- Generator: Sketch 64 (93537) - https://sketch.com -->
    <title>money (1)</title>
    <desc>Created with Sketch.</desc>
    <g id="Page-1" stroke="none" stroke-width="1" fill="none" fill-rule="evenodd">
        <g id="money-(1)" fill-rule="nonzero">
            <path d="M57.2726953,35.4864844 L2.72730469,35.4864844 C1.22730469,35.4864844 0,34.2591797 0,32.7591797 L0,2.75917969 C0,1.25917969 1.22730469,0.031875 2.72730469,0.031875 L57.2728125,0.031875 C58.7728125,0.031875 60.0001172,1.25917969 60.0001172,2.75917969 L60.0001172,32.7591797 C60.0001172,34.2591797 58.7726953,35.4864844 57.2726953,35.4864844 Z" id="Path" fill="#0E9347"></path>
            <path d="M50.4544922,24.5773828 C47.3180859,24.5773828 44.4544922,26.0773828 42.8180859,28.531875 C41.4544922,27.8501953 39.9544922,27.3046875 38.1817969,27.3046875 C33.4091016,27.3046875 29.4544922,30.8501953 28.7726953,35.4864844 L57.2726953,35.4864844 C58.6362891,35.4864844 59.7271875,34.5319922 60,33.1682812 C59.4544922,28.3955859 55.3635937,24.5773828 50.4544922,24.5773828 Z" id="Path" fill="#0D8944"></path>
            <path d="M51.8182031,32.7591797 L8.18179687,32.7591797 C8.18179687,29.7591797 5.72730469,27.3046875 2.72730469,27.3046875 L2.72730469,8.21378906 C5.72730469,8.21378906 8.18179687,5.75929687 8.18179687,2.75929687 L51.8182031,2.75929687 C51.8182031,5.75929687 54.2726953,8.21378906 57.2726953,8.21378906 L57.2726953,27.3046875 C54.2726953,27.3046875 51.8182031,29.7591797 51.8182031,32.7591797 Z" id="Path" fill="#3BB54A"></path>
            <g id="Group" transform="translate(10.898438, 5.390625)" fill="#0E9347">
                <path d="M39.5560547,19.1867578 C36.4196484,19.1867578 33.5560547,20.6867578 31.9196484,23.14125 C30.5560547,22.4595703 29.0560547,21.9140625 27.2833594,21.9140625 C23.4651562,21.9140625 20.1924609,24.0958594 18.6924609,27.3685547 L40.9197656,27.3685547 C40.9197656,24.3685547 43.2379688,22.0503516 46.2379688,21.9140625 C44.4651562,20.2776562 42.1470703,19.1867578 39.5560547,19.1867578 Z" id="Path"></path>
                <ellipse id="Oval" cx="19.1015625" cy="12.3685547" rx="10.9091016" ry="12.2726953"></ellipse>
                <circle id="Oval" cx="2.73796875" cy="12.3685547" r="2.72730469"></circle>
                <circle id="Oval" cx="35.4651562" cy="12.3685547" r="2.72730469"></circle>
            </g>
            <path d="M31.3635937,16.3955859 L28.6362891,16.3955859 C27.8180859,16.3955859 27.2726953,15.8500781 27.2726953,15.0319922 C27.2726953,14.2137891 27.8182031,13.6683984 28.6362891,13.6683984 L32.7271875,13.6683984 C33.5453906,13.6683984 34.0907813,13.1228906 34.0907813,12.3048047 C34.0907813,11.4866016 33.5452734,10.9412109 32.7271875,10.9412109 L31.3635937,10.9412109 C31.3635937,10.1230078 30.8180859,9.57761719 30,9.57761719 C29.1817969,9.57761719 28.6364062,10.123125 28.6364062,10.9412109 C26.3182031,10.9412109 24.5455078,12.7139063 24.5455078,15.0321094 C24.5455078,17.3503125 26.3182031,19.1230078 28.6364062,19.1230078 L31.3637109,19.1230078 C32.1819141,19.1230078 32.7273047,19.6685156 32.7273047,20.4866016 C32.7273047,21.3048047 32.1817969,21.8501953 31.3637109,21.8501953 L27.2728125,21.8501953 C26.4546094,21.8501953 25.9092187,22.3957031 25.9092187,23.2137891 C25.9092187,24.0319922 26.4547266,24.5773828 27.2728125,24.5773828 L28.6364062,24.5773828 C28.6364062,25.3955859 29.1819141,25.9409766 30,25.9409766 C30.8182031,25.9409766 31.3635937,25.3954687 31.3635937,24.5773828 C33.6817969,24.5773828 35.4544922,22.8046875 35.4544922,20.4864844 C35.4544922,18.1682812 33.6817969,16.3955859 31.3635937,16.3955859 Z" id="Path" fill="#89C763"></path>
            <circle id="Oval" fill="#FFCA5D" cx="35.4544922" cy="36.8501953" r="9.54550781"></circle>
            <circle id="Oval" fill="#F6B545" cx="47.7273047" cy="34.1228906" r="9.54550781"></circle>
            <path d="M47.7273047,24.5773828 C42.4091016,24.5773828 38.1817969,28.8046875 38.1817969,34.1228906 C38.1817969,39.4410938 42.4091016,43.6683984 47.7273047,43.6683984 C53.0455078,43.6683984 57.2728125,39.4410938 57.2728125,34.1228906 C57.2728125,28.8046875 53.0455078,24.5773828 47.7273047,24.5773828 Z M47.7273047,40.9410938 C43.9091016,40.9410938 40.9091016,37.9410938 40.9091016,34.1228906 C40.9091016,30.3046875 43.9091016,27.3046875 47.7273047,27.3046875 C51.5455078,27.3046875 54.5455078,30.3046875 54.5455078,34.1228906 C54.5455078,37.9410938 51.5455078,40.9410938 47.7273047,40.9410938 Z" id="Shape" fill="#FFCB5B"></path>
            <path d="M47.7273047,43.5319922 L47.7273047,43.5319922 C53.0455078,43.6683984 57.2728125,39.3046875 57.2728125,34.1228906 L57.1364063,34.1228906 C56.4546094,34.1228906 55.9091016,34.6683984 55.7728125,35.3501953 C55.5001172,37.2592969 54.5455078,39.0319922 53.1819141,40.2592969 C52.0910156,41.3501953 50.5910156,42.0319922 48.9546094,42.3046875 C48.2726953,42.3046875 47.7273047,42.8501953 47.7273047,43.5319922 Z" id="Path" fill="#F6B545"></path>
            <path d="M47.7273047,24.7137891 L47.7273047,24.7137891 C42.4091016,24.5773828 38.1817969,28.9410937 38.1817969,34.1228906 L38.3182031,34.1228906 C39,34.1228906 39.5455078,33.5773828 39.6817969,32.8955859 C39.9544922,30.9864844 40.9091016,29.2137891 42.2726953,27.9864844 C43.3635938,26.8955859 44.8635938,26.2137891 46.5,25.9409766 C47.1817969,25.9410937 47.7273047,25.3955859 47.7273047,24.7137891 Z" id="Path" fill="#FFE27A"></path>
            <path d="M41.8635937,35.0773828 C41.8635937,31.2591797 44.8635937,28.2591797 48.6817969,28.2591797 C50.3182031,28.2591797 51.8182031,28.8046875 53.0453906,29.8955859 C51.6817969,28.2591797 49.9091016,27.3046875 47.7273047,27.3046875 C43.9091016,27.3046875 40.9091016,30.3046875 40.9091016,34.1228906 C40.9091016,36.3046875 41.8635937,38.0773828 43.3635937,39.3046875 C42.4091016,38.2137891 41.8635937,36.7137891 41.8635937,35.0773828 Z" id="Path" fill="#F19920"></path>
            <path d="M51.8182031,38.3501953 C51.6817969,38.3501953 51.5455078,38.3501953 51.4091016,38.2137891 C51.1364063,37.9410938 51.1364063,37.5319922 51.4091016,37.2592969 C52.2273047,36.4410938 52.6364063,35.2137891 52.6364063,34.1228906 C52.6364063,33.7137891 52.9091016,33.4410938 53.3182031,33.4410938 C53.7273047,33.4410938 54,33.7137891 54,34.1228906 C54,35.6228906 53.4544922,37.1228906 52.5,38.2137891 C52.2273047,38.3501953 51.9544922,38.3501953 51.8182031,38.3501953 Z" id="Path" fill="#FFCB5B"></path>
            <g id="Group" transform="translate(38.203125, 27.304688)" fill="#F19920">
                <path d="M9.52417969,10.9091016 C8.70597656,10.9091016 8.16058594,10.3635938 8.16058594,9.54550781 L8.16058594,4.09101562 C8.16058594,3.2728125 8.70609375,2.72742187 9.52417969,2.72742187 C10.3422656,2.72742187 10.8877734,3.27292969 10.8877734,4.09101562 L10.8877734,9.54550781 C10.8877734,10.3635937 10.3423828,10.9091016 9.52417969,10.9091016 Z" id="Path"></path>
                <path d="M14.5695703,14.8635938 C13.6150781,11.4544922 11.1604688,8.7271875 8.0240625,7.5 C7.47855469,4.36359375 5.43316406,1.63640625 2.84226562,0 C1.20585937,1.77269531 0.114960937,4.09089844 0.114960937,6.68179688 C0.114960937,12 4.34226562,16.2273047 9.66046875,16.2273047 C11.4332813,16.3635938 13.0695703,15.8182031 14.5695703,14.8635938 Z" id="Path"></path>
            </g>
            <g id="Group" transform="translate(40.898438, 29.062500)" fill="#E78825">
                <path d="M2.46515625,10.2421875 C1.51066406,9.01488281 0.82875,7.51488281 0.82875,5.87859375 C0.82875,3.96949219 1.64695313,2.19679687 3.01054687,0.969492187 C2.73785156,0.560390625 2.46503906,0.287695312 2.19234375,0.015 C0.82875,1.24230469 0.010546875,3.015 0.010546875,5.06050781 C0.0106640625,7.2421875 0.96515625,9.01488281 2.46515625,10.2421875 Z" id="Path"></path>
                <path d="M5.46515625,5.87859375 L5.46515625,7.78769531 C5.46515625,8.60589844 6.01066406,9.15128906 6.82875,9.15128906 C7.64683594,9.15128906 8.19234375,8.60578125 8.19234375,7.78769531 L8.19234375,7.515 C7.37425781,6.83308594 6.41976562,6.28769531 5.46515625,5.87859375 Z" id="Path"></path>
            </g>
            <path d="M52.7726953,42.1682813 C52.5,41.2137891 52.2271875,40.3955859 51.6817969,39.5773828 C50.5908984,40.3955859 49.2273047,40.9409766 47.7273047,40.9409766 C43.9091016,40.9409766 40.9091016,37.9409766 40.9091016,34.1227734 C40.9091016,32.0772656 41.7273047,30.3045703 43.0908984,29.0772656 C42.4091016,28.3954688 41.7273047,27.8499609 40.9091016,27.4408594 C39.2726953,29.2135547 38.1817969,31.5317578 38.1817969,34.1226563 C38.1817969,39.4408594 42.4091016,43.6681641 47.7273047,43.6681641 C49.6364063,43.6681641 51.2726953,43.1228906 52.7726953,42.1682813 Z" id="Path" fill="#F6B545"></path>
            <path d="M52.3635937,40.9410937 C51.4091016,41.6228906 50.1817969,42.0319922 48.9544922,42.3046875 C48.2726953,42.4410937 47.7271875,42.9864844 47.7271875,43.6682812 L47.7271875,43.6682812 C49.6362891,43.6682812 51.2726953,43.1227734 52.7726953,42.1682812 C52.6364062,41.7591797 52.5,41.3501953 52.3635937,40.9410937 Z" id="Path" fill="#F19920"></path>
            <path d="M40.9091016,27.4410938 C39.2726953,29.2137891 38.1817969,31.5319922 38.1817969,34.1228906 L38.3182031,34.1228906 C39,34.1228906 39.5455078,33.5773828 39.6817969,32.8955859 C39.9544922,30.9864844 40.9091016,29.3500781 42.1362891,28.1228906 C41.7273047,27.9864844 41.3182031,27.7137891 40.9091016,27.4410938 Z" id="Path" fill="#FFCB5B"></path>
            <circle id="Oval" fill="#F6B545" cx="35.4544922" cy="36.8501953" r="9.54550781"></circle>
            <path d="M34.0908984,43.6682813 C34.0908984,44.6227734 34.2273047,45.4409766 34.5,46.3955859 C34.7726953,46.3955859 35.1817969,46.3955859 35.4544922,46.3955859 C40.7726953,46.3955859 45,42.1682813 45,36.8500781 C45,35.8955859 44.8635937,35.0773828 44.5908984,34.1227734 C44.3182031,34.1227734 43.9091016,34.1227734 43.6364062,34.1227734 C38.3182031,34.1227734 34.0908984,38.3501953 34.0908984,43.6682813 Z" id="Path" fill="#F19920"></path>
            <path d="M35.4544922,27.3046875 C30.1362891,27.3046875 25.9089844,31.5319922 25.9089844,36.8501953 C25.9089844,42.1683984 30.1362891,46.3957031 35.4544922,46.3957031 C40.7726953,46.3957031 45,42.1682812 45,36.8501953 C45,31.5321094 40.7726953,27.3046875 35.4544922,27.3046875 Z M35.4544922,43.6682812 C31.6362891,43.6682812 28.6362891,40.6682812 28.6362891,36.8500781 C28.6362891,33.031875 31.6362891,30.031875 35.4544922,30.031875 C39.2726953,30.031875 42.2726953,33.031875 42.2726953,36.8500781 C42.2726953,40.6682812 39.2726953,43.6682812 35.4544922,43.6682812 Z" id="Shape" fill="#FFCB5B"></path>
            <path d="M35.4544922,46.2591797 L35.4544922,46.2591797 C40.7726953,46.3955859 45,42.0319922 45,36.8501953 L44.8635938,36.8501953 C44.1817969,36.8501953 43.6362891,37.3957031 43.5,38.0775 C43.2273047,39.9866016 42.2726953,41.7592969 40.9091016,42.9866016 C39.8182031,44.0775 38.3182031,44.7592969 36.6817969,45.0321094 C36,45.0319922 35.4544922,45.5773828 35.4544922,46.2591797 Z" id="Path" fill="#F6B545"></path>
            <path d="M35.4544922,27.4410938 L35.4544922,27.4410938 C30.1362891,27.3046875 25.9089844,31.6683984 25.9089844,36.8501953 L26.0453906,36.8501953 C26.7271875,36.8501953 27.2726953,36.3046875 27.4089844,35.6228906 C27.6816797,33.7137891 28.6362891,31.9410938 29.9998828,30.7137891 C31.0907812,29.6228906 32.5907812,28.9410938 34.2271875,28.6682813 C34.9091016,28.6682813 35.4544922,28.1228906 35.4544922,27.4410938 Z" id="Path" fill="#FFE27A"></path>
            <path d="M29.5908984,37.8046875 C29.5908984,33.9864844 32.5908984,30.9864844 36.4091016,30.9864844 C38.0455078,30.9864844 39.5455078,31.5319922 40.7726953,32.6228906 C39.4091016,30.9864844 37.6362891,30.0319922 35.4544922,30.0319922 C31.6362891,30.0319922 28.6362891,33.0319922 28.6362891,36.8501953 C28.6362891,39.0319922 29.5907812,40.8046875 31.0907812,42.0319922 C30.1364062,40.9410937 29.5908984,39.4410937 29.5908984,37.8046875 Z" id="Path" fill="#F19920"></path>
            <path d="M39.5455078,41.0773828 C39.4091016,41.0773828 39.2728125,41.0773828 39.1364063,40.9409766 C38.8637109,40.6682812 38.8637109,40.2591797 39.1364063,39.9864844 C39.9546094,39.1682812 40.3637109,37.9409766 40.3637109,36.8500781 C40.3637109,36.4409766 40.6364063,36.1682812 41.0455078,36.1682812 C41.4546094,36.1682812 41.7273047,36.4409766 41.7273047,36.8500781 C41.7273047,38.3500781 41.1817969,39.8500781 40.2273047,40.9409766 C39.9544922,41.0773828 39.6817969,41.0773828 39.5455078,41.0773828 Z" id="Path" fill="#FFCB5B"></path>
            <path d="M35.4544922,40.9410938 C34.6362891,40.9410938 34.0908984,40.3955859 34.0908984,39.5775 L34.0908984,34.1230078 C34.0908984,33.3048047 34.6364062,32.7594141 35.4544922,32.7594141 C36.2726953,32.7594141 36.818086,33.3049219 36.818086,34.1230078 L36.818086,39.5775 C36.8182031,40.3955859 36.2726953,40.9410938 35.4544922,40.9410938 Z" id="Path" fill="#F19920"></path>
            <g id="Group" transform="translate(32.695312, 34.101562)" fill="#F6B545">
                <path d="M9.03199219,0.157617188 C9.3046875,0.975820313 9.5775,1.79402344 9.5775,2.74851563 C9.5775,6.56671875 6.5775,9.56671875 2.75929687,9.56671875 C2.35019531,9.56671875 1.80480469,9.56671875 1.39570312,9.4303125 L1.39570312,9.56671875 C1.39570312,10.5212109 1.53210937,11.3394141 1.80480469,12.2940234 C2.0775,12.2940234 2.48660156,12.2940234 2.75929687,12.2940234 C8.0775,12.2940234 12.3048047,8.06671875 12.3048047,2.74851563 C12.3048047,1.79402344 12.1683984,0.975820313 11.8957031,0.0212109375 C11.6230078,0.0212109375 11.2139062,0.0212109375 10.9412109,0.0212109375 C10.2591797,0.0212109375 9.71378906,0.0212109375 9.03199219,0.157617188 Z" id="Path"></path>
                <circle id="Oval" cx="9.57738281" cy="10.9304297" r="9.54550781"></circle>
            </g>
            <path d="M42.2726953,35.4864844 C36.9544922,35.4864844 32.7271875,39.7137891 32.7271875,45.0319922 C32.7271875,50.3501953 36.9544922,54.5775 42.2726953,54.5775 C47.5908984,54.5775 51.8182031,50.3501953 51.8182031,45.0319922 C51.8182031,39.7137891 47.5908984,35.4864844 42.2726953,35.4864844 Z M42.2726953,51.8501953 C38.4544922,51.8501953 35.4544922,48.8501953 35.4544922,45.0319922 C35.4544922,41.2137891 38.4544922,38.2137891 42.2726953,38.2137891 C46.0908984,38.2137891 49.0908984,41.2137891 49.0908984,45.0319922 C49.0908984,48.8501953 46.0908984,51.8501953 42.2726953,51.8501953 Z" id="Shape" fill="#FFCB5B"></path>
            <path d="M42.2726953,54.4410938 L42.2726953,54.4410938 C47.5908984,54.5775 51.8182031,50.2137891 51.8182031,45.0319922 L51.6817969,45.0319922 C51,45.0319922 50.4544922,45.5775 50.3182031,46.2592969 C50.0455078,48.1683984 49.0908984,49.9410938 47.7273047,51.1683984 C46.6364062,52.2592969 45.1364063,52.9410938 43.5,53.2139063 C42.8182031,53.2137891 42.2726953,53.7591797 42.2726953,54.4410938 Z" id="Path" fill="#F6B545"></path>
            <path d="M42.2726953,35.6228906 L42.2726953,35.6228906 C36.9544922,35.4864844 32.7271875,39.8501953 32.7271875,45.0319922 L32.8635938,45.0319922 C33.5453906,45.0319922 34.0908984,44.4864844 34.2271875,43.8046875 C34.4998828,41.8955859 35.4544922,40.1228906 36.8180859,38.8955859 C37.9089844,37.8046875 39.4089844,37.1228906 41.0453906,36.8500781 C41.7273047,36.8501953 42.2726953,36.3046875 42.2726953,35.6228906 Z" id="Path" fill="#FFE27A"></path>
            <path d="M36.4091016,45.9864844 C36.4091016,42.1682812 39.4091016,39.1682812 43.2273047,39.1682812 C44.8637109,39.1682812 46.3637109,39.7137891 47.5908984,40.8046875 C46.2273047,39.1682812 44.4544922,38.2137891 42.2726953,38.2137891 C38.4544922,38.2137891 35.4544922,41.2137891 35.4544922,45.0319922 C35.4544922,47.2137891 36.4089844,48.9864844 37.9089844,50.2137891 C36.9544922,49.1228906 36.4091016,47.6228906 36.4091016,45.9864844 Z" id="Path" fill="#F19920"></path>
            <path d="M46.3635938,49.2591797 C46.2271875,49.2591797 46.0908984,49.2591797 45.9544922,49.1227734 C45.6817969,48.8500781 45.6817969,48.4409766 45.9544922,48.1682813 C46.7726953,47.3500781 47.1817969,46.1227734 47.1817969,45.031875 C47.1817969,44.6227734 47.4544922,44.3500781 47.8635938,44.3500781 C48.2726953,44.3500781 48.5453906,44.6227734 48.5453906,45.031875 C48.5453906,46.531875 47.9998828,48.031875 47.0453906,49.1227734 C46.7726953,49.2591797 46.5,49.2591797 46.3635938,49.2591797 Z" id="Path" fill="#FFCB5B"></path>
            <path d="M42.2726953,49.1228906 C41.4544922,49.1228906 40.9091016,48.5773828 40.9091016,47.7592969 L40.9091016,42.3046875 C40.9091016,41.4864844 41.4546094,40.9410938 42.2726953,40.9410938 C43.0908984,40.9410938 43.6362891,41.4866016 43.6362891,42.3046875 L43.6362891,47.7591797 C43.6364063,48.5773828 43.0908984,49.1228906 42.2726953,49.1228906 Z" id="Path" fill="#F19920"></path>
        </g>
    </g>
</svg>