<?xml version="1.0" encoding="UTF-8"?>
<svg width="169px" height="38px" viewBox="0 0 169 38" version="1.1" xmlns="http://www.w3.org/2000/svg" xmlns:xlink="http://www.w3.org/1999/xlink">
    <!-- Generator: Sketch 64 (93537) - https://sketch.com -->
    <title>Group 27</title>
    <desc>Created with Sketch.</desc>
    <g id="Page-1" stroke="none" stroke-width="1" fill="none" fill-rule="evenodd">
        <g id="Group-27">
            <g id="Group-25" transform="translate(48.000000, 4.000000)" fill="#333333" fill-rule="nonzero">
                <path d="M1.671525,12.718125 C1.98645,12.718125 2.2408125,12.6121406 2.4346125,12.4001719 C2.6284125,12.1882031 2.7253125,11.9247562 2.7253125,11.6098312 L2.7253125,11.6098312 L2.72525,8.176125 L5.886675,8.1759375 C6.43779375,8.1759375 6.95877319,8.0345146 7.44961333,7.7516688 L7.65812813,7.62179062 C8.20924688,7.25235937 8.65438125,6.758775 8.99353125,6.1410375 C9.33268125,5.5233 9.50225625,4.83894375 9.50225625,4.08796875 C9.50225625,3.32488125 9.33268125,2.63446875 8.99353125,2.01673125 C8.65438125,1.39899375 8.20924688,0.9084375 7.65812813,0.5450625 C7.10700938,0.1816875 6.516525,0 5.886675,0 L5.886675,0 L1.7442,0 C1.429275,0 1.16582813,0.105984375 0.953859375,0.317953125 C0.741890625,0.529921875 0.63590625,0.79336875 0.63590625,1.10829375 L0.63590625,1.10829375 L0.63590625,11.6098312 C0.63590625,11.9247562 0.73280625,12.1882031 0.92660625,12.4001719 C1.12040625,12.6121406 1.3687125,12.718125 1.671525,12.718125 Z M2.72525,2.090125 L5.886675,2.08940625 C6.1168125,2.08940625 6.34089375,2.18327812 6.55891875,2.37102188 C6.77694375,2.55876562 6.95863125,2.80404375 7.10398125,3.10685625 C7.24933125,3.40966875 7.32200625,3.73670625 7.32200625,4.08796875 C7.32200625,4.42711875 7.24933125,4.75112812 7.10398125,5.05999687 C6.95863125,5.36886562 6.77694375,5.6202 6.55891875,5.814 C6.34089375,6.0078 6.1168125,6.1047 5.886675,6.1047 L5.886675,6.1047 L2.72525,6.105125 L2.72525,2.090125 Z M15.7159688,12.8998125 C16.3215938,12.8998125 16.90905,12.7998844 17.4783375,12.6000281 C18.047625,12.4001719 18.4897313,12.1670062 18.8046563,11.9005312 C19.1438063,11.6340562 19.3133813,11.3373 19.3133813,11.0102625 C19.3133813,10.7680125 19.2255656,10.5560437 19.0499344,10.3743562 C18.8743031,10.1926687 18.65325,10.101825 18.386775,10.101825 C18.192975,10.101825 17.9870625,10.1563312 17.7690375,10.2653437 C17.6358,10.3380187 17.4874219,10.4258344 17.3239031,10.5287906 C17.1603844,10.6317469 16.9453875,10.7195625 16.6789125,10.7922375 C16.4124375,10.8649125 16.0551188,10.90125 15.6069563,10.90125 C15.1224563,10.90125 14.6652094,10.7831531 14.2352156,10.5469594 C13.8052219,10.3107656 13.4539594,9.96555938 13.1814281,9.51134063 C13.0451625,9.28423125 12.9429633,9.03213984 12.8748305,8.75506641 L12.84425,8.612125 L18.8409938,8.6119875 C19.0832438,8.6119875 19.3002594,8.54890156 19.4920406,8.42272969 L19.6040813,8.33945625 C19.8221063,8.15776875 19.937175,7.921575 19.9492875,7.630875 C19.9492875,6.9768 19.8251344,6.3590625 19.5768281,5.7776625 C19.3285219,5.1962625 18.9924,4.68450937 18.5684625,4.24240312 C18.144525,3.80029687 17.6569969,3.4520625 17.1058781,3.1977 C16.5547594,2.9433375 15.9703313,2.81615625 15.3525938,2.81615625 C14.5531688,2.81615625 13.7961375,3.02206875 13.0815,3.43389375 C12.3668625,3.84571875 11.7884906,4.43620312 11.3463844,5.20534688 C10.9042781,5.97449062 10.683225,6.904125 10.683225,7.99425 C10.683225,8.9269125 10.8861094,9.762675 11.2918781,10.5015375 C11.6976469,11.2404 12.2790469,11.8248281 13.0360781,12.2548219 C13.7931094,12.6848156 14.6864063,12.8998125 15.7159688,12.8998125 Z M17.62325,6.795125 L12.86325,6.795125 L12.8745987,6.7346736 C12.8881944,6.67089758 12.9031496,6.6092227 12.9194644,6.54964898 L12.9724875,6.37723125 C13.105725,5.98963125 13.2874125,5.6807625 13.51755,5.450625 C13.7476875,5.2204875 14.0202188,5.05696875 14.3351438,4.96006875 C14.6500688,4.86316875 14.9892188,4.81471875 15.3525938,4.81471875 C15.7280813,4.81471875 16.0823719,4.89647812 16.4154656,5.05999687 C16.7485594,5.22351562 17.0271469,5.44456875 17.2512281,5.72315625 C17.4753094,6.00174375 17.5994625,6.31666875 17.6236875,6.66793125 L17.6236875,6.66793125 L17.62325,6.795125 Z M22.8562875,12.718125 C23.1712125,12.718125 23.4316313,12.6121406 23.6375438,12.4001719 C23.8434563,12.1882031 23.9464125,11.9247562 23.9464125,11.6098312 L23.9464125,11.6098312 L23.9464125,7.3038375 C23.9464125,6.8677875 24.0039469,6.48927187 24.1190156,6.16829062 C24.2340844,5.84730937 24.3854906,5.57780625 24.5732344,5.35978125 C24.7609781,5.14175625 24.9668906,4.98126562 25.1909719,4.87830937 C25.4150531,4.77535312 25.6361063,4.723875 25.8541313,4.723875 C26.0963813,4.723875 26.3113781,4.76626875 26.4991219,4.85105625 C26.6868656,4.93584375 26.8958063,4.9782375 27.1259438,4.9782375 C27.3681938,4.9782375 27.592275,4.89042187 27.7981875,4.71479062 C28.0041,4.53915937 28.1070563,4.2514875 28.1070563,3.851775 C28.1070563,3.5731875 27.9829031,3.3309375 27.7345969,3.125025 C27.4862906,2.9191125 27.18045,2.81615625 26.817075,2.81615625 C26.5142625,2.81615625 26.21145,2.85249375 25.9086375,2.92516875 C25.605825,2.99784375 25.3211813,3.10988437 25.0547063,3.26129062 C24.7882313,3.41269688 24.5490094,3.60044063 24.3370406,3.82452187 C24.2310563,3.9365625 24.1349133,4.05693047 24.0486117,4.18562578 L23.94625,4.352125 L23.9464125,4.1061375 C23.9464125,3.83620179 23.8707712,3.60408673 23.7194885,3.40979235 L23.6375438,3.31579688 C23.4316313,3.10382812 23.1712125,2.99784375 22.8562875,2.99784375 C22.5413625,2.99784375 22.2809438,3.10382812 22.0750313,3.31579688 C21.8691188,3.52776562 21.7661625,3.7912125 21.7661625,4.1061375 L21.7661625,4.1061375 L21.7661625,11.6098312 C21.7661625,11.9247562 21.8691188,12.1882031 22.0750313,12.4001719 C22.2809438,12.6121406 22.5413625,12.718125 22.8562875,12.718125 Z M33.3941625,12.8998125 C34.036125,12.8998125 34.6326656,12.8241094 35.1837844,12.6727031 C35.7349031,12.5212969 36.1800375,12.3214406 36.5191875,12.0731344 C36.8583375,11.8248281 37.0279125,11.5492687 37.0279125,11.2464562 C37.0279125,10.9557562 36.943125,10.7104781 36.77355,10.5106219 C36.603975,10.3107656 36.361725,10.2108375 36.0468,10.2108375 C35.780325,10.2108375 35.5804688,10.2653437 35.4472313,10.3743562 C35.3139938,10.4833687 35.1625875,10.586325 34.9930125,10.683225 C34.8476625,10.7559 34.665975,10.8104062 34.44795,10.8467438 C34.229925,10.8830812 33.9695063,10.90125 33.6666938,10.90125 C33.1216313,10.90125 32.6401594,10.7680125 32.2222781,10.5015375 C31.8043969,10.2350625 31.4773594,9.87471562 31.2411656,9.42049688 C31.0049719,8.96627813 30.886875,8.44846875 30.886875,7.86706875 C30.886875,7.27355625 31.0019438,6.74969062 31.2320813,6.29547187 C31.4622188,5.84125312 31.7922844,5.48090625 32.2222781,5.21443125 C32.6522719,4.94795625 33.1761375,4.81471875 33.793875,4.81471875 C33.915,4.81471875 34.0997156,4.83591562 34.3480219,4.87830937 C34.5963281,4.92070312 34.7810438,4.9782375 34.9021688,5.0509125 C35.0354063,5.1235875 35.150475,5.20231875 35.247375,5.28710625 C35.344275,5.37189375 35.4563156,5.44154062 35.5834969,5.49604687 C35.7106781,5.55055312 35.8711688,5.57780625 36.0649688,5.57780625 C36.3435563,5.57780625 36.555525,5.47182187 36.700875,5.25985312 C36.846225,5.04788437 36.9189,4.820775 36.9189,4.578525 C36.9189,4.21515 36.7765781,3.90325312 36.4919344,3.64283437 C36.2072906,3.38241562 35.8075781,3.17953125 35.2927969,3.03418125 C34.7780156,2.88883125 34.1754188,2.81615625 33.4850063,2.81615625 C32.5523438,2.81615625 31.7256656,3.03115312 31.0049719,3.46114687 C30.2842781,3.89114062 29.7210469,4.48465312 29.3152781,5.24168437 C28.9095094,5.99871562 28.706625,6.87384375 28.706625,7.86706875 C28.706625,8.81184375 28.8973969,9.665775 29.2789406,10.4288625 C29.6604844,11.19195 30.2025188,11.7945469 30.9050438,12.2366531 C31.6075688,12.6787594 32.437275,12.8998125 33.3941625,12.8998125 Z M43.096275,12.8998125 C43.7019,12.8998125 44.2893563,12.7998844 44.8586438,12.6000281 C45.4279313,12.4001719 45.8700375,12.1670062 46.1849625,11.9005312 C46.5241125,11.6340562 46.6936875,11.3373 46.6936875,11.0102625 C46.6936875,10.7680125 46.6058719,10.5560437 46.4302406,10.3743562 C46.2546094,10.1926687 46.0335563,10.101825 45.7670813,10.101825 C45.5732813,10.101825 45.3673688,10.1563312 45.1493438,10.2653437 C45.0161063,10.3380187 44.8677281,10.4258344 44.7042094,10.5287906 C44.5406906,10.6317469 44.3256938,10.7195625 44.0592188,10.7922375 C43.7927438,10.8649125 43.435425,10.90125 42.9872625,10.90125 C42.5027625,10.90125 42.0455156,10.7831531 41.6155219,10.5469594 C41.1855281,10.3107656 40.8342656,9.96555938 40.5617344,9.51134063 C40.4254688,9.28423125 40.3232695,9.03213984 40.2551367,8.75506641 L40.22425,8.612125 L46.2213,8.6119875 C46.46355,8.6119875 46.6805656,8.54890156 46.8723469,8.42272969 L46.9843875,8.33945625 C47.2024125,8.15776875 47.3174813,7.921575 47.3295938,7.630875 C47.3295938,6.9768 47.2054406,6.3590625 46.9571344,5.7776625 C46.7088281,5.1962625 46.3727063,4.68450937 45.9487688,4.24240312 C45.5248313,3.80029687 45.0373031,3.4520625 44.4861844,3.1977 C43.9350656,2.9433375 43.3506375,2.81615625 42.7329,2.81615625 C41.933475,2.81615625 41.1764438,3.02206875 40.4618063,3.43389375 C39.7471688,3.84571875 39.1687969,4.43620312 38.7266906,5.20534688 C38.2845844,5.97449062 38.0635313,6.904125 38.0635313,7.99425 C38.0635313,8.9269125 38.2664156,9.762675 38.6721844,10.5015375 C39.0779531,11.2404 39.6593531,11.8248281 40.4163844,12.2548219 C41.1734156,12.6848156 42.0667125,12.8998125 43.096275,12.8998125 Z M45.00325,6.795125 L40.24325,6.795125 L40.254905,6.7346736 C40.2685006,6.67089758 40.2834559,6.6092227 40.2997707,6.54964898 L40.3527938,6.37723125 C40.4860313,5.98963125 40.6677188,5.6807625 40.8978563,5.450625 C41.1279938,5.2204875 41.400525,5.05696875 41.71545,4.96006875 C42.030375,4.86316875 42.369525,4.81471875 42.7329,4.81471875 C43.1083875,4.81471875 43.4626781,4.89647812 43.7957719,5.05999687 C44.1288656,5.22351562 44.4074531,5.44456875 44.6315344,5.72315625 C44.8556156,6.00174375 44.9797688,6.31666875 45.0039938,6.66793125 L45.0039938,6.66793125 L45.00325,6.795125 Z M56.5229813,12.718125 C56.8379063,12.718125 57.098325,12.6121406 57.3042375,12.4001719 C57.51015,12.1882031 57.6131063,11.9247562 57.6131063,11.6098312 L57.6131063,11.6098312 L57.6131063,6.95863125 C57.6131063,6.19554375 57.5252906,5.50210312 57.3496594,4.87830937 C57.1740281,4.25451562 56.8530469,3.754875 56.3867156,3.3793875 C55.9203844,3.0039 55.2390563,2.81615625 54.3427313,2.81615625 C53.9309063,2.81615625 53.5493625,2.87974687 53.1981,3.00692812 C52.8468375,3.13410937 52.5319125,3.30065625 52.253325,3.50656875 C51.9747375,3.71248125 51.7324875,3.93353437 51.526575,4.16972812 C51.4750969,4.22877656 51.4266469,4.28687871 51.381225,4.34403457 L51.32625,4.416125 L51.3267188,4.1061375 C51.3267188,3.83620179 51.2510774,3.60408673 51.0997948,3.40979235 L51.01785,3.31579688 C50.8119375,3.10382812 50.5515188,2.99784375 50.2365938,2.99784375 C49.9216688,2.99784375 49.66125,3.10382812 49.4553375,3.31579688 C49.249425,3.52776562 49.1464688,3.7912125 49.1464688,4.1061375 L49.1464688,4.1061375 L49.1464688,11.6098312 C49.1464688,11.9247562 49.249425,12.1882031 49.4553375,12.4001719 C49.66125,12.6121406 49.9216688,12.718125 50.2365938,12.718125 C50.5515188,12.718125 50.8119375,12.6121406 51.01785,12.4001719 C51.2237625,12.1882031 51.3267188,11.9247562 51.3267188,11.6098312 L51.3267188,11.6098312 L51.3267188,6.95863125 C51.3267188,6.55891875 51.4145344,6.19857187 51.5901656,5.87759062 C51.7657969,5.55660937 52.0201594,5.29921875 52.3532531,5.10541875 C52.6863469,4.91161875 53.0951438,4.81471875 53.5796438,4.81471875 C54.0762563,4.81471875 54.4578,4.91161875 54.724275,5.10541875 C54.99075,5.29921875 55.1754656,5.55660937 55.2784219,5.87759062 C55.3813781,6.19857187 55.4328563,6.55891875 55.4328563,6.95863125 L55.4328563,6.95863125 L55.4328563,11.6098312 C55.4328563,11.9247562 55.5358125,12.1882031 55.741725,12.4001719 C55.9476375,12.6121406 56.2080563,12.718125 56.5229813,12.718125 Z M63.590625,12.718125 C64.0145625,12.718125 64.4112469,12.6091125 64.7806781,12.3910875 C65.1501094,12.1730625 65.334825,11.894475 65.334825,11.555325 C65.334825,11.2767375 65.2651781,11.0587125 65.1258844,10.90125 C64.9865906,10.7437875 64.8321563,10.6650562 64.6625813,10.6650562 C64.5051188,10.6650562 64.365825,10.6923094 64.2447,10.7468156 C64.123575,10.8013219 63.9903375,10.828575 63.8449875,10.828575 C63.71175,10.828575 63.5875969,10.80435 63.4725281,10.7559 C63.3574594,10.70745 63.2666156,10.6287187 63.1999969,10.5197062 C63.1333781,10.4106937 63.1000688,10.2714 63.1000688,10.101825 L63.1000688,10.101825 L63.09925,5.178125 L64.39005,5.17809375 C64.6323,5.17809375 64.8409042,5.11290495 65.0158625,4.98252734 L65.1168,4.89647812 C65.3106,4.70873437 65.4075,4.47556875 65.4075,4.19698125 C65.4075,3.90628125 65.3106,3.66403125 65.1168,3.47023125 C64.923,3.27643125 64.68075,3.17953125 64.39005,3.17953125 L64.39005,3.17953125 L63.09925,3.180125 L63.1000688,2.01673125 C63.1000688,1.75429375 63.0306742,1.52760495 62.8918852,1.33666484 L62.8002844,1.22639062 C62.6004281,1.01442187 62.3430375,0.9084375 62.0281125,0.9084375 C61.7131875,0.9084375 61.4497406,1.01442187 61.2377719,1.22639062 C61.0258031,1.43835937 60.9198188,1.70180625 60.9198188,2.01673125 L60.9198188,2.01673125 L60.91925,3.180125 L60.0840563,3.17953125 C59.8418063,3.17953125 59.6332021,3.24472005 59.4582438,3.37509766 L59.3573063,3.46114687 C59.1635063,3.64889062 59.0666063,3.88205625 59.0666063,4.16064375 C59.0666063,4.45134375 59.1635063,4.69359375 59.3573063,4.88739375 C59.5511063,5.08119375 59.7933563,5.17809375 60.0840563,5.17809375 L60.0840563,5.17809375 L60.91925,5.178125 L60.9198188,10.1926687 C60.9198188,10.7119922 60.989371,11.1339425 61.1284755,11.4585196 L61.19235,11.5916625 C61.3740375,11.9308125 61.6011469,12.1821469 61.8736781,12.3456656 C62.1462094,12.5091844 62.4369094,12.6121406 62.7457781,12.6545344 C63.0546469,12.6969281 63.3362625,12.718125 63.590625,12.718125 Z M71.3305125,12.8998125 C71.7907875,12.8998125 72.2177531,12.8241094 72.6114094,12.6727031 C73.0050656,12.5212969 73.3472438,12.3365812 73.6379438,12.1185562 C73.8123638,11.9877412 73.9649813,11.8558361 74.0957963,11.7228409 L74.18325,11.629125 L74.1893097,11.7416474 C74.2103212,11.9560881 74.2838614,12.1442644 74.4099302,12.3061764 L74.491875,12.4001719 C74.6977875,12.6121406 74.9582063,12.718125 75.2731313,12.718125 C75.5880563,12.718125 75.848475,12.6121406 76.0543875,12.4001719 C76.2603,12.1882031 76.3632563,11.9247562 76.3632563,11.6098312 L76.3632563,11.6098312 L76.3632563,3.92445 C76.3632563,3.5974125 76.2603,3.3309375 76.0543875,3.125025 C75.848475,2.9191125 75.5880563,2.81615625 75.2731313,2.81615625 C74.9582063,2.81615625 74.6977875,2.92214062 74.491875,3.13410937 C74.2859625,3.34607812 74.1830063,3.609525 74.1830063,3.92445 L74.1830063,3.92445 L74.18225,3.948125 C74.1275212,3.89648867 74.0709656,3.84632437 74.0125834,3.79763212 L73.8287156,3.65191875 C73.5077344,3.40966875 73.1292188,3.2098125 72.6931688,3.05235 C72.2571188,2.8948875 71.778675,2.81615625 71.2578375,2.81615625 C70.4463,2.81615625 69.7074375,3.03115312 69.04125,3.46114687 C68.3750625,3.89114062 67.8451406,4.48465312 67.4514844,5.24168437 C67.0578281,5.99871562 66.861,6.87384375 66.861,7.86706875 C66.861,8.84818125 67.0578281,9.71725312 67.4514844,10.4742844 C67.8451406,11.2313156 68.3811188,11.8248281 69.0594188,12.2548219 C69.7377188,12.6848156 70.49475,12.8998125 71.3305125,12.8998125 Z M71.6030438,10.90125 C71.0822063,10.90125 70.6219313,10.7680125 70.2222188,10.5015375 C69.8225063,10.2350625 69.5106094,9.8716875 69.2865281,9.4114125 C69.0624469,8.9511375 68.9504063,8.43635625 68.9504063,7.86706875 C68.9504063,7.28566875 69.0624469,6.76483125 69.2865281,6.30455625 C69.5106094,5.84428125 69.8225063,5.48090625 70.2222188,5.21443125 C70.6219313,4.94795625 71.0822063,4.81471875 71.6030438,4.81471875 C72.1359938,4.81471875 72.602325,4.94795625 73.0020375,5.21443125 C73.40175,5.48090625 73.7136469,5.84428125 73.9377281,6.30455625 C74.1618094,6.76483125 74.27385,7.28566875 74.27385,7.86706875 C74.27385,8.43635625 74.1618094,8.9511375 73.9377281,9.4114125 C73.7136469,9.8716875 73.40175,10.2350625 73.0020375,10.5015375 C72.602325,10.7680125 72.1359938,10.90125 71.6030438,10.90125 Z M83.0130188,16.351875 C83.8608938,16.351875 84.6542625,16.2095531 85.393125,15.9249094 C86.1319875,15.6402656 86.7285281,15.1799906 87.1827469,14.5440844 C87.6369656,13.9081781 87.864075,13.0633312 87.864075,12.0095437 L87.864075,12.0095437 L87.864075,3.92445 C87.864075,3.5974125 87.7611188,3.3309375 87.5552063,3.125025 C87.3492938,2.9191125 87.088875,2.81615625 86.77395,2.81615625 C86.459025,2.81615625 86.1986063,2.92214062 85.9926938,3.13410937 C85.7867813,3.34607812 85.683825,3.609525 85.683825,3.92445 L85.683825,3.92445 L85.68325,4.131125 L85.6500311,4.09123912 C85.5584606,3.99288562 85.4562311,3.89501662 85.3433426,3.79763212 L85.1660156,3.65191875 C84.8571469,3.40966875 84.4907438,3.2098125 84.0668063,3.05235 C83.6428688,2.8948875 83.1765375,2.81615625 82.6678125,2.81615625 C81.83205,2.81615625 81.0750188,3.03115312 80.3967188,3.46114687 C79.7184188,3.89114062 79.1794125,4.48465312 78.7797,5.24168437 C78.3799875,5.99871562 78.1801313,6.87384375 78.1801313,7.86706875 C78.1801313,8.84818125 78.3799875,9.71725312 78.7797,10.4742844 C79.1794125,11.2313156 79.724475,11.8248281 80.4148875,12.2548219 C81.1053,12.6848156 81.8805,12.8998125 82.7404875,12.8998125 C83.1765375,12.8998125 83.5883625,12.8241094 83.9759625,12.6727031 C84.3635625,12.5212969 84.6996844,12.3365812 84.9843281,12.1185562 C85.2689719,11.9005313 85.4930531,11.6794781 85.6565719,11.4553969 L85.6565719,11.4553969 L85.68325,11.416125 L85.683825,12.3002437 C85.683825,12.87801 85.5072248,13.3429483 85.1540243,13.6950587 L85.02975,13.80825 C84.5937,14.171625 83.9214563,14.3533125 83.0130188,14.3533125 C82.7586563,14.3533125 82.4649281,14.3078906 82.1318344,14.2170469 C81.7987406,14.1262031 81.4929,14.026275 81.2143125,13.9172625 C80.935725,13.80825 80.7358688,13.735575 80.6147438,13.6992375 C80.3482688,13.6023375 80.0939063,13.6174781 79.8516563,13.7446594 C79.6094063,13.8718406 79.433775,14.1110625 79.3247625,14.462325 C79.239975,14.7288 79.2672281,14.9801344 79.4065219,15.2163281 C79.5458156,15.4525219 79.79715,15.64935 80.160525,15.8068125 C80.3422125,15.8794875 80.6086875,15.9582188 80.95995,16.0430062 C81.3112125,16.1277937 81.6806438,16.2004687 82.0682438,16.2610313 C82.4558438,16.3215938 82.7707688,16.351875 83.0130188,16.351875 Z M83.0130188,10.90125 C82.4679563,10.90125 81.9895125,10.7680125 81.5776875,10.5015375 C81.1658625,10.2350625 80.8448813,9.8716875 80.6147438,9.4114125 C80.3846063,8.9511375 80.2695375,8.43635625 80.2695375,7.86706875 C80.2695375,7.28566875 80.3846063,6.76483125 80.6147438,6.30455625 C80.8448813,5.84428125 81.1658625,5.48090625 81.5776875,5.21443125 C81.9895125,4.94795625 82.4679563,4.81471875 83.0130188,4.81471875 C83.5701938,4.81471875 84.0546938,4.94795625 84.4665188,5.21443125 C84.8783438,5.48090625 85.199325,5.84428125 85.4294625,6.30455625 C85.6596,6.76483125 85.7746688,7.28566875 85.7746688,7.86706875 C85.7746688,8.43635625 85.6596,8.9511375 85.4294625,9.4114125 C85.199325,9.8716875 84.8783438,10.2350625 84.4665188,10.5015375 C84.0546938,10.7680125 83.5701938,10.90125 83.0130188,10.90125 Z M94.3503188,12.8998125 C94.9559438,12.8998125 95.5434,12.7998844 96.1126875,12.6000281 C96.681975,12.4001719 97.1240813,12.1670062 97.4390063,11.9005312 C97.7781563,11.6340562 97.9477313,11.3373 97.9477313,11.0102625 C97.9477313,10.7680125 97.8599156,10.5560437 97.6842844,10.3743562 C97.5086531,10.1926687 97.2876,10.101825 97.021125,10.101825 C96.827325,10.101825 96.6214125,10.1563312 96.4033875,10.2653437 C96.27015,10.3380187 96.1217719,10.4258344 95.9582531,10.5287906 C95.7947344,10.6317469 95.5797375,10.7195625 95.3132625,10.7922375 C95.0467875,10.8649125 94.6894688,10.90125 94.2413063,10.90125 C93.7568063,10.90125 93.2995594,10.7831531 92.8695656,10.5469594 C92.4395719,10.3107656 92.0883094,9.96555938 91.8157781,9.51134063 C91.6795125,9.28423125 91.5773133,9.03213984 91.5091805,8.75506641 L91.47825,8.612125 L97.4753438,8.6119875 C97.7175938,8.6119875 97.9346094,8.54890156 98.1263906,8.42272969 L98.2384313,8.33945625 C98.4564563,8.15776875 98.571525,7.921575 98.5836375,7.630875 C98.5836375,6.9768 98.4594844,6.3590625 98.2111781,5.7776625 C97.9628719,5.1962625 97.62675,4.68450937 97.2028125,4.24240312 C96.778875,3.80029687 96.2913469,3.4520625 95.7402281,3.1977 C95.1891094,2.9433375 94.6046813,2.81615625 93.9869438,2.81615625 C93.1875188,2.81615625 92.4304875,3.02206875 91.71585,3.43389375 C91.0012125,3.84571875 90.4228406,4.43620312 89.9807344,5.20534688 C89.5386281,5.97449062 89.317575,6.904125 89.317575,7.99425 C89.317575,8.9269125 89.5204594,9.762675 89.9262281,10.5015375 C90.3319969,11.2404 90.9133969,11.8248281 91.6704281,12.2548219 C92.4274594,12.6848156 93.3207563,12.8998125 94.3503188,12.8998125 Z M96.25725,6.795125 L91.49725,6.795125 L91.5089487,6.7346736 C91.5225444,6.67089758 91.5374996,6.6092227 91.5538144,6.54964898 L91.6068375,6.37723125 C91.740075,5.98963125 91.9217625,5.6807625 92.1519,5.450625 C92.3820375,5.2204875 92.6545688,5.05696875 92.9694938,4.96006875 C93.2844188,4.86316875 93.6235688,4.81471875 93.9869438,4.81471875 C94.3624313,4.81471875 94.7167219,4.89647812 95.0498156,5.05999687 C95.3829094,5.22351562 95.6614969,5.44456875 95.8855781,5.72315625 C96.1096594,6.00174375 96.2338125,6.31666875 96.2580375,6.66793125 L96.2580375,6.66793125 L96.25725,6.795125 Z" id="Percentage"></path>
                <path d="M6.54075,30.3446875 C6.8920125,30.3446875 7.23721875,30.3174344 7.57636875,30.2629281 C7.91551875,30.2084219 8.25164063,30.1296906 8.58473437,30.0267344 C8.91782813,29.9237781 9.2418375,29.7935687 9.5567625,29.6361062 C9.859575,29.4907562 10.0442906,29.2575906 10.1109094,28.9366094 C10.1775281,28.6156281 10.0897125,28.3037312 9.8474625,28.0009187 C9.6778875,27.7828937 9.46894688,27.6557125 9.22064063,27.619375 C8.97233437,27.5830375 8.721,27.6254312 8.4666375,27.7465562 C8.163825,27.9040187 7.8489,28.0130313 7.5218625,28.0735938 C7.194825,28.1341562 6.8677875,28.1644375 6.54075,28.1644375 C5.9472375,28.1644375 5.39611875,28.0766219 4.88739375,27.9009906 C4.37866875,27.7253594 3.9365625,27.4558562 3.561075,27.0924812 C3.1855875,26.7291062 2.89185938,26.2748875 2.67989062,25.729825 C2.46792187,25.1847625 2.3619375,24.5428 2.3619375,23.8039375 C2.3619375,23.1740875 2.45580937,22.5987437 2.64355312,22.0779062 C2.83129687,21.5570687 3.10685625,21.1058781 3.47023125,20.7243344 C3.83360625,20.3427906 4.27268437,20.0490625 4.78746562,19.84315 C5.30224687,19.6372375 5.886675,19.5342812 6.54075,19.5342812 C6.8920125,19.5342812 7.22813438,19.5706187 7.54911562,19.6432938 C7.87009688,19.7159687 8.1759375,19.818925 8.4666375,19.9521625 C8.721,20.0732875 8.97233437,20.1217375 9.22064063,20.0975125 C9.46894688,20.0732875 9.67183125,19.9521625 9.82929375,19.7341375 C10.0594313,19.45555 10.1472469,19.1466812 10.0927406,18.8075312 C10.0382344,18.4683812 9.85351875,18.220075 9.53859375,18.0626125 C9.09043125,17.832475 8.6119875,17.6568437 8.1032625,17.5357188 C7.5945375,17.4145938 7.0737,17.3540312 6.54075,17.3540312 C5.595975,17.3540312 4.723875,17.5145219 3.92445,17.8355031 C3.125025,18.1564844 2.43158438,18.6046469 1.84412813,19.1799906 C1.25667188,19.7553344 0.802453125,20.4366625 0.481471875,21.223975 C0.160490625,22.0112875 1.42108547e-14,22.871275 1.42108547e-14,23.8039375 C1.42108547e-14,24.88195 0.17563125,25.8297531 0.52689375,26.6473469 C0.87815625,27.4649406 1.35962813,28.1462687 1.97130938,28.6913312 C2.58299063,29.2363937 3.27945938,29.6482187 4.06071563,29.9268062 C4.84197188,30.2053937 5.66865,30.3446875 6.54075,30.3446875 Z M15.770475,30.3446875 C16.23075,30.3446875 16.6577156,30.2689844 17.0513719,30.1175781 C17.4450281,29.9661719 17.7872063,29.7814562 18.0779062,29.5634312 C18.2523263,29.4326162 18.4049438,29.3007111 18.5357587,29.1677159 L18.62325,29.074 L18.6292722,29.1865224 C18.6502837,29.4009631 18.7238239,29.5891394 18.8498927,29.7510514 L18.9318375,29.8450469 C19.13775,30.0570156 19.3981687,30.163 19.7130937,30.163 C20.0280187,30.163 20.2884375,30.0570156 20.49435,29.8450469 C20.7002625,29.6330781 20.8032187,29.3696312 20.8032187,29.0547062 L20.8032187,29.0547062 L20.8032187,21.369325 C20.8032187,21.0422875 20.7002625,20.7758125 20.49435,20.5699 C20.2884375,20.3639875 20.0280187,20.2610312 19.7130937,20.2610312 C19.3981687,20.2610312 19.13775,20.3670156 18.9318375,20.5789844 C18.725925,20.7909531 18.6229687,21.0544 18.6229687,21.369325 L18.6229687,21.369325 L18.62225,21.393 C18.5674962,21.3413637 18.5109281,21.2911994 18.4525459,21.2425071 L18.2686781,21.0967937 C17.9476969,20.8545437 17.5691813,20.6546875 17.1331313,20.497225 C16.6970813,20.3397625 16.2186375,20.2610312 15.6978,20.2610312 C14.8862625,20.2610312 14.1474,20.4760281 13.4812125,20.9060219 C12.815025,21.3360156 12.2851031,21.9295281 11.8914469,22.6865594 C11.4977906,23.4435906 11.3009625,24.3187187 11.3009625,25.3119437 C11.3009625,26.2930563 11.4977906,27.1621281 11.8914469,27.9191594 C12.2851031,28.6761906 12.8210813,29.2697031 13.4993813,29.6996969 C14.1776813,30.1296906 14.9347125,30.3446875 15.770475,30.3446875 Z M16.0430063,28.346125 C15.5221687,28.346125 15.0618938,28.2128875 14.6621813,27.9464125 C14.2624688,27.6799375 13.9505719,27.3165625 13.7264906,26.8562875 C13.5024094,26.3960125 13.3903688,25.8812312 13.3903688,25.3119437 C13.3903688,24.7305437 13.5024094,24.2097062 13.7264906,23.7494312 C13.9505719,23.2891562 14.2624688,22.9257812 14.6621813,22.6593062 C15.0618938,22.3928312 15.5221687,22.2595938 16.0430063,22.2595938 C16.5759562,22.2595938 17.0422875,22.3928312 17.442,22.6593062 C17.8417125,22.9257812 18.1536094,23.2891562 18.3776906,23.7494312 C18.6017719,24.2097062 18.7138125,24.7305437 18.7138125,25.3119437 C18.7138125,25.8812312 18.6017719,26.3960125 18.3776906,26.8562875 C18.1536094,27.3165625 17.8417125,27.6799375 17.442,27.9464125 C17.0422875,28.2128875 16.5759562,28.346125 16.0430063,28.346125 Z M24.4188,30.163 C24.733725,30.163 24.9971719,30.0570156 25.2091406,29.8450469 C25.4211094,29.6330781 25.5270937,29.3696312 25.5270937,29.0547062 L25.5270937,29.0547062 L25.5270937,17.8264187 C25.5270937,17.5114937 25.4271656,17.2480469 25.2273094,17.0360781 C25.0274531,16.8241094 24.7700625,16.718125 24.4551375,16.718125 C24.1402125,16.718125 23.8767656,16.8241094 23.6647969,17.0360781 C23.4528281,17.2480469 23.3468437,17.5114937 23.3468437,17.8264187 L23.3468437,17.8264187 L23.3468437,29.0547062 C23.3468437,29.3696312 23.4498,29.6330781 23.6557125,29.8450469 C23.861625,30.0570156 24.1159875,30.163 24.4188,30.163 Z M32.0315062,30.3446875 C32.6734688,30.3446875 33.2700094,30.2689844 33.8211281,30.1175781 C34.3722469,29.9661719 34.8173813,29.7663156 35.1565312,29.5180094 C35.4956813,29.2697031 35.6652563,28.9941437 35.6652563,28.6913312 C35.6652563,28.4006312 35.5804688,28.1553531 35.4108937,27.9554969 C35.2413187,27.7556406 34.9990687,27.6557125 34.6841438,27.6557125 C34.4176688,27.6557125 34.2178125,27.7102187 34.084575,27.8192312 C33.9513375,27.9282437 33.7999313,28.0312 33.6303563,28.1281 C33.4850063,28.200775 33.3033188,28.2552813 33.0852937,28.2916188 C32.8672688,28.3279562 32.60685,28.346125 32.3040375,28.346125 C31.758975,28.346125 31.2775031,28.2128875 30.8596219,27.9464125 C30.4417406,27.6799375 30.1147031,27.3195906 29.8785094,26.8653719 C29.6423156,26.4111531 29.5242188,25.8933438 29.5242188,25.3119437 C29.5242188,24.7184312 29.6392875,24.1945656 29.869425,23.7403469 C30.0995625,23.2861281 30.4296281,22.9257812 30.8596219,22.6593062 C31.2896156,22.3928312 31.8134812,22.2595938 32.4312188,22.2595938 C32.5523437,22.2595938 32.7370594,22.2807906 32.9853656,22.3231844 C33.2336719,22.3655781 33.4183875,22.4231125 33.5395125,22.4957875 C33.67275,22.5684625 33.7878187,22.6471938 33.8847188,22.7319812 C33.9816188,22.8167687 34.0936594,22.8864156 34.2208406,22.9409219 C34.3480219,22.9954281 34.5085125,23.0226812 34.7023125,23.0226812 C34.9809,23.0226812 35.1928688,22.9166969 35.3382187,22.7047281 C35.4835688,22.4927594 35.5562438,22.26565 35.5562438,22.0234 C35.5562438,21.660025 35.4139219,21.3481281 35.1292781,21.0877094 C34.8446344,20.8272906 34.4449219,20.6244062 33.9301406,20.4790562 C33.4153594,20.3337062 32.8127625,20.2610312 32.12235,20.2610312 C31.1896875,20.2610312 30.3630094,20.4760281 29.6423156,20.9060219 C28.9216219,21.3360156 28.3583906,21.9295281 27.9526219,22.6865594 C27.5468531,23.4435906 27.3439688,24.3187187 27.3439688,25.3119437 C27.3439688,26.2567187 27.5347406,27.11065 27.9162844,27.8737375 C28.2978281,28.636825 28.8398625,29.2394219 29.5423875,29.6815281 C30.2449125,30.1236344 31.0746187,30.3446875 32.0315062,30.3446875 Z M41.3884125,30.3446875 C42.7329,30.3446875 43.7624625,29.9692 44.4771,29.218225 C45.1917375,28.46725 45.5490563,27.4498 45.5490563,26.165875 L45.5490563,26.165875 L45.5490563,21.5510125 C45.5490563,21.2360875 45.4461,20.9726406 45.2401875,20.7606719 C45.034275,20.5487031 44.7738563,20.4427187 44.4589313,20.4427187 C44.1440063,20.4427187 43.8835875,20.5487031 43.677675,20.7606719 C43.4717625,20.9726406 43.3688063,21.2360875 43.3688063,21.5510125 L43.3688063,21.5510125 L43.3688063,26.165875 C43.3688063,26.9047375 43.2052875,27.4528281 42.87825,27.8101469 C42.5512125,28.1674656 42.0546,28.346125 41.3884125,28.346125 C40.7343375,28.346125 40.2437813,28.1674656 39.9167438,27.8101469 C39.5897063,27.4528281 39.4261875,26.9047375 39.4261875,26.165875 L39.4261875,26.165875 L39.4261875,21.5510125 C39.4261875,21.2360875 39.3232313,20.9726406 39.1173187,20.7606719 C38.9114063,20.5487031 38.6509875,20.4427187 38.3360625,20.4427187 C38.0211375,20.4427187 37.7607188,20.5487031 37.5548062,20.7606719 C37.3488938,20.9726406 37.2459375,21.2360875 37.2459375,21.5510125 L37.2459375,21.5510125 L37.2459375,26.165875 C37.2459375,27.4498 37.6002281,28.46725 38.3088094,29.218225 C39.0173906,29.9692 40.043925,30.3446875 41.3884125,30.3446875 Z M49.1646375,30.163 C49.4795625,30.163 49.7430094,30.0570156 49.9549781,29.8450469 C50.1669469,29.6330781 50.2729313,29.3696312 50.2729313,29.0547062 L50.2729313,29.0547062 L50.2729313,17.8264187 C50.2729313,17.5114937 50.1730031,17.2480469 49.9731469,17.0360781 C49.7732906,16.8241094 49.5159,16.718125 49.200975,16.718125 C48.88605,16.718125 48.6226031,16.8241094 48.4106344,17.0360781 C48.1986656,17.2480469 48.0926813,17.5114937 48.0926813,17.8264187 L48.0926813,17.8264187 L48.0926813,29.0547062 C48.0926813,29.3696312 48.1956375,29.6330781 48.40155,29.8450469 C48.6074625,30.0570156 48.861825,30.163 49.1646375,30.163 Z M56.7410063,30.3446875 C57.2012813,30.3446875 57.6282469,30.2689844 58.0219031,30.1175781 C58.4155594,29.9661719 58.7577375,29.7814562 59.0484375,29.5634312 C59.2228575,29.4326162 59.375475,29.3007111 59.50629,29.1677159 L59.59425,29.073 L59.5998034,29.1865224 C59.6208149,29.4009631 59.6943551,29.5891394 59.820424,29.7510514 L59.9023688,29.8450469 C60.1082813,30.0570156 60.3687,30.163 60.683625,30.163 C60.99855,30.163 61.2589688,30.0570156 61.4648813,29.8450469 C61.6707937,29.6330781 61.77375,29.3696312 61.77375,29.0547062 L61.77375,29.0547062 L61.77375,21.369325 C61.77375,21.0422875 61.6707937,20.7758125 61.4648813,20.5699 C61.2589688,20.3639875 60.99855,20.2610312 60.683625,20.2610312 C60.3687,20.2610312 60.1082813,20.3670156 59.9023688,20.5789844 C59.6964562,20.7909531 59.5935,21.0544 59.5935,21.369325 L59.5935,21.369325 L59.59325,21.393 C59.5381837,21.3413637 59.4814594,21.2911994 59.4230771,21.2425071 L59.2392094,21.0967937 C58.9182281,20.8545437 58.5397125,20.6546875 58.1036625,20.497225 C57.6676125,20.3397625 57.1891688,20.2610312 56.6683313,20.2610312 C55.8567938,20.2610312 55.1179313,20.4760281 54.4517438,20.9060219 C53.7855563,21.3360156 53.2556344,21.9295281 52.8619781,22.6865594 C52.4683219,23.4435906 52.2714938,24.3187187 52.2714938,25.3119437 C52.2714938,26.2930563 52.4683219,27.1621281 52.8619781,27.9191594 C53.2556344,28.6761906 53.7916125,29.2697031 54.4699125,29.6996969 C55.1482125,30.1296906 55.9052438,30.3446875 56.7410063,30.3446875 Z M57.0135375,28.346125 C56.4927,28.346125 56.032425,28.2128875 55.6327125,27.9464125 C55.233,27.6799375 54.9211031,27.3165625 54.6970219,26.8562875 C54.4729406,26.3960125 54.3609,25.8812312 54.3609,25.3119437 C54.3609,24.7305437 54.4729406,24.2097062 54.6970219,23.7494312 C54.9211031,23.2891562 55.233,22.9257812 55.6327125,22.6593062 C56.032425,22.3928312 56.4927,22.2595938 57.0135375,22.2595938 C57.5464875,22.2595938 58.0128188,22.3928312 58.4125313,22.6593062 C58.8122438,22.9257812 59.1241406,23.2891562 59.3482219,23.7494312 C59.5723031,24.2097062 59.6843438,24.7305437 59.6843438,25.3119437 C59.6843438,25.8812312 59.5723031,26.3960125 59.3482219,26.8562875 C59.1241406,27.3165625 58.8122438,27.6799375 58.4125313,27.9464125 C58.0128188,28.2128875 57.5464875,28.346125 57.0135375,28.346125 Z M67.7512687,30.163 C68.1752063,30.163 68.5718906,30.0539875 68.9413219,29.8359625 C69.3107531,29.6179375 69.4954688,29.33935 69.4954688,29.0002 C69.4954688,28.7216125 69.4258219,28.5035875 69.2865281,28.346125 C69.1472344,28.1886625 68.9928,28.1099313 68.823225,28.1099313 C68.6657625,28.1099313 68.5264688,28.1371844 68.4053438,28.1916906 C68.2842188,28.2461969 68.1509813,28.27345 68.0056313,28.27345 C67.8723938,28.27345 67.7482406,28.249225 67.6331719,28.200775 C67.5181031,28.152325 67.4272594,28.0735937 67.3606406,27.9645812 C67.2940219,27.8555687 67.2607125,27.716275 67.2607125,27.5467 L67.2607125,27.5467 L67.26025,22.623 L68.5506938,22.6229687 C68.7929438,22.6229687 69.0015479,22.5577799 69.1765063,22.4274023 L69.2774438,22.3413531 C69.4712438,22.1536094 69.5681438,21.9204437 69.5681438,21.6418562 C69.5681438,21.3511562 69.4712438,21.1089062 69.2774438,20.9151062 C69.0836438,20.7213062 68.8413938,20.6244062 68.5506938,20.6244062 L68.5506938,20.6244062 L67.26025,20.625 L67.2607125,19.4616062 C67.2607125,19.1991687 67.191318,18.9724799 67.0525289,18.7815398 L66.9609281,18.6712656 C66.7610719,18.4592969 66.5036812,18.3533125 66.1887563,18.3533125 C65.8738313,18.3533125 65.6103844,18.4592969 65.3984156,18.6712656 C65.1864469,18.8832344 65.0804625,19.1466812 65.0804625,19.4616062 L65.0804625,19.4616062 L65.08025,20.625 L64.2447,20.6244062 C64.00245,20.6244062 63.7938458,20.6895951 63.6188875,20.8199727 L63.51795,20.9060219 C63.32415,21.0937656 63.22725,21.3269312 63.22725,21.6055187 C63.22725,21.8962187 63.32415,22.1384687 63.51795,22.3322687 C63.71175,22.5260687 63.954,22.6229687 64.2447,22.6229687 L64.2447,22.6229687 L65.08025,22.623 L65.0804625,27.6375438 C65.0804625,28.1568672 65.1500147,28.5788175 65.2891192,28.9033946 L65.3529938,29.0365375 C65.5346813,29.3756875 65.7617906,29.6270219 66.0343219,29.7905406 C66.3068531,29.9540594 66.5975531,30.0570156 66.9064219,30.0994094 C67.2152906,30.1418031 67.4969062,30.163 67.7512687,30.163 Z M75.8727,30.3446875 C76.79325,30.3446875 77.6259844,30.1327188 78.3709031,29.7087813 C79.1158219,29.2848437 79.7093344,28.6943594 80.1514406,27.9373281 C80.5935469,27.1802969 80.8146,26.3051687 80.8146,25.3119437 C80.8146,24.3187187 80.5935469,23.4435906 80.1514406,22.6865594 C79.7093344,21.9295281 79.1158219,21.3360156 78.3709031,20.9060219 C77.6259844,20.4760281 76.79325,20.2610312 75.8727,20.2610312 C74.95215,20.2610312 74.1194156,20.4760281 73.3744969,20.9060219 C72.6295781,21.3360156 72.0360656,21.9295281 71.5939594,22.6865594 C71.1518531,23.4435906 70.9308,24.3187187 70.9308,25.3119437 C70.9308,26.3051687 71.1518531,27.1802969 71.5939594,27.9373281 C72.0360656,28.6943594 72.6295781,29.2848437 73.3744969,29.7087813 C74.1194156,30.1327188 74.95215,30.3446875 75.8727,30.3446875 Z M75.8727,28.346125 C75.363975,28.346125 74.9006719,28.2189437 74.4827906,27.9645812 C74.0649094,27.7102187 73.7318156,27.3559281 73.4835094,26.9017094 C73.2352031,26.4474906 73.11105,25.9175688 73.11105,25.3119437 C73.11105,24.6942062 73.2352031,24.1582281 73.4835094,23.7040094 C73.7318156,23.2497906 74.0649094,22.8955 74.4827906,22.6411375 C74.9006719,22.386775 75.363975,22.2595938 75.8727,22.2595938 C76.381425,22.2595938 76.8447281,22.386775 77.2626094,22.6411375 C77.6804906,22.8955 78.0135844,23.2497906 78.2618906,23.7040094 C78.5101969,24.1582281 78.63435,24.6942062 78.63435,25.3119437 C78.63435,25.9175688 78.5101969,26.4474906 78.2618906,26.9017094 C78.0135844,27.3559281 77.6804906,27.7102187 77.2626094,27.9645812 C76.8447281,28.2189437 76.381425,28.346125 75.8727,28.346125 Z M83.7216,30.163 C84.036525,30.163 84.2969438,30.0570156 84.5028563,29.8450469 C84.7087688,29.6330781 84.811725,29.3696312 84.811725,29.0547062 L84.811725,29.0547062 L84.811725,24.7487125 C84.811725,24.3126625 84.8692594,23.9341469 84.9843281,23.6131656 C85.0993969,23.2921844 85.2508031,23.0226812 85.4385469,22.8046562 C85.6262906,22.5866312 85.8322031,22.4261406 86.0562844,22.3231844 C86.2803656,22.2202281 86.5014187,22.16875 86.7194437,22.16875 C86.9616937,22.16875 87.1766906,22.2111437 87.3644344,22.2959312 C87.5521781,22.3807187 87.7611187,22.4231125 87.9912563,22.4231125 C88.2335063,22.4231125 88.4575875,22.3352969 88.6635,22.1596656 C88.8694125,21.9840344 88.9723688,21.6963625 88.9723688,21.29665 C88.9723688,21.0180625 88.8482156,20.7758125 88.5999094,20.5699 C88.3516031,20.3639875 88.0457625,20.2610312 87.6823875,20.2610312 C87.379575,20.2610312 87.0767625,20.2973687 86.77395,20.3700438 C86.4711375,20.4427187 86.1864938,20.5547594 85.9200188,20.7061656 C85.6535438,20.8575719 85.4143219,21.0453156 85.2023531,21.2693969 C85.0963687,21.3814375 85.0002258,21.5018055 84.9139242,21.6305008 L84.81125,21.797 L84.811725,21.5510125 C84.811725,21.2810768 84.7360837,21.0489617 84.584801,20.8546673 L84.5028563,20.7606719 C84.2969438,20.5487031 84.036525,20.4427187 83.7216,20.4427187 C83.406675,20.4427187 83.1462562,20.5487031 82.9403437,20.7606719 C82.7344313,20.9726406 82.631475,21.2360875 82.631475,21.5510125 L82.631475,21.5510125 L82.631475,29.0547062 C82.631475,29.3696312 82.7344313,29.6330781 82.9403437,29.8450469 C83.1462562,30.0570156 83.406675,30.163 83.7216,30.163 Z M89.5356,30.1448312 C89.8868625,30.1448312 90.1563656,30.0509594 90.3441094,29.8632156 C90.5318531,29.6754719 90.625725,29.4059688 90.625725,29.0547062 L90.625725,29.0547062 L90.625725,28.7458375 C90.625725,28.394575 90.5318531,28.1250719 90.3441094,27.9373281 C90.1563656,27.7495844 89.8868625,27.6557125 89.5356,27.6557125 L89.5356,27.6557125 L89.2994062,27.6557125 C88.9481437,27.6557125 88.6786406,27.7495844 88.4908969,27.9373281 C88.3031531,28.1250719 88.2092812,28.394575 88.2092812,28.7458375 L88.2092812,28.7458375 L88.2092812,29.0547062 C88.2092812,29.4059688 88.3031531,29.6754719 88.4908969,29.8632156 C88.6786406,30.0509594 88.9481437,30.1448312 89.2994062,30.1448312 L89.2994062,30.1448312 L89.5356,30.1448312 Z M97.2573188,30.3446875 C98.1778688,30.3446875 99.0106031,30.1327188 99.7555219,29.7087813 C100.500441,29.2848437 101.093953,28.6943594 101.536059,27.9373281 C101.978166,27.1802969 102.199219,26.3051687 102.199219,25.3119437 C102.199219,24.3187187 101.978166,23.4435906 101.536059,22.6865594 C101.093953,21.9295281 100.500441,21.3360156 99.7555219,20.9060219 C99.0106031,20.4760281 98.1778688,20.2610312 97.2573188,20.2610312 C96.3367688,20.2610312 95.5040344,20.4760281 94.7591156,20.9060219 C94.0141969,21.3360156 93.4206844,21.9295281 92.9785781,22.6865594 C92.5364719,23.4435906 92.3154188,24.3187187 92.3154188,25.3119437 C92.3154188,26.3051687 92.5364719,27.1802969 92.9785781,27.9373281 C93.4206844,28.6943594 94.0141969,29.2848437 94.7591156,29.7087813 C95.5040344,30.1327188 96.3367688,30.3446875 97.2573188,30.3446875 Z M97.2573188,28.346125 C96.7485937,28.346125 96.2852906,28.2189437 95.8674094,27.9645812 C95.4495281,27.7102187 95.1164344,27.3559281 94.8681281,26.9017094 C94.6198219,26.4474906 94.4956688,25.9175688 94.4956688,25.3119437 C94.4956688,24.6942062 94.6198219,24.1582281 94.8681281,23.7040094 C95.1164344,23.2497906 95.4495281,22.8955 95.8674094,22.6411375 C96.2852906,22.386775 96.7485937,22.2595938 97.2573188,22.2595938 C97.7660437,22.2595938 98.2293469,22.386775 98.6472281,22.6411375 C99.0651094,22.8955 99.3982031,23.2497906 99.6465094,23.7040094 C99.8948156,24.1582281 100.018969,24.6942062 100.018969,25.3119437 C100.018969,25.9175688 99.8948156,26.4474906 99.6465094,26.9017094 C99.3982031,27.3559281 99.0651094,27.7102187 98.6472281,27.9645812 C98.2293469,28.2189437 97.7660437,28.346125 97.2573188,28.346125 Z M105.106219,30.163 C105.421144,30.163 105.681562,30.0570156 105.887475,29.8450469 C106.093388,29.6330781 106.196344,29.3696312 106.196344,29.0547062 L106.196344,29.0547062 L106.196344,24.7487125 C106.196344,24.3126625 106.253878,23.9341469 106.368947,23.6131656 C106.484016,23.2921844 106.635422,23.0226812 106.823166,22.8046562 C107.010909,22.5866312 107.216822,22.4261406 107.440903,22.3231844 C107.664984,22.2202281 107.886038,22.16875 108.104063,22.16875 C108.346313,22.16875 108.561309,22.2111437 108.749053,22.2959312 C108.936797,22.3807187 109.145737,22.4231125 109.375875,22.4231125 C109.618125,22.4231125 109.842206,22.3352969 110.048119,22.1596656 C110.254031,21.9840344 110.356987,21.6963625 110.356987,21.29665 C110.356987,21.0180625 110.232834,20.7758125 109.984528,20.5699 C109.736222,20.3639875 109.430381,20.2610312 109.067006,20.2610312 C108.764194,20.2610312 108.461381,20.2973687 108.158569,20.3700438 C107.855756,20.4427187 107.571113,20.5547594 107.304637,20.7061656 C107.038162,20.8575719 106.798941,21.0453156 106.586972,21.2693969 C106.480987,21.3814375 106.384845,21.5018055 106.298543,21.6305008 L106.19625,21.797 L106.196344,21.5510125 C106.196344,21.2810768 106.120702,21.0489617 105.96942,20.8546673 L105.887475,20.7606719 C105.681562,20.5487031 105.421144,20.4427187 105.106219,20.4427187 C104.791294,20.4427187 104.530875,20.5487031 104.324963,20.7606719 C104.11905,20.9726406 104.016094,21.2360875 104.016094,21.5510125 L104.016094,21.5510125 L104.016094,29.0547062 C104.016094,29.3696312 104.11905,29.6330781 104.324963,29.8450469 C104.530875,30.0570156 104.791294,30.163 105.106219,30.163 Z M115.916625,33.79675 C116.7645,33.79675 117.557869,33.6544281 118.296731,33.3697844 C119.035594,33.0851406 119.632134,32.6248656 120.086353,31.9889594 C120.540572,31.3530531 120.767681,30.5082062 120.767681,29.4544187 L120.767681,29.4544187 L120.767681,21.369325 C120.767681,21.0422875 120.664725,20.7758125 120.458813,20.5699 C120.2529,20.3639875 119.992481,20.2610312 119.677556,20.2610312 C119.362631,20.2610312 119.102213,20.3670156 118.8963,20.5789844 C118.690387,20.7909531 118.587431,21.0544 118.587431,21.369325 L118.587431,21.369325 L118.58725,21.576 L118.553637,21.5361141 C118.462067,21.4377606 118.359837,21.3398916 118.246949,21.2425071 L118.069622,21.0967937 C117.760753,20.8545437 117.39435,20.6546875 116.970412,20.497225 C116.546475,20.3397625 116.080144,20.2610312 115.571419,20.2610312 C114.735656,20.2610312 113.978625,20.4760281 113.300325,20.9060219 C112.622025,21.3360156 112.083019,21.9295281 111.683306,22.6865594 C111.283594,23.4435906 111.083738,24.3187187 111.083738,25.3119437 C111.083738,26.2930563 111.283594,27.1621281 111.683306,27.9191594 C112.083019,28.6761906 112.628081,29.2697031 113.318494,29.6996969 C114.008906,30.1296906 114.784106,30.3446875 115.644094,30.3446875 C116.080144,30.3446875 116.491969,30.2689844 116.879569,30.1175781 C117.267169,29.9661719 117.603291,29.7814562 117.887934,29.5634312 C118.172578,29.3454063 118.396659,29.1243531 118.560178,28.9002719 L118.560178,28.9002719 L118.58725,28.86 L118.587431,29.7451188 C118.587431,30.322885 118.410831,30.7878233 118.057631,31.1399337 L117.933356,31.253125 C117.497306,31.6165 116.825063,31.7981875 115.916625,31.7981875 C115.662262,31.7981875 115.368534,31.7527656 115.035441,31.6619219 C114.702347,31.5710781 114.396506,31.47115 114.117919,31.3621375 C113.839331,31.253125 113.639475,31.18045 113.51835,31.1441125 C113.251875,31.0472125 112.997513,31.0623531 112.755263,31.1895344 C112.513013,31.3167156 112.337381,31.5559375 112.228369,31.9072 C112.143581,32.173675 112.170834,32.4250094 112.310128,32.6612031 C112.449422,32.8973969 112.700756,33.094225 113.064131,33.2516875 C113.245819,33.3243625 113.512294,33.4030938 113.863556,33.4878813 C114.214819,33.5726688 114.58425,33.6453438 114.97185,33.7059063 C115.35945,33.7664688 115.674375,33.79675 115.916625,33.79675 Z M115.916625,28.346125 C115.371563,28.346125 114.893119,28.2128875 114.481294,27.9464125 C114.069469,27.6799375 113.748488,27.3165625 113.51835,26.8562875 C113.288213,26.3960125 113.173144,25.8812312 113.173144,25.3119437 C113.173144,24.7305437 113.288213,24.2097062 113.51835,23.7494312 C113.748488,23.2891562 114.069469,22.9257812 114.481294,22.6593062 C114.893119,22.3928312 115.371563,22.2595938 115.916625,22.2595938 C116.4738,22.2595938 116.9583,22.3928312 117.370125,22.6593062 C117.78195,22.9257812 118.102931,23.2891562 118.333069,23.7494312 C118.563206,24.2097062 118.678275,24.7305437 118.678275,25.3119437 C118.678275,25.8812312 118.563206,26.3960125 118.333069,26.8562875 C118.102931,27.3165625 117.78195,27.6799375 117.370125,27.9464125 C116.9583,28.2128875 116.4738,28.346125 115.916625,28.346125 Z" id="Calculator.org"></path>
            </g>
            <g id="Group-26">
                <circle id="Oval" fill="#F7E0E5" cx="19" cy="19" r="19"></circle>
                <path d="M14.7597241,18.8375172 C15.2209655,18.8375172 15.6647356,18.7501609 16.0910345,18.5754483 C16.5173333,18.4007356 16.8912184,18.1508966 17.2126897,17.825931 C17.5341609,17.5009655 17.7909885,17.1078621 17.9831724,16.6466207 C18.1753563,16.1853793 18.2714483,15.6682299 18.2714483,15.0951724 C18.2714483,14.5081379 18.184092,13.9770115 18.0093793,13.5017931 C17.8346667,13.0265747 17.590069,12.6247356 17.2755862,12.2962759 C16.9611034,11.9678161 16.5889655,11.7144828 16.1591724,11.5362759 C15.7293793,11.358069 15.2628966,11.2689655 14.7597241,11.2689655 C14.2565517,11.2689655 13.7918161,11.358069 13.3655172,11.5362759 C12.9392184,11.7144828 12.5705747,11.9678161 12.2595862,12.2962759 C11.9485977,12.6247356 11.7057471,13.0265747 11.5310345,13.5017931 C11.3563218,13.9770115 11.2689655,14.5081379 11.2689655,15.0951724 C11.2689655,15.6682299 11.3563218,16.1853793 11.5310345,16.6466207 C11.7057471,17.1078621 11.9485977,17.5009655 12.2595862,17.825931 C12.5705747,18.1508966 12.9392184,18.4007356 13.3655172,18.5754483 C13.7918161,18.7501609 14.2565517,18.8375172 14.7597241,18.8375172 Z M13.984,26.5842759 C14.1657011,26.5842759 14.3211954,26.5475862 14.4504828,26.4742069 C14.5797701,26.4008276 14.6863448,26.3082299 14.7702069,26.1964138 L14.7702069,26.1964138 L26.0286897,11.4262069 L24.1522759,11.4262069 C23.9286437,11.4262069 23.753931,11.4681379 23.6281379,11.552 C23.5023448,11.6358621 23.3975172,11.7302069 23.3136552,11.8350345 L23.3136552,11.8350345 L12.0551724,26.5842759 L13.984,26.5842759 Z M14.7597241,17.1602759 C14.550069,17.1602759 14.3543908,17.1253333 14.1726897,17.0554483 C13.9909885,16.9855632 13.8337471,16.8702529 13.7009655,16.7095172 C13.5681839,16.5487816 13.4651034,16.3373793 13.3917241,16.0753103 C13.3183448,15.8132414 13.2816552,15.4865287 13.2816552,15.0951724 C13.2816552,14.6898391 13.3183448,14.3508966 13.3917241,14.0783448 C13.4651034,13.8057931 13.5681839,13.5856552 13.7009655,13.417931 C13.8337471,13.2502069 13.9909885,13.1296552 14.1726897,13.0562759 C14.3543908,12.9828966 14.550069,12.9462069 14.7597241,12.9462069 C14.9693793,12.9462069 15.1668046,12.9828966 15.352,13.0562759 C15.5371954,13.1296552 15.697931,13.2502069 15.8342069,13.417931 C15.9704828,13.5856552 16.0770575,13.8057931 16.153931,14.0783448 C16.2308046,14.3508966 16.2692414,14.6898391 16.2692414,15.0951724 C16.2692414,15.4865287 16.2308046,15.8132414 16.153931,16.0753103 C16.0770575,16.3373793 15.9704828,16.5487816 15.8342069,16.7095172 C15.697931,16.8702529 15.5371954,16.9855632 15.352,17.0554483 C15.1668046,17.1253333 14.9693793,17.1602759 14.7597241,17.1602759 Z M23.3136552,26.7729655 C23.7748966,26.7729655 24.2186667,26.6838621 24.6449655,26.5056552 C25.0712644,26.3274483 25.4451494,26.0758621 25.7666207,25.7508966 C26.088092,25.425931 26.3449195,25.0328276 26.5371034,24.5715862 C26.7292874,24.1103448 26.8253793,23.5931954 26.8253793,23.0201379 C26.8253793,22.4331034 26.738023,21.901977 26.5633103,21.4267586 C26.3885977,20.9515402 26.144,20.5497011 25.8295172,20.2212414 C25.5150345,19.8927816 25.1428966,19.6394483 24.7131034,19.4612414 C24.2833103,19.2830345 23.8168276,19.193931 23.3136552,19.193931 C22.8104828,19.193931 22.3457471,19.2830345 21.9194483,19.4612414 C21.4931494,19.6394483 21.1245057,19.8927816 20.8135172,20.2212414 C20.5025287,20.5497011 20.2596782,20.9515402 20.0849655,21.4267586 C19.9102529,21.901977 19.8228966,22.4331034 19.8228966,23.0201379 C19.8228966,23.5931954 19.9102529,24.1103448 20.0849655,24.5715862 C20.2596782,25.0328276 20.5025287,25.425931 20.8135172,25.7508966 C21.1245057,26.0758621 21.4931494,26.3274483 21.9194483,26.5056552 C22.3457471,26.6838621 22.8104828,26.7729655 23.3136552,26.7729655 Z M23.3136552,25.0957241 C23.104,25.0957241 22.9083218,25.0607816 22.7266207,24.9908966 C22.5449195,24.9210115 22.3894253,24.8057011 22.2601379,24.6449655 C22.1308506,24.4842299 22.0277701,24.2710805 21.9508966,24.0055172 C21.874023,23.739954 21.8355862,23.4114943 21.8355862,23.0201379 C21.8355862,22.6148046 21.874023,22.2758621 21.9508966,22.0033103 C22.0277701,21.7307586 22.1308506,21.5106207 22.2601379,21.3428966 C22.3894253,21.1751724 22.5449195,21.0546207 22.7266207,20.9812414 C22.9083218,20.9078621 23.104,20.8711724 23.3136552,20.8711724 C23.5233103,20.8711724 23.7207356,20.9078621 23.905931,20.9812414 C24.0911264,21.0546207 24.2518621,21.1751724 24.3881379,21.3428966 C24.5244138,21.5106207 24.6327356,21.7307586 24.7131034,22.0033103 C24.7934713,22.2758621 24.8336552,22.6148046 24.8336552,23.0201379 C24.8336552,23.4114943 24.7934713,23.739954 24.7131034,24.0055172 C24.6327356,24.2710805 24.5244138,24.4842299 24.3881379,24.6449655 C24.2518621,24.8057011 24.0911264,24.9210115 23.905931,24.9908966 C23.7207356,25.0607816 23.5233103,25.0957241 23.3136552,25.0957241 Z" id="%" fill="#6C4EFF" fill-rule="nonzero"></path>
            </g>
        </g>
    </g>
</svg>