<?xml version="1.0" encoding="UTF-8"?>
<svg width="50px" height="50px" viewBox="0 0 50 50" version="1.1" xmlns="http://www.w3.org/2000/svg" xmlns:xlink="http://www.w3.org/1999/xlink">
    <!-- Generator: Sketch 64 (93537) - https://sketch.com -->
    <title>money (2)</title>
    <desc>Created with Sketch.</desc>
    <g id="Page-1" stroke="none" stroke-width="1" fill="none" fill-rule="evenodd">
        <g id="SinglePage-Copy-5" transform="translate(-490.000000, -506.000000)" fill-rule="nonzero">
            <g id="money-(2)" transform="translate(490.000000, 506.000000)">
                <circle id="Oval" fill="#FFE14D" cx="25" cy="25" r="25"></circle>
                <path d="M50,25 C50,11.2149414 38.7850586,0 25,0 L25,50 C38.7850586,50 50,38.7850586 50,25 Z" id="Path" fill="#FFBB33"></path>
                <path d="M25,44.0429688 C14.5,44.0429688 5.95703125,35.5 5.95703125,25 C5.95703125,14.5 14.5,5.95703125 25,5.95703125 C35.5,5.95703125 44.0429688,14.5 44.0429688,25 C44.0429688,35.5 35.5,44.0429688 25,44.0429688 Z" id="Path" fill="#FFBB33"></path>
                <path d="M44.0429688,25 C44.0429688,14.5 35.5,5.95703125 25,5.95703125 L25,44.0429688 C35.5,44.0429688 44.0429688,35.5 44.0429688,25 Z" id="Path" fill="#E68A2E"></path>
                <g id="Cent_2_" transform="translate(17.675781, 11.718750)" fill="#FFE14D">
                    <path d="M8.7890625,11.9207031 L8.7890625,6.12910156 C10.4738281,6.54248047 11.71875,7.62646484 11.71875,8.87246094 C11.71875,9.68212891 12.3739258,10.3373047 13.1835938,10.3373047 C13.9932617,10.3373047 14.6484375,9.68212891 14.6484375,8.87246094 C14.6484375,6.0421875 12.1288086,3.67578125 8.7890625,3.13164062 L8.7890625,1.54824219 C8.7890625,0.738574219 8.13388672,0.0833984375 7.32421875,0.0833984375 C6.51455078,0.0833984375 5.859375,0.738574219 5.859375,1.54824219 L5.859375,3.13164062 C2.51962891,3.67578125 0,6.0421875 0,8.87246094 C0,11.7027344 2.51962891,14.0691406 5.859375,14.6132812 L5.859375,20.4048828 C4.17460937,19.9915039 2.9296875,18.9075195 2.9296875,17.6615234 C2.9296875,16.8518555 2.27451172,16.1966797 1.46484375,16.1966797 C0.655175781,16.1966797 0,16.8518555 0,17.6615234 C0,20.4917969 2.51962891,22.8582031 5.859375,23.4023437 L5.859375,25 C5.859375,25.809668 6.51455078,26.4648437 7.32421875,26.4648437 C8.13388672,26.4648437 8.7890625,25.809668 8.7890625,25 L8.7890625,23.4023437 C12.1288086,22.8582031 14.6484375,20.4917969 14.6484375,17.6615234 C14.6484375,14.83125 12.1288086,12.4647461 8.7890625,11.9207031 Z M2.9296875,8.87246094 C2.9296875,7.62646484 4.17460937,6.54248047 5.859375,6.12910156 L5.859375,11.6158203 C4.17460937,11.2023437 2.9296875,10.1183594 2.9296875,8.87246094 L2.9296875,8.87246094 Z M8.7890625,20.4048828 L8.7890625,14.9181641 C10.4738281,15.331543 11.71875,16.4155273 11.71875,17.6615234 C11.71875,18.9075195 10.4738281,19.9914063 8.7890625,20.4048828 Z" id="Shape"></path>
                </g>
                <path d="M26.4648438,36.71875 L26.4648438,35.1210938 C29.8045898,34.5769531 32.3242188,32.2105469 32.3242188,29.3802734 C32.3242188,26.55 29.8045898,24.1835938 26.4648438,23.6394531 L26.4648438,17.8478516 C28.1496094,18.2612305 29.3945312,19.3452148 29.3945312,20.5912109 C29.3945312,21.4008789 30.049707,22.0560547 30.859375,22.0560547 C31.669043,22.0560547 32.3242188,21.4008789 32.3242188,20.5912109 C32.3242188,17.7609375 29.8045898,15.3945312 26.4648438,14.8503906 L26.4648438,13.2669922 C26.4648438,12.4573242 25.809668,11.8021484 25,11.8021484 L25,38.1835938 C25.809668,38.1835938 26.4648438,37.528418 26.4648438,36.71875 Z M26.4648438,26.6368164 C28.1496094,27.0501953 29.3945312,28.1341797 29.3945312,29.3801758 C29.3945312,30.6261719 28.1496094,31.7101562 26.4648438,32.1235352 L26.4648438,26.6368164 Z" id="Shape" fill="#FFBB33"></path>
            </g>
        </g>
    </g>
</svg>