<svg id="Layer_5" enable-background="new 0 0 64 64" height="512" viewBox="0 0 64 64" width="512" xmlns="http://www.w3.org/2000/svg"><g><g><g><path d="m18 10h-8c-4.42 0-8-3.58-8-8h8c4.42 0 8 3.58 8 8z" fill="#a0d468"/></g><g><path d="m18 24h-8c-4.42 0-8-3.58-8-8h8c4.42 0 8 3.58 8 8z" fill="#b4dd7f"/></g><g><path d="m26 10h8c0 4.42-3.58 8-8 8h-8c0-4.42 3.58-8 8-8z" fill="#b4dd7f"/></g><g><path d="m26 24h8c0 4.42-3.58 8-8 8h-8c0-4.42 3.58-8 8-8z" fill="#b4dd7f"/></g><g><path d="m26 44c1.1 0 2 .9 2 2v2c0 1.1-.9 2-2 2h-2-4-4-4-2c-1.1 0-2-.9-2-2v-2c0-1.1.9-2 2-2h2 4 4 4z" fill="#ffc729"/></g><g><path d="m26 56c1.1 0 2 .9 2 2v2c0 1.1-.9 2-2 2h-16c-1.1 0-2-.9-2-2v-2c0-1.1.9-2 2-2h2 4 4 4z" fill="#ffc729"/></g><g><path d="m32 56h-2c-1.1 0-2-.9-2-2v-2c0-1.1.9-2 2-2h2 4 6.2c-.13.64-.2 1.31-.2 2 0 1.42.3 2.78.84 4h-2.84-4z" fill="#ffc729"/></g><g><path d="m24 38h2c1.1 0 2 .9 2 2v2c0 1.1-.9 2-2 2h-2-4-4-4-2c-1.1 0-2-.9-2-2v-2c0-1.1.9-2 2-2h2 4 2 2z" fill="#fcd770"/></g><g><path d="m26 50c1.1 0 2 .9 2 2v2c0 1.1-.9 2-2 2h-2-4-4-4-2c-1.1 0-2-.9-2-2v-2c0-1.1.9-2 2-2h2 4 4 4z" fill="#fcd770"/></g><g><path d="m46 62h-16c-1.1 0-2-.9-2-2v-2c0-1.1.9-2 2-2h2 4 4 2.84c.96 2.21 2.7 4 4.87 5.03-.36.58-.98.97-1.71.97z" fill="#fcd770"/></g><g><path d="m47.71 61.03c-2.17-1.03-3.91-2.82-4.87-5.03-.54-1.22-.84-2.58-.84-4 0-.69.07-1.36.2-2 .93-4.56 4.97-8 9.8-8 5.52 0 10 4.48 10 10s-4.48 10-10 10c-1.54 0-2.99-.35-4.29-.97z" fill="#fcd770"/></g><g><circle cx="52" cy="32" fill="#fcd770" r="10"/></g><g><circle cx="52" cy="12" fill="#fcd770" r="10"/></g></g><g><path d="m51 59h2v-2c1.654 0 3-1.346 3-3s-1.346-3-3-3h-2c-.551 0-1-.448-1-1s.449-1 1-1h3v1h2v-3h-3v-2h-2v2c-1.654 0-3 1.346-3 3s1.346 3 3 3h2c.551 0 1 .448 1 1s-.449 1-1 1h-3v-1h-2v3h3z"/><path d="m53 25h-2v2c-1.654 0-3 1.346-3 3s1.346 3 3 3h2c.551 0 1 .448 1 1s-.449 1-1 1h-3v-1h-2v3h3v2h2v-2c1.654 0 3-1.346 3-3s-1.346-3-3-3h-2c-.551 0-1-.449-1-1s.449-1 1-1h3v1h2v-3h-3z"/><path d="m63 32c0-4.439-2.649-8.264-6.444-10 3.795-1.736 6.444-5.561 6.444-10 0-6.065-4.935-11-11-11s-11 4.935-11 11c0 4.439 2.649 8.264 6.444 10-3.795 1.736-6.444 5.561-6.444 10s2.649 8.264 6.444 10c-2.906 1.329-5.132 3.882-6.018 7h-11.426c-.475 0-.919.121-1.319.319.198-.4.319-.844.319-1.319v-2c0-.771-.301-1.468-.78-2 .48-.532.78-1.229.78-2v-2c0-1.654-1.346-3-3-3h-7v-4h7c4.962 0 9-4.038 9-9v-1h-9c-2.826 0-5.349 1.312-7 3.356v-1.356-1-5h7c4.962 0 9-4.038 9-9v-1h-9c-2.826 0-5.349 1.312-7 3.356v-1.356-1c0-4.962-4.038-9-9-9h-9v1c0 4.962 4.038 9 9 9h7v7 .356c-1.651-2.044-4.174-3.356-7-3.356h-9v1c0 4.962 4.038 9 9 9h7v7 1 4h-7c-1.654 0-3 1.346-3 3v2c0 .771.301 1.468.78 2-.479.532-.78 1.229-.78 2v2c0 .771.301 1.468.78 2-.479.532-.78 1.229-.78 2v2c0 .771.301 1.468.78 2-.479.532-.78 1.229-.78 2v2c0 1.654 1.346 3 3 3h16c.771 0 1.468-.301 2-.78.532.48 1.229.78 2 .78h16c.75 0 1.442-.285 1.982-.771 1.246.492 2.599.771 4.018.771 6.065 0 11-4.935 11-11 0-4.439-2.649-8.264-6.444-10 3.795-1.736 6.444-5.561 6.444-10zm-37-7h6.929c-.487 3.388-3.408 6-6.929 6h-6.929c.487-3.388 3.408-6 6.929-6zm0-14h6.929c-.487 3.388-3.408 6-6.929 6h-6.929c.487-3.388 3.408-6 6.929-6zm-16-2c-3.521 0-6.442-2.612-6.929-6h6.929c3.521 0 6.442 2.612 6.929 6zm0 14c-3.521 0-6.442-2.612-6.929-6h6.929c3.521 0 6.442 2.612 6.929 6zm33-11c0-4.962 4.038-9 9-9s9 4.038 9 9-4.038 9-9 9-9-4.038-9-9zm-13 39h1v2h2v-2h2v2h2v-2h4.051c-.03.33-.051.662-.051 1 0 1.041.155 2.045.426 3h-11.426c-.551 0-1-.448-1-1v-2c0-.552.449-1 1-1zm-20 4c-.551 0-1-.448-1-1v-2c0-.552.449-1 1-1h1v2h2v-2h2v2h2v-2h2v2h2v-2h2v2h2v-2h1c.551 0 1 .448 1 1v2c0 .552-.449 1-1 1zm-1-7v-2c0-.552.449-1 1-1h1v2h2v-2h2v2h2v-2h2v2h2v-2h2v2h2v-2h1c.551 0 1 .448 1 1v2c0 .552-.449 1-1 1h-16c-.551 0-1-.448-1-1zm0-8c0-.552.449-1 1-1h1v2h2v-2h2v2h2v-2h2v2h2v-2h2v2h2v-2h1c.551 0 1 .448 1 1v2c0 .552-.449 1-1 1h-16c-.551 0-1-.448-1-1zm17 21h-16c-.551 0-1-.448-1-1v-2c0-.552.449-1 1-1h1v2h2v-2h2v2h2v-2h2v2h2v-2h2v2h2v-2h1c.551 0 1 .448 1 1v2c0 .552-.449 1-1 1zm4 0c-.551 0-1-.448-1-1v-2c0-.552.449-1 1-1h1v2h2v-2h2v2h2v-2h2v2h2v-2h1.214c.821 1.6 2.019 2.973 3.481 4zm31-9c0 4.963-4.038 9-9 9s-9-4.037-9-9 4.038-9 9-9 9 4.037 9 9zm-9-11c-4.962 0-9-4.037-9-9 0-4.962 4.038-9 9-9s9 4.038 9 9c0 4.963-4.038 9-9 9z"/><path d="m53 5h-2v2c-1.654 0-3 1.346-3 3s1.346 3 3 3h2c.551 0 1 .449 1 1s-.449 1-1 1h-3v-1h-2v3h3v2h2v-2c1.654 0 3-1.346 3-3s-1.346-3-3-3h-2c-.551 0-1-.449-1-1s.449-1 1-1h3v1h2v-3h-3z"/></g></g></svg>