<svg id="Capa_1" enable-background="new 0 0 512 512" height="512" viewBox="0 0 512 512" width="512" xmlns="http://www.w3.org/2000/svg"><g><path d="m512 256c0 82.38-38.91 155.67-99.36 202.49l-24.92 8.51c-85.22 29.11-177.85 28.08-262.4-2.93l-34.86-12.79c-55.34-46.96-90.46-117.02-90.46-195.28 0-46.22 12.25-89.57 33.68-127 44.12-77.07 127.16-129 222.32-129s178.2 51.93 222.32 129c21.43 37.43 33.68 80.78 33.68 127z" fill="#63455d"/><path d="m512 256c0 82.38-38.91 155.67-99.36 202.49l-24.92 8.51c-85.22 29.11-177.85 28.08-262.4-2.93l-34.86-12.79c-55.34-46.96-90.46-117.02-90.46-195.28 0-46.22 12.25-89.57 33.68-127 29.61 51.72 76.74 92.11 133.3 113.09 9.4 3.49 19.07 6.44 28.96 8.82 17.87 4.3 36.49 6.72 55.61 7.04 1.48.04 2.96.05 4.45.05 31.3 0 61.3-5.62 89.02-15.91 56.56-20.98 103.69-61.37 133.3-113.09 21.43 37.43 33.68 80.78 33.68 127z" fill="#53354b"/><g><g><g><g><path d="m355.659 33.213 32.983 61.214c4.101 7.611 1.255 17.105-6.35 21.204l-120.997 65.196c-7.611 4.101-17.105 1.256-21.206-6.355l-32.983-61.214c-4.101-7.611-1.255-17.105 6.355-21.206l120.997-65.196c7.605-4.099 17.1-1.254 21.201 6.357z" fill="#02bd57"/><path d="m355.659 33.212 32.983 61.214c4.101 7.611 1.255 17.105-6.351 21.204l-60.501 32.599-47.834-88.776 60.501-32.599c7.607-4.098 17.102-1.253 21.202 6.358z" fill="#02a548"/><path d="m329.249 44.996-97.773 52.682c4.018 7.457 1.23 16.761-6.232 20.782l20.475 38c7.462-4.021 16.766-1.233 20.785 6.225l97.773-52.682c-4.018-7.457-1.23-16.761 6.228-20.779l-20.475-38c-7.459 4.018-16.763 1.229-20.781-6.228z" fill="#85ef47"/><path d="m350.028 51.223 20.475 38c-7.457 4.018-10.246 13.322-6.228 20.779l-48.889 26.343-35.026-65.007 48.889-26.343c4.018 7.458 13.322 10.247 20.779 6.228z" fill="#02bd57"/></g><g><path d="m322.632 90.501c7.367 13.672 2.259 30.73-11.418 38.1-3.511 1.892-7.248 2.96-10.986 3.268-10.809.904-21.634-4.528-27.109-14.689-7.367-13.672-2.258-30.73 11.413-38.097 13.678-7.369 30.734-2.254 38.1 11.418z" fill="#fff"/><path d="m322.632 90.501c7.367 13.672 2.259 30.73-11.418 38.1l-26.681-49.518c8.819-4.752 19.043-4.312 27.166.269 4.476 2.521 8.318 6.296 10.933 11.149z" fill="#d0f6ff"/></g></g><g><path d="m295.269 99.009c-1.274.22-2.219.174-2.601-.535-.374-.693.044-1.257.906-1.721.119-.064.245-.126.379-.185 1.368-.616 3.522-1.029 5.643-1.232 1.904-.189 3.326-1.843 3.23-3.753l-.008-.168c-.105-2.128-2.018-3.698-4.125-3.387-1.661.25-3.384.705-5.045 1.345l-1.337-2.481c-.408-.758-1.086-1.281-1.848-1.509-.767-.226-1.616-.165-2.373.244l-.025.013c-1.497.826-2.052 2.703-1.24 4.208l1.39 2.58c-3.823 3.127-5.042 7.196-2.993 10.999 3.132 5.813 9.612 3.159 13.649 2.268 1.607-.361 2.828-.431 3.29.425.445.827-.085 1.586-1.209 2.191-.163.088-.342.172-.533.255-1.627.704-4.11 1.147-6.532 1.194-.606.014-1.175.167-1.675.436-1.164.627-1.941 1.864-1.893 3.282.07 1.968 1.714 3.549 3.677 3.469 2.245-.091 4.566-.55 6.727-1.306l1.481 2.748c.408.758 1.086 1.281 1.848 1.509.759.223 1.598.168 2.349-.23l.025-.013c1.515-.817 2.082-2.706 1.265-4.222l-1.425-2.644c3.847-2.846 5.874-6.922 3.52-11.289-3.423-6.354-10.563-3.158-14.517-2.491z" fill="#63455d"/></g><g fill="#383838"><path d="m309.786 101.499c2.353 4.368.326 8.444-3.52 11.289l1.425 2.644c.816 1.515.25 3.405-1.265 4.222l-.025.013-5.982-11.102c.191-.084.37-.167.533-.255 1.124-.606 1.655-1.364 1.209-2.191-.462-.857-1.683-.787-3.29-.425l-3.602-6.685c3.954-.667 11.094-3.863 14.517 2.49z"/><path d="m299.596 95.336c-2.12.203-4.275.616-5.643 1.232l-5.888-10.929.025-.013c.758-.408 1.606-.469 2.373-.244.762.228 1.44.751 1.848 1.509l1.337 2.481c1.662-.64 3.384-1.095 5.045-1.345 2.107-.311 4.02 1.259 4.125 3.387l.008.168c.096 1.91-1.325 3.564-3.23 3.754z"/></g></g><g><g><path d="m357.906 212.531v86.726h-212.714v-86.726c0-11.483 9.309-20.792 20.793-20.792h171.129c11.483 0 20.792 9.309 20.792 20.792z" fill="#cff6ff"/><path d="m357.906 212.531v86.726h-169.816v-107.518h149.023c11.484 0 20.793 9.309 20.793 20.792z" fill="#b0edf7"/><path d="m357.906 212.531v86.726h-106.357v-107.518h85.565c11.483 0 20.792 9.309 20.792 20.792z" fill="#91dde5"/><path d="m412.64 296.83v161.66c-43.29 33.54-97.64 53.51-156.64 53.51-63.12 0-120.91-22.85-165.54-60.72v-154.45c0-30.23 24.5-54.74 54.73-54.74h212.72c30.22 0 54.73 24.51 54.73 54.74z" fill="#fff"/><path d="m412.64 296.83v161.66c-12.59 9.76-26.12 18.37-40.43 25.67-34.87 17.8-74.37 27.84-116.21 27.84-1.49 0-2.97-.01-4.45-.04-28.2-.48-55.28-5.52-80.54-14.42v-200.71c0-19.24 9.92-36.16 24.93-45.92 8.57-5.58 18.8-8.82 29.79-8.82h132.18c30.22 0 54.73 24.51 54.73 54.74z" fill="#cff6ff"/><path d="m412.64 296.83v161.66c-12.59 9.76-26.12 18.37-40.43 25.67-34.87 17.8-74.37 27.84-116.21 27.84-1.49 0-2.97-.01-4.45-.04v-269.87h106.36c30.22 0 54.73 24.51 54.73 54.74z" fill="#b0edf7"/><path d="m357.91 282.52h-212.72c-7.89 0-14.31 6.42-14.31 14.31v182.56c36.99 20.76 79.67 32.61 125.12 32.61 41.84 0 81.34-10.04 116.21-27.84v-187.33c0-7.89-6.42-14.31-14.3-14.31z" fill="#fff"/><path d="m372.21 296.83v187.33c-34.87 17.8-74.37 27.84-116.21 27.84-1.49 0-2.97-.01-4.45-.04v-229.44h106.36c7.88 0 14.3 6.42 14.3 14.31z" fill="#cff6ff"/></g><g><g><g><path d="m292.91 450.81-99.33 53.52c-7.67-1.92-15.2-4.19-22.57-6.79-12.16-4.27-23.9-9.44-35.14-15.42l-18.15-33.69c-4.1-7.61-1.25-17.1 6.36-21.2l121-65.2c7.6-4.1 17.1-1.25 21.2 6.36l32.98 61.21c4.1 7.61 1.26 17.11-6.35 21.21z" fill="#02bd57"/><path d="m266.279 368.388 32.984 61.214c4.101 7.611 1.255 17.105-6.351 21.204l-60.501 32.599-47.834-88.776 60.501-32.599c7.606-4.098 17.1-1.253 21.201 6.358z" fill="#02a548"/><path d="m239.868 380.172-97.773 52.682c4.018 7.457 1.23 16.761-6.232 20.782l20.475 38c7.462-4.021 16.766-1.233 20.785 6.225l97.773-52.682c-4.018-7.457-1.23-16.761 6.228-20.779l-20.475-38c-7.458 4.018-16.762 1.229-20.781-6.228z" fill="#85ef47"/><path d="m260.648 386.399 20.475 38c-7.457 4.018-10.246 13.322-6.228 20.779l-48.889 26.343-35.027-65.007 48.889-26.342c4.019 7.457 13.323 10.246 20.78 6.227z" fill="#02bd57"/></g><g><path d="m233.252 425.677c7.367 13.672 2.259 30.73-11.418 38.1-3.511 1.892-7.248 2.96-10.986 3.268-10.809.904-21.634-4.528-27.109-14.689-7.367-13.672-2.258-30.73 11.413-38.097 13.677-7.37 30.733-2.254 38.1 11.418z" fill="#fff"/><path d="m233.252 425.677c7.367 13.672 2.259 30.73-11.418 38.1l-26.681-49.518c8.819-4.752 19.043-4.312 27.166.269 4.476 2.521 8.318 6.296 10.933 11.149z" fill="#d0f6ff"/></g></g><g><path d="m205.889 434.185c-1.274.22-2.219.174-2.601-.535-.373-.693.045-1.257.906-1.721.119-.064.245-.126.379-.185 1.368-.616 3.522-1.029 5.643-1.232 1.904-.189 3.326-1.843 3.23-3.753l-.008-.168c-.105-2.128-2.018-3.698-4.125-3.387-1.661.25-3.384.705-5.045 1.345l-1.337-2.481c-.408-.758-1.086-1.28-1.848-1.509-.767-.226-1.616-.165-2.373.244l-.025.013c-1.497.826-2.051 2.703-1.24 4.208l1.39 2.58c-3.823 3.127-5.042 7.196-2.993 10.999 3.132 5.813 9.612 3.159 13.649 2.268 1.607-.361 2.828-.431 3.29.425.446.827-.085 1.586-1.209 2.191-.163.088-.342.171-.533.255-1.627.704-4.11 1.147-6.532 1.194-.606.013-1.175.167-1.675.436-1.164.627-1.941 1.864-1.893 3.282.07 1.968 1.714 3.549 3.677 3.469 2.245-.091 4.566-.55 6.727-1.305l1.481 2.748c.408.758 1.086 1.28 1.848 1.509.759.223 1.598.168 2.348-.23l.025-.013c1.515-.816 2.082-2.706 1.265-4.221l-1.425-2.644c3.847-2.846 5.874-6.922 3.52-11.289-3.422-6.356-10.563-3.16-14.516-2.493z" fill="#63455d"/></g><g fill="#383838"><path d="m220.406 436.675c2.353 4.367.326 8.444-3.52 11.289l1.425 2.644c.816 1.515.25 3.405-1.265 4.221l-.025.013-5.982-11.102c.191-.084.37-.167.533-.255 1.124-.606 1.655-1.364 1.209-2.191-.462-.857-1.682-.787-3.29-.425l-3.602-6.685c3.953-.666 11.094-3.862 14.517 2.491z"/><path d="m210.216 430.512c-2.12.203-4.275.616-5.643 1.232l-5.889-10.929.025-.013c.758-.408 1.607-.469 2.373-.244.762.228 1.44.751 1.848 1.509l1.337 2.481c1.661-.64 3.384-1.095 5.045-1.345 2.107-.311 4.02 1.259 4.125 3.387l.008.168c.097 1.91-1.325 3.565-3.229 3.754z"/></g></g><g><g><g><path d="m364.05 414.466-30.118 62.673c-3.745 7.792-13.097 11.074-20.885 7.331l-123.882-59.533c-7.792-3.745-11.074-13.098-7.329-20.89l30.118-62.673c3.745-7.792 13.098-11.074 20.89-7.329l123.881 59.533c7.788 3.743 11.069 13.096 7.325 20.888z" fill="#02bd57"/><path d="m364.051 414.467-30.118 62.673c-3.745 7.792-13.097 11.074-20.885 7.331l-61.943-29.768 43.679-90.892 61.943 29.768c7.787 3.743 11.069 13.095 7.324 20.888z" fill="#02a548"/><path d="m338.99 400.033-100.104-48.106c-3.669 7.635-12.834 10.851-20.475 7.179l-18.697 38.906c7.64 3.672 10.856 12.837 7.186 20.472l100.104 48.106c3.669-7.635 12.834-10.851 20.47-7.181l18.697-38.906c-7.635-3.669-10.85-12.835-7.181-20.47z" fill="#85ef47"/><path d="m346.171 420.503-18.697 38.906c-7.635-3.669-16.8-.454-20.47 7.181l-50.055-24.054 31.985-66.557 50.055 24.054c-3.668 7.635-.453 16.801 7.182 20.47z" fill="#02bd57"/></g><g><path d="m298.292 421.439c-6.727 13.998-23.528 19.897-37.531 13.167-3.594-1.727-6.656-4.122-9.103-6.965-7.087-8.211-9.059-20.161-4.059-30.564 6.727-13.998 23.528-19.897 37.526-13.17 14.003 6.73 19.894 23.534 13.167 37.532z" fill="#fff"/><path d="m298.292 421.439c-6.727 13.998-23.528 19.897-37.531 13.167l24.364-50.698c9.029 4.339 14.685 12.867 15.756 22.131.593 5.103-.201 10.432-2.589 15.4z" fill="#d0f6ff"/></g></g><g><path d="m275.321 404.309c-.927-.901-1.445-1.693-1.097-2.418.341-.71 1.043-.703 1.925-.279.122.059.246.125.373.198 1.302.744 2.903 2.244 4.314 3.839 1.273 1.429 3.447 1.606 4.935.406l.132-.105c1.66-1.337 1.804-3.807.314-5.328-1.179-1.197-2.56-2.322-4.054-3.29l1.221-2.54c.373-.776.397-1.631.134-2.382-.268-.753-.817-1.404-1.593-1.776l-.025-.012c-1.548-.725-3.392-.07-4.133 1.471l-1.269 2.641c-4.777-1.253-8.785.153-10.657 4.046-2.86 5.952 3.097 9.632 6.192 12.374 1.237 1.087 2.012 2.034 1.59 2.911-.407.847-1.332.864-2.483.311-.167-.08-.34-.176-.52-.281-1.526-.902-3.345-2.65-4.807-4.581-.367-.482-.826-.853-1.338-1.099-1.192-.573-2.649-.474-3.768.399-1.551 1.214-1.863 3.473-.643 5.014 1.394 1.762 3.13 3.37 5.012 4.674l-1.352 2.814c-.373.776-.397 1.632-.134 2.382.266.745.804 1.391 1.567 1.764l.025.012c1.551.746 3.413.092 4.159-1.459l1.301-2.707c4.564 1.438 9.052.681 11.201-3.791 3.125-6.506-3.658-10.402-6.522-13.208z" fill="#63455d"/></g><g fill="#383838"><path d="m281.843 417.516c-2.149 4.472-6.638 5.229-11.201 3.791l-1.301 2.707c-.746 1.551-2.607 2.204-4.159 1.459l-.025-.012 5.462-11.367c.18.105.353.201.52.281 1.151.553 2.076.536 2.483-.311.422-.877-.353-1.824-1.59-2.911l3.289-6.844c2.864 2.806 9.647 6.702 6.522 13.207z"/><path d="m280.836 405.649c-1.411-1.596-3.012-3.095-4.314-3.839l5.377-11.189.025.012c.776.373 1.324 1.023 1.593 1.776.263.751.239 1.606-.134 2.382l-1.221 2.54c1.494.968 2.876 2.093 4.054 3.29 1.49 1.521 1.346 3.992-.314 5.328l-.132.105c-1.487 1.202-3.661 1.024-4.934-.405z"/></g></g><g><g><g><path d="m361.58 434.08-1.12 55.7c-31.9 14.28-67.25 22.22-104.46 22.22-1.49 0-2.97-.01-4.45-.04-19.97-.34-39.37-2.97-57.97-7.63-.58-.15-1.17-.29-1.75-.45-.26-1.18-.39-2.41-.36-3.67l1.39-69.52c.18-8.65 7.33-15.51 15.97-15.34l137.42 2.76c8.63.18 15.5 7.32 15.33 15.97z" fill="#02bd57"/><path d="m361.58 434.08-1.12 55.7c-26.23 11.74-54.8 19.2-84.82 21.47l1.9-94.52 68.71 1.38c8.64.18 15.5 7.32 15.33 15.97z" fill="#02a548"/><path d="m332.79 431.34-111.04-2.23c-.17 8.47-7.18 15.2-15.65 15.03l-.87 43.16c8.47.17 15.2 7.17 15.03 15.64l95.97 1.93h.01c5.37-1.29 10.66-2.76 15.89-4.39 2.11-6.13 7.99-10.48 14.82-10.33l.86-43.16c-8.46-.17-15.19-7.18-15.02-15.65z" fill="#85ef47"/><path d="m347.81 446.99-.86 43.16c-6.83-.15-12.71 4.2-14.82 10.33-5.23 1.63-10.53 3.1-15.9 4.39l-40.45-.81 1.48-73.83 55.53 1.11c-.17 8.47 6.56 15.48 15.02 15.65z" fill="#02bd57"/></g><g><path d="m304.64 467.707c-.312 15.527-13.151 27.866-28.684 27.553-3.987-.08-7.767-.989-11.172-2.56-9.856-4.53-16.607-14.585-16.375-26.124.312-15.527 13.151-27.866 28.679-27.553 15.532.313 27.864 13.157 27.552 28.684z" fill="#fff"/><path d="m304.64 467.707c-.312 15.527-13.151 27.866-28.684 27.553l1.131-56.237c10.016.201 18.701 5.614 23.519 13.598 2.657 4.397 4.145 9.575 4.034 15.086z" fill="#d0f6ff"/></g></g><g><path d="m276.632 461.653c-1.218-.435-2.018-.941-2.001-1.745.016-.787.657-1.073 1.636-1.053.135.003.275.011.421.025 1.494.137 3.573.837 5.519 1.703 1.751.772 3.803.031 4.658-1.679l.076-.15c.955-1.905.062-4.213-1.925-4.978-1.569-.6-3.293-1.051-5.054-1.311l.057-2.818c.017-.86-.316-1.649-.867-2.223-.557-.574-1.326-.938-2.186-.955l-.028-.001c-1.71-.018-3.116 1.344-3.15 3.053l-.059 2.93c-4.867.842-7.93 3.784-8.017 8.103-.133 6.602 6.815 7.479 10.768 8.689 1.577.476 2.674 1.016 2.655 1.989-.019.939-.854 1.339-2.13 1.313-.186-.004-.382-.019-.59-.04-1.763-.187-4.143-1.023-6.274-2.174-.534-.286-1.105-.433-1.673-.444-1.322-.027-2.607.668-3.262 1.926-.907 1.748-.254 3.933 1.495 4.829 1.999 1.025 4.246 1.768 6.499 2.173l-.063 3.121c-.017.861.316 1.649.867 2.223.551.568 1.309.932 2.158.955h.028c1.721.035 3.144-1.332 3.178-3.053l.06-3.003c4.749-.585 8.519-3.137 8.619-8.097.144-7.213-7.645-7.944-11.415-9.308z" fill="#63455d"/></g><g fill="#383838"><path d="m288.045 470.963c-.1 4.96-3.87 7.512-8.619 8.097l-.06 3.003c-.035 1.721-1.457 3.087-3.178 3.053h-.028l.254-12.608c.208.021.404.036.59.04 1.277.026 2.112-.374 2.13-1.313.02-.973-1.078-1.513-2.655-1.989l.153-7.592c3.77 1.363 11.559 2.094 11.413 9.309z"/><path d="m282.206 460.584c-1.946-.866-4.025-1.566-5.519-1.703l.25-12.412.028.001c.861.017 1.63.382 2.186.955.551.574.884 1.362.867 2.223l-.057 2.818c1.761.26 3.485.711 5.054 1.311 1.987.766 2.881 3.073 1.925 4.978l-.076.15c-.855 1.71-2.907 2.451-4.658 1.679z"/></g></g><g><g><g><path d="m293.287 292.126 22.12 65.923c2.75 8.196-1.665 17.07-9.856 19.819l-130.304 43.722c-8.196 2.75-17.07-1.665-19.821-9.861l-22.12-65.923c-2.75-8.196 1.665-17.07 9.861-19.821l130.304-43.722c8.192-2.748 17.066 1.667 19.816 9.863z" fill="#02bd57"/><path d="m293.288 292.126 22.12 65.923c2.75 8.196-1.665 17.07-9.856 19.819l-65.155 21.862-32.079-95.604 65.155-21.862c8.191-2.75 17.065 1.665 19.815 9.862z" fill="#02a548"/><path d="m265.261 299.257-105.294 35.33c2.695 8.031-1.632 16.727-9.668 19.423l13.731 40.923c8.036-2.697 16.732 1.63 19.427 9.661l105.294-35.33c-2.695-8.031 1.632-16.727 9.663-19.422l-13.731-40.923c-8.031 2.696-16.727-1.63-19.422-9.662z" fill="#85ef47"/><path d="m284.683 308.92 13.731 40.923c-8.031 2.695-12.358 11.391-9.663 19.422l-52.65 17.666-23.49-70.008 52.65-17.666c2.695 8.032 11.391 12.358 19.422 9.663z" fill="#02bd57"/></g><g><path d="m251.02 342.98c4.94 14.724-2.988 30.668-17.717 35.61-3.781 1.269-7.645 1.687-11.381 1.357-10.806-.943-20.552-8.133-24.223-19.075-4.94-14.723 2.988-30.668 17.712-35.608 14.728-4.942 30.669 2.993 35.609 17.716z" fill="#fff"/><path d="m251.02 342.98c4.94 14.724-2.988 30.668-17.717 35.61l-17.893-53.327c9.498-3.187 19.498-1.019 26.726 4.874 3.984 3.244 7.13 7.617 8.884 12.843z" fill="#d0f6ff"/></g></g><g><path d="m222.61 346.722c-1.293.001-2.217-.206-2.473-.968-.251-.747.257-1.231 1.185-1.543.128-.043.263-.082.405-.118 1.453-.375 3.646-.416 5.77-.257 1.909.137 3.591-1.252 3.82-3.151l.021-.167c.257-2.115-1.362-3.987-3.491-4.038-1.679-.036-3.454.121-5.2.469l-.896-2.672c-.274-.816-.853-1.446-1.565-1.801-.717-.353-1.564-.436-2.38-.163l-.027.009c-1.616.56-2.48 2.316-1.936 3.937l.932 2.778c-4.298 2.433-6.19 6.236-4.816 10.332 2.101 6.261 8.937 4.744 13.067 4.551 1.645-.083 2.86.055 3.17.977.299.891-.353 1.548-1.563 1.954-.176.059-.366.111-.569.161-1.723.418-4.245.434-6.64.068-.6-.09-1.186-.035-1.725.146-1.253.421-2.229 1.508-2.422 2.913-.265 1.952 1.087 3.788 3.035 4.042 2.228.291 4.593.233 6.851-.145l.993 2.96c.274.816.853 1.446 1.565 1.8.71.349 1.546.436 2.354.172l.027-.009c1.632-.547 2.511-2.314 1.963-3.946l-.956-2.848c4.274-2.152 6.963-5.825 5.385-10.528-2.295-6.839-9.875-4.901-13.884-4.915z" fill="#63455d"/></g><g fill="#383838"><path d="m236.494 351.64c1.578 4.703-1.111 8.376-5.385 10.528l.956 2.848c.547 1.632-.331 3.398-1.963 3.946l-.027.009-4.012-11.956c.203-.05.393-.102.569-.161 1.211-.406 1.862-1.064 1.563-1.954-.31-.922-1.525-1.061-3.17-.977l-2.416-7.199c4.01.012 11.59-1.926 13.885 4.916z"/><path d="m227.498 343.836c-2.124-.159-4.317-.118-5.77.257l-3.949-11.769.027-.009c.816-.274 1.663-.19 2.38.163.712.354 1.292.985 1.565 1.801l.896 2.672c1.746-.348 3.521-.505 5.2-.469 2.129.051 3.748 1.922 3.491 4.038l-.021.167c-.229 1.897-1.91 3.286-3.819 3.149z"/></g></g></g></g></g></svg>