<?xml version="1.0" encoding="UTF-8"?>
<svg width="148px" height="31px" viewBox="0 0 148 31" version="1.1" xmlns="http://www.w3.org/2000/svg" xmlns:xlink="http://www.w3.org/1999/xlink">
    <!-- Generator: Sketch 64 (93537) - https://sketch.com -->
    <title>Group Copy</title>
    <desc>Created with Sketch.</desc>
    <g id="Page-1" stroke="none" stroke-width="1" fill="none" fill-rule="evenodd">
        <g id="SinglePage-Copy-5" transform="translate(-645.000000, -1072.000000)">
            <g id="Group-Copy" transform="translate(645.000000, 1072.000000)">
                <g id="Group-19">
                    <path d="M18.5135801,0 L17.2368,0 C16.8842237,0 16.5983801,0.2858436 16.5983801,0.63841995 C16.5983801,0.9909963 16.3125365,1.2768399 15.9599601,1.2768399 C15.6073838,1.2768399 15.3215402,0.9909963 15.3215402,0.63841995 C15.3215402,0.2858436 15.0357564,0 14.6831801,0 C14.3306037,0 14.0447601,0.2858436 14.0447601,0.63841995 C14.0447601,0.9909963 13.7589764,1.27678005 13.4064,1.27678005 C13.0538237,1.27678005 12.7679801,0.99093645 12.7679801,0.6383601 C12.7679801,0.28578375 12.4821963,0 12.12962,0 C11.7770436,0 11.4912,0.2858436 11.4912,0.63841995 C11.4912,0.9909963 11.2053564,1.2768399 10.8527801,1.2768399 C10.5002037,1.2768399 10.2143601,0.9909963 10.2143601,0.63841995 C10.2143601,0.2858436 9.92857635,0 9.576,0 C9.22342365,0 8.93758005,0.2858436 8.93758005,0.63841995 C8.93758005,0.9909963 8.65173645,1.2768399 8.2991601,1.2768399 C7.94658375,1.2768399 7.6608,0.9909963 7.6608,0.63841995 C7.6608,0.2858436 7.3749564,0 7.02238005,0 C6.6698037,0 6.3839601,0.2858436 6.3839601,0.63841995 C6.3839601,0.9909963 6.09817635,1.27678005 5.7456,1.27678005 C5.39302365,1.27678005 5.10718005,0.99093645 5.10718005,0.6383601 C5.10718005,0.28578375 4.8213963,0 4.46881995,0 C4.1162436,0 3.8304,0.2858436 3.8304,0.63841995 C3.8304,0.9909963 3.5445564,1.2768399 3.19198005,1.2768399 C2.8394037,1.2768399 2.5535601,0.9909963 2.5535601,0.63841995 C2.5535601,0.2858436 2.26777635,0 1.9152,0 L0.63841995,0 C0.2858436,0 0,0.2858436 0,0.63841995 L0,30.0048399 C0,30.3574162 0.2858436,30.6432598 0.63841995,30.6432598 L1.9152,30.6432598 C2.26777635,30.6432598 2.55361995,30.3574162 2.55361995,30.0048399 C2.55361995,29.6522635 2.83946355,29.3664199 3.1920399,29.3664199 C3.54461625,29.3664199 3.83045985,29.6522635 3.83045985,30.0048399 C3.83045985,30.3574162 4.1162436,30.6432598 4.46881995,30.6432598 C4.8213963,30.6432598 5.1072399,30.3573564 5.1072399,30.00478 C5.1072399,29.6522037 5.3930835,29.3663601 5.74565985,29.3663601 C6.0982362,29.3663601 6.3840798,29.6522037 6.3840798,30.00478 C6.3840798,30.3573564 6.6698037,30.6432598 7.02238005,30.6432598 C7.3749564,30.6432598 7.6608,30.3573564 7.6608,30.00478 C7.6608,29.6522037 7.9466436,29.3663601 8.29921995,29.3663601 C8.6517963,29.3663601 8.9376399,29.6522037 8.9376399,30.00478 C8.9376399,30.3573564 9.22342365,30.6432598 9.576,30.6432598 C9.92857635,30.6432598 10.21442,30.3573564 10.21442,30.00478 C10.21442,29.6522037 10.5002635,29.3663601 10.8528399,29.3663601 C11.2054163,29.3663601 11.4912,29.6522037 11.4912,30.00478 C11.4912,30.3573564 11.7770436,30.6432598 12.12962,30.6432598 C12.4821963,30.6432598 12.7680399,30.3573564 12.7680399,30.00478 C12.7680399,29.6522037 13.0538835,29.3663601 13.4064599,29.3663601 C13.7590362,29.3663601 14.0448798,29.6522037 14.0448798,30.00478 C14.0448798,30.3573564 14.3306037,30.6432598 14.6831801,30.6432598 C15.0357564,30.6432598 15.3216,30.3573564 15.3216,30.00478 C15.3216,29.6522037 15.6074436,29.3663601 15.96002,29.3663601 C16.3125963,29.3663601 16.5984399,29.6522037 16.5984399,30.00478 C16.5984399,30.3573564 16.8842237,30.6432598 17.2368,30.6432598 L18.5135801,30.6432598 C18.8661564,30.6432598 19.152,30.3573564 19.152,30.00478 L19.152,0.63841995 C19.152,0.2858436 18.8661564,0 18.5135801,0" id="Fill-1" fill="#52B1B8"></path>
                    <path d="M8.29921995,5.10718005 L3.1920399,5.10718005 C2.83946355,5.10718005 2.55361995,4.82133645 2.55361995,4.4687601 C2.55361995,4.11618375 2.8394037,3.8304 3.19198005,3.8304 L8.2991601,3.8304 C8.65173645,3.8304 8.93758005,4.1162436 8.93758005,4.46881995 C8.93758005,4.8213963 8.6517963,5.10718005 8.29921995,5.10718005" id="Fill-3" fill="#D9F7F9"></path>
                    <path d="M15.96002,8.93758005 L3.19198005,8.93758005 C2.8394037,8.93758005 2.5535601,8.65173645 2.5535601,8.2991601 C2.5535601,7.94658375 2.8394037,7.6608 3.19198005,7.6608 L15.9599601,7.6608 C16.3125365,7.6608 16.5983801,7.9466436 16.5983801,8.29921995 C16.5983801,8.6517963 16.3125963,8.93758005 15.96002,8.93758005" id="Fill-5" fill="#D9F7F9"></path>
                    <path d="M15.96002,12.7679801 L3.19198005,12.7679801 C2.8394037,12.7679801 2.5535601,12.4821365 2.5535601,12.1295601 C2.5535601,11.7769838 2.8394037,11.4912 3.19198005,11.4912 L15.9599601,11.4912 C16.3125365,11.4912 16.5983801,11.7770436 16.5983801,12.12962 C16.5983801,12.4821963 16.3125963,12.7679801 15.96002,12.7679801" id="Fill-7" fill="#D9F7F9"></path>
                    <path d="M9.576,16.59838 L3.19198005,16.59838 C2.8394037,16.59838 2.5535601,16.3125364 2.5535601,15.9599601 C2.5535601,15.6073838 2.8394037,15.3215402 3.19198005,15.3215402 L9.576,15.3215402 C9.92857635,15.3215402 10.2144199,15.6073838 10.2144199,15.9599601 C10.2144199,16.3125963 9.92857635,16.59838 9.576,16.59838" id="Fill-9" fill="#D9F7F9"></path>
                    <path d="M8.29921995,20.42878 L3.1920399,20.42878 C2.83946355,20.42878 2.55361995,20.1429364 2.55361995,19.7903601 C2.55361995,19.4377837 2.83946355,19.1519401 3.1920399,19.1519401 L8.29921995,19.1519401 C8.6517963,19.1519401 8.9376399,19.4377837 8.9376399,19.7903601 C8.9376399,20.1429963 8.6517963,20.42878 8.29921995,20.42878" id="Fill-11" fill="#D9F7F9"></path>
                    <path d="M8.29921995,24.25918 L3.1920399,24.25918 C2.83946355,24.25918 2.55361995,23.9733364 2.55361995,23.6207601 C2.55361995,23.2681837 2.83946355,22.9823401 3.1920399,22.9823401 L8.29921995,22.9823401 C8.6517963,22.9823401 8.9376399,23.2681837 8.9376399,23.6207601 C8.9376399,23.9733963 8.6517963,24.25918 8.29921995,24.25918" id="Fill-13" fill="#D9F7F9"></path>
                    <path d="M13.4064,25.5360199 C11.8883047,25.6859442 10.5055303,24.6560454 10.2144199,23.1585984 C10.1849737,22.8074584 10.4455606,22.4988718 10.7966407,22.4691264 C11.1459253,22.4453061 11.4511005,22.7030202 11.4861127,23.0513472 C11.5423119,23.7165799 12.4015783,24.25918 13.4013127,24.25918 C14.440608,24.25918 15.3165127,23.6744455 15.3165127,22.9824 C15.3165127,22.3593016 14.7113095,21.96094 13.4140608,21.7196248 L13.2787399,21.692812 C11.2077504,21.309772 10.2144199,20.4632536 10.2144199,19.152 C10.4141394,17.5784238 11.8273774,16.4478573 13.4064,16.59838 C14.9240763,16.4483361 16.306731,17.4775765 16.59838,18.9744849 C16.6285444,19.3257445 16.3682568,19.6349895 16.0169373,19.6651539 C16.0166979,19.6651539 16.0163986,19.6652137 16.0161592,19.6652137 C15.6672936,19.6876575 15.3629563,19.4306616 15.3266872,19.0829929 C15.2679744,18.4165033 14.4086481,17.8751601 13.4064,17.8751601 C12.3671047,17.8751601 11.4912,18.4600143 11.4912,19.1519401 C11.4912,19.7750385 12.09766,20.1734001 13.3987392,20.4159721 L13.5378904,20.4427849 C15.6063064,20.8258249 16.6022104,21.6723433 16.6022104,22.983597 C16.4018326,24.5583702 14.98644,25.688817 13.4064,25.5360199" id="Fill-15" fill="#D9F7F9"></path>
                    <path d="M13.4064,26.8128 C13.0538237,26.8128 12.7679801,26.5269564 12.7679801,26.17438 L12.7679801,15.9600199 C12.7679801,15.6074436 13.0538237,15.3216 13.4064,15.3216 C13.7589763,15.3216 14.04482,15.6074436 14.04482,15.9600199 L14.04482,26.1744399 C14.04482,26.5269564 13.7589763,26.8128 13.4064,26.8128" id="Fill-17" fill="#D9F7F9"></path>
                </g>
                <path d="M29.8053,21.5835 C30.094575,21.5835 30.3314812,21.4962187 30.5160188,21.3216562 C30.7005563,21.1470937 30.792825,20.9301375 30.792825,20.6707875 L30.792825,20.6707875 L30.792,12.8305 L33.1419375,12.8304375 C33.3494175,12.8304375 33.5297655,12.7809615 33.6829815,12.6820095 L33.7928062,12.5985187 C33.9673687,12.4439062 34.05465,12.236925 34.05465,11.977575 C34.05465,11.718225 33.9673687,11.50875 33.7928062,11.34915 C33.6182437,11.18955 33.4012875,11.10975 33.1419375,11.10975 L33.1419375,11.10975 L26.4985875,11.10975 C26.2392375,11.10975 26.0222812,11.1870562 25.8477188,11.3416687 C25.6731563,11.4962812 25.585875,11.7032625 25.585875,11.9626125 C25.585875,12.2219625 25.6731563,12.4314375 25.8477188,12.5910375 C26.0222812,12.7506375 26.2392375,12.8304375 26.4985875,12.8304375 L26.4985875,12.8304375 L28.847,12.8305 L28.8477,20.6707875 C28.8477,20.8869125 28.9100437,21.0735974 29.0347313,21.2308422 L29.117025,21.3216562 C29.296575,21.4962187 29.526,21.5835 29.8053,21.5835 Z M36.2541375,12.606 C36.5932875,12.606 36.837675,12.5536312 36.9873,12.4488937 C37.136925,12.3441562 37.2117375,12.14715 37.2117375,11.857875 L37.2117375,11.857875 L37.2117375,11.5735875 C37.2117375,11.2942875 37.1419125,11.099775 37.0022625,10.99005 C36.8626125,10.880325 36.618225,10.8254625 36.2691,10.8254625 C35.9499,10.8254625 35.7129938,10.8778312 35.5583812,10.9825687 C35.4037687,11.0873062 35.3264625,11.2843125 35.3264625,11.5735875 L35.3264625,11.5735875 L35.3264625,11.857875 C35.3264625,12.137175 35.3962875,12.3316875 35.5359375,12.4414125 C35.6755875,12.5511375 35.9149875,12.606 36.2541375,12.606 Z M36.2691,21.5835 C36.52845,21.5835 36.7429125,21.4962187 36.9124875,21.3216562 C37.0820625,21.1470937 37.16685,20.9301375 37.16685,20.6707875 L37.16685,20.6707875 L37.16685,14.491275 C37.16685,14.231925 37.0820625,14.0149687 36.9124875,13.8404062 C36.7429125,13.6658437 36.52845,13.5785625 36.2691,13.5785625 C36.00975,13.5785625 35.7952875,13.6658437 35.6257125,13.8404062 C35.4561375,14.0149687 35.37135,14.231925 35.37135,14.491275 L35.37135,14.491275 L35.37135,20.6707875 C35.37135,20.9301375 35.4561375,21.1470937 35.6257125,21.3216562 C35.7952875,21.4962187 36.00975,21.5835 36.2691,21.5835 Z M39.9049875,24.576 C40.1643375,24.576 40.3788,24.4887187 40.548375,24.3141562 C40.71795,24.1395937 40.8027375,23.9226375 40.8027375,23.6632875 L40.8027375,23.6632875 L40.802,20.7275 L40.8808418,20.804253 C40.9241333,20.844552 40.9698188,20.8847513 41.0178983,20.9248507 L41.1693188,21.04485 C41.4336563,21.24435 41.7403875,21.4089375 42.0895125,21.5386125 C42.4386375,21.6682875 42.8127,21.733125 43.2117,21.733125 C43.89,21.733125 44.5009687,21.5560688 45.0446063,21.2019563 C45.5882438,20.8478438 46.0221562,20.3590687 46.3463438,19.7356312 C46.6705312,19.1121937 46.832625,18.3915 46.832625,17.57355 C46.832625,16.7556 46.6705312,16.0374 46.3463438,15.41895 C46.0221562,14.8005 45.5832562,14.3142188 45.0296437,13.9601062 C44.4760312,13.6059937 43.8501,13.4289375 43.15185,13.4289375 C42.802725,13.4289375 42.4710563,13.4887875 42.1568438,13.6084875 C41.8426312,13.7281875 41.565825,13.8803063 41.326425,14.0648438 C41.087025,14.2493813 40.8975,14.4339188 40.75785,14.6184563 L40.802,14.5645 L40.8027375,14.491275 C40.8027375,14.27515 40.7438573,14.0884651 40.6260969,13.9312203 L40.548375,13.8404063 C40.3788,13.6658438 40.1643375,13.5785625 39.9049875,13.5785625 C39.6456375,13.5785625 39.431175,13.6658438 39.2616,13.8404063 C39.092025,14.0149688 39.0072375,14.231925 39.0072375,14.491275 L39.0072375,14.491275 L39.0072375,23.6632875 C39.0072375,23.9326125 39.092025,24.1520625 39.2616,24.3216375 C39.431175,24.4912125 39.6456375,24.576 39.9049875,24.576 Z M42.9274125,20.08725 C42.4885125,20.08725 42.104475,19.977525 41.7753,19.758075 C41.446125,19.538625 41.1892687,19.2368812 41.0047312,18.8528437 C40.8201938,18.4688062 40.727925,18.042375 40.727925,17.57355 C40.727925,17.09475 40.8201938,16.6683188 41.0047312,16.2942562 C41.1892687,15.9201937 41.446125,15.6234375 41.7753,15.4039875 C42.104475,15.1845375 42.4885125,15.0748125 42.9274125,15.0748125 C43.3663125,15.0748125 43.7478562,15.1845375 44.0720437,15.4039875 C44.3962312,15.6234375 44.6505937,15.9201937 44.8351313,16.2942562 C45.0196687,16.6683188 45.1119375,17.09475 45.1119375,17.57355 C45.1119375,18.042375 45.0196687,18.4688062 44.8351313,18.8528437 C44.6505937,19.2368812 44.3962312,19.538625 44.0720437,19.758075 C43.7478562,19.977525 43.3663125,20.08725 42.9274125,20.08725 Z M53.3413125,21.733125 C53.6305875,21.733125 53.914875,21.7106813 54.194175,21.6657937 C54.473475,21.6209062 54.7502813,21.5560687 55.0245938,21.4712812 C55.2989063,21.3864937 55.5657375,21.2792625 55.8250875,21.1495875 C56.0744625,21.0298875 56.2265813,20.8378687 56.2814438,20.5735312 C56.3363062,20.3091937 56.2639875,20.0523375 56.0644875,19.8029625 C55.9248375,19.6234125 55.7527688,19.518675 55.5482813,19.48875 C55.3437938,19.458825 55.1368125,19.4937375 54.9273375,19.5934875 C54.6779625,19.7231625 54.4186125,19.8129375 54.1492875,19.8628125 C53.8799625,19.9126875 53.6106375,19.937625 53.3413125,19.937625 C52.8525375,19.937625 52.398675,19.8653062 51.979725,19.7206688 C51.560775,19.5760312 51.1966875,19.3540875 50.8874625,19.0548375 C50.5782375,18.7555875 50.3363437,18.381525 50.1617813,17.93265 C49.9872187,17.483775 49.8999375,16.9551 49.8999375,16.346625 C49.8999375,15.827925 49.9772437,15.3541125 50.1318562,14.9251875 C50.2864687,14.4962625 50.5134,14.1246937 50.81265,13.8104812 C51.1119,13.4962687 51.4734938,13.254375 51.8974312,13.0848 C52.3213688,12.915225 52.8026625,12.8304375 53.3413125,12.8304375 C53.6305875,12.8304375 53.9073938,12.8603625 54.1717313,12.9202125 C54.4360688,12.9800625 54.6879375,13.06485 54.9273375,13.174575 C55.1368125,13.274325 55.3437938,13.314225 55.5482813,13.294275 C55.7527688,13.274325 55.91985,13.174575 56.049525,12.995025 C56.23905,12.7656 56.3113687,12.5112375 56.2664812,12.2319375 C56.2215937,11.9526375 56.069475,11.74815 55.810125,11.618475 C55.44105,11.42895 55.0470375,11.2843125 54.6280875,11.1845625 C54.2091375,11.0848125 53.7802125,11.0349375 53.3413125,11.0349375 C52.5632625,11.0349375 51.8450625,11.1671062 51.1867125,11.4314437 C50.5283625,11.6957812 49.9572938,12.0648563 49.4735062,12.5386687 C48.9897188,13.0124812 48.6156563,13.573575 48.3513188,14.22195 C48.0869813,14.870325 47.9548125,15.57855 47.9548125,16.346625 C47.9548125,17.2344 48.09945,18.0149437 48.388725,18.6882562 C48.678,19.3615687 49.0745062,19.9226625 49.5782437,20.3715375 C50.0819812,20.8204125 50.6555437,21.1595625 51.2989313,21.3889875 C51.9423187,21.6184125 52.6231125,21.733125 53.3413125,21.733125 Z M60.9422625,21.733125 C61.3213125,21.733125 61.6729312,21.6707812 61.9971187,21.5460937 C62.3213062,21.4214062 62.6031,21.2692875 62.8425,21.0897375 C62.9622,20.9999625 63.0694313,20.9095641 63.1641937,20.8185422 L63.292,20.6865 L63.2984406,20.7969297 C63.3172823,20.9604089 63.3738073,21.1050464 63.4680156,21.2308422 L63.5457375,21.3216562 C63.7153125,21.4962187 63.929775,21.5835 64.189125,21.5835 C64.448475,21.5835 64.6629375,21.4962187 64.8325125,21.3216562 C65.0020875,21.1470937 65.086875,20.9301375 65.086875,20.6707875 L65.086875,20.6707875 L65.086875,14.34165 C65.086875,14.072325 65.0020875,13.852875 64.8325125,13.6833 C64.6629375,13.513725 64.448475,13.4289375 64.189125,13.4289375 C63.929775,13.4289375 63.7153125,13.5162187 63.5457375,13.6907812 C63.3761625,13.8653437 63.291375,14.0823 63.291375,14.34165 L63.291375,14.34165 L63.291,14.3615 C63.245764,14.3187407 63.1991062,14.2773113 63.1510267,14.2372118 L62.9996062,14.1172125 C62.7352687,13.9177125 62.42355,13.753125 62.06445,13.62345 C61.70535,13.493775 61.3113375,13.4289375 60.8824125,13.4289375 C60.2140875,13.4289375 59.6056125,13.6059937 59.0569875,13.9601062 C58.5083625,14.3142188 58.0719562,14.8029937 57.7477687,15.4264312 C57.4235812,16.0498688 57.2614875,16.7705625 57.2614875,17.5885125 C57.2614875,18.3964875 57.4235812,19.1121937 57.7477687,19.7356312 C58.0719562,20.3590687 58.51335,20.8478438 59.07195,21.2019563 C59.63055,21.5560688 60.2539875,21.733125 60.9422625,21.733125 Z M61.1667,20.08725 C60.737775,20.08725 60.358725,19.977525 60.02955,19.758075 C59.700375,19.538625 59.4435187,19.239375 59.2589812,18.860325 C59.0744438,18.481275 58.982175,18.0573375 58.982175,17.5885125 C58.982175,17.1097125 59.0744438,16.6807875 59.2589812,16.3017375 C59.4435187,15.9226875 59.700375,15.6234375 60.02955,15.4039875 C60.358725,15.1845375 60.737775,15.0748125 61.1667,15.0748125 C61.6056,15.0748125 61.9896375,15.1845375 62.3188125,15.4039875 C62.6479875,15.6234375 62.9048438,15.9226875 63.0893813,16.3017375 C63.2739187,16.6807875 63.3661875,17.1097125 63.3661875,17.5885125 C63.3661875,18.0573375 63.2739187,18.481275 63.0893813,18.860325 C62.9048438,19.239375 62.6479875,19.538625 62.3188125,19.758075 C61.9896375,19.977525 61.6056,20.08725 61.1667,20.08725 Z M68.0644125,21.5835 C68.3237625,21.5835 68.5407187,21.4962187 68.7152813,21.3216562 C68.8898438,21.1470937 68.977125,20.9301375 68.977125,20.6707875 L68.977125,20.6707875 L68.977125,11.4239625 C68.977125,11.1646125 68.8948313,10.9476562 68.7302437,10.7730937 C68.5656562,10.5985312 68.3536875,10.51125 68.0943375,10.51125 C67.8349875,10.51125 67.6180313,10.5985312 67.4434687,10.7730937 C67.2689062,10.9476562 67.181625,11.1646125 67.181625,11.4239625 L67.181625,11.4239625 L67.181625,20.6707875 C67.181625,20.9301375 67.2664125,21.1470937 67.4359875,21.3216562 C67.6055625,21.4962187 67.8150375,21.5835 68.0644125,21.5835 Z M74.3337,21.733125 C74.862375,21.733125 75.3536438,21.6707812 75.8075063,21.5460937 C76.2613688,21.4214062 76.62795,21.2568188 76.90725,21.0523313 C77.18655,20.8478437 77.3262,20.6209125 77.3262,20.3715375 C77.3262,20.1321375 77.256375,19.9301437 77.116725,19.7655562 C76.977075,19.6009687 76.777575,19.518675 76.518225,19.518675 C76.298775,19.518675 76.1341875,19.5635625 76.0244625,19.6533375 C75.9147375,19.7431125 75.79005,19.8279 75.6504,19.9077 C75.5307,19.96755 75.381075,20.0124375 75.201525,20.0423625 C75.021975,20.0722875 74.8075125,20.08725 74.5581375,20.08725 C74.1092625,20.08725 73.7127563,19.977525 73.3686187,19.758075 C73.0244813,19.538625 72.7551562,19.2418688 72.5606437,18.8678063 C72.3661312,18.4937437 72.268875,18.0673125 72.268875,17.5885125 C72.268875,17.0997375 72.3636375,16.6683188 72.5531625,16.2942562 C72.7426875,15.9201937 73.0145063,15.6234375 73.3686187,15.4039875 C73.7227313,15.1845375 74.15415,15.0748125 74.662875,15.0748125 C74.762625,15.0748125 74.9147438,15.0922687 75.1192313,15.1271812 C75.3237188,15.1620937 75.4758375,15.209475 75.5755875,15.269325 C75.6853125,15.329175 75.780075,15.3940125 75.859875,15.4638375 C75.939675,15.5336625 76.0319438,15.5910187 76.1366813,15.6359062 C76.2414188,15.6807937 76.3735875,15.7032375 76.5331875,15.7032375 C76.7626125,15.7032375 76.937175,15.6159562 77.056875,15.4413937 C77.176575,15.2668312 77.236425,15.0798 77.236425,14.8803 C77.236425,14.58105 77.1192187,14.3241937 76.8848062,14.1097312 C76.6503938,13.8952687 76.3212187,13.7281875 75.8972813,13.6084875 C75.4733437,13.4887875 74.9770875,13.4289375 74.4085125,13.4289375 C73.6404375,13.4289375 72.9596437,13.6059937 72.3661312,13.9601062 C71.7726187,14.3142188 71.3087813,14.8029937 70.9746188,15.4264312 C70.6404562,16.0498688 70.473375,16.7705625 70.473375,17.5885125 C70.473375,18.3665625 70.6304813,19.0698 70.9446937,19.698225 C71.2589062,20.32665 71.7052875,20.8229062 72.2838375,21.1869937 C72.8623875,21.5510813 73.545675,21.733125 74.3337,21.733125 Z M82.0393875,21.733125 C83.1466125,21.733125 83.9944875,21.4239 84.5830125,20.80545 C85.1715375,20.187 85.4658,19.3491 85.4658,18.29175 L85.4658,18.29175 L85.4658,14.491275 C85.4658,14.231925 85.3810125,14.0149687 85.2114375,13.8404062 C85.0418625,13.6658437 84.8274,13.5785625 84.56805,13.5785625 C84.3087,13.5785625 84.0942375,13.6658437 83.9246625,13.8404062 C83.7550875,14.0149687 83.6703,14.231925 83.6703,14.491275 L83.6703,14.491275 L83.6703,18.29175 C83.6703,18.900225 83.5356375,19.3515937 83.2663125,19.6458563 C82.9969875,19.9401187 82.5880125,20.08725 82.0393875,20.08725 C81.5007375,20.08725 81.09675,19.9401187 80.827425,19.6458563 C80.5581,19.3515937 80.4234375,18.900225 80.4234375,18.29175 L80.4234375,18.29175 L80.4234375,14.491275 C80.4234375,14.231925 80.33865,14.0149687 80.169075,13.8404062 C79.9995,13.6658437 79.7850375,13.5785625 79.5256875,13.5785625 C79.2663375,13.5785625 79.051875,13.6658437 78.8823,13.8404062 C78.712725,14.0149687 78.6279375,14.231925 78.6279375,14.491275 L78.6279375,14.491275 L78.6279375,18.29175 C78.6279375,19.3491 78.9197063,20.187 79.5032438,20.80545 C80.0867813,21.4239 80.9321625,21.733125 82.0393875,21.733125 Z M88.4433375,21.5835 C88.7026875,21.5835 88.9196438,21.4962187 89.0942063,21.3216562 C89.2687688,21.1470937 89.35605,20.9301375 89.35605,20.6707875 L89.35605,20.6707875 L89.35605,11.4239625 C89.35605,11.1646125 89.2737563,10.9476562 89.1091688,10.7730937 C88.9445812,10.5985312 88.7326125,10.51125 88.4732625,10.51125 C88.2139125,10.51125 87.9969563,10.5985312 87.8223938,10.7730937 C87.6478312,10.9476562 87.56055,11.1646125 87.56055,11.4239625 L87.56055,11.4239625 L87.56055,20.6707875 C87.56055,20.9301375 87.6453375,21.1470937 87.8149125,21.3216562 C87.9844875,21.4962187 88.1939625,21.5835 88.4433375,21.5835 Z M94.6827,21.733125 C95.06175,21.733125 95.4133688,21.6707812 95.7375563,21.5460937 C96.0617438,21.4214062 96.3435375,21.2692875 96.5829375,21.0897375 C96.7026375,20.9999625 96.8098688,20.9095641 96.9046313,20.8185422 L97.032,20.6875 L97.0388781,20.7969297 C97.0577198,20.9604089 97.1142448,21.1050464 97.2084531,21.2308422 L97.286175,21.3216562 C97.45575,21.4962187 97.6702125,21.5835 97.9295625,21.5835 C98.1889125,21.5835 98.403375,21.4962187 98.57295,21.3216562 C98.742525,21.1470937 98.8273125,20.9301375 98.8273125,20.6707875 L98.8273125,20.6707875 L98.8273125,14.34165 C98.8273125,14.072325 98.742525,13.852875 98.57295,13.6833 C98.403375,13.513725 98.1889125,13.4289375 97.9295625,13.4289375 C97.6702125,13.4289375 97.45575,13.5162187 97.286175,13.6907812 C97.1166,13.8653437 97.0318125,14.0823 97.0318125,14.34165 L97.0318125,14.34165 L97.031,14.3615 C96.9860557,14.3187407 96.9395438,14.2773113 96.8914643,14.2372118 L96.7400438,14.1172125 C96.4757063,13.9177125 96.1639875,13.753125 95.8048875,13.62345 C95.4457875,13.493775 95.051775,13.4289375 94.62285,13.4289375 C93.954525,13.4289375 93.34605,13.6059937 92.797425,13.9601062 C92.2488,14.3142188 91.8123938,14.8029937 91.4882063,15.4264312 C91.1640187,16.0498688 91.001925,16.7705625 91.001925,17.5885125 C91.001925,18.3964875 91.1640187,19.1121937 91.4882063,19.7356312 C91.8123938,20.3590687 92.2537875,20.8478438 92.8123875,21.2019563 C93.3709875,21.5560688 93.994425,21.733125 94.6827,21.733125 Z M94.9071375,20.08725 C94.4782125,20.08725 94.0991625,19.977525 93.7699875,19.758075 C93.4408125,19.538625 93.1839563,19.239375 92.9994188,18.860325 C92.8148813,18.481275 92.7226125,18.0573375 92.7226125,17.5885125 C92.7226125,17.1097125 92.8148813,16.6807875 92.9994188,16.3017375 C93.1839563,15.9226875 93.4408125,15.6234375 93.7699875,15.4039875 C94.0991625,15.1845375 94.4782125,15.0748125 94.9071375,15.0748125 C95.3460375,15.0748125 95.730075,15.1845375 96.05925,15.4039875 C96.388425,15.6234375 96.6452813,15.9226875 96.8298188,16.3017375 C97.0143563,16.6807875 97.106625,17.1097125 97.106625,17.5885125 C97.106625,18.0573375 97.0143563,18.481275 96.8298188,18.860325 C96.6452813,19.239375 96.388425,19.538625 96.05925,19.758075 C95.730075,19.977525 95.3460375,20.08725 94.9071375,20.08725 Z M103.749975,21.5835 C104.0991,21.5835 104.425781,21.493725 104.730019,21.314175 C105.034256,21.134625 105.186375,20.9052 105.186375,20.6259 C105.186375,20.396475 105.129019,20.216925 105.014306,20.08725 C104.899594,19.957575 104.772413,19.8927375 104.632762,19.8927375 C104.503087,19.8927375 104.388375,19.9151812 104.288625,19.9600687 C104.188875,20.0049562 104.07915,20.0274 103.95945,20.0274 C103.849725,20.0274 103.747481,20.00745 103.652719,19.96755 C103.557956,19.92765 103.483144,19.8628125 103.428281,19.7730375 C103.373419,19.6832625 103.345988,19.56855 103.345988,19.4289 L103.345988,19.4289 L103.345,15.3745 L104.408325,15.3740625 C104.599845,15.3740625 104.765829,15.3245865 104.906277,15.2256345 L105.006825,15.1421437 C105.166425,14.9875312 105.246225,14.7955125 105.246225,14.5660875 C105.246225,14.3266875 105.166425,14.1271875 105.006825,13.9675875 C104.847225,13.8079875 104.647725,13.7281875 104.408325,13.7281875 L104.408325,13.7281875 L103.345,13.7285 L103.345988,12.7705875 C103.345988,12.5544625 103.288839,12.3677776 103.174542,12.2105328 L103.099106,12.1197187 C102.934519,11.9451562 102.72255,11.857875 102.4632,11.857875 C102.20385,11.857875 101.986894,11.9451562 101.812331,12.1197187 C101.637769,12.2942812 101.550488,12.5112375 101.550488,12.7705875 L101.550488,12.7705875 L101.55,13.7285 L100.862212,13.7281875 C100.670693,13.7281875 100.504709,13.7776635 100.364261,13.8766155 L100.263712,13.9601062 C100.104112,14.1147187 100.024312,14.3067375 100.024312,14.5361625 C100.024312,14.7755625 100.104112,14.9750625 100.263712,15.1346625 C100.423312,15.2942625 100.622812,15.3740625 100.862212,15.3740625 L100.862212,15.3740625 L101.55,15.3745 L101.550488,19.5037125 C101.550488,19.9226625 101.605452,20.2646625 101.71538,20.5297125 L101.774925,20.655825 C101.92455,20.935125 102.111581,21.1421062 102.336019,21.2767687 C102.560456,21.4114312 102.799856,21.4962188 103.054219,21.5311313 C103.308581,21.5660437 103.5405,21.5835 103.749975,21.5835 Z M110.438212,21.733125 C111.196312,21.733125 111.882094,21.5585625 112.495556,21.2094375 C113.109019,20.8603125 113.597794,20.3740313 113.961881,19.7505938 C114.325969,19.1271562 114.508012,18.4064625 114.508012,17.5885125 C114.508012,16.7705625 114.325969,16.0498688 113.961881,15.4264312 C113.597794,14.8029937 113.109019,14.3142188 112.495556,13.9601062 C111.882094,13.6059937 111.196312,13.4289375 110.438212,13.4289375 C109.680112,13.4289375 108.994331,13.6059937 108.380869,13.9601062 C107.767406,14.3142188 107.278631,14.8029937 106.914544,15.4264312 C106.550456,16.0498688 106.368412,16.7705625 106.368412,17.5885125 C106.368412,18.4064625 106.550456,19.1271562 106.914544,19.7505938 C107.278631,20.3740313 107.767406,20.8603125 108.380869,21.2094375 C108.994331,21.5585625 109.680112,21.733125 110.438212,21.733125 Z M110.438212,20.08725 C110.019262,20.08725 109.637719,19.9825125 109.293581,19.7730375 C108.949444,19.5635625 108.675131,19.2717938 108.470644,18.8977312 C108.266156,18.5236687 108.163912,18.0872625 108.163912,17.5885125 C108.163912,17.0797875 108.266156,16.6383937 108.470644,16.2643312 C108.675131,15.8902687 108.949444,15.5985 109.293581,15.389025 C109.637719,15.17955 110.019262,15.0748125 110.438212,15.0748125 C110.857163,15.0748125 111.238706,15.17955 111.582844,15.389025 C111.926981,15.5985 112.201294,15.8902687 112.405781,16.2643312 C112.610269,16.6383937 112.712513,17.0797875 112.712513,17.5885125 C112.712513,18.0872625 112.610269,18.5236687 112.405781,18.8977312 C112.201294,19.2717938 111.926981,19.5635625 111.582844,19.7730375 C111.238706,19.9825125 110.857163,20.08725 110.438212,20.08725 Z M116.902012,21.5835 C117.161362,21.5835 117.375825,21.4962187 117.5454,21.3216562 C117.714975,21.1470937 117.799762,20.9301375 117.799762,20.6707875 L117.799762,20.6707875 L117.799762,17.124675 C117.799762,16.765575 117.847144,16.4538562 117.941906,16.1895187 C118.036669,15.9251812 118.161356,15.7032375 118.315969,15.5236875 C118.470581,15.3441375 118.640156,15.2119687 118.824694,15.1271812 C119.009231,15.0423937 119.191275,15 119.370825,15 C119.570325,15 119.747381,15.0349125 119.901994,15.1047375 L120.021226,15.1505602 C120.143732,15.1898367 120.276056,15.209475 120.4182,15.209475 C120.6177,15.209475 120.802238,15.1371563 120.971812,14.9925187 C121.141387,14.8478812 121.226175,14.610975 121.226175,14.2818 C121.226175,14.052375 121.123931,13.852875 120.919444,13.6833 C120.714956,13.513725 120.463088,13.4289375 120.163837,13.4289375 C119.914462,13.4289375 119.665087,13.4588625 119.415712,13.5187125 C119.166337,13.5785625 118.931925,13.6708312 118.712475,13.7955187 C118.493025,13.9202062 118.296019,14.0748187 118.121456,14.2593562 C118.034175,14.351625 117.954998,14.4507516 117.883927,14.5567359 L117.799,14.6955 L117.799762,14.491275 C117.799762,14.27515 117.740882,14.0884651 117.623122,13.9312203 L117.5454,13.8404062 C117.375825,13.6658437 117.161362,13.5785625 116.902012,13.5785625 C116.642663,13.5785625 116.4282,13.6658437 116.258625,13.8404062 C116.08905,14.0149687 116.004262,14.231925 116.004262,14.491275 L116.004262,14.491275 L116.004262,20.6707875 C116.004262,20.9301375 116.08905,21.1470937 116.258625,21.3216562 C116.4282,21.4962187 116.642663,21.5835 116.902012,21.5835 Z M121.690013,21.5685375 C121.979288,21.5685375 122.201231,21.4912312 122.355844,21.3366187 C122.510456,21.1820063 122.587763,20.9600625 122.587763,20.6707875 L122.587763,20.6707875 L122.587763,20.416425 C122.587763,20.12715 122.510456,19.9052062 122.355844,19.7505938 C122.201231,19.5959813 121.979288,19.518675 121.690013,19.518675 L121.690013,19.518675 L121.4955,19.518675 C121.206225,19.518675 120.984281,19.5959813 120.829669,19.7505938 C120.675056,19.9052062 120.59775,20.12715 120.59775,20.416425 L120.59775,20.416425 L120.59775,20.6707875 C120.59775,20.9600625 120.675056,21.1820063 120.829669,21.3366187 C120.984281,21.4912312 121.206225,21.5685375 121.4955,21.5685375 L121.4955,21.5685375 L121.690013,21.5685375 Z M128.049075,21.733125 C128.807175,21.733125 129.492956,21.5585625 130.106419,21.2094375 C130.719881,20.8603125 131.208656,20.3740313 131.572744,19.7505938 C131.936831,19.1271562 132.118875,18.4064625 132.118875,17.5885125 C132.118875,16.7705625 131.936831,16.0498688 131.572744,15.4264312 C131.208656,14.8029937 130.719881,14.3142188 130.106419,13.9601062 C129.492956,13.6059937 128.807175,13.4289375 128.049075,13.4289375 C127.290975,13.4289375 126.605194,13.6059937 125.991731,13.9601062 C125.378269,14.3142188 124.889494,14.8029937 124.525406,15.4264312 C124.161319,16.0498688 123.979275,16.7705625 123.979275,17.5885125 C123.979275,18.4064625 124.161319,19.1271562 124.525406,19.7505938 C124.889494,20.3740313 125.378269,20.8603125 125.991731,21.2094375 C126.605194,21.5585625 127.290975,21.733125 128.049075,21.733125 Z M128.049075,20.08725 C127.630125,20.08725 127.248581,19.9825125 126.904444,19.7730375 C126.560306,19.5635625 126.285994,19.2717938 126.081506,18.8977312 C125.877019,18.5236687 125.774775,18.0872625 125.774775,17.5885125 C125.774775,17.0797875 125.877019,16.6383937 126.081506,16.2643312 C126.285994,15.8902687 126.560306,15.5985 126.904444,15.389025 C127.248581,15.17955 127.630125,15.0748125 128.049075,15.0748125 C128.468025,15.0748125 128.849569,15.17955 129.193706,15.389025 C129.537844,15.5985 129.812156,15.8902687 130.016644,16.2643312 C130.221131,16.6383937 130.323375,17.0797875 130.323375,17.5885125 C130.323375,18.0872625 130.221131,18.5236687 130.016644,18.8977312 C129.812156,19.2717938 129.537844,19.5635625 129.193706,19.7730375 C128.849569,19.9825125 128.468025,20.08725 128.049075,20.08725 Z M134.512875,21.5835 C134.772225,21.5835 134.986688,21.4962187 135.156263,21.3216562 C135.325838,21.1470937 135.410625,20.9301375 135.410625,20.6707875 L135.410625,20.6707875 L135.410625,17.124675 C135.410625,16.765575 135.458006,16.4538562 135.552769,16.1895187 C135.647531,15.9251812 135.772219,15.7032375 135.926831,15.5236875 C136.081444,15.3441375 136.251019,15.2119687 136.435556,15.1271812 C136.620094,15.0423937 136.802138,15 136.981688,15 C137.181188,15 137.358244,15.0349125 137.512856,15.1047375 L137.632089,15.1505602 C137.754594,15.1898367 137.886919,15.209475 138.029063,15.209475 C138.228563,15.209475 138.4131,15.1371563 138.582675,14.9925187 C138.75225,14.8478812 138.837038,14.610975 138.837038,14.2818 C138.837038,14.052375 138.734794,13.852875 138.530306,13.6833 C138.325819,13.513725 138.07395,13.4289375 137.7747,13.4289375 C137.525325,13.4289375 137.27595,13.4588625 137.026575,13.5187125 C136.7772,13.5785625 136.542788,13.6708312 136.323338,13.7955187 C136.103888,13.9202062 135.906881,14.0748187 135.732319,14.2593562 C135.645038,14.351625 135.565861,14.4507516 135.494789,14.5567359 L135.41,14.6955 L135.410625,14.491275 C135.410625,14.27515 135.351745,14.0884651 135.233984,13.9312203 L135.156263,13.8404062 C134.986688,13.6658437 134.772225,13.5785625 134.512875,13.5785625 C134.253525,13.5785625 134.039062,13.6658437 133.869487,13.8404062 C133.699912,14.0149687 133.615125,14.231925 133.615125,14.491275 L133.615125,14.491275 L133.615125,20.6707875 C133.615125,20.9301375 133.699912,21.1470937 133.869487,21.3216562 C134.039062,21.4962187 134.253525,21.5835 134.512875,21.5835 Z M143.415563,24.576 C144.113812,24.576 144.767175,24.4587937 145.37565,24.2243813 C145.984125,23.9899688 146.475394,23.6109188 146.849456,23.0872313 C147.223519,22.5635438 147.41055,21.8677875 147.41055,20.9999625 L147.41055,20.9999625 L147.41055,14.34165 C147.41055,14.072325 147.325762,13.852875 147.156188,13.6833 C146.986613,13.513725 146.77215,13.4289375 146.5128,13.4289375 C146.25345,13.4289375 146.038988,13.5162188 145.869413,13.6907813 C145.699838,13.8653438 145.61505,14.0823 145.61505,14.34165 L145.61505,14.34165 L145.615,14.5115 L145.58722,14.4790057 C145.511809,14.3980087 145.42762,14.3174108 145.334653,14.2372118 L145.188619,14.1172125 C144.934256,13.9177125 144.632513,13.753125 144.283388,13.62345 C143.934262,13.493775 143.550225,13.4289375 143.131275,13.4289375 C142.443,13.4289375 141.819563,13.6059937 141.260963,13.9601062 C140.702362,14.3142188 140.258475,14.8029938 139.9293,15.4264313 C139.600125,16.0498688 139.435538,16.7705625 139.435538,17.5885125 C139.435538,18.3964875 139.600125,19.1121937 139.9293,19.7356312 C140.258475,20.3590687 140.70735,20.8478438 141.275925,21.2019563 C141.8445,21.5560688 142.4829,21.733125 143.191125,21.733125 C143.550225,21.733125 143.889375,21.6707812 144.208575,21.5460937 C144.527775,21.4214063 144.804581,21.2692875 145.038994,21.0897375 C145.273406,20.9101875 145.457944,20.7281437 145.592606,20.5436062 L145.592606,20.5436062 L145.615,20.5105 L145.61505,21.2393625 C145.61505,21.7092958 145.473183,22.0885921 145.18945,22.3772514 L145.0764,22.48125 C144.7173,22.7805 144.163688,22.930125 143.415563,22.930125 C143.206088,22.930125 142.964194,22.8927188 142.689881,22.8179063 C142.415569,22.7430937 142.1637,22.6608 141.934275,22.571025 C141.70485,22.48125 141.540263,22.4214 141.440513,22.391475 C141.221063,22.311675 141.011588,22.3241437 140.812088,22.4288812 C140.612588,22.5336188 140.46795,22.730625 140.378175,23.0199 C140.30835,23.23935 140.330794,23.4463313 140.445506,23.6408438 C140.560219,23.8353562 140.7672,23.99745 141.06645,24.127125 C141.216075,24.186975 141.435525,24.2518125 141.7248,24.3216375 C142.014075,24.3914625 142.318313,24.4513125 142.637513,24.5011875 C142.956713,24.5510625 143.216063,24.576 143.415563,24.576 Z M143.415563,20.08725 C142.966688,20.08725 142.572675,19.977525 142.233525,19.758075 C141.894375,19.538625 141.630038,19.239375 141.440513,18.860325 C141.250988,18.481275 141.156225,18.0573375 141.156225,17.5885125 C141.156225,17.1097125 141.250988,16.6807875 141.440513,16.3017375 C141.630038,15.9226875 141.894375,15.6234375 142.233525,15.4039875 C142.572675,15.1845375 142.966688,15.0748125 143.415563,15.0748125 C143.874413,15.0748125 144.273413,15.1845375 144.612563,15.4039875 C144.951713,15.6234375 145.21605,15.9226875 145.405575,16.3017375 C145.5951,16.6807875 145.689863,17.1097125 145.689863,17.5885125 C145.689863,18.0573375 145.5951,18.481275 145.405575,18.860325 C145.21605,19.239375 144.951713,19.538625 144.612563,19.758075 C144.273413,19.977525 143.874413,20.08725 143.415563,20.08725 Z" id="TipCalculator.org" fill="#52B1B8" fill-rule="nonzero"></path>
            </g>
        </g>
    </g>
</svg>