<?xml version="1.0" encoding="UTF-8"?>
<svg width="179px" height="38px" viewBox="0 0 179 38" version="1.1" xmlns="http://www.w3.org/2000/svg" xmlns:xlink="http://www.w3.org/1999/xlink">
    <!-- Generator: Sketch 64 (93537) - https://sketch.com -->
    <title>logo</title>
    <desc>Created with Sketch.</desc>
    <defs>
        <path d="M6.19215,18.99425 C6.5434125,18.99425 6.83108437,18.8882656 7.05516562,18.6762969 C7.27924688,18.4643281 7.3912875,18.2008813 7.3912875,17.8859562 L7.3912875,17.8859562 L7.3905,8.36625 L10.2437812,8.36553125 C10.5062187,8.36553125 10.7329076,8.30034245 10.9238477,8.16996484 L11.0341219,8.08391563 C11.2460906,7.89617188 11.352075,7.6448375 11.352075,7.3299125 C11.352075,7.0149875 11.2460906,6.760625 11.0341219,6.566825 C10.8221531,6.373025 10.5587063,6.276125 10.2437812,6.276125 L10.2437812,6.276125 L2.17685625,6.276125 C1.86193125,6.276125 1.59848437,6.36999688 1.38651562,6.55774063 C1.17454687,6.74548438 1.0685625,6.99681875 1.0685625,7.31174375 C1.0685625,7.62666875 1.17454687,7.88103125 1.38651562,8.07483125 C1.59848437,8.26863125 1.86193125,8.36553125 2.17685625,8.36553125 L2.17685625,8.36553125 L5.0285,8.36625 L5.02935,17.8859562 C5.02935,18.155892 5.10944082,18.388007 5.26962245,18.5823014 L5.3563875,18.6762969 C5.5744125,18.8882656 5.853,18.99425 6.19215,18.99425 Z M14.0228812,8.093 C14.4347062,8.093 14.7314625,8.02940938 14.91315,7.90222813 C15.0948375,7.77504688 15.1856813,7.535825 15.1856813,7.1845625 L15.1856813,7.1845625 L15.1856813,6.83935625 C15.1856813,6.50020625 15.1008937,6.2640125 14.9313187,6.130775 C14.7617437,5.9975375 14.4649875,5.93091875 14.04105,5.93091875 C13.65345,5.93091875 13.3657781,5.99450937 13.1780344,6.12169062 C12.9902906,6.24887188 12.8964187,6.48809375 12.8964187,6.83935625 L12.8964187,6.83935625 L12.8964187,7.1845625 C12.8964187,7.5237125 12.9812062,7.75990625 13.1507812,7.89314375 C13.3203562,8.02638125 13.6110562,8.093 14.0228812,8.093 Z M14.04105,18.99425 C14.355975,18.99425 14.6163937,18.8882656 14.8223062,18.6762969 C15.0282187,18.4643281 15.131175,18.2008813 15.131175,17.8859562 L15.131175,17.8859562 L15.131175,10.3822625 C15.131175,10.0673375 15.0282187,9.80389063 14.8223062,9.59192188 C14.6163937,9.37995313 14.355975,9.27396875 14.04105,9.27396875 C13.726125,9.27396875 13.4657062,9.37995313 13.2597937,9.59192188 C13.0538812,9.80389063 12.950925,10.0673375 12.950925,10.3822625 L12.950925,10.3822625 L12.950925,17.8859562 C12.950925,18.2008813 13.0538812,18.4643281 13.2597937,18.6762969 C13.4657062,18.8882656 13.726125,18.99425 14.04105,18.99425 Z M18.4560562,22.628 C18.7709812,22.628 19.0314,22.5220156 19.2373125,22.3100469 C19.443225,22.0980781 19.5461812,21.8346313 19.5461812,21.5197063 L19.5461812,21.5197063 L19.5455,17.95425 L19.6410221,18.0480215 C19.6935904,18.096956 19.7490656,18.1457694 19.8074479,18.1944616 L19.9913156,18.340175 C20.3122969,18.582425 20.6847562,18.7822813 21.1086937,18.9397438 C21.5326312,19.0972062 21.98685,19.1759375 22.47135,19.1759375 C23.295,19.1759375 24.0368906,18.9609406 24.6970219,18.5309469 C25.3571531,18.1009531 25.8840469,17.5074406 26.2777031,16.7504094 C26.6713594,15.9933781 26.8681875,15.11825 26.8681875,14.125025 C26.8681875,13.1318 26.6713594,12.2597 26.2777031,11.508725 C25.8840469,10.75775 25.3510969,10.1672656 24.6788531,9.73727188 C24.0066094,9.30727812 23.24655,9.09228125 22.398675,9.09228125 C21.9747375,9.09228125 21.5719969,9.16495625 21.1904531,9.31030625 C20.8089094,9.45565625 20.4727875,9.64037187 20.1820875,9.86445313 C19.8913875,10.0885344 19.66125,10.3126156 19.491675,10.5366969 L19.5455,10.47025 L19.5461812,10.3822625 C19.5461812,10.1123268 19.4705399,9.88021173 19.3192573,9.68591735 L19.2373125,9.59192188 C19.0314,9.37995313 18.7709812,9.27396875 18.4560562,9.27396875 C18.1411312,9.27396875 17.8807125,9.37995313 17.6748,9.59192188 C17.4688875,9.80389063 17.3659312,10.0673375 17.3659312,10.3822625 L17.3659312,10.3822625 L17.3659312,21.5197063 C17.3659312,21.8467438 17.4688875,22.1132188 17.6748,22.3191313 C17.8807125,22.5250438 18.1411312,22.628 18.4560562,22.628 Z M22.1261438,17.177375 C21.5931937,17.177375 21.1268625,17.0441375 20.72715,16.7776625 C20.3274375,16.5111875 20.0155406,16.1447844 19.7914594,15.6784531 C19.5673781,15.2121219 19.4553375,14.6943125 19.4553375,14.125025 C19.4553375,13.543625 19.5673781,13.0258156 19.7914594,12.5715969 C20.0155406,12.1173781 20.3274375,11.7570313 20.72715,11.4905563 C21.1268625,11.2240813 21.5931937,11.0908438 22.1261438,11.0908438 C22.6590938,11.0908438 23.1223969,11.2240813 23.5160531,11.4905563 C23.9097094,11.7570313 24.2185781,12.1173781 24.4426594,12.5715969 C24.6667406,13.0258156 24.7787813,13.543625 24.7787813,14.125025 C24.7787813,14.6943125 24.6667406,15.2121219 24.4426594,15.6784531 C24.2185781,16.1447844 23.9097094,16.5111875 23.5160531,16.7776625 C23.1223969,17.0441375 22.6590938,17.177375 22.1261438,17.177375 Z M34.7715938,19.1759375 C35.1228562,19.1759375 35.4680625,19.1486844 35.8072125,19.0941781 C36.1463625,19.0396719 36.4824844,18.9609406 36.8155781,18.8579844 C37.1486719,18.7550281 37.4726813,18.6248188 37.7876062,18.4673563 C38.0904187,18.3220063 38.2751344,18.0888406 38.3417531,17.7678594 C38.4083719,17.4468781 38.3205563,17.1349813 38.0783062,16.8321688 C37.9087312,16.6141438 37.6997906,16.4869625 37.4514844,16.450625 C37.2031781,16.4142875 36.9518438,16.4566813 36.6974812,16.5778063 C36.3946688,16.7352688 36.0797437,16.8442813 35.7527063,16.9048438 C35.4256687,16.9654063 35.0986312,16.9956875 34.7715938,16.9956875 C34.1780812,16.9956875 33.6269625,16.9078719 33.1182375,16.7322406 C32.6095125,16.5566094 32.1674062,16.2871063 31.7919188,15.9237313 C31.4164312,15.5603563 31.1227031,15.1061375 30.9107344,14.561075 C30.6987656,14.0160125 30.5927812,13.37405 30.5927812,12.6351875 C30.5927812,12.0053375 30.6866531,11.4299938 30.8743969,10.9091563 C31.0621406,10.3883187 31.3377,9.93712813 31.701075,9.55558438 C32.06445,9.17404062 32.5035281,8.8803125 33.0183094,8.6744 C33.5330906,8.4684875 34.1175188,8.36553125 34.7715938,8.36553125 C35.1228562,8.36553125 35.4589781,8.40186875 35.7799594,8.47454375 C36.1009406,8.54721875 36.4067813,8.650175 36.6974812,8.7834125 C36.9518438,8.9045375 37.2031781,8.9529875 37.4514844,8.9287625 C37.6997906,8.9045375 37.902675,8.7834125 38.0601375,8.5653875 C38.290275,8.2868 38.3780906,7.97793125 38.3235844,7.63878125 C38.2690781,7.29963125 38.0843625,7.051325 37.7694375,6.8938625 C37.321275,6.663725 36.8428313,6.48809375 36.3341062,6.36696875 C35.8253812,6.24584375 35.3045438,6.18528125 34.7715938,6.18528125 C33.8268188,6.18528125 32.9547187,6.34577188 32.1552937,6.66675312 C31.3558687,6.98773437 30.6624281,7.43589688 30.0749719,8.01124063 C29.4875156,8.58658438 29.0332969,9.2679125 28.7123156,10.055225 C28.3913344,10.8425375 28.2308437,11.702525 28.2308437,12.6351875 C28.2308437,13.7132 28.406475,14.6610031 28.7577375,15.4785969 C29.109,16.2961906 29.5904719,16.9775188 30.2021531,17.5225813 C30.8138344,18.0676438 31.5103031,18.4794688 32.2915594,18.7580563 C33.0728156,19.0366438 33.8994937,19.1759375 34.7715938,19.1759375 Z M44.0013187,19.1759375 C44.4615937,19.1759375 44.8885594,19.1002344 45.2822156,18.9488281 C45.6758719,18.7974219 46.01805,18.6127063 46.30875,18.3946813 C46.48317,18.2638663 46.6357875,18.1319611 46.7666025,17.9989659 L46.8545,17.90425 L46.8601159,18.0177724 C46.8811274,18.2322131 46.9546676,18.4203894 47.0807365,18.5823014 L47.1626812,18.6762969 C47.3685937,18.8882656 47.6290125,18.99425 47.9439375,18.99425 C48.2588625,18.99425 48.5192812,18.8882656 48.7251937,18.6762969 C48.9311062,18.4643281 49.0340625,18.2008813 49.0340625,17.8859562 L49.0340625,17.8859562 L49.0340625,10.200575 C49.0340625,9.8735375 48.9311062,9.6070625 48.7251937,9.40115 C48.5192812,9.1952375 48.2588625,9.09228125 47.9439375,9.09228125 C47.6290125,9.09228125 47.3685937,9.19826563 47.1626812,9.41023438 C46.9567687,9.62220313 46.8538125,9.88565 46.8538125,10.200575 L46.8538125,10.200575 L46.8535,10.22425 C46.7984753,10.1726137 46.7417719,10.1224494 46.6833896,10.0737571 L46.4995219,9.92804375 C46.1785406,9.68579375 45.800025,9.4859375 45.363975,9.328475 C44.927925,9.1710125 44.4494812,9.09228125 43.9286437,9.09228125 C43.1171062,9.09228125 42.3782437,9.30727813 41.7120562,9.73727188 C41.0458687,10.1672656 40.5159469,10.7607781 40.1222906,11.5178094 C39.7286344,12.2748406 39.5318062,13.1499688 39.5318062,14.1431938 C39.5318062,15.1243063 39.7286344,15.9933781 40.1222906,16.7504094 C40.5159469,17.5074406 41.051925,18.1009531 41.730225,18.5309469 C42.408525,18.9609406 43.1655563,19.1759375 44.0013187,19.1759375 Z M44.27385,17.177375 C43.7530125,17.177375 43.2927375,17.0441375 42.893025,16.7776625 C42.4933125,16.5111875 42.1814156,16.1478125 41.9573344,15.6875375 C41.7332531,15.2272625 41.6212125,14.7124813 41.6212125,14.1431938 C41.6212125,13.5617938 41.7332531,13.0409563 41.9573344,12.5806813 C42.1814156,12.1204063 42.4933125,11.7570313 42.893025,11.4905563 C43.2927375,11.2240813 43.7530125,11.0908438 44.27385,11.0908438 C44.8068,11.0908438 45.2731312,11.2240813 45.6728437,11.4905563 C46.0725562,11.7570313 46.3844531,12.1204063 46.6085344,12.5806813 C46.8326156,13.0409563 46.9446562,13.5617938 46.9446562,14.1431938 C46.9446562,14.7124813 46.8326156,15.2272625 46.6085344,15.6875375 C46.3844531,16.1478125 46.0725562,16.5111875 45.6728437,16.7776625 C45.2731312,17.0441375 44.8068,17.177375 44.27385,17.177375 Z M52.6496437,18.99425 C52.9645687,18.99425 53.2280156,18.8882656 53.4399844,18.6762969 C53.6519531,18.4643281 53.7579375,18.2008813 53.7579375,17.8859562 L53.7579375,17.8859562 L53.7579375,6.65766875 C53.7579375,6.34274375 53.6580094,6.07929688 53.4581531,5.86732813 C53.2582969,5.65535937 53.0009062,5.549375 52.6859812,5.549375 C52.3710562,5.549375 52.1076094,5.65535937 51.8956406,5.86732813 C51.6836719,6.07929688 51.5776875,6.34274375 51.5776875,6.65766875 L51.5776875,6.65766875 L51.5776875,17.8859562 C51.5776875,18.2008813 51.6806437,18.4643281 51.8865562,18.6762969 C52.0924687,18.8882656 52.3468312,18.99425 52.6496437,18.99425 Z M60.26235,19.1759375 C60.9043125,19.1759375 61.5008531,19.1002344 62.0519719,18.9488281 C62.6030906,18.7974219 63.048225,18.5975656 63.387375,18.3492594 C63.726525,18.1009531 63.8961,17.8253938 63.8961,17.5225813 C63.8961,17.2318813 63.8113125,16.9866031 63.6417375,16.7867469 C63.4721625,16.5868906 63.2299125,16.4869625 62.9149875,16.4869625 C62.6485125,16.4869625 62.4486562,16.5414687 62.3154187,16.6504812 C62.1821812,16.7594938 62.030775,16.86245 61.8612,16.95935 C61.71585,17.032025 61.5341625,17.0865313 61.3161375,17.1228688 C61.0981125,17.1592063 60.8376937,17.177375 60.5348812,17.177375 C59.9898187,17.177375 59.5083469,17.0441375 59.0904656,16.7776625 C58.6725844,16.5111875 58.3455469,16.1508406 58.1093531,15.6966219 C57.8731594,15.2424031 57.7550625,14.7245938 57.7550625,14.1431938 C57.7550625,13.5496813 57.8701312,13.0258156 58.1002687,12.5715969 C58.3304062,12.1173781 58.6604719,11.7570313 59.0904656,11.4905563 C59.5204594,11.2240813 60.044325,11.0908438 60.6620625,11.0908438 C60.7831875,11.0908438 60.9679031,11.1120406 61.2162094,11.1544344 C61.4645156,11.1968281 61.6492312,11.2543625 61.7703562,11.3270375 C61.9035937,11.3997125 62.0186625,11.4784438 62.1155625,11.5632313 C62.2124625,11.6480188 62.3245031,11.7176656 62.4516844,11.7721719 C62.5788656,11.8266781 62.7393562,11.8539313 62.9331562,11.8539313 C63.2117437,11.8539313 63.4237125,11.7479469 63.5690625,11.5359781 C63.7144125,11.3240094 63.7870875,11.0969 63.7870875,10.85465 C63.7870875,10.491275 63.6447656,10.1793781 63.3601219,9.91895938 C63.0754781,9.65854063 62.6757656,9.45565625 62.1609844,9.31030625 C61.6462031,9.16495625 61.0436062,9.09228125 60.3531937,9.09228125 C59.4205312,9.09228125 58.5938531,9.30727813 57.8731594,9.73727188 C57.1524656,10.1672656 56.5892344,10.7607781 56.1834656,11.5178094 C55.7776969,12.2748406 55.5748125,13.1499688 55.5748125,14.1431938 C55.5748125,15.0879688 55.7655844,15.9419 56.1471281,16.7049875 C56.5286719,17.468075 57.0707062,18.0706719 57.7732312,18.5127781 C58.4757562,18.9548844 59.3054625,19.1759375 60.26235,19.1759375 Z M69.6192562,19.1759375 C70.9637437,19.1759375 71.9933063,18.80045 72.7079437,18.049475 C73.4225812,17.2985 73.7799,16.28105 73.7799,14.997125 L73.7799,14.997125 L73.7799,10.3822625 C73.7799,10.0673375 73.6769437,9.80389063 73.4710312,9.59192188 C73.2651187,9.37995313 73.0047,9.27396875 72.689775,9.27396875 C72.37485,9.27396875 72.1144312,9.37995313 71.9085187,9.59192188 C71.7026063,9.80389063 71.59965,10.0673375 71.59965,10.3822625 L71.59965,10.3822625 L71.59965,14.997125 C71.59965,15.7359875 71.4361313,16.2840781 71.1090937,16.6413969 C70.7820562,16.9987156 70.2854437,17.177375 69.6192562,17.177375 C68.9651813,17.177375 68.474625,16.9987156 68.1475875,16.6413969 C67.82055,16.2840781 67.6570313,15.7359875 67.6570313,14.997125 L67.6570313,14.997125 L67.6570313,10.3822625 C67.6570313,10.0673375 67.554075,9.80389063 67.3481625,9.59192188 C67.14225,9.37995313 66.8818313,9.27396875 66.5669063,9.27396875 C66.2519813,9.27396875 65.9915625,9.37995313 65.78565,9.59192188 C65.5797375,9.80389063 65.4767813,10.0673375 65.4767813,10.3822625 L65.4767813,10.3822625 L65.4767813,14.997125 C65.4767813,16.28105 65.8310719,17.2985 66.5396531,18.049475 C67.2482344,18.80045 68.2747687,19.1759375 69.6192562,19.1759375 Z M77.3954813,18.99425 C77.7104063,18.99425 77.9738531,18.8882656 78.1858219,18.6762969 C78.3977906,18.4643281 78.503775,18.2008813 78.503775,17.8859562 L78.503775,17.8859562 L78.503775,6.65766875 C78.503775,6.34274375 78.4038469,6.07929688 78.2039906,5.86732813 C78.0041344,5.65535937 77.7467438,5.549375 77.4318188,5.549375 C77.1168938,5.549375 76.8534469,5.65535937 76.6414781,5.86732813 C76.4295094,6.07929688 76.323525,6.34274375 76.323525,6.65766875 L76.323525,6.65766875 L76.323525,17.8859562 C76.323525,18.2008813 76.4264813,18.4643281 76.6323938,18.6762969 C76.8383063,18.8882656 77.0926688,18.99425 77.3954813,18.99425 Z M84.97185,19.1759375 C85.432125,19.1759375 85.8590906,19.1002344 86.2527469,18.9488281 C86.6464031,18.7974219 86.9885812,18.6127063 87.2792812,18.3946813 C87.4537012,18.2638663 87.6063187,18.1319611 87.7371337,17.9989659 L87.8245,17.90525 L87.8306472,18.0177724 C87.8516587,18.2322131 87.9251989,18.4203894 88.0512677,18.5823014 L88.1332125,18.6762969 C88.339125,18.8882656 88.5995437,18.99425 88.9144687,18.99425 C89.2293937,18.99425 89.4898125,18.8882656 89.695725,18.6762969 C89.9016375,18.4643281 90.0045937,18.2008813 90.0045937,17.8859562 L90.0045937,17.8859562 L90.0045937,10.200575 C90.0045937,9.8735375 89.9016375,9.6070625 89.695725,9.40115 C89.4898125,9.1952375 89.2293937,9.09228125 88.9144687,9.09228125 C88.5995437,9.09228125 88.339125,9.19826563 88.1332125,9.41023438 C87.9273,9.62220313 87.8243437,9.88565 87.8243437,10.200575 L87.8243437,10.200575 L87.8235,10.22425 C87.7688295,10.1726137 87.7123031,10.1224494 87.6539209,10.0737571 L87.4700531,9.92804375 C87.1490719,9.68579375 86.7705562,9.4859375 86.3345062,9.328475 C85.8984562,9.1710125 85.4200125,9.09228125 84.899175,9.09228125 C84.0876375,9.09228125 83.348775,9.30727813 82.6825875,9.73727188 C82.0164,10.1672656 81.4864781,10.7607781 81.0928219,11.5178094 C80.6991656,12.2748406 80.5023375,13.1499688 80.5023375,14.1431938 C80.5023375,15.1243063 80.6991656,15.9933781 81.0928219,16.7504094 C81.4864781,17.5074406 82.0224562,18.1009531 82.7007562,18.5309469 C83.3790562,18.9609406 84.1360875,19.1759375 84.97185,19.1759375 Z M85.2443813,17.177375 C84.7235438,17.177375 84.2632688,17.0441375 83.8635563,16.7776625 C83.4638437,16.5111875 83.1519469,16.1478125 82.9278656,15.6875375 C82.7037844,15.2272625 82.5917438,14.7124813 82.5917438,14.1431938 C82.5917438,13.5617938 82.7037844,13.0409563 82.9278656,12.5806813 C83.1519469,12.1204063 83.4638437,11.7570313 83.8635563,11.4905563 C84.2632688,11.2240813 84.7235438,11.0908438 85.2443813,11.0908438 C85.7773313,11.0908438 86.2436625,11.2240813 86.643375,11.4905563 C87.0430875,11.7570313 87.3549844,12.1204063 87.5790656,12.5806813 C87.8031469,13.0409563 87.9151875,13.5617938 87.9151875,14.1431938 C87.9151875,14.7124813 87.8031469,15.2272625 87.5790656,15.6875375 C87.3549844,16.1478125 87.0430875,16.5111875 86.643375,16.7776625 C86.2436625,17.0441375 85.7773313,17.177375 85.2443813,17.177375 Z M95.9821125,18.99425 C96.40605,18.99425 96.8027344,18.8852375 97.1721656,18.6672125 C97.5415969,18.4491875 97.7263125,18.1706 97.7263125,17.83145 C97.7263125,17.5528625 97.6566656,17.3348375 97.5173719,17.177375 C97.3780781,17.0199125 97.2236437,16.9411812 97.0540687,16.9411812 C96.8966063,16.9411812 96.7573125,16.9684344 96.6361875,17.0229406 C96.5150625,17.0774469 96.381825,17.1047 96.236475,17.1047 C96.1032375,17.1047 95.9790844,17.080475 95.8640156,17.032025 C95.7489469,16.983575 95.6581031,16.9048437 95.5914844,16.7958312 C95.5248656,16.6868188 95.4915563,16.547525 95.4915563,16.37795 L95.4915563,16.37795 L95.4915,11.45425 L96.7815375,11.4542188 C97.0237875,11.4542187 97.2323917,11.3890299 97.40735,11.2586523 L97.5082875,11.1726031 C97.7020875,10.9848594 97.7989875,10.7516938 97.7989875,10.4731063 C97.7989875,10.1824063 97.7020875,9.94015625 97.5082875,9.74635625 C97.3144875,9.55255625 97.0722375,9.45565625 96.7815375,9.45565625 L96.7815375,9.45565625 L95.4915,9.45625 L95.4915563,8.29285625 C95.4915563,8.03041875 95.4221617,7.80372995 95.2833727,7.61278984 L95.1917719,7.50251563 C94.9919156,7.29054687 94.734525,7.1845625 94.4196,7.1845625 C94.104675,7.1845625 93.8412281,7.29054687 93.6292594,7.50251563 C93.4172906,7.71448437 93.3113063,7.97793125 93.3113063,8.29285625 L93.3113063,8.29285625 L93.3105,9.45625 L92.4755437,9.45565625 C92.2332938,9.45565625 92.0246896,9.52084505 91.8497313,9.65122266 L91.7487938,9.73727188 C91.5549938,9.92501563 91.4580938,10.1581813 91.4580938,10.4367688 C91.4580938,10.7274688 91.5549938,10.9697188 91.7487938,11.1635188 C91.9425938,11.3573188 92.1848437,11.4542188 92.4755437,11.4542188 L92.4755437,11.4542188 L93.3105,11.45425 L93.3113063,16.4687938 C93.3113063,16.9881172 93.3808585,17.4100675 93.519963,17.7346446 L93.5838375,17.8677875 C93.765525,18.2069375 93.9926344,18.4582719 94.2651656,18.6217906 C94.5376969,18.7853094 94.8283969,18.8882656 95.1372656,18.9306594 C95.4461344,18.9730531 95.72775,18.99425 95.9821125,18.99425 Z M104.103544,19.1759375 C105.024094,19.1759375 105.856828,18.9639688 106.601747,18.5400313 C107.346666,18.1160938 107.940178,17.5256094 108.382284,16.7685781 C108.824391,16.0115469 109.045444,15.1364188 109.045444,14.1431938 C109.045444,13.1499688 108.824391,12.2748406 108.382284,11.5178094 C107.940178,10.7607781 107.346666,10.1672656 106.601747,9.73727188 C105.856828,9.30727813 105.024094,9.09228125 104.103544,9.09228125 C103.182994,9.09228125 102.350259,9.30727813 101.605341,9.73727188 C100.860422,10.1672656 100.266909,10.7607781 99.8248031,11.5178094 C99.3826969,12.2748406 99.1616438,13.1499688 99.1616438,14.1431938 C99.1616438,15.1364188 99.3826969,16.0115469 99.8248031,16.7685781 C100.266909,17.5256094 100.860422,18.1160938 101.605341,18.5400313 C102.350259,18.9639688 103.182994,19.1759375 104.103544,19.1759375 Z M104.103544,17.177375 C103.594819,17.177375 103.131516,17.0501937 102.713634,16.7958312 C102.295753,16.5414687 101.962659,16.1871781 101.714353,15.7329594 C101.466047,15.2787406 101.341894,14.7488187 101.341894,14.1431938 C101.341894,13.5254563 101.466047,12.9894781 101.714353,12.5352594 C101.962659,12.0810406 102.295753,11.72675 102.713634,11.4723875 C103.131516,11.218025 103.594819,11.0908438 104.103544,11.0908438 C104.612269,11.0908438 105.075572,11.218025 105.493453,11.4723875 C105.911334,11.72675 106.244428,12.0810406 106.492734,12.5352594 C106.741041,12.9894781 106.865194,13.5254563 106.865194,14.1431938 C106.865194,14.7488187 106.741041,15.2787406 106.492734,15.7329594 C106.244428,16.1871781 105.911334,16.5414687 105.493453,16.7958312 C105.075572,17.0501937 104.612269,17.177375 104.103544,17.177375 Z M111.952444,18.99425 C112.267369,18.99425 112.527788,18.8882656 112.7337,18.6762969 C112.939613,18.4643281 113.042569,18.2008813 113.042569,17.8859562 L113.042569,17.8859562 L113.042569,13.5799625 C113.042569,13.1439125 113.100103,12.7653969 113.215172,12.4444156 C113.330241,12.1234344 113.481647,11.8539313 113.669391,11.6359063 C113.857134,11.4178813 114.063047,11.2573906 114.287128,11.1544344 C114.511209,11.0514781 114.732263,11 114.950288,11 C115.192538,11 115.407534,11.0423937 115.595278,11.1271812 C115.783022,11.2119688 115.991963,11.2543625 116.2221,11.2543625 C116.46435,11.2543625 116.688431,11.1665469 116.894344,10.9909156 C117.100256,10.8152844 117.203213,10.5276125 117.203213,10.1279 C117.203213,9.8493125 117.079059,9.6070625 116.830753,9.40115 C116.582447,9.1952375 116.276606,9.09228125 115.913231,9.09228125 C115.610419,9.09228125 115.307606,9.12861875 115.004794,9.20129375 C114.701981,9.27396875 114.417338,9.38600938 114.150863,9.53741563 C113.884388,9.68882188 113.645166,9.87656562 113.433197,10.1006469 C113.327213,10.2126875 113.23107,10.3330555 113.144768,10.4617508 L113.0425,10.62825 L113.042569,10.3822625 C113.042569,10.1123268 112.966927,9.88021173 112.815645,9.68591735 L112.7337,9.59192188 C112.527788,9.37995313 112.267369,9.27396875 111.952444,9.27396875 C111.637519,9.27396875 111.3771,9.37995313 111.171188,9.59192188 C110.965275,9.80389063 110.862319,10.0673375 110.862319,10.3822625 L110.862319,10.3822625 L110.862319,17.8859562 C110.862319,18.2008813 110.965275,18.4643281 111.171188,18.6762969 C111.3771,18.8882656 111.637519,18.99425 111.952444,18.99425 Z M117.766444,18.9760813 C118.117706,18.9760813 118.387209,18.8822094 118.574953,18.6944656 C118.762697,18.5067219 118.856569,18.2372187 118.856569,17.8859562 L118.856569,17.8859562 L118.856569,17.5770875 C118.856569,17.225825 118.762697,16.9563219 118.574953,16.7685781 C118.387209,16.5808344 118.117706,16.4869625 117.766444,16.4869625 L117.766444,16.4869625 L117.53025,16.4869625 C117.178988,16.4869625 116.909484,16.5808344 116.721741,16.7685781 C116.533997,16.9563219 116.440125,17.225825 116.440125,17.5770875 L116.440125,17.5770875 L116.440125,17.8859562 C116.440125,18.2372187 116.533997,18.5067219 116.721741,18.6944656 C116.909484,18.8822094 117.178988,18.9760813 117.53025,18.9760813 L117.53025,18.9760813 L117.766444,18.9760813 Z M125.488163,19.1759375 C126.408713,19.1759375 127.241447,18.9639688 127.986366,18.5400313 C128.731284,18.1160938 129.324797,17.5256094 129.766903,16.7685781 C130.209009,16.0115469 130.430063,15.1364188 130.430063,14.1431938 C130.430063,13.1499688 130.209009,12.2748406 129.766903,11.5178094 C129.324797,10.7607781 128.731284,10.1672656 127.986366,9.73727188 C127.241447,9.30727813 126.408713,9.09228125 125.488163,9.09228125 C124.567613,9.09228125 123.734878,9.30727813 122.989959,9.73727188 C122.245041,10.1672656 121.651528,10.7607781 121.209422,11.5178094 C120.767316,12.2748406 120.546263,13.1499688 120.546263,14.1431938 C120.546263,15.1364188 120.767316,16.0115469 121.209422,16.7685781 C121.651528,17.5256094 122.245041,18.1160938 122.989959,18.5400313 C123.734878,18.9639688 124.567613,19.1759375 125.488163,19.1759375 Z M125.488163,17.177375 C124.979438,17.177375 124.516134,17.0501937 124.098253,16.7958312 C123.680372,16.5414687 123.347278,16.1871781 123.098972,15.7329594 C122.850666,15.2787406 122.726513,14.7488187 122.726513,14.1431938 C122.726513,13.5254563 122.850666,12.9894781 123.098972,12.5352594 C123.347278,12.0810406 123.680372,11.72675 124.098253,11.4723875 C124.516134,11.218025 124.979438,11.0908438 125.488163,11.0908438 C125.996888,11.0908438 126.460191,11.218025 126.878072,11.4723875 C127.295953,11.72675 127.629047,12.0810406 127.877353,12.5352594 C128.125659,12.9894781 128.249813,13.5254563 128.249813,14.1431938 C128.249813,14.7488187 128.125659,15.2787406 127.877353,15.7329594 C127.629047,16.1871781 127.295953,16.5414687 126.878072,16.7958312 C126.460191,17.0501937 125.996888,17.177375 125.488163,17.177375 Z M133.337063,18.99425 C133.651988,18.99425 133.912406,18.8882656 134.118319,18.6762969 C134.324231,18.4643281 134.427188,18.2008813 134.427188,17.8859562 L134.427188,17.8859562 L134.427188,13.5799625 C134.427188,13.1439125 134.484722,12.7653969 134.599791,12.4444156 C134.714859,12.1234344 134.866266,11.8539313 135.054009,11.6359063 C135.241753,11.4178813 135.447666,11.2573906 135.671747,11.1544344 C135.895828,11.0514781 136.116881,11 136.334906,11 C136.577156,11 136.792153,11.0423937 136.979897,11.1271812 C137.167641,11.2119688 137.376581,11.2543625 137.606719,11.2543625 C137.848969,11.2543625 138.07305,11.1665469 138.278963,10.9909156 C138.484875,10.8152844 138.587831,10.5276125 138.587831,10.1279 C138.587831,9.8493125 138.463678,9.6070625 138.215372,9.40115 C137.967066,9.1952375 137.661225,9.09228125 137.29785,9.09228125 C136.995037,9.09228125 136.692225,9.12861875 136.389412,9.20129375 C136.0866,9.27396875 135.801956,9.38600938 135.535481,9.53741563 C135.269006,9.68882188 135.029784,9.87656562 134.817816,10.1006469 C134.711831,10.2126875 134.615688,10.3330555 134.529387,10.4617508 L134.4265,10.62825 L134.427188,10.3822625 C134.427188,10.1123268 134.351546,9.88021173 134.200264,9.68591735 L134.118319,9.59192188 C133.912406,9.37995313 133.651988,9.27396875 133.337063,9.27396875 C133.022138,9.27396875 132.761719,9.37995313 132.555806,9.59192188 C132.349894,9.80389063 132.246938,10.0673375 132.246938,10.3822625 L132.246938,10.3822625 L132.246938,17.8859562 C132.246938,18.2008813 132.349894,18.4643281 132.555806,18.6762969 C132.761719,18.8882656 133.022138,18.99425 133.337063,18.99425 Z M144.147469,22.628 C144.995344,22.628 145.788713,22.4856781 146.527575,22.2010344 C147.266437,21.9163906 147.862978,21.4561156 148.317197,20.8202094 C148.771416,20.1843031 148.998525,19.3394562 148.998525,18.2856687 L148.998525,18.2856687 L148.998525,10.200575 C148.998525,9.8735375 148.895569,9.6070625 148.689656,9.40115 C148.483744,9.1952375 148.223325,9.09228125 147.9084,9.09228125 C147.593475,9.09228125 147.333056,9.19826562 147.127144,9.41023437 C146.921231,9.62220312 146.818275,9.88565 146.818275,10.200575 L146.818275,10.200575 L146.8175,10.40725 L146.784481,10.3673641 C146.692911,10.2690106 146.590681,10.1711416 146.477793,10.0737571 L146.300466,9.92804375 C145.991597,9.68579375 145.625194,9.4859375 145.201256,9.328475 C144.777319,9.1710125 144.310988,9.09228125 143.802263,9.09228125 C142.9665,9.09228125 142.209469,9.30727812 141.531169,9.73727188 C140.852869,10.1672656 140.313862,10.7607781 139.91415,11.5178094 C139.514438,12.2748406 139.314581,13.1499688 139.314581,14.1431938 C139.314581,15.1243063 139.514438,15.9933781 139.91415,16.7504094 C140.313862,17.5074406 140.858925,18.1009531 141.549338,18.5309469 C142.23975,18.9609406 143.01495,19.1759375 143.874937,19.1759375 C144.310988,19.1759375 144.722813,19.1002344 145.110412,18.9488281 C145.498013,18.7974219 145.834134,18.6127062 146.118778,18.3946813 C146.403422,18.1766563 146.627503,17.9556031 146.791022,17.7315219 L146.791022,17.7315219 L146.8175,17.69225 L146.818275,18.5763688 C146.818275,19.154135 146.641675,19.6190733 146.288474,19.9711837 L146.1642,20.084375 C145.72815,20.44775 145.055906,20.6294375 144.147469,20.6294375 C143.893106,20.6294375 143.599378,20.5840156 143.266284,20.4931719 C142.933191,20.4023281 142.62735,20.3024 142.348763,20.1933875 C142.070175,20.084375 141.870319,20.0117 141.749194,19.9753625 C141.482719,19.8784625 141.228356,19.8936031 140.986106,20.0207844 C140.743856,20.1479656 140.568225,20.3871875 140.459213,20.73845 C140.374425,21.004925 140.401678,21.2562594 140.540972,21.4924531 C140.680266,21.7286469 140.9316,21.925475 141.294975,22.0829375 C141.476663,22.1556125 141.743138,22.2343438 142.0944,22.3191313 C142.445662,22.4039188 142.815094,22.4765938 143.202694,22.5371563 C143.590294,22.5977188 143.905219,22.628 144.147469,22.628 Z M144.147469,17.177375 C143.602406,17.177375 143.123963,17.0441375 142.712138,16.7776625 C142.300313,16.5111875 141.979331,16.1478125 141.749194,15.6875375 C141.519056,15.2272625 141.403988,14.7124813 141.403988,14.1431938 C141.403988,13.5617938 141.519056,13.0409563 141.749194,12.5806813 C141.979331,12.1204063 142.300313,11.7570313 142.712138,11.4905563 C143.123963,11.2240813 143.602406,11.0908438 144.147469,11.0908438 C144.704644,11.0908438 145.189144,11.2240813 145.600969,11.4905563 C146.012794,11.7570313 146.333775,12.1204063 146.563913,12.5806813 C146.79405,13.0409563 146.909119,13.5617938 146.909119,14.1431938 C146.909119,14.7124813 146.79405,15.2272625 146.563913,15.6875375 C146.333775,16.1478125 146.012794,16.5111875 145.600969,16.7776625 C145.189144,17.0441375 144.704644,17.177375 144.147469,17.177375 Z" id="path-1"></path>
    </defs>
    <g id="Page-1" stroke="none" stroke-width="1" fill="none" fill-rule="evenodd">
        <g id="logo" fill-rule="nonzero">
            <g id="Group-19">
                <path d="M22.4807758,0 L20.9304,0 C20.5022716,0 20.1551758,0.3470958 20.1551758,0.775224225 C20.1551758,1.20335265 19.80808,1.55044845 19.3799516,1.55044845 C18.9518231,1.55044845 18.6047273,1.20335265 18.6047273,0.775224225 C18.6047273,0.3470958 18.2577042,0 17.8295758,0 C17.4014474,0 17.0543516,0.3470958 17.0543516,0.775224225 C17.0543516,1.20335265 16.7073284,1.55037578 16.2792,1.55037578 C15.8510716,1.55037578 15.5039758,1.20327998 15.5039758,0.77515155 C15.5039758,0.347023125 15.1569527,0 14.7288242,0 C14.3006958,0 13.9536,0.3470958 13.9536,0.775224225 C13.9536,1.20335265 13.6065042,1.55044845 13.1783758,1.55044845 C12.7502474,1.55044845 12.4031516,1.20335265 12.4031516,0.775224225 C12.4031516,0.3470958 12.0561284,0 11.628,0 C11.1998716,0 10.8527758,0.3470958 10.8527758,0.775224225 C10.8527758,1.20335265 10.50568,1.55044845 10.0775516,1.55044845 C9.64942313,1.55044845 9.3024,1.20335265 9.3024,0.775224225 C9.3024,0.3470958 8.9553042,0 8.52717578,0 C8.09904735,0 7.75195155,0.3470958 7.75195155,0.775224225 C7.75195155,1.20335265 7.40492843,1.55037578 6.9768,1.55037578 C6.54867158,1.55037578 6.20157578,1.20327998 6.20157578,0.77515155 C6.20157578,0.347023125 5.85455265,0 5.42642423,0 C4.9982958,0 4.6512,0.3470958 4.6512,0.775224225 C4.6512,1.20335265 4.3041042,1.55044845 3.87597578,1.55044845 C3.44784735,1.55044845 3.10075155,1.20335265 3.10075155,0.775224225 C3.10075155,0.3470958 2.75372843,0 2.3256,0 L0.775224225,0 C0.3470958,0 0,0.3470958 0,0.775224225 L0,36.4344484 C0,36.8625769 0.3470958,37.2096727 0.775224225,37.2096727 L2.3256,37.2096727 C2.75372843,37.2096727 3.10082423,36.8625769 3.10082423,36.4344484 C3.10082423,36.00632 3.44792003,35.6592242 3.87604845,35.6592242 C4.30417688,35.6592242 4.65127268,36.00632 4.65127268,36.4344484 C4.65127268,36.8625769 4.9982958,37.2096727 5.42642423,37.2096727 C5.85455265,37.2096727 6.20164845,36.8625042 6.20164845,36.4343758 C6.20164845,36.0062473 6.54874425,35.6591515 6.97687268,35.6591515 C7.4050011,35.6591515 7.7520969,36.0062473 7.7520969,36.4343758 C7.7520969,36.8625042 8.09904735,37.2096727 8.52717578,37.2096727 C8.9553042,37.2096727 9.3024,36.8625042 9.3024,36.4343758 C9.3024,36.0062473 9.6494958,35.6591515 10.0776242,35.6591515 C10.5057527,35.6591515 10.8528485,36.0062473 10.8528485,36.4343758 C10.8528485,36.8625042 11.1998716,37.2096727 11.628,37.2096727 C12.0561284,37.2096727 12.4032242,36.8625042 12.4032242,36.4343758 C12.4032242,36.0062473 12.75032,35.6591515 13.1784485,35.6591515 C13.6065769,35.6591515 13.9536,36.0062473 13.9536,36.4343758 C13.9536,36.8625042 14.3006958,37.2096727 14.7288242,37.2096727 C15.1569527,37.2096727 15.5040485,36.8625042 15.5040485,36.4343758 C15.5040485,36.0062473 15.8511443,35.6591515 16.2792727,35.6591515 C16.7074011,35.6591515 17.0544969,36.0062473 17.0544969,36.4343758 C17.0544969,36.8625042 17.4014474,37.2096727 17.8295758,37.2096727 C18.2577042,37.2096727 18.6048,36.8625042 18.6048,36.4343758 C18.6048,36.0062473 18.9518958,35.6591515 19.3800242,35.6591515 C19.8081527,35.6591515 20.1552484,36.0062473 20.1552484,36.4343758 C20.1552484,36.8625042 20.5022716,37.2096727 20.9304,37.2096727 L22.4807758,37.2096727 C22.9089042,37.2096727 23.256,36.8625042 23.256,36.4343758 L23.256,0.775224225 C23.256,0.3470958 22.9089042,0 22.4807758,0" id="Fill-1" fill="#52B1B8"></path>
                <path d="M10.0776242,6.20157577 L3.87604845,6.20157577 C3.44792002,6.20157577 3.10082423,5.85447997 3.10082423,5.42635155 C3.10082423,4.99822312 3.44784735,4.6512 3.87597578,4.6512 L10.0775515,4.6512 C10.50568,4.6512 10.8527758,4.9982958 10.8527758,5.42642422 C10.8527758,5.85455265 10.5057526,6.20157577 10.0776242,6.20157577" id="Fill-3" fill="#D9F7F9"></path>
                <path d="M19.3800242,10.8527758 L3.87597578,10.8527758 C3.44784735,10.8527758 3.10075155,10.50568 3.10075155,10.0775516 C3.10075155,9.64942313 3.44784735,9.3024 3.87597578,9.3024 L19.3799516,9.3024 C19.80808,9.3024 20.1551758,9.6494958 20.1551758,10.0776242 C20.1551758,10.5057527 19.8081527,10.8527758 19.3800242,10.8527758" id="Fill-5" fill="#D9F7F9"></path>
                <path d="M19.3800242,15.5039758 L3.87597578,15.5039758 C3.44784735,15.5039758 3.10075155,15.15688 3.10075155,14.7287516 C3.10075155,14.3006231 3.44784735,13.9536 3.87597578,13.9536 L19.3799516,13.9536 C19.80808,13.9536 20.1551758,14.3006958 20.1551758,14.7288242 C20.1551758,15.1569527 19.8081527,15.5039758 19.3800242,15.5039758" id="Fill-7" fill="#D9F7F9"></path>
                <path d="M11.628,20.1551758 L3.87597577,20.1551758 C3.44784735,20.1551758 3.10075155,19.80808 3.10075155,19.3799515 C3.10075155,18.9518231 3.44784735,18.6047273 3.87597577,18.6047273 L11.628,18.6047273 C12.0561284,18.6047273 12.4032242,18.9518231 12.4032242,19.3799515 C12.4032242,19.8081526 12.0561284,20.1551758 11.628,20.1551758" id="Fill-9" fill="#D9F7F9"></path>
                <path d="M10.0776242,24.8063758 L3.87604845,24.8063758 C3.44792002,24.8063758 3.10082423,24.45928 3.10082423,24.0311515 C3.10082423,23.6030231 3.44792002,23.2559273 3.87604845,23.2559273 L10.0776242,23.2559273 C10.5057526,23.2559273 10.8528484,23.6030231 10.8528484,24.0311515 C10.8528484,24.4593526 10.5057526,24.8063758 10.0776242,24.8063758" id="Fill-11" fill="#D9F7F9"></path>
                <path d="M10.0776242,29.4575758 L3.87604845,29.4575758 C3.44792002,29.4575758 3.10082423,29.11048 3.10082423,28.6823515 C3.10082423,28.2542231 3.44792002,27.9071273 3.87604845,27.9071273 L10.0776242,27.9071273 C10.5057526,27.9071273 10.8528484,28.2542231 10.8528484,28.6823515 C10.8528484,29.1105527 10.5057526,29.4575758 10.0776242,29.4575758" id="Fill-13" fill="#D9F7F9"></path>
                <path d="M16.2792,31.0080242 C14.4357986,31.1900751 12.7567154,29.9394837 12.4032242,28.1211552 C12.3674681,27.694771 12.6838951,27.3200587 13.1102066,27.2839392 C13.5343379,27.2550145 13.9049077,27.5679531 13.9474226,27.9909216 C14.0156644,28.7987042 15.0590594,29.4575758 16.2730226,29.4575758 C17.535024,29.4575758 18.5986226,28.747541 18.5986226,27.9072 C18.5986226,27.1505806 17.863733,26.6668558 16.2885024,26.3738302 L16.1241842,26.3412718 C13.6094112,25.8761518 12.4032242,24.8482366 12.4032242,23.256 C12.6457407,21.3452289 14.3618155,19.9723982 16.2792,20.1551758 C18.1220926,19.9729796 19.8010305,21.2227715 20.1551758,23.040446 C20.191804,23.4669755 19.8757404,23.8424873 19.4491381,23.8791155 C19.4488474,23.8791155 19.4484841,23.8791881 19.4481934,23.8791881 C19.0245708,23.9064413 18.6550184,23.5943748 18.6109774,23.1722057 C18.5396832,22.3628969 17.4962155,21.7055516 16.2792,21.7055516 C15.0171986,21.7055516 13.9536,22.4157317 13.9536,23.2559273 C13.9536,24.0125467 14.6900158,24.4962715 16.2698976,24.7908233 L16.438867,24.8233817 C18.950515,25.2885017 20.159827,26.3164169 20.159827,27.9086535 C19.9165111,29.8208781 18.19782,31.1935635 16.2792,31.0080242" id="Fill-15" fill="#D9F7F9"></path>
                <path d="M16.2792,32.5584 C15.8510716,32.5584 15.5039758,32.2113042 15.5039758,31.7831758 L15.5039758,19.3800242 C15.5039758,18.9518958 15.8510716,18.6048 16.2792,18.6048 C16.7073284,18.6048 17.0544242,18.9518958 17.0544242,19.3800242 L17.0544242,31.7832485 C17.0544242,32.2113042 16.7073284,32.5584 16.2792,32.5584" id="Fill-17" fill="#D9F7F9"></path>
            </g>
            <g id="TipCalculator.org" transform="translate(30.000000, 7.000000)">
                <g>
                    <use fill="#000000" xlink:href="#path-1"></use>
                    <use fill="#333333" xlink:href="#path-1"></use>
                </g>
            </g>
        </g>
    </g>
</svg>