<?xml version="1.0" encoding="UTF-8"?>
<svg width="194px" height="202px" viewBox="0 0 194 202" version="1.1" xmlns="http://www.w3.org/2000/svg" xmlns:xlink="http://www.w3.org/1999/xlink">
    <!-- Generator: Sketch 64 (93537) - https://sketch.com -->
    <title>Group 10</title>
    <desc>Created with Sketch.</desc>
    <g id="Page-1" stroke="none" stroke-width="1" fill="none" fill-rule="evenodd">
        <g id="SinglePage-Copy-5" transform="translate(-1039.000000, -104.000000)">
            <g id="Group-10" transform="translate(1039.000000, 104.000000)">
                <g id="Group-231">
                    <path d="M111.615634,135.15887 C111.615634,134.147455 110.782459,133.284226 109.74099,133.284226 L47.431403,133.284226 C46.4196905,133.284226 45.5567592,134.117401 45.5567592,135.15887 C45.5567592,136.170583 46.3899342,137.033514 47.431403,137.033514 L109.74099,137.033514 C110.752703,137.033514 111.615634,136.200339 111.615634,135.15887" id="Fill-1" fill="#C6F0F2"></path>
                    <path d="M47.4314923,154.232805 L24.191861,154.232805 C23.1801485,154.232805 22.3172173,155.06598 22.3172173,156.107449 C22.3172173,157.118864 23.1503923,157.982093 24.191861,157.982093 L47.4314923,157.982093 C48.4432048,157.982093 49.306136,157.148918 49.306136,156.107449 C49.306136,155.06598 48.4432048,154.232805 47.4314923,154.232805" id="Fill-3" fill="#C6F0F2"></path>
                    <path d="M124.619175,156.077454 C124.619175,155.06604 123.786,154.202811 122.744531,154.202811 L60.4647,154.202811 C59.4529875,154.202811 58.5900562,155.035986 58.5900562,156.077454 C58.5900562,157.089167 59.4232312,157.952396 60.4647,157.952396 L122.774287,157.952396 C123.786,157.952396 124.619175,157.118923 124.619175,156.077454" id="Fill-5" fill="#C6F0F2"></path>
                    <path d="M36.0347592,186.309983 L20.6805342,186.309983 C19.6688217,186.309983 18.8058905,187.143158 18.8058905,188.184627 C18.8058905,189.196339 19.6390655,190.059271 20.6805342,190.059271 L36.0347592,190.059271 C37.0464717,190.059271 37.909403,189.226096 37.909403,188.184627 C37.909403,187.143158 37.076228,186.309983 36.0347592,186.309983" id="Fill-7" fill="#C6F0F2"></path>
                    <path d="M27.9113625,135.15887 C27.9113625,134.147455 27.0781875,133.284226 26.0367188,133.284226 L1.87464375,133.284226 C0.86293125,133.284226 0,134.117401 0,135.15887 C0,136.170583 0.833175,137.033514 1.87464375,137.033514 L26.066475,137.033514 C27.0781875,137.033514 27.9113625,136.200339 27.9113625,135.15887" id="Fill-9" fill="#C6F0F2"></path>
                    <path d="M125.303509,171.669849 C125.303509,170.658136 124.470334,169.795205 123.428865,169.795205 L86.7394092,169.795205 C85.7276967,169.795205 84.8647655,170.62838 84.8647655,171.669849 C84.8647655,172.711317 85.6979405,173.544492 86.7394092,173.544492 L123.458622,173.544492 C124.470334,173.514736 125.303509,172.681561 125.303509,171.669849" id="Fill-13" fill="#C6F0F2"></path>
                    <path d="M146.460233,186.309983 L95.785339,186.309983 C94.7736265,186.309983 93.9106952,187.143158 93.9106952,188.184627 C93.9106952,189.196339 94.7438702,190.059271 95.785339,190.059271 L146.460233,190.059271 C147.471945,190.059271 148.334876,189.226096 148.334876,188.184627 C148.334876,187.143158 147.501701,186.309983 146.460233,186.309983" id="Fill-15" fill="#C6F0F2"></path>
                    <path d="M57.429622,34.7315265 L86.5014783,34.7315265 C87.5131908,34.7315265 88.376122,33.8983515 88.376122,32.8568827 C88.376122,31.8451702 87.542947,30.982239 86.5014783,30.982239 L57.429622,30.982239 C56.4179095,30.982239 55.5549783,31.815414 55.5549783,32.8568827 C55.5549783,33.8983515 56.4179095,34.7315265 57.429622,34.7315265" id="Fill-17" fill="#C6F0F2"></path>
                    <path d="M91.6195235,98.2015482 C91.6195235,97.1901333 90.7863485,96.3566607 89.7448798,96.3566607 L42.5514673,96.3566607 C41.5397548,96.3566607 40.6768235,97.1901333 40.6768235,98.2015482 C40.6768235,99.2132607 41.5099985,100.07649 42.5514673,100.07649 L89.7448798,100.07649 C90.7863485,100.07649 91.6195235,99.243017 91.6195235,98.2015482" id="Fill-19" fill="#C6F0F2"></path>
                    <path d="M37.195372,82.163108 C38.2070845,82.163108 39.0700158,81.329933 39.0700158,80.2884643 C39.0700158,79.2767518 38.2368408,78.4138205 37.195372,78.4138205 L21.3948033,78.4138205 C20.3830908,78.4138205 19.5201595,79.2469955 19.5201595,80.2884643 C19.5201595,81.3001768 20.3533345,82.163108 21.3948033,82.163108 L37.195372,82.163108 Z" id="Fill-21" fill="#C6F0F2"></path>
                    <path d="M111.139653,80.318161 C111.139653,79.3064485 110.306478,78.4435173 109.26501,78.4435173 L46.9851783,78.4435173 C45.9734658,78.4435173 45.1105345,79.2766923 45.1105345,80.318161 C45.1105345,81.3298735 45.9437095,82.1928048 46.9851783,82.1928048 L109.294766,82.1928048 C110.306478,82.1630485 111.139653,81.3298735 111.139653,80.318161" id="Fill-23" fill="#C6F0F2"></path>
                    <path d="M92.541997,32.8867283 C92.541997,33.8984408 93.375172,34.761372 94.4166408,34.761372 L109.770866,34.761372 C110.782578,34.761372 111.64551,33.928197 111.64551,32.8867283 C111.64551,31.8750158 110.812335,31.0120845 109.770866,31.0120845 L94.4166408,31.0120845 C93.375172,31.0120845 92.541997,31.8452595 92.541997,32.8867283" id="Fill-25" fill="#C6F0F2"></path>
                    <path d="M60.2266798,17.0861298 L105.099105,17.0861298 C106.110817,17.0861298 106.973749,16.2529548 106.973749,15.211486 C106.973749,14.1997735 106.140574,13.3368423 105.099105,13.3368423 L60.2266798,13.3368423 C59.2149673,13.3368423 58.352036,14.1700173 58.352036,15.211486 C58.3817923,16.2231985 59.2149673,17.0861298 60.2266798,17.0861298" id="Fill-27" fill="#C6F0F2"></path>
                    <path d="M109.26492,61.7205048 L23.4776515,61.7205048 C22.465939,61.7205048 21.6030077,62.5536798 21.6030077,63.5951485 C21.6030077,64.606861 22.4361827,65.4697923 23.4776515,65.4697923 L109.26492,65.4697923 C110.276633,65.4697923 111.139564,64.6366173 111.139564,63.5951485 C111.139564,62.5536798 110.306389,61.7205048 109.26492,61.7205048" id="Fill-31" fill="#C6F0F2"></path>
                    <path d="M3.03510774,50.2047765 L77.6637827,50.2047765 C78.6754952,50.2047765 79.5384265,49.3716015 79.5384265,48.3301327 C79.5384265,47.3184202 78.7052515,46.455489 77.6637827,46.455489 L3.03510774,46.455489 C2.02339524,46.455489 1.16046399,47.288664 1.16046399,48.3301327 C1.19022024,49.3716015 2.02339524,50.2047765 3.03510774,50.2047765" id="Fill-33" fill="#C6F0F2"></path>
                    <path d="M13.0332375,116.799204 C13.0332375,117.810917 13.8664125,118.674146 14.9078813,118.674146 L77.2174688,118.674146 C78.2291813,118.674146 79.0921125,117.840673 79.0921125,116.799204 C79.0921125,115.78779 78.2589375,114.924561 77.2174688,114.924561 L14.878125,114.924561 C13.8664125,114.954615 13.0332375,115.78779 13.0332375,116.799204" id="Fill-35" fill="#C6F0F2"></path>
                    <path d="M118.281153,93.0537765 C127.106262,93.0537765 134.26026,100.208072 134.26026,109.032883 C134.26026,117.857991 127.106262,125.011989 118.281153,125.011989 C109.456045,125.011989 102.302047,117.857991 102.302047,109.032883 C102.302047,100.208072 109.456045,93.0537765 118.281153,93.0537765" id="Fill-76" fill="#C6F0F2"></path>
                    <path d="M119.50104,113.913086 L119.50104,110.461064 C120.423484,110.669655 120.959097,111.20497 121.16739,111.919418 C121.16739,113.020399 120.423484,113.556011 119.50104,113.913086 L119.50104,113.913086 Z M117.180053,107.425926 C116.079072,107.069149 115.364922,106.68202 115.364922,105.789332 C115.364922,104.688649 116.079072,104.212251 117.180053,104.003957 L117.180053,107.425926 Z M119.50104,107.931782 L119.50104,104.182793 C120.066409,104.361032 120.423484,104.539868 120.750803,104.688649 C122.060078,105.611093 123.518134,103.587668 122.060078,102.546199 C121.316172,102.010586 120.393728,101.772239 119.50104,101.623457 L119.50104,101.117899 C119.50104,99.2730113 117.180053,99.2730113 117.180053,101.117899 L117.180053,101.445218 C115.007847,101.772239 113.014178,102.903274 112.83564,105.25372 C112.478565,108.526907 114.829309,109.270814 117.180053,109.776968 L117.180053,113.942843 C116.257609,113.764305 115.364922,113.40723 114.829309,113.020399 C114.115159,112.514543 113.341497,112.841564 113.043934,113.258449 C112.686859,113.764305 112.686859,114.656993 113.192715,115.192605 C114.293697,115.96597 115.513703,116.472124 117.209809,116.650364 L117.209809,116.97798 C117.209809,118.822868 119.530797,118.822868 119.530797,116.97798 L119.530797,116.472124 C121.941053,116.114751 123.845453,114.656993 123.845453,112.097657 C123.815697,109.419595 121.673247,108.497449 119.50104,107.931782 L119.50104,107.931782 Z" id="Fill-78" fill="#D9F7F9"></path>
                    <path d="M30.4108577,0.601197013 C39.2359664,0.601197013 46.389964,7.75519464 46.389964,16.5803033 C46.389964,25.4051143 39.2359664,32.5594095 30.4108577,32.5594095 C21.5857491,32.5594095 14.4317515,25.4051143 14.4317515,16.5803033 C14.4317515,7.75519464 21.5857491,0.601197013 30.4108577,0.601197013" id="Fill-225" fill="#C6F0F2"></path>
                    <path d="M31.6308937,21.460358 L31.6308937,18.008633 C32.5533375,18.2169268 33.08895,18.7525393 33.2972437,19.4666893 C33.2674875,20.5379143 32.5235812,21.0735268 31.6308937,21.460358 L31.6308937,21.460358 Z M29.28015,14.9437393 C28.1791687,14.5866643 27.4650187,14.199833 27.4650187,13.2773893 C27.4650187,12.176408 28.1791687,11.700308 29.28015,11.4920143 L29.28015,14.9437393 Z M31.6308937,15.4793518 L31.6308937,11.7300643 C32.1962625,11.9086018 32.5533375,12.0871393 32.8806562,12.2359205 C34.1899312,13.1583643 35.6479875,11.1349393 34.1899312,10.0934705 C33.446025,9.55785802 32.5235812,9.31980802 31.6308937,9.17102677 L31.6308937,8.66517052 C31.6308937,6.82028302 29.3099062,6.82028302 29.3099062,8.66517052 L29.3099062,8.99248927 C27.1377,9.31980802 25.1440312,10.4505455 24.9654937,12.8012893 C24.6084187,16.0744768 26.9591625,16.818383 29.3099062,17.3242393 L29.3099062,21.4901143 C28.3874625,21.3115768 27.494775,20.9545018 26.9591625,20.5676705 C26.2450125,20.0618143 25.47135,20.389133 25.1737875,20.8057205 C24.8167125,21.3115768 24.8167125,22.2042643 25.3225687,22.7398768 C26.42355,23.5135393 27.6435562,24.0193955 29.3396625,24.197933 L29.3396625,24.5252518 C29.3396625,26.3701393 31.66065,26.3701393 31.66065,24.5252518 L31.66065,24.0193955 C34.0709062,23.6623205 35.9753062,22.2042643 35.9753062,19.6452268 C35.94555,16.9671643 33.8031,16.0149643 31.6308937,15.4793518 L31.6308937,15.4793518 Z" id="Fill-226" fill="#D9F7F9"></path>
                    <path d="M61.535925,169.884474 C70.3610336,169.884474 77.5150313,177.038471 77.5150313,185.86358 C77.5150313,194.688391 70.3610336,201.842686 61.535925,201.842686 C52.7108164,201.842686 45.5568188,194.688391 45.5568188,185.86358 C45.5568188,177.038471 52.7108164,169.884474 61.535925,169.884474" id="Fill-227" fill="#C6F0F2"></path>
                    <path d="M62.755961,190.743486 L62.755961,187.291761 C63.6784048,187.500352 64.2140173,188.035667 64.422311,188.750115 C64.3925548,189.850798 63.6486485,190.386708 62.755961,190.743486 L62.755961,190.743486 Z M60.4052173,184.256623 C59.304236,183.899548 58.590086,183.512717 58.590086,182.590571 C58.590086,181.489292 59.304236,181.01349 60.4052173,180.805196 L60.4052173,184.256623 Z M62.755961,184.762479 L62.755961,181.01349 C63.3213298,181.191729 63.6784048,181.370267 64.0057235,181.519048 C65.3149985,182.44179 66.7730548,180.418365 65.3149985,179.376896 C64.5710923,178.840986 63.6486485,178.602936 62.755961,178.454154 L62.755961,177.918542 C62.755961,176.073654 60.4349735,176.073654 60.4349735,177.918542 L60.4349735,178.245861 C58.2627673,178.573477 56.2690985,179.703917 56.090561,182.054958 C55.733486,185.328146 58.0842298,186.072052 60.4349735,186.577611 L60.4349735,190.743486 C59.5125298,190.564948 58.6198423,190.207873 58.0842298,189.821042 C57.3700798,189.315186 56.5964173,189.642802 56.2988548,190.059092 C55.9417798,190.564948 55.9417798,191.457636 56.447636,191.993248 C57.5486173,192.767208 58.7686235,193.272767 60.4647298,193.451602 L60.4647298,193.778623 C60.4647298,195.623511 62.7857173,195.623511 62.7857173,193.778623 L62.7857173,193.272767 C65.1959735,192.91599 67.1003735,191.457636 67.1003735,188.898896 C67.0706173,186.250292 64.9281673,185.328146 62.755961,184.762479 L62.755961,184.762479 Z" id="Fill-228" fill="#D9F7F9"></path>
                </g>
                <g id="Group-8" transform="translate(59.000000, 42.000000)" fill-rule="nonzero">
                    <g id="money-(1)" transform="translate(79.568920, 77.232554) rotate(-24.000000) translate(-79.568920, -77.232554) translate(23.568920, 25.732554)" fill="#6EA2B3">
                        <path d="M106.51379,65.9965438 L5.07214751,65.9965438 C2.28249907,65.9965438 0,63.7140447 0,60.9243963 L0,5.13142754 C0,2.3417791 2.28249907,0.0592800293 5.07214751,0.0592800293 L106.514008,0.0592800293 C109.303656,0.0592800293 111.586155,2.3417791 111.586155,5.13142754 L111.586155,60.9243963 C111.586155,63.7140447 109.303438,65.9965438 106.51379,65.9965438 Z" id="Path"></path>
                        <path d="M93.8335302,45.7081717 C88.0005497,45.7081717 82.6749364,48.4978201 79.6316044,53.0626003 C77.0956396,51.7948359 74.3059911,50.7803192 71.0091933,50.7803192 C62.1330986,50.7803192 54.7784521,57.3741328 53.5104697,65.9965438 L106.51379,65.9965438 C109.049755,65.9965438 111.07857,64.221412 111.585937,61.6852293 C110.571421,52.8091346 102.963309,45.7081717 93.8335302,45.7081717 Z" id="Path"></path>
                        <path d="M96.3697129,60.9243963 L15.2162246,60.9243963 C15.2162246,55.3450994 10.6514444,50.7803192 5.07214751,50.7803192 L5.07214751,15.2757225 C10.6514444,15.2757225 15.2162246,10.7109424 15.2162246,5.13164548 L96.3697129,5.13164548 C96.3697129,10.7109424 100.934493,15.2757225 106.51379,15.2757225 L106.51379,50.7803192 C100.934493,50.7803192 96.3697129,55.3450994 96.3697129,60.9243963 Z" id="Path"></path>
                        <g id="Group" transform="translate(20.268539, 10.025299)">
                            <path d="M73.5649908,35.6828726 C67.7320102,35.6828726 62.406397,38.4725211 59.3630649,43.0373013 C56.8271001,41.7695368 54.0374517,40.7550201 50.7406539,40.7550201 C43.639691,40.7550201 37.5532447,44.812651 34.7635963,50.8990972 L76.1011735,50.8990972 C76.1011735,45.3198003 80.412488,41.0084859 85.9917849,40.7550201 C82.6947691,37.711688 78.3836726,35.6828726 73.5649908,35.6828726 Z" id="Path"></path>
                            <ellipse id="Oval" cx="35.5244293" cy="23.0026128" rx="20.2883721" ry="22.8243369"></ellipse>
                            <circle id="Oval" cx="5.09198016" cy="23.0026128" r="5.07214751"></circle>
                            <circle id="Oval" cx="65.9568785" cy="23.0026128" r="5.07214751"></circle>
                        </g>
                        <path d="M58.3289335,30.4919471 L53.256786,30.4919471 C51.73512,30.4919471 50.7208212,29.4774305 50.7208212,27.9559823 C50.7208212,26.4343163 51.7353379,25.4200176 53.256786,25.4200176 L60.8648983,25.4200176 C62.3865644,25.4200176 63.4008631,24.4055009 63.4008631,22.8840528 C63.4008631,21.3623867 62.3863464,20.348088 60.8648983,20.348088 L58.3289335,20.348088 C58.3289335,18.826422 57.3144169,17.8121232 55.7929687,17.8121232 C54.2713027,17.8121232 53.257004,18.8266399 53.257004,20.348088 C48.9456895,20.348088 45.6488917,23.6448858 45.6488917,27.9562003 C45.6488917,32.2675148 48.9456895,35.5643126 53.257004,35.5643126 L58.3291515,35.5643126 C59.8508175,35.5643126 60.8651163,36.5788293 60.8651163,38.1002774 C60.8651163,39.6219434 59.8505996,40.6362421 58.3291515,40.6362421 L50.7210392,40.6362421 C49.1993731,40.6362421 48.1850744,41.6507588 48.1850744,43.1722069 C48.1850744,44.693873 49.1995911,45.7081717 50.7210392,45.7081717 L53.257004,45.7081717 C53.257004,47.2298378 54.2715206,48.2441365 55.7929687,48.2441365 C57.3146348,48.2441365 58.3289335,47.2296198 58.3289335,45.7081717 C62.640248,45.7081717 65.9370458,42.4113739 65.9370458,38.1000594 C65.9370458,33.7887449 62.640248,30.4919471 58.3289335,30.4919471 Z" id="Path"></path>
                        <circle id="Oval" cx="65.9370458" cy="68.5327265" r="17.7524073"></circle>
                        <circle id="Oval" cx="88.7616006" cy="63.460579" r="17.7524073"></circle>
                        <path d="M88.7616006,45.7081717 C78.8709893,45.7081717 71.0091933,53.5699677 71.0091933,63.460579 C71.0091933,73.3511904 78.8709893,81.2129863 88.7616006,81.2129863 C98.652212,81.2129863 106.514008,73.3511904 106.514008,63.460579 C106.514008,53.5699677 98.652212,45.7081717 88.7616006,45.7081717 Z M88.7616006,76.1408388 C81.6606377,76.1408388 76.0813408,70.5615419 76.0813408,63.460579 C76.0813408,56.3596161 81.6606377,50.7803192 88.7616006,50.7803192 C95.8625636,50.7803192 101.44186,56.3596161 101.44186,63.460579 C101.44186,70.5615419 95.8625636,76.1408388 88.7616006,76.1408388 Z" id="Shape"></path>
                        <path d="M88.7616006,80.9593027 L88.7616006,80.9593027 C98.652212,81.2129863 106.514008,73.0975067 106.514008,63.460579 L106.260324,63.460579 C104.992342,63.460579 103.977825,64.4750957 103.724359,65.7430781 C103.21721,69.2935595 101.44186,72.5903573 98.9058956,74.8728564 C96.8770802,76.9016718 94.0874318,78.1696542 91.0440997,78.6768036 C89.7758994,78.6768036 88.7616006,79.6913203 88.7616006,80.9593027 Z" id="Path"></path>
                        <path d="M88.7616006,45.9618554 L88.7616006,45.9618554 C78.8709893,45.7081717 71.0091933,53.8236513 71.0091933,63.460579 L71.262877,63.460579 C72.5308594,63.460579 73.5453761,62.4460623 73.7988418,61.1780799 C74.3059911,57.6275985 76.0813408,54.3308007 78.6173056,52.0483016 C80.646121,50.0194862 83.4357695,48.7515038 86.4791016,48.2441365 C87.747084,48.2443544 88.7616006,47.2298378 88.7616006,45.9618554 Z" id="Path"></path>
                        <path d="M77.8564726,65.2357108 C77.8564726,58.1347478 83.4357695,52.555451 90.5367324,52.555451 C93.5800645,52.555451 96.3697129,53.5699677 98.651994,55.5987831 C96.1160293,52.555451 92.8192315,50.7803192 88.7616006,50.7803192 C81.6606377,50.7803192 76.0813408,56.3596161 76.0813408,63.460579 C76.0813408,67.5182098 77.8564726,70.8150076 80.646121,73.0975067 C78.8709893,71.0686913 77.8564726,68.2790429 77.8564726,65.2357108 Z" id="Path"></path>
                        <path d="M96.3697129,71.322375 C96.1160293,71.322375 95.8625636,71.322375 95.6088799,71.0686913 C95.1017305,70.5615419 95.1017305,69.8007089 95.6088799,69.2935595 C97.1305459,67.7718935 97.891379,65.4893944 97.891379,63.460579 C97.891379,62.699746 98.3985283,62.1925966 99.1593614,62.1925966 C99.9201944,62.1925966 100.427344,62.699746 100.427344,63.460579 C100.427344,66.2502274 99.4128271,69.0398759 97.6376953,71.0686913 C97.1305459,71.322375 96.6231786,71.322375 96.3697129,71.322375 Z" id="Path"></path>
                        <g id="Group" transform="translate(71.048859, 50.780319)">
                            <path d="M17.712742,20.2883721 C16.1910759,20.2883721 15.1767772,19.2738554 15.1767772,17.7524073 L15.1767772,7.60833023 C15.1767772,6.08666418 16.1912939,5.07236545 17.712742,5.07236545 C19.2341901,5.07236545 20.2487068,6.08688213 20.2487068,7.60833023 L20.2487068,17.7524073 C20.2487068,19.2738554 19.234408,20.2883721 17.712742,20.2883721 Z" id="Path"></path>
                            <path d="M27.095986,27.6428007 C25.3208543,21.3026708 20.7558561,16.2305233 14.9228756,13.9482422 C13.9083589,8.11526166 10.1044118,3.04333209 5.28594791,0 C2.24261581,3.29679781 0.2138004,7.60811229 0.2138004,12.4265761 C0.2138004,22.3171875 8.07559634,30.1789834 17.9662077,30.1789834 C21.2632234,30.4324492 24.3063376,29.4181504 27.095986,27.6428007 Z" id="Path"></path>
                        </g>
                        <g id="Group" transform="translate(76.061508, 54.049438)">
                            <path d="M4.58461285,19.0480682 C2.80948109,16.7655692 1.54128076,13.9759207 1.54128076,10.9328066 C1.54128076,7.38232512 3.06294681,4.08552731 5.59891159,1.80302824 C5.09176222,1.04219522 4.58439491,0.535045853 4.07724554,0.0278964844 C1.54128076,2.31039555 0.0196147156,5.60719336 0.0196147156,9.41135847 C0.0198326569,13.4687714 1.79496442,16.7655692 4.58461285,19.0480682 Z" id="Path"></path>
                            <path d="M10.1639097,10.9328066 L10.1639097,14.483288 C10.1639097,16.0049541 11.1784264,17.0192528 12.6998745,17.0192528 C14.2213226,17.0192528 15.2358393,16.0047361 15.2358393,14.483288 L15.2358393,13.9761387 C13.7143912,12.7079383 11.9392594,11.6936396 10.1639097,10.9328066 Z" id="Path"></path>
                        </g>
                        <path d="M98.1448447,78.4231199 C97.6376953,76.6479882 97.130328,75.1263221 96.1160293,73.6046561 C94.0872139,75.1263221 91.5512491,76.1406209 88.7616006,76.1406209 C81.6606377,76.1406209 76.0813408,70.561324 76.0813408,63.4603611 C76.0813408,59.656196 77.6030069,56.3593981 80.1389717,54.0768991 C78.8709893,52.8089167 77.6030069,51.7944 76.0813408,51.033567 C73.0380087,54.3303648 71.0091933,58.6416793 71.0091933,63.4601431 C71.0091933,73.3507545 78.8709893,81.2125505 88.7616006,81.2125505 C92.3120821,81.2125505 95.3551962,80.1984696 98.1448447,78.4231199 Z" id="Path"></path>
                        <path d="M97.3840117,76.1408388 C95.6088799,77.4088212 93.3263808,78.1696542 91.0438818,78.6768036 C89.7758994,78.9304872 88.7613827,79.944786 88.7613827,81.2127684 L88.7613827,81.2127684 C92.3118642,81.2127684 95.3551962,80.1982517 98.1448447,78.4231199 C97.891379,77.6622869 97.6376953,76.9016718 97.3840117,76.1408388 Z" id="Path"></path>
                        <path d="M76.0813408,51.0340029 C73.0380087,54.3308007 71.0091933,58.6421152 71.0091933,63.460579 L71.262877,63.460579 C72.5308594,63.460579 73.5453761,62.4460623 73.7988418,61.1780799 C74.3059911,57.6275985 76.0813408,54.5842664 78.363622,52.3019853 C77.6030069,52.0483016 76.8421739,51.5411522 76.0813408,51.0340029 Z" id="Path"></path>
                        <circle id="Oval" cx="65.9370458" cy="68.5327265" r="17.7524073"></circle>
                        <path d="M63.401081,81.2127684 C63.401081,82.9879001 63.6547647,84.5095662 64.1619141,86.2849159 C64.6690634,86.2849159 65.4298965,86.2849159 65.9370458,86.2849159 C75.8276572,86.2849159 83.6894531,78.4231199 83.6894531,68.5325086 C83.6894531,66.7573768 83.4357695,65.2357108 82.9286201,63.4603611 C82.4214707,63.4603611 81.6606377,63.4603611 81.1534883,63.4603611 C71.262877,63.4603611 63.401081,71.322375 63.401081,81.2127684 Z" id="Path"></path>
                        <path d="M65.9370458,50.7803192 C56.0464345,50.7803192 48.1846385,58.6421152 48.1846385,68.5327265 C48.1846385,78.4233379 56.0464345,86.2851338 65.9370458,86.2851338 C75.8276572,86.2851338 83.6894531,78.4231199 83.6894531,68.5327265 C83.6894531,58.6423331 75.8276572,50.7803192 65.9370458,50.7803192 Z M65.9370458,81.2127684 C58.8360829,81.2127684 53.256786,75.6334715 53.256786,68.5325086 C53.256786,61.4315457 58.8360829,55.8522488 65.9370458,55.8522488 C73.0380087,55.8522488 78.6173056,61.4315457 78.6173056,68.5325086 C78.6173056,75.6334715 73.0380087,81.2127684 65.9370458,81.2127684 Z" id="Shape"></path>
                        <path d="M65.9370458,86.0312322 L65.9370458,86.0312322 C75.8276572,86.2849159 83.6894531,78.1696542 83.6894531,68.5327265 L83.4357695,68.5327265 C82.1677871,68.5327265 81.1532704,69.5472432 80.8998047,70.8152256 C80.3926553,74.365707 78.6173056,77.6625049 76.0813408,79.9450039 C74.0525254,81.9738193 71.262877,83.2418017 68.2195449,83.749169 C66.9515625,83.7489511 65.9370458,84.7632498 65.9370458,86.0312322 Z" id="Path"></path>
                        <path d="M65.9370458,51.0340029 L65.9370458,51.0340029 C56.0464345,50.7803192 48.1846385,58.8957988 48.1846385,68.5327265 L48.4383222,68.5327265 C49.7063046,68.5327265 50.7208212,67.5182098 50.974287,66.2502274 C51.4814363,62.699746 53.256786,59.4029482 55.7927508,57.1204491 C57.8215662,55.0916337 60.6112147,53.8236513 63.6545468,53.316284 C64.9227471,53.316284 65.9370458,52.3019853 65.9370458,51.0340029 Z" id="Path"></path>
                        <path d="M55.0321357,70.3078583 C55.0321357,63.2068954 60.6114326,57.6275985 67.7123955,57.6275985 C70.7557276,57.6275985 73.5453761,58.6421152 75.8276572,60.6709306 C73.2916924,57.6275985 69.9946767,55.8524667 65.9370458,55.8524667 C58.8360829,55.8524667 53.256786,61.4317636 53.256786,68.5327265 C53.256786,72.5903573 55.0319178,75.8871552 57.8215662,78.1696542 C56.0466524,76.1408388 55.0321357,73.3511904 55.0321357,70.3078583 Z" id="Path"></path>
                        <path d="M73.5453761,76.3943045 C73.2916924,76.3943045 73.0382267,76.3943045 72.784543,76.1406209 C72.2773937,75.6334715 72.2773937,74.8726385 72.784543,74.3654891 C74.3062091,72.8438231 75.0670421,70.561324 75.0670421,68.5325086 C75.0670421,67.7716756 75.5741915,67.2645262 76.3350245,67.2645262 C77.0958575,67.2645262 77.6030069,67.7716756 77.6030069,68.5325086 C77.6030069,71.322157 76.5884902,74.1118055 74.8133584,76.1406209 C74.3059911,76.3943045 73.7988418,76.3943045 73.5453761,76.3943045 Z" id="Path"></path>
                        <path d="M65.9370458,76.1408388 C64.4153798,76.1408388 63.401081,75.1263221 63.401081,73.604874 L63.401081,63.460797 C63.401081,61.9391309 64.4155977,60.9248322 65.9370458,60.9248322 C67.4587119,60.9248322 68.4730106,61.9393488 68.4730106,63.460797 L68.4730106,73.604874 C68.4732285,75.1263221 67.4587119,76.1408388 65.9370458,76.1408388 Z" id="Path"></path>
                        <g id="Group" transform="translate(60.805618, 63.420914)">
                            <path d="M16.7973886,0.293131027 C17.304538,1.81479707 17.8119053,3.33646312 17.8119053,5.11159488 C17.8119053,12.2125578 12.2326084,17.7918547 5.13164548,17.7918547 C4.37081245,17.7918547 3.35651372,17.7918547 2.59568069,17.538171 L2.59568069,17.7918547 C2.59568069,19.5669864 2.84936435,21.0886525 3.35651372,22.8640022 C3.86366309,22.8640022 4.62449611,22.8640022 5.13164548,22.8640022 C15.0222568,22.8640022 22.8840528,15.0022062 22.8840528,5.11159488 C22.8840528,3.33646312 22.6303691,1.81479707 22.1232198,0.0394473724 C21.6160704,0.0394473724 20.8552374,0.0394473724 20.348088,0.0394473724 C19.0796697,0.0394473724 18.065371,0.0394473724 16.7973886,0.293131027 Z" id="Path"></path>
                            <circle id="Oval" cx="17.8116873" cy="20.3280374" r="17.7524073"></circle>
                        </g>
                        <path d="M78.6173056,65.9965438 C68.7266943,65.9965438 60.8648983,73.8583397 60.8648983,83.7489511 C60.8648983,93.6395625 68.7266943,101.501358 78.6173056,101.501358 C88.507917,101.501358 96.3697129,93.6395625 96.3697129,83.7489511 C96.3697129,73.8583397 88.507917,65.9965438 78.6173056,65.9965438 Z M78.6173056,96.4292109 C71.5163427,96.4292109 65.9370458,90.849914 65.9370458,83.7489511 C65.9370458,76.6479882 71.5163427,71.0686913 78.6173056,71.0686913 C85.7182685,71.0686913 91.2975654,76.6479882 91.2975654,83.7489511 C91.2975654,90.849914 85.7182685,96.4292109 78.6173056,96.4292109 Z" id="Shape"></path>
                        <path d="M78.6173056,101.247675 L78.6173056,101.247675 C88.507917,101.501358 96.3697129,93.3858788 96.3697129,83.7489511 L96.1160293,83.7489511 C94.8480469,83.7489511 93.8335302,84.7634678 93.5800645,86.0314502 C93.0729151,89.5819316 91.2975654,92.8787294 88.7616006,95.1612285 C86.7327852,97.1900439 83.9431368,98.4580263 80.8998047,98.9653936 C79.6318223,98.9651757 78.6173056,99.9794744 78.6173056,101.247675 Z" id="Path"></path>
                        <path d="M78.6173056,66.2502274 L78.6173056,66.2502274 C68.7266943,65.9965438 60.8648983,74.1120234 60.8648983,83.7489511 L61.118582,83.7489511 C62.3865644,83.7489511 63.401081,82.7344344 63.6545468,81.466452 C64.1616961,77.9159706 65.9370458,74.6191728 68.4730106,72.3366737 C70.501826,70.3078583 73.2914745,69.0398759 76.3348065,68.5325086 C77.6030069,68.5327265 78.6173056,67.5182098 78.6173056,66.2502274 Z" id="Path"></path>
                        <path d="M67.7123955,85.5240829 C67.7123955,78.4231199 73.2916924,72.8438231 80.3926553,72.8438231 C83.4359874,72.8438231 86.2256358,73.8583397 88.507917,75.8871552 C85.9719522,72.8438231 82.6749364,71.0686913 78.6173056,71.0686913 C71.5163427,71.0686913 65.9370458,76.6479882 65.9370458,83.7489511 C65.9370458,87.8065819 67.7121776,91.1033797 70.501826,93.3858788 C68.7266943,91.3570634 67.7123955,88.5674149 67.7123955,85.5240829 Z" id="Path"></path>
                        <path d="M86.2254179,91.6105291 C85.9717343,91.6105291 85.7182685,91.6105291 85.4645849,91.3568454 C84.9574355,90.8496961 84.9574355,90.0888631 85.4645849,89.5817137 C86.9862509,88.0600476 87.747084,85.7775486 87.747084,83.7487332 C87.747084,82.9879001 88.2542333,82.4807508 89.0150663,82.4807508 C89.7758994,82.4807508 90.2830487,82.9879001 90.2830487,83.7487332 C90.2830487,86.5383816 89.2685321,89.32803 87.4934003,91.3568454 C86.9862509,91.6105291 86.4791016,91.6105291 86.2254179,91.6105291 Z" id="Path"></path>
                        <path d="M78.6173056,91.3570634 C77.0956396,91.3570634 76.0813408,90.3425467 76.0813408,88.8210986 L76.0813408,78.6768036 C76.0813408,77.1551375 77.0958575,76.1408388 78.6173056,76.1408388 C80.1389717,76.1408388 81.1532704,77.1553555 81.1532704,78.6768036 L81.1532704,88.8208807 C81.1534883,90.3425467 80.1389717,91.3570634 78.6173056,91.3570634 Z" id="Path"></path>
                    </g>
                    <g id="money-(1)-copy" transform="translate(73.000000, 70.500000) rotate(-24.000000) translate(-73.000000, -70.500000) translate(17.000000, 19.000000)">
                        <path d="M106.51379,65.9965438 L5.07214751,65.9965438 C2.28249907,65.9965438 0,63.7140447 0,60.9243963 L0,5.13142754 C0,2.3417791 2.28249907,0.0592800293 5.07214751,0.0592800293 L106.514008,0.0592800293 C109.303656,0.0592800293 111.586155,2.3417791 111.586155,5.13142754 L111.586155,60.9243963 C111.586155,63.7140447 109.303438,65.9965438 106.51379,65.9965438 Z" id="Path" fill="#0E9347"></path>
                        <path d="M93.8335302,45.7081717 C88.0005497,45.7081717 82.6749364,48.4978201 79.6316044,53.0626003 C77.0956396,51.7948359 74.3059911,50.7803192 71.0091933,50.7803192 C62.1330986,50.7803192 54.7784521,57.3741328 53.5104697,65.9965438 L106.51379,65.9965438 C109.049755,65.9965438 111.07857,64.221412 111.585937,61.6852293 C110.571421,52.8091346 102.963309,45.7081717 93.8335302,45.7081717 Z" id="Path" fill="#0D8944"></path>
                        <path d="M96.3697129,60.9243963 L15.2162246,60.9243963 C15.2162246,55.3450994 10.6514444,50.7803192 5.07214751,50.7803192 L5.07214751,15.2757225 C10.6514444,15.2757225 15.2162246,10.7109424 15.2162246,5.13164548 L96.3697129,5.13164548 C96.3697129,10.7109424 100.934493,15.2757225 106.51379,15.2757225 L106.51379,50.7803192 C100.934493,50.7803192 96.3697129,55.3450994 96.3697129,60.9243963 Z" id="Path" fill="#3BB54A"></path>
                        <g id="Group" transform="translate(20.268539, 10.025299)" fill="#0E9347">
                            <path d="M73.5649908,35.6828726 C67.7320102,35.6828726 62.406397,38.4725211 59.3630649,43.0373013 C56.8271001,41.7695368 54.0374517,40.7550201 50.7406539,40.7550201 C43.639691,40.7550201 37.5532447,44.812651 34.7635963,50.8990972 L76.1011735,50.8990972 C76.1011735,45.3198003 80.412488,41.0084859 85.9917849,40.7550201 C82.6947691,37.711688 78.3836726,35.6828726 73.5649908,35.6828726 Z" id="Path"></path>
                            <ellipse id="Oval" cx="35.5244293" cy="23.0026128" rx="20.2883721" ry="22.8243369"></ellipse>
                            <circle id="Oval" cx="5.09198016" cy="23.0026128" r="5.07214751"></circle>
                            <circle id="Oval" cx="65.9568785" cy="23.0026128" r="5.07214751"></circle>
                        </g>
                        <path d="M58.3289335,30.4919471 L53.256786,30.4919471 C51.73512,30.4919471 50.7208212,29.4774305 50.7208212,27.9559823 C50.7208212,26.4343163 51.7353379,25.4200176 53.256786,25.4200176 L60.8648983,25.4200176 C62.3865644,25.4200176 63.4008631,24.4055009 63.4008631,22.8840528 C63.4008631,21.3623867 62.3863464,20.348088 60.8648983,20.348088 L58.3289335,20.348088 C58.3289335,18.826422 57.3144169,17.8121232 55.7929687,17.8121232 C54.2713027,17.8121232 53.257004,18.8266399 53.257004,20.348088 C48.9456895,20.348088 45.6488917,23.6448858 45.6488917,27.9562003 C45.6488917,32.2675148 48.9456895,35.5643126 53.257004,35.5643126 L58.3291515,35.5643126 C59.8508175,35.5643126 60.8651163,36.5788293 60.8651163,38.1002774 C60.8651163,39.6219434 59.8505996,40.6362421 58.3291515,40.6362421 L50.7210392,40.6362421 C49.1993731,40.6362421 48.1850744,41.6507588 48.1850744,43.1722069 C48.1850744,44.693873 49.1995911,45.7081717 50.7210392,45.7081717 L53.257004,45.7081717 C53.257004,47.2298378 54.2715206,48.2441365 55.7929687,48.2441365 C57.3146348,48.2441365 58.3289335,47.2296198 58.3289335,45.7081717 C62.640248,45.7081717 65.9370458,42.4113739 65.9370458,38.1000594 C65.9370458,33.7887449 62.640248,30.4919471 58.3289335,30.4919471 Z" id="Path" fill="#89C763"></path>
                        <circle id="Oval" fill="#FFCA5D" cx="65.9370458" cy="68.5327265" r="17.7524073"></circle>
                        <circle id="Oval" fill="#F6B545" cx="88.7616006" cy="63.460579" r="17.7524073"></circle>
                        <path d="M88.7616006,45.7081717 C78.8709893,45.7081717 71.0091933,53.5699677 71.0091933,63.460579 C71.0091933,73.3511904 78.8709893,81.2129863 88.7616006,81.2129863 C98.652212,81.2129863 106.514008,73.3511904 106.514008,63.460579 C106.514008,53.5699677 98.652212,45.7081717 88.7616006,45.7081717 Z M88.7616006,76.1408388 C81.6606377,76.1408388 76.0813408,70.5615419 76.0813408,63.460579 C76.0813408,56.3596161 81.6606377,50.7803192 88.7616006,50.7803192 C95.8625636,50.7803192 101.44186,56.3596161 101.44186,63.460579 C101.44186,70.5615419 95.8625636,76.1408388 88.7616006,76.1408388 Z" id="Shape" fill="#FFCB5B"></path>
                        <path d="M88.7616006,80.9593027 L88.7616006,80.9593027 C98.652212,81.2129863 106.514008,73.0975067 106.514008,63.460579 L106.260324,63.460579 C104.992342,63.460579 103.977825,64.4750957 103.724359,65.7430781 C103.21721,69.2935595 101.44186,72.5903573 98.9058956,74.8728564 C96.8770802,76.9016718 94.0874318,78.1696542 91.0440997,78.6768036 C89.7758994,78.6768036 88.7616006,79.6913203 88.7616006,80.9593027 Z" id="Path" fill="#F6B545"></path>
                        <path d="M88.7616006,45.9618554 L88.7616006,45.9618554 C78.8709893,45.7081717 71.0091933,53.8236513 71.0091933,63.460579 L71.262877,63.460579 C72.5308594,63.460579 73.5453761,62.4460623 73.7988418,61.1780799 C74.3059911,57.6275985 76.0813408,54.3308007 78.6173056,52.0483016 C80.646121,50.0194862 83.4357695,48.7515038 86.4791016,48.2441365 C87.747084,48.2443544 88.7616006,47.2298378 88.7616006,45.9618554 Z" id="Path" fill="#FFE27A"></path>
                        <path d="M77.8564726,65.2357108 C77.8564726,58.1347478 83.4357695,52.555451 90.5367324,52.555451 C93.5800645,52.555451 96.3697129,53.5699677 98.651994,55.5987831 C96.1160293,52.555451 92.8192315,50.7803192 88.7616006,50.7803192 C81.6606377,50.7803192 76.0813408,56.3596161 76.0813408,63.460579 C76.0813408,67.5182098 77.8564726,70.8150076 80.646121,73.0975067 C78.8709893,71.0686913 77.8564726,68.2790429 77.8564726,65.2357108 Z" id="Path" fill="#F19920"></path>
                        <path d="M96.3697129,71.322375 C96.1160293,71.322375 95.8625636,71.322375 95.6088799,71.0686913 C95.1017305,70.5615419 95.1017305,69.8007089 95.6088799,69.2935595 C97.1305459,67.7718935 97.891379,65.4893944 97.891379,63.460579 C97.891379,62.699746 98.3985283,62.1925966 99.1593614,62.1925966 C99.9201944,62.1925966 100.427344,62.699746 100.427344,63.460579 C100.427344,66.2502274 99.4128271,69.0398759 97.6376953,71.0686913 C97.1305459,71.322375 96.6231786,71.322375 96.3697129,71.322375 Z" id="Path" fill="#FFCB5B"></path>
                        <g id="Group" transform="translate(71.048859, 50.780319)" fill="#F19920">
                            <path d="M17.712742,20.2883721 C16.1910759,20.2883721 15.1767772,19.2738554 15.1767772,17.7524073 L15.1767772,7.60833023 C15.1767772,6.08666418 16.1912939,5.07236545 17.712742,5.07236545 C19.2341901,5.07236545 20.2487068,6.08688213 20.2487068,7.60833023 L20.2487068,17.7524073 C20.2487068,19.2738554 19.234408,20.2883721 17.712742,20.2883721 Z" id="Path"></path>
                            <path d="M27.095986,27.6428007 C25.3208543,21.3026708 20.7558561,16.2305233 14.9228756,13.9482422 C13.9083589,8.11526166 10.1044118,3.04333209 5.28594791,0 C2.24261581,3.29679781 0.2138004,7.60811229 0.2138004,12.4265761 C0.2138004,22.3171875 8.07559634,30.1789834 17.9662077,30.1789834 C21.2632234,30.4324492 24.3063376,29.4181504 27.095986,27.6428007 Z" id="Path"></path>
                        </g>
                        <g id="Group" transform="translate(76.061508, 54.049438)" fill="#E78825">
                            <path d="M4.58461285,19.0480682 C2.80948109,16.7655692 1.54128076,13.9759207 1.54128076,10.9328066 C1.54128076,7.38232512 3.06294681,4.08552731 5.59891159,1.80302824 C5.09176222,1.04219522 4.58439491,0.535045853 4.07724554,0.0278964844 C1.54128076,2.31039555 0.0196147156,5.60719336 0.0196147156,9.41135847 C0.0198326569,13.4687714 1.79496442,16.7655692 4.58461285,19.0480682 Z" id="Path"></path>
                            <path d="M10.1639097,10.9328066 L10.1639097,14.483288 C10.1639097,16.0049541 11.1784264,17.0192528 12.6998745,17.0192528 C14.2213226,17.0192528 15.2358393,16.0047361 15.2358393,14.483288 L15.2358393,13.9761387 C13.7143912,12.7079383 11.9392594,11.6936396 10.1639097,10.9328066 Z" id="Path"></path>
                        </g>
                        <path d="M98.1448447,78.4231199 C97.6376953,76.6479882 97.130328,75.1263221 96.1160293,73.6046561 C94.0872139,75.1263221 91.5512491,76.1406209 88.7616006,76.1406209 C81.6606377,76.1406209 76.0813408,70.561324 76.0813408,63.4603611 C76.0813408,59.656196 77.6030069,56.3593981 80.1389717,54.0768991 C78.8709893,52.8089167 77.6030069,51.7944 76.0813408,51.033567 C73.0380087,54.3303648 71.0091933,58.6416793 71.0091933,63.4601431 C71.0091933,73.3507545 78.8709893,81.2125505 88.7616006,81.2125505 C92.3120821,81.2125505 95.3551962,80.1984696 98.1448447,78.4231199 Z" id="Path" fill="#F6B545"></path>
                        <path d="M97.3840117,76.1408388 C95.6088799,77.4088212 93.3263808,78.1696542 91.0438818,78.6768036 C89.7758994,78.9304872 88.7613827,79.944786 88.7613827,81.2127684 L88.7613827,81.2127684 C92.3118642,81.2127684 95.3551962,80.1982517 98.1448447,78.4231199 C97.891379,77.6622869 97.6376953,76.9016718 97.3840117,76.1408388 Z" id="Path" fill="#F19920"></path>
                        <path d="M76.0813408,51.0340029 C73.0380087,54.3308007 71.0091933,58.6421152 71.0091933,63.460579 L71.262877,63.460579 C72.5308594,63.460579 73.5453761,62.4460623 73.7988418,61.1780799 C74.3059911,57.6275985 76.0813408,54.5842664 78.363622,52.3019853 C77.6030069,52.0483016 76.8421739,51.5411522 76.0813408,51.0340029 Z" id="Path" fill="#FFCB5B"></path>
                        <circle id="Oval" fill="#F6B545" cx="65.9370458" cy="68.5327265" r="17.7524073"></circle>
                        <path d="M63.401081,81.2127684 C63.401081,82.9879001 63.6547647,84.5095662 64.1619141,86.2849159 C64.6690634,86.2849159 65.4298965,86.2849159 65.9370458,86.2849159 C75.8276572,86.2849159 83.6894531,78.4231199 83.6894531,68.5325086 C83.6894531,66.7573768 83.4357695,65.2357108 82.9286201,63.4603611 C82.4214707,63.4603611 81.6606377,63.4603611 81.1534883,63.4603611 C71.262877,63.4603611 63.401081,71.322375 63.401081,81.2127684 Z" id="Path" fill="#F19920"></path>
                        <path d="M65.9370458,50.7803192 C56.0464345,50.7803192 48.1846385,58.6421152 48.1846385,68.5327265 C48.1846385,78.4233379 56.0464345,86.2851338 65.9370458,86.2851338 C75.8276572,86.2851338 83.6894531,78.4231199 83.6894531,68.5327265 C83.6894531,58.6423331 75.8276572,50.7803192 65.9370458,50.7803192 Z M65.9370458,81.2127684 C58.8360829,81.2127684 53.256786,75.6334715 53.256786,68.5325086 C53.256786,61.4315457 58.8360829,55.8522488 65.9370458,55.8522488 C73.0380087,55.8522488 78.6173056,61.4315457 78.6173056,68.5325086 C78.6173056,75.6334715 73.0380087,81.2127684 65.9370458,81.2127684 Z" id="Shape" fill="#FFCB5B"></path>
                        <path d="M65.9370458,86.0312322 L65.9370458,86.0312322 C75.8276572,86.2849159 83.6894531,78.1696542 83.6894531,68.5327265 L83.4357695,68.5327265 C82.1677871,68.5327265 81.1532704,69.5472432 80.8998047,70.8152256 C80.3926553,74.365707 78.6173056,77.6625049 76.0813408,79.9450039 C74.0525254,81.9738193 71.262877,83.2418017 68.2195449,83.749169 C66.9515625,83.7489511 65.9370458,84.7632498 65.9370458,86.0312322 Z" id="Path" fill="#F6B545"></path>
                        <path d="M65.9370458,51.0340029 L65.9370458,51.0340029 C56.0464345,50.7803192 48.1846385,58.8957988 48.1846385,68.5327265 L48.4383222,68.5327265 C49.7063046,68.5327265 50.7208212,67.5182098 50.974287,66.2502274 C51.4814363,62.699746 53.256786,59.4029482 55.7927508,57.1204491 C57.8215662,55.0916337 60.6112147,53.8236513 63.6545468,53.316284 C64.9227471,53.316284 65.9370458,52.3019853 65.9370458,51.0340029 Z" id="Path" fill="#FFE27A"></path>
                        <path d="M55.0321357,70.3078583 C55.0321357,63.2068954 60.6114326,57.6275985 67.7123955,57.6275985 C70.7557276,57.6275985 73.5453761,58.6421152 75.8276572,60.6709306 C73.2916924,57.6275985 69.9946767,55.8524667 65.9370458,55.8524667 C58.8360829,55.8524667 53.256786,61.4317636 53.256786,68.5327265 C53.256786,72.5903573 55.0319178,75.8871552 57.8215662,78.1696542 C56.0466524,76.1408388 55.0321357,73.3511904 55.0321357,70.3078583 Z" id="Path" fill="#F19920"></path>
                        <path d="M73.5453761,76.3943045 C73.2916924,76.3943045 73.0382267,76.3943045 72.784543,76.1406209 C72.2773937,75.6334715 72.2773937,74.8726385 72.784543,74.3654891 C74.3062091,72.8438231 75.0670421,70.561324 75.0670421,68.5325086 C75.0670421,67.7716756 75.5741915,67.2645262 76.3350245,67.2645262 C77.0958575,67.2645262 77.6030069,67.7716756 77.6030069,68.5325086 C77.6030069,71.322157 76.5884902,74.1118055 74.8133584,76.1406209 C74.3059911,76.3943045 73.7988418,76.3943045 73.5453761,76.3943045 Z" id="Path" fill="#FFCB5B"></path>
                        <path d="M65.9370458,76.1408388 C64.4153798,76.1408388 63.401081,75.1263221 63.401081,73.604874 L63.401081,63.460797 C63.401081,61.9391309 64.4155977,60.9248322 65.9370458,60.9248322 C67.4587119,60.9248322 68.4730106,61.9393488 68.4730106,63.460797 L68.4730106,73.604874 C68.4732285,75.1263221 67.4587119,76.1408388 65.9370458,76.1408388 Z" id="Path" fill="#F19920"></path>
                        <g id="Group" transform="translate(60.805618, 63.420914)" fill="#F6B545">
                            <path d="M16.7973886,0.293131027 C17.304538,1.81479707 17.8119053,3.33646312 17.8119053,5.11159488 C17.8119053,12.2125578 12.2326084,17.7918547 5.13164548,17.7918547 C4.37081245,17.7918547 3.35651372,17.7918547 2.59568069,17.538171 L2.59568069,17.7918547 C2.59568069,19.5669864 2.84936435,21.0886525 3.35651372,22.8640022 C3.86366309,22.8640022 4.62449611,22.8640022 5.13164548,22.8640022 C15.0222568,22.8640022 22.8840528,15.0022062 22.8840528,5.11159488 C22.8840528,3.33646312 22.6303691,1.81479707 22.1232198,0.0394473724 C21.6160704,0.0394473724 20.8552374,0.0394473724 20.348088,0.0394473724 C19.0796697,0.0394473724 18.065371,0.0394473724 16.7973886,0.293131027 Z" id="Path"></path>
                            <circle id="Oval" cx="17.8116873" cy="20.3280374" r="17.7524073"></circle>
                        </g>
                        <path d="M78.6173056,65.9965438 C68.7266943,65.9965438 60.8648983,73.8583397 60.8648983,83.7489511 C60.8648983,93.6395625 68.7266943,101.501358 78.6173056,101.501358 C88.507917,101.501358 96.3697129,93.6395625 96.3697129,83.7489511 C96.3697129,73.8583397 88.507917,65.9965438 78.6173056,65.9965438 Z M78.6173056,96.4292109 C71.5163427,96.4292109 65.9370458,90.849914 65.9370458,83.7489511 C65.9370458,76.6479882 71.5163427,71.0686913 78.6173056,71.0686913 C85.7182685,71.0686913 91.2975654,76.6479882 91.2975654,83.7489511 C91.2975654,90.849914 85.7182685,96.4292109 78.6173056,96.4292109 Z" id="Shape" fill="#FFCB5B"></path>
                        <path d="M78.6173056,101.247675 L78.6173056,101.247675 C88.507917,101.501358 96.3697129,93.3858788 96.3697129,83.7489511 L96.1160293,83.7489511 C94.8480469,83.7489511 93.8335302,84.7634678 93.5800645,86.0314502 C93.0729151,89.5819316 91.2975654,92.8787294 88.7616006,95.1612285 C86.7327852,97.1900439 83.9431368,98.4580263 80.8998047,98.9653936 C79.6318223,98.9651757 78.6173056,99.9794744 78.6173056,101.247675 Z" id="Path" fill="#F6B545"></path>
                        <path d="M78.6173056,66.2502274 L78.6173056,66.2502274 C68.7266943,65.9965438 60.8648983,74.1120234 60.8648983,83.7489511 L61.118582,83.7489511 C62.3865644,83.7489511 63.401081,82.7344344 63.6545468,81.466452 C64.1616961,77.9159706 65.9370458,74.6191728 68.4730106,72.3366737 C70.501826,70.3078583 73.2914745,69.0398759 76.3348065,68.5325086 C77.6030069,68.5327265 78.6173056,67.5182098 78.6173056,66.2502274 Z" id="Path" fill="#FFE27A"></path>
                        <path d="M67.7123955,85.5240829 C67.7123955,78.4231199 73.2916924,72.8438231 80.3926553,72.8438231 C83.4359874,72.8438231 86.2256358,73.8583397 88.507917,75.8871552 C85.9719522,72.8438231 82.6749364,71.0686913 78.6173056,71.0686913 C71.5163427,71.0686913 65.9370458,76.6479882 65.9370458,83.7489511 C65.9370458,87.8065819 67.7121776,91.1033797 70.501826,93.3858788 C68.7266943,91.3570634 67.7123955,88.5674149 67.7123955,85.5240829 Z" id="Path" fill="#F19920"></path>
                        <path d="M86.2254179,91.6105291 C85.9717343,91.6105291 85.7182685,91.6105291 85.4645849,91.3568454 C84.9574355,90.8496961 84.9574355,90.0888631 85.4645849,89.5817137 C86.9862509,88.0600476 87.747084,85.7775486 87.747084,83.7487332 C87.747084,82.9879001 88.2542333,82.4807508 89.0150663,82.4807508 C89.7758994,82.4807508 90.2830487,82.9879001 90.2830487,83.7487332 C90.2830487,86.5383816 89.2685321,89.32803 87.4934003,91.3568454 C86.9862509,91.6105291 86.4791016,91.6105291 86.2254179,91.6105291 Z" id="Path" fill="#FFCB5B"></path>
                        <path d="M78.6173056,91.3570634 C77.0956396,91.3570634 76.0813408,90.3425467 76.0813408,88.8210986 L76.0813408,78.6768036 C76.0813408,77.1551375 77.0958575,76.1408388 78.6173056,76.1408388 C80.1389717,76.1408388 81.1532704,77.1553555 81.1532704,78.6768036 L81.1532704,88.8208807 C81.1534883,90.3425467 80.1389717,91.3570634 78.6173056,91.3570634 Z" id="Path" fill="#F19920"></path>
                    </g>
                </g>
            </g>
        </g>
    </g>
</svg>