<?xml version="1.0" encoding="UTF-8"?>
<svg width="70px" height="29px" viewBox="0 0 70 29" version="1.1" xmlns="http://www.w3.org/2000/svg" xmlns:xlink="http://www.w3.org/1999/xlink">
    <!-- Generator: Sketch 64 (93537) - https://sketch.com -->
    <title>money (2)</title>
    <desc>Created with Sketch.</desc>
    <g id="Page-1" stroke="none" stroke-width="1" fill="none" fill-rule="evenodd">
        <g id="money-(2)" fill-rule="nonzero">
            <path d="M68.8971695,27.7701802 C68.8971695,27.7040608 68.8971695,28.2396275 68.8971695,18.7448897 C68.8971695,18.3746214 70.3463858,20.2920823 62.3638172,1.22987534 C62.2250329,0.919135118 61.748687,0.691113487 61.175935,0.661248979 L53.6447616,0.661248979 C53.6447616,0.296081923 53.1129286,0 52.4568794,0 L47.7053505,0 C47.0493013,0 46.5174682,0.296081923 46.5174682,0.661248979 L22.3559436,0.661248979 C22.3559436,0.296081923 21.8241106,0 21.1680614,0 L16.4165325,0 C15.8280642,-0.00416024789 15.3227642,0.232096217 15.2286502,0.555458028 L15.2286502,0.661248979 L7.79250745,0.661248979 C7.22121156,0.693012646 6.74656505,0.920220791 6.60462521,1.22987534 L0,18.513472 L0,27.889195 C0.0145359248,28.0223886 0.127486562,28.1462898 0.31202301,28.2314688 C0.496559458,28.3166478 0.736214496,28.3555035 0.974063431,28.3388066 L10.6909401,28.3388066 C10.6909401,28.7039736 11.2227731,29 11.8788223,29 L16.6303513,29 C17.2864004,29 17.8182335,28.7039736 17.8182335,28.3388066 L51.078936,28.3388066 C51.078936,28.7039736 51.6107691,29 52.2668182,29 L57.0183472,29 C57.6743964,29 58.2062294,28.7039736 58.2062294,28.3388066 L67.9587425,28.3388066 C68.6714719,28.3388066 69.0397154,28.0478814 68.8971695,27.7701802 Z" id="Shape" fill="#71C285"></path>
            <path d="M54,9.95300703 C54,12.8411231 49.2324428,14.96853 44.1631415,16 L24.8394475,16 C13.5180079,13.6920858 11.5627059,8.10925437 21.0857506,4.91169732 C33.2882831,0.734243756 54,3.84799387 54,9.95300703 Z" id="Shape" fill="#4FBA6F"></path>
            <path d="M48,3 L22,3 L22.6886617,0.124233129 C22.6886617,-0.0483128834 20.7555762,0.00920245399 47.2992565,0.00920245399 C47.2992565,0.124233129 47.2388476,-0.141775307 48,3 Z" id="Shape" fill="#71C285"></path>
            <polygon id="Rectangle-path" fill="#4C8056" points="18 20 51 20 51 29 18 29"></polygon>
            <path d="M69.4850302,28.305 C69.5249496,28.4319355 69.5249496,28.5680645 69.4850302,28.695 L69.4850302,28.305 Z" id="Shape" fill="#4C8056"></path>
            <polygon id="Shape" fill="#24AE5F" points="15 3.00662252 11.6961652 16 10.7286136 16 7 14.0728477 9.5840708 4.8013245 14.3038348 3"></polygon>
            <path d="M11,19.4630342 L11,28.9960909 L1.00222222,28.9960909 C0.757497412,29.0132863 0.510914287,28.9732706 0.321043152,28.8855487 C0.131172018,28.7978268 0.0149561378,28.6702267 0,28.5330567 L0,19 C0.0149561378,19.1371699 0.131172018,19.2647701 0.321043152,19.352492 C0.510914287,19.4402139 0.757497412,19.4802296 1.00222222,19.4630342 L11,19.4630342 Z" id="Shape" fill="#4C8056"></path>
            <path d="M69,20 L69,28.6816547 C68.8607418,28.8875679 68.4616324,29.0182931 68.0344444,28.9979149 L58,28.9979149 L58,20.3162603 L68.0344444,20.3162603 C68.4616324,20.3366384 68.8607418,20.2059132 69,20 L69,20 Z" id="Shape" fill="#4C8056"></path>
            <path d="M22.9959413,0.668877143 C22.9959413,0.743948756 23.3135528,-0.50496989 18.3294957,19 L11,19 C16.8147333,-3.82859492 15.5198557,1.33769696 15.7153089,0.573331454 C15.8120929,0.239564566 16.3317283,-0.00429411558 16.9368915,0 L21.823222,0 C22.469377,0.0144417934 22.9835207,0.307665848 22.9959413,0.668877143 Z" id="Shape" fill="#F0C419"></path>
            <path d="M18,19 L18,28.375 C18,28.7201779 17.4776655,29 16.8333333,29 L12.1666667,29 C11.5223345,29 11,28.7201779 11,28.375 L11,19 L18,19 Z" id="Shape" fill="#F29C1F"></path>
            <polygon id="Shape" fill="#24AE5F" points="63 14.0728477 59.3500717 16 58.2252511 16 55 3 55.7919656 3 60.4748924 4.8013245"></polygon>
            <path d="M59,19 L51.6689406,19 C46.7815676,-0.190896918 47.0014994,0.757054281 47.0014994,0.68203656 C47.0014994,0.305389804 47.5485373,0 48.2233426,0 L53.1107156,0 C53.7160079,-0.00429103296 54.2357541,0.239392589 54.3325588,0.572919875 C55.0045726,3.36221513 52.6586336,-5.84450514 59,19 Z" id="Shape" fill="#F0C419"></path>
            <path d="M51,16 C50.8701107,16 51.9918819,16 35,16 L35,15.8223684 C45.0723247,15.8223684 50.0789668,12.3421053 49.0162362,9 L49.2051661,9 C50.7402214,14.9605263 50.3269373,13.4013158 51,16 Z" id="Shape" fill="#24AE5F"></path>
            <path d="M35,15.8119584 L35,15.9889775 L19.0613576,15.9889775 C18.9314872,15.9889775 18.8252296,16.5855975 20.7732859,9 L20.9621883,9 C19.9232249,12.2846883 24.7520433,15.8119584 35,15.8119584 Z" id="Shape" fill="#24AE5F"></path>
            <path d="M58,19 L58,28.375 C58,28.7201779 57.4776655,29 56.8333333,29 L52.1666667,29 C51.5223345,29 51,28.7201779 51,28.375 L51,19 L58,19 Z" id="Shape" fill="#F29C1F"></path>
            <g id="Group" transform="translate(0.000000, 24.000000)" fill="#71C285">
                <path d="M7.17469638,0.664323739 C7.17469638,1.03121958 6.63932622,1.32864748 5.97891365,1.32864748 L0,1.32864748 L0,0 L5.97891365,0 C6.63932622,0 7.17469638,0.297427902 7.17469638,0.664323739 Z" id="Shape"></path>
                <path d="M46.6355265,1.32864748 L22.7198719,1.32864748 C22.0594594,1.32864748 21.5240891,1.03121958 21.5240891,0.664323739 C21.5240891,0.297427902 22.0594594,0 22.7198719,0 L46.6355265,0 C47.295939,0 47.8313092,0.297427902 47.8313092,0.664323739 C47.8313092,1.03121958 47.295939,1.32864748 46.6355265,1.32864748 Z" id="Shape"></path>
                <path d="M69.3553984,0 L69.3553984,1.32864748 L63.3764847,1.32864748 C62.7160722,1.32864748 62.180702,1.03121958 62.180702,0.664323739 C62.180702,0.297427902 62.7160722,0 63.3764847,0 L69.3553984,0 Z" id="Shape"></path>
            </g>
            <path d="M34,3 C27.1687448,3.03964758 21.19867,5.40528634 20.1862012,9 L20,9 L21.5012469,3.01321586 L34,3 Z" id="Shape" fill="#24AE5F"></path>
            <path d="M49,9 L48.8137988,9 C47.8595179,5.40528634 41.8312552,3.05286344 35,3 L47.4987531,3 L49,9 Z" id="Shape" fill="#24AE5F"></path>
            <path d="M35.0092096,8.93846154 C34.4970909,8.94963272 33.9987571,8.84652641 33.6293092,8.65295733 C33.2598614,8.45938826 33.051251,8.19209708 33.0516613,7.91282051 C33.0858588,7.33161026 33.9425716,6.86478806 35.0092096,6.84615385 C35.5308954,6.84204418 36.0342049,6.95104231 36.4083881,7.14916395 C36.7825713,7.34728554 36.9969686,7.61829703 37.0044032,7.9025641 C37.0044032,8.18578703 37.425761,8.41538462 37.9455322,8.41538462 C38.4653033,8.41538462 38.8866612,8.18578703 38.8866612,7.9025641 C38.8657377,6.92753984 37.6201504,6.08762426 35.8750483,5.87179487 L35.8750483,4.51282051 C35.8750483,4.22959756 35.4536905,4 34.9339193,4 C34.4141482,4 33.9927903,4.22959756 33.9927903,4.51282051 L33.9927903,5.90769231 C30.4447339,6.46666667 30.1435726,9.22564103 33.7669193,9.85641026 C34.1684279,9.93447318 34.5923667,9.97268436 35.0186209,9.96923077 C36.1304933,9.95747933 37.0571236,10.4305576 37.1079274,11.0358974 C37.079469,11.3311151 36.8316082,11.6072884 36.4214478,11.8007915 C36.0112875,11.9942946 35.4741992,12.0884401 34.9339193,12.0615385 C34.4107997,12.0768574 33.8984026,11.9767281 33.5123734,11.7837492 C33.1263442,11.5907703 32.8992187,11.3212066 32.882258,11.0358974 C32.882258,10.7526745 32.4609002,10.5230769 31.941129,10.5230769 C31.4213579,10.5230769 31,10.7526745 31,11.0358974 C31.0242883,11.9961025 32.2678466,12.8186151 33.9927903,13.0153846 L33.9927903,14.4871795 C33.9927903,14.7704024 34.4141482,15 34.9339193,15 C35.4536905,15 35.8750483,14.7704024 35.8750483,14.4871795 L35.8750483,13.0307692 C37.7011242,12.8592259 39.0265353,11.9890867 38.9995967,10.9794872 C38.8982602,9.82384226 37.1322157,8.92053595 35.0092096,8.93846154 L35.0092096,8.93846154 Z" id="Shape" fill="#4C8056"></path>
        </g>
    </g>
</svg>