<?xml version="1.0" encoding="utf-8"?>
<!-- Generator: Adobe Illustrator 26.0.3, SVG Export Plug-In . SVG Version: 6.00 Build 0)  -->
<svg version="1.1" id="Layer_1" xmlns="http://www.w3.org/2000/svg" xmlns:xlink="http://www.w3.org/1999/xlink" x="0px" y="0px"
	 viewBox="0 0 1310.1 714.6" style="enable-background:new 0 0 1310.1 714.6;" xml:space="preserve">
<style type="text/css">
	.st0{fill:#D1D1D1;}
</style>
<polygon class="st0" points="472.1,318.4 453.3,318.4 475.4,241.3 426.9,241.3 426.9,196.6 445.2,196.6 445.2,223 495.2,223 
	495.2,237.9 "/>
<path class="st0" d="M565.2,318.4l-0.1-77.1l-31,0l0,59.3c0,8.3-9.8,17.8-18.1,17.8l-14.9,0l0-18.3h10.8c1.5,0,3.9-2.3,3.9-3.8
	v-55.1l-11.8,0V223l79.4,0l0.1,95.4L565.2,318.4L565.2,318.4z"/>
<polygon class="st0" points="309.4,435.4 309.4,417.1 354.4,417.1 354.4,358.5 309.4,358.5 309.5,340.3 372.7,340.3 372.6,417.2 
	381.1,417.2 381.1,435.4 "/>
<polygon class="st0" points="399.2,386.2 399.2,358.5 386.8,358.6 386.8,340.3 417.5,340.3 417.4,386.2 "/>
<polygon class="st0" points="426.4,435.5 426.4,417.2 471.3,417.2 471.3,358.6 426.4,358.5 426.4,340.3 489.6,340.4 489.6,417.2 
	498.1,417.2 498.1,435.5 "/>
<path class="st0" d="M562.7,435.5L526.1,375l0,60.4h-18.4l0-57.2c0-4.1,1.3-7,4.6-9.6l6.5-5.1l-14.1-23.3l21,0l37,61.3v-61.2l18.4,0
	v53.1c0,6.7-2.3,9.4-7.2,12.7l-5.5,3.7l15.3,25.6L562.7,435.5L562.7,435.5z"/>
<polygon class="st0" points="445.6,552.3 445.6,475.5 433.2,475.5 433.2,457.2 463.8,457.2 463.8,552.3 "/>
<path class="st0" d="M522.4,552.3h-47l0-18.2l46.4,0c2,0,4.7-2.9,4.7-4.7v-49.2c0-1.8-2.8-4.7-4.7-4.7h-28.1l0,22.1l14.8,0v17.3
	l-33,0l0-57.6l47.1,0c10.4,0,22.3,12,22.3,22.3V530C544.7,540.3,532.8,552.3,522.4,552.3"/>
<polygon class="st0" points="565.3,503.2 565.3,475.5 552.9,475.4 552.9,457.2 583.5,457.2 583.5,503.2 "/>
<polygon class="st0" points="86.2,241.3 86.4,240.2 84.8,237.6 84.8,236.4 84.3,236.7 84,236.2 83.9,236.9 83.1,237.4 82.8,237 
	82.8,238.7 84.2,237.9 "/>
<polygon class="st0" points="87.4,237.9 86.6,238.3 86.9,239.3 88,238.7 87.6,237.1 86.8,236 85.7,235.6 85.7,236.8 86.6,236.9 "/>
<polygon class="st0" points="87.5,234.4 87.6,236.1 88.7,235.5 89.1,235.4 89.3,235.6 89.9,236.5 88.6,237.2 88.8,238.3 91,237.1 
	90.8,236 90.4,236.2 89.5,234.8 89,234.4 88.4,234.4 87.8,234.8 "/>
<polygon class="st0" points="90,234.3 91,234.4 91.1,235.3 91.5,236.2 91.5,236.7 92.5,236.2 92.3,235.2 91.7,235.5 91.4,235 
	91.4,234.5 92.8,234.9 94.2,235.5 94.3,235.5 94.2,234.5 93,234 93.1,232.8 92,232.1 92,233.2 92.4,233.5 92.7,234 91.4,233.5 
	90.1,233.2 "/>
<polygon class="st0" points="53.5,235 52.9,234.7 52,235.4 53.2,236 54,235.4 54.5,233.9 55.5,234.4 55.7,234.6 55.6,234.9 
	54.5,236.9 55.4,236.6 56.5,234.7 56.6,234.1 56.2,233.7 54.8,232.9 54.9,232.4 53.4,233.2 53.9,233.6 "/>
<polygon class="st0" points="57.1,234.9 57.3,235.9 56.3,236.6 57.9,236.2 58.4,235.2 58.2,234.3 "/>
<polygon class="st0" points="58.8,237.9 58,237.5 57.3,238.2 58.4,238.9 59.7,237.6 60.2,236.5 60,235.4 59,236 59.3,236.8 "/>
<polygon class="st0" points="62,236.2 60.5,237.2 61.7,237.8 61.9,238 61.8,238.3 61.3,239.2 60.1,238.6 59.2,239.2 61.4,240.4 
	62.2,239.7 61.8,239.5 62.7,238.1 62.8,237.5 62.5,237 61.9,236.7 "/>
<polygon class="st0" points="63.4,240.4 62.7,240 61.9,240.7 63.1,241.4 64.3,240.2 64.8,239 64.7,237.9 63.6,238.6 64,239.3 "/>
<polygon class="st0" points="65.3,239.2 65.5,240.4 64.3,242.2 64.4,242.3 65.4,241.8 65.4,241.7 66.5,240.1 66.4,238.6 "/>
<path class="st0" d="M73.8,187.9L72,189l1.8-1.8l1.8,1.3l-1.5-0.6L73.8,187.9z M83,231.4l-2.8,1.6l-1.4,0.1H78l-0.7-0.1l-0.9-0.4
	l-0.1-0.7c-1.9-0.4-3.5,0.2-5,0.7l-0.2-0.7l-2.9,1.1l-0.9,0.7l-1.2-1.1c1.5-1,2.8-1.2,3.9-1.5l-3.5,1l3.5-1l2.1-0.2L73,231l1.9-0.3
	l1.4,0.1l1.4,0.3l2.2,0.4l2.9-0.2L83,231.4z M83.9,226.1l1.2,0.2c2.5-0.9,5.3-0.8,8-0.6c1.5,0.2,3.1,0.6,4.4,1.4l-0.9,1l-1.4-0.4
	c-2.5-1.2-5.1-1.3-7.4-1.1l-0.9,0.1l-1.4,0.2l-0.7,0.2l-2.6,0.4h-0.9l-1.2-0.1c-1.4-0.2-2.7-0.9-4.2-0.9h-3.1l-1.5,0.2l-1.6,0.4
	c-1.3,0.3-2.4,0.8-3.8,1l-3.1-0.3c-2.4-0.4-5.1-1-7.6-0.2l-1.8,0.5l-3.1-0.3l2.9-1.5l0.8,0.1l3-0.2l0.6-0.3l2.8-0.2L63,226l1.5-0.2
	c1.4,0.2,2.6,0.5,4,0.3l3-0.5l2,0.2h0.8l2.4-0.2c2.2-0.2,4.5-0.4,6.6,0.2L83.9,226.1z M75.2,223l1.3-0.4l2.6,0.5h1.4l3.4-0.3
	c1.9-0.3,4-0.3,6-0.2c1.9,0.1,3.8,0.5,5.6,0.9l1,0.2l0.6,1.2l-2.8,0.1l-0.1-1l-2.3,0.6l-0.4-0.7l-3.2,0.9l-0.2-0.7
	c-1.4,0.7-3.4,0.8-5,0.5l-2.3-0.2h-3.3v-0.6l-1.4,0.4l-1.4,0.2l-0.1-0.7l-2.4,0.8l-0.7-0.5l-2.4,0.8l-0.2-0.6
	c-1.3,0.6-2.9,0.6-4.3,0.9l-1.6-0.4l0.5-0.6h-2.4l-3.3,0.6l-2.7,0.4l-1.7,0.2l-3.5,0.6l-0.2-0.8l0.5-1.1c2,0,3.8-0.4,5.8-0.4
	c2.3-0.1,4.2-0.7,6.1-0.5c1.8,0.1,3.7,0.7,5.7,0.4l1.9-0.6l3.1-0.1l2.3-0.3L75.2,223z M77.4,220.8h1c2.8,0.1,5.7-1.1,8.5-0.7
	l0.5,0.8c2.2-0.9,4.8-0.1,7.1,0.1l1.1,0.4l-2.9,0.2l-3.2-0.2c-1.7,0.1-3.4,0.1-5,0.2c-1.8-0.3-3,0.3-4.5,0.1
	c-1.4-0.2-2.8-0.2-4.1-0.6l-1.5,0.5l0.3-0.7c-1.3-0.2-2.4,0.1-3.4,0.3c-1.6,0.5-3.2,1.1-5,1.4l-2.7-0.3l-0.8-0.3l-2.7,0.5l-1.4-0.2
	l-3.2,0.4l-1.9,0.2l-0.7-0.1l-1.7-0.2c1.2-1.5,2.4-1.5,3.6-1.4l2.3-0.6l1.2,0.6l1.3-0.4l0.8,0.4c1.8-0.7,3.9-0.6,5.8-0.2l1.5,0.3
	l2.3-0.6c1.8-0.2,3.6-0.7,5.5-0.4L77.4,220.8z M77.8,218.1l1.5-0.1c1.4,0,2.7,0,4.1,0l3.1,0.1l3.5,0.4c1.5,0.3,2.9,0.5,4.3,1
	l-3.4,0.4l-0.3-0.7l-3,0.2l-0.4-0.6c-1.3,0.1-2.5,0.8-3.8,0.7l-0.5-0.7c-1.8,0.1-3.5,0.6-5.2,1l-0.3-0.8l-3.7-0.2
	c-2.2,0.4-4.3,0.6-6.3,1.4h-0.8l-1.3-0.8l-3.5,0.6l-0.9-1.1l-2.2,0.4c-1.3-0.4-2.1-0.1-2.9,0.3c-1.6-0.6-2.7,0-3.7,0.3l0.1-0.7
	l1.6-0.8c2.1-0.6,4.5-1.1,6.8-0.6c1.4,0.4,3,0.6,4.6,0.9c2.2,0.3,4-1.1,6.1-1.2c1.5-0.2,2.9-0.3,4.4,0.1L77.8,218.1z M93.4,228.3
	l1,0.3L93.4,228.3l1,0.3c-2.7,0.6-5.6,0.3-8.3,0.9l-3,0.9l-1.4,0.2l-0.9,0l-1.2-0.5v-0.8l-0.6-0.2l-0.9,0.1l-2.3,0.6l0.3-1.1l-0.6,0
	l-1.8,0.5l-1.1,0.8l0.1-0.7l-2.2,0.4l-2.9,0.8h-0.8c-1.7,0-2.8,0.2-3.9,0.4l-1.2-0.6c-2.9-1-4.8-1.1-5.6-1.2l1.7-0.8l0.7,0l2.9,0.6
	l-2.6-0.5l2.6,0.5l2.7,0.2l0.9,0l2.3-0.3l3.2-1l1.3,0.3l2.2-0.2l0.9-0.1l0.8,0.1l2.5,0.7l0.9,0l1.4,0c1.4-0.2,2.9-0.2,4.3-0.4
	l2.9-0.1C89.7,228.1,91.6,228.2,93.4,228.3 M69.2,236.3l-1.1-1.6l2.7-1.1l2.8-0.3l2,0.3l2.8,0.7l1.3,0.2l-1.1,1.1l-1.6,0.3l-0.9-1.1
	l-2.5,0.9l-0.6,0.1l-0.2-0.7l-2.6,0.9L69.2,236.3z M76.4,237.2l-1.3-0.2l-0.9,0.1l-2.3,0.3l-0.7-0.3l-0.7,0l-0.7,0.2l0.7-0.2l0.7,0
	l-0.7,0l-0.7,0.2l0.7,2.1l1.6,1.6l0.8,0.3l0.8,0.1l2.1-1.7l1.1-1.8l0.3-0.8L76.4,237.2z M74.1,181.6c-2.5,0-3.5,1-4.3,2.5
	c-3.1,5.8-6.8,8.6-8.7,9.4c-2.1,0.9-5,1.3-8.7,1.2c-1.2-0.1-2.4,0.1-3.4,0.9c-1.1,0.9-2.1,2.1-2,3.5c0.1,3.2,4.3,6.6,4.4,14.6
	c0,5.3-3.2,8.5-4,9.9c-0.1,0.5-1.2,1.9,0.2,4.6c0,0,1.3,2.5,4.1,2.6c1.1,0,6.4-0.2,9.8,1.5c6.1,3.1,7.1,8,7.5,8.9l2.8,2.5l2.1,0.3
	l1.9-0.3c1.4-0.5,2.3-1.4,2.8-2.5c0.6-1.1,2.3-6.1,6.8-8.4c3-1.6,5.9-2.1,10.6-1.9l2.4-0.7l0.9-0.8l0.9-1.3l0.4-3.1l-0.4-1.4
	c-0.7-1.7-1.5-2.4-2.2-4.1c-0.9-2.3-1.5-3.3-1.5-6.2c0-3.6,1-6.8,2.2-9.1c1.1-1.9,2.3-3.2,1.8-5c-0.3-1.4-0.9-2.6-2-3.5
	c-1.3-1-2.9-0.9-3.4-0.9c-0.6,0-5.5,0.3-8.7-1.2c-5.6-2.6-8.1-9-8.8-9.8C77,182.7,76.6,181.7,74.1,181.6 M73.8,188.8l-1.4,1.2
	l-2.1-1c0.3,1.5,0.7,3.5,0.2,5l-0.1,3.1l-1.3,2.1c-1,1.3-2.3,2.2-3.6,3l-0.9,1.7l-0.5,1.9v0.7l-0.5-0.7h-2.2v1.1h-1v-1.1h-3v3.3
	l1.1,2.2l-3,4.7l-2.2,0.5c0.5-5.9-0.8-10.3-1.4-11.6l15.5-5.4l1.3-1.5l-17.9,5.3l-0.6-1.3l18.4-5.3l-0.4-1.3l-18.8,5l0.8-2.5
	l2.5-0.7c0.9,0,5.9-0.1,9.1-1.4c4.9-2.1,7.6-6.6,8-7.6l1.1,0.5l0.4-0.7l-1.1-0.8l0.6-0.8l1.1,0.7l-0.5-1.5l1.5-1.4l0.3,1.9h1.1
	l0.1-1.9l1.6,1.4l-1,1l1.6-0.2l0.6,0.8l-1.1,0.8l0.5,0.7l1-0.5c0.4,1,3.3,6.3,8.3,7.8c4.7,1.5,7.8,1.2,8.8,1.2l2.4,0.7l1,2.3
	l-19-4.7l-0.3,1.3l18.3,5.3l-0.4,1.3L79,197.9l1.2,1.6l15.6,5.4c-0.7,1.3-2,5.7-1.4,11.6l-2.2-0.5l-3-4.7l1.1-2.2v-3.3h-3.1
	l-0.1,1.1h-0.9v-1.1H84l-0.5,0.7l-0.1-0.7l-0.4-1.9l-1-1.7c-1.3-0.8-2.6-1.7-3.6-3l-1.4-2.1V194c-0.5-1.5-0.2-3.5,0.1-5l-2,1
	L73.8,188.8z M72.8,200.6h-3l1.4-2h1.6V200.6z M70.6,201.7l-0.1,1.1h-2.7l1.1-1.1H70.6z M69,203.9v1.8h-3.5l0.9-1.8H69z M70.3,205.7
	l2.7,0v-1.8h-2.7V205.7z M60.2,207v0.8h1.8V207h1.6v0.8h1.8V207h1.5l0,1.5h-8.6V207H60.2z M70.6,208.5h-2.7V207l2.7,0V208.5z
	 M70.5,209.4l-0.8,0.9H59.4l-0.5-0.9H70.5z M60.3,213h-1.7l0.8-1.4h0.9V213z M61.8,213h2.9v-1.4h-2.9C61.8,211.6,61.8,213,61.8,213z
	 M68.3,211.5L67,213h-0.9v-1.4H68.3z M66.2,214.1l-0.4,0.7h-8.1l0.4-0.7H66.2z M61.1,215.6v0.8l-2-0.5l-1.9-0.1L61.1,215.6z
	 M64.4,217.2l-1.4-0.4l-0.1-1.3h2.3L64.4,217.2z M85.8,215.9c1.4,0,2.4-0.1,3.4,0.1l0.8-0.1l0.6,1.2l-3.1-0.1l-1.4-0.1l-3.3-0.6
	h-0.8C83.2,215.9,84.5,215.8,85.8,215.9 M74.7,200.6h3l-1.4-2h-1.6V200.6z M77,201.7v1.1h2.8l-1.2-1.1H77z M78.6,203.9v1.8l3.5,0
	l-0.8-1.8H78.6z M74.6,203.9h2.7v1.8h-2.7L74.6,203.9L74.6,203.9z M87.4,207v0.8h-1.8V207H84l0,0.9h-1.7V207h-1.5v1.5h8.6V207H87.4z
	 M76.9,208.5h2.7V207h-2.7V208.5z M77.1,209.4l0.8,0.9h10.3l0.5-0.9H77.1z M87.2,213H89l-0.8-1.4h-1V213z M82.9,211.5h3v1.4h-3
	V211.5z M79.3,211.5l1.3,1.4h1v-1.4H79.3z M73.8,209.6l0.9,0.2c1.8,0.7,3.5,2.4,5,3.9l2.5,4l-1.1,0.1c-1.1-1.3-2.2-2.8-3.5-3.7
	c-1.1-0.8-2.5-1.5-3.8-1.8c-1.3,0.2-2.6,1-3.7,1.8c-1.4,0.9-2.5,2.4-3.5,3.7l-1.2-0.1l2.6-4c1.4-1.5,3.1-3.2,5-3.9L73.8,209.6z
	 M73.8,207h1.9v1.5h-3.8V207H73.8z M73.8,202.7l-1.7,0.1v-1.1h3.4v1.1L73.8,202.7z M73.8,196.4H76l-0.5,0.8H72l-0.4-0.8H73.8z
	 M73.8,195.4h-2.3l0.2-0.9h4.1l0.2,0.9H73.8z M73.8,193.3h-1.7l-0.2-1.9l2-1l1.6,1.3l0.2,1.7H73.8z M84.5,214.8l-3.3,0.3l-0.1-0.7
	l8.4-0.3l0.4,0.7L84.5,214.8L84.5,214.8z M67.6,250.7c-17.3-3.1-30.5-18.9-30.5-37.8c0.1-21.2,16.4-38.3,36.7-38.3
	c2.1,0,4.1,0.2,6.1,0.5c17.3,3.1,30.5,18.9,30.5,37.8c0,21.1-16.5,38.3-36.6,38.3C71.7,251.3,69.6,251.1,67.6,250.7 M80.1,173.9
	c-2.1-0.4-4.2-0.6-6.3-0.6c-20.9,0-37.8,17.8-37.9,39.6c0,19.5,13.7,35.9,31.6,39c2,0.4,4.1,0.6,6.3,0.6c20.9,0,37.8-17.8,37.8-39.6
	C111.5,193.4,97.9,177,80.1,173.9 M120.9,167.4l-1.8,3l-4,0.8l1.4,1.3c2.2,1.2,0.5,3.9,0.8,5.7l3.1-1.8l3.9,1.6l-0.8-3.2
	c-0.8-1.9,1.5-2.6,2.2-3.9l-1.8-0.5l-0.7-0.1l-1-0.2L120.9,167.4z M108,170l-1.8,2.9c-1.4,0.5-3,0.7-4.3,1l2.6,2.6
	c0.2,1.6-0.7,3.1-0.2,4.6l2.8-1.9l4,1.6c-0.2-1.4-0.7-2.8-1-4.2l2.6-2.9l-3.6-0.8L108,170z M118.8,181.3l-1.9,3.2
	c-1.4,0.4-2.9,0.3-4.1,0.9l2.5,2.6l-0.2,4.1l1.7-1.1l1.7-0.7l1.6,0.7l1.6,0.7l-0.7-4l2.7-2.9l-0.9,0l-1-0.2l-1.1-0.3
	C119.4,183.4,119.2,182.1,118.8,181.3 M73.6,128.5l-1.9,3l-3.4,0.8c0.2,1.3,1.4,1.7,2,2.7l-0.2,4.5l2.8-1.7l3.9,1.5
	c-0.2-1.4-0.6-2.7-1.1-3.9c0.6-1.3,1.9-2,2.7-2.9l-1.1-0.7l-0.8-0.2h-0.9C74.1,131.2,74.4,129.3,73.6,128.5 M72.1,266.8
	c-1.3,0.3-2.8,0.2-4,0.8l2.3,2.1c0.6,1.6-0.6,3.3,0,4.9l3.3-1.8c1.3,0.3,2.4,1.4,3.7,1.4c-0.4-1.3-1-2.7-1.1-4.2l2.7-2.7l-2.8-0.6
	c-1.4-0.4-1.6-2-2.2-3L72.1,266.8z M60.2,257.4c-1.4,0.2-2.6,0.5-3.8,0.9l2.5,2.6l-0.4,4.3l3.1-1.7l3.9,1.4
	c-0.2-1.4-0.8-2.7-0.9-4.1l2.4-3.1l-2.4-0.5c-1.8,0.4-1.8-1.9-2.6-2.9L60.2,257.4z M84.7,257.6l-3.7,0.6l2.4,2.7l-0.4,4.5l3.2-1.8
	l4.1,1.5l-1-3c-1.1-2,1.8-2.8,2.5-4.3l-3.2-0.5l-2-2.8L84.7,257.6z M34,156.4l-1.7,2.7l1.5,1.4l0.7,1.2v5.9l1.8-2.5l-0.1-5.3
	l-1.1-2.2L34,156.4z M40.8,157l-1.5,1.2l-1.2,2.3l0.9,1.7l1,1.1l0.9-2.1l-0.6-0.5l-0.2-0.9h1.7l1.7,1.3l0,1.1l0,0.8l0,0.9l-4.8,0.4
	l-1.3,2.7h6.9l1-2.7l0.1-0.7v-1.4l-0.1-1.8l-0.2-0.8l-0.9-0.9l-1.2-0.8l-1.5-0.7L40.8,157z M48.5,156.8l-1.7,2.7l1,0.6l1,1.3
	l-0.6,1.8l-0.6,1.3l1.3-1l1.8-1.9l0.4-1.3l-0.2-0.9l-0.6-0.8L48.5,156.8z M58.5,161.4l-4.6-0.1l-1,1.8h4.6L58.5,161.4z M62.7,156.5
	l-1.3,2.2l-0.8,1.8l3.6,0l0.7,0.3l0.3,0.8l0,2.9l-3.6-0.1l-1.2,2.7h6.8l1.1-2.7l-1.4-0.1l0-4.5l-0.1-0.8l-0.6-0.9l-0.9-0.4h-2.4
	L62.7,156.5z M70.9,156.9l-1.7,2.7l1.1,0.5l0.9,1.4l-0.6,1.8l-0.6,1.4l1.3-1.1l1.8-1.9l0.4-1.3l-0.2-0.8l-0.6-0.7L70.9,156.9z
	 M76.4,156.5l-1.3,2.1l-0.8,1.8l3.7,0l0.7,0.3l0.3,0.8v2.8l-3.6-0.1l-1.2,2.7h6.8l1-2.7l-1.3,0.1v-4.5l-0.1-0.8l-0.5-0.9l-0.9-0.4
	l-2.4,0L76.4,156.5z M90.3,156.8l-1.6,2.5l0.5,1.1l0,1.5l-1.2-1.2l-1.2-1.4l-1.7-1.5l-1-0.8l-1.5,2.4c1.4,0.9,2.1,1.4,2,1.5
	l-0.6,1.1l-0.5,1.2l-0.2,1.4l-0.1,1.1l-0.7,1.3h3l1-2.7h-1.6l0-0.9l0.5-2.1l1.2,1.2l1.6,1.8l1.2,1.6l1.2,1.6l1.3-2.4l-2.1-2.5
	l1.3-1.3l0.6-1.4l-0.7-2.1L90.3,156.8z M99.7,153.9l-1.8,2.4l0.4,1.2l-0.1,2.3l0.7,0.7h3.3c0.5,1.4,0.4,2.1-0.1,2.6l-1.2,0.8
	l-1.3,0.4l-1.8,3.3l1.1-0.4l2.2-1l2-1.5l1.1-2l0.4-2.1l0.2-1.3l-0.2-1l-0.6-0.5l-4,0l0-2.3l-0.1-1.3L99.7,153.9z M108.1,156.5
	l-1.3,2l-0.9,1.9h1.7l0.9,3.9l-1.7,0l-1.2,2.7h3.7l1-2.5l-0.8-4.1h3l0.8,0.4l0.3,0.7v6l1.7-1.8l0-5.8l-0.2-0.8l-0.5-0.7l-0.7-0.5
	l-0.7-0.2h-4.5L108.1,156.5z M73.7,103l-18.2,12.9v13.9H51v-12.1c-11,3.8-21,5.2-22.5,5.4v6.7h-5.1v-6.6l-23.3,0l0,24.6l2.1,0.2
	c4.5,0.8,7.4,3.8,9.2,8.2l-0.1,95.7c1.6,9.3,9.3,18.7,18.1,21.2c4.2,1.2,21.6,4.2,23.2,4.5c5.6,1,9.9,2.8,14.2,6.3
	c3.3,3.1,4.2,7.9,6.1,11.5c1.9-3.6,4.3-8.4,7.5-11.4c5.5-4.6,11.1-5.4,19.3-7c7.8-1.6,12.2-2.2,18.1-3.9
	c8.8-2.5,16.5-11.8,18.1-21.1v-95.7c1.9-5.1,5.6-8.3,11.3-8.5v-24.6h-23.4v6.6h-5.2l0.1-6.7c-0.5-0.1-1.8-0.3-3.7-0.6
	c-4.2-0.7-11.3-2.2-18.9-4.8l0,12.1l-4.4,0l0-13.9L73.7,103z M29.9,268c-6.8-2.1-12.3-9.5-13.9-16.2l0-95.5c-0.3-3.8-4-8.1-4-8.1
	H135c0,0-3.7,4.4-4.1,8.1v95.5c-1.7,6.7-7.1,14.1-14,16.2c-5.6,1.8-10.6,2.8-17.2,3.9c-8,1.4-20.5,4.9-25.4,11.3h-1.8
	c-4.2-5.5-13.9-9.5-21.7-10.9C49.5,272.2,34,269.3,29.9,268 M45.7,135.2h14.7v-17l13.3-9l12.8,9v17h14.8v-10.3
	c6.3,1.8,12.3,3.1,12.3,3.1v7.3l15.1,0l0.1-6.9l13,0l-0.1,14.5l-136.7,0L5,128.3h13l0.1,6.9h15.1v-7.3c0,0,6.1-1.3,12.4-3
	L45.7,135.2z"/>
<path class="st0" d="M1094.1,366.9c-0.2-2.9-0.4-5.5-0.7-8.2l-39.5,4.5c0.2,1.9,0.3,3.7,0.4,5.6L1094.1,366.9z"/>
<path class="st0" d="M1125.1,583.8c3-3.1,8-8.7,10.8-11.9l-50.4-44c-2.2,2.5-6.1,6.9-8.5,9.3L1125.1,583.8z"/>
<path class="st0" d="M661,479.4c-2.4-5.9-4.5-11.6-6.5-17.7l-39.4,13.1c2.2,6.7,4.9,13.9,7.6,20.4l35.3-14.6"/>
<path class="st0" d="M1179.9,288.4c-1.9-5.7-3.5-10.2-5.8-15.7l-31.6,12.5c1.8,4.6,3.4,9.1,5,13.8L1179.9,288.4z"/>
<path class="st0" d="M915,704.2c16.6,0,30.4-1.3,46.4-3.6l-5.9-39.1c-14.1,2.1-25.9,3.1-40.8,3.2L915,704.2z"/>
<path class="st0" d="M674.8,568.8c-3.9-4.8-7.6-9.6-11.1-14.6l-34,24.6c4,5.6,8.1,11.2,12.5,16.5L674.8,568.8z"/>
<path class="st0" d="M1256.7,353.3c-0.5-7.1-1.2-14-2-21l38.5-4.9c1.1,8.1,2.2,15.8,2.7,24.1L1256.7,353.3z"/>
<path class="st0" d="M1104,442c-6.5,19.1-15.7,36.9-27.2,53l-48.7-35.2c8.1-11.3,14.6-23.9,19.1-37.3L1104,442z"/>
<path class="st0" d="M937.5,73l1.9-22.2c5.7,0.5,11.4,1.1,17,1.9l0.6,0.1v-0.2l1.5-12.7c-15.1-2.1-30.6-3.1-46.3-3.1
	c-16.1,0-31.9,1.1-47.3,3.3l5.3,34.8c13.7-1.9,27.8-2.9,42.1-2.9C920.7,71.9,929.1,72.3,937.5,73L937.5,73L937.5,73z"/>
<path class="st0" d="M831.3,453.8c7.5,7.9,16.4,14.8,25.8,20.3l-15.3,26.8c-11.8-6.8-23.4-15.8-32.7-25.5L831.3,453.8z"/>
<path class="st0" d="M988.9,257.1c2.9,1.9,5.8,3.9,8.6,6l45-59.7c-4.3-3.3-8.3-6.1-12.9-9.1L988.9,257.1z"/>
<path class="st0" d="M791.8,586.5l-17.2,28.2c6.6,3.8,13.4,7.4,20.4,10.7l3.5-7.5c9.3,4.4,19.1,8.3,28.9,11.6l-2.6,7.8
	c13.5,4.6,28,8.1,42.4,10.5l5.4-32.6C844.3,610.6,815.7,600.3,791.8,586.5"/>
<polygon class="st0" points="286.8,238.9 265.9,238.8 265.7,318.4 246.5,318.3 246.7,238.8 225.9,238.7 225.9,223 286.8,223 "/>
<polygon class="st0" points="351.6,238.8 317.5,238.7 317.5,261.1 349.6,261.1 349.5,276.9 317.5,276.9 317.5,302.5 352.9,302.6 
	352.8,318.3 298.2,318.3 298.3,222.9 351.6,223 "/>
<polygon class="st0" points="365.8,223 385,223 385,302.6 419.1,302.6 419.1,318.3 365.8,318.4 "/>
<path class="st0" d="M86.3,399.7l-9.2-42.9h-0.2l-9.2,42.9H86.3z M88.8,340.3l25.2,95.3l-20,0l-4.4-20.1l-25.3,0l-4.4,20.1l-20,0
	l25.3-95.2L88.8,340.3z"/>
<polygon class="st0" points="149.1,410.7 149.5,410.7 163.7,340.3 183.6,340.4 161.6,435.6 136.9,435.6 115.1,340.3 135.7,340.3 "/>
<polygon class="st0" points="194.9,340.4 214.1,340.4 214,435.6 194.8,435.6 "/>
<polygon class="st0" points="259.4,410.9 259.8,410.9 274,340.4 293.8,340.4 271.9,435.7 247.2,435.7 225.4,340.4 246,340.4 "/>
<polygon class="st0" points="173.9,494.1 174.1,494.1 187.4,457.4 208.1,457.3 183.6,515 183.6,552.4 164.5,552.4 164.5,515.1 
	139.8,457.5 161.3,457.4 "/>
<path class="st0" d="M250.9,516.6l-9.2-42.7h-0.2l-9.1,42.8L250.9,516.6z M253.3,457.3l25.3,95l-19.9,0l-4.5-20.1l-25.2,0l-4.4,20.1
	l-19.9,0l25-95L253.3,457.3z"/>
<polygon class="st0" points="341.5,457.2 341.5,472.9 307.6,473 307.7,495.3 339.6,495.2 339.6,510.9 307.7,511 307.7,552.2 
	288.6,552.3 288.5,457.3 "/>
<path class="st0" d="M371.1,521.3c0.3,4.5,0.9,8.2,1.8,10.9c1,2.8,2.3,4.8,4,6.1c1.7,1.3,4,1.9,6.8,1.9c2.8,0,5.1-0.7,6.9-2
	c1.7-1.3,3-3.3,4-6.1c0.9-2.8,1.5-6.4,1.8-11c0.3-4.4,0.5-9.9,0.5-16.2c0-6.4-0.2-11.8-0.5-16.2c-0.3-4.4-1-8.1-1.9-10.9
	c-0.9-2.9-2.2-4.9-4-6.2c-1.7-1.3-4-1.9-6.9-1.9c-2.8,0-5.1,0.7-6.8,1.9c-1.7,1.3-3.1,3.4-4,6.2c-0.9,2.8-1.6,6.5-1.9,10.9
	c-0.3,4.4-0.4,9.9-0.4,16.2C370.6,511.4,370.8,516.8,371.1,521.3 M352.4,485.2c0.6-6,2.1-11.3,4.3-15.6c2.3-4.3,5.5-7.7,9.8-10.2
	c4.3-2.4,10-3.7,17.1-3.7c7.2,0,12.9,1.2,17.1,3.6c4.3,2.4,7.5,5.8,9.8,10.2c2.3,4.3,3.7,9.5,4.4,15.6c0.7,6,1,12.7,1.1,19.9
	c0,7.3-0.3,13.9-1,20c-0.6,6-2.1,11.2-4.4,15.6c-2.3,4.3-5.5,7.7-9.8,9.9c-4.3,2.4-9.9,3.5-17.1,3.5c-7.2,0-12.9-1.1-17.2-3.4
	c-4.2-2.3-7.5-5.6-9.8-9.9c-2.3-4.4-3.7-9.5-4.4-15.6c-0.7-6-1-12.7-1-19.9C351.4,497.9,351.8,491.3,352.4,485.2"/>
<path class="st0" d="M704.3,357.6c0.4-4.6,1-9.2,1.7-13.7l65.6,10.1c-0.6,3.3-1,6.1-1.3,9.4L704.3,357.6z"/>
<path class="st0" d="M1114.7,376.7l0,0.4c0,7.4-0.4,14.8-1.2,22l-59.6-6.8c0.6-5.1,0.8-9.9,0.8-15.1v-0.7L1114.7,376.7z"/>
<path class="st0" d="M1038.5,311.1c-5.7-10.8-12.7-20.8-20.9-29.8l55.7-49.9c12.4,13.7,23,29,31.6,45.5L1038.5,311.1z"/>
<path class="st0" d="M767.1,538.7c-15.7-14.1-29.3-30.4-40.3-48.5l-42,25.6c6.1,10,12.8,19.4,20.1,28.5l14.2-11.6
	c0,0,6.4,8.2,14.1,16c7.7,7.8,13.1,12.8,13.1,12.8L767.1,538.7z"/>
<path class="st0" d="M1008.9,169.4c9.1,4.2,18.6,9.6,27,15L996,246.1c-6.2-4-11.7-7-18.4-10.1L1008.9,169.4z"/>
<path class="st0" d="M1135.2,479.8c-6.3,13.1-12.7,25.9-26.1,43.8l-15.8-11.7c12.3-16.4,18.7-29,24-40.3L1135.2,479.8z"/>
<path class="st0" d="M952.4,640.4c-13.1,2-26.5,3-40.1,3h-0.6l0.3-36.7c11.4,0,23.8-1.2,34.7-2.8L952.4,640.4z"/>
<path class="st0" d="M1141.7,306.1c1.3,4.5,2.7,9,3.8,13.6l33.3-8.1c-1.2-5.2-2.7-10.5-4.2-15.5L1141.7,306.1z"/>
<path class="st0" d="M972.5,101.9c-3.9-0.8-9.9-1.8-13.8-2.5l-5.7,33.1c3.6,0.6,8.9,1.7,12.5,2.5L972.5,101.9z"/>
<path class="st0" d="M1225.2,377.1c0,5.5-0.1,11.1-0.4,16.6l-33.1-1.9c0.2-4.9,0.3-10,0.3-14.9L1225.2,377.1z"/>
<path class="st0" d="M868.2,714.6c-13.4-1.7-21.6-3.2-35.2-6.5l4.9-20.8c13.1,3.2,21.4,4.4,33.1,6.1L868.2,714.6z"/>
<path class="st0" d="M726,46.2c-8.9,5-17.4,10.2-25.8,16l29.3,43.5c7.3-4.9,14.6-9.4,22.2-13.8L726,46.2z"/>
<path class="st0" d="M1009.4,4c-5.8-1.5-11.5-2.8-17.4-4l-8.2,38.5c5.1,1.1,10.6,2.5,15.7,3.8L1009.4,4z"/>
<path class="st0" d="M1242.5,268c-2.4-7.1-4-12.7-6.7-19.6l50.8-20c2.9,7.2,5.9,15,8.3,22.4L1242.5,268z"/>
<path class="st0" d="M1051.8,348.9c-0.6-3-1.3-6.3-2.1-9.2l-29.9,7.8c0.7,2.6,1.3,5.2,1.9,7.9L1051.8,348.9z"/>
<path class="st0" d="M767.9,453.4l-16.5,9.2c3.6,6.7,7.8,13.6,12.2,19.8l32.4-23c-4.9-6.9-9-14-12.6-21.6l-18.8,9L767.9,453.4z"/>
<path class="st0" d="M802.8,286c7.2-8.7,15.4-16.4,24.5-23.2l18.5,24.7c-7,5.2-13.6,11.4-19.1,18.1L802.8,286z"/>
<path class="st0" d="M761,58.2c4.2-2,12.2-5.4,16.5-7.3l15.3,36.6c-3.8,1.6-11,4.9-14.6,6.6L761,58.2z"/>
<path class="st0" d="M839.6,499.5c-5-3.1-7.2-4.5-10.6-7l-43.4,60.9c4.4,3.2,9.7,6.7,16.2,10.7L839.6,499.5z"/>
<path class="st0" d="M856.5,246c2.3-1,4.8-2,7.2-2.9l-7.2-19.6c-2.7,1-5.4,2.1-8.1,3.2L856.5,246z"/>
<path class="st0" d="M708.8,330.1c0.8-3.7,1.8-7.3,2.8-10.9l63.9,18.1c-0.6,2.1-1.3,5-1.8,7.2L708.8,330.1z"/>
<path class="st0" d="M946.8,603.7c9.1-1.4,24-4.7,34.9-8.2l11.1,35.4c-13,4.1-26.7,7.3-40.5,9.4L946.8,603.7z"/>
<path class="st0" d="M706.5,222.2c-1.9,2.6-3.1,4.3-5,6.9l26.1,18.1c1.7-2.4,2.7-3.6,4.5-6"/>
<path class="st0" d="M818.7,655.2c-12.5-4.2-21.1-8-31.8-12.8l11.6-24.6c9.3,4.4,19.1,8.3,28.9,11.6L818.7,655.2z"/>
<path class="st0" d="M664.8,392.7c-0.3-5.2-0.5-10.4-0.5-15.6v-0.6l-35.9,0.1c0,6,0.3,12.7,0.6,18.6L664.8,392.7z"/>
<path class="st0" d="M1060.7,192.8c-6.6-5.4-13.6-10.4-20.8-15l17.7-27c7.9,5.1,15.4,10.5,22.7,16.3L1060.7,192.8z"/>
<path class="st0" d="M730.8,590.1c-13.1-11.2-25.5-23.9-36.3-37.3l24.8-20.2c9.6,12,20.6,23.2,32.2,33.2L730.8,590.1z"/>
<path class="st0" d="M834.1,63.3c5.7-1.4,11.5-2.7,17.4-3.8l7.5,38.8c-5.1,1-10.3,2.1-15.4,3.4L834.1,63.3z"/>
<path class="st0" d="M1201.3,427.2l46.3,8.1c-4,23-12.2,54.5-25.3,82.3l-15.4-6.9l6.3-14.9l-28-11.1
	C1192.5,466.3,1197.9,447.1,1201.3,427.2"/>
<path class="st0" d="M931.7,267.2c7.5,1.3,14.5,3.3,21.4,6l11.7-28.6c-8.7-3.7-19.1-6.4-27.5-7.8L931.7,267.2z"/>
<path class="st0" d="M764.5,446.6c-0.8-1.7-2-4.5-3.6-8.4l-56.7,23.4c1.5,3.8,3.3,7.8,5,11.5L764.5,446.6"/>
<path class="st0" d="M706.1,343.9c0.7-4.7,1.6-9.1,2.7-13.8l64.8,14.4c-0.8,3.2-1.4,6.2-2,9.6L706.1,343.9z"/>
<path class="st0" d="M751.5,243.8c10.5-12.7,22.7-24.2,36-34.1l39.7,53.1c-8.9,6.7-17.4,14.7-24.5,23.3L751.5,243.8z"/>
<path class="st0" d="M867.1,173.3c-5.2,1.2-10.1,2.4-15.2,3.9l19.2,63.6c2.1-0.6,4.4-1.3,6.6-1.9l0.9-0.2c1.7-0.4,1.9-0.5,2.9-0.7
	L867.1,173.3z"/>
<path class="st0" d="M1027.8,590.4c10-5.4,19.4-11.6,28.5-18.3l-23.6-32.3c-7.4,5.5-15.8,10.8-23.9,15.2L1027.8,590.4z"/>
<path class="st0" d="M1126.1,449.6c1.6-4.5,3.1-9.4,4.4-14.1l39.1,10.5c0,0-3.2,11.2-5.1,16.6L1126.1,449.6z"/>
<path class="st0" d="M1148.5,362.5c-0.3-6.3-0.9-10.9-1.7-17l34.1-4.3c0.9,7,1.4,12.1,1.7,19.2L1148.5,362.5z"/>
<path class="st0" d="M699.8,272.6c1.9-3.8,3.7-7.3,5.8-11.1l-33.1-18.3c-2.3,4.1-4.7,8.6-6.8,12.8L699.8,272.6z"/>
<path class="st0" d="M918,160c4.7,0.1,11.9,0.7,16.5,1l3.6-34.8c-5.5-0.5-13.5-1.1-19.1-1.2L918,160z"/>
<path class="st0" d="M919.1,125c-3.2-0.1-14.2-0.2-24.5,0.6l2.6,35c5.8-0.4,7.1-0.5,12.9-0.5h7.9L919.1,125z"/>
<path class="st0" d="M1080.9,211.2c-6.4-6.5-13.2-12.6-20.3-18.4l19.5-25.7c8.3,6.7,16.2,13.8,23.7,21.3L1080.9,211.2z"/>
<path class="st0" d="M1177.9,575.3c4.1-5.3,6.8-8.8,10.5-14.4l-31.8-21.3c-3.3,4.9-5.5,8.1-9.1,12.8L1177.9,575.3z"/>
<path class="st0" d="M1191.8,254.7c-2.7-6.1-5.4-11.9-8.4-17.8l44-22.5c3.3,6.3,7.2,13.9,10.1,20.5L1191.8,254.7z"/>
<path class="st0" d="M1062.1,116.6c-14.6-8.5-28.9-15.1-44.9-21.1l14-37.4c17.8,6.7,34.7,14.6,51,24L1062.1,116.6z"/>
<path class="st0" d="M619.7,203c6.2-10.3,13.3-20.9,20.5-30.5l-31.3-23.6c-8.4,11.1-15.7,22.1-22.8,34.1L619.7,203z"/>
<path class="st0" d="M821.1,441.3c-9.4-13.4-15.9-28.6-18.8-45.4l-30.3,5.9c3.7,21,12.2,40.8,24,57.5L821.1,441.3z"/>
<path class="st0" d="M1051.9,348.9c1.8,9.2,2.7,17.8,2.7,27.5c0,5.1-0.3,10.8-0.8,15.8l-30.6-3.5c0.4-3.7,0.6-7.9,0.6-11.8
	c0-7.4-0.7-14.5-2-21.5L1051.9,348.9z"/>
<path class="st0" d="M1180,189.1c2.8,3.9,5.4,7.8,7.9,11.8l-33.4,21.2c-2.2-3.3-4.7-7.1-7.1-10.4L1180,189.1z"/>
<path class="st0" d="M1180,189.1l2.3,3.3l0,0l10.8-7.5c-4.9-7.5-12.6-17.6-18.1-24l-30.3,24.8c4.9,5.9,9.6,11.9,14.1,18.2
	L1180,189.1z"/>
<path class="st0" d="M997.9,305.7c-9.5-11.2-21.7-21-34.9-27.8l14.4-27.4c15.3,7.9,30.4,18.9,44.4,35.7L997.9,305.7z"/>
<path class="st0" d="M730,259.1c-6.3,9.7-11.9,20-16.7,30.8l97,41.9c2.5-5.6,5.2-10.5,8.5-15.6L730,259.1z"/>
<path class="st0" d="M1112.7,273.1c2.2,4.2,4.4,8.7,6.3,13.1l-57.5,24.9c-1.4-3.1-3-6.4-4.5-9.5L1112.7,273.1z"/>
<path class="st0" d="M1166.2,457.1c-0.6,2.1-1.3,4.1-1.8,5.6l-28-9.7c-1.4,3.8-3,8.3-4,10.7l31.8,12.6c1.6-4.1,4.8-13.8,6.2-18
	L1166.2,457.1z"/>
<path class="st0" d="M706.5,222.2c5.1-6.7,9-11.3,14.6-17.6l23.6,21.2c-5,5.5-8.2,9.5-12.7,15.4L706.5,222.2z"/>
<path class="st0" d="M655.9,327.4c0.6-3.2,0.9-5,1.7-8.2l-20.6-4.7c-2.4,10.3-4.1,19.8-5.3,30.5l21.2,2.3
	C653.6,340.5,654.7,333.9,655.9,327.4"/>
<path class="st0" d="M956.4,52.6c7.9,1.1,15.7,2.4,23.4,4l-8.2,38.6c-11.6-2.4-23.5-4.2-35.6-5.2l3.5-39.3
	C945.1,51.3,950.7,51.9,956.4,52.6"/>
<path class="st0" d="M956.4,52.6c7.9,1.1,15.7,2.4,23.4,4l-8.2,38.6c-11.6-2.4-23.5-4.2-35.6-5.2l3.5-39.3
	C945.1,51.3,950.7,51.9,956.4,52.6"/>
<path class="st0" d="M1191.8,254.7c-1.5-3.4-3-6.8-4.6-10.1l-12.5,6.2c1.3,2.9,6,13.1,7.2,16.1l36.6-14.7c-0.6-1.4-1.9-4.5-3.4-7.7
	L1191.8,254.7z"/>
<path class="st0" d="M928.8,487.3c-5.1,0.8-11.7,1.2-17,1.3l0.1,30.8c7,0,14.9-0.6,21.7-1.6L928.8,487.3z"/>
<path class="st0" d="M866.5,511.9c-4.9-1.6-11.3-3.9-20.6-8.8l-36.7,72.3c10.1,5.1,20.6,9.6,31.5,13.4L866.5,511.9z"/>
<path class="st0" d="M985.2,140.1l6.1-20.2h-0.1c-3.5-1.1-7.3-2.1-10.9-3l-8.1,31.3c0,0,6.6,1.8,9.5,2.6c2.9,0.9,7.2,2.4,7.2,2.4
	l3.7-10.7C990,141.6,987.6,140.8,985.2,140.1"/>
<path class="st0" d="M1225.2,377.1c0,5.5-0.1,11.1-0.4,16.6l21.2,1.3c0.3-6,0.5-12.3,0.5-18.3c0-6-0.5-11.3-0.8-17.3l-40.4,2.1
	c0.3,5.4,0.4,10.2,0.4,15.6L1225.2,377.1z"/>
<path class="st0" d="M769.8,376.3c0-2.2,0.1-4.4,0.2-6.5c0.6-11.2,2.4-22.1,5.4-32.5l29.8,8.4c-3,10.2-4.5,19.8-4.5,30.5
	L769.8,376.3z"/>
<path class="st0" d="M1054.6,376.4c0-2.6-0.1-5-0.2-7.6l60-2.9c0.2,3.6,0.3,7.2,0.3,10.8L1054.6,376.4z"/>
<path class="st0" d="M768,453.4c-1.2-2.2-2.4-4.4-3.4-6.8l-35.4,17c1.5,3.2,2.8,5.6,4.4,8.7L768,453.4z"/>
<path class="st0" d="M665.5,401.7l-0.8-9l29-2c0.9,14.4,3,28.7,6.5,42.1l-53.4,14.3c-3.6-13.7-6.2-28.1-7.7-42.7L665.5,401.7z"/>
<path class="st0" d="M869.1,151.9c-13.5,2.5-25.8,5.9-38.8,11l-11.6-30.3c16.5-6,29.3-9.8,44.4-12.6L869.1,151.9z"/>
<path class="st0" d="M658.8,473.7l2.3,5.7l-17.4,7.1c0,0,3.5,8.2,4.5,10.5l38.2-17.6c-1.4-3-4.6-10.9-5.9-13.9L658.8,473.7z"/>
<path class="st0" d="M1080.9,211.2c9,9.2,17.3,19,24.7,29.5l26.7-18.1c-8.6-12.2-18.1-23.6-28.5-34.2L1080.9,211.2z"/>
<path class="st0" d="M612.4,245.9c1.9-4.3,4-8.6,6-12.9l30.3,14.8c-1.9,3.8-3.7,7.7-5.4,11.6L612.4,245.9z"/>
<path class="st0" d="M1213.3,495.7c-3.3,8.3-6.6,15.8-10.4,23.7l-39.1-19.5c3.2-6.6,6.2-13.5,9-20.4l38.1,15.2L1213.3,495.7z"/>
<path class="st0" d="M1034.6,671.7c8.4-3.6,13.1-5.7,21.5-9.9l17.7,35.6c0,0-8.1,3.9-11.8,5.5c-3.6,1.7-12.4,5.5-12.4,5.5
	L1034.6,671.7z"/>
<path class="st0" d="M702.9,670.6c-6-4.3-11.9-8.8-17.6-13.4l24.7-30.6c5.2,4.2,10.2,8.1,15.6,12L702.9,670.6z"/>
<path class="st0" d="M1116.9,105.1c-4.1-3.1-8.5-6.4-12.8-9.3L1084,125c2.1,1.5,9.9,6.9,11.6,8.2L1116.9,105.1z"/>
<path class="st0" d="M876.3,482.7c-6.3-2.1-13.5-5.5-19.2-8.6l-15.2,26.8c7.8,4.5,15.9,8.2,24.6,11.2L876.3,482.7z"/>
<path class="st0" d="M890.7,486.6c7,1.4,21,2.1,21,2.1l0.1,30.8c-9.7,0-17.6-0.9-26.8-2.6L890.7,486.6z"/>
<path class="st0" d="M1004.3,439.9c-1.7,2.5-3.5,5-5.4,7.3l24,19.5c2.7-3.3,4.9-6.3,7.3-9.8L1004.3,439.9z"/>
<path class="st0" d="M1019.8,347.8c-0.5-1.6-0.9-3.2-1.5-4.8l29.6-9.2c0.6,1.9,1.1,4,1.7,5.9"/>
<path class="st0" d="M1004.4,268.6c-2.2-1.9-4.7-3.8-7-5.6l45.1-59.6c3.5,2.6,7.5,5.7,10.8,8.5L1004.4,268.6z"/>
<path class="st0" d="M1008.7,555.1c-19.6,10.6-39.5,17.8-66.2,22.2l-5.9-38.8c0,0,14.9-2.7,25-5.8c7.4-2.3,17-6.5,17-6.5l-21.1-47.2
	c4.9-2.2,9-4.3,13.5-7.1l16.3,26.2l9.1-6.2c2.3-1.6,4-3,6.2-4.7l37.9,46.5C1028.6,544,1008.7,555.1,1008.7,555.1"/>
<path class="st0" d="M987.3,498.1l9.2-6.2l0.1-0.1l-18.4-24.9c-2.2,1.6-4.9,3.3-7.2,4.8l1.6,2.6L987.3,498.1z"/>
<path class="st0" d="M1008.5,654.3c7.4-2.6,13.4-5,18.5-7.2l-13.4-32.2c-4.6,1.9-12.1,4.8-16.8,6.4L1008.5,654.3z"/>
<path class="st0" d="M728.8,155.5c-17.1,14.2-32.6,30.4-46.1,48.2l-31.8-23.4c15.3-20.3,32.9-38.8,52.5-55L728.8,155.5z"/>
<path class="st0" d="M1006.5,317.4c-2.7-4.3-5.4-7.9-8.6-11.7l24-19.4c4,4.8,7.5,9.6,10.9,15L1006.5,317.4z"/>
<path class="st0" d="M1030.4,457c8.9-13.1,15.4-27.7,19.5-43.5l-29.8-8.1c-3.3,12.6-8.8,24.3-15.9,34.7L1030.4,457z"/>
<path class="st0" d="M944.3,238.4c-10.5-2.4-20.7-3.7-31.8-3.7c-6.8,0-13.6,0.4-20.1,1.3l-6.1-44.1c8.1-1.1,17.9-1.8,26.3-1.8
	c13.9,0,29,1.7,42,4.7l-10.2,43.3"/>
<path class="st0" d="M771,395.4c1,7.6,2.5,14.7,4.6,22l-38,11.6c-4.8-16.3-8.5-37.5-7.3-60.6L770,370c-0.7,12.9,0.9,24.8,0.9,24.8"
	/>
<path class="st0" d="M937.3,236.9c-3.2-0.6-11.5-2.3-25.1-2.3c-2.9,0-5.7,0.1-8.6,0.3l1.8,30.8c2.2-0.1,4.5-0.2,6.7-0.2
	c6.7,0,13.2,0.6,19.5,1.7L937.3,236.9z"/>
<path class="st0" d="M859.8,278.6c7.8-4.1,16.8-7.6,25.5-9.8l-7.5-30c-12.6,3-22.7,7.3-32.6,12.5L859.8,278.6z"/>
<path class="st0" d="M769.8,376.3c0,0-0.2,9.2,1.1,19.1l30.7-4.2c-0.6-4.6-0.8-10.3-0.8-15L769.8,376.3z"/>
<path class="st0" d="M1047.2,422.4c1-3,1.9-5.9,2.6-9l64.1,17.5c0,0-2.5,8.8-4,13.1L1047.2,422.4z"/>
<path class="st0" d="M801.8,530.5c-9-6.5-17.9-14.5-25.8-22.9l33.2-32.3c6.2,6.5,12.8,12.2,19.8,17.3L801.8,530.5z"/>
<path class="st0" d="M994.4,109.5c14.2,4.4,28,9.8,41.1,16.3l-14.2,28.6c-11.6-5.7-23.7-10.5-36.2-14.3L994.4,109.5z"/>
<path class="st0" d="M629,395.2l-0.3-3.3l-14.7,0.8c0.2,3.6,1,10.8,1.3,14.4l50.1-5.3c-0.3-3.1-0.5-5.9-0.7-9.1L629,395.2z"/>
<path class="st0" d="M1267.5,452.1c1.4-6.7,2.8-12.9,3.8-19.8l38.8,6.2c-1.1,7.6-2.5,14.3-4.1,21.7L1267.5,452.1z"/>
<path class="st0" d="M810.7,3.4c-7.5,2-14.9,4.3-22.2,6.7L801,47.3c6.6-2.2,13.3-4.3,20-6.1L810.7,3.4z"/>
<path class="st0" d="M928.8,487.3c5.7-0.9,11.8-2.3,17.2-4l15.7,49.3c-8.3,2.6-16.1,4.6-25,5.9L928.8,487.3z"/>
<path class="st0" d="M856.7,246c-3.7,1.6-7.9,3.5-11.4,5.4l-21.2-39.5c4.6-2.5,10.3-5.1,15.1-7.2L856.7,246z"/>
<path class="st0" d="M953.8,240.8c-3-0.9-6.4-1.8-9.5-2.5l15.9-68c4.7,0.8,10,2.1,14.3,4L953.8,240.8z"/>
<path class="st0" d="M1195.3,90.8l-25.1,25.1c-6.4-6.3-12.3-11.8-19.1-17.6l23.2-26.8C1184.9,80.5,1195.3,90.8,1195.3,90.8"/>
<path class="st0" d="M786.7,111.8c-6.2,3-12.4,6.2-18.3,9.5l-23.1-40.9c6.8-3.8,13.9-7.6,21.1-11L786.7,111.8z"/>
<path class="st0" d="M786.9,642.5l5.8-12.4h0c-2.9-1.3-7.4-3.5-10.2-5l-16.3,30.4c9.4,4.8,19.8,9.7,29.7,13.7l7.7-19.6h0
	C798,647.4,792.8,645.1,786.9,642.5"/>
<path class="st0" d="M885,516.8c9,1.8,17.4,2.6,26.9,2.6c3.4,0,7.9-0.1,11.2-0.4l5.3,68.5c-5.4,0.4-11.1,0.9-16.6,0.9
	c-13.7,0-26.9-1.3-39.9-3.9L885,516.8z"/>
<path class="st0" d="M777.6,137.6c-14.7,8.2-27.6,17.3-40.5,28l20.3,24.5c11.2-9.3,23.3-17.3,36.1-24.5L777.6,137.6z"/>
<path class="st0" d="M1179.5,406.7c0.5-5.1,1-10.4,1.3-15.6l-32.2-1.8c-0.2,4.6-0.8,9.2-1.2,13.8L1179.5,406.7z"/>
<path class="st0" d="M1132.9,618.5c-15.3,13.9-31,26-48.7,36.9l-20.7-33.7c15.5-9.5,29.4-20.1,42.7-32.3L1132.9,618.5z"/>
<path class="st0" d="M1182.6,287.6c5.6,16.9,9.4,34.2,11.8,52.4l39.3-4.9c-2.7-20.7-7.2-40.4-13.6-59.8L1182.6,287.6z"/>
<path class="st0" d="M665.8,256c-9.4,19-16.4,38.8-21.2,60l0,0.2l13.1,3c-0.7,3.2-1.1,5-1.7,8.2l-0.1,0.7l24,4.5
	c4-21.1,10.8-41.3,20-60L665.8,256z"/>
<path class="st0" d="M1106,119.5l-10.3,13.6c-1.8-1.4-3.6-2.6-5.4-3.9l-10.6,14c4.6,3.5,15.2,11.5,19.6,15.3l22.3-25.9
	C1117.9,129.4,1111.3,123.9,1106,119.5"/>
<path class="st0" d="M1052.4,352.4c-0.9-5.4-1.7-8.6-2.8-12.7l72.4-19c1.7,6.3,3.1,12.8,4.2,19.2L1052.4,352.4z"/>
<path class="st0" d="M871,240.7c-2.5,0.7-4.9,1.6-7.4,2.5l-22.5-62.4c3.4-1.2,7.3-2.5,10.7-3.6L871,240.7z"/>
<path class="st0" d="M1027.7,517.9c5.8-4.7,11.4-10,16.6-15.4l-28.8-27.5c-4.2,4.5-8.2,8.2-12.9,12L1027.7,517.9z"/>
<path class="st0" d="M1002.6,487.1c4.7-3.9,8.7-7.6,12.9-12l0.6,0.6l-23-22c-4.6,4.9-9.6,9.3-15,13.3l18.3,24.9
	C998.7,490.2,1000.5,488.9,1002.6,487.1l0.5,0.6v0L1002.6,487.1z"/>
</svg>
