<?xml version="1.0" encoding="UTF-8"?> <svg xmlns="http://www.w3.org/2000/svg" xmlns:xlink="http://www.w3.org/1999/xlink" version="1.1" id="plan" x="0px" y="0px" viewBox="0 0 753 748" style="enable-background:new 0 0 753 748;" xml:space="preserve"> <style type="text/css"> .st0{fill:#FFFFFF;} .st1{fill:#EFEFEF;} .st2{fill:#2E74C2;} .st3{fill:#C0D8F4;} .st4{fill:#E55561;} </style> <rect class="st0" width="753" height="748"></rect> <polygon class="st1" points="26.3,0 62.6,62.1 121.4,90.5 188.1,23.1 209.3,33 276,142.7 315.6,142.7 396,186.6 440.5,223.3 494,223.3 523,243.1 550.1,253.7 680.9,218.6 692.1,192.9 725.2,192.9 713.3,237.1 745.6,284 739,317.7 753,311.1 753,0 "></polygon> <polygon class="st2" points="753,311.1 710,332.3 712.6,361.3 675.6,399 647.9,408.2 640,453.1 599.7,478.2 620.1,561.5 590.4,590.5 570.6,582.6 542.5,612 537.2,621.2 497.3,625.5 485.9,639.7 489.4,661.2 483.7,661.2 475.8,632.5 470.2,636.4 469.5,653.9 461.6,652.3 455.7,643.7 420.3,655.6 406.8,688.3 398.5,688.3 396.9,678.1 371.8,680.7 362.2,692.9 351.3,717.4 318.4,728.3 281.3,716.6 174.9,732.6 154.1,748 753,748 "></polygon> <polygon class="st3" points="121.4,90.5 188.1,23.1 209.3,33 276,142.7 315.6,142.7 396,186.6 440.5,223.3 494,223.3 523,243.1 550.1,253.7 554.7,358.7 519.1,388.4 512.5,413.5 460.3,413.5 439.1,385.1 432.8,344.6 418.2,344.1 424.4,399.2 388.6,439.4 299.1,338.5 296.1,302.2 280,286 282.6,258.3 231.1,176.7 182.5,199.2 145.2,158.9 "></polygon> <polygon class="st3" points="424.4,399.2 418.2,344.1 432.8,344.1 439.4,385.1 460.3,413.5 470.9,455.8 447.1,478.9 445.8,525.1 448.4,533.7 459.6,533.7 460.9,527.1 465.6,525.1 467.6,544.3 477.5,559.2 470.2,564.1 457.6,566.8 462.9,587.6 463.6,602.4 455.4,606.8 398,581.9 388.6,594.5 391.1,620.3 378.6,623.6 374,645.4 360.9,646.7 338.1,627.5 322.9,636.4 299.4,597.5 323.9,563.1 353.6,553.9 368.8,530.4 349.3,490.5 391.1,473 394.9,446.5 388.6,439.4 "></polygon> <polygon class="st3" points="470.5,590.2 487.7,571.4 487.7,576 507.5,580.6 504.5,584.6 505.5,586.6 522.4,581.9 525,586.9 522.9,590.2 481.6,617.6 464.6,617.6 462,609 471.5,601.6 "></polygon> <polygon class="st4" points="362.2,692.9 348.3,664.2 360.9,646.7 374,645.4 378.6,623.6 391.1,620.3 388.6,594.5 398,581.9 455.4,606.8 463.6,602.4 462.9,587.6 470.5,590.2 471.5,601.6 462,609 464.6,617.6 481.6,617.6 523.5,589.9 515.1,607.4 542.5,612 537.2,621.2 497.4,625.4 485.7,638.4 489.4,661.2 483.9,661 475.8,632.8 470.2,636.4 469.5,653.9 461.4,652.1 455.7,643.7 420.2,655.8 406.8,688.3 398.5,688.1 396.9,678.2 371.6,680.7 "></polygon> <path class="st0" d="M752.3,309.8l-11.2,5.3l6-30.8c0.1-0.4,0-0.8-0.2-1.1l-32-46.3l11.7-43.6c0.2-0.8-0.3-1.6-1.1-1.8 c-0.1,0-0.3-0.1-0.4-0.1h-33c-0.6,0-1.1,0.4-1.4,0.9l-10.9,25.1l-129.6,34.7l-26.5-10.3L494.8,222c-0.2-0.2-0.5-0.3-0.8-0.3h-53 l-44.5-36.6c-0.1-0.1-0.2-0.1-0.2-0.2l-79.9-43.6c-0.2-0.1-0.5-0.2-0.7-0.2h-38.8L210.6,32.2c-0.2-0.3-0.4-0.5-0.6-0.6l-21.1-9.9 c-0.6-0.3-1.3-0.1-1.7,0.3l-66,66.6L63.7,60.9L28,0h-3.2c0,0.3,0.1,0.5,0.2,0.8l36.3,62.1c0.2,0.3,0.4,0.5,0.6,0.6l58.2,28.1 l23.6,67.8c0.1,0.2,0.2,0.4,0.3,0.5l37.3,40.3c0.4,0.5,1.1,0.6,1.7,0.3l47.4-21.9l50.5,80.7l-2.6,26.6c0,0.4,0.1,0.9,0.4,1.2 l15.8,15.8l2.9,35.8c0,0.3,0.2,0.6,0.4,0.9L393.3,447l-3.2,24.9l-41.4,17.2c-0.8,0.3-1.1,1.2-0.8,2v0.1l19.4,38.9L353,552.6 l-29.5,9.1c-0.3,0.1-0.6,0.3-0.8,0.6l-24.4,34.3c-0.3,0.5-0.4,1.1-0.1,1.6l23.4,39c0.4,0.7,1.3,0.9,2,0.5l14.3-8.4l20.9,17.6 l-11.7,16.4c-0.3,0.4-0.4,1-0.1,1.5l13.6,28.1l-10.3,23.2l-31.8,10.5l-36.7-11.5c-0.2-0.1-0.4-0.1-0.7-0.1l-106.4,16.1 c-0.2,0-0.5,0.1-0.7,0.3l-20.8,15.3c-0.4,0.3-0.6,0.7-0.6,1.2h4l18.8-13.9l105.7-16l36.8,11.6c0.3,0.1,0.6,0.1,0.9,0l32.9-10.9 c0.4-0.1,0.7-0.4,0.9-0.8l10.8-24.3l9.1-11.6l23.1-2.4l1.4,8.8c0.1,0.7,0.7,1.3,1.5,1.3h8.3c0.6,0,1.2-0.4,1.4-0.9l13.3-32.1 l33.6-11.3l5.3,7.7c0.2,0.3,0.6,0.5,0.9,0.6l7.9,1.7c0.8,0.2,1.6-0.4,1.8-1.2c0-0.1,0-0.2,0-0.2l0.6-16.8l3.3-2.3l7.4,26.7 c0.2,0.7,0.8,1.1,1.4,1.1h5.6c0.8,0,1.5-0.7,1.5-1.5c0-0.1,0-0.2,0-0.2l-3.5-22.1L498,627l39.4-4.2c0.5-0.1,0.9-0.3,1.1-0.7l5.2-9.1 l27.2-28.5l18.9,7.5c0.6,0.2,1.2,0.1,1.6-0.3l29.7-29.1c0.4-0.4,0.5-0.9,0.4-1.4L601.3,479l39.4-24.5c0.4-0.2,0.6-0.6,0.7-1l7.8-44 l26.9-9c0.2-0.1,0.4-0.2,0.6-0.4l37-37.7c0.3-0.3,0.5-0.7,0.4-1.2l-2.5-28l28.1-14.1l13.3-6.3v-3.2 C752.7,309.6,752.5,309.7,752.3,309.8z M522.5,244.5l26.2,10.2l3.7,84.3l-51.8,4.9h-0.1l-19.1,15.2l-3.3-55.8l44.2-58.9 C522.4,244.4,522.4,244.5,522.5,244.5z M403.2,321.8l13.8,20.9h-0.4l0.4,3.6l-48.8,47.2l-5.6-7.6l-10.2-38.5L403.2,321.8z M352.2,346.9l-7.3-27.5l58.2-3.1v5.1L352.2,346.9z M417,346.9l5.8,51.8l-27.6,31l-26.7-35.8L417,346.9z M403.5,321.4V316l11.1-16.1 h22l9.3,16l-12.7,26.7h-15.7L403.5,321.4z M446.4,316.1l22.3-16.1l9,3.4l3.3,56.1l-7.4,5.9l-39.1-20.7l-0.3-2.1h-0.3L446.4,316.1z M517.3,389.1l-6,22.9H461l-20.3-27.5l-6.3-39.2L517.3,389.1z M474,365.6l7.4-5.9h0.1v-0.1l19.2-15.3l51.7-4.9l0.8,18.5l-35.1,29.2 c-0.2,0.2-0.4,0.5-0.5,0.8l-0.2,0.6L474,365.6z M440.5,224.8h53l28.4,19.4L477.8,303l-9.2-3.5l-22.3,16.2l-9.4-16.1h-22l25.4-74.7 C440.3,224.7,440.4,224.8,440.5,224.8z M394.7,187.5l44.8,36.9c0.1,0.1,0.2,0.1,0.2,0.1l-25.5,75l-11.1,16.1l-58.4,3.1l-0.3-1.1 l38.3-63.9l0.1-0.1l-8.8-37.5V216l-21.3-14l39.2-16L394.7,187.5z M329.1,222.7l23.1-20.5l21.2,14.1l-35.5,78.3l-11.7,2L329.1,222.7z M325.8,296.7l-15.2,2.7l-31.4-83.9l49.5,7.2L325.8,296.7z M373.7,217l8.6,36.6l-38,63.4l-5.9-22.2L373.7,217z M123.2,90.9l50-50.5 l24.2,58.8l-51.1,58L123.2,90.9z M232.3,175.9c-0.4-0.6-1.2-0.9-1.9-0.6l-47.6,22L146.4,158l-0.1-0.2l51.4-58.4l0.1-0.1L173.5,40 l15-15.1l19.8,9.3l66.5,109.3c0.1,0.1,0.1,0.2,0.2,0.3l-33,47.5L232.3,175.9z M242.3,191.8l33.1-47.7c0.2,0.1,0.4,0.1,0.6,0.2h39.3 l76.1,41.5l-39.2,16l-23.3,20.7l-74.1-10.9L242.3,191.8z M297.5,301.7c-0.1-0.2-0.2-0.4-0.3-0.6l-15.7-15.7l2.6-26.4 c0-0.3,0-0.7-0.2-0.9L255,212l23.6,3.5l31.4,84L297.5,301.7z M300.6,337.9l-2.9-35.7l40.3-7.1l13.8,52l-26.9,18.1L300.6,337.9z M325.1,365.6l26.7-18l10.2,38.3l-10.4,9.6L325.1,365.6z M352,395.9l10.3-9.5l32.6,43.7l-6.3,7.1L352,395.9z M393,473.1l3.4-26.4 c0.1-0.4-0.1-0.9-0.4-1.2l-5.4-6.1l35.4-39.7l-6.1-54h11.6l6.5,40.1l21,28.5l5.3,21.3l-36,33.4l-32.5,21.5l0.5-9.6v-0.1l-3.8-6.5 C392.7,473.9,392.9,473.5,393,473.1L393,473.1z M457,565.4c-0.7,0.3-1,1-0.8,1.7l5.1,20.2l-8.2,0.3l-10.2-11.5l-10.1-37.7l3.7-11 l7.9-1.6l2.6,8.5c0.2,0.6,0.8,1.1,1.4,1.1h0.2L457,565.4z M449.1,535.2h10.5c0.7,0,1.3-0.5,1.5-1.2l1.2-5.8l2-0.9l1.8,17.1 c0,0.2,0.1,0.5,0.2,0.7l9.1,13.6l-5.8,4l-12.1,2.5L449.1,535.2z M444.3,525.2l-7.9,1.7l-10.3-9.2l-0.2-0.1l-6.3,4.7L395,503.1 l0.7-12.2l32.7-21.7l17.3,9.2c0,0.1-0.1,0.3-0.1,0.4L444.3,525.2C444.3,525.1,444.3,525.2,444.3,525.2L444.3,525.2z M428.2,543.8 l-15.7,29.6l-8.7-2.7l5.2-10.5l0.1-0.1l-8-9.8l19.9-11.7h11.4l1.4,5.2H428.2z M433.9,544.3l8.5,31.8l-16.2,11.3l-1.6-10.3l-11.7-3.6 l15.5-29.2H433.9z M420.8,538.1l-20.1,11.8l-6.5-8l31.7-23.7l10.1,9l-3.6,10.9H420.8z M419.2,522.6l-9.3,7l-18.1-15.8l3.1-9.3v-0.8 L419.2,522.6z M409.5,529.9L394,541.5l-5.2-18.9l2.8-8.2L409.5,529.9z M408.5,560.2l-10.1,20.3l-0.9-0.4l-0.6,0.8l-33-21l8.9-11.2 l21-6.5L408.5,560.2z M403.6,571.2l20.6,6.3l2.3,15.1l-27.6-12L403.6,571.2z M426.3,588l16.4-11.5l10.1,11.5l2.2,17l-28-12.1 L426.3,588z M453.3,588.1l8.1-0.3l0.6,13.7l-6.6,3.6L453.3,588.1z M446,477.8c-0.1,0.1-0.1,0.1-0.1,0.2l-17.1-9.1l35.6-33l4.8,19.3 L446,477.8z M392,474.4l3.7,6.4l-1.2,22l-24.7-19.2L392,474.4z M351.4,491.2l17.9-7.4l25.2,19.6l-0.1,1l-5.9,17.6l-13.9-16.2 l-17.3-2.7L351.4,491.2z M370.4,530.9c0.3-0.4,0.3-1,0.1-1.5l-12.9-25.8l16.7,2.6l14.1,16.4l5.2,19.1l-21,6.5h-0.1l-9,11.4l-8.1-5.2 L370.4,530.9z M354.4,555.3c0.3-0.1,0.5-0.2,0.7-0.4l41.5,26.5l-9.2,12.3l-18-8.4l-18.2-29L354.4,555.3z M389.5,619.1l-12.2,3.2 l-4.6,21.6l-11.4,1.1l-0.5-0.4l-5-39.2l31.9-3.6L389.5,619.1z M350.6,556.5l18.3,29.1v0.1l18.1,8.4l0,0l0.7,7.3l-32,3.6l-17-44.9 L350.6,556.5z M339.1,626.4c-0.5-0.4-1.2-0.5-1.7-0.1l-13.9,8.2l-22.2-36.9l23.6-33.1l13.5-4.2l17,45.1l4.9,38.9L339.1,626.4z M371.6,679.2c-0.4,0-0.8,0.2-1,0.6l-8.1,10.3l-12.4-25.8l11.6-16.2l13.6-1.4l0.2-1.1h7l1.3,32.3L371.6,679.2z M384.3,677.9 l-1.3-32.8h-7.4l4.3-20.3l11.1-2.9l5.4,54.8L384.3,677.9z M469.3,635.2c-0.4,0.3-0.6,0.7-0.6,1.2l-0.6,15.7l-5.6-1.2l-5.6-8.1 c-0.4-0.5-1.1-0.8-1.7-0.6l-35.3,11.9c-0.4,0.1-0.7,0.4-0.9,0.8l-13.2,31.8h-6l-1.4-9c-0.1-0.7-0.7-1.2-1.4-1.3l-5.5-54.9l1.2-0.3 l-2.6-26.4l8.3-11.2l57,24.7l9.6-5.2l-0.6-13.6l4.6,1.6l0.8,9.6l-9.6,7.6l3.2,10.6h1.3l4.8,16L469.3,635.2z M472.1,591.1l5.8,2.2 l25.9-6.9l0.4,0.9c0.3,0.6,1,1,1.7,0.8l15.7-4.3l1.7,3.2l-0.8,1.6l-41.4,27.5h-15.5l-1.9-6.5l9.3-7.4L472.1,591.1z M487.4,577.5 l17.6,4.1l-1.6,2.1c-0.3,0.5-0.4,1.1-0.1,1.6l0.3,0.6l-25.6,6.8l-5.7-2.1l14-15.3v0.8C486.2,576.7,486.7,577.3,487.4,577.5 L487.4,577.5z M487.6,659.7h-2.7l-6.1-22.1l4.7-0.9l0.9,1.2c-0.1,0.2-0.1,0.5-0.1,0.8L487.6,659.7z M484.6,637.4L484.6,637.4 l-0.8-1.1v-7.1l10.4-2.6L484.6,637.4z M494.8,626l-11.5,2.9v7.4l-4.7,0.9l-1.4-5c-0.2-0.8-1-1.3-1.8-1c-0.2,0-0.3,0.1-0.5,0.2 l-5,3.5l-4.7-15.7H482l0.9-0.6l13,6.2L494.8,626z M497.1,624c-0.3,0-0.5,0.1-0.7,0.3l-13-6.2l36.5-24.3l-6.2,12.9 c-0.4,0.7,0,1.6,0.7,2c0.1,0.1,0.3,0.1,0.4,0.1l13.3,2.2l-4.8,10.1L497.1,624z M536.3,619.8l-12.4,1.3l4.7-10l11.5,1.9L536.3,619.8z M737.7,316.7l-28.4,14.2c-0.6,0.3-0.9,0.9-0.8,1.5l2.6,28.4l-36.2,36.9l-27.4,9.1c-0.5,0.2-0.9,0.6-1,1.2l-7.8,44.3L598.9,477 c-0.6,0.3-0.8,1-0.7,1.6l20.3,82.4l-28.4,27.8l-18.9-7.6c-0.6-0.2-1.2-0.1-1.6,0.4L542,610.4l-24.7-4.2l9-18.7 c0.2-0.4,0.2-0.9,0-1.4l-2.6-5c-0.3-0.6-1-0.9-1.7-0.7l-15.7,4.3v-0.1l2.4-3.2c0.5-0.7,0.4-1.6-0.3-2.1c-0.2-0.1-0.4-0.2-0.6-0.3 l-18.7-4.4v-3.4c0-0.8-0.7-1.5-1.5-1.5c-0.4,0-0.8,0.2-1.1,0.5L470,588.3l-5.9-2.1l-4.7-18.5l11-2.3c0.2,0,0.4-0.1,0.5-0.2l7.3-5 c0.7-0.5,0.9-1.4,0.4-2.1l-9.7-14.6l-1.9-18.8c-0.1-0.8-0.8-1.4-1.6-1.3c-0.1,0-0.3,0.1-0.4,0.1l-4.6,2c-0.5,0.2-0.8,0.6-0.9,1.1 l-1.1,5.4h-8.9l-2.2-7.3l1.3-45.4l23.3-22.7c0.4-0.4,0.5-0.9,0.4-1.4L462.2,415h50.3c0.7,0,1.3-0.5,1.5-1.1l6.5-24.6l35.3-29.4 c0.4-0.3,0.6-0.8,0.5-1.2l-4.6-103.8l129.6-34.7c0.4-0.1,0.8-0.4,1-0.8l10.8-24.9h30.1l-11.4,42.4c-0.1,0.4,0,0.9,0.2,1.2l32,46.4 L737.7,316.7z"></path> <g> <path class="st2" d="M481.6,137.4l-2.2,12.7h-2.1l2.2-12.7H481.6z"></path> <path class="st2" d="M485.1,146.8c0,0.2-0.1,0.4-0.1,0.5c0,0.3,0.1,0.6,0.3,0.7c0.3,0.2,0.6,0.2,0.9,0.2h1l-0.3,1.8h-1.3 c-0.7,0-1.4-0.1-2-0.5c-0.5-0.4-0.8-1.1-0.7-1.8c0-0.3,0-0.7,0.1-1l0.9-4.9h-1.4l0.3-1.7h1.4l0.4-2.5h2.1l-0.4,2.5h2.4l-0.3,1.7 H486L485.1,146.8z"></path> <path class="st2" d="M497,140.7c0.6,0.4,0.9,1.1,1.1,1.8l0.4-2.3h2.1l-1.8,9.9h-2.1l0.4-2.3c-0.8,1.5-2.4,2.5-4.1,2.4 c-1,0.1-2-0.3-2.7-1c-0.7-0.8-1.1-1.8-1-2.9c0-0.4,0-0.9,0.1-1.3c0.2-0.9,0.5-1.8,1-2.6c0.5-0.7,1.1-1.3,1.9-1.7 c0.7-0.4,1.6-0.6,2.4-0.6C495.5,140,496.3,140.2,497,140.7z M492.8,142.7c-0.7,0.6-1.1,1.5-1.3,2.4c0,0.3-0.1,0.5-0.1,0.8 c0,0.7,0.2,1.3,0.7,1.8s1.2,0.7,1.8,0.6c0.9,0,1.7-0.3,2.3-0.9c0.7-0.6,1.1-1.5,1.3-2.4c0-0.2,0.1-0.5,0.1-0.8 c0.1-1.3-0.9-2.4-2.2-2.5c-0.1,0-0.2,0-0.3,0C494.3,141.8,493.4,142.1,492.8,142.7z"></path> <path class="st2" d="M505.6,136.8l-2.3,13.3h-2.1l2.3-13.3H505.6z"></path> <path class="st2" d="M509.5,140.2l-1.8,9.9h-2.1l1.7-9.9H509.5z M508.1,136.5c0.3-0.3,0.7-0.4,1.1-0.4c0.3,0,0.6,0.1,0.8,0.3 c0.2,0.2,0.3,0.4,0.3,0.7c0,0.4-0.2,0.8-0.4,1c-0.3,0.3-0.7,0.4-1.1,0.4c-0.3,0-0.6-0.1-0.8-0.3c-0.2-0.2-0.3-0.4-0.3-0.7 C507.6,137.1,507.8,136.7,508.1,136.5z"></path> <path class="st2" d="M518.6,140.5c0.6,0.3,1.1,0.7,1.4,1.3c0.3,0.6,0.5,1.2,0.5,1.9c0,0.3,0,0.6-0.1,0.9c-0.1,0.3-0.1,0.6-0.2,0.9 h-7.6c0,0.2,0,0.4,0,0.6c-0.1,0.7,0.2,1.3,0.6,1.8c0.5,0.4,1.1,0.6,1.7,0.6c0.6,0,1.3-0.2,1.8-0.5s0.9-0.8,1.1-1.4h2.2 c-0.4,1.1-1.1,2-2,2.6c-1,0.7-2.2,1-3.3,1c-1.1,0.1-2.2-0.3-3-1.1s-1.2-1.8-1.1-2.9c0-0.4,0-0.8,0.1-1.2c0.2-1,0.5-1.9,1.1-2.7 c0.5-0.7,1.2-1.3,2-1.7c0.8-0.4,1.7-0.6,2.7-0.6C517.2,140,517.9,140.2,518.6,140.5z M518.4,143.8c0-0.6-0.2-1.2-0.7-1.6 c-0.5-0.4-1.1-0.6-1.6-0.5c-0.8,0-1.5,0.3-2.2,0.7c-0.7,0.6-1.1,1.3-1.3,2.2h5.6C518.4,144.3,518.4,144.1,518.4,143.8z"></path> </g> <circle class="st4" cx="211.9" cy="722.5" r="15.2"></circle> <g> <path class="st2" d="M190.7,685.5c1,0.8,1.8,1.9,2.1,3.2h-2.2c-0.3-0.7-0.8-1.4-1.4-1.8c-0.7-0.5-1.6-0.7-2.4-0.7 c-0.7,0-1.4,0.2-2,0.6c-0.6,0.4-1.1,0.9-1.4,1.6c-0.7,1.5-0.7,3.3,0,4.8c0.3,0.7,0.8,1.2,1.4,1.6c0.6,0.4,1.3,0.6,2,0.6 c0.9,0,1.7-0.2,2.4-0.7c0.6-0.4,1.1-1.1,1.4-1.8h2.2c-0.3,1.3-1,2.4-2.1,3.2s-2.5,1.2-3.9,1.2c-1.1,0-2.2-0.3-3.2-0.8 c-0.9-0.5-1.7-1.3-2.1-2.3c-1-2.1-1-4.6,0-6.7c0.5-1,1.2-1.7,2.1-2.3c1-0.6,2.1-0.8,3.2-0.8C188.2,684.3,189.6,684.7,190.7,685.5z"></path> <path class="st2" d="M202.4,694.4H197l-1,2.8h-2.2l4.7-12.5h2.4l4.7,12.5h-2.2L202.4,694.4z M201.8,692.8l-2.1-5.9l-2.1,5.9H201.8z "></path> <path class="st2" d="M217.4,697.1h-2.1l-6.2-9.4v9.4H207v-12.7h2.1l6.2,9.4v-9.4h2.1L217.4,697.1L217.4,697.1z"></path> <path class="st2" d="M230.1,697.1H228l-6.2-9.4v9.4h-2.1v-12.7h2.1l6.2,9.4v-9.4h2.1V697.1z"></path> <path class="st2" d="M234.7,686.1v3.9h4.7v1.6h-4.7v3.9h5.2v1.7h-7.3v-12.7h7.3v1.7h-5.2V686.1z"></path> <path class="st2" d="M249.8,695.5c-0.3,0.6-0.8,1-1.4,1.3c-0.7,0.3-1.5,0.5-2.2,0.5c-0.8,0-1.6-0.1-2.3-0.5 c-0.6-0.3-1.2-0.7-1.6-1.3c-0.4-0.6-0.7-1.2-0.7-1.9h2.2c0.1,0.5,0.3,1,0.7,1.4c0.5,0.4,1.1,0.6,1.7,0.6c0.5,0,1.1-0.1,1.4-0.5 c0.3-0.3,0.5-0.8,0.5-1.3c0-0.4-0.1-0.8-0.4-1.1c-0.3-0.3-0.6-0.5-0.9-0.7c-0.4-0.2-0.9-0.4-1.5-0.6c-0.7-0.2-1.3-0.5-1.9-0.8 c-0.5-0.3-0.9-0.6-1.3-1.1c-0.4-0.6-0.6-1.2-0.5-1.9c0-0.6,0.2-1.3,0.5-1.8c0.4-0.5,0.9-0.9,1.4-1.2c0.7-0.3,1.4-0.4,2.2-0.4 c1.1-0.1,2.2,0.3,3.1,0.9c0.8,0.6,1.2,1.5,1.3,2.4h-2.2c-0.1-0.5-0.3-0.9-0.7-1.2c-0.4-0.4-1-0.5-1.5-0.5s-1,0.1-1.4,0.4 c-0.4,0.3-0.6,0.8-0.5,1.3c0,0.4,0.1,0.8,0.4,1.1c0.2,0.3,0.6,0.5,0.9,0.7c0.4,0.2,0.9,0.4,1.5,0.6c0.7,0.2,1.3,0.5,2,0.8 c0.5,0.3,1,0.7,1.3,1.1c0.4,0.6,0.6,1.3,0.5,1.9C250.2,694.4,250.1,695,249.8,695.5z"></path> </g> <g> <circle class="st4" cx="431.5" cy="646.9" r="15.2"></circle> <path class="st0" d="M431.5,663.6c-9.2,0-16.7-7.5-16.7-16.7s7.5-16.7,16.7-16.7s16.7,7.5,16.7,16.7 C448.2,656.2,440.8,663.6,431.5,663.6z M431.5,633.2c-7.6,0-13.7,6.1-13.7,13.7s6.1,13.7,13.7,13.7s13.7-6.1,13.7-13.7l0,0 C445.2,639.4,439.1,633.3,431.5,633.2z"></path> </g> <g> <path class="st0" d="M442,682h-2.1l-6.2-9.4v9.4h-2.1v-12.7h2.1l6.2,9.4v-9.4h2.1V682z"></path> <path class="st0" d="M446.5,669.3V682h-2.1v-12.7H446.5z"></path> <path class="st0" d="M458.6,670.4c1,0.8,1.8,1.9,2.1,3.2h-2.2c-0.3-0.7-0.8-1.4-1.4-1.8c-0.7-0.5-1.6-0.7-2.4-0.7 c-0.7,0-1.4,0.2-2,0.6c-0.6,0.4-1.1,0.9-1.4,1.6c-0.7,1.5-0.7,3.3,0,4.8c0.3,0.7,0.8,1.2,1.4,1.6c0.6,0.4,1.3,0.6,2,0.6 c0.9,0,1.7-0.2,2.4-0.7c0.6-0.4,1.1-1.1,1.4-1.8h2.2c-0.3,1.3-1,2.4-2.1,3.2s-2.5,1.2-3.9,1.2c-1.1,0-2.2-0.3-3.2-0.8 c-0.9-0.5-1.7-1.3-2.1-2.3c-1-2.1-1-4.6,0-6.7c0.5-1,1.2-1.7,2.1-2.3c1-0.6,2.1-0.8,3.2-0.8C456.1,669.1,457.5,669.5,458.6,670.4z"></path> <path class="st0" d="M464.8,671v3.9h4.7v1.6h-4.7v3.9h5.2v1.7h-7.3v-12.7h7.3v1.7h-5.2V671z"></path> </g> <g id="Cruise_ship"> <path class="st0" d="M623.4,675c2.1,0.3,4.2,1.1,5.9,2.5c0.9,0.7,1.1,0.8,2,0.8c0.8,0,1-0.1,2-0.8c1.2-0.9,2.5-1.6,4-2.1l1.5-5.8 c0.2-0.8-0.3-1.7-1.1-1.9l0,0l0,0l-14.2-3.2L623.4,675z"></path> <path class="st0" d="M606.5,675.4c1.4,0.5,2.8,1.2,4,2.1c0.9,0.7,1.1,0.8,2,0.8c0.8,0,1-0.1,2-0.8c1.7-1.4,3.7-2.2,5.9-2.5v-10.4 l-14.2,3.2c-0.8,0.2-1.3,1-1.2,1.8l0,0L606.5,675.4z"></path> <path class="st0" d="M633.6,655.4c-0.1-0.8-0.8-1.3-1.5-1.3h-4.4v-7c0-0.8-0.7-1.5-1.5-1.5h-8.5c-0.8,0-1.5,0.7-1.5,1.5v7h-4.4 c-0.8,0-1.4,0.6-1.5,1.3L609,664l11.9-2.7c0.7-0.1,1.3-0.1,2,0l11.9,2.7L633.6,655.4z"></path> <path class="st0" d="M640.6,678c-2,0-4,0.7-5.6,2c-2.2,1.9-5.4,1.9-7.6,0c-3.3-2.7-7.9-2.7-11.2,0c-2.2,1.9-5.4,1.9-7.6,0 c-1.6-1.3-3.5-2-5.6-2c-0.8,0-1.5,0.7-1.5,1.5s0.7,1.5,1.5,1.5c1.4,0,2.7,0.5,3.8,1.4c3.3,2.7,7.9,2.7,11.2,0 c2.2-1.9,5.4-1.9,7.6,0c3.3,2.7,7.9,2.7,11.2,0c1-0.9,2.4-1.4,3.8-1.4c0.8,0,1.5-0.7,1.5-1.5C642.2,678.7,641.5,678,640.6,678 L640.6,678z"></path> </g> <g> <path class="st0" d="M558,698.3l-2.2,12.5h-2.1l1.7-9.4l-5.3,9.4h-1.8l-2-9.4l-1.6,9.4h-2.1l2.2-12.5h2.5l2.4,10l5.8-10H558z"></path> <path class="st0" d="M566.9,701.3c0.6,0.3,1.1,0.7,1.4,1.3c0.3,0.6,0.5,1.2,0.5,1.9c0,0.3,0,0.6-0.1,0.9c-0.1,0.3-0.1,0.6-0.2,0.9 h-7.6c0,0.2,0,0.4,0,0.6c-0.1,0.7,0.2,1.3,0.6,1.8c0.5,0.4,1.1,0.6,1.7,0.6c0.6,0,1.3-0.2,1.8-0.5s0.9-0.8,1.1-1.4h2.2 c-0.4,1.1-1.1,2-2,2.6c-1,0.7-2.2,1-3.3,1c-1.1,0.1-2.2-0.3-3-1.1s-1.2-1.8-1.1-2.9c0-0.4,0-0.8,0.1-1.2c0.2-1,0.5-1.9,1.1-2.7 c0.5-0.7,1.2-1.3,2-1.7s1.7-0.6,2.7-0.6C565.5,700.8,566.2,700.9,566.9,701.3z M566.7,704.5c0-0.6-0.2-1.2-0.7-1.6 c-0.5-0.4-1.1-0.6-1.6-0.5c-0.8,0-1.5,0.3-2.2,0.7c-0.7,0.6-1.1,1.3-1.3,2.2h5.6C566.7,705.1,566.7,704.8,566.7,704.5z"></path> <path class="st0" d="M574.9,701.3c0.7-0.4,1.5-0.6,2.3-0.6l-0.4,2.2h-0.6c-0.8,0-1.6,0.2-2.3,0.7s-1.1,1.3-1.2,2.2l0,0l-0.9,5h-2.1 l1.7-9.9h2.1l-0.3,1.9C573.6,702.2,574.2,701.7,574.9,701.3z"></path> <path class="st0" d="M596.3,698.3l-2.2,12.5H592l1.7-9.4l-5.3,9.4h-1.8l-2-9.4l-1.6,9.4h-2.1l2.2-12.5h2.5l2.4,10l5.8-10H596.3z"></path> <path class="st0" d="M605.1,701.3c0.6,0.3,1.1,0.7,1.4,1.3c0.3,0.6,0.5,1.2,0.5,1.9c0,0.3,0,0.6-0.1,0.9c-0.1,0.3-0.1,0.6-0.2,0.9 H599c0,0.2,0,0.4,0,0.6c-0.1,0.7,0.2,1.3,0.6,1.8c0.5,0.4,1.1,0.6,1.7,0.6c0.6,0,1.3-0.2,1.8-0.5s0.9-0.8,1.1-1.4h2.2 c-0.4,1.1-1.1,2-2,2.6c-1,0.7-2.2,1-3.3,1c-1.1,0.1-2.2-0.3-3-1.1s-1.2-1.8-1.1-2.9c0-0.4,0-0.8,0.1-1.2c0.2-1,0.5-1.9,1.1-2.7 c0.5-0.7,1.2-1.3,2-1.7s1.7-0.6,2.7-0.6C603.7,700.8,604.4,700.9,605.1,701.3z M604.9,704.5c0-0.6-0.2-1.2-0.7-1.6 c-0.5-0.4-1.1-0.6-1.6-0.5c-0.8,0-1.5,0.3-2.2,0.7c-0.7,0.6-1.1,1.3-1.3,2.2h5.6C604.9,705.1,604.9,704.8,604.9,704.5z M605.9,698.1l-4.3,2l0.3-1.4l4.4-2.2L605.9,698.1z"></path> <path class="st0" d="M619.9,697.5l-2.4,13.3h-2.1l0.4-2.3c-0.8,1.5-2.4,2.5-4.1,2.4c-1,0-2-0.3-2.7-1.1s-1.1-1.8-1-2.9 c0-0.4,0.1-0.9,0.1-1.3c0.2-0.9,0.5-1.8,1-2.6c0.5-0.7,1.1-1.3,1.9-1.7c0.7-0.4,1.6-0.6,2.4-0.6c0.8,0,1.6,0.2,2.2,0.7 c0.6,0.4,0.9,1.1,1.1,1.8l1-5.7L619.9,697.5L619.9,697.5z M611.5,703.5c-0.7,0.6-1.1,1.5-1.3,2.4c0,0.3-0.1,0.5-0.1,0.8 c0,0.7,0.2,1.3,0.7,1.8s1.2,0.7,1.8,0.6c0.9,0,1.7-0.3,2.3-0.9c0.7-0.6,1.1-1.5,1.3-2.4c0-0.2,0.1-0.5,0.1-0.7 c0-0.7-0.2-1.4-0.7-1.9s-1.2-0.7-1.8-0.7C613,702.6,612.2,702.9,611.5,703.5z"></path> <path class="st0" d="M623.9,700.9l-1.8,9.9H620l1.7-9.9H623.9z M622.4,697.2c0.3-0.3,0.7-0.4,1.1-0.4c0.3,0,0.6,0.1,0.8,0.3 s0.3,0.4,0.3,0.7c0,0.4-0.2,0.8-0.4,1c-0.3,0.3-0.7,0.4-1.1,0.4c-0.3,0-0.6-0.1-0.8-0.3s-0.3-0.4-0.3-0.7S622.2,697.5,622.4,697.2z "></path> <path class="st0" d="M627.5,707.6c0,0.2-0.1,0.4-0.1,0.5c0,0.3,0.1,0.6,0.3,0.7c0.3,0.2,0.6,0.2,0.9,0.2h1l-0.3,1.8H628 c-0.7,0-1.4-0.1-2-0.5c-0.5-0.4-0.8-1.1-0.7-1.8c0-0.3,0-0.7,0.1-1l0.9-4.9h-1.4l0.3-1.7h1.4l0.4-2.5h2.1l-0.4,2.5h2.4l-0.3,1.7 h-2.4L627.5,707.6z"></path> <path class="st0" d="M639.9,701.3c0.6,0.3,1.1,0.7,1.4,1.3c0.3,0.6,0.5,1.2,0.5,1.9c0,0.3,0,0.6-0.1,0.9c-0.1,0.3-0.1,0.6-0.2,0.9 h-7.6c0,0.2,0,0.4,0,0.6c-0.1,0.7,0.2,1.3,0.6,1.8c0.5,0.4,1.1,0.6,1.7,0.6c0.6,0,1.3-0.2,1.8-0.5s0.9-0.8,1.1-1.4h2.2 c-0.4,1.1-1.1,2-2,2.6c-1,0.7-2.2,1-3.3,1c-1.1,0.1-2.2-0.3-3-1.1s-1.2-1.8-1.1-2.9c0-0.4,0-0.8,0.1-1.2c0.2-1,0.5-1.9,1.1-2.7 c0.5-0.7,1.2-1.3,2-1.7s1.7-0.6,2.7-0.6C638.4,700.8,639.2,700.9,639.9,701.3z M639.7,704.5c0-0.6-0.2-1.2-0.7-1.6 c-0.5-0.4-1.1-0.6-1.6-0.5c-0.8,0-1.5,0.3-2.2,0.7c-0.7,0.6-1.1,1.3-1.3,2.2h5.6C639.7,705.1,639.7,704.8,639.7,704.5L639.7,704.5z "></path> <path class="st0" d="M647.9,701.3c0.7-0.4,1.5-0.6,2.3-0.6l-0.4,2.2h-0.6c-0.8,0-1.6,0.2-2.3,0.7s-1.1,1.3-1.2,2.2l0,0l-0.9,5h-2.1 l1.7-9.9h2.1l-0.3,1.9C646.6,702.2,647.2,701.7,647.9,701.3z"></path> <path class="st0" d="M655.1,701.3c0.7-0.4,1.5-0.6,2.3-0.6l-0.4,2.2h-0.6c-0.8,0-1.6,0.2-2.3,0.7s-1.1,1.3-1.2,2.2l0,0l-0.9,5h-2.1 l1.7-9.9h2.1l-0.3,1.9C653.8,702.2,654.4,701.7,655.1,701.3z"></path> <path class="st0" d="M665,701.5c0.6,0.4,0.9,1.1,1.1,1.8l0.4-2.3h2.1l-1.8,9.9h-2.1l0.4-2.3c-0.8,1.5-2.4,2.5-4.1,2.4 c-1,0.1-2-0.3-2.7-1c-0.7-0.8-1.1-1.8-1-2.9c0-0.4,0-0.9,0.1-1.3c0.2-0.9,0.5-1.8,1-2.6c0.5-0.7,1.1-1.3,1.9-1.7 c0.7-0.4,1.6-0.6,2.4-0.6C663.6,700.8,664.4,701,665,701.5z M660.8,703.5c-0.7,0.6-1.1,1.5-1.3,2.4c0,0.3-0.1,0.5-0.1,0.8 c0,0.7,0.2,1.3,0.7,1.8s1.2,0.7,1.8,0.6c0.9,0,1.7-0.3,2.3-0.9c0.7-0.6,1.1-1.5,1.3-2.4c0-0.2,0.1-0.5,0.1-0.8 c0.1-1.3-0.9-2.4-2.2-2.5c-0.1,0-0.2,0-0.3,0C662.3,702.6,661.5,702.9,660.8,703.5z"></path> <path class="st0" d="M678.9,701.6c0.6,0.6,0.9,1.5,0.8,2.3c0,0.4,0,0.8-0.1,1.1l-1,5.8h-2.1l1-5.6c0-0.2,0.1-0.5,0.1-0.7 c0-0.6-0.2-1.1-0.6-1.5c-0.4-0.4-1-0.6-1.6-0.5c-0.8,0-1.5,0.3-2.1,0.8c-0.6,0.6-1,1.4-1.1,2.3v-0.1l-0.9,5.3h-2.1l1.7-9.9h2.1 l-0.4,2.2c0.4-0.7,0.9-1.3,1.6-1.7c0.7-0.4,1.5-0.6,2.3-0.6C677.4,700.7,678.3,701,678.9,701.6z"></path> <path class="st0" d="M689.3,701.3c0.6,0.3,1.1,0.7,1.4,1.3c0.3,0.6,0.5,1.2,0.5,1.9c0,0.3,0,0.6-0.1,0.9c-0.1,0.3-0.1,0.6-0.2,0.9 h-7.6c0,0.2,0,0.4,0,0.6c-0.1,0.7,0.2,1.3,0.6,1.8c0.5,0.4,1.1,0.6,1.7,0.6c0.6,0,1.3-0.2,1.8-0.5s0.9-0.8,1.1-1.4h2.2 c-0.4,1.1-1.1,2-2,2.6c-1,0.7-2.2,1-3.3,1c-1.1,0.1-2.2-0.3-3-1.1s-1.2-1.8-1.1-2.9c0-0.4,0-0.8,0.1-1.2c0.2-1,0.5-1.9,1.1-2.7 c0.5-0.7,1.2-1.3,2-1.7s1.7-0.6,2.7-0.6C687.9,700.8,688.7,700.9,689.3,701.3z M689.2,704.5c0-0.6-0.2-1.2-0.7-1.6 c-0.5-0.4-1.1-0.6-1.6-0.5c-0.8,0-1.5,0.3-2.2,0.7c-0.7,0.6-1.1,1.3-1.3,2.2h5.6C689.1,705.1,689.2,704.8,689.2,704.5z M690.2,698.1l-4.3,2l0.3-1.4l4.4-2.2L690.2,698.1z"></path> <path class="st0" d="M700.6,701.3c0.6,0.3,1.1,0.7,1.4,1.3c0.3,0.6,0.5,1.2,0.5,1.9c0,0.3,0,0.6-0.1,0.9c-0.1,0.3-0.1,0.6-0.2,0.9 h-7.6c0,0.2,0,0.4,0,0.6c-0.1,0.7,0.2,1.3,0.6,1.8c0.5,0.4,1.1,0.6,1.7,0.6c0.6,0,1.3-0.2,1.8-0.5s0.9-0.8,1.1-1.4h2.2 c-0.4,1.1-1.1,2-2,2.6c-1,0.7-2.2,1-3.3,1c-1.1,0.1-2.2-0.3-3-1.1s-1.2-1.8-1.1-2.9c0-0.4,0-0.8,0.1-1.2c0.2-1,0.5-1.9,1.1-2.7 c0.5-0.7,1.2-1.3,2-1.7s1.7-0.6,2.7-0.6C699.1,700.8,699.9,700.9,700.6,701.3z M700.4,704.5c0-0.6-0.2-1.2-0.7-1.6 c-0.5-0.4-1.1-0.6-1.6-0.5c-0.8,0-1.5,0.3-2.2,0.7c-0.7,0.6-1.1,1.3-1.3,2.2h5.6C700.4,705.1,700.4,704.8,700.4,704.5z"></path> </g> <circle class="st4" cx="555.7" cy="605.1" r="15.2"></circle> <g> <path class="st2" d="M529,564.3v12.5h-2.1v-9.4l-3.6,9.4h-1.8l-3.6-9.4v9.4h-2.1v-12.5h2.5l4.1,10l4.1-10H529z"></path> <path class="st2" d="M540.5,564.7c0.9,0.5,1.7,1.3,2.2,2.3c1.1,2.1,1.1,4.6,0,6.7c-0.5,1-1.3,1.8-2.2,2.3c-2,1.1-4.4,1.1-6.4,0 c-1-0.6-1.7-1.4-2.3-2.3c-1.1-2.1-1.1-4.6,0-6.7c0.5-1,1.3-1.8,2.3-2.3C536.1,563.6,538.6,563.6,540.5,564.7L540.5,564.7z M535.2,566.4c-0.6,0.4-1.2,0.9-1.5,1.6c-0.7,1.5-0.7,3.3,0,4.9c0.3,0.7,0.8,1.2,1.5,1.6c0.7,0.4,1.4,0.6,2.2,0.6s1.5-0.2,2.2-0.6 c0.6-0.4,1.1-0.9,1.5-1.6c0.7-1.5,0.7-3.3,0-4.9c-0.3-0.7-0.8-1.2-1.5-1.6c-0.7-0.4-1.4-0.6-2.2-0.6S535.8,566,535.2,566.4 L535.2,566.4z"></path> <path class="st2" d="M556,576.8h-2.1l-6.2-9.4v9.4h-2.1v-12.7h2.1l6.2,9.4v-9.4h2.1V576.8z"></path> <path class="st2" d="M566,574h-5.4l-1,2.8h-2.2l4.7-12.5h2.4l4.7,12.5H567L566,574z M565.5,572.4l-2.1-5.9l-2.2,5.9H565.5z"></path> <path class="st2" d="M580.3,565.1c1,0.8,1.8,1.9,2.1,3.2h-2.2c-0.3-0.7-0.8-1.4-1.4-1.8c-0.7-0.5-1.6-0.7-2.4-0.7 c-0.7,0-1.4,0.2-2,0.6c-0.6,0.4-1.1,0.9-1.4,1.6c-0.7,1.5-0.7,3.3,0,4.8c0.3,0.7,0.8,1.2,1.4,1.6c0.6,0.4,1.3,0.6,2,0.6 c0.9,0,1.7-0.2,2.4-0.7c0.6-0.4,1.1-1.1,1.4-1.8h2.2c-0.3,1.3-1,2.4-2.1,3.2s-2.5,1.2-3.9,1.2c-1.1,0-2.2-0.3-3.2-0.8 c-0.9-0.5-1.7-1.3-2.1-2.3c-1-2.1-1-4.6,0-6.7c0.5-1,1.2-1.7,2.1-2.3c1-0.6,2.1-0.8,3.2-0.8C577.8,563.9,579.2,564.3,580.3,565.1z"></path> <path class="st2" d="M593.5,564.7c0.9,0.5,1.7,1.3,2.2,2.3c1.1,2.1,1.1,4.6,0,6.7c-0.5,1-1.3,1.8-2.2,2.3c-2,1.1-4.4,1.1-6.4,0 c-1-0.6-1.7-1.4-2.3-2.3c-1.1-2.1-1.1-4.6,0-6.7c0.5-1,1.3-1.8,2.3-2.3C589.1,563.6,591.5,563.6,593.5,564.7L593.5,564.7z M588.1,566.4c-0.6,0.4-1.2,0.9-1.5,1.6c-0.7,1.5-0.7,3.3,0,4.9c0.3,0.7,0.8,1.2,1.5,1.6c0.7,0.4,1.4,0.6,2.2,0.6s1.5-0.2,2.2-0.6 c0.6-0.4,1.1-0.9,1.5-1.6c0.7-1.5,0.7-3.3,0-4.9c-0.3-0.7-0.8-1.2-1.5-1.6c-0.7-0.4-1.4-0.6-2.2-0.6 C589.5,565.8,588.8,566,588.1,566.4L588.1,566.4z"></path> </g> </svg> 