<svg height="56" viewBox="0 0 56 56" width="56" xmlns="http://www.w3.org/2000/svg"><g fill="none"><path d="m16.036 47.855h-7.636c-.703 0-1.273.52-1.273 1.163v5.818c0 .643.57 1.164 1.273 1.164h7.636c.703 0 1.273-.521 1.273-1.164v-5.818c0-.642-.57-1.163-1.273-1.163zm31.564 0h-7.636c-.703 0-1.273.52-1.273 1.163v5.818c0 .643.57 1.164 1.273 1.164h7.636c.703 0 1.273-.521 1.273-1.164v-5.818c0-.642-.57-1.163-1.273-1.163z" fill="#0157ff"/><path d="m53.565 50.91h-51.13a2.43 2.43 0 0 1 -2.435-2.426v-46.059a2.43 2.43 0 0 1 2.435-2.425h51.13a2.43 2.43 0 0 1 2.435 2.424v46.06a2.43 2.43 0 0 1 -2.435 2.425z" fill="#b5ceff"/><path d="m50.722 47.855h-43.407a1.211 1.211 0 0 1 -1.206-1.217v-41.35c0-.67.54-1.215 1.206-1.215h43.407c.665 0 1.205.544 1.205 1.216v41.35c0 .671-.54 1.216-1.205 1.216zm-42.202-2.433h40.995v-38.917h-40.995z" fill="#80abff"/><path d="m30.545 12.218c-7.298 0-13.236 5.938-13.236 13.237 0 7.298 5.938 13.236 13.236 13.236 7.299 0 13.237-5.938 13.237-13.236 0-7.299-5.938-13.237-13.237-13.237zm5.015 16.55a5.976 5.976 0 0 0 0-6.625l3.44-3.439a10.77 10.77 0 0 1 2.375 6.75 10.77 10.77 0 0 1 -2.375 6.753zm-8.624-3.313c0-1.991 1.619-3.61 3.61-3.61 1.99 0 3.61 1.619 3.61 3.61 0 1.99-1.62 3.61-3.61 3.61-1.991 0-3.61-1.62-3.61-3.61zm10.362-8.453-3.439 3.439a5.976 5.976 0 0 0 -6.626 0l-3.44-3.441a10.77 10.77 0 0 1 6.752-2.376c2.554 0 4.9.893 6.753 2.377zm-15.206 1.7 3.44 3.44a5.976 5.976 0 0 0 0 6.626l-3.439 3.44a10.77 10.77 0 0 1 -2.377-6.753c0-2.553.893-4.899 2.376-6.752zm1.703 15.207 3.44-3.44a5.976 5.976 0 0 0 6.623 0l3.44 3.439a10.77 10.77 0 0 1 -6.753 2.376 10.77 10.77 0 0 1 -6.75-2.375zm-13.783-14.564h-4.751a1.176 1.176 0 0 1 -1.188-1.163v-5.818c0-.643.532-1.164 1.188-1.164h4.751c.656 0 1.188.521 1.188 1.164v5.818c0 .642-.532 1.163-1.188 1.163zm0 20.365h-4.751a1.176 1.176 0 0 1 -1.188-1.165v-5.818c0-.642.532-1.163 1.188-1.163h4.751c.656 0 1.188.52 1.188 1.163v5.818c0 .643-.532 1.164-1.188 1.164z" fill="#0157ff"/></g></svg>