<svg id="Layer_1" data-name="Layer 1" xmlns="http://www.w3.org/2000/svg" viewBox="0 0 596.02 139.94"><defs><style>.cls-1{fill:none;}.cls-2{fill:#ed1c24;}.cls-3{fill:#fff;}.cls-4{fill:#0079c1;}</style></defs><title>BMO-mb-PW</title><rect class="cls-1" width="596.02" height="139.94"/><path class="cls-2" d="M204.55,34a36,36,0,1,0,36,36A36,36,0,0,0,204.55,34Z"/><path class="cls-3" d="M203.46,59l-6.25-8.15a1.39,1.39,0,0,0-2.2,0l-7.44,9.37v14.7l7.4-9.48a1.41,1.41,0,0,1,1.13-.55,1.44,1.44,0,0,1,1.14.56l6.28,8.21a1.31,1.31,0,0,0,1,.52,1.33,1.33,0,0,0,1-.52l6.27-8.21a1.46,1.46,0,0,1,1.15-.56,1.43,1.43,0,0,1,1.13.55l7.39,9.48V60.19l-7.44-9.37a1.37,1.37,0,0,0-1.08-.53,1.39,1.39,0,0,0-1.11.55L205.66,59a1.4,1.4,0,0,1-1.1.54A1.37,1.37,0,0,1,203.46,59Zm18.08,26.67h-34l0,0,0,0V74.89h34l0,0,0,0Z"/><path class="cls-4" d="M315.9,73.05a18.27,18.27,0,0,1-2.31-.17V84.11h-5.1V57a19.26,19.26,0,0,1,7.82-1.6c7.28,0,10.37,3.82,10.37,8.84S323.43,73.05,315.9,73.05Zm.45-14.65a9.49,9.49,0,0,0-2.76.45v11a18.45,18.45,0,0,0,2.31.16c4.28,0,5.76-2.51,5.76-5.88C321.66,60.58,320.14,58.4,316.35,58.4Z"/><path class="cls-4" d="M340.58,65.23a5.81,5.81,0,0,0-2.26-.45,5.72,5.72,0,0,0-2.39.45V84.11h-5v-21a19.48,19.48,0,0,1,8.31-1.56c.91,0,2,.08,2.39.12Z"/><path class="cls-4" d="M347.57,58.16a2.54,2.54,0,1,1,0-5.06,2.54,2.54,0,1,1,0,5.06Zm-2.51,26V61.94h5V84.11Z"/><path class="cls-4" d="M365.84,84.11h-4.69l-7.32-22.17h5.38l3.87,14.4a18.83,18.83,0,0,1,.54,3.17h.08a17,17,0,0,1,.57-3.17l4.12-14.4h4.77Z"/><path class="cls-4" d="M384.1,84.57c-5.84,0-9.05-2.35-9.05-6.87,0-5.43,5.39-7.37,12.38-8V68.48c0-2.59-1.44-3.74-4.23-3.74a13.66,13.66,0,0,0-5.76,1.4l-1.11-3a18.93,18.93,0,0,1,7.48-1.68c5.1,0,8.31,2.3,8.31,7.65V83A18.23,18.23,0,0,1,384.1,84.57Zm3.33-12.47c-4.93.54-7.65,2-7.65,5.43,0,2.72,1.61,4.2,4.65,4.2a6.93,6.93,0,0,0,3-.62Z"/><path class="cls-4" d="M404.34,84.4c-3.7,0-5.92-2.22-5.92-6.13V65.11H396V61.94h2.47V57l5-1.39v6.29h3.62v3.17h-3.62V78.27c0,1.69.83,2.68,2.39,2.68a4,4,0,0,0,1.23-.21v3.17A6.22,6.22,0,0,1,404.34,84.4Z"/><path class="cls-4" d="M415,74.86c.37,3.86,2.55,6.17,6.22,6.17a12.5,12.5,0,0,0,5.47-1.28L427.87,83a16.76,16.76,0,0,1-7.36,1.61c-6.71,0-10.41-4.65-10.41-11.61s3.54-11.47,9.54-11.47c5.76,0,9,3.78,9,10.69v.66Zm4.49-10.37c-3.17,0-4.77,3-4.77,7.36v.46l9.13-1.44C423.8,66.84,422.48,64.49,419.48,64.49Z"/><path class="cls-4" d="M467.4,84.11h-4.65l-4.19-17.32a24.8,24.8,0,0,1-.54-3.12h-.08a26.11,26.11,0,0,1-.54,3.12l-4.19,17.32H448.6l-6.5-28.3h5.23l3.53,18.51a30.86,30.86,0,0,1,.46,3.38h.08c.12-1.12.41-2.64.57-3.38l4.32-18.51h3.87l4.16,18.51a33.07,33.07,0,0,1,.53,3.38h.08c.08-.91.33-2.55.5-3.38l3.7-18.51h4.77Z"/><path class="cls-4" d="M480.48,74.86c.37,3.86,2.55,6.17,6.21,6.17a12.43,12.43,0,0,0,5.47-1.28l1.2,3.21A16.77,16.77,0,0,1,486,84.57c-6.7,0-10.4-4.65-10.4-11.61s3.53-11.47,9.54-11.47c5.76,0,9,3.78,9,10.69v.66ZM485,64.49c-3.16,0-4.77,3-4.77,7.36v.46l9.14-1.44C489.28,66.84,488,64.49,485,64.49Z"/><path class="cls-4" d="M506.27,84.57c-5.84,0-9-2.35-9-6.87,0-5.43,5.39-7.37,12.39-8V68.48c0-2.59-1.44-3.74-4.24-3.74a13.66,13.66,0,0,0-5.76,1.4l-1.11-3A18.94,18.94,0,0,1,506,61.49c5.1,0,8.3,2.3,8.3,7.65V83A18.2,18.2,0,0,1,506.27,84.57Zm3.34-12.47c-4.94.54-7.66,2-7.66,5.43,0,2.72,1.61,4.2,4.65,4.2a7,7,0,0,0,3-.62Z"/><path class="cls-4" d="M519.85,84.11V51.82l.06.07-.06-.07h5V84.11Z"/><path class="cls-4" d="M537.62,84.4c-3.7,0-5.93-2.22-5.93-6.13V65.11h-2.46V61.94h2.46V57l5-1.39v6.29h3.62v3.17h-3.62V78.27c0,1.69.83,2.68,2.39,2.68a4,4,0,0,0,1.23-.21v3.17A6.25,6.25,0,0,1,537.62,84.4Z"/><path class="cls-4" d="M557,84.11V68.69c0-2.14-.9-3.87-3.9-3.87a7.63,7.63,0,0,0-3.58.9V84.11h-5V51.82h5V62.89a10,10,0,0,1,4.93-1.2c5.56,0,7.57,3.38,7.57,6.87V84.11Z"/><path class="cls-4" d="M56,62c0,3.76-1.72,5.84-6.24,5.84H45.87V56.35c.49-.05,2.13-.08,2.62-.08h1.32C54.43,56.27,56,58.23,56,62ZM65.19,77c0-5.93-4.84-8.08-10.7-8.21v-.22c5-.41,9.08-2.5,9.08-7.54,0-5.61-4.64-6.66-9.82-6.66-6.24,0-13.57.17-19.78,0v1.93c1.31-.09,4.5.09,4.5,1.74V81.92c0,1.6-3.28,1.82-4.5,1.82v1.88c6-.16,13.15,0,19.19,0C59.52,85.62,65.19,83.47,65.19,77Zm-8-.61c0,4.91-1.7,7.24-7.65,7.24h-3.7V69.87h3.94C55.22,69.87,57.22,71.7,57.22,76.35Z"/><path class="cls-4" d="M105.44,85.57c-2.8,0-5.59,0-8.38.05V83.7c1.27,0,4.8-.07,4.8-1.78V59.74h-.1L89.14,86H87.61L75.31,59.69h-.1V81.92c0,1.75,3.49,1.78,4.82,1.78l0,1.92c-3.49-.11-8.24-.19-11.68,0V83.7c1.33,0,4.33-.11,4.33-1.78V58c0-1.63-3.1-1.77-4.33-1.77l0-1.93c4,.17,8.23.17,12.2,0L91.13,76.49,101.9,54.38c3.83.17,8.14.12,12-.05v1.93c-1.26,0-4.6.09-4.6,1.77V81.92c0,1.71,3.29,1.78,4.6,1.78v1.92C111.07,85.54,108.23,85.57,105.44,85.57Z"/><path class="cls-4" d="M143.28,69.94c0,6-.59,14.29-9.44,14.29s-9.51-8.33-9.51-14.29.64-14.23,9.51-14.23S143.28,64,143.28,69.94Zm8.28,0c0-10.35-6.32-16.16-17.72-16.16s-17.79,5.76-17.79,16.16,6.32,16.2,17.79,16.2S151.56,80.35,151.56,69.94Z"/><path class="cls-4" d="M244.18,45.14a4.28,4.28,0,1,0,4.27,4.27,4.27,4.27,0,0,0-4.27-4.27Zm0,8a3.69,3.69,0,1,1,3.62-3.69,3.65,3.65,0,0,1-3.62,3.69"/><path class="cls-4" d="M246.16,48.35c0-1-.56-1.39-1.63-1.39h-1.9v4.91h.6V49.69h1l1.39,2.18h.71l-1.46-2.18a1.37,1.37,0,0,0,1.27-1.34Zm-2.93.82v-1.7h1c.88,0,1.27.26,1.27.86s-.39.84-1.27.84h-1"/><polygon class="cls-4" points="273.59 105.96 273.59 33.97 273.61 33.99 273.59 33.97 275.47 33.97 275.47 105.96 273.59 105.96"/></svg>