<svg width="32" height="32" viewBox="0 0 32 32" fill="none" xmlns="http://www.w3.org/2000/svg">
<path d="M23.7125 14.3514C22.7779 15.121 22.0816 15.2493 21.7701 14.9378C21.5685 14.7362 21.5319 14.3331 21.6785 13.82C22.1732 12.1891 22.558 10.5399 22.8695 8.87243C24.7386 8.04784 26.6077 7.27822 28.6783 7.07666C27.7072 9.73367 25.9297 12.5006 23.7125 14.3514ZM22.7596 19.8303C21.5868 19.5921 21.0371 19.079 21.0738 18.6209C21.0921 18.3278 21.367 18.0346 21.8434 17.833C23.3093 17.21 24.7569 16.532 26.1313 15.7074C27.9454 16.5869 29.6862 17.7047 31.0788 19.1157C28.5317 20.0686 25.3983 20.3801 22.7596 19.8303ZM17.922 22.7256C17.3539 21.5528 17.4089 20.7466 17.7754 20.4717C18.0319 20.2885 18.4351 20.3251 18.8932 20.5816C20.3225 21.3879 21.7701 22.1209 23.3093 22.7256C23.3093 22.7256 23.3093 22.7256 23.3093 22.7439C23.8591 24.9428 24.1889 27.2517 24.0423 29.5239C21.4952 27.9113 19.1864 25.3459 17.922 22.7256ZM12.443 20.6183C13.0844 19.3356 13.7624 18.8408 14.2205 18.9874C14.532 19.079 14.7519 19.4272 14.8252 19.9953C15.0817 21.791 15.4665 23.5502 15.9247 25.291C14.3304 27.4349 12.6263 29.5056 10.4823 31.1914C10.2441 27.7281 10.9038 23.7517 12.443 20.6183ZM10.7939 14.6995C12.2415 14.4064 13.0294 14.6446 13.2127 15.1027C13.3226 15.3959 13.176 15.799 12.7729 16.2388C11.4169 17.6498 10.1708 19.134 8.97975 20.6733H8.96143C6.04787 20.8748 3.00605 20.7649 0.147461 20.0869C3.06102 17.6314 7.00073 15.4508 10.7939 14.6995ZM14.4954 9.89859C15.5765 10.8331 15.8697 11.5661 15.6315 11.9692C15.4665 12.2258 15.0817 12.354 14.4954 12.2991C12.553 12.0792 10.6106 11.9876 8.64992 11.9876C6.79917 9.86195 5.11334 7.49811 4.0322 4.95104C7.71538 5.77563 11.6734 7.49811 14.4954 9.89859ZM20.2492 9.97189C20.2492 11.2912 19.8827 11.9509 19.4429 11.9876C19.1497 12.0242 18.8199 11.786 18.5084 11.3096C17.5189 9.77032 16.4377 8.28606 15.2833 6.83844C15.7231 4.52958 16.4377 2.18408 17.6655 0.150085C19.2047 3.10029 20.2675 6.69185 20.2492 9.97189Z" fill="#146E37"/>
<path fill-rule="evenodd" clip-rule="evenodd" d="M15.2825 6.82009C15.7223 4.52955 16.4369 2.18405 17.6647 0.150055C15.0443 -0.21643 12.3506 0.095082 9.89518 1.0113C11.3978 2.47724 12.882 3.9615 14.2197 5.55571C14.3759 5.74478 14.5431 5.94122 14.7082 6.13511C14.9111 6.37343 15.1107 6.6079 15.2825 6.82009ZM23.5838 2.2207C23.4738 3.97983 23.3456 5.72064 23.089 7.44312C23.0585 7.634 23.028 7.84079 22.9974 8.04758L22.9974 8.04782C22.9546 8.33723 22.9119 8.62663 22.8691 8.87241C24.7382 8.04782 26.6073 7.2782 28.6779 7.07663C27.3769 5.11594 25.6361 3.44843 23.5838 2.2207ZM30.9678 12.3724C29.7767 13.3069 28.549 14.2231 27.248 15.0111C27.0822 15.1106 26.9089 15.2213 26.7366 15.3314L26.7365 15.3314L26.7364 15.3315C26.5279 15.4648 26.3208 15.5971 26.1302 15.7074C27.9443 16.587 29.6851 17.7048 31.0778 19.1157C31.4076 16.7885 31.3893 14.6996 30.9678 12.3724ZM24.5722 23.2019C26.0015 23.7333 27.4858 24.1364 28.97 24.5029C27.7423 26.4819 26.0565 28.2227 24.0591 29.5237C24.2057 27.2515 23.8759 24.9427 23.3262 22.7437V22.7254C23.6305 22.8624 24.0108 22.9994 24.3618 23.1258C24.4335 23.1516 24.5039 23.177 24.5722 23.2019ZM18.2512 31.7777C17.5548 30.1102 16.8952 28.4244 16.3638 26.7386C16.3257 26.6149 16.2852 26.4863 16.2441 26.3559C16.127 25.9841 16.0054 25.5982 15.924 25.2726C14.3298 27.4166 12.6256 29.4872 10.5 31.173C13.0654 31.9243 15.5758 32.2542 18.2512 31.7777ZM7.97159 22.0841C6.72554 23.8249 5.58944 25.694 4.50831 27.5631C2.3827 25.4924 0.880106 22.8904 0.147135 20.0868C3.00572 20.7647 6.04755 20.8747 8.96111 20.6731H8.97943C8.79252 20.926 8.58582 21.2185 8.37912 21.5109L8.37896 21.5112L8.37876 21.5114C8.24109 21.7062 8.10341 21.901 7.97159 22.0841ZM0 12.6105C2.29053 12.3357 4.59939 12.0975 6.8716 12.0242C7.06386 12.0182 7.26597 12.0102 7.46889 12.0022L7.46902 12.0022C7.88493 11.9858 8.30424 11.9692 8.64905 11.9692C6.77998 9.86191 5.11247 7.49808 4.03134 4.95101C1.99734 7.09495 0.604701 9.77029 0 12.6105Z" fill="#64C832"/>
</svg>
