<?xml version="1.0" encoding="UTF-8"?>
<svg width="24px" height="24px" viewBox="0 0 24 24" version="1.1" xmlns="http://www.w3.org/2000/svg" xmlns:xlink="http://www.w3.org/1999/xlink">
    <!-- Generator: Sketch 63.1 (92452) - https://sketch.com -->
    <title>(1x) Tokens/Icons/Line Icons/24px/Interactive/Action/ic_close_24</title>
    <desc>Created with Sketch.</desc>
    <g id="(1x)-Tokens/Icons/Line-Icons/24px/Interactive/Action/ic_close_24" stroke="none" stroke-width="1" fill="none" fill-rule="evenodd">
        <path d="M2.14644661,2.14624661 C2.34170876,1.95098446 2.65829124,1.95098446 2.85355339,2.14624661 L2.85355339,2.14624661 L12,11.2928 L21.1464466,2.14624661 C21.320013,1.97268026 21.5894374,1.95339511 21.7843055,2.08839116 L21.8535534,2.14624661 C22.0488155,2.34150876 22.0488155,2.65809124 21.8535534,2.85335339 L21.8535534,2.85335339 L12.707,11.9998 L21.8535534,21.1462466 C22.0271197,21.319813 22.0464049,21.5892374 21.9114088,21.7841055 L21.8535534,21.8533534 C21.6582912,22.0486155 21.3417088,22.0486155 21.1464466,21.8533534 L21.1464466,21.8533534 L12,12.7068 L2.85355339,21.8533534 C2.67998704,22.0269197 2.41056264,22.0462049 2.2156945,21.9112088 L2.14644661,21.8533534 C1.95118446,21.6580912 1.95118446,21.3415088 2.14644661,21.1462466 L2.14644661,21.1462466 L11.293,11.9998 L2.14644661,2.85335339 C1.97288026,2.67978704 1.95359511,2.41036264 2.08859116,2.2154945 Z" id="Icons/24px/Interactive/Action/ic_close" fill="#3FA110" fill-rule="nonzero"></path>
    </g>
</svg>