<?xml version="1.0" encoding="UTF-8"?>
<svg width="57px" height="57px" viewBox="0 0 57 57" version="1.1" xmlns="http://www.w3.org/2000/svg" xmlns:xlink="http://www.w3.org/1999/xlink">
    <!-- Generator: Sketch 57.1 (83088) - https://sketch.com -->
    <title>Group 7</title>
    <desc>Created with Sketch.</desc>
    <defs>
        <polygon id="path-1" points="0 0.716325926 15.0801 0.716325926 15.0801 30.4289185 0 30.4289185"></polygon>
        <polygon id="path-3" points="1.08033333 1.02293333 12.9383333 1.02293333 12.9383333 11.1610074 1.08033333 11.1610074"></polygon>
    </defs>
    <g id="Mobile" stroke="none" stroke-width="1" fill="none" fill-rule="evenodd">
        <g id="Home-Cooperativas.Acesso" transform="translate(-43.000000, -97.000000)">
            <g id="Group-5">
                <g id="Group-4" transform="translate(43.000000, 97.000000)">
                    <g id="Group-7">
                        <rect id="Rectangle" fill="#F5F5F5" x="0" y="0" width="57" height="57" rx="4"></rect>
                        <g id="Group-11" transform="translate(15.000000, 12.000000)">
                            <g id="Group-3" transform="translate(0.000000, 0.854400)">
                                <mask id="mask-2" fill="white">
                                    <use xlink:href="#path-1"></use>
                                </mask>
                                <g id="Clip-2"></g>
                                <path d="M0.539933333,0.801659259 C0.200433333,1.1666963 -0.000233333333,1.73321481 -0.000233333333,2.46684444 L-0.000233333333,28.6784 C-0.000233333333,29.4132148 0.200433333,29.9785481 0.539933333,30.3435852 L0.626266667,30.4289185 L15.0801,15.7456593 L15.0801,15.5726222 L15.0801,15.3995852 L0.626266667,0.716325926 L0.539933333,0.801659259 Z" id="Fill-1" fill="#4081F9" mask="url(#mask-2)"></path>
                            </g>
                            <g id="Group-6" transform="translate(14.000000, 10.335881)">
                                <mask id="mask-4" fill="white">
                                    <use xlink:href="#path-3"></use>
                                </mask>
                                <g id="Clip-5"></g>
                                <path d="M5.8975,11.1610074 L1.08033333,6.26500741 L1.08033333,6.09197037 L1.08033333,5.91774815 L5.89866667,1.02293333 L6.00716667,1.08574815 L11.7156667,4.38056296 C13.3466667,5.3216 13.3466667,6.86115556 11.7156667,7.80337778 L6.00716667,11.0981926 L5.8975,11.1610074 Z" id="Fill-4" fill="#F2C900" mask="url(#mask-4)"></path>
                            </g>
                            <path d="M20.0075167,21.4332444 L15.0795167,16.4270222 L0.53935,31.1979852 C1.07718333,31.7763556 1.96501667,31.8474667 2.96485,31.2702815 L20.0075167,21.4332444" id="Fill-7" fill="#E95146"></path>
                            <path d="M20.0075167,11.421037 L2.96485,1.584 C1.96501667,1.00681481 1.07718333,1.07792593 0.53935,1.6562963 L15.0795167,16.4272593 L20.0075167,11.421037 Z" id="Fill-9" fill="#3AC971"></path>
                        </g>
                    </g>
                </g>
            </g>
        </g>
    </g>
</svg>