<svg width="56" height="57" viewBox="0 0 56 57" fill="none" xmlns="http://www.w3.org/2000/svg">
<rect y="0.5" width="56" height="56" rx="28" fill="#3FA110"/>
<g clip-path="url(#clip0_2821_636)">
<path d="M28.0013 41.8337C25.748 41.8337 22.6946 40.767 20.828 39.767L15.4413 40.7803L16.7213 35.7137C15.6946 33.9003 14.668 30.9803 14.668 28.5003C14.668 21.1537 20.6546 15.167 28.0013 15.167C35.348 15.167 41.3346 21.1537 41.3346 28.5003C41.3346 35.847 35.348 41.8337 28.0013 41.8337ZM21.0413 38.367L21.4546 38.5803C23.2413 39.5403 26.068 40.5003 28.0013 40.5003C34.6146 40.5003 40.0013 35.1137 40.0013 28.5003C40.0013 21.887 34.6146 16.5003 28.0013 16.5003C21.388 16.5003 16.0013 21.887 16.0013 28.5003C16.0013 30.727 16.948 33.3937 17.8813 35.047L18.148 35.5137L17.2413 39.087L21.0413 38.367Z" fill="white"/>
<path d="M31.6381 35.8337C31.5716 35.8337 31.4918 35.8337 31.4253 35.8337L30.521 35.6983C28.2737 35.1164 26.2391 34.0608 24.5502 32.5992C24.271 32.3556 24.005 32.0985 23.7391 31.8278L23.5795 31.6654C22.2497 30.3662 21.1991 28.9317 20.5475 27.5107C20.2018 26.7934 20.0156 26.0085 20.0023 25.1965C19.989 24.168 20.3348 23.153 20.9731 22.341C21.1327 22.138 21.2523 21.9891 21.4252 21.8267C21.638 21.6373 21.8108 21.4884 22.0103 21.3937C22.263 21.2719 22.5289 21.2042 22.8082 21.1771C23.0343 21.1636 23.247 21.1636 23.4731 21.1771L23.7524 21.2042C24.1247 21.2448 24.6433 21.4613 24.8561 21.9485C25.2949 22.9229 25.7205 23.9109 26.1327 24.8988C26.3056 25.3183 26.2391 25.8326 25.9465 26.3062C25.8135 26.5092 25.6673 26.7122 25.521 26.9017C25.4146 27.037 25.2284 27.24 25.1088 27.3754L25.1885 27.5107C25.5476 28.0926 26.0263 28.6746 26.5848 29.2159L26.7311 29.3648C26.8508 29.473 26.9705 29.5948 27.0902 29.6896C27.7285 30.2444 28.4466 30.691 29.2178 31.0158L29.5902 31.1782C29.6434 31.2053 29.7099 31.2188 29.7764 31.2459C30.4014 30.4339 30.7072 30.0414 30.8934 29.8655V29.852C31.0397 29.7302 31.1992 29.6354 31.3721 29.5813C31.5583 29.5136 31.7445 29.5001 31.9439 29.5136C32.0503 29.5272 32.2232 29.5407 32.4094 29.6219C33.1806 29.9738 34.4573 30.5151 34.4573 30.5151L35.3216 30.894C35.7206 31.0835 35.9865 31.476 35.9998 31.882C35.9998 31.9767 36.0131 32.1662 35.9732 32.518C35.92 32.9105 35.8004 33.4518 35.6275 33.7901C35.5211 34.0202 35.3748 34.2232 35.1886 34.3991C35.0158 34.5751 34.8163 34.751 34.6168 34.8863L34.4174 35.0217C34.1913 35.157 33.9918 35.2788 33.7791 35.3871C33.3269 35.6171 32.8083 35.766 32.2897 35.7931C32.037 35.8201 31.8243 35.8337 31.6381 35.8337ZM30.787 34.3585C30.8003 34.3585 31.4652 34.4533 31.545 34.4668C31.7179 34.4803 31.9173 34.4668 32.1168 34.4533L32.2498 34.4397C32.5822 34.4262 32.9147 34.3315 33.2072 34.1826C33.3934 34.0879 33.553 33.9931 33.7259 33.8849L33.8588 33.7901C34.0051 33.6819 34.1381 33.5736 34.2578 33.4518C34.3376 33.3706 34.3908 33.2894 34.444 33.1947C34.5104 33.0593 34.6168 32.6939 34.6567 32.3556C34.67 32.2473 34.67 32.1662 34.67 32.0985L33.9386 31.7737C33.9386 31.7737 32.662 31.2324 31.8774 30.8805L31.6115 31.1241C31.6115 31.1241 31.1328 31.6113 30.6673 32.1661C30.5476 32.315 30.3615 32.4639 30.1487 32.5451C29.9226 32.6263 29.6833 32.6263 29.4705 32.5722C29.3508 32.5451 29.2178 32.5045 29.0982 32.4503L28.779 32.315C27.8083 31.8955 26.9705 31.3812 26.2391 30.7452C26.0928 30.6234 25.9598 30.5016 25.8268 30.3662L25.6806 30.2309C25.029 29.6084 24.4837 28.9452 24.0715 28.2686L23.9917 28.1468C23.8986 27.9844 23.8056 27.822 23.7524 27.6596C23.646 27.2536 23.8056 26.8746 23.9784 26.6581C24.005 26.631 24.3242 26.2792 24.4838 26.0897C24.6034 25.9409 24.7231 25.7784 24.8295 25.616C24.8827 25.5213 24.896 25.4537 24.896 25.4401C24.497 24.4928 24.0715 23.5184 23.6327 22.5575L23.3933 22.5711C23.2204 22.5711 23.0476 22.5711 22.8747 22.5711C22.755 22.5711 22.6619 22.5981 22.5688 22.6523C22.5156 22.6793 22.4359 22.747 22.2896 22.8688C22.1699 22.9771 22.1034 23.0718 22.0236 23.1665C21.5316 23.8026 21.2922 24.5063 21.2922 25.2236C21.3055 25.8191 21.4385 26.4145 21.7045 26.9694C22.2896 28.2415 23.247 29.5407 24.4572 30.7316L24.63 30.894C24.8827 31.1376 25.1221 31.3812 25.388 31.5978C26.9439 32.8834 28.8056 33.8578 30.787 34.3585ZM34.6567 31.9496C34.6567 31.9496 34.6567 31.9632 34.6567 31.9767C34.6567 31.9632 34.6567 31.9632 34.6567 31.9496Z" fill="white"/>
</g>
<defs>
<clipPath id="clip0_2821_636">
<rect width="32" height="32" fill="white" transform="translate(12 12.5)"/>
</clipPath>
</defs>
</svg>
