<svg width="32" height="32" viewBox="0 0 32 32" fill="none" xmlns="http://www.w3.org/2000/svg">
<rect width="32" height="32" rx="4" fill="#014C92"/>
<path d="M27.8164 15.3459C27.7004 16.3723 27.4634 16.7946 27.4368 16.8388C27.3933 16.9125 27.3135 16.9542 27.2337 16.9542C27.1926 16.9542 27.1491 16.942 27.1104 16.9199C27.0113 16.8586 26.9717 16.7351 27.0121 16.6273C27.0221 16.6003 27.0375 16.576 27.0496 16.5499C27.0755 16.4939 27.1249 16.3752 27.1786 16.1841C27.2401 15.9651 27.2611 15.7374 27.2676 15.5101L27.2889 14.7624C27.2972 14.4713 27.2825 14.1773 27.193 13.9002C27.147 13.7576 27.1093 13.6741 27.108 13.6713C27.0524 13.551 27.1031 13.4086 27.2216 13.3497C27.3401 13.2932 27.4803 13.3447 27.5384 13.4651C27.5553 13.4994 27.9325 14.3269 27.8189 15.3435M26.4189 16.5466C26.3778 16.6326 26.2931 16.6841 26.2037 16.6841C26.1698 16.6841 26.1335 16.6768 26.1021 16.6596C25.9948 16.6062 25.945 16.4844 25.9779 16.3725C25.9848 16.3488 25.9958 16.3267 26.0041 16.3035C26.0241 16.2478 26.0633 16.1232 26.0993 15.9206C26.139 15.698 26.1379 15.4707 26.1225 15.2452L26.0712 14.4925C26.0516 14.2045 26.0091 13.9159 25.895 13.6508C25.8351 13.5117 25.7891 13.431 25.7878 13.4282C25.7201 13.3153 25.7588 13.1655 25.87 13.0992C25.9812 13.0304 26.1287 13.0673 26.194 13.1827C26.2133 13.2146 26.6679 14.0003 26.651 15.0267C26.6341 16.0605 26.4382 16.5024 26.4164 16.5491M25.3912 15.945C24.985 17.7277 24.279 19.1567 24.0444 19.7092C23.8075 20.2617 23.6648 21.0499 23.7204 22.9111C23.7784 24.7748 23.6745 26.0884 23.6189 26.5746C23.5898 26.8251 23.3335 26.992 23.0772 26.992C22.8209 26.992 22.5864 26.8398 22.5284 26.4567C22.4099 25.6735 22.1415 22.6582 22.0641 22.2702C22.0182 22.0419 21.8223 21.6711 21.6095 21.6711C21.4548 21.6711 21.2928 21.8602 21.1671 22.4298C20.8648 23.7951 20.4054 26.9503 20.2506 27.6722C20.1007 28.3671 19.8203 28.48 19.6534 28.48C19.5994 28.48 19.5576 28.4688 19.5362 28.4615C19.5256 28.4579 19.5147 28.4555 19.5035 28.4555C19.4019 28.4555 18.9111 28.4235 18.9377 27.8195C18.9667 27.1467 19.5301 22.6656 19.518 22.226C19.5108 21.9633 19.4455 21.7521 19.3173 21.7521C19.2303 21.7521 19.1166 21.8454 18.9715 22.0836C18.6113 22.6754 16.5826 26.275 15.9733 27.5003C15.85 27.7483 15.6154 27.8269 15.3978 27.8269C15.2334 27.8269 15.0811 27.7827 14.9916 27.7287C14.7861 27.6083 14.6216 27.1565 14.7087 26.857C14.7957 26.555 16.9284 21.8209 17.2089 21.2365C17.3975 20.8485 17.3298 20.4581 17.0686 20.4581C16.938 20.4581 16.7591 20.5563 16.5367 20.8019C15.8766 21.5361 13.0355 24.3868 12.697 24.7625C12.5422 24.9344 12.3875 25.0056 12.2424 25.0056C12.0707 25.0056 11.9087 24.9098 11.7757 24.7748C11.5315 24.5268 11.459 24.1756 11.6911 23.8515C11.8047 23.6944 12.697 22.5452 13.6448 21.2758C13.831 21.0278 14.0172 20.7749 14.2009 20.5269L14.2106 20.5121C14.2662 20.4385 14.3194 20.3624 14.375 20.2887C14.3929 20.266 14.4102 20.2426 14.4272 20.2192C14.4671 20.1646 14.5069 20.11 14.5467 20.0554C14.5612 20.0382 14.5733 20.0186 14.5878 20.0014C14.6313 19.9425 14.6724 19.8836 14.7159 19.8246C14.7329 19.8001 14.7498 19.778 14.7667 19.7534C14.8054 19.7019 14.8417 19.6478 14.8779 19.5963C14.8973 19.5693 14.9191 19.5398 14.9384 19.5128C14.9722 19.4637 15.0061 19.417 15.04 19.3679C15.0593 19.3385 15.0811 19.3114 15.1004 19.282C15.1318 19.2378 15.1608 19.1936 15.1923 19.1518C15.214 19.1224 15.2358 19.0905 15.2551 19.061C15.2842 19.0217 15.3108 18.9824 15.3374 18.9431C15.3591 18.9137 15.3809 18.8817 15.4002 18.8523C15.4268 18.8154 15.451 18.7786 15.4752 18.7418C15.4945 18.7123 15.5163 18.6829 15.5332 18.6534C15.5574 18.6166 15.5792 18.5846 15.6009 18.5503C15.6178 18.5232 15.6372 18.4962 15.6541 18.4692C15.6759 18.4349 15.6952 18.4054 15.7146 18.3735C15.7291 18.3489 15.746 18.3219 15.7629 18.2998C15.7823 18.2679 15.7992 18.2409 15.8161 18.2114C15.8282 18.1893 15.8427 18.1672 15.8548 18.1451C15.8741 18.1132 15.8887 18.0862 15.9056 18.0567C15.9153 18.0395 15.9249 18.0223 15.9346 18.0076C15.9588 17.9659 15.9781 17.9266 15.9975 17.8897C16.527 16.8118 17.4579 15.1421 15.7146 15.1421C15.6154 15.1421 15.509 15.147 15.393 15.1593C14.7039 15.2232 14.213 15.2502 13.8503 15.2502C13.0693 15.2502 12.888 15.1323 12.6462 15.039C12.2883 14.9015 11.8023 14.5381 11.9764 14.2041C12.1505 13.8727 13.021 14.0224 13.3764 13.8899L13.7283 13.7586C13.7306 13.7577 13.7331 13.7573 13.7356 13.7573C13.7395 13.7573 13.7432 13.7562 13.7467 13.7545C13.7511 13.7524 13.7576 13.7499 13.7633 13.7499C13.7716 13.7499 13.779 13.7464 13.787 13.7442C13.9813 13.6898 14.6777 13.4885 15.3833 13.2023C15.7049 13.0722 16.0289 12.9249 16.3094 12.7628C17.3128 12.1858 19.5519 11.2061 20.1563 11.0907C20.4102 11.044 20.7052 11.017 20.9978 11.017C21.404 11.017 21.803 11.0686 22.0714 11.1938C22.481 11.3823 22.8869 12.2113 24.3093 13.0094C24.713 13.236 25.1217 13.4903 25.295 13.9197C25.4692 14.3514 25.5996 15.0225 25.3888 15.9475M8.52114 19.1862C7.88764 17.4723 7.69662 15.8861 7.59023 15.2944C7.48626 14.7001 7.17676 13.966 6.11286 12.4461C5.05137 10.9261 4.41787 9.77455 4.20267 9.33748C3.98505 8.90042 4.64757 8.23499 5.17469 8.82184C5.69939 9.40869 7.56847 11.7659 7.84411 12.0458C8.12218 12.3257 8.99748 12.7137 8.50421 11.4074C8.01095 10.1011 6.67382 7.21599 6.40785 6.52601C6.37679 6.44536 6.35206 6.37079 6.33283 6.30186C6.15942 5.68037 7.09034 5.10865 7.41855 5.66416C7.7619 6.24118 9.73737 10.2877 9.984 10.6462C10.2306 11.0047 10.5401 11.1545 10.5184 10.4572C10.4966 9.76227 10.221 5.62242 10.059 4.26211C10.0058 3.78084 10.516 3.53776 10.7529 3.52057C10.9899 3.50583 11.3719 3.79066 11.4638 4.08777C11.5557 4.38733 12.3633 9.52901 12.4479 10.1748C12.5301 10.8206 13.0959 11.1398 13.2458 10.1576C13.3957 9.17542 14.2058 5.20499 14.2807 4.69917C14.3557 4.19581 14.7014 4.10496 15.0424 4.17371C15.3809 4.24246 15.6324 4.49537 15.6154 4.89561C15.603 5.16871 15.3809 7.92009 15.2901 10.0424C15.2403 11.2065 14.5685 12.3111 13.4417 12.6081L13.3885 12.6228L13.3377 12.6425L13.2644 12.6698C13.1075 12.7283 12.9439 12.7648 12.7767 12.7751C12.252 12.7996 11.3743 12.8438 10.9512 13.6468C10.7481 14.0298 10.7215 14.4718 10.8738 14.8868C11.1664 15.6799 11.9885 16.0506 12.2351 16.1464C12.2545 16.1538 12.2762 16.1636 12.2956 16.1709C12.6341 16.3109 13.0089 16.4361 13.8552 16.4361C14.0525 16.4361 14.2726 16.4295 14.5185 16.4162C14.9378 16.3936 15.2345 16.8043 15.0472 17.1801L14.9577 17.3618C14.7878 17.7071 14.2281 18.5242 13.2866 19.8008C12.7151 20.5758 11.8571 20.9433 10.899 21.0391C10.585 21.0705 10.1673 21.0925 9.89158 20.9389C9.49188 20.7163 8.90799 20.2287 8.52356 19.1887M9.67451 22.3734C9.63824 22.4667 9.54877 22.5231 9.45447 22.5231C9.42546 22.5231 9.39402 22.5182 9.36501 22.506C9.32874 22.4912 8.49938 22.145 7.90456 21.3175C7.30491 20.4827 7.19852 20.0088 7.18643 19.9597C7.15983 19.8295 7.24446 19.7019 7.37261 19.6748C7.48218 19.6518 7.58998 19.7112 7.63556 19.8103C7.65131 19.8445 7.65735 19.8821 7.66901 19.918C7.68933 19.9804 7.73208 20.0961 7.81358 20.2603C7.91588 20.4664 8.0548 20.6516 8.20453 20.8263L8.6759 21.3764C8.87033 21.6032 9.08473 21.8166 9.34591 21.9617C9.4651 22.028 9.54132 22.0602 9.54394 22.0615C9.66483 22.1106 9.72528 22.2506 9.67451 22.3758M8.44618 23.002C8.40266 23.0854 8.32045 23.1321 8.23582 23.1321C8.19955 23.1321 8.16087 23.1223 8.12701 23.1051C8.09316 23.0879 7.30007 22.6606 6.78747 21.7767C6.27002 20.8854 6.20957 20.4041 6.20474 20.3525C6.19023 20.22 6.28695 20.1021 6.41752 20.0874C6.53204 20.0766 6.63541 20.1489 6.66887 20.2564C6.67842 20.287 6.68079 20.3193 6.68753 20.3507C6.70097 20.4133 6.73274 20.5372 6.80247 20.7188C6.88398 20.9311 7.00301 21.1263 7.13357 21.3125L7.558 21.9178C7.72567 22.157 7.91344 22.3851 8.15266 22.5526C8.27009 22.6349 8.34678 22.6765 8.34947 22.6778C8.46553 22.7392 8.51147 22.8841 8.45102 23.002" fill="white"/>
</svg>
