<svg width="30" height="30" viewBox="0 0 30 30" fill="none" xmlns="http://www.w3.org/2000/svg">
<path d="M25.5752 4.365C24.2 2.97589 22.562 1.8745 20.7567 1.12507C18.9513 0.375649 17.0149 -0.00681173 15.0602 -2.19829e-06C6.87019 -2.19829e-06 0.195196 6.675 0.195196 14.865C0.195196 17.49 0.885195 20.04 2.1752 22.29L0.0751953 30L7.9502 27.93C10.1252 29.115 12.5702 29.745 15.0602 29.745C23.2502 29.745 29.9252 23.07 29.9252 14.88C29.9252 10.905 28.3802 7.17 25.5752 4.365ZM15.0602 27.225C12.8402 27.225 10.6652 26.625 8.76019 25.5L8.31019 25.23L3.6302 26.46L4.8752 21.9L4.5752 21.435C3.34181 19.4655 2.68691 17.1889 2.6852 14.865C2.6852 8.055 8.2352 2.505 15.0452 2.505C18.3452 2.505 21.4502 3.795 23.7752 6.135C24.9264 7.28094 25.8387 8.64399 26.4593 10.1451C27.0798 11.6463 27.3962 13.2557 27.3902 14.88C27.4202 21.69 21.8702 27.225 15.0602 27.225ZM21.8402 17.985C21.4652 17.805 19.6352 16.905 19.3052 16.77C18.9602 16.65 18.7202 16.59 18.4652 16.95C18.2102 17.325 17.5052 18.165 17.2952 18.405C17.0852 18.66 16.8602 18.69 16.4852 18.495C16.1102 18.315 14.9102 17.91 13.5002 16.65C12.3902 15.66 11.6552 14.445 11.4302 14.07C11.2202 13.695 11.4002 13.5 11.5952 13.305C11.7602 13.14 11.9702 12.87 12.1502 12.66C12.3302 12.45 12.4052 12.285 12.5252 12.045C12.6452 11.79 12.5852 11.58 12.4952 11.4C12.4052 11.22 11.6552 9.39 11.3552 8.64C11.0552 7.92 10.7402 8.01 10.5152 7.995H9.79519C9.54019 7.995 9.1502 8.085 8.80519 8.46C8.47519 8.835 7.5152 9.735 7.5152 11.565C7.5152 13.395 8.8502 15.165 9.0302 15.405C9.2102 15.66 11.6552 19.41 15.3752 21.015C16.2602 21.405 16.9502 21.63 17.4902 21.795C18.3752 22.08 19.1852 22.035 19.8302 21.945C20.5502 21.84 22.0352 21.045 22.3352 20.175C22.6502 19.305 22.6502 18.57 22.5452 18.405C22.4402 18.24 22.2152 18.165 21.8402 17.985Z" fill="white"/>
</svg>
