<svg width="103" height="103" viewBox="0 0 103 103" fill="none" xmlns="http://www.w3.org/2000/svg">
<path d="M103 51.5C103 79.9427 79.9427 103 51.5 103C23.0573 103 0 79.9427 0 51.5C0 23.0573 23.0573 0 51.5 0C79.9427 0 103 23.0573 103 51.5Z" fill="#F8E197"/>
<path d="M60.2 72V76.8" stroke="#008A9C" stroke-width="2" stroke-linecap="round" stroke-linejoin="round"/>
<path d="M65 72V76.8" stroke="#008A9C" stroke-width="2" stroke-linecap="round" stroke-linejoin="round"/>
<path d="M69.8 72V76.8" stroke="#008A9C" stroke-width="2" stroke-linecap="round" stroke-linejoin="round"/>
<path d="M95 75.6C95.6627 75.6 96.2 75.0627 96.2 74.4C96.2 73.7372 95.6627 73.2 95 73.2C94.3373 73.2 93.8 73.7372 93.8 74.4C93.8 75.0627 94.3373 75.6 95 75.6Z" stroke="#008A9C" stroke-width="2" stroke-linecap="round" stroke-linejoin="round"/>
<path d="M87.8 75.6C88.4627 75.6 89 75.0627 89 74.4C89 73.7372 88.4627 73.2 87.8 73.2C87.1373 73.2 86.6 73.7372 86.6 74.4C86.6 75.0627 87.1373 75.6 87.8 75.6Z" stroke="#008A9C" stroke-width="2" stroke-linecap="round" stroke-linejoin="round"/>
<path d="M60.2 86.3999V91.1999" stroke="#008A9C" stroke-width="2" stroke-linecap="round" stroke-linejoin="round"/>
<path d="M65 86.3999V91.1999" stroke="#008A9C" stroke-width="2" stroke-linecap="round" stroke-linejoin="round"/>
<path d="M69.8 86.3999V91.1999" stroke="#008A9C" stroke-width="2" stroke-linecap="round" stroke-linejoin="round"/>
<path d="M95 90.0001C95.6627 90.0001 96.2 89.4628 96.2 88.8001C96.2 88.1374 95.6627 87.6001 95 87.6001C94.3373 87.6001 93.8 88.1374 93.8 88.8001C93.8 89.4628 94.3373 90.0001 95 90.0001Z" stroke="#008A9C" stroke-width="2" stroke-linecap="round" stroke-linejoin="round"/>
<path d="M87.8 90.0001C88.4627 90.0001 89 89.4628 89 88.8001C89 88.1374 88.4627 87.6001 87.8 87.6001C87.1373 87.6001 86.6 88.1374 86.6 88.8001C86.6 89.4628 87.1373 90.0001 87.8 90.0001Z" stroke="#008A9C" stroke-width="2" stroke-linecap="round" stroke-linejoin="round"/>
<path d="M81.296 67.1998C81.8704 65.1841 81.9566 63.0607 81.5474 61.0052C81.1383 58.9496 80.2455 57.021 78.9431 55.379C77.6406 53.737 75.9658 52.4287 74.0574 51.5624C72.1489 50.6961 70.0616 50.2967 67.9681 50.3973C65.8747 50.4978 63.8353 51.0954 62.0186 52.1406C60.2019 53.1859 58.6603 54.6486 57.5212 56.4079C56.3821 58.1672 55.6783 60.1725 55.468 62.2578C55.2577 64.3431 55.5471 66.4485 56.312 68.3998" stroke="#008A9C" stroke-width="2" stroke-linecap="round" stroke-linejoin="round"/>
<path d="M96.2 67.2V58.08L89.36 56.4C89.0876 55.5818 88.767 54.7804 88.4 54L92.024 47.976L84.224 40.176L78.2 43.8C77.4196 43.4329 76.6182 43.1124 75.8 42.84L74.12 36H63.08L61.4 42.84C60.5818 43.1124 59.7804 43.4329 59 43.8L52.976 40.176L45.176 47.976L48.8 54C48.4329 54.7804 48.1124 55.5818 47.84 56.4L41 58.08V69.24L47.84 70.944C48.1124 71.7622 48.4329 72.5636 48.8 73.344L45.2 79.344L53 87.144L55.4 85.704" stroke="#008A9C" stroke-width="2" stroke-linecap="round" stroke-linejoin="round"/>
<path d="M96.224 58.2L96.2 67.2H96.224V58.2Z" stroke="#008A9C" stroke-width="2" stroke-linecap="round" stroke-linejoin="round"/>
<path d="M97.4 81.6001H59C57.0118 81.6001 55.4 83.2119 55.4 85.2001V92.4001C55.4 94.3883 57.0118 96.0001 59 96.0001H97.4C99.3882 96.0001 101 94.3883 101 92.4001V85.2001C101 83.2119 99.3882 81.6001 97.4 81.6001Z" stroke="#008A9C" stroke-width="2" stroke-linecap="round" stroke-linejoin="round"/>
<path d="M97.4 67.2H59C57.0118 67.2 55.4 68.8117 55.4 70.8V78C55.4 79.9882 57.0118 81.6 59 81.6H97.4C99.3882 81.6 101 79.9882 101 78V70.8C101 68.8117 99.3882 67.2 97.4 67.2Z" stroke="#008A9C" stroke-width="2" stroke-linecap="round" stroke-linejoin="round"/>
</svg>
