<svg width="244" height="145" viewBox="0 0 244 145" fill="none" xmlns="http://www.w3.org/2000/svg">
<g clip-path="url(#clip0_1680_1310)">
<path d="M18.957 98.9539L19.0888 139.107C21.8808 138.542 24.0764 138.604 26.5544 138.369V99L18.957 98.9539Z" fill="url(#paint0_linear_1680_1310)"/>
<path d="M32.4814 99H40.0788L40.1667 139.015L32.4375 137.678L32.4814 99Z" fill="url(#paint1_linear_1680_1310)" fill-opacity="0.8"/>
<path d="M19.043 99C19.2186 99.461 32.2177 138.277 32.2177 138.277C34.3537 138.261 37.2177 138.627 40.0346 138.969L26.5086 99H19.043Z" fill="#E1333B"/>
</g>
<path d="M13.1781 62.1414C7.01967 55.8823 7.75045 45.6174 15.1497 34.3673C16.4949 32.3212 17.8896 30.4634 19.494 28.5678L20.829 26.9937L20.9615 28.3989C21.1641 30.6 21.4613 31.8058 22.136 33.1829C22.559 34.0486 23.2544 34.9775 23.5593 35.2471C23.7896 35.4543 23.6813 35.5734 24.8483 34.9775C32.5347 30.7713 33.3277 23.9064 32.8944 18.0042C32.7439 16.2732 32.3632 14.3423 31.891 12.9229C31.7099 12.3758 31.6044 11.9452 31.6605 11.9629C31.7166 11.9804 32.6739 12.8879 33.789 13.9816C44.4492 24.4147 50.2164 35.3386 50.9642 46.5182C51.1981 59.3311 43.9146 66.1611 33.314 67.6125C24.2683 69.011 18.0187 66.9008 13.1781 62.1414Z" fill="#FF5722"/>
<path d="M137.281 51.4186C135.467 51.4357 134.028 51.292 132.996 50.9976C129.879 50.104 128.914 48.8251 128.914 48.8251C128.694 48.4958 128.309 48.3169 127.915 48.3723C127.523 48.4257 127.194 48.695 127.069 49.071C127.055 49.1123 125.587 53.3708 121.892 55.2208C118.058 57.1444 111.107 56.6754 111.037 56.6714C110.659 56.6369 110.324 56.8122 110.117 57.1099C109.907 57.4085 109.869 57.7933 110.015 58.1264L115.35 70.2446C115.518 70.627 115.891 70.8654 116.296 70.8654C116.349 70.8654 116.404 70.862 116.461 70.8512C126.429 69.2468 134.783 62.3348 138.264 52.8132C138.382 52.4946 138.334 52.1369 138.138 51.8571C137.942 51.5832 137.599 51.3969 137.281 51.4186Z" fill="#5ACF5F"/>
<path d="M112.001 15.1348C96.5833 15.1348 84.0391 27.7131 84.0391 43.172C84.0391 55.4278 92.2003 66.4637 103.888 70.01C103.986 70.0413 104.087 70.0562 104.189 70.0562C104.475 70.0562 104.752 69.9368 104.95 69.7188C105.22 69.4248 105.297 69.0048 105.15 68.6327C94.1294 40.7712 92.1338 34.2879 91.8191 32.7948C93.3051 32.0099 98.2817 30.9232 99.603 31.1404C99.9912 31.698 100.795 33.6679 101.508 35.4193C104.217 42.0648 108.31 52.1089 113.996 52.5152C118.033 52.806 121.665 51.2712 123.744 48.4186C125.006 46.6836 125.436 44.7245 124.869 43.3048C124.006 41.1461 120.032 32.052 118.62 28.8239L124.849 27.2611C126.208 30.5031 131.14 42.072 133.468 44.8755C134.485 46.0951 136.233 46.8448 138.662 47.0974C139.238 47.1463 139.738 46.7433 139.797 46.1753C139.909 45.187 139.962 44.1739 139.962 43.1721C139.962 27.7131 127.418 15.1348 112.001 15.1348Z" fill="#5ACF5F"/>
<path d="M169.215 17.0145C168.651 17.1845 168.231 17.4171 167.917 17.8017C167.47 18.3385 167.452 18.419 167.488 20.0202C167.506 20.9416 167.506 22.5697 167.488 23.67C167.47 25.638 167.47 25.638 167.103 25.5217C166.37 25.2713 164.617 25.3875 164.321 25.7096C164.071 25.978 164.071 25.978 164.357 25.8796C164.572 25.8169 164.643 25.8438 164.59 25.978C164.554 26.0942 164.42 26.1748 164.321 26.1479C164.205 26.13 164.134 26.4342 164.134 26.9799C164.134 27.4629 164.08 28.1338 164.035 28.4469C163.972 28.9121 164.035 29.1178 164.384 29.4846C164.787 29.914 164.921 29.9498 166.119 29.9498C167.238 29.9498 167.434 30.0034 167.506 30.236C167.604 30.6207 167.488 49.6568 167.39 49.9252C167.336 50.0772 166.96 50.1399 166.236 50.1399C165.511 50.1399 164.983 50.2383 164.652 50.4261C164.151 50.7303 164.134 50.7571 164.116 52.0632C164.08 54.72 164.151 54.8184 166.254 54.8184H167.658L167.604 58.0209C167.542 62.5294 167.667 62.7262 170.905 62.9052C175.709 63.1556 189.771 63.254 192.079 63.0572C192.884 62.9946 193.6 62.9767 194.378 62.9946C195.461 63.0125 195.729 62.9946 195.926 62.8068C196.096 62.6726 196.159 62.6726 196.159 62.8068C196.159 62.9052 196.239 62.9946 196.329 62.9946C196.427 62.9946 196.498 62.8425 196.498 62.6457C196.498 62.4579 196.436 62.3595 196.329 62.4132C196.248 62.4668 196.159 62.431 196.159 62.3326C196.159 62.0285 196.561 62.2342 196.74 62.6368C196.91 63.0036 196.955 63.0036 200.658 63.0036C202.725 63.0036 205.56 63.0572 206.965 63.102C210.749 63.254 216.68 63.0393 216.68 62.7352C216.68 62.601 216.76 62.5026 216.867 62.5026C216.966 62.5026 217.02 62.6189 216.948 62.7531C216.885 62.9678 217.064 63.0036 218.147 63.0036C218.844 63.0215 222.7 63.0393 226.725 63.0572C230.733 63.0751 233.962 63.0393 233.918 62.9588C233.882 62.8962 233.971 62.8425 234.114 62.8425C234.284 62.8425 234.329 62.9231 234.267 63.0393C234.07 63.3524 238.435 63.093 239.169 62.7262C240.385 62.1269 240.457 61.8764 240.466 58.2535C240.484 56.4644 240.528 54.8989 240.6 54.7468C240.663 54.55 240.797 54.5142 241.065 54.5947C241.548 54.7647 243.364 54.6753 243.704 54.4963C243.919 54.3622 243.901 54.3443 243.65 54.3264C243.463 54.3264 243.364 54.2459 243.418 54.1117C243.454 54.0133 243.57 53.9238 243.65 53.9417C243.865 53.9954 244.035 51.3207 243.847 50.9897C243.445 50.2741 243.382 50.2383 241.861 50.1578L240.341 50.0772L240.305 40.0135L240.251 29.9677H241.736C243.105 29.9677 243.221 29.9319 243.624 29.5025C243.972 29.1357 244.044 28.9389 243.972 28.4648C243.919 28.1517 243.874 27.4808 243.874 27.0156C243.874 26.4521 243.811 26.1479 243.686 26.1837C243.588 26.2016 243.454 26.1211 243.418 25.9958C243.364 25.8617 243.436 25.8259 243.65 25.8974C243.919 25.9958 243.919 25.978 243.704 25.7454C243.436 25.4591 241.79 25.3249 241.038 25.5307C240.287 25.7275 240.224 25.5486 240.117 22.5429C239.929 17.9001 239.58 17.2382 237.299 17.3008C236.628 17.3187 236.002 17.2829 235.895 17.2382C235.716 17.0771 232.88 16.8803 231.449 16.8803C230.894 16.8982 229.928 16.8982 229.284 16.8982C228.649 16.8982 225.348 16.934 221.94 16.9519C218.549 16.9698 215.132 17.0056 214.345 17.0324C213.558 17.0592 212.592 17.095 212.18 17.0861C205.703 16.9877 200.336 16.9519 200.05 17.0235C199.835 17.0771 199.683 17.1755 199.719 17.2382C199.737 17.3008 199.683 17.3723 199.585 17.3902C199.504 17.426 199.415 17.3366 199.415 17.2203C199.415 17.0682 198.61 17.0235 195.998 17.0235C193.341 17.0235 192.598 17.0771 192.607 17.2203C192.643 17.3366 192.545 17.435 192.392 17.435C192.258 17.435 192.178 17.3723 192.223 17.2829C192.419 16.9787 191.337 16.934 183.733 16.934C179.511 16.934 174.707 16.8982 173.052 16.8714C170.861 16.8177 169.814 16.8624 169.215 17.0145ZM203.127 21.532C225.965 21.5678 233.524 21.5141 233.524 21.3799C233.524 21.2279 233.578 21.2458 233.658 21.3799C233.721 21.4962 234.159 21.6125 234.606 21.6304L235.438 21.6841L235.456 22.516C235.492 23.8489 235.707 37.3298 235.689 37.6161C235.635 39.0384 235.689 49.7642 235.769 53.5034C235.85 57.2426 235.832 58.3071 235.671 58.4055C235.555 58.4682 234.92 58.5039 234.284 58.4861C233.05 58.4324 228.541 58.4324 211.259 58.4503C202.295 58.4682 201.132 58.5039 201.213 58.7186C201.275 58.8886 201.195 58.9691 200.98 58.9691C200.766 58.9691 200.676 58.8886 200.748 58.7186C200.828 58.5039 199.781 58.4861 192.357 58.4861C187.705 58.5039 182.517 58.5487 180.826 58.6023C179.153 58.665 177.793 58.665 177.793 58.5845C177.793 58.3877 177.212 58.4503 176.988 58.665C176.836 58.817 176.738 58.8349 176.657 58.7008C176.595 58.5666 175.79 58.5039 174.475 58.4861C173.338 58.4682 172.337 58.4234 172.274 58.3698C172.193 58.3161 172.122 57.6899 172.122 56.9385C172.122 55.8203 172.086 55.6235 171.871 55.704C171.701 55.7666 171.621 55.6861 171.621 55.4714C171.621 55.2567 171.701 55.1673 171.871 55.2388C172.086 55.3193 172.122 54.5858 172.14 49.2811C172.202 29.3236 172.202 29.5562 171.97 29.4757C171.836 29.422 171.8 29.3594 171.916 29.2878C172.167 29.1357 172.202 27.123 171.97 26.3805C171.854 26.0495 171.818 25.6827 171.907 25.5665C171.97 25.4502 172.041 24.5109 172.077 23.5179C172.095 22.4981 172.113 21.5857 172.113 21.4515C172.131 21.2994 172.229 21.2637 172.426 21.371C172.578 21.4336 186.399 21.5141 203.127 21.532Z" fill="#FF5722" fill-opacity="0.8"/>
<path d="M225.072 25.7364L221.52 25.7722L220.867 26.4073C220.313 26.9441 220.196 27.1588 220.116 27.946C219.928 29.5293 219.928 31.7478 220.08 35.2903C220.161 37.1778 220.214 39.0116 220.179 39.3784C220.143 39.7451 220.116 42.8135 220.116 46.2217L220.098 52.3941L220.501 53.0472C220.715 53.396 221.136 53.7807 221.431 53.9149C222.102 54.2011 228.802 54.2638 229.688 53.9954C230.502 53.7449 231.155 52.913 231.253 51.9916C231.423 50.3724 231.352 38.0455 231.173 37.5803L230.985 37.133H228.695C227.147 37.133 226.342 37.1957 226.208 37.3298C226.074 37.464 226.011 38.117 226.011 39.1279V40.7291L226.512 41.0154L227.013 41.3196L227.031 43.1892C227.031 44.2269 227.031 45.8907 227.013 46.9284C226.995 48.0466 227.067 48.9143 227.183 49.0932C227.317 49.3079 227.335 49.5226 227.201 49.8447C227.031 50.2919 227.013 50.2919 225.77 50.2293C224.347 50.1667 224.088 50.0593 224.347 49.7284C224.535 49.4958 224.616 37.8308 224.464 32.3472L224.383 29.6635L225.582 29.6009C227.371 29.5204 227.353 29.5025 227.353 30.7012C227.353 31.2827 227.433 31.8194 227.55 31.9357C227.702 32.0878 227.702 32.1325 227.55 32.1325C227.183 32.1325 227.335 32.5976 227.738 32.6871C228.337 32.8034 230.69 32.705 230.86 32.535C230.922 32.4545 231.03 31.1664 231.074 29.6635L231.137 26.9262L230.672 26.461C230.269 26.0585 229.92 25.9243 228.802 25.7454C228.695 25.7096 227.004 25.7096 225.072 25.7364ZM177.392 26.0585C177.24 26.2105 177.195 27.1588 177.24 29.4757C177.294 33.2149 177.276 32.9286 177.473 32.6155C177.607 32.4187 177.643 32.4635 177.643 32.8123C177.643 33.0449 177.562 33.2775 177.446 33.3133C177.294 33.367 177.249 34.0826 177.249 35.8002C177.231 37.8845 177.195 38.2691 176.945 38.5196C176.694 38.7522 176.641 39.1189 176.641 40.6576C176.641 41.6774 176.694 42.4556 176.757 42.4109C176.909 42.2588 177.473 42.7777 177.473 43.0818C177.473 43.1981 177.419 43.2965 177.356 43.2965C177.276 43.2965 177.204 45.5866 177.168 48.3865C177.151 51.1865 177.204 53.4765 177.267 53.4765C177.347 53.4765 177.499 53.6644 177.598 53.897C177.786 54.2995 177.848 54.3174 179.45 54.3174C181.918 54.3174 181.784 54.6216 181.74 48.5476C181.704 45.8907 181.677 43.6454 181.641 43.5559C181.453 42.8403 181.543 42.8045 183.913 42.8045C186.481 42.8045 187.447 42.6167 188.019 42.0173L188.404 41.5969L188.458 34.3599C188.493 29.4846 188.44 26.9977 188.324 26.783C187.903 26.0137 187.456 25.9511 182.366 25.8974C178.841 25.8706 177.517 25.9064 177.392 26.0585ZM183.976 30.0571C183.994 30.2271 183.994 32.0072 184.012 34.0289C184.012 36.0506 184.065 37.5624 184.092 37.4014C184.226 36.9005 184.477 37.0973 184.477 37.7145C184.477 38.1976 184.423 38.296 184.209 38.2154C184.021 38.1528 183.976 38.1976 184.039 38.4123C184.119 38.6627 184.021 38.6985 183.019 38.6448C182.384 38.6091 181.82 38.4749 181.686 38.3586C181.418 38.0902 181.4 37.6072 181.65 37.6072C181.766 37.6072 181.802 36.4353 181.731 33.7874C181.695 31.6852 181.695 29.914 181.749 29.8693C181.811 29.8156 182.33 29.7709 182.92 29.7709C183.815 29.7798 183.976 29.8245 183.976 30.0571ZM191.669 26.0048C191.383 26.3358 191.481 30.0392 191.785 29.9766C191.884 29.9587 191.982 30.0571 191.982 30.1913C191.982 30.3255 191.884 30.4239 191.785 30.3881C191.633 30.3702 191.553 30.6386 191.517 31.2379C191.481 31.9357 191.517 32.1056 191.687 32.0072C191.857 31.9088 191.857 31.9267 191.723 32.1235C191.454 32.4724 191.276 51.3743 191.526 52.4925C191.678 53.0919 191.857 53.4139 192.277 53.7091L192.832 54.1385L197.206 54.0759C202.082 54.0133 202.431 53.9238 202.958 52.904C203.325 52.1884 203.477 46.5616 203.388 36.7663C203.352 32.7766 203.325 28.8047 203.325 27.9728C203.325 27.0067 203.263 26.3894 203.137 26.3C203.021 26.2463 202.905 26.2821 202.869 26.3805C202.788 26.6668 202.502 26.631 202.502 26.3268C202.502 26.13 202.234 26.0763 201.08 26.0763C198.79 26.0763 198.96 25.5217 198.978 33.2149C198.996 36.7663 199.04 40.6755 199.094 41.8742C199.174 43.4575 199.148 44.0927 199.013 44.0927C198.709 44.0927 198.799 44.7278 199.13 44.9067C199.327 45.0409 199.362 45.1214 199.21 45.2109C199.094 45.3093 198.996 46.1323 198.96 47.6262C198.906 49.5584 198.861 49.9609 198.611 50.2114C198.325 50.4977 198.298 50.4977 198.092 50.2114C197.842 49.8983 197.144 49.8447 196.643 50.113C196.142 50.3635 195.623 49.8804 195.757 49.2811C195.874 48.7801 195.954 34.9324 195.874 29.914L195.811 26.4789L195.095 26.0942C194.612 25.8259 194.263 25.7275 194.058 25.8259C193.745 25.9601 192.626 25.9601 192.143 25.808C191.991 25.808 191.785 25.8706 191.669 26.0048ZM206.537 25.9869C206.349 26.2374 206.286 32.2935 206.474 33.1075C206.555 33.4206 206.555 34.2078 206.51 34.8609C206.447 35.5139 206.456 36.1132 206.546 36.2295C206.76 36.4979 206.546 37.1151 206.241 37.1151C206.107 37.1151 206.045 37.1957 206.089 37.2851C206.143 37.3835 206.071 37.5714 205.937 37.7145C205.633 38.0186 205.553 40.3534 205.839 40.5323C205.937 40.586 206.009 40.7828 206.009 40.9528C206.009 41.1228 206.089 41.2838 206.197 41.3196C206.349 41.3732 206.393 42.8671 206.393 46.7942C206.376 49.9341 206.447 52.2957 206.546 52.421C206.626 52.5194 206.626 52.6536 206.563 52.6893C206.483 52.743 206.447 53.0919 206.483 53.4587L206.546 54.1385L211 54.0848C217.638 54.0312 217.253 54.5053 217.271 46.2933C217.271 40.7739 217.253 40.5234 216.94 40.1835C215.938 39.1011 215.822 38.8953 216.09 38.7522C216.761 38.3854 216.922 37.6161 216.958 35.1113C216.976 33.7785 217.012 31.3542 217.039 29.7261C217.092 26.9262 217.074 26.7383 216.735 26.4252C216.216 25.9064 215.437 25.808 210.911 25.7901C207.753 25.7901 206.671 25.8259 206.537 25.9869ZM212.781 29.7977C212.879 29.9677 212.879 31.229 212.781 36.1222C212.763 37.3388 212.682 37.4103 211.43 37.2046L210.714 37.1062L210.616 35.657C210.562 34.8519 210.517 34.0916 210.5 33.9574C210.5 33.8232 210.553 32.7855 210.616 31.6584L210.732 29.6188H211.698C212.226 29.6098 212.709 29.6903 212.781 29.7977ZM212.709 41.5253C212.772 41.6237 212.843 42.9119 212.843 44.3789C212.843 45.846 212.861 47.7335 212.861 48.5833C212.879 49.4153 212.843 50.1846 212.781 50.2651C212.646 50.4798 210.911 50.3993 210.625 50.1488C210.437 49.9967 210.41 49.7999 210.508 49.3437C210.589 49.0127 210.661 47.1252 210.661 45.1393C210.661 42.0352 210.696 41.5164 210.929 41.3553C211.242 41.1228 212.53 41.239 212.709 41.5253Z" fill="#FF5722" fill-opacity="0.8"/>
<g clip-path="url(#clip1_1680_1310)">
<path d="M96.817 116.243C101.975 115.135 101.272 108.97 101.117 107.622C100.865 105.547 98.422 101.917 95.1045 102.205C90.9295 102.58 90.322 108.608 90.322 108.608C89.757 111.395 91.672 117.35 96.817 116.243ZM102.292 126.963C102.142 127.395 101.805 128.503 102.097 129.468C102.672 131.633 104.552 131.73 104.552 131.73H107.252V125.13H104.36C103.06 125.515 102.435 126.528 102.292 126.963ZM106.387 105.907C109.237 105.907 111.537 102.627 111.537 98.575C111.537 94.525 109.237 91.25 106.387 91.25C103.545 91.25 101.237 94.525 101.237 98.575C101.237 102.627 103.545 105.907 106.387 105.907ZM118.657 106.39C122.462 106.885 124.91 102.822 125.397 99.7425C125.895 96.6675 123.437 93.0975 120.742 92.4825C118.042 91.8625 114.67 96.19 114.362 99.0075C113.995 102.458 114.855 105.902 118.657 106.39ZM118.657 115.01C113.995 107.747 107.375 110.702 105.157 114.397C102.955 118.09 99.517 120.422 99.0295 121.042C98.5345 121.653 91.9145 125.225 93.3845 131.753C94.852 138.275 100.015 138.153 100.015 138.153C100.015 138.153 103.817 138.528 108.23 137.537C112.645 136.56 116.445 137.783 116.445 137.783C116.445 137.783 126.757 141.232 129.577 134.587C132.397 127.937 127.985 124.493 127.985 124.493C127.985 124.493 122.095 119.935 118.655 115.01H118.657ZM103.637 134.385C100.742 133.807 99.5895 131.833 99.4445 131.495C99.302 131.153 98.4795 129.565 98.9145 126.863C100.165 122.815 103.732 122.525 103.732 122.525H107.302V118.138L110.34 118.188V134.385H103.64H103.637ZM115.112 134.338C112.122 133.568 111.985 131.442 111.985 131.442V122.913L115.112 122.863V130.528C115.305 131.347 116.32 131.495 116.32 131.495H119.497V122.913H122.827V134.338H115.112ZM133.747 111.562C133.747 110.087 132.522 105.652 127.985 105.652C123.437 105.652 122.83 109.84 122.83 112.8C122.83 115.625 123.067 119.568 128.715 119.443C134.365 119.318 133.747 113.042 133.747 111.562Z" fill="#365B95" fill-opacity="0.9"/>
</g>
<g clip-path="url(#clip2_1680_1310)">
<path d="M178.5 115.375C178.5 101.085 190.085 89.5 204.375 89.5C218.665 89.5 230.25 101.085 230.25 115.375C230.25 129.665 218.665 141.25 204.375 141.25C190.085 141.25 178.5 129.665 178.5 115.375Z" fill="white"/>
<path d="M173.75 115C173.75 100.503 185.503 88.75 200 88.75C214.497 88.75 226.25 100.503 226.25 115C226.25 129.497 214.497 141.25 200 141.25C185.503 141.25 173.75 129.497 173.75 115Z" fill="#45B035" fill-opacity="0.9"/>
<path fill-rule="evenodd" clip-rule="evenodd" d="M207.5 109.561C207.327 109.551 207.152 109.549 206.976 109.549C200.716 109.549 195.638 113.8 195.638 119.045C195.638 119.903 195.779 120.735 196.034 121.526C195.757 121.54 195.478 121.551 195.197 121.551C193.821 121.551 192.495 121.365 191.259 121.021C191.188 121 191.047 120.96 191.047 120.96L186.547 123.25L187.75 119.486L187.636 119.414C184.665 117.514 182.75 114.52 182.75 111.151C182.75 105.407 188.322 100.75 195.197 100.75C201.424 100.75 206.583 104.569 207.5 109.561ZM190.866 109.26C189.9 109.26 189.118 108.502 189.118 107.569C189.118 106.634 189.9 105.879 190.866 105.879C191.831 105.879 192.615 106.634 192.615 107.569C192.615 108.502 191.831 109.26 190.866 109.26ZM199.529 105.879C200.494 105.879 201.276 106.634 201.276 107.569C201.276 108.502 200.494 109.26 199.529 109.26C198.562 109.26 197.782 108.502 197.782 107.569C197.782 106.634 198.562 105.879 199.529 105.879Z" fill="white"/>
<path fill-rule="evenodd" clip-rule="evenodd" d="M206.752 128.528C200.953 128.528 196.25 124.492 196.25 119.513C196.25 114.536 200.953 110.5 206.752 110.5C212.549 110.5 217.25 114.536 217.25 119.513C217.25 122.434 215.633 125.028 213.129 126.675L213.032 126.737L214.047 130L210.252 128.014C210.252 128.014 210.133 128.05 210.073 128.066C209.031 128.366 207.912 128.528 206.752 128.528ZM201.622 116.408C201.622 115.601 202.284 114.944 203.097 114.944C203.912 114.944 204.573 115.601 204.573 116.408C204.573 117.219 203.912 117.876 203.097 117.876C202.284 117.876 201.622 117.219 201.622 116.408ZM208.93 116.408C208.93 115.601 209.589 114.944 210.404 114.944C211.219 114.944 211.878 115.601 211.878 116.408C211.878 117.219 211.219 117.876 210.404 117.876C209.589 117.876 208.93 117.219 208.93 116.408Z" fill="white"/>
</g>
<defs>
<linearGradient id="paint0_linear_1680_1310" x1="21.982" y1="115.951" x2="27.5208" y2="113.792" gradientUnits="userSpaceOnUse">
<stop stop-color="#9D3137"/>
<stop offset="0.546072" stop-color="#7B010C"/>
<stop offset="1" stop-color="#E50914" stop-opacity="0"/>
</linearGradient>
<linearGradient id="paint1_linear_1680_1310" x1="36.389" y1="119.862" x2="30.7201" y2="122.143" gradientUnits="userSpaceOnUse">
<stop stop-color="#B1060F"/>
<stop offset="0.625007" stop-color="#7B010C"/>
<stop offset="1" stop-color="#B1060F" stop-opacity="0"/>
</linearGradient>
<clipPath id="clip0_1680_1310">
<rect width="21" height="40" fill="white" transform="translate(19 99)"/>
</clipPath>
<clipPath id="clip1_1680_1310">
<rect width="60" height="60" fill="white" transform="translate(82 85)"/>
</clipPath>
<clipPath id="clip2_1680_1310">
<rect width="60" height="60" fill="white" transform="translate(174 85)"/>
</clipPath>
</defs>
</svg>
