<svg xmlns="http://www.w3.org/2000/svg" viewBox="0 0 135 40"><defs><style>.cls-2{fill:#fff}</style><linearGradient id="linear-gradient" x1="21.8" x2="5.02" y1="173.29" y2="156.51" gradientTransform="matrix(1 0 0 -1 0 182)" gradientUnits="userSpaceOnUse"><stop offset="0" stop-color="#00a0ff"/><stop offset=".01" stop-color="#00a1ff"/><stop offset=".26" stop-color="#00beff"/><stop offset=".51" stop-color="#00d2ff"/><stop offset=".76" stop-color="#00dfff"/><stop offset="1" stop-color="#00e3ff"/></linearGradient><linearGradient id="linear-gradient-2" x1="33.83" x2="9.64" y1="162" y2="162" gradientTransform="matrix(1 0 0 -1 0 182)" gradientUnits="userSpaceOnUse"><stop offset="0" stop-color="#ffe000"/><stop offset=".41" stop-color="#ffbd00"/><stop offset=".78" stop-color="orange"/><stop offset="1" stop-color="#ff9c00"/></linearGradient><linearGradient id="linear-gradient-3" x1="24.83" x2="2.07" y1="159.7" y2="136.95" gradientTransform="matrix(1 0 0 -1 0 182)" gradientUnits="userSpaceOnUse"><stop offset="0" stop-color="#ff3a44"/><stop offset="1" stop-color="#c31162"/></linearGradient><linearGradient id="linear-gradient-4" x1="7.3" x2="17.46" y1="181.82" y2="171.66" gradientTransform="matrix(1 0 0 -1 0 182)" gradientUnits="userSpaceOnUse"><stop offset="0" stop-color="#32a071"/><stop offset=".07" stop-color="#2da771"/><stop offset=".48" stop-color="#15cf74"/><stop offset=".8" stop-color="#06e775"/><stop offset="1" stop-color="#00f076"/></linearGradient></defs><g id="Layer_2" data-name="Layer 2"><g id="artwork"><rect width="135" height="40" rx="5" ry="5"/><path fill="#a6a6a6" d="M130 .8a4.2 4.2 0 0 1 4.2 4.2v30a4.2 4.2 0 0 1-4.2 4.2H5A4.2 4.2 0 0 1 .8 35V5A4.2 4.2 0 0 1 5 .8h125m0-.8H5a5 5 0 0 0-5 5v30a5 5 0 0 0 5 5h125a5 5 0 0 0 5-5V5a5 5 0 0 0-5-5z"/><path d="M68.14 21.75A4.26 4.26 0 1 0 72.41 26a4.19 4.19 0 0 0-4.27-4.25zm0 6.83a2.58 2.58 0 1 1 2.4-2.58 2.46 2.46 0 0 1-2.4 2.58zm-9.32-6.83A4.26 4.26 0 1 0 63.09 26a4.19 4.19 0 0 0-4.27-4.25zm0 6.83a2.58 2.58 0 1 1 2.4-2.58 2.46 2.46 0 0 1-2.4 2.58zm-11.08-5.52v1.8h4.32a3.77 3.77 0 0 1-1 2.27 4.42 4.42 0 0 1-3.34 1.32 4.8 4.8 0 0 1 0-9.6A4.64 4.64 0 0 1 51 20.14l1.27-1.27a6.3 6.3 0 0 0-4.53-1.82 6.61 6.61 0 1 0 0 13.21 6.07 6.07 0 0 0 4.61-1.85 6 6 0 0 0 1.56-4.23 6.27 6.27 0 0 0-.09-1.12zm45.31 1.4a4 4 0 0 0-3.64-2.71 4 4 0 0 0-4 4.25 4.23 4.23 0 0 0 7.76 2.37l-1.45-1a2.41 2.41 0 0 1-2.09 1.17 2.15 2.15 0 0 1-2.06-1.29l5.69-2.35zm-5.8 1.42a2.33 2.33 0 0 1 2.23-2.48 1.64 1.64 0 0 1 1.57.9zM82.63 30h1.87V17.5h-1.87zm-3.06-7.3h-.07a2.94 2.94 0 0 0-2.24-.95 4.26 4.26 0 0 0 0 8.51 2.88 2.88 0 0 0 2.24-1h.07v.61c0 1.63-.87 2.5-2.27 2.5a2.36 2.36 0 0 1-2.15-1.51l-1.62.67a4 4 0 0 0 3.77 2.52c2.19 0 4-1.29 4-4.43V22h-1.73zm-2.15 5.88a2.58 2.58 0 0 1 0-5.15A2.39 2.39 0 0 1 79.7 26a2.38 2.38 0 0 1-2.28 2.58zm24.39-11.08h-4.48V30h1.87v-4.74h2.61a3.89 3.89 0 1 0 0-7.76zm0 6H99.2v-4.26h2.65a2.14 2.14 0 1 1 0 4.28zm11.54-1.79a3.49 3.49 0 0 0-3.33 1.91l1.65.69a1.78 1.78 0 0 1 1.71-.91 1.8 1.8 0 0 1 2 1.61v.12a4.18 4.18 0 0 0-1.95-.48c-1.78 0-3.6 1-3.6 2.82a2.89 2.89 0 0 0 3.11 2.75 2.65 2.65 0 0 0 2.38-1.22h.06v1h1.8v-4.81c0-2.19-1.66-3.46-3.79-3.46zm-.23 6.85c-.61 0-1.46-.31-1.46-1.06 0-1 1.06-1.34 2-1.34a3.32 3.32 0 0 1 1.7.42 2.26 2.26 0 0 1-2.2 2zM123.74 22l-2.14 5.42h-.06L119.32 22h-2l3.33 7.58-1.9 4.21h2L125.82 22zm-16.8 8h1.86V17.5h-1.86zM42.17 13h-.77V7h2.05a1.88 1.88 0 0 1 1.32.51 1.64 1.64 0 0 1 .55 1.28 1.64 1.64 0 0 1-.55 1.27 1.88 1.88 0 0 1-1.32.51h-1.28zm0-3.17h1.29a1 1 0 0 0 .78-.32 1 1 0 0 0 0-1.45 1 1 0 0 0-.78-.32h-1.29zm9 2.39a3.11 3.11 0 0 1-4.4 0 3 3 0 0 1-.85-2.22 3 3 0 0 1 .88-2.22 3.11 3.11 0 0 1 4.4 0 3.08 3.08 0 0 1 .89 2.22 3 3 0 0 1-.89 2.22zm-3.83-.5a2.22 2.22 0 0 0 1.66.68 2.19 2.19 0 0 0 1.63-.68A2.32 2.32 0 0 0 51.3 10a2.32 2.32 0 0 0-.67-1.72A2.19 2.19 0 0 0 49 7.6a2.22 2.22 0 0 0-1.63.68 2.35 2.35 0 0 0-.66 1.72 2.35 2.35 0 0 0 .66 1.72zM53.17 13V7h2.17a1.81 1.81 0 0 1 1.22.46 1.55 1.55 0 0 1 .51 1.17 1.31 1.31 0 0 1-.22.76 1.35 1.35 0 0 1-.59.49 1.47 1.47 0 0 1 .73.52 1.34 1.34 0 0 1 .28.85 1.57 1.57 0 0 1-.54 1.22 1.81 1.81 0 0 1-1.27.49zm.77-3.43h1.4a.89.89 0 0 0 .7-.29.93.93 0 0 0 .26-.63.92.92 0 0 0-.25-.65.87.87 0 0 0-.68-.28h-1.43zm0 2.69h1.55a.9.9 0 0 0 .72-.31 1 1 0 0 0 .28-.68 1 1 0 0 0-.29-.67 1 1 0 0 0-.74-.31h-1.52zm4.37.74V7h.77v6zM64 7.74h-2.77v1.9h2.46v.72h-2.46v1.9H64V13h-3.5V7H64zM65.17 13V7h2a1.88 1.88 0 0 1 1.32.51 1.64 1.64 0 0 1 .56 1.28 1.71 1.71 0 0 1-.41 1.11 1.76 1.76 0 0 1-1 .6l1.68 2.5h-.91l-1.62-2.43h-.85V13zm.77-3.15h1.24a1.13 1.13 0 0 0 .79-.3 1 1 0 0 0 .33-.76 1.09 1.09 0 0 0-.3-.73 1 1 0 0 0-.78-.32h-1.28zM69.85 13v-.8L73 7.74h-3V7h4v.8l-3.19 4.46H74V13zm6.9 0v-.8l3.19-4.46h-3.06V7h4v.8l-3.19 4.46h3.22V13z" class="cls-2"/><path fill="url(#linear-gradient)" d="M10.44 7.54a2 2 0 0 0-.44 1.4v22.12a1.94 1.94 0 0 0 .47 1.4l.07.08L22.9 20.15v-.3L10.51 7.47z"/><path fill="url(#linear-gradient-2)" d="M27 24.28l-4.1-4.13v-.3l4.1-4.13.09.06L32 18.56c1.4.79 1.4 2.09 0 2.89l-4.89 2.78z"/><path fill="url(#linear-gradient-3)" d="M27.12 24.23L22.9 20 10.44 32.46a1.62 1.62 0 0 0 2.07.07l14.61-8.3"/><path fill="url(#linear-gradient-4)" d="M27.12 15.78l-14.61-8.3a1.61 1.61 0 0 0-2.07.06L22.9 20z"/></g></g></svg>