<svg xmlns="http://www.w3.org/2000/svg" viewBox="0 0 119.66 40"><defs><style>.cls-2{fill:#fff}</style></defs><g id="Layer_2" data-name="Layer 2"><g id="livetype"><path fill="#b7b7b7" d="M110.13 0H7.52a13.51 13.51 0 0 0-2 .18 6.74 6.74 0 0 0-1.9.63A6.3 6.3 0 0 0 2 2 6.07 6.07 0 0 0 .82 3.62a6.74 6.74 0 0 0-.63 1.9 12.18 12.18 0 0 0-.17 2V32.48a12.18 12.18 0 0 0 .17 2 6.8 6.8 0 0 0 .63 1.91A6.19 6.19 0 0 0 2 38a6.07 6.07 0 0 0 1.62 1.18 6.74 6.74 0 0 0 1.9.63 13.51 13.51 0 0 0 2 .18h104.62a13.39 13.39 0 0 0 2-.18 6.91 6.91 0 0 0 1.91-.63 6.24 6.24 0 0 0 1.62-1.18 6.68 6.68 0 0 0 1.18-1.61 7.12 7.12 0 0 0 .62-1.91 13.39 13.39 0 0 0 .18-2V8.44v-.92a13.39 13.39 0 0 0-.18-2 7.05 7.05 0 0 0-.62-1.9A6.54 6.54 0 0 0 117.67 2a6.47 6.47 0 0 0-1.62-1.18 6.91 6.91 0 0 0-1.91-.63 13.39 13.39 0 0 0-2-.18h-2z"/><path d="M8.44 39.13h-.9A11.52 11.52 0 0 1 5.67 39 5.89 5.89 0 0 1 4 38.4a5.16 5.16 0 0 1-1.39-1 5.19 5.19 0 0 1-1-1.4 5.79 5.79 0 0 1-.55-1.66 12.1 12.1 0 0 1-.16-1.87V8.44v-.89a12 12 0 0 1 .16-1.87A5.69 5.69 0 0 1 1.6 4a5.06 5.06 0 0 1 1-1.4 5.52 5.52 0 0 1 1.4-1 5.79 5.79 0 0 1 1.66-.55A12.1 12.1 0 0 1 7.54.89h104.59a12.08 12.08 0 0 1 1.86.16 6 6 0 0 1 1.67.55 5.49 5.49 0 0 1 2.41 2.4 5.92 5.92 0 0 1 .54 1.65 13.68 13.68 0 0 1 .17 1.88V32.47a13.12 13.12 0 0 1-.17 1.85 5.85 5.85 0 0 1-.54 1.67 5.42 5.42 0 0 1-1 1.39 5.19 5.19 0 0 1-1.4 1A5.59 5.59 0 0 1 114 39a11.52 11.52 0 0 1-1.87.16H8.44z"/><path id="_Compound_Path_" d="M27.69 24.7a11.09 11.09 0 0 1-1.52 3.09c-.89 1.34-1.83 2.65-3.32 2.67s-1.93-.85-3.59-.85-2.19.83-3.58.88-2.5-1.42-3.43-2.75C10.4 25 9 20.11 10.89 16.77A5.31 5.31 0 0 1 15.36 14c1.42 0 2.74 1 3.61 1s2.49-1.19 4.16-1a5.08 5.08 0 0 1 4 2.16 4.92 4.92 0 0 0-2.36 4.15 4.77 4.77 0 0 0 2.92 4.39zM22 12.21a4.89 4.89 0 0 0 1.11-3.49 5 5 0 0 0-3.21 1.66 4.65 4.65 0 0 0-1.14 3.36A4.11 4.11 0 0 0 22 12.21z" class="cls-2" data-name="&lt;Compound Path&gt;"/><path d="M42.3 27.14h-4.73l-1.14 3.36h-2l4.48-12.42H41l4.48 12.42h-2zm-4.24-1.55h3.75L40 20.14h-.05zm17.1.38c0 2.81-1.51 4.62-3.78 4.62A3.09 3.09 0 0 1 48.53 29v4.48h-1.9v-12h1.8V23a3.22 3.22 0 0 1 2.89-1.6c2.33-.05 3.84 1.76 3.84 4.6zm-1.91 0c0-1.83-1-3-2.39-3s-2.38 1.23-2.38 3 1 3.05 2.38 3.05 2.39-1.2 2.39-3.02zm11.87 0c0 2.81-1.5 4.62-3.77 4.62A3.08 3.08 0 0 1 58.5 29v4.48h-1.9v-12h1.8V23a3.22 3.22 0 0 1 2.88-1.6c2.33-.05 3.84 1.76 3.84 4.6zm-1.91 0c0-1.83-.94-3-2.39-3s-2.37 1.23-2.37 3S59.4 29 60.82 29s2.39-1.18 2.39-3zm8.5 1.03c.14 1.23 1.33 2 3 2s2.69-.81 2.69-1.92-.68-1.54-2.29-1.94l-1.61-.39c-2.28-.55-3.33-1.61-3.33-3.34 0-2.15 1.86-3.62 4.51-3.62s4.43 1.47 4.49 3.62h-1.91c-.11-1.24-1.14-2-2.63-2s-2.52.75-2.52 1.86c0 .87.65 1.39 2.25 1.79l1.37.33c2.55.6 3.61 1.63 3.61 3.44 0 2.33-1.86 3.78-4.8 3.78-2.75 0-4.61-1.42-4.73-3.66zm11.64-7.7v2.14h1.72v1.47h-1.72v5c0 .77.34 1.13 1.1 1.13a5 5 0 0 0 .61 0v1.46a5.21 5.21 0 0 1-1 .09c-1.84 0-2.55-.69-2.55-2.45v-5.23h-1.35v-1.47h1.32V19.3zm2.71 6.7c0-2.85 1.68-4.64 4.3-4.64s4.29 1.79 4.29 4.64-1.65 4.61-4.29 4.61-4.3-1.78-4.3-4.61zm6.7 0c0-1.95-.9-3.11-2.4-3.11S88 24 88 26s.89 3.11 2.4 3.11 2.36-1.18 2.36-3.11zm3.43-4.53H98V23a2.16 2.16 0 0 1 2.18-1.63 2.58 2.58 0 0 1 .64.07v1.74A2.37 2.37 0 0 0 100 23a1.88 1.88 0 0 0-2 2.13v5.37h-1.81zm13.19 6.4c-.25 1.64-1.85 2.77-3.89 2.77-2.64 0-4.27-1.77-4.27-4.6s1.64-4.68 4.19-4.68 4.08 1.72 4.08 4.47v.63h-6.4v.12a2.36 2.36 0 0 0 2.44 2.56 2.05 2.05 0 0 0 2.09-1.27zm-6.28-2.71h4.53a2.17 2.17 0 0 0-2.22-2.29 2.3 2.3 0 0 0-2.31 2.26z" class="cls-2"/><path id="_Compound_Path_2" d="M38 8.73a1.89 1.89 0 0 1 2 2 1.9 1.9 0 0 1-2 2h-1.4v2h-.93v-6zm-1.4 3.14h1.16c.8 0 1.27-.41 1.27-1.15s-.45-1.17-1.27-1.17H36.6zm4.24.57a2.13 2.13 0 1 1 4.25 0 2.13 2.13 0 1 1-4.25 0zm3.33 0c0-1-.43-1.54-1.2-1.54s-1.21.57-1.21 1.54S42.19 14 43 14s1.17-.58 1.17-1.56zM47.24 14h-.06v.71h-.86V8.44h.89v2.47h.07a1.5 1.5 0 0 1 1.39-.79c1.14 0 1.86.89 1.86 2.32s-.73 2.33-1.86 2.33a1.58 1.58 0 0 1-1.43-.77zm-.05-1.54c0 .94.47 1.52 1.22 1.52s1.2-.57 1.2-1.53-.45-1.52-1.2-1.52-1.21.58-1.22 1.52zm4.41-3.6a.55.55 0 0 1 .58-.54.54.54 0 1 1 0 1.08.55.55 0 0 1-.58-.54zm.14 1.33h.88v4.51h-.88zm6.12 3.29a1.82 1.82 0 0 1-2 1.3 2 2 0 0 1-2.08-2.32 2.08 2.08 0 0 1 2.08-2.35c1.25 0 2 .85 2 2.27v.31h-3.12v.05a1.19 1.19 0 0 0 1.2 1.26 1.09 1.09 0 0 0 1.06-.52zM54.74 12H57a1.09 1.09 0 0 0-1.11-1.17A1.16 1.16 0 0 0 54.74 12zm4.37-1.84H60v.7a1.22 1.22 0 0 1 1.22-.77 1.51 1.51 0 0 1 .39 0V11a2.74 2.74 0 0 0-.49 0A1.05 1.05 0 0 0 60 12v2.7h-.89zm3.41 3.9L65 11h-2.46v-.76h3.52v.65l-2.42 3V14h2.45v.75h-3.57zm11.95.61h-.92l-.93-3.32h-.07l-.93 3.32h-.91l-1.24-4.51h.9l.8 3.44h.07l.93-3.44H73l.92 3.44H74l.8-3.44h.89z" class="cls-2" data-name="&lt;Compound Path&gt;"/></g></g></svg>