<svg width="512" height="512" viewBox="0 0 512 512" fill="none" xmlns="http://www.w3.org/2000/svg">
<path d="M482.722 103.198c13.854 0 25.126 11.27 25.126 25.126v257.9c0 13.854-11.27 25.126-25.126 25.126H30.99c-13.854 0-25.126-11.27-25.126-25.126v-257.9c0-13.854 11.27-25.126 25.126-25.126h451.732m0-5H30.99c-16.638 0-30.126 13.488-30.126 30.126v257.9c0 16.64 13.488 30.126 30.126 30.126h451.732c16.64 0 30.126-13.487 30.126-30.126v-257.9c0-16.638-13.488-30.126-30.126-30.126z" fill="#E30613"/><g clip-rule="evenodd" fill-rule="evenodd"><path d="M257.568 355.172c22.646 20.867 53.06 33.522 86.14 33.522 71.037 0 128.538-57.94 128.538-129.207 0-71.482-57.5-129.424-128.538-129.424-33.08 0-63.493 12.653-86.14 33.522-25.972 23.752-42.4 57.943-42.4 95.902 0 37.963 16.43 72.155 42.4 95.685z" fill="#FAB31E"/><path d="M299.086 245.725c-.444-4.662-1.33-9.102-2.223-13.764h-78.586c.888-4.66 2.217-9.102 3.55-13.542h71.265c-1.558-4.66-3.333-9.323-5.332-13.763h-60.382c2.22-4.66 4.66-9.323 7.326-13.763h45.51c-2.887-4.662-6.215-9.325-9.77-13.542H244.47c3.996-4.883 8.438-9.545 13.097-13.763-22.863-20.647-53.057-33.522-86.356-33.522-70.816 0-128.537 57.942-128.537 129.424 0 71.265 57.72 129.206 128.538 129.206 33.3 0 63.494-12.655 86.357-33.522 4.665-4.22 8.882-8.66 12.878-13.544H244.47c-3.552-4.44-6.66-8.88-9.767-13.763h45.51c2.885-4.44 5.327-8.88 7.546-13.764h-60.383c-2-4.44-3.996-8.88-5.552-13.544h71.266c1.554-4.44 2.662-9.1 3.772-13.764.892-4.44 1.778-9.104 2.223-13.764.443-4.44.666-8.88.666-13.544.002-4.66-.22-9.323-.664-13.763z" fill="#E40520"/><path d="M455.15 289.46c0-2.44 1.774-4.216 3.996-4.216 2.44 0 4.217 1.775 4.217 4.215 0 2.22-1.776 4.22-4.217 4.22-2.22 0-3.996-2-3.996-4.22zm3.996 3.106c1.775 0 3.33-1.33 3.33-3.107 0-1.778-1.555-3.11-3.33-3.11-1.554 0-3.108 1.332-3.108 3.11 0 1.775 1.555 3.106 3.108 3.106zm-.444-1.33h-.888v-3.555h2.442c.444.227.444.67.444 1.114 0 .22-.22.664-.666.89l.888 1.55h-1.11l-.443-1.33h-.667v1.33-1.995h.444c.222 0 .446 0 .446-.225.22 0 .22-.22.22-.443 0 0 0-.22-.22-.22 0-.227-.225 0-.446 0h-.444v2.882z" fill="#FFF"/><path d="M213.835 296.786c-4.216 1.108-7.324 1.775-10.432 1.775-6.662 0-10.658-4.22-10.658-11.766 0-1.55.222-3.108.444-4.884l.887-5.108.667-4.215 5.994-36.41h13.32l-1.556 7.993h8.438l-1.998 13.32h-8.435l-3.552 21.756c-.225 1.113-.225 1.775-.225 2.22 0 2.89 1.332 3.996 4.665 3.996 1.55 0 2.883-.22 4.215-.444l-1.775 11.768zM256.905 296.343c-4.883 1.332-9.322 1.996-14.21 1.996-15.095 0-23.752-7.993-23.752-23.757 0-18.423 10.212-31.744 24.418-31.744 11.326 0 18.65 7.55 18.65 19.312 0 3.995-.443 7.772-1.553 13.1h-27.75c-.225.888-.225 1.332-.225 1.775 0 6.216 4.22 9.322 12.21 9.322 5.108 0 9.548-1.106 14.432-3.327l-2.22 13.32zm-8.216-31.747v-2.664c0-4.44-2.44-6.883-6.66-6.883-4.44 0-7.55 3.33-8.88 9.546h15.54zM107.276 297.45H93.512l7.992-50.394-17.982 50.394h-9.546l-1.11-50.17-8.436 50.17H50.888l10.878-65.49H81.97l.442 40.403 13.54-40.402h22.2l-10.876 65.49M140.8 273.694c-1.334-.22-1.777-.22-2.665-.22-7.994 0-11.99 3.11-11.99 7.992 0 3.333 2 5.553 5.107 5.553 6.66 0 9.325-5.553 9.547-13.326zm11.098 23.756H139.91l.223-5.548c-3.11 4.216-7.327 6.437-14.652 6.437-6.66 0-12.432-5.992-12.432-14.653 0-2.438.446-4.658 1.11-6.884 2.22-8.212 10.434-13.318 23.09-13.538 1.55 0 3.993 0 6.214.22.444-1.776.444-2.44.444-3.553 0-3.552-2.886-4.658-9.325-4.658-3.995 0-8.435.662-11.543 1.775l-1.996.442-.887.22 1.997-11.987c6.438-1.995 11.1-2.886 16.207-2.886 11.987 0 18.425 5.55 18.425 15.76 0 2.664.222 4.665-.666 10.436l-3.108 19.09-.444 3.333-.222 2.664-.222 1.775-.222 1.55zM323.948 244.617c3.995 0 7.548 1.108 12.43 3.552l2.444-14.21c-1.33-.667-1.776-.667-3.553-1.332l-5.552-1.555c-1.775-.444-3.994-.666-6.438-.666-6.88 0-10.876.222-15.094 2.665-2.22 1.554-5.106 3.55-8.214 7.104l-1.776-.444-14.21 9.99.667-5.55h-14.65l-8.658 53.28h13.985l5.105-28.64s1.998-3.996 2.886-5.327c2.664-3.328 4.884-3.328 7.772-3.328h1.11c-.446 3.108-.668 6.435-.668 10.212 0 17.312 9.77 28.192 24.865 28.192 3.773 0 7.103-.443 12.21-1.775l2.44-15.095c-4.44 2.44-8.437 3.553-11.766 3.553-8.213 0-13.096-6.216-13.096-15.99.002-14.427 7.327-24.638 17.76-24.638zM441.83 231.96l-3.106 18.648c-3.33-5.103-7.325-7.548-12.653-7.548-7.328 0-14.21 4.22-18.427 12.213v-.225l-8.88-5.33.888-5.548H384.78l-8.436 53.28h13.765l4.66-28.64s3.552-3.996 4.44-5.327c2.22-2.663 4.44-3.11 6.216-3.328-1.554 4.44-2.44 9.77-2.44 15.76 0 13.323 6.88 22.202 17.094 22.202 5.106 0 9.102-1.775 12.875-5.996l-.665 5.33h13.097l10.655-65.49h-14.21zm-17.09 52.84c-4.664 0-7.106-3.552-7.106-10.437 0-10.436 4.437-17.983 10.877-17.983 4.887 0 7.328 3.776 7.328 10.437 0 10.655-4.44 17.983-11.1 17.983zM360.58 273.694c-1.334-.22-1.778-.22-2.665-.22-7.992 0-11.988 3.11-11.988 7.992 0 3.333 2 5.553 5.106 5.553 6.66 0 9.324-5.553 9.546-13.326zm11.098 23.756h-12.21l.445-5.548c-3.108 4.216-7.326 6.437-14.65 6.437-6.883 0-12.88-5.773-12.88-14.653 0-12.655 9.55-20.422 24.644-20.422 1.554 0 3.996 0 5.994.22.444-1.776.667-2.44.667-3.553 0-3.552-2.885-4.658-9.546-4.658-3.772 0-8.435.662-11.54 1.775l-1.777.442-.89.22 2-11.987c6.437-1.995 11.098-2.886 16.204-2.886 11.987 0 18.205 5.55 18.205 15.76 0 2.664.44 4.665-.668 10.436l-2.887 19.09-.443 3.333-.444 2.664-.222 1.775v1.55zM180.98 255.492c2.664 0 6.438.225 10.434.888l1.998-12.43c-3.996-.444-9.325-1.11-12.432-1.11-15.54 0-20.647 8.437-20.647 18.204 0 6.437 2.888 11.1 10.435 14.652 5.55 2.663 6.438 3.107 6.438 5.552 0 3.328-2.886 5.328-8.214 5.328-4.218 0-8.213-.67-12.654-2.22l-1.554 12.206.222.224 2.664.444c.887.22 2 .444 3.553.664 3.33.224 6.216.444 7.99.444 15.542 0 21.98-5.99 21.98-17.76 0-7.33-3.553-11.768-10.435-14.876-5.994-2.663-6.66-3.107-6.66-5.547 0-2.443 2.664-4.663 6.882-4.663z" fill="#06326E"/><path d="M342.6 229.742l-2.444 14.207c-4.886-2.442-8.438-3.553-12.434-3.553-10.433 0-17.76 10.212-17.76 24.644 0 9.988 4.885 15.983 13.098 15.983 3.33 0 7.326-1.106 11.766-3.332l-2.44 14.877c-5.107 1.332-8.437 2-12.21 2-15.096 0-24.42-10.88-24.42-28.42 0-23.308 12.876-39.734 31.3-39.734 2.442 0 4.663.222 6.44.666l5.55 1.33c1.776.666 2.218.888 3.553 1.332zM297.755 239.51h-1.333c-4.665 0-7.327 2.22-11.546 8.66l1.33-8.217h-12.65l-8.658 53.282h13.984c5.106-32.635 6.438-38.187 13.098-38.187h.888c1.332-6.436 3.108-11.1 5.33-15.318l-.443-.22zM217.387 292.566c-3.77 1.332-6.878 1.775-9.987 1.775-7.105 0-11.102-3.994-11.102-11.76 0-1.333.222-3.114.444-4.665l.89-5.328.664-4.22 5.997-36.407h13.763l-1.557 7.992h7.103l-1.775 13.1h-7.104l-3.77 22.198c-.225.89-.225 1.552-.225 2.22 0 2.665 1.33 3.777 4.663 3.777 1.55 0 2.886 0 3.774-.444l-1.78 11.763zM163.887 256.824c0 6.66 3.107 11.323 10.433 14.876 5.773 2.663 6.66 3.55 6.66 5.77 0 3.333-2.44 4.885-7.99 4.885-4.22 0-7.993-.664-12.433-1.995l-2 12.206.667.225 2.443.445c.887.22 1.998.444 3.774.444 3.11.442 5.772.442 7.55.442 14.65 0 21.533-5.55 21.533-17.76 0-7.328-2.886-11.548-9.768-14.875-5.994-2.663-6.66-3.333-6.66-5.77 0-2.89 2.442-4.222 6.882-4.222 2.663 0 6.438.225 9.99.67l1.997-12.213c-3.552-.666-9.1-1.11-12.21-1.11-15.54 0-21.09 8.214-20.867 17.982zM448.935 293.235h-13.097l.665-5.11c-3.773 3.997-7.77 5.773-12.875 5.773-10.215 0-16.874-8.654-16.874-21.98 0-17.757 10.435-32.853 22.646-32.853 5.55 0 9.546 2.442 13.32 7.328l3.107-18.652h13.766l-10.658 65.495zm-20.424-12.43c6.44 0 10.88-7.555 10.88-17.983 0-6.886-2.443-10.437-7.325-10.437-6.217 0-10.88 7.327-10.88 17.76 0 7.106 2.443 10.66 7.326 10.66zM260.013 292.122c-4.883 1.558-9.322 2.22-14.432 2.22-15.537 0-23.53-8.21-23.53-23.974 0-18.203 10.212-31.748 24.2-31.748 11.543 0 18.87 7.548 18.87 19.315 0 3.996-.446 7.768-1.777 13.32h-27.53c-.22.663-.22 1.107-.22 1.55 0 6.223 4.217 9.33 12.21 9.33 5.106 0 9.546-.888 14.43-3.332l-2.22 13.32zm-7.772-31.747v-2.663c0-4.44-2.438-6.88-6.66-6.88-4.438 0-7.546 3.33-8.878 9.543h15.54zM110.828 293.235H97.065l7.99-50.396-17.98 50.395h-9.548l-1.11-49.953-8.436 49.953H55.107l10.878-65.494h19.98l.666 40.627 13.32-40.626h21.756l-10.878 65.495M145.238 269.48c-1.332 0-1.998-.226-3.107-.226-7.77 0-11.766 2.89-11.766 8.217 0 3.333 1.776 5.33 4.884 5.33 5.773 0 9.77-5.328 9.99-13.32zm10.212 23.755h-11.544l.222-5.554c-3.552 4.44-8.215 6.442-14.652 6.442-7.547 0-12.653-5.77-12.653-14.433 0-13.1 8.88-20.647 24.418-20.647 1.555 0 3.555.224 5.774.443.444-1.775.444-2.438.444-3.327 0-3.552-2.44-4.884-8.88-4.884-3.996 0-8.436.444-11.543 1.332l-1.998.663-1.332.225 1.998-11.988c6.88-2 11.545-2.666 16.65-2.666 11.987 0 18.426 5.33 18.426 15.543 0 2.664-.223 4.66-1.11 10.655l-3.11 18.872-.444 3.327-.222 2.664-.22 2-.224 1.335zM365.02 269.48c-1.556 0-2.22-.226-3.11-.226-7.99 0-11.986 2.89-11.986 8.217 0 3.333 1.998 5.33 5.106 5.33 5.55 0 9.767-5.328 9.99-13.32zm10.21 23.755h-11.544l.222-5.554c-3.55 4.44-8.213 6.442-14.65 6.442-7.548 0-12.653-5.77-12.653-14.433 0-13.1 8.88-20.647 24.418-20.647 1.554 0 3.552.224 5.55.443.444-1.775.666-2.438.666-3.327 0-3.552-2.442-4.884-8.88-4.884-3.996 0-8.657.444-11.767 1.332l-1.775.663-1.332.225 1.998-11.988c6.882-2 11.543-2.666 16.648-2.666 11.988 0 18.206 5.33 18.206 15.543 0 2.664 0 4.66-1.113 10.655l-2.883 18.872-.446 3.327-.443 2.664-.223 2v1.335zM412.526 239.51h-1.332c-4.662 0-7.325 2.22-11.544 8.66l1.33-8.217h-12.65l-8.438 53.282h13.765c5.106-32.635 6.438-38.187 13.098-38.187h.89c1.33-6.436 3.106-11.1 5.326-15.318l-.444-.22z" fill="#FFF"/></g>
</svg>