<svg width="512" height="512" viewBox="0 0 512 512" fill="none" xmlns="http://www.w3.org/2000/svg">
<path d="M482.7 103.2c13.9 0 25.1 11.3 25.1 25.1v257.9c0 13.9-11.3 25.1-25.1 25.1H31c-13.9 0-25.1-11.3-25.1-25.1V128.3c0-13.9 11.3-25.1 25.1-25.1h451.7m0-5H31C14.4 98.2.9 111.7.9 128.3v257.9c0 16.6 13.5 30.1 30.1 30.1h451.7c16.6 0 30.1-13.5 30.1-30.1V128.3c0-16.6-13.4-30.1-30.1-30.1z" fill="#8DC640"/><path d="M421.6 260.4c-2.9 1.7-6.3 2.5-9.8 2.3h-4.3l3.3-17.9h3.2c2.8-.2 5.6.4 8.1 1.7 2.1 1.4 3.3 3.8 3.1 6.2.2 3.1-1.2 5.9-3.6 7.7m-258.4 22.4h-33.5l2.2-11.7h21l2.4-13.2h-20.8l2-11.6h33.4l-6.7 36.5zm276.4-46.6c-4.9-3.2-12.4-5-22.2-5h-25.6l-9.5 51.7h-33.5l2.2-11.7h20.2l2.4-13.2h-20.2l2.2-11.7h20.8l2.8-15.1h-42.3l-9 49h-15.5l9.1-49h-22.1l-9 49h-15.1l9.1-49h-22.1l-9.5 51.7h-33.9l2.1-11.7h20.3l2.4-13.1h-20.2l2.2-11.7h21l2.7-15.2H117.7l-7.5 41-14.9-41h-23L60 298.1h21.9l7.5-42.1 14.5 42.1h78.4l9.5-51.7h12.3l-9.5 51.7H401l5.9-32.6 9.7 32.6h21.9l-10-26.6 2.3-.5c4.6-.8 8.8-3.3 11.7-6.9 2.9-3.9 4.3-8.6 4.1-13.5.4-5.7-2.3-11.1-7-14.4M457.7 290.2l3-.2c.5 0 1-.1 1.5-.3.3-.1.6-.4.8-.7.2-.3.2-.6.2-.9 0-.5-.2-.9-.6-1.2-.5-.3-1.1-.5-1.7-.4l-3.3.2.1 3.5zm-1.1 5.9l-.5-10.5 4.7-.2c.7-.1 1.4 0 2.1.2.5.2.9.5 1.2.9.3.5.5 1 .5 1.6 0 .7-.2 1.4-.7 1.9-.6.6-1.3 1-2.2 1.1.3.1.6.3.9.5.5.4.9.8 1.2 1.3l2 2.8-1.7.1-1.5-2.1c-.4-.6-.8-1.1-1.1-1.4-.2-.3-.5-.5-.7-.7-.2-.1-.4-.2-.6-.2H457.8l.2 4.7h-1.4z" fill="#8DC640"/><path d="M452 291c-.2-4.5 3.2-8.3 7.7-8.6 4.5-.2 8.3 3.2 8.6 7.7v.4c-.2 4.5-3.9 8-8.4 7.9-4.2-.1-7.6-3.3-7.9-7.4m7.6-10.2c-5.4.3-9.6 4.9-9.3 10.4.3 5.4 4.9 9.6 10.4 9.3 5.4-.3 9.5-4.9 9.3-10.3-.3-5.5-4.9-9.7-10.4-9.4" fill="#8DC640"/>
</svg>