<svg width="512" height="512" viewBox="0 0 512 512" fill="none" xmlns="http://www.w3.org/2000/svg">
<path d="M481.874 102.698c13.854 0 25.126 11.27 25.126 25.126v257.9c0 13.853-11.27 25.125-25.126 25.125H30.144c-13.855 0-25.127-11.272-25.127-25.127v-257.9c0-13.853 11.27-25.125 25.126-25.125h451.73m0-5H30.144c-16.638 0-30.126 13.488-30.126 30.126v257.9c0 16.64 13.488 30.125 30.126 30.125h451.73c16.64 0 30.127-13.487 30.127-30.127v-257.9c0-16.637-13.487-30.125-30.126-30.125z" fill="#862165"/><path d="M381.904 169.282l35.68-6.385V299.91h-35.68V169.282zm52.115 0V299.91h35.716V162.897l-35.717 6.385zM331.065 299.91h35.708V199.695h-35.708V299.91zM95.108 213.867c-4.513-.294-14.962-.97-14.962-10.376 0-11.347 15.042-11.347 20.685-11.347 9.92 0 22.768 2.928 31.944 5.673 0 0 5.118 1.804 9.473 3.652l.405.11V170.49l-.554-.163c-10.83-3.787-23.42-7.43-46.763-7.43-40.25 0-54.51 23.444-54.51 43.53 0 11.58 4.962 38.832 51.058 41.976 3.907.24 14.276.838 14.276 10.557 0 8.025-8.49 12.757-22.77 12.757-15.647 0-30.83-3.99-40.05-7.774v32.013c13.806 3.618 29.363 5.427 47.602 5.427 39.353 0 56.98-22.184 56.98-44.17 0-24.93-19.727-41.13-52.814-43.346zm215.832-15.64c-33 1.062-49.753 15.866-49.753 45.298v56.386h36.006v-45.98c0-17.622 2.307-25.18 23.218-25.898v-29.285c-3.518-.75-9.47-.52-9.47-.52zm-96.858 1.354c-.795 2-6.512 18.147-20.34 34.885v-71.568l-36.843 7.28V299.91h36.843v-40.1c10.67 16 15.938 40.1 15.938 40.1h44.134c-4.363-18.148-23.463-51.61-23.463-51.61 17.144-21.73 24.667-44.88 25.864-48.72h-42.132zm134.83-9.498c9.726 0 17.603-7.875 17.603-17.592 0-9.718-7.877-17.604-17.604-17.604-9.71 0-17.587 7.886-17.587 17.604 0 9.717 7.878 17.592 17.588 17.592z" fill="#862165"/><path d="M81.685 367.302v-21.16c0-2.41-.896-4.06-3.308-4.06-1.86 0-3.653 1.163-5.513 2.956v22.264h-10.41v-21.16c0-2.41-.893-4.06-3.307-4.06-1.927 0-3.65 1.163-5.512 2.956v22.264H43.228V333.53h9.168l.757 4.616c3.032-3.098 6.133-5.303 10.477-5.303 4.614 0 7.165 2.273 8.403 5.303 3.037-3.03 6.343-5.303 10.546-5.303 6.268 0 9.578 3.93 9.578 10.474v23.985H81.685zM113.58 367.987c-9.303 0-16.126-6.684-16.126-17.502 0-10.82 6.892-17.643 16.194-17.643 9.372 0 16.266 6.753 16.266 17.572 0 10.817-6.963 17.573-16.334 17.573zm.068-26.6c-3.996 0-6.13 3.513-6.13 9.028 0 5.444 2.2 9.165 6.13 9.165 3.998 0 6.205-3.654 6.205-9.095 0-5.447-2.207-9.098-6.205-9.098zM154.992 367.302v-21.16c0-2.41-.967-4.06-3.445-4.06-2 0-3.862 1.163-5.72 3.022V367.3h-10.41v-33.77h9.167l.758 4.615c3.035-2.958 6.273-5.303 10.547-5.303 6.27 0 9.58 3.93 9.58 10.474V367.3H154.99zM201.434 353.03h-20.262c.55 5.308 3.72 7.375 8.27 7.375 3.722 0 7.374-1.377 11.095-3.51l1.036 7.305c-3.652 2.337-8.133 3.787-13.44 3.787-10.128 0-17.368-5.374-17.368-17.434 0-11.024 6.757-17.71 15.918-17.71 10.34 0 14.956 7.718 14.956 17.502-.002 1.033-.068 2.137-.206 2.685zm-15.025-13.434c-2.897 0-4.962 2.55-5.31 7.718h10.615c-.346-5.1-2.134-7.718-5.306-7.718zM225.394 367.987c-3.03 8.822-7.167 11.854-14.54 11.854-2.07 0-2.962-.205-3.927-.41l-1.31-8.34c1.102.343 2.135.55 4.135.55 2.342 0 4.413-.894 5.513-3.24l.415-1.03-12.27-33.013 11.162-1.315 6.55 21.303 6.2-20.814h10.063l-11.99 34.457zM255.987 367.71c-5.445 0-10.548-.893-14.475-2.41v-46.106l10.403-1.652v19.707c2.138-2.2 5.034-4.406 9.032-4.406 6.887 0 12.127 5.235 12.127 16.674 0 12.545-6.682 18.19-17.087 18.19zm1.653-25.564c-2.2 0-3.997 1.303-5.724 3.242v13.366c1.38.417 2.207.623 3.79.623 4.066 0 6.962-2.48 6.962-9.17 0-5.653-2.064-8.06-5.028-8.06zM293.26 367.987c-9.304 0-16.125-6.684-16.125-17.502 0-10.82 6.895-17.643 16.194-17.643 9.374 0 16.264 6.753 16.264 17.572 0 10.817-6.96 17.573-16.333 17.573zm.07-26.6c-3.995 0-6.134 3.513-6.134 9.028 0 5.444 2.2 9.165 6.133 9.165 3.997 0 6.204-3.654 6.204-9.095 0-5.447-2.207-9.098-6.205-9.098zM329.573 367.987c-9.3 0-16.127-6.684-16.127-17.502 0-10.82 6.892-17.643 16.2-17.643 9.366 0 16.258 6.753 16.258 17.572 0 10.817-6.96 17.573-16.33 17.573zm.074-26.6c-4.002 0-6.137 3.513-6.137 9.028 0 5.444 2.207 9.165 6.137 9.165 3.99 0 6.196-3.654 6.196-9.095 0-5.447-2.204-9.098-6.196-9.098zM371.604 367.783l-9.786-16.194V367.3h-10.404v-48.108l10.404-1.652v29.842l9.024-13.854h11.165l-10.613 15.37 11.032 17.367-10.822 1.516zM413.844 353.03h-20.266c.555 5.308 3.727 7.375 8.266 7.375 3.73 0 7.38-1.377 11.104-3.51l1.025 7.305c-3.646 2.337-8.13 3.787-13.43 3.787-10.135 0-17.37-5.374-17.37-17.434 0-11.024 6.755-17.71 15.918-17.71 10.344 0 14.958 7.718 14.958 17.502 0 1.033-.074 2.137-.204 2.685zm-15.025-13.434c-2.898 0-4.962 2.55-5.31 7.718h10.61c-.344-5.1-2.134-7.718-5.3-7.718zM430.025 348.558v18.744H419.62V333.53h9.1l1.103 6.68c2.064-3.85 4.89-7.02 9.854-7.366l1.73 10.605c-5.038.35-8.828 2.35-11.382 5.108zM457.784 367.852c-5.373 0-10.398-1.514-13.92-3.38l1.242-7.925c4.004 2.48 8.892 4 12.755 4 2.897 0 4.27-.967 4.27-2.554 0-1.722-.963-2.475-5.723-3.65-8.47-2.204-12.06-4.478-12.06-10.82 0-6.274 4.69-10.48 12.954-10.48 4.554 0 8.962.903 12.474 2.486l-1.3 7.92c-3.657-1.995-7.86-3.164-11.102-3.164-2.48 0-3.583.895-3.583 2.206 0 1.38.96 2.132 5.724 3.443 8.96 2.413 12.128 4.687 12.128 10.962 0 7.088-4.897 10.955-13.858 10.955z"/>
</svg>