<svg width="512" height="512" viewBox="0 0 512 512" fill="none" xmlns="http://www.w3.org/2000/svg">
<path d="M482.722 103.198c13.854 0 25.126 11.27 25.126 25.126v257.9c0 13.854-11.27 25.126-25.126 25.126H30.99c-13.854 0-25.126-11.27-25.126-25.126v-257.9c0-13.854 11.27-25.126 25.126-25.126h451.732m0-5H30.99c-16.638 0-30.126 13.488-30.126 30.126v257.9c0 16.64 13.488 30.126 30.126 30.126h451.732c16.64 0 30.126-13.487 30.126-30.126v-257.9c0-16.638-13.488-30.126-30.126-30.126z" fill="#005098"/><path fill="#005098" d="M190.88 321.104l21.65-127.082h34.652l-21.688 127.082H190.88M351.14 197.152c-6.86-2.577-17.616-5.34-31.048-5.34-34.226 0-58.336 17.235-58.55 41.94-.192 18.257 17.21 28.452 30.352 34.528 13.49 6.23 18.023 10.204 17.966 15.767-.097 8.518-10.775 12.403-20.737 12.403-13.857 0-21.222-1.918-32.6-6.667l-4.457-2.016-4.864 28.452c8.082 3.545 23.043 6.617 38.587 6.77 36.416 0 60.04-17.034 60.312-43.422.136-14.447-9.09-25.446-29.07-34.522-12.114-5.882-19.536-9.802-19.46-15.757 0-5.282 6.28-10.93 19.847-10.93 11.317-.18 19.535 2.29 25.91 4.868l3.122 1.468 4.69-27.544zM439.964 194.144h-26.766c-8.295 0-14.496 2.262-18.14 10.538l-51.438 116.47h36.378s5.93-15.66 7.287-19.1c3.974 0 39.305.06 44.363.06 1.027 4.446 4.206 19.04 4.206 19.04h32.152l-28.042-127.008zm-42.716 81.918c2.868-7.326 13.8-35.53 13.8-35.53-.194.34 2.85-7.36 4.593-12.132l2.347 10.96s6.628 30.335 8.022 36.702h-28.762zM161.828 194.114L127.91 280.78l-3.623-17.606c-6.3-20.312-25.97-42.31-47.968-53.317l31.008 111.15 36.65-.05 54.537-126.843h-36.687z"/><path d="M96.456 194.037H40.58l-.425 2.64c43.452 10.524 72.213 35.947 84.133 66.497l-12.133-58.41c-2.093-8.048-8.18-10.446-15.7-10.727z" fill="#F6A500"/>
</svg>
