<svg width="512" height="512" viewBox="0 0 512 512" fill="none" xmlns="http://www.w3.org/2000/svg">
<path d="M481.874 102.698c13.854 0 25.126 11.27 25.126 25.126v257.9c0 13.853-11.27 25.125-25.126 25.125H30.144c-13.855 0-25.127-11.272-25.127-25.127v-257.9c0-13.853 11.27-25.125 25.126-25.125h451.73m0-5H30.144c-16.638 0-30.126 13.488-30.126 30.126v257.9c0 16.64 13.488 30.125 30.126 30.125h451.73c16.64 0 30.127-13.487 30.127-30.127v-257.9c0-16.637-13.487-30.125-30.126-30.125z" fill="#006EB8"/><g fill="#006EB8"><path d="M94.887 201.267c9.027 0 17.577 2.1 25.192 5.835 1.194.567 2.39 1.192 3.583 1.876l-5.29 4.74-7.954-8.223-13.424 11.972-7.974-8.703-25.002 22.542 16.032 17.664-6.3 5.542 15.79 17.694-6.263 5.524 22.56 25.113 13.392-12.33 11.578 13.212c-2.3 1.79-4.81 3.477-7.574 5.035-8.375 4.774-18.052 7.507-28.35 7.507-31.67 0-57.5-25.83-57.5-57.5s25.83-57.5 57.5-57.5z"/><path d="M84.407 255.134L98.08 242.82l12.314 13.675-13.675 12.312M94.132 278.762l13.675-12.312 12.31 13.673-13.674 12.315M74.623 231.784l13.672-12.31 12.31 13.672-13.67 12.31M99.715 225.16l10.254-9.235 9.232 10.256-10.254 9.235M117.938 267.45l10.253-9.234 9.235 10.257-10.254 9.232M126.955 288.162l10.256-9.232 9.234 10.254-10.255 9.232M131.09 240.688l6.835-6.157 6.158 6.84-6.837 6.155M122.353 220.375l6.835-6.155 6.156 6.838-6.837 6.155M139.827 261l6.838-6.154 6.155 6.838-6.837 6.154M109.17 245.778l10.25-9.233 9.235 10.256-10.253 9.235M310.778 236.68l-.32.215-.32-.214c-2.357-2.143-4.933-3-8.146-3-7.396 0-12.22 5.145-12.22 13.184v37.62h7.395v-37.62c0-5.36 3.646-5.79 4.825-5.79.857 0 2.145.214 3.214 1.072 1.073 1.072 1.607 2.573 1.607 4.717v37.62h7.397v-37.62c0-5.36 3.646-5.79 4.82-5.79.86 0 2.147.215 3.218 1.073 1.07 1.072 1.607 2.573 1.607 4.717v37.62h7.394v-37.62c0-4.18-1.283-7.61-3.643-9.97-2.144-2.035-5.146-3.215-8.576-3.215-3.32 0-5.998.967-8.252 3.003zM364.695 251.044c-2.464-2.573-6.54-4.823-12.113-4.823-5.36 0-9.434 2.25-11.896 4.824-3.858 4.18-4.61 10.076-4.61 14.683 0 4.504.752 10.4 4.61 14.58 2.464 2.57 6.537 4.82 11.896 4.82 5.573 0 9.65-2.25 12.113-4.82 3.857-4.18 4.607-10.076 4.607-14.58 0-4.607-.75-10.502-4.607-14.683zm-2.894 16.292c0 3.536 0 7.503-2.68 10.398-1.074 1.07-3.107 2.465-6.54 2.465-3.216 0-5.25-1.396-6.322-2.466-2.682-2.896-2.682-6.862-2.682-10.398v-3.322c0-3.537 0-7.503 2.682-10.29 1.07-1.178 3.106-2.574 6.323-2.574 3.433 0 5.466 1.396 6.54 2.575 2.68 2.786 2.68 6.752 2.68 10.29v3.32zM375.41 246.864l6.22.107v3.323c1.82-1.286 3.43-2.25 5.254-2.894 2.25-.966 3.857-1.18 6.107-1.18 3.218 0 6.54.643 9.22 3.645 2.57 3 3.107 6.54 3.107 9.54v24.973h-6.86v-25.51c0-6.108-3.855-7.718-7.072-7.718-3.218 0-6.538 1.396-9.217 3.86v29.368h-6.757v-37.514zM438.867 277.09c-1.288.645-2.68 1.18-4.394 1.715-2.038.646-3.646.965-5.79.965-3.535 0-6.752-1.178-8.468-3.108-1.286-1.285-2.68-3.856-2.68-8.36v-.964h23.152v-1.714c0-6.003-.215-10.936-3.967-14.9-2.464-2.68-6.217-4.5-10.935-4.5-5.252 0-9.108 2.25-11.466 4.928-3.86 4.396-4.29 10.182-4.29 13.934 0 4.18.645 10.4 4.502 14.687 2.465 2.893 6.86 5.357 13.078 5.357 2.787 0 5.788-.322 8.787-1.5 1.607-.645 3.43-1.5 4.61-2.147l-2.14-4.392zm-21.33-15.54c0-4.29 1.394-6.755 2.47-7.935 1.066-1.177 2.782-2.465 5.678-2.465 1.93 0 3.856.43 5.254 1.824 2.464 2.358 2.464 5.25 2.464 7.825v1.604H417.54l-.002-.854zM477.775 246.97l-14.684 44.162c-.535 1.93-1.928 5.146-3.537 6.965-1.93 2.146-4.5 3.11-7.396 3.11-2.038 0-3.965-.43-5.896-1.5-1.177-.753-2.357-1.5-3.11-2.36l3.22-4.073c.535.54 1.284 1.076 1.93 1.5 1.07.646 2.358.968 3.535.968 2.038 0 3.324-1.07 3.968-1.93.75-.964 1.5-3.214 2.037-4.608l.857-3.002-15.757-39.23h7.394l9.433 23.474c.967 2.248 1.93 5.683 2.146 6.646h.32c1.18-4.503 1.718-6.006 2.682-8.79l6.75-21.33h6.11zM189.337 282.234l.215-.32.322.32c2.464 2.037 4.93 3.002 8.253 3.002 7.394 0 12.22-5.256 12.22-13.186v-37.622h-7.504v37.622c0 5.358-3.645 5.684-4.716 5.684-.965 0-2.25-.11-3.217-1.074-1.072-.963-1.607-2.57-1.607-4.607V234.43H185.8v37.623c0 5.357-3.644 5.682-4.823 5.682-.858 0-2.145-.108-3.11-1.073-1.072-.963-1.607-2.57-1.607-4.608v-37.622h-7.503v37.622c0 4.075 1.286 7.504 3.645 9.86 2.143 2.146 5.252 3.323 8.575 3.323 3.323 0 6.002-1.072 8.36-3.003zM244.753 277.09c-1.177.535-2.57 1.18-4.287 1.715-2.035.646-3.646.965-5.787.965-3.54 0-6.756-1.178-8.473-3.108-1.178-1.285-2.57-3.856-2.57-8.36v-.964h22.937v-1.714c0-6.003-.215-10.936-3.86-14.9-2.463-2.573-6.216-4.395-11.04-4.395-5.036 0-8.895 2.25-11.253 4.822-3.966 4.503-4.286 10.29-4.286 13.934 0 4.18.537 10.4 4.396 14.687 2.572 2.787 6.86 5.357 13.076 5.357 2.787 0 5.68-.43 8.788-1.607 1.606-.537 3.323-1.5 4.503-2.144l-2.144-4.29zm-21.116-15.54c0-4.29 1.286-6.646 2.467-7.935.964-1.07 2.678-2.465 5.572-2.465 1.93 0 3.858.537 5.254 1.93 2.463 2.25 2.463 5.145 2.463 7.824v1.5h-15.756v-.854zM278.41 250.08c-2.682-2.36-6.434-3.753-10.29-3.753-1.717 0-3.536.32-4.824.537-1.07.32-2.466.856-3.643 1.286v-14.685h-6.755v47.696c3.966 2.36 8.684 3.968 14.042 3.968 3.964 0 9.327-.854 13.183-5.896 3.11-4.182 3.753-9.432 3.753-13.72 0-4.073-.32-11.037-5.467-15.433zm-11.578 1.07c2.682 0 5.47.858 7.184 2.682 2.357 2.572 2.357 6.43 2.357 9.753v3.215c0 6.325-1.07 8.897-2.036 10.29-1.072 1.397-3.32 3.11-7.182 3.11-1.395 0-3.11-.43-4.396-.75-.963-.324-2.144-.966-3.106-1.505V253.4"/></g>
</svg>