<svg width="512" height="512" viewBox="0 0 512 512" fill="none" xmlns="http://www.w3.org/2000/svg">
<path d="M482.308 102.53c13.854 0 25.126 11.272 25.126 25.127v257.9c0 13.854-11.27 25.126-25.126 25.126H30.576c-13.854 0-25.126-11.27-25.126-25.126v-257.9c0-13.854 11.27-25.126 25.126-25.126h451.732m0-5H30.576C13.938 97.53.45 111.02.45 127.658v257.9c0 16.64 13.488 30.126 30.126 30.126h451.732c16.64 0 30.126-13.487 30.126-30.126v-257.9c0-16.638-13.488-30.126-30.126-30.126z" fill="#00B5E5"/><g fill="#00AFD8"><path d="M60.117 334.916v-45.39H46.8v-14.048h42.833v14.048H76.316v45.39h-16.2zM97.55 334.916v-59.438h16.93c6.63 0 11.252.305 13.864.915 2.612.608 4.866 1.63 6.76 3.064 2.14 1.623 3.783 3.694 4.933 6.21 1.15 2.52 1.726 5.294 1.726 8.324 0 4.603-1.13 8.345-3.39 11.227-2.26 2.883-5.556 4.797-9.887 5.746l16.2 23.952h-18.31l-13.643-23.264v23.265H97.55zm15.184-31.342h3.004c3.492 0 6.042-.595 7.653-1.787 1.61-1.19 2.417-3.058 2.417-5.604 0-2.978-.75-5.094-2.253-6.353-1.5-1.258-4.026-1.888-7.572-1.888h-3.248v15.632z"/><path d="M143.874 334.916l20.503-59.438h20.3l20.543 59.438H189.1l-3.003-10.637h-23.02l-3.085 10.636h-16.118zm22.695-22.208h16.117l-6.05-19.61c-.188-.594-.445-1.556-.77-2.882-.325-1.325-.744-3.03-1.258-5.115-.353 1.463-.698 2.857-1.036 4.183-.34 1.326-.684 2.6-1.036 3.815l-5.97 19.61zM210.904 334.916v-59.438h15.63l22.45 30.572c.435.623 1.146 1.874 2.133 3.755s2.078 4.122 3.27 6.72c-.325-2.463-.563-4.655-.71-6.578-.15-1.922-.225-3.627-.225-5.115v-29.354h15.55v59.438h-15.55l-22.45-30.692c-.462-.623-1.187-1.874-2.173-3.756-.99-1.88-2.065-4.094-3.23-6.638.325 2.49.562 4.695.71 6.618.15 1.922.224 3.627.224 5.115v29.353h-15.63zM284.39 315.713c2.41 2.735 4.782 4.777 7.124 6.13 2.34 1.355 4.676 2.03 7.005 2.03 2.164 0 3.943-.58 5.337-1.746 1.394-1.163 2.09-2.64 2.09-4.425 0-1.975-.602-3.498-1.805-4.566-1.206-1.07-3.933-2.172-8.182-3.31-5.818-1.568-9.934-3.614-12.342-6.13-2.41-2.518-3.613-5.968-3.613-10.355 0-5.683 1.9-10.316 5.705-13.903 3.802-3.586 8.734-5.38 14.798-5.38 3.274 0 6.38.44 9.317 1.32 2.937.88 5.718 2.212 8.343 3.998l-5.075 11.652c-1.84-1.568-3.73-2.754-5.663-3.553-1.936-.797-3.85-1.197-5.745-1.197-1.948 0-3.532.468-4.75 1.4s-1.827 2.132-1.827 3.593c0 1.488.534 2.68 1.604 3.573s3.134 1.746 6.19 2.56l.73.2c6.605 1.788 10.95 3.75 13.034 5.888 1.406 1.464 2.477 3.216 3.207 5.26.73 2.043 1.097 4.31 1.097 6.8 0 6.308-2.07 11.375-6.213 15.206-4.14 3.828-9.662 5.743-16.563 5.743-4.14 0-7.91-.705-11.308-2.112s-6.664-3.613-9.806-6.617l7.31-12.057zM330.063 334.916v-59.438h36.418v13.033h-20.624v10.313h19.448v12.75h-19.448v23.343h-15.793zM375.29 334.916v-59.438h36.42v13.033h-20.625v10.313h19.448v12.75h-19.448V321.6h20.624v13.315h-36.42zM422.427 334.916v-59.438h16.93c6.633 0 11.253.305 13.865.915 2.612.608 4.866 1.63 6.76 3.064 2.14 1.623 3.782 3.694 4.934 6.21 1.15 2.52 1.726 5.294 1.726 8.324 0 4.603-1.13 8.345-3.39 11.227-2.26 2.883-5.555 4.797-9.886 5.746l16.198 23.952h-18.31l-13.642-23.264v23.265h-15.185zm15.185-31.342h3.005c3.49 0 6.042-.595 7.65-1.787 1.61-1.19 2.417-3.058 2.417-5.604 0-2.978-.75-5.094-2.253-6.353-1.5-1.258-4.025-1.888-7.57-1.888h-3.248v15.632z"/></g><g fill="#006E90"><path d="M232.585 178.848l10.79 40.816c.508 1.838.977 3.753 1.407 5.747.43 1.995.88 4.282 1.35 6.862.586-3.05 1.084-5.56 1.494-7.536.41-1.974.81-3.666 1.202-5.072l10.086-40.816h23.635l-24.28 85.855h-21.697l-10.615-36.653c-.392-1.29-1.036-3.812-1.935-7.565-.392-1.68-.704-2.99-.938-3.93-.196.822-.47 1.976-.82 3.46-.9 3.793-1.584 6.472-2.053 8.035l-10.44 36.653h-21.756l-24.22-85.855h23.633l9.85 41.05c.47 2.112.93 4.223 1.38 6.334.448 2.11.87 4.28 1.26 6.51.352-1.643.732-3.363 1.144-5.162.41-1.798 1.026-4.36 1.847-7.683l10.792-41.05h18.883zM291.228 264.703v-85.855h23.634v85.855h-23.634zM333.745 264.703v-85.855H358.2c9.576 0 16.252.44 20.025 1.32 3.773.878 7.027 2.355 9.765 4.426 3.088 2.346 5.463 5.337 7.125 8.973 1.662 3.636 2.492 7.644 2.492 12.022 0 6.646-1.632 12.05-4.896 16.214-3.264 4.164-8.023 6.93-14.278 8.298l23.4 34.6h-26.45L355.678 231.1v33.604h-21.933zm21.933-45.273h4.34c5.043 0 8.727-.86 11.054-2.58 2.326-1.72 3.49-4.418 3.49-8.093 0-4.3-1.085-7.36-3.256-9.178-2.17-1.818-5.815-2.728-10.938-2.728h-4.69v22.578zM410.744 264.703v-85.855h52.604v18.825h-29.79v14.896h28.09v18.413h-28.09v14.485h29.79v19.235h-52.604z"/></g><linearGradient gradientUnits="userSpaceOnUse" id="a" x1="47.507" x2="154.622" y1="186.72" y2="186.72"><stop offset="0" stop-color="#41E700" stop-opacity="0"/><stop offset=".736" stop-color="#3ACD00"/><stop offset=".781" stop-color="#36BE00"/><stop offset=".926" stop-color="#299100"/><stop offset="1" stop-color="#248000"/></linearGradient><path fill="url(#a)" d="M47.507 178.22h107.115v17H47.507z"/><linearGradient gradientUnits="userSpaceOnUse" id="b" x1="47.507" x2="154.622" y1="219.718" y2="219.718"><stop offset="0" stop-color="#41E700" stop-opacity="0"/><stop offset=".736" stop-color="#3ACD00"/><stop offset=".781" stop-color="#36BE00"/><stop offset=".926" stop-color="#299100"/><stop offset="1" stop-color="#248000"/></linearGradient><path fill="url(#b)" d="M47.507 211.218h107.115v17H47.507z"/><linearGradient gradientUnits="userSpaceOnUse" id="c" x1="47.507" x2="154.622" y1="255.717" y2="255.717"><stop offset="0" stop-color="#41E700" stop-opacity="0"/><stop offset=".736" stop-color="#3ACD00"/><stop offset=".781" stop-color="#36BE00"/><stop offset=".926" stop-color="#299100"/><stop offset="1" stop-color="#248000"/></linearGradient><path fill="url(#c)" d="M47.507 247.217h107.115v17H47.507z"/>
</svg>