<?xml version="1.0" encoding="utf-8"?>
<!-- Generator: Adobe Illustrator 22.1.0, SVG Export Plug-In . SVG Version: 6.00 Build 0)  -->
<svg version="1.1" id="Layer_1" xmlns="http://www.w3.org/2000/svg" xmlns:xlink="http://www.w3.org/1999/xlink" x="0px" y="0px"
	 viewBox="0 0 42 42" style="enable-background:new 0 0 42 42;" xml:space="preserve">
<style type="text/css">
	.st0{fill:#737373;}
</style>
<title>icon_identityTheft</title>
<path class="st0" d="M4.5,0.9v18.8c0,3.5,0.9,7,2.6,10c1.4,2.4,3.2,4.5,5.3,6.3c2.3,2,5,3.6,7.8,4.8l0.7,0.3l0.7-0.3
	c2.8-1.2,5.5-2.8,7.8-4.8c2.1-1.8,3.9-3.9,5.4-6.3c1.7-3,2.6-6.5,2.6-10V0.9H4.5z M36.4,19.8c0,3.3-0.8,6.6-2.4,9.4
	c-1.3,2.3-3.1,4.3-5.1,6.1c-2.3,1.9-4.8,3.5-7.5,4.6L21,40l-0.3-0.1c-2.7-1.1-5.3-2.7-7.5-4.6c-2.1-1.7-3.8-3.7-5.2-6
	c-1.6-2.9-2.5-6.1-2.5-9.5V2h30.9V19.8z M22.8,8.2c2,0.5,3.8,1.4,5.3,2.8c1.6,1.4,2.8,3.2,3.6,5.1l1.2-0.5c-0.9-2.1-2.3-4.1-4-5.6
	c-1.7-1.5-3.7-2.5-5.8-3.1c-2.6-0.6-5.3-0.4-7.9,0.5l0.4,1.2C18,7.8,20.5,7.7,22.8,8.2z M16.4,11.4c1.8-0.7,3.8-0.8,5.7-0.3
	c1.6,0.4,3.1,1.2,4.3,2.3c1.3,1.1,2.3,2.6,2.9,4.1c0.7,1.7,1.1,3.5,1.1,5.3h1.3c0-2.9-0.9-5.8-2.5-8.3l0,0c-0.8-1.2-1.8-2.2-2.9-3
	c-3-2.1-6.9-2.6-10.4-1.3c-2.1,0.8-4,2.1-5.5,3.8l1,0.9C12.7,13.3,14.4,12.1,16.4,11.4L16.4,11.4z M12,18.2c0.7-1.1,1.6-2.1,2.6-2.9
	c0.9-0.7,2-1.2,3.1-1.5c1.1-0.2,2.3-0.2,3.4,0c1.5,0.4,2.9,1.2,3.9,2.4c1.1,1.2,1.8,2.7,2.2,4.3c0.4,1.7,0.4,3.5-0.1,5.2l1.3,0.3
	c0.5-1.9,0.5-4,0-5.9c-0.4-1.8-1.3-3.5-2.5-4.9c-1.2-1.3-2.7-2.2-4.5-2.6l0,0c-1.3-0.3-2.7-0.3-4,0c-1.3,0.3-2.6,0.8-3.6,1.7
	c-1.2,0.9-2.2,2-3,3.2c-0.8,1.2-1.4,2.6-1.7,4l1.3,0.3C10.8,20.5,11.3,19.3,12,18.2z M25.3,19.1c-1.3-2.6-4-4.1-6.9-3.8
	c-0.9,0.1-1.8,0.4-2.6,0.8c-1.2,0.6-2.1,1.6-2.9,2.7c-1.5,2.3-2,5-1.4,7.7l1.3-0.3c-0.3-1.2-0.3-2.4,0-3.5c0.3-1.2,0.8-2.4,1.5-3.4
	c0.7-1,1.6-1.8,2.6-2.3c2.7-1.2,5.9-0.1,7.2,2.5c0.7,1.4,1,3,0.7,4.6c-0.2,1.6-0.8,3.1-1.8,4.4l1,0.8c1.2-1.4,1.9-3.1,2.1-4.9
	C26.4,22.6,26.1,20.8,25.3,19.1L25.3,19.1z M23.3,21.8c-0.2-0.9-0.6-1.7-1.2-2.4c-0.5-0.6-1.3-1.1-2.1-1.3c-0.8-0.2-1.6-0.1-2.4,0.2
	c-0.8,0.3-1.6,0.9-2.1,1.6c-0.6,0.8-1,1.7-1.2,2.6c-0.2,0.9-0.2,1.8,0,2.7c0.2,1.1,0.9,2,1.9,2.3l0.4-1.2c-0.6-0.3-1.1-0.9-1.1-1.5
	c-0.2-0.7-0.2-1.3,0-2c0.2-1.1,0.8-2.1,1.7-2.8c0.7-0.7,1.7-0.9,2.6-0.7c0.6,0.1,1.1,0.5,1.5,1c0.4,0.5,0.7,1.2,0.8,1.8
	c0.1,0.8,0.1,1.5-0.1,2.3c-0.1,0.4-0.3,0.8-0.5,1.2c-0.9,1.4-1.4,3.1-1.5,4.7h1.3c0-1.5,0.5-2.9,1.3-4.1c0.3-0.5,0.5-1,0.7-1.5
	C23.5,23.7,23.5,22.7,23.3,21.8L23.3,21.8z M20.7,24.2c0.1-0.3,0.2-0.7,0.2-1c0-0.3-0.1-0.7-0.3-1l0,0c-0.5-1-1.7-1.4-2.7-0.9
	c-0.1,0-0.1,0.1-0.2,0.1c-0.6,0.4-1,1-1.2,1.6c-0.2,0.7-0.1,1.4,0.3,2l1.1-0.6c-0.2-0.3-0.2-0.8-0.1-1.1c0.1-0.4,0.4-0.7,0.7-0.9
	c0.3-0.1,0.7,0,0.8,0.3c0,0,0,0,0,0c0.2,0.3,0.2,0.7,0.1,1c-0.1,0.3-0.5,1-1,2.2c-0.4,0.7-0.7,1.4-0.9,2.2c-0.2,0.8-0.3,1.6-0.1,2.4
	l1.3-0.2c-0.1-0.7,0-1.5,0.2-2.2c0.2-0.7,0.5-1.4,0.8-2l0.5-1C20.5,24.8,20.7,24.5,20.7,24.2L20.7,24.2z"/>
</svg>
