<svg xmlns="http://www.w3.org/2000/svg" viewBox="0 0 83.98 111.16"><defs><style>.cls-1{fill:#fff;}.cls-2{fill:none;}.cls-3{fill:gray;}</style></defs><title>clipboardTopAsset 1</title><g id="Layer_2" data-name="Layer 2"><g id="Layer_1-2" data-name="Layer 1"><path class="cls-1" d="M79.2,106.6H4.78V16.41H22.93v4.36H61V16.41H79.2Z"/><rect class="cls-2" width="83.98" height="111.16"/><path class="cls-3" d="M61,11.85V5.51H47.91a5.67,5.67,0,0,0-11.34,0H22.93v6.34H0v99.31H84V11.85ZM79.2,106.6H4.78V16.41H22.93v4.36H61V16.41H79.2Z"/><path class="cls-3" d="M43.48,35.77a22.39,22.39,0,1,0,8.4,41.88l11.2,16.69,8-5.36L59.18,71.23a22.36,22.36,0,0,0-15.7-35.46Zm14.94,24.1A17.4,17.4,0,1,1,43,40.73,17.4,17.4,0,0,1,58.42,59.87Z"/><path class="cls-3" d="M45.65,44.48h-9a14.33,14.33,0,0,0-4.29,2.3H49.92A14.2,14.2,0,0,0,45.65,44.48Z"/><path class="cls-3" d="M28.92,50.58a15.49,15.49,0,0,0-1.14,2.31H54.44a13.77,13.77,0,0,0-1.14-2.31Z"/><path class="cls-3" d="M26.86,59h28.5a13.57,13.57,0,0,0,0-2.3H26.89A14.74,14.74,0,0,0,26.86,59Z"/><path class="cls-3" d="M28.7,65.09H53.54a13.72,13.72,0,0,0,1.05-2.3H27.65A13.65,13.65,0,0,0,28.7,65.09Z"/><path class="cls-3" d="M35.55,71.2H46.68a14.25,14.25,0,0,0,3.71-2.31H31.83A14.08,14.08,0,0,0,35.55,71.2Z"/></g></g></svg>