<svg width="431" height="66" viewBox="0 0 431 66" fill="none" xmlns="http://www.w3.org/2000/svg">
<path d="M41.8123 29.9219C37.2121 28.0048 32.3491 26.8008 27.3891 26.349C24.3654 26.1502 21.4042 25.3893 18.6561 24.1054C14.9066 22.093 14.6589 17.6705 18.2146 15.3339C19.4271 14.5407 20.771 13.9765 22.1838 13.6652C29.1186 12.1738 36.3592 13.5009 42.3249 17.3528C42.6651 17.5603 43.0097 17.757 43.4233 18.0012L50.0888 8.03885C49.9941 7.91562 49.8907 7.80318 49.7744 7.69945C49.3652 7.41627 48.9582 7.12883 48.5339 6.87158C40.4124 1.92609 30.8394 -0.0495334 21.4322 1.27976C16.328 1.80504 11.4887 3.81521 7.50653 7.06183C-0.686033 13.8469 -1.12969 29.8545 11.4887 35.1229C12.4923 35.6176 13.5389 36.017 14.6158 36.3178C18.8198 37.2109 23.0387 38.0366 27.275 38.7907C30.2169 39.3114 33.1997 39.6766 35.7949 41.3041C36.4475 41.6609 37.0118 42.1578 37.449 42.7615C39.0771 45.0072 38.5818 48.1523 36.3441 49.7839C35.1316 50.7154 33.7446 51.3949 32.2651 51.7766C26.7883 53.1323 21.0251 52.7319 15.7831 50.6376C12.867 49.3794 10.0199 47.9708 7.25022 46.4169L0.0742188 56.4745H0.0785234C0.175438 56.6062 0.283109 56.7286 0.39941 56.8438C0.860299 57.1985 1.31257 57.5636 1.79284 57.8893C10.177 63.5073 20.2347 66.056 30.2707 65.1048C35.0111 64.8537 39.6177 63.4555 43.7011 61.024C50.4205 57.1933 53.8491 49.3991 52.1413 41.8362C50.9547 35.9309 47.0565 32.3128 41.8123 29.9219Z" fill="white"/>
<path d="M148.889 24.1435C148.77 24.2343 148.633 24.3013 148.318 24.4937V2.34682H134.688V63.803H146.516C146.81 62.1101 147.086 60.5199 147.392 58.7555C147.679 59.0065 147.805 59.1061 147.921 59.2161C149.13 60.3623 150.474 61.356 151.923 62.1754C161.725 67.7115 174.141 64.2241 179.656 54.3875C182.389 49.1979 183.287 43.2272 182.2 37.4588C179.643 21.1952 161.845 14.0839 148.891 24.1457L148.889 24.1435ZM154.957 52.5172C150.805 51.0868 148.292 47.1897 148.292 42.1775C148.287 36.8686 151.122 32.7983 155.653 31.6054C162.745 29.7393 168.73 34.4196 168.911 41.9721C169.101 49.8607 162.261 55.042 154.957 52.5172Z" fill="white"/>
<path d="M101.454 33.4725C100.149 27.3189 97.0135 22.4447 90.7872 20.4842C83.7748 18.2774 77.2644 19.3019 71.8392 24.723C71.6949 24.8116 71.542 24.8829 71.3805 24.9348V2.34485H57.75V63.861H71.415V41.3145C71.3051 39.0563 71.9017 36.8188 73.1249 34.9206C75.1322 31.9187 78.7999 30.5007 82.2953 31.3782C85.2674 31.871 87.5697 34.2598 87.9595 37.2576C88.1856 38.3986 88.2911 39.5594 88.2761 40.7201C88.3041 47.948 88.2911 55.1789 88.2911 62.4068V63.8092H101.992C102.014 63.414 102.042 63.1266 102.042 62.8393C102.042 54.8636 102.074 46.8847 102.012 38.909C102.006 37.0823 101.818 35.2608 101.448 33.4705L101.454 33.4725Z" fill="white"/>
<path d="M222.062 25.4797C221.754 25.2224 221.599 25.0906 221.454 24.9566C220.018 23.6229 218.398 22.5033 216.643 21.6322C206.564 16.6326 194.357 20.7805 189.376 30.8969C186.595 36.7431 186.085 43.4181 187.944 49.6221C192.871 67.3484 213.398 68.2042 221.622 59.132C221.762 59.0179 221.914 58.9204 222.075 58.8405C222.383 60.5739 222.667 62.1972 222.958 63.8382H234.779V20.4693H222.958L222.062 25.4797ZM221.238 42.108C221.256 50.0256 214.714 54.9839 207.436 52.5587C203.224 51.1542 200.627 47.2073 200.627 42.1796C200.62 36.9226 203.51 32.79 208.02 31.6095C215.185 29.731 221.22 34.5316 221.24 42.1018V42.1059L221.238 42.108Z" fill="white"/>
<path d="M124.339 20.4792H110.736V63.861H124.339V20.4792Z" fill="white"/>
<path d="M117.602 1.08682H117.597C113.109 1.06525 109.758 3.91842 109.493 8.00152C109.487 8.0707 109.481 8.14197 109.475 8.21115C109.191 12.2532 112.226 15.7613 116.253 16.0467C120.645 16.6713 124.554 14.285 125.408 10.4548C126.557 5.33848 123.027 1.11711 117.602 1.08682Z" fill="white"/>
<path d="M430.805 35.488C430.758 31.6946 429.375 28.0392 426.9 25.1688C423.786 21.6044 419.298 19.551 414.575 19.5293C408.272 19.19 402.737 20.8544 398.52 25.8561C398.399 25.9642 398.266 26.0549 398.124 26.1306C395.453 21.9481 390.824 19.4408 385.876 19.4904C380.911 19.2981 376.134 21.4099 372.923 25.2141C372.684 23.8049 372.406 22.6679 372.32 21.5158C372.25 20.5539 371.818 20.381 370.963 20.4026C368.846 20.4567 366.729 20.4199 364.612 20.4199H360.279V63.9243H373.989V62.4638C374.001 55.1343 374.001 47.8058 373.989 40.4763C373.893 38.382 374.427 36.3095 375.518 34.5212C377.332 31.8543 380.614 30.6117 383.73 31.4135C386.33 32.0079 388.07 34.1322 388.503 37.3126C388.625 38.2181 388.689 39.132 388.691 40.049C388.695 47.5444 388.699 55.0389 388.699 62.5343V63.9523H402.427V62.4918C402.427 55.1644 402.355 47.8349 402.476 40.5064C402.502 38.6849 402.881 36.8862 403.589 35.2089C404.932 32.1313 408.166 30.7538 411.732 31.3502C414.616 31.8346 416.488 33.9746 416.949 37.3852C417.065 38.2939 417.123 39.2077 417.119 40.1216C417.123 47.5745 417.127 55.0295 417.127 62.4825V63.9264H430.796C430.844 63.8185 430.878 63.7065 430.898 63.5913C430.885 54.2236 430.965 44.8537 430.808 35.4859L430.805 35.488Z" fill="white"/>
<path d="M337.945 21.9392C337.932 28.9333 337.932 35.9288 337.945 42.9233C338.055 45.2686 337.448 47.5901 336.205 49.5786C334.243 52.4508 330.734 53.8325 327.351 53.0628C324.235 52.4052 321.915 49.7798 321.635 46.5953C321.482 45.6099 321.411 44.6131 321.418 43.6152C321.411 36.3697 321.407 29.1242 321.407 21.8808V20.4909H307.671C307.645 20.9255 307.604 21.2907 307.604 21.656C307.602 29.4831 307.584 37.3115 307.619 45.139C307.615 46.6773 307.729 48.2166 307.964 49.7383C308.924 55.6737 311.526 60.5656 317.165 63.2936C324.285 66.5507 332.664 65.1089 338.296 59.66C338.455 59.5044 338.637 59.3675 338.929 59.1175C339.175 60.4961 339.448 61.7107 339.591 62.941C339.687 63.777 340.017 64.0581 340.858 64.0436C343.435 63.9959 346.011 64.026 348.586 64.026H351.684V20.465H337.936L337.943 21.9414L337.945 21.9392Z" fill="white"/>
<path d="M256.947 25.8478C256.549 23.8658 256.209 22.1733 255.868 20.4916H243.922V63.9378H257.623V62.4897C257.623 56.2473 257.614 50.0049 257.632 43.7645C257.632 42.5997 257.701 41.4369 257.83 40.2782C258.342 35.767 261.002 32.6697 265.008 31.9477C267.519 31.4488 270.125 31.8419 272.38 33.0587C272.882 33.3283 273.384 33.597 273.955 33.904L279.732 23.7987C276.798 21.0838 272.966 19.5535 268.976 19.5017C264.115 19.2703 259.51 21.6999 256.945 25.85L256.947 25.8478Z" fill="white"/>
<path d="M299.604 20.4994H285.902V63.9222H299.604V20.4994Z" fill="white"/>
<path d="M292.794 1.05226C288.303 1.03929 284.959 3.91198 284.693 8.01447C284.687 8.0794 284.683 8.14641 284.679 8.21124C284.407 12.2684 287.463 15.7765 291.505 16.0488C295.865 16.6519 299.748 14.3045 300.638 10.5327C301.852 5.37103 298.294 1.06958 292.798 1.05226H292.794Z" fill="white"/>
</svg>
