<?xml version="1.0" encoding="utf-8"?>
<!-- Generator: Adobe Illustrator 23.0.2, SVG Export Plug-In . SVG Version: 6.00 Build 0)  -->
<svg version="1.1" id="Calque_1" xmlns="http://www.w3.org/2000/svg" xmlns:xlink="http://www.w3.org/1999/xlink" x="0px" y="0px"
	 viewBox="0 0 330 100" style="enable-background:new 0 0 330 100;" xml:space="preserve">
<style type="text/css">
	.st0{fill:#50646E;}
	.st1{fill:#EB1455;}
</style>
<g>
	<g>
		<path class="st0" d="M95.99,75.43v1.5h-7.65V66.59h1.72v8.84H95.99z"/>
		<path class="st0" d="M105.22,74l-0.01-0.01V74l-5.54,0.03c0.28,1.09,1.28,1.69,3.04,1.69c0.87,0,1.52-0.19,2.13-0.45v1.29
			c-0.71,0.34-1.45,0.56-2.44,0.56c-2.61,0-4.27-1.45-4.27-3.85c0-2.3,1.51-3.75,3.68-3.75c2.21,0,3.46,1.59,3.46,3.48
			C105.27,73.2,105.25,73.69,105.22,74z M99.65,72.69h4.15c-0.04-0.97-0.78-1.81-2.02-1.81C100.62,70.88,99.86,71.66,99.65,72.69z"
			/>
		<path class="st0" d="M118.75,76.69c-0.57,0.26-1.11,0.43-2.02,0.43c-2.38,0-4.02-1.51-4.02-3.79c0-2.29,1.64-3.81,4.02-3.81
			c0.89,0,1.55,0.13,2.02,0.32v1.44c-0.61-0.26-1.16-0.34-1.8-0.34c-1.62,0-2.65,0.97-2.65,2.39s1.03,2.37,2.71,2.37
			c0.65,0,1.12-0.12,1.73-0.43V76.69z"/>
		<path class="st0" d="M121.28,73.25c0-2.2,1.64-3.74,3.93-3.74c2.29,0,3.93,1.54,3.93,3.74c0,2.28-1.64,3.87-3.93,3.87
			C122.92,77.11,121.28,75.52,121.28,73.25z M127.54,73.26c0-1.38-1.01-2.35-2.34-2.35c-1.34,0-2.34,0.97-2.34,2.35
			c0,1.42,1,2.46,2.34,2.46C126.54,75.72,127.54,74.68,127.54,73.26z"/>
		<path class="st0" d="M144.22,72.62l-0.01,4.32h-1.65v-3.9c0-1.63-0.78-2.12-1.81-2.12c-0.74,0-1.71,0.26-1.72,1.97v4.06h-1.67
			v-3.9c0-1.63-0.76-2.12-1.77-2.12c-0.76,0-1.73,0.27-1.73,1.97v4.06h-1.67V69.7h1.47v1.02c0.44-0.74,1.23-1.19,2.42-1.19
			s2.07,0.45,2.55,1.38c0.49-0.89,1.37-1.38,2.62-1.38C143.03,69.53,144.22,70.53,144.22,72.62z"/>
		<path class="st0" d="M155.48,73.35c0,2.22-1.58,3.76-3.62,3.76c-1.11,0-1.99-0.45-2.53-1.12v3.27h-1.67V69.7h1.5v1.23
			c0.5-0.83,1.46-1.41,2.66-1.41C153.84,69.51,155.48,71.1,155.48,73.35z M153.89,73.34c0-1.42-0.97-2.44-2.21-2.44
			c-1.32,0-2.34,1.02-2.35,2.47c0,1.63,1.29,2.36,2.38,2.36C152.97,75.73,153.89,74.74,153.89,73.34z"/>
		<path class="st0" d="M165.89,69.7v7.24h-1.51l0.01-1.24c-0.52,0.85-1.46,1.42-2.66,1.42c-2.02,0-3.66-1.59-3.66-3.84
			c0-2.22,1.58-3.76,3.62-3.76c1.23,0,2.18,0.57,2.7,1.36V69.7H165.89z M164.22,73.31v-0.05c0-1.63-1.29-2.37-2.38-2.37
			c-1.27,0-2.18,1-2.18,2.39c0,1.42,0.97,2.44,2.21,2.44C162.99,75.73,164.21,74.88,164.22,73.31z"/>
		<path class="st0" d="M173.78,69.46v1.55c-0.12-0.03-0.22-0.04-0.39-0.04c-1.07,0-2.18,0.52-2.31,1.97v3.99h-1.67V69.7h1.5v1
			C171.61,69.76,172.75,69.46,173.78,69.46z"/>
		<path class="st0" d="M183.64,69.7v7.24h-1.51l0.01-1.24c-0.52,0.85-1.46,1.42-2.66,1.42c-2.02,0-3.66-1.59-3.66-3.84
			c0-2.22,1.58-3.76,3.62-3.76c1.23,0,2.18,0.57,2.7,1.36V69.7H183.64z M181.98,73.31v-0.05c0-1.63-1.29-2.37-2.38-2.37
			c-1.27,0-2.18,1-2.18,2.39c0,1.42,0.97,2.44,2.21,2.44C180.75,75.73,181.96,74.88,181.98,73.31z"/>
		<path class="st0" d="M189.4,71.23v2.56c0,1.28,0.52,1.97,1.59,1.97c0.34,0,0.81-0.09,1.2-0.21v1.3c-0.54,0.14-1.19,0.26-1.74,0.26
			c-1.82,0-2.71-1.09-2.71-2.9v-2.99h-1.33v-1.38h1.49l0.36-1.51h1.15v1.51h2.8v1.38H189.4z"/>
		<path class="st0" d="M201.61,74l-0.01-0.01V74l-5.54,0.03c0.28,1.09,1.28,1.69,3.04,1.69c0.87,0,1.53-0.19,2.13-0.45v1.29
			c-0.71,0.34-1.45,0.56-2.44,0.56c-2.61,0-4.27-1.45-4.27-3.85c0-2.3,1.51-3.75,3.68-3.75c2.21,0,3.46,1.59,3.46,3.48
			C201.66,73.2,201.63,73.69,201.61,74z M196.04,72.69h4.15c-0.04-0.97-0.78-1.81-2.02-1.81C197.01,70.88,196.24,71.66,196.04,72.69
			z"/>
		<path class="st0" d="M211.7,69.7v7.24h-1.47v-1c-0.58,0.74-1.46,1.16-2.53,1.16c-1.67,0-3.13-1.02-3.12-3.02V69.7h1.67v3.97
			c0,1.37,0.84,2.04,1.83,2.04c0.97,0,1.95-0.63,1.95-2.07V69.7H211.7z"/>
		<path class="st0" d="M219.58,69.46v1.55c-0.12-0.03-0.22-0.04-0.39-0.04c-1.07,0-2.18,0.52-2.31,1.97v3.99h-1.67V69.7h1.5v1
			C217.41,69.76,218.55,69.46,219.58,69.46z"/>
		<path class="st0" d="M234.18,66.33v10.6h-1.5v-1.23c-0.5,0.83-1.46,1.41-2.66,1.41c-2.02,0-3.66-1.59-3.66-3.84
			c0-2.22,1.58-3.76,3.62-3.76c1.11,0,1.99,0.45,2.53,1.12v-4.3H234.18z M232.52,73.26c0-1.63-1.29-2.37-2.38-2.37
			c-1.27,0-2.18,1-2.18,2.39c0,1.42,0.97,2.44,2.21,2.44C231.48,75.73,232.5,74.71,232.52,73.26z"/>
		<path class="st0" d="M244.35,74l-0.01-0.01V74l-5.54,0.03c0.28,1.09,1.28,1.69,3.04,1.69c0.87,0,1.53-0.19,2.13-0.45v1.29
			c-0.71,0.34-1.45,0.56-2.44,0.56c-2.61,0-4.27-1.45-4.27-3.85c0-2.3,1.51-3.75,3.68-3.75c2.21,0,3.46,1.59,3.46,3.48
			C244.4,73.2,244.38,73.69,244.35,74z M238.78,72.69h4.15c-0.04-0.97-0.78-1.81-2.02-1.81C239.75,70.88,238.99,71.66,238.78,72.69z
			"/>
		<path class="st0" d="M260.13,73.28c0,2.25-1.64,3.84-3.66,3.84c-1.2,0-2.16-0.58-2.66-1.41v1.23h-1.5v-10.6h1.67v4.3
			c0.54-0.67,1.42-1.12,2.53-1.12C258.55,69.51,260.13,71.05,260.13,73.28z M258.54,73.29c0-1.4-0.92-2.39-2.18-2.39
			c-1.09,0-2.38,0.74-2.38,2.37c0.01,1.45,1.03,2.47,2.35,2.47C257.57,75.73,258.54,74.71,258.54,73.29z"/>
		<path class="st0" d="M270.54,69.7v7.24h-1.51l0.01-1.24c-0.52,0.85-1.46,1.42-2.66,1.42c-2.02,0-3.66-1.59-3.66-3.84
			c0-2.22,1.58-3.76,3.62-3.76c1.23,0,2.18,0.57,2.7,1.36V69.7H270.54z M268.87,73.31v-0.05c0-1.63-1.29-2.37-2.38-2.37
			c-1.27,0-2.18,1-2.18,2.39c0,1.42,0.97,2.44,2.21,2.44C267.64,75.73,268.86,74.88,268.87,73.31z"/>
		<path class="st0" d="M281.37,72.55v4.38h-1.67v-3.97c0-1.37-0.84-2.04-1.94-2.04c-1.06,0-2.04,0.63-2.04,2.07v3.94h-1.67V69.7
			h1.47v1c0.54-0.74,1.45-1.16,2.62-1.16C279.98,69.53,281.39,70.55,281.37,72.55z"/>
		<path class="st0" d="M292.16,69.7v9.56h-1.67v-3.27c-0.54,0.67-1.42,1.12-2.53,1.12c-2.04,0-3.62-1.54-3.62-3.76
			c0-2.25,1.64-3.84,3.66-3.84c1.2,0,2.16,0.58,2.66,1.41V69.7H292.16z M290.49,73.37c-0.01-1.45-1.03-2.47-2.35-2.47
			c-1.24,0-2.21,1.02-2.21,2.44c0,1.4,0.92,2.39,2.18,2.39C289.2,75.73,290.49,74.99,290.49,73.37z"/>
		<path class="st0" d="M302.71,69.7v7.24h-1.47v-1c-0.58,0.74-1.46,1.16-2.53,1.16c-1.67,0-3.13-1.02-3.12-3.02V69.7h1.67v3.97
			c0,1.37,0.84,2.04,1.83,2.04c0.97,0,1.95-0.63,1.95-2.07V69.7H302.71z"/>
		<path class="st0" d="M312.88,74l-0.01-0.01V74l-5.54,0.03c0.28,1.09,1.28,1.69,3.04,1.69c0.87,0,1.53-0.19,2.13-0.45v1.29
			c-0.71,0.34-1.45,0.56-2.44,0.56c-2.61,0-4.27-1.45-4.27-3.85c0-2.3,1.51-3.75,3.68-3.75c2.21,0,3.46,1.59,3.46,3.48
			C312.93,73.2,312.9,73.69,312.88,74z M307.31,72.69h4.15c-0.04-0.97-0.78-1.81-2.02-1.81C308.28,70.88,307.51,71.66,307.31,72.69z
			"/>
		<path class="st0" d="M315.65,76.53v-1.5c0.79,0.41,1.76,0.69,2.78,0.69c1,0,1.65-0.26,1.65-0.8c0-0.32-0.22-0.59-1.25-0.78
			l-0.75-0.13c-1.29-0.22-2.51-0.76-2.51-2.26c0-1.63,1.27-2.24,3.21-2.24c0.62,0,1.51,0.12,2.46,0.43v1.5
			c-0.8-0.3-1.68-0.5-2.59-0.5c-0.84,0-1.51,0.17-1.51,0.74c0,0.39,0.31,0.61,1.32,0.79l0.63,0.12c1.1,0.21,2.56,0.63,2.56,2.21
			c0,1.53-1.25,2.33-3.21,2.33C317.38,77.11,316.4,76.88,315.65,76.53z"/>
	</g>
	<g>
		<path class="st0" d="M43.06,38.59c0,4.67-3.1,7.8-8.23,7.8h-6.12v6.01h-3.59V30.82h9.71C39.95,30.82,43.06,33.93,43.06,38.59z
			 M39.66,38.59c0-2.86-1.97-4.83-5.23-4.83h-5.72v9.68h5.72C37.61,43.45,39.66,41.45,39.66,38.59z"/>
		<path class="st0" d="M61.7,37.3V52.4h-3.16l0.03-2.59c-1.08,1.78-3.05,2.97-5.56,2.97c-4.21,0-7.63-3.32-7.63-8.01
			c0-4.64,3.29-7.85,7.55-7.85c2.56,0,4.56,1.19,5.64,2.83V37.3H61.7z M58.22,44.85v-0.11c0-3.4-2.7-4.94-4.96-4.94
			c-2.64,0-4.56,2.08-4.56,4.99c0,2.97,2.02,5.1,4.61,5.1C55.66,49.9,58.19,48.12,58.22,44.85z"/>
		<path class="st0" d="M81.61,43.26v9.14h-3.48v-8.28c0-2.86-1.75-4.26-4.05-4.26c-2.21,0-4.26,1.32-4.26,4.32v8.23h-3.48V37.3h3.07
			v2.08c1.13-1.54,3.02-2.43,5.48-2.43C78.7,36.95,81.64,39.08,81.61,43.26z"/>
		<path class="st0" d="M85.09,44.72c0-4.59,3.43-7.8,8.2-7.8c4.77,0,8.2,3.21,8.2,7.8c0,4.75-3.43,8.06-8.2,8.06
			C88.52,52.78,85.09,49.46,85.09,44.72z M98.18,44.74c0-2.89-2.1-4.91-4.88-4.91c-2.8,0-4.88,2.02-4.88,4.91
			c0,2.97,2.08,5.13,4.88,5.13C96.07,49.87,98.18,47.71,98.18,44.74z"/>
		<path class="st0" d="M114.28,36.81v3.24c-0.24-0.05-0.46-0.08-0.81-0.08c-2.24,0-4.56,1.08-4.83,4.1v8.33h-3.48V37.3h3.13v2.08
			C109.75,37.43,112.13,36.81,114.28,36.81z"/>
		<path class="st0" d="M132.17,37.3V52.4h-3.16l0.03-2.59c-1.08,1.78-3.05,2.97-5.56,2.97c-4.21,0-7.63-3.32-7.63-8.01
			c0-4.64,3.29-7.85,7.55-7.85c2.56,0,4.56,1.19,5.64,2.83V37.3H132.17z M128.69,44.85v-0.11c0-3.4-2.7-4.94-4.96-4.94
			c-2.64,0-4.56,2.08-4.56,4.99c0,2.97,2.02,5.1,4.61,5.1C126.13,49.9,128.66,48.12,128.69,44.85z"/>
		<path class="st1" d="M153.13,44.77c0,4.69-3.43,8.01-7.63,8.01c-2.51,0-4.5-1.21-5.56-2.94v2.56h-3.13V30.29h3.48v8.98
			c1.13-1.4,2.97-2.35,5.29-2.35C149.84,36.92,153.13,40.13,153.13,44.77z M149.82,44.8c0-2.91-1.91-4.99-4.56-4.99
			c-2.27,0-4.96,1.54-4.96,4.94c0.03,3.02,2.16,5.15,4.91,5.15C147.79,49.9,149.82,47.76,149.82,44.8z"/>
		<path class="st1" d="M172.15,37.3V52.4H169l0.03-2.59c-1.08,1.78-3.05,2.97-5.56,2.97c-4.21,0-7.63-3.32-7.63-8.01
			c0-4.64,3.29-7.85,7.55-7.85c2.56,0,4.56,1.19,5.64,2.83V37.3H172.15z M168.67,44.85v-0.11c0-3.4-2.7-4.94-4.96-4.94
			c-2.64,0-4.56,2.08-4.56,4.99c0,2.97,2.02,5.1,4.61,5.1C166.11,49.9,168.65,48.12,168.67,44.85z"/>
		<path class="st1" d="M192.06,43.26v9.14h-3.48v-8.28c0-2.86-1.75-4.26-4.05-4.26c-2.21,0-4.26,1.32-4.26,4.32v8.23h-3.48V37.3
			h3.08v2.08c1.13-1.54,3.02-2.43,5.48-2.43C189.15,36.95,192.09,39.08,192.06,43.26z"/>
		<path class="st1" d="M211.87,37.3v19.96h-3.48v-6.82c-1.13,1.4-2.97,2.35-5.29,2.35c-4.26,0-7.55-3.21-7.55-7.85
			c0-4.69,3.43-8.01,7.63-8.01c2.51,0,4.5,1.21,5.56,2.94V37.3H211.87z M208.39,44.96c-0.03-3.02-2.16-5.15-4.91-5.15
			c-2.59,0-4.61,2.13-4.61,5.1c0,2.91,1.91,4.99,4.56,4.99C205.69,49.9,208.39,48.36,208.39,44.96z"/>
		<path class="st1" d="M231.19,37.3V52.4h-3.08v-2.08c-1.21,1.54-3.05,2.43-5.29,2.43c-3.48,0-6.53-2.13-6.5-6.31V37.3h3.48v8.28
			c0,2.86,1.75,4.26,3.83,4.26c2.02,0,4.07-1.32,4.07-4.32V37.3H231.19z"/>
		<path class="st1" d="M249.69,46.28l-0.03-0.03v0.03l-11.57,0.05c0.59,2.27,2.67,3.53,6.34,3.53c1.81,0,3.18-0.4,4.45-0.94v2.7
			c-1.48,0.7-3.02,1.16-5.1,1.16c-5.45,0-8.9-3.02-8.9-8.04c0-4.8,3.16-7.82,7.69-7.82c4.61,0,7.23,3.32,7.23,7.26
			C249.8,44.61,249.75,45.63,249.69,46.28z M238.07,43.56h8.66c-0.08-2.02-1.62-3.78-4.21-3.78
			C240.09,39.78,238.5,41.4,238.07,43.56z"/>
		<path class="st1" d="M252.77,51.57v-3.13c1.65,0.86,3.67,1.43,5.8,1.43c2.08,0,3.45-0.54,3.45-1.67c0-0.67-0.46-1.24-2.62-1.62
			l-1.56-0.27c-2.7-0.46-5.23-1.59-5.23-4.72c0-3.4,2.64-4.67,6.69-4.67c1.29,0,3.16,0.24,5.12,0.89v3.13
			c-1.67-0.62-3.51-1.05-5.39-1.05c-1.75,0-3.16,0.35-3.16,1.54c0,0.81,0.65,1.27,2.75,1.65l1.32,0.24
			c2.29,0.43,5.34,1.32,5.34,4.61c0,3.18-2.62,4.86-6.69,4.86C256.39,52.78,254.34,52.3,252.77,51.57z"/>
		<path class="st0" d="M271.37,50.94c0,0.93-0.82,1.73-1.83,1.73c-1.04,0-1.86-0.8-1.86-1.73c0-0.95,0.82-1.73,1.86-1.73
			C270.55,49.21,271.37,49.99,271.37,50.94z"/>
		<path class="st0" d="M283.44,51.99c-0.95,0.43-1.86,0.71-3.37,0.71c-3.97,0-6.71-2.53-6.71-6.33c0-3.82,2.74-6.37,6.71-6.37
			c1.49,0,2.59,0.22,3.37,0.54v2.4c-1.01-0.43-1.94-0.56-3-0.56c-2.7,0-4.43,1.62-4.43,3.99s1.73,3.95,4.53,3.95
			c1.08,0,1.88-0.19,2.89-0.71V51.99z"/>
		<path class="st0" d="M285.49,46.25c0-3.67,2.74-6.24,6.56-6.24c3.82,0,6.56,2.57,6.56,6.24c0,3.8-2.74,6.46-6.56,6.46
			C288.23,52.71,285.49,50.05,285.49,46.25z M295.96,46.27c0-2.31-1.68-3.93-3.91-3.93c-2.24,0-3.91,1.62-3.91,3.93
			c0,2.38,1.66,4.1,3.91,4.1C294.28,50.37,295.96,48.65,295.96,46.27z"/>
		<path class="st0" d="M321.65,45.19l-0.02,7.21h-2.76v-6.52c0-2.72-1.3-3.54-3.02-3.54c-1.23,0-2.85,0.43-2.87,3.28v6.78h-2.79
			v-6.52c0-2.72-1.27-3.54-2.96-3.54c-1.27,0-2.89,0.45-2.89,3.28v6.78h-2.78V40.31h2.46v1.71c0.73-1.23,2.05-1.99,4.04-1.99
			c1.99,0,3.45,0.76,4.25,2.31c0.82-1.49,2.29-2.31,4.38-2.31C319.66,40.03,321.65,41.72,321.65,45.19z"/>
	</g>
	<path class="st1" d="M78.5,82.32L62.91,66.73c-1.08-1.08-2.66-1.35-3.98-0.81l-2.83-2.83c1.68-1.85,3.06-3.87,4.19-5.99h-4.24
		c-0.99,1.57-2.16,3.06-3.53,4.42c-10.05,10.05-26.34,10.05-36.38,0c-10.05-10.05-10.05-26.34,0-36.38
		c10.05-10.05,26.34-10.05,36.38,0c2.22,2.22,3.95,4.75,5.19,7.45h3.99c-1.43-3.66-3.62-7.09-6.58-10.05
		c-11.48-11.48-30.1-11.48-41.58,0c-11.48,11.48-11.48,30.1,0,41.58c11.14,11.14,29.01,11.47,40.55,0.99l2.83,2.83
		c-0.54,1.33-0.27,2.91,0.81,3.98l15.59,15.59c1.44,1.44,3.76,1.44,5.2,0C79.94,86.08,79.94,83.75,78.5,82.32z"/>
</g>
</svg>
