<svg xmlns="http://www.w3.org/2000/svg" xmlns:xlink="http://www.w3.org/1999/xlink" width="40" zoomAndPan="magnify" viewBox="0 0 30 30.000001" height="40" preserveAspectRatio="xMidYMid meet" version="1.0"><defs><g/><clipPath id="42b4ff9a11"><path d="M 0.484375 0 L 29.492188 0 L 29.492188 29.007812 L 0.484375 29.007812 Z M 0.484375 0 " clip-rule="nonzero"/></clipPath></defs><g clip-path="url(#42b4ff9a11)"><path fill="#eb1354" d="M 14.988281 29.007812 C 11.117188 29.007812 7.46875 27.5 4.734375 24.757812 C 1.992188 22.023438 0.484375 18.378906 0.484375 14.503906 C 0.484375 10.632812 1.992188 6.984375 4.734375 4.25 C 7.46875 1.507812 11.117188 0 14.988281 0 C 18.859375 0 22.507812 1.507812 25.242188 4.25 C 27.984375 6.992188 29.492188 10.632812 29.492188 14.503906 C 29.492188 18.378906 27.984375 22.023438 25.242188 24.757812 C 22.507812 27.5 18.859375 29.007812 14.988281 29.007812 Z M 14.988281 0.871094 C 11.347656 0.871094 7.921875 2.289062 5.347656 4.863281 C 2.773438 7.4375 1.351562 10.863281 1.351562 14.503906 C 1.351562 18.144531 2.773438 21.570312 5.347656 24.144531 C 7.921875 26.71875 11.347656 28.140625 14.988281 28.140625 C 18.628906 28.140625 22.054688 26.71875 24.628906 24.144531 C 27.203125 21.570312 28.625 18.144531 28.625 14.503906 C 28.625 10.863281 27.203125 7.4375 24.628906 4.863281 C 22.054688 2.289062 18.628906 0.871094 14.988281 0.871094 Z M 14.988281 0.871094 " fill-opacity="1" fill-rule="nonzero"/></g><g fill="#eb1354" fill-opacity="1"><g transform="translate(8.970005, 22.500002)"><g><path d="M 4.90625 -6.3125 L 0.90625 -6.3125 L 0.90625 -8.578125 L 4.90625 -8.578125 L 4.90625 -12.609375 L 7.15625 -12.609375 L 7.15625 -8.578125 L 11.15625 -8.578125 L 11.15625 -6.3125 L 7.15625 -6.3125 L 7.15625 -2.34375 L 4.90625 -2.34375 Z M 4.90625 -6.3125 "/></g></g></g></svg>