<?xml version="1.0" encoding="iso-8859-1"?>
<!-- Generator: Adobe Illustrator 16.0.0, SVG Export Plug-In . SVG Version: 6.00 Build 0)  -->
<!DOCTYPE svg PUBLIC "-//W3C//DTD SVG 1.1//EN" "http://www.w3.org/Graphics/SVG/1.1/DTD/svg11.dtd">
<svg version="1.1" xmlns="http://www.w3.org/2000/svg" xmlns:xlink="http://www.w3.org/1999/xlink" x="0px" y="0px" width="1200px"
	 height="1200px" viewBox="0 0 1200 1200" style="enable-background:new 0 0 1200 1200;" xml:space="preserve">
<g id="Layer_1_1_">
	<path d="M-1840,2448.024c-326.411,0-591.976,265.564-591.976,591.975c0,306.928,234.811,560.045,534.223,589.17
		c0.3,0.029,0.6,0.057,0.899,0.086c7.111,0.682,14.258,1.236,21.439,1.662c0.642,0.039,1.283,0.074,1.925,0.111
		c3.47,0.193,6.945,0.367,10.43,0.502c0.005,0,0.009,0,0.014,0c3.428,0.133,6.866,0.227,10.308,0.299
		c0.816,0.018,1.631,0.033,2.447,0.047c3.424,0.059,6.852,0.1,10.29,0.1s6.865-0.041,10.289-0.1
		c0.816-0.014,1.632-0.029,2.447-0.047c3.443-0.072,6.881-0.166,10.309-0.297c0.005-0.002,0.011-0.002,0.017-0.002
		c3.484-0.135,6.958-0.309,10.427-0.502c0.643-0.037,1.285-0.072,1.927-0.111c7.181-0.426,14.326-0.98,21.436-1.662
		c0.302-0.029,0.604-0.057,0.905-0.086c299.41-29.125,534.22-282.242,534.22-589.17
		C-1248.024,2713.589-1513.589,2448.024-1840,2448.024z M-1800.171,3594.677c-0.556,0.039-1.11,0.078-1.666,0.115
		c-2.803,0.191-5.608,0.365-8.418,0.514c-0.202,0.012-0.403,0.025-0.606,0.035c-2.971,0.154-5.947,0.281-8.926,0.389
		c-0.688,0.023-1.378,0.043-2.066,0.064c-2.301,0.076-4.603,0.135-6.907,0.182c-0.815,0.016-1.631,0.033-2.448,0.047
		c-2.928,0.045-5.857,0.076-8.791,0.076s-5.864-0.031-8.792-0.076c-0.816-0.014-1.632-0.031-2.448-0.047
		c-2.304-0.047-4.606-0.105-6.906-0.182c-0.689-0.021-1.379-0.041-2.068-0.064c-2.979-0.107-5.954-0.234-8.925-0.389
		c-0.203-0.01-0.405-0.023-0.608-0.035c-2.809-0.148-5.614-0.322-8.416-0.514c-0.556-0.037-1.111-0.076-1.667-0.115
		c-90.163-6.43-176.709-34.662-253.755-82.855c124.673-51.123,163.815-102.715,163.815-206.545c0-33.76-9.974-48.363-20.594-63.826
		c-10.906-15.93-24.468-35.732-34.801-91.701c-4.986-27.053-20.7-34.586-31.069-39.572c-11.122-5.348-22.639-10.908-26.657-63.324
		c0-28.666,12.271-36.164,12.163-36.164c7.427-3.41,11.624-11.445,10.153-19.518c-0.036-0.145-5.454-29.814-10.405-64.148
		c-15.032-92.205-14.78-192.805,101.14-239.732c117.281-47.465,202.275-13.85,212.033,2.869c2.404,4.162,10.297,8.217,14.961,9.4
		c1.544,0.395,3.158,0.432,4.809,0.574c9.83-0.395,61.457,0.646,94.213,38.748c47.969,55.861,33.33,204.572,24.433,252.252
		c-1.399,7.463,2.87,15.465,9.473,19.268c0.501,0.287,12.808,7.748,12.843,35.16c-4.054,53.814-15.534,59.34-26.691,64.686
		c-10.369,4.988-26.048,12.521-31.035,39.574c-10.367,55.967-23.93,75.771-34.836,91.701
		c-10.584,15.465-20.558,30.064-20.558,63.826c0,103.721,39.142,155.312,163.779,206.475
		C-1623.461,3560.015-1710.008,3588.247-1800.171,3594.677z M-1510.229,3487.509c-141.009-53.602-164.088-98.217-164.088-182.197
		c0-22.637,5.058-30.1,14.279-43.555c12.162-17.723,28.772-42.012,40.469-105.443c1.686-9.148,3.156-9.828,11.337-13.775
		c21.777-10.441,41.761-25.547,46.999-95.65c0-32.576-11.589-50.73-21.132-60.094c6.529-43.018,25.581-201.703-34.263-271.305
		c-38.892-45.24-94.788-50.91-116.457-51.592c-30.604-32.254-128.082-59.305-250.209-9.795
		c-140.136,56.723-139.42,178.742-123.166,278.373c3.192,22.244,6.601,42.658,8.682,54.498
		c-9.508,9.578-20.987,27.984-20.987,61.277c5.237,68.74,25.221,83.809,46.963,94.287c8.144,3.947,9.614,4.662,11.337,13.775
		c11.696,63.432,28.343,87.721,40.505,105.443c9.185,13.49,14.279,20.918,14.279,43.555c0,83.98-23.08,128.596-164.088,182.197
		c-137.194-101.365-226.328-264.217-226.328-447.51c0-306.643,249.455-556.098,556.098-556.098
		c306.644,0,556.099,249.455,556.099,556.098C-1283.901,3223.292-1373.035,3386.144-1510.229,3487.509z"/>
	<path d="M-1840,1240.393c-336.441,0-590.123,208.081-590.123,484.043c0,178.574,86.015,321.098,242.559,402.5v254.791
		c0,6.545,3.612,12.625,9.405,15.734c2.646,1.434,5.58,2.146,8.477,2.146c3.435,0,6.867-1,9.836-2.967l286.371-189.412l0.715,0.035
		c10.872,0.574,21.71,1.18,32.761,1.18c336.441,0,590.123-208.078,590.123-484.008
		C-1249.877,1448.474-1503.559,1240.393-1840,1240.393z M-1840.035,2172.68c-10.373,0-20.565-0.535-30.795-1.109l-6.652-0.357
		c-3.683-0.465-7.581,0.787-10.801,2.932l-263.552,174.32v-232.508c0-6.797-3.863-13.018-9.943-16.023
		c-192.236-95.027-232.58-256.65-232.58-375.498c0-255.541,238.339-448.278,554.358-448.278s554.322,192.737,554.322,448.278
		S-1524.017,2172.68-1840.035,2172.68z"/>
	<g>
		<path d="M787.847,1713.226l-94.912,57.344c-33.615,19.772-69.207,37.568-102.82,53.388c-9.887,3.956-21.751,9.888-33.615,15.819
			c-41.523,21.751-63.275,67.229-53.388,112.707c7.909,35.592,37.568,65.253,73.16,73.16c7.908,1.977,15.819,1.977,23.728,1.977
			c37.568,0,71.184-21.751,88.98-55.364c3.955-9.887,9.887-21.751,15.818-33.615c17.797-33.615,33.615-69.207,53.389-102.819
			l57.342-94.912c3.955-7.908,1.977-15.819-3.955-23.728C805.642,1709.271,795.755,1709.271,787.847,1713.226z M724.569,1814.069
			c-21.75,35.592-39.547,71.184-55.363,106.775c-3.955,11.863-9.887,21.752-15.818,33.615
			c-11.865,25.705-39.549,37.568-67.229,31.637c-21.752-3.956-39.547-21.752-43.5-43.5c-5.932-27.685,5.932-55.364,31.636-67.229
			c9.888-5.932,21.752-9.888,33.614-15.819c35.592-17.796,73.16-35.592,106.777-55.364l25.703-15.819L724.569,1814.069z"/>
		<path d="M1150.835,1709.259c-0.25-1.332-0.625-2.655-1.139-3.944c-0.518-1.293-1.176-2.476-1.939-3.561
			c-29.631-70.942-72.68-135.011-125.934-189.001c-0.752-1.116-1.625-2.188-2.631-3.192c-1.006-1.006-2.076-1.88-3.193-2.63
			c-107.275-105.813-254.344-171.374-416-171.374c-77.436,0-151.518,15.062-219.494,42.36c-1.332,0.25-2.654,0.625-3.941,1.14
			c-1.291,0.517-2.477,1.175-3.561,1.939c-70.943,29.63-135.012,72.679-189.001,125.935c-1.117,0.75-2.188,1.624-3.193,2.63
			c-1.005,1.005-1.882,2.076-2.63,3.192c-105.816,107.276-171.376,254.346-171.376,416c0,134.459,43.5,262.982,128.526,367.782
			c3.955,5.932,9.888,7.908,15.82,7.908h897.703c5.932,0,11.863-1.977,15.82-7.908c85.023-104.797,128.523-233.323,128.523-367.782
			C1193.196,1851.317,1178.134,1777.236,1150.835,1709.259z M1046.876,2138.352l55.568,24.029
			c-16.662,36.011-37.219,70.357-61.504,102.518H161.034c-26.738-34.479-48.944-71.471-66.492-110.334l54.627-22.146
			c9.889-3.955,13.842-15.819,9.889-25.704c-3.956-9.887-15.82-13.842-25.705-9.887l-53.55,21.708
			c-19.867-54.086-31.036-111.272-33.085-170.008h138.044c11.864,0,19.772-7.908,19.772-19.772s-7.908-19.775-19.772-19.775H46.744
			c2.218-62.348,14.866-122.149,36.259-177.713l54.303,23.482c1.977,1.977,5.932,1.977,7.908,1.977
			c7.909,0,13.841-3.956,17.797-11.864c3.955-9.888,0-21.752-9.888-25.704l-54.853-23.722
			c24.791-52.902,57.712-101.309,97.141-143.588l40.76,40.759c3.955,3.955,7.908,5.933,13.84,5.933s9.888-1.978,13.841-5.933
			c7.909-7.908,7.909-19.772,0-27.684l-40.759-40.759c44.297-41.311,95.307-75.496,151.181-100.653l22.06,54.412
			c1.978,7.908,9.888,11.864,17.796,11.864c1.978,0,3.956,0,7.909-1.978c9.887-3.955,13.84-15.818,9.887-25.703l-21.616-53.323
			c53.343-19.61,110.48-31.171,169.915-33.284v138.018c0,11.864,7.91,19.773,19.773,19.773s19.771-7.909,19.771-19.773v-138.02
			c62.35,2.218,122.15,14.867,177.715,36.259l-23.482,54.306c-3.955,9.887,0,21.751,9.887,25.704
			c1.977,1.977,5.934,1.977,7.908,1.977c7.908,0,15.82-5.933,17.797-11.864l23.721-54.852
			c52.902,24.791,101.309,57.711,143.588,97.141l-40.76,40.759c-7.908,7.908-7.908,19.772,0,27.684
			c3.955,3.955,7.908,5.932,13.842,5.932c3.955,0,9.887-1.977,13.84-5.932l40.76-40.759
			c41.311,44.297,75.496,95.307,100.652,151.181l-54.412,22.06c-9.887,3.956-13.84,15.819-9.887,25.705
			c1.977,7.908,9.887,11.864,17.795,11.864c1.979,0,3.957-1.978,7.91-1.978l53.324-21.616
			c19.611,53.344,31.172,110.479,33.283,169.915h-138.012c-11.865,0-19.773,7.909-19.773,19.773s7.908,19.772,19.773,19.772h138.045
			c-2.148,61.62-14.301,121.535-35.725,177.956l-54.865-23.725c-9.887-3.956-21.752,0-25.705,9.887
			C1033.032,2122.534,1036.987,2134.397,1046.876,2138.352z"/>
	</g>
	<g>
		<path d="M2276.896,188.629c-91.729-103.694-223.659-163.165-361.961-163.165c-9.811,0-17.495,7.686-17.495,17.497v465.425
			c0,9.812,7.685,17.497,17.495,17.497h465.427c9.812,0,17.497-7.686,17.497-17.497
			C2397.859,390.497,2354.899,276.938,2276.896,188.629z M1932.433,490.889V60.834l6.325,0.344
			c59.584,3.237,117.078,18.048,170.885,44.021c53.947,26.042,101.425,61.977,141.113,106.805
			c33.306,37.604,59.855,80.331,78.911,126.996c18.946,46.397,29.953,95.37,32.715,145.56l0.348,6.329H1932.433z"/>
		<path d="M2265.727,636.38h-485.429V150.714c0-9.812-7.686-17.497-17.497-17.497c-287.093,0-520.659,233.566-520.659,520.659
			s233.566,520.66,520.659,520.66c286.962,0,520.423-233.567,520.423-520.66C2283.224,644.065,2275.538,636.38,2265.727,636.38z
			 M2247.748,677.427c-6.059,124.548-59.237,240.817-149.738,327.392c-90.82,86.878-209.866,134.724-335.209,134.724
			c-267.798,0-485.667-217.869-485.667-485.666c0-125.371,47.803-244.458,134.603-335.324
			c86.528-90.581,202.757-143.803,327.276-149.86l6.291-0.306v485.253c0,9.812,7.686,17.497,17.497,17.497h485.253L2247.748,677.427
			z"/>
	</g>
	<g>
		<path d="M-197.995,1232.406c-51.849,0-101.535,24.994-132.923,66.858l-199.302,283.649c-11.965,15.979-32.046,25.519-53.717,25.52
			c-18.119,0.002-34.613-6.526-46.439-18.378l-55.978-55.978c-20.835-20.836-48.539-32.311-78.009-32.311h-7.576
			c-29.469,0-57.174,11.475-78.01,32.311l-81.861,81.861c-4.145,4.145-6.428,9.653-6.428,15.51s2.283,11.363,6.428,15.508
			l8.164,8.164l-253.846,253.853c-19.411,19.408-30.101,45.206-30.101,72.643c0,27.432,10.69,53.23,30.103,72.646l41.381,41.409
			c4.071,4.085,9.729,6.428,15.525,6.428c3.714,0,7.383-0.956,10.625-2.772l110.251-61.232l-61.234,110.255
			c-4.734,8.505-3.227,19.259,3.664,26.151l203.021,202.993c19.409,19.41,45.208,30.101,72.644,30.101
			c27.432,0,53.23-10.69,72.643-30.101l253.853-253.852l8.163,8.165c4.146,4.145,9.653,6.427,15.511,6.427
			c5.854,0,11.363-2.283,15.511-6.427l81.86-81.861c20.836-20.836,32.311-48.541,32.311-78.011v-7.576
			c0-29.469-11.475-57.174-32.311-78.01l-55.978-55.978c-12.365-12.365-19.457-29.492-19.457-46.989
			c0-20.81,9.687-40.497,25.912-52.665l284.997-200.306c41.451-31.075,66.194-80.571,66.194-132.421
			C-32.408,1306.688-106.691,1232.406-197.995,1232.406z M-739.992,2346.475c-10.636,10.635-25.808,16.734-41.625,16.734
			s-30.989-6.1-41.625-16.734l-191.324-191.299l90.508-162.918c4.733-8.505,3.226-19.259-3.659-26.146
			c-4.164-4.152-9.687-6.438-15.551-6.438c-3.705,0-7.368,0.955-10.609,2.771l-162.915,90.506l-29.683-29.711
			c-11.122-11.122-17.248-25.904-17.248-41.624c0-15.719,6.125-30.501,17.248-41.623l253.852-253.851l406.483,406.482
			L-739.992,2346.475z M-124.313,1494.875l-285.021,200.303c-27.586,20.73-44.05,53.696-44.05,88.204
			c0,29.47,11.475,57.174,32.311,78.01l55.978,55.978c12.365,12.364,19.457,29.491,19.457,46.989v7.576
			c0,17.499-7.092,34.627-19.457,46.99l-66.351,66.352l-453.832-453.829l66.351-66.352c12.365-12.365,29.492-19.457,46.99-19.457
			h7.577c17.498,0,34.625,7.092,46.989,19.457l55.978,55.977c19.749,19.749,47.123,30.625,77.081,30.625
			c35.886,0,69.388-16.092,89.634-43.05l199.304-283.677c22.859-30.49,59.263-48.693,97.38-48.693
			c67.114,0,121.716,54.602,121.716,121.715C-76.279,1436.111-94.236,1472.33-124.313,1494.875z"/>
		<path d="M-189.024,1340.151c-26.948,0-48.872,21.924-48.872,48.872c0,26.947,21.924,48.871,48.872,48.871
			s48.873-21.924,48.873-48.871C-140.151,1362.075-162.076,1340.151-189.024,1340.151z"/>
	</g>
	<path d="M-1335.431,840.893c0-2.056,0-2.056,0-4.112v-20.552l-10.275-6.166c-92.488-49.328-135.648-119.207-135.648-213.752
		c0-80.156,34.939-147.98,98.655-193.196l24.662-12.331l-16.441-20.552c-41.106-51.381-110.986-121.261-219.917-121.261
		c-20.755,0-40.06,5.098-59.208,12.667c45.074-48.79,69.485-110.718,69.485-181.201c0-12.331,0-24.664-2.055-39.051v-4.112v-2.055
		l-2.056-6.166c-2.055-4.111-4.111-10.276-10.275-12.331c-6.166-2.055-10.274-4.112-16.442-2.055
		c-108.931,30.83-224.027,117.151-224.027,269.242c0,8.768,0.012,17.55,0.942,27.249c-17.92-4.679-33.632-13.433-50.27-23.137
		c-28.773-16.443-59.603-34.939-106.875-34.939c-207.584,0-351.454,189.087-351.454,357.621
		c0,92.487,28.773,252.801,110.985,400.782c63.714,115.096,137.703,174.699,215.805,174.699c28.773,0,57.549-10.276,90.434-20.552
		c32.884-14.388,69.879-26.719,106.875-26.719c30.83,0,61.658,12.331,92.488,22.608c30.829,10.277,63.715,22.609,96.6,22.609
		c162.365,0,300.073-203.473,300.073-330.901C-1333.374,849.113-1335.431,845.002-1335.431,840.893z M-1627.277,61.938
		c2.052,8.221,2.052,14.387,0,20.551c0,139.76-104.822,201.418-170.59,226.083c-2.055-10.277-2.055-18.498-2.055-24.664
		C-1799.924,164.701-1713.603,92.766-1627.277,61.938z M-1374.479,845.002c0,2.055,0,4.109,0,6.166
		c0,154.146-160.312,289.797-258.967,289.797c-26.718,0-55.493-10.276-84.268-20.552c-34.938-12.334-69.878-24.664-106.876-24.664
		c-45.214,0-86.32,14.388-121.26,28.773c-26.718,10.275-53.437,20.552-73.99,20.552c-78.101,0-141.815-82.212-178.81-152.091
		c-78.101-141.815-106.875-293.907-106.875-382.284c0-187.031,164.423-316.515,310.347-316.515c34.94,0,59.604,14.387,88.379,30.83
		c28.773,16.442,57.549,32.884,98.654,32.884c53.438,0,96.6-20.552,133.595-39.051c30.83-14.388,55.492-26.718,82.213-26.718
		c80.155,0,135.648,43.16,174.698,88.379c-65.77,51.382-102.764,127.427-102.764,215.805c0,106.875,47.272,187.031,145.925,242.524
		C-1374.479,840.893-1374.479,842.947-1374.479,845.002z"/>
	<g>
		<path d="M720.703,585.703H596.25c-156.797,0-172.969,230.625-158.438,245.391c39.141,36.562,124.219,62.109,221.953,62.109
			s178.125-24.375,214.688-58.594C889.219,822.188,877.266,585.703,720.703,585.703z M840.234,800.391
			c-29.297,26.953-100.078,43.828-180.469,43.828s-151.172-17.109-180.469-43.828c-2.344-7.266,11.25-168.281,119.531-168.281
			h124.453C830.391,631.875,842.812,792.891,840.234,800.391z"/>
		<path d="M657.422,570.938c73.125,0,134.297-58.594,131.719-131.719c0-73.125-58.594-131.719-131.719-131.719
			s-131.719,58.594-131.719,131.719S584.062,570.938,657.422,570.938z M657.422,356.25c48.75,0,85.312,36.562,85.312,82.969
			s-39.141,82.969-85.312,82.969s-85.547-36.562-85.547-82.969S611.016,356.25,657.422,356.25z"/>
		<path d="M1035.469,26.719H262.031c-58.594,0-105,46.406-105,105v214.688h-97.5v48.75h97.5v180.469h-97.5v48.75h97.5v180.469h-97.5
			v48.75h97.5v214.688c0,58.594,46.406,105,105,105h771.094c58.594,0,105-46.406,107.344-105V131.719
			C1140.469,73.125,1094.062,26.719,1035.469,26.719z M1035.703,1124.766H262.266c-29.297,0-56.016-24.375-56.016-56.016V854.062
			h92.812v-48.75h-93.047V624.844h92.812v-48.75h-92.812V395.625h92.812v-48.75h-92.812V131.719
			c0-29.297,24.375-56.016,56.016-56.016h773.438c29.297,0,56.016,24.375,56.016,56.016v937.031h0.234
			C1091.719,1098.047,1067.344,1124.766,1035.703,1124.766z"/>
	</g>
	<path d="M-163.521,1000.274l-19.307-7.741C-85.737,884.528-32.444,745.801-32.444,600c0-72.738-13.434-143.791-38.798-210.051
		h0.298c-16.414-42.954-37.917-83.901-64.2-122.096c-0.266-0.418-0.546-0.82-0.842-1.21c-18.191-26.296-38.655-51.276-61.289-74.7
		c-0.081-0.085-0.164-0.17-0.246-0.255c-2.319-2.397-4.652-4.785-7.018-7.149c-2.051-2.051-4.118-4.081-6.194-6.099
		c-0.304-0.296-0.612-0.589-0.918-0.884c-1.913-1.851-3.837-3.688-5.771-5.51c-0.346-0.325-0.691-0.649-1.038-0.974
		c-54.441-51.05-116.97-90.615-184.633-117.461v0.18C-471.595,26.566-544.953,12.444-620,12.444
		c-156.943,0-304.489,61.115-415.461,172.095C-1146.44,295.511-1207.556,443.061-1207.556,600
		c0,145.989,53.367,284.735,150.616,392.779l-19.063,7.466c-7.021,2.536-66.72,26.348-66.72,102.255v66.483
		c0,10.25,8.305,18.572,18.555,18.572h106.732h16.614h19.791h94.932h35.038c0.895,0,1.77-0.085,2.631-0.209
		c0.861,0.124,1.734,0.209,2.63,0.209h133.484h20.774h42.653h100.817h154.269h0.002h0.002h23.672h16.612h19.796h94.927h123.353
		c10.25,0,18.553-8.438,18.553-18.684V1102.5C-96.881,1026.885-156.129,1002.962-163.521,1000.274z M-219.664,977.762l-18.289-7.336
		v-10.558c20.213-11.854,35.748-30.842,43.13-53.49c26.994-2.133,48.315-24.731,48.315-52.262c0-16.374-7.547-31.008-19.332-40.643
		v-32.977c0-63.581-47.712-116.192-109.202-124c0.7-12.579,1.184-25.254,1.418-37.942h203.728
		C-74.355,752.858-127.112,879.719-219.664,977.762z M-286.649,935.992h-16.921c-32.786,0-59.459-26.671-59.459-59.453v-49.093
		c24.171-2.624,66.981-11.072,99.965-38.618c7.388,12.672,18.82,26.376,35.872,34.379v53.329
		C-227.194,909.321-253.866,935.992-286.649,935.992z M-275.059,972.379v10.288l-20.675,21.45l-19.427-18.919v-12.821
		c3.805,0.457,7.667,0.721,11.592,0.721h16.921C-282.722,973.1-278.864,972.836-275.059,972.379z M-500.648,581.448
		c-0.021-0.003-0.038,0-0.057,0c-25.313-27.982-60.896-46.47-100.74-49.545V372.345c91.05-0.906,178.915-8.478,257.197-21.636
		c0.099,0.342,0.193,0.688,0.292,1.029c0.7,2.438,1.388,4.885,2.067,7.34c0.25,0.908,0.499,1.817,0.747,2.727
		c0.668,2.452,1.327,4.912,1.976,7.381c0.106,0.405,0.215,0.809,0.32,1.215c0.773,2.968,1.528,5.948,2.271,8.939
		c0.138,0.551,0.271,1.104,0.407,1.655c0.678,2.761,1.347,5.53,1.999,8.31c14.178,60.363,22.172,125.202,23.423,192.144H-500.648z
		 M-474.419,775.199c0,10.914-7.372,20.115-17.396,22.945v-45.896C-481.791,755.083-474.419,764.286-474.419,775.199z
		 M-299.749,692.568h8.872c48.485,0,87.925,39.443,87.925,87.932v11.941c-0.35-0.113-0.703-0.2-1.061-0.291
		c-0.17-0.047-0.339-0.103-0.512-0.146c-25.866-5.883-34.326-40.404-34.389-40.665c-1.608-7.111-7.233-12.619-14.379-14.079
		c-7.145-1.464-14.478,1.396-18.751,7.304c-33.599,46.447-108.498,46.978-109.48,46.978c-0.021,0-0.041,0-0.062,0
		c-0.638,0-1.271,0.035-1.893,0.098c-0.2,0.021-0.396,0.062-0.594,0.09c-0.418,0.055-0.836,0.105-1.245,0.19
		c-0.279,0.055-0.549,0.139-0.824,0.212c-0.318,0.08-0.64,0.148-0.95,0.245c-0.202,0.062-0.393,0.146-0.593,0.215V780.5
		C-387.685,732.012-348.237,692.568-299.749,692.568z M-190.086,866.62v-25.004c3.906,2.789,6.468,7.35,6.468,12.504
		C-183.618,859.275-186.18,863.831-190.086,866.62z M-69.901,581.444h-203.732c-1.352-74.973-10.899-147.551-27.892-214.686
		c-0.001-0.007-0.003-0.013-0.005-0.02c-0.938-3.709-1.901-7.401-2.885-11.076c-0.077-0.289-0.156-0.578-0.235-0.867
		c-0.969-3.608-1.954-7.206-2.97-10.782c39.148-7.775,75.382-17.036,107.812-27.622c0.028-0.01,0.058-0.019,0.087-0.028
		c0.546-0.178,1.077-0.361,1.622-0.541c14.14-4.646,27.554-9.54,40.133-14.682c18.149,27.964,33.829,57.671,46.73,88.809h0.048
		C-86.324,450.175-72.132,514.925-69.901,581.444z M-403.094,93.955v0.172c88.92,38.273,165.818,99.316,223.29,175.764
		c-39.2,15.29-86.268,28.26-138.828,38.517c-14.526-43.274-32.375-83.614-53.36-120.018c-0.256-0.443-0.517-0.879-0.773-1.321
		c-0.785-1.355-1.574-2.705-2.367-4.045c-0.457-0.776-0.919-1.546-1.378-2.316c-0.696-1.165-1.396-2.323-2.097-3.477
		c-0.414-0.68-0.826-1.363-1.241-2.039c-1.048-1.705-2.099-3.398-3.157-5.078c-0.362-0.576-0.727-1.145-1.09-1.717
		c-0.806-1.269-1.613-2.53-2.424-3.784c-0.39-0.6-0.778-1.199-1.168-1.796c-1.049-1.607-2.103-3.205-3.161-4.788
		c-0.094-0.142-0.188-0.284-0.283-0.426c-1.173-1.749-2.354-3.479-3.539-5.198c-0.305-0.441-0.609-0.879-0.914-1.318
		c-0.995-1.433-1.993-2.855-2.995-4.268c-0.225-0.316-0.448-0.636-0.674-0.95c-1.237-1.733-2.479-3.45-3.728-5.151
		c-0.038-0.05-0.075-0.103-0.112-0.153v0.003c-20.251-27.55-42.105-50.916-65.202-69.846
		C-446.098,77.066-424.333,84.839-403.094,93.955z M-601.448,50.583h0.003c73.837,7.886,143.306,62.671,197.302,156.34
		c0.353,0.612,0.698,1.235,1.05,1.85v0.001c10.397,18.206,19.981,37.451,28.721,57.604c0.009,0.02,0.018,0.04,0.025,0.061
		c0.958,2.209,1.905,4.429,2.841,6.659c0.065,0.15,0.127,0.304,0.19,0.455c0.88,2.099,1.751,4.206,2.613,6.323
		c0.158,0.39,0.314,0.784,0.472,1.176c0.764,1.887,1.524,3.777,2.273,5.68c0.285,0.721,0.562,1.449,0.844,2.173
		c0.618,1.583,1.236,3.166,1.844,4.76c0.509,1.333,1.006,2.676,1.507,4.016c0.373,0.995,0.752,1.986,1.12,2.987
		c1.748,4.736,3.451,9.516,5.11,14.335c-15.477,2.534-31.361,4.835-47.561,6.917v0.054c-62.129,7.976-129.22,12.567-198.354,13.26
		V50.583z M-613.213,568.511c63.201,0,114.616,51.421,114.616,114.624v22.673c-0.123-0.098-0.255-0.186-0.38-0.283
		c-0.27-0.212-0.542-0.418-0.825-0.613c-0.218-0.15-0.442-0.292-0.668-0.435c-0.276-0.176-0.552-0.351-0.842-0.512
		c-0.265-0.148-0.536-0.28-0.808-0.415c-0.26-0.129-0.517-0.259-0.782-0.379c-0.326-0.144-0.664-0.263-0.997-0.39
		c-0.23-0.087-0.461-0.177-0.695-0.255c-0.374-0.123-0.759-0.222-1.142-0.321c-0.172-0.049-0.338-0.105-0.512-0.146
		c-35.248-8.016-46.414-53.97-46.508-54.37c-1.609-7.11-7.233-12.619-14.378-14.078c-7.144-1.468-14.479,1.396-18.752,7.303
		c-43.45,60.068-139.43,60.684-140.696,60.684c-0.003,0-0.005,0-0.005,0c-0.025,0-0.044,0-0.067,0c-0.638,0-1.271,0.032-1.894,0.095
		c-0.194,0.023-0.383,0.062-0.577,0.089c-0.421,0.057-0.848,0.108-1.261,0.191c-0.264,0.055-0.521,0.138-0.785,0.201
		c-0.33,0.082-0.667,0.156-0.989,0.255c-0.301,0.095-0.59,0.216-0.883,0.323c-0.27,0.099-0.549,0.187-0.815,0.296
		c-0.339,0.145-0.663,0.314-0.986,0.474c-0.211,0.104-0.425,0.192-0.631,0.306c-0.336,0.179-0.647,0.385-0.97,0.582
		c-0.183,0.117-0.376,0.221-0.56,0.343c-0.299,0.201-0.581,0.426-0.87,0.646c-0.186,0.141-0.378,0.269-0.561,0.418
		c-0.169,0.141-0.327,0.299-0.495,0.445v-23.129c0-63.203,51.417-114.621,114.617-114.621H-613.213z M-607.923,882.247h-21.166
		c-43.566,0-79.01-35.441-79.01-79.008v-65.507c29.612-2.728,88.166-13.021,130.936-51.417
		c9.027,17.083,24.158,36.916,48.244,47.202v69.72C-528.922,846.806-564.361,882.247-607.923,882.247z M-588.783,917.751v18.896
		c0,0.026,0,0.05,0,0.068v1.125l-30.402,31.547l-29.05-28.294v-23.347c6.231,1.039,12.622,1.606,19.146,1.606h21.166
		C-601.403,919.353-595.016,918.785-588.783,917.751z M-929.254,581.448v-0.003c1.521-81.463,13.022-159.821,33.511-230.775
		c78.394,13.177,166.353,20.764,257.188,21.678v159.746c-38.895,3.643-73.567,22.008-98.366,49.477
		c-0.675-0.074-1.361-0.122-2.058-0.122H-929.254z M-745.207,752.058v46.283c-10.403-2.571-18.146-11.955-18.146-23.142
		C-763.354,764.016-755.61,754.633-745.207,752.058z M-638.555,50.583v284.649c-86.966-0.881-170.987-7.959-245.914-20.231
		c13.41-38.93,29.674-75.221,48.613-108.078C-781.86,113.254-712.391,58.469-638.555,50.583z M-771.908,70.884
		c-35.387,29.057-67.861,68.517-96.1,117.506c-20.984,36.403-38.834,76.743-53.36,120.018
		c-52.561-10.257-99.627-23.227-138.828-38.517C-989.134,175.365-888.377,104.374-771.908,70.884z M-1082.034,301.141
		c41.809,17.085,92.68,31.51,149.671,42.83c-20.824,73.368-32.495,153.939-34.005,237.475h-203.73
		C-1166.668,478.381-1134.776,382.404-1082.034,301.141z M-933.959,935.992h-16.924c-32.786,0-59.458-26.671-59.458-59.456v-49.069
		c24.165-2.614,66.961-11.076,99.965-38.639c7.39,12.674,18.82,26.38,35.87,34.384v53.327
		C-874.508,909.321-901.177,935.992-933.959,935.992z M-922.375,972.379v10.285l-20.671,21.451l-19.428-18.92v-12.814
		c3.804,0.458,7.665,0.719,11.591,0.719h16.924C-930.039,973.1-926.176,972.839-922.375,972.379z M-886.218,751.337
		c-1.608-7.11-7.234-12.618-14.379-14.078c-7.145-1.465-14.48,1.396-18.749,7.303c-33.624,46.475-108.583,46.984-109.487,46.984
		c-0.023,0-0.041,0-0.062,0c-0.638,0-1.271,0.031-1.893,0.094c-0.196,0.022-0.384,0.062-0.579,0.09
		c-0.42,0.055-0.847,0.108-1.26,0.19c-0.264,0.055-0.521,0.137-0.785,0.202c-0.33,0.083-0.665,0.155-0.989,0.255
		c-0.199,0.062-0.388,0.146-0.585,0.215V780.5c0-48.488,39.444-87.935,87.932-87.935h8.875c48.485,0,87.925,39.446,87.925,87.935
		v11.943h-0.005c-0.355-0.117-0.725-0.204-1.088-0.3c-0.163-0.04-0.321-0.098-0.486-0.137
		C-877.696,786.124-886.155,751.596-886.218,751.337z M-1170.102,618.555h203.729c0.231,12.778,0.726,25.542,1.431,38.202
		c-60.503,8.701-107.159,60.864-107.159,123.74v32.831c-11.899,9.632-19.531,24.328-19.531,40.788
		c0,27.734,21.65,50.454,48.933,52.295c7.381,22.634,22.91,41.605,43.116,53.457v10.451l-20.269,7.936
		C-1112.715,880.136-1165.64,753.148-1170.102,618.555z M-1047.453,841.202v25.826c-4.246-2.736-7.071-7.496-7.071-12.908
		C-1054.524,848.703-1051.699,843.943-1047.453,841.202z M-864.358,1085.831v64.617h-21.745h-94.929h-19.791h-16.612h-88.177V1102.5
		c0-51.73,40.44-66.722,42.013-67.279c0.287-0.097,0.574-0.2,0.855-0.313l69.981-27.405l37.186,36.218
		c3.466,3.376,8.111,5.262,12.944,5.262c0.097,0,0.195,0,0.295-0.002c4.937-0.075,9.642-2.121,13.063-5.679l35.125-36.45
		l43.417,17.407C-858.965,1041.107-864.358,1061.513-864.358,1085.831z M-885.271,970.426v-10.553
		c20.219-11.856,35.752-30.844,43.134-53.495c26.994-2.133,48.319-24.731,48.319-52.262c0-16.374-7.549-31.008-19.335-40.643
		v-32.977c0-65.455-50.562-119.287-114.671-124.578c-0.707-12.378-1.196-24.863-1.433-37.367h167.683
		c-9.264,19.607-14.469,41.491-14.469,64.578v43.296c-14.819,11.134-24.425,28.851-24.425,48.773
		c0,33.303,26.847,60.44,60.034,60.949c8.707,29.411,28.765,53.982,55.085,68.623v18.926h0.005l-98.479,38.566
		c-12.541,4.314-29.897,14.267-45.292,30.683L-885.271,970.426z M-837.397,866.622v-25.013c3.908,2.791,6.472,7.352,6.472,12.509
		S-833.489,863.833-837.397,866.622z M-412.358,1150.448H-548.07h-143.471h-20.774c-1.041,0-2.055,0.107-3.05,0.271l-111.881-0.271
		v-64.619c0-68.176,53.551-87.785,55.712-88.547c0.286-0.097,0.571-0.2,0.856-0.312l90.354-35.387
		c0.195,0.211,0.379,0.432,0.586,0.634l48.019,46.771c3.468,3.374,8.115,5.263,12.946,5.263c0.097,0,0.195,0,0.292-0.002
		c4.937-0.077,9.645-2.122,13.066-5.679l46.107-47.84l90.233,36.186c0.328,0.133,0.543,0.215,0.879,0.326
		c2.279,0.801,55.836,20.417,55.836,88.588V1150.448z M-410.375,993.072c-15.394-16.456-32.771-26.445-45.339-30.783l-95.964-38.485
		v-19.032c26.327-14.643,46.379-39.222,55.086-68.641c32.835-0.908,59.275-27.884,59.275-60.93c0-19.809-9.502-37.436-24.177-48.58
		v-43.489c0-23.084-5.202-44.97-14.469-64.577h165.211c-0.241,12.555-0.731,25.09-1.447,37.527
		c-63.131,6.264-112.601,59.669-112.601,124.415v32.836c-11.897,9.629-19.526,24.327-19.526,40.785
		c0,27.736,21.649,50.457,48.933,52.295c7.381,22.635,22.912,41.605,43.118,53.458v10.45L-410.375,993.072z M-400.138,841.202
		v25.826c-4.248-2.736-7.07-7.496-7.07-12.908C-407.208,848.703-404.384,843.94-400.138,841.202z M-133.986,1150.448h-0.002
		h-104.799h-94.927h-19.796h-16.611h-5.124v-64.619c0-24.22-5.344-44.557-13.524-61.364l43.324-16.965l37.181,36.218
		c3.466,3.376,8.11,5.264,12.946,5.264c0.097,0,0.195,0,0.292-0.002c4.937-0.075,9.642-2.121,13.066-5.679l35.127-36.45l69.831,28
		c0.326,0.133,0.508,0.203,0.846,0.317c1.722,0.61,42.17,15.604,42.17,67.335V1150.448z"/>
</g>
<g id="Layer_1">
</g>
</svg>
