<svg width="40" height="41" viewBox="0 0 40 41" fill="none" xmlns="http://www.w3.org/2000/svg">
<path d="M13.75 32.8333V37.8333" stroke="#CA2B48" stroke-width="2.5" stroke-linecap="round" stroke-linejoin="round"/>
<path d="M6.25 2.83325H21.25C21.913 2.83325 22.5489 3.09664 23.0178 3.56548C23.4866 4.03433 23.75 4.67021 23.75 5.33325V37.5208C23.75 37.6036 23.7171 37.6831 23.6585 37.7417C23.5999 37.8003 23.5204 37.8333 23.4375 37.8333H3.75V5.33325C3.75 4.67021 4.01339 4.03433 4.48223 3.56548C4.95107 3.09664 5.58696 2.83325 6.25 2.83325V2.83325Z" stroke="#CA2B48" stroke-width="2.5" stroke-linecap="round" stroke-linejoin="round"/>
<path d="M25 15.3333H33.75C34.413 15.3333 35.0489 15.5966 35.5178 16.0655C35.9866 16.5343 36.25 17.1702 36.25 17.8333V37.8333H23.75V16.5833C23.75 16.2517 23.8817 15.9338 24.1161 15.6994C24.3505 15.4649 24.6685 15.3333 25 15.3333Z" stroke="#CA2B48" stroke-width="2.5" stroke-linecap="round" stroke-linejoin="round"/>
<path d="M7.50037 32.8337L6.61648 31.9498L7.50037 32.8337Z" fill="#CA2B48" stroke="#CA2B48" stroke-width="2.5"/>
<path d="M7.66247 27.8231C7.40358 27.857 7.1406 27.8089 6.91042 27.6857C6.68024 27.5625 6.49442 27.3703 6.37904 27.1361C6.26366 26.9019 6.22452 26.6374 6.26711 26.3798C6.30969 26.1222 6.43187 25.8844 6.61648 25.6998C6.8011 25.5152 7.03889 25.393 7.29649 25.3504C7.55408 25.3078 7.81854 25.347 8.05275 25.4624C8.28696 25.5777 8.47917 25.7635 8.60239 25.9937C8.72562 26.2239 8.77367 26.4869 8.73981 26.7458C8.70408 27.019 8.57908 27.2727 8.38425 27.4676C8.18942 27.6624 7.93567 27.7874 7.66247 27.8231V27.8231Z" fill="#CA2B48"/>
<path d="M7.66247 21.5731C7.40358 21.607 7.1406 21.5589 6.91042 21.4357C6.68024 21.3125 6.49442 21.1203 6.37904 20.8861C6.26366 20.6519 6.22452 20.3874 6.26711 20.1298C6.30969 19.8722 6.43187 19.6344 6.61648 19.4498C6.8011 19.2652 7.03889 19.143 7.29649 19.1004C7.55408 19.0578 7.81854 19.097 8.05275 19.2124C8.28696 19.3277 8.47917 19.5135 8.60239 19.7437C8.72562 19.9739 8.77367 20.2369 8.73981 20.4958C8.70408 20.769 8.57908 21.0227 8.38425 21.2176C8.18942 21.4124 7.93567 21.5374 7.66247 21.5731V21.5731Z" fill="#CA2B48"/>
<path d="M7.66247 15.3231C7.40358 15.357 7.1406 15.3089 6.91042 15.1857C6.68024 15.0625 6.49442 14.8703 6.37904 14.6361C6.26366 14.4019 6.22452 14.1374 6.26711 13.8798C6.30969 13.6222 6.43187 13.3844 6.61648 13.1998C6.8011 13.0152 7.03889 12.893 7.29649 12.8504C7.55408 12.8078 7.81854 12.847 8.05275 12.9624C8.28696 13.0777 8.47917 13.2635 8.60239 13.4937C8.72562 13.7239 8.77367 13.9869 8.73981 14.2458C8.70408 14.519 8.57908 14.7727 8.38425 14.9676C8.18942 15.1624 7.93567 15.2874 7.66247 15.3231V15.3231Z" fill="#CA2B48"/>
<path d="M7.66247 9.07313C7.40358 9.10698 7.1406 9.05893 6.91042 8.93571C6.68024 8.81248 6.49442 8.62028 6.37904 8.38606C6.26366 8.15185 6.22452 7.88739 6.26711 7.6298C6.30969 7.37221 6.43187 7.13441 6.61648 6.9498C6.8011 6.76518 7.03889 6.643 7.29649 6.60042C7.55408 6.55783 7.81854 6.59698 8.05275 6.71235C8.28696 6.82773 8.47917 7.01355 8.60239 7.24373C8.72562 7.47391 8.77367 7.7369 8.73981 7.99578C8.70408 8.26899 8.57908 8.52273 8.38425 8.71756C8.18942 8.9124 7.93567 9.03739 7.66247 9.07313Z" fill="#CA2B48"/>
<path d="M13.9125 27.8231C13.6536 27.857 13.3906 27.8089 13.1604 27.6857C12.9302 27.5625 12.7444 27.3703 12.629 27.1361C12.5137 26.9019 12.4745 26.6374 12.5171 26.3798C12.5597 26.1222 12.6819 25.8844 12.8665 25.6998C13.0511 25.5152 13.2889 25.393 13.5465 25.3504C13.8041 25.3078 14.0685 25.347 14.3027 25.4624C14.537 25.5777 14.7292 25.7635 14.8524 25.9937C14.9756 26.2239 15.0237 26.4869 14.9898 26.7458C14.9541 27.019 14.8291 27.2727 14.6343 27.4676C14.4394 27.6624 14.1857 27.7874 13.9125 27.8231V27.8231Z" fill="#CA2B48"/>
<path d="M13.9125 21.5731C13.6536 21.607 13.3906 21.5589 13.1604 21.4357C12.9302 21.3125 12.7444 21.1203 12.629 20.8861C12.5137 20.6519 12.4745 20.3874 12.5171 20.1298C12.5597 19.8722 12.6819 19.6344 12.8665 19.4498C13.0511 19.2652 13.2889 19.143 13.5465 19.1004C13.8041 19.0578 14.0685 19.097 14.3027 19.2124C14.537 19.3277 14.7292 19.5135 14.8524 19.7437C14.9756 19.9739 15.0237 20.2369 14.9898 20.4958C14.9541 20.769 14.8291 21.0227 14.6343 21.2176C14.4394 21.4124 14.1857 21.5374 13.9125 21.5731V21.5731Z" fill="#CA2B48"/>
<path d="M13.9125 15.3231C13.6536 15.357 13.3906 15.3089 13.1604 15.1857C12.9302 15.0625 12.7444 14.8703 12.629 14.6361C12.5137 14.4019 12.4745 14.1374 12.5171 13.8798C12.5597 13.6222 12.6819 13.3844 12.8665 13.1998C13.0511 13.0152 13.2889 12.893 13.5465 12.8504C13.8041 12.8078 14.0685 12.847 14.3027 12.9624C14.537 13.0777 14.7292 13.2635 14.8524 13.4937C14.9756 13.7239 15.0237 13.9869 14.9898 14.2458C14.9541 14.519 14.8291 14.7727 14.6343 14.9676C14.4394 15.1624 14.1857 15.2874 13.9125 15.3231V15.3231Z" fill="#CA2B48"/>
<path d="M13.9125 9.07313C13.6536 9.10698 13.3906 9.05893 13.1604 8.93571C12.9302 8.81248 12.7444 8.62028 12.629 8.38606C12.5137 8.15185 12.4745 7.88739 12.5171 7.6298C12.5597 7.37221 12.6819 7.13441 12.8665 6.9498C13.0511 6.76518 13.2889 6.643 13.5465 6.60042C13.8041 6.55783 14.0685 6.59698 14.3027 6.71235C14.537 6.82773 14.7292 7.01355 14.8524 7.24373C14.9756 7.47391 15.0237 7.7369 14.9898 7.99578C14.9541 8.26899 14.8291 8.52273 14.6343 8.71756C14.4394 8.9124 14.1857 9.03739 13.9125 9.07313V9.07313Z" fill="#CA2B48"/>
<path d="M20.1625 34.0731C19.9036 34.107 19.6406 34.0589 19.4104 33.9357C19.1802 33.8125 18.9944 33.6203 18.879 33.3861C18.7637 33.1519 18.7245 32.8874 18.7671 32.6298C18.8097 32.3722 18.9319 32.1344 19.1165 31.9498C19.3011 31.7652 19.5389 31.643 19.7965 31.6004C20.0541 31.5578 20.3185 31.597 20.5528 31.7124C20.787 31.8277 20.9792 32.0135 21.1024 32.2437C21.2256 32.4739 21.2737 32.7369 21.2398 32.9958C21.2041 33.269 21.0791 33.5227 20.8843 33.7176C20.6894 33.9124 20.4357 34.0374 20.1625 34.0731V34.0731Z" fill="#CA2B48"/>
<path d="M20.1625 27.8231C19.9036 27.857 19.6406 27.8089 19.4104 27.6857C19.1802 27.5625 18.9944 27.3703 18.879 27.1361C18.7637 26.9019 18.7245 26.6374 18.7671 26.3798C18.8097 26.1222 18.9319 25.8844 19.1165 25.6998C19.3011 25.5152 19.5389 25.393 19.7965 25.3504C20.0541 25.3078 20.3185 25.347 20.5528 25.4624C20.787 25.5777 20.9792 25.7635 21.1024 25.9937C21.2256 26.2239 21.2737 26.4869 21.2398 26.7458C21.2041 27.019 21.0791 27.2727 20.8843 27.4676C20.6894 27.6624 20.4357 27.7874 20.1625 27.8231V27.8231Z" fill="#CA2B48"/>
<path d="M20.1625 21.5731C19.9036 21.607 19.6406 21.5589 19.4104 21.4357C19.1802 21.3125 18.9944 21.1203 18.879 20.8861C18.7637 20.6519 18.7245 20.3874 18.7671 20.1298C18.8097 19.8722 18.9319 19.6344 19.1165 19.4498C19.3011 19.2652 19.5389 19.143 19.7965 19.1004C20.0541 19.0578 20.3185 19.097 20.5528 19.2124C20.787 19.3277 20.9792 19.5135 21.1024 19.7437C21.2256 19.9739 21.2737 20.2369 21.2398 20.4958C21.2041 20.769 21.0791 21.0227 20.8843 21.2176C20.6894 21.4124 20.4357 21.5374 20.1625 21.5731V21.5731Z" fill="#CA2B48"/>
<path d="M20.8855 14.9681C21.3722 14.4815 21.3702 13.6906 20.8811 13.2015C20.3921 12.7124 19.6011 12.7104 19.1145 13.1971C18.6278 13.6837 18.6298 14.4747 19.1189 14.9637C19.6079 15.4528 20.3989 15.4548 20.8855 14.9681Z" fill="#CA2B48"/>
<path d="M20.1625 9.07313C19.9036 9.10698 19.6406 9.05893 19.4104 8.93571C19.1802 8.81248 18.9944 8.62028 18.879 8.38606C18.7637 8.15185 18.7245 7.88739 18.7671 7.6298C18.8097 7.37221 18.9319 7.13441 19.1165 6.9498C19.3011 6.76518 19.5389 6.643 19.7965 6.60042C20.0541 6.55783 20.3185 6.59698 20.5528 6.71235C20.787 6.82773 20.9792 7.01355 21.1024 7.24373C21.2256 7.47391 21.2737 7.7369 21.2398 7.99578C21.2041 8.26899 21.0791 8.52273 20.8843 8.71756C20.6894 8.9124 20.4357 9.03739 20.1625 9.07313V9.07313Z" fill="#CA2B48"/>
<path d="M31.25 31.5833C31.0028 31.5833 30.7611 31.6566 30.5555 31.7939C30.35 31.9313 30.1898 32.1265 30.0952 32.3549C30.0005 32.5833 29.9758 32.8346 30.024 33.0771C30.0723 33.3196 30.1913 33.5423 30.3661 33.7171C30.5409 33.892 30.7637 34.011 31.0061 34.0592C31.2486 34.1075 31.4999 34.0827 31.7284 33.9881C31.9568 33.8935 32.152 33.7333 32.2893 33.5277C32.4267 33.3222 32.5 33.0805 32.5 32.8333C32.5 32.5017 32.3683 32.1838 32.1339 31.9494C31.8995 31.7149 31.5815 31.5833 31.25 31.5833Z" fill="#CA2B48"/>
<path d="M31.25 25.3333C31.0028 25.3333 30.7611 25.4066 30.5555 25.5439C30.35 25.6813 30.1898 25.8765 30.0952 26.1049C30.0005 26.3333 29.9758 26.5846 30.024 26.8271C30.0723 27.0696 30.1913 27.2923 30.3661 27.4671C30.5409 27.642 30.7637 27.761 31.0061 27.8092C31.2486 27.8575 31.4999 27.8327 31.7284 27.7381C31.9568 27.6435 32.152 27.4833 32.2893 27.2777C32.4267 27.0722 32.5 26.8305 32.5 26.5833C32.5 26.2517 32.3683 25.9338 32.1339 25.6994C31.8995 25.4649 31.5815 25.3333 31.25 25.3333Z" fill="#CA2B48"/>
<path d="M31.25 19.0833C31.0028 19.0833 30.7611 19.1566 30.5555 19.2939C30.35 19.4313 30.1898 19.6265 30.0952 19.8549C30.0005 20.0833 29.9758 20.3346 30.024 20.5771C30.0723 20.8196 30.1913 21.0423 30.3661 21.2171C30.5409 21.392 30.7637 21.511 31.0061 21.5592C31.2486 21.6075 31.4999 21.5827 31.7284 21.4881C31.9568 21.3935 32.152 21.2333 32.2893 21.0277C32.4267 20.8222 32.5 20.5805 32.5 20.3333C32.5 20.0017 32.3683 19.6838 32.1339 19.4494C31.8995 19.2149 31.5815 19.0833 31.25 19.0833Z" fill="#CA2B48"/>
<path d="M26.25 31.5833C26.0028 31.5833 25.7611 31.6566 25.5555 31.7939C25.35 31.9313 25.1898 32.1265 25.0952 32.3549C25.0005 32.5833 24.9758 32.8346 25.024 33.0771C25.0723 33.3196 25.1913 33.5423 25.3661 33.7171C25.5409 33.892 25.7637 34.011 26.0061 34.0592C26.2486 34.1075 26.4999 34.0827 26.7284 33.9881C26.9568 33.8935 27.152 33.7333 27.2893 33.5277C27.4267 33.3222 27.5 33.0805 27.5 32.8333C27.5 32.5017 27.3683 32.1838 27.1339 31.9494C26.8995 31.7149 26.5815 31.5833 26.25 31.5833Z" fill="#CA2B48"/>
<path d="M26.25 25.3333C26.0028 25.3333 25.7611 25.4066 25.5555 25.5439C25.35 25.6813 25.1898 25.8765 25.0952 26.1049C25.0005 26.3333 24.9758 26.5846 25.024 26.8271C25.0723 27.0696 25.1913 27.2923 25.3661 27.4671C25.5409 27.642 25.7637 27.761 26.0061 27.8092C26.2486 27.8575 26.4999 27.8327 26.7284 27.7381C26.9568 27.6435 27.152 27.4833 27.2893 27.2777C27.4267 27.0722 27.5 26.8305 27.5 26.5833C27.5 26.2517 27.3683 25.9338 27.1339 25.6994C26.8995 25.4649 26.5815 25.3333 26.25 25.3333Z" fill="#CA2B48"/>
<path d="M26.25 19.0833C26.0028 19.0833 25.7611 19.1566 25.5555 19.2939C25.35 19.4313 25.1898 19.6265 25.0952 19.8549C25.0005 20.0833 24.9758 20.3346 25.024 20.5771C25.0723 20.8196 25.1913 21.0423 25.3661 21.2171C25.5409 21.392 25.7637 21.511 26.0061 21.5592C26.2486 21.6075 26.4999 21.5827 26.7284 21.4881C26.9568 21.3935 27.152 21.2333 27.2893 21.0277C27.4267 20.8222 27.5 20.5805 27.5 20.3333C27.5 20.0017 27.3683 19.6838 27.1339 19.4494C26.8995 19.2149 26.5815 19.0833 26.25 19.0833Z" fill="#CA2B48"/>
</svg>
