<svg width="40" height="41" viewBox="0 0 40 41" fill="none" xmlns="http://www.w3.org/2000/svg">
<path d="M20 16.5833C28.2843 16.5833 35 13.785 35 10.3333C35 6.88147 28.2843 4.08325 20 4.08325C11.7157 4.08325 5 6.88147 5 10.3333C5 13.785 11.7157 16.5833 20 16.5833Z" stroke="#CA2B48" stroke-width="2.5" stroke-miterlimit="10" stroke-linecap="round"/>
<path d="M35 17.052C35 20.5036 28.2812 23.302 20 23.302C11.7188 23.302 5 20.5036 5 17.052" stroke="#CA2B48" stroke-width="2.5" stroke-miterlimit="10" stroke-linecap="round"/>
<path d="M35 23.7708C35 27.2223 28.2812 30.0208 20 30.0208C11.7188 30.0208 5 27.2223 5 23.7708" stroke="#CA2B48" stroke-width="2.5" stroke-miterlimit="10" stroke-linecap="round"/>
<path d="M5 10.2739V30.3926C5 33.8114 11.7188 36.5832 20 36.5832C28.2812 36.5832 35 33.8114 35 30.3926V10.2739" stroke="#CA2B48" stroke-width="2.5" stroke-miterlimit="10" stroke-linecap="round"/>
</svg>
