<svg width="40" height="41" viewBox="0 0 40 41" fill="none" xmlns="http://www.w3.org/2000/svg">
<path d="M34.1149 14.7169C33.7172 15.112 33.1794 15.3337 32.6188 15.3337C32.0582 15.3337 31.5204 15.112 31.1227 14.7169L29.3664 12.9598C28.9712 12.5624 28.7493 12.0247 28.7493 11.4641C28.7493 10.9036 28.9712 10.3659 29.3664 9.96843L33.3422 5.99265C33.3499 5.98501 33.3555 5.97561 33.3587 5.96528C33.3619 5.95495 33.3625 5.944 33.3605 5.93338C33.3585 5.92275 33.354 5.91278 33.3472 5.90432C33.3405 5.89586 33.3318 5.88917 33.3219 5.88484C30.7563 4.7864 27.4289 5.34499 25.3164 7.44265C23.2946 9.44968 23.1797 12.4637 23.9203 15.0989C24.0256 15.4732 24.0253 15.8693 23.9196 16.2435C23.8138 16.6177 23.6067 16.9554 23.3211 17.2192L9.80549 29.7786C9.4829 30.0674 9.22261 30.4191 9.04054 30.8119C8.85846 31.2048 8.75843 31.6307 8.74656 32.0636C8.73468 32.4964 8.81122 32.9272 8.97148 33.3294C9.13174 33.7317 9.37236 34.0971 9.67863 34.4032C9.9849 34.7093 10.3504 34.9497 10.7527 35.1098C11.1551 35.2698 11.5859 35.3461 12.0187 35.334C12.4516 35.3219 12.8774 35.2217 13.2702 35.0394C13.663 34.8571 14.0145 34.5966 14.3031 34.2739L26.9711 20.7348C27.2321 20.454 27.5648 20.2495 27.9333 20.1435C28.3017 20.0375 28.6922 20.034 29.0625 20.1333C31.6766 20.8317 34.6477 20.7005 36.6461 18.7317C38.7938 16.6161 39.2571 12.877 38.2164 10.7372C38.2117 10.7278 38.2048 10.7197 38.1964 10.7134C38.1879 10.7072 38.1781 10.7031 38.1677 10.7014C38.1573 10.6998 38.1467 10.7006 38.1367 10.7038C38.1267 10.707 38.1176 10.7126 38.1102 10.72L34.1149 14.7169Z" stroke="#CA2B48" stroke-width="2.5" stroke-miterlimit="10" stroke-linecap="round"/>
<path d="M17.5 22.5208C16.1343 21.1926 15.5086 20.5747 15.0781 20.1544C14.8627 19.9403 14.7212 19.6631 14.6744 19.3631C14.6276 19.063 14.6779 18.7559 14.8179 18.4864C14.8917 18.3539 14.9838 18.2324 15.0914 18.1255L16.3164 16.9309C16.4431 16.8039 16.5922 16.7014 16.7562 16.6286C17.0151 16.514 17.3023 16.4797 17.5809 16.5301C17.8594 16.5805 18.1164 16.7134 18.3187 16.9114C18.7445 17.3247 19.5242 18.0833 20.9289 19.452" stroke="#CA2B48" stroke-width="2.5" stroke-linecap="round" stroke-linejoin="round"/>
<path d="M24.7711 23.0911C27.9703 26.0676 31.8507 29.5965 33.3648 30.8575C33.478 30.9508 33.5705 31.0668 33.6362 31.198C33.7019 31.3292 33.7394 31.4727 33.7463 31.6193C33.7533 31.7659 33.7294 31.9123 33.6764 32.0491C33.6233 32.1859 33.5422 32.3101 33.4382 32.4137L30.8304 35.0208C30.7243 35.1245 30.5982 35.2055 30.4597 35.2589C30.3213 35.3123 30.1734 35.337 30.0251 35.3314C29.8768 35.3259 29.7312 35.2902 29.5971 35.2266C29.4631 35.163 29.3434 35.0727 29.2453 34.9614C27.9539 33.4629 24.4726 29.7184 21.4898 26.602" stroke="#CA2B48" stroke-width="2.5" stroke-linecap="round" stroke-linejoin="round"/>
<path d="M1.3547 15.4504L3.65236 13.2051C3.68745 13.1706 3.72911 13.1435 3.77487 13.1254C3.82063 13.1073 3.86956 13.0985 3.91876 13.0997C4.01795 13.0986 4.1136 13.1365 4.18517 13.2051V13.2051C4.26837 13.2874 4.36924 13.3497 4.48011 13.3872C4.59098 13.4247 4.70893 13.4364 4.82501 13.4215C5.12423 13.3887 5.44376 13.2965 5.6508 13.0997C6.11954 12.6465 5.57736 11.7536 5.98986 11.1825C6.46153 10.5573 6.97799 9.9672 7.53517 9.41685C8.00392 8.95747 9.86642 7.20435 12.9961 5.94419C13.997 5.53964 15.0666 5.33219 16.1461 5.33326C17.9109 5.33326 19.2711 6.11451 19.7602 6.55747C20.0537 6.83677 20.3224 7.14104 20.5633 7.46685C20.3281 7.38015 20.0878 7.30788 19.8438 7.25044C19.3305 7.14157 18.8041 7.10841 18.2813 7.15201C17.2399 7.23716 15.9836 7.71919 15.3125 8.24576C14.2266 9.10513 13.7602 10.2551 13.6867 11.7387C13.6336 12.8419 13.8992 13.4653 16.507 16.0739C16.5962 16.1734 16.6432 16.3036 16.6383 16.4371C16.6333 16.5705 16.5767 16.6969 16.4805 16.7895L15.057 18.1958C14.9578 18.293 14.8248 18.3481 14.6858 18.3494C14.5468 18.3507 14.4128 18.2982 14.3117 18.2028C12.5977 16.4887 11.4485 15.6176 10.7961 15.2215C10.1438 14.8254 9.61876 14.7137 9.36642 14.6864C8.87083 14.6373 8.37219 14.7429 7.93908 14.9887C7.86308 15.0305 7.7936 15.0831 7.73283 15.145C7.63139 15.2498 7.55173 15.3737 7.49843 15.5095C7.44514 15.6453 7.41927 15.7903 7.42232 15.9362C7.42537 16.082 7.45728 16.2258 7.51621 16.3593C7.57513 16.4928 7.65991 16.6132 7.76564 16.7137L7.89923 16.8387C7.93391 16.8724 7.96148 16.9128 7.98031 16.9573C7.99913 17.0019 8.00883 17.0497 8.00883 17.0981C8.00883 17.1465 7.99913 17.1943 7.98031 17.2389C7.96148 17.2834 7.93391 17.3238 7.89923 17.3575L5.60392 19.5989C5.56915 19.6341 5.52764 19.6619 5.48186 19.6807C5.43609 19.6995 5.38699 19.7089 5.33751 19.7083C5.23835 19.7092 5.14273 19.6714 5.07111 19.6028L1.3547 15.9754C1.28744 15.9046 1.24994 15.8106 1.24994 15.7129C1.24994 15.6153 1.28744 15.5213 1.3547 15.4504V15.4504Z" stroke="#CA2B48" stroke-width="2.5" stroke-linecap="round" stroke-linejoin="round"/>
</svg>
