<svg width="40" height="41" viewBox="0 0 40 41" fill="none" xmlns="http://www.w3.org/2000/svg">
<path d="M35 35.3333V19.0833" stroke="#CA2B48" stroke-width="2.5" stroke-linecap="round" stroke-linejoin="round"/>
<path d="M5 19.0833V35.3333" stroke="#CA2B48" stroke-width="2.5" stroke-linecap="round" stroke-linejoin="round"/>
<path d="M29.8805 4.08325H10.1196C8.41722 4.08325 6.87972 5.02075 6.21878 6.46294L2.83597 13.8489C1.69691 16.334 3.58831 19.1497 6.52269 19.2395C6.57477 19.2395 6.62685 19.2395 6.67894 19.2395C9.13206 19.2395 11.1203 17.2723 11.1203 15.159C11.1203 17.2684 13.1094 19.2395 15.5625 19.2395C18.0157 19.2395 20 17.4129 20 15.159C20 17.2684 21.9883 19.2395 24.4414 19.2395C26.8946 19.2395 28.8836 17.4129 28.8836 15.159C28.8836 17.4129 30.8719 19.2395 33.325 19.2395C33.3771 19.2395 33.4279 19.2395 33.4774 19.2395C36.4117 19.1481 38.3032 16.3325 37.1641 13.8489L33.7813 6.46294C33.1203 5.02075 31.5828 4.08325 29.8805 4.08325Z" stroke="#CA2B48" stroke-width="2.5" stroke-linecap="round" stroke-linejoin="round"/>
<path d="M2.5 36.5833H37.5" stroke="#CA2B48" stroke-width="2.5" stroke-linecap="round" stroke-linejoin="round"/>
<path d="M10.625 22.8333H16.875C17.3723 22.8333 17.8492 23.0308 18.2008 23.3824C18.5525 23.7341 18.75 24.211 18.75 24.7083V31.5833H8.75V24.7083C8.75 24.211 8.94754 23.7341 9.29917 23.3824C9.65081 23.0308 10.1277 22.8333 10.625 22.8333Z" stroke="#CA2B48" stroke-width="2" stroke-linecap="round" stroke-linejoin="round"/>
<path d="M22.5 36.5833V24.7083C22.5 24.211 22.6975 23.7341 23.0492 23.3824C23.4008 23.0308 23.8777 22.8333 24.375 22.8333H29.375C29.8723 22.8333 30.3492 23.0308 30.7008 23.3824C31.0525 23.7341 31.25 24.211 31.25 24.7083V36.5833" stroke="#CA2B48" stroke-width="2" stroke-linecap="round" stroke-linejoin="round"/>
</svg>
