<svg width="41" height="41" viewBox="0 0 41 41" fill="none" xmlns="http://www.w3.org/2000/svg">
<path d="M33 6.58325H8C5.92893 6.58325 4.25 8.26218 4.25 10.3333V32.8333C4.25 34.9043 5.92893 36.5833 8 36.5833H33C35.0711 36.5833 36.75 34.9043 36.75 32.8333V10.3333C36.75 8.26218 35.0711 6.58325 33 6.58325Z" stroke="#CA2B48" stroke-width="2.5" stroke-linejoin="round"/>
<path d="M24.25 18.4583C24.25 18.8034 23.9702 19.0833 23.625 19.0833C23.2798 19.0833 23 18.8034 23 18.4583C23 18.1131 23.2798 17.8333 23.625 17.8333C23.9702 17.8333 24.25 18.1131 24.25 18.4583Z" fill="#CA2B48" stroke="#CA2B48" stroke-width="2.5"/>
<path d="M30.5 18.4583C30.5 18.8034 30.2202 19.0833 29.875 19.0833C29.5298 19.0833 29.25 18.8034 29.25 18.4583C29.25 18.1131 29.5298 17.8333 29.875 17.8333C30.2202 17.8333 30.5 18.1131 30.5 18.4583Z" fill="#CA2B48" stroke="#CA2B48" stroke-width="2.5"/>
<path d="M24.25 24.7083C24.25 25.0534 23.9702 25.3333 23.625 25.3333C23.2798 25.3333 23 25.0534 23 24.7083C23 24.3631 23.2798 24.0833 23.625 24.0833C23.9702 24.0833 24.25 24.3631 24.25 24.7083Z" fill="#CA2B48" stroke="#CA2B48" stroke-width="2.5"/>
<path d="M29.875 26.5833C30.9105 26.5833 31.75 25.7438 31.75 24.7083C31.75 23.6727 30.9105 22.8333 29.875 22.8333C28.8395 22.8333 28 23.6727 28 24.7083C28 25.7438 28.8395 26.5833 29.875 26.5833Z" fill="#CA2B48"/>
<path d="M11.125 26.5833C12.1605 26.5833 13 25.7438 13 24.7083C13 23.6727 12.1605 22.8333 11.125 22.8333C10.0895 22.8333 9.25 23.6727 9.25 24.7083C9.25 25.7438 10.0895 26.5833 11.125 26.5833Z" fill="#CA2B48"/>
<path d="M17.375 26.5833C18.4105 26.5833 19.25 25.7438 19.25 24.7083C19.25 23.6727 18.4105 22.8333 17.375 22.8333C16.3395 22.8333 15.5 23.6727 15.5 24.7083C15.5 25.7438 16.3395 26.5833 17.375 26.5833Z" fill="#CA2B48"/>
<path d="M11.125 32.8333C12.1605 32.8333 13 31.9938 13 30.9583C13 29.9227 12.1605 29.0833 11.125 29.0833C10.0895 29.0833 9.25 29.9227 9.25 30.9583C9.25 31.9938 10.0895 32.8333 11.125 32.8333Z" fill="#CA2B48"/>
<path d="M17.375 32.8333C18.4105 32.8333 19.25 31.9938 19.25 30.9583C19.25 29.9227 18.4105 29.0833 17.375 29.0833C16.3395 29.0833 15.5 29.9227 15.5 30.9583C15.5 31.9938 16.3395 32.8333 17.375 32.8333Z" fill="#CA2B48"/>
<path d="M23.625 32.8333C24.6605 32.8333 25.5 31.9938 25.5 30.9583C25.5 29.9227 24.6605 29.0833 23.625 29.0833C22.5895 29.0833 21.75 29.9227 21.75 30.9583C21.75 31.9938 22.5895 32.8333 23.625 32.8333Z" fill="#CA2B48"/>
<path d="M10.5 4.08325V6.58325" stroke="#CA2B48" stroke-width="2.5" stroke-linecap="round" stroke-linejoin="round"/>
<path d="M30.5 4.08325V6.58325" stroke="#CA2B48" stroke-width="2.5" stroke-linecap="round" stroke-linejoin="round"/>
<path d="M36.75 12.8333H4.25" stroke="#CA2B48" stroke-width="2.5" stroke-linejoin="round"/>
</svg>
