<svg width="64" height="64" viewBox="0 0 64 64" fill="none" xmlns="http://www.w3.org/2000/svg">
<g clip-path="url(#clip0)">
<path fill-rule="evenodd" clip-rule="evenodd" d="M16.7334 45.5906C12.7382 45.8701 8.72622 45.7961 4.74414 45.3692C12.5305 45.634 20.2869 44.277 27.5208 41.3843C27.7767 41.9995 28.2568 42.5659 28.5012 43.0921C26.3132 43.8051 24.1195 44.5095 21.6354 44.9264C22.1108 45.5769 22.6751 46.1576 23.3116 46.6515C26.342 49.2017 30.6805 50.9986 36.4078 50.7341C37.9078 50.6509 39.3933 50.3963 40.8354 49.9751C41.2785 49.8764 41.7124 49.7398 42.1321 49.5668C42.6439 49.311 43.2822 48.6497 43.745 48.2385C47.2412 45.0587 50.168 40.539 50.168 34.0671C50.168 27.2732 47.1894 22.7248 43.5265 19.5162C39.9499 16.3823 34.3521 13.7832 27.4259 15.2437C30.2556 18.0517 32.8977 21.0425 35.3353 24.1968C37.1521 22.6896 38.855 21.0502 40.43 19.2919C40.5997 19.1021 40.9447 18.5875 41.1258 18.5645C41.3069 18.5415 41.7756 18.852 41.9883 18.9756C42.7112 19.5118 43.3515 20.1511 43.8888 20.8732C41.9069 23.1249 39.7019 25.17 37.3077 26.9771C38.6043 28.9293 39.7975 31.0022 41.0079 33.0148C43.113 31.3055 45.0799 29.4328 46.8904 27.4141C47.0543 27.2358 47.5574 26.6062 47.7156 26.6206C47.8737 26.6349 48.1123 27.233 48.19 27.4141C48.4642 28.0406 48.6574 28.6995 48.765 29.3749C48.8576 29.7508 48.8896 30.139 48.8599 30.525C48.811 30.7233 48.3625 31.077 48.1325 31.284C46.3614 32.8739 44.3948 34.4466 42.5317 35.8842C42.9544 37.1981 43.6128 38.3884 44.2108 39.8058C44.599 40.7316 44.9296 41.8759 45.289 42.9397C45.4433 43.2733 45.5591 43.6235 45.634 43.9834C45.6541 44.4923 45.2257 45.1075 44.9727 45.4698C44.6995 45.8927 44.3574 46.2668 43.9607 46.5767C40.6687 33.8285 34.8236 23.6391 27.2246 15.1977C26.2241 15.5916 24.9648 15.6664 23.9959 16.1149C23.672 16.3078 23.3744 16.5416 23.1104 16.8107C22.5123 17.3253 22.0667 17.7307 21.4658 18.3287C21.2559 18.5415 20.77 18.9641 20.7384 19.1539C20.6895 19.4414 21.0892 20.4362 21.1812 20.7668C22.1569 24.3425 23.4481 27.8245 25.0396 31.1719C25.5312 31.1719 25.9423 30.8585 26.3362 30.6371C29.0302 29.1047 31.5114 27.2905 33.961 25.4619C34.5361 26.3589 35.0651 27.3106 35.6056 28.245C32.834 30.3553 29.5937 31.9826 26.181 33.4633C26.4067 34.0959 26.7038 34.7008 27.0665 35.266C27.981 36.9732 28.9839 38.6315 30.071 40.2342C33.3228 38.8283 36.1892 36.8617 38.8315 34.9498C39.2771 35.7174 39.5244 36.6748 39.878 37.5374C37.3997 39.4321 34.3521 40.7632 31.3677 42.1519C32.9991 44.4925 34.7847 46.7219 36.7125 48.8251C36.9878 49.1012 37.2424 49.3972 37.4744 49.7106C36.6064 49.8552 35.7239 49.8938 34.8466 49.8256C34.5575 49.8408 34.2678 49.8195 33.984 49.7623C33.7367 49.5421 33.5236 49.2863 33.3515 49.0033C27.5208 40.7891 22.8027 31.1057 20.6033 19.3896C20.3804 19.5473 20.1859 19.7418 20.0282 19.9647C17.4406 23.2078 15.6408 27.6757 16.0433 33.7652C14.9364 34.1217 13.7432 34.4092 12.6565 34.7744C12.3623 31.6855 12.8972 28.5741 14.2061 25.7609C15.2686 23.4 16.7994 21.2794 18.7057 19.5277C20.5601 17.8026 22.8804 16.5749 25.2552 15.3185C27.8224 13.8791 30.6975 13.0765 33.639 12.9781C37.3276 12.7821 40.9949 13.6493 44.2051 15.4766C46.9156 17.0037 49.1749 19.2194 50.7546 21.8996C51.1571 22.604 51.6171 23.2365 51.9564 23.9553C53.105 26.4428 53.6882 29.1538 53.6642 31.8935C53.6642 35.9474 52.6004 39.4263 50.8811 42.08C48.7492 45.3603 45.7331 47.9707 42.181 49.61C41.4737 49.9349 40.8211 50.4294 40.1253 50.7801C37.3192 52.1889 33.4809 53.0486 29.1998 52.5828C23.3864 51.9474 19.827 49.0723 16.7334 45.5906Z" fill="white" fill-opacity="0.4"/>
<path fill-rule="evenodd" clip-rule="evenodd" d="M23.921 34.2022C21.5804 35.0205 19.1763 35.6446 16.7332 36.0681C16.5636 36.738 16.8655 37.4137 17.0811 37.9973C17.7037 39.7066 18.5548 41.3236 19.6112 42.8045C18.3116 43.1927 16.8655 43.4342 15.4653 43.7246C14.7457 42.7512 14.1804 41.6729 13.7891 40.5274C13.3134 39.2902 12.9637 38.0081 12.7454 36.7007C10.8392 36.8185 9.20903 36.922 7.20795 36.922C6.65018 36.922 5.67264 36.8415 5.27875 36.8933C6.98082 36.6863 8.61676 36.5569 10.2441 36.2608C11.8081 35.9733 13.3434 35.6857 14.8442 35.2804C17.6674 34.4897 20.4275 33.4892 23.1016 32.2874C23.3661 32.9285 23.6881 33.5265 23.921 34.2022Z" fill="white" fill-opacity="0.4"/>
<path fill-rule="evenodd" clip-rule="evenodd" d="M28.5015 30.5221C29.2864 29.8666 30.4652 29.2139 30.9022 29.2139C31.3392 29.2139 32.0379 29.2571 32.518 29.6941C32.518 29.6941 34.6571 31.6348 34.9389 31.79C35.2206 31.9453 36.0084 32.0776 36.2701 31.5945C36.5317 31.1115 39.9128 24.4068 41.681 21.0975C43.4492 17.7883 46.7872 11.9978 47.2012 11.3221C47.9712 10.1039 48.9902 9.0623 50.1913 8.26588C51.7255 7.31951 53.3231 6.4799 54.9727 5.75303C55.6914 5.44827 56.1083 5.40514 56.3901 5.60065C56.6718 5.79616 56.2147 6.31943 56.1026 6.46318C55.9904 6.60694 52.9169 11.0634 51.4765 13.5331C50.0361 16.0028 44.996 24.6396 42.1583 30.663C39.3205 36.6864 39.2832 36.8617 39.125 37.0342C38.3513 37.6389 37.5004 38.1378 36.5949 38.5178C35.6117 38.8887 34.5651 39.4551 33.7572 39.5212C32.9493 39.5874 32.5123 39.2337 31.7935 38.7363C31.0747 38.2389 27.4463 35.6398 26.7736 33.8688C26.2934 32.6037 26.6212 32.3622 26.9058 31.9913C27.4103 31.4727 27.943 30.9822 28.5015 30.5221Z" fill="white"/>
<path fill-rule="evenodd" clip-rule="evenodd" d="M4.57128 16.7619C5.21243 17.0666 5.96284 17.3369 6.53498 17.6618C6.27622 18.0931 5.88808 18.1908 5.5747 18.4093C5.06503 18.7479 4.63927 19.1983 4.32977 19.7261C4.13067 20.0636 4.00429 20.4389 3.95874 20.8281C3.91319 21.2173 3.94947 21.6117 4.06526 21.986C4.47928 23.2223 6.36535 24.2315 7.73103 23.9296C9.54523 23.527 10.0311 21.2528 9.74361 19.7635C9.70623 19.5709 9.53373 19.3495 9.68036 19.0763C10.2813 19.1712 11.0058 19.637 11.6556 19.8756C11.6675 20.6619 11.5786 21.4465 11.391 22.2102C10.448 25.6201 8.03867 27.0721 5.51432 26.3504C2.64496 25.5368 1.2074 23.113 2.25682 20.212C2.70454 18.875 3.50402 17.6833 4.57128 16.7619Z" fill="white"/>
<path fill-rule="evenodd" clip-rule="evenodd" d="M0 35.6426V29.9499H1.58419V31.5571H7.29991C7.36604 31.0885 7.29991 30.4761 7.32866 29.9499H8.87835V35.6743H7.32866V34.1016C5.48571 34.0239 3.51051 34.1016 1.61294 34.0671C1.54393 34.5357 1.61294 35.1481 1.58419 35.6743C1.05594 35.6918 0.527127 35.6813 0 35.6426Z" fill="white"/>
<path fill-rule="evenodd" clip-rule="evenodd" d="M9.48047 9.99101L11.6512 8.09918C14.4976 9.52236 17.341 10.9973 20.1903 12.4119C19.6296 12.9869 18.8764 13.5619 18.2381 14.1369C17.6803 13.8322 17.1168 13.5619 16.5561 13.2255L13.8593 15.5773C14.0232 16.1811 14.2848 16.7849 14.5062 17.3915L12.5827 19.062C11.5333 16.0374 10.4839 13.0243 9.48047 9.99101ZM13.2181 13.9874L15.0093 12.4262C14.0483 11.8535 13.0589 11.3295 12.0451 10.8564C12.4706 11.9001 12.8329 12.9437 13.2267 13.9874H13.2181Z" fill="white"/>
<path fill-rule="evenodd" clip-rule="evenodd" d="M19.1306 3.10801L21.9252 2.27423C23.6071 3.46453 25.1654 4.86183 26.8301 6.08088L25.3868 1.23631L27.6007 0.577911L30.1365 9.08537L27.8594 9.7639C25.8986 8.31196 24.0499 6.67028 22.1092 5.16372L23.8343 10.9599L21.5859 11.6298L19.0932 3.21439C19.0862 3.19507 19.0861 3.17392 19.0929 3.15454C19.0997 3.13515 19.113 3.11872 19.1306 3.10801Z" fill="white"/>
<path fill-rule="evenodd" clip-rule="evenodd" d="M34.3169 0.00558472L37.192 0.451227C38.1983 2.25105 39.0062 4.18887 39.9924 5.99444L40.7629 1.00325L43.0457 1.35689L41.6916 10.1317L40.5013 9.94772C40.1476 9.8931 39.6387 9.9161 39.3512 9.76947C39.2046 9.69759 39.0263 9.22032 38.8998 8.96443C37.9827 7.05824 37.031 4.91915 36.1081 3.14808L35.1852 9.12832L32.9023 8.77468L34.2364 0.0860878C34.2371 0.0649649 34.2458 0.0449024 34.2608 0.0299577C34.2757 0.0150129 34.2958 0.00630136 34.3169 0.00558472Z" fill="white"/>
<path d="M10.9823 54.9838L10.1198 53.9746L10.7753 52.9626L9.57639 51.5509L8.46947 52.0368L7.63281 51.0506L13.1818 48.7505L14.1449 49.8776L10.9823 54.9838ZM11.3791 52.0454L12.5435 50.2514L10.5856 51.1139L11.3791 52.0454Z" fill="white"/>
<path d="M13.2824 57.1372C13.0547 56.9365 12.8605 56.7006 12.7074 56.4385C12.5585 56.2 12.4669 55.9302 12.44 55.6503C12.4131 55.3705 12.4514 55.0882 12.5521 54.8256C12.8153 54.1784 13.2854 53.6365 13.889 53.2846C14.1495 53.144 14.4386 53.0644 14.7343 53.0517C15.0069 53.0458 15.2776 53.0987 15.5279 53.207C15.7862 53.3167 16.0258 53.4661 16.238 53.6497C16.4211 53.8042 16.5809 53.9843 16.7124 54.1845C16.8281 54.3656 16.9244 54.5583 16.9999 54.7595L16.2323 55.6536L16.1029 55.5444C16.1029 55.4783 16.1029 55.4006 16.0799 55.3115C16.0672 55.2138 16.0451 55.1175 16.0138 55.024C15.9792 54.9236 15.9339 54.8272 15.8786 54.7365C15.8105 54.6275 15.725 54.5304 15.6256 54.449C15.522 54.3503 15.3956 54.2789 15.2575 54.2413C15.1195 54.2036 14.9743 54.2009 14.835 54.2334C14.5095 54.3259 14.2223 54.5204 14.0156 54.7883C13.7787 55.0286 13.6324 55.3435 13.6015 55.6795C13.6008 55.8212 13.6328 55.9611 13.6951 56.0883C13.7575 56.2155 13.8485 56.3265 13.9609 56.4127C14.0644 56.5045 14.1818 56.5792 14.3088 56.634C14.4107 56.6781 14.518 56.7081 14.628 56.7232C14.7131 56.7305 14.7987 56.7305 14.8838 56.7232L15.1138 56.703L15.2432 56.8152L14.4756 57.7093C14.2659 57.6639 14.0615 57.5965 13.866 57.5081C13.6549 57.4127 13.4584 57.2879 13.2824 57.1372Z" fill="white"/>
<path d="M16.9863 59.7822C16.727 59.6228 16.495 59.4229 16.2991 59.1899C16.1172 58.9756 15.9875 58.7221 15.9201 58.4492C15.8528 58.1763 15.8496 57.8915 15.911 57.6172C16.0767 56.936 16.4641 56.3292 17.0122 55.8921C17.2492 55.7149 17.5236 55.5939 17.8143 55.5385C18.0832 55.4929 18.3587 55.5057 18.6222 55.5759C18.8929 55.6466 19.151 55.7591 19.387 55.9094C19.5904 56.0355 19.7744 56.1905 19.9333 56.3694C20.0775 56.5337 20.2038 56.713 20.3099 56.9042L19.6803 57.9018L19.5365 57.8098C19.5221 57.7466 19.502 57.669 19.479 57.5827C19.4524 57.4834 19.4158 57.3871 19.3698 57.2952C19.3216 57.1928 19.2618 57.0964 19.1915 57.0077C19.1098 56.9093 19.0127 56.8248 18.904 56.7576C18.7871 56.6751 18.6515 56.6229 18.5095 56.6059C18.3675 56.5888 18.2234 56.6073 18.0903 56.6598C17.7825 56.7996 17.5275 57.0344 17.3629 57.3297C17.1613 57.6004 17.0597 57.9327 17.0754 58.2699C17.0949 58.4106 17.1469 58.545 17.2273 58.6622C17.3076 58.7795 17.4141 58.8765 17.5383 58.9455C17.6542 59.0208 17.7813 59.0771 17.9149 59.1123C18.0227 59.1418 18.1339 59.1563 18.2456 59.1554C18.3316 59.1532 18.4172 59.1436 18.5015 59.1266L18.7257 59.072L18.8695 59.164L18.2427 60.1761C18.0286 60.1623 17.8165 60.1257 17.6102 60.0668C17.3898 60.0019 17.1798 59.9061 16.9863 59.7822Z" fill="white"/>
<path d="M22.9951 59.3134L22.8973 59.2703C22.8349 59.2135 22.7653 59.1652 22.6903 59.1265C22.5906 59.0709 22.5063 59.0278 22.4373 58.9971C22.2995 58.934 22.1561 58.8839 22.0089 58.8476C21.8643 58.8156 21.7171 58.7973 21.569 58.793L20.3902 61.4324L19.2891 60.9407L21.0458 56.9989L22.1469 57.4906L21.8882 58.0656C22.1557 57.9532 22.4408 57.8881 22.7306 57.873C22.9179 57.8693 23.1039 57.9046 23.2768 57.9765L23.4062 58.0369L23.5299 58.103L22.9951 59.3134Z" fill="white"/>
<path d="M26.9916 61.5993L24.335 60.8805C24.2961 61.0207 24.2867 61.1675 24.3075 61.3115C24.3282 61.4556 24.3788 61.5937 24.4558 61.7172C24.656 61.9753 24.943 62.1521 25.2637 62.2145C25.5092 62.2804 25.7658 62.2941 26.017 62.2548C26.2355 62.227 26.4487 62.1669 26.6495 62.0765L26.7789 62.111L26.4914 63.1835C26.223 63.2321 25.9504 63.2532 25.6777 63.2467C25.4093 63.2349 25.143 63.1925 24.8842 63.1202C24.5769 63.0591 24.2846 62.938 24.0241 62.7639C23.7636 62.5897 23.54 62.3659 23.3661 62.1053C23.2219 61.8374 23.1344 61.5426 23.1092 61.2393C23.084 60.9361 23.1215 60.6309 23.2195 60.3429C23.3465 59.7382 23.7005 59.2052 24.2085 58.8535C24.4564 58.7024 24.734 58.6067 25.0224 58.5729C25.3107 58.5392 25.6029 58.5682 25.879 58.658C26.1287 58.7053 26.3648 58.8071 26.5706 58.9562C26.7764 59.1053 26.9466 59.298 27.0693 59.5206C27.2779 60.0302 27.2942 60.5983 27.1153 61.1191L26.9916 61.5993ZM26.0486 60.5039C26.1225 60.2837 26.1225 60.0455 26.0486 59.8253C26.0024 59.7333 25.9355 59.6533 25.8532 59.5914C25.7709 59.5296 25.6754 59.4876 25.5742 59.4688C25.373 59.4066 25.1554 59.4252 24.9676 59.5206C24.7596 59.6513 24.6102 59.8573 24.5507 60.0956L26.0486 60.5039Z" fill="white"/>
<path d="M31.5742 63.9942L30.3724 63.8878L30.4126 63.4393C30.2251 63.593 30.017 63.7197 29.7945 63.8159C29.5933 63.8937 29.3764 63.9223 29.162 63.8993C28.9434 63.8824 28.7329 63.8087 28.5515 63.6857C28.37 63.5627 28.2236 63.3945 28.1269 63.1978C27.8738 62.6809 27.7817 62.1 27.8624 61.5302C27.8864 61.2013 27.962 60.8782 28.0867 60.5728C28.1897 60.3208 28.3367 60.0891 28.5208 59.8885C28.6804 59.715 28.8769 59.5794 29.0958 59.4918C29.3044 59.4071 29.5299 59.3727 29.7542 59.3911C29.9419 59.4018 30.126 59.4467 30.2976 59.5234C30.4443 59.5955 30.5855 59.6781 30.7203 59.7707L30.8841 57.9421L32.0859 58.0485L31.5742 63.9942ZM30.4788 62.7033L30.6656 60.5901C30.5846 60.5415 30.4977 60.5038 30.4069 60.4779C30.3242 60.4538 30.2395 60.4374 30.1539 60.4291C30.0164 60.4094 29.8761 60.4256 29.7467 60.4759C29.6173 60.5263 29.503 60.6092 29.415 60.7166C29.222 60.9773 29.1109 61.2896 29.0958 61.6136C29.0441 61.9289 29.0809 62.2524 29.2022 62.548C29.2607 62.6493 29.3443 62.7338 29.4451 62.7933C29.5459 62.8527 29.6603 62.8851 29.7772 62.8873C29.8956 62.8959 30.0146 62.8823 30.128 62.847C30.2518 62.8194 30.3703 62.7718 30.4788 62.7061V62.7033Z" fill="white"/>
<path d="M34.2273 59.006L32.9536 59.0377L32.9277 57.9883L34.2014 57.9566L34.2273 59.006ZM34.3164 63.934L33.1117 63.9627L33.0054 59.6501L34.21 59.6213L34.3164 63.934Z" fill="white"/>
<path d="M38.1118 63.563C37.9817 63.6159 37.8482 63.6601 37.7122 63.6953C37.5392 63.7375 37.3633 63.7673 37.186 63.7844C36.8145 63.8547 36.4302 63.7785 36.1136 63.5717C35.8625 63.38 35.7092 63.0216 35.6536 62.4964L35.438 60.4838L34.9463 60.5355L34.8457 59.6011L35.3373 59.5494L35.2051 58.3217L36.404 58.1923L36.5363 59.42L37.6518 59.2992L37.7524 60.2308L36.6369 60.3515L36.8008 61.8753C36.8161 62.0268 36.8315 62.1581 36.8468 62.2692C36.8596 62.3691 36.8887 62.4663 36.933 62.5567C36.9715 62.6411 37.0374 62.71 37.1199 62.7522C37.2305 62.7993 37.3523 62.8133 37.4707 62.7925C37.5532 62.7798 37.6335 62.7556 37.7093 62.7206C37.7806 62.6937 37.8482 62.658 37.9106 62.6142H38.0112L38.1118 63.563Z" fill="white"/>
<path d="M42.4138 60.7283L39.7342 61.3608C39.7668 61.5028 39.8287 61.6365 39.9158 61.7533C40.0029 61.8701 40.1134 61.9675 40.2402 62.0393C40.5397 62.1711 40.877 62.1895 41.189 62.0911C41.4363 62.0328 41.6684 61.923 41.8704 61.769C42.0494 61.6397 42.2083 61.4847 42.342 61.309L42.4713 61.2774L42.7272 62.3584C42.5147 62.5288 42.2854 62.6772 42.0429 62.8012C41.8009 62.9183 41.5462 63.007 41.2839 63.0657C40.9843 63.1586 40.6693 63.1914 40.357 63.1623C40.0447 63.1332 39.7412 63.0427 39.464 62.8961C39.2097 62.729 38.9927 62.5113 38.8265 62.2565C38.6603 62.0017 38.5484 61.7154 38.4979 61.4154C38.3243 60.8236 38.384 60.1878 38.6647 59.6386C38.811 59.3878 39.0098 59.1715 39.2475 59.0048C39.4852 58.838 39.7562 58.7247 40.0419 58.6726C40.2851 58.5961 40.5422 58.5745 40.7947 58.6093C41.0473 58.6441 41.289 58.7344 41.5024 58.8738C41.9275 59.2228 42.2115 59.7142 42.3017 60.2567L42.4138 60.7283ZM41.0625 60.2136C41.0197 59.9855 40.9036 59.7775 40.7319 59.6213C40.6487 59.5647 40.5538 59.5275 40.4542 59.5126C40.3547 59.4976 40.253 59.5053 40.1569 59.5351C39.9503 59.5757 39.7677 59.6954 39.648 59.8686C39.5272 60.0826 39.4943 60.3351 39.556 60.573L41.0625 60.2136Z" fill="white"/>
<path d="M47.5652 60.7511L46.4496 61.2112L46.2771 60.7943C46.1828 61.0174 46.0579 61.2264 45.9062 61.4153C45.7634 61.5769 45.584 61.7021 45.3829 61.7804C45.1809 61.8669 44.9597 61.8992 44.7414 61.874C44.523 61.8488 44.315 61.767 44.138 61.6367C43.6758 61.2957 43.3263 60.824 43.1346 60.2825C43.0043 59.9742 42.9237 59.6471 42.896 59.3136C42.8715 59.0393 42.8958 58.7628 42.9678 58.497C43.0302 58.2679 43.1432 58.0556 43.2985 57.876C43.4447 57.7048 43.6288 57.5699 43.8361 57.4821C44.0067 57.405 44.1898 57.3592 44.3766 57.347C44.54 57.344 44.7033 57.3526 44.8654 57.3728L44.1639 55.6765L45.2794 55.2165L47.5652 60.7511ZM45.9953 60.1128L45.1961 58.1462C45.0997 58.1397 45.003 58.1465 44.9085 58.1664C44.8239 58.1834 44.7412 58.2084 44.6613 58.2411C44.5321 58.2846 44.416 58.3601 44.324 58.4607C44.232 58.5613 44.167 58.6836 44.1351 58.8162C44.0833 59.1441 44.1324 59.48 44.276 59.7793C44.3767 60.0831 44.5598 60.3529 44.805 60.5585C44.9047 60.6219 45.0192 60.6581 45.1372 60.6637C45.2552 60.6692 45.3726 60.6439 45.4778 60.5901C45.5848 60.5418 45.6822 60.4746 45.7653 60.3917C45.8569 60.3089 45.9346 60.2118 45.9953 60.1042V60.1128Z" fill="white"/>
<path d="M55.2585 55.6592L54.0107 56.6051L51.6646 55.7426L51.1902 56.102L52.4582 57.7724L51.4404 58.5429L47.9902 53.9859L49.7153 52.6835C49.9156 52.528 50.1291 52.3904 50.3536 52.2724C50.539 52.1837 50.7405 52.1338 50.9458 52.1258C51.1714 52.1146 51.3962 52.158 51.6014 52.2523C51.8393 52.3707 52.0438 52.5466 52.1965 52.764C52.4272 53.0429 52.5729 53.3822 52.6163 53.7416C52.6385 54.0753 52.5773 54.4093 52.438 54.7133L55.2585 55.6592ZM51.265 53.7071C51.1899 53.6032 51.0914 53.5185 50.9775 53.4598C50.866 53.4081 50.7403 53.396 50.621 53.4253C50.5184 53.4486 50.4209 53.4905 50.3334 53.5489C50.2357 53.6122 50.1255 53.6898 50.0028 53.7818L49.6319 54.0693L50.5635 55.297L50.8768 55.0583C51.015 54.9557 51.1447 54.8422 51.265 54.7191C51.3561 54.6264 51.4189 54.5098 51.4461 54.3827C51.4704 54.2748 51.4704 54.1629 51.4461 54.055C51.4063 53.9262 51.3408 53.8069 51.2535 53.7042L51.265 53.7071Z" fill="white"/>
<path d="M57.1341 50.8607L55.2537 52.8732C55.3593 52.9737 55.4846 53.0511 55.6217 53.1006C55.7588 53.1501 55.9047 53.1706 56.0501 53.1608C56.3728 53.1044 56.664 52.9327 56.8695 52.6777C57.043 52.4918 57.1753 52.2714 57.2577 52.0308C57.3353 51.8242 57.3818 51.6071 57.3957 51.3868L57.4877 51.2891L58.2985 52.0481C58.2158 52.3076 58.1069 52.5581 57.9736 52.7956C57.8379 53.0273 57.6758 53.2424 57.4906 53.4368C57.0904 53.926 56.5123 54.2363 55.8834 54.2993C55.5788 54.3017 55.2771 54.2411 54.9971 54.1213C54.717 54.0016 54.4648 53.8253 54.2561 53.6035C53.7827 53.207 53.4792 52.6442 53.4079 52.0308C53.3905 51.7412 53.436 51.4511 53.5412 51.1807C53.6464 50.9102 53.8089 50.6657 54.0174 50.4639C54.1777 50.2655 54.3799 50.1051 54.6096 49.9942C54.8393 49.8833 55.0907 49.8248 55.3457 49.8228C55.895 49.8758 56.4061 50.1273 56.7833 50.53L57.1341 50.8607ZM55.7253 51.1827C55.5633 51.016 55.3513 50.9069 55.1215 50.8722C55.0184 50.8699 54.9162 50.8916 54.8229 50.9355C54.7296 50.9794 54.6478 51.0443 54.5838 51.1252C54.4342 51.2738 54.3485 51.475 54.3452 51.6858C54.3637 51.9301 54.476 52.1578 54.6586 52.3212L55.7253 51.1827Z" fill="white"/>
<path d="M60.9956 47.652C61.2924 47.8317 61.5559 48.0613 61.7747 48.3305C61.9399 48.534 62.0498 48.7766 62.0939 49.035C62.1293 49.2819 62.1077 49.5337 62.0306 49.771C61.9402 50.0486 61.8125 50.3126 61.6511 50.5559C61.5125 50.7725 61.3588 50.9791 61.1911 51.174C61.0461 51.3446 60.8906 51.506 60.7253 51.6571L59.8168 51.082L59.8973 50.9584C60.0546 50.8532 60.2027 50.7349 60.3401 50.6048C60.4834 50.4775 60.6099 50.3326 60.7167 50.1735C60.8201 50.0221 60.8987 49.8551 60.9496 49.679C60.9841 49.5558 60.9841 49.4255 60.9496 49.3023C60.9109 49.1938 60.8479 49.0954 60.7656 49.0148C60.6565 48.9052 60.5349 48.8087 60.4033 48.7273L60.3343 48.6842C60.3659 48.8746 60.3659 49.0688 60.3343 49.2592C60.3021 49.4586 60.2276 49.6488 60.1158 49.817C60.0014 50.0184 59.8404 50.1896 59.6463 50.3161C59.4523 50.4427 59.2307 50.5209 59.0003 50.5444C58.5402 50.5885 57.9978 50.4093 57.3729 50.0067C57.1073 49.8434 56.8695 49.6386 56.6685 49.4001C56.5047 49.1994 56.379 48.9704 56.2977 48.7244C56.2259 48.5049 56.2053 48.2718 56.2373 48.043C56.2662 47.8169 56.3447 47.5999 56.4673 47.4076C56.5666 47.2489 56.6909 47.1071 56.8353 46.9879C56.9671 46.8809 57.1145 46.7946 57.2723 46.732L57.1343 46.5911L57.7668 45.6078L60.9956 47.652ZM59.6155 48.1983L57.971 47.1403C57.8961 47.188 57.8275 47.245 57.7668 47.3099C57.7038 47.3754 57.647 47.4466 57.5972 47.5226C57.5163 47.6312 57.463 47.7578 57.4419 47.8915C57.4209 48.0253 57.4327 48.1622 57.4765 48.2903C57.5998 48.5748 57.8129 48.811 58.0831 48.9631C58.3244 49.1474 58.619 49.2483 58.9226 49.2506C59.0334 49.2337 59.1388 49.1914 59.2306 49.1271C59.3223 49.0628 59.398 48.9781 59.4517 48.8797C59.5168 48.7778 59.5626 48.6647 59.5868 48.5462C59.6124 48.4321 59.6221 48.315 59.6155 48.1983Z" fill="white"/>
<path d="M57.8481 43.3654L57.4887 44.5873L56.4824 44.2998L56.8418 43.0779L57.8481 43.3654ZM62.569 44.7857L62.2298 45.9358L58.0896 44.7225L58.4289 43.5724L62.569 44.7857Z" fill="white"/>
<path d="M61.9391 39.6678C62.147 39.6841 62.348 39.75 62.5251 39.8601C62.7022 39.9702 62.8503 40.1211 62.9569 40.3004C63.2051 40.7452 63.2953 41.2611 63.2128 41.7638C63.1831 42.0684 63.1144 42.3679 63.0086 42.6551C62.9295 42.8747 62.8264 43.0849 62.701 43.2819L61.5711 43.1611V43.0518C61.6257 42.9972 61.6861 42.934 61.7522 42.8621C61.8357 42.7648 61.9099 42.6599 61.9736 42.5487C62.0507 42.4197 62.1161 42.284 62.1691 42.1433C62.2299 41.9834 62.2695 41.8161 62.287 41.6459C62.3166 41.4683 62.3048 41.2863 62.2525 41.114C62.2353 41.0603 62.2026 41.0129 62.1587 40.9777C62.1147 40.9424 62.0614 40.9208 62.0052 40.9156C61.9624 40.9072 61.9181 40.9096 61.8764 40.9227C61.8347 40.9357 61.797 40.959 61.7666 40.9904C61.6877 41.1012 61.6283 41.2247 61.5912 41.3555C61.5586 41.4418 61.5213 41.5597 61.4791 41.7092C61.4407 41.8462 61.3937 41.9806 61.3382 42.1117C61.2331 42.3996 61.0386 42.6464 60.7833 42.8161C60.5321 42.9612 60.2396 43.0179 59.9524 42.9771C59.7528 42.9578 59.5606 42.8918 59.3912 42.7845C59.2219 42.6771 59.0802 42.5313 58.9777 42.3589C58.7275 41.9242 58.6351 41.4164 58.7161 40.9214C58.744 40.6502 58.8058 40.3836 58.9001 40.1278C58.9701 39.9269 59.0617 39.7341 59.1732 39.5528L60.2572 39.6678V39.7713C60.0936 39.9413 59.9569 40.1352 59.8518 40.3464C59.7423 40.5569 59.6731 40.7861 59.6476 41.022C59.6245 41.1888 59.6382 41.3586 59.6879 41.5194C59.7001 41.5766 59.7295 41.6288 59.7722 41.6688C59.8148 41.7089 59.8687 41.735 59.9265 41.7437C59.9689 41.752 60.0127 41.7506 60.0545 41.7396C60.0963 41.7287 60.1351 41.7084 60.168 41.6804C60.2628 41.5605 60.3322 41.4226 60.3722 41.275C60.4124 41.1571 60.4555 41.0278 60.4958 40.8898C60.536 40.7517 60.5849 40.6022 60.6424 40.4757C60.7405 40.2083 60.9232 39.9801 61.1628 39.826C61.3973 39.6897 61.67 39.6342 61.9391 39.6678Z" fill="white"/>
<path d="M63.2327 36.2006C63.2738 36.3353 63.3055 36.4726 63.3276 36.6117C63.3538 36.7878 63.3673 36.9656 63.3679 37.1436C63.4024 37.5198 63.2901 37.8948 63.0545 38.1901C62.8398 38.4221 62.4689 38.5409 61.9418 38.5466L59.9292 38.5725V39.067H58.9919V38.5725L57.7585 38.5869L57.7441 37.3794L58.9776 37.365V36.2437H59.9148V37.365L61.4473 37.3477H61.844C61.9472 37.3456 62.0492 37.3262 62.1459 37.2902C62.2334 37.2598 62.3083 37.2011 62.3587 37.1235C62.4161 37.018 62.4421 36.8982 62.4334 36.7785C62.4286 36.6951 62.4121 36.6129 62.3846 36.5341C62.3645 36.4609 62.3355 36.3904 62.2983 36.3242V36.2236L63.2327 36.2006Z" fill="white"/>
<path d="M59.908 32.7678V32.8741C59.8913 32.9564 59.8855 33.0405 59.8908 33.1243C59.8908 33.2374 59.8965 33.3332 59.908 33.4118C59.9234 33.5628 59.9533 33.7121 59.9971 33.8574C60.0435 33.9979 60.1032 34.1337 60.1754 34.2628L63.0505 33.9408L63.1856 35.1397L58.8988 35.6199L58.7637 34.421L59.3934 34.3491C59.16 34.1764 58.9586 33.9643 58.7982 33.7223C58.7003 33.5627 58.6367 33.3845 58.6113 33.199C58.6113 33.1559 58.6113 33.1099 58.6113 33.0553C58.6113 33.0006 58.6113 32.9546 58.6113 32.9144L59.908 32.7678Z" fill="white"/>
<path d="M61.6944 29.1997L61.9503 29.3837C62.0404 29.4474 62.1242 29.5196 62.2004 29.5994C62.2876 29.6969 62.362 29.8051 62.4218 29.9214C62.4856 30.0466 62.5348 30.1788 62.5684 30.3153C62.613 30.4768 62.6227 30.6459 62.597 30.8115C62.5712 30.9771 62.5105 31.1353 62.4189 31.2756C62.32 31.4234 62.1929 31.5502 62.0449 31.6489C61.8969 31.7476 61.7309 31.8161 61.5564 31.8506C61.297 31.9239 61.0223 31.9239 60.7629 31.8506C60.5391 31.7767 60.3401 31.6423 60.1878 31.4625C60.0007 31.241 59.8512 30.9905 59.7451 30.7207C59.6167 30.414 59.4978 30.091 59.3886 29.7517H59.3656C59.268 29.7664 59.1767 29.8089 59.1028 29.8742C59.0288 29.9395 58.9753 30.0248 58.9487 30.1198C58.9057 30.3733 58.9234 30.6334 59.0004 30.8788C59.0625 31.0856 59.1597 31.2801 59.2879 31.4538C59.4221 31.6455 59.5179 31.7864 59.5754 31.8765L59.6013 31.9829L58.5922 32.2388C58.5231 32.1257 58.4273 31.934 58.3046 31.6637C58.1844 31.4018 58.0882 31.1294 58.0171 30.8501C57.8485 30.1869 57.8485 29.6779 58.0171 29.3233C58.1149 29.1342 58.2555 28.9704 58.4277 28.8452C58.5999 28.7199 58.799 28.6365 59.009 28.6017L61.8554 27.88L62.1429 29.0301L61.6944 29.1997ZM61.0446 29.3665L60.1821 29.5879C60.2377 29.7412 60.3009 29.907 60.3718 30.0853C60.4251 30.2227 60.4915 30.3546 60.5702 30.4792C60.6306 30.5765 60.7187 30.6536 60.8232 30.7005C60.9341 30.7387 61.0545 30.7387 61.1654 30.7005C61.2369 30.6845 61.3063 30.6604 61.3724 30.6287C61.4291 30.5967 61.4751 30.5487 61.5046 30.4907C61.5414 30.4275 61.563 30.3566 61.5679 30.2836C61.5693 30.1708 61.5538 30.0584 61.5219 29.9501C61.489 29.8279 61.4301 29.7141 61.3494 29.6166C61.2637 29.5148 61.1605 29.4291 61.0446 29.3636V29.3665Z" fill="white"/>
<path d="M57.3774 25.0738L57.4205 25.1716C57.4298 25.2553 57.4501 25.3375 57.4809 25.416C57.5182 25.5223 57.5527 25.6115 57.5844 25.6805C57.6453 25.8195 57.7194 25.9524 57.8058 26.0772C57.891 26.1963 57.9872 26.307 58.0933 26.4079L60.724 25.209L61.2243 26.3072L57.2969 28.0956L56.7966 26.9973L57.3716 26.7356C57.0966 26.6439 56.8397 26.5047 56.6126 26.3245C56.4695 26.2041 56.353 26.0553 56.2704 25.8875C56.2532 25.8501 56.2331 25.8041 56.2129 25.7552C56.1928 25.7063 56.1784 25.6603 56.1641 25.623L57.3774 25.0738Z" fill="white"/>
</g>
<defs>
<clipPath id="clip0">
<rect width="64" height="64" fill="white"/>
</clipPath>
</defs>
</svg>
