<svg width="41" height="41" viewBox="0 0 41 41" fill="none" xmlns="http://www.w3.org/2000/svg">
<path d="M36.75 20.3333C36.75 11.359 29.4742 4.08325 20.5 4.08325C11.5258 4.08325 4.25 11.359 4.25 20.3333C4.25 29.3075 11.5258 36.5833 20.5 36.5833C29.4742 36.5833 36.75 29.3075 36.75 20.3333Z" stroke="#CA2B48" stroke-width="2.5" stroke-miterlimit="10"/>
<path d="M31.0469 15.3102C30.9323 15.2421 30.7945 15.1746 30.6361 15.1259C30.4397 15.0655 30.2383 15.0486 30.075 15.0471C30.3143 15.0153 30.4826 15.0129 30.6512 15.0542L31.0469 15.3102ZM31.0469 15.3102C31.0374 15.3019 31.0277 15.2934 31.0177 15.2846C30.8275 15.1192 30.7349 15.0748 30.6513 15.0542L31.0469 15.3102ZM26.8049 20.45C26.8057 20.4503 26.8065 20.4506 26.8073 20.451C27.0645 20.5558 27.3249 20.6038 27.5397 20.6281C28.3091 20.7153 29.2526 20.5661 29.5767 20.5149C29.5907 20.5127 29.6036 20.5106 29.6153 20.5088L29.616 20.5087C30.6523 20.3457 31.5149 20.5686 32.0549 21.1537L26.8049 20.45ZM26.8049 20.45C27.2195 20.6852 27.7132 20.7983 28.243 20.7641C28.4913 20.7474 28.7415 20.7037 29.0549 20.6489C29.1063 20.6399 29.1595 20.6306 29.2147 20.6211C29.5503 20.5631 30.0293 20.4823 30.4897 20.5166C30.9974 20.5543 31.638 20.7446 32.0881 21.3598C32.3019 21.6521 32.4281 21.9826 32.4975 22.3254C32.4907 22.2194 32.4817 22.1239 32.4689 22.0331C32.4232 21.7104 32.3313 21.4537 32.0551 21.1539L26.8049 20.45ZM32.8406 24.8444C32.856 24.8869 32.8708 24.9273 32.8848 24.9653L32.8865 24.97C32.9452 25.1299 32.9918 25.2569 33.028 25.3647M32.8406 24.8444L32.348 29.6183L33.0562 28.6193C33.0565 28.6189 33.0567 28.6186 33.057 28.6182C33.1257 28.521 33.2012 28.4302 33.2511 28.3706C33.2699 28.3481 33.2865 28.3285 33.3015 28.3106C33.3124 28.2977 33.3225 28.2857 33.3322 28.2742M32.8406 24.8444L31.6992 25.2215L32.8406 24.8444ZM33.028 25.3647C33.1346 25.8812 33.1601 26.3819 33.1802 26.7751C33.1863 26.8937 33.1918 27.0025 33.1989 27.099L33.199 27.1002C33.228 27.4977 33.2707 27.8925 33.3322 28.2742M33.028 25.3647C33.0745 25.5029 33.1039 25.6096 33.1199 25.7133M33.028 25.3647C32.9912 25.1863 32.9447 25.0059 32.8855 24.8275L32.84 24.8426L33.1199 25.7133M33.3322 28.2742C33.3664 28.4867 33.4064 28.6951 33.453 28.8977L34.077 29.34L33.4535 28.8998L33.3816 28.3311C33.3815 28.3311 33.3816 28.3301 33.3817 28.3283M33.3322 28.2742C33.3474 28.2561 33.3615 28.2392 33.3757 28.2217M33.3757 28.2217C33.3786 28.2493 33.3804 28.2731 33.3813 28.2936C33.3821 28.3122 33.3819 28.3235 33.3817 28.3283M33.3757 28.2217C33.3701 28.1686 33.3607 28.1013 33.3461 28.0157C33.3317 27.9307 33.3195 27.866 33.3056 27.7928C33.2945 27.7341 33.2823 27.6699 33.2672 27.5855C33.2402 27.4349 33.2079 27.239 33.196 27.0421C33.1811 26.7944 33.1758 26.6006 33.1712 26.4319C33.164 26.1673 33.1585 25.9648 33.1199 25.7133M33.3757 28.2217C33.3806 28.2158 33.3855 28.2097 33.3904 28.2036C33.427 28.1582 33.4437 28.1344 33.4494 28.1255M33.3817 28.3283C33.3825 28.3198 33.3858 28.2919 33.398 28.2508M33.3817 28.3283L33.398 28.2508M33.1199 25.7133L33.3981 28.2505L33.398 28.2508M33.4494 28.1255C33.4424 28.1375 33.4188 28.181 33.398 28.2508M33.4494 28.1255C33.4497 28.1251 33.45 28.1247 33.4502 28.1243C33.4522 28.1211 33.4517 28.1216 33.4494 28.1255ZM34.8731 15.8187C34.8735 15.82 34.8739 15.8214 34.8744 15.8227C34.9036 15.9122 34.911 15.959 34.9127 15.9716C34.9077 15.9799 34.8976 15.9947 34.8789 16.0155C34.8085 16.0937 34.6628 16.2047 34.4211 16.3123C33.918 16.5362 33.341 16.5989 33.0736 16.5635C32.6586 16.492 32.2666 16.3226 31.9302 16.0692L31.9302 16.0691L31.9203 16.0618C31.9213 16.0626 31.9212 16.0625 31.9198 16.0613C31.9157 16.0578 31.9008 16.045 31.8707 16.0164C31.8806 16.0235 31.8906 16.0305 31.9007 16.0375C32.4281 16.4057 33.1079 16.6943 33.8555 16.4858C34.3267 16.3544 34.6578 16.0629 34.8731 15.8187ZM28.2318 15.3675C28.3443 15.3379 28.4506 15.3162 28.5633 15.2965C28.5614 15.2971 28.5594 15.2977 28.5575 15.2984C28.4107 15.3456 28.104 15.4497 27.8516 15.6498C27.6719 15.7922 27.5413 15.9513 27.4545 16.0689C27.3652 16.1898 27.2902 16.3116 27.2356 16.4024C27.2063 16.4512 27.1851 16.4872 27.1668 16.5181C27.1427 16.559 27.1237 16.5912 27.0981 16.6324C27.0667 16.6831 27.0529 16.7014 27.0527 16.7019C27.0086 16.7539 26.9454 16.8107 26.7833 16.9565L26.7659 16.9723L26.763 16.9748C26.7591 16.9784 26.755 16.982 26.7509 16.9858C26.9783 16.7195 27.1554 16.4551 27.2938 16.2485L27.298 16.2421C27.5203 15.9103 27.6509 15.7179 27.8078 15.5619L27.8078 15.5619L27.8098 15.5599C27.8612 15.5087 27.9695 15.4364 28.2318 15.3675ZM25.6875 18.3757C25.7557 18.1289 25.9268 17.8332 26.2753 17.476C26.2468 17.5117 26.2189 17.5486 26.1919 17.5866L26.1919 17.5866L26.1902 17.589C25.9589 17.9163 25.643 18.4873 25.7251 19.115C25.6216 18.7954 25.6358 18.5623 25.6875 18.3757Z" fill="#CA2B48" stroke="#CA2B48" stroke-width="2.5"/>
<path d="M11.7332 16.2639C11.5938 16.2876 11.4589 16.3135 11.3261 16.3416L11.4524 17.5442M11.7332 16.2639C12.08 16.2446 12.5457 16.2574 12.9933 16.4267M11.7332 16.2639C11.7355 16.2635 11.7379 16.2631 11.7403 16.2627L11.7423 16.2624C11.8113 16.2506 11.8569 16.245 11.908 16.2387C11.9128 16.2381 11.9176 16.2375 11.9225 16.2369C11.9241 16.2367 11.9265 16.2365 11.9295 16.2361C11.9709 16.2314 12.1377 16.2124 12.3087 16.1519C12.5444 16.0686 12.7067 15.9435 12.8047 15.8585C12.8648 15.8063 12.9357 15.737 12.9833 15.6905C12.9921 15.6819 13.0001 15.6741 13.0071 15.6673L13.0089 15.6655C13.2182 15.4613 13.3763 15.2277 13.4637 15.0985C13.4671 15.0936 13.4703 15.0888 13.4734 15.0842C13.5863 14.9176 13.6208 14.8703 13.6476 14.8418L13.6476 14.8418L13.6535 14.8355C13.9789 14.4857 14.2594 14.0989 14.4261 13.607C14.5017 13.3839 14.5459 13.162 14.5697 12.9428C14.5764 13.1093 14.6028 13.2542 14.6315 13.3727C14.6585 13.4842 14.7058 13.6334 14.7258 13.6965C14.7299 13.7095 14.7329 13.7188 14.7343 13.7235C14.7543 13.7897 14.7604 13.8204 14.7632 13.844M11.7332 16.2639L14.7632 13.844M12.9933 16.4267C12.9919 16.4261 12.9904 16.4256 12.9889 16.425L12.5531 17.5966M12.9933 16.4267C12.9948 16.4272 12.9962 16.4277 12.9976 16.4283L12.5531 17.5966M12.9933 16.4267C13.0026 16.4301 13.0117 16.4336 13.0208 16.4371M12.5531 17.5966C12.2102 17.4661 11.8094 17.5067 11.4524 17.5442M12.5531 17.5966C12.8038 17.6898 12.981 17.8675 13.1584 18.0454C13.3006 18.188 13.443 18.3307 13.6235 18.4302L14.0993 17.5614L14.0994 17.5614L14.2229 17.3359C14.1792 17.3216 14.0788 17.2981 13.9357 17.3153C13.8009 17.3316 13.6581 17.3816 13.5289 17.4711C13.4227 17.5447 13.3497 17.628 13.3017 17.6989C13.3017 17.6989 13.3017 17.699 13.3016 17.699C13.2931 17.7116 13.2854 17.7237 13.2784 17.7354C13.2251 17.8246 13.2088 17.8925 13.2049 17.9157M11.4524 17.5442C10.5969 17.6341 9.79846 17.9614 10.0391 18.9708C10.2266 19.756 11.0758 20.72 11.9 20.831C12.387 20.8967 12.7614 20.654 13.1388 20.4093C13.4346 20.2175 13.7322 20.0245 14.0875 19.9778L9.9858 16.6866C10.4675 16.5518 10.8852 16.4349 11.326 16.3416L11.4524 17.5442ZM13.0208 16.4371C13.0166 16.6635 13.0416 16.8689 13.0672 17.036C13.0851 17.1524 13.1162 17.3199 13.1444 17.4715C13.1617 17.565 13.1779 17.6525 13.1893 17.7182L13.1893 17.7184C13.2058 17.8141 13.2072 17.881 13.2052 17.9115C13.2051 17.9131 13.205 17.9145 13.2049 17.9157M13.0208 16.4371C13.5027 16.6249 13.8225 16.9427 13.9868 17.106C14.0157 17.1347 14.0397 17.1588 14.0604 17.1795C14.1141 17.2333 14.1457 17.265 14.1839 17.2993C14.211 17.3237 14.2252 17.3339 14.2291 17.3366C14.2327 17.3385 14.2357 17.3401 14.2382 17.3413M13.0208 16.4371C13.0224 16.3511 13.0282 16.262 13.0397 16.1709C13.1388 15.3899 13.5996 14.8465 14.182 14.3974L14.1843 14.3956C14.2328 14.3584 14.2765 14.3251 14.3167 14.2945C14.4254 14.2117 14.508 14.1487 14.5894 14.0811C14.6929 13.9951 14.7403 13.9443 14.7628 13.9156C14.7642 13.9138 14.7655 13.9121 14.7666 13.9106M13.2049 17.9157C13.2039 17.9213 13.2037 17.9243 13.2038 17.9244C13.2039 17.9245 13.2044 17.9217 13.2049 17.9157ZM14.2382 17.3413C14.235 17.3401 14.2309 17.3386 14.2259 17.3369L14.7654 13.9237C14.7653 13.9237 14.7654 13.9229 14.7658 13.9214M14.2382 17.3413C14.2444 17.3444 14.2473 17.3456 14.2473 17.3454C14.2472 17.3452 14.2442 17.3437 14.2382 17.3413ZM14.7666 13.9106C14.7664 13.9158 14.766 13.9193 14.7658 13.9214M14.7666 13.9106C14.7671 13.8983 14.7669 13.8768 14.7632 13.844M14.7666 13.9106C14.7713 13.9043 14.773 13.9014 14.773 13.9014C14.773 13.9014 14.7697 13.9072 14.7669 13.9172C14.7664 13.9189 14.766 13.9204 14.7658 13.9214M14.7658 13.9214L14.7632 13.844M14.5928 12.5517C14.6299 12.3179 14.7074 12.098 14.814 11.89L14.5928 12.5517ZM14.5928 12.5517C14.5945 12.434 14.5921 12.3174 14.5872 12.2021L14.5928 12.5517ZM14.9457 21.407L14.9334 21.4547C14.9332 21.4546 14.933 21.4546 14.9327 21.4545C15.324 21.5558 15.6664 21.5568 15.9117 21.5498C15.9333 21.5492 15.9538 21.5485 15.9733 21.5479C15.8185 21.52 15.6322 21.4891 15.4483 21.463C15.293 21.441 15.1221 21.42 14.9646 21.4084L14.9606 21.4081C14.9559 21.4077 14.951 21.4073 14.9457 21.407ZM14.9457 21.407L15.2453 20.2442L14.9457 21.407ZM16.2382 21.5987L15.9829 22.8221L16.2374 21.5986C16.2377 21.5986 16.2379 21.5987 16.2382 21.5987ZM16.2382 21.5987C16.9402 21.745 17.4613 22.2047 17.6841 22.4014C17.7179 22.4312 17.7448 22.4549 17.7644 22.4706L17.7664 22.4722C17.7896 22.4908 17.8128 22.5092 17.8361 22.5276L16.2382 21.5987ZM13.6471 10.3789C14.2857 10.7883 15.0142 10.7613 15.5054 10.6597C16.1283 10.5309 16.6996 10.2312 17.0834 9.95998C17.3378 9.78038 17.5379 9.56738 17.6688 9.42329C17.7259 9.36044 17.7706 9.31023 17.8085 9.26761C17.8464 9.22494 17.8776 9.18987 17.9078 9.15735C17.9542 9.19687 18.0067 9.24572 18.0647 9.30473C18.1902 9.43239 18.3122 9.57688 18.4268 9.72229C18.2735 9.76913 18.1034 9.81437 17.9083 9.86625C17.828 9.8876 17.7435 9.91007 17.6542 9.93424C17.3069 10.0283 16.7501 10.1795 16.3288 10.4543L16.3286 10.4544C16.3193 10.4605 16.3096 10.4668 16.2996 10.4734C16.133 10.5819 15.8732 10.7512 15.6281 10.9482C15.3877 11.1414 15.0355 11.4577 14.8145 11.8892L13.6471 10.3789ZM13.6471 10.3789C13.6743 10.4025 13.7001 10.4253 13.7232 10.4463C14.0955 10.7848 14.5508 11.3264 14.5872 12.2012L13.6471 10.3789ZM13.4769 26.5722C13.345 26.4593 13.2803 26.3688 13.2361 26.2674L13.4769 26.5722ZM13.4769 26.5722C13.4191 26.5018 13.3625 26.422 13.3122 26.3323C13.2226 26.1732 13.1688 26.0133 13.136 25.872C13.153 26.0222 13.1843 26.1484 13.2359 26.2671L13.4769 26.5722ZM21.7409 25.3331L21.7411 25.334C21.7833 25.5109 21.8102 25.6931 21.8226 25.8769C21.808 25.799 21.7888 25.7206 21.7646 25.6418C21.5346 24.8914 20.9527 24.4404 20.4493 24.1616L20.4447 24.1591C19.7622 23.7849 19.1308 23.4305 18.5463 23.0406C18.8372 23.2223 19.1379 23.3842 19.4133 23.5291C19.5041 23.577 19.5926 23.6231 19.6789 23.6682C20.0092 23.8406 20.3092 23.9971 20.5984 24.1705C21.3502 24.6212 21.6564 24.9773 21.7409 25.3331ZM21.4391 27.7112C21.4404 27.7088 21.4418 27.7064 21.4431 27.704C21.405 27.7742 21.3641 27.842 21.3205 27.9073C21.3618 27.8438 21.4014 27.7785 21.439 27.7114L21.4391 27.7112ZM19.0531 30.0418C19.1108 29.9851 19.1697 29.9311 19.2313 29.8775C19.1631 29.9411 19.0953 30.0062 19.0283 30.0727C19.0467 30.0501 19.0536 30.0419 19.0534 30.0417C19.0533 30.0417 19.0533 30.0417 19.0531 30.0418ZM18.2018 30.8843C18.3063 30.8221 18.3992 30.7512 18.4784 30.6826C17.6419 31.7166 17.0192 33.0057 16.8061 34.3569C16.7904 34.2927 16.7726 34.2198 16.7581 34.1633C16.5048 33.1595 16.3208 32.1395 16.2073 31.1104L16.2074 31.1104L16.2067 31.1046C16.1968 31.0185 16.1869 30.9149 16.176 30.7998C16.1566 30.5957 16.1337 30.3552 16.101 30.1116C16.1275 30.185 16.1635 30.2719 16.2121 30.3615C16.2687 30.4658 16.4207 30.7244 16.7294 30.9075L16.7301 30.9079C17.3804 31.2933 17.9883 31.0114 18.2018 30.8843ZM16.1896 35.4512L16.2103 35.801C16.118 35.7465 16.03 35.6873 15.9789 35.6255C15.8637 35.4866 15.7831 35.3092 15.7205 35.1225C15.7906 35.0606 15.8558 35.0176 15.9035 34.9896C16.0164 34.9232 16.1122 34.8925 16.1558 34.8799L16.1896 35.4508L16.1896 35.4512ZM7.85819 17.1587C7.56156 16.6649 7.30384 16.2124 7.10048 15.7535C7.24743 15.9896 7.43934 16.2334 7.69237 16.4345C8.21893 16.8531 8.88583 16.9912 9.58384 16.7985C9.68785 16.7698 9.7884 16.7418 9.88618 16.7144C9.77327 16.7775 9.66309 16.8499 9.558 16.9333C9.25004 17.1775 8.98376 17.5178 8.84499 17.9619C8.77169 18.1965 8.74209 18.4338 8.74596 18.6682C8.51414 18.2406 8.26971 17.8378 8.04396 17.4658C7.98032 17.361 7.91816 17.2585 7.85819 17.1587ZM13.0425 22.9223C12.969 22.6203 12.856 22.312 12.6847 22.0105C13.128 21.8948 13.4698 21.6813 13.6876 21.5427C14.092 21.2853 14.1748 21.2347 14.2294 21.2211C14.2409 21.224 14.2592 21.2291 14.2862 21.2379C14.3305 21.2525 14.3676 21.2663 14.4245 21.2874C14.452 21.2976 14.4842 21.3096 14.5241 21.3242C14.5843 21.3463 14.6569 21.3723 14.7387 21.3983C14.6602 21.398 14.5705 21.4013 14.478 21.4126C14.4653 21.4112 14.4524 21.4101 14.4393 21.4091C14.2761 21.3973 14.0196 21.4119 13.7512 21.5579C13.4732 21.709 13.3091 21.932 13.2208 22.1161C13.1407 22.2833 13.1166 22.4295 13.1076 22.5016C13.102 22.5458 13.0996 22.5851 13.0985 22.6168C13.0709 22.7216 13.0533 22.8248 13.0425 22.9223ZM14.3335 21.437C14.3335 21.4369 14.3337 21.4369 14.3339 21.4369C14.3337 21.4369 14.3336 21.4369 14.3335 21.437L14.3335 21.437ZM13.1038 22.7802C13.1034 22.7751 13.1029 22.7698 13.1025 22.7644C13.103 22.77 13.1034 22.7753 13.1038 22.7802ZM13.0885 9.88188C12.9949 9.76228 12.9156 9.63271 12.8518 9.49579C12.955 9.69789 13.087 9.8726 13.2197 10.0174L13.2197 10.0175C13.2227 10.0208 13.2256 10.024 13.2286 10.0272C13.162 9.96722 13.1207 9.92334 13.0909 9.88498L13.0909 9.88498L13.0885 9.88188ZM17.8115 36.0963C17.9786 35.8332 17.9949 35.3796 18.0084 35.0032C18.0143 34.8394 18.0197 34.6902 18.0367 34.5778L17.8115 36.0963ZM15.8855 29.0841C15.8882 29.0994 15.8927 29.1257 15.8991 29.1662C15.7922 28.8316 15.6355 28.486 15.3979 28.1556C15.6047 28.4376 15.7695 28.7503 15.8855 29.0841ZM13.7455 23.7502C13.7465 23.7507 13.7479 23.7515 13.7496 23.7524C13.742 23.7483 13.7393 23.7467 13.7446 23.7496L13.7455 23.7502ZM16.8328 28.801C16.8328 28.8009 16.8343 28.7994 16.8374 28.7967C16.8344 28.7997 16.8329 28.801 16.8328 28.801Z" fill="#CA2B48" stroke="#CA2B48" stroke-width="2.5"/>
<path d="M20.6961 6.58862L20.6961 6.58863L20.6961 6.58862ZM18.3711 5.48347C18.5363 5.45995 18.702 5.4392 18.8681 5.42122L18.8688 5.42115C19.024 5.40426 19.1794 5.38983 19.3349 5.37785C19.3525 5.46638 19.3711 5.55222 19.3876 5.62806C19.3895 5.63664 19.3913 5.64508 19.3931 5.6534C19.4095 5.72881 19.4237 5.79404 19.4369 5.85891C19.4914 6.12713 19.4907 6.23318 19.4852 6.27439C19.4775 6.27841 19.467 6.28237 19.4547 6.28465C19.4406 6.28728 19.4287 6.28684 19.4201 6.28529L19.42 6.28527C19.3583 6.27408 19.2857 6.24776 19.1364 6.13021C19.0535 6.065 18.9704 5.99097 18.8475 5.88151L18.8454 5.87964C18.732 5.77871 18.5848 5.64773 18.4198 5.52031C18.4036 5.50769 18.3873 5.49542 18.3711 5.48347Z" fill="#CA2B48" stroke="#CA2B48" stroke-width="2.5"/>
<path d="M28.3438 9.96376C29.0071 9.96376 29.6805 9.66689 29.4664 8.8997C29.2867 8.25673 28.9805 7.55908 28.2352 7.90595C27.761 8.12626 27.0891 8.6872 27.0336 9.24345C26.9703 9.8747 27.9016 9.96376 28.3438 9.96376Z" fill="#CA2B48"/>
<path d="M27.814 13.3207C28.4914 13.7262 29.4961 13.5356 30.007 12.9567C30.4062 12.5035 30.6414 11.7168 31.3594 11.7176C31.6754 11.7169 31.9791 11.8407 32.2047 12.0621C32.5015 12.3692 32.4429 12.6574 32.5062 13.0418C32.6476 13.9051 33.5734 13.091 33.8148 12.7567C33.9711 12.5387 34.1828 12.2153 34.1117 11.9317C34.0461 11.6668 33.7367 11.3848 33.5992 11.1418C33.1976 10.4387 32.8672 9.62073 32.2656 9.05276C31.6867 8.50588 30.975 8.56916 30.4258 9.13713C29.9758 9.60588 29.4531 9.97698 29.1453 10.5473C28.9281 10.9481 28.6836 11.1395 28.2437 11.2434C28.0015 11.3004 27.725 11.3215 27.5219 11.484C26.9562 11.9293 27.2781 12.9989 27.814 13.3207Z" fill="#CA2B48"/>
</svg>
