<svg width="40" height="40" viewBox="0 0 40 40" fill="none" xmlns="http://www.w3.org/2000/svg">
<path d="M32.8571 5C33.3929 5 33.9286 5.26786 34.3304 5.66964C34.7321 6.07143 35 6.60714 35 7.14286V32.8571C35 33.4598 34.7321 33.9955 34.3304 34.3973C33.9286 34.7991 33.3929 35 32.8571 35H7.14286C6.54018 35 6.00446 34.7991 5.60268 34.3973C5.20089 33.9955 5 33.4598 5 32.8571V7.14286C5 6.60714 5.20089 6.07143 5.60268 5.66964C6.00446 5.26786 6.54018 5 7.14286 5H32.8571ZM14.1071 30.7143V16.3839H9.62054V30.7143H14.1071ZM11.8304 14.442C12.5 14.442 13.1027 14.2411 13.6384 13.7054C14.1741 13.1696 14.442 12.567 14.442 11.8973C14.442 11.2277 14.1741 10.625 13.6384 10.0893C13.1027 9.55357 12.5 9.28571 11.8304 9.28571C11.0938 9.28571 10.4911 9.55357 10.0223 10.0893C9.48661 10.625 9.28571 11.2277 9.28571 11.8973C9.28571 12.567 9.48661 13.1696 10.0223 13.7054C10.4911 14.2411 11.0938 14.442 11.8304 14.442ZM30.7143 30.7143V22.8795C30.7143 20.6696 30.3795 19.0625 29.7768 17.9911C28.9062 16.7188 27.433 16.0491 25.4241 16.0491C24.3527 16.0491 23.4821 16.317 22.6786 16.7857C22.0089 17.1875 21.4732 17.7232 21.2054 18.3259H21.1384V16.3839H16.8527V30.7143H21.2723V23.6161C21.2723 22.5446 21.4062 21.6741 21.7411 21.0714C22.1429 20.3348 22.8795 19.933 23.9509 19.933C24.9554 19.933 25.625 20.4018 25.9598 21.2054C26.1607 21.7411 26.2946 22.6116 26.2946 23.75V30.7143H30.7143Z" fill="white"/>
</svg>
