<svg width="270" height="35" viewBox="0 0 270 35" fill="none" xmlns="http://www.w3.org/2000/svg">
<path fill-rule="evenodd" clip-rule="evenodd" d="M6.8467 6.94484H12.5164V13.838H6.83344V16.7457C6.83344 19.1263 7.01912 19.9519 7.41367 20.7211C7.67892 21.2218 8.01048 21.5633 8.51777 21.8319C9.26046 22.2364 10.1059 22.4154 12.4766 22.4154H12.533V29.3152H12.4766C8.82612 29.3152 6.97933 28.8278 5.29501 27.9226C3.61068 27.0141 2.28776 25.6879 1.38592 23.9936C0.484077 22.3027 0 20.4459 0 16.7789V0.777832H6.8467V6.94484ZM22.7681 16.7757V6.49074H15.8817V16.7757C15.8817 20.4428 16.3657 22.2995 17.2676 23.9904C17.7351 24.8392 18.2755 25.5852 18.9353 26.2484C20.9678 28.2908 23.6269 29.3186 26.3026 29.3186C28.9783 29.3186 31.6374 28.2875 33.6698 26.2484C34.3396 25.6018 34.8767 24.8326 35.3376 23.9904C36.2394 22.2995 36.7235 20.4428 36.7235 16.7757V6.49074H29.8635V16.7757C29.8635 19.1563 29.6878 20.0051 29.2833 20.7511C29.1706 21.0164 29.0081 21.212 28.8224 21.3976C28.1361 22.0873 27.2575 22.4421 26.3158 22.4421C25.3742 22.4421 24.4856 22.0773 23.8092 21.3976C23.6302 21.212 23.4843 21.0197 23.3484 20.7511C22.9538 19.9819 22.7681 19.1563 22.7681 16.7757ZM60.3936 10.6386L54.9195 14.793C54.0574 13.6425 52.6947 12.8965 51.1231 12.8965C48.5204 12.8965 46.3852 15.0351 46.3852 17.6577C46.3852 20.2803 48.5138 22.4189 51.1231 22.4189C52.6715 22.4189 54.0342 21.6729 54.9195 20.5224L60.4002 24.6768C58.2716 27.5017 54.9195 29.3087 51.1298 29.3087C44.7207 29.3087 39.5219 24.0866 39.5219 17.6478C39.5219 11.2089 44.7207 5.99344 51.1198 5.99344C54.893 5.97023 58.2683 7.80707 60.3902 10.6253V10.632L60.3936 10.6386ZM61.0799 17.6576C61.0799 11.2187 66.2787 5.98003 72.6778 5.98003C79.0769 5.98003 84.2758 11.1955 84.2758 17.6344C84.2758 24.0732 79.0769 29.3119 72.6778 29.3119C66.2787 29.3119 61.0799 24.0965 61.0799 17.6576ZM67.9398 17.6509C67.9398 20.2736 70.0486 22.4121 72.6778 22.4121C75.2872 22.4121 77.4158 20.2736 77.4158 17.6509C77.4158 15.0283 75.2872 12.8897 72.6778 12.8897C70.0685 12.8897 67.9398 15.0283 67.9398 17.6509ZM134.116 14.7498C136.543 15.5356 137.809 16.1026 138.887 17.0674C140.412 18.397 141.297 20.2106 141.297 22.1535C141.297 26.1289 137.624 29.3119 133.131 29.3119C130.906 29.3119 128.632 28.5261 127.15 27.2397C126.125 26.3478 125.465 25.6847 124.902 24.9386L124.683 24.6568L129.341 21.1257C129.938 21.7722 130.525 22.2497 131.082 22.5746C131.825 22.9957 132.445 23.198 133.128 23.198C134.248 23.198 135.177 22.8498 135.177 22.2265C135.177 22.0408 135.097 21.9016 134.878 21.7258C134.597 21.4838 134.056 21.2252 133.008 20.8339C132.929 20.8107 132.282 20.5919 132.17 20.5521C129.743 19.7663 128.479 19.1993 127.398 18.2345C125.873 16.905 124.988 15.0913 124.988 13.1484C124.988 9.17299 128.662 5.99 133.154 5.99C135.379 5.99 137.654 6.7758 139.136 8.06225C140.16 8.95415 140.82 9.61727 141.384 10.3633L141.602 10.6451L136.944 14.1762C136.324 13.5297 135.744 13.0489 135.203 12.7273C134.461 12.3062 133.841 12.104 133.154 12.104C132.034 12.104 131.109 12.4289 131.109 13.0754C131.109 13.2611 131.188 13.3738 131.39 13.5761C131.672 13.8181 132.213 14.0767 133.26 14.468C133.32 14.4877 133.503 14.5475 133.688 14.6076L133.691 14.6086C133.877 14.6692 134.063 14.7299 134.122 14.7498H134.116ZM115.011 16.769V6.48398H121.924V16.769C121.924 20.436 121.44 22.2927 120.538 23.9837C120.071 24.8259 119.531 25.5951 118.871 26.2416C116.838 28.284 114.173 29.3119 111.503 29.3119C108.997 29.3119 106.49 28.4034 104.514 26.6063C102.538 28.4034 100.032 29.3119 97.5249 29.3119C94.8492 29.3119 92.1901 28.284 90.1577 26.2416C89.4912 25.5785 88.9508 24.8325 88.4899 23.9837C87.5881 22.2927 87.104 20.436 87.104 16.769V6.48398H93.964V16.769C93.964 19.1496 94.1397 19.9751 94.5442 20.7444C94.6835 21.0096 94.8194 21.2052 95.0051 21.3909C95.6814 22.0706 96.57 22.4353 97.5117 22.4353C98.4533 22.4353 99.3319 22.0805 100.018 21.3909C100.194 21.2052 100.356 21.0129 100.476 20.7444C100.87 19.9917 101.056 19.1496 101.056 16.769V6.48398H107.916V16.769C107.916 19.1496 108.095 19.9751 108.496 20.7444C108.635 21.0096 108.771 21.2052 108.957 21.3909C109.633 22.0706 110.522 22.4353 111.464 22.4353C112.405 22.4353 113.284 22.0805 113.97 21.3909C114.149 21.2052 114.312 21.0129 114.431 20.7444C114.826 19.9917 115.011 19.1496 115.011 16.769Z" fill="white"/>
<path fill-rule="evenodd" clip-rule="evenodd" d="M145.154 29.4471L155.782 0.690918H162.568L152.12 29.4471H145.154ZM175.066 6.70774C172.079 6.13611 169.05 6.75619 166.547 8.44526C164.044 10.144 162.342 12.718 161.77 15.7086C161.499 17.107 161.499 18.5506 161.77 19.878C162.587 24.3864 166.292 28.136 170.774 28.9918C171.601 29.1501 172.428 29.2308 173.222 29.2308C177.857 29.2308 180.947 26.6116 182.378 25.0453L182.601 24.8063L177.999 21.3216L177.815 21.4895C176.972 22.2743 174.659 23.6178 171.901 23.0849C170.377 22.791 169.176 21.8157 168.604 20.4238L183.793 20.5755L183.951 20.2332C184.038 20.0427 184.061 19.8683 184.077 19.7262C184.077 19.6777 184.083 19.6228 184.099 19.5421C185.036 13.4931 181.064 7.85424 175.047 6.69806L175.063 6.70451L175.066 6.70774ZM168.707 15.1563C169.54 13.3381 171.465 12.1948 173.348 12.4079C174.986 12.5597 176.494 13.6933 177.227 15.2726L168.707 15.1628V15.1563ZM221.475 6.50741C215.203 6.50741 210.114 11.6166 210.114 17.8755C210.114 24.1344 215.203 29.2275 221.475 29.2275C227.747 29.2275 232.837 24.1183 232.837 17.8594C232.837 11.6004 227.747 6.50741 221.475 6.50741ZM221.475 22.5099C218.898 22.5099 216.834 20.4333 216.834 17.8723C216.834 15.3112 218.921 13.2346 221.475 13.2346C224.03 13.2346 226.116 15.3112 226.116 17.8723C226.116 20.4333 224.03 22.5099 221.475 22.5099ZM200.593 18.7184V28.7333H200.596H207.346V18.7184C207.346 15.1465 206.874 13.338 205.989 11.6909C205.531 10.8641 205.001 10.1374 204.355 9.49153C202.366 7.50211 199.76 6.50094 197.14 6.50094C194.521 6.50094 191.915 7.50534 189.926 9.49153C189.27 10.1213 188.74 10.8706 188.291 11.6909C187.406 13.3412 186.932 15.1465 186.932 18.7184V28.7333H193.649V18.7184C193.649 16.3996 193.824 15.5728 194.218 14.8462C194.327 14.5878 194.486 14.3973 194.667 14.2164C195.338 13.5447 196.197 13.1991 197.121 13.1991C198.045 13.1991 198.913 13.5543 199.576 14.2164C199.747 14.3973 199.889 14.5846 200.024 14.8462C200.412 15.5954 200.593 16.3996 200.593 18.7184ZM242.164 28.7139V18.7151C242.164 16.3995 242.345 15.5824 242.729 14.8493C242.845 14.591 243.004 14.4004 243.175 14.2196C243.84 13.551 244.696 13.2055 245.613 13.2055C246.53 13.2055 247.393 13.5607 248.051 14.2196C248.232 14.4004 248.365 14.591 248.497 14.8493C248.888 15.5986 249.062 16.3995 249.062 18.7151V28.7139H255.731V18.7151C255.731 16.3995 255.912 15.5824 256.297 14.8493C256.413 14.591 256.571 14.4004 256.742 14.2196C257.408 13.551 258.263 13.2055 259.181 13.2055C260.098 13.2055 260.96 13.5607 261.619 14.2196C261.8 14.4004 261.932 14.591 262.065 14.8493C262.455 15.5986 262.63 16.3995 262.63 18.7151V28.7139H269.299V18.7151C269.299 15.1497 268.827 13.3443 267.952 11.7005C267.506 10.8737 266.98 10.1503 266.331 9.50438C264.358 7.52142 261.771 6.52026 259.168 6.52026C256.729 6.52026 254.294 7.40193 252.373 9.14913C250.451 7.40193 248.016 6.52026 245.578 6.52026C242.984 6.52026 240.391 7.52142 238.414 9.50438C237.772 10.1342 237.245 10.8834 236.793 11.7005C235.915 13.3476 235.446 15.1497 235.446 18.7151V28.7139H242.164Z" fill="white"/>
</svg>
