<svg width="41" height="41" viewBox="0 0 41 41" fill="none" xmlns="http://www.w3.org/2000/svg">
<path d="M35.5 5.33325H5.5C4.11929 5.33325 3 6.45254 3 7.83325V27.8333C3 29.214 4.11929 30.3333 5.5 30.3333H35.5C36.8807 30.3333 38 29.214 38 27.8333V7.83325C38 6.45254 36.8807 5.33325 35.5 5.33325Z" stroke="#CA2B48" stroke-width="2.5" stroke-linejoin="round"/>
<path d="M24.25 35.3333L23.625 30.3333H17.375L16.75 35.3333H24.25Z" fill="#CA2B48" stroke="#CA2B48" stroke-width="2.5" stroke-linecap="round" stroke-linejoin="round"/>
<path d="M29.25 35.3333H11.75" stroke="#CA2B48" stroke-width="2.5" stroke-linecap="round" stroke-linejoin="round"/>
<path d="M4.61817 28.7151C4.38363 28.4806 4.25131 28.1628 4.25 27.8312V25.3333H20.4975C20.3354 25.3334 20.1728 25.3493 20.0123 25.3813C19.5273 25.4778 19.0819 25.7159 18.7322 26.0655C18.3826 26.4151 18.1445 26.8606 18.048 27.3455C17.9516 27.8305 18.0011 28.3331 18.1903 28.79C18.2322 28.8912 18.2806 28.9891 18.3349 29.0833H5.50208C5.17043 29.0819 4.85271 28.9496 4.61817 28.7151ZM20.5025 25.3333H36.75L36.75 27.8298C36.75 27.8301 36.75 27.8305 36.75 27.8309C36.7488 28.1627 36.6164 28.4805 36.3818 28.7151C36.1473 28.9496 35.8296 29.0819 35.4979 29.0833H22.6651C22.8826 28.7064 23 28.2759 23 27.8333C23 27.3388 22.8534 26.8555 22.5787 26.4443C22.304 26.0332 21.9135 25.7128 21.4567 25.5236C21.1527 25.3976 20.8284 25.3336 20.5025 25.3333Z" fill="#CA2B48" stroke="#CA2B48" stroke-width="2.5"/>
</svg>
