<svg width="41" height="41" viewBox="0 0 41 41" fill="none" xmlns="http://www.w3.org/2000/svg">
<path d="M31.9063 13.4583C31.6774 16.6356 29.3204 19.0833 26.7501 19.0833C24.1798 19.0833 21.8188 16.6364 21.5938 13.4583C21.3594 10.1528 23.654 7.83325 26.7501 7.83325C29.8462 7.83325 32.1407 10.2129 31.9063 13.4583Z" stroke="#CA2B48" stroke-width="2.5" stroke-linecap="round" stroke-linejoin="round"/>
<path d="M26.7501 24.0833C21.6587 24.0833 16.7626 26.6122 15.536 31.5372C15.3735 32.1887 15.7821 32.8333 16.4516 32.8333H37.0493C37.7188 32.8333 38.1251 32.1887 37.9649 31.5372C36.7383 26.5333 31.8422 24.0833 26.7501 24.0833Z" stroke="#CA2B48" stroke-width="2.5" stroke-miterlimit="10"/>
<path d="M16.1251 14.8598C15.9422 17.3973 14.0376 19.3958 11.9844 19.3958C9.93131 19.3958 8.0235 17.3981 7.84381 14.8598C7.65709 12.22 9.511 10.3333 11.9844 10.3333C14.4579 10.3333 16.3118 12.2684 16.1251 14.8598Z" stroke="#CA2B48" stroke-width="2.5" stroke-linecap="round" stroke-linejoin="round"/>
<path d="M16.5938 24.2395C15.1836 23.5934 13.6305 23.345 11.9844 23.345C7.92191 23.345 4.00784 25.3645 3.02738 29.2981C2.89847 29.8184 3.22503 30.3333 3.75941 30.3333H12.5313" stroke="#CA2B48" stroke-width="2.5" stroke-miterlimit="10" stroke-linecap="round"/>
</svg>
