<svg width="33" height="32" viewBox="0 0 33 32" fill="none" xmlns="http://www.w3.org/2000/svg">
<path d="M14.3181 4C12.3763 4 10.4781 4.57582 8.86347 5.65465C7.24889 6.73348 5.99048 8.26686 5.24736 10.0609C4.50425 11.8549 4.30982 13.829 4.68866 15.7335C5.06749 17.6381 6.00258 19.3875 7.37567 20.7606C8.74876 22.1337 10.4982 23.0688 12.4027 23.4476C14.3072 23.8264 16.2813 23.632 18.0754 22.8889C19.8694 22.1458 21.4028 20.8874 22.4816 19.2728C23.5604 17.6582 24.1363 15.76 24.1363 13.8181C24.1361 11.2142 23.1016 8.71707 21.2604 6.87585C19.4192 5.03463 16.922 4.00017 14.3181 4V4Z" stroke="white" stroke-width="2.5" stroke-miterlimit="10"/>
<path d="M21.6431 21.1431L28.5 27.9999" stroke="white" stroke-width="2" stroke-miterlimit="10" stroke-linecap="round"/>
</svg>
