<?xml version="1.0" encoding="utf-8"?>
<!-- Generator: Adobe Illustrator 24.3.0, SVG Export Plug-In . SVG Version: 6.00 Build 0)  -->
<svg version="1.1" id="a" xmlns="http://www.w3.org/2000/svg" xmlns:xlink="http://www.w3.org/1999/xlink" x="0px" y="0px"
	 viewBox="0 0 817.8 89" style="enable-background:new 0 0 817.8 89;" xml:space="preserve">
<style type="text/css">
	.st0{fill:#F54565;}
	.st1{fill:#04034A;}
</style>
<g>
	<path class="st0" d="M669.7,18c-19.4,0-35.2,15.8-35.2,35.2s15.8,35.2,35.2,35.2c19.4,0,35.2-15.8,35.2-35.2S689.2,18,669.7,18z
		 M669.7,67.6c-8,0-14.4-6.4-14.4-14.4s6.5-14.4,14.4-14.4c7.9,0,14.4,6.4,14.4,14.4S677.7,67.6,669.7,67.6z"/>
	<path class="st0" d="M526.1,18.6c-9.2-1.8-18.6,0.2-26.4,5.4c-7.8,5.3-13,13.2-14.8,22.5c-0.8,4.3-0.8,8.8,0,12.9
		c2.5,14,14,25.6,27.9,28.2c2.6,0.5,5.1,0.7,7.6,0.7c14.3,0,23.9-8.1,28.3-13l0.7-0.7l-14.2-10.8l-0.6,0.5
		c-2.6,2.4-9.8,6.6-18.3,4.9c-4.7-0.9-8.4-3.9-10.2-8.2l47,0.5l0.5-1.1c0.3-0.6,0.3-1.1,0.4-1.6c0-0.1,0-0.3,0.1-0.6
		C556.9,39.6,544.6,22.2,526.1,18.6L526.1,18.6L526.1,18.6z M506.4,44.8c2.6-5.6,8.5-9.2,14.4-8.5c5.1,0.5,9.7,4,12,8.9L506.4,44.8
		C506.4,44.8,506.4,44.8,506.4,44.8z"/>
	<path class="st0" d="M605.1,86.8v-31c0-7.2-0.6-9.7-1.8-12c-0.4-0.8-0.9-1.4-1.4-1.9c-2-2.1-4.7-3.2-7.6-3.2s-5.5,1.1-7.6,3.2
		c-0.6,0.6-1,1.2-1.4,1.9c-1.2,2.2-1.8,4.8-1.8,12v31h-20.8v-31c0-11.1,1.5-16.7,4.2-21.8c1.4-2.5,3-4.9,5.1-6.8
		c6.2-6.2,14.2-9.3,22.3-9.3c8.1,0,16.2,3.1,22.3,9.3c2,2,3.6,4.2,5.1,6.8c2.7,5.1,4.2,10.7,4.2,21.8v31H605.1L605.1,86.8z"/>
	<path class="st0" d="M733.8,86.8v-31c0-7.2,0.6-9.7,1.8-12c0.4-0.8,0.8-1.4,1.4-1.9c2.1-2.1,4.7-3.1,7.5-3.1s5.5,1.1,7.6,3.1
		c0.6,0.6,1,1.2,1.4,1.9c1.2,2.3,1.8,4.8,1.8,12v31h20.7v-31c0-7.2,0.6-9.7,1.8-12c0.4-0.8,0.8-1.4,1.4-1.9c2.1-2.1,4.7-3.1,7.5-3.1
		s5.5,1.1,7.6,3.1c0.6,0.6,1,1.2,1.4,1.9c1.2,2.3,1.8,4.8,1.8,12v31h20.7v-31c0-11-1.5-16.6-4.2-21.7c-1.4-2.6-3-4.8-5-6.8
		c-6.1-6.1-14.1-9.2-22.2-9.2c-7.6,0-15.1,2.7-21,8.1c-5.9-5.4-13.5-8.1-21-8.1c-8,0-16.1,3.1-22.2,9.2c-2,1.9-3.6,4.3-5,6.8
		c-2.7,5.1-4.2,10.7-4.2,21.7v31H733.8L733.8,86.8z"/>
</g>
<polygon class="st0" points="466.3,0 433.4,89 455,89 487.3,0 "/>
<path class="st1" d="M20.6,20.9h17.1v20.8H20.6v8.8c0,7.2,0.6,9.7,1.8,12c0.8,1.5,1.8,2.5,3.3,3.4c2.2,1.2,4.8,1.8,11.9,1.8h0.2
	v20.8h-0.2c-11,0-16.6-1.5-21.7-4.2c-5.1-2.7-9.1-6.7-11.8-11.9C1.5,67.2,0,61.6,0,50.6V2.3h20.7L20.6,20.9L20.6,20.9L20.6,20.9
	L20.6,20.9L20.6,20.9z"/>
<path class="st1" d="M68.7,19.5v31c0,7.2,0.6,9.7,1.8,12c0.4,0.8,0.9,1.4,1.4,1.9c2,2.1,4.7,3.1,7.6,3.1s5.5-1.1,7.6-3.1
	c0.6-0.6,1.1-1.1,1.4-1.9c1.2-2.2,1.8-4.8,1.8-12v-31h20.7v31c0,11.1-1.5,16.7-4.2,21.8c-1.4,2.5-3,4.9-5,6.8
	c-6.1,6.1-14.1,9.3-22.2,9.3s-16.1-3.1-22.2-9.3c-2-2-3.6-4.2-5-6.8c-2.7-5.1-4.2-10.7-4.2-21.8v-31L68.7,19.5L68.7,19.5z"/>
<path class="st1" d="M182.2,32l-16.5,12.5c-2.6-3.5-6.7-5.7-11.4-5.7c-7.9,0-14.3,6.4-14.3,14.4s6.4,14.4,14.3,14.4
	c4.7,0,8.8-2.2,11.4-5.7l16.5,12.5c-6.4,8.5-16.5,14-28,14c-19.3,0-35-15.8-35-35.2s15.7-35.2,35-35.2C165.6,18,175.8,23.5,182.2,32
	L182.2,32L182.2,32z"/>
<path class="st1" d="M219.2,18c-19.3,0-35,15.8-35,35.2s15.7,35.2,35,35.2s35-15.8,35-35.2S238.5,18,219.2,18z M219.2,67.6
	c-7.9,0-14.3-6.4-14.3-14.4s6.4-14.4,14.3-14.4s14.3,6.4,14.3,14.4S227.1,67.6,219.2,67.6z"/>
<path class="st1" d="M404.5,44.4c7.3,2.4,11.1,4.1,14.4,7c4.6,4,7.3,9.5,7.3,15.3c0,12-11.1,21.6-24.6,21.6c-6.7,0-13.6-2.4-18-6.2
	c-3.1-2.7-5.1-4.7-6.8-6.9l-0.7-0.9l14-10.6c1.8,1.9,3.6,3.4,5.2,4.4c2.2,1.3,4.1,1.9,6.2,1.9c3.4,0,6.2-1.1,6.2-2.9
	c0-0.6-0.2-1-0.9-1.5c-0.9-0.7-2.5-1.5-5.6-2.7c-0.2-0.1-2.2-0.7-2.5-0.9c-7.3-2.4-11.1-4.1-14.4-7c-4.6-4-7.3-9.5-7.3-15.3
	c0-12,11.1-21.6,24.6-21.6c6.7,0,13.6,2.4,18,6.2c3.1,2.7,5.1,4.7,6.8,6.9l0.7,0.8l-14,10.7c-1.9-1.9-3.6-3.4-5.2-4.4
	c-2.2-1.3-4.1-1.9-6.2-1.9c-3.4,0-6.2,1-6.2,2.9c0,0.6,0.2,0.9,0.9,1.5c0.9,0.7,2.5,1.5,5.6,2.7C402.3,43.7,404.2,44.3,404.5,44.4
	L404.5,44.4L404.5,44.4z"/>
<path class="st1" d="M346.9,19.5v31c0,7.2-0.6,9.7-1.8,12c-0.4,0.8-0.9,1.4-1.4,1.9c-2.1,2.1-4.7,3.1-7.6,3.1s-5.5-1.1-7.6-3.1
	c-0.6-0.6-1-1.1-1.4-1.9c-1.2-2.3-1.8-4.8-1.8-12v-31h-20.7v31c0,7.2-0.6,9.7-1.8,12c-0.4,0.8-0.9,1.4-1.4,1.9
	c-2.1,2.1-4.7,3.1-7.6,3.1s-5.5-1.1-7.6-3.1c-0.6-0.6-1-1.1-1.4-1.9c-1.2-2.3-1.8-4.8-1.8-12v-31h-20.7v31c0,11.1,1.5,16.7,4.2,21.8
	c1.4,2.6,3,4.8,5,6.8c6.1,6.2,14.1,9.3,22.2,9.3c7.6,0,15.1-2.7,21.1-8.2c6,5.4,13.5,8.2,21.1,8.2c8,0,16.1-3.1,22.2-9.3
	c2-1.9,3.6-4.3,5-6.8c2.7-5.1,4.2-10.7,4.2-21.8v-31L346.9,19.5L346.9,19.5z"/>
</svg>
