<svg width="64" height="44" viewBox="0 0 64 44" fill="none" xmlns="http://www.w3.org/2000/svg">
<g clip-path="url(#clip0)">
<path d="M13.1193 30.1143C13.1147 31.8514 12.4209 33.5157 11.1903 34.7416C9.95956 35.9675 8.2926 36.6548 6.55552 36.6526C4.81844 36.6503 3.15327 35.9587 1.92577 34.7296C0.69826 33.5004 0.00878906 31.8344 0.00878906 30.0973C0.00878906 28.3602 0.69826 26.6941 1.92577 25.465C3.15327 24.2359 4.81844 23.5443 6.55552 23.542C8.2926 23.5397 9.95956 24.2271 11.1903 25.453C12.4209 26.6789 13.1147 28.3432 13.1193 30.0802V30.1143Z" fill="#E10E49"/>
<path d="M57.1797 6.89844L49.9294 29.7464H49.8135L42.277 6.89844H35.1426L45.9635 36.6492H53.3228L63.9734 6.89844H57.1797Z" fill="black"/>
<path d="M27.2796 28.2474V11.7911H33.208V6.89852H27.2796V0.5H20.7039V6.89852H15.7568V11.7911H20.7039V28.6221C20.7653 32.0292 21.5284 33.6169 23.0071 35.3477C25.4807 38.2574 32.4925 36.8809 33.2284 36.806V31.7294C27.7157 32.7175 27.2796 30.8776 27.2796 28.2474Z" fill="black"/>
</g>
<defs>
<clipPath id="clip0">
<rect width="64" height="43" fill="white" transform="translate(0 0.5)"/>
</clipPath>
</defs>
</svg>
