<svg width="40" height="40" viewBox="0 0 40 40" fill="none" xmlns="http://www.w3.org/2000/svg">
<path d="M33.594 13.0358C34.9333 12.0314 36.1387 10.826 37.1431 9.35281C35.8038 9.95549 34.4646 10.3573 33.1253 10.4912C34.5985 9.55371 35.6699 8.28138 36.2056 6.60728C34.7994 7.41085 33.3262 8.01353 31.719 8.28138C31.0494 7.61174 30.2458 7.07603 29.3753 6.67424C28.5047 6.27246 27.5672 6.07156 26.5628 6.07156C25.2905 6.07156 24.1521 6.40639 23.0806 7.00906C22.0092 7.67871 21.1387 8.54924 20.536 9.62067C19.8663 10.6921 19.5985 11.8975 19.5985 13.1028C19.5985 13.6385 19.5985 14.1742 19.7324 14.71C16.853 14.576 14.1744 13.9064 11.6297 12.5671C9.0851 11.2948 7.00921 9.55371 5.26814 7.34388C4.59849 8.48228 4.26367 9.68763 4.26367 10.893C4.26367 12.0983 4.53153 13.2367 5.13421 14.2412C5.66992 15.3126 6.47349 16.1162 7.41099 16.7858C6.2726 16.7858 5.20117 16.451 4.26367 15.8483V15.9823C4.26367 17.6564 4.79939 19.1296 5.87081 20.4019C6.94224 21.7412 8.28153 22.5448 9.88867 22.8796C9.21903 23.0135 8.61635 23.0805 8.01367 23.0805C7.61189 23.0805 7.14314 23.0805 6.74135 23.0135C7.14314 24.4198 7.94671 25.5582 9.15206 26.4957C10.3574 27.4332 11.6967 27.835 13.3038 27.835C10.6922 29.8439 7.74581 30.8483 4.53153 30.8483C3.86189 30.8483 3.32617 30.8483 2.85742 30.7814C6.07171 32.9242 9.68778 33.9287 13.6387 33.9287C17.7235 33.9287 21.3396 32.9242 24.5538 30.7814C27.4333 28.9064 29.7101 26.4287 31.3172 23.2144C32.8574 20.268 33.661 17.1207 33.661 13.9064C33.661 13.5046 33.594 13.2367 33.594 13.0358Z" fill="white"/>
</svg>
