<svg width="35" height="35" viewBox="0 0 35 35" fill="none" xmlns="http://www.w3.org/2000/svg">
<path fill-rule="evenodd" clip-rule="evenodd" d="M3.2 17.5C3.2 25.3977 9.60233 31.8 17.5 31.8C25.3977 31.8 31.8 25.3977 31.8 17.5C31.8 9.60233 25.3977 3.2 17.5 3.2C9.60233 3.2 3.2 9.60233 3.2 17.5ZM17.5 1C8.3873 1 1 8.3873 1 17.5C1 26.6127 8.3873 34 17.5 34C26.6127 34 34 26.6127 34 17.5C34 8.3873 26.6127 1 17.5 1Z" fill="white"/>
<path fill-rule="evenodd" clip-rule="evenodd" d="M17.5 1.5C8.66344 1.5 1.5 8.66344 1.5 17.5C1.5 26.3366 8.66344 33.5 17.5 33.5C26.3366 33.5 33.5 26.3366 33.5 17.5C33.5 8.66344 26.3366 1.5 17.5 1.5ZM0.5 17.5C0.5 8.11116 8.11116 0.5 17.5 0.5C26.8888 0.5 34.5 8.11116 34.5 17.5C34.5 26.8888 26.8888 34.5 17.5 34.5C8.11116 34.5 0.5 26.8888 0.5 17.5ZM17.5 3.7C9.87847 3.7 3.7 9.87847 3.7 17.5C3.7 25.1215 9.87847 31.3 17.5 31.3C25.1215 31.3 31.3 25.1215 31.3 17.5C31.3 9.87847 25.1215 3.7 17.5 3.7ZM2.7 17.5C2.7 9.32619 9.32619 2.7 17.5 2.7C25.6738 2.7 32.3 9.32619 32.3 17.5C32.3 25.6738 25.6738 32.3 17.5 32.3C9.32619 32.3 2.7 25.6738 2.7 17.5Z" fill="white"/>
<path d="M13.6501 11.9557V22.4945C13.6501 23.3223 14.5055 23.8269 15.1648 23.3882L23.0848 18.1188C23.7052 17.706 23.7052 16.7442 23.0848 16.3314L15.1648 11.062C14.5055 10.6233 13.6501 11.1279 13.6501 11.9557Z" fill="white"/>
</svg>
