<svg width="31" height="30" viewBox="0 0 31 30" fill="none" xmlns="http://www.w3.org/2000/svg">
<path opacity="0.4" d="M24.6302 23.7808L26.3288 7.21924H29.3014C30.2396 7.21924 31.0001 7.97974 31.0001 8.91786V28.0274L24.6302 23.7808Z" fill="#EE4853"/>
<path fill-rule="evenodd" clip-rule="evenodd" d="M7.17896 17.4115L19.7259 4.25256C20.679 5.71686 21.2328 7.46494 21.2328 9.34235C21.2328 11.1395 20.7254 12.8181 19.8459 14.2428L18.6515 13.0483L17.6594 14.5193L18.7859 15.6458C17.0777 17.5134 14.6208 18.6848 11.8904 18.6848C10.1721 18.6848 8.56215 18.2209 7.17896 17.4115Z" fill="#3897F0"/>
<path d="M27.2292 8.36039H19.4076C18.7294 3.63985 14.659 0 9.7538 0C4.37556 0 0 4.37551 0 9.75379C0 11.5976 0.511436 13.3759 1.48333 14.9257L0.0540523 18.793C-0.0638061 19.1119 0.0146888 19.4703 0.255108 19.7107C0.421387 19.877 0.644041 19.9658 0.871049 19.9658C0.972302 19.9658 1.07443 19.9481 1.17284 19.9118L5.24743 18.4059C6.63212 19.1277 8.18134 19.5075 9.75385 19.5075C10.0078 19.5075 10.2595 19.4977 10.5086 19.4786V23.978C10.5086 25.3546 11.6286 26.4746 13.0052 26.4746H23.2979L28.4003 29.5978C28.5397 29.6831 28.6972 29.7259 28.855 29.7259C29.0015 29.7259 29.1483 29.6889 29.2807 29.6147C29.5556 29.4607 29.7259 29.1701 29.7259 28.855V10.857C29.7258 9.4804 28.6058 8.36039 27.2292 8.36039ZM5.75364 16.6972C5.61958 16.6198 5.46921 16.5805 5.31802 16.5805C5.21619 16.5805 5.11389 16.5983 5.01612 16.6345L2.34376 17.6221L3.27002 15.1161C3.3686 14.8492 3.33069 14.5511 3.16842 14.3174C2.23513 12.9735 1.74181 11.3954 1.74181 9.75379C1.74181 5.33596 5.33597 1.74175 9.75385 1.74175C14.1717 1.74175 17.7658 5.33591 17.7658 9.75379C17.7658 14.1716 14.1717 17.7658 9.75385 17.7658C8.34704 17.7658 6.9638 17.3962 5.75364 16.6972ZM27.984 27.3008L23.9979 24.8609C23.8611 24.7771 23.7038 24.7327 23.5433 24.7327H13.0052C12.589 24.7327 12.2504 24.3941 12.2504 23.9778V19.1831C14.2692 18.6482 16.033 17.4806 17.3163 15.9062L18.8565 17.4465L16.5984 19.7045C16.2583 20.0446 16.2583 20.596 16.5984 20.9361C16.7685 21.1062 16.9913 21.1912 17.2142 21.1912C17.437 21.1912 17.6599 21.1062 17.8299 20.9361L20.0881 18.6781L22.3462 20.9361C22.5162 21.1062 22.7391 21.1912 22.9619 21.1912C23.1848 21.1912 23.4077 21.1062 23.5777 20.9361C23.9178 20.596 23.9178 20.0446 23.5777 19.7045L21.3197 17.4465L23.5778 15.1885C23.9179 14.8484 23.9179 14.297 23.5778 13.9569C23.2378 13.6168 22.6863 13.6168 22.3462 13.9569L20.0881 16.2149L18.3084 14.4352C19.0198 13.1404 19.4454 11.6676 19.5007 10.1021H27.2292C27.6455 10.1021 27.9841 10.4408 27.9841 10.857V27.3008H27.984Z" fill="#1E1E1E"/>
<path d="M13.0571 6.72886L9.28947 10.4964L7.61193 8.8189C7.27189 8.4788 6.72045 8.4788 6.38034 8.8189C6.04024 9.15901 6.04024 9.71039 6.38034 10.0505L8.67365 12.3438C8.8437 12.5139 9.06658 12.5989 9.28947 12.5989C9.51235 12.5989 9.73524 12.5139 9.90524 12.3438L14.2886 7.9604C14.6287 7.62035 14.6287 7.06891 14.2886 6.72881C13.9486 6.38876 13.3972 6.3887 13.0571 6.72886Z" fill="#1E1E1E"/>
</svg>
