<svg xmlns="http://www.w3.org/2000/svg" width="45.62" height="39.969" viewBox="0 0 45.62 39.969"><path d="M1062 668.266c-.54-3.269-1.04-6.548-1.66-9.8-1.01-5.289-2.19-10.544-3.64-15.73-.51-1.808-1.1-3.594-1.7-5.373a8.253 8.253 0 0 0-5.91-5.422 25.132 25.132 0 0 0-6.69-.908c-2.64-.043-5.28-.05-7.92.041a16.226 16.226 0 0 0-5.42 1.089 8.33 8.33 0 0 0-4.97 4.937 71.059 71.059 0 0 0-2.48 8.188c-1.56 6.111-2.89 12.274-3.92 18.5-.36 2.136-.64 4.283-.96 6.426-.03.213-.03.429-.05.658.22.048.41.091.6.134h1.22a2.218 2.218 0 0 1 .01-.365q.75-4.8 1.49-9.59a.462.462 0 0 1 .56-.474q7.7.021 15.37.009h.49v-3.388h-15.63a.571.571 0 0 1 .01-.2c.68-3.063 1.37-6.125 2.04-9.191a.4.4 0 0 1 .48-.349q16.17.009 32.35 0a.415.415 0 0 1 .49.392c.52 2.337 1.06 4.668 1.59 7 .17.76.31 1.528.48 2.359h-15.47v3.374h16.11c.04.125.07.213.09.305.25 1.44.53 2.876.75 4.32.29 1.927.55 3.861.82 5.792h1.79v-.57c-.11-.721-.2-1.445-.32-2.164Zm-28.38-24.181c-1.05.006-2.09.006-3.13 0a.62.62 0 0 1-.71-.729V637.7a.621.621 0 0 1 .71-.729c1.04-.007 2.08-.007 3.13 0a.638.638 0 0 1 .72.726.628.628 0 0 1-.75.689h-2.04v1.339h1.83c.55 0 .76.191.75.668a.615.615 0 0 1-.76.668h-1.82v1.568c.12.008.25.022.38.023h1.67a.713.713 0 1 1 .02 1.433Zm7.68-5.65a7.3 7.3 0 0 1-.85 0 .339.339 0 0 0-.42.423q.015 2.173 0 4.35a1.426 1.426 0 0 1-.11.584 1.083 1.083 0 0 1-1.19.27.667.667 0 0 1-.49-.713v-2.277c0-.759-.01-1.518 0-2.276a.284.284 0 0 0-.34-.359c-.32.012-.63.013-.94 0a.627.627 0 0 1-.64-.759.621.621 0 0 1 .67-.7c1.43-.009 2.87-.009 4.3 0a.73.73 0 0 1 .01 1.457Zm4.18 2.807a2.1 2.1 0 0 0 2.88 1.377c.07-.026.15-.061.22-.09a.549.549 0 0 1 .83.294.649.649 0 0 1-.31.984c-.57.194-1.17.308-1.75.457a3.53 3.53 0 0 1-3.62-2.739 3.741 3.741 0 0 1 .89-3.661 3.782 3.782 0 0 1 3.27-.943 4.73 4.73 0 0 1 1.17.311.666.666 0 0 1 .35 1c-.16.379-.39.413-.87.292a4.31 4.31 0 0 0-1.46-.183 1.814 1.814 0 0 0-1.65 1.812 3.593 3.593 0 0 0 .05 1.089Z" transform="translate(-1016.69 -631.031)" fill="currentColor" fill-rule="evenodd"/></svg>