<svg xmlns="http://www.w3.org/2000/svg" viewBox="0 0 27.94 24"><path d="M1087.51 1284.7a.749.749 0 0 1 .62-.52 14.63 14.63 0 0 1 3.74 0 .749.749 0 0 1 .62.52v1.14h1.84v-1.42c0-1.21-.21-2.42-4.33-2.42s-4.33 1.21-4.33 2.42v1.42h1.84v-1.14Zm-11.47 2.96h4.58V1306h-4.58v-18.34Zm23.34 0h4.58V1306h-4.58v-18.34Zm-12.06 3.82a.435.435 0 0 0 0-.63.441.441 0 0 0-.62 0 .453.453 0 0 0 0 .63.441.441 0 0 0 .62 0Zm-3.65 14.52h12.66v-18.34h-12.66V1306Zm1.82-15.77a.591.591 0 0 1 .59-.59h2.17a.6.6 0 0 1 .42.18l3.37 3.37a.585.585 0 0 1 0 .83l-2.17 2.18a.6.6 0 0 1-.84 0l-3.37-3.37a.625.625 0 0 1-.17-.42v-2.18Z" transform="translate(-1076.03 -1282)" fill="currentColor" fill-rule="evenodd"/></svg>