<svg xmlns="http://www.w3.org/2000/svg" width="61.68" height="53"><path data-name="シェイプ 523" d="M1586.51 1016.97a1.659 1.659 0 0 1 1.36-1.16 32.932 32.932 0 0 1 8.26 0 1.659 1.659 0 0 1 1.36 1.16v2.51h4.08v-3.14c0-2.67-.47-5.34-9.57-5.34s-9.57 2.67-9.57 5.34v3.14h4.08v-2.51Zm-25.35 6.53h10.12v40.5h-10.12v-40.5Zm51.56 0h10.12v40.5h-10.12v-40.5Zm-26.63 8.43a.978.978 0 0 0 0-1.38.966.966 0 0 0-1.37 0 .978.978 0 0 0 0 1.38.966.966 0 0 0 1.37 0Zm-8.06 32.07h27.94v-40.5h-27.94v40.5Zm4.01-34.82a1.3 1.3 0 0 1 1.3-1.3h4.81a1.3 1.3 0 0 1 .91.38l7.45 7.45a1.3 1.3 0 0 1 0 1.84l-4.81 4.81a1.3 1.3 0 0 1-1.83 0l-7.45-7.45a1.337 1.337 0 0 1-.38-.92v-4.81Z" transform="translate(-1561.16 -1011)" style="fill:#7f9fcb;fill-rule:evenodd"/></svg>