<svg xmlns="http://www.w3.org/2000/svg" viewBox="0 0 42 42"><circle cx="21" cy="21" r="21" fill="#fd0017"/><path d="M33.413 15.02a3.228 3.228 0 0 0-2.274-2.282c-2.007-.538-10.051-.538-10.051-.538s-8.045 0-10.051.539a3.228 3.228 0 0 0-2.275 2.281 33.71 33.71 0 0 0-.538 6.214 33.711 33.711 0 0 0 .538 6.214 3.228 3.228 0 0 0 2.274 2.282c2.006.539 10.051.539 10.051.539s8.045 0 10.051-.539a3.228 3.228 0 0 0 2.274-2.282 33.709 33.709 0 0 0 .538-6.214 33.709 33.709 0 0 0-.537-6.214Zm-14.9 10.086 6.687-3.872-6.683-3.872v7.745Z" fill="#fff" fill-rule="evenodd"/><path d="m18.515 25.106 6.685-3.872-6.683-3.872v7.745Z" fill="#fd0017" fill-rule="evenodd"/></svg>