<svg xmlns="http://www.w3.org/2000/svg" viewBox="0 0 32.406 27"><path d="M989.546 1298.26c-3.148-5.76-7.013-8.7-8.63-6.56a1.2 1.2 0 0 1 .147-.18q-7.551 7.95-15.107 15.89l-2.031-.06c-.759-.02-1.515-.05-2.273-.07a.788.788 0 0 0-.69.34 1.216 1.216 0 0 0-.142.24c-.013.03-.024.07-.036.1a1.673 1.673 0 0 0-.067.2c-.011.04-.02.09-.029.13-.015.07-.026.15-.036.22-.006.05-.013.1-.017.16-.007.08-.01.17-.012.25v.27c0 .09.007.18.015.28 0 .04.008.08.012.12.008.1.02.19.031.29l.018.13c.016.11.035.21.056.32 0 .04.013.08.019.11.026.13.055.27.085.4.006.02.01.04.014.05a12.905 12.905 0 0 0 .414 1.38c.006.02.015.04.023.06.121.33.255.66.406 1 .012.03.022.05.035.08.165.37.346.73.542 1.09 1.516 2.78 3.378 4.19 4.158 3.16l2.685-3.32q10.948-.555 21.9-1.1h-.028a1.658 1.658 0 0 0 1.3-.69c1.621-2.14.383-8.54-2.762-14.29Zm-22.587 11.78s-4.407 1.43-4.511 1.2c-.766-1.9-.483-2.31-.483-2.31l4.319-.17 12.632-11.61.811 3.66Zm23.745.5a1 1 0 0 1-.374.32c-1.091.49-3.58-1.52-5.858-5.73-2.7-4.98-3.428-9.82-2.417-11.22a.952.952 0 0 1 .374-.31c1.089-.5 3.579 1.51 5.858 5.72 2.695 4.98 3.425 9.82 2.413 11.22Z" transform="translate(-960.625 -1291)" fill="currentColor" fill-rule="evenodd"/></svg>