<svg xmlns="http://www.w3.org/2000/svg" width="49.184" height="39" viewBox="0 0 49.184 39"><path d="M960.958 782.881a9.56 9.56 0 1 0 9.549 9.56 9.565 9.565 0 0 0-9.549-9.56Zm0 16.5a6.941 6.941 0 1 1 6.933-6.94 6.943 6.943 0 0 1-6.933 6.94Zm30.085-16.5a9.56 9.56 0 1 0 9.547 9.56 9.565 9.565 0 0 0-9.547-9.56Zm0 16.5a6.941 6.941 0 1 1 6.932-6.94 6.944 6.944 0 0 1-6.932 6.94Zm-13.959-35.37-13.707 2.356a1.95 1.95 0 0 0-1.879 1.88l.229 5.206.305 6.941a1.345 1.345 0 1 0 2.69 0l.317-7.413 6.59-1.782s-2.429 2.881-2.629 3.132c-1 1.257-1.368 3.562.251 4.778l7.013 5.1.4 6.109a1.829 1.829 0 1 0 3.658 0c0-.04 1.611-19.577 1.611-19.577.467-4.074-1.874-7.199-4.849-6.73Zm-3.694 13.561a.613.613 0 0 1 0-.959c.261-.351 2.354-2.1 2.354-2.1l.436 5.5Zm-16.79-7.781a3.4 3.4 0 1 0-3.4-3.391 3.393 3.393 0 0 0 3.4 3.391Z" transform="translate(-951.406 -763)" fill="currentColor" fill-rule="evenodd"/></svg>