<svg xmlns="http://www.w3.org/2000/svg" viewBox="0 0 42 42"><path d="M1192 1178a21 21 0 1 1-21-21 21 21 0 0 1 21 21Z" transform="translate(-1150 -1157)" fill="#1d9bf0" fill-rule="evenodd"/><path d="M1167.16 1189.08a14.308 14.308 0 0 0 14.4-14.41c0-.22 0-.43-.01-.65a10.457 10.457 0 0 0 2.52-2.62 10.037 10.037 0 0 1-2.9.79 5.048 5.048 0 0 0 2.22-2.8 10 10 0 0 1-3.21 1.23 5.065 5.065 0 0 0-8.76 3.47 4.887 4.887 0 0 0 .13 1.15 14.392 14.392 0 0 1-10.44-5.29 5.083 5.083 0 0 0 1.57 6.76 5.182 5.182 0 0 1-2.29-.63v.06a5.054 5.054 0 0 0 4.06 4.96 4.907 4.907 0 0 1-1.33.18 5.041 5.041 0 0 1-.96-.09 5.1 5.1 0 0 0 4.73 3.52 10.177 10.177 0 0 1-6.28 2.16 9.6 9.6 0 0 1-1.21-.07 14.3 14.3 0 0 0 7.76 2.28" transform="translate(-1150 -1157)" fill="#fff" fill-rule="evenodd"/></svg>