<svg xmlns="http://www.w3.org/2000/svg" width="72" height="60"><path data-name="シェイプ 522" d="M1483.11 1093.13c-7-12.8-15.58-19.33-19.18-14.58q.165-.21.33-.39l-33.57 35.31c-1.51-.04-3.01-.09-4.52-.13-1.68-.05-3.36-.11-5.05-.16a1.76 1.76 0 0 0-1.53.75 3.5 3.5 0 0 0-.32.54c-.03.07-.05.14-.08.22q-.075.21-.15.45c-.02.09-.04.19-.06.29-.03.16-.06.32-.08.49-.01.11-.03.22-.04.34-.01.18-.02.37-.02.57a1.948 1.948 0 0 0-.02.25c0 .04.01.07.01.11a1.848 1.848 0 0 0 .01.23c0 .2.01.41.03.62l.03.28c.01.21.04.42.07.65a2.512 2.512 0 0 0 .04.27q.045.36.12.72c.01.08.03.17.04.25.06.29.12.58.19.88l.03.12c.24.98.55 2.01.92 3.06a.612.612 0 0 1 .05.12c.27.74.57 1.48.9 2.23.03.06.05.12.08.18.37.81.77 1.63 1.21 2.43 3.37 6.16 7.5 9.31 9.24 7.02l5.96-7.38q24.33-1.23 48.67-2.44c-.02 0-.05-.01-.07-.01a3.65 3.65 0 0 0 2.9-1.54c3.6-4.74.85-18.96-6.14-31.75Zm-50.19 26.18s-9.8 3.18-10.03 2.66c-1.7-4.22-1.07-5.13-1.07-5.13l9.6-.38 28.07-25.78 1.8 8.12Zm52.76 1.11a2.212 2.212 0 0 1-.83.71c-2.42 1.09-7.95-3.37-13.02-12.72-5.99-11.07-7.61-21.83-5.37-24.93a2.125 2.125 0 0 1 .83-.71c2.42-1.1 7.96 3.36 13.02 12.71 5.99 11.07 7.61 21.83 5.37 24.94Z" transform="translate(-1418.81 -1077)" style="fill:#004097;fill-rule:evenodd"/></svg>