<svg xmlns="http://www.w3.org/2000/svg" width="21.44" height="16"><path data-name="シェイプ 530" d="M1746.22 1549.6a1.091 1.091 0 0 0-1.06-.83h-1.46a1.105 1.105 0 0 0-1.04.76l-1.89 5.78.89 3.49.81-2.48h3.05l.79 3.11h2.41Zm-3.3 5.35 1.13-3.47h.24l.88 3.47h-2.25Zm-7.02-9.95h-2.2a1.642 1.642 0 0 0-1.56 1.14l-4.86 14.86h3.04l1.53-4.67h4.58l1.19 4.67h3.63l-3.76-14.76a1.637 1.637 0 0 0-1.59-1.24Zm-3.38 9.27 1.7-5.2h.37l1.32 5.2h-3.39Z" transform="translate(-1727.28 -1545)" style="fill:#4b4b4b;fill-rule:evenodd"/></svg>