<svg xmlns="http://www.w3.org/2000/svg" viewBox="0 0 42 42"><defs><linearGradient id="icn_instagram" y1="42" x2="42" gradientUnits="userSpaceOnUse"><stop offset="0" stop-color="#fec61e"/><stop offset=".56" stop-color="#ef0011"/><stop offset=".888" stop-color="#c30097"/><stop offset="1" stop-color="#c30097"/></linearGradient></defs><circle cx="21" cy="21" r="21" fill="url(#icn_instagram)"/><path d="M499.146 58.859c3.187 0 3.565.012 4.824.07a6.607 6.607 0 0 1 2.216.411 3.952 3.952 0 0 1 2.266 2.266 6.616 6.616 0 0 1 .411 2.217c.057 1.259.069 1.636.069 4.824s-.012 3.565-.069 4.824a6.615 6.615 0 0 1-.411 2.217 3.953 3.953 0 0 1-2.266 2.266 6.607 6.607 0 0 1-2.216.411c-1.259.057-1.637.07-4.824.07s-3.565-.012-4.824-.07a6.609 6.609 0 0 1-2.217-.411 3.955 3.955 0 0 1-2.265-2.266 6.589 6.589 0 0 1-.411-2.217c-.058-1.259-.07-1.636-.07-4.824s.012-3.565.07-4.824a6.59 6.59 0 0 1 .411-2.217 3.954 3.954 0 0 1 2.265-2.266 6.608 6.608 0 0 1 2.217-.411c1.259-.057 1.636-.07 4.824-.07m0-2.151c-3.242 0-3.649.014-4.922.072a8.766 8.766 0 0 0-2.9.555 6.105 6.105 0 0 0-3.491 3.491 8.765 8.765 0 0 0-.555 2.9c-.058 1.273-.072 1.68-.072 4.922s.014 3.649.072 4.922a8.765 8.765 0 0 0 .555 2.9 6.106 6.106 0 0 0 3.491 3.491 8.766 8.766 0 0 0 2.9.555c1.273.058 1.68.072 4.922.072s3.648-.014 4.922-.072a8.759 8.759 0 0 0 2.9-.555 6.1 6.1 0 0 0 3.491-3.491 8.74 8.74 0 0 0 .555-2.9c.058-1.273.072-1.68.072-4.922s-.014-3.649-.072-4.922a8.739 8.739 0 0 0-.555-2.9 6.1 6.1 0 0 0-3.491-3.491 8.759 8.759 0 0 0-2.9-.555c-1.274-.058-1.68-.072-4.922-.072Zm0 5.807a6.13 6.13 0 1 0 6.13 6.13 6.13 6.13 0 0 0-6.13-6.129Zm0 10.109a3.979 3.979 0 1 1 3.979-3.979 3.979 3.979 0 0 1-3.979 3.98Zm7.8-10.351a1.432 1.432 0 1 1-1.432-1.433 1.432 1.432 0 0 1 1.436 1.434Z" transform="translate(-478 -48)" fill="#fff" fill-rule="evenodd"/></svg>