<svg xmlns="http://www.w3.org/2000/svg" width="52" height="43" viewBox="0 0 52 43"><path d="m532.774 786.764 10.937-4.684a.366.366 0 0 1 .18.007l-1.992 1.45-8.644 3.7 4.428 8.453.29 1.854-.044-.065-5.16-9.843v35.359h-2.781v-36.377h2.786Zm8.636 11.824a8.308 8.308 0 0 1-2.123-.515 1.2 1.2 0 0 1-.728-.682c-.854-1.986.531-6.244 1.053-7.7 1.763-4.919 3.067-6.57 4.378-6.961a2.266 2.266 0 0 1 1.174-.006 9.352 9.352 0 0 1 3.493 2.074l.721-.2s-3.349-3.169-5.5-2.5c-1.212.375-2.564 1.3-4.836 7.285-.55 1.448-2.1 6.015-.945 8.438.486 1.02 2.447 1.455 5.533 1.619l.246-.636a24.35 24.35 0 0 1-2.466-.216Zm13.376-11.454s-3.33-3.2-5.709-2.5c-1.161.345-2.469 1.2-4.737 6.875-.548 1.374-1.97 6.087-.642 8.076a1.962 1.962 0 0 0 .508.612c.791.543 2.412.895 5.172 1.112 0 0-1.641-2.377.964-8.388 2.293-5.289 4.444-5.787 4.444-5.787Zm-1.931 14.974a13.946 13.946 0 0 1-2.183-.473 2.022 2.022 0 0 1-1.1-.822c-.81-1.946.063-4.922.488-6.209 1.45-4.4 2.78-6.27 4.049-6.744a2.339 2.339 0 0 1 1.133-.1c1.642.159 4.01 2.134 4.01 2.134l.8-.123s-4.445-3.883-6.262-2.319c-.961.827-2.437 1.381-4.179 6.716-.422 1.291-1.271 4.89-.464 7.13.313.87 2.892 1.519 5.638 1.666l.417-.587a16.528 16.528 0 0 1-2.347-.269Zm12.468-9.966s-3.128-2.663-5.3-2.438a2.646 2.646 0 0 0-.681-.008c-1.093.422-2.745 1.975-4.324 6.452-.439 1.247-1.519 5.165-.236 6.834a1.634 1.634 0 0 0 .8.85 16.248 16.248 0 0 0 4.72 1.06 12.725 12.725 0 0 1 .876-7.269c2.149-5.48 4.145-5.481 4.145-5.481Zm-1.085 13.752a16.4 16.4 0 0 1-1.94-.445 2.226 2.226 0 0 1-1.348-.741c-1.031-1.336-.4-4.2-.027-5.373 1.194-3.8 2.536-5.983 3.682-6.381a2.787 2.787 0 0 1 1.165-.181c1.705.1 4.279 2.094 4.279 2.094l.993-.048s-4.789-3.855-6.54-2.338c-1.082.937-2.652 1.75-3.974 6.619-.324 1.191-1.2 3.9-.225 5.792.656 1.273 4.133 1.744 5.9 1.922l.242-.6a23.17 23.17 0 0 1-2.207-.32Zm12.336-8.486s-3.485-2.832-5.532-2.589a5.533 5.533 0 0 0-.871-.108c-1.026.395-2.557 1.734-3.992 5.723-.4 1.111-1.4 4.686.006 6.4a1.622 1.622 0 0 0 .59.641c.719.557 3.52 1.132 5.3 1.331a11.148 11.148 0 0 1 .8-6.5c1.958-4.894 3.699-4.898 3.699-4.898Zm-1.1 12.136a14.094 14.094 0 0 1-1.71-.416 1.991 1.991 0 0 1-1.208-.678c-.851-1.133-.33-3.715.008-4.753 1.328-4.091 2.22-5.057 3.195-5.512a2.053 2.053 0 0 1 1.05-.18c1.508.091 3.765 1.767 3.765 1.767l.878-.042s-4.238-3.426-5.787-2.08c-.957.831-2.345 1.552-3.511 5.873-.286 1.057-1.058 3.463-.2 5.14.581 1.131 3.379 1.543 5.248 1.786l.188-.61c-.49-.039-1.11-.139-1.914-.295Zm5.9-9.953c-.926-.367-2.585 1.776-3.7 4.787s-1.275 5.749-.349 6.116 2.585-1.776 3.7-4.786 1.275-5.75.351-6.117Zm-.9 5.857c-.99 2.664-2.415 4.578-2.912 4.38-.477-.189-.316-2.6.675-5.267s2.423-4.582 2.912-4.38.321 2.603-.669 5.267ZM548.2 822.433c-.568 1.233-1.046 1-1.249.907a.667.667 0 0 1-.356-.386 1.064 1.064 0 0 1 .315-.787.8.8 0 0 0-.124-1.112.767.767 0 0 0-1.091.127 2.5 2.5 0 0 0-.612 2.132 2.234 2.234 0 0 0 1.208 1.458c.49.235 2.175.8 3.314-1.666l.5-1.078-1.405-.672Zm7.781-13.795.43-.933a.5.5 0 0 0-.233-.658.483.483 0 0 0-.645.237l-.425.922a9.628 9.628 0 0 0-12.59 4.887 10.165 10.165 0 0 0-.515 1.374 3.148 3.148 0 0 1 3.691-.51 3.086 3.086 0 0 1 1.771 3.906 2.918 2.918 0 0 1 3.763-1.239l-1.986 4.31.878.42 1.971-4.277a2.937 2.937 0 0 0 5.31 2.483 3.259 3.259 0 0 1 1.972 3.22 10 10 0 0 0-3.395-14.142Z" transform="translate(-530 -782)" fill="currentColor" fill-rule="evenodd"/></svg>