<svg xmlns="http://www.w3.org/2000/svg" width="63.18" height="39" viewBox="0 0 63.18 39"><path d="M1070.11 790.426a2.847 2.847 0 0 1-.04-.288v-.838a3.591 3.591 0 0 1 .2-1.173 22.41 22.41 0 0 0 3.09-6.118 19.28 19.28 0 0 1-2.07-7.985 17.252 17.252 0 0 1 .11-1.922 7.439 7.439 0 0 0-5.45-2.327c-4.37 0-7.92 3.566-7.92 9.107 0 4.433 3.61 9.245 3.61 9.245a3.582 3.582 0 0 1 .19 1.173v.843a2.686 2.686 0 0 1-1.57 2.447l-5.72 2.34a4.505 4.505 0 0 0-2.55 3.276l-.1 1.26a2.357 2.357 0 0 0 2.36 2.539h9.36l.38-4.933.03-.133a8.077 8.077 0 0 1 4.57-5.887Zm44.9 7.775a4.491 4.491 0 0 0-2.54-3.276l-5.74-2.34a2.694 2.694 0 0 1-1.56-2.447v-.838a3.582 3.582 0 0 1 .19-1.173s3.61-4.812 3.61-9.245c0-5.541-3.55-9.107-7.92-9.107a7.466 7.466 0 0 0-5.46 2.331 17.127 17.127 0 0 1 .12 1.918 19.279 19.279 0 0 1-2.07 7.983 22.315 22.315 0 0 0 3.1 6.12 3.867 3.867 0 0 1 .19 1.173v.843a2.847 2.847 0 0 1-.04.288l1.42.579a8.1 8.1 0 0 1 4.67 5.925l.03.135.38 4.935h9.37a2.372 2.372 0 0 0 2.35-2.539Zm-17.7-4.76-6.93-2.834a3.257 3.257 0 0 1-1.9-2.96v-1.022a4.3 4.3 0 0 1 .24-1.42s4.36-5.819 4.36-11.186c0-6.707-4.29-11.019-9.58-11.019s-9.58 4.312-9.58 11.019c0 5.367 4.36 11.186 4.36 11.186a4.3 4.3 0 0 1 .24 1.42v1.022a3.274 3.274 0 0 1-1.9 2.96l-6.94 2.834a5.409 5.409 0 0 0-3.07 3.965l-.36 4.594h34.5l-.36-4.594a5.422 5.422 0 0 0-3.08-3.965Z" transform="translate(-1051.91 -763)" fill="currentColor" fill-rule="evenodd"/></svg>