<svg xmlns="http://www.w3.org/2000/svg" width="64.344" height="42.282" viewBox="0 0 64.344 42.282"><path d="M818.333 633.362a3.6 3.6 0 0 1-3.61 3.585h-54.116a3.6 3.6 0 0 1-3.607-3.585v-32.121a3.6 3.6 0 0 1 3.609-3.584h54.116a3.6 3.6 0 0 1 3.61 3.584v32.121Z" transform="translate(-755.5 -596.156)" fill="#ffffff" fill-rule="evenodd" stroke="currentColor" stroke-width="3px"/><path d="M757 609.638h61.334v15.328H757v-15.328Zm5.644-7.135 7.55 2v-4Z" transform="translate(-755.5 -596.156)" fill="currentColor" fill-rule="evenodd"/><path d="M783.069 621.244a12.292 12.292 0 0 0-1.565-.066h-2.989c-.722 0-.987.01-1.395.028a8.757 8.757 0 0 0 .075-1.376v-5.145a10.079 10.079 0 0 0-.075-1.376c.388.019.654.028 1.395.028h3.026a11.75 11.75 0 0 0 1.414-.066v1.762a11.778 11.778 0 0 0-1.414-.065h-2.467v1.385h2.05a11.575 11.575 0 0 0 1.424-.066v1.743a11.832 11.832 0 0 0-1.424-.066h-2.05v1.584h2.449a12.947 12.947 0 0 0 1.546-.066v1.762Zm5.02-1.489a10.826 10.826 0 0 0 .075 1.423h-2.1a10.368 10.368 0 0 0 .076-1.423v-4.75h-1.12a12.8 12.8 0 0 0-1.432.066v-1.8a12.992 12.992 0 0 0 1.413.066h4.157a12.654 12.654 0 0 0 1.48-.066v1.8a12.341 12.341 0 0 0-1.48-.066h-1.072v4.75Zm8.349-3.685a1.417 1.417 0 0 0-1.5-1.282c-1.157 0-1.831.9-1.831 2.46 0 1.536.7 2.469 1.879 2.469a1.5 1.5 0 0 0 1.243-.593 1.614 1.614 0 0 0 .285-.811l1.973.292a3.573 3.573 0 0 1-.787 1.725 3.416 3.416 0 0 1-2.658 1.027 3.854 3.854 0 0 1-2.808-1.037 4.325 4.325 0 0 1-1.1-3.072 4.235 4.235 0 0 1 1.148-3.1 3.861 3.861 0 0 1 2.724-.981 3.313 3.313 0 0 1 2.8 1.235 2.9 2.9 0 0 1 .588 1.291Z" transform="translate(-755.5 -596.156)" fill="#fff" fill-rule="evenodd"/><path d="M773.137 621.162a2.059 2.059 0 0 1-2.066 2.052h-9.305a2.06 2.06 0 0 1-2.067-2.052v-7.72a2.059 2.059 0 0 1 2.067-2.051h9.305a2.058 2.058 0 0 1 2.066 2.051v7.72Z" transform="translate(-755.5 -596.156)" fill="#cacaca" fill-rule="evenodd"/></svg>