<svg xmlns="http://www.w3.org/2000/svg" width="32.032" height="39.781" viewBox="0 0 32.032 39.781"><path d="M796.066 773.729c-1.292-4.062-4.033-7.3-6.806-10.448a.964.964 0 0 0-1.34 0 30.537 30.537 0 0 0-7.474 10.138 1.139 1.139 0 0 0-.027.913.842.842 0 0 0 .912.912c1.4-.072 2.8-.127 4.2-.175q.11 8.01.238 16.021a14.689 14.689 0 0 0-6.089-3.861 11.758 11.758 0 0 0-4.223-.71c.03-1.293.067-2.592.032-3.882-.025-.935-.289-1.889-1.4-1.917-1.012-.025-2.109.812-2.936 1.325a23.333 23.333 0 0 0-3.054 2.264 22.076 22.076 0 0 0-1.978 1.963c-1.362.956-2.807 2.04-1.651 3.8a20.981 20.981 0 0 0 4.451 4.649c1.483 1.185 3.295 2.727 5.266 2.79a.964.964 0 0 0 .948-.947q.129-2.733.21-5.469a25.885 25.885 0 0 1 4.8 1 23.724 23.724 0 0 1 5.721 4.679l.055 3.177c.015.857-.057 1.791.749 2.315a6.417 6.417 0 0 0 3.387.508.962.962 0 0 0 .948-.946q-.015-13.446.42-26.885 1.861-.018 3.723-.009a.955.955 0 0 0 .918-1.205Z" transform="translate(-764.062 -763)" fill="currentColor" fill-rule="evenodd"/></svg>