<svg xmlns="http://www.w3.org/2000/svg" width="108.94" height="32" viewBox="0 0 108.94 32"><path d="M1468.94 782.973c-1.39 0-5.55-.09-11.55-.126-3.66-2.136-15.4-11.147-19.24-14.369v-.453l-6.17-1.025-1.01.308v.968c-15.24 10.622-26 15.98-35.41 16.594-7.13-.468-12.49-3.339-17.02-6.74a.531.531 0 0 0-.38-.1.646.646 0 0 0-.13.079l-4.51-.455-.47.061v1.17c-.51.778-1.21 1.884-2 3.135-1.79 2.837-4.44 7.019-5.13 7.8l-.92.18-5 1 .17 7.9h10.65l-1-6.586c1.06-.228 2.14-.428 3.22-.64l-.01 7.226h1.14v-7.451q1.65-.317 3.33-.606c-.01 4.191-.01 8.057-.01 8.057h.33a.1.1 0 0 0 .1.1h.61a.1.1 0 1 0 0-.2v-8.131c15.82-2.66 33.18-3.759 50.06-4.2v.345l.54.715h1.84V798.9h1.9s-.02-5.349-.03-11.368h3.75V798.9h1.56v-11.369h2.71l.4-.715v-.571c2.82-.029 5.61-.047 8.35-.057L1445 799l23.94-.1v-15.927Zm-101.02 6.853h-.73c.21-.288.46-.657.73-1.064v1.064Zm1.29-.1c-.13.031-.25.064-.38.1h-.41V788c.24-.372.51-.778.79-1.212v2.939Zm1.29-.546c-.09.113-.17.214-.25.309-.18.041-.36.079-.54.121v-3.608c.25-.39.51-.8.79-1.23v4.408Zm1.28-.034-.02.006a.065.065 0 0 0 .02-.034v.028Zm0-1.76c-.28.4-.54.778-.78 1.114v-4.52q.375-.6.78-1.239v4.645Zm1.26 1.484c-.25.053-.5.109-.75.163v-.613c.23-.328.48-.7.75-1.093v1.543Zm0-3.342c-.25.382-.51.758-.75 1.123v-4.701c.26-.423.52-.824.75-1.2v4.78Zm3.11-5.28c.08.05.16.1.24.154-.08.119-.16.244-.24.37v-.524Zm-1.79 8.358-.19.039v-3c.06-.094.13-.193.19-.29v3.25Zm0-5.077c-.06.1-.13.2-.19.293v-3.534a.9.9 0 0 1 .19-.557v3.8Zm1.29 4.821c-.27.051-.52.1-.79.156V784.6c.26-.386.51-.775.79-1.2v4.957Zm0-6.8c-.24.37-.51.777-.79 1.208v-3.333c.27.175.53.334.79.5v1.623Zm1.29 6.554c-.27.048-.53.1-.79.146v-5.631c.21-.32.4-.616.62-.955.06-.089.11-.169.17-.255v6.695Zm.56-.1-.06.011v-6.951a.526.526 0 0 1 .07.04c0 1.205-.01 3.921-.01 6.903Zm8.96-4.145c.16.065.33.124.49.187-.16-.043-.33-.07-.49-.116v-.071Zm-6.95 3.787c-.33.057-.65.117-.98.175v-6.163c.33.182.66.364.98.535v5.453Zm0-6.6a74.48 74.48 0 0 1-.98-.545v-1.133c.32.236.65.47.98.7v.979Zm1.29 6.382c-.26.043-.52.084-.78.128v-5.09c.26.133.52.261.78.386v4.576Zm0-5.7c-.26-.128-.52-.267-.78-.4v-.918q.39.26.78.514v.807Zm1.29 5.5c-.26.042-.52.082-.78.125v-4.275c.26.121.52.232.78.345v3.8Zm0-4.918c-.26-.117-.52-.228-.78-.352v-.716c.25.16.52.316.78.47v.6Zm1.29 4.713c-.26.041-.52.084-.79.125v-3.5c.27.109.53.245.79.346v3.033Zm0-4.135c-.26-.1-.52-.241-.79-.353V782c.26.145.53.285.79.425v.458Zm1.29 3.942c-.26.038-.53.074-.79.114v-2.78c.26.1.53.168.79.257v2.409Zm0-3.5c-.26-.091-.53-.164-.79-.263v-.367c.26.13.52.253.79.378v.259Zm1.28 3.312-.78.111v-2.172c.26.084.52.181.78.257v1.8Zm0-2.881c-.26-.079-.52-.177-.78-.263v-.188c.26.117.52.227.78.337v.114Zm1.29 2.7c-.26.036-.52.075-.78.112v-1.568c.26.071.52.108.78.172v1.284Zm1.29-.174-.78.1v-1.107c.26.059.52.116.78.167v.837Zm1.29-.163-.78.1v-.667c.26.046.52.1.78.137v.431Zm1.29-.163c-.26.032-.52.067-.79.1v-.319c.26.033.53.05.79.076v.144Zm.5-.064v-.032c.05 0 .1.01.15.014Zm12.38-1.551c-.25.044-.5.1-.75.135.25-.073.5-.166.75-.245v.11Zm1.93-.388c-.48.108-.95.206-1.42.295v-.18c.47-.157.94-.288 1.42-.465v.35Zm1.94-.475c-.49.129-.96.248-1.43.359v-.42c.46-.174.95-.392 1.43-.584v.645Zm1.93.714-.96.066c.32-.09.64-.178.96-.276v.21Zm0-1.27c-.48.149-.96.286-1.43.417v-.712c.48-.2.94-.367 1.43-.585v.88Zm1.93 1.136c-.47.031-.95.066-1.43.1v-.336c.48-.149.95-.294 1.43-.46v.7Zm0-1.768c-.48.168-.95.32-1.43.471v-.952c.47-.212.96-.463 1.43-.691v1.177Zm1.94 1.645c-.48.03-.95.057-1.43.088v-.844c.47-.166.94-.333 1.43-.516v1.272Zm0-2.347c-.49.186-.96.351-1.43.52v-1.234c.48-.234.94-.44 1.43-.69v1.4Zm1.93 2.23c-.48.028-.95.058-1.43.087v-1.436c.47-.182.95-.376 1.43-.574v1.923Zm0-3.009c-.48.2-.96.391-1.43.576v-1.46c.46-.241.96-.526 1.43-.782v1.668Zm1.93 2.9-1.43.078V781.7c.47-.2.95-.416 1.43-.628v2.645Zm0-3.745c-.48.216-.96.433-1.43.633v-1.733c.48-.262.94-.506 1.43-.782v1.882Zm1.93 3.644-1.43.075v-2.842c.48-.212.95-.437 1.43-.665v3.432Zm0-4.547c-.48.231-.96.465-1.43.68v-1.935c.47-.266.96-.577 1.43-.856v2.111Zm1.94 4.453-1.43.067v-3.647c.47-.228.94-.456 1.43-.7v4.279Zm0-5.408c-.49.245-.96.482-1.43.713v-2.173c.47-.283.94-.564 1.43-.861v2.321Zm1.93 5.32-1.43.065v-4.516c.47-.243.95-.482 1.43-.739v5.19Zm0-6.326c-.49.261-.96.5-1.43.744v-2.359c.47-.292.95-.59 1.43-.895v2.513Zm1.93 6.245c-.47.019-.95.038-1.43.059v-5.438c.47-.253.95-.522 1.43-.789v6.168Zm0-7.318c-.48.272-.96.537-1.43.794v-2.56c.47-.3.95-.616 1.43-.927v2.693Zm1.93 7.244-1.43.055v-6.427c.48-.266.95-.546 1.43-.825v7.2Zm0-8.362c-.47.282-.96.571-1.43.839v-2.741c.49-.315.94-.6 1.43-.926v2.828Zm1.94 8.294-1.43.049v-7.473c.47-.28.94-.554 1.43-.847v8.271Zm0-9.451-1.43.861v-2.868c.46-.311.95-.66 1.43-.981v2.991Zm1.85 9.392q-.675.019-1.35.043v-8.568l1.35-.836v9.361Zm0-10.546c-.46.288-.9.564-1.35.84v-3.023c.45-.306.89-.609 1.35-.925v3.108Zm2.51-2.7a1.157 1.157 0 0 1 .18-.061c.19.2.4.4.61.61-.26.179-.52.342-.79.517V769.9Zm-.5 13.191h-.16c-.01-4.264-.02-8.291-.03-10.475.07-.041.13-.082.19-.123v10.594Zm0-11.794c-.06.041-.13.083-.19.125v-.463a1.159 1.159 0 0 1 .19-.621v.959Zm1.93 11.744c-.47.011-.95.024-1.43.037v-10.91c.48-.312.95-.619 1.43-.943v11.815Zm1.68-.039c-.39.008-.78.016-1.17.026v-11.509q.555.508 1.17 1.041V783Zm0-11.789c-.25-.221-.48-.435-.71-.646.09-.066.19-.134.29-.2a1 1 0 0 1 .42.833v.014Zm2.19 11.744-.63.013v-9.1c.21.175.41.348.63.524v8.563Zm0-9.88c-.22-.18-.42-.355-.63-.532v-2.764c.19.162.4.331.63.515v2.781Zm1.93 9.847c-.48.007-.94.014-1.43.023v-8.15c.47.381.95.761 1.43 1.14v6.985Zm0-8.283c-.48-.386-.96-.77-1.43-1.154v-2.79c.44.355.91.73 1.43 1.137v2.8Zm1.93 8.253c-.46.006-.95.015-1.43.022v-6.582a217 217 0 0 0 1.43 1.1v5.463Zm0-6.735c-.47-.37-.95-.742-1.43-1.118v-2.809c.46.36.94.732 1.43 1.117v2.81Zm1.94 6.714-1.43.015v-5.064c.48.369.96.727 1.43 1.075v3.974Zm0-5.235c-.47-.354-.95-.718-1.43-1.089v-2.808c.46.361.94.729 1.43 1.1v2.795Zm1.93 5.216c-.47 0-.95.009-1.43.013v-3.6c.5.367.97.717 1.43 1.048v2.534Zm0-3.779c-.46-.339-.94-.692-1.43-1.061v-2.784c.47.362.95.726 1.43 1.09v2.755Zm1.93 3.767-1.43.009v-2.165c.52.376.99.709 1.43 1.015v1.141Zm0-2.366c-.44-.314-.92-.665-1.43-1.032V776.7c.48.361.96.72 1.43 1.076v2.7Zm1.17 2.359h-.67v-.786c.25.172.47.32.67.457v.326Zm.76-1.023c-.38-.257-.88-.6-1.43-.982v-2.679c.49.36.96.712 1.43 1.058v2.6Zm1.94.381h-1.34a.61.61 0 0 1-.09-.057v-2.557c.49.359.96.7 1.43 1.037v1.581Zm1.93 0h-1.43v-1.217c.5.358.98.691 1.43 1v.221Z" transform="translate(-1360 -767)" fill="currentColor" fill-rule="evenodd"/></svg>