<svg xmlns="http://www.w3.org/2000/svg" width="39.43" height="38.2" viewBox="0 0 39.43 38.2"><path d="m37.52,19.15h-.74c-.18-.39-.52-1.02-1.11-2.14-.15-.29-.32-.59-.48-.91-.11.05.54-.32,1.35-.76h.98c1.05,0,1.9.85,1.9,1.9s-.85,1.9-1.9,1.9Zm.2,2.18c.67.71.62,1.33.62,1.95v7.12c0,1.33-.24,2.06-1.81,2.06H2.89c-1.57,0-1.81-.73-1.81-2.06v-7.12c0-.62-.05-1.24.62-1.95.12-.13,1.7-1.7,1.7-1.7-.13.04,4.75-8.91,4.98-9.4.62-1.28,2.14-2.06,3.62-2.06h9.88c.02.43.1.73.24,1.61h-9.23c-.92,0-1.82.46-2.14,1.09-.19.37-3.32,6.01-3.32,6.01-.29.52-.04,1.49.82,1.49h22.92c.82,0,1.09-.9.84-1.43-.25.02,2.53-.56,2.36-.51.94,1.76,1.7,3.21,1.65,3.19,0,0,1.58,1.57,1.7,1.7Zm-30.71,2.35c-1.59,0-2.88,1.29-2.88,2.88s1.29,2.88,2.88,2.88,2.88-1.29,2.88-2.88-1.29-2.88-2.88-2.88Zm17.07,3.02c0-.21-.17-.38-.38-.38h-7.98c-.21,0-.38.17-.38.38v3.52c0,.21.17.38.38.38h7.98c.21,0,.38-.17.38-.38v-3.52Zm8.32-3.02c-1.59,0-2.88,1.29-2.88,2.88s1.29,2.88,2.88,2.88,2.88-1.29,2.88-2.88-1.29-2.88-2.88-2.88ZM2.64,19.15h-.74c-1.05,0-1.9-.85-1.9-1.9s.85-1.9,1.9-1.9h2.74c-.31.58-.62,1.15-.89,1.66-.6,1.12-.93,1.75-1.11,2.14Zm5.52,16.49c0,1.42-1.15,2.56-2.57,2.56s-2.57-1.15-2.57-2.56v-2.43h5.13v2.43Zm28.23,0c0,1.42-1.15,2.56-2.57,2.56s-2.57-1.15-2.57-2.56v-2.43h5.13v2.43Z" fill="currentColor" fill-rule="evenodd"/><path d="m31.25,0c-4.09,0-7.41,3.32-7.41,7.41s3.32,7.41,7.41,7.41,7.41-3.32,7.41-7.41-3.32-7.41-7.41-7.41Zm2.59,8.73c-.72.79-2.16,2.18-2.53,2.52h-.02c-.37-.34-1.8-1.72-2.52-2.52-.75-.83-1.48-1.73-1.48-2.96,0-1.03.87-1.85,1.95-1.85.91,0,1.72.47,2.05,1.43h.02c.33-.97,1.15-1.43,2.07-1.43,1.1,0,1.94.84,1.94,1.85,0,1.22-.73,2.13-1.48,2.96Z" fill="currentColor" fill-rule="evenodd"/></svg>