<svg xmlns="http://www.w3.org/2000/svg" viewBox="0 0 241.5 59"><path d="M1222.11 1033.19a.455.455 0 0 0-.45-.45h-2.59a.448.448 0 0 0-.45.45v1.77a.448.448 0 0 1-.45.45h-14.7a.455.455 0 0 0-.45.45v2.6a.446.446 0 0 0 .45.44h33.73a.455.455 0 0 0 .46-.44v-2.6a.463.463 0 0 0-.46-.45h-14.65a.446.446 0 0 1-.44-.45v-1.77Zm14.35 17.43h-32.3a.463.463 0 0 0-.45.46v16.61a.455.455 0 0 0 .45.45h2.59a.448.448 0 0 0 .45-.45v-13.02a.457.457 0 0 1 .45-.46h25.33a.463.463 0 0 1 .45.46v9.1a.782.782 0 0 1-.75.78h-1.41a.448.448 0 0 1-.45-.45v-7.63a.446.446 0 0 0-.45-.44h-20.07a.453.453 0 0 0-.45.44v8.05a.455.455 0 0 0 .45.45h17.57a.453.453 0 0 1 .45.44v2.28a.448.448 0 0 0 .45.45h3.2a5.413 5.413 0 0 0 3.64-1.35 4.852 4.852 0 0 0 1.31-3.69v-12.02a.465.465 0 0 0-.46-.46m-9.17 10.41a.461.461 0 0 1-.45.45h-12.99a.463.463 0 0 1-.46-.45v-.97a.463.463 0 0 1 .46-.45h12.99a.461.461 0 0 1 .45.45v.97Zm6.46-20.46h-26.78a.455.455 0 0 0-.45.45v7.74a.461.461 0 0 0 .45.45h26.78a.461.461 0 0 0 .45-.45v-7.74a.455.455 0 0 0-.45-.45m-3.07 4.82a.224.224 0 0 1-.22.23h-20.23a.224.224 0 0 1-.22-.23v-1.02a.231.231 0 0 1 .22-.23h20.23a.231.231 0 0 1 .22.23v1.02Zm-96.32 22.75h1.29a.455.455 0 0 0 .45-.45v-6.01a.446.446 0 0 1 .44-.45h5.51a.455.455 0 0 0 .45-.45v-2.69a.457.457 0 0 0-.45-.46h-5.51a.444.444 0 0 1-.44-.44v-12.26c0-.05.06-.2.16.03a38.663 38.663 0 0 0 4.52 8c2.67 3.63 6.45 7.38 10.33 9.25.6.28.57-.15.57-.3v-3.05a.452.452 0 0 0-.3-.55 25.782 25.782 0 0 1-7.95-7.77 35.177 35.177 0 0 1-4.22-7.94v-.02a.279.279 0 0 1 .28-.41h11.75a.455.455 0 0 0 .45-.45v-2.69a.455.455 0 0 0-.45-.45h-14.7a.44.44 0 0 1-.44-.45v-4.94a.455.455 0 0 0-.45-.45h-2.58a.448.448 0 0 0-.45.45v4.94a.442.442 0 0 1-.45.45h-14.69a.448.448 0 0 0-.45.45v2.69a.448.448 0 0 0 .45.45h11.75a.274.274 0 0 1 .27.41v.02a34.78 34.78 0 0 1-4.22 7.94 25.752 25.752 0 0 1-7.94 7.77.458.458 0 0 0-.31.55v3.05c0 .15-.03.58.56.3 3.9-1.87 7.68-5.62 10.34-9.25a39.166 39.166 0 0 0 4.53-8c.09-.23.16-.08.16-.03v12.26a.446.446 0 0 1-.45.44h-5.5a.465.465 0 0 0-.46.46v2.69a.463.463 0 0 0 .46.45h5.5a.448.448 0 0 1 .45.45v6.01a.448.448 0 0 0 .45.45h1.29Zm111.99-31.02 7.3 4.46a.238.238 0 0 0 .39-.22v-3.29a.883.883 0 0 0-.39-.69l-7.3-4.35a.234.234 0 0 0-.38.23v3.18a.866.866 0 0 0 .38.68Zm8.97 2.03h10.24a.448.448 0 0 1 .45.45v.91a.448.448 0 0 1-.45.45h-9.21a.455.455 0 0 0-.44.46v10.31a.446.446 0 0 0 .44.45h6.05c.22 0 .25.17.12.31l-6.74 4.03a.89.89 0 0 0-.39.67v3.3a.233.233 0 0 0 .39.21l10.1-6.13c.08-.04.13 0 .13.18v6.4a.448.448 0 0 0 .45.45h2.59a.448.448 0 0 0 .45-.45v-6.39c0-.18.04-.22.13-.19l10.63 6.46a.229.229 0 0 0 .38-.22v-3.29a.847.847 0 0 0-.39-.67l-7.2-4.32h.01c-.2-.12-.18-.35.07-.35h5.92a.448.448 0 0 0 .45-.45v-10.31a.457.457 0 0 0-.45-.46h-9.11a.446.446 0 0 1-.44-.45v-.91a.446.446 0 0 1 .44-.45h10.19a.448.448 0 0 0 .45-.45v-2.59a.448.448 0 0 0-.45-.45h-10.19a.446.446 0 0 1-.44-.45v-2.02a.448.448 0 0 0-.45-.45h-2.59a.448.448 0 0 0-.45.45v2.02a.448.448 0 0 1-.45.45h-10.24a.448.448 0 0 0-.45.45v2.59a.448.448 0 0 0 .45.45m4.53 9.54a.457.457 0 0 1-.46-.45V1045a.457.457 0 0 1 .46-.45h5.71a.448.448 0 0 1 .45.45v3.24a.448.448 0 0 1-.45.45h-5.71m9.65-3.69a.446.446 0 0 1 .44-.45h5.62a.448.448 0 0 1 .45.45v3.24a.448.448 0 0 1-.45.45h-5.62a.446.446 0 0 1-.44-.45V1045Zm10.7 18.27h-20.02a10 10 0 0 1-4.27-.66 2.859 2.859 0 0 1-.55-.39 2.934 2.934 0 0 1-.64-.75 2.622 2.622 0 0 1-.36-1.11v-14.3a.457.457 0 0 0-.46-.45h-7.41a.448.448 0 0 0-.45.45v2.69a.455.455 0 0 0 .45.45h3.93a.455.455 0 0 1 .45.45v10.5a1 1 0 0 1-.37.71l-4.1 2.81a.969.969 0 0 0-.36.71v3.38c0 .24.16.33.36.18l5.41-3.76a.519.519 0 0 1 .67.08 7.028 7.028 0 0 0 2.13 1.72 12.9 12.9 0 0 0 5.25.87h20.34a.448.448 0 0 0 .45-.45v-2.69a.44.44 0 0 0-.45-.44Zm-86.63-27.41a.455.455 0 0 0-.45-.45h-31.6a.463.463 0 0 0-.46.45v31.83a.45.45 0 0 0 .46.45h2.58a.448.448 0 0 0 .45-.45v-2.19a.441.441 0 0 1 .39-.43h24.75a.441.441 0 0 1 .39.43v2.19a.45.45 0 0 0 .46.45h2.58a.448.448 0 0 0 .45-.45v-31.83m-10.99 11.38v-7.87a.446.446 0 0 1 .45-.44h6.61a.444.444 0 0 1 .44.44v11.08c0 .09-.03.12-.1.12h-1.23a.284.284 0 0 0-.27.31 6.82 6.82 0 0 1-.15.74 1.614 1.614 0 0 1-1.68 1.18h-3.1c-.57 0-.97-.08-.97-1.16v-4.4m-18.03-7.83a.457.457 0 0 1 .45-.46h5.32a.457.457 0 0 1 .45.46v.43h-.01v3.11a11.122 11.122 0 0 1-2.2 6.93 12.037 12.037 0 0 1-3.78 3.19.224.224 0 0 1-.23-.27v-13.39m0 18.09a.858.858 0 0 1 .39-.67.723.723 0 0 1 .07-.04 16.38 16.38 0 0 0 6.58-5.18 14.484 14.484 0 0 0 2.66-8.65v-2.14l.01 1.66v-3.06a.448.448 0 0 1 .45-.45h3.93a.448.448 0 0 1 .45.45v12.03a5.268 5.268 0 0 0 1.14 3.58 4.4 4.4 0 0 0 3.49 1.36l2.96.01s.13-.01.65-.01a2.869 2.869 0 0 0 2.65-1.19s.1-.11.1.12v5.72a.444.444 0 0 1-.44.44H1165a.446.446 0 0 1-.45-.44v-3.54Zm-124.95 17.56h6.86v-2.78h1.68v2.78h6.9v1.69h-6.13a15.433 15.433 0 0 0 6.33 6.65l-.94 1.84a18.791 18.791 0 0 1-6.12-7.07h-.04v5.25h3.4v1.67h-3.4v2.76h-1.68v-2.76h-3.29v-1.67h3.29v-5.25h-.03a18.294 18.294 0 0 1-6.06 7.07l-.98-1.65a16.714 16.714 0 0 0 6.31-6.84h-6.1v-1.69Zm22.26 1.39 1.47-.4a23.3 23.3 0 0 1 1.34 5.4h.03v-8.77h1.64v3.57l1.7-.55a18.451 18.451 0 0 1 2.05 5.28h.03v-8.67h1.74v15.54h-1.74v-6.87l-1.75.72a22.251 22.251 0 0 0-2-5.45h-.03v10.94h-1.64v-5.74l-1.83.53a21.185 21.185 0 0 0-.98-5.18h-.03v.79a22.719 22.719 0 0 1-.7 5.78 9.506 9.506 0 0 1-2.56 4.48l-1.41-1.29c1.04-1.02 2.98-3.01 2.98-8.97v-5.11h1.69v3.97Zm-2.43-.75c0 .39 0 4.52-.96 6.59l-1.54-.87a15.567 15.567 0 0 0 .82-5.72h1.68Zm19.51-.67v3.41a4.444 4.444 0 0 1-1.92 3.98l1.23 1.41a6.4 6.4 0 0 0 1.57-2.09 8.059 8.059 0 0 0 .71-3.09v-3.62h2.08v6.7a1.132 1.132 0 0 0 1.06 1.14h1.61c1.25 0 1.57-.78 1.67-2.91l-1.52-.37a5.037 5.037 0 0 1-.15 1.39.406.406 0 0 1-.42.2h-.36a.323.323 0 0 1-.3-.4v-5.75h3.24v9.65h-10.85v-9.65h2.35Zm-4.05 12.44h1.7v-1.17h10.85v1.17h1.69v-14.03h-14.24v14.03Zm29.81-12.79v10.71h-10.79v-10.71h10.79Zm-1.39 7.61a8.848 8.848 0 0 0-.9-1.87h1.11v-1.38h-3.59v-1.84h3.92v-1.45h-9.01v1.45h3.45v1.84h-3.15v1.38h3.15v2.33h-3.78v1.48h9.59v-1.48h-1.94v-.03Zm-2.53-1.54a11.109 11.109 0 0 1 .99 2h-1.84v-2.33h1.69v.04Zm-8.54 7.05h1.67v-.82h10.79v.82h1.7v-14.71h-14.16v14.71Zm25.82-10.74v1.08h-2.44v-1.08h2.44Zm-4.69-2.25h4.69v.93h-4.05v6.04h4.05v.94h-4.83v1.43h4.83v1.16h1.66v-1.16h4.68v-1.43h-4.68v-.94h4.08v-6.04h-4.08v-.93h4.58v-1.42h-4.58v-1.03h-1.66v1.03h-4.69v1.42Zm4.69 4.57v1.04h-2.44v-1.04h2.44Zm4.14-2.32v1.08h-2.48v-1.08h2.48Zm0 2.32v1.04h-2.48v-1.04h2.48Zm-12.95-5.81a17.812 17.812 0 0 1 2.26 3.01l1.38-1.11a13.187 13.187 0 0 0-2.45-2.96Zm-.22 6.78h1.62v4.36a11.9 11.9 0 0 1-1.81 1.32l.77 1.91a17.555 17.555 0 0 0 2.39-2.3c.54.87 1.33 1.8 3.88 1.8h8.34l.33-1.61h-8.8c-.31 0-2.99 0-3.44-2.16v-4.95h-3.28v1.63Zm30.03-5.37a7.63 7.63 0 0 1-1.99 2.05 7.985 7.985 0 0 1-1.82-1.72l.32-.33h3.49Zm-5.71 5.74a13.513 13.513 0 0 0 3.69-1.81 15 15 0 0 0 4.4 2.02l.74-1.68a18.185 18.185 0 0 1-3.75-1.41 9.866 9.866 0 0 0 2.46-2.86v-1.48h-4.21a6.934 6.934 0 0 0 .48-.97l-1.91-.15a7.506 7.506 0 0 1-3.04 3.21l.95 1.42a12 12 0 0 0 1-.73 9.565 9.565 0 0 0 1.51 1.61 16.838 16.838 0 0 1-3.21 1.34 14.943 14.943 0 0 0-.55-1.41l-1.22.55a10.142 10.142 0 0 1 .36 1.01c-.28.02-1.49.05-1.75.05a52.677 52.677 0 0 0 3.16-4.62l-1.51-.68c-.3.53-.74 1.38-1.62 2.7a7.186 7.186 0 0 0-.74-.76 27.422 27.422 0 0 0 1.87-3.16l-1.49-.56c-.27.52-.7 1.4-1.51 2.74-.21-.15-.33-.25-.59-.43l-.75 1.31a12.716 12.716 0 0 1 2.3 2.18c-.29.44-.63.88-.97 1.33-.3.02-1.03.03-1.26.03l.1 1.59 2.56-.18v6.93h1.57v-7.07c.17-.01.86-.06 1.01-.09a6.891 6.891 0 0 1 .17.71l1.34-.52a11.254 11.254 0 0 0-.45-1.52l.04-.03Zm5.92 2.02v2.88h-4.3v-2.88h4.3Zm-5.92-1.56v6.67h1.62v-.66h4.3v.66h1.62v-6.67h-7.54Zm-6.48.73a17.01 17.01 0 0 1-.68 4.41l1.47.46a18.374 18.374 0 0 0 .66-4.65Zm4.08.18a21.374 21.374 0 0 1 .48 3.76l1.44-.35a21.723 21.723 0 0 0-.63-3.69Zm22.75 1.54v1.46h-4.48v-1.46h4.48Zm1.59-1.26h-7.68v3.99h7l.27 1.49h2.68c.27 0 1-.1 1-1.35v-6.36h-14.29v7.71h1.75v-6.35h10.81v4.37a.363.363 0 0 1-.42.43h-1.12v-3.93Zm-9.36-6.78v3.69h11.03v-3.69h-11.03Zm9.33 1.22v1.25h-7.65v-1.25h7.65Zm-4.7-3.42h-6.93v1.49h15.61v-1.49h-6.9v-1.11h-1.78v1.11Zm19.64 4.04v1.87h-2.44v-1.87h2.44Zm-4.02 7.36a10.265 10.265 0 0 0 3.98-2.99h.04v3.52h1.53v-3.74h.04a10.133 10.133 0 0 0 4.07 3.33l.95-1.49a9.345 9.345 0 0 1-4.05-2.75h3.1v-4.6h-4.11v-.96h4.77v-1.54h-4.77v-1.22h-1.53v1.22h-4.7v1.54h4.7v.96h-4.02v4.6h3.29a9.573 9.573 0 0 1-4.22 2.65Zm8.13-7.36v1.87h-2.58v-1.87h2.58Zm-12.93-3.86a15.043 15.043 0 0 1 2.32 3.01l1.4-1.11a18.664 18.664 0 0 0-2.5-2.91Zm-.2 6.82h1.75v4.27a8.937 8.937 0 0 1-1.93 1.55l.83 1.69a13.808 13.808 0 0 0 2.34-2.28c.73.81 1.66 1.85 4.47 1.85h7.86l.33-1.64h-8.45a3.874 3.874 0 0 1-3.81-2.13v-4.96h-3.39v1.65Zm30.13-.33v1.07h-6.14v-1.07h6.14Zm-7.02-7.3c.09.11.5.86.75 1.29h-2.5v1.48h4.4a6.651 6.651 0 0 1-.28.87h-3.14v8.46h9.46v-8.46h-4.7a7.9 7.9 0 0 0 .44-.87h5.18v-1.48h-2.68c.63-1.04.71-1.19.84-1.44l-1.75-.37a10.6 10.6 0 0 1-.81 1.81h-2.71a14.968 14.968 0 0 0-.96-1.79Zm7.02 4.98v1.13h-6.14v-1.13h6.14Zm0 4.57v1.19h-6.14v-1.19h6.14Zm-12.67-8.74a14.5 14.5 0 0 1 2.3 2.98l1.4-1.13a12.56 12.56 0 0 0-2.48-2.86Zm-.15 6.78h1.57v4.29a9.443 9.443 0 0 1-1.75 1.26l.8 1.95a10.184 10.184 0 0 0 2.3-2.33c.42.69 1.2 1.89 4.17 1.89h8.24l.28-1.61h-8.68c-.17 0-3.1-.07-3.69-1.9v-5.2h-3.24v1.65Zm30.12-5.46a7.4 7.4 0 0 1-2 2.37 8.951 8.951 0 0 1-1.82-2.13l.2-.24h3.62Zm-6.18 6.48a21.56 21.56 0 0 0 4.1-2.14 14.077 14.077 0 0 0 4.25 2.1l.71-1.63a10.75 10.75 0 0 1-3.62-1.51 13 13 0 0 0 2.53-3.23v-1.56h-4.37a8.866 8.866 0 0 0 .45-.84l-1.73-.21a8.579 8.579 0 0 1-3.3 3.5v-2.81h-5.35v5.25h2.34v7.16a6.437 6.437 0 0 1-.71.15v-5.78h-1.48v6.05c-.11.01-.57.08-.66.08l.22 1.67a60.412 60.412 0 0 0 5.95-1.39v-1.59c-.16.04-1.5.36-1.82.45v-2.8h1.64v-1.64h-1.64v-2.36h1.51v-2.44h.03l.98 1.28a12.874 12.874 0 0 0 1.24-.93 10.735 10.735 0 0 0 1.62 2 13.871 13.871 0 0 1-3.74 1.62Zm.41-.12v6.6h1.57v-.64h4.31v.64h1.56v-6.6h-7.44Zm-5.25-6.74h2.34v2.3h-2.34v-2.3Zm11.13 8.31v2.82h-4.31v-2.82h4.31Zm12.7-6.34a9.4 9.4 0 0 1-1.1 2.09l-1.65-.96c.2-.25.28-.37.47-.63h-2.02v1.36a14.273 14.273 0 0 0 2.26 2.79l-1.04 1.49a8.5 8.5 0 0 1-1.19-1.85h-.03v7.07h-1.57v-7.65h-.04a15.013 15.013 0 0 1-1.92 4.17l-.76-2.09a15.843 15.843 0 0 0 2.48-5.29h-2.15v-1.64h2.39v-2.98h1.57v2.98h2.02v1.64h.03a13.784 13.784 0 0 0 1.5-4.07l1.72.25c-.09.46-.23.97-.44 1.7h1.27v-2.5h1.64v2.5h3.49v1.62h-3.49v2.32h3.82v1.64h-3.29a12.591 12.591 0 0 0 3.55 4.34l-.86 1.81a12.477 12.477 0 0 1-3.19-4.26h-.03v5.51h-1.64v-5.47h-.03a13.844 13.844 0 0 1-3.71 4.11l-1.07-1.51a13.468 13.468 0 0 0 4.35-4.53h-3.62v-1.64h4.08v-2.32h-1.8Zm22.76-1.5h1.79v1.65h-4.96a23.934 23.934 0 0 0 1.28 7.18c.2.47.93 1.96 1.51 1.96s.86-1.9.93-2.49l1.52.87c-.23 1.27-.68 3.7-2.17 3.7-1.6 0-2.69-1.9-3.09-2.66-1.44-2.8-1.56-5.84-1.66-8.56h-8.78v-1.65h8.72c-.04-.88-.08-2.37-.1-2.63h1.75c0 .84 0 1.45.02 2.63h2.99v-.04a16.984 16.984 0 0 0-2.46-1.46l.99-1.28a15.8 15.8 0 0 1 2.66 1.57Zm-13.63 10.61c.41-.04.6-.07.83-.09.4-.06 2.25-.3 2.68-.36v-4.8h-3.23v-1.64h7.98v1.64h-3.05v4.58c1.9-.28 2.91-.48 3.56-.61v1.56c-2.68.58-6.5 1.15-8.49 1.4Zm21.77-8.76v-.03a16.4 16.4 0 0 0 3.41-3.11 18.411 18.411 0 0 0 3.44 3.11v.03h-6.85Zm10.44 10.18a24.319 24.319 0 0 0-3.82-4.77l-1.41.86a19.835 19.835 0 0 1 1.95 2.37c-2.54.15-3.34.17-6.74.25.51-.94.96-1.97 1.76-3.81h8.63v-1.6h-14.91v1.6h4.25a23.373 23.373 0 0 1-1.59 3.84c-.79.02-2.03.03-2.38.03l.25 1.73c2.51 0 3.07-.05 11.74-.64a13.063 13.063 0 0 1 .68 1.13Zm-11.45-8.61h8.79v-.94a25.114 25.114 0 0 0 2.66 1.47l1.06-1.65c-3.23-1.26-5.92-3.12-7.15-5.04h-1.9c-1.4 2.14-4.5 4.18-7.16 5.11l.97 1.58a17.382 17.382 0 0 0 2.73-1.42v.89Zm18.14 9.49h-1.69v-6.39a11.974 11.974 0 0 1-2 1.54l-.75-1.69a10.529 10.529 0 0 0 4.5-4.84h-4.27v-1.62h2.52v-2.58h1.69v2.58h1.95v1.62a15.021 15.021 0 0 1-1.67 2.8 11.68 11.68 0 0 0 2.31 2.04l-.81 1.57a13.391 13.391 0 0 1-1.78-1.74v6.71Zm5.65-15.58h1.74v4.69h3.54v1.76h-3.54v6.81h3.92v1.77h-9.82v-1.77h4.16v-6.81h-3.45V1077h3.45v-4.69Z" transform="translate(-1039.25 -1029)" fill-rule="evenodd" fill="#231815"/><path d="M1054.12 1055.05a3.283 3.283 0 0 0 3.29-2.38l6.33-23.67h-14.1l-6.98 26.05h11.46Zm20.61-26.05h-3.91l-6.33 23.84c-1.77 6.97-5.5 9.27-11.66 9.27h-12.06l-1.53 5.72h25.09Zm14 0c4.55 1.19 7 5.59 5.6 10.83l-.17.61a15.178 15.178 0 0 1-5.16 7.7 9.02 9.02 0 0 1 1.35 8.12l-.17.6a14.443 14.443 0 0 1-11.77 10.97h15.12l10.4-38.83h-15.2Zm-4.19 5.77h-2.85l1.55-5.77h-1.44l-1.55 5.77-2.77 10.33h.01l-1.74 6.49h-.01l-2.66 9.94h.01l-1.69 6.3h1.44l1.69-6.3h3.26a6.528 6.528 0 0 0 5.92-4.67l.16-.6c.69-2.58-.84-4.67-3.41-4.67h-3.27l1.73-6.49h2.86a6.529 6.529 0 0 0 5.91-4.66l.17-.61c.68-2.58-.75-5.06-3.32-5.06Z" transform="translate(-1039.25 -1029)" fill-rule="evenodd" fill="#004097"/></svg>