<svg id="behance-logo-button" xmlns="http://www.w3.org/2000/svg" width="42" height="42" viewBox="0 0 42 42">
  <g id="Group_348" data-name="Group 348">
    <g id="Group_347" data-name="Group 347">
      <path id="Path_352" data-name="Path 352" d="M20.894,20.686c0-1.9-1.293-1.9-1.293-1.9H14.28v4.078h4.991C20.134,22.864,20.894,22.589,20.894,20.686Z" transform="translate(-2.539 -3.154)" fill="#fff"/>
      <path id="Path_353" data-name="Path 353" d="M33.221,22.864a3.267,3.267,0,0,0-3.215,2.814h6A2.718,2.718,0,0,0,33.221,22.864Z" transform="translate(-5.26 -3.735)" fill="#fff"/>
      <path id="Path_354" data-name="Path 354" d="M19.6,25.68H14.283v4.886h4.711c.08,0,.2,0,.339,0,.757-.019,2.2-.235,2.2-2.374C21.529,25.656,19.6,25.68,19.6,25.68Z" transform="translate(-2.577 -4.39)" fill="#fff"/>
      <path id="Path_355" data-name="Path 355" d="M21,0A21,21,0,1,0,42,21,21.024,21.024,0,0,0,21,0Zm3.716,14.054h6.377v1.9H24.716Zm-3.225,9.985c0,4.718-4.911,4.564-4.911,4.564H8.538V13.144H16.58c2.445,0,4.375,1.351,4.375,4.117A2.683,2.683,0,0,1,18.6,20.2C21.705,20.2,21.491,24.039,21.491,24.039Zm11.931-.254H25.411a2.516,2.516,0,0,0,2.721,2.692c2.568,0,2.478-1.663,2.478-1.663h2.723c0,4.414-5.29,4.11-5.29,4.11A5.484,5.484,0,0,1,22.1,23.016s-.006-5.94,5.939-5.94C34.3,17.076,33.421,23.786,33.423,23.786Z" fill="#fff"/>
    </g>
  </g>
</svg>
