<svg xmlns="http://www.w3.org/2000/svg" xmlns:xlink="http://www.w3.org/1999/xlink" width="272" height="496" viewBox="0 0 272 496">
  <defs>
    <linearGradient id="linear-gradient" x1="0.824" y1="1" x2="0.816" gradientUnits="objectBoundingBox">
      <stop offset="0" stop-color="#2a26af"/>
      <stop offset="1" stop-color="#aa24b9"/>
    </linearGradient>
  </defs>
  <g id="creativity" transform="translate(-120 -8)">
    <path id="Path_71" data-name="Path 71" d="M360,8H152a32.042,32.042,0,0,0-32,32V472a32.042,32.042,0,0,0,32,32H360a32.042,32.042,0,0,0,32-32V40A32.042,32.042,0,0,0,360,8ZM293.44,24l-4.5,16H222.25l-4-16ZM376,472a16.021,16.021,0,0,1-16,16H152a16.021,16.021,0,0,1-16-16V40a16.021,16.021,0,0,1,16-16h49.75l6.49,25.94A8,8,0,0,0,216,56h79a8,8,0,0,0,7.7-5.83L310.06,24H360a16.021,16.021,0,0,1,16,16Z" fill="url(#linear-gradient)"/>
    <path id="Path_72" data-name="Path 72" d="M216,456H160a8,8,0,0,0,0,16h56a8,8,0,0,0,0-16Z" fill="url(#linear-gradient)"/>
    <path id="Path_73" data-name="Path 73" d="M248,456h-8a8,8,0,0,0,0,16h8a8,8,0,0,0,0-16Z" fill="url(#linear-gradient)"/>
    <path id="Path_74" data-name="Path 74" d="M284.116,209.14a8,8,0,0,0-10.976,2.744l-48,80a8,8,0,0,0,13.72,8.232l48-80A8,8,0,0,0,284.116,209.14Z" fill="url(#linear-gradient)"/>
    <path id="Path_75" data-name="Path 75" d="M310.247,211a8,8,0,1,0-12.494,10l28,35-28,35a8,8,0,0,0,12.494,10l32-40a8,8,0,0,0,0-10Z" fill="url(#linear-gradient)"/>
    <path id="Path_76" data-name="Path 76" d="M201.753,301a8,8,0,1,0,12.494-10l-28-35,28-35a8,8,0,0,0-12.494-10l-32,40a8,8,0,0,0,0,10Z" fill="url(#linear-gradient)"/>
  </g>
</svg>
