<svg xmlns="http://www.w3.org/2000/svg" xmlns:xlink="http://www.w3.org/1999/xlink" width="512" height="475" viewBox="0 0 512 475">
  <defs>
    <linearGradient id="linear-gradient" x1="0.5" x2="0.5" y2="1" gradientUnits="objectBoundingBox">
      <stop offset="0" stop-color="#0ee5c0"/>
      <stop offset="1" stop-color="#2a26af"/>
    </linearGradient>
  </defs>
  <g id="innovation" transform="translate(0 -18.5)">
    <path id="Path_77" data-name="Path 77" d="M474.5,18.5H37.5A37.542,37.542,0,0,0,0,56V386a37.542,37.542,0,0,0,37.5,37.5H197.557l-9.027,31.594C184.9,467.782,170.7,478.5,157.5,478.5H101a7.5,7.5,0,0,0,0,15H411a7.5,7.5,0,0,0,0-15H354.5c-13.2,0-27.4-10.719-31.03-23.406L314.443,423.5H474.5A37.542,37.542,0,0,0,512,386V56A37.542,37.542,0,0,0,474.5,18.5Zm-437,15h437A22.526,22.526,0,0,1,497,56V318.5H15V56A22.526,22.526,0,0,1,37.5,33.5ZM309.047,459.215A45.756,45.756,0,0,0,320.559,478.5H191.441a45.762,45.762,0,0,0,11.512-19.285l10.2-35.715h85.685ZM474.5,408.5H37.5A22.526,22.526,0,0,1,15,386V333.5H497V386A22.526,22.526,0,0,1,474.5,408.5Z" fill="url(#linear-gradient)"/>
    <path id="Path_78" data-name="Path 78" d="M37.5,303.5h437A7.5,7.5,0,0,0,482,296V56a7.5,7.5,0,0,0-7.5-7.5H37.5A7.5,7.5,0,0,0,30,56V161a7.5,7.5,0,0,0,15,0V63.5H467v225H45V191a7.5,7.5,0,0,0-15,0V296A7.5,7.5,0,0,0,37.5,303.5Z" fill="url(#linear-gradient)"/>
    <path id="Path_79" data-name="Path 79" d="M256,348.5A22.5,22.5,0,1,0,278.5,371,22.526,22.526,0,0,0,256,348.5Zm0,30a7.5,7.5,0,1,1,7.5-7.5A7.508,7.508,0,0,1,256,378.5Z" fill="url(#linear-gradient)"/>
  </g>
</svg>
