<svg xmlns="http://www.w3.org/2000/svg" width="987.741" height="142.982" viewBox="0 0 987.741 142.982">
  <g id="logo_3" transform="translate(-128.458 -617.946)">
    <g id="Group_1" data-name="Group 1">
      <path id="Path_1" data-name="Path 1" d="M169.722,627a11.244,11.244,0,0,1,1.693,2.273q.821,1.4,2.08,3.435,1.547,2.807,2.225,4.3a6.533,6.533,0,0,1,.677,1.984q-.678,5.61-1.257,10.737-.389,5.419-1.258,11.126a29.505,29.505,0,0,0-.677,3q.386,2.419.629,5.127t.338,5.417q.193,2.13.194,4.789t-.194,6.046q-.1,4.258-.193,6.917t-.1,3.628a14.054,14.054,0,0,0,.1,1.548,12.56,12.56,0,0,0,.387,1.935q.193,1.356.677,3.385v6.095q.095,3.678,2.361,17.027t2.96,14.318a9.734,9.734,0,0,1,1.159-.581l7.538-13.544q.579-1.644,1.5-4.208t2.175-5.95a125.781,125.781,0,0,0,8.262-22.2q3.914-13.689,7.3-32.457a29.164,29.164,0,0,1,3.043-8.61q1.884-3.192,4.2-3.87l8.6-3.095a6.421,6.421,0,0,1,3.192,2.37,7.132,7.132,0,0,1,.968,3.918,70.684,70.684,0,0,1-1.065,9.723q-1.065,6.723-3.282,16.88-.1,2.227-.516,5.515t-.99,7.739q-.775,3.483-1.209,5.514a17.738,17.738,0,0,0-.436,2.516q0,2.516.1,5.755t.193,7.3q.193,4.934.194,8.222v4.644q.1,6.482.435,9.819t.919,3.338q.966,0,3.043-4.16a121.045,121.045,0,0,0,5.073-12.576q2.415-6.386,4.4-12.093t3.526-10.738a7.712,7.712,0,0,0,1.547-3A22.693,22.693,0,0,0,241,691.33q1.546-4.158,3-8.755t3.091-9.529q.966-2.9,2.078-7.255t2.656-10.351l-1.256-4.063q.289-1.161.869-2.9a35.16,35.16,0,0,0,1.064-4.16q.644-1.026,1.255-1.928a71.438,71.438,0,0,0-86.02-16.762A7.276,7.276,0,0,1,169.722,627Z" fill="#1bb8ec"/>
      <path id="Path_2" data-name="Path 2" d="M166.32,751.454q-.827-3.047-1.7-6.239a20.018,20.018,0,0,0,.679-2.226,25.07,25.07,0,0,1-1.406-3.675q-.728-2.322-1.6-5.612-.291-2.031-.776-5.224t-1.065-7.545q-.1-1.354-.2-2.758t-.194-2.757a9.932,9.932,0,0,0-.533-2.321,21.1,21.1,0,0,0-1.309-2.9,15.2,15.2,0,0,1-.339-2.854q-.144-2.271-.34-6.336a29.769,29.769,0,0,0-.582-5.466,4.619,4.619,0,0,0-1.452-2.853l-2.618-1.936a16.192,16.192,0,0,1-.922-4.207,60.692,60.692,0,0,1-.339-7.014,209.379,209.379,0,0,1,1.306-22.831q1.262-11.492,3.75-24.165a71.479,71.479,0,0,0,9.984,120.177C166.557,752.288,166.434,751.876,166.32,751.454Z" fill="#2a26af"/>
      <path id="Path_3" data-name="Path 3" d="M261.511,653.1a3.73,3.73,0,0,1-.127.405q-.678,1.356-1.161,2.564c-.324.808-.58,1.468-.774,1.983l1.257,4.741a31.247,31.247,0,0,0-1.354,4.885q-.775,3.532-1.741,9.239-.967,5.418-1.741,8.609a16.268,16.268,0,0,1-1.452,4.257,24.053,24.053,0,0,1-1.257,4.45q-.967,2.613-2.322,6.192a24.45,24.45,0,0,0-1.258,3.918q-.678,2.661-1.644,6.336-.678,2.228-1.741,5.273t-2.419,7.4a16.016,16.016,0,0,0-1.886,3.384,33.454,33.454,0,0,0-1.693,5.322,46.767,46.767,0,0,1-1.79,4.5q-1.305,2.95-3.241,7.593a79.8,79.8,0,0,1-3.482,7.45,12.14,12.14,0,0,1-1.867,2.787A71.479,71.479,0,0,0,261.511,653.1Z" fill="#2a26af"/>
      <path id="Path_4" data-name="Path 4" d="M211.369,756.727q-2.226-2.9-3.192-8.9-.291-4.156-.629-8.367t-.726-8.562q-.2-2.128-.725-5.66t-1.693-8.464q-2.033,3.87-4.208,7.981t-4.5,8.658q.1.87-1.354,4.256t-4.063,9.385q-2.614,6.069-5.594,12.225a71.467,71.467,0,0,0,30.366.037A7.07,7.07,0,0,1,211.369,756.727Z" fill="#2a26af"/>
    </g>
    <path id="Path_5" data-name="Path 5" d="M283.947,760.9c-.35,0-.525-.217-.525-.656l.132-90.1a.463.463,0,0,1,.524-.524h42.1c.349,0,.525.219.525.656v14.688a.464.464,0,0,1-.525.525H299.291v20.458h26.884a.465.465,0,0,1,.525.525l.131,14.819a.463.463,0,0,1-.524.524H299.291v22.95h27.016c.348,0,.524.219.524.657v14.95a.463.463,0,0,1-.524.524Z" fill="#1bb8ec"/>
    <path id="Path_6" data-name="Path 6" d="M288.5,756l37.807,4.9h-42.36c-.35,0-.525-.217-.525-.656l.132-90.1Z" fill="#2a26af"/>
    <path id="Path_7" data-name="Path 7" d="M339.683,760.9c-.351,0-.525-.217-.525-.656l.262-90.1a.464.464,0,0,1,.525-.524h25.18a25.146,25.146,0,0,1,13.376,3.606,26.6,26.6,0,0,1,9.312,9.508,25.26,25.26,0,0,1,3.41,12.853,22.153,22.153,0,0,1-2.558,10.491,26.226,26.226,0,0,1-6.1,7.869,27.332,27.332,0,0,1,5.9,8.786,26.8,26.8,0,0,1,2.1,10.491,27.111,27.111,0,0,1-3.672,13.9,27.946,27.946,0,0,1-9.9,10.031,26.384,26.384,0,0,1-13.836,3.738Zm15.344-16h8.131a11,11,0,0,0,8.131-3.474,11.323,11.323,0,0,0,3.409-8.2,11.642,11.642,0,0,0-11.54-11.54h-8Zm.131-39.08h9.967a9.385,9.385,0,0,0,7.41-3.213,10.425,10.425,0,0,0,2.819-7.016,10.065,10.065,0,0,0-3.016-7.279,9.749,9.749,0,0,0-7.213-3.082h-9.967Z" fill="#1bb8ec"/>
    <path id="Path_8" data-name="Path 8" d="M376.994,757.165a26.384,26.384,0,0,1-13.836,3.738H339.683c-.351,0-.525-.217-.525-.656l.262-90.1L344.792,756Z" fill="#2a26af"/>
    <path id="Path_9" data-name="Path 9" d="M424.925,760.9a24.093,24.093,0,0,1-12.917-3.606,27.665,27.665,0,0,1-9.377-9.574,25.336,25.336,0,0,1-3.541-13.18l.131-41.572a25.367,25.367,0,0,1,3.475-13.115,26.573,26.573,0,0,1,9.377-9.442,24.521,24.521,0,0,1,12.852-3.541,24.086,24.086,0,0,1,12.852,3.541,26.948,26.948,0,0,1,9.246,9.442,25.376,25.376,0,0,1,3.475,13.115l.132,41.572a25.715,25.715,0,0,1-3.476,13.18,27.129,27.129,0,0,1-9.311,9.574A24.1,24.1,0,0,1,424.925,760.9Zm0-15.868a9.079,9.079,0,0,0,6.885-3.213,10.469,10.469,0,0,0,2.951-7.279l-.131-41.572a10.5,10.5,0,0,0-2.754-7.344,9.009,9.009,0,0,0-6.951-3.017,9.366,9.366,0,0,0-6.95,2.951,10.17,10.17,0,0,0-2.886,7.41v41.572a10.455,10.455,0,0,0,2.886,7.41A9.175,9.175,0,0,0,424.925,745.035Z" fill="#1bb8ec"/>
    <path id="Path_10" data-name="Path 10" d="M427.928,758.9a24.093,24.093,0,0,1-12.917-3.606,27.665,27.665,0,0,1-9.377-9.574,25.336,25.336,0,0,1-3.541-13.18l.131-41.572a25.367,25.367,0,0,1,3.475-13.115,26.49,26.49,0,0,1,6.746-7.647c-.123.071-.249.133-.372.207a26.573,26.573,0,0,0-9.377,9.442,25.367,25.367,0,0,0-3.475,13.115l-.131,41.572a25.336,25.336,0,0,0,3.541,13.18,27.665,27.665,0,0,0,9.377,9.574,24.94,24.94,0,0,0,25.835,0c.808-.5,1.573-1.041,2.314-1.607A24.135,24.135,0,0,1,427.928,758.9Z" fill="#2a26af"/>
    <path id="Path_11" data-name="Path 11" d="M462.431,760.9c-.7,0-1.049-.3-1.049-.918l-.132-89.309a.928.928,0,0,1,1.05-1.049h11.8L496.266,721.3l-.656-50.622c0-.7.394-1.049,1.18-1.049h12.984c.524,0,.787.351.787,1.049l.131,89.44c0,.526-.219.787-.656.787H498.5l-22.688-48.261.918,47.212c0,.7-.394,1.049-1.181,1.049Z" fill="#1bb8ec"/>
    <path id="Path_12" data-name="Path 12" d="M475.545,760.9H462.431c-.7,0-1.049-.3-1.049-.918l-.132-89.309,5.672,85.34Z" fill="#2a26af"/>
    <path id="Path_13" data-name="Path 13" d="M510.036,760.9H498.5l-22.688-48.261L501.925,756Z" fill="#2a26af"/>
    <path id="Path_14" data-name="Path 14" d="M618.07,637.6H546.113a.464.464,0,0,0-.525.525v14.706a.579.579,0,0,0,.656.656l27.03-.018V760.248c0,.438.174.655.525.655h14.819c.348,0,.525-.217.525-.655l-.122-106.777H618.2c.348,0,.525-.218.525-.656V638.127C618.726,637.778,618.506,637.6,618.07,637.6Z" fill="#1bb8ec"/>
    <path id="Path_15" data-name="Path 15" d="M573.274,653.471V760.248c0,.438.174.655.525.655h14.819l-9.764-4.9Z" fill="#2a26af"/>
    <path id="Path_16" data-name="Path 16" d="M603.538,760.9c-.351,0-.524-.217-.524-.656l.13-90.1a.464.464,0,0,1,.525-.524h42.1c.347,0,.524.219.524.656v14.688a.465.465,0,0,1-.524.525H618.882v20.458h26.885a.465.465,0,0,1,.524.525l.131,14.819a.464.464,0,0,1-.525.524H618.882v22.95H645.9c.349,0,.525.219.525.657v14.95a.464.464,0,0,1-.525.524Z" fill="#1bb8ec"/>
    <path id="Path_17" data-name="Path 17" d="M645.9,760.9H603.538c-.351,0-.524-.217-.524-.656l.13-90.1L608.878,756Z" fill="#2a26af"/>
    <path id="Path_18" data-name="Path 18" d="M680.782,760.9a24.334,24.334,0,0,1-13.049-3.606,26.429,26.429,0,0,1-9.245-9.639,26.96,26.96,0,0,1-3.41-13.508l.131-40.917a26.5,26.5,0,0,1,3.345-13.18,26.068,26.068,0,0,1,9.179-9.573,25.491,25.491,0,0,1,26.033-.066,26.357,26.357,0,0,1,12.589,22.819v6.033a.463.463,0,0,1-.524.524H691.143a.463.463,0,0,1-.525-.524v-6.033a10.831,10.831,0,0,0-2.819-7.475,9.037,9.037,0,0,0-7.017-3.148,8.581,8.581,0,0,0-7.213,3.213,11.762,11.762,0,0,0-2.491,7.41V734.15a11.058,11.058,0,0,0,2.819,7.869,9.06,9.06,0,0,0,6.885,3.016,8.816,8.816,0,0,0,7.017-3.345,11.388,11.388,0,0,0,2.819-7.54v-6.033a.465.465,0,0,1,.525-.524h14.819a.465.465,0,0,1,.524.524v6.033a26.586,26.586,0,0,1-3.474,13.508,27.17,27.17,0,0,1-9.246,9.639A24.008,24.008,0,0,1,680.782,760.9Z" fill="#1bb8ec"/>
    <path id="Path_19" data-name="Path 19" d="M683.532,759.153a24.334,24.334,0,0,1-13.049-3.606,26.429,26.429,0,0,1-9.245-9.639,26.96,26.96,0,0,1-3.41-13.508l.131-40.917A26.5,26.5,0,0,1,661.3,678.3a25.985,25.985,0,0,1,7.477-8.422c-.351.194-.7.386-1.048.6a26.068,26.068,0,0,0-9.179,9.573,26.5,26.5,0,0,0-3.345,13.18l-.131,40.917a26.96,26.96,0,0,0,3.41,13.508,26.429,26.429,0,0,0,9.245,9.639,24.334,24.334,0,0,0,13.049,3.606,24.008,24.008,0,0,0,12.984-3.606c.551-.345,1.082-.71,1.6-1.088A24.147,24.147,0,0,1,683.532,759.153Z" fill="#2a26af"/>
    <path id="Path_20" data-name="Path 20" d="M717.239,760.9c-.35,0-.524-.217-.524-.656l.131-90.1c0-.348.216-.524.655-.524h14.558c.436,0,.655.176.655.524l-.131,35.672h19.672V670.151a.463.463,0,0,1,.524-.524h14.557c.436,0,.656.176.656.524l.262,90.1a.579.579,0,0,1-.655.656H752.91a.578.578,0,0,1-.655-.656V721.691H732.583v38.556c0,.439-.177.656-.524.656Z" fill="#1bb8ec"/>
    <path id="Path_21" data-name="Path 21" d="M732.059,760.9h-14.82c-.35,0-.524-.217-.524-.656l.131-90.1L722.307,756Z" fill="#2a26af"/>
    <path id="Path_22" data-name="Path 22" d="M767.6,760.9H752.91a.578.578,0,0,1-.655-.656V721.691L757.808,756Z" fill="#2a26af"/>
    <path id="Path_23" data-name="Path 23" d="M780.843,760.9c-.7,0-1.049-.3-1.049-.918l-.131-89.309a.927.927,0,0,1,1.049-1.049h11.8L814.679,721.3l-.657-50.622c0-.7.394-1.049,1.181-1.049h12.983c.525,0,.787.351.787,1.049l.131,89.44c0,.526-.219.787-.656.787H816.907L794.22,712.642l.918,47.212c0,.7-.394,1.049-1.181,1.049Z" fill="#1bb8ec"/>
    <path id="Path_24" data-name="Path 24" d="M793.958,760.9H780.845c-.7,0-1.05-.3-1.05-.918l-.132-89.309,5.672,85.34Z" fill="#2a26af"/>
    <path id="Path_25" data-name="Path 25" d="M828.449,760.9h-11.54l-22.688-48.261L820.339,756Z" fill="#2a26af"/>
    <path id="Path_26" data-name="Path 26" d="M865.43,760.9a24.092,24.092,0,0,1-12.918-3.606,27.656,27.656,0,0,1-9.377-9.574,25.336,25.336,0,0,1-3.541-13.18l.131-41.572a25.367,25.367,0,0,1,3.475-13.115,26.573,26.573,0,0,1,9.377-9.442,24.522,24.522,0,0,1,12.853-3.541,24.082,24.082,0,0,1,12.851,3.541,26.939,26.939,0,0,1,9.246,9.442A25.376,25.376,0,0,1,891,692.971l.132,41.572a25.716,25.716,0,0,1-3.476,13.18,27.129,27.129,0,0,1-9.311,9.574A24.1,24.1,0,0,1,865.43,760.9Zm0-15.868a9.077,9.077,0,0,0,6.884-3.213,10.473,10.473,0,0,0,2.951-7.279l-.131-41.572a10.5,10.5,0,0,0-2.754-7.344,9.008,9.008,0,0,0-6.95-3.017,9.37,9.37,0,0,0-6.952,2.951,10.172,10.172,0,0,0-2.884,7.41v41.572a10.457,10.457,0,0,0,2.884,7.41A9.179,9.179,0,0,0,865.43,745.035Z" fill="#1bb8ec"/>
    <path id="Path_27" data-name="Path 27" d="M868.432,758.9a24.093,24.093,0,0,1-12.917-3.606,27.665,27.665,0,0,1-9.377-9.574,25.336,25.336,0,0,1-3.541-13.18l.131-41.572a25.367,25.367,0,0,1,3.475-13.115,26.505,26.505,0,0,1,6.746-7.647c-.123.071-.249.133-.372.207a26.59,26.59,0,0,0-9.377,9.442,25.366,25.366,0,0,0-3.474,13.115l-.132,41.572a25.336,25.336,0,0,0,3.541,13.18,27.665,27.665,0,0,0,9.377,9.574,24.941,24.941,0,0,0,25.836,0c.806-.5,1.572-1.041,2.312-1.607A24.129,24.129,0,0,1,868.432,758.9Z" fill="#2a26af"/>
    <path id="Path_28" data-name="Path 28" d="M902.279,760.9c-.35,0-.524-.217-.524-.656l.131-89.964a.579.579,0,0,1,.655-.656H917.1a.58.58,0,0,1,.655.656l-.131,74.489h27.016a.58.58,0,0,1,.655.657v14.818a.579.579,0,0,1-.655.656Z" fill="#1bb8ec"/>
    <path id="Path_29" data-name="Path 29" d="M944.639,760.9h-42.36c-.35,0-.524-.217-.524-.656l.131-89.964L907.348,756Z" fill="#2a26af"/>
    <path id="Path_30" data-name="Path 30" d="M976.9,760.9a24.1,24.1,0,0,1-12.918-3.606,27.674,27.674,0,0,1-9.377-9.574,25.346,25.346,0,0,1-3.541-13.18l.131-41.572a25.358,25.358,0,0,1,3.476-13.115,26.557,26.557,0,0,1,9.377-9.442,24.518,24.518,0,0,1,12.852-3.541,24.085,24.085,0,0,1,12.852,3.541A26.939,26.939,0,0,1,999,679.856a25.376,25.376,0,0,1,3.475,13.115l.131,41.572a25.725,25.725,0,0,1-3.475,13.18,27.131,27.131,0,0,1-9.312,9.574A24.1,24.1,0,0,1,976.9,760.9Zm0-15.868a9.08,9.08,0,0,0,6.885-3.213,10.472,10.472,0,0,0,2.95-7.279l-.131-41.572a10.5,10.5,0,0,0-2.753-7.344,9.01,9.01,0,0,0-6.951-3.017,9.368,9.368,0,0,0-6.951,2.951,10.169,10.169,0,0,0-2.885,7.41v41.572a10.454,10.454,0,0,0,2.885,7.41A9.177,9.177,0,0,0,976.9,745.035Z" fill="#1bb8ec"/>
    <path id="Path_31" data-name="Path 31" d="M979.9,758.9a24.1,24.1,0,0,1-12.917-3.606,27.683,27.683,0,0,1-9.377-9.574,25.345,25.345,0,0,1-3.541-13.18l.132-41.572a25.357,25.357,0,0,1,3.475-13.115,26.49,26.49,0,0,1,6.746-7.647c-.123.071-.249.133-.372.207a26.574,26.574,0,0,0-9.377,9.442,25.357,25.357,0,0,0-3.475,13.115l-.132,41.572a25.346,25.346,0,0,0,3.541,13.18,27.683,27.683,0,0,0,9.377,9.574,24.941,24.941,0,0,0,25.836,0c.807-.5,1.573-1.041,2.313-1.607A24.13,24.13,0,0,1,979.9,758.9Z" fill="#2a26af"/>
    <path id="Path_32" data-name="Path 32" d="M1037.224,760.9a24.087,24.087,0,0,1-12.853-3.541,26.725,26.725,0,0,1-9.245-9.508,25.953,25.953,0,0,1-3.476-13.311V692.971a25.468,25.468,0,0,1,3.476-13.049,26.561,26.561,0,0,1,9.312-9.508,24.172,24.172,0,0,1,12.786-3.541,25.035,25.035,0,0,1,13.048,3.475,25.741,25.741,0,0,1,9.247,9.377,26,26,0,0,1,3.409,13.246V699c0,.351-.219.525-.656.525h-14.688a.463.463,0,0,1-.524-.525V694.02a12.226,12.226,0,0,0-2.82-8.262,8.89,8.89,0,0,0-7.016-3.279,9.024,9.024,0,0,0-6.754,3.148,10.4,10.4,0,0,0-2.951,7.344v41.572a10.454,10.454,0,0,0,2.885,7.41,9.04,9.04,0,0,0,6.82,3.082,9.211,9.211,0,0,0,7.016-3.016,10.532,10.532,0,0,0,2.82-7.476v-6.426h-9.181a.578.578,0,0,1-.655-.656V712.773a.578.578,0,0,1,.655-.655H1062.4c.349,0,.525.219.525.655v21.77a25.952,25.952,0,0,1-3.476,13.311,26.758,26.758,0,0,1-9.245,9.508A24.329,24.329,0,0,1,1037.224,760.9Z" fill="#1bb8ec"/>
    <path id="Path_33" data-name="Path 33" d="M1040.1,759.153a24.087,24.087,0,0,1-12.853-3.541A26.725,26.725,0,0,1,1018,746.1a25.953,25.953,0,0,1-3.476-13.311V691.221A25.468,25.468,0,0,1,1018,678.172a26.574,26.574,0,0,1,7.833-8.544c-.471.246-.937.506-1.4.786a26.561,26.561,0,0,0-9.312,9.508,25.468,25.468,0,0,0-3.476,13.049v41.572a25.953,25.953,0,0,0,3.476,13.311,26.725,26.725,0,0,0,9.245,9.508,25.333,25.333,0,0,0,25.836,0q.71-.435,1.383-.907A24.57,24.57,0,0,1,1040.1,759.153Z" fill="#2a26af"/>
    <path id="Path_34" data-name="Path 34" d="M1082.994,760.9c-.263,0-.393-.174-.393-.524l.13-37.245-17.573-52.983c-.086-.348.045-.524.394-.524h14.556a.706.706,0,0,1,.788.524l9.7,35.278,9.835-35.278a.619.619,0,0,1,.656-.524h14.688c.348,0,.48.176.394.524l-17.7,52.458.131,37.77a.464.464,0,0,1-.525.524Z" fill="#1bb8ec"/>
    <path id="Path_35" data-name="Path 35" d="M1088.192,756l9.883,4.9h-15.081c-.263,0-.393-.174-.393-.524l.13-37.245Z" fill="#2a26af"/>
  </g>
</svg>
