<svg xmlns="http://www.w3.org/2000/svg" xmlns:xlink="http://www.w3.org/1999/xlink" width="383.9" height="342.1" viewBox="0 0 383.9 342.1">
  <defs>
    <linearGradient id="linear-gradient" x1="0.5" x2="0.5" y2="1" gradientUnits="objectBoundingBox">
      <stop offset="0" stop-color="#33d2f3"/>
      <stop offset="1" stop-color="#2a26af"/>
    </linearGradient>
  </defs>
  <g id="server" transform="translate(-576 -350)">
    <g id="Group_5" data-name="Group 5" transform="translate(576 329.1)">
      <g id="Group_4" data-name="Group 4">
        <path id="Path_83" data-name="Path 83" d="M344.1,50H320V30.9a10,10,0,0,0-20,0V50H202V30.9a10,10,0,0,0-20,0V50H83V30.9a10,10,0,0,0-20,0V50H39.9C17.9,50,0,68.5,0,90.5V323a39.9,39.9,0,0,0,39.9,40H344a39.882,39.882,0,0,0,39.9-39.9V90.5C384,68.5,366.1,50,344.1,50ZM364,323a19.952,19.952,0,0,1-19.8,20H39.9A19.888,19.888,0,0,1,20,323.1V90.5C20,79.4,28.9,70,39.9,70H63V84.5a10,10,0,0,0,20,0V70h99V84.5a10,10,0,0,0,20,0V70h98V84.5a10,10,0,0,0,20,0V70h24.1c11.1,0,19.9,9.5,19.9,20.5Z" fill="url(#linear-gradient)"/>
      </g>
    </g>
    <g id="Group_7" data-name="Group 7" transform="translate(576 329.1)">
      <g id="Group_6" data-name="Group 6">
        <path id="Path_84" data-name="Path 84" d="M165.7,135H148.2a10,10,0,0,0,0,20h17.5a10,10,0,0,0,0-20Z" fill="url(#linear-gradient)"/>
      </g>
    </g>
    <g id="Group_9" data-name="Group 9" transform="translate(576 329.1)">
      <g id="Group_8" data-name="Group 8">
        <path id="Path_85" data-name="Path 85" d="M235.3,135H217.8a10,10,0,0,0,0,20h17.5a10,10,0,0,0,0-20Z" fill="url(#linear-gradient)"/>
      </g>
    </g>
    <g id="Group_11" data-name="Group 11" transform="translate(576 329.1)">
      <g id="Group_10" data-name="Group 10">
        <path id="Path_86" data-name="Path 86" d="M305.5,135H288a10,10,0,0,0,0,20h17.5a10,10,0,0,0,0-20Z" fill="url(#linear-gradient)"/>
      </g>
    </g>
    <g id="Group_13" data-name="Group 13" transform="translate(576 329.1)">
      <g id="Group_12" data-name="Group 12">
        <path id="Path_87" data-name="Path 87" d="M165.7,204H148.2a10,10,0,0,0,0,20h17.5a10,10,0,0,0,0-20Z" fill="url(#linear-gradient)"/>
      </g>
    </g>
    <g id="Group_15" data-name="Group 15" transform="translate(576 329.1)">
      <g id="Group_14" data-name="Group 14">
        <path id="Path_88" data-name="Path 88" d="M95.6,204H78a10,10,0,0,0,0,20H95.5a10,10,0,0,0,.1-20Z" fill="url(#linear-gradient)"/>
      </g>
    </g>
    <g id="Group_17" data-name="Group 17" transform="translate(576 329.1)">
      <g id="Group_16" data-name="Group 16">
        <path id="Path_89" data-name="Path 89" d="M235.3,204H217.8a10,10,0,0,0,0,20h17.5a10,10,0,0,0,0-20Z" fill="url(#linear-gradient)"/>
      </g>
    </g>
    <g id="Group_19" data-name="Group 19" transform="translate(576 329.1)">
      <g id="Group_18" data-name="Group 18">
        <path id="Path_90" data-name="Path 90" d="M305.5,204H288a10,10,0,0,0,0,20h17.5a10,10,0,0,0,0-20Z" fill="url(#linear-gradient)"/>
      </g>
    </g>
    <g id="Group_21" data-name="Group 21" transform="translate(576 329.1)">
      <g id="Group_20" data-name="Group 20">
        <path id="Path_91" data-name="Path 91" d="M165.7,272H148.2a10,10,0,0,0,0,20h17.5a10,10,0,0,0,0-20Z" fill="url(#linear-gradient)"/>
      </g>
    </g>
    <g id="Group_23" data-name="Group 23" transform="translate(576 329.1)">
      <g id="Group_22" data-name="Group 22">
        <path id="Path_92" data-name="Path 92" d="M95.6,272H78a10,10,0,0,0,0,20H95.5a10,10,0,0,0,.1-20Z" fill="url(#linear-gradient)"/>
      </g>
    </g>
    <g id="Group_25" data-name="Group 25" transform="translate(576 329.1)">
      <g id="Group_24" data-name="Group 24">
        <path id="Path_93" data-name="Path 93" d="M235.3,272H217.8a10,10,0,0,0,0,20h17.5a10,10,0,0,0,0-20Z" fill="url(#linear-gradient)"/>
      </g>
    </g>
  </g>
</svg>
