<svg width="290" height="84" viewBox="0 0 290 84" fill="none" xmlns="http://www.w3.org/2000/svg">
<g clip-path="url(#clip0_802_57660)">
<path d="M0 25.1974L14.5374 33.6052L29.0747 25.1974L58.1753 42.0129L72.7126 33.6052L43.6379 16.7897L58.1753 8.40774L43.6379 0L0 25.1974Z" fill="#FECC81"/>
<path d="M0 42.013L14.5374 50.3949V33.6052L0 25.1975V42.013Z" fill="#F78F25"/>
<path d="M14.5374 50.3949L29.0747 42.013V25.1975L14.5374 33.6052V50.3949Z" fill="#E76724"/>
<path d="M58.1753 42.013V58.8027L29.0748 42.013V25.1975L58.1753 42.013Z" fill="#F78F25"/>
<path d="M72.7127 50.3949V33.6052L58.1753 42.013V58.8026L72.7127 50.3949Z" fill="#E76724"/>
<path d="M72.7126 33.6052L87.25 42.013V58.8026L72.7126 50.3949V33.6052Z" fill="#F78F25"/>
<path d="M29.0747 75.6181L43.6379 67.2104L14.5374 50.3949L29.0747 42.0129L58.1753 58.8026L72.7126 50.3949L87.25 58.8026L43.6379 84L29.0747 75.6181Z" fill="#FECC81"/>
<path d="M29.0748 75.618L43.6379 67.2102L29.0748 58.8025V75.618Z" fill="#E76724"/>
<path d="M43.6379 16.7897L58.1753 25.1974V8.40771" fill="#E76724"/>
<path d="M116.376 17.744H109.572V12.6375H128.955V17.744H122.098V37.4996H116.376V17.744Z" fill="#FECC81"/>
<path d="M148.003 26.8997V37.4738H142.538V28.6792C142.538 27.2091 142.306 26.1517 141.842 25.4812C141.379 24.8106 140.605 24.4753 139.523 24.4753C138.44 24.4753 137.615 24.8106 137.048 25.507C136.481 26.2033 136.223 27.2091 136.223 28.5245V37.4738H130.785V12.6375H136.223V22.8505C136.713 21.8963 137.435 21.1741 138.389 20.6583C139.342 20.1425 140.451 19.8846 141.765 19.8846C145.941 19.8846 148.003 22.2058 148.003 26.8739V26.8997Z" fill="#FECC81"/>
<path d="M163.236 27.0542C163.236 25.9195 162.901 25.0426 162.282 24.4752C161.664 23.882 160.787 23.5983 159.628 23.5983C158.468 23.5983 157.54 23.9078 156.87 24.5268C156.199 25.1457 155.839 25.9968 155.813 27.0542H163.236V27.0542ZM168.443 30.4328H155.813C155.864 31.5418 156.225 32.3929 156.947 32.9861C157.669 33.5793 158.622 33.863 159.834 33.863C161.509 33.863 162.566 33.3471 163.03 32.3413H168.365C168.108 34.0177 167.18 35.3846 165.607 36.4162C164.035 37.4479 162.102 37.9637 159.834 37.9637C156.895 37.9637 154.601 37.1642 152.926 35.5909C151.251 34.0177 150.426 31.7997 150.426 28.9627C150.426 27.1058 150.812 25.5068 151.56 24.1399C152.307 22.773 153.39 21.7414 154.782 21.0192C156.174 20.2971 157.798 19.936 159.653 19.936C161.406 19.936 162.953 20.2713 164.319 20.9677C165.685 21.664 166.742 22.6183 167.489 23.8562C168.237 25.0942 168.597 26.4868 168.597 28.0859C168.597 28.808 168.546 29.6075 168.443 30.4586V30.4328Z" fill="#FECC81"/>
<path d="M182.645 17.744H175.815V12.6375H195.198V17.744H188.341V37.4996H182.645V17.744Z" fill="#FECC81"/>
<path d="M205.302 27.0542C205.302 25.9195 204.967 25.0426 204.348 24.4752C203.729 23.882 202.853 23.5983 201.693 23.5983C200.533 23.5983 199.605 23.9078 198.935 24.5268C198.265 25.1457 197.904 25.9968 197.878 27.0542H205.302ZM210.508 30.4328H197.878C197.93 31.5418 198.317 32.3929 199.013 32.9861C199.734 33.5793 200.688 33.863 201.899 33.863C203.575 33.863 204.632 33.3471 205.096 32.3413H210.405C210.148 34.0177 209.22 35.3846 207.647 36.4162C206.075 37.4479 204.142 37.9637 201.874 37.9637C198.935 37.9637 196.641 37.1642 194.966 35.5909C193.29 34.0177 192.466 31.7997 192.466 28.9627C192.466 27.1058 192.852 25.5068 193.6 24.1399C194.347 22.773 195.43 21.7414 196.822 21.0192C198.214 20.2971 199.837 19.936 201.693 19.936C203.446 19.936 204.992 20.2713 206.359 20.9677C207.725 21.664 208.781 22.6183 209.529 23.8562C210.276 25.0942 210.637 26.4868 210.637 28.0859C210.637 28.808 210.586 29.6075 210.508 30.4586V30.4328Z" fill="#FECC81"/>
<path d="M217.39 36.8289C215.999 36.081 214.942 35.0236 214.194 33.6567C213.447 32.2898 213.086 30.7166 213.086 28.9112C213.086 27.1059 213.447 25.5327 214.194 24.1658C214.942 22.7989 215.999 21.7414 217.39 20.9935C218.782 20.2456 220.38 19.8845 222.236 19.8845C224.762 19.8845 226.824 20.5035 228.422 21.7672C229.995 23.031 230.897 24.7074 231.129 26.848H225.69C225.51 26.0485 225.123 25.4553 224.582 25.0684C224.041 24.6816 223.267 24.501 222.288 24.501C221.102 24.501 220.174 24.8879 219.53 25.6616C218.86 26.4353 218.525 27.5185 218.525 28.9112C218.525 30.3039 218.86 31.3871 219.53 32.1608C220.2 32.9346 221.102 33.3214 222.288 33.3214C223.293 33.3214 224.041 33.1409 224.582 32.7798C225.123 32.4188 225.484 31.8772 225.69 31.1034H231.129C230.923 33.1925 230.02 34.8431 228.422 36.081C226.824 37.319 224.788 37.9379 222.236 37.9379C220.38 37.9379 218.782 37.5769 217.39 36.8289V36.8289Z" fill="#FECC81"/>
<path d="M250.873 26.8997V37.4738H245.408V28.6792C245.408 27.2091 245.176 26.1517 244.712 25.4812C244.249 24.8106 243.475 24.4753 242.393 24.4753C241.31 24.4753 240.485 24.8106 239.918 25.507C239.351 26.2033 239.093 27.2091 239.093 28.5245V37.4738H233.655V12.6375H239.093V22.8505C239.583 21.8963 240.305 21.1741 241.259 20.6583C242.212 20.1425 243.321 19.8846 244.635 19.8846C248.811 19.8846 250.873 22.2058 250.873 26.8739V26.8997Z" fill="#FECC81"/>
<path d="M116.428 46.1653H122.073V70.6406H116.428V46.1653Z" fill="#FECC81"/>
<path d="M126.094 53.7993H131.429V56.2494C131.919 55.3209 132.641 54.5988 133.569 54.1088C134.497 53.6187 135.605 53.3608 136.894 53.3608C140.992 53.3608 143.054 55.6562 143.054 60.2469V70.6663H137.667V62.0007C137.667 60.5564 137.435 59.499 136.997 58.8542C136.533 58.2095 135.785 57.8742 134.703 57.8742C133.62 57.8742 132.821 58.2095 132.28 58.88C131.739 59.5506 131.455 60.5564 131.455 61.8459V70.6663H126.119V53.7993H126.094Z" fill="#FECC81"/>
<path d="M157.127 66.3851V70.6405C156.096 70.8211 154.911 70.9242 153.57 70.9242C151.869 70.9242 150.451 70.5116 149.317 69.7121C148.183 68.8868 147.616 67.2362 147.616 64.7345V58.0289H144.961V53.7993H147.616V48.7959H152.952V53.7993H156.766V58.0289H152.952V63.6255C152.952 64.7603 153.158 65.534 153.545 65.9209C153.931 66.3077 154.524 66.4883 155.297 66.4883C156.071 66.4883 156.663 66.4625 157.153 66.3851H157.127Z" fill="#FECC81"/>
<path d="M171.046 60.3759C171.046 59.2669 170.711 58.4158 170.092 57.8226C169.474 57.2294 168.623 56.9457 167.463 56.9457C166.303 56.9457 165.427 57.2552 164.757 57.8742C164.087 58.4932 163.752 59.3185 163.726 60.3759H171.02H171.046ZM176.175 63.7029H163.726C163.777 64.7861 164.138 65.6372 164.834 66.2304C165.53 66.8235 166.484 67.1072 167.67 67.1072C169.319 67.1072 170.376 66.6172 170.814 65.6114H176.047C175.789 67.262 174.887 68.6031 173.34 69.6089C171.794 70.6148 169.886 71.1306 167.67 71.1306C164.783 71.1306 162.514 70.3568 160.865 68.7836C159.215 67.2104 158.39 65.044 158.39 62.2328C158.39 60.4017 158.751 58.8284 159.499 57.4873C160.246 56.1462 161.303 55.1146 162.669 54.4183C164.035 53.6961 165.633 53.3608 167.463 53.3608C169.19 53.3608 170.711 53.6961 172.051 54.3667C173.392 55.0372 174.423 55.9915 175.17 57.2036C175.918 58.4158 176.279 59.8085 176.279 61.3559C176.279 62.0781 176.227 62.8518 176.15 63.7029H176.175Z" fill="#FECC81"/>
<path d="M178.959 53.7993H184.295V57.3326C184.578 56.1205 185.145 55.192 186.022 54.5215C186.898 53.8509 187.878 53.5156 188.934 53.5156C189.501 53.5156 189.965 53.5672 190.326 53.6446V58.6222C189.708 58.5448 189.166 58.519 188.728 58.519C187.259 58.519 186.151 58.9832 185.403 59.9375C184.656 60.8917 184.295 62.2844 184.295 64.1414V70.6406H178.959V53.7735V53.7993Z" fill="#FECC81"/>
<path d="M204.039 65.405C204.735 64.5539 205.096 63.4965 205.096 62.2327C205.096 60.969 204.735 59.9374 204.039 59.0863C203.343 58.2352 202.338 57.8225 201.075 57.8225C199.863 57.8225 198.884 58.2352 198.162 59.0347C197.44 59.86 197.054 60.9174 197.054 62.2069C197.054 63.4965 197.414 64.5797 198.162 65.405C198.884 66.2303 199.863 66.6429 201.075 66.6429C202.363 66.6429 203.343 66.2303 204.039 65.3792V65.405ZM195.275 69.9441C194.064 69.1704 193.161 68.113 192.543 66.7719C191.924 65.4308 191.589 63.9091 191.589 62.2069C191.589 60.5048 191.924 59.0089 192.569 57.6678C193.213 56.3267 194.167 55.2435 195.378 54.4955C196.59 53.7218 198.007 53.335 199.58 53.335C200.765 53.335 201.822 53.5929 202.75 54.1087C203.678 54.6245 204.374 55.3208 204.838 56.1977V53.7734H210.148V70.6405H204.838V68.2677C204.374 69.1188 203.652 69.7894 202.698 70.3052C201.719 70.821 200.662 71.1047 199.502 71.1047C197.878 71.1047 196.461 70.7178 195.249 69.9441H195.275Z" fill="#FECC81"/>
<path d="M216.978 69.9956C215.612 69.2735 214.555 68.2161 213.833 66.8749C213.112 65.5338 212.725 63.9864 212.725 62.2068C212.725 60.4273 213.086 58.8799 213.833 57.5387C214.555 56.1976 215.612 55.166 216.978 54.4181C218.344 53.6959 219.942 53.3091 221.747 53.3091C224.247 53.3091 226.257 53.9281 227.83 55.166C229.402 56.404 230.278 58.0803 230.484 60.1694H225.149C224.968 59.3699 224.608 58.8025 224.066 58.4156C223.525 58.0546 222.778 57.8482 221.798 57.8482C220.638 57.8482 219.736 58.2351 219.066 58.983C218.421 59.7309 218.086 60.8141 218.086 62.1811C218.086 63.548 218.421 64.6312 219.066 65.3791C219.71 66.127 220.638 66.5139 221.798 66.5139C222.778 66.5139 223.525 66.3333 224.066 65.9981C224.608 65.637 224.968 65.0954 225.149 64.3475H230.484C230.278 66.4107 229.402 68.0355 227.83 69.2477C226.257 70.4598 224.247 71.0788 221.747 71.0788C219.942 71.0788 218.344 70.7177 216.978 69.9698V69.9956Z" fill="#FECC81"/>
<path d="M243.63 66.3851V70.6405C242.599 70.8211 241.413 70.9242 240.073 70.9242C238.372 70.9242 236.954 70.5116 235.82 69.7121C234.686 68.8868 234.119 67.2362 234.119 64.7345V58.0289H231.464V53.7993H234.119V48.7959H239.454V53.7993H243.269V58.0289H239.454V63.6255C239.454 64.7603 239.66 65.534 240.047 65.9209C240.434 66.3077 241.027 66.4883 241.8 66.4883C242.573 66.4883 243.166 66.4625 243.656 66.3851H243.63Z" fill="#FECC81"/>
<path d="M246.027 53.7992H251.337V70.6663H246.027V53.7992ZM246.336 51.3749C245.718 50.7559 245.408 49.9822 245.408 49.0795C245.408 48.1768 245.718 47.3773 246.336 46.7326C246.955 46.1136 247.728 45.7783 248.708 45.7783C249.687 45.7783 250.46 46.0878 251.079 46.7326C251.698 47.3773 252.033 48.1511 252.033 49.0537C252.033 49.9564 251.723 50.7301 251.079 51.3491C250.435 51.9681 249.661 52.3033 248.708 52.3033C247.754 52.3033 246.955 51.9939 246.336 51.3491V51.3749Z" fill="#FECC81"/>
<path d="M253.141 53.7993H259.044L262.833 64.3993L266.596 53.7993H272.55L265.23 70.6406H260.41L253.141 53.7993Z" fill="#FECC81"/>
<path d="M284.716 60.3759C284.716 59.2669 284.381 58.4158 283.762 57.8226C283.144 57.2294 282.293 56.9457 281.133 56.9457C279.973 56.9457 279.097 57.2552 278.427 57.8742C277.757 58.4932 277.422 59.3185 277.396 60.3759H284.69H284.716ZM289.845 63.7029H277.396C277.447 64.7861 277.808 65.6372 278.504 66.2304C279.2 66.8235 280.154 67.1072 281.339 67.1072C282.989 67.1072 284.046 66.6172 284.484 65.6114H289.717C289.459 67.262 288.557 68.6031 287.01 69.6089C285.464 70.6148 283.556 71.1306 281.339 71.1306C278.453 71.1306 276.184 70.3568 274.535 68.7836C272.885 67.2104 272.06 65.044 272.06 62.2328C272.06 60.4017 272.421 58.8284 273.169 57.4873C273.916 56.1462 274.973 55.1146 276.339 54.4183C277.705 53.6961 279.303 53.3608 281.133 53.3608C282.86 53.3608 284.381 53.6961 285.721 54.3667C287.062 55.0372 288.093 55.9915 288.84 57.2036C289.562 58.4158 289.948 59.8085 289.948 61.3559C289.948 62.0781 289.897 62.8518 289.82 63.7029H289.845Z" fill="#FECC81"/>
</g>
<defs>
<clipPath id="clip0_802_57660">
<rect width="290" height="84" fill="white"/>
</clipPath>
</defs>
</svg>
