<svg id="Capa_1" data-name="Capa 1" xmlns="http://www.w3.org/2000/svg" viewBox="0 0 555.72 92.56"><defs><style>.cls-1,.cls-3{fill:#fff;}.cls-1,.cls-2,.cls-5{fill-rule:evenodd;}.cls-2,.cls-4{fill:#1b1c1a;}.cls-5,.cls-6{fill:#141313;}</style></defs><path class="cls-1" d="M341.31,45.25a8.41,8.41,0,0,0-3.54-1.38h0a6.75,6.75,0,0,0-3.26-1.09h-.12a6.72,6.72,0,0,0-3.27,1.1h0a8.46,8.46,0,0,0-3.54,1.38c-1.61,1.09-3.49,3.25-3.37,7.32.09,3.28,2.32,6.49,6.44,9.27A.78.78,0,0,0,331,62a.93.93,0,0,0,.23,0,9.57,9.57,0,0,1,3.31-.53,9.7,9.7,0,0,1,3.06.53.75.75,0,0,0,.57-.05A15.35,15.35,0,0,0,342.54,58a9.22,9.22,0,0,0,2.15-5.43C344.81,48.5,342.92,46.34,341.31,45.25Z" transform="translate(-6.42 -9.17)"/><polygon class="cls-1" points="175.17 27.42 172.79 30.91 211.08 30.91 209.21 27.42 175.17 27.42"/><path class="cls-2" d="M180.57,39.36h35.74l-1.1-2H182l-1.4,2Zm36.93,1.43H179.21a.74.74,0,0,1-.64-.38.73.73,0,0,1,.05-.74L181,36.18a.72.72,0,0,1,.59-.31h34a.74.74,0,0,1,.64.38l1.87,3.48a.72.72,0,0,1,0,.71A.71.71,0,0,1,217.5,40.79Z" transform="translate(-6.42 -9.17)"/><path class="cls-1" d="M165,97.45h66.18V45.15a108.41,108.41,0,0,0-66.18,0Z" transform="translate(-6.42 -9.17)"/><path class="cls-2" d="M165.71,97h64.81V45.67c-4.39-1.32-13.85-2-31.3-2.08-16.49-.13-28.62.63-33.51,2.08V97Zm65.5,1.38H165a.69.69,0,0,1-.69-.69V45.17a.7.7,0,0,1,.47-.65c4.75-1.62,17-2.44,34.42-2.31,18.25.15,27.88.84,32.2,2.31a.69.69,0,0,1,.46.65V97.69A.68.68,0,0,1,231.21,98.38Z" transform="translate(-6.42 -9.17)"/><path class="cls-2" d="M335.54,65.43a.71.71,0,0,1-.71.71h-.77a.71.71,0,0,1-.71-.71V63.76a4.42,4.42,0,0,1,1.15-.14,4.57,4.57,0,0,1,1,.14v1.67Zm.94-2.84a5.68,5.68,0,0,0-2-.37,5.92,5.92,0,0,0-2.12.37.7.7,0,0,0-.46.65v2.19a2.12,2.12,0,0,0,2.12,2.11h.77a2.1,2.1,0,0,0,2.11-2.11V63.24A.69.69,0,0,0,336.48,62.59Z" transform="translate(-6.42 -9.17)"/><path class="cls-2" d="M268.79,27.31a.7.7,0,0,1,.43.15,1.12,1.12,0,0,0,.68.23A1.13,1.13,0,0,0,271,26.57a1.12,1.12,0,0,0-1.12-1.12h-.12a.69.69,0,0,1-.69-.38,1.81,1.81,0,0,0-3-.33.68.68,0,0,1-.73.23,1.58,1.58,0,0,0-.38,0,1.39,1.39,0,0,0,0,2.77,1.45,1.45,0,0,0,.79-.25.7.7,0,0,1,.77,0,1.87,1.87,0,0,0,1,.27,1.93,1.93,0,0,0,.94-.27.72.72,0,0,1,.37-.11Zm1.11,1.78a2.49,2.49,0,0,1-1.14-.27,3.26,3.26,0,0,1-2.58,0A2.78,2.78,0,1,1,265,23.52a1.83,1.83,0,0,1,.33,0,3.2,3.2,0,0,1,4.81.51,2.52,2.52,0,0,1-.21,5Z" transform="translate(-6.42 -9.17)"/><path class="cls-2" d="M214.54,30.87a.72.72,0,0,1,.4.12,1.3,1.3,0,0,0,.78.25,1.39,1.39,0,1,0,0-2.77,1.19,1.19,0,0,0-.37.06.71.71,0,0,1-.73-.23,1.81,1.81,0,0,0-3,.33.69.69,0,0,1-.69.38h-.12a1.12,1.12,0,1,0,.68,2,.71.71,0,0,1,.8,0,1.74,1.74,0,0,0,.94.27,1.78,1.78,0,0,0,.95-.27.69.69,0,0,1,.37-.1Zm1.18,1.77a2.74,2.74,0,0,1-1.2-.27,3.22,3.22,0,0,1-2.58,0,2.49,2.49,0,0,1-1.14.27,2.52,2.52,0,0,1-.21-5,3.19,3.19,0,0,1,2.63-1.37,3.13,3.13,0,0,1,2.18.85l.32,0a2.79,2.79,0,1,1,0,5.57Z" transform="translate(-6.42 -9.17)"/><path class="cls-1" d="M167.74,54.72h0Z" transform="translate(-6.42 -9.17)"/><path class="cls-2" d="M228,55.23H167.74a.52.52,0,0,1,0-1H228a.52.52,0,0,1,0,1Z" transform="translate(-6.42 -9.17)"/><path class="cls-1" d="M167.74,62.59h0Z" transform="translate(-6.42 -9.17)"/><path class="cls-2" d="M228,63.1H167.74a.51.51,0,0,1,0-1H228a.51.51,0,0,1,0,1Z" transform="translate(-6.42 -9.17)"/><path class="cls-1" d="M167.74,69.6h0Z" transform="translate(-6.42 -9.17)"/><path class="cls-2" d="M228,70.11H167.74a.51.51,0,1,1,0-1H228a.51.51,0,1,1,0,1Z" transform="translate(-6.42 -9.17)"/><path class="cls-1" d="M167.74,77.18h0Z" transform="translate(-6.42 -9.17)"/><path class="cls-2" d="M228,77.69H167.74a.52.52,0,0,1,0-1H228a.52.52,0,0,1,0,1Z" transform="translate(-6.42 -9.17)"/><path class="cls-2" d="M333.27,98.25a.71.71,0,0,1-.7-.71V83.92a9,9,0,0,1,9-9,.7.7,0,0,1,0,1.4A7.56,7.56,0,0,0,334,83.92V97.54A.71.71,0,0,1,333.27,98.25Z" transform="translate(-6.42 -9.17)"/><path class="cls-2" d="M331.29,98.25a.71.71,0,0,1-.7-.71V83.92A7.56,7.56,0,0,0,323,76.35a.7.7,0,0,1,0-1.4,9,9,0,0,1,9,9V97.54A.7.7,0,0,1,331.29,98.25Z" transform="translate(-6.42 -9.17)"/><path class="cls-2" d="M337.89,80.17a.77.77,0,1,1-1.53,0,.77.77,0,0,1,1.53,0Z" transform="translate(-6.42 -9.17)"/><path class="cls-1" d="M320.72,74.89a.77.77,0,0,0-.77.76.78.78,0,0,0,.77.77.77.77,0,0,0,0-1.53Zm18.46,4.49a8.33,8.33,0,0,1,4.06-.64.7.7,0,0,0,.15-1.39,9.65,9.65,0,0,0-4.74.73.7.7,0,0,0,.26,1.35.86.86,0,0,0,.27-.05Zm-13.3.05a.85.85,0,0,1-.26-.05,8.35,8.35,0,0,0-4.06-.64.7.7,0,0,1-.77-.62.69.69,0,0,1,.61-.77,9.68,9.68,0,0,1,4.75.73.69.69,0,0,1,.38.91A.68.68,0,0,1,325.88,79.43Z" transform="translate(-6.42 -9.17)"/><rect class="cls-3" x="192.36" y="72.92" width="5.83" height="3.11"/><path class="cls-2" d="M199.47,84.51h4.45V82.78h-4.45v1.73Zm5.12,1.38H198.8a.71.71,0,0,1-.71-.71V82.11a.71.71,0,0,1,.71-.71h5.79a.7.7,0,0,1,.7.71v3.07A.7.7,0,0,1,204.59,85.89Z" transform="translate(-6.42 -9.17)"/><rect class="cls-3" x="186.34" y="72.92" width="5.83" height="3.11"/><path class="cls-2" d="M193.45,84.51h4.45V82.78h-4.45v1.73Zm5.12,1.38h-5.79a.7.7,0,0,1-.7-.71V82.11a.7.7,0,0,1,.7-.71h5.79a.71.71,0,0,1,.71.71v3.07A.71.71,0,0,1,198.57,85.89Z" transform="translate(-6.42 -9.17)"/><rect class="cls-3" x="180.33" y="72.92" width="5.83" height="3.11"/><path class="cls-2" d="M187.43,84.51h4.46V82.78h-4.46v1.73Zm5.13,1.38h-5.8a.71.71,0,0,1-.7-.71V82.11a.71.71,0,0,1,.7-.71h5.8a.7.7,0,0,1,.7.71v3.07A.7.7,0,0,1,192.56,85.89Z" transform="translate(-6.42 -9.17)"/><rect class="cls-3" x="174.31" y="72.92" width="5.83" height="3.11"/><path class="cls-2" d="M181.42,84.51h4.45V82.78h-4.45v1.73Zm5.12,1.38h-5.79a.7.7,0,0,1-.7-.71V82.11a.7.7,0,0,1,.7-.71h5.79a.7.7,0,0,1,.7.71v3.07A.7.7,0,0,1,186.54,85.89Z" transform="translate(-6.42 -9.17)"/><rect class="cls-3" x="168.58" y="72.92" width="5.83" height="3.11"/><path class="cls-2" d="M175.69,84.51h4.45V82.78h-4.45v1.73Zm5.12,1.38H175a.7.7,0,0,1-.7-.71V82.11a.7.7,0,0,1,.7-.71h5.79a.7.7,0,0,1,.7.71v3.07A.7.7,0,0,1,180.81,85.89Z" transform="translate(-6.42 -9.17)"/><path class="cls-2" d="M350.67,91.38h-5.38a.7.7,0,0,1,0-1.4h5.38a.7.7,0,0,1,0,1.4Z" transform="translate(-6.42 -9.17)"/><path class="cls-2" d="M303.33,94.22h-3.22a.71.71,0,0,1,0-1.41h3.22a.71.71,0,0,1,0,1.41Z" transform="translate(-6.42 -9.17)"/><path class="cls-1" d="M104.45,97.65h60.23V17.85a61.45,61.45,0,0,0-60.23,0Z" transform="translate(-6.42 -9.17)"/><path class="cls-2" d="M105.14,97H164V18.25a60.13,60.13,0,0,0-28.62-7.6,60.94,60.94,0,0,0-30.23,7.6V97Zm59.54,1.37H104.45a.69.69,0,0,1-.69-.69V17.85a.69.69,0,0,1,.35-.59,62.24,62.24,0,0,1,31.28-8,61.32,61.32,0,0,1,29.63,8,.68.68,0,0,1,.34.59v79.8A.69.69,0,0,1,164.68,98.34Z" transform="translate(-6.42 -9.17)"/><polygon class="cls-1" points="158.25 9.05 98.03 9.05 101.52 6.85 114.22 2.23 126.1 0.69 135.74 1.1 146.09 3.46 155.34 7.13 158.25 9.05"/><path class="cls-2" d="M106.82,17.54h55.57l-.94-.63-9.14-3.62L142.07,11l-9.52-.41L120.8,12.07l-12.56,4.57-1.42.9Zm57.86,1.37H104.45a.69.69,0,0,1-.66-.5.71.71,0,0,1,.29-.77l3.49-2.2a.31.31,0,0,1,.13-.06l12.7-4.63.15,0,11.89-1.55h.11l9.64.42h.12L152.67,12l.1,0L162,15.66l.12.07,2.91,1.92a.69.69,0,0,1-.37,1.26Z" transform="translate(-6.42 -9.17)"/><path class="cls-2" d="M105.14,97H164V18.25a60.13,60.13,0,0,0-28.62-7.6,60.94,60.94,0,0,0-30.23,7.6V97Zm59.54,1.37H104.45a.69.69,0,0,1-.69-.69V17.85a.69.69,0,0,1,.35-.59,62.24,62.24,0,0,1,31.28-8,61.32,61.32,0,0,1,29.63,8,.68.68,0,0,1,.34.59v79.8A.69.69,0,0,1,164.68,98.34Z" transform="translate(-6.42 -9.17)"/><path class="cls-1" d="M56.53,95.82h.3a5.2,5.2,0,0,0,2.87-.73c1.57-.87,2.76-4.73,2.76-4.73l-.07-4.64-4.92-3.45-6,1.48-.12,1.42v4.51a9.47,9.47,0,0,1-.5,1.73l.8,1.9,2.62,1.51Z" transform="translate(-6.42 -9.17)"/><path class="cls-1" d="M47.18,94.06l1.63-2,.91-10.66-.11-8.82-2.92-4.4-4.38-.88-4.12,1.89-1.48,3.29L36,81.94,36.32,91,39,94.6,43.55,96a8.49,8.49,0,0,0,3.32-1.18l-.29-.63Z" transform="translate(-6.42 -9.17)"/><path class="cls-1" d="M34.66,90.88a15.47,15.47,0,0,1-.43-3.19c0-1.48.11-8.26.11-8.26l-1.77-2.34s-3.76-.6-3.89-.6S25,77.74,25,77.74L22.88,80.8l-.65,7.74L24,93.17,29.82,96a8,8,0,0,0,3.24-1.13,3.5,3.5,0,0,0,1.28-2.24Z" transform="translate(-6.42 -9.17)"/><path class="cls-1" d="M289.13,87l2.09-1V83.9l-4.11-3.74,2.05-.59.52-1.15-5-4.81-4.81,4.7.28,1.49L282,80l-2.15,3.35,0,3.35v2.66s-.05,2.53-1.23,3.64,3.05,1,3.05,1l2.35-.86h8.39l.29-1.44Z" transform="translate(-6.42 -9.17)"/><path class="cls-1" d="M278.32,79.53l-.69,11-3.42,4.91a9.4,9.4,0,0,1-3.62.56c-1.92-.13-3.53-2.26-3.53-2.26l-.75-1.25a23.54,23.54,0,0,1-1.59-4.5c-.1-1.22,0-5.64,0-5.64v-11l4.67-4.1,4.76.86,3.48,2.52Z" transform="translate(-6.42 -9.17)"/><polygon class="cls-1" points="249.69 64.44 255 69.42 254.33 70.4 252.35 70.75 256.38 75.99 256.03 77.17 253.43 77.57 257.09 81.79 257.09 83.52 254.97 85.29 245.31 85.29 242.91 84.82 241.45 82.73 245.66 77.91 243.18 77.17 242.79 75.64 247.2 70.91 244.96 70.44 244.64 68.74 249.69 64.44"/><rect class="cls-3" x="61.76" y="51.79" width="19.53" height="36.95"/><path class="cls-2" d="M68.89,97.19H87V61.67H68.89V97.19Zm18.8,1.43H68.19a.73.73,0,0,1-.73-.73V61a.73.73,0,0,1,.73-.73h19.5a.73.73,0,0,1,.73.73V97.89A.73.73,0,0,1,87.69,98.62Z" transform="translate(-6.42 -9.17)"/><rect class="cls-3" x="149.5" y="12.8" width="2.92" height="5.98"/><rect class="cls-3" x="142.07" y="12.8" width="2.92" height="5.98"/><rect class="cls-3" x="134.64" y="12.8" width="2.92" height="5.98"/><rect class="cls-3" x="127.21" y="12.8" width="2.92" height="5.98"/><rect class="cls-3" x="119.78" y="12.8" width="2.92" height="5.98"/><rect class="cls-3" x="112.35" y="12.8" width="2.92" height="5.98"/><rect class="cls-3" x="104.92" y="12.8" width="2.92" height="5.98"/><rect class="cls-3" x="149.5" y="24.96" width="2.92" height="5.98"/><rect class="cls-3" x="142.07" y="24.96" width="2.92" height="5.98"/><rect class="cls-3" x="134.64" y="24.96" width="2.92" height="5.98"/><rect class="cls-3" x="127.21" y="24.96" width="2.92" height="5.98"/><rect class="cls-3" x="119.78" y="24.96" width="2.92" height="5.98"/><rect class="cls-3" x="112.35" y="24.96" width="2.92" height="5.98"/><rect class="cls-3" x="104.92" y="24.96" width="2.92" height="5.98"/><rect class="cls-3" x="149.5" y="37.13" width="2.92" height="5.98"/><rect class="cls-3" x="142.07" y="37.13" width="2.92" height="5.98"/><rect class="cls-3" x="134.64" y="37.13" width="2.92" height="5.98"/><rect class="cls-3" x="127.21" y="37.13" width="2.92" height="5.98"/><rect class="cls-3" x="119.78" y="37.13" width="2.92" height="5.98"/><rect class="cls-3" x="112.35" y="37.13" width="2.92" height="5.98"/><rect class="cls-3" x="104.92" y="37.13" width="2.92" height="5.98"/><rect class="cls-3" x="149.5" y="49.29" width="2.92" height="5.98"/><rect class="cls-3" x="142.07" y="49.29" width="2.92" height="5.98"/><rect class="cls-3" x="134.64" y="49.29" width="2.92" height="5.98"/><rect class="cls-3" x="127.21" y="49.29" width="2.92" height="5.98"/><rect class="cls-3" x="119.78" y="49.29" width="2.92" height="5.98"/><rect class="cls-3" x="112.35" y="49.29" width="2.92" height="5.98"/><rect class="cls-3" x="104.92" y="49.29" width="2.92" height="5.98"/><rect class="cls-3" x="149.5" y="61.43" width="2.92" height="5.98"/><rect class="cls-3" x="142.07" y="61.43" width="2.92" height="5.98"/><rect class="cls-3" x="134.64" y="61.43" width="2.92" height="5.98"/><rect class="cls-3" x="127.21" y="61.43" width="2.92" height="5.98"/><rect class="cls-3" x="119.78" y="61.43" width="2.92" height="5.98"/><rect class="cls-3" x="112.35" y="61.43" width="2.92" height="5.98"/><rect class="cls-3" x="104.92" y="61.43" width="2.92" height="5.98"/><rect class="cls-3" x="213.16" y="63.09" width="5.98" height="2.92"/><path class="cls-2" d="M220.09,74.67h5v-1.9h-5v1.9Zm5.47,1h-6a.51.51,0,0,1-.51-.51V72.26a.51.51,0,0,1,.51-.51h6a.51.51,0,0,1,.51.51v2.92A.51.51,0,0,1,225.56,75.69Z" transform="translate(-6.42 -9.17)"/><rect class="cls-3" x="213.16" y="55.66" width="5.98" height="2.92"/><path class="cls-2" d="M220.09,67.24h5v-1.9h-5v1.9Zm5.47,1h-6a.51.51,0,0,1-.51-.51V64.83a.51.51,0,0,1,.51-.52h6a.51.51,0,0,1,.51.52v2.92A.51.51,0,0,1,225.56,68.26Z" transform="translate(-6.42 -9.17)"/><rect class="cls-3" x="213.16" y="48.23" width="5.98" height="2.92"/><path class="cls-2" d="M220.09,59.81h5v-1.9h-5v1.9Zm5.47,1h-6a.51.51,0,0,1-.51-.51V57.4a.51.51,0,0,1,.51-.51h6a.51.51,0,0,1,.51.51v2.92A.51.51,0,0,1,225.56,60.83Z" transform="translate(-6.42 -9.17)"/><rect class="cls-3" x="213.16" y="40.8" width="5.98" height="2.92"/><path class="cls-2" d="M220.09,52.38h5v-1.9h-5v1.9Zm5.47,1h-6a.51.51,0,0,1-.51-.51V50a.51.51,0,0,1,.51-.51h6a.51.51,0,0,1,.51.52v2.92A.51.51,0,0,1,225.56,53.4Z" transform="translate(-6.42 -9.17)"/><rect class="cls-3" x="200.99" y="63.09" width="5.98" height="2.92"/><path class="cls-2" d="M207.93,74.67h4.95v-1.9h-4.95v1.9Zm5.47,1h-6a.51.51,0,0,1-.52-.51V72.26a.51.51,0,0,1,.52-.51h6a.51.51,0,0,1,.51.51v2.92A.51.51,0,0,1,213.4,75.69Z" transform="translate(-6.42 -9.17)"/><rect class="cls-3" x="200.99" y="55.66" width="5.98" height="2.92"/><path class="cls-2" d="M207.93,67.24h4.95v-1.9h-4.95v1.9Zm5.47,1h-6a.51.51,0,0,1-.52-.51V64.83a.52.52,0,0,1,.52-.52h6a.51.51,0,0,1,.51.52v2.92A.51.51,0,0,1,213.4,68.26Z" transform="translate(-6.42 -9.17)"/><rect class="cls-3" x="200.99" y="48.23" width="5.98" height="2.92"/><path class="cls-2" d="M207.93,59.81h4.95v-1.9h-4.95v1.9Zm5.47,1h-6a.51.51,0,0,1-.52-.51V57.4a.51.51,0,0,1,.52-.51h6a.51.51,0,0,1,.51.51v2.92A.51.51,0,0,1,213.4,60.83Z" transform="translate(-6.42 -9.17)"/><rect class="cls-3" x="200.99" y="40.8" width="5.98" height="2.92"/><path class="cls-2" d="M207.93,52.38h4.95v-1.9h-4.95v1.9Zm5.47,1h-6a.51.51,0,0,1-.52-.51V50a.51.51,0,0,1,.52-.51h6a.51.51,0,0,1,.51.52v2.92A.51.51,0,0,1,213.4,53.4Z" transform="translate(-6.42 -9.17)"/><rect class="cls-3" x="188.83" y="63.09" width="5.98" height="2.92"/><path class="cls-2" d="M195.76,74.67h5v-1.9h-5v1.9Zm5.47,1h-6a.51.51,0,0,1-.51-.51V72.26a.51.51,0,0,1,.51-.51h6a.51.51,0,0,1,.51.51v2.92A.51.51,0,0,1,201.23,75.69Z" transform="translate(-6.42 -9.17)"/><rect class="cls-3" x="188.83" y="55.66" width="5.98" height="2.92"/><path class="cls-2" d="M195.76,67.24h5v-1.9h-5v1.9Zm5.47,1h-6a.51.51,0,0,1-.51-.51V64.83a.51.51,0,0,1,.51-.52h6a.51.51,0,0,1,.51.52v2.92A.51.51,0,0,1,201.23,68.26Z" transform="translate(-6.42 -9.17)"/><rect class="cls-3" x="188.83" y="48.23" width="5.98" height="2.92"/><path class="cls-2" d="M195.76,59.81h5v-1.9h-5v1.9Zm5.47,1h-6a.51.51,0,0,1-.51-.51V57.4a.51.51,0,0,1,.51-.51h6a.51.51,0,0,1,.51.51v2.92A.51.51,0,0,1,201.23,60.83Z" transform="translate(-6.42 -9.17)"/><rect class="cls-3" x="188.83" y="40.8" width="5.98" height="2.92"/><path class="cls-2" d="M195.76,52.38h5v-1.9h-5v1.9Zm5.47,1h-6a.51.51,0,0,1-.51-.51V50a.51.51,0,0,1,.51-.51h6a.51.51,0,0,1,.51.52v2.92A.51.51,0,0,1,201.23,53.4Z" transform="translate(-6.42 -9.17)"/><rect class="cls-3" x="176.67" y="63.09" width="5.98" height="2.92"/><path class="cls-2" d="M183.6,74.67h5v-1.9h-5v1.9Zm5.47,1h-6a.51.51,0,0,1-.52-.51V72.26a.51.51,0,0,1,.52-.51h6a.51.51,0,0,1,.51.51v2.92A.51.51,0,0,1,189.07,75.69Z" transform="translate(-6.42 -9.17)"/><rect class="cls-3" x="176.67" y="55.66" width="5.98" height="2.92"/><path class="cls-2" d="M183.6,67.24h5v-1.9h-5v1.9Zm5.47,1h-6a.51.51,0,0,1-.52-.51V64.83a.52.52,0,0,1,.52-.52h6a.51.51,0,0,1,.51.52v2.92A.51.51,0,0,1,189.07,68.26Z" transform="translate(-6.42 -9.17)"/><rect class="cls-3" x="176.67" y="48.23" width="5.98" height="2.92"/><path class="cls-2" d="M183.6,59.81h5v-1.9h-5v1.9Zm5.47,1h-6a.51.51,0,0,1-.52-.51V57.4a.51.51,0,0,1,.52-.51h6a.51.51,0,0,1,.51.51v2.92A.51.51,0,0,1,189.07,60.83Z" transform="translate(-6.42 -9.17)"/><rect class="cls-3" x="176.67" y="40.8" width="5.98" height="2.92"/><path class="cls-2" d="M183.6,52.38h5v-1.9h-5v1.9Zm5.47,1h-6a.51.51,0,0,1-.52-.51V50a.51.51,0,0,1,.52-.51h6a.51.51,0,0,1,.51.52v2.92A.51.51,0,0,1,189.07,53.4Z" transform="translate(-6.42 -9.17)"/><rect class="cls-3" x="164.52" y="63.09" width="5.98" height="2.92"/><path class="cls-2" d="M171.46,74.67h4.95v-1.9h-4.95v1.9Zm5.46,1h-6a.51.51,0,0,1-.52-.51V72.26a.51.51,0,0,1,.52-.51h6a.51.51,0,0,1,.52.51v2.92A.51.51,0,0,1,176.92,75.69Z" transform="translate(-6.42 -9.17)"/><rect class="cls-3" x="164.52" y="55.66" width="5.98" height="2.92"/><path class="cls-2" d="M171.46,67.24h4.95v-1.9h-4.95v1.9Zm5.46,1h-6a.51.51,0,0,1-.52-.51V64.83a.52.52,0,0,1,.52-.52h6a.52.52,0,0,1,.52.52v2.92A.51.51,0,0,1,176.92,68.26Z" transform="translate(-6.42 -9.17)"/><rect class="cls-3" x="164.52" y="48.23" width="5.98" height="2.92"/><path class="cls-2" d="M171.46,59.81h4.95v-1.9h-4.95v1.9Zm5.46,1h-6a.51.51,0,0,1-.52-.51V57.4a.51.51,0,0,1,.52-.51h6a.51.51,0,0,1,.52.51v2.92A.51.51,0,0,1,176.92,60.83Z" transform="translate(-6.42 -9.17)"/><rect class="cls-3" x="164.52" y="40.8" width="5.98" height="2.92"/><path class="cls-2" d="M171.46,52.38h4.95v-1.9h-4.95v1.9Zm5.46,1h-6a.51.51,0,0,1-.52-.51V50a.51.51,0,0,1,.52-.51h6a.52.52,0,0,1,.52.52v2.92A.51.51,0,0,1,176.92,53.4Z" transform="translate(-6.42 -9.17)"/><path class="cls-2" d="M155,79.71h4.8a.69.69,0,0,0,.69-.69.68.68,0,0,0-.69-.68H155a.68.68,0,0,0-.69.68A.69.69,0,0,0,155,79.71Z" transform="translate(-6.42 -9.17)"/><path class="cls-2" d="M156.61,75.89h1.54v-4.6h-1.54v4.6Zm2.23,1.37h-2.92a.68.68,0,0,1-.69-.68v-6a.69.69,0,0,1,.69-.69h2.92a.69.69,0,0,1,.69.69v6A.68.68,0,0,1,158.84,77.26Z" transform="translate(-6.42 -9.17)"/><path class="cls-2" d="M147.55,79.71h4.8A.69.69,0,0,0,153,79a.68.68,0,0,0-.69-.68h-4.8a.68.68,0,0,0-.69.68A.69.69,0,0,0,147.55,79.71Z" transform="translate(-6.42 -9.17)"/><path class="cls-2" d="M149.18,75.89h1.54v-4.6h-1.54v4.6Zm2.23,1.37h-2.92a.68.68,0,0,1-.69-.68v-6a.69.69,0,0,1,.69-.69h2.92a.69.69,0,0,1,.69.69v6A.68.68,0,0,1,151.41,77.26Z" transform="translate(-6.42 -9.17)"/><path class="cls-2" d="M140.12,79.71h4.8a.69.69,0,0,0,.69-.69.68.68,0,0,0-.69-.68h-4.8a.68.68,0,0,0-.69.68A.69.69,0,0,0,140.12,79.71Z" transform="translate(-6.42 -9.17)"/><path class="cls-2" d="M141.75,75.89h1.54v-4.6h-1.54v4.6ZM144,77.26h-2.92a.68.68,0,0,1-.69-.68v-6a.69.69,0,0,1,.69-.69H144a.69.69,0,0,1,.69.69v6A.68.68,0,0,1,144,77.26Z" transform="translate(-6.42 -9.17)"/><path class="cls-2" d="M132.69,79.71h4.8a.69.69,0,0,0,.69-.69.68.68,0,0,0-.69-.68h-4.8A.68.68,0,0,0,132,79,.69.69,0,0,0,132.69,79.71Z" transform="translate(-6.42 -9.17)"/><path class="cls-2" d="M134.32,75.89h1.54v-4.6h-1.54v4.6Zm2.23,1.37h-2.92a.68.68,0,0,1-.69-.68v-6a.69.69,0,0,1,.69-.69h2.92a.69.69,0,0,1,.69.69v6A.68.68,0,0,1,136.55,77.26Z" transform="translate(-6.42 -9.17)"/><path class="cls-2" d="M125.26,79.71h4.8a.69.69,0,0,0,.69-.69.68.68,0,0,0-.69-.68h-4.8a.68.68,0,0,0-.69.68A.69.69,0,0,0,125.26,79.71Z" transform="translate(-6.42 -9.17)"/><path class="cls-2" d="M126.89,75.89h1.54v-4.6h-1.54v4.6Zm2.23,1.37H126.2a.68.68,0,0,1-.69-.68v-6a.69.69,0,0,1,.69-.69h2.92a.69.69,0,0,1,.69.69v6A.68.68,0,0,1,129.12,77.26Z" transform="translate(-6.42 -9.17)"/><path class="cls-2" d="M117.83,79.71h4.8a.69.69,0,0,0,.69-.69.68.68,0,0,0-.69-.68h-4.8a.68.68,0,0,0-.69.68A.69.69,0,0,0,117.83,79.71Z" transform="translate(-6.42 -9.17)"/><path class="cls-2" d="M119.46,75.89H121v-4.6h-1.54v4.6Zm2.23,1.37h-2.92a.68.68,0,0,1-.69-.68v-6a.69.69,0,0,1,.69-.69h2.92a.69.69,0,0,1,.69.69v6A.68.68,0,0,1,121.69,77.26Z" transform="translate(-6.42 -9.17)"/><path class="cls-2" d="M110.4,79.71h4.8a.69.69,0,0,0,.69-.69.68.68,0,0,0-.69-.68h-4.8a.68.68,0,0,0-.69.68A.69.69,0,0,0,110.4,79.71Z" transform="translate(-6.42 -9.17)"/><path class="cls-2" d="M112,75.89h1.54v-4.6H112v4.6Zm2.23,1.37h-2.92a.68.68,0,0,1-.69-.68v-6a.69.69,0,0,1,.69-.69h2.92a.69.69,0,0,1,.69.69v6A.68.68,0,0,1,114.26,77.26Z" transform="translate(-6.42 -9.17)"/><path class="cls-2" d="M155,31.07h4.8a.68.68,0,0,0,.69-.68.69.69,0,0,0-.69-.69H155a.69.69,0,0,0-.69.69A.68.68,0,0,0,155,31.07Z" transform="translate(-6.42 -9.17)"/><path class="cls-2" d="M156.61,27.26h1.54V22.65h-1.54v4.61Zm2.23,1.37h-2.92a.69.69,0,0,1-.69-.69V22a.68.68,0,0,1,.69-.68h2.92a.69.69,0,0,1,.69.68v6A.69.69,0,0,1,158.84,28.63Z" transform="translate(-6.42 -9.17)"/><path class="cls-2" d="M147.55,31.07h4.8a.68.68,0,0,0,.69-.68.69.69,0,0,0-.69-.69h-4.8a.69.69,0,0,0-.69.69A.68.68,0,0,0,147.55,31.07Z" transform="translate(-6.42 -9.17)"/><path class="cls-2" d="M149.18,27.26h1.54V22.65h-1.54v4.61Zm2.23,1.37h-2.92a.69.69,0,0,1-.69-.69V22a.68.68,0,0,1,.69-.68h2.92a.69.69,0,0,1,.69.68v6A.69.69,0,0,1,151.41,28.63Z" transform="translate(-6.42 -9.17)"/><path class="cls-2" d="M140.12,31.07h4.8a.68.68,0,0,0,.69-.68.69.69,0,0,0-.69-.69h-4.8a.69.69,0,0,0-.69.69A.68.68,0,0,0,140.12,31.07Z" transform="translate(-6.42 -9.17)"/><path class="cls-2" d="M141.75,27.26h1.54V22.65h-1.54v4.61ZM144,28.63h-2.92a.69.69,0,0,1-.69-.69V22a.68.68,0,0,1,.69-.68H144a.69.69,0,0,1,.69.68v6A.69.69,0,0,1,144,28.63Z" transform="translate(-6.42 -9.17)"/><path class="cls-2" d="M132.69,31.07h4.8a.68.68,0,0,0,.69-.68.69.69,0,0,0-.69-.69h-4.8a.69.69,0,0,0-.69.69A.68.68,0,0,0,132.69,31.07Z" transform="translate(-6.42 -9.17)"/><path class="cls-2" d="M134.32,27.26h1.54V22.65h-1.54v4.61Zm2.23,1.37h-2.92a.69.69,0,0,1-.69-.69V22a.68.68,0,0,1,.69-.68h2.92a.69.69,0,0,1,.69.68v6A.69.69,0,0,1,136.55,28.63Z" transform="translate(-6.42 -9.17)"/><path class="cls-2" d="M125.26,31.07h4.8a.68.68,0,0,0,.69-.68.69.69,0,0,0-.69-.69h-4.8a.69.69,0,0,0-.69.69A.68.68,0,0,0,125.26,31.07Z" transform="translate(-6.42 -9.17)"/><path class="cls-2" d="M126.89,27.26h1.54V22.65h-1.54v4.61Zm2.23,1.37H126.2a.69.69,0,0,1-.69-.69V22a.68.68,0,0,1,.69-.68h2.92a.69.69,0,0,1,.69.68v6A.69.69,0,0,1,129.12,28.63Z" transform="translate(-6.42 -9.17)"/><path class="cls-2" d="M117.83,31.07h4.8a.68.68,0,0,0,.69-.68.69.69,0,0,0-.69-.69h-4.8a.69.69,0,0,0-.69.69A.68.68,0,0,0,117.83,31.07Z" transform="translate(-6.42 -9.17)"/><path class="cls-2" d="M119.46,27.26H121V22.65h-1.54v4.61Zm2.23,1.37h-2.92a.69.69,0,0,1-.69-.69V22a.68.68,0,0,1,.69-.68h2.92a.69.69,0,0,1,.69.68v6A.69.69,0,0,1,121.69,28.63Z" transform="translate(-6.42 -9.17)"/><path class="cls-2" d="M110.4,31.07h4.8a.68.68,0,0,0,.69-.68.69.69,0,0,0-.69-.69h-4.8a.69.69,0,0,0-.69.69A.68.68,0,0,0,110.4,31.07Z" transform="translate(-6.42 -9.17)"/><path class="cls-2" d="M112,27.26h1.54V22.65H112v4.61Zm2.23,1.37h-2.92a.69.69,0,0,1-.69-.69V22a.68.68,0,0,1,.69-.68h2.92A.69.69,0,0,1,115,22v6A.69.69,0,0,1,114.26,28.63Z" transform="translate(-6.42 -9.17)"/><path class="cls-2" d="M155,43.24h4.8a.69.69,0,0,0,.69-.69.68.68,0,0,0-.69-.68H155a.68.68,0,0,0-.69.68A.69.69,0,0,0,155,43.24Z" transform="translate(-6.42 -9.17)"/><path class="cls-2" d="M156.61,39.42h1.54v-4.6h-1.54v4.6Zm2.23,1.37h-2.92a.68.68,0,0,1-.69-.68v-6a.69.69,0,0,1,.69-.69h2.92a.69.69,0,0,1,.69.69v6A.68.68,0,0,1,158.84,40.79Z" transform="translate(-6.42 -9.17)"/><path class="cls-2" d="M147.55,43.24h4.8a.69.69,0,0,0,.69-.69.68.68,0,0,0-.69-.68h-4.8a.68.68,0,0,0-.69.68A.69.69,0,0,0,147.55,43.24Z" transform="translate(-6.42 -9.17)"/><path class="cls-2" d="M149.18,39.42h1.54v-4.6h-1.54v4.6Zm2.23,1.37h-2.92a.68.68,0,0,1-.69-.68v-6a.69.69,0,0,1,.69-.69h2.92a.69.69,0,0,1,.69.69v6A.68.68,0,0,1,151.41,40.79Z" transform="translate(-6.42 -9.17)"/><path class="cls-2" d="M140.12,43.24h4.8a.69.69,0,0,0,.69-.69.68.68,0,0,0-.69-.68h-4.8a.68.68,0,0,0-.69.68A.69.69,0,0,0,140.12,43.24Z" transform="translate(-6.42 -9.17)"/><path class="cls-2" d="M141.75,39.42h1.54v-4.6h-1.54v4.6ZM144,40.79h-2.92a.68.68,0,0,1-.69-.68v-6a.69.69,0,0,1,.69-.69H144a.69.69,0,0,1,.69.69v6A.68.68,0,0,1,144,40.79Z" transform="translate(-6.42 -9.17)"/><path class="cls-2" d="M132.69,43.24h4.8a.69.69,0,0,0,.69-.69.68.68,0,0,0-.69-.68h-4.8a.68.68,0,0,0-.69.68A.69.69,0,0,0,132.69,43.24Z" transform="translate(-6.42 -9.17)"/><path class="cls-2" d="M134.32,39.42h1.54v-4.6h-1.54v4.6Zm2.23,1.37h-2.92a.68.68,0,0,1-.69-.68v-6a.69.69,0,0,1,.69-.69h2.92a.69.69,0,0,1,.69.69v6A.68.68,0,0,1,136.55,40.79Z" transform="translate(-6.42 -9.17)"/><path class="cls-2" d="M125.26,43.24h4.8a.69.69,0,0,0,.69-.69.68.68,0,0,0-.69-.68h-4.8a.68.68,0,0,0-.69.68A.69.69,0,0,0,125.26,43.24Z" transform="translate(-6.42 -9.17)"/><path class="cls-2" d="M126.89,39.42h1.54v-4.6h-1.54v4.6Zm2.23,1.37H126.2a.68.68,0,0,1-.69-.68v-6a.69.69,0,0,1,.69-.69h2.92a.69.69,0,0,1,.69.69v6A.68.68,0,0,1,129.12,40.79Z" transform="translate(-6.42 -9.17)"/><path class="cls-2" d="M117.83,43.24h4.8a.69.69,0,0,0,.69-.69.68.68,0,0,0-.69-.68h-4.8a.68.68,0,0,0-.69.68A.69.69,0,0,0,117.83,43.24Z" transform="translate(-6.42 -9.17)"/><path class="cls-2" d="M119.46,39.42H121v-4.6h-1.54v4.6Zm2.23,1.37h-2.92a.68.68,0,0,1-.69-.68v-6a.69.69,0,0,1,.69-.69h2.92a.69.69,0,0,1,.69.69v6A.68.68,0,0,1,121.69,40.79Z" transform="translate(-6.42 -9.17)"/><path class="cls-2" d="M110.4,43.24h4.8a.69.69,0,0,0,.69-.69.68.68,0,0,0-.69-.68h-4.8a.68.68,0,0,0-.69.68A.69.69,0,0,0,110.4,43.24Z" transform="translate(-6.42 -9.17)"/><path class="cls-2" d="M112,39.42h1.54v-4.6H112v4.6Zm2.23,1.37h-2.92a.68.68,0,0,1-.69-.68v-6a.69.69,0,0,1,.69-.69h2.92a.69.69,0,0,1,.69.69v6A.68.68,0,0,1,114.26,40.79Z" transform="translate(-6.42 -9.17)"/><path class="cls-2" d="M155,55.4h4.8a.68.68,0,0,0,.69-.68.69.69,0,0,0-.69-.69H155a.69.69,0,0,0-.69.69A.68.68,0,0,0,155,55.4Z" transform="translate(-6.42 -9.17)"/><path class="cls-2" d="M156.61,51.59h1.54V47h-1.54v4.61ZM158.84,53h-2.92a.69.69,0,0,1-.69-.69v-6a.68.68,0,0,1,.69-.68h2.92a.68.68,0,0,1,.69.68v6A.69.69,0,0,1,158.84,53Z" transform="translate(-6.42 -9.17)"/><path class="cls-2" d="M147.55,55.4h4.8a.68.68,0,0,0,.69-.68.69.69,0,0,0-.69-.69h-4.8a.69.69,0,0,0-.69.69A.68.68,0,0,0,147.55,55.4Z" transform="translate(-6.42 -9.17)"/><path class="cls-2" d="M149.18,51.59h1.54V47h-1.54v4.61ZM151.41,53h-2.92a.69.69,0,0,1-.69-.69v-6a.68.68,0,0,1,.69-.68h2.92a.68.68,0,0,1,.69.68v6A.69.69,0,0,1,151.41,53Z" transform="translate(-6.42 -9.17)"/><path class="cls-2" d="M140.12,55.4h4.8a.68.68,0,0,0,.69-.68.69.69,0,0,0-.69-.69h-4.8a.69.69,0,0,0-.69.69A.68.68,0,0,0,140.12,55.4Z" transform="translate(-6.42 -9.17)"/><path class="cls-2" d="M141.75,51.59h1.54V47h-1.54v4.61ZM144,53h-2.92a.69.69,0,0,1-.69-.69v-6a.68.68,0,0,1,.69-.68H144a.68.68,0,0,1,.69.68v6A.69.69,0,0,1,144,53Z" transform="translate(-6.42 -9.17)"/><path class="cls-2" d="M132.69,55.4h4.8a.68.68,0,0,0,.69-.68.69.69,0,0,0-.69-.69h-4.8a.69.69,0,0,0-.69.69A.68.68,0,0,0,132.69,55.4Z" transform="translate(-6.42 -9.17)"/><path class="cls-2" d="M134.32,51.59h1.54V47h-1.54v4.61ZM136.55,53h-2.92a.69.69,0,0,1-.69-.69v-6a.68.68,0,0,1,.69-.68h2.92a.68.68,0,0,1,.69.68v6A.69.69,0,0,1,136.55,53Z" transform="translate(-6.42 -9.17)"/><path class="cls-2" d="M125.26,55.4h4.8a.68.68,0,0,0,.69-.68.69.69,0,0,0-.69-.69h-4.8a.69.69,0,0,0-.69.69A.68.68,0,0,0,125.26,55.4Z" transform="translate(-6.42 -9.17)"/><path class="cls-2" d="M126.89,51.59h1.54V47h-1.54v4.61ZM129.12,53H126.2a.69.69,0,0,1-.69-.69v-6a.68.68,0,0,1,.69-.68h2.92a.68.68,0,0,1,.69.68v6A.69.69,0,0,1,129.12,53Z" transform="translate(-6.42 -9.17)"/><path class="cls-2" d="M117.83,55.4h4.8a.68.68,0,0,0,.69-.68.69.69,0,0,0-.69-.69h-4.8a.69.69,0,0,0-.69.69A.68.68,0,0,0,117.83,55.4Z" transform="translate(-6.42 -9.17)"/><path class="cls-2" d="M119.46,51.59H121V47h-1.54v4.61ZM121.69,53h-2.92a.69.69,0,0,1-.69-.69v-6a.68.68,0,0,1,.69-.68h2.92a.68.68,0,0,1,.69.68v6A.69.69,0,0,1,121.69,53Z" transform="translate(-6.42 -9.17)"/><path class="cls-2" d="M110.4,55.4h4.8a.68.68,0,0,0,.69-.68.69.69,0,0,0-.69-.69h-4.8a.69.69,0,0,0-.69.69A.68.68,0,0,0,110.4,55.4Z" transform="translate(-6.42 -9.17)"/><path class="cls-2" d="M112,51.59h1.54V47H112v4.61ZM114.26,53h-2.92a.69.69,0,0,1-.69-.69v-6a.68.68,0,0,1,.69-.68h2.92a.68.68,0,0,1,.69.68v6A.69.69,0,0,1,114.26,53Z" transform="translate(-6.42 -9.17)"/><path class="cls-2" d="M155,67.57h4.8a.69.69,0,0,0,0-1.38H155a.69.69,0,0,0,0,1.38Z" transform="translate(-6.42 -9.17)"/><path class="cls-2" d="M156.61,63.75h1.54V59.14h-1.54v4.61Zm2.23,1.37h-2.92a.68.68,0,0,1-.69-.68v-6a.69.69,0,0,1,.69-.69h2.92a.69.69,0,0,1,.69.69v6A.68.68,0,0,1,158.84,65.12Z" transform="translate(-6.42 -9.17)"/><path class="cls-2" d="M147.55,67.57h4.8a.69.69,0,0,0,0-1.38h-4.8a.69.69,0,0,0,0,1.38Z" transform="translate(-6.42 -9.17)"/><path class="cls-2" d="M149.18,63.75h1.54V59.14h-1.54v4.61Zm2.23,1.37h-2.92a.68.68,0,0,1-.69-.68v-6a.69.69,0,0,1,.69-.69h2.92a.69.69,0,0,1,.69.69v6A.68.68,0,0,1,151.41,65.12Z" transform="translate(-6.42 -9.17)"/><path class="cls-2" d="M140.12,67.57h4.8a.69.69,0,1,0,0-1.38h-4.8a.69.69,0,0,0,0,1.38Z" transform="translate(-6.42 -9.17)"/><path class="cls-2" d="M141.75,63.75h1.54V59.14h-1.54v4.61ZM144,65.12h-2.92a.68.68,0,0,1-.69-.68v-6a.69.69,0,0,1,.69-.69H144a.69.69,0,0,1,.69.69v6A.68.68,0,0,1,144,65.12Z" transform="translate(-6.42 -9.17)"/><path class="cls-2" d="M132.69,67.57h4.8a.69.69,0,0,0,0-1.38h-4.8a.69.69,0,0,0,0,1.38Z" transform="translate(-6.42 -9.17)"/><path class="cls-2" d="M134.32,63.75h1.54V59.14h-1.54v4.61Zm2.23,1.37h-2.92a.68.68,0,0,1-.69-.68v-6a.69.69,0,0,1,.69-.69h2.92a.69.69,0,0,1,.69.69v6A.68.68,0,0,1,136.55,65.12Z" transform="translate(-6.42 -9.17)"/><path class="cls-2" d="M125.26,67.57h4.8a.69.69,0,0,0,0-1.38h-4.8a.69.69,0,1,0,0,1.38Z" transform="translate(-6.42 -9.17)"/><path class="cls-2" d="M126.89,63.75h1.54V59.14h-1.54v4.61Zm2.23,1.37H126.2a.68.68,0,0,1-.69-.68v-6a.69.69,0,0,1,.69-.69h2.92a.69.69,0,0,1,.69.69v6A.68.68,0,0,1,129.12,65.12Z" transform="translate(-6.42 -9.17)"/><path class="cls-2" d="M117.83,67.57h4.8a.69.69,0,0,0,0-1.38h-4.8a.69.69,0,1,0,0,1.38Z" transform="translate(-6.42 -9.17)"/><path class="cls-2" d="M119.46,63.75H121V59.14h-1.54v4.61Zm2.23,1.37h-2.92a.68.68,0,0,1-.69-.68v-6a.69.69,0,0,1,.69-.69h2.92a.69.69,0,0,1,.69.69v6A.68.68,0,0,1,121.69,65.12Z" transform="translate(-6.42 -9.17)"/><path class="cls-2" d="M110.4,67.57h4.8a.69.69,0,0,0,0-1.38h-4.8a.69.69,0,1,0,0,1.38Z" transform="translate(-6.42 -9.17)"/><path class="cls-2" d="M112,63.75h1.54V59.14H112v4.61Zm2.23,1.37h-2.92a.68.68,0,0,1-.69-.68v-6a.69.69,0,0,1,.69-.69h2.92a.69.69,0,0,1,.69.69v6A.68.68,0,0,1,114.26,65.12Z" transform="translate(-6.42 -9.17)"/><path class="cls-2" d="M109.56,18.91h50.66a.69.69,0,0,0,.69-.69.68.68,0,0,0-.69-.68H109.56a.68.68,0,0,0-.69.68A.69.69,0,0,0,109.56,18.91Z" transform="translate(-6.42 -9.17)"/><rect class="cls-3" x="123.07" y="3.46" width="11.86" height="2.6"/><path class="cls-2" d="M130.17,14.54h10.49V13.32H130.17v1.22Zm11.16,1.38H129.5a.7.7,0,0,1-.7-.71V12.65a.7.7,0,0,1,.7-.71h11.83a.7.7,0,0,1,.7.71v2.56A.7.7,0,0,1,141.33,15.92Z" transform="translate(-6.42 -9.17)"/><rect class="cls-3" x="115.85" y="21.62" width="27.51" height="66.87"/><rect class="cls-3" x="110.47" y="58.53" width="5.33" height="5.33"/><path class="cls-2" d="M117.58,72.34h4v-4h-4v4Zm4.62,1.37h-5.29a.7.7,0,0,1-.7-.7v-5.3a.7.7,0,0,1,.7-.7h5.29a.71.71,0,0,1,.71.7V73A.71.71,0,0,1,122.2,73.71Z" transform="translate(-6.42 -9.17)"/><rect class="cls-3" x="105.12" y="58.53" width="5.33" height="5.33"/><path class="cls-2" d="M112.23,72.34h4v-4h-4v4Zm4.62,1.37h-5.29a.7.7,0,0,1-.7-.7v-5.3a.7.7,0,0,1,.7-.7h5.29a.7.7,0,0,1,.7.7V73A.7.7,0,0,1,116.85,73.71Z" transform="translate(-6.42 -9.17)"/><rect class="cls-3" x="110.47" y="64.03" width="5.33" height="5.33"/><path class="cls-2" d="M117.58,77.83h4v-4h-4v4Zm4.62,1.38h-5.29a.7.7,0,0,1-.7-.71V73.21a.7.7,0,0,1,.7-.7h5.29a.7.7,0,0,1,.71.7V78.5A.71.71,0,0,1,122.2,79.21Z" transform="translate(-6.42 -9.17)"/><rect class="cls-3" x="81.54" y="32.37" width="23.09" height="56.12"/><path class="cls-2" d="M88.65,97h21.72V42.23H88.65V97ZM111,98.35H88a.7.7,0,0,1-.7-.71V41.56a.7.7,0,0,1,.7-.71H111a.7.7,0,0,1,.7.71V97.64A.7.7,0,0,1,111,98.35Z" transform="translate(-6.42 -9.17)"/><rect class="cls-3" x="105.12" y="64.03" width="5.33" height="5.33"/><path class="cls-2" d="M112.23,77.83h4v-4h-4v4Zm4.62,1.38h-5.29a.7.7,0,0,1-.7-.71V73.21a.7.7,0,0,1,.7-.7h5.29a.7.7,0,0,1,.7.7V78.5A.7.7,0,0,1,116.85,79.21Z" transform="translate(-6.42 -9.17)"/><rect class="cls-3" x="110.47" y="69.53" width="5.33" height="5.33"/><path class="cls-2" d="M117.58,83.33h4v-4h-4v4Zm4.62,1.38h-5.29a.7.7,0,0,1-.7-.71V78.71a.7.7,0,0,1,.7-.7h5.29a.7.7,0,0,1,.71.7V84A.71.71,0,0,1,122.2,84.71Z" transform="translate(-6.42 -9.17)"/><rect class="cls-3" x="105.12" y="69.53" width="5.33" height="5.33"/><path class="cls-2" d="M112.23,83.33h4v-4h-4v4Zm4.62,1.38h-5.29a.7.7,0,0,1-.7-.71V78.71a.7.7,0,0,1,.7-.7h5.29a.7.7,0,0,1,.7.7V84A.7.7,0,0,1,116.85,84.71Z" transform="translate(-6.42 -9.17)"/><rect class="cls-3" x="110.47" y="75.03" width="5.33" height="5.33"/><path class="cls-2" d="M117.58,88.83h4v-4h-4v4Zm4.62,1.38h-5.29a.7.7,0,0,1-.7-.71V84.21a.7.7,0,0,1,.7-.7h5.29a.7.7,0,0,1,.71.7V89.5A.71.71,0,0,1,122.2,90.21Z" transform="translate(-6.42 -9.17)"/><rect class="cls-3" x="105.12" y="75.03" width="5.33" height="5.33"/><path class="cls-2" d="M112.23,88.83h4v-4h-4v4Zm4.62,1.38h-5.29a.7.7,0,0,1-.7-.71V84.21a.7.7,0,0,1,.7-.7h5.29a.7.7,0,0,1,.7.7V89.5A.7.7,0,0,1,116.85,90.21Z" transform="translate(-6.42 -9.17)"/><rect class="cls-3" x="110.47" y="80.26" width="5.33" height="5.33"/><path class="cls-2" d="M117.58,94.07h4V90.12h-4v3.95Zm4.62,1.37h-5.29a.7.7,0,0,1-.7-.7V89.45a.7.7,0,0,1,.7-.7h5.29a.7.7,0,0,1,.71.7v5.29A.7.7,0,0,1,122.2,95.44Z" transform="translate(-6.42 -9.17)"/><rect class="cls-3" x="105.12" y="80.26" width="5.33" height="5.33"/><path class="cls-2" d="M112.23,94.07h4V90.12h-4v3.95Zm4.62,1.37h-5.29a.7.7,0,0,1-.7-.7V89.45a.7.7,0,0,1,.7-.7h5.29a.7.7,0,0,1,.7.7v5.29A.7.7,0,0,1,116.85,95.44Z" transform="translate(-6.42 -9.17)"/><path class="cls-2" d="M123,97h26.13V30.76H123V97Zm26.82,1.38H122.27a.69.69,0,0,1-.69-.69V30.08a.69.69,0,0,1,.69-.69h27.51a.69.69,0,0,1,.69.69V97.66A.69.69,0,0,1,149.78,98.35Z" transform="translate(-6.42 -9.17)"/><path class="cls-1" d="M357.19,95a2.79,2.79,0,1,1-2.79-2.78A2.79,2.79,0,0,1,357.19,95Z" transform="translate(-6.42 -9.17)"/><path class="cls-1" d="M365.94,95.64a2.52,2.52,0,1,1-2.52-2.51A2.51,2.51,0,0,1,365.94,95.64Z" transform="translate(-6.42 -9.17)"/><path class="cls-1" d="M146,43.7h0Z" transform="translate(-6.42 -9.17)"/><path class="cls-2" d="M125.61,44.38H146a.67.67,0,0,0,.68-.68A.68.68,0,0,0,146,43H125.61a.68.68,0,0,0-.68.69A.67.67,0,0,0,125.61,44.38Z" transform="translate(-6.42 -9.17)"/><path class="cls-1" d="M146,40.52h0Z" transform="translate(-6.42 -9.17)"/><path class="cls-2" d="M125.61,41.2H146a.67.67,0,0,0,.68-.68.68.68,0,0,0-.68-.69H125.61a.68.68,0,0,0-.68.69A.67.67,0,0,0,125.61,41.2Z" transform="translate(-6.42 -9.17)"/><path class="cls-1" d="M126.69,47.2v0Z" transform="translate(-6.42 -9.17)"/><path class="cls-2" d="M126.69,97.83a.69.69,0,0,0,.69-.69V47.2a.68.68,0,0,0-.69-.68.67.67,0,0,0-.68.68V97.14A.68.68,0,0,0,126.69,97.83Z" transform="translate(-6.42 -9.17)"/><path class="cls-1" d="M131.37,47.2v0Z" transform="translate(-6.42 -9.17)"/><path class="cls-2" d="M131.37,97.83a.68.68,0,0,0,.68-.69V47.2a.67.67,0,0,0-.68-.68.68.68,0,0,0-.69.68V97.14A.69.69,0,0,0,131.37,97.83Z" transform="translate(-6.42 -9.17)"/><path class="cls-1" d="M136,47.2v0Z" transform="translate(-6.42 -9.17)"/><path class="cls-2" d="M136,97.83a.69.69,0,0,0,.69-.69V47.2a.69.69,0,0,0-1.38,0V97.14A.69.69,0,0,0,136,97.83Z" transform="translate(-6.42 -9.17)"/><path class="cls-1" d="M140.72,47.2v0Z" transform="translate(-6.42 -9.17)"/><path class="cls-2" d="M140.72,97.83a.69.69,0,0,0,.68-.69V47.2a.69.69,0,0,0-1.37,0V97.14A.69.69,0,0,0,140.72,97.83Z" transform="translate(-6.42 -9.17)"/><path class="cls-1" d="M145.39,47.2v0Z" transform="translate(-6.42 -9.17)"/><path class="cls-2" d="M145.39,97.83a.69.69,0,0,0,.69-.69V47.2a.69.69,0,0,0-1.38,0V97.14A.69.69,0,0,0,145.39,97.83Z" transform="translate(-6.42 -9.17)"/><rect class="cls-3" x="131.66" y="73.52" width="36.85" height="15.05"/><path class="cls-2" d="M138.77,97.05h35.48V83.38H138.77V97.05Zm36.15,1.37H138.1a.7.7,0,0,1-.7-.7v-15a.7.7,0,0,1,.7-.7h36.82a.7.7,0,0,1,.7.7v15A.7.7,0,0,1,174.92,98.42Z" transform="translate(-6.42 -9.17)"/><polygon class="cls-1" points="129.98 73.37 169.67 73.37 168.52 66.69 131.14 66.69 129.98 73.37"/><path class="cls-2" d="M137.22,81.85h38.06l-.92-5.3H138.14l-.92,5.3Zm38.87,1.38H136.4a.71.71,0,0,1-.68-.81l1.16-6.68a.69.69,0,0,1,.68-.57h37.38a.68.68,0,0,1,.67.57l1.16,6.68a.67.67,0,0,1-.15.56A.67.67,0,0,1,176.09,83.23Z" transform="translate(-6.42 -9.17)"/><rect class="cls-3" x="143.44" y="77.41" width="4.74" height="5.72"/><rect class="cls-3" x="135.16" y="77.75" width="4.74" height="5.38"/><rect class="cls-3" x="143.44" y="77.75" width="4.74" height="5.38"/><path class="cls-2" d="M150.54,91.62h3.38v-4h-3.38v4ZM154.59,93h-4.71a.71.71,0,0,1-.71-.7V86.94a.71.71,0,0,1,.71-.71h4.71a.71.71,0,0,1,.7.71v5.35A.71.71,0,0,1,154.59,93Z" transform="translate(-6.42 -9.17)"/><rect class="cls-3" x="151.68" y="77.75" width="4.74" height="5.38"/><path class="cls-2" d="M158.78,91.62h3.38v-4h-3.38v4Zm4,1.37h-4.71a.71.71,0,0,1-.7-.7V86.94a.71.71,0,0,1,.7-.71h4.71a.71.71,0,0,1,.71.71v5.35A.71.71,0,0,1,162.82,93Z" transform="translate(-6.42 -9.17)"/><rect class="cls-3" x="159.97" y="77.75" width="4.74" height="5.38"/><path class="cls-2" d="M167.08,91.62h3.37v-4h-3.37v4Zm4,1.37h-4.71a.7.7,0,0,1-.7-.7V86.94a.7.7,0,0,1,.7-.71h4.71a.71.71,0,0,1,.71.71v5.35A.71.71,0,0,1,171.12,93Z" transform="translate(-6.42 -9.17)"/><rect class="cls-3" x="135.16" y="77.75" width="4.74" height="5.38"/><path class="cls-2" d="M142.27,91.62h3.37v-4h-3.37v4Zm4,1.37H141.6a.71.71,0,0,1-.71-.7V86.94a.71.71,0,0,1,.71-.71h4.71a.7.7,0,0,1,.7.71v5.35A.7.7,0,0,1,146.31,93Z" transform="translate(-6.42 -9.17)"/><path class="cls-2" d="M42.83,86.58a.7.7,0,1,1,.7-.7A.69.69,0,0,1,42.83,86.58Z" transform="translate(-6.42 -9.17)"/><path class="cls-2" d="M29.11,87.28a.7.7,0,1,1,.69-.7A.7.7,0,0,1,29.11,87.28Z" transform="translate(-6.42 -9.17)"/><path class="cls-2" d="M58.48,94.09a5.91,5.91,0,1,0-7.15-8.92V83.1A7.37,7.37,0,1,1,59,95.41a.72.72,0,0,1-.56-1.32Z" transform="translate(-6.42 -9.17)"/><path class="cls-2" d="M56.83,88.39a.7.7,0,1,1-.7-.7A.69.69,0,0,1,56.83,88.39Z" transform="translate(-6.42 -9.17)"/><path class="cls-2" d="M29.11,75.64a7.47,7.47,0,0,1,5.23,2.14V80.1a6,6,0,0,0-11.27,3v5.42a6,6,0,0,0,5.32,6V89.21a.72.72,0,0,1,1.43,0v9.15a.72.72,0,1,1-1.43,0V96a7.49,7.49,0,0,1-6.76-7.44V83.11A7.49,7.49,0,0,1,29.11,75.64Z" transform="translate(-6.42 -9.17)"/><path class="cls-2" d="M31.45,94.09a6,6,0,0,0,3.21-3.21,8.65,8.65,0,0,0,.71,1.72A7.54,7.54,0,0,1,32,95.41a.71.71,0,0,1-.94-.38A.73.73,0,0,1,31.45,94.09Z" transform="translate(-6.42 -9.17)"/><path class="cls-2" d="M55.42,94.52V91.27a.72.72,0,1,1,1.43,0v7.09a.72.72,0,1,1-1.43,0V96a7.49,7.49,0,0,1-5.32-3,8.5,8.5,0,0,0,.73-1.52A6,6,0,0,0,55.42,94.52Z" transform="translate(-6.42 -9.17)"/><path class="cls-2" d="M35.36,74.17a7.48,7.48,0,0,1,15,0V88.53a7.48,7.48,0,0,1-4.57,6.88.72.72,0,1,1-.56-1.32,6,6,0,0,0,3.69-5.56V74.17a6,6,0,1,0-12.07,0V88.53a6,6,0,0,0,5.32,6V89.21a.72.72,0,0,1,1.43,0v9.15a.72.72,0,1,1-1.43,0V96a7.49,7.49,0,0,1-6.76-7.44Z" transform="translate(-6.42 -9.17)"/><path class="cls-2" d="M23.45,72.22h.1a.72.72,0,0,0,.72-.72,1.83,1.83,0,0,1,.53-1.28A1.7,1.7,0,0,1,26,69.73a.72.72,0,0,0,.74-.7.73.73,0,0,0-.71-.74,3.21,3.21,0,0,0-2.25.91,3.17,3.17,0,0,0-.3.34c-.1-.12-.2-.23-.31-.34a3.18,3.18,0,0,0-2.25-.91.72.72,0,0,0,0,1.44H21a1.69,1.69,0,0,1,1.18.49,1.78,1.78,0,0,1,.54,1.28.72.72,0,0,0,.72.72Z" transform="translate(-6.42 -9.17)"/><path class="cls-2" d="M16.6,67.88h.11a.67.67,0,0,0,.5-.21.69.69,0,0,0,.21-.51A1.76,1.76,0,0,1,18,65.89a1.69,1.69,0,0,1,1.22-.5.7.7,0,0,0,.73-.7.71.71,0,0,0-.7-.73,3.14,3.14,0,0,0-2.25.9c-.11.11-.21.23-.3.34-.1-.11-.2-.23-.31-.34A3.14,3.14,0,0,0,14.1,64a.72.72,0,0,0,0,1.43h.05a1.71,1.71,0,0,1,1.19.5,1.76,1.76,0,0,1,.54,1.27.69.69,0,0,0,.21.51A.67.67,0,0,0,16.6,67.88Z" transform="translate(-6.42 -9.17)"/><path class="cls-2" d="M16.46,75.24h.07A.67.67,0,0,0,17,75a.69.69,0,0,0,.21-.51.89.89,0,0,1,.26-.61.85.85,0,0,1,.58-.23h0a.72.72,0,0,0,0-1.44,2.26,2.26,0,0,0-1.61.65h0a2.26,2.26,0,0,0-1.61-.65.72.72,0,0,0,0,1.44.87.87,0,0,1,.58.23.88.88,0,0,1,.25.61A.74.74,0,0,0,16,75,.71.71,0,0,0,16.46,75.24Z" transform="translate(-6.42 -9.17)"/><path class="cls-1" d="M317.09,38.24l1.1-2.72s-.09-2-.29-1.94a10.25,10.25,0,0,1-1.74-1.08L314,31.37l-1.48-1.3-2.05-.32-2.08-.85-4.17-1L301,29.76l-6.23,3.57-.1,3.79,1.31,1.25,3.73-.38,3.57.38,6.13-.21,4.36.21Z" transform="translate(-6.42 -9.17)"/><path class="cls-2" d="M308.32,44.59a.71.71,0,0,0,.53-.24l2.62-2.91a.72.72,0,1,0-1.06-1l-2.62,2.91a.7.7,0,0,0,0,1A.68.68,0,0,0,308.32,44.59Z" transform="translate(-6.42 -9.17)"/><path class="cls-2" d="M305,44.59a.71.71,0,0,0,.53-.24l2.62-2.91a.72.72,0,0,0-1.06-1l-2.63,2.91a.71.71,0,0,0,.06,1A.68.68,0,0,0,305,44.59Z" transform="translate(-6.42 -9.17)"/><path class="cls-2" d="M301.68,44.59a.71.71,0,0,0,.53-.24l2.62-2.91a.7.7,0,0,0-.05-1,.71.71,0,0,0-1,0l-2.63,2.91a.71.71,0,0,0,.06,1A.68.68,0,0,0,301.68,44.59Z" transform="translate(-6.42 -9.17)"/><path class="cls-2" d="M298.36,44.59a.71.71,0,0,0,.53-.24l2.63-2.91a.72.72,0,0,0-1.07-1l-2.62,2.91a.72.72,0,0,0,.53,1.2Z" transform="translate(-6.42 -9.17)"/><path class="cls-2" d="M313.15,37a.69.69,0,0,1,.45.16,2.37,2.37,0,1,0,1.51-4.19l-.31,0a.71.71,0,0,1-.75-.41,3.62,3.62,0,0,0-3.26-2.08,3.52,3.52,0,0,0-1,.13.72.72,0,0,1-.74-.25,4.51,4.51,0,0,0-6.95-.13.71.71,0,0,1-.58.25h-.13a3.62,3.62,0,0,0-3.27,2.08.71.71,0,0,1-.74.41l-.31,0a2.37,2.37,0,1,0,0,4.73,2.34,2.34,0,0,0,1.5-.54.72.72,0,0,1,.85,0,3.6,3.6,0,0,0,2,.58,3.56,3.56,0,0,0,1.63-.39.7.7,0,0,1,.63,0,4.55,4.55,0,0,0,4.24-.27.73.73,0,0,1,.79,0,3.55,3.55,0,0,0,2.07.65,3.63,3.63,0,0,0,2-.58.67.67,0,0,1,.39-.12Zm2,2.14a3.81,3.81,0,0,1-2-.57,5.07,5.07,0,0,1-2.32.57,5,5,0,0,1-2.5-.67,5.9,5.9,0,0,1-4.89.26,4.93,4.93,0,0,1-2,.41,5,5,0,0,1-2.32-.57,3.8,3.8,0,1,1-2-7A5.09,5.09,0,0,1,301.28,29a5.94,5.94,0,0,1,8.63.08,5.14,5.14,0,0,1,.88-.08,5.05,5.05,0,0,1,4.33,2.48,3.8,3.8,0,0,1,0,7.6Z" transform="translate(-6.42 -9.17)"/><path class="cls-2" d="M299.43,72.08h7.07a.72.72,0,0,0,0-1.44h-7.07a.72.72,0,1,0,0,1.44Z" transform="translate(-6.42 -9.17)"/><path class="cls-2" d="M296.13,71.65a.72.72,0,1,0,0-1.44,4.3,4.3,0,1,1,4.31-4.3.72.72,0,1,0,1.43,0,5.74,5.74,0,1,0-5.74,5.74Z" transform="translate(-6.42 -9.17)"/><path class="cls-2" d="M296.09,69.55h6.35a.72.72,0,1,0,0-1.43h-6.35a.72.72,0,1,0,0,1.43Z" transform="translate(-6.42 -9.17)"/><path class="cls-2" d="M296.27,69.55a.72.72,0,1,0,0-1.43,2,2,0,1,1,2-2,.72.72,0,0,0,1.43,0,3.46,3.46,0,1,0-3.46,3.45Z" transform="translate(-6.42 -9.17)"/><path class="cls-2" d="M34.06,54h7.07a.72.72,0,0,0,0-1.44H34.06a.72.72,0,0,0,0,1.44Z" transform="translate(-6.42 -9.17)"/><path class="cls-2" d="M30.76,53.53a.72.72,0,0,0,0-1.44,4.3,4.3,0,1,1,4.3-4.3.72.72,0,0,0,1.44,0,5.74,5.74,0,1,0-5.74,5.74Z" transform="translate(-6.42 -9.17)"/><path class="cls-2" d="M30.72,51.43h6.34a.72.72,0,0,0,0-1.44H30.72a.72.72,0,0,0,0,1.44Z" transform="translate(-6.42 -9.17)"/><path class="cls-2" d="M30.9,51.43a.72.72,0,1,0,0-1.44,2,2,0,1,1,2-2,.72.72,0,1,0,1.43,0,3.46,3.46,0,1,0-3.45,3.46Z" transform="translate(-6.42 -9.17)"/><path class="cls-2" d="M360.94,68.94H368a.72.72,0,1,0,0-1.43h-7.07a.72.72,0,1,0,0,1.43Z" transform="translate(-6.42 -9.17)"/><path class="cls-2" d="M357.6,66.42h6.34a.72.72,0,0,0,0-1.44H357.6a.72.72,0,1,0,0,1.44Z" transform="translate(-6.42 -9.17)"/><path class="cls-2" d="M357.78,66.42a.72.72,0,0,0,0-1.44,2,2,0,1,1,2-2,.72.72,0,1,0,1.43,0,3.46,3.46,0,1,0-3.45,3.46Z" transform="translate(-6.42 -9.17)"/><path class="cls-1" d="M40.8,27.26A4.26,4.26,0,1,0,45.06,23,4.26,4.26,0,0,0,40.8,27.26Z" transform="translate(-6.42 -9.17)"/><path class="cls-2" d="M50.06,23.61a6,6,0,0,0-1-1l.63-.64a.72.72,0,0,1,1,0,.71.71,0,0,1,0,1Z" transform="translate(-6.42 -9.17)"/><path class="cls-2" d="M44.51,21.31v-.9a.72.72,0,1,1,1.43,0v.9a5.53,5.53,0,0,0-.71,0A5.69,5.69,0,0,0,44.51,21.31Z" transform="translate(-6.42 -9.17)"/><path class="cls-2" d="M52.25,26.71a.72.72,0,0,1,0,1.44h-.9a6.5,6.5,0,0,0,0-1.44Z" transform="translate(-6.42 -9.17)"/><path class="cls-2" d="M40.77,22l.64.64a5.73,5.73,0,0,0-1,1L39.76,23a.71.71,0,1,1,1-1Z" transform="translate(-6.42 -9.17)"/><path class="cls-2" d="M38.21,26.71h.9a5.21,5.21,0,0,0,0,1.44h-.9a.72.72,0,0,1,0-1.44Z" transform="translate(-6.42 -9.17)"/><path class="cls-2" d="M40.39,31.25a6.5,6.5,0,0,0,1,1l-.64.64a.71.71,0,0,1-1-1Z" transform="translate(-6.42 -9.17)"/><path class="cls-2" d="M50.06,31.25l.64.64a.72.72,0,0,1-.51,1.22.73.73,0,0,1-.51-.21l-.63-.64A6.89,6.89,0,0,0,50.06,31.25Z" transform="translate(-6.42 -9.17)"/><path class="cls-2" d="M45.94,33.55v.9a.72.72,0,1,1-1.43,0v-.9a5.69,5.69,0,0,0,.72,0A5.53,5.53,0,0,0,45.94,33.55Z" transform="translate(-6.42 -9.17)"/><path class="cls-2" d="M41.65,27.43A3.58,3.58,0,1,1,45.23,31a3.59,3.59,0,0,1-3.58-3.58Zm-1.39,0a5,5,0,1,0,5-5A5,5,0,0,0,40.26,27.43Z" transform="translate(-6.42 -9.17)"/><path class="cls-2" d="M248.22,90.16,251,87.41h-.05a2.25,2.25,0,0,1-2.1-1.4,2.21,2.21,0,0,1,.47-2.44l2.93-2.93h0a1.89,1.89,0,0,1-1.75-1.17,1.82,1.82,0,0,1,.39-2l3.86-3.87a2,2,0,0,1,2.82,0l3.84,3.84,0,0a1.84,1.84,0,0,1,.39,2A1.9,1.9,0,0,1,260,80.64h0l2.91,2.91h0A2.21,2.21,0,0,1,263.4,86a2.25,2.25,0,0,1-2.11,1.4h0L264,90.14v0a2.46,2.46,0,0,1,.53,2.73,2.52,2.52,0,0,1-2.35,1.57h-3.45a.72.72,0,1,1,0-1.44h3.45a1.1,1.1,0,0,0,1-.68,1,1,0,0,0-.22-1.18l0,0L259,87.2a.72.72,0,0,1,.51-1.22h1.77a.82.82,0,0,0,.78-.52.8.8,0,0,0-.16-.89l.51-.5-.53.48-4.13-4.12a.74.74,0,0,1-.15-.79.72.72,0,0,1,.66-.44H260a.45.45,0,0,0,.42-.28.43.43,0,0,0-.1-.5l-3.83-3.83a.57.57,0,0,0-.8,0l-3.85,3.85a.44.44,0,0,0-.09.48.48.48,0,0,0,.43.28H254a.72.72,0,0,1,.66.44.74.74,0,0,1-.15.79l-4.13,4.12,0,0a.8.8,0,0,0-.16.89.82.82,0,0,0,.77.52h1.78a.72.72,0,0,1,.51,1.22l-3.94,3.94,0,0a1,1,0,0,0-.22,1.17,1.08,1.08,0,0,0,1,.68h5.79a.71.71,0,0,1,.26,0h0a.72.72,0,0,1,.72.72v4.57a.72.72,0,0,1-1.44,0v-3.9h-5.34a2.52,2.52,0,0,1-2.35-1.57A2.47,2.47,0,0,1,248.22,90.16Z" transform="translate(-6.42 -9.17)"/><path class="cls-2" d="M256.11,91.9a.7.7,0,1,1,.7-.7A.7.7,0,0,1,256.11,91.9Z" transform="translate(-6.42 -9.17)"/><path class="cls-2" d="M271.3,87a.7.7,0,1,1,.7-.7A.69.69,0,0,1,271.3,87Z" transform="translate(-6.42 -9.17)"/><path class="cls-2" d="M281.41,86a.71.71,0,0,1,.66.44.72.72,0,0,1-.15.78l-2.16,2.16a7.56,7.56,0,0,0,0-.83V86Z" transform="translate(-6.42 -9.17)"/><path class="cls-2" d="M287,79.2h1.75a.45.45,0,0,0,.42-.28.43.43,0,0,0-.1-.5l-3.84-3.83a.56.56,0,0,0-.79,0l-3.85,3.85a.44.44,0,0,0-.09.48.46.46,0,0,0,.43.28h1.75a.72.72,0,0,1,.5,1.23l-3.36,3.36v-2l1.12-1.12h0a2,2,0,0,1-1.11-.36v-3.1l3.61-3.61a2,2,0,0,1,2.82,0l3.84,3.84,0,0a1.88,1.88,0,0,1,.39,2,1.9,1.9,0,0,1-1.75,1.17h0l2.91,2.91h0A2.27,2.27,0,0,1,290,87.41h0l2.72,2.73,0,0a2.47,2.47,0,0,1,.52,2.73,2.5,2.5,0,0,1-2.34,1.57h-3.45a.72.72,0,1,1,0-1.44h3.45a1.1,1.1,0,0,0,1-.68,1.05,1.05,0,0,0-.22-1.18l0,0-3.94-3.94a.71.71,0,0,1-.16-.78.73.73,0,0,1,.67-.44H290a.83.83,0,0,0,.78-.52.79.79,0,0,0-.17-.89l.51-.5-.52.48-4.13-4.12A.72.72,0,0,1,287,79.2Z" transform="translate(-6.42 -9.17)"/><path class="cls-2" d="M278.76,93h5.79a.75.75,0,0,1,.26,0h0a.71.71,0,0,1,.71.72v4.57a.72.72,0,1,1-1.43,0v-3.9h-5.34a2.64,2.64,0,0,1-1.13-.26,9.39,9.39,0,0,0,.9-1.2Z" transform="translate(-6.42 -9.17)"/><path class="cls-2" d="M263.83,88.55V87.26a3.31,3.31,0,0,0,.51-.85,3.22,3.22,0,0,0-.51-3.38V74.17a7.48,7.48,0,0,1,14.95,0V88.53a7.48,7.48,0,0,1-4.57,6.88.72.72,0,1,1-.56-1.32,6,6,0,0,0,3.69-5.56V74.17a6,6,0,1,0-12.08,0V88.53a6,6,0,0,0,5.33,6V89.21a.72.72,0,0,1,1.43,0v9.15a.72.72,0,1,1-1.43,0V96a7.48,7.48,0,0,1-5.1-2.75,3.5,3.5,0,0,0-.76-3.78Z" transform="translate(-6.42 -9.17)"/><path class="cls-2" d="M83.47,66.87a1.26,1.26,0,1,1-1.26,1.26A1.26,1.26,0,0,1,83.47,66.87Z" transform="translate(-6.42 -9.17)"/><path class="cls-2" d="M79.81,66.87a1.26,1.26,0,1,1-1.26,1.26A1.25,1.25,0,0,1,79.81,66.87Z" transform="translate(-6.42 -9.17)"/><path class="cls-2" d="M76.15,66.87a1.26,1.26,0,1,1-1.26,1.26A1.25,1.25,0,0,1,76.15,66.87Z" transform="translate(-6.42 -9.17)"/><path class="cls-2" d="M72.5,69.39a1.26,1.26,0,1,1,1.26-1.26A1.26,1.26,0,0,1,72.5,69.39Z" transform="translate(-6.42 -9.17)"/><circle class="cls-4" cx="77.05" cy="63.04" r="1.26"/><path class="cls-2" d="M79.81,71a1.26,1.26,0,1,1-1.26,1.26A1.25,1.25,0,0,1,79.81,71Z" transform="translate(-6.42 -9.17)"/><path class="cls-2" d="M76.15,71a1.26,1.26,0,1,1-1.26,1.26A1.25,1.25,0,0,1,76.15,71Z" transform="translate(-6.42 -9.17)"/><path class="cls-2" d="M72.5,71a1.26,1.26,0,1,1-1.27,1.26A1.26,1.26,0,0,1,72.5,71Z" transform="translate(-6.42 -9.17)"/><path class="cls-2" d="M83.47,75a1.27,1.27,0,1,1-1.26,1.26A1.27,1.27,0,0,1,83.47,75Z" transform="translate(-6.42 -9.17)"/><path class="cls-2" d="M79.81,75a1.27,1.27,0,1,1-1.26,1.26A1.26,1.26,0,0,1,79.81,75Z" transform="translate(-6.42 -9.17)"/><path class="cls-2" d="M76.15,75a1.27,1.27,0,1,1-1.26,1.26A1.26,1.26,0,0,1,76.15,75Z" transform="translate(-6.42 -9.17)"/><path class="cls-2" d="M72.5,75a1.27,1.27,0,1,1-1.27,1.26A1.27,1.27,0,0,1,72.5,75Z" transform="translate(-6.42 -9.17)"/><path class="cls-2" d="M83.47,79.12a1.26,1.26,0,1,1-1.26,1.26A1.26,1.26,0,0,1,83.47,79.12Z" transform="translate(-6.42 -9.17)"/><path class="cls-2" d="M79.81,79.12a1.26,1.26,0,1,1-1.26,1.26A1.25,1.25,0,0,1,79.81,79.12Z" transform="translate(-6.42 -9.17)"/><path class="cls-2" d="M76.15,79.12a1.26,1.26,0,1,1,0,2.52,1.26,1.26,0,1,1,0-2.52Z" transform="translate(-6.42 -9.17)"/><path class="cls-2" d="M72.5,79.12a1.26,1.26,0,1,1-1.27,1.26A1.26,1.26,0,0,1,72.5,79.12Z" transform="translate(-6.42 -9.17)"/><path class="cls-2" d="M83.47,83.2a1.26,1.26,0,1,1-1.26,1.26A1.26,1.26,0,0,1,83.47,83.2Z" transform="translate(-6.42 -9.17)"/><path class="cls-2" d="M79.81,83.2a1.26,1.26,0,1,1-1.26,1.26A1.25,1.25,0,0,1,79.81,83.2Z" transform="translate(-6.42 -9.17)"/><path class="cls-2" d="M76.15,83.2a1.26,1.26,0,1,1-1.26,1.26A1.25,1.25,0,0,1,76.15,83.2Z" transform="translate(-6.42 -9.17)"/><path class="cls-2" d="M72.5,83.2a1.26,1.26,0,1,1-1.27,1.26A1.26,1.26,0,0,1,72.5,83.2Z" transform="translate(-6.42 -9.17)"/><path class="cls-2" d="M83.47,87.28a1.27,1.27,0,1,1-1.26,1.26A1.27,1.27,0,0,1,83.47,87.28Z" transform="translate(-6.42 -9.17)"/><path class="cls-2" d="M79.81,87.28a1.27,1.27,0,1,1-1.26,1.26A1.26,1.26,0,0,1,79.81,87.28Z" transform="translate(-6.42 -9.17)"/><path class="cls-2" d="M76.15,87.28a1.27,1.27,0,1,1-1.26,1.26A1.26,1.26,0,0,1,76.15,87.28Z" transform="translate(-6.42 -9.17)"/><path class="cls-2" d="M72.5,87.28a1.27,1.27,0,1,1-1.27,1.26A1.27,1.27,0,0,1,72.5,87.28Z" transform="translate(-6.42 -9.17)"/><circle class="cls-4" cx="77.05" cy="83.46" r="1.26"/><path class="cls-2" d="M79.81,91.36a1.27,1.27,0,1,1-1.26,1.27A1.26,1.26,0,0,1,79.81,91.36Z" transform="translate(-6.42 -9.17)"/><path class="cls-2" d="M76.15,91.36a1.27,1.27,0,1,1-1.26,1.27A1.26,1.26,0,0,1,76.15,91.36Z" transform="translate(-6.42 -9.17)"/><path class="cls-2" d="M72.5,91.36a1.27,1.27,0,1,1-1.27,1.27A1.27,1.27,0,0,1,72.5,91.36Z" transform="translate(-6.42 -9.17)"/><rect class="cls-3" x="84.97" y="54.94" width="2.96" height="12.73"/><rect class="cls-3" x="98.29" y="54.94" width="2.96" height="12.73"/><rect class="cls-3" x="98.29" y="71.54" width="2.96" height="5.87"/><rect class="cls-3" x="98.29" y="38.42" width="2.96" height="12.73"/><rect class="cls-3" x="84.95" y="38.42" width="2.96" height="12.73"/><rect class="cls-3" x="84.97" y="71.54" width="2.96" height="5.87"/><rect class="cls-3" x="91.63" y="32.47" width="2.96" height="12.73"/><rect class="cls-3" x="91.63" y="49.31" width="2.96" height="12.73"/><rect class="cls-3" x="91.63" y="66.16" width="2.96" height="11.71"/><path class="cls-2" d="M91.37,94.61a.69.69,0,0,0,.69-.69V81.51h1.59V93.92a.69.69,0,0,0,1.38,0V80.82a.68.68,0,0,0-.69-.68h-3a.68.68,0,0,0-.68.68v13.1A.69.69,0,0,0,91.37,94.61Z" transform="translate(-6.42 -9.17)"/><path class="cls-2" d="M98,88.58a.69.69,0,0,0,.69-.69V75.48h1.59V87.89a.69.69,0,0,0,.69.69.68.68,0,0,0,.68-.69V74.79a.67.67,0,0,0-.68-.68H98a.67.67,0,0,0-.68.68v13.1A.68.68,0,0,0,98,88.58Z" transform="translate(-6.42 -9.17)"/><path class="cls-2" d="M104.71,94.61a.69.69,0,0,0,.69-.69V81.51H107V93.92a.68.68,0,0,0,.68.69.69.69,0,0,0,.69-.69V80.82a.68.68,0,0,0-.69-.68h-3a.68.68,0,0,0-.69.68v13.1A.69.69,0,0,0,104.71,94.61Z" transform="translate(-6.42 -9.17)"/><path class="cls-2" d="M91.37,77.9a.69.69,0,0,0,.69-.69V64.8h1.59V77.21a.69.69,0,1,0,1.38,0V64.11a.69.69,0,0,0-.69-.69h-3a.69.69,0,0,0-.68.69v13.1A.69.69,0,0,0,91.37,77.9Z" transform="translate(-6.42 -9.17)"/><path class="cls-2" d="M98,71.87a.69.69,0,0,0,.69-.69V58.77h1.59V71.18a.69.69,0,0,0,.69.69.68.68,0,0,0,.68-.69V58.08a.68.68,0,0,0-.68-.69H98a.68.68,0,0,0-.68.69v13.1A.68.68,0,0,0,98,71.87Z" transform="translate(-6.42 -9.17)"/><path class="cls-2" d="M104.71,77.9a.69.69,0,0,0,.69-.69V64.8H107V77.21a.68.68,0,0,0,.68.69.69.69,0,0,0,.69-.69V64.11a.69.69,0,0,0-.69-.69h-3a.69.69,0,0,0-.69.69v13.1A.69.69,0,0,0,104.71,77.9Z" transform="translate(-6.42 -9.17)"/><path class="cls-2" d="M91.37,61.19a.69.69,0,0,0,.69-.69V48.08h1.59V60.5a.69.69,0,0,0,1.38,0V47.4a.69.69,0,0,0-.69-.69h-3a.69.69,0,0,0-.68.69V60.5A.69.69,0,0,0,91.37,61.19Z" transform="translate(-6.42 -9.17)"/><path class="cls-2" d="M98,55.16a.69.69,0,0,0,.69-.69V42.23h1.59V54.47a.69.69,0,0,0,.69.69.68.68,0,0,0,.68-.69V41.54a.68.68,0,0,0-.68-.69H98a.68.68,0,0,0-.68.69V54.47A.68.68,0,0,0,98,55.16Z" transform="translate(-6.42 -9.17)"/><path class="cls-2" d="M104.71,61.19a.69.69,0,0,0,.69-.69V48.08H107V60.5a.68.68,0,0,0,.68.69.69.69,0,0,0,.69-.69V47.4a.69.69,0,0,0-.69-.69h-3a.69.69,0,0,0-.69.69V60.5A.69.69,0,0,0,104.71,61.19Z" transform="translate(-6.42 -9.17)"/><rect class="cls-3" x="65.54" y="48.37" width="12.77" height="3.43"/><path class="cls-2" d="M72.65,60.28H84V58.23H72.65v2.05Zm12.06,1.37H72a.7.7,0,0,1-.71-.7V57.56a.71.71,0,0,1,.71-.71H84.71a.71.71,0,0,1,.71.71V61A.7.7,0,0,1,84.71,61.65Z" transform="translate(-6.42 -9.17)"/><polygon class="cls-1" points="80.39 32.67 105.79 32.67 104.63 27.55 81.54 27.55 80.39 32.67"/><path class="cls-2" d="M87.67,41.15h23.68l-.85-3.74h-22l-.84,3.74Zm24.54,1.38H86.81a.7.7,0,0,1-.54-.26.67.67,0,0,1-.13-.58l1.15-5.12A.7.7,0,0,1,88,36h23.09a.69.69,0,0,1,.67.54l1.16,5.12a.67.67,0,0,1-.13.58A.7.7,0,0,1,112.21,42.53Z" transform="translate(-6.42 -9.17)"/><path class="cls-2" d="M252.82,61.73h7.12a4.88,4.88,0,0,0,0-9.76H237.47a.69.69,0,1,0,0,1.37h22.47a3.51,3.51,0,0,1,0,7h-7.12a.69.69,0,0,0,0,1.38Z" transform="translate(-6.42 -9.17)"/><path class="cls-2" d="M301.3,56.85a.85.85,0,1,0,1.7,0,.85.85,0,1,0-1.7,0Z" transform="translate(-6.42 -9.17)"/><path class="cls-2" d="M298.12,56.85a.85.85,0,1,0,1.7,0,.85.85,0,1,0-1.7,0Z" transform="translate(-6.42 -9.17)"/><path class="cls-2" d="M294.94,56.85a.85.85,0,0,0,.85.85.86.86,0,1,0-.85-.85Z" transform="translate(-6.42 -9.17)"/><path class="cls-2" d="M291.76,56.85a.86.86,0,0,0,1.71,0,.86.86,0,1,0-1.71,0Z" transform="translate(-6.42 -9.17)"/><path class="cls-2" d="M288.58,56.85a.86.86,0,1,0,.85-.86A.86.86,0,0,0,288.58,56.85Z" transform="translate(-6.42 -9.17)"/><path class="cls-2" d="M285.4,56.85a.86.86,0,0,0,.86.85.85.85,0,0,0,.85-.85.86.86,0,1,0-1.71,0Z" transform="translate(-6.42 -9.17)"/><path class="cls-2" d="M282.23,56.85a.85.85,0,1,0,1.7,0,.85.85,0,1,0-1.7,0Z" transform="translate(-6.42 -9.17)"/><path class="cls-2" d="M279.05,56.85a.85.85,0,1,0,1.7,0,.85.85,0,1,0-1.7,0Z" transform="translate(-6.42 -9.17)"/><path class="cls-2" d="M275.87,56.85a.85.85,0,0,0,.85.85.86.86,0,1,0-.85-.85Z" transform="translate(-6.42 -9.17)"/><path class="cls-2" d="M75.73,42.21a.86.86,0,1,0,.85-.85A.85.85,0,0,0,75.73,42.21Z" transform="translate(-6.42 -9.17)"/><path class="cls-2" d="M72.55,42.21a.86.86,0,1,0,.86-.85A.85.85,0,0,0,72.55,42.21Z" transform="translate(-6.42 -9.17)"/><path class="cls-2" d="M69.37,42.21a.86.86,0,1,0,1.71,0,.85.85,0,0,0-.85-.85A.86.86,0,0,0,69.37,42.21Z" transform="translate(-6.42 -9.17)"/><path class="cls-2" d="M66.2,42.21a.85.85,0,1,0,.85-.85A.85.85,0,0,0,66.2,42.21Z" transform="translate(-6.42 -9.17)"/><path class="cls-2" d="M63,42.21a.85.85,0,1,0,.85-.85A.85.85,0,0,0,63,42.21Z" transform="translate(-6.42 -9.17)"/><path class="cls-2" d="M59.84,42.21a.86.86,0,1,0,.85-.85A.85.85,0,0,0,59.84,42.21Z" transform="translate(-6.42 -9.17)"/><path class="cls-2" d="M56.66,42.21a.86.86,0,1,0,.85-.85A.85.85,0,0,0,56.66,42.21Z" transform="translate(-6.42 -9.17)"/><path class="cls-2" d="M53.48,42.21a.86.86,0,1,0,.86-.85A.85.85,0,0,0,53.48,42.21Z" transform="translate(-6.42 -9.17)"/><path class="cls-2" d="M50.3,42.21a.86.86,0,1,0,1.71,0,.85.85,0,0,0-.85-.85A.86.86,0,0,0,50.3,42.21Z" transform="translate(-6.42 -9.17)"/><path class="cls-2" d="M254.48,39.28a.85.85,0,1,0,.85-.85A.85.85,0,0,0,254.48,39.28Z" transform="translate(-6.42 -9.17)"/><path class="cls-2" d="M251.3,39.28a.85.85,0,1,0,.85-.85A.85.85,0,0,0,251.3,39.28Z" transform="translate(-6.42 -9.17)"/><path class="cls-2" d="M248.12,39.28a.85.85,0,0,0,.85.85.85.85,0,1,0,0-1.7A.85.85,0,0,0,248.12,39.28Z" transform="translate(-6.42 -9.17)"/><path class="cls-2" d="M244.94,39.28a.85.85,0,0,0,.85.85.85.85,0,1,0,0-1.7A.85.85,0,0,0,244.94,39.28Z" transform="translate(-6.42 -9.17)"/><path class="cls-2" d="M241.76,39.28a.86.86,0,1,0,.86-.85A.85.85,0,0,0,241.76,39.28Z" transform="translate(-6.42 -9.17)"/><path class="cls-2" d="M238.58,39.28a.86.86,0,0,0,.86.85.85.85,0,0,0,0-1.7A.86.86,0,0,0,238.58,39.28Z" transform="translate(-6.42 -9.17)"/><path class="cls-2" d="M235.41,39.28a.85.85,0,1,0,.85-.85A.85.85,0,0,0,235.41,39.28Z" transform="translate(-6.42 -9.17)"/><path class="cls-2" d="M232.23,39.28a.85.85,0,1,0,.85-.85A.85.85,0,0,0,232.23,39.28Z" transform="translate(-6.42 -9.17)"/><path class="cls-2" d="M229.05,39.28a.85.85,0,0,0,.85.85.85.85,0,1,0,0-1.7A.85.85,0,0,0,229.05,39.28Z" transform="translate(-6.42 -9.17)"/><path class="cls-2" d="M67.41,50.89h12.4a.69.69,0,1,0,0-1.37H67.41a.69.69,0,0,0,0,1.37Z" transform="translate(-6.42 -9.17)"/><path class="cls-2" d="M228.76,28.63h12.4a.69.69,0,0,0,.69-.69.68.68,0,0,0-.69-.68h-12.4a.67.67,0,0,0-.68.68A.68.68,0,0,0,228.76,28.63Z" transform="translate(-6.42 -9.17)"/><path class="cls-2" d="M26.32,61.19H42.14a.69.69,0,0,0,0-1.38H26.32a.69.69,0,0,0,0,1.38Z" transform="translate(-6.42 -9.17)"/><path class="cls-2" d="M271.4,40.79h15.81a.68.68,0,0,0,.69-.68.69.69,0,0,0-.69-.69H271.4a.69.69,0,0,0-.69.69A.68.68,0,0,0,271.4,40.79Z" transform="translate(-6.42 -9.17)"/><path class="cls-2" d="M64.34,28.6H80.76a.69.69,0,0,0,.69-.69.68.68,0,0,0-.69-.68H64.34a.67.67,0,0,0-.68.68A.68.68,0,0,0,64.34,28.6Z" transform="translate(-6.42 -9.17)"/><path class="cls-2" d="M179.68,30.13H196.1a.69.69,0,0,0,0-1.38H179.68a.69.69,0,1,0,0,1.38Z" transform="translate(-6.42 -9.17)"/><path class="cls-2" d="M19.81,31.93H30.23a.68.68,0,0,0,.69-.68.69.69,0,0,0-.69-.69H19.81a.69.69,0,0,0-.69.69A.68.68,0,0,0,19.81,31.93Z" transform="translate(-6.42 -9.17)"/><rect class="cls-3" x="81.54" y="32.88" width="23.09" height="2.47"/><path class="cls-2" d="M88.65,43.83h21.72V42.74H88.65v1.09ZM111,45.21H88a.7.7,0,0,1-.7-.71V42.07a.7.7,0,0,1,.7-.7H111a.7.7,0,0,1,.7.7V44.5A.7.7,0,0,1,111,45.21Z" transform="translate(-6.42 -9.17)"/><rect class="cls-3" x="60.63" y="51.79" width="20.66" height="3.27"/><path class="cls-2" d="M67.74,63.54H87v-1.9H67.74v1.9Zm20,1.37H67.07a.7.7,0,0,1-.71-.7V61a.7.7,0,0,1,.71-.7H87.69a.7.7,0,0,1,.7.7v3.24A.7.7,0,0,1,87.69,64.91Z" transform="translate(-6.42 -9.17)"/><rect class="cls-3" x="282.9" y="80.34" width="13.92" height="5.5"/><rect class="cls-3" x="303.25" y="85.84" width="2.52" height="3.13"/><path class="cls-2" d="M288,95.87h16.7a.72.72,0,1,0,0-1.43H288a.72.72,0,1,0,0,1.43Z" transform="translate(-6.42 -9.17)"/><path class="cls-2" d="M289.52,93.13H303.2a.72.72,0,0,0,0-1.44H289.52a.72.72,0,0,0,0,1.44Z" transform="translate(-6.42 -9.17)"/><path class="cls-2" d="M289.52,90.5H303.2a.72.72,0,0,0,0-1.44H289.52a.72.72,0,0,0,0,1.44Z" transform="translate(-6.42 -9.17)"/><path class="cls-2" d="M301.41,99.11h1.5a.72.72,0,0,0,0-1.43h-.78V95.6a.72.72,0,1,0-1.43,0v2.8A.71.71,0,0,0,301.41,99.11Z" transform="translate(-6.42 -9.17)"/><path class="cls-2" d="M289.4,99.11h1.23a.72.72,0,0,0,.72-.71V95.6a.72.72,0,1,0-1.44,0v2.08h-.51a.72.72,0,1,0,0,1.43Z" transform="translate(-6.42 -9.17)"/><path class="cls-2" d="M310.28,97.56h1l.34-1.83h-1.67l.37,1.83ZM311.84,99H309.7a.73.73,0,0,1-.71-.58l-.66-3.27a.69.69,0,0,1,.14-.59.72.72,0,0,1,.56-.27h3.41a.73.73,0,0,1,.71.85l-.61,3.27A.72.72,0,0,1,311.84,99Z" transform="translate(-6.42 -9.17)"/><path class="cls-2" d="M304.71,89.78a.7.7,0,1,0,.7-.7A.7.7,0,0,0,304.71,89.78Z" transform="translate(-6.42 -9.17)"/><path class="cls-2" d="M286.57,92.32a.7.7,0,1,0,.7-.7A.7.7,0,0,0,286.57,92.32Z" transform="translate(-6.42 -9.17)"/><rect class="cls-3" x="198.63" y="73.52" width="37.38" height="15.05"/><path class="cls-2" d="M205.73,97.05h36V83.38h-36V97.05Zm36.68,1.37H205.06a.7.7,0,0,1-.7-.7v-15a.7.7,0,0,1,.7-.7h37.35a.7.7,0,0,1,.7.7v15A.7.7,0,0,1,242.41,98.42Z" transform="translate(-6.42 -9.17)"/><rect class="cls-3" x="202.14" y="77.9" width="5.27" height="5.27"/><rect class="cls-3" x="210.93" y="77.86" width="4.36" height="5.42"/><rect class="cls-3" x="219.58" y="77.9" width="4.37" height="4.82"/><rect class="cls-3" x="227.4" y="77.9" width="4.82" height="4.82"/><rect class="cls-3" x="227.48" y="77.9" width="4.74" height="5.38"/><path class="cls-2" d="M234.59,91.77H238v-4h-3.37v4Zm4,1.37h-4.71a.7.7,0,0,1-.71-.7V87.09a.7.7,0,0,1,.71-.7h4.71a.7.7,0,0,1,.7.7v5.35A.7.7,0,0,1,238.63,93.14Z" transform="translate(-6.42 -9.17)"/><rect class="cls-3" x="219.2" y="77.9" width="4.74" height="5.38"/><path class="cls-2" d="M226.31,91.77h3.37v-4h-3.37v4Zm4,1.37h-4.71a.7.7,0,0,1-.7-.7V87.09a.7.7,0,0,1,.7-.7h4.71a.7.7,0,0,1,.71.7v5.35A.7.7,0,0,1,230.35,93.14Z" transform="translate(-6.42 -9.17)"/><path class="cls-2" d="M218,91.77h3.38v-4H218v4Zm4.06,1.37h-4.74a.69.69,0,0,1-.69-.68V87.07a.68.68,0,0,1,.69-.68h4.74a.68.68,0,0,1,.69.68v5.39A.69.69,0,0,1,222.09,93.14Z" transform="translate(-6.42 -9.17)"/><path class="cls-2" d="M209.76,91.77h3.37v-4h-3.37v4Zm4.06,1.37h-4.75a.69.69,0,0,1-.69-.68V87.07a.68.68,0,0,1,.69-.68h4.75a.68.68,0,0,1,.68.68v5.39A.69.69,0,0,1,213.82,93.14Z" transform="translate(-6.42 -9.17)"/><rect class="cls-3" x="198.63" y="58.48" width="37.38" height="15.05"/><path class="cls-2" d="M205.73,82h36V68.33h-36V82Zm36.68,1.37H205.06a.71.71,0,0,1-.7-.71v-15a.71.71,0,0,1,.7-.7h37.35a.7.7,0,0,1,.7.7v15A.7.7,0,0,1,242.41,83.38Z" transform="translate(-6.42 -9.17)"/><rect class="cls-3" x="198.63" y="71.54" width="37.38" height="1.98"/><path class="cls-2" d="M205.73,82h36v-.62h-36V82Zm36.68,1.37H205.06a.71.71,0,0,1-.7-.71v-2a.71.71,0,0,1,.7-.7h37.35a.7.7,0,0,1,.7.7v2A.7.7,0,0,1,242.41,83.38Z" transform="translate(-6.42 -9.17)"/><rect class="cls-3" x="209.88" y="48.37" width="14.74" height="2.98"/><path class="cls-2" d="M216.88,60.28h13.71V58.23H216.88v2.05Zm14.4,1.37H216.2a.69.69,0,0,1-.69-.68V57.54a.69.69,0,0,1,.69-.69h15.08a.68.68,0,0,1,.68.69V61A.68.68,0,0,1,231.28,61.65Z" transform="translate(-6.42 -9.17)"/><rect class="cls-3" x="227.48" y="62.86" width="4.74" height="5.38"/><rect class="cls-3" x="219.58" y="63.27" width="4.37" height="4.74"/><rect class="cls-3" x="210.93" y="63.04" width="4.36" height="5.2"/><rect class="cls-3" x="202.66" y="62.86" width="4.33" height="5.15"/><polygon class="cls-1" points="197.47 58.48 237.16 58.48 236 51.8 198.63 51.8 197.47 58.48"/><path class="cls-2" d="M204.71,67h38.06l-.92-5.31H205.63L204.71,67Zm38.87,1.37H203.89a.68.68,0,0,1-.68-.8l1.16-6.68a.69.69,0,0,1,.68-.57h37.38a.68.68,0,0,1,.67.57l1.16,6.68a.67.67,0,0,1-.15.56A.7.7,0,0,1,243.58,68.33Z" transform="translate(-6.42 -9.17)"/><path class="cls-2" d="M234.59,76.72H238v-4h-3.37v4Zm4.06,1.38H233.9a.69.69,0,0,1-.69-.69V72a.69.69,0,0,1,.69-.69h4.75a.69.69,0,0,1,.68.69v5.38A.69.69,0,0,1,238.65,78.1Z" transform="translate(-6.42 -9.17)"/><path class="cls-2" d="M226.31,76.72h3.37v-4h-3.37v4Zm4.06,1.38h-4.75a.68.68,0,0,1-.68-.69V72a.68.68,0,0,1,.68-.69h4.75a.69.69,0,0,1,.69.69v5.38A.69.69,0,0,1,230.37,78.1Z" transform="translate(-6.42 -9.17)"/><path class="cls-2" d="M218,76.72h3.38v-4H218v4Zm4.06,1.38h-4.74a.69.69,0,0,1-.69-.69V72a.69.69,0,0,1,.69-.69h4.74a.69.69,0,0,1,.69.69v5.38A.69.69,0,0,1,222.09,78.1Z" transform="translate(-6.42 -9.17)"/><rect class="cls-3" x="202.65" y="62.86" width="4.74" height="5.38"/><path class="cls-2" d="M209.76,76.72h3.37v-4h-3.37v4Zm4,1.38h-4.71a.71.71,0,0,1-.71-.71V72a.71.71,0,0,1,.71-.7h4.71a.7.7,0,0,1,.7.7v5.35A.7.7,0,0,1,213.8,78.1Z" transform="translate(-6.42 -9.17)"/><rect class="cls-3" x="112.77" y="23.99" width="33.67" height="3.71"/><path class="cls-2" d="M119.88,36.84h32.29v-3H119.88v3Zm33,1.37H119.19a.68.68,0,0,1-.68-.69V33.16a.68.68,0,0,1,.68-.69h33.67a.68.68,0,0,1,.68.69v4.36A.69.69,0,0,1,152.86,38.21Z" transform="translate(-6.42 -9.17)"/><rect class="cls-3" x="79.04" y="77.75" width="28.1" height="10.74"/><path class="cls-2" d="M86.14,97h26.73V87.61H86.14V97Zm27.4,1.38H85.48a.71.71,0,0,1-.71-.71V86.94a.71.71,0,0,1,.71-.71h28.06a.71.71,0,0,1,.71.71v10.7A.71.71,0,0,1,113.54,98.35Z" transform="translate(-6.42 -9.17)"/><rect class="cls-3" x="93.09" y="83.17" width="8.13" height="5.35"/><path class="cls-2" d="M100.2,97H107V93H100.2v4Zm7.43,1.38h-8.1a.71.71,0,0,1-.71-.71V92.36a.71.71,0,0,1,.71-.71h8.1a.71.71,0,0,1,.7.71v5.31A.71.71,0,0,1,107.63,98.38Z" transform="translate(-6.42 -9.17)"/><rect class="cls-3" x="84.97" y="83.17" width="8.13" height="5.35"/><path class="cls-2" d="M92.08,97h6.76V93H92.08v4Zm7.43,1.38h-8.1a.71.71,0,0,1-.71-.71V92.36a.71.71,0,0,1,.71-.71h8.1a.7.7,0,0,1,.7.71v5.31A.7.7,0,0,1,99.51,98.38Z" transform="translate(-6.42 -9.17)"/><rect class="cls-3" x="168.88" y="77.75" width="29.2" height="10.74"/><path class="cls-2" d="M176,97h27.83V87.61H176V97Zm28.5,1.38H175.32a.71.71,0,0,1-.71-.71V86.94a.71.71,0,0,1,.71-.71h29.17a.7.7,0,0,1,.7.71v10.7A.7.7,0,0,1,204.49,98.35Z" transform="translate(-6.42 -9.17)"/><rect class="cls-3" x="183.48" y="83.17" width="8.45" height="5.35"/><path class="cls-2" d="M190.59,97h7.08V93h-7.08v4Zm7.75,1.38h-8.42a.7.7,0,0,1-.7-.71V92.36a.7.7,0,0,1,.7-.71h8.42a.7.7,0,0,1,.7.71v5.31A.7.7,0,0,1,198.34,98.38Z" transform="translate(-6.42 -9.17)"/><rect class="cls-3" x="175.04" y="83.17" width="8.45" height="5.35"/><path class="cls-2" d="M182.15,97h7.08V93h-7.08v4Zm7.75,1.38h-8.42a.7.7,0,0,1-.7-.71V92.36a.7.7,0,0,1,.7-.71h8.42a.7.7,0,0,1,.7.71v5.31A.7.7,0,0,1,189.9,98.38Z" transform="translate(-6.42 -9.17)"/><path class="cls-2" d="M364.08,95.24a.76.76,0,0,1-.76.77.77.77,0,1,1,0-1.53A.76.76,0,0,1,364.08,95.24Z" transform="translate(-6.42 -9.17)"/><path class="cls-2" d="M358.84,97.29a.7.7,0,0,1-.7-.71V94a2,2,0,0,0-.6-1.44L357,92a1.75,1.75,0,0,1,0-2.47l.54-.54A1.74,1.74,0,0,1,360,89l.53.52a2,2,0,0,0,1.44.6h.6a.7.7,0,0,1,0,1.4H362a3.41,3.41,0,0,1-2.43-1L359,90a.31.31,0,0,0-.24-.1.33.33,0,0,0-.24.1l-.54.54a.33.33,0,0,0,0,.48l.56.57a3.41,3.41,0,0,1,1,2.43v2.56A.7.7,0,0,1,358.84,97.29Z" transform="translate(-6.42 -9.17)"/><path class="cls-2" d="M362.49,87.27a1.35,1.35,0,1,1-1.34-1.35A1.34,1.34,0,0,1,362.49,87.27Z" transform="translate(-6.42 -9.17)"/><path class="cls-2" d="M354.15,93.38A1.87,1.87,0,1,0,356,95.24a1.86,1.86,0,0,0-1.87-1.86Zm0,5.13a3.27,3.27,0,1,1,3.27-3.27A3.27,3.27,0,0,1,354.15,98.51Z" transform="translate(-6.42 -9.17)"/><path class="cls-2" d="M363.39,93.38a1.87,1.87,0,1,0,1.87,1.86,1.86,1.86,0,0,0-1.87-1.86Zm0,5.13a3.27,3.27,0,1,1,3.27-3.27A3.27,3.27,0,0,1,363.39,98.51Z" transform="translate(-6.42 -9.17)"/><polygon class="cls-1" points="162.72 30.66 158.61 36.01 224.79 36.01 221.56 30.66 162.72 30.66"/><path class="cls-2" d="M166.69,44.35h63.06l-2.23-3.7h-58l-2.86,3.7ZM231.21,46H165a.82.82,0,0,1-.74-.46.81.81,0,0,1,.09-.86l4.11-5.34a.84.84,0,0,1,.65-.32H228a.82.82,0,0,1,.7.4l3.23,5.34a.82.82,0,0,1-.7,1.24Z" transform="translate(-6.42 -9.17)"/><path class="cls-2" d="M343.29,52.53a7.81,7.81,0,0,1-1.86,4.6,14.22,14.22,0,0,1-3.66,3.36l-.69-.19c1.59-2,4.15-5.94,3.85-10.35a8.86,8.86,0,0,0-1.16-4,6.86,6.86,0,0,1,.76.45c1.91,1.3,2.84,3.36,2.76,6.12Zm-12.16,7.95c-2.54-1.76-5.44-4.52-5.54-7.95-.12-3.92,1.87-5.74,3.52-6.58A8.63,8.63,0,0,0,328,50c-.3,4.42,2.26,8.36,3.84,10.35l-.66.18Zm2.26-.45.38,0V44.26c-1.34.28-4.13,1.38-4.42,5.78s2.72,8.46,4,10Zm1.78,0,.31,0c1.33-1.54,4.35-5.54,4-10s-3-5.46-4.36-5.76V60Zm6.14-14.76a8.41,8.41,0,0,0-3.54-1.38h0a6.69,6.69,0,0,0-3.26-1.1h-.12a6.72,6.72,0,0,0-3.27,1.1h0a8.46,8.46,0,0,0-3.54,1.38c-1.61,1.09-3.49,3.25-3.37,7.32.09,3.28,2.32,6.49,6.44,9.27A.78.78,0,0,0,331,62a.93.93,0,0,0,.23,0,9.57,9.57,0,0,1,3.31-.53,9.7,9.7,0,0,1,3.06.53.75.75,0,0,0,.57-.05A15.35,15.35,0,0,0,342.54,58a9.22,9.22,0,0,0,2.15-5.43C344.81,48.5,342.92,46.34,341.31,45.25Z" transform="translate(-6.42 -9.17)"/><path class="cls-2" d="M335.54,65.43a.71.71,0,0,1-.71.71h-.77a.71.71,0,0,1-.71-.71V63.76a4.42,4.42,0,0,1,1.15-.14,4.57,4.57,0,0,1,1,.14v1.67Zm.94-2.84a5.68,5.68,0,0,0-2-.37,5.92,5.92,0,0,0-2.12.37.7.7,0,0,0-.46.65v2.19a2.12,2.12,0,0,0,2.12,2.11h.77a2.1,2.1,0,0,0,2.11-2.11V63.24A.69.69,0,0,0,336.48,62.59Z" transform="translate(-6.42 -9.17)"/><path class="cls-2" d="M393.88,100.22h-366a2.9,2.9,0,0,1-1.71-.5,1.58,1.58,0,0,1-.75-1.29.66.66,0,0,0-.31-.53,1.29,1.29,0,0,0-.74-.22h-.15a1.32,1.32,0,0,0-.74.22.67.67,0,0,0-.3.53,1.59,1.59,0,0,1-.76,1.29,2.89,2.89,0,0,1-1.7.5h-.4a2.87,2.87,0,0,1-1.7-.5,1.59,1.59,0,0,1-.76-1.29.67.67,0,0,0-.3-.53,1.32,1.32,0,0,0-.74-.22h-.15a1.29,1.29,0,0,0-.74.22.66.66,0,0,0-.31.53,1.55,1.55,0,0,1-.75,1.29,2.88,2.88,0,0,1-1.71.5h-.39a2.92,2.92,0,0,1-1.71-.5,1.6,1.6,0,0,1-.75-1.29.67.67,0,0,0-.3-.53,1.33,1.33,0,0,0-.75-.22H9.16a1.27,1.27,0,0,0-.74.22.66.66,0,0,0-.31.53,1.6,1.6,0,0,1-.75,1.29,2.85,2.85,0,0,1-.94.42v1.54a5.3,5.3,0,0,0,2.4-.88,3.47,3.47,0,0,0,.41-.33,4.54,4.54,0,0,0,.41.33,5.59,5.59,0,0,0,3.22.93h.39a5.58,5.58,0,0,0,3.13-.93,4.39,4.39,0,0,0,.4-.33c.13.12.27.22.41.33a5.64,5.64,0,0,0,3.22.93h.39a5.55,5.55,0,0,0,3.13-.93,4.54,4.54,0,0,0,.41-.33,3.47,3.47,0,0,0,.41.33,5.3,5.3,0,0,0,2.16.85,1.33,1.33,0,0,0,.45.08H562.14v-1.51Z" transform="translate(-6.42 -9.17)"/><path class="cls-2" d="M320.72,75.56a.78.78,0,0,0-.77.77.77.77,0,0,0,.77.76.76.76,0,0,0,.76-.76.77.77,0,0,0-.76-.77Zm18.46,4.5a8.21,8.21,0,0,1,4.06-.64.7.7,0,0,0,.15-1.4,9.66,9.66,0,0,0-4.74.74.7.7,0,0,0-.39.91.71.71,0,0,0,.65.44.86.86,0,0,0,.27,0Zm-13.3,0a.85.85,0,0,1-.26,0,8.23,8.23,0,0,0-4.06-.64.7.7,0,0,1-.16-1.4,9.7,9.7,0,0,1,4.75.74.7.7,0,0,1-.27,1.35Z" transform="translate(-6.42 -9.17)"/><path class="cls-5" d="M137.42,97.91H134.1V97h1.25v.17a.69.69,0,1,0,1.38,0V97h.67v.75A1.23,1.23,0,0,0,137.42,97.91Z" transform="translate(-6.42 -9.17)"/><path class="cls-5" d="M136,97.83a.69.69,0,0,1-.69-.69V79.55l.93-3.26h.45v.34l-1,5.79a.71.71,0,0,0,.68.81h.33V97.14A.69.69,0,0,1,136,97.83Z" transform="translate(-6.42 -9.17)"/><path class="cls-5" d="M138.09,97.91h-.67a1.23,1.23,0,0,1,0-.19V83.23h.69Z" transform="translate(-6.42 -9.17)"/><path class="cls-5" d="M138.09,83.23H136.4a.71.71,0,0,1-.68-.81l1-5.79.06-.34h1.3v.54l-.87,5h.87Z" transform="translate(-6.42 -9.17)"/><rect class="cls-6" x="195.86" y="59.92" width="2.08" height="1.02"/><rect class="cls-6" x="195.86" y="67.5" width="2.08" height="1.02"/><path class="cls-5" d="M204.36,85.89h-2.08V84.51h1.64V82.78h-1.64V81.4h2.08v4.49Z" transform="translate(-6.42 -9.17)"/><path class="cls-5" d="M205.05,86.51a.7.7,0,0,0-.56-.28h-.13V82.69a.7.7,0,0,0,.69.69Z" transform="translate(-6.42 -9.17)"/><path class="cls-5" d="M204.36,82.67h0V68.33h.69V80a.71.71,0,0,0-.69.7Z" transform="translate(-6.42 -9.17)"/><path class="cls-5" d="M205.05,83.38a.7.7,0,0,1-.69-.69v0h0v-2a.71.71,0,0,1,.69-.7Z" transform="translate(-6.42 -9.17)"/><path class="cls-5" d="M205.05,68.33h-1.16a.71.71,0,0,1-.53-.24,1,1,0,0,1-.1-.17h1.79Z" transform="translate(-6.42 -9.17)"/><path class="cls-5" d="M205.05,97.91h-2.77V97h1.54V87.61h-1.54V86.23h2.21a.7.7,0,0,1,.56.28Z" transform="translate(-6.42 -9.17)"/><polygon class="cls-5" points="115.16 63.34 112.35 63.34 112.35 63.17 115.11 63.17 115.11 59.22 112.35 59.22 112.35 58.53 115.16 58.53 115.16 63.34"/><polygon class="cls-5" points="115.16 68.84 112.35 68.84 112.35 68.67 115.11 68.67 115.11 64.71 112.35 64.71 112.35 63.34 115.16 63.34 115.16 68.84"/><polygon class="cls-5" points="115.16 79.58 115.11 79.58 115.11 75.71 112.35 75.71 112.35 74.34 115.16 74.34 115.16 79.58"/><polygon class="cls-5" points="115.16 85.29 112.35 85.29 112.35 84.9 115.11 84.9 115.11 80.95 112.35 80.95 112.35 79.58 115.11 79.58 115.16 79.58 115.16 85.29"/><polygon class="cls-5" points="115.8 85.29 115.16 85.29 115.16 79.58 115.16 74.34 115.16 68.84 115.16 63.34 115.16 58.53 115.8 58.53 115.8 85.29"/><path class="cls-5" d="M84.82,97.91h-.09v-.72h0v.45a.76.76,0,0,0,0,.27Zm2.46-11.68H87V64.91h.29Z" transform="translate(-6.42 -9.17)"/><path class="cls-5" d="M87.71,86.23h-.43V64.91h.43Z" transform="translate(-6.42 -9.17)"/><path class="cls-5" d="M87.69,64.91h-3V63.54H87v-1.9H84.73V60.51h3v4.4Z" transform="translate(-6.42 -9.17)"/><path class="cls-5" d="M87.71,97.91H84.82a.76.76,0,0,1,0-.27V86.94a.71.71,0,0,1,.71-.71h2.23v1.38H86.14V97h1.57Z" transform="translate(-6.42 -9.17)"/><path class="cls-5" d="M121.58,31.07h-3.75a.68.68,0,0,1-.69-.68.69.69,0,0,1,.69-.69h3.87a.71.71,0,0,0-.12.38Z" transform="translate(-6.42 -9.17)"/><path class="cls-5" d="M121.58,43.24h-3.75a.69.69,0,0,1-.69-.69.68.68,0,0,1,.69-.68h3.75Z" transform="translate(-6.42 -9.17)"/><path class="cls-5" d="M121.58,40.79h-2.81a.68.68,0,0,1-.69-.68v-6a.7.7,0,0,1,.43-.64v4a.68.68,0,0,0,.68.69h.27v1.21H121V38.21h.58Z" transform="translate(-6.42 -9.17)"/><path class="cls-5" d="M121.58,55.4h-3.75a.68.68,0,0,1-.69-.68.69.69,0,0,1,.69-.69h3.75Z" transform="translate(-6.42 -9.17)"/><path class="cls-5" d="M121.58,53h-2.81a.69.69,0,0,1-.69-.69v-6a.68.68,0,0,1,.69-.68h2.81V53Zm-2.12-6v4.61H121V47Z" transform="translate(-6.42 -9.17)"/><path class="cls-5" d="M121.58,66.88h-4.44a.69.69,0,0,1,.69-.69h3.75Z" transform="translate(-6.42 -9.17)"/><path class="cls-5" d="M121.58,65.12h-2.81a.68.68,0,0,1-.69-.68v-6a.69.69,0,0,1,.69-.69h2.81v7.35Zm-2.12-6v4.61H121V59.14Z" transform="translate(-6.42 -9.17)"/><path class="cls-5" d="M122,66.88h-.4V38.21h.4V66.88Zm0-34.41h-.4V30.08a.71.71,0,0,1,.12-.38.66.66,0,0,1,.28-.24Z" transform="translate(-6.42 -9.17)"/><path class="cls-5" d="M122,38.21h-2.79a.68.68,0,0,1-.68-.69V33.16a.68.68,0,0,1,.68-.69H122v1.37h-2.1v3H122Z" transform="translate(-6.42 -9.17)"/></svg>