<?xml version="1.0" encoding="UTF-8"?><svg id="Capa_2" xmlns="http://www.w3.org/2000/svg" viewBox="0 0 139.71 90.6"><defs><style>.cls-1{fill:#fff;}.cls-2{fill:#d02526;}.cls-3{fill:#183f84;}.cls-4{fill:#373737;}</style></defs><g id="Capa_1-2"><g><g><rect class="cls-1" x="1.09" y="60.03" width="137.53" height="10.92"/><path class="cls-4" d="M138.62,72.04H1.09c-.6,0-1.09-.49-1.09-1.09v-10.92c0-.6,.49-1.09,1.09-1.09H138.62c.6,0,1.09,.49,1.09,1.09v10.92c0,.6-.49,1.09-1.09,1.09ZM2.18,69.86H137.53v-8.73H2.18v8.73Z"/></g><path class="cls-4" d="M18.56,90.6c-.6,0-1.09-.49-1.09-1.09v-14.19c0-.6,.49-1.09,1.09-1.09s1.09,.49,1.09,1.09v14.19c0,.6-.49,1.09-1.09,1.09Z"/><path class="cls-4" d="M9.82,90.6c-.6,0-1.09-.49-1.09-1.09v-14.19c0-.6,.49-1.09,1.09-1.09s1.09,.49,1.09,1.09v14.19c0,.6-.49,1.09-1.09,1.09Z"/><path class="cls-4" d="M129.89,90.6c-.6,0-1.09-.49-1.09-1.09v-14.19c0-.6,.49-1.09,1.09-1.09s1.09,.49,1.09,1.09v14.19c0,.6-.49,1.09-1.09,1.09Z"/><path class="cls-4" d="M121.16,90.6c-.6,0-1.09-.49-1.09-1.09v-14.19c0-.6,.49-1.09,1.09-1.09s1.09,.49,1.09,1.09v14.19c0,.6-.49,1.09-1.09,1.09Z"/><g><polyline class="cls-3" points="116.79 55.67 116.79 40.39 133.17 40.39 133.17 55.67"/><path class="cls-4" d="M133.17,56.76c-.6,0-1.09-.49-1.09-1.09v-14.19h-14.19v14.19c0,.6-.49,1.09-1.09,1.09s-1.09-.49-1.09-1.09v-15.28c0-.6,.49-1.09,1.09-1.09h16.37c.6,0,1.09,.49,1.09,1.09v15.28c0,.6-.49,1.09-1.09,1.09Z"/></g><path class="cls-4" d="M124.43,37.11c-.6,0-1.09-.49-1.09-1.09v-9.82h-2.18v9.82c0,.6-.49,1.09-1.09,1.09s-1.09-.49-1.09-1.09v-10.92c0-.6,.49-1.09,1.09-1.09h4.37c.6,0,1.09,.49,1.09,1.09v10.92c0,.6-.49,1.09-1.09,1.09Z"/><path class="cls-4" d="M128.8,37.11c-.12,0-.23-.02-.34-.05-.57-.19-.88-.81-.69-1.38l1.7-5.11h-2.07l-1.93,5.8c-.19,.57-.81,.88-1.38,.69s-.88-.81-.69-1.38l2.18-6.55c.15-.44,.57-.74,1.04-.74h4.37c.35,0,.68,.17,.88,.45,.21,.28,.26,.65,.15,.98l-2.18,6.55c-.15,.46-.58,.75-1.03,.75Z"/><path class="cls-4" d="M87.32,56.76c-.6,0-1.09-.49-1.09-1.09v-18.56h-10.92v18.56c0,.6-.49,1.09-1.09,1.09s-1.09-.49-1.09-1.09v-19.65c0-.6,.49-1.09,1.09-1.09h13.1c.6,0,1.09,.49,1.09,1.09v19.65c0,.6-.49,1.09-1.09,1.09Z"/><path class="cls-4" d="M105.88,45.84h-14.19c-.6,0-1.09-.49-1.09-1.09s.49-1.09,1.09-1.09h14.19c2.41,0,4.37-1.96,4.37-4.37V6.55c0-2.41-1.96-4.37-4.37-4.37H55.67c-2.41,0-4.37,1.96-4.37,4.37V39.29c0,2.41,1.96,4.37,4.37,4.37h14.19c.6,0,1.09,.49,1.09,1.09s-.49,1.09-1.09,1.09h-14.19c-3.61,0-6.55-2.94-6.55-6.55V6.55c0-3.61,2.94-6.55,6.55-6.55h50.21c3.61,0,6.55,2.94,6.55,6.55V39.29c0,3.61-2.94,6.55-6.55,6.55Z"/><path class="cls-4" d="M80.87,28.38c-3.01,0-5.46-2.45-5.46-5.46s2.45-5.46,5.46-5.46,5.46,2.45,5.46,5.46-2.45,5.46-5.46,5.46Zm0-8.73c-1.81,0-3.27,1.47-3.27,3.27s1.47,3.27,3.27,3.27,3.27-1.47,3.27-3.27-1.47-3.27-3.27-3.27Z"/><path class="cls-4" d="M19.65,61.13c-.43,0-.83-.25-1.01-.67L7.73,34.26c-.14-.33-.1-.7,.08-1L18.72,15.79c.2-.32,.55-.51,.92-.51h7.64c.6,0,1.09,.49,1.09,1.09s-.49,1.09-1.09,1.09h-7.04l-10.3,16.47,10.7,25.68c.23,.56-.03,1.2-.59,1.43-.14,.05-.28,.08-.42,.08Z"/><g><path class="cls-1" d="M19.65,51.3c-4.82,0-8.73,3.91-8.73,8.73H28.38c0-4.82-3.91-8.73-8.73-8.73Z"/><path class="cls-4" d="M28.38,61.13H10.92c-.6,0-1.09-.49-1.09-1.09,0-5.42,4.41-9.82,9.82-9.82s9.82,4.41,9.82,9.82c0,.6-.49,1.09-1.09,1.09Zm-16.29-2.18h15.13c-.53-3.7-3.72-6.55-7.56-6.55s-7.03,2.85-7.56,6.55Z"/></g><g><polygon class="cls-1" points="41.48 26.2 24.01 26.2 27.29 16.37 38.2 16.37 41.48 26.2"/><path class="cls-4" d="M41.48,27.29H24.01c-.35,0-.68-.17-.89-.45-.21-.28-.26-.65-.15-.98l3.27-9.82c.15-.45,.57-.75,1.03-.75h10.92c.47,0,.89,.3,1.03,.75l3.27,9.82c.11,.33,.05,.7-.15,.98-.21,.29-.53,.45-.89,.45Zm-15.95-2.18h14.43l-2.55-7.64h-9.34l-2.55,7.64Z"/></g><g><path class="cls-1" d="M32.75,9.82h0c-3.01,0-5.46,2.44-5.46,5.46v1.09h10.92v-1.09c0-3.01-2.44-5.46-5.46-5.46Z"/><path class="cls-4" d="M38.2,17.46h-10.92c-.6,0-1.09-.49-1.09-1.09v-1.09c0-3.61,2.94-6.55,6.55-6.55s6.55,2.94,6.55,6.55v1.09c0,.6-.49,1.09-1.09,1.09Zm-9.82-2.18h8.73c0-2.41-1.96-4.37-4.37-4.37s-4.37,1.96-4.37,4.37Z"/></g><g><circle class="cls-2" cx="8.73" cy="33.84" r="4.37"/><path class="cls-4" d="M8.73,39.29c-3.01,0-5.46-2.45-5.46-5.46s2.45-5.46,5.46-5.46,5.46,2.45,5.46,5.46-2.45,5.46-5.46,5.46Zm0-8.73c-1.81,0-3.27,1.47-3.27,3.27s1.47,3.27,3.27,3.27,3.27-1.47,3.27-3.27-1.47-3.27-3.27-3.27Z"/></g><path class="cls-4" d="M104.79,19.65c-.6,0-1.09-.49-1.09-1.09V9.82c0-.6-.49-1.09-1.09-1.09h-8.73c-.6,0-1.09-.49-1.09-1.09s.49-1.09,1.09-1.09h8.73c1.81,0,3.27,1.47,3.27,3.27v8.73c0,.6-.49,1.09-1.09,1.09Z"/></g></g></svg>