<?xml version="1.0" encoding="UTF-8"?><svg id="Capa_2" xmlns="http://www.w3.org/2000/svg" viewBox="0 0 53.73 53.73"><defs><style>.cls-1{fill:#fff;}.cls-2{fill:#183f84;}</style></defs><g id="Capa_1-2"><g><rect class="cls-1" x="14.43" y="8.08" width="24.88" height="45.65"/><path class="cls-2" d="M53.73,14.06c0-7.73-6.33-14.06-14.06-14.06H14.06C6.33,0,0,6.33,0,14.06v25.62c0,7.73,6.33,14.06,14.06,14.06h8.61v-18.22h-6.82v-7.77h6.82v-5.92c0-6.73,4.01-10.45,10.15-10.45,2.94,0,6.01,.52,6.01,.52v6.61h-3.39c-3.34,0-4.38,2.07-4.38,4.2v5.04h7.45l-1.19,7.77h-6.26v18.22h8.61c7.73,0,14.06-6.33,14.06-14.06V14.06Z"/></g></g></svg>