<?xml version="1.0" encoding="UTF-8"?><svg id="Capa_2" xmlns="http://www.w3.org/2000/svg" viewBox="0 0 156 160.47"><defs><style>.cls-1{fill:#fff;}.cls-2{fill:#d02526;}.cls-3{fill:#183f85;}.cls-4{fill:#373737;}</style></defs><g id="Capa_1-2"><g><path class="cls-4" d="M31.2,92.39H9.93c-.78,0-1.42-.64-1.42-1.42s.64-1.42,1.42-1.42H31.2c.78,0,1.42,.64,1.42,1.42s-.64,1.42-1.42,1.42Z"/><path class="cls-4" d="M4.25,92.39H1.42c-.78,0-1.42-.64-1.42-1.42s.64-1.42,1.42-1.42h2.84c.78,0,1.42,.64,1.42,1.42s-.64,1.42-1.42,1.42Z"/><path class="cls-4" d="M146.08,92.39h-21.27c-.78,0-1.42-.64-1.42-1.42s.64-1.42,1.42-1.42h21.27c.78,0,1.42,.64,1.42,1.42s-.64,1.42-1.42,1.42Z"/><path class="cls-4" d="M154.59,92.39h-2.84c-.78,0-1.42-.64-1.42-1.42s.64-1.42,1.42-1.42h2.84c.78,0,1.42,.64,1.42,1.42s-.64,1.42-1.42,1.42Z"/><path class="cls-4" d="M78,89.55c-15.28,0-28.34-10.4-31.76-25.29-.18-.76,.3-1.52,1.06-1.7,.77-.17,1.52,.3,1.7,1.06,3.13,13.6,15.05,23.09,29,23.09s25.87-9.5,29-23.09c.18-.76,.94-1.24,1.7-1.06,.77,.18,1.24,.94,1.06,1.7-3.42,14.89-16.48,25.29-31.76,25.29Z"/><g><path class="cls-1" d="M49.64,54.1h-1.42v-18.44h8.51v11.35c0,3.92-3.17,7.09-7.09,7.09Z"/><path class="cls-4" d="M49.64,55.52h-1.42c-.78,0-1.42-.64-1.42-1.42v-18.44c0-.78,.64-1.42,1.42-1.42h8.51c.78,0,1.42,.64,1.42,1.42v11.35c0,4.69-3.82,8.51-8.51,8.51Zm0-2.84h0Zm0-15.6v15.6c3.13,0,5.67-2.54,5.67-5.67v-9.93h-5.67Z"/></g><g><path class="cls-1" d="M97.86,35.66H48.22c0-11.75,9.52-21.27,21.27-21.27h14.76c6.16,0,12.24-1.34,17.83-3.92l9.95-4.59v15.6c0,7.83-6.35,14.18-14.18,14.18Z"/><path class="cls-4" d="M97.86,37.08H48.22c-.78,0-1.42-.64-1.42-1.42,0-12.51,10.18-22.69,22.69-22.69h14.77c5.91,0,11.87-1.31,17.23-3.79l9.95-4.59c.44-.2,.95-.17,1.36,.09,.41,.26,.65,.71,.65,1.19v15.6c0,8.6-7,15.6-15.6,15.6Zm-48.17-2.84h48.17c7.04,0,12.76-5.73,12.76-12.76V8.1l-7.94,3.66c-5.74,2.65-12.11,4.05-18.42,4.05h-14.77c-10.47,0-19.07,8.15-19.8,18.44Z"/></g><g><path class="cls-1" d="M99.28,35.52v11.49c0,3.92,3.17,7.09,7.09,7.09h1.42V31.59c-2.24,2.2-5.21,3.59-8.51,3.93Z"/><path class="cls-4" d="M107.78,55.52h-1.42c-4.69,0-8.51-3.82-8.51-8.51v-11.49c0-.73,.55-1.34,1.28-1.41,2.92-.29,5.64-1.55,7.66-3.53,.41-.4,1.02-.51,1.54-.29,.53,.22,.87,.74,.87,1.31v22.51c0,.78-.64,1.42-1.42,1.42Zm-7.09-18.77v10.26c0,3.13,2.54,5.67,5.67,5.67v-18.16c-1.7,1.09-3.64,1.85-5.67,2.22Z"/></g><path class="cls-4" d="M78,72.53c-4,0-7.99-1.52-11.03-4.56-.55-.55-.55-1.45,0-2.01s1.45-.55,2.01,0c4.98,4.98,13.07,4.98,18.05,0,.55-.55,1.45-.55,2.01,0s.55,1.45,0,2.01c-3.04,3.04-7.03,4.56-11.03,4.56Z"/><path class="cls-4" d="M113.46,47.01c-.78,0-1.42-.64-1.42-1.42v-8.72c0-.96-.04-1.91-.12-2.86-.07-.78,.51-1.47,1.3-1.53,.81-.09,1.47,.52,1.53,1.3,.09,1.02,.13,2.05,.13,3.09v8.72c0,.78-.64,1.42-1.42,1.42Z"/><path class="cls-4" d="M42.55,47.01c-.78,0-1.42-.64-1.42-1.42v-8.72C41.13,16.54,57.67,0,78,0c6.81,0,13.46,1.87,19.24,5.41,.67,.41,.88,1.28,.47,1.95-.41,.67-1.28,.88-1.95,.47-5.33-3.26-11.47-4.99-17.76-4.99-18.77,0-34.04,15.27-34.04,34.04v8.71c0,.78-.63,1.42-1.42,1.42Z"/><g><path class="cls-3" d="M42.55,68.28h-4.25c-3.92,0-7.09-3.17-7.09-7.09v-8.51c0-3.92,3.17-7.09,7.09-7.09h4.25v22.69Z"/><path class="cls-4" d="M42.55,69.7h-4.25c-4.69,0-8.51-3.82-8.51-8.51v-8.51c0-4.69,3.82-8.51,8.51-8.51h4.25c.78,0,1.42,.64,1.42,1.42v22.69c0,.78-.64,1.42-1.42,1.42Zm-4.25-22.69c-3.13,0-5.67,2.54-5.67,5.67v8.51c0,3.13,2.54,5.67,5.67,5.67h2.84v-19.86h-2.84Z"/></g><g><path class="cls-3" d="M113.46,45.59h4.25c3.92,0,7.09,3.17,7.09,7.09v8.51c0,3.92-3.17,7.09-7.09,7.09h-4.25v-22.69Z"/><path class="cls-4" d="M117.71,69.7h-4.25c-.78,0-1.42-.64-1.42-1.42v-22.69c0-.78,.64-1.42,1.42-1.42h4.25c4.69,0,8.51,3.82,8.51,8.51v8.51c0,4.69-3.82,8.51-8.51,8.51Zm-2.84-2.84h2.84c3.13,0,5.67-2.54,5.67-5.67v-8.51c0-3.13-2.54-5.67-5.67-5.67h-2.84v19.86Z"/></g><path class="cls-4" d="M85.09,98.06h-7.09c-.78,0-1.42-.64-1.42-1.42s.64-1.42,1.42-1.42h7.09c14.86,0,26.95-12.09,26.95-26.95,0-.78,.64-1.42,1.42-1.42s1.42,.64,1.42,1.42c0,16.42-13.36,29.78-29.78,29.78Z"/><path class="cls-4" d="M106.37,160.47c-.78,0-1.42-.64-1.42-1.42v-28.36c0-.78,.64-1.42,1.42-1.42s1.42,.64,1.42,1.42v28.36c0,.78-.64,1.42-1.42,1.42Z"/><path class="cls-4" d="M49.64,160.47c-.78,0-1.42-.64-1.42-1.42v-28.36c0-.78,.64-1.42,1.42-1.42s1.42,.64,1.42,1.42v28.36c0,.78-.64,1.42-1.42,1.42Z"/><path class="cls-4" d="M26.95,160.47c-.78,0-1.42-.64-1.42-1.42v-37.03c0-9.09,5.4-17.27,13.75-20.86l26.82-11.49c.71-.31,1.55,.02,1.86,.75,.31,.72-.03,1.55-.75,1.86l-26.82,11.49c-7.31,3.13-12.03,10.3-12.03,18.25v37.03c0,.78-.64,1.42-1.42,1.42Z"/><path class="cls-4" d="M129.06,160.47c-.78,0-1.42-.64-1.42-1.42v-37.03c0-7.95-4.72-15.12-12.03-18.25l-12.78-5.48c-.72-.31-1.06-1.14-.75-1.86,.31-.72,1.15-1.06,1.86-.75l12.78,5.48c8.35,3.58,13.75,11.77,13.75,20.86v37.03c0,.78-.64,1.42-1.42,1.42Z"/><path class="cls-4" d="M78,109.41h0c-.47,0-.92-.24-1.18-.63l-11.35-17.02c-.16-.23-.24-.5-.24-.79v-4.99c0-.47,.23-.91,.62-1.17s.88-.32,1.32-.15c6.97,2.73,14.68,2.73,21.66,0,.43-.17,.93-.12,1.32,.15,.39,.26,.62,.7,.62,1.17v4.99c0,.78-.64,1.42-1.42,1.42s-1.42-.64-1.42-1.42v-2.98c-6.44,2.08-13.41,2.08-19.86,0v2.55l9.93,14.89,2.6-3.9c.43-.65,1.31-.83,1.97-.39,.65,.43,.83,1.32,.39,1.97l-3.78,5.67c-.26,.4-.71,.63-1.18,.63Z"/><g><rect class="cls-2" x="83.67" y="130.68" width="17.02" height="7.09"/><path class="cls-4" d="M100.69,139.19h-17.02c-.78,0-1.42-.64-1.42-1.42v-7.09c0-.78,.64-1.42,1.42-1.42h17.02c.78,0,1.42,.64,1.42,1.42v7.09c0,.78-.64,1.42-1.42,1.42Zm-15.6-2.84h14.18v-4.25h-14.18v4.25Z"/></g><path class="cls-4" d="M78,160.47c-.78,0-1.42-.64-1.42-1.42v-51.06c0-.78,.64-1.42,1.42-1.42s1.42,.64,1.42,1.42v51.06c0,.78-.64,1.42-1.42,1.42Z"/></g></g></svg>