<?xml version="1.0" encoding="UTF-8"?><svg id="Capa_2" xmlns="http://www.w3.org/2000/svg" viewBox="0 0 157.65 160.47"><defs><style>.cls-1{fill:#fff;}.cls-2{fill:#d02526;}.cls-3{fill:#183f85;}.cls-4{fill:#373737;}</style></defs><g id="Capa_1-2"><g><path class="cls-4" d="M77.42,133.73H35.19c-.78,0-1.41-.63-1.41-1.41s.63-1.41,1.41-1.41h42.23c.78,0,1.41,.63,1.41,1.41s-.63,1.41-1.41,1.41Z"/><path class="cls-4" d="M29.56,133.73h-2.82c-.78,0-1.41-.63-1.41-1.41s.63-1.41,1.41-1.41h2.82c.78,0,1.41,.63,1.41,1.41s-.63,1.41-1.41,1.41Z"/><path class="cls-4" d="M68.97,5.64H26.74c-.78,0-1.41-.63-1.41-1.41s.63-1.41,1.41-1.41h42.23c.78,0,1.41,.63,1.41,1.41s-.63,1.41-1.41,1.41Z"/><path class="cls-4" d="M77.42,5.64h-2.82c-.78,0-1.41-.63-1.41-1.41s.63-1.41,1.41-1.41h2.82c.78,0,1.41,.63,1.41,1.41s-.63,1.41-1.41,1.41Z"/><g><rect class="cls-3" x="25.44" y="84.47" width="11.26" height="16.89"/><path class="cls-4" d="M36.7,102.77h-11.26c-.78,0-1.41-.63-1.41-1.41v-16.89c0-.78,.63-1.41,1.41-1.41h11.26c.78,0,1.41,.63,1.41,1.41v16.89c0,.78-.63,1.41-1.41,1.41Zm-9.85-2.82h8.45v-14.08h-8.45v14.08Z"/></g><g><rect class="cls-2" x="47.26" y="70.39" width="11.26" height="30.97"/><path class="cls-4" d="M58.52,102.77h-11.26c-.78,0-1.41-.63-1.41-1.41v-30.97c0-.78,.63-1.41,1.41-1.41h11.26c.78,0,1.41,.63,1.41,1.41v30.97c0,.78-.63,1.41-1.41,1.41Zm-9.85-2.82h8.45v-28.15h-8.45v28.15Z"/></g><g><rect class="cls-3" x="69.78" y="54.91" width="11.26" height="46.45"/><path class="cls-4" d="M81.04,102.77h-11.26c-.78,0-1.41-.63-1.41-1.41V54.91c0-.78,.63-1.41,1.41-1.41h11.26c.78,0,1.41,.63,1.41,1.41v46.45c0,.78-.63,1.41-1.41,1.41Zm-9.85-2.82h8.45V56.31h-8.45s0,43.64,0,43.64Z"/></g><g><path class="cls-4" d="M18.91,74.61c-.39,0-.78-.16-1.06-.48-.52-.58-.46-1.47,.12-1.99l24.03-21.22c.55-.49,1.4-.46,1.93,.06l8.96,8.96,25.75-25.75c.55-.55,1.44-.55,1.99,0s.55,1.44,0,1.99l-26.74,26.74c-.55,.55-1.44,.55-1.99,0l-9.02-9.02-23.04,20.34c-.27,.24-.6,.35-.93,.35Z"/><path class="cls-4" d="M79.64,47.87c-.78,0-1.41-.63-1.41-1.41v-9.85h-9.85c-.78,0-1.41-.63-1.41-1.41s.63-1.41,1.41-1.41h11.26c.78,0,1.41,.63,1.41,1.41v11.26c0,.78-.63,1.41-1.41,1.41Z"/></g><path class="cls-4" d="M95.72,116.84H8.45c-4.66,0-8.45-3.79-8.45-8.45V28.16c0-4.66,3.79-8.45,8.45-8.45H95.72c4.66,0,8.45,3.79,8.45,8.45v12.22c0,.78-.63,1.41-1.41,1.41s-1.41-.63-1.41-1.41v-12.22c0-3.11-2.53-5.63-5.63-5.63H8.45c-3.11,0-5.63,2.53-5.63,5.63V108.4c0,3.11,2.53,5.63,5.63,5.63H95.72c3.11,0,5.63-2.53,5.63-5.63v-.37c0-.78,.63-1.41,1.41-1.41s1.41,.63,1.41,1.41v.37c0,4.66-3.79,8.45-8.45,8.45Z"/><g><path class="cls-4" d="M128.09,36.6c-10.09,0-18.3-8.21-18.3-18.3S118,0,128.09,0s18.3,8.21,18.3,18.3-8.21,18.3-18.3,18.3Zm0-33.78c-8.54,0-15.48,6.95-15.48,15.48s6.95,15.48,15.48,15.48,15.48-6.95,15.48-15.48-6.95-15.48-15.48-15.48Z"/><g><path class="cls-1" d="M139.8,8.53l1.26-1.05c-3.1-3.71-7.76-6.08-12.97-6.08-9.33,0-16.89,7.56-16.89,16.89h1.59c9.87,0,19.42-3.45,27.01-9.77Z"/><path class="cls-4" d="M112.79,19.71h-1.6c-.78,0-1.41-.63-1.41-1.41,0-10.09,8.21-18.3,18.3-18.3,5.44,0,10.56,2.4,14.05,6.58,.24,.29,.35,.66,.32,1.03-.03,.37-.21,.72-.5,.95l-1.26,1.05h0c-7.82,6.51-17.73,10.09-27.91,10.09Zm-.12-2.82h.12c9.52,0,18.79-3.35,26.11-9.44l.13-.1c-2.9-2.89-6.81-4.53-10.94-4.53-8.06,0-14.71,6.2-15.42,14.08Zm27.13-8.36h0Z"/></g></g><g><g><path class="cls-4" d="M128.08,51.99c-.47,0-.91-.23-1.17-.62l-8.46-12.56c-.15-.23-.24-.51-.24-.79v-5.12c0-.5,.26-.97,.7-1.22,.44-.25,.98-.25,1.41,0,4.72,2.75,10.77,2.76,15.48,.03,.44-.25,.97-.25,1.41,0,.43,.25,.7,.72,.7,1.22v5.06c0,.28-.08,.55-.23,.79l-8.43,12.59c-.26,.39-.7,.62-1.17,.62h0Zm-7.05-14.4l7.05,10.47,7.03-10.5v-2.37c-4.46,1.86-9.63,1.85-14.08-.02v2.42Z"/><path class="cls-4" d="M153.42,92.9h-50.68c-2.33,0-4.22-1.89-4.22-4.22V56.56c0-5.9,3.28-11.21,8.56-13.85l11.91-5.95c.64-.32,1.4-.11,1.8,.47l7.29,10.82,7.26-10.84c.39-.59,1.16-.79,1.8-.48l11.95,5.98c5.28,2.64,8.56,7.95,8.56,13.85v32.12c0,2.33-1.89,4.22-4.22,4.22Zm-34.28-53.07l-10.8,5.4c-4.32,2.16-7.01,6.5-7.01,11.33v32.12c0,.78,.63,1.41,1.41,1.41h50.68c.78,0,1.41-.63,1.41-1.41V56.56c0-4.83-2.68-9.17-7-11.33l-10.84-5.42-7.64,11.41c-.1,.21-.26,.39-.47,.53-.24,.16-.51,.27-.79,.24-.17,0-.55-.07-.79-.24-.21-.14-.37-.32-.47-.53l-7.68-11.39Z"/><path class="cls-4" d="M128.08,63.25c-.78,0-1.41-.63-1.41-1.41v-11.26c0-.78,.63-1.41,1.41-1.41s1.41,.63,1.41,1.41v11.26c0,.78-.63,1.41-1.41,1.41Z"/></g><path class="cls-4" d="M111.2,92.9c-.78,0-1.41-.63-1.41-1.41v-28.15c0-.78,.63-1.41,1.41-1.41s1.41,.63,1.41,1.41v28.15c0,.78-.63,1.41-1.41,1.41Z"/><path class="cls-4" d="M144.98,92.9c-.78,0-1.41-.63-1.41-1.41v-28.15c0-.78,.63-1.41,1.41-1.41s1.41,.63,1.41,1.41v28.15c0,.78-.63,1.41-1.41,1.41Z"/><path class="cls-4" d="M142.16,160.47h-5.91c-2.17,0-3.97-1.62-4.2-3.78l-3.96-37.67-3.96,37.67c-.23,2.16-2.03,3.78-4.2,3.78h-5.91c-2.33,0-4.22-1.89-4.22-4.22V91.49c0-.78,.63-1.41,1.41-1.41h33.78c.78,0,1.41,.63,1.41,1.41v64.75c0,2.33-1.89,4.22-4.22,4.22Zm-14.08-56.3c.72,0,1.33,.54,1.4,1.26l5.37,50.97c.08,.72,.68,1.26,1.4,1.26h5.91c.78,0,1.41-.63,1.41-1.41v-63.34h-30.97v63.34c0,.78,.63,1.41,1.41,1.41h5.91c.72,0,1.32-.54,1.4-1.26l5.36-50.97c.08-.72,.68-1.26,1.4-1.26Z"/><path class="cls-4" d="M105.56,104.16c-3.88,0-7.04-3.16-7.04-7.04,0-.78,.63-1.41,1.41-1.41s1.41,.63,1.41,1.41c0,2.33,1.89,4.22,4.22,4.22s4.22-1.89,4.22-4.22c0-.78,.63-1.41,1.41-1.41s1.41,.63,1.41,1.41c0,3.88-3.16,7.04-7.04,7.04Z"/><path class="cls-4" d="M150.6,104.16c-3.88,0-7.04-3.16-7.04-7.04,0-.78,.63-1.41,1.41-1.41s1.41,.63,1.41,1.41c0,2.33,1.89,4.22,4.22,4.22s4.22-1.89,4.22-4.22c0-.78,.63-1.41,1.41-1.41s1.41,.63,1.41,1.41c0,3.88-3.16,7.04-7.04,7.04Z"/></g></g></g></svg>