<?xml version="1.0" encoding="UTF-8"?><svg id="Capa_2" xmlns="http://www.w3.org/2000/svg" viewBox="0 0 157.88 160.47"><defs><style>.cls-1{fill:#fff;}.cls-2{fill:#d02526;}.cls-3{fill:#183f85;}.cls-4{fill:#373737;}</style></defs><g id="Capa_1-2"><g><path class="cls-4" d="M63.41,144.94c-.71,0-1.29-.58-1.29-1.29v-9.06c0-.71,.58-1.29,1.29-1.29s1.29,.58,1.29,1.29v9.06c0,.71-.58,1.29-1.29,1.29Z"/><path class="cls-4" d="M94.47,144.94c-.71,0-1.29-.58-1.29-1.29v-9.06c0-.71,.58-1.29,1.29-1.29s1.29,.58,1.29,1.29v9.06c0,.71-.58,1.29-1.29,1.29Z"/><path class="cls-4" d="M104.82,160.47H53.06c-2.14,0-3.88-1.74-3.88-3.88v-5.18c0-2.14,1.74-3.88,3.88-3.88h51.76c2.14,0,3.88,1.74,3.88,3.88v5.18c0,2.14-1.74,3.88-3.88,3.88Zm-51.76-10.35c-.71,0-1.29,.58-1.29,1.29v5.18c0,.71,.58,1.29,1.29,1.29h51.76c.71,0,1.29-.58,1.29-1.29v-5.18c0-.71-.58-1.29-1.29-1.29H53.06Z"/><path class="cls-4" d="M156.58,117.76H1.29c-.71,0-1.29-.58-1.29-1.29s.58-1.29,1.29-1.29H156.58c.71,0,1.29,.58,1.29,1.29s-.58,1.29-1.29,1.29Z"/><path class="cls-4" d="M143.64,130.7H14.23c-7.85,0-14.23-6.38-14.23-14.23V33.65c0-7.85,6.38-14.23,14.23-14.23H47.88c.71,0,1.29,.58,1.29,1.29s-.58,1.29-1.29,1.29H14.23c-6.42,0-11.65,5.23-11.65,11.65V116.47c0,6.42,5.23,11.65,11.65,11.65H143.64c6.42,0,11.65-5.23,11.65-11.65V33.65c0-6.42-5.23-11.65-11.65-11.65h-33.65c-.71,0-1.29-.58-1.29-1.29s.58-1.29,1.29-1.29h33.65c7.85,0,14.23,6.38,14.23,14.23V116.47c0,7.85-6.38,14.23-14.23,14.23Z"/><path class="cls-4" d="M156.58,34.94h-48.55c-.71,0-1.29-.58-1.29-1.29s.58-1.29,1.29-1.29h48.55c.71,0,1.29,.58,1.29,1.29s-.58,1.29-1.29,1.29Z"/><path class="cls-4" d="M49.85,34.94H1.29c-.71,0-1.29-.58-1.29-1.29s.58-1.29,1.29-1.29H49.85c.71,0,1.29,.58,1.29,1.29s-.58,1.29-1.29,1.29Z"/><g><path class="cls-2" d="M98.35,1.29H59.53c-3.57,0-6.47,2.9-6.47,6.47V27.18c0,3.57,2.9,6.47,6.47,6.47h6.47v7.42c0,2.19,2.56,3.39,4.24,1.99l11.28-9.4h16.82c3.57,0,6.47-2.9,6.47-6.47V7.76c0-3.57-2.9-6.47-6.47-6.47Z"/><path class="cls-4" d="M68.59,44.95c-.56,0-1.12-.12-1.66-.37-1.38-.65-2.24-1.99-2.24-3.51v-6.12h-5.18c-4.28,0-7.76-3.48-7.76-7.76V7.76c0-4.28,3.48-7.76,7.76-7.76h38.82c4.28,0,7.76,3.48,7.76,7.76V27.18c0,4.28-3.48,7.76-7.76,7.76h-16.35l-10.92,9.1c-.71,.6-1.59,.91-2.47,.91ZM59.53,2.59c-2.85,0-5.18,2.32-5.18,5.18V27.18c0,2.85,2.32,5.18,5.18,5.18h6.47c.71,0,1.29,.58,1.29,1.29v7.42c0,.76,.57,1.09,.75,1.17,.17,.08,.79,.31,1.38-.18l11.28-9.4c.23-.19,.53-.3,.83-.3h16.82c2.85,0,5.18-2.32,5.18-5.18V7.76c0-2.85-2.32-5.18-5.18-5.18H59.53Z"/></g><path class="cls-1" d="M65.74,21.35c-2.14,0-3.88-1.74-3.88-3.88s1.74-3.88,3.88-3.88,3.88,1.74,3.88,3.88-1.74,3.88-3.88,3.88Zm0-5.18c-.71,0-1.29,.58-1.29,1.29s.58,1.29,1.29,1.29,1.29-.58,1.29-1.29-.58-1.29-1.29-1.29Z"/><path class="cls-1" d="M78.68,21.35c-2.14,0-3.88-1.74-3.88-3.88s1.74-3.88,3.88-3.88,3.88,1.74,3.88,3.88-1.74,3.88-3.88,3.88Zm0-5.18c-.71,0-1.29,.58-1.29,1.29s.58,1.29,1.29,1.29,1.29-.58,1.29-1.29-.58-1.29-1.29-1.29Z"/><path class="cls-1" d="M91.63,21.35c-2.14,0-3.88-1.74-3.88-3.88s1.74-3.88,3.88-3.88,3.88,1.74,3.88,3.88-1.74,3.88-3.88,3.88Zm0-5.18c-.71,0-1.29,.58-1.29,1.29s.58,1.29,1.29,1.29,1.29-.58,1.29-1.29-.58-1.29-1.29-1.29Z"/><g><path class="cls-3" d="M81.53,93.08c0,1.43,1.16,2.59,2.59,2.59h51.76c1.43,0,2.59-1.16,2.59-2.59V56.85c0-1.43-1.16-2.59-2.59-2.59h-51.76c-1.43,0-2.59,1.16-2.59,2.59v36.23Z"/><path class="cls-4" d="M135.88,96.97h-51.76c-2.14,0-3.88-1.74-3.88-3.88V56.85c0-2.14,1.74-3.88,3.88-3.88h51.76c2.14,0,3.88,1.74,3.88,3.88v36.23c0,2.14-1.74,3.88-3.88,3.88Zm-51.76-41.41c-.71,0-1.29,.58-1.29,1.29v36.23c0,.71,.58,1.29,1.29,1.29h51.76c.71,0,1.29-.58,1.29-1.29V56.85c0-.71-.58-1.29-1.29-1.29h-51.76Z"/></g><path class="cls-1" d="M128.11,67.2h-36.23c-.71,0-1.29-.58-1.29-1.29s.58-1.29,1.29-1.29h36.23c.71,0,1.29,.58,1.29,1.29s-.58,1.29-1.29,1.29Z"/><path class="cls-1" d="M128.11,76.26h-36.23c-.71,0-1.29-.58-1.29-1.29s.58-1.29,1.29-1.29h36.23c.71,0,1.29,.58,1.29,1.29s-.58,1.29-1.29,1.29Z"/><path class="cls-1" d="M110,85.32h-18.12c-.71,0-1.29-.58-1.29-1.29s.58-1.29,1.29-1.29h18.12c.71,0,1.29,.58,1.29,1.29s-.58,1.29-1.29,1.29Z"/><path class="cls-4" d="M45.3,75.06c-9.28,0-16.82-7.55-16.82-16.82s7.55-16.82,16.82-16.82,16.82,7.55,16.82,16.82-7.55,16.82-16.82,16.82Zm0-31.06c-7.85,0-14.23,6.38-14.23,14.23s6.38,14.23,14.23,14.23,14.23-6.38,14.23-14.23-6.38-14.23-14.23-14.23Z"/><g><path class="cls-1" d="M56.07,49.25l1.16-.96c-2.85-3.41-7.13-5.59-11.92-5.59-8.58,0-15.53,6.95-15.53,15.53h1.46c9.07,0,17.86-3.18,24.83-8.98Z"/><path class="cls-4" d="M31.24,59.53h-1.46c-.71,0-1.29-.58-1.29-1.29,0-9.28,7.55-16.82,16.82-16.82,5,0,9.71,2.21,12.92,6.05,.22,.26,.33,.6,.3,.95-.03,.34-.2,.66-.46,.88l-1.16,.96c-7.19,5.98-16.3,9.28-25.66,9.28Zm-.11-2.59h.11c8.75,0,17.28-3.08,24-8.68h0l.11-.1c-2.66-2.66-6.26-4.16-10.05-4.16-7.41,0-13.52,5.7-14.18,12.94Z"/></g><path class="cls-4" d="M71.18,117.76H19.41c-.71,0-1.29-.58-1.29-1.29v-23.06c0-5.43,3.02-10.31,7.87-12.73l10.95-5.47c.64-.32,1.42-.06,1.74,.58,.32,.64,.06,1.42-.58,1.74l-10.95,5.47c-3.97,1.99-6.44,5.98-6.44,10.42v21.76h49.19v-21.77c0-4.44-2.47-8.43-6.44-10.42l-10.99-5.49c-.64-.32-.9-1.1-.58-1.74s1.1-.9,1.74-.58l10.99,5.49c4.85,2.43,7.87,7.31,7.87,12.73v23.06c0,.71-.58,1.29-1.29,1.29Z"/><path class="cls-4" d="M60.83,117.76H29.77c-.71,0-1.29-.58-1.29-1.29v-16.82c0-.71,.58-1.29,1.29-1.29s1.29,.58,1.29,1.29v15.53h28.47v-15.53c0-.71,.58-1.29,1.29-1.29s1.29,.58,1.29,1.29v16.82c0,.71-.58,1.29-1.29,1.29Z"/><path class="cls-4" d="M45.29,89.21c-.43,0-.83-.21-1.07-.57l-7.77-11.55c-.14-.21-.22-.47-.22-.72v-4.71c0-.46,.24-.89,.64-1.12,.4-.23,.9-.23,1.3,0,4.34,2.53,9.89,2.53,14.23,.03,.4-.23,.89-.23,1.29,0,.4,.23,.65,.66,.65,1.12v4.65c0,.26-.07,.51-.21,.72l-7.75,11.58c-.24,.36-.64,.57-1.08,.57h0Zm-6.48-13.24l6.48,9.62,6.46-9.65v-2.18c-4.1,1.71-8.85,1.7-12.94-.02v2.23Z"/><path class="cls-4" d="M45.29,99.56c-.71,0-1.29-.58-1.29-1.29v-10.35c0-.71,.58-1.29,1.29-1.29s1.29,.58,1.29,1.29v10.35c0,.72-.58,1.29-1.29,1.29Z"/><path class="cls-4" d="M142.35,144.94h-19.41c-.71,0-1.29-.58-1.29-1.29s.58-1.29,1.29-1.29h19.41c.71,0,1.29,.58,1.29,1.29s-.58,1.29-1.29,1.29Z"/><path class="cls-4" d="M150.11,144.94h-2.59c-.71,0-1.29-.58-1.29-1.29s.58-1.29,1.29-1.29h2.59c.71,0,1.29,.58,1.29,1.29s-.58,1.29-1.29,1.29Z"/><path class="cls-4" d="M34.94,144.94H15.53c-.71,0-1.29-.58-1.29-1.29s.58-1.29,1.29-1.29h19.41c.71,0,1.29,.58,1.29,1.29s-.58,1.29-1.29,1.29Z"/><path class="cls-4" d="M10.35,144.94h-2.59c-.71,0-1.29-.58-1.29-1.29s.58-1.29,1.29-1.29h2.59c.71,0,1.29,.58,1.29,1.29s-.58,1.29-1.29,1.29Z"/></g></g></svg>