<?xml version="1.0" encoding="UTF-8"?><svg id="Capa_2" xmlns="http://www.w3.org/2000/svg" viewBox="0 0 143.42 160.47"><defs><style>.cls-1{fill:#fff;}.cls-2{fill:#d02526;}.cls-3{fill:#183f85;}.cls-4{fill:#373737;}</style></defs><g id="Capa_1-2"><g><path class="cls-4" d="M116.44,86.62c-.78,0-1.42-.64-1.42-1.42V2.84c0-.78,.64-1.42,1.42-1.42s1.42,.64,1.42,1.42V85.2c0,.78-.64,1.42-1.42,1.42Z"/><g><polygon class="cls-2" points="116.44 31.24 116.44 2.84 142 17.04 116.44 31.24"/><path class="cls-4" d="M116.44,32.66c-.25,0-.5-.07-.72-.2-.43-.26-.7-.72-.7-1.22V2.84c0-.5,.27-.97,.7-1.22s.97-.26,1.41-.02l25.56,14.2c.45,.25,.73,.73,.73,1.24s-.28,.99-.73,1.24l-25.56,14.2c-.22,.12-.45,.18-.69,.18Zm1.42-27.41V28.83l21.22-11.79-21.22-11.79Z"/></g><path class="cls-4" d="M130.64,160.47h-49.7c-.78,0-1.42-.64-1.42-1.42s.64-1.42,1.42-1.42h49.7c.78,0,1.42,.64,1.42,1.42s-.64,1.42-1.42,1.42Z"/><path class="cls-4" d="M142,160.47h-5.68c-.78,0-1.42-.64-1.42-1.42s.64-1.42,1.42-1.42h5.68c.78,0,1.42,.64,1.42,1.42s-.64,1.42-1.42,1.42Z"/><path class="cls-4" d="M44.02,160.47H1.42c-.78,0-1.42-.64-1.42-1.42s.64-1.42,1.42-1.42H42.6v-26.98c0-.78,.64-1.42,1.42-1.42h45.44v-26.98c0-.78,.64-1.42,1.42-1.42h51.12c.78,0,1.42,.64,1.42,1.42s-.64,1.42-1.42,1.42h-49.7v26.98c0,.78-.64,1.42-1.42,1.42H45.44v26.98c0,.78-.64,1.42-1.42,1.42Z"/><path class="cls-4" d="M36.89,36.92c-10.18,0-18.46-8.28-18.46-18.46S26.71,0,36.89,0s18.46,8.28,18.46,18.46-8.28,18.46-18.46,18.46Zm0-34.08c-8.61,0-15.62,7.01-15.62,15.62s7.01,15.62,15.62,15.62,15.62-7.01,15.62-15.62-7.01-15.62-15.62-15.62Z"/><g><path class="cls-1" d="M48.71,8.61l1.27-1.06c-3.12-3.75-7.82-6.13-13.08-6.13-9.41,0-17.04,7.63-17.04,17.04h1.61c9.95,0,19.6-3.48,27.25-9.85Z"/><path class="cls-4" d="M21.46,19.88h-1.61c-.78,0-1.42-.64-1.42-1.42C18.43,8.28,26.71,0,36.89,0c5.49,0,10.65,2.42,14.17,6.64,.24,.29,.36,.66,.32,1.04-.03,.38-.22,.72-.51,.97l-1.27,1.06h0c-7.89,6.56-17.89,10.18-28.15,10.18Zm-.12-2.84h.12c9.6,0,18.96-3.38,26.34-9.53l.13-.11c-2.92-2.92-6.87-4.57-11.04-4.57-8.13,0-14.84,6.25-15.56,14.2Zm27.37-8.43h0Z"/></g><path class="cls-4" d="M31.27,154.79h-11.36c-.78,0-1.42-.64-1.42-1.42V86.62c0-.78,.64-1.42,1.42-1.42H63.93c4.7,0,8.52,3.82,8.52,8.52v31.24c0,.78-.64,1.42-1.42,1.42h-11.36c-.66,0-1.23-.45-1.38-1.09l-5.16-21.82c-.15-.64-.72-1.09-1.38-1.09h-13.52l-5.54,51.14c-.08,.72-.69,1.27-1.41,1.27Zm-9.94-2.84h8.67l5.54-51.14c.08-.72,.69-1.27,1.41-1.27h14.79c1.99,0,3.69,1.35,4.14,3.28l4.91,20.72h8.82v-29.82c0-3.13-2.55-5.68-5.68-5.68H21.33s0,63.9,0,63.9Z"/><path class="cls-4" d="M28.37,39.75c-.78,0-1.42-.64-1.42-1.42v-5.11c0-.78,.63-1.42,1.42-1.42h0c.78,0,1.42,.64,1.42,1.42v5.11c0,.78-.63,1.42-1.42,1.42h0Z"/><path class="cls-4" d="M45.41,39.75c-.78,0-1.41-.63-1.42-1.41l-.03-5.08c0-.78,.63-1.42,1.41-1.43h0c.78,0,1.41,.63,1.42,1.41l.03,5.08c0,.78-.63,1.42-1.41,1.43h0Z"/><path class="cls-4" d="M92.84,18.75c-.21,0-.43-.05-.64-.15-.7-.35-.99-1.2-.64-1.91,.51-1.02,.59-2.17,.23-3.25s-1.12-1.95-2.14-2.46c-2.12-1.05-4.67-.19-5.71,1.91-.35,.7-1.2,.99-1.91,.64-.7-.35-.99-1.2-.64-1.91,1.74-3.5,6.02-4.92,9.52-3.18,1.7,.85,2.97,2.3,3.57,4.1s.47,3.73-.38,5.42c-.24,.5-.74,.79-1.27,.79Z"/><path class="cls-4" d="M53.98,88.04H11.38c-2.35,0-4.26-1.91-4.26-4.26v-26.74c0-5.95,3.3-11.3,8.61-13.96l12-6.02c.58-.29,1.29-.15,1.72,.35l7.44,8.68,7.44-8.69c.42-.5,1.13-.63,1.72-.35l8.27,4.13h5.96c2.17,0,4.11-1.2,5.08-3.14l10.67-21.34c.35-.7,1.2-.99,1.91-.64l10.16,5.08c.34,.17,.59,.46,.71,.82s.09,.75-.08,1.08l-11.85,23.69c-2.66,5.33-8.01,8.63-13.97,8.63h-7.51v31.24c0,.78-.64,1.42-1.42,1.42ZM28.02,40.1l-11.01,5.52c-4.35,2.18-7.05,6.56-7.05,11.42v26.74c0,.78,.64,1.42,1.42,1.42H52.56v-31.24c0-.78,.64-1.42,1.42-1.42h8.93c4.87,0,9.25-2.71,11.43-7.06l11.21-22.42-7.62-3.81-10.03,20.07c-1.45,2.9-4.37,4.71-7.62,4.71h-6.3c-.22,0-.44-.05-.64-.15l-7.58-3.78-7.8,9.1c-.54,.63-1.61,.63-2.16,0l-7.79-9.09Z"/><g><polygon class="cls-3" points="41.18 69.49 36.95 75.17 32.66 69.49 34.08 43.93 39.76 43.93 41.18 69.49"/><path class="cls-4" d="M36.95,76.59c-.45,0-.87-.21-1.13-.57l-4.29-5.68c-.2-.27-.3-.6-.28-.93l1.42-25.56c.04-.76,.66-1.34,1.42-1.34h5.68c.76,0,1.37,.59,1.42,1.34l1.42,25.56c.02,.33-.08,.66-.28,.93l-4.23,5.68c-.27,.36-.68,.57-1.14,.57h0Zm-2.84-7.54l2.83,3.75,2.79-3.75-1.31-23.71h-3l-1.31,23.7Z"/></g><path class="cls-4" d="M19.91,88.04c-.78,0-1.42-.64-1.42-1.42v-28.4c0-.78,.64-1.42,1.42-1.42s1.42,.64,1.42,1.42v28.4c0,.78-.64,1.42-1.42,1.42Z"/><path class="cls-4" d="M14.23,99.4c-3.92,0-7.1-3.18-7.1-7.1,0-.78,.64-1.42,1.42-1.42s1.42,.64,1.42,1.42c0,2.35,1.91,4.26,4.26,4.26s4.26-1.91,4.26-4.26c0-.78,.64-1.42,1.42-1.42s1.42,.64,1.42,1.42c0,3.92-3.18,7.1-7.1,7.1Z"/><path class="cls-4" d="M127.8,103.66h-22.72c-.78,0-1.42-.64-1.42-1.42v-11.36c0-.78,.64-1.42,1.42-1.42h22.72c.78,0,1.42,.64,1.42,1.42v11.36c0,.78-.64,1.42-1.42,1.42Zm-21.3-2.84h19.88v-8.52h-19.88v8.52Z"/></g></g></svg>