<?xml version="1.0" encoding="UTF-8"?><svg id="Capa_2" xmlns="http://www.w3.org/2000/svg" viewBox="0 0 165.56 160.47"><defs><style>.cls-1{fill:#fff;}.cls-2{fill:#d02526;}.cls-3{fill:#183f85;}.cls-4{fill:#373737;}</style></defs><g id="Capa_1-2"><g><path class="cls-4" d="M33.68,138.01c-8.51,0-15.43-6.93-15.43-15.43s6.92-15.43,15.43-15.43,15.43,6.93,15.43,15.43-6.92,15.43-15.43,15.43Zm0-28.06c-6.96,0-12.63,5.67-12.63,12.63s5.67,12.63,12.63,12.63,12.63-5.67,12.63-12.63-5.67-12.63-12.63-12.63Z"/><path class="cls-4" d="M11.22,160.47c-.77,0-1.4-.63-1.4-1.4v-9.52c0-3.29,1.94-6.3,4.94-7.66l10.48-4.76v-2.41c0-.77,.63-1.4,1.4-1.4h0c.77,0,1.4,.63,1.4,1.4v3.31c0,.55-.32,1.05-.82,1.28l-11.3,5.13c-2,.91-3.29,2.91-3.29,5.11v9.52c0,.77-.63,1.4-1.4,1.4Z"/><path class="cls-4" d="M56.12,160.47c-.77,0-1.4-.63-1.4-1.4v-9.52c0-2.19-1.29-4.2-3.29-5.11l-11.34-5.16c-.5-.23-.82-.73-.82-1.28v-3.25c0-.77,.63-1.4,1.4-1.4s1.4,.63,1.4,1.4v2.35l10.52,4.79c3,1.36,4.94,4.37,4.94,7.66v9.52c0,.77-.63,1.4-1.4,1.4Z"/><path class="cls-4" d="M78.58,138.01c-8.51,0-15.43-6.93-15.43-15.43s6.92-15.43,15.43-15.43,15.43,6.93,15.43,15.43-6.92,15.43-15.43,15.43Zm0-28.06c-6.96,0-12.63,5.67-12.63,12.63s5.67,12.63,12.63,12.63,12.63-5.67,12.63-12.63-5.66-12.63-12.63-12.63Z"/><path class="cls-4" d="M56.12,160.47c-.77,0-1.4-.63-1.4-1.4v-9.52c0-3.29,1.94-6.3,4.94-7.66l10.48-4.76v-2.41c0-.77,.63-1.4,1.4-1.4h0c.77,0,1.4,.63,1.4,1.4v3.31c0,.55-.32,1.05-.82,1.28l-11.3,5.13c-2,.91-3.29,2.91-3.29,5.11v9.52c0,.77-.63,1.4-1.4,1.4Z"/><path class="cls-4" d="M101.02,160.47c-.77,0-1.4-.63-1.4-1.4v-9.52c0-2.19-1.29-4.2-3.29-5.11l-11.34-5.16c-.5-.23-.82-.73-.82-1.28v-3.25c0-.77,.63-1.4,1.4-1.4h0c.77,0,1.4,.63,1.4,1.4v2.35l10.52,4.79c3,1.36,4.94,4.37,4.94,7.66v9.52c0,.77-.63,1.4-1.4,1.4Z"/><path class="cls-4" d="M123.47,138.01c-8.51,0-15.43-6.93-15.43-15.43s6.92-15.43,15.43-15.43,15.43,6.93,15.43,15.43-6.92,15.43-15.43,15.43Zm0-28.06c-6.96,0-12.63,5.67-12.63,12.63s5.67,12.63,12.63,12.63,12.63-5.67,12.63-12.63-5.66-12.63-12.63-12.63Z"/><path class="cls-4" d="M101.02,160.47c-.77,0-1.4-.63-1.4-1.4v-9.52c0-3.29,1.94-6.3,4.94-7.66l10.48-4.76v-2.41c0-.77,.63-1.4,1.4-1.4h0c.77,0,1.4,.63,1.4,1.4v3.31c0,.55-.32,1.05-.82,1.28l-11.3,5.13c-2,.91-3.29,2.91-3.29,5.11v9.52c0,.77-.63,1.4-1.4,1.4Z"/><path class="cls-4" d="M145.92,160.47c-.77,0-1.4-.63-1.4-1.4v-9.52c0-2.19-1.29-4.2-3.29-5.11l-11.34-5.16c-.5-.23-.82-.73-.82-1.28v-3.25c0-.77,.63-1.4,1.4-1.4h0c.77,0,1.4,.63,1.4,1.4v2.35l10.52,4.79c3,1.36,4.93,4.37,4.93,7.66v9.52c0,.77-.63,1.4-1.4,1.4Z"/><path class="cls-4" d="M147.32,57.52h-28.06c-.77,0-1.4-.63-1.4-1.4s.63-1.4,1.4-1.4h28.06c.77,0,1.4,.63,1.4,1.4s-.63,1.4-1.4,1.4Z"/><path class="cls-4" d="M136.09,64.54h-16.84c-.77,0-1.4-.63-1.4-1.4s.63-1.4,1.4-1.4h16.84c.77,0,1.4,.63,1.4,1.4s-.63,1.4-1.4,1.4Z"/><path class="cls-4" d="M29.48,53.83c-10.06,0-18.24-8.18-18.24-18.24s8.18-18.24,18.24-18.24,18.24,8.18,18.24,18.24-8.18,18.24-18.24,18.24Zm0-33.67c-8.51,0-15.43,6.93-15.43,15.43s6.92,15.43,15.43,15.43,15.43-6.93,15.43-15.43-6.92-15.43-15.43-15.43Z"/><g><path class="cls-1" d="M41.15,25.86l1.25-1.04c-3.09-3.7-7.73-6.06-12.93-6.06-9.3,0-16.84,7.54-16.84,16.84h1.59c9.84,0,19.36-3.45,26.92-9.74Z"/><path class="cls-4" d="M14.23,37h-1.59c-.77,0-1.4-.63-1.4-1.4,0-10.06,8.18-18.24,18.24-18.24,5.42,0,10.53,2.39,14.01,6.56,.24,.29,.35,.65,.32,1.02-.03,.37-.21,.71-.5,.95l-1.25,1.04h0c-7.8,6.49-17.68,10.06-27.82,10.06Zm-.12-2.81h.12c9.49,0,18.73-3.34,26.02-9.41l.12-.1c-2.88-2.88-6.79-4.51-10.9-4.51-8.03,0-14.66,6.17-15.37,14.03Zm27.05-8.33h0Z"/></g><path class="cls-4" d="M1.4,100.13c-.77,0-1.4-.63-1.4-1.4v-25c0-5.89,3.27-11.17,8.54-13.81l11.87-5.93c.7-.35,1.54-.06,1.88,.63,.35,.69,.06,1.54-.63,1.88l-11.87,5.93c-4.31,2.15-6.98,6.48-6.98,11.29v25c0,.77-.63,1.4-1.4,1.4Z"/><path class="cls-4" d="M12.64,100.13c-.77,0-1.4-.63-1.4-1.4v-18.24c0-.77,.63-1.4,1.4-1.4s1.4,.63,1.4,1.4v18.24c0,.77-.63,1.4-1.4,1.4Z"/><path class="cls-4" d="M29.46,69.18c-.47,0-.9-.23-1.16-.62l-8.43-12.52c-.16-.23-.24-.51-.24-.78v-5.11c0-.5,.26-.97,.7-1.22,.44-.25,.97-.25,1.4,0,4.71,2.74,10.72,2.75,15.43,.03,.43-.25,.97-.25,1.4,0,.43,.25,.7,.71,.7,1.22v5.05c0,.28-.08,.55-.23,.78l-8.41,12.55c-.26,.39-.7,.62-1.17,.62h0Zm-7.02-14.35l7.02,10.43,7.01-10.46v-2.37c-4.45,1.85-9.59,1.85-14.03-.03v2.42Z"/><path class="cls-4" d="M29.46,80.4c-.77,0-1.4-.63-1.4-1.4v-11.22c0-.77,.63-1.4,1.4-1.4s1.4,.63,1.4,1.4v11.22c0,.77-.63,1.4-1.4,1.4Z"/><path class="cls-4" d="M46.31,100.13h0c-.77,0-1.4-.63-1.4-1.4v-26.18c0-.57,.35-1.08,.87-1.3,.53-.21,1.13-.1,1.53,.3l16.32,16.32c1.59,1.59,4.36,1.59,5.95,0l14.88-14.88-5.95-5.95-10.91,10.91c-.55,.55-1.44,.55-1.98,0l-10.9-10.9c-1.88-1.88-4.03-3.47-6.39-4.71l-11.11-5.88c-.68-.36-.95-1.21-.58-1.9,.36-.68,1.21-.94,1.9-.59l11.11,5.88c2.6,1.38,4.98,3.13,7.06,5.21l9.91,9.91,10.91-10.91c.55-.55,1.44-.55,1.98,0l7.94,7.94c.26,.26,.41,.62,.41,.99s-.15,.73-.41,.99l-15.87,15.87c-2.65,2.65-7.27,2.65-9.92,0l-13.93-13.92v22.8c0,.77-.63,1.4-1.41,1.4Z"/><path class="cls-4" d="M158.54,78.57H90.42c-.77,0-1.4-.63-1.4-1.4s.63-1.4,1.4-1.4h66.72V11.22H72.96v52.86c0,.77-.63,1.4-1.4,1.4s-1.4-.63-1.4-1.4V9.82c0-.77,.63-1.4,1.4-1.4h86.99c.77,0,1.4,.63,1.4,1.4V77.17c0,.78-.63,1.4-1.4,1.4Z"/><path class="cls-4" d="M90.42,70.43c-.36,0-.72-.14-.99-.41-.55-.55-.55-1.44,0-1.98,1.64-1.64,1.64-4.31,0-5.95-1.64-1.64-4.31-1.64-5.95,0-.55,.55-1.44,.55-1.98,0s-.55-1.44,0-1.98c2.73-2.74,7.19-2.74,9.92,0s2.74,7.19,0,9.92c-.27,.27-.63,.41-.99,.41Z"/><path class="cls-4" d="M138.9,89.79h-28.06c-.77,0-1.4-.63-1.4-1.4s.63-1.4,1.4-1.4h28.06c.77,0,1.4,.63,1.4,1.4s-.63,1.4-1.4,1.4Z"/><path class="cls-4" d="M147.32,89.79h-2.81c-.77,0-1.4-.63-1.4-1.4s.63-1.4,1.4-1.4h2.81c.77,0,1.4,.63,1.4,1.4s-.63,1.4-1.4,1.4Z"/><path class="cls-4" d="M91.2,46.3h-8.42c-.77,0-1.4-.63-1.4-1.4v-14.03c0-.77,.63-1.4,1.4-1.4h8.42c.77,0,1.4,.63,1.4,1.4v14.03c0,.78-.63,1.4-1.4,1.4Zm-7.02-2.81h5.61v-11.22h-5.61v11.22Z"/><path class="cls-4" d="M108.03,46.3h-8.42c-.77,0-1.4-.63-1.4-1.4V26.66c0-.77,.63-1.4,1.4-1.4h8.42c.77,0,1.4,.63,1.4,1.4v18.24c0,.78-.63,1.4-1.4,1.4Zm-7.02-2.81h5.61v-15.43h-5.61v15.43Z"/><g><rect class="cls-2" x="91.2" y="19.64" width="8.42" height="25.25"/><path class="cls-4" d="M99.62,46.3h-8.42c-.77,0-1.4-.63-1.4-1.4V19.64c0-.77,.63-1.4,1.4-1.4h8.42c.77,0,1.4,.63,1.4,1.4v25.25c0,.78-.63,1.4-1.4,1.4Zm-7.02-2.81h5.61V21.05h-5.61v22.45Z"/></g><g><rect class="cls-1" x="119.26" y="22.45" width="28.06" height="22.45"/><path class="cls-4" d="M147.32,46.3h-28.06c-.77,0-1.4-.63-1.4-1.4V22.45c0-.77,.63-1.4,1.4-1.4h28.06c.77,0,1.4,.63,1.4,1.4v22.45c0,.78-.63,1.4-1.4,1.4Zm-26.66-2.81h25.25V23.85h-25.25v19.64Z"/></g><g><rect class="cls-3" x="65.94" y="1.4" width="98.21" height="8.42"/><path class="cls-4" d="M164.16,11.22H65.94c-.77,0-1.4-.63-1.4-1.4V1.4c0-.77,.63-1.4,1.4-1.4h98.21c.77,0,1.4,.63,1.4,1.4V9.82c0,.78-.63,1.4-1.4,1.4Zm-96.81-2.81h95.41V2.81H67.35v5.61Z"/></g><path class="cls-4" d="M124.17,37.88c-.41,0-.82-.18-1.1-.53-.48-.61-.38-1.49,.22-1.97l7.02-5.61c.3-.24,.68-.35,1.05-.29,.38,.05,.72,.25,.95,.55l3.34,4.45,5.88-4.71c.61-.48,1.49-.38,1.97,.22,.48,.61,.38,1.49-.22,1.97l-7.02,5.61c-.3,.24-.68,.35-1.05,.29-.38-.05-.72-.25-.95-.55l-3.34-4.45-5.88,4.71c-.26,.21-.57,.31-.88,.31Z"/></g></g></svg>