<?xml version="1.0" encoding="UTF-8"?><svg id="Capa_2" xmlns="http://www.w3.org/2000/svg" viewBox="0 0 53.73 53.74"><defs><style>.cls-1{fill:#fff;}.cls-2{fill:#183f84;}</style></defs><g id="Capa_1-2"><g><rect class="cls-1" x="8.12" y="8.12" width="37.5" height="37.5"/><path class="cls-2" d="M53.73,14.06c0-7.73-6.32-14.06-14.06-14.06H14.06C6.33,0,0,6.33,0,14.06v25.62c0,7.73,6.33,14.06,14.06,14.06h25.62c7.73,0,14.06-6.33,14.06-14.06V14.06ZM20.8,38.58h-5.2V21.86h5.2v16.72Zm-2.6-19c-1.67,0-3.02-1.35-3.02-3.02s1.35-3.01,3.02-3.01,3.01,1.35,3.01,3.01-1.35,3.02-3.01,3.02Zm22.06,19h-5.19v-8.13c0-1.94-.04-4.43-2.7-4.43s-3.12,2.11-3.12,4.29v8.27h-5.19V21.86h4.98v2.29h.07c.7-1.32,2.39-2.7,4.92-2.7,5.26,0,6.23,3.46,6.23,7.96v9.17Z"/></g></g></svg>