<?xml version="1.0" encoding="UTF-8"?><svg id="Capa_2" xmlns="http://www.w3.org/2000/svg" viewBox="0 0 1825.2 832.11"><defs><style>.cls-1{fill:#d02526;}</style></defs><g id="Capa_1-2"><g><path class="cls-1" d="M33.92,54.96h20.69v54.28H0V63.44C0,41.05,5.43,24.99,16.28,15.27,27.14,5.54,42.63,.46,62.76,0l4.41,21.37c-23.97,2.49-35.06,13.69-33.24,33.59Zm86.16,0h20.7v54.28h-54.62V63.44c0-22.39,5.43-38.45,16.29-48.17C113.3,5.54,128.79,.46,148.92,0l4.41,21.37c-23.97,2.49-35.06,13.69-33.25,33.59Z"/><path class="cls-1" d="M1791.28,777.16h-20.69v-54.28h54.61v45.8c0,22.39-5.43,38.45-16.28,48.17-10.86,9.72-26.34,14.81-46.48,15.27l-4.41-21.37c23.97-2.49,35.06-13.69,33.24-33.59Zm-86.16,0h-20.7v-54.28h54.62v45.8c0,22.39-5.43,38.45-16.29,48.17-10.85,9.72-26.34,14.81-46.47,15.27l-4.41-21.37c23.97-2.49,35.06-13.69,33.25-33.59Z"/></g></g></svg>