<?xml version="1.0" encoding="UTF-8"?><svg id="Capa_2" xmlns="http://www.w3.org/2000/svg" viewBox="0 0 53.73 53.73"><defs><style>.cls-1{fill:#fff;}.cls-2{fill:#183f84;}</style></defs><g id="Capa_1-2"><g><rect class="cls-1" x="8.12" y="8.12" width="37.5" height="37.5"/><g><path class="cls-2" d="M33.16,14.08h-12.58c-3.58,0-6.5,2.92-6.5,6.5v12.58c0,3.58,2.92,6.5,6.5,6.5h12.58c3.58,0,6.5-2.92,6.5-6.5v-12.58c0-3.58-2.92-6.5-6.5-6.5Zm-6.16,20.55c-4.28,0-7.76-3.48-7.76-7.76s3.48-7.76,7.76-7.76,7.76,3.48,7.76,7.76-3.48,7.76-7.76,7.76Zm8.21-14.19c-1.02,0-1.85-.83-1.85-1.85s.83-1.85,1.85-1.85,1.85,.83,1.85,1.85-.83,1.85-1.85,1.85Z"/><path class="cls-2" d="M39.68,0H14.06C6.33,0,0,6.33,0,14.06v25.62c0,7.73,6.33,14.06,14.06,14.06h25.62c7.73,0,14.06-6.33,14.06-14.06V14.06c0-7.73-6.33-14.06-14.06-14.06Zm2.94,33.16c0,5.22-4.25,9.46-9.46,9.46h-12.58c-5.22,0-9.46-4.24-9.46-9.46v-12.58c0-5.22,4.24-9.46,9.46-9.46h12.58c5.22,0,9.46,4.24,9.46,9.46v12.58Z"/><path class="cls-2" d="M27,21.9c-2.74,0-4.97,2.23-4.97,4.97s2.23,4.97,4.97,4.97,4.97-2.23,4.97-4.97-2.23-4.97-4.97-4.97Z"/></g></g></g></svg>