<?xml version="1.0" encoding="UTF-8"?><svg id="Capa_2" xmlns="http://www.w3.org/2000/svg" viewBox="0 0 140.41 160.47"><defs><style>.cls-1{fill:#fff;}.cls-2{fill:#d02526;}.cls-3{fill:#183f85;}.cls-4{fill:#373737;}</style></defs><g id="Capa_1-2"><g><polygon class="cls-2" points="63.62 121.16 65.62 81.75 74.71 81.75 76.93 125.43 63.62 121.16"/><g><path class="cls-4" d="M95.28,121.78c-.69,0-1.25-.56-1.25-1.25v-8.96c0-.69,.56-1.25,1.25-1.25s1.25,.56,1.25,1.25v8.96c0,.69-.56,1.25-1.25,1.25Z"/><path class="cls-4" d="M70.21,83.09c-4.46,0-8.6-2.21-11.07-5.92-.14-.21-.21-.45-.21-.7v-4.42c0-.41,.21-.8,.55-1.04,.34-.23,.78-.28,1.16-.13,6.16,2.42,12.98,2.42,19.14,0,.38-.15,.82-.1,1.16,.13,.34,.23,.55,.62,.55,1.04v4.42c0,.25-.07,.49-.21,.69-2.47,3.71-6.62,5.93-11.07,5.93Zm-8.78-7.01c2.03,2.83,5.28,4.51,8.78,4.51s6.75-1.68,8.78-4.51v-2.25c-5.69,1.84-11.86,1.84-17.55,0v2.25Z"/><path class="cls-4" d="M82.28,160.47c-4.56,0-9.16-1.18-13.3-3.61l-13.77-8.07c-3.65-2.14-7.82-3.27-12.05-3.27h-6.98c-.69,0-1.25-.56-1.25-1.25s.56-1.25,1.25-1.25h6.98c4.68,0,9.28,1.25,13.32,3.61l13.77,8.07c9.34,5.48,21.23,3.96,28.89-3.71l26.19-26.19c.95-.95,1.47-2.21,1.47-3.55s-.52-2.6-1.47-3.55c-1.9-1.9-5.2-1.9-7.09,0l-10.64,10.64c-.49,.49-1.28,.49-1.77,0s-.49-1.28,0-1.77l10.64-10.64c2.84-2.84,7.8-2.84,10.64,0,1.42,1.42,2.2,3.31,2.2,5.32s-.78,3.9-2.2,5.32l-26.19,26.2c-5.07,5.07-11.81,7.71-18.63,7.71Z"/><g><path class="cls-3" d="M12.36,111.66v36.36c0,1.38,1.12,2.51,2.51,2.51h13.79c1.38,0,2.51-1.12,2.51-2.51v-36.36c0-1.38-1.12-2.51-2.51-2.51H14.87c-1.38,0-2.51,1.12-2.51,2.51Z"/><path class="cls-4" d="M28.66,151.78H14.87c-2.07,0-3.76-1.69-3.76-3.76v-36.36c0-2.07,1.69-3.76,3.76-3.76h13.79c2.07,0,3.76,1.69,3.76,3.76v36.36c0,2.07-1.69,3.76-3.76,3.76Zm-13.79-41.37c-.69,0-1.25,.56-1.25,1.25v36.36c0,.69,.56,1.25,1.25,1.25h13.79c.69,0,1.25-.56,1.25-1.25v-36.36c0-.69-.56-1.25-1.25-1.25H14.87Z"/></g><path class="cls-4" d="M93.85,139.24h-16.3c-.69,0-1.25-.56-1.25-1.25s.56-1.25,1.25-1.25h16.3c2.77,0,5.01-2.25,5.01-5.01s-2.25-5.01-5.01-5.01h-17.55c-.15,0-.3-.03-.45-.08l-19.86-7.57c-4.15-1.58-8.51-2.38-12.94-2.38h-6.87c-.69,0-1.25-.56-1.25-1.25s.56-1.25,1.25-1.25h6.87c4.74,0,9.4,.86,13.84,2.54l19.64,7.48h17.32c4.15,0,7.52,3.37,7.52,7.52s-3.37,7.52-7.52,7.52Z"/><path class="cls-4" d="M115.34,113.26c-.69,0-1.25-.56-1.25-1.25v-8.09c0-7.03-4.17-13.36-10.64-16.13l-22.78-9.77c-2.51,3.19-6.35,5.07-10.46,5.07h0c-4.11,0-7.94-1.88-10.45-5.07l-22.78,9.77c-6.46,2.77-10.64,9.1-10.64,16.13,0,.69-.56,1.37-1.25,1.37s-1.25-.45-1.25-1.14c0-8.26,4.77-15.5,12.16-18.66l23.7-10.16c.56-.24,1.2-.05,1.54,.46,2.01,3.01,5.37,4.81,8.98,4.81h0c3.62,0,6.98-1.8,8.99-4.81,.33-.5,.98-.69,1.54-.46l23.7,10.16c7.38,3.17,12.16,10.4,12.16,18.44v8.09c0,.69-.56,1.25-1.25,1.25Z"/><path class="cls-4" d="M131.64,75.22h-25.07c-.69,0-1.25-.56-1.25-1.25s.56-1.25,1.25-1.25h25.07c.69,0,1.25,.56,1.25,1.25s-.56,1.25-1.25,1.25Z"/><path class="cls-4" d="M139.16,75.22h-2.51c-.69,0-1.25-.56-1.25-1.25s.56-1.25,1.25-1.25h2.51c.69,0,1.25,.56,1.25,1.25s-.56,1.25-1.25,1.25Z"/><path class="cls-4" d="M33.85,75.22H8.78c-.69,0-1.25-.56-1.25-1.25s.56-1.25,1.25-1.25h25.07c.69,0,1.25,.56,1.25,1.25s-.56,1.25-1.25,1.25Z"/><path class="cls-4" d="M3.76,75.22H1.25c-.69,0-1.25-.56-1.25-1.25s.56-1.25,1.25-1.25H3.76c.69,0,1.25,.56,1.25,1.25s-.56,1.25-1.25,1.25Z"/><path class="cls-4" d="M70.17,75.22c-13.15,0-24.43-8.71-27.82-21.32-4.04-.13-7.28-3.45-7.28-7.52s3.25-7.39,7.28-7.52c3.38-12.6,14.67-21.32,27.82-21.32s24.44,8.71,27.82,21.32c4.04,.13,7.28,3.45,7.28,7.52s-3.24,7.39-7.28,7.52c-3.38,12.6-14.67,21.32-27.82,21.32Zm-27.02-23.87c.6,0,1.26,.38,1.39,.95,2.76,12.02,13.3,20.41,25.63,20.41s22.87-8.39,25.64-20.41c.14-.62,.71-1.06,1.37-.96,.32,.05,.44,.06,.57,.06,2.77,0,5.01-2.25,5.01-5.01s-2.25-5.01-5.01-5.01c-.13,0-.25,.02-.37,.04-.64,.1-1.43-.3-1.57-.94-2.77-12.02-13.31-20.41-25.64-20.41s-22.87,8.39-25.64,20.41c-.15,.62-.72,1.06-1.37,.96-.32-.05-.45-.06-.57-.06-2.77,0-5.01,2.25-5.01,5.01s2.25,5.01,5.01,5.01c.13,0,.25-.02,.37-.04,.06-.01,.13-.02,.19-.02Z"/><g><path class="cls-1" d="M45.1,43.88h-1.25V27.58h7.52v10.03c0,3.46-2.81,6.27-6.27,6.27Z"/><path class="cls-4" d="M45.09,45.13h-1.25c-.69,0-1.25-.56-1.25-1.25V27.58c0-.69,.56-1.25,1.25-1.25h7.52c.69,0,1.25,.56,1.25,1.25v10.03c0,4.15-3.37,7.52-7.52,7.52Zm0-2.51h0Zm0-13.79v13.79c2.77,0,5.01-2.25,5.01-5.01v-8.78h-5.01Z"/></g><g><path class="cls-1" d="M88.98,27.45v10.15c0,3.46,2.81,6.27,6.27,6.27h1.25V23.98c-1.98,1.94-4.61,3.18-7.52,3.47Z"/><path class="cls-4" d="M96.49,45.13h-1.25c-4.15,0-7.52-3.37-7.52-7.52v-10.16c0-.64,.49-1.18,1.13-1.25,2.58-.26,4.99-1.37,6.77-3.12,.36-.35,.9-.46,1.36-.26,.47,.2,.77,.65,.77,1.16v19.9c0,.69-.56,1.25-1.25,1.25Zm-6.27-16.59v9.07c0,2.77,2.25,5.01,5.01,5.01V26.57c-1.5,.96-3.21,1.64-5.01,1.97Z"/></g><path class="cls-4" d="M70.17,60.17c-3.53,0-7.06-1.34-9.75-4.03-.49-.49-.49-1.28,0-1.77s1.28-.49,1.77,0c4.4,4.4,11.56,4.4,15.96,0,.49-.49,1.28-.49,1.77,0s.49,1.28,0,1.77c-2.69,2.69-6.22,4.03-9.75,4.03Z"/><g><path class="cls-1" d="M87.72,27.58H43.84c0-10.39,8.42-18.81,18.81-18.81h13.05c5.44,0,10.82-1.18,15.76-3.46l8.8-4.06V15.04c0,6.92-5.61,12.54-12.54,12.54Z"/><path class="cls-4" d="M87.72,28.83H43.84c-.69,0-1.25-.56-1.25-1.25,0-11.06,9-20.06,20.06-20.06h13.05c5.23,0,10.5-1.16,15.23-3.35L99.73,.11c.39-.17,.84-.15,1.2,.08,.36,.23,.58,.63,.58,1.06V15.04c0,7.6-6.18,13.79-13.79,13.79Zm-42.58-2.51h42.58c6.22,0,11.28-5.06,11.28-11.28V3.21l-7.02,3.24c-5.07,2.34-10.7,3.58-16.29,3.58h-13.05c-9.25,0-16.86,7.2-17.51,16.3Z"/></g></g><path class="cls-4" d="M78.12,125.37l-2.22-43.69-2.53,.13,.31,6.14c-3.53,.96-6.02,.47-7.19,.09l.32-6.24-2.53-.13-2,39.42,2.53,.13,1.55-30.59c.86,.22,1.99,.4,3.38,.4,1.18,0,2.55-.14,4.07-.5l1.77,34.96,2.53-.13Z"/></g></g></svg>