<?xml version="1.0" encoding="UTF-8"?><svg id="Capa_2" xmlns="http://www.w3.org/2000/svg" viewBox="0 0 298.62 34.82"><defs><style>.cls-1{fill:#d02526;}.cls-2{fill:#183f84;}.cls-3{fill:#282123;}</style></defs><g id="Capa_1-2"><g><path class="cls-1" d="M105.12,.64l-7.55,10.81L89.92,.64h-.09l-7.68,14.54v18.82h7.28V13.35l7.86,10.24,.04,.07h.31l7.95-10.4v20.75h7.33V.64h-7.81ZM0,34H7.47v-10.87h4.29l6.39,10.87h8.56l-7.43-12.36c2.95-1.28,6.39-4.02,6.39-9.85v-.19c0-3.22-1.03-5.9-2.97-7.75C20.5,1.75,17.21,.64,13.18,.64H0V34H0Zm33.63,0h14.05l3.41-6.46h-10.03v-7.1h13.39v-6.47h-13.39V7.11h15.22V.64h-22.65V34h0Zm85.02,0h7.54l2.53-7.18h11.74l2.58,7.18h7.74L138.24,.45h-7.04l-12.55,33.55h0Zm34.96,0h8.32l6.31-11.19,6.26,11.19h8.52l-10.39-17.06L182.61,.64h-8.32l-5.91,10.57-5.81-10.57h-8.51l9.9,16.4-10.34,16.96h0Zm-15.42-13.51h-7.19l3.62-10.21,3.57,10.21h0ZM18.14,11.94v.05c0,3.02-2.06,4.83-5.51,4.83H7.47V7.11h5.01c3.7,0,5.66,1.67,5.66,4.83Z"/><polygon class="cls-2" points="72.96 .64 55.35 34 64.42 34 82.04 .64 72.96 .64"/><path class="cls-3" d="M204.98,34.77c2.38,0,4.54-.3,6.46-.91,1.93-.61,3.57-1.55,4.95-2.81,1.37-1.26,2.42-2.87,3.16-4.83,.74-1.96,1.11-4.29,1.12-6.99V.67h-9.42V19.51c0,1.56-.26,2.85-.77,3.87-.5,1.02-1.22,1.78-2.14,2.28-.92,.49-2.01,.74-3.26,.74s-2.34-.26-3.26-.77c-.92-.52-1.63-1.31-2.14-2.36-.51-1.05-.77-2.38-.77-3.99V.67h-9.42V19.46c0,2.61,.37,4.89,1.08,6.81,.72,1.93,1.75,3.51,3.09,4.77,1.35,1.25,2.98,2.19,4.89,2.81,1.91,.61,4.05,.92,6.43,.92h0Zm21.19-.62h9.18V15.78l14.3,18.36h8.13V.67h-9.18V18.36L234.82,.67h-8.66V34.15h0Zm54.38,.67c2.07,0,4.03-.3,5.85-.88,1.82-.59,3.48-1.41,4.97-2.47,1.5-1.07,2.78-2.33,3.87-3.77,1.08-1.45,1.91-3.05,2.5-4.78,.58-1.74,.88-3.57,.88-5.5v-.1c0-1.93-.3-3.76-.88-5.49-.58-1.73-1.4-3.32-2.48-4.76-1.07-1.43-2.35-2.68-3.83-3.74-1.48-1.05-3.14-1.87-4.96-2.45-1.82-.57-3.76-.87-5.83-.88-2.07,0-4.03,.3-5.85,.88-1.82,.59-3.48,1.41-4.97,2.47-1.5,1.07-2.78,2.33-3.87,3.77-1.08,1.45-1.91,3.04-2.5,4.78-.58,1.74-.88,3.57-.88,5.5v.1c0,1.93,.3,3.76,.88,5.49,.58,1.73,1.4,3.32,2.48,4.76,1.07,1.43,2.35,2.68,3.83,3.74,1.48,1.05,3.14,1.87,4.96,2.45,1.82,.57,3.76,.87,5.83,.88h0Zm.1-8.37c-1.28,0-2.43-.26-3.48-.73-1.04-.48-1.95-1.14-2.7-1.98-.76-.84-1.35-1.79-1.76-2.88-.41-1.08-.61-2.23-.62-3.45v-.1c0-1.22,.21-2.36,.61-3.44,.4-1.08,.97-2.02,1.72-2.85,.74-.83,1.63-1.47,2.67-1.94,1.04-.47,2.18-.71,3.46-.72,1.28,0,2.45,.25,3.51,.73,1.05,.48,1.95,1.14,2.72,1.98,.76,.84,1.35,1.79,1.76,2.88,.41,1.08,.61,2.23,.62,3.45v.1c0,1.22-.21,2.36-.61,3.44-.4,1.08-.97,2.02-1.72,2.85-.75,.83-1.65,1.47-2.69,1.94-1.04,.47-2.21,.71-3.49,.72Z"/></g></g></svg>