<?xml version="1.0" encoding="UTF-8"?> <svg xmlns="http://www.w3.org/2000/svg" xmlns:xlink="http://www.w3.org/1999/xlink" width="325.671" height="51.154" viewBox="0 0 325.671 51.154"><defs><clipPath id="a"><rect width="47.303" height="51.154" fill="#0a233e"></rect></clipPath></defs><g transform="translate(-496.231 -443)"><g transform="translate(-33 93)"><g transform="translate(529.231 350)"><g clip-path="url(#a)"><path d="M47.294,25.585q0,12.518.009,25.036c0,.407-.076.533-.513.533q-23.139-.02-46.279,0c-.436,0-.512-.126-.511-.53Q.016,25.565,0,.507C0,.124.081,0,.492,0Q23.675.017,46.858,0c.371,0,.445.106.445.461q-.016,12.562-.008,25.123ZM.707,25.535Q.707,37.7.7,49.871c0,.4.1.5.5.5q22.46-.015,44.921,0c.384,0,.482-.092.482-.479q-.015-24.357,0-48.714c0-.358-.089-.468-.459-.467Q23.681.724,1.22.711C.8.711.7.829.7,1.244Q.717,13.39.707,25.535" transform="translate(0 0)" fill="#0a233e"></path><path d="M20.781,41.067q0-9.875,0-19.75c0-.749,0-.75.724-.75q17.874,0,35.749-.008c.449,0,.542.122.542.551q-.018,20.034,0,40.068c0,.3-.066.39-.379.39q-18.115-.011-36.23,0c-.315,0-.413-.061-.412-.4q.018-10.05.009-20.1Zm36.559-.046h0q0-9.786.006-19.573c0-.32-.051-.449-.421-.449q-17.61.018-35.22,0c-.389,0-.484.106-.483.485q.017,19.6,0,39.19c0,.372.1.449.461.449q17.5-.014,35-.007c.116,0,.234-.009.349,0,.235.023.311-.09.3-.309-.01-.145,0-.291,0-.437q0-9.677,0-19.355" transform="translate(-15.647 -15.488)" fill="#0a233e"></path><path d="M92.8,45.535A4.416,4.416,0,0,1,87.706,44.3a4.155,4.155,0,0,1-.908-2.76,3.965,3.965,0,0,1,2.158-3.593,4.488,4.488,0,0,1,5.536,1.032,4.231,4.231,0,0,1,.824,3.486,3.54,3.54,0,0,1-.762,1.754c-.158.188-.055.278.082.424a23.776,23.776,0,0,1,1.65,1.894c-.683,0-1.3,0-1.925,0a.5.5,0,0,1-.4-.2c-.78-.891-1.571-1.772-2.36-2.655-.395-.442-.794-.88-1.259-1.4.766,0,1.454-.03,2.138.017.223.015.365.3.512.492.186.244.342.152.431-.064a2.6,2.6,0,0,0-1.158-3.389A2.561,2.561,0,1,0,91.1,44.2a.954.954,0,0,1,.9.413c.229.315.509.593.8.926" transform="translate(-65.387 -28.185)" fill="#0a233e"></path><path d="M66.949,46.282c-.586,0-1.151,0-1.717,0a.311.311,0,0,1-.315-.172c-.762-1.334-1.532-2.664-2.3-4a1.3,1.3,0,0,1-.069-.2c.4,0,.777.008,1.149,0a1.07,1.07,0,0,0,1.107-1.441,1.032,1.032,0,0,0-1.053-.657c-.349-.013-.7.022-1.048-.009s-.438.112-.435.445c.015,1.849,0,3.7.018,5.548,0,.4-.111.54-.5.487s-.919.169-1.173-.095c-.232-.241-.06-.749-.062-1.138-.008-2.17,0-4.34-.013-6.51,0-.245.059-.334.312-.33,1.18.018,2.362-.028,3.538.045a2.54,2.54,0,0,1,2.26,2.339,2.486,2.486,0,0,1-1.261,2.509c-.263.149-.065.327.02.473.5.857,1,1.71,1.5,2.564a.707.707,0,0,1,.041.137" transform="translate(-45.568 -28.788)" fill="#0a233e"></path><path d="M38.968,42.123c0-1.193.009-2.386-.006-3.579,0-.307.051-.452.4-.422.432.037,1-.14,1.267.076s.085.818.088,1.249c.011,1.571.013,3.142,0,4.713,0,.334.066.457.43.442.784-.032,1.571,0,2.356-.018.261-.005.348.069.356.341.042,1.264.051,1.264-1.215,1.263-1.106,0-2.211-.007-3.317,0-.274,0-.369-.061-.364-.361.02-1.236.009-2.473.008-3.709" transform="translate(-29.35 -28.693)" fill="#0a233e"></path><path d="M124.449,38.314c.247,0,.494,0,.742,0,.156,0,.252.014.169.221q-1.143,2.862-2.27,5.73c-.313.8-.618,1.6-.9,2.41-.088.251-.136.3-.318.078-.328-.4-.671-.781-1-1.174-.076-.091-.16-.156-.092-.329q1.332-3.372,2.631-6.756c.062-.16.163-.179.3-.178.247,0,.494,0,.742,0v0" transform="translate(-90.964 -28.863)" fill="#0a233e"></path><path d="M137.739,40.489c.227.553.472,1.1.678,1.662.443,1.208.9,2.409,1.4,3.6.27.643.518,1.294.77,1.944.082.212.024.318-.232.31-.465-.016-.931-.012-1.4,0a.3.3,0,0,1-.326-.221c-.55-1.581-1.224-3.113-1.827-4.673a1.2,1.2,0,0,1,.142-.91q.332-.851.662-1.7h.128" transform="translate(-103.025 -30.501)" fill="#0a233e"></path><path d="M66.1,145.112a2.305,2.305,0,0,1-2.1-1.663A3.405,3.405,0,0,1,64.171,141a2.207,2.207,0,0,1,3.622-.431,2.663,2.663,0,0,1,.565,1.678,2.635,2.635,0,0,1-1.083,2.525,1.868,1.868,0,0,1-1.179.336m-1.282-2.678A1.774,1.774,0,0,0,65,143.49a1.193,1.193,0,0,0,1.07.824,1.125,1.125,0,0,0,1.093-.7,2.782,2.782,0,0,0,.148-2.027,1.112,1.112,0,0,0-.908-.936c-.706-.087-1.107.084-1.361.647a1.787,1.787,0,0,0-.223,1.132" transform="translate(-48.098 -105.328)" fill="#0a233e"></path><path d="M123.264,143.015a4.019,4.019,0,0,1,.323-1.721,1.513,1.513,0,0,1,2.864.2,4.668,4.668,0,0,1-.065,3.021,1.423,1.423,0,0,1-1.588,1,1.734,1.734,0,0,1-1.343-1.3,3.639,3.639,0,0,1-.19-1.2m2.529-.118a2.882,2.882,0,0,0-.184-1.32.642.642,0,0,0-.614-.524.565.565,0,0,0-.572.388,4.425,4.425,0,0,0-.042,2.841.579.579,0,0,0,.628.469.626.626,0,0,0,.608-.527,3.051,3.051,0,0,0,.176-1.327" transform="translate(-92.844 -105.73)" fill="#0a233e"></path><path d="M48.526,145.1a2.523,2.523,0,0,1-1.574-.515c-.148-.1-.343-.251-.133-.441.156-.14.209-.52.6-.252a1.525,1.525,0,0,0,1.574.309.6.6,0,0,0,.034-1.1c-.448-.219-.907-.415-1.356-.632a1.313,1.313,0,0,1-.747-1.547c.042-.41.517-.808,1.023-1a2.194,2.194,0,0,1,1.826.227c.173.083.447.207.253.481-.136.192-.247.554-.618.215a1.316,1.316,0,0,0-.951-.213.56.56,0,0,0-.627.474.581.581,0,0,0,.395.649c.416.194.847.356,1.265.546a1.307,1.307,0,0,1,.834,1.317,1.427,1.427,0,0,1-.918,1.3,1.483,1.483,0,0,1-.881.187" transform="translate(-35.201 -105.321)" fill="#0a233e"></path><path d="M110.614,142.972a3.214,3.214,0,0,1-.492,1.933,1.454,1.454,0,0,1-2.56-.3,4.488,4.488,0,0,1-.007-3.375,1.517,1.517,0,0,1,2.778.088,2.093,2.093,0,0,1,.164.445,6.687,6.687,0,0,1,.117,1.208m-.9,0a2.938,2.938,0,0,0-.17-1.414.683.683,0,0,0-.6-.487.6.6,0,0,0-.6.426,3.709,3.709,0,0,0-.014,2.835.613.613,0,0,0,.627.437.633.633,0,0,0,.589-.482,2.842,2.842,0,0,0,.163-1.315" transform="translate(-80.779 -105.743)" fill="#0a233e"></path><path d="M93.575,143.071a1.526,1.526,0,0,1-1.863.224,1.749,1.749,0,0,1,.163-2.723,1.71,1.71,0,0,1,2.487,1.273,3.977,3.977,0,0,1-.275,2.7,1.765,1.765,0,0,1-2.745.55c-.164-.155-.114-.253.018-.341s.143-.428.422-.244c.969.64,1.689-.039,1.791-.954a4.745,4.745,0,0,0,0-.483m-1.66-1.107a.873.873,0,0,0,.77.932.922.922,0,0,0,.892-.777c.018-.426-.441-1.082-.822-1.063a.858.858,0,0,0-.84.908" transform="translate(-68.655 -105.742)" fill="#0a233e"></path><path d="M68.772,85.724c0-.581.015-1.163-.006-1.744-.01-.277.084-.357.346-.333a7.329,7.329,0,0,1,1.855.106,1.254,1.254,0,0,1,.253,2.178c-.247.19-.271.313-.1.544.245.334.381.734.643,1.061.125.156.1.253-.152.3-.537.1-.736-.231-.92-.622-.117-.247-.259-.482-.369-.731-.129-.292-.372-.294-.617-.252-.273.047-.129.281-.146.428a6.432,6.432,0,0,0-.005.7c0,.469-.181.592-.636.466-.2-.054-.144-.193-.145-.31-.006-.6,0-1.192,0-1.787Zm.782-.936c0,.788,0,.788.475.788.621,0,.949-.248.941-.708-.008-.406-.319-.559-.924-.619-.587-.057-.505.291-.492.539" transform="translate(-51.802 -63.007)" fill="#0a233e"></path><path d="M139.508,85.738c0-.581.015-1.163-.006-1.743-.011-.28.091-.358.349-.33a7.288,7.288,0,0,1,1.593.106,1.685,1.685,0,0,1,1.172,1.356,2.527,2.527,0,0,1-.192,1.777,1.8,1.8,0,0,1-1.69.937c-.389,0-.892.123-1.138-.07-.263-.207-.066-.732-.086-1.118-.016-.3,0-.61,0-.915Zm2.374.083c.022-1.126-.577-1.5-1.314-1.545-.2-.011-.284.051-.281.267.01.8,0,1.6,0,2.395,0,.128.015.234.177.237a1.255,1.255,0,0,0,1.068-.339,1.641,1.641,0,0,0,.349-1.015" transform="translate(-105.057 -63.023)" fill="#0a233e"></path><path d="M142.628,142.867v1.57c0,.557,0,.575.569.549.294-.014.4.044.4.369s-.075.422-.408.41c-.755-.027-1.513-.022-2.268,0-.275.006-.351-.079-.334-.345.015-.249,0-.438.356-.431.743.014.743-.008.745-.762q0-.938,0-1.876c0-.594,0-.62-.593-.6-.365.01-.313-.2-.3-.412a.12.12,0,0,1,.091-.127,5.1,5.1,0,0,1,1.445-.416c.223,0,.305.055.3.289-.015.6,0,1.192,0,1.788" transform="translate(-105.907 -106.06)" fill="#0a233e"></path><path d="M125.52,85.718c0-.568.009-1.136,0-1.7-.006-.247.037-.37.329-.36.669.022,1.34.018,2.01,0,.253-.006.277.111.276.315s-.02.325-.277.311c-.392-.021-.787.007-1.179-.008-.281-.011-.378.091-.382.377-.009.668-.023.668.626.67.16,0,.321,0,.481,0,.223-.006.422-.042.414.316-.007.326-.129.408-.415.368a1.574,1.574,0,0,0-.262,0c-1,.032-.808-.174-.842.91-.006.2.085.247.261.244.422-.006.846.011,1.267-.007.256-.011.312.09.312.327s-.032.373-.326.364c-.655-.021-1.311-.017-1.966,0-.253.005-.327-.088-.322-.331.013-.6,0-1.194,0-1.791Z" transform="translate(-94.554 -63.019)" fill="#0a233e"></path><path d="M54.95,85.729c0-.6.006-1.192,0-1.788,0-.2.05-.281.267-.278.654.012,1.309.016,1.963,0,.283-.008.284.141.3.348.016.257-.118.282-.319.278-.392-.008-.786.013-1.178-.005-.276-.013-.366.1-.333.356a.936.936,0,0,1,0,.261c-.052.338.074.476.425.432.215-.027.436,0,.654-.005.246-.011.432-.029.429.34s-.174.368-.43.346c-.087-.008-.174,0-.262,0-.833,0-.818,0-.822.827,0,.29.106.339.355.33.407-.016.815.012,1.221-.009.265-.014.273.124.268.319s.035.377-.27.369q-1-.024-2.007,0c-.231.005-.261-.094-.259-.284.007-.611,0-1.221,0-1.832" transform="translate(-41.393 -63.023)" fill="#0a233e"></path><path d="M39.918,85.563a1.337,1.337,0,0,0,.95,1.423.956.956,0,0,0,.819-.172c.305-.243.446-.025.591.159.168.215-.089.247-.186.333a1.58,1.58,0,0,1-1.891.2,1.8,1.8,0,0,1-.991-1.47,2.408,2.408,0,0,1,.657-2.253,1.82,1.82,0,0,1,2.193-.114c.116.094.243.215.092.357-.112.1-.142.36-.412.237-1.036-.472-1.822.054-1.822,1.207,0,.029,0,.058,0,.087" transform="translate(-29.51 -62.797)" fill="#0a233e"></path><path d="M105.226,85.734c0-.582.008-1.164,0-1.745,0-.233.05-.335.311-.327q.938.027,1.876,0c.26-.008.306.094.313.324.009.269-.115.315-.342.306-.363-.014-.727,0-1.091-.013-.207-.007-.27.08-.289.279-.088.929-.093.928.844.933a3.359,3.359,0,0,0,.392,0c.257-.029.271.116.273.316s-.025.348-.278.307a.2.2,0,0,0-.043,0c-.387.028-.914-.178-1.122.091-.193.248-.082.753-.059,1.142.021.355-.036.55-.459.506-.237-.024-.331-.077-.325-.328.016-.6,0-1.192,0-1.789Z" transform="translate(-79.266 -63.023)" fill="#0a233e"></path><path d="M83.364,86.069c0-.465-.017-.932.006-1.4.015-.313-.113-.416-.4-.391-.13.011-.262-.007-.392,0-.224.015-.375.01-.371-.306s.136-.317.368-.315c.829.009,1.659.013,2.488,0,.263,0,.306.1.3.332s-.064.292-.3.3c-.936.02-.933.029-.928.99,0,.742-.009,1.484.007,2.225.006.264-.065.37-.34.345-.231-.021-.471.042-.449-.34.028-.478.007-.96.007-1.44" transform="translate(-61.925 -63.024)" fill="#0a233e"></path><path d="M39.858,142.887c0,.726-.021,1.453.009,2.178.016.394-.225.328-.445.32s-.465.1-.459-.3q.031-2.222,0-4.444c-.006-.436.266-.3.485-.326.274-.033.424.015.412.355-.025.74-.008,1.481-.008,2.222Z" transform="translate(-29.351 -105.693)" fill="#0a233e"></path><path d="M97.821,85.742c0-.6.019-1.191-.007-1.786-.015-.342.194-.287.39-.282s.41-.087.405.265c-.017,1.205-.02,2.41,0,3.616.005.378-.236.27-.434.293-.248.029-.37-.031-.359-.32.021-.595.006-1.191.006-1.786Z" transform="translate(-73.685 -63.028)" fill="#0a233e"></path><path d="M119.118,85.762c0,.567-.019,1.135.007,1.7.015.33-.124.381-.408.38-.266,0-.385-.045-.38-.354.019-1.163.022-2.327,0-3.489-.008-.371.186-.329.429-.344.287-.019.372.071.359.363-.026.58-.008,1.163-.008,1.744Z" transform="translate(-89.144 -63.018)" fill="#0a233e"></path></g></g><path d="M-701.907,581.893a2.515,2.515,0,0,1,1.527-2.3c.289-.156.667-.132.881-.436h1.884a11.711,11.711,0,0,1,1.222.559,2.391,2.391,0,0,1-.046,4.318,4.051,4.051,0,0,1-3.952.067A2.45,2.45,0,0,1-701.907,581.893Zm10.118,5.939q0,5.47.006,10.939a6.679,6.679,0,0,0-.222,1.875c0,.052-.031.124-.008.151a.239.239,0,0,0,.163.072c1.877.006,3.756-.042,5.63.033.853.034,1.038-.245.811-.985-.3-3.185-.091-6.378-.158-9.567a1.373,1.373,0,0,1,.63-1.182,1.8,1.8,0,0,1,2.943.929q-.011,3.928-.022,7.856a9.166,9.166,0,0,0-.188,2.275l-.009.019a.416.416,0,0,0-.113.414c.045.066.089.19.134.19,2.088.015,4.177.018,6.265.028.289,0,.4-.111.315-.4q-.161-1.987-.322-3.973l-.012-5.284q0-.093,0-.186.008-.354.015-.708a1.881,1.881,0,0,0,.136-.244,1.868,1.868,0,0,1,2.266-1.318c.817.126,1.191.647,1.182,1.838-.024,3.166.13,6.336-.18,9.5-.053.384-.253.809.466.788,1.586-.045,3.174-.038,4.762-.052,1.408.106,1.416.1,1.32-1.243-.029-.4-.115-.8-.175-1.206q-.019-4.334-.038-8.668c-.237-2.529-1.3-3.769-3.729-4.227a7.644,7.644,0,0,0-5.889,1.258c-.569.387-.9.47-1.46-.058a5.07,5.07,0,0,0-3.6-1.328,8.746,8.746,0,0,0-4.971,1.645l-.569-1.095c-.248-.3-.586-.155-.881-.159-1.224-.017-2.455.075-3.67-.032-1.018-.089-1.237.272-.97,1.154Zm-1,31.264a4.929,4.929,0,0,1-1.962-.083c-.465-.127-.682-.032-.659.52.062,1.473.038,2.951.131,4.422.03.469-.042.569-.462.455h-5.078c-.83.2-1.246,0-.974-.959.106-.374-.024-.8.187-1.166q.014-7.983.028-15.966-.079-.665-.158-1.329l-.158-1.371c1.858,0,3.692,0,5.525,0,.3,0,.475.107.474.426.24.636.6.3.939.116a6.954,6.954,0,0,1,6.317-.359,6.161,6.161,0,0,1,3.834,5.848A8.8,8.8,0,0,1-692.784,619.1Zm.837-11.49a1.93,1.93,0,0,0-.253-.278,2.147,2.147,0,0,0-2.359-.408c-.78.311-.852.994-.841,1.721.016,1,0,2.009.005,3.014,0,1.068-.008,2.135,0,3.2s.382,1.394,1.45,1.254a2.386,2.386,0,0,0,1.316-.669C-690.992,613.932-690.6,609.366-691.947,607.606Zm18.665.2a1.363,1.363,0,0,0-.622-1.11,4.148,4.148,0,0,0-3.427-.464,13.789,13.789,0,0,0-3.339,1.181c-.342.3-.376.09-.372-.216.014-1.045.022-2.09.033-3.135.115-1.035.964-.547,1.493-.722a38.149,38.149,0,0,1,5.244.009,13.5,13.5,0,0,1,4.1.9,5.1,5.1,0,0,1,3.416,4.912q.011,3.011.022,6.022a15.158,15.158,0,0,0,1.011,3.59c-1.989,0-3.861,0-5.733,0a.538.538,0,0,1-.548-.283c-.326-.8-.8-.448-1.306-.226a8.171,8.171,0,0,1-6.74.066c-3.255-1.4-3.7-5.129-.943-7.354,1.842-1.485,4.076-1.978,6.276-2.569a2.7,2.7,0,0,0,.542-.138C-673.872,608.11-673.312,608.33-673.282,607.8Zm-2.9,4.939a1.913,1.913,0,0,0,.174,2.711,2.7,2.7,0,0,0,3.07.009.7.7,0,0,0,.189-.593c0-1.286,0-2.571,0-3.937A5.331,5.331,0,0,0-676.179,612.74Zm16.935-12c.521.065.624-.244.645-.682.055-1.2.136-2.393.207-3.59a36.346,36.346,0,0,1,1.384,3.67c.116.355.211.6.671.622.48.019.566-.27.676-.6q.61-1.844,1.225-3.687a26.194,26.194,0,0,1,.3,3.745c.006.513.248.527.637.536.447.01.483-.16.449-.561-.124-1.437-.186-2.88-.293-4.319-.019-.258.2-.736-.344-.677-.442.048-1.043-.368-1.276.478-.356,1.292-.831,2.551-1.318,4.012-.5-1.477-.98-2.7-1.316-3.96-.208-.777-.735-.5-1.181-.546-.6-.065-.428.411-.451.7q-.162,2.064-.28,4.13C-659.526,600.271-659.79,600.667-659.244,600.736Zm43.831,9.228c-.015.493-.079,1.011-.649,1.236a3.762,3.762,0,0,1-2.825.1c-.128-.029-.441.013-.307-.314.095-.232.17-.44.527-.356.483.115.986.15,1.48.22.75-.256.861-.808.713-1.531-.861.42-1.726.794-2.507-.025a3.119,3.119,0,0,1-.031-3.285,1.476,1.476,0,0,1,1.458-.66,3.532,3.532,0,0,0,1.784.072c.282-.109.431.062.421.408C-615.384,607.205-615.372,608.585-615.413,609.963Zm-.98-2.525h-.021a3.368,3.368,0,0,1,0-.373c.078-.7-.36-.955-.941-1.005-.619-.054-.9.341-.952.906a8.525,8.525,0,0,0-.019,1.116c.016.435.157.815.663.86a1.175,1.175,0,0,0,1.182-.586A2.394,2.394,0,0,0-616.393,607.439Zm-43.4,11.171c.844-1.933,1.619-3.75,2.435-5.55a.733.733,0,0,1,1.213.014c.809,1.782,1.573,3.583,2.364,5.4-.809.236-1.35.184-1.488-.723a.877.877,0,0,0-.951-.8c-1.489-.084-1.6-.072-2.3,1.3C-658.818,618.84-659.27,618.473-659.791,618.61Zm2.548-2.19c.373-.218.574.076.856.065.37-.015.618-.088.438-.547-.256-.653-.493-1.313-.81-2.162-.35.855-.635,1.5-.881,2.168C-657.771,616.3-657.677,616.674-657.243,616.42Zm48.115-26.269c0,.345,0,.69,0,1.035,0,.556-.534.937-.888.56-.377-.4-.557-.182-.859-.042-.983.454-1.738.246-2.053-.546-.308-.775.126-1.473,1.148-1.8a7.279,7.279,0,0,1,1.1-.224c.25-.038.52,0,.487-.393-.027-.326-.148-.516-.513-.531a2.977,2.977,0,0,0-1.362.3c-.256.116-.406.079-.537-.154-.169-.3.071-.415.259-.484a7.674,7.674,0,0,1,1.166-.338c1.5-.3,2.038.146,2.051,1.674C-609.126,589.523-609.129,589.837-609.128,590.151Zm-1.563-.415c-.579.109-1.223.2-1.3.954a.456.456,0,0,0,.607.508c.553-.155,1.155-.309,1.2-1.037C-610.084,589.662-610.407,589.682-610.691,589.736Zm-47.4,17.656a4.41,4.41,0,0,0-.027,1.583c.012.7-.445.967-1.091.612-.031-.017.009-.166.016-.253q0-2.547,0-5.094c-.062-.152-.11-.359.11-.358a10.467,10.467,0,0,1,2.706.111,1.363,1.363,0,0,1,1.138,1.4,1.439,1.439,0,0,1-1.014,1.515c-.118.042-.241.071-.354.123C-657.086,607.257-657.832,606.736-658.09,607.392Zm.533-.949c.618-.067,1.228-.174,1.231-.986s-.6-.81-1.179-.885c-.84-.108-.59.489-.638.982C-658,605.837-658.439,606.539-657.557,606.443Zm17.005-9.223c.032.5.008,1,.006,1.508s.03,1.008-.011,1.507c-.037.453.174.514.551.513.393,0,.55-.091.512-.536a14.5,14.5,0,0,1-.011-1.978c.039-.734.641-.912,1.194-.938.633-.029.457.551.473.919.028.627.009,1.256.006,1.885,0,.3-.142.636.39.649.495.012.66-.222.659-.662,0-.848.027-1.7-.021-2.544-.057-1.014-.492-1.318-1.508-1.057a2.737,2.737,0,0,1-1.735.218C-640.449,596.56-640.577,596.821-640.552,597.22Zm-15.994-7.549a15.351,15.351,0,0,1-.013,1.6c-.052.5.152.569.578.563.4-.006.537-.111.506-.536a18.335,18.335,0,0,1-.01-1.972c.027-.744.624-.915,1.176-.939.615-.026.473.542.487.916.023.625,0,1.253,0,1.879,0,.272-.2.652.359.647.466,0,.692-.172.678-.663-.019-.72,0-1.441-.006-2.161-.017-1.443-.642-1.859-1.967-1.307-.311.13-.507.358-.915-.011-.286-.258-1.007-.315-.889.578A10.847,10.847,0,0,1-656.546,589.671Zm8.661-.4a1.953,1.953,0,0,1,1.579-1.756,1.882,1.882,0,0,1,1.1.084,1.681,1.681,0,0,1,1.146,1.918c-.216.789-.911.078-1.263.333a2.486,2.486,0,0,0-.623.009c-.3.088-.851-.261-.847.38a.907.907,0,0,0,.966.938,2.016,2.016,0,0,0,1.137-.38c.257-.159.38-.067.533.125.184.23,0,.32-.136.438a2.9,2.9,0,0,1-2.657.388A2.356,2.356,0,0,1-647.885,589.271Zm1.126-.3c.005.578.508.187.779.314.281-.185.894.363.888-.383a.728.728,0,0,0-.809-.725A.787.787,0,0,0-646.758,588.968Zm6.353,27.467a2.15,2.15,0,0,1-2.145,2.25,1.983,1.983,0,0,1-2.074-2.16,2.154,2.154,0,0,1,2.092-2.3A2.008,2.008,0,0,1-640.405,616.436Zm-1.086.265c.011-1.324-.6-1.974-1.374-1.676a1.742,1.742,0,0,0-.631,2.068c.15.512.448.953,1.044.87C-641.622,617.847-641.515,617.175-641.491,616.7Zm6.091-19.213a1.874,1.874,0,0,1,2.01-1.069,1.686,1.686,0,0,1,1.591,1.357c.205.743.067,1.147-.806,1a3.457,3.457,0,0,0-.562,0,2.278,2.278,0,0,0-.561.009c-.274.073-.753-.261-.784.319a.872.872,0,0,0,.73.956,1.728,1.728,0,0,0,1.333-.322.372.372,0,0,1,.606.168c.158.306-.141.344-.308.452a2.432,2.432,0,0,1-2.8.107A2.749,2.749,0,0,1-635.4,597.488Zm.92.436c.031.525.551.109.827.3.237-.245.812.3.829-.373a.713.713,0,0,0-.757-.767A.789.789,0,0,0-634.48,597.924Zm11.263-8.192a2.221,2.221,0,0,1,2.152-2.269,1.957,1.957,0,0,1,2.04,2.175,2.119,2.119,0,0,1-2.06,2.315A2.054,2.054,0,0,1-623.217,589.732Zm1.1.007c-.006.945.4,1.5,1.057,1.478.627-.021,1.042-.64,1.031-1.538s-.441-1.517-1.091-1.457C-622.049,588.309-622.112,589.027-622.116,589.739Zm5.13,26.659a2.114,2.114,0,0,1-2.088,2.282,1.937,1.937,0,0,1-2.093-2.115,2.12,2.12,0,0,1,2.133-2.334A1.969,1.969,0,0,1-616.987,616.4Zm-1.027.049c-.009-.913-.424-1.479-1.08-1.471s-1.057.591-1.051,1.5c.006.871.467,1.515,1.078,1.505S-618.005,617.307-618.013,616.448Zm-10.7,1.971.045-.015a.344.344,0,0,0-.023.029h0c-.329.019-.753.5-.938-.184-.088-.323-.218-.063-.312-.025a7.71,7.71,0,0,1-.848.374c-.71.191-1.349.061-1.609-.707a1.2,1.2,0,0,1,.76-1.6,3.878,3.878,0,0,1,1.529-.389c.264-.006.5-.045.48-.412a.483.483,0,0,0-.53-.518,2.9,2.9,0,0,0-1.365.273c-.3.143-.456.083-.581-.2-.151-.344.165-.362.323-.42a6.782,6.782,0,0,1,1.256-.362c1.388-.223,1.9.219,1.88,1.638A12.428,12.428,0,0,1-628.711,618.418Zm-1.274-1.952c-.806-.008-1.534.478-1.492,1a.527.527,0,0,0,.556.519c.531.03,1.306-.621,1.3-1.091C-629.624,616.654-629.557,616.34-629.985,616.467Zm-23.192-8.452c-.015-.691-.022-1.383.012-2.073.019-.389-.044-.572-.493-.555-.417.016-.612.066-.573.575.064.844,0,1.7.03,2.543.036,1.141.566,1.492,1.667,1.165.414-.124.845-.738,1.286.005.021.035.535.2.707-.16q0-1.971-.009-3.943c-.924-.314-.954-.3-.95.554,0,.628.048,1.261-.012,1.884-.062.656-.665.831-1.159.888C-653.3,608.969-653.169,608.395-653.177,608.014Zm1.376-7.839c-.34-.768.009-1.45.964-1.806.406-.151.839-.229,1.26-.34.212-.056.543.083.528-.338a.542.542,0,0,0-.589-.583,3.135,3.135,0,0,0-1.264.294c-.246.1-.461.164-.618-.161-.206-.424.188-.4.36-.473a3.963,3.963,0,0,1,2.192-.311c.478.079.816.285.863.813.015.99.025,1.979.047,2.968.006.271.005.506-.366.483-.293-.018-.668.086-.6-.433-.352-.049-.547.258-.828.375C-650.73,601.029-651.5,600.848-651.8,600.175Zm.9-.525c.035.351.244.467.573.463.613-.007,1.3-.584,1.283-1.113.045-.3-.083-.418-.417-.405C-650.209,598.624-650.946,599.147-650.9,599.65Zm30.294,9.865,0-3.188c-.176-.992-.689-1.225-1.757-.853-.333.116-.67.616-1.091-.016-.109-.163-.924-.354-.855.54a28.053,28.053,0,0,1,.009,3.094c-.014.416.015.629.516.617.434-.011.6-.091.558-.575-.058-.652-.006-1.312-.019-1.969-.013-.673.548-.772.977-.965s.593.182.753.49l-.01,2.633C-621.422,609.771-621.2,609.816-620.6,609.515Zm-13.83-18.346a1.12,1.12,0,0,1,.392-1.411,3.438,3.438,0,0,1,1.833-.612c.3-.026.559-.038.519-.455-.035-.356-.227-.467-.558-.478a2.985,2.985,0,0,0-1.351.308c-.267.122-.406.011-.532-.2-.194-.321.111-.388.273-.445a4.049,4.049,0,0,1,1.991-.372.977.977,0,0,1,.791.263c.452.232.386.674.4,1.064A18.181,18.181,0,0,0-630.65,591c.12.8-.2.922-.85.784-.2-.215-.313-.575-.728-.182a1.7,1.7,0,0,1-.948.331A1.132,1.132,0,0,1-634.432,591.169Zm1.477.034c.576-.107,1.156-.272,1.283-.975.031-.359-.046-.578-.456-.509-.6.1-1.224.2-1.379.91A.46.46,0,0,0-632.955,591.2Zm-5.857.621c.383.013.562-.065.532-.508-.044-.654.011-1.315-.026-1.97-.033-.589.413-.723.791-.9a.626.626,0,0,1,.929.33c-.01.845,0,1.691-.036,2.535-.012.338.031.52.435.506.356-.012.581-.029.56-.494-.049-1.031-.044-2.064-.061-3.1-.4-.823-.871-.958-1.9-.521-.3.128-.49.368-.874-.039-.354-.375-.89.012-.889.571,0,1.033.029,2.067-.017,3.1C-639.388,591.816-639.161,591.813-638.812,591.824Zm.048,14.368c.432.187.278.643.286,1,.015.622,0,1.244,0,1.866.008.736.125.789.956.452a27.057,27.057,0,0,0-.035-3.563c-.348-.93-1.044-.571-1.687-.475-.333.05-.551.472-.947.277.009-.594-.012-1.19.037-1.781.04-.472-.2-.48-.555-.491-.4-.012-.445.159-.44.5.03,1.845.035,3.69.048,5.535a.6.6,0,0,0,.909,0q0-1.315,0-2.629a2.966,2.966,0,0,1,.4-.372C-639.474,606.317-639.142,606.028-638.764,606.193Zm-12.876,11.8c-.386.063-1.069-.61-1.115.2-.041.738.814.237,1.113.489,1.091.032,1.951-.407,2.059-1.065.164-1-.534-1.366-1.3-1.653a1.505,1.505,0,0,1-.266-.087c-.227-.139-.584-.2-.514-.57.077-.413.453-.366.749-.388a2.108,2.108,0,0,1,.555.079c.262.053.4-.033.456-.307.076-.345-.19-.344-.375-.406a1.548,1.548,0,0,0-.463-.053c-.834-.012-1.764,0-2.006.969-.252,1.008.64,1.27,1.381,1.56.332.13.811.238.716.718C-650.752,617.978-651.235,617.927-651.64,617.993Zm5.369-1.775c-.2-.1-.394-.191-.6-.268-.342-.129-.854-.187-.759-.655.088-.429.573-.384,1.06-.351.177-.01.639.247.677-.194.041-.474-.44-.513-.833-.521a2.808,2.808,0,0,0-1.2.169c-.425.183-.763.418-.788.94a1.124,1.124,0,0,0,.675,1.135c.333.167.692.281,1.037.426.243.1.439.25.412.555s-.276.412-.511.479a1.694,1.694,0,0,1-1.1-.08c-.313-.125-.448.018-.536.306-.127.415.181.383.413.427a3.831,3.831,0,0,0,1.769-.014,1.276,1.276,0,0,0,1.045-1.077A1.2,1.2,0,0,0-646.271,616.218Zm9.646,1.55c-.962.43-1.479.207-1.7-.715-.363-1.5.169-2.133,1.751-2.022.336.024.46-.076.529-.344.093-.357-.23-.32-.4-.374a2.131,2.131,0,0,0-2.981,2.151c0,1.922,1.319,2.75,3.1,1.91.216-.1.719-.107.521-.578C-636.036,617.269-636.338,617.639-636.625,617.768Zm11.655-.1c-.274.17-.535.327-.859.134q0-1.4,0-2.8c.25,0,.5.014.75-.01.212-.02.538.156.556-.278.019-.474-.324-.378-.581-.352-.528.053-.845-.06-.752-.694.024-.161.169-.511-.183-.5-.243.009-.629-.007-.688.353-.079.476-.118.878-.768.927-.175.013-.242.538.208.533.488-.005.461.271.455.6-.01.564-.02,1.128,0,1.691.019.478-.146,1.063.454,1.312a1.9,1.9,0,0,0,1.686-.312c.192-.1.284-.229.175-.448A.294.294,0,0,0-624.97,617.669Zm-17.75-8.236c.224-.111.679-.13.468-.578s-.5-.149-.766-.03c-.609.273-1.24.44-1.614-.307a2.048,2.048,0,0,1,.075-2.07,1.133,1.133,0,0,1,1.5-.348c.293.107.465,0,.572-.286.095-.255-.059-.327-.243-.4a2.2,2.2,0,0,0-3.124,2.086C-645.858,609.486-644.515,610.322-642.72,609.433Zm13.242-2.42a3.219,3.219,0,0,1-.424-.2.415.415,0,0,1-.118-.7,1.436,1.436,0,0,1,1.074-.072c.326.135.552.065.606-.289.07-.454-.308-.385-.555-.391-.426-.01-.854.03-1.281.049-.565.121-1.019.405-1.052,1.023a1.21,1.21,0,0,0,.958,1.231c.235.082.468.172.694.277.256.118.545.244.494.6-.056.385-.391.478-.7.489a3.6,3.6,0,0,1-1.019-.113c-.333-.086-.355.147-.447.332s.012.263.163.354a2.824,2.824,0,0,0,2.934-.591C-627.715,608.242-628.165,607.565-629.478,607.013Zm-28.985-15.2c.444.026.406-.247.4-.542-.009-.752,0-1.5,0-2.256,0-.784-.009-1.567,0-2.35.006-.449-.212-.623-.636-.6-.239.014-.51-.059-.507.347.012,1.629,0,3.259.013,4.889C-659.187,591.793-658.826,591.795-658.462,591.817Zm14.033,5.485c.524-.116.338-.492.28-.721-.08-.315-.369-.1-.54-.037-.333.117-.529.54-1,.006-.359-.408-.844-.008-.819.624.018.467,0,.935,0,1.4h0c0,.5.013,1,0,1.5-.012.346-.121.673.452.674.491,0,.665-.13.6-.633-.051-.4.029-.816-.02-1.216A1.274,1.274,0,0,1-644.43,597.3Zm1.647-6.114c-.022.473.046.655.573.649.508-.006.541-.214.506-.623-.043-.5.022-1.007-.028-1.5a1.047,1.047,0,0,1,.8-1.219c.688-.153.654-.5.511-1.035-.606.137-1.133.674-1.842.18-.336-.234-.547.07-.521.542A29.571,29.571,0,0,1-642.783,591.188Zm16.253-.1c-.178-.326-.339-.246-.594-.093-.687.411-.791-.007-.784-.58.009-.722,0-1.443,0-2.165a6.985,6.985,0,0,0,1.014-.039c.459-.082.386-.32.1-.567l-.379.014-.721-.057a2.472,2.472,0,0,0-.011-.371c-.047-.272.174-.674-.3-.756s-.549.261-.629.614c-.042.188.04.453-.272.521-.2.043-.591-.119-.489.3.076.315.409.323.7.307q.03,1.5.061,3c.409.836.975.952,1.973.366C-626.7,591.491-626.3,591.5-626.529,591.085ZM-646.8,606.131c.291-.073.218-.437.12-.65s-.316-.121-.492-.046c-.352.15-.671.737-1.091.009a.479.479,0,0,0-.772.469c.044,1.094.021,2.191.006,3.286,0,.336.043.561.456.478.81.162.531-.441.549-.816C-647.972,607.791-648.4,606.528-646.8,606.131Zm-4.314-17.911q.03,1.5.06,3c.427.851,1.1.961,2.068.329.156-.1.455-.139.24-.468-.149-.226-.264-.306-.519-.135s-.528.364-.832.073q0-1.388,0-2.777c.408-.212,1.2.371,1.224-.386.014-.483-.7-.137-1.085-.209-.39-.219.151-.9-.434-.966-.495-.055-.652.355-.735.778-.012.059-.127.111-.2.143-.173.073-.524-.1-.493.232C-651.792,588.224-651.427,588.222-651.114,588.221Zm26.16-.645c-.5.009-.535.218-.524.626q.043,1.505,0,3.012c-.012.408.017.612.519.622.555.011.595-.228.56-.671-.04-.5-.009-1-.008-1.506,0-.471-.032-.945.01-1.412C-624.356,587.8-624.4,587.567-624.954,587.576Zm18.383,3.519c-.007-.314,0-.628,0-.942,0-1.287,0-2.574-.01-3.861,0-.24.039-.568-.344-.522-.228.028-.714-.275-.614.356q-.007,2.736-.013,5.472C-606.686,592-606.551,591.932-606.571,591.1Zm-20.2,14.475q0,1.974,0,3.947a.594.594,0,0,0,.912,0q0-1.973,0-3.947A.615.615,0,0,0-626.771,605.57Zm-7.445,8.771c-.748.017-.441.485-.454.835q-.007,1.6-.013,3.207c.882.385.985.33.983-.523,0-.9,0-1.809-.008-2.714C-633.713,614.788-633.491,614.324-634.216,614.341Zm11.788,2.247c0-.563-.025-1.127.01-1.687.026-.408-.1-.538-.513-.548-.46-.012-.49.209-.484.572q.027,1.547,0,3.094c-.006.354,0,.566.469.575.494.011.566-.174.527-.6C-622.461,617.529-622.429,617.057-622.427,616.588ZM-642.514,596.5c-.313,0-.518,0-.5.435q.053,1.634,0,3.272c-.013.438.16.515.537.518s.465-.166.45-.508c-.023-.529-.006-1.06,0-1.589,0-.561-.029-1.124.011-1.682C-641.992,596.532-642.188,596.5-642.514,596.5Zm-59.377,4.378c2.118,0,4.21-.006,6.3,0,.7,0,.383-.454.375-.776-.045-.686-.125-1.372-.129-2.058-.025-3.849-.032-7.7-.045-11.549.113-.513.049-.785-.617-.766-1.785.052-3.573.011-5.36.027-.171,0-.454-.176-.526.178q.16,1.42.32,2.84,0,4.521,0,9.042-.08.76-.16,1.52Zm84.088-9.708c0,.338-.13.646.451.659.6.013.561-.3.544-.693-.021-.47-.022-.941-.032-1.412.086-1.182.723-1.6,1.713-1.131q.016,1.407.032,2.815c-.115.358.027.458.363.363.312.04.622.125.588-.4-.073-1.109.088-2.225-.09-3.332-.254-.629-.774-.643-1.3-.507a11.615,11.615,0,0,0-1.268.48c.021-.621-.45-.376-.735-.393-.433-.025-.266.308-.266.532C-617.8,589.16-617.794,590.166-617.8,591.171Zm5.664,23.639c-.266-.714-.844-.643-1.394-.506a8.812,8.812,0,0,0-1.2.483c.041-.518-.331-.409-.63-.422-.386-.015-.356.244-.354.5.005,1.068.015,2.137,0,3.2-.006.328.006.536.427.509.333-.022.6.019.571-.473-.048-.783-.027-1.569-.035-2.355.469-.4.923-.842,1.626-.556a16.67,16.67,0,0,1,.069,2.977c0,.454.251.4.531.4s.522.049.49-.416C-612.111,617.048-612.11,615.928-612.139,614.811Zm-12.87-28.244c.327-.017.625.029.608-.467-.013-.384-.175-.5-.5-.47-.331-.016-.572.019-.577.435C-625.48,586.417-625.393,586.587-625.009,586.567Zm2.149,25.811c-.359.006-.57.046-.563.491.006.381.152.468.49.454.3-.013.576,0,.511-.413C-622.4,612.58-622.458,612.371-622.86,612.378Zm-19.61-16.861c.4.016.479-.2.443-.532.067-.46-.259-.376-.537-.4-.4-.041-.453.166-.455.5C-643.022,595.5-642.777,595.5-642.47,595.516Zm15.652,8.387c.008.385.088.553.515.536.357-.015.526-.107.46-.478.065-.362-.078-.5-.45-.482C-626.6,603.494-626.827,603.473-626.818,603.9Zm-7.636,9.349c.244-.151.771.126.757-.533.042-.233-.109-.346-.43-.344-.338,0-.644,0-.58.468C-634.683,613.028-634.749,613.434-634.455,613.252Zm1.981-3.737c-.361.171-.735.462-.961-.173-.121-.337-.295-.067-.412.005a2.276,2.276,0,0,1-1.227.4,1.059,1.059,0,0,1-1.151-.759,1.187,1.187,0,0,1,.5-1.479,4.284,4.284,0,0,1,1.684-.527c.234-.036.643.045.6-.407a.576.576,0,0,0-.735-.533,5.632,5.632,0,0,0-1.174.3c-.294.112-.472.07-.592-.208-.143-.33.137-.34.327-.424a4.288,4.288,0,0,1,2.007-.367c.75.041,1.156.392,1.141,1.169Zm-1.089-1.977a2.2,2.2,0,0,0-1.239.275.74.74,0,0,0-.488.715.476.476,0,0,0,.32.5,1.45,1.45,0,0,0,1.547-1.09C-633.423,607.786-633.408,607.557-633.563,607.538Zm-57.373,16.019c.039.028.077.075.118.078s.07-.048.112-.08a.959.959,0,0,0-.163-.051C-690.888,623.5-690.913,623.538-690.936,623.557Zm41.682,2.134a14.808,14.808,0,0,1-3.929.828,31.562,31.562,0,0,1-7.906-.888c-5.338-1.182-10.547-2.913-15.966-3.755a23.909,23.909,0,0,0-10.6.279,6.275,6.275,0,0,0-2.715,1.283c3.343-.28,6.374.858,9.428,1.873a113.914,113.914,0,0,0,12.1,3.713c1.515.322,3.042.581,4.564.868h4.9c.211-.269.515-.149.781-.187a18.716,18.716,0,0,0,9.461-3.879h0c.074-.066.282-.063.187-.21C-649.02,625.508-649.168,625.59-649.254,625.69Z" transform="translate(1319.73 -229.156)" fill="#0a233e"></path><path d="M-40.983,856.74l.145.046-.145.113ZM2.729,839.463c-.1-3.092-.557-6.152-.739-9.234-.024-.409-.183-.549-.586-.533a15.351,15.351,0,0,1-1.987,0c-.577-.052-.774.182-.908.7-.579,2.253-1.2,4.495-1.819,6.788a1.364,1.364,0,0,1-.131-.24c-.425-1.612-.83-3.228-1.274-4.834-.217-.786-.146-1.9-.735-2.268-.617-.385-1.641-.1-2.485-.145-.431-.022-.624.115-.645.563-.032.66-.119,1.317-.177,1.976q-.353,3.992-.7,7.984c-.292,1.623-.292,1.623,1.292,1.62a3.508,3.508,0,0,1,.475,0c.422.057.556-.148.573-.537.052-1.212.123-2.423.186-3.635q.131-1.651.261-3.3l.146,0,1.5,5.213h0q.235.953.47,1.906a.388.388,0,0,0,.276.333,1.616,1.616,0,0,0,2.325-1.284.752.752,0,0,0,0-.157l1.776-5.746.23.068c.016.155.036.31.049.465q.232,2.842.463,5.684c.08.35-.305.92.415.968.554.037,1.113,0,1.67,0,.227,0,.355-.083.29-.334C2.963,840.8,2.75,840.13,2.729,839.463ZM6,850.574H6l0,0Zm6.385,7.91c0,.17.008.343-.211.4-.529-.016-1.059-.058-1.587-.038-.285.011-.3-.5-.716-.25a3.754,3.754,0,0,1-4.04-.27h0l-.779-.965,0,0-.338-.787-.133-.454a8.3,8.3,0,0,1,.445-4.3l0,0L6,850.573a.337.337,0,0,0,.284-.192l.011-.006.187-.128v.009l.782-.316.311-.07c.579.084,1.186-.171,1.745.288.279.229.51-.012.5-.411-.026-1.217-.028-2.434-.04-3.651a2.659,2.659,0,0,1,1.6.156l.164.02a.769.769,0,0,1,.618.135l.026.162v.315c0,.054,0,.108,0,.162-.063,3.073-.072,6.145,0,9.217l.01.636.022.482A1.915,1.915,0,0,0,12.383,858.483Zm-2.54-5.5c.1-.762-.353-1.056-.958-1.221a1.112,1.112,0,0,0-1.41.6,5.425,5.425,0,0,0-.11,4.029c.245.716.947.787,1.617.654a.982.982,0,0,0,.857-1.2c-.047-.472-.009-.953-.008-1.43A11.357,11.357,0,0,1,9.843,852.982Zm1.647-6.58a.273.273,0,0,1,.059.009h0A.273.273,0,0,0,11.49,846.4Zm-6.474-4.765-.784-.953,0,0A.433.433,0,0,0,4.1,840.3a5.435,5.435,0,0,1-.014-1.658,2.784,2.784,0,0,1,2.5-2.2c.49-.1,1-.117,1.5-.173.33-.037.8.155.747-.488-.041-.523-.079-1.034-.746-1.121a3.266,3.266,0,0,0-2.248.618c-.48.317-.721.3-1.013-.245-.647-1.211-.673-1.176.6-1.726a5.64,5.64,0,0,1,3.159-.566c.824.136,1.786.173,2.18,1.174.173.089.164.25.16.408.309.359.188.8.192,1.2.011,1.347-.021,2.694-.037,4.041.1.24.213.477.3.721.1.26.607.365.417.67a4.179,4.179,0,0,1-1.093,1.219c-.29.2-.565-.28-.878-.391l-.168-.174h0c-.459-.791-.573.112-.858.174a.154.154,0,0,0-.119.053l-.794.283-.013,0a8.691,8.691,0,0,1-2.229-.158.085.085,0,0,0-.1-.035l-.222-.106a.11.11,0,0,0-.106-.046l-.2-.133Zm2-1.377a1.285,1.285,0,0,0,1.351-.079c.541-.282.45-.776.448-1.245.007-1.138.007-1.138-1.137-.951a2.159,2.159,0,0,0-.234.036,1.124,1.124,0,0,0-.9.981A1.189,1.189,0,0,0,7.011,840.26Zm39.2-2.768a6.619,6.619,0,0,1,.207-1.966,3.825,3.825,0,0,1,5.31-2.512,3.647,3.647,0,0,1,2.1,3.221c.287,1.885.282,1.885-1.6,1.887H51.2c-.636,0-1.272-.007-1.908,0s-.807.271-.588.9a2.055,2.055,0,0,0,1.982,1.3,2.986,2.986,0,0,0,1.581-.473c.763-.508.959.147,1.276.58.441.6-.15.733-.46.912a4.669,4.669,0,0,1-4.843.19A4.2,4.2,0,0,1,46.211,837.493Zm3.48-1.106h.4v0h1.029a.314.314,0,0,0,.363-.312,1.615,1.615,0,0,0-.859-1.562,1.286,1.286,0,0,0-1.648.713C48.558,836.1,48.731,836.386,49.692,836.387Zm4.492,15.655a8.09,8.09,0,0,1,.365,2.578c0,.431-.159.542-.558.536-1.271-.017-2.542-.009-3.813-.006-.805,0-.91.15-.695.935a2.105,2.105,0,0,0,.916,1.154,3.493,3.493,0,0,0,2.375-.2c.236-.2.49-.507.813-.324a2.172,2.172,0,0,1,.756,1.079c.094.2-.162.305-.308.4a4.814,4.814,0,0,1-4.9.505,4.064,4.064,0,0,1-2.277-3.962,5.06,5.06,0,0,1,1.093-3.755,3.669,3.669,0,0,1,3.5-1.176A3.143,3.143,0,0,1,54.183,852.042Zm-2.962-.507a1.536,1.536,0,0,0-1.727.757c-.311.777-.058,1.141.8,1.141h.4v0c.343,0,.685,0,1.028,0,.2,0,.348-.037.4-.279A1.6,1.6,0,0,0,51.222,851.535ZM21.95,857.846l.116.326a5.7,5.7,0,0,1-1.767.867.132.132,0,0,0-.121-.086L20,858.781l.008,0c-.14-.479-.368-.553-.7-.151a.127.127,0,0,0-.127.064l-.17.1a.137.137,0,0,0-.139.053,1.678,1.678,0,0,0-.616,0,2.965,2.965,0,0,1-3.372-.83l-.006-.008c-.03-.251-.237-.462-.164-.736a3.677,3.677,0,0,1-.152-1.564c.023-1.875-.081-3.75.055-5.624a.088.088,0,0,0,.107-.034l.634-.009a1.033,1.033,0,0,1,.645-.135h0l.8-.183.1.168a.614.614,0,0,0,0,.491q-.01.314-.019.627c-.024,1.753-.045,3.505-.075,5.258-.005.315.258.505.32.784a.675.675,0,0,1-.381-.128.675.675,0,0,0,.381.128,1.334,1.334,0,0,0,1.913-.3l0,0c.373-.182.286-.528.288-.833.006-1.32,0-2.641,0-3.961,0-1.716,0-1.716,1.7-2.116.128-.03.252-.081.377-.121a.2.2,0,0,0,.136.046c0,2.136,0,4.273.016,6.409a2.369,2.369,0,0,0,.234,1.381l.076.138Zm-5.235-.965a.241.241,0,0,0,.029.041A.241.241,0,0,1,16.715,856.881Zm13.264-2.348-.965-.794a.1.1,0,0,1-.114-.034l-1.5-.437a.06.06,0,0,1-.093-.021c-.493.13-.811-.165-1.129-.462l0,0c-.354-.606-.22-1.073.407-1.237a1.85,1.85,0,0,1,1.372.092.911.911,0,0,1,.623.2c.5.263.838.166,1.018-.416a3.769,3.769,0,0,1,.412-.725h0c-.267-.52-.881-.462-1.278-.765l-.3-.077c-1.357-.035-2.732-.226-4,.49l-.271.211-.209.248-.037.044-.253.346,0,0-.314.951q-.015.154-.029.308a3.29,3.29,0,0,0,.8,2.068l.007.005.182.137,0-.008a15.075,15.075,0,0,0,2.691.813h0c.6.1,1.01.412.918,1.056-.1.665-.608.881-1.226.877a4.058,4.058,0,0,1-2.115-.605c-.649-.4-.975-.251-1.189.42a1.389,1.389,0,0,1-.215.321l0,0a.336.336,0,0,1-.157.317c.005.108.01.215.016.323l.168.128.008,0,2.367.8.309.043A8.412,8.412,0,0,0,28,858.958c1.789-.482,2.542-1.726,2.3-3.817ZM2.648,858.22c0,.459-.272.6-.645.613-.475.015-.951-.016-1.427-.027-.292-.026-.213-.258-.213-.418,0-1.914.012-3.828.02-5.743-.373-.962-.785-1.12-1.7-.613a7.322,7.322,0,0,0-.807.6c.006,1.889.016,3.778.011,5.667,0,.178.127.44-.193.514-2.1.156-2.066.155-2.115-1.927s.251-4.21-.254-6.288a.3.3,0,0,1,.267-.4c.332-.078.662-.163.993-.246.487-.245.909-.34,1.029.394.073.445.313.289.548.13a3.448,3.448,0,0,1,2.7-.64,1.915,1.915,0,0,1,1.743,1.957C2.665,853.933,2.632,856.077,2.648,858.22ZM-2.3,852.76q-.009,2.943-.014,5.887h0Q-2.307,855.7-2.3,852.76Zm63.214,5.248c-.059-.9-.015-1.8-.014-2.7,0-1.627,0-1.627-1.594-2.092q-.115-.033-.227-.074c-.435-.159-.909-.337-.829-.9.087-.617.593-.751,1.135-.76a2.913,2.913,0,0,1,.555.035c.964.173.973.176.954-.84-.006-.332.173-.754-.411-.852a5.279,5.279,0,0,0-3.2.241,2.706,2.706,0,0,0-1.612,2.834,2.428,2.428,0,0,0,2.141,2.227c.491.11.993.172,1.478.3.571.148,1.089.515.982,1.117s-.683.872-1.334.853a4.556,4.556,0,0,1-2.184-.664c-.559-.329-.809-.2-1.039.362-.216.53-.649,1.026.219,1.374a8.751,8.751,0,0,0,2.927.721c.418-.062.834-.139,1.254-.184C60.73,858.934,60.956,858.64,60.915,858.007Zm-38.08-23.624c-.426-.034-.163-.681-.214-1.049-.041-.29.084-.461.4-.427.4.043.462-.174.48-.523.09-1.719.3-1.923,1.989-2.065.228-.019.62-.044.42.292-.274.461-.041.852-.034,1.27.019,1.145.026,1.132,1.176,1.163.242.006.74-.174.681.219-.064.425-.046,1.067-.71,1.181-1.159.2-1.161.191-1.16,1.358,0,1.138-.009,2.276.009,3.414.016.986.325,1.295,1.255,1.124.521-.1.652.06.7.521.044.4.312.809-.371.97a4.336,4.336,0,0,1-2.654-.035,1.541,1.541,0,0,1-1.153-1.277.11.11,0,0,1-.023-.128,1.591,1.591,0,0,1-.131-.928c-.007-1.323.009-2.647-.009-3.969C23.482,835.031,23.739,834.455,22.835,834.383Zm.865.575h0c-.006-.036-.015-.072-.022-.108C23.685,834.886,23.694,834.922,23.7,834.958Zm12.707,22.9-.027-.153c-.249-.311-.652-.164-.953-.319l-.315-.008c-.614.046-.563-.512-.765-.84q.006-2.506.011-5.012a5.094,5.094,0,0,1,1.392,0l.356-.508a.241.241,0,0,1,.129-.277l.012-.039a.331.331,0,0,1,.128-.335c.137-.613-.36-.4-.632-.486-1.458.109-1.456.109-1.333-1.318a3.443,3.443,0,0,0,.015-1.329.067.067,0,0,1-.1,0,.546.546,0,0,1-.495.116.1.1,0,0,1-.125.03,5,5,0,0,1-1.471.391.12.12,0,0,1-.106.087,6.563,6.563,0,0,0-.042,1.158c.1.734-.16,1.057-.9.952q0,.755,0,1.509h.058l.042.04c.632-.154.819.094.8.73-.044,1.446.05,2.9-.027,4.341-.117,2.179,1.657,2.667,3.179,2.4.374-.066.756-.129,1.133-.2l.149-.405A.648.648,0,0,1,36.407,857.855Zm-5.23-7.893h.01v-.011Zm11.143-.179-.051,0-.476-.08-.79.051-.8.461-.008.007-.151.138-.018.017c-.033.218-.1.433-.361.43s-.219-.264-.246-.421c-.1-.6-.447-.748-.934-.472s-1.354-.014-1.336.945q.015.166.029.332a.59.59,0,0,1,.153.51q0,3.474-.009,6.948l.175.223,2.058.007.215-.234c-.011-1.915-.041-3.83-.025-5.744.007-.8.92-1.234,1.906-.947l.293-.137a3.973,3.973,0,0,1,.472-1.453l-.009,0C42.392,850.166,42.48,849.956,42.32,849.783ZM-7.321,823.529a1.509,1.509,0,0,0,.275,0,2.661,2.661,0,0,0,2.53-2.2c.159-1.227-.5-2.11-1.915-2.586-.527-.177-1.062-.333-1.574-.546a1.147,1.147,0,0,1-.783-1.388,1.308,1.308,0,0,1,1.244-1.049,2.826,2.826,0,0,1,1.907.394c.3.19.539.288.763-.126.267-.493-.157-.532-.4-.664a4.052,4.052,0,0,0-2.466-.432A2.325,2.325,0,0,0-9.908,817a2.111,2.111,0,0,0,1.722,2.308c.478.156.97.274,1.439.454a1.477,1.477,0,0,1,1.111,1.7,1.6,1.6,0,0,1-1.628,1.247,3.483,3.483,0,0,1-2.062-.465c-.327-.2-.492-.141-.671.2s-.016.475.248.6A4.845,4.845,0,0,0-7.321,823.529Zm52.6,27.007.014-.779,0,0-.47-.015-.249.046a.419.419,0,0,1-.076.114,2.606,2.606,0,0,0-1.451.484l.028.159c-.034.068-.1.136-.1.2q-.012,3.825-.014,7.651c0,.224.022.424.287.486l1.879-.006c.188-.068.183-.243.219-.4l-.067-7.624Q45.276,850.7,45.277,850.536ZM29.857,819.365a2.464,2.464,0,0,1,2.94-2.109,2.365,2.365,0,0,1,1.977,1.728,3.4,3.4,0,0,1,.19,1.369c0,2.322-1.212,3.515-3.128,3.191-.052-.009-.106-.014-.157-.026C30.23,823.179,29.456,821.413,29.857,819.365Zm1.164,2.445a1.433,1.433,0,0,0,2.671.1,4.378,4.378,0,0,0,.22-1.407,10.888,10.888,0,0,0-.171-1.328,1.436,1.436,0,0,0-2.834.047A5.422,5.422,0,0,0,31.021,821.811Zm-6.08-3.792c.062-.186.243-.426.041-.585a.932.932,0,0,0-.767-.053c-.3.06-.273.365-.338.577-.434,1.408-.853,2.821-1.345,4.46-.537-1.739-1.012-3.247-1.463-4.762-.12-.4-.308-.472-.692-.342s-.407.287-.29.643c.564,1.722,1.232,3.408,1.7,5.166.27,1.015.281,1.3-.581,1.92-.235.169-.349.273-.217.557.153.327.363.218.588.119a2.506,2.506,0,0,0,1.315-1.614C23.591,822.083,24.266,820.051,24.941,818.019Zm-28.2,3.812a4.03,4.03,0,0,1-.19-1.459,4.084,4.084,0,0,1,.165-1.356,2.385,2.385,0,0,1,2.43-1.8A2.4,2.4,0,0,1,1.5,818.886a4.917,4.917,0,0,1,.1,2.813,2.374,2.374,0,0,1-2.344,1.885A2.378,2.378,0,0,1-3.258,821.831Zm.831-2.436a11.06,11.06,0,0,0,.165,2.521h0l-.012-.017.2.329h0a1.522,1.522,0,0,0,1.806.441c1.022-.492.96-1.505.939-2.425C.639,818.9.256,818.28-.54,818.065-1.427,817.826-1.957,818.2-2.427,819.394Zm13.261,1.891a3.624,3.624,0,0,1,.556-3.17,1.573,1.573,0,0,1,1.257-.809c.956-.422,1.7.149,2.339.658.665.529.6,1.431.591,2.224-.006.337-.345.333-.612.333-.821,0-1.644.037-2.462-.011-.62-.036-.709.233-.626.753a1.8,1.8,0,0,0,2.7,1.229c.266-.128.534-.471.749.039.2.465-.237.534-.484.661A2.647,2.647,0,0,1,10.835,821.286Zm2.312-1.225a3.51,3.51,0,0,1-.629-.053A3.51,3.51,0,0,0,13.147,820.06Zm-1.153-1.153a1.738,1.738,0,0,0-.1.927l2.516.027a1.342,1.342,0,0,0-.667-1.823A1.281,1.281,0,0,0,11.993,818.907Zm24.767-.029c-.166,1.194-.014,2.429-.061,3.645-.025.653.114.945.8.668l.156-.046a33.535,33.535,0,0,0,.071-4.264c0-.576.133-.847.751-.758.382.055.831.039.8-.484s-.514-.253-.747-.232c-.728.066-.843-.284-.795-.893.068-.857.318-1.188.99-1.107.35.042.807.17.82-.278.01-.334-.448-.488-.838-.513a1.664,1.664,0,0,0-1.981,1.737,1.792,1.792,0,0,1-.535,1.315C35.85,818.037,36.856,818.185,36.76,818.878ZM6.82,823.141c.2-.137.6-.227.333-.65-.241-.376-.438-.278-.759-.059a1.377,1.377,0,0,1-2.267-.864,4.872,4.872,0,0,1,.01-2.207,1.355,1.355,0,0,1,2.176-1.047c.4.212.5.015.68-.223.238-.314-.037-.421-.218-.547a2.379,2.379,0,0,0-3.03.459,3.728,3.728,0,0,0-.8,2.629,3.677,3.677,0,0,0,.289,1.434A2.419,2.419,0,0,0,6.82,823.141Zm9.746-5.064c.713-.061.564.438.568.837.006.529,0,1.057,0,1.586,0,.5,0,1,0,1.506.011,1.287.69,1.819,1.95,1.521.22-.052.5-.058.454-.419-.041-.342-.235-.331-.508-.29-.695.1-.961-.25-.949-.913.016-.872.027-1.745,0-2.617-.027-.728-.1-1.416,1-1.209.345.065.435-.285.455-.534.03-.374-.3-.2-.464-.214-.974-.053-.965-.045-.9-1.073.012-.19.229-.546-.177-.549-.3,0-.736-.05-.8.448-.02.157-.037.315-.041.474-.011.374.029.763-.557.7-.256-.025-.259.207-.259.4C16.341,817.9,16.362,818.095,16.567,818.077ZM29.812,831.9a1.492,1.492,0,0,0,1.46-1.394,1.467,1.467,0,0,0-1.4-1.524,1.46,1.46,0,0,0-.063,2.918Zm15.639,14.819-.113-.154-.194-.209-.131-.112-.032-.023L44.8,846.1a.142.142,0,0,1-.139-.044h-.944a2.041,2.041,0,0,0-.981.987q.015.472.03.944a.341.341,0,0,1,.151.32l0,0a1.9,1.9,0,0,0,1.581.62l-.005,0,.8-.478.116-.165a2.035,2.035,0,0,0,.053-1.564Zm-2.689,1.274v0l0,0Zm-21.38-18.419a1.582,1.582,0,0,0-2.683.616q.013.317.026.634h0l.494.786a.209.209,0,0,1,.133.069l.157.1.01.006a2.177,2.177,0,0,0,1.568-.174h0l.164-.154h0l.147-.173,0,0A2.121,2.121,0,0,0,21.382,829.573Zm9.557,8.734a1.1,1.1,0,0,0-.081.178,1.1,1.1,0,0,1,.081-.178c.011-1.293.028-2.587.032-3.88.006-1.916,0-1.916-1.917-1.4h0l-.306.061c-.036.036-.1.071-.1.107q-.017,4.13-.021,8.259c0,.6.516.419.762.359.527-.128,1.215.456,1.586-.336a.393.393,0,0,0,0-.158Q30.958,839.815,30.94,838.307ZM-6.91,846.78c-.263-.015-.527-.042-.79-.043a5.006,5.006,0,0,0-1.068.054v-.021l-.015.025c-.428.118-.392.468-.277,1.5q0,.178,0,.355-.021,4.972-.037,9.945c0,.061.076.121.116.182.658.018,1.318.019,1.974.059.365.022.442-.133.441-.459-.007-3.721,0-7.442-.007-11.163C-6.574,847-6.5,846.692-6.91,846.78Zm-11.83.29a31.907,31.907,0,0,1-.578,3.59l-.007.181a6.257,6.257,0,0,1-.472,2.41,3.533,3.533,0,0,0,.144,1.263q.017.271.033.54A18.089,18.089,0,0,0-18.9,857.8c.223.5-.183.464-.44.48a14.639,14.639,0,0,1-3.711-.087l-.409-.031a9.69,9.69,0,0,1-2.7-.6l-.337-.194c-.481.148-.741-.253-1.087-.439-.376.178-.648-.174-.985-.193l-1.086-.175a33.449,33.449,0,0,0-4.281-.164l-.173.019h0l-3.351.618h0l-.971.2-.749.482c.152-1.688.29-3.309.456-4.928.022-.219-.109-.551.265-.644q0-.469.009-.938c-.036-.742-.237-1.51.334-2.159.013-.392-.222-.777-.03-1.173-.068-.608.371-1.1.379-1.7.455,0,.739-.539,1.241-.391a2.26,2.26,0,0,1,1.092-.209l.98-.262a.844.844,0,0,1,.679-.212l.748.082a7.346,7.346,0,0,1,1.107,2.493q.067.292.108.591-.041-.3-.108-.591a7.346,7.346,0,0,0-1.107-2.493l-.748-.082a9.91,9.91,0,0,1,3.954-.072c.122.017.161.114.16.228h0c.509-.091.9.245,1.356.365.137-.157.3-.083.432-.018a12.425,12.425,0,0,0,4.264,1.02c.174.018.486-.129.55.223l-.073.008.073-.008.352-.109c1.19-.022,2.38-.04,3.57-.069C-18.841,846.665-18.676,846.725-18.74,847.071Zm-.9,4.084a2.237,2.237,0,0,0-1.017.589,2.235,2.235,0,0,1,1.017-.589Zm-7.64-3.808a2.151,2.151,0,0,0,.078.371,2.13,2.13,0,0,1-.078-.371,3.2,3.2,0,0,1-.021-.374A3.2,3.2,0,0,0-27.278,847.347Zm2.885-.525a.444.444,0,0,0-.146.2.444.444,0,0,1,.146-.2Zm-.2.543a2.253,2.253,0,0,1,.024-.236A2.253,2.253,0,0,0-24.594,847.365Zm-.852,3.677a1.027,1.027,0,0,1,.766.9,1.027,1.027,0,0,0-.766-.9Zm4.512,1.063c.022-.038.047-.076.073-.114C-20.888,852.028-20.913,852.066-20.935,852.1Zm-6.336-5.881c-.009.249-.029.5-.028.747,0-.249.02-.5.028-.747Zm-.153-.1h0l.145.118Zm-7.8,10.177h0c-.084-.912-.377-1.794-.383-2.721C-35.6,854.506-35.3,855.388-35.221,856.3Zm1.752-.175c-.033,0-.065-.006-.1-.007C-33.535,856.12-33.5,856.122-33.469,856.125Zm.644,0q.23,0,.46-.005Q-32.6,856.116-32.826,856.12Zm1.372-.009c-.248-.623-.539-1.237-.73-1.877.191.641.482,1.254.729,1.877Zm5.933-4.459.059.01.059-.006a1.721,1.721,0,0,1,.186.552,1.719,1.719,0,0,0-.186-.552q-.022-.308-.045-.616a.2.2,0,0,0-.092,0,2.607,2.607,0,0,0-1.575-2.573,6.877,6.877,0,0,0-2.382-.3,1.14,1.14,0,0,0-.057.143l-.3-.051-.323.181a1.1,1.1,0,0,0-.6.39,3.192,3.192,0,0,0-.923,2.729l.1.878.224.336a.534.534,0,0,0,.254.457c.152.73.8,1,1.305,1.4a6.388,6.388,0,0,0,.056,1.221,6.388,6.388,0,0,1-.056-1.221l.614.126,1-.113.151-.071.021-.017c.332.032.589-.2.895-.256h0l.642-.542A2.16,2.16,0,0,0-25.52,851.653Zm1.227,6.149a5.853,5.853,0,0,1-1.085-.3h0A5.853,5.853,0,0,0-24.294,857.8Zm4.9-6.952a.257.257,0,0,0-.143.09A.257.257,0,0,1-19.4,850.85Zm-7.663-21.138a8.422,8.422,0,0,0-1.038-.226,8.412,8.412,0,0,1,1.038.226,10.639,10.639,0,0,1,2.308.807c.665-.186,1.284.144,1.932.172.7.03,1.406.112,2.108.172l.742.009.283.01c.394-.018.8-.187,1.169.1l-.006.027-1.148.078h0c-.1.075-.266.05-.3.213l-.373.248c.017-.324-.147-.375-.353-.395.206.019.369.071.353.395h-.037a.213.213,0,0,0-.071-.009.213.213,0,0,1,.071.009l-.169.122h0l-.01,0-.162.144-.226.27-2.164,1.775c-.3.35-.749.347-1.141.472a1.235,1.235,0,0,0-.716.447l-.254.195c-.205.094-.388.285-.647.15l-.395-.4.046-.042-.046.042-.164-.125.094-.115-.094.115-.267-.224-.275-.042c-.144-.056-.151-.192-.181-.314-.838-.462-1.332-1.364-2.233-1.746a1.778,1.778,0,0,0-.936-.331l-2.389-1.408a.973.973,0,0,0-.047-.147l-.159-.127h0l-.146-.135-.19-.146h0l-.04-.023c-.284-.062-.322-.263-.285-.506a15.4,15.4,0,0,1,5.442-.209C-27.754,829.31-27.264,829.208-27.059,829.712Zm1.391,5.053a.6.6,0,0,1-.141.014A.6.6,0,0,0-25.667,834.766Zm-1.183-.683a.459.459,0,0,0-.088-.041A.459.459,0,0,1-26.85,834.083Zm8.492-.849a.522.522,0,0,0-.017.1l-1.423.516a5.4,5.4,0,0,1-2.72,1.52l-.763.392c.267.389.779.444,1.08.787l.822.424a3.047,3.047,0,0,1,1.269.763c.544.261.87.823,1.441,1.046a.475.475,0,0,0,.453.177,32.151,32.151,0,0,1,.672-5.584C-17.64,832.352-18.117,833.449-18.358,833.234ZM8.8,816.228a.686.686,0,0,0,.743-.739.671.671,0,0,0-.679-.729.677.677,0,0,0-.787.695A.689.689,0,0,0,8.8,816.228Zm34.259,25.564.334-.007c.237.01.475.007.71.033.351.039.457-.11.449-.449-.049-2.292.078-4.586-.071-6.878a1.635,1.635,0,0,0-1.3-1.6,3.126,3.126,0,0,0-3.131.6c-.3.254-.476.283-.772-.024a2.577,2.577,0,0,0-2.72-.612,5.781,5.781,0,0,0-1.191.606c-.285-.216-.163-.746-.542-.675a3.356,3.356,0,0,0-1.641.523c-.41.346-.057.782-.038,1.18.022.476.023.953.027,1.43q.022,2.54.04,5.081c0,.271-.174.739.124.758a3.3,3.3,0,0,0,2.085-.136q.021-2.81.041-5.619a1.35,1.35,0,0,1,1.473-1.354c.949-.021.846.7.856,1.284.029,1.794.03,3.589.041,5.383-.071.3-.035.521.359.508a8.731,8.731,0,0,1,1.187.006c.526.055.678-.144.669-.661-.029-1.713-.006-3.426-.014-5.14a.989.989,0,0,1,.313-.917c1.665-.844,1.938-.674,1.95,1.191.01,1.71.029,3.42.044,5.13C42.322,842.087,42.79,841.737,43.062,841.791Zm-60.484.153a.321.321,0,0,0,.07.127,4.448,4.448,0,0,1-1.345.357l-.956.018-.158-.01-1.044-.153-.553-.021a7.178,7.178,0,0,1-2.5-.456,30.346,30.346,0,0,0-4.663-1.29,2.265,2.265,0,0,1-.928,0l-3.665.177a9.53,9.53,0,0,1-1.892.451c-.045-.22.1-.284.27-.335l.486-.131,1.144-.139.158-.111.336-.134h0l.287-.23,1.423-.643a.49.49,0,0,0,.444.1.845.845,0,0,0,.561.313.845.845,0,0,1-.561-.313.072.072,0,0,1,.038-.1c.443-.432,1.178-.276,1.584-.783l.295-.1h0l.285-.256c.183-.586.814-.559,1.2-.871l.74-.26.017.02-.017-.02a.633.633,0,0,1,.664-.138l.012.019a.314.314,0,0,0,0,.147l.311.118.156.041c.724.529,1.458,1.045,2.167,1.594a1.927,1.927,0,0,0,.857.477l.009.005.151.153c.258.3.731.27.958.62l.424.057a1.315,1.315,0,0,0,.664.316l.325.141a1.262,1.262,0,0,0,.617.367l1.175.851-.194.166h0l-1.838.132,1.838-.132.194-.166Zm-8.918-4.763.015.018ZM-37.6,841.475c-.124-2.087.261-4.147.338-6.224.039-1.052.165-2.1.252-3.152l.237-.009h0l-.237.01a2.948,2.948,0,0,1,.165-1.27.187.187,0,0,0,.147-.015l.329.135a16.048,16.048,0,0,0,1.9.529.071.071,0,0,0,.094.039l1.655.763a13.718,13.718,0,0,0,2.073,1.255,2.887,2.887,0,0,0,.939.522c.352.225.719.429,1.052.679.75.562.733.7-.075,1.056l-.451.295-.347.156-.305.007a.327.327,0,0,0-.037.12c-.44.026-.786.384-1.242.355-.082.193-.285.148-.43.216h-.01l-.178.115h.005a.676.676,0,0,1-.045.126l-.624.334-.841.247h0l-.063-.009-.2.089a.606.606,0,0,1-.454.173.334.334,0,0,1-.047.12c-.34-.063-.449.382-.775.35-.3-.059-.382.313-.646.324a1.379,1.379,0,0,1,.037-.148,1.369,1.369,0,0,0-.037.148l-.048,0-.31.26c-.253.055-.468.271-.756.179-.173.332-.432.114-.658.1q.016-.4.032-.791l-.033.791c-.27.686,0,1.453-.322,2.131.306.274.579.021.861-.056.455-.125.865-.492,1.386-.256a13.516,13.516,0,0,1-2.231.792l-.065.014-.065-.012C-37.811,841.785-37.753,841.627-37.6,841.475Zm6.492-4.756h0a2.556,2.556,0,0,1,.575-.4A2.561,2.561,0,0,0-31.1,836.719Zm-2.257,1.012a.11.11,0,0,0-.1.049A.11.11,0,0,1-33.361,837.73Zm-.05-.73c.012.031-.031.085-.05.129h0C-33.442,837.085-33.4,837.031-33.411,837Zm-1.2,1.091a1.64,1.64,0,0,0-.248.054A1.611,1.611,0,0,1-34.616,838.091Zm-2.268-3.43c0,.1,0,.191,0,.287,0-.1,0-.191,0-.287-.092-.064-.09-.129,0-.2q.006-.146.012-.293a.491.491,0,0,1-.039-.044.528.528,0,0,0,.039.044l-.012.293C-36.973,834.532-36.976,834.6-36.884,834.661Zm-.229,2.524a1.763,1.763,0,0,0-.047.253A1.763,1.763,0,0,1-37.113,837.185Zm.185-3.074a.251.251,0,0,1-.053-.24A.251.251,0,0,0-36.928,834.111ZM8.358,823.2v.01c.849.337.953.276.955-.576q0-2.3,0-4.6c0-.9-.035-.921-.938-.558a3.493,3.493,0,0,0-.023,1.239A33.637,33.637,0,0,0,8.358,823.2Zm-25.975,18.105-.284-1.416A1.009,1.009,0,0,0-17.618,841.308Zm31.074.328h0q-.026-3.385-.052-6.769h0c.015-.6-.592-1.227.09-1.792a.149.149,0,0,0,.127-.035,2.3,2.3,0,0,0,1.109-.3l.011,0,.314-.045.232.206.084.153,0,0a1.05,1.05,0,0,0,.191.722,1.693,1.693,0,0,0,.6-.563h0l.171-.147,0,0,.282-.185.023-.011.318-.139h0l1.275,0,.006,0c.221.2.138.409.062.644-.136.42-.239.85-.355,1.277a.232.232,0,0,0-.037.139c-.469.1-.989-.235-1.422.168l-.012,0a.261.261,0,0,0-.289.168l-.185.149-.151.157-.007.009c-.267.2-.14.489-.143.735-.022,1.718-.027,3.436-.037,5.154h0l.01.452-2.223.016C13.456,841.747,13.456,841.692,13.456,841.636Zm1.5.022a1.369,1.369,0,0,0,.209-.036A1.369,1.369,0,0,1,14.953,841.659Zm-1.319-.029c.421-.067.871.065,1.3.031-.426.034-.875-.1-1.3-.032,0-1.559,0-3.119-.015-4.678C13.632,838.51,13.631,840.07,13.634,841.629Zm7.643-8.508c0-.142.046-.33-.19-.357-.543-.027-1.022.335-1.573.256l-.477.038-.012,8.742,0,0,2.232,0,.067-.167-.083-.156q0-.246,0-.492Q21.264,837.057,21.277,833.122ZM-17.6,831.392l-.058-.124c-.023.038-.063.075-.065.114s.033.082.051.123Zm.523-16.933s-.048.189-.121.523a.531.531,0,0,1,.088-.049q-.135,1.43-.27,2.86c.1.02.221.041.206.174s-.137.131-.239.144q-.032.191-.065.382c-.233.1-.272-.035-.254-.216.028-.284.068-.567.1-.851.012-.1.023-.2.035-.3-.1.636-.192,1.356-.264,2.128a.91.91,0,0,1,.281-.35l-.249,1.82a.2.2,0,0,1-.137.053c-.027.622-.034,1.261-.015,1.9a23.907,23.907,0,0,0,.76,3.364c.087.238.067.452-.228.459a10.32,10.32,0,0,1-3.519-.118.231.231,0,0,0,.027-.1,26.609,26.609,0,0,1-3.217-.525.357.357,0,0,1,.025.1,10.123,10.123,0,0,1-2.167-.624c-.1-.02-.22-.081-.141-.208a.183.183,0,0,1,.024-.028,3.236,3.236,0,0,1-1.375-1.112s-8.144.691-8.6,2.557l-.035-2.155-.139-.033q0-.194,0-.388a.127.127,0,0,1,.008-.208V817.7c-.264.08-.221.293-.236.454q-.753,7.974-1.495,15.948c-.51,5.446-1.167,10.876-1.827,16.305-.207,1.705-.37,3.416-.581,5.12-.031.25.131.62-.286.737V843.069c.315-.038.251-.3.27-.489q.747-7.222,1.483-14.444c.4-3.866.785-7.734,1.211-11.6a5.919,5.919,0,0,1,.383-2.531c-.645-.056-.96-.323-.843-.982.086-.483.284-.714.792-.638.366.055.741.055,1.1.127.3.06.768-.149.845.359.073.485.1,1-.47,1.262.1,0,.193-.007.289-.015,1.644-.588,6-1.877,9.234-.425.263.1.36.137.341.22.8.448,3.087,1.375,7.626.8a11.543,11.543,0,0,0,1.358-.447c.12-.052.251.032.284.19a.919.919,0,0,0-.315.055C-17.287,814.5-17.184,814.48-17.077,814.46Zm-4.584,3.064c-.581.02-1.161.073-1.742.1-.147.007-.329.03-.379-.185-.278-.062-.59-.018-.809-.262l-.315-.035a.146.146,0,0,1-.19-.1l.011.006-.015-.015s0,.005,0,.009l-.328-.179a.093.093,0,0,1-.114-.051.5.5,0,0,1-.138.021l-.508-.462-.173-.112-.862-.319-.24-.057a.683.683,0,0,1-.549-.109l-.047.018-.04-.03-.632-.026-.476,0-.96.161c.051.028.1.071.154.1-.051-.031-.1-.074-.154-.1l-.781.023a1.183,1.183,0,0,1-.645.138l-.323.166-.154-.04a.185.185,0,0,1-.128.054l-.075,2.208-.015.482.053,3.814.445-.148a.235.235,0,0,1,0-.093,8.548,8.548,0,0,1,3.737-.273l.273.029a4.148,4.148,0,0,1,1.825.6l.235.107,2.265.715a.122.122,0,0,1,.132.024c.5.047,1,.115,1.5.134.37.014.609-.01.49-.58a13.03,13.03,0,0,1-.223-3.546,8.128,8.128,0,0,1,.388-1.579C-20.976,817.446-21.269,817.51-21.661,817.524Zm1.251,8.813-.231-.022C-20.564,826.326-20.487,826.333-20.41,826.337Zm2.739-.782c.02.1.043.2.065.3A2.718,2.718,0,0,0-17.671,825.555Z" transform="translate(793.983 -458.924)" fill="#0a233e"></path></g></g></svg> 