<?xml version="1.0" encoding="UTF-8"?> <svg xmlns="http://www.w3.org/2000/svg" width="143.901" height="51.934" viewBox="0 0 143.901 51.934"><g transform="translate(0)"><path d="M53.719,25.715c0,.039,0,.077,0,.116s0,.092,0,.137c0,14.341-12.025,25.966-26.859,25.966S0,40.309,0,25.968,12.025,0,26.859,0a27.668,27.668,0,0,1,8.623,1.375l-.161-.04c.261.078.522.157.779.243A23.665,23.665,0,0,0,29.955.764,23.278,23.278,0,0,0,9.738,12.358a22.8,22.8,0,0,1,4.84,2.6A38.714,38.714,0,0,1,19,18.557c.623.581,1.226,1.178,1.815,1.785q1.071,1.1,2.081,2.243l-.152-.147c.015.02.1.1.158.154l.2.184.426.372c.291.248.591.491.9.727.61.473,1.24.919,1.883,1.332.166.109.337.208.506.312a22.8,22.8,0,0,0,3.48,1.767,17.059,17.059,0,0,0,3.215.939,13.183,13.183,0,0,0,4.949.021,12.19,12.19,0,0,0,2.649-.836,14.347,14.347,0,0,0,2.6-1.507,17.14,17.14,0,0,0,1.4-1.177,27.365,27.365,0,0,0,5.158-6.889c-.051.13-.1.258-.157.387.092-.163.185-.325.274-.49a28.966,28.966,0,0,1-4.177,7.653,17.211,17.211,0,0,1-2.61,2.671,15.562,15.562,0,0,1-2.154,1.548,13.879,13.879,0,0,1-2.61,1.216,14.6,14.6,0,0,1-4.887.754,18.783,18.783,0,0,1-4.76-.666,26.1,26.1,0,0,1-4.561-1.716c-.134-.066-.269-.124-.4-.191q-1.219-.61-2.409-1.342c-.4-.244-.791-.5-1.185-.769-.2-.136-.394-.274-.593-.42l-.3-.225c-.1-.076-.178-.135-.307-.24l-.19-.177c-.408-.38-.82-.75-1.235-1.116a37.6,37.6,0,0,0-6.639-4.822,15.521,15.521,0,0,0-3.9-1.559c-.037-.009-.072-.014-.109-.022a22.457,22.457,0,0,0-.627,5.256c0,.311.011.62.024.928l.056,0c.188-.041.375-.082.56-.112a12.434,12.434,0,0,1,2.94-.109,17.622,17.622,0,0,1,5.24,1.306A25.82,25.82,0,0,1,18.292,26.9q.918.507,1.792,1.062A41.75,41.75,0,0,1,24.1,30.909l-.158-.106c.016.016.1.072.163.111l.207.129.437.252,0,0c.3.166.6.325.911.478a19.616,19.616,0,0,0,1.922.815,18.349,18.349,0,0,0,4.041.986,15.287,15.287,0,0,0,3.863-.01,14.329,14.329,0,0,0,4.3-1.248,15.925,15.925,0,0,0,2.656-1.58,19.779,19.779,0,0,0,2.1-1.774,23.848,23.848,0,0,0,1.791-1.986,37.591,37.591,0,0,0,4.908-8.227c-.026.081-.054.161-.081.241.055-.12.111-.24.165-.36a38.428,38.428,0,0,1-3.907,8.743A24.392,24.392,0,0,1,44.864,30.8a21.825,21.825,0,0,1-2.073,2.073A18.688,18.688,0,0,1,40.3,34.714a17.446,17.446,0,0,1-4.43,1.944,18.691,18.691,0,0,1-5.181.72,22.551,22.551,0,0,1-5.012-.572,24.491,24.491,0,0,1-2.445-.691c-.325-.111-.649-.235-.972-.363-.079-.03-.156-.054-.234-.086-.2-.082-.4-.168-.6-.259l-.308-.144c-.1-.05-.183-.087-.316-.158l-.193-.123a34.845,34.845,0,0,0-5.471-2.91,21.983,21.983,0,0,0-2.576-.894,13.164,13.164,0,0,0-3.937-.51c-.165.006-.328.018-.488.033-.072.027-.136.057-.2.086A22.453,22.453,0,0,0,9.605,34.55c.27-.052.539-.1.806-.134a17.935,17.935,0,0,1,4.954.083c.244.036.485.075.726.117a28.884,28.884,0,0,1,5.147,1.471c.534.2,1.06.425,1.58.651q1.615.7,3.15,1.52l-.182-.075a2,2,0,0,0,.19.079l.239.086.5.169c.341.106.689.206,1.042.294a20.659,20.659,0,0,0,2.147.422,19.228,19.228,0,0,0,4.376.132,16.425,16.425,0,0,0,3.147-.582A15.722,15.722,0,0,0,42.5,36.269a16.711,16.711,0,0,0,1.628-1.387A20.942,20.942,0,0,0,47.012,31.4l.074-.114c.094-.142.185-.286.275-.431q.476-.772.9-1.58a40.691,40.691,0,0,0,3.465-9.581c-.013.1-.028.2-.041.3.036-.147.074-.293.109-.44a41.417,41.417,0,0,1-2.355,9.913c-.3.787-.647,1.562-1.024,2.324-.043.089-.09.178-.134.267-.078.154-.154.308-.236.46a23.119,23.119,0,0,1-3.389,4.914c-.364.4-.739.791-1.137,1.161a19.126,19.126,0,0,1-5.56,3.619,20.1,20.1,0,0,1-3.869,1.22,23.832,23.832,0,0,1-5.3.491,25.26,25.26,0,0,1-2.668-.186c-.444-.054-.89-.121-1.339-.2-.224-.041-.448-.086-.676-.137l-.346-.082c-.117-.029-.206-.05-.357-.095l-.226-.086c-1.059-.409-2.129-.776-3.2-1.091a28.023,28.023,0,0,0-4.972-1.029,23.371,23.371,0,0,0,14.945,5.358,23.068,23.068,0,0,0,23.089-20.4c.07-.72.11-1.449.11-2.187a22.55,22.55,0,0,0-.859-6.159q.164.468.309.944c-.08-.35-.165-.7-.261-1.042A25.053,25.053,0,0,1,53.719,25.715ZM76.13,13.992c-2.09,4.455-4.378,9.144-6.5,13.666l-5.406-11.69a3.429,3.429,0,0,0-3.184-1.976H58.187V36.1c0,2.177,4.444,2.177,4.444,2.177v-13.5a22.077,22.077,0,0,0-.3-3.249L67.01,31.611a5.051,5.051,0,0,0,4.013,2.143l6.036-12.426a24.206,24.206,0,0,0-.332,3.45V36.1c0,2.177,4.445,2.177,4.445,2.177V16.169C81.172,13.992,77.258,13.992,76.13,13.992Zm25.009,7.8v.6c0,6.23-4.676,7.872-9.983,7.872H88.934v8s-4.445,0-4.445-2.177V13.992h6.667C96.463,13.992,101.139,15.4,101.139,21.8Zm-4.444.3c0-3.952-2.289-4.79-5.54-4.79H88.934v9.647h2.222C94.407,26.955,96.7,26.352,96.7,22.1Zm16.55-5.024c3.217,0,7.3.9,8.126,3.986,3.35-5.593-2.62-7.469-8.126-7.469-5.306,0-10.149,2.143-10.149,8.239V30.1c0,6.1,4.843,8.24,10.149,8.24,5.506,0,11.178-2.076,8.126-7.469-1.028,3.349-4.909,4.019-8.126,4.019-3.284,0-5.7-1.272-5.7-5.291V22.3C107.541,18.313,109.962,17.074,113.246,17.074Zm21.559,21.269c5.506,0,11.177-2.076,8.126-7.469-1.028,3.349-4.909,4.019-8.126,4.019-3.283,0-5.7-1.272-5.7-5.291V22.3c0-3.986,2.421-5.225,5.7-5.225,3.217,0,7.3.9,8.126,3.986,3.35-5.593-2.62-7.469-8.126-7.469-5.307,0-10.149,2.143-10.149,8.239V30.1C124.656,36.2,129.5,38.343,134.805,38.343Zm-17.711,5.181a.7.7,0,0,0-.6-.317c-.764,0-1.484,1.665-1.484,3.639s.721,3.654,1.484,3.654a.7.7,0,0,0,.6-.317c-.764-.11-1.121-1.628-1.121-3.352C115.973,45.137,116.33,43.634,117.094,43.524Zm3.918-.074V47.1c0,.664-.5,1.01-1.215,1.01s-1.216-.346-1.216-1.01V43.929c0-.479-.976-.479-.976-.479v3.765c0,1.111,1.027,1.664,2.192,1.664s2.191-.552,2.191-1.664V43.929C121.988,43.45,121.012,43.45,121.012,43.45Zm3.958,2.534c.946-.37,1.4-1.577,1.972-2.483a2.268,2.268,0,0,0-.443-.067.913.913,0,0,0-.838.48c-.524.95-1,1.576-1.746,1.73V43.929c0-.479-.976-.479-.976-.479v4.936c0,.479.976.479.976.479V46.33c1.027.207,1.442,1.208,1.9,2.041a1.013,1.013,0,0,0,.9.48,2.535,2.535,0,0,0,.443-.073,6.129,6.129,0,0,1-.415-.745C126.368,47.252,125.779,46.213,124.97,45.985Zm2.822-2.778a.705.705,0,0,0-.6.317c.765.11,1.122,1.613,1.122,3.308,0,1.723-.357,3.241-1.122,3.352a.705.705,0,0,0,.6.317c.765,0,1.486-1.679,1.486-3.654S128.557,43.207,127.792,43.207Zm5.3,4.855V43.929c0-.479-.976-.479-.976-.479v4.862c0,.479.793.479.793.479h2.067c.445,0,.547-.465.547-.847a1.738,1.738,0,0,1-.808.118Zm2.427-4.538a2.11,2.11,0,0,1-.808-.118c0,.383.088.847.692.847h.9v4.133c0,.479.976.479.976.479V44.253h.918c.6,0,.691-.464.691-.847a2.111,2.111,0,0,1-.809.118Zm8.266,1.812v1.643c0,1.421-1.1,1.812-2.263,1.812h-1.332c-.074,0-.779-.023-.779-.479V43.524h2.111C142.69,43.524,143.789,43.915,143.789,45.336Zm-.974.066c0-.878-.568-1.15-1.289-1.15H140.39v3.809h1.136c.721,0,1.289-.281,1.289-1.157Z" fill="#fff"></path></g></svg> 