<?xml version="1.0" encoding="utf-8"?>
<!-- Generator: Adobe Illustrator 23.0.1, SVG Export Plug-In . SVG Version: 6.00 Build 0)  -->
<svg version="1.1" id="Слой_1" xmlns="http://www.w3.org/2000/svg" xmlns:xlink="http://www.w3.org/1999/xlink" x="0px" y="0px"
	 viewBox="0 0 512 512" style="enable-background:new 0 0 512 512;" xml:space="preserve">
<style type="text/css">
	.st0{fill:#2D8DF7;}
	.st1{fill:#FFFFFF;}
</style>
<g>
	<path class="st0" d="M256,0C114.6,0,0,114.6,0,256s114.6,256,256,256s256-114.6,256-256S397.4,0,256,0z M261.4,405.1L261.4,405.1
		L261.4,405.1c-25.7,0-50.9-6.4-73.3-18.6l-81.2,21.3l21.7-79.4c-13.4-23.2-20.5-49.6-20.5-76.6c0-84.5,68.8-153.2,153.2-153.2
		c41,0,79.5,16,108.4,44.9c28.9,29,44.9,67.4,44.8,108.4C414.6,336.3,345.9,405.1,261.4,405.1z"/>
	<ellipse class="st0" cx="256" cy="253.2" rx="250" ry="244.2"/>
</g>
<g>
	<path class="st1" d="M353.5,153.9h-195c-17.9,0-32.5,14.6-32.5,32.5v139.3c0,17.9,14.6,32.5,32.5,32.5h195
		c17.9,0,32.5-14.6,32.5-32.5V186.4C386,168.4,371.4,153.9,353.5,153.9z M345.3,207.6l-83.6,65c-3.4,2.6-8,2.6-11.4,0l-83.6-65
		c-4.1-3.1-4.9-8.9-1.8-13c3.1-4.1,8.9-4.9,13-1.8c0.1,0.1,0.1,0.1,0.2,0.2l77.9,60.6l77.9-60.6c4.1-3.1,9.9-2.3,13,1.8
		C349.9,198.8,349.2,204.5,345.3,207.6L345.3,207.6z"/>
</g>
</svg>
