<svg xmlns="http://www.w3.org/2000/svg" xmlns:xlink="http://www.w3.org/1999/xlink" width="168.75" height="50"><defs><path d="M162.5 50H6.25C2.81 50 0 47.19 0 43.75V6.25C0 2.81 2.81 0 6.25 0H162.5c3.44 0 6.25 2.81 6.25 6.25v37.5c0 3.44-2.81 6.25-6.25 6.25" id="a"/><path d="M162.5 0H6.25C2.81 0 0 2.81 0 6.25v37.5C0 47.19 2.81 50 6.25 50H162.5c3.44 0 6.25-2.81 6.25-6.25V6.25c0-3.44-2.81-6.25-6.25-6.25m0 1c2.9 0 5.25 2.36 5.25 5.25v37.5c0 2.89-2.35 5.25-5.25 5.25H6.25C3.36 49 1 46.64 1 43.75V6.25C1 3.36 3.36 1 6.25 1H162.5" id="b"/><path d="M133.67 37.5H136V21.87h-2.33V37.5zm21.01-10L152 34.28h-.08l-2.77-6.78h-2.51l4.16 9.47-2.37 5.27h2.43l6.41-14.74h-2.59zm-15.06 6.9c0-1.21 1.33-1.67 2.47-1.67 1.03 0 1.51.22 2.13.52-.18 1.45-1.42 2.48-2.77 2.48-.76 0-1.83-.39-1.83-1.33zm-2.05-4.85c.21.09 1.86.78 2.07.87.44-.87 1.27-1.15 2.13-1.15 1.21 0 2.43.73 2.45 2.01v.16c-.42-.24-1.32-.6-2.43-.6-2.23 0-4.5 1.23-4.5 3.52 0 2.09 1.83 3.44 3.88 3.44 1.57 0 2.43-.71 2.97-1.53h.08v1.2h2.26v-5.99c0-2.77-2.07-4.32-4.75-4.32-1.69 0-3.44.74-4.16 2.39zM124 29.4v-5.35h3.32c1.74 0 2.73 1.44 2.73 2.68 0 1.21-.99 2.67-2.73 2.67H124zm-2.33-7.53V37.5H124v-5.92h3.26c2.58 0 5.12-1.87 5.12-4.85 0-2.98-2.54-4.86-5.12-4.86h-5.59zM93.82 32.53c0-1.88 1.35-3.25 2.96-3.25 1.59 0 2.84 1.37 2.84 3.25 0 1.85-1.25 3.2-2.84 3.2-1.61 0-2.96-1.35-2.96-3.2zm5.64-4.15h-.08c-.52-.63-1.53-1.19-2.8-1.19-2.66 0-5.1 2.34-5.1 5.34 0 2.98 2.44 5.29 5.1 5.29 1.27 0 2.28-.56 2.8-1.21h.08v.77c0 2.03-1.09 3.12-2.84 3.12-1.43 0-2.32-1.03-2.68-1.89-.2.08-1.83.76-2.03.84.58 1.41 2.13 3.15 4.71 3.15 2.74 0 5.05-1.62 5.05-5.54v-9.55h-2.21v.87zm3.83 9.12h2.33V21.87h-2.33V37.5zm5.78-5.16c-.07-2.05 1.59-3.1 2.77-3.1.93 0 1.72.47 1.98 1.13-.95.4-3.8 1.58-4.75 1.97zm7.25-1.77c-.45-1.19-1.8-3.38-4.56-3.38-2.74 0-5.01 2.15-5.01 5.32 0 2.98 2.25 5.31 5.28 5.31 2.43 0 3.84-1.49 4.43-2.35l-1.82-1.21c-.6.88-1.43 1.47-2.61 1.47-1.19 0-2.04-.55-2.58-1.61.47-.2 2.84-1.18 7.11-2.94-.13-.33-.21-.53-.24-.61zm-56.64-1.75v2.26h5.4c-.16 1.26-.59 2.19-1.23 2.84-.79.78-2.02 1.65-4.17 1.65-3.32 0-5.92-2.68-5.92-6 0-3.33 2.6-6.01 5.92-6.01 1.79 0 3.1.71 4.07 1.62l1.59-1.6c-1.35-1.28-3.14-2.27-5.66-2.27-4.55 0-8.38 3.7-8.38 8.26 0 4.55 3.83 8.25 8.38 8.25 2.46 0 4.31-.8 5.76-2.31 1.49-1.49 1.95-3.59 1.95-5.28 0-.52-.04-1.01-.12-1.41h-7.59zm10.85 3.69c0-1.92 1.39-3.23 3-3.23s3 1.31 3 3.23c0 1.89-1.39 3.22-3 3.22s-3-1.33-3-3.22zm-2.34 0c0 3.06 2.4 5.31 5.34 5.31s5.33-2.25 5.33-5.31c0-3.09-2.39-5.32-5.33-5.32s-5.34 2.23-5.34 5.32zm13.98 0c0-1.92 1.39-3.23 3-3.23s3 1.31 3 3.23c0 1.89-1.39 3.22-3 3.22s-3-1.33-3-3.22zm3-5.32c-2.94 0-5.34 2.23-5.34 5.32 0 3.06 2.4 5.31 5.34 5.31s5.34-2.25 5.34-5.31c0-3.09-2.4-5.32-5.34-5.32" id="c"/><path d="M13.14 40.49c-.06-.06-.09-.09-.1-.09-.36-.39-.57-.98-.57-1.76V11.18v-.01.19c0-.84.25-1.47.67-1.85 1.03 1.04 6.19 6.2 15.48 15.49L13.14 40.49m-.67-29.32v-.2.2m0-.2v-.01.01m0-.01" id="d"/><path d="M33.78 30.35l.12-.07c3.67-2.08 5.71-3.24 6.12-3.47.58-.34.97-.74 1.16-1.16-.19.42-.58.83-1.16 1.16-.41.23-2.45 1.39-6.12 3.47l-.12.07m.01-.19L28.62 25l5.17-5.16c3.74 2.12 5.81 3.3 6.23 3.54.79.45 1.23 1.03 1.31 1.62-.08.59-.52 1.17-1.31 1.62-.42.24-2.49 1.42-6.23 3.54" id="f"/><path d="M14.24 41.08c-.43 0-.81-.14-1.1-.41.29.27.67.41 1.1.41.04 0 .08 0 .12-.01-.04.01-.08.01-.12.01m0-.19c-.43 0-.81-.14-1.1-.4L28.62 25l5.17 5.16c-10.89 6.19-16.94 9.63-18.15 10.31-.5.29-.98.42-1.4.42m-1.11-.22c-.02-.03-.05-.05-.08-.08.01 0 .03.03.08.08" id="h"/><path d="M28.62 25c-9.29-9.29-14.45-14.45-15.48-15.49.29-.26.67-.4 1.1-.4.42 0 .9.13 1.4.42 1.21.69 7.26 4.12 18.15 10.31L28.62 25m5.28-5.28C22.95 13.5 16.86 10.04 15.64 9.35c-.5-.29-.98-.42-1.4-.42h-.01.01c.42 0 .9.13 1.4.42 1.22.69 7.31 4.15 18.26 10.37M14.23 8.93" id="j"/><path d="M14.36 41.07c.39-.02.82-.15 1.28-.41a23319.733 23319.733 0 000 0c-.45.26-.89.39-1.28.41m-1.22-.4h-.01.01m-.09-.08l-.01-.01c.01 0 .01.01.01.01" id="l"/><path d="M33.78 30.35l.12-.07-.12.07" id="m"/><path d="M14.24 41.08c-.43 0-.81-.14-1.1-.41h-.01l-.08-.08s0-.01-.01-.01l.1-.09c.29.26.67.4 1.1.4.42 0 .9-.13 1.4-.42 1.21-.68 7.26-4.12 18.15-10.31l.11.12-.12.07c-10.88 6.18-16.93 9.62-18.14 10.31-.46.26-.89.39-1.28.41-.04.01-.08.01-.12.01" id="o"/><path d="M13.04 40.58c-.36-.38-.57-.98-.57-1.76 0 .78.21 1.38.57 1.76" id="q"/><path d="M13.04 40.58c-.36-.38-.57-.98-.57-1.76v-.18c0 .78.21 1.37.57 1.76.01 0 .04.03.1.09l-.1.09" id="r"/><path d="M13.04 40.58l.1-.09-.1.09" id="t"/><path d="M41.18 25.65a1.506 1.506 0 010 0" id="v"/><path d="M33.9 30.28l-.11-.12c3.74-2.12 5.81-3.3 6.23-3.54.79-.45 1.23-1.03 1.31-1.62 0 .22-.05.44-.15.65-.19.42-.58.82-1.16 1.16-.41.23-2.45 1.39-6.12 3.47" id="w"/><path d="M41.33 25c0-.65-.44-1.31-1.31-1.8-.41-.23-2.45-1.39-6.12-3.48 3.67 2.09 5.71 3.24 6.12 3.48.87.49 1.31 1.15 1.31 1.8" id="y"/><path d="M41.33 25c-.08-.59-.52-1.17-1.31-1.62-.42-.24-2.49-1.42-6.23-3.54l.11-.12c3.67 2.09 5.71 3.25 6.12 3.48.87.49 1.31 1.15 1.31 1.8" id="z"/><path d="M12.47 10.96c.07-1.29.77-2.03 1.76-2.03-.43 0-.8.14-1.09.4h-.01l-.09.09c-.32.35-.53.87-.57 1.54" id="B"/><path d="M12.47 11.36v-.18-.01-.2-.01c.04-.67.25-1.19.57-1.54.06.06.09.09.1.09-.42.38-.67 1.01-.67 1.85m.66-2.03h0" id="C"/><path d="M14.23 8.93" id="E"/><path d="M33.79 19.84C22.9 13.65 16.85 10.22 15.64 9.53c-.5-.29-.98-.42-1.4-.42-.43 0-.81.14-1.1.4-.01 0-.04-.03-.1-.09l.09-.09h.01c.29-.26.66-.4 1.09-.4h.01c.42 0 .9.13 1.4.42 1.22.69 7.31 4.15 18.26 10.37l-.11.12" id="F"/><path d="M52.72 12.29h1.61c.41 0 .73-.14.97-.41.25-.27.37-.57.37-.9 0-.33-.12-.63-.37-.9-.24-.27-.56-.41-.97-.41h-1.61v2.62zm0 3.96h-.97v-7.5h2.56c.63 0 1.19.21 1.65.63.46.43.7.96.7 1.6 0 .64-.24 1.18-.7 1.6-.46.42-1.02.63-1.65.63h-1.59v3.04" id="H"/><path d="M52.72 12.29v.12h1.61c.43.01.8-.14 1.07-.44.26-.29.4-.63.4-.99s-.14-.69-.4-.98c-.27-.3-.64-.46-1.07-.45H52.59v2.86h.13v-.12h.12V9.8h1.49c.38 0 .66.12.88.36v0c.23.26.33.52.34.82-.01.3-.11.56-.34.82-.22.24-.5.36-.88.36h-1.61v.13h.12-.12zm0 3.96v-.13h-.84V8.87h2.43c.61.01 1.12.2 1.56.61h.01c.44.4.65.89.65 1.5s-.21 1.1-.65 1.51h-.01c-.44.4-.95.6-1.56.6H52.59v3.16h.13v-.13.13h.12v-2.91h1.47c.66 0 1.25-.23 1.73-.67.49-.44.74-1.02.74-1.69 0-.67-.25-1.25-.74-1.69-.48-.44-1.07-.67-1.73-.67h-2.68v7.75h1.21v-.12h-.12" id="I"/><path d="M61.25 15.5c.81 0 1.49-.29 2.04-.85.56-.56.84-1.28.84-2.15 0-.87-.28-1.59-.84-2.15-.55-.56-1.23-.85-2.04-.85-.8 0-1.48.29-2.03.85-.56.56-.84 1.28-.84 2.15 0 .87.28 1.59.84 2.15.55.56 1.23.85 2.03.85zm2.75-.22c-.73.76-1.65 1.14-2.75 1.14-1.09 0-2.01-.38-2.74-1.14-.74-.76-1.11-1.68-1.11-2.78 0-1.1.37-2.02 1.11-2.78.73-.76 1.65-1.14 2.74-1.14 1.09 0 2.01.38 2.75 1.14.74.77 1.11 1.69 1.11 2.78 0 1.1-.37 2.02-1.11 2.78" id="J"/><path d="M59.22 14.65c-.06.06-.09.08-.09.09.57.59 1.29.88 2.12.88.84 0 1.56-.29 2.13-.88.58-.58.87-1.34.87-2.24 0-.9-.29-1.66-.87-2.24-.57-.59-1.29-.88-2.13-.88-.83 0-1.55.29-2.12.88-.58.58-.87 1.34-.87 2.24 0 .9.29 1.66.87 2.24 0-.01.03-.03.09-.09l.09-.09c-.53-.53-.8-1.21-.8-2.06 0-.85.27-1.53.8-2.06.53-.54 1.17-.81 1.94-.81.78 0 1.42.27 1.95.81.53.53.8 1.21.8 2.06 0 .85-.27 1.53-.8 2.06-.53.54-1.17.81-1.95.81-.77 0-1.41-.27-1.94-.81l-.09.09zm4.78.63c-.05-.05-.08-.08-.08-.09-.72.74-1.6 1.1-2.67 1.1-1.06 0-1.94-.36-2.66-1.1-.71-.73-1.06-1.62-1.06-2.69 0-1.07.35-1.96 1.06-2.69.72-.74 1.6-1.1 2.66-1.1 1.07 0 1.94.36 2.66 1.1.72.74 1.07 1.63 1.07 2.69 0 1.07-.35 1.96-1.06 2.69 0 .01.03.04.08.09.06.05.09.08.09.09.76-.78 1.15-1.75 1.14-2.87.01-1.12-.38-2.08-1.14-2.86-.76-.79-1.72-1.18-2.84-1.18-1.12 0-2.08.39-2.83 1.17-.76.78-1.15 1.75-1.14 2.87-.01 1.12.38 2.09 1.14 2.87.75.78 1.71 1.17 2.83 1.17 1.13 0 2.09-.39 2.84-1.17 0-.01-.03-.04-.09-.09" id="K"/><path d="M67.42 15.33h1.94c.37 0 .67-.13.9-.39.23-.26.35-.54.35-.85 0-.31-.12-.59-.36-.84-.23-.26-.55-.38-.93-.38h-1.9v2.46zm0-3.36h1.75c.37 0 .66-.12.88-.37.22-.24.33-.5.33-.79 0-.28-.11-.55-.32-.78-.21-.24-.5-.36-.84-.36h-1.8v2.3zm-.96 4.28v-7.5h2.71c.59 0 1.1.19 1.53.58.43.39.64.88.64 1.46 0 .36-.09.67-.28.95-.18.27-.43.47-.73.61v.05c.37.12.67.34.91.64.23.31.35.67.35 1.07 0 .62-.22 1.13-.67 1.53-.45.41-.99.61-1.6.61h-2.86" id="L"/><path d="M67.42 15.33v.12h1.94c.4.01.74-.14 1-.43.24-.27.37-.59.37-.93 0-.34-.13-.65-.39-.93s-.61-.42-1.02-.42H67.3v2.71h.12v-.12h.13v-2.34h1.77c.36 0 .63.12.84.34.22.24.32.49.32.76 0 .28-.1.53-.31.77-.21.23-.47.34-.81.34h-1.94v.13h.13-.13zm0-3.36v.12h1.75c.39 0 .73-.13.97-.4.24-.26.36-.56.36-.88 0-.31-.12-.61-.35-.87-.23-.26-.56-.4-.93-.39H67.3v2.54h.12v-.12h.13V9.8h1.67c.32 0 .55.1.74.31h.01c.19.22.28.45.28.7 0 .26-.09.49-.29.71-.2.21-.45.32-.79.32h-1.75v.13h.13-.13zm-.96 4.28h.13V8.87h2.58c.56.01 1.03.19 1.44.55.41.37.61.82.61 1.37 0 .34-.09.62-.26.88-.17.25-.4.44-.69.57 0 0-.03.01-.07.03V12.48c.05.02.08.03.09.03.34.12.62.32.85.61.22.29.33.61.33.99 0 .59-.21 1.05-.64 1.44-.43.38-.92.57-1.51.57h-2.86v.13h.13-.13v.12h2.86c.64.01 1.21-.21 1.68-.64.48-.42.72-.97.72-1.62 0-.43-.13-.81-.38-1.14-.26-.33-.58-.56-.97-.69-.01 0-.02.04-.04.11h.12v-.04h-.12c.03.07.04.11.05.12.32-.15.59-.37.79-.66.2-.3.3-.64.3-1.02 0-.61-.23-1.14-.69-1.55a2.32 2.32 0 00-1.61-.62h-2.83v7.75h.12v-.12" id="M"/><path d="M72.89 16.25v-7.5h.97v7.5h-.97" id="N"/><path d="M72.89 16.25h.13V8.87h.71v7.25h-.84v.13h.13-.13v.12H73.98V8.62h-1.21v7.75h.12v-.12" id="O"/><path d="M79.95 9.67h-3.41v2.38h3.08v.9h-3.08v2.38h3.41v.92h-4.38v-7.5h4.38v.92" id="P"/><path d="M79.95 9.67v-.12h-3.54v2.62h3.08v.66h-3.08v2.62h3.42v.67H75.7V8.87h4.13v.8h.12v-.12.12h.13V8.62h-4.63v7.75h4.63V15.2h-3.42v-2.12h3.08V11.92h-3.08V9.8h3.42v-.13h-.13" id="Q"/><path d="M82.42 12.31h1.55c.39 0 .72-.12.99-.38.28-.25.42-.56.42-.95 0-.33-.12-.63-.37-.9-.24-.27-.57-.41-.97-.41h-1.62v2.64zm-.96 3.94v-7.5h2.56c.63 0 1.18.21 1.65.63.46.43.69.96.69 1.6 0 .52-.17.99-.51 1.39-.34.4-.77.65-1.28.76 0 0-.01.01-.02.03l2.11 3.05v.04h-1.14l-2.03-3.04h-1.07v3.04h-.96" id="R"/><path d="M82.42 12.31v.13h1.55c.42 0 .78-.14 1.08-.41.3-.27.45-.63.45-1.05 0-.36-.13-.69-.39-.98-.27-.3-.64-.46-1.07-.45H82.3v2.89h.12v-.13h.13V9.8h1.49c.38 0 .66.12.88.36.23.26.33.52.33.82 0 .35-.12.63-.37.86-.26.23-.55.35-.91.35h-1.55v.12h.13-.13zm-.96 3.94h.13V8.87h2.43c.6.01 1.12.2 1.56.61.44.4.66.89.66 1.5 0 .5-.16.93-.49 1.31-.32.38-.72.62-1.2.72-.01 0-.02 0-.05.01l-.05.07-.05.07 2.13 3.09h.13v-.13h-1.08l-2.02-3.03H82.3v3.03h-.84v.13h.13-.13v.12H82.55v-3.03h.88l2.02 3.03h1.33v-.2l-2.13-3.08-.1.07.1.07.02-.03-.1-.07c.02.07.02.11.03.12.53-.11.99-.38 1.34-.8.36-.42.55-.92.55-1.47 0-.67-.25-1.25-.74-1.69-.48-.44-1.07-.67-1.73-.67h-2.68v7.75h.12v-.12" id="S"/><path d="M87.31 16.25v-1.01l3.99-5.57h-3.83v-.92h4.95v1.01l-3.99 5.57h4.03v.92h-5.15" id="T"/><path d="M87.31 16.25h.12v-.97l4.11-5.73H87.6v-.68h4.69v.85l-4.11 5.73h4.16v.67h-5.03v.13h.12-.12v.12h5.28V15.2h-3.92l3.87-5.4V8.62h-5.19V9.8h3.7l-3.87 5.4v1.17h.13v-.12" id="U"/><path d="M95.94 16.25v-1.01l3.99-5.57h-3.82v-.92h4.94v1.01l-3.99 5.57h4.03v.92h-5.15" id="V"/><path d="M95.94 16.25h.12v-.97l4.11-5.73h-3.94v-.68h4.69v.85l-4.1 5.73h4.15v.67h-5.03v.13h.12-.12v.12h5.28V15.2H97.3l3.87-5.4V8.62h-5.19V9.8h3.71l-3.88 5.4v1.17h.13v-.12" id="W"/><linearGradient id="e" gradientUnits="userSpaceOnUse" x1="27.25" y1="10.89" x2="6.27" y2="31.87"><stop offset="0%" stop-color="#00a0ff"/><stop offset=".657%" stop-color="#00a1ff"/><stop offset="26.01%" stop-color="#00beff"/><stop offset="51.22%" stop-color="#00d2ff"/><stop offset="76.04%" stop-color="#00dfff"/><stop offset="100%" stop-color="#00e3ff"/></linearGradient><linearGradient id="g" gradientUnits="userSpaceOnUse" x1="42.29" y1="25" x2="12.05" y2="25"><stop offset="0%" stop-color="#ffe000"/><stop offset="40.87%" stop-color="#ffbd00"/><stop offset="77.54%" stop-color="orange"/><stop offset="100%" stop-color="#ff9c00"/></linearGradient><linearGradient id="i" gradientUnits="userSpaceOnUse" x1="31.03" y1="27.87" x2="2.59" y2="56.32"><stop offset="0%" stop-color="#ff3a44"/><stop offset="100%" stop-color="#c31162"/></linearGradient><linearGradient id="k" gradientUnits="userSpaceOnUse" x1="9.12" y1=".22" x2="21.82" y2="12.92"><stop offset="0%" stop-color="#32a071"/><stop offset="6.85%" stop-color="#2da771"/><stop offset="47.62%" stop-color="#15cf74"/><stop offset="80.09%" stop-color="#06e775"/><stop offset="100%" stop-color="#00f076"/></linearGradient><linearGradient id="n" gradientUnits="userSpaceOnUse" x1="42.29" y1="25" x2="12.05" y2="25"><stop offset="0%" stop-color="#ccb300"/><stop offset="40.87%" stop-color="#cc9700"/><stop offset="77.54%" stop-color="#cc8400"/><stop offset="100%" stop-color="#cc7d00"/></linearGradient><linearGradient id="p" gradientUnits="userSpaceOnUse" x1="31.03" y1="27.87" x2="2.59" y2="56.32"><stop offset="0%" stop-color="#cc2e36"/><stop offset="100%" stop-color="#9c0e4e"/></linearGradient><linearGradient id="s" gradientUnits="userSpaceOnUse" x1="27.25" y1="10.89" x2="6.27" y2="31.87"><stop offset="0%" stop-color="#008de0"/><stop offset=".657%" stop-color="#008de0"/><stop offset="26.01%" stop-color="#00a7e0"/><stop offset="51.22%" stop-color="#00b8e0"/><stop offset="76.04%" stop-color="#00c4e0"/><stop offset="100%" stop-color="#00c7e0"/></linearGradient><linearGradient id="u" gradientUnits="userSpaceOnUse" x1="31.03" y1="27.87" x2="2.59" y2="56.32"><stop offset="0%" stop-color="#e0333c"/><stop offset="100%" stop-color="#ab0f56"/></linearGradient><linearGradient id="x" gradientUnits="userSpaceOnUse" x1="42.29" y1="25" x2="12.05" y2="25"><stop offset="0%" stop-color="#e0c500"/><stop offset="40.87%" stop-color="#e0a600"/><stop offset="77.54%" stop-color="#e09100"/><stop offset="100%" stop-color="#e08900"/></linearGradient><linearGradient id="A" gradientUnits="userSpaceOnUse" x1="42.29" y1="25" x2="12.05" y2="25"><stop offset="0%" stop-color="#ffe840"/><stop offset="40.87%" stop-color="#ffce40"/><stop offset="77.54%" stop-color="#ffbc40"/><stop offset="100%" stop-color="#ffb540"/></linearGradient><linearGradient id="D" gradientUnits="userSpaceOnUse" x1="27.25" y1="10.89" x2="6.27" y2="31.87"><stop offset="0%" stop-color="#40b8ff"/><stop offset=".657%" stop-color="#40b9ff"/><stop offset="26.01%" stop-color="#40ceff"/><stop offset="51.22%" stop-color="#40ddff"/><stop offset="76.04%" stop-color="#40e7ff"/><stop offset="100%" stop-color="#40eaff"/></linearGradient><linearGradient id="G" gradientUnits="userSpaceOnUse" x1="9.12" y1=".22" x2="21.82" y2="12.92"><stop offset="0%" stop-color="#65b895"/><stop offset="6.85%" stop-color="#62bd95"/><stop offset="47.62%" stop-color="#50db97"/><stop offset="80.09%" stop-color="#44ed98"/><stop offset="100%" stop-color="#40f498"/></linearGradient></defs><use xlink:href="#a"/><use xlink:href="#a" fill-opacity="0" stroke="#000" stroke-opacity="0"/><use xlink:href="#b" fill="#a6a6a6"/><use xlink:href="#b" fill-opacity="0" stroke="#000" stroke-opacity="0"/><use xlink:href="#c" fill="#fff"/><use xlink:href="#c" fill-opacity="0" stroke="#000" stroke-opacity="0"/><use xlink:href="#d" fill="url(#e)"/><use xlink:href="#d" fill-opacity="0" stroke="#000" stroke-opacity="0"/><use xlink:href="#f" fill="url(#g)"/><use xlink:href="#f" fill-opacity="0" stroke="#000" stroke-opacity="0"/><use xlink:href="#h" fill="url(#i)"/><use xlink:href="#h" fill-opacity="0" stroke="#000" stroke-opacity="0"/><use xlink:href="#j" fill="url(#k)"/><use xlink:href="#j" fill-opacity="0" stroke="#000" stroke-opacity="0"/><use xlink:href="#l"/><use xlink:href="#l" fill-opacity="0" stroke="#000" stroke-opacity="0"/><use xlink:href="#m" fill="url(#n)"/><use xlink:href="#m" fill-opacity="0" stroke="#000" stroke-opacity="0"/><use xlink:href="#o" fill="url(#p)"/><use xlink:href="#o" fill-opacity="0" stroke="#000" stroke-opacity="0"/><use xlink:href="#q"/><use xlink:href="#q" fill-opacity="0" stroke="#000" stroke-opacity="0"/><use xlink:href="#r" fill="url(#s)"/><use xlink:href="#r" fill-opacity="0" stroke="#000" stroke-opacity="0"/><use xlink:href="#t" fill="url(#u)"/><use xlink:href="#t" fill-opacity="0" stroke="#000" stroke-opacity="0"/><use xlink:href="#v"/><use xlink:href="#v" fill-opacity="0" stroke="#000" stroke-opacity="0"/><use xlink:href="#w" fill="url(#x)"/><use xlink:href="#w" fill-opacity="0" stroke="#000" stroke-opacity="0"/><use xlink:href="#y" fill="#404040"/><use xlink:href="#y" fill-opacity="0" stroke="#000" stroke-opacity="0"/><use xlink:href="#z" fill="url(#A)"/><use xlink:href="#z" fill-opacity="0" stroke="#000" stroke-opacity="0"/><use xlink:href="#B" fill="#404040"/><use xlink:href="#B" fill-opacity="0" stroke="#000" stroke-opacity="0"/><use xlink:href="#C" fill="url(#D)"/><use xlink:href="#C" fill-opacity="0" stroke="#000" stroke-opacity="0"/><g><use xlink:href="#E" fill="#404040"/><use xlink:href="#E" fill-opacity="0" stroke="#000" stroke-opacity="0"/></g><g><use xlink:href="#F" fill="url(#G)"/><use xlink:href="#F" fill-opacity="0" stroke="#000" stroke-opacity="0"/></g><g><use xlink:href="#H" fill="#fff"/><use xlink:href="#H" fill-opacity="0" stroke="#000" stroke-opacity="0"/></g><g><use xlink:href="#I" fill="#fff"/><use xlink:href="#I" fill-opacity="0" stroke="#000" stroke-opacity="0"/></g><g><use xlink:href="#J" fill="#fff"/><use xlink:href="#J" fill-opacity="0" stroke="#000" stroke-opacity="0"/></g><g><use xlink:href="#K" fill="#fff"/><use xlink:href="#K" fill-opacity="0" stroke="#000" stroke-opacity="0"/></g><g><use xlink:href="#L" fill="#fff"/><use xlink:href="#L" fill-opacity="0" stroke="#000" stroke-opacity="0"/></g><g><use xlink:href="#M" fill="#fff"/><use xlink:href="#M" fill-opacity="0" stroke="#000" stroke-opacity="0"/></g><g><use xlink:href="#N" fill="#fff"/><use xlink:href="#N" fill-opacity="0" stroke="#000" stroke-opacity="0"/></g><g><use xlink:href="#O" fill="#fff"/><use xlink:href="#O" fill-opacity="0" stroke="#000" stroke-opacity="0"/></g><g><use xlink:href="#P" fill="#fff"/><use xlink:href="#P" fill-opacity="0" stroke="#000" stroke-opacity="0"/></g><g><use xlink:href="#Q" fill="#fff"/><use xlink:href="#Q" fill-opacity="0" stroke="#000" stroke-opacity="0"/></g><g><use xlink:href="#R" fill="#fff"/><use xlink:href="#R" fill-opacity="0" stroke="#000" stroke-opacity="0"/></g><g><use xlink:href="#S" fill="#fff"/><use xlink:href="#S" fill-opacity="0" stroke="#000" stroke-opacity="0"/></g><g><use xlink:href="#T" fill="#fff"/><use xlink:href="#T" fill-opacity="0" stroke="#000" stroke-opacity="0"/></g><g><use xlink:href="#U" fill="#fff"/><use xlink:href="#U" fill-opacity="0" stroke="#000" stroke-opacity="0"/></g><g><use xlink:href="#V" fill="#fff"/><use xlink:href="#V" fill-opacity="0" stroke="#000" stroke-opacity="0"/></g><g><use xlink:href="#W" fill="#fff"/><use xlink:href="#W" fill-opacity="0" stroke="#000" stroke-opacity="0"/></g></svg>