<?xml version="1.0" encoding="UTF-8"?>
<svg width="59px" height="28px" viewBox="0 0 59 28" version="1.1" xmlns="http://www.w3.org/2000/svg" xmlns:xlink="http://www.w3.org/1999/xlink">
    <title>KLIK-logo</title>
    <g id="Page-1" stroke="none" stroke-width="1" fill="none" fill-rule="evenodd">
        <g id="KLIK-logo" transform="translate(0.000000, 0.153846)" fill-rule="nonzero">
            <path d="M56.8028219,27.6923077 L2.19638017,27.6923077 C1.61365244,27.6923077 1.05487574,27.4605401 0.642974574,27.0485786 C0.231073409,26.6366172 0,26.0779963 0,25.4956062 L0,2.19510737 C0,0.982783046 0.983352979,1.77635684e-15 2.19638017,1.77635684e-15 L56.8028219,1.77635684e-15 C58.015796,0.000439547073 58.9991193,0.982836383 59,2.19510737 L59,25.4940121 C59,26.0767516 58.7691472,26.63578 58.3570735,27.0480634 C57.9449999,27.4603467 57.3858994,27.6923077 56.8028219,27.6923077 Z" id="Path_3659" fill="#0072D5"></path>
            <g id="Group-2" transform="translate(7.846700, 8.205128)" fill="#FFFFFF">
                <polygon id="Path_3660" points="3.7898726 4.56754528 4.65176298 4.56754528 9.15507474 0 12.1240994 0 6.3170365 5.6474588 10.2213039 11.2803358 7.5387028 11.2803358 4.37232537 6.63816581 3.33927945 6.63816581 2.33854351 11.2803358 0 11.2803358 2.4450791 0 4.78274936 0"></polygon>
                <polygon id="Path_3661" points="15.8135491 9.17712056 21.6939643 9.17712056 21.235512 11.2803358 13.0270321 11.2803358 15.4721112 0 17.8097815 0"></polygon>
                <polygon id="Path_3662" points="26.7124891 11.2820513 24.3739456 11.2820513 26.8190247 0.00171550996 29.156695 0.00171550996"></polygon>
                <polygon id="Path_3663" points="34.6354187 4.56754528 35.4964358 4.56754528 39.9997476 0 42.9687722 0 37.1617093 5.6474588 41.0659767 11.2803358 38.3842489 11.2803358 35.2169982 6.63816581 34.1848255 6.63816581 33.1840896 11.2803358 30.8455461 11.2803358 33.2906252 0 35.6282954 0"></polygon>
            </g>
        </g>
    </g>
</svg>