<?xml version="1.0" encoding="UTF-8"?>
<svg width="319px" height="50px" viewBox="0 0 319 50" version="1.1" xmlns="http://www.w3.org/2000/svg" xmlns:xlink="http://www.w3.org/1999/xlink">
    <title>Artboard</title>
    <g id="Artboard" stroke="none" stroke-width="1" fill="none" fill-rule="evenodd">
        <g id="motopedia_logo_horizontal_navy" transform="translate(0.000000, -0.000000)" fill="#22296D" fill-rule="nonzero">
            <polygon id="Path" points="127.786311 14.9626475 122.256142 42.2329218 114.924064 42.2329218 117.808968 27.8567772 108.4734 39.5448948 104.986832 39.5448948 99.8999395 27.8577772 96.9337856 42.2329218 89.6407907 42.2329218 95.2501538 14.9616474 101.701847 14.9616474 108.272845 30.7398062 121.014759 14.9626475"></polygon>
            <path d="M133.556118,41.3969134 C131.845403,40.6049055 130.523113,39.4815608 129.589247,38.0268795 C128.655382,36.5721982 128.186735,34.8838479 128.183307,32.9618286 C128.183307,30.6511386 128.757545,28.5734511 129.906021,26.7287658 C131.054497,24.8840806 132.643851,23.4293993 134.674083,22.3647219 C136.704314,21.2980445 138.988239,20.7647058 141.525857,20.7647058 C143.823495,20.7647058 145.826986,21.1607098 147.53633,21.9527178 C149.245674,22.7447258 150.567964,23.861737 151.503201,25.3037515 C152.437752,26.7450993 152.90537,28.4267829 152.906056,30.3488023 C152.906056,32.6608255 152.331475,34.7451798 151.182313,36.6018652 C150.038511,38.4549347 148.397295,39.9701604 146.434821,40.9849093 C144.416931,42.0515867 142.12615,42.5849254 139.562477,42.5849254 C137.267582,42.5849254 135.265462,42.1889214 133.556118,41.3969134 Z M143.738131,34.9878489 C144.698051,33.8965046 145.178011,32.4808237 145.178011,30.7408062 C145.178011,29.4947937 144.817698,28.5081171 144.097072,27.7807764 C143.376446,27.0534358 142.374701,26.6897655 141.091836,26.6897655 C139.568991,26.6897655 138.326922,27.2351043 137.365631,28.3257819 C136.404339,29.4164596 135.924379,30.8448073 135.925747,32.610825 C135.925747,33.8581709 136.286406,34.8388474 137.007718,35.5528546 C137.729029,36.2668618 138.730089,36.6238654 140.010897,36.6238654 C141.530314,36.6238654 142.771011,36.0785266 143.732988,34.9878489 L143.738131,34.9878489 Z" id="Shape"></path>
            <path d="M164.2482,34.3648427 C164.208244,34.5965669 164.181463,34.8302575 164.167978,35.0648497 C164.167978,36.2595284 164.835809,36.8568678 166.171469,36.8568678 C166.892781,36.8568678 167.654203,36.6488657 168.455737,36.2328615 L169.416343,41.3329128 C167.920238,42.1649212 166.03708,42.580592 163.766869,42.5799261 C161.524083,42.5799261 159.741374,42.0345865 158.418741,40.9439089 C157.096108,39.8532312 156.435134,38.3335493 156.43582,36.384863 C156.426606,35.717389 156.493524,35.0509789 156.635346,34.397843 L158.075227,27.4247728 L154.872521,27.4247728 L156.033682,21.8927172 L159.199362,21.8927172 L160.32144,16.3996619 L167.932237,16.3996619 L166.810159,21.8927172 L171.738664,21.8927172 L170.618643,27.4327729 L165.690138,27.4327729 L164.2482,34.3648427 Z" id="Path"></path>
            <path d="M177.470417,41.3969134 C175.760388,40.6049055 174.438098,39.4815608 173.503547,38.0268795 C172.568996,36.5721982 172.101034,34.8838479 172.099663,32.9618286 C172.099663,30.6511386 172.673901,28.5734511 173.822377,26.7287658 C174.970853,24.8840806 176.560207,23.4293993 178.590439,22.3647219 C180.619985,21.2980445 182.903909,20.7647058 185.442213,20.7647058 C187.73848,20.7647058 189.741971,21.1607098 191.452686,21.9527178 C193.163401,22.7447258 194.485691,23.861737 195.419557,25.3037515 C196.353422,26.7450993 196.820698,28.4267829 196.821383,30.3488023 C196.821383,32.6608255 196.247145,34.7451798 195.098669,36.6018652 C193.9543,38.4548459 192.312787,39.9700183 190.350149,40.9849093 C188.33363,42.0515867 186.043192,42.5849254 183.478833,42.5849254 C181.182567,42.5849254 179.179761,42.1889214 177.470417,41.3969134 Z M187.65243,34.9878489 C188.61235,33.8965046 189.09231,32.4808237 189.09231,30.7408062 C189.09231,29.4947937 188.731654,28.5081171 188.010343,27.7807764 C187.289031,27.0534358 186.287286,26.6897655 185.005106,26.6897655 C183.482947,26.6897655 182.240879,27.2351043 181.278901,28.3257819 C180.316924,29.4164596 179.836964,30.8448073 179.839014,32.610825 C179.839014,33.8581709 180.199677,34.8388474 180.920988,35.5528546 C181.6423,36.2668618 182.644045,36.6238654 183.926225,36.6238654 C185.445641,36.6238654 186.685996,36.0785266 187.647287,34.9878489 L187.65243,34.9878489 Z" id="Shape"></path>
            <path d="M219.96232,21.9167174 C221.365175,22.6833918 222.493767,23.7937363 223.348096,25.2477509 C224.202426,26.7017656 224.629933,28.4017827 224.630619,30.3478023 C224.630619,32.6598255 224.103005,34.7441798 223.047779,36.6008652 C222.043487,38.4056786 220.563674,39.9183771 218.76002,40.9839093 C216.982342,42.0431348 214.935216,42.5973838 212.850339,42.5839254 C209.696315,42.5839254 207.479242,41.6229157 206.199119,39.7008964 L204.115407,49.7909979 L196.504609,49.7909979 L202.394749,21.1177094 L209.606494,21.1177094 L209.166302,23.1047294 C210.902386,21.546047 212.999469,20.766653 215.457551,20.766653 C217.036608,20.7613876 218.589619,21.157852 219.96232,21.9167174 Z M215.494577,34.9878489 C216.454497,33.8965046 216.934457,32.4808237 216.934457,30.7408062 C216.934457,29.4947937 216.566945,28.5081171 215.83192,27.7807764 C215.096895,27.0534358 214.088636,26.6897655 212.807143,26.6897655 C211.284983,26.6897655 210.042915,27.2351043 209.080937,28.3257819 C208.11896,29.4164596 207.639,30.8448073 207.64105,32.610825 C207.64105,33.8581709 208.008226,34.8388474 208.742565,35.5528546 C209.476905,36.2668618 210.485164,36.6238654 211.767343,36.6238654 C213.291559,36.6238654 214.533971,36.0785266 215.494577,34.9878489 L215.494577,34.9878489 Z" id="Shape"></path>
            <path d="M250.033197,33.506834 L234.08652,33.506834 C234.35324,35.792857 235.996076,36.9358685 239.015025,36.9358685 C239.967309,36.9372224 240.913847,36.79244 241.819707,36.5068642 C242.70981,36.2310241 243.538732,35.7951347 244.26339,35.2218513 L247.42907,39.857898 C244.892137,41.6759162 241.806679,42.5849254 238.172695,42.5849254 C235.875057,42.5849254 233.852368,42.1889214 232.104627,41.3969134 C230.356886,40.6049055 229.007513,39.4878942 228.056506,38.0458797 C227.108242,36.6051986 226.634452,34.9105148 226.635137,32.9618286 C226.635137,30.6511386 227.189149,28.5667843 228.297172,26.7087656 C229.396869,24.8605168 231.007376,23.348991 232.945929,22.3457217 C234.934335,21.2937112 237.211403,20.7677059 239.777133,20.7677059 C241.941068,20.7677059 243.831083,21.1507097 245.447177,21.9167174 C247.063272,22.6827251 248.30534,23.7670694 249.173382,25.1697502 C250.040053,26.5697642 250.474074,28.1931139 250.475446,30.0397992 C250.472017,31.0531427 250.324601,32.208821 250.033197,33.506834 Z M236.330676,26.9817684 C235.501717,27.6191081 234.900395,28.4957836 234.526712,29.6117949 L243.462199,29.6117949 C243.48894,28.495117 243.128284,27.6184415 242.380232,26.9817684 C241.632179,26.3450953 240.643804,26.0267588 239.415106,26.0267588 C238.187094,26.0267588 237.158951,26.3450953 236.330676,26.9817684 Z" id="Shape"></path>
            <path d="M280.484613,13.326631 L274.55539,42.2329218 L267.342617,42.2329218 L267.783838,40.1689011 C266.046382,41.7789173 263.949299,42.5839743 261.492589,42.5839743 C259.912449,42.5890444 258.358409,42.1922441 256.984734,41.4329138 C255.582565,40.6669061 254.453973,39.5565616 253.598958,38.1018803 C252.743943,36.647199 252.31815,34.9338484 252.321558,32.9618286 C252.321558,30.6771389 252.848849,28.6057847 253.90339,26.747766 C254.911322,24.9393128 256.398503,23.4259798 258.210689,22.3647219 C259.996772,21.3074004 262.049898,20.7534551 264.14094,20.7647058 C267.240112,20.7647058 269.443815,21.6980486 270.752049,23.564734 L272.875873,13.3186309 L280.484613,13.326631 Z M267.863031,34.9878489 C268.822952,33.8965046 269.302912,32.4808237 269.302912,30.7408062 C269.302912,29.4947937 268.942256,28.5081171 268.220945,27.7807764 C267.499633,27.0534358 266.497888,26.6897655 265.215708,26.6897655 C263.693549,26.6897655 262.45148,27.2351043 261.489503,28.3257819 C260.527526,29.4164596 260.047566,30.8448073 260.049616,32.610825 C260.049616,33.8581709 260.409936,34.8388474 261.130561,35.5528546 C261.851187,36.2668618 262.852933,36.6238654 264.135798,36.6238654 C265.660014,36.6238654 266.902425,36.0785266 267.863031,34.9878489 Z" id="Shape"></path>
            <path d="M283.770626,21.1187094 L291.343369,21.1187094 L287.015499,42.2329218 L279.442756,42.2329218 L283.770626,21.1187094 Z M285.453229,17.7286753 C284.673845,17.075343 284.233336,16.1190583 284.250929,15.118649 C284.250929,13.8973034 284.69832,12.8909599 285.593103,12.0996186 C286.487886,11.3082774 287.670645,10.91194 289.14138,10.9106067 C290.477041,10.9106067 291.545638,11.2419433 292.347171,11.9046167 C293.130754,12.5298725 293.574291,13.4713326 293.549472,14.4566424 C293.549472,15.7299885 293.095224,16.768999 292.186727,17.5736737 C291.278231,18.3783485 290.089644,18.7806859 288.620966,18.7806859 C287.310675,18.7806859 286.254763,18.431349 285.453229,17.7326753 L285.453229,17.7286753 Z" id="Shape"></path>
            <path d="M319.230769,21.1187094 L314.9029,42.2329218 L307.691155,42.2329218 L308.131347,40.2459019 C306.395263,41.8052509 304.298523,42.5845921 301.841126,42.5839743 C300.260987,42.5890444 298.706947,42.1922441 297.333272,41.4329138 C295.931103,40.6669061 294.80251,39.5565616 293.947496,38.1018803 C293.092481,36.647199 292.664974,34.9328484 292.664974,32.9588285 C292.664974,30.6741389 293.192587,28.6027847 294.247814,26.744766 C295.252387,24.9401517 296.732137,23.427518 298.535572,22.3617219 C300.313449,21.3029402 302.360442,20.7487273 304.445253,20.7617058 C307.599277,20.7617058 309.816693,21.7227155 311.097501,23.6447348 L311.617915,21.1127093 L319.230769,21.1187094 Z M308.212598,34.9878489 C309.172518,33.8965046 309.652478,32.4808237 309.652478,30.7408062 C309.652478,29.4947937 309.285309,28.5081171 308.55097,27.7807764 C307.816631,27.0534358 306.808029,26.6897655 305.525164,26.6897655 C304.003004,26.6897655 302.760936,27.2351043 301.798958,28.3257819 C300.836981,29.4164596 300.357021,30.8448073 300.359071,32.610825 C300.359071,33.8581709 300.726247,34.8388474 301.460587,35.5528546 C302.194926,36.2668618 303.203185,36.6238654 304.485364,36.6238654 C306.008895,36.6238654 307.251306,36.0785266 308.212598,34.9878489 Z" id="Shape"></path>
            <path d="M77.4573445,50 L73.8257601,42.4169237 C74.1075653,37.9168784 74.6701472,33.407833 74.7380272,28.9067878 C74.2676663,29.4801269 73.781878,30.059466 73.2806625,30.6448052 C72.9588064,31.0189186 72.4881935,31.2418902 71.986827,31.2578114 C67.1419718,31.4124796 62.2971167,31.5281475 57.4522615,31.6048149 C56.8865942,32.3874894 56.2413906,33.202831 55.5166507,34.0508395 C55.3848129,34.2037699 55.1921151,34.2947226 54.9869804,34.300842 C47.1883132,34.5508446 39.3893031,34.5508446 31.5899503,34.300842 C31.3931171,34.2951439 31.2072754,34.2113008 31.0757072,34.0688397 C30.303657,33.2288312 29.615257,32.4054896 29.0105072,31.5988148 C24.2794711,31.5228141 19.5456925,31.4088129 14.8091712,31.2568114 C14.328826,31.2414876 13.8756825,31.0363571 13.5544182,30.6888057 C12.904415,29.9827986 12.2801239,29.2827915 11.681545,28.5887846 C11.7267984,33.1978309 12.3109785,37.8128774 12.5989546,42.4209237 L12.5989546,42.4209237 L0,50 L36.5729654,50 L38.7934669,47.1919717 L44.8615348,47.1919717 L44.0233186,49.998 L77.4573445,50 Z M40.8298693,44.6189459 L42.5721248,42.4189237 L20.6520007,42.4189237 C20.6705135,41.5189147 20.7764475,40.6109055 20.8350712,39.7068964 L65.590672,39.7068964 C65.6492957,40.6069055 65.7562582,41.5149146 65.7737425,42.4189237 L46.2829026,42.4189237 L45.6246715,44.6249459 L40.8298693,44.6189459 Z M63.0996786,19.785696 C62.5986817,19.8392314 62.1472903,20.1043962 61.8654953,20.5107033 C61.0725326,21.6687149 60.6117708,22.773726 60.1921485,23.8277367 C60.1113122,24.0307757 60.1425434,24.2598781 60.2749892,24.4354303 C60.407435,24.6109824 60.6228081,24.708745 60.8462656,24.6947454 C64.4802498,24.458743 68.0456683,24.1787402 71.542521,23.8547369 C71.8980941,23.8217101 72.1694262,23.531032 72.1688698,23.1837302 L72.1688698,21.3837121 C72.1667811,20.3654073 71.3266904,19.5361262 70.27954,19.5186933 C67.8584838,19.489693 65.4518263,19.5226933 63.0996786,19.785696 Z M28.0365308,20.9857081 C27.9771653,20.9875824 27.9228385,21.0186329 27.8922791,21.0681551 C27.8617197,21.1176772 27.8591076,21.1788974 27.8853434,21.2307105 C28.7513287,22.8797271 30.0009393,24.6057445 31.6650298,26.4137627 C31.7901979,26.5486782 31.966759,26.6278282 32.1535607,26.6327649 C39.5744306,26.8721006 46.9956434,26.8721006 54.4171991,26.6327649 C54.6125302,26.6265339 54.795855,26.5395921 54.9211572,26.3937625 C56.5399944,24.5047435 57.7258388,22.7937263 58.5403998,21.2267105 C58.5672044,21.175389 58.5651208,21.1142974 58.5348781,21.0648153 C58.5046354,21.0153332 58.4504443,20.9843498 58.3912693,20.982708 C48.68956,20.6597048 38.5887981,20.6457046 28.0365308,20.980708 L28.0365308,20.9857081 Z M70.3073092,13.721635 C69.7364994,9.71159462 68.5300852,5.63555361 66.9133051,1.13450832 C55.2564437,-0.2385055 41.8933239,-0.447507603 26.1317746,0.962506585 C23.0103193,5.48255207 20.4061925,9.82159573 18.9580841,13.7526353 C37.8112626,12.9666274 54.8008244,12.9086268 70.3052522,13.7166349 L70.3073092,13.721635 Z M62.2748328,2.98252691 L54.5087343,10.8826064 C53.7133717,10.8706063 52.9145809,10.8602728 52.1123617,10.8516061 L60.0317046,2.80152509 C60.7838708,2.85619231 61.5315802,2.91652625 62.2748328,2.98252691 Z M27.2888214,11.1326089 L35.6709831,2.60752314 C36.5232552,2.56352269 37.3703849,2.5245223 38.2123722,2.49052196 L29.7859857,11.0606082 L27.2888214,11.1326089 Z M40.7249637,2.40252107 C42.747653,2.34385382 44.7360595,2.31418685 46.6901831,2.31352018 C50.4554706,2.31352018 54.1528781,2.4245213 57.7536079,2.64452351 L49.7098182,10.8326059 C48.693674,10.8266058 47.6717016,10.8236058 46.6439012,10.8236058 C42.0578817,10.8236058 37.2548517,10.8826064 32.2780075,11.0006076 L40.7249637,2.40252107 Z M14.8791083,23.8547369 C18.375961,24.1780735 21.9413794,24.4580763 25.5753636,24.6947454 C25.7990065,24.7092943 26.0147769,24.6116656 26.1473539,24.4359395 C26.279931,24.2602133 26.3109115,24.0307826 26.2294808,23.8277367 C25.8098584,22.773726 25.3490967,21.6687149 24.5561339,20.5107033 C24.274339,20.1043962 23.8229475,19.8392314 23.3219506,19.785696 C20.9698029,19.5226933 18.5631455,19.485693 16.1451747,19.5186933 C15.0936053,19.532371 14.2486463,20.3651664 14.2486463,21.3877121 L14.2486463,23.1877302 C14.2504081,23.5348955 14.5234743,23.8237899 14.8791083,23.8547369 Z" id="Shape"></path>
        </g>
    </g>
</svg>