<?xml version="1.0" encoding="UTF-8"?>
<svg width="166px" height="27px" viewBox="0 0 166 27" version="1.1" xmlns="http://www.w3.org/2000/svg" xmlns:xlink="http://www.w3.org/1999/xlink">
    <title>Otomoto KLIK logo</title>
    <defs>
        <polygon id="path-1" points="0 0 0 9.98386457 10.9525904 9.98386457 10.9525904 0"></polygon>
    </defs>
    <g id="🚀-Master" stroke="none" stroke-width="1" fill="none" fill-rule="evenodd">
        <g id="HP_KLIKads_mWeb@360px" transform="translate(-95.000000, -6358.000000)">
            <g id="oto-hp-m-footer" transform="translate(0.000000, 5080.000000)">
                <g id="Footer" transform="translate(16.000000, 32.000000)">
                    <g id="Otomoto-KLIK-logo" transform="translate(79.000000, 1246.000000)">
                        <g id="KLIK-logo" transform="translate(106.662172, 0.000000)" fill-rule="nonzero">
                            <path d="M57.1280693,27 L2.20895643,27 C1.62289206,27 1.06091585,26.7740266 0.646656183,26.3723641 C0.232396513,25.9707018 0,25.4260464 0,24.858216 L0,2.14022969 C0,0.95821347 0.988983561,0 2.20895643,0 L57.1280693,0 C58.3479887,0.000428558396 59.3369425,0.958265473 59.3378282,2.14022969 L59.3378282,24.8566618 C59.3378282,25.4248328 59.1056536,25.9698855 58.6912204,26.3718618 C58.2767873,26.773838 57.7144854,27 57.1280693,27 Z" id="Path_3659" fill="#0072D5"></path>
                            <g id="Group-2" transform="translate(8.184528, 8.000000)" fill="#FFFFFF">
                                <polygon id="Path_3660" points="3.7898726 4.45335665 4.65176298 4.45335665 9.15507474 0 12.1240994 0 6.3170365 5.50627233 10.2213039 10.9983274 7.5387028 10.9983274 4.37232537 6.47221166 3.33927945 6.47221166 2.33854351 10.9983274 0 10.9983274 2.4450791 0 4.78274936 0"></polygon>
                                <polygon id="Path_3661" points="15.8135491 8.94769254 21.6939643 8.94769254 21.235512 10.9983274 13.0270321 10.9983274 15.4721112 0 17.8097815 0"></polygon>
                                <polygon id="Path_3662" points="26.7124891 11 24.3739456 11 26.8190247 0.00167262221 29.156695 0.00167262221"></polygon>
                                <polygon id="Path_3663" points="34.6354187 4.45335665 35.4964358 4.45335665 39.9997476 0 42.9687722 0 37.1617093 5.50627233 41.0659767 10.9983274 38.3842489 10.9983274 35.2169982 6.47221166 34.1848255 6.47221166 33.1840896 10.9983274 30.8455461 10.9983274 33.2906252 0 35.6282954 0"></polygon>
                            </g>
                        </g>
                        <g id="Otomoto_Logo" transform="translate(0.000000, 7.650000)">
                            <polygon id="Path" fill="#FA0000" fill-rule="nonzero" points="14.8006522 0.584914959 14.331902 2.92342472 18.3674639 2.92342472 16.7941874 11.1180345 19.9288869 11.1180345 21.5021634 2.92342472 25.5851391 2.92342472 26.0538892 0.584914959"></polygon>
                            <polygon id="Path" fill="#FA0000" fill-rule="nonzero" points="54.0905379 0.585897529 50.297433 4.10348783 47.8405355 0.585897529 44.935362 0.585897529 42.9127319 11.1209822 45.8933365 11.1209822 47.1228628 4.68221987 48.9698463 7.61518276 50.4353641 7.61518276 53.3006669 4.70874918 52.0786836 11.1209822 55.0592882 11.1209822 57.0829959 0.585897529"></polygon>
                            <polygon id="Path" fill="#FA0000" fill-rule="nonzero" points="74.3383905 0.584914959 73.8685624 2.92342472 77.9041247 2.92342472 76.3308482 11.1180345 79.4655477 11.1180345 81.0388242 2.92342472 85.1228774 2.92342472 85.5916273 0.584914959"></polygon>
                            <g id="Path-Clipped" transform="translate(0.000000, 0.000288)">
                                <mask id="mask-2" fill="white">
                                    <use xlink:href="#path-1"></use>
                                </mask>
                                <g id="path-1"></g>
                                <path d="M1.87284554,9.98386457 C-0.62717804,7.69564685 -0.624768036,3.99419361 1.87823347,1.70868423 C4.38675074,-0.571206805 8.44596684,-0.569008893 10.9515128,1.71359707 L8.68642574,3.77698803 C7.43140884,2.63394877 5.39844836,2.63306961 4.14224296,3.7750229 C2.88841775,4.9200486 2.88745372,6.77436451 4.14008779,7.92047359 L1.87284554,9.98386457 L1.87284554,9.98386457 Z" id="Path" fill="#FA0000" fill-rule="nonzero" mask="url(#mask-2)"></path>
                            </g>
                            <path d="M10.9547456,1.71486716 C13.4556595,4.00259088 13.4537313,7.70449091 10.9504352,9.99004744 C8.44209074,12.2708637 4.38204534,12.2691052 1.8760783,9.98611721 L4.14116537,7.92076111 C5.39637837,9.06483873 7.43050722,9.06615757 8.68750332,7.92370884 C9.94031416,6.77852553 9.9407961,4.92496546 8.6885809,3.77924068 L10.9547456,1.71486716 Z" id="Path" fill="#FA0000" fill-rule="nonzero"></path>
                            <path d="M29.5075544,9.98513461 C27.0071116,7.69653265 27.0100038,3.99432326 29.5140199,1.70897175 C32.0222401,-0.571190572 36.081456,-0.569432244 38.5872992,1.71290202 L36.3211345,3.77629298 C35.0658205,2.63352536 33.0328601,2.63308578 31.7769518,3.77531042 C30.5238429,4.92022286 30.5228791,6.77378305 31.7747966,7.91977853 L29.5075544,9.9841521 L29.5075544,9.98513461 Z" id="Path" fill="#FA0000" fill-rule="nonzero"></path>
                            <path d="M38.5894544,1.71486716 C41.0903683,4.00259088 41.0884401,7.70449091 38.585144,9.99004744 C36.0767995,12.2708637 32.0167542,12.2691052 29.5107871,9.98611721 L31.7758742,7.92076111 C33.0310872,9.06483873 35.065216,9.06615757 36.3222121,7.92370884 C37.575023,6.77852553 37.575505,4.92496546 36.3232897,3.77924068 L38.5894544,1.71486716 L38.5894544,1.71486716 Z" id="Path" fill="#FA0000" fill-rule="nonzero"></path>
                            <path d="M61.4095064,9.98513461 C58.9087659,7.6968034 58.9111761,3.99459424 61.4148941,1.70897175 C63.9231143,-0.571190572 67.9823304,-0.569432244 70.4881733,1.71290202 L68.2230861,3.77629298 C66.9677724,2.63352536 64.9348118,2.63308578 63.6789036,3.77531042 C62.4257947,4.92022286 62.4248308,6.77378305 63.6767483,7.91977853 L61.4095064,9.9841521 L61.4095064,9.98513461 Z" id="Path" fill="#FA0000" fill-rule="nonzero"></path>
                            <path d="M70.4914063,1.71486716 C72.9923203,4.00259088 72.9903919,7.70449091 70.4870957,9.99004744 C67.9787513,12.2708637 63.9187059,12.2691052 61.4127388,9.98611721 L63.677826,7.92076111 C64.9329153,9.06418514 66.9662146,9.06550376 68.2230861,7.92370884 C69.4761951,6.77879636 69.477159,4.92523617 68.2252414,3.77924068 L70.4914063,1.71486716 L70.4914063,1.71486716 Z" id="Path" fill="#FA0000" fill-rule="nonzero"></path>
                            <path d="M89.0442149,9.98513461 C86.5434745,7.6968034 86.5458849,3.99459424 89.0496031,1.70897175 C91.5578234,-0.571190572 95.6170388,-0.569432244 98.1228824,1.71290202 L95.8577952,3.77629298 C94.6024808,2.63352536 92.5695209,2.63308578 91.3136126,3.77531042 C90.0602052,4.919952 90.0587594,6.77351241 91.3103797,7.91977853 L89.0442149,9.9841521 L89.0442149,9.98513461 Z" id="Path" fill="#FA0000" fill-rule="nonzero"></path>
                            <path d="M98.1250377,1.71486716 C100.626249,4.00232006 100.624803,7.70421992 98.1218047,9.99004744 C95.6133362,12.2715176 91.5524608,12.269759 89.0463702,9.98611721 L91.312535,7.92076111 C92.5676243,9.06418514 94.6009237,9.06550376 95.8577952,7.92370884 C97.1109041,6.77879636 97.111868,4.92523617 95.8599505,3.77924068 L98.1261153,1.71486716 L98.1250377,1.71486716 Z" id="Path" fill="#FA0000" fill-rule="nonzero"></path>
                        </g>
                    </g>
                </g>
            </g>
        </g>
    </g>
</svg>