<?xml version="1.0" encoding="utf-8" ?>
<!DOCTYPE svg PUBLIC "-//W3C//DTD SVG 1.1//EN" "http://www.w3.org/Graphics/SVG/1.1/DTD/svg11.dtd">
<svg xmlns="http://www.w3.org/2000/svg" version="1.1" width="227" height="113" viewBox="0 0 227 113">
  <metadata>
    <rdf:RDF xmlns:rdf="http://www.w3.org/1999/02/22-rdf-syntax-ns#" xmlns:rdfs="http://www.w3.org/2000/01/rdf-schema#" xmlns:dc="http://purl.org/dc/elements/1.1/">
      <rdf:Description>
        <dc:date>2021-05-06</dc:date>
      </rdf:Description>
    </rdf:RDF>
  </metadata>
  <defs/>
  <g id="PageItem507" transform="scale(1)">
    <path d="M 38.1561061603817 26.3956793290685 C 38.4084474308285 26.9660261613439 38.7463037235531 27.4668920976232 39.1700546009334 27.8982771379064 C 39.5934240085872 28.3300455552648 40.0942899448665 28.6679018479894 40.6726533634456 28.9122274858068 C 41.2506343586239 29.1565512162755 41.8656465275081 29.2787149888585 42.5173074466976 29.2787149888585 C 43.1685859424862 29.2787149888585 43.779398129681 29.1565512162755 44.3497449619564 28.9122274858068 C 44.9197084171566 28.6679018479894 45.4205762607845 28.3300455552648 45.8523427707943 27.8982771379064 C 46.2837297184261 27.4668920976232 46.6219674808773 26.9660261613439 46.8662931186947 26.3956793290685 C 47.1106168491634 25.8257139665197 47.2327806217464 25.2149027329991 47.2327806217464 24.5632418138097 C 47.2327806217464 23.9119623643468 47.1106168491634 23.3011492234777 46.8662931186947 22.7308023912023 C 46.6219674808773 22.1608408433507 46.2837297184261 21.6599749070714 45.8523427707943 21.2282045823644 C 45.4205762607845 20.7968195420812 44.9197084171566 20.45858177963 44.3497449619564 20.2142580491613 C 43.779398129681 19.9699305039952 43.1685859424862 19.8477686387609 42.5173074466976 19.8477686387609 C 41.8656465275081 19.8477686387609 41.2506343586239 19.9699305039952 40.6726533634456 20.2142580491613 C 40.0942899448665 20.45858177963 39.5934240085872 20.7968195420812 39.1700546009334 21.2282045823644 C 38.7463037235531 21.6599749070714 38.4084474308285 22.1608408433507 38.1561061603817 22.7308023912023 C 37.903382466534 23.3011492234777 37.7774020893368 23.9119623643468 37.7774020893368 24.5632418138097 C 37.7774020893368 25.2149027329991 37.903382466534 25.8257139665197 38.1561061603817 26.3956793290685 Z M 28.7129441959652 53.8089450341771 C 28.9572692377361 54.3792913896154 29.2951248748096 54.8801575643132 29.7268929941448 55.3115439158986 C 30.1582793457302 55.7433120352338 30.6591455204281 56.0811676723073 31.2294918758663 56.3254927140783 C 31.7994562847408 56.5698177111457 32.4102689487728 56.69198021713 33.0619293911251 56.69198021713 C 33.0619293911251 56.69198021713 51.9971181614193 56.69198021713 51.9971181614193 56.69198021713 C 52.6483957035335 56.69198021713 53.2634088260921 56.5698177111457 53.8417722446712 56.3254927140783 C 54.4197522861751 56.0811676723073 54.9206182224544 55.7433120352338 55.3443700535091 55.3115439158986 C 55.7677404148372 54.8801575643132 56.101778195599 54.3792913896154 56.3461019260677 53.8089450341771 C 56.5904275638851 53.2389806253026 56.7125894291195 52.6281679612706 56.7125894291195 51.9765075189183 C 56.7125894291195 51.9765075189183 56.7125894291195 41.5682619554113 56.7125894291195 41.5682619554113 L 34.9432317478451 41.5682619554113 L 34.9432317478451 38.7340925675939 L 56.7125894291195 38.7340925675939 C 56.7125894291195 38.7340925675939 56.7125894291195 36.8527887803624 56.7125894291195 36.8527887803624 C 56.7125894291195 36.2015112382482 56.5904275638851 35.590698097379 56.3461019260677 35.0203512651036 C 56.101778195599 34.4503878099034 55.7677404148372 33.9495218736241 55.3443700535091 33.5177534562658 C 54.9206182224544 33.0863665086339 54.4197522861751 32.7481287461827 53.8417722446712 32.503805015714 C 53.2634088260921 32.2594793778966 52.6483957035335 32.1373175126622 51.9971181614193 32.1373175126622 C 51.9971181614193 32.1373175126622 33.0619293911251 32.1373175126622 33.0619293911251 32.1373175126622 C 32.4102689487728 32.1373175126622 31.7994562847408 32.2594793778966 31.2294918758663 32.503805015714 C 30.6591455204281 32.7481287461827 30.1582793457302 33.0863665086339 29.7268929941448 33.5177534562658 C 29.2951248748096 33.9495218736241 28.9572692377361 34.4503878099034 28.7129441959652 35.0203512651036 C 28.4686191988977 35.590698097379 28.3464566929134 36.2015112382482 28.3464566929134 36.8527887803624 C 28.3464566929134 36.8527887803624 28.3464566929134 47.2610348207067 28.3464566929134 47.2610348207067 L 50.0669500095638 47.2610348207067 L 50.0669500095638 50.0952051621984 L 28.3464566929134 50.0952051621984 C 28.3464566929134 50.0952051621984 28.3464566929134 51.9765075189183 28.3464566929134 51.9765075189183 C 28.3464566929134 52.6281679612706 28.4686191988977 53.2389806253026 28.7129441959652 53.8089450341771 Z " stroke="none" fill="#FFFFFF"/>
  </g>
  <g id="PageItem509" transform="scale(1)">
    <path d="M 72.9219863065423 85.0393700787 C 72.9297730573358 84.4540803619794 72.9397842534722 83.8053857275419 72.9516493924798 83.0934716650419 C 72.9635145314874 82.3815577217512 72.9792730458917 81.6360871979169 72.9991104253472 80.8568749615125 C 73.0187623151483 80.0778484531812 73.0406386502923 79.2828774639539 73.0643694051446 78.4719629475049 C 73.0880996831597 77.6612339207105 73.113683904046 76.8642239757947 73.1414930471124 76.081118125575 C 73.1691171773614 75.2980132290296 73.1967408307733 74.5445704647474 73.2245499738397 73.820791740077 C 73.2521736272515 73.0970120617322 73.281836713189 72.4307046123914 73.3135392316522 71.8214993664197 C 73.3135392316522 71.8214993664197 77.620619500512 83.4612939545087 77.620619500512 83.4612939545087 L 79.3173472531976 83.4612939545087 C 79.3173472531976 83.4612939545087 83.6481578000726 71.7977690884046 83.6481578000726 71.7977690884046 C 83.6796748288812 72.5018964001111 83.7113778241815 73.2414345928602 83.7430798658074 74.0165677257947 C 83.774596894616 74.791886825221 83.8042599805535 75.5768456646375 83.8320691236199 76.3718161770277 C 83.8596923001946 77.1667871662549 83.8854624875726 77.9617581554822 83.9091927655877 78.7567286678724 C 83.9329230436028 79.5516991802625 83.952575410241 80.3210854717664 83.9685189374627 81.0645168014936 C 83.984277451867 81.8081331440382 83.9981820234002 82.5180077740125 84.0100476392449 83.1943261810712 C 84.0219123014153 83.8706445881299 84.0278451093377 84.4857827612333 84.0278451093377 85.0393700787 C 84.0278451093377 85.0393700787 86.3415658124627 85.0393700787 86.3415658124627 85.0393700787 C 86.3415658124627 84.2879670449666 86.329700196618 83.4455354401044 86.3059708722772 82.5120752045087 C 86.2822396405877 81.5788004585676 86.2525765546502 80.6017723270826 86.2169816144647 79.5813622662 C 86.1813847669305 78.5609522053174 86.1398579724969 77.5227441975049 86.092395509118 76.4667382427625 C 86.0449349530877 75.4107327648572 85.9933964856805 74.3825364300184 85.9381482251824 73.3817773052625 C 85.882714951867 72.3812051006727 85.823388779992 71.4340253063611 85.7601697095574 70.5400538631849 C 85.6967656263055 69.6462683865003 85.6296517499627 68.8512978741102 85.558459962243 68.1551423260145 C 85.558459962243 68.1551423260145 82.9125134595574 68.1551423260145 82.9125134595574 68.1551423260145 L 78.5223767408074 80.1508937069349 L 74.1203748830499 68.1551423260145 C 74.1203748830499 68.1551423260145 71.3913712152184 68.1551423260145 71.3913712152184 68.1551423260145 C 71.2410163530053 69.4840483852796 71.104566300744 71.216372031825 70.9820205815972 73.352114219325 C 70.8592896112145 75.487856406825 70.7684464105309 77.5386882015638 70.7091202386559 79.5042386242322 C 70.6497940667809 81.4699740597181 70.6201309808434 83.3150178381376 70.6201309808434 85.0393700787 C 70.6201309808434 85.0393700787 72.9219863065423 85.0393700787 72.9219863065423 85.0393700787 Z M 96.5634553083123 84.742739219325 C 97.2238309034051 84.386782188075 97.7360741742791 83.912172813075 98.1000039228143 83.318911094325 C 98.1000039228143 83.318911094325 98.1237351545037 85.0393700787 98.1237351545037 85.0393700787 L 100.413724625939 85.0393700787 L 100.413724625939 72.7469878384046 L 98.052543366784 72.7469878384046 C 98.052543366784 72.7469878384046 98.052543366784 79.9135890194349 98.052543366784 79.9135890194349 C 98.052543366784 80.3804116436414 97.9733788617791 80.8173861690931 97.815238679284 81.2246973701887 C 97.6569115766229 81.6321940609388 97.4374062665643 81.9900050350599 97.1567170270623 82.2985010334424 C 96.8758446820916 82.606997031825 96.5456597455682 82.8502342888288 96.1659714826287 83.0282128044538 C 95.7862832196893 83.2061914392881 95.378787721032 83.2951806971006 94.9438531049432 83.2951806971006 C 94.1527745374383 83.2951806971006 93.565446580285 83.0934716650419 93.1818654187859 82.6900537201337 C 92.7980992444695 82.2866358944349 92.6064011701287 81.6262612530164 92.6064011701287 80.708559531825 C 92.6064011701287 80.708559531825 92.6064011701287 72.7469878384046 92.6064011701287 72.7469878384046 L 90.2570855268182 72.7469878384046 C 90.2570855268182 72.7469878384046 90.2570855268182 81.2187648006849 90.2570855268182 81.2187648006849 C 90.2570855268182 82.5714013763837 90.6011769422234 83.5858788677625 91.289359773034 84.2621972748212 C 91.9775445111932 84.938515592473 92.9543854840936 85.2766747662 94.2200734265984 85.2766747662 C 95.1218316205682 85.2766747662 95.9028966077508 85.098696250575 96.5634553083123 84.742739219325 Z M 109.876241410607 85.0512353127025 C 110.489152634972 84.9010659494571 111.013261521691 84.6715478190355 111.448384965295 84.3630517312459 C 111.883317674035 84.0545556732587 112.21962519967 83.6670816132001 112.45692988717 83.200258750575 C 112.69423457467 82.7336213776044 112.81288691842 82.1878206917219 112.81288691842 81.5628564545087 C 112.81288691842 80.9933252521924 112.700166428918 80.4673619457654 112.474725449914 79.9847803303174 C 112.249288285607 79.5023846813611 111.865522111291 79.0989666172437 111.323800767297 78.7745266148023 C 110.781892503137 78.4502721020154 110.036420548791 78.1417756267957 109.087201798791 77.8490381428174 C 108.628350938195 77.7066555210523 108.215108598107 77.5742840954236 107.847284043664 77.4515528866224 C 107.479463303918 77.3290071674757 107.16892787301 77.1964502521924 106.915864671105 77.0540676304273 C 106.662614549035 76.911684531825 106.466840470666 76.749650497096 106.328534806603 76.5675931164197 C 106.190046037072 76.3857207485609 106.120893205041 76.1641745754652 106.120893205041 75.90313960995 C 106.120893205041 75.3890414425306 106.31463023507 75.0054612347059 106.702291215295 74.7522120663099 C 107.089765275353 74.4991488644056 107.690995896691 74.3725247570447 108.505807603234 74.3725247570447 C 109.193990434045 74.3725247570447 109.824701035851 74.4220252224378 110.398309434289 74.5208401867322 C 110.971734727258 74.6198411175184 111.515496934289 74.7562909313611 112.029779160851 74.9301905819349 C 112.029779160851 74.9301905819349 112.029779160851 72.9842925259046 112.029779160851 72.9842925259046 C 111.578901017541 72.8498816677503 111.056832993859 72.7351222225599 110.463571275109 72.640200156825 C 109.870309556359 72.5452790447645 109.170259202355 72.4978175350599 108.363424027795 72.4978175350599 C 107.683026994103 72.4978175350599 107.062139237756 72.5769810863904 106.50058146798 72.7351222225599 C 105.938836778039 72.893449325221 105.460332597131 73.1227822491102 105.064889634484 73.4233060070447 C 104.669255936974 73.724015731471 104.362798417443 74.0996241756849 104.145333970422 74.5505032726697 C 103.927678788537 75.0013823696546 103.819040025109 75.5156655498914 103.819040025109 76.0929837414197 C 103.819040025109 76.630998153346 103.905988419885 77.0857701488904 104.080072129601 77.4574856945447 C 104.253972733849 77.8293862530164 104.497209275597 78.1456690021924 104.809785569543 78.4067044445447 C 105.122174943322 78.6677394100599 105.489995683068 78.8892855831556 105.913251603478 79.0711574741773 C 106.336320603722 79.2532143780164 106.797212327355 79.4271145054273 107.295552934045 79.5932278820447 C 107.714727128381 79.7435822674207 108.173577988976 79.8978305050306 108.671918595666 80.0559716412 C 109.170259202355 80.2142987438611 109.583501542443 80.4219403454236 109.911836350793 80.6788964458875 C 110.239984238976 80.9360385128431 110.404245103234 81.2780909725599 110.404245103234 81.7052393146924 C 110.404245103234 81.9662745186262 110.338983262414 82.2313883491926 110.208467210168 82.5002100655012 C 110.077951157922 82.7692170330457 109.800969804162 82.9848306366376 109.377900803918 83.1468652674131 C 108.954644883508 83.3090852686338 108.387155259484 83.3901025244169 107.675241196984 83.3901025244169 C 107.232148850793 83.3901025244169 106.791280473107 83.3585854956083 106.352266038293 83.2951806971006 C 105.913251603478 83.2319612690382 105.527631486291 83.1509438940458 105.19540568673 83.0519434400968 C 104.86317988717 82.9531281181745 104.491277421349 82.8205712028913 104.080072129601 82.6544580646924 C 104.080072129601 82.6544580646924 103.451215470666 84.4342431613378 103.451215470666 84.4342431613378 C 103.617330277795 84.5134064742498 103.834798539513 84.6003564187459 104.103803361291 84.6952783056669 C 104.372625077599 84.7902001627855 104.691133225793 84.8812287637166 105.058953965539 84.9681786784105 C 105.426778519982 85.0551285931043 105.842061723107 85.1283593365125 106.304803574914 85.1876855083875 C 106.767549241418 85.2470116802625 107.275712693566 85.2766747662 107.82948848092 85.2766747662 C 108.580888474816 85.2766747662 109.263139451379 85.2014046796731 109.876241410607 85.0512353127025 Z M 121.272794450158 85.1817528792791 C 121.731462205285 85.1183480435185 122.150823319787 85.0315835188277 122.530511582726 84.92071773495 C 122.530511582726 84.92071773495 122.115228379601 83.1646630951337 122.115228379601 83.1646630951337 C 121.956899369592 83.2200960108213 121.731462205285 83.2714501806669 121.438909257287 83.318911094325 C 121.146169389123 83.3663721271924 120.837674821252 83.3901025244169 120.513421738976 83.3901025244169 C 119.872697556847 83.3901025244169 119.4197785505 83.2319612690382 119.154851640099 82.9154932686262 C 118.889737809533 82.5992105194501 118.757363999719 82.0849268623762 118.757363999719 81.3730127998762 C 118.757363999719 81.3730127998762 118.757363999719 74.5860991665296 118.757363999719 74.5860991665296 L 121.949113572472 74.5860991665296 L 121.949113572472 72.7469878384046 L 118.757363999719 72.7469878384046 C 118.757363999719 72.7469878384046 118.757363999719 68.9501118847303 118.757363999719 68.9501118847303 C 117.800176347131 69.4326939770154 117.017068589562 69.7806792446546 116.408048356408 69.9942536541395 C 116.408048356408 69.9942536541395 116.408048356408 72.7469878384046 116.408048356408 72.7469878384046 L 114.485879624719 72.7469878384046 L 114.485879624719 74.5860991665296 L 116.408048356408 74.5860991665296 C 116.408048356408 74.5860991665296 116.408048356408 81.6340480038099 116.408048356408 81.6340480038099 C 116.408048356408 82.2035792061262 116.473306382531 82.7137842365674 116.603826249474 83.1646630951337 C 116.734342301721 83.6155419537 116.937905991906 83.9972688147001 117.214883530969 84.3096581884794 C 117.491677964562 84.6222329327039 117.847634995812 84.861391563075 118.282754624719 85.0275048446975 C 118.717691148156 85.1936181225948 119.243840897912 85.2766747662 119.860833848351 85.2766747662 C 120.343229020471 85.2766747662 120.813943589562 85.2449723371438 121.272794450158 85.1817528792791 Z M 131.625222886437 85.2232812085323 C 132.222375596398 85.148011129456 132.778001511926 85.0315835188277 133.292283738488 84.8732568063907 C 133.292283738488 84.8732568063907 132.829545701379 83.0697412678174 132.829545701379 83.0697412678174 C 132.441880906457 83.1806069799833 131.991002763146 83.2734894939832 131.47690745675 83.3485741802625 C 130.96262141549 83.4238443561964 130.432763779992 83.4612939545087 129.886964524621 83.4612939545087 C 128.70822688424 83.4612939545087 127.818334306115 83.1311067530088 127.217286790246 82.4705469795637 C 126.616052354211 81.8101725765638 126.268068040246 80.8589143940382 126.173146928185 79.6169581600599 C 126.173146928185 79.6169581600599 134.016069138879 79.6169581600599 134.016069138879 79.6169581600599 C 134.047578538293 79.2057538219861 134.063523972863 78.7270655819349 134.063523972863 78.1812648960523 C 134.063523972863 76.3382601925306 133.648240769738 74.9224038311414 132.817674363488 73.9335112759046 C 131.987111771935 72.9448037334852 130.753125871056 72.4503569790296 129.115724290246 72.4503569790296 C 128.237695420617 72.4503569790296 127.458482468957 72.6066441723279 126.778272355431 72.9190335461072 C 126.09787532174 73.2316079327039 125.52834483468 73.6724763103895 125.06968089425 74.24200679745 C 124.610830033654 74.8115382381849 124.262841904992 75.4937892147474 124.025537217492 76.2887597271375 C 123.788232529992 77.0837307163648 123.669580186242 77.9599042126111 123.669580186242 78.9169092365674 C 123.669580186242 79.8978305050306 123.800100053185 80.7838297077589 124.061135972375 81.5747218319349 C 124.322168076867 82.3657992073469 124.703710282678 83.0400781818799 125.206128800744 83.5977441259794 C 125.708364213342 84.1554101296834 126.323316300744 84.5845979043416 127.051171983117 84.8851220348052 C 127.778844560021 85.1856461652688 128.609410966271 85.336000938075 129.542871201867 85.336000938075 C 130.333764756555 85.336000938075 131.027879441613 85.2983658799104 131.625222886437 85.2232812085323 Z M 126.956250871056 75.1674952694349 C 127.438646043176 74.5110144802503 128.13869639718 74.182680625575 129.056398118371 74.182680625575 C 129.926454270715 74.182680625575 130.565137589806 74.4596600719861 130.972634995812 75.013247031825 C 131.379945481652 75.5670199581556 131.583692277306 76.3501258083753 131.583692277306 77.3625636288099 C 131.583692277306 77.3625636288099 131.583692277306 77.9202294537 131.583692277306 77.9202294537 C 131.583692277306 77.9202294537 126.125684464806 77.9202294537 126.125684464806 77.9202294537 C 126.196878159875 76.7416777798109 126.473668778771 75.8241620251111 126.956250871056 75.1674952694349 Z M 139.71136638009 85.0393700787 C 139.71136638009 85.0393700787 139.71136638009 78.3829736896924 139.71136638009 78.3829736896924 C 139.71136638009 78.0032863804273 139.782563889855 77.6078400799207 139.924943650597 77.1964502521924 C 140.06732341134 76.7852454372816 140.284791673058 76.4094519802503 140.577531541222 76.0692534634046 C 140.870080674523 75.7292399593763 141.234010423058 75.4504075237684 141.669130051965 75.2327542492322 C 142.104066575402 75.0152869411878 142.618348801965 74.9064603039197 143.211610520715 74.9064603039197 C 143.583329881066 74.9064603039197 143.86419841134 74.9301905819349 144.054048264855 74.9776520916395 C 144.054048264855 74.9776520916395 144.054048264855 72.7469878384046 144.054048264855 72.7469878384046 C 143.840470994347 72.6995263287 143.531976426476 72.6757960506849 143.128556931847 72.6757960506849 C 142.732927049035 72.6757960506849 142.32171794259 72.7490267940931 141.894571030969 72.8953032680921 C 141.467424119347 73.0417647549085 141.056031907433 73.3007607647352 140.66058513009 73.6724763103895 C 140.264955247277 74.0443768688611 139.928834641808 74.5110144802503 139.652040208215 75.0725732037 C 139.652040208215 75.0725732037 139.60458537423 72.7469878384046 139.60458537423 72.7469878384046 L 137.35019084298 72.7469878384046 L 137.35019084298 85.0393700787 L 139.71136638009 85.0393700787 Z M 151.724916184777 85.0512353127025 C 152.33783122384 84.9010659494571 152.861940110558 84.6715478190355 153.297059739465 84.3630517312459 C 153.731996262902 84.0545556732587 154.06829997384 83.6670816132001 154.30560466134 83.200258750575 C 154.54290934884 82.7336213776044 154.66156169259 82.1878206917219 154.66156169259 81.5628564545087 C 154.66156169259 80.9933252521924 154.548845017785 80.4673619457654 154.323404038781 79.9847803303174 C 154.097963059777 79.5023846813611 153.714196885461 79.0989666172437 153.172479356164 78.7745266148023 C 152.630571092004 78.4502721020154 151.885102952355 78.1417756267957 150.935884202355 77.8490381428174 C 150.477029527062 77.7066555210523 150.063783372277 77.5742840954236 149.695962632531 77.4515528866224 C 149.328141892785 77.3290071674757 149.017610276574 77.1964502521924 148.764543259972 77.0540676304273 C 148.511293137902 76.911684531825 148.315515244836 76.749650497096 148.177217210168 76.5675931164197 C 148.038728440637 76.3857207485609 147.969575608605 76.1641745754652 147.969575608605 75.90313960995 C 147.969575608605 75.3890414425306 148.163308823937 75.0054612347059 148.550965989465 74.7522120663099 C 148.938440049523 74.4991488644056 149.539674485558 74.3725247570447 150.354486192101 74.3725247570447 C 151.042665208215 74.3725247570447 151.673379624719 74.4220252224378 152.246988023156 74.5208401867322 C 152.820413316125 74.6198411175184 153.364175523156 74.7562909313611 153.878457749719 74.9301905819349 C 153.878457749719 74.9301905819349 153.878457749719 72.9842925259046 153.878457749719 72.9842925259046 C 153.427583421105 72.8498816677503 152.905511582726 72.7351222225599 152.312249863976 72.640200156825 C 151.718988145226 72.5452790447645 151.018937791222 72.4978175350599 150.212098801965 72.4978175350599 C 149.531701768273 72.4978175350599 148.91082164132 72.5769810863904 148.349260056847 72.7351222225599 C 147.787515366906 72.893449325221 147.309015000695 73.1227822491102 146.913568223351 73.4233060070447 C 146.517938340539 73.724015731471 146.211480821008 74.0996241756849 145.994012559289 74.5505032726697 C 145.776361192101 75.0013823696546 145.667718613976 75.5156655498914 145.667718613976 76.0929837414197 C 145.667718613976 76.630998153346 145.754670823449 77.0857701488904 145.928750718469 77.4574856945447 C 146.102655137414 77.8293862530164 146.345887864465 78.1456690021924 146.65846415841 78.4067044445447 C 146.970857346887 78.6677394100599 147.338678086633 78.8892855831556 147.761934007043 79.0711574741773 C 148.18499919259 79.2532143780164 148.645890916222 79.4271145054273 149.144227708215 79.5932278820447 C 149.563409531945 79.7435822674207 150.022256577844 79.8978305050306 150.52060099923 80.0559716412 C 151.018937791222 80.2142987438611 151.432183946008 80.4219403454236 151.76051493966 80.6788964458875 C 152.088662827844 80.9360385128431 152.252923692101 81.2780909725599 152.252923692101 81.7052393146924 C 152.252923692101 81.9662745186262 152.187661851281 82.2313883491926 152.057145799035 82.5002100655012 C 151.926629746789 82.7692170330457 151.649652207726 82.9848306366376 151.226579392785 83.1468652674131 C 150.803323472375 83.3090852686338 150.235833848351 83.3901025244169 149.523919785851 83.3901025244169 C 149.08082743966 83.3901025244169 148.639955247277 83.3585854956083 148.20094462716 83.2951806971006 C 147.761934007043 83.2319612690382 147.376313889855 83.1509438940458 147.044084275597 83.0519434400968 C 146.71185466134 82.9531281181745 146.339959824914 82.8205712028913 145.928750718469 82.6544580646924 C 145.928750718469 82.6544580646924 145.29989787423 84.4342431613378 145.29989787423 84.4342431613378 C 145.466005051965 84.5134064742498 145.683473313683 84.6003564187459 145.952485764855 84.6952783056669 C 146.221307481164 84.7902001627855 146.53981181466 84.8812287637166 146.907632554406 84.9681786784105 C 147.275453294152 85.0551285931043 147.690736497277 85.1283593365125 148.153482163781 85.1876855083875 C 148.616227830285 85.2470116802625 149.124391282433 85.2766747662 149.67816325509 85.2766747662 C 150.429567063683 85.2766747662 151.111818040246 85.2014046796731 151.724916184777 85.0512353127025 Z M 163.121476853722 85.1817528792791 C 163.580140794152 85.1183480435185 163.999498093957 85.0315835188277 164.379190171594 84.92071773495 C 164.379190171594 84.92071773495 163.963906968469 83.1646630951337 163.963906968469 83.1646630951337 C 163.805581773156 83.2200960108213 163.580140794152 83.2714501806669 163.287584031457 83.318911094325 C 162.994851792687 83.3663721271924 162.686357224816 83.3901025244169 162.362100327844 83.3901025244169 C 161.721376145715 83.3901025244169 161.268457139367 83.2319612690382 161.003526414269 82.9154932686262 C 160.738412583703 82.5992105194501 160.606042588586 82.0849268623762 160.606042588586 81.3730127998762 C 160.606042588586 81.3730127998762 160.606042588586 74.5860991665296 160.606042588586 74.5860991665296 L 163.79779216134 74.5860991665296 L 163.79779216134 72.7469878384046 L 160.606042588586 72.7469878384046 C 160.606042588586 72.7469878384046 160.606042588586 68.9501118847303 160.606042588586 68.9501118847303 C 159.648851121301 69.4326939770154 158.86574717843 69.7806792446546 158.256730759972 69.9942536541395 C 158.256730759972 69.9942536541395 158.256730759972 72.7469878384046 158.256730759972 72.7469878384046 L 156.334558213586 72.7469878384046 L 156.334558213586 74.5860991665296 L 158.256730759972 74.5860991665296 C 158.256730759972 74.5860991665296 158.256730759972 81.6340480038099 158.256730759972 81.6340480038099 C 158.256730759972 82.2035792061262 158.321984971398 82.7137842365674 158.452501023644 83.1646630951337 C 158.583024705285 83.6155419537 158.786584580773 83.9972688147001 159.063562119836 84.3096581884794 C 159.34035655343 84.6222329327039 159.69631358468 84.861391563075 160.131433213586 85.0275048446975 C 160.566369737023 85.1936181225948 161.092515672082 85.2766747662 161.709512437219 85.2766747662 C 162.19190379464 85.2766747662 162.66262217843 85.2449723371438 163.121476853722 85.1817528792791 Z M 170.86354228341 85.1046288647823 C 171.350015366906 84.990055199819 171.777162278527 84.8358071633749 172.144983018273 84.641884733098 C 172.512803758019 84.448147732871 172.81537028634 84.2325341888837 173.05267497384 83.9952295013837 C 173.05267497384 83.9952295013837 173.100137437219 85.0393700787 173.100137437219 85.0393700787 L 175.330796922082 85.0393700787 C 175.330796922082 85.0393700787 175.330796922082 76.5794577785902 175.330796922082 76.5794577785902 C 175.330796922082 75.8675446697645 175.23773356759 75.2546305843763 175.051965440148 74.7403474041395 C 174.866014207238 74.2262482830457 174.579210008019 73.8029933163099 174.191735947961 73.470766563075 C 173.804078782433 73.1385407635145 173.311670029992 72.893449325221 172.714517320031 72.7351222225599 C 172.117173875207 72.5769810863904 171.411195481652 72.4978175350599 170.596574509972 72.4978175350599 C 170.185182298058 72.4978175350599 169.746171677941 72.5196938702039 169.279527390832 72.5630765148572 C 168.812707627648 72.6066441723279 168.429124558801 72.656144637721 168.128602708215 72.7113919445447 C 167.827890122765 72.7668252178602 167.345498765344 72.8815837093763 166.681047166222 73.05548335995 C 166.681047166222 73.05548335995 166.681047166222 74.9776520916395 166.681047166222 74.9776520916395 C 167.195146287316 74.7957797237806 167.732972825402 74.6376385876111 168.294717515344 74.5030427166395 C 168.856279099816 74.3686318584852 169.469377244347 74.301332969325 170.133828843469 74.301332969325 C 170.663682664269 74.301332969325 171.162027085656 74.3626990505628 171.62884684884 74.4852442928724 C 172.095483506555 74.6079755016736 172.441613877648 74.8373084255628 172.667054856652 75.1734280773572 C 172.892495835656 75.5097336956434 173.005212510461 75.9861960598402 173.005212510461 76.6031890102796 C 173.005212510461 76.6031890102796 173.005212510461 77.2676420399122 173.005212510461 77.2676420399122 C 172.965539658898 77.2676420399122 172.884523118371 77.2696809956007 172.76197978341 77.2735743709974 C 172.639245713586 77.2776532360486 172.51076670968 77.2795071789197 172.376359666222 77.2795071789197 C 172.241761887902 77.2795071789197 172.113282883996 77.2815466114454 171.990739549035 77.2854395100049 C 171.868005479211 77.2895183750562 171.790879929894 77.2913723179273 171.759362901086 77.2913723179273 C 171.039476121301 77.3073163219861 170.38893290841 77.3586702534132 169.807534898156 77.4456200787 C 169.226136887902 77.5327553936414 168.702028001183 77.6671662517957 168.235391343469 77.8490381428174 C 167.404824937219 78.1812648960523 166.775964463586 78.6499414631299 166.348817551965 79.2550683208875 C 165.921670640344 79.8601956554822 165.708093369836 80.629581470149 165.708093369836 81.5628564545087 C 165.708093369836 82.2352814861707 165.808946336144 82.8068521210126 166.010659898156 83.2773828693799 C 166.212365830773 83.7480988689832 166.485269273156 84.1316796728544 166.82936259591 84.4283105322294 C 167.173448289269 84.7249413916044 167.576867783898 84.9405549281411 168.039613450402 85.0749657788448 C 168.502359116906 85.2093766369991 168.990686143273 85.2766747662 169.504968369836 85.2766747662 C 169.924150193566 85.2766747662 170.377061570519 85.2192025371961 170.86354228341 85.1046288647823 Z M 169.065957749719 83.25958492245 C 168.733728135461 83.125174183505 168.484559739465 82.8938019462995 168.318444932336 82.5654688068799 C 168.152330125207 82.2373209186964 168.06927653634 81.8713526913099 168.06927653634 81.4679346271924 C 168.06927653634 81.0092692562513 168.152330125207 80.6216097065382 168.318444932336 80.3051419445447 C 168.484559739465 79.9888591953687 168.735582078332 79.7317171284132 169.071885789269 79.5339017101697 C 169.408006394738 79.3362713047437 169.829225266808 79.1957421490125 170.335534776086 79.1126856991224 C 170.841661179894 79.0296292492322 171.439004624719 78.98810054745 172.127183640832 78.98810054745 C 172.127183640832 78.98810054745 173.005212510461 78.98810054745 173.005212510461 78.98810054745 C 173.005212510461 78.98810054745 173.005212510461 82.3222315498762 173.005212510461 82.3222315498762 C 172.862832749719 82.4725861736707 172.668908799523 82.6327669807844 172.423814500207 82.8027734943799 C 172.178537095422 82.9729654976301 171.844278062219 83.125174183505 171.421205247277 83.25958492245 C 170.997949326867 83.3941812702589 170.576738084191 83.4612939545087 170.157556260461 83.4612939545087 C 169.761926377648 83.4612939545087 169.398179734582 83.3941812702589 169.065957749719 83.25958492245 Z M 185.623887742394 84.8435937204532 C 186.189340318078 84.5549348184041 186.677850449914 84.0942300149374 187.089242661828 83.4612939545087 C 187.089242661828 83.4612939545087 187.148568833703 85.0393700787 187.148568833703 85.0393700787 L 189.402963364953 85.0393700787 L 189.402963364953 67.182192344325 L 187.041780198449 67.182192344325 C 187.041780198449 67.182192344325 187.041780198449 73.6724763103895 187.041780198449 73.6724763103895 C 186.915155137414 73.53009273495 186.752931321496 73.3897500225477 186.555307114953 73.2512602993421 C 186.357492173547 73.1129555889539 186.124078477258 72.9863314815931 185.855256760949 72.871572990077 C 185.586251939172 72.7569985577039 185.283685410851 72.6659703442029 184.947564805383 72.5986724087171 C 184.611261094445 72.5315594860486 184.241586411828 72.4978175350599 183.838166917199 72.4978175350599 C 183.110307420129 72.4978175350599 182.433992112512 72.6422400661878 181.809213364953 72.930899161952 C 181.184243882531 73.2197432705335 180.640489304894 73.6389193722181 180.17774363839 74.1886134334974 C 179.714997971887 74.7384934612684 179.351068223351 75.4166655727796 179.086137498254 76.2235007473402 C 178.821023667687 77.030336875575 178.68865367257 77.9519319721632 178.68865367257 78.98810054745 C 178.68865367257 80.0876741596632 178.809159959191 81.0348534771375 179.050546372765 81.8298242279462 C 179.291742051476 82.6247949787549 179.627862656945 83.2773828693799 180.05909129464 83.7875878998212 C 180.490129197472 84.2977929302625 181.002374375695 84.6735871621541 181.595636094445 84.9147851207427 C 182.188897813195 85.1559830793313 182.83741160714 85.2766747662 183.541536057824 85.2766747662 C 184.364129746789 85.2766747662 185.058244431847 85.1322526150517 185.623887742394 84.8435937204532 Z M 182.568589890832 82.9273584076337 C 182.12549754464 82.6505646892957 181.793267930383 82.1679835506849 181.571908677453 81.4797997662 C 181.35035868966 80.7916164585523 181.239679063195 79.9610500523023 181.239679063195 78.98810054745 C 181.239679063195 78.2684002109937 181.316804612512 77.6295314022474 181.471055711144 77.0718655773572 C 181.625299180383 76.5141997524671 181.83887645089 76.0436682888441 182.111772263879 75.659903068202 C 182.384675706262 75.2763219067029 182.712823594445 74.9856238552503 183.096589768762 74.7878079601697 C 183.480172837609 74.5901780315809 183.90528270089 74.4911771007947 184.372102464074 74.4911771007947 C 184.712114060754 74.4911771007947 185.052316392297 74.5367837139539 185.392511094445 74.6276269146375 C 185.732522691125 74.7186560818128 186.025262559289 74.8471341320447 186.270539964074 75.013247031825 C 186.515626633996 75.1793608852796 186.772775376672 75.3929352947645 187.041780198449 75.6539702602796 C 187.041780198449 75.6539702602796 187.041780198449 79.4508447834424 187.041780198449 79.4508447834424 C 187.041780198449 80.0520787426404 186.956681931847 80.657205600398 186.786676133508 81.2662255951337 C 186.616487229699 81.8754313179426 186.294267381066 82.3737712093763 185.819658006066 82.7612452694349 C 185.345048631066 83.1489045807294 184.763658250207 83.3426416107587 184.075471604699 83.3426416107587 C 183.513726914758 83.3426416107587 183.01149150216 83.204337496417 182.568589890832 82.9273584076337 Z M 198.669709885949 85.1817528792791 C 199.128373826379 85.1183480435185 199.547731126183 85.0315835188277 199.927415574426 84.92071773495 C 199.927415574426 84.92071773495 199.512132371301 83.1646630951337 199.512132371301 83.1646630951337 C 199.353807175988 83.2200960108213 199.128373826379 83.2714501806669 198.835817063683 83.318911094325 C 198.543077195519 83.3663721271924 198.234590257043 83.3901025244169 197.910325730676 83.3901025244169 C 197.269609177941 83.3901025244169 196.816697800988 83.2319612690382 196.551759446496 82.9154932686262 C 196.28664561593 82.5992105194501 196.154275620812 82.0849268623762 196.154275620812 81.3730127998762 C 196.154275620812 81.3730127998762 196.154275620812 74.5860991665296 196.154275620812 74.5860991665296 L 199.346025193566 74.5860991665296 L 199.346025193566 72.7469878384046 L 196.154275620812 72.7469878384046 C 196.154275620812 72.7469878384046 196.154275620812 68.9501118847303 196.154275620812 68.9501118847303 C 195.197084153527 69.4326939770154 194.413980210656 69.7806792446546 193.804963792199 69.9942536541395 C 193.804963792199 69.9942536541395 193.804963792199 72.7469878384046 193.804963792199 72.7469878384046 L 191.882791245812 72.7469878384046 L 191.882791245812 74.5860991665296 L 193.804963792199 74.5860991665296 C 193.804963792199 74.5860991665296 193.804963792199 81.6340480038099 193.804963792199 81.6340480038099 C 193.804963792199 82.2035792061262 193.870218003625 82.7137842365674 194.000734055871 83.1646630951337 C 194.131257737512 83.6155419537 194.334817613 83.9972688147001 194.611795152062 84.3096581884794 C 194.888589585656 84.6222329327039 195.244546616906 84.861391563075 195.679666245812 85.0275048446975 C 196.11460276925 85.1936181225948 196.640748704308 85.2766747662 197.257737840051 85.2766747662 C 197.740144456262 85.2766747662 198.210862840051 85.2449723371438 198.669709885949 85.1817528792791 Z " stroke="none" fill="#FFFFFF"/>
  </g>
  <g id="PageItem511" transform="scale(1)">
    <path d="M 77.9212461982025 56.6691829178018 C 78.6646772895111 56.4556086983067 79.2955738578095 56.1411800112111 79.8137508902802 55.7258968080861 C 80.3317429099335 55.3106136049611 80.7273747000946 54.7985546316487 81.0002743277802 54.1893490280491 C 81.27317490914 53.5803287948948 81.4096256766571 52.8841732467991 81.4096256766571 52.1010678734166 C 81.4096256766571 51.2942317451817 81.2791077170624 50.6179135765416 81.0180727515473 50.072112890659 C 80.7570377860321 49.5263122047764 80.4109064612641 49.0656074013096 79.9798647437348 48.6898129906041 C 79.5486370597138 48.3142045463902 79.0484434638275 47.9997752632481 78.4789120230927 47.7465270485264 C 77.9093815360321 47.4934638466221 77.3161198172821 47.2522662605626 76.6991273436798 47.0227473701817 C 76.1373826537384 46.8251174415928 75.623284486319 46.6352733101231 75.1566468749298 46.4532168831212 C 74.6898242507233 46.2713445152623 74.2864061866059 46.0716746773106 73.9463931594147 45.8540223564488 C 73.606194642569 45.6365550484044 73.3431202445282 45.3853457893712 73.1573549781098 45.1005795921666 C 72.9714046988739 44.8158143486363 72.8785220656647 44.4678290809971 72.8785220656647 44.0564387764317 C 72.8785220656647 43.2418168510777 73.1731134925141 42.6168521370274 73.7624818358673 42.1817325081212 C 74.3516651664032 41.746796938358 75.1762987647309 41.5291446174962 76.2363831076874 41.5291446174962 C 76.7109924826874 41.5291446174962 77.1954280410065 41.5608466591221 77.6898743186249 41.6240657295567 C 78.1841360602631 41.687470766483 78.6646772895111 41.7764600242955 79.1314999137177 41.8910335029942 C 79.5981375251068 42.0057929481846 80.0332581076874 42.1383498634678 80.4366756949677 42.2885192360264 C 80.4366756949677 42.2885192360264 80.4366756949677 40.1409114326817 80.4366756949677 40.1409114326817 C 80.2705627951874 40.1014235939366 79.9956232581391 40.0281928505284 79.61204209664 39.9214042152745 C 79.2282759223236 39.8146174873692 78.7438408408417 39.7196963753087 78.1585508857025 39.6366389717442 C 77.573075917746 39.5535834755284 76.9403254065766 39.5120547737462 76.2601138625397 39.5120547737462 C 75.3661424193634 39.5120547737462 74.5613457236542 39.6208804573399 73.8455387625946 39.8383487190587 C 73.1295458350434 40.0560019935948 72.5225650344147 40.366350504337 72.024225142981 40.7697690452916 C 71.5258854899658 41.1731875862462 71.1421191964401 41.6637404884678 70.8732974801316 42.2410586799962 C 70.6042903933777 42.8185618843419 70.4698795352234 43.4631770576817 70.4698795352234 44.1750911201817 C 70.4698795352234 44.6181834663731 70.5173404488816 45.0393994774205 70.6122623954071 45.4387391533238 C 70.7071842227234 45.8382638420445 70.9029605660691 46.2377885307652 71.1995914254441 46.6371272529942 C 71.4962224040283 47.0366519417149 71.8599659476532 47.3807443107945 72.2911929164185 47.6694024528843 C 72.7222346339478 47.9582475151402 73.1493829760803 48.1935122932774 73.5726381812348 48.3753846611363 C 73.9957081351532 48.5574410881382 74.4447328124298 48.7313412155491 74.9193421874298 48.8974545921666 C 75.4176823172821 49.0872982467991 75.9733087096466 49.3029120888096 76.5864078078522 49.5441096748692 C 77.1993209395661 49.7854932274205 77.7234312567963 50.1097477402073 78.1585508857025 50.5170591797215 C 78.5934864554657 50.924555632053 78.8111387763275 51.4603451217991 78.8111387763275 52.1247981514317 C 78.8111387763275 52.5204294647557 78.7340151343598 52.9357129062993 78.5797668967499 53.3706477608067 C 78.42551865914 53.8057683433873 78.0615898642792 54.1715510811192 77.4881655249848 54.4681819404942 C 76.9145556960358 54.7648129190785 76.1136523757233 54.9131282295567 75.0854555640473 54.9131282295567 C 74.5791436705841 54.9131282295567 74.0333429847016 54.8656673158986 73.4480535063996 54.7707454885823 C 72.8625780616059 54.6758235420567 72.3149234328522 54.5453060592991 71.8047184024109 54.3791926826817 C 71.2945132527603 54.2130795444829 70.9246517691864 54.0706966842991 70.6953189645066 53.9520443405491 C 70.6953189645066 53.9520443405491 70.0071354184403 55.9098079528195 70.0071354184403 55.9098079528195 C 70.1732486758484 55.9889713253361 70.4144466195359 56.0898257817608 70.7309147391571 56.2123714115006 C 71.0471973691239 56.3351024116856 71.4348567996277 56.4537547703368 71.8937076602234 56.5683284278494 C 72.3523730311646 56.683087489335 72.8725894961609 56.7819026436192 73.4539858374848 56.8649592723233 C 74.0353824172272 56.9480159308297 74.6779591117157 56.9895442451817 75.3820864234223 56.9895442451817 C 76.3313051734223 56.9895442451817 77.1776300940766 56.8827571298462 77.9212461982025 56.6691829178018 Z M 86.8557659659638 61.605120035587 C 86.8557659659638 61.605120035587 86.8557659659638 55.9454036678654 86.8557659659638 55.9454036678654 C 87.2195087943329 56.2461131538731 87.6546284232392 56.4852717842442 88.1609417472138 56.6632502998692 C 88.6670681510224 56.8412288154942 89.2683006797089 56.9302180733067 89.9644562278046 56.9302180733067 C 90.8187519583954 56.9302180733067 91.5760876212372 56.7837565864903 92.2366482291474 56.4912044133526 C 92.8970219168915 56.198652240215 93.4507957968964 55.7733577217442 93.8977810416474 55.2156917776448 C 94.344581273581 54.6580258335454 94.6827408347382 53.9718814815861 94.9122578177704 53.1570735897404 C 95.1415916953339 52.3424509491307 95.2563511405243 51.416962953983 95.2563511405243 50.3806088890416 C 95.2563511405243 49.3761428322178 95.1198994193329 48.3853953804356 94.8469997916474 47.4083674873692 C 94.5741001639618 46.4315255607945 94.0618549857392 45.6445268120152 93.3104511771454 45.0471862282139 C 92.5588642630829 44.4500316109044 91.6137234244599 44.1513608421666 90.4746624503388 44.1513608421666 C 89.9683491263642 44.1513608421666 89.4759422812714 44.2245915855748 88.9974400077118 44.3708680595738 C 88.5187527213349 44.5173295463902 88.0856701407685 44.7546342338902 87.6981960807099 45.0827821220738 C 87.3105370078339 45.4111150230748 87.0100132498993 45.780976625858 86.7964397940888 46.1921809639317 C 86.7964397940888 46.1921809639317 86.7489773307099 44.4005311455113 86.7489773307099 44.4005311455113 L 84.4945837531342 44.4005311455113 L 84.4945837531342 61.605120035587 L 86.8557659659638 61.605120035587 Z M 88.030423787619 54.7114193167073 C 87.6032749686493 54.5058170284611 87.2117229972138 54.2249446834904 86.8557659659638 53.8689876522404 C 86.8557659659638 53.8689876522404 86.8557659659638 50.7128356422764 86.8557659659638 50.7128356422764 C 86.8557659659638 50.0483821358067 86.9210239920868 49.4354690040928 87.0515419516815 48.8737243141514 C 87.1820599112763 48.3121646370274 87.3737560782685 47.8295834984166 87.6270062003388 47.4261659111363 C 87.8800694022431 47.0227473701817 88.1924587760224 46.7083190407139 88.564359334494 46.4828799690587 C 88.9360748801483 46.2574399437291 89.3593288932099 46.1447204079014 89.8339382682099 46.1447204079014 C 90.3717686209931 46.1447204079014 90.8701073203339 46.2811702217442 91.3289581809296 46.5540708031041 C 91.7876240287079 46.8269713844639 92.1357952628388 47.2976878609044 92.3730999503388 47.9660333122593 C 92.6104046378388 48.6345656837803 92.7290569815888 49.4551204170567 92.7290569815888 50.428069921909 C 92.7290569815888 50.8789485420567 92.7012478385224 51.3101757492405 92.6459995780243 51.7213805641514 C 92.5905663047089 52.1327703918797 92.5075108084931 52.5163510765416 92.3968292746796 52.8723081077916 C 92.2939354453339 53.196748110233 92.1396862540497 53.5248959984166 91.9340855155243 53.8571225132329 C 91.7282978568329 54.1893490280491 91.4099766288056 54.4663279976231 90.9789349112763 54.6876889194829 C 90.547706273581 54.9092349733693 90.047513631369 55.0199154342991 89.4779812369599 55.0199154342991 C 88.9399677787079 55.0199154342991 88.4575726065888 54.9172069753987 88.030423787619 54.7114193167073 Z M 102.986541417624 56.758172171889 C 103.473018315817 56.6435985069257 103.900165227438 56.4893504704815 104.267985967184 56.2954280402047 C 104.635810521628 56.1016910399777 104.938373235251 55.8860774959904 105.175677922751 55.6487728084904 C 105.175677922751 55.6487728084904 105.22314038613 56.6929133858067 105.22314038613 56.6929133858067 L 107.45380368569 56.6929133858067 C 107.45380368569 56.6929133858067 107.45380368569 48.2330010856968 107.45380368569 48.2330010856968 C 107.45380368569 47.5210879768712 107.360736516501 46.908173891483 107.174968389059 46.3938907112462 C 106.989017156149 45.8797915901524 106.702212956931 45.4565366234166 106.314738896872 45.1243098701817 C 105.927081731345 44.7920840706212 105.434672978903 44.5469926323277 104.837520268942 44.3886655296666 C 104.240176824118 44.2305243934971 103.534198430563 44.1513608421666 102.719573644186 44.1513608421666 C 102.30818524697 44.1513608421666 101.869170812155 44.1732371773106 101.40253415444 44.2166198219639 C 100.935710576559 44.2601874794346 100.55212941506 44.3096879448277 100.251605657126 44.3649352516514 C 99.9508968863739 44.4203685249669 99.4684998069062 44.535127016483 98.8040463004364 44.7090266670567 C 98.8040463004364 44.7090266670567 98.8040463004364 46.6311953987462 98.8040463004364 46.6311953987462 C 99.3181454215302 46.4493230308873 99.8559738669647 46.2911818947178 100.417718556906 46.1565860237462 C 100.97927823403 46.0221751655919 101.592376378561 45.9548762764317 102.25683179238 45.9548762764317 C 102.786685613181 45.9548762764317 103.28502621987 46.0162423576695 103.751849797751 46.1387875999791 C 104.218486455466 46.2615188087803 104.564616826559 46.4908517326695 104.790057805563 46.8269713844639 C 105.015498784567 47.1632770027501 105.128215459372 47.6397393669468 105.128215459372 48.2567323173863 C 105.128215459372 48.2567323173863 105.128215459372 48.9211853470189 105.128215459372 48.9211853470189 C 105.088542607809 48.9211853470189 105.007526067282 48.9232243027073 104.884978917624 48.9271176781041 C 104.762248662497 48.9311965431553 104.633769658591 48.9330504860264 104.499358800436 48.9330504860264 C 104.364764836813 48.9330504860264 104.236285832907 48.9350899185521 104.113738683249 48.9389828171116 C 103.991008428122 48.9430616821629 103.913882878806 48.944915625034 103.882365849997 48.944915625034 C 103.162479070212 48.9608596290928 102.511932042624 49.0122135605198 101.930537847067 49.0991633858067 C 101.349139836813 49.1862987007481 100.825030950095 49.3207095589024 100.358392385031 49.5025814499241 C 99.5278259787812 49.834808203159 98.8989693198456 50.3034847702366 98.4718205008759 50.9086116279942 C 98.0446716819062 51.5137389625889 97.8310982260956 52.2831247772557 97.8310982260956 53.2163997616154 C 97.8310982260956 53.8888247932774 97.9319530997528 54.4603954281193 98.1336609397187 54.9309261764866 C 98.3353706870331 55.4016421760899 98.6082703147187 55.7852229799611 98.9523617301239 56.0818538393361 C 99.2964550528778 56.3784846987111 99.6998726401581 56.5940982352478 100.162616399313 56.7285090859515 C 100.625360158469 56.8629199441058 101.113689092184 56.9302180733067 101.627971318747 56.9302180733067 C 102.04714932778 56.9302180733067 102.500068334128 56.8727458443028 102.986541417624 56.758172171889 Z M 101.188958791281 54.9131282295567 C 100.856732991721 54.7787174906117 100.607562688376 54.5473452534062 100.441449788596 54.2190121139866 C 100.275336888815 53.890864225803 100.192279485251 53.5248959984166 100.192279485251 53.1214779342991 C 100.192279485251 52.662812563358 100.275336888815 52.2751530136448 100.441449788596 51.9586852516514 C 100.607562688376 51.6424025024754 100.858586934592 51.3852604355198 101.194892552878 51.1874450172764 C 101.531009343649 50.9898146118504 101.95222821572 50.8492854561192 102.458537724997 50.7662290062291 C 102.964664128806 50.6831725563389 103.56200757363 50.6416438545567 104.25019040444 50.6416438545567 C 104.25019040444 50.6416438545567 105.128215459372 50.6416438545567 105.128215459372 50.6416438545567 C 105.128215459372 50.6416438545567 105.128215459372 53.9757748569829 105.128215459372 53.9757748569829 C 104.98583569863 54.1261294807774 104.791911748434 54.2863102878911 104.546821263815 54.4563168014866 C 104.30154385903 54.6265088047368 103.967277196433 54.7787174906117 103.544208196188 54.9131282295567 C 103.120952275778 55.0477245773655 102.699737218405 55.1148372616154 102.280559209372 55.1148372616154 C 101.884929326559 55.1148372616154 101.52118649819 55.0477245773655 101.188958791281 54.9131282295567 Z M 113.73050656655 56.6929133858067 C 113.73050656655 56.6929133858067 113.73050656655 50.0365169967991 113.73050656655 50.0365169967991 C 113.73050656655 49.656829687534 113.801696446921 49.2613833870274 113.94408002236 48.8499935592991 C 114.0864635978 48.4387887443882 114.303928044821 48.062995287357 114.596667912985 47.7227967705113 C 114.889220860983 47.382783266483 115.253146794821 47.1039508308751 115.688270238425 46.8862975563389 C 116.123202947165 46.6688302482945 116.637488988425 46.5600036110264 117.230750707175 46.5600036110264 C 117.602466252829 46.5600036110264 117.8833385978 46.5837338890416 118.073180821921 46.6311953987462 C 118.073180821921 46.6311953987462 118.073180821921 44.4005311455113 118.073180821921 44.4005311455113 C 117.85960736611 44.3530696358067 117.551112798239 44.3293393577916 117.14769330361 44.3293393577916 C 116.752063420798 44.3293393577916 116.34085812905 44.4025701011998 115.913707402731 44.5488465751988 C 115.48656049111 44.6953080620152 115.075168279196 44.9543040718419 114.67972531655 45.3260196174962 C 114.28409161904 45.6979201759678 113.947971013571 46.164557787357 113.671180394675 46.7261165108067 C 113.671180394675 46.7261165108067 113.623717931296 44.4005311455113 113.623717931296 44.4005311455113 L 111.369323400046 44.4005311455113 L 111.369323400046 56.6929133858067 L 113.73050656655 56.6929133858067 Z M 122.74808469155 56.6929133858067 C 122.74808469155 56.6929133858067 122.74808469155 50.6416438545567 122.74808469155 50.6416438545567 C 123.230479863669 51.1162532295567 123.758483556296 51.673919531284 124.332091954733 52.3146418060643 C 124.905517247702 52.9553645576817 125.498778966452 53.6672786201817 126.111877110983 54.4503842319829 C 126.724792150046 55.2334896053654 127.280604985739 55.9809993233067 127.778941777731 56.6929133858067 C 127.778941777731 56.6929133858067 130.733386662985 56.6929133858067 130.733386662985 56.6929133858067 C 130.329967168356 56.0759212102276 129.900779393698 55.4491032089573 129.446010259177 54.8122738327366 C 128.991050389792 54.1756299461705 128.520518926169 53.5545590843541 128.034045842673 52.9494319881779 C 127.547572759177 52.3443048920018 127.04719128945 51.7649482216221 126.533092168356 51.2111752952916 C 126.018809941794 50.6575878586155 125.508605626608 50.1592482056004 125.0024792228 49.716155859409 C 125.0024792228 49.716155859409 130.175719884421 44.4005311455113 130.175719884421 44.4005311455113 L 127.339931157614 44.4005311455113 L 122.74808469155 49.1584895576817 L 122.74808469155 38.8357356514317 L 120.386901525046 38.8357356514317 L 120.386901525046 56.6929133858067 L 122.74808469155 56.6929133858067 Z M 137.027896550681 56.758172171889 C 137.514369634177 56.6435985069257 137.941516545798 56.4893504704815 138.309337285544 56.2954280402047 C 138.67715802529 56.1016910399777 138.97972455361 55.8860774959904 139.21702924111 55.6487728084904 C 139.21702924111 55.6487728084904 139.264491704489 56.6929133858067 139.264491704489 56.6929133858067 L 141.495151189352 56.6929133858067 C 141.495151189352 56.6929133858067 141.495151189352 48.2330010856968 141.495151189352 48.2330010856968 C 141.495151189352 47.5210879768712 141.40208783486 46.908173891483 141.216319707419 46.3938907112462 C 141.030368474509 45.8797915901524 140.74356427529 45.4565366234166 140.356090215231 45.1243098701817 C 139.968433049704 44.7920840706212 139.476024297263 44.5469926323277 138.878871587302 44.3886655296666 C 138.281528142477 44.2305243934971 137.575549748923 44.1513608421666 136.760928777243 44.1513608421666 C 136.349536565329 44.1513608421666 135.910525945212 44.1732371773106 135.443881658102 44.2166198219639 C 134.977061894919 44.2601874794346 134.593478826071 44.3096879448277 134.292956975485 44.3649352516514 C 133.992244390036 44.4203685249669 133.509853032614 44.535127016483 132.845397618796 44.7090266670567 C 132.845397618796 44.7090266670567 132.845397618796 46.6311953987462 132.845397618796 46.6311953987462 C 133.359500554587 46.4493230308873 133.897327092673 46.2911818947178 134.459071782614 46.1565860237462 C 135.020633367087 46.0221751655919 135.633731511618 45.9548762764317 136.298183110739 45.9548762764317 C 136.82803693154 45.9548762764317 137.326381352927 46.0162423576695 137.79320111611 46.1387875999791 C 138.259837773825 46.2615188087803 138.605968144919 46.4908517326695 138.831409123923 46.8269713844639 C 139.056850102927 47.1632770027501 139.169566777731 47.6397393669468 139.169566777731 48.2567323173863 C 139.169566777731 48.2567323173863 139.169566777731 48.9211853470189 139.169566777731 48.9211853470189 C 139.129893926169 48.9211853470189 139.048877385642 48.9232243027073 138.926334050681 48.9271176781041 C 138.803599980856 48.9311965431553 138.67512097695 48.9330504860264 138.540713933493 48.9330504860264 C 138.406116155173 48.9330504860264 138.277637151267 48.9350899185521 138.155093816306 48.9389828171116 C 138.032359746481 48.9430616821629 137.955234197165 48.944915625034 137.923717168356 48.944915625034 C 137.203830388571 48.9608596290928 136.553287175681 49.0122135605198 135.971889165427 49.0991633858067 C 135.390491155173 49.1862987007481 134.866382268454 49.3207095589024 134.399745610739 49.5025814499241 C 133.569179204489 49.834808203159 132.940318730856 50.3034847702366 132.513171819235 50.9086116279942 C 132.086024907614 51.5137389625889 131.872447637106 52.2831247772557 131.872447637106 53.2163997616154 C 131.872447637106 53.8888247932774 131.973304418112 54.4603954281193 132.175014165427 54.9309261764866 C 132.376720098044 55.4016421760899 132.649623540427 55.7852229799611 132.993713048483 56.0818538393361 C 133.33780255654 56.3784846987111 133.741222051169 56.5940982352478 134.203967717673 56.7285090859515 C 134.666713384177 56.8629199441058 135.155040410544 56.9302180733067 135.669322637106 56.9302180733067 C 136.088504460837 56.9302180733067 136.54141583779 56.8727458443028 137.027896550681 56.758172171889 Z M 135.230312016989 54.9131282295567 C 134.898082402731 54.7787174906117 134.648914006735 54.5473452534062 134.482799199606 54.2190121139866 C 134.316684392477 53.890864225803 134.23363080361 53.5248959984166 134.23363080361 53.1214779342991 C 134.23363080361 52.662812563358 134.316684392477 52.2751530136448 134.482799199606 51.9586852516514 C 134.648914006735 51.6424025024754 134.899936345602 51.3852604355198 135.23624005654 51.1874450172764 C 135.572360662009 50.9898146118504 135.993579534079 50.8492854561192 136.499889043356 50.7662290062291 C 137.006015447165 50.6831725563389 137.603358891989 50.6416438545567 138.291537908102 50.6416438545567 C 138.291537908102 50.6416438545567 139.169566777731 50.6416438545567 139.169566777731 50.6416438545567 C 139.169566777731 50.6416438545567 139.169566777731 53.9757748569829 139.169566777731 53.9757748569829 C 139.027187016989 54.1261294807774 138.833263066794 54.2863102878911 138.588168767477 54.4563168014866 C 138.342891362692 54.6265088047368 138.008632329489 54.7787174906117 137.585559514548 54.9131282295567 C 137.162303594138 55.0477245773655 136.741092351462 55.1148372616154 136.321910527731 55.1148372616154 C 135.926280644919 55.1148372616154 135.562534001852 55.0477245773655 135.230312016989 54.9131282295567 Z M 150.886478093649 56.7047786198092 C 151.499393132712 56.5546092565638 152.023502019431 56.3250911261422 152.458621648337 56.0165950383526 C 152.893558171774 55.7080989803654 153.229861882712 55.3206249203068 153.467166570212 54.8538020576817 C 153.704471257712 54.3871646847111 153.823123601462 53.8413639988286 153.823123601462 53.2163997616154 C 153.823123601462 52.6468685592991 153.710406926657 52.1209052528721 153.484965947653 51.6383236374241 C 153.259524968649 51.1559279884678 152.875758794333 50.7525099243504 152.334041265036 50.428069921909 C 151.792133000876 50.1038154091221 151.046664861227 49.7953189339024 150.097446111227 49.5025814499241 C 149.638591435934 49.360198828159 149.225345281149 49.2278274025303 148.857524541403 49.1050961937291 C 148.489703801657 48.9825504745823 148.179172185446 48.8499935592991 147.926105168845 48.707610937534 C 147.672855046774 48.5652278389317 147.477077153708 48.4031938042027 147.33877911904 48.2211364235264 C 147.200290349509 48.0392640556675 147.131137517477 47.8177178825718 147.131137517477 47.5566829170567 C 147.131137517477 47.0425847496373 147.324870732809 46.6590045418126 147.712527898337 46.4057553734166 C 148.100001958395 46.1526921715123 148.701236394431 46.0260680641514 149.516048100974 46.0260680641514 C 150.204227117087 46.0260680641514 150.834941533591 46.0755685295445 151.408549932028 46.1743834938389 C 151.981975224997 46.2733844246251 152.525737432028 46.4098342384678 153.040019658591 46.5837338890416 C 153.040019658591 46.5837338890416 153.040019658591 44.6378358330113 153.040019658591 44.6378358330113 C 152.589145329977 44.503424974857 152.067073491599 44.3886655296666 151.473811772849 44.2937434639317 C 150.880550054099 44.1988223518712 150.180499700095 44.1513608421666 149.373660710837 44.1513608421666 C 148.693263677145 44.1513608421666 148.072383550192 44.2305243934971 147.51082196572 44.3886655296666 C 146.949077275778 44.5469926323277 146.470576909567 44.7763255562169 146.075130132224 45.0768493141514 C 145.679500249411 45.3775590385777 145.37304272988 45.7531674827916 145.155574468161 46.2040465797764 C 144.937923100974 46.6549256767613 144.829280522849 47.1692088569981 144.829280522849 47.7465270485264 C 144.829280522849 48.2845414604527 144.916232732321 48.7393134559971 145.090312627341 49.1110290016514 C 145.264217046286 49.4829295601231 145.507449773337 49.7992123092991 145.820026067282 50.0602477516514 C 146.132419255759 50.3212827171666 146.500239995505 50.5428288902623 146.923495915915 50.724700781284 C 147.346561101462 50.9067576851231 147.807452825095 51.080657812534 148.305789617087 51.2467711891514 C 148.724971440817 51.3971255745274 149.183818486716 51.5513738121373 149.682162908102 51.7095149483067 C 150.180499700095 51.8678420509678 150.59374585488 52.0754836525303 150.922076848532 52.3324397529942 C 151.250224736716 52.5895818199498 151.414485600974 52.9316342796666 151.414485600974 53.3587826217991 C 151.414485600974 53.6198178257329 151.349223760153 53.8849316562993 151.218707707907 54.1537533726079 C 151.088191655661 54.4227603401524 150.811214116599 54.6383739437443 150.388141301657 54.8004085745198 C 149.964885381247 54.9626285757405 149.397395757224 55.0436458315236 148.685481694724 55.0436458315236 C 148.242389348532 55.0436458315236 147.801517156149 55.012128802715 147.362506536032 54.9487240042073 C 146.923495915915 54.8855045761448 146.537875798727 54.8044872011525 146.20564618447 54.7054867472035 C 145.873416570212 54.6066714252812 145.501521733786 54.474114509998 145.090312627341 54.3080013717991 C 145.090312627341 54.3080013717991 144.461459783102 56.0877864684445 144.461459783102 56.0877864684445 C 144.627566960837 56.1669497813565 144.845035222556 56.2538997258526 145.114047673727 56.3488216127736 C 145.382869390036 56.4437434698922 145.701373723532 56.5347720708233 146.069194463278 56.6217219855172 C 146.437015203024 56.708671900211 146.852298406149 56.7819026436192 147.315044072653 56.8412288154942 C 147.777789739157 56.9005549873692 148.285953191306 56.9302180733067 148.839725163962 56.9302180733067 C 149.591128972556 56.9302180733067 150.273379949118 56.8549479867798 150.886478093649 56.7047786198092 Z M 162.28897443154 56.7047786198092 C 162.901889470602 56.5546092565638 163.425998357321 56.3250911261422 163.861117986227 56.0165950383526 C 164.296054509665 55.7080989803654 164.632358220602 55.3206249203068 164.869662908102 54.8538020576817 C 165.106967595602 54.3871646847111 165.225619939352 53.8413639988286 165.225619939352 53.2163997616154 C 165.225619939352 52.6468685592991 165.112903264548 52.1209052528721 164.887462285544 51.6383236374241 C 164.66202130654 51.1559279884678 164.278255132224 50.7525099243504 163.736537602927 50.428069921909 C 163.194629338767 50.1038154091221 162.449161199118 49.7953189339024 161.499942449118 49.5025814499241 C 161.041087773825 49.360198828159 160.62784161904 49.2278274025303 160.260020879294 49.1050961937291 C 159.892200139548 48.9825504745823 159.581668523337 48.8499935592991 159.328601506735 48.707610937534 C 159.075351384665 48.5652278389317 158.879573491599 48.4031938042027 158.741275456931 48.2211364235264 C 158.602786687399 48.0392640556675 158.533633855368 47.8177178825718 158.533633855368 47.5566829170567 C 158.533633855368 47.0425847496373 158.7273670707 46.6590045418126 159.115024236227 46.4057553734166 C 159.502498296286 46.1526921715123 160.103732732321 46.0260680641514 160.918544438864 46.0260680641514 C 161.606723454977 46.0260680641514 162.237437871481 46.0755685295445 162.811046269919 46.1743834938389 C 163.384471562888 46.2733844246251 163.928233769919 46.4098342384678 164.442515996481 46.5837338890416 C 164.442515996481 46.5837338890416 164.442515996481 44.6378358330113 164.442515996481 44.6378358330113 C 163.991641667868 44.503424974857 163.469569829489 44.3886655296666 162.876308110739 44.2937434639317 C 162.283046391989 44.1988223518712 161.582996037985 44.1513608421666 160.776157048727 44.1513608421666 C 160.095760015036 44.1513608421666 159.474879888083 44.2305243934971 158.91331830361 44.3886655296666 C 158.351573613669 44.5469926323277 157.873073247458 44.7763255562169 157.477626470114 45.0768493141514 C 157.081996587302 45.3775590385777 156.77553906777 45.7531674827916 156.558070806052 46.2040465797764 C 156.340419438864 46.6549256767613 156.231776860739 47.1692088569981 156.231776860739 47.7465270485264 C 156.231776860739 48.2845414604527 156.318729070212 48.7393134559971 156.492808965231 49.1110290016514 C 156.666713384177 49.4829295601231 156.909946111227 49.7992123092991 157.222522405173 50.0602477516514 C 157.534915593649 50.3212827171666 157.902736333395 50.5428288902623 158.325992253806 50.724700781284 C 158.749057439352 50.9067576851231 159.209949162985 51.080657812534 159.708285954977 51.2467711891514 C 160.127467778708 51.3971255745274 160.586314824606 51.5513738121373 161.084659245993 51.7095149483067 C 161.582996037985 51.8678420509678 161.99624219277 52.0754836525303 162.324573186423 52.3324397529942 C 162.652721074606 52.5895818199498 162.816981938864 52.9316342796666 162.816981938864 53.3587826217991 C 162.816981938864 53.6198178257329 162.751720098044 53.8849316562993 162.621204045798 54.1537533726079 C 162.490687993552 54.4227603401524 162.213710454489 54.6383739437443 161.790637639548 54.8004085745198 C 161.367381719138 54.9626285757405 160.799892095114 55.0436458315236 160.087978032614 55.0436458315236 C 159.644885686423 55.0436458315236 159.20401349404 55.012128802715 158.765002873923 54.9487240042073 C 158.325992253806 54.8855045761448 157.940372136618 54.8044872011525 157.60814252236 54.7054867472035 C 157.275912908102 54.6066714252812 156.904018071677 54.474114509998 156.492808965231 54.3080013717991 C 156.492808965231 54.3080013717991 155.863956120993 56.0877864684445 155.863956120993 56.0877864684445 C 156.030063298727 56.1669497813565 156.247531560446 56.2538997258526 156.516544011618 56.3488216127736 C 156.785365727927 56.4437434698922 157.103870061423 56.5347720708233 157.471690801169 56.6217219855172 C 157.839511540915 56.708671900211 158.25479474404 56.7819026436192 158.717540410544 56.8412288154942 C 159.180286077048 56.9005549873692 159.688449529196 56.9302180733067 160.242221501852 56.9302180733067 C 160.993625310446 56.9302180733067 161.675876287009 56.8549479867798 162.28897443154 56.7047786198092 Z M 175.803477910544 56.876824515639 C 176.400630620505 56.8015544365627 176.956256536032 56.6851268259344 177.470538762595 56.5268001134974 C 177.470538762595 56.5268001134974 177.007800725485 54.7232845749241 177.007800725485 54.7232845749241 C 176.620135930563 54.83415028709 176.16926160195 54.9270328010899 175.655162480856 55.0021174873692 C 175.140880254294 55.077387663303 174.611018804099 55.1148372616154 174.065219548727 55.1148372616154 C 172.886485723044 55.1148372616154 171.996593144919 54.7846500601155 171.395541814352 54.1240902866704 C 170.794307378317 53.4637158836705 170.446323064352 52.5124577011448 170.351398137595 51.2705014671666 C 170.351398137595 51.2705014671666 178.194324162985 51.2705014671666 178.194324162985 51.2705014671666 C 178.225833562399 50.8592971290928 178.24177899697 50.3806088890416 178.24177899697 49.834808203159 C 178.24177899697 47.9918034996373 177.826495793845 46.5759471382481 176.995929387595 45.5870545830113 C 176.165362981345 44.5983470405919 174.93138470986 44.1039002861363 173.293979314352 44.1039002861363 C 172.415950444724 44.1039002861363 171.636737493063 44.2601874794346 170.956531194235 44.5725768532139 C 170.276134160544 44.8851512398106 169.706599858786 45.3260196174962 169.247935918356 45.8955501045567 C 168.789081243063 46.4650815452916 168.441096929099 47.1473325218541 168.203792241599 47.9423030342442 C 167.966487554099 48.7372740234715 167.847835210349 49.6134475197178 167.847835210349 50.5704525436741 C 167.847835210349 51.5513738121373 167.978351262595 52.4373730148655 168.239390996481 53.2282651390416 C 168.500423100974 54.0193425144536 168.881969121481 54.6936214889866 169.384387639548 55.2512874330861 C 169.886615422751 55.8089534367901 170.501567510153 56.2381412114483 171.229427007224 56.5386653419119 C 171.957103398825 56.8391894723755 172.787669805075 56.9895442451817 173.721126225974 56.9895442451817 C 174.512019780661 56.9895442451817 175.20613446572 56.9519091870171 175.803477910544 56.876824515639 Z M 171.13450970986 46.8210385765416 C 171.616901067282 46.164557787357 172.316951421286 45.8362239326817 173.234653142477 45.8362239326817 C 174.104709294821 45.8362239326817 174.743388799216 46.1132033790928 175.150890019919 46.6667903389317 C 175.558200505759 47.2205632652623 175.76195111611 48.003669115482 175.76195111611 49.0161069359166 C 175.76195111611 49.0161069359166 175.76195111611 49.5737727608067 175.76195111611 49.5737727608067 C 175.76195111611 49.5737727608067 170.30394330361 49.5737727608067 170.30394330361 49.5737727608067 C 170.375133183981 48.3952210869175 170.651927617575 47.4777053322178 171.13450970986 46.8210385765416 Z " stroke="none" fill="#FFFFFF"/>
  </g>
</svg>