<svg width="45" height="41" viewBox="0 0 45 41" fill="none" xmlns="http://www.w3.org/2000/svg">
    <path d="M31.2875 9.13937H28.3359C28.3359 5.70967 25.522 2.92304 22.0587 2.92304C18.5955 2.92304 15.8012 5.70967 15.8012 9.13937H12.8496C12.8496 4.09226 16.9819 0 22.0587 0C27.1355 0 31.2875 4.09226 31.2875 9.13937Z" fill="currentColor" />
    <path d="M23.5342 13.9999H20.5825V26.1905H23.5342V13.9999Z" fill="#0071F9" />
    <path d="M40.4767 19.5844H34.2192V16.6613H39.4338L41.3425 11.4973L44.1171 12.5106L41.8541 18.6295C41.6377 19.1947 41.0867 19.5844 40.4767 19.5844Z" fill="currentColor" />
    <path d="M40.3391 35.8952L38.4304 30.7311H33.2158V27.8081H39.4733C40.0833 27.8081 40.6539 28.1978 40.8507 28.763L43.1136 34.8819L40.3391 35.8952Z" fill="currentColor" />
    <path d="M9.89782 19.5841H3.66003C3.05002 19.5841 2.49905 19.1944 2.2826 18.6293L0 12.5104L2.77454 11.4971L4.68326 16.6611H9.89782V19.5841Z" fill="currentColor" />
    <path d="M3.79749 35.8949L1.02295 34.8816L3.30555 28.7627C3.522 28.1976 4.07297 27.8079 4.68298 27.8079H10.9208V30.7309H5.70621L3.79749 35.8949Z" fill="currentColor" />
    <path d="M22.0584 40.3963C21.1336 40.3963 20.2087 40.2015 19.3429 39.7922C13.0461 36.8497 9.01221 30.419 9.01221 23.4037V13.4459C9.01221 12.6469 9.68124 11.9844 10.488 11.9844H33.6485C34.4553 11.9844 35.1243 12.6469 35.1243 13.4459V23.4037C35.1243 30.419 31.0904 36.8497 24.833 39.7727C23.9475 40.2015 23.003 40.3963 22.0584 40.3963ZM11.9442 14.9074V23.4037C11.9442 29.2888 15.309 34.6866 20.5433 37.142C21.5271 37.5902 22.5897 37.5902 23.5343 37.1615C28.7882 34.6867 32.1727 29.3083 32.1727 23.4037V14.9074H11.9442Z" fill="currentColor" />
</svg>
