<svg width="42" height="34" viewBox="0 0 42 34" fill="none" xmlns="http://www.w3.org/2000/svg">
    <path d="M29.8629 29.0919H27.0319V26.0234H29.8629C34.4435 26.0234 38.1789 22.3336 38.1789 17.8086C38.1789 13.2836 34.4435 9.59372 29.8629 9.59372C28.8995 9.59372 27.9166 9.7685 26.9926 10.1181C26.2455 10.39 25.4198 10.0598 25.0659 9.38009C23.0607 5.51542 19.1091 3.10728 14.725 3.10728C8.31599 3.10728 3.10621 8.25371 3.10621 14.5848C3.10621 20.2361 7.1954 24.9942 12.8377 25.9069L13.0539 25.9458C13.6044 26.0234 14.1745 26.0623 14.7447 26.0623V29.1307C14.0173 29.1307 13.3095 29.0725 12.6018 28.9754L12.3462 28.9365C5.19012 27.7325 0 21.6927 0 14.5459C0 6.52528 6.60561 0 14.725 0C19.8365 0 24.5155 2.58292 27.1892 6.81659C28.0738 6.60296 28.9585 6.48644 29.8629 6.48644C36.1736 6.48644 41.2851 11.5552 41.2851 17.7697C41.2851 23.9843 36.1736 29.0919 29.8629 29.0919Z" fill="currentColor"/>
    <path d="M22.1958 18.6047H19.0896V33.6556H22.1958V18.6047Z" fill="#0071F9"/>
    <path d="M24.8694 23.3628L20.6426 19.6146L16.4158 23.3628L14.3516 21.0906L19.6203 16.4296C20.2101 15.9053 21.0948 15.9053 21.6846 16.4296L26.9533 21.0906L24.8694 23.3628Z" fill="#0071F9"/>
</svg>
