<svg width="34" height="41" viewBox="0 0 34 41" fill="none" xmlns="http://www.w3.org/2000/svg">
    <path d="M16.7762 28.9429C13.3773 28.9429 10.6343 26.2246 10.6343 22.9V17.659C10.6343 14.3345 13.3971 11.6162 16.7762 11.6162C20.1552 11.6162 22.9181 14.3345 22.9181 17.659H19.9366C19.9366 15.9381 18.5254 14.5496 16.7762 14.5496C15.027 14.5496 13.6158 15.9381 13.6158 17.659V22.9C13.6158 24.621 15.027 26.0095 16.7762 26.0095C18.5254 26.0095 19.9366 24.621 19.9366 22.9H22.9181C22.938 26.2246 20.1751 28.9429 16.7762 28.9429Z" fill="#0071F9" />
    <path d="M16.8357 35.3182C12.2442 35.3182 8.10979 32.7368 6.20162 28.7278L8.90486 27.4762C10.336 30.4683 13.397 32.3848 16.7164 32.3848C21.5862 32.3848 25.4622 28.5713 25.4622 23.8975V16.6422C25.4622 11.9683 21.5862 8.15484 16.8357 8.15484C11.9659 8.15484 8.08991 11.9683 8.08991 16.6422V23.8975C8.08991 24.3668 8.12967 24.8361 8.20917 25.3055L5.26741 25.7944C5.16803 25.1686 5.1084 24.5232 5.1084 23.8975V16.6422C5.1084 10.3451 10.3161 5.22144 16.7164 5.22144C23.236 5.22144 28.4437 10.3451 28.4437 16.6422V23.8975C28.4437 30.1945 23.236 35.3182 16.8357 35.3182Z" fill="currentColor" />
    <path d="M33.5719 23.917H30.5903V15.8208C30.5903 8.70244 24.7068 2.93341 17.4916 2.93341H16.1002C8.86504 2.93341 2.98152 8.72199 2.98152 15.8208H0C0 7.09884 7.21527 0 16.0803 0H17.4717C26.3367 0 33.552 7.09884 33.552 15.8208V23.917H33.5719Z" fill="currentColor" />
    <path d="M17.4717 40.54H16.0803C7.21527 40.54 0 33.4411 0 24.7191V19.791H2.98152V24.7191C2.98152 31.8375 8.86504 37.6066 16.0803 37.6066H17.4717C23.0769 37.6066 28.066 34.0865 29.8748 28.8455C30.0537 28.2979 30.2127 27.7503 30.3319 27.1832L33.2538 27.7503C33.1147 28.4543 32.9159 29.1388 32.6973 29.8037C30.4711 36.2376 24.3689 40.54 17.4717 40.54Z" fill="currentColor" />
</svg>
