<svg width="48" height="50" viewBox="0 0 48 50" fill="none" xmlns="http://www.w3.org/2000/svg">
<path d="M23.4419 29.5814C20.2392 29.5814 14.8755 32.3754 14.5115 29.5814C14.3648 28.4132 16.7841 30.7946 17.0724 29.5814C18.1187 25.1776 21.3174 20.9928 21.4886 20.765L22.8716 18.9768L24.2788 20.765C24.45 20.9928 27.6488 25.1776 28.6951 29.5814C28.9833 30.7946 31.4025 28.4132 31.2558 29.5814C30.8919 32.3754 26.6688 29.5814 23.4419 29.5814ZM22.8959 24.6318C21.4886 26.9117 20.3115 28.172 20.6512 30.6977C20.8453 32.1729 22.3258 30.6977 23.4419 30.6977C24.5579 30.6977 25.3706 34.3102 25.5647 32.8349C25.9044 30.2868 24.2788 26.9117 22.8959 24.6318Z" fill="#0071F9"/>
<path d="M8.93588 29.0232H12.8539C12.6896 24.9161 14.848 20.9086 17.2645 16.8514C18.7191 14.412 20.0329 11.8482 20.4317 9.13509C23.2001 11.6491 26.7193 15.781 26.8131 20.5353L26.86 23.0244L29.1592 22.5515C30.0272 22.3772 31.3411 21.7798 32.3968 20.6597L32.6314 21.1327C33.8748 23.5222 34.2737 26.3349 33.9218 29.0232H37.8632C38.1916 25.638 37.6286 22.1283 36.0802 19.1165L35.8221 18.6186C35.5406 18.0213 35.2356 17.4239 34.8602 16.8514C34.4848 16.254 34.0625 15.6815 33.5933 15.1339L30.5434 11.4998L30.168 16.3535C30.168 16.4282 30.1445 16.5029 30.1445 16.5527C27.7985 8.5377 19.5637 3.21097 19.1648 2.96206L14.4961 0L16.3026 5.45118C17.2176 8.239 16.0211 11.1264 13.9565 14.6112C11.282 19.0667 8.79511 23.8209 8.93588 29.0232Z" fill="#0071F9"/>
<path d="M34.6244 49.1162H0V36.7595H34.6244V49.1162ZM3.5573 45.5311H31.0671V40.3446H3.5573V45.5311Z" fill="currentColor"/>
<path d="M47.9999 49.1162H31.0671V36.7595H47.9999V49.1162ZM34.6244 45.5311H44.4426V40.3446H34.6244V45.5311Z" fill="currentColor"/>
<path d="M48 40.3445H22.4348V27.9878H48V40.3445V40.3445ZM25.9921 36.7594H44.4427V31.5729H25.9921V36.7594Z" fill="currentColor"/>
<path d="M25.992 40.3445H0V27.9878H25.992V40.3445ZM3.5573 36.7594H22.4347V31.5729H3.5573V36.7594Z" fill="currentColor"/>
<path d="M17.0038 38.5518H13.4465V47.3233H17.0038V38.5518Z" fill="currentColor"/>
</svg>
