<svg width="264" height="55" viewBox="0 0 264 55" fill="none" xmlns="http://www.w3.org/2000/svg">
    <path d="M69.8426 51.5834C68.9047 51.5834 68.1102 51.3742 67.4198 50.9689C66.7425 50.5636 66.2605 49.9883 66 49.2823L67.4719 48.7855C67.6933 49.23 68.019 49.583 68.4358 49.8445C68.8526 50.106 69.3476 50.2367 69.8947 50.2367C70.4808 50.2367 70.9367 50.106 71.2884 49.8576C71.6401 49.6092 71.8095 49.2431 71.8095 48.7724C71.8095 48.5763 71.7573 48.3933 71.6662 48.2233C71.575 48.0533 71.4578 47.9226 71.3405 47.8049C71.2233 47.7003 71.0279 47.5827 70.7804 47.4781C70.5329 47.3735 70.3245 47.282 70.1552 47.2166C69.9859 47.1512 69.7514 47.0728 69.4258 46.9813C69.022 46.8505 68.7224 46.759 68.527 46.6806C68.3316 46.6152 68.0581 46.4844 67.7324 46.3145C67.4068 46.1445 67.1593 45.9745 66.99 45.8177C66.8206 45.6477 66.6773 45.4254 66.5471 45.1639C66.4168 44.8894 66.3517 44.5887 66.3517 44.2487C66.3517 43.5558 66.6513 42.9675 67.2505 42.4837C67.8496 42 68.6703 41.7646 69.6993 41.7646C70.559 41.7646 71.2754 41.9346 71.8225 42.2745C72.3826 42.6145 72.7473 43.0721 72.9427 43.6473L71.4968 44.0788C71.3536 43.7912 71.1191 43.5558 70.7935 43.3728C70.4678 43.1897 70.064 43.1113 69.569 43.1113C69.0741 43.1113 68.6703 43.2159 68.3837 43.412C68.0971 43.6081 67.9539 43.8957 67.9539 44.2487C67.9539 44.4972 68.0581 44.7063 68.2795 44.9025C68.5009 45.0986 68.7354 45.2293 68.9699 45.3208C69.2043 45.4124 69.5821 45.53 70.064 45.6869C70.3636 45.7915 70.585 45.8569 70.7283 45.9092C70.8716 45.9615 71.093 46.0399 71.3666 46.1576C71.6531 46.2752 71.8616 46.3798 72.0179 46.4714C72.1742 46.5629 72.3435 46.6936 72.5389 46.8636C72.7343 47.0336 72.8906 47.1904 72.9948 47.3604C73.099 47.5304 73.1902 47.7265 73.2683 47.9749C73.3465 48.2233 73.3856 48.4717 73.3856 48.7463C73.3856 49.6353 73.0469 50.3282 72.3826 50.8251C71.7183 51.3219 70.8977 51.5834 69.8426 51.5834Z" fill="white"/>
    <path d="M79.3381 51.5808C78.2699 51.5808 77.4103 51.2539 76.785 50.6133C76.1598 49.9727 75.8472 49.0705 75.8472 47.9461C75.8472 46.8218 76.1598 45.9327 76.798 45.279C77.4363 44.6384 78.283 44.3115 79.3381 44.3115C80.302 44.3115 81.0965 44.5861 81.7218 45.1352C82.347 45.6843 82.6596 46.4949 82.6596 47.5539C82.6596 47.9462 82.6336 48.2469 82.5945 48.4691H77.4233C77.4363 49.0182 77.6317 49.4758 78.0225 49.8158C78.4132 50.1557 78.8561 50.3387 79.3641 50.3387C80.0284 50.3387 80.5625 50.1034 80.9532 49.6327L81.9823 50.5871C81.344 51.2539 80.4713 51.5808 79.3381 51.5808ZM77.4103 47.3317H81.0835C81.0705 46.7303 80.9011 46.2857 80.5625 45.9981C80.2238 45.7105 79.82 45.5666 79.3381 45.5666C78.804 45.5666 78.3611 45.7105 78.0094 45.9981C77.6447 46.2727 77.4493 46.7303 77.4103 47.3317Z" fill="white"/>
    <path d="M88.1826 51.5808C87.1535 51.5808 86.3329 51.2539 85.7337 50.6133C85.1346 49.9727 84.835 49.0836 84.835 47.9461C84.835 46.8087 85.1346 45.9197 85.7337 45.279C86.3329 44.6253 87.1535 44.3115 88.1826 44.3115C89.6805 44.3115 90.6444 44.9129 91.0873 46.1027L89.6023 46.5603C89.3549 45.9589 88.899 45.6582 88.2477 45.6582C87.6615 45.6582 87.2187 45.8543 86.906 46.2596C86.5934 46.6649 86.4371 47.2271 86.4371 47.9331C86.4371 48.6391 86.5934 49.1882 86.906 49.5935C87.2187 49.9988 87.6485 50.1949 88.1956 50.1949C88.938 50.1949 89.42 49.855 89.6414 49.1751L91.1264 49.5935C90.7095 50.9271 89.7326 51.5808 88.1826 51.5808Z" fill="white"/>
    <path d="M98.278 51.4247V50.7579C97.796 51.307 97.1317 51.5816 96.2981 51.5816C94.4484 51.5816 93.5366 50.601 93.5366 48.6138V44.4692H95.0997V48.6138C95.0997 49.1629 95.243 49.5812 95.5165 49.8427C95.8031 50.1042 96.1678 50.248 96.6237 50.248C97.7309 50.248 98.278 49.712 98.278 48.6399V44.4692H99.841V51.4116H98.278V51.4247Z" fill="white"/>
    <path d="M102.85 51.4239V44.4815H104.413V45.3182C104.751 44.6515 105.324 44.3115 106.132 44.3115C106.627 44.3115 107.07 44.4553 107.422 44.7299L107.2 46.0373C106.822 45.8151 106.419 45.6974 105.976 45.6974C105.559 45.6974 105.194 45.8412 104.882 46.1288C104.569 46.4165 104.413 46.8741 104.413 47.5278V51.4239H102.85Z" fill="white"/>
    <path d="M110.964 43.1353C110.782 43.3053 110.561 43.3837 110.3 43.3837C110.04 43.3837 109.818 43.3053 109.636 43.1353C109.453 42.9654 109.362 42.7692 109.362 42.5339C109.362 42.2986 109.453 42.1025 109.636 41.9325C109.818 41.7625 110.04 41.6841 110.3 41.6841C110.561 41.6841 110.782 41.7625 110.964 41.9325C111.147 42.1025 111.238 42.2986 111.238 42.5339C111.238 42.7692 111.147 42.9784 110.964 43.1353ZM109.506 51.4244V44.482H111.069V51.4244H109.506Z" fill="white"/>
    <path d="M116.331 51.5816C115.185 51.5816 114.612 51.0063 114.612 49.8558V45.6982H113.427V44.4692H114.612V42.2858L116.175 41.606V44.4692H117.999V45.6982H116.175V49.4897C116.175 50.0127 116.423 50.2742 116.931 50.2742C117.295 50.2742 117.686 50.1696 118.077 49.9473L117.882 51.2678C117.413 51.477 116.892 51.5816 116.331 51.5816Z" fill="white"/>
    <path d="M121.489 54.0526L122.674 51.294L119.795 44.4692H121.345L123.234 49.006C123.325 49.2152 123.39 49.4244 123.443 49.6205C123.495 49.4244 123.56 49.2152 123.651 49.006L125.566 44.4692H127.129L123.065 54.0526H121.489Z" fill="white"/>
    <path d="M137.211 51.5812C136.273 51.5812 135.479 51.372 134.788 50.9667C134.111 50.5614 133.629 49.9861 133.369 49.2801L134.841 48.7833C135.062 49.2278 135.388 49.5808 135.804 49.8423C136.221 50.1038 136.716 50.2345 137.263 50.2345C137.849 50.2345 138.305 50.1038 138.657 49.8554C139.009 49.607 139.178 49.2409 139.178 48.7702C139.178 48.5741 139.126 48.3911 139.035 48.2211C138.944 48.0511 138.826 47.9204 138.709 47.8027C138.592 47.6981 138.397 47.5805 138.149 47.4759C137.902 47.3713 137.693 47.2798 137.524 47.2144C137.355 47.149 137.12 47.0706 136.794 46.9791C136.391 46.8483 136.091 46.7568 135.896 46.6784C135.7 46.613 135.427 46.4822 135.101 46.3123C134.775 46.1423 134.528 45.9723 134.359 45.8155C134.189 45.6455 134.046 45.4232 133.916 45.1617C133.785 44.8872 133.72 44.5865 133.72 44.2466C133.72 43.5536 134.02 42.9653 134.619 42.4815C135.218 41.9978 136.039 41.7625 137.068 41.7625C137.928 41.7625 138.644 41.9324 139.191 42.2723C139.751 42.6123 140.116 43.0699 140.311 43.6451L138.865 44.0766C138.722 43.789 138.488 43.5536 138.162 43.3706C137.836 43.1875 137.433 43.1091 136.938 43.1091C136.443 43.1091 136.039 43.2137 135.752 43.4098C135.466 43.6059 135.323 43.8935 135.323 44.2466C135.323 44.495 135.427 44.7041 135.648 44.9003C135.87 45.0964 136.104 45.2271 136.339 45.3186C136.573 45.4102 136.951 45.5278 137.433 45.6847C137.732 45.7893 137.954 45.8547 138.097 45.907C138.24 45.9593 138.462 46.0377 138.735 46.1554C139.022 46.2731 139.23 46.3776 139.387 46.4692C139.543 46.5607 139.712 46.6914 139.908 46.8614C140.103 47.0314 140.259 47.1882 140.363 47.3582C140.468 47.5282 140.559 47.7243 140.637 47.9727C140.715 48.2211 140.754 48.4695 140.754 48.7441C140.754 49.6331 140.416 50.3261 139.751 50.8229C139.087 51.3197 138.266 51.5812 137.211 51.5812Z" fill="white"/>
    <path d="M149.299 50.6133C148.674 51.2539 147.814 51.5808 146.733 51.5808C145.652 51.5808 144.792 51.2539 144.167 50.6133C143.542 49.9727 143.229 49.0836 143.229 47.9461C143.229 46.8087 143.542 45.9197 144.167 45.279C144.792 44.6253 145.652 44.3115 146.733 44.3115C147.814 44.3115 148.674 44.6384 149.299 45.279C149.937 45.9327 150.25 46.8218 150.25 47.9461C150.237 49.0836 149.924 49.9727 149.299 50.6133ZM146.72 50.2472C147.319 50.2472 147.801 50.038 148.153 49.6327C148.504 49.2274 148.674 48.6652 148.674 47.9461C148.674 47.2271 148.504 46.6649 148.153 46.2596C147.801 45.8543 147.319 45.6451 146.72 45.6451C146.134 45.6451 145.652 45.8543 145.313 46.2596C144.961 46.678 144.792 47.2401 144.792 47.9461C144.792 48.6522 144.961 49.2143 145.313 49.6196C145.665 50.025 146.134 50.2472 146.72 50.2472Z" fill="white"/>
    <path d="M152.945 51.4245V42.2857L154.508 41.6189V51.4245H152.945Z" fill="white"/>
    <path d="M162.272 51.4247V50.7579C161.79 51.307 161.126 51.5816 160.292 51.5816C158.443 51.5816 157.531 50.601 157.531 48.6138V44.4692H159.094V48.6138C159.094 49.1629 159.237 49.5812 159.511 49.8427C159.797 50.1042 160.162 50.248 160.618 50.248C161.725 50.248 162.272 49.712 162.272 48.6399V44.4692H163.835V51.4116H162.272V51.4247Z" fill="white"/>
    <path d="M169.072 51.5816C167.926 51.5816 167.353 51.0063 167.353 49.8558V45.6982H166.167V44.4692H167.353V42.2858L168.916 41.606V44.4692H170.74V45.6982H168.916V49.4897C168.916 50.0127 169.163 50.2742 169.671 50.2742C170.036 50.2742 170.427 50.1696 170.818 49.9473L170.622 51.2678C170.166 51.477 169.645 51.5816 169.072 51.5816Z" fill="white"/>
    <path d="M174.764 43.1353C174.582 43.3053 174.36 43.3837 174.1 43.3837C173.839 43.3837 173.618 43.3053 173.436 43.1353C173.253 42.9654 173.162 42.7692 173.162 42.5339C173.162 42.2986 173.253 42.1025 173.436 41.9325C173.618 41.7625 173.839 41.6841 174.1 41.6841C174.36 41.6841 174.582 41.7625 174.764 41.9325C174.947 42.1025 175.038 42.2986 175.038 42.5339C175.038 42.7692 174.947 42.9784 174.764 43.1353ZM173.318 51.4244V44.482H174.882V51.4244H173.318Z" fill="white"/>
    <path d="M183.595 50.6133C182.97 51.2539 182.11 51.5808 181.029 51.5808C179.948 51.5808 179.088 51.2539 178.463 50.6133C177.838 49.9727 177.525 49.0836 177.525 47.9461C177.525 46.8087 177.838 45.9197 178.463 45.279C179.088 44.6253 179.948 44.3115 181.029 44.3115C182.11 44.3115 182.97 44.6384 183.595 45.279C184.234 45.9327 184.546 46.8218 184.546 47.9461C184.546 49.0836 184.234 49.9727 183.595 50.6133ZM181.029 50.2472C181.628 50.2472 182.11 50.038 182.462 49.6327C182.814 49.2274 182.983 48.6652 182.983 47.9461C182.983 47.2271 182.814 46.6649 182.462 46.2596C182.11 45.8543 181.628 45.6451 181.029 45.6451C180.443 45.6451 179.961 45.8543 179.623 46.2596C179.271 46.678 179.102 47.2401 179.102 47.9461C179.102 48.6522 179.271 49.2143 179.623 49.6196C179.974 50.025 180.443 50.2472 181.029 50.2472Z" fill="white"/>
    <path d="M191.931 51.4247V47.2802C191.931 46.7311 191.788 46.3127 191.514 46.0512C191.228 45.7898 190.863 45.6459 190.407 45.6459C189.3 45.6459 188.753 46.182 188.753 47.2541V51.4247H187.19V44.4823H188.753V45.1491C189.235 44.6 189.899 44.3254 190.733 44.3254C192.583 44.3254 193.494 45.3191 193.494 47.2933V51.4378H191.931V51.4247Z" fill="white"/>
    <path d="M201.023 51.4246V41.9197H205.257C206.455 41.9197 207.328 42.1942 207.888 42.7564C208.448 43.3186 208.735 44.0116 208.735 44.8222C208.735 45.5805 208.448 46.2603 207.862 46.8487C207.276 47.437 206.416 47.7246 205.257 47.7246H202.6V51.4246H201.023ZM205.335 46.3649C205.934 46.3649 206.377 46.208 206.664 45.9073C206.95 45.6066 207.093 45.2405 207.093 44.8091C207.093 44.4038 206.95 44.0377 206.677 43.7239C206.403 43.4101 205.947 43.2532 205.335 43.2532H202.587V46.3518H205.335V46.3649Z" fill="white"/>
    <path d="M211.053 51.4239V44.4815H212.616V45.3182C212.955 44.6515 213.528 44.3115 214.336 44.3115C214.831 44.3115 215.274 44.4553 215.625 44.7299L215.404 46.0373C215.026 45.8151 214.622 45.6974 214.179 45.6974C213.763 45.6974 213.398 45.8412 213.085 46.1288C212.773 46.4165 212.616 46.8741 212.616 47.5278V51.4239H211.053Z" fill="white"/>
    <path d="M223.48 50.6133C222.855 51.2539 221.995 51.5808 220.914 51.5808C219.833 51.5808 218.973 51.2539 218.348 50.6133C217.723 49.9727 217.41 49.0836 217.41 47.9461C217.41 46.8087 217.723 45.9197 218.348 45.279C218.973 44.6253 219.833 44.3115 220.914 44.3115C221.995 44.3115 222.855 44.6384 223.48 45.279C224.118 45.9327 224.431 46.8218 224.431 47.9461C224.418 49.0836 224.105 49.9727 223.48 50.6133ZM220.901 50.2472C221.5 50.2472 221.982 50.038 222.334 49.6327C222.686 49.2274 222.855 48.6652 222.855 47.9461C222.855 47.2271 222.686 46.6649 222.334 46.2596C221.982 45.8543 221.5 45.6451 220.901 45.6451C220.315 45.6451 219.833 45.8543 219.494 46.2596C219.143 46.678 218.973 47.2401 218.973 47.9461C218.973 48.6522 219.143 49.2143 219.494 49.6196C219.846 50.025 220.315 50.2472 220.901 50.2472Z" fill="white"/>
    <path d="M229.12 51.4241L226.306 44.4817H227.869L229.641 49.0315C229.745 49.3322 229.823 49.5283 229.849 49.646C229.875 49.5414 229.953 49.3322 230.058 49.0315L231.816 44.4817H233.379L230.566 51.4241H229.12Z" fill="white"/>
    <path d="M237.105 43.1353C236.922 43.3053 236.701 43.3837 236.44 43.3837C236.18 43.3837 235.958 43.3053 235.776 43.1353C235.594 42.9654 235.502 42.7692 235.502 42.5339C235.502 42.2986 235.594 42.1025 235.776 41.9325C235.958 41.7625 236.18 41.6841 236.44 41.6841C236.701 41.6841 236.922 41.7625 237.105 41.9325C237.287 42.1025 237.378 42.2986 237.378 42.5339C237.391 42.7692 237.3 42.9784 237.105 43.1353ZM235.659 51.4244V44.482H237.222V51.4244H235.659Z" fill="white"/>
    <path d="M243.058 51.5814C242.081 51.5814 241.312 51.2546 240.739 50.614C240.166 49.9733 239.879 49.0712 239.879 47.9468C239.879 46.8224 240.179 45.9334 240.765 45.2927C241.351 44.639 242.12 44.3253 243.071 44.3253C243.826 44.3253 244.425 44.5475 244.894 44.979V42.2726L246.457 41.6189V51.4246H244.894V50.9408C244.451 51.3723 243.839 51.5814 243.058 51.5814ZM243.279 50.2479C243.982 50.2479 244.517 49.9864 244.868 49.4634V46.4041C244.725 46.1949 244.517 46.0118 244.243 45.868C243.969 45.7242 243.644 45.6458 243.266 45.6458C242.68 45.6458 242.224 45.8419 241.898 46.2472C241.573 46.6525 241.416 47.2147 241.416 47.9468C241.416 48.6397 241.586 49.1889 241.911 49.6203C242.263 50.0387 242.706 50.2479 243.279 50.2479Z" fill="white"/>
    <path d="M252.566 51.5808C251.498 51.5808 250.638 51.2539 250.013 50.6133C249.388 49.9727 249.075 49.0705 249.075 47.9461C249.075 46.8218 249.388 45.9327 250.026 45.279C250.664 44.6384 251.511 44.3115 252.566 44.3115C253.53 44.3115 254.325 44.5861 254.95 45.1352C255.575 45.6843 255.888 46.4949 255.888 47.5539C255.888 47.9462 255.862 48.2469 255.822 48.4691H250.651C250.664 49.0182 250.86 49.4758 251.25 49.8158C251.641 50.1557 252.084 50.3387 252.592 50.3387C253.256 50.3387 253.79 50.1034 254.181 49.6327L255.21 50.5871C254.572 51.2539 253.699 51.5808 252.566 51.5808ZM250.638 47.3317H254.312C254.298 46.7303 254.129 46.2857 253.79 45.9981C253.452 45.7105 253.048 45.5666 252.566 45.5666C252.032 45.5666 251.589 45.7105 251.237 45.9981C250.873 46.2727 250.677 46.7303 250.638 47.3317Z" fill="white"/>
    <path d="M258.428 51.4239V44.4815H259.991V45.3182C260.329 44.6515 260.903 44.3115 261.71 44.3115C262.205 44.3115 262.648 44.4553 263 44.7299L262.778 46.0373C262.401 45.8151 261.997 45.6974 261.554 45.6974C261.137 45.6974 260.772 45.8412 260.46 46.1288C260.147 46.4165 259.991 46.8741 259.991 47.5278V51.4239H258.428Z" fill="white"/>
    <path d="M196.221 23.968L177.85 4.90234H168.443L196.221 34.554H203.738V4.90234H196.221V23.968Z" fill="white"/>
    <path d="M113.956 4.88428H106.421V34.5632H113.956V4.88428Z" fill="white"/>
    <path d="M221.684 4.88428H214.149V34.5632H221.684V4.88428Z" fill="white"/>
    <path d="M144.483 4.3125H138.848C130.336 4.3125 123.408 11.2669 123.408 19.8102V20.0372C123.408 28.3716 130.164 35.1535 138.468 35.1535H144.863C153.166 35.1535 159.923 28.3716 159.923 20.0372V19.8102C159.923 11.2579 153.004 4.3125 144.483 4.3125ZM152.389 20.0281C152.389 24.1862 149.015 27.5817 144.872 27.5817H138.477C134.334 27.5817 130.96 24.1953 130.96 20.0281V19.8011C130.96 15.4251 134.506 11.8661 138.866 11.8661H144.501C148.861 11.8661 152.407 15.4251 152.407 19.8011V20.0281H152.389Z" fill="white"/>
    <path d="M238.679 20.0279V19.8009C238.679 15.4158 242.216 11.8659 246.585 11.8659H252.944C256.978 11.8659 260.65 9.51451 262.342 5.83756L263.056 4.30322H246.594C238.064 4.30322 231.154 11.2395 231.154 19.8009V20.0279C231.154 28.3714 237.892 35.1442 246.214 35.1442H252.953C256.987 35.1442 260.65 32.7928 262.351 29.1159L263.065 27.5815H246.223C242.044 27.5815 238.679 24.1951 238.679 20.0279Z" fill="white"/>
    <path d="M73.3064 4.9209H65.7266V34.5453H87.1727C91.3787 34.5453 95.1687 31.9942 96.7606 28.0812L96.9596 27.6H73.3064V4.9209Z" fill="white"/>
    <path d="M51.29 25.9385L50.702 26.9372C48.1513 31.2859 42.3624 34.8994 42.281 34.9447L20.0298 50.851L25.7554 55L46.686 39.7656C52.4116 35.4713 51.4799 27.4183 51.4347 27.0824L51.29 25.9385Z" fill="white"/>
    <path d="M51.2903 10.7495L50.7024 11.7482C48.6401 15.2617 45.2572 17.6586 42.0009 19.9646C38.2381 22.6247 34.4843 25.3121 30.6944 27.6635L9.29346 43.0341L15.1547 47.3012L46.7496 24.386C52.3938 20.1462 51.4802 12.2112 51.435 11.8753L51.2903 10.7495Z" fill="white"/>
    <path d="M22.1284 19.0567L31.7525 14.1541H22.1284V19.0567Z" fill="white"/>
    <path d="M10.7306 12.0749L6.21709 12.0477L6.48845 14.0178C6.60604 14.6987 6.88644 15.3615 7.36583 15.8699C7.7186 16.2422 8.1799 16.5781 8.79498 16.8141C10.8663 17.6312 13.0281 18.3121 14.8824 19.5923C16.5648 20.7544 17.7949 22.6428 18.3015 24.622C18.5457 25.5934 18.6361 26.6103 18.5457 27.6089C18.3829 29.3248 17.7045 30.9681 16.6281 32.3027C14.9005 34.4635 12.1598 35.789 9.37387 35.6528C8.04422 35.5893 6.59699 35.3896 5.5387 34.518C4.71559 33.8371 4.0372 32.9383 3.6573 31.9214C3.44927 31.3767 3.34072 30.8047 3.34072 30.2146V30.1873C4.24524 30.1873 6.18996 30.1873 7.09448 30.1873C8.43317 30.1873 10.3779 30.3235 11.5176 29.461C12.4311 28.7801 13.0191 27.6271 12.8472 26.4741C12.6844 25.4209 11.9427 24.5312 11.0472 23.9592C9.88944 23.2057 8.48744 22.8879 7.19398 22.443C5.90956 21.9982 4.62514 21.4716 3.53972 20.6454C2.05631 19.5196 0.988972 17.8219 0.699526 15.9698C0.699526 15.9698 0.645255 15.4886 0.563848 14.7351C0.391989 13.3551 0.220131 11.621 0.0211365 9.85968C-0.195948 7.98035 1.28746 6.32799 3.16886 6.33707L10.794 6.37339C13.7879 6.39155 16.7638 5.89221 19.5949 4.90261L27.7447 2.05183C31.6522 0.699075 35.7497 0 39.8743 0H48.1144C51.2893 0 52.7275 3.99472 50.2762 6.02839L42.9134 12.1294H34.6733L41.6109 6.33707C41.8913 6.10102 41.7285 5.638 41.3577 5.638H39.9195C35.7497 5.638 31.616 6.34615 27.6813 7.73522L19.6311 10.5769C16.7819 11.5847 13.7608 12.0931 10.7306 12.0749Z" fill="white"/>
    <path d="M168.443 34.554H178.266L168.443 24.0679V34.554Z" fill="#0071F9"/>
</svg>
