<svg width="37" height="40" viewBox="0 0 37 40" fill="none" xmlns="http://www.w3.org/2000/svg">
<g clip-path="url(#clip0)">
<path d="M36.7308 37.7976H28.3264V34.7713H33.9293C34.3029 25.3632 28.0567 23.8809 27.9944 23.8604L25.2759 23.2633L30.3393 18.3019C32.3107 16.6344 31.3976 15.0287 31.0864 14.5757C28.6584 11.4672 26.0645 8.66736 23.4498 6.32047C23.1593 6.07343 22.8895 5.8058 22.599 5.51759C21.3747 4.36473 20.1088 3.15012 18.7185 3.0266C17.2036 2.88249 15.6057 4.36473 14.2361 5.68228C13.9456 5.94991 13.6758 6.21754 13.4061 6.44399C10.8329 8.77029 8.30118 11.5083 5.87325 14.6169C5.87325 14.6169 5.27146 15.5227 5.45822 16.5315C5.60348 17.3138 5.74874 17.8079 6.32979 18.3019L11.912 23.2016L9.00673 23.8398C8.75772 23.9015 2.69827 25.4661 3.07179 34.7507H8.67471V37.777H0.270335L0.125074 36.4388C-0.767242 27.566 3.17555 23.6133 5.894 21.987L4.31689 20.5871C2.90578 19.393 2.63601 17.9314 2.47 17.0667C2.03422 14.761 3.30006 12.97 3.44532 12.7847C5.99776 9.51141 8.65396 6.62927 11.3517 4.20004C11.6007 3.99417 11.8497 3.74713 12.1195 3.50009C13.7796 1.91491 16.0623 -0.246693 18.9882 0.0209343C21.4369 0.247388 23.2423 1.95609 24.6949 3.3354C24.9647 3.58244 25.2344 3.85006 25.4835 4.07652C28.2434 6.54693 30.9411 9.47024 33.5143 12.7641C34.5934 14.2258 35.7347 17.7049 32.373 20.5253L30.9619 21.9252C33.7011 23.531 37.7684 27.4424 36.8553 36.4594L36.7308 37.7976Z" fill="currentColor"/>
<path d="M31.4801 16.5928C24.9018 13.5254 18.6349 13.8547 18.5934 13.8547C18.3444 13.8547 12.0981 13.5254 5.5199 16.5928L4.21255 13.8547C11.5171 10.4373 18.3029 10.8285 18.5726 10.8491C18.6764 10.8491 25.4621 10.4579 32.7459 13.8547L31.4801 16.5928Z" fill="currentColor"/>
<path d="M28.7617 40.0002H8.23837V29.4804C8.23837 27.5658 9.81549 26.0012 11.7454 26.0012H25.2339C27.1638 26.0012 28.7409 27.5658 28.7409 29.4804V40.0002H28.7617ZM11.2889 36.9945H25.7112V29.501C25.7112 29.2539 25.5037 29.0275 25.2546 29.0275H11.7661C11.5171 29.0275 11.2889 29.2333 11.2889 29.501V36.9945Z" fill="#0071F9"/>
<path d="M18.4896 21.6779C14.0488 21.6779 10.4173 18.1987 10.4173 13.9373H13.4677C13.4677 16.5312 15.7297 18.6516 18.4896 18.6516C21.2496 18.6516 23.5115 16.5312 23.5115 13.9373H26.562C26.562 18.1987 22.9512 21.6779 18.4896 21.6779Z" fill="currentColor"/>
</g>
<defs>
<clipPath id="clip0">
<rect width="37" height="40" fill="white"/>
</clipPath>
</defs>
</svg>
