<svg width="36" height="36" viewBox="0 0 36 36" fill="none" xmlns="http://www.w3.org/2000/svg">
    <path d="M15.2804 30.73C11.2899 30.73 7.29935 29.1669 4.30647 26.0601C-1.56417 19.9815 -1.41069 10.2365 4.63262 4.3316C10.6759 -1.5733 20.3644 -1.41892 26.2351 4.65965C29.0745 7.61209 30.6093 11.4908 30.5517 15.6011C30.4942 19.7113 28.8442 23.5322 25.9089 26.3881C22.9544 29.2827 19.1174 30.73 15.2804 30.73ZM15.2804 3.05799C12.2107 3.05799 9.12193 4.21581 6.76217 6.53146C1.90833 11.2592 1.79322 19.0745 6.49357 23.9567C11.1939 28.8388 18.9639 28.9546 23.8177 24.2269C26.1583 21.9305 27.4821 18.8623 27.5396 15.5818C27.5972 12.282 26.3694 9.17516 24.0863 6.82092C21.669 4.3123 18.4843 3.05799 15.2804 3.05799Z" fill="currentColor" fill-opacity="0.8"/>
    <path d="M25.9405 24.2414L23.7644 26.3638L33.0059 35.9503L35.182 33.8279L25.9405 24.2414Z" fill="currentColor" fill-opacity="0.8"/>
    <path d="M20.2104 13.8442H10.3301V16.8932H20.2104V13.8442Z" fill="#0071F9"/>
    <path d="M20.2104 13.8442H10.3301V16.8932H20.2104V13.8442Z" fill="#0071F9"/>
    <path d="M16.7954 10.3901H13.7642V20.3281H16.7954V10.3901Z" fill="#0071F9"/>
</svg>
