<svg width="41" height="36" viewBox="0 0 41 36" fill="none" xmlns="http://www.w3.org/2000/svg">
    <path d="M38.5061 21.2981H1.49414V24.2782H38.5061V21.2981Z" fill="currentColor"/>
    <path d="M34.7012 29.6623H5.2988C2.37052 29.6623 0 27.298 0 24.3974V5.28477C0 2.36424 2.37052 0 5.2988 0H34.7211C37.6295 0 40.0199 2.36424 40.0199 5.28477V24.3974C40 27.298 37.6295 29.6623 34.7012 29.6623ZM5.2988 2.98013C4.0239 2.98013 2.98805 4.01325 2.98805 5.28477V24.3974C2.98805 25.6689 4.0239 26.702 5.2988 26.702H34.7211C35.996 26.702 37.0319 25.6689 37.0319 24.3974V5.28477C37.0319 4.01325 35.996 2.98013 34.7211 2.98013H5.2988Z" fill="currentColor"/>
    <path d="M21.4939 28.1721H18.5059V34.3509H21.4939V28.1721Z" fill="currentColor"/>
    <path d="M28.9243 33.02H11.0757V36.0002H28.9243V33.02Z" fill="currentColor"/>
    <path d="M15.9761 15.6357H6.17529V18.6159H15.9761V15.6357Z" fill="#0071F9"/>
</svg>
