<svg width="34" height="40" viewBox="0 0 34 40" fill="none" xmlns="http://www.w3.org/2000/svg">
    <path d="M17 39.8049L16.4382 39.5969C15.7515 39.3681 0 33.6283 0 20.36V7.42442L17 0L34 7.42442V20.36C34 33.6075 18.2485 39.3474 17.5618 39.5969L17 39.8049ZM3.39168 9.64967V20.36C3.39168 29.9888 14.3574 35.084 17 36.1863C19.6426 35.084 30.6083 29.968 30.6083 20.36V9.64967L17 3.70181L3.39168 9.64967Z" fill="currentColor" />
    <path d="M15.7846 27.0147L10 20.547L12.3097 18.4673L15.6597 22.1899L22.0061 14.2664L24.4406 16.2212L15.7846 27.0147Z" fill="#0071F9" />
</svg>
