<?xml version="1.0" encoding="UTF-8"?>
<svg width="35px" height="35px" viewBox="0 0 35 35" version="1.1" xmlns="http://www.w3.org/2000/svg" xmlns:xlink="http://www.w3.org/1999/xlink">
    <!-- Generator: sketchtool 63.1 (101010) - https://sketch.com -->
    <title>A5ACE911-DC9E-423D-9588-19948291F4C9</title>
    <desc>Created with sketchtool.</desc>
    <g id="Page-1" stroke="none" stroke-width="1" fill="none" fill-rule="evenodd">
        <g id="diseño-varios" transform="translate(-939.000000, -297.000000)">
            <g id="facebook" transform="translate(940.000000, 298.000000)">
                <path d="M12.0576923,13.2868621 L13.9566941,13.2868621 L13.9566941,11.3636368 C13.9566941,10.5202974 13.9566941,9.21929202 14.5723045,8.41709109 C15.2339372,7.45795389 16.3614541,6.91596665 17.535582,6.9926702 C18.6828261,6.94048684 19.8314642,7.06012059 20.9423077,7.34748984 L20.4675573,10.2631817 C19.9706637,10.1182798 19.4569085,10.0370489 18.9389652,10.0214929 C18.1981458,10.0214929 17.535582,10.2991779 17.535582,11.0499557 L17.535582,13.2714352 L20.566681,13.2714352 L20.3527824,16.1151346 L17.535582,16.1151346 L17.535582,26.0192308 L13.9566941,26.0192308 L13.9566941,16.1305616 L12.0576923,16.1305616 L12.0576923,13.2868621 Z" id="Shape" fill="#444444" fill-rule="nonzero"></path>
                <rect id="Rectangle-path" stroke="#444444" stroke-width="2" stroke-linecap="round" stroke-linejoin="round" x="0" y="0" width="33" height="33" rx="6"></rect>
            </g>
        </g>
    </g>
</svg>