<?xml version="1.0" encoding="UTF-8"?>
<svg width="35px" height="35px" viewBox="0 0 35 35" version="1.1" xmlns="http://www.w3.org/2000/svg" xmlns:xlink="http://www.w3.org/1999/xlink">
    <!-- Generator: sketchtool 63.1 (101010) - https://sketch.com -->
    <title>F9D76DCF-948F-4F58-96F0-011CA4F9EBCF</title>
    <desc>Created with sketchtool.</desc>
    <g id="Page-1" stroke="none" stroke-width="1" fill="none" fill-rule="evenodd">
        <g id="diseños-varios" transform="translate(-985.000000, -297.000000)">
            <g id="twitter" transform="translate(986.000000, 298.000000)">
                <path d="M25.78125,10.4001562 C25.0900208,10.7242473 24.3523577,10.9382392 23.595,11.034375 C24.4003075,10.5131971 24.9928202,9.72135134 25.265625,8.80171875 C24.5230141,9.27080255 23.7021598,9.60263727 22.8421875,9.78140625 C22.1429151,8.97578799 21.1297345,8.5114919 20.0629688,8.5078125 C17.8987507,8.57515829 16.196936,10.3807422 16.2576562,12.5451562 C16.255873,12.8537955 16.2887349,13.1616598 16.355625,13.4629687 C13.247775,13.275779 10.3787376,11.7338127 8.5078125,9.24515625 C8.16647371,9.86767449 7.98903902,10.5667672 7.9921875,11.2767187 C7.98379307,12.602386 8.61304855,13.8513047 9.6834375,14.6334375 C9.07507487,14.609563 8.48263679,14.4321863 7.96125,14.1178125 L7.96125,14.169375 C7.92186578,16.04154 9.19268307,17.6880212 11.01375,18.1242187 C10.6876702,18.2222219 10.3487623,18.2708856 10.0082812,18.2685938 C9.76446959,18.2725803 9.52088148,18.2518494 9.28125,18.2067188 C9.73077927,19.8131494 11.1669028,20.9449564 12.8339062,21.0065625 C11.509916,22.1203428 9.83578482,22.7319392 8.105625,22.7339063 C7.80934764,22.7357608 7.51321585,22.7202655 7.21875,22.6875 C8.93940243,23.8607244 10.9730561,24.4895043 13.055625,24.4921875 C20.0629688,24.4921875 23.88375,18.3459375 23.88375,13.0092187 L23.88375,12.4935937 C24.6355558,11.9140075 25.2780943,11.2051199 25.78125,10.4001562 L25.78125,10.4001562 Z" id="Shape" fill="#444444" fill-rule="nonzero"></path>
                <rect id="Rectangle-path" stroke="#444444" stroke-width="2" stroke-linecap="round" stroke-linejoin="round" x="0" y="0" width="33" height="33" rx="6"></rect>
            </g>
        </g>
    </g>
</svg>