<svg xmlns="http://www.w3.org/2000/svg" viewBox="0 0 669.9 520.1"><path d="M554.1 172.1c-2.2-23-14.6-44.1-30-60.8-21.2-23-54.4-36.2-82.7-35.1-34.1 1.3-40.8 26.1-42.4 38.7.2 1 .5 1.6.7 2.5 1.8-12.2 9.8-32.1 43.1-33.4h.3c29.2-1.1 55.3 11.8 75.7 34 14.3 15.5 22 33.9 25.1 54.2 0-.2 5.7-.3 10.2-.1m-10.3-80.5c21.8 21.8 33.2 51 36.2 80.4h9.9c-3.1-30.8-16.9-62.5-38.6-86.1-27.6-30-70.2-47.3-107-45.9-42.9 1.7-52.3 34.3-51.9 52.7.3 1.4 1.1 3.9 1.1 4 .2-18.7 8.2-47.3 51.4-49h1.4c37.6-1.4 71.2 17.7 97.5 43.9m-112 224.9c0 .1 0 0 0 0 0 .1 0 .1 0 0-5.9 2.2-14.1 5.2-19.9 5.7-.4 1.6-1.1 4.3-1.3 4.9 4.7-.2 10.4-.4 11.2-.4 11-.4 23.8-2.2 34.7-4.3-1-2.7-3.3-8.5-3.3-8.5-6.4 1.1-14.9 2.1-21.4 2.6m-10.5-26.4l3.8 9.6c5.8-.4 15.9-1.2 21.4-2.1l-3.7-9.3c-5.6.7-15.7 1.5-21.5 1.8m9.3-25.2c-.3 1.5-1.3 8.6-1.6 10.1 2.8-.2 5.5-.4 8.2-.8l-3.8-9.6c-1 .1-1.9.2-2.8.3m-11.4-86.6c5.6 19.9 9.9 40.6 11.2 62.1l29.1 73.1h36.3l53.8-135.3h-40.9L478.1 263l-30.6-84.7h-28.3zm134.3 82.8c-6.7 7.7-15.2 15.5-24.1 21.8-5.5 3.9-13.1 8.3-19.4 11.6l-5.4 13.5c10.1-4.6 21.3-10.7 29.8-16.8 6.7-4.8 13.5-10.7 19-16.2v-13.9zm-30-.4c14.2-14.1 27.4-39.9 30-60.8v-14.7l-30 75.5zm-87.6-105.5h.2c24.5-.9 41.3 20.1 39.3 44.9-.5 6.8-3.8 13.3-7 18.1 1.2 3.4 2.4 6.8 3.6 10 5.7-7.6 11.3-19 12-28.2 1-13.2-3.3-27.5-12-36.8-8.8-9.3-20.7-14.7-34-14.2-9.3.4-18.4 6.9-22.1 12.9 0 0-.8 1.4-1 1.9.1.6.4 1.5.6 1.9.2-.4 1.2-1.7 1.2-1.7 4.4-5.2 10.5-8.5 19.2-8.8m4-34.9h.2c30.6.6 57.4 20.8 66 51.7 3.9.1 9.9.1 9.9.1-3.3-12.1-10-25.2-18.5-34.3-15-16.1-36.4-26.3-59.1-24.7-22.3 1.5-29.8 20.9-31.6 26 .1.4.4 1.3.5 1.5 2.7-6.5 12.3-19.5 32.6-20.3m-35 224.4c-.8 1.6-3.8 7.9-4.5 9.5 7.7-.3 17.8-.2 19.2-.2 50.1-1.9 98.1-15.8 134-39.5-.1-.5 0-11.1 0-11.1-35.2 24-81.5 38.9-131.6 40.8-1.4-.1-9.6.2-17.1.5m-291.3 127c6.6 9.3 36.8 47.4 99.8 44.9 82.2-3.1 114.2-54 125.2-66.2 0 0 0 .1-.1.1-7.5 8.3-46 54.1-124.9 57.1-58.4 2.3-88.6-23.8-100-35.9m-12.4-26.2c6.6 9.3 36.4 51.2 111.3 48.4 103.6-3.9 141.7-71.3 149.9-83.3-5.8 7.2-45.2 69.5-149.8 73.5-71.2 2.7-99.9-26.6-111.4-38.6m-25.5-38c6.5 9.8 43.6 63.8 136 60.3 122.7-4.6 161.1-77.9 168.6-88.2-5.5 6.8-47.3 73.1-168.4 77.7-85.9 3.3-125.1-36.6-136.2-49.8M58.8 377c6.7 9.3 41.9 67.5 154.5 63.2 135.9-5.1 178.6-79.5 185.2-90.6-4.7 7.1-48.5 74.5-185 79.6C103.9 433.4 70.4 389 58.8 377m-17.2-43.3c4.9 10 33.1 82.2 172.2 77 118.5-4.5 170.7-54.6 193.7-88l-1.8.1c-23.7 31.3-75.8 72.4-191.8 76.8C81.3 404.7 48 345.8 41.6 333.7m346.3-4.7c.5-.5 3.2-3.7 3.8-4.3.2-.7.3-1.9.5-2.6-1.2-.2-2.3-.4-3.4-.7-.3 2.7-.5 5.1-.9 7.6m-9.3-10.2c-4.6.1-24.2.6-38.7 1-1.6.1-18.4.7-21.8.9 0 0-18.3.6-32.8 1.2-25.7 1.5-51.3 3.6-68.7 6.5-55.9 9.3-86 24.8-106.6 46.4 1.9.7 7.2 2.7 8.5 3.1 19.9-20.1 48.4-31.1 100-40.2 46-8.2 149.6-9.6 160.7-9.7-.3 3.4-.3 3.1-.5 5.2-.3 2.6-.4 4.1-.5 4.5h.2c.5-.4.8-.7 1.2-1 .2-.2 2.3-2 2.3-2.3 1-4.7 1.4-9 1.9-13.9-1.4-.4-3.7-1.1-5.2-1.7m-52.3-15.6l26-.1c-3.4-3-6.5-6.3-9.4-9.8l-16.6.1v9.8zm-69.6-8.5c-2.3 3.7-5 7.1-8.1 10.1 8.7-.4 18.2-.7 29.1-1V294c-7.6.3-14.4.5-21 .7m-89.5 20.7c-3.8-1.8-7.8-3.8-11-6.2-10.5 2.9-19.3 6-27.7 9.7-23.9 10.5-40 25.2-46.1 44.1 1.4.7 5 3.2 6.4 3.9 9.3-24.4 35.9-40.8 78.4-51.5m48.9 44.2c-33 7-53.2 15.5-66.6 25.4 3.9 1.4 9.8 2.6 12.2 2.9 14.4-8.1 30.5-13.8 54.7-18.8 41.2-8.6 87.4-11.5 137.2-13.4 3-1.7 7.3-3.9 13.2-8.5-23.3-1.1-107 3.1-150.7 12.4m-151.8-9.3c1.4 1.3 3.4 2.7 5 3.9-.5-13.1 4.7-24.2 11.6-32.9-2.3.2-7.4.6-9.9.3-5 8.2-7.6 17.5-6.7 28.7M45 316.2c-2-.8-4-1.8-5.5-2.5 1.5 7.4 5 13 7.7 16.7-1.5-4-2-9.2-2.2-14.2m55-97.2l20.2-23.3C107.7 184 90.9 176.8 72.4 177c-38 .4-68.5 31.7-68.1 69.9.4 38.3 31.6 68.9 69.6 68.5 21.6-.2 40.7-10.4 53.2-26.1l-23.7-19.5c-7.6 9.4-19.9 12.1-29.8 11.5-18-.9-32.8-15.5-32.9-35.1-.2-19.6 13.7-34.3 31.6-36.5 8.5-.9 20.4 1.1 27.7 9.3m-36.2 53.9c15.2-12.6 40.3-22.9 69.1-29.2v-10.3c-33 6.7-61.3 19.1-77 34.2 1.6 1.8 5.4 4.2 7.9 5.3m69.4 13.5l4.8-1.9c-1.2-2.8-2.4-6.9-3-10-4.2 1.5-11.2 4.2-11.2 4.2l9.4 7.7zm49-49.8c11-.9 24.5-1.6 36-1.6v-9.7c-11.8.2-25.3.9-36 1.7v9.6zm35.5 23.6c-11.8.4-24.9 2-34.3 3.1.9 4.1 4 8 5.7 8.7 7-.9 17.2-2 24.7-2.3 1.7-.5 4.1-6.4 3.9-9.5m43.5-7v-74.9h-36.9v76c0 18.3-9.6 27-24.2 27s-24.2-9-24.2-27.9v-75.1H139v75.8c0 41 23.4 61.8 60.7 61.8 37.3 0 61.5-20.4 61.5-62.7m16.3 7.1l-10.3.1c-.3 3.7-.7 7.1-1.2 9.8l11.5-.1v-9.8zm-10-24.9l10.3.2v-10l-10.3-.2v10zm84.3-8.6l-25.6-.4v9.6H340c5 0 11.4-1.2 11.8-9.2m6.3-.4c0 10.3-7.9 17-20.8 17h-17.2v-34.6h17c13.1 0 21 6 21 17.2v.4zM340 178.3h-56.2v137.4h36.3v-43.8h17c12.2 28.2 47.2 55.2 86.6 41.1l-11.2-28.2c-18.2 4.3-33.8-6.5-42-19.7 14.8-7.5 24-21.1 24-40.3v-.4c0-29.1-21.4-46.1-54.5-46.1m59.9 36.3c.8 8.8.8 17.9-.5 22.5 2.3 12.4 4.6 32.1 4.8 42.4 1.5.2 3.2-.3 4.8-.4.6-9.2-.3-19.7-1.3-29.2-.8-7.9-4-22.7-7.8-35.3m-9.4 50.4c.3 2 .6 8 .4 11.1 1.6 1.1 3.5 1.3 5.3 2.1.4-4.8.2-11.2 0-15.4-.1-2-1-9-1.7-12.6-1.4 1.9-2.7 5.2-4.9 7.3.4 2.2.7 6.2.9 7.5m-1.5-73.6c2.6 2.2 6.8 9.9 8.7 14.9-.4-1.5-3.8-17-4.2-18.5-4.5-15.4-8.4-29.3-11.5-47.2 1.3 13.1 4.3 35.5 7 50.8m32.3 63.1c2.3-69.4-34.6-118.1-46-188 3.3 34 7 50.9 17.1 83.1 8.8 28 18.4 56.8 22.9 85.7 2.4 15 4.9 28.5 2.3 42.1.1 0 .2 0 .3.1.4-1.4.7-2.8 1-4.2v-.1c.3-1.1.5-2.2.7-3.3 0-.3.1-.5.1-.8.2-.9.3-1.8.5-2.7 0-.4.1-.7.2-1 .1-.8.2-1.6.3-2.5 0-.4.1-.8.1-1.2.1-.8.2-1.7.2-2.6 0-.3.1-.7.1-1.1.1-1 .2-2.2.2-3.5m196.9-82.4h9.2c-2.5-40.3-19.9-81.3-48.8-112.3-34.5-37.1-83.4-58.3-131.2-56.3-40.9 1.7-56.3 20-61.1 40.6-.6 3.6-.9 6.9-.9 10.5.3 5.3 2 16 2 16.2-.7-8.6-.2-14.2.9-21.3 4.7-20.2 20-36.7 57.8-38.7.3 0 2.3-.1 2.4-.1 46.6-1.8 89.6 18.2 123.4 54.4 28.1 30 43.8 68.1 46.3 107m47.4 109.6h-68.9v-20.6h60.2v-29.5h-60.2v-21.5h67.9v-31.8h-105v135.3h105.9v-31.9zm-62.7-6.2h1.2c1.4-2.1 4.1-6.1 5.5-8.2h-6.7v8.2zm8.3-50h10.1l2.3-9.2h-10.1c-.5 2.4-1.7 6.8-2.3 9.2" fill="#fff"/></svg>