<svg width="163" height="85" viewBox="0 0 163 85" fill="none" xmlns="http://www.w3.org/2000/svg">
<path d="M3.67903 3.89755L1.44043 3.9292L1.60083 15.2743L3.83942 15.2427L3.67903 3.89755Z" fill="#46C3CF"/>
<path d="M30.0616 3.91235H27.8228V16.3672H30.0616V3.91235Z" fill="#46C3CF"/>
<path d="M15.7803 39.0597L1.6084 30.8217V14.6935L15.7803 8.08569" fill="#46C3CF"/>
<path d="M3.67903 3.89755L1.44043 3.9292L1.60083 15.2743L3.83942 15.2427L3.67903 3.89755Z" fill="#1C6C70"/>
<path d="M30.0616 3.91235H27.8228V16.3672H30.0616V3.91235Z" fill="#41AAA7"/>
<path d="M2.45618 4.89063C1.10854 4.89063 0 3.80382 0 2.45618C0 1.10854 1.10854 0 2.45618 0C3.80382 0 4.91236 1.10854 4.91236 2.45618C4.91236 3.80382 3.80382 4.89063 2.45618 4.89063ZM2.45618 1.43458C1.89104 1.43458 1.45632 1.89104 1.45632 2.43445C1.45632 2.97785 1.91278 3.43431 2.45618 3.43431C2.99958 3.43431 3.45604 2.97785 3.45604 2.43445C3.45604 1.89104 2.99958 1.43458 2.45618 1.43458Z" fill="#46C3CF"/>
<path d="M29.0397 4.89063C27.692 4.89063 26.5835 3.78208 26.5835 2.43445C26.5835 1.08681 27.6703 0 29.0397 0C30.3873 0 31.4959 1.10854 31.4959 2.45618C31.4959 3.80382 30.3873 4.89063 29.0397 4.89063ZM29.0397 1.43458C28.4745 1.43458 28.0398 1.89104 28.0398 2.43445C28.0398 2.97785 28.4963 3.43431 29.0397 3.43431C29.5831 3.43431 30.0395 2.97785 30.0395 2.43445C30.0395 1.89104 29.5831 1.43458 29.0397 1.43458Z" fill="#46C3CF"/>
<path d="M2.45618 33.4016C1.10854 33.4016 0 32.2931 0 30.9454C0 29.5978 1.10854 28.4893 2.45618 28.4893C3.80382 28.4893 4.91236 29.5978 4.91236 30.9454C4.89063 32.2931 3.80382 33.4016 2.45618 33.4016ZM2.45618 29.9456C1.89104 29.9456 1.45632 30.402 1.45632 30.9454C1.45632 31.5106 1.91278 31.9453 2.45618 31.9453C2.99958 31.9453 3.45604 31.4888 3.45604 30.9454C3.45604 30.402 2.99958 29.9456 2.45618 29.9456Z" fill="#46C3CF"/>
<path d="M29.0392 33.4016C27.6916 33.4016 26.583 32.2931 26.583 30.9454C26.583 29.5978 27.6916 28.4893 29.0392 28.4893C30.3868 28.4893 31.4954 29.5978 31.4954 30.9454C31.4736 32.2931 30.3868 33.4016 29.0392 33.4016ZM29.0392 29.9456C28.4741 29.9456 28.0393 30.402 28.0393 30.9454C28.0393 31.5106 28.4958 31.9453 29.0392 31.9453C29.5826 31.9453 30.039 31.4888 30.039 30.9454C30.039 30.402 29.5826 29.9456 29.0392 29.9456Z" fill="#46C3CF"/>
<path d="M30.0443 71.4537L27.8057 71.4814L27.966 84.4349L30.2046 84.4072L30.0443 71.4537Z" fill="#46C3CF"/>
<path d="M3.82525 70.3596H1.58643V84.4229H3.82525V70.3596Z" fill="#46C3CF"/>
<path d="M30.0002 50.0282L15.7402 58.281L16.4588 59.5226L30.7188 51.2698L30.0002 50.0282Z" fill="white"/>
<path d="M30.7456 37.1212L29.311 37.1326L29.4223 51.1741L30.8568 51.1627L30.7456 37.1212Z" fill="white"/>
<path d="M15.7812 48.0151L30.0401 56.2314V72.3596L15.7812 80.5976" fill="#41AAA7"/>
<path d="M2.45618 4.89063C1.10854 4.89063 0 3.80382 0 2.45618C0 1.10854 1.10854 0 2.45618 0C3.80382 0 4.91236 1.10854 4.91236 2.45618C4.91236 3.80382 3.80382 4.89063 2.45618 4.89063ZM2.45618 1.43458C1.89104 1.43458 1.45632 1.89104 1.45632 2.43445C1.45632 2.97785 1.91278 3.43431 2.45618 3.43431C2.99958 3.43431 3.45604 2.97785 3.45604 2.43445C3.45604 1.89104 2.99958 1.43458 2.45618 1.43458Z" fill="#1C6C70"/>
<path d="M29.0397 4.89063C27.692 4.89063 26.5835 3.78208 26.5835 2.43445C26.5835 1.08681 27.6703 0 29.0397 0C30.3873 0 31.4959 1.10854 31.4959 2.45618C31.4959 3.80382 30.3873 4.89063 29.0397 4.89063ZM29.0397 1.43458C28.4745 1.43458 28.0398 1.89104 28.0398 2.43445C28.0398 2.97785 28.4963 3.43431 29.0397 3.43431C29.5831 3.43431 30.0395 2.97785 30.0395 2.43445C30.0395 1.89104 29.5831 1.43458 29.0397 1.43458Z" fill="#41AAA7"/>
<path d="M2.45618 33.4016C1.10854 33.4016 0 32.2931 0 30.9454C0 29.5978 1.10854 28.4893 2.45618 28.4893C3.80382 28.4893 4.91236 29.5978 4.91236 30.9454C4.89063 32.2931 3.80382 33.4016 2.45618 33.4016ZM2.45618 29.9456C1.89104 29.9456 1.45632 30.402 1.45632 30.9454C1.45632 31.5106 1.91278 31.9453 2.45618 31.9453C2.99958 31.9453 3.45604 31.4888 3.45604 30.9454C3.45604 30.402 2.99958 29.9456 2.45618 29.9456Z" fill="#52D4DB"/>
<path d="M29.0392 33.4016C27.6916 33.4016 26.583 32.2931 26.583 30.9454C26.583 29.5978 27.6916 28.4893 29.0392 28.4893C30.3868 28.4893 31.4954 29.5978 31.4954 30.9454C31.4736 32.2931 30.3868 33.4016 29.0392 33.4016ZM29.0392 29.9456C28.4741 29.9456 28.0393 30.402 28.0393 30.9454C28.0393 31.5106 28.4958 31.9453 29.0392 31.9453C29.5826 31.9453 30.039 31.4888 30.039 30.9454C30.039 30.402 29.5826 29.9456 29.0392 29.9456Z" fill="#41AAA7"/>
<path d="M30.0443 71.4537L27.8057 71.4814L27.966 84.4349L30.2046 84.4072L30.0443 71.4537Z" fill="#41AAA7"/>
<path d="M3.82525 70.3596H1.58643V84.4229H3.82525V70.3596Z" fill="#52D4DB"/>
<path d="M30.0002 50.0282L15.7402 58.281L16.4588 59.5226L30.7188 51.2698L30.0002 50.0282Z" fill="white"/>
<path d="M30.7456 37.1212L29.311 37.1326L29.4223 51.1741L30.8568 51.1627L30.7456 37.1212Z" fill="white"/>
<path d="M15.6284 32.2346L24.9967 37.6252V48.2324L15.6284 53.6447" fill="#52D4DB"/>
<path d="M15.7803 39.0597L1.6084 30.8217V14.6935L15.7803 8.08569" fill="#1C6C70"/>
<path d="M15.7812 8.08569L30.0401 14.6935V30.8217L15.7812 39.0597" fill="#41AAA7"/>
<path d="M15.8028 53.2536L6.47803 47.8413V37.2341L15.8028 31.8435" fill="#41AAA7"/>
<path d="M15.468 26.3773L1.20801 34.6301L1.92659 35.8718L16.1866 27.6189L15.468 26.3773Z" fill="white"/>
<path d="M2.48732 34.7301L1.05273 34.7415L1.16412 48.783L2.59871 48.7716L2.48732 34.7301Z" fill="white"/>
<path d="M15.468 26.3773L1.20801 34.6301L1.92659 35.8718L16.1866 27.6189L15.468 26.3773Z" fill="white"/>
<path d="M2.48732 34.7301L1.05273 34.7415L1.16412 48.783L2.59871 48.7716L2.48732 34.7301Z" fill="white"/>
<path d="M15.7803 80.4452L1.6084 72.2072V56.0573L15.7803 47.8628" fill="#52D4DB"/>
<path d="M66.2085 25.9096C67.3171 26.6703 68.1431 27.6919 68.7299 28.9961C69.3168 30.3003 69.5994 31.7349 69.5994 33.3433C69.5994 34.9518 69.3168 36.3864 68.7299 37.6906C68.1431 38.9947 67.3171 40.0163 66.2085 40.7771C65.1 41.5378 63.7958 41.9074 62.2526 41.9074H56.4056C55.9708 41.9074 55.6231 41.7552 55.3405 41.4726C55.0579 41.1901 54.9058 40.8423 54.9058 40.4076V26.2791C54.9058 25.8661 55.0579 25.4966 55.3405 25.214C55.6231 24.9314 55.9708 24.7793 56.4056 24.7793H62.2526C63.7958 24.7793 65.1217 25.1488 66.2085 25.9096ZM65.3174 37.4515C66.0564 36.3646 66.4259 34.9953 66.4259 33.3216C66.4259 31.6479 66.0564 30.2785 65.3174 29.1917C64.5783 28.1049 63.4698 27.5615 62.0352 27.5615H57.9923V39.0599H62.0352C63.4915 39.0817 64.5783 38.5383 65.3174 37.4515Z" fill="#FBFCFC"/>
<path d="M77.0981 41.4726C76.7938 41.7552 76.4243 41.9074 76.0113 41.9074C75.5766 41.9074 75.207 41.7552 74.9245 41.4726C74.6419 41.1901 74.4897 40.8423 74.4897 40.4076V26.2791C74.4897 25.8661 74.6419 25.4966 74.9245 25.214C75.207 24.9314 75.5983 24.7793 76.0547 24.7793C76.4677 24.7793 76.8155 24.9314 77.0981 25.214C77.4024 25.4966 77.5328 25.8444 77.5328 26.2791V40.4076C77.5763 40.8423 77.4024 41.1901 77.0981 41.4726Z" fill="#FBFCFC"/>
<path d="M96.8999 33.0826C97.1824 33.3651 97.3129 33.7129 97.3129 34.1476V39.3426C97.3129 39.9077 97.052 40.3642 96.5521 40.6685C94.9436 41.6683 93.2047 42.1683 91.2919 42.1683C89.6835 42.1683 88.1837 41.777 86.8143 40.9728C85.4449 40.1903 84.3581 39.1035 83.5539 37.7776C82.7496 36.4299 82.3584 34.9519 82.3584 33.3651C82.3584 31.7567 82.7496 30.3003 83.5539 28.9527C84.3581 27.6051 85.4449 26.54 86.8143 25.7575C88.1837 24.975 89.6835 24.562 91.2919 24.562C92.9004 24.562 94.3133 24.8881 95.5087 25.5401C95.7478 25.6706 95.9435 25.8444 96.0522 26.0618C96.1826 26.2792 96.226 26.4965 96.226 26.7574C96.226 27.1703 96.0956 27.5181 95.8131 27.8224C95.5522 28.1267 95.2044 28.2789 94.8132 28.2789C94.5741 28.2789 94.2915 28.2137 94.009 28.0833C93.1178 27.7137 92.2049 27.5181 91.2702 27.5181C90.2269 27.5181 89.2705 27.779 88.3793 28.3224C87.4881 28.844 86.7926 29.5613 86.2926 30.4525C85.771 31.3437 85.5319 32.3218 85.5319 33.3869C85.5319 34.4519 85.7927 35.4301 86.2926 36.3213C86.8143 37.2124 87.5099 37.9297 88.3793 38.4514C89.2705 38.9731 90.2269 39.2556 91.2702 39.2556C91.7267 39.2556 92.2049 39.2122 92.7483 39.1252C93.2699 39.0383 93.7264 38.9296 94.1176 38.7992V35.6257H91.8136C91.3789 35.6257 91.0311 35.4953 90.7485 35.2127C90.466 34.9301 90.3138 34.5824 90.3138 34.1694C90.3138 33.7564 90.466 33.3869 90.7485 33.126C91.0311 32.8435 91.3789 32.7131 91.8136 32.7131H95.8348C96.2695 32.6478 96.6173 32.8 96.8999 33.0826Z" fill="#FBFCFC"/>
<path d="M105.051 41.4726C104.746 41.7552 104.377 41.9074 103.964 41.9074C103.529 41.9074 103.16 41.7552 102.877 41.4726C102.595 41.1901 102.442 40.8423 102.442 40.4076V26.2791C102.442 25.8661 102.595 25.4966 102.877 25.214C103.16 24.9314 103.551 24.7793 104.007 24.7793C104.42 24.7793 104.768 24.9314 105.051 25.214C105.355 25.4966 105.485 25.8444 105.485 26.2791V40.4076C105.507 40.8423 105.355 41.1901 105.051 41.4726Z" fill="#FBFCFC"/>
<path d="M123.157 25.1705C123.44 25.4314 123.57 25.7792 123.57 26.1921C123.57 26.6269 123.44 26.9529 123.157 27.2137C122.874 27.4746 122.527 27.5833 122.07 27.5833H118.245V40.4076C118.245 40.8423 118.093 41.1901 117.788 41.4726C117.484 41.7552 117.093 41.9074 116.636 41.9074C116.18 41.9074 115.81 41.7552 115.506 41.4726C115.202 41.1901 115.071 40.8423 115.071 40.4076V27.5833H111.224C110.789 27.5833 110.42 27.4528 110.137 27.192C109.855 26.9312 109.724 26.5834 109.724 26.1704C109.724 25.7574 109.876 25.4314 110.159 25.1705C110.441 24.9097 110.789 24.7793 111.224 24.7793H122.092C122.527 24.7793 122.896 24.9097 123.157 25.1705Z" fill="#FBFCFC"/>
<path d="M139.372 40.5816C139.372 41.0163 139.242 41.3423 138.959 41.6249C138.677 41.8857 138.373 42.0379 138.003 42.0379C137.721 42.0379 137.438 41.951 137.199 41.7771C136.96 41.6032 136.786 41.3423 136.655 41.038L135.373 38.0819H128.091L126.809 41.0598C126.7 41.3641 126.526 41.6032 126.287 41.7771C126.048 41.951 125.787 42.0379 125.527 42.0379C125.092 42.0379 124.788 41.9292 124.57 41.6901C124.353 41.451 124.244 41.1467 124.244 40.7555C124.244 40.6033 124.266 40.4512 124.309 40.299L130.395 25.6706C130.526 25.3446 130.722 25.0837 130.982 24.9098C131.243 24.7359 131.526 24.649 131.874 24.6925C132.156 24.6925 132.439 24.7794 132.699 24.9533C132.96 25.1272 133.134 25.3663 133.243 25.6706L139.264 39.9947C139.329 40.2121 139.372 40.4077 139.372 40.5816ZM129.287 35.2562H134.178L131.7 29.5396L129.287 35.2562Z" fill="#FBFCFC"/>
<path d="M153.871 39.4512C154.153 39.712 154.306 40.0598 154.306 40.4945C154.306 40.9075 154.153 41.2335 153.871 41.5161C153.588 41.7769 153.241 41.9291 152.806 41.9291H144.85C144.416 41.9291 144.068 41.7769 143.785 41.4944C143.503 41.2118 143.351 40.864 143.351 40.4293V26.3008C143.351 25.8878 143.503 25.5183 143.785 25.2357C144.068 24.9532 144.459 24.801 144.916 24.801C145.329 24.801 145.676 24.9532 145.959 25.2357C146.263 25.5183 146.394 25.8661 146.394 26.3008V39.0599H152.806C153.241 39.0382 153.588 39.1686 153.871 39.4512Z" fill="#FBFCFC"/>
<path d="M62.8614 50.7325C62.9701 50.8194 63.0135 50.9498 63.0135 51.102C63.0135 51.2541 62.9701 51.3628 62.8614 51.4498C62.7527 51.5367 62.644 51.5802 62.4919 51.5802H58.8837V62.2309C58.8837 62.383 58.8402 62.5134 58.7315 62.6004C58.6228 62.7091 58.4924 62.7525 58.3403 62.7525C58.1881 62.7525 58.0577 62.7091 57.949 62.6004C57.8403 62.4917 57.7969 62.383 57.7969 62.2309V51.5802H54.1887C54.0365 51.5802 53.9061 51.5367 53.8191 51.4498C53.7105 51.3628 53.667 51.2324 53.667 51.0802C53.667 50.9498 53.7105 50.8194 53.8191 50.7325C53.9278 50.6455 54.0365 50.6021 54.1887 50.6021H62.4701C62.6223 50.6021 62.7527 50.6455 62.8614 50.7325Z" stroke="#46C3CF" stroke-width="1.06132" stroke-miterlimit="10"/>
<path d="M73.599 61.9048C73.7077 62.0135 73.7511 62.1222 73.7511 62.2743C73.7511 62.4265 73.7077 62.5569 73.599 62.6439C73.4903 62.7308 73.3816 62.7743 73.2295 62.7743H66.839C66.6869 62.7743 66.5565 62.7308 66.4695 62.6221C66.3609 62.5134 66.3174 62.4048 66.3174 62.2526V51.1237C66.3174 50.9716 66.3609 50.8411 66.4695 50.7542C66.5782 50.6455 66.6869 50.6021 66.839 50.6021H73.2295C73.3816 50.6021 73.512 50.6455 73.599 50.7542C73.7077 50.8629 73.7511 50.9716 73.7511 51.1237C73.7511 51.2759 73.7077 51.4063 73.599 51.4932C73.4903 51.5802 73.3816 51.6236 73.2295 51.6236H67.4259V55.9926H72.447C72.5991 55.9926 72.7295 56.0361 72.8165 56.1448C72.9252 56.2534 72.9686 56.3621 72.9686 56.5143C72.9686 56.6664 72.9252 56.7968 72.8165 56.8838C72.7078 56.9707 72.5991 57.0142 72.447 57.0142H67.4259V61.7309H73.2295C73.3816 61.7309 73.512 61.7961 73.599 61.9048Z" stroke="#46C3CF" stroke-width="1.06132" stroke-miterlimit="10"/>
<path d="M86.9008 62.2739C86.9008 62.426 86.8573 62.5565 86.7486 62.6434C86.64 62.7303 86.5313 62.7738 86.3791 62.7738C86.2704 62.7738 86.1618 62.7521 86.0748 62.6869C85.9879 62.6217 85.9227 62.5347 85.8792 62.426L84.575 59.2526H78.9236L77.6412 62.426C77.5543 62.6651 77.4021 62.7738 77.163 62.7738C77.0109 62.7738 76.8804 62.7303 76.7935 62.6434C76.7066 62.5565 76.6631 62.4478 76.6631 62.3174V62.2739C76.6631 62.2087 76.6631 62.1435 76.6848 62.1217L81.2711 50.8842C81.3581 50.6451 81.532 50.5364 81.7928 50.5364C81.9015 50.5364 82.0102 50.5581 82.0971 50.6233C82.1841 50.6885 82.2493 50.7755 82.2927 50.8842L86.8573 62.0565C86.8791 62.1652 86.9008 62.2304 86.9008 62.2739ZM79.3149 58.231H84.1403L81.7059 52.2753L79.3149 58.231Z" stroke="#46C3CF" stroke-width="1.06132" stroke-miterlimit="10"/>
<path d="M101.139 50.7325C101.248 50.8411 101.291 50.9498 101.291 51.102V62.2309C101.291 62.383 101.248 62.5134 101.139 62.6004C101.03 62.7091 100.9 62.7525 100.748 62.7525C100.596 62.7525 100.444 62.7091 100.357 62.6004C100.248 62.4917 100.204 62.383 100.204 62.2309V52.667L96.118 58.8618C96.0094 59.0139 95.8789 59.0791 95.7268 59.0791H95.6833C95.5529 59.0791 95.4225 59.0139 95.2921 58.8618L91.2057 52.6452V62.2526C91.2057 62.4048 91.1622 62.5352 91.0535 62.6221C90.9448 62.7091 90.8362 62.7743 90.684 62.7743C90.5319 62.7743 90.4014 62.7308 90.3145 62.6221C90.2276 62.5134 90.1841 62.4048 90.1841 62.2526V51.1237C90.1841 50.9933 90.2276 50.8629 90.3362 50.7542C90.4449 50.6455 90.5536 50.6021 90.7057 50.6021C90.7927 50.6021 90.8796 50.6238 90.9666 50.6673C91.0535 50.7107 91.1187 50.7542 91.1839 50.8411L95.7485 57.6663L100.335 50.8411C100.465 50.6673 100.617 50.602 100.813 50.6238C100.922 50.602 101.03 50.6455 101.139 50.7325Z" stroke="#46C3CF" stroke-width="1.06132" stroke-miterlimit="10"/>
<path d="M116.789 50.7325C116.898 50.8411 116.941 50.9498 116.941 51.102V62.2309C116.941 62.383 116.898 62.5134 116.789 62.6004C116.68 62.7091 116.55 62.7525 116.398 62.7525C116.246 62.7525 116.093 62.7091 116.006 62.6004C115.898 62.4917 115.854 62.383 115.854 62.2309V52.667L111.768 58.8618C111.659 59.0139 111.529 59.0791 111.377 59.0791H111.333C111.203 59.0791 111.072 59.0139 110.942 58.8618L106.856 52.6452V62.2526C106.856 62.4048 106.812 62.5352 106.703 62.6221C106.595 62.7091 106.486 62.7743 106.334 62.7743C106.182 62.7743 106.051 62.7308 105.964 62.6221C105.877 62.5134 105.834 62.4048 105.834 62.2526V51.1237C105.834 50.9933 105.877 50.8629 105.986 50.7542C106.095 50.6455 106.203 50.6021 106.356 50.6021C106.443 50.6021 106.53 50.6238 106.616 50.6673C106.703 50.7107 106.769 50.7542 106.834 50.8411L111.398 57.6663L115.985 50.8411C116.115 50.6673 116.267 50.602 116.463 50.6238C116.572 50.602 116.68 50.6455 116.789 50.7325Z" stroke="#46C3CF" stroke-width="1.06132" stroke-miterlimit="10"/>
<path d="M130.46 62.2739C130.46 62.426 130.417 62.5565 130.308 62.6434C130.2 62.7303 130.091 62.7738 129.939 62.7738C129.83 62.7738 129.721 62.7521 129.634 62.6869C129.547 62.6217 129.482 62.5347 129.439 62.426L128.135 59.2526H122.483L121.201 62.426C121.114 62.6651 120.962 62.7738 120.723 62.7738C120.57 62.7738 120.44 62.7303 120.353 62.6434C120.266 62.5565 120.223 62.4478 120.223 62.3174V62.2739C120.223 62.2087 120.223 62.1435 120.244 62.1217L124.831 50.8842C124.918 50.6451 125.092 50.5364 125.352 50.5364C125.461 50.5364 125.57 50.5581 125.657 50.6233C125.744 50.6885 125.809 50.7755 125.852 50.8842L130.417 62.0565C130.439 62.1652 130.46 62.2304 130.46 62.2739ZM122.874 58.231H127.7L125.265 52.2753L122.874 58.231Z" stroke="#46C3CF" stroke-width="1.06132" stroke-miterlimit="10"/>
<path d="M140.155 50.7325C140.263 50.8194 140.307 50.9498 140.307 51.102C140.307 51.2541 140.263 51.3628 140.155 51.4498C140.046 51.5367 139.937 51.5802 139.785 51.5802H136.177V62.2309C136.177 62.383 136.133 62.5134 136.025 62.6004C135.916 62.7091 135.786 62.7525 135.633 62.7525C135.481 62.7525 135.351 62.7091 135.242 62.6004C135.134 62.4917 135.09 62.383 135.09 62.2309V51.5802H131.504C131.351 51.5802 131.221 51.5367 131.134 51.4498C131.025 51.3628 130.982 51.2324 130.982 51.0802C130.982 50.9498 131.025 50.8194 131.134 50.7325C131.243 50.6455 131.351 50.6021 131.504 50.6021H139.785C139.937 50.6021 140.068 50.6455 140.155 50.7325Z" stroke="#46C3CF" stroke-width="1.06132" stroke-miterlimit="10"/>
<path d="M150.914 61.9048C151.023 62.0135 151.067 62.1222 151.067 62.2743C151.067 62.4265 151.023 62.5569 150.914 62.6439C150.806 62.7308 150.697 62.7743 150.545 62.7743H144.154C144.002 62.7743 143.872 62.7308 143.785 62.6221C143.676 62.5134 143.633 62.4048 143.633 62.2526V51.1237C143.633 50.9716 143.676 50.8411 143.785 50.7542C143.894 50.6455 144.002 50.6021 144.154 50.6021H150.545C150.697 50.6021 150.827 50.6455 150.914 50.7542C151.023 50.8629 151.067 50.9716 151.067 51.1237C151.067 51.2759 151.023 51.4063 150.914 51.4932C150.806 51.5802 150.697 51.6236 150.545 51.6236H144.741V55.9926H149.762C149.915 55.9926 150.045 56.0361 150.132 56.1448C150.241 56.2534 150.284 56.3621 150.284 56.5143C150.284 56.6664 150.241 56.7968 150.132 56.8838C150.023 56.9707 149.915 57.0142 149.762 57.0142H144.741V61.7309H150.545C150.697 61.7309 150.806 61.7961 150.914 61.9048Z" stroke="#46C3CF" stroke-width="1.06132" stroke-miterlimit="10"/>
<path d="M155.761 62.5133C155.109 62.2307 154.501 61.796 153.892 61.2091C153.762 61.1004 153.675 60.9483 153.675 60.7961C153.675 60.6657 153.74 60.5353 153.849 60.4049C153.957 60.2962 154.088 60.231 154.218 60.231C154.349 60.231 154.479 60.2962 154.609 60.4049C155.522 61.4047 156.653 61.9047 158 61.9047C158.826 61.9047 159.522 61.709 160.087 61.3178C160.63 60.9265 160.913 60.4049 160.913 59.7745C160.913 59.2746 160.783 58.8616 160.5 58.5356C160.217 58.2095 159.87 57.927 159.435 57.7313C159 57.514 158.435 57.3183 157.739 57.0792C157 56.8619 156.37 56.6228 155.87 56.3402C155.37 56.0576 154.957 55.7099 154.653 55.2751C154.349 54.8187 154.175 54.2535 154.175 53.5797C154.175 52.9711 154.349 52.4277 154.675 51.9495C155.001 51.4713 155.479 51.1018 156.066 50.8192C156.653 50.5367 157.348 50.4062 158.131 50.4062C158.848 50.4062 159.5 50.5149 160.13 50.754C160.761 50.9931 161.239 51.3409 161.608 51.7756C161.782 51.9713 161.869 52.1451 161.869 52.2756C161.869 52.406 161.804 52.5147 161.695 52.6233C161.587 52.732 161.456 52.7972 161.304 52.7972C161.195 52.7972 161.087 52.7538 161 52.6668C160.696 52.2973 160.261 51.993 159.739 51.7539C159.218 51.5148 158.674 51.4061 158.109 51.4061C157.261 51.4061 156.566 51.6017 156.044 51.9713C155.501 52.3408 155.24 52.8624 155.24 53.5145C155.24 54.1883 155.501 54.71 156.001 55.0578C156.501 55.4273 157.24 55.7533 158.196 56.0576C159.022 56.2967 159.696 56.5576 160.217 56.7967C160.739 57.0575 161.174 57.4053 161.5 57.8835C161.826 58.3617 162 58.9703 162 59.731C162 60.3179 161.826 60.8613 161.478 61.3395C161.13 61.8177 160.652 62.209 160.043 62.4698C159.435 62.7306 158.739 62.8828 157.957 62.8828C157.131 62.948 156.392 62.7958 155.761 62.5133Z" stroke="#46C3CF" stroke-width="1.06132" stroke-miterlimit="10"/>
</svg>
