<svg id="cis-logo" data-name="CIS Logo" role="logo" aria-label="The CIS Logo that links to home page" xmlns="http://www.w3.org/2000/svg" viewBox="0 0 272.13 127.56"><defs><style>.cls-1{fill:#fff;}.cls-2{fill:#005953;}</style></defs><title>The Centre for Independent Studies</title><path class="cls-1" d="M547.31,532.23H275.18V404.67H547.31Z" transform="translate(-275.18 -404.67)"/><path class="cls-2" d="M547.31,532.23H275.18V404.67H547.31ZM278.72,528.6h265V408.3h-265Z" transform="translate(-275.18 -404.67)"/><rect class="cls-2" x="7.09" y="7.09" width="257.95" height="113.39"/><path class="cls-1" d="M335.52,428.77a.71.71,0,0,0-.27.07l0,0,0,0c-.18.3-.39.36-1.32.36h-7.65c-1.3,0-1.44,0-1.51-.32l0-.05a.33.33,0,0,0-.28-.11.35.35,0,0,0-.3.11l0,.05a20.66,20.66,0,0,1-.73,2.41v0l0,.05a.55.55,0,0,0,.5.24.53.53,0,0,0,.29-.08l0,0c.68-1.27,1.17-1.41,2.82-1.41H328c.38,0,.38,0,.38.58v6.93c0,1.59-.11,1.6-.94,1.69l-.78.08-.06,0a.44.44,0,0,0,.06.69h.05c1.22,0,2.09-.05,2.9-.05s1.71,0,2.76.05h0a.36.36,0,0,0,.19-.28.44.44,0,0,0-.12-.4l0,0-.72-.07c-.81-.07-.93-.08-.93-1.71v-6.93c0-.58,0-.58.38-.58h1.07c2,0,2.26.29,2.48,1.46v0l0,0a.56.56,0,0,0,.33.09.55.55,0,0,0,.42-.17l0,0v-.05a9.48,9.48,0,0,1,.28-2.5l0-.06,0-.05A.41.41,0,0,0,335.52,428.77Z" transform="translate(-275.18 -404.67)"/><path class="cls-1" d="M351.62,439.43l-.46-.05c-.81-.09-.93-.1-.93-1.73v-6c0-1.59.1-1.6.94-1.73l.34,0,.05,0a.39.39,0,0,0,.14-.36.37.37,0,0,0-.2-.33h-.05c-.73,0-1.56.05-2.42.05s-1.68,0-2.53-.05h-.05a.39.39,0,0,0-.2.32.4.4,0,0,0,.14.37l.47.06c.82.09.94.11.94,1.73v1.94c0,.35,0,.35-.89.35h-4.39c-.89,0-.89,0-.89-.35v-1.94c0-1.59.11-1.6.95-1.73l.32,0,.05,0a.4.4,0,0,0,.14-.37.37.37,0,0,0-.2-.32h-.05c-1.41.07-3.33.07-4.93,0h-.05a.37.37,0,0,0-.2.33.39.39,0,0,0,.14.36l.47.06c.83.1.94.11.94,1.73v6c0,1.62-.13,1.64-.94,1.74l-.3,0,0,0a.47.47,0,0,0-.13.4.4.4,0,0,0,.2.28h.05c.74,0,1.58-.05,2.38-.05s1.56,0,2.64.05h.05a.35.35,0,0,0,.2-.28.46.46,0,0,0-.12-.4l0,0-.61-.07c-.83-.09-.94-.1-.94-1.71V435.3c0-.34,0-.35.89-.35h4.39c.89,0,.89,0,.89.35v2.35c0,1.63-.12,1.64-.94,1.73l-.45.05,0,0a.44.44,0,0,0-.12.4.33.33,0,0,0,.19.28h.05c.89,0,1.72-.05,2.53-.05s1.62,0,2.49.05h.05a.34.34,0,0,0,.2-.28.44.44,0,0,0-.12-.4Z" transform="translate(-275.18 -404.67)"/><path class="cls-1" d="M363.69,437.49h0v0c-.64,1.26-1,1.67-3.22,1.67h-.12c-1.61,0-1.85-.14-2-.32S358,438,358,437.3v-2c0-.31,0-.31.32-.31h.9c1.67,0,1.85.06,2,.61l.14.7.05,0a.64.64,0,0,0,.37.09.5.5,0,0,0,.39-.13l0,0v0c0-.15,0-.31,0-.46,0-.39,0-.79,0-1.23s0-.89,0-1.27l0-.37,0,0a.5.5,0,0,0-.4-.15.63.63,0,0,0-.38.11l0,0-.15.59c-.14.57-.27.61-2,.61h-.9c-.32,0-.32,0-.32-.31V431c0-.82,0-.82.68-.82h1.25a7.67,7.67,0,0,1,1.48.14c.53.13.79.46,1.09,1.38v0l0,0a.6.6,0,0,0,.32.08.52.52,0,0,0,.45-.18l0,0v0c0-.32-.1-.75-.15-1.17s-.11-.92-.15-1.08l0-.1h-.11c-.21,0-1.2.05-2.52.05H356.8c-.88,0-1.74,0-2.41-.05h-.06a.33.33,0,0,0-.19.27.45.45,0,0,0,.12.41l0,0,.34,0c.81.08.94.1.94,1.74v6c0,1.63-.12,1.64-.94,1.71l-.73.07,0,0a.47.47,0,0,0-.13.4.38.38,0,0,0,.2.28H354c.81,0,1.94-.05,2.81-.05h2.14c2.13,0,3.78,0,4.63.05h.07l0-.06a9.54,9.54,0,0,0,.81-2.37v-.06l0,0A.63.63,0,0,0,363.69,437.49Z" transform="translate(-275.18 -404.67)"/><path class="cls-1" d="M383.29,436.89l0,0a4,4,0,0,1-3.81,2.32,4.67,4.67,0,0,1-4.79-5,4.39,4.39,0,0,1,4.65-4.61c1.87,0,3.05.75,3.52,2.25l0,0,0,0a.57.57,0,0,0,.35.1.61.61,0,0,0,.42-.14l.05,0v-.07c-.14-.9-.2-1.67-.23-2.13,0-.16,0-.28,0-.37v-.09l-.17,0-.45-.08a17,17,0,0,0-3.27-.36,9.84,9.84,0,0,0-5.24,1.39,5.1,5.1,0,0,0-2.42,4.36,5,5,0,0,0,2.72,4.52,9.86,9.86,0,0,0,4.87,1.09,12.61,12.61,0,0,0,2.95-.39l.17,0a4.1,4.1,0,0,1,.48-.1h0l0,0a5.79,5.79,0,0,0,.93-2.51v0l0,0A.54.54,0,0,0,383.29,436.89Z" transform="translate(-275.18 -404.67)"/><path class="cls-1" d="M395.57,437.49h0v0c-.64,1.26-1,1.67-3.22,1.67h-.12c-1.61,0-1.86-.14-2-.32s-.28-.89-.28-1.58v-2c0-.31,0-.31.33-.31h.9c1.67,0,1.85.06,2,.61l.14.7,0,0a.76.76,0,0,0,.38.08.51.51,0,0,0,.39-.13l0,0v0c0-.14,0-.28,0-.43,0-.4,0-.81,0-1.26s0-.94,0-1.32l0-.32,0,0a.48.48,0,0,0-.39-.15.63.63,0,0,0-.38.11l0,0-.14.59c-.14.57-.27.61-2,.61h-.9c-.33,0-.33,0-.33-.31V431c0-.82,0-.82.68-.82h1.26a7.49,7.49,0,0,1,1.47.14c.53.13.8.46,1.09,1.38l0,0,0,0a.58.58,0,0,0,.32.08.54.54,0,0,0,.45-.18l0,0v0c-.05-.32-.1-.75-.15-1.16a9.71,9.71,0,0,0-.16-1.09l0-.1h-.11c-.22,0-1.21.05-2.52.05h-3.58c-.88,0-1.74,0-2.42-.05h-.05a.36.36,0,0,0-.2.28.47.47,0,0,0,.13.4l0,0,.34,0c.81.08.94.1.94,1.74v6c0,1.63-.13,1.64-.94,1.71l-.74.07,0,0a.44.44,0,0,0-.12.4.36.36,0,0,0,.19.28h.06c.81,0,1.94-.05,2.81-.05h2.14c2.13,0,3.77,0,4.63.05h.07l0-.06a9.15,9.15,0,0,0,.8-2.37v-.06l0,0A.63.63,0,0,0,395.57,437.49Z" transform="translate(-275.18 -404.67)"/><path class="cls-1" d="M411.42,428.94l0,0h0c-.68,0-1.18.05-2,.05s-1.47,0-2.15-.05h0a.32.32,0,0,0-.24.28.41.41,0,0,0,.17.41l.48.07a1.08,1.08,0,0,1,.85.35,8.31,8.31,0,0,1,.34,3.09v3.3c-.32-.27-1.1-1-1.7-1.59l-.87-.83-1.88-1.73a22.54,22.54,0,0,1-3-3.29l0-.08h-.09c-.4,0-.84.05-1.28.05h-.61c-.45,0-1.1,0-1.6-.05h0a.32.32,0,0,0-.24.28.42.42,0,0,0,.12.41l.33.07a3,3,0,0,1,.95.3c.57.41.57.62.57,1.76v3.91a10.57,10.57,0,0,1-.24,3.11c-.09.18-.36.23-.67.29l-.48.09-.05,0a.4.4,0,0,0-.14.35.41.41,0,0,0,.2.33l0,0h0c.6,0,1.11-.05,1.95-.05s1.46,0,2.13.05h0a.35.35,0,0,0,.24-.28.42.42,0,0,0-.17-.41l-.47-.07c-.46-.05-.73-.15-.86-.35a8.8,8.8,0,0,1-.32-3.09v-3.13c0-.38,0-.65,0-.81.36.31,1,.93,2,1.9L407,437.9c1.31,1.27,1.88,1.85,2.19,2.2l0,0h.12a.89.89,0,0,0,.68-.27l0,0v-.06c0-.17-.06-.79-.06-2.81v-3.83a10.16,10.16,0,0,1,.25-3.11c.1-.19.36-.24.67-.29l.48-.09.05,0a.41.41,0,0,0,.15-.35A.4.4,0,0,0,411.42,428.94Z" transform="translate(-275.18 -404.67)"/><path class="cls-1" d="M425.45,428.77a.82.82,0,0,0-.28.07l0,0,0,0c-.18.3-.39.36-1.32.36h-7.65c-1.31,0-1.45,0-1.51-.32l0-.05a.36.36,0,0,0-.28-.11.36.36,0,0,0-.31.11l0,.05a23.75,23.75,0,0,1-.73,2.41l0,0,0,.05a.55.55,0,0,0,.5.24.5.5,0,0,0,.28-.08l0,0c.68-1.27,1.17-1.41,2.81-1.41H418c.38,0,.38,0,.38.58v6.93c0,1.59-.09,1.6-.94,1.69l-.79.08-.05,0a.4.4,0,0,0-.15.36.39.39,0,0,0,.2.33h.05c1.23,0,2.09-.05,2.91-.05s1.7,0,2.75.05h.06a.36.36,0,0,0,.19-.28.44.44,0,0,0-.13-.4l0,0-.71-.07c-.81-.07-.94-.08-.94-1.71v-6.93c0-.58,0-.58.38-.58h1.07c2,0,2.26.29,2.49,1.46v0l0,0a.6.6,0,0,0,.33.09.54.54,0,0,0,.42-.17l0,0v-.05a9.79,9.79,0,0,1,.27-2.5l0-.06,0-.05A.39.39,0,0,0,425.45,428.77Z" transform="translate(-275.18 -404.67)"/><path class="cls-1" d="M439.85,439.49h-.06a2.51,2.51,0,0,1-1.23-.47,18.88,18.88,0,0,1-3.23-4l-.06-.09c0-.05,0-.08-.06-.08h0c.87-.31,2.34-1.06,2.34-2.66a2.62,2.62,0,0,0-1.73-2.45,8.93,8.93,0,0,0-3.61-.56c-1.65,0-3.22.05-4.33.14l-.05,0a.37.37,0,0,0-.18.28.43.43,0,0,0,.14.37l0,0,.53.05c.76.07.78.13.78,1.69v5.87c0,1.62-.1,1.63-.94,1.72l-.41,0,0,0a.41.41,0,0,0,.06.69h0c1.72-.07,3.4-.07,5,0h.05a.34.34,0,0,0,.2-.28.46.46,0,0,0-.13-.4l0,0-.45-.06c-.83-.09-.94-.1-.94-1.72v-2.05c0-.23,0-.23.46-.23s.74,0,1.06.49l.62.93c.28.43.58.88.87,1.26a4.49,4.49,0,0,0,4,2.17,6.27,6.27,0,0,0,1.27-.1h0l0,0a.41.41,0,0,0,.05-.29A.33.33,0,0,0,439.85,439.49Zm-7.51-5.06c-.78,0-.78,0-.78-.42v-3.34c0-.66,0-.66.87-.66a2.26,2.26,0,0,1,2.46,2.25C434.89,433.74,434.08,434.43,432.34,434.43Z" transform="translate(-275.18 -404.67)"/><path class="cls-1" d="M451.59,437.49h0l0,0c-.63,1.26-1,1.67-3.21,1.67h-.13c-1.61,0-1.85-.14-2-.32s-.28-.89-.28-1.58v-2c0-.31,0-.31.32-.31h.9c1.67,0,1.86.06,2,.61l.15.7,0,0a.74.74,0,0,0,.38.08.48.48,0,0,0,.38-.13l0,0v0c0-.17,0-.34,0-.52,0-.37,0-.75,0-1.17s0-.84,0-1.2c0-.14,0-.27,0-.39v-.05l0,0a.49.49,0,0,0-.39-.15.65.65,0,0,0-.39.11l0,0-.14.59c-.15.57-.27.61-2,.61h-.9c-.32,0-.32,0-.32-.31V431c0-.82,0-.82.68-.82h1.26a7.64,7.64,0,0,1,1.47.14c.53.13.79.46,1.09,1.38v0l0,0a.62.62,0,0,0,.32.08.56.56,0,0,0,.46-.18l0,0v0c-.05-.32-.1-.76-.15-1.17s-.11-.92-.15-1.08l0-.1h-.11c-.21,0-1.2.05-2.51.05h-3.59c-.87,0-1.73,0-2.41-.05h0a.34.34,0,0,0-.2.28.44.44,0,0,0,.13.4l0,0,.34,0c.81.08.93.1.93,1.74v6c0,1.63-.12,1.64-.93,1.71l-.74.07,0,0a.44.44,0,0,0-.12.4.35.35,0,0,0,.19.28h.05c.82,0,1.95-.05,2.81-.05h2.14c2.13,0,3.78,0,4.63.05h.07l0-.06a9.4,9.4,0,0,0,.81-2.37v-.06l0,0A.64.64,0,0,0,451.59,437.49Z" transform="translate(-275.18 -404.67)"/><path class="cls-1" d="M468.7,429.33v-.14h-.13c-.36,0-1.35.05-2.64.05h-3.54c-.87,0-1.7,0-2.32-.05H460a.33.33,0,0,0-.19.28.44.44,0,0,0,.12.4l0,0,.28,0c.84.11.94.12.94,1.74v6c0,1.63-.12,1.64-.94,1.73l-.45.05,0,0a.44.44,0,0,0-.12.4.32.32,0,0,0,.2.28h0c.93,0,1.76-.05,2.52-.05s1.59,0,2.87.05h0a.34.34,0,0,0,.2-.28.44.44,0,0,0-.13-.4l0,0-.82-.09c-.85-.09-.94-.1-.94-1.69v-2.24c0-.31,0-.31.32-.31h1.11c1.67,0,1.84,0,2,.61l.16.66,0,0a.54.54,0,0,0,.37.12.46.46,0,0,0,.38-.15l0,0v0c0-.15,0-.31,0-.47,0-.38,0-.78,0-1.2s0-.92,0-1.29l0-.35,0,0a.48.48,0,0,0-.38-.14.58.58,0,0,0-.37.11l0,0-.16.58c-.16.56-.3.61-2,.61h-1.11c-.32,0-.32,0-.32-.31V431c0-.81,0-.81.66-.81h1a6.55,6.55,0,0,1,1.55.13c.62.14.91.52,1.1,1.45v.06l.06,0a.67.67,0,0,0,.33.07c.07,0,.34,0,.43-.18l0,0v0C468.72,431.13,468.7,430.36,468.7,429.33Z" transform="translate(-275.18 -404.67)"/><path class="cls-1" d="M477.72,428.78c-4,0-6.85,2.45-6.85,5.83,0,2.74,2.34,5.53,6.81,5.53,3.83,0,6.73-2.43,6.73-5.65C484.41,431.74,482.31,428.78,477.72,428.78Zm.15,10.47c-3.31,0-4.19-3.21-4.19-5.11,0-3.29,2-4.46,3.79-4.46,2.84,0,4.14,2.64,4.14,5.11C481.61,437.62,480.24,439.25,477.87,439.25Z" transform="translate(-275.18 -404.67)"/><path class="cls-1" d="M499,439.5l0,0h0a2.51,2.51,0,0,1-1.23-.47,18.88,18.88,0,0,1-3.24-4.06l-.05-.07-.06-.08c.88-.31,2.33-1.06,2.33-2.66a2.61,2.61,0,0,0-1.72-2.45,9,9,0,0,0-3.62-.56c-1.64,0-3.21.05-4.32.14l-.05,0a.37.37,0,0,0-.18.28.43.43,0,0,0,.14.37l0,0,.53.05c.76.07.79.13.79,1.69v5.87c0,1.62-.13,1.63-.95,1.72l-.41,0-.05,0a.38.38,0,0,0-.16.36.38.38,0,0,0,.22.33H487c1.72-.07,3.4-.06,5,0h.05a.36.36,0,0,0,.2-.28.46.46,0,0,0-.13-.4l0,0-.45-.06c-.83-.09-.94-.1-.94-1.72v-2.05c0-.23,0-.23.46-.23s.74,0,1.06.49c.2.28.4.6.62.93s.58.88.86,1.26a4.52,4.52,0,0,0,4,2.17A6.27,6.27,0,0,0,499,440h.05l0,0A.37.37,0,0,0,499,439.5Zm-7.51-5.07c-.78,0-.78,0-.78-.42v-3.34c0-.66,0-.66.87-.66a2.28,2.28,0,0,1,2.46,2.25C494.06,433.74,493.25,434.43,491.51,434.43Z" transform="translate(-275.18 -404.67)"/><path class="cls-1" d="M358,499.28l-1.58-.73c-1.49-.67-2.35-1.61-2.35-2.56s.73-2.17,2.76-2.17a3.36,3.36,0,0,1,3.32,2.52v0l0,0a.88.88,0,0,0,.45.12.63.63,0,0,0,.54-.23l0,0v0a8.22,8.22,0,0,0-.55-3l0,0h-.06l-.88-.16a14.08,14.08,0,0,0-2.63-.3c-4.23,0-5.73,2.23-5.73,4.14,0,1.71,1.23,3.17,3.66,4.34l1.09.53c1.75.84,2.53,1.79,2.53,3.06s-1.14,2.23-2.9,2.23c-2.69,0-4-2.83-4.22-3.39v0l0,0a.72.72,0,0,0-.42-.13.67.67,0,0,0-.55.24l0,0v0a5.92,5.92,0,0,0,.8,3.43l0,0a8.84,8.84,0,0,0,4.24.93c3.66,0,6-1.73,6-4.4C361.51,501.38,359.57,500,358,499.28Z" transform="translate(-275.18 -404.67)"/><path class="cls-1" d="M381.73,492.69a1,1,0,0,0-.36.1l0,0,0,0c-.26.43-.55.51-1.83.51h-10.4c-1.73,0-2,0-2.09-.47l0-.05a.42.42,0,0,0-.35-.14.43.43,0,0,0-.38.14l0,.05a30.55,30.55,0,0,1-1,3.29l0,.05,0,0a.74.74,0,0,0,.65.29.61.61,0,0,0,.36-.09l0,0c.94-1.76,1.61-1.95,3.87-1.95h1.42c.57,0,.57,0,.57.84v9.47c0,2.21-.15,2.23-1.32,2.35l-1.07.11-.05,0a.48.48,0,0,0-.18.45.47.47,0,0,0,.25.41h.05c1.53,0,2.78-.06,3.95-.06,1,0,2.1,0,3.74.06h.05a.46.46,0,0,0,.24-.35.55.55,0,0,0-.16-.5l0,0-1-.09c-1.14-.1-1.32-.12-1.32-2.37v-9.47c0-.84,0-.84.57-.84h1.45c2.73,0,3.1.41,3.42,2v.05l0,0a.73.73,0,0,0,.43.12.66.66,0,0,0,.53-.22l0,0v0a13.29,13.29,0,0,1,.38-3.43l0-.06,0-.05A.5.5,0,0,0,381.73,492.69Z" transform="translate(-275.18 -404.67)"/><path class="cls-1" d="M403.41,492.7h-.07c-1,.05-1.66.07-2.69.07s-1.93,0-2.83-.07h0a.43.43,0,0,0-.29.35.49.49,0,0,0,.21.49l.56.09c.64.09,1,.24,1.19.52.46.64.46,3,.46,4.24v2.75c0,3.57-1.54,5.37-4.59,5.37s-4.49-1.83-4.49-5.44v-5c0-2.27.2-2.3,1.32-2.42l.6-.07,0,0a.53.53,0,0,0,.15-.48.41.41,0,0,0-.23-.34h-.06c-1.17.05-2.32.07-3.41.07s-2.23,0-3.28-.07h-.05a.4.4,0,0,0-.24.34.53.53,0,0,0,.15.48l0,0,.47.07c1.14.17,1.32.19,1.32,2.42v5.57c0,2.26.56,3.83,1.73,4.79s2.87,1.43,5.32,1.43a7.44,7.44,0,0,0,5.08-1.68c1.18-1.09,1.72-2.73,1.72-5.16v-2.61c0-1.7,0-3.63.35-4.26.15-.29.57-.37,1-.46l.56-.11.06,0a.49.49,0,0,0,.17-.43A.5.5,0,0,0,403.41,492.7Z" transform="translate(-275.18 -404.67)"/><path class="cls-1" d="M420.08,493.44a19.41,19.41,0,0,0-6.05-.75c-2.39,0-4.48.06-6.38.2h0a.5.5,0,0,0-.22.42.47.47,0,0,0,.19.41l.59.07c1.08.08,1.11.27,1.11,2.37v8c0,2.25-.18,2.27-1.32,2.39l-.6.08,0,0a.54.54,0,0,0-.16.5.43.43,0,0,0,.24.34l0,0h0c1.26-.05,2.46-.06,3.24-.06.4,0,.86,0,1.38,0,.67,0,1.43.08,2.31.08a16,16,0,0,0,6.37-1.06,7.1,7.1,0,0,0,4.64-6.43C425.4,497,423.41,494.49,420.08,493.44Zm-4.85,13c-2.63,0-2.75-1.08-2.75-3.14v-7.72a3.45,3.45,0,0,1,.15-1.52,5.21,5.21,0,0,1,2-.28c4.49,0,7.06,2.3,7.06,6.32S419.33,506.48,415.23,506.48Z" transform="translate(-275.18 -404.67)"/><path class="cls-1" d="M436.3,493.64l.6-.07,0,0a.55.55,0,0,0,.15-.5.41.41,0,0,0-.24-.35h0c-1.17.05-2.31.07-3.38.07s-2.27,0-3.44-.07h-.05a.45.45,0,0,0-.24.35.55.55,0,0,0,.16.5l0,0,.6.07c1.14.13,1.32.15,1.32,2.4v8.16c0,2.25-.18,2.27-1.32,2.39l-.6.08,0,0a.54.54,0,0,0-.16.5.43.43,0,0,0,.24.34l0,0h0c1,0,2.17-.06,3.44-.06s2.36,0,3.38.06h0l0,0a.39.39,0,0,0,.24-.34.54.54,0,0,0-.15-.5l0,0-.6-.08c-1.14-.12-1.31-.14-1.31-2.39V496C435,493.79,435.16,493.77,436.3,493.64Z" transform="translate(-275.18 -404.67)"/><path class="cls-1" d="M455.94,503.9a.71.71,0,0,0-.39.11l0,0c-.87,1.74-1.4,2.3-4.42,2.3h-.15c-2.21,0-2.54-.19-2.79-.45s-.4-1-.4-2.19v-2.78c0-.47,0-.47.49-.47h1.22c2.22,0,2.55.05,2.7.86l.2.93,0,0a.85.85,0,0,0,.48.12.73.73,0,0,0,.5-.16l0,0v-.05c0-.21,0-.42,0-.65,0-.52-.05-1.07-.05-1.65s0-1.21.05-1.73l0-.49,0,0a.64.64,0,0,0-.5-.19.81.81,0,0,0-.49.14l0,0-.19.78c-.21.85-.46.87-2.71.87h-1.22c-.49,0-.49,0-.49-.46v-3.71c0-1.17,0-1.17,1-1.17h1.71a10.9,10.9,0,0,1,2,.19c.74.18,1.1.65,1.51,1.92v0l0,0a.81.81,0,0,0,.4.09.74.74,0,0,0,.59-.22l0,0v-.05c-.07-.43-.14-1-.2-1.57s-.15-1.28-.21-1.49l0-.1h-.11c-.3,0-1.71.07-3.42.07h-4.87c-1.11,0-2.31,0-3.28-.07h-.05a.4.4,0,0,0-.24.34.59.59,0,0,0,.15.51l0,0,.45.05c1.11.12,1.31.15,1.31,2.42v8.16c0,2.25-.17,2.26-1.31,2.37l-1,.1,0,0a.54.54,0,0,0-.16.5.43.43,0,0,0,.24.34l0,0h0c1.15,0,2.73-.06,3.82-.06h2.91c3.25,0,5.25,0,6.29.06h.07l0-.07a12.53,12.53,0,0,0,1.08-3.22v-.05l0,0A.72.72,0,0,0,455.94,503.9Z" transform="translate(-275.18 -404.67)"/><path class="cls-1" d="M468.52,499.28l-1.58-.73c-1.49-.67-2.35-1.61-2.35-2.56s.72-2.17,2.76-2.17a3.36,3.36,0,0,1,3.32,2.52v0l0,0a.88.88,0,0,0,.45.12.63.63,0,0,0,.54-.23l0,0v0a8,8,0,0,0-.56-3l0,0h-.05l-.88-.15a13.17,13.17,0,0,0-2.63-.31c-4.24,0-5.74,2.23-5.74,4.14,0,1.71,1.24,3.17,3.67,4.34l1.09.53c1.75.84,2.53,1.79,2.53,3.06S468,507,466.22,507c-2.69,0-4-2.83-4.21-3.39v0l0,0a.72.72,0,0,0-.42-.13.65.65,0,0,0-.55.24l0,0v0a5.92,5.92,0,0,0,.8,3.43l0,0a8.84,8.84,0,0,0,4.24.93c3.66,0,6-1.73,6-4.4C472.08,501.38,470.14,500,468.52,499.28Z" transform="translate(-275.18 -404.67)"/><path class="cls-1" d="M308.16,458.2l.8-.15a.8.8,0,0,0,0-1c-1.54.06-3,.08-4.31.08s-2.8,0-4.35-.08a.83.83,0,0,0,0,1l.81.15c1.31.23,1.48.43,1.48,3.11v10.52c0,2.68-.17,2.88-1.48,3.11l-.81.14a.86.86,0,0,0,0,1c1.55-.07,3-.09,4.35-.09s2.74,0,4.28.09a.83.83,0,0,0,0-1l-.8-.14c-1.31-.23-1.48-.43-1.48-3.11V461.31C306.68,458.63,306.85,458.43,308.16,458.2Z" transform="translate(-275.18 -404.67)"/><path class="cls-1" d="M329.56,457.14c-1.17,0-2.29,0-3.83-.08a.89.89,0,0,0,0,1l.77.12c.77.11,1.4.32,1.66.92a20.15,20.15,0,0,1,.43,5.23v3.94a3.87,3.87,0,0,1-.12,1.28c-.65-.66-1.48-1.66-2.74-3.14l-2.4-2.83c-2.57-3.05-4.43-5.22-4.71-6.51-.6.06-1.43.08-2.4.08-1.17,0-2.6,0-3.94-.08-.29.08-.32.77-.12,1l.8.12c1,.14,1.4.49,1.63,1a6.63,6.63,0,0,1,.2,2.43v7.26a20.49,20.49,0,0,1-.4,5.22c-.23.6-.8.8-1.57.95l-.49.08a.94.94,0,0,0,0,1c1.09-.07,2.15-.09,3.2-.09s2.29,0,3.83.09a.92.92,0,0,0,0-1l-.8-.11c-.74-.12-1.4-.32-1.66-.92a20.24,20.24,0,0,1-.42-5.22v-5.55a5.1,5.1,0,0,1,.14-1.82,39.38,39.38,0,0,1,3.11,3.65l6.6,8.17c1.34,1.66,2.29,3.12,2.31,3.12a2.23,2.23,0,0,0,1.69-.66c-.06-.94-.06-2.74-.06-4.6v-6.82a20.15,20.15,0,0,1,.43-5.23,1.77,1.77,0,0,1,1.54-.95l.52-.09a.89.89,0,0,0,0-1C331.64,457.12,330.61,457.14,329.56,457.14Z" transform="translate(-275.18 -404.67)"/><path class="cls-1" d="M350.45,458a20.14,20.14,0,0,0-6.66-.94c-3,0-5.26.11-7.66.25-.34,0-.34.86-.06,1l.55.06c1.31.14,1.37.69,1.37,3.4v10.11c0,2.63-.17,2.86-1.46,3.06l-.88.14a.82.82,0,0,0,0,1c1.63-.07,3.08-.09,4.45-.09,1,0,2.46.17,3.8.17a15.94,15.94,0,0,0,7.23-1.35,9.08,9.08,0,0,0,5.11-8.54A8.65,8.65,0,0,0,350.45,458ZM345,474.85a3.11,3.11,0,0,1-2.37-.82c-.52-.6-.58-1.63-.58-3.21V460.4a3.46,3.46,0,0,1,.2-1.65c.18-.24.72-.38,1.49-.38,5.17,0,7.88,3.06,7.88,8.2C351.64,470.46,350,474.85,345,474.85Z" transform="translate(-275.18 -404.67)"/><path class="cls-1" d="M374.93,471.37c-1.57,3.22-2.54,3.31-5,3.31-2.08,0-2.63-.22-3-.74a5.2,5.2,0,0,1-.45-2.71v-3.4c0-.86,0-.89.8-.89h2c1.48,0,1.83.23,2.11,1.6l.14.72c.2.25.92.23,1.06,0-.06-.91-.09-1.93-.09-3s0-2.12.09-3c-.14-.26-.86-.26-1.06,0l-.14.72c-.28,1.37-.63,1.57-2.11,1.57h-2c-.78,0-.8-.06-.8-.86v-5c0-1.06,0-1.11.94-1.11h2.28a3.76,3.76,0,0,1,2.8.88,6.57,6.57,0,0,1,1.09,2.26c.28.25.94.2,1.06-.12-.15-1.91-.35-4-.38-4.42-.37.06-2,.08-3.82.08h-6.06c-1.37,0-2.77,0-4.11-.08a.7.7,0,0,0-.06,1l.71.15c1.29.26,1.46.43,1.46,3v10.65c0,2.63-.17,2.8-1.46,3l-1.34.2a.82.82,0,0,0,0,1c2.14-.07,3.54-.09,4.92-.09h3.71c2.34,0,5.08,0,6.6.09a16.5,16.5,0,0,0,1.2-4.58A.7.7,0,0,0,374.93,471.37Z" transform="translate(-275.18 -404.67)"/><path class="cls-1" d="M390.76,457.8a14.54,14.54,0,0,0-5.23-.74c-2.48,0-4.71.11-6.6.25a.66.66,0,0,0-.05,1l.88.12c1.2.14,1.26.49,1.26,3.37v10.11c0,2.66-.17,2.86-1.46,3.09l-.8.14c-.31.15-.26.8.06,1,1.54-.07,2.91-.09,4.28-.09s2.77,0,4.37.09a.62.62,0,0,0,0-1l-.91-.14c-1.29-.2-1.46-.43-1.46-3.09V459.83c0-1.14.06-1.46,1.12-1.46,2.57,0,3.65,2.29,3.65,4.4s-.48,3.8-2.85,4.54a.54.54,0,0,0,.08.77,9.12,9.12,0,0,0,.92,0c1.51,0,6.22-.68,6.22-5.37A5.08,5.08,0,0,0,390.76,457.8Z" transform="translate(-275.18 -404.67)"/><path class="cls-1" d="M412,471.37c-1.57,3.22-2.54,3.31-5,3.31-2.08,0-2.63-.22-3-.74a5.18,5.18,0,0,1-.46-2.71v-3.4c0-.86,0-.89.81-.89h2c1.49,0,1.83.23,2.12,1.6l.14.72c.2.25.92.23,1.06,0-.06-.91-.09-1.93-.09-3s0-2.12.09-3c-.14-.26-.86-.26-1.06,0l-.14.72c-.29,1.37-.63,1.57-2.12,1.57h-2c-.78,0-.81-.06-.81-.86v-5c0-1.06,0-1.11.95-1.11h2.28a3.76,3.76,0,0,1,2.8.88,6.76,6.76,0,0,1,1.09,2.26c.28.25.94.2,1.06-.12-.15-1.91-.35-4-.38-4.42-.37.06-2,.08-3.83.08h-6.05c-1.37,0-2.77,0-4.11-.08a.7.7,0,0,0-.06,1l.71.15c1.29.26,1.46.43,1.46,3v10.65c0,2.63-.17,2.8-1.46,3l-1.34.2a.82.82,0,0,0,0,1c2.14-.07,3.54-.09,4.91-.09h3.72c2.34,0,5.08,0,6.6.09a16.19,16.19,0,0,0,1.19-4.58A.68.68,0,0,0,412,471.37Z" transform="translate(-275.18 -404.67)"/><path class="cls-1" d="M432.7,457.14c-1.17,0-2.28,0-3.83-.08a.89.89,0,0,0,0,1l.77.12c.78.11,1.41.32,1.66.92a19.71,19.71,0,0,1,.43,5.23v3.94a4.21,4.21,0,0,1-.11,1.28c-.66-.66-1.49-1.66-2.75-3.14l-2.4-2.83c-2.57-3.05-4.42-5.22-4.71-6.51-.6.06-1.43.08-2.4.08-1.17,0-2.6,0-3.94-.08-.29.08-.32.77-.12,1l.8.12c1,.14,1.4.49,1.63,1a6.63,6.63,0,0,1,.2,2.43v7.26a20,20,0,0,1-.4,5.22c-.23.6-.8.8-1.57.95l-.48.08a.91.91,0,0,0,0,1c1.08-.07,2.14-.09,3.19-.09s2.29,0,3.83.09a.92.92,0,0,0,0-1l-.8-.11c-.74-.12-1.4-.32-1.65-.92a19.67,19.67,0,0,1-.43-5.22v-5.55a5.1,5.1,0,0,1,.14-1.82,39.38,39.38,0,0,1,3.11,3.65l6.6,8.17c1.34,1.66,2.29,3.12,2.32,3.12a2.23,2.23,0,0,0,1.68-.66c-.06-.94-.06-2.74-.06-4.6v-6.82a20.15,20.15,0,0,1,.43-5.23,1.77,1.77,0,0,1,1.55-.95l.51-.09a.89.89,0,0,0,0-1C434.79,457.12,433.76,457.14,432.7,457.14Z" transform="translate(-275.18 -404.67)"/><path class="cls-1" d="M453.59,458a20.1,20.1,0,0,0-6.66-.94c-3,0-5.26.11-7.65.25-.35,0-.35.86-.06,1l.54.06c1.31.14,1.37.69,1.37,3.4v10.11c0,2.63-.17,2.86-1.46,3.06l-.88.14a.82.82,0,0,0,0,1c1.63-.07,3.08-.09,4.46-.09,1,0,2.45.17,3.8.17a15.92,15.92,0,0,0,7.22-1.35,9.09,9.09,0,0,0,5.12-8.54A8.66,8.66,0,0,0,453.59,458Zm-5.43,16.85a3.11,3.11,0,0,1-2.37-.82c-.52-.6-.57-1.63-.57-3.21V460.4a3.33,3.33,0,0,1,.2-1.65c.17-.24.71-.38,1.48-.38,5.17,0,7.89,3.06,7.89,8.2C454.79,470.46,453.1,474.85,448.16,474.85Z" transform="translate(-275.18 -404.67)"/><path class="cls-1" d="M478.07,471.37c-1.57,3.22-2.54,3.31-5,3.31-2.09,0-2.63-.22-3-.74a5.08,5.08,0,0,1-.46-2.71v-3.4c0-.86,0-.89.8-.89h2c1.49,0,1.83.23,2.11,1.6l.15.72c.2.25.91.23,1.05,0-.05-.91-.08-1.93-.08-3s0-2.12.08-3c-.14-.26-.85-.26-1.05,0l-.15.72c-.28,1.37-.62,1.57-2.11,1.57h-2c-.77,0-.8-.06-.8-.86v-5c0-1.06,0-1.11.94-1.11h2.29a3.78,3.78,0,0,1,2.8.88,6.59,6.59,0,0,1,1.08,2.26c.29.25.95.2,1.06-.12-.14-1.91-.35-4-.37-4.42-.37.06-2,.08-3.83.08H467.5c-1.37,0-2.77,0-4.11-.08a.7.7,0,0,0-.06,1l.72.15c1.28.26,1.45.43,1.45,3v10.65c0,2.63-.17,2.8-1.45,3l-1.35.2a.82.82,0,0,0,0,1c2.15-.07,3.55-.09,4.92-.09h3.71c2.34,0,5.09,0,6.6.09a16.16,16.16,0,0,0,1.2-4.58A.69.69,0,0,0,478.07,471.37Z" transform="translate(-275.18 -404.67)"/><path class="cls-1" d="M498.81,457.14c-1.17,0-2.28,0-3.82-.08a.89.89,0,0,0,0,1l.77.12c.77.11,1.4.32,1.65.92a19.71,19.71,0,0,1,.43,5.23v3.94a4.21,4.21,0,0,1-.11,1.28c-.66-.66-1.49-1.66-2.74-3.14l-2.4-2.83c-2.57-3.05-4.43-5.22-4.72-6.51-.6.06-1.43.08-2.4.08-1.17,0-2.6,0-3.94-.08-.28.08-.31.77-.11,1l.8.12c1,.14,1.4.49,1.63,1a6.63,6.63,0,0,1,.2,2.43v7.26a20.49,20.49,0,0,1-.4,5.22c-.23.6-.8.8-1.58.95l-.48.08a.92.92,0,0,0,0,1c1.08-.07,2.14-.09,3.2-.09s2.28,0,3.83.09a.94.94,0,0,0,0-1l-.8-.11c-.75-.12-1.4-.32-1.66-.92a19.67,19.67,0,0,1-.43-5.22v-5.55a5.1,5.1,0,0,1,.14-1.82,38.81,38.81,0,0,1,3.12,3.65l6.6,8.17c1.34,1.66,2.28,3.12,2.31,3.12a2.23,2.23,0,0,0,1.69-.66c-.06-.94-.06-2.74-.06-4.6v-6.82a19.71,19.71,0,0,1,.43-5.23,1.76,1.76,0,0,1,1.54-.95l.51-.09a.89.89,0,0,0,0-1C500.9,457.12,499.87,457.14,498.81,457.14Z" transform="translate(-275.18 -404.67)"/><path class="cls-1" d="M522.36,456.63a.6.6,0,0,0-.43-.2.78.78,0,0,0-.37.08c-.26.61-.69.63-2.57.63H508.36c-2.17,0-2.26-.11-2.4-.6a.69.69,0,0,0-.4-.11.65.65,0,0,0-.4.14,34.68,34.68,0,0,1-.94,4.86.81.81,0,0,0,1,.26c.86-2.09,1.46-3.23,3.55-3.23h1.77c.68,0,.68.14.68.82v12.6c0,2.66-.17,2.92-1.45,3.06l-1.29.14a.83.83,0,0,0,0,1c2-.07,3.49-.09,4.86-.09s2.71,0,4.57.09a.93.93,0,0,0,0-1l-1.14-.14c-1.29-.17-1.46-.4-1.46-3.06v-12.6c0-.74.08-.82.77-.82h1.71c2.15,0,2.55,1.34,3,3.17.14.22.91.17,1.06-.08A19.92,19.92,0,0,1,522.36,456.63Z" transform="translate(-275.18 -404.67)"/><path class="cls-1" d="M522.36,448.22c0,.55-.23,1-.52,1H300.65c-.28,0-.52-.45-.52-1h0c0-.55.24-1,.52-1H521.84c.29,0,.52.44.52,1Z" transform="translate(-275.18 -404.67)"/><path class="cls-1" d="M522.36,484.61c0,.55-.23,1-.52,1H300.65c-.28,0-.52-.44-.52-1h0c0-.55.24-1,.52-1H521.84c.29,0,.52.45.52,1Z" transform="translate(-275.18 -404.67)"/></svg>
