<svg width="58" height="52" viewBox="0 0 58 52" fill="none" xmlns="http://www.w3.org/2000/svg">
<path d="M27.7496 51.9952C42.1749 51.9952 53.8688 40.3557 53.8688 25.9976C53.8688 11.6395 42.1749 0 27.7496 0C13.3244 0 1.63037 11.6395 1.63037 25.9976C1.63037 40.3557 13.3244 51.9952 27.7496 51.9952Z" fill="#EEECEC"/>
<path d="M55.3549 12.6709C55.1381 12.6709 54.9301 12.5851 54.7768 12.4325C54.6235 12.2799 54.5374 12.0729 54.5374 11.8571V8.21906C54.5374 8.00323 54.6235 7.79625 54.7768 7.64364C54.9301 7.49102 55.1381 7.40529 55.3549 7.40529C55.4627 7.40466 55.5695 7.42524 55.6693 7.46585C55.769 7.50647 55.8597 7.56631 55.9362 7.64194C56.0126 7.71757 56.0732 7.80749 56.1146 7.90653C56.156 8.00558 56.1773 8.11179 56.1773 8.21906V11.8571C56.1773 11.9644 56.156 12.0706 56.1146 12.1696C56.0732 12.2687 56.0126 12.3586 55.9362 12.4342C55.8597 12.5098 55.769 12.5697 55.6693 12.6103C55.5695 12.6509 55.4627 12.6715 55.3549 12.6709Z" fill="#BCBFC3"/>
<path d="M52.7097 10.0524C52.711 9.83615 52.7982 9.62918 52.9523 9.4767C53.1064 9.32423 53.3148 9.23864 53.5321 9.23865H57.1824C57.3992 9.23865 57.6071 9.32438 57.7605 9.477C57.9138 9.62961 57.9999 9.83659 57.9999 10.0524C57.9999 10.2682 57.9138 10.4752 57.7605 10.6278C57.6071 10.7805 57.3992 10.8662 57.1824 10.8662H53.5321C53.3148 10.8662 53.1064 10.7806 52.9523 10.6281C52.7982 10.4757 52.711 10.2687 52.7097 10.0524Z" fill="#BCBFC3"/>
<path d="M2.64497 7.91267C2.42814 7.91267 2.22018 7.82694 2.06686 7.67433C1.91353 7.52171 1.82739 7.31473 1.82739 7.0989V3.46565C1.82739 3.24938 1.91337 3.0419 2.06656 2.88853C2.21975 2.73516 2.42769 2.64836 2.64497 2.64709C2.86225 2.64836 3.07019 2.73516 3.22338 2.88853C3.37657 3.0419 3.46255 3.24938 3.46255 3.46565V7.0989C3.46255 7.31473 3.37641 7.52171 3.22309 7.67433C3.06976 7.82694 2.86181 7.91267 2.64497 7.91267Z" fill="#BCBFC3"/>
<path d="M1.20401e-10 5.26555C1.20401e-10 5.04973 0.0861375 4.84274 0.239463 4.69013C0.392789 4.53752 0.600743 4.45178 0.817579 4.45178H4.47264C4.68947 4.45178 4.89743 4.53752 5.05075 4.69013C5.20408 4.84274 5.29022 5.04973 5.29022 5.26555C5.29022 5.48182 5.20424 5.6893 5.05105 5.84268C4.89786 5.99605 4.68991 6.08285 4.47264 6.08411H0.817579C0.600302 6.08285 0.392358 5.99605 0.239169 5.84268C0.08598 5.6893 -3.71525e-06 5.48182 1.20401e-10 5.26555H1.20401e-10Z" fill="#BCBFC3"/>
<path d="M48.1794 9.995H7.08887V41.4592H48.1794V9.995Z" fill="white"/>
<path d="M45.7604 15.4281V26.2656H41.8697H41.8264C42.3706 25.4291 42.6565 24.4522 42.6488 23.4557V18.1901C42.6485 17.2193 42.368 16.2689 41.8408 15.452L41.8841 15.4281H45.7604Z" fill="#DEECE8"/>
<path d="M33.362 17.7498H30.9573C30.3484 17.7439 29.7662 17.4998 29.3366 17.0701C29.0869 16.8271 28.899 16.5285 28.7883 16.1989H11.5422V33.2306H30.9814C30.9814 32.6204 31.1022 32.0163 31.3369 31.4526C31.5717 30.8889 31.9157 30.3769 32.3494 29.9456C32.7831 29.5144 33.298 29.1725 33.8645 28.9394C34.431 28.7063 35.0382 28.5867 35.6512 28.5873V21.8043C34.3872 20.8007 33.566 19.3463 33.362 17.7498ZM21.6417 30.909C20.4121 30.9033 19.2118 30.5352 18.1922 29.8511C17.1726 29.1671 16.3794 28.1977 15.9129 27.0653C15.4463 25.933 15.3271 24.6885 15.5705 23.4888C15.8139 22.2891 16.4088 21.1881 17.2803 20.3247C18.1518 19.4613 19.2607 18.8742 20.4671 18.6375C21.6735 18.4008 22.9233 18.5251 24.0587 18.9948C25.1942 19.4645 26.1644 20.2584 26.847 21.2764C27.5295 22.2944 27.8938 23.4909 27.8938 24.7147C27.8938 25.5306 27.7319 26.3384 27.4173 27.0918C27.1028 27.8452 26.6418 28.5293 26.0609 29.1049C25.4799 29.6805 24.7905 30.1361 24.0321 30.4457C23.2738 30.7553 22.4614 30.9128 21.6417 30.909Z" fill="#DEECE8"/>
<path d="M50.4254 37.8739V38.6493C50.4241 39.6756 50.0136 40.6594 49.2841 41.3846C48.5546 42.1098 47.5657 42.5172 46.5347 42.5172H9.2098C8.17876 42.5172 7.18987 42.1098 6.46035 41.3846C5.73084 40.6594 5.32037 39.6756 5.31909 38.6493V37.8739C5.32036 37.4634 5.48509 37.0701 5.77718 36.7803C6.06926 36.4904 6.46487 36.3277 6.8773 36.3277H22.4305V37.8739C22.4305 38.0769 22.4707 38.278 22.5488 38.4656C22.6268 38.6532 22.7413 38.8236 22.8855 38.9672C23.0298 39.1108 23.201 39.2246 23.3895 39.3023C23.5779 39.38 23.7799 39.42 23.9839 39.42H31.7413C32.1537 39.42 32.5494 39.2573 32.8414 38.9675C33.1335 38.6776 33.2983 38.2844 33.2995 37.8739V36.3277H48.8528C49.0582 36.3258 49.262 36.3644 49.4524 36.4412C49.6428 36.518 49.8161 36.6315 49.9622 36.7752C50.1084 36.9189 50.2245 37.0899 50.304 37.2785C50.3835 37.467 50.4248 37.6694 50.4254 37.8739Z" fill="#DEECE8"/>
<path d="M45.7605 13.882H48.8721V27.8118H45.7605V13.882Z" fill="#DEECE8"/>
<path d="M49.6464 35.691V11.5555C49.6439 10.9406 49.3973 10.3515 48.9604 9.91666C48.5236 9.48182 47.9318 9.23641 47.3139 9.23389H8.43083C7.81299 9.23641 7.22118 9.48182 6.78429 9.91666C6.34741 10.3515 6.10085 10.9406 6.09832 11.5555V35.691C5.64561 35.8522 5.25369 36.1481 4.97578 36.5386C4.69788 36.9291 4.54745 37.3953 4.54492 37.8739V38.6493C4.54492 39.8808 5.03641 41.0618 5.91127 41.9326C6.78613 42.8034 7.97269 43.2926 9.20993 43.2926H46.5348C47.1478 43.2932 47.755 43.1736 48.3215 42.9405C48.888 42.7075 49.4029 42.3656 49.8366 41.9343C50.2703 41.5031 50.6143 40.991 50.8491 40.4273C51.0838 39.8637 51.2046 39.2595 51.2046 38.6493V37.8739C51.2017 37.3947 51.0506 36.9281 50.7718 36.5375C50.493 36.147 50.1 35.8514 49.6464 35.691ZM7.65172 11.5555C7.65298 11.3502 7.73547 11.1537 7.88131 11.0086C8.02715 10.8634 8.22458 10.7813 8.43083 10.7801H47.3139C47.5202 10.7813 47.7176 10.8634 47.8634 11.0086C48.0093 11.1537 48.0918 11.3502 48.093 11.5555V13.1065H45.7605C45.658 13.1058 45.5564 13.1255 45.4616 13.1642C45.3668 13.203 45.2807 13.2601 45.2082 13.3322C45.1357 13.4043 45.0783 13.4901 45.0394 13.5844C45.0005 13.6788 44.9808 13.7799 44.9814 13.882V14.6574H42.2065C41.6569 13.9361 40.9473 13.3508 40.1331 12.9473C39.319 12.5437 38.4221 12.3328 37.5126 12.331H30.9816C30.1601 12.3361 29.3741 12.6648 28.7955 13.2452C28.2168 13.8256 27.8927 14.6105 27.894 15.4281H12.3215V14.6526H10.7633V34.7576H12.3215V33.9869H35.6514C35.8572 33.9856 36.0541 33.9034 36.1992 33.7581C36.3443 33.6128 36.4257 33.4163 36.4257 33.2114V29.358H37.5126C38.4227 29.3585 39.3206 29.1492 40.1359 28.7464C40.9511 28.3436 41.6615 27.7583 42.2113 27.0363H44.9862V27.8118C44.9862 28.0175 45.0683 28.2147 45.2144 28.3602C45.3605 28.5056 45.5587 28.5873 45.7653 28.5873H48.093V35.5522H7.65172V11.5555ZM48.093 14.6526V27.0363H46.5348V14.6526H48.093ZM43.0625 16.1988H44.9862V25.4902H43.0625C43.3029 24.8385 43.4266 24.1499 43.428 23.4557V18.1902C43.4246 17.5008 43.3009 16.8173 43.0625 16.1701V16.1988ZM34.3192 18.5252H35.6514V16.9743H30.9816C30.5839 16.9523 30.2098 16.7795 29.9361 16.4915C29.6624 16.2035 29.5099 15.8222 29.5099 15.4257C29.5099 15.0293 29.6624 14.6479 29.9361 14.3599C30.2098 14.0719 30.5839 13.8992 30.9816 13.8772H37.5126C38.6687 13.8797 39.7767 14.3379 40.5942 15.1516C41.4117 15.9653 41.8721 17.0682 41.8746 18.2189V23.4557C41.8759 24.6089 41.4172 25.7155 40.5993 26.5323C39.7814 27.3491 38.6712 27.8093 37.5126 27.8118H36.4257V23.2068C37.3926 23.6851 38.4576 23.9341 39.5373 23.9344V22.393C38.3657 22.3911 37.2257 22.014 36.2861 21.3175C35.3464 20.621 34.6568 19.642 34.3192 18.5252ZM30.2698 32.4551H12.3215V16.9743H28.3076C28.5779 17.4432 28.9671 17.8332 29.4364 18.1054C29.9056 18.3776 30.4385 18.5223 30.9816 18.5252H32.7033C33.0275 19.9273 33.7802 21.1949 34.8579 22.1537V27.874C33.6996 28.0444 32.6275 28.5823 31.8009 29.4076C30.9743 30.2329 30.4373 31.3017 30.2698 32.4551ZM34.8723 29.4394V32.4551H31.8376C31.9916 31.712 32.3611 31.0302 32.9005 30.4942C33.4399 29.9581 34.1255 29.5914 34.8723 29.4394ZM32.5398 37.0984V37.8739C32.5392 37.9771 32.518 38.0793 32.4774 38.1743C32.4368 38.2694 32.3777 38.3555 32.3034 38.4276C32.2291 38.4998 32.1412 38.5565 32.0448 38.5946C31.9483 38.6326 31.8452 38.6512 31.7414 38.6493H23.9841C23.7778 38.6481 23.5804 38.566 23.4345 38.4208C23.2887 38.2757 23.2062 38.0791 23.205 37.8739V37.0984H32.5398ZM49.6464 38.6493C49.6464 39.4707 49.3186 40.2585 48.7351 40.8393C48.1515 41.4201 47.3601 41.7464 46.5348 41.7464H9.20993C8.38468 41.7464 7.59323 41.4201 7.00969 40.8393C6.42615 40.2585 6.09832 39.4707 6.09832 38.6493V37.8739C6.09832 37.6682 6.18041 37.4709 6.32652 37.3255C6.47263 37.1801 6.67079 37.0984 6.87743 37.0984H21.6419V37.8739C21.6413 38.1804 21.7014 38.4841 21.8188 38.7674C21.9363 39.0508 22.1087 39.3084 22.3262 39.5254C22.5438 39.7423 22.8022 39.9145 23.0867 40.0319C23.3711 40.1494 23.6761 40.2099 23.9841 40.2099H31.7414C32.3597 40.2086 32.9522 39.9636 33.3894 39.5285C33.8265 39.0933 34.0727 38.5036 34.0739 37.8882V37.0984H48.8529C49.0587 37.0996 49.2556 37.1819 49.4007 37.3272C49.5458 37.4725 49.6272 37.669 49.6272 37.8739L49.6464 38.6493Z" fill="#12734E"/>
<path d="M21.6417 17.7498C20.2581 17.7517 18.9062 18.1618 17.7567 18.9282C16.6073 19.6947 15.7119 20.7831 15.1837 22.056C14.6556 23.3288 14.5184 24.7289 14.7894 26.0793C15.0605 27.4298 15.7277 28.6699 16.7067 29.643C17.6857 30.6161 18.9326 31.2785 20.2897 31.5465C21.6468 31.8145 23.0533 31.676 24.3314 31.1485C25.6094 30.6211 26.7017 29.7284 27.4702 28.5832C28.2387 27.438 28.6488 26.0918 28.6488 24.7147C28.6495 23.7991 28.4686 22.8923 28.1166 22.0464C27.7645 21.2004 27.2483 20.432 26.5973 19.785C25.9464 19.1379 25.1736 18.6251 24.3232 18.2759C23.4729 17.9267 22.5616 17.7479 21.6417 17.7498ZM21.6417 30.1574C20.5664 30.1555 19.5157 29.8367 18.6223 29.2412C17.7288 28.6456 17.0325 27.8001 16.6212 26.8112C16.2099 25.8222 16.1021 24.7342 16.3113 23.6844C16.5205 22.6345 17.0374 21.6699 17.7967 20.9121C18.5561 20.1542 19.5239 19.6372 20.5781 19.4262C21.6323 19.2152 22.7257 19.3197 23.7203 19.7264C24.7149 20.1332 25.5663 20.824 26.1669 21.7117C26.7676 22.5995 27.0907 23.6444 27.0954 24.7147C27.0986 25.4291 26.9598 26.1371 26.687 26.7979C26.4143 27.4588 26.0129 28.0594 25.506 28.5652C24.9992 29.0711 24.3968 29.4721 23.7336 29.7454C23.0704 30.0186 22.3595 30.1587 21.6417 30.1574Z" fill="#12734E"/>
<path d="M23.2048 23.1685H24.763C24.763 22.5528 24.5173 21.9623 24.0798 21.5269C23.6424 21.0915 23.0491 20.8469 22.4305 20.8469V20.0714H20.8723V20.8469C20.2537 20.8469 19.6604 21.0915 19.223 21.5269C18.7855 21.9623 18.5398 22.5528 18.5398 23.1685C18.5398 23.7843 18.7855 24.3748 19.223 24.8102C19.6604 25.2456 20.2537 25.4902 20.8723 25.4902V27.0363C20.6669 27.0363 20.47 26.9551 20.3248 26.8106C20.1796 26.6661 20.098 26.47 20.098 26.2656H18.5398C18.5398 26.8814 18.7855 27.4719 19.223 27.9073C19.6604 28.3427 20.2537 28.5873 20.8723 28.5873V29.358H22.4305V28.5873C23.0314 28.5601 23.5987 28.3034 24.0143 27.8706C24.4299 27.4377 24.6618 26.862 24.6618 26.2633C24.6618 25.6645 24.4299 25.0888 24.0143 24.656C23.5987 24.2231 23.0314 23.9664 22.4305 23.9392V22.3931C22.5326 22.3931 22.6337 22.4131 22.7279 22.4522C22.8222 22.4912 22.9078 22.5484 22.9797 22.6205C23.0517 22.6925 23.1086 22.7781 23.1473 22.8721C23.1859 22.9662 23.2054 23.0669 23.2048 23.1685ZM23.2048 26.2656C23.2048 26.47 23.1232 26.6661 22.978 26.8106C22.8328 26.9551 22.6359 27.0363 22.4305 27.0363V25.4902C22.5326 25.4902 22.6337 25.5103 22.7279 25.5493C22.8222 25.5883 22.9078 25.6455 22.9797 25.7176C23.0517 25.7897 23.1086 25.8752 23.1473 25.9692C23.1859 26.0633 23.2054 26.164 23.2048 26.2656ZM20.8723 23.9344C20.6769 23.9191 20.4944 23.831 20.3613 23.6877C20.2283 23.5444 20.1544 23.3565 20.1544 23.1613C20.1544 22.9662 20.2283 22.7783 20.3613 22.635C20.4944 22.4917 20.6769 22.4036 20.8723 22.3883V23.9344Z" fill="#12734E"/>
</svg>
