<svg width="64" height="52" viewBox="0 0 64 52" fill="none" xmlns="http://www.w3.org/2000/svg">
<g clip-path="url(#clip0)">
<path d="M33.5323 51.9952C47.8904 51.9952 59.5299 40.3557 59.5299 25.9976C59.5299 11.6395 47.8904 0 33.5323 0C19.1742 0 7.53467 11.6395 7.53467 25.9976C7.53467 40.3557 19.1742 51.9952 33.5323 51.9952Z" fill="#EEECEC"/>
<path d="M7.86981 13.3841L45.6192 12.982L47.6393 11.0625L50.8705 7.73558L53.2926 5.61499L55.2074 6.82607L53.7952 9.65034L54.4032 11.2683L53.2926 13.0825L56.9259 13.4894L57.328 15.3037L57.7349 39.8317L56.1169 40.9423L8.07086 40.4348L7.56824 39.6306L7.36719 14.6L7.86981 13.3841Z" fill="white"/>
<path d="M61.0088 12.671C60.793 12.671 60.586 12.5852 60.4334 12.4326C60.2808 12.28 60.1951 12.073 60.1951 11.8572V8.21917C60.1951 8.00334 60.2808 7.79636 60.4334 7.64374C60.586 7.49113 60.793 7.4054 61.0088 7.4054C61.2247 7.4054 61.4317 7.49113 61.5843 7.64374C61.7369 7.79636 61.8226 8.00334 61.8226 8.21917V11.8572C61.8226 12.073 61.7369 12.28 61.5843 12.4326C61.4317 12.5852 61.2247 12.671 61.0088 12.671Z" fill="#BCBFC3"/>
<path d="M58.4001 10.0524C58.4001 9.83659 58.4859 9.62961 58.6385 9.477C58.7911 9.32438 58.9981 9.23865 59.2139 9.23865H62.852C63.0678 9.23865 63.2748 9.32438 63.4274 9.477C63.58 9.62961 63.6657 9.83659 63.6657 10.0524C63.6657 10.2682 63.58 10.4752 63.4274 10.6278C63.2748 10.7805 63.0678 10.8662 62.852 10.8662H59.2139C58.9981 10.8662 58.7911 10.7805 58.6385 10.6278C58.4859 10.4752 58.4001 10.2682 58.4001 10.0524Z" fill="#BCBFC3"/>
<path d="M2.63286 6.48616C2.4166 6.4849 2.20962 6.3981 2.05715 6.24473C1.90467 6.09135 1.81909 5.88387 1.81909 5.6676V2.03435C1.81909 1.81853 1.90483 1.61154 2.05744 1.45893C2.21005 1.30632 2.41704 1.22058 2.63286 1.22058C2.84869 1.22058 3.05568 1.30632 3.20829 1.45893C3.3609 1.61154 3.44664 1.81853 3.44664 2.03435V5.6676C3.44664 5.88387 3.36106 6.09135 3.20858 6.24473C3.0561 6.3981 2.84913 6.4849 2.63286 6.48616Z" fill="#BCBFC3"/>
<path d="M1.1984e-10 3.85347C-3.69794e-06 3.6372 0.0855796 3.42972 0.238055 3.27635C0.390531 3.12298 0.597507 3.03618 0.813771 3.03491H4.45181C4.66807 3.03618 4.87505 3.12298 5.02752 3.27635C5.18 3.42972 5.26558 3.6372 5.26558 3.85347C5.26558 4.0693 5.17984 4.27628 5.02723 4.42889C4.87462 4.58151 4.66763 4.66724 4.45181 4.66724H0.813771C0.597946 4.66724 0.39096 4.58151 0.238348 4.42889C0.0857364 4.27628 1.1984e-10 4.0693 1.1984e-10 3.85347H1.1984e-10Z" fill="#BCBFC3"/>
<path d="M57.7441 13.1783C57.3636 12.7965 56.8471 12.5813 56.3081 12.58H55.7528C55.5657 12.595 55.3911 12.6799 55.2638 12.8178C55.1365 12.9558 55.0658 13.1366 55.0658 13.3243C55.0658 13.512 55.1365 13.6929 55.2638 13.8308C55.3911 13.9687 55.5657 14.0537 55.7528 14.0687H56.3081C56.453 14.0687 56.5921 14.1254 56.6958 14.2266C56.7962 14.3309 56.8527 14.4697 56.8538 14.6144V39.2525C56.8538 39.3972 56.7963 39.536 56.6939 39.6384C56.5916 39.7407 56.4528 39.7982 56.3081 39.7982H15.495V14.0687H43.6707C43.8578 14.0537 44.0324 13.9687 44.1597 13.8308C44.287 13.6929 44.3577 13.512 44.3577 13.3243C44.3577 13.1366 44.287 12.9558 44.1597 12.8178C44.0324 12.6799 43.8578 12.595 43.6707 12.58H8.76465C8.22548 12.5812 7.70875 12.796 7.32749 13.1772C6.94624 13.5585 6.73149 14.0752 6.73022 14.6144V39.2525C6.73149 39.7917 6.94624 40.3084 7.32749 40.6897C7.70875 41.0709 8.22548 41.2857 8.76465 41.2869H56.3033C56.8424 41.2857 57.3592 41.0709 57.7404 40.6897C58.1217 40.3084 58.3364 39.7917 58.3377 39.2525V14.6144C58.3385 14.3477 58.2864 14.0835 58.1845 13.837C58.0826 13.5905 57.933 13.3667 57.7441 13.1783ZM14.0063 39.803H8.74072C8.59935 39.7968 8.46591 39.7359 8.36856 39.6332C8.27121 39.5305 8.21757 39.394 8.21895 39.2525V14.6144C8.21895 14.5427 8.23306 14.4718 8.26049 14.4056C8.28791 14.3393 8.32811 14.2792 8.37878 14.2285C8.42945 14.1778 8.48961 14.1376 8.55582 14.1102C8.62203 14.0828 8.69299 14.0687 8.76465 14.0687H14.0302L14.0063 39.803Z" fill="#12734E"/>
<path d="M54.4268 34.9443H39.5252C39.4225 34.936 39.3191 34.9492 39.2217 34.9828C39.1242 35.0165 39.0348 35.07 38.959 35.1399C38.8833 35.2098 38.8228 35.2947 38.7815 35.3891C38.7401 35.4836 38.7188 35.5856 38.7188 35.6887C38.7188 35.7918 38.7401 35.8937 38.7815 35.9882C38.8228 36.0826 38.8833 36.1675 38.959 36.2374C39.0348 36.3073 39.1242 36.3608 39.2217 36.3945C39.3191 36.4281 39.4225 36.4413 39.5252 36.433H54.4268C54.6139 36.418 54.7885 36.3331 54.9158 36.1951C55.0432 36.0572 55.1138 35.8764 55.1138 35.6887C55.1138 35.5009 55.0432 35.3201 54.9158 35.1822C54.7885 35.0442 54.6139 34.9593 54.4268 34.9443Z" fill="#12734E"/>
<path d="M31.1723 34.9443H17.5344C17.3473 34.9593 17.1727 35.0442 17.0454 35.1822C16.9181 35.3201 16.8474 35.5009 16.8474 35.6887C16.8474 35.8764 16.9181 36.0572 17.0454 36.1951C17.1727 36.3331 17.3473 36.418 17.5344 36.433H31.1723C31.275 36.4413 31.3784 36.4281 31.4759 36.3945C31.5733 36.3608 31.6627 36.3073 31.7385 36.2374C31.8143 36.1675 31.8747 36.0826 31.9161 35.9882C31.9574 35.8937 31.9788 35.7918 31.9788 35.6887C31.9788 35.5856 31.9574 35.4836 31.9161 35.3891C31.8747 35.2947 31.8143 35.2098 31.7385 35.1399C31.6627 35.07 31.5733 35.0165 31.4759 34.9828C31.3784 34.9492 31.275 34.936 31.1723 34.9443Z" fill="#12734E"/>
<path d="M56.1695 6.70169C56.1364 6.52494 56.0686 6.35651 55.97 6.20614C55.8714 6.05577 55.744 5.92646 55.5951 5.82569L54.5324 5.10766C54.3829 5.00486 54.2144 4.9328 54.0368 4.89567C53.8592 4.85854 53.676 4.85709 53.4979 4.89138C53.3197 4.92568 53.1501 4.99504 52.999 5.09545C52.8479 5.19585 52.7183 5.32529 52.6176 5.47625L51.3108 7.391C50.9147 7.25473 50.4848 7.25211 50.0871 7.38353C49.6894 7.51495 49.3457 7.77317 49.1088 8.11861L34.7481 29.3676C34.732 29.3905 34.7176 29.4145 34.7051 29.4394V29.4681C34.6917 29.5009 34.6806 29.5345 34.6716 29.5687L32.6946 36.6006C32.6321 36.823 32.6412 37.0593 32.7205 37.2762C32.7997 37.4931 32.9452 37.6796 33.1363 37.8093C33.3274 37.939 33.5544 38.0053 33.7852 37.9988C34.0161 37.9924 34.2391 37.9135 34.4226 37.7734L40.21 33.3599L40.2914 33.2881V33.2642L40.344 33.2019L51.9187 16.0936L52.34 15.4713L53.2973 16.1079L47.2659 25.0307C47.178 25.1935 47.154 25.3832 47.1988 25.5627C47.2435 25.7422 47.3537 25.8985 47.5077 26.001C47.6617 26.1035 47.8484 26.1447 48.0313 26.1166C48.2141 26.0886 48.3799 25.9932 48.4961 25.8493L54.6185 16.802C54.8183 16.5047 54.8922 16.1404 54.824 15.7887C54.7558 15.437 54.5511 15.1267 54.2547 14.9256L53.2016 14.2123L54.7478 11.9242C54.9753 11.5848 55.0883 11.1814 55.0702 10.7732C55.0522 10.3649 54.9039 9.97318 54.6473 9.6552L55.9589 7.71173C56.16 7.41622 56.2358 7.05298 56.1695 6.70169ZM34.4322 35.9017L35.7965 30.9904L38.4819 32.8094L34.4322 35.9017ZM39.559 31.7371L36.3805 29.5926L47.1318 13.7193L50.3008 15.859L39.559 31.7371ZM51.1385 14.6288L47.9695 12.4843L48.5918 11.5652L51.7608 13.7097L51.1385 14.6288ZM53.5319 11.1056L52.6032 12.4795L49.4343 10.3349L50.3917 8.9611C50.4216 8.91612 50.4601 8.87753 50.505 8.84758C50.55 8.81764 50.6004 8.79694 50.6535 8.78669C50.7065 8.77644 50.761 8.77685 50.8139 8.78789C50.8667 8.79894 50.9169 8.82039 50.9613 8.85101L53.4074 10.5312C53.4526 10.5615 53.4913 10.6005 53.5213 10.6458C53.5513 10.6912 53.572 10.7421 53.5822 10.7955C53.5925 10.8489 53.592 10.9038 53.5809 10.957C53.5698 11.0103 53.5483 11.0608 53.5175 11.1056H53.5319ZM53.4745 8.76963L52.6032 8.18084L53.8095 6.40012L54.6808 6.98891L53.4745 8.76963Z" fill="#12734E"/>
<path d="M54.427 30.0569H43.8623C43.6752 30.0719 43.5006 30.1568 43.3733 30.2948C43.246 30.4327 43.1753 30.6135 43.1753 30.8012C43.1753 30.989 43.246 31.1698 43.3733 31.3077C43.5006 31.4457 43.6752 31.5306 43.8623 31.5456H54.427C54.6141 31.5306 54.7887 31.4457 54.916 31.3077C55.0433 31.1698 55.114 30.989 55.114 30.8012C55.114 30.6135 55.0433 30.4327 54.916 30.2948C54.7887 30.1568 54.6141 30.0719 54.427 30.0569Z" fill="#12734E"/>
<path d="M32.2254 30.0569H17.5344C17.3473 30.0719 17.1727 30.1568 17.0454 30.2948C16.9181 30.4327 16.8474 30.6135 16.8474 30.8012C16.8474 30.989 16.9181 31.1698 17.0454 31.3077C17.1727 31.4457 17.3473 31.5306 17.5344 31.5456H32.2254C32.4125 31.5306 32.5871 31.4457 32.7144 31.3077C32.8417 31.1698 32.9124 30.989 32.9124 30.8012C32.9124 30.6135 32.8417 30.4327 32.7144 30.2948C32.5871 30.1568 32.4125 30.0719 32.2254 30.0569Z" fill="#12734E"/>
<path d="M21.2873 20.7847V17.9125C22.2687 17.9795 22.6373 18.4295 22.9723 18.4295C23.3936 18.4295 23.5898 17.8982 23.5898 17.6301C23.5898 16.9408 22.2399 16.644 21.2873 16.6201V16.2754C21.2873 16.1079 21.0767 15.9547 20.8661 15.9547C20.7697 15.9439 20.673 15.9715 20.5968 16.0315C20.5206 16.0915 20.4712 16.1792 20.4592 16.2754V16.6823C19.1237 16.8259 17.7881 17.5296 17.7881 19.2959C17.7881 21.0623 19.1955 21.5889 20.4592 22.0197V25.3179C19.0231 25.2078 18.645 24.2217 18.1807 24.2217C17.8312 24.2217 17.5344 24.7003 17.5344 25.0259C17.5344 25.7104 18.7168 26.6534 20.4592 26.6821V27.1177C20.4712 27.214 20.5206 27.3016 20.5968 27.3616C20.673 27.4217 20.7697 27.4493 20.8661 27.4384C21.0767 27.4384 21.2873 27.2853 21.2873 27.1177V26.639C22.8048 26.4284 23.8435 25.471 23.8435 23.7669C23.8435 21.8521 22.4984 21.2346 21.2873 20.7847ZM20.5406 20.5214C19.7986 20.239 19.1955 19.9422 19.1955 19.1428C19.1955 18.3434 19.7555 18.0609 20.5406 17.9604V20.5214ZM21.2012 25.3083V22.3452C21.8905 22.642 22.441 23.0345 22.441 23.9201C22.4556 24.2673 22.3342 24.6065 22.1027 24.8657C21.8712 25.1249 21.5478 25.2837 21.2012 25.3083Z" fill="#12734E"/>
<path d="M47.1327 13.7196L36.3899 29.5927L39.5574 31.7364L50.3002 15.8633L47.1327 13.7196Z" fill="#DEECE8"/>
<path d="M48.5895 11.5686L47.967 12.4883L51.1345 14.632L51.757 13.7123L48.5895 11.5686Z" fill="#DEECE8"/>
<path d="M53.5175 11.1056L52.5888 12.4795L49.4199 10.3349L50.3773 8.9611C50.4072 8.91612 50.4457 8.87753 50.4906 8.84758C50.5356 8.81764 50.586 8.79694 50.6391 8.78669C50.6921 8.77644 50.7466 8.77685 50.7995 8.78789C50.8523 8.79894 50.9025 8.82039 50.9469 8.851L53.4074 10.5312C53.4526 10.5615 53.4912 10.6005 53.5212 10.6458C53.5512 10.6912 53.572 10.7421 53.5822 10.7955C53.5924 10.8489 53.592 10.9038 53.5809 10.957C53.5698 11.0103 53.5482 11.0608 53.5175 11.1056Z" fill="#DEECE8"/>
<path d="M14.0064 39.8031H8.74079C8.59942 39.7969 8.46598 39.736 8.36863 39.6333C8.27129 39.5306 8.21764 39.3941 8.21902 39.2526V14.6144C8.21902 14.5428 8.23313 14.4718 8.26056 14.4056C8.28798 14.3394 8.32818 14.2792 8.37885 14.2286C8.42953 14.1779 8.48969 14.1377 8.55589 14.1103C8.6221 14.0828 8.69306 14.0687 8.76473 14.0687H14.0303L14.0064 39.8031Z" fill="#DEECE8"/>
</g>
<defs>
<clipPath id="clip0">
<rect width="63.6417" height="52" fill="white"/>
</clipPath>
</defs>
</svg>
