<svg width="72" height="59" viewBox="0 0 72 59" fill="none" xmlns="http://www.w3.org/2000/svg">
<g clip-path="url(#clip0)">
<path d="M36.4528 58.1266C52.0615 58.1266 64.7148 45.4733 64.7148 29.8647C64.7148 14.2561 52.0615 1.60278 36.4528 1.60278C20.8442 1.60278 8.19092 14.2561 8.19092 29.8647C8.19092 45.4733 20.8442 58.1266 36.4528 58.1266Z" fill="#EEECEC"/>
<path d="M70.8969 32.2064V22.9853L49.3791 11.131L10.0122 32.7841V42.4527L30.6453 53.2819L70.8969 32.2064Z" fill="white"/>
<path d="M35.7866 6.00513C34.2723 1.84208 28.6834 0.666016 25.5403 0.666016C22.3972 0.666016 16.8083 1.82647 15.294 6.00513C14.7988 7.50922 14.7988 9.13244 15.294 10.6365V29.9375L24.3226 25.6495C24.7233 25.6756 25.1292 25.6912 25.5403 25.6912C31.1969 25.6912 35.7866 23.2974 35.7866 20.3468H35.4796L35.7866 20.2063V10.6365C36.2793 9.13203 36.2793 7.50963 35.7866 6.00513Z" fill="white"/>
<path fill-rule="evenodd" clip-rule="evenodd" d="M18.5358 2.54709C16.7447 3.4813 15.8144 4.68068 15.8144 5.8647C15.8144 7.04872 16.7447 8.2481 18.5358 9.18231C20.3017 10.1034 22.7773 10.6886 25.5404 10.6886C28.3034 10.6886 30.7791 10.1034 32.545 9.18231C34.3361 8.2481 35.2663 7.04872 35.2663 5.8647C35.2663 4.68068 34.3361 3.4813 32.545 2.54709C30.7791 1.62603 28.3034 1.04076 25.5404 1.04076C22.7773 1.04076 20.3017 1.62603 18.5358 2.54709ZM18.0545 1.6243C19.997 0.611104 22.6445 0 25.5404 0C28.4362 0 31.0837 0.611104 33.0263 1.6243C34.9436 2.62436 36.3071 4.09714 36.3071 5.8647C36.3071 7.63226 34.9436 9.10504 33.0263 10.1051C31.0837 11.1183 28.4362 11.7294 25.5404 11.7294C22.6445 11.7294 19.997 11.1183 18.0545 10.1051C16.1371 9.10504 14.7737 7.63226 14.7737 5.8647C14.7737 4.09714 16.1371 2.62436 18.0545 1.6243Z" fill="#12734E"/>
<path fill-rule="evenodd" clip-rule="evenodd" d="M18.0556 14.7336C16.1382 13.7349 14.7737 12.2635 14.7737 10.4961H15.8144C15.8144 11.6793 16.7449 12.8774 18.5364 13.8106C20.3026 14.7306 22.7784 15.3148 25.5404 15.3148C28.3024 15.3148 30.7781 14.7306 32.5443 13.8106C34.3359 12.8774 35.2663 11.6793 35.2663 10.4961H36.3071C36.3071 12.2635 34.9426 13.7349 33.0251 14.7336C31.0824 15.7456 28.4349 16.3556 25.5404 16.3556C22.6458 16.3556 19.9984 15.7456 18.0556 14.7336Z" fill="#12734E"/>
<path fill-rule="evenodd" clip-rule="evenodd" d="M18.0554 20.0752C16.1379 19.0751 14.7737 17.6024 14.7737 15.8352H15.8144C15.8144 17.0186 16.7451 18.218 18.5367 19.1524C20.3029 20.0736 22.7786 20.6591 25.5404 20.6591C28.3022 20.6591 30.7779 20.0736 32.5441 19.1524C34.3357 18.218 35.2663 17.0186 35.2663 15.8352H36.3071C36.3071 17.6024 34.9428 19.0751 33.0254 20.0752C31.0826 21.0885 28.4351 21.6999 25.5404 21.6999C22.6456 21.6999 19.9982 21.0885 18.0554 20.0752Z" fill="#12734E"/>
<path fill-rule="evenodd" clip-rule="evenodd" d="M18.0556 24.444C16.1382 23.4452 14.7737 21.9738 14.7737 20.2064H15.8144C15.8144 21.3896 16.7449 22.5877 18.5364 23.5209C20.3026 24.4409 22.7784 25.0252 25.5404 25.0252C28.3024 25.0252 30.7781 24.4409 32.5443 23.5209C34.3359 22.5877 35.2663 21.3896 35.2663 20.2064H36.3071C36.3071 21.9738 34.9426 23.4452 33.0251 24.444C31.0824 25.4559 28.4349 26.0659 25.5404 26.0659C22.6458 26.0659 19.9984 25.4559 18.0556 24.444Z" fill="#12734E"/>
<path fill-rule="evenodd" clip-rule="evenodd" d="M14.7737 29.9376V5.86475H15.8144V29.9376H14.7737Z" fill="#12734E"/>
<path fill-rule="evenodd" clip-rule="evenodd" d="M35.2664 29.8647V5.78662H36.3071V29.8647H35.2664Z" fill="#12734E"/>
<path fill-rule="evenodd" clip-rule="evenodd" d="M49.3799 10.5374L72.0008 22.9994L30.4939 44.5041L8.93115 32.7998L24.2498 24.2877L49.3799 10.5374ZM24.7523 25.1991L24.7493 25.2007L11.0931 32.7891L30.5052 43.326L69.7928 22.9712L49.3781 11.7247L24.7523 25.1991Z" fill="#12734E"/>
<path fill-rule="evenodd" clip-rule="evenodd" d="M71.1348 27.9858L30.4913 48.8965L9.76123 37.4915L10.2629 36.5797L30.5077 47.7176L70.6587 27.0603L71.1348 27.9858Z" fill="#12734E"/>
<path fill-rule="evenodd" clip-rule="evenodd" d="M30.6455 52.6943L70.6554 31.7454L71.1381 32.6674L30.6449 53.8694L9.77026 42.9135L10.2539 41.9919L30.6455 52.6943Z" fill="#12734E"/>
<path d="M21.7207 30.4527C21.7207 30.4527 22.4492 32.6435 21.7207 33.8144L29.3287 37.915C29.3287 37.915 32.2584 37.0355 33.2784 37.915L59.0373 24.4579C59.0373 24.4579 58.4544 23.1413 59.0373 22.1162L50.8413 17.4327C50.8413 17.4327 47.6253 18.1665 46.1578 17.4327L21.7207 30.4527Z" fill="#F2F1F2"/>
<path fill-rule="evenodd" clip-rule="evenodd" d="M46.1503 16.8472L46.3906 16.9673C46.6684 17.1062 47.0656 17.1907 47.5439 17.2231C48.0146 17.255 48.5243 17.2341 49.0018 17.1898C49.4775 17.1456 49.9107 17.0791 50.2253 17.0235C50.3823 16.9958 50.509 16.9709 50.5957 16.9531C50.639 16.9442 50.6723 16.9371 50.6944 16.9323L50.7188 16.9269L50.7245 16.9257L50.7255 16.9254L50.9233 16.8803L59.7463 21.922L59.4897 22.3734C59.2818 22.7391 59.2684 23.1864 59.3327 23.5896C59.3638 23.7852 59.4109 23.9547 59.45 24.0747C59.4695 24.1342 59.4866 24.1805 59.4983 24.2105C59.5041 24.2255 59.5086 24.2363 59.5112 24.2426L59.5132 24.2473L59.5134 24.2478L59.5137 24.2485L59.7106 24.6933L33.2062 38.5398L32.9386 38.3091C32.8028 38.192 32.5554 38.0989 32.1799 38.0618C31.8159 38.0259 31.3969 38.049 30.9871 38.1014C30.5805 38.1534 30.2011 38.2318 29.9222 38.2977C29.7832 38.3306 29.6704 38.36 29.5932 38.3811C29.5546 38.3916 29.5249 38.3999 29.5054 38.4055L29.4838 38.4118L29.479 38.4132L29.4783 38.4134L29.2717 38.4754L20.9863 34.0097L21.2789 33.5395C21.5406 33.119 21.5669 32.4401 21.478 31.7622C21.4358 31.4408 21.3722 31.1513 21.3189 30.9416C21.2923 30.8373 21.2686 30.7538 21.2518 30.6975C21.2435 30.6693 21.2369 30.648 21.2325 30.6343L21.2278 30.6196L21.227 30.6169L21.0883 30.2L46.1503 16.8472ZM22.3351 30.715C22.394 30.9503 22.463 31.2695 22.5099 31.6268C22.5835 32.1875 22.6154 32.9301 22.3958 33.5871L29.3915 37.3576C29.4702 37.3368 29.5687 37.3119 29.6827 37.2849C29.9849 37.2134 30.4018 37.127 30.8551 37.069C31.3052 37.0115 31.8099 36.9795 32.2821 37.0261C32.6256 37.06 32.9918 37.1391 33.3109 37.3109L58.4022 24.2026C58.3667 24.0732 58.3316 23.921 58.3049 23.7534C58.2428 23.3642 58.2203 22.8521 58.3783 22.339L50.7549 17.9828C50.6645 18.0009 50.5464 18.0236 50.4064 18.0484C50.0722 18.1074 49.6097 18.1785 49.098 18.2261C48.588 18.2734 48.0187 18.2984 47.4736 18.2615C47.0334 18.2317 46.5814 18.1599 46.1817 18.0097L22.3351 30.715Z" fill="#12734E"/>
<path fill-rule="evenodd" clip-rule="evenodd" d="M30.4631 31.7017C30.3129 31.7017 30.166 31.7462 30.041 31.8297C29.9161 31.9132 29.8187 32.0318 29.7612 32.1707C29.7037 32.3095 29.6886 32.4623 29.718 32.6096C29.7473 32.757 29.8196 32.8924 29.9259 32.9986C30.0321 33.1049 30.1675 33.1773 30.3149 33.2066C30.4623 33.2359 30.615 33.2208 30.7539 33.1633C30.8927 33.1058 31.0113 33.0084 31.0948 32.8835C31.1783 32.7586 31.2229 32.6117 31.2229 32.4614C31.2229 32.2599 31.1428 32.0667 31.0003 31.9242C30.8579 31.7817 30.6646 31.7017 30.4631 31.7017ZM29.4628 30.9643C29.7589 30.7665 30.107 30.6609 30.4631 30.6609C30.9406 30.6609 31.3986 30.8506 31.7363 31.1883C32.0739 31.5259 32.2636 31.9839 32.2636 32.4614C32.2636 32.8175 32.158 33.1656 31.9602 33.4617C31.7623 33.7578 31.4811 33.9886 31.1521 34.1249C30.8231 34.2611 30.4611 34.2968 30.1119 34.2273C29.7626 34.1579 29.4418 33.9864 29.19 33.7346C28.9381 33.4828 28.7667 33.1619 28.6972 32.8127C28.6277 32.4634 28.6634 32.1014 28.7997 31.7724C28.9359 31.4434 29.1667 31.1622 29.4628 30.9643Z" fill="#12734E"/>
<path fill-rule="evenodd" clip-rule="evenodd" d="M50.2375 22.0433C50.0873 22.0433 49.9404 22.0879 49.8154 22.1714C49.6905 22.2549 49.5931 22.3735 49.5356 22.5123C49.4781 22.6512 49.4631 22.8039 49.4924 22.9513C49.5217 23.0987 49.594 23.2341 49.7003 23.3403C49.8066 23.4466 49.9419 23.5189 50.0893 23.5482C50.2367 23.5776 50.3895 23.5625 50.5283 23.505C50.6671 23.4475 50.7858 23.3501 50.8693 23.2252C50.9527 23.1002 50.9973 22.9534 50.9973 22.8031C50.9973 22.6016 50.9172 22.4083 50.7748 22.2659C50.6323 22.1234 50.439 22.0433 50.2375 22.0433ZM49.2372 21.306C49.5333 21.1082 49.8814 21.0026 50.2375 21.0026C50.7151 21.0026 51.173 21.1923 51.5107 21.5299C51.8484 21.8676 52.0381 22.3256 52.0381 22.8031C52.0381 23.1592 51.9325 23.5073 51.7346 23.8034C51.5368 24.0995 51.2556 24.3303 50.9266 24.4666C50.5976 24.6028 50.2355 24.6385 49.8863 24.569C49.537 24.4995 49.2162 24.3281 48.9644 24.0762C48.7126 23.8244 48.5411 23.5036 48.4716 23.1543C48.4021 22.8051 48.4378 22.4431 48.5741 22.1141C48.7103 21.7851 48.9411 21.5039 49.2372 21.306Z" fill="#12734E"/>
<path d="M44.9869 48.307L56.1127 42.7441L55.8993 30.7545L32.9869 18.3018L23.3286 23.6669L44.8412 36.4839L44.9869 48.307Z" fill="#DEECE8"/>
<path fill-rule="evenodd" clip-rule="evenodd" d="M32.9841 17.708L56.4142 30.4421L56.6388 43.0628L44.4768 49.1438L44.3244 36.7818L22.2854 23.6511L32.9841 17.708ZM32.9896 18.8955L24.3718 23.6827L45.3579 36.186L45.497 47.4701L55.5865 42.4254L55.3844 31.0669L32.9896 18.8955Z" fill="#12734E"/>
<path d="M66.3227 15.372C66.088 15.372 65.863 15.2788 65.6971 15.1129C65.5312 14.947 65.438 14.722 65.438 14.4874V10.5377C65.4373 10.4211 65.4597 10.3055 65.5038 10.1975C65.548 10.0896 65.613 9.99147 65.6953 9.90877C65.7775 9.82607 65.8752 9.76044 65.9829 9.71566C66.0906 9.67088 66.206 9.64783 66.3227 9.64783C66.4393 9.64783 66.5547 9.67088 66.6624 9.71566C66.7701 9.76044 66.8678 9.82607 66.95 9.90877C67.0323 9.99147 67.0973 10.0896 67.1415 10.1975C67.1856 10.3055 67.208 10.4211 67.2073 10.5377V14.4874C67.2073 14.722 67.1141 14.947 66.9482 15.1129C66.7823 15.2788 66.5573 15.372 66.3227 15.372Z" fill="#BCBFC3"/>
<path d="M63.4866 12.4891C63.4866 12.2545 63.5798 12.0295 63.7457 11.8636C63.9116 11.6977 64.1366 11.6045 64.3712 11.6045H68.3261C68.5607 11.6045 68.7858 11.6977 68.9517 11.8636C69.1176 12.0295 69.2108 12.2545 69.2108 12.4891C69.2108 12.7242 69.1177 12.9498 68.952 13.1165C68.7862 13.2833 68.5612 13.3776 68.3261 13.379H64.3712C64.1361 13.3776 63.9111 13.2833 63.7454 13.1165C63.5796 12.9498 63.4866 12.7242 63.4866 12.4891Z" fill="#BCBFC3"/>
<path d="M2.86219 8.64876C2.62756 8.64876 2.40255 8.55556 2.23665 8.38965C2.07074 8.22375 1.97754 7.99873 1.97754 7.76411V3.80921C1.97754 3.57459 2.07074 3.34957 2.23665 3.18367C2.40255 3.01776 2.62756 2.92456 2.86219 2.92456C3.09681 2.92456 3.32182 3.01776 3.48773 3.18367C3.65363 3.34957 3.74684 3.57459 3.74684 3.80921V7.76411C3.74684 7.99873 3.65363 8.22375 3.48773 8.38965C3.32182 8.55556 3.09681 8.64876 2.86219 8.64876Z" fill="#BCBFC3"/>
<path d="M0 5.78663C0 5.552 0.0932038 5.32699 0.259108 5.16109C0.425011 4.99518 0.650025 4.90198 0.884649 4.90198H4.83955C5.07417 4.90198 5.29919 4.99518 5.46509 5.16109C5.63099 5.32699 5.7242 5.552 5.7242 5.78663C5.7242 6.02125 5.63099 6.24626 5.46509 6.41217C5.29919 6.57807 5.07417 6.67128 4.83955 6.67128H0.884649C0.650025 6.67128 0.425011 6.57807 0.259108 6.41217C0.0932038 6.24626 0 6.02125 0 5.78663H0Z" fill="#BCBFC3"/>
</g>
<defs>
<clipPath id="clip0">
<rect width="72" height="58.1266" fill="white"/>
</clipPath>
</defs>
</svg>
