<svg width="17" height="18" viewBox="0 0 17 18" fill="none" xmlns="http://www.w3.org/2000/svg">
<path d="M12.3983 0H4.60175C2.0643 0 0 2.18573 0 4.87244V13.1277C0 15.8143 2.0643 18 4.60175 18H12.3984C14.9357 18 17 15.8143 17 13.1277V4.87244C17 2.18573 14.9357 0 12.3983 0V0ZM8.5 13.9217C5.93687 13.9217 3.85169 11.7139 3.85169 9C3.85169 6.2861 5.93687 4.07826 8.5 4.07826C11.0631 4.07826 13.1483 6.2861 13.1483 9C13.1483 11.7139 11.0631 13.9217 8.5 13.9217ZM13.2595 5.23897C12.502 5.23897 11.8859 4.58665 11.8859 3.78465C11.8859 2.98265 12.502 2.3302 13.2595 2.3302C14.0169 2.3302 14.6331 2.98265 14.6331 3.78465C14.6331 4.58665 14.0169 5.23897 13.2595 5.23897Z" fill="white"/>
<path d="M8.49999 5.13354C6.48653 5.13354 4.8483 6.86801 4.8483 9.00005C4.8483 11.1319 6.48653 12.8665 8.49999 12.8665C10.5136 12.8665 12.1517 11.1319 12.1517 9.00005C12.1517 6.86801 10.5136 5.13354 8.49999 5.13354Z" fill="white"/>
<path d="M13.2595 3.38562C13.0517 3.38562 12.8826 3.5647 12.8826 3.7847C12.8826 4.0047 13.0517 4.18378 13.2595 4.18378C13.4674 4.18378 13.6365 4.00484 13.6365 3.7847C13.6365 3.56456 13.4674 3.38562 13.2595 3.38562Z" fill="white"/>
</svg>
