<svg width="18" height="18" viewBox="0 0 18 18" fill="none" xmlns="http://www.w3.org/2000/svg">
<path d="M17.9955 17.9999V17.9992H18V11.3977C18 8.16817 17.3048 5.68042 13.5293 5.68042C11.7143 5.68042 10.4963 6.67642 9.99901 7.62067H9.94651V5.98192H6.36676V17.9992H10.0943V12.0487C10.0943 10.4819 10.3913 8.96692 12.3315 8.96692C14.2433 8.96692 14.2718 10.7549 14.2718 12.1492V17.9999H17.9955Z" fill="white"/>
<path d="M0.296997 5.98279H4.029V18H0.296997V5.98279Z" fill="white"/>
<path d="M2.1615 0C0.96825 0 0 0.96825 0 2.1615C0 3.35475 0.96825 4.34325 2.1615 4.34325C3.35475 4.34325 4.323 3.35475 4.323 2.1615C4.32225 0.96825 3.354 0 2.1615 0V0Z" fill="white"/>
</svg>
