<svg width="67" height="61" viewBox="0 0 67 61" fill="none" xmlns="http://www.w3.org/2000/svg">
<path d="M30.5389 56.4176C44.1492 56.4176 55.1826 45.3842 55.1826 31.7739C55.1826 18.1636 44.1492 7.13025 30.5389 7.13025C16.9286 7.13025 5.89526 18.1636 5.89526 31.7739C5.89526 45.3842 16.9286 56.4176 30.5389 56.4176Z" fill="#EEECEC"/>
<path d="M49.4326 5.48103C49.3197 5.48369 49.2074 5.46374 49.1024 5.42237C48.9973 5.38099 48.9015 5.31902 48.8208 5.2401C48.74 5.16118 48.6758 5.0669 48.632 4.96281C48.5882 4.85873 48.5656 4.74693 48.5657 4.634V0.847267C48.5656 0.734336 48.5882 0.622539 48.632 0.518451C48.6758 0.414363 48.74 0.320087 48.8208 0.241166C48.9015 0.162246 48.9973 0.100275 49.1024 0.0588994C49.2074 0.0175233 49.3197 -0.00242268 49.4326 0.000234522C49.6573 0.000234522 49.8727 0.0894752 50.0316 0.248324C50.1904 0.407174 50.2797 0.62262 50.2797 0.847267V4.634C50.2797 4.85865 50.1904 5.07409 50.0316 5.23294C49.8727 5.39179 49.6573 5.48103 49.4326 5.48103Z" fill="#BCBFC3"/>
<path d="M46.6924 2.74059C46.6924 2.51594 46.7816 2.30049 46.9405 2.14164C47.0993 1.9828 47.3148 1.89355 47.5394 1.89355H51.3261C51.5508 1.89355 51.7662 1.9828 51.9251 2.14164C52.0839 2.30049 52.1732 2.51594 52.1732 2.74059C52.1732 2.96523 52.0839 3.18068 51.9251 3.33953C51.7662 3.49838 51.5508 3.58762 51.3261 3.58762H47.5394C47.3148 3.58762 47.0993 3.49838 46.9405 3.33953C46.7816 3.18068 46.6924 2.96523 46.6924 2.74059Z" fill="#BCBFC3"/>
<path d="M63.4088 22.4715C63.1842 22.4715 62.9687 22.3823 62.8099 22.2234C62.651 22.0646 62.5618 21.8491 62.5618 21.6245V17.8378C62.5618 17.7265 62.5837 17.6164 62.6262 17.5136C62.6688 17.4108 62.7312 17.3175 62.8099 17.2388C62.8885 17.1602 62.9819 17.0978 63.0847 17.0552C63.1874 17.0126 63.2976 16.9907 63.4088 16.9907C63.52 16.9907 63.6302 17.0126 63.7329 17.0552C63.8357 17.0978 63.9291 17.1602 64.0077 17.2388C64.0864 17.3175 64.1488 17.4108 64.1914 17.5136C64.2339 17.6164 64.2558 17.7265 64.2558 17.8378V21.6245C64.2558 21.8491 64.1666 22.0646 64.0077 22.2234C63.8489 22.3823 63.6334 22.4715 63.4088 22.4715Z" fill="#BCBFC3"/>
<path d="M60.6685 19.7311C60.6685 19.5064 60.7577 19.291 60.9165 19.1321C61.0754 18.9733 61.2908 18.884 61.5155 18.884H65.3022C65.5269 18.884 65.7423 18.9733 65.9012 19.1321C66.06 19.291 66.1492 19.5064 66.1492 19.7311C66.1492 19.9557 66.06 20.1712 65.9012 20.33C65.7423 20.4889 65.5269 20.5781 65.3022 20.5781H61.5205C61.4088 20.5788 61.2981 20.5573 61.1948 20.5151C61.0915 20.4728 60.9975 20.4105 60.9183 20.3318C60.8391 20.2531 60.7763 20.1595 60.7334 20.0564C60.6905 19.9533 60.6685 19.8427 60.6685 19.7311Z" fill="#BCBFC3"/>
<path d="M45.9897 21.2159C46.4106 19.7847 47.2837 18.5282 48.4782 17.6345C49.6728 16.7408 51.1247 16.258 52.6165 16.2583H52.8756L50.7082 25.4112L45.9897 21.2159Z" fill="white" stroke="#077750" stroke-width="2" stroke-miterlimit="10"/>
<path d="M58.1172 32.1377L54.6793 31.7042C53.445 28.3122 51.1971 25.382 48.2405 23.3114C45.2838 21.2408 41.7617 20.13 38.1522 20.1298H25.1477C20.49 20.1364 16.0252 21.9913 12.734 25.2872C9.44282 28.583 7.59423 33.0504 7.59424 37.7082C7.59476 40.8729 8.45015 43.9788 10.07 46.6976C11.6899 49.4163 14.0141 51.6471 16.797 53.154V57.7579C16.7963 58.0521 16.8537 58.3436 16.9659 58.6156C17.078 58.8876 17.2427 59.1348 17.4505 59.343C17.6583 59.5513 17.9051 59.7165 18.1769 59.8293C18.4486 59.942 18.7399 60.0001 19.0342 60.0001H25.8802C26.4748 60.0001 27.0451 59.7638 27.4656 59.3433C27.8861 58.9229 28.1223 58.3526 28.1223 57.7579V55.2666H38.0326V57.7579C38.0326 58.3526 38.2688 58.9229 38.6893 59.3433C39.1098 59.7638 39.6801 60.0001 40.2747 60.0001H47.1207C47.4149 60.0001 47.7063 59.942 47.978 59.8293C48.2498 59.7165 48.4966 59.5513 48.7044 59.343C48.9122 59.1348 49.0769 58.8876 49.189 58.6156C49.3012 58.3436 49.3586 58.0521 49.3579 57.7579V51.2457C51.9766 49.0823 53.9116 46.2058 54.9284 42.9648L58.1172 42.5661C58.6664 42.5014 59.1727 42.2374 59.5401 41.8241C59.9075 41.4108 60.1104 40.877 60.1102 40.324V34.3798C60.1104 33.8268 59.9075 33.293 59.5401 32.8797C59.1727 32.4664 58.6664 32.2024 58.1172 32.1377Z" fill="white" stroke="#077750" stroke-width="2" stroke-miterlimit="10"/>
<path d="M23.7974 13.3784C26.7831 13.3784 29.2035 10.958 29.2035 7.97234C29.2035 4.98666 26.7831 2.56628 23.7974 2.56628C20.8117 2.56628 18.3914 4.98666 18.3914 7.97234C18.3914 10.958 20.8117 13.3784 23.7974 13.3784Z" fill="#E0EEEA" stroke="#077750" stroke-width="2" stroke-miterlimit="10"/>
<path d="M33.8423 26.5322C36.828 26.5322 39.2484 24.1118 39.2484 21.1262C39.2484 18.1405 36.828 15.7201 33.8423 15.7201C30.8567 15.7201 28.4363 18.1405 28.4363 21.1262C28.4363 24.1118 30.8567 26.5322 33.8423 26.5322Z" fill="#E0EEEA" stroke="#077750" stroke-width="2" stroke-miterlimit="10"/>
<path d="M23.9669 5.53082C24.7193 5.57567 25.4268 5.97427 25.4318 6.8512H24.3755C24.3817 6.7916 24.376 6.73137 24.3588 6.67399C24.3415 6.6166 24.3131 6.5632 24.2751 6.51687C24.2371 6.47054 24.1903 6.43219 24.1374 6.40406C24.0845 6.37592 24.0266 6.35855 23.9669 6.35294V7.12524L24.3855 7.22987C24.9684 7.3943 25.5613 7.66834 25.5613 8.40077C25.5613 9.34745 24.794 9.70121 23.9669 9.73609V10.2343H23.6979V9.73609C22.801 9.70619 22.0387 9.30759 22.0337 8.31108H23.09C23.0872 8.39188 23.1011 8.47239 23.1306 8.54765C23.1601 8.62292 23.2047 8.69136 23.2616 8.74875C23.3185 8.80615 23.3866 8.8513 23.4616 8.88143C23.5367 8.91155 23.617 8.92602 23.6979 8.92394V8.04701C23.5982 8.01711 23.4736 7.98223 23.3391 7.95234C22.7611 7.78792 22.1583 7.52384 22.1583 6.78144C22.1583 5.90451 22.9654 5.55574 23.7028 5.52584V5.02759H23.9719L23.9669 5.53082ZM23.6979 6.34298C23.4786 6.34298 23.1996 6.43266 23.1996 6.71169C23.1996 6.89604 23.3989 6.99071 23.6979 7.07043V6.34298ZM23.9669 8.9339C24.216 8.9339 24.505 8.81432 24.505 8.54028C24.505 8.26624 24.2908 8.21143 23.9669 8.12175V8.9339Z" fill="#12734E"/>
<path d="M34.0117 19.0236C34.7691 19.0684 35.4716 19.4621 35.4766 20.344H34.4203C34.4315 20.2239 34.3948 20.1042 34.3183 20.0109C34.2419 19.9177 34.1317 19.8583 34.0117 19.8457V20.628L34.4303 20.7376C35.0182 20.9269 35.6111 21.1761 35.6111 21.9234C35.6111 22.8701 34.8438 23.2239 34.0167 23.2538V23.752H33.7477V23.2538C32.8508 23.2538 32.0935 22.8303 32.0835 21.8288H33.1199C33.1205 21.909 33.1372 21.9883 33.1691 22.0619C33.201 22.1356 33.2474 22.202 33.3055 22.2574C33.3636 22.3127 33.4323 22.3557 33.5074 22.384C33.5825 22.4122 33.6625 22.425 33.7427 22.4217V21.5398L33.3889 21.4401C32.806 21.2757 32.1981 21.0166 32.1981 20.2692C32.1981 19.3973 33.0053 19.0435 33.7427 19.0136V18.5154H34.0117V19.0236ZM33.7427 19.8358C33.5235 19.8358 33.2444 19.9254 33.2444 20.2045C33.2444 20.3838 33.4437 20.4835 33.7427 20.5582V19.8358ZM34.0117 22.4217C34.2609 22.4217 34.5499 22.3021 34.5499 22.0331C34.5499 21.764 34.3356 21.7042 34.0117 21.6095V22.4217Z" fill="#12734E"/>
<path d="M47.8333 32.4117C48.0284 32.2183 48.1502 31.9631 48.1781 31.6899C48.2059 31.4166 48.138 31.1421 47.986 30.9133C47.834 30.6845 47.6073 30.5156 47.3445 30.4354C47.0818 30.3553 46.7994 30.3688 46.5455 30.4737C46.2916 30.5785 46.0821 30.7683 45.9526 31.0106C45.8231 31.2528 45.7817 31.5325 45.8355 31.8019C45.8893 32.0713 46.0349 32.3136 46.2475 32.4875C46.4601 32.6614 46.7265 32.7561 47.0012 32.7555C47.313 32.7547 47.6119 32.6312 47.8333 32.4117Z" fill="#12734E"/>
<path d="M13.0153 39.2875C13.1249 39.2882 13.2336 39.267 13.3349 39.225C13.4362 39.1831 13.5281 39.1213 13.6052 39.0433C13.6823 38.9653 13.743 38.8726 13.7837 38.7708C13.8244 38.669 13.8444 38.5601 13.8424 38.4505V38.4206C13.8424 38.3113 13.8209 38.2031 13.7791 38.1022C13.7372 38.0012 13.6759 37.9095 13.5987 37.8322C13.5214 37.7549 13.4297 37.6937 13.3287 37.6518C13.2278 37.61 13.1196 37.5885 13.0103 37.5885C12.901 37.5885 12.7928 37.61 12.6919 37.6518C12.5909 37.6937 12.4992 37.7549 12.4219 37.8322C12.3447 37.9095 12.2834 38.0012 12.2416 38.1022C12.1997 38.2031 12.1782 38.3113 12.1782 38.4206V38.4604C12.1808 38.6799 12.2695 38.8895 12.4251 39.0442C12.5807 39.1989 12.7909 39.2863 13.0103 39.2875H13.0153Z" fill="#12734E"/>
<path d="M16.6775 46.3827C16.8667 46.4969 17.0933 46.5316 17.308 46.4793C17.5226 46.4271 17.7079 46.292 17.8235 46.1037C17.8805 46.0106 17.9186 45.9071 17.9354 45.7992C17.9523 45.6913 17.9476 45.5811 17.9217 45.4751C17.8957 45.369 17.849 45.2691 17.7843 45.1812C17.7196 45.0932 17.638 45.019 17.5444 44.9627C16.0951 44.0778 14.9779 42.7399 14.3656 41.156C14.3267 41.0543 14.2681 40.9612 14.1932 40.8821C14.1182 40.803 14.0285 40.7394 13.929 40.695C13.8295 40.6506 13.7223 40.6262 13.6134 40.6232C13.5045 40.6203 13.3961 40.6388 13.2943 40.6777C13.1926 40.7166 13.0995 40.7752 13.0204 40.8501C12.9413 40.925 12.8777 41.0148 12.8333 41.1143C12.7436 41.3152 12.7374 41.5435 12.816 41.749C13.5567 43.6772 14.9144 45.3064 16.6775 46.3827Z" fill="#12734E"/>
<path d="M40.3296 27.2498H24.53C24.1337 27.2498 23.8125 27.5699 23.8125 27.9648C23.8125 28.3596 24.1337 28.6797 24.53 28.6797H40.3296C40.7259 28.6797 41.0471 28.3596 41.0471 27.9648C41.0471 27.5699 40.7259 27.2498 40.3296 27.2498Z" fill="#12734E"/>
<path d="M7.70891 35.6553C3.39902 36.3728 1.59533 34.9927 1.06719 33.0744C0.951485 32.4787 0.985617 31.8636 1.16652 31.2844C1.34741 30.7052 1.66941 30.18 2.10355 29.756C2.51442 29.3718 3.00097 29.0777 3.53205 28.8924C4.06314 28.707 4.62707 28.6346 5.18775 28.6798" stroke="#077750" stroke-width="2" stroke-linecap="round" stroke-linejoin="round"/>
</svg>
