<svg width="150" height="150" viewBox="0 0 150 150" fill="none" xmlns="http://www.w3.org/2000/svg">
<path d="M127.76 74.99C127.76 102.18 105.74 124.28 78.5 124.28C51.31 124.28 29.29 102.18 29.29 74.99C29.29 47.8 51.31 25.72 78.5 25.72C105.74 25.72 127.76 47.8 127.76 74.99Z" fill="#E0E0E0"/>
<path d="M135.94 57.8901V68.2401" stroke="#E0E0E0" stroke-width="3.4331" stroke-linecap="round" stroke-linejoin="round"/>
<path d="M141.12 63.0601H130.76" stroke="#E0E0E0" stroke-width="3.4331" stroke-linecap="round" stroke-linejoin="round"/>
<path d="M104.39 18.8201V25.7101" stroke="#E0E0E0" stroke-width="3.4331" stroke-linecap="round" stroke-linejoin="round"/>
<path d="M107.83 22.26H100.95" stroke="#E0E0E0" stroke-width="3.4331" stroke-linecap="round" stroke-linejoin="round"/>
<path d="M119.27 96.8499L84.93 96.8199C84.93 93.6499 82.37 91.0899 79.2 91.0799L79.23 79.6299C82.39 79.6399 84.95 77.0799 84.96 73.9099L119.28 74.0099C119.28 74.0199 119.28 74.0199 119.28 74.0299C119.29 77.1899 121.86 79.7499 125.02 79.7399L125 91.1399C121.84 91.1299 119.28 93.6899 119.27 96.8499Z" fill="white" stroke="#007953" stroke-width="3" stroke-miterlimit="10" stroke-linecap="round" stroke-linejoin="round"/>
<path d="M103.67 90.8899C100.63 91.7499 97.47 89.9799 96.61 86.9399C95.75 83.8999 97.52 80.7399 100.56 79.8799C103.6 79.0199 106.76 80.7899 107.62 83.8299C108.48 86.8699 106.71 90.0299 103.67 90.8899Z" stroke="#007953" stroke-width="3" stroke-miterlimit="10"/>
<path d="M73.51 84.4399L73.53 70.5599C73.53 69.2399 74.6 68.1799 75.92 68.1799L128.39 68.2499C129.7 68.2499 130.77 69.3199 130.77 70.6399L130.73 100.21C130.72 101.53 129.66 102.59 128.34 102.59L75.87 102.52C74.55 102.52 73.49 101.45 73.49 100.14L73.5 95.0799" stroke="#007953" stroke-width="3" stroke-miterlimit="10" stroke-linecap="round" stroke-linejoin="round"/>
<path d="M50.56 60.76L50.58 54.99C53.73 55 56.3 52.44 56.31 49.27L90.62 49.37C90.62 49.38 90.62 49.38 90.62 49.38C90.63 52.54 93.21 55.1 96.36 55.09V60.76" stroke="#007953" stroke-width="3" stroke-miterlimit="10" stroke-linecap="round" stroke-linejoin="round"/>
<path d="M67.73 60.7599C67.72 58.2599 69.37 55.9399 71.91 55.2299C74.95 54.3699 78.11 56.1399 78.97 59.1899C79.12 59.7099 79.19 60.2299 79.19 60.7499V60.7599" stroke="#007953" stroke-width="3" stroke-miterlimit="10" stroke-linecap="round" stroke-linejoin="round"/>
<path d="M44.85 60.76L44.87 45.92C44.87 44.6 45.94 43.54 47.26 43.54L99.73 43.61C101.04 43.61 102.11 44.68 102.11 46L102.09 60.76" stroke="#007953" stroke-width="3" stroke-miterlimit="10" stroke-linecap="round" stroke-linejoin="round"/>
<path d="M29.29 43.54H40.63" stroke="#007953" stroke-width="3.1973" stroke-miterlimit="10" stroke-linecap="round" stroke-linejoin="round"/>
<path d="M47.65 68.9399H62" stroke="#007953" stroke-width="3.5976" stroke-miterlimit="10" stroke-linecap="round" stroke-linejoin="round"/>
<path d="M54.82 96.8501H64.92" stroke="#007953" stroke-width="3.5976" stroke-miterlimit="10" stroke-linecap="round" stroke-linejoin="round"/>
<path d="M14 60.76H43.65" stroke="#007953" stroke-width="3.1973" stroke-miterlimit="10" stroke-linecap="round" stroke-linejoin="round"/>
<path d="M25.76 85.3801H74.5" stroke="#007953" stroke-width="3.5976" stroke-miterlimit="10" stroke-linecap="round" stroke-linejoin="round"/>
</svg>
