<?xml version="1.0" encoding="utf-8"?>
<!-- Generator: Adobe Illustrator 19.1.0, SVG Export Plug-In . SVG Version: 6.00 Build 0)  -->
<svg version="1.1" id="Home_01" xmlns="http://www.w3.org/2000/svg" xmlns:xlink="http://www.w3.org/1999/xlink" x="0px" y="0px"
	 viewBox="0 0 244.2 72.4" style="enable-background:new 0 0 244.2 72.4;" xml:space="preserve">
<style type="text/css">
	.st0{fill:#FFFFFF;}
	.st1{opacity:0.7;}
	.st2{fill:#1C4A9E;}
	.st3{opacity:0.93;fill:#1C4A9E;}
	.st4{opacity:0.2;clip-path:url(#SVGID_10_);}
	.st5{opacity:0.46;fill:url(#SVGID_11_);}
	.st6{opacity:0.46;fill:url(#SVGID_12_);}
	.st7{opacity:0.46;fill:url(#SVGID_13_);}
	.st8{opacity:0.46;fill:url(#SVGID_14_);}
	.st9{opacity:0.46;fill:url(#SVGID_15_);}
	.st10{opacity:0.46;fill:url(#SVGID_16_);}
	.st11{opacity:0.46;fill:url(#SVGID_17_);}
	.st12{opacity:0.46;fill:url(#SVGID_18_);}
	.st13{opacity:0.46;fill:url(#SVGID_19_);}
	.st14{opacity:0.46;fill:url(#SVGID_20_);}
	.st15{opacity:0.46;fill:url(#SVGID_21_);}
	.st16{opacity:0.46;fill:url(#SVGID_22_);}
	.st17{opacity:0.46;fill:url(#SVGID_23_);}
	.st18{opacity:0.46;fill:url(#SVGID_24_);}
	.st19{opacity:0.46;fill:url(#SVGID_25_);}
	.st20{opacity:0.46;fill:url(#SVGID_26_);}
	.st21{opacity:0.46;fill:url(#SVGID_27_);}
	.st22{opacity:0.46;fill:url(#SVGID_28_);}
	.st23{opacity:0.46;fill:url(#SVGID_29_);}
	.st24{opacity:0.46;fill:url(#SVGID_30_);}
	.st25{opacity:0.46;fill:url(#SVGID_31_);}
	.st26{opacity:0.46;fill:url(#SVGID_32_);}
	.st27{opacity:0.46;fill:url(#SVGID_33_);}
	.st28{opacity:0.46;fill:url(#SVGID_34_);}
	.st29{opacity:0.46;fill:url(#SVGID_35_);}
	.st30{opacity:0.46;fill:url(#SVGID_36_);}
	.st31{opacity:0.46;fill:url(#SVGID_37_);}
	.st32{opacity:0.46;fill:url(#SVGID_38_);}
	.st33{opacity:0.46;fill:url(#SVGID_39_);}
	.st34{opacity:0.46;fill:url(#SVGID_40_);}
	.st35{opacity:0.46;fill:url(#SVGID_41_);}
	.st36{opacity:0.46;fill:url(#SVGID_42_);}
	.st37{opacity:0.46;fill:url(#SVGID_43_);}
	.st38{opacity:0.46;fill:url(#SVGID_44_);}
	.st39{opacity:0.46;fill:url(#SVGID_45_);}
	.st40{opacity:0.46;fill:url(#SVGID_46_);}
	.st41{opacity:0.46;fill:url(#SVGID_47_);}
	.st42{opacity:0.46;fill:url(#SVGID_48_);}
	.st43{opacity:0.46;fill:url(#SVGID_49_);}
	.st44{opacity:0.46;fill:url(#SVGID_50_);}
	.st45{opacity:0.46;fill:url(#SVGID_51_);}
	.st46{opacity:0.46;fill:url(#SVGID_52_);}
	.st47{opacity:0.46;fill:url(#SVGID_53_);}
	.st48{opacity:0.46;fill:url(#SVGID_54_);}
	.st49{opacity:0.46;fill:url(#SVGID_55_);}
	.st50{opacity:0.46;fill:url(#SVGID_56_);}
	.st51{opacity:0.46;fill:url(#SVGID_57_);}
	.st52{opacity:0.46;fill:url(#SVGID_58_);}
	.st53{opacity:0.46;fill:url(#SVGID_59_);}
	.st54{opacity:0.46;fill:url(#SVGID_60_);}
	.st55{opacity:0.46;fill:url(#SVGID_61_);}
	.st56{opacity:0.46;fill:url(#SVGID_62_);}
	.st57{opacity:0.46;fill:url(#SVGID_63_);}
	.st58{opacity:0.46;fill:url(#SVGID_64_);}
	.st59{opacity:0.46;fill:url(#SVGID_65_);}
	.st60{opacity:0.46;fill:url(#SVGID_66_);}
	.st61{opacity:0.46;fill:url(#SVGID_67_);}
	.st62{opacity:0.46;fill:url(#SVGID_68_);}
	.st63{opacity:0.46;fill:url(#SVGID_69_);}
	.st64{opacity:0.46;fill:url(#SVGID_70_);}
	.st65{opacity:0.46;fill:url(#SVGID_71_);}
	.st66{opacity:0.46;fill:url(#SVGID_72_);}
	.st67{opacity:0.46;fill:url(#SVGID_73_);}
	.st68{opacity:0.46;fill:url(#SVGID_74_);}
	.st69{opacity:0.46;fill:url(#SVGID_75_);}
	.st70{opacity:0.46;fill:url(#SVGID_76_);}
	.st71{opacity:0.46;fill:url(#SVGID_77_);}
	.st72{opacity:0.46;fill:url(#SVGID_78_);}
	.st73{opacity:0.46;fill:url(#SVGID_79_);}
	.st74{opacity:0.46;fill:url(#SVGID_80_);}
	.st75{opacity:0.46;fill:url(#SVGID_81_);}
	.st76{opacity:0.46;fill:url(#SVGID_82_);}
	.st77{opacity:0.46;fill:url(#SVGID_83_);}
	.st78{opacity:0.46;fill:url(#SVGID_84_);}
	.st79{opacity:0.46;fill:url(#SVGID_85_);}
	.st80{opacity:0.46;fill:url(#SVGID_86_);}
	.st81{opacity:0.46;fill:url(#SVGID_87_);}
	.st82{opacity:0.46;fill:url(#SVGID_88_);}
	.st83{opacity:0.46;fill:url(#SVGID_89_);}
	.st84{opacity:0.46;fill:url(#SVGID_90_);}
	.st85{opacity:0.46;fill:url(#SVGID_91_);}
	.st86{opacity:0.46;fill:url(#SVGID_92_);}
	.st87{opacity:0.46;fill:url(#SVGID_93_);}
	.st88{opacity:0.46;fill:url(#SVGID_94_);}
	.st89{opacity:0.46;fill:url(#SVGID_95_);}
	.st90{opacity:0.46;fill:url(#SVGID_96_);}
	.st91{opacity:0.46;fill:url(#SVGID_97_);}
	.st92{opacity:0.46;fill:url(#SVGID_98_);}
	.st93{opacity:0.46;fill:url(#SVGID_99_);}
	.st94{opacity:0.46;fill:url(#SVGID_100_);}
	.st95{opacity:0.46;fill:url(#SVGID_101_);}
	.st96{opacity:0.46;fill:url(#SVGID_102_);}
	.st97{opacity:0.46;fill:url(#SVGID_103_);}
	.st98{opacity:0.46;fill:url(#SVGID_104_);}
	.st99{opacity:0.46;fill:url(#SVGID_105_);}
	.st100{opacity:0.46;fill:url(#SVGID_106_);}
	.st101{opacity:0.46;fill:url(#SVGID_107_);}
	.st102{opacity:0.46;fill:url(#SVGID_108_);}
	.st103{opacity:0.46;fill:url(#SVGID_109_);}
	.st104{opacity:0.46;fill:url(#SVGID_110_);}
	.st105{opacity:0.46;fill:url(#SVGID_111_);}
	.st106{opacity:0.46;fill:url(#SVGID_112_);}
	.st107{opacity:0.46;fill:url(#SVGID_113_);}
	.st108{opacity:0.46;fill:url(#SVGID_114_);}
	.st109{opacity:0.46;fill:url(#SVGID_115_);}
	.st110{opacity:0.46;fill:url(#SVGID_116_);}
	.st111{opacity:0.46;fill:url(#SVGID_117_);}
	.st112{opacity:0.46;fill:url(#SVGID_118_);}
	.st113{opacity:0.46;fill:url(#SVGID_119_);}
	.st114{opacity:0.46;fill:url(#SVGID_120_);}
	.st115{opacity:0.46;fill:url(#SVGID_121_);}
	.st116{opacity:0.46;fill:url(#SVGID_122_);}
	.st117{opacity:0.46;fill:url(#SVGID_123_);}
	.st118{opacity:0.46;fill:url(#SVGID_124_);}
	.st119{opacity:0.46;fill:url(#SVGID_125_);}
	.st120{opacity:0.46;fill:url(#SVGID_126_);}
	.st121{opacity:0.46;fill:url(#SVGID_127_);}
	.st122{opacity:0.46;fill:url(#SVGID_128_);}
	.st123{opacity:0.46;fill:url(#SVGID_129_);}
	.st124{opacity:0.46;fill:url(#SVGID_130_);}
	.st125{opacity:0.46;fill:url(#SVGID_131_);}
	.st126{opacity:0.46;fill:url(#SVGID_132_);}
	.st127{opacity:0.46;fill:url(#SVGID_133_);}
	.st128{opacity:0.46;fill:url(#SVGID_134_);}
	.st129{opacity:0.46;fill:url(#SVGID_135_);}
	.st130{opacity:0.46;fill:url(#SVGID_136_);}
	.st131{opacity:0.46;fill:url(#SVGID_137_);}
	.st132{opacity:0.46;fill:url(#SVGID_138_);}
	.st133{opacity:0.46;fill:url(#SVGID_139_);}
	.st134{opacity:0.46;fill:url(#SVGID_140_);}
	.st135{opacity:0.46;fill:url(#SVGID_141_);}
	.st136{opacity:0.46;fill:url(#SVGID_142_);}
	.st137{opacity:0.46;fill:url(#SVGID_143_);}
	.st138{opacity:0.46;fill:url(#SVGID_144_);}
	.st139{opacity:0.46;fill:url(#SVGID_145_);}
	.st140{opacity:0.46;fill:url(#SVGID_146_);}
	.st141{opacity:0.46;fill:url(#SVGID_147_);}
	.st142{opacity:0.46;fill:url(#SVGID_148_);}
	.st143{opacity:0.46;fill:url(#SVGID_149_);}
	.st144{opacity:0.46;fill:url(#SVGID_150_);}
	.st145{opacity:0.46;fill:url(#SVGID_151_);}
	.st146{opacity:0.46;fill:url(#SVGID_152_);}
	.st147{opacity:0.46;fill:url(#SVGID_153_);}
	.st148{opacity:0.46;fill:url(#SVGID_154_);}
	.st149{fill:#3C9FE3;}
	.st150{fill:#F4F4F3;}
	.st151{fill:none;stroke:#3C9FE3;stroke-width:10;stroke-linecap:round;stroke-linejoin:round;stroke-miterlimit:10;}
	.st152{fill:none;stroke:#E6E5E9;stroke-width:10;stroke-linecap:round;stroke-linejoin:round;stroke-miterlimit:10;}
	.st153{fill-rule:evenodd;clip-rule:evenodd;}
	.st154{fill-rule:evenodd;clip-rule:evenodd;fill:none;stroke:#000000;stroke-width:2;stroke-miterlimit:10;}
	.st155{fill:none;stroke:#F4F4F3;stroke-width:0.5;stroke-miterlimit:10;}
	.st156{opacity:0.7;fill:#3C9FE3;}
	.st157{opacity:0.3;fill:#3C9FE3;}
	.st158{fill:#DEDEDE;}
	.st159{fill:#1A1818;}
	.st160{fill:none;stroke:#1A1818;stroke-width:1.1946;stroke-miterlimit:10;}
	.st161{stroke:#B1B1B1;stroke-miterlimit:10;}
	.st162{fill:url(#SVGID_155_);}
	.st163{fill:url(#SVGID_156_);}
	.st164{fill:url(#SVGID_157_);}
	.st165{fill:url(#SVGID_158_);}
	.st166{opacity:0.2;enable-background:new    ;}
	.st167{opacity:0.12;enable-background:new    ;}
	.st168{opacity:0.25;fill:#FFFFFF;enable-background:new    ;}
	.st169{fill:#FFFFFF;stroke:#FFFFFF;stroke-width:0.2;stroke-miterlimit:10;}
	.st170{fill:#1D1D1B;stroke:#B1B1B1;stroke-miterlimit:10;}
	.st171{clip-path:url(#SVGID_162_);fill:#C90030;}
	.st172{clip-path:url(#SVGID_162_);}
	.st173{opacity:0.5;clip-path:url(#SVGID_164_);fill:none;stroke:#C90030;stroke-width:12.628;stroke-miterlimit:10;}
	.st174{opacity:0.5;clip-path:url(#SVGID_164_);fill:none;stroke:#EEAD09;stroke-width:12.628;stroke-miterlimit:10;}
	.st175{opacity:0.5;clip-path:url(#SVGID_164_);fill:none;stroke:#63A8D6;stroke-width:12.628;stroke-miterlimit:10;}
	.st176{fill:#1A47A0;}
	.st177{fill:none;stroke:#1A47A0;stroke-miterlimit:10;}
	.st178{fill:#7A8398;}
	.st179{clip-path:url(#SVGID_166_);}
	.st180{clip-path:url(#SVGID_168_);}
	.st181{opacity:0.8;}
	.st182{fill:#F9F9F9;}
	.st183{fill:none;stroke:#D5DBD4;stroke-miterlimit:10;}
	.st184{fill:none;stroke:#7A8398;stroke-width:0.5;stroke-miterlimit:10;}
	.st185{fill:none;stroke:#7A8398;stroke-miterlimit:10;}
	.st186{opacity:0.5;fill:#3C9FE3;}
	.st187{fill:none;stroke:#6162DC;stroke-width:0.5616;stroke-linecap:round;stroke-miterlimit:10;}
	.st188{fill:none;stroke:#FFFFFF;stroke-width:2.1452;stroke-linecap:round;stroke-linejoin:round;stroke-miterlimit:10;}
	.st189{fill:none;stroke:#FFFFFF;stroke-width:2.3678;stroke-linecap:round;stroke-linejoin:round;stroke-miterlimit:10;}
	.st190{fill:none;stroke:#F4F4F3;stroke-miterlimit:10;}
	.st191{fill-rule:evenodd;clip-rule:evenodd;fill:#F4F4F3;}
	.st192{fill:#9C9C9C;}
	.st193{opacity:0.87;}
	.st194{fill:#C90030;}
	.st195{opacity:0.5;clip-path:url(#SVGID_174_);fill:none;stroke:#C90030;stroke-width:33.0567;stroke-miterlimit:10;}
	.st196{opacity:0.5;clip-path:url(#SVGID_174_);fill:none;stroke:#EEAD09;stroke-width:33.0567;stroke-miterlimit:10;}
	.st197{opacity:0.5;clip-path:url(#SVGID_174_);fill:none;stroke:#63A8D6;stroke-width:33.0567;stroke-miterlimit:10;}
	.st198{fill:none;stroke:#FFFFFF;stroke-miterlimit:10;}
	.st199{fill:none;stroke:#000000;stroke-miterlimit:10;}
	.st200{opacity:0.4;}
	.st201{opacity:0.5;}
	.st202{fill:#F3F3F3;}
	.st203{fill:#007EFF;}
	.st204{fill:none;stroke:#007EFF;stroke-miterlimit:10;}
	.st205{opacity:0.2;}
	.st206{clip-path:url(#SVGID_180_);}
	.st207{clip-path:url(#SVGID_184_);fill:url(#SVGID_185_);}
	.st208{clip-path:url(#SVGID_184_);fill:url(#SVGID_186_);}
	.st209{opacity:0.61;fill:#1C4A9E;}
	.st210{opacity:0.1;clip-path:url(#SVGID_188_);}
	.st211{fill:#3E3E3F;}
	.st212{fill:#353638;}
	.st213{clip-path:url(#SVGID_188_);fill:url(#SVGID_189_);}
	.st214{clip-path:url(#SVGID_188_);fill:url(#SVGID_190_);}
	.st215{opacity:0.1;}
	.st216{fill:none;stroke:#000000;stroke-width:0.5;stroke-miterlimit:10;}
	.st217{fill:none;stroke:#7A8398;stroke-width:0.5315;stroke-miterlimit:10;}
	.st218{fill:none;stroke:#1A1818;stroke-width:2;stroke-miterlimit:10;}
	.st219{fill-rule:evenodd;clip-rule:evenodd;fill:#1A1818;}
	.st220{fill:none;stroke:#1A1818;stroke-width:1.0065;stroke-miterlimit:10;}
	.st221{fill:url(#SVGID_191_);}
	.st222{fill:url(#SVGID_192_);}
	.st223{fill:url(#SVGID_193_);}
	.st224{fill:url(#SVGID_194_);}
	.st225{opacity:0.87;fill:#1C4A9E;}
	.st226{fill:none;stroke:#FFFFFF;stroke-width:3.6614;stroke-linecap:round;stroke-linejoin:round;stroke-miterlimit:10;}
	.st227{fill:none;stroke:#FFFFFF;stroke-width:3.2256;stroke-linecap:round;stroke-linejoin:round;stroke-miterlimit:10;}
	.st228{fill:none;stroke:#1A1818;stroke-linecap:round;stroke-linejoin:round;}
	.st229{clip-path:url(#SVGID_196_);}
	.st230{fill:#26DC4E;}
	.st231{fill:none;stroke:#3B3B3B;stroke-miterlimit:10;}
	.st232{fill:none;stroke:#26DC4E;stroke-width:1.5;stroke-miterlimit:10;}
	.st233{fill:#FF003E;}
	.st234{fill:none;stroke:#FF003E;stroke-width:1.5;stroke-miterlimit:10;}
	.st235{clip-path:url(#SVGID_198_);}
	.st236{opacity:0.7;fill:url(#SVGID_201_);}
	.st237{clip-path:url(#SVGID_203_);}
	.st238{clip-path:url(#SVGID_207_);}
	.st239{opacity:0.8;fill:#2F2B24;}
	.st240{opacity:0.7;fill:url(#SVGID_210_);}
	.st241{fill:url(#SVGID_211_);}
	.st242{fill:url(#SVGID_212_);}
	.st243{fill:url(#SVGID_213_);}
	.st244{fill:url(#SVGID_214_);}
	.st245{fill:#1D1D1B;}
	.st246{clip-path:url(#SVGID_216_);}
	.st247{opacity:0.7;fill:url(#SVGID_219_);}
	.st248{fill:url(#SVGID_220_);}
	.st249{fill:url(#SVGID_221_);}
	.st250{fill:url(#SVGID_222_);}
	.st251{fill:url(#SVGID_223_);}
	.st252{fill:url(#SVGID_226_);}
	.st253{fill:url(#SVGID_227_);}
	.st254{fill:url(#SVGID_228_);}
	.st255{fill:url(#SVGID_229_);}
	.st256{clip-path:url(#SVGID_231_);}
	.st257{clip-path:url(#SVGID_235_);}
	.st258{opacity:0.7;fill:url(#SVGID_238_);}
	.st259{clip-path:url(#SVGID_240_);}
	.st260{clip-path:url(#SVGID_242_);}
	.st261{opacity:0.8;clip-path:url(#SVGID_240_);fill:#2F2B24;}
	.st262{opacity:0.7;clip-path:url(#SVGID_240_);fill:url(#SVGID_245_);}
	.st263{clip-path:url(#SVGID_247_);}
	.st264{clip-path:url(#SVGID_249_);}
	.st265{opacity:0.8;clip-path:url(#SVGID_247_);fill:#2F2B24;}
	.st266{opacity:0.7;clip-path:url(#SVGID_247_);fill:url(#SVGID_252_);}
	.st267{clip-path:url(#SVGID_254_);}
	.st268{opacity:0.7;fill:url(#SVGID_257_);}
	.st269{clip-path:url(#SVGID_259_);}
	.st270{clip-path:url(#SVGID_263_);}
	.st271{opacity:0.7;fill:url(#SVGID_266_);}
	.st272{clip-path:url(#SVGID_268_);}
	.st273{clip-path:url(#SVGID_270_);}
	.st274{opacity:0.8;clip-path:url(#SVGID_268_);fill:#2F2B24;}
	.st275{opacity:0.7;clip-path:url(#SVGID_268_);fill:url(#SVGID_273_);}
	.st276{clip-path:url(#SVGID_275_);}
	.st277{clip-path:url(#SVGID_277_);}
	.st278{opacity:0.8;clip-path:url(#SVGID_275_);fill:#2F2B24;}
	.st279{clip-path:url(#SVGID_281_);}
	.st280{opacity:0.7;fill:url(#SVGID_284_);}
	.st281{fill:url(#SVGID_285_);}
	.st282{fill:url(#SVGID_286_);}
	.st283{fill:url(#SVGID_287_);}
	.st284{fill:url(#SVGID_288_);}
	.st285{fill:#FFFFFF;stroke:#FFFFFF;stroke-width:8.395900e-02;stroke-miterlimit:10;}
	.st286{fill:url(#SVGID_289_);}
	.st287{fill:url(#SVGID_290_);}
	.st288{fill:url(#SVGID_291_);}
	.st289{fill:url(#SVGID_292_);}
	.st290{fill:url(#SVGID_293_);}
	.st291{fill:url(#SVGID_294_);}
	.st292{fill:url(#SVGID_295_);}
	.st293{fill:url(#SVGID_296_);}
	.st294{opacity:0.42;fill:url(#SVGID_297_);}
	.st295{fill:url(#SVGID_298_);}
	.st296{fill:url(#SVGID_299_);}
	.st297{fill:url(#SVGID_300_);}
	.st298{fill:url(#SVGID_301_);}
	.st299{fill:#231F20;}
	.st300{fill:url(#SVGID_302_);}
	.st301{fill:url(#SVGID_303_);}
	.st302{fill:url(#SVGID_304_);}
	.st303{fill:url(#SVGID_305_);}
	.st304{fill:#231F20;stroke:#231F20;stroke-width:0.2;stroke-miterlimit:10;}
	.st305{fill:url(#SVGID_306_);}
	.st306{fill:url(#SVGID_307_);}
	.st307{fill:none;}
	.st308{opacity:0.42;fill:url(#SVGID_308_);}
	.st309{fill:url(#SVGID_309_);}
	.st310{fill:url(#SVGID_310_);}
	.st311{fill:url(#SVGID_311_);}
	.st312{fill:url(#SVGID_312_);}
	.st313{fill:url(#SVGID_313_);}
	.st314{fill:url(#SVGID_314_);}
	.st315{fill:url(#SVGID_315_);}
	.st316{fill:url(#SVGID_316_);}
	.st317{opacity:0.1;clip-path:url(#SVGID_320_);}
	.st318{clip-path:url(#SVGID_320_);fill:url(#SVGID_321_);}
	.st319{clip-path:url(#SVGID_320_);fill:url(#SVGID_322_);}
	.st320{opacity:0.25;fill:#3C9FE3;}
	.st321{opacity:0.75;fill:#3C9FE3;}
	.st322{fill:#FFFF00;}
</style>
<g>
	<g>
		<g>
			<path d="M229.8,70.6H14.4c-4.7,0-8.6-3.9-8.6-8.6V10.3c0-4.7,3.9-8.6,8.6-8.6h215.5c4.7,0,8.6,3.9,8.6,8.6V62
				C238.4,66.8,234.6,70.6,229.8,70.6z"/>
		</g>
		<g>
			<g>
				<path class="st0" d="M229.8,1.7H14.4c-4.7,0-8.6,3.9-8.6,8.6V62c0,4.7,3.9,8.6,8.6,8.6h215.5c4.7,0,8.6-3.9,8.6-8.6V10.3
					C238.4,5.6,234.6,1.7,229.8,1.7L229.8,1.7z"/>
			</g>
		</g>
		<path class="st299" d="M123.2,39.2c-4.1,0-7.4,3.1-7.4,7.3c0,4.2,3.3,7.3,7.4,7.3c4.1,0,7.4-3.1,7.4-7.3
			C130.5,42.3,127.2,39.2,123.2,39.2z M123.2,51c-2.2,0-4.1-1.8-4.1-4.4c0-2.6,1.9-4.4,4.1-4.4c2.2,0,4.1,1.8,4.1,4.4
			C127.3,49.1,125.4,51,123.2,51z M107.1,39.2c-4.1,0-7.4,3.1-7.4,7.3c0,4.2,3.3,7.3,7.4,7.3s7.4-3.1,7.4-7.3
			C114.5,42.3,111.2,39.2,107.1,39.2z M107.1,51c-2.2,0-4.1-1.8-4.1-4.4c0-2.6,1.9-4.4,4.1-4.4c2.2,0,4.1,1.8,4.1,4.4
			C111.3,49.1,109.4,51,107.1,51z M88,41.4v3.1h7.4c-0.2,1.8-0.8,3-1.7,3.9c-1.1,1.1-2.8,2.3-5.7,2.3c-4.6,0-8.2-3.7-8.2-8.3
			s3.6-8.3,8.2-8.3c2.5,0,4.3,1,5.6,2.2l2.2-2.2c-1.9-1.8-4.3-3.1-7.8-3.1c-6.3,0-11.6,5.1-11.6,11.4c0,6.3,5.3,11.4,11.6,11.4
			c3.4,0,5.9-1.1,7.9-3.2c2.1-2.1,2.7-4.9,2.7-7.3c0-0.7-0.1-1.4-0.2-1.9H88z M166.1,43.9c-0.6-1.6-2.5-4.7-6.3-4.7
			c-3.8,0-6.9,3-6.9,7.3c0,4.1,3.1,7.3,7.3,7.3c3.4,0,5.3-2.1,6.1-3.2l-2.5-1.7c-0.8,1.2-2,2-3.6,2c-1.6,0-2.8-0.8-3.6-2.2l9.8-4.1
			L166.1,43.9z M156.1,46.3c-0.1-2.8,2.2-4.3,3.8-4.3c1.3,0,2.4,0.6,2.7,1.6L156.1,46.3z M148.2,53.4h3.2V31.9h-3.2V53.4z
			 M142.9,40.8h-0.1c-0.7-0.9-2.1-1.6-3.9-1.6c-3.7,0-7,3.2-7,7.4c0,4.1,3.4,7.3,7,7.3c1.7,0,3.1-0.8,3.9-1.7h0.1v1.1
			c0,2.8-1.5,4.3-3.9,4.3c-2,0-3.2-1.4-3.7-2.6l-2.8,1.2c0.8,1.9,2.9,4.3,6.5,4.3c3.8,0,7-2.2,7-7.6V39.6h-3.1V40.8z M139.2,51
			c-2.2,0-4.1-1.9-4.1-4.4c0-2.6,1.9-4.5,4.1-4.5c2.2,0,3.9,1.9,3.9,4.5C143.1,49.1,141.4,51,139.2,51z M181.2,31.9h-7.7v21.5h3.2
			v-8.2h4.5c3.6,0,7.1-2.6,7.1-6.7C188.3,34.4,184.8,31.9,181.2,31.9z M181.3,42.3h-4.6v-7.4h4.6c2.4,0,3.8,2,3.8,3.7
			C185.1,40.2,183.7,42.3,181.3,42.3z M201.2,39.2c-2.3,0-4.7,1-5.7,3.3l2.9,1.2c0.6-1.2,1.7-1.6,2.9-1.6c1.7,0,3.4,1,3.4,2.8v0.2
			c-0.6-0.3-1.8-0.8-3.4-0.8c-3.1,0-6.2,1.7-6.2,4.8c0,2.9,2.5,4.7,5.4,4.7c2.2,0,3.4-1,4.1-2.1h0.1v1.7h3.1v-8.3
			C207.7,41.3,204.9,39.2,201.2,39.2z M200.8,51c-1.1,0-2.5-0.5-2.5-1.8c0-1.7,1.8-2.3,3.4-2.3c1.4,0,2.1,0.3,2.9,0.7
			C204.4,49.6,202.7,51,200.8,51z M219,39.6l-3.7,9.3h-0.1l-3.8-9.3h-3.5l5.7,13.1l-3.3,7.3h3.4l8.8-20.3H219z M190.1,53.4h3.2V31.9
			h-3.2V53.4z"/>
		<g>
			
				<linearGradient id="SVGID_2_" gradientUnits="userSpaceOnUse" x1="43.3246" y1="-2776.0811" x2="14.3979" y2="-2805.0078" gradientTransform="matrix(1 0 0 -1 0 -2759.3638)">
				<stop  offset="0" style="stop-color:#5A9EFB"/>
				<stop  offset="6.574450e-03" style="stop-color:#5A9FFB"/>
				<stop  offset="0.2601" style="stop-color:#6BBCFC"/>
				<stop  offset="0.5122" style="stop-color:#76D0FC"/>
				<stop  offset="0.7604" style="stop-color:#7DDDFD"/>
				<stop  offset="1" style="stop-color:#80E1FD"/>
			</linearGradient>
			<path style="fill:url(#SVGID_2_);" d="M23.7,14.7c-0.5,0.5-0.8,1.4-0.8,2.4v38.1c0,1.1,0.3,1.9,0.8,2.4l0.1,0.1l21.4-21.4v-0.3
				v-0.3L23.9,14.6L23.7,14.7z"/>
			
				<linearGradient id="SVGID_4_" gradientUnits="userSpaceOnUse" x1="64.0666" y1="-2795.5449" x2="22.3619" y2="-2795.5449" gradientTransform="matrix(1 0 0 -1 0 -2759.3638)">
				<stop  offset="0" style="stop-color:#F5DE34"/>
				<stop  offset="0.4087" style="stop-color:#EDBB2C"/>
				<stop  offset="0.7754" style="stop-color:#E8A326"/>
				<stop  offset="1" style="stop-color:#E79A24"/>
			</linearGradient>
			<path style="fill:url(#SVGID_4_);" d="M52.3,43.6l-7.1-7.1v-0.3v-0.3l7.1-7.1l0.2,0.1l8.4,4.8c2.4,1.4,2.4,3.6,0,5l-8.4,4.8
				L52.3,43.6z"/>
			
				<linearGradient id="SVGID_6_" gradientUnits="userSpaceOnUse" x1="48.5418" y1="-2799.4995" x2="9.3159" y2="-2838.7256" gradientTransform="matrix(1 0 0 -1 0 -2759.3638)">
				<stop  offset="0" style="stop-color:#DC3D45"/>
				<stop  offset="1" style="stop-color:#A61860"/>
			</linearGradient>
			<path style="fill:url(#SVGID_6_);" d="M52.5,43.5l-7.3-7.3L23.7,57.7c0.8,0.8,2.1,0.9,3.6,0.1L52.5,43.5"/>
			
				<linearGradient id="SVGID_8_" gradientUnits="userSpaceOnUse" x1="18.3273" y1="-2761.3721" x2="35.8441" y2="-2778.8889" gradientTransform="matrix(1 0 0 -1 0 -2759.3638)">
				<stop  offset="0" style="stop-color:#629E73"/>
				<stop  offset="6.850000e-02" style="stop-color:#64A473"/>
				<stop  offset="0.4762" style="stop-color:#76CD79"/>
				<stop  offset="0.8009" style="stop-color:#81E57C"/>
				<stop  offset="1" style="stop-color:#86EF7D"/>
			</linearGradient>
			<path style="fill:url(#SVGID_8_);" d="M52.5,28.9L27.3,14.6c-1.5-0.8-2.8-0.7-3.6,0.1l21.5,21.5L52.5,28.9z"/>
			<g>
				<path class="st166" d="M52.3,43.3l-25,14.2c-1.4,0.8-2.7,0.7-3.5,0l0,0l-0.1,0.1l0,0l0.1,0.1h0c0.8,0.7,2.1,0.8,3.5,0l25.2-14.3
					L52.3,43.3z"/>
				<path class="st167" d="M23.7,57.4c-0.5-0.5-0.8-1.4-0.8-2.4v0.3c0,1.1,0.3,1.9,0.8,2.4l0.1-0.1L23.7,57.4z"/>
			</g>
			<path class="st167" d="M60.9,38.4l-8.6,4.9l0.2,0.2l8.4-4.8c1.2-0.7,1.8-1.6,1.8-2.5l0,0C62.6,37,62,37.8,60.9,38.4z"/>
			<path class="st168" d="M27.3,14.8l33.6,19.1c1.1,0.6,1.7,1.4,1.8,2.2l0,0c0-0.9-0.6-1.8-1.8-2.5L27.3,14.6
				c-2.4-1.4-4.4-0.2-4.4,2.5v0.3C22.9,14.6,24.9,13.5,27.3,14.8z"/>
		</g>
	</g>
	<g>
		<path class="st304" d="M76.9,24.1V13.8h3.2c1.6,0,2.9,0.5,3.8,1.4c1,1,1.4,2.2,1.4,3.7c0,1.5-0.5,2.8-1.4,3.7
			c-1,1-2.2,1.4-3.8,1.4H76.9z M78.2,22.8h1.8c1.2,0,2.1-0.3,2.8-1c0.7-0.7,1-1.6,1-2.9c0-1.2-0.3-2.2-1-2.9c-0.7-0.7-1.6-1-2.8-1
			h-1.8V22.8z"/>
		<path class="st304" d="M87.2,24.1V13.8h1.3v10.3H87.2z"/>
		<path class="st304" d="M93.8,24.3c-0.8,0-1.5-0.2-2.2-0.7c-0.7-0.5-1.2-1.2-1.4-2.1l1.2-0.5c0.1,0.6,0.4,1,0.9,1.4
			c0.4,0.4,1,0.6,1.5,0.6c0.6,0,1.1-0.2,1.5-0.5c0.4-0.3,0.6-0.7,0.6-1.2c0-0.6-0.2-1-0.6-1.3c-0.4-0.3-1.1-0.6-1.9-0.9
			c-0.9-0.3-1.6-0.7-2.1-1.1c-0.5-0.5-0.7-1-0.7-1.8c0-0.7,0.3-1.4,0.9-1.9c0.6-0.5,1.4-0.8,2.3-0.8c0.9,0,1.6,0.2,2.1,0.7
			c0.5,0.4,0.9,0.9,1.1,1.4l-1.2,0.5c-0.1-0.3-0.3-0.6-0.6-0.9c-0.3-0.3-0.8-0.4-1.3-0.4c-0.5,0-0.9,0.1-1.3,0.4
			c-0.4,0.3-0.5,0.6-0.5,1.1c0,0.4,0.2,0.7,0.5,1c0.3,0.3,0.8,0.5,1.5,0.7c0.5,0.2,0.9,0.3,1.3,0.5c0.3,0.2,0.7,0.4,1,0.6
			c0.4,0.3,0.6,0.6,0.8,1c0.2,0.4,0.3,0.8,0.3,1.3c0,0.5-0.1,0.9-0.3,1.3c-0.2,0.4-0.5,0.7-0.8,0.9c-0.3,0.2-0.7,0.4-1.1,0.5
			C94.6,24.3,94.2,24.3,93.8,24.3z"/>
		<path class="st304" d="M100.5,24.1h-1.3V13.8h3.5c0.9,0,1.6,0.3,2.3,0.9c0.6,0.6,1,1.3,1,2.2c0,0.9-0.3,1.6-1,2.2
			c-0.6,0.6-1.4,0.9-2.3,0.9h-2.2V24.1z M100.5,18.7h2.2c0.6,0,1-0.2,1.3-0.6c0.3-0.4,0.5-0.8,0.5-1.2c0-0.5-0.2-0.9-0.5-1.2
			c-0.3-0.4-0.8-0.6-1.3-0.6h-2.2V18.7z"/>
		<path class="st304" d="M116,22.8c-1,1-2.3,1.6-3.8,1.6c-1.5,0-2.8-0.5-3.8-1.6c-1-1-1.5-2.3-1.5-3.8c0-1.5,0.5-2.8,1.5-3.8
			c1-1,2.3-1.6,3.8-1.6c1.5,0,2.8,0.5,3.8,1.6c1,1,1.5,2.3,1.5,3.8C117.6,20.5,117.1,21.7,116,22.8z M109.4,21.9
			c0.8,0.8,1.7,1.2,2.8,1.2c1.1,0,2-0.4,2.8-1.2c0.8-0.8,1.1-1.8,1.1-3c0-1.2-0.4-2.2-1.1-3c-0.8-0.8-1.7-1.2-2.8-1.2
			c-1.1,0-2,0.4-2.8,1.2c-0.8,0.8-1.1,1.8-1.1,3C108.3,20.1,108.7,21.1,109.4,21.9z"/>
		<path class="st304" d="M119.4,24.1V13.8h1.6l5,8h0.1l-0.1-2v-6.1h1.3v10.3H126l-5.3-8.4h-0.1l0.1,2v6.4H119.4z"/>
		<path class="st304" d="M129.8,24.1V13.8h1.3v10.3H129.8z"/>
		<path class="st304" d="M133.5,24.1V13.8h3.7c0.8,0,1.5,0.3,2.1,0.8c0.6,0.5,0.9,1.2,0.9,2c0,0.5-0.1,0.9-0.4,1.3
			c-0.3,0.4-0.6,0.7-1,0.9v0.1c0.5,0.2,0.9,0.5,1.3,0.9c0.3,0.4,0.5,0.9,0.5,1.5c0,0.8-0.3,1.6-0.9,2.1c-0.6,0.6-1.4,0.8-2.2,0.8
			H133.5z M134.8,18.2h2.4c0.5,0,0.9-0.2,1.2-0.5c0.3-0.3,0.5-0.7,0.5-1.1c0-0.4-0.1-0.8-0.4-1.1c-0.3-0.3-0.7-0.5-1.2-0.5h-2.5
			V18.2z M134.8,22.8h2.7c0.5,0,0.9-0.2,1.2-0.5c0.3-0.4,0.5-0.7,0.5-1.2c0-0.4-0.2-0.8-0.5-1.2c-0.3-0.3-0.8-0.5-1.3-0.5h-2.6V22.8
			z"/>
		<path class="st304" d="M142.3,24.1V13.8h1.3v9.1h4.5v1.3H142.3z"/>
		<path class="st304" d="M155.9,15h-4.7v3.3h4.2v1.2h-4.2v3.3h4.7v1.3h-6V13.8h6V15z"/>
		<path class="st304" d="M167.4,15h-4.7v3.3h4.2v1.2h-4.2v3.3h4.7v1.3h-6V13.8h6V15z"/>
		<path class="st304" d="M169.5,24.1V13.8h1.6l5,8h0.1l-0.1-2v-6.1h1.3v10.3h-1.4l-5.3-8.4h-0.1l0.1,2v6.4H169.5z"/>
	</g>
</g>
</svg>
