<?xml version="1.0" encoding="utf-8"?>
<!-- Generator: Adobe Illustrator 16.0.0, SVG Export Plug-In . SVG Version: 6.00 Build 0)  -->
<!DOCTYPE svg PUBLIC "-//W3C//DTD SVG 1.1//EN" "http://www.w3.org/Graphics/SVG/1.1/DTD/svg11.dtd">
<svg version="1.1" id="Home_01" xmlns="http://www.w3.org/2000/svg" xmlns:xlink="http://www.w3.org/1999/xlink" x="0px" y="0px"
	 width="82px" height="82px" viewBox="0 0 82 82" enable-background="new 0 0 82 82" xml:space="preserve">
<g>
	<path fill-rule="evenodd" clip-rule="evenodd" d="M50.477,28.938c-0.545,0.039-1.032,0.068-1.554,0.102
		c0.01,0.244-0.013,0.434,0.035,0.602c0.371,1.26,0.693,2.541,1.143,3.783c0.985,2.713,1.954,5.445,3.065,8.113
		c1.44,3.469,3.012,6.881,4.534,10.309c0.584,1.318,1.168,2.645,1.788,3.941c0.2,0.4,0.532,0.744,0.82,1.148
		c-0.463,1.383-1.124,2.691-2.047,3.891c-0.973,1.266-2.177,2.141-3.706,2.584c-2.085,0.598-4.139,0.574-6.156-0.244
		c-1.814-0.744-3.004-2.066-3.752-3.875c-0.396-0.965-0.544-1.893-0.396-2.922c0.337-2.406,0.611-4.822,0.898-7.23
		c0.196-1.617,0.367-3.232,0.568-4.844c0.12-0.918,0.295-1.822,0.416-2.736c0.367-2.744,0.73-5.494,1.099-8.236
		c0.154-1.188,0.332-2.373,0.491-3.562c0.021-0.146,0.002-0.303,0.002-0.531c-1.537,0.107-3.052,0.291-4.573,0.312
		c-1.506,0.008-3.013-0.123-4.519-0.232c-1.533-0.115-3.061-0.281-4.642-0.432c-0.253,1.039-0.088,2.098,0.068,3.15
		c0.217,1.461,0.464,2.914,0.693,4.371c0.216,1.312,0.437,2.611,0.63,3.922c0.421,2.734,0.803,5.473,1.25,8.209
		c0.409,2.512,0.89,5.02,1.343,7.529c0.036,0.213,0.062,0.449,0.177,0.621c1.043,1.471,0.591,2.916-0.08,4.357
		c-0.418,0.902-1.127,1.525-1.986,2c-1.822,0.998-3.689,1.855-5.846,1.73c-3.45-0.211-6.017-1.787-7.569-4.912
		c-0.22-0.441-0.449-0.879-0.617-1.338c-0.2-0.557,0.358-0.871,0.51-1.322c0.542-1.609,1.159-3.182,1.735-4.773
		c0.678-1.904,1.314-3.834,2.028-5.736c1.669-4.441,3.36-8.873,5.064-13.301c0.483-1.258,1.048-2.492,1.567-3.744
		c0.105-0.252,0.179-0.514,0.269-0.783c-0.78-0.143-1.502-0.303-2.228-0.375c-0.283-0.029-0.58,0.156-0.948,0.268
		c-0.122-0.137-0.293-0.332-0.593-0.674c0.063,0.424,0.109,0.656,0.134,0.887c0.104,0.92-0.47,2.465-1.548,2.793
		c-0.976,0.297-1.865-0.051-2.314-0.975c-0.608-1.217-0.222-3.145,0.808-4.066c0.619-0.559,1.319-0.637,2.058-0.318
		c0.336,0.145,0.706,0.311,0.934,0.58c0.562,0.658,1.333,0.756,2.072,0.842c2.088,0.232,4.17,0.383,6.256,0.576
		c0.6,0.059,1.205,0.131,1.901,0.199v-9.568c-1.235-0.297-2.478-1.732-2.548-2.963c-0.038-0.678,0.351-1.199,0.826-1.574
		c0.822-0.646,1.755-1.135,2.82-1.303c1.205-0.197,1.908,0.535,2.492,1.391c0.523,0.768,0.533,1.594,0,2.418
		c-0.35,0.543-0.697,0.994-1.355,1.174c-0.379,0.096-0.714,0.307-0.994,0.432c0.047,1.691,0.06,3.283,0.146,4.877
		c0.066,1.475,0.208,2.947,0.332,4.414c0.015,0.211,0.093,0.414,0.168,0.723c1.228,0.033,2.454,0.156,3.667,0.074
		c1.593-0.105,3.168-0.361,4.752-0.564c0.393-0.047,0.719-0.145,1.041-0.486c0.892-0.947,3.211-1.623,4.562-0.453
		c0.529,0.453,0.882,0.965,0.832,1.666c-0.049,0.602-0.104,1.229-0.288,1.803c-0.297,0.936-1.141,1.529-2.104,1.482
		c-0.633-0.027-1.296-0.148-1.885-0.387C51.069,31.292,50.679,30.608,50.477,28.938 M28.716,30.108
		c-0.119,0.02-0.238,0.033-0.35,0.068c-0.42,0.139-0.848,0.211-1.212-0.129c-0.403-0.395-0.372-0.906-0.208-1.379
		c0.102-0.271,0.318-0.535,0.555-0.713c0.547-0.408,1.15-0.645,1.861-0.209c-0.355-0.34-0.704-0.662-1.111-0.777
		c-0.58-0.176-1.217-0.092-1.606,0.43c-0.557,0.75-0.921,1.58-0.542,2.572c0.23,0.609,0.724,1.16,1.171,1.146
		c0.694-0.021,1.259-0.254,1.425-1.025c0.102-0.365,0.293-0.73,0.287-1.096c-0.005-0.248-0.23-0.617-0.446-0.723
		c-0.358-0.154-0.622,0.168-0.817,0.453c-0.229,0.312-0.232,0.625,0.026,0.9C28.093,29.782,28.626,29.487,28.716,30.108
		 M48.537,31.073c-0.017,0.254-0.056,0.52-0.044,0.777c0.088,2.139,0.147,4.279,0.302,6.414c0.146,1.994,0.419,3.975,0.608,5.963
		c0.073,0.764,0.047,1.539,0.101,2.309c0.145,2.33,0.338,4.666,0.456,7c0.062,1.154,0.013,2.32,0.013,3.578
		c0.598-0.049,1.074-0.115,1.549-0.121c1.696-0.02,3.393,0.006,5.088-0.031c0.866-0.018,1.759,0.037,2.624-0.359
		C55.117,48.288,51.8,39.704,48.537,31.073 M31.376,57.759c0.117-4.371,0.139-8.594,0.349-12.803
		c0.219-4.203,0.598-8.391,0.907-12.602c-0.854,1.102-9.375,23.768-9.547,25.404H31.376z M37.606,57.438
		c-1.49-8.572-2.831-17.086-4.188-25.611c-0.15,1.035-0.21,2.066-0.318,3.086c-0.162,1.619-0.418,3.229-0.526,4.844
		c-0.209,3.25-0.377,6.5-0.501,9.756c-0.082,2.248-0.064,4.496-0.064,6.742c0,0.48,0.114,0.949,0.197,1.51
		C34.087,57.647,35.859,57.542,37.606,57.438 M49.3,56.979c0.044-0.83,0.117-1.535,0.112-2.242c-0.015-1.26-0.048-2.525-0.128-3.783
		c-0.142-2.281-0.322-4.551-0.494-6.83c-0.134-1.713-0.286-3.432-0.418-5.145c-0.156-1.947-0.294-3.893-0.439-5.844
		c-0.066,0-0.123,0-0.188,0c-0.983,8.049-2.388,16.051-2.895,24.273C46.4,57.259,47.802,57.128,49.3,56.979 M51.768,28.708
		c-0.58,0.439-0.718,0.717-0.542,1.168c0.396,1.051,2.014,1.893,3.111,1.625c0.92-0.23,1.465-0.842,1.606-1.811
		c0.142-1.012-0.188-1.787-0.953-2.207c-0.646-0.367-1.926-0.273-2.502,0.17c0.405,0.08,0.838,0.109,1.236,0.246
		c1.14,0.381,1.437,1.055,1.122,2.221c-0.136,0.514-0.535,0.668-0.889,0.619c-0.674-0.086-1.421-0.164-1.743-0.947
		C52.055,29.431,51.91,29.063,51.768,28.708 M41.025,15.044c-0.831,0.01-1.364,0.225-1.706,0.83
		c-0.35,0.615-0.048,1.293,0.635,1.215c0.59-0.066,1.202-0.26,1.727-0.539c0.609-0.332,0.559-0.941-0.049-1.299
		C41.411,15.122,41.126,15.075,41.025,15.044 M52.583,28.478c0.049,1.277,0.472,1.656,1.614,1.508
		C54.525,28.886,53.991,28.36,52.583,28.478"/>
	
		<circle fill-rule="evenodd" clip-rule="evenodd" fill="none" stroke="#000000" stroke-width="2" stroke-miterlimit="10" cx="41" cy="40.999" r="36.739"/>
</g>
</svg>
