<?xml version="1.0" encoding="utf-8"?>
<!-- Generator: Adobe Illustrator 16.0.0, SVG Export Plug-In . SVG Version: 6.00 Build 0)  -->
<!DOCTYPE svg PUBLIC "-//W3C//DTD SVG 1.1//EN" "http://www.w3.org/Graphics/SVG/1.1/DTD/svg11.dtd">
<svg version="1.1" id="Home_01" xmlns="http://www.w3.org/2000/svg" xmlns:xlink="http://www.w3.org/1999/xlink" x="0px" y="0px"
	 width="125.157px" height="74.869px" viewBox="0 0 125.157 74.869" enable-background="new 0 0 125.157 74.869"
	 xml:space="preserve">
<g>
	<g>
		<g>
			<g>
				<path fill="#FFFFFF" d="M2.358,60.153h1.421V73.29H2.358V60.153z"/>
				<path fill="#FFFFFF" d="M7.874,60.153h1.345l6.937,10.34v-10.34h1.402V73.29h-1.193L9.257,62.706V73.29H7.874V60.153z"/>
				<path fill="#FFFFFF" d="M20.572,60.153h1.554l3.904,11.185l3.922-11.185h1.498l-4.775,13.23h-1.308L20.572,60.153z"/>
				<path fill="#FFFFFF" d="M34.464,60.153h8.093v1.296h-6.67v4.578h5.989v1.276h-5.989v4.69h6.765v1.296h-8.188V60.153z"/>
				<path fill="#FFFFFF" d="M45.988,60.153h4.528c1.517,0,2.729,0.449,3.488,1.22c0.663,0.656,1.041,1.595,1.041,2.702v0.038
					c0,2.083-1.308,3.341-3.146,3.79l3.563,5.387h-1.705l-3.336-5.104h-3.014v5.104h-1.421V60.153z M50.272,66.909
					c2.158,0,3.353-1.069,3.353-2.74v-0.037c0-1.727-1.213-2.683-3.202-2.683h-3.014v5.46H50.272z"/>
				<path fill="#FFFFFF" d="M57.663,71.619l0.892-1.069c1.098,1.013,2.235,1.632,3.733,1.632c1.592,0,2.652-0.957,2.652-2.214
					v-0.019c0-1.088-0.53-1.782-2.937-2.628c-2.748-1.014-3.829-1.988-3.829-3.847v-0.037c0-1.97,1.669-3.473,3.998-3.473
					c1.537,0,2.806,0.47,3.981,1.484l-0.854,1.087c-0.987-0.844-2.027-1.275-3.185-1.275c-1.516,0-2.5,0.919-2.5,2.045v0.039
					c0,1.144,0.587,1.8,3.089,2.701c2.69,0.995,3.675,2.064,3.675,3.811v0.036c0,2.102-1.742,3.584-4.111,3.584
					C60.562,73.477,59.048,72.896,57.663,71.619z"/>
				<path fill="#FFFFFF" d="M69.85,60.153h1.422V73.29H69.85V60.153z"/>
				<path fill="#FFFFFF" d="M74.854,66.815v-0.149c0-3.867,2.35-6.72,5.723-6.72c3.374,0,5.687,2.834,5.687,6.683v0.148
					c0,3.866-2.333,6.719-5.705,6.719C77.166,73.496,74.854,70.662,74.854,66.815z M84.804,66.796v-0.13
					c0-3.173-1.801-5.424-4.245-5.424c-2.446,0-4.227,2.232-4.227,5.404v0.131c0,3.172,1.8,5.424,4.245,5.424
					C83.021,72.201,84.804,69.968,84.804,66.796z"/>
				<path fill="#FFFFFF" d="M89.732,60.153h1.346l6.935,10.34v-10.34h1.403V73.29h-1.194l-7.106-10.584V73.29h-1.383V60.153z"/>
				<path fill="#FFFFFF" d="M103.396,60.153h8.093v1.296h-6.67v4.578h5.989v1.276h-5.989v4.69h6.766v1.296h-8.188V60.153z"/>
				<path fill="#FFFFFF" d="M114.03,71.619l0.89-1.069c1.099,1.013,2.235,1.632,3.733,1.632c1.592,0,2.653-0.957,2.653-2.214v-0.019
					c0-1.088-0.53-1.782-2.938-2.628c-2.749-1.014-3.827-1.988-3.827-3.847v-0.037c0-1.97,1.667-3.473,3.997-3.473
					c1.536,0,2.806,0.47,3.98,1.484l-0.853,1.087c-0.984-0.844-2.028-1.275-3.184-1.275c-1.517,0-2.502,0.919-2.502,2.045v0.039
					c0,1.144,0.588,1.8,3.089,2.701c2.69,0.995,3.677,2.064,3.677,3.811v0.036c0,2.102-1.742,3.584-4.113,3.584
					C116.93,73.477,115.413,72.896,114.03,71.619z"/>
			</g>
		</g>
		<g>
			<g>
				<path fill="#FFFFFF" d="M51.893,1.373h-7.325c-0.58,0-1.051,0.469-1.051,1.053v42.37c0,0.582,0.471,1.054,1.051,1.054h7.325
					c0.581,0,1.056-0.472,1.056-1.054V2.426C52.948,1.842,52.474,1.373,51.893,1.373"/>
				<path fill="#FFFFFF" d="M89.785,11.784h-7.322c-0.585,0-1.054,0.472-1.054,1.051v18.038c0,4.24-2.357,6.876-6.15,6.876
					c-4.785,0-5.789-3.673-5.789-6.756V12.835c0-0.579-0.471-1.051-1.055-1.051h-7.322c-0.581,0-1.052,0.472-1.052,1.051v20.34
					c0,8.227,4.762,13.34,12.431,13.34c3.541,0,6.484-1.221,8.938-3.721v2.002c0,0.582,0.469,1.054,1.054,1.054h7.322
					c0.58,0,1.051-0.472,1.051-1.054V12.835C90.836,12.256,90.365,11.784,89.785,11.784"/>
				<path fill="#FFFFFF" d="M112.199,24.907l-0.627-0.201c-2.872-0.922-5.845-1.871-5.845-3.275v-0.122
					c0-1.588,1.77-2.15,3.426-2.15c2.384,0,5.47,1.043,8.473,2.87c0.246,0.147,0.543,0.191,0.818,0.116
					c0.276-0.07,0.512-0.252,0.648-0.502l2.908-5.205c0.268-0.482,0.121-1.09-0.338-1.393c-3.608-2.384-8.218-3.806-12.325-3.806
					c-7.321,0-12.435,4.439-12.435,10.797v0.12c0,7.363,6.993,9.336,10.733,10.39l0.755,0.23c3.511,1.064,5.643,1.81,5.643,3.242
					v0.122c0,2.164-2.734,2.395-3.91,2.395c-3.163,0-6.66-1.32-9.84-3.722c-0.231-0.175-0.527-0.244-0.812-0.196
					c-0.288,0.052-0.54,0.215-0.7,0.462l-3.269,4.961c-0.299,0.457-0.203,1.066,0.228,1.407c4.038,3.183,9.22,5.006,14.211,5.006
					c7.848,0,12.92-4.355,12.92-11.101V35.23C122.861,28.229,115.919,26.068,112.199,24.907"/>
				<path fill="#FFFFFF" d="M20.054,1.373H3.349c-0.581,0-1.053,0.469-1.053,1.053v42.37c0,0.482,0.322,0.903,0.787,1.02
					c0.089,0.022,0.176,0.034,0.266,0.034c0.374,0,0.732-0.206,0.922-0.547l7.146-13.074h7.79c10.768,0,18.002-6.26,18.002-15.577
					C37.208,7.369,30.477,1.373,20.054,1.373 M19.447,23.406h-7.604V10.257h7.604c3.019,0,8.09,0.854,8.09,6.576
					C27.537,20.826,24.362,23.406,19.447,23.406"/>
			</g>
		</g>
	</g>
</g>
</svg>
