<?xml version="1.0" encoding="utf-8"?>
<!-- Generator: Adobe Illustrator 16.0.0, SVG Export Plug-In . SVG Version: 6.00 Build 0)  -->
<!DOCTYPE svg PUBLIC "-//W3C//DTD SVG 1.1//EN" "http://www.w3.org/Graphics/SVG/1.1/DTD/svg11.dtd">
<svg version="1.1" id="Layer_2" xmlns="http://www.w3.org/2000/svg" xmlns:xlink="http://www.w3.org/1999/xlink" x="0px" y="0px"
	 width="26.801px" height="36px" viewBox="0 0 26.801 36" enable-background="new 0 0 26.801 36" xml:space="preserve">
<g>
	<path fill="#1A1818" d="M1.857,28.248h5.074V12.973H1.857V28.248z M19.398,12.615c-2.703,0-3.906,1.484-4.58,2.525v0.045h-0.029
		c0.008-0.014,0.021-0.029,0.029-0.045v-2.168H9.744c0.068,1.432,0,15.275,0,15.275h5.074v-8.529c0-0.457,0.035-0.916,0.172-1.238
		c0.363-0.912,1.201-1.859,2.602-1.859c1.84,0,2.572,1.404,2.572,3.457v8.17h5.08V19.49C25.244,14.797,22.74,12.615,19.398,12.615z
		 M4.428,5.607c-1.734,0-2.871,1.144-2.871,2.641c0,1.467,1.102,2.641,2.809,2.641h0.025c1.773,0,2.877-1.174,2.877-2.641
		C7.238,6.751,6.164,5.607,4.428,5.607z"/>
</g>
</svg>
