<?xml version="1.0" encoding="utf-8"?>
<!-- Generator: Adobe Illustrator 16.0.0, SVG Export Plug-In . SVG Version: 6.00 Build 0)  -->
<!DOCTYPE svg PUBLIC "-//W3C//DTD SVG 1.1//EN" "http://www.w3.org/Graphics/SVG/1.1/DTD/svg11.dtd">
<svg version="1.1" id="Layer_2" xmlns="http://www.w3.org/2000/svg" xmlns:xlink="http://www.w3.org/1999/xlink" x="0px" y="0px"
	 width="48.479px" height="36px" viewBox="0 0 48.479 36" enable-background="new 0 0 48.479 36" xml:space="preserve">
<g id="Lozenge_4_">
	<g>
		<path fill="#1A1818" d="M45.741,9.109c0,0-0.429-3.024-1.744-4.356c-1.668-1.747-3.539-1.757-4.396-1.858
			C33.46,2.451,24.249,2.451,24.249,2.451h-0.02c0,0-9.211,0-15.351,0.443C8.021,2.996,6.151,3.006,4.481,4.753
			C3.167,6.085,2.738,9.109,2.738,9.109S2.3,12.66,2.3,16.211v3.328c0,3.553,0.438,7.104,0.438,7.104s0.429,3.021,1.743,4.355
			c1.67,1.748,3.862,1.691,4.839,1.875c3.511,0.337,14.919,0.441,14.919,0.441s9.221-0.016,15.361-0.457
			c0.857-0.104,2.729-0.111,4.396-1.859c1.315-1.334,1.744-4.355,1.744-4.355s0.438-3.551,0.438-7.104v-3.328
			C46.18,12.66,45.741,9.109,45.741,9.109z M19.71,23.574l-0.002-12.33l11.855,6.188L19.71,23.574z"/>
	</g>
</g>
</svg>
