<?xml version="1.0" encoding="utf-8"?>
<!-- Generator: Adobe Illustrator 16.0.0, SVG Export Plug-In . SVG Version: 6.00 Build 0)  -->
<!DOCTYPE svg PUBLIC "-//W3C//DTD SVG 1.1//EN" "http://www.w3.org/Graphics/SVG/1.1/DTD/svg11.dtd">
<svg version="1.1" id="Layer_2" xmlns="http://www.w3.org/2000/svg" xmlns:xlink="http://www.w3.org/1999/xlink" x="0px" y="0px"
	 width="37.358px" height="36px" viewBox="0 0 37.358 36" enable-background="new 0 0 37.358 36" xml:space="preserve">
<g>
	<path fill="#1A1818" d="M36.26,6.025c-1.295,0.568-2.681,0.959-4.139,1.131c1.485-0.891,2.633-2.305,3.171-3.986
		c-1.397,0.822-2.94,1.426-4.589,1.744c-1.309-1.396-3.186-2.275-5.264-2.275c-3.986,0-7.209,3.23-7.209,7.215
		c0,0.565,0.063,1.115,0.184,1.641c-5.995-0.297-11.308-3.17-14.867-7.533c-0.619,1.064-0.98,2.305-0.98,3.621
		c0,2.508,1.277,4.715,3.213,6.008c-1.186-0.039-2.297-0.363-3.27-0.902c0,0.031,0,0.059,0,0.094c0,3.494,2.486,6.41,5.785,7.07
		c-0.604,0.166-1.238,0.258-1.897,0.258c-0.464,0-0.922-0.051-1.358-0.133c0.912,2.867,3.585,4.957,6.738,5.012
		c-2.473,1.936-5.576,3.086-8.957,3.086c-0.583,0-1.158-0.032-1.723-0.102c3.193,2.053,6.982,3.244,11.059,3.244
		c13.271,0,20.526-10.996,20.526-20.525c0-0.314-0.009-0.625-0.022-0.938C34.071,8.738,35.297,7.469,36.26,6.025z"/>
</g>
</svg>
