<?xml version="1.0" encoding="utf-8"?>
<!-- Generator: Adobe Illustrator 16.0.0, SVG Export Plug-In . SVG Version: 6.00 Build 0)  -->
<!DOCTYPE svg PUBLIC "-//W3C//DTD SVG 1.1//EN" "http://www.w3.org/Graphics/SVG/1.1/DTD/svg11.dtd">
<svg version="1.1" id="Layer_2" xmlns="http://www.w3.org/2000/svg" xmlns:xlink="http://www.w3.org/1999/xlink" x="0px" y="0px"
	 width="33.018px" height="36px" viewBox="0 0 33.018 36" enable-background="new 0 0 33.018 36" xml:space="preserve">
<g>
	<path id="WhatsApp" d="M31.562,17.874c0,8.1-6.616,14.665-14.779,14.665c-2.592,0-5.026-0.662-7.145-1.824l-8.182,2.6l2.668-7.868
		c-1.346-2.21-2.121-4.802-2.121-7.572c0-8.099,6.617-14.665,14.78-14.665S31.562,9.775,31.562,17.874z M16.783,5.545
		c-6.852,0-12.426,5.531-12.426,12.329c0,2.698,0.879,5.196,2.367,7.229l-1.552,4.579l4.775-1.518
		c1.962,1.288,4.312,2.039,6.836,2.039c6.851,0,12.425-5.529,12.425-12.328S23.634,5.545,16.783,5.545z M24.246,21.252
		c-0.091-0.15-0.333-0.24-0.695-0.42s-2.144-1.05-2.475-1.169c-0.332-0.12-0.574-0.181-0.815,0.18s-0.936,1.169-1.147,1.409
		c-0.211,0.24-0.422,0.271-0.785,0.09c-0.362-0.18-1.529-0.559-2.913-1.783c-1.077-0.953-1.804-2.129-2.016-2.489
		c-0.211-0.36-0.022-0.554,0.159-0.733c0.163-0.161,0.362-0.419,0.543-0.629c0.182-0.21,0.242-0.359,0.362-0.6
		c0.122-0.24,0.061-0.45-0.03-0.631c-0.09-0.18-0.815-1.947-1.117-2.668c-0.301-0.719-0.603-0.6-0.814-0.6s-0.453-0.029-0.695-0.029
		c-0.241,0-0.634,0.09-0.966,0.449c-0.332,0.359-1.267,1.23-1.267,2.998c0,1.77,1.297,3.479,1.479,3.718
		c0.181,0.239,2.505,3.987,6.188,5.427c3.683,1.438,3.683,0.958,4.347,0.898c0.664-0.061,2.143-0.87,2.446-1.709
		C24.336,22.121,24.336,21.401,24.246,21.252z"/>
</g>
</svg>
