<?xml version="1.0" encoding="UTF-8"?>
<svg width="18px" height="18px" viewBox="0 0 18 18" version="1.1" xmlns="http://www.w3.org/2000/svg" xmlns:xlink="http://www.w3.org/1999/xlink">
    <!-- Generator: Sketch 63.1 (92452) - https://sketch.com -->
    <title>chan/chan071-red</title>
    <desc>Created with Sketch.</desc>
    <g id="Symbols" stroke="none" stroke-width="1" fill="none" fill-rule="evenodd">
        <g id="atoms-copy" transform="translate(-344.000000, -2581.000000)">
            <g id="foundation-/-icon-/-chan-/-chan071" transform="translate(341.000000, 2578.000000)">
                <rect id="padding" x="0" y="0" width="24" height="24"/>
                <path d="M17.25,3 L6.75,3 C4.67925,3 3,4.67925 3,6.75 L3,17.25 C3,19.32075 4.67925,21 6.75,21 L17.25,21 C19.3215,21 21,19.32075 21,17.25 L21,6.75 C21,4.67925 19.3215,3 17.25,3 Z M9,17.25 L6.75,17.25 L6.75,9 L9,9 L9,17.25 Z M7.875,8.049 C7.1505,8.049 6.5625,7.4565 6.5625,6.726 C6.5625,5.9955 7.1505,5.403 7.875,5.403 C8.5995,5.403 9.1875,5.9955 9.1875,6.726 C9.1875,7.4565 8.60025,8.049 7.875,8.049 Z M18,17.25 L15.75,17.25 L15.75,13.047 C15.75,10.521 12.75,10.71225 12.75,13.047 L12.75,17.25 L10.5,17.25 L10.5,9 L12.75,9 L12.75,10.32375 C13.797,8.38425 18,8.241 18,12.18075 L18,17.25 Z" id="Shape" fill="#EC0000" fill-rule="evenodd"/>
            </g>
        </g>
    </g>
</svg>