<?xml version="1.0" encoding="UTF-8"?>
<svg width="21px" height="15px" viewBox="0 0 21 15" version="1.1" xmlns="http://www.w3.org/2000/svg" xmlns:xlink="http://www.w3.org/1999/xlink">
    <!-- Generator: Sketch 63.1 (92452) - https://sketch.com -->
    <title>chan/chan070-red</title>
    <desc>Created with Sketch.</desc>
    <g id="Symbols" stroke="none" stroke-width="1" fill="none" fill-rule="evenodd">
        <g id="atoms-copy" transform="translate(-309.000000, -2583.000000)">
            <g id="foundation-/-icon-/-chan-/-chan070" transform="translate(307.146641, 2578.000000)">
                <rect id="padding" x="0" y="0" width="24" height="24"/>
                <path d="M10.8122732,5.00870633 L12.2907219,5.00091286 C13.540707,5.00705105 18.4561247,5.05446327 19.8138636,5.42068182 C20.6744318,5.65215909 21.3520455,6.33420455 21.5820455,7.20034091 C21.8885455,8.35150758 21.9702788,10.4198909 21.9920743,11.4411679 L21.9995515,12.1431012 C21.9956191,12.6982224 21.9572094,15.4814199 21.5820455,16.8906818 C21.3520455,17.7567045 20.6744318,18.43875 19.8138636,18.6703409 C18.4027435,19.050855 13.1486961,19.0870944 12.1607245,19.0905458 L10.7994355,19.0820485 C8.903402,19.0588277 5.31503247,18.9747522 4.18613636,18.6703409 C3.32568182,18.43875 2.64795455,17.7567045 2.41795455,16.8906818 C2.04179545,15.4776818 2.00417955,12.6834477 2.00041795,12.1387309 L2.00993213,11.351637 C2.03454656,10.3031094 2.12016193,8.31880398 2.41795455,7.20034091 C2.64795455,6.33420455 3.32568182,5.65215909 4.18613636,5.42068182 C5.31758548,5.1154997 8.91964487,5.03171085 10.8122732,5.00870633 Z M9.95454545,9.07170455 L9.95454545,15.0192045 L15.1818182,12.0455682 L9.95454545,9.07170455 Z" id="Shape" fill="#EC0000" fill-rule="evenodd"/>
            </g>
        </g>
    </g>
</svg>