<?xml version="1.0" encoding="UTF-8"?>
<svg width="444px" height="353px" viewBox="0 0 444 353" version="1.1" xmlns="http://www.w3.org/2000/svg" xmlns:xlink="http://www.w3.org/1999/xlink">
    <title>illu-crane</title>
    <g id="pages-xlg" stroke="none" stroke-width="1" fill="none" fill-rule="evenodd">
        <g id="svg-assets" transform="translate(-163.000000, -80.000000)">
            <g id="illu-crane" transform="translate(163.000000, 80.000000)">
                <path d="M371.597407,0.156791203 C372.774799,0.702209059 373.870992,1.42659215 374.463748,2.58986617 C374.543324,2.74496937 374.60601,2.90757207 374.6622,3.07331092 L374.821676,3.57557259 C374.848471,3.6593965 374.876242,3.74291361 374.906285,3.8255785 L386.777647,57.864557 C386.814187,58.3375366 386.915686,58.806255 386.891326,59.2792346 C386.680208,62.9863716 381.73922,65.5217124 378.836339,62.5517417 C378.25441,61.9523502 378.05502,61.5783224 377.860442,61.0521583 L377.605084,60.323576 C377.579967,60.2527487 377.553388,60.17889 377.524968,60.1016225 L368.361609,18.3942008 L206.005431,313.542 L244.301709,313.542759 L244.301709,352.622801 L112.570431,352.622801 L112.570431,313.542759 L195.043431,313.542 L366.169223,2.45351171 C366.952798,1.38398138 367.890652,0.442283362 369.104584,0.11844151 C369.912518,-0.0988734171 370.765113,0.024697816 371.597407,0.156791203 Z M161.527884,199.604543 L161.527884,238.684585 L112.570431,238.684585 L112.570431,199.604543 L161.527884,199.604543 Z" id="Shape" fill="#9BC3D3"></path>
                <path d="M131.731278,313.542759 L131.731278,352.622801 L4.59010607e-12,352.622801 L4.59010607e-12,313.542759 L131.731278,313.542759 Z M435.958691,181.735767 L443.918712,181.73577 L443.918712,218.26854 L354.113323,218.26854 L354.113323,181.73577 L360.336323,181.734837 L393.309153,131.080378 C393.112204,130.694596 392.957543,130.282177 392.847307,129.855453 L377.524968,60.1016225 L377.487812,59.8885434 L377.487812,59.8885434 L377.432823,59.5272293 L377.432823,59.5272293 L377.400613,59.2377285 C377.385937,59.0647604 377.38406,58.9279514 377.390209,58.8038688 L377.404857,58.6243607 L377.404857,58.6243607 L377.455949,58.252315 L377.455949,58.252315 C377.752327,56.1686484 379.416916,54.3832571 381.434722,54.0594153 L381.732003,54.0186786 C381.775365,54.0138158 381.815852,54.0098359 381.853788,54.0066179 L382.053375,53.9948375 C382.082401,53.9948375 382.109524,53.9948375 382.135068,53.9948375 L382.331088,54.0048868 L382.331088,54.0048868 L382.494375,54.0168045 L382.494375,54.0168045 C384.520302,54.2511637 386.233611,55.759585 386.777647,57.864557 L402.099986,127.618388 C402.253948,128.456251 402.263749,128.882238 402.206723,129.291844 L402.169456,129.516018 L402.169456,129.516018 L402.121722,129.751205 L402.121722,129.751205 L435.958691,181.735767 L435.958691,181.735767 Z M396.221323,181.734837 L396.098323,133.867837 L398.147792,130.720452 C387.08119,147.726795 376.011047,164.733139 364.943976,181.736013 L396.221323,181.734837 Z M431.354323,181.734837 L399.901323,133.413837 L400.024306,181.73552 L400.024306,181.73552 L431.354323,181.734837 Z" id="Shape" fill="#C3DEE7"></path>
                <polygon id="Path" fill="#DEEDF2" points="29.7966057 274.462718 29.7966057 235.382676 161.527884 235.382676 161.527884 274.462718 227.394128 274.462718 227.394128 313.542759 162.149606 313.542676 183.391738 352.350481 112.571738 352.350481 112.571606 313.542676 95.6624466 313.542759 95.6624466 274.462718"></polygon>
            </g>
        </g>
    </g>
</svg>