<?xml version="1.0" encoding="UTF-8"?>
<svg width="308px" height="444px" viewBox="0 0 308 444" version="1.1" xmlns="http://www.w3.org/2000/svg" xmlns:xlink="http://www.w3.org/1999/xlink">
    <title>illu-boat</title>
    <g id="pages-xlg" stroke="none" stroke-width="1" fill="none" fill-rule="evenodd">
        <g id="svg-assets" transform="translate(-1038.000000, -384.000000)">
            <g id="illu-boat" transform="translate(1038.000000, 384.000000)">
                <rect id="Rectangle" fill="#DEEDF2" x="66" y="155" width="44" height="54"></rect>
                <rect id="Rectangle-Copy-11" fill="#DEEDF2" x="92" y="73" width="124" height="82"></rect>
                <path d="M216,73 L216,134 C178.008061,123.907241 143.135798,102.807113 115,73 L216,73 Z" id="Fill-42" fill="#C3DEE7"></path>
                <rect id="Rectangle-Copy-13" fill="#C3DEE7" x="135" y="0" width="38" height="53"></rect>
                <rect id="Rectangle-Copy-12" fill="#DEEDF2" x="54" y="53" width="200" height="20"></rect>
                <rect id="Rectangle-Copy-4" fill="#C3DEE7" x="66" y="209" width="44" height="54"></rect>
                <rect id="Rectangle-Copy-8" fill="#DEEDF2" x="22" y="209" width="44" height="54"></rect>
                <rect id="Rectangle-Copy-10" fill="#9BC3D3" x="22" y="263" width="264" height="54"></rect>
                <rect id="Rectangle-Copy-2" fill="#C3DEE7" x="154" y="155" width="44" height="54"></rect>
                <rect id="Rectangle-Copy-5" fill="#DEEDF2" x="154" y="209" width="44" height="54"></rect>
                <rect id="Rectangle-Copy" fill="#FFFFFF" x="110" y="155" width="44" height="54"></rect>
                <rect id="Rectangle-Copy-6" fill="#9BC3D3" x="110" y="209" width="44" height="54"></rect>
                <rect id="Rectangle-Copy-3" fill="#9BC3D3" x="198" y="155" width="44" height="54"></rect>
                <rect id="Rectangle-Copy-7" fill="#C3DEE7" x="198" y="209" width="44" height="54"></rect>
                <rect id="Rectangle-Copy-9" fill="#9BC3D3" x="242" y="209" width="44" height="54"></rect>
                <path d="M154,248 L308,293.634195 L287.617665,432.70107 C245.645936,413.503231 199.33204,406.825311 154,413.252875 L154,248 Z" id="Path" fill="#C3DEE7"></path>
                <path d="M154.000493,248 L154.000493,413.25282 C147.17913,414.220002 140.380002,415.48393 133.621248,417.046602 L131.778966,417.480193 L22.005,443.774 L6.82121026e-13,293.634195 L154.000493,248 Z" id="Path" fill="#FFFFFF"></path>
            </g>
        </g>
    </g>
</svg>