<?xml version="1.0" encoding="UTF-8"?>
<svg width="241px" height="149px" viewBox="0 0 241 149" version="1.1" xmlns="http://www.w3.org/2000/svg" xmlns:xlink="http://www.w3.org/1999/xlink">
    <title>illu-birds</title>
    <g id="pages-xlg" stroke="none" stroke-width="1" fill="none" fill-rule="evenodd">
        <g id="svg-assets" transform="translate(-705.000000, -124.000000)" fill="#9BC3D3">
            <g id="illu-birds" transform="translate(705.000000, 124.000000)">
                <path d="M104.76932,114.795792 C120.901531,112.673581 136.779892,124.611019 149.351847,135.434297 C157.811422,121.586868 177.687931,114.618941 191.516447,116.621778 C194.156494,117.002008 194.289766,120.989996 191.516447,121.219902 C183.126682,121.918464 174.876534,124.703866 168.428727,130.831751 C163.002668,135.991377 160.394353,140.430336 155.932927,146.368106 C154.650981,148.074718 152.06805,148.605271 150.21494,148.021663 C149.726277,147.866918 149.231268,147.672382 148.806068,147.371736 C148.323752,147.035719 147.898552,146.606855 147.517776,146.147043 C147.263926,145.943664 146.997382,145.850817 146.756224,145.58112 C135.472561,132.799218 121.301346,119.115376 104.76932,118.903155 C102.287929,118.872206 102.427547,115.105281 104.76932,114.795792 Z M202.152791,74.9512749 C209.58427,67.1875185 227.042851,63.283534 239.189607,64.4065375 C241.512341,64.6187586 241.626574,66.855923 239.189607,66.9841399 C231.815244,67.373212 224.574153,68.9427641 218.913283,72.3736724 C216.159979,74.0444036 214.232582,76.0756714 212.341419,78.1346728 L211.585015,78.9589636 C210.447691,80.1952519 209.285507,81.4255498 207.927894,82.5779717 C206.804605,83.5285455 204.532641,83.8291921 202.907997,83.5020179 C202.482797,83.4180137 202.044905,83.3074819 201.676821,83.1394735 C201.245275,82.9493587 200.877191,82.7061887 200.540839,82.4497548 C200.31872,82.3392229 200.077562,82.2861677 199.874481,82.1314231 C189.961612,74.9645387 177.510235,70.2779887 162.989976,70.1586143 C160.813206,70.1409292 160.940132,68.0319818 162.989976,67.8551308 C177.161191,66.661387 191.110286,68.8852876 202.152791,74.9512749 Z M2.51826157,0.267122144 C19.6658757,-1.31569378 44.3147778,4.19763433 54.8051576,15.1579714 C70.3979363,6.59396459 90.0904037,3.45486037 110.093838,5.13494432 C113.000429,5.37811436 113.171778,8.35805273 110.093838,8.38458037 C89.5953948,8.55258877 72.0162345,15.1756565 58.0227151,25.2959517 C57.7307868,25.5081728 57.3944347,25.5833345 57.0771213,25.7425003 C56.6074975,26.109466 56.0871036,26.4454828 55.4842082,26.7151805 C54.957468,26.949508 54.3418801,27.1042526 53.7389847,27.2280482 C51.441636,27.6922819 48.2304247,27.2678397 46.6438579,25.9193512 C41.1162591,21.2151162 37.8796628,15.6000988 31.1462732,11.514842 C23.1499765,6.66912624 12.9261399,4.45848946 2.51826157,3.90583027 C-0.92141529,3.72455806 -0.756412341,0.567768745 2.51826157,0.267122144 Z" id="Primary-color"></path>
            </g>
        </g>
    </g>
</svg>