<svg xmlns="http://www.w3.org/2000/svg" viewBox="0 0 210 40" width="210" height="40">
	<defs>
		<clipPath clipPathUnits="userSpaceOnUse" id="cp1">
			<path d="M205 17.74C204.17 17.63 202.86 17.6 201.68 17.6C199.53 17.6 196.8 18.02 195.18 18.57L195.18 35.86L198.98 35.86L198.98 21.06C199.91 20.92 200.85 20.85 201.78 20.85C202.86 20.85 203.75 20.89 204.65 20.99C204.86 20.26 205 18.88 205 17.74ZM179.47 25.28C179.78 22.34 181.2 20.78 183.9 20.78C186.53 20.78 188.05 22.44 188.05 25.28L179.47 25.28ZM191.68 28.46C191.82 27.46 191.89 26.59 191.89 25.52C191.89 21.16 189.54 17.6 184.11 17.6C178.05 17.6 175.67 21.68 175.67 26.84C175.67 32.75 178.74 36.28 185.11 36.28C187.15 36.28 188.98 35.97 190.71 35.17C190.95 34.03 191.16 32.72 191.3 31.71C189.4 32.58 187.29 33.03 185.21 33.03C181.82 33.03 180.02 31.54 179.54 28.46L191.68 28.46ZM168.78 31.85C167.74 32.65 166.5 33.17 164.98 33.17C161.59 33.17 160.17 30.68 160.17 27.15C160.17 23.2 161.97 20.85 165.74 20.85C166.74 20.85 167.78 20.99 168.78 21.2L168.78 31.85ZM172.55 11.65C171.31 11.65 169.96 11.75 168.78 12.17L168.78 17.88C167.88 17.7 166.95 17.6 165.95 17.6C159.55 17.6 156.3 21.06 156.3 27.15C156.3 32.96 159.34 36.28 163.9 36.28C166.4 36.28 167.88 35.28 168.85 33.65L169.06 35.86L172.55 35.86L172.55 11.65ZM153.25 24.24C153.25 20.06 151.21 17.6 144.84 17.6C143.01 17.6 140.35 17.98 137.93 18.57L137.93 35.86L141.73 35.86L141.73 21.13C142.77 20.96 143.84 20.85 144.74 20.85C148.55 20.85 149.44 22.17 149.44 24.9L149.44 35.86L153.25 35.86L153.25 24.24ZM129.97 31.92C128.97 32.68 127.76 33.17 126.27 33.17C122.88 33.17 121.46 30.68 121.46 27.15C121.46 23.27 123.29 20.85 127.24 20.85C128.31 20.85 129.17 20.92 129.97 21.06L129.97 31.92ZM133.77 18.57C131.77 17.88 129.73 17.6 127.24 17.6C120.84 17.6 117.59 21.06 117.59 27.15C117.59 32.96 120.63 36.28 125.2 36.28C127.62 36.28 129.11 35.31 130.07 33.79L130.28 35.86L133.77 35.86L133.77 18.57ZM113.37 33.03C111.53 33.03 110.43 32.16 110.43 29.91L110.43 21.44L116.1 21.44C116.27 20.44 116.38 19.36 116.44 18.19L110.43 18.19L110.43 11.65C109.25 11.65 107.8 11.82 106.62 12.2L106.62 30.36C106.62 34.58 108.97 36.28 112.67 36.28C113.75 36.28 114.85 36.14 115.89 35.73C116.1 34.72 116.24 33.55 116.34 32.51C115.51 32.82 114.47 33.03 113.37 33.03ZM102.81 24.24C102.81 20.06 100.77 17.6 94.41 17.6C92.58 17.6 89.91 17.98 87.49 18.57L87.49 35.86L91.3 35.86L91.3 21.13C92.33 20.96 93.41 20.85 94.31 20.85C98.11 20.85 99.01 22.17 99.01 24.9L99.01 35.86L102.81 35.86L102.81 24.24ZM79.53 31.92C78.53 32.68 77.32 33.17 75.83 33.17C72.44 33.17 71.03 30.68 71.03 27.15C71.03 23.27 72.86 20.85 76.8 20.85C77.87 20.85 78.74 20.92 79.53 21.06L79.53 31.92ZM83.34 18.57C81.33 17.88 79.29 17.6 76.8 17.6C70.4 17.6 67.15 21.06 67.15 27.15C67.15 32.96 70.2 36.28 74.76 36.28C77.18 36.28 78.67 35.31 79.64 33.79L79.85 35.86L83.34 35.86L83.34 18.57ZM48.78 35.1C50.72 36 53.04 36.42 55.87 36.42C61.75 36.42 64.76 33.68 64.76 29.71C64.76 26.35 62.93 24.38 58.54 22.51L56.67 21.72C54.25 20.68 52.9 19.64 52.9 17.84C52.9 16.01 54.28 14.83 57.29 14.83C58.88 14.83 61.1 15.14 62.96 15.84C63.31 14.83 63.55 13.76 63.66 12.38C61.69 11.69 59.58 11.37 57.33 11.37C51.72 11.37 48.99 13.9 48.99 17.84C48.99 21.51 51.2 23.34 54.46 24.76L56.22 25.52C59.47 26.94 60.79 27.87 60.79 29.88C60.79 31.92 58.99 32.96 55.77 32.96C53.87 32.96 51.38 32.51 49.44 31.61C49.06 32.72 48.85 33.68 48.78 35.1ZM31.4 18.05C31.34 16.79 30.99 15.53 30.33 14.4L24.57 4.41C24.13 3.65 23.82 2.84 23.66 2L23.42 2.42C21.99 4.89 21.99 7.93 23.41 10.41L28.03 18.4C29.46 20.87 29.46 23.92 28.03 26.39L27.79 26.8C27.62 25.97 27.31 25.15 26.88 24.39L22.65 17.07L19.96 12.4C19.52 11.64 19.21 10.83 19.04 9.99L18.8 10.41C17.38 12.87 17.37 15.9 18.79 18.37L18.79 18.37L23.42 26.39C24.84 28.86 24.84 31.9 23.42 34.38L23.17 34.79C23.01 33.96 22.7 33.14 22.26 32.38L16.5 22.39C15.72 21.05 15.37 19.54 15.43 18.05C9.26 19.66 5 23.09 5 27.05C5 32.57 13.24 37.04 23.42 37.04C33.59 37.04 41.83 32.57 41.83 27.05C41.83 23.09 37.57 19.66 31.4 18.05Z"/>
		</clipPath>
	</defs>
	<style>
		tspan { white-space:pre }
		.shp0 { fill: #ec0000 } 
	</style>
	<g id="v4">
		<g id="-e-1.4 lg">
			<g id="Group 7 Copy">
				<g id="Group 3">
					<g id="logo / santander">
						<g id="Mask by logo" clip-path="url(#cp1)">
							<g id="↳ logo colour">
								<path id="red" class="shp0" d="M0 0L210 0L210 40L0 40L0 0Z"/>
							</g>
						</g>
					</g>
				</g>
			</g>
		</g>
	</g>
</svg>