<svg width="48px" height="48px"  xmlns="http://www.w3.org/2000/svg" viewBox="0 0 48 48"><defs><style>.cls-1{fill:none;}.cls-2{fill:#ec0000;fill-rule:evenodd;}</style></defs><title>santander-logo-48</title><g id="chan_chan007-red" data-name="chan/chan007-red"><rect id="padding" class="cls-1" width="48" height="48"/><path id="Path-7" class="cls-2" d="M31.52,18.45,25.25,7.62a8.52,8.52,0,0,1-1-2.62L24,5.45a8.66,8.66,0,0,0,0,8.67l5,8.66a8.66,8.66,0,0,1,0,8.67l-.26.45a8.52,8.52,0,0,0-1-2.62l-7.52-13a8.68,8.68,0,0,1-1-2.62l-.26.46a8.66,8.66,0,0,0,0,8.63l5,8.7a8.65,8.65,0,0,1,0,8.66l-.26.45a8.47,8.47,0,0,0-1-2.61L16.49,27.11a8.63,8.63,0,0,1-1.16-4.7C8.63,24.16,4,27.87,4,32.17,4,38.15,13,43,24,43s20-4.85,20-10.83c0-4.3-4.63-8-11.33-9.76A8.67,8.67,0,0,0,31.52,18.45Z"/></g></svg>