<?xml version="1.0" encoding="UTF-8"?>
<svg width="24px" height="24px" viewBox="0 0 24 24" version="1.1" xmlns="http://www.w3.org/2000/svg" xmlns:xlink="http://www.w3.org/1999/xlink">
    <!-- Generator: Sketch 56.2 (81672) - https://sketch.com -->
    <title>chan/chan042-red</title>
    <desc>Created with Sketch.</desc>
    <g id="chan/chan042-red" stroke="none" stroke-width="1" fill="none" fill-rule="evenodd">
        <rect id="padding" x="0" y="0" width="24" height="24"></rect>
        <path d="M21.5,11.347 C21.5,12.041 21.442,12.725 21.302,13.372 C21.314,13.384 21.314,13.384 21.302,13.396 C20.36,18.026 16.326,21.5 11.477,21.5 C9.418,21.5 7.512,20.876 5.93,19.804 C7,19.592 8.012,19.215 8.93,18.673 C5.558,17.495 2.5,15.08 2.5,6.529 C5.14,9.202 11.232,11.711 12.884,10.487 C10.732,8.308 10.604,5.516 12.14,3.878 C12.163,3.843 12.186,3.808 12.221,3.785 C13.302,2.689 14.826,2.312 16.209,2.654 C16.522,2.731 17.273,3.163 17.735,3.461 C17.977,3.618 18.271,3.65 18.542,3.553 L21.488,2.5 L20.584,6.299 C20.5,6.655 20.545,7.023 20.688,7.358 C21.214,8.588 21.5,9.931 21.5,11.347 Z" id="Stroke-1" fill="#EC0000"></path>
    </g>
</svg>