<?xml version="1.0" encoding="UTF-8"?><svg id="a" xmlns="http://www.w3.org/2000/svg" width="300" height="73" viewBox="0 0 300 73"><g><path d="M29.37,63.09h-7.25c-.1,0-.2,.03-.27,.11-.14,.16-.14,.39,0,.55,.07,.07,.17,.11,.27,.1h3.2v8.65c0,.11,.04,.23,.12,.31h0c.08,.08,.18,.13,.3,.12,.12,0,.24-.05,.32-.13,.07-.09,.11-.2,.11-.31v-8.65h3.2c.1,0,.2-.04,.27-.11,.07-.07,.11-.16,.11-.26,0-.1-.03-.2-.11-.27-.07-.07-.17-.11-.27-.11Z" style="fill:#28385b;"/><path d="M37.87,63.83c.1,0,.21-.03,.29-.1,.14-.15,.14-.39,0-.54-.08-.07-.18-.11-.29-.11h-5.27c-.12,0-.24,.05-.32,.13-.09,.07-.14,.18-.13,.3v8.92c0,.11,.04,.23,.13,.3,.09,.08,.2,.13,.32,.13h5.26c.1,0,.21-.03,.29-.1,.07-.07,.11-.17,.11-.27,0-.1-.03-.2-.11-.27-.08-.07-.18-.1-.29-.1h-4.87v-3.84h4.6c.11,0,.21-.03,.29-.11,.07-.07,.11-.17,.11-.27,0-.1-.03-.2-.11-.27-.08-.07-.18-.1-.29-.1h-4.6v-3.7h4.88Z" style="fill:#28385b;"/><polygon points="32.28 72.74 32.28 72.74 32.27 72.74 32.28 72.74" style="fill:#28385b;"/><path d="M48.32,71c-.12,.02-.22,.07-.31,.15-.41,.35-.87,.64-1.37,.85-.46,.16-.95,.24-1.43,.23-.99,.05-1.94-.35-2.59-1.1-1.24-1.9-1.24-4.36,0-6.26,.64-.75,1.6-1.17,2.59-1.11,.49,0,.97,.07,1.43,.24,.5,.21,.96,.49,1.36,.85,.09,.07,.2,.12,.31,.13,.08,0,.16-.04,.2-.11,.06-.07,.09-.17,.1-.26,0-.16-.07-.3-.19-.41-.41-.39-.9-.7-1.43-.89-.57-.21-1.16-.31-1.77-.31-.84-.02-1.66,.19-2.39,.61-.68,.4-1.21,1-1.53,1.72-.72,1.71-.72,3.63,0,5.34,.32,.72,.85,1.32,1.53,1.73h0c.73,.42,1.56,.62,2.4,.6,.6,0,1.2-.1,1.77-.31,.54-.19,1.03-.49,1.43-.89,.11-.1,.18-.24,.19-.39,0-.1-.03-.19-.1-.26-.04-.07-.12-.12-.2-.12Z" style="fill:#28385b;"/><path d="M59.38,63.14c-.09-.08-.2-.11-.31-.11-.12,0-.23,.04-.31,.12-.07,.09-.11,.21-.11,.32v4.06h-6.24v-4.06c0-.12-.03-.23-.11-.32-.08-.08-.19-.13-.31-.12-.12,0-.23,.04-.31,.12-.08,.09-.12,.2-.12,.32v9.03c0,.11,.04,.22,.12,.31,.08,.08,.19,.13,.31,.13,.12,0,.23-.04,.31-.13,.07-.09,.11-.2,.11-.31v-4.21h6.25v4.21c0,.11,.04,.22,.11,.31,.08,.09,.19,.14,.31,.13,.12,0,.23-.04,.31-.12,.07-.09,.11-.21,.11-.32v-9.03c0-.12-.03-.24-.11-.33h0Z" style="fill:#28385b;"/><path d="M71.79,63.37c-.03-.09-.1-.17-.18-.23-.09-.05-.19-.08-.29-.08-.2,0-.39,.12-.45,.31l-4.08,9.1s-.02,.1,0,.15c0,.11,.04,.21,.12,.27,.08,.07,.18,.11,.29,.11,.17,0,.32-.1,.38-.26l1.08-2.39h5.37l1.06,2.39c.03,.08,.08,.14,.15,.19,.08,.03,.16,.03,.24,0,.1,0,.19-.04,.26-.1,.08-.06,.13-.15,.13-.25,0-.04-.02-.08-.04-.11l-4.04-9.1Zm-2.88,6.14l2.39-5.36,2.39,5.36h-4.77Z" style="fill:#28385b;"/><path d="M81.75,63.09h-2.68c-.12,0-.24,.05-.32,.13-.09,.07-.14,.18-.13,.3v8.92c0,.11,.04,.23,.13,.3h0c.08,.08,.19,.13,.31,.13h2.7c1.32,.08,2.61-.37,3.58-1.27,.77-.87,1.22-1.98,1.28-3.14,.14-2.83-2.03-5.23-4.86-5.37Zm-.03,9.03h-2.24v-8.27h2.24c2.66,0,3.99,1.36,3.99,4.13s-1.33,4.14-3.99,4.14Z" style="fill:#28385b;"/><path d="M97.14,63.01c-.16-.01-.31,.08-.36,.23l-3.75,8.5-3.7-8.49c-.06-.15-.21-.25-.37-.24-.11,0-.21,.04-.3,.11-.08,.07-.13,.17-.13,.27,0,.05,0,.1,0,.15l4.03,9.09c.04,.1,.1,.18,.19,.23,.08,.05,.18,.08,.27,.08,.1,0,.2-.03,.29-.08,.08-.06,.15-.14,.19-.23l4.07-9.09c.01-.05,.01-.11,0-.17,0-.1-.05-.2-.13-.26-.08-.07-.19-.11-.3-.11Z" style="fill:#28385b;"/><path d="M100.48,63.03c-.12,0-.23,.04-.31,.12-.08,.09-.13,.2-.12,.32v9.03c0,.12,.04,.23,.12,.31h0c.08,.09,.19,.13,.31,.13,.12,0,.23-.05,.31-.13,.08-.09,.12-.2,.12-.31v-9.03c0-.12-.04-.23-.12-.32-.08-.08-.19-.12-.31-.12Z" style="fill:#28385b;"/><path d="M108.54,63.75c.49,0,.97,.07,1.43,.24,.49,.21,.95,.49,1.34,.85,.09,.07,.2,.12,.32,.13,.08,0,.16-.05,.2-.11,.06-.08,.09-.17,.08-.26,0-.16-.07-.31-.19-.41-.41-.4-.89-.7-1.42-.89-.57-.21-1.16-.31-1.77-.31-.84-.02-1.66,.19-2.39,.61-.68,.4-1.21,1-1.54,1.72-.7,1.71-.7,3.63,0,5.34,.33,.72,.87,1.32,1.54,1.73,.72,.41,1.54,.62,2.37,.6,.6,0,1.2-.1,1.77-.31,.54-.19,1.02-.49,1.42-.89,.12-.1,.19-.24,.19-.39,0-.09-.02-.19-.08-.26-.04-.07-.12-.12-.2-.12-.12,.02-.23,.07-.32,.15-.39,.35-.84,.64-1.33,.85-.46,.16-.95,.24-1.43,.23-.99,.05-1.95-.35-2.6-1.1-1.23-1.91-1.23-4.36,0-6.26,.65-.75,1.61-1.17,2.6-1.11Z" style="fill:#28385b;"/><polygon points="115.02 72.74 115.02 72.74 115.02 72.74 115.02 72.74" style="fill:#28385b;"/><path d="M120.62,63.09h-5.28c-.12,0-.24,.05-.32,.13-.08,.08-.13,.18-.13,.3v8.92c0,.11,.05,.22,.13,.3,.09,.08,.2,.13,.32,.13h5.28c.1,0,.2-.03,.27-.1,.07-.07,.11-.17,.11-.27,0-.1-.03-.2-.11-.27-.08-.07-.17-.1-.27-.1h-4.88v-3.84h4.6c.11,0,.21-.03,.29-.11,.07-.07,.11-.17,.11-.27,0-.1-.03-.2-.11-.27-.08-.07-.18-.1-.29-.1h-4.6v-3.7h4.89c.1,0,.2-.03,.27-.1,.07-.07,.11-.16,.11-.26,0,0,0-.02,0-.02,0-.2-.18-.36-.38-.36Z" style="fill:#28385b;"/><path d="M134.92,63.04h0c-.13,0-.25,.08-.31,.19l-3.3,4.26-3.3-4.26c-.07-.11-.18-.17-.31-.17-.1,0-.2,.04-.26,.12-.07,.07-.11,.16-.11,.26,0,.1,.03,.19,.1,.26l3.46,4.44v4.34c0,.12,.04,.23,.12,.31,.08,.09,.19,.14,.31,.13,.11,0,.22-.04,.3-.13,.08-.08,.12-.19,.12-.31v-4.35l3.46-4.47c.06-.07,.1-.17,.1-.26,0-.1-.04-.2-.11-.27-.07-.07-.16-.11-.26-.11Z" style="fill:#28385b;"/><path d="M143.46,63.59c-.72-.43-1.55-.64-2.39-.61-.81-.02-1.62,.19-2.32,.61-.67,.41-1.19,1.01-1.5,1.73-.7,1.71-.7,3.62,0,5.33,.32,.72,.84,1.32,1.5,1.73h.06c1.44,.8,3.2,.8,4.64,0,.67-.41,1.2-1.02,1.52-1.73,.7-1.71,.7-3.63,0-5.34-.32-.71-.85-1.32-1.52-1.72Zm.18,7.52c-.64,.75-1.59,1.16-2.58,1.1-.98,.05-1.93-.36-2.55-1.11-1.21-1.91-1.21-4.34,0-6.24,.63-.75,1.58-1.16,2.55-1.11,.98-.05,1.94,.35,2.58,1.1,1.21,1.91,1.21,4.35,0,6.26Z" style="fill:#28385b;"/><path d="M155.39,63.15c-.08,.09-.12,.2-.12,.32v5.72c.06,.83-.21,1.64-.75,2.27-.6,.54-1.39,.81-2.2,.75-.25,.03-.51,.03-.76-.01-1.43-.23-2.41-1.58-2.18-3.01v-5.72c0-.12-.04-.24-.12-.33-.09-.08-.2-.11-.31-.11-.03,0-.06,0-.1,0-.22,.03-.36,.23-.33,.45v5.62c-.08,1.06,.27,2.1,.97,2.9h0c1.66,1.32,4,1.32,5.66,.01,.69-.8,1.03-1.85,.95-2.9v-5.62c0-.12-.03-.24-.11-.33-.18-.15-.44-.15-.62,0Z" style="fill:#28385b;"/><path d="M168.26,63.74c.48,0,.97,.07,1.42,.24,.5,.21,.96,.49,1.36,.85,.09,.07,.2,.12,.32,.13,.08,0,.16-.04,.2-.11,.06-.08,.09-.17,.08-.26,0-.16-.07-.31-.19-.41-.41-.39-.89-.7-1.42-.89-.57-.21-1.16-.31-1.77-.31-.84-.02-1.66,.19-2.39,.61-.68,.4-1.21,1-1.54,1.72-.72,1.71-.72,3.63,0,5.34,.33,.72,.87,1.32,1.54,1.73,.71,.41,1.52,.61,2.34,.6,.6,0,1.2-.1,1.77-.31,.53-.19,1.02-.49,1.42-.89,.12-.1,.19-.24,.19-.39,0-.09-.02-.19-.08-.26-.04-.07-.12-.12-.2-.12-.12,.02-.23,.07-.32,.15-.39,.35-.84,.63-1.31,.85-.46,.16-.94,.24-1.42,.23-.99,.06-1.95-.35-2.6-1.1-1.23-1.91-1.23-4.36,0-6.26,.65-.76,1.61-1.17,2.6-1.11Z" style="fill:#28385b;"/><path d="M178.56,63.37c-.04-.09-.11-.17-.19-.23-.09-.05-.19-.08-.29-.08-.2,0-.38,.12-.45,.31l-4.08,9.04s-.02,.1,0,.15c0,.1,.04,.2,.12,.27,.03,.03,.07,.06,.11,.07,.22,.09,.47,0,.57-.22l1.06-2.39h5.37l1.06,2.39c.03,.08,.08,.14,.15,.19,.06,.05,.14,.07,.21,.07,.11,0,.21-.04,.29-.11,.08-.06,.13-.15,.13-.25,0-.04-.02-.08-.04-.12l-4.03-9.1Zm-2.88,6.15l2.39-5.36,2.39,5.36h-4.77Z" style="fill:#28385b;"/><path d="M192.63,63.03c-.11,0-.21,.04-.29,.12-.08,.09-.12,.2-.12,.32v7.94l-6.05-8.18c-.07-.13-.21-.21-.36-.2-.12-.01-.24,.03-.32,.12-.08,.09-.13,.2-.12,.32v9.06c0,.12,.03,.23,.1,.32,.08,.08,.19,.13,.3,.12,.11,0,.22-.04,.3-.13,.07-.09,.11-.2,.11-.31v-7.96l6.08,8.16c.08,.13,.22,.21,.37,.21,.12,0,.23-.05,.31-.13,.07-.09,.11-.2,.11-.31v-9.03c0-.12-.03-.24-.11-.33-.08-.08-.19-.11-.3-.11Z" style="fill:#28385b;"/><path d="M208.34,71c-.12,.02-.23,.07-.32,.15-.41,.35-.87,.64-1.37,.85-.46,.16-.95,.24-1.43,.23-.99,.05-1.95-.35-2.6-1.1-1.23-1.91-1.23-4.36,0-6.26,.65-.75,1.61-1.17,2.6-1.11,.49,0,.97,.07,1.43,.24,.49,.21,.95,.49,1.34,.85,.09,.07,.2,.12,.32,.13,.08,0,.16-.04,.2-.11,.06-.08,.09-.17,.08-.26,0-.16-.07-.31-.19-.41-.41-.4-.89-.7-1.42-.89-.57-.21-1.16-.31-1.77-.31-.84-.02-1.66,.19-2.39,.61-.68,.4-1.21,1-1.54,1.72-.7,1.71-.7,3.63,0,5.34,.33,.72,.87,1.32,1.54,1.73,.73,.42,1.57,.63,2.42,.6,.6,0,1.2-.1,1.77-.31,.54-.19,1.02-.49,1.42-.89,.12-.1,.19-.24,.19-.39,0-.09-.02-.19-.08-.26-.04-.07-.12-.12-.2-.12Z" style="fill:#28385b;"/><path d="M217.75,63.59c-1.45-.81-3.21-.81-4.66,0-.66,.42-1.18,1.02-1.5,1.73-.7,1.71-.7,3.62,0,5.33,.32,.71,.84,1.31,1.49,1.73h.03c1.44,.8,3.2,.8,4.64,0,.66-.41,1.19-1.02,1.5-1.73,.7-1.71,.7-3.63,0-5.34-.31-.71-.84-1.31-1.5-1.72Zm.2,7.52h-.01s-.09,.09-.14,.14c-1.41,1.34-3.64,1.27-4.98-.14-1.21-1.91-1.21-4.34,0-6.24,.63-.75,1.58-1.16,2.57-1.11,.98-.05,1.93,.36,2.57,1.1,1.21,1.91,1.21,4.35,0,6.26Z" style="fill:#28385b;"/><path d="M229.74,63.15c-.08,.09-.13,.2-.12,.32v5.73c.06,.82-.21,1.64-.75,2.27-.6,.54-1.39,.8-2.2,.75-.24,.03-.49,.03-.74,0-1.44-.22-2.43-1.57-2.2-3.01v-5.72c0-.12-.03-.24-.11-.33-.09-.07-.2-.11-.31-.11-.12,0-.23,.03-.32,.11-.08,.09-.11,.21-.11,.33v5.62c-.08,1.06,.26,2.1,.95,2.9h0c1.66,1.31,4,1.31,5.66,0,.7-.8,1.04-1.84,.97-2.9v-5.62c0-.12-.04-.24-.12-.33-.18-.15-.44-.14-.61,.01Z" style="fill:#28385b;"/><path d="M241.54,63.15c-.17-.15-.43-.15-.6,0-.07,.09-.11,.21-.11,.32v7.94l-6.05-8.18c-.07-.13-.21-.21-.36-.2-.12,0-.24,.04-.33,.12-.08,.09-.12,.2-.12,.32v9.06c0,.11,.03,.23,.1,.32,.08,.08,.19,.12,.31,.12,.11,0,.22-.05,.29-.13,.08-.08,.12-.19,.12-.31v-7.96l6.07,8.16c.09,.13,.23,.21,.38,.21,.11,0,.22-.05,.3-.13,.07-.09,.11-.2,.11-.31v-9.03c.01-.12-.02-.24-.1-.33h0Z" style="fill:#28385b;"/><path d="M251.65,63.1h-7.24c-.11,0-.21,.03-.29,.11-.14,.16-.14,.39,0,.55,.08,.07,.18,.1,.29,.1h3.2v8.65c0,.11,.04,.22,.11,.31,.08,.09,.19,.14,.31,.13,.12,0,.23-.05,.31-.13,.08-.09,.12-.2,.12-.31v-8.65h3.19c.1,0,.2-.04,.27-.11,.07-.07,.11-.16,.11-.26,0-.1-.03-.2-.11-.27-.07-.07-.17-.11-.27-.11Z" style="fill:#28385b;"/><path d="M265.26,63.59c-1.45-.81-3.21-.81-4.66,0-.66,.42-1.18,1.02-1.5,1.73-.7,1.71-.7,3.62,0,5.33,.33,.71,.85,1.32,1.52,1.73h.06c1.44,.8,3.2,.8,4.64,0,.64-.42,1.15-1.02,1.45-1.73,.72-1.71,.72-3.63,0-5.34-.31-.71-.84-1.31-1.5-1.72Zm.24,7.52c-.64,.74-1.59,1.15-2.57,1.1-.98,.05-1.93-.36-2.55-1.11-1.21-1.91-1.21-4.34,0-6.24,.63-.75,1.58-1.16,2.55-1.11,.98-.05,1.93,.35,2.57,1.1,1.21,1.91,1.21,4.35,0,6.26Z" style="fill:#28385b;"/><path d="M278.05,63.14h0c-.08-.08-.19-.11-.3-.11-.11,0-.21,.04-.29,.12-.08,.09-.13,.2-.12,.32v7.94l-6.05-8.18c-.07-.13-.21-.21-.36-.2-.12-.01-.24,.03-.32,.12-.08,.09-.13,.2-.12,.32v9.06c0,.12,.03,.23,.1,.32,.08,.08,.19,.13,.3,.12,.11,0,.22-.05,.3-.13,.07-.09,.11-.2,.11-.31v-7.96l6.08,8.16c.08,.13,.22,.21,.37,.21,.11,0,.22-.04,.3-.13,.08-.08,.12-.19,.12-.31v-9.03c0-.12-.03-.24-.11-.33Z" style="fill:#28385b;"/></g><g><path d="M43.33,7.63l-.02,.02,.02-.02Z" style="fill:#1c489e;"/><path d="M22.07,21.63c.09-.53,.2-1.06,.32-1.59-.13,.53-.23,1.06-.32,1.59Z" style="fill:#1c489e;"/><path d="M67.42,30.39c-1.97,7.61-7.91,13.55-15.52,15.52-6.83,1.87-13.75-.19-18.63-4.49l11.25-11.26c-.29,.28-.68,.43-1.09,.43h0c-.87,0-1.57-.72-1.57-1.59,0-.41,.17-.81,.46-1.1h0l-11.26,11.26c-2.94-3.55-4.67-8.1-4.39-13.08,.2-4.62,2.12-8.84,5.18-11.99-.07,.08-.16,.15-.23,.23-5.09,4.67-7.98,11.26-7.96,18.16,0,.93,.05,1.87,.17,2.79-.25-.57-.48-1.15-.69-1.74,1.26,3.54,3.34,6.79,6.18,9.44,13.15,12.52,35.58,5.35,39-12.48v.05c.13-.57-.8-.75-.89-.18Z" style="fill:#1c489e;"/><path d="M42.93,8.06s-.06,.06-.09,.08c.03-.03,.06-.05,.09-.08Z" style="fill:#1c489e;"/><path d="M22.09,29.56c-.21-1.23-.32-2.48-.34-3.73,.01,1.25,.13,2.5,.34,3.73Z" style="fill:#1c489e;"/><path d="M21.75,25.46c0-.49,.02-.97,.05-1.46-.03,.49-.05,.97-.05,1.46Z" style="fill:#1c489e;"/><path d="M32.13,13.81c2.41-2.38,5.49-4.1,8.98-4.86l-.5,.1c-3.23,.74-6.17,2.4-8.48,4.76Z" style="fill:#1c489e;"/><path d="M41.36,2.3c-.58-.13-1.19-.12-1.79,.08-4.22,1.15-7.97,3.4-10.93,6.41,2.96-3.01,6.71-5.25,10.93-6.4,.6-.21,1.22-.23,1.8-.1Z" style="fill:#1c489e;"/><path d="M21.84,23.5c.04-.45,.09-.9,.16-1.35-.07,.45-.12,.9-.16,1.35Z" style="fill:#1c489e;"/><path d="M22.47,31.36c-.13-.52-.24-1.03-.34-1.56,.09,.52,.21,1.04,.34,1.56Z" style="fill:#1c489e;"/><path d="M42.48,8.41c-.07,.04-.13,.09-.2,.13,.07-.04,.13-.08,.2-.13Z" style="fill:#1c489e;"/><path d="M23.01,33.2c-.16-.48-.31-.96-.44-1.44,.13,.48,.28,.96,.44,1.44Z" style="fill:#1c489e;"/><path d="M23.65,32.49c-.02-6.9,2.87-13.5,7.96-18.16,.07-.08,.15-.15,.23-.23,.09-.1,.19-.19,.28-.29,2.32-2.36,5.25-4.02,8.48-4.76l.5-.1,.15-.03c.35-.06,.68-.18,.99-.36h0s.03-.02,.04-.03c.07-.04,.13-.09,.2-.13,.13-.08,.25-.17,.36-.26,.03-.03,.06-.05,.09-.08,.14-.13,.27-.26,.38-.41l.02-.02c.68-.88,.91-2.05,.52-3.16-.4-1.16-1.37-1.94-2.49-2.18-.58-.12-1.2-.11-1.8,.1-4.22,1.15-7.97,3.38-10.93,6.4-2.96,3.01-5.14,6.8-6.21,11.04-.02,.07-.03,.14-.04,.2-.12,.53-.23,1.06-.32,1.59-.03,.17-.05,.34-.07,.51-.06,.45-.12,.9-.16,1.35-.01,.17-.03,.34-.04,.51-.03,.49-.05,.97-.05,1.46,0,.12,0,.25,0,.37,.02,1.25,.13,2.5,.34,3.73,.01,.08,.03,.16,.05,.24,.09,.52,.21,1.04,.34,1.56,.03,.14,.07,.27,.11,.4,.13,.48,.28,.96,.44,1.44,.04,.12,.08,.23,.12,.35,.21,.59,.43,1.17,.69,1.74-.12-.93-.17-1.86-.17-2.79Z" style="fill:#4687f9;"/><path d="M41.86,29c0,.87,.7,1.58,1.57,1.59h0c.4,0,.79-.15,1.09-.43,0,0,.02,0,.03-.02l3.16-3.15c.62-.62,.62-1.62,0-2.24s-1.62-.62-2.24,0l-3.15,3.15h0c-.29,.3-.45,.69-.46,1.11Z" style="fill:#4687f9;"/><path d="M46.91,21.05l3.07,.95c.25,.07,.44,.27,.51,.51l.95,3.07c.05,.17,.16,.31,.3,.42,.36,.25,.85,.17,1.1-.19l1.85-2.63c.15-.21,.4-.34,.66-.33h3.21c.18,0,.35-.06,.49-.16,.35-.26,.41-.76,.15-1.1l-1.91-2.58c-.16-.21-.2-.48-.12-.73l1.03-3.03h0c.06-.17,.06-.35,0-.52-.14-.41-.58-.64-1-.5l-3.04,1.03c-.25,.08-.52,.04-.73-.11l-2.57-1.92c-.14-.09-.31-.14-.48-.13-.43,.03-.77,.4-.74,.83v3.21c0,.26-.12,.51-.33,.66l-2.62,1.85c-.14,.1-.25,.24-.3,.41-.13,.41,.1,.86,.52,.99Z" style="fill:#1c489e;"/><path d="M49.72,4.97c.11,.15,.13,.34,.07,.51l-.78,2.11c-.05,.12-.05,.25,0,.38,.1,.29,.41,.44,.7,.34l2.15-.67c.17-.06,.36-.02,.5,.1l1.78,1.39h-.01c.1,.08,.23,.13,.36,.13,.31,0,.56-.25,.56-.56v-2.27c0-.18,.09-.35,.24-.45l1.94-1.25c.1-.07,.18-.17,.22-.29,.1-.29-.06-.6-.35-.69l-2.14-.73c-.17-.05-.31-.19-.36-.37l-.62-2.16c-.02-.19-.14-.36-.31-.45-.27-.13-.6,0-.73,.27l-1.34,1.8c-.11,.14-.27,.22-.45,.23l-2.26-.08c-.12,0-.24,.03-.34,.1-.25,.18-.3,.52-.12,.77l1.3,1.84Z" style="fill:#4687f9;"/><path d="M70.18,17.36c.05-.1,.07-.21,.05-.32-.05-.27-.3-.44-.57-.4l-1.97,.31c-.16,.03-.32-.03-.43-.15l-1.39-1.45c-.07-.08-.17-.13-.27-.14-.27-.04-.52,.14-.56,.41l-.32,1.91c-.02,.16-.11,.29-.25,.37l-1.79,.86c-.09,.05-.17,.12-.21,.21-.12,.24-.03,.54,.21,.66l1.78,.91c.14,.07,.24,.21,.26,.37l.24,1.98h0c.01,.11,.06,.22,.14,.29,.19,.19,.5,.19,.69,0l1.41-1.45c.11-.11,.27-.16,.43-.13l1.97,.45c.11,.02,.22,0,.31-.05,.24-.12,.34-.42,.21-.66l-.91-1.78c-.07-.14-.07-.31,0-.45l.95-1.76Z" style="fill:#4687f9;"/><path d="M61.36,8.65l1.64,.24c.13,.01,.24,.1,.3,.21l.75,1.49h0s.07,.09,.12,.12c.19,.12,.44,.07,.56-.12l.78-1.46c.06-.12,.18-.2,.31-.21l1.64-.24c.09-.01,.17-.05,.23-.12,.16-.16,.15-.42,0-.57l-1.19-1.19c-.1-.1-.14-.23-.12-.37l.3-1.67c.01-.09,0-.18-.05-.26-.11-.2-.35-.27-.55-.16l-1.47,.76c-.12,.06-.25,.06-.37,0l-1.47-.76c-.08-.04-.17-.06-.26-.05-.22,.03-.37,.24-.34,.46l.29,1.64c.02,.13-.03,.27-.12,.37l-1.19,1.19c-.06,.06-.1,.14-.12,.23-.04,.22,.11,.43,.33,.47Z" style="fill:#4687f9;"/></g><g><path d="M130.77,9.8c-.39,0-.77,.12-1.09,.36-.35,.26-.6,.65-.7,1.08l-9.9,31.34-9.77-30.91c-.13-.49-.41-.94-.8-1.27-.33-.28-.76-.44-1.19-.45-.43,0-.85,.15-1.19,.42-.39,.3-.67,.72-.8,1.19l-9.89,30.87-9.78-31.2c-.21-.84-.97-1.43-1.84-1.43-.52,0-1.01,.2-1.4,.55-.4,.37-.63,.89-.61,1.43,0,.28,.06,.56,.15,.82l11.26,34.98c.14,.48,.43,.9,.84,1.19,.38,.26,.83,.41,1.29,.41,.46,0,.91-.14,1.29-.41,.41-.29,.71-.71,.85-1.19l9.81-30.42,9.72,30.42c.14,.48,.44,.9,.85,1.19,.38,.27,.83,.41,1.29,.41,.48,0,.95-.13,1.34-.41,.41-.29,.71-.71,.85-1.19l11.21-34.99c.1-.28,.15-.58,.15-.88,.02-.53-.18-1.04-.57-1.4-.37-.34-.86-.53-1.36-.52Z" style="fill:#4687f9;"/><path d="M138.41,11c-.5,.53-.77,1.25-.75,1.98-.04,.75,.23,1.48,.75,2.03h0c.55,.56,1.31,.86,2.09,.81,1.48-.09,2.61-1.36,2.52-2.84,.03-.73-.24-1.45-.75-1.98-1.08-1.02-2.77-1.02-3.86,0Z" style="fill:#4687f9;"/><path d="M140.34,21.59c-.54-.02-1.07,.17-1.46,.55-.41,.44-.61,1.03-.57,1.62v23.18c-.03,.6,.17,1.18,.57,1.62h0c.82,.76,2.08,.76,2.9,.01,.39-.45,.59-1.04,.55-1.64V23.78c.04-.59-.16-1.17-.55-1.62-.38-.39-.9-.6-1.45-.57Z" style="fill:#4687f9;"/><path d="M168.86,45.8c-.35-.32-.81-.49-1.29-.47h-14.14l14.73-19.5c.37-.49,.58-1.09,.58-1.71,.01-.52-.18-1.02-.54-1.4-.38-.39-.9-.6-1.45-.57h-16.81c-.49-.03-.97,.15-1.31,.49-.32,.36-.49,.83-.47,1.31,0,.44,.16,.87,.47,1.19,.36,.33,.83,.5,1.31,.47h13.59l-14.67,19.56c-.37,.49-.58,1.08-.6,1.7-.01,.52,.19,1.03,.55,1.41,.36,.38,.86,.59,1.39,.57h17.36c.48,.03,.94-.14,1.29-.47,.31-.35,.48-.82,.45-1.29,.03-.48-.13-.94-.45-1.3Z" style="fill:#4687f9;"/></g><g><path d="M201.08,40.89c-.53,.05-1.02,.26-1.43,.6-1.38,1.27-2.95,2.31-4.66,3.09-1.5,.61-3.1,.91-4.72,.88-3.48,.18-6.81-1.38-8.89-4.17-2.06-2.8-3.09-6.75-3.09-11.83s1.03-9.01,3.09-11.78c2.08-2.76,5.4-4.32,8.86-4.14,1.63-.03,3.26,.27,4.77,.88,1.69,.78,3.26,1.82,4.64,3.07,.41,.34,.91,.56,1.43,.61,.39-.03,.74-.24,.94-.57,.25-.42,.37-.9,.33-1.39,0-.72-.28-1.41-.79-1.92-1.46-1.47-3.21-2.62-5.13-3.38-1.99-.8-4.12-1.2-6.26-1.19-6.22-.23-11.9,3.5-14.16,9.3-1.38,3.33-2.04,6.91-1.96,10.52-.09,3.62,.58,7.23,1.96,10.58,1.15,2.78,3.09,5.17,5.58,6.86,2.57,1.65,5.58,2.48,8.64,2.4,2.15,0,4.27-.4,6.26-1.19,1.93-.76,3.68-1.91,5.13-3.38,.51-.51,.79-1.2,.79-1.92,.02-.49-.12-.97-.39-1.37-.2-.33-.55-.54-.94-.55Z" style="fill:#1c489e;"/><path d="M217.73,21.39c-1.49,0-2.97,.22-4.39,.63-1.39,.39-2.71,.97-3.94,1.73-.52,.31-.98,.72-1.36,1.19-.29,.39-.44,.86-.43,1.34-.02,.46,.12,.91,.41,1.27,.21,.32,.57,.52,.95,.54,.7-.15,1.34-.47,1.89-.93,2.05-1.28,4.42-1.99,6.84-2.03,1.48-.13,2.94,.43,3.94,1.53,.92,1.44,1.34,3.14,1.19,4.84v1.84h-1.1c-2.96-.07-5.92,.18-8.82,.75-1.74,.28-3.34,1.12-4.56,2.39-1,1.35-1.49,3.01-1.39,4.69-.02,1.45,.38,2.88,1.14,4.12,.75,1.23,1.83,2.24,3.11,2.91,1.32,.7,2.79,1.06,4.29,1.04,1.58,.03,3.14-.42,4.47-1.29,1.33-.89,2.35-2.18,2.91-3.68v2.66c-.03,.58,.16,1.15,.54,1.59,.37,.41,.9,.63,1.45,.61,.54,.02,1.06-.2,1.41-.61,.36-.45,.55-1.01,.52-1.59v-14.94c0-7.04-3.02-10.57-9.05-10.61Zm5.13,16.37c.09,2.08-.59,4.12-1.91,5.73h0c-1.2,1.45-3,2.28-4.88,2.24-.08,0-.16,0-.24,0-2.67-.06-4.79-2.27-4.72-4.94-.08-1.04,.27-2.06,.97-2.83,.92-.77,2.05-1.25,3.25-1.37,2.2-.32,4.43-.46,6.65-.42h.89v1.6Z" style="fill:#1c489e;"/><path d="M248.32,35.53c-1.67-.81-3.43-1.42-5.24-1.82-1.2-.26-2.37-.63-3.49-1.12-.68-.28-1.28-.74-1.74-1.31-.35-.58-.52-1.26-.48-1.94-.04-1.19,.48-2.33,1.41-3.07,1.07-.83,2.4-1.25,3.75-1.19,1.05-.03,2.09,.15,3.07,.55,.92,.43,1.8,.94,2.63,1.54,.5,.48,1.12,.8,1.79,.93,.37,0,.72-.19,.94-.49,.26-.34,.4-.76,.39-1.19-.09-1.13-.72-2.15-1.68-2.75-.97-.71-2.05-1.26-3.2-1.61-1.21-.39-2.48-.58-3.75-.58-1.65-.02-3.28,.33-4.77,1.04-1.33,.64-2.47,1.62-3.3,2.85-.8,1.24-1.22,2.7-1.19,4.18-.09,1.79,.6,3.53,1.89,4.77,1.83,1.43,3.98,2.39,6.26,2.79,1.34,.29,2.65,.69,3.92,1.19,.74,.27,1.4,.73,1.9,1.34,.38,.57,.57,1.25,.54,1.94,.06,1.19-.5,2.34-1.48,3.02-1.25,.77-2.7,1.13-4.17,1.04-1.24,.04-2.47-.16-3.64-.57-1.04-.42-2.03-.94-2.96-1.56-.49-.43-1.09-.72-1.73-.82-.38,0-.74,.17-.97,.47-.26,.34-.39,.76-.37,1.19-.02,.49,.11,.98,.37,1.4,.35,.47,.78,.87,1.27,1.19,1.1,.75,2.3,1.32,3.58,1.7h0c1.42,.4,2.88,.58,4.35,.55,2.49,.12,4.94-.63,6.94-2.11,1.72-1.33,2.69-3.4,2.63-5.58,.04-1.24-.23-2.47-.79-3.58-.64-1.03-1.56-1.86-2.65-2.39Z" style="fill:#1c489e;"/><path d="M277.83,35.68c.31-.47,.46-1.04,.41-1.6,.18-3.3-.81-6.57-2.78-9.22-1.82-2.26-4.59-3.52-7.49-3.42-2.12-.04-4.21,.58-5.97,1.77-1.79,1.22-3.19,2.92-4.05,4.91-.99,2.3-1.48,4.78-1.43,7.28-.22,3.67,.94,7.3,3.25,10.16,2.25,2.49,5.5,3.84,8.85,3.68,1.31,0,2.61-.2,3.87-.57,1.32-.39,2.58-.98,3.74-1.73,.97-.49,1.63-1.45,1.73-2.54,.02-.45-.12-.9-.39-1.27-.21-.29-.54-.46-.9-.48-.63,.15-1.22,.43-1.73,.82-.95,.6-1.95,1.12-2.98,1.56-1.06,.41-2.19,.6-3.32,.57-5.09,0-7.79-3.14-8.08-9.45h16c.48,.04,.96-.14,1.29-.49Zm-17.24-2.37c.08-2.26,.87-4.43,2.26-6.21h0c1.28-1.46,3.15-2.27,5.09-2.2,1.87-.09,3.68,.71,4.86,2.17,1.28,1.82,1.92,4.01,1.84,6.23h-14.04Z" style="fill:#1c489e;"/></g></svg>