<svg width="180" height="40" viewBox="0 0 180 40" fill="none" xmlns="http://www.w3.org/2000/svg">
<g clip-path="url(#clip0_1169_5580)">
<path d="M18.4961 23.5815L18.7484 24.843L19.2136 24.2123L19.6706 26.5818L20.1255 24.2123L20.5907 24.843L20.843 23.5815H18.4961Z" fill="#03D5C0"/>
<path d="M20.9073 21.5757V18.0225C20.9073 17.3287 19.6811 15.5752 19.6811 15.5752C19.6811 15.5752 18.4425 17.3287 18.4425 18.0225V21.5757C17.6382 21.8406 16.9372 22.36 16.4409 23.0559H22.9006C22.4064 22.36 21.7096 21.8427 20.9073 21.5757Z" fill="white"/>
<path d="M34.5586 25.1858C34.5586 24.1577 33.7377 23.323 32.7266 23.323C31.7154 23.323 30.8945 24.1577 30.8945 25.1858C30.8945 26.2139 31.7154 27.0486 32.7266 27.0486C33.7377 27.0486 34.5565 26.2139 34.5586 25.1858ZM31.6534 25.1858C31.6534 24.5845 32.1311 24.0946 32.7245 24.0925C33.3159 24.0925 33.7977 24.5782 33.7997 25.1816C33.7997 25.7829 33.3221 26.2728 32.7286 26.2749H32.7266C32.1352 26.2749 31.6555 25.7871 31.6534 25.1858Z" fill="#03D5C0"/>
<path d="M19.6707 0C8.81283 0.012615 0.0144744 8.95874 0 19.9989C0 27.6247 4.60699 33.7556 10.7172 34.2707C14.4351 34.5819 18.0309 33.2363 20.3985 32.0484C21.8129 31.4576 23.128 30.6481 24.2983 29.6473L24.5527 29.4329C24.7429 29.2647 24.9207 29.1028 25.0903 28.9388C27.309 26.8005 29.9516 22.9572 29.9516 16.7716V16.0904L19.7555 8.97766L9.55722 16.0904V16.7695C9.55722 22.9551 12.1998 26.8005 14.4185 28.9367C14.677 29.1869 14.95 29.4308 15.2312 29.6662C16.1637 29.3235 17.0901 28.9724 17.9958 28.5645C15.6799 27.0339 12.3239 23.7288 12.1006 17.4381L19.7534 12.0978L27.4041 17.4381C27.2242 22.5219 24.9745 25.6442 23.006 27.406L22.7599 27.5974C22.7 27.6436 16.7944 32.1997 10.9219 31.7035C7.25166 31.3945 4.27408 28.3606 3.08924 24.1346C4.03215 23.4534 4.2534 22.1246 3.58344 21.1679C3.32497 20.7979 2.95898 20.5225 2.53715 20.3795V19.9989C2.53715 17.5495 3.04582 15.1296 4.03215 12.8967C4.6318 13.1448 5.27487 13.2731 5.92209 13.2752C8.67015 13.2689 10.8909 11.0003 10.8868 8.20604C10.8868 7.38187 10.6842 6.5703 10.3037 5.84074C10.2479 5.73351 10.1858 5.63469 10.1238 5.53377C17.973 0.174507 28.6034 2.29593 33.8742 10.2707C33.9403 10.3695 34.0044 10.4704 34.0685 10.5714C32.5653 11.8644 32.3771 14.1519 33.6488 15.6804C34.327 16.4962 35.3237 16.965 36.372 16.965H36.5375C36.7153 17.9658 36.8083 18.9813 36.8125 19.9989C36.8125 29.0334 29.7428 36.1735 19.6335 37.4286C11.5485 38.4378 6.36252 35.0255 6.36252 35.0255C9.38766 38.4189 13.6162 40 19.6727 40C30.5368 39.8802 39.2462 30.8289 39.1304 19.7845C39.0146 8.90618 30.3693 0.115637 19.6707 0ZM3.18229 22.6901C3.13474 22.9151 3.03135 23.1233 2.8804 23.2957C2.73566 22.6229 2.6364 21.9438 2.58264 21.2583C3.0603 21.559 3.30016 22.133 3.18229 22.6901ZM9.6358 6.20447C10.7296 8.29225 9.9501 10.8867 7.8968 11.9989C6.80295 12.5919 5.50646 12.6633 4.35472 12.1966C5.57057 9.74507 7.33437 7.61524 9.50553 5.98371C9.54482 6.05519 9.59651 6.12878 9.63786 6.20657H9.6358V6.20447ZM36.3741 16.1934C34.8233 16.1934 33.5661 14.9193 33.5661 13.3424C33.5661 12.5414 33.8948 11.7782 34.4759 11.2378C35.3609 12.779 36.006 14.4505 36.3906 16.1913H36.3741V16.1934Z" fill="#03D5C0"/>
</g>
<path d="M60.9216 23.5059V23.4642C60.9216 20.9181 59.252 19.8538 56.2886 19.0816C53.7633 18.4346 53.1373 18.1216 53.1373 17.1616V17.1198C53.1373 16.4103 53.7842 15.8468 55.0155 15.8468C56.2468 15.8468 57.5199 16.3894 58.8138 17.2868L60.4833 14.8659C59.0016 13.6764 57.186 13.0085 55.0573 13.0085C52.0729 13.0085 49.9442 14.7616 49.9442 17.412V17.4538C49.9442 20.3546 51.8433 21.1685 54.786 21.9198C57.2277 22.5459 57.7286 22.9633 57.7286 23.7772V23.819C57.7286 24.6746 56.9355 25.1964 55.6207 25.1964C53.9512 25.1964 52.5738 24.5077 51.259 23.4224L49.3599 25.6972C51.1129 27.2625 53.346 28.0346 55.5581 28.0346C58.7094 28.0346 60.9216 26.4068 60.9216 23.5059Z" fill="white"/>
<path d="M78.4729 27.8259L72.212 13.1129H69.2486L62.9877 27.8259H66.2642L67.5999 24.5494H73.7773L75.1129 27.8259H78.4729ZM72.6294 21.7111H68.7477L70.6886 16.9738L72.6294 21.7111Z" fill="white"/>
<path d="M92.6859 16.139V13.2172H81.5624V27.8259H84.7763V22.1703H91.7468V19.2485H84.7763V16.139H92.6859Z" fill="white"/>
<path d="M107.216 27.8259V24.9668H99.2859V21.899H106.173V19.0398H99.2859V16.0764H107.112V13.2172H96.0929V27.8259H107.216Z" fill="white"/>
<path d="M125.517 27.8259V13.2172H122.053L118.213 19.3946L114.373 13.2172H110.909V27.8259H114.06V18.3511L118.129 24.5285H118.213L122.324 18.2885V27.8259H125.517Z" fill="white"/>
<path d="M144.742 20.5216V20.4798C144.742 16.3268 141.507 12.9668 136.999 12.9668C132.491 12.9668 129.215 16.3685 129.215 20.5216V20.5633C129.215 24.7164 132.449 28.0764 136.957 28.0764C141.465 28.0764 144.742 24.6746 144.742 20.5216ZM141.382 20.5633C141.382 23.0677 139.587 25.1129 136.999 25.1129C134.411 25.1129 132.575 23.0259 132.575 20.5216V20.4798C132.575 17.9755 134.369 15.9303 136.957 15.9303C139.545 15.9303 141.382 18.0172 141.382 20.5216V20.5633Z" fill="white"/>
<path d="M163.307 20.5216V20.4798C163.307 16.3268 160.073 12.9668 155.565 12.9668C151.057 12.9668 147.78 16.3685 147.78 20.5216V20.5633C147.78 24.7164 151.015 28.0764 155.523 28.0764C160.031 28.0764 163.307 24.6746 163.307 20.5216ZM159.947 20.5633C159.947 23.0677 158.153 25.1129 155.565 25.1129C152.977 25.1129 151.14 23.0259 151.14 20.5216V20.4798C151.14 17.9755 152.935 15.9303 155.523 15.9303C158.111 15.9303 159.947 18.0172 159.947 20.5216V20.5633Z" fill="white"/>
<path d="M179.974 27.8259V13.2172H176.802V22.212L169.957 13.2172H166.993V27.8259H170.165V18.539L177.24 27.8259H179.974Z" fill="white"/>
<defs>
<clipPath id="clip0_1169_5580">
<rect width="39.1304" height="40" fill="white"/>
</clipPath>
</defs>
</svg>
