<svg width="20" height="22" viewBox="0 0 20 22" fill="none" xmlns="http://www.w3.org/2000/svg">
<path fill-rule="evenodd" clip-rule="evenodd" d="M4.49871 2.79167C4.49871 1.24987 5.74858 0 7.29038 0H12.4564C13.8371 0 14.9564 1.11929 14.9564 2.5C14.9564 3.05228 15.4041 3.5 15.9564 3.5H16.5457C18.1306 3.5 19.5245 4.72999 19.4599 6.41561C19.3771 8.57667 18.9574 12.0431 17.2741 15.1108C16.8178 15.9423 16.2084 16.7592 15.5496 17.5203L15.5 17.5776C14.5523 18.6726 13.7622 19.5856 12.9127 20.2079C11.999 20.8773 11.0238 21.2107 9.72755 21.2107C8.43125 21.2107 7.45607 20.8773 6.54238 20.2079C5.69291 19.5856 4.90276 18.6726 3.95509 17.5776L3.90549 17.5203C3.24673 16.7592 2.63733 15.9423 2.18104 15.1108C0.55189 12.1418 0.105237 9.00749 0.00371348 6.99648C-0.0817939 5.30273 1.32212 4.08333 2.89818 4.08333H3.20704C3.92041 4.08333 4.49871 3.50503 4.49871 2.79167ZM7.29038 1.5C6.57701 1.5 5.99871 2.0783 5.99871 2.79167C5.99871 4.33346 4.74884 5.58333 3.20704 5.58333H2.89818C2.05804 5.58333 1.46549 6.20149 1.50181 6.92085C1.59726 8.81159 2.01759 11.6948 3.49607 14.3892C3.88501 15.098 4.42358 15.8268 5.03966 16.5386C6.04978 17.7057 6.73186 18.4873 7.42885 18.9979C8.0764 19.4723 8.73874 19.7107 9.72755 19.7107C10.7164 19.7107 11.3787 19.4723 12.0262 18.9979C12.7232 18.4873 13.4053 17.7057 14.4154 16.5386C15.0315 15.8268 15.5701 15.098 15.959 14.3892C17.4793 11.6186 17.8819 8.42293 17.961 6.35819C17.9892 5.6231 17.3834 5 16.5457 5H15.9564C14.5757 5 13.4564 3.88071 13.4564 2.5C13.4564 1.94772 13.0087 1.5 12.4564 1.5H7.29038ZM6.97741 8.75C6.97741 7.23122 8.20862 6 9.72741 6C11.2462 6 12.4774 7.23122 12.4774 8.75C12.4774 10.0088 11.6317 11.07 10.4774 11.3965V14.75C10.4774 15.1642 10.1416 15.5 9.72741 15.5C9.31319 15.5 8.97741 15.1642 8.97741 14.75V11.3965C7.82315 11.07 6.97741 10.0088 6.97741 8.75ZM9.72741 7.5C9.03705 7.5 8.47741 8.05964 8.47741 8.75C8.47741 9.44036 9.03705 10 9.72741 10C10.4178 10 10.9774 9.44036 10.9774 8.75C10.9774 8.05964 10.4178 7.5 9.72741 7.5Z" fill="#03D5C0"/>
</svg>
