<svg width="180" height="40" viewBox="0 0 180 40" fill="none" xmlns="http://www.w3.org/2000/svg">
<g clip-path="url(#clip0_1085_6299)">
<path d="M18.4962 23.5815L18.7484 24.843L19.2137 24.2123L19.6706 26.5818L20.1256 24.2123L20.5908 24.843L20.8431 23.5815H18.4962Z" fill="white"/>
<path d="M20.9072 21.5758V18.0226C20.9072 17.3288 19.681 15.5753 19.681 15.5753C19.681 15.5753 18.4424 17.3288 18.4424 18.0226V21.5758C17.638 21.8408 16.9371 22.3601 16.4408 23.056H22.9005C22.4063 22.3601 21.7095 21.8429 20.9072 21.5758Z" fill="white"/>
<path d="M34.5586 25.1858C34.5586 24.1577 33.7377 23.323 32.7266 23.323C31.7154 23.323 30.8945 24.1577 30.8945 25.1858C30.8945 26.2139 31.7154 27.0486 32.7266 27.0486C33.7377 27.0486 34.5565 26.2139 34.5586 25.1858ZM31.6534 25.1858C31.6534 24.5845 32.1311 24.0946 32.7245 24.0925C33.3159 24.0925 33.7977 24.5782 33.7997 25.1816C33.7997 25.7829 33.3221 26.2728 32.7286 26.2749H32.7266C32.1352 26.2749 31.6555 25.7871 31.6534 25.1858Z" fill="white"/>
<path d="M19.6707 0C8.81283 0.012615 0.0144744 8.95874 0 19.9989C0 27.6247 4.60699 33.7556 10.7172 34.2707C14.4351 34.5819 18.0309 33.2363 20.3985 32.0484C21.8129 31.4576 23.128 30.6481 24.2983 29.6473L24.5527 29.4329C24.7429 29.2647 24.9207 29.1028 25.0903 28.9388C27.309 26.8005 29.9516 22.9572 29.9516 16.7716V16.0904L19.7555 8.97766L9.55722 16.0904V16.7695C9.55722 22.9551 12.1998 26.8005 14.4185 28.9367C14.677 29.1869 14.95 29.4308 15.2312 29.6662C16.1637 29.3235 17.0901 28.9724 17.9958 28.5645C15.6799 27.0339 12.3239 23.7288 12.1006 17.4381L19.7534 12.0978L27.4041 17.4381C27.2242 22.5219 24.9745 25.6442 23.006 27.406L22.7599 27.5974C22.7 27.6436 16.7944 32.1997 10.9219 31.7035C7.25166 31.3945 4.27408 28.3606 3.08924 24.1346C4.03215 23.4534 4.2534 22.1246 3.58344 21.1679C3.32497 20.7979 2.95898 20.5225 2.53715 20.3795V19.9989C2.53715 17.5495 3.04582 15.1296 4.03215 12.8967C4.6318 13.1448 5.27487 13.2731 5.92209 13.2752C8.67015 13.2689 10.8909 11.0003 10.8868 8.20604C10.8868 7.38187 10.6842 6.5703 10.3037 5.84074C10.2479 5.73351 10.1858 5.63469 10.1238 5.53377C17.973 0.174507 28.6034 2.29593 33.8742 10.2707C33.9403 10.3695 34.0044 10.4704 34.0685 10.5714C32.5653 11.8644 32.3771 14.1519 33.6488 15.6804C34.327 16.4962 35.3237 16.965 36.372 16.965H36.5375C36.7153 17.9658 36.8083 18.9813 36.8125 19.9989C36.8125 29.0334 29.7428 36.1735 19.6335 37.4286C11.5485 38.4378 6.36252 35.0255 6.36252 35.0255C9.38766 38.4189 13.6162 40 19.6727 40C30.5368 39.8802 39.2462 30.8289 39.1304 19.7845C39.0146 8.90618 30.3693 0.115637 19.6707 0ZM3.18229 22.6901C3.13474 22.9151 3.03135 23.1233 2.8804 23.2957C2.73566 22.6229 2.6364 21.9438 2.58264 21.2583C3.0603 21.559 3.30016 22.133 3.18229 22.6901ZM9.6358 6.20447C10.7296 8.29225 9.9501 10.8867 7.8968 11.9989C6.80295 12.5919 5.50646 12.6633 4.35472 12.1966C5.57057 9.74507 7.33437 7.61524 9.50553 5.98371C9.54482 6.05519 9.59651 6.12878 9.63786 6.20657H9.6358V6.20447ZM36.3741 16.1934C34.8233 16.1934 33.5661 14.9193 33.5661 13.3424C33.5661 12.5414 33.8948 11.7782 34.4759 11.2378C35.3609 12.779 36.006 14.4505 36.3906 16.1913H36.3741V16.1934Z" fill="white"/>
</g>
<path d="M60.9217 23.5061V23.4643C60.9217 20.9182 59.2522 19.8539 56.2887 19.0817C53.7635 18.4347 53.1374 18.1217 53.1374 17.1617V17.12C53.1374 16.4104 53.7843 15.8469 55.0156 15.8469C56.2469 15.8469 57.52 16.3895 58.8139 17.2869L60.4835 14.866C59.0017 13.6765 57.1861 13.0087 55.0574 13.0087C52.073 13.0087 49.9443 14.7617 49.9443 17.4121V17.4539C49.9443 20.3547 51.8435 21.1687 54.7861 21.92C57.2278 22.546 57.7287 22.9634 57.7287 23.7774V23.8191C57.7287 24.6747 56.9356 25.1965 55.6209 25.1965C53.9513 25.1965 52.5739 24.5078 51.2591 23.4226L49.36 25.6974C51.113 27.2626 53.3461 28.0347 55.5582 28.0347C58.7096 28.0347 60.9217 26.4069 60.9217 23.5061Z" fill="white"/>
<path d="M78.473 27.8261L72.2122 13.113H69.2487L62.9878 27.8261H66.2643L67.6 24.5495H73.7774L75.113 27.8261H78.473ZM72.6296 21.7113H68.7478L70.6887 16.9739L72.6296 21.7113Z" fill="white"/>
<path d="M92.686 16.1391V13.2174H81.5625V27.8261H84.7765V22.1704H91.7469V19.2487H84.7765V16.1391H92.686Z" fill="white"/>
<path d="M107.216 27.8261V24.9669H99.286V21.8991H106.173V19.04H99.286V16.0765H107.112V13.2174H96.093V27.8261H107.216Z" fill="white"/>
<path d="M125.517 27.8261V13.2174H122.053L118.213 19.3947L114.373 13.2174H110.909V27.8261H114.06V18.3513L118.13 24.5287H118.213L122.324 18.2887V27.8261H125.517Z" fill="white"/>
<path d="M144.742 20.5217V20.48C144.742 16.3269 141.507 12.9669 136.999 12.9669C132.491 12.9669 129.215 16.3687 129.215 20.5217V20.5634C129.215 24.7165 132.45 28.0765 136.957 28.0765C141.465 28.0765 144.742 24.6747 144.742 20.5217ZM141.382 20.5634C141.382 23.0678 139.587 25.113 136.999 25.113C134.411 25.113 132.575 23.026 132.575 20.5217V20.48C132.575 17.9756 134.37 15.9304 136.957 15.9304C139.545 15.9304 141.382 18.0174 141.382 20.5217V20.5634Z" fill="white"/>
<path d="M163.307 20.5217V20.48C163.307 16.3269 160.073 12.9669 155.565 12.9669C151.057 12.9669 147.781 16.3687 147.781 20.5217V20.5634C147.781 24.7165 151.015 28.0765 155.523 28.0765C160.031 28.0765 163.307 24.6747 163.307 20.5217ZM159.947 20.5634C159.947 23.0678 158.153 25.113 155.565 25.113C152.977 25.113 151.141 23.026 151.141 20.5217V20.48C151.141 17.9756 152.935 15.9304 155.523 15.9304C158.111 15.9304 159.947 18.0174 159.947 20.5217V20.5634Z" fill="white"/>
<path d="M179.974 27.8261V13.2174H176.802V22.2121L169.957 13.2174H166.993V27.8261H170.165V18.5391L177.24 27.8261H179.974Z" fill="white"/>
<defs>
<clipPath id="clip0_1085_6299">
<rect width="39.1304" height="40" fill="white"/>
</clipPath>
</defs>
</svg>
