<?xml version="1.0" encoding="utf-8"?>
<!-- Generator: Adobe Illustrator 27.4.0, SVG Export Plug-In . SVG Version: 6.00 Build 0)  -->
<svg version="1.1" id="Calque_1" xmlns="http://www.w3.org/2000/svg" xmlns:xlink="http://www.w3.org/1999/xlink" x="0px" y="0px"
	 viewBox="0 0 22 13" style="enable-background:new 0 0 22 13;" xml:space="preserve">
<style type="text/css">
	.st0{display:none;}
	.st1{display:inline;fill:#0055A4;}
	.st2{display:inline;fill:#FFFFFF;}
	.st3{display:inline;fill:#DC3A3A;}
	.st4{display:inline;}
	.st5{display:inline;fill:#DD0000;}
	.st6{display:inline;fill:#FFCE00;}
	.st7{display:inline;fill:#FF0000;}
	.st8{display:inline;fill:#006600;}
	
		.st9{fill-rule:evenodd;clip-rule:evenodd;fill:#FFFF00;stroke:#000000;stroke-width:1.862250e-02;stroke-linecap:round;stroke-linejoin:round;}
	
		.st10{fill-rule:evenodd;clip-rule:evenodd;fill:#FFFF00;stroke:#000000;stroke-width:1.787500e-02;stroke-linecap:round;stroke-linejoin:round;}
	.st11{fill:#FFFFFF;stroke:#000000;stroke-width:2.178702e-02;}
	.st12{fill:#FF0000;stroke:#000000;stroke-width:1.648855e-02;}
	.st13{fill:#FFFF00;}
	.st14{fill:#FFFF00;stroke:#000000;stroke-width:1.625000e-02;}
	.st15{fill:#003399;}
	.st16{fill:#FFFFFF;}
	.st17{fill:#C60B1E;}
	.st18{fill:#FFC400;}
	.st19{fill:#AD1519;stroke:#000000;stroke-width:6.760000e-03;stroke-linejoin:round;}
	.st20{fill:#C8B100;stroke:#000000;stroke-width:6.760000e-03;}
	.st21{fill:#C8B100;}
	.st22{fill:#C8B100;stroke:#000000;stroke-width:7.800001e-03;}
	.st23{fill:none;stroke:#000000;stroke-width:6.760000e-03;}
	.st24{fill:#C8B100;stroke:#000000;stroke-width:6.760000e-03;stroke-linejoin:round;}
	.st25{fill:#AD1519;stroke:#000000;stroke-width:6.760000e-03;}
	.st26{fill:#058E6E;stroke:#000000;stroke-width:6.760000e-03;}
	.st27{fill:#FFFFFF;stroke:#000000;stroke-width:6.760000e-03;}
	.st28{fill:none;stroke:#000000;stroke-width:2.600000e-04;}
	.st29{fill:none;stroke:#000000;stroke-width:5.200000e-04;}
	.st30{fill:none;stroke:#000000;stroke-width:7.800000e-04;}
	.st31{fill:none;stroke:#000000;stroke-width:1.040000e-03;}
	.st32{fill:none;stroke:#000000;stroke-width:1.300000e-03;}
	.st33{fill:none;stroke:#000000;stroke-width:1.560000e-03;}
	.st34{fill:none;stroke:#000000;stroke-width:1.820000e-03;}
	.st35{fill:none;stroke:#000000;stroke-width:2.080000e-03;}
	.st36{fill:none;stroke:#000000;stroke-width:2.340000e-03;}
	.st37{fill:none;stroke:#000000;stroke-width:2.600000e-03;}
	.st38{fill:none;stroke:#000000;stroke-width:2.860000e-03;}
	.st39{fill:none;stroke:#000000;stroke-width:3.120000e-03;}
	.st40{fill:none;stroke:#000000;stroke-width:3.380000e-03;}
	.st41{fill:none;stroke:#000000;stroke-width:3.640000e-03;}
	.st42{fill:none;stroke:#000000;stroke-width:3.900000e-03;}
	.st43{fill:none;stroke:#000000;stroke-width:4.680000e-03;}
	.st44{fill:#005BBF;stroke:#000000;stroke-width:1.014000e-02;}
	.st45{fill:#CCCCCC;stroke:#000000;stroke-width:1.014000e-02;}
	.st46{fill:#C8B100;stroke:#000000;stroke-width:1.014000e-02;stroke-linejoin:round;}
	.st47{fill:#C8B100;stroke:#000000;stroke-width:1.014000e-02;}
	.st48{fill:none;stroke:#000000;stroke-width:1.014000e-02;}
	.st49{fill:#AD1519;stroke:#000000;stroke-width:1.014000e-02;}
	.st50{fill:#AD1519;stroke:#000000;stroke-width:1.014000e-02;stroke-linejoin:round;}
	.st51{fill:#AD1519;stroke:#000000;stroke-width:7.020000e-03;}
	.st52{fill:none;stroke:#000000;stroke-width:6.760000e-03;stroke-linecap:round;}
	.st53{fill:none;stroke:#000000;stroke-width:5.460000e-03;}
	.st54{fill:#FFFFFF;stroke:#000000;stroke-width:5.460000e-03;}
	.st55{fill:#005BBF;stroke:#000000;stroke-width:6.760000e-03;}
	.st56{fill:#FFFFFF;stroke:#000000;stroke-width:1.014000e-02;}
	.st57{fill:none;stroke:#000000;stroke-width:5.980000e-03;}
	.st58{fill:none;stroke:#000000;stroke-width:7.280000e-03;}
	.st59{fill:none;stroke:#000000;stroke-width:8.580000e-03;}
	.st60{fill:none;stroke:#000000;stroke-width:9.620001e-03;}
	.st61{fill:none;stroke:#000000;stroke-width:1.092000e-02;}
	.st62{fill:none;stroke:#000000;stroke-width:1.196000e-02;}
	.st63{fill:none;stroke:#000000;stroke-width:1.326000e-02;}
	.st64{fill:none;stroke:#000000;stroke-width:1.456000e-02;}
	.st65{fill:none;stroke:#000000;stroke-width:1.560000e-02;}
	.st66{fill:none;stroke:#000000;stroke-width:1.638000e-02;}
	.st67{fill:none;stroke:#000000;stroke-width:1.768000e-02;}
	.st68{fill:none;stroke:#000000;stroke-width:1.898000e-02;}
	.st69{fill:none;stroke:#000000;stroke-width:2.002000e-02;}
	.st70{fill:none;stroke:#000000;stroke-width:2.366000e-02;}
	.st71{fill:#058E6E;stroke:#000000;stroke-width:1.014000e-02;}
	.st72{fill:#CCCCCC;stroke:#000000;stroke-width:1.352000e-02;}
	.st73{fill:#FFD691;stroke:#000000;stroke-width:1.352000e-02;}
	.st74{fill:#058E6E;stroke:#000000;stroke-width:1.352000e-02;}
	.st75{fill:#AD1519;stroke:#000000;stroke-width:1.352000e-02;}
	.st76{fill:#C8B100;stroke:#000000;stroke-width:1.352000e-02;}
	.st77{fill:#C8B100;stroke:#C8B100;stroke-width:6.760000e-03;}
	.st78{fill:#058E6E;}
	.st79{fill:#C8B100;stroke:#000000;stroke-width:1.196000e-02;}
	.st80{fill:#0039F0;}
	.st81{fill:#DB4446;stroke:#000000;stroke-width:1.014000e-02;}
	.st82{fill:#ED72AA;stroke:#000000;stroke-width:1.014000e-02;}
	.st83{stroke:#000000;stroke-width:6.760000e-03;}
	.st84{stroke:#000000;stroke-width:1.300000e-03;}
	.st85{fill:#AD1519;stroke:#000000;stroke-width:1.586000e-02;}
	.st86{fill:#005BBF;stroke:#000000;stroke-width:1.586000e-02;}
	.st87{fill:#C8B100;stroke:#000000;stroke-width:8.840000e-03;stroke-linejoin:round;}
	.st88{fill:#C8B100;stroke:#000000;stroke-width:8.840000e-03;}
</style>
<g id="Groupe_3680" transform="translate(-274.894 -252.171)" class="st0">
	<rect id="Rectangle_1837" x="274.9" y="252.2" class="st1" width="7.3" height="13"/>
	<rect id="Rectangle_1838" x="282.2" y="252.2" class="st2" width="8.6" height="13"/>
	<rect id="Rectangle_1839" x="289.6" y="252.2" class="st3" width="7.3" height="13"/>
</g>
<g class="st0">
	<rect id="black_stripe" class="st4" width="22" height="13"/>
	<rect id="red_stripe" y="4.3" class="st5" width="22" height="8.7"/>
	<rect id="gold_stripe" y="8.7" class="st6" width="22" height="4.3"/>
</g>
<g class="st0">
	<rect x="1.3" class="st7" width="20.7" height="13"/>
	<rect class="st8" width="9.1" height="13"/>
	<g class="st4">
		<path class="st9" d="M11.7,8.5c-1,0-5.5-2.8-5.5-3.3l0.2-0.4c0.4,0.6,5,3.4,5.5,3.3L11.7,8.5"/>
		<path class="st9" d="M6.3,4.8C6.2,5,7.5,5.8,9,6.7c1.5,0.9,2.8,1.5,2.9,1.4c0,0,0-0.1,0-0.1c0,0-0.1,0-0.1,0
			c-0.4-0.1-1.5-0.6-2.8-1.4C7.7,5.8,6.6,5.1,6.3,4.8C6.4,4.8,6.4,4.7,6.3,4.8L6.3,4.8L6.3,4.8L6.3,4.8L6.3,4.8L6.3,4.8z M11.7,8.5
			c0,0,0,0-0.1,0c-0.4,0-1.5-0.6-2.8-1.4C7.2,6.3,6,5.4,6.1,5.2l0-0.1l0,0C6,5.5,8.7,7,8.8,7.1C10.3,8.1,11.6,8.6,11.7,8.5L11.7,8.5
			L11.7,8.5L11.7,8.5z"/>
		<path class="st9" d="M9.1,5.5c1,0,2.2-0.1,2.9-0.4l-0.2-0.2c-0.4,0.2-1.6,0.4-2.8,0.4c-1.3,0-2.3-0.1-2.7-0.4L6.2,5.1
			C7.1,5.4,8,5.5,9.1,5.5"/>
		<path class="st9" d="M12.1,5.1c0,0-0.5,0.2-1.1,0.3c-0.5,0.1-1,0.1-1.8,0.1c-0.7,0-1.3,0-1.7-0.1C6.7,5.3,6.3,5.2,6.2,5.1
			c0,0,0,0,0-0.1C6.6,5.2,7,5.3,7.4,5.4c0.4,0.1,1,0.1,1.7,0.1c0.7,0,1.3-0.1,1.8-0.1C11.6,5.2,12,5.1,12.1,5.1L12.1,5.1L12.1,5.1
			L12.1,5.1z M11.9,4.8c-0.1,0.1-0.4,0.2-1.1,0.3c-0.4,0.1-1,0.1-1.7,0.1c-0.7,0-1.2,0-1.6-0.1c-0.7-0.1-1-0.2-1.1-0.3
			c0,0,0,0,0-0.1c0.1,0,0.4,0.2,1.1,0.3c0.4,0.1,1,0.1,1.6,0.1c0.7,0,1.3-0.1,1.7-0.1C11.5,5,11.8,4.8,11.9,4.8L11.9,4.8L11.9,4.8
			L11.9,4.8z"/>
		<path class="st9" d="M5.9,6.7C6.5,7,7.8,7.2,9.1,7.2c1.2,0,2.7-0.2,3.2-0.5l0-0.3c-0.2,0.3-1.8,0.5-3.2,0.5
			c-1.4,0-2.8-0.2-3.2-0.5L5.9,6.7"/>
		<path class="st9" d="M12.4,6.6L12.4,6.6c-0.1,0.2-0.6,0.3-1.3,0.4c-0.5,0.1-1.2,0.1-2,0.1c-0.8,0-1.4-0.1-1.9-0.1
			C6.4,7,6,6.8,5.9,6.7l0-0.1C6.1,6.8,6.9,7,7.2,7c0.5,0.1,1.1,0.1,1.9,0.1c0.8,0,1.5-0.1,2-0.1C11.6,6.9,12.2,6.8,12.4,6.6
			L12.4,6.6L12.4,6.6z M12.4,6.4L12.4,6.4c-0.1,0.2-0.6,0.3-1.3,0.4c-0.5,0.1-1.2,0.1-2,0.1c-0.8,0-1.4-0.1-1.9-0.1
			C6.4,6.7,6,6.5,5.9,6.4l0-0.1c0.3,0.2,1.1,0.3,1.4,0.4c0.5,0.1,1.1,0.1,1.9,0.1c0.8,0,1.5-0.1,2-0.1C11.6,6.7,12.2,6.5,12.4,6.4
			L12.4,6.4L12.4,6.4z"/>
		<path class="st9" d="M9.1,8.5C7.7,8.5,6.5,8.1,6.3,8l0.2,0.3c0.4,0.2,1.6,0.5,2.7,0.4c1.1,0,2-0.1,2.6-0.4L11.9,8
			C11.5,8.2,10,8.5,9.1,8.5"/>
		<path class="st10" d="M11.8,8.2c0,0-0.1,0.1-0.1,0.1c-0.3,0.1-0.8,0.2-1,0.3c-0.4,0.1-1.1,0.1-1.6,0.1c-1.2,0-2.2-0.3-2.7-0.5
			l0-0.1l0,0l0.1,0c0.8,0.3,1.8,0.4,2.7,0.4c0.6,0,1.1-0.1,1.6-0.1C11.4,8.4,11.7,8.3,11.8,8.2L11.8,8.2L11.8,8.2L11.8,8.2z M12,8
			C12,8,12,8,12,8c0,0,0,0.1-0.1,0.1c-0.2,0.1-0.6,0.2-1.3,0.3C10.2,8.4,10,8.5,9.1,8.5c-1.6,0-2.6-0.4-2.9-0.4l0-0.1
			c0.9,0.2,1.9,0.4,2.9,0.4c0.8,0,1.1-0.1,1.5-0.1C11.4,8.2,11.8,8,12,8C11.9,8,11.9,8,12,8L12,8L12,8L12,8z"/>
		<path class="st9" d="M12,6.4c0,0.9-0.5,1.7-0.8,2.1C10.6,9,9.9,9.4,9.1,9.4c-0.9,0-1.8-0.6-2-0.8C6.6,8,6.2,7.4,6.2,6.5
			c0.1-1,0.4-1.7,1-2.2s1.3-0.7,2-0.7c0.7,0,1.6,0.4,2.2,1.1C11.7,5.2,11.9,5.7,12,6.4L12,6.4z M9.1,3.3c1.8,0,3.2,1.4,3.2,3.2
			c0,1.8-1.5,3.2-3.2,3.2S5.9,8.3,5.9,6.5S7.3,3.3,9.1,3.3"/>
		<path class="st9" d="M9.1,3.3c1.8,0,3.2,1.4,3.2,3.2c0,1.8-1.4,3.2-3.2,3.2c-1.8,0-3.2-1.4-3.2-3.2S7.3,3.3,9.1,3.3L9.1,3.3z
			 M6,6.5c0,1.7,1.4,3.1,3.1,3.1c1.7,0,3.1-1.4,3.1-3.1c0-1.7-1.4-3.1-3.1-3.1S6,4.8,6,6.5L6,6.5z"/>
		<path class="st9" d="M9.1,3.6c1.6,0,2.9,1.3,2.9,2.9c0,1.6-1.3,2.9-2.9,2.9S6.2,8.1,6.2,6.5C6.2,4.9,7.5,3.6,9.1,3.6L9.1,3.6z
			 M6.2,6.5c0,1.6,1.3,2.9,2.9,2.9S12,8.1,12,6.5c0-1.6-1.3-2.9-2.9-2.9C7.5,3.6,6.2,4.9,6.2,6.5L6.2,6.5z"/>
		<path class="st9" d="M9.2,3.3H9l0,6.5h0.3L9.2,3.3z"/>
		<path class="st9" d="M9.2,3.2L9.2,3.2l0.1,6.5H9.2L9.2,3.2L9.2,3.2z M8.9,3.2L8.9,3.2L9,9.8H8.9L8.9,3.2L8.9,3.2z"/>
		<path class="st9" d="M12.3,6.6V6.4l-0.2-0.2L11,5.9L9.4,5.8L7.5,5.8L6.2,6.2L5.9,6.4v0.2l0.7-0.3L8.2,6h1.6L11,6.2l0.8,0.2
			L12.3,6.6z"/>
		<path class="st9" d="M9.1,6c0.8,0,1.5,0.1,2.1,0.2c0.6,0.1,1,0.3,1.2,0.4l0,0.1c-0.2-0.2-0.7-0.4-1.2-0.5C10.6,6.1,9.9,6.1,9.1,6
			C8.3,6.1,7.6,6.2,7,6.3C6.5,6.4,5.9,6.5,5.9,6.7V6.6c0-0.1,0.5-0.3,1.1-0.4C7.6,6.1,8.3,6,9.1,6L9.1,6z M9.1,5.7
			c0.8,0,1.5,0.1,2.1,0.2c0.6,0.1,1,0.3,1.2,0.4l0,0.1c-0.2-0.2-0.7-0.4-1.2-0.5C10.6,5.9,9.9,5.8,9.1,5.7C8.3,5.8,7.6,5.9,7,6
			C6.6,6.1,5.9,6.3,5.9,6.4V6.4C5.9,6.2,6.4,6,7,5.9C7.6,5.8,8.3,5.7,9.1,5.7L9.1,5.7z"/>
		<path class="st9" d="M9.1,4.3c1.2,0,2.2,0.2,2.7,0.4L12,5c-0.4-0.2-1.5-0.5-2.9-0.4C8,4.6,6.8,4.7,6.2,5l0.2-0.3
			C6.9,4.4,8.1,4.3,9.1,4.3"/>
		<path class="st9" d="M9.1,4.6c0.7,0,1.3,0,1.9,0.1c0.5,0.1,1,0.2,1,0.3l0.1,0.1C11.9,5,11.5,4.9,11,4.8C10.5,4.7,9.8,4.6,9.1,4.6
			C8.3,4.6,7.7,4.7,7.2,4.8C6.7,4.9,6.3,5,6.2,5.1L6.3,5c0.2-0.1,0.5-0.2,0.9-0.3C7.7,4.6,8.4,4.6,9.1,4.6L9.1,4.6L9.1,4.6z
			 M9.1,4.3c0.7,0,1.3,0,1.8,0.1c0.4,0.1,0.8,0.2,0.9,0.3l0.1,0.1c-0.1-0.1-0.6-0.3-1-0.4C10.4,4.4,9.8,4.4,9.1,4.3
			C8.4,4.4,7.8,4.4,7.3,4.5C6.8,4.6,6.5,4.7,6.4,4.8l0.1-0.1c0.2-0.1,0.5-0.2,0.8-0.2C7.8,4.3,8.4,4.3,9.1,4.3L9.1,4.3z"/>
		<path class="st9" d="M10.7,7.8c-0.6-0.1-1.2-0.1-1.6-0.1c-2,0-2.6,0.4-2.7,0.5L6.2,8c0.5-0.4,1.6-0.6,2.9-0.6
			c0.7,0,1.2,0.1,1.7,0.1L10.7,7.8"/>
		<path class="st10" d="M9.1,7.7c0.6,0,1.1,0,1.6,0.1l0,0.1C10.2,7.8,9.7,7.8,9.1,7.7C8.4,7.8,7.6,7.8,7,8C6.8,8.1,6.4,8.2,6.4,8.3
			l0-0.1C6.4,8.2,6.6,8,7,7.9C7.7,7.7,8.4,7.7,9.1,7.7L9.1,7.7L9.1,7.7z M9.1,7.4c0.6,0,1.2,0,1.7,0.2l0,0.1
			C10.3,7.5,9.8,7.5,9.1,7.4C8.4,7.5,7.6,7.5,6.9,7.7C6.7,7.8,6.3,8,6.3,8.1l0-0.1c0-0.1,0.4-0.2,0.7-0.3C7.6,7.5,8.4,7.4,9.1,7.4
			L9.1,7.4z"/>
		<path class="st9" d="M12,8l-0.2,0.4L11,7.8L9.2,6.6l-2-1.1l-1-0.4l0.2-0.4l0.1,0l0.7,0.2l2.1,1.1l1.2,0.8l1,0.7L12,8L12,8z"/>
		<path class="st9" d="M6.1,5.1C6.3,5,7.7,5.6,9.1,6.5c1.4,0.9,2.8,1.8,2.6,2l0,0.1l0,0c0,0,0,0,0-0.1c-0.1-0.2-1-1-2.6-1.9
			C7.5,5.6,6.2,5.1,6.1,5.1L6.1,5.1L6.1,5.1L6.1,5.1z M12,8c0.1-0.2-1.1-1.2-2.7-2.1C7.7,5,6.6,4.5,6.4,4.7l0,0.1c0,0,0,0,0,0
			c0,0,0.1,0,0.1,0c0.4,0,1.4,0.5,2.8,1.3C9.9,6.4,12,7.7,12,8C12,8.1,12,8.1,12,8L12,8L12,8L12,8z"/>
	</g>
	<g class="st4">
		<path class="st11" d="M7.2,6.9c0,0.5,0.2,1,0.6,1.4c0.4,0.4,0.8,0.6,1.4,0.6c0.5,0,1-0.2,1.4-0.6C10.8,7.9,11,7.4,11,6.9h0V4.3
			l-3.9,0L7.2,6.9L7.2,6.9L7.2,6.9z"/>
		<path class="st12" d="M7.3,6.9L7.3,6.9c0,0.5,0.2,1,0.5,1.3c0.3,0.3,0.8,0.5,1.3,0.5c0.5,0,1-0.2,1.3-0.5C10.7,7.8,11,7.4,11,6.9
			h0V4.4l-3.7,0L7.3,6.9 M10.2,5.1l0,1.6l0,0.2h0c0,0,0,0.1,0,0.1c0,0.3-0.1,0.5-0.3,0.6C9.7,7.8,9.4,8,9.1,8C8.8,8,8.5,7.8,8.3,7.6
			C8.1,7.4,8,7.2,8,6.9l0-1.8L10.2,5.1L10.2,5.1L10.2,5.1z"/>
		<g id="castle3">
			<g id="castle">
				<path class="st13" d="M7.5,5c0-0.2,0.1-0.2,0.1-0.2c0,0,0.1,0,0.1,0.2L7.5,5"/>
				<path class="st14" d="M7.4,4.8l0,0.2l0.1,0c0-0.2,0.1-0.2,0.1-0.2c0,0,0.1,0,0.1,0.2h0.1l0-0.2L7.4,4.8L7.4,4.8L7.4,4.8z"/>
				<path class="st14" d="M7.4,5h0.6c0,0,0,0,0,0c0,0,0,0,0,0L7.4,5C7.3,5.1,7.3,5,7.4,5C7.3,5,7.3,5,7.4,5z"/>
				<path class="st14" d="M7.6,5c0-0.1,0.1-0.1,0.1-0.1c0,0,0.1,0,0.1,0.1H7.6"/>
				<path class="st14" d="M7.4,4.7h0.5c0,0,0,0,0,0c0,0,0,0,0,0L7.4,4.7C7.4,4.8,7.3,4.7,7.4,4.7C7.3,4.7,7.4,4.7,7.4,4.7z"/>
				<path class="st14" d="M7.4,4.8h0.5c0,0,0,0,0,0c0,0,0,0,0,0L7.4,4.8C7.4,4.8,7.4,4.8,7.4,4.8C7.4,4.8,7.4,4.8,7.4,4.8z"/>
				<path class="st14" d="M7.5,4.4L7.5,4.4L7.5,4.4L7.5,4.4L7.5,4.4l0.1,0v0h0v0h0l0,0.1c0,0,0,0,0,0L7.5,4.4
					C7.5,4.5,7.5,4.5,7.5,4.4L7.5,4.4L7.5,4.4L7.5,4.4z"/>
				<path class="st14" d="M7.7,4.5l0,0.2l-0.1,0l0-0.2L7.7,4.5"/>
				<path id="cp1" class="st14" d="M7.5,4.6l0,0.1l-0.1,0l0-0.1L7.5,4.6L7.5,4.6L7.5,4.6z"/>
				<g>
					<path id="cp1_00000176740905234788017650000017197079011687559836_" class="st14" d="M7.9,4.6l0,0.1l-0.1,0l0-0.1L7.9,4.6
						L7.9,4.6L7.9,4.6z"/>
				</g>
				<path id="cp2" class="st14" d="M7.4,4.5L7.4,4.5L7.4,4.5L7.4,4.5L7.4,4.5l0.1,0v0h0v0l0,0l0,0.1c0,0,0,0,0,0L7.4,4.5
					C7.4,4.6,7.4,4.6,7.4,4.5L7.4,4.5L7.4,4.5L7.4,4.5z"/>
				<g>
					<path id="cp2_00000114044518755208575200000011937832518078328969_" class="st14" d="M7.7,4.5L7.7,4.5L7.7,4.5L7.7,4.5L7.7,4.5
						l0.1,0v0h0v0l0,0l0,0.1c0,0,0,0,0,0L7.7,4.5C7.7,4.6,7.7,4.6,7.7,4.5L7.7,4.5L7.7,4.5L7.7,4.5z"/>
				</g>
				<path d="M7.6,4.6C7.6,4.5,7.6,4.5,7.6,4.6L7.6,4.6L7.6,4.6L7.6,4.6"/>
				<path id="cp3" d="M7.4,4.6C7.4,4.6,7.5,4.6,7.4,4.6L7.4,4.6L7.4,4.6L7.4,4.6"/>
				<g>
					<path id="cp3_00000060712773917486981830000000215360206828696230_" d="M7.8,4.6C7.8,4.6,7.8,4.6,7.8,4.6L7.8,4.6L7.8,4.6
						L7.8,4.6"/>
				</g>
			</g>
			<g>
				<g id="castle_00000000189248044381153270000002157814410713848761_">
					<path class="st13" d="M7.5,6.5c0-0.2,0.1-0.2,0.1-0.2c0,0,0.1,0,0.1,0.2L7.5,6.5"/>
					<path class="st14" d="M7.4,6.3l0,0.2l0.1,0c0-0.2,0.1-0.2,0.1-0.2c0,0,0.1,0,0.1,0.2h0.1l0-0.2L7.4,6.3L7.4,6.3L7.4,6.3z"/>
					<path class="st14" d="M7.4,6.5h0.6c0,0,0,0,0,0c0,0,0,0,0,0L7.4,6.5C7.3,6.6,7.3,6.6,7.4,6.5C7.3,6.5,7.3,6.5,7.4,6.5z"/>
					<path class="st14" d="M7.6,6.5c0-0.1,0.1-0.1,0.1-0.1c0,0,0.1,0,0.1,0.1H7.6"/>
					<path class="st14" d="M7.4,6.2h0.5c0,0,0,0,0,0c0,0,0,0,0,0L7.4,6.2C7.4,6.3,7.3,6.3,7.4,6.2C7.3,6.2,7.4,6.2,7.4,6.2z"/>
					<path class="st14" d="M7.4,6.3h0.5c0,0,0,0,0,0c0,0,0,0,0,0L7.4,6.3C7.4,6.3,7.4,6.3,7.4,6.3C7.4,6.3,7.4,6.3,7.4,6.3z"/>
					<path class="st14" d="M7.5,5.9L7.5,5.9L7.5,5.9L7.5,5.9L7.5,5.9l0.1,0v0h0v0h0l0,0.1c0,0,0,0,0,0L7.5,5.9C7.5,6,7.5,6,7.5,5.9
						L7.5,5.9L7.5,5.9L7.5,5.9z"/>
					<path class="st14" d="M7.7,6l0,0.2l-0.1,0l0-0.2L7.7,6"/>
					<path id="cp1_00000092457795826478499190000015816957975980856216_" class="st14" d="M7.5,6.1l0,0.1l-0.1,0l0-0.1L7.5,6.1
						L7.5,6.1L7.5,6.1z"/>
					<g>
						<path id="cp1_00000085248381147249560420000001161749157978101122_" class="st14" d="M7.9,6.1l0,0.1l-0.1,0l0-0.1L7.9,6.1
							L7.9,6.1L7.9,6.1z"/>
					</g>
					<path id="cp2_00000114785839527196184740000013944162069770419900_" class="st14" d="M7.4,6L7.4,6L7.4,6L7.4,6L7.4,6l0.1,0v0h0
						v0l0,0l0,0.1c0,0,0,0,0,0L7.4,6C7.4,6.1,7.4,6.1,7.4,6L7.4,6L7.4,6L7.4,6z"/>
					<g>
						<path id="cp2_00000168832624268916804920000004319545234594051227_" class="st14" d="M7.7,6L7.7,6L7.7,6L7.7,6L7.7,6l0.1,0v0
							h0v0l0,0l0,0.1c0,0,0,0,0,0L7.7,6C7.7,6.1,7.7,6.1,7.7,6L7.7,6L7.7,6L7.7,6z"/>
					</g>
					<path d="M7.6,6.1C7.6,6.1,7.6,6.1,7.6,6.1L7.6,6.1L7.6,6.1L7.6,6.1"/>
					<path id="cp3_00000108274661617370218570000010046566145935789701_" d="M7.4,6.1C7.4,6.1,7.5,6.1,7.4,6.1L7.4,6.1L7.4,6.1
						L7.4,6.1"/>
					<g>
						<path id="cp3_00000054242921996968963800000015023153200882291844_" d="M7.8,6.1C7.8,6.1,7.8,6.1,7.8,6.1L7.8,6.1L7.8,6.1
							L7.8,6.1"/>
					</g>
				</g>
			</g>
			<g transform="matrix(0.70460892,-0.70959585,0.70959585,0.70460892,-35.341459,275.10898)">
				<g id="castle_00000078014100677292727160000007553143220242049193_">
					<path class="st13" d="M8.1,8.1C8,8,8,7.8,8,7.8c0,0,0.1-0.1,0.3,0.1L8.1,8.1"/>
					<path class="st14" d="M7.8,8L8,8.2l0.1-0.1C8,8,8,7.8,8,7.8c0,0,0.1-0.1,0.2,0l0.1-0.1L8.2,7.7L7.8,8L7.8,8L7.8,8z"/>
					<path class="st14" d="M8,8.2l0.4-0.4c0,0,0,0,0,0c0,0,0,0,0,0L8,8.2C8,8.2,8,8.2,8,8.2C8,8.2,8,8.2,8,8.2z"/>
					<path class="st14" d="M8.1,8C8,8,8.1,7.9,8.1,7.9c0,0,0.1,0,0.2,0L8.1,8"/>
					<path class="st14" d="M7.8,8l0.4-0.4c0,0,0,0,0,0c0,0,0,0,0,0L7.8,8C7.8,8,7.8,8,7.8,8C7.8,8,7.8,8,7.8,8z"/>
					<path class="st14" d="M7.8,8l0.4-0.4c0,0,0,0,0,0c0,0,0,0,0,0L7.8,8C7.8,8,7.8,8,7.8,8C7.8,8,7.8,8,7.8,8z"/>
					<path class="st14" d="M7.7,7.6L7.7,7.6L7.7,7.6L7.7,7.6L7.7,7.6L7.7,7.6L7.7,7.6l0.1-0.1L7.7,7.6l0.1-0.1l0,0c0,0,0,0,0,0
						L7.7,7.6C7.8,7.7,7.7,7.7,7.7,7.6L7.7,7.6L7.7,7.6L7.7,7.6z"/>
					<path class="st14" d="M7.9,7.6L8,7.7L7.9,7.8L7.9,7.6L7.9,7.6"/>
					<path id="cp1_00000063615283330622834250000007831941362649894846_" class="st14" d="M7.8,7.8L7.8,7.8l0,0.2L7.8,7.8L7.8,7.8
						L7.8,7.8L7.8,7.8z"/>
					<g>
						<path id="cp1_00000183971686452791584720000011956200430072109481_" class="st14" d="M8,7.5L8,7.5l0,0.2L8,7.5L8,7.5L8,7.5
							L8,7.5z"/>
					</g>
					<path id="cp2_00000183939108942113906420000018101153739524274851_" class="st14" d="M7.6,7.8L7.6,7.8L7.6,7.8L7.6,7.8L7.6,7.8
						L7.6,7.8L7.6,7.8l0.1-0.1L7.6,7.8l0.1-0.1l0,0c0,0,0,0,0,0L7.6,7.8C7.7,7.9,7.7,7.9,7.6,7.8L7.6,7.8L7.6,7.8L7.6,7.8z"/>
					<g>
						<path id="cp2_00000069393349160917810580000016455992473139822995_" class="st14" d="M7.9,7.6L7.9,7.6L7.9,7.6L7.9,7.6
							L7.9,7.6L7.9,7.6L7.9,7.6L8,7.5L7.9,7.6L8,7.5l0,0c0,0,0,0,0,0L7.9,7.6C7.9,7.6,7.9,7.6,7.9,7.6L7.9,7.6L7.9,7.6L7.9,7.6z"/>
					</g>
					<path d="M7.8,7.7C7.8,7.7,7.9,7.7,7.8,7.7L7.8,7.7L7.8,7.7L7.8,7.7"/>
					<path id="cp3_00000002377140805808966020000016015572190297628546_" d="M7.8,7.9C7.8,7.8,7.8,7.8,7.8,7.9L7.8,7.9L7.8,7.9
						L7.8,7.9"/>
					<g>
						<path id="cp3_00000039812102577429107820000005318911217267796626_" d="M8,7.6C8,7.6,8,7.6,8,7.6L8,7.6L8,7.6L8,7.6"/>
					</g>
				</g>
			</g>
		</g>
		<g>
			<g id="castle_00000130618080094951941830000009867305841098821290_">
				<path class="st13" d="M9,5c0-0.2,0.1-0.2,0.1-0.2c0,0,0.1,0,0.1,0.2L9,5"/>
				<path class="st14" d="M8.9,4.8l0,0.2L9,5c0-0.2,0.1-0.2,0.1-0.2c0,0,0.1,0,0.1,0.2h0.1l0-0.2L8.9,4.8L8.9,4.8L8.9,4.8z"/>
				<path class="st14" d="M8.8,5h0.6c0,0,0,0,0,0c0,0,0,0,0,0L8.8,5C8.8,5.1,8.8,5,8.8,5C8.8,5,8.8,5,8.8,5z"/>
				<path class="st14" d="M9,5c0-0.1,0.1-0.1,0.1-0.1c0,0,0.1,0,0.1,0.1H9"/>
				<path class="st14" d="M8.9,4.7h0.5c0,0,0,0,0,0c0,0,0,0,0,0L8.9,4.7C8.8,4.8,8.8,4.7,8.9,4.7C8.8,4.7,8.8,4.7,8.9,4.7z"/>
				<path class="st14" d="M8.9,4.8h0.5c0,0,0,0,0,0c0,0,0,0,0,0L8.9,4.8C8.9,4.8,8.8,4.8,8.9,4.8C8.8,4.8,8.9,4.8,8.9,4.8z"/>
				<path class="st14" d="M9,4.4L9,4.4L9,4.4L9,4.4L9,4.4l0.1,0v0h0v0h0l0,0.1c0,0,0,0,0,0L9,4.4C9,4.5,9,4.5,9,4.4L9,4.4L9,4.4
					L9,4.4z"/>
				<path class="st14" d="M9.2,4.5l0,0.2L9,4.7l0-0.2L9.2,4.5"/>
				<path id="cp1_00000030466346496916798070000017925450137488769948_" class="st14" d="M9,4.6l0,0.1l-0.1,0l0-0.1L9,4.6L9,4.6
					L9,4.6z"/>
				<g>
					<path id="cp1_00000126318084416460336050000000534480564836597658_" class="st14" d="M9.3,4.6l0,0.1l-0.1,0l0-0.1L9.3,4.6
						L9.3,4.6L9.3,4.6z"/>
				</g>
				<path id="cp2_00000034811364172055851860000000158784358545049011_" class="st14" d="M8.9,4.5L8.9,4.5L8.9,4.5L8.9,4.5L8.9,4.5
					l0.1,0v0h0v0l0,0l0,0.1c0,0,0,0,0,0L8.9,4.5C8.9,4.6,8.9,4.6,8.9,4.5L8.9,4.5L8.9,4.5L8.9,4.5z"/>
				<g>
					<path id="cp2_00000115482702588721555360000018040870404157482139_" class="st14" d="M9.2,4.5L9.2,4.5L9.2,4.5L9.2,4.5L9.2,4.5
						l0.1,0v0h0v0l0,0l0,0.1c0,0,0,0,0,0L9.2,4.5C9.2,4.6,9.2,4.6,9.2,4.5L9.2,4.5L9.2,4.5L9.2,4.5z"/>
				</g>
				<path d="M9.1,4.6C9.1,4.5,9.1,4.5,9.1,4.6L9.1,4.6L9.1,4.6L9.1,4.6"/>
				<path id="cp3_00000142877928385528426870000009313633550765004474_" d="M8.9,4.6C8.9,4.6,9,4.6,8.9,4.6L8.9,4.6L8.9,4.6L8.9,4.6
					"/>
				<g>
					<path id="cp3_00000129902171889766325830000000199550352447818391_" d="M9.3,4.6C9.3,4.6,9.3,4.6,9.3,4.6L9.3,4.6L9.3,4.6
						L9.3,4.6"/>
				</g>
			</g>
		</g>
		<g transform="matrix(-1,0,0,1,479.79195,0)">
			<g id="castle3_00000152243835309065522450000002767885751639184022_">
				<g id="castle_00000150091436414217226630000013273452196567445923_">
					<path class="st13" d="M10.7,5c0-0.2-0.1-0.2-0.1-0.2c0,0-0.1,0-0.1,0.2L10.7,5"/>
					<path class="st14" d="M10.8,4.8l0,0.2l-0.1,0c0-0.2-0.1-0.2-0.1-0.2c0,0-0.1,0-0.1,0.2h-0.1l0-0.2L10.8,4.8L10.8,4.8L10.8,4.8z
						"/>
					<path class="st14" d="M10.9,5h-0.6c0,0,0,0,0,0c0,0,0,0,0,0L10.9,5C10.9,5.1,10.9,5,10.9,5C10.9,5,10.9,5,10.9,5z"/>
					<path class="st14" d="M10.7,5c0-0.1-0.1-0.1-0.1-0.1c0,0-0.1,0-0.1,0.1H10.7"/>
					<path class="st14" d="M10.9,4.7h-0.5c0,0,0,0,0,0c0,0,0,0,0,0L10.9,4.7C10.9,4.8,10.9,4.7,10.9,4.7C10.9,4.7,10.9,4.7,10.9,4.7
						z"/>
					<path class="st14" d="M10.8,4.8h-0.5c0,0,0,0,0,0c0,0,0,0,0,0L10.8,4.8C10.9,4.8,10.9,4.8,10.8,4.8C10.9,4.8,10.9,4.8,10.8,4.8
						z"/>
					<path class="st14" d="M10.7,4.4L10.7,4.4L10.7,4.4L10.7,4.4L10.7,4.4l-0.1,0v0h0v0h0l0,0.1c0,0,0,0,0,0L10.7,4.4
						C10.7,4.5,10.7,4.5,10.7,4.4L10.7,4.4L10.7,4.4L10.7,4.4z"/>
					<path class="st14" d="M10.5,4.5l0,0.2l0.1,0l0-0.2L10.5,4.5"/>
					<path id="cp1_00000010996258784615420680000015349092476362635405_" class="st14" d="M10.7,4.6l0,0.1l0.1,0l0-0.1L10.7,4.6
						L10.7,4.6L10.7,4.6z"/>
					<g>
						<path id="cp1_00000111162408111981952540000014599460904261132452_" class="st14" d="M10.4,4.6l0,0.1l0.1,0l0-0.1L10.4,4.6
							L10.4,4.6L10.4,4.6z"/>
					</g>
					<path id="cp2_00000116939809850387936000000001593704631251137435_" class="st14" d="M10.9,4.5L10.9,4.5L10.9,4.5L10.9,4.5
						L10.9,4.5l-0.1,0v0h0v0l0,0l0,0.1c0,0,0,0,0,0L10.9,4.5C10.8,4.6,10.9,4.6,10.9,4.5L10.9,4.5L10.9,4.5L10.9,4.5z"/>
					<g>
						<path id="cp2_00000062182865339730916010000008248933614533760689_" class="st14" d="M10.5,4.5L10.5,4.5L10.5,4.5L10.5,4.5
							L10.5,4.5l-0.1,0v0h0v0l0,0l0,0.1c0,0,0,0,0,0L10.5,4.5C10.5,4.6,10.5,4.6,10.5,4.5L10.5,4.5L10.5,4.5L10.5,4.5z"/>
					</g>
					<path d="M10.6,4.6C10.6,4.5,10.6,4.5,10.6,4.6L10.6,4.6L10.6,4.6L10.6,4.6"/>
					<path id="cp3_00000032627313428751882370000004141211652057035148_" d="M10.8,4.6C10.8,4.6,10.8,4.6,10.8,4.6L10.8,4.6
						L10.8,4.6L10.8,4.6"/>
					<g>
						<path id="cp3_00000114781475822620470690000014804627848101710507_" d="M10.4,4.6C10.4,4.6,10.4,4.6,10.4,4.6L10.4,4.6
							L10.4,4.6L10.4,4.6"/>
					</g>
				</g>
				<g>
					<g id="castle_00000035512088533043088760000017184059859889311399_">
						<path class="st13" d="M10.7,6.5c0-0.2-0.1-0.2-0.1-0.2c0,0-0.1,0-0.1,0.2L10.7,6.5"/>
						<path class="st14" d="M10.8,6.3l0,0.2l-0.1,0c0-0.2-0.1-0.2-0.1-0.2c0,0-0.1,0-0.1,0.2h-0.1l0-0.2L10.8,6.3L10.8,6.3L10.8,6.3
							z"/>
						<path class="st14" d="M10.9,6.5h-0.6c0,0,0,0,0,0c0,0,0,0,0,0L10.9,6.5C10.9,6.6,10.9,6.6,10.9,6.5
							C10.9,6.5,10.9,6.5,10.9,6.5z"/>
						<path class="st14" d="M10.7,6.5c0-0.1-0.1-0.1-0.1-0.1c0,0-0.1,0-0.1,0.1H10.7"/>
						<path class="st14" d="M10.9,6.2h-0.5c0,0,0,0,0,0c0,0,0,0,0,0L10.9,6.2C10.9,6.3,10.9,6.3,10.9,6.2
							C10.9,6.2,10.9,6.2,10.9,6.2z"/>
						<path class="st14" d="M10.8,6.3h-0.5c0,0,0,0,0,0c0,0,0,0,0,0L10.8,6.3C10.9,6.3,10.9,6.3,10.8,6.3
							C10.9,6.3,10.9,6.3,10.8,6.3z"/>
						<path class="st14" d="M10.7,5.9L10.7,5.9L10.7,5.9L10.7,5.9L10.7,5.9l-0.1,0v0h0v0h0l0,0.1c0,0,0,0,0,0L10.7,5.9
							C10.7,6,10.7,6,10.7,5.9L10.7,5.9L10.7,5.9L10.7,5.9z"/>
						<path class="st14" d="M10.5,6l0,0.2l0.1,0l0-0.2L10.5,6"/>
						<path id="cp1_00000101075155735954612120000012038752345801052829_" class="st14" d="M10.7,6.1l0,0.1l0.1,0l0-0.1L10.7,6.1
							L10.7,6.1L10.7,6.1z"/>
						<g>
							<path id="cp1_00000090973084441482546170000001053547236289679256_" class="st14" d="M10.4,6.1l0,0.1l0.1,0l0-0.1L10.4,6.1
								L10.4,6.1L10.4,6.1z"/>
						</g>
						<path id="cp2_00000026123725331898343290000002063353036144708514_" class="st14" d="M10.9,6L10.9,6L10.9,6L10.9,6L10.9,6
							l-0.1,0v0h0v0l0,0l0,0.1c0,0,0,0,0,0L10.9,6C10.8,6.1,10.9,6.1,10.9,6L10.9,6L10.9,6L10.9,6z"/>
						<g>
							<path id="cp2_00000096039666770862547520000006441776742527665343_" class="st14" d="M10.5,6L10.5,6L10.5,6L10.5,6L10.5,6
								l-0.1,0v0h0v0l0,0l0,0.1c0,0,0,0,0,0L10.5,6C10.5,6.1,10.5,6.1,10.5,6L10.5,6L10.5,6L10.5,6z"/>
						</g>
						<path d="M10.6,6.1C10.6,6.1,10.6,6.1,10.6,6.1L10.6,6.1L10.6,6.1L10.6,6.1"/>
						<path id="cp3_00000088838482151755035140000002950221150354685585_" d="M10.8,6.1C10.8,6.1,10.8,6.1,10.8,6.1L10.8,6.1
							L10.8,6.1L10.8,6.1"/>
						<g>
							<path id="cp3_00000080921640920078744980000008242483642222584483_" d="M10.4,6.1C10.4,6.1,10.4,6.1,10.4,6.1L10.4,6.1
								L10.4,6.1L10.4,6.1"/>
						</g>
					</g>
				</g>
				<g transform="matrix(0.70460892,-0.70959585,0.70959585,0.70460892,-35.341459,275.10898)">
					<g id="castle_00000074405208153774830970000001744867622648564927_">
						<path class="st13" d="M10.1,8.1c0.1-0.1,0.1-0.2,0.1-0.3c0,0-0.1-0.1-0.3,0.1L10.1,8.1"/>
						<path class="st14" d="M10.4,8l-0.1,0.2l-0.1-0.1c0.1-0.1,0.1-0.2,0-0.2c0,0-0.1-0.1-0.2,0L9.9,7.8L10,7.7L10.4,8L10.4,8
							L10.4,8z"/>
						<path class="st14" d="M10.2,8.2L9.9,7.8c0,0,0,0,0,0c0,0,0,0,0,0L10.2,8.2C10.2,8.2,10.2,8.2,10.2,8.2
							C10.3,8.2,10.3,8.2,10.2,8.2z"/>
						<path class="st14" d="M10.1,8c0.1-0.1,0-0.1,0-0.1c0,0-0.1,0-0.2,0L10.1,8"/>
						<path class="st14" d="M10.4,8l-0.4-0.4c0,0,0,0,0,0c0,0,0,0,0,0L10.4,8C10.4,8,10.4,8,10.4,8C10.5,8,10.5,8,10.4,8z"/>
						<path class="st14" d="M10.4,8l-0.4-0.4c0,0,0,0,0,0c0,0,0,0,0,0L10.4,8C10.4,8,10.4,8,10.4,8C10.4,8,10.4,8,10.4,8z"/>
						<path class="st14" d="M10.5,7.6L10.5,7.6L10.5,7.6L10.5,7.6L10.5,7.6L10.5,7.6L10.5,7.6l-0.1-0.1L10.5,7.6l-0.1-0.1l0,0
							c0,0,0,0,0,0L10.5,7.6C10.5,7.7,10.5,7.7,10.5,7.6L10.5,7.6L10.5,7.6L10.5,7.6z"/>
						<path class="st14" d="M10.4,7.6l-0.2,0.1l0.1,0.1L10.4,7.6L10.4,7.6"/>
						<path id="cp1_00000067939054853005556740000001060087715449237690_" class="st14" d="M10.4,7.8L10.4,7.8l0,0.2L10.4,7.8
							L10.4,7.8L10.4,7.8L10.4,7.8z"/>
						<g>
							<path id="cp1_00000172413423580795880320000004914930509871277189_" class="st14" d="M10.2,7.5L10.2,7.5l0,0.2L10.2,7.5
								L10.2,7.5L10.2,7.5L10.2,7.5z"/>
						</g>
						<path id="cp2_00000179619399584327111180000002892566640243303813_" class="st14" d="M10.6,7.8L10.6,7.8L10.6,7.8L10.6,7.8
							L10.6,7.8L10.6,7.8L10.6,7.8l-0.1-0.1L10.6,7.8l-0.1-0.1l0,0c0,0,0,0,0,0L10.6,7.8C10.5,7.9,10.5,7.9,10.6,7.8L10.6,7.8
							L10.6,7.8L10.6,7.8z"/>
						<g>
							<path id="cp2_00000079470616778450471480000018387278166252692104_" class="st14" d="M10.3,7.6L10.3,7.6L10.3,7.6L10.3,7.6
								L10.3,7.6L10.3,7.6L10.3,7.6l-0.1-0.1L10.3,7.6l-0.1-0.1l0,0c0,0,0,0,0,0L10.3,7.6C10.3,7.6,10.3,7.6,10.3,7.6L10.3,7.6
								L10.3,7.6L10.3,7.6z"/>
						</g>
						<path d="M10.4,7.7C10.4,7.7,10.4,7.7,10.4,7.7L10.4,7.7L10.4,7.7L10.4,7.7"/>
						<path id="cp3_00000046301492063865873450000010800654767228750771_" d="M10.4,7.9C10.5,7.8,10.4,7.8,10.4,7.9L10.4,7.9
							L10.4,7.9L10.4,7.9"/>
						<g>
							<path id="cp3_00000007416376154333914460000009382360352725104790_" d="M10.2,7.6C10.2,7.6,10.2,7.6,10.2,7.6L10.2,7.6
								L10.2,7.6L10.2,7.6"/>
						</g>
					</g>
				</g>
			</g>
		</g>
		<g id="quina">
			<path class="st15" d="M8.9,6.6L8.9,6.6c0,0.1,0,0.1,0.1,0.2c0,0,0.1,0.1,0.2,0.1c0.1,0,0.1,0,0.2-0.1c0,0,0.1-0.1,0.1-0.2V6.2
				l-0.5,0L8.9,6.6"/>
			<circle class="st16" cx="9" cy="6.4" r="0"/>
			<circle class="st16" cx="9.3" cy="6.4" r="0"/>
			<circle class="st16" cx="9.1" cy="6.5" r="0"/>
			<circle class="st16" cx="9" cy="6.6" r="0"/>
			<circle class="st16" cx="9.3" cy="6.6" r="0"/>
		</g>
		<g>
			<g id="quina_00000063606868954227838430000004272938084287923590_">
				<path class="st15" d="M8.9,5.7L8.9,5.7c0,0.1,0,0.1,0.1,0.2C9,6,9.1,6,9.1,6c0.1,0,0.1,0,0.2-0.1c0,0,0.1-0.1,0.1-0.2V5.4
					l-0.5,0L8.9,5.7"/>
				<circle class="st16" cx="9" cy="5.5" r="0"/>
				<circle class="st16" cx="9.3" cy="5.5" r="0"/>
				<circle class="st16" cx="9.1" cy="5.6" r="0"/>
				<circle class="st16" cx="9" cy="5.8" r="0"/>
				<circle class="st16" cx="9.3" cy="5.8" r="0"/>
			</g>
		</g>
		<g>
			<g id="quina_00000127753839198109384270000007789382322359357357_">
				<path class="st15" d="M8.2,6.6L8.2,6.6c0,0.1,0,0.1,0.1,0.2c0,0,0.1,0.1,0.2,0.1c0.1,0,0.1,0,0.2-0.1c0,0,0.1-0.1,0.1-0.2V6.2
					l-0.5,0L8.2,6.6"/>
				<circle class="st16" cx="8.3" cy="6.4" r="0"/>
				<circle class="st16" cx="8.6" cy="6.4" r="0"/>
				<circle class="st16" cx="8.4" cy="6.5" r="0"/>
				<circle class="st16" cx="8.3" cy="6.6" r="0"/>
				<circle class="st16" cx="8.6" cy="6.6" r="0"/>
			</g>
		</g>
		<g>
			<g id="quina_00000093865964527097586300000000470399804078070680_">
				<path class="st15" d="M9.5,6.6L9.5,6.6c0,0.1,0,0.1,0.1,0.2c0,0,0.1,0.1,0.2,0.1c0.1,0,0.1,0,0.2-0.1c0,0,0.1-0.1,0.1-0.2V6.2
					l-0.5,0L9.5,6.6"/>
				<circle class="st16" cx="9.7" cy="6.4" r="0"/>
				<circle class="st16" cx="9.9" cy="6.4" r="0"/>
				<circle class="st16" cx="9.8" cy="6.5" r="0"/>
				<circle class="st16" cx="9.7" cy="6.6" r="0"/>
				<circle class="st16" cx="9.9" cy="6.6" r="0"/>
			</g>
		</g>
		<g>
			<g id="quina_00000093141023659149894200000001744696511908580503_">
				<path class="st15" d="M8.9,7.4L8.9,7.4c0,0.1,0,0.1,0.1,0.2c0,0,0.1,0.1,0.2,0.1c0.1,0,0.1,0,0.2-0.1c0,0,0.1-0.1,0.1-0.2V7.1
					l-0.5,0L8.9,7.4"/>
				<circle class="st16" cx="9" cy="7.2" r="0"/>
				<circle class="st16" cx="9.3" cy="7.2" r="0"/>
				<circle class="st16" cx="9.1" cy="7.3" r="0"/>
				<circle class="st16" cx="9" cy="7.5" r="0"/>
				<circle class="st16" cx="9.3" cy="7.5" r="0"/>
			</g>
		</g>
	</g>
</g>
<g>
	<rect class="st17" width="22" height="13"/>
	<rect y="3.2" class="st18" width="22" height="6.5"/>
	<g id="coa">
		<g id="supporters">
			<g id="crown_left">
				<path class="st19" d="M5.6,5.8C5.6,5.8,5.6,5.8,5.6,5.8C5.5,5.8,5.5,5.7,5.6,5.8L5.6,5.8L5.6,5.8C5.5,5.7,5.5,5.7,5.5,5.7
					c0,0,0,0,0,0c0,0,0,0,0,0s0,0,0,0c0,0,0,0,0,0s0,0,0,0c0,0,0,0,0,0c0,0,0,0,0,0c0,0,0,0,0,0c0,0,0,0,0,0c0,0,0,0,0.1,0
					c0,0,0,0,0,0c0,0,0,0,0,0c0,0,0,0,0.1,0s0,0,0.1,0c0,0,0,0,0,0c0,0,0,0,0,0c0,0,0,0,0,0c0,0,0,0,0,0l0,0l0,0c0,0,0,0,0,0
					c0,0-0.1,0-0.2,0C5.7,5.8,5.6,5.8,5.6,5.8L5.6,5.8L5.6,5.8z"/>
				<g>
					<ellipse class="st20" cx="5.8" cy="5.6" rx="0" ry="0.1"/>
					<ellipse class="st20" cx="5.8" cy="5.6" rx="0" ry="0.1"/>
					<ellipse class="st21" cx="5.8" cy="5.5" rx="0" ry="0"/>
					<path class="st22" d="M5.8,5.5L5.8,5.5L5.8,5.5L5.8,5.5L5.8,5.5L5.8,5.5L5.8,5.5L5.8,5.5L5.8,5.5L5.8,5.5L5.8,5.5L5.8,5.5
						L5.8,5.5L5.8,5.5L5.8,5.5L5.8,5.5L5.8,5.5"/>
					<path class="st23" d="M5.8,5.5C5.8,5.5,5.8,5.5,5.8,5.5C5.8,5.6,5.8,5.6,5.8,5.5C5.8,5.6,5.7,5.5,5.8,5.5
						C5.8,5.5,5.8,5.5,5.8,5.5"/>
					<path class="st20" d="M5.8,5.8H5.7l0,0l0,0l0,0c0,0-0.1-0.1-0.1-0.1c0,0,0,0,0,0C5.6,5.6,5.7,5.6,5.8,5.8
						C5.7,5.7,5.7,5.7,5.8,5.8L5.8,5.8C5.8,5.7,5.8,5.7,5.8,5.8C5.9,5.6,6,5.6,6,5.6c0,0,0,0,0,0c0,0,0,0-0.1,0.1l0,0l0,0l0,0H5.8
						L5.8,5.8z"/>
					<path class="st23" d="M5.6,5.6c0,0,0.1,0,0.1,0.1 M6,5.6c0,0-0.1,0-0.1,0.1"/>
				</g>
				<g id="crown_pt1">
					<path class="st20" d="M5.6,5.8C5.6,5.8,5.6,5.8,5.6,5.8c0,0,0.1-0.1,0.2-0.1c0.1,0,0.1,0,0.2,0c0,0,0,0,0,0c0,0,0,0,0,0
						c0,0-0.1,0-0.2,0C5.7,5.8,5.6,5.8,5.6,5.8C5.6,5.8,5.6,5.8,5.6,5.8L5.6,5.8"/>
					<path class="st20" d="M5.8,5.9c0.1,0,0.1,0,0.2,0c0,0,0,0,0,0c0,0,0,0,0,0C5.9,5.8,5.8,5.8,5.8,5.9c-0.1-0.1-0.1-0.1-0.2,0
						c0,0,0,0,0,0c0,0,0,0,0,0C5.6,5.9,5.7,5.9,5.8,5.9z"/>
					<path class="st20" d="M6,5.8L6,5.8C6,5.8,5.9,5.8,6,5.8C5.9,5.8,5.9,5.7,6,5.8c-0.1,0-0.1,0-0.1,0c0,0,0,0,0,0s0,0,0,0
						c0,0,0,0,0,0s0,0,0,0c0,0,0,0,0,0s0,0,0,0c0,0,0,0,0,0s0,0,0,0c0,0,0,0,0,0s0,0,0,0c0,0,0,0,0,0l0,0c0.1,0,0.1,0,0.2,0
						S5.9,5.8,6,5.8L6,5.8L6,5.8L6,5.8z"/>
					<path class="st20" d="M5.8,5.7L5.8,5.7C5.8,5.7,5.8,5.7,5.8,5.7C5.8,5.7,5.8,5.7,5.8,5.7C5.8,5.7,5.8,5.7,5.8,5.7
						C5.8,5.7,5.8,5.7,5.8,5.7C5.8,5.7,5.8,5.7,5.8,5.7C5.8,5.7,5.9,5.8,5.8,5.7c0.1,0,0.1,0,0.1,0c0,0,0,0,0,0l0,0l0,0c0,0,0,0,0,0
						c0,0,0,0,0,0c0,0,0,0,0,0l0,0v0c0,0,0,0,0,0c0,0,0,0,0,0c0,0,0,0,0,0l0,0c0,0,0,0,0,0c0,0,0,0,0,0c0,0,0,0,0,0c0,0,0,0,0,0
						c0,0,0,0,0,0C5.9,5.8,5.9,5.8,5.8,5.7C5.9,5.8,5.8,5.8,5.8,5.7C5.8,5.8,5.8,5.8,5.8,5.7C5.8,5.8,5.8,5.8,5.8,5.7
						C5.8,5.8,5.8,5.8,5.8,5.7C5.7,5.8,5.7,5.8,5.8,5.7C5.7,5.8,5.7,5.8,5.8,5.7c-0.1,0.1-0.1,0.1-0.1,0c0,0,0,0,0,0c0,0,0,0,0,0
						c0,0,0,0,0,0c0,0,0,0,0,0c0,0,0,0,0,0l0,0c0,0,0,0,0,0c0,0,0,0,0,0c0,0,0,0,0,0v0l0,0c0,0,0,0,0,0c0,0,0,0,0,0c0,0,0,0,0,0l0,0
						l0,0c0,0,0,0,0,0C5.7,5.7,5.7,5.8,5.8,5.7C5.7,5.8,5.7,5.7,5.8,5.7C5.7,5.7,5.7,5.7,5.8,5.7C5.7,5.7,5.7,5.7,5.8,5.7
						C5.7,5.7,5.7,5.7,5.8,5.7C5.8,5.7,5.8,5.7,5.8,5.7C5.8,5.7,5.8,5.7,5.8,5.7L5.8,5.7L5.8,5.7L5.8,5.7z"/>
					<path class="st24" d="M5.8,5.8c-0.1,0-0.1,0-0.2,0c0,0,0,0,0,0c0,0,0,0,0,0C5.6,5.8,5.7,5.8,5.8,5.8c0.1,0,0.2,0,0.2,0
						c0,0,0,0,0,0c0,0,0,0,0,0C5.9,5.8,5.9,5.8,5.8,5.8z"/>
					<path class="st20" d="M5.5,5.7C5.5,5.7,5.5,5.7,5.5,5.7C5.5,5.7,5.5,5.7,5.5,5.7C5.5,5.7,5.5,5.7,5.5,5.7
						C5.5,5.7,5.5,5.7,5.5,5.7L5.5,5.7C5.5,5.7,5.5,5.7,5.5,5.7C5.5,5.7,5.5,5.7,5.5,5.7C5.5,5.7,5.5,5.7,5.5,5.7L5.5,5.7z"/>
					<path class="st20" d="M5.6,5.7L5.6,5.7L5.6,5.7L5.6,5.7L5.6,5.7L5.6,5.7L5.6,5.7"/>
					<path class="st20" d="M5.5,5.7C5.5,5.7,5.5,5.7,5.5,5.7C5.5,5.7,5.5,5.8,5.5,5.7C5.5,5.8,5.5,5.8,5.5,5.7
						C5.5,5.7,5.5,5.7,5.5,5.7z"/>
					<path class="st20" d="M5.6,5.7C5.6,5.7,5.6,5.7,5.6,5.7C5.6,5.7,5.6,5.7,5.6,5.7C5.6,5.7,5.6,5.7,5.6,5.7
						C5.6,5.8,5.6,5.7,5.6,5.7z"/>
					<path class="st20" d="M5.6,5.7L5.6,5.7L5.6,5.7L5.6,5.7L5.6,5.7L5.6,5.7L5.6,5.7"/>
					<path class="st20" d="M5.6,5.7L5.6,5.7L5.6,5.7L5.6,5.7L5.6,5.7L5.6,5.7L5.6,5.7"/>
					<path class="st20" d="M5.7,5.7L5.7,5.7L5.7,5.7L5.7,5.7L5.7,5.7L5.7,5.7L5.7,5.7"/>
					<ellipse class="st20" cx="5.6" cy="5.7" rx="0" ry="0"/>
					<path class="st20" d="M5.7,5.7C5.7,5.7,5.7,5.7,5.7,5.7C5.7,5.7,5.7,5.7,5.7,5.7C5.7,5.7,5.7,5.7,5.7,5.7
						C5.7,5.7,5.7,5.7,5.7,5.7z"/>
					<path class="st20" d="M5.7,5.7L5.7,5.7L5.7,5.7L5.7,5.7L5.7,5.7L5.7,5.7L5.7,5.7"/>
					<path class="st20" d="M5.8,5.6L5.8,5.6L5.8,5.6L5.8,5.6L5.8,5.6L5.8,5.6L5.8,5.6"/>
					<path class="st20" d="M5.8,5.7L5.8,5.7L5.8,5.7L5.8,5.7L5.8,5.7L5.8,5.7L5.8,5.7"/>
					<ellipse class="st20" cx="5.8" cy="5.7" rx="0" ry="0"/>
					<path class="st20" d="M5.8,5.7C5.8,5.7,5.8,5.7,5.8,5.7C5.8,5.7,5.8,5.7,5.8,5.7C5.8,5.7,5.8,5.7,5.8,5.7
						C5.8,5.7,5.8,5.7,5.8,5.7z"/>
					<path class="st20" d="M5.9,5.7L5.9,5.7L5.9,5.7L5.9,5.7L5.9,5.7L5.9,5.7L5.9,5.7"/>
					<path class="st20" d="M5.9,5.7L5.9,5.7L5.9,5.7L5.9,5.7L5.9,5.7L5.9,5.7L5.9,5.7"/>
					<path class="st20" d="M6,5.7L6,5.7L6,5.7L6,5.7L6,5.7L6,5.7L6,5.7"/>
					<ellipse class="st20" cx="5.9" cy="5.7" rx="0" ry="0"/>
					<path class="st20" d="M6,5.7C6,5.7,6,5.7,6,5.7C6,5.7,6,5.7,6,5.7C6,5.7,6,5.7,6,5.7C6,5.8,6,5.7,6,5.7z"/>
					<path class="st20" d="M6,5.7C6,5.7,6,5.7,6,5.7C6.1,5.7,6.1,5.7,6,5.7C6.1,5.7,6.1,5.7,6,5.7C6.1,5.7,6,5.7,6,5.7L6,5.7
						C6,5.7,6,5.7,6,5.7C6,5.7,6,5.7,6,5.7C6,5.7,6,5.7,6,5.7L6,5.7z"/>
					<path class="st20" d="M6,5.7L6,5.7L6,5.7L6,5.7L6,5.7L6,5.7L6,5.7"/>
					<path class="st20" d="M6,5.7C6,5.7,6,5.7,6,5.7C6,5.7,6,5.8,6,5.7C6,5.8,6,5.8,6,5.7C6,5.7,6,5.7,6,5.7z"/>
				</g>
				<g id="crown_pt2">
					<path class="st25" d="M5.6,5.8L5.6,5.8L5.6,5.8L5.6,5.8L5.6,5.8"/>
					<path class="st26" d="M5.7,5.8L5.7,5.8C5.6,5.8,5.6,5.8,5.7,5.8C5.6,5.8,5.6,5.8,5.7,5.8L5.7,5.8L5.7,5.8
						C5.7,5.8,5.7,5.8,5.7,5.8C5.7,5.8,5.7,5.8,5.7,5.8L5.7,5.8"/>
					<ellipse class="st27" cx="5.7" cy="5.8" rx="0" ry="0"/>
					<path class="st25" d="M5.8,5.8L5.8,5.8C5.7,5.8,5.7,5.8,5.8,5.8C5.7,5.8,5.7,5.8,5.8,5.8L5.8,5.8C5.8,5.8,5.8,5.8,5.8,5.8
						C5.8,5.8,5.8,5.8,5.8,5.8L5.8,5.8"/>
					<ellipse class="st27" cx="5.8" cy="5.8" rx="0" ry="0"/>
					<path class="st26" d="M5.9,5.8L5.9,5.8C5.9,5.8,5.9,5.8,5.9,5.8C5.9,5.8,5.9,5.8,5.9,5.8L5.9,5.8L5.9,5.8
						C5.9,5.8,5.9,5.8,5.9,5.8C5.9,5.8,5.9,5.8,5.9,5.8L5.9,5.8"/>
					<path class="st25" d="M6,5.8L6,5.8L6,5.8L6,5.8L6,5.8"/>
					<path class="st19" d="M5.8,5.9c-0.1,0-0.1,0-0.2,0C5.7,5.9,5.7,5.8,5.8,5.9c0.1,0,0.1,0,0.2,0C5.9,5.9,5.8,5.9,5.8,5.9z"/>
					<path class="st28" d="M5.8,5.9L5.8,5.9 M5.8,5.9L5.8,5.9 M5.8,5.9L5.8,5.9"/>
					<path class="st29" d="M5.8,5.9L5.8,5.9"/>
					<path class="st30" d="M5.8,5.9L5.8,5.9"/>
					<path class="st31" d="M5.8,5.9L5.8,5.9"/>
					<path class="st31" d="M5.7,5.9L5.7,5.9"/>
					<path class="st32" d="M5.7,5.9L5.7,5.9"/>
					<path class="st33" d="M5.7,5.9L5.7,5.9 M5.7,5.9L5.7,5.9"/>
					<path class="st34" d="M5.7,5.9L5.7,5.9 M5.7,5.9L5.7,5.9"/>
					<path class="st35" d="M5.7,5.9L5.7,5.9 M5.7,5.9L5.7,5.9 M5.7,5.9L5.7,5.9"/>
					<path class="st36" d="M5.7,5.9L5.7,5.9"/>
					<path class="st37" d="M5.7,5.9L5.7,5.9"/>
					<path class="st38" d="M5.7,5.9L5.7,5.9"/>
					<path class="st39" d="M5.7,5.9L5.7,5.9 M5.7,5.9L5.7,5.9"/>
					<path class="st39" d="M5.7,5.9L5.7,5.9"/>
					<path class="st40" d="M5.6,5.9L5.6,5.9"/>
					<path class="st41" d="M5.6,5.9L5.6,5.9"/>
					<path class="st42" d="M5.6,5.9L5.6,5.9"/>
					<path class="st43" d="M5.6,5.9L5.6,5.9"/>
				</g>
			</g>
			<g id="pillar_left">
				<g>
					<path class="st44" d="M6.2,8.6c0,0-0.1,0-0.1,0c0,0-0.1,0-0.1,0c0,0-0.1,0-0.1,0c0,0-0.1,0-0.1,0c0,0-0.1,0-0.1,0
						c0,0-0.1,0-0.1,0c0,0-0.1,0-0.1,0c0,0-0.1,0-0.1,0v0.1c0,0,0.1,0,0.1,0c0,0,0.1,0,0.1,0c0,0,0.1,0,0.1,0c0,0,0.1,0,0.1,0
						c0,0,0.1,0,0.1,0c0,0,0.1,0,0.1,0c0,0,0.1,0,0.1,0C6.1,8.7,6.1,8.7,6.2,8.6L6.2,8.6L6.2,8.6z"/>
					<path class="st45" d="M6.2,8.7c0,0-0.1,0-0.1,0c0,0-0.1,0-0.1,0c0,0-0.1,0-0.1,0c0,0-0.1,0-0.1,0c0,0-0.1,0-0.1,0
						c0,0-0.1,0-0.1,0c0,0-0.1,0-0.1,0c0,0-0.1,0-0.1,0v0.1c0,0,0.1,0,0.1,0c0,0,0.1,0,0.1,0c0,0,0.1,0,0.1,0c0,0,0.1,0,0.1,0
						c0,0,0.1,0,0.1,0c0,0,0.1,0,0.1,0c0,0,0.1,0,0.1,0C6.1,8.7,6.1,8.7,6.2,8.7L6.2,8.7"/>
					<path class="st44" d="M6.2,8.7c0,0-0.1,0-0.1,0c0,0-0.1,0-0.1,0c0,0-0.1,0-0.1,0c0,0-0.1,0-0.1,0c0,0-0.1,0-0.1,0
						c0,0-0.1,0-0.1,0c0,0-0.1,0-0.1,0c0,0-0.1,0-0.1,0v0.1c0,0,0.1,0,0.1,0c0,0,0.1,0,0.1,0c0,0,0.1,0,0.1,0c0,0,0.1,0,0.1,0
						c0,0,0.1,0,0.1,0c0,0,0.1,0,0.1,0c0,0,0.1,0,0.1,0C6.1,8.8,6.1,8.8,6.2,8.7L6.2,8.7"/>
					<path class="st45" d="M6.2,8.8c0,0-0.1,0-0.1,0c0,0-0.1,0-0.1,0c0,0-0.1,0-0.1,0c0,0-0.1,0-0.1,0c0,0-0.1,0-0.1,0
						c0,0-0.1,0-0.1,0c0,0-0.1,0-0.1,0c0,0-0.1,0-0.1,0V8.8c0,0,0.1,0,0.1,0c0,0,0.1,0,0.1,0c0,0,0.1,0,0.1,0c0,0,0.1,0,0.1,0
						c0,0,0.1,0,0.1,0c0,0,0.1,0,0.1,0c0,0,0.1,0,0.1,0C6.1,8.8,6.1,8.8,6.2,8.8L6.2,8.8"/>
					<path class="st44" d="M6.2,8.9c0,0-0.1,0-0.1,0c0,0-0.1,0-0.1,0c0,0-0.1,0-0.1,0c0,0-0.1,0-0.1,0c0,0-0.1,0-0.1,0
						c0,0-0.1,0-0.1,0c0,0-0.1,0-0.1,0c0,0-0.1,0-0.1,0V8.8c0,0,0.1,0,0.1,0c0,0,0.1,0,0.1,0c0,0,0.1,0,0.1,0c0,0,0.1,0,0.1,0
						c0,0,0.1,0,0.1,0c0,0,0.1,0,0.1,0c0,0,0.1,0,0.1,0C6.1,8.8,6.1,8.8,6.2,8.9L6.2,8.9L6.2,8.9z"/>
				</g>
				<g>
					<path class="st46" d="M5.5,8.3C5.5,8.3,5.6,8.4,5.5,8.3C5.6,8.4,5.5,8.4,5.5,8.3l0.5,0.1c0,0-0.1,0-0.1-0.1c0,0,0,0,0,0
						c0,0,0,0,0,0L5.5,8.3C5.6,8.3,5.6,8.3,5.5,8.3z"/>
					<path class="st47" d="M5.6,8.3H6c0,0,0,0,0,0s0,0,0,0L5.6,8.3C5.5,8.3,5.5,8.3,5.6,8.3C5.5,8.3,5.5,8.3,5.6,8.3z"/>
					<path class="st47" d="M5.5,8.6h0.6V8.4H5.5V8.6z"/>
				</g>
				<path class="st45" d="M5.6,8.3H6V6.2H5.6V8.3z"/>
				<path class="st48" d="M5.9,6.2v2.1 M5.9,6.2v2.1"/>
				<g>
					<path class="st47" d="M5.5,6h0.6V5.9H5.5L5.5,6L5.5,6z"/>
					<path class="st46" d="M5.5,6.1C5.6,6.1,5.6,6.1,5.5,6.1l0.4,0c0,0,0,0,0,0c0,0,0,0,0,0c0,0,0,0,0,0c0,0,0,0,0,0L5.5,6.1
						C5.6,6.1,5.6,6.1,5.5,6.1L5.5,6.1C5.6,6.1,5.6,6.1,5.5,6.1C5.6,6.1,5.6,6.1,5.5,6.1L5.5,6.1z"/>
					<path class="st47" d="M5.6,6.1H6c0,0,0,0,0,0c0,0,0,0,0,0L5.6,6.1C5.5,6.2,5.5,6.2,5.6,6.1C5.5,6.2,5.5,6.1,5.6,6.1z"/>
					<path class="st47" d="M5.6,6H6c0,0,0,0,0,0c0,0,0,0,0,0L5.6,6C5.5,6.1,5.5,6.1,5.6,6C5.5,6,5.5,6,5.6,6z"/>
				</g>
			</g>
			<g id="ribbon_left">
				<path class="st49" d="M5.4,7.8C5.4,7.8,5.3,7.8,5.4,7.8c-0.1,0.1-0.1,0.1,0,0.1c0,0,0.1,0.1,0,0.1c0,0,0.1-0.1,0.1-0.1
					C5.5,7.8,5.5,7.8,5.4,7.8z"/>
				<path class="st50" d="M6.4,7C6.3,6.9,6.2,6.9,6,6.9c-0.1,0-0.1,0-0.2,0C5.5,7,5.3,7.1,5.4,7.2c0,0,0,0,0,0c0,0-0.1-0.2-0.1-0.2
					c0-0.1,0.2-0.2,0.5-0.3c0.1,0,0.2,0,0.2,0c0.2,0,0.3,0,0.4,0.1L6.4,7"/>
				<path class="st49" d="M5.6,7.2c-0.1,0-0.2,0-0.2-0.1c0,0,0-0.1,0.1-0.1c0,0,0.1,0,0.1,0L5.6,7.2"/>
				<path class="st49" d="M6,7.1c0.1,0,0.1,0,0.2,0.1l0,0c0,0-0.1,0.1-0.2,0.1L6,7.1"/>
				<path class="st50" d="M5.3,7.6c0,0,0.1-0.1,0.3-0.2c0.1,0,0.1-0.1,0.2-0.1C6,7.3,6.2,7.2,6.1,7.1l0,0c0,0,0,0.2,0,0.2
					c0,0-0.1,0.2-0.3,0.2c-0.1,0-0.2,0.1-0.3,0.1c-0.1,0-0.2,0.1-0.2,0.1L5.3,7.6L5.3,7.6L5.3,7.6z"/>
			</g>
			<g id="crown_right">
				<path class="st51" d="M9.7,5.7C9.7,5.7,9.6,5.8,9.7,5.7C9.6,5.8,9.6,5.7,9.7,5.7C9.6,5.7,9.6,5.8,9.7,5.7c-0.1,0-0.1,0-0.1,0
					s0,0,0,0c0,0,0,0,0,0s0,0,0,0c0,0,0,0,0,0l0,0l0,0l0,0c0,0,0,0,0,0c0,0,0,0,0,0c0,0,0,0,0.1,0c0,0,0,0,0.1,0c0,0,0,0,0.1,0
					C9.6,5.6,9.6,5.6,9.7,5.7c0-0.1,0-0.1,0.1-0.1c0,0,0.1,0,0.1,0c0,0,0,0,0.1,0c0,0,0.1,0,0.1,0c0,0,0,0,0,0c0,0,0,0,0,0l0,0l0,0
					l0,0c0,0,0,0,0,0c0,0,0,0,0,0s0,0,0,0c0,0,0,0,0,0S9.8,5.8,9.7,5.7C9.7,5.8,9.7,5.7,9.7,5.7C9.7,5.7,9.7,5.8,9.7,5.7
					C9.7,5.8,9.7,5.7,9.7,5.7L9.7,5.7z"/>
				<g>
					<ellipse class="st20" cx="9.7" cy="5.6" rx="0" ry="0.1"/>
					<ellipse class="st20" cx="9.7" cy="5.6" rx="0" ry="0"/>
					<ellipse class="st21" cx="9.7" cy="5.6" rx="0" ry="0"/>
					<path class="st22" d="M9.7,5.6L9.7,5.6L9.7,5.6L9.7,5.6L9.7,5.6L9.7,5.6L9.7,5.6L9.7,5.6L9.7,5.6L9.7,5.6L9.7,5.6L9.7,5.6
						L9.7,5.6L9.7,5.6L9.7,5.6L9.7,5.6L9.7,5.6"/>
					<path class="st23" d="M9.7,5.5C9.7,5.5,9.7,5.6,9.7,5.5C9.7,5.6,9.7,5.6,9.7,5.5C9.6,5.6,9.6,5.6,9.7,5.5
						C9.6,5.5,9.6,5.5,9.7,5.5"/>
				</g>
				<g>
					<path class="st52" d="M9.4,5.7C9.4,5.7,9.4,5.7,9.4,5.7c0-0.1,0-0.1,0.1-0.1c0,0,0,0,0,0"/>
					<path class="st23" d="M9.5,5.7C9.5,5.7,9.5,5.7,9.5,5.7C9.5,5.6,9.5,5.6,9.5,5.7c0.1-0.1,0.1-0.1,0.1-0.1"/>
					<path class="st23" d="M9.8,5.7C9.8,5.7,9.8,5.7,9.8,5.7C9.8,5.6,9.8,5.6,9.8,5.7C9.7,5.6,9.7,5.6,9.7,5.6"/>
					<path class="st52" d="M9.9,5.7C9.9,5.7,9.9,5.7,9.9,5.7c0-0.1,0-0.1-0.1-0.1c0,0,0,0,0,0"/>
					<ellipse class="st53" cx="9.4" cy="5.7" rx="0" ry="0"/>
					<ellipse class="st53" cx="9.4" cy="5.6" rx="0" ry="0"/>
					<ellipse class="st53" cx="9.4" cy="5.6" rx="0" ry="0"/>
					<ellipse class="st53" cx="9.4" cy="5.6" rx="0" ry="0"/>
					<ellipse class="st53" cx="9.5" cy="5.6" rx="0" ry="0"/>
					<ellipse class="st54" cx="9.5" cy="5.6" rx="0" ry="0"/>
					<ellipse class="st53" cx="9.5" cy="5.6" rx="0" ry="0"/>
					<ellipse class="st53" cx="9.5" cy="5.6" rx="0" ry="0"/>
					<ellipse class="st53" cx="9.6" cy="5.6" rx="0" ry="0"/>
					<ellipse class="st53" cx="9.6" cy="5.6" rx="0" ry="0"/>
					<ellipse class="st53" cx="9.7" cy="5.6" rx="0" ry="0"/>
					<ellipse class="st53" cx="9.7" cy="5.6" rx="0" ry="0"/>
					<ellipse class="st53" cx="9.8" cy="5.6" rx="0" ry="0"/>
					<ellipse class="st53" cx="9.8" cy="5.6" rx="0" ry="0"/>
					<ellipse class="st54" cx="9.8" cy="5.6" rx="0" ry="0"/>
					<ellipse class="st53" cx="9.8" cy="5.6" rx="0" ry="0"/>
					<ellipse class="st53" cx="9.9" cy="5.6" rx="0" ry="0"/>
					<ellipse class="st53" cx="9.9" cy="5.6" rx="0" ry="0"/>
					<ellipse class="st53" cx="9.9" cy="5.6" rx="0" ry="0"/>
					<ellipse class="st53" cx="9.9" cy="5.7" rx="0" ry="0"/>
				</g>
				<g>
					<g id="crown_pt1_00000032648715416317072810000014022105690178488734_">
						<path class="st20" d="M9.5,5.8C9.5,5.8,9.5,5.8,9.5,5.8c0,0,0.1-0.1,0.2-0.1c0.1,0,0.1,0,0.2,0c0,0,0,0,0,0c0,0,0,0,0,0
							c0,0-0.1,0-0.2,0C9.6,5.8,9.5,5.8,9.5,5.8C9.5,5.8,9.5,5.8,9.5,5.8L9.5,5.8"/>
						<path class="st20" d="M9.7,5.9c0.1,0,0.1,0,0.2,0c0,0,0,0,0,0c0,0,0,0,0,0C9.8,5.8,9.7,5.8,9.7,5.9c-0.1-0.1-0.1-0.1-0.2,0
							c0,0,0,0,0,0c0,0,0,0,0,0C9.5,5.9,9.6,5.9,9.7,5.9z"/>
						<path class="st20" d="M9.9,5.8L9.9,5.8C9.8,5.8,9.8,5.8,9.9,5.8C9.8,5.8,9.8,5.7,9.9,5.8c-0.1,0-0.1,0-0.1,0c0,0,0,0,0,0
							s0,0,0,0c0,0,0,0,0,0s0,0,0,0c0,0,0,0,0,0s0,0,0,0c0,0,0,0,0,0s0,0,0,0c0,0,0,0,0,0s0,0,0,0c0,0,0,0,0,0l0,0
							c0.1,0,0.1,0,0.2,0S9.8,5.8,9.9,5.8L9.9,5.8L9.9,5.8L9.9,5.8z"/>
						<path class="st20" d="M9.7,5.7L9.7,5.7C9.7,5.7,9.7,5.7,9.7,5.7C9.7,5.7,9.7,5.7,9.7,5.7C9.7,5.7,9.7,5.7,9.7,5.7
							C9.7,5.7,9.7,5.7,9.7,5.7C9.7,5.7,9.7,5.7,9.7,5.7C9.7,5.7,9.7,5.8,9.7,5.7c0.1,0,0.1,0,0.1,0c0,0,0,0,0,0l0,0l0,0
							c0,0,0,0,0,0c0,0,0,0,0,0c0,0,0,0,0,0l0,0v0c0,0,0,0,0,0c0,0,0,0,0,0c0,0,0,0,0,0l0,0c0,0,0,0,0,0c0,0,0,0,0,0c0,0,0,0,0,0
							c0,0,0,0,0,0c0,0,0,0,0,0C9.8,5.8,9.8,5.8,9.7,5.7C9.7,5.8,9.7,5.8,9.7,5.7C9.7,5.8,9.7,5.8,9.7,5.7C9.7,5.8,9.7,5.8,9.7,5.7
							C9.6,5.8,9.6,5.8,9.7,5.7C9.6,5.8,9.6,5.8,9.7,5.7C9.6,5.8,9.6,5.8,9.7,5.7c-0.1,0.1-0.1,0.1-0.1,0c0,0,0,0,0,0c0,0,0,0,0,0
							c0,0,0,0,0,0c0,0,0,0,0,0c0,0,0,0,0,0l0,0c0,0,0,0,0,0s0,0,0,0c0,0,0,0,0,0v0l0,0c0,0,0,0,0,0c0,0,0,0,0,0c0,0,0,0,0,0l0,0
							l0,0c0,0,0,0,0,0C9.5,5.7,9.5,5.8,9.7,5.7C9.6,5.8,9.6,5.7,9.7,5.7C9.6,5.7,9.6,5.7,9.7,5.7C9.6,5.7,9.6,5.7,9.7,5.7
							C9.6,5.7,9.6,5.7,9.7,5.7C9.6,5.7,9.6,5.7,9.7,5.7C9.6,5.7,9.6,5.7,9.7,5.7L9.7,5.7L9.7,5.7L9.7,5.7z"/>
						<path class="st24" d="M9.7,5.8c-0.1,0-0.1,0-0.2,0c0,0,0,0,0,0c0,0,0,0,0,0C9.5,5.8,9.6,5.8,9.7,5.8c0.1,0,0.2,0,0.2,0
							c0,0,0,0,0,0c0,0,0,0,0,0C9.8,5.8,9.7,5.8,9.7,5.8z"/>
						<path class="st20" d="M9.4,5.7C9.4,5.7,9.4,5.7,9.4,5.7C9.4,5.7,9.4,5.7,9.4,5.7C9.4,5.7,9.4,5.7,9.4,5.7
							C9.4,5.7,9.4,5.7,9.4,5.7L9.4,5.7C9.4,5.7,9.4,5.7,9.4,5.7C9.4,5.7,9.4,5.7,9.4,5.7C9.4,5.7,9.4,5.7,9.4,5.7L9.4,5.7z"/>
						<path class="st20" d="M9.4,5.7L9.4,5.7L9.4,5.7L9.4,5.7L9.4,5.7L9.4,5.7L9.4,5.7"/>
						<path class="st20" d="M9.4,5.7C9.4,5.7,9.4,5.7,9.4,5.7C9.4,5.7,9.4,5.8,9.4,5.7C9.4,5.8,9.4,5.8,9.4,5.7
							C9.4,5.7,9.4,5.7,9.4,5.7z"/>
						<path class="st20" d="M9.5,5.7C9.5,5.7,9.5,5.7,9.5,5.7C9.5,5.7,9.5,5.7,9.5,5.7C9.5,5.7,9.5,5.7,9.5,5.7
							C9.5,5.8,9.5,5.7,9.5,5.7z"/>
						<path class="st20" d="M9.5,5.7L9.5,5.7L9.5,5.7L9.5,5.7L9.5,5.7L9.5,5.7L9.5,5.7"/>
						<path class="st20" d="M9.5,5.7L9.5,5.7L9.5,5.7L9.5,5.7L9.5,5.7L9.5,5.7L9.5,5.7"/>
						<path class="st20" d="M9.6,5.7L9.6,5.7L9.6,5.7L9.6,5.7L9.6,5.7L9.6,5.7L9.6,5.7"/>
						<ellipse class="st20" cx="9.5" cy="5.7" rx="0" ry="0"/>
						<path class="st20" d="M9.6,5.7C9.6,5.7,9.6,5.7,9.6,5.7C9.6,5.7,9.6,5.7,9.6,5.7C9.6,5.7,9.6,5.7,9.6,5.7
							C9.6,5.7,9.6,5.7,9.6,5.7z"/>
						<path class="st20" d="M9.6,5.7L9.6,5.7L9.6,5.7L9.6,5.7L9.6,5.7L9.6,5.7L9.6,5.7"/>
						<path class="st20" d="M9.7,5.6L9.7,5.6L9.7,5.6L9.7,5.6L9.7,5.6L9.7,5.6L9.7,5.6"/>
						<path class="st20" d="M9.7,5.7L9.7,5.7L9.7,5.7L9.7,5.7L9.7,5.7L9.7,5.7L9.7,5.7"/>
						<ellipse class="st20" cx="9.7" cy="5.7" rx="0" ry="0"/>
						<path class="st20" d="M9.7,5.7C9.7,5.7,9.7,5.7,9.7,5.7C9.7,5.7,9.7,5.7,9.7,5.7C9.7,5.7,9.7,5.7,9.7,5.7
							C9.7,5.7,9.7,5.7,9.7,5.7z"/>
						<path class="st20" d="M9.7,5.7L9.7,5.7L9.7,5.7L9.7,5.7L9.7,5.7L9.7,5.7L9.7,5.7"/>
						<path class="st20" d="M9.8,5.7L9.8,5.7L9.8,5.7L9.8,5.7L9.8,5.7L9.8,5.7L9.8,5.7"/>
						<path class="st20" d="M9.8,5.7L9.8,5.7L9.8,5.7L9.8,5.7L9.8,5.7L9.8,5.7L9.8,5.7"/>
						<ellipse class="st20" cx="9.8" cy="5.7" rx="0" ry="0"/>
						<path class="st20" d="M9.9,5.7C9.9,5.7,9.9,5.7,9.9,5.7C9.8,5.7,9.8,5.7,9.9,5.7C9.8,5.7,9.8,5.7,9.9,5.7
							C9.8,5.8,9.9,5.7,9.9,5.7z"/>
						<path class="st20" d="M9.9,5.7C9.9,5.7,9.9,5.7,9.9,5.7C9.9,5.7,10,5.7,9.9,5.7C10,5.7,9.9,5.7,9.9,5.7
							C9.9,5.7,9.9,5.7,9.9,5.7L9.9,5.7C9.9,5.7,9.9,5.7,9.9,5.7C9.9,5.7,9.9,5.7,9.9,5.7C9.9,5.7,9.9,5.7,9.9,5.7L9.9,5.7z"/>
						<path class="st20" d="M9.9,5.7L9.9,5.7L9.9,5.7L9.9,5.7L9.9,5.7L9.9,5.7L9.9,5.7"/>
						<path class="st20" d="M9.9,5.7C9.9,5.7,9.9,5.7,9.9,5.7C9.9,5.7,9.9,5.8,9.9,5.7C9.9,5.8,9.9,5.8,9.9,5.7
							C9.9,5.7,9.9,5.7,9.9,5.7z"/>
					</g>
				</g>
				<g>
					<g id="crown_pt2_00000121261884192809060950000004340356531766492069_">
						<path class="st25" d="M9.5,5.8L9.5,5.8L9.5,5.8L9.5,5.8L9.5,5.8"/>
						<path class="st26" d="M9.5,5.8L9.5,5.8C9.5,5.8,9.5,5.8,9.5,5.8C9.5,5.8,9.5,5.8,9.5,5.8L9.5,5.8L9.5,5.8
							C9.5,5.8,9.6,5.8,9.5,5.8C9.6,5.8,9.6,5.8,9.5,5.8L9.5,5.8"/>
						<ellipse class="st27" cx="9.6" cy="5.8" rx="0" ry="0"/>
						<path class="st25" d="M9.7,5.8L9.7,5.8C9.6,5.8,9.6,5.8,9.7,5.8C9.6,5.8,9.6,5.8,9.7,5.8L9.7,5.8C9.7,5.8,9.7,5.8,9.7,5.8
							C9.7,5.8,9.7,5.8,9.7,5.8L9.7,5.8"/>
						<ellipse class="st27" cx="9.7" cy="5.8" rx="0" ry="0"/>
						<path class="st26" d="M9.8,5.8L9.8,5.8C9.8,5.8,9.8,5.8,9.8,5.8C9.8,5.8,9.8,5.8,9.8,5.8L9.8,5.8L9.8,5.8
							C9.8,5.8,9.8,5.8,9.8,5.8C9.8,5.8,9.8,5.8,9.8,5.8L9.8,5.8"/>
						<path class="st25" d="M9.9,5.8L9.9,5.8L9.9,5.8L9.9,5.8L9.9,5.8"/>
						<path class="st19" d="M9.7,5.9c-0.1,0-0.1,0-0.2,0C9.5,5.9,9.6,5.8,9.7,5.9c0.1,0,0.1,0,0.2,0C9.8,5.9,9.7,5.9,9.7,5.9z"/>
						<path class="st28" d="M9.7,5.9L9.7,5.9 M9.7,5.9L9.7,5.9 M9.7,5.9L9.7,5.9"/>
						<path class="st29" d="M9.6,5.9L9.6,5.9"/>
						<path class="st30" d="M9.6,5.9L9.6,5.9"/>
						<path class="st31" d="M9.6,5.9L9.6,5.9"/>
						<path class="st31" d="M9.6,5.9L9.6,5.9"/>
						<path class="st32" d="M9.6,5.9L9.6,5.9"/>
						<path class="st33" d="M9.6,5.9L9.6,5.9 M9.6,5.9L9.6,5.9"/>
						<path class="st34" d="M9.6,5.9L9.6,5.9 M9.6,5.9L9.6,5.9"/>
						<path class="st35" d="M9.6,5.9L9.6,5.9 M9.6,5.9L9.6,5.9 M9.6,5.9L9.6,5.9"/>
						<path class="st36" d="M9.6,5.9L9.6,5.9"/>
						<path class="st37" d="M9.6,5.9L9.6,5.9"/>
						<path class="st38" d="M9.6,5.9L9.6,5.9"/>
						<path class="st39" d="M9.5,5.9L9.5,5.9 M9.5,5.9L9.5,5.9"/>
						<path class="st39" d="M9.5,5.9L9.5,5.9"/>
						<path class="st40" d="M9.5,5.9L9.5,5.9"/>
						<path class="st41" d="M9.5,5.9L9.5,5.9"/>
						<path class="st42" d="M9.5,5.9L9.5,5.9"/>
						<path class="st43" d="M9.5,5.9L9.5,5.9"/>
					</g>
				</g>
			</g>
			<g id="pillar_right">
				<g id="pillar_left_00000170995944410527736780000003055248424688132752_">
					<g>
						<path class="st44" d="M10.1,8.6c0,0-0.1,0-0.1,0c0,0-0.1,0-0.1,0c0,0-0.1,0-0.1,0c0,0-0.1,0-0.1,0c0,0-0.1,0-0.1,0
							c0,0-0.1,0-0.1,0c0,0-0.1,0-0.1,0c0,0-0.1,0-0.1,0v0.1c0,0,0.1,0,0.1,0c0,0,0.1,0,0.1,0c0,0,0.1,0,0.1,0c0,0,0.1,0,0.1,0
							c0,0,0.1,0,0.1,0c0,0,0.1,0,0.1,0c0,0,0.1,0,0.1,0C10,8.7,10,8.7,10.1,8.6L10.1,8.6L10.1,8.6z"/>
						<path class="st45" d="M10.1,8.7c0,0-0.1,0-0.1,0c0,0-0.1,0-0.1,0c0,0-0.1,0-0.1,0c0,0-0.1,0-0.1,0c0,0-0.1,0-0.1,0
							c0,0-0.1,0-0.1,0c0,0-0.1,0-0.1,0c0,0-0.1,0-0.1,0v0.1c0,0,0.1,0,0.1,0c0,0,0.1,0,0.1,0c0,0,0.1,0,0.1,0c0,0,0.1,0,0.1,0
							c0,0,0.1,0,0.1,0c0,0,0.1,0,0.1,0c0,0,0.1,0,0.1,0C10,8.7,10,8.7,10.1,8.7L10.1,8.7"/>
						<path class="st44" d="M10.1,8.7c0,0-0.1,0-0.1,0c0,0-0.1,0-0.1,0c0,0-0.1,0-0.1,0c0,0-0.1,0-0.1,0c0,0-0.1,0-0.1,0
							c0,0-0.1,0-0.1,0c0,0-0.1,0-0.1,0c0,0-0.1,0-0.1,0v0.1c0,0,0.1,0,0.1,0c0,0,0.1,0,0.1,0c0,0,0.1,0,0.1,0c0,0,0.1,0,0.1,0
							c0,0,0.1,0,0.1,0c0,0,0.1,0,0.1,0c0,0,0.1,0,0.1,0C10,8.8,10,8.8,10.1,8.7L10.1,8.7"/>
						<path class="st45" d="M10.1,8.8c0,0-0.1,0-0.1,0c0,0-0.1,0-0.1,0c0,0-0.1,0-0.1,0c0,0-0.1,0-0.1,0c0,0-0.1,0-0.1,0
							c0,0-0.1,0-0.1,0c0,0-0.1,0-0.1,0c0,0-0.1,0-0.1,0V8.8c0,0,0.1,0,0.1,0c0,0,0.1,0,0.1,0c0,0,0.1,0,0.1,0c0,0,0.1,0,0.1,0
							c0,0,0.1,0,0.1,0c0,0,0.1,0,0.1,0c0,0,0.1,0,0.1,0C10,8.8,10,8.8,10.1,8.8L10.1,8.8"/>
						<path class="st44" d="M10.1,8.9c0,0-0.1,0-0.1,0c0,0-0.1,0-0.1,0c0,0-0.1,0-0.1,0c0,0-0.1,0-0.1,0c0,0-0.1,0-0.1,0
							c0,0-0.1,0-0.1,0c0,0-0.1,0-0.1,0c0,0-0.1,0-0.1,0V8.8c0,0,0.1,0,0.1,0c0,0,0.1,0,0.1,0c0,0,0.1,0,0.1,0c0,0,0.1,0,0.1,0
							c0,0,0.1,0,0.1,0c0,0,0.1,0,0.1,0c0,0,0.1,0,0.1,0C10,8.8,10,8.8,10.1,8.9L10.1,8.9L10.1,8.9z"/>
					</g>
					<g>
						<path class="st46" d="M9.4,8.3C9.4,8.3,9.4,8.4,9.4,8.3C9.4,8.4,9.4,8.4,9.4,8.3L10,8.4c0,0-0.1,0-0.1-0.1c0,0,0,0,0,0
							c0,0,0,0,0,0L9.4,8.3C9.4,8.3,9.4,8.3,9.4,8.3z"/>
						<path class="st47" d="M9.4,8.3h0.4c0,0,0,0,0,0s0,0,0,0L9.4,8.3C9.4,8.3,9.4,8.3,9.4,8.3C9.4,8.3,9.4,8.3,9.4,8.3z"/>
						<path class="st47" d="M9.4,8.6H10V8.4H9.4V8.6z"/>
					</g>
					<path class="st45" d="M9.4,8.3h0.4V6.2H9.4V8.3z"/>
					<path class="st48" d="M9.7,6.2v2.1 M9.8,6.2v2.1"/>
					<g>
						<path class="st47" d="M9.4,6h0.6V5.9H9.4V6L9.4,6z"/>
						<path class="st46" d="M9.4,6.1C9.4,6.1,9.4,6.1,9.4,6.1l0.4,0c0,0,0,0,0,0c0,0,0,0,0,0c0,0,0,0,0,0c0,0,0,0,0,0L9.4,6.1
							C9.4,6.1,9.4,6.1,9.4,6.1L9.4,6.1C9.4,6.1,9.5,6.1,9.4,6.1C9.5,6.1,9.4,6.1,9.4,6.1L9.4,6.1z"/>
						<path class="st47" d="M9.4,6.1h0.4c0,0,0,0,0,0c0,0,0,0,0,0L9.4,6.1C9.4,6.2,9.4,6.2,9.4,6.1C9.4,6.2,9.4,6.1,9.4,6.1z"/>
						<path class="st47" d="M9.4,6h0.4c0,0,0,0,0,0c0,0,0,0,0,0L9.4,6C9.4,6.1,9.4,6.1,9.4,6C9.4,6,9.4,6,9.4,6z"/>
					</g>
				</g>
			</g>
			<g id="ribbon_right" transform="matrix(-1,0,0,1,500.57,0)">
				<g id="ribbon_left_00000012441189737984370880000006140789389569764742_">
					<path class="st49" d="M10,7.8C10.1,7.8,10.1,7.8,10,7.8c0.1,0.1,0.1,0.1,0,0.1C10,7.9,10,8,10,8c0,0-0.1-0.1-0.1-0.1
						C9.9,7.8,10,7.8,10,7.8z"/>
					<path class="st50" d="M9,7c0.1,0,0.2-0.1,0.4-0.1c0.1,0,0.1,0,0.2,0c0.3,0,0.4,0.1,0.4,0.2c0,0,0,0,0,0c0,0,0.1-0.2,0.1-0.2
						c0-0.1-0.2-0.2-0.5-0.3c-0.1,0-0.2,0-0.2,0c-0.2,0-0.3,0-0.4,0.1L9,7"/>
					<path class="st49" d="M9.9,7.2c0.1,0,0.2,0,0.2-0.1c0,0,0-0.1-0.1-0.1c0,0-0.1,0-0.1,0L9.9,7.2"/>
					<path class="st49" d="M9.4,7.1c-0.1,0-0.1,0-0.2,0.1l0,0c0,0,0.1,0.1,0.2,0.1L9.4,7.1"/>
					<path class="st50" d="M10.1,7.6c0,0-0.1-0.1-0.3-0.2c-0.1,0-0.1-0.1-0.2-0.1C9.4,7.3,9.3,7.2,9.3,7.1l0,0c0,0,0,0.2,0,0.2
						c0,0,0.1,0.2,0.3,0.2c0.1,0,0.2,0.1,0.3,0.1c0.1,0,0.2,0.1,0.2,0.1L10.1,7.6L10.1,7.6L10.1,7.6z"/>
				</g>
			</g>
			<g id="plus_ultra">
				<path class="st21" d="M5.5,6.9C5.6,6.9,5.6,6.8,5.5,6.9C5.6,6.8,5.6,6.8,5.5,6.9L5.5,6.9L5.5,6.9C5.5,7,5.5,7,5.5,6.9
					C5.5,7,5.6,7,5.5,6.9L5.5,6.9L5.5,6.9L5.5,6.9z M5.5,6.8L5.5,6.8C5.5,6.8,5.6,6.8,5.5,6.8C5.6,6.8,5.6,6.8,5.5,6.8
					C5.5,6.9,5.5,6.9,5.5,6.8L5.5,6.8"/>
				<path class="st21" d="M5.7,6.7C5.7,6.7,5.7,6.7,5.7,6.7C5.7,6.7,5.7,6.7,5.7,6.7l0,0.2l0.1,0c0,0,0,0,0,0c0,0,0,0,0,0
					c0,0,0,0-0.1,0L5.7,6.7"/>
				<path class="st21" d="M5.9,6.9c0-0.1,0-0.1,0.1-0.2c0,0,0,0,0,0c0,0,0,0,0,0C6,6.8,5.9,6.8,5.9,6.9c0-0.1,0-0.1-0.1-0.2
					c0,0,0,0,0,0c0,0,0,0,0,0C5.8,6.8,5.9,6.8,5.9,6.9C5.9,6.9,5.9,6.9,5.9,6.9C5.9,6.9,5.9,6.9,5.9,6.9"/>
				<path class="st21" d="M6.2,6.8C6.2,6.7,6.2,6.7,6.2,6.8C6.2,6.7,6.2,6.7,6.2,6.8c-0.1,0-0.1,0-0.1,0C6,6.8,6.1,6.8,6.2,6.8
					c0,0.1,0,0.1-0.1,0.1c0,0,0,0,0,0l0,0c0,0,0,0,0,0c0,0,0,0,0,0C6.1,6.9,6.2,6.9,6.2,6.8C6.2,6.8,6.1,6.8,6.2,6.8
					C6.1,6.7,6.1,6.7,6.2,6.8C6.1,6.7,6.2,6.7,6.2,6.8L6.2,6.8"/>
				<path class="st21" d="M9.3,6.9c0-0.1,0-0.1,0.1-0.2c0,0,0,0,0,0c0,0,0,0,0,0C9.3,6.8,9.3,6.8,9.3,6.9c0-0.1-0.1-0.1-0.1-0.2
					c0,0,0,0,0,0c0,0,0,0,0,0C9.2,6.8,9.2,6.8,9.3,6.9C9.3,6.9,9.3,6.9,9.3,6.9C9.3,6.9,9.3,6.9,9.3,6.9"/>
				<path class="st21" d="M9.4,6.7C9.4,6.7,9.4,6.7,9.4,6.7C9.4,6.7,9.4,6.7,9.4,6.7l0,0.2l0.1,0c0,0,0,0,0,0c0,0,0,0,0,0
					c0,0,0,0-0.1,0L9.4,6.7"/>
				<path class="st21" d="M9.6,6.7C9.6,6.7,9.7,6.7,9.6,6.7C9.7,6.7,9.7,6.7,9.6,6.7C9.7,6.7,9.7,6.7,9.6,6.7l-0.1,0c0,0,0,0,0,0
					c0,0,0,0,0,0C9.5,6.7,9.6,6.7,9.6,6.7L9.6,6.9c0,0,0,0,0,0c0,0,0,0,0,0L9.6,6.7"/>
				<path class="st21" d="M9.7,6.9C9.7,6.9,9.7,6.9,9.7,6.9C9.7,6.9,9.7,6.9,9.7,6.9L9.7,6.9L9.7,6.9C9.8,6.8,9.8,6.9,9.7,6.9l0.1,0
					c0,0,0,0,0,0c0,0,0,0,0,0l0,0c0,0,0-0.1,0-0.1c0,0,0.1,0,0.1,0c0,0,0,0,0,0c0,0,0,0,0,0l-0.1,0L9.7,6.9 M9.8,6.8
					C9.8,6.8,9.8,6.8,9.8,6.8C9.8,6.8,9.8,6.8,9.8,6.8C9.8,6.8,9.8,6.8,9.8,6.8L9.8,6.8"/>
				<path class="st21" d="M10,7C10,7,10,7,10,7C10,7,10,7,10,7C10,7,10,7,10,7L10,6.8c0,0,0,0,0,0c0,0,0,0,0,0L9.9,6.9c0,0,0,0,0,0
					c0,0,0,0,0,0C9.9,6.9,9.9,6.9,10,7L10,7L10,7z M9.9,6.9L9.9,6.9L9.9,6.9L9.9,6.9"/>
			</g>
		</g>
		<g id="crown_crest">
			<path class="st25" d="M7.7,4.8c0.2,0,0.3,0,0.4,0.1c0.1,0,0.1,0,0.2,0.1c0.1,0,0.1,0,0.2,0c0.1,0,0.2,0,0.3,0.1C8.9,5,9,5,9,5.1
				l0,0l0,0.1L8.8,5.3l-0.1,0L8.6,5.5l-0.1,0l0,0.1L7.7,5.5L6.8,5.6l0-0.1l-0.1,0L6.6,5.4l-0.1,0L6.5,5.2l0-0.1l0,0
				c0,0,0.1-0.1,0.2-0.1c0.1,0,0.2-0.1,0.3-0.1c0.1,0,0.1,0,0.2,0c0.1,0,0.2,0,0.2-0.1C7.4,4.8,7.5,4.8,7.7,4.8L7.7,4.8z"/>
			<g>
				<path class="st47" d="M7.1,5L7.1,5L7.1,5c0-0.1,0-0.2,0-0.2c0,0,0,0,0,0c0-0.1,0.1-0.2,0.3-0.2c0.1,0,0.2,0,0.2,0.1c0,0,0,0,0,0
					c-0.1,0-0.1-0.1-0.2-0.1C7.2,4.5,7,4.6,7,4.7c0,0,0,0,0,0C7,4.8,7,4.9,7.1,5L7.1,5"/>
				<path class="st47" d="M7.1,5C7,4.9,7,4.9,7,4.8C7,4.7,7,4.6,7.1,4.6C7,4.6,7,4.7,7,4.7c0,0,0,0,0,0C7,4.8,7,4.9,7.1,5L7.1,5"/>
				<path class="st47" d="M6.5,5.1c0,0-0.1-0.1-0.1-0.2c0,0,0-0.1,0-0.1c0.1-0.1,0.2-0.2,0.4-0.2c0.1,0,0.1,0,0.2,0c0,0,0,0,0,0
					c0,0-0.1,0-0.1,0c-0.2,0-0.3,0.1-0.4,0.2c0,0,0,0.1,0,0.1C6.5,5,6.5,5,6.5,5.1l0,0.1L6.5,5.1L6.5,5.1L6.5,5.1z"/>
				<path class="st47" d="M6.5,4.7c0,0-0.1,0.1-0.1,0.1c0,0,0,0.1,0,0.1c0,0.1,0,0.1,0.1,0.2l0,0.1C6.4,5.1,6.4,5,6.4,5
					C6.4,4.9,6.4,4.8,6.5,4.7L6.5,4.7z"/>
				<path class="st47" d="M7.7,4.5C7.8,4.5,7.8,4.5,7.7,4.5c0.1,0.1,0.1,0.1,0.1,0.2c0,0,0,0,0,0c0,0,0,0,0,0c0,0.1,0,0.2,0,0.2
					L7.7,5L7.6,4.9c0,0,0-0.1,0-0.2c0,0,0,0,0,0c0,0,0,0,0,0C7.6,4.6,7.6,4.6,7.7,4.5C7.6,4.5,7.7,4.5,7.7,4.5L7.7,4.5z"/>
				<path class="st47" d="M7.7,4.5C7.7,4.5,7.8,4.5,7.7,4.5c0.1,0.1,0.1,0.1,0.1,0.2c0,0,0,0,0,0c0,0,0,0,0,0c0,0.1,0,0.2,0,0.2
					L7.7,5L7.6,4.9c0,0,0-0.1,0-0.2c0,0,0,0,0,0c0,0,0,0,0,0C7.6,4.6,7.7,4.6,7.7,4.5C7.7,4.5,7.7,4.5,7.7,4.5z"/>
				<path class="st47" d="M8.4,5L8.4,5L8.4,5c0-0.1,0-0.2,0-0.2c0,0,0,0,0,0c0-0.1-0.1-0.2-0.3-0.2c-0.1,0-0.2,0-0.2,0.1
					c0,0,0,0,0,0C7.9,4.5,8,4.5,8,4.5c0.2,0,0.4,0.1,0.4,0.2c0,0,0,0,0,0C8.4,4.8,8.4,4.9,8.4,5L8.4,5"/>
				<path class="st47" d="M8.3,5c0.1-0.1,0.1-0.1,0.1-0.2c0-0.1-0.1-0.2-0.1-0.2c0.1,0,0.1,0.1,0.1,0.2c0,0,0,0,0,0
					C8.4,4.8,8.4,4.9,8.3,5L8.3,5"/>
				<path class="st47" d="M9,5.1C9,5,9,5,9,4.9c0,0,0-0.1,0-0.1C8.9,4.7,8.8,4.6,8.6,4.6c-0.1,0-0.1,0-0.2,0c0,0,0,0,0,0
					c0,0,0.1,0,0.1,0c0.2,0,0.3,0.1,0.4,0.2c0,0,0,0.1,0,0.1C9,5,8.9,5,9,5.1l0,0.1L9,5.1L9,5.1z"/>
				<path class="st47" d="M8.9,4.7c0,0,0.1,0.1,0.1,0.1c0,0,0,0.1,0,0.1C9,5,9,5,9,5.1l0,0.1C9,5.1,9.1,5,9.1,5
					C9.1,4.9,9,4.8,8.9,4.7L8.9,4.7z"/>
				<ellipse class="st55" cx="7.7" cy="4.3" rx="0.1" ry="0.1"/>
				<path class="st20" d="M7.7,4L7.7,4L7.7,4L7.6,4.2h0.1v0.1v0.1H7.6c0,0,0,0,0,0c0,0,0,0,0,0c0,0,0,0,0,0h0.2c0,0,0,0,0,0
					c0,0,0,0,0,0c0,0,0,0,0,0H7.7V4.2V4.2h0.1V4.1L7.7,4L7.7,4L7.7,4L7.7,4z"/>
			</g>
			<g>
				<ellipse class="st56" cx="7.7" cy="4.9" rx="0" ry="0"/>
				<ellipse class="st56" cx="7.7" cy="4.8" rx="0" ry="0"/>
				<ellipse class="st56" cx="7.7" cy="4.7" rx="0" ry="0"/>
				<ellipse class="st56" cx="7.7" cy="4.6" rx="0" ry="0"/>
				<ellipse class="st56" cx="7.7" cy="4.6" rx="0" ry="0"/>
				<ellipse class="st56" cx="6.4" cy="5.2" rx="0" ry="0"/>
				<ellipse class="st56" cx="6.3" cy="5.1" rx="0" ry="0"/>
				<ellipse class="st56" cx="6.3" cy="5" rx="0" ry="0"/>
				<ellipse class="st56" cx="6.3" cy="4.9" rx="0" ry="0"/>
				<ellipse class="st56" cx="6.3" cy="4.8" rx="0" ry="0"/>
				<ellipse class="st56" cx="6.4" cy="4.8" rx="0" ry="0"/>
				<ellipse class="st56" cx="6.4" cy="4.7" rx="0" ry="0"/>
				<ellipse class="st56" cx="6.5" cy="4.7" rx="0" ry="0"/>
				<ellipse class="st56" cx="6.6" cy="4.6" rx="0" ry="0"/>
				<ellipse class="st56" cx="6.7" cy="4.6" rx="0" ry="0"/>
				<ellipse class="st56" cx="6.8" cy="4.6" rx="0" ry="0"/>
				<ellipse class="st56" cx="6.9" cy="4.6" rx="0" ry="0"/>
				<ellipse class="st56" cx="6.9" cy="4.6" rx="0" ry="0"/>
				<ellipse class="st56" cx="7" cy="4.9" rx="0" ry="0"/>
				<ellipse class="st56" cx="7" cy="4.9" rx="0" ry="0"/>
				<ellipse class="st56" cx="7" cy="4.8" rx="0" ry="0"/>
				<ellipse class="st56" cx="7" cy="4.7" rx="0" ry="0"/>
				<ellipse class="st56" cx="7" cy="4.6" rx="0" ry="0"/>
				<ellipse class="st56" cx="7" cy="4.6" rx="0" ry="0"/>
				<ellipse class="st56" cx="7.1" cy="4.5" rx="0" ry="0"/>
				<ellipse class="st56" cx="7.2" cy="4.5" rx="0" ry="0"/>
				<ellipse class="st56" cx="7.3" cy="4.4" rx="0" ry="0"/>
				<ellipse class="st56" cx="7.3" cy="4.4" rx="0" ry="0"/>
				<ellipse class="st56" cx="7.4" cy="4.4" rx="0" ry="0"/>
				<ellipse class="st56" cx="7.5" cy="4.4" rx="0" ry="0"/>
				<ellipse class="st56" cx="7.6" cy="4.5" rx="0" ry="0"/>
				<ellipse class="st56" cx="7.8" cy="4.5" rx="0" ry="0"/>
				<ellipse class="st56" cx="7.9" cy="4.4" rx="0" ry="0"/>
				<ellipse class="st56" cx="8" cy="4.4" rx="0" ry="0"/>
				<ellipse class="st56" cx="8.1" cy="4.4" rx="0" ry="0"/>
				<ellipse class="st56" cx="8.2" cy="4.4" rx="0" ry="0"/>
				<ellipse class="st56" cx="8.2" cy="4.5" rx="0" ry="0"/>
				<ellipse class="st56" cx="8.3" cy="4.5" rx="0" ry="0"/>
				<ellipse class="st56" cx="8.4" cy="4.6" rx="0" ry="0"/>
				<ellipse class="st56" cx="8.4" cy="4.6" rx="0" ry="0"/>
				<ellipse class="st56" cx="8.5" cy="4.7" rx="0" ry="0"/>
				<ellipse class="st56" cx="8.5" cy="4.8" rx="0" ry="0"/>
				<ellipse class="st56" cx="8.4" cy="4.9" rx="0" ry="0"/>
				<ellipse class="st56" cx="8.4" cy="4.9" rx="0" ry="0"/>
				<ellipse class="st56" cx="8.5" cy="4.6" rx="0" ry="0"/>
				<ellipse class="st56" cx="8.6" cy="4.6" rx="0" ry="0"/>
				<ellipse class="st56" cx="8.7" cy="4.6" rx="0" ry="0"/>
				<ellipse class="st56" cx="8.7" cy="4.6" rx="0" ry="0"/>
				<ellipse class="st56" cx="8.8" cy="4.6" rx="0" ry="0"/>
				<ellipse class="st56" cx="8.9" cy="4.7" rx="0" ry="0"/>
				<ellipse class="st56" cx="9" cy="4.7" rx="0" ry="0"/>
				<ellipse class="st56" cx="9" cy="4.8" rx="0" ry="0"/>
				<ellipse class="st56" cx="9.1" cy="4.8" rx="0" ry="0"/>
				<ellipse class="st56" cx="9.1" cy="4.9" rx="0" ry="0"/>
				<ellipse class="st56" cx="9.1" cy="5" rx="0" ry="0"/>
				<ellipse class="st56" cx="9.1" cy="5.1" rx="0" ry="0"/>
				<ellipse class="st56" cx="9" cy="5.2" rx="0" ry="0"/>
			</g>
			<g>
				<path class="st47" d="M7.7,5.9c-0.3,0-0.6,0-0.8-0.1c0,0,0,0,0,0c0,0,0,0,0,0c0.2-0.1,0.5-0.1,0.8-0.1c0.3,0,0.6,0,0.8,0.1
					c0,0,0,0,0,0c0,0,0,0,0,0C8.3,5.8,8,5.9,7.7,5.9"/>
				<path class="st47" d="M7.7,5.6c-0.3,0-0.6,0-0.8,0.1c0,0,0,0,0-0.1c0-0.1-0.1-0.1-0.1-0.1C7,5.5,7.4,5.5,7.7,5.5
					c0.3,0,0.7,0,0.9,0.1c0,0,0,0-0.1,0.1c0,0.1,0,0.1,0,0.1C8.3,5.7,8,5.6,7.7,5.6"/>
				<path class="st47" d="M7.7,5.5c-0.3,0-0.7,0-0.9,0.1c0,0,0,0,0,0c0,0,0,0,0,0C7,5.5,7.4,5.4,7.7,5.5c0.4-0.1,0.7,0,0.9,0.1
					c0,0,0,0,0,0s0,0,0,0C8.4,5.5,8.1,5.5,7.7,5.5"/>
				<path class="st47" d="M7.7,5.2L7.7,5.2C7.7,5.2,7.7,5.2,7.7,5.2c0,0.1,0.1,0.2,0.2,0.2c0.1,0,0.1,0,0.1-0.1c0,0,0,0,0,0
					c0,0,0,0,0,0c0,0.1,0.1,0.1,0.1,0.1c0.1,0,0.1-0.1,0.1-0.1c0,0,0,0,0,0l0,0l0,0.1c0,0,0,0,0,0.1c0,0.1,0.1,0.1,0.1,0.1
					c0,0,0.1,0,0.1-0.1l0,0l0,0c0,0,0,0.1,0.1,0.1c0,0,0,0,0.1,0c0.1,0,0.1-0.1,0.1-0.1l0,0c0,0,0,0.1-0.1,0.1c0,0-0.1,0-0.1,0
					c0,0-0.1,0-0.1-0.1c0,0-0.1,0-0.1,0c-0.1,0-0.1,0-0.2-0.1c0,0-0.1,0.1-0.1,0.1C8.1,5.4,8,5.4,8,5.4c0,0-0.1,0-0.1,0
					c-0.1,0-0.1,0-0.2-0.1c0,0-0.1,0.1-0.2,0.1c0,0-0.1,0-0.1,0c0,0-0.1,0.1-0.1,0.1c-0.1,0-0.1,0-0.1-0.1c0,0.1-0.1,0.1-0.2,0.1
					c0,0-0.1,0-0.1,0c0,0,0,0.1-0.1,0.1c0,0-0.1,0-0.1,0c-0.1,0-0.1-0.1-0.1-0.1l0,0c0,0,0,0,0.1,0.1c0.1,0,0.1,0,0.1,0
					c0,0,0.1,0,0.1-0.1l0,0l0,0c0,0,0.1,0.1,0.1,0.1c0.1,0,0.1-0.1,0.1-0.1c0,0,0,0,0-0.1l0-0.1l0,0c0,0,0,0,0,0
					c0,0.1,0.1,0.1,0.1,0.1c0.1,0,0.1,0,0.1-0.1c0,0,0,0,0,0c0,0,0,0,0,0c0,0,0.1,0.1,0.1,0.1C7.6,5.4,7.7,5.3,7.7,5.2
					C7.7,5.2,7.7,5.2,7.7,5.2L7.7,5.2"/>
				<path class="st47" d="M6.6,5.4C6.6,5.4,6.6,5.3,6.6,5.4C6.6,5.3,6.6,5.3,6.6,5.4C6.5,5.3,6.5,5.3,6.6,5.4
					c-0.1,0-0.1-0.1-0.1-0.1c0,0-0.1,0-0.1,0c0,0,0-0.1,0.1-0.1c0,0,0,0,0.1,0l0,0c0,0,0,0,0.1,0S6.6,5.3,6.6,5.4
					C6.6,5.3,6.6,5.3,6.6,5.4c0-0.1,0-0.1,0-0.1c0,0,0,0,0,0s0,0,0,0c0,0,0,0,0,0c0,0,0.1,0,0.1,0c0,0,0,0-0.1,0.1c0,0,0,0,0,0
					c0,0,0,0,0,0s0,0,0,0C6.7,5.4,6.7,5.4,6.6,5.4C6.7,5.4,6.6,5.4,6.6,5.4"/>
				<path class="st49" d="M6.5,5.3C6.6,5.3,6.6,5.3,6.5,5.3C6.6,5.4,6.6,5.4,6.5,5.3C6.6,5.4,6.6,5.4,6.5,5.3
					C6.5,5.4,6.5,5.3,6.5,5.3"/>
				<path class="st56" d="M6.8,5.4C6.8,5.3,6.8,5.3,6.8,5.4C6.9,5.3,6.9,5.3,6.8,5.4C6.9,5.4,6.9,5.4,6.8,5.4
					C6.9,5.4,6.8,5.4,6.8,5.4"/>
				<path class="st47" d="M7.1,5.2C7.1,5.2,7.1,5.2,7.1,5.2C7.1,5.2,7.1,5.2,7.1,5.2C7.1,5.2,7.1,5.2,7.1,5.2C7,5.2,7,5.2,7,5.2
					c0,0,0,0,0,0s0,0,0,0c0,0,0,0,0,0c0,0-0.1,0-0.1,0.1c0,0,0.1,0,0.1,0c0,0,0,0,0,0c0,0,0,0,0,0S7,5.3,7.1,5.2
					C7,5.3,7,5.3,7.1,5.2C7.1,5.3,7.1,5.2,7.1,5.2"/>
				<path class="st47" d="M7.1,5C7.1,5,7.1,5,7.1,5C7.1,5.1,7.1,5.1,7.1,5C7.2,5,7.2,5,7.2,5s0,0,0,0c0,0,0,0,0,0.1c0,0,0,0,0,0
					c0,0,0,0,0,0c0,0,0,0,0,0c0,0,0,0,0,0c0,0,0,0,0-0.1C7,5.1,7,5.1,7.1,5C7,5.1,7,5.1,7.1,5C7,5.1,7,5.1,7.1,5C7,5,7.1,5,7.1,5"/>
				<path class="st47" d="M7.2,5.2C7.2,5.2,7.2,5.2,7.2,5.2C7.2,5.2,7.2,5.2,7.2,5.2C7.2,5.2,7.2,5.2,7.2,5.2c0-0.1,0.1-0.1,0.1-0.1
					c0,0,0,0,0,0s0,0,0,0c0,0,0,0,0,0c0,0,0.1,0,0.1,0c0,0,0,0-0.1,0.1c0,0,0,0,0,0c0,0,0,0,0,0s0,0,0,0C7.3,5.3,7.2,5.3,7.2,5.2
					C7.2,5.2,7.2,5.2,7.2,5.2"/>
				<ellipse class="st49" cx="7.1" cy="5.2" rx="0.1" ry="0.1"/>
				<path class="st56" d="M7.4,5.2C7.4,5.2,7.4,5.2,7.4,5.2C7.4,5.2,7.4,5.2,7.4,5.2C7.5,5.3,7.4,5.3,7.4,5.2
					C7.4,5.3,7.4,5.3,7.4,5.2"/>
				<path class="st47" d="M7.7,5.2C7.7,5.2,7.7,5.2,7.7,5.2C7.7,5.1,7.7,5.1,7.7,5.2C7.7,5.1,7.6,5.1,7.7,5.2
					C7.6,5.1,7.6,5.1,7.6,5.1c0,0,0,0,0,0s0,0,0,0c0,0,0,0,0,0c0,0-0.1,0-0.1,0c0,0,0.1,0,0.1,0c0,0,0,0,0,0c0,0,0,0,0,0s0,0,0,0
					C7.6,5.2,7.6,5.2,7.7,5.2C7.6,5.2,7.7,5.2,7.7,5.2"/>
				<path class="st47" d="M7.7,4.9C7.7,4.9,7.8,5,7.7,4.9C7.8,5,7.8,5,7.7,4.9C7.8,5,7.8,5,7.8,5s0,0,0,0c0,0,0,0,0,0.1c0,0,0,0,0,0
					c0,0,0,0,0,0c0,0,0,0,0,0c0,0,0,0,0,0c0,0,0-0.1,0-0.1c0,0,0,0,0,0S7.6,5,7.7,4.9C7.7,5,7.7,5,7.7,4.9C7.7,5,7.7,4.9,7.7,4.9"/>
				<path class="st47" d="M7.8,5.2C7.8,5.2,7.8,5.2,7.8,5.2C7.8,5.1,7.8,5.1,7.8,5.2C7.8,5.1,7.8,5.1,7.8,5.2
					c0.1-0.1,0.1-0.1,0.1-0.1c0,0,0,0,0,0s0,0,0,0c0,0,0,0,0,0c0,0,0.1,0,0.1,0c0,0-0.1,0-0.1,0c0,0,0,0,0,0c0,0,0,0,0,0l0,0
					C7.9,5.2,7.8,5.2,7.8,5.2C7.8,5.2,7.8,5.2,7.8,5.2"/>
				<ellipse class="st49" cx="7.7" cy="5.2" rx="0.1" ry="0.1"/>
				<path class="st56" d="M8,5.2C8,5.2,8,5.2,8,5.2C8,5.2,8,5.2,8,5.2C8,5.3,8,5.3,8,5.2C8,5.3,8,5.3,8,5.2"/>
				<path class="st47" d="M8.3,5.2C8.3,5.2,8.3,5.2,8.3,5.2C8.3,5.2,8.3,5.2,8.3,5.2C8.3,5.2,8.3,5.2,8.3,5.2c0-0.1-0.1-0.1-0.1-0.1
					c0,0,0,0,0,0s0,0,0,0c0,0,0,0,0,0c0,0-0.1,0-0.1,0c0,0,0,0,0.1,0.1c0,0,0,0,0,0c0,0,0,0,0,0l0,0C8.2,5.3,8.2,5.3,8.3,5.2
					C8.2,5.2,8.3,5.2,8.3,5.2"/>
				<path class="st47" d="M8.3,5C8.3,5,8.3,5,8.3,5C8.3,5.1,8.3,5.1,8.3,5C8.3,5,8.2,5,8.2,5s0,0,0,0c0,0,0,0,0,0.1c0,0,0,0,0,0
					c0,0,0,0,0,0c0,0,0,0,0,0c0,0,0,0,0,0c0,0,0,0,0-0.1C8.4,5.1,8.4,5.1,8.3,5C8.4,5.1,8.4,5.1,8.3,5C8.4,5.1,8.4,5.1,8.3,5
					C8.4,5,8.4,5,8.3,5"/>
				<path class="st47" d="M8.3,5.2C8.3,5.2,8.4,5.2,8.3,5.2C8.4,5.2,8.4,5.2,8.3,5.2C8.3,5.2,8.4,5.2,8.3,5.2
					c0.1-0.1,0.1-0.1,0.1-0.1c0,0,0,0,0,0s0,0,0,0c0,0,0,0,0,0c0,0,0.1,0,0.1,0.1c0,0-0.1,0-0.1,0c0,0,0,0,0,0c0,0,0,0,0,0
					S8.4,5.3,8.3,5.2C8.4,5.3,8.4,5.3,8.3,5.2C8.4,5.3,8.3,5.2,8.3,5.2"/>
				<ellipse class="st49" cx="8.3" cy="5.2" rx="0.1" ry="0.1"/>
				<path class="st56" d="M8.6,5.4C8.6,5.3,8.6,5.3,8.6,5.4C8.6,5.3,8.5,5.3,8.6,5.4C8.5,5.4,8.5,5.4,8.6,5.4
					C8.6,5.4,8.6,5.4,8.6,5.4"/>
				<path class="st47" d="M8.8,5.4C8.8,5.4,8.8,5.3,8.8,5.4C8.8,5.3,8.9,5.3,8.8,5.4C8.9,5.3,8.9,5.3,8.8,5.4c0.1,0,0.1-0.1,0.1-0.1
					c0,0,0.1,0,0.1,0c0,0,0-0.1-0.1-0.1c0,0,0,0-0.1,0l0,0c0,0,0,0-0.1,0C8.8,5.3,8.8,5.3,8.8,5.4C8.8,5.3,8.8,5.3,8.8,5.4
					c0-0.1,0-0.1,0-0.1c0,0,0,0,0,0s0,0,0,0c0,0,0,0,0,0c0,0-0.1,0-0.1,0c0,0,0,0,0.1,0.1c0,0,0,0,0,0c0,0,0,0,0,0s0,0,0,0
					C8.7,5.4,8.7,5.4,8.8,5.4C8.8,5.4,8.8,5.4,8.8,5.4"/>
				<path class="st49" d="M8.9,5.3C8.9,5.3,8.8,5.3,8.9,5.3C8.8,5.4,8.8,5.4,8.9,5.3C8.8,5.4,8.8,5.4,8.9,5.3
					C8.9,5.4,8.9,5.3,8.9,5.3"/>
			</g>
			<g>
				<path class="st50" d="M7.7,5.8c-0.3,0-0.5,0-0.7-0.1c0.2-0.1,0.5-0.1,0.7-0.1c0.3,0,0.5,0,0.7,0.1C8.3,5.8,8,5.8,7.7,5.8
					L7.7,5.8z"/>
				<path class="st32" d="M7.9,5.8V5.7 M7.8,5.8l0-0.2 M7.8,5.8V5.7"/>
				<path class="st36" d="M7.7,5.8V5.7"/>
				<path class="st41" d="M7.7,5.8V5.7"/>
				<path class="st43" d="M7.6,5.8V5.7"/>
				<path class="st57" d="M7.6,5.8V5.7"/>
				<path class="st58" d="M7.6,5.8V5.7"/>
				<path class="st59" d="M7.5,5.8l0-0.2 M7.5,5.8V5.7"/>
				<path class="st60" d="M7.4,5.8V5.7 M7.5,5.8l0-0.2"/>
				<path class="st61" d="M7.3,5.8V5.7 M7.4,5.8V5.7 M7.4,5.8V5.7"/>
				<path class="st62" d="M7.3,5.8V5.7"/>
				<path class="st63" d="M7.3,5.8V5.7"/>
				<path class="st64" d="M7.2,5.8V5.7"/>
				<path class="st65" d="M7.2,5.8L7.2,5.8 M7.2,5.8L7.2,5.8"/>
				<path class="st66" d="M7.1,5.8L7.1,5.8"/>
				<path class="st67" d="M7.1,5.8L7.1,5.8"/>
				<path class="st68" d="M7.1,5.8L7.1,5.8"/>
				<path class="st69" d="M7,5.8L7,5.8"/>
				<path class="st70" d="M7,5.8L7,5.8"/>
				<path class="st48" d="M6.9,5.8c0.2-0.1,0.5-0.1,0.8-0.1c0.3,0,0.6,0,0.8,0.1"/>
				<path class="st49" d="M6.8,5.6L6.8,5.6l0.1,0L6.8,5.6L6.8,5.6"/>
				<path class="st56" d="M7,5.6C7,5.6,7,5.6,7,5.6C7.1,5.6,7.1,5.6,7,5.6C7.1,5.6,7.1,5.6,7,5.6C7,5.6,7,5.6,7,5.6"/>
				<path class="st71" d="M7.3,5.6L7.3,5.6C7.2,5.6,7.2,5.6,7.3,5.6C7.2,5.6,7.2,5.5,7.3,5.6L7.3,5.6L7.3,5.6
					C7.4,5.5,7.4,5.5,7.3,5.6C7.4,5.6,7.4,5.6,7.3,5.6L7.3,5.6"/>
				<path class="st56" d="M7.5,5.5C7.5,5.5,7.5,5.5,7.5,5.5C7.5,5.5,7.5,5.5,7.5,5.5C7.5,5.6,7.5,5.6,7.5,5.5
					C7.5,5.6,7.5,5.6,7.5,5.5"/>
				<path class="st49" d="M7.7,5.6L7.7,5.6c-0.1,0-0.1,0-0.1,0C7.6,5.5,7.6,5.5,7.7,5.6L7.7,5.6c0.1-0.1,0.1,0,0.1,0
					C7.8,5.6,7.8,5.6,7.7,5.6L7.7,5.6"/>
				<path class="st56" d="M7.9,5.5C7.9,5.5,7.9,5.5,7.9,5.5C7.9,5.5,8,5.5,7.9,5.5C8,5.6,7.9,5.6,7.9,5.5C7.9,5.6,7.9,5.6,7.9,5.5"
					/>
				<path class="st71" d="M8.1,5.6L8.1,5.6C8.2,5.6,8.2,5.6,8.1,5.6C8.2,5.6,8.2,5.5,8.1,5.6L8.1,5.6L8.1,5.6
					C8.1,5.5,8.1,5.5,8.1,5.6C8.1,5.6,8.1,5.6,8.1,5.6L8.1,5.6"/>
				<path class="st56" d="M8.3,5.6C8.3,5.6,8.3,5.6,8.3,5.6C8.4,5.6,8.4,5.6,8.3,5.6C8.4,5.6,8.4,5.6,8.3,5.6
					C8.3,5.6,8.3,5.6,8.3,5.6"/>
				<path class="st49" d="M8.6,5.6L8.6,5.6l-0.1,0L8.6,5.6L8.6,5.6"/>
			</g>
		</g>
		<g id="shield">
			<g id="Granada">
				<path class="st72" d="M7.7,9C7.4,9,7,8.9,6.8,8.7C6.6,8.6,6.4,8.4,6.4,8.2V7.3H9v0.9c0,0.2-0.1,0.4-0.3,0.6C8.4,8.9,8.1,9,7.7,9
					L7.7,9z"/>
				<path class="st73" d="M7.8,8.6c0.1,0,0.1,0.1,0.1,0.1c0,0.1-0.1,0.1-0.1,0.1c-0.1,0-0.1,0-0.1-0.1c0,0,0-0.1,0.1-0.1
					c0,0,0,0,0,0c0,0,0,0,0,0s0,0,0,0C7.7,8.5,7.7,8.6,7.8,8.6C7.7,8.6,7.7,8.5,7.8,8.6C7.7,8.5,7.7,8.5,7.8,8.6
					C7.7,8.5,7.7,8.5,7.8,8.6C7.7,8.5,7.8,8.6,7.8,8.6C7.8,8.6,7.8,8.5,7.8,8.6C7.8,8.5,7.8,8.5,7.8,8.6C7.8,8.5,7.8,8.5,7.8,8.6
					C7.8,8.6,7.8,8.6,7.8,8.6"/>
				<path class="st74" d="M7.7,8.8c0,0-0.1-0.1-0.1-0.1c-0.1,0-0.1,0-0.1,0c0,0,0,0,0,0c0,0,0.1,0,0.1,0C7.6,8.9,7.7,8.8,7.7,8.8"/>
				<path class="st74" d="M7.7,8.9c0,0,0.1-0.1,0.1-0.1c0.1,0,0.1,0,0.2,0c0,0,0,0,0,0c0,0-0.1,0-0.1,0C7.8,8.9,7.8,8.8,7.7,8.9
					C7.8,8.9,7.7,8.9,7.7,8.9"/>
				<path class="st75" d="M7.7,8.8C7.7,8.7,7.7,8.7,7.7,8.8c0-0.1,0-0.2,0-0.2C7.8,8.6,7.8,8.6,7.7,8.8C7.8,8.7,7.8,8.7,7.7,8.8"/>
				<path class="st74" d="M7.7,8.9C7.7,8.9,7.7,8.9,7.7,8.9c0-0.1,0-0.1,0-0.1h0h0C7.7,8.8,7.7,8.8,7.7,8.9C7.7,8.9,7.7,8.9,7.7,8.9
					C7.7,8.9,7.7,8.9,7.7,8.9C7.7,8.9,7.7,8.9,7.7,8.9"/>
			</g>
			<g id="Aragon">
				<path class="st75" d="M7.7,8.2c0,0.3-0.3,0.6-0.7,0.6c-0.4,0-0.7-0.3-0.7-0.6V7.3h1.3V8.2"/>
				<path class="st76" d="M6.4,8.2c0,0.2,0.1,0.3,0.1,0.4V7.3H6.4L6.4,8.2L6.4,8.2z"/>
				<path class="st76" d="M6.7,8.7c0,0,0.1,0.1,0.2,0.1l0-1.5H6.7V8.7z"/>
				<path class="st76" d="M7,8.8c0.1,0,0.1,0,0.2,0V7.3H7V8.8z"/>
				<path class="st76" d="M7.3,8.8c0.1,0,0.1,0,0.2-0.1V7.3H7.3L7.3,8.8L7.3,8.8z"/>
				<path class="st76" d="M7.6,8.6c0.1-0.1,0.1-0.2,0.1-0.3l0-0.9H7.6L7.6,8.6z"/>
			</g>
			<g id="Navarre">
				<path class="st75" d="M9,7.3v0.9c0,0.3-0.3,0.6-0.7,0.6C8,8.8,7.7,8.5,7.7,8.2V7.3H9"/>
				<path id="chains_half" class="st77" d="M8.3,8C8.3,8,8.3,8,8.3,8L8.2,7.8l0,0L8.1,7.8l0,0L8,7.6c0,0,0,0,0,0l0,0.1l0,0v0.1l0,0
					l0,0.1c0,0,0,0,0,0l0.1,0l0,0L8.3,8L8.3,8L8.3,8z M8.1,7.5L8.1,7.5L8.1,7.5L8.1,7.5L8.1,7.5z M7.9,8C7.9,8,8,8,7.9,8
					C8,8,7.9,8,7.9,8C7.9,8,7.9,8,7.9,8C7.9,8,7.9,8,7.9,8z M8.3,7.8L8.3,7.8l0-0.1l0,0l0,0c0,0,0,0,0,0H8.2l0,0H8.1l0,0H8
					c0,0,0,0,0,0l0.1,0.2l0,0L8.3,7.8l-0.1,0l0.1,0.1c0,0,0,0,0,0L8.3,7.8z M8.2,7.7L8.2,7.7L8.2,7.7L8.2,7.7L8.2,7.7z M8.4,8.7
					C8.3,8.7,8.3,8.6,8.4,8.7C8.3,8.6,8.2,8.6,8.2,8.6l0,0C8.2,8.6,8.3,8.6,8.4,8.7c-0.1-0.1,0-0.1,0-0.1l0-0.1l0,0V8.3l0,0V8
					c0,0,0,0,0,0L8.2,8.2l0,0L8.2,8.3l0,0L8.1,8.4c0,0,0,0.1,0,0.1c0,0,0.1,0.1,0.1,0.1l0,0c0,0-0.1-0.1-0.1-0.1c0,0,0,0-0.1,0
					c0,0,0-0.1,0-0.1l0,0c0,0,0-0.1,0-0.1l0,0c0,0,0,0.1,0,0.1c0,0,0,0,0,0l0.1-0.1l0,0l0.1-0.1l0,0L8.3,8c0,0,0,0,0,0L8.2,8l0,0
					H8.1l0,0L8,8c0,0,0,0,0,0l0,0.1l0,0V8c0,0,0,0,0-0.1c0,0,0-0.1,0-0.1l0-0.1l0,0V7.7l0,0V7.6c0,0,0,0,0-0.1c0,0,0-0.1,0.1-0.1
					c0,0,0.1,0,0.1,0h0.1l0,0h0.1l0,0h0.1c0,0,0,0,0.1,0l0,0.2h0v0.1h0l0,0.6h0v0.1h0L8.4,8.7z M8.2,8.2L8.2,8.2L8.2,8.2L8.2,8.2
					L8.2,8.2z M7.9,7.7L7.9,7.7L7.9,7.7L7.9,7.7L7.9,7.7z M8.2,8L8.2,8L8.2,8L8.2,8L8.2,8z M7.9,8.3L7.9,8.3L7.9,8.1l0,0L7.9,8.3
					C7.9,8.2,7.9,8.2,7.9,8.3L7.9,8.3z M8,8.1L8,8.1C8,8.1,8,8.2,8,8.1C8,8.2,8,8.2,8,8.2l0,0C8,8.2,8,8.2,8,8.1L8,8.1z M8.2,8.5
					L8.2,8.5C8.2,8.5,8.2,8.5,8.2,8.5L8.1,8.5C8.1,8.5,8.2,8.5,8.2,8.5L8.2,8.5z M8.2,8.6L8.2,8.6c-0.1,0-0.1,0-0.1,0l0,0
					C8.1,8.5,8.2,8.6,8.2,8.6L8.2,8.6z"/>
				<g transform="matrix(-1,0,0,1,550.43,0)">
					<path id="chains_half_00000168797845848634983160000017920757117455118728_" class="st77" d="M8.4,8C8.4,8,8.4,8,8.4,8l0.1-0.1
						l0,0l0.1-0.1l0,0l0.1-0.2c0,0,0,0,0,0l0,0.1l0,0v0.1l0,0l0,0.1c0,0,0,0,0,0L8.6,8l0,0L8.4,8L8.4,8L8.4,8z M8.6,7.5L8.6,7.5
						L8.6,7.5L8.6,7.5L8.6,7.5z M8.8,8C8.8,8,8.8,8,8.8,8C8.8,8,8.8,8,8.8,8C8.8,8,8.8,8,8.8,8C8.8,8,8.8,8,8.8,8z M8.4,7.8L8.4,7.8
						l0-0.1l0,0l0,0c0,0,0,0,0,0h0.1l0,0h0.1l0,0h0.1c0,0,0,0,0,0L8.6,7.7l0,0L8.4,7.8l0.1,0L8.4,7.9c0,0,0,0,0,0L8.4,7.8z M8.6,7.7
						L8.6,7.7L8.6,7.7L8.6,7.7L8.6,7.7z M8.4,8.7C8.4,8.7,8.4,8.6,8.4,8.7c0.1-0.1,0.1-0.1,0.2-0.1l0,0C8.5,8.6,8.5,8.6,8.4,8.7
						c0.1-0.1,0-0.1,0-0.1l0-0.1l0,0V8.3l0,0V8c0,0,0,0,0,0l0.1,0.1l0,0l0.1,0.1l0,0l0.1,0.1c0,0,0,0.1,0,0.1c0,0-0.1,0.1-0.1,0.1
						l0,0c0,0,0.1-0.1,0.1-0.1c0,0,0,0,0.1,0c0,0,0-0.1,0-0.1l0,0c0,0,0-0.1,0-0.1l0,0c0,0,0,0.1,0,0.1c0,0,0,0,0,0L8.6,8.2l0,0
						L8.6,8.1l0,0L8.4,8c0,0,0,0,0,0l0.1,0l0,0h0.1l0,0l0.1,0c0,0,0,0,0,0l0,0.1l0,0V8c0,0,0,0,0-0.1c0,0,0-0.1,0-0.1l0-0.1l0,0V7.7
						l0,0V7.6c0,0,0,0,0-0.1c0,0,0-0.1-0.1-0.1c0,0-0.1,0-0.1,0H8.6l0,0H8.5l0,0H8.4c0,0,0,0-0.1,0l0,0.2h0v0.1h0l0,0.6h0v0.1h0
						L8.4,8.7z M8.5,8.2L8.5,8.2L8.5,8.2L8.5,8.2L8.5,8.2z M8.8,7.7L8.8,7.7L8.8,7.7L8.8,7.7L8.8,7.7z M8.5,8L8.5,8L8.5,8L8.5,8
						L8.5,8z M8.8,8.3L8.8,8.3l0.1-0.1l0,0L8.8,8.3C8.8,8.2,8.8,8.2,8.8,8.3L8.8,8.3z M8.8,8.1L8.8,8.1C8.7,8.1,8.7,8.2,8.8,8.1
						c0,0-0.1,0.1-0.1,0.1l0,0C8.8,8.2,8.8,8.2,8.8,8.1L8.8,8.1z M8.5,8.5L8.5,8.5C8.5,8.5,8.6,8.5,8.5,8.5l0.1-0.1
						C8.6,8.5,8.5,8.5,8.5,8.5L8.5,8.5z M8.5,8.6L8.5,8.6c0.1,0,0.1,0,0.1,0l0,0C8.6,8.5,8.6,8.6,8.5,8.6L8.5,8.6z"/>
				</g>
				<path class="st78" d="M8.3,8C8.3,7.9,8.3,7.9,8.3,8c0.1-0.1,0.1,0,0.1,0C8.4,8,8.4,8,8.3,8C8.3,8,8.3,8,8.3,8"/>
			</g>
			<g id="Castile">
				<path class="st75" d="M6.4,7.3h1.3V5.9H6.4V7.3z"/>
				<path class="st79" d="M6.9,6.2L6.9,6.2L6.9,6.2L6.9,6.2L6.9,6.2L6.9,6.2l0,0.1H6.7v0.2h0v0.4H6.7v0.2h0.7V6.9H7.3V6.5h0V6.3H7.3
					V6.3h0V6.2h0v0h0v0h0v0h0v0h0v0.1h0v0.1H7.1V6.1h0V6h0v0h0v0h0v0h0v0h0v0.1h0v0.2H6.9L6.9,6.2L7,6.3V6.2L6.9,6.2L6.9,6.2
					L6.9,6.2L6.9,6.2L6.9,6.2L6.9,6.2L6.9,6.2z M6.7,7.1h0.7 M6.7,7.1h0.7 M6.7,7h0.7 M6.7,7h0.7 M6.7,6.9h0.7 M6.8,6.9h0.5
					 M6.8,6.8h0.5 M6.8,6.8h0.5 M6.8,6.7h0.5 M6.8,6.7h0.5 M6.8,6.6h0.5 M6.8,6.6h0.5 M6.7,6.5h0.6 M6.7,6.5h0.6 M6.7,6.4h0.6
					 M6.7,6.4h0.6 M6.8,6.3h0.5 M7,6.3L7,6.3 M7,6.2L7,6.2 M7,6.2L7,6.2 M7,6.1L7,6.1 M7,6.1h0.2 M6.8,6.3L6.8,6.3 M6.8,6.2H7
					 M6.8,7.1L6.8,7.1 M6.8,7L6.8,7 M6.7,7L6.7,7 M6.8,7.1L6.8,7.1 M6.9,7.1L6.9,7.1 M6.9,7L6.9,7 M6.9,6.9L6.9,6.9 M6.9,6.8
					L6.9,6.8 M6.8,7L6.8,7 M6.7,7L6.7,7 M6.9,6.9L6.9,6.9 M7,6.9L7,6.9 M6.8,6.8L6.8,6.8 M6.9,6.8L6.9,6.8 M7,6.8L7,6.8 M7,6.8
					L7,6.8 M7,6.7L7,6.7 M7,6.6L7,6.6 M7,6.6L7,6.6 M7,6.5L7,6.5 M6.9,6.5L6.9,6.5 M6.8,6.5L6.8,6.5 M6.8,6.5L6.8,6.5 M6.9,6.5
					L6.9,6.5 M7,6.5L7,6.5 M7,6.4L7,6.4 M6.9,6.4L6.9,6.4 M6.8,6.4L6.8,6.4 M6.8,6.4L6.8,6.4 M7,6.4L7,6.4 M6.9,6.3L6.9,6.3
					 M7.3,6.3L7.3,6.3 M7.3,6.2H7.2 M7.3,7.1L7.3,7.1 M7.3,7L7.3,7 M7.4,7L7.4,7 M7.3,7.1L7.3,7.1 M7.2,7.1L7.2,7.1 M7.2,7L7.2,7
					 M7.2,6.9L7.2,6.9 M7.2,6.8L7.2,6.8 M7.3,7L7.3,7 M7.4,7L7.4,7 M7.2,6.9L7.2,6.9 M7.2,6.9L7.2,6.9 M7.3,6.8L7.3,6.8 M7.2,6.8
					L7.2,6.8 M7.1,6.8L7.1,6.8 M7.2,6.8L7.2,6.8 M7.1,6.7L7.1,6.7 M7.1,6.6L7.1,6.6 M7.2,6.6L7.2,6.6 M7.1,6.5L7.1,6.5 M7.2,6.5
					L7.2,6.5 M7.3,6.5L7.3,6.5 M7.3,6.5L7.3,6.5 M7.2,6.5L7.2,6.5 M7.2,6.5L7.2,6.5 M7.1,6.4L7.1,6.4 M7.2,6.4L7.2,6.4 M7.3,6.4
					L7.3,6.4 M7.3,6.4L7.3,6.4 M7.2,6.4L7.2,6.4 M7.2,6.3L7.2,6.3 M7.1,6.8L7.1,6.8 M7.1,6.6L7.1,6.6 M7.1,6.7L7.1,6.7 M7.1,6.5
					L7.1,6.5 M7.1,6.4L7.1,6.4 M7.1,6.3L7.1,6.3 M7.1,6.2L7.1,6.2 M6.8,6.3L6.8,6.3 M7,6.1L7,6.1 M7.2,6.3L7.2,6.3"/>
				<path class="st79" d="M7.2,7.1V7c0,0,0-0.1-0.1-0.1C7,6.9,6.9,7,6.9,7v0.1H7.2z"/>
				<path class="st79" d="M7,7L7,7C6.9,7,6.9,6.9,7,7L7,7C7,7,7,7,7,7z"/>
				<path class="st79" d="M7.1,6.9L7.1,6.9C7.1,6.9,7.1,6.9,7.1,6.9C7.1,6.9,7,6.9,7.1,6.9L7.1,6.9L7.1,6.9L7.1,6.9z"/>
				<path class="st79" d="M7.1,7L7.1,7C7.2,7,7.2,6.9,7.1,7L7.1,7C7.1,7,7.1,7,7.1,7z"/>
				<path class="st79" d="M7,6.8V6.6c0,0,0-0.1-0.1-0.1s-0.1,0-0.1,0.1v0.1H7L7,6.8z"/>
				<path class="st79" d="M7.2,6.8V6.6c0,0,0-0.1,0.1-0.1c0,0,0.1,0,0.1,0.1v0.1H7.2z"/>
				<path class="st79" d="M6.9,6.5l0-0.1H6.8L6.9,6.5L6.9,6.5z"/>
				<path class="st79" d="M7.1,6.5l0-0.1H7L7.1,6.5L7.1,6.5z"/>
				<path class="st79" d="M7.2,6.5l0-0.1h0.1L7.2,6.5L7.2,6.5L7.2,6.5z"/>
				<g>
					<path class="st80" d="M7.1,7.1V7c0,0,0-0.1-0.1-0.1C7,6.9,7,7,7,7v0.1H7.1L7.1,7.1z"/>
					<path class="st80" d="M7,6.8V6.7c0,0,0-0.1-0.1-0.1s-0.1,0-0.1,0.1v0.1H7z"/>
					<path class="st80" d="M7.2,6.8V6.7c0,0,0-0.1,0.1-0.1c0,0,0.1,0,0.1,0.1v0.1H7.2z"/>
				</g>
			</g>
			<g id="Leon">
				<path class="st72" d="M7.7,7.3H9V5.9H7.7V7.3z"/>
				<path class="st81" d="M8.4,6.2L8.4,6.2L8.4,6.2C8.4,6.2,8.3,6.2,8.4,6.2c-0.1,0-0.1,0-0.1-0.1c0,0,0,0,0,0c0,0-0.1,0-0.1,0
					s0,0,0,0c0,0,0,0,0.1,0C8.3,6.2,8.3,6.2,8.4,6.2C8.3,6.2,8.4,6.2,8.4,6.2L8.4,6.2z"/>
				<g>
					<path class="st82" d="M8.6,6.2C8.6,6.2,8.6,6.2,8.6,6.2C8.6,6.2,8.6,6.2,8.6,6.2c0,0.1,0,0.1,0,0.1c0,0,0,0,0,0s0,0,0,0
						c0,0,0,0,0,0s0,0,0,0c0,0,0,0,0,0c0,0,0,0,0,0c0,0,0,0,0,0s0,0,0,0c0,0,0,0,0,0s0,0,0,0c0,0,0,0,0,0s0,0,0,0c0,0,0,0,0,0
						s0,0,0,0.1c0,0,0,0.1,0,0.1s0,0,0,0c0,0,0,0,0,0c0,0,0,0,0,0c0,0,0,0.1,0,0.1c0,0,0.1,0.1,0.1,0.1c0.1,0,0.1-0.1,0-0.2
						c0-0.1,0-0.1,0-0.1c0,0,0-0.1,0-0.1c0,0,0-0.1,0-0.1c0,0,0,0,0-0.1c0,0,0,0,0,0c0,0,0,0,0,0s0,0,0,0c0,0,0,0,0,0s0,0,0,0
						c0,0,0,0,0.1,0c0,0,0,0,0,0s0,0,0,0.1c0,0,0,0.1,0,0.1s0,0,0,0c0,0,0,0,0,0s0,0,0,0c0,0,0,0,0,0.1c0,0,0,0,0,0c0,0,0,0.1,0,0.1
						c0,0,0.1,0.1,0.1,0.2c0,0,0,0.1,0,0.1c0,0-0.1,0-0.1,0c0,0,0,0,0,0.1c0,0,0,0.1,0,0.1c0,0,0,0,0,0c0,0,0,0,0,0c0,0,0,0,0,0
						c0,0,0,0,0,0c0,0,0,0.1,0,0.1c0,0,0,0,0,0c0,0,0,0,0,0c0,0,0,0,0,0c0,0,0,0,0,0c0,0,0,0,0,0c0,0,0,0,0,0c0,0,0,0,0,0
						c0,0,0,0,0,0s0,0,0,0s0,0,0,0c0,0,0,0,0,0c0,0,0,0,0,0c0,0,0,0,0,0c0,0,0,0,0,0c0,0,0,0,0,0c0,0,0,0,0,0c0,0,0,0,0,0
						c0,0,0,0,0,0c0,0,0,0,0,0c0,0,0,0,0,0c0,0,0,0,0,0s0,0,0,0c0,0,0,0,0,0s0,0,0,0c0,0,0,0,0,0s0,0,0,0c0,0,0,0,0,0c0,0,0,0,0,0
						c0,0,0,0,0,0c0,0,0,0,0,0c0,0,0,0,0,0c0,0,0,0,0,0h0c0,0,0,0,0,0c0,0,0,0,0,0.1c0,0,0,0.1,0,0.1c0,0,0,0,0,0c0,0,0,0,0,0
						c0,0,0,0,0,0c0,0,0,0,0,0c0,0,0,0,0,0c0,0,0,0,0,0c0,0,0,0,0,0c0,0,0,0,0,0c0,0,0,0,0,0c0,0,0,0,0,0c0,0,0,0,0,0c0,0,0,0,0,0
						c0,0,0,0,0,0c0,0,0,0,0,0c0,0,0,0,0,0c0,0,0,0,0,0c0,0,0,0,0,0c0,0,0,0,0,0c0,0,0,0,0,0c0,0,0,0,0,0c0,0,0,0,0,0c0,0,0,0,0.1,0
						c0,0,0,0,0,0c0,0,0,0,0,0c0,0,0,0,0,0s0,0,0,0c0,0,0,0,0,0s0,0,0,0c0,0,0,0,0,0c0,0,0,0,0,0s0,0,0,0c0,0,0,0,0,0s0,0,0,0
						c0,0,0,0,0-0.1c0,0,0,0,0.1,0c0,0,0.1,0,0.1,0c0,0,0.1,0,0.1,0s-0.1,0-0.1-0.1c0,0,0,0-0.1-0.1c0,0,0,0,0,0s0,0,0,0
						c0,0,0,0,0,0c0,0,0,0,0,0s0,0,0,0s0,0,0,0s0,0,0,0c0,0,0,0,0,0s0,0,0,0c0,0,0,0,0,0s0,0,0,0c0,0,0,0,0,0c0,0,0,0,0,0s0,0,0,0
						s0,0,0,0c0,0,0,0,0,0s0,0,0,0c0,0,0,0,0,0c0,0,0,0,0,0c0,0,0,0,0,0c0,0,0,0,0,0c0,0,0,0,0,0c0,0,0,0,0,0c0,0,0,0,0,0
						c0,0,0,0,0,0c0,0,0,0,0,0c0,0,0,0,0,0c0,0,0,0,0,0c0,0,0,0,0.1,0c0,0,0,0,0,0c0,0,0,0,0,0s0,0,0,0c0,0,0,0,0,0c0,0,0,0,0,0
						c0,0,0,0,0,0s0,0,0,0c0,0,0,0,0,0c0,0,0,0,0,0s0,0,0,0c0,0,0,0,0,0c0,0,0,0,0,0s0,0,0,0c0,0,0,0,0,0s0,0,0,0c0,0,0,0,0,0
						c0,0,0,0,0,0c0,0,0,0,0,0s0,0,0,0c0,0,0,0,0,0c0,0,0,0,0,0c0,0,0,0,0,0c0,0,0,0,0,0c0,0,0,0,0,0c0,0,0,0,0,0c0,0,0,0,0,0
						c0,0,0,0,0,0c0,0,0,0,0,0c0,0,0,0,0,0c0,0,0,0,0,0c0,0,0,0,0,0c0,0,0,0,0,0c0,0,0,0,0,0c0,0,0,0,0,0s0,0,0,0c0,0,0,0,0.1,0
						s0,0,0,0s0,0,0,0s0.1,0,0.1,0c0,0,0,0,0,0c0,0,0,0,0,0c0,0,0,0,0,0c0,0,0,0,0.1,0c0,0,0,0,0,0c0,0,0,0-0.1,0c0,0,0,0,0,0
						c0,0,0,0,0,0c0,0,0,0,0.1,0c0,0,0,0,0,0c0,0,0,0,0,0S8.5,6.1,8.6,6.2C8.5,6.1,8.6,6.2,8.6,6.2"/>
					<path class="st48" d="M8.2,6.3C8.2,6.3,8.2,6.3,8.2,6.3C8.2,6.4,8.2,6.4,8.2,6.3C8.2,6.4,8.2,6.4,8.2,6.3
						C8.2,6.4,8.2,6.4,8.2,6.3C8.2,6.4,8.3,6.4,8.2,6.3C8.3,6.4,8.3,6.4,8.2,6.3c0.1,0.1,0.1,0.1,0.1,0.1c0,0,0,0,0,0s0,0,0,0
						c0,0,0,0,0,0c0,0,0,0,0,0s0,0,0,0c0,0,0,0,0,0s0,0,0,0c0,0,0,0,0,0c0,0,0,0,0,0s0,0,0,0c0,0,0,0,0,0s0,0,0,0c0,0,0,0,0,0
						c0,0,0,0,0,0l0,0 M8.2,6.5C8.2,6.5,8.2,6.4,8.2,6.5C8.2,6.4,8.2,6.4,8.2,6.5C8.2,6.4,8.3,6.4,8.2,6.5 M8.3,6.5
						C8.3,6.5,8.3,6.5,8.3,6.5C8.3,6.5,8.3,6.5,8.3,6.5"/>
					<path class="st23" d="M8.6,6.3C8.6,6.3,8.5,6.3,8.6,6.3C8.5,6.2,8.5,6.2,8.6,6.3"/>
					<path class="st48" d="M8.4,6.7C8.4,6.7,8.5,6.7,8.4,6.7c0,0.1,0,0.1,0,0.1"/>
				</g>
				<path class="st83" d="M8.3,6.1C8.3,6.1,8.3,6.1,8.3,6.1C8.3,6.1,8.3,6.1,8.3,6.1C8.3,6.1,8.3,6.1,8.3,6.1
					C8.3,6.1,8.3,6.1,8.3,6.1C8.3,6.1,8.3,6.1,8.3,6.1L8.3,6.1z"/>
				<path class="st84" d="M8.4,6.1L8.4,6.1C8.4,6.1,8.4,6.1,8.4,6.1C8.5,6.1,8.5,6.1,8.4,6.1C8.5,6.1,8.4,6.1,8.4,6.1
					C8.4,6.1,8.4,6.1,8.4,6.1C8.4,6.1,8.4,6.1,8.4,6.1C8.4,6.1,8.4,6.1,8.4,6.1L8.4,6.1z"/>
				<g>
					<path class="st83" d="M8.3,6.2L8.3,6.2L8.3,6.2L8.3,6.2"/>
					<path class="st83" d="M8.3,6.2L8.3,6.2L8.3,6.2L8.3,6.2"/>
					<path class="st83" d="M8.3,6.2L8.3,6.2L8.3,6.2L8.3,6.2"/>
					<path class="st83" d="M8.3,6.2L8.3,6.2L8.3,6.2L8.3,6.2"/>
				</g>
				<g>
					<path class="st81" d="M8,6.1C8,6.1,8,6.1,8,6.1C8,6.1,8.1,6.1,8,6.1C8.1,6.1,8.1,6.1,8,6.1C8.1,6.1,8,6.1,8,6.1
						C8,6.1,8,6.1,8,6.1C8,6.1,8,6.1,8,6.1L8,6.1z"/>
					<path class="st81" d="M8,6.2C8,6.2,7.9,6.1,8,6.2C7.9,6.2,7.9,6.2,8,6.2C7.9,6.2,7.9,6.2,8,6.2C7.9,6.2,7.9,6.2,8,6.2
						C7.9,6.2,7.9,6.2,8,6.2C8,6.2,8,6.2,8,6.2L8,6.2z"/>
					<path class="st81" d="M7.9,6.2C7.9,6.2,7.9,6.2,7.9,6.2C7.9,6.3,7.9,6.3,7.9,6.2C7.9,6.3,7.9,6.3,7.9,6.2
						C7.9,6.3,7.9,6.3,7.9,6.2C7.9,6.3,7.9,6.3,7.9,6.2C7.9,6.3,7.9,6.2,7.9,6.2L7.9,6.2z"/>
					<path class="st81" d="M8,6.5C8,6.5,8,6.5,8,6.5C7.9,6.5,7.9,6.5,8,6.5C7.9,6.5,8,6.5,8,6.5C8,6.5,8,6.5,8,6.5
						C8,6.5,8,6.5,8,6.5C8,6.5,8,6.5,8,6.5L8,6.5z"/>
					<path class="st81" d="M8,6.6C8,6.6,8,6.6,8,6.6C7.9,6.6,7.9,6.6,8,6.6C7.9,6.6,7.9,6.6,8,6.6C8,6.6,8,6.6,8,6.6
						C8,6.6,8,6.6,8,6.6C8,6.6,8,6.6,8,6.6L8,6.6z"/>
					<path class="st81" d="M8,6.7C8,6.7,8,6.7,8,6.7C8,6.7,8,6.7,8,6.7C8,6.7,8,6.7,8,6.7C8,6.7,8.1,6.7,8,6.7C8.1,6.7,8,6.7,8,6.7
						C8,6.7,8,6.7,8,6.7L8,6.7z"/>
					<path class="st81" d="M8.2,6.8C8.2,6.8,8.2,6.8,8.2,6.8C8.2,6.8,8.1,6.8,8.2,6.8C8.1,6.8,8.2,6.8,8.2,6.8
						C8.2,6.9,8.2,6.9,8.2,6.8C8.2,6.9,8.2,6.9,8.2,6.8C8.2,6.9,8.2,6.8,8.2,6.8L8.2,6.8z"/>
					<path class="st81" d="M8.1,6.9C8.1,6.9,8.1,6.9,8.1,6.9C8.1,6.9,8.1,7,8.1,6.9C8.1,7,8.1,6.9,8.1,6.9C8.1,6.9,8.2,7,8.1,6.9
						C8.2,7,8.2,6.9,8.1,6.9C8.1,6.9,8.1,6.9,8.1,6.9L8.1,6.9z"/>
					<path class="st81" d="M8.2,7C8.2,7,8.2,7,8.2,7C8.2,7,8.2,7,8.2,7C8.2,7,8.2,7,8.2,7C8.2,7,8.2,7,8.2,7L8.2,7L8.2,7z"/>
					<path class="st81" d="M8.5,7C8.5,7,8.5,7,8.5,7C8.5,7,8.5,7.1,8.5,7C8.5,7.1,8.5,7,8.5,7C8.5,7,8.5,7.1,8.5,7
						C8.5,7.1,8.5,7,8.5,7C8.5,7,8.5,7,8.5,7L8.5,7z"/>
					<path class="st81" d="M8.5,7.1C8.5,7.1,8.5,7.1,8.5,7.1C8.5,7.1,8.5,7.2,8.5,7.1C8.5,7.2,8.5,7.1,8.5,7.1
						C8.6,7.1,8.6,7.1,8.5,7.1C8.6,7.1,8.6,7.1,8.5,7.1C8.5,7.1,8.5,7.1,8.5,7.1z"/>
					<path class="st81" d="M8.6,7.1C8.6,7.1,8.6,7.1,8.6,7.1C8.6,7.2,8.6,7.2,8.6,7.1C8.6,7.2,8.6,7.2,8.6,7.1
						C8.6,7.1,8.7,7.1,8.6,7.1C8.7,7.1,8.6,7.1,8.6,7.1C8.6,7.1,8.6,7.1,8.6,7.1L8.6,7.1z"/>
				</g>
				<g>
					<path class="st20" d="M8.6,6.1L8.6,6.1C8.6,6.1,8.6,6.1,8.6,6.1C8.5,6.1,8.5,6.1,8.6,6.1C8.5,6.1,8.5,6.1,8.6,6.1
						C8.5,6.1,8.5,6.1,8.6,6.1C8.5,6,8.5,6,8.6,6.1C8.5,6,8.5,6,8.6,6.1L8.6,6.1L8.6,6.1L8.6,6.1C8.5,6,8.5,6,8.6,6.1
						C8.5,6,8.5,6,8.6,6.1C8.5,6,8.5,6,8.6,6.1C8.5,6,8.5,6,8.5,6l0,0c0,0,0,0,0,0c0,0,0,0,0,0C8.5,6.1,8.5,6.1,8.6,6.1
						c0,0.1,0,0.1,0,0.1c0,0,0,0,0,0C8.6,6.1,8.6,6.1,8.6,6.1L8.6,6.1C8.6,6.1,8.6,6.1,8.6,6.1C8.6,6.1,8.6,6.1,8.6,6.1
						C8.6,6.1,8.6,6.1,8.6,6.1C8.6,6.1,8.6,6.1,8.6,6.1L8.6,6.1L8.6,6.1L8.6,6.1C8.6,6.1,8.6,6.1,8.6,6.1C8.6,6.1,8.6,6.1,8.6,6.1
						C8.6,6.1,8.6,6.1,8.6,6.1C8.6,6.1,8.6,6.1,8.6,6.1C8.6,6.1,8.6,6.1,8.6,6.1C8.6,6.1,8.6,6.1,8.6,6.1L8.6,6.1L8.6,6.1L8.6,6.1z"
						/>
					<g>
						<path class="st84" d="M8.5,6.1C8.5,6.1,8.5,6.1,8.5,6.1C8.5,6.1,8.5,6.1,8.5,6.1C8.5,6.1,8.5,6.1,8.5,6.1
							C8.5,6.1,8.5,6.1,8.5,6.1L8.5,6.1z"/>
						<path class="st84" d="M8.5,6.1L8.5,6.1C8.5,6.1,8.5,6.1,8.5,6.1C8.5,6.1,8.5,6.1,8.5,6.1L8.5,6.1L8.5,6.1
							C8.5,6.1,8.5,6.1,8.5,6.1C8.5,6.1,8.5,6.1,8.5,6.1L8.5,6.1"/>
						<path class="st84" d="M8.5,6.1L8.5,6.1C8.5,6.1,8.5,6.1,8.5,6.1C8.5,6,8.5,6,8.5,6.1L8.5,6.1L8.5,6.1C8.5,6.1,8.5,6.1,8.5,6.1
							C8.5,6.1,8.5,6.1,8.5,6.1L8.5,6.1"/>
						<path class="st84" d="M8.5,6C8.5,6,8.5,6,8.5,6C8.5,6,8.5,6,8.5,6C8.5,6,8.5,6,8.5,6C8.5,6,8.5,6,8.5,6L8.5,6z"/>
						<path class="st84" d="M8.6,6.1C8.6,6.1,8.6,6.1,8.6,6.1C8.6,6.1,8.6,6.1,8.6,6.1C8.5,6.1,8.5,6.1,8.6,6.1
							C8.6,6.1,8.6,6.1,8.6,6.1L8.6,6.1z"/>
						<path class="st84" d="M8.6,6.1L8.6,6.1C8.6,6.1,8.6,6.1,8.6,6.1C8.6,6.1,8.6,6.1,8.6,6.1L8.6,6.1L8.6,6.1
							C8.6,6.1,8.6,6.1,8.6,6.1C8.6,6.1,8.6,6.1,8.6,6.1L8.6,6.1"/>
						<path class="st84" d="M8.6,6.1C8.6,6.1,8.6,6.1,8.6,6.1C8.6,6.1,8.6,6.1,8.6,6.1C8.6,6.1,8.6,6.1,8.6,6.1
							C8.6,6.1,8.6,6.1,8.6,6.1z"/>
					</g>
					<path class="st20" d="M8.5,6L8.5,6L8.5,6L8.5,6L8.5,6L8.5,6L8.5,6"/>
					<path class="st20" d="M8.5,6L8.5,6L8.5,6L8.5,6L8.5,6L8.5,6L8.5,6"/>
					<path class="st20" d="M8.5,6L8.5,6L8.5,6L8.5,6L8.5,6L8.5,6L8.5,6"/>
					<path class="st20" d="M8.5,6L8.5,6L8.5,6L8.5,6L8.5,6L8.5,6L8.5,6"/>
					<path class="st20" d="M8.5,6C8.5,6,8.5,6,8.5,6C8.5,6,8.5,6,8.5,6C8.5,6,8.5,6,8.5,6C8.5,6,8.5,6,8.5,6z"/>
					<path class="st20" d="M8.4,6C8.4,6,8.4,6,8.4,6C8.4,6,8.4,6,8.4,6C8.4,6,8.4,6,8.4,6C8.5,6,8.5,6,8.4,6C8.5,6,8.4,6,8.4,6
						L8.4,6z"/>
					<path class="st20" d="M8.5,6L8.5,6L8.5,6L8.5,6L8.5,6L8.5,6L8.5,6"/>
					<path class="st20" d="M8.4,6C8.4,6,8.4,6,8.4,6C8.5,6,8.5,6,8.4,6C8.5,6,8.4,6,8.4,6C8.4,6,8.4,6,8.4,6z"/>
					<path class="st20" d="M8.6,6L8.6,6L8.6,6L8.6,6L8.6,6L8.6,6L8.6,6"/>
					<path class="st20" d="M8.5,6L8.5,6L8.5,6L8.5,6L8.5,6L8.5,6L8.5,6"/>
					<path class="st20" d="M8.6,6.1L8.6,6.1L8.6,6.1L8.6,6.1L8.6,6.1L8.6,6.1L8.6,6.1"/>
					<path class="st20" d="M8.6,6C8.6,6,8.6,6,8.6,6C8.6,6,8.6,6.1,8.6,6C8.6,6.1,8.6,6.1,8.6,6C8.6,6.1,8.6,6,8.6,6L8.6,6z"/>
					<path class="st20" d="M8.6,6.1L8.6,6.1L8.6,6.1L8.6,6.1L8.6,6.1L8.6,6.1L8.6,6.1"/>
					<path class="st20" d="M8.6,6.1L8.6,6.1L8.6,6.1L8.6,6.1L8.6,6.1L8.6,6.1L8.6,6.1"/>
					<path class="st20" d="M8.6,6.1L8.6,6.1L8.6,6.1L8.6,6.1L8.6,6.1L8.6,6.1L8.6,6.1"/>
					<path class="st20" d="M8.6,6.1C8.6,6.1,8.6,6.1,8.6,6.1C8.6,6.1,8.6,6.1,8.6,6.1C8.6,6.1,8.6,6.1,8.6,6.1
						C8.6,6.1,8.6,6.1,8.6,6.1L8.6,6.1z"/>
					<path class="st20" d="M8.7,6.1C8.7,6.1,8.7,6.1,8.7,6.1C8.7,6.2,8.7,6.2,8.7,6.1C8.7,6.2,8.7,6.1,8.7,6.1
						C8.7,6.1,8.7,6.1,8.7,6.1C8.7,6.1,8.7,6.1,8.7,6.1L8.7,6.1z"/>
					<path class="st20" d="M8.6,6.1L8.6,6.1L8.6,6.1L8.6,6.1L8.6,6.1L8.6,6.1L8.6,6.1"/>
					<path class="st20" d="M8.7,6.1C8.7,6.1,8.7,6.1,8.7,6.1C8.7,6.1,8.7,6.1,8.7,6.1C8.6,6.1,8.6,6.1,8.7,6.1
						C8.6,6.2,8.7,6.2,8.7,6.1z"/>
				</g>
			</g>
			<g id="inescutcheon">
				<ellipse class="st85" cx="7.7" cy="7.3" rx="0.4" ry="0.5"/>
				<ellipse class="st86" cx="7.7" cy="7.3" rx="0.3" ry="0.3"/>
				<g id="fdl">
					<path class="st87" d="M7.6,7.1C7.6,7.1,7.5,7.1,7.6,7.1c0,0.1,0,0.1,0,0.1c0,0,0,0,0,0c0,0,0,0,0,0c0,0,0,0,0,0l0,0
						c0,0,0,0,0,0c0,0,0,0,0,0c0,0,0,0,0,0l0,0v0h0l0,0l0,0l0,0l0,0l0,0l0,0h0v0l0,0c0,0,0,0,0,0c0,0,0,0,0,0c0,0,0,0,0,0l0,0
						c0,0,0,0,0,0c0,0,0,0,0,0c0,0,0,0,0,0C7.6,7.2,7.6,7.2,7.6,7.1C7.6,7.1,7.6,7.1,7.6,7.1L7.6,7.1z"/>
					<path class="st88" d="M7.5,7.3h0.1v0L7.5,7.3L7.5,7.3z"/>
				</g>
				<g>
					<g id="fdl_00000018202501095393436660000005818264208486281904_">
						<path class="st87" d="M7.9,7.1C7.9,7.1,7.8,7.1,7.9,7.1c0,0.1,0,0.1,0,0.1c0,0,0,0,0,0c0,0,0,0,0,0c0,0,0,0,0,0l0,0
							c0,0,0,0,0,0c0,0,0,0,0,0c0,0,0,0,0,0l0,0v0h0l0,0l0,0l0,0l0,0l0,0l0,0h0v0l0,0c0,0,0,0,0,0c0,0,0,0,0,0c0,0,0,0,0,0l0,0
							c0,0,0,0,0,0c0,0,0,0,0,0c0,0,0,0,0,0C7.9,7.2,7.9,7.2,7.9,7.1C7.9,7.1,7.9,7.1,7.9,7.1L7.9,7.1z"/>
						<path class="st88" d="M7.8,7.3h0.1v0L7.8,7.3L7.8,7.3z"/>
					</g>
				</g>
				<g>
					<g id="fdl_00000117647940879939304670000003511392655786126484_">
						<path class="st87" d="M7.7,7.3C7.7,7.3,7.7,7.3,7.7,7.3c0,0.1,0,0.1,0,0.1c0,0,0,0,0,0c0,0,0,0,0,0c0,0,0,0,0,0l0,0
							c0,0,0,0,0,0c0,0,0,0,0,0c0,0,0,0,0,0l0,0v0h0l0,0l0,0l0,0l0,0l0,0l0,0h0v0l0,0c0,0,0,0,0,0c0,0,0,0,0,0c0,0,0,0,0,0l0,0
							c0,0,0,0,0,0c0,0,0,0,0,0c0,0,0,0,0,0C7.7,7.4,7.8,7.4,7.7,7.3C7.8,7.3,7.7,7.3,7.7,7.3L7.7,7.3z"/>
						<path class="st88" d="M7.7,7.5h0.1v0L7.7,7.5L7.7,7.5z"/>
					</g>
				</g>
			</g>
		</g>
	</g>
</g>
</svg>
