<?xml version="1.0" encoding="utf-8"?>
<!-- Generator: Adobe Illustrator 27.4.0, SVG Export Plug-In . SVG Version: 6.00 Build 0)  -->
<svg version="1.1" id="Calque_1" xmlns="http://www.w3.org/2000/svg" xmlns:xlink="http://www.w3.org/1999/xlink" x="0px" y="0px"
	 viewBox="0 0 22 13" style="enable-background:new 0 0 22 13;" xml:space="preserve">
<style type="text/css">
	.st0{display:none;}
	.st1{display:inline;fill:#0055A4;}
	.st2{display:inline;fill:#FFFFFF;}
	.st3{display:inline;fill:#DC3A3A;}
	.st4{display:inline;}
	.st5{display:inline;fill:#DD0000;}
	.st6{display:inline;fill:#FFCE00;}
	.st7{fill:#FF0000;}
	.st8{fill:#006600;}
	
		.st9{fill-rule:evenodd;clip-rule:evenodd;fill:#FFFF00;stroke:#000000;stroke-width:1.862250e-02;stroke-linecap:round;stroke-linejoin:round;}
	
		.st10{fill-rule:evenodd;clip-rule:evenodd;fill:#FFFF00;stroke:#000000;stroke-width:1.787500e-02;stroke-linecap:round;stroke-linejoin:round;}
	.st11{fill:#FFFFFF;stroke:#000000;stroke-width:2.178702e-02;}
	.st12{fill:#FF0000;stroke:#000000;stroke-width:1.648855e-02;}
	.st13{fill:#FFFF00;}
	.st14{fill:#FFFF00;stroke:#000000;stroke-width:1.625000e-02;}
	.st15{fill:#003399;}
	.st16{fill:#FFFFFF;}
</style>
<g id="Groupe_3680" transform="translate(-274.894 -252.171)" class="st0">
	<rect id="Rectangle_1837" x="274.9" y="252.2" class="st1" width="7.3" height="13"/>
	<rect id="Rectangle_1838" x="282.2" y="252.2" class="st2" width="8.6" height="13"/>
	<rect id="Rectangle_1839" x="289.6" y="252.2" class="st3" width="7.3" height="13"/>
</g>
<g class="st0">
	<rect id="black_stripe" class="st4" width="22" height="13"/>
	<rect id="red_stripe" y="4.3" class="st5" width="22" height="8.7"/>
	<rect id="gold_stripe" y="8.7" class="st6" width="22" height="4.3"/>
</g>
<g>
	<rect x="1.3" class="st7" width="20.7" height="13"/>
	<rect class="st8" width="9.1" height="13"/>
	<g>
		<path class="st9" d="M11.7,8.5c-1,0-5.5-2.8-5.5-3.3l0.2-0.4c0.4,0.6,5,3.4,5.5,3.3L11.7,8.5"/>
		<path class="st9" d="M6.3,4.8C6.2,5,7.5,5.8,9,6.7c1.5,0.9,2.8,1.5,2.9,1.4c0,0,0-0.1,0-0.1c0,0-0.1,0-0.1,0
			c-0.4-0.1-1.5-0.6-2.8-1.4C7.7,5.8,6.6,5.1,6.3,4.8C6.4,4.8,6.4,4.7,6.3,4.8L6.3,4.8L6.3,4.8L6.3,4.8L6.3,4.8L6.3,4.8z M11.7,8.5
			c0,0,0,0-0.1,0c-0.4,0-1.5-0.6-2.8-1.4C7.2,6.3,6,5.4,6.1,5.2l0-0.1l0,0C6,5.5,8.7,7,8.8,7.1C10.3,8.1,11.6,8.6,11.7,8.5L11.7,8.5
			L11.7,8.5L11.7,8.5z"/>
		<path class="st9" d="M9.1,5.5c1,0,2.2-0.1,2.9-0.4l-0.2-0.2c-0.4,0.2-1.6,0.4-2.8,0.4c-1.3,0-2.3-0.1-2.7-0.4L6.2,5.1
			C7.1,5.4,8,5.5,9.1,5.5"/>
		<path class="st9" d="M12.1,5.1c0,0-0.5,0.2-1.1,0.3c-0.5,0.1-1,0.1-1.8,0.1c-0.7,0-1.3,0-1.7-0.1C6.7,5.3,6.3,5.2,6.2,5.1
			c0,0,0,0,0-0.1C6.6,5.2,7,5.3,7.4,5.4c0.4,0.1,1,0.1,1.7,0.1c0.7,0,1.3-0.1,1.8-0.1C11.6,5.2,12,5.1,12.1,5.1L12.1,5.1L12.1,5.1
			L12.1,5.1z M11.9,4.8c-0.1,0.1-0.4,0.2-1.1,0.3c-0.4,0.1-1,0.1-1.7,0.1c-0.7,0-1.2,0-1.6-0.1c-0.7-0.1-1-0.2-1.1-0.3
			c0,0,0,0,0-0.1c0.1,0,0.4,0.2,1.1,0.3c0.4,0.1,1,0.1,1.6,0.1c0.7,0,1.3-0.1,1.7-0.1C11.5,5,11.8,4.8,11.9,4.8L11.9,4.8L11.9,4.8
			L11.9,4.8z"/>
		<path class="st9" d="M5.9,6.7C6.5,7,7.8,7.2,9.1,7.2c1.2,0,2.7-0.2,3.2-0.5l0-0.3c-0.2,0.3-1.8,0.5-3.2,0.5
			c-1.4,0-2.8-0.2-3.2-0.5L5.9,6.7"/>
		<path class="st9" d="M12.4,6.6L12.4,6.6c-0.1,0.2-0.6,0.3-1.3,0.4c-0.5,0.1-1.2,0.1-2,0.1c-0.8,0-1.4-0.1-1.9-0.1
			C6.4,7,6,6.8,5.9,6.7l0-0.1C6.1,6.8,6.9,7,7.2,7c0.5,0.1,1.1,0.1,1.9,0.1c0.8,0,1.5-0.1,2-0.1C11.6,6.9,12.2,6.8,12.4,6.6
			L12.4,6.6L12.4,6.6z M12.4,6.4L12.4,6.4c-0.1,0.2-0.6,0.3-1.3,0.4c-0.5,0.1-1.2,0.1-2,0.1c-0.8,0-1.4-0.1-1.9-0.1
			C6.4,6.7,6,6.5,5.9,6.4l0-0.1c0.3,0.2,1.1,0.3,1.4,0.4c0.5,0.1,1.1,0.1,1.9,0.1c0.8,0,1.5-0.1,2-0.1C11.6,6.7,12.2,6.5,12.4,6.4
			L12.4,6.4L12.4,6.4z"/>
		<path class="st9" d="M9.1,8.5C7.7,8.5,6.5,8.1,6.3,8l0.2,0.3c0.4,0.2,1.6,0.5,2.7,0.4c1.1,0,2-0.1,2.6-0.4L11.9,8
			C11.5,8.2,10,8.5,9.1,8.5"/>
		<path class="st10" d="M11.8,8.2c0,0-0.1,0.1-0.1,0.1c-0.3,0.1-0.8,0.2-1,0.3c-0.4,0.1-1.1,0.1-1.6,0.1c-1.2,0-2.2-0.3-2.7-0.5
			l0-0.1l0,0l0.1,0c0.8,0.3,1.8,0.4,2.7,0.4c0.6,0,1.1-0.1,1.6-0.1C11.4,8.4,11.7,8.3,11.8,8.2L11.8,8.2L11.8,8.2L11.8,8.2z M12,8
			C12,8,12,8,12,8c0,0,0,0.1-0.1,0.1c-0.2,0.1-0.6,0.2-1.3,0.3C10.2,8.4,10,8.5,9.1,8.5c-1.6,0-2.6-0.4-2.9-0.4l0-0.1
			c0.9,0.2,1.9,0.4,2.9,0.4c0.8,0,1.1-0.1,1.5-0.1C11.4,8.2,11.8,8,12,8C11.9,8,11.9,8,12,8L12,8L12,8L12,8z"/>
		<path class="st9" d="M12,6.4c0,0.9-0.5,1.7-0.8,2.1C10.6,9,9.9,9.4,9.1,9.4c-0.9,0-1.8-0.6-2-0.8C6.6,8,6.2,7.4,6.2,6.5
			c0.1-1,0.4-1.7,1-2.2s1.3-0.7,2-0.7c0.7,0,1.6,0.4,2.2,1.1C11.7,5.2,11.9,5.7,12,6.4L12,6.4z M9.1,3.3c1.8,0,3.2,1.4,3.2,3.2
			c0,1.8-1.5,3.2-3.2,3.2S5.9,8.3,5.9,6.5S7.3,3.3,9.1,3.3"/>
		<path class="st9" d="M9.1,3.3c1.8,0,3.2,1.4,3.2,3.2c0,1.8-1.4,3.2-3.2,3.2c-1.8,0-3.2-1.4-3.2-3.2S7.3,3.3,9.1,3.3L9.1,3.3z
			 M6,6.5c0,1.7,1.4,3.1,3.1,3.1c1.7,0,3.1-1.4,3.1-3.1c0-1.7-1.4-3.1-3.1-3.1S6,4.8,6,6.5L6,6.5z"/>
		<path class="st9" d="M9.1,3.6c1.6,0,2.9,1.3,2.9,2.9c0,1.6-1.3,2.9-2.9,2.9S6.2,8.1,6.2,6.5C6.2,4.9,7.5,3.6,9.1,3.6L9.1,3.6z
			 M6.2,6.5c0,1.6,1.3,2.9,2.9,2.9S12,8.1,12,6.5c0-1.6-1.3-2.9-2.9-2.9C7.5,3.6,6.2,4.9,6.2,6.5L6.2,6.5z"/>
		<path class="st9" d="M9.2,3.3H9l0,6.5h0.3L9.2,3.3z"/>
		<path class="st9" d="M9.2,3.2L9.2,3.2l0.1,6.5H9.2L9.2,3.2L9.2,3.2z M8.9,3.2L8.9,3.2L9,9.8H8.9L8.9,3.2L8.9,3.2z"/>
		<path class="st9" d="M12.3,6.6V6.4l-0.2-0.2L11,5.9L9.4,5.8L7.5,5.8L6.2,6.2L5.9,6.4v0.2l0.7-0.3L8.2,6h1.6L11,6.2l0.8,0.2
			L12.3,6.6z"/>
		<path class="st9" d="M9.1,6c0.8,0,1.5,0.1,2.1,0.2c0.6,0.1,1,0.3,1.2,0.4l0,0.1c-0.2-0.2-0.7-0.4-1.2-0.5C10.6,6.1,9.9,6.1,9.1,6
			C8.3,6.1,7.6,6.2,7,6.3C6.5,6.4,5.9,6.5,5.9,6.7V6.6c0-0.1,0.5-0.3,1.1-0.4C7.6,6.1,8.3,6,9.1,6L9.1,6z M9.1,5.7
			c0.8,0,1.5,0.1,2.1,0.2c0.6,0.1,1,0.3,1.2,0.4l0,0.1c-0.2-0.2-0.7-0.4-1.2-0.5C10.6,5.9,9.9,5.8,9.1,5.7C8.3,5.8,7.6,5.9,7,6
			C6.6,6.1,5.9,6.3,5.9,6.4V6.4C5.9,6.2,6.4,6,7,5.9C7.6,5.8,8.3,5.7,9.1,5.7L9.1,5.7z"/>
		<path class="st9" d="M9.1,4.3c1.2,0,2.2,0.2,2.7,0.4L12,5c-0.4-0.2-1.5-0.5-2.9-0.4C8,4.6,6.8,4.7,6.2,5l0.2-0.3
			C6.9,4.4,8.1,4.3,9.1,4.3"/>
		<path class="st9" d="M9.1,4.6c0.7,0,1.3,0,1.9,0.1c0.5,0.1,1,0.2,1,0.3l0.1,0.1C11.9,5,11.5,4.9,11,4.8C10.5,4.7,9.8,4.6,9.1,4.6
			C8.3,4.6,7.7,4.7,7.2,4.8C6.7,4.9,6.3,5,6.2,5.1L6.3,5c0.2-0.1,0.5-0.2,0.9-0.3C7.7,4.6,8.4,4.6,9.1,4.6L9.1,4.6L9.1,4.6z
			 M9.1,4.3c0.7,0,1.3,0,1.8,0.1c0.4,0.1,0.8,0.2,0.9,0.3l0.1,0.1c-0.1-0.1-0.6-0.3-1-0.4C10.4,4.4,9.8,4.4,9.1,4.3
			C8.4,4.4,7.8,4.4,7.3,4.5C6.8,4.6,6.5,4.7,6.4,4.8l0.1-0.1c0.2-0.1,0.5-0.2,0.8-0.2C7.8,4.3,8.4,4.3,9.1,4.3L9.1,4.3z"/>
		<path class="st9" d="M10.7,7.8c-0.6-0.1-1.2-0.1-1.6-0.1c-2,0-2.6,0.4-2.7,0.5L6.2,8c0.5-0.4,1.6-0.6,2.9-0.6
			c0.7,0,1.2,0.1,1.7,0.1L10.7,7.8"/>
		<path class="st10" d="M9.1,7.7c0.6,0,1.1,0,1.6,0.1l0,0.1C10.2,7.8,9.7,7.8,9.1,7.7C8.4,7.8,7.6,7.8,7,8C6.8,8.1,6.4,8.2,6.4,8.3
			l0-0.1C6.4,8.2,6.6,8,7,7.9C7.7,7.7,8.4,7.7,9.1,7.7L9.1,7.7L9.1,7.7z M9.1,7.4c0.6,0,1.2,0,1.7,0.2l0,0.1
			C10.3,7.5,9.8,7.5,9.1,7.4C8.4,7.5,7.6,7.5,6.9,7.7C6.7,7.8,6.3,8,6.3,8.1l0-0.1c0-0.1,0.4-0.2,0.7-0.3C7.6,7.5,8.4,7.4,9.1,7.4
			L9.1,7.4z"/>
		<path class="st9" d="M12,8l-0.2,0.4L11,7.8L9.2,6.6l-2-1.1l-1-0.4l0.2-0.4l0.1,0l0.7,0.2l2.1,1.1l1.2,0.8l1,0.7L12,8L12,8z"/>
		<path class="st9" d="M6.1,5.1C6.3,5,7.7,5.6,9.1,6.5c1.4,0.9,2.8,1.8,2.6,2l0,0.1l0,0c0,0,0,0,0-0.1c-0.1-0.2-1-1-2.6-1.9
			C7.5,5.6,6.2,5.1,6.1,5.1L6.1,5.1L6.1,5.1L6.1,5.1z M12,8c0.1-0.2-1.1-1.2-2.7-2.1C7.7,5,6.6,4.5,6.4,4.7l0,0.1c0,0,0,0,0,0
			c0,0,0.1,0,0.1,0c0.4,0,1.4,0.5,2.8,1.3C9.9,6.4,12,7.7,12,8C12,8.1,12,8.1,12,8L12,8L12,8L12,8z"/>
	</g>
	<g>
		<path class="st11" d="M7.2,6.9c0,0.5,0.2,1,0.6,1.4c0.4,0.4,0.8,0.6,1.4,0.6c0.5,0,1-0.2,1.4-0.6C10.8,7.9,11,7.4,11,6.9h0V4.3
			l-3.9,0L7.2,6.9L7.2,6.9L7.2,6.9z"/>
		<path class="st12" d="M7.3,6.9L7.3,6.9c0,0.5,0.2,1,0.5,1.3c0.3,0.3,0.8,0.5,1.3,0.5c0.5,0,1-0.2,1.3-0.5C10.7,7.8,11,7.4,11,6.9
			h0V4.4l-3.7,0L7.3,6.9 M10.2,5.1l0,1.6l0,0.2h0c0,0,0,0.1,0,0.1c0,0.3-0.1,0.5-0.3,0.6C9.7,7.8,9.4,8,9.1,8C8.8,8,8.5,7.8,8.3,7.6
			C8.1,7.4,8,7.2,8,6.9l0-1.8L10.2,5.1L10.2,5.1L10.2,5.1z"/>
		<g id="castle3">
			<g id="castle">
				<path class="st13" d="M7.5,5c0-0.2,0.1-0.2,0.1-0.2c0,0,0.1,0,0.1,0.2L7.5,5"/>
				<path class="st14" d="M7.4,4.8l0,0.2l0.1,0c0-0.2,0.1-0.2,0.1-0.2c0,0,0.1,0,0.1,0.2h0.1l0-0.2L7.4,4.8L7.4,4.8L7.4,4.8z"/>
				<path class="st14" d="M7.4,5h0.6c0,0,0,0,0,0c0,0,0,0,0,0L7.4,5C7.3,5.1,7.3,5,7.4,5C7.3,5,7.3,5,7.4,5z"/>
				<path class="st14" d="M7.6,5c0-0.1,0.1-0.1,0.1-0.1c0,0,0.1,0,0.1,0.1H7.6"/>
				<path class="st14" d="M7.4,4.7h0.5c0,0,0,0,0,0c0,0,0,0,0,0L7.4,4.7C7.4,4.8,7.3,4.7,7.4,4.7C7.3,4.7,7.4,4.7,7.4,4.7z"/>
				<path class="st14" d="M7.4,4.8h0.5c0,0,0,0,0,0c0,0,0,0,0,0L7.4,4.8C7.4,4.8,7.4,4.8,7.4,4.8C7.4,4.8,7.4,4.8,7.4,4.8z"/>
				<path class="st14" d="M7.5,4.4L7.5,4.4L7.5,4.4L7.5,4.4L7.5,4.4l0.1,0v0h0v0h0l0,0.1c0,0,0,0,0,0L7.5,4.4
					C7.5,4.5,7.5,4.5,7.5,4.4L7.5,4.4L7.5,4.4L7.5,4.4z"/>
				<path class="st14" d="M7.7,4.5l0,0.2l-0.1,0l0-0.2L7.7,4.5"/>
				<path id="cp1" class="st14" d="M7.5,4.6l0,0.1l-0.1,0l0-0.1L7.5,4.6L7.5,4.6L7.5,4.6z"/>
				<g>
					<path id="cp1_00000176740905234788017650000017197079011687559836_" class="st14" d="M7.9,4.6l0,0.1l-0.1,0l0-0.1L7.9,4.6
						L7.9,4.6L7.9,4.6z"/>
				</g>
				<path id="cp2" class="st14" d="M7.4,4.5L7.4,4.5L7.4,4.5L7.4,4.5L7.4,4.5l0.1,0v0h0v0l0,0l0,0.1c0,0,0,0,0,0L7.4,4.5
					C7.4,4.6,7.4,4.6,7.4,4.5L7.4,4.5L7.4,4.5L7.4,4.5z"/>
				<g>
					<path id="cp2_00000114044518755208575200000011937832518078328969_" class="st14" d="M7.7,4.5L7.7,4.5L7.7,4.5L7.7,4.5L7.7,4.5
						l0.1,0v0h0v0l0,0l0,0.1c0,0,0,0,0,0L7.7,4.5C7.7,4.6,7.7,4.6,7.7,4.5L7.7,4.5L7.7,4.5L7.7,4.5z"/>
				</g>
				<path d="M7.6,4.6C7.6,4.5,7.6,4.5,7.6,4.6L7.6,4.6L7.6,4.6L7.6,4.6"/>
				<path id="cp3" d="M7.4,4.6C7.4,4.6,7.5,4.6,7.4,4.6L7.4,4.6L7.4,4.6L7.4,4.6"/>
				<g>
					<path id="cp3_00000060712773917486981830000000215360206828696230_" d="M7.8,4.6C7.8,4.6,7.8,4.6,7.8,4.6L7.8,4.6L7.8,4.6
						L7.8,4.6"/>
				</g>
			</g>
			<g>
				<g id="castle_00000000189248044381153270000002157814410713848761_">
					<path class="st13" d="M7.5,6.5c0-0.2,0.1-0.2,0.1-0.2c0,0,0.1,0,0.1,0.2L7.5,6.5"/>
					<path class="st14" d="M7.4,6.3l0,0.2l0.1,0c0-0.2,0.1-0.2,0.1-0.2c0,0,0.1,0,0.1,0.2h0.1l0-0.2L7.4,6.3L7.4,6.3L7.4,6.3z"/>
					<path class="st14" d="M7.4,6.5h0.6c0,0,0,0,0,0c0,0,0,0,0,0L7.4,6.5C7.3,6.6,7.3,6.6,7.4,6.5C7.3,6.5,7.3,6.5,7.4,6.5z"/>
					<path class="st14" d="M7.6,6.5c0-0.1,0.1-0.1,0.1-0.1c0,0,0.1,0,0.1,0.1H7.6"/>
					<path class="st14" d="M7.4,6.2h0.5c0,0,0,0,0,0c0,0,0,0,0,0L7.4,6.2C7.4,6.3,7.3,6.3,7.4,6.2C7.3,6.2,7.4,6.2,7.4,6.2z"/>
					<path class="st14" d="M7.4,6.3h0.5c0,0,0,0,0,0c0,0,0,0,0,0L7.4,6.3C7.4,6.3,7.4,6.3,7.4,6.3C7.4,6.3,7.4,6.3,7.4,6.3z"/>
					<path class="st14" d="M7.5,5.9L7.5,5.9L7.5,5.9L7.5,5.9L7.5,5.9l0.1,0v0h0v0h0l0,0.1c0,0,0,0,0,0L7.5,5.9C7.5,6,7.5,6,7.5,5.9
						L7.5,5.9L7.5,5.9L7.5,5.9z"/>
					<path class="st14" d="M7.7,6l0,0.2l-0.1,0l0-0.2L7.7,6"/>
					<path id="cp1_00000092457795826478499190000015816957975980856216_" class="st14" d="M7.5,6.1l0,0.1l-0.1,0l0-0.1L7.5,6.1
						L7.5,6.1L7.5,6.1z"/>
					<g>
						<path id="cp1_00000085248381147249560420000001161749157978101122_" class="st14" d="M7.9,6.1l0,0.1l-0.1,0l0-0.1L7.9,6.1
							L7.9,6.1L7.9,6.1z"/>
					</g>
					<path id="cp2_00000114785839527196184740000013944162069770419900_" class="st14" d="M7.4,6L7.4,6L7.4,6L7.4,6L7.4,6l0.1,0v0h0
						v0l0,0l0,0.1c0,0,0,0,0,0L7.4,6C7.4,6.1,7.4,6.1,7.4,6L7.4,6L7.4,6L7.4,6z"/>
					<g>
						<path id="cp2_00000168832624268916804920000004319545234594051227_" class="st14" d="M7.7,6L7.7,6L7.7,6L7.7,6L7.7,6l0.1,0v0
							h0v0l0,0l0,0.1c0,0,0,0,0,0L7.7,6C7.7,6.1,7.7,6.1,7.7,6L7.7,6L7.7,6L7.7,6z"/>
					</g>
					<path d="M7.6,6.1C7.6,6.1,7.6,6.1,7.6,6.1L7.6,6.1L7.6,6.1L7.6,6.1"/>
					<path id="cp3_00000108274661617370218570000010046566145935789701_" d="M7.4,6.1C7.4,6.1,7.5,6.1,7.4,6.1L7.4,6.1L7.4,6.1
						L7.4,6.1"/>
					<g>
						<path id="cp3_00000054242921996968963800000015023153200882291844_" d="M7.8,6.1C7.8,6.1,7.8,6.1,7.8,6.1L7.8,6.1L7.8,6.1
							L7.8,6.1"/>
					</g>
				</g>
			</g>
			<g transform="matrix(0.70460892,-0.70959585,0.70959585,0.70460892,-35.341459,275.10898)">
				<g id="castle_00000078014100677292727160000007553143220242049193_">
					<path class="st13" d="M8.1,8.1C8,8,8,7.8,8,7.8c0,0,0.1-0.1,0.3,0.1L8.1,8.1"/>
					<path class="st14" d="M7.8,8L8,8.2l0.1-0.1C8,8,8,7.8,8,7.8c0,0,0.1-0.1,0.2,0l0.1-0.1L8.2,7.7L7.8,8L7.8,8L7.8,8z"/>
					<path class="st14" d="M8,8.2l0.4-0.4c0,0,0,0,0,0c0,0,0,0,0,0L8,8.2C8,8.2,8,8.2,8,8.2C8,8.2,8,8.2,8,8.2z"/>
					<path class="st14" d="M8.1,8C8,8,8.1,7.9,8.1,7.9c0,0,0.1,0,0.2,0L8.1,8"/>
					<path class="st14" d="M7.8,8l0.4-0.4c0,0,0,0,0,0c0,0,0,0,0,0L7.8,8C7.8,8,7.8,8,7.8,8C7.8,8,7.8,8,7.8,8z"/>
					<path class="st14" d="M7.8,8l0.4-0.4c0,0,0,0,0,0c0,0,0,0,0,0L7.8,8C7.8,8,7.8,8,7.8,8C7.8,8,7.8,8,7.8,8z"/>
					<path class="st14" d="M7.7,7.6L7.7,7.6L7.7,7.6L7.7,7.6L7.7,7.6L7.7,7.6L7.7,7.6l0.1-0.1L7.7,7.6l0.1-0.1l0,0c0,0,0,0,0,0
						L7.7,7.6C7.8,7.7,7.7,7.7,7.7,7.6L7.7,7.6L7.7,7.6L7.7,7.6z"/>
					<path class="st14" d="M7.9,7.6L8,7.7L7.9,7.8L7.9,7.6L7.9,7.6"/>
					<path id="cp1_00000063615283330622834250000007831941362649894846_" class="st14" d="M7.8,7.8L7.8,7.8l0,0.2L7.8,7.8L7.8,7.8
						L7.8,7.8L7.8,7.8z"/>
					<g>
						<path id="cp1_00000183971686452791584720000011956200430072109481_" class="st14" d="M8,7.5L8,7.5l0,0.2L8,7.5L8,7.5L8,7.5
							L8,7.5z"/>
					</g>
					<path id="cp2_00000183939108942113906420000018101153739524274851_" class="st14" d="M7.6,7.8L7.6,7.8L7.6,7.8L7.6,7.8L7.6,7.8
						L7.6,7.8L7.6,7.8l0.1-0.1L7.6,7.8l0.1-0.1l0,0c0,0,0,0,0,0L7.6,7.8C7.7,7.9,7.7,7.9,7.6,7.8L7.6,7.8L7.6,7.8L7.6,7.8z"/>
					<g>
						<path id="cp2_00000069393349160917810580000016455992473139822995_" class="st14" d="M7.9,7.6L7.9,7.6L7.9,7.6L7.9,7.6
							L7.9,7.6L7.9,7.6L7.9,7.6L8,7.5L7.9,7.6L8,7.5l0,0c0,0,0,0,0,0L7.9,7.6C7.9,7.6,7.9,7.6,7.9,7.6L7.9,7.6L7.9,7.6L7.9,7.6z"/>
					</g>
					<path d="M7.8,7.7C7.8,7.7,7.9,7.7,7.8,7.7L7.8,7.7L7.8,7.7L7.8,7.7"/>
					<path id="cp3_00000002377140805808966020000016015572190297628546_" d="M7.8,7.9C7.8,7.8,7.8,7.8,7.8,7.9L7.8,7.9L7.8,7.9
						L7.8,7.9"/>
					<g>
						<path id="cp3_00000039812102577429107820000005318911217267796626_" d="M8,7.6C8,7.6,8,7.6,8,7.6L8,7.6L8,7.6L8,7.6"/>
					</g>
				</g>
			</g>
		</g>
		<g>
			<g id="castle_00000130618080094951941830000009867305841098821290_">
				<path class="st13" d="M9,5c0-0.2,0.1-0.2,0.1-0.2c0,0,0.1,0,0.1,0.2L9,5"/>
				<path class="st14" d="M8.9,4.8l0,0.2L9,5c0-0.2,0.1-0.2,0.1-0.2c0,0,0.1,0,0.1,0.2h0.1l0-0.2L8.9,4.8L8.9,4.8L8.9,4.8z"/>
				<path class="st14" d="M8.8,5h0.6c0,0,0,0,0,0c0,0,0,0,0,0L8.8,5C8.8,5.1,8.8,5,8.8,5C8.8,5,8.8,5,8.8,5z"/>
				<path class="st14" d="M9,5c0-0.1,0.1-0.1,0.1-0.1c0,0,0.1,0,0.1,0.1H9"/>
				<path class="st14" d="M8.9,4.7h0.5c0,0,0,0,0,0c0,0,0,0,0,0L8.9,4.7C8.8,4.8,8.8,4.7,8.9,4.7C8.8,4.7,8.8,4.7,8.9,4.7z"/>
				<path class="st14" d="M8.9,4.8h0.5c0,0,0,0,0,0c0,0,0,0,0,0L8.9,4.8C8.9,4.8,8.8,4.8,8.9,4.8C8.8,4.8,8.9,4.8,8.9,4.8z"/>
				<path class="st14" d="M9,4.4L9,4.4L9,4.4L9,4.4L9,4.4l0.1,0v0h0v0h0l0,0.1c0,0,0,0,0,0L9,4.4C9,4.5,9,4.5,9,4.4L9,4.4L9,4.4
					L9,4.4z"/>
				<path class="st14" d="M9.2,4.5l0,0.2L9,4.7l0-0.2L9.2,4.5"/>
				<path id="cp1_00000030466346496916798070000017925450137488769948_" class="st14" d="M9,4.6l0,0.1l-0.1,0l0-0.1L9,4.6L9,4.6
					L9,4.6z"/>
				<g>
					<path id="cp1_00000126318084416460336050000000534480564836597658_" class="st14" d="M9.3,4.6l0,0.1l-0.1,0l0-0.1L9.3,4.6
						L9.3,4.6L9.3,4.6z"/>
				</g>
				<path id="cp2_00000034811364172055851860000000158784358545049011_" class="st14" d="M8.9,4.5L8.9,4.5L8.9,4.5L8.9,4.5L8.9,4.5
					l0.1,0v0h0v0l0,0l0,0.1c0,0,0,0,0,0L8.9,4.5C8.9,4.6,8.9,4.6,8.9,4.5L8.9,4.5L8.9,4.5L8.9,4.5z"/>
				<g>
					<path id="cp2_00000115482702588721555360000018040870404157482139_" class="st14" d="M9.2,4.5L9.2,4.5L9.2,4.5L9.2,4.5L9.2,4.5
						l0.1,0v0h0v0l0,0l0,0.1c0,0,0,0,0,0L9.2,4.5C9.2,4.6,9.2,4.6,9.2,4.5L9.2,4.5L9.2,4.5L9.2,4.5z"/>
				</g>
				<path d="M9.1,4.6C9.1,4.5,9.1,4.5,9.1,4.6L9.1,4.6L9.1,4.6L9.1,4.6"/>
				<path id="cp3_00000142877928385528426870000009313633550765004474_" d="M8.9,4.6C8.9,4.6,9,4.6,8.9,4.6L8.9,4.6L8.9,4.6L8.9,4.6
					"/>
				<g>
					<path id="cp3_00000129902171889766325830000000199550352447818391_" d="M9.3,4.6C9.3,4.6,9.3,4.6,9.3,4.6L9.3,4.6L9.3,4.6
						L9.3,4.6"/>
				</g>
			</g>
		</g>
		<g transform="matrix(-1,0,0,1,479.79195,0)">
			<g id="castle3_00000152243835309065522450000002767885751639184022_">
				<g id="castle_00000150091436414217226630000013273452196567445923_">
					<path class="st13" d="M10.7,5c0-0.2-0.1-0.2-0.1-0.2c0,0-0.1,0-0.1,0.2L10.7,5"/>
					<path class="st14" d="M10.8,4.8l0,0.2l-0.1,0c0-0.2-0.1-0.2-0.1-0.2c0,0-0.1,0-0.1,0.2h-0.1l0-0.2L10.8,4.8L10.8,4.8L10.8,4.8z
						"/>
					<path class="st14" d="M10.9,5h-0.6c0,0,0,0,0,0c0,0,0,0,0,0L10.9,5C10.9,5.1,10.9,5,10.9,5C10.9,5,10.9,5,10.9,5z"/>
					<path class="st14" d="M10.7,5c0-0.1-0.1-0.1-0.1-0.1c0,0-0.1,0-0.1,0.1H10.7"/>
					<path class="st14" d="M10.9,4.7h-0.5c0,0,0,0,0,0c0,0,0,0,0,0L10.9,4.7C10.9,4.8,10.9,4.7,10.9,4.7C10.9,4.7,10.9,4.7,10.9,4.7
						z"/>
					<path class="st14" d="M10.8,4.8h-0.5c0,0,0,0,0,0c0,0,0,0,0,0L10.8,4.8C10.9,4.8,10.9,4.8,10.8,4.8C10.9,4.8,10.9,4.8,10.8,4.8
						z"/>
					<path class="st14" d="M10.7,4.4L10.7,4.4L10.7,4.4L10.7,4.4L10.7,4.4l-0.1,0v0h0v0h0l0,0.1c0,0,0,0,0,0L10.7,4.4
						C10.7,4.5,10.7,4.5,10.7,4.4L10.7,4.4L10.7,4.4L10.7,4.4z"/>
					<path class="st14" d="M10.5,4.5l0,0.2l0.1,0l0-0.2L10.5,4.5"/>
					<path id="cp1_00000010996258784615420680000015349092476362635405_" class="st14" d="M10.7,4.6l0,0.1l0.1,0l0-0.1L10.7,4.6
						L10.7,4.6L10.7,4.6z"/>
					<g>
						<path id="cp1_00000111162408111981952540000014599460904261132452_" class="st14" d="M10.4,4.6l0,0.1l0.1,0l0-0.1L10.4,4.6
							L10.4,4.6L10.4,4.6z"/>
					</g>
					<path id="cp2_00000116939809850387936000000001593704631251137435_" class="st14" d="M10.9,4.5L10.9,4.5L10.9,4.5L10.9,4.5
						L10.9,4.5l-0.1,0v0h0v0l0,0l0,0.1c0,0,0,0,0,0L10.9,4.5C10.8,4.6,10.9,4.6,10.9,4.5L10.9,4.5L10.9,4.5L10.9,4.5z"/>
					<g>
						<path id="cp2_00000062182865339730916010000008248933614533760689_" class="st14" d="M10.5,4.5L10.5,4.5L10.5,4.5L10.5,4.5
							L10.5,4.5l-0.1,0v0h0v0l0,0l0,0.1c0,0,0,0,0,0L10.5,4.5C10.5,4.6,10.5,4.6,10.5,4.5L10.5,4.5L10.5,4.5L10.5,4.5z"/>
					</g>
					<path d="M10.6,4.6C10.6,4.5,10.6,4.5,10.6,4.6L10.6,4.6L10.6,4.6L10.6,4.6"/>
					<path id="cp3_00000032627313428751882370000004141211652057035148_" d="M10.8,4.6C10.8,4.6,10.8,4.6,10.8,4.6L10.8,4.6
						L10.8,4.6L10.8,4.6"/>
					<g>
						<path id="cp3_00000114781475822620470690000014804627848101710507_" d="M10.4,4.6C10.4,4.6,10.4,4.6,10.4,4.6L10.4,4.6
							L10.4,4.6L10.4,4.6"/>
					</g>
				</g>
				<g>
					<g id="castle_00000035512088533043088760000017184059859889311399_">
						<path class="st13" d="M10.7,6.5c0-0.2-0.1-0.2-0.1-0.2c0,0-0.1,0-0.1,0.2L10.7,6.5"/>
						<path class="st14" d="M10.8,6.3l0,0.2l-0.1,0c0-0.2-0.1-0.2-0.1-0.2c0,0-0.1,0-0.1,0.2h-0.1l0-0.2L10.8,6.3L10.8,6.3L10.8,6.3
							z"/>
						<path class="st14" d="M10.9,6.5h-0.6c0,0,0,0,0,0c0,0,0,0,0,0L10.9,6.5C10.9,6.6,10.9,6.6,10.9,6.5
							C10.9,6.5,10.9,6.5,10.9,6.5z"/>
						<path class="st14" d="M10.7,6.5c0-0.1-0.1-0.1-0.1-0.1c0,0-0.1,0-0.1,0.1H10.7"/>
						<path class="st14" d="M10.9,6.2h-0.5c0,0,0,0,0,0c0,0,0,0,0,0L10.9,6.2C10.9,6.3,10.9,6.3,10.9,6.2
							C10.9,6.2,10.9,6.2,10.9,6.2z"/>
						<path class="st14" d="M10.8,6.3h-0.5c0,0,0,0,0,0c0,0,0,0,0,0L10.8,6.3C10.9,6.3,10.9,6.3,10.8,6.3
							C10.9,6.3,10.9,6.3,10.8,6.3z"/>
						<path class="st14" d="M10.7,5.9L10.7,5.9L10.7,5.9L10.7,5.9L10.7,5.9l-0.1,0v0h0v0h0l0,0.1c0,0,0,0,0,0L10.7,5.9
							C10.7,6,10.7,6,10.7,5.9L10.7,5.9L10.7,5.9L10.7,5.9z"/>
						<path class="st14" d="M10.5,6l0,0.2l0.1,0l0-0.2L10.5,6"/>
						<path id="cp1_00000101075155735954612120000012038752345801052829_" class="st14" d="M10.7,6.1l0,0.1l0.1,0l0-0.1L10.7,6.1
							L10.7,6.1L10.7,6.1z"/>
						<g>
							<path id="cp1_00000090973084441482546170000001053547236289679256_" class="st14" d="M10.4,6.1l0,0.1l0.1,0l0-0.1L10.4,6.1
								L10.4,6.1L10.4,6.1z"/>
						</g>
						<path id="cp2_00000026123725331898343290000002063353036144708514_" class="st14" d="M10.9,6L10.9,6L10.9,6L10.9,6L10.9,6
							l-0.1,0v0h0v0l0,0l0,0.1c0,0,0,0,0,0L10.9,6C10.8,6.1,10.9,6.1,10.9,6L10.9,6L10.9,6L10.9,6z"/>
						<g>
							<path id="cp2_00000096039666770862547520000006441776742527665343_" class="st14" d="M10.5,6L10.5,6L10.5,6L10.5,6L10.5,6
								l-0.1,0v0h0v0l0,0l0,0.1c0,0,0,0,0,0L10.5,6C10.5,6.1,10.5,6.1,10.5,6L10.5,6L10.5,6L10.5,6z"/>
						</g>
						<path d="M10.6,6.1C10.6,6.1,10.6,6.1,10.6,6.1L10.6,6.1L10.6,6.1L10.6,6.1"/>
						<path id="cp3_00000088838482151755035140000002950221150354685585_" d="M10.8,6.1C10.8,6.1,10.8,6.1,10.8,6.1L10.8,6.1
							L10.8,6.1L10.8,6.1"/>
						<g>
							<path id="cp3_00000080921640920078744980000008242483642222584483_" d="M10.4,6.1C10.4,6.1,10.4,6.1,10.4,6.1L10.4,6.1
								L10.4,6.1L10.4,6.1"/>
						</g>
					</g>
				</g>
				<g transform="matrix(0.70460892,-0.70959585,0.70959585,0.70460892,-35.341459,275.10898)">
					<g id="castle_00000074405208153774830970000001744867622648564927_">
						<path class="st13" d="M10.1,8.1c0.1-0.1,0.1-0.2,0.1-0.3c0,0-0.1-0.1-0.3,0.1L10.1,8.1"/>
						<path class="st14" d="M10.4,8l-0.1,0.2l-0.1-0.1c0.1-0.1,0.1-0.2,0-0.2c0,0-0.1-0.1-0.2,0L9.9,7.8L10,7.7L10.4,8L10.4,8
							L10.4,8z"/>
						<path class="st14" d="M10.2,8.2L9.9,7.8c0,0,0,0,0,0c0,0,0,0,0,0L10.2,8.2C10.2,8.2,10.2,8.2,10.2,8.2
							C10.3,8.2,10.3,8.2,10.2,8.2z"/>
						<path class="st14" d="M10.1,8c0.1-0.1,0-0.1,0-0.1c0,0-0.1,0-0.2,0L10.1,8"/>
						<path class="st14" d="M10.4,8l-0.4-0.4c0,0,0,0,0,0c0,0,0,0,0,0L10.4,8C10.4,8,10.4,8,10.4,8C10.5,8,10.5,8,10.4,8z"/>
						<path class="st14" d="M10.4,8l-0.4-0.4c0,0,0,0,0,0c0,0,0,0,0,0L10.4,8C10.4,8,10.4,8,10.4,8C10.4,8,10.4,8,10.4,8z"/>
						<path class="st14" d="M10.5,7.6L10.5,7.6L10.5,7.6L10.5,7.6L10.5,7.6L10.5,7.6L10.5,7.6l-0.1-0.1L10.5,7.6l-0.1-0.1l0,0
							c0,0,0,0,0,0L10.5,7.6C10.5,7.7,10.5,7.7,10.5,7.6L10.5,7.6L10.5,7.6L10.5,7.6z"/>
						<path class="st14" d="M10.4,7.6l-0.2,0.1l0.1,0.1L10.4,7.6L10.4,7.6"/>
						<path id="cp1_00000067939054853005556740000001060087715449237690_" class="st14" d="M10.4,7.8L10.4,7.8l0,0.2L10.4,7.8
							L10.4,7.8L10.4,7.8L10.4,7.8z"/>
						<g>
							<path id="cp1_00000172413423580795880320000004914930509871277189_" class="st14" d="M10.2,7.5L10.2,7.5l0,0.2L10.2,7.5
								L10.2,7.5L10.2,7.5L10.2,7.5z"/>
						</g>
						<path id="cp2_00000179619399584327111180000002892566640243303813_" class="st14" d="M10.6,7.8L10.6,7.8L10.6,7.8L10.6,7.8
							L10.6,7.8L10.6,7.8L10.6,7.8l-0.1-0.1L10.6,7.8l-0.1-0.1l0,0c0,0,0,0,0,0L10.6,7.8C10.5,7.9,10.5,7.9,10.6,7.8L10.6,7.8
							L10.6,7.8L10.6,7.8z"/>
						<g>
							<path id="cp2_00000079470616778450471480000018387278166252692104_" class="st14" d="M10.3,7.6L10.3,7.6L10.3,7.6L10.3,7.6
								L10.3,7.6L10.3,7.6L10.3,7.6l-0.1-0.1L10.3,7.6l-0.1-0.1l0,0c0,0,0,0,0,0L10.3,7.6C10.3,7.6,10.3,7.6,10.3,7.6L10.3,7.6
								L10.3,7.6L10.3,7.6z"/>
						</g>
						<path d="M10.4,7.7C10.4,7.7,10.4,7.7,10.4,7.7L10.4,7.7L10.4,7.7L10.4,7.7"/>
						<path id="cp3_00000046301492063865873450000010800654767228750771_" d="M10.4,7.9C10.5,7.8,10.4,7.8,10.4,7.9L10.4,7.9
							L10.4,7.9L10.4,7.9"/>
						<g>
							<path id="cp3_00000007416376154333914460000009382360352725104790_" d="M10.2,7.6C10.2,7.6,10.2,7.6,10.2,7.6L10.2,7.6
								L10.2,7.6L10.2,7.6"/>
						</g>
					</g>
				</g>
			</g>
		</g>
		<g id="quina">
			<path class="st15" d="M8.9,6.6L8.9,6.6c0,0.1,0,0.1,0.1,0.2c0,0,0.1,0.1,0.2,0.1c0.1,0,0.1,0,0.2-0.1c0,0,0.1-0.1,0.1-0.2V6.2
				l-0.5,0L8.9,6.6"/>
			<circle class="st16" cx="9" cy="6.4" r="0"/>
			<circle class="st16" cx="9.3" cy="6.4" r="0"/>
			<circle class="st16" cx="9.1" cy="6.5" r="0"/>
			<circle class="st16" cx="9" cy="6.6" r="0"/>
			<circle class="st16" cx="9.3" cy="6.6" r="0"/>
		</g>
		<g>
			<g id="quina_00000063606868954227838430000004272938084287923590_">
				<path class="st15" d="M8.9,5.7L8.9,5.7c0,0.1,0,0.1,0.1,0.2C9,6,9.1,6,9.1,6c0.1,0,0.1,0,0.2-0.1c0,0,0.1-0.1,0.1-0.2V5.4
					l-0.5,0L8.9,5.7"/>
				<circle class="st16" cx="9" cy="5.5" r="0"/>
				<circle class="st16" cx="9.3" cy="5.5" r="0"/>
				<circle class="st16" cx="9.1" cy="5.6" r="0"/>
				<circle class="st16" cx="9" cy="5.8" r="0"/>
				<circle class="st16" cx="9.3" cy="5.8" r="0"/>
			</g>
		</g>
		<g>
			<g id="quina_00000127753839198109384270000007789382322359357357_">
				<path class="st15" d="M8.2,6.6L8.2,6.6c0,0.1,0,0.1,0.1,0.2c0,0,0.1,0.1,0.2,0.1c0.1,0,0.1,0,0.2-0.1c0,0,0.1-0.1,0.1-0.2V6.2
					l-0.5,0L8.2,6.6"/>
				<circle class="st16" cx="8.3" cy="6.4" r="0"/>
				<circle class="st16" cx="8.6" cy="6.4" r="0"/>
				<circle class="st16" cx="8.4" cy="6.5" r="0"/>
				<circle class="st16" cx="8.3" cy="6.6" r="0"/>
				<circle class="st16" cx="8.6" cy="6.6" r="0"/>
			</g>
		</g>
		<g>
			<g id="quina_00000093865964527097586300000000470399804078070680_">
				<path class="st15" d="M9.5,6.6L9.5,6.6c0,0.1,0,0.1,0.1,0.2c0,0,0.1,0.1,0.2,0.1c0.1,0,0.1,0,0.2-0.1c0,0,0.1-0.1,0.1-0.2V6.2
					l-0.5,0L9.5,6.6"/>
				<circle class="st16" cx="9.7" cy="6.4" r="0"/>
				<circle class="st16" cx="9.9" cy="6.4" r="0"/>
				<circle class="st16" cx="9.8" cy="6.5" r="0"/>
				<circle class="st16" cx="9.7" cy="6.6" r="0"/>
				<circle class="st16" cx="9.9" cy="6.6" r="0"/>
			</g>
		</g>
		<g>
			<g id="quina_00000093141023659149894200000001744696511908580503_">
				<path class="st15" d="M8.9,7.4L8.9,7.4c0,0.1,0,0.1,0.1,0.2c0,0,0.1,0.1,0.2,0.1c0.1,0,0.1,0,0.2-0.1c0,0,0.1-0.1,0.1-0.2V7.1
					l-0.5,0L8.9,7.4"/>
				<circle class="st16" cx="9" cy="7.2" r="0"/>
				<circle class="st16" cx="9.3" cy="7.2" r="0"/>
				<circle class="st16" cx="9.1" cy="7.3" r="0"/>
				<circle class="st16" cx="9" cy="7.5" r="0"/>
				<circle class="st16" cx="9.3" cy="7.5" r="0"/>
			</g>
		</g>
	</g>
</g>
</svg>
