<svg xmlns="http://www.w3.org/2000/svg" xmlns:xlink="http://www.w3.org/1999/xlink" width="206.586" height="13.129" viewBox="0 0 206.586 13.129">
  <defs>
    <clipPath id="clip-path">
      <rect id="Rectangle_154" data-name="Rectangle 154" width="206.586" height="13.129" fill="none"/>
    </clipPath>
    <clipPath id="clip-path-2">
      <path id="Tracé_846" data-name="Tracé 846" d="M93.587,1.239v3.75a2.674,2.674,0,0,0,2.675,2.673h3.681a1.134,1.134,0,0,0,1.134-1.134V6.458a1.134,1.134,0,0,0-1.134-1.134h-2.95a1.134,1.134,0,0,1-1.136-1.134V1.239a1.135,1.135,0,0,0-2.27,0" transform="translate(-93.587 -0.105)" fill="none"/>
    </clipPath>
    <linearGradient id="linear-gradient" x1="-15.413" y1="1.382" x2="-15.247" y2="1.382" gradientUnits="objectBoundingBox">
      <stop offset="0" stop-color="#fee8a0"/>
      <stop offset="1" stop-color="#fed54c"/>
    </linearGradient>
  </defs>
  <g id="Groupe_482" data-name="Groupe 482" transform="translate(0 0)">
    <g id="Groupe_477" data-name="Groupe 477" transform="translate(0 0)">
      <g id="Groupe_476" data-name="Groupe 476" clip-path="url(#clip-path)">
        <path id="Tracé_832" data-name="Tracé 832" d="M10.713,6.49a.861.861,0,0,1,.246.62v4.1a.858.858,0,0,1-.438.767,7.05,7.05,0,0,1-1.84.847,7.134,7.134,0,0,1-2.062.3,6.618,6.618,0,0,1-3.346-.874A6.483,6.483,0,0,1,0,6.563,6.483,6.483,0,0,1,3.272.873,6.617,6.617,0,0,1,6.618,0,7.656,7.656,0,0,1,8.379.2,5.436,5.436,0,0,1,9.9.8a.9.9,0,0,1,.327.312.763.763,0,0,1,.109.4.891.891,0,0,1-.246.63.781.781,0,0,1-.592.265.864.864,0,0,1-.474-.128,5.688,5.688,0,0,0-2.408-.547A4.659,4.659,0,0,0,2.507,4.12a4.876,4.876,0,0,0-.628,2.443A4.841,4.841,0,0,0,2.507,9a4.718,4.718,0,0,0,1.714,1.748,4.585,4.585,0,0,0,2.4.649,6.154,6.154,0,0,0,1.3-.147A5.165,5.165,0,0,0,9.1,10.867v-2.9H6.892a.858.858,0,0,1-.62-.246.815.815,0,0,1-.254-.611.835.835,0,0,1,.254-.628.858.858,0,0,1,.62-.246H10.1a.812.812,0,0,1,.611.254" transform="translate(0 0.001)" fill="#fff"/>
        <path id="Tracé_833" data-name="Tracé 833" d="M30.126,9.9a6.059,6.059,0,0,1-2.2,2.361,6.235,6.235,0,0,1-6.345,0,6.059,6.059,0,0,1-2.2-2.361,7.018,7.018,0,0,1-.793-3.338,7.023,7.023,0,0,1,.793-3.338,6.054,6.054,0,0,1,2.2-2.36,6.246,6.246,0,0,1,6.345,0,6.054,6.054,0,0,1,2.2,2.36,7.023,7.023,0,0,1,.793,3.338A7.018,7.018,0,0,1,30.126,9.9M28.493,4.093A4.262,4.262,0,0,0,26.97,2.361a3.986,3.986,0,0,0-2.216-.63,4.043,4.043,0,0,0-2.216.62,4.217,4.217,0,0,0-1.522,1.724,5.541,5.541,0,0,0-.547,2.488,5.505,5.505,0,0,0,.547,2.472,4.287,4.287,0,0,0,1.522,1.733,4.221,4.221,0,0,0,4.432,0,4.278,4.278,0,0,0,1.523-1.733,5.505,5.505,0,0,0,.547-2.472,5.5,5.5,0,0,0-.547-2.47" transform="translate(13.593 0.001)" fill="#fff"/>
        <path id="Tracé_834" data-name="Tracé 834" d="M38.8.341a.9.9,0,0,1,.229.628v7a5.238,5.238,0,0,1-.639,2.588,4.635,4.635,0,0,1-1.761,1.8A4.959,4.959,0,0,1,34.1,13a5.046,5.046,0,0,1-2.552-.646,4.621,4.621,0,0,1-1.769-1.8,5.237,5.237,0,0,1-.637-2.588v-7A.831.831,0,0,1,29.4.341.9.9,0,0,1,30.057.1a.854.854,0,0,1,.611.254.831.831,0,0,1,.265.62v7a3.329,3.329,0,0,0,.438,1.7,3.13,3.13,0,0,0,1.167,1.175,3.082,3.082,0,0,0,1.567.421,3.254,3.254,0,0,0,1.624-.421,3.164,3.164,0,0,0,1.195-1.175,3.284,3.284,0,0,0,.447-1.7v-7a.914.914,0,0,1,.218-.628A.764.764,0,0,1,38.19.1.791.791,0,0,1,38.8.341" transform="translate(21.311 0.07)" fill="#fff"/>
        <path id="Tracé_835" data-name="Tracé 835" d="M45.6.626a3.759,3.759,0,0,1,1.3,1.413,4.071,4.071,0,0,1,.483,1.968,4.175,4.175,0,0,1-.483,1.987,3.777,3.777,0,0,1-1.3,1.44,3.227,3.227,0,0,1-1.788.531H40.388v4.028a.88.88,0,0,1-.237.62.855.855,0,0,1-1.212.009.886.886,0,0,1-.229-.628V.981a.869.869,0,0,1,.874-.876h4.231A3.274,3.274,0,0,1,45.6.626m-.876,5.36a2.187,2.187,0,0,0,.665-.847,2.65,2.65,0,0,0,.248-1.132A2.39,2.39,0,0,0,45.1,2.43a1.625,1.625,0,0,0-1.286-.647H40.388V6.3h3.428a1.475,1.475,0,0,0,.912-.319" transform="translate(28.304 0.077)" fill="#fff"/>
        <path id="Tracé_836" data-name="Tracé 836" d="M54.987,11.448a.835.835,0,0,1,.246.6.764.764,0,0,1-.246.592.888.888,0,0,1-.628.229H48.012a.872.872,0,0,1-.876-.876V.98a.843.843,0,0,1,.256-.62A.847.847,0,0,1,48.012.1h6.347a.873.873,0,0,1,.628.239.82.82,0,0,1,.246.62.764.764,0,0,1-.246.592.888.888,0,0,1-.628.229H48.942V5.5h4.6a.871.871,0,0,1,.628.235.8.8,0,0,1,.246.6.762.762,0,0,1-.246.6.914.914,0,0,1-.628.218h-4.6v4.032h5.417a.831.831,0,0,1,.628.254" transform="translate(34.465 0.077)" fill="#fff"/>
        <path id="Tracé_837" data-name="Tracé 837" d="M67.166.626a3.759,3.759,0,0,1,1.3,1.413,4.072,4.072,0,0,1,.483,1.968,4.176,4.176,0,0,1-.483,1.987,3.777,3.777,0,0,1-1.3,1.44,3.227,3.227,0,0,1-1.788.531H61.95v4.028a.88.88,0,0,1-.237.62.855.855,0,0,1-1.212.009.886.886,0,0,1-.229-.628V.981a.869.869,0,0,1,.874-.876h4.231a3.274,3.274,0,0,1,1.788.521m-.876,5.36a2.187,2.187,0,0,0,.665-.847A2.65,2.65,0,0,0,67.2,4.007a2.39,2.39,0,0,0-.538-1.577,1.625,1.625,0,0,0-1.286-.647H61.95V6.3h3.428a1.475,1.475,0,0,0,.912-.319" transform="translate(44.07 0.077)" fill="#fff"/>
        <path id="Tracé_838" data-name="Tracé 838" d="M79.811,9.9a6.059,6.059,0,0,1-2.2,2.361,6.235,6.235,0,0,1-6.345,0,6.059,6.059,0,0,1-2.2-2.361,7.018,7.018,0,0,1-.793-3.338,7.023,7.023,0,0,1,.793-3.338,6.054,6.054,0,0,1,2.2-2.36,6.246,6.246,0,0,1,6.345,0,6.054,6.054,0,0,1,2.2,2.36A7.023,7.023,0,0,1,80.6,6.563,7.018,7.018,0,0,1,79.811,9.9M78.178,4.093a4.262,4.262,0,0,0-1.523-1.731,3.986,3.986,0,0,0-2.216-.63,4.043,4.043,0,0,0-2.216.62A4.218,4.218,0,0,0,70.7,4.075a5.541,5.541,0,0,0-.547,2.488A5.505,5.505,0,0,0,70.7,9.035a4.287,4.287,0,0,0,1.522,1.733,4.221,4.221,0,0,0,4.432,0,4.278,4.278,0,0,0,1.523-1.733,5.505,5.505,0,0,0,.547-2.472,5.5,5.5,0,0,0-.547-2.47" transform="translate(49.922 0.001)" fill="#fff"/>
        <path id="Tracé_839" data-name="Tracé 839" d="M80.691,12.755a6,6,0,0,1-1.951-1.212.965.965,0,0,1-.383-.748.828.828,0,0,1,.254-.592.81.81,0,0,1,.6-.267.757.757,0,0,1,.528.2,5.084,5.084,0,0,0,1.5.992,4.548,4.548,0,0,0,1.761.32,3.413,3.413,0,0,0,1.941-.53,1.557,1.557,0,0,0,.795-1.331,1.7,1.7,0,0,0-.795-1.466,7.055,7.055,0,0,0-2.36-.867A6.271,6.271,0,0,1,79.7,6a3.035,3.035,0,0,1-1.013-2.425,3.218,3.218,0,0,1,.566-1.887A3.624,3.624,0,0,1,80.819.436,5.609,5.609,0,0,1,83.08,0a6.251,6.251,0,0,1,2.133.364,4.521,4.521,0,0,1,1.624.968,1.048,1.048,0,0,1,.419.784.823.823,0,0,1-.246.583.8.8,0,0,1-.594.254A.6.6,0,0,1,86,2.808,3.832,3.832,0,0,0,84.684,2a4.413,4.413,0,0,0-1.6-.327,3.343,3.343,0,0,0-1.942.5,1.536,1.536,0,0,0-.72,1.321,1.537,1.537,0,0,0,.72,1.368,6.728,6.728,0,0,0,2.141.8,11.285,11.285,0,0,1,2.327.729A3.274,3.274,0,0,1,87,7.567a3.487,3.487,0,0,1,.493,1.951A3.135,3.135,0,0,1,86.9,11.4a3.937,3.937,0,0,1-1.615,1.276,5.451,5.451,0,0,1-2.242.455,6.819,6.819,0,0,1-2.353-.374" transform="translate(57.294 0.001)" fill="#fff"/>
        <path id="Tracé_840" data-name="Tracé 840" d="M88.6,12.615a.9.9,0,0,1-.639.254.849.849,0,0,1-.646-.254.884.884,0,0,1-.248-.639v-11a.843.843,0,0,1,.256-.62A.887.887,0,0,1,87.98.105a.873.873,0,0,1,.628.254.832.832,0,0,1,.265.62v11a.84.84,0,0,1-.274.639" transform="translate(63.663 0.077)" fill="#fff"/>
        <path id="Tracé_841" data-name="Tracé 841" d="M102.1,12.615a.9.9,0,0,1-.639.254.849.849,0,0,1-.646-.254.884.884,0,0,1-.248-.639v-11a.843.843,0,0,1,.256-.62.887.887,0,0,1,.656-.254.873.873,0,0,1,.628.254.831.831,0,0,1,.265.62v11a.84.84,0,0,1-.274.639" transform="translate(73.536 0.077)" fill="#fff"/>
        <path id="Tracé_842" data-name="Tracé 842" d="M115.774.338a.753.753,0,0,1,.265.583,1.085,1.085,0,0,1-.092.4l-4.652,11a.954.954,0,0,1-.855.566.947.947,0,0,1-.448-.154.994.994,0,0,1-.338-.393L105.006,1.322a.851.851,0,0,1-.073-.383A.773.773,0,0,1,105.2.321a.9.9,0,0,1,.6-.237.843.843,0,0,1,.8.582l3.977,9.392L114.342.648a1.016,1.016,0,0,1,.338-.4A.789.789,0,0,1,115.144.1a.913.913,0,0,1,.63.237" transform="translate(76.726 0.062)" fill="#fff"/>
        <path id="Tracé_843" data-name="Tracé 843" d="M122.5,11.448a.835.835,0,0,1,.246.6.764.764,0,0,1-.246.592.888.888,0,0,1-.628.229H115.53a.872.872,0,0,1-.876-.876V.98a.843.843,0,0,1,.256-.62A.847.847,0,0,1,115.53.1h6.347a.873.873,0,0,1,.628.239.82.82,0,0,1,.246.62.764.764,0,0,1-.246.592.888.888,0,0,1-.628.229H116.46V5.5h4.6a.871.871,0,0,1,.628.235.8.8,0,0,1,.246.6.762.762,0,0,1-.246.6.914.914,0,0,1-.628.218h-4.6v4.032h5.417a.831.831,0,0,1,.628.254" transform="translate(83.833 0.077)" fill="#fff"/>
        <path id="Tracé_844" data-name="Tracé 844" d="M16.724.657a3.758,3.758,0,0,1,1.3,1.413,4.071,4.071,0,0,1,.483,1.968,4.175,4.175,0,0,1-.483,1.987,3.777,3.777,0,0,1-1.3,1.44A3.227,3.227,0,0,1,14.935,8H11.508v4.028a.88.88,0,0,1-.237.62.855.855,0,0,1-1.212.009.886.886,0,0,1-.229-.628V1.012A.869.869,0,0,1,10.7.136h4.231a3.274,3.274,0,0,1,1.788.521m-.876,5.36a2.187,2.187,0,0,0,.665-.847,2.65,2.65,0,0,0,.248-1.132,2.39,2.39,0,0,0-.538-1.577,1.625,1.625,0,0,0-1.286-.647H11.508V6.335h3.428a1.475,1.475,0,0,0,.912-.319" transform="translate(7.188 0.1)" fill="#fff"/>
        <path id="Tracé_845" data-name="Tracé 845" d="M16.11,10.03h0a.839.839,0,0,1-1.1-.435l-1.951-4.48a.838.838,0,1,1,1.537-.67l1.953,4.48a.84.84,0,0,1-.435,1.1" transform="translate(9.494 2.882)" fill="#fff"/>
      </g>
    </g>
    <g id="Groupe_479" data-name="Groupe 479" transform="translate(162.017 0.182)">
      <g id="Groupe_478" data-name="Groupe 478" clip-path="url(#clip-path-2)">
        <rect id="Rectangle_155" data-name="Rectangle 155" width="10.417" height="10.397" transform="translate(-3.452 5.313) rotate(-56.991)" fill="url(#linear-gradient)"/>
      </g>
    </g>
    <g id="Groupe_481" data-name="Groupe 481" transform="translate(0 0)">
      <g id="Groupe_480" data-name="Groupe 480" clip-path="url(#clip-path)">
        <path id="Tracé_847" data-name="Tracé 847" d="M90.553,4.254v.068a1.135,1.135,0,0,0,1.134,1.136h2.952a1.133,1.133,0,0,1,1.134,1.134v2.95a1.135,1.135,0,1,0,2.27,0V5.793A2.672,2.672,0,0,0,95.369,3.12H91.687a1.133,1.133,0,0,0-1.134,1.134" transform="translate(66.211 2.282)" fill="#fdc300"/>
      </g>
    </g>
  </g>
</svg>
