<svg xmlns="http://www.w3.org/2000/svg" width="45" height="45" viewBox="0 0 45 45">
  <g id="Groupe_486" data-name="Groupe 486" transform="translate(-31 -313)">
    <rect id="Rectangle_6" data-name="Rectangle 6" width="45" height="45" rx="8" transform="translate(31 313)" fill="#5c5ce6"/>
    <g id="Groupe_5" data-name="Groupe 5" transform="translate(44 325)">
      <path id="Tracé_810" data-name="Tracé 810" d="M59.17,149.687V129.574l13.479,10.088Z" transform="translate(-59.17 -129.574)" fill="#fff"/>
      <path id="Rectangle_151" data-name="Rectangle 151" d="M0,0H13.7a5,5,0,0,1,5,5V7.582a0,0,0,0,1,0,0H0a0,0,0,0,1,0,0V0A0,0,0,0,1,0,0Z" transform="translate(0 0)" fill="#fff" opacity="0.4"/>
      <path id="Rectangle_152" data-name="Rectangle 152" d="M0,0H18.7a0,0,0,0,1,0,0V2.582a5,5,0,0,1-5,5H0a0,0,0,0,1,0,0V0A0,0,0,0,1,0,0Z" transform="translate(0 12.622)" fill="#fff" opacity="0.4"/>
    </g>
  </g>
</svg>
