<svg id="Groupe_3666" data-name="Groupe 3666" xmlns="http://www.w3.org/2000/svg" xmlns:xlink="http://www.w3.org/1999/xlink" width="39.172" height="50.67" viewBox="0 0 39.172 50.67">
  <defs>
    <clipPath id="clip-path">
      <rect id="Rectangle_2059" data-name="Rectangle 2059" width="39.172" height="50.67" fill="#bdc0d7"/>
    </clipPath>
  </defs>
  <g id="Groupe_3655" data-name="Groupe 3655" clip-path="url(#clip-path)">
    <path id="Tracé_1912" data-name="Tracé 1912" d="M2,71.487c0-.075,0-.15,0-.225H10.77c-.33.367-.769.216-1.16.218-2.536.013-5.072.007-7.608.007" transform="translate(-1.548 -55.22)" fill="#bdc0d7"/>
    <path id="Tracé_1913" data-name="Tracé 1913" d="M75.694,224.94c-.011,0,.014.021,0,0" transform="translate(-58.652 -174.303)" fill="#bdc0d7"/>
    <path id="Tracé_1914" data-name="Tracé 1914" d="M38.864,80.923q.023-4.831.046-9.662H27.664a19.076,19.076,0,0,0-7.345,2.112,1.63,1.63,0,0,1-1.5,0,19.076,19.076,0,0,0-7.345-2.112H9.221a2.353,2.353,0,0,1-1.206.111c-2.533.059-5.069-.1-7.6.088a1.389,1.389,0,0,0-.186.966c-.037,2.983.083,5.967-.113,8.949-.055.451.122.92-.116,1.354v2.923c.235.358.063.758.116,1.134a8.562,8.562,0,0,0,1.272,4.472A18.444,18.444,0,0,0,9.66,98.751c.6.288.833.507.585,1.251-.6,1.793.541,4.769,2.125,5.887h.45l.959-1.439a4.133,4.133,0,0,1,.84,1.439h.675l.764-1.391a4.721,4.721,0,0,1,1.035,1.391h.45c1.128-.62,1.325-1.908,2.019-2.873.744.944.826,2.308,2.029,2.873h.45l.94-1.495.859,1.495h.675a5.475,5.475,0,0,1,.8-1.445l1,1.445h.45a14.83,14.83,0,0,0,1.87-3.566,2.389,2.389,0,0,0-.06-2.369c-.66-.826-.271-1,.455-1.329,5.85-2.676,11.545-8.1,9.834-17.7M32.271,94.364c-6.918,5.729-18.535,5.691-25.448-.019-4.005-3.308-5.428-7.567-4.7-12.62a20.054,20.054,0,0,1,.659-3.18c1.314-4.173,4.488-5.973,8.92-5.166a22.073,22.073,0,0,1,7.029,2.56,1.513,1.513,0,0,0,1.718-.025,19.269,19.269,0,0,1,7.93-2.622c4.576-.315,7.3,1.782,8.276,6.266a18.072,18.072,0,0,1,.489,4.313,12.25,12.25,0,0,1-4.869,10.494m5.885-22.853a.6.6,0,0,1,.468.4.732.732,0,0,0-.468-.4" transform="translate(0 -55.219)" fill="#bdc0d7"/>
    <path id="Tracé_1915" data-name="Tracé 1915" d="M42.658,104.96a7.126,7.126,0,0,1,6.948,6.926c.018.61-.156.765-.752.725a7.18,7.18,0,0,1-6.9-6.837c-.041-.591.029-.982.7-.814" transform="translate(-32.504 -81.301)" fill="#bdc0d7"/>
    <path id="Tracé_1916" data-name="Tracé 1916" d="M104.767,104.947c.667-.179.827.148.775.837a7.179,7.179,0,0,1-6.923,6.814c-.633.038-.746-.179-.724-.752a7.115,7.115,0,0,1,6.873-6.9" transform="translate(-75.855 -81.285)" fill="#bdc0d7"/>
    <path id="Tracé_1917" data-name="Tracé 1917" d="M74.773,145.58h5.475c-.9,1.4-1.7,2.666-2.53,3.924-.2.307-.363.088-.492-.111l-2.453-3.812" transform="translate(-57.94 -112.808)" fill="#bdc0d7"/>
    <path id="Tracé_1918" data-name="Tracé 1918" d="M4.233,22.172v1.254H4.1a1.63,1.63,0,0,0-.392-.8.881.881,0,0,0-.609-.213.672.672,0,0,0-.454.149.432.432,0,0,0-.173.33.6.6,0,0,0,.129.386,1.426,1.426,0,0,0,.507.35l.587.285a1.193,1.193,0,0,1,.816,1.049.991.991,0,0,1-.38.81,1.317,1.317,0,0,1-.85.308,2.926,2.926,0,0,1-.772-.12.785.785,0,0,0-.217-.04.16.16,0,0,0-.145.1H2.014V24.7h.133a1.5,1.5,0,0,0,.43.848,1.039,1.039,0,0,0,.712.285.638.638,0,0,0,.452-.163.517.517,0,0,0,.175-.392.625.625,0,0,0-.195-.466,3.409,3.409,0,0,0-.778-.478,2.3,2.3,0,0,1-.764-.523A.9.9,0,0,1,2,23.237a1.022,1.022,0,0,1,.312-.76,1.1,1.1,0,0,1,.806-.305,1.894,1.894,0,0,1,.527.093,1.253,1.253,0,0,0,.273.06.161.161,0,0,0,.1-.028.389.389,0,0,0,.084-.125Z" transform="translate(-1.548 -17.181)" fill="#bdc0d7"/>
    <path id="Tracé_1919" data-name="Tracé 1919" d="M16.8,15.543V18.5a1.35,1.35,0,0,0,.05.46.352.352,0,0,0,.149.171.8.8,0,0,0,.36.056v.145H15.573v-.145a.833.833,0,0,0,.362-.052.359.359,0,0,0,.147-.173,1.3,1.3,0,0,0,.054-.462V17.083a5.022,5.022,0,0,0-.036-.776.315.315,0,0,0-.088-.179.25.25,0,0,0-.165-.05.8.8,0,0,0-.274.06l-.056-.145,1.11-.45Zm-.334-1.926a.405.405,0,0,1,.406.406.4.4,0,0,1-.119.289.388.388,0,0,1-.287.12.408.408,0,1,1,0-.816" transform="translate(-12.024 -10.552)" fill="#bdc0d7"/>
    <path id="Tracé_1920" data-name="Tracé 1920" d="M26.694,24.62a1.213,1.213,0,0,1-.518-.46,1.227,1.227,0,0,1-.181-.653,1.257,1.257,0,0,1,.412-.941,1.464,1.464,0,0,1,1.055-.394,1.607,1.607,0,0,1,.913.257h.78a1.047,1.047,0,0,1,.2.01.069.069,0,0,1,.04.034.248.248,0,0,1,.024.129.362.362,0,0,1-.02.145.084.084,0,0,1-.042.032.9.9,0,0,1-.2.012h-.478a1.241,1.241,0,0,1-.169,1.62,1.492,1.492,0,0,1-1.057.366,2.047,2.047,0,0,1-.559-.081,1.068,1.068,0,0,0-.239.267.428.428,0,0,0-.062.2.186.186,0,0,0,.066.133.486.486,0,0,0,.259.092q.112.016.563.028.828.02,1.073.056a1.009,1.009,0,0,1,.6.278.758.758,0,0,1,.223.555,1.162,1.162,0,0,1-.426.852,2.3,2.3,0,0,1-1.636.587A2.343,2.343,0,0,1,26,27.39q-.3-.2-.3-.418a.461.461,0,0,1,.044-.193,2.249,2.249,0,0,1,.281-.414q.028-.036.41-.434a1.275,1.275,0,0,1-.3-.223.33.33,0,0,1-.086-.223.663.663,0,0,1,.115-.33,2.642,2.642,0,0,1,.529-.535m-.04,1.343a1.977,1.977,0,0,0-.285.382.688.688,0,0,0-.1.326.407.407,0,0,0,.233.338,2.219,2.219,0,0,0,1.162.249A1.8,1.8,0,0,0,28.734,27a.7.7,0,0,0,.344-.545.3.3,0,0,0-.205-.3,2.681,2.681,0,0,0-.828-.1,13.291,13.291,0,0,1-1.391-.093m.74-3.6a.628.628,0,0,0-.5.237,1.107,1.107,0,0,0-.2.728,1.566,1.566,0,0,0,.274.985.647.647,0,0,0,.531.265.633.633,0,0,0,.5-.229,1.089,1.089,0,0,0,.2-.719,1.611,1.611,0,0,0-.277-1,.637.637,0,0,0-.527-.265" transform="translate(-19.912 -17.181)" fill="#bdc0d7"/>
    <path id="Tracé_1921" data-name="Tracé 1921" d="M44.392,22.951a1.738,1.738,0,0,1,1.234-.78.887.887,0,0,1,.519.151,1.011,1.011,0,0,1,.346.5,2.3,2.3,0,0,1,.088.74V25.13a1.327,1.327,0,0,0,.056.474.331.331,0,0,0,.143.157.812.812,0,0,0,.364.056v.145H45.321v-.145H45.4a.614.614,0,0,0,.36-.078.412.412,0,0,0,.143-.231,2.334,2.334,0,0,0,.016-.378V23.622a1.53,1.53,0,0,0-.131-.73.466.466,0,0,0-.44-.227,1.326,1.326,0,0,0-.953.523V25.13a1.389,1.389,0,0,0,.044.462.374.374,0,0,0,.155.171.962.962,0,0,0,.4.054v.145H43.17v-.145h.08a.433.433,0,0,0,.38-.143,1.043,1.043,0,0,0,.1-.545V23.763a5.911,5.911,0,0,0-.03-.808.346.346,0,0,0-.092-.2.252.252,0,0,0-.167-.052.774.774,0,0,0-.269.06l-.06-.145,1.11-.45h.173Z" transform="translate(-33.405 -17.18)" fill="#bdc0d7"/>
    <path id="Tracé_1922" data-name="Tracé 1922" d="M64.538,25.433a6.044,6.044,0,0,1-.712.507,1.087,1.087,0,0,1-.462.1.828.828,0,0,1-.629-.261.96.96,0,0,1-.247-.688.874.874,0,0,1,.121-.466,1.6,1.6,0,0,1,.573-.515,8.917,8.917,0,0,1,1.357-.587v-.145a1.2,1.2,0,0,0-.175-.756.632.632,0,0,0-.509-.205.571.571,0,0,0-.4.137.411.411,0,0,0-.153.314l.008.233a.4.4,0,0,1-.095.285.323.323,0,0,1-.247.1.313.313,0,0,1-.243-.1.41.41,0,0,1-.095-.285.823.823,0,0,1,.354-.635,1.529,1.529,0,0,1,.993-.289,1.724,1.724,0,0,1,.8.165.758.758,0,0,1,.35.39,2.191,2.191,0,0,1,.072.708v1.25a5.767,5.767,0,0,0,.02.645.271.271,0,0,0,.066.159.157.157,0,0,0,.106.04.218.218,0,0,0,.113-.028,2.506,2.506,0,0,0,.326-.293v.225q-.45.6-.86.6a.391.391,0,0,1-.314-.137.739.739,0,0,1-.121-.466m0-.261v-1.4a7.961,7.961,0,0,0-.784.342,1.357,1.357,0,0,0-.454.37.716.716,0,0,0-.137.422.688.688,0,0,0,.173.48.523.523,0,0,0,.4.191,1.458,1.458,0,0,0,.8-.4" transform="translate(-48.421 -17.181)" fill="#bdc0d7"/>
    <path id="Tracé_1923" data-name="Tracé 1923" d="M79.786,13.617V18.5a1.335,1.335,0,0,0,.05.458.354.354,0,0,0,.155.171.884.884,0,0,0,.39.059v.145H78.576v-.145a.78.78,0,0,0,.346-.052.349.349,0,0,0,.145-.173,1.345,1.345,0,0,0,.052-.462V15.157a5.772,5.772,0,0,0-.028-.766A.335.335,0,0,0,79,14.2a.239.239,0,0,0-.159-.052.753.753,0,0,0-.265.064l-.068-.141,1.1-.45Z" transform="translate(-60.835 -10.552)" fill="#bdc0d7"/>
    <path id="Tracé_1924" data-name="Tracé 1924" d="M100.986,22.172v1.254h-.133a1.632,1.632,0,0,0-.392-.8.881.881,0,0,0-.609-.213.672.672,0,0,0-.454.149.432.432,0,0,0-.173.33.6.6,0,0,0,.129.386,1.426,1.426,0,0,0,.507.35l.587.285a1.193,1.193,0,0,1,.816,1.049.991.991,0,0,1-.38.81,1.316,1.316,0,0,1-.85.308,2.926,2.926,0,0,1-.772-.12.785.785,0,0,0-.217-.04.16.16,0,0,0-.145.1h-.133V24.7H98.9a1.5,1.5,0,0,0,.43.848,1.039,1.039,0,0,0,.712.285.638.638,0,0,0,.452-.163.517.517,0,0,0,.175-.392.624.624,0,0,0-.2-.466,3.4,3.4,0,0,0-.778-.478,2.3,2.3,0,0,1-.764-.523.9.9,0,0,1-.181-.579,1.021,1.021,0,0,1,.312-.76,1.1,1.1,0,0,1,.806-.305,1.894,1.894,0,0,1,.527.093,1.253,1.253,0,0,0,.273.06.161.161,0,0,0,.1-.028.389.389,0,0,0,.084-.125Z" transform="translate(-76.521 -17.181)" fill="#bdc0d7"/>
    <path id="Tracé_1925" data-name="Tracé 1925" d="M111.095,22.646l1.134-.458h.153v.86a2.084,2.084,0,0,1,.573-.681,1.062,1.062,0,0,1,.605-.195,1.164,1.164,0,0,1,.925.434,2.051,2.051,0,0,1,.454,1.383,2.3,2.3,0,0,1-.546,1.576,1.448,1.448,0,0,1-1.134.511,1.419,1.419,0,0,1-.515-.084,1.2,1.2,0,0,1-.362-.241v1.122a1.494,1.494,0,0,0,.046.48.343.343,0,0,0,.161.163.986.986,0,0,0,.416.06v.149h-1.929v-.149h.1a.731.731,0,0,0,.378-.084.291.291,0,0,0,.118-.143,1.713,1.713,0,0,0,.042-.5V23.366a1.89,1.89,0,0,0-.032-.454.274.274,0,0,0-.1-.145.331.331,0,0,0-.191-.048.726.726,0,0,0-.245.056Zm1.287.639v1.375a2.954,2.954,0,0,0,.036.587.752.752,0,0,0,.275.41.853.853,0,0,0,.553.177.793.793,0,0,0,.651-.314,1.813,1.813,0,0,0,.326-1.154,2.008,2.008,0,0,0-.37-1.3.769.769,0,0,0-.611-.314.831.831,0,0,0-.382.1,2.246,2.246,0,0,0-.478.434" transform="translate(-86.07 -17.181)" fill="#bdc0d7"/>
    <path id="Tracé_1926" data-name="Tracé 1926" d="M132.841,25.433a6.045,6.045,0,0,1-.712.507,1.087,1.087,0,0,1-.462.1.828.828,0,0,1-.629-.261.959.959,0,0,1-.247-.688.874.874,0,0,1,.121-.466,1.6,1.6,0,0,1,.573-.515,8.921,8.921,0,0,1,1.357-.587v-.145a1.2,1.2,0,0,0-.175-.756.632.632,0,0,0-.509-.205.571.571,0,0,0-.4.137.411.411,0,0,0-.153.314l.008.233a.4.4,0,0,1-.095.285.324.324,0,0,1-.247.1.314.314,0,0,1-.243-.1.41.41,0,0,1-.094-.285.823.823,0,0,1,.354-.635,1.529,1.529,0,0,1,.993-.289,1.724,1.724,0,0,1,.8.165.758.758,0,0,1,.35.39,2.191,2.191,0,0,1,.072.708v1.25a5.769,5.769,0,0,0,.02.645.271.271,0,0,0,.066.159.158.158,0,0,0,.107.04.218.218,0,0,0,.113-.028,2.506,2.506,0,0,0,.326-.293v.225q-.45.6-.86.6a.391.391,0,0,1-.314-.137.739.739,0,0,1-.121-.466m0-.261v-1.4a7.964,7.964,0,0,0-.784.342,1.357,1.357,0,0,0-.454.37.716.716,0,0,0-.137.422.688.688,0,0,0,.173.48.523.523,0,0,0,.4.191,1.458,1.458,0,0,0,.8-.4" transform="translate(-101.348 -17.181)" fill="#bdc0d7"/>
    <path id="Tracé_1927" data-name="Tracé 1927" d="M147.307,22.955q.4-.4.474-.462a1.446,1.446,0,0,1,.39-.237,1.1,1.1,0,0,1,.414-.084.919.919,0,0,1,.595.2,1,1,0,0,1,.334.583,2.733,2.733,0,0,1,.7-.633,1.245,1.245,0,0,1,.587-.151.92.92,0,0,1,.52.151,1,1,0,0,1,.36.493,2.218,2.218,0,0,1,.088.732V25.13a1.44,1.44,0,0,0,.052.474.342.342,0,0,0,.149.151.748.748,0,0,0,.354.062v.145h-1.817v-.145h.076a.639.639,0,0,0,.37-.093.358.358,0,0,0,.133-.205,2.6,2.6,0,0,0,.016-.39V23.546a1.341,1.341,0,0,0-.108-.635.544.544,0,0,0-.5-.257.957.957,0,0,0-.428.106,2.319,2.319,0,0,0-.52.4l-.008.044.008.173V25.13a1.515,1.515,0,0,0,.042.47.342.342,0,0,0,.159.155.912.912,0,0,0,.4.062v.145H148.28v-.145a.851.851,0,0,0,.42-.072.375.375,0,0,0,.159-.217,2.153,2.153,0,0,0,.02-.4V23.546a1.2,1.2,0,0,0-.133-.647.567.567,0,0,0-.495-.257.889.889,0,0,0-.43.117,1.656,1.656,0,0,0-.515.4V25.13a1.366,1.366,0,0,0,.05.47.346.346,0,0,0,.149.163.963.963,0,0,0,.4.054v.145h-1.821v-.145a.813.813,0,0,0,.354-.054.348.348,0,0,0,.153-.173,1.324,1.324,0,0,0,.052-.46V23.723a5.066,5.066,0,0,0-.036-.784.321.321,0,0,0-.088-.183.25.25,0,0,0-.165-.05.77.77,0,0,0-.269.06l-.06-.145,1.11-.45h.173Z" transform="translate(-113.152 -17.18)" fill="#bdc0d7"/>
    <path id="Tracé_1928" data-name="Tracé 1928" d="M121.427,0l2.413,3.749L126.252,0Z" transform="translate(-94.092)" fill="#bdc0d7"/>
    <path id="Tracé_1929" data-name="Tracé 1929" d="M121.427,49.819h4.825l-2.413-3.749" transform="translate(-94.092 -35.699)" fill="#bdc0d7"/>
  </g>
</svg>
