<svg xmlns="http://www.w3.org/2000/svg" xmlns:xlink="http://www.w3.org/1999/xlink" width="76.855" height="24.549" viewBox="0 0 76.855 24.549">
  <defs>
    <clipPath id="clip-path">
      <path id="Tracé_1979" data-name="Tracé 1979" d="M140.291,24.391V35.038a1.4,1.4,0,0,0,1.39,1.418h.052a1.455,1.455,0,0,0,1.375-1.483V24.391Z" transform="translate(-140.291 -24.391)" fill="#fff"/>
    </clipPath>
    <clipPath id="clip-path-2">
      <path id="Tracé_1981" data-name="Tracé 1981" d="M148.934,24.391V35.026a1.4,1.4,0,0,0,1.39,1.416h.052a1.454,1.454,0,0,0,1.375-1.483V24.391Z" transform="translate(-148.934 -24.391)" fill="#fff"/>
    </clipPath>
    <clipPath id="clip-path-4">
      <path id="Tracé_1985" data-name="Tracé 1985" d="M157.579,24.376l-.007,10.647a1.411,1.411,0,0,0,1.4,1.418h.046a1.454,1.454,0,0,0,1.375-1.483V24.376Z" transform="translate(-157.572 -24.376)" fill="#fff"/>
    </clipPath>
    <clipPath id="clip-path-5">
      <path id="Tracé_1987" data-name="Tracé 1987" d="M161.879,24.376l-.026,6.64a5.451,5.451,0,0,0,5.446,5.446h4.977a1.465,1.465,0,0,0,1.483-1.373,1.418,1.418,0,0,0-1.376-1.459l-.039,0h-5.037a2.611,2.611,0,0,1-2.612-2.612h0v-6.64Z" transform="translate(-161.853 -24.376)" fill="#fff"/>
    </clipPath>
    <clipPath id="clip-path-6">
      <path id="Tracé_1989" data-name="Tracé 1989" d="M170.506,24.376V35.037a1.391,1.391,0,0,0,1.378,1.4c.022,0,.043,0,.064,0a1.453,1.453,0,0,0,1.375-1.483V24.376Z" transform="translate(-170.506 -24.376)" fill="#fff"/>
    </clipPath>
    <clipPath id="clip-path-7">
      <path id="Tracé_1991" data-name="Tracé 1991" d="M142.23,24.391v6.547a2.626,2.626,0,0,1-2.572,2.679h-6.7a2.685,2.685,0,0,1-2.681-2.679V24.391h-2.856v6.614a5.394,5.394,0,0,0,5.377,5.379h6.769a5.431,5.431,0,0,0,5.42-5.379V24.391Z" transform="translate(-127.421 -24.391)" fill="#fff"/>
    </clipPath>
  </defs>
  <g id="Groupe_3397" data-name="Groupe 3397" transform="translate(-127.421 -17.126)" opacity="0.3">
    <g id="Groupe_3400" data-name="Groupe 3400" transform="translate(149.537 29.61)">
      <g id="Groupe_3695" data-name="Groupe 3695">
        <path id="Tracé_1978" data-name="Tracé 1978" d="M140.291,24.391V35.038a1.4,1.4,0,0,0,1.39,1.418h.052a1.455,1.455,0,0,0,1.375-1.483V24.391Z" transform="translate(-140.291 -24.391)" fill="#fff"/>
        <g id="Groupe_3694" data-name="Groupe 3694" clip-path="url(#clip-path)">
          <g id="Groupe_3399" data-name="Groupe 3399" transform="translate(-0.001 0.004)">
            <rect id="Rectangle_1879" data-name="Rectangle 1879" width="2.808" height="12.077" fill="#fff"/>
          </g>
        </g>
      </g>
    </g>
    <g id="Groupe_3404" data-name="Groupe 3404" transform="translate(164.389 29.61)">
      <g id="Groupe_3697" data-name="Groupe 3697">
        <path id="Tracé_1980" data-name="Tracé 1980" d="M148.934,24.391V35.026a1.4,1.4,0,0,0,1.39,1.416h.052a1.454,1.454,0,0,0,1.375-1.483V24.391Z" transform="translate(-148.934 -24.391)" fill="#fff"/>
        <g id="Groupe_3696" data-name="Groupe 3696" clip-path="url(#clip-path-2)">
          <g id="Groupe_3403" data-name="Groupe 3403" transform="translate(0 0.004)">
            <rect id="Rectangle_1881" data-name="Rectangle 1881" width="2.808" height="12.077" fill="#fff"/>
          </g>
        </g>
      </g>
    </g>
    <g id="Groupe_3406" data-name="Groupe 3406" transform="translate(149.535 24.07)">
      <g id="Groupe_3698" data-name="Groupe 3698">
        <g id="Groupe_3405" data-name="Groupe 3405">
          <path id="Tracé_1815" data-name="Tracé 1815" d="M152.558,21.167h-6.822a5.45,5.45,0,0,0-5.446,5.446v.095H143.1v-.095A2.612,2.612,0,0,1,145.71,24h6.822a2.613,2.613,0,0,1,2.612,2.612v.095h2.808v-.095a5.364,5.364,0,0,0-5.281-5.444c-.038,0-.076,0-.113,0" transform="translate(-140.29 -21.167)" fill="#fff"/>
          <path id="Tracé_1816" data-name="Tracé 1816" d="M148.934,24.391V35.026a1.4,1.4,0,0,0,1.39,1.416h.052a1.454,1.454,0,0,0,1.375-1.483V24.391Z" transform="translate(-134.08 -18.851)" fill="#fff"/>
        </g>
      </g>
    </g>
    <g id="Groupe_3408" data-name="Groupe 3408" transform="translate(164.389 29.61)">
      <g id="Groupe_3700" data-name="Groupe 3700">
        <path id="Tracé_1982" data-name="Tracé 1982" d="M148.934,24.391V35.026a1.4,1.4,0,0,0,1.39,1.416h.052a1.454,1.454,0,0,0,1.375-1.483V24.391Z" transform="translate(-148.934 -24.391)" fill="#fff"/>
        <g id="Groupe_3699" data-name="Groupe 3699" clip-path="url(#clip-path-2)">
          <g id="Groupe_3407" data-name="Groupe 3407" transform="translate(0 0.004)">
            <rect id="Rectangle_1883" data-name="Rectangle 1883" width="2.808" height="12.077" fill="#fff"/>
          </g>
        </g>
      </g>
    </g>
    <g id="Groupe_3412" data-name="Groupe 3412" transform="translate(179.233 29.585)">
      <g id="Groupe_3702" data-name="Groupe 3702">
        <path id="Tracé_1984" data-name="Tracé 1984" d="M157.579,24.376l-.007,10.647a1.411,1.411,0,0,0,1.4,1.418h.046a1.454,1.454,0,0,0,1.375-1.483V24.376Z" transform="translate(-157.572 -24.376)" fill="#fff"/>
        <g id="Groupe_3701" data-name="Groupe 3701" clip-path="url(#clip-path-4)">
          <g id="Groupe_3411" data-name="Groupe 3411" transform="translate(-0.009 0.004)">
            <rect id="Rectangle_1885" data-name="Rectangle 1885" width="2.826" height="12.077" fill="#fff"/>
          </g>
        </g>
      </g>
    </g>
    <g id="Groupe_3414" data-name="Groupe 3414" transform="translate(164.379 24.053)">
      <g id="Groupe_3703" data-name="Groupe 3703">
        <g id="Groupe_3413" data-name="Groupe 3413">
          <path id="Tracé_1820" data-name="Tracé 1820" d="M161.2,21.157h-6.822a5.451,5.451,0,0,0-5.446,5.446V26.7h2.817v-.1a2.613,2.613,0,0,1,2.612-2.614h6.822a2.613,2.613,0,0,1,2.612,2.614v.095H166.6v-.1a5.363,5.363,0,0,0-5.289-5.437c-.038,0-.076,0-.113,0" transform="translate(-148.928 -21.157)" fill="#fff"/>
          <path id="Tracé_1821" data-name="Tracé 1821" d="M161.879,24.376l-.026,6.64a5.451,5.451,0,0,0,5.446,5.446h4.977a1.465,1.465,0,0,0,1.483-1.373,1.418,1.418,0,0,0-1.376-1.459l-.039,0h-5.037a2.611,2.611,0,0,1-2.612-2.612h0v-6.64Z" transform="translate(-139.642 -18.844)" fill="#fff"/>
        </g>
      </g>
    </g>
    <g id="Groupe_3416" data-name="Groupe 3416" transform="translate(186.59 29.585)">
      <g id="Groupe_3705" data-name="Groupe 3705">
        <path id="Tracé_1986" data-name="Tracé 1986" d="M161.879,24.376l-.026,6.64a5.451,5.451,0,0,0,5.446,5.446h4.977a1.465,1.465,0,0,0,1.483-1.373,1.418,1.418,0,0,0-1.376-1.459l-.039,0h-5.037a2.611,2.611,0,0,1-2.612-2.612h0v-6.64Z" transform="translate(-161.853 -24.376)" fill="#fff"/>
        <g id="Groupe_3704" data-name="Groupe 3704" clip-path="url(#clip-path-5)">
          <g id="Groupe_3415" data-name="Groupe 3415" transform="translate(0.001 0.004)">
            <rect id="Rectangle_1887" data-name="Rectangle 1887" width="11.924" height="12.077" fill="#fff"/>
          </g>
        </g>
      </g>
    </g>
    <g id="Groupe_3420" data-name="Groupe 3420" transform="translate(201.459 29.585)">
      <g id="Groupe_3707" data-name="Groupe 3707">
        <path id="Tracé_1988" data-name="Tracé 1988" d="M170.506,24.376V35.037a1.391,1.391,0,0,0,1.378,1.4c.022,0,.043,0,.064,0a1.453,1.453,0,0,0,1.375-1.483V24.376Z" transform="translate(-170.506 -24.376)" fill="#fff"/>
        <g id="Groupe_3706" data-name="Groupe 3706" clip-path="url(#clip-path-6)">
          <g id="Groupe_3419" data-name="Groupe 3419" transform="translate(0 0.004)">
            <rect id="Rectangle_1889" data-name="Rectangle 1889" width="2.817" height="12.077" fill="#fff"/>
          </g>
        </g>
      </g>
    </g>
    <g id="Groupe_3422" data-name="Groupe 3422" transform="translate(127.421 24.053)">
      <g id="Groupe_3708" data-name="Groupe 3708">
        <g id="Groupe_3421" data-name="Groupe 3421">
          <path id="Tracé_1825" data-name="Tracé 1825" d="M174.129,21.157h-6.82a5.45,5.45,0,0,0-5.446,5.446V26.7h2.808v-.1a2.612,2.612,0,0,1,2.612-2.614h6.82a2.612,2.612,0,0,1,2.612,2.612v.1h2.81v-.1a5.356,5.356,0,0,0-5.276-5.437c-.04,0-.079,0-.119,0" transform="translate(-102.677 -21.157)" fill="#fff"/>
          <path id="Tracé_1826" data-name="Tracé 1826" d="M142.23,24.391v6.547a2.626,2.626,0,0,1-2.572,2.679h-6.7a2.685,2.685,0,0,1-2.681-2.679V24.391h-2.856v6.614a5.394,5.394,0,0,0,5.377,5.379h6.769a5.431,5.431,0,0,0,5.42-5.379V24.391Z" transform="translate(-127.421 -18.834)" fill="#fff"/>
        </g>
      </g>
    </g>
    <g id="Groupe_3424" data-name="Groupe 3424" transform="translate(127.421 29.61)">
      <g id="Groupe_3710" data-name="Groupe 3710">
        <path id="Tracé_1990" data-name="Tracé 1990" d="M142.23,24.391v6.547a2.626,2.626,0,0,1-2.572,2.679h-6.7a2.685,2.685,0,0,1-2.681-2.679V24.391h-2.856v6.614a5.394,5.394,0,0,0,5.377,5.379h6.769a5.431,5.431,0,0,0,5.42-5.379V24.391Z" transform="translate(-127.421 -24.391)" fill="#fff"/>
        <g id="Groupe_3709" data-name="Groupe 3709" clip-path="url(#clip-path-7)">
          <g id="Groupe_3423" data-name="Groupe 3423" transform="translate(0 0.004)">
            <rect id="Rectangle_1891" data-name="Rectangle 1891" width="17.575" height="11.992" fill="#fff"/>
          </g>
        </g>
      </g>
    </g>
    <g id="Groupe_3426" data-name="Groupe 3426" transform="translate(127.421 17.126)">
      <g id="Groupe_3711" data-name="Groupe 3711">
        <g id="Groupe_3425" data-name="Groupe 3425">
          <path id="Tracé_1828" data-name="Tracé 1828" d="M130.28,26.608a2.686,2.686,0,0,1,2.677-2.682h4.834a1.378,1.378,0,0,0,1.375-1.382v-.034a1.419,1.419,0,0,0-1.442-1.352H132.8a5.4,5.4,0,0,0-5.377,5.408v.153h2.859Z" transform="translate(-127.421 -14.23)" fill="#fff"/>
          <path id="Tracé_1829" data-name="Tracé 1829" d="M138.807,18.5a1.378,1.378,0,0,0-1.382-1.375h-.038a1.417,1.417,0,0,0-1.349,1.443V29.614h2.768Z" transform="translate(-121.23 -17.126)" fill="#fff"/>
        </g>
      </g>
    </g>
  </g>
</svg>
