<svg xmlns="http://www.w3.org/2000/svg" width="87.632" height="22.932" viewBox="0 0 87.632 22.932">
  <g id="Groupe_3431" data-name="Groupe 3431" transform="translate(-195.912 -23.139)" opacity="0.3">
    <g id="Groupe_3693" data-name="Groupe 3693" transform="translate(195.912 23.139)">
      <g id="Groupe_3431-2" data-name="Groupe 3431-2">
        <path id="Tracé_1863" data-name="Tracé 1863" d="M229.2,42.589a18.806,18.806,0,0,0,5.618-.205,7.229,7.229,0,0,0,5.687-6.761,11.476,11.476,0,0,0-.064-3.018,6.941,6.941,0,0,0-6.885-6.045c-1.253-.075-2.513-.005-3.769-.05-.525-.021-.638.169-.629.653.024,1.8-.01,3.6.023,5.4.009.546-.163.709-.7.685-.872-.04-1.75-.017-2.622-.009-.309,0-.54-.035-.533-.426.047-3.183-.1-6.37.078-9.554,1.79-.146,3.583-.031,5.375-.063.735-.014,1.47,0,2.2,0h.871a12.089,12.089,0,0,1,4.89.831,8.746,8.746,0,0,1,5.357,5.51,13.354,13.354,0,0,1-.123,9.54c-1.743,4.266-5.064,6.487-9.639,6.876-.186.017-.384-.059-.551.083h-.328a14.591,14.591,0,0,0-2.768-.076c-1.557-.024-3.114-.028-4.669.005-.532.01-.7-.136-.7-.686.03-2.725.024-5.451,0-8.176,0-.5.132-.676.643-.652.846.038,1.694.031,2.539,0,.467-.017.613.141.606.6-.023,1.689-.009,3.38-.007,5.069a.661.661,0,0,0,.089.469" transform="translate(-174.221 -23.108)" fill="#fff"/>
        <path id="Tracé_1864" data-name="Tracé 1864" d="M227.337,23.139a26.347,26.347,0,0,1,3.449,1.156,1.048,1.048,0,0,1,.7,1.117c-.054,1.156-.017,2.316-.017,3.62a10.575,10.575,0,0,0-2.532-1.729,7.973,7.973,0,0,0-10.546,3.99,7.882,7.882,0,0,0-.41,1.128c-.193.681-.459.921-1.149.86a16.789,16.789,0,0,0-2.049-.009c-.41.012-.57-.061-.5-.546a11.532,11.532,0,0,1,9.585-9.446c.264-.149.587.054.846-.141Z" transform="translate(-182.373 -23.139)" fill="#fff"/>
        <path id="Tracé_1865" data-name="Tracé 1865" d="M223.823,40.288a11.543,11.543,0,0,1-9.463-8.82c-.089-.459-.056-.719.527-.683.791.043,1.585.021,2.377.005.335-.005.565.052.669.427a8.026,8.026,0,0,0,13.262,3.51c.031-.031.1-.024.228-.056,0,1.315-.007,2.61,0,3.908,0,.356-.243.445-.488.57a12.049,12.049,0,0,1-2.674,1c-.269.066-.612-.016-.806.28h-2.789c-.257-.195-.582.009-.846-.139" transform="translate(-182.331 -17.502)" fill="#fff"/>
        <path id="Tracé_1866" data-name="Tracé 1866" d="M226.539,31.564a3.928,3.928,0,0,1-3.906,3.95c-.043,0-.085,0-.129,0a4,4,0,0,1-4.005-4V31.5a4.049,4.049,0,0,1,4.026-4.014,3.984,3.984,0,0,1,4.014,3.955c0,.04,0,.08,0,.12" transform="translate(-179.25 -19.93)" fill="#fff"/>
        <path id="Tracé_1867" data-name="Tracé 1867" d="M226.363,24c.059-.643-.156-.829-.81-.824-3.819.031-7.641.014-11.462.017-.4.156-.337.525-.353.834-.031.6-.012,1.2-.01,1.8.009,3.281-.021,6.56.017,9.809-.03-.09-.068-.181-.1-.266-1.451-3.818-2.89-7.641-4.365-11.45-.123-.316-.208-.7-.671-.719h-3.983c-.672.259-.683.938-.886,1.467q-2.651,6.9-5.251,13.823a58.558,58.558,0,0,0-2.577,7.211v.165a19.327,19.327,0,0,0,4.252-.031,1.842,1.842,0,0,0,.494-.924c.417-1.156.872-2.3,1.216-3.477a1.108,1.108,0,0,1,1.239-.914c2.3.03,4.589.035,6.888,0a1.236,1.236,0,0,1,1.368.99c.391,1.22.858,2.417,1.314,3.614.122.323.179.705.594.818,1.484-.05,2.97.106,4.455-.083.009-2.858.038-5.719.01-8.577-.007-.66.207-.831.838-.81,1.555.04,3.112.03,4.667.005.784-.012,1.792.344,2.294-.151.539-.528.1-1.552.193-2.355.071-.638-.158-.853-.818-.841-2.16.038-4.313,0-6.468.026-.547.007-.707-.172-.7-.7.028-1.5-.005-3,.019-4.492.009-.474-.16-.975.129-1.427a1.392,1.392,0,0,1,.719-.073c2.348,0,4.693-.016,7.041.009.521.005.747-.116.7-.678a10.671,10.671,0,0,1,0-1.8M209.389,37.02c-1.885-.035-3.769-.017-5.654-.009-.381,0-.638.005-.448-.518,1.079-2.964,2.129-5.941,3.19-8.911l.191-.017q.571,1.6,1.143,3.2c.669,1.87,1.335,3.743,2.019,5.606.174.469.155.664-.443.653" transform="translate(-195.912 -23.11)" fill="#fff"/>
        <path id="Tracé_1868" data-name="Tracé 1868" d="M248.121,23.437c-.758-.235-1.557-.116-2.32-.3h-.328a1.458,1.458,0,0,1-.8.082c-1.995.005-3.988,0-5.983,0-1.142,0-1.157,0-1.157,1.117q-.008,10.3,0,20.609a1.411,1.411,0,0,0,.179.944,30.462,30.462,0,0,0,3.736.08c.434-.278.315-.725.318-1.114.017-1.937,0-3.875.01-5.813.005-.853.082-.928.951-.931a21.222,21.222,0,0,0,3.354-.181c2.789-.46,6.233-2.149,6.78-6.113V28.707c-.337-2.867-2.1-4.452-4.737-5.27m-2.594,11a21.962,21.962,0,0,1-3.592.165c-.485.017-.427-.29-.427-.589V26.985c0-.278-.026-.554.4-.547a17.988,17.988,0,0,1,3.913.207,3.667,3.667,0,0,1,3.067,3.87,3.871,3.871,0,0,1-3.359,3.925" transform="translate(-165.225 -23.138)" fill="#fff"/>
      </g>
    </g>
  </g>
</svg>
