<svg xmlns="http://www.w3.org/2000/svg" xmlns:xlink="http://www.w3.org/1999/xlink" width="109.917" height="45.807" viewBox="0 0 109.917 45.807">
  <defs>
    <clipPath id="clip-path">
      <rect id="Rectangle_1764" data-name="Rectangle 1764" width="46.114" height="45.807" fill="#bdc0d7"/>
    </clipPath>
  </defs>
  <g id="Groupe_3264" data-name="Groupe 3264" transform="translate(-793.166 -1124.134)">
    <text id="conformité" transform="translate(847.083 1134)" fill="#bdc0d7" font-size="7" font-family="Inter-Light, Inter" font-weight="300" letter-spacing="0.1em"><tspan x="0" y="7">CONFORMITÉ</tspan></text>
    <text id="RGPD" transform="translate(847.083 1141)" fill="#bdc0d7" font-size="20" font-family="Inter-Bold, Inter" font-weight="700"><tspan x="0" y="19">RGPD</tspan></text>
    <g id="Groupe_3261" data-name="Groupe 3261" transform="translate(793.166 1124.134)">
      <g id="Groupe_3260" data-name="Groupe 3260" transform="translate(0 0)" clip-path="url(#clip-path)">
        <path id="Tracé_1654" data-name="Tracé 1654" d="M38.779,45.579l-.121-.03a9.655,9.655,0,0,1-7-9.309V31.5l7.119-3.162L45.893,31.5v4.723a9.667,9.667,0,0,1-7,9.309ZM32.652,32.146v4.078a8.649,8.649,0,0,0,6.127,8.312,8.64,8.64,0,0,0,6.142-8.312V32.146l-6.142-2.719Z" transform="translate(-15.72 -14.071)" fill="#bdc0d7"/>
        <path id="Tracé_1655" data-name="Tracé 1655" d="M45.086,38.3h-.378v-.76a1.878,1.878,0,0,0-3.751-.194,1.787,1.787,0,0,0,0,.194v.76H40.58a.75.75,0,0,0-.75.75v3.756a.75.75,0,0,0,.75.75h4.531a.75.75,0,0,0,.75-.75V39.042a.751.751,0,0,0-.76-.741h-.016m-2.251,3.368a.75.75,0,1,1,.75-.75.75.75,0,0,1-.75.75M44,38.3H41.668v-.76a1.168,1.168,0,0,1,2.331,0Z" transform="translate(-19.776 -17.66)" fill="#bdc0d7"/>
        <path id="Tracé_1656" data-name="Tracé 1656" d="M42.687,0l.74,2.291h2.412L43.89,3.706,44.635,6,42.687,4.582,40.738,6l.745-2.291L39.53,2.291h2.412Z" transform="translate(-19.627 0)" fill="#bdc0d7"/>
        <path id="Tracé_1657" data-name="Tracé 1657" d="M42.687,79.07l.74,2.291h2.412L43.89,82.776l.745,2.291-1.948-1.415-1.948,1.415.745-2.291L39.53,81.361h2.412Z" transform="translate(-19.627 -39.26)" fill="#bdc0d7"/>
        <path id="Tracé_1658" data-name="Tracé 1658" d="M3.152,39.53,3.9,41.821H6.3l-1.948,1.42L5.1,45.526,3.152,44.112,1.2,45.526l.745-2.286L0,41.821H2.407Z" transform="translate(0 -19.627)" fill="#bdc0d7"/>
        <path id="Tracé_1659" data-name="Tracé 1659" d="M82.222,39.53l.745,2.291h2.407l-1.948,1.42.745,2.286-1.948-1.415-1.948,1.415.745-2.286-1.948-1.42h2.407Z" transform="translate(-39.26 -19.627)" fill="#bdc0d7"/>
        <path id="Tracé_1660" data-name="Tracé 1660" d="M8.282,20.06l.745,2.291h2.407L9.485,23.766l.745,2.286L8.282,24.637,6.333,26.051l.745-2.286L5.13,22.351H7.537Z" transform="translate(-2.547 -9.96)" fill="#bdc0d7"/>
        <path id="Tracé_1661" data-name="Tracé 1661" d="M77.092,20.06l.745,2.291h2.407L78.3,23.766l.745,2.286-1.948-1.415-1.948,1.415.745-2.286L73.94,22.351h2.407Z" transform="translate(-36.713 -9.96)" fill="#bdc0d7"/>
        <path id="Tracé_1662" data-name="Tracé 1662" d="M8.282,59.01,9.027,61.3h2.407l-1.948,1.42.745,2.286L8.282,63.592,6.333,65.006l.745-2.286L5.13,61.3H7.537Z" transform="translate(-2.547 -29.3)" fill="#bdc0d7"/>
        <path id="Tracé_1663" data-name="Tracé 1663" d="M77.092,59.01l.745,2.291h2.407L78.3,62.721l.745,2.286-1.948-1.415-1.948,1.415.745-2.286L73.94,61.3h2.407Z" transform="translate(-36.713 -29.3)" fill="#bdc0d7"/>
        <path id="Tracé_1664" data-name="Tracé 1664" d="M22.8,5.07l.745,2.291h2.407L24.005,8.776l.745,2.291L22.8,9.652l-1.948,1.415L21.6,8.776,19.65,7.361h2.407Z" transform="translate(-9.757 -2.517)" fill="#bdc0d7"/>
        <path id="Tracé_1665" data-name="Tracé 1665" d="M62.572,5.07l.745,2.291h2.407L63.775,8.776l.745,2.291L62.572,9.652l-1.948,1.415.745-2.291L59.42,7.361h2.407Z" transform="translate(-29.503 -2.517)" fill="#bdc0d7"/>
        <path id="Tracé_1666" data-name="Tracé 1666" d="M22.8,74l.745,2.291h2.407l-1.948,1.415L24.75,80,22.8,78.582,20.853,80l.745-2.291L19.65,76.291h2.407Z" transform="translate(-9.757 -36.742)" fill="#bdc0d7"/>
        <path id="Tracé_1667" data-name="Tracé 1667" d="M62.572,74l.745,2.291h2.407l-1.948,1.415L64.52,80l-1.948-1.415L60.623,80l.745-2.291L59.42,76.291h2.407Z" transform="translate(-29.503 -36.742)" fill="#bdc0d7"/>
      </g>
    </g>
  </g>
</svg>
