<svg xmlns="http://www.w3.org/2000/svg" width="81.358" height="29.665" viewBox="0 0 81.358 29.665">
  <g id="Groupe_3712" data-name="Groupe 3712" transform="translate(-275.936 -9.207)" opacity="0.3">
    <path id="Tracé_1918" data-name="Tracé 1918" d="M280.632,13.38v2.635h-.279a3.435,3.435,0,0,0-.825-1.69,1.842,1.842,0,0,0-1.277-.448,1.4,1.4,0,0,0-.955.312.9.9,0,0,0-.365.694,1.265,1.265,0,0,0,.269.812,2.979,2.979,0,0,0,1.066.734l1.235.6a2.506,2.506,0,0,1,1.712,2.205,2.084,2.084,0,0,1-.8,1.7,2.764,2.764,0,0,1-1.788.646,6.1,6.1,0,0,1-1.619-.254,1.67,1.67,0,0,0-.458-.083.334.334,0,0,0-.3.219h-.279V18.7h.279a3.151,3.151,0,0,0,.905,1.783,2.175,2.175,0,0,0,1.493.6,1.355,1.355,0,0,0,.953-.342,1.1,1.1,0,0,0,.367-.825,1.315,1.315,0,0,0-.412-.981,7.033,7.033,0,0,0-1.634-1,4.855,4.855,0,0,1-1.6-1.1,1.9,1.9,0,0,1-.377-1.217,2.153,2.153,0,0,1,.656-1.6,2.31,2.31,0,0,1,1.692-.644,4.026,4.026,0,0,1,1.106.2,2.511,2.511,0,0,0,.576.128.333.333,0,0,0,.211-.058.8.8,0,0,0,.176-.262Z" transform="translate(0 6.313)" fill="#fff"/>
    <path id="Tracé_1919" data-name="Tracé 1919" d="M281.182,15.814v6.216a2.78,2.78,0,0,0,.106.966.716.716,0,0,0,.312.36,1.654,1.654,0,0,0,.757.118v.3H278.6v-.3a1.772,1.772,0,0,0,.759-.108.754.754,0,0,0,.309-.365,2.758,2.758,0,0,0,.113-.971V19.047a10.391,10.391,0,0,0-.075-1.629.672.672,0,0,0-.186-.377.555.555,0,0,0-.347-.106,1.726,1.726,0,0,0-.573.128l-.118-.3,2.333-.945Zm-.7-4.046a.853.853,0,0,1,.852.85v0a.836.836,0,0,1-.251.608.8.8,0,0,1-.6.254.856.856,0,1,1,0-1.712h0" transform="translate(3.851 3.878)" fill="#fff"/>
    <path id="Tracé_1920" data-name="Tracé 1920" d="M282.49,18.524a2.546,2.546,0,0,1-1.089-.966,2.59,2.59,0,0,1-.382-1.378,2.641,2.641,0,0,1,.867-1.976,3.083,3.083,0,0,1,2.215-.827,3.389,3.389,0,0,1,1.919.541h1.639a2.38,2.38,0,0,1,.422.023.144.144,0,0,1,.086.073.526.526,0,0,1,.05.272.741.741,0,0,1-.043.3.168.168,0,0,1-.088.065,1.857,1.857,0,0,1-.425.025h-1.006a2.606,2.606,0,0,1-.355,3.4,3.147,3.147,0,0,1-2.22.769,4.342,4.342,0,0,1-1.179-.171,2.236,2.236,0,0,0-.5.563.879.879,0,0,0-.133.41.4.4,0,0,0,.141.279.992.992,0,0,0,.543.2c.158.023.551.043,1.179.06q1.742.041,2.255.118a2.12,2.12,0,0,1,1.257.588,1.593,1.593,0,0,1,.47,1.167,2.442,2.442,0,0,1-.9,1.788,4.815,4.815,0,0,1-3.437,1.235,4.916,4.916,0,0,1-2.751-.734c-.42-.282-.634-.573-.634-.878a.937.937,0,0,1,.093-.4,4.746,4.746,0,0,1,.588-.873q.06-.075.862-.91a2.683,2.683,0,0,1-.621-.468.7.7,0,0,1-.181-.47,1.4,1.4,0,0,1,.241-.694,5.6,5.6,0,0,1,1.111-1.124m-.086,2.821a4.213,4.213,0,0,0-.6.8,1.455,1.455,0,0,0-.2.684.852.852,0,0,0,.488.709,4.658,4.658,0,0,0,2.441.526,3.778,3.778,0,0,0,2.243-.536,1.47,1.47,0,0,0,.722-1.144.641.641,0,0,0-.43-.626,5.638,5.638,0,0,0-1.738-.219,28.407,28.407,0,0,1-2.924-.2m1.556-7.561a1.329,1.329,0,0,0-1.049.5,2.33,2.33,0,0,0-.422,1.529,3.291,3.291,0,0,0,.573,2.069,1.364,1.364,0,0,0,1.114.558,1.334,1.334,0,0,0,1.056-.483,2.294,2.294,0,0,0,.415-1.511,3.394,3.394,0,0,0-.588-2.1,1.334,1.334,0,0,0-1.106-.558" transform="translate(6.749 6.312)" fill="#fff"/>
    <path id="Tracé_1921" data-name="Tracé 1921" d="M286.366,15.013a3.646,3.646,0,0,1,2.592-1.639,1.872,1.872,0,0,1,1.091.317,2.109,2.109,0,0,1,.727,1.043,4.842,4.842,0,0,1,.186,1.554v3.3a2.778,2.778,0,0,0,.116,1,.7.7,0,0,0,.3.329,1.686,1.686,0,0,0,.764.118v.3h-3.827v-.294h.161a1.272,1.272,0,0,0,.757-.166.864.864,0,0,0,.3-.485,4.81,4.81,0,0,0,.033-.785V16.433a3.191,3.191,0,0,0-.274-1.534.985.985,0,0,0-.925-.478,2.793,2.793,0,0,0-2,1.1V19.6a2.941,2.941,0,0,0,.091.971.794.794,0,0,0,.327.36,2.038,2.038,0,0,0,.842.113v.3H283.8v-.3h.169a.915.915,0,0,0,.8-.3,2.218,2.218,0,0,0,.206-1.144V16.728a12.773,12.773,0,0,0-.063-1.7.737.737,0,0,0-.2-.415.54.54,0,0,0-.352-.111,1.611,1.611,0,0,0-.566.126l-.128-.3L286,13.378h.362Z" transform="translate(11.706 6.309)" fill="#fff"/>
    <path id="Tracé_1922" data-name="Tracé 1922" d="M291.621,20.23a12.5,12.5,0,0,1-1.5,1.066,2.256,2.256,0,0,1-.97.211,1.742,1.742,0,0,1-1.323-.548,2.026,2.026,0,0,1-.518-1.443,1.825,1.825,0,0,1,.254-.983,3.363,3.363,0,0,1,1.2-1.081,18.942,18.942,0,0,1,2.851-1.232v-.3a2.529,2.529,0,0,0-.367-1.587,1.322,1.322,0,0,0-1.069-.43,1.19,1.19,0,0,0-.845.287.869.869,0,0,0-.322.656l.018.49a.834.834,0,0,1-.2.6.671.671,0,0,1-.518.214.655.655,0,0,1-.51-.221.838.838,0,0,1-.2-.6,1.723,1.723,0,0,1,.742-1.335,3.208,3.208,0,0,1,2.087-.608,3.6,3.6,0,0,1,1.69.347,1.586,1.586,0,0,1,.734.817,4.562,4.562,0,0,1,.151,1.486v2.628a12.175,12.175,0,0,0,.043,1.355.561.561,0,0,0,.138.334.341.341,0,0,0,.224.085.431.431,0,0,0,.236-.06,4.964,4.964,0,0,0,.684-.616v.473Q293.4,21.5,292.539,21.5a.813.813,0,0,1-.659-.287,1.541,1.541,0,0,1-.251-.981m0-.548V16.732a16.823,16.823,0,0,0-1.647.719,2.831,2.831,0,0,0-.955.784,1.52,1.52,0,0,0-.287.888,1.442,1.442,0,0,0,.362,1.008,1.1,1.1,0,0,0,.837.395,3.071,3.071,0,0,0,1.69-.845" transform="translate(17.228 6.312)" fill="#fff"/>
    <path id="Tracé_1923" data-name="Tracé 1923" d="M293.015,11.768V22.029a2.832,2.832,0,0,0,.106.963.751.751,0,0,0,.327.357,1.824,1.824,0,0,0,.82.123v.3h-3.794v-.3a1.638,1.638,0,0,0,.729-.108.744.744,0,0,0,.3-.365,2.878,2.878,0,0,0,.111-.971V15a12.289,12.289,0,0,0-.06-1.609.7.7,0,0,0-.2-.407.506.506,0,0,0-.334-.111,1.529,1.529,0,0,0-.558.136l-.143-.294,2.306-.945Z" transform="translate(21.79 3.878)" fill="#fff"/>
    <path id="Tracé_1924" data-name="Tracé 1924" d="M298.83,13.381v2.635h-.277a3.435,3.435,0,0,0-.825-1.69,1.842,1.842,0,0,0-1.277-.448,1.4,1.4,0,0,0-.955.312.9.9,0,0,0-.365.694,1.265,1.265,0,0,0,.269.812,2.98,2.98,0,0,0,1.066.734l1.235.6a2.506,2.506,0,0,1,1.712,2.205,2.084,2.084,0,0,1-.8,1.7,2.765,2.765,0,0,1-1.788.646,6.1,6.1,0,0,1-1.619-.254,1.67,1.67,0,0,0-.458-.083.334.334,0,0,0-.3.219h-.279V18.7h.279a3.152,3.152,0,0,0,.905,1.783,2.175,2.175,0,0,0,1.494.6,1.355,1.355,0,0,0,.953-.342,1.089,1.089,0,0,0,.367-.825,1.315,1.315,0,0,0-.412-.983,7.121,7.121,0,0,0-1.634-1,4.853,4.853,0,0,1-1.6-1.1,1.891,1.891,0,0,1-.38-1.217,2.146,2.146,0,0,1,.654-1.6,2.33,2.33,0,0,1,1.695-.644,4.047,4.047,0,0,1,1.106.2,2.624,2.624,0,0,0,.573.126.329.329,0,0,0,.211-.058.847.847,0,0,0,.178-.262Z" transform="translate(27.559 6.311)" fill="#fff"/>
    <path id="Tracé_1925" data-name="Tracé 1925" d="M296.5,14.373l2.381-.963h.319v1.808a4.376,4.376,0,0,1,1.2-1.431,2.214,2.214,0,0,1,1.27-.41,2.443,2.443,0,0,1,1.941.913,4.3,4.3,0,0,1,.956,2.9,4.844,4.844,0,0,1-1.147,3.311,3.045,3.045,0,0,1-2.384,1.071,2.932,2.932,0,0,1-1.081-.176,2.54,2.54,0,0,1-.762-.508v2.359a3.114,3.114,0,0,0,.1,1.011.728.728,0,0,0,.337.342,2.116,2.116,0,0,0,.875.126v.312h-4.053V24.73h.209a1.529,1.529,0,0,0,.787-.179.613.613,0,0,0,.246-.3,3.61,3.61,0,0,0,.091-1.051V15.887a4.064,4.064,0,0,0-.068-.955.575.575,0,0,0-.216-.3.7.7,0,0,0-.392-.1,1.571,1.571,0,0,0-.515.118Zm2.7,1.345v2.889a6.312,6.312,0,0,0,.075,1.232,1.582,1.582,0,0,0,.578.862,1.793,1.793,0,0,0,1.162.37,1.66,1.66,0,0,0,1.375-.656,3.8,3.8,0,0,0,.684-2.426,4.217,4.217,0,0,0-.784-2.726,1.615,1.615,0,0,0-1.285-.659,1.75,1.75,0,0,0-.8.2,4.73,4.73,0,0,0-1,.91" transform="translate(31.072 6.315)" fill="#fff"/>
    <path id="Tracé_1926" data-name="Tracé 1926" d="M304.468,20.23a12.478,12.478,0,0,1-1.494,1.066,2.273,2.273,0,0,1-.97.211,1.738,1.738,0,0,1-1.323-.548,2.017,2.017,0,0,1-.52-1.443,1.871,1.871,0,0,1,.254-.983,3.356,3.356,0,0,1,1.2-1.081,19.055,19.055,0,0,1,2.851-1.232v-.3a2.512,2.512,0,0,0-.367-1.587,1.319,1.319,0,0,0-1.069-.43,1.194,1.194,0,0,0-.845.287.859.859,0,0,0-.319.656l.018.49a.834.834,0,0,1-.2.6.68.68,0,0,1-.521.214.662.662,0,0,1-.51-.221.861.861,0,0,1-.2-.6,1.737,1.737,0,0,1,.742-1.335,3.212,3.212,0,0,1,2.087-.608,3.593,3.593,0,0,1,1.69.347,1.6,1.6,0,0,1,.737.817,4.633,4.633,0,0,1,.151,1.486v2.628a12.166,12.166,0,0,0,.04,1.355.564.564,0,0,0,.141.334.332.332,0,0,0,.224.085.436.436,0,0,0,.236-.06,5.272,5.272,0,0,0,.684-.616v.473q-.951,1.267-1.808,1.267a.806.806,0,0,1-.659-.287,1.543,1.543,0,0,1-.254-.981m0-.548V16.732a17.093,17.093,0,0,0-1.647.719,2.83,2.83,0,0,0-.955.784,1.519,1.519,0,0,0-.287.888,1.444,1.444,0,0,0,.365,1.008,1.1,1.1,0,0,0,.837.395,3.071,3.071,0,0,0,1.69-.845" transform="translate(36.684 6.312)" fill="#fff"/>
    <path id="Tracé_1927" data-name="Tracé 1927" d="M305.728,15.024q.845-.845,1-.971a3.119,3.119,0,0,1,.82-.5,2.347,2.347,0,0,1,.87-.176,1.92,1.92,0,0,1,1.25.422,2.074,2.074,0,0,1,.7,1.225,5.75,5.75,0,0,1,1.471-1.33,2.613,2.613,0,0,1,1.235-.317,1.914,1.914,0,0,1,1.091.317,2.1,2.1,0,0,1,.757,1.036,4.6,4.6,0,0,1,.186,1.536V19.6a3.1,3.1,0,0,0,.111,1,.73.73,0,0,0,.312.317,1.577,1.577,0,0,0,.744.128v.3h-3.819v-.3h.161a1.335,1.335,0,0,0,.787-.2.753.753,0,0,0,.279-.43,5.25,5.25,0,0,0,.033-.82V16.266a2.826,2.826,0,0,0-.226-1.335,1.147,1.147,0,0,0-1.056-.541,2.036,2.036,0,0,0-.9.224,4.973,4.973,0,0,0-1.094.832l-.018.093.018.362v3.691a3.241,3.241,0,0,0,.091.983.708.708,0,0,0,.312.324,1.9,1.9,0,0,0,.837.131v.3h-3.91v-.3a1.8,1.8,0,0,0,.882-.151.788.788,0,0,0,.332-.455,4.459,4.459,0,0,0,.043-.837V16.266a2.527,2.527,0,0,0-.279-1.36,1.194,1.194,0,0,0-1.041-.541,1.862,1.862,0,0,0-.9.246,3.44,3.44,0,0,0-1.081.837V19.6a2.869,2.869,0,0,0,.106.981.716.716,0,0,0,.314.342,1.992,1.992,0,0,0,.84.116v.3h-3.827v-.3a1.707,1.707,0,0,0,.744-.113.731.731,0,0,0,.319-.365,2.787,2.787,0,0,0,.111-.966V16.646A10.268,10.268,0,0,0,304.247,15a.671.671,0,0,0-.184-.395.518.518,0,0,0-.347-.106,1.583,1.583,0,0,0-.566.128l-.126-.3,2.331-.948h.365Z" transform="translate(41.023 6.315)" fill="#fff"/>
    <path id="Tracé_1928" data-name="Tracé 1928" d="M298.4,9.207l5.069,7.875,5.069-7.875Z" transform="translate(34.018 0)" fill="#fff"/>
    <path id="Tracé_1929" data-name="Tracé 1929" d="M298.4,25.75h10.138l-5.069-7.878" transform="translate(34.018 13.122)" fill="#fff"/>
  </g>
</svg>
