<svg xmlns="http://www.w3.org/2000/svg" width="40.593" height="40.593" viewBox="0 0 40.593 40.593">
  <g id="Groupe_3365" data-name="Groupe 3365" transform="translate(-1347.771 -8627)">
    <g id="logoSarbacane" transform="translate(1347.771 8627)">
      <path id="Tracé_110" data-name="Tracé 110" d="M20.3,0a20.3,20.3,0,1,0,20.3,20.3A20.315,20.315,0,0,0,20.3,0ZM15.3,18.686H26.418A3.953,3.953,0,0,1,29.8,20.3a4.929,4.929,0,0,1,.644,3.947,7.031,7.031,0,0,1-2.094,3.947A5.287,5.287,0,0,1,24.4,29.8H9.343a3.266,3.266,0,0,1,3.3-3.3H25.129c.483,0,1.772-.242,2.094-2.255s-.805-2.255-1.289-2.255h-11.2A3.919,3.919,0,0,1,11.356,20.3a5.144,5.144,0,0,1-.725-3.866,6.7,6.7,0,0,1,2.175-3.947,5.565,5.565,0,0,1,3.866-1.611H31.331a3.266,3.266,0,0,1-3.3,3.3H16.108c-.483,0-1.772.242-2.094,2.255C13.612,18.444,14.82,18.686,15.3,18.686Z" fill="#fff"/>
    </g>
  </g>
</svg>
