<svg xmlns="http://www.w3.org/2000/svg" xmlns:xlink="http://www.w3.org/1999/xlink" width="23.194" height="23.194" viewBox="0 0 23.194 23.194">
  <defs>
    <clipPath id="clip-path">
      <rect id="Rectangle_1053" data-name="Rectangle 1053" width="15.692" height="19.074" fill="#fff"/>
    </clipPath>
  </defs>
  <g id="Groupe_3694" data-name="Groupe 3694" transform="translate(-1875.403 -19.403)">
    <path id="Tracé_1652" data-name="Tracé 1652" d="M11.6,0A11.6,11.6,0,1,1,0,11.6,11.6,11.6,0,0,1,11.6,0Z" transform="translate(1875.403 19.403)" fill="#fff" opacity="0.4"/>
    <g id="Groupe_3259" data-name="Groupe 3259" transform="translate(1879.133 23.523)">
      <g id="Groupe_2594" data-name="Groupe 2594" transform="translate(0 0)" clip-path="url(#clip-path)">
        <path id="Tracé_1106" data-name="Tracé 1106" d="M7.846,10C2.04,10,0,13.1,0,15.163v.5a11.524,11.524,0,0,0,15.692,0v-.5C15.692,13.1,13.652,10,7.846,10" transform="translate(0 0.325)" fill="#fff"/>
        <path id="Tracé_1107" data-name="Tracé 1107" d="M7.913,0A4.535,4.535,0,0,0,3.5,4.646,4.535,4.535,0,0,0,7.913,9.293a4.535,4.535,0,0,0,4.413-4.646A4.535,4.535,0,0,0,7.913,0" transform="translate(-0.067 0)" fill="#fff"/>
      </g>
    </g>
  </g>
</svg>
