<svg xmlns="http://www.w3.org/2000/svg" xmlns:xlink="http://www.w3.org/1999/xlink" width="19.102" height="19.057" viewBox="0 0 19.102 19.057">
  <defs>
    <clipPath id="clip-path">
      <rect id="Rectangle_2065" data-name="Rectangle 2065" width="19.102" height="19.057" fill="none"/>
    </clipPath>
  </defs>
  <g id="Groupe_3678" data-name="Groupe 3678" transform="translate(0)" opacity="0.6">
    <g id="Groupe_3677" data-name="Groupe 3677" transform="translate(0 0)" clip-path="url(#clip-path)">
      <path id="Tracé_1937" data-name="Tracé 1937" d="M.316,6.327H4.28V19.058H.316ZM2.3,0A2.294,2.294,0,1,1,0,2.292,2.294,2.294,0,0,1,2.3,0" transform="translate(0 -0.001)" fill="#fff"/>
      <path id="Tracé_1938" data-name="Tracé 1938" d="M4.831,4.611h3.8V6.352h.052A4.162,4.162,0,0,1,12.426,4.3c4.007,0,4.746,2.635,4.746,6.064v6.982H13.217v-6.19c0-1.478-.029-3.376-2.056-3.376-2.06,0-2.375,1.608-2.375,3.268v6.3H4.831Z" transform="translate(1.93 1.716)" fill="#fff"/>
    </g>
  </g>
</svg>
