<svg xmlns="http://www.w3.org/2000/svg" xmlns:xlink="http://www.w3.org/1999/xlink" width="17.669" height="14.542" viewBox="0 0 17.669 14.542">
  <defs>
    <clipPath id="clip-path">
      <rect id="Rectangle_2063" data-name="Rectangle 2063" width="17.669" height="14.542" fill="none"/>
    </clipPath>
  </defs>
  <g id="Groupe_3674" data-name="Groupe 3674" transform="translate(0)" opacity="0.6">
    <g id="Groupe_3673" data-name="Groupe 3673" transform="translate(0 0)" clip-path="url(#clip-path)">
      <path id="Tracé_1935" data-name="Tracé 1935" d="M17.6,1.743a7.3,7.3,0,0,1-1.787.51c.288-.049.709-.568.879-.779A3.289,3.289,0,0,0,17.281.392c.014-.031.027-.07,0-.093a.1.1,0,0,0-.1.008,9.088,9.088,0,0,1-2.118.811.142.142,0,0,1-.145-.039A1.677,1.677,0,0,0,14.732.89,3.735,3.735,0,0,0,13.706.26,3.571,3.571,0,0,0,12.133.008a3.749,3.749,0,0,0-1.494.421,3.833,3.833,0,0,0-1.2.984,3.706,3.706,0,0,0-.72,1.441,3.906,3.906,0,0,0-.038,1.521c.011.084,0,.1-.073.084A11.308,11.308,0,0,1,1.324.755c-.085-.1-.132-.1-.2.008a3.691,3.691,0,0,0,.629,4.361c.143.135.29.27.448.394a3.721,3.721,0,0,1-1.4-.394C.71,5.07.667,5.1.659,5.2a2.247,2.247,0,0,0,.023.417,3.734,3.734,0,0,0,2.3,2.976,2.186,2.186,0,0,0,.466.143,4.193,4.193,0,0,1-1.378.042c-.1-.019-.138.031-.1.127a3.876,3.876,0,0,0,2.894,2.424c.132.023.263.023.394.053-.008.012-.016.012-.023.023a4.585,4.585,0,0,1-1.977,1.048,7.08,7.08,0,0,1-3,.384c-.162-.024-.2-.022-.239,0s-.006.065.047.107c.2.135.413.255.625.371a9.916,9.916,0,0,0,2.008.8A10.687,10.687,0,0,0,13.075,11.69a10.891,10.891,0,0,0,2.872-7.944c0-.114.135-.177.215-.238A6.991,6.991,0,0,0,17.575,2.04a.447.447,0,0,0,.094-.281V1.743c0-.047,0-.032-.073,0" transform="translate(0 0)" fill="#fff"/>
    </g>
  </g>
</svg>
