<svg xmlns="http://www.w3.org/2000/svg" xmlns:xlink="http://www.w3.org/1999/xlink" width="20.774" height="14.542" viewBox="0 0 20.774 14.542">
  <defs>
    <clipPath id="clip-path">
      <rect id="Rectangle_2064" data-name="Rectangle 2064" width="20.774" height="14.542" fill="none"/>
    </clipPath>
  </defs>
  <g id="Groupe_3676" data-name="Groupe 3676" transform="translate(0)" opacity="0.6">
    <g id="Groupe_3675" data-name="Groupe 3675" transform="translate(0 0)" clip-path="url(#clip-path)">
      <path id="Tracé_1936" data-name="Tracé 1936" d="M20.774,4.559A4.559,4.559,0,0,0,16.215,0H4.559A4.559,4.559,0,0,0,0,4.559V9.983a4.559,4.559,0,0,0,4.559,4.559H16.215a4.559,4.559,0,0,0,4.559-4.559ZM13.918,7.677,8.691,10.264c-.205.11-.9-.038-.9-.271V4.684c0-.236.7-.384.908-.267l5,2.723c.21.119.431.422.218.538" transform="translate(0 0)" fill="#fff"/>
    </g>
  </g>
</svg>
