<svg width="84" height="84" viewBox="0 0 84 84" fill="none" xmlns="http://www.w3.org/2000/svg">
<path d="M42 84C18.8382 84 0 65.1618 0 42C0 18.8382 18.8382 0 42 0C65.1618 0 84 18.8382 84 42C84 65.1309 65.1618 84 42 84Z" fill="#4E4E4E"/>
<path d="M48.454 41.3536H48.0216C47.9598 41.755 47.8672 42.8359 47.2187 43.5153C46.6319 44.133 46.1378 44.1638 45.3657 44.1638H43.204V39.4697H44.1613C45.4584 39.4697 45.6437 40.4271 45.8598 41.4462H46.2304V37.1844H45.8598C45.6437 38.2344 45.5201 39.0374 43.976 39.0374H43.204V34.7138H45.304C47.2804 34.7138 47.4966 36.1344 47.7437 36.9991H48.176V34.2197H40.054V34.683H41.5981V44.133H40.054V44.5962H48.4848V41.3536H48.454Z" fill="white"/>
<path d="M30.943 44.1599C31.4988 44.1599 31.9312 44.9011 33.7841 44.9011C34.7724 44.9011 35.6988 44.5305 36.4091 43.8202C37.0268 43.2026 37.3974 42.3687 37.3974 41.504C37.3974 37.7055 31.4062 38.8173 31.4062 36.1305C31.4062 34.957 32.4562 34.4011 33.4444 34.4011C34.9885 34.4011 35.7606 35.6673 36.0077 37.0261H36.44V34.2467H36.0385C35.9768 34.5555 35.8841 34.6482 35.7606 34.6482C35.4209 34.6482 34.7106 33.9688 33.4444 33.9688C31.8385 33.9688 30.418 35.0805 30.418 36.9335C30.418 39.8673 34.0312 39.6511 35.5135 40.9482C35.915 41.2879 36.1003 41.7511 36.1003 42.2761C36.1003 42.8011 35.9459 43.2335 35.6062 43.6658C35.143 44.2217 34.4635 44.4687 33.7841 44.4687C31.7459 44.4687 31.0356 43.2026 30.6341 41.3496H30.1709V44.654H30.5724C30.6033 44.2217 30.8194 44.1599 30.943 44.1599Z" fill="white"/>
<path d="M40.4864 52.4705C41.3511 53.3352 41.5364 54.6632 41.6291 55.3117H42.1849C42.2776 54.6632 42.4938 53.3352 43.3276 52.4705C44.2541 51.544 45.3349 51.4823 46.1996 51.4823H72.6967V50.8955H46.1996C44.7791 50.8955 43.8835 51.0808 42.9261 52.069C42.1232 52.872 41.9688 53.8602 41.907 54.1382C41.8761 53.8602 41.6908 52.872 40.8879 52.069C39.9305 51.0808 39.0349 50.8955 37.6144 50.8955H10.9629V51.4823H37.6144C38.5099 51.4514 39.5599 51.5132 40.4864 52.4705Z" fill="white"/>
<path d="M21.587 44.1623H20.0738V35.4843L25.8796 44.7181H26.3738V34.7123H27.887V34.249H24.3664V34.7123H25.8796V41.6917L21.2164 34.249H18.0664V34.7123H19.5796V44.1623H18.0664V44.6564H21.587V44.1623Z" fill="white"/>
<path d="M15.6261 44.1623H14.1129V34.7123H15.6261V34.249H10.9629V34.7123H12.4761V44.1623H10.9629V44.6564H15.6261V44.1623Z" fill="white"/>
<path d="M71.0293 35.3909C69.8558 34.4954 68.5587 34.1865 67.0763 34.1865C66.2116 34.1865 65.3469 34.2174 64.5131 34.2174H62.9072V34.6806H64.4205V44.1307H62.9072V44.5939H64.2969C65.8102 44.5939 66.5513 44.6557 67.1381 44.6557C68.8675 44.6557 70.1646 44.4086 71.4308 43.1115C72.2646 42.2777 72.9131 41.0424 72.9131 39.4674C72.944 37.8615 72.2955 36.3483 71.0293 35.3909ZM69.8558 43.3586C69.1455 44.0998 68.2499 44.2542 67.1381 44.2542C66.7366 44.2542 66.0572 44.1924 66.0572 44.1924V34.6806C66.2116 34.6806 66.6749 34.6498 67.1072 34.6498C68.2499 34.6498 69.4543 35.0203 70.1955 36.0395C70.8749 36.9659 71.1528 38.3557 71.1528 39.5601C71.1219 41.3204 70.5352 42.6483 69.8558 43.3586Z" fill="white"/>
<path d="M59.7877 44.1597L56.0818 34.0303H55.5568L51.8818 44.1597H50.6465V44.6229H53.8582V44.1597H52.4377L53.5494 41.0097H56.8847L58.0274 44.1597H56.5759V44.6229H61.023V44.1597H59.7877ZM53.673 40.5465L55.1862 36.4082L56.6994 40.5465H53.673Z" fill="white"/>
</svg>
