<svg xmlns="http://www.w3.org/2000/svg" viewBox="0 0 119 35"><g fill="#FFF"><path d="M10.8 31.4V17.3h4.7l.7-5.5h-5.4V8.3c0-1.6.4-2.7 2.7-2.7h2.9V.7c-.5-.1-2.2-.2-4.2-.2C8 .5 5.1 3.1 5.1 7.8v4.1H.4v5.5h4.7v14.1l5.7-.1ZM47.1 8v1.6c0 .8-.2 1.5-.6 2.1-.4.5-1.1 1.1-2.2 1.6l-.5-.7v-.2c.8-.4 1.3-.8 1.6-1.2.3-.4.5-.9.5-1.5V8.3L45.8 2h-2l-.1-.1.1-1h3.4L47.1 8Zm7.8-3.2c.6.7.9 1.6.9 2.8 0 1.3-.3 2.3-.9 3-.6.7-1.4 1.1-2.5 1.1-1 0-1.8-.3-2.4-1-.6-.7-.9-1.6-.9-2.8 0-1.3.3-2.3.9-3 .6-.7 1.5-1.1 2.6-1.1.9 0 1.7.3 2.3 1Zm-4.1.6c-.4.5-.5 1.2-.5 2.1 0 1.1.2 1.9.5 2.4.4.5.9.8 1.6.8.7 0 1.2-.2 1.6-.7.4-.5.5-1.2.5-2.1 0-1-.2-1.8-.5-2.4-.4-.5-.9-.8-1.6-.8-.7 0-1.2.3-1.6.7ZM59 .7c.1.1.2.3.2.5s-.1.4-.2.6c-.1.1-.3.2-.6.2-.2 0-.4-.1-.5-.2-.1-.1-.2-.3-.2-.6 0-.2.1-.4.2-.6.1-.1.3-.2.6-.2.2.1.4.2.5.3Zm-1.1 7.6V4l1.3-.1v7.6h-1.3V8.3Zm8.7-1.9c0-.5-.1-.8-.3-1.1-.2-.3-.5-.4-1-.4-.7 0-1.4.4-2.3 1.2v2.1l.1 3.3h-1.3l.1-3.2-.1-4.3 1.2-.1V5h.1c.7-.6 1.4-1 2.1-1.2.8 0 1.5.2 1.9.6.4.4.6.9.6 1.7v2.2l.1 3.3h-1.3l.1-5.2Zm13.9-4.3c.8.9 1.2 2.2 1.2 3.9 0 1.8-.4 3.2-1.2 4.2-.8 1-2 1.5-3.5 1.5-1.4 0-2.5-.5-3.3-1.4-.8-.9-1.2-2.2-1.2-4 0-1.8.4-3.1 1.2-4.1.8-.9 2-1.4 3.5-1.4 1.4 0 2.5.4 3.3 1.3Zm-6.8 4c0 1.5.3 2.6.8 3.4.5.7 1.3 1.1 2.4 1.1 2.2 0 3.3-1.5 3.3-4.4 0-1.5-.3-2.6-.8-3.3-.5-.7-1.3-1.1-2.4-1.1-2.2.1-3.3 1.5-3.3 4.3Zm16.7 4.4-.1.7c-.3.2-.6.3-.9.3-.3 0-.6-.2-.8-.3-.2-.2-.3-.5-.4-.8H88c-.7.6-1.3 1-2.1 1.2-.8 0-1.4-.2-1.9-.6-.4-.4-.6-.9-.6-1.7V7.2l-.1-3.3 1.3-.1-.1 5.2c0 .5.1.8.3 1.1.2.3.5.4 1 .4.7 0 1.4-.3 2.1-1V4l1.3-.1-.1 6c0 .2 0 .4.1.5.1.1.2.1.4.1s.4 0 .6-.1l.2.1Zm5.3-6.6v1.3h-.1c-.2-.1-.4-.1-.6-.1-.4 0-.7.1-1 .4-.3.3-.6.8-.9 1.4v1.2l.1 3.3h-1.3l.1-3.2-.1-4.3 1.2-.1v1.6h.1c.3-.6.7-.9 1-1.2.4-.2.7-.4 1.1-.4.1.1.3.1.4.1ZM51.2 21.5l-.3 1.2h-.1c-.7-.6-1.6-.9-2.5-.9-1 0-1.9.4-2.4 1.1-.6.7-.8 1.8-.8 3.2 0 1.4.3 2.5.8 3.2.6.7 1.4 1.1 2.4 1.1.5 0 1-.1 1.4-.3.5-.2.9-.4 1.3-.7l.2.1-.1 1.3c-1 .5-1.9.8-2.9.8-1.4 0-2.5-.5-3.3-1.4-.8-.9-1.2-2.2-1.2-3.9 0-1.8.4-3.1 1.2-4.1.8-.9 2-1.4 3.5-1.4 1-.1 2 .1 2.8.7Zm6.6 3.2c.6.7.9 1.6.9 2.8 0 1.3-.3 2.3-.9 3-.6.7-1.4 1.1-2.5 1.1-1 0-1.8-.3-2.4-1-.6-.7-.9-1.6-.9-2.8 0-1.3.3-2.3.9-3 .6-.7 1.5-1.1 2.6-1.1 1 0 1.7.3 2.3 1Zm-4 .6c-.4.5-.5 1.2-.5 2.1 0 1.1.2 1.9.5 2.4.4.5.9.8 1.6.8.7 0 1.2-.2 1.6-.7.4-.5.5-1.2.5-2.1 0-1-.2-1.8-.5-2.4-.4-.5-.9-.8-1.6-.8-.8 0-1.3.2-1.6.7Zm16.2.9c0-.5-.1-.8-.3-1.1-.2-.3-.5-.4-1-.4-.7 0-1.4.4-2.2 1.1V28l.1 3.3h-1.3l.1-5.1c0-.5-.1-.8-.3-1.1-.2-.3-.5-.4-1-.4-.7 0-1.4.4-2.3 1.2V28l.1 3.3h-1.3l.1-3.2-.1-4.3 1.2-.1v1.1h.1c.7-.6 1.4-1 2.1-1.2.6 0 1.1.1 1.5.3.4.2.7.5.8.9h.1c.7-.6 1.4-1 2.2-1.3.8 0 1.5.2 1.9.6.4.4.6.9.6 1.7V28l.1 3.3H70v-5.1Zm13.1 0c0-.5-.1-.8-.3-1.1-.2-.3-.5-.4-1-.4-.7 0-1.4.4-2.2 1.1V28l.1 3.3h-1.3l.1-5.1c0-.5-.1-.8-.3-1.1-.2-.3-.5-.4-1-.4-.7 0-1.4.4-2.3 1.2V28l.1 3.3h-1.3l.1-3.2-.1-4.3 1.2-.1v1.1h.1c.7-.6 1.4-1 2.1-1.2.6 0 1.1.1 1.5.3.4.2.7.5.8.9h.1c.7-.6 1.4-1 2.2-1.3.8 0 1.5.2 1.9.6.4.4.6.9.6 1.7V28l.1 3.3H83l.1-5.1Zm10.6 4.2-.1.7c-.3.2-.6.3-.9.3-.3 0-.6-.2-.8-.3-.2-.2-.3-.5-.4-.8h-.1c-.7.6-1.3 1-2.1 1.2-.8 0-1.4-.2-1.9-.6-.4-.4-.6-.9-.6-1.7v-2.1l-.1-3.3 1.3-.1-.1 5.2c0 .5.1.8.3 1.1.2.3.5.4 1 .4.7 0 1.4-.3 2.1-1v-5.5l1.3-.1-.1 6c0 .2 0 .4.1.5.1.1.2.1.4.1s.4 0 .6-.1l.1.1Zm6.2-4.2c0-.5-.1-.8-.3-1.1-.2-.3-.5-.4-1-.4-.7 0-1.4.4-2.3 1.2V28l.1 3.3h-1.3l.1-3.2-.1-4.3 1.2-.1v1.1h.1c.7-.6 1.4-1 2.1-1.2.8 0 1.5.2 1.9.6.4.4.6.9.6 1.7v2.2l.1 3.3h-1.3l.1-5.2Zm5-5.6c.1.1.2.3.2.5s-.1.4-.2.6c-.1.1-.3.2-.6.2-.2 0-.4-.1-.5-.2-.1-.1-.2-.3-.2-.6 0-.2.1-.4.2-.6.1-.1.3-.2.6-.2.2.1.4.2.5.3Zm-1.1 7.6v-4.3l1.3-.1v7.6h-1.3v-3.2Zm8 1.8.1.1-.1.9c-.6.3-1.1.4-1.7.5-.6-.1-1.1-.4-1.4-.7-.3-.3-.4-.8-.4-1.5v-4.6h-1l-.1-.1.1-.8h1v-1.2l1.1-.5.1.1v1.6h2.3l.1.1-.1.8h-2.2l-.1 4.5c0 .4.1.8.2.9.2.2.4.3.8.3.5 0 .9-.2 1.3-.4Z"/><path d="m113.3 24.7 1.8 5.2h.1l1.9-5.1.2-1h1.2l-2.7 7.3c-.3.8-.6 1.3-.9 1.8-.3.4-.7.8-1.1 1-.4.2-1 .5-1.8.6h-.1c-.2-.2-.4-.5-.5-.8v-.1c.8-.2 1.5-.4 1.9-.7.4-.3.9-.8 1.2-1.5l-2.8-7.5 1.2-.1.4.9ZM29.3.5h1.5v31h-1.5z"/></g></svg>
