<svg fill="none" xmlns="http://www.w3.org/2000/svg" viewBox="0 0 22 26"><path d="M11 24.903c5.47 0 9.903-5.33 9.903-11.904S16.47 1.095 11 1.095c-5.47 0-9.903 5.33-9.903 11.904S5.53 24.903 11 24.903Z" stroke="#000" stroke-width=".5" stroke-miterlimit="10"/><path d="m6.606 3.791 1.753 1.903L11 7.731 8.214 9.322l-3.55.753" stroke="#000" stroke-width=".5" stroke-miterlimit="10"/><path d="m2.688 9.177 1.976.898 2.414 2.924 1.136-3.677.145-3.628M6.606 22.207l1.753-1.903L11 18.267l-2.786-1.589-3.55-.755" stroke="#000" stroke-width=".5" stroke-miterlimit="10"/><path d="m2.688 16.823 1.976-.9L7.078 13l1.136 3.68.145 3.625m7.036-16.514L13.64 5.694 11 7.731l2.788 1.591 3.55.753" stroke="#000" stroke-width=".5" stroke-miterlimit="10"/><path d="m19.314 9.177-1.976.898-2.416 2.924-1.134-3.677-.147-3.628" stroke="#000" stroke-width=".5" stroke-miterlimit="10"/><path d="m2.21 12.999 2.454 2.924-.22 4.058 3.915.323 2.64 3.232 2.642-3.232 3.916-.323-.22-4.058L19.79 13l-2.451-2.924.219-4.057-3.916-.324L11 2.464l-2.641 3.23-3.916.324.221 4.057-2.453 2.924Z" stroke="#000" stroke-width=".5" stroke-miterlimit="10"/><path d="m15.395 22.207-1.754-1.903L11 18.267l2.788-1.589 3.55-.755" stroke="#000" stroke-width=".5" stroke-miterlimit="10"/><path d="m19.314 16.823-1.976-.9L14.922 13l-1.134 3.68-.147 3.625" stroke="#000" stroke-width=".5" stroke-miterlimit="10"/></svg>
