<svg fill="none" xmlns="http://www.w3.org/2000/svg" viewBox="0 0 40 21"><path d="M0 10.982h40" stroke="#000" stroke-width=".5" stroke-miterlimit="10"/><path d="M20 17.433a6.945 6.945 0 1 0 0-13.89 6.945 6.945 0 0 0 0 13.89Z" fill="#fff" stroke="#000" stroke-width=".5" stroke-miterlimit="10"/><path d="m18.207 6.158-.551-1.331m-1.987 3.866-1.328-.55m3.385.071-.99 2.274-1.067-1.795 2.057-.48Zm0 0 .475-2.053 1.8 1.179-2.275.874Zm.481 6.604-.551 1.33m-1.987-3.866-1.328.55m3.385-.07-.99-2.274-1.067 1.794 2.057.48Zm0 0 .475 2.053 1.8-1.18-2.275-.873Zm4.067-6.604.553-1.331m1.987 3.866 1.328-.55" stroke="#000" stroke-width=".5" stroke-miterlimit="10"/><path d="m22.275 8.214.988 2.274 1.07-1.795-2.058-.48Zm0 0L21.8 6.16 20 7.34l2.275.874Zm-.482 6.604.553 1.33m1.987-3.866 1.328.55" stroke="#000" stroke-width=".5" stroke-miterlimit="10"/><path d="m20 16.615 1.8-1.8h2.533v-2.533l1.795-1.794-1.795-1.795V6.161H21.8L20 4.36l-1.799 1.8H15.67v2.532l-1.795 1.795 1.795 1.794v2.533h2.53l1.8 1.8Z" stroke="#000" stroke-width=".5" stroke-miterlimit="10"/><path d="m22.275 12.762.988-2.274 1.07 1.794-2.058.48Zm0 0-.475 2.053-1.8-1.18 2.275-.873ZM20 3.572A1.286 1.286 0 1 0 20 1a1.286 1.286 0 0 0 0 2.572Z" stroke="#000" stroke-width=".5" stroke-miterlimit="10"/><path d="M17.466 3.974a1.286 1.286 0 1 0 0-2.572 1.286 1.286 0 0 0 0 2.572Z" stroke="#000" stroke-width=".5" stroke-miterlimit="10"/><path d="M15.18 5.139a1.286 1.286 0 1 0 0-2.572 1.286 1.286 0 0 0 0 2.572Z" stroke="#000" stroke-width=".5" stroke-miterlimit="10"/><path d="M13.365 6.953a1.286 1.286 0 1 0 0-2.572 1.286 1.286 0 0 0 0 2.572Z" stroke="#000" stroke-width=".5" stroke-miterlimit="10"/><path d="M12.2 9.24a1.286 1.286 0 1 0 0-2.572 1.286 1.286 0 0 0 0 2.572Z" stroke="#000" stroke-width=".5" stroke-miterlimit="10"/><path d="M11.798 11.774a1.286 1.286 0 1 0 0-2.572 1.286 1.286 0 0 0 0 2.572Z" fill="#fff" stroke="#000" stroke-width=".5" stroke-miterlimit="10"/><path d="M12.2 14.308a1.286 1.286 0 1 0 0-2.572 1.286 1.286 0 0 0 0 2.572Z" stroke="#000" stroke-width=".5" stroke-miterlimit="10"/><path d="M13.365 16.594a1.286 1.286 0 1 0 0-2.572 1.286 1.286 0 0 0 0 2.572Z" stroke="#000" stroke-width=".5" stroke-miterlimit="10"/><path d="M15.18 18.408a1.286 1.286 0 1 0 0-2.571 1.286 1.286 0 0 0 0 2.571Z" stroke="#000" stroke-width=".5" stroke-miterlimit="10"/><path d="M17.466 19.574a1.286 1.286 0 1 0 0-2.572 1.286 1.286 0 0 0 0 2.572Z" stroke="#000" stroke-width=".5" stroke-miterlimit="10"/><path d="M20 19.976a1.286 1.286 0 1 0 0-2.573 1.286 1.286 0 0 0 0 2.573Z" stroke="#000" stroke-width=".5" stroke-miterlimit="10"/><path d="M22.535 19.574a1.286 1.286 0 1 0 0-2.572 1.286 1.286 0 0 0 0 2.572Zm2.287-1.166a1.286 1.286 0 1 0 0-2.571 1.286 1.286 0 0 0 0 2.571Z" stroke="#000" stroke-width=".5" stroke-miterlimit="10"/><path d="M26.636 16.594a1.286 1.286 0 1 0 0-2.572 1.286 1.286 0 0 0 0 2.572Z" stroke="#000" stroke-width=".5" stroke-miterlimit="10"/><path d="M27.801 14.308a1.286 1.286 0 1 0 0-2.572 1.286 1.286 0 0 0 0 2.572Z" stroke="#000" stroke-width=".5" stroke-miterlimit="10"/><path d="M28.202 11.774a1.286 1.286 0 1 0 0-2.572 1.286 1.286 0 0 0 0 2.572Z" fill="#fff" stroke="#000" stroke-width=".5" stroke-miterlimit="10"/><path d="M27.801 9.24a1.286 1.286 0 1 0 0-2.572 1.286 1.286 0 0 0 0 2.572Z" stroke="#000" stroke-width=".5" stroke-miterlimit="10"/><path d="M26.636 6.953a1.286 1.286 0 1 0 0-2.572 1.286 1.286 0 0 0 0 2.572Z" stroke="#000" stroke-width=".5" stroke-miterlimit="10"/><path d="M24.822 5.139a1.286 1.286 0 1 0 0-2.572 1.286 1.286 0 0 0 0 2.572Z" stroke="#000" stroke-width=".5" stroke-miterlimit="10"/><path d="M22.535 3.974a1.286 1.286 0 1 0 0-2.572 1.286 1.286 0 0 0 0 2.572Z" stroke="#000" stroke-width=".5" stroke-miterlimit="10"/></svg>
