<svg fill="none" xmlns="http://www.w3.org/2000/svg" viewBox="0 0 40 21"><path d="M0 10.466h40" stroke="#000" stroke-width=".5" stroke-miterlimit="10"/><path d="M20 19.928c5.126 0 9.281-4.22 9.281-9.428 0-5.207-4.155-9.429-9.281-9.429s-9.281 4.222-9.281 9.429 4.155 9.428 9.28 9.428Z" fill="#fff" stroke="#000" stroke-width=".5" stroke-miterlimit="10"/><path d="m17.604 4.622-.737-1.807m-2.656 5.249-1.775-.748m4.524.096L15.639 10.5l-1.43-2.436 2.751-.652Zm0 0 .635-2.787L20 6.227l-3.04 1.185Zm.644 8.966-.737 1.807m-2.656-5.249-1.775.748m4.524-.096L15.639 10.5l-1.43 2.436 2.751.652Zm0 0 .635 2.787L20 14.773l-3.04-1.185Zm5.438-8.966.736-1.807m2.656 5.249 1.775-.748m-4.525.096 1.32 3.088 1.43-2.436-2.75-.652Zm0 0-.635-2.787L20 6.227l3.04 1.185Zm-.642 8.966.736 1.807m2.656-5.249 1.775.748" stroke="#000" stroke-width=".5" stroke-miterlimit="10"/><path d="m20 2.182 2.405 2.443h3.385v3.44l2.398 2.435-2.398 2.436v3.439h-3.385L20 18.818l-2.405-2.443H14.21v-3.44L11.812 10.5l2.398-2.436v-3.44h3.385L20 2.183Z" stroke="#000" stroke-width=".5" stroke-miterlimit="10"/><path d="m23.04 13.588 1.32-3.088 1.43 2.436-2.75.652Zm0 0-.635 2.787L20 14.773l3.04-1.185Z" stroke="#000" stroke-width=".5" stroke-miterlimit="10"/><path d="M3.469 10.51s2.136-2.33 4.945-2.33c.608 0 1.191.246 1.62.682.43.437.672 1.03.672 1.647s-.241 1.21-.671 1.646a2.274 2.274 0 0 1-1.621.682c-2.81.008-4.945-2.328-4.945-2.328Z" fill="#fff" stroke="#000" stroke-width=".5" stroke-miterlimit="10"/><path d="m6.133 9.872 1.452-.341 1.204.17.882.118-.55.691L8.5 8.997l-.915.534-.705-.352-.747.693Zm0 0-1.016.144.183.494.833-.638ZM9.67 9.82l.51-.334m-5.063.53-.464-.13" stroke="#000" stroke-width=".25" stroke-miterlimit="10"/><path d="m4.036 10.51 1.081.494.374.68 1.388.157.747.626.874-.444 1.17.053v-.875l.657-.691-.656-.691v-.875L8.5 8.997l-.874-.445-.747.627-1.388.157-.374.68-1.08.494Z" stroke="#000" stroke-width=".25" stroke-miterlimit="10"/><path d="m6.133 11.148 1.452.341 1.204-.171.882-.117-.55-.691-.621 1.513-.915-.534-.705.351-.747-.692Zm0 0-1.016-.144.183-.494.833.638Zm3.537.052.51.334m-1.363.933-.317-.444m-1.62-.183-.147.514m-1.616-1.35-.464.13" stroke="#000" stroke-width=".25" stroke-miterlimit="10"/><path d="M36.527 10.51s-2.136-2.33-4.945-2.33c-.608 0-1.191.246-1.621.682a2.347 2.347 0 0 0-.671 1.647c0 .617.241 1.21.67 1.646.43.437 1.014.682 1.622.682 2.81.008 4.945-2.328 4.945-2.328Z" fill="#fff" stroke="#000" stroke-width=".5" stroke-miterlimit="10"/><path d="m33.864 9.872-1.452-.342-1.204.172-.883.117.551.69.62-1.512.916.533.706-.35.746.692Zm0 0 1.016.144-.184.494-.832-.638Zm-3.539-.052-.508-.334m5.063.53.464-.13" stroke="#000" stroke-width=".25" stroke-miterlimit="10"/><path d="m35.96 10.51-1.08.494-.374.68-1.388.157-.747.626-.875-.444-1.17.053v-.875l-.657-.691.656-.691v-.875l1.17.053.876-.445.747.627 1.388.157.374.68 1.08.494Z" stroke="#000" stroke-width=".25" stroke-miterlimit="10"/><path d="m33.864 11.148-1.452.341-1.204-.171-.883-.117.551-.691.62 1.513.916-.534.706.351.746-.692Zm0 0 1.016-.144-.184-.494-.832.638Zm-3.539.052-.508.334m1.361.933.318-.444m1.622-.183.146.514m1.616-1.35.464.13" stroke="#000" stroke-width=".25" stroke-miterlimit="10"/></svg>
