<svg fill="none" xmlns="http://www.w3.org/2000/svg" viewBox="0 0 14 26"><path d="M1.081 13C1.243 21.649 7 24.9 7 24.9s5.76-3.252 5.919-11.9C12.757 4.354 7 1.103 7 1.103s-5.76 3.25-5.919 11.898Z" stroke="#000" stroke-width=".5" stroke-miterlimit="10"/><path d="M4.373 4.33 5.42 6.122 7 8.04 5.333 9.537l-2.123.71" stroke="#000" stroke-width=".5" stroke-miterlimit="10"/><path d="m2.028 9.4 1.182.847 1.445 2.754.678-3.464.088-3.415m-1.048 15.55 1.047-1.793L7 17.96l-1.667-1.497-2.123-.709" stroke="#000" stroke-width=".5" stroke-miterlimit="10"/><path d="m2.028 16.6 1.182-.846 1.445-2.753.678 3.463.088 3.416M9.627 4.33 8.579 6.122 7 8.04l1.667 1.497 2.123.71" stroke="#000" stroke-width=".5" stroke-miterlimit="10"/><path d="m11.972 9.4-1.182.847-1.445 2.754-.678-3.464-.088-3.415" stroke="#000" stroke-width=".5" stroke-miterlimit="10"/><path d="m1.744 13 1.466 2.755-.131 3.82 2.342.305L7 22.92l1.58-3.04 2.341-.305-.131-3.82L12.256 13l-1.466-2.754.131-3.822-2.341-.303L7 3.08 5.42 6.122l-2.341.303.131 3.822-1.466 2.754Z" stroke="#000" stroke-width=".5" stroke-miterlimit="10"/><path d="m9.627 21.672-1.048-1.793L7 17.96l1.667-1.497 2.123-.709" stroke="#000" stroke-width=".5" stroke-miterlimit="10"/><path d="m11.972 16.6-1.182-.846-1.445-2.753-.678 3.463-.088 3.416" stroke="#000" stroke-width=".5" stroke-miterlimit="10"/></svg>
