<svg fill="none" xmlns="http://www.w3.org/2000/svg" viewBox="0 0 20 20"><path d="M10 18.929c2.209 0 3.473-.187 4.627-.294a4.39 4.39 0 0 0 4.01-4.01c.107-1.155.294-2.47.294-4.628 0-2.157-.188-3.473-.293-4.627a4.39 4.39 0 0 0-4.011-4.01c-1.154-.108-2.418-.294-4.627-.294-2.208 0-3.473.186-4.627.293a4.398 4.398 0 0 0-4.01 4.011c-.105 1.154-.294 2.47-.294 4.627 0 2.158.189 3.473.293 4.627a4.398 4.398 0 0 0 4.011 4.011c1.154.11 2.419.294 4.627.294ZM6.074 2.309l.16 1.968M2.133 6.171l2.014.2" stroke="#000" stroke-width=".5" stroke-miterlimit="10"/><path d="m10 17.904 3.765-2.181L14.845 10l1.82 6.556L10 14.64l5.852-1.011L18.045 10l-2.193-3.63L10 5.358l6.665-1.914L14.845 10l-1.08-5.723L10 2.095 6.235 4.277 5.155 10l-1.82-6.556L10 5.358 4.147 6.37 1.953 10l2.194 3.63L10 14.64l-6.665 1.916L5.155 10l1.08 5.723L10 17.904Zm-3.926-.213.16-1.968m-4.101-1.894 2.014-.2m9.778-11.32-.16 1.968m4.101 1.894-2.014.2m-1.927 11.32-.16-1.968m4.101-1.894-2.014-.2" stroke="#000" stroke-width=".5" stroke-miterlimit="10"/></svg>
