<svg fill="none" xmlns="http://www.w3.org/2000/svg" viewBox="0 0 18 22"><path d="m4.336 2.074 1.685 3.693m-4.191-.81 3.699 1.47M4.336 19.926l1.685-3.693m-4.191.811 3.699-1.47m8.135-13.5-1.685 3.693m4.191-.81-3.699 1.47m1.619 14.497 2.837-3.272V4.348L14.09 1.076H3.911L1.073 4.348v13.304l2.838 3.272h10.178Z" stroke="#000" stroke-width=".5" stroke-miterlimit="10"/><path d="m13.1 18.692 1.845-2.136V5.444L13.1 3.308H4.899L3.057 5.444v11.112l1.842 2.136h8.202Z" stroke="#000" stroke-width=".5" stroke-miterlimit="10"/><path d="m12.531 17.444 1.133-1.396V5.952L12.53 4.556H5.469L4.336 5.953v10.095l1.133 1.396h7.062Z" stroke="#000" stroke-width=".5" stroke-miterlimit="10"/><path d="m11.98 16.233.491-.66V6.427l-.49-.66H6.02l-.492.66v9.146l.492.66h5.96Zm1.684 3.693-1.685-3.693m4.191.811-3.699-1.47" stroke="#000" stroke-width=".5" stroke-miterlimit="10"/></svg>
