<svg width="1317" height="370" viewBox="0 0 1317 370" fill="none" xmlns="http://www.w3.org/2000/svg">
<path d="M183.822 130.86V236.642H196.141C206.646 236.642 214.119 235.256 218.558 232.482C222.998 229.709 226.474 224.866 228.99 217.956C231.506 211.044 232.763 199.841 232.763 184.345C232.763 163.832 229.953 149.789 224.329 142.217C218.706 134.645 209.385 130.86 196.362 130.86H183.822ZM133.549 87.0143H208.238C222.961 87.0143 234.853 89.3916 243.917 94.145C252.979 98.8996 260.471 105.722 266.39 114.616C272.309 123.508 276.601 133.853 279.263 145.65C281.927 157.448 283.258 169.95 283.258 183.157C283.258 203.846 281.279 219.892 277.322 231.294C273.363 242.696 267.87 252.248 260.842 259.952C253.813 267.656 246.266 272.784 238.201 275.337C227.178 278.858 217.189 280.62 208.238 280.62H133.549V87.0143Z" fill="#EB5C2C"/>
<path d="M132.882 86.3466V281.287H208.237C217.214 281.287 227.364 279.499 238.402 275.972C246.542 273.396 254.258 268.157 261.333 260.401C268.39 252.665 273.982 242.947 277.952 231.512C281.916 220.092 283.925 203.824 283.925 183.156C283.925 169.959 282.576 157.291 279.913 145.504C277.246 133.684 272.882 123.167 266.945 114.245C260.993 105.303 253.35 98.3413 244.228 93.5546C235.109 88.772 223 86.3466 208.237 86.3466H132.882ZM134.214 87.6799H208.237C222.782 87.6799 234.681 90.0546 243.608 94.7359C252.53 99.4159 260.009 106.229 265.834 114.984C271.681 123.769 275.981 134.136 278.613 145.797C281.253 157.488 282.592 170.059 282.592 183.156C282.592 203.673 280.608 219.796 276.692 231.076C272.782 242.336 267.284 251.901 260.349 259.503C253.433 267.081 245.913 272.197 237.998 274.701C227.089 278.187 217.076 279.953 208.237 279.953H134.214V87.6799ZM183.156 130.193V237.308H196.141C206.726 237.308 214.386 235.876 218.912 233.047C223.458 230.207 227.06 225.207 229.616 218.183C232.148 211.231 233.43 199.845 233.43 184.345C233.43 163.78 230.549 149.473 224.864 141.82C219.134 134.105 209.546 130.193 196.362 130.193H183.156ZM184.489 131.527H196.362C209.101 131.527 218.33 135.257 223.794 142.615C229.302 150.032 232.097 164.073 232.097 184.345C232.097 199.691 230.84 210.921 228.364 217.727C225.912 224.464 222.494 229.237 218.205 231.919C213.894 234.609 206.472 235.975 196.141 235.975H184.489V131.527Z" fill="url(#paint0_linear)"/>
<path d="M1.00098 192.719C1.00098 299.091 97.2183 369.137 182.488 369.137C267.756 369.137 369.29 302.941 369.29 180.036L233.976 179.012C233.976 179.012 232.764 216.571 225.981 225.265H320.98C320.98 225.265 293.392 327.952 183.09 327.952C72.789 327.952 42.5423 227.031 42.5423 192.719C42.5423 158.407 61.225 42.1852 183.09 42.1852C183.09 42.1852 243.361 41.3092 281.849 79.7959H336.18C336.18 79.7959 286.393 0.999859 182.488 0.999859C78.5823 0.999859 1.00098 86.3466 1.00098 192.719" fill="url(#paint1_linear)"/>
<path d="M281.848 79.7962H336.18C336.18 79.7962 286.392 1.00023 182.487 1.00023C78.5813 1.00023 1 86.3469 1 192.718C1 299.09 97.2186 369.136 182.487 369.136C267.756 369.136 369.289 302.942 369.289 180.036L233.976 179.012C233.976 179.012 232.764 216.571 225.981 225.266H320.98C320.98 225.266 293.391 327.952 183.091 327.952C72.7893 327.952 42.5427 227.03 42.5427 192.718C42.5427 158.406 61.224 42.1842 183.091 42.1842C183.091 42.1842 243.361 41.3095 281.848 79.7962V79.7962Z" stroke="url(#paint2_linear)" stroke-width="1.33333" stroke-miterlimit="10"/>
<path d="M713.927 218.183C713.384 218.244 712.938 218.357 712.607 218.509C712.269 218.659 712.032 218.835 711.895 219.033C711.75 219.234 711.68 219.446 711.68 219.685V254.848C711.68 257.492 711.687 260.232 711.704 263.09C711.723 265.943 711.762 268.683 711.83 271.329H711.781C711.004 269.762 710.222 268.198 709.432 266.646C708.643 265.093 707.842 263.515 707.035 261.912C706.227 260.309 705.389 258.679 704.517 257.028C703.646 255.374 702.745 253.685 701.806 251.942L686.61 223.492C686.059 222.452 685.533 221.599 685.034 220.914C684.531 220.226 684.02 219.699 683.479 219.311C682.948 218.922 682.347 218.645 681.676 218.483C681.002 218.319 680.169 218.232 679.167 218.232H674.928C674.03 218.232 673.205 218.519 672.447 219.084C671.684 219.646 671.31 220.6 671.31 221.94V281.748C671.31 281.982 671.377 282.209 671.522 282.422C671.657 282.636 671.891 282.81 672.21 282.924C672.524 283.037 672.956 283.136 673.502 283.223C674.05 283.312 674.745 283.349 675.59 283.349C676.437 283.349 677.132 283.312 677.675 283.223C678.221 283.136 678.665 283.037 678.998 282.924C679.334 282.81 679.573 282.636 679.711 282.422C679.853 282.209 679.923 281.982 679.923 281.748V242.626C679.923 240.159 679.906 237.667 679.872 235.164C679.843 232.656 679.793 230.203 679.723 227.799H679.824C680.724 229.766 681.702 231.794 682.755 233.887C683.805 235.978 684.845 237.967 685.886 239.871L705.657 276.739C706.333 278.04 706.973 279.105 707.578 279.945C708.18 280.782 708.788 281.434 709.389 281.922C709.997 282.41 710.635 282.735 711.306 282.924C711.982 283.112 712.769 283.199 713.664 283.199H716.515C716.964 283.199 717.411 283.136 717.86 282.999C718.311 282.861 718.719 282.649 719.081 282.349C719.446 282.047 719.733 281.659 719.958 281.195C720.185 280.732 720.296 280.155 720.296 279.491V219.685C720.296 219.446 720.228 219.234 720.086 219.033C719.946 218.835 719.714 218.659 719.393 218.509C719.081 218.357 718.637 218.244 718.075 218.183C717.51 218.121 716.841 218.08 716.069 218.08C715.188 218.08 714.473 218.121 713.927 218.183" fill="url(#paint3_linear)"/>
<path d="M779.928 218.058C779.378 218.145 778.934 218.244 778.601 218.357C778.27 218.471 778.031 218.633 777.9 218.835C777.77 219.033 777.7 219.272 777.7 219.533V259.157C777.7 262.059 777.343 264.604 776.621 266.769C775.902 268.939 774.868 270.764 773.516 272.23C772.165 273.695 770.513 274.798 768.558 275.537C766.605 276.273 764.374 276.635 761.871 276.635C759.435 276.635 757.238 276.263 755.283 275.51C753.33 274.762 751.657 273.644 750.276 272.155C748.893 270.665 747.828 268.809 747.095 266.571C746.361 264.328 745.991 261.711 745.991 258.706V219.533C745.991 219.272 745.924 219.033 745.791 218.835C745.658 218.633 745.436 218.471 745.117 218.357C744.796 218.244 744.359 218.145 743.79 218.058C743.22 217.969 742.537 217.932 741.735 217.932C740.864 217.932 740.164 217.969 739.63 218.058C739.099 218.145 738.662 218.244 738.329 218.357C737.996 218.471 737.759 218.633 737.627 218.835C737.496 219.033 737.426 219.272 737.426 219.533V259.756C737.426 263.727 737.996 267.232 739.131 270.277C740.265 273.321 741.885 275.848 743.988 277.866C746.093 279.88 748.615 281.41 751.553 282.448C754.489 283.489 757.745 284 761.321 284C765.229 284 768.715 283.45 771.79 282.349C774.864 281.246 777.468 279.631 779.602 277.49C781.739 275.348 783.385 272.741 784.537 269.649C785.688 266.556 786.265 263.051 786.265 259.107V219.533C786.265 219.272 786.19 219.033 786.041 218.835C785.891 218.633 785.657 218.471 785.338 218.357C785.019 218.244 784.587 218.145 784.037 218.058C783.484 217.969 782.808 217.932 782.007 217.932C781.176 217.932 780.479 217.969 779.928 218.058" fill="url(#paint4_linear)"/>
<path d="M797.184 218.232C796.916 218.232 796.677 218.294 796.458 218.432C796.24 218.57 796.064 218.785 795.934 219.084C795.801 219.383 795.69 219.772 795.608 220.262C795.526 220.75 795.482 221.3 795.482 221.94C795.482 222.577 795.526 223.13 795.608 223.593C795.69 224.054 795.801 224.431 795.934 224.721C796.064 225.008 796.24 225.208 796.458 225.346C796.677 225.486 796.916 225.546 797.184 225.546H815.418V281.748C815.418 282.009 815.488 282.248 815.618 282.448C815.751 282.649 815.99 282.81 816.318 282.924C816.651 283.037 817.1 283.136 817.672 283.223C818.242 283.312 818.923 283.349 819.724 283.349C820.557 283.349 821.253 283.312 821.805 283.223C822.353 283.136 822.8 283.037 823.131 282.924C823.461 282.81 823.7 282.649 823.831 282.448C823.964 282.248 824.034 282.009 824.034 281.748V225.546H842.265C842.537 225.546 842.774 225.486 842.994 225.346C843.211 225.208 843.394 225.008 843.544 224.721C843.691 224.431 843.8 224.054 843.867 223.593C843.937 223.13 843.969 222.577 843.969 221.94C843.969 221.3 843.937 220.75 843.867 220.262C843.8 219.772 843.691 219.383 843.544 219.084C843.394 218.785 843.211 218.57 842.994 218.432C842.774 218.294 842.537 218.232 842.265 218.232H797.184Z" fill="url(#paint5_linear)"/>
<path d="M856.541 218.232C855.771 218.232 855.047 218.495 854.361 219.009C853.68 219.521 853.335 220.436 853.335 221.737V281.748C853.335 282.009 853.403 282.248 853.535 282.448C853.666 282.649 853.905 282.81 854.238 282.924C854.569 283.037 855.013 283.136 855.566 283.223C856.116 283.312 856.811 283.349 857.642 283.349C858.477 283.349 859.17 283.312 859.723 283.223C860.273 283.136 860.705 283.037 861.026 282.924C861.345 282.81 861.574 282.649 861.726 282.448C861.876 282.248 861.951 282.009 861.951 281.748V254.146H867.713C869.683 254.146 871.368 254.435 872.771 255.022C874.171 255.613 875.392 256.425 876.428 257.477C877.459 258.53 878.357 259.783 879.105 261.236C879.861 262.687 880.585 264.278 881.287 266.018L887.248 281.294C887.378 281.695 887.54 282.035 887.723 282.299C887.902 282.562 888.165 282.774 888.498 282.924C888.831 283.076 889.276 283.187 889.826 283.25C890.379 283.312 891.086 283.349 891.955 283.349C892.957 283.349 893.758 283.312 894.359 283.25C894.961 283.187 895.429 283.086 895.762 282.95C896.095 282.81 896.312 282.649 896.414 282.448C896.513 282.248 896.564 282.009 896.564 281.748C896.564 281.483 896.494 281.108 896.363 280.621C896.23 280.128 895.931 279.291 895.463 278.091L889.65 263.814C888.981 262.172 888.317 260.71 887.646 259.406C886.977 258.105 886.27 256.951 885.517 255.949C884.768 254.947 883.96 254.085 883.088 253.371C882.219 252.656 881.254 252.055 880.184 251.594C882.086 250.928 883.81 250.105 885.343 249.139C886.878 248.173 888.199 247.022 889.3 245.706C890.4 244.391 891.248 242.865 891.83 241.151C892.414 239.434 892.706 237.479 892.706 235.311C892.706 233.071 892.38 231.031 891.728 229.18C891.076 227.323 890.101 225.684 888.8 224.245C887.496 222.804 885.889 221.626 883.967 220.684C882.043 219.75 879.834 219.072 877.328 218.632C876.457 218.533 875.482 218.447 874.398 218.357C873.316 218.27 871.952 218.232 870.315 218.232H856.541ZM861.951 225.346H869.215C870.917 225.346 872.295 225.394 873.345 225.496C874.398 225.595 875.344 225.756 876.177 225.995C878.849 226.761 880.754 228.026 881.886 229.781C883.021 231.531 883.59 233.674 883.59 236.216C883.59 237.781 883.334 239.234 882.815 240.571C882.294 241.911 881.488 243.065 880.384 244.055C879.281 245.042 877.905 245.808 876.252 246.358C874.6 246.911 872.638 247.186 870.366 247.186H861.951V225.346Z" fill="url(#paint6_linear)"/>
<path d="M911.364 218.058C910.816 218.145 910.362 218.244 910.015 218.357C909.662 218.471 909.411 218.632 909.259 218.835C909.11 219.033 909.035 219.272 909.035 219.533V281.748C909.035 282.009 909.107 282.248 909.237 282.448C909.368 282.649 909.607 282.81 909.938 282.924C910.271 283.037 910.72 283.136 911.289 283.223C911.859 283.312 912.542 283.349 913.344 283.349C914.177 283.349 914.872 283.312 915.422 283.223C915.975 283.136 916.419 283.037 916.75 282.924C917.083 282.81 917.32 282.649 917.452 282.448C917.583 282.248 917.65 282.009 917.65 281.748V219.533C917.65 219.272 917.583 219.033 917.452 218.835C917.32 218.632 917.083 218.471 916.75 218.357C916.419 218.244 915.975 218.145 915.422 218.058C914.872 217.969 914.177 217.932 913.344 217.932C912.574 217.932 911.915 217.969 911.364 218.058" fill="url(#paint7_linear)"/>
<path d="M928.722 218.232C928.452 218.232 928.213 218.294 927.993 218.432C927.776 218.57 927.599 218.785 927.469 219.084C927.339 219.383 927.228 219.772 927.143 220.262C927.063 220.75 927.018 221.3 927.018 221.94C927.018 222.577 927.063 223.13 927.143 223.593C927.228 224.054 927.339 224.431 927.469 224.721C927.599 225.008 927.776 225.208 927.993 225.346C928.213 225.486 928.452 225.546 928.722 225.546H946.955V281.748C946.955 282.009 947.023 282.248 947.153 282.448C947.286 282.649 947.523 282.81 947.856 282.924C948.189 283.037 948.638 283.136 949.21 283.223C949.78 283.312 950.461 283.349 951.262 283.349C952.095 283.349 952.79 283.312 953.341 283.223C953.891 283.136 954.338 283.037 954.668 282.924C954.999 282.81 955.238 282.649 955.368 282.448C955.501 282.248 955.571 282.009 955.571 281.748V225.546H973.802C974.07 225.546 974.309 225.486 974.529 225.346C974.748 225.208 974.929 225.008 975.082 224.721C975.231 224.431 975.337 224.054 975.405 223.593C975.475 223.13 975.506 222.577 975.506 221.94C975.506 221.3 975.475 220.75 975.405 220.262C975.337 219.772 975.231 219.383 975.082 219.084C974.929 218.785 974.748 218.57 974.529 218.432C974.309 218.294 974.07 218.232 973.802 218.232H928.722Z" fill="url(#paint8_linear)"/>
<path d="M987.202 218.058C986.649 218.145 986.2 218.244 985.848 218.357C985.498 218.471 985.247 218.632 985.097 218.835C984.95 219.033 984.873 219.272 984.873 219.533V281.748C984.873 282.009 984.94 282.248 985.073 282.448C985.203 282.649 985.44 282.81 985.773 282.924C986.106 283.037 986.558 283.136 987.127 283.223C987.695 283.312 988.378 283.349 989.179 283.349C990.012 283.349 990.707 283.312 991.258 283.223C991.808 283.136 992.255 283.037 992.586 282.924C992.916 282.81 993.155 282.649 993.288 282.448C993.418 282.248 993.488 282.009 993.488 281.748V219.533C993.488 219.272 993.418 219.033 993.288 218.835C993.155 218.632 992.916 218.471 992.586 218.357C992.255 218.244 991.808 218.145 991.258 218.058C990.707 217.969 990.012 217.932 989.179 217.932C988.409 217.932 987.753 217.969 987.202 218.058Z" fill="url(#paint9_linear)"/>
<path d="M1023.74 219.661C1020.04 221.249 1016.95 223.504 1014.48 226.42C1012 229.341 1010.15 232.895 1008.91 237.066C1007.68 241.238 1007.06 245.885 1007.06 250.993C1007.06 256.338 1007.63 261.057 1008.77 265.168C1009.9 269.275 1011.63 272.72 1013.95 275.486C1016.27 278.255 1019.21 280.37 1022.76 281.821C1026.32 283.276 1030.54 284 1035.41 284C1040.35 284 1044.68 283.214 1048.39 281.62C1052.09 280.032 1055.17 277.763 1057.63 274.808C1060.08 271.853 1061.93 268.273 1063.16 264.065C1064.39 259.86 1065.02 255.138 1065.02 249.887C1065.02 244.644 1064.44 239.997 1063.29 235.939C1062.14 231.881 1060.38 228.477 1058.03 225.723C1055.67 222.966 1052.72 220.875 1049.19 219.434C1045.65 217.993 1041.49 217.281 1036.72 217.281C1031.78 217.281 1027.45 218.07 1023.74 219.661V219.661ZM1026.36 274.61C1023.84 273.321 1021.83 271.517 1020.33 269.2C1018.83 266.88 1017.76 264.116 1017.13 260.91C1016.49 257.704 1016.18 254.199 1016.18 250.39C1016.18 246.947 1016.52 243.666 1017.21 240.547C1017.89 237.431 1019.02 234.698 1020.61 232.359C1022.19 230.015 1024.25 228.151 1026.78 226.749C1029.32 225.346 1032.45 224.644 1036.19 224.644C1039.92 224.644 1043.06 225.295 1045.6 226.597C1048.13 227.9 1050.15 229.715 1051.67 232.033C1053.19 234.348 1054.27 237.09 1054.92 240.246C1055.57 243.403 1055.9 246.822 1055.9 250.491C1055.9 253.996 1055.57 257.315 1054.9 260.459C1054.24 263.602 1053.11 266.354 1051.55 268.748C1049.98 271.138 1047.91 273.031 1045.34 274.434C1042.77 275.834 1039.61 276.539 1035.84 276.539C1032.04 276.539 1028.88 275.899 1026.36 274.61" fill="url(#paint10_linear)"/>
<path d="M1121.26 218.183C1120.72 218.244 1120.27 218.357 1119.94 218.509C1119.6 218.659 1119.36 218.835 1119.22 219.033C1119.08 219.234 1119.01 219.446 1119.01 219.685V254.848C1119.01 257.492 1119.02 260.232 1119.04 263.09C1119.06 265.943 1119.09 268.683 1119.16 271.329H1119.11C1118.34 269.762 1117.55 268.198 1116.76 266.646C1115.98 265.093 1115.18 263.515 1114.37 261.912C1113.56 260.309 1112.72 258.679 1111.85 257.028C1110.98 255.374 1110.08 253.685 1109.14 251.942L1093.94 223.492C1093.39 222.452 1092.87 221.599 1092.37 220.914C1091.87 220.226 1091.35 219.699 1090.81 219.311C1090.28 218.922 1089.68 218.645 1089.01 218.483C1088.33 218.319 1087.5 218.232 1086.5 218.232H1082.26C1081.36 218.232 1080.54 218.519 1079.78 219.084C1079.02 219.646 1078.64 220.6 1078.64 221.94V281.748C1078.64 281.982 1078.71 282.209 1078.85 282.422C1078.99 282.636 1079.23 282.81 1079.54 282.924C1079.86 283.037 1080.29 283.136 1080.83 283.223C1081.38 283.312 1082.08 283.349 1082.92 283.349C1083.77 283.349 1084.46 283.312 1085.01 283.223C1085.55 283.136 1086 283.037 1086.33 282.924C1086.67 282.81 1086.9 282.636 1087.04 282.422C1087.19 282.209 1087.26 281.982 1087.26 281.748V242.626C1087.26 240.159 1087.24 237.667 1087.21 235.164C1087.18 232.656 1087.12 230.203 1087.05 227.799H1087.16C1088.06 229.766 1089.03 231.794 1090.09 233.887C1091.14 235.978 1092.18 237.967 1093.22 239.871L1112.99 276.739C1113.66 278.04 1114.3 279.105 1114.91 279.945C1115.51 280.782 1116.12 281.434 1116.72 281.922C1117.33 282.41 1117.97 282.735 1118.64 282.924C1119.31 283.112 1120.1 283.199 1121 283.199H1123.85C1124.3 283.199 1124.74 283.136 1125.19 282.999C1125.64 282.861 1126.05 282.649 1126.41 282.349C1126.78 282.047 1127.07 281.659 1127.29 281.195C1127.52 280.732 1127.63 280.155 1127.63 279.491V219.685C1127.63 219.446 1127.56 219.234 1127.42 219.033C1127.28 218.835 1127.05 218.659 1126.73 218.509C1126.41 218.357 1125.97 218.244 1125.4 218.183C1124.84 218.121 1124.17 218.08 1123.4 218.08C1122.52 218.08 1121.81 218.121 1121.26 218.183Z" fill="url(#paint11_linear)"/>
<path d="M542.791 136.607C542.791 132.269 542.284 128.237 541.27 124.512C540.256 120.788 538.629 117.558 536.391 114.825C534.151 112.09 531.273 109.956 527.761 108.423C524.248 106.89 519.64 106.125 513.936 106.125H504.528V168.361H514.218C519.309 168.361 523.599 167.702 527.09 166.382C530.578 165.061 533.489 163.07 535.824 160.405C538.158 157.742 539.901 154.43 541.057 150.468C542.214 146.509 542.791 141.889 542.791 136.607ZM562.028 135.97C562.028 144.363 560.932 151.543 558.738 157.505C556.546 163.471 553.401 168.34 549.297 172.111C545.195 175.884 540.21 178.653 534.339 180.42C528.468 182.189 521.477 183.073 513.368 183.073H491.516C489.959 183.073 488.651 182.614 487.591 181.694C486.529 180.775 486 179.278 486 177.202V97.4267C486 95.3506 486.529 93.8539 487.591 92.9341C488.651 92.0144 489.959 91.5557 491.516 91.5557H514.995C523.152 91.5557 530.071 92.5092 535.754 94.4188C541.434 96.3283 546.221 99.1576 550.11 102.907C554.002 106.656 556.959 111.288 558.987 116.804C561.012 122.32 562.028 128.711 562.028 135.97" fill="#EA5B0B"/>
<path d="M651.989 148.984C651.989 154.594 651.164 159.615 649.515 164.047C647.864 168.48 645.435 172.229 642.229 175.292C639.021 178.358 635.062 180.692 630.347 182.295C625.632 183.898 620.208 184.7 614.081 184.7C608.328 184.7 603.165 183.98 598.593 182.542C594.018 181.105 590.151 178.923 586.993 175.999C583.835 173.076 581.416 169.436 579.744 165.073C578.071 160.711 577.233 155.608 577.233 149.761V94.1024C577.233 93.6292 577.375 93.2068 577.658 92.8278C577.94 92.4512 578.447 92.1446 579.179 91.908C579.91 91.6738 580.864 91.4855 582.042 91.3431C583.22 91.2007 584.731 91.1307 586.568 91.1307C588.362 91.1307 589.846 91.2007 591.024 91.3431C592.203 91.4855 593.146 91.6738 593.854 91.908C594.561 92.1446 595.066 92.4512 595.375 92.8278C595.681 93.2068 595.833 93.6292 595.833 94.1024V148.134C595.833 151.765 596.282 154.913 597.178 157.578C598.074 160.24 599.358 162.444 601.033 164.19C602.704 165.933 604.71 167.241 607.044 168.115C609.379 168.987 611.983 169.424 614.858 169.424C617.782 169.424 620.399 168.975 622.709 168.079C625.019 167.183 626.977 165.875 628.58 164.154C630.181 162.432 631.419 160.31 632.293 157.788C633.164 155.267 633.601 152.402 633.601 149.196V94.1024C633.601 93.6292 633.741 93.2068 634.026 92.8278C634.309 92.4512 634.803 92.1446 635.511 91.908C636.218 91.6738 637.172 91.4855 638.374 91.3431C639.576 91.2007 641.073 91.1307 642.866 91.1307C644.658 91.1307 646.13 91.2007 647.287 91.3431C648.44 91.4855 649.372 91.6738 650.08 91.908C650.787 92.1446 651.282 92.4512 651.564 92.8278C651.847 93.2068 651.989 93.6292 651.989 94.1024V148.984Z" fill="#EA5B0B"/>
<path d="M732.757 99.1937C732.757 100.56 732.697 101.728 732.581 102.694C732.463 103.662 732.286 104.439 732.05 105.028C731.813 105.618 731.519 106.054 731.166 106.337C730.811 106.619 730.423 106.762 729.998 106.762H707.084V180.526C707.084 180.999 706.932 181.424 706.625 181.8C706.316 182.177 705.811 182.484 705.104 182.72C704.397 182.954 703.441 183.143 702.239 183.285C701.036 183.428 699.54 183.498 697.748 183.498C695.955 183.498 694.461 183.428 693.258 183.285C692.056 183.143 691.1 182.954 690.393 182.72C689.686 182.484 689.179 182.177 688.872 181.8C688.565 181.424 688.413 180.999 688.413 180.526V106.762H665.499C665.026 106.762 664.625 106.619 664.297 106.337C663.966 106.054 663.684 105.618 663.447 105.028C663.21 104.439 663.034 103.662 662.916 102.694C662.8 101.728 662.74 100.56 662.74 99.1937C662.74 97.7791 662.8 96.5769 662.916 95.5871C663.034 94.5973 663.21 93.8079 663.447 93.2165C663.684 92.6274 663.966 92.2026 664.297 91.9443C664.625 91.686 665.026 91.5556 665.499 91.5556H729.998C730.423 91.5556 730.811 91.686 731.166 91.9443C731.519 92.2026 731.813 92.6274 732.05 93.2165C732.286 93.8079 732.463 94.5973 732.581 95.5871C732.697 96.5769 732.757 97.7791 732.757 99.1937Z" fill="#EA5B0B"/>
<path d="M803.693 169.211C803.693 170.389 803.657 171.391 803.587 172.216C803.517 173.042 803.411 173.749 803.268 174.338C803.128 174.927 802.94 175.434 802.704 175.859C802.467 176.284 802.09 176.767 801.571 177.308C801.052 177.851 800.05 178.546 798.566 179.396C797.081 180.243 795.266 181.057 793.12 181.834C790.974 182.614 788.523 183.261 785.764 183.78C783.007 184.299 780.023 184.557 776.818 184.557C770.548 184.557 764.89 183.592 759.844 181.658C754.799 179.724 750.509 176.837 746.973 172.994C743.436 169.153 740.725 164.354 738.84 158.601C736.954 152.851 736.01 146.154 736.01 138.516C736.01 130.736 737.046 123.829 739.122 117.794C741.196 111.759 744.097 106.692 747.82 102.588C751.545 98.4862 756.013 95.3744 761.223 93.2525C766.432 91.1305 772.173 90.0708 778.445 90.0708C780.991 90.0708 783.442 90.2832 785.8 90.7057C788.156 91.1305 790.336 91.6858 792.342 92.3689C794.346 93.0521 796.149 93.8415 797.752 94.7371C799.355 95.6327 800.475 96.4004 801.113 97.0377C801.748 97.6726 802.185 98.2037 802.421 98.6286C802.655 99.0535 802.844 99.5942 802.986 100.256C803.128 100.915 803.235 101.692 803.305 102.588C803.375 103.483 803.411 104.591 803.411 105.912C803.411 107.326 803.363 108.529 803.268 109.518C803.174 110.511 803.01 111.312 802.774 111.925C802.537 112.536 802.255 112.985 801.926 113.267C801.595 113.55 801.219 113.692 800.794 113.692C800.087 113.692 799.191 113.28 798.107 112.454C797.021 111.628 795.618 110.711 793.897 109.697C792.176 108.683 790.124 107.763 787.746 106.938C785.363 106.112 782.522 105.699 779.222 105.699C775.591 105.699 772.352 106.443 769.498 107.928C766.645 109.412 764.216 111.534 762.212 114.293C760.209 117.053 758.688 120.387 757.652 124.3C756.614 128.215 756.095 132.623 756.095 137.526C756.095 142.902 756.65 147.557 757.759 151.494C758.864 155.431 760.445 158.674 762.497 161.218C764.547 163.765 767.024 165.662 769.923 166.913C772.822 168.161 776.086 168.786 779.717 168.786C783.017 168.786 785.87 168.397 788.275 167.62C790.679 166.843 792.741 165.981 794.464 165.037C796.186 164.096 797.6 163.246 798.708 162.493C799.814 161.737 800.676 161.36 801.289 161.36C801.76 161.36 802.136 161.455 802.421 161.643C802.704 161.831 802.94 162.21 803.128 162.775C803.314 163.34 803.457 164.132 803.551 165.143C803.645 166.157 803.693 167.514 803.693 169.211Z" fill="#EA5B0B"/>
<path d="M888.492 180.527C888.492 180.998 888.34 181.423 888.033 181.799C887.724 182.179 887.219 182.485 886.512 182.719C885.805 182.956 884.861 183.144 883.683 183.287C882.505 183.427 881.018 183.497 879.226 183.497C877.387 183.497 875.869 183.427 874.664 183.287C873.462 183.144 872.518 182.956 871.837 182.719C871.151 182.485 870.657 182.179 870.35 181.799C870.043 181.423 869.891 180.998 869.891 180.527V143.539H835.66V180.527C835.66 180.998 835.52 181.423 835.235 181.799C834.953 182.179 834.458 182.485 833.75 182.719C833.043 182.956 832.099 183.144 830.921 183.287C829.743 183.427 828.234 183.497 826.395 183.497C824.604 183.497 823.107 183.427 821.905 183.287C820.702 183.144 819.746 182.956 819.039 182.719C818.334 182.485 817.827 182.179 817.521 181.799C817.212 181.423 817.06 180.998 817.06 180.527V94.1015C817.06 93.6307 817.212 93.2058 817.521 92.8293C817.827 92.4527 818.334 92.1461 819.039 91.9095C819.746 91.6729 820.702 91.4846 821.905 91.3446C823.107 91.2022 824.604 91.1322 826.395 91.1322C828.234 91.1322 829.743 91.2022 830.921 91.3446C832.099 91.4846 833.043 91.6729 833.75 91.9095C834.458 92.1461 834.953 92.4527 835.235 92.8293C835.52 93.2058 835.66 93.6307 835.66 94.1015V127.696H869.891V94.1015C869.891 93.6307 870.043 93.2058 870.35 92.8293C870.657 92.4527 871.151 92.1461 871.837 91.9095C872.518 91.6729 873.462 91.4846 874.664 91.3446C875.869 91.2022 877.387 91.1322 879.226 91.1322C881.018 91.1322 882.505 91.2022 883.683 91.3446C884.861 91.4846 885.805 91.6729 886.512 91.9095C887.219 92.1461 887.724 92.4527 888.033 92.8293C888.34 93.2058 888.492 93.6307 888.492 94.1015V180.527Z" fill="#EA5B0B"/>
<path d="M1014.59 105.771C1014.59 107.138 1014.54 108.318 1014.42 109.308C1014.3 110.298 1014.14 111.087 1013.92 111.676C1013.71 112.265 1013.45 112.678 1013.14 112.914C1012.84 113.151 1012.47 113.267 1012.05 113.267C1011.43 113.267 1010.44 112.844 1009.08 111.995C1007.71 111.147 1005.89 110.228 1003.63 109.238C1001.37 108.246 998.668 107.328 995.533 106.478C992.399 105.629 988.756 105.206 984.606 105.206C980.174 105.206 976.167 105.972 972.584 107.504C969 109.037 965.936 111.205 963.389 114.01C960.842 116.815 958.887 120.188 957.518 124.125C956.152 128.06 955.469 132.41 955.469 137.173C955.469 142.407 956.164 147.015 957.555 150.999C958.945 154.984 960.891 158.32 963.389 161.007C965.888 163.694 968.893 165.722 972.406 167.088C975.918 168.457 979.798 169.14 984.042 169.14C986.115 169.14 988.167 168.904 990.195 168.433C992.22 167.962 994.108 167.255 995.851 166.311V145.094H978.525C977.676 145.094 977.017 144.563 976.544 143.503C976.073 142.441 975.836 140.637 975.836 138.093C975.836 136.773 975.897 135.664 976.015 134.769C976.131 133.873 976.309 133.154 976.544 132.611C976.78 132.07 977.063 131.669 977.393 131.408C977.724 131.15 978.101 131.02 978.525 131.02H1009.43C1010.19 131.02 1010.86 131.15 1011.45 131.408C1012.04 131.669 1012.55 132.058 1013 132.577C1013.45 133.094 1013.79 133.719 1014.03 134.45C1014.26 135.182 1014.38 136.017 1014.38 136.961V173.384C1014.38 174.799 1014.14 176.035 1013.64 177.097C1013.14 178.157 1012.13 178.994 1010.6 179.608C1009.07 180.221 1007.17 180.858 1004.9 181.517C1002.64 182.176 1000.3 182.744 997.867 183.214C995.438 183.685 992.988 184.04 990.511 184.276C988.037 184.511 985.55 184.629 983.052 184.629C975.742 184.629 969.2 183.579 963.426 181.481C957.649 179.383 952.758 176.341 948.75 172.358C944.741 168.375 941.677 163.518 939.555 157.789C937.433 152.061 936.374 145.565 936.374 138.305C936.374 130.807 937.503 124.077 939.768 118.112C942.03 112.149 945.238 107.08 949.385 102.906C953.535 98.7342 958.544 95.5404 964.415 93.3243C970.286 91.1082 976.826 90.0001 984.042 90.0001C988.001 90.0001 991.61 90.2705 994.861 90.8136C998.116 91.3544 1000.96 92.0158 1003.38 92.7932C1005.81 93.5705 1007.83 94.4082 1009.43 95.3038C1011.03 96.1994 1012.15 96.9767 1012.79 97.6382C1013.43 98.2972 1013.89 99.2291 1014.17 100.431C1014.45 101.633 1014.59 103.413 1014.59 105.771Z" fill="#EA5B0B"/>
<path d="M1052.15 180.527C1052.15 180.998 1052 181.423 1051.69 181.799C1051.38 182.179 1050.88 182.485 1050.17 182.719C1049.46 182.956 1048.52 183.144 1047.34 183.287C1046.16 183.427 1044.65 183.497 1042.81 183.497C1041.02 183.497 1039.53 183.427 1038.32 183.287C1037.12 183.144 1036.16 182.956 1035.46 182.719C1034.75 182.485 1034.24 182.179 1033.94 181.799C1033.63 181.423 1033.48 180.998 1033.48 180.527V94.1015C1033.48 93.6307 1033.63 93.2058 1033.94 92.8293C1034.24 92.4527 1034.76 92.1461 1035.49 91.9095C1036.22 91.6729 1037.18 91.4846 1038.36 91.3446C1039.53 91.2022 1041.02 91.1322 1042.81 91.1322C1044.65 91.1322 1046.16 91.2022 1047.34 91.3446C1048.52 91.4846 1049.46 91.6729 1050.17 91.9095C1050.88 92.1461 1051.38 92.4527 1051.69 92.8293C1052 93.2058 1052.15 93.6307 1052.15 94.1015V180.527Z" fill="#EA5B0B"/>
<path d="M1105.05 109.024H1104.98L1092.04 147.922H1117.99L1105.05 109.024ZM1147.06 176.142C1147.63 177.839 1147.98 179.182 1148.12 180.174C1148.26 181.164 1148.07 181.905 1147.55 182.402C1147.04 182.897 1146.12 183.204 1144.8 183.319C1143.48 183.438 1141.66 183.498 1139.35 183.498C1136.95 183.498 1135.07 183.462 1133.73 183.392C1132.38 183.319 1131.36 183.179 1130.65 182.967C1129.95 182.755 1129.45 182.46 1129.17 182.083C1128.88 181.704 1128.65 181.21 1128.46 180.596L1122.31 162.208H1087.93L1082.14 180.101C1081.95 180.763 1081.7 181.316 1081.39 181.765C1081.09 182.211 1080.59 182.566 1079.91 182.825C1079.22 183.085 1078.26 183.261 1077.01 183.356C1075.76 183.45 1074.12 183.498 1072.09 183.498C1069.92 183.498 1068.23 183.426 1067 183.286C1065.77 183.143 1064.93 182.803 1064.46 182.26C1063.98 181.716 1063.82 180.951 1063.96 179.961C1064.1 178.972 1064.46 177.651 1065.02 176L1093.24 94.8078C1093.52 94.0064 1093.85 93.3594 1094.23 92.8645C1094.61 92.3696 1095.21 91.9906 1096.03 91.7323C1096.86 91.4716 1098 91.3074 1099.46 91.2374C1100.92 91.1674 1102.86 91.1312 1105.26 91.1312C1108.04 91.1312 1110.26 91.1674 1111.91 91.2374C1113.56 91.3074 1114.85 91.4716 1115.76 91.7323C1116.68 91.9906 1117.34 92.3793 1117.75 92.8983C1118.15 93.4173 1118.49 94.1247 1118.77 95.0203L1147.06 176.142Z" fill="#EA5B0B"/>
<path d="M1235.32 176.567C1235.32 177.651 1235.14 178.619 1234.76 179.466C1234.38 180.316 1233.87 181.023 1233.24 181.588C1232.6 182.153 1231.85 182.566 1230.97 182.826C1230.1 183.085 1229.22 183.215 1228.32 183.215H1220.4C1218.75 183.215 1217.33 183.051 1216.12 182.72C1214.92 182.39 1213.81 181.788 1212.8 180.917C1211.78 180.043 1210.81 178.865 1209.86 177.38C1208.92 175.896 1207.86 173.974 1206.68 171.616L1183.91 128.829C1182.59 126.282 1181.24 123.535 1179.88 120.59C1178.51 117.642 1177.28 114.776 1176.2 111.995H1176.06C1176.25 115.39 1176.39 118.774 1176.48 122.144C1176.58 125.517 1176.62 128.993 1176.62 132.575V180.456C1176.62 180.929 1176.49 181.351 1176.23 181.73C1175.97 182.107 1175.53 182.426 1174.89 182.684C1174.25 182.945 1173.39 183.145 1172.31 183.285C1171.22 183.428 1169.83 183.498 1168.14 183.498C1166.49 183.498 1165.12 183.428 1164.03 183.285C1162.95 183.145 1162.1 182.945 1161.49 182.684C1160.87 182.426 1160.45 182.107 1160.22 181.73C1159.98 181.351 1159.86 180.929 1159.86 180.456V98.2039C1159.86 95.9878 1160.51 94.3269 1161.81 93.2189C1163.1 92.1108 1164.69 91.5556 1166.58 91.5556H1176.55C1178.34 91.5556 1179.85 91.7101 1181.08 92.0167C1182.3 92.3233 1183.4 92.8278 1184.37 93.5351C1185.33 94.2425 1186.24 95.2226 1187.09 96.4706C1187.94 97.7211 1188.81 99.2661 1189.71 101.103L1207.53 134.557C1208.57 136.585 1209.59 138.577 1210.61 140.532C1211.62 142.49 1212.6 144.445 1213.54 146.403C1214.48 148.358 1215.4 150.28 1216.3 152.168C1217.19 154.053 1218.07 155.939 1218.92 157.824H1218.99C1218.85 154.524 1218.74 151.082 1218.67 147.499C1218.6 143.917 1218.56 140.498 1218.56 137.244V94.3149C1218.56 93.8417 1218.7 93.4193 1218.99 93.0403C1219.27 92.6637 1219.74 92.3329 1220.4 92.0505C1221.06 91.768 1221.93 91.5677 1223.02 91.4494C1224.1 91.3311 1225.49 91.2732 1227.19 91.2732C1228.79 91.2732 1230.14 91.3311 1231.22 91.4494C1232.31 91.5677 1233.14 91.768 1233.73 92.0505C1234.32 92.3329 1234.74 92.6637 1234.97 93.0403C1235.21 93.4193 1235.32 93.8417 1235.32 94.3149V176.567Z" fill="#EA5B0B"/>
<path d="M1316.16 99.1937C1316.16 100.56 1316.11 101.728 1315.99 102.694C1315.87 103.662 1315.69 104.439 1315.46 105.028C1315.22 105.618 1314.92 106.054 1314.57 106.337C1314.22 106.619 1313.83 106.762 1313.4 106.762H1290.49V180.526C1290.49 180.999 1290.34 181.424 1290.03 181.8C1289.72 182.177 1289.22 182.484 1288.51 182.72C1287.8 182.954 1286.85 183.143 1285.64 183.285C1284.44 183.428 1282.95 183.498 1281.15 183.498C1279.36 183.498 1277.87 183.428 1276.66 183.285C1275.46 183.143 1274.51 182.954 1273.8 182.72C1273.09 182.484 1272.58 182.177 1272.28 181.8C1271.97 181.424 1271.82 180.999 1271.82 180.526V106.762H1248.9C1248.43 106.762 1248.03 106.619 1247.7 106.337C1247.37 106.054 1247.09 105.618 1246.85 105.028C1246.62 104.439 1246.44 103.662 1246.32 102.694C1246.21 101.728 1246.15 100.56 1246.15 99.1937C1246.15 97.7791 1246.21 96.5769 1246.32 95.5871C1246.44 94.5973 1246.62 93.8079 1246.85 93.2165C1247.09 92.6274 1247.37 92.2026 1247.7 91.9443C1248.03 91.686 1248.43 91.5556 1248.9 91.5556H1313.4C1313.83 91.5556 1314.22 91.686 1314.57 91.9443C1314.92 92.2026 1315.22 92.6274 1315.46 93.2165C1315.69 93.8079 1315.87 94.5973 1315.99 95.5871C1316.11 96.5769 1316.16 97.7791 1316.16 99.1937Z" fill="#EA5B0B"/>
<defs>
<linearGradient id="paint0_linear" x1="132.882" y1="183.817" x2="283.925" y2="183.817" gradientUnits="userSpaceOnUse">
<stop stop-color="#B07516"/>
<stop offset="0.128048" stop-color="#F5D880"/>
<stop offset="0.139785" stop-color="#F5D880"/>
<stop offset="0.258064" stop-color="#FEF9D8"/>
<stop offset="0.360215" stop-color="#F5D880"/>
<stop offset="0.489247" stop-color="#B07516"/>
<stop offset="0.60252" stop-color="#F5D880"/>
<stop offset="0.612903" stop-color="#F5D880"/>
<stop offset="0.736559" stop-color="#FEF9D8"/>
<stop offset="0.83871" stop-color="#F5D880"/>
<stop offset="1" stop-color="#B07516"/>
</linearGradient>
<linearGradient id="paint1_linear" x1="43.85" y1="283.716" x2="319.299" y2="89.0014" gradientUnits="userSpaceOnUse">
<stop stop-color="#B07516"/>
<stop offset="0.128048" stop-color="#F5D880"/>
<stop offset="0.139785" stop-color="#F5D880"/>
<stop offset="0.258064" stop-color="#FEF9D8"/>
<stop offset="0.360215" stop-color="#F5D880"/>
<stop offset="0.489247" stop-color="#B07516"/>
<stop offset="0.60252" stop-color="#F5D880"/>
<stop offset="0.612903" stop-color="#F5D880"/>
<stop offset="0.736559" stop-color="#FEF9D8"/>
<stop offset="0.83871" stop-color="#F5D880"/>
<stop offset="1" stop-color="#B07516"/>
</linearGradient>
<linearGradient id="paint2_linear" x1="0.333467" y1="-592.405" x2="369.956" y2="-592.405" gradientUnits="userSpaceOnUse">
<stop stop-color="#B07516"/>
<stop offset="0.128048" stop-color="#F5D880"/>
<stop offset="0.139785" stop-color="#F5D880"/>
<stop offset="0.258064" stop-color="#FEF9D8"/>
<stop offset="0.360215" stop-color="#F5D880"/>
<stop offset="0.489247" stop-color="#B07516"/>
<stop offset="0.60252" stop-color="#F5D880"/>
<stop offset="0.612903" stop-color="#F5D880"/>
<stop offset="0.736559" stop-color="#FEF9D8"/>
<stop offset="0.83871" stop-color="#F5D880"/>
<stop offset="1" stop-color="#B07516"/>
</linearGradient>
<linearGradient id="paint3_linear" x1="695.802" y1="218.719" x2="695.802" y2="290.721" gradientUnits="userSpaceOnUse">
<stop stop-color="#B07516"/>
<stop offset="0.128048" stop-color="#F5D880"/>
<stop offset="0.139785" stop-color="#F5D880"/>
<stop offset="0.258064" stop-color="#FEF9D8"/>
<stop offset="0.360215" stop-color="#F5D880"/>
<stop offset="0.489247" stop-color="#B07516"/>
<stop offset="0.60252" stop-color="#F5D880"/>
<stop offset="0.612903" stop-color="#F5D880"/>
<stop offset="0.736559" stop-color="#FEF9D8"/>
<stop offset="0.83871" stop-color="#F5D880"/>
<stop offset="1" stop-color="#B07516"/>
</linearGradient>
<linearGradient id="paint4_linear" x1="761.846" y1="218.719" x2="761.846" y2="290.721" gradientUnits="userSpaceOnUse">
<stop stop-color="#B07516"/>
<stop offset="0.128048" stop-color="#F5D880"/>
<stop offset="0.139785" stop-color="#F5D880"/>
<stop offset="0.258064" stop-color="#FEF9D8"/>
<stop offset="0.360215" stop-color="#F5D880"/>
<stop offset="0.489247" stop-color="#B07516"/>
<stop offset="0.60252" stop-color="#F5D880"/>
<stop offset="0.612903" stop-color="#F5D880"/>
<stop offset="0.736559" stop-color="#FEF9D8"/>
<stop offset="0.83871" stop-color="#F5D880"/>
<stop offset="1" stop-color="#B07516"/>
</linearGradient>
<linearGradient id="paint5_linear" x1="819.726" y1="218.719" x2="819.726" y2="290.721" gradientUnits="userSpaceOnUse">
<stop stop-color="#B07516"/>
<stop offset="0.128048" stop-color="#F5D880"/>
<stop offset="0.139785" stop-color="#F5D880"/>
<stop offset="0.258064" stop-color="#FEF9D8"/>
<stop offset="0.360215" stop-color="#F5D880"/>
<stop offset="0.489247" stop-color="#B07516"/>
<stop offset="0.60252" stop-color="#F5D880"/>
<stop offset="0.612903" stop-color="#F5D880"/>
<stop offset="0.736559" stop-color="#FEF9D8"/>
<stop offset="0.83871" stop-color="#F5D880"/>
<stop offset="1" stop-color="#B07516"/>
</linearGradient>
<linearGradient id="paint6_linear" x1="874.949" y1="218.719" x2="874.949" y2="290.721" gradientUnits="userSpaceOnUse">
<stop stop-color="#B07516"/>
<stop offset="0.128048" stop-color="#F5D880"/>
<stop offset="0.139785" stop-color="#F5D880"/>
<stop offset="0.258064" stop-color="#FEF9D8"/>
<stop offset="0.360215" stop-color="#F5D880"/>
<stop offset="0.489247" stop-color="#B07516"/>
<stop offset="0.60252" stop-color="#F5D880"/>
<stop offset="0.612903" stop-color="#F5D880"/>
<stop offset="0.736559" stop-color="#FEF9D8"/>
<stop offset="0.83871" stop-color="#F5D880"/>
<stop offset="1" stop-color="#B07516"/>
</linearGradient>
<linearGradient id="paint7_linear" x1="913.344" y1="218.719" x2="913.344" y2="290.721" gradientUnits="userSpaceOnUse">
<stop stop-color="#B07516"/>
<stop offset="0.128048" stop-color="#F5D880"/>
<stop offset="0.139785" stop-color="#F5D880"/>
<stop offset="0.258064" stop-color="#FEF9D8"/>
<stop offset="0.360215" stop-color="#F5D880"/>
<stop offset="0.489247" stop-color="#B07516"/>
<stop offset="0.60252" stop-color="#F5D880"/>
<stop offset="0.612903" stop-color="#F5D880"/>
<stop offset="0.736559" stop-color="#FEF9D8"/>
<stop offset="0.83871" stop-color="#F5D880"/>
<stop offset="1" stop-color="#B07516"/>
</linearGradient>
<linearGradient id="paint8_linear" x1="951.262" y1="218.719" x2="951.262" y2="290.721" gradientUnits="userSpaceOnUse">
<stop stop-color="#B07516"/>
<stop offset="0.128048" stop-color="#F5D880"/>
<stop offset="0.139785" stop-color="#F5D880"/>
<stop offset="0.258064" stop-color="#FEF9D8"/>
<stop offset="0.360215" stop-color="#F5D880"/>
<stop offset="0.489247" stop-color="#B07516"/>
<stop offset="0.60252" stop-color="#F5D880"/>
<stop offset="0.612903" stop-color="#F5D880"/>
<stop offset="0.736559" stop-color="#FEF9D8"/>
<stop offset="0.83871" stop-color="#F5D880"/>
<stop offset="1" stop-color="#B07516"/>
</linearGradient>
<linearGradient id="paint9_linear" x1="989.18" y1="218.719" x2="989.18" y2="290.721" gradientUnits="userSpaceOnUse">
<stop stop-color="#B07516"/>
<stop offset="0.128048" stop-color="#F5D880"/>
<stop offset="0.139785" stop-color="#F5D880"/>
<stop offset="0.258064" stop-color="#FEF9D8"/>
<stop offset="0.360215" stop-color="#F5D880"/>
<stop offset="0.489247" stop-color="#B07516"/>
<stop offset="0.60252" stop-color="#F5D880"/>
<stop offset="0.612903" stop-color="#F5D880"/>
<stop offset="0.736559" stop-color="#FEF9D8"/>
<stop offset="0.83871" stop-color="#F5D880"/>
<stop offset="1" stop-color="#B07516"/>
</linearGradient>
<linearGradient id="paint10_linear" x1="1036.04" y1="218.719" x2="1036.04" y2="290.721" gradientUnits="userSpaceOnUse">
<stop stop-color="#B07516"/>
<stop offset="0.128048" stop-color="#F5D880"/>
<stop offset="0.139785" stop-color="#F5D880"/>
<stop offset="0.258064" stop-color="#FEF9D8"/>
<stop offset="0.360215" stop-color="#F5D880"/>
<stop offset="0.489247" stop-color="#B07516"/>
<stop offset="0.60252" stop-color="#F5D880"/>
<stop offset="0.612903" stop-color="#F5D880"/>
<stop offset="0.736559" stop-color="#FEF9D8"/>
<stop offset="0.83871" stop-color="#F5D880"/>
<stop offset="1" stop-color="#B07516"/>
</linearGradient>
<linearGradient id="paint11_linear" x1="1103.13" y1="218.719" x2="1103.13" y2="290.721" gradientUnits="userSpaceOnUse">
<stop stop-color="#B07516"/>
<stop offset="0.128048" stop-color="#F5D880"/>
<stop offset="0.139785" stop-color="#F5D880"/>
<stop offset="0.258064" stop-color="#FEF9D8"/>
<stop offset="0.360215" stop-color="#F5D880"/>
<stop offset="0.489247" stop-color="#B07516"/>
<stop offset="0.60252" stop-color="#F5D880"/>
<stop offset="0.612903" stop-color="#F5D880"/>
<stop offset="0.736559" stop-color="#FEF9D8"/>
<stop offset="0.83871" stop-color="#F5D880"/>
<stop offset="1" stop-color="#B07516"/>
</linearGradient>
</defs>
</svg>
