<svg id="OBJECTS" xmlns="http://www.w3.org/2000/svg" viewBox="0 0 378.84 162.97"><defs><style>.cls-1{fill:#ba7315;}.cls-2{fill:#965b14;}.cls-3{fill:#c2e9ff;}.cls-4{fill:#e3f6ff;}.cls-5{fill:#dd901f;}.cls-6{fill:#ff8faf;}.cls-7{fill:#fc709e;}.cls-8{fill:#aa1a51;}.cls-9{fill:#602314;}.cls-10{fill:#859b6f;}.cls-11{fill:#6c8252;}.cls-12{fill:#2c3f14;}.cls-13{fill:#19170a;}.cls-14{fill:#5671be;}.cls-15{fill:#2d2d69;}.cls-16{fill:#789af9;}.cls-17{fill:#fcf3cd;}.cls-18{fill:#7f290e;}.cls-19{fill:#837745;}.cls-20{fill:#b4a77b;}.cls-21{fill:#3cd2dd;}.cls-22{fill:#abf5ff;}.cls-23{fill:#1ca0a3;}.cls-24,.cls-29,.cls-33,.cls-35,.cls-38,.cls-40,.cls-42,.cls-49{fill:none;}.cls-24{stroke:#4c431f;}.cls-24,.cls-29,.cls-33,.cls-35,.cls-42,.cls-49{stroke-linecap:round;stroke-linejoin:round;}.cls-24,.cls-29{stroke-width:0.85px;}.cls-25{fill:#594f26;}.cls-26{fill:#3f3716;}.cls-27{fill:#857947;}.cls-28{fill:#6d6232;}.cls-29{stroke:#594f26;}.cls-30{fill:#5266bd;}.cls-31{fill:#4157aa;}.cls-32{fill:#2a3f8c;}.cls-33{stroke:#1c3475;}.cls-33,.cls-35{stroke-width:1.08px;}.cls-34{fill:#102663;}.cls-35{stroke:#2a3f8c;}.cls-36{fill:#b05200;}.cls-37{fill:#ccfdff;}.cls-38{stroke:#1a7084;stroke-width:0.26px;}.cls-38,.cls-40{stroke-miterlimit:10;}.cls-39{fill:#00b8cd;}.cls-40{stroke:#a4fbff;stroke-width:0.35px;}.cls-41{fill:#a04602;}.cls-42,.cls-49{stroke:#4b2516;}.cls-42{stroke-width:0.28px;}.cls-43{fill:#4c2102;}.cls-44{fill:#af3e00;}.cls-45{fill:#4b2516;}.cls-46{fill:#f9f9ea;}.cls-47{fill:#422020;}.cls-48{fill:#5e37bc;}.cls-49{stroke-width:0.29px;}.cls-50{fill:#9469e8;}.cls-51{fill:#ac7cf6;}.cls-52{fill:#b24e2a;}.cls-53{fill:#a03e20;}.cls-54{fill:#661e0a;}.cls-55{fill:#4c1509;}.cls-56{fill:#a55d07;}.cls-57{fill:#c67809;}.cls-58{fill:#ffad1d;}</style></defs><title>44</title><path class="cls-1" d="M418.75,460.57a2.42,2.42,0,0,1-.54-.06L376,450a2.23,2.23,0,0,1-1.65-1.73l-13.74-67.56a2.19,2.19,0,0,1,.46-1.86,2.23,2.23,0,0,1,1.73-.82h38.55a2.22,2.22,0,0,1,2.18,1.75l17.39,78.07a2.23,2.23,0,0,1-2.18,2.72ZM378.47,446l37.3,9.29-16.21-72.77h-34Z" transform="translate(-42.15 -305.58)"/><path class="cls-2" d="M389.65,465.49a2.57,2.57,0,0,1-.62-.08l-40.47-11.62a2.23,2.23,0,0,1-1.57-2.62l14.44-66.7a2.24,2.24,0,1,1,4.37.95l-14,64.65,36,10.32,10.85-75.77a2.24,2.24,0,1,1,4.43.64l-11.21,78.31a2.27,2.27,0,0,1-1,1.56A2.23,2.23,0,0,1,389.65,465.49Z" transform="translate(-42.15 -305.58)"/><path class="cls-3" d="M374.86,442.32h0c-11,0-18.74-11.48-17.24-25.64l8.67-82.09c1.5-14.16,11.64-25.64,22.65-25.64h0c11,0,18.74,11.48,17.24,25.64l-8.67,82.09C396,430.84,385.87,442.32,374.86,442.32Z" transform="translate(-42.15 -305.58)"/><path class="cls-4" d="M402.52,333.78c-2.17-2.7-4.26-5.47-6.39-8.2-1.12-1.42-2.28-2.82-3.38-4.25l-.21-.27-.16-.19-.42-.52-.75-.91c-.53-.65-1.07-1.3-1.62-1.93-2.14-2.49-4.72-4.77-6.93-7.31a22,22,0,0,0-6.73,4.34c2,2.21,4,4.39,6.08,6.49,3.87,3.89,7.84,7.68,11.63,11.65,3.54,3.7,7.13,7.31,10.83,10.85l.7.66.68-6.42Q404.14,335.8,402.52,333.78Z" transform="translate(-42.15 -305.58)"/><path class="cls-4" d="M397.87,346.59c-3.68-3.63-7.15-7.42-10.72-11.16-3.79-4-7.69-7.81-11.4-11.85-1.31-1.42-2.6-2.87-3.85-4.36A32.26,32.26,0,0,0,368,327l1.11,1.17c2.46,2.57,5,5.06,7.47,7.62,4.55,4.73,9.15,9.43,13.69,14.18,4.28,4.49,8.54,9,12.89,13.43l1.11-10.53C402.14,350.76,400,348.68,397.87,346.59Z" transform="translate(-42.15 -305.58)"/><path class="cls-4" d="M397,366.32c-4.39-4.63-8.65-9.38-13-14.06s-8.56-9.33-12.82-14c-1.59-1.76-3.18-3.53-4.73-5.34-.08.56-.16,1.11-.22,1.68l-1.82,17.24.4.54c2.75,3.6,5.19,6.83,7.91,10.28s5.59,7,8.41,10.51c5.73,7.09,11.75,13.93,17.58,20.94.34.4.66.81,1,1.22l2.49-23.56Q399.64,369,397,366.32Z" transform="translate(-42.15 -305.58)"/><path class="cls-4" d="M367.67,385c10.44,11.55,19.74,24.13,28.94,36.67a33.36,33.36,0,0,0,.9-4.94l1.22-11.5c-2.69-3.37-5.37-6.73-8.11-10.06-5.8-7-11.73-13.95-17.31-21.17-3.32-4.29-6.6-8.62-9.8-13l-1.87,17.65C363.7,380.66,365.71,382.79,367.67,385Z" transform="translate(-42.15 -305.58)"/><path class="cls-5" d="M374.86,445.69a18.88,18.88,0,0,1-14.14-6.47c-5-5.61-7.4-14-6.45-22.89l8.67-82.1c1.67-15.79,13.33-28.65,26-28.65a18.88,18.88,0,0,1,14.14,6.47c5.05,5.61,7.4,13.95,6.45,22.89L400.86,417C399.19,432.83,387.53,445.69,374.86,445.69Zm14.08-133.37c-9.32,0-18,10.15-19.3,22.62L361,417c-.73,6.94,1,13.55,4.76,17.67a12.08,12.08,0,0,0,9.13,4.24c9.32,0,18-10.15,19.3-22.62l8.67-82.1c.73-6.94-1.05-13.55-4.76-17.67A12.08,12.08,0,0,0,388.94,312.32Z" transform="translate(-42.15 -305.58)"/><path class="cls-6" d="M105.13,400.54a.24.24,0,0,0,0-.08c0-1.3-9.89-2.35-22.08-2.35S61,399.16,61,400.46a.24.24,0,0,0,0,.08v0a.19.19,0,0,0,0,.08v0a.29.29,0,0,0,0,.09v0a.31.31,0,0,0,0,.08v0a.24.24,0,0,0,0,.08v0a.19.19,0,0,0,0,.08v0a.29.29,0,0,0,0,.09v0a.31.31,0,0,0,0,.08v0a.24.24,0,0,0,0,.08v0a.19.19,0,0,0,0,.08v0a.29.29,0,0,0,0,.09v0a.31.31,0,0,0,0,.08v0a.24.24,0,0,0,0,.08s0,0,0,0a.19.19,0,0,0,0,.08v0a.29.29,0,0,0,0,.09s0,0,0,0a.31.31,0,0,0,0,.08v0s0,0,0,.08v0a.19.19,0,0,0,0,.08,0,0,0,0,1,0,0s0,.06,0,.09v0a.31.31,0,0,0,0,.08v0a.24.24,0,0,0,0,.08v0a.19.19,0,0,0,0,.08v0a.29.29,0,0,0,0,.09v0a.31.31,0,0,0,0,.08s0,0,0,0a.24.24,0,0,0,0,.08v0a.19.19,0,0,0,0,.08v0a.29.29,0,0,0,0,.09v0a.31.31,0,0,0,0,.08v0a.24.24,0,0,0,0,.08v0a.19.19,0,0,0,0,.08v0a.29.29,0,0,0,0,.09v0a.31.31,0,0,0,0,.08v0a.24.24,0,0,0,0,.08v0a.19.19,0,0,0,0,.08v0a.29.29,0,0,0,0,.09h0a.29.29,0,0,0,0,.09v0a.24.24,0,0,0,0,.08v0a.19.19,0,0,0,0,.08,0,0,0,0,0,0,0,.29.29,0,0,0,0,.09h0s0,.06,0,.09v0a.24.24,0,0,0,0,.08v0s0,.06,0,.08v0a.29.29,0,0,0,0,.09h0s0,.06,0,.09v0a.31.31,0,0,0,0,.08v0a.24.24,0,0,0,0,.08v0a.19.19,0,0,0,0,.08v0a.29.29,0,0,0,0,.09v0a.31.31,0,0,0,0,.08s0,0,0,0a.24.24,0,0,0,0,.08v0a.19.19,0,0,0,0,.08v0a.29.29,0,0,0,0,.09v0a.31.31,0,0,0,0,.08v0a.24.24,0,0,0,0,.08v0a.19.19,0,0,0,0,.08v0a.29.29,0,0,0,0,.09v0a.31.31,0,0,0,0,.08s0,0,0,0a.24.24,0,0,0,0,.08v0a.19.19,0,0,0,0,.08v0a.29.29,0,0,0,0,.09v0a.31.31,0,0,0,0,.08v0a.24.24,0,0,0,0,.08v0s0,.06,0,.08v0a.29.29,0,0,0,0,.09v0s0,.05,0,.08v0a.24.24,0,0,0,0,.08v0s0,.06,0,.08v0a.29.29,0,0,0,0,.09v0a.31.31,0,0,0,0,.08v0a.24.24,0,0,0,0,.08v0a.19.19,0,0,0,0,.08v0a.29.29,0,0,0,0,.09h0a.29.29,0,0,0,0,.09v0a.24.24,0,0,0,0,.08s0,0,0,0a.19.19,0,0,0,0,.08v0a.29.29,0,0,0,0,.09h0a.29.29,0,0,0,0,.09v0a.24.24,0,0,0,0,.08v0a.19.19,0,0,0,0,.08v0a.29.29,0,0,0,0,.09h0a.29.29,0,0,0,0,.09v0a.31.31,0,0,0,0,.08s0,0,0,0a.19.19,0,0,0,0,.08v0a.29.29,0,0,0,0,.09h0a.29.29,0,0,0,0,.09v0a.31.31,0,0,0,0,.08v0a.19.19,0,0,0,0,.08v0s0,.06,0,.09h0a.29.29,0,0,0,0,.09v0s0,.05,0,.08v0a.24.24,0,0,0,0,.08v0s0,.06,0,.09h0a.29.29,0,0,0,0,.09v0a.31.31,0,0,0,0,.08v0a.24.24,0,0,0,0,.08v0a.29.29,0,0,0,0,.09h0a.29.29,0,0,0,0,.09v0a.31.31,0,0,0,0,.08v0a.24.24,0,0,0,0,.08s0,0,0,0a.19.19,0,0,0,0,.08v0a.29.29,0,0,0,0,.09v0a.31.31,0,0,0,0,.08v0a.24.24,0,0,0,0,.08v0a.19.19,0,0,0,0,.08v0a.29.29,0,0,0,0,.09,0,0,0,0,0,0,0,.31.31,0,0,0,0,.08v0a.24.24,0,0,0,0,.08s0,0,0,0a.19.19,0,0,0,0,.08v0a.29.29,0,0,0,0,.09h0a.29.29,0,0,0,0,.09v0s0,0,0,.08v0a.19.19,0,0,0,0,.08v0s0,.06,0,.09h0a.29.29,0,0,0,0,.09v0s0,.05,0,.08v0a.19.19,0,0,0,0,.08v0a.29.29,0,0,0,0,.09h0a.29.29,0,0,0,0,.09v0a.24.24,0,0,0,0,.08v0a.19.19,0,0,0,0,.08v0a.29.29,0,0,0,0,.09h0a.29.29,0,0,0,0,.09v0a.31.31,0,0,0,0,.08v0a.19.19,0,0,0,0,.08v0a.29.29,0,0,0,0,.09h0a.29.29,0,0,0,0,.09v0a.31.31,0,0,0,0,.08v0a.19.19,0,0,0,0,.08v0a.29.29,0,0,0,0,.09h0a.29.29,0,0,0,0,.09v0a.31.31,0,0,0,0,.08v0a.19.19,0,0,0,0,.08s0,0,0,0a.29.29,0,0,0,0,.09h0a.29.29,0,0,0,0,.09s0,0,0,0a.31.31,0,0,0,0,.08v0s0,0,0,.08v0a.29.29,0,0,0,0,.09h0s0,.06,0,.09v0a.31.31,0,0,0,0,.08v0s0,.05,0,.08v0a.29.29,0,0,0,0,.09h0a.29.29,0,0,0,0,.09h0a.29.29,0,0,0,0,.09s0,0,0,0a.24.24,0,0,0,0,.08v0a.29.29,0,0,0,0,.09h0a.29.29,0,0,0,0,.09h0a.29.29,0,0,0,0,.09v0a.24.24,0,0,0,0,.08v0a.29.29,0,0,0,0,.09h0a.29.29,0,0,0,0,.09h0a.29.29,0,0,0,0,.09v0a.24.24,0,0,0,0,.08v0a.19.19,0,0,0,0,.08v0a.29.29,0,0,0,0,.09h0a.29.29,0,0,0,0,.09v0a.24.24,0,0,0,0,.08v0a.19.19,0,0,0,0,.08v0a.29.29,0,0,0,0,.09h0s0,.06,0,.09v0a.24.24,0,0,0,0,.08v0s0,.06,0,.08v0a.29.29,0,0,0,0,.09h0s0,.06,0,.09v0a.31.31,0,0,0,0,.08v0a.19.19,0,0,0,0,.08v0a.29.29,0,0,0,0,.09h0a.29.29,0,0,0,0,.09v0a.31.31,0,0,0,0,.08v0a.19.19,0,0,0,0,.08v0a.29.29,0,0,0,0,.09h0a.29.29,0,0,0,0,.09v0a.31.31,0,0,0,0,.08v0a.19.19,0,0,0,0,.08v0a.29.29,0,0,0,0,.09h0a.29.29,0,0,0,0,.09v0a.31.31,0,0,0,0,.08v0a.19.19,0,0,0,0,.08v0a.29.29,0,0,0,0,.09h0a.29.29,0,0,0,0,.09h0a.29.29,0,0,0,0,.09v0a.19.19,0,0,0,0,.08v0s0,.06,0,.09h0a.29.29,0,0,0,0,.09h0s0,.06,0,.09v0a.24.24,0,0,0,0,.08v0s0,.06,0,.09h0a.29.29,0,0,0,0,.09h0s0,.06,0,.09v0a.24.24,0,0,0,0,.08v0a.28.28,0,0,0,0,.09h0a.29.29,0,0,0,0,.09h0a.29.29,0,0,0,0,.09v0a.24.24,0,0,0,0,.08v0a.29.29,0,0,0,0,.09h0a.29.29,0,0,0,0,.09h0a.29.29,0,0,0,0,.09v0a.24.24,0,0,0,0,.08v0a.29.29,0,0,0,0,.09h0a.29.29,0,0,0,0,.09h0a.29.29,0,0,0,0,.09v0a.24.24,0,0,0,0,.08v0a.29.29,0,0,0,0,.09h0a.29.29,0,0,0,0,.09h0a.29.29,0,0,0,0,.09v0a.31.31,0,0,0,0,.08v0a.29.29,0,0,0,0,.09h0s0,.06,0,.09h0a.29.29,0,0,0,0,.09v0s0,.05,0,.08v0a.29.29,0,0,0,0,.09h0s0,.06,0,.09h0a.29.29,0,0,0,0,.09v0a.25.25,0,0,0,0,.08v0a.19.19,0,0,0,0,.08v0a.28.28,0,0,0,0,.09h0a.29.29,0,0,0,0,.09h0a.29.29,0,0,0,0,.09v0a.19.19,0,0,0,0,.08v0a.29.29,0,0,0,0,.09h0a.29.29,0,0,0,0,.09h0a.29.29,0,0,0,0,.09v0a.19.19,0,0,0,0,.08v0a.29.29,0,0,0,0,.09h0a.29.29,0,0,0,0,.09h0a.29.29,0,0,0,0,.09v0a.19.19,0,0,0,0,.08v0a.29.29,0,0,0,0,.09h0a.29.29,0,0,0,0,.09h0a.29.29,0,0,0,0,.09v0s0,.06,0,.08v0a.29.29,0,0,0,0,.09h0s0,.06,0,.09h0a.29.29,0,0,0,0,.09v0s0,.05,0,.08v0a.29.29,0,0,0,0,.09h0s0,.06,0,.09h0a.29.29,0,0,0,0,.09v0a.22.22,0,0,0,0,.08v0a.29.29,0,0,0,0,.09h0a.28.28,0,0,0,0,.09h0a.29.29,0,0,0,0,.09v0a.24.24,0,0,0,0,.08v0a.29.29,0,0,0,0,.09h0a.29.29,0,0,0,0,.09h0a.29.29,0,0,0,0,.09v0a.31.31,0,0,0,0,.08v0a.29.29,0,0,0,0,.09h0a.29.29,0,0,0,0,.09h0a.29.29,0,0,0,0,.09h0a.29.29,0,0,0,0,.09v0a.29.29,0,0,0,0,.09h0a.29.29,0,0,0,0,.09h0a.29.29,0,0,0,0,.09h0a.29.29,0,0,0,0,.09v0s0,.06,0,.09h0a.29.29,0,0,0,0,.09h0s0,.06,0,.09h0a.29.29,0,0,0,0,.09v0s0,.06,0,.09h0a.29.29,0,0,0,0,.09h0a.28.28,0,0,0,0,.09h0a.29.29,0,0,0,0,.09v0a.28.28,0,0,0,0,.09h0a.29.29,0,0,0,0,.09h0a.28.28,0,0,0,0,.09h0a.29.29,0,0,0,0,.09v0a.29.29,0,0,0,0,.09h0a.29.29,0,0,0,0,.09h0a.29.29,0,0,0,0,.09h0a.29.29,0,0,0,0,.09v0a.29.29,0,0,0,0,.09h0a.29.29,0,0,0,0,.09h0a.29.29,0,0,0,0,.09h0a.29.29,0,0,0,0,.09v0a.19.19,0,0,0,0,.08v0a.29.29,0,0,0,0,.09h0a.29.29,0,0,0,0,.09h0s0,.06,0,.09v0a.19.19,0,0,0,0,.08v0s0,.06,0,.09h0a.29.29,0,0,0,0,.09h0s0,.06,0,.09v0a.24.24,0,0,0,0,.08v0s0,.06,0,.09h0a.29.29,0,0,0,0,.09h0a.28.28,0,0,0,0,.09h0a.29.29,0,0,0,0,.09v0a.28.28,0,0,0,0,.09h0a.29.29,0,0,0,0,.09h0a.28.28,0,0,0,0,.09h0a.29.29,0,0,0,0,.09v0a.29.29,0,0,0,0,.09h0a.29.29,0,0,0,0,.09h0a.29.29,0,0,0,0,.09h0a.29.29,0,0,0,0,.09v0a.29.29,0,0,0,0,.09h0a.29.29,0,0,0,0,.09h0a.29.29,0,0,0,0,.09h0a.29.29,0,0,0,0,.09v0a.29.29,0,0,0,0,.09h0a.29.29,0,0,0,0,.09h0a.29.29,0,0,0,0,.09h0s0,.06,0,.09v0a.29.29,0,0,0,0,.09h0s0,.06,0,.09h0a.29.29,0,0,0,0,.09h0s0,.06,0,.09v0a.29.29,0,0,0,0,.09h0a.28.28,0,0,0,0,.09h0a.29.29,0,0,0,0,.09h0a.28.28,0,0,0,0,.09v0a.29.29,0,0,0,0,.09h0a.28.28,0,0,0,0,.09h0a.29.29,0,0,0,0,.09h0a.28.28,0,0,0,0,.09v0a.29.29,0,0,0,0,.09h0a.29.29,0,0,0,0,.09h0a.29.29,0,0,0,0,.09h0a.29.29,0,0,0,0,.09v0a.29.29,0,0,0,0,.09h0a.29.29,0,0,0,0,.09h0a.29.29,0,0,0,0,.09h0a.29.29,0,0,0,0,.09h0a.3.3,0,0,0,0,.1h0a.29.29,0,0,0,0,.09h0s0,.06,0,.09h0a.29.29,0,0,0,0,.09h0s0,.07,0,.1h0a.29.29,0,0,0,0,.09h0s0,.06,0,.09h0a.29.29,0,0,0,0,.09h0s0,.07,0,.1h0a.29.29,0,0,0,0,.09h0a.28.28,0,0,0,0,.09h0a.29.29,0,0,0,0,.09h0a.38.38,0,0,0,0,.1h0a.29.29,0,0,0,0,.09h0a.28.28,0,0,0,0,.09h0a.29.29,0,0,0,0,.09h0a.38.38,0,0,0,0,.1h0a.29.29,0,0,0,0,.09h0a.29.29,0,0,0,0,.09h0a.29.29,0,0,0,0,.09h0a.29.29,0,0,0,0,.09v0a.29.29,0,0,0,0,.09h0a.29.29,0,0,0,0,.09h0a.29.29,0,0,0,0,.09h0a.29.29,0,0,0,0,.09v0s0,.06,0,.09h0a.29.29,0,0,0,0,.09h0s0,.06,0,.09h0a.29.29,0,0,0,0,.09v0s0,.06,0,.09h0a.29.29,0,0,0,0,.09h0s0,.06,0,.09h0a.29.29,0,0,0,0,.09h0a.31.31,0,0,0,0,.1h0a.29.29,0,0,0,0,.09h0a.28.28,0,0,0,0,.09h0a.29.29,0,0,0,0,.09h0a.31.31,0,0,0,0,.1h0a.29.29,0,0,0,0,.09h0a.28.28,0,0,0,0,.09h0a.29.29,0,0,0,0,.09h0a.3.3,0,0,0,0,.1h0a.29.29,0,0,0,0,.09h0a.29.29,0,0,0,0,.09h0a.29.29,0,0,0,0,.09h0a.3.3,0,0,0,0,.1h0a.29.29,0,0,0,0,.09h0a.29.29,0,0,0,0,.09h0a.29.29,0,0,0,0,.09h0a.36.36,0,0,0,0,.1h0s0,.06,0,.09h0a.29.29,0,0,0,0,.09h0s0,.06,0,.09h0a.36.36,0,0,0,0,.1h0s0,.06,0,.09h0a.29.29,0,0,0,0,.09h0a.28.28,0,0,0,0,.09h0a.36.36,0,0,0,0,.1h0a.28.28,0,0,0,0,.09h0a.29.29,0,0,0,0,.09h0a.28.28,0,0,0,0,.09h0a.36.36,0,0,0,0,.1h0a.28.28,0,0,0,0,.09h0a.29.29,0,0,0,0,.09h0a.28.28,0,0,0,0,.09h0a.44.44,0,0,0,0,.1h0a.29.29,0,0,0,0,.09h0a.29.29,0,0,0,0,.09h0a.29.29,0,0,0,0,.09h0a.44.44,0,0,0,0,.1h0a.3.3,0,0,0,0,.1h0a.29.29,0,0,0,0,.09h0a.29.29,0,0,0,0,.09h0s0,.06,0,.1h0a.3.3,0,0,0,0,.1h0s0,.06,0,.09h0a.29.29,0,0,0,0,.09h0s0,.06,0,.1h0a.3.3,0,0,0,0,.1h0s0,.06,0,.09h0a.29.29,0,0,0,0,.09h0a.38.38,0,0,0,0,.1h0a.3.3,0,0,0,0,.1h0a.28.28,0,0,0,0,.09h0a.29.29,0,0,0,0,.09h0a.38.38,0,0,0,0,.1h0a.3.3,0,0,0,0,.1h0a.28.28,0,0,0,0,.09h0a.29.29,0,0,0,0,.09h0a.38.38,0,0,0,0,.1h0a.3.3,0,0,0,0,.1h0a.29.29,0,0,0,0,.09h0a.29.29,0,0,0,0,.09h0a.44.44,0,0,0,0,.1h0a.36.36,0,0,0,0,.1h0a.29.29,0,0,0,0,.09h0a.29.29,0,0,0,0,.09h0a.29.29,0,0,0,0,.09h0s0,.07,0,.1h0a.29.29,0,0,0,0,.09h0s0,.06,0,.09h0a.29.29,0,0,0,0,.09h0s0,.07,0,.1h0a.29.29,0,0,0,0,.09h0a.28.28,0,0,0,0,.09h0v0h0a.08.08,0,0,0,0,.05v0s0,.05,0,.08v0s0,.05,0,.08v0s0,.05,0,.07v0a.21.21,0,0,0,0,.07s0,0,0,0,0,.05,0,.08,0,0,0,0,0,0,0,.08a0,0,0,0,0,0,0s0,.05,0,.07,0,0,0,0a.21.21,0,0,0,0,.07,0,0,0,0,0,0,0,.24.24,0,0,0,0,.08v0s0,.05,0,.08,0,0,0,0a.21.21,0,0,0,0,.07v0s0,.05,0,.07v0a.15.15,0,0,0,0,.07v0s0,0,0,.08v0a.21.21,0,0,0,0,.07v0s0,.05,0,.07,0,0,0,0a.15.15,0,0,0,0,.07v0s0,.05,0,.08v0s0,0,0,.07,0,0,0,0,0,0,0,.07v0a.15.15,0,0,0,0,.07v0s0,.05,0,.08,0,0,0,0,0,0,0,.07v0s0,.05,0,.07v0a.15.15,0,0,0,0,.07v0s0,.05,0,.08v0s0,0,0,.07v0s0,.05,0,.07v0a.15.15,0,0,0,0,.07,0,0,0,0,0,0,0s0,.05,0,.08v0s0,0,0,.07a0,0,0,0,0,0,0,.19.19,0,0,0,0,.07s0,0,0,0,0,.05,0,.07v0a.24.24,0,0,0,0,.08v0s0,.05,0,.08,0,0,0,0a.21.21,0,0,0,0,.07v0s0,.05,0,.07v0s0,.05,0,.08,0,0,0,0,0,0,0,.08v0a.21.21,0,0,0,0,.07v0s0,.05,0,.07,0,0,0,0,0,0,0,.08v0s0,.05,0,.08,0,0,0,0a.21.21,0,0,0,0,.07s0,0,0,0,0,0,0,.07v0s0,.05,0,.08,0,0,0,0,0,.05,0,.08,0,0,0,0a.21.21,0,0,0,0,.07v0s0,.05,0,.07v0s0,.05,0,.08v0s0,.05,0,.08v0a.21.21,0,0,0,0,.07,0,0,0,0,0,0,0s0,0,0,.07v0s0,.05,0,.08,0,0,0,0a.24.24,0,0,0,0,.08s0,0,0,0,0,0,0,.07v0a.19.19,0,0,0,0,.07s0,0,0,0,0,.05,0,.08v0a.24.24,0,0,0,0,.08v0s0,.05,0,.07v0a.21.21,0,0,0,0,.07v0s0,.05,0,.07v0s0,.05,0,.08v0s0,0,0,.07v0a.21.21,0,0,0,0,.07s0,0,0,0,0,.05,0,.07,0,0,0,0,0,0,0,.08v0s0,0,0,.07,0,0,0,0a.21.21,0,0,0,0,.07s0,0,0,0,0,0,0,.07v0s0,.05,0,.08a0,0,0,0,1,0,0s0,.05,0,.08v0c0,1.3,6.57,2.35,14.68,2.35s14.67-1.05,14.67-2.35v0s0-.05,0-.08v0s0,0,0-.08v0s0,0,0-.07a0,0,0,0,0,0,0,.21.21,0,0,0,0-.07s0,0,0,0,0,0,0-.07v0s0-.05,0-.08,0,0,0,0,0,0,0-.07,0,0,0,0a.21.21,0,0,0,0-.07v0s0-.05,0-.07v0s0-.05,0-.08v0s0,0,0-.07v0a.21.21,0,0,0,0-.07v0s0,0,0-.07v0s0-.05,0-.08v0s0-.05,0-.08,0,0,0,0a.21.21,0,0,0,0-.07v0s0-.05,0-.07,0,0,0,0,0-.05,0-.08v0s0-.05,0-.08v0a.19.19,0,0,0,0-.07v0s0-.05,0-.07v0a.24.24,0,0,0,0-.08v0s0-.05,0-.08v0a.19.19,0,0,0,0-.07,0,0,0,0,0,0,0,.21.21,0,0,0,0-.07s0,0,0,0,0-.05,0-.08v0s0,0,0-.08v0s0-.05,0-.07,0,0,0,0a.21.21,0,0,0,0-.07s0,0,0,0,0,0,0-.08v0s0-.05,0-.08,0,0,0,0,0-.05,0-.07v0a.21.21,0,0,0,0-.07v0s0-.05,0-.08,0,0,0,0,0,0,0-.08v0s0-.05,0-.07v0a.21.21,0,0,0,0-.07s0,0,0,0,0,0,0-.08v0s0-.05,0-.08v0s0-.05,0-.07,0,0,0,0a.21.21,0,0,0,0-.07v0s0-.05,0-.07v0s0-.05,0-.08,0,0,0,0,0,0,0-.07v0a.19.19,0,0,0,0-.07v0s0-.05,0-.07v0a.24.24,0,0,0,0-.08,0,0,0,0,0,0,0,.15.15,0,0,0,0-.07v0s0-.05,0-.07a0,0,0,0,0,0,0s0-.05,0-.07,0,0,0,0,0-.05,0-.08v0a.15.15,0,0,0,0-.07v0s0-.05,0-.07,0,0,0,0,0-.05,0-.07v0s0-.05,0-.08v0a.15.15,0,0,0,0-.07s0,0,0,0,0-.05,0-.07v0a.21.21,0,0,0,0-.07v0s0-.05,0-.08v0a.15.15,0,0,0,0-.07v0s0-.05,0-.07v0a.21.21,0,0,0,0-.07s0,0,0,0,0,0,0-.08v0s0-.05,0-.08,0,0,0,0,0-.05,0-.07,0,0,0,0a.21.21,0,0,0,0-.07v0s0-.05,0-.08,0,0,0,0,0-.05,0-.08,0,0,0,0,0,0,0-.07v0a.19.19,0,0,0,0-.07,0,0,0,0,0,0,0s0-.05,0-.08v0s0-.05,0-.08a0,0,0,0,0,0,0,.08.08,0,0,0,0-.05h0v0h0a.28.28,0,0,0,0-.09h0a.29.29,0,0,0,0-.09h0a.34.34,0,0,0,0-.1h0a.29.29,0,0,0,0-.09h0a.28.28,0,0,0,0-.09h0a.29.29,0,0,0,0-.09h0s0-.07,0-.1h0a.29.29,0,0,0,0-.09h0s0-.06,0-.09h0a.29.29,0,0,0,0-.09h0s0-.07,0-.1h0a.44.44,0,0,0,0-.1h0s0-.06,0-.09h0a.29.29,0,0,0,0-.09h0a.3.3,0,0,0,0-.1h0a.44.44,0,0,0,0-.1h0a.29.29,0,0,0,0-.09h0a.29.29,0,0,0,0-.09h0a.3.3,0,0,0,0-.1h0a.44.44,0,0,0,0-.1h0a.29.29,0,0,0,0-.09h0a.28.28,0,0,0,0-.09h0a.3.3,0,0,0,0-.1h0a.38.38,0,0,0,0-.1h0a.29.29,0,0,0,0-.09h0a.28.28,0,0,0,0-.09h0a.3.3,0,0,0,0-.1h0a.38.38,0,0,0,0-.1h0a.29.29,0,0,0,0-.09h0a.28.28,0,0,0,0-.09h0a.3.3,0,0,0,0-.1h0s0-.07,0-.1h0a.29.29,0,0,0,0-.09h0s0-.06,0-.09h0a.3.3,0,0,0,0-.1h0s0-.07,0-.1h0a.29.29,0,0,0,0-.09h0s0-.06,0-.09h0a.29.29,0,0,0,0-.09h0a.44.44,0,0,0,0-.1h0a.29.29,0,0,0,0-.09h0a.29.29,0,0,0,0-.09h0a.29.29,0,0,0,0-.09h0a.36.36,0,0,0,0-.1h0a.29.29,0,0,0,0-.09h0a.29.29,0,0,0,0-.09h0a.28.28,0,0,0,0-.09h0a.36.36,0,0,0,0-.1h0a.28.28,0,0,0,0-.09h0a.29.29,0,0,0,0-.09h0a.28.28,0,0,0,0-.09h0a.36.36,0,0,0,0-.1h0a.28.28,0,0,0,0-.09h0a.29.29,0,0,0,0-.09h0s0-.06,0-.09h0a.36.36,0,0,0,0-.1h0s0-.06,0-.09h0a.29.29,0,0,0,0-.09h0s0-.06,0-.09h0a.36.36,0,0,0,0-.1h0s0-.06,0-.09h0a.29.29,0,0,0,0-.09h0a.29.29,0,0,0,0-.09h0a.3.3,0,0,0,0-.1h0a.29.29,0,0,0,0-.09h0a.29.29,0,0,0,0-.09h0a.29.29,0,0,0,0-.09h0a.3.3,0,0,0,0-.1h0a.29.29,0,0,0,0-.09h0a.28.28,0,0,0,0-.09h0a.29.29,0,0,0,0-.09h0a.31.31,0,0,0,0-.1h0a.29.29,0,0,0,0-.09h0a.28.28,0,0,0,0-.09h0a.29.29,0,0,0,0-.09h0a.28.28,0,0,0,0-.09v0a.29.29,0,0,0,0-.09h0a.28.28,0,0,0,0-.09h0a.29.29,0,0,0,0-.09h0s0-.06,0-.09v0a.29.29,0,0,0,0-.09h0s0-.06,0-.09h0a.29.29,0,0,0,0-.09h0s0-.06,0-.09v0a.29.29,0,0,0,0-.09h0a.29.29,0,0,0,0-.09h0a.29.29,0,0,0,0-.09h0a.29.29,0,0,0,0-.09h0a.44.44,0,0,0,0-.1h0a.29.29,0,0,0,0-.09h0a.29.29,0,0,0,0-.09h0a.29.29,0,0,0,0-.09h0a.44.44,0,0,0,0-.1h0a.29.29,0,0,0,0-.09h0a.28.28,0,0,0,0-.09h0a.29.29,0,0,0,0-.09h0a.34.34,0,0,0,0-.1h0a.29.29,0,0,0,0-.09h0a.28.28,0,0,0,0-.09h0a.29.29,0,0,0,0-.09h0a.31.31,0,0,0,0-.1h0a.29.29,0,0,0,0-.09h0s0-.06,0-.09h0a.29.29,0,0,0,0-.09h0s0-.06,0-.1h0a.29.29,0,0,0,0-.09h0s0-.06,0-.09h0a.29.29,0,0,0,0-.09h0s0-.06,0-.09v0a.29.29,0,0,0,0-.09h0a.29.29,0,0,0,0-.09h0a.29.29,0,0,0,0-.09h0a.29.29,0,0,0,0-.09v0a.29.29,0,0,0,0-.09h0a.29.29,0,0,0,0-.09h0a.29.29,0,0,0,0-.09h0a.29.29,0,0,0,0-.09v0a.29.29,0,0,0,0-.09h0a.29.29,0,0,0,0-.09h0a.28.28,0,0,0,0-.09h0a.29.29,0,0,0,0-.09v0a.28.28,0,0,0,0-.09h0a.29.29,0,0,0,0-.09h0a.28.28,0,0,0,0-.09h0a.29.29,0,0,0,0-.09v0a.28.28,0,0,0,0-.09h0a.29.29,0,0,0,0-.09h0s0-.06,0-.09h0a.29.29,0,0,0,0-.09v0s0-.06,0-.09h0a.29.29,0,0,0,0-.09h0s0-.06,0-.09h0a.29.29,0,0,0,0-.09v0a.29.29,0,0,0,0-.09h0a.29.29,0,0,0,0-.09h0a.29.29,0,0,0,0-.09h0a.29.29,0,0,0,0-.09v0a.29.29,0,0,0,0-.09h0a.29.29,0,0,0,0-.09h0a.29.29,0,0,0,0-.09h0a.29.29,0,0,0,0-.09v0a.29.29,0,0,0,0-.09h0a.29.29,0,0,0,0-.09h0a.29.29,0,0,0,0-.09h0a.28.28,0,0,0,0-.09v0a.24.24,0,0,0,0-.08v0a.28.28,0,0,0,0-.09h0a.29.29,0,0,0,0-.09h0a.28.28,0,0,0,0-.09v0a.19.19,0,0,0,0-.08v0s0-.06,0-.09h0a.29.29,0,0,0,0-.09h0s0-.06,0-.09v0a.19.19,0,0,0,0-.08v0s0-.06,0-.09h0a.29.29,0,0,0,0-.09h0s0-.06,0-.09h0a.29.29,0,0,0,0-.09v0a.29.29,0,0,0,0-.09h0a.29.29,0,0,0,0-.09h0a.29.29,0,0,0,0-.09h0a.29.29,0,0,0,0-.09v0a.29.29,0,0,0,0-.09h0a.29.29,0,0,0,0-.09h0a.29.29,0,0,0,0-.09h0a.29.29,0,0,0,0-.09v0a.29.29,0,0,0,0-.09h0a.29.29,0,0,0,0-.09h0a.29.29,0,0,0,0-.09h0a.28.28,0,0,0,0-.09v0a.29.29,0,0,0,0-.09h0a.28.28,0,0,0,0-.09h0a.29.29,0,0,0,0-.09h0a.28.28,0,0,0,0-.09v0a.29.29,0,0,0,0-.09h0s0-.06,0-.09h0a.29.29,0,0,0,0-.09h0s0-.06,0-.09v0a.29.29,0,0,0,0-.09h0s0-.06,0-.09h0a.29.29,0,0,0,0-.09h0a.29.29,0,0,0,0-.09v0a.31.31,0,0,0,0-.08v0a.29.29,0,0,0,0-.09h0a.29.29,0,0,0,0-.09h0a.29.29,0,0,0,0-.09v0a.24.24,0,0,0,0-.08v0a.29.29,0,0,0,0-.09h0a.29.29,0,0,0,0-.09h0a.29.29,0,0,0,0-.09v0a.24.24,0,0,0,0-.08v0a.29.29,0,0,0,0-.09h0a.29.29,0,0,0,0-.09h0a.29.29,0,0,0,0-.09v0a.22.22,0,0,0,0-.08v0a.29.29,0,0,0,0-.09h0a.28.28,0,0,0,0-.09h0a.29.29,0,0,0,0-.09v0s0-.05,0-.08v0a.29.29,0,0,0,0-.09h0s0-.06,0-.09h0a.29.29,0,0,0,0-.09v0s0,0,0-.08v0a.29.29,0,0,0,0-.09h0s0-.06,0-.09h0a.29.29,0,0,0,0-.09v0a.19.19,0,0,0,0-.08v0a.29.29,0,0,0,0-.09h0a.29.29,0,0,0,0-.09h0a.29.29,0,0,0,0-.09v0a.19.19,0,0,0,0-.08v0a.29.29,0,0,0,0-.09h0a.29.29,0,0,0,0-.09h0a.29.29,0,0,0,0-.09v0a.19.19,0,0,0,0-.08v0a.31.31,0,0,0,0-.08v0a.29.29,0,0,0,0-.09h0a.29.29,0,0,0,0-.09h0a.29.29,0,0,0,0-.09v0a.25.25,0,0,0,0-.08v0a.29.29,0,0,0,0-.09h0a.28.28,0,0,0,0-.09h0a.29.29,0,0,0,0-.09v0s0-.06,0-.08v0a.29.29,0,0,0,0-.09h0s0-.06,0-.09h0a.29.29,0,0,0,0-.09v0s0,0,0-.08v0a.29.29,0,0,0,0-.09h0a.29.29,0,0,0,0-.09h0a.29.29,0,0,0,0-.09v0a.24.24,0,0,0,0-.08v0a.29.29,0,0,0,0-.09h0a.29.29,0,0,0,0-.09h0a.29.29,0,0,0,0-.09v0a.24.24,0,0,0,0-.08v0a.29.29,0,0,0,0-.09h0a.29.29,0,0,0,0-.09h0a.29.29,0,0,0,0-.09v0a.24.24,0,0,0,0-.08v0a.29.29,0,0,0,0-.09h0a.29.29,0,0,0,0-.09h0a.29.29,0,0,0,0-.09v0a.24.24,0,0,0,0-.08v0a.28.28,0,0,0,0-.09h0a.29.29,0,0,0,0-.09h0s0-.06,0-.09v0a.19.19,0,0,0,0-.08v0s0-.06,0-.09h0a.29.29,0,0,0,0-.09h0s0-.06,0-.09v0a.19.19,0,0,0,0-.08v0s0-.06,0-.08v0a.29.29,0,0,0,0-.09h0a.29.29,0,0,0,0-.09v0a.19.19,0,0,0,0-.08v0a.31.31,0,0,0,0-.08v0a.29.29,0,0,0,0-.09h0a.29.29,0,0,0,0-.09v0a.19.19,0,0,0,0-.08v0a.31.31,0,0,0,0-.08v0a.29.29,0,0,0,0-.09h0a.29.29,0,0,0,0-.09v0a.19.19,0,0,0,0-.08v0a.31.31,0,0,0,0-.08v0a.29.29,0,0,0,0-.09h0a.29.29,0,0,0,0-.09v0a.19.19,0,0,0,0-.08v0a.24.24,0,0,0,0-.08v0s0-.06,0-.09h0a.29.29,0,0,0,0-.09v0s0,0,0-.08v0a.24.24,0,0,0,0-.08v0s0-.06,0-.09h0a.29.29,0,0,0,0-.09v0s0-.05,0-.08v0a.24.24,0,0,0,0-.08v0a.29.29,0,0,0,0-.09h0a.29.29,0,0,0,0-.09h0a.29.29,0,0,0,0-.09v0a.24.24,0,0,0,0-.08v0a.29.29,0,0,0,0-.09h0a.29.29,0,0,0,0-.09h0a.29.29,0,0,0,0-.09v0a.24.24,0,0,0,0-.08s0,0,0,0a.29.29,0,0,0,0-.09h0a.29.29,0,0,0,0-.09h0a.29.29,0,0,0,0-.09v0a.24.24,0,0,0,0-.08v0a.31.31,0,0,0,0-.08v0a.29.29,0,0,0,0-.09h0a.29.29,0,0,0,0-.09v0a.22.22,0,0,0,0-.08v0a.31.31,0,0,0,0-.08v0s0-.06,0-.09h0a.29.29,0,0,0,0-.09v0s0,0,0-.08v0a.31.31,0,0,0,0-.08v0s0-.06,0-.09h0a.29.29,0,0,0,0-.09v0a.19.19,0,0,0,0-.08v0a.31.31,0,0,0,0-.08v0a.29.29,0,0,0,0-.09h0a.29.29,0,0,0,0-.09v0a.19.19,0,0,0,0-.08v0a.31.31,0,0,0,0-.08v0a.29.29,0,0,0,0-.09h0a.29.29,0,0,0,0-.09v0a.19.19,0,0,0,0-.08v0a.24.24,0,0,0,0-.08v0a.29.29,0,0,0,0-.09h0a.29.29,0,0,0,0-.09v0a.19.19,0,0,0,0-.08v0a.24.24,0,0,0,0-.08v0a.29.29,0,0,0,0-.09h0a.29.29,0,0,0,0-.09v0a.19.19,0,0,0,0-.08v0s0-.05,0-.08v0a.29.29,0,0,0,0-.09h0s0-.06,0-.09v0a.19.19,0,0,0,0-.08v0s0,0,0-.08v0a.31.31,0,0,0,0-.08v0s0-.06,0-.09v0a.19.19,0,0,0,0-.08v0a.24.24,0,0,0,0-.08v0a.31.31,0,0,0,0-.08v0a.29.29,0,0,0,0-.09v0a.19.19,0,0,0,0-.08s0,0,0,0a.24.24,0,0,0,0-.08v0a.31.31,0,0,0,0-.08v0a.29.29,0,0,0,0-.09h0a.29.29,0,0,0,0-.09v0a.24.24,0,0,0,0-.08v0a.31.31,0,0,0,0-.08v0a.29.29,0,0,0,0-.09h0a.29.29,0,0,0,0-.09v0a.24.24,0,0,0,0-.08v0a.31.31,0,0,0,0-.08v0a.29.29,0,0,0,0-.09h0a.29.29,0,0,0,0-.09v0a.19.19,0,0,0,0-.08v0s0-.06,0-.08v0a.29.29,0,0,0,0-.09h0s0-.06,0-.09v0a.19.19,0,0,0,0-.08v0s0-.06,0-.08v0a.29.29,0,0,0,0-.09h0a.29.29,0,0,0,0-.09v0a.19.19,0,0,0,0-.08v0a.24.24,0,0,0,0-.08v0a.29.29,0,0,0,0-.09h0a.29.29,0,0,0,0-.09v0a.19.19,0,0,0,0-.08s0,0,0,0a.24.24,0,0,0,0-.08v0a.29.29,0,0,0,0-.09h0a.29.29,0,0,0,0-.09v0a.19.19,0,0,0,0-.08v0a.24.24,0,0,0,0-.08v0a.31.31,0,0,0,0-.08v0a.29.29,0,0,0,0-.09v0a.19.19,0,0,0,0-.08s0,0,0,0a.24.24,0,0,0,0-.08v0a.31.31,0,0,0,0-.08v0a.29.29,0,0,0,0-.09v0s0-.05,0-.08v0a.24.24,0,0,0,0-.08v0s0-.06,0-.08v0a.29.29,0,0,0,0-.09v0s0-.05,0-.08v0a.24.24,0,0,0,0-.08v0a.31.31,0,0,0,0-.08v0a.29.29,0,0,0,0-.09v0a.19.19,0,0,0,0-.08v0a.24.24,0,0,0,0-.08v0a.31.31,0,0,0,0-.08v0a.29.29,0,0,0,0-.09v0a.19.19,0,0,0,0-.08v0a.24.24,0,0,0,0-.08s0,0,0,0a.31.31,0,0,0,0-.08v0a.29.29,0,0,0,0-.09v0a.19.19,0,0,0,0-.08v0a.24.24,0,0,0,0-.08v0a.31.31,0,0,0,0-.08v0a.29.29,0,0,0,0-.09h0a.29.29,0,0,0,0-.09v0a.19.19,0,0,0,0-.08s0,0,0,0a.24.24,0,0,0,0-.08v0a.29.29,0,0,0,0-.09h0a.29.29,0,0,0,0-.09v0s0-.05,0-.08v0a.24.24,0,0,0,0-.08v0s0-.06,0-.09h0a.29.29,0,0,0,0-.09v0s0-.05,0-.08v0a.24.24,0,0,0,0-.08s0,0,0,0a.31.31,0,0,0,0-.08v0a.29.29,0,0,0,0-.09v0a.19.19,0,0,0,0-.08v0a.24.24,0,0,0,0-.08v0a.31.31,0,0,0,0-.08v0a.29.29,0,0,0,0-.09v0a.19.19,0,0,0,0-.08v0a.24.24,0,0,0,0-.08s0,0,0,0a.31.31,0,0,0,0-.08v0a.29.29,0,0,0,0-.09v0a.19.19,0,0,0,0-.08v0a.24.24,0,0,0,0-.08v0a.31.31,0,0,0,0-.08v0a.29.29,0,0,0,0-.09,0,0,0,0,1,0,0,.19.19,0,0,0,0-.08v0a.24.24,0,0,0,0-.08s0,0,0,0a.31.31,0,0,0,0-.08v0s0-.06,0-.09v0a.19.19,0,0,0,0-.08v0s0,0,0-.08v0a.31.31,0,0,0,0-.08v0s0-.06,0-.09v0a.19.19,0,0,0,0-.08v0a.24.24,0,0,0,0-.08v0a.31.31,0,0,0,0-.08s0,0,0,0a.29.29,0,0,0,0-.09v0a.19.19,0,0,0,0-.08v0a.24.24,0,0,0,0-.08v0a.31.31,0,0,0,0-.08v0a.29.29,0,0,0,0-.09v0a.19.19,0,0,0,0-.08Z" transform="translate(-42.15 -305.58)"/><path class="cls-7" d="M61,400.56a.19.19,0,0,0,0,.08v0a.29.29,0,0,0,0,.09v0a.31.31,0,0,0,0,.08v0a.24.24,0,0,0,0,.08v0a.19.19,0,0,0,0,.08v0a.29.29,0,0,0,0,.09v0a.31.31,0,0,0,0,.08v0a.24.24,0,0,0,0,.08v0a.19.19,0,0,0,0,.08v0a.29.29,0,0,0,0,.09v0a.31.31,0,0,0,0,.08v0a.24.24,0,0,0,0,.08s0,0,0,0a.19.19,0,0,0,0,.08v0a.29.29,0,0,0,0,.09s0,0,0,0a.31.31,0,0,0,0,.08v0s0,0,0,.08v0a.19.19,0,0,0,0,.08,0,0,0,0,1,0,0s0,.06,0,.09v0a.31.31,0,0,0,0,.08v0a.24.24,0,0,0,0,.08v0a.19.19,0,0,0,0,.08v0a.29.29,0,0,0,0,.09v0a.31.31,0,0,0,0,.08s0,0,0,0a.24.24,0,0,0,0,.08v0a.19.19,0,0,0,0,.08v0a.29.29,0,0,0,0,.09v0a.31.31,0,0,0,0,.08v0a.24.24,0,0,0,0,.08v0a.19.19,0,0,0,0,.08v0a.29.29,0,0,0,0,.09v0a.31.31,0,0,0,0,.08v0a.24.24,0,0,0,0,.08v0a.19.19,0,0,0,0,.08v0a.29.29,0,0,0,0,.09h0a.29.29,0,0,0,0,.09v0a.24.24,0,0,0,0,.08v0a.19.19,0,0,0,0,.08,0,0,0,0,0,0,0,.29.29,0,0,0,0,.09h0s0,.06,0,.09v0a.24.24,0,0,0,0,.08v0s0,.06,0,.08v0a.29.29,0,0,0,0,.09h0s0,.06,0,.09v0a.31.31,0,0,0,0,.08v0a.24.24,0,0,0,0,.08v0a.19.19,0,0,0,0,.08v0a.29.29,0,0,0,0,.09v0a.31.31,0,0,0,0,.08s0,0,0,0a.24.24,0,0,0,0,.08v0a.19.19,0,0,0,0,.08v0a.29.29,0,0,0,0,.09v0a.31.31,0,0,0,0,.08v0a.24.24,0,0,0,0,.08v0a.19.19,0,0,0,0,.08v0a.29.29,0,0,0,0,.09v0a.31.31,0,0,0,0,.08s0,0,0,0a.24.24,0,0,0,0,.08v0a.19.19,0,0,0,0,.08v0a.29.29,0,0,0,0,.09v0a.31.31,0,0,0,0,.08v0a.24.24,0,0,0,0,.08v0s0,.06,0,.08v0a.29.29,0,0,0,0,.09v0s0,.05,0,.08v0a.24.24,0,0,0,0,.08v0s0,.06,0,.08v0a.29.29,0,0,0,0,.09v0a.31.31,0,0,0,0,.08v0a.24.24,0,0,0,0,.08v0a.19.19,0,0,0,0,.08v0a.29.29,0,0,0,0,.09h0a.29.29,0,0,0,0,.09v0a.24.24,0,0,0,0,.08s0,0,0,0a.19.19,0,0,0,0,.08v0a.29.29,0,0,0,0,.09h0a.29.29,0,0,0,0,.09v0a.24.24,0,0,0,0,.08v0a.24.24,0,0,0,0,.08,19.51,19.51,0,0,1,4.54-2,12.88,12.88,0,0,1,7.38,0,12.23,12.23,0,0,1,3.56,1.77c.52.39,1,.79,1.51,1.22a8.08,8.08,0,0,0,1.18,1L80,410.3c.13.1.27.19.41.28l.27.15h.17l.27-.07.54-.17c-.79.25.07,0,.22-.12s.52-.27.77-.42A21.55,21.55,0,0,1,89,407a15.13,15.13,0,0,1,13.25,3.69l1.3,1.11a.17.17,0,0,0,0-.07v0a.29.29,0,0,0,0-.09h0s0-.06,0-.09v0a.19.19,0,0,0,0-.08v0s0,0,0-.08v0a.31.31,0,0,0,0-.08v0s0-.06,0-.09v0a.19.19,0,0,0,0-.08v0a.24.24,0,0,0,0-.08v0a.31.31,0,0,0,0-.08v0a.29.29,0,0,0,0-.09v0a.19.19,0,0,0,0-.08s0,0,0,0a.24.24,0,0,0,0-.08v0a.31.31,0,0,0,0-.08v0a.29.29,0,0,0,0-.09h0a.29.29,0,0,0,0-.09v0a.24.24,0,0,0,0-.08v0a.31.31,0,0,0,0-.08v0a.29.29,0,0,0,0-.09h0a.29.29,0,0,0,0-.09v0a.24.24,0,0,0,0-.08v0a.31.31,0,0,0,0-.08v0a.29.29,0,0,0,0-.09h0a.29.29,0,0,0,0-.09v0a.19.19,0,0,0,0-.08v0s0-.06,0-.08v0a.29.29,0,0,0,0-.09h0s0-.06,0-.09v0a.19.19,0,0,0,0-.08v0s0-.06,0-.08v0a.29.29,0,0,0,0-.09h0a.29.29,0,0,0,0-.09v0a.19.19,0,0,0,0-.08v0a.24.24,0,0,0,0-.08v0a.29.29,0,0,0,0-.09h0a.29.29,0,0,0,0-.09v0a.19.19,0,0,0,0-.08s0,0,0,0a.24.24,0,0,0,0-.08v0a.29.29,0,0,0,0-.09h0a.29.29,0,0,0,0-.09v0a.19.19,0,0,0,0-.08v0a.24.24,0,0,0,0-.08v0a.31.31,0,0,0,0-.08v0a.29.29,0,0,0,0-.09v0a.19.19,0,0,0,0-.08s0,0,0,0a.24.24,0,0,0,0-.08v0a.31.31,0,0,0,0-.08v0a.29.29,0,0,0,0-.09v0s0-.05,0-.08v0a.24.24,0,0,0,0-.08v0s0-.06,0-.08v0a.29.29,0,0,0,0-.09v0s0-.05,0-.08v0a.24.24,0,0,0,0-.08v0a.31.31,0,0,0,0-.08v0a.29.29,0,0,0,0-.09v0a.19.19,0,0,0,0-.08v0a.24.24,0,0,0,0-.08v0a.31.31,0,0,0,0-.08v0a.29.29,0,0,0,0-.09v0a.19.19,0,0,0,0-.08v0a.24.24,0,0,0,0-.08s0,0,0,0a.31.31,0,0,0,0-.08v0a.29.29,0,0,0,0-.09v0a.19.19,0,0,0,0-.08v0a.24.24,0,0,0,0-.08v0a.31.31,0,0,0,0-.08v0a.29.29,0,0,0,0-.09h0a.29.29,0,0,0,0-.09v0a.19.19,0,0,0,0-.08s0,0,0,0a.24.24,0,0,0,0-.08v0a.29.29,0,0,0,0-.09h0a.29.29,0,0,0,0-.09v0s0-.05,0-.08v0a.24.24,0,0,0,0-.08v0s0-.06,0-.09h0a.29.29,0,0,0,0-.09v0s0-.05,0-.08v0a.24.24,0,0,0,0-.08s0,0,0,0a.31.31,0,0,0,0-.08v0a.29.29,0,0,0,0-.09v0a.19.19,0,0,0,0-.08v0a.24.24,0,0,0,0-.08v0a.31.31,0,0,0,0-.08v0a.29.29,0,0,0,0-.09v0a.19.19,0,0,0,0-.08v0a.24.24,0,0,0,0-.08s0,0,0,0a.31.31,0,0,0,0-.08v0a.29.29,0,0,0,0-.09v0a.19.19,0,0,0,0-.08v0a.24.24,0,0,0,0-.08v0a.31.31,0,0,0,0-.08v0a.29.29,0,0,0,0-.09,0,0,0,0,1,0,0,.19.19,0,0,0,0-.08v0a.24.24,0,0,0,0-.08s0,0,0,0a.31.31,0,0,0,0-.08v0s0-.06,0-.09v0a.19.19,0,0,0,0-.08v0s0,0,0-.08v0a.31.31,0,0,0,0-.08v0s0-.06,0-.09v0a.19.19,0,0,0,0-.08v0a.24.24,0,0,0,0-.08v0a.31.31,0,0,0,0-.08s0,0,0,0a.29.29,0,0,0,0-.09v0a.19.19,0,0,0,0-.08v0a.24.24,0,0,0,0-.08v0a.31.31,0,0,0,0-.08v0a.29.29,0,0,0,0-.09v0a.19.19,0,0,0,0-.08v0a.24.24,0,0,0,0-.08c0-1.3-9.89-2.35-22.08-2.35S61,399.16,61,400.46a.24.24,0,0,0,0,.08Z" transform="translate(-42.15 -305.58)"/><path class="cls-7" d="M102.58,418.27a16.74,16.74,0,0,1-3.16-1.8c-.61-.43-1.21-.87-1.82-1.28a16.7,16.7,0,0,0-1.57-.94c-.1-.06-.4-.19-.48-.23s-.42-.16-.64-.22a10.84,10.84,0,0,0-1.39-.34s-.7,0-.81-.06h-.57c-.15,0-1,.12-.79.08l-.57.11-.84.25-.53.21c-2,1-3.72,2.47-5.87,3.27a7.81,7.81,0,0,1-7.39-1c-.6-.42-1.17-.89-1.73-1.36l-.59-.5-.1-.08a8,8,0,0,1-1-.65l-.15-.09-.1,0c-.19-.06-.37-.13-.56-.18a5.67,5.67,0,0,0-.81-.21H69.73a7.51,7.51,0,0,0-1.11.28c-.26.07-.53.16-.79.25l-.33.13-.61.28-.75.41c-.42.23-.83.48-1.24.74s-.8.53-1.2.81l-.41.3s0,0,0,.06v0a.29.29,0,0,0,0,.09h0s0,.06,0,.09v0a.24.24,0,0,0,0,.08v0s0,.06,0,.08v0a.29.29,0,0,0,0,.09h0s0,.06,0,.09v0a.31.31,0,0,0,0,.08v0a.19.19,0,0,0,0,.08v0a.29.29,0,0,0,0,.09h0a.29.29,0,0,0,0,.09v0a.31.31,0,0,0,0,.08v0a.19.19,0,0,0,0,.08v0a.29.29,0,0,0,0,.09h0a.29.29,0,0,0,0,.09v0a.31.31,0,0,0,0,.08v0a.19.19,0,0,0,0,.08v0a.29.29,0,0,0,0,.09h0a.29.29,0,0,0,0,.09v0a.31.31,0,0,0,0,.08v0a.19.19,0,0,0,0,.08v0a.29.29,0,0,0,0,.09h0a.29.29,0,0,0,0,.09h0a.29.29,0,0,0,0,.09v0a.19.19,0,0,0,0,.08v0s0,.06,0,.09h0a.29.29,0,0,0,0,.09h0s0,.06,0,.09v0a.24.24,0,0,0,0,.08v0s0,.06,0,.09h0a.29.29,0,0,0,0,.09h0s0,.06,0,.09v0a.24.24,0,0,0,0,.08v0a.28.28,0,0,0,0,.09h0a.29.29,0,0,0,0,.09h0a.29.29,0,0,0,0,.09v0a.24.24,0,0,0,0,.08v0a.29.29,0,0,0,0,.09h0a.29.29,0,0,0,0,.09h0a.29.29,0,0,0,0,.09v0a.24.24,0,0,0,0,.08v0a.29.29,0,0,0,0,.09h0a.29.29,0,0,0,0,.09h0a.29.29,0,0,0,0,.09v0a.24.24,0,0,0,0,.08v0a.29.29,0,0,0,0,.09h0a.29.29,0,0,0,0,.09h0a.29.29,0,0,0,0,.09v0a.31.31,0,0,0,0,.08v0a.29.29,0,0,0,0,.09h0s0,.06,0,.09h0a.29.29,0,0,0,0,.09v0s0,.05,0,.08v0a.29.29,0,0,0,0,.09h0s0,.06,0,.09h0a.29.29,0,0,0,0,.09v0a.25.25,0,0,0,0,.08v0a.19.19,0,0,0,0,.08v0a.28.28,0,0,0,0,.09h0a.29.29,0,0,0,0,.09h0a.29.29,0,0,0,0,.09v0a.19.19,0,0,0,0,.08v0a.29.29,0,0,0,0,.09h0a.29.29,0,0,0,0,.09h0a.29.29,0,0,0,0,.09v0a.19.19,0,0,0,0,.08v0a.29.29,0,0,0,0,.09h0a.29.29,0,0,0,0,.09h0a.29.29,0,0,0,0,.09v0a.19.19,0,0,0,0,.08v0a.29.29,0,0,0,0,.09h0a.29.29,0,0,0,0,.09h0a.29.29,0,0,0,0,.09v0s0,.06,0,.08v0a.29.29,0,0,0,0,.09h0s0,.06,0,.09h0a.29.29,0,0,0,0,.09v0s0,.05,0,.08v0a.29.29,0,0,0,0,.09h0s0,.06,0,.09h0a.29.29,0,0,0,0,.09v0a.22.22,0,0,0,0,.08v0a.29.29,0,0,0,0,.09h0a.28.28,0,0,0,0,.09h0s0,0,0,.07a11.31,11.31,0,0,1,5.4-1.47c2.38-.05,4.34,1,6.31,2.22h0l.37.12L77,426h.18a2.39,2.39,0,0,0,.36-.05c.31-.07.6-.19.91-.27l.07,0h0c.43-.18.85-.37,1.27-.57,3.5-1.65,7-3.77,10.94-3.79a12.32,12.32,0,0,1,6.11,1.77c.8.46,1.58.94,2.39,1.4l.09,0c.2,0,.39.11.59.16l.28.07h.15l.45,0a.43.43,0,0,1,.3,0l.36-.09.21-.07v0h0a.29.29,0,0,0,0-.09v0a.22.22,0,0,0,0-.08v0a.29.29,0,0,0,0-.09h0a.28.28,0,0,0,0-.09h0a.29.29,0,0,0,0-.09v0s0-.05,0-.08v0a.29.29,0,0,0,0-.09h0s0-.06,0-.09h0a.29.29,0,0,0,0-.09v0s0,0,0-.08v0a.29.29,0,0,0,0-.09h0s0-.06,0-.09h0a.29.29,0,0,0,0-.09v0a.19.19,0,0,0,0-.08v0a.29.29,0,0,0,0-.09h0a.29.29,0,0,0,0-.09h0a.29.29,0,0,0,0-.09v0a.19.19,0,0,0,0-.08v0a.29.29,0,0,0,0-.09h0a.29.29,0,0,0,0-.09h0a.29.29,0,0,0,0-.09v0a.19.19,0,0,0,0-.08v0a.31.31,0,0,0,0-.08v0a.29.29,0,0,0,0-.09h0a.29.29,0,0,0,0-.09h0a.29.29,0,0,0,0-.09v0a.25.25,0,0,0,0-.08v0a.29.29,0,0,0,0-.09h0a.28.28,0,0,0,0-.09h0a.29.29,0,0,0,0-.09v0s0-.06,0-.08v0a.29.29,0,0,0,0-.09h0s0-.06,0-.09h0a.29.29,0,0,0,0-.09v0s0,0,0-.08v0a.29.29,0,0,0,0-.09h0a.29.29,0,0,0,0-.09h0a.29.29,0,0,0,0-.09v0a.24.24,0,0,0,0-.08v0a.29.29,0,0,0,0-.09h0a.29.29,0,0,0,0-.09h0a.29.29,0,0,0,0-.09v0a.24.24,0,0,0,0-.08v0a.29.29,0,0,0,0-.09h0a.29.29,0,0,0,0-.09h0a.29.29,0,0,0,0-.09v0a.24.24,0,0,0,0-.08v0a.29.29,0,0,0,0-.09h0a.29.29,0,0,0,0-.09h0a.29.29,0,0,0,0-.09v0a.24.24,0,0,0,0-.08v0a.28.28,0,0,0,0-.09h0a.29.29,0,0,0,0-.09h0s0-.06,0-.09v0a.19.19,0,0,0,0-.08v0s0-.06,0-.09h0a.29.29,0,0,0,0-.09h0s0-.06,0-.09v0a.19.19,0,0,0,0-.08v0s0-.06,0-.08v0a.29.29,0,0,0,0-.09Z" transform="translate(-42.15 -305.58)"/><path class="cls-7" d="M100.59,432a7.13,7.13,0,0,1-.79-.05,13.87,13.87,0,0,1-6-2.26,11.59,11.59,0,0,0-1.28-.75l-.53-.26-.15,0-.56-.14-.28-.08a6.71,6.71,0,0,0-.86.05h-.26c-.16,0-.33.09-.46.12-.42.1-.83.22-1.24.35s-.71.27-1.06.4l-.67.3c-1.72.8-3.4,1.66-5.17,2.36a9.8,9.8,0,0,1-6.62.45,11,11,0,0,1-3.45-2.07l-.22-.17L70.7,430l-.45-.25-.1,0-.86-.22-.21,0c-.31,0-.62,0-.93,0s-.44,0-.66,0h-.07c-.39.06-.77.14-1.16.24s-.67.21-1,.34h0a.28.28,0,0,0,0,.09h0a.29.29,0,0,0,0,.09v0a.29.29,0,0,0,0,.09h0a.29.29,0,0,0,0,.09h0a.29.29,0,0,0,0,.09h0a.29.29,0,0,0,0,.09v0a.29.29,0,0,0,0,.09h0a.29.29,0,0,0,0,.09h0a.29.29,0,0,0,0,.09h0a.29.29,0,0,0,0,.09v0a.29.29,0,0,0,0,.09h0a.29.29,0,0,0,0,.09h0a.29.29,0,0,0,0,.09h0s0,.06,0,.09v0a.29.29,0,0,0,0,.09h0s0,.06,0,.09h0a.29.29,0,0,0,0,.09h0s0,.06,0,.09v0a.29.29,0,0,0,0,.09h0a.28.28,0,0,0,0,.09h0a.29.29,0,0,0,0,.09h0a.28.28,0,0,0,0,.09v0a.29.29,0,0,0,0,.09h0a.28.28,0,0,0,0,.09h0a.29.29,0,0,0,0,.09h0a.28.28,0,0,0,0,.09v0a.29.29,0,0,0,0,.09h0a.29.29,0,0,0,0,.09h0a.29.29,0,0,0,0,.09h0a.29.29,0,0,0,0,.09v0a.29.29,0,0,0,0,.09h0a.29.29,0,0,0,0,.09h0a.29.29,0,0,0,0,.09h0a.29.29,0,0,0,0,.09h0a.3.3,0,0,0,0,.1h0a.29.29,0,0,0,0,.09h0s0,.06,0,.09h0a.29.29,0,0,0,0,.09h0s0,.07,0,.1h0a.29.29,0,0,0,0,.09h0s0,.06,0,.09h0a.29.29,0,0,0,0,.09h0s0,.07,0,.1h0a.29.29,0,0,0,0,.09h0a.28.28,0,0,0,0,.09h0a.29.29,0,0,0,0,.09h0a.38.38,0,0,0,0,.1h0a.29.29,0,0,0,0,.09h0a.28.28,0,0,0,0,.09h0a.29.29,0,0,0,0,.09h0a.38.38,0,0,0,0,.1h0a.29.29,0,0,0,0,.09h0a.29.29,0,0,0,0,.09h0a.29.29,0,0,0,0,.09h0a.29.29,0,0,0,0,.09v0a.29.29,0,0,0,0,.09h0a.29.29,0,0,0,0,.09h0a.29.29,0,0,0,0,.09h0a.29.29,0,0,0,0,.09v0s0,.06,0,.09h0a.29.29,0,0,0,0,.09h0s0,.06,0,.09h0a.29.29,0,0,0,0,.09v0s0,.06,0,.09h0a.29.29,0,0,0,0,.09h0s0,.06,0,.09h0a.29.29,0,0,0,0,.09h0a.31.31,0,0,0,0,.1h0a.29.29,0,0,0,0,.09h0a.28.28,0,0,0,0,.09h0a.29.29,0,0,0,0,.09h0v0a11.7,11.7,0,0,1,3.42-.91,9.44,9.44,0,0,1,4.32.47,8.34,8.34,0,0,1,3,1.91c.27.27.51.55.78.81l.08.08s0,0,.17.11l.21.06.36-.07h0l.12-.06c.16-.09.32-.18.47-.28s1.21-.86.55-.35a18.35,18.35,0,0,1,5.69-3.3,9.8,9.8,0,0,1,6.75.3,15.18,15.18,0,0,1,2.74,1.57c.34.23.68.46,1,.67l.47.26,0,0,.29.08s.06,0,.24,0h.4l.13,0,.5-.14.36-.13-.4.17c.18,0,.74-.4.9-.5s.41-.32.56-.41l.33-.3h0a.3.3,0,0,0,0-.1h0a.29.29,0,0,0,0-.09h0a.28.28,0,0,0,0-.09h0a.29.29,0,0,0,0-.09h0a.31.31,0,0,0,0-.1h0a.29.29,0,0,0,0-.09h0a.28.28,0,0,0,0-.09h0a.29.29,0,0,0,0-.09h0a.28.28,0,0,0,0-.09v0a.29.29,0,0,0,0-.09h0a.28.28,0,0,0,0-.09h0a.29.29,0,0,0,0-.09h0s0-.06,0-.09v0a.29.29,0,0,0,0-.09h0s0-.06,0-.09h0a.29.29,0,0,0,0-.09h0s0-.06,0-.09v0a.29.29,0,0,0,0-.09h0a.29.29,0,0,0,0-.09h0a.29.29,0,0,0,0-.09h0a.29.29,0,0,0,0-.09h0a.44.44,0,0,0,0-.1h0a.29.29,0,0,0,0-.09h0a.29.29,0,0,0,0-.09h0a.29.29,0,0,0,0-.09h0a.44.44,0,0,0,0-.1h0a.29.29,0,0,0,0-.09h0a.28.28,0,0,0,0-.09h0a.29.29,0,0,0,0-.09h0a.34.34,0,0,0,0-.1h0a.29.29,0,0,0,0-.09h0a.28.28,0,0,0,0-.09h0a.29.29,0,0,0,0-.09h0a.31.31,0,0,0,0-.1h0a.29.29,0,0,0,0-.09h0s0-.06,0-.09h0a.29.29,0,0,0,0-.09h0s0-.06,0-.1h0a.29.29,0,0,0,0-.09h0s0-.06,0-.09h0a.29.29,0,0,0,0-.09h0s0-.06,0-.09v0a.29.29,0,0,0,0-.09h0a.29.29,0,0,0,0-.09h0a.29.29,0,0,0,0-.09h0a.29.29,0,0,0,0-.09v0a.29.29,0,0,0,0-.09h0a.29.29,0,0,0,0-.09h0a.29.29,0,0,0,0-.09h0a.29.29,0,0,0,0-.09v0a.29.29,0,0,0,0-.09h0a.29.29,0,0,0,0-.09h0a.28.28,0,0,0,0-.09Z" transform="translate(-42.15 -305.58)"/><path class="cls-7" d="M98.57,445.91l0-.07a9.11,9.11,0,0,1-3.08,0,12.11,12.11,0,0,1-4.81-2.33c-.43-.3-.87-.57-1.33-.83l-.08,0-.58-.15h-.06a2.72,2.72,0,0,1-.57,0h0c-.2,0-.4.08-.6.14s-.45.15-.67.22l0,0c-.41.24-.84.43-1.24.68l-.54.36-.26.15c-.4.28-.79.63-1.19.91a8.51,8.51,0,0,1-6.43,1.71,7.69,7.69,0,0,1-4.76-3c-.24-.29-.49-.56-.75-.84l0,0-.08,0s0,0-.08,0l-.08,0,0,0-.41-.12-.53-.12c-.21-.05-.2-.08-.11-.08a7.29,7.29,0,0,0-1.75.13l-.21,0,.29,0c-.35.08-.36.08-.29,0l-.16,0a8.42,8.42,0,0,0-.86.24l-.16.06h0a.29.29,0,0,0,0,.09h0a.29.29,0,0,0,0,.09h0a.44.44,0,0,0,0,.1h0a.36.36,0,0,0,0,.1h0a.29.29,0,0,0,0,.09h0a.29.29,0,0,0,0,.09h0a.29.29,0,0,0,0,.09h0s0,.07,0,.1h0a.29.29,0,0,0,0,.09h0s0,.06,0,.09h0a.29.29,0,0,0,0,.09h0s0,.07,0,.1h0a.29.29,0,0,0,0,.09h0a.28.28,0,0,0,0,.09h0v0h0a.08.08,0,0,0,0,.05v0s0,.05,0,.08v0s0,.05,0,.08v0s0,.05,0,.07v0a.21.21,0,0,0,0,.07s0,0,0,0,0,.05,0,.08,0,0,0,0,0,0,0,.08a0,0,0,0,0,0,0s0,.05,0,.07,0,0,0,0a.21.21,0,0,0,0,.07,0,0,0,0,0,0,0,.24.24,0,0,0,0,.08v0s0,.05,0,.08,0,0,0,0a.21.21,0,0,0,0,.07v0s0,.05,0,.07v0a.15.15,0,0,0,0,.07v0s0,0,0,.08v0a.21.21,0,0,0,0,.07v0s0,.05,0,.07,0,0,0,0a.15.15,0,0,0,0,.07v0s0,.05,0,.08v0s0,0,0,.07,0,0,0,0,0,0,0,.07v0a.15.15,0,0,0,0,.07v0s0,.05,0,.08,0,0,0,0,0,0,0,.07v0s0,.05,0,.07v0a.15.15,0,0,0,0,.07v0s0,.05,0,.08v0s0,0,0,.07v0s0,.05,0,.07v0a.15.15,0,0,0,0,.07,0,0,0,0,0,0,0s0,.05,0,.08v0s0,0,0,.07a0,0,0,0,0,0,0,.19.19,0,0,0,0,.07s0,0,0,0,0,.05,0,.07v0a.24.24,0,0,0,0,.08v0s0,.05,0,.08,0,0,0,0a.21.21,0,0,0,0,.07v0s0,.05,0,.07v0s0,.05,0,.08,0,0,0,0,0,0,0,.08v0a.21.21,0,0,0,0,.07v0s0,.05,0,.07,0,0,0,0,0,0,0,.08v0s0,.05,0,.08,0,0,0,0a.21.21,0,0,0,0,.07s0,0,0,0,0,0,0,.07v0s0,.05,0,.08,0,0,0,0,0,.05,0,.08,0,0,0,0a.21.21,0,0,0,0,.07v0s0,.05,0,.07v0s0,.05,0,.08v0s0,.05,0,.08v0a.21.21,0,0,0,0,.07,0,0,0,0,0,0,0s0,0,0,.07v0s0,.05,0,.08,0,0,0,0a.24.24,0,0,0,0,.08s0,0,0,0,0,0,0,.07v0a.19.19,0,0,0,0,.07s0,0,0,0,0,.05,0,.08v0a.24.24,0,0,0,0,.08v0s0,.05,0,.07v0a.21.21,0,0,0,0,.07v0s0,.05,0,.07v0s0,.05,0,.08v0s0,0,0,.07v0a.21.21,0,0,0,0,.07s0,0,0,0,0,.05,0,.07,0,0,0,0,0,0,0,.08v0s0,0,0,.07,0,0,0,0a.21.21,0,0,0,0,.07s0,0,0,0,0,0,0,.07v0s0,.05,0,.08a0,0,0,0,1,0,0s0,.05,0,.08v0c0,1.3,6.57,2.35,14.68,2.35s14.67-1.05,14.67-2.35v0s0-.05,0-.08v0s0,0,0-.08v0s0,0,0-.07a0,0,0,0,0,0,0,.21.21,0,0,0,0-.07s0,0,0,0,0,0,0-.07v0s0-.05,0-.08,0,0,0,0,0,0,0-.07,0,0,0,0a.21.21,0,0,0,0-.07v0s0-.05,0-.07v0s0-.05,0-.08v0s0,0,0-.07v0a.21.21,0,0,0,0-.07v0s0,0,0-.07v0s0-.05,0-.08v0s0-.05,0-.08,0,0,0,0a.21.21,0,0,0,0-.07v0s0-.05,0-.07,0,0,0,0,0-.05,0-.08v0s0-.05,0-.08v0a.19.19,0,0,0,0-.07v0s0-.05,0-.07v0a.24.24,0,0,0,0-.08v0s0-.05,0-.08v0a.19.19,0,0,0,0-.07,0,0,0,0,0,0,0,.21.21,0,0,0,0-.07s0,0,0,0,0-.05,0-.08v0s0,0,0-.08v0s0-.05,0-.07,0,0,0,0a.21.21,0,0,0,0-.07s0,0,0,0,0,0,0-.08v0s0-.05,0-.08,0,0,0,0,0-.05,0-.07v0a.21.21,0,0,0,0-.07v0s0-.05,0-.08,0,0,0,0,0,0,0-.08v0s0-.05,0-.07v0a.21.21,0,0,0,0-.07s0,0,0,0,0,0,0-.08v0s0-.05,0-.08v0s0-.05,0-.07,0,0,0,0a.21.21,0,0,0,0-.07v0s0-.05,0-.07v0s0-.05,0-.08,0,0,0,0,0,0,0-.07v0a.19.19,0,0,0,0-.07v0s0-.05,0-.07v0a.24.24,0,0,0,0-.08,0,0,0,0,0,0,0,.15.15,0,0,0,0-.07v0s0-.05,0-.07a0,0,0,0,0,0,0s0-.05,0-.07,0,0,0,0,0-.05,0-.08v0a.15.15,0,0,0,0-.07v0s0-.05,0-.07,0,0,0,0,0-.05,0-.07v0s0-.05,0-.08v0a.15.15,0,0,0,0-.07s0,0,0,0,0-.05,0-.07Z" transform="translate(-42.15 -305.58)"/><ellipse class="cls-8" cx="40.92" cy="94.98" rx="22.07" ry="2.35"/><path class="cls-9" d="M62,401.26c2.78,1,11.17,1.65,21.09,1.65s18.3-.69,21.09-1.65c-2.79-1-11.18-1.66-21.09-1.66S64.76,400.3,62,401.26Z" transform="translate(-42.15 -305.58)"/><ellipse class="cls-10" cx="77.15" cy="367.17" rx="13.8" ry="18.98" transform="translate(-74.9 -297.14) rotate(-5.17)"/><path class="cls-11" d="M90.9,365.93c0-.41-.09-.82-.15-1.22a12.79,12.79,0,0,1-1.63,3.64,15,15,0,0,1-17.63,5.88,13.24,13.24,0,0,1-5.72-4.09,15.57,15.57,0,0,1-2.44-2.86c0,.38,0,.75.07,1.13.95,10.44,7.87,18.35,15.46,17.66S91.84,376.36,90.9,365.93Z" transform="translate(-42.15 -305.58)"/><ellipse class="cls-10" cx="113.53" cy="366.4" rx="19.28" ry="14.02" transform="translate(-279.99 -93.03) rotate(-49.14)"/><path class="cls-11" d="M124.45,367.26a20.14,20.14,0,0,1-7.13,3.29,14.14,14.14,0,0,1-11.62-1.9l-.23-.17a9.12,9.12,0,0,1-4.1-8.38,9.38,9.38,0,0,1,.12-1.05c-5.61,7.77-6,17.24-.57,21.93,5.86,5.06,16.25,2.64,23.22-5.41A23.28,23.28,0,0,0,130,362.49,20.29,20.29,0,0,1,124.45,367.26Z" transform="translate(-42.15 -305.58)"/><path class="cls-12" d="M126.19,369a8.41,8.41,0,0,0-2.22.74c-.68.27-1.36.51-2,.74-1.47.48-3,.9-4.46,1.24s-3,.6-4.47.8c-.75.09-1.5.18-2.26.25l-.8.05c1.33-1.59,2.63-3.2,3.88-4.85a4.42,4.42,0,0,0,.52,0,18.25,18.25,0,0,0,2-.13,28.3,28.3,0,0,0,3.89-.7A31.3,31.3,0,0,0,124,365.9c.61-.24,1.21-.51,1.81-.79l.81-.41a5.8,5.8,0,0,0,.83-.65c.44-.34-.05-.92-.5-.75a9,9,0,0,0-.88.28l-.82.41c-.52.25-1.06.48-1.6.7a28.51,28.51,0,0,1-3.37,1.16,32.51,32.51,0,0,1-3.42.75c-.59.09-1.2.18-1.8.24l-.42.06c.5-.68,1-1.37,1.5-2.07,1-1.4,1.92-2.81,2.81-4.26a5.84,5.84,0,0,0,1.83-.3c1-.25,2-.53,2.94-.83s1.89-.58,2.83-.88l1.41-.47a2.21,2.21,0,0,0,1.18-.66.36.36,0,0,0-.18-.54,2.06,2.06,0,0,0-1.22.15l-1.32.44c-.91.3-1.83.6-2.74.88s-1.79.55-2.67.84c-.48.15-1,.38-1.55.53.15-.24.3-.48.44-.72.58-1,1.17-2,1.68-3s.94-2.08,1.43-3.12c.15-.33-.41-.61-.58-.29-.49.93-1.07,1.8-1.6,2.69s-1,1.71-1.53,2.55c-.09.15-.18.3-.28.45v0c.11-.86.25-1.73.41-2.59.32-1.77.71-3.53,1-5.3.07-.37-.48-.43-.61-.12a29,29,0,0,0-1.53,5.28c-.17.89-.33,1.77-.46,2.67a12.2,12.2,0,0,0-.23,2.26c-.55.84-1.1,1.67-1.68,2.49-.86,1.25-1.76,2.47-2.68,3.68,0-1,0-2.06.08-3.1a37.81,37.81,0,0,1,.46-4.1c.22-1.33.5-2.66.84-4s.7-2.73,1.13-4.07a.32.32,0,0,0-.61-.2,27.12,27.12,0,0,0-1.56,3.92,37.24,37.24,0,0,0-1,4.17,33.46,33.46,0,0,0-.58,8.47.48.48,0,0,0,.15.32q-1.81,2.32-3.73,4.56c0-.5-.1-1-.12-1.47q-.06-1.14-.09-2.28c0-1.46,0-2.93.06-4.39.14-3,.52-5.92.83-8.89a.4.4,0,0,0-.77-.15,41.91,41.91,0,0,0-1.34,9c-.09,1.52-.12,3-.1,4.55,0,.74,0,1.47.08,2.2a11.54,11.54,0,0,0,.2,2.35.74.74,0,0,0,.19.31c-1.25,1.42-2.51,2.82-3.81,4.21v0c0-.1-.08-.19-.11-.28-.1-.27-.2-.54-.29-.82-.18-.58-.33-1.18-.46-1.78a22.07,22.07,0,0,1-.42-3.72c0-1.25,0-2.5,0-3.75a33.88,33.88,0,0,0,.13-3.9c0-.33-.5-.49-.62-.12a18.77,18.77,0,0,0-.68,3.95,29.82,29.82,0,0,0-.15,4.12,23.21,23.21,0,0,0,.45,4,18.13,18.13,0,0,0,.52,1.92,3.46,3.46,0,0,0,.67,1.42c-3.68,3.89-7.52,7.64-11.38,11.34l-5.11,4.87-2.73,2.6c-.51.48-1,1-1.54,1.46-.06-1.16-.13-2.31-.14-3.47,0-1.59,0-3.19,0-4.79,0-3-.23-6-.55-9l.14-.08.67-.38,1.32-.79A25.87,25.87,0,0,0,85.83,379a.27.27,0,0,0-.29-.44c-.91.44-1.8.9-2.69,1.39-.43.24-.87.47-1.31.7L81,381c-.09-.69-.17-1.38-.27-2.07.26-.22.5-.46.74-.69l1.15-1.11c.81-.78,1.62-1.57,2.42-2.37s1.54-1.56,2.3-2.35,1.45-1.65,2.15-2.5c.19-.24-.17-.54-.39-.35-.83.72-1.66,1.41-2.45,2.18L84.32,374c-.77.74-1.54,1.48-2.32,2.21l-1.23,1.16-.2.18c-.22-1.44-.47-2.88-.74-4.31l.12-.07c.67-.71,1.26-1.52,1.86-2.29s1.2-1.58,1.78-2.39a49.05,49.05,0,0,0,3.12-5.08.31.31,0,0,0-.51-.35c-1.13,1.6-2.3,3.17-3.47,4.74-.57.78-1.15,1.55-1.75,2.31-.46.59-.94,1.16-1.41,1.75-.26-1.3-.53-2.59-.82-3.89a.5.5,0,0,0,.37-.25q1.56-2.51,3.11-5c.5-.82,1-1.62,1.48-2.46a6.92,6.92,0,0,0,.92-2.51c0-.27-.4-.44-.53-.18-.85,1.63-1.89,3.13-2.89,4.67s-1.86,2.91-2.78,4.36c-.25-1-.49-2.05-.75-3.08l-.18-.68a.54.54,0,0,0,.37-.31c.75-1.64,1.53-3.28,2.23-4.95a16.22,16.22,0,0,0,.81-2.47c.11-.47.2-.93.31-1.4s.28-.9.38-1.36A.33.33,0,0,0,81,352a8.46,8.46,0,0,0-1,2.57,21.38,21.38,0,0,1-.86,2.56c-.64,1.47-1.33,2.91-2,4.37-.28-1-.56-2.05-.85-3.07-.49-1.71-1.09-3.38-1.65-5.06-.15-.47-.9-.36-.78.16.35,1.5.65,3,1,4.51.32,1.33.66,2.66,1,4h0c-.43-.2-.86-.42-1.27-.66a18.56,18.56,0,0,1-2.35-1.58,19.1,19.1,0,0,1-2-1.87,5.56,5.56,0,0,1-1.68-2.3.25.25,0,0,0-.5,0,3.81,3.81,0,0,0,1.11,2.45,17,17,0,0,0,2.17,2.24,17.5,17.5,0,0,0,2.49,1.8c.45.27.91.52,1.37.75s.68.34,1,.48c.31,1.31.62,2.61.92,3.92a23.71,23.71,0,0,1-5.23-2.43c-.83-.57-1.59-1.25-2.37-1.91-.41-.35-.84-.71-1.27-1l-.61-.48-.28-.21a.8.8,0,0,1-.19-.13s0,0,0,0a.34.34,0,0,0-.44-.48c-1.09.49.5,1.84.89,2.2.92.88,1.86,1.76,2.86,2.57a22.68,22.68,0,0,0,6.69,3.34.6.6,0,0,0,.29,0q.33,1.44.63,2.88c.13.65.25,1.3.38,2l-1-.23c-.6-.17-1.19-.34-1.77-.54-1.14-.37-2.26-.81-3.36-1.29a23.84,23.84,0,0,1-2.9-1.46,10.18,10.18,0,0,1-1.28-.9c-.41-.34-.75-.74-1.13-1.11-.17-.16-.53-.05-.45.22a5.23,5.23,0,0,0,1.92,2.37,17.93,17.93,0,0,0,3.08,1.74,32.9,32.9,0,0,0,3.59,1.46c.61.21,1.22.4,1.84.57a15,15,0,0,0,1.63.42c.2,1.13.39,2.28.56,3.42l-.65-.2-1.4-.5c-.94-.35-1.86-.71-2.78-1.11s-1.76-.79-2.62-1.21A17.22,17.22,0,0,0,69,374c-.22,0-.43.2-.26.38A10.25,10.25,0,0,0,71.18,376c.88.49,1.79.94,2.71,1.37s1.82.81,2.75,1.17c.49.19,1,.37,1.49.54a8,8,0,0,0,1.26.39c.1.67.18,1.34.26,2-1-.19-2-.33-2.94-.57s-2.07-.55-3.12-.76c-.22-.05-.43.25-.19.39a12.5,12.5,0,0,0,3.06,1.29,20.54,20.54,0,0,0,3.31.72c.26,2.45.44,4.9.49,7.36,0,1.76,0,3.52,0,5.28a33.38,33.38,0,0,0,.28,5.47.61.61,0,0,0,.07.17.67.67,0,0,0,1,.42A28.88,28.88,0,0,0,84.17,399l2.4-2.3c1.55-1.48,3.11-2.95,4.66-4.44,3-2.84,5.93-5.7,8.81-8.63,1.3-1.32,2.57-2.65,3.84-4a4.63,4.63,0,0,0,1.52.41,12.11,12.11,0,0,0,2.33.07c1.47-.09,2.94-.27,4.4-.45a40.59,40.59,0,0,0,4.25-.74,13.21,13.21,0,0,0,4.07-1.54c.41-.25.24-1-.3-.86-1.29.38-2.56.8-3.87,1.12a40.66,40.66,0,0,1-4.09.71c-1.38.19-2.76.36-4.14.48a17.49,17.49,0,0,1-2.17.08c-.39,0-.79-.09-1.19-.15q2.16-2.33,4.22-4.72a15.18,15.18,0,0,0,1.91-.05c.79,0,1.57-.12,2.35-.21a43,43,0,0,0,4.63-.78,44.73,44.73,0,0,0,4.53-1.26c.75-.25,1.49-.51,2.23-.8a6.21,6.21,0,0,0,2.07-1A.52.52,0,0,0,126.19,369Z" transform="translate(-42.15 -305.58)"/><ellipse class="cls-10" cx="54.52" cy="383.12" rx="10.18" ry="13.99" transform="translate(-305.44 -143.26) rotate(-47.11)"/><path class="cls-11" d="M64.43,379.22a8.77,8.77,0,0,1-2,2.09,16.94,16.94,0,0,1-9,3.1,13.34,13.34,0,0,1-5-.52,9.93,9.93,0,0,1-2.66-1.42,11.4,11.4,0,0,1-3.5-3.45c-.14,3.79,1.77,8.16,5.43,11.56,5.66,5.26,13.35,6.18,17.17,2.06C67.8,389.39,67.49,384,64.43,379.22Z" transform="translate(-42.15 -305.58)"/><path class="cls-12" d="M79.74,400.14a6.4,6.4,0,0,0,0,.88c0,.07,0,.15,0,.22s0,.21,0,.31c0,.36,0,.71,0,1.06a.72.72,0,0,0,.06.29,5.07,5.07,0,0,1,1,0c.46,0,.92,0,1.37,0l.61,0a9,9,0,0,0,0-2.07l0-.64a1,1,0,0,0-.29-.68,1,1,0,0,0-.94-.45,1.05,1.05,0,0,0-.47.21c-.21-.18-.44-.35-.64-.51-.59-.48-1.19-.93-1.81-1.37a44,44,0,0,0-3.8-2.39c-1.12-.64-2.27-1.26-3.42-1.86,0-.08-.09-.16-.14-.23-.68-.28-1.35-.57-2-.88l-2.82-1.41-1.18-.61c-1-.55-2-1.13-2.92-1.74-.13-.5-.32-1-.43-1.49-.18-.79-.36-1.58-.49-2.38a14.75,14.75,0,0,1-.23-2.38c0-.77.19-1.56.12-2.32a.27.27,0,0,0-.48-.12,4.13,4.13,0,0,0-.67,2.41,12.53,12.53,0,0,0,.16,2.59c.14.85.31,1.69.49,2.53,0,.07,0,.13,0,.2-.61-.41-1.21-.82-1.8-1.26a3.39,3.39,0,0,0-.25-.64,11.19,11.19,0,0,1-.44-1.14,13.1,13.1,0,0,1-.57-2.46,14.2,14.2,0,0,1,.11-5c.08-.37-.56-.53-.66-.16a13.71,13.71,0,0,0-.52,5.29,13.46,13.46,0,0,0,.57,2.59c0,.07.05.13.07.2l-.27-.21c-.53-.42-1.05-.86-1.57-1.3,0-.2-.08-.4-.12-.6s-.13-.7-.18-1.06a17.75,17.75,0,0,1-.21-2.06,24.24,24.24,0,0,1,.1-4.26c.06-.41-.54-.46-.62-.07a18.85,18.85,0,0,0-.48,4.43,19.06,19.06,0,0,0,.15,2.13c0,.11,0,.22,0,.34-.46-.42-.93-.83-1.38-1.26v0a2.57,2.57,0,0,0-.24-.79c-.09-.26-.18-.53-.26-.81a14,14,0,0,1-.39-1.7,18.1,18.1,0,0,1-.16-3.45.3.3,0,0,0-.59-.06,11.12,11.12,0,0,0-.06,3.64,13,13,0,0,0,.31,1.53l-.19-.05-.59-.71c-.58-.74-1.17-1.48-1.73-2.23L48.05,375a1.92,1.92,0,0,1-.56-1.3c0-.29-.42-.42-.5-.13a2.88,2.88,0,0,0,.8,2.34c.6.89,1.23,1.76,1.88,2.61.08.11.17.21.25.31h0c-.47-.09-.93-.22-1.4-.35-1-.26-1.92-.65-2.9-.9-.36-.09-.66.34-.33.59a9.43,9.43,0,0,0,2.87,1.39c.5.16,1,.29,1.53.41a7.63,7.63,0,0,0,1.35.24l.62.76c.3.35.61.69.92,1-1.32-.18-2.66-.32-4-.44-.81-.08-1.63-.15-2.44-.2-.43,0-.85,0-1.28,0a1.47,1.47,0,0,0-.92.19.24.24,0,0,0,0,.34c.48.49,1.47.49,2.12.58l2.43.32c1.65.21,3.31.46,5,.62a.57.57,0,0,0,.52-.21l.67.63a.6.6,0,0,0,.06.11.36.36,0,0,0,.25.17c.47.44,1,.88,1.45,1.3l-.93-.08c-.69-.07-1.38-.15-2.08-.21s-1.34-.11-2-.15a4.28,4.28,0,0,0-2,0,.3.3,0,0,0,0,.52,4.29,4.29,0,0,0,1.81.46l2.08.29,2,.23a14.78,14.78,0,0,0,2.08.2.65.65,0,0,0,.45-.17c1,.84,2.13,1.65,3.25,2.41l-.8.08c-.81.08-1.63.14-2.45.2s-1.64.11-2.46.14l-1.23.06c-.37,0-.79,0-1,.36a.3.3,0,0,0,0,.35c.23.32.69.32,1.05.35l1.23,0c.85,0,1.69,0,2.54-.05s1.7-.09,2.55-.16q.62,0,1.23-.12a1.39,1.39,0,0,0,.87-.26,54.7,54.7,0,0,0,7.74,4,70.1,70.1,0,0,1,7,4.15c.67.46,1.32.94,2,1.45l.57.48C79.75,400.05,79.75,400.09,79.74,400.14Z" transform="translate(-42.15 -305.58)"/><path class="cls-13" d="M110.92,335.75h0a1.3,1.3,0,0,1,1.3-1.3H252.85a1.31,1.31,0,0,1,1.31,1.3h0a1.31,1.31,0,0,1-1.31,1.31H112.22A1.3,1.3,0,0,1,110.92,335.75Z" transform="translate(-42.15 -305.58)"/><rect class="cls-13" x="204.98" y="30.17" width="2.61" height="108.27"/><path class="cls-14" d="M261.05,444H235.81a4.23,4.23,0,1,0,0,8.46h25.24a4.23,4.23,0,0,0,0-8.46Z" transform="translate(-42.15 -305.58)"/><path class="cls-15" d="M261.89,449.39a178.42,178.42,0,0,1-22.3.05c-1.51-.13-3-.31-4.55-.54l-.68,0-2.69.19a4.24,4.24,0,0,0,4.14,3.36h25.24a4.22,4.22,0,0,0,4.16-3.49C264.11,449.15,263,449.28,261.89,449.39Z" transform="translate(-42.15 -305.58)"/><path class="cls-16" d="M241.72,459.6a3.13,3.13,0,1,1,3.12-3.13A3.13,3.13,0,0,1,241.72,459.6Z" transform="translate(-42.15 -305.58)"/><path class="cls-13" d="M241.72,454.2a2.27,2.27,0,1,1-2.27,2.27,2.27,2.27,0,0,1,2.27-2.27m0-1.71a4,4,0,1,0,4,4,4,4,0,0,0-4-4Z" transform="translate(-42.15 -305.58)"/><path class="cls-16" d="M255.14,459.6a3.13,3.13,0,1,1,3.13-3.13A3.13,3.13,0,0,1,255.14,459.6Z" transform="translate(-42.15 -305.58)"/><path class="cls-13" d="M255.14,454.2a2.27,2.27,0,1,1-2.26,2.27,2.27,2.27,0,0,1,2.26-2.27m0-1.71a4,4,0,1,0,4,4,4,4,0,0,0-4-4Z" transform="translate(-42.15 -305.58)"/><rect class="cls-13" x="75.5" y="30.17" width="2.61" height="108.27"/><path class="cls-14" d="M131.58,444H106.33a4.23,4.23,0,1,0,0,8.46h25.25a4.23,4.23,0,0,0,0-8.46Z" transform="translate(-42.15 -305.58)"/><path class="cls-15" d="M132.41,449.39a178.26,178.26,0,0,1-22.29.05q-2.28-.19-4.56-.54l-.68,0-2.69.19a4.24,4.24,0,0,0,4.14,3.36h25.25a4.23,4.23,0,0,0,4.16-3.49Q134.07,449.23,132.41,449.39Z" transform="translate(-42.15 -305.58)"/><path class="cls-16" d="M112.24,459.6a3.13,3.13,0,1,1,3.12-3.13A3.14,3.14,0,0,1,112.24,459.6Z" transform="translate(-42.15 -305.58)"/><path class="cls-13" d="M112.24,454.2a2.27,2.27,0,1,1-2.27,2.27,2.27,2.27,0,0,1,2.27-2.27m0-1.71a4,4,0,1,0,4,4,4,4,0,0,0-4-4Z" transform="translate(-42.15 -305.58)"/><path class="cls-16" d="M125.67,459.6a3.13,3.13,0,1,1,3.12-3.13A3.13,3.13,0,0,1,125.67,459.6Z" transform="translate(-42.15 -305.58)"/><path class="cls-13" d="M125.67,454.2a2.27,2.27,0,1,1-2.27,2.27,2.27,2.27,0,0,1,2.27-2.27m0-1.71a4,4,0,1,0,4,4,4,4,0,0,0-4-4Z" transform="translate(-42.15 -305.58)"/><path class="cls-17" d="M237.3,358.8c-2.17,0-4.16,0-5.63,0-8.79-.09-19.56-.39-21-1.31a1.2,1.2,0,0,1-.58-1.15c.16-1.61,6.39-5.91,9.05-7.68,3.38-2.24,9.48-6,12.39-6h0c3.46,0,20.66,11.19,21.4,13.92a1.32,1.32,0,0,1-.6,1.52C251.3,358.67,243.56,358.8,237.3,358.8Zm-25.1-2Zm.88-.95c6.18.76,30.93,1.09,37.06.49-3.32-3.23-16.47-11.51-18.6-11.51h0C228.26,344.81,216.51,352.71,213.08,355.83Zm38.26.29Z" transform="translate(-42.15 -305.58)"/><path class="cls-17" d="M230.73,331.71a5,5,0,0,0-8.07,2.62H225a2.87,2.87,0,0,1,1.37-1.36,3.08,3.08,0,0,1,3.06.49c1.49,1.09,1.49,6.56,1,10.1a1.09,1.09,0,0,0,.93,1.23h.15a1.09,1.09,0,0,0,1.08-.95C232.84,342.22,233.77,334,230.73,331.71Z" transform="translate(-42.15 -305.58)"/><path class="cls-5" d="M263.93,364.45s-12.4-17.48-23.26-19.31c0,0-2.78,3-9.09,3.61-6.31-.58-9.1-3.61-9.1-3.61-10.85,1.83-23.26,19.31-23.26,19.31l9,7.76,6-6.14-3.53,25c7.47,5.14,18.24,5.28,20.94,5.23s13.46-.09,20.93-5.23l-3.52-25,6,6.14Z" transform="translate(-42.15 -305.58)"/><path class="cls-18" d="M224.56,350.08a12.41,12.41,0,0,0,6.95,1.42,18.07,18.07,0,0,0,6.45-1.62,19.57,19.57,0,0,0,3-1.8,22.34,22.34,0,0,0,2.35-2.07l.09-.09a13.7,13.7,0,0,0-2.75-.78s-2.78,3-9.09,3.61c-6.31-.58-9.1-3.61-9.1-3.61a14.57,14.57,0,0,0-2.68.75A15.54,15.54,0,0,0,224.56,350.08Z" transform="translate(-42.15 -305.58)"/><path class="cls-18" d="M260.85,364.16c-1.49,1.52-3.11,2.88-4.72,4.26l-2.65,2.27,1.48,1.52,9-7.76s-.53-.75-1.46-1.94C261.91,363.06,261.38,363.62,260.85,364.16Z" transform="translate(-42.15 -305.58)"/><path class="cls-18" d="M207.47,367.54c-2.11-1.88-4.12-3.89-6-6-1.39,1.73-2.21,2.88-2.21,2.88l9,7.76,2.1-2.16C209.33,369.23,208.4,368.38,207.47,367.54Z" transform="translate(-42.15 -305.58)"/><path class="cls-19" d="M197.21,403.71s-28.2,2.54-28.2,0,1.83-52.3,13.11-49c12.4,3.65,16.22,1.62,16.22,1.62Z" transform="translate(-42.15 -305.58)"/><path class="cls-17" d="M197.52,358.44c-2.17,0-4.16,0-5.63,0-8.79-.09-19.56-.4-21-1.31a1.21,1.21,0,0,1-.58-1.15c.16-1.62,6.39-5.91,9.05-7.68,3.38-2.24,9.48-6,12.39-6h0c3.46,0,20.66,11.18,21.4,13.92a1.32,1.32,0,0,1-.6,1.52C211.52,358.32,203.78,358.44,197.52,358.44Zm-24.22-3c6.18.75,30.93,1.09,37.06.48-3.32-3.22-16.47-11.51-18.6-11.51h0C188.48,344.45,176.73,352.36,173.3,355.48Zm38.26.29Z" transform="translate(-42.15 -305.58)"/><path class="cls-17" d="M191,331.35a5.24,5.24,0,0,0-5.24-.72,5.3,5.3,0,0,0-2.94,3.76c.64,0,1.29,0,1.92,0l.18,0h.18a3,3,0,0,1,1.54-1.79,3.06,3.06,0,0,1,3.06.48c1.49,1.1,1.49,6.57,1,10.11a1.09,1.09,0,0,0,.93,1.22h.15a1.09,1.09,0,0,0,1.08-.95C193.06,341.87,194,333.6,191,331.35Z" transform="translate(-42.15 -305.58)"/><path class="cls-20" d="M177.75,418.09h25.38s5.92-45.4,3.66-61.75c-.46-3.36-24.81-1.69-26.78-1.69S176.06,407.38,177.75,418.09Z" transform="translate(-42.15 -305.58)"/><path class="cls-17" d="M153.19,357.61c-2.16,0-4.15,0-5.63,0-8.79-.09-19.56-.4-21-1.31a1.24,1.24,0,0,1-.59-1.15c.16-1.62,6.39-5.91,9.06-7.68,3.37-2.24,9.48-6,12.38-6,3.46,0,20.66,11.18,21.4,13.92a1.31,1.31,0,0,1-.6,1.52C167.19,357.49,159.46,357.61,153.19,357.61Zm-24.21-3c6.17.75,30.92,1.09,37.06.48-3.32-3.22-16.48-11.51-18.61-11.51C144.16,343.62,132.4,351.53,129,354.65Zm38.25.29Z" transform="translate(-42.15 -305.58)"/><path class="cls-17" d="M146.62,330.52a5.22,5.22,0,0,0-5.23-.72,5.53,5.53,0,0,0-3.11,4.59c.35-.06.74-.05,1.06-.08s1.13.12,1.52.14c.23-1.21.5-2.26,1.41-2.65a3,3,0,0,1,3,.48c1.49,1.1,1.5,6.57,1,10.11a1.09,1.09,0,0,0,.94,1.22h.14a1.09,1.09,0,0,0,1.08-.95C148.73,341,149.66,332.77,146.62,330.52Z" transform="translate(-42.15 -305.58)"/><path class="cls-21" d="M174.37,431.48s-11.84-33.69-12.26-42.57,2.39-21.15,2.39-21.15c-5.07-2.4-5.42-10.27-5.42-10.27l-5.15,1.25c-.3.35-.6.66-.9.95a10.45,10.45,0,0,1-6.37,2.85h0a10.39,10.39,0,0,1-6.36-2.85c-.3-.29-.6-.6-.91-.95l-5.15-1.25s-.34,7.87-5.42,10.27c0,0,2.82,12.27,2.4,21.15S119,431.48,119,431.48s8.46,6.35,24.67,6.21h6.08C165.91,437.83,174.37,431.48,174.37,431.48Z" transform="translate(-42.15 -305.58)"/><path class="cls-22" d="M133.33,364.12l.67.11a.76.76,0,0,1,.21.06,17.78,17.78,0,0,0,1.9.12l2.1.11c1.47,0,2.94,0,4.41,0,2.68-.1,5.36-.3,8-.48,1.15-.08,2.29-.17,3.44-.29l1.36-.14.85-.11.34,0q1.82-.26,3.63-.6a18.2,18.2,0,0,1-1.2-5.32l-5.15,1.25c-.3.35-.6.66-.9.95a10.45,10.45,0,0,1-6.37,2.85h0a10.39,10.39,0,0,1-6.36-2.85c-.3-.29-.6-.6-.91-.95l-5.15-1.25a17.59,17.59,0,0,1-1.72,6.47Z" transform="translate(-42.15 -305.58)"/><path class="cls-22" d="M144.62,372.47a71,71,0,0,1-10.3-.67,19.69,19.69,0,0,1-4.92-1.49l-.05,0c.37,1.91.88,4.72,1.27,7.86l.74.12.09,0h.17l.76.08c1,.09,2.05.12,3.08.18,4.19.25,8.47.13,12.67,0,1.94-.06,3.87-.23,5.8-.45l.17,0,.17,0,.64-.1,1.45-.23c.9-.16,1.81-.33,2.7-.51,1.31-.27,2.6-.59,3.89-.92.4-2.81.86-5.22,1.17-6.77C157.78,371.1,151.18,372.5,144.62,372.47Z" transform="translate(-42.15 -305.58)"/><path class="cls-22" d="M162.15,383.93c-2.18.48-4.38.88-6.6,1.17a86.73,86.73,0,0,1-11.62.58,56.69,56.69,0,0,1-11.64-.93l-1.09-.26c.07,1.51.09,3,0,4.42,0,.5-.09,1.08-.18,1.72l1,.14a82.6,82.6,0,0,0,12.67,1c2.18,0,4.37-.18,6.54-.4l1.84-.22.15,0,.68-.1c1-.15,2-.32,3-.5,1.75-.31,3.5-.64,5.25-1,0-.22,0-.44,0-.63A49,49,0,0,1,162.15,383.93Z" transform="translate(-42.15 -305.58)"/><path class="cls-22" d="M129.25,416.47c4.25,1,8.51,2,12.84,2.62l.8.1.86.09c.68.07,1.37.13,2.06.17,1.22.08,2.45.13,3.68.16a54,54,0,0,0,7.63-.34l.56-.07h.09l1-.15c.53-.09,1.06-.18,1.58-.29,1.25-.24,2.48-.54,3.7-.89.6-.17,1.19-.35,1.77-.55l.86-.3.51-.21c.67-.3,1.33-.63,2-1-.66-2.08-1.35-4.24-2-6.41l-.28.09a60.37,60.37,0,0,1-23.4,2.93,45.94,45.94,0,0,1-12-2.65,42.68,42.68,0,0,1-4.69-2.09c-.74,2.45-1.51,4.92-2.27,7.3A45.75,45.75,0,0,0,129.25,416.47Z" transform="translate(-42.15 -305.58)"/><path class="cls-22" d="M120.57,429.94l.48.2c.26.11.53.2.8.3.54.2,1.08.39,1.64.56,1.16.36,2.34.63,3.52.9s2.09.43,3.14.59c.18,0,1,.13.62.09l.54.07,1.52.16c2.15.21,4.3.36,6.44.54,5.36.42,10.72,1,16.11,1,.81,0,1.62,0,2.43-.06l1-.08.49-.06c1.23-.19,2.45-.43,3.66-.73s2.58-.74,3.84-1.2c.57-.21,1.14-.43,1.7-.66l.44-.19.85-.38c1.27-.59,2.52-1.24,3.75-1.91-.53-1.54-1.28-3.73-2.13-6.3l-.54.26a47.93,47.93,0,0,1-16.63,3.7,63.39,63.39,0,0,1-17.37-1.51,61.66,61.66,0,0,1-12.22-3.9,15.8,15.8,0,0,1-1.9-1c-1.29,3.92-2.41,7.22-3.09,9.2C120,429.64,120.25,429.8,120.57,429.94Z" transform="translate(-42.15 -305.58)"/><path class="cls-22" d="M134.7,404c1.81.44,3.64.76,5.48,1l.68.1.25,0,1.4.14q1.25.1,2.49.15c1.86.07,3.73,0,5.6-.08.93-.06,1.87-.14,2.8-.25l.86-.11,1.15-.17a69.78,69.78,0,0,0,9.66-2.36c-.61-2.17-1.16-4.24-1.62-6.13a111.67,111.67,0,0,1-12.74,1.59,59.79,59.79,0,0,1-13.49-1c-1.95-.34-3.82-.91-5.73-1.44l-1.33-.36c-.49,2.09-1.11,4.46-1.81,6.95C130.45,402.83,132.57,403.46,134.7,404Z" transform="translate(-42.15 -305.58)"/><path class="cls-23" d="M136.77,363.25h0a2.59,2.59,0,0,1-2.58-2.58v-14.2l5.16-2.11v16.31A2.59,2.59,0,0,1,136.77,363.25Z" transform="translate(-42.15 -305.58)"/><path class="cls-23" d="M156.51,363.25h0a2.58,2.58,0,0,0,2.57-2.58v-14.2l-5.15-2.11v16.31A2.58,2.58,0,0,0,156.51,363.25Z" transform="translate(-42.15 -305.58)"/><path class="cls-24" d="M158.76,438.44v-4.1c0-3.27,3.14-5.92,7-5.92h0c3.88,0,7,2.65,7,5.92v4.1" transform="translate(-42.15 -305.58)"/><polygon class="cls-25" points="110.84 153.45 109.24 150.46 111.89 131.63 114.21 133.4 110.84 153.45"/><polygon class="cls-26" points="111.89 131.63 136.53 131.63 137.46 133.4 114.21 133.4 111.89 131.63"/><polygon class="cls-27" points="140.82 153.45 110.84 153.45 114.21 133.4 137.46 133.4 140.82 153.45"/><path class="cls-28" d="M174.86,449a23.31,23.31,0,0,1-7.49,2.37,14.88,14.88,0,0,1-7.78-1.22,15.22,15.22,0,0,1-4.6-3.06L153,459h30l-2.38-14.19A20.3,20.3,0,0,1,174.86,449Z" transform="translate(-42.15 -305.58)"/><rect class="cls-25" x="163.44" y="444.05" width="9.08" height="9.08" transform="translate(324.26 -292.97) rotate(45)"/><path class="cls-29" d="M161,441v-4.1c0-3.27,3.14-5.93,7-5.93h0c3.88,0,7,2.66,7,5.93V441" transform="translate(-42.15 -305.58)"/><polygon class="cls-30" points="193.79 153.45 158.08 153.45 161.55 118.69 190.33 118.69 193.79 153.45"/><path class="cls-31" d="M232.15,443.29c-10,2-20.32.24-29.76-3.33l-.25-.1L200.23,459h35.71l-1.62-16.24C233.6,443,232.88,443.15,232.15,443.29Z" transform="translate(-42.15 -305.58)"/><circle class="cls-32" cx="175.94" cy="136.07" r="8.59"/><path class="cls-33" d="M206,423.12v-5.65a8.17,8.17,0,0,1,8.17-8.17h0a8.16,8.16,0,0,1,8.16,8.17v5.65" transform="translate(-42.15 -305.58)"/><polygon class="cls-32" points="161.55 118.69 158.08 116.38 154.55 148.43 158.08 153.45 161.55 118.69"/><polygon class="cls-34" points="158.08 116.38 187.01 116.38 190.33 118.69 161.55 118.69 158.08 116.38"/><path class="cls-35" d="M209.92,428.88v-5.66a8.16,8.16,0,0,1,8.17-8.16h0a8.16,8.16,0,0,1,8.16,8.16v5.66" transform="translate(-42.15 -305.58)"/><polygon class="cls-36" points="271.75 141.45 271.09 146.36 269.66 148.26 264.43 145.54 264.17 139.08 271.75 141.45"/><path class="cls-37" d="M313.23,451.26a11.12,11.12,0,0,1,2,4.82s-4.54,7.36-9.45,8.81-4.9-2.87-4.9-2.91c0-3.2,4.93-4.19,5.36-7.17.18-1.28-.37-4.09,1.27-4.55s2.81,0,3.72,2.41C311.23,452.67,312.87,453.26,313.23,451.26Z" transform="translate(-42.15 -305.58)"/><path class="cls-38" d="M315,455s-4.26,6.63-7.53,8.08-4.73,1.55-6.27.46" transform="translate(-42.15 -305.58)"/><path class="cls-38" d="M306.35,463.56s-.94-3.33-5.11-3" transform="translate(-42.15 -305.58)"/><path class="cls-38" d="M313.16,457.65s-1.69-3.13.74-5.35" transform="translate(-42.15 -305.58)"/><path class="cls-38" d="M305.86,455.88a2,2,0,0,1,2.48,1.34" transform="translate(-42.15 -305.58)"/><path class="cls-38" d="M305.2,456.78s1.86-.84,2.24,1.53" transform="translate(-42.15 -305.58)"/><path class="cls-38" d="M304.33,457.62s1.87-.84,2.25,1.52" transform="translate(-42.15 -305.58)"/><polygon class="cls-36" points="284.94 144.35 283.38 150.72 277.84 150.72 277.84 141.99 284.94 144.35"/><path class="cls-37" d="M321.06,455.67s.69-2.85,3.34-2.23,2.12,4.46,2.12,4.46l2.79,6.91s.95,2.09-.34,3.07a5.92,5.92,0,0,1-4.36.48c-1.5-.41-2.93-2.86-4.23-6.14s-1.15-4.63-1.15-4.63l.81-4.24a2.76,2.76,0,0,1,.21,1.65C320,455.82,321.06,455.67,321.06,455.67Z" transform="translate(-42.15 -305.58)"/><path class="cls-38" d="M329.65,466.49a4.69,4.69,0,0,1-4.63,1c-3.26-1.22-5.66-10.54-5.66-10.54" transform="translate(-42.15 -305.58)"/><path class="cls-38" d="M328.93,463.89s-3.5-3.26-6.28,1.23" transform="translate(-42.15 -305.58)"/><path class="cls-38" d="M327.75,461s-3-1.41-4.44.84" transform="translate(-42.15 -305.58)"/><path class="cls-38" d="M327.09,459.68s-3-1.41-4.44.84" transform="translate(-42.15 -305.58)"/><path class="cls-38" d="M326.72,458.08s-3-1.41-4.44.84" transform="translate(-42.15 -305.58)"/><path class="cls-39" d="M333.61,385.44s-17.26,1.81-30.16,0l-4.18,38.15,7.09,24h8.9s.73-17.26-5.09-25.61l7.45-24.9,3.27,27.08-1.45,25.8,7.86,1.4A229.85,229.85,0,0,0,333.61,385.44Z" transform="translate(-42.15 -305.58)"/><polyline class="cls-40" points="269.66 86.21 275.47 91.48 278.74 118.55 277.29 144.35"/><path class="cls-40" d="M316.35,395.91s-7.27,23.5-8.18,25,3.64,6.54,4.09,11.62,1,15.08,1,15.08" transform="translate(-42.15 -305.58)"/><path class="cls-40" d="M332.63,385.44s.27,7-.29,23.71c-.59,17.46-6.09,41.88-6.09,41.88" transform="translate(-42.15 -305.58)"/><path class="cls-40" d="M327.17,386.17a3.82,3.82,0,0,0,.36,2,10.46,10.46,0,0,0,5.06,5.36" transform="translate(-42.15 -305.58)"/><path class="cls-40" d="M308.35,386c.06.32-.19.61-.42.84a11.9,11.9,0,0,1-2.08,1.8,4.64,4.64,0,0,1-2.58.82" transform="translate(-42.15 -305.58)"/><path class="cls-36" d="M319,346.59l1.4-4.35,9,3.63-1.5,3.68,1.26.54a10,10,0,0,1,1.77,1,5.22,5.22,0,0,1,1.51,1.23,18.2,18.2,0,0,1-3.91,1.92,23.63,23.63,0,0,1-4.21,1.23,5.75,5.75,0,0,1-4.2-.42c-3.59-2.41-3.54-9.1-3.54-9.1Z" transform="translate(-42.15 -305.58)"/><path class="cls-41" d="M328.92,350l-.34.06h0l-.23,0h-.52l-1,0a17.44,17.44,0,0,1-2-.2l-.16,0h0l.15,0-.21-.05-.42-.08-.75-.2c-.23-.07-.46-.14-.69-.23l-.36-.14-.08,0L322,349a10.83,10.83,0,0,1-1.4-.91l-.29-.23-.28-.23-.15-.14-.28-.26-.6-.62,1.39-4.32,9,3.63-1.5,3.68Z" transform="translate(-42.15 -305.58)"/><path class="cls-36" d="M330,324l2.71.87a7.3,7.3,0,0,1,4.7,9.18l-2.28,7.06a8.71,8.71,0,0,1-16.58-5.36l2.28-7.06A7.28,7.28,0,0,1,330,324Z" transform="translate(-42.15 -305.58)"/><path class="cls-36" d="M333.63,336.27c-.68,2.1.11,4.24,1.76,4.77s3.54-.74,4.22-2.84-.11-4.24-1.76-4.77S334.31,334.17,333.63,336.27Z" transform="translate(-42.15 -305.58)"/><path class="cls-42" d="M335.05,338a3.35,3.35,0,0,1,4.05-2.51" transform="translate(-42.15 -305.58)"/><path class="cls-42" d="M336.64,338.28a1.88,1.88,0,0,0,.41-1.2,1.82,1.82,0,0,0-.47-1.18" transform="translate(-42.15 -305.58)"/><path class="cls-43" d="M330.42,329.49a10,10,0,0,1,1.2.41l.75.35a1.64,1.64,0,0,1,.29.16,3.09,3.09,0,0,1,.38.35.84.84,0,0,1,.22.52.9.9,0,0,1-.14.58.94.94,0,0,1-1,.36l-.1,0a2.54,2.54,0,0,1-.6-.22l-.53-.2a9.55,9.55,0,0,0-1.08-.3,1.08,1.08,0,0,1-.61-.52,1,1,0,0,1,1.25-1.47Z" transform="translate(-42.15 -305.58)"/><path class="cls-43" d="M328.64,334.18c-.24.76-.14,1.47.22,1.59s.86-.4,1.11-1.16.14-1.46-.22-1.58S328.89,333.43,328.64,334.18Z" transform="translate(-42.15 -305.58)"/><path class="cls-43" d="M323.11,332.87c-.26.8-.17,1.54.2,1.66s.87-.43,1.13-1.23.17-1.54-.2-1.66S323.37,332.08,323.11,332.87Z" transform="translate(-42.15 -305.58)"/><path class="cls-43" d="M322.37,328.64a1.73,1.73,0,0,1,.51-.29,4.4,4.4,0,0,1,2-.36,2.78,2.78,0,0,1,1.12.36,2.36,2.36,0,0,1,.43.35,1,1,0,0,1,.25.59v0a.67.67,0,0,1-.76.8,1.07,1.07,0,0,1-.31-.06l-.18-.09h0l-.36-.12-.28,0h-.22c-.15,0-.29.05-.42.09l-.21.06c-.07,0-.28.13,0,0a1.29,1.29,0,0,1-1.58-.07A.92.92,0,0,1,322.37,328.64Z" transform="translate(-42.15 -305.58)"/><path class="cls-44" d="M330.14,336.74c-.23.73.43,1.6,1.48,1.94s2.09,0,2.33-.71-.43-1.6-1.48-1.94S330.38,336,330.14,336.74Z" transform="translate(-42.15 -305.58)"/><path class="cls-44" d="M319.17,335.27c-.23.73.43,1.6,1.48,1.94s2.09,0,2.33-.71-.43-1.6-1.48-1.94S319.41,334.54,319.17,335.27Z" transform="translate(-42.15 -305.58)"/><path class="cls-42" d="M326.8,330.45a6.66,6.66,0,0,1-1.27,3c-.35.46-.76.87-1.08,1.35a2.39,2.39,0,0,0-.46,1.62,2.3,2.3,0,0,0,2,1.71" transform="translate(-42.15 -305.58)"/><path class="cls-45" d="M324.39,342.26a7.39,7.39,0,0,0,1.83.35,1.4,1.4,0,0,0-.54.87,3.16,3.16,0,0,1-1.23-.92,2.4,2.4,0,0,1-.27-.38Z" transform="translate(-42.15 -305.58)"/><path class="cls-44" d="M326.73,342.62a6.85,6.85,0,0,0,2-.32,3.38,3.38,0,0,1-1.87,1.34,2.14,2.14,0,0,1-1-.07A1.27,1.27,0,0,1,326.73,342.62Z" transform="translate(-42.15 -305.58)"/><path class="cls-46" d="M330.13,340.69l-.29.33c-.22.26-.46.52-.68.81l-.07.09h0a7,7,0,0,1-5.07-.1h0a10.68,10.68,0,0,1-.53-1.34l0-.06.38.19A8.09,8.09,0,0,0,330.13,340.69Z" transform="translate(-42.15 -305.58)"/><path class="cls-45" d="M323,340.13l.15.44a6.42,6.42,0,0,0,1.05,2.17,3.5,3.5,0,0,0,1.55,1.08,2.46,2.46,0,0,0,1.18.09,4.29,4.29,0,0,0,2.42-1.91c.21-.28.45-.54.67-.8s.46-.52.68-.81a.13.13,0,0,0-.17-.2,7.93,7.93,0,0,1-6.65.17,3.39,3.39,0,0,1-.67-.39.12.12,0,0,0-.16,0A.14.14,0,0,0,323,340.13Zm2.91,3.44a1.27,1.27,0,0,1,.79-.95,6.85,6.85,0,0,0,2-.32,3.38,3.38,0,0,1-1.87,1.34A2.14,2.14,0,0,1,325.94,343.57Zm-1.76-1.39.21.08a7.39,7.39,0,0,0,1.83.35,1.4,1.4,0,0,0-.54.87,3.16,3.16,0,0,1-1.23-.92A2.4,2.4,0,0,1,324.18,342.18Zm-.76-1.76.38.19a8.09,8.09,0,0,0,6.33.08l-.29.33c-.22.26-.46.52-.68.81l-.07.09h0a7,7,0,0,1-5.07-.1h0a10.68,10.68,0,0,1-.53-1.34Z" transform="translate(-42.15 -305.58)"/><path class="cls-47" d="M315.56,322.77a.59.59,0,0,1,.3-.38l.07-.09a9.91,9.91,0,0,1,8.15-2.81c-.25-1.11-.51-2.23-.77-3.34a.67.67,0,0,1,.45-.8,7.93,7.93,0,0,1,7.9,3.64,6.62,6.62,0,0,0,0-2.39c-.09-.49.44-1.07.93-.72a15.85,15.85,0,0,1,5.7,7.65A5,5,0,0,0,340,321.3a.62.62,0,0,1,1-.27,7.09,7.09,0,0,1,2,7.71l1.61-.21a.59.59,0,0,1,.58.58,4.5,4.5,0,0,1-2.38,3.76,10.11,10.11,0,0,1-5.12,1,4.61,4.61,0,0,0-1.82,1.66.67.67,0,0,1-1.16-.68c1.45-3.23-.36-7-3.31-8.69-2.61-1.48-5.71-1.07-8.41-.08-.46.17-.95.79-1.41.86-.92.13-1.79-1.12-2.39-1.64a7,7,0,0,0-3.2-1.72A.65.65,0,0,1,315.56,322.77Z" transform="translate(-42.15 -305.58)"/><path class="cls-48" d="M346.28,375s2.6-1.73,6-11.64l-5.49.52Z" transform="translate(-42.15 -305.58)"/><path class="cls-36" d="M348.44,364.88a9.33,9.33,0,0,0-2.94,3.06c-.54,1-.79,2.74.38,3.42a.25.25,0,0,0,.15.2,48.1,48.1,0,0,0,4.53,1.82,42.75,42.75,0,0,0,4.73,1.25,54.62,54.62,0,0,0,13.33.91,4.7,4.7,0,0,1,.92,0c1.28.2,2.46.7,3.76.84a12.09,12.09,0,0,0,4.28-.31c1.07-.28,2.43-.9,2.22-2.13a1,1,0,0,0-.06-.18.75.75,0,0,0-.07-.12c1.16-.41,2.48-1.12,1.75-2.13A1.88,1.88,0,0,0,380,371c.64-.39,1.27-1,.84-1.67a.69.69,0,0,0-.93-.77l-.61.23a10.92,10.92,0,0,1-6,.69c.19-.21.35-.45.51-.65.68-.8,1.48-1.9.76-3a.72.72,0,0,0-.78-.25c-1.32.29-1.75,1.52-2.79,2.15a4.42,4.42,0,0,1-2.25.39c-.88,0-1.76,0-2.64,0A39.9,39.9,0,0,1,356,366.75a30.06,30.06,0,0,1-3.47-1.29q-.48-.3-.93-.63a3.24,3.24,0,0,0-1-.59A2.81,2.81,0,0,0,348.44,364.88Z" transform="translate(-42.15 -305.58)"/><path class="cls-49" d="M373.71,372a15.78,15.78,0,0,0,2.57-.09,9.74,9.74,0,0,0,3.28-.84,2.47,2.47,0,0,0,1.23-1,1.47,1.47,0,0,0,.15-.71,1.16,1.16,0,0,0-.18-.56.82.82,0,0,0-.52-.32" transform="translate(-42.15 -305.58)"/><path class="cls-49" d="M374.3,374.07a16,16,0,0,0,5.69-.48c.91-.32,2-1.15,1.27-2.13-.35-.49-.88-.48-1.45-.54" transform="translate(-42.15 -305.58)"/><path class="cls-50" d="M326.49,357s.87,6.15,8.56,11.58S346.28,375,346.28,375s.91-5.4,1.76-7c.74-1.38,4.2-4.65,4.2-4.65S337.23,346.4,326.49,357Z" transform="translate(-42.15 -305.58)"/><path class="cls-48" d="M287.94,352s-.45-3.1,4.68-12.21l3.28,4.43Z" transform="translate(-42.15 -305.58)"/><path class="cls-36" d="M294,343.58a9.4,9.4,0,0,1-.31,4.23c-.38,1.06-1.52,2.42-2.8,2a.24.24,0,0,1-.25,0,48,48,0,0,1-4.38-2.15A42.38,42.38,0,0,1,282.2,345a54.82,54.82,0,0,1-9.58-9.31A4.52,4.52,0,0,0,272,335c-1-.82-2.16-1.36-3.13-2.23a11.87,11.87,0,0,1-2.62-3.4c-.51-1-1-2.41.1-3.07a.53.53,0,0,1,.17-.08l.13,0c-.47-1.14-.81-2.6.42-2.73a1.85,1.85,0,0,1,1.41.71c-.14-.74-.12-1.61.69-1.74a.68.68,0,0,1,1.19.17l.24.61a11,11,0,0,0,3.47,4.91c0-.29.1-.56.14-.82.15-1,.43-2.37,1.72-2.56a.72.72,0,0,1,.71.42c.67,1.17,0,2.31.26,3.51a4.43,4.43,0,0,0,1.21,1.93c.58.66,1.18,1.32,1.78,2a38.81,38.81,0,0,0,7.74,6.63,27.63,27.63,0,0,0,3.27,1.73c.36.1.73.19,1.09.27a3,3,0,0,1,1.09.34A2.78,2.78,0,0,1,294,343.58Z" transform="translate(-42.15 -305.58)"/><path class="cls-49" d="M271.89,329.49a17.38,17.38,0,0,1-1.65-2,10,10,0,0,1-1.56-3,2.55,2.55,0,0,1-.06-1.61,1.57,1.57,0,0,1,.43-.58,1.1,1.1,0,0,1,.54-.24.76.76,0,0,1,.58.17" transform="translate(-42.15 -305.58)"/><path class="cls-49" d="M269.92,330.47a15.77,15.77,0,0,1-3.43-4.56c-.38-.89-.48-2.24.73-2.37.6-.06.94.34,1.37.72" transform="translate(-42.15 -305.58)"/><path class="cls-50" d="M314.55,354.66s-5.17,3.47-14.34,1.37S287.94,352,287.94,352s3.41-4.29,4-6c.54-1.47.66-6.23.66-6.23S315.27,339.58,314.55,354.66Z" transform="translate(-42.15 -305.58)"/><path class="cls-51" d="M304.75,354.6c1.73-6.51,7.75-10.17,12.78-8.36l.16.06.12.88a12.55,12.55,0,0,0,.92,3.71,5.29,5.29,0,0,0,2.81,2.64,6.4,6.4,0,0,0,4.79,0,8.3,8.3,0,0,0,2.16-1.24,5.78,5.78,0,0,0,1.52-1.71l2.1.72a10.11,10.11,0,0,1,6.39,12c-2.56,9.59-3.78,15.71-3.62,25.66l-34.82,0C299.86,376,301.44,367,304.75,354.6Z" transform="translate(-42.15 -305.58)"/><polygon class="cls-52" points="208.12 72.8 237.9 84.09 245.03 46.17 221.04 37.07 208.12 72.8"/><path class="cls-53" d="M258,362.91c7.76,5.28,16.88,6.68,25.77,5.88l.24,0-3.93,20.91-29.78-11.3,6-16.69C256.85,362.12,257.4,362.53,258,362.91Z" transform="translate(-42.15 -305.58)"/><path class="cls-54" d="M263,362.9c1.37-5,5.68-7.88,9.64-6.38s6.05,6.79,4.68,11.81-5.68,7.88-9.63,6.38S261.64,367.93,263,362.9Z" transform="translate(-42.15 -305.58)"/><polygon class="cls-18" points="245.03 46.17 248.59 44.83 242.29 79.9 237.9 84.09 245.03 46.17"/><polygon class="cls-54" points="248.59 44.83 224.47 35.68 221.04 37.07 245.03 46.17 248.59 44.83"/><path class="cls-54" d="M283.83,331a5.76,5.76,0,0,0-.72-.56,4,4,0,0,0-4.23-.29c-.16.07-.77.26-.92.36a13.54,13.54,0,0,0,1.57,1.76h1.26a1.73,1.73,0,0,1,1.41.49c1.91,1.83,1.67,5.25,1.16,7.58a58.63,58.63,0,0,1-2,6.28l-2.4,7a1.48,1.48,0,0,0,.67,1.64,1.46,1.46,0,0,0,2.14-.86c1-2.92,2-5.84,2.93-8.76.86-2.62,1.76-5.36,1.64-8.15C286.25,335.19,285.55,332.55,283.83,331Z" transform="translate(-42.15 -305.58)"/><path class="cls-55" d="M273.79,337.13l-.11-.17q-.35-.42-.66-.87a3.08,3.08,0,0,1-.4-.41,10,10,0,0,1-.75,1.1,10.69,10.69,0,0,0-1.05,1.87,20.58,20.58,0,0,0-.88,2.12c-.12.35-.24.7-.34,1.05a3.57,3.57,0,0,0-.26,1.32,1.36,1.36,0,0,0,2.54.68,3.84,3.84,0,0,0,.39-1.2c.09-.33.18-.67.28-1,.21-.66.43-1.31.69-1.95l.1-.24c0,.11,0,.1,0-.05s.14-.32.22-.47c.17-.38.35-.75.5-1.13,0-.09.09-.18.13-.27A3.07,3.07,0,0,1,273.79,337.13Z" transform="translate(-42.15 -305.58)"/><path class="cls-25" d="M357.5,374.91a.87.87,0,0,1-.36,0c-.33-.1-.68-.11-1-.19a.58.58,0,0,1-.26-.13h0l-.24,0-.06.13a12,12,0,0,0-.78,3.06,1.14,1.14,0,0,0,1.13,1.13,1.16,1.16,0,0,0,1.13-1.13q0-.36.06-.72c0-.12,0-.24,0-.36v-.08c.08-.46.17-.92.29-1.38l.1-.28Z" transform="translate(-42.15 -305.58)"/><polygon class="cls-56" points="306.06 99.91 304.45 95.99 307.11 71.3 309.42 73.61 306.06 99.91"/><polygon class="cls-57" points="307.11 71.3 331.74 71.3 332.67 73.61 309.42 73.61 307.11 71.3"/><polygon class="cls-58" points="336.04 99.91 306.06 99.91 309.42 73.61 332.67 73.61 336.04 99.91"/><path class="cls-57" d="M370.07,392.37a19.59,19.59,0,0,1-7.49,3.09,11.65,11.65,0,0,1-7.77-1.59,15.53,15.53,0,0,1-4.6-4l-2,15.64h30l-2.39-18.62A21.6,21.6,0,0,1,370.07,392.37Z" transform="translate(-42.15 -305.58)"/><polygon class="cls-25" points="321.05 94.64 314.62 86.22 321.05 77.79 327.47 86.22 321.05 94.64"/><path class="cls-25" d="M369.83,377.87a20.46,20.46,0,0,0-.47-3.31,29.62,29.62,0,0,0-2.16-6.18,6.11,6.11,0,0,0-4.18-3.6c-2-.31-3.57.9-4.89,2.18a.56.56,0,0,0-.15.31H358c.48.07,1,.15,1.44.26,1.11-.74,2.4-1.46,3.67-.77s2,2.41,2.51,3.79a29.29,29.29,0,0,1,1.52,5.18,16.17,16.17,0,0,1,.3,2.69c0,.95-.23,1.84.42,2.62a1,1,0,0,0,1.39,0C370.11,380.36,369.88,378.83,369.83,377.87Z" transform="translate(-42.15 -305.58)"/></svg>