<svg id="Layer_1" data-name="Layer 1" xmlns="http://www.w3.org/2000/svg" viewBox="0 0 591.17 411.95"><defs><style>.cls-1{fill:#b04149;}.cls-2{fill:#c94a54;}.cls-3{fill:#801b22;}.cls-4{fill:#992029;}.cls-5{fill:#c43540;}.cls-6{fill:#405b73;}.cls-7{fill:#fa8383;}.cls-8{fill:#bf2833;}.cls-9{fill:#821b23;}.cls-10{fill:#d13b45;}.cls-11{fill:#e84f4f;}.cls-12{fill:#334b61;}.cls-13{fill:#223140;}.cls-14{opacity:0.3;}.cls-15{fill:#bcf2f1;}.cls-16{fill:#7a141c;}.cls-17{fill:#ff6e3d;}.cls-18{fill:#ffd6c2;}.cls-19{fill:#ffc0a1;}</style></defs><title>37</title><rect class="cls-1" x="85.65" y="332.19" width="420.89" height="63.84"/><rect class="cls-2" x="27.76" y="111.71" width="533.46" height="284.32"/><rect class="cls-2" x="2221.82" y="1736.91" width="60.97" height="63.84" transform="translate(2785.95 2132.93) rotate(180)"/><rect class="cls-2" x="1746.42" y="1736.91" width="60.97" height="63.84" transform="translate(1835.15 2132.93) rotate(180)"/><rect class="cls-2" x="1746.42" y="1532.35" width="60.97" height="204.56" transform="translate(1835.15 1864.54) rotate(180)"/><rect class="cls-2" x="345.33" y="127.63" width="161.2" height="204.56"/><rect class="cls-2" x="503.16" y="127.63" width="60.97" height="204.56"/><rect class="cls-2" x="246.85" y="127.63" width="98.48" height="268.4"/><rect class="cls-2" x="9.81" y="396.03" width="572.56" height="15.92"/><rect class="cls-3" x="1902.38" y="1663.71" width="224.75" height="81.17" transform="translate(2000.39 -1715.18) rotate(90)"/><rect class="cls-4" x="258.61" y="190.3" width="74.97" height="221.65"/><rect class="cls-5" x="2219.6" y="1532.64" width="4.44" height="268.4" transform="translate(2724.98 1928.97) rotate(180)"/><rect class="cls-6" x="269.61" y="201.17" width="52.95" height="121.9"/><rect class="cls-6" x="258.61" y="136.75" width="74.98" height="37.69"/><rect class="cls-2" x="85.65" y="127.63" width="161.2" height="204.56"/><rect class="cls-6" x="513.92" y="136.75" width="39.91" height="186.32"/><rect class="cls-7" x="1757.01" y="1746.12" width="39.92" height="45.44" transform="translate(1835.28 2132.96) rotate(180)"/><polygon class="cls-5" points="78.26 341.41 78.26 386.85 38.35 386.85 42.48 382.72 58.31 364.13 78.26 341.41"/><rect class="cls-2" x="1758.38" y="1753.01" width="37.18" height="31.66" transform="translate(1827.15 -1412.85) rotate(90)"/><rect class="cls-7" x="1817.75" y="1746.11" width="134.32" height="45.44" transform="translate(2051.16 2132.93) rotate(180)"/><polygon class="cls-5" points="99.09 386.83 103.22 382.7 229.28 345.52 233.41 341.39 233.41 386.83 99.09 386.83"/><rect class="cls-2" x="1866.32" y="1705.79" width="37.18" height="126.07" transform="translate(1935.08 -1520.8) rotate(90)"/><rect class="cls-7" x="513.92" y="341.4" width="39.92" height="45.44"/><polygon class="cls-5" points="553.83 341.41 553.83 386.85 513.92 386.85 518.05 382.72 533.88 364.13 553.83 341.41"/><rect class="cls-2" x="2233.95" y="1753.01" width="37.18" height="31.66" transform="translate(2302.72 -1888.42) rotate(90)"/><rect class="cls-7" x="358.08" y="341.39" width="134.33" height="45.44"/><polygon class="cls-5" points="358.08 386.83 362.21 382.7 488.27 345.52 492.4 341.39 492.4 386.83 358.08 386.83"/><rect class="cls-2" x="2125.31" y="1705.79" width="37.18" height="126.07" transform="translate(2194.07 -1779.79) rotate(90)"/><rect class="cls-8" x="269.62" y="341.39" width="52.95" height="45.44"/><polygon class="cls-9" points="269.62 386.83 273.75 382.7 318.44 345.52 322.57 341.39 322.57 386.83 269.62 386.83"/><rect class="cls-4" x="1996.17" y="1746.48" width="37.18" height="44.69" transform="translate(2064.92 -1650.65) rotate(90)"/><rect class="cls-6" x="358.07" y="201.17" width="39.92" height="57.48"/><rect class="cls-6" x="358.07" y="265.61" width="39.92" height="57.47"/><rect class="cls-6" x="358.07" y="136.75" width="39.92" height="57.47"/><rect class="cls-6" x="405.28" y="201.17" width="39.92" height="57.48"/><rect class="cls-6" x="405.28" y="265.61" width="39.92" height="57.47"/><rect class="cls-6" x="405.28" y="136.75" width="39.92" height="57.47"/><rect class="cls-6" x="452.48" y="201.17" width="39.92" height="57.48"/><rect class="cls-6" x="452.48" y="265.61" width="39.92" height="57.47"/><rect class="cls-6" x="452.48" y="136.75" width="39.92" height="57.47"/><rect class="cls-6" x="99.08" y="201.17" width="39.92" height="57.48"/><rect class="cls-6" x="99.08" y="265.61" width="39.92" height="57.47"/><rect class="cls-6" x="99.08" y="136.75" width="39.92" height="57.47"/><rect class="cls-6" x="146.29" y="201.17" width="39.92" height="57.48"/><rect class="cls-6" x="146.29" y="265.61" width="39.92" height="57.47"/><rect class="cls-6" x="146.29" y="136.75" width="39.92" height="57.47"/><rect class="cls-6" x="193.49" y="201.17" width="39.92" height="57.48"/><rect class="cls-6" x="193.49" y="265.61" width="39.92" height="57.47"/><rect class="cls-6" x="193.49" y="136.75" width="39.92" height="57.47"/><rect class="cls-4" x="2.03" width="587.82" height="97.56"/><rect class="cls-10" width="4.07" height="97.56"/><rect class="cls-10" x="20.97" width="4.07" height="97.56"/><rect class="cls-10" x="41.94" width="4.07" height="97.56"/><rect class="cls-10" x="62.9" width="4.07" height="97.56"/><rect class="cls-10" x="83.87" width="4.07" height="97.56"/><rect class="cls-10" x="104.84" width="4.07" height="97.56"/><rect class="cls-10" x="125.81" width="4.07" height="97.56"/><rect class="cls-10" x="146.78" width="4.07" height="97.56"/><rect class="cls-10" x="167.74" width="4.07" height="97.56"/><rect class="cls-10" x="188.71" width="4.07" height="97.56"/><rect class="cls-10" x="209.68" width="4.07" height="97.56"/><rect class="cls-10" x="230.65" width="4.07" height="97.56"/><rect class="cls-10" x="251.61" width="4.07" height="97.56"/><rect class="cls-10" x="272.58" width="4.07" height="97.56"/><rect class="cls-10" x="293.55" width="4.07" height="97.56"/><rect class="cls-10" x="314.52" width="4.07" height="97.56"/><rect class="cls-10" x="335.49" width="4.07" height="97.56"/><rect class="cls-10" x="356.45" width="4.07" height="97.56"/><rect class="cls-10" x="377.42" width="4.07" height="97.56"/><rect class="cls-10" x="398.39" width="4.07" height="97.56"/><rect class="cls-10" x="419.36" width="4.07" height="97.56"/><rect class="cls-10" x="440.33" width="4.07" height="97.56"/><rect class="cls-10" x="461.29" width="4.07" height="97.56"/><rect class="cls-10" x="482.26" width="4.07" height="97.56"/><rect class="cls-10" x="503.23" width="4.07" height="97.56"/><rect class="cls-10" x="524.2" width="4.07" height="97.56"/><rect class="cls-10" x="545.16" width="4.07" height="97.56"/><rect class="cls-10" x="566.13" width="4.07" height="97.56"/><rect class="cls-10" x="587.1" width="4.07" height="97.56"/><rect class="cls-7" x="18.24" y="104.96" width="555.41" height="15.92"/><rect class="cls-11" x="18.24" y="97.56" width="555.41" height="12.24"/><rect class="cls-5" x="18.24" y="120.89" width="555.41" height="6.74"/><rect class="cls-7" x="2282.79" y="1522.17" width="9.52" height="278.58" transform="translate(2856.44 1918.2) rotate(180)"/><rect class="cls-7" x="2059.14" y="1522.17" width="9.52" height="278.58" transform="translate(2409.14 1918.2) rotate(180)"/><rect class="cls-7" x="1960.16" y="1522.17" width="9.52" height="278.58" transform="translate(2211.19 1918.2) rotate(180)"/><rect class="cls-6" x="38.06" y="136.75" width="39.91" height="186.32"/><rect class="cls-6" x="99.08" y="201.17" width="39.92" height="57.48"/><rect class="cls-6" x="1817.75" y="1670.32" width="39.92" height="57.47" transform="translate(1956.76 1993.4) rotate(180)"/><polygon class="cls-12" points="274.08 204.64 322.57 204.64 322.57 201.17 269.62 201.17 269.62 323.07 274.08 323.07 274.08 204.64"/><polygon class="cls-12" points="263.07 140.21 333.58 140.21 333.58 136.74 258.61 136.74 258.61 174.44 263.07 174.44 263.07 140.21"/><polygon class="cls-12" points="103.55 140.21 139.01 140.21 139.01 136.74 99.09 136.74 99.09 194.21 103.55 194.21 103.55 140.21"/><polygon class="cls-12" points="103.55 204.64 139.01 204.64 139.01 201.17 99.09 201.17 99.09 258.64 103.55 258.64 103.55 204.64"/><polygon class="cls-12" points="103.55 269.07 139.01 269.07 139.01 265.6 99.09 265.6 99.09 323.07 103.55 323.07 103.55 269.07"/><polygon class="cls-12" points="150.75 140.21 186.21 140.21 186.21 136.74 146.29 136.74 146.29 194.21 150.75 194.21 150.75 140.21"/><polygon class="cls-12" points="150.75 204.64 186.21 204.64 186.21 201.17 146.29 201.17 146.29 258.64 150.75 258.64 150.75 204.64"/><polygon class="cls-12" points="150.75 269.07 186.21 269.07 186.21 265.6 146.29 265.6 146.29 323.07 150.75 323.07 150.75 269.07"/><polygon class="cls-12" points="197.96 140.21 233.41 140.21 233.41 136.74 193.5 136.74 193.5 194.21 197.96 194.21 197.96 140.21"/><polygon class="cls-12" points="197.96 204.64 233.41 204.64 233.41 201.17 193.5 201.17 193.5 258.64 197.96 258.64 197.96 204.64"/><polygon class="cls-12" points="197.96 269.07 233.41 269.07 233.41 265.6 193.5 265.6 193.5 323.07 197.96 323.07 197.96 269.07"/><polygon class="cls-12" points="362.54 140.21 398 140.21 398 136.74 358.08 136.74 358.08 194.21 362.54 194.21 362.54 140.21"/><polygon class="cls-12" points="362.54 204.64 398 204.64 398 201.17 358.08 201.17 358.08 258.64 362.54 258.64 362.54 204.64"/><polygon class="cls-12" points="362.54 269.07 398 269.07 398 265.6 358.08 265.6 358.08 323.07 362.54 323.07 362.54 269.07"/><polygon class="cls-12" points="409.74 140.21 445.2 140.21 445.2 136.74 405.28 136.74 405.28 194.21 409.74 194.21 409.74 140.21"/><polygon class="cls-12" points="409.74 204.64 445.2 204.64 445.2 201.17 405.28 201.17 405.28 258.64 409.74 258.64 409.74 204.64"/><polygon class="cls-12" points="409.74 269.07 445.2 269.07 445.2 265.6 405.28 265.6 405.28 323.07 409.74 323.07 409.74 269.07"/><polygon class="cls-12" points="456.94 140.21 492.4 140.21 492.4 136.74 452.48 136.74 452.48 194.21 456.94 194.21 456.94 140.21"/><polygon class="cls-12" points="456.94 204.64 492.4 204.64 492.4 201.17 452.48 201.17 452.48 258.64 456.94 258.64 456.94 204.64"/><polygon class="cls-12" points="456.94 269.07 492.4 269.07 492.4 265.6 452.48 265.6 452.48 323.07 456.94 323.07 456.94 269.07"/><polygon class="cls-12" points="42.51 140.21 77.97 140.21 77.97 136.74 38.05 136.74 38.05 323.07 42.51 323.07 42.51 140.21"/><polygon class="cls-12" points="518.38 140.21 553.84 140.21 553.84 136.74 513.92 136.74 513.92 323.07 518.38 323.07 518.38 140.21"/><rect class="cls-7" x="18.24" y="117.45" width="9.52" height="278.58"/><path class="cls-13" d="M1839.93,1696.12h0S1839.94,1696,1839.93,1696.12Z" transform="translate(-1718.66 -1404.72)"/><path class="cls-13" d="M1856.66,1710a7.4,7.4,0,0,1-.11.84c-.65,3.22-2.35,6.79-2.58,8.89s-.41,3.52-.41,3.52h-8.08v-6.09s-3.8,5.68-7.49,6.09a34.48,34.48,0,0,1-9.36-.33,17.16,17.16,0,0,1-2.05-.49c-3-.94-6.32-.82-4.51-3,.53-.63,1.17-2.05,4.8-2.22s6.61-1.06,8.78-6.15,3.45-7.9,3.92-11.76c.28-2.32.35-3,.36-3.16h2.59l11.16,0a6.43,6.43,0,0,0,.52,4.67C1855.38,1702.67,1856.91,1706.82,1856.66,1710Z" transform="translate(-1718.66 -1404.72)"/><path class="cls-13" d="M1856.66,1710a7.4,7.4,0,0,1-.11.84c-.65,3.22-2.35,6.79-2.58,8.89s-.41,3.52-.41,3.52h-8.08v-6.09s-3.8,5.68-7.49,6.09a31.65,31.65,0,0,1-11.41-.82c-3-.94-6.32-.82-4.51-3,0,0,7.38,2.58,10.77,2.58s7-.65,9.25-3.34a22.23,22.23,0,0,1,7.08-5.79c2-.94,4.74-2,5.8-2.4C1855.48,1710.29,1856.12,1710.11,1856.66,1710Z" transform="translate(-1718.66 -1404.72)"/><path class="cls-13" d="M1842.52,1696.11a36,36,0,0,1-1.13,9.07,125.3,125.3,0,0,1-5,13.18c-.64,1.18-2.2,3.51-7.72,4.53a17.16,17.16,0,0,1-2.05-.49c-3-.94-6.32-.82-4.51-3,.53-.63,1.17-2.05,4.8-2.22s6.61-1.06,8.78-6.15,3.45-7.9,3.92-11.76c.28-2.32.35-3,.36-3.16Z" transform="translate(-1718.66 -1404.72)"/><path class="cls-13" d="M2113,1709.57a48.22,48.22,0,0,0-1.5,13.2h-1.26s.47-10.27.31-11.06-.39-2.06-2.21-1.11-5.85,5.69-7,8-1.35,4.35-7,4.74-17.94-.79-14.78-3.08c.69-.5,7.66-2.37,9.72-4a3.69,3.69,0,0,0,.45-.44c1.93-2.18,3.92-8.14,4.21-9.75s1.74-8.06,1.74-10.28v-3l15.41-2s-.63,1.18,0,4,2.92,8.69,3.32,10a2,2,0,0,1,0,.26C2114.59,1706.32,2113.51,1708,2113,1709.57Z" transform="translate(-1718.66 -1404.72)"/><path class="cls-13" d="M2113,1709.57a48.22,48.22,0,0,0-1.5,13.2h-1.26s.47-10.27.31-11.06-.39-2.06-2.21-1.11-5.85,5.69-7,8-1.35,4.35-7,4.74-17.94-.79-14.78-3.08c.69-.5,7.66-2.37,9.72-4a3.69,3.69,0,0,0,.45-.44c0,1.39.61,2.39,3.66.91,5.21-2.52,5.69-7.66,6.48-9.64a4.94,4.94,0,0,1,6.08-3,25.29,25.29,0,0,0,8.51,1C2114.59,1706.32,2113.51,1708,2113,1709.57Z" transform="translate(-1718.66 -1404.72)"/><path class="cls-13" d="M1903.9,1720.89a7.78,7.78,0,0,1-1.52,2.3h-8.61a4.21,4.21,0,0,0-3.62-2.81,9.43,9.43,0,0,0-6.83,2.19c-2.11,1.6-11.89.68-14.92-1.09A4.33,4.33,0,0,1,1866,1717a4.25,4.25,0,0,1,.29-1.14c.45-1.06,1.48-2,3.84-2.32,3.21-.42,7.17-3.17,9.45-5.13s4.3-4.33,5.73-4.91,2.36-.75,2.78.51,2.11-3.62,3-3.12.76,1.18,2.19,1.18,1.35,1.77.5,2.87-1.93,1.52-.67,2.11,3.12,1.26,3.54-.85a2.07,2.07,0,0,1,4-.08,23.48,23.48,0,0,1,1.26,6.32h0c.12.15,2.1,2.65,1.93,4a2.48,2.48,0,0,1-1.26,1.94S1904.08,1720,1903.9,1720.89Z" transform="translate(-1718.66 -1404.72)"/><path class="cls-13" d="M1903.9,1720.89a7.78,7.78,0,0,1-1.52,2.3h-8.61a4.21,4.21,0,0,0-3.62-2.81,9.43,9.43,0,0,0-6.83,2.19c-2.11,1.6-11.89.68-14.92-1.09A4.33,4.33,0,0,1,1866,1717a4.25,4.25,0,0,1,.29-1.14,11.78,11.78,0,0,0,5.36,1.39c4.22,0,10.27.51,13.31-1.35s6.08-2.44,10.64-2.44c0,0,3.62-2.53,4.8-1.86a13.86,13.86,0,0,0,1.6.84h0c.12.15,2.1,2.65,1.93,4a2.48,2.48,0,0,1-1.26,1.94S1904.08,1720,1903.9,1720.89Z" transform="translate(-1718.66 -1404.72)"/><path class="cls-13" d="M1948.13,1722.86c-3.71,1.21-10,0-10,0v-3.15l-1.05-.08-.65,3.39-10.24.38.48-2.4-.81-.16s.41,1.78-1,2.18-6.38.08-8.56-1.77-2.42-1.7-2.17-3.47a1,1,0,0,1,.22-.46,9.1,9.1,0,0,1,5.1-2.77c3.31-.73,11.21-6.29,12.59-7.42s2-4.2,3-4.76,2.74-2.1,4.28-3.31l2.09,1.18s5.33,0,5.57,1.4-.64,5.89-.4,7.75a40.34,40.34,0,0,0,1.22,5.64,6.19,6.19,0,0,0,1,2.1C1949.66,1718.18,1951.84,1721.65,1948.13,1722.86Z" transform="translate(-1718.66 -1404.72)"/><path class="cls-13" d="M1948.13,1722.86c-3.71,1.21-10,0-10,0v-3.15l-1.05-.08-.65,3.39-10.24.38.48-2.4-.81-.16s.41,1.78-1,2.18-6.38.08-8.56-1.77-2.42-1.7-2.17-3.47a1,1,0,0,1,.22-.46,2.27,2.27,0,0,0,1.87,1.59c2.59.32,4.68-.73,5.89,0s6.7.16,9.68-1,5.73,0,7.75,0,6.48.72,8.24-2.91a6.19,6.19,0,0,0,1,2.1C1949.66,1718.18,1951.84,1721.65,1948.13,1722.86Z" transform="translate(-1718.66 -1404.72)"/><path class="cls-13" d="M2127.21,1719.71s1.11-2,5.62-3.16,9.26-6.1,10.37-7.68c0,0,4.44-2.69,8.16-5.46a35,35,0,0,0,5.93-5.54,7,7,0,0,1,4,4,9.92,9.92,0,0,1,.47,5.46l-.31,15.67-7.84.39-.16-9.81s-4.11,4.43-4.67,6.09-3.72,3.57-5.85,3.72a122.7,122.7,0,0,1-13.62-.47A3,3,0,0,1,2127.21,1719.71Z" transform="translate(-1718.66 -1404.72)"/><path class="cls-13" d="M2208.83,1720.71c.4-2.65-1-8.43-1.68-8.35s-14.69,3.65-14.69,3.65a6,6,0,0,1,1-1.88,2.1,2.1,0,0,0,0-2.17c-1.37.48-9.63,4.25-15.17,5.7s-5.3,2.41-5.3,2.41c-.08,2,8.83,3,13.57,3a70.26,70.26,0,0,0,12.12-1.69v1.69l10.26-.49Z" transform="translate(-1718.66 -1404.72)"/><path class="cls-13" d="M1762.29,1721.2c0-.84,7.78-1.14,10-5s2.9-9.54,2.49-17.32-1.25-28.43-1.25-28.43,6-1.76,9.34-1.66,7.68-.2,8.09.62-.2,19.3-1.14,25-1.55,9.54-.52,12.45-.2,6.74-.2,6.74l-.52,8.92h-1s.52-6.85-.1-7.57-3.84.2-4.67,1.14-4.46,6.85-6.75,7.16C1772.48,1723.75,1762.29,1722.76,1762.29,1721.2Z" transform="translate(-1718.66 -1404.72)"/><path class="cls-13" d="M2235.59,1719s-.15-2.16,3.5-2.46,11.18-3.28,12.89-7.37,1.27-13.12,1.94-16.1,1.41-18,1.19-20c0,0,9.61-1.42,15.5.6,0,0,.52,12.66-1.64,18.62s-4.55,11-4.25,14.9,1.34,8.95,1.19,10.73a10.84,10.84,0,0,1,.3,1.79,13.74,13.74,0,0,1,.15,2.68,40.76,40.76,0,0,1-9.46.6s.37-2.38-2.24-1.71-5.73,2.16-8.19,2.16-10.06-.82-11.77-1.79C2234.7,1721.61,2233.65,1719.6,2235.59,1719Z" transform="translate(-1718.66 -1404.72)"/><g class="cls-14"><polygon class="cls-15" points="458.37 323.07 492.4 267.83 492.4 290.62 472.42 323.07 458.37 323.07"/><polygon class="cls-15" points="553.83 168.08 553.83 190.88 513.92 255.69 513.92 232.89 553.83 168.08"/><polygon class="cls-15" points="444.05 258.65 445.2 256.78 445.2 258.65 444.05 258.65"/><polygon class="cls-15" points="439.77 265.61 445.2 265.61 445.2 319.42 442.95 323.07 405.27 323.07 405.27 321.62 439.77 265.61"/><polygon class="cls-15" points="452.48 265.61 478.34 265.61 452.48 307.6 452.48 265.61"/><polygon class="cls-15" points="483.73 194.21 492.4 180.13 492.4 194.21 483.73 194.21"/><polygon class="cls-15" points="479.45 201.17 492.4 201.17 492.4 242.77 482.63 258.65 452.48 258.65 452.48 244.96 479.45 201.17"/><polygon class="cls-15" points="553.83 136.75 553.83 143.01 513.92 207.83 513.92 145.19 519.12 136.75 553.83 136.75"/><polygon class="cls-15" points="322.57 235.53 322.57 277.16 294.29 323.07 269.61 323.07 269.61 321.51 322.57 235.53"/><polygon class="cls-15" points="358.07 201.17 369.37 201.17 358.07 219.51 358.07 201.17"/><polygon class="cls-15" points="398 136.75 398 154.68 373.65 194.21 358.07 194.21 358.07 177.88 383.41 136.75 398 136.75"/><polygon class="cls-15" points="409.04 136.75 405.27 142.86 405.27 136.75 409.04 136.75"/><polygon class="cls-15" points="370.93 265.61 358.07 286.48 358.07 266.69 358.73 265.61 370.93 265.61"/><polygon class="cls-15" points="398 201.85 398 221.65 375.21 258.65 363.03 258.65 398 201.85"/><polygon class="cls-15" points="405.27 201.17 410.6 201.17 405.27 209.83 405.27 201.17"/><polygon class="cls-15" points="445.2 136.75 445.2 145 414.9 194.21 405.27 194.21 405.27 190.04 438.1 136.75 445.2 136.75"/><polygon class="cls-15" points="229.06 258.65 233.41 251.58 233.41 258.65 229.06 258.65"/><polygon class="cls-15" points="233.41 265.61 233.41 283.69 209.16 323.07 193.49 323.07 193.49 316.4 224.77 265.61 233.41 265.61"/><polygon class="cls-15" points="269.61 201.17 284.23 201.17 269.61 224.92 269.61 201.17"/><polygon class="cls-15" points="323.91 136.75 300.7 174.44 280.92 174.44 304.13 136.75 323.91 136.75"/><polygon class="cls-15" points="214.75 194.21 233.41 163.9 233.41 194.21 214.75 194.21"/><polygon class="cls-15" points="175.06 258.65 186.21 240.55 186.21 258.65 175.06 258.65"/><polygon class="cls-15" points="135.38 323.07 139.01 317.19 139.01 323.07 135.38 323.07"/><polygon class="cls-15" points="186.21 265.61 186.21 303.17 173.95 323.07 146.29 323.07 146.29 305.38 170.78 265.61 186.21 265.61"/><polygon class="cls-15" points="193.49 265.61 209.34 265.61 193.49 291.35 193.49 265.61"/><polygon class="cls-15" points="233.41 201.17 233.41 226.52 213.62 258.65 193.49 258.65 193.49 228.73 210.46 201.17 233.41 201.17"/><polygon class="cls-15" points="288.7 136.75 265.48 174.44 258.61 174.44 258.61 136.75 288.7 136.75"/><polygon class="cls-15" points="77.97 218.3 77.97 259.93 39.08 323.07 38.06 323.07 38.06 283.11 77.97 218.3"/><polygon class="cls-15" points="99.08 201.17 114.16 201.17 99.08 225.64 99.08 201.17"/><polygon class="cls-15" points="128.2 136.75 139.01 136.75 139.01 160.81 118.44 194.21 99.08 194.21 99.08 184.01 128.2 136.75"/><polygon class="cls-15" points="153.84 136.75 146.29 148.99 146.29 136.75 153.84 136.75"/><polygon class="cls-15" points="180.53 194.21 186.21 185 186.21 194.21 180.53 194.21"/><polygon class="cls-15" points="136.57 265.61 139.01 265.61 139.01 281.44 113.37 323.07 101.18 323.07 136.57 265.61"/><polygon class="cls-15" points="146.29 265.61 148.76 265.61 146.29 269.62 146.29 265.61"/><polygon class="cls-15" points="186.21 201.17 186.21 204.8 153.05 258.65 146.29 258.65 146.29 249.83 176.25 201.17 186.21 201.17"/><polygon class="cls-15" points="228.12 136.75 193.49 192.97 193.49 173.18 215.93 136.75 228.12 136.75"/></g><rect class="cls-5" x="86.51" y="127.92" width="4.44" height="268.4"/><polygon class="cls-7" points="255.51 392.99 18.54 392.99 9.81 396.03 255.51 396.03 255.51 392.99"/><polygon class="cls-7" points="336.68 392.99 336.68 396.03 582.37 396.03 573.65 392.99 336.68 392.99"/><path class="cls-16" d="M2163.71,1491.71H1865.8a17.5,17.5,0,0,0-17.5-17.5v-35.57a17.51,17.51,0,0,0,17.5-17.5h297.91a17.5,17.5,0,0,0,17.5,17.5v35.57A17.49,17.49,0,0,0,2163.71,1491.71Z" transform="translate(-1718.66 -1404.72)"/><path class="cls-17" d="M2163.71,1485.92H1865.8a17.51,17.51,0,0,0-17.5-17.5v-35.57a17.5,17.5,0,0,0,17.5-17.5h297.91a17.49,17.49,0,0,0,17.5,17.5v35.57A17.5,17.5,0,0,0,2163.71,1485.92Z" transform="translate(-1718.66 -1404.72)"/><path class="cls-18" d="M1870.77,1480.25a23.24,23.24,0,0,0-16.8-16.79v-25.64a23.26,23.26,0,0,0,16.8-16.8h288a23.26,23.26,0,0,0,16.8,16.8v25.64a23.24,23.24,0,0,0-16.8,16.79Z" transform="translate(-1718.66 -1404.72)"/><path class="cls-19" d="M2158.74,1421h-288a23.26,23.26,0,0,1-16.8,16.8v5.67a23.26,23.26,0,0,0,16.8-16.8h288a23.26,23.26,0,0,0,16.8,16.8v-5.67A23.26,23.26,0,0,1,2158.74,1421Z" transform="translate(-1718.66 -1404.72)"/></svg>