<svg fill="none" xmlns="http://www.w3.org/2000/svg" viewBox="0 0 40 21"><path d="M0 11h40" stroke="#000" stroke-width=".5" stroke-miterlimit="10"/><path d="M20 19.929c5.108 0 9.248-4.222 9.248-9.429S25.108 1.071 20 1.071s-9.25 4.222-9.25 9.429 4.141 9.429 9.249 9.429Z" fill="#fff" stroke="#000" stroke-width=".5" stroke-miterlimit="10"/><path d="m17.612 4.622-.734-1.807m-2.647 5.249-1.768-.748M20 2.182l-2.396 2.443H14.23v3.44L11.84 10.5" stroke="#000" stroke-width=".5" stroke-miterlimit="10"/><path d="M16.97 7.412 15.655 10.5 14.23 8.064l2.74-.652Zm0 0 .634-2.787L20 6.227l-3.03 1.185Zm.642 8.966-.734 1.807m-2.647-5.249-1.768.748M20 18.818l-2.396-2.443H14.23v-3.44L11.84 10.5m5.13 3.088L15.655 10.5l-1.424 2.436 2.74.652Zm0 0 .634 2.787L20 14.773l-3.03-1.185Zm5.42-8.966.733-1.807m2.647 5.249 1.769-.748M20 2.182l2.396 2.443h3.374v3.44l2.39 2.435" stroke="#000" stroke-width=".5" stroke-miterlimit="10"/><path d="m23.03 7.412 1.316 3.088 1.424-2.436-2.74-.652Zm0 0-.634-2.787L20 6.227l3.03 1.185Zm2.74 5.524 1.769.748M20 18.818l2.396-2.443h3.374v-3.44l2.39-2.435" stroke="#000" stroke-width=".5" stroke-miterlimit="10"/><path d="m23.03 13.588 1.316-3.088 1.424 2.436-2.74.652Zm0 0-.634 2.787L20 14.773l3.03-1.185Z" stroke="#000" stroke-width=".5" stroke-miterlimit="10"/></svg>
