<svg fill="none" xmlns="http://www.w3.org/2000/svg" viewBox="0 0 40 20"><path d="M0 10h40M0 9.75h40" stroke="#000" stroke-width=".5" stroke-miterlimit="10"/><path d="M20 19.066A9.281 9.281 0 1 0 20 .503a9.281 9.281 0 0 0 0 18.563Z" fill="#fff" stroke="#000" stroke-width=".5" stroke-miterlimit="10"/><path d="m17.604 3.999-.737-1.78m-2.656 5.168-1.775-.736m4.524.094-1.321 3.04-1.43-2.398 2.751-.642Zm0 0L17.595 4 20 5.578l-3.04 1.167Zm.644 8.825-.737 1.78m-2.656-5.168-1.775.736" stroke="#000" stroke-width=".5" stroke-miterlimit="10"/><path d="m16.96 12.824-1.321-3.04-1.43 2.398 2.751.642Zm0 0 .635 2.744L20 13.99l-3.04-1.167Zm5.438-8.825.736-1.78m2.656 5.168 1.775-.736m-4.525.094 1.32 3.04 1.43-2.398-2.75-.642Zm0 0L22.405 4 20 5.578l3.04 1.167Zm-.642 8.825.736 1.78m2.656-5.168 1.775.736" stroke="#000" stroke-width=".5" stroke-miterlimit="10"/><path d="M20 1.597 22.404 4h3.386v3.386l2.398 2.398-2.398 2.397v3.386h-3.386L20 17.972l-2.405-2.404H14.21v-3.386l-2.398-2.397 2.398-2.398V4h3.385L20 1.597Z" stroke="#000" stroke-width=".5" stroke-miterlimit="10"/><path d="m23.04 12.824 1.32-3.04 1.43 2.398-2.75.642Zm0 0-.635 2.744L20 13.99l3.04-1.167Z" stroke="#000" stroke-width=".5" stroke-miterlimit="10"/><path d="M31.763 11.381a2.552 2.552 0 1 0 0-5.104 2.552 2.552 0 0 0 0 5.104Z" fill="#fff" stroke="#000" stroke-width=".5" stroke-miterlimit="10"/><path d="M30.653 14.404a1.584 1.584 0 1 0 0-3.168 1.584 1.584 0 0 0 0 3.168Zm2.624-1.252a1.039 1.039 0 1 0 0-2.077 1.039 1.039 0 0 0 0 2.077Z" stroke="#000" stroke-width=".5" stroke-miterlimit="10"/><path d="M35.095 11.886a1.224 1.224 0 1 0 0-2.449 1.224 1.224 0 0 0 0 2.449ZM8.25 14.405a2.552 2.552 0 1 0 0-5.104 2.552 2.552 0 0 0 0 5.104Z" fill="#fff" stroke="#000" stroke-width=".5" stroke-miterlimit="10"/><path d="M9.36 9.444a1.584 1.584 0 1 0 0-3.167 1.584 1.584 0 0 0 0 3.167Z" stroke="#000" stroke-width=".5" stroke-miterlimit="10"/><path d="M6.736 9.606a1.039 1.039 0 1 0 0-2.077 1.039 1.039 0 0 0 0 2.077Z" stroke="#000" stroke-width=".5" stroke-miterlimit="10"/><path d="M4.917 11.243a1.224 1.224 0 1 0 0-2.448 1.224 1.224 0 0 0 0 2.448Z" fill="#fff" stroke="#000" stroke-width=".5" stroke-miterlimit="10"/></svg>
