<svg fill="none" xmlns="http://www.w3.org/2000/svg" viewBox="0 0 22 22"><path d="M11 20.925c-5.481 0-9.925-4.444-9.925-9.925 0-5.481 4.444-9.925 9.925-9.925 5.481 0 9.925 4.444 9.925 9.925 0 5.481-4.444 9.925-9.925 9.925Zm2.562-16.112.79-1.903m2.84 5.526 1.898-.787" stroke="#000" stroke-width=".5" stroke-miterlimit="10"/><path d="M14.25 7.75 15.665 11l1.528-2.564-2.941-.687Zm0 0-.678-2.934L11 6.502l3.25 1.247Zm-.688 9.437.79 1.903m2.84-5.526 1.898.787m-4.84-.101L15.665 11l1.528 2.564-2.941.687Zm0 0-.678 2.934L11 15.498l3.25-1.247ZM8.438 4.813l-.79-1.903m-2.84 5.526L2.91 7.65m4.84.1L6.336 11 4.808 8.436 7.75 7.75Zm0 0 .679-2.934L11 6.502 7.75 7.749Zm.688 9.437-.79 1.903m-2.84-5.526-1.898.787" stroke="#000" stroke-width=".5" stroke-miterlimit="10"/><path d="m2.244 11 2.564 2.564v3.62h3.62L11 19.756l2.571-2.572h3.62v-3.62L19.757 11l-2.564-2.564v-3.62h-3.62L11 2.244 8.429 4.816h-3.62v3.62L2.243 11Z" stroke="#000" stroke-width=".5" stroke-miterlimit="10"/><path d="M7.75 14.25 6.336 11l-1.529 2.564 2.941.687Zm0 0 .679 2.934L11 15.498l-3.25-1.247Z" stroke="#000" stroke-width=".5" stroke-miterlimit="10"/></svg>
