<svg fill="none" xmlns="http://www.w3.org/2000/svg" viewBox="0 0 41 20"><path d="M20.48 18.932c4.96 0 8.982-3.999 8.982-8.932S25.44 1.067 20.48 1.067c-4.96 0-8.982 4-8.982 8.933s4.022 8.932 8.982 8.932ZM18.16 4.431l-.712-1.712m-2.57 4.973-1.718-.708" stroke="#000" stroke-width=".5" stroke-miterlimit="10"/><path d="M17.538 7.074 16.26 10l-1.383-2.308 2.66-.618Zm0 0 .615-2.64 2.327 1.518-2.942 1.122Zm.622 8.494-.712 1.713m-2.57-4.974-1.718.709m4.378-.091L16.26 10l-1.383 2.307 2.66.618Zm0 0 .615 2.64 2.327-1.517-2.942-1.123ZM22.8 4.431l.712-1.712m2.571 4.973 1.718-.708m-4.379.09L24.7 10l1.383-2.308-2.661-.618Zm0 0-.615-2.64-2.327 1.518 2.942 1.122Zm-.622 8.494.712 1.713m2.571-4.974 1.718.709" stroke="#000" stroke-width=".5" stroke-miterlimit="10"/><path d="m20.48 17.88 2.327-2.314h3.276v-3.259L28.405 10l-2.322-2.308V4.434h-3.276L20.48 2.12l-2.327 2.314h-3.275v3.258L12.556 10l2.322 2.307v3.259h3.275l2.327 2.314Z" stroke="#000" stroke-width=".5" stroke-miterlimit="10"/><path d="M23.422 12.925 24.7 10l1.383 2.307-2.661.618Zm0 0-.615 2.64-2.327-1.517 2.942-1.123Zm6.802-2.142a.73.73 0 0 0 .732-.728.73.73 0 0 0-.732-.727.73.73 0 0 0-.731.727.73.73 0 0 0 .731.728Zm1.496 0a.73.73 0 0 0 .732-.728.73.73 0 0 0-.732-.727.73.73 0 0 0-.732.727.73.73 0 0 0 .732.728Zm1.496 0a.73.73 0 0 0 .732-.728.73.73 0 0 0-.732-.727.73.73 0 0 0-.731.727.73.73 0 0 0 .731.728Zm1.496 0a.73.73 0 0 0 .732-.728.73.73 0 0 0-.732-.727.73.73 0 0 0-.731.727.73.73 0 0 0 .731.728Zm1.496 0a.73.73 0 0 0 .732-.728.73.73 0 0 0-.732-.727.73.73 0 0 0-.731.727.73.73 0 0 0 .731.728Zm1.496 0a.73.73 0 0 0 .732-.728.73.73 0 0 0-.732-.727.73.73 0 0 0-.731.727.73.73 0 0 0 .731.728Zm1.496 0a.73.73 0 0 0 .732-.728.73.73 0 0 0-.732-.727.73.73 0 0 0-.731.727.73.73 0 0 0 .731.728Zm-37.4 0a.73.73 0 0 0 .731-.728.73.73 0 0 0-.731-.727.73.73 0 0 0-.732.727.73.73 0 0 0 .732.728Zm1.496 0a.73.73 0 0 0 .732-.728.73.73 0 0 0-.732-.727.73.73 0 0 0-.732.727.73.73 0 0 0 .732.728Zm1.496 0a.73.73 0 0 0 .731-.728.73.73 0 0 0-.731-.727.73.73 0 0 0-.732.727.73.73 0 0 0 .732.728Zm1.496 0a.73.73 0 0 0 .732-.728.73.73 0 0 0-.732-.727.73.73 0 0 0-.732.727.73.73 0 0 0 .732.728Zm1.496 0a.73.73 0 0 0 .732-.728.73.73 0 0 0-.732-.727.73.73 0 0 0-.732.727.73.73 0 0 0 .732.728Zm1.496 0a.73.73 0 0 0 .732-.728.73.73 0 0 0-.732-.727.73.73 0 0 0-.732.727.73.73 0 0 0 .732.728Zm1.496 0a.73.73 0 0 0 .732-.728.73.73 0 0 0-.732-.727.73.73 0 0 0-.732.727.73.73 0 0 0 .732.728Z" stroke="#000" stroke-width=".5" stroke-miterlimit="10"/></svg>
