<svg xmlns="http://www.w3.org/2000/svg" width="261.325" height="17" viewBox="0 0 261.325 17">
  <path id="LOGO_BCC_SPEC_BIANCO_RGB" d="M112.034,102.038H115.5v6.656a9.855,9.855,0,0,1-3.1,1.542,11.975,11.975,0,0,1-3.534.54,9.547,9.547,0,0,1-4.6-1.092,8.223,8.223,0,0,1-3.2-3.032,8.827,8.827,0,0,1,0-8.737,8.146,8.146,0,0,1,3.225-3.032,9.881,9.881,0,0,1,4.639-1.079,10.28,10.28,0,0,1,3.855.72,7.928,7.928,0,0,1,2.955,2.107l-2.377,2.313a5.6,5.6,0,0,0-4.24-1.863,5.769,5.769,0,0,0-2.788.655,4.793,4.793,0,0,0-1.9,1.85,5.564,5.564,0,0,0-.681,2.75,5.5,5.5,0,0,0,.681,2.724,4.793,4.793,0,0,0,1.889,1.863,5.692,5.692,0,0,0,2.75.668,6.232,6.232,0,0,0,2.955-.707Zm17.2,8.468-3.161-4.561h-3.495v4.561h-3.855V94.1h7.106a9.11,9.11,0,0,1,3.855.72,5.474,5.474,0,0,1,3.341,5.23,5.371,5.371,0,0,1-3.379,5.14l3.675,5.268Zm-.964-12.566a3.932,3.932,0,0,0-2.57-.745h-3.1v5.718h3.1a3.932,3.932,0,0,0,2.57-.745,2.93,2.93,0,0,0,0-4.227Zm9.316,10.909a7.517,7.517,0,0,1-1.953-5.551V94.1h3.855v8.994c0,2.93,1.285,4.407,3.662,4.407a3.469,3.469,0,0,0,2.724-1.066,5.037,5.037,0,0,0,.925-3.341V94.1h3.752v9.187a7.709,7.709,0,0,1-12.849,5.551Zm27.317-14.031a5.885,5.885,0,0,1,2.48,8.378,5.563,5.563,0,0,1-2.48,2.069,9.225,9.225,0,0,1-3.778.707h-3.315v4.536h-3.79V94.1h7.106a8.994,8.994,0,0,1,3.778.72Zm-1.388,7.324a2.942,2.942,0,0,0,0-4.214,3.97,3.97,0,0,0-2.57-.745h-3.1v5.7h3.1a4.048,4.048,0,0,0,2.557-.745Zm18.092-7.324a5.474,5.474,0,0,1,3.341,5.23,5.679,5.679,0,0,1-.874,3.148,5.525,5.525,0,0,1-2.467,2.069,9.277,9.277,0,0,1-3.79.707h-3.3v4.536h-3.855V94.1h7.093A9.071,9.071,0,0,1,181.611,94.817Zm-1.4,7.324a2.917,2.917,0,0,0,0-4.214,3.855,3.855,0,0,0-2.57-.745h-3.1v5.7h3.1a3.983,3.983,0,0,0,2.544-.745Zm10.768,7.542a8.39,8.39,0,0,1,0-14.776,9.624,9.624,0,0,1,4.613-1.092,9.5,9.5,0,0,1,4.587,1.092,8.326,8.326,0,0,1,3.212,3.045,8.57,8.57,0,0,1,0,8.686,8.326,8.326,0,0,1-3.212,3.045,9.5,9.5,0,0,1-4.587,1.092,9.624,9.624,0,0,1-4.639-1.092Zm7.234-2.8a4.741,4.741,0,0,0,1.837-1.863,5.885,5.885,0,0,0,0-5.448,4.741,4.741,0,0,0-1.863-1.915,5.306,5.306,0,0,0-2.57-.668,5.23,5.23,0,0,0-2.57.668,4.857,4.857,0,0,0-1.85,1.863,5.885,5.885,0,0,0,0,5.448,4.857,4.857,0,0,0,1.85,1.863,5.229,5.229,0,0,0,2.57.668,5.307,5.307,0,0,0,2.57-.617Zm29.977-3.431a4.137,4.137,0,0,1,.8,2.57,3.855,3.855,0,0,1-1.683,3.315,8.532,8.532,0,0,1-4.883,1.156h-8.48V94.1h8.018a7.8,7.8,0,0,1,4.6,1.144,3.649,3.649,0,0,1,1.606,3.122,4,4,0,0,1-.578,2.133,3.945,3.945,0,0,1-1.606,1.465,4.407,4.407,0,0,1,2.184,1.49ZM217.7,96.95V100.8h3.739a3.855,3.855,0,0,0,2.133-.488,1.812,1.812,0,0,0,0-2.9,4.009,4.009,0,0,0-2.133-.475Zm6.694,10.2a1.709,1.709,0,0,0,.771-1.529c0-1.362-1.015-2.043-3.032-2.043H217.7v4.06h4.433a4.253,4.253,0,0,0,2.236-.488Zm10.549,2.57a8.1,8.1,0,0,1-3.225-3.071,8.827,8.827,0,0,1,0-8.737,8.133,8.133,0,0,1,3.187-3.032,10.279,10.279,0,0,1,8.416-.334,7.786,7.786,0,0,1,2.891,2.159l-2.428,2.236a5.217,5.217,0,0,0-4.125-1.927,5.538,5.538,0,0,0-2.711.668,4.728,4.728,0,0,0-1.863,1.863,5.885,5.885,0,0,0,0,5.448,4.728,4.728,0,0,0,1.863,1.863,5.538,5.538,0,0,0,2.711.668,5.2,5.2,0,0,0,4.125-1.953l2.441,2.249a7.71,7.71,0,0,1-2.9,2.184,9.611,9.611,0,0,1-3.855.745,9.354,9.354,0,0,1-4.549-1.066Zm16.588,0a8.185,8.185,0,0,1-3.212-3.071,8.828,8.828,0,0,1,0-8.737,8.224,8.224,0,0,1,3.187-3.032,10.279,10.279,0,0,1,8.416-.334,7.581,7.581,0,0,1,2.891,2.159l-2.428,2.236a5.255,5.255,0,0,0-4.125-1.927,5.589,5.589,0,0,0-2.7.642A4.806,4.806,0,0,0,251.7,99.52a5.885,5.885,0,0,0,0,5.448,4.805,4.805,0,0,0,1.863,1.915,5.589,5.589,0,0,0,2.724.668,5.243,5.243,0,0,0,4.125-1.953l2.428,2.249a7.556,7.556,0,0,1-2.9,2.184,9.611,9.611,0,0,1-3.855.745,9.393,9.393,0,0,1-4.574-1.092Zm19.736-15.586h3.855v16.37h-3.855Zm10.768,15.586a8.1,8.1,0,0,1-3.212-3.071,8.75,8.75,0,0,1,0-8.737,8.134,8.134,0,0,1,3.187-3.032,10.279,10.279,0,0,1,8.416-.334,7.787,7.787,0,0,1,2.891,2.159l-2.493,2.236a5.217,5.217,0,0,0-4.125-1.927,5.538,5.538,0,0,0-2.711.668,4.728,4.728,0,0,0-1.863,1.863,5.885,5.885,0,0,0,0,5.448,4.728,4.728,0,0,0,1.863,1.863,5.538,5.538,0,0,0,2.711.668,5.2,5.2,0,0,0,4.125-1.927l2.441,2.249a7.71,7.71,0,0,1-2.9,2.184,9.662,9.662,0,0,1-3.855.745,9.354,9.354,0,0,1-4.5-1.092Zm16.588,0a8.1,8.1,0,0,1-3.212-3.071,8.827,8.827,0,0,1,0-8.737,8.133,8.133,0,0,1,3.187-3.032,10.279,10.279,0,0,1,8.416-.334,7.787,7.787,0,0,1,2.891,2.159l-2.377,2.236a5.255,5.255,0,0,0-4.125-1.927,5.589,5.589,0,0,0-2.724.668,4.805,4.805,0,0,0-1.863,1.863,5.885,5.885,0,0,0,0,5.448,4.805,4.805,0,0,0,1.863,1.863,5.589,5.589,0,0,0,2.724.668,5.242,5.242,0,0,0,4.125-1.927l2.428,2.249a7.709,7.709,0,0,1-2.9,2.184,9.611,9.611,0,0,1-3.855.745,9.354,9.354,0,0,1-4.6-1.092Zm24.079.809-3.161-4.561h-3.495v4.536h-3.79V94.1h7.106a8.994,8.994,0,0,1,3.778.72,5.422,5.422,0,0,1,3.341,5.23,5.328,5.328,0,0,1-3.379,5.178l3.7,5.281Zm-.951-12.566a3.97,3.97,0,0,0-2.57-.745h-3.1v5.718H319.1a3.97,3.97,0,0,0,2.57-.745,2.968,2.968,0,0,0,0-4.227Zm19.865,9.521v3.02H328.926V94.1h12.4v3.045h-8.635V100.7h7.619v2.955h-7.619v3.855Zm14.211-.463h-7.619l-1.478,3.482H342.88l7.324-16.4h3.739l7.3,16.4h-3.983Zm-1.221-2.942-2.57-6.27-2.57,6.27Z" transform="translate(-99.917 -93.801)" fill="#fff"/>
</svg>
