<svg xmlns="http://www.w3.org/2000/svg" xmlns:xlink="http://www.w3.org/1999/xlink" width="29.273" height="26.118" viewBox="0 0 29.273 26.118"><defs><style>.ico-famiglia-a,.ico-famiglia-e,.ico-famiglia-f{fill:none;}.ico-famiglia-b{opacity:0.4;}.ico-famiglia-c{clip-path:url(#a);}.ico-famiglia-d{fill:#fff;}.ico-famiglia-e,.ico-famiglia-f{stroke:#fff;stroke-linejoin:round;stroke-width:1.5px;}.ico-famiglia-e{stroke-linecap:round;}</style><clipPath id="a"><path class="ico-famiglia-a" d="M27.3,49.809h8.425V35.93L27.3,40.225Z" transform="translate(-27.3 -35.93)"/></clipPath></defs><g transform="translate(-19.72 -21.01)"><g transform="translate(23.944 28.636)"><g class="ico-famiglia-b" transform="translate(0 0)"><g class="ico-famiglia-c"><path class="ico-famiglia-d" d="M27.378,45.35l1.106,5.823a3.139,3.139,0,0,0,2.64,3.145c2.684.422,2.15.32,2.15.32H27.3Z" transform="translate(-27.3 -40.779)"/></g></g></g><g transform="translate(20.78 21.76)"><path class="ico-famiglia-e" d="M50.96,23.42h3.261v3.261" transform="translate(-36.314 -22.614)"/><path class="ico-famiglia-e" d="M26.84,44.98v9.8H41.049" transform="translate(-23.899 -33.712)"/><path class="ico-famiglia-e" d="M20.78,32.543,32.048,21.76l7.925,7.58" transform="translate(-20.78 -21.76)"/><path class="ico-famiglia-f" d="M59.46,44.751a1.97,1.97,0,1,0-1.97-1.97A1.97,1.97,0,0,0,59.46,44.751Z" transform="translate(-39.675 -31.565)"/><path class="ico-famiglia-f" d="M61.362,51.25H55.17c0,2.291.922,3.625,1.97,4.222v3.659h2.252V55.5C60.426,54.875,61.362,53.555,61.362,51.25Z" transform="translate(-38.481 -36.939)"/><path class="ico-famiglia-f" d="M43.014,42.776c0,2.426-3.936,5.338-4.392,5.688a.427.427,0,0,1-.272.092.417.417,0,0,1-.267-.092c-.461-.33-4.368-3.256-4.368-5.688A2.64,2.64,0,0,1,36.235,40a2.475,2.475,0,0,1,2.116,1.276A2.475,2.475,0,0,1,40.466,40a2.64,2.64,0,0,1,2.548,2.776Z" transform="translate(-27.437 -31.148)"/><rect class="ico-famiglia-e" width="5.066" height="3.941" transform="translate(22.396 20.678)"/><path class="ico-famiglia-e" d="M70.41,63.176v-.563a.563.563,0,0,1,.563-.563h.563a.563.563,0,0,1,.563.563v.563" transform="translate(-46.325 -42.498)"/><line class="ico-famiglia-e" x2="5.066" transform="translate(22.396 22.367)"/><line class="ico-famiglia-e" y2="0.563" transform="translate(24.929 22.367)"/></g></g></svg>