<?xml version="1.0" encoding="utf-8"?>
<!-- Generator: Adobe Illustrator 19.0.0, SVG Export Plug-In . SVG Version: 6.00 Build 0)  -->
<svg xmlns:xlink="http://www.w3.org/1999/xlink"  version="1.1" xmlns="http://www.w3.org/2000/svg" x="0px" y="0px"
	 viewBox="-2 4 24 24" width="24" height="24" style="enable-background:new -2 4 24 24;" xml:space="preserve">
<style type="text/css">
	.ico-home-st0{fill:#797979;}
</style>
<g>
	<path class="ico-home-st0" d="M18.5,6.5C18.5,6,18,6,18,6h-2.5c0,0-0.5,0-0.5,0.5s0,1,0,1l3.5,3.5C18.5,11,18.5,7,18.5,6.5z"/>
	<path class="ico-home-st0" d="M21.9,15.6L10.4,4.1c-0.2-0.2-0.5-0.2-0.7,0L-1.9,15.6c-0.3,0.3-0.1,0.9,0.4,0.9H1v10C1,26.8,1.2,27,1.5,27h17
		c0.3,0,0.5-0.2,0.5-0.5v-10h2.5C21.9,16.5,22.2,16,21.9,15.6z"/>
</g>
</svg>
