<svg width="29" height="30" viewBox="0 0 29 30" fill="none" xmlns="http://www.w3.org/2000/svg">
<path fill-rule="evenodd" clip-rule="evenodd" d="M6.15987 26.339C2.87286 23.7051 0.75 19.535 0.75 14.8412C0.75 6.87549 6.86411 0.417969 14.4062 0.417969C21.9484 0.417969 28.0625 6.87549 28.0625 14.8412C28.0625 19.535 25.9396 23.7051 22.6526 26.339C22.6963 26.0925 22.7188 25.8414 22.7188 25.5865C22.7188 25.048 22.6184 24.5262 22.4302 24.0301C24.7738 21.7462 26.2417 18.4748 26.2417 14.8412C26.2417 7.93759 20.9428 2.34107 14.4062 2.34107C7.86973 2.34107 2.57083 7.93759 2.57083 14.8412C2.57083 18.4748 4.03868 21.7462 6.38225 24.0301C6.19413 24.5262 6.09375 25.048 6.09375 25.5865C6.09375 25.8414 6.11624 26.0925 6.15987 26.339Z" fill="#131313"/>
<mask id="mask0_1004_6" style="mask-type:alpha" maskUnits="userSpaceOnUse" x="0" y="0" width="29" height="27">
<path fill-rule="evenodd" clip-rule="evenodd" d="M6.15987 26.339C2.87286 23.7051 0.75 19.535 0.75 14.8412C0.75 6.87549 6.86411 0.417969 14.4062 0.417969C21.9484 0.417969 28.0625 6.87549 28.0625 14.8412C28.0625 19.535 25.9396 23.7051 22.6526 26.339C22.6963 26.0925 22.7188 25.8414 22.7188 25.5865C22.7188 25.048 22.6184 24.5262 22.4302 24.0301C24.7738 21.7462 26.2417 18.4748 26.2417 14.8412C26.2417 7.93759 20.9428 2.34107 14.4062 2.34107C7.86973 2.34107 2.57083 7.93759 2.57083 14.8412C2.57083 18.4748 4.03868 21.7462 6.38225 24.0301C6.19413 24.5262 6.09375 25.048 6.09375 25.5865C6.09375 25.8414 6.11624 26.0925 6.15987 26.339Z" fill="white"/>
</mask>
<g mask="url(#mask0_1004_6)">
</g>
<path fill-rule="evenodd" clip-rule="evenodd" d="M7.875 12.2188C7.875 15.8259 10.7991 18.75 14.4062 18.75C18.0134 18.75 20.9375 15.8259 20.9375 12.2188C20.9375 8.61164 18.0134 5.6875 14.4062 5.6875C10.7991 5.6875 7.875 8.61164 7.875 12.2188ZM19.1562 12.2188C19.1562 14.8421 17.0296 16.9688 14.4062 16.9688C11.7829 16.9688 9.65625 14.8421 9.65625 12.2188C9.65625 9.5954 11.7829 7.46875 14.4062 7.46875C17.0296 7.46875 19.1562 9.5954 19.1562 12.2188Z" fill="#131313"/>
<mask id="mask1_1004_6" style="mask-type:alpha" maskUnits="userSpaceOnUse" x="0" y="0" width="29" height="30">
<path d="M14.4062 29.2645C6.86411 29.2645 0.75 22.807 0.75 14.8412C0.75 6.87549 6.86411 0.417969 14.4062 0.417969C21.9484 0.417969 28.0625 6.87549 28.0625 14.8412C28.0625 22.807 21.9484 29.2645 14.4062 29.2645Z" fill="white"/>
</mask>
<g mask="url(#mask1_1004_6)">
<path fill-rule="evenodd" clip-rule="evenodd" d="M5.30209 26.9438C5.30209 31.8626 9.28956 35.8501 14.2083 35.8501C19.1271 35.8501 23.1146 31.8626 23.1146 26.9438C23.1146 22.0251 19.1271 18.0376 14.2083 18.0376C9.28956 18.0376 5.30209 22.0251 5.30209 26.9438ZM21.4125 27.0626C21.4125 30.9976 18.2225 34.1876 14.2875 34.1876C10.3525 34.1876 7.16251 30.9976 7.16251 27.0626C7.16251 23.1276 10.3525 19.9376 14.2875 19.9376C18.2225 19.9376 21.4125 23.1276 21.4125 27.0626Z" fill="#131313"/>
</g>
</svg>
