<?xml version="1.0" encoding="utf-8"?>
<!-- Generator: Adobe Illustrator 24.0.3, SVG Export Plug-In . SVG Version: 6.00 Build 0)  -->
<svg version="1.1" id="Layer_1" xmlns="http://www.w3.org/2000/svg" xmlns:xlink="http://www.w3.org/1999/xlink" x="0px" y="0px"
	 viewBox="0 0 145.6 145.6" style="enable-background:new 0 0 145.6 145.6;" xml:space="preserve">
<style type="text/css">
	.st0{fill:#003649;}
	.st1{fill:#FFFFFF;}
	.st2{fill:#F6891F;}
</style>
<title>200x200 copy 3</title>
<desc>Created with Sketch.</desc>
<g id="_x32_00x200-copy-3" transform="translate(0.000000, 0.000000)">
	<g id="mlive">
		<g>
			<polygon id="Shape" class="st0" points="-28.2,171.8 171.8,171.8 171.8,-28.2 -28.2,-28.2 			"/>
			<g id="Group" transform="translate(28.125000, 29.166667)">
				<path id="Shape_1_" class="st1" d="M115.8,61.5V2.1c0-14.1-7.5-29.4-29.7-29.4c-21.6,0-28.3,12.5-29.6,13.5
					C52.4-22.5,42.4-27.3,33-27.3c-12,0-21.7,3.6-28.4,13.7H4.3v-11.6h-31.9v86.6h13.7v0.1H5.5v-47C5.5,5.5,8.4-1,16.7-1
					c10,0,10.9,7.4,10.9,15.5v47h0.1l-0.1-0.1h15v0.1h17.9v-47c0-9,2.8-15.5,11.2-15.5c10,0,10.9,7.4,10.9,15.5v46.9L115.8,61.5z"/>
				<polygon id="Shape_2_" class="st2" points="-27.6,61.5 -27.6,61.5 -27.6,112.6 5.8,112.6 5.8,101.2 -13.9,101.2 -13.9,61.5 
					-13.9,61.5 				"/>
				<rect id="Rectangle-path" x="11.3" y="61.5" class="st2" width="13.8" height="51.2"/>
				<path id="Shape_3_" class="st2" d="M27.6,61.5L27.6,61.5l16.2,51.1H60l16.8-51.2H62.2l-5.6,20.4c-1.5,5.4-3,11.4-4.3,17.7h-0.1
					c-1.1-6-2.6-12-4.3-17.9l-5.4-20.1v-0.1L27.6,61.5z"/>
				<polygon id="Shape_4_" class="st2" points="96.4,92 114.6,92 114.6,80.9 96.4,80.9 96.4,72.6 115.8,72.6 115.8,61.5 115.8,61.5 
					82.7,61.5 82.7,61.5 82.7,112.6 116.8,112.6 116.8,101.4 96.4,101.4 				"/>
			</g>
		</g>
	</g>
</g>
</svg>
