<svg width="200" height="200" viewBox="0 0 200 200" fill="none" xmlns="http://www.w3.org/2000/svg">
<path d="M172.083 118.833V59.4583C172.083 45.375 164.563 30.0312 142.333 30.0312C120.813 30.0312 114.104 42.5312 112.823 43.5729C108.75 34.9062 98.75 30.0312 89.3646 30.0312C77.3438 30.0104 67.7083 33.6771 61 43.75H60.6875V32.1979H28.75V118.833H42.4688V118.917H61.8438V71.9375C61.8438 62.9062 64.6979 56.4062 73.0625 56.4062C83.0625 56.4062 83.9167 63.7708 83.9167 71.9375V118.906H83.9792L83.9167 118.823H98.9583V118.906H116.896V71.9375C116.896 62.9062 119.74 56.4062 128.125 56.4062C138.146 56.4062 138.979 63.7708 138.979 71.9375V118.813L172.083 118.833Z" fill="#2A2A2A"/>
<path d="M28.75 118.833V118.906V169.99H62.1562V158.531H42.4583V118.906V118.833H28.75Z" fill="#2A2A2A"/>
<rect x="67.6666" y="118.833" width="13.7708" height="51.1562" fill="#2A2A2A"/>
<path d="M83.9062 118.833L83.9687 118.916L100.156 169.958H116.323L133.083 118.802H118.5L112.958 139.146C111.437 144.594 109.99 150.51 108.698 156.854H108.594C107.467 150.821 106.038 144.848 104.312 138.958L98.9583 118.906V118.823L83.9062 118.833Z" fill="#2A2A2A"/>
<path d="M152.76 149.333H170.948V138.281H152.76V129.979H172.104V118.833H172.083H139.021V118.906V169.979H173.167V158.729H152.76V149.333Z" fill="#2A2A2A"/>
</svg>
