<?xml version="1.0" encoding="utf-8"?>
<!-- Generator: Adobe Illustrator 23.0.1, SVG Export Plug-In . SVG Version: 6.00 Build 0)  -->
<svg version="1.1" id="Ebene_1" xmlns="http://www.w3.org/2000/svg" xmlns:xlink="http://www.w3.org/1999/xlink" x="0px" y="0px"
	 width="1080px" height="333.2px" viewBox="0 0 1080 333.2" style="enable-background:new 0 0 1080 333.2;" xml:space="preserve">
<style type="text/css">
	.st0{fill:#005EA8;}
</style>
<g>
	<path class="st0" d="M426.2,3.6c-2.2-2.8-5.2-4.2-8.5-3.4L217.4,45.1L17.2,90c-3.3,0.7-6.4,2.7-8.6,5.3c-2.2,2.6-3.6,5.8-3.7,9
		l-0.4,18.6l-0.4,18.6c-0.1,3.2,1.2,5.9,3.4,7.7c2.1,1.8,5.1,2.7,8.5,2.2l7.7-1.1l7.7-1.1l0.4-19.1l0.4-19.1c0.1-2.8,0.9-5.5,2.3-8
		c0.6-1.1,1.3-2.1,2.1-3.1c2.7-3.2,6.3-5.6,10.3-6.4l132.5-28c3.7-0.8,7.1,0.3,9.6,2.5c0.2,0.2,0.4,0.3,0.6,0.4l0,0
		c2.6,2.6,4.2,6.6,4.1,11.4l-0.2,23.1l-0.2,23.1l112.2-16l112.2-16c3.3-0.5,6.3-3,8.5-6.6c2.2-3.6,3.6-8.3,3.6-13.3V44.8V15.7
		C429.7,10.7,428.3,6.4,426.2,3.6z"/>
	<path class="st0" d="M429.7,194.8v-58.3c0-10-5.5-17.5-12.1-16.7l-224.5,27.1l-0.3,28c-0.1,9.6-6.7,17.9-14.7,18.5l-133.2,9.6
		c-8,0.6-14.4-5.4-14.3-13.4l0.4-23.2l-15.4,1.9c-6.7,0.8-12.2,6.7-12.4,13l-0.8,37.2c-0.1,6.4,5.2,11.4,11.9,11.1l219.6-8.8
		c0.6-1.9,1.4-3.8,2.5-5.4l26.6-42.1c5.2-8.4,16-16.1,24-16.9l60.7-6.1c8-0.8,18.8,5.3,23.9,13.6l26.3,44.1c1,1.8,1.9,3.9,2.5,6.1
		l17.2-0.7C424.2,213.2,429.7,204.8,429.7,194.8z"/>
	<path class="st0" d="M417.5,239.6l-19.2,0.3c-0.2,0.3-0.3,0.7-0.5,1l-26.5,45.8c-5.2,8.7-16,15.4-24.1,15.1l-61-2.3
		c-8.1-0.3-18.9-7.3-24-15.4l-26.2-40.5c-0.2-0.3-0.3-0.6-0.5-0.9L14,246.7c-6.7,0.1-12.3,5.4-12.4,11.8l-0.8,37.2
		C0.7,302,6,307.6,12.7,308l404.8,25.2c6.7,0.4,12.2-7.4,12.2-17.4v-58.3C429.7,247.5,424.2,239.5,417.5,239.6z"/>
	<g>
		<g>
			<path class="st0" d="M597.3,114.1c-8.2,32-18.6,62.3-31.9,92.5c-12.8-30.2-22.8-60.5-30.5-92.5l-0.3-1.4h-26.4l0.6,2.3
				C519.6,154,534,193.1,553,234.4l0.5,1h23.1l0.5-1c18.4-39.1,33.6-79.3,45.2-119.5l0.7-2.3h-25.3L597.3,114.1z"/>
			<rect x="636.4" y="112.7" class="st0" width="23.7" height="122.8"/>
			<path class="st0" d="M648.2,66.3c-10.5,0-14.6,4.2-14.6,14.8c0,10.6,4,14.6,14.6,14.6c10.7,0,14.8-4.1,14.8-14.6
				C663,70.6,658.7,66.3,648.2,66.3z"/>
			<path class="st0" d="M722.3,65.4c-27.9,0-30.8,11.6-30.8,37.9v9.4h-17.2v20.5h17.2v102.3h23.7V133.2h21v-20.5h-21V101
				c0-12.6,2.7-13.8,10.3-13.8c4.6,0,10.5,0.7,10.6,0.7l2,0.2V66.8l-1.4-0.3C736.4,66.5,731.1,65.4,722.3,65.4z"/>
			<rect x="750.7" y="67.9" class="st0" width="23.7" height="167.6"/>
			<path class="st0" d="M851.3,109.5c-37.9,0-57.1,21.8-57.1,64.7c0,43.1,18.7,64,57.1,64c38.2,0,57.6-21.5,57.6-64
				C908.9,131.3,889.6,109.5,851.3,109.5z M884.3,173.7c0,30.9-9.5,43.5-32.8,43.5c-23.3,0-32.8-12.5-32.8-43.3
				c0-30.9,9.5-43.5,32.8-43.5C874.8,130.5,884.3,143,884.3,173.7z"/>
			<path class="st0" d="M1056.1,114.2c-4.8,28.2-12.4,56.8-23.3,87.3l-22.5-88.8h-24.7l-22.7,89.6c-9.7-28.3-17.1-57.9-22-88.1
				l-0.2-1.5h-25.4l0.4,2.1c7.2,36.6,18.7,75.7,35.3,119.5l0.4,1.2h23.7l22-86.6l22.8,86.6h23.4l0.4-1.1
				c15.6-39.7,27.6-79.9,35.8-119.5l0.4-2.1h-23.6L1056.1,114.2z"/>
		</g>
	</g>
</g>
</svg>
