<?xml version="1.0" encoding="UTF-8"?>
<svg viewBox="0 0 16 16" version="1.1" xmlns="http://www.w3.org/2000/svg" xmlns:xlink="http://www.w3.org/1999/xlink">
    <!-- Generator: Sketch 57.1 (83088) - https://sketch.com -->
    <title>icon / comms + tech / alert-information</title>
    <desc>Created with Sketch.</desc>
    <defs>
        <path d="M7.99999995,-5.00000574e-08 C12.411,-5.00000574e-08 15.9999999,3.58899997 15.9999999,7.99999995 C15.9999999,12.411 12.411,15.9999999 7.99999995,15.9999999 C3.58899997,15.9999999 -5.00000006e-08,12.411 -5.00000006e-08,7.99999995 C-5.00000006e-08,3.58899997 3.58899997,-5.00000574e-08 7.99999995,-5.00000574e-08 Z M7.99999996,0.999999956 C4.14099998,0.999999956 0.999999956,4.14099998 0.999999956,7.99999996 C0.999999956,11.859 4.14099998,15 7.99999996,15 C11.859,15 15,11.859 15,7.99999996 C15,4.14099998 11.859,0.999999956 7.99999996,0.999999956 Z M8.455,6.53099999 L8.455,11.983 L7.392,11.983 L7.392,6.53099999 L8.455,6.53099999 Z M7.929,4.18299998 C8.324,4.18299998 8.626,4.43999998 8.626,4.82999998 C8.626,5.20699998 8.324,5.47699998 7.929,5.47699998 C7.534,5.47699998 7.233,5.20799998 7.233,4.82999998 C7.233,4.44099998 7.533,4.18299998 7.929,4.18299998 Z" id="path-1"></path>
    </defs>
    <g id="icon-/-comms-+-tech-/-alert-information" stroke="none" stroke-width="1" fill="none" fill-rule="evenodd">
        <rect id="bb" x="0" y="0.10156245" width="16.0000001" height="16.0000001"></rect>
        <mask id="mask-2" fill="white">
            <use xlink:href="#path-1"></use>
        </mask>
        <g id="Combined-Shape"></g>
        <g id="colour/graphite" mask="url(#mask-2)" fill="#000000">
            <rect id="Rectangle" x="0" y="0" width="16" height="16"></rect>
        </g>
    </g>
</svg>