<svg xmlns="http://www.w3.org/2000/svg" width="71.75" height="64.07" viewBox="0 0 71.75 64.07"><defs><style>.cls-1{fill:#476580;fill-rule:evenodd;}</style></defs><g id="Layer_2" data-name="Layer 2"><g id="Layer_1-2" data-name="Layer 1"><path class="cls-1" d="M27,6.18a12.28,12.28,0,0,0,0,24.56h.37a1.47,1.47,0,1,0,0-2.93H27a9.35,9.35,0,1,1,9.35-9.35V21a1.64,1.64,0,0,1-3.27,0V18.46a6.1,6.1,0,1,0-6.14,6.06,6,6,0,0,0,3.79-1.29A4.56,4.56,0,0,0,39.26,21V18.46A12.28,12.28,0,0,0,27,6.18Zm0,15.43a3.15,3.15,0,1,1,3.15-3.15A3.15,3.15,0,0,1,27,21.61ZM51,25v6.68A19.14,19.14,0,0,1,54,30.92V22a1.47,1.47,0,0,0-.52-1.12l-7.22-6.1V4.11A4.11,4.11,0,0,0,42.11,0h-30A4.11,4.11,0,0,0,8,4.11V14.52L.52,20.84A1.47,1.47,0,0,0,0,22V49.65a5.17,5.17,0,0,0,5.17,5.18h34a17.73,17.73,0,0,1-.62-2.93H5.17a2.24,2.24,0,0,1-2.24-2.25V24.76L19.65,36.58,7.78,45.66A1.46,1.46,0,0,0,9.54,48l12.62-9.65,4.1,2.93a1.47,1.47,0,0,0,1.7,0l4.1-2.93,7.11,5.42A18.2,18.2,0,0,1,40.32,41L34.6,36.58Zm-4.8-6.4,4,3.38-4,2.82ZM8,24.77,3.88,21.84,8,18.32Zm19.1,13.5L11,26.83V4.11a1.16,1.16,0,0,1,1.16-1.17h30a1.17,1.17,0,0,1,1.17,1.17V26.83ZM57,34.58A14.75,14.75,0,1,0,71.75,49.33,14.74,14.74,0,0,0,57,34.58Zm0,22a1.48,1.48,0,0,1-1.48-1.48h3A1.48,1.48,0,0,1,57,56.53Zm5.92-2.21H51.09v-.74l1.48-1.48V48.4a4.48,4.48,0,0,1,3.32-4.67v-.5a1.11,1.11,0,1,1,2.22,0v.5a4.5,4.5,0,0,1,3.33,4.67v3.7l1.48,1.48Z"/></g></g></svg>