<svg xmlns="http://www.w3.org/2000/svg" viewBox="0 0 30 30"><defs><style>.cls-1{fill:#fff;}</style></defs><g id="Layer_2" data-name="Layer 2"><g id="Layer_1-2" data-name="Layer 1"><path class="cls-1" d="M15,30A15,15,0,1,1,30,15,15,15,0,0,1,15,30ZM15,2A13,13,0,1,0,28,15,13,13,0,0,0,15,2ZM13.5,21h0a1,1,0,0,1-.38-.08.9.9,0,0,1-.54-.54A1,1,0,0,1,12.5,20h0V10h0a1,1,0,0,1,.08-.38.9.9,0,0,1,.54-.54A1,1,0,0,1,13.5,9h0a1,1,0,0,1,.38.08,1,1,0,0,1,.33.21l5,5a1,1,0,0,1,0,1.42l-5,5a1,1,0,0,1-.33.21,1,1,0,0,1-.38.08Zm1-8.59v5.18L17.09,15Z"/></g></g></svg>