<?xml version="1.0" encoding="utf-8"?>
<!-- Generator: Adobe Illustrator 19.0.0, SVG Export Plug-In . SVG Version: 6.00 Build 0)  -->
<svg version="1.1" id="Layer_1" xmlns="http://www.w3.org/2000/svg" xmlns:xlink="http://www.w3.org/1999/xlink" x="0px" y="0px"
	 viewBox="0 0 58 58" style="enable-background:new 0 0 58 58;" xml:space="preserve">
<style type="text/css">
	.st0{clip-path:url(#SVGID_2_);fill:#FFFFFF;}
</style>
<g>
	<defs>
		<path id="SVGID_1_" d="M21,29c0-4.4,3.6-8,8-8s8,3.6,8,8c0,4.4-3.6,8-8,8S21,33.4,21,29 M16.7,29c0,6.8,5.5,12.3,12.3,12.3
			S41.3,35.8,41.3,29S35.8,16.7,29,16.7S16.7,22.2,16.7,29 M38.9,16.2c0,1.6,1.3,2.9,2.9,2.9c1.6,0,2.9-1.3,2.9-2.9
			c0-1.6-1.3-2.9-2.9-2.9C40.2,13.3,38.9,14.6,38.9,16.2 M19.3,48.5c-2.3-0.1-3.6-0.5-4.5-0.8c-1.1-0.4-1.9-1-2.8-1.8
			c-0.8-0.8-1.4-1.6-1.8-2.8C10,42.3,9.6,41,9.5,38.7c-0.1-2.5-0.1-3.3-0.1-9.7s0-7.2,0.1-9.7c0.1-2.3,0.5-3.6,0.8-4.5
			c0.4-1.1,1-1.9,1.8-2.8c0.8-0.8,1.6-1.4,2.8-1.8c0.8-0.3,2.1-0.7,4.5-0.8c2.5-0.1,3.3-0.1,9.7-0.1s7.2,0,9.7,0.1
			c2.3,0.1,3.6,0.5,4.5,0.8c1.1,0.4,1.9,1,2.8,1.8s1.4,1.6,1.8,2.8c0.3,0.8,0.7,2.1,0.8,4.5c0.1,2.5,0.1,3.3,0.1,9.7s0,7.2-0.1,9.7
			c-0.1,2.3-0.5,3.6-0.8,4.5c-0.4,1.1-1,1.9-1.8,2.8c-0.8,0.8-1.6,1.4-2.8,1.8c-0.8,0.3-2.1,0.7-4.5,0.8c-2.5,0.1-3.3,0.1-9.7,0.1
			C22.6,48.7,21.8,48.7,19.3,48.5 M19.1,5.1c-2.6,0.1-4.3,0.5-5.8,1.1C11.7,6.9,10.4,7.7,9,9c-1.3,1.3-2.2,2.7-2.8,4.3
			c-0.6,1.5-1,3.3-1.1,5.8C5,21.7,5,22.5,5,29s0,7.3,0.1,9.9c0.1,2.6,0.5,4.3,1.1,5.8C6.9,46.3,7.7,47.6,9,49
			c1.3,1.3,2.7,2.2,4.3,2.8c1.5,0.6,3.3,1,5.8,1.1C21.7,53,22.5,53,29,53s7.3,0,9.9-0.1c2.6-0.1,4.3-0.5,5.8-1.1
			c1.6-0.6,2.9-1.4,4.3-2.8c1.3-1.3,2.2-2.7,2.8-4.3c0.6-1.5,1-3.3,1.1-5.8C53,36.3,53,35.5,53,29s0-7.3-0.1-9.9
			c-0.1-2.6-0.5-4.3-1.1-5.8c-0.6-1.6-1.4-2.9-2.8-4.3c-1.3-1.3-2.7-2.2-4.3-2.8c-1.5-0.6-3.3-1-5.8-1.1C36.3,5,35.5,5,29,5
			S21.7,5,19.1,5.1"/>
	</defs>
	<clipPath id="SVGID_2_">
		<use xlink:href="#SVGID_1_"  style="overflow:visible;"/>
	</clipPath>
	<rect class="st0" width="58" height="58"/>
</g>
</svg>
