<?xml version="1.0" encoding="utf-8"?>
<!-- Generator: Adobe Illustrator 19.0.0, SVG Export Plug-In . SVG Version: 6.00 Build 0)  -->
<svg version="1.1" id="Layer_1" xmlns="http://www.w3.org/2000/svg" xmlns:xlink="http://www.w3.org/1999/xlink" x="0px" y="0px"
	 viewBox="0 0 58 49" style="enable-background:new 0 0 58 49;" xml:space="preserve">
<style type="text/css">
	.st0{clip-path:url(#SVGID_2_);fill:#FFFFFF;}
</style>
<g>
	<defs>
		<path id="SVGID_1_" d="M28.6,17.1c-8.2-0.4-15.4-4.3-20.3-10.3C5.8,11.2,7,17,11.4,19.9c-1.6-0.1-3.1-0.5-4.5-1.2
			c-0.1,4.6,3.2,8.8,7.9,9.8c-1.4,0.4-2.9,0.5-4.4,0.2c1.3,3.9,4.9,6.8,9.2,6.8c-4.1,3.2-9.4,4.7-14.6,4.1c4.4,2.8,9.5,4.4,15.1,4.4
			c18.3,0,28.6-15.4,28-29.3c1.9-1.4,3.6-3.1,4.9-5.1c-1.8,0.8-3.7,1.3-5.7,1.5c2-1.2,3.6-3.1,4.3-5.4c-1.9,1.1-4,1.9-6.3,2.4
			C43.6,6.2,41.1,5,38.2,5C31.9,5,27.2,10.9,28.6,17.1"/>
	</defs>
	<use xlink:href="#SVGID_1_"  style="overflow:visible;fill:#FFFFFF;"/>
	<clipPath id="SVGID_2_">
		<use xlink:href="#SVGID_1_"  style="overflow:visible;"/>
	</clipPath>
	<rect y="0" class="st0" width="58" height="49"/>
</g>
</svg>
