<?xml version="1.0" encoding="utf-8"?>
<!-- Generator: Adobe Illustrator 19.0.0, SVG Export Plug-In . SVG Version: 6.00 Build 0)  -->
<svg version="1.1" id="Layer_1" xmlns="http://www.w3.org/2000/svg" xmlns:xlink="http://www.w3.org/1999/xlink" x="0px" y="0px"
	 viewBox="0 0 58 44" style="enable-background:new 0 0 58 44;" xml:space="preserve">
<style type="text/css">
	.st0{display:none;clip-path:url(#SVGID_2_);fill:#FFFFFF;}
</style>
<g>
	<defs>
		<path id="SVGID_1_" d="M23,13.4l13,6.8l-13,6.8L23,13.4z M28,3.7c0,0-10.1,0-16.8,0.5c-0.9,0.1-3,0.1-4.8,2C4.9,7.7,4.5,11,4.5,11
			S4,14.9,4,18.8v3.7c0,3.9,0.5,7.8,0.5,7.8s0.5,3.3,1.9,4.8c1.8,1.9,4.2,1.9,5.3,2.1c3.8,0.4,16.3,0.5,16.3,0.5s10.1,0,16.8-0.5
			c0.9-0.1,3-0.1,4.8-2c1.4-1.5,1.9-4.8,1.9-4.8s0.5-3.9,0.5-7.8v-3.7c0-3.9-0.5-7.8-0.5-7.8s-0.5-3.3-1.9-4.8
			c-1.8-1.9-3.9-1.9-4.8-2C38.1,3.7,28,3.7,28,3.7L28,3.7z"/>
	</defs>
	<use xlink:href="#SVGID_1_"  style="overflow:visible;fill:#FFFFFF;"/>
	<clipPath id="SVGID_2_">
		<use xlink:href="#SVGID_1_"  style="overflow:visible;"/>
	</clipPath>
	<rect class="st0" width="58" height="44"/>
</g>
</svg>
